<?xml version="1.0" encoding="utf-8" standalone="no"?>
<!DOCTYPE svg PUBLIC "-//W3C//DTD SVG 1.1//EN"
  "http://www.w3.org/Graphics/SVG/1.1/DTD/svg11.dtd">
<svg xmlns:xlink="http://www.w3.org/1999/xlink" width="316.205625pt" height="166.39625pt" viewBox="0 0 316.205625 166.39625" xmlns="http://www.w3.org/2000/svg" version="1.1">
 <metadata>
  <rdf:RDF xmlns:dc="http://purl.org/dc/elements/1.1/" xmlns:cc="http://creativecommons.org/ns#" xmlns:rdf="http://www.w3.org/1999/02/22-rdf-syntax-ns#">
   <cc:Work>
    <dc:type rdf:resource="http://purl.org/dc/dcmitype/StillImage"/>
    <dc:date>2023-09-07T03:31:01.670957</dc:date>
    <dc:format>image/svg+xml</dc:format>
    <dc:creator>
     <cc:Agent>
      <dc:title>Matplotlib v3.7.2, https://matplotlib.org/</dc:title>
     </cc:Agent>
    </dc:creator>
   </cc:Work>
  </rdf:RDF>
 </metadata>
 <defs>
  <style type="text/css">*{stroke-linejoin: round; stroke-linecap: butt}</style>
 </defs>
 <g id="figure_1">
  <g id="patch_1">
   <path d="M 0 166.39625 
L 316.205625 166.39625 
L 316.205625 0 
L 0 0 
L 0 166.39625 
z
" style="fill: none"/>
  </g>
  <g id="axes_1">
   <g id="patch_2">
    <path d="M 36.485625 139.32 
L 315.485625 139.32 
L 315.485625 0.72 
L 36.485625 0.72 
L 36.485625 139.32 
z
" style="fill: none"/>
   </g>
   <g id="matplotlib.axis_1">
    <g id="xtick_1">
     <g id="line2d_1">
      <path d="M 36.485625 139.32 
L 36.485625 0.72 
" clip-path="url(#p7ed8be61a0)" style="fill: none; stroke-dasharray: 0.8,1.32; stroke-dashoffset: 0; stroke: #000000; stroke-opacity: 0.5; stroke-width: 0.8"/>
     </g>
     <g id="line2d_2">
      <defs>
       <path id="ma20c445c67" d="M 0 0 
L 0 3.5 
" style="stroke: #000000; stroke-width: 0.8"/>
      </defs>
      <g>
       <use xlink:href="#ma20c445c67" x="36.485625" y="139.32" style="stroke: #000000; stroke-width: 0.8"/>
      </g>
     </g>
     <g id="text_1">
      <!-- 0 -->
      <g transform="translate(33.304375 153.918438) scale(0.1 -0.1)">
       <defs>
        <path id="DejaVuSans-30" d="M 2034 4250 
Q 1547 4250 1301 3770 
Q 1056 3291 1056 2328 
Q 1056 1369 1301 889 
Q 1547 409 2034 409 
Q 2525 409 2770 889 
Q 3016 1369 3016 2328 
Q 3016 3291 2770 3770 
Q 2525 4250 2034 4250 
z
M 2034 4750 
Q 2819 4750 3233 4129 
Q 3647 3509 3647 2328 
Q 3647 1150 3233 529 
Q 2819 -91 2034 -91 
Q 1250 -91 836 529 
Q 422 1150 422 2328 
Q 422 3509 836 4129 
Q 1250 4750 2034 4750 
z
" transform="scale(0.015625)"/>
       </defs>
       <use xlink:href="#DejaVuSans-30"/>
      </g>
     </g>
    </g>
    <g id="xtick_2">
     <g id="line2d_3">
      <path d="M 79.100526 139.32 
L 79.100526 0.72 
" clip-path="url(#p7ed8be61a0)" style="fill: none; stroke-dasharray: 0.8,1.32; stroke-dashoffset: 0; stroke: #000000; stroke-opacity: 0.5; stroke-width: 0.8"/>
     </g>
     <g id="line2d_4">
      <g>
       <use xlink:href="#ma20c445c67" x="79.100526" y="139.32" style="stroke: #000000; stroke-width: 0.8"/>
      </g>
     </g>
     <g id="text_2">
      <!-- 5 -->
      <g transform="translate(75.919276 153.918438) scale(0.1 -0.1)">
       <defs>
        <path id="DejaVuSans-35" d="M 691 4666 
L 3169 4666 
L 3169 4134 
L 1269 4134 
L 1269 2991 
Q 1406 3038 1543 3061 
Q 1681 3084 1819 3084 
Q 2600 3084 3056 2656 
Q 3513 2228 3513 1497 
Q 3513 744 3044 326 
Q 2575 -91 1722 -91 
Q 1428 -91 1123 -41 
Q 819 9 494 109 
L 494 744 
Q 775 591 1075 516 
Q 1375 441 1709 441 
Q 2250 441 2565 725 
Q 2881 1009 2881 1497 
Q 2881 1984 2565 2268 
Q 2250 2553 1709 2553 
Q 1456 2553 1204 2497 
Q 953 2441 691 2322 
L 691 4666 
z
" transform="scale(0.015625)"/>
       </defs>
       <use xlink:href="#DejaVuSans-35"/>
      </g>
     </g>
    </g>
    <g id="xtick_3">
     <g id="line2d_5">
      <path d="M 121.715426 139.32 
L 121.715426 0.72 
" clip-path="url(#p7ed8be61a0)" style="fill: none; stroke-dasharray: 0.8,1.32; stroke-dashoffset: 0; stroke: #000000; stroke-opacity: 0.5; stroke-width: 0.8"/>
     </g>
     <g id="line2d_6">
      <g>
       <use xlink:href="#ma20c445c67" x="121.715426" y="139.32" style="stroke: #000000; stroke-width: 0.8"/>
      </g>
     </g>
     <g id="text_3">
      <!-- 10 -->
      <g transform="translate(115.352926 153.918438) scale(0.1 -0.1)">
       <defs>
        <path id="DejaVuSans-31" d="M 794 531 
L 1825 531 
L 1825 4091 
L 703 3866 
L 703 4441 
L 1819 4666 
L 2450 4666 
L 2450 531 
L 3481 531 
L 3481 0 
L 794 0 
L 794 531 
z
" transform="scale(0.015625)"/>
       </defs>
       <use xlink:href="#DejaVuSans-31"/>
       <use xlink:href="#DejaVuSans-30" x="63.623047"/>
      </g>
     </g>
    </g>
    <g id="xtick_4">
     <g id="line2d_7">
      <path d="M 164.330327 139.32 
L 164.330327 0.72 
" clip-path="url(#p7ed8be61a0)" style="fill: none; stroke-dasharray: 0.8,1.32; stroke-dashoffset: 0; stroke: #000000; stroke-opacity: 0.5; stroke-width: 0.8"/>
     </g>
     <g id="line2d_8">
      <g>
       <use xlink:href="#ma20c445c67" x="164.330327" y="139.32" style="stroke: #000000; stroke-width: 0.8"/>
      </g>
     </g>
     <g id="text_4">
      <!-- 15 -->
      <g transform="translate(157.967827 153.918438) scale(0.1 -0.1)">
       <use xlink:href="#DejaVuSans-31"/>
       <use xlink:href="#DejaVuSans-35" x="63.623047"/>
      </g>
     </g>
    </g>
    <g id="xtick_5">
     <g id="line2d_9">
      <path d="M 206.945227 139.32 
L 206.945227 0.72 
" clip-path="url(#p7ed8be61a0)" style="fill: none; stroke-dasharray: 0.8,1.32; stroke-dashoffset: 0; stroke: #000000; stroke-opacity: 0.5; stroke-width: 0.8"/>
     </g>
     <g id="line2d_10">
      <g>
       <use xlink:href="#ma20c445c67" x="206.945227" y="139.32" style="stroke: #000000; stroke-width: 0.8"/>
      </g>
     </g>
     <g id="text_5">
      <!-- 20 -->
      <g transform="translate(200.582727 153.918438) scale(0.1 -0.1)">
       <defs>
        <path id="DejaVuSans-32" d="M 1228 531 
L 3431 531 
L 3431 0 
L 469 0 
L 469 531 
Q 828 903 1448 1529 
Q 2069 2156 2228 2338 
Q 2531 2678 2651 2914 
Q 2772 3150 2772 3378 
Q 2772 3750 2511 3984 
Q 2250 4219 1831 4219 
Q 1534 4219 1204 4116 
Q 875 4013 500 3803 
L 500 4441 
Q 881 4594 1212 4672 
Q 1544 4750 1819 4750 
Q 2544 4750 2975 4387 
Q 3406 4025 3406 3419 
Q 3406 3131 3298 2873 
Q 3191 2616 2906 2266 
Q 2828 2175 2409 1742 
Q 1991 1309 1228 531 
z
" transform="scale(0.015625)"/>
       </defs>
       <use xlink:href="#DejaVuSans-32"/>
       <use xlink:href="#DejaVuSans-30" x="63.623047"/>
      </g>
     </g>
    </g>
    <g id="xtick_6">
     <g id="line2d_11">
      <path d="M 249.560128 139.32 
L 249.560128 0.72 
" clip-path="url(#p7ed8be61a0)" style="fill: none; stroke-dasharray: 0.8,1.32; stroke-dashoffset: 0; stroke: #000000; stroke-opacity: 0.5; stroke-width: 0.8"/>
     </g>
     <g id="line2d_12">
      <g>
       <use xlink:href="#ma20c445c67" x="249.560128" y="139.32" style="stroke: #000000; stroke-width: 0.8"/>
      </g>
     </g>
     <g id="text_6">
      <!-- 25 -->
      <g transform="translate(243.197628 153.918438) scale(0.1 -0.1)">
       <use xlink:href="#DejaVuSans-32"/>
       <use xlink:href="#DejaVuSans-35" x="63.623047"/>
      </g>
     </g>
    </g>
    <g id="xtick_7">
     <g id="line2d_13">
      <path d="M 292.175028 139.32 
L 292.175028 0.72 
" clip-path="url(#p7ed8be61a0)" style="fill: none; stroke-dasharray: 0.8,1.32; stroke-dashoffset: 0; stroke: #000000; stroke-opacity: 0.5; stroke-width: 0.8"/>
     </g>
     <g id="line2d_14">
      <g>
       <use xlink:href="#ma20c445c67" x="292.175028" y="139.32" style="stroke: #000000; stroke-width: 0.8"/>
      </g>
     </g>
     <g id="text_7">
      <!-- 30 -->
      <g transform="translate(285.812528 153.918438) scale(0.1 -0.1)">
       <defs>
        <path id="DejaVuSans-33" d="M 2597 2516 
Q 3050 2419 3304 2112 
Q 3559 1806 3559 1356 
Q 3559 666 3084 287 
Q 2609 -91 1734 -91 
Q 1441 -91 1130 -33 
Q 819 25 488 141 
L 488 750 
Q 750 597 1062 519 
Q 1375 441 1716 441 
Q 2309 441 2620 675 
Q 2931 909 2931 1356 
Q 2931 1769 2642 2001 
Q 2353 2234 1838 2234 
L 1294 2234 
L 1294 2753 
L 1863 2753 
Q 2328 2753 2575 2939 
Q 2822 3125 2822 3475 
Q 2822 3834 2567 4026 
Q 2313 4219 1838 4219 
Q 1578 4219 1281 4162 
Q 984 4106 628 3988 
L 628 4550 
Q 988 4650 1302 4700 
Q 1616 4750 1894 4750 
Q 2613 4750 3031 4423 
Q 3450 4097 3450 3541 
Q 3450 3153 3228 2886 
Q 3006 2619 2597 2516 
z
" transform="scale(0.015625)"/>
       </defs>
       <use xlink:href="#DejaVuSans-33"/>
       <use xlink:href="#DejaVuSans-30" x="63.623047"/>
      </g>
     </g>
    </g>
    <g id="text_8">
     <!-- Zeit [s] -->
     <g transform="translate(158.039531 163.596563) scale(0.1 -0.1)">
      <defs>
       <path id="DejaVuSans-5a" d="M 359 4666 
L 4025 4666 
L 4025 4184 
L 1075 531 
L 4097 531 
L 4097 0 
L 288 0 
L 288 481 
L 3238 4134 
L 359 4134 
L 359 4666 
z
" transform="scale(0.015625)"/>
       <path id="DejaVuSans-65" d="M 3597 1894 
L 3597 1613 
L 953 1613 
Q 991 1019 1311 708 
Q 1631 397 2203 397 
Q 2534 397 2845 478 
Q 3156 559 3463 722 
L 3463 178 
Q 3153 47 2828 -22 
Q 2503 -91 2169 -91 
Q 1331 -91 842 396 
Q 353 884 353 1716 
Q 353 2575 817 3079 
Q 1281 3584 2069 3584 
Q 2775 3584 3186 3129 
Q 3597 2675 3597 1894 
z
M 3022 2063 
Q 3016 2534 2758 2815 
Q 2500 3097 2075 3097 
Q 1594 3097 1305 2825 
Q 1016 2553 972 2059 
L 3022 2063 
z
" transform="scale(0.015625)"/>
       <path id="DejaVuSans-69" d="M 603 3500 
L 1178 3500 
L 1178 0 
L 603 0 
L 603 3500 
z
M 603 4863 
L 1178 4863 
L 1178 4134 
L 603 4134 
L 603 4863 
z
" transform="scale(0.015625)"/>
       <path id="DejaVuSans-74" d="M 1172 4494 
L 1172 3500 
L 2356 3500 
L 2356 3053 
L 1172 3053 
L 1172 1153 
Q 1172 725 1289 603 
Q 1406 481 1766 481 
L 2356 481 
L 2356 0 
L 1766 0 
Q 1100 0 847 248 
Q 594 497 594 1153 
L 594 3053 
L 172 3053 
L 172 3500 
L 594 3500 
L 594 4494 
L 1172 4494 
z
" transform="scale(0.015625)"/>
       <path id="DejaVuSans-20" transform="scale(0.015625)"/>
       <path id="DejaVuSans-5b" d="M 550 4863 
L 1875 4863 
L 1875 4416 
L 1125 4416 
L 1125 -397 
L 1875 -397 
L 1875 -844 
L 550 -844 
L 550 4863 
z
" transform="scale(0.015625)"/>
       <path id="DejaVuSans-73" d="M 2834 3397 
L 2834 2853 
Q 2591 2978 2328 3040 
Q 2066 3103 1784 3103 
Q 1356 3103 1142 2972 
Q 928 2841 928 2578 
Q 928 2378 1081 2264 
Q 1234 2150 1697 2047 
L 1894 2003 
Q 2506 1872 2764 1633 
Q 3022 1394 3022 966 
Q 3022 478 2636 193 
Q 2250 -91 1575 -91 
Q 1294 -91 989 -36 
Q 684 19 347 128 
L 347 722 
Q 666 556 975 473 
Q 1284 391 1588 391 
Q 1994 391 2212 530 
Q 2431 669 2431 922 
Q 2431 1156 2273 1281 
Q 2116 1406 1581 1522 
L 1381 1569 
Q 847 1681 609 1914 
Q 372 2147 372 2553 
Q 372 3047 722 3315 
Q 1072 3584 1716 3584 
Q 2034 3584 2315 3537 
Q 2597 3491 2834 3397 
z
" transform="scale(0.015625)"/>
       <path id="DejaVuSans-5d" d="M 1947 4863 
L 1947 -844 
L 622 -844 
L 622 -397 
L 1369 -397 
L 1369 4416 
L 622 4416 
L 622 4863 
L 1947 4863 
z
" transform="scale(0.015625)"/>
      </defs>
      <use xlink:href="#DejaVuSans-5a"/>
      <use xlink:href="#DejaVuSans-65" x="68.505859"/>
      <use xlink:href="#DejaVuSans-69" x="130.029297"/>
      <use xlink:href="#DejaVuSans-74" x="157.8125"/>
      <use xlink:href="#DejaVuSans-20" x="197.021484"/>
      <use xlink:href="#DejaVuSans-5b" x="228.808594"/>
      <use xlink:href="#DejaVuSans-73" x="267.822266"/>
      <use xlink:href="#DejaVuSans-5d" x="319.921875"/>
     </g>
    </g>
   </g>
   <g id="matplotlib.axis_2">
    <g id="ytick_1">
     <g id="line2d_15">
      <path d="M 36.485625 107.322611 
L 315.485625 107.322611 
" clip-path="url(#p7ed8be61a0)" style="fill: none; stroke-dasharray: 0.8,1.32; stroke-dashoffset: 0; stroke: #000000; stroke-opacity: 0.5; stroke-width: 0.8"/>
     </g>
     <g id="line2d_16">
      <defs>
       <path id="mcd8754b294" d="M 0 0 
L -3.5 0 
" style="stroke: #000000; stroke-width: 0.8"/>
      </defs>
      <g>
       <use xlink:href="#mcd8754b294" x="36.485625" y="107.322611" style="stroke: #000000; stroke-width: 0.8"/>
      </g>
     </g>
     <g id="text_9">
      <!-- 110 -->
      <g transform="translate(10.398125 111.12183) scale(0.1 -0.1)">
       <use xlink:href="#DejaVuSans-31"/>
       <use xlink:href="#DejaVuSans-31" x="63.623047"/>
       <use xlink:href="#DejaVuSans-30" x="127.246094"/>
      </g>
     </g>
    </g>
    <g id="ytick_2">
     <g id="line2d_17">
      <path d="M 36.485625 68.739903 
L 315.485625 68.739903 
" clip-path="url(#p7ed8be61a0)" style="fill: none; stroke-dasharray: 0.8,1.32; stroke-dashoffset: 0; stroke: #000000; stroke-opacity: 0.5; stroke-width: 0.8"/>
     </g>
     <g id="line2d_18">
      <g>
       <use xlink:href="#mcd8754b294" x="36.485625" y="68.739903" style="stroke: #000000; stroke-width: 0.8"/>
      </g>
     </g>
     <g id="text_10">
      <!-- 120 -->
      <g transform="translate(10.398125 72.539122) scale(0.1 -0.1)">
       <use xlink:href="#DejaVuSans-31"/>
       <use xlink:href="#DejaVuSans-32" x="63.623047"/>
       <use xlink:href="#DejaVuSans-30" x="127.246094"/>
      </g>
     </g>
    </g>
    <g id="ytick_3">
     <g id="line2d_19">
      <path d="M 36.485625 30.157195 
L 315.485625 30.157195 
" clip-path="url(#p7ed8be61a0)" style="fill: none; stroke-dasharray: 0.8,1.32; stroke-dashoffset: 0; stroke: #000000; stroke-opacity: 0.5; stroke-width: 0.8"/>
     </g>
     <g id="line2d_20">
      <g>
       <use xlink:href="#mcd8754b294" x="36.485625" y="30.157195" style="stroke: #000000; stroke-width: 0.8"/>
      </g>
     </g>
     <g id="text_11">
      <!-- 130 -->
      <g transform="translate(10.398125 33.956413) scale(0.1 -0.1)">
       <use xlink:href="#DejaVuSans-31"/>
       <use xlink:href="#DejaVuSans-33" x="63.623047"/>
       <use xlink:href="#DejaVuSans-30" x="127.246094"/>
      </g>
     </g>
    </g>
    <g id="text_12">
     <!-- Kraft [N] -->
     <g transform="translate(8.318438 91.2825) rotate(-90) scale(0.1 -0.1)">
      <defs>
       <path id="DejaVuSans-4b" d="M 628 4666 
L 1259 4666 
L 1259 2694 
L 3353 4666 
L 4166 4666 
L 1850 2491 
L 4331 0 
L 3500 0 
L 1259 2247 
L 1259 0 
L 628 0 
L 628 4666 
z
" transform="scale(0.015625)"/>
       <path id="DejaVuSans-72" d="M 2631 2963 
Q 2534 3019 2420 3045 
Q 2306 3072 2169 3072 
Q 1681 3072 1420 2755 
Q 1159 2438 1159 1844 
L 1159 0 
L 581 0 
L 581 3500 
L 1159 3500 
L 1159 2956 
Q 1341 3275 1631 3429 
Q 1922 3584 2338 3584 
Q 2397 3584 2469 3576 
Q 2541 3569 2628 3553 
L 2631 2963 
z
" transform="scale(0.015625)"/>
       <path id="DejaVuSans-61" d="M 2194 1759 
Q 1497 1759 1228 1600 
Q 959 1441 959 1056 
Q 959 750 1161 570 
Q 1363 391 1709 391 
Q 2188 391 2477 730 
Q 2766 1069 2766 1631 
L 2766 1759 
L 2194 1759 
z
M 3341 1997 
L 3341 0 
L 2766 0 
L 2766 531 
Q 2569 213 2275 61 
Q 1981 -91 1556 -91 
Q 1019 -91 701 211 
Q 384 513 384 1019 
Q 384 1609 779 1909 
Q 1175 2209 1959 2209 
L 2766 2209 
L 2766 2266 
Q 2766 2663 2505 2880 
Q 2244 3097 1772 3097 
Q 1472 3097 1187 3025 
Q 903 2953 641 2809 
L 641 3341 
Q 956 3463 1253 3523 
Q 1550 3584 1831 3584 
Q 2591 3584 2966 3190 
Q 3341 2797 3341 1997 
z
" transform="scale(0.015625)"/>
       <path id="DejaVuSans-66" d="M 2375 4863 
L 2375 4384 
L 1825 4384 
Q 1516 4384 1395 4259 
Q 1275 4134 1275 3809 
L 1275 3500 
L 2222 3500 
L 2222 3053 
L 1275 3053 
L 1275 0 
L 697 0 
L 697 3053 
L 147 3053 
L 147 3500 
L 697 3500 
L 697 3744 
Q 697 4328 969 4595 
Q 1241 4863 1831 4863 
L 2375 4863 
z
" transform="scale(0.015625)"/>
       <path id="DejaVuSans-4e" d="M 628 4666 
L 1478 4666 
L 3547 763 
L 3547 4666 
L 4159 4666 
L 4159 0 
L 3309 0 
L 1241 3903 
L 1241 0 
L 628 0 
L 628 4666 
z
" transform="scale(0.015625)"/>
      </defs>
      <use xlink:href="#DejaVuSans-4b"/>
      <use xlink:href="#DejaVuSans-72" x="65.576172"/>
      <use xlink:href="#DejaVuSans-61" x="106.689453"/>
      <use xlink:href="#DejaVuSans-66" x="167.96875"/>
      <use xlink:href="#DejaVuSans-74" x="201.423828"/>
      <use xlink:href="#DejaVuSans-20" x="240.632812"/>
      <use xlink:href="#DejaVuSans-5b" x="272.419922"/>
      <use xlink:href="#DejaVuSans-4e" x="311.433594"/>
      <use xlink:href="#DejaVuSans-5d" x="386.238281"/>
     </g>
    </g>
   </g>
   <g id="line2d_21">
    <path d="M 36.485625 5.853334 
L 315.485625 5.853334 
L 315.485625 5.853334 
" clip-path="url(#p7ed8be61a0)" style="fill: none; stroke: #0000ff; stroke-opacity: 0.5; stroke-width: 3; stroke-linecap: square"/>
   </g>
   <g id="line2d_22">
    <path d="M 36.485625 126.984143 
L 36.692975 130.100765 
L 36.783954 129.676266 
L 36.799073 127.854559 
L 36.849919 128.739718 
L 36.920767 128.578724 
L 36.970513 125.685961 
L 37.037388 126.066649 
L 37.106533 126.746456 
L 37.19325 126.378471 
L 37.267553 127.137928 
L 37.3467 125.123873 
L 37.398011 125.28307 
L 37.535544 126.982301 
L 37.604705 126.050263 
L 37.707884 126.802853 
L 37.827858 125.348648 
L 37.89613 126.682692 
L 37.982215 126.324526 
L 38.102297 127.276584 
L 38.273409 124.459177 
L 38.686732 127.640869 
L 38.806839 127.123292 
L 38.826572 126.068215 
L 38.892828 126.755263 
L 38.962324 126.907936 
L 39.171288 128.573644 
L 39.390485 127.036996 
L 39.666636 130.511652 
L 39.735637 130.129208 
L 39.809072 128.587994 
L 39.880939 128.772652 
L 39.960359 130.000799 
L 40.098262 128.657776 
L 40.37984 126.996539 
L 40.446245 128.40688 
L 40.527187 127.960523 
L 40.802886 125.988929 
L 40.870695 126.174547 
L 41.014364 128.708684 
L 41.165376 127.299535 
L 41.23411 127.666781 
L 41.440825 124.868153 
L 41.578265 126.879304 
L 41.648283 126.378062 
L 41.870849 125.392327 
L 41.940125 124.102058 
L 42.00846 124.592516 
L 42.156427 126.174584 
L 42.217897 125.726102 
L 42.300193 126.277827 
L 42.369092 126.252477 
L 42.519856 125.037099 
L 42.576513 125.67572 
L 42.646326 125.325036 
L 42.783992 126.587816 
L 42.851329 127.193632 
L 43.013101 124.96907 
L 43.075014 123.865339 
L 43.142312 124.301537 
L 43.437662 127.787456 
L 43.504092 126.928881 
L 43.644365 128.41953 
L 44.021643 125.584349 
L 44.279319 128.133131 
L 44.399402 126.450361 
L 44.63921 132.584341 
L 44.708278 131.450034 
L 44.777115 131.006471 
L 44.916501 126.784228 
L 45.004024 127.579102 
L 45.05727 128.599412 
L 45.128784 128.445487 
L 45.48564 126.237648 
L 45.711656 127.690578 
L 45.781837 127.507704 
L 46.004651 128.842309 
L 46.057934 128.568039 
L 46.128276 128.379988 
L 46.284553 126.242477 
L 46.413092 126.821178 
L 46.505415 127.051789 
L 46.652624 128.572423 
L 46.668696 127.462384 
L 46.810451 124.608233 
L 46.87279 124.717171 
L 46.94912 126.270371 
L 47.138624 128.34166 
L 47.224074 128.040757 
L 47.361328 126.142594 
L 47.567604 129.029843 
L 47.70688 127.246894 
L 47.774235 126.814108 
L 47.985935 128.497796 
L 48.203652 126.453537 
L 48.256465 125.838046 
L 48.420127 129.058293 
L 48.478775 128.820653 
L 48.709409 126.565601 
L 49.06194 130.804812 
L 49.113719 130.59493 
L 49.457212 128.338204 
L 49.525704 128.932886 
L 49.612218 127.894758 
L 49.818347 123.300685 
L 49.903794 123.740056 
L 50.178837 127.735464 
L 50.247424 127.379401 
L 50.333443 127.836048 
L 50.539532 130.143667 
L 50.607793 129.895907 
L 50.934069 125.776583 
L 50.968163 128.087592 
L 51.026474 128.032545 
L 51.105151 126.921582 
L 51.556069 131.436694 
L 51.60485 130.946219 
L 51.673559 128.717459 
L 51.753719 128.823519 
L 51.811139 130.374141 
L 51.982276 129.894618 
L 52.034332 130.167751 
L 52.171154 128.458603 
L 52.412331 130.74578 
L 52.464439 130.29546 
L 52.532889 128.423664 
L 52.601504 128.790953 
L 52.704415 128.730476 
L 52.859056 129.529448 
L 53.01379 129.005199 
L 53.065253 129.104563 
L 53.117154 129.038744 
L 53.215722 128.629448 
L 53.237307 128.777322 
L 53.602488 130.55773 
L 53.757199 128.422451 
L 53.889726 129.616394 
L 54.010925 129.394664 
L 54.067337 128.996406 
L 54.106021 129.706688 
L 54.106094 128.925239 
L 54.174453 129.32537 
L 54.37556 129.664691 
L 54.407609 129.31212 
L 54.425745 130.12614 
L 54.493179 129.95541 
L 54.573228 128.773451 
L 54.5898 129.140255 
L 54.658694 128.535143 
L 54.740723 129.281845 
L 54.819623 129.24493 
L 54.920956 128.627709 
L 55.019715 128.880134 
L 55.091525 128.647719 
L 55.228227 129.401263 
L 55.330636 128.063696 
L 55.365137 130.381006 
L 55.434317 129.872084 
L 55.657443 123.521854 
L 55.725733 124.866968 
L 55.863372 126.997404 
L 55.966285 126.497582 
L 56.021354 128.737964 
L 56.087631 128.072866 
L 56.245644 126.811825 
L 56.383787 128.090306 
L 56.452362 128.933387 
L 56.502095 128.913494 
L 56.674091 128.687918 
L 56.742893 127.267472 
L 56.795412 127.283016 
L 57.069869 129.711068 
L 57.223888 128.581469 
L 57.379975 126.54718 
L 57.448975 126.898438 
L 57.654884 124.729586 
L 57.861086 123.422528 
L 57.877522 123.798807 
L 58.616043 127.181714 
L 59.01676 127.777288 
L 59.391315 127.402421 
L 59.406492 126.36611 
L 59.491651 127.32606 
L 59.561118 128.167062 
L 59.699255 125.999106 
L 59.956487 132.093134 
L 59.975038 130.569884 
L 60.180721 129.588382 
L 60.316809 127.831367 
L 60.439438 129.924523 
L 60.678096 126.927195 
L 60.835723 129.844567 
L 60.908681 130.176135 
L 61.03949 129.245514 
L 61.21138 124.55553 
L 61.263344 124.818953 
L 61.347859 126.305078 
L 61.509848 123.892935 
L 61.605861 123.948228 
L 61.7623 127.454081 
L 61.89814 127.054853 
L 62.087074 124.846967 
L 62.229039 126.17671 
L 62.276256 126.154893 
L 62.367088 125.380009 
L 62.413602 125.774439 
L 62.483207 127.726759 
L 62.547694 126.574825 
L 62.650909 126.241138 
L 62.891415 127.691177 
L 63.045942 127.201456 
L 63.114452 126.739943 
L 63.183428 126.828992 
L 63.337664 127.773363 
L 63.407241 128.212193 
L 63.458451 127.797029 
L 63.612399 128.582644 
L 63.681403 128.474743 
L 63.769118 128.267069 
L 63.904227 126.668713 
L 64.042481 128.108177 
L 64.180094 126.095045 
L 64.31752 123.64496 
L 64.456676 124.707761 
L 64.594045 126.41412 
L 64.747533 124.966249 
L 64.884644 128.732439 
L 65.004037 129.171835 
L 65.021058 130.082079 
L 65.108742 129.339096 
L 65.255163 129.071822 
L 65.25545 129.39137 
L 65.339612 127.713459 
L 65.665164 131.654157 
L 65.83555 134.186667 
L 65.955855 133.821401 
L 66.161372 132.226979 
L 66.522191 123.939496 
L 66.590519 124.732563 
L 66.710376 125.013972 
L 66.729623 124.9535 
L 66.86622 124.40265 
L 66.950292 125.243899 
L 67.02319 125.09353 
L 67.089023 125.477337 
L 67.297408 128.910229 
L 67.432554 129.043588 
L 67.484097 130.226621 
L 67.522042 130.176689 
L 67.587228 129.882617 
L 67.724368 131.531269 
L 67.793821 131.490917 
L 68.052701 126.89078 
L 68.171184 128.137147 
L 68.360489 126.795593 
L 68.497621 126.185069 
L 68.601986 129.277738 
L 68.806604 127.943046 
L 68.876173 127.147349 
L 68.927053 127.64716 
L 69.082955 128.270056 
L 69.15221 128.843559 
L 69.253542 127.634376 
L 69.32293 127.891059 
L 69.373943 128.814146 
L 69.446113 128.441576 
L 69.509166 127.452449 
L 69.639219 130.941912 
L 69.981579 127.007112 
L 70.031939 125.879737 
L 70.084178 126.424296 
L 70.1345 126.945494 
L 70.220689 126.699891 
L 70.361624 121.356813 
L 70.427568 122.620259 
L 70.496632 124.098413 
L 70.566395 124.066576 
L 70.638718 122.883104 
L 70.705195 123.665536 
L 70.926922 121.900486 
L 71.116003 121.906107 
L 71.132872 124.868838 
L 71.202369 122.612184 
L 71.322612 124.034434 
L 71.425557 126.730324 
L 71.493973 126.747701 
L 71.624751 127.00309 
L 71.701281 129.879701 
L 71.76816 128.399998 
L 71.785209 128.645292 
L 71.896186 129.593332 
L 71.927523 131.185828 
L 72.130826 127.556172 
L 72.271289 127.772235 
L 72.33585 127.91104 
L 72.525956 124.600935 
L 72.560287 124.501619 
L 72.699244 123.635724 
L 72.739652 123.949757 
L 72.767492 123.946928 
L 72.922736 125.029919 
L 73.010909 124.704 
L 73.049502 124.016904 
L 73.198037 126.656402 
L 73.327459 126.099944 
L 73.472476 124.07374 
L 73.601242 124.843861 
L 73.638622 124.778863 
L 73.988931 120.420419 
L 74.405425 127.087495 
L 74.490316 127.111612 
L 74.559115 127.448439 
L 74.614434 128.464486 
L 74.696113 128.420458 
L 74.833723 130.233237 
L 74.902126 129.708766 
L 75.113318 127.752624 
L 75.126755 130.161946 
L 75.195737 128.003297 
L 75.248068 127.96846 
L 75.351879 127.111592 
L 75.402363 128.148905 
L 75.557335 125.388115 
L 75.612012 125.940854 
L 75.69656 128.252732 
L 75.711188 126.858288 
L 75.831986 125.551693 
L 76.039786 128.136804 
L 76.212014 126.241287 
L 76.334074 127.556176 
L 76.383264 125.983085 
L 76.539118 127.075032 
L 76.624602 125.908002 
L 76.696912 126.254232 
L 76.745218 126.313348 
L 76.883052 128.069019 
L 77.006838 127.95784 
L 77.023735 127.738455 
L 77.112299 128.725854 
L 77.178671 128.545377 
L 77.249203 128.133947 
L 77.45272 129.83443 
L 77.882766 125.909557 
L 78.020369 127.008462 
L 78.106357 126.783672 
L 78.242913 125.094594 
L 78.660759 130.007205 
L 78.795284 126.956441 
L 78.863853 127.11445 
L 78.966577 128.978944 
L 79.018379 128.70536 
L 79.172389 130.640442 
L 79.657147 124.743523 
L 79.8529 123.208325 
L 79.895556 123.555323 
L 80.290623 128.32973 
L 80.447201 129.128803 
L 80.531883 128.924757 
L 80.669996 126.738947 
L 80.789414 127.425814 
L 81.166775 125.800657 
L 81.236681 126.017377 
L 81.287571 126.736683 
L 81.442875 125.111378 
L 81.617289 126.497272 
L 81.873673 125.189681 
L 81.928036 123.766843 
L 81.994666 124.011552 
L 82.166659 125.119298 
L 82.317134 123.651905 
L 82.43283 126.783152 
L 82.52402 125.529872 
L 82.598097 125.448917 
L 82.75293 127.67044 
L 82.791904 126.483962 
L 82.941746 128.732144 
L 82.992986 128.717137 
L 83.130754 128.864238 
L 83.18422 128.153234 
L 83.219515 129.316419 
L 83.274447 129.312875 
L 83.426155 129.240063 
L 83.495769 130.02132 
L 83.562954 128.818594 
L 83.631512 129.206803 
L 83.701067 129.744338 
L 83.771726 128.62895 
L 83.856643 128.364925 
L 83.930191 126.860503 
L 83.992894 128.332928 
L 84.060913 127.901067 
L 84.346952 126.054832 
L 84.490167 126.34357 
L 84.560385 125.981986 
L 84.62708 127.567077 
L 84.700412 127.334601 
L 84.766973 126.621142 
L 84.987635 129.280596 
L 85.057246 129.083962 
L 85.125212 128.778892 
L 85.193481 129.767888 
L 85.264413 129.67187 
L 85.417323 126.280099 
L 85.55518 128.394223 
L 85.62386 128.364564 
L 85.761313 127.699216 
L 85.829699 127.949747 
L 85.985208 127.360121 
L 86.12311 129.006173 
L 86.190936 128.675895 
L 86.330837 126.630571 
L 86.483238 128.674974 
L 86.757977 129.679418 
L 86.835129 130.400912 
L 87.137634 126.867215 
L 87.187392 127.541165 
L 87.259212 129.112245 
L 87.410475 127.144012 
L 87.463315 127.906462 
L 87.538815 126.799642 
L 87.685945 128.815947 
L 87.754716 128.804235 
L 87.825395 129.079691 
L 87.961728 126.667882 
L 88.031023 126.927691 
L 88.11746 128.007232 
L 88.173107 127.77823 
L 88.25566 127.661149 
L 88.322791 126.500907 
L 88.39279 127.038253 
L 88.472245 126.703468 
L 88.477877 128.114802 
L 88.530184 127.877224 
L 88.685197 129.504013 
L 88.891933 127.568329 
L 88.943533 128.106048 
L 88.961242 127.653034 
L 89.031109 127.58009 
L 89.192137 126.433055 
L 89.271621 127.177483 
L 89.322792 126.98391 
L 89.392003 126.317329 
L 89.529046 128.022364 
L 89.597504 126.610695 
L 89.666701 127.334335 
L 89.73608 127.964642 
L 89.842316 126.791167 
L 89.893373 127.305342 
L 90.035253 125.826778 
L 90.048772 124.514181 
L 90.099708 125.080538 
L 90.220177 125.112985 
L 90.306048 127.872513 
L 90.461069 127.794894 
L 90.529752 127.362184 
L 90.547048 128.068204 
L 90.754636 127.470325 
L 90.840694 129.293092 
L 90.89309 128.630197 
L 91.218076 124.0112 
L 91.305109 124.719794 
L 91.391499 124.505746 
L 91.443354 125.764846 
L 91.45892 124.163376 
L 91.528414 123.968238 
L 91.683394 122.93 
L 91.821034 125.851952 
L 91.870872 127.28071 
L 91.940349 126.711414 
L 92.008942 127.941239 
L 92.112894 127.928685 
L 92.181673 127.275187 
L 92.197879 128.999334 
L 92.268471 127.947847 
L 92.353135 129.182561 
L 92.404344 128.069617 
L 92.490575 128.334094 
L 92.577702 127.204093 
L 92.679877 127.688081 
L 92.749381 126.515858 
L 92.800293 128.47014 
L 93.157147 125.514611 
L 93.211763 125.982426 
L 93.246441 126.158626 
L 93.366324 125.809273 
L 93.40918 126.014026 
L 93.538158 123.408281 
L 93.608187 125.118481 
L 93.747599 123.651721 
L 93.796427 125.728162 
L 93.865182 124.996501 
L 94.061224 125.21539 
L 94.080157 124.474908 
L 94.144372 125.718701 
L 94.296671 124.357266 
L 94.439731 125.801526 
L 94.503591 125.150921 
L 94.880286 127.904766 
L 94.931549 128.220714 
L 95.020805 129.503464 
L 95.088368 128.13188 
L 95.140757 128.448246 
L 95.224767 129.541489 
L 95.27706 128.729524 
L 95.41601 128.360566 
L 95.448977 127.463331 
L 95.63653 128.954694 
L 95.812448 128.296447 
L 95.867177 128.334894 
L 95.997246 126.499237 
L 96.067827 127.436088 
L 96.1348 127.199082 
L 96.173829 127.23918 
L 96.430986 125.367609 
L 96.60151 126.971062 
L 96.687472 127.575602 
L 96.704986 127.174178 
L 97.117291 122.77281 
L 97.153747 124.526488 
L 97.237474 123.828536 
L 97.290338 122.813748 
L 97.495073 124.193384 
L 97.563877 124.704695 
L 97.638131 124.091344 
L 97.700878 125.219635 
L 97.839058 124.947959 
L 97.992856 126.348763 
L 98.131685 125.816076 
L 98.199234 125.947698 
L 98.456819 128.750393 
L 98.560033 127.502527 
L 98.853186 128.463251 
L 98.923987 129.041924 
L 99.197174 127.65618 
L 99.268451 127.689382 
L 99.343803 128.215656 
L 99.404287 127.949447 
L 99.524514 127.241063 
L 99.901742 129.738001 
L 100.476493 124.042034 
L 100.675913 123.816156 
L 100.831074 126.851693 
L 100.977171 125.312948 
L 101.244089 127.580401 
L 101.328927 127.696308 
L 101.46715 126.056225 
L 101.535651 127.133985 
L 101.604006 126.975335 
L 101.965514 124.329482 
L 102.032822 124.342709 
L 102.171063 124.959631 
L 102.240019 124.162875 
L 102.339977 124.419108 
L 102.599912 127.322291 
L 102.808594 125.87302 
L 103.103517 127.600593 
L 103.168135 127.391313 
L 103.236082 125.898701 
L 103.307268 126.027251 
L 103.5358 128.019001 
L 103.667168 127.620612 
L 103.804334 127.84218 
L 103.89118 126.36353 
L 103.943891 127.119894 
L 104.01218 129.035943 
L 104.09951 125.746153 
L 104.254926 126.894739 
L 104.30424 126.17172 
L 104.372726 126.61468 
L 104.44164 126.848613 
L 104.516524 125.654355 
L 104.595996 126.584733 
L 104.670117 125.655539 
L 104.840755 127.225978 
L 104.953246 123.964791 
L 105.030015 124.796626 
L 105.149985 123.204426 
L 105.218767 123.633605 
L 105.355225 123.228917 
L 105.389321 124.335218 
L 105.451392 124.24083 
L 105.510099 124.552603 
L 105.715625 127.660907 
L 105.750095 126.737844 
L 105.838783 126.56205 
L 105.940498 128.229035 
L 106.170289 127.13467 
L 106.301107 125.138504 
L 106.369459 125.11177 
L 106.438019 124.128023 
L 106.937355 129.627342 
L 107.075014 128.860598 
L 107.161906 130.403791 
L 107.281711 129.427382 
L 107.418727 127.235425 
L 107.85039 123.245559 
L 108.072859 124.518243 
L 108.140597 124.455661 
L 108.20962 124.180076 
L 108.381028 124.872272 
L 108.605229 127.379604 
L 108.65649 125.925451 
L 108.708669 126.126297 
L 108.932839 128.938465 
L 109.155129 126.639627 
L 109.261246 125.422344 
L 109.292258 123.013387 
L 109.309329 124.684569 
L 109.39559 125.795854 
L 109.418461 127.566097 
L 109.567268 124.828167 
L 109.639101 125.040689 
L 109.979613 131.100103 
L 110.064731 130.612099 
L 110.1331 129.434696 
L 110.219165 129.729419 
L 110.287898 129.425358 
L 110.443946 129.931542 
L 110.702488 126.140961 
L 110.772751 126.174637 
L 110.873969 126.171699 
L 110.907932 125.184216 
L 111.063141 126.131402 
L 111.217187 124.76778 
L 111.441091 126.387103 
L 111.477278 125.968065 
L 111.629966 128.274864 
L 111.698454 127.844978 
L 111.837449 127.276645 
L 111.915558 128.003941 
L 111.977945 127.571884 
L 112.016874 127.601691 
L 112.070965 127.328934 
L 112.213284 130.336858 
L 112.333294 128.301492 
L 112.435403 130.327238 
L 112.487239 129.558668 
L 112.62534 128.479187 
L 112.714461 129.140216 
L 112.841134 126.529944 
L 112.917268 125.136055 
L 112.986837 125.300343 
L 113.072386 125.960663 
L 113.231641 124.58537 
L 113.264753 125.755873 
L 113.331136 124.493604 
L 113.485553 125.894078 
L 113.761333 124.048424 
L 113.921427 125.850845 
L 114.159364 124.300828 
L 114.274191 124.699455 
L 114.474605 126.154668 
L 114.508512 125.819604 
L 114.674166 122.714235 
L 114.899941 122.208074 
L 114.968592 122.78525 
L 115.036573 122.532647 
L 115.260075 123.359143 
L 115.311504 123.27275 
L 115.622714 125.200569 
L 115.70258 124.890284 
L 115.881882 124.012517 
L 115.967423 124.169758 
L 116.279052 129.26333 
L 116.31288 128.30568 
L 116.381387 128.544919 
L 116.467914 129.762795 
L 116.535664 128.598319 
L 116.589677 129.757919 
L 116.708034 129.725448 
L 116.949026 124.710849 
L 117.017335 126.98993 
L 117.090006 126.22434 
L 117.173452 125.343108 
L 117.241372 126.308978 
L 117.3104 125.820179 
L 117.38579 125.691352 
L 117.455232 126.250664 
L 117.584961 125.945161 
L 117.619025 126.076995 
L 117.670628 127.642019 
L 117.757929 126.047568 
L 117.810915 126.532174 
L 118.035066 128.379003 
L 118.085956 128.270469 
L 118.192943 128.450286 
L 118.309321 129.931323 
L 118.429173 129.860819 
L 118.532953 131.839221 
L 118.721065 128.879948 
L 118.789889 129.635852 
L 118.875812 128.307947 
L 118.961182 128.586732 
L 119.051187 129.277618 
L 119.218121 125.770814 
L 119.287838 126.733587 
L 119.358949 126.674462 
L 119.442202 126.874464 
L 119.523846 126.14391 
L 119.579485 126.897432 
L 119.733832 124.84611 
L 119.803052 125.039388 
L 119.88958 124.89619 
L 120.014307 127.395836 
L 120.180185 127.19098 
L 120.300847 128.653811 
L 120.390751 128.601936 
L 120.536186 131.63618 
L 120.628755 131.950652 
L 120.764936 129.383317 
L 120.799805 130.348047 
L 120.868558 129.747501 
L 120.954569 129.89042 
L 121.022972 130.334978 
L 121.091355 129.679828 
L 121.228915 126.64192 
L 121.283966 126.254484 
L 121.488785 127.086463 
L 121.574237 125.454456 
L 121.589703 125.824389 
L 121.71052 123.648355 
L 121.848647 124.943696 
L 122.074272 123.807173 
L 122.140414 123.908246 
L 122.210648 123.793286 
L 122.292313 124.10696 
L 122.360458 125.033621 
L 122.446768 124.960006 
L 122.484185 124.541441 
L 122.721303 128.01685 
L 122.84252 127.230811 
L 122.912596 128.335667 
L 122.926631 128.14151 
L 123.02925 128.010546 
L 123.289926 124.934944 
L 123.493885 125.398207 
L 123.648494 124.95715 
L 123.705892 125.652416 
L 123.770271 124.905565 
L 123.980776 126.781082 
L 124.220355 124.953751 
L 124.290105 126.112167 
L 124.407442 123.953035 
L 124.477015 124.89482 
L 124.562471 124.610596 
L 124.735266 126.24696 
L 124.802966 125.934945 
L 124.940425 126.261868 
L 125.009489 126.764567 
L 125.185306 131.315194 
L 125.405927 127.977838 
L 125.628889 130.42747 
L 125.92295 127.454718 
L 125.973481 128.299756 
L 126.11363 129.321071 
L 126.213575 129.383814 
L 126.369345 126.994639 
L 126.385725 127.848751 
L 126.403987 127.041708 
L 126.610196 125.44795 
L 126.730371 125.975678 
L 126.78462 125.239007 
L 126.835077 125.443148 
L 127.007335 127.662903 
L 127.052058 127.201212 
L 127.109563 127.084545 
L 127.280793 127.664129 
L 127.46916 130.302646 
L 127.67595 128.143743 
L 127.744376 127.96196 
L 127.830317 127.206896 
L 127.918454 127.717422 
L 127.967664 127.689914 
L 128.175938 125.164818 
L 128.243046 125.779551 
L 128.314496 125.481304 
L 128.534936 126.886632 
L 128.67225 126.103524 
L 128.843989 126.880288 
L 128.981976 127.618868 
L 129.055607 129.13725 
L 129.855862 124.730777 
L 129.873841 125.734618 
L 129.952875 124.487411 
L 130.045206 124.593096 
L 130.16585 125.851981 
L 130.235779 124.251966 
L 130.32006 125.201874 
L 130.517154 122.51468 
L 130.612335 122.448537 
L 130.759879 124.677622 
L 130.82937 123.719821 
L 130.8632 124.479582 
L 130.951031 126.143291 
L 131.034516 124.564911 
L 131.1042 124.961038 
L 131.240215 126.812825 
L 131.362394 125.835896 
L 131.516693 128.202086 
L 131.533288 127.532817 
L 131.587124 127.247799 
L 131.656608 127.668963 
L 131.795726 129.663417 
L 131.89515 128.3305 
L 132.002938 130.305865 
L 132.274532 125.924696 
L 132.396371 127.119002 
L 132.498496 127.035057 
L 132.584185 129.221777 
L 132.653259 128.158099 
L 132.790409 126.651874 
L 132.85935 126.678017 
L 132.99736 127.438795 
L 133.152139 126.938999 
L 133.262497 126.600433 
L 133.35816 126.761583 
L 133.512565 131.232148 
L 133.650505 131.072353 
L 133.739097 129.714283 
L 133.844787 130.10863 
L 133.891823 129.881617 
L 134.165506 124.158726 
L 134.237032 124.091442 
L 134.56158 126.187526 
L 134.631394 126.332236 
L 134.797795 125.267604 
L 135.025638 127.645629 
L 135.163427 125.877982 
L 135.248458 125.929306 
L 135.283161 126.531062 
L 135.360522 126.116929 
L 135.42092 126.023431 
L 135.562601 128.118347 
L 135.659916 127.712782 
L 135.696465 126.743819 
L 135.850696 129.077639 
L 135.920108 128.596376 
L 135.988283 127.639406 
L 136.126731 128.88641 
L 136.273506 126.919285 
L 136.430041 130.576851 
L 136.512832 129.711929 
L 136.651176 127.871321 
L 136.907761 130.36953 
L 136.978266 130.105299 
L 137.131177 125.758119 
L 137.321097 126.872935 
L 137.338421 126.83138 
L 137.40731 126.938158 
L 137.630166 125.293049 
L 137.83729 127.530402 
L 137.90941 127.420079 
L 138.008335 127.697746 
L 138.060302 128.703374 
L 138.129067 128.604958 
L 138.198271 128.075287 
L 138.28483 129.865097 
L 138.334786 128.867462 
L 138.677984 126.00663 
L 138.783893 125.758103 
L 139.004298 124.021466 
L 139.12647 124.901219 
L 139.194668 125.958267 
L 139.284172 125.917499 
L 139.5377 126.851683 
L 139.62405 126.751374 
L 139.677087 125.66926 
L 139.745606 125.686186 
L 139.830175 125.758586 
L 139.899197 125.517905 
L 139.966961 125.874345 
L 140.327971 123.250545 
L 140.396065 124.944423 
L 140.519914 125.157116 
L 140.619442 123.838862 
L 140.775329 125.465765 
L 140.824451 127.397904 
L 140.893226 126.473804 
L 140.962631 126.394105 
L 141.030684 126.996644 
L 141.103114 126.249794 
L 141.116095 128.470625 
L 141.185044 127.069125 
L 141.25443 127.076566 
L 141.322531 127.334874 
L 141.408446 127.275966 
L 141.785016 124.396413 
L 141.821063 124.510268 
L 141.958353 124.115658 
L 142.012593 125.238332 
L 142.061621 124.953214 
L 142.11309 123.936874 
L 142.317151 126.928305 
L 142.515354 128.947362 
L 142.805887 126.405526 
L 143.097911 123.775441 
L 143.218883 123.708506 
L 143.255506 122.908843 
L 143.356045 123.155891 
L 143.375545 123.126558 
L 143.459673 122.726481 
L 143.52737 123.381307 
L 143.596217 122.51204 
L 143.667011 123.631174 
L 143.736333 123.47942 
L 143.944023 125.136036 
L 144.220198 129.32597 
L 144.545704 127.211871 
L 144.579038 127.516286 
L 144.682315 128.06694 
L 144.717805 129.072546 
L 144.787269 128.134667 
L 145.010028 128.245055 
L 145.146943 128.82257 
L 145.284019 128.498522 
L 145.438795 126.084639 
L 145.508007 126.432798 
L 145.577089 126.076975 
L 145.645855 124.510749 
L 145.716164 125.309592 
L 145.852255 125.652709 
L 145.923183 126.5265 
L 146.00626 125.452319 
L 146.074504 126.512225 
L 146.213262 124.471896 
L 146.437215 127.980895 
L 146.575102 126.312616 
L 146.662461 125.703889 
L 146.713973 126.26441 
L 146.782089 125.771922 
L 146.919924 128.073057 
L 147.070495 127.749595 
L 147.14323 128.674677 
L 147.212731 128.449681 
L 147.352163 127.884707 
L 147.486584 129.713034 
L 147.556077 128.038701 
L 147.626632 128.656104 
L 147.848802 127.436808 
L 147.98381 128.830814 
L 148.057762 128.271846 
L 148.123622 128.357575 
L 148.194916 127.857783 
L 148.345394 128.983018 
L 148.568694 127.836868 
L 148.6715 127.875678 
L 148.79754 128.968949 
L 148.904133 127.626619 
L 149.055578 126.122247 
L 149.218138 127.165619 
L 149.352748 126.323145 
L 149.402867 126.22637 
L 149.46899 126.385632 
L 149.552288 126.092781 
L 149.638426 124.82394 
L 149.69437 124.860835 
L 149.77623 124.504626 
L 150.136994 121.277934 
L 150.3258 121.571714 
L 150.481685 125.205941 
L 150.825427 128.864453 
L 150.910087 128.493148 
L 150.962121 129.469589 
L 151.185359 128.423966 
L 151.272043 128.501057 
L 151.407916 128.189404 
L 151.476569 127.522761 
L 151.689754 128.67896 
L 151.768283 128.302769 
L 151.836875 129.163212 
L 151.905922 128.448456 
L 152.0957 128.925239 
L 152.249653 127.372714 
L 152.38987 127.862685 
L 152.404603 126.571089 
L 152.473319 127.212928 
L 152.558322 127.375039 
L 152.611595 127.942307 
L 152.678514 127.721996 
L 152.748257 127.598449 
L 152.885487 128.407339 
L 153.002188 128.312994 
L 153.125559 126.560286 
L 153.263 124.162219 
L 153.332036 124.911178 
L 153.400352 124.92266 
L 153.60716 123.838752 
L 153.767523 126.060379 
L 153.813354 127.634457 
L 153.899868 127.435292 
L 153.95684 128.031455 
L 154.037379 127.728825 
L 154.265642 125.397063 
L 154.402727 125.664071 
L 154.50671 125.437011 
L 154.523074 124.714551 
L 154.665991 126.357391 
L 154.83773 125.479262 
L 155.027616 128.461703 
L 155.438043 124.963244 
L 155.559369 127.280523 
L 155.594448 127.149589 
L 155.66212 126.263136 
L 155.81625 127.01929 
L 155.957761 127.665537 
L 156.023548 127.175174 
L 156.092277 128.092157 
L 156.182171 126.459066 
L 156.382954 127.748073 
L 156.449992 125.963558 
L 156.516099 125.98227 
L 156.601626 125.978931 
L 156.670541 126.115774 
L 156.879883 127.471263 
L 156.9293 126.366539 
L 157.014487 126.382691 
L 157.117067 126.580126 
L 157.237429 128.213037 
L 157.546169 125.701596 
L 157.719928 124.118287 
L 157.804467 124.773076 
L 157.87334 124.518595 
L 158.150298 126.077173 
L 158.251495 125.762962 
L 158.440103 127.914863 
L 158.510996 127.525456 
L 158.57801 128.16287 
L 158.715494 126.197821 
L 158.79907 127.287808 
L 158.908471 126.957418 
L 158.991531 128.619086 
L 159.011291 127.499121 
L 159.127218 128.367861 
L 159.301499 125.850313 
L 159.351981 127.134803 
L 159.420377 126.876324 
L 159.643654 124.950285 
L 159.714497 125.375478 
L 159.819435 125.18916 
L 159.936593 127.41146 
L 160.126872 126.469129 
L 160.141978 127.7803 
L 160.401605 128.656643 
L 160.47207 128.066829 
L 160.642788 123.084658 
L 160.847359 123.951798 
L 160.969192 123.297256 
L 161.138874 125.178911 
L 161.413893 128.780356 
L 161.626454 128.336915 
L 161.774799 128.785606 
L 162.136036 126.254476 
L 162.190176 127.133757 
L 162.411634 125.520657 
L 162.550504 125.689822 
L 162.617611 125.145808 
L 162.756326 127.384896 
L 163.119214 129.840087 
L 163.188817 129.57436 
L 163.332665 129.926053 
L 163.408145 129.058779 
L 163.484753 129.512983 
L 163.753581 127.781681 
L 163.874029 127.796372 
L 163.99379 128.635715 
L 164.047294 127.84648 
L 164.131604 127.949822 
L 164.253091 128.843719 
L 164.406406 129.202625 
L 164.54364 127.186208 
L 164.681898 125.939836 
L 164.819894 127.406525 
L 164.841493 126.199035 
L 164.933229 127.378432 
L 165.001302 127.013639 
L 165.436369 130.086245 
L 165.470779 128.914377 
L 165.556098 129.052361 
L 165.626547 127.987569 
L 165.714232 128.302581 
L 165.814538 129.058817 
L 165.952972 130.197429 
L 166.192925 127.109726 
L 166.400015 126.005698 
L 166.690174 122.235816 
L 166.817863 123.19234 
L 166.951797 123.806689 
L 167.019435 122.470657 
L 167.119557 123.157439 
L 167.260325 124.860618 
L 167.309761 124.795036 
L 167.460774 124.830021 
L 167.466536 124.408124 
L 167.53392 124.526711 
L 167.602581 124.47077 
L 167.764647 126.107741 
L 167.829275 126.292092 
L 167.912355 124.656675 
L 168.032891 124.715095 
L 168.08434 124.134631 
L 168.120393 124.312797 
L 168.325491 125.909451 
L 168.516417 123.927886 
L 168.738662 124.856861 
L 168.875847 124.769089 
L 169.014368 122.340962 
L 169.167699 123.746564 
L 169.271563 124.072435 
L 169.392931 122.188207 
L 169.567932 123.355241 
L 169.597412 123.141895 
L 169.805278 121.539423 
L 170.147378 125.194514 
L 170.302335 123.825503 
L 170.510463 126.37781 
L 170.524772 125.96186 
L 170.62814 125.869364 
L 171.058174 129.331519 
L 171.195829 130.404196 
L 171.233139 129.558458 
L 171.299003 129.567039 
L 171.366948 129.470803 
L 171.452894 130.316611 
L 171.572575 128.456586 
L 171.641602 128.417917 
L 171.717631 128.630628 
L 171.782037 128.491164 
L 171.85817 128.434864 
L 171.996432 128.784544 
L 172.008981 127.513866 
L 172.076921 128.608853 
L 172.148782 127.725947 
L 172.286393 130.026712 
L 172.39898 129.352898 
L 172.579042 129.129917 
L 172.750202 130.705014 
L 172.906069 130.226346 
L 172.924792 130.934911 
L 173.013094 130.475369 
L 173.064995 131.379705 
L 173.132176 130.803344 
L 173.199198 131.012274 
L 173.346 130.163357 
L 173.447391 131.509528 
L 173.574311 129.744067 
L 173.792668 124.532876 
L 173.879303 126.124855 
L 173.918347 125.804665 
L 174.001048 126.195246 
L 174.134491 124.901486 
L 174.20314 125.081854 
L 174.276126 125.897134 
L 174.495083 129.86178 
L 174.564576 128.402282 
L 174.804749 131.415156 
L 174.858898 130.860406 
L 174.975839 131.221018 
L 175.132285 129.762 
L 175.268011 130.437443 
L 175.474893 126.531135 
L 175.560322 126.764151 
L 175.628557 126.941747 
L 175.697275 129.536891 
L 175.769257 128.386558 
L 175.83451 129.001998 
L 175.908035 128.344735 
L 176.115462 130.140525 
L 176.405397 125.560145 
L 176.437455 126.094387 
L 176.473565 126.122691 
L 176.543369 125.405114 
L 176.612728 126.093472 
L 176.681377 125.686302 
L 176.834538 124.761621 
L 176.904112 125.452118 
L 176.972997 124.860449 
L 177.255285 126.738753 
L 177.403295 124.582117 
L 177.470979 124.623064 
L 177.539077 124.091605 
L 177.693666 127.231459 
L 177.749169 126.77281 
L 177.831809 126.673199 
L 177.923932 125.44452 
L 177.96838 125.808125 
L 178.399837 128.533067 
L 178.466954 127.670267 
L 178.60402 129.235817 
L 178.74193 128.779044 
L 178.844489 127.407728 
L 178.896029 128.59305 
L 178.951913 128.315831 
L 179.017342 127.501309 
L 179.171808 128.659102 
L 179.256036 128.324085 
L 179.3781 127.004834 
L 179.531307 127.507507 
L 179.61164 127.447015 
L 179.674401 126.944923 
L 179.754562 127.490071 
L 179.943663 125.747841 
L 180.168019 127.821484 
L 180.271473 127.40249 
L 180.322852 127.92492 
L 180.529501 126.56283 
L 180.634556 126.607412 
L 180.651948 126.876391 
L 180.821715 126.124886 
L 181.365821 129.10874 
L 181.527968 127.718821 
L 181.604853 128.605605 
L 181.66452 128.212498 
L 181.940308 129.339814 
L 182.076305 129.024601 
L 182.161955 128.131745 
L 182.365962 129.931765 
L 182.572689 128.769208 
L 182.675477 129.939218 
L 182.726444 128.910709 
L 182.847305 130.264543 
L 182.917051 130.227617 
L 182.953716 130.086957 
L 183.019615 128.581889 
L 183.17343 128.56765 
L 183.433235 125.556144 
L 183.517355 124.389658 
L 183.633447 125.103771 
L 183.658949 125.001545 
L 183.80266 124.090653 
L 183.866852 124.928632 
L 184.071006 124.164519 
L 184.085721 125.740715 
L 184.137278 125.526678 
L 184.501146 127.597863 
L 184.572189 127.406846 
L 184.644433 129.692977 
L 184.780088 129.371399 
L 185.071925 126.807311 
L 185.139252 126.744211 
L 185.208069 128.178045 
L 185.413512 125.704217 
L 185.482628 125.790311 
L 185.568194 128.381616 
L 185.690248 128.278244 
L 185.847294 130.917614 
L 185.92887 128.45203 
L 185.997675 128.631605 
L 186.135516 128.425673 
L 186.34209 126.149189 
L 186.393012 127.392732 
L 186.451938 127.364537 
L 186.607566 125.541862 
L 186.689374 126.43529 
L 186.746133 125.674182 
L 186.775044 126.836485 
L 186.861357 126.211664 
L 187.025498 126.834396 
L 187.136583 125.919735 
L 187.221749 126.526144 
L 187.435152 129.302074 
L 187.518714 128.901354 
L 187.583378 129.951761 
L 187.634477 129.541788 
L 187.704483 129.754191 
L 187.979268 127.962407 
L 188.285574 131.459942 
L 188.545837 132.730092 
L 188.979072 126.336757 
L 189.121897 127.514816 
L 189.191468 126.621832 
L 189.266845 126.796808 
L 189.322842 126.593412 
L 189.594062 127.074011 
L 189.766138 125.609777 
L 189.852793 125.85193 
L 189.989466 127.362445 
L 190.041187 127.033268 
L 190.126812 126.974296 
L 190.247458 130.02035 
L 190.333544 129.275531 
L 190.455069 129.647774 
L 190.522843 129.226517 
L 190.591515 130.268958 
L 190.763649 128.969521 
L 190.850646 129.239051 
L 190.970326 126.091308 
L 191.037448 127.234699 
L 191.106246 127.332001 
L 191.1758 127.034604 
L 191.261171 125.924415 
L 191.466555 126.909488 
L 191.58932 126.95579 
L 191.674038 126.095259 
L 191.725031 126.685912 
L 191.810269 126.070371 
L 191.982517 127.430918 
L 192.242213 126.004173 
L 192.343159 127.226861 
L 192.411826 126.329413 
L 192.480187 126.963776 
L 192.569047 125.867864 
L 192.618338 126.704443 
L 192.737985 126.238247 
L 192.891993 126.999987 
L 192.977927 127.252 
L 193.032986 128.636003 
L 193.160739 128.844527 
L 193.340626 130.484182 
L 193.530675 129.294063 
L 193.685276 129.789843 
L 193.943965 125.369615 
L 194.019007 124.735958 
L 194.116259 125.370699 
L 194.167664 124.136632 
L 194.24511 124.384995 
L 194.306257 124.33262 
L 194.374337 124.111169 
L 194.6512 126.508533 
L 194.734297 126.43259 
L 194.803305 126.096692 
L 194.871703 126.460811 
L 194.957668 125.390422 
L 195.009291 125.738353 
L 195.08355 126.178931 
L 195.16512 125.741093 
L 195.256409 126.109965 
L 195.31735 125.74299 
L 195.369189 126.056634 
L 195.523334 125.233666 
L 195.678717 128.847638 
L 195.782283 128.867473 
L 195.801165 128.694015 
L 195.866858 128.768711 
L 196.004769 129.116137 
L 196.126585 129.026711 
L 196.230814 130.358757 
L 196.4513 128.042623 
L 196.597979 127.327286 
L 196.660011 127.008648 
L 196.728229 128.262029 
L 196.814382 128.17749 
L 196.934609 126.380622 
L 197.01548 126.713275 
L 197.088708 126.445658 
L 197.24537 127.304491 
L 197.299878 127.044181 
L 197.486023 124.778291 
L 197.503002 124.921062 
L 197.570926 126.655542 
L 197.691257 126.685239 
L 197.932091 123.863573 
L 198.002353 123.373162 
L 198.069593 124.723388 
L 198.136989 124.632209 
L 198.226857 124.717641 
L 198.27455 124.928747 
L 198.432424 126.667882 
L 198.51579 126.923918 
L 198.567124 127.454641 
L 198.711621 130.63195 
L 198.80814 130.592817 
L 198.880776 130.687834 
L 199.065331 126.827244 
L 199.229643 127.279076 
L 199.426436 124.12674 
L 199.563054 124.709599 
L 199.769086 127.276252 
L 199.855601 126.306164 
L 199.923618 126.759793 
L 199.980707 126.214659 
L 200.061557 126.26036 
L 200.130528 126.392594 
L 200.198629 127.306527 
L 200.28758 126.608357 
L 200.423347 126.991247 
L 200.456638 126.871437 
L 200.492581 126.826609 
L 200.646964 128.594833 
L 200.732093 129.385191 
L 200.782937 129.328627 
L 200.869615 129.465197 
L 200.921515 129.05256 
L 201.194944 130.791339 
L 201.316716 130.476801 
L 201.349491 128.601308 
L 201.418676 129.382311 
L 201.480106 130.215343 
L 201.624757 128.164725 
L 201.71084 129.125938 
L 201.762019 128.699256 
L 201.898852 126.940831 
L 202.044362 129.09483 
L 202.122662 128.594343 
L 202.190873 127.322257 
L 202.310987 127.904207 
L 202.466987 126.380084 
L 202.537849 128.265909 
L 202.776477 126.395553 
L 203.03588 129.787163 
L 203.119348 130.241824 
L 203.394406 127.455377 
L 203.480183 127.256134 
L 203.657079 128.462434 
L 203.755007 128.259349 
L 203.82458 126.778648 
L 204.030364 128.705008 
L 204.172684 130.628878 
L 204.392074 128.038714 
L 204.545791 129.4833 
L 204.616621 128.515361 
L 204.752607 129.233032 
L 204.871746 128.892291 
L 204.892954 128.231836 
L 204.975787 128.681229 
L 205.046095 129.368304 
L 205.165316 127.616146 
L 205.250379 128.600536 
L 205.31951 128.321999 
L 205.459149 127.389047 
L 205.526222 128.577812 
L 205.662894 128.18111 
L 205.887019 126.090796 
L 206.059884 124.768739 
L 206.118051 125.18436 
L 206.162434 124.770401 
L 206.320627 123.610482 
L 206.474724 124.696839 
L 206.525904 124.613047 
L 206.678729 125.742207 
L 206.741858 126.563557 
L 206.81824 125.969626 
L 207.024751 127.579172 
L 207.102852 127.175507 
L 207.236049 127.731431 
L 207.39163 126.937733 
L 207.443493 128.243639 
L 207.536083 128.124383 
L 207.597793 128.65598 
L 207.666155 128.613861 
L 207.733938 128.810785 
L 207.854258 128.587646 
L 207.939977 129.563767 
L 208.026086 129.418256 
L 208.094847 128.954717 
L 208.147861 127.822108 
L 208.375942 129.81676 
L 208.445185 129.097162 
L 208.507834 129.212732 
L 208.594533 128.947863 
L 208.654017 127.954123 
L 208.922744 130.40201 
L 209.094926 127.101827 
L 209.146276 127.609305 
L 209.300972 126.60146 
L 209.318502 127.540735 
L 209.371054 126.838285 
L 209.576158 124.547464 
L 209.868472 126.768621 
L 210.009059 129.119824 
L 210.077169 129.083934 
L 210.300441 130.289079 
L 210.437465 129.045222 
L 210.506298 129.88467 
L 210.713842 126.464762 
L 210.890301 127.802041 
L 211.023094 126.330992 
L 211.092216 127.162625 
L 211.144106 126.865234 
L 211.323186 125.020685 
L 211.356375 125.753547 
L 211.493001 126.12573 
L 211.6311 124.237219 
L 211.698793 124.551788 
L 211.922249 122.887709 
L 211.991135 123.134909 
L 212.059832 123.414836 
L 212.17992 122.883944 
L 212.213832 121.950781 
L 212.419752 123.689192 
L 212.575802 122.958668 
L 212.626306 124.396117 
L 212.713898 124.164481 
L 212.781553 123.491056 
L 212.95377 124.32322 
L 213.056492 123.645742 
L 213.124566 123.602083 
L 213.435266 127.799908 
L 213.546066 127.753147 
L 213.588739 127.576181 
L 213.834376 130.372913 
L 214.172898 128.411631 
L 214.227381 128.681858 
L 214.346086 129.793873 
L 214.398476 129.374002 
L 214.504275 129.75535 
L 214.724171 126.97194 
L 214.760641 129.529119 
L 214.880789 129.631314 
L 214.903771 130.114291 
L 215.124267 127.546234 
L 215.188964 128.517899 
L 215.259218 128.483656 
L 215.326965 128.385394 
L 215.396955 129.035502 
L 215.502375 128.362757 
L 215.629805 125.950847 
L 215.826872 127.126921 
L 215.961645 125.222064 
L 216.045823 126.617896 
L 216.114637 126.353787 
L 216.186043 126.139091 
L 216.20002 127.498924 
L 216.270044 127.451072 
L 216.391063 128.113013 
L 216.457714 127.772623 
L 216.545399 126.428356 
L 216.615944 126.284008 
L 216.681429 127.739054 
L 216.766926 126.971796 
L 216.90509 128.23195 
L 217.008013 127.818124 
L 217.24863 130.768286 
L 217.387244 130.943331 
L 217.747271 127.374212 
L 217.851118 127.572385 
L 217.956279 125.763047 
L 218.057023 126.784569 
L 218.145251 125.825009 
L 218.177037 126.552113 
L 218.576218 123.694321 
L 218.59349 124.341348 
L 218.650982 125.079288 
L 218.681569 124.218167 
L 218.816254 123.787716 
L 219.176914 126.023828 
L 219.246096 127.799893 
L 219.314533 127.503912 
L 219.385031 127.9694 
L 219.458523 126.239233 
L 219.521723 126.534531 
L 219.675143 126.091751 
L 219.881068 127.973376 
L 220.089588 128.521374 
L 220.191759 130.54421 
L 220.404758 129.343762 
L 220.458238 128.0775 
L 220.532759 129.149266 
L 220.542321 128.601365 
L 220.783607 125.619226 
L 220.817858 126.332392 
L 220.886333 124.91213 
L 220.938385 126.08519 
L 221.008962 127.155178 
L 221.082046 126.43058 
L 221.161129 127.656914 
L 221.23846 127.063112 
L 221.64437 129.603518 
L 221.659339 129.301147 
L 221.727504 129.074227 
L 221.798688 129.55723 
L 221.867565 129.46893 
L 222.073415 129.976777 
L 222.208831 129.825843 
L 222.365692 126.989994 
L 222.503122 127.338354 
L 222.588968 126.747356 
L 222.645818 127.605748 
L 222.660625 127.274765 
L 222.780097 125.296575 
L 222.795045 126.155467 
L 222.90866 126.198168 
L 222.934179 125.444422 
L 223.106596 128.310606 
L 223.227858 126.544492 
L 223.964709 129.565941 
L 224.016335 129.060927 
L 224.188367 130.399148 
L 224.222158 129.893595 
L 224.275742 129.893627 
L 224.344606 130.268546 
L 224.428734 132.03722 
L 225.122036 125.504406 
L 225.133345 124.2653 
L 225.203151 125.096641 
L 225.287731 126.072919 
L 225.339753 125.199597 
L 225.648507 129.074564 
L 225.703848 128.82624 
L 225.768702 129.277213 
L 225.85554 129.258428 
L 226.032258 127.218948 
L 226.061349 128.633845 
L 226.146942 128.257081 
L 226.269494 126.097434 
L 226.558863 128.675136 
L 226.62843 128.360587 
L 226.713949 128.996689 
L 226.766597 128.829665 
L 226.833234 127.510661 
L 226.943671 128.628825 
L 227.048181 127.930103 
L 227.071427 126.8298 
L 227.129056 127.302103 
L 227.266623 125.858134 
L 227.336949 127.425076 
L 227.405493 127.168581 
L 227.474925 126.53229 
L 227.585996 127.879976 
L 227.61753 127.134298 
L 227.766998 127.532144 
L 227.835296 126.681931 
L 227.974546 127.737349 
L 228.043586 126.261086 
L 228.128933 127.139663 
L 228.196931 126.656347 
L 228.317649 126.606698 
L 228.494548 127.595705 
L 228.577995 127.579663 
L 228.81857 125.574431 
L 228.902608 126.617232 
L 228.970859 126.420836 
L 229.056275 126.391761 
L 229.132364 126.790784 
L 229.177938 125.128587 
L 229.249434 125.721441 
L 229.333299 125.948491 
L 229.401417 125.330096 
L 229.487333 125.824361 
L 229.606348 127.410727 
L 230.196631 132.648087 
L 230.556344 128.016154 
L 230.639857 129.108562 
L 230.674814 128.734296 
L 230.949142 123.424106 
L 231.085783 124.979749 
L 231.13771 124.436407 
L 231.321385 123.065373 
L 231.464475 124.925824 
L 231.670311 128.702018 
L 231.739786 127.872243 
L 231.809526 130.031419 
L 231.893597 129.867198 
L 231.980253 129.714012 
L 232.032737 131.095794 
L 232.08501 129.223693 
L 232.100756 130.237355 
L 232.168865 130.705123 
L 232.237893 130.422247 
L 232.397903 129.500782 
L 232.533638 130.09355 
L 232.548518 128.523173 
L 232.603805 129.18226 
L 232.656164 129.849449 
L 232.737771 127.53403 
L 232.807035 128.322764 
L 232.988361 127.148016 
L 233.106819 128.287698 
L 233.159773 127.705644 
L 233.228217 127.83236 
L 233.383721 126.636602 
L 233.450668 127.475501 
L 233.595628 127.018272 
L 233.66281 127.158317 
L 233.780284 125.975532 
L 233.862828 127.978855 
L 233.966226 127.972678 
L 234.139246 126.690795 
L 234.17368 126.64535 
L 234.225732 127.573811 
L 234.364733 126.449207 
L 234.482645 126.374018 
L 234.620098 123.718943 
L 234.722744 123.565273 
L 235.028414 125.714568 
L 235.153157 124.692767 
L 235.432604 126.931556 
L 235.583315 125.089777 
L 235.862165 129.144867 
L 236.012751 127.925378 
L 236.219346 130.88223 
L 236.287436 130.446777 
L 236.49792 129.207947 
L 236.581785 129.413047 
L 236.648803 129.480656 
L 236.855088 127.833237 
L 237.078489 126.255716 
L 237.146782 127.146744 
L 237.197907 127.078289 
L 237.438816 126.606451 
L 237.490141 126.782673 
L 237.558892 126.303885 
L 237.713213 126.901356 
L 237.988071 124.689567 
L 238.074132 124.4196 
L 238.125343 124.723743 
L 238.250586 124.661676 
L 238.349673 125.51431 
L 238.605328 126.843676 
L 238.624498 126.530783 
L 238.693188 126.864813 
L 238.778091 128.5258 
L 238.846059 127.918448 
L 238.916475 127.758709 
L 239.056905 128.880599 
L 239.296752 127.805723 
L 239.434433 128.510987 
L 239.485563 127.409425 
L 239.710353 129.711171 
L 239.795454 128.530047 
L 239.832247 129.48432 
L 239.917072 129.659472 
L 240.122639 128.427417 
L 240.329542 126.63386 
L 240.414993 126.724032 
L 240.60367 126.194356 
L 240.827648 128.269295 
L 240.967363 129.080364 
L 241.050576 128.270229 
L 241.119334 128.505857 
L 241.258107 129.471114 
L 241.327067 129.295403 
L 241.531829 127.767221 
L 241.633442 128.160302 
L 241.75865 129.020256 
L 241.87369 129.148445 
L 242.028073 125.424489 
L 242.096434 125.197242 
L 242.268127 127.895225 
L 242.320199 128.368122 
L 242.549868 126.952959 
L 242.749807 130.79248 
L 242.903518 130.151747 
L 242.972404 130.039798 
L 243.095508 128.068846 
L 243.31701 129.356653 
L 243.694243 126.28296 
L 243.781438 127.394681 
L 243.81441 126.848898 
L 243.913184 125.973276 
L 243.953223 126.189481 
L 244.026318 126.604368 
L 244.171566 124.393855 
L 244.24515 126.514793 
L 244.312944 126.010766 
L 244.387644 126.32473 
L 244.448587 126.23347 
L 244.535038 127.857864 
L 244.586838 127.306178 
L 244.757707 125.428452 
L 244.91329 129.439306 
L 244.949833 127.124061 
L 245.136747 128.711025 
L 245.17006 127.957099 
L 245.376451 129.66054 
L 245.519822 129.530743 
L 245.585 128.573486 
L 245.651112 128.99869 
L 245.739062 129.211292 
L 246.013083 126.219498 
L 246.081297 125.87286 
L 246.165799 126.492754 
L 246.372122 124.798272 
L 246.441025 123.89899 
L 246.58475 126.00345 
L 246.647595 125.784312 
L 246.735871 125.659652 
L 246.871492 126.297418 
L 247.07645 127.231516 
L 247.28347 126.161628 
L 247.50548 127.445359 
L 247.644768 127.033267 
L 247.866809 128.126043 
L 247.937015 127.532465 
L 248.006275 127.838363 
L 248.142004 129.30791 
L 248.281229 127.276441 
L 248.349257 128.226395 
L 248.574804 126.648754 
L 248.710563 128.948702 
L 248.799348 127.913918 
L 248.882448 128.082383 
L 248.987169 129.734353 
L 249.070815 129.122888 
L 249.157886 129.755992 
L 249.209786 131.340842 
L 249.311785 131.050804 
L 249.419511 129.087283 
L 249.501516 129.538895 
L 249.707413 128.148932 
L 249.775696 129.162471 
L 249.856504 128.810327 
L 249.862717 125.972813 
L 249.930486 128.208689 
L 250.205547 127.312202 
L 250.342299 127.10572 
L 250.427978 128.618676 
L 250.480471 128.299093 
L 250.635055 127.343103 
L 250.789497 128.295412 
L 250.910964 126.257831 
L 251.029472 126.614947 
L 251.269706 123.899484 
L 251.322595 124.944534 
L 251.356091 124.145195 
L 251.477317 123.631148 
L 251.647765 125.768453 
L 251.69967 125.345753 
L 251.84005 126.706494 
L 251.915597 126.043727 
L 251.975611 126.327895 
L 252.045953 126.49563 
L 252.129257 127.78183 
L 252.267003 127.569418 
L 252.32484 128.583235 
L 252.357315 127.370611 
L 252.405363 127.739994 
L 252.526765 126.696135 
L 252.560056 126.881377 
L 252.635324 127.209164 
L 252.859668 125.254073 
L 253.041418 126.384689 
L 253.162625 125.977115 
L 253.180637 126.13607 
L 253.401976 124.816039 
L 253.471856 124.800014 
L 253.694684 123.896301 
L 253.832409 126.145945 
L 253.918433 126.444329 
L 254.038433 129.231737 
L 254.261579 132.085231 
L 254.382575 131.925383 
L 254.536563 128.877327 
L 254.554942 129.072065 
L 254.62271 129.54595 
L 254.828402 127.0282 
L 254.89723 127.192515 
L 254.976897 126.810796 
L 255.051577 125.346954 
L 255.069746 125.577976 
L 255.191364 129.042303 
L 255.2426 128.582076 
L 255.327021 126.844447 
L 255.395673 127.569651 
L 255.619483 126.065297 
L 255.671306 126.740816 
L 255.980677 123.434178 
L 256.031929 125.292347 
L 256.100706 124.32321 
L 256.33409 128.391802 
L 256.415779 127.709759 
L 256.669999 129.702859 
L 256.756529 128.499322 
L 256.858642 129.557311 
L 256.961628 127.651266 
L 257.119271 125.805081 
L 257.240002 124.67673 
L 257.306951 125.152473 
L 257.530138 123.57043 
L 257.7361 127.525686 
L 257.875298 128.052326 
L 258.115734 125.24605 
L 258.234771 126.676154 
L 258.440393 124.92515 
L 258.510047 126.022304 
L 258.577776 125.358096 
L 258.661583 125.527183 
L 258.729546 125.419484 
L 258.936324 128.570198 
L 259.089883 127.063413 
L 259.365056 129.65465 
L 259.432381 131.354404 
L 259.501274 130.801979 
L 259.65543 130.017734 
L 259.724114 130.166305 
L 259.864167 131.025839 
L 260.14025 127.369654 
L 260.223368 127.391027 
L 260.359697 126.523531 
L 260.430279 127.387082 
L 260.497318 127.06839 
L 260.637316 125.25743 
L 260.789329 125.521599 
L 260.858645 125.968543 
L 261.066798 124.97725 
L 261.140349 125.004191 
L 261.24238 124.888197 
L 261.425204 127.063514 
L 261.493948 126.103306 
L 261.562855 126.519072 
L 261.803313 128.243191 
L 261.855287 127.85164 
L 261.923956 127.998543 
L 262.028448 128.468698 
L 262.133317 126.335627 
L 262.215542 127.031627 
L 262.456575 124.206702 
L 262.50758 124.927505 
L 262.594477 124.909931 
L 262.713991 126.699476 
L 262.835413 127.019274 
L 263.006467 126.729019 
L 263.155033 128.907132 
L 263.195381 128.8008 
L 263.289794 128.95255 
L 263.393564 127.945259 
L 263.427099 129.200539 
L 263.513392 129.087614 
L 263.770884 131.50945 
L 263.839246 132.141721 
L 264.132177 127.706242 
L 264.200268 128.603961 
L 264.285838 128.37412 
L 264.42421 127.258799 
L 264.560592 125.998152 
L 264.732109 127.461076 
L 264.869937 128.823817 
L 264.921471 127.656407 
L 265.059416 128.534078 
L 265.128178 127.983246 
L 265.197812 128.397057 
L 265.402826 128.018897 
L 265.557372 125.930422 
L 265.626987 126.998672 
L 265.831454 123.810654 
L 265.907577 124.633414 
L 265.977586 124.23377 
L 266.081169 125.202368 
L 266.117105 124.553699 
L 266.187728 125.016534 
L 266.257832 124.819147 
L 266.337989 123.568505 
L 266.544708 125.34505 
L 266.649196 124.906193 
L 266.720282 125.165363 
L 266.768686 124.311993 
L 266.819981 124.605849 
L 267.150175 128.12699 
L 267.181219 127.416922 
L 267.249629 129.04862 
L 267.404849 128.581259 
L 267.54331 131.403568 
L 267.648817 130.916269 
L 267.766706 129.887974 
L 267.824924 127.813765 
L 267.888403 129.011459 
L 267.956178 127.839464 
L 268.076896 128.53453 
L 268.27692 126.878297 
L 268.592496 128.677809 
L 268.609614 128.339661 
L 268.88599 131.190632 
L 268.955643 130.667901 
L 269.040323 130.776698 
L 269.238204 130.334775 
L 269.487062 128.511637 
L 269.539272 129.004579 
L 269.679329 126.955072 
L 269.745605 127.260482 
L 270.04829 130.184186 
L 270.24832 128.930544 
L 270.316169 129.003155 
L 270.386174 129.244332 
L 270.53823 127.562363 
L 270.658425 126.97105 
L 270.732153 125.949653 
L 270.881807 126.270366 
L 270.96864 126.950273 
L 271.105543 126.392633 
L 271.158692 127.346809 
L 271.280043 127.042593 
L 271.586834 129.029088 
L 271.659635 129.065039 
L 271.74154 128.835771 
L 271.950813 129.86766 
L 272.034164 129.744164 
L 272.136942 130.039901 
L 272.222922 127.837616 
L 272.295297 128.742686 
L 272.361853 127.926425 
L 272.446458 129.715168 
L 272.604799 127.451333 
L 272.654218 127.516652 
L 272.808466 125.087355 
L 272.859549 125.66039 
L 272.962748 126.011357 
L 273.031152 124.53639 
L 273.086245 125.133579 
L 273.170051 125.254046 
L 273.24285 126.801431 
L 273.426486 125.001857 
L 273.597793 127.454838 
L 273.892341 129.008834 
L 273.981318 127.254698 
L 274.062388 127.709868 
L 274.164944 127.429885 
L 274.216179 128.385303 
L 274.285871 127.257997 
L 274.379123 127.522386 
L 274.428527 128.069667 
L 274.496203 126.915573 
L 274.853414 129.652526 
L 274.938637 127.874558 
L 275.071146 128.335847 
L 275.078696 128.795971 
L 275.144991 127.620449 
L 275.213396 128.182954 
L 275.322434 128.167348 
L 275.420166 127.173825 
L 275.488402 127.165267 
L 275.780344 124.183135 
L 275.849507 124.663136 
L 275.918009 125.486943 
L 275.989541 124.543419 
L 276.213034 127.605432 
L 276.403533 126.612019 
L 276.416405 126.710136 
L 276.571358 130.03639 
L 276.657368 130.062588 
L 276.70825 130.327152 
L 276.794259 129.419032 
L 276.91697 125.981539 
L 277.051448 126.41673 
L 277.13785 128.500017 
L 277.507097 123.472884 
L 277.590642 123.595013 
L 277.694757 122.53308 
L 277.831885 120.371664 
L 277.967938 120.94589 
L 278.192476 124.541069 
L 278.245661 123.972995 
L 278.525018 129.32802 
L 278.777107 126.556573 
L 278.93149 128.211719 
L 279.040931 127.6818 
L 279.177523 125.120747 
L 279.366115 126.907354 
L 279.469382 128.739243 
L 279.616126 128.718902 
L 279.675637 128.738847 
L 279.842193 131.351635 
L 280.073521 130.423284 
L 280.209691 128.060023 
L 280.209822 124.257372 
L 280.267716 126.677292 
L 280.330152 126.807922 
L 280.415885 126.647946 
L 280.484971 126.882364 
L 280.691609 124.98589 
L 280.802601 124.544582 
L 280.830189 126.084205 
L 280.900738 126.045192 
L 281.172774 125.852793 
L 281.24228 124.855235 
L 281.278258 125.640433 
L 281.351557 125.447512 
L 281.396639 125.608036 
L 281.481761 125.906239 
L 281.614045 127.018814 
L 281.808093 126.529532 
L 281.895176 127.71946 
L 281.963237 127.253859 
L 282.031537 127.272707 
L 282.170264 126.774762 
L 282.322975 124.834489 
L 282.401678 125.564523 
L 282.461422 125.267064 
L 282.627175 124.300554 
L 282.74114 122.759109 
L 282.822799 122.912677 
L 282.930391 124.024466 
L 282.994539 123.767328 
L 283.168696 123.079961 
L 283.302792 123.645986 
L 283.423483 123.496955 
L 283.594824 121.559213 
L 283.783883 123.621746 
L 283.801386 123.145248 
L 283.872534 123.575107 
L 284.047141 123.804412 
L 284.30047 127.465735 
L 284.472264 126.047757 
L 284.764061 128.13875 
L 285.025714 126.170358 
L 285.151266 128.519984 
L 285.244511 128.761529 
L 285.296497 128.07021 
L 285.399123 128.092186 
L 285.657459 129.276087 
L 285.725754 130.859838 
L 285.793949 130.060316 
L 285.949436 131.008431 
L 286.009124 131.218763 
L 286.155432 129.820905 
L 286.292654 130.62074 
L 286.707708 123.892336 
L 286.788092 124.031269 
L 286.945858 125.741079 
L 287.058098 125.101714 
L 287.221061 128.000471 
L 287.30683 128.419847 
L 287.427424 131.202418 
L 287.531045 130.965408 
L 287.702745 129.231747 
L 287.789071 129.81229 
L 287.891838 129.665994 
L 287.962017 130.092243 
L 287.998374 129.937052 
L 288.218199 128.133602 
L 288.305968 128.151927 
L 288.372399 127.837639 
L 288.427122 128.114325 
L 288.493116 128.142611 
L 288.699812 125.730024 
L 288.802394 126.998543 
L 288.853662 125.857211 
L 288.941291 126.902879 
L 288.990967 126.619338 
L 289.077221 126.615823 
L 289.130957 127.418886 
L 289.214208 126.456809 
L 289.287618 127.168372 
L 289.387832 127.024296 
L 289.454776 127.795531 
L 289.523469 126.58587 
L 289.592478 127.021156 
L 289.643976 126.622529 
L 289.712605 127.081158 
L 289.779833 126.569471 
L 289.919488 127.893998 
L 289.987491 128.791936 
L 290.113421 128.573107 
L 290.19632 127.785451 
L 290.348466 128.903078 
L 290.563614 127.150991 
L 290.691839 125.875279 
L 290.77729 126.396182 
L 290.864161 127.118001 
L 290.91522 129.29653 
L 291.000701 128.319049 
L 291.0732 127.555343 
L 291.12238 127.793256 
L 291.189944 127.72991 
L 291.448211 125.921303 
L 291.637291 123.802795 
L 291.688459 123.921765 
L 292.091522 126.910373 
L 292.194865 128.870633 
L 292.336113 128.547446 
L 292.558415 129.7021 
L 292.645664 129.281517 
L 292.68607 128.24205 
L 292.902399 130.288278 
L 292.972379 130.313721 
L 293.178986 129.530205 
L 293.246854 129.865848 
L 293.332156 131.136415 
L 293.385725 130.982482 
L 293.675678 128.53887 
L 293.744531 128.96224 
L 293.96695 127.315675 
L 294.037889 127.249822 
L 294.105149 127.340682 
L 294.176321 127.218807 
L 294.316063 125.125319 
L 294.398588 125.699785 
L 294.466968 125.346548 
L 294.534987 126.259023 
L 294.603514 125.064811 
L 294.6735 125.442912 
L 294.758585 124.344958 
L 294.949415 126.439287 
L 295.033817 126.874066 
L 295.106208 125.482025 
L 295.266524 125.836198 
L 295.275105 125.73736 
L 295.309783 126.207555 
L 295.465623 125.82744 
L 295.808966 128.177495 
L 295.87793 127.30575 
L 295.946188 127.682394 
L 296.016295 127.547591 
L 296.090311 127.110379 
L 296.227357 127.807406 
L 296.376237 126.865371 
L 296.445167 127.381424 
L 296.462266 128.421077 
L 296.51469 126.998597 
L 296.665988 129.065295 
L 296.806842 130.854638 
L 296.875507 130.174461 
L 296.961546 130.12398 
L 297.081227 129.572544 
L 297.357049 129.490755 
L 297.442581 129.273577 
L 297.562165 128.551175 
L 297.823352 132.26305 
L 297.923755 131.393975 
L 298.008878 131.933323 
L 298.094509 129.556913 
L 298.231762 130.591207 
L 298.286273 129.708958 
L 298.372188 130.048859 
L 298.507962 127.340271 
L 298.594145 127.738929 
L 298.711472 127.640881 
L 298.782992 127.343644 
L 298.849742 125.500052 
L 298.936257 125.658564 
L 299.005233 126.321331 
L 299.074647 124.91679 
L 299.193099 125.089838 
L 299.228113 126.037716 
L 299.313235 125.958345 
L 299.368332 126.27021 
L 299.41733 127.273561 
L 299.531004 126.977118 
L 299.571679 127.519821 
L 299.744567 125.995076 
L 299.814001 126.338959 
L 299.950475 126.433772 
L 300.055914 126.805544 
L 300.189706 125.971087 
L 300.362097 128.153494 
L 300.434643 129.000081 
L 300.499727 128.882541 
L 300.568336 128.972483 
L 300.674663 127.767556 
L 300.846388 129.297442 
L 301.004565 127.626952 
L 301.139005 128.458002 
L 301.239257 127.945016 
L 301.392515 129.430676 
L 301.432292 128.646513 
L 301.504816 129.579171 
L 301.564954 128.62572 
L 301.667624 129.198337 
L 301.701693 130.121569 
L 301.771391 129.317589 
L 301.926576 127.82671 
L 301.99581 129.340318 
L 302.0979 127.035331 
L 302.148823 128.044862 
L 302.338169 125.748661 
L 302.545876 127.624202 
L 302.631788 126.513189 
L 302.700986 126.877145 
L 302.766642 127.37026 
L 302.838654 126.180089 
L 302.904589 126.199147 
L 302.989877 126.352565 
L 303.046447 127.477768 
L 303.127818 126.730173 
L 303.196866 126.817316 
L 303.285049 126.710011 
L 303.506423 128.192032 
L 303.643463 127.110919 
L 303.924185 125.132461 
L 304.065446 125.340598 
L 304.189638 123.166585 
L 304.31587 123.462715 
L 304.332179 125.896233 
L 304.418532 124.909248 
L 304.472019 125.731059 
L 304.554832 125.501765 
L 304.726774 125.188904 
L 304.971268 127.407527 
L 305.070437 126.941349 
L 305.328201 128.58616 
L 305.774594 124.801578 
L 305.826678 125.673614 
L 305.895674 125.260486 
L 306.119356 123.676074 
L 306.239351 123.8108 
L 306.393832 124.984583 
L 306.463263 126.419248 
L 306.601542 124.998343 
L 306.687148 126.665596 
L 306.739154 126.136662 
L 306.893652 126.673581 
L 307.235926 122.331282 
L 307.341688 124.392163 
L 307.393148 123.690214 
L 307.531885 124.492749 
L 307.602902 124.374966 
L 307.74294 125.820237 
L 307.808361 127.366242 
L 307.894212 127.119197 
L 308.045498 125.627103 
L 308.15208 125.257522 
L 308.240771 125.511374 
L 308.274063 125.239977 
L 308.37711 123.570867 
L 308.477689 124.140765 
L 308.531256 122.581993 
L 308.740649 124.983039 
L 308.822705 125.896623 
L 308.926364 124.397457 
L 308.972873 124.884066 
L 309.086225 126.224845 
L 309.165753 125.440677 
L 309.23444 125.826843 
L 309.309675 126.077407 
L 309.510074 123.316118 
L 309.595348 122.889513 
L 309.741619 123.738865 
L 309.81502 123.975684 
L 309.827269 123.950935 
L 310.089402 126.509204 
L 310.171048 126.457028 
L 310.327343 127.760039 
L 310.380433 126.481625 
L 310.475811 126.702005 
L 310.722128 123.520637 
L 310.945258 125.192157 
L 311.013667 126.093713 
L 311.151669 125.145048 
L 311.219776 125.531784 
L 311.323824 125.160326 
L 311.374777 126.695168 
L 311.430202 126.478803 
L 311.580347 124.550106 
L 311.64886 124.963661 
L 311.75877 124.36092 
L 311.89124 126.648935 
L 312.080169 124.592073 
L 312.183281 124.8492 
L 312.245256 126.816992 
L 312.302221 126.792688 
L 312.372225 125.688915 
L 312.444677 127.171304 
L 312.664848 125.670973 
L 312.734522 125.175299 
L 312.85393 125.403835 
L 312.974437 125.88976 
L 313.008173 125.011109 
L 313.064452 126.088263 
L 313.111744 125.875233 
L 313.145785 124.623152 
L 313.240153 125.804571 
L 313.286764 125.266876 
L 313.422404 125.695498 
L 313.543206 126.790081 
L 313.634523 126.520273 
L 313.766743 126.679851 
L 313.801216 126.086946 
L 313.973795 127.062939 
L 314.14446 124.981803 
L 314.215828 125.79258 
L 314.385604 124.921409 
L 314.436969 126.369169 
L 314.507402 124.742 
L 314.556786 124.939376 
L 314.793086 127.856656 
L 314.871757 127.270401 
L 314.938128 128.058531 
L 315.280212 125.631997 
L 315.469159 122.559796 
L 315.485625 123.182833 
" clip-path="url(#p7ed8be61a0)" style="fill: none; stroke: #ff0000; stroke-opacity: 0.5; stroke-width: 3; stroke-linecap: square"/>
   </g>
   <g id="patch_3">
    <path d="M 36.485625 139.32 
L 36.485625 0.72 
" style="fill: none; stroke: #000000; stroke-width: 0.8; stroke-linejoin: miter; stroke-linecap: square"/>
   </g>
   <g id="patch_4">
    <path d="M 315.485625 139.32 
L 315.485625 0.72 
" style="fill: none; stroke: #000000; stroke-width: 0.8; stroke-linejoin: miter; stroke-linecap: square"/>
   </g>
   <g id="patch_5">
    <path d="M 36.485625 139.32 
L 315.485625 139.32 
" style="fill: none; stroke: #000000; stroke-width: 0.8; stroke-linejoin: miter; stroke-linecap: square"/>
   </g>
   <g id="patch_6">
    <path d="M 36.485625 0.72 
L 315.485625 0.72 
" style="fill: none; stroke: #000000; stroke-width: 0.8; stroke-linejoin: miter; stroke-linecap: square"/>
   </g>
   <g id="legend_1">
    <g id="patch_7">
     <path d="M 234.716875 86.198125 
L 308.485625 86.198125 
Q 310.485625 86.198125 310.485625 84.198125 
L 310.485625 55.841875 
Q 310.485625 53.841875 308.485625 53.841875 
L 234.716875 53.841875 
Q 232.716875 53.841875 232.716875 55.841875 
L 232.716875 84.198125 
Q 232.716875 86.198125 234.716875 86.198125 
z
" style="fill: #ffffff; opacity: 0.8; stroke: #cccccc; stroke-linejoin: miter"/>
    </g>
    <g id="line2d_23">
     <path d="M 236.716875 61.940313 
L 246.716875 61.940313 
L 256.716875 61.940313 
" style="fill: none; stroke: #0000ff; stroke-opacity: 0.5; stroke-width: 3; stroke-linecap: square"/>
    </g>
    <g id="text_13">
     <!-- RNEA -->
     <g transform="translate(264.716875 65.440313) scale(0.1 -0.1)">
      <defs>
       <path id="DejaVuSans-52" d="M 2841 2188 
Q 3044 2119 3236 1894 
Q 3428 1669 3622 1275 
L 4263 0 
L 3584 0 
L 2988 1197 
Q 2756 1666 2539 1819 
Q 2322 1972 1947 1972 
L 1259 1972 
L 1259 0 
L 628 0 
L 628 4666 
L 2053 4666 
Q 2853 4666 3247 4331 
Q 3641 3997 3641 3322 
Q 3641 2881 3436 2590 
Q 3231 2300 2841 2188 
z
M 1259 4147 
L 1259 2491 
L 2053 2491 
Q 2509 2491 2742 2702 
Q 2975 2913 2975 3322 
Q 2975 3731 2742 3939 
Q 2509 4147 2053 4147 
L 1259 4147 
z
" transform="scale(0.015625)"/>
       <path id="DejaVuSans-45" d="M 628 4666 
L 3578 4666 
L 3578 4134 
L 1259 4134 
L 1259 2753 
L 3481 2753 
L 3481 2222 
L 1259 2222 
L 1259 531 
L 3634 531 
L 3634 0 
L 628 0 
L 628 4666 
z
" transform="scale(0.015625)"/>
       <path id="DejaVuSans-41" d="M 2188 4044 
L 1331 1722 
L 3047 1722 
L 2188 4044 
z
M 1831 4666 
L 2547 4666 
L 4325 0 
L 3669 0 
L 3244 1197 
L 1141 1197 
L 716 0 
L 50 0 
L 1831 4666 
z
" transform="scale(0.015625)"/>
      </defs>
      <use xlink:href="#DejaVuSans-52"/>
      <use xlink:href="#DejaVuSans-4e" x="69.482422"/>
      <use xlink:href="#DejaVuSans-45" x="144.287109"/>
      <use xlink:href="#DejaVuSans-41" x="207.470703"/>
     </g>
    </g>
    <g id="line2d_24">
     <path d="M 236.716875 76.618438 
L 246.716875 76.618438 
L 256.716875 76.618438 
" style="fill: none; stroke: #ff0000; stroke-opacity: 0.5; stroke-width: 3; stroke-linecap: square"/>
    </g>
    <g id="text_14">
     <!-- BURNEA -->
     <g transform="translate(264.716875 80.118438) scale(0.1 -0.1)">
      <defs>
       <path id="DejaVuSans-42" d="M 1259 2228 
L 1259 519 
L 2272 519 
Q 2781 519 3026 730 
Q 3272 941 3272 1375 
Q 3272 1813 3026 2020 
Q 2781 2228 2272 2228 
L 1259 2228 
z
M 1259 4147 
L 1259 2741 
L 2194 2741 
Q 2656 2741 2882 2914 
Q 3109 3088 3109 3444 
Q 3109 3797 2882 3972 
Q 2656 4147 2194 4147 
L 1259 4147 
z
M 628 4666 
L 2241 4666 
Q 2963 4666 3353 4366 
Q 3744 4066 3744 3513 
Q 3744 3084 3544 2831 
Q 3344 2578 2956 2516 
Q 3422 2416 3680 2098 
Q 3938 1781 3938 1306 
Q 3938 681 3513 340 
Q 3088 0 2303 0 
L 628 0 
L 628 4666 
z
" transform="scale(0.015625)"/>
       <path id="DejaVuSans-55" d="M 556 4666 
L 1191 4666 
L 1191 1831 
Q 1191 1081 1462 751 
Q 1734 422 2344 422 
Q 2950 422 3222 751 
Q 3494 1081 3494 1831 
L 3494 4666 
L 4128 4666 
L 4128 1753 
Q 4128 841 3676 375 
Q 3225 -91 2344 -91 
Q 1459 -91 1007 375 
Q 556 841 556 1753 
L 556 4666 
z
" transform="scale(0.015625)"/>
      </defs>
      <use xlink:href="#DejaVuSans-42"/>
      <use xlink:href="#DejaVuSans-55" x="68.603516"/>
      <use xlink:href="#DejaVuSans-52" x="141.796875"/>
      <use xlink:href="#DejaVuSans-4e" x="211.279297"/>
      <use xlink:href="#DejaVuSans-45" x="286.083984"/>
      <use xlink:href="#DejaVuSans-41" x="349.267578"/>
     </g>
    </g>
   </g>
  </g>
 </g>
 <defs>
  <clipPath id="p7ed8be61a0">
   <rect x="36.485625" y="0.72" width="279" height="138.6"/>
  </clipPath>
 </defs>
</svg>
