<?xml version="1.0" encoding="utf-8" standalone="no"?>
<!DOCTYPE svg PUBLIC "-//W3C//DTD SVG 1.1//EN"
  "http://www.w3.org/Graphics/SVG/1.1/DTD/svg11.dtd">
<svg xmlns:xlink="http://www.w3.org/1999/xlink" width="327.763438pt" height="166.39625pt" viewBox="0 0 327.763438 166.39625" xmlns="http://www.w3.org/2000/svg" version="1.1">
 <metadata>
  <rdf:RDF xmlns:dc="http://purl.org/dc/elements/1.1/" xmlns:cc="http://creativecommons.org/ns#" xmlns:rdf="http://www.w3.org/1999/02/22-rdf-syntax-ns#">
   <cc:Work>
    <dc:type rdf:resource="http://purl.org/dc/dcmitype/StillImage"/>
    <dc:date>2023-09-07T03:30:59.566318</dc:date>
    <dc:format>image/svg+xml</dc:format>
    <dc:creator>
     <cc:Agent>
      <dc:title>Matplotlib v3.7.2, https://matplotlib.org/</dc:title>
     </cc:Agent>
    </dc:creator>
   </cc:Work>
  </rdf:RDF>
 </metadata>
 <defs>
  <style type="text/css">*{stroke-linejoin: round; stroke-linecap: butt}</style>
 </defs>
 <g id="figure_1">
  <g id="patch_1">
   <path d="M -0 166.39625 
L 327.763438 166.39625 
L 327.763438 0 
L -0 0 
L -0 166.39625 
z
" style="fill: none"/>
  </g>
  <g id="axes_1">
   <g id="patch_2">
    <path d="M 48.043438 139.32 
L 327.043437 139.32 
L 327.043437 0.72 
L 48.043438 0.72 
L 48.043438 139.32 
z
" style="fill: none"/>
   </g>
   <g id="matplotlib.axis_1">
    <g id="xtick_1">
     <g id="line2d_1">
      <path d="M 48.043438 139.32 
L 48.043438 0.72 
" clip-path="url(#p52b3f197a6)" style="fill: none; stroke-dasharray: 0.8,1.32; stroke-dashoffset: 0; stroke: #000000; stroke-opacity: 0.5; stroke-width: 0.8"/>
     </g>
     <g id="line2d_2">
      <defs>
       <path id="mbdc3bce527" d="M 0 0 
L 0 3.5 
" style="stroke: #000000; stroke-width: 0.8"/>
      </defs>
      <g>
       <use xlink:href="#mbdc3bce527" x="48.043438" y="139.32" style="stroke: #000000; stroke-width: 0.8"/>
      </g>
     </g>
     <g id="text_1">
      <!-- 0 -->
      <g transform="translate(44.862188 153.918438) scale(0.1 -0.1)">
       <defs>
        <path id="DejaVuSans-30" d="M 2034 4250 
Q 1547 4250 1301 3770 
Q 1056 3291 1056 2328 
Q 1056 1369 1301 889 
Q 1547 409 2034 409 
Q 2525 409 2770 889 
Q 3016 1369 3016 2328 
Q 3016 3291 2770 3770 
Q 2525 4250 2034 4250 
z
M 2034 4750 
Q 2819 4750 3233 4129 
Q 3647 3509 3647 2328 
Q 3647 1150 3233 529 
Q 2819 -91 2034 -91 
Q 1250 -91 836 529 
Q 422 1150 422 2328 
Q 422 3509 836 4129 
Q 1250 4750 2034 4750 
z
" transform="scale(0.015625)"/>
       </defs>
       <use xlink:href="#DejaVuSans-30"/>
      </g>
     </g>
    </g>
    <g id="xtick_2">
     <g id="line2d_3">
      <path d="M 90.658338 139.32 
L 90.658338 0.72 
" clip-path="url(#p52b3f197a6)" style="fill: none; stroke-dasharray: 0.8,1.32; stroke-dashoffset: 0; stroke: #000000; stroke-opacity: 0.5; stroke-width: 0.8"/>
     </g>
     <g id="line2d_4">
      <g>
       <use xlink:href="#mbdc3bce527" x="90.658338" y="139.32" style="stroke: #000000; stroke-width: 0.8"/>
      </g>
     </g>
     <g id="text_2">
      <!-- 5 -->
      <g transform="translate(87.477088 153.918438) scale(0.1 -0.1)">
       <defs>
        <path id="DejaVuSans-35" d="M 691 4666 
L 3169 4666 
L 3169 4134 
L 1269 4134 
L 1269 2991 
Q 1406 3038 1543 3061 
Q 1681 3084 1819 3084 
Q 2600 3084 3056 2656 
Q 3513 2228 3513 1497 
Q 3513 744 3044 326 
Q 2575 -91 1722 -91 
Q 1428 -91 1123 -41 
Q 819 9 494 109 
L 494 744 
Q 775 591 1075 516 
Q 1375 441 1709 441 
Q 2250 441 2565 725 
Q 2881 1009 2881 1497 
Q 2881 1984 2565 2268 
Q 2250 2553 1709 2553 
Q 1456 2553 1204 2497 
Q 953 2441 691 2322 
L 691 4666 
z
" transform="scale(0.015625)"/>
       </defs>
       <use xlink:href="#DejaVuSans-35"/>
      </g>
     </g>
    </g>
    <g id="xtick_3">
     <g id="line2d_5">
      <path d="M 133.273239 139.32 
L 133.273239 0.72 
" clip-path="url(#p52b3f197a6)" style="fill: none; stroke-dasharray: 0.8,1.32; stroke-dashoffset: 0; stroke: #000000; stroke-opacity: 0.5; stroke-width: 0.8"/>
     </g>
     <g id="line2d_6">
      <g>
       <use xlink:href="#mbdc3bce527" x="133.273239" y="139.32" style="stroke: #000000; stroke-width: 0.8"/>
      </g>
     </g>
     <g id="text_3">
      <!-- 10 -->
      <g transform="translate(126.910739 153.918438) scale(0.1 -0.1)">
       <defs>
        <path id="DejaVuSans-31" d="M 794 531 
L 1825 531 
L 1825 4091 
L 703 3866 
L 703 4441 
L 1819 4666 
L 2450 4666 
L 2450 531 
L 3481 531 
L 3481 0 
L 794 0 
L 794 531 
z
" transform="scale(0.015625)"/>
       </defs>
       <use xlink:href="#DejaVuSans-31"/>
       <use xlink:href="#DejaVuSans-30" x="63.623047"/>
      </g>
     </g>
    </g>
    <g id="xtick_4">
     <g id="line2d_7">
      <path d="M 175.888139 139.32 
L 175.888139 0.72 
" clip-path="url(#p52b3f197a6)" style="fill: none; stroke-dasharray: 0.8,1.32; stroke-dashoffset: 0; stroke: #000000; stroke-opacity: 0.5; stroke-width: 0.8"/>
     </g>
     <g id="line2d_8">
      <g>
       <use xlink:href="#mbdc3bce527" x="175.888139" y="139.32" style="stroke: #000000; stroke-width: 0.8"/>
      </g>
     </g>
     <g id="text_4">
      <!-- 15 -->
      <g transform="translate(169.525639 153.918438) scale(0.1 -0.1)">
       <use xlink:href="#DejaVuSans-31"/>
       <use xlink:href="#DejaVuSans-35" x="63.623047"/>
      </g>
     </g>
    </g>
    <g id="xtick_5">
     <g id="line2d_9">
      <path d="M 218.50304 139.32 
L 218.50304 0.72 
" clip-path="url(#p52b3f197a6)" style="fill: none; stroke-dasharray: 0.8,1.32; stroke-dashoffset: 0; stroke: #000000; stroke-opacity: 0.5; stroke-width: 0.8"/>
     </g>
     <g id="line2d_10">
      <g>
       <use xlink:href="#mbdc3bce527" x="218.50304" y="139.32" style="stroke: #000000; stroke-width: 0.8"/>
      </g>
     </g>
     <g id="text_5">
      <!-- 20 -->
      <g transform="translate(212.14054 153.918438) scale(0.1 -0.1)">
       <defs>
        <path id="DejaVuSans-32" d="M 1228 531 
L 3431 531 
L 3431 0 
L 469 0 
L 469 531 
Q 828 903 1448 1529 
Q 2069 2156 2228 2338 
Q 2531 2678 2651 2914 
Q 2772 3150 2772 3378 
Q 2772 3750 2511 3984 
Q 2250 4219 1831 4219 
Q 1534 4219 1204 4116 
Q 875 4013 500 3803 
L 500 4441 
Q 881 4594 1212 4672 
Q 1544 4750 1819 4750 
Q 2544 4750 2975 4387 
Q 3406 4025 3406 3419 
Q 3406 3131 3298 2873 
Q 3191 2616 2906 2266 
Q 2828 2175 2409 1742 
Q 1991 1309 1228 531 
z
" transform="scale(0.015625)"/>
       </defs>
       <use xlink:href="#DejaVuSans-32"/>
       <use xlink:href="#DejaVuSans-30" x="63.623047"/>
      </g>
     </g>
    </g>
    <g id="xtick_6">
     <g id="line2d_11">
      <path d="M 261.11794 139.32 
L 261.11794 0.72 
" clip-path="url(#p52b3f197a6)" style="fill: none; stroke-dasharray: 0.8,1.32; stroke-dashoffset: 0; stroke: #000000; stroke-opacity: 0.5; stroke-width: 0.8"/>
     </g>
     <g id="line2d_12">
      <g>
       <use xlink:href="#mbdc3bce527" x="261.11794" y="139.32" style="stroke: #000000; stroke-width: 0.8"/>
      </g>
     </g>
     <g id="text_6">
      <!-- 25 -->
      <g transform="translate(254.75544 153.918438) scale(0.1 -0.1)">
       <use xlink:href="#DejaVuSans-32"/>
       <use xlink:href="#DejaVuSans-35" x="63.623047"/>
      </g>
     </g>
    </g>
    <g id="xtick_7">
     <g id="line2d_13">
      <path d="M 303.732841 139.32 
L 303.732841 0.72 
" clip-path="url(#p52b3f197a6)" style="fill: none; stroke-dasharray: 0.8,1.32; stroke-dashoffset: 0; stroke: #000000; stroke-opacity: 0.5; stroke-width: 0.8"/>
     </g>
     <g id="line2d_14">
      <g>
       <use xlink:href="#mbdc3bce527" x="303.732841" y="139.32" style="stroke: #000000; stroke-width: 0.8"/>
      </g>
     </g>
     <g id="text_7">
      <!-- 30 -->
      <g transform="translate(297.370341 153.918438) scale(0.1 -0.1)">
       <defs>
        <path id="DejaVuSans-33" d="M 2597 2516 
Q 3050 2419 3304 2112 
Q 3559 1806 3559 1356 
Q 3559 666 3084 287 
Q 2609 -91 1734 -91 
Q 1441 -91 1130 -33 
Q 819 25 488 141 
L 488 750 
Q 750 597 1062 519 
Q 1375 441 1716 441 
Q 2309 441 2620 675 
Q 2931 909 2931 1356 
Q 2931 1769 2642 2001 
Q 2353 2234 1838 2234 
L 1294 2234 
L 1294 2753 
L 1863 2753 
Q 2328 2753 2575 2939 
Q 2822 3125 2822 3475 
Q 2822 3834 2567 4026 
Q 2313 4219 1838 4219 
Q 1578 4219 1281 4162 
Q 984 4106 628 3988 
L 628 4550 
Q 988 4650 1302 4700 
Q 1616 4750 1894 4750 
Q 2613 4750 3031 4423 
Q 3450 4097 3450 3541 
Q 3450 3153 3228 2886 
Q 3006 2619 2597 2516 
z
" transform="scale(0.015625)"/>
       </defs>
       <use xlink:href="#DejaVuSans-33"/>
       <use xlink:href="#DejaVuSans-30" x="63.623047"/>
      </g>
     </g>
    </g>
    <g id="text_8">
     <!-- Zeit [s] -->
     <g transform="translate(169.597344 163.596563) scale(0.1 -0.1)">
      <defs>
       <path id="DejaVuSans-5a" d="M 359 4666 
L 4025 4666 
L 4025 4184 
L 1075 531 
L 4097 531 
L 4097 0 
L 288 0 
L 288 481 
L 3238 4134 
L 359 4134 
L 359 4666 
z
" transform="scale(0.015625)"/>
       <path id="DejaVuSans-65" d="M 3597 1894 
L 3597 1613 
L 953 1613 
Q 991 1019 1311 708 
Q 1631 397 2203 397 
Q 2534 397 2845 478 
Q 3156 559 3463 722 
L 3463 178 
Q 3153 47 2828 -22 
Q 2503 -91 2169 -91 
Q 1331 -91 842 396 
Q 353 884 353 1716 
Q 353 2575 817 3079 
Q 1281 3584 2069 3584 
Q 2775 3584 3186 3129 
Q 3597 2675 3597 1894 
z
M 3022 2063 
Q 3016 2534 2758 2815 
Q 2500 3097 2075 3097 
Q 1594 3097 1305 2825 
Q 1016 2553 972 2059 
L 3022 2063 
z
" transform="scale(0.015625)"/>
       <path id="DejaVuSans-69" d="M 603 3500 
L 1178 3500 
L 1178 0 
L 603 0 
L 603 3500 
z
M 603 4863 
L 1178 4863 
L 1178 4134 
L 603 4134 
L 603 4863 
z
" transform="scale(0.015625)"/>
       <path id="DejaVuSans-74" d="M 1172 4494 
L 1172 3500 
L 2356 3500 
L 2356 3053 
L 1172 3053 
L 1172 1153 
Q 1172 725 1289 603 
Q 1406 481 1766 481 
L 2356 481 
L 2356 0 
L 1766 0 
Q 1100 0 847 248 
Q 594 497 594 1153 
L 594 3053 
L 172 3053 
L 172 3500 
L 594 3500 
L 594 4494 
L 1172 4494 
z
" transform="scale(0.015625)"/>
       <path id="DejaVuSans-20" transform="scale(0.015625)"/>
       <path id="DejaVuSans-5b" d="M 550 4863 
L 1875 4863 
L 1875 4416 
L 1125 4416 
L 1125 -397 
L 1875 -397 
L 1875 -844 
L 550 -844 
L 550 4863 
z
" transform="scale(0.015625)"/>
       <path id="DejaVuSans-73" d="M 2834 3397 
L 2834 2853 
Q 2591 2978 2328 3040 
Q 2066 3103 1784 3103 
Q 1356 3103 1142 2972 
Q 928 2841 928 2578 
Q 928 2378 1081 2264 
Q 1234 2150 1697 2047 
L 1894 2003 
Q 2506 1872 2764 1633 
Q 3022 1394 3022 966 
Q 3022 478 2636 193 
Q 2250 -91 1575 -91 
Q 1294 -91 989 -36 
Q 684 19 347 128 
L 347 722 
Q 666 556 975 473 
Q 1284 391 1588 391 
Q 1994 391 2212 530 
Q 2431 669 2431 922 
Q 2431 1156 2273 1281 
Q 2116 1406 1581 1522 
L 1381 1569 
Q 847 1681 609 1914 
Q 372 2147 372 2553 
Q 372 3047 722 3315 
Q 1072 3584 1716 3584 
Q 2034 3584 2315 3537 
Q 2597 3491 2834 3397 
z
" transform="scale(0.015625)"/>
       <path id="DejaVuSans-5d" d="M 1947 4863 
L 1947 -844 
L 622 -844 
L 622 -397 
L 1369 -397 
L 1369 4416 
L 622 4416 
L 622 4863 
L 1947 4863 
z
" transform="scale(0.015625)"/>
      </defs>
      <use xlink:href="#DejaVuSans-5a"/>
      <use xlink:href="#DejaVuSans-65" x="68.505859"/>
      <use xlink:href="#DejaVuSans-69" x="130.029297"/>
      <use xlink:href="#DejaVuSans-74" x="157.8125"/>
      <use xlink:href="#DejaVuSans-20" x="197.021484"/>
      <use xlink:href="#DejaVuSans-5b" x="228.808594"/>
      <use xlink:href="#DejaVuSans-73" x="267.822266"/>
      <use xlink:href="#DejaVuSans-5d" x="319.921875"/>
     </g>
    </g>
   </g>
   <g id="matplotlib.axis_2">
    <g id="ytick_1">
     <g id="line2d_15">
      <path d="M 48.043438 125.569424 
L 327.043437 125.569424 
" clip-path="url(#p52b3f197a6)" style="fill: none; stroke-dasharray: 0.8,1.32; stroke-dashoffset: 0; stroke: #000000; stroke-opacity: 0.5; stroke-width: 0.8"/>
     </g>
     <g id="line2d_16">
      <defs>
       <path id="m7f3515f5a9" d="M 0 0 
L -3.5 0 
" style="stroke: #000000; stroke-width: 0.8"/>
      </defs>
      <g>
       <use xlink:href="#m7f3515f5a9" x="48.043438" y="125.569424" style="stroke: #000000; stroke-width: 0.8"/>
      </g>
     </g>
     <g id="text_9">
      <!-- −17.2 -->
      <g transform="translate(10.398125 129.368642) scale(0.1 -0.1)">
       <defs>
        <path id="DejaVuSans-2212" d="M 678 2272 
L 4684 2272 
L 4684 1741 
L 678 1741 
L 678 2272 
z
" transform="scale(0.015625)"/>
        <path id="DejaVuSans-37" d="M 525 4666 
L 3525 4666 
L 3525 4397 
L 1831 0 
L 1172 0 
L 2766 4134 
L 525 4134 
L 525 4666 
z
" transform="scale(0.015625)"/>
        <path id="DejaVuSans-2e" d="M 684 794 
L 1344 794 
L 1344 0 
L 684 0 
L 684 794 
z
" transform="scale(0.015625)"/>
       </defs>
       <use xlink:href="#DejaVuSans-2212"/>
       <use xlink:href="#DejaVuSans-31" x="83.789062"/>
       <use xlink:href="#DejaVuSans-37" x="147.412109"/>
       <use xlink:href="#DejaVuSans-2e" x="211.035156"/>
       <use xlink:href="#DejaVuSans-32" x="242.822266"/>
      </g>
     </g>
    </g>
    <g id="ytick_2">
     <g id="line2d_17">
      <path d="M 48.043438 93.013612 
L 327.043437 93.013612 
" clip-path="url(#p52b3f197a6)" style="fill: none; stroke-dasharray: 0.8,1.32; stroke-dashoffset: 0; stroke: #000000; stroke-opacity: 0.5; stroke-width: 0.8"/>
     </g>
     <g id="line2d_18">
      <g>
       <use xlink:href="#m7f3515f5a9" x="48.043438" y="93.013612" style="stroke: #000000; stroke-width: 0.8"/>
      </g>
     </g>
     <g id="text_10">
      <!-- −17.0 -->
      <g transform="translate(10.398125 96.81283) scale(0.1 -0.1)">
       <use xlink:href="#DejaVuSans-2212"/>
       <use xlink:href="#DejaVuSans-31" x="83.789062"/>
       <use xlink:href="#DejaVuSans-37" x="147.412109"/>
       <use xlink:href="#DejaVuSans-2e" x="211.035156"/>
       <use xlink:href="#DejaVuSans-30" x="242.822266"/>
      </g>
     </g>
    </g>
    <g id="ytick_3">
     <g id="line2d_19">
      <path d="M 48.043438 60.4578 
L 327.043437 60.4578 
" clip-path="url(#p52b3f197a6)" style="fill: none; stroke-dasharray: 0.8,1.32; stroke-dashoffset: 0; stroke: #000000; stroke-opacity: 0.5; stroke-width: 0.8"/>
     </g>
     <g id="line2d_20">
      <g>
       <use xlink:href="#m7f3515f5a9" x="48.043438" y="60.4578" style="stroke: #000000; stroke-width: 0.8"/>
      </g>
     </g>
     <g id="text_11">
      <!-- −16.8 -->
      <g transform="translate(10.398125 64.257018) scale(0.1 -0.1)">
       <defs>
        <path id="DejaVuSans-36" d="M 2113 2584 
Q 1688 2584 1439 2293 
Q 1191 2003 1191 1497 
Q 1191 994 1439 701 
Q 1688 409 2113 409 
Q 2538 409 2786 701 
Q 3034 994 3034 1497 
Q 3034 2003 2786 2293 
Q 2538 2584 2113 2584 
z
M 3366 4563 
L 3366 3988 
Q 3128 4100 2886 4159 
Q 2644 4219 2406 4219 
Q 1781 4219 1451 3797 
Q 1122 3375 1075 2522 
Q 1259 2794 1537 2939 
Q 1816 3084 2150 3084 
Q 2853 3084 3261 2657 
Q 3669 2231 3669 1497 
Q 3669 778 3244 343 
Q 2819 -91 2113 -91 
Q 1303 -91 875 529 
Q 447 1150 447 2328 
Q 447 3434 972 4092 
Q 1497 4750 2381 4750 
Q 2619 4750 2861 4703 
Q 3103 4656 3366 4563 
z
" transform="scale(0.015625)"/>
        <path id="DejaVuSans-38" d="M 2034 2216 
Q 1584 2216 1326 1975 
Q 1069 1734 1069 1313 
Q 1069 891 1326 650 
Q 1584 409 2034 409 
Q 2484 409 2743 651 
Q 3003 894 3003 1313 
Q 3003 1734 2745 1975 
Q 2488 2216 2034 2216 
z
M 1403 2484 
Q 997 2584 770 2862 
Q 544 3141 544 3541 
Q 544 4100 942 4425 
Q 1341 4750 2034 4750 
Q 2731 4750 3128 4425 
Q 3525 4100 3525 3541 
Q 3525 3141 3298 2862 
Q 3072 2584 2669 2484 
Q 3125 2378 3379 2068 
Q 3634 1759 3634 1313 
Q 3634 634 3220 271 
Q 2806 -91 2034 -91 
Q 1263 -91 848 271 
Q 434 634 434 1313 
Q 434 1759 690 2068 
Q 947 2378 1403 2484 
z
M 1172 3481 
Q 1172 3119 1398 2916 
Q 1625 2713 2034 2713 
Q 2441 2713 2670 2916 
Q 2900 3119 2900 3481 
Q 2900 3844 2670 4047 
Q 2441 4250 2034 4250 
Q 1625 4250 1398 4047 
Q 1172 3844 1172 3481 
z
" transform="scale(0.015625)"/>
       </defs>
       <use xlink:href="#DejaVuSans-2212"/>
       <use xlink:href="#DejaVuSans-31" x="83.789062"/>
       <use xlink:href="#DejaVuSans-36" x="147.412109"/>
       <use xlink:href="#DejaVuSans-2e" x="211.035156"/>
       <use xlink:href="#DejaVuSans-38" x="242.822266"/>
      </g>
     </g>
    </g>
    <g id="ytick_4">
     <g id="line2d_21">
      <path d="M 48.043438 27.901987 
L 327.043437 27.901987 
" clip-path="url(#p52b3f197a6)" style="fill: none; stroke-dasharray: 0.8,1.32; stroke-dashoffset: 0; stroke: #000000; stroke-opacity: 0.5; stroke-width: 0.8"/>
     </g>
     <g id="line2d_22">
      <g>
       <use xlink:href="#m7f3515f5a9" x="48.043438" y="27.901987" style="stroke: #000000; stroke-width: 0.8"/>
      </g>
     </g>
     <g id="text_12">
      <!-- −16.6 -->
      <g transform="translate(10.398125 31.701206) scale(0.1 -0.1)">
       <use xlink:href="#DejaVuSans-2212"/>
       <use xlink:href="#DejaVuSans-31" x="83.789062"/>
       <use xlink:href="#DejaVuSans-36" x="147.412109"/>
       <use xlink:href="#DejaVuSans-2e" x="211.035156"/>
       <use xlink:href="#DejaVuSans-36" x="242.822266"/>
      </g>
     </g>
    </g>
    <g id="text_13">
     <!-- Drehmoment [Nm] -->
     <g transform="translate(8.318438 117.165313) rotate(-90) scale(0.1 -0.1)">
      <defs>
       <path id="DejaVuSans-44" d="M 1259 4147 
L 1259 519 
L 2022 519 
Q 2988 519 3436 956 
Q 3884 1394 3884 2338 
Q 3884 3275 3436 3711 
Q 2988 4147 2022 4147 
L 1259 4147 
z
M 628 4666 
L 1925 4666 
Q 3281 4666 3915 4102 
Q 4550 3538 4550 2338 
Q 4550 1131 3912 565 
Q 3275 0 1925 0 
L 628 0 
L 628 4666 
z
" transform="scale(0.015625)"/>
       <path id="DejaVuSans-72" d="M 2631 2963 
Q 2534 3019 2420 3045 
Q 2306 3072 2169 3072 
Q 1681 3072 1420 2755 
Q 1159 2438 1159 1844 
L 1159 0 
L 581 0 
L 581 3500 
L 1159 3500 
L 1159 2956 
Q 1341 3275 1631 3429 
Q 1922 3584 2338 3584 
Q 2397 3584 2469 3576 
Q 2541 3569 2628 3553 
L 2631 2963 
z
" transform="scale(0.015625)"/>
       <path id="DejaVuSans-68" d="M 3513 2113 
L 3513 0 
L 2938 0 
L 2938 2094 
Q 2938 2591 2744 2837 
Q 2550 3084 2163 3084 
Q 1697 3084 1428 2787 
Q 1159 2491 1159 1978 
L 1159 0 
L 581 0 
L 581 4863 
L 1159 4863 
L 1159 2956 
Q 1366 3272 1645 3428 
Q 1925 3584 2291 3584 
Q 2894 3584 3203 3211 
Q 3513 2838 3513 2113 
z
" transform="scale(0.015625)"/>
       <path id="DejaVuSans-6d" d="M 3328 2828 
Q 3544 3216 3844 3400 
Q 4144 3584 4550 3584 
Q 5097 3584 5394 3201 
Q 5691 2819 5691 2113 
L 5691 0 
L 5113 0 
L 5113 2094 
Q 5113 2597 4934 2840 
Q 4756 3084 4391 3084 
Q 3944 3084 3684 2787 
Q 3425 2491 3425 1978 
L 3425 0 
L 2847 0 
L 2847 2094 
Q 2847 2600 2669 2842 
Q 2491 3084 2119 3084 
Q 1678 3084 1418 2786 
Q 1159 2488 1159 1978 
L 1159 0 
L 581 0 
L 581 3500 
L 1159 3500 
L 1159 2956 
Q 1356 3278 1631 3431 
Q 1906 3584 2284 3584 
Q 2666 3584 2933 3390 
Q 3200 3197 3328 2828 
z
" transform="scale(0.015625)"/>
       <path id="DejaVuSans-6f" d="M 1959 3097 
Q 1497 3097 1228 2736 
Q 959 2375 959 1747 
Q 959 1119 1226 758 
Q 1494 397 1959 397 
Q 2419 397 2687 759 
Q 2956 1122 2956 1747 
Q 2956 2369 2687 2733 
Q 2419 3097 1959 3097 
z
M 1959 3584 
Q 2709 3584 3137 3096 
Q 3566 2609 3566 1747 
Q 3566 888 3137 398 
Q 2709 -91 1959 -91 
Q 1206 -91 779 398 
Q 353 888 353 1747 
Q 353 2609 779 3096 
Q 1206 3584 1959 3584 
z
" transform="scale(0.015625)"/>
       <path id="DejaVuSans-6e" d="M 3513 2113 
L 3513 0 
L 2938 0 
L 2938 2094 
Q 2938 2591 2744 2837 
Q 2550 3084 2163 3084 
Q 1697 3084 1428 2787 
Q 1159 2491 1159 1978 
L 1159 0 
L 581 0 
L 581 3500 
L 1159 3500 
L 1159 2956 
Q 1366 3272 1645 3428 
Q 1925 3584 2291 3584 
Q 2894 3584 3203 3211 
Q 3513 2838 3513 2113 
z
" transform="scale(0.015625)"/>
       <path id="DejaVuSans-4e" d="M 628 4666 
L 1478 4666 
L 3547 763 
L 3547 4666 
L 4159 4666 
L 4159 0 
L 3309 0 
L 1241 3903 
L 1241 0 
L 628 0 
L 628 4666 
z
" transform="scale(0.015625)"/>
      </defs>
      <use xlink:href="#DejaVuSans-44"/>
      <use xlink:href="#DejaVuSans-72" x="77.001953"/>
      <use xlink:href="#DejaVuSans-65" x="115.865234"/>
      <use xlink:href="#DejaVuSans-68" x="177.388672"/>
      <use xlink:href="#DejaVuSans-6d" x="240.767578"/>
      <use xlink:href="#DejaVuSans-6f" x="338.179688"/>
      <use xlink:href="#DejaVuSans-6d" x="399.361328"/>
      <use xlink:href="#DejaVuSans-65" x="496.773438"/>
      <use xlink:href="#DejaVuSans-6e" x="558.296875"/>
      <use xlink:href="#DejaVuSans-74" x="621.675781"/>
      <use xlink:href="#DejaVuSans-20" x="660.884766"/>
      <use xlink:href="#DejaVuSans-5b" x="692.671875"/>
      <use xlink:href="#DejaVuSans-4e" x="731.685547"/>
      <use xlink:href="#DejaVuSans-6d" x="806.490234"/>
      <use xlink:href="#DejaVuSans-5d" x="903.902344"/>
     </g>
    </g>
   </g>
   <g id="line2d_23">
    <path d="M 48.043438 5.853358 
L 327.043437 5.853359 
L 327.043437 5.853359 
" clip-path="url(#p52b3f197a6)" style="fill: none; stroke: #0000ff; stroke-opacity: 0.5; stroke-width: 3; stroke-linecap: square"/>
   </g>
   <g id="line2d_24">
    <path d="M 48.043438 117.489131 
L 48.096174 115.80094 
L 48.191054 117.280701 
L 48.356886 113.303737 
L 48.407732 114.010418 
L 48.47858 110.650627 
L 48.5952 120.226322 
L 48.664346 117.129133 
L 48.751063 118.202353 
L 48.825365 118.844305 
L 49.025138 110.330094 
L 49.093357 111.78216 
L 49.162518 116.793987 
L 49.336611 114.792208 
L 49.540027 108.180048 
L 49.608587 110.32792 
L 49.660109 109.690226 
L 49.729694 109.098076 
L 49.831222 113.90238 
L 49.883107 112.286397 
L 50.038305 106.822118 
L 50.108315 110.766811 
L 50.364651 101.445834 
L 50.384385 101.700486 
L 50.439815 103.823617 
L 50.45064 102.983694 
L 50.520137 102.126271 
L 50.657519 103.900973 
L 50.879644 112.383445 
L 50.948297 111.425494 
L 51.009206 109.813673 
L 51.086121 113.443036 
L 51.155251 114.225064 
L 51.29345 108.210496 
L 51.366885 111.442458 
L 51.518171 102.202703 
L 51.862095 115.628336 
L 52.004057 105.574439 
L 52.223756 115.52542 
L 52.291778 121.015084 
L 52.360698 120.89218 
L 52.428507 120.53965 
L 52.532628 116.123176 
L 52.572177 109.7125 
L 52.638224 114.293962 
L 52.723189 116.714934 
L 52.791922 115.00974 
L 52.864585 116.393127 
L 52.929509 120.55608 
L 53.206095 108.3585 
L 53.277401 109.346097 
L 53.359947 107.146091 
L 53.497937 115.409449 
L 53.566273 113.96422 
L 53.71424 108.836275 
L 53.77571 111.629994 
L 53.858006 110.179346 
L 54.077668 120.078546 
L 54.204139 115.869275 
L 54.271681 116.005453 
L 54.409141 112.499212 
L 54.494469 113.54614 
L 54.768894 124.155781 
L 54.912456 121.958787 
L 54.995474 122.735405 
L 55.061905 117.613305 
L 55.131064 118.84677 
L 55.202178 119.462027 
L 55.476267 129.364146 
L 55.785592 112.796725 
L 55.837132 117.885648 
L 55.957214 116.872704 
L 56.197023 99.783089 
L 56.403326 107.060207 
L 56.615082 120.254556 
L 56.686597 119.93654 
L 56.90418 115.777606 
L 57.110844 118.727711 
L 57.196623 113.182435 
L 57.426067 99.600526 
L 57.479244 108.400752 
L 57.562464 106.21138 
L 57.615746 106.098747 
L 57.842366 113.679757 
L 57.970904 112.085668 
L 58.126001 115.029299 
L 58.210436 112.568634 
L 58.226508 112.700221 
L 58.368263 125.512003 
L 58.506933 118.422386 
L 58.558532 118.673974 
L 58.696436 111.792012 
L 58.781886 114.05753 
L 58.852498 120.63757 
L 58.91914 118.504261 
L 59.073848 112.779557 
L 59.125417 113.720283 
L 59.177073 118.874305 
L 59.264693 118.826556 
L 59.332048 118.778078 
L 59.383785 118.290581 
L 59.503062 113.739445 
L 59.543748 113.900484 
L 59.640819 115.129431 
L 59.728103 113.185729 
L 59.761465 114.002994 
L 59.814277 116.03522 
L 59.97794 112.346209 
L 60.139309 120.715929 
L 60.267222 114.734706 
L 60.328465 115.259785 
L 60.56843 108.024359 
L 60.671532 97.077047 
L 60.775441 97.74199 
L 61.152017 113.866231 
L 61.17003 115.147527 
L 61.239019 110.994473 
L 61.37616 130.452274 
L 61.461607 128.771729 
L 61.667489 113.568118 
L 61.736649 112.372239 
L 61.805237 108.248312 
L 61.891256 109.197444 
L 61.978266 111.60533 
L 62.028342 110.18264 
L 62.097344 110.077803 
L 62.165606 107.773255 
L 62.321911 115.897175 
L 62.491881 119.674433 
L 62.525975 117.701711 
L 62.584286 118.923316 
L 62.662963 120.399055 
L 62.800781 108.772163 
L 62.899503 113.004571 
L 62.939098 112.762504 
L 63.311531 105.129246 
L 63.540089 109.727798 
L 63.592145 109.361751 
L 63.728967 112.669696 
L 63.867338 108.406114 
L 64.022252 116.153363 
L 64.090702 114.562401 
L 64.262227 113.489409 
L 64.314735 110.221234 
L 64.571602 114.678067 
L 64.674966 113.930336 
L 64.773535 114.404769 
L 64.795119 113.989132 
L 64.950634 119.791587 
L 65.018905 118.08721 
L 65.124554 113.203507 
L 65.1603 115.548351 
L 65.229372 119.43519 
L 65.315011 117.894951 
L 65.375771 118.867948 
L 65.447539 116.819064 
L 65.568738 117.94084 
L 65.663906 106.162513 
L 65.810676 108.874339 
L 65.933373 108.375083 
L 66.050991 114.621521 
L 66.068695 113.076985 
L 66.216507 110.129335 
L 66.298535 109.828256 
L 66.478769 116.403172 
L 66.577527 113.826568 
L 66.717154 106.86339 
L 66.78604 106.997913 
L 66.922949 108.834171 
L 66.99213 106.811677 
L 67.283546 120.158794 
L 67.352885 120.656381 
L 67.421184 118.50681 
L 67.524097 120.015457 
L 67.645444 113.31456 
L 67.70083 113.763915 
L 67.924602 109.341249 
L 68.059907 99.464965 
L 68.199076 101.411101 
L 68.300705 108.8279 
L 68.353224 106.422906 
L 68.547357 111.867257 
L 68.578386 107.700599 
L 68.627682 111.895891 
L 68.851237 122.305999 
L 68.937787 120.811913 
L 69.006788 116.960017 
L 69.130089 124.925814 
L 69.212696 122.583505 
L 69.332061 123.535884 
L 69.418899 120.799312 
L 69.435335 113.90879 
L 69.79868 115.579449 
L 70.173855 116.502553 
L 70.574572 112.19643 
L 70.949127 115.196495 
L 70.964305 123.225805 
L 71.049464 119.770956 
L 71.257068 125.595478 
L 71.5143 110.884899 
L 71.532851 113.615245 
L 71.685818 119.512202 
L 71.754675 118.728742 
L 71.997251 111.19156 
L 72.235909 121.027258 
L 72.466493 113.468434 
L 72.683775 127.262772 
L 72.769192 124.793275 
L 72.821156 120.382859 
L 72.905671 120.603599 
L 72.991389 119.299127 
L 73.181115 123.196525 
L 73.320112 111.904705 
L 73.422002 115.069496 
L 73.525687 122.090556 
L 73.644886 121.630563 
L 73.69627 120.332732 
L 73.924901 124.55973 
L 74.04102 118.132076 
L 74.105506 118.227218 
L 74.277508 123.962392 
L 74.313887 122.453834 
L 74.401747 120.16944 
L 74.518279 114.695231 
L 74.74124 118.25757 
L 74.828872 117.646857 
L 74.965054 109.465688 
L 75.016264 110.449242 
L 75.101971 110.746605 
L 75.170211 109.242628 
L 75.239215 109.719319 
L 75.326931 113.130133 
L 75.462039 123.322821 
L 75.600293 115.438068 
L 75.737907 118.867881 
L 75.875333 127.212353 
L 75.961849 124.589571 
L 76.098656 110.471528 
L 76.236353 122.244089 
L 76.305345 122.362962 
L 76.442456 117.59937 
L 76.56185 117.515155 
L 76.666554 112.952741 
L 76.813262 115.675153 
L 76.820615 116.0456 
L 76.960945 112.774421 
L 77.044617 113.34999 
L 77.123478 112.887955 
L 77.291923 98.085975 
L 77.46219 98.584771 
L 77.633942 102.499992 
L 77.651066 99.622649 
L 77.719185 100.65309 
L 78.080003 118.942947 
L 78.148332 116.559821 
L 78.268189 115.577381 
L 78.37631 110.91769 
L 78.581002 113.953599 
L 78.646835 113.669387 
L 78.855221 104.716156 
L 78.990366 106.464205 
L 79.079854 109.837059 
L 79.351634 102.762946 
L 79.610513 115.467558 
L 79.626844 111.74999 
L 79.728996 107.322944 
L 79.918302 112.835786 
L 80.055433 114.451856 
L 80.159799 107.855142 
L 80.281917 110.158391 
L 80.330213 110.118586 
L 80.433985 114.574063 
L 80.484866 113.413259 
L 80.640768 112.105573 
L 80.710023 110.288135 
L 80.811355 112.599405 
L 80.931755 120.504721 
L 81.066979 121.384916 
L 81.197032 115.725123 
L 81.279637 118.491373 
L 81.434271 130.084337 
L 81.539392 129.949752 
L 81.692312 115.937323 
L 81.778501 112.587422 
L 81.919436 122.259243 
L 81.985381 118.258141 
L 82.054445 111.947522 
L 82.124208 112.054218 
L 82.415529 128.179213 
L 82.484734 127.929934 
L 82.690684 117.386597 
L 82.760182 120.618385 
L 82.880424 119.206116 
L 83.051785 109.938486 
L 83.182563 110.498036 
L 83.259093 112.730799 
L 83.325973 111.951192 
L 83.343022 110.692745 
L 83.453998 111.791726 
L 83.587602 107.674954 
L 83.688638 114.723731 
L 83.829101 114.456952 
L 83.917699 110.743131 
L 84.297465 131.854625 
L 84.325304 129.592301 
L 84.480548 123.629298 
L 84.607315 131.602313 
L 84.704117 128.12211 
L 84.755849 122.305027 
L 84.885271 123.091336 
L 84.928657 125.570992 
L 85.030289 124.921342 
L 85.047253 122.44146 
L 85.159055 123.278672 
L 85.323841 128.968958 
L 85.391625 129.321437 
L 85.478438 134.161204 
L 85.684431 124.546424 
L 85.7526 128.037091 
L 85.963237 113.234157 
L 86.116927 109.311333 
L 86.253925 102.091247 
L 86.391535 101.400441 
L 86.459939 98.745639 
L 86.684568 112.048193 
L 86.75355 108.845435 
L 86.960175 117.435058 
L 87.047318 118.928189 
L 87.115147 122.873637 
L 87.169824 120.267243 
L 87.528675 113.696496 
L 87.597598 114.136028 
L 87.769826 120.204484 
L 87.891887 113.202934 
L 88.063357 116.310391 
L 88.254725 125.260837 
L 88.371492 119.027158 
L 88.440865 114.127377 
L 88.581548 114.760581 
L 88.959672 103.869084 
L 89.010532 105.945939 
L 89.440579 124.464105 
L 89.513435 124.325436 
L 89.578182 123.555422 
L 89.664169 119.923763 
L 89.800726 119.45665 
L 89.944067 115.111833 
L 90.013523 119.945266 
L 90.218572 108.459166 
L 90.353097 118.298977 
L 90.576192 110.848837 
L 90.730201 101.615705 
L 90.867824 108.93483 
L 90.937113 106.322826 
L 91.039626 104.583735 
L 91.143449 109.465055 
L 91.21496 108.795184 
L 91.410712 115.24303 
L 91.573627 102.974018 
L 91.646293 105.501389 
L 91.710828 105.134131 
L 91.779282 101.153188 
L 91.848436 103.830529 
L 92.005013 101.928832 
L 92.089696 104.454795 
L 92.227809 115.200561 
L 92.502317 123.571242 
L 92.570197 123.564443 
L 92.673378 125.68782 
L 92.724587 129.125428 
L 92.794493 127.571339 
L 93.000688 121.247829 
L 93.078589 120.588953 
L 93.242108 114.500209 
L 93.351596 114.598981 
L 93.485849 108.352198 
L 93.929954 118.298189 
L 93.999918 112.75004 
L 94.081832 115.928435 
L 94.155909 114.651612 
L 94.193902 114.714543 
L 94.310743 114.370125 
L 94.349716 117.401421 
L 94.499559 112.530595 
L 94.550798 112.659301 
L 94.688566 111.369835 
L 94.742032 112.22023 
L 94.777328 104.398333 
L 94.832259 108.849678 
L 94.914753 109.332904 
L 95.053581 101.122998 
L 95.189325 106.045449 
L 95.25888 104.058827 
L 95.275602 105.562538 
L 95.414456 110.291443 
L 95.488003 114.257135 
L 95.550706 107.074881 
L 95.618725 107.332945 
L 95.763204 119.234516 
L 95.825953 119.484596 
L 95.904765 114.592561 
L 95.980199 114.63559 
L 96.047979 112.667801 
L 96.118197 113.141702 
L 96.184892 112.950396 
L 96.324785 116.627527 
L 96.545448 103.715232 
L 96.615058 104.647148 
L 96.683024 105.82343 
L 96.822226 101.495898 
L 96.975136 105.238339 
L 97.112993 104.441348 
L 97.319125 114.105956 
L 97.387511 109.086576 
L 97.473521 110.66585 
L 97.680922 117.310538 
L 97.748749 114.581281 
L 97.888649 118.693724 
L 98.041051 108.590756 
L 98.109735 112.937911 
L 98.246759 103.126513 
L 98.315789 103.999736 
L 98.392941 100.219969 
L 98.523253 106.234858 
L 98.592712 105.981665 
L 98.745204 113.175994 
L 98.817024 109.614757 
L 98.968288 120.416888 
L 99.021128 111.196478 
L 99.096627 112.071821 
L 99.243757 105.077986 
L 99.383208 105.862747 
L 99.468635 104.386047 
L 99.519541 108.116865 
L 99.588836 106.840027 
L 99.675272 102.014688 
L 99.813472 112.933225 
L 99.880603 111.245499 
L 99.950602 111.86795 
L 100.030057 110.577406 
L 100.035689 114.548621 
L 100.087997 113.478719 
L 100.230076 112.570078 
L 100.315947 115.364305 
L 100.449746 117.804401 
L 100.501345 116.866564 
L 100.519054 115.960521 
L 100.588922 117.519202 
L 100.656296 119.317836 
L 100.829433 113.068066 
L 100.949815 115.418593 
L 101.053047 114.213302 
L 101.086858 116.063399 
L 101.155316 114.743784 
L 101.224513 111.730502 
L 101.293892 112.193147 
L 101.451186 118.151935 
L 101.52225 118.131289 
L 101.593065 116.848502 
L 101.606585 112.485701 
L 101.65752 112.991323 
L 101.830918 111.04889 
L 102.018882 116.875599 
L 102.087564 118.745061 
L 102.10486 112.36353 
L 102.276465 111.055336 
L 102.450903 116.148227 
L 102.708566 106.348682 
L 102.775888 107.919573 
L 102.862921 115.366815 
L 102.949311 114.54859 
L 103.001166 112.115457 
L 103.016732 114.18799 
L 103.086227 118.114871 
L 103.241207 117.055328 
L 103.257929 116.127309 
L 103.360364 117.389785 
L 103.428685 115.330499 
L 103.498161 116.068989 
L 103.566755 108.373653 
L 103.670707 111.145103 
L 103.739485 110.905237 
L 103.826283 107.19029 
L 103.910948 106.121468 
L 104.113777 114.023525 
L 104.135514 112.184567 
L 104.237689 113.006643 
L 104.494799 121.180593 
L 104.598108 119.975056 
L 104.71496 120.580176 
L 104.966993 113.587393 
L 104.975377 114.270371 
L 105.09597 116.254435 
L 105.165999 112.849054 
L 105.285441 114.946722 
L 105.305412 118.568016 
L 105.35424 113.967414 
L 105.422995 113.780301 
L 105.619037 116.323297 
L 105.637969 118.698422 
L 105.702184 115.972099 
L 105.997544 104.076112 
L 106.061403 107.893931 
L 106.130475 106.110914 
L 106.232014 105.400873 
L 106.438099 98.73644 
L 106.69857 107.51853 
L 106.78258 101.825883 
L 106.834873 105.442821 
L 106.973823 104.417305 
L 107.006789 108.685754 
L 107.080164 104.45742 
L 107.125578 103.298718 
L 107.194342 104.601436 
L 107.297595 103.894478 
L 107.37026 104.311941 
L 107.692613 109.474339 
L 107.731641 106.818966 
L 107.850238 114.974402 
L 107.918356 113.109487 
L 107.988798 112.464127 
L 108.159323 102.632524 
L 108.332734 106.540682 
L 108.4348 110.773554 
L 108.675104 118.350085 
L 108.795286 124.668838 
L 108.848151 127.017591 
L 108.915621 122.161842 
L 109.001196 122.325138 
L 109.052886 122.21079 
L 109.467802 108.619369 
L 109.550668 107.37424 
L 109.632288 113.597406 
L 109.689497 113.249816 
L 109.757047 110.704968 
L 109.826747 113.617254 
L 110.014631 109.254311 
L 110.049513 113.610045 
L 110.117845 112.626553 
L 110.204233 110.669942 
L 110.272588 115.901625 
L 110.325321 112.335343 
L 110.410999 112.032714 
L 110.4818 113.300795 
L 110.565874 110.254827 
L 110.826264 119.27381 
L 110.901615 119.208202 
L 110.962099 116.628434 
L 111.154089 120.863882 
L 111.185092 120.62343 
L 111.41413 112.55951 
L 111.459554 113.87266 
L 111.752114 123.73554 
L 111.958461 118.151991 
L 112.233725 116.829683 
L 112.305017 106.213673 
L 112.388887 106.700474 
L 112.457078 105.040598 
L 112.534983 105.381945 
L 112.638618 104.50787 
L 112.732751 108.411058 
L 112.88674 103.740557 
L 112.955606 104.57942 
L 113.024962 109.389648 
L 113.093463 107.221609 
L 113.161818 103.788578 
L 113.660338 120.948255 
L 113.728875 114.606206 
L 113.797831 118.336879 
L 113.897789 119.641277 
L 113.951018 115.036586 
L 114.020459 116.263664 
L 114.089046 115.257523 
L 114.157725 116.345537 
L 114.229898 115.815951 
L 114.366406 107.018753 
L 114.450769 111.868004 
L 114.587318 107.577769 
L 114.66133 113.304192 
L 114.725948 110.771675 
L 114.793894 110.137591 
L 114.9384 102.672991 
L 115.093613 107.078626 
L 115.193912 105.056985 
L 115.29634 111.845247 
L 115.362146 111.670673 
L 115.432539 112.931701 
L 115.586312 120.508436 
L 115.657322 121.621535 
L 115.726175 121.446443 
L 115.862053 118.344192 
L 115.999452 113.274046 
L 116.074337 112.657666 
L 116.153809 110.666119 
L 116.22793 113.072228 
L 116.398567 108.093199 
L 116.707798 119.813329 
L 116.947134 113.002026 
L 117.009204 113.447384 
L 117.067912 116.713945 
L 117.273438 115.782968 
L 117.307908 116.48038 
L 117.396596 115.242768 
L 117.427713 110.416815 
L 117.498311 110.865694 
L 117.652619 115.645896 
L 117.728101 115.19105 
L 117.927272 111.634037 
L 118.082651 119.158649 
L 118.18416 121.071214 
L 118.495168 110.164681 
L 118.632827 111.752203 
L 118.719719 103.161926 
L 118.839523 102.869516 
L 118.97654 110.247228 
L 119.046839 111.525121 
L 119.199794 122.28505 
L 119.337061 119.70598 
L 119.408203 122.698091 
L 119.523352 118.68127 
L 119.565079 120.097815 
L 119.630671 119.440984 
L 119.69841 116.432671 
L 119.767432 117.679323 
L 119.93884 111.753712 
L 120.007488 117.051602 
L 120.111438 112.036985 
L 120.163042 114.983422 
L 120.214303 124.538433 
L 120.266481 119.190197 
L 120.334345 117.517618 
L 120.403605 121.934499 
L 120.490652 117.710247 
L 120.626447 125.036289 
L 120.712942 118.865829 
L 120.85007 128.662189 
L 120.867141 126.573251 
L 120.976274 118.404335 
L 121.073589 121.620494 
L 121.262865 112.946008 
L 121.365011 113.77872 
L 121.399309 119.216377 
L 121.537426 108.281281 
L 121.690912 111.548338 
L 121.776977 108.221766 
L 121.845711 108.342631 
L 122.05375 117.488982 
L 122.122254 116.977183 
L 122.2603 121.131206 
L 122.330563 121.41685 
L 122.431781 121.08127 
L 122.465744 125.004932 
L 122.998904 110.661675 
L 123.03509 114.143295 
L 123.118854 112.806443 
L 123.187779 106.397814 
L 123.256266 110.602248 
L 123.395261 111.513607 
L 123.460174 108.851656 
L 123.47337 108.962851 
L 123.628778 114.819552 
L 123.771096 105.440643 
L 123.891106 113.322273 
L 123.993215 110.947901 
L 124.045051 111.199668 
L 124.234244 116.311319 
L 124.337475 113.278107 
L 124.398947 117.058897 
L 124.475081 116.786609 
L 124.54465 113.201933 
L 124.789454 120.44387 
L 124.822566 117.964798 
L 124.888949 117.746459 
L 124.957251 118.948622 
L 125.043365 115.225794 
L 125.205273 121.064863 
L 125.408338 119.923601 
L 125.47924 116.251829 
L 125.560361 119.375784 
L 125.663786 118.583017 
L 125.717177 112.643377 
L 125.832003 113.670653 
L 125.888057 113.110942 
L 126.066325 109.390068 
L 126.095325 108.629223 
L 126.165842 115.912733 
L 126.231978 112.822 
L 126.425476 115.480343 
L 126.457753 114.681968 
L 126.526404 114.916425 
L 126.594386 117.28006 
L 126.749616 114.499669 
L 126.817887 115.285047 
L 126.869316 112.559716 
L 127.043619 114.374039 
L 127.111387 114.127841 
L 127.180526 114.067505 
L 127.260393 114.33704 
L 127.303995 110.052616 
L 127.368814 112.960857 
L 127.439695 114.33207 
L 127.525235 113.792759 
L 127.748907 105.328373 
L 128.01274 116.827089 
L 128.025727 112.596556 
L 128.093477 118.120848 
L 128.147489 117.39708 
L 128.301848 122.857823 
L 128.374803 126.043142 
L 128.43821 125.630133 
L 128.506839 124.448962 
L 128.575148 118.674035 
L 128.647819 120.294972 
L 128.731265 123.326258 
L 129.142774 114.036777 
L 129.176837 118.698562 
L 129.22844 113.058737 
L 129.368728 114.075418 
L 129.506508 105.440214 
L 129.643769 111.892442 
L 129.867133 102.66326 
L 129.986986 105.0865 
L 130.090765 102.374723 
L 130.210069 113.011879 
L 130.347702 106.698994 
L 130.518994 115.135302 
L 130.609 115.43719 
L 130.728568 127.48506 
L 130.775933 123.726157 
L 130.916761 114.074953 
L 131.000014 119.184553 
L 131.081659 117.725383 
L 131.137297 118.270127 
L 131.205266 117.800465 
L 131.53208 110.994879 
L 131.669587 121.040595 
L 131.85866 114.5785 
L 131.948563 115.579328 
L 131.995864 114.50084 
L 132.093999 114.989127 
L 132.186567 111.102625 
L 132.202493 114.203404 
L 132.322748 112.874436 
L 132.357618 106.732124 
L 132.42637 108.358782 
L 132.512382 110.745342 
L 132.649167 108.554258 
L 132.841778 115.69061 
L 132.924643 116.542351 
L 133.046597 115.442671 
L 133.132049 119.048648 
L 133.147515 113.731611 
L 133.218261 114.810183 
L 133.406459 123.133729 
L 133.475128 124.407609 
L 133.560937 120.991793 
L 133.632084 123.63272 
L 133.698227 121.809522 
L 133.850125 129.363022 
L 133.918271 126.338581 
L 134.124412 117.310744 
L 134.19425 119.761515 
L 134.279116 119.703896 
L 134.470409 112.879016 
L 134.587062 112.682737 
L 134.638836 112.674293 
L 134.707264 114.121055 
L 134.933122 103.107013 
L 134.98347 102.38963 
L 135.172911 109.799824 
L 135.263704 105.994057 
L 135.648894 118.3768 
L 135.765123 115.512668 
L 135.778168 113.802165 
L 135.847917 117.967364 
L 135.965254 121.930113 
L 136.034827 121.465331 
L 136.498238 113.998671 
L 136.743118 99.234835 
L 136.930627 100.361506 
L 136.96374 99.276661 
L 137.031784 104.290707 
L 137.101353 102.012294 
L 137.186702 98.509936 
L 137.255731 103.278774 
L 137.341595 99.836366 
L 137.480762 106.591868 
L 137.531294 106.576166 
L 137.617111 104.397638 
L 137.671442 106.756272 
L 137.759601 98.467523 
L 137.771387 98.487982 
L 138.030264 106.35184 
L 138.09934 109.978915 
L 138.168009 109.369913 
L 138.288183 108.037636 
L 138.392889 104.744805 
L 138.479511 106.21691 
L 138.565148 103.826441 
L 138.609871 105.257726 
L 138.667375 110.112298 
L 138.838606 102.214676 
L 138.890984 103.048807 
L 138.959321 101.638527 
L 139.098073 109.939785 
L 139.165118 109.580034 
L 139.233762 109.981858 
L 139.302189 113.505344 
L 139.38813 111.987564 
L 139.476267 112.036226 
L 139.525477 116.576913 
L 139.5949 115.042984 
L 139.664367 114.307327 
L 139.73375 114.578346 
L 139.800858 110.498691 
L 139.872309 111.644464 
L 139.939811 113.181246 
L 140.024122 109.251216 
L 140.163176 117.374326 
L 140.230062 112.847366 
L 140.385067 112.505254 
L 140.448945 117.53511 
L 140.61342 118.198276 
L 140.820692 110.80545 
L 140.866608 106.999368 
L 140.938546 108.331714 
L 141.022605 111.503097 
L 141.085639 110.335024 
L 141.148589 110.211103 
L 141.227586 110.89546 
L 141.296487 109.745414 
L 141.413674 111.287631 
L 141.510688 114.267314 
L 141.603019 115.471223 
L 141.723662 109.931292 
L 142.074967 117.082735 
L 142.224907 111.952894 
L 142.317691 113.151297 
L 142.387183 115.63589 
L 142.421013 113.322311 
L 142.508844 113.111237 
L 142.592329 115.800489 
L 142.662013 114.822565 
L 142.747026 113.235826 
L 142.798027 113.60213 
L 142.920206 113.832246 
L 143.022367 107.412733 
L 143.074506 109.910237 
L 143.0911 112.767566 
L 143.144936 112.355996 
L 143.504692 96.100844 
L 143.56075 95.065182 
L 143.64354 98.345582 
L 143.712029 106.862528 
L 143.832344 107.153686 
L 143.954184 103.649505 
L 144.211071 112.668904 
L 144.279294 113.72665 
L 144.348221 116.789249 
L 144.555173 107.633305 
L 144.82031 112.541874 
L 145.070377 95.977753 
L 145.140475 99.122147 
L 145.296909 102.351919 
L 145.402599 103.641232 
L 145.621659 113.799918 
L 145.723319 119.014819 
L 145.794844 117.038499 
L 145.844359 117.030357 
L 145.931264 117.8241 
L 145.988735 121.702022 
L 146.050391 117.887223 
L 146.119393 117.927323 
L 146.355607 129.699196 
L 146.428794 128.638594 
L 146.480375 129.578896 
L 146.618681 123.230938 
L 146.806271 126.67555 
L 146.978732 117.562655 
L 147.217729 110.997951 
L 147.254278 118.146221 
L 147.354918 117.579864 
L 147.408508 113.26232 
L 147.477921 115.786961 
L 147.546095 114.46983 
L 147.647735 109.687887 
L 147.684543 110.379279 
L 147.779488 113.934152 
L 147.831318 112.508446 
L 147.918097 112.283131 
L 147.987853 106.016768 
L 148.175825 113.340982 
L 148.208989 112.843491 
L 148.465574 106.840217 
L 148.536078 107.353137 
L 148.68899 113.842315 
L 148.878909 109.835023 
L 149.033698 116.612564 
L 149.119625 115.707459 
L 149.187978 115.739153 
L 149.284206 118.120997 
L 149.395102 111.494927 
L 149.467222 113.548592 
L 149.842643 100.614208 
L 149.892599 102.296003 
L 150.09994 106.131478 
L 150.235797 113.274093 
L 150.407959 114.41285 
L 150.562111 118.060567 
L 150.648394 116.179631 
L 150.684283 117.822846 
L 150.752481 117.490478 
L 150.841984 118.728964 
L 150.874751 120.935413 
L 150.958126 114.583754 
L 151.095512 122.117772 
L 151.181863 117.462568 
L 151.303418 124.165688 
L 151.524773 112.697176 
L 151.595265 113.728441 
L 151.663658 116.430217 
L 151.804689 111.844188 
L 151.885784 114.713295 
L 152.077727 107.435855 
L 152.125244 106.974159 
L 152.451038 118.701334 
L 152.520444 117.786907 
L 152.588496 116.632576 
L 152.660926 121.379309 
L 152.673908 120.578031 
L 152.742856 116.870884 
L 152.812242 117.568048 
L 152.880344 115.634963 
L 153.035701 118.718993 
L 153.138952 117.897964 
L 153.172683 112.545548 
L 153.224636 116.782334 
L 153.342828 118.548246 
L 153.378876 116.956587 
L 153.516166 120.392514 
L 153.570405 117.172527 
L 153.619433 120.771662 
L 154.190806 105.332024 
L 154.226748 109.246578 
L 154.31271 108.399296 
L 154.50161 115.76694 
L 154.570014 113.960199 
L 154.913857 124.422808 
L 154.933357 123.042544 
L 155.085182 118.885138 
L 155.15403 120.413685 
L 155.224824 118.541794 
L 155.294146 120.543745 
L 155.778011 108.164356 
L 155.930848 109.468721 
L 156.103516 106.252629 
L 156.13685 106.613926 
L 156.240127 106.843066 
L 156.345081 107.611042 
L 156.498845 103.871634 
L 156.56784 104.50595 
L 156.704756 100.562339 
L 156.773017 100.975732 
L 156.913875 96.052506 
L 157.065819 100.100712 
L 157.203668 107.883683 
L 157.410068 104.184669 
L 157.564073 106.693128 
L 157.632317 105.953252 
L 157.701716 108.396739 
L 157.771075 107.739236 
L 157.839938 107.793712 
L 158.339901 119.461264 
L 158.554999 115.128795 
L 158.628307 115.194488 
L 158.770543 112.903531 
L 158.909975 108.656719 
L 158.981263 110.948495 
L 159.406615 102.344011 
L 159.472179 103.616086 
L 159.615575 102.000096 
L 159.681435 103.774086 
L 159.752728 103.5168 
L 159.85067 102.652402 
L 159.974 110.926594 
L 160.056854 110.1134 
L 160.126506 109.976448 
L 160.229312 111.476636 
L 160.265449 111.268145 
L 160.391599 107.209244 
L 160.461946 107.344334 
L 160.55938 111.223334 
L 160.679651 106.905314 
L 160.91056 103.197528 
L 161.110101 113.023513 
L 161.334043 116.974143 
L 161.471248 116.559666 
L 161.609267 120.220314 
L 161.969476 108.329626 
L 162.141128 112.411159 
L 162.313338 109.338545 
L 162.519933 116.657745 
L 162.829855 106.276715 
L 163.034382 114.791963 
L 163.175577 119.917829 
L 163.247566 116.729868 
L 163.394687 121.53962 
L 163.463734 126.91193 
L 163.583633 127.336336 
L 163.738883 121.631036 
L 163.947682 120.361262 
L 164.031132 124.625907 
L 164.236326 119.885966 
L 164.379864 123.531696 
L 164.443299 122.998899 
L 164.560001 123.744137 
L 164.683371 121.805199 
L 164.810718 120.13065 
L 164.889849 114.727414 
L 164.958165 114.449821 
L 165.044227 114.775554 
L 165.147557 113.777461 
L 165.164972 114.231722 
L 165.371167 107.582525 
L 165.45768 108.886849 
L 165.514653 107.811284 
L 165.737137 117.112752 
L 165.823455 112.441155 
L 165.910242 114.162832 
L 165.96054 112.928893 
L 166.223803 123.958932 
L 166.309235 122.399236 
L 166.395542 122.606262 
L 166.465306 119.594168 
L 166.515259 123.142921 
L 166.585429 119.868262 
L 166.674482 125.116229 
L 166.721725 123.780436 
L 166.809007 126.367093 
L 167.064741 116.503843 
L 167.117181 116.363708 
L 167.219933 112.045032 
L 167.288554 112.722434 
L 167.581361 102.770756 
L 167.65009 103.344995 
L 167.867196 108.845443 
L 167.940766 109.207916 
L 168.073911 112.877839 
L 168.228354 118.67336 
L 168.348459 121.668013 
L 168.487112 114.727762 
L 168.67488 120.347691 
L 168.795241 117.640741 
L 169.03492 108.667526 
L 169.277741 113.566196 
L 169.36228 111.764231 
L 169.431152 115.396263 
L 169.499363 114.00142 
L 169.567791 113.844456 
L 169.636794 112.293628 
L 169.70811 117.648874 
L 169.809308 117.299899 
L 170.135823 101.70564 
L 170.356882 107.090673 
L 170.466283 103.57273 
L 170.549344 104.272816 
L 170.685031 110.498489 
L 170.735607 110.21882 
L 170.859312 124.300579 
L 170.909793 120.759154 
L 171.046411 118.130635 
L 171.132064 122.818956 
L 171.545526 110.717611 
L 171.684684 112.514612 
L 171.699791 110.769727 
L 171.959417 106.951027 
L 172.029883 107.466194 
L 172.128795 115.099103 
L 172.2006 117.439982 
L 172.405171 112.837737 
L 172.527004 111.313108 
L 172.559022 112.856852 
L 172.610889 111.360128 
L 172.902896 100.245474 
L 173.184266 112.241751 
L 173.263239 109.453756 
L 173.332611 110.673772 
L 173.469936 114.754228 
L 173.538562 112.238193 
L 173.627436 114.607076 
L 173.83175 106.659018 
L 173.901612 106.289109 
L 173.969447 108.213618 
L 174.175424 105.144052 
L 174.211181 101.490152 
L 174.366161 105.46718 
L 174.39964 107.158864 
L 174.467614 105.491687 
L 174.890478 112.815917 
L 174.941228 117.729676 
L 174.965957 115.070544 
L 175.042566 116.215681 
L 175.156077 114.75213 
L 175.24169 117.131622 
L 175.311393 116.678556 
L 175.551602 113.386635 
L 175.605107 110.022683 
L 175.689417 110.769616 
L 175.75798 107.72179 
L 175.810904 108.077811 
L 175.981434 101.592083 
L 176.033705 97.321581 
L 176.101453 98.603598 
L 176.170565 99.242414 
L 176.377707 105.828358 
L 176.491042 105.474123 
L 176.559114 105.314896 
L 176.740943 111.798176 
L 176.994182 113.88043 
L 177.028592 112.81627 
L 177.664834 129.642833 
L 177.750738 129.090846 
L 178.247986 115.80879 
L 178.50961 106.757721 
L 178.577247 110.781916 
L 178.677369 108.878934 
L 178.748378 110.634378 
L 178.818138 106.709404 
L 178.867574 108.769388 
L 179.018586 109.104357 
L 179.024349 108.673902 
L 179.229614 116.451565 
L 179.322459 112.568577 
L 179.387088 113.009838 
L 179.470168 114.335029 
L 179.729764 128.898231 
L 179.798681 127.134194 
L 180.07423 118.372592 
L 180.158968 117.551363 
L 180.296474 111.455307 
L 180.433659 106.254281 
L 180.674664 115.604288 
L 180.725512 113.757728 
L 180.897636 117.924571 
L 180.950743 116.863997 
L 181.125744 119.779467 
L 181.155224 121.635237 
L 181.224188 120.403934 
L 181.309581 119.647381 
L 181.430626 122.047433 
L 181.636424 120.467753 
L 181.70519 123.750598 
L 181.928203 117.642645 
L 182.068276 113.18159 
L 182.082585 119.934901 
L 182.185953 116.369463 
L 182.357792 119.847994 
L 182.431607 117.253934 
L 182.495925 117.911934 
L 182.634452 112.856346 
L 182.790952 115.510348 
L 183.063066 103.870722 
L 183.130387 104.227912 
L 183.415983 111.771014 
L 183.554244 111.096663 
L 183.634733 114.748435 
L 183.706594 115.752204 
L 183.844206 121.895904 
L 183.956792 118.326926 
L 183.998599 120.625912 
L 184.463881 106.635368 
L 184.482604 107.980699 
L 184.689989 101.756619 
L 184.75701 102.240866 
L 185.108987 96.641457 
L 185.132123 98.855738 
L 185.204626 96.869616 
L 185.437116 107.462533 
L 185.47616 105.570619 
L 185.62413 102.355997 
L 185.692303 108.258691 
L 185.760953 105.324747 
L 185.833939 105.19833 
L 185.915828 106.484218 
L 185.970263 100.240156 
L 186.052896 101.278936 
L 186.122389 98.470967 
L 186.690098 123.278722 
L 186.757366 122.97106 
L 186.825823 122.204313 
L 187.032705 115.397872 
L 187.392322 106.185569 
L 187.465847 106.992324 
L 187.606969 111.326202 
L 187.827362 105.946399 
L 187.893953 107.922551 
L 188.031377 102.792057 
L 188.17054 104.41175 
L 188.239189 99.031163 
L 188.323609 100.377764 
L 188.392351 101.743998 
L 188.461925 101.634728 
L 188.530809 100.265091 
L 188.599375 100.279015 
L 188.74121 110.658083 
L 188.813097 110.241949 
L 188.89054 108.882903 
L 189.251478 122.810648 
L 189.389621 115.721601 
L 189.481745 116.222718 
L 189.526193 116.127089 
L 189.595167 118.184646 
L 189.663884 117.785769 
L 189.736482 117.558344 
L 189.872867 114.912624 
L 189.95765 113.833795 
L 190.093504 116.448453 
L 190.453841 104.736131 
L 190.509726 105.072001 
L 190.67834 100.258146 
L 190.72962 102.082799 
L 190.866149 94.050839 
L 191.012885 101.766443 
L 191.089119 99.031213 
L 191.169453 99.49278 
L 191.232213 100.096605 
L 191.312375 104.117734 
L 191.398486 101.1686 
L 191.593311 108.485709 
L 191.725831 105.896842 
L 192.192369 113.626601 
L 192.293702 110.491453 
L 192.568626 106.101582 
L 192.658449 112.181829 
L 192.793588 107.837882 
L 192.949908 112.007376 
L 193.004481 111.624402 
L 193.162665 110.560065 
L 193.222332 111.2232 
L 193.390902 110.068978 
L 193.442537 112.517203 
L 193.634118 103.709328 
L 193.719768 109.549006 
L 193.786245 108.083096 
L 193.855013 108.719308 
L 193.923775 108.685345 
L 194.011577 107.120218 
L 194.130501 101.310242 
L 194.23329 102.423976 
L 194.284256 102.130008 
L 194.405118 102.132981 
L 194.474863 98.494351 
L 194.577428 105.206866 
L 194.731243 108.547668 
L 194.792349 118.304102 
L 194.869186 116.461234 
L 194.991047 120.682725 
L 195.075167 125.767041 
L 195.360472 121.292166 
L 195.54064 120.163602 
L 195.580421 120.948252 
L 195.833466 107.313853 
L 195.867671 112.927932 
L 195.936905 111.003684 
L 196.006366 111.725019 
L 196.202245 105.898007 
L 196.337901 108.649299 
L 196.414856 108.460835 
L 196.490419 115.341008 
L 196.56262 114.909381 
L 196.629737 115.966821 
L 196.697065 114.51823 
L 196.765881 116.156958 
L 196.868349 112.62244 
L 196.971325 118.718763 
L 197.04044 116.380827 
L 197.092422 118.308642 
L 197.126006 115.365171 
L 197.24806 115.456875 
L 197.350071 109.527894 
L 197.486683 111.091855 
L 197.555488 111.733769 
L 197.693329 107.731308 
L 197.762713 108.954023 
L 197.899902 109.126 
L 197.950824 108.45901 
L 198.009751 109.035912 
L 198.054512 113.373056 
L 198.303946 109.2856 
L 198.332856 111.253958 
L 198.41917 111.092446 
L 198.521462 111.491047 
L 198.607853 112.983431 
L 198.694395 113.65085 
L 198.779562 108.577506 
L 198.832931 114.876524 
L 198.900163 114.430462 
L 199.262296 109.094485 
L 199.330686 110.679717 
L 199.417179 108.878109 
L 199.485764 114.614633 
L 199.604879 102.901857 
L 199.708606 99.643758 
L 199.762063 101.938662 
L 199.843387 101.290365 
L 199.897638 102.715981 
L 200.034704 94.68859 
L 200.10365 101.116668 
L 200.172334 97.325206 
L 200.395828 107.411457 
L 200.485068 105.570919 
L 200.536885 105.94783 
L 200.679709 104.765272 
L 200.824657 108.532085 
L 200.96301 103.078444 
L 201.151875 96.260048 
L 201.32395 107.814696 
L 201.410606 107.780663 
L 201.461091 110.773459 
L 201.684624 105.376723 
L 201.738814 108.048093 
L 202.012882 101.61208 
L 202.080656 101.191154 
L 202.321462 105.284549 
L 202.408459 107.728186 
L 202.664059 102.060571 
L 202.733612 102.69436 
L 202.818984 102.635552 
L 202.906401 103.231699 
L 202.956181 100.809705 
L 203.024368 102.180698 
L 203.23185 109.436224 
L 203.282844 107.843352 
L 203.368082 104.614686 
L 203.423139 106.701153 
L 203.506272 107.094634 
L 203.593882 102.092501 
L 203.66229 106.184601 
L 203.72918 106.028332 
L 203.900971 101.58976 
L 204.17615 112.465326 
L 204.350008 116.637262 
L 204.381232 114.853514 
L 204.449806 115.086202 
L 204.53574 116.970578 
L 204.590799 121.919561 
L 204.718551 122.155255 
L 204.898439 109.758917 
L 204.9511 111.372889 
L 205.019859 108.306109 
L 205.088487 111.090516 
L 205.294639 99.757835 
L 205.365672 100.144088 
L 205.501777 105.525981 
L 205.576819 103.267211 
L 205.674072 102.399727 
L 206.00084 111.498749 
L 206.070222 106.95734 
L 206.29211 115.400016 
L 206.361117 114.458631 
L 206.429515 117.728484 
L 206.641363 108.931274 
L 206.722932 109.158062 
L 206.814222 110.642988 
L 206.875162 109.248639 
L 206.927002 114.913446 
L 207.065078 114.64265 
L 207.081146 117.632061 
L 207.15031 112.159858 
L 207.23653 114.401073 
L 207.340096 113.188917 
L 207.424671 116.113178 
L 207.531344 115.909401 
L 207.945388 104.14173 
L 208.205475 111.306969 
L 208.217824 108.802152 
L 208.286041 108.990631 
L 208.423677 111.153703 
L 208.732489 123.224405 
L 208.803182 118.861803 
L 208.85769 121.550923 
L 208.975316 124.13168 
L 209.043835 121.916508 
L 209.060814 122.25615 
L 209.128739 122.79674 
L 209.335229 110.454279 
L 209.420407 111.871013 
L 209.489903 115.258156 
L 209.560165 113.844348 
L 209.627405 113.68003 
L 209.784669 116.049117 
L 209.832363 111.090534 
L 210.073602 119.041359 
L 210.269433 109.090536 
L 210.488091 103.250276 
L 210.623143 112.093783 
L 210.725988 109.156071 
L 210.787456 109.222336 
L 210.915306 118.749802 
L 210.984248 118.208341 
L 211.190993 122.711222 
L 211.326898 113.725676 
L 211.481431 117.151143 
L 211.61937 112.054416 
L 211.68834 113.185641 
L 211.756442 112.228625 
L 211.98116 112.887677 
L 212.014451 114.915576 
L 212.050394 114.44369 
L 212.118066 110.269731 
L 212.204777 111.383064 
L 212.427427 106.576656 
L 212.479328 108.491607 
L 212.614971 102.582428 
L 212.874529 107.425384 
L 212.907304 104.642058 
L 213.113794 114.406978 
L 213.182569 111.822745 
L 213.268653 116.632069 
L 213.397047 112.733285 
L 213.456665 113.631509 
L 213.602175 112.39877 
L 213.748686 108.53968 
L 213.8688 107.772381 
L 214.0248 112.862999 
L 214.095661 113.189578 
L 214.397012 123.74705 
L 214.48867 122.437814 
L 214.67716 114.784689 
L 214.814864 121.160536 
L 215.037996 111.451317 
L 215.158159 111.073129 
L 215.214891 111.894516 
L 215.382392 117.023005 
L 215.730497 110.116717 
L 215.811828 110.45124 
L 215.880291 111.72616 
L 215.949886 107.52983 
L 216.05854 108.747682 
L 216.103604 108.228229 
L 216.174434 107.566685 
L 216.310419 109.694054 
L 216.429558 107.211577 
L 216.5336 113.55608 
L 216.723128 111.094785 
L 216.808191 110.946826 
L 216.877322 108.07807 
L 216.963128 109.219236 
L 217.016961 108.70995 
L 217.220707 106.837835 
L 217.255148 103.118791 
L 217.32545 105.537373 
L 217.362807 104.565086 
L 217.444831 104.626194 
L 217.514504 103.973734 
L 217.947779 122.729109 
L 218.032537 121.227465 
L 218.083716 123.771696 
L 218.219549 124.292465 
L 218.376053 114.314588 
L 218.582563 103.216057 
L 218.660665 104.147618 
L 218.724839 106.497682 
L 218.949442 100.787588 
L 219.001305 103.3829 
L 219.093895 99.683827 
L 219.155606 100.731137 
L 219.480821 93.307987 
L 219.65266 105.879231 
L 219.705673 103.980982 
L 219.860073 109.693246 
L 219.933755 111.611204 
L 220.002997 108.110012 
L 220.065647 109.539246 
L 220.21183 112.949339 
L 220.385468 109.052473 
L 220.480557 111.551544 
L 220.514266 115.360273 
L 220.652739 112.244612 
L 220.876315 115.689858 
L 220.928866 112.456728 
L 220.997563 117.119807 
L 221.068326 115.617768 
L 221.13397 114.866556 
L 221.495563 102.254993 
L 221.566872 103.179297 
L 221.634982 105.684295 
L 221.709171 100.596773 
L 221.772108 103.365326 
L 221.910009 100.773205 
L 221.986827 97.408804 
L 222.06411 105.598093 
L 222.203116 114.183769 
L 222.271654 115.576239 
L 222.339774 108.10862 
L 222.448114 110.605242 
L 222.495371 105.845482 
L 222.580906 107.199089 
L 222.786992 120.236828 
L 222.880999 119.793324 
L 222.979252 114.917258 
L 223.188912 123.681307 
L 223.342142 123.258327 
L 223.548947 114.91561 
L 223.771645 120.834578 
L 223.912518 118.712999 
L 224.046388 111.356206 
L 224.133614 113.373854 
L 224.184118 111.451166 
L 224.27171 112.694694 
L 224.339366 111.938462 
L 224.54943 117.094552 
L 224.614304 115.013843 
L 224.682379 120.007279 
L 224.993079 111.464067 
L 225.103878 110.394363 
L 225.392188 100.476178 
L 225.491646 100.526215 
L 225.903899 112.443949 
L 225.956289 111.622821 
L 226.122273 115.184004 
L 226.281983 120.397146 
L 226.318454 119.900372 
L 226.461584 114.915159 
L 226.682079 118.860339 
L 226.884778 111.258396 
L 227.113382 117.852244 
L 227.279718 114.151425 
L 227.314062 109.987344 
L 227.384685 110.006522 
L 227.467478 111.960596 
L 227.519458 110.975791 
L 227.603636 111.095713 
L 227.827856 100.371465 
L 228.015527 98.865214 
L 228.034771 104.208923 
L 228.103212 103.358214 
L 228.239241 108.88892 
L 228.324739 108.803312 
L 228.462903 111.667897 
L 228.703497 118.182012 
L 228.737768 118.33077 
L 228.806442 117.788125 
L 228.892169 112.598633 
L 228.945056 112.76124 
L 229.150203 114.618735 
L 229.305084 117.04987 
L 229.44474 115.025026 
L 229.614835 116.59274 
L 229.703063 113.785151 
L 229.73485 114.097797 
L 229.838209 113.351569 
L 229.94462 110.626061 
L 230.014366 111.374479 
L 230.13403 115.541168 
L 230.151303 111.021612 
L 230.239381 113.895882 
L 230.374066 116.430138 
L 230.512187 113.298092 
L 230.683671 119.045195 
L 230.872346 113.658203 
L 231.016336 115.571887 
L 231.079536 115.366617 
L 231.232956 118.49443 
L 231.287411 118.197169 
L 231.372507 111.322639 
L 231.438881 113.176041 
L 231.6474 108.196979 
L 231.749572 99.400249 
L 231.852549 102.641946 
L 231.962571 100.23447 
L 232.220865 114.95307 
L 232.444145 120.653951 
L 232.566775 111.54284 
L 232.639858 110.699368 
L 232.855947 101.635091 
L 232.949878 98.275757 
L 232.993774 99.244524 
L 233.085738 100.721846 
L 233.3565 110.252792 
L 233.631228 101.743894 
L 233.785781 103.248612 
L 233.854855 102.97319 
L 233.923504 107.071397 
L 233.99267 106.862837 
L 234.060934 102.127141 
L 234.33791 119.978905 
L 234.352857 122.644112 
L 234.466473 121.8418 
L 234.491991 123.680187 
L 234.754291 112.83927 
L 234.766279 114.996115 
L 234.785671 118.659213 
L 234.922709 118.805548 
L 234.990801 117.911962 
L 235.233296 107.068411 
L 235.282862 107.875008 
L 235.522522 119.905436 
L 235.77997 111.521195 
L 235.833554 110.509329 
L 235.986546 113.583114 
L 236.072463 112.895386 
L 236.193212 108.936572 
L 236.415749 116.881203 
L 236.679849 121.374913 
L 236.691158 121.325907 
L 236.760963 116.901835 
L 236.830404 119.873029 
L 236.845544 113.632733 
L 236.897566 118.09883 
L 237.052232 109.522067 
L 237.121414 109.624171 
L 237.20632 110.146888 
L 237.326515 118.473751 
L 237.413352 115.755598 
L 237.549483 116.818425 
L 237.59007 121.704257 
L 237.619161 117.235433 
L 237.704754 119.945435 
L 237.759048 126.010496 
L 237.827307 121.223356 
L 237.911032 120.194617 
L 238.047564 114.538346 
L 238.116676 115.546409 
L 238.186242 120.259738 
L 238.271762 113.834955 
L 238.32441 114.417227 
L 238.391046 114.203501 
L 238.501483 111.236193 
L 238.629239 118.351208 
L 238.635615 114.43484 
L 238.686869 114.002476 
L 238.758371 114.401292 
L 238.824436 113.769961 
L 238.894761 108.691164 
L 238.963306 113.498852 
L 239.032737 112.306813 
L 239.143809 109.913634 
L 239.175343 113.822793 
L 239.241321 111.284124 
L 239.32481 111.964592 
L 239.481173 114.155179 
L 239.532358 114.229364 
L 239.601399 117.121418 
L 239.686745 115.882423 
L 239.875462 118.51745 
L 239.978617 111.748511 
L 240.052361 111.869265 
L 240.187343 107.272747 
L 240.237108 108.55671 
L 240.305559 108.111035 
L 240.528671 111.603671 
L 240.959229 126.769052 
L 241.353075 112.472484 
L 241.438782 112.195163 
L 241.545655 110.250758 
L 241.69955 104.180418 
L 242.014085 112.172569 
L 242.114156 112.548351 
L 242.197669 110.443227 
L 242.31795 116.586919 
L 242.369394 115.8452 
L 242.506954 123.1299 
L 242.803224 116.205877 
L 242.879198 117.261388 
L 242.938232 113.127283 
L 243.022288 113.52911 
L 243.228124 112.027221 
L 243.45141 118.739102 
L 243.590549 114.215154 
L 243.658568 119.059293 
L 243.726678 118.527799 
L 243.795705 121.678556 
L 244.161617 107.943016 
L 244.213976 108.209932 
L 244.364847 112.80724 
L 244.546174 109.897231 
L 244.717585 114.492063 
L 244.853696 112.413514 
L 244.941534 115.036321 
L 245.008481 112.076166 
L 245.153441 113.073122 
L 245.220622 109.295411 
L 245.338096 111.060007 
L 245.42064 103.835385 
L 245.731492 113.085557 
L 245.783545 107.828744 
L 245.922546 117.929372 
L 246.040457 111.176547 
L 246.177911 118.755345 
L 246.418692 108.353409 
L 246.490494 109.443726 
L 246.586226 102.020026 
L 246.627722 103.093586 
L 246.710969 106.226215 
L 246.781432 102.462334 
L 247.072551 113.055431 
L 247.226339 109.675386 
L 247.285411 113.493663 
L 247.346327 110.373023 
L 247.419978 107.95153 
L 247.5196 108.748692 
L 247.628397 100.486441 
L 247.730461 99.833607 
L 247.777159 97.089717 
L 247.845248 99.365051 
L 247.982776 98.359593 
L 248.275225 111.134772 
L 248.636301 116.949683 
L 248.652051 118.093816 
L 248.704595 115.373393 
L 248.841521 107.932224 
L 248.910088 108.179961 
L 248.996629 107.915061 
L 249.047953 108.554085 
L 249.271026 116.870681 
L 249.407681 113.916309 
L 249.545883 121.724741 
L 249.907486 110.876113 
L 250.067414 105.638016 
L 250.163141 106.358525 
L 250.251 99.53863 
L 250.403872 104.103311 
L 250.474287 103.31159 
L 250.541416 98.726994 
L 250.614718 102.023841 
L 250.697941 100.984364 
L 250.768822 102.015667 
L 250.907119 109.787578 
L 250.992246 107.974857 
L 251.164288 104.081428 
L 251.215449 104.509523 
L 251.353266 107.546262 
L 251.39006 103.478716 
L 251.474885 105.44733 
L 251.548589 105.100573 
L 251.680451 106.189233 
L 251.749129 110.555758 
L 251.887355 112.148344 
L 251.972805 116.404082 
L 252.093131 116.488183 
L 252.161482 121.745971 
L 252.19584 120.79402 
L 252.299377 121.631088 
L 252.318667 118.203801 
L 252.38546 119.857702 
L 252.45947 119.838524 
L 252.608388 116.492755 
L 252.677147 117.311414 
L 252.745809 117.187984 
L 252.815919 116.803047 
L 252.88488 119.564975 
L 252.970576 118.678987 
L 253.022008 119.504986 
L 253.191255 114.494115 
L 253.316462 120.043916 
L 253.761027 105.551879 
L 253.825939 107.251612 
L 253.878011 107.311482 
L 253.946265 106.103124 
L 254.035405 102.138491 
L 254.107681 102.652206 
L 254.169194 103.025255 
L 254.290302 102.616169 
L 254.307619 103.16708 
L 254.379987 100.647174 
L 254.73722 109.706442 
L 254.80584 106.838202 
L 255.252056 120.548545 
L 255.33925 115.869355 
L 255.372222 116.676872 
L 255.470997 116.861973 
L 255.584131 119.413825 
L 255.729379 116.615799 
L 255.744788 119.229365 
L 255.802962 117.579462 
L 255.870756 121.597568 
L 255.945457 120.029174 
L 256.0064 122.418139 
L 256.09285 118.721331 
L 256.14465 119.033242 
L 256.24701 116.893526 
L 256.315519 113.071737 
L 256.368663 116.662216 
L 256.727872 104.183454 
L 256.797506 105.16093 
L 256.864926 102.123166 
L 257.208924 115.512915 
L 257.296875 113.510342 
L 257.363794 113.456735 
L 257.500475 115.524054 
L 257.723612 112.5934 
L 257.793648 110.141011 
L 257.861715 111.262835 
L 257.998838 113.249442 
L 258.067272 112.706052 
L 258.142563 111.271897 
L 258.359247 115.479883 
L 258.566009 110.156759 
L 258.634262 109.197696 
L 258.708156 112.53825 
L 258.775289 111.758224 
L 258.841282 110.633183 
L 258.927668 112.274287 
L 258.995202 116.755007 
L 259.063292 113.646412 
L 259.132307 116.299141 
L 259.202581 116.055426 
L 259.280161 113.936938 
L 259.339361 114.499695 
L 259.424621 113.148817 
L 259.564088 117.463557 
L 259.699817 111.358798 
L 259.768508 113.922498 
L 259.839041 116.015344 
L 259.993894 112.985504 
L 260.35716 110.787353 
L 260.508321 103.879554 
L 260.544982 102.012544 
L 260.628627 102.933071 
L 260.715698 99.990505 
L 260.767598 100.403818 
L 260.946499 97.304668 
L 261.128153 102.409904 
L 261.197519 106.012015 
L 261.265225 103.2452 
L 261.333509 103.266874 
L 261.414317 103.352233 
L 261.420529 101.502086 
L 261.488299 113.978587 
L 261.664997 105.982522 
L 261.729967 103.834094 
L 261.76336 105.606423 
L 261.98579 108.64214 
L 262.038283 108.429438 
L 262.119341 108.950769 
L 262.192867 103.512477 
L 262.260832 108.597639 
L 262.34731 108.360041 
L 262.39884 109.273904 
L 262.468777 108.978824 
L 262.640073 106.917824 
L 263.03513 131.73424 
L 263.205577 133.287298 
L 263.882653 96.110096 
L 263.963175 98.540095 
L 264.117869 101.446615 
L 264.325168 106.970173 
L 264.417481 104.039854 
L 264.566645 109.516825 
L 264.599231 107.044449 
L 264.720438 108.795459 
L 264.73845 110.975599 
L 264.840767 110.679515 
L 264.89139 108.283721 
L 264.959788 108.620118 
L 265.183636 119.728117 
L 265.252497 117.766284 
L 265.390222 122.509049 
L 265.819391 97.886608 
L 265.940387 98.056036 
L 266.010134 102.620231 
L 266.112754 94.369244 
L 266.180522 96.758439 
L 266.609389 118.603463 
L 266.627559 117.698479 
L 266.713334 116.817814 
L 266.800413 125.331906 
L 266.884833 130.307391 
L 266.953486 127.818965 
L 267.142532 126.262527 
L 267.177296 128.608149 
L 267.229118 125.709812 
L 267.297209 120.742341 
L 267.383058 121.3821 
L 267.658519 115.803646 
L 267.745426 119.460009 
L 267.801953 117.969472 
L 267.891902 118.904432 
L 267.973591 117.93323 
L 268.073323 121.53808 
L 268.091346 118.862157 
L 268.588802 106.463428 
L 268.677083 106.255512 
L 268.777341 106.404815 
L 268.933243 111.048116 
L 269.001214 111.399968 
L 269.087951 110.905727 
L 269.15596 109.65493 
L 269.224774 109.851774 
L 269.293912 110.290549 
L 269.568461 118.841213 
L 269.792583 121.930821 
L 269.930138 121.888393 
L 269.998206 121.129811 
L 270.06786 123.461156 
L 270.429528 116.140641 
L 270.494136 116.051539 
L 270.565568 114.175636 
L 270.647695 116.514879 
L 270.715928 115.57159 
L 270.784837 112.943476 
L 270.853023 115.334374 
L 270.922868 111.082341 
L 270.990193 115.920281 
L 271.059086 113.269677 
L 271.213243 107.596753 
L 271.281926 108.695683 
L 271.350722 109.513238 
L 271.42198 104.666623 
L 271.487745 106.066878 
L 271.62677 110.27654 
L 271.698063 108.025193 
L 271.781181 109.207778 
L 271.849432 112.651471 
L 271.91751 112.640158 
L 272.055131 109.947256 
L 272.126235 113.766797 
L 272.278689 107.705128 
L 272.485095 112.991266 
L 272.561409 112.929251 
L 272.624611 115.429009 
L 272.800192 113.703642 
L 272.845481 113.70688 
L 272.916769 113.42897 
L 273.120667 116.026501 
L 273.190637 115.380798 
L 273.206949 105.423224 
L 273.275641 111.816219 
L 273.361125 109.942237 
L 273.4131 111.972292 
L 273.481769 111.342916 
L 273.58626 113.049988 
L 273.619258 112.281917 
L 273.691129 112.550602 
L 273.963512 105.044689 
L 274.014388 106.277432 
L 274.065392 109.315843 
L 274.152289 108.63117 
L 274.202957 108.829865 
L 274.393225 101.281972 
L 274.482171 101.952958 
L 274.616045 105.095791 
L 274.712845 105.857195 
L 274.753194 104.850367 
L 275.191548 122.951124 
L 275.259728 121.736877 
L 275.466929 114.455689 
L 275.689989 110.560484 
L 275.895598 114.976057 
L 276.033176 130.548938 
L 276.187078 129.193125 
L 276.289921 128.217746 
L 276.479283 133.118806 
L 276.565522 134.186667 
L 276.755625 116.186363 
L 276.960639 122.0105 
L 277.063886 120.661983 
L 277.115185 123.047067 
L 277.271787 118.86769 
L 277.465389 125.810121 
L 277.535399 120.284594 
L 277.638982 122.009634 
L 277.745541 118.896888 
L 277.815645 106.858106 
L 277.895802 107.796166 
L 278.102521 112.396806 
L 278.207008 111.433299 
L 278.278095 116.748175 
L 278.326499 114.537199 
L 278.377794 113.74317 
L 278.669987 120.668792 
L 278.962661 106.21748 
L 279.032399 109.269839 
L 279.254493 103.037401 
L 279.324519 102.460495 
L 279.51399 106.825671 
L 279.634708 106.216661 
L 279.678352 103.775265 
L 279.791433 105.580613 
L 279.946042 111.330783 
L 280.019274 112.082096 
L 280.150308 107.938214 
L 280.167427 110.364432 
L 280.287476 107.486043 
L 280.331328 113.980828 
L 280.37362 113.385869 
L 280.598136 107.614929 
L 280.685688 111.193056 
L 280.736247 108.212297 
L 280.796017 112.412223 
L 280.876325 111.466672 
L 281.017071 115.729923 
L 281.044874 109.244007 
L 281.097085 110.471928 
L 281.186363 112.317155 
L 281.237141 111.584932 
L 281.303418 110.552695 
L 281.378809 105.770899 
L 281.441956 107.84638 
L 281.675059 101.145924 
L 281.806132 107.436841 
L 281.873982 102.202592 
L 282.182465 116.946525 
L 282.216238 115.241904 
L 282.389086 117.811638 
L 282.43962 112.988097 
L 282.526453 113.640366 
L 282.716504 116.234734 
L 282.837855 109.513631 
L 282.871175 110.682909 
L 283.026867 112.932566 
L 283.093864 111.788221 
L 283.217447 115.941821 
L 283.299353 118.664709 
L 283.508625 112.425726 
L 283.557791 116.795694 
L 283.591977 113.128049 
L 283.694754 115.721413 
L 283.780734 113.196717 
L 283.853109 112.742171 
L 283.919665 109.493358 
L 283.988038 109.878516 
L 284.004271 111.64053 
L 284.073322 110.70041 
L 284.297106 111.598481 
L 284.366279 108.504984 
L 284.417361 110.060193 
L 284.644058 117.161941 
L 284.727863 111.35106 
L 284.800663 111.581965 
L 284.884034 111.149477 
L 285.036967 111.988003 
L 285.155605 113.445039 
L 285.241816 117.107317 
L 285.310511 116.470871 
L 285.450154 114.29335 
L 285.466384 119.024671 
L 285.539131 117.161343 
L 285.608585 116.495089 
L 285.722757 109.758504 
L 285.773991 111.412237 
L 285.843684 110.653363 
L 285.936935 110.162841 
L 285.98634 113.486296 
L 286.054016 112.468091 
L 286.135944 110.373526 
L 286.342172 116.128666 
L 286.496449 123.415968 
L 286.628958 123.046233 
L 286.636508 128.552081 
L 286.702804 125.302548 
L 286.771209 123.837099 
L 286.880247 124.394221 
L 286.911198 120.491572 
L 286.977978 121.618262 
L 287.046214 122.920838 
L 287.271811 115.832307 
L 287.338157 115.727413 
L 287.40732 114.362336 
L 287.475821 115.724927 
L 287.547353 113.155904 
L 287.614594 117.252985 
L 287.682942 115.776488 
L 287.770847 116.459965 
L 287.905207 115.359751 
L 287.961346 118.865984 
L 287.974217 114.773321 
L 288.129171 101.423887 
L 288.266063 104.04183 
L 288.474782 108.473088 
L 288.609261 108.011406 
L 288.626895 105.570252 
L 288.695663 110.696524 
L 288.781302 111.930895 
L 288.975598 118.527042 
L 289.06491 116.116756 
L 289.389698 124.08335 
L 289.52575 124.931791 
L 289.750288 118.654073 
L 289.803473 117.953062 
L 289.853805 118.435798 
L 289.923865 118.374523 
L 290.082831 112.508803 
L 290.163029 112.405245 
L 290.180463 108.076309 
L 290.275751 109.861844 
L 290.404454 112.958001 
L 290.645458 100.814696 
L 290.735336 101.26297 
L 290.8072 101.172655 
L 290.824685 100.230774 
L 290.923928 102.759333 
L 290.975418 101.010093 
L 291.027194 101.601301 
L 291.173939 100.23063 
L 291.400005 108.374805 
L 291.529579 105.934545 
L 291.631333 105.270083 
L 291.767635 110.914758 
L 291.973698 105.577107 
L 292.042783 105.46677 
L 292.112872 101.336476 
L 292.249421 111.486071 
L 292.576273 116.389195 
L 292.730586 118.742567 
L 292.800093 119.527048 
L 292.836071 122.764947 
L 293.039573 114.053557 
L 293.127627 113.71279 
L 293.314786 109.517143 
L 293.452988 114.122988 
L 293.52105 113.536749 
L 293.589349 114.173756 
L 293.658407 117.124918 
L 293.728077 116.51099 
L 293.829499 112.257588 
L 293.880788 113.89852 
L 294.111068 107.625764 
L 294.191349 106.881554 
L 294.298952 111.078413 
L 294.488204 104.770749 
L 294.726508 115.219377 
L 294.792514 112.422444 
L 294.860605 107.22222 
L 294.981296 108.121673 
L 295.034874 107.344144 
L 295.103137 116.087652 
L 295.152636 115.705878 
L 295.341695 110.108954 
L 295.359198 114.724819 
L 295.430346 108.632346 
L 295.531006 110.117294 
L 295.659972 114.296764 
L 295.725748 114.211267 
L 295.801278 106.531368 
L 295.858283 111.004716 
L 296.030076 116.35921 
L 296.082778 115.701764 
L 296.218553 121.54013 
L 296.424738 118.345486 
L 296.493402 123.168636 
L 296.648423 117.965607 
L 296.709079 118.238627 
L 296.802324 117.991794 
L 296.956936 111.252659 
L 297.009025 111.03388 
L 297.180201 112.089505 
L 297.351762 101.884942 
L 297.507249 98.198265 
L 297.644653 102.138563 
L 297.713245 101.525781 
L 298.091282 113.550888 
L 298.143375 116.741724 
L 298.26552 116.816019 
L 298.40386 113.684207 
L 298.50367 110.106179 
L 298.61591 110.211942 
L 298.642731 111.320687 
L 298.693991 110.629663 
L 298.778873 110.193138 
L 298.864642 104.617138 
L 298.916155 106.141365 
L 299.260558 110.973794 
L 299.44965 112.553951 
L 299.51983 109.952409 
L 299.556186 112.689253 
L 299.672945 112.818865 
L 299.724293 111.395684 
L 299.776011 112.834489 
L 299.863781 114.113613 
L 300.050928 110.932069 
L 300.155341 111.500913 
L 300.189266 114.872623 
L 300.257625 113.538601 
L 300.360206 113.225739 
L 300.411474 115.344166 
L 300.499103 114.135275 
L 300.54878 115.011871 
L 300.635034 114.552789 
L 300.756514 108.364422 
L 300.77202 110.228619 
L 300.84543 109.505605 
L 300.945644 109.879779 
L 301.081282 115.045014 
L 301.270418 108.033094 
L 301.545304 120.746341 
L 301.671233 121.14023 
L 301.754133 120.104769 
L 301.827196 124.658174 
L 301.906279 123.180392 
L 301.975076 124.594668 
L 302.044813 119.882606 
L 302.121426 121.142973 
L 302.249651 122.664959 
L 302.335103 121.370482 
L 302.421973 117.921338 
L 302.473032 118.069698 
L 302.558513 116.968309 
L 302.631012 117.897082 
L 302.680192 116.97292 
L 302.747756 119.921198 
L 302.911509 111.490675 
L 303.040708 112.564519 
L 303.108749 115.316065 
L 303.195104 114.475794 
L 303.246272 114.666688 
L 303.331872 112.127835 
L 303.39679 113.520123 
L 303.465306 112.058871 
L 303.649335 115.775725 
L 303.691781 114.866577 
L 303.752678 115.317715 
L 303.960092 107.819698 
L 304.063336 110.765134 
L 304.116228 107.810919 
L 304.203477 110.732115 
L 304.243882 106.551302 
L 304.340148 107.700453 
L 304.391226 108.222893 
L 304.460211 105.494293 
L 304.736799 116.533735 
L 304.804666 114.606001 
L 304.889968 113.099204 
L 304.943538 115.241547 
L 305.099152 111.697478 
L 305.187437 111.17032 
L 305.302344 106.523619 
L 305.382271 108.40446 
L 305.440131 108.074082 
L 305.524763 109.024782 
L 305.595702 107.491019 
L 305.734133 109.28107 
L 305.803422 107.081382 
L 305.9564 109.939325 
L 306.092799 106.24277 
L 306.161327 106.257176 
L 306.231312 110.875585 
L 306.302106 107.849471 
L 306.36785 108.003591 
L 306.507227 110.756851 
L 306.664021 108.93097 
L 306.824336 111.043264 
L 306.832918 108.43295 
L 306.867595 109.382812 
L 306.961139 111.044868 
L 307.023435 115.569329 
L 307.085771 114.100484 
L 307.160537 111.198138 
L 307.232357 113.152447 
L 307.648124 100.074612 
L 307.711858 96.474237 
L 307.78517 97.245412 
L 308.364654 122.528817 
L 308.433319 124.193555 
L 308.519359 123.70716 
L 308.587244 123.571081 
L 308.86239 115.786046 
L 308.914861 116.704884 
L 309.000394 110.185957 
L 309.119977 109.788396 
L 309.178289 109.029904 
L 309.308354 98.957933 
L 309.566691 103.640134 
L 309.601023 99.514343 
L 309.652321 100.321899 
L 309.739065 105.246161 
L 309.844085 105.172633 
L 310.065774 110.367275 
L 310.234889 105.091822 
L 310.340805 111.06125 
L 310.407555 112.210015 
L 310.49407 116.655257 
L 310.563045 114.625997 
L 310.632459 114.695913 
L 310.750912 116.534 
L 310.871047 109.198159 
L 310.975142 113.712778 
L 311.129491 112.153195 
L 311.222673 109.580131 
L 311.30238 111.867866 
L 311.508288 124.766764 
L 311.613727 126.659258 
L 311.850683 120.468251 
L 311.992456 118.707068 
L 312.05754 113.280293 
L 312.126148 113.733514 
L 312.232476 106.427821 
L 312.333542 114.011185 
L 312.404201 113.476024 
L 312.471044 114.389562 
L 312.696818 118.590454 
L 312.79707 119.19288 
L 312.950328 124.005345 
L 312.990105 121.032525 
L 313.062628 124.689798 
L 313.122767 121.831909 
L 313.225436 123.690454 
L 313.259505 120.170623 
L 313.329203 122.179584 
L 313.484389 122.18569 
L 313.553622 125.442671 
L 313.586475 123.811753 
L 313.76436 119.537497 
L 313.82789 120.892408 
L 314.685631 103.164257 
L 314.754678 106.410871 
L 314.842862 106.166596 
L 314.947398 103.369113 
L 315.064236 96.512827 
L 315.312878 109.226583 
L 315.481997 111.025258 
L 315.623258 110.953193 
L 315.710561 116.218629 
L 315.74745 114.038772 
L 315.873683 110.780825 
L 315.889991 116.335911 
L 315.976345 110.030077 
L 316.029831 109.8796 
L 316.215754 115.04106 
L 316.284586 114.654442 
L 316.52908 125.23538 
L 316.816866 117.357616 
L 317.162881 95.580997 
L 317.38449 100.019805 
L 317.539547 100.744717 
L 317.677169 98.542765 
L 317.837085 108.522119 
L 317.889109 112.082326 
L 318.021075 105.355591 
L 318.106395 106.046897 
L 318.159354 105.143952 
L 318.451465 112.850724 
L 318.55304 110.866114 
L 318.608984 111.616388 
L 318.793739 115.479738 
L 318.899501 117.541708 
L 318.95096 114.986717 
L 319.089697 121.037801 
L 319.160714 119.221379 
L 319.87073 100.591839 
L 320.364939 115.433958 
L 320.380517 113.077104 
L 320.530685 118.677055 
L 320.569559 117.522491 
L 320.723566 111.764537 
L 320.792253 105.9784 
L 320.867487 108.055994 
L 320.930167 108.060581 
L 321.04029 106.458548 
L 321.15316 100.587691 
L 321.372832 96.951665 
L 321.496939 101.421932 
L 321.647215 95.43709 
L 322.166336 111.035399 
L 322.212366 108.265438 
L 322.365442 119.280795 
L 322.451857 117.738273 
L 322.503071 119.664189 
L 322.571479 119.414018 
L 322.674599 119.813746 
L 322.932589 125.156886 
L 323.054218 121.85206 
L 323.316583 130.525517 
L 323.502676 122.072216 
L 323.637981 124.526683 
L 323.860034 119.975497 
L 324.00249 114.127496 
L 324.084494 113.706485 
L 324.138163 117.028353 
L 324.292335 112.129758 
L 324.411743 111.320839 
L 324.53225 114.912993 
L 324.565985 112.571044 
L 324.622264 113.69147 
L 324.844577 125.701864 
L 325.101018 130.305249 
L 325.192336 127.50619 
L 325.324556 129.072503 
L 325.359028 123.566539 
L 325.467424 123.830861 
L 325.531607 122.46176 
L 325.702273 100.225808 
L 325.773641 105.712324 
L 325.856859 106.070858 
L 325.943417 102.057216 
L 325.994782 109.056151 
L 326.079826 109.01961 
L 326.114599 103.617538 
L 326.495941 111.647021 
L 326.579305 110.095248 
L 326.664321 111.184447 
L 326.698775 107.533954 
L 326.759823 110.717687 
L 326.974028 119.294392 
L 327.043437 120.814056 
L 327.043437 120.814056 
" clip-path="url(#p52b3f197a6)" style="fill: none; stroke: #ff0000; stroke-opacity: 0.5; stroke-width: 3; stroke-linecap: square"/>
   </g>
   <g id="patch_3">
    <path d="M 48.043438 139.32 
L 48.043438 0.72 
" style="fill: none; stroke: #000000; stroke-width: 0.8; stroke-linejoin: miter; stroke-linecap: square"/>
   </g>
   <g id="patch_4">
    <path d="M 327.043437 139.32 
L 327.043437 0.72 
" style="fill: none; stroke: #000000; stroke-width: 0.8; stroke-linejoin: miter; stroke-linecap: square"/>
   </g>
   <g id="patch_5">
    <path d="M 48.043438 139.32 
L 327.043437 139.32 
" style="fill: none; stroke: #000000; stroke-width: 0.8; stroke-linejoin: miter; stroke-linecap: square"/>
   </g>
   <g id="patch_6">
    <path d="M 48.043438 0.72 
L 327.043437 0.72 
" style="fill: none; stroke: #000000; stroke-width: 0.8; stroke-linejoin: miter; stroke-linecap: square"/>
   </g>
   <g id="legend_1">
    <g id="patch_7">
     <path d="M 246.274687 86.198125 
L 320.043437 86.198125 
Q 322.043437 86.198125 322.043437 84.198125 
L 322.043437 55.841875 
Q 322.043437 53.841875 320.043437 53.841875 
L 246.274687 53.841875 
Q 244.274687 53.841875 244.274687 55.841875 
L 244.274687 84.198125 
Q 244.274687 86.198125 246.274687 86.198125 
z
" style="fill: #ffffff; opacity: 0.8; stroke: #cccccc; stroke-linejoin: miter"/>
    </g>
    <g id="line2d_25">
     <path d="M 248.274687 61.940313 
L 258.274688 61.940313 
L 268.274688 61.940313 
" style="fill: none; stroke: #0000ff; stroke-opacity: 0.5; stroke-width: 3; stroke-linecap: square"/>
    </g>
    <g id="text_14">
     <!-- RNEA -->
     <g transform="translate(276.274688 65.440313) scale(0.1 -0.1)">
      <defs>
       <path id="DejaVuSans-52" d="M 2841 2188 
Q 3044 2119 3236 1894 
Q 3428 1669 3622 1275 
L 4263 0 
L 3584 0 
L 2988 1197 
Q 2756 1666 2539 1819 
Q 2322 1972 1947 1972 
L 1259 1972 
L 1259 0 
L 628 0 
L 628 4666 
L 2053 4666 
Q 2853 4666 3247 4331 
Q 3641 3997 3641 3322 
Q 3641 2881 3436 2590 
Q 3231 2300 2841 2188 
z
M 1259 4147 
L 1259 2491 
L 2053 2491 
Q 2509 2491 2742 2702 
Q 2975 2913 2975 3322 
Q 2975 3731 2742 3939 
Q 2509 4147 2053 4147 
L 1259 4147 
z
" transform="scale(0.015625)"/>
       <path id="DejaVuSans-45" d="M 628 4666 
L 3578 4666 
L 3578 4134 
L 1259 4134 
L 1259 2753 
L 3481 2753 
L 3481 2222 
L 1259 2222 
L 1259 531 
L 3634 531 
L 3634 0 
L 628 0 
L 628 4666 
z
" transform="scale(0.015625)"/>
       <path id="DejaVuSans-41" d="M 2188 4044 
L 1331 1722 
L 3047 1722 
L 2188 4044 
z
M 1831 4666 
L 2547 4666 
L 4325 0 
L 3669 0 
L 3244 1197 
L 1141 1197 
L 716 0 
L 50 0 
L 1831 4666 
z
" transform="scale(0.015625)"/>
      </defs>
      <use xlink:href="#DejaVuSans-52"/>
      <use xlink:href="#DejaVuSans-4e" x="69.482422"/>
      <use xlink:href="#DejaVuSans-45" x="144.287109"/>
      <use xlink:href="#DejaVuSans-41" x="207.470703"/>
     </g>
    </g>
    <g id="line2d_26">
     <path d="M 248.274687 76.618438 
L 258.274688 76.618438 
L 268.274688 76.618438 
" style="fill: none; stroke: #ff0000; stroke-opacity: 0.5; stroke-width: 3; stroke-linecap: square"/>
    </g>
    <g id="text_15">
     <!-- BURNEA -->
     <g transform="translate(276.274688 80.118438) scale(0.1 -0.1)">
      <defs>
       <path id="DejaVuSans-42" d="M 1259 2228 
L 1259 519 
L 2272 519 
Q 2781 519 3026 730 
Q 3272 941 3272 1375 
Q 3272 1813 3026 2020 
Q 2781 2228 2272 2228 
L 1259 2228 
z
M 1259 4147 
L 1259 2741 
L 2194 2741 
Q 2656 2741 2882 2914 
Q 3109 3088 3109 3444 
Q 3109 3797 2882 3972 
Q 2656 4147 2194 4147 
L 1259 4147 
z
M 628 4666 
L 2241 4666 
Q 2963 4666 3353 4366 
Q 3744 4066 3744 3513 
Q 3744 3084 3544 2831 
Q 3344 2578 2956 2516 
Q 3422 2416 3680 2098 
Q 3938 1781 3938 1306 
Q 3938 681 3513 340 
Q 3088 0 2303 0 
L 628 0 
L 628 4666 
z
" transform="scale(0.015625)"/>
       <path id="DejaVuSans-55" d="M 556 4666 
L 1191 4666 
L 1191 1831 
Q 1191 1081 1462 751 
Q 1734 422 2344 422 
Q 2950 422 3222 751 
Q 3494 1081 3494 1831 
L 3494 4666 
L 4128 4666 
L 4128 1753 
Q 4128 841 3676 375 
Q 3225 -91 2344 -91 
Q 1459 -91 1007 375 
Q 556 841 556 1753 
L 556 4666 
z
" transform="scale(0.015625)"/>
      </defs>
      <use xlink:href="#DejaVuSans-42"/>
      <use xlink:href="#DejaVuSans-55" x="68.603516"/>
      <use xlink:href="#DejaVuSans-52" x="141.796875"/>
      <use xlink:href="#DejaVuSans-4e" x="211.279297"/>
      <use xlink:href="#DejaVuSans-45" x="286.083984"/>
      <use xlink:href="#DejaVuSans-41" x="349.267578"/>
     </g>
    </g>
   </g>
  </g>
 </g>
 <defs>
  <clipPath id="p52b3f197a6">
   <rect x="48.043438" y="0.72" width="279" height="138.6"/>
  </clipPath>
 </defs>
</svg>
