<?xml version="1.0" encoding="utf-8" standalone="no"?>
<!DOCTYPE svg PUBLIC "-//W3C//DTD SVG 1.1//EN"
  "http://www.w3.org/Graphics/SVG/1.1/DTD/svg11.dtd">
<svg xmlns:xlink="http://www.w3.org/1999/xlink" width="355.43952pt" height="175.43952pt" viewBox="0 0 355.43952 175.43952" xmlns="http://www.w3.org/2000/svg" version="1.1">
 <metadata>
  <rdf:RDF xmlns:dc="http://purl.org/dc/elements/1.1/" xmlns:cc="http://creativecommons.org/ns#" xmlns:rdf="http://www.w3.org/1999/02/22-rdf-syntax-ns#">
   <cc:Work>
    <dc:type rdf:resource="http://purl.org/dc/dcmitype/StillImage"/>
    <dc:date>2023-09-09T18:29:30.778512</dc:date>
    <dc:format>image/svg+xml</dc:format>
    <dc:creator>
     <cc:Agent>
      <dc:title>Matplotlib v3.7.2, https://matplotlib.org/</dc:title>
     </cc:Agent>
    </dc:creator>
   </cc:Work>
  </rdf:RDF>
 </metadata>
 <defs>
  <style type="text/css">*{stroke-linejoin: round; stroke-linecap: butt}</style>
 </defs>
 <g id="figure_1">
  <g id="patch_1">
   <path d="M 0 175.43952 
L 355.43952 175.43952 
L 355.43952 0 
L 0 0 
L 0 175.43952 
z
" style="fill: none"/>
  </g>
  <g id="axes_1">
   <g id="patch_2">
    <path d="M 38.502813 148.36327 
L 354.71952 148.36327 
L 354.71952 0.72 
L 38.502813 0.72 
L 38.502813 148.36327 
z
" style="fill: none"/>
   </g>
   <g id="matplotlib.axis_1">
    <g id="xtick_1">
     <g id="line2d_1">
      <path d="M 38.502813 148.36327 
L 38.502813 0.72 
" clip-path="url(#p0c017a09fd)" style="fill: none; stroke-dasharray: 0.8,1.32; stroke-dashoffset: 0; stroke: #000000; stroke-opacity: 0.5; stroke-width: 0.8"/>
     </g>
     <g id="line2d_2">
      <defs>
       <path id="m87d23215cc" d="M 0 0 
L 0 3.5 
" style="stroke: #000000; stroke-width: 0.8"/>
      </defs>
      <g>
       <use xlink:href="#m87d23215cc" x="38.502813" y="148.36327" style="stroke: #000000; stroke-width: 0.8"/>
      </g>
     </g>
     <g id="text_1">
      <!-- 0 -->
      <g transform="translate(35.321563 162.961707) scale(0.1 -0.1)">
       <defs>
        <path id="DejaVuSans-30" d="M 2034 4250 
Q 1547 4250 1301 3770 
Q 1056 3291 1056 2328 
Q 1056 1369 1301 889 
Q 1547 409 2034 409 
Q 2525 409 2770 889 
Q 3016 1369 3016 2328 
Q 3016 3291 2770 3770 
Q 2525 4250 2034 4250 
z
M 2034 4750 
Q 2819 4750 3233 4129 
Q 3647 3509 3647 2328 
Q 3647 1150 3233 529 
Q 2819 -91 2034 -91 
Q 1250 -91 836 529 
Q 422 1150 422 2328 
Q 422 3509 836 4129 
Q 1250 4750 2034 4750 
z
" transform="scale(0.015625)"/>
       </defs>
       <use xlink:href="#DejaVuSans-30"/>
      </g>
     </g>
    </g>
    <g id="xtick_2">
     <g id="line2d_3">
      <path d="M 86.802252 148.36327 
L 86.802252 0.72 
" clip-path="url(#p0c017a09fd)" style="fill: none; stroke-dasharray: 0.8,1.32; stroke-dashoffset: 0; stroke: #000000; stroke-opacity: 0.5; stroke-width: 0.8"/>
     </g>
     <g id="line2d_4">
      <g>
       <use xlink:href="#m87d23215cc" x="86.802252" y="148.36327" style="stroke: #000000; stroke-width: 0.8"/>
      </g>
     </g>
     <g id="text_2">
      <!-- 5 -->
      <g transform="translate(83.621002 162.961707) scale(0.1 -0.1)">
       <defs>
        <path id="DejaVuSans-35" d="M 691 4666 
L 3169 4666 
L 3169 4134 
L 1269 4134 
L 1269 2991 
Q 1406 3038 1543 3061 
Q 1681 3084 1819 3084 
Q 2600 3084 3056 2656 
Q 3513 2228 3513 1497 
Q 3513 744 3044 326 
Q 2575 -91 1722 -91 
Q 1428 -91 1123 -41 
Q 819 9 494 109 
L 494 744 
Q 775 591 1075 516 
Q 1375 441 1709 441 
Q 2250 441 2565 725 
Q 2881 1009 2881 1497 
Q 2881 1984 2565 2268 
Q 2250 2553 1709 2553 
Q 1456 2553 1204 2497 
Q 953 2441 691 2322 
L 691 4666 
z
" transform="scale(0.015625)"/>
       </defs>
       <use xlink:href="#DejaVuSans-35"/>
      </g>
     </g>
    </g>
    <g id="xtick_3">
     <g id="line2d_5">
      <path d="M 135.101691 148.36327 
L 135.101691 0.72 
" clip-path="url(#p0c017a09fd)" style="fill: none; stroke-dasharray: 0.8,1.32; stroke-dashoffset: 0; stroke: #000000; stroke-opacity: 0.5; stroke-width: 0.8"/>
     </g>
     <g id="line2d_6">
      <g>
       <use xlink:href="#m87d23215cc" x="135.101691" y="148.36327" style="stroke: #000000; stroke-width: 0.8"/>
      </g>
     </g>
     <g id="text_3">
      <!-- 10 -->
      <g transform="translate(128.739191 162.961707) scale(0.1 -0.1)">
       <defs>
        <path id="DejaVuSans-31" d="M 794 531 
L 1825 531 
L 1825 4091 
L 703 3866 
L 703 4441 
L 1819 4666 
L 2450 4666 
L 2450 531 
L 3481 531 
L 3481 0 
L 794 0 
L 794 531 
z
" transform="scale(0.015625)"/>
       </defs>
       <use xlink:href="#DejaVuSans-31"/>
       <use xlink:href="#DejaVuSans-30" x="63.623047"/>
      </g>
     </g>
    </g>
    <g id="xtick_4">
     <g id="line2d_7">
      <path d="M 183.40113 148.36327 
L 183.40113 0.72 
" clip-path="url(#p0c017a09fd)" style="fill: none; stroke-dasharray: 0.8,1.32; stroke-dashoffset: 0; stroke: #000000; stroke-opacity: 0.5; stroke-width: 0.8"/>
     </g>
     <g id="line2d_8">
      <g>
       <use xlink:href="#m87d23215cc" x="183.40113" y="148.36327" style="stroke: #000000; stroke-width: 0.8"/>
      </g>
     </g>
     <g id="text_4">
      <!-- 15 -->
      <g transform="translate(177.03863 162.961707) scale(0.1 -0.1)">
       <use xlink:href="#DejaVuSans-31"/>
       <use xlink:href="#DejaVuSans-35" x="63.623047"/>
      </g>
     </g>
    </g>
    <g id="xtick_5">
     <g id="line2d_9">
      <path d="M 231.700569 148.36327 
L 231.700569 0.72 
" clip-path="url(#p0c017a09fd)" style="fill: none; stroke-dasharray: 0.8,1.32; stroke-dashoffset: 0; stroke: #000000; stroke-opacity: 0.5; stroke-width: 0.8"/>
     </g>
     <g id="line2d_10">
      <g>
       <use xlink:href="#m87d23215cc" x="231.700569" y="148.36327" style="stroke: #000000; stroke-width: 0.8"/>
      </g>
     </g>
     <g id="text_5">
      <!-- 20 -->
      <g transform="translate(225.338069 162.961707) scale(0.1 -0.1)">
       <defs>
        <path id="DejaVuSans-32" d="M 1228 531 
L 3431 531 
L 3431 0 
L 469 0 
L 469 531 
Q 828 903 1448 1529 
Q 2069 2156 2228 2338 
Q 2531 2678 2651 2914 
Q 2772 3150 2772 3378 
Q 2772 3750 2511 3984 
Q 2250 4219 1831 4219 
Q 1534 4219 1204 4116 
Q 875 4013 500 3803 
L 500 4441 
Q 881 4594 1212 4672 
Q 1544 4750 1819 4750 
Q 2544 4750 2975 4387 
Q 3406 4025 3406 3419 
Q 3406 3131 3298 2873 
Q 3191 2616 2906 2266 
Q 2828 2175 2409 1742 
Q 1991 1309 1228 531 
z
" transform="scale(0.015625)"/>
       </defs>
       <use xlink:href="#DejaVuSans-32"/>
       <use xlink:href="#DejaVuSans-30" x="63.623047"/>
      </g>
     </g>
    </g>
    <g id="xtick_6">
     <g id="line2d_11">
      <path d="M 280.000008 148.36327 
L 280.000008 0.72 
" clip-path="url(#p0c017a09fd)" style="fill: none; stroke-dasharray: 0.8,1.32; stroke-dashoffset: 0; stroke: #000000; stroke-opacity: 0.5; stroke-width: 0.8"/>
     </g>
     <g id="line2d_12">
      <g>
       <use xlink:href="#m87d23215cc" x="280.000008" y="148.36327" style="stroke: #000000; stroke-width: 0.8"/>
      </g>
     </g>
     <g id="text_6">
      <!-- 25 -->
      <g transform="translate(273.637508 162.961707) scale(0.1 -0.1)">
       <use xlink:href="#DejaVuSans-32"/>
       <use xlink:href="#DejaVuSans-35" x="63.623047"/>
      </g>
     </g>
    </g>
    <g id="xtick_7">
     <g id="line2d_13">
      <path d="M 328.299448 148.36327 
L 328.299448 0.72 
" clip-path="url(#p0c017a09fd)" style="fill: none; stroke-dasharray: 0.8,1.32; stroke-dashoffset: 0; stroke: #000000; stroke-opacity: 0.5; stroke-width: 0.8"/>
     </g>
     <g id="line2d_14">
      <g>
       <use xlink:href="#m87d23215cc" x="328.299448" y="148.36327" style="stroke: #000000; stroke-width: 0.8"/>
      </g>
     </g>
     <g id="text_7">
      <!-- 30 -->
      <g transform="translate(321.936948 162.961707) scale(0.1 -0.1)">
       <defs>
        <path id="DejaVuSans-33" d="M 2597 2516 
Q 3050 2419 3304 2112 
Q 3559 1806 3559 1356 
Q 3559 666 3084 287 
Q 2609 -91 1734 -91 
Q 1441 -91 1130 -33 
Q 819 25 488 141 
L 488 750 
Q 750 597 1062 519 
Q 1375 441 1716 441 
Q 2309 441 2620 675 
Q 2931 909 2931 1356 
Q 2931 1769 2642 2001 
Q 2353 2234 1838 2234 
L 1294 2234 
L 1294 2753 
L 1863 2753 
Q 2328 2753 2575 2939 
Q 2822 3125 2822 3475 
Q 2822 3834 2567 4026 
Q 2313 4219 1838 4219 
Q 1578 4219 1281 4162 
Q 984 4106 628 3988 
L 628 4550 
Q 988 4650 1302 4700 
Q 1616 4750 1894 4750 
Q 2613 4750 3031 4423 
Q 3450 4097 3450 3541 
Q 3450 3153 3228 2886 
Q 3006 2619 2597 2516 
z
" transform="scale(0.015625)"/>
       </defs>
       <use xlink:href="#DejaVuSans-33"/>
       <use xlink:href="#DejaVuSans-30" x="63.623047"/>
      </g>
     </g>
    </g>
    <g id="text_8">
     <!-- Zeit [s] -->
     <g transform="translate(178.665073 172.639832) scale(0.1 -0.1)">
      <defs>
       <path id="DejaVuSans-5a" d="M 359 4666 
L 4025 4666 
L 4025 4184 
L 1075 531 
L 4097 531 
L 4097 0 
L 288 0 
L 288 481 
L 3238 4134 
L 359 4134 
L 359 4666 
z
" transform="scale(0.015625)"/>
       <path id="DejaVuSans-65" d="M 3597 1894 
L 3597 1613 
L 953 1613 
Q 991 1019 1311 708 
Q 1631 397 2203 397 
Q 2534 397 2845 478 
Q 3156 559 3463 722 
L 3463 178 
Q 3153 47 2828 -22 
Q 2503 -91 2169 -91 
Q 1331 -91 842 396 
Q 353 884 353 1716 
Q 353 2575 817 3079 
Q 1281 3584 2069 3584 
Q 2775 3584 3186 3129 
Q 3597 2675 3597 1894 
z
M 3022 2063 
Q 3016 2534 2758 2815 
Q 2500 3097 2075 3097 
Q 1594 3097 1305 2825 
Q 1016 2553 972 2059 
L 3022 2063 
z
" transform="scale(0.015625)"/>
       <path id="DejaVuSans-69" d="M 603 3500 
L 1178 3500 
L 1178 0 
L 603 0 
L 603 3500 
z
M 603 4863 
L 1178 4863 
L 1178 4134 
L 603 4134 
L 603 4863 
z
" transform="scale(0.015625)"/>
       <path id="DejaVuSans-74" d="M 1172 4494 
L 1172 3500 
L 2356 3500 
L 2356 3053 
L 1172 3053 
L 1172 1153 
Q 1172 725 1289 603 
Q 1406 481 1766 481 
L 2356 481 
L 2356 0 
L 1766 0 
Q 1100 0 847 248 
Q 594 497 594 1153 
L 594 3053 
L 172 3053 
L 172 3500 
L 594 3500 
L 594 4494 
L 1172 4494 
z
" transform="scale(0.015625)"/>
       <path id="DejaVuSans-20" transform="scale(0.015625)"/>
       <path id="DejaVuSans-5b" d="M 550 4863 
L 1875 4863 
L 1875 4416 
L 1125 4416 
L 1125 -397 
L 1875 -397 
L 1875 -844 
L 550 -844 
L 550 4863 
z
" transform="scale(0.015625)"/>
       <path id="DejaVuSans-73" d="M 2834 3397 
L 2834 2853 
Q 2591 2978 2328 3040 
Q 2066 3103 1784 3103 
Q 1356 3103 1142 2972 
Q 928 2841 928 2578 
Q 928 2378 1081 2264 
Q 1234 2150 1697 2047 
L 1894 2003 
Q 2506 1872 2764 1633 
Q 3022 1394 3022 966 
Q 3022 478 2636 193 
Q 2250 -91 1575 -91 
Q 1294 -91 989 -36 
Q 684 19 347 128 
L 347 722 
Q 666 556 975 473 
Q 1284 391 1588 391 
Q 1994 391 2212 530 
Q 2431 669 2431 922 
Q 2431 1156 2273 1281 
Q 2116 1406 1581 1522 
L 1381 1569 
Q 847 1681 609 1914 
Q 372 2147 372 2553 
Q 372 3047 722 3315 
Q 1072 3584 1716 3584 
Q 2034 3584 2315 3537 
Q 2597 3491 2834 3397 
z
" transform="scale(0.015625)"/>
       <path id="DejaVuSans-5d" d="M 1947 4863 
L 1947 -844 
L 622 -844 
L 622 -397 
L 1369 -397 
L 1369 4416 
L 622 4416 
L 622 4863 
L 1947 4863 
z
" transform="scale(0.015625)"/>
      </defs>
      <use xlink:href="#DejaVuSans-5a"/>
      <use xlink:href="#DejaVuSans-65" x="68.505859"/>
      <use xlink:href="#DejaVuSans-69" x="130.029297"/>
      <use xlink:href="#DejaVuSans-74" x="157.8125"/>
      <use xlink:href="#DejaVuSans-20" x="197.021484"/>
      <use xlink:href="#DejaVuSans-5b" x="228.808594"/>
      <use xlink:href="#DejaVuSans-73" x="267.822266"/>
      <use xlink:href="#DejaVuSans-5d" x="319.921875"/>
     </g>
    </g>
   </g>
   <g id="matplotlib.axis_2">
    <g id="ytick_1">
     <g id="line2d_15">
      <path d="M 38.502813 147.145706 
L 354.71952 147.145706 
" clip-path="url(#p0c017a09fd)" style="fill: none; stroke-dasharray: 0.8,1.32; stroke-dashoffset: 0; stroke: #000000; stroke-opacity: 0.5; stroke-width: 0.8"/>
     </g>
     <g id="line2d_16">
      <defs>
       <path id="mabd0adfb5c" d="M 0 0 
L -3.5 0 
" style="stroke: #000000; stroke-width: 0.8"/>
      </defs>
      <g>
       <use xlink:href="#mabd0adfb5c" x="38.502813" y="147.145706" style="stroke: #000000; stroke-width: 0.8"/>
      </g>
     </g>
     <g id="text_9">
      <!-- −35 -->
      <g transform="translate(10.398125 150.944925) scale(0.1 -0.1)">
       <defs>
        <path id="DejaVuSans-2212" d="M 678 2272 
L 4684 2272 
L 4684 1741 
L 678 1741 
L 678 2272 
z
" transform="scale(0.015625)"/>
       </defs>
       <use xlink:href="#DejaVuSans-2212"/>
       <use xlink:href="#DejaVuSans-33" x="83.789062"/>
       <use xlink:href="#DejaVuSans-35" x="147.412109"/>
      </g>
     </g>
    </g>
    <g id="ytick_2">
     <g id="line2d_17">
      <path d="M 38.502813 125.496651 
L 354.71952 125.496651 
" clip-path="url(#p0c017a09fd)" style="fill: none; stroke-dasharray: 0.8,1.32; stroke-dashoffset: 0; stroke: #000000; stroke-opacity: 0.5; stroke-width: 0.8"/>
     </g>
     <g id="line2d_18">
      <g>
       <use xlink:href="#mabd0adfb5c" x="38.502813" y="125.496651" style="stroke: #000000; stroke-width: 0.8"/>
      </g>
     </g>
     <g id="text_10">
      <!-- −30 -->
      <g transform="translate(10.398125 129.29587) scale(0.1 -0.1)">
       <use xlink:href="#DejaVuSans-2212"/>
       <use xlink:href="#DejaVuSans-33" x="83.789062"/>
       <use xlink:href="#DejaVuSans-30" x="147.412109"/>
      </g>
     </g>
    </g>
    <g id="ytick_3">
     <g id="line2d_19">
      <path d="M 38.502813 103.847596 
L 354.71952 103.847596 
" clip-path="url(#p0c017a09fd)" style="fill: none; stroke-dasharray: 0.8,1.32; stroke-dashoffset: 0; stroke: #000000; stroke-opacity: 0.5; stroke-width: 0.8"/>
     </g>
     <g id="line2d_20">
      <g>
       <use xlink:href="#mabd0adfb5c" x="38.502813" y="103.847596" style="stroke: #000000; stroke-width: 0.8"/>
      </g>
     </g>
     <g id="text_11">
      <!-- −25 -->
      <g transform="translate(10.398125 107.646815) scale(0.1 -0.1)">
       <use xlink:href="#DejaVuSans-2212"/>
       <use xlink:href="#DejaVuSans-32" x="83.789062"/>
       <use xlink:href="#DejaVuSans-35" x="147.412109"/>
      </g>
     </g>
    </g>
    <g id="ytick_4">
     <g id="line2d_21">
      <path d="M 38.502813 82.198541 
L 354.71952 82.198541 
" clip-path="url(#p0c017a09fd)" style="fill: none; stroke-dasharray: 0.8,1.32; stroke-dashoffset: 0; stroke: #000000; stroke-opacity: 0.5; stroke-width: 0.8"/>
     </g>
     <g id="line2d_22">
      <g>
       <use xlink:href="#mabd0adfb5c" x="38.502813" y="82.198541" style="stroke: #000000; stroke-width: 0.8"/>
      </g>
     </g>
     <g id="text_12">
      <!-- −20 -->
      <g transform="translate(10.398125 85.997759) scale(0.1 -0.1)">
       <use xlink:href="#DejaVuSans-2212"/>
       <use xlink:href="#DejaVuSans-32" x="83.789062"/>
       <use xlink:href="#DejaVuSans-30" x="147.412109"/>
      </g>
     </g>
    </g>
    <g id="ytick_5">
     <g id="line2d_23">
      <path d="M 38.502813 60.549485 
L 354.71952 60.549485 
" clip-path="url(#p0c017a09fd)" style="fill: none; stroke-dasharray: 0.8,1.32; stroke-dashoffset: 0; stroke: #000000; stroke-opacity: 0.5; stroke-width: 0.8"/>
     </g>
     <g id="line2d_24">
      <g>
       <use xlink:href="#mabd0adfb5c" x="38.502813" y="60.549485" style="stroke: #000000; stroke-width: 0.8"/>
      </g>
     </g>
     <g id="text_13">
      <!-- −15 -->
      <g transform="translate(10.398125 64.348704) scale(0.1 -0.1)">
       <use xlink:href="#DejaVuSans-2212"/>
       <use xlink:href="#DejaVuSans-31" x="83.789062"/>
       <use xlink:href="#DejaVuSans-35" x="147.412109"/>
      </g>
     </g>
    </g>
    <g id="ytick_6">
     <g id="line2d_25">
      <path d="M 38.502813 38.90043 
L 354.71952 38.90043 
" clip-path="url(#p0c017a09fd)" style="fill: none; stroke-dasharray: 0.8,1.32; stroke-dashoffset: 0; stroke: #000000; stroke-opacity: 0.5; stroke-width: 0.8"/>
     </g>
     <g id="line2d_26">
      <g>
       <use xlink:href="#mabd0adfb5c" x="38.502813" y="38.90043" style="stroke: #000000; stroke-width: 0.8"/>
      </g>
     </g>
     <g id="text_14">
      <!-- −10 -->
      <g transform="translate(10.398125 42.699649) scale(0.1 -0.1)">
       <use xlink:href="#DejaVuSans-2212"/>
       <use xlink:href="#DejaVuSans-31" x="83.789062"/>
       <use xlink:href="#DejaVuSans-30" x="147.412109"/>
      </g>
     </g>
    </g>
    <g id="ytick_7">
     <g id="line2d_27">
      <path d="M 38.502813 17.251375 
L 354.71952 17.251375 
" clip-path="url(#p0c017a09fd)" style="fill: none; stroke-dasharray: 0.8,1.32; stroke-dashoffset: 0; stroke: #000000; stroke-opacity: 0.5; stroke-width: 0.8"/>
     </g>
     <g id="line2d_28">
      <g>
       <use xlink:href="#mabd0adfb5c" x="38.502813" y="17.251375" style="stroke: #000000; stroke-width: 0.8"/>
      </g>
     </g>
     <g id="text_15">
      <!-- −5 -->
      <g transform="translate(16.760625 21.050594) scale(0.1 -0.1)">
       <use xlink:href="#DejaVuSans-2212"/>
       <use xlink:href="#DejaVuSans-35" x="83.789062"/>
      </g>
     </g>
    </g>
    <g id="text_16">
     <!-- Drehmoment [Nm] -->
     <g transform="translate(8.318437 121.686947) rotate(-90) scale(0.1 -0.1)">
      <defs>
       <path id="DejaVuSans-44" d="M 1259 4147 
L 1259 519 
L 2022 519 
Q 2988 519 3436 956 
Q 3884 1394 3884 2338 
Q 3884 3275 3436 3711 
Q 2988 4147 2022 4147 
L 1259 4147 
z
M 628 4666 
L 1925 4666 
Q 3281 4666 3915 4102 
Q 4550 3538 4550 2338 
Q 4550 1131 3912 565 
Q 3275 0 1925 0 
L 628 0 
L 628 4666 
z
" transform="scale(0.015625)"/>
       <path id="DejaVuSans-72" d="M 2631 2963 
Q 2534 3019 2420 3045 
Q 2306 3072 2169 3072 
Q 1681 3072 1420 2755 
Q 1159 2438 1159 1844 
L 1159 0 
L 581 0 
L 581 3500 
L 1159 3500 
L 1159 2956 
Q 1341 3275 1631 3429 
Q 1922 3584 2338 3584 
Q 2397 3584 2469 3576 
Q 2541 3569 2628 3553 
L 2631 2963 
z
" transform="scale(0.015625)"/>
       <path id="DejaVuSans-68" d="M 3513 2113 
L 3513 0 
L 2938 0 
L 2938 2094 
Q 2938 2591 2744 2837 
Q 2550 3084 2163 3084 
Q 1697 3084 1428 2787 
Q 1159 2491 1159 1978 
L 1159 0 
L 581 0 
L 581 4863 
L 1159 4863 
L 1159 2956 
Q 1366 3272 1645 3428 
Q 1925 3584 2291 3584 
Q 2894 3584 3203 3211 
Q 3513 2838 3513 2113 
z
" transform="scale(0.015625)"/>
       <path id="DejaVuSans-6d" d="M 3328 2828 
Q 3544 3216 3844 3400 
Q 4144 3584 4550 3584 
Q 5097 3584 5394 3201 
Q 5691 2819 5691 2113 
L 5691 0 
L 5113 0 
L 5113 2094 
Q 5113 2597 4934 2840 
Q 4756 3084 4391 3084 
Q 3944 3084 3684 2787 
Q 3425 2491 3425 1978 
L 3425 0 
L 2847 0 
L 2847 2094 
Q 2847 2600 2669 2842 
Q 2491 3084 2119 3084 
Q 1678 3084 1418 2786 
Q 1159 2488 1159 1978 
L 1159 0 
L 581 0 
L 581 3500 
L 1159 3500 
L 1159 2956 
Q 1356 3278 1631 3431 
Q 1906 3584 2284 3584 
Q 2666 3584 2933 3390 
Q 3200 3197 3328 2828 
z
" transform="scale(0.015625)"/>
       <path id="DejaVuSans-6f" d="M 1959 3097 
Q 1497 3097 1228 2736 
Q 959 2375 959 1747 
Q 959 1119 1226 758 
Q 1494 397 1959 397 
Q 2419 397 2687 759 
Q 2956 1122 2956 1747 
Q 2956 2369 2687 2733 
Q 2419 3097 1959 3097 
z
M 1959 3584 
Q 2709 3584 3137 3096 
Q 3566 2609 3566 1747 
Q 3566 888 3137 398 
Q 2709 -91 1959 -91 
Q 1206 -91 779 398 
Q 353 888 353 1747 
Q 353 2609 779 3096 
Q 1206 3584 1959 3584 
z
" transform="scale(0.015625)"/>
       <path id="DejaVuSans-6e" d="M 3513 2113 
L 3513 0 
L 2938 0 
L 2938 2094 
Q 2938 2591 2744 2837 
Q 2550 3084 2163 3084 
Q 1697 3084 1428 2787 
Q 1159 2491 1159 1978 
L 1159 0 
L 581 0 
L 581 3500 
L 1159 3500 
L 1159 2956 
Q 1366 3272 1645 3428 
Q 1925 3584 2291 3584 
Q 2894 3584 3203 3211 
Q 3513 2838 3513 2113 
z
" transform="scale(0.015625)"/>
       <path id="DejaVuSans-4e" d="M 628 4666 
L 1478 4666 
L 3547 763 
L 3547 4666 
L 4159 4666 
L 4159 0 
L 3309 0 
L 1241 3903 
L 1241 0 
L 628 0 
L 628 4666 
z
" transform="scale(0.015625)"/>
      </defs>
      <use xlink:href="#DejaVuSans-44"/>
      <use xlink:href="#DejaVuSans-72" x="77.001953"/>
      <use xlink:href="#DejaVuSans-65" x="115.865234"/>
      <use xlink:href="#DejaVuSans-68" x="177.388672"/>
      <use xlink:href="#DejaVuSans-6d" x="240.767578"/>
      <use xlink:href="#DejaVuSans-6f" x="338.179688"/>
      <use xlink:href="#DejaVuSans-6d" x="399.361328"/>
      <use xlink:href="#DejaVuSans-65" x="496.773438"/>
      <use xlink:href="#DejaVuSans-6e" x="558.296875"/>
      <use xlink:href="#DejaVuSans-74" x="621.675781"/>
      <use xlink:href="#DejaVuSans-20" x="660.884766"/>
      <use xlink:href="#DejaVuSans-5b" x="692.671875"/>
      <use xlink:href="#DejaVuSans-4e" x="731.685547"/>
      <use xlink:href="#DejaVuSans-6d" x="806.490234"/>
      <use xlink:href="#DejaVuSans-5d" x="903.902344"/>
     </g>
    </g>
   </g>
   <g id="line2d_29">
    <path d="M 38.502813 4.101144 
L 354.71952 4.101144 
L 354.71952 4.101144 
" clip-path="url(#p0c017a09fd)" style="fill: none; stroke: #0000ff; stroke-opacity: 0.5; stroke-width: 2.1; stroke-linecap: square"/>
   </g>
   <g id="line2d_30">
    <path d="M 38.502813 138.633095 
L 38.737821 141.480753 
L 38.840937 141.120303 
L 38.858073 139.410144 
L 38.915701 140.065807 
L 38.996 139.877749 
L 39.052382 137.184016 
L 39.128177 137.508262 
L 39.206546 138.201461 
L 39.30483 137.931483 
L 39.389044 138.432312 
L 39.478749 136.509484 
L 39.536905 136.615676 
L 39.692784 138.159586 
L 39.77117 137.471533 
L 39.888112 138.221099 
L 40.02409 136.806627 
L 40.10147 138.107949 
L 40.199037 137.788079 
L 40.335137 138.369365 
L 40.529075 136.142636 
L 40.84313 138.959806 
L 40.919353 138.323796 
L 40.997532 139.198688 
L 41.13366 138.852562 
L 41.156026 137.967135 
L 41.23112 138.771355 
L 41.465595 140.136648 
L 41.679199 138.696814 
L 41.717349 137.986924 
L 41.795161 138.131145 
L 42.108148 141.805126 
L 42.269585 139.462782 
L 42.351038 139.529502 
L 42.441052 141.059878 
L 42.503353 140.820646 
L 42.597351 141.054062 
L 42.753201 140.69244 
L 42.916489 138.35958 
L 42.991752 139.344822 
L 43.083492 139.131058 
L 43.18301 139.177764 
L 43.240757 138.923683 
L 43.317853 139.510405 
L 43.472821 138.113928 
L 43.635655 139.564879 
L 43.806811 138.536296 
L 43.884713 139.364186 
L 44.119002 136.570331 
L 44.274776 137.653638 
L 44.354134 137.069774 
L 44.434952 137.11906 
L 44.528509 137.642873 
L 44.606389 137.2388 
L 44.684906 136.104516 
L 44.762357 136.305691 
L 44.840841 137.488445 
L 44.930061 137.44841 
L 44.999731 136.707933 
L 45.171094 137.275717 
L 45.249835 136.961871 
L 45.341968 137.008106 
L 45.406183 137.871876 
L 45.48531 137.489297 
L 45.561861 137.507088 
L 45.717658 138.05817 
L 45.814368 137.598488 
L 45.971182 136.075965 
L 46.382204 139.137448 
L 46.457496 138.298978 
L 46.61648 140.228937 
L 46.693854 140.102056 
L 46.771375 140.0791 
L 46.927131 139.127788 
L 47.044084 137.607182 
L 47.122118 137.967829 
L 47.219127 137.700808 
L 47.336133 139.837452 
L 47.472233 138.432022 
L 47.744031 143.364651 
L 47.822312 142.231166 
L 47.900331 141.790514 
L 48.05831 138.486944 
L 48.217857 140.421481 
L 48.298911 140.097079 
L 48.545518 137.745967 
L 48.703368 137.676969 
L 48.876971 139.076388 
L 48.959534 139.231955 
L 49.039076 138.754715 
L 49.291612 139.7555 
L 49.431728 139.635479 
L 49.608852 137.86035 
L 49.674902 138.35242 
L 49.754536 138.331098 
L 49.859175 138.338157 
L 49.930322 138.572918 
L 50.02602 139.445229 
L 50.193099 136.349235 
L 50.2049 136.242101 
L 50.275555 136.43088 
L 50.362067 137.987274 
L 50.497817 139.190484 
L 50.576849 139.277483 
L 50.673698 139.111016 
L 50.82926 137.802732 
L 51.063053 140.5851 
L 51.220907 138.495999 
L 51.297247 138.016365 
L 51.537186 140.169678 
L 51.647206 139.604114 
L 51.746133 139.664412 
L 51.843803 137.465981 
L 52.029296 140.252066 
L 52.095767 140.155119 
L 52.357167 138.154686 
L 52.756722 142.017242 
L 52.815409 141.831741 
L 53.050568 141.374608 
L 53.204722 139.80231 
L 53.282349 140.284633 
L 53.380404 139.242064 
L 53.61403 135.268272 
L 53.710874 135.534894 
L 53.910513 137.846031 
L 53.94422 139.109351 
L 54.022606 139.088382 
L 54.100343 138.761255 
L 54.197836 139.253338 
L 54.431415 141.599501 
L 54.508782 141.340394 
L 54.878581 137.447953 
L 54.983312 139.596745 
L 55.072484 138.548942 
L 55.583551 142.672804 
L 55.638839 142.195208 
L 55.716714 140.271157 
L 55.807566 140.375888 
L 55.872646 141.818694 
L 56.066612 141.27608 
L 56.125612 141.529012 
L 56.280685 140.008466 
L 56.554033 142.162225 
L 56.613092 141.687297 
L 56.690673 139.986901 
L 56.76844 140.345553 
L 56.885079 140.407058 
L 57.060348 141.389253 
L 57.464592 140.342422 
L 57.489055 140.511794 
L 57.567603 140.852418 
L 57.665314 140.68547 
L 57.862434 141.870994 
L 57.902949 141.842406 
L 58.078297 139.620627 
L 58.228503 140.768593 
L 58.429805 139.998678 
L 58.473649 140.694143 
L 58.55121 140.40254 
L 58.640081 140.602171 
L 58.779144 140.588185 
L 58.815468 140.265544 
L 58.836023 141.059894 
L 58.912452 140.942253 
L 59.003179 139.937454 
L 59.021962 140.367076 
L 59.100046 139.858899 
L 59.193016 140.56792 
L 59.282441 140.518552 
L 59.397292 140.020489 
L 59.509224 140.034937 
L 59.590613 139.735663 
L 59.74555 140.809249 
L 59.86162 139.518081 
L 59.900723 141.649746 
L 59.979132 141.226368 
L 60.232021 135.54308 
L 60.309421 136.965552 
L 60.46542 139.213724 
L 60.58206 138.57384 
L 60.644476 140.488025 
L 60.719593 139.785139 
L 60.917284 138.484708 
L 61.055255 139.673654 
L 61.132976 140.437304 
L 61.189343 140.392094 
L 61.384283 140.033213 
L 61.462262 138.726442 
L 61.521787 138.865409 
L 61.600594 139.697787 
L 61.741816 139.963399 
L 61.832855 141.243513 
L 62.007419 140.1693 
L 62.184327 138.42433 
L 62.262531 138.910448 
L 62.40228 136.999132 
L 62.495907 136.952317 
L 62.729615 135.521683 
L 62.748243 135.871231 
L 63.585278 139.050245 
L 64.039448 139.325059 
L 64.463966 139.069927 
L 64.481168 138.100498 
L 64.577686 138.730465 
L 64.656419 139.5366 
L 64.812983 137.678718 
L 65.104529 143.128172 
L 65.125554 141.883898 
L 65.358674 141.156078 
L 65.376968 140.03244 
L 65.512915 139.27233 
L 65.651902 141.364951 
L 65.922396 138.664229 
L 66.101048 141.201719 
L 66.183738 141.640252 
L 66.331997 141.022646 
L 66.526815 136.414275 
L 66.585711 136.626791 
L 66.681499 138.065373 
L 66.865097 135.973344 
L 66.973917 136.008132 
L 67.071161 138.16385 
L 67.151224 138.899308 
L 67.266706 138.852869 
L 67.384221 137.554047 
L 67.519321 136.482698 
L 67.733739 137.843581 
L 67.836688 137.167267 
L 67.889406 137.539303 
L 67.968296 139.146538 
L 68.041385 138.41596 
L 68.158368 138.171946 
L 68.430956 139.462242 
L 68.509219 139.377328 
L 68.683744 138.628267 
L 68.761921 138.747892 
L 68.936731 139.491686 
L 69.01559 139.855461 
L 69.073631 139.413257 
L 69.248114 140.119129 
L 69.326322 139.964081 
L 69.425739 139.853471 
L 69.57887 138.409879 
L 69.735566 139.717417 
L 69.871016 138.925695 
L 70.047294 135.550578 
L 70.145351 135.826577 
L 70.360705 137.903367 
L 70.534667 136.607506 
L 70.690068 140.170468 
L 70.825387 140.743348 
L 70.844679 141.473338 
L 70.944059 140.664633 
L 71.110011 140.359603 
L 71.110337 140.725988 
L 71.205726 139.191532 
L 71.574704 142.343797 
L 71.767818 144.982126 
L 71.845828 144.916111 
L 72.137103 143.125378 
L 72.546052 135.748148 
L 72.781154 136.812899 
L 72.935973 136.261637 
L 73.031259 137.140052 
L 73.113881 137.105967 
L 73.188496 137.548718 
L 73.343539 140.417956 
L 73.831297 142.459421 
L 73.908592 143.157506 
L 73.98731 143.119872 
L 74.163115 139.663972 
L 74.280722 139.158346 
L 74.299231 140.048503 
L 74.41501 140.08497 
L 74.473795 139.560775 
L 74.552564 139.926106 
L 74.629568 138.68783 
L 74.784991 138.023167 
L 74.903278 140.897706 
L 75.21404 138.687165 
L 75.271707 139.266292 
L 75.409155 139.506648 
L 75.526898 140.408921 
L 75.641748 139.276548 
L 75.720392 139.477738 
L 75.778208 140.374378 
L 75.860005 140.076336 
L 75.93147 139.256902 
L 76.078872 142.159705 
L 76.257972 140.621089 
L 76.523977 137.304717 
L 76.640219 138.380864 
L 76.737905 138.224782 
L 76.852545 136.278957 
L 76.89764 133.504295 
L 76.972381 134.424518 
L 77.050658 135.649196 
L 77.129726 135.60585 
L 77.211697 134.556958 
L 77.287041 135.403447 
L 77.538345 133.52451 
L 77.752648 133.554303 
L 77.771767 136.510776 
L 77.850535 134.629798 
L 77.986817 135.961566 
L 78.103495 138.403225 
L 78.181036 138.451074 
L 78.329259 138.695624 
L 78.415998 141.385284 
L 78.491799 139.932854 
L 78.511122 140.116947 
L 78.636902 140.938753 
L 78.672419 142.361164 
L 78.823574 140.352854 
L 78.902841 139.190163 
L 79.062041 139.260939 
L 79.135215 139.438016 
L 79.350679 136.49052 
L 79.624434 135.732601 
L 79.800387 136.833882 
L 79.900322 136.608056 
L 79.944063 135.890183 
L 80.053778 136.725121 
L 80.112411 138.177631 
L 80.259097 137.757557 
L 80.423459 135.786498 
L 80.442686 136.388315 
L 80.569401 136.521712 
L 80.611767 136.344425 
L 81.008805 132.189677 
L 81.480856 138.694291 
L 81.577071 138.769389 
L 81.655048 139.075612 
L 81.717746 139.892306 
L 81.81032 139.867851 
L 81.966286 141.626864 
L 82.043815 141.290266 
L 82.283178 139.398154 
L 82.298408 141.646752 
L 82.376591 139.671361 
L 82.435902 139.578811 
L 82.553561 138.861337 
L 82.610779 139.935101 
L 82.709546 139.151343 
L 82.786423 137.481378 
L 82.848394 137.708472 
L 82.94422 139.76089 
L 82.9608 138.463145 
L 83.097711 137.33786 
L 83.33323 139.885955 
L 83.528432 137.908674 
L 83.666775 139.182663 
L 83.722526 137.75984 
L 83.89917 138.791419 
L 83.996056 137.700707 
L 84.078013 137.90969 
L 84.132762 137.991245 
L 84.288983 139.592609 
L 84.429281 139.476236 
L 84.448431 139.22156 
L 84.548809 140.139126 
L 84.624035 140.012623 
L 84.703975 139.62973 
L 84.93464 141.361654 
L 85.422051 137.920783 
L 85.504627 138.130894 
L 85.57801 138.699499 
L 85.675468 138.484941 
L 85.83024 136.899437 
L 85.915204 137.592957 
L 86.151362 140.529734 
L 86.303823 141.312803 
L 86.456293 138.621951 
L 86.534009 138.786083 
L 86.650435 140.664938 
L 86.709147 140.295548 
L 86.883701 142.159533 
L 87.517499 136.014457 
L 87.654988 135.222842 
L 87.703333 135.392024 
L 88.151101 139.683178 
L 88.424543 140.44585 
L 88.581079 138.31656 
L 88.716427 139.031121 
L 88.96914 137.70133 
L 89.086084 137.914376 
L 89.144125 137.498645 
L 89.223355 137.666428 
L 89.281034 138.410555 
L 89.457055 136.97809 
L 89.545348 137.442765 
L 89.654734 138.093503 
L 89.730679 137.910215 
L 89.945318 136.723494 
L 90.006933 135.302069 
L 90.082451 135.555149 
L 90.277386 136.7096 
L 90.447934 135.585313 
L 90.579063 138.578919 
L 90.682417 137.573862 
L 90.766375 137.500853 
L 90.941863 139.738176 
L 90.986034 138.533645 
L 91.21394 140.634513 
L 91.370085 140.691023 
L 91.430683 140.010637 
L 91.532946 141.112678 
L 91.704891 140.759389 
L 91.783791 141.633964 
L 91.859938 140.608874 
L 91.937641 140.772555 
L 92.016474 141.116039 
L 92.096559 140.237961 
L 92.192803 140.01651 
L 92.276161 138.542432 
L 92.347228 139.887617 
L 92.424321 139.506648 
L 92.748516 137.613474 
L 92.910835 137.91825 
L 92.990419 137.50075 
L 93.066011 138.944038 
L 93.149125 138.662519 
L 93.224564 138.092359 
L 93.707966 141.216052 
L 93.78836 141.272708 
L 93.961667 138.304479 
L 94.195754 140.49661 
L 94.351543 139.582079 
L 94.429051 139.750038 
L 94.605305 139.091015 
L 94.761601 140.409664 
L 94.838475 140.199204 
L 94.997038 138.17886 
L 95.169768 140.119195 
L 95.481155 141.225812 
L 95.568598 142.044533 
L 95.716293 140.74897 
L 95.795018 140.845794 
L 95.911456 138.514741 
L 95.967851 139.06945 
L 96.049251 140.421066 
L 96.220692 138.521364 
L 96.280581 139.302288 
L 96.366151 138.35298 
L 96.532908 140.445697 
L 96.610853 140.335193 
L 96.69096 140.518004 
L 96.845479 138.416738 
L 96.924017 138.641312 
L 97.021984 139.710015 
L 97.085054 139.468115 
L 97.178619 139.142679 
L 97.254705 138.03595 
L 97.665453 141.201235 
L 97.899767 139.282075 
L 97.958249 139.819441 
L 97.97832 139.580875 
L 98.057508 139.504295 
L 98.240016 138.3372 
L 98.330102 138.999226 
L 98.388099 138.962004 
L 98.466542 138.260966 
L 98.621866 139.966173 
L 98.699456 138.628671 
L 98.856517 139.957559 
L 98.976924 138.758714 
L 99.034792 139.178515 
L 99.115336 138.792984 
L 99.21092 136.49662 
L 99.26865 137.011094 
L 99.405189 137.113445 
L 99.502514 139.584821 
L 99.678215 139.478875 
L 99.756059 138.994719 
L 99.775662 139.66565 
L 100.010941 139.161919 
L 100.088562 139.70122 
L 100.108479 140.856749 
L 100.167865 140.187001 
L 100.536201 136.214733 
L 100.556175 136.60511 
L 100.634843 136.885858 
L 100.732757 136.758695 
L 100.791529 137.807321 
L 100.809172 136.558684 
L 100.887937 136.474194 
L 101.06359 135.444461 
L 101.082543 136.708453 
L 101.198642 136.609456 
L 101.276076 139.241384 
L 101.35482 138.739182 
L 101.432563 139.75435 
L 101.550382 139.782941 
L 101.628335 139.16814 
L 101.646703 140.607049 
L 101.726712 139.560454 
L 101.82267 140.863627 
L 101.88071 139.966229 
L 101.978443 140.181017 
L 102.077192 139.012288 
L 102.192996 139.610126 
L 102.271771 138.604953 
L 102.329476 140.256707 
L 102.733931 137.449545 
L 102.795833 137.847291 
L 102.835136 138.088717 
L 102.971011 137.823547 
L 103.019584 137.981393 
L 103.087585 136.610763 
L 103.165766 135.645231 
L 103.245137 137.285276 
L 103.380511 136.653651 
L 103.403146 135.814231 
L 103.458487 137.877715 
L 103.536413 137.369284 
L 103.616624 137.455294 
L 103.758606 137.67453 
L 103.780064 136.962643 
L 103.852845 138.101293 
L 104.025459 136.758215 
L 104.187603 138.157064 
L 104.259981 137.338275 
L 104.846188 140.888852 
L 104.922764 139.758532 
L 104.982142 139.983887 
L 105.077358 141.078777 
L 105.136627 140.34055 
L 105.294112 139.880835 
L 105.331475 138.98494 
L 105.544047 140.173007 
L 105.661073 140.016532 
L 105.743431 139.663805 
L 105.805461 139.720704 
L 105.95288 137.979287 
L 106.032876 138.810454 
L 106.108783 138.734235 
L 106.153018 138.702388 
L 106.287435 138.00973 
L 106.364639 138.449932 
L 106.444478 137.348298 
L 106.637749 138.893449 
L 106.735177 139.406282 
L 106.755027 139.010477 
L 107.222332 134.686492 
L 107.263651 136.203673 
L 107.358546 135.713665 
L 107.418462 134.578715 
L 107.591923 135.736171 
L 107.883765 137.214272 
L 108.040377 136.954237 
L 108.21469 138.233905 
L 108.372038 137.669481 
L 108.448599 137.800235 
L 108.740543 140.246838 
L 108.857525 139.198884 
L 109.270029 140.70106 
L 109.463189 139.726755 
L 109.501548 140.026914 
L 109.660442 139.639024 
L 109.745845 140.037116 
L 109.814397 139.867652 
L 109.950662 139.310347 
L 110.031997 139.698188 
L 110.144515 140.763679 
L 110.326726 141.197485 
L 110.378209 141.196918 
L 111.029628 135.584653 
L 111.255649 135.50133 
L 111.33645 138.156793 
L 111.431508 138.612935 
L 111.597093 137.16012 
L 111.748266 138.972078 
L 111.821242 138.890921 
L 111.995771 139.502623 
L 112.152432 137.812921 
L 112.307543 138.838209 
L 112.793561 136.011458 
L 112.950242 136.642572 
L 113.028397 135.816873 
L 113.141688 135.876791 
L 113.436297 138.860677 
L 113.518098 138.238125 
L 113.598629 138.569208 
L 113.672815 137.690849 
L 113.923195 138.999851 
L 114.00708 139.35136 
L 114.080317 139.140735 
L 114.157327 137.748495 
L 114.238009 137.764545 
L 114.39408 139.444041 
L 114.497026 139.504765 
L 114.645917 139.002738 
L 114.80138 139.152193 
L 114.899811 137.84517 
L 115.036951 140.225195 
L 115.135931 137.472319 
L 115.312079 138.496452 
L 115.367971 137.781373 
L 115.445592 138.185089 
L 115.523699 138.59047 
L 115.608572 137.519744 
L 115.698645 138.349603 
L 115.782653 137.414047 
L 115.976053 138.841924 
L 116.103549 135.780723 
L 116.190559 136.557895 
L 116.326532 135.106906 
L 116.40449 135.466328 
L 116.55915 135.134178 
L 116.597794 136.209881 
L 116.668145 136.130191 
L 116.734683 136.328499 
L 116.967625 139.283953 
L 117.006693 138.518062 
L 117.107212 138.248665 
L 117.222495 139.751703 
L 117.482938 138.877911 
L 117.631206 137.063925 
L 117.708676 137.109578 
L 117.786381 136.232746 
L 117.999832 137.919656 
L 118.043654 137.486331 
L 118.176325 138.913796 
L 118.273731 139.464286 
L 118.352326 141.12989 
L 118.508348 140.298383 
L 118.60683 141.699613 
L 118.742616 140.885055 
L 118.761838 139.659133 
L 118.977586 138.287237 
L 119.150944 136.314385 
L 119.238237 136.45393 
L 119.306522 136.363911 
L 119.387154 135.566863 
L 119.639298 136.677905 
L 119.716072 136.56433 
L 119.794302 136.377756 
L 119.988574 136.824479 
L 120.242683 139.177642 
L 120.359921 137.749836 
L 120.515336 140.325232 
L 120.613994 140.289299 
L 120.865936 138.295331 
L 120.986208 137.335631 
L 121.021356 135.172473 
L 121.040705 136.637204 
L 121.138473 137.689123 
L 121.164394 139.408851 
L 121.333051 136.867075 
L 121.414466 136.971292 
L 121.8004 142.400041 
L 121.896872 142.089457 
L 121.974361 141.026167 
L 122.071906 141.12547 
L 122.149808 140.913019 
L 122.247528 141.323222 
L 122.326672 141.248529 
L 122.699337 137.603153 
L 122.814057 137.768398 
L 122.85255 136.948009 
L 123.028463 137.770327 
L 123.203057 136.52468 
L 123.456829 138.257212 
L 123.497843 137.829103 
L 123.670899 139.799242 
L 123.748522 139.508709 
L 123.906059 138.953606 
L 123.97963 139.114871 
L 123.994587 139.62845 
L 124.065296 139.265541 
L 124.109418 139.231557 
L 124.170724 138.948413 
L 124.332027 141.753181 
L 124.468046 139.951457 
L 124.583776 141.738461 
L 124.642526 141.27341 
L 124.799049 140.352599 
L 124.900058 140.788204 
L 125.043629 138.320343 
L 125.129918 136.928303 
L 125.208767 136.961109 
L 125.305728 137.726839 
L 125.426339 137.189646 
L 125.523755 137.337302 
L 125.598994 136.174832 
L 125.774008 137.496119 
L 126.086576 135.883637 
L 126.268025 137.549609 
L 126.537702 136.206013 
L 126.731377 136.932954 
L 126.894994 137.53357 
L 127.199907 134.195235 
L 127.377066 133.738174 
L 127.454875 134.412149 
L 127.531924 134.227514 
L 127.609853 134.34499 
L 128.196252 137.173853 
L 128.286772 136.869121 
L 128.489992 136.163764 
L 128.586943 136.30137 
L 128.940141 140.807906 
L 128.978482 139.872604 
L 129.056128 140.085443 
L 129.154196 141.116986 
L 129.230984 140.112116 
L 129.292202 141.220347 
L 129.426346 141.224941 
L 129.699486 136.578457 
L 129.776907 138.633343 
L 129.859272 138.00056 
L 129.953849 137.070358 
L 130.030829 138.043841 
L 130.109064 137.698897 
L 130.194511 137.627856 
L 130.273216 138.135261 
L 130.42025 137.912496 
L 130.458857 138.004293 
L 130.517344 139.573859 
L 130.61629 138.165946 
L 130.676345 138.51124 
L 130.832504 139.967718 
L 130.930395 140.263778 
L 130.988074 140.033623 
L 131.109332 140.16718 
L 131.241234 141.389177 
L 131.377074 141.176641 
L 131.494697 142.89869 
L 131.707902 139.904103 
L 131.785907 140.757603 
L 131.883292 139.594103 
L 131.980049 139.818211 
L 132.082061 140.444707 
L 132.271262 137.449253 
L 132.430875 138.45497 
L 132.525234 138.643948 
L 132.617769 137.901579 
L 132.68083 138.690843 
L 132.855765 136.739236 
L 133.03229 136.846127 
L 133.173654 139.035827 
L 133.284123 138.850634 
L 133.361659 138.787917 
L 133.600313 140.144576 
L 133.765148 143.046728 
L 133.870065 143.248753 
L 133.888116 142.123297 
L 134.024412 140.83132 
L 134.063932 141.822837 
L 134.141856 141.318319 
L 134.239341 141.327088 
L 134.316868 141.592402 
L 134.394372 140.842235 
L 134.550283 138.027917 
L 134.612677 137.835508 
L 134.844817 138.642718 
L 134.941668 137.001859 
L 134.959197 137.428677 
L 135.096131 135.609466 
L 135.252682 136.988133 
L 135.508404 135.825061 
L 135.58337 135.932689 
L 135.662972 135.77478 
L 135.75553 136.080343 
L 135.832766 137.026154 
L 135.930589 136.931201 
L 135.972997 136.552371 
L 136.241745 139.640886 
L 136.379131 138.996901 
L 136.458556 140.107601 
L 136.474462 140.028997 
L 136.59077 139.882462 
L 136.712182 138.67764 
L 136.727005 139.62918 
L 136.786328 138.50184 
L 136.886219 137.008888 
L 136.982991 137.246905 
L 137.040056 137.055464 
L 137.117384 137.526066 
L 137.292618 136.839716 
L 137.357671 137.568986 
L 137.430638 136.920081 
L 137.60878 138.53402 
L 137.669223 138.637851 
L 137.925976 136.881477 
L 137.94076 136.890664 
L 138.019814 137.843097 
L 138.152803 136.043752 
L 138.231657 136.945252 
L 138.328512 136.874579 
L 138.524357 138.362564 
L 138.601088 138.057451 
L 138.720582 138.279503 
L 138.83516 139.115363 
L 139.034429 142.945598 
L 139.28448 139.6579 
L 139.537183 141.779995 
L 139.87047 139.197295 
L 139.927742 139.940002 
L 140.086585 140.902805 
L 140.376411 138.707025 
L 140.394976 139.575077 
L 140.415674 138.704301 
L 140.64939 137.378883 
L 140.785595 137.805675 
L 140.847081 137.162731 
L 140.904268 137.470261 
L 141.099505 139.455342 
L 141.150193 138.909331 
L 141.215369 138.756334 
L 141.409441 139.358782 
L 141.622934 141.530034 
L 141.857308 139.56481 
L 141.934862 139.400358 
L 142.032267 138.736972 
L 142.132161 139.281284 
L 142.187935 139.256966 
L 142.423991 136.809099 
L 142.500051 137.419275 
L 142.581032 137.20736 
L 142.753097 138.09857 
L 142.830877 138.364997 
L 142.986508 137.421303 
L 143.162189 138.011414 
L 143.234588 138.883395 
L 143.337549 139.257626 
L 143.421002 140.64807 
L 143.633633 139.284638 
L 143.707965 139.511311 
L 143.789498 139.447254 
L 143.956213 138.55991 
L 144.117094 137.235126 
L 144.195187 136.651941 
L 144.328005 136.520938 
L 144.348383 137.472838 
L 144.542607 136.263559 
L 144.679344 137.525738 
L 144.758601 136.029902 
L 144.854124 136.838712 
L 145.07751 134.498965 
L 145.185387 134.408323 
L 145.352612 136.631079 
L 145.431373 135.604389 
L 145.469716 136.170537 
L 145.569263 137.753616 
L 145.663885 136.394086 
L 145.742864 136.613528 
L 145.897022 138.410046 
L 146.035499 137.480143 
L 146.210381 139.7259 
L 146.229189 139.078278 
L 146.290206 138.925834 
L 146.368959 139.233213 
L 146.526634 141.080333 
L 146.639321 139.90024 
L 146.761487 141.645382 
L 147.069309 137.449758 
L 147.207402 138.71485 
L 147.32315 138.625971 
L 147.420268 140.405546 
L 147.498556 139.516842 
L 147.654001 138.017181 
L 147.732139 137.958625 
L 147.888558 138.876973 
L 148.189063 138.232501 
L 148.297487 138.508688 
L 148.472488 142.669775 
L 148.628828 142.374283 
L 148.729238 141.017762 
L 148.849026 141.428155 
L 148.902337 141.143638 
L 149.212527 135.794312 
L 149.293594 135.757468 
L 149.513348 137.428822 
L 149.661435 137.7744 
L 149.740562 137.983925 
L 149.929159 136.935718 
L 150.187395 139.066385 
L 150.343564 137.476963 
L 150.439938 137.620948 
L 150.47927 138.330273 
L 150.56695 138.064108 
L 150.635404 138.096665 
L 150.770717 139.097317 
L 150.795985 140.15415 
L 150.906282 139.771175 
L 150.947706 138.736434 
L 151.122509 140.875147 
L 151.201181 140.526437 
L 151.27845 139.444338 
L 151.435366 140.519493 
L 151.60172 138.531335 
L 151.779136 141.858181 
L 151.87297 141.110249 
L 152.029769 139.391847 
L 152.320581 141.701785 
L 152.40049 141.548952 
L 152.573799 137.641615 
L 152.808688 138.77294 
L 152.886766 138.842417 
L 153.139349 137.232901 
L 153.374102 139.159648 
L 153.455842 138.985062 
L 153.567963 139.073798 
L 153.704801 139.950979 
L 153.783236 139.290044 
L 153.881341 140.809566 
L 153.937961 140.030775 
L 154.326939 137.712914 
L 154.446975 137.519037 
L 154.522067 136.427178 
L 154.580207 137.200123 
L 154.696781 135.970242 
L 154.83525 136.962438 
L 154.912545 137.938478 
L 155.051125 137.748719 
L 155.145622 138.173374 
L 155.225878 137.702796 
L 155.399204 138.436598 
L 155.536974 137.375882 
L 155.632824 137.371865 
L 155.711053 137.209445 
L 155.787856 137.471074 
L 155.945268 136.229128 
L 156.041826 136.277368 
L 156.197023 135.512459 
L 156.2742 136.777614 
L 156.41457 137.00322 
L 156.527375 135.617045 
L 156.704056 137.27098 
L 156.75973 139.173378 
L 156.837679 138.493221 
L 156.916343 138.152096 
L 156.993473 138.616444 
L 157.075565 137.9438 
L 157.090278 139.982051 
L 157.168423 138.60402 
L 157.421626 139.063444 
L 157.848428 136.201385 
L 157.889284 136.551424 
L 158.044887 136.316969 
L 158.106362 137.25159 
L 158.16193 137.167253 
L 158.220265 135.983308 
L 158.361337 138.09704 
L 158.451546 138.447714 
L 158.676188 140.305666 
L 158.850257 138.706585 
L 158.947685 138.870765 
L 159.161783 136.432572 
L 159.239312 136.850603 
L 159.336455 135.887454 
L 159.473563 135.715318 
L 159.515072 134.986654 
L 159.629021 135.048312 
L 159.651122 134.976624 
L 159.746473 134.548707 
L 159.8232 135.087187 
L 159.901231 134.342033 
L 159.981469 135.414258 
L 160.060038 135.36929 
L 160.532924 139.068805 
L 160.608447 140.709584 
L 160.703636 140.411649 
L 160.977373 139.18339 
L 161.132207 139.581007 
L 161.172431 140.505453 
L 161.251161 139.811451 
L 161.580551 140.681875 
L 161.658813 140.499242 
L 161.814174 139.851737 
L 161.989596 137.770897 
L 162.06804 138.192866 
L 162.146338 138.058159 
L 162.224277 136.491708 
L 162.303964 137.01432 
L 162.45821 137.240421 
L 162.538598 138.152708 
L 162.632758 137.264336 
L 162.710105 138.390231 
L 162.867372 136.856691 
L 163.029243 138.838375 
L 163.102747 138.396924 
L 163.121198 139.97621 
L 163.18403 138.352885 
L 163.277479 138.3174 
L 163.376491 137.871888 
L 163.434874 138.540228 
L 163.512076 138.083262 
L 163.598472 139.866291 
L 163.668298 139.745496 
L 163.838954 139.279002 
L 163.921391 140.069501 
L 164.000163 140.051976 
L 164.079057 139.7322 
L 164.158194 139.783861 
L 164.310546 141.3612 
L 164.389309 139.814234 
L 164.469276 140.336963 
L 164.639073 139.404114 
L 164.721082 139.182116 
L 164.874099 140.406534 
L 165.113365 139.324636 
L 165.283916 140.372564 
L 165.458059 139.749509 
L 165.537002 139.695652 
L 165.653522 139.861254 
L 165.796376 140.597581 
L 165.917187 139.391016 
L 166.088834 138.295065 
L 166.273078 139.367407 
L 166.425644 138.252206 
L 166.482448 138.139165 
L 166.557392 138.387023 
L 166.651801 138.102292 
L 166.812836 136.926396 
L 166.905616 136.540343 
L 167.314503 133.469919 
L 167.528494 133.844187 
L 167.705174 137.46838 
L 168.094768 140.857291 
L 168.190721 140.517139 
L 168.249696 141.306366 
L 168.502713 139.855357 
L 168.6773 139.855419 
L 168.754957 139.737623 
L 168.832769 139.119295 
L 169.074391 140.260814 
L 169.163395 140.036536 
L 169.241137 140.991924 
L 169.319394 140.379631 
L 169.455286 140.807933 
L 169.534488 140.769627 
L 169.708976 139.320506 
L 169.867897 139.809988 
L 169.884596 138.565216 
L 169.962478 139.2103 
L 170.05882 139.246743 
L 170.1192 139.635045 
L 170.274091 139.175711 
L 170.357729 139.888991 
L 170.429626 139.759848 
L 170.561895 139.710971 
L 170.701722 138.027588 
L 170.857498 135.855865 
L 170.935742 136.544599 
L 171.013171 136.660349 
L 171.247566 135.843443 
L 171.42932 137.959259 
L 171.481265 139.344501 
L 171.579319 139.163849 
L 171.643891 139.634745 
L 171.735174 139.382581 
L 171.993885 137.326189 
L 172.149256 137.660886 
L 172.26711 137.443991 
L 172.285657 136.761906 
L 172.447637 138.290344 
L 172.544465 137.473938 
L 172.642285 137.50114 
L 172.857501 140.125619 
L 173.322676 137.056351 
L 173.460186 139.218283 
L 173.499944 139.155721 
L 173.576644 138.319848 
L 173.654418 138.800461 
L 173.751333 138.741145 
L 173.911722 139.20558 
L 173.986284 138.763136 
L 174.064181 139.595828 
L 174.166066 138.028377 
L 174.393632 139.303265 
L 174.469613 137.721838 
L 174.544537 137.727064 
L 174.719581 137.961492 
L 174.956848 139.234099 
L 175.109407 138.235858 
L 175.225671 138.268508 
L 175.362088 139.782376 
L 175.633738 138.137011 
L 175.908949 136.182713 
L 176.004766 136.909661 
L 176.082825 136.739781 
L 176.396728 138.211172 
L 176.511424 137.891014 
L 176.72519 140.123173 
L 176.80554 139.757404 
L 176.881494 140.386976 
L 177.037317 138.479747 
L 177.132041 139.361306 
L 177.256035 138.971942 
L 177.350176 140.489995 
L 177.372571 139.393242 
L 177.503962 140.182496 
L 177.622063 138.171962 
L 177.701491 137.488749 
L 177.758707 138.577564 
L 177.836227 138.344602 
L 177.913548 137.779579 
L 178.010627 137.970826 
L 178.089287 136.642362 
L 178.16958 136.978197 
L 178.288516 136.773613 
L 178.421302 138.960296 
L 178.636963 138.185304 
L 178.654085 139.531099 
L 178.948343 140.376077 
L 179.028208 139.962651 
L 179.140315 136.851114 
L 179.221698 135.385671 
L 179.316996 136.17209 
L 179.376703 136.120305 
L 179.453558 136.270779 
L 179.591642 135.658559 
L 179.627931 136.510983 
L 179.686717 136.467236 
L 179.861973 138.143627 
L 180.017676 140.021257 
L 180.095664 140.255568 
L 180.254717 139.718215 
L 180.336579 139.751233 
L 180.504712 140.324747 
L 180.582752 139.842996 
L 180.660356 140.222476 
L 180.914136 138.306423 
L 180.975498 139.144049 
L 181.226497 137.714579 
L 181.383891 137.79213 
L 181.45995 137.224029 
L 181.617169 139.247448 
L 181.946397 141.525365 
L 182.028464 141.530793 
L 182.107351 141.369194 
L 182.270387 141.775837 
L 182.355936 140.806422 
L 182.442763 141.04219 
L 182.74745 139.11823 
L 182.883965 139.126781 
L 183.019701 139.823012 
L 183.080343 139.174517 
L 183.1759 139.335815 
L 183.313592 140.303721 
L 183.487358 140.734873 
L 183.566113 139.803271 
L 183.799598 138.088178 
L 183.956003 139.508209 
L 183.980483 138.324294 
L 184.084456 139.561281 
L 184.161609 139.115313 
L 184.654712 141.719118 
L 184.693711 140.727549 
L 184.790411 140.853793 
L 184.870258 139.759329 
L 184.96964 140.029198 
L 185.083325 140.650214 
L 185.240225 141.696528 
L 185.512187 138.681599 
L 185.746901 137.606918 
L 186.075765 134.161834 
L 186.220487 134.949643 
L 186.372287 135.500233 
L 186.448947 134.288713 
L 186.562425 134.86509 
L 186.778001 136.462872 
L 186.949158 136.582089 
L 186.955689 136.29846 
L 187.032061 136.328313 
L 187.10988 136.226607 
L 187.293565 137.998151 
L 187.366815 138.1456 
L 187.460977 136.737673 
L 187.597592 136.742265 
L 187.655904 136.154035 
L 187.696766 136.305855 
L 187.929223 137.827078 
L 188.145617 135.871342 
L 188.397507 136.822704 
L 188.552992 136.854563 
L 188.709991 134.698581 
L 188.883775 135.931743 
L 189.001493 136.244898 
L 189.139051 134.273783 
L 189.337396 135.378433 
L 189.370809 135.12212 
L 189.606403 133.613378 
L 189.916197 136.76314 
L 189.994136 137.151722 
L 190.169764 135.875957 
L 190.405655 138.097204 
L 190.421873 137.573915 
L 190.53903 137.513981 
L 191.026427 140.704995 
L 191.047356 141.325033 
L 191.182444 141.790611 
L 191.224731 141.046099 
L 191.29938 141.100977 
L 191.376389 141.136835 
L 191.4738 141.884065 
L 191.609445 140.198225 
L 191.687681 140.095485 
L 191.773851 140.28417 
L 191.933137 140.215897 
L 192.089842 140.548065 
L 192.104065 139.414748 
L 192.181067 140.37319 
L 192.262514 139.525929 
L 192.418482 141.763919 
L 192.546087 141.203515 
L 192.729204 141.079853 
L 192.750169 140.844632 
L 192.94416 142.094637 
L 193.120818 141.568523 
L 193.142038 142.138138 
L 193.24212 141.748135 
L 193.300944 142.546205 
L 193.377087 141.957736 
L 193.453049 142.1634 
L 193.619433 141.426899 
L 193.734349 142.66135 
L 193.878199 141.284143 
L 194.125684 136.483813 
L 194.223875 137.932209 
L 194.268128 137.679586 
L 194.36186 138.109911 
L 194.513103 137.043197 
L 194.59091 137.147901 
L 194.673632 137.863807 
L 194.921796 141.528916 
L 195.000559 140.189329 
L 195.272769 143.029995 
L 195.466682 142.914529 
L 195.531561 141.564153 
L 195.557931 141.824879 
L 195.643997 141.697894 
L 195.797827 142.271422 
L 196.032306 138.940916 
L 196.129131 139.122112 
L 196.206467 139.216348 
L 196.284352 141.582264 
L 196.365936 140.475643 
L 196.439893 140.979314 
L 196.523226 140.289964 
L 196.758323 141.732907 
L 197.086933 137.648287 
L 197.123267 138.081821 
L 197.164194 138.024593 
L 197.243309 137.374727 
L 197.32192 137.938754 
L 197.399726 137.681181 
L 197.573319 136.759312 
L 197.652173 137.404157 
L 197.730247 136.795401 
L 198.05019 138.460342 
L 198.217944 136.532881 
L 198.294657 136.570893 
L 198.371839 136.002335 
L 198.547048 138.778293 
L 198.609955 138.425301 
L 198.703618 138.352767 
L 198.80803 137.232688 
L 198.858408 137.479007 
L 199.347418 140.1504 
L 199.423488 139.341702 
L 199.578837 140.755732 
L 199.735143 140.55814 
L 199.851383 139.356582 
L 199.909798 140.514657 
L 199.973137 140.190622 
L 200.047293 139.474292 
L 200.222364 140.592364 
L 200.317828 140.372135 
L 200.456174 139.286344 
L 200.720867 139.591675 
L 200.792 139.118901 
L 200.882854 139.631764 
L 201.09718 138.079386 
L 201.351463 139.998497 
L 201.468717 139.558876 
L 201.526949 139.893318 
L 201.880233 138.37649 
L 201.899945 138.588308 
L 202.092358 137.798337 
L 202.709044 140.600203 
L 202.892821 139.250564 
L 202.979961 140.040903 
L 203.047587 139.715993 
L 203.360164 140.84658 
L 203.47212 140.785989 
L 203.514302 140.63468 
L 203.611377 139.80324 
L 203.842597 141.597186 
L 204.0769 140.445742 
L 204.193399 141.511413 
L 204.251164 140.498798 
L 204.467197 141.918306 
L 204.508753 141.711209 
L 204.583443 140.261138 
L 204.757776 140.094122 
L 204.91412 138.658667 
L 205.147578 136.419783 
L 205.279156 137.042339 
L 205.30806 136.9482 
L 205.384624 136.841313 
L 205.47094 136.417552 
L 205.543696 137.173961 
L 205.675142 136.618977 
L 205.79176 137.966523 
L 205.775082 136.562864 
L 205.850195 137.676468 
L 206.2626 139.286659 
L 206.34312 139.210792 
L 206.425 141.335168 
L 206.578751 140.939698 
L 206.909517 138.618233 
L 206.985825 138.570553 
L 207.063822 139.905167 
L 207.29667 137.585567 
L 207.375005 137.770064 
L 207.471985 140.13651 
L 207.61032 140.075389 
L 207.788315 142.561193 
L 207.880773 140.426522 
L 207.958756 140.579238 
L 208.114984 140.236122 
L 208.349113 138.191461 
L 208.406828 139.383747 
L 208.473615 139.185543 
L 208.650002 137.292323 
L 208.742723 138.031036 
L 208.807053 137.353214 
L 208.83982 138.43301 
L 208.937647 137.909235 
L 209.123683 138.462567 
L 209.249586 137.597115 
L 209.346114 138.168351 
L 209.406602 139.524083 
L 209.482802 139.39691 
L 209.587983 140.952925 
L 209.682691 140.595649 
L 209.755981 141.573713 
L 209.813896 141.167007 
L 209.893241 141.344773 
L 210.204679 139.955948 
L 210.551845 143.162593 
L 210.691956 143.653454 
L 210.846826 144.176906 
L 211.337851 138.267143 
L 211.499727 139.390755 
L 211.578579 138.503367 
L 211.664011 138.589672 
L 211.727477 138.387494 
L 211.820819 138.445463 
L 212.034877 138.763476 
L 212.229906 137.090204 
L 212.328121 137.314234 
L 212.483024 138.989451 
L 212.541645 138.7501 
L 212.638692 138.670157 
L 212.775431 141.52793 
L 212.873 140.769036 
L 213.010736 141.087761 
L 213.087551 140.829946 
L 213.165383 141.888857 
L 213.360479 140.776003 
L 213.459081 140.974312 
L 213.594724 138.014481 
L 213.6708 139.207807 
L 213.748776 139.22514 
L 213.827607 138.837165 
L 213.924367 137.739958 
L 214.157148 138.487364 
L 214.296288 138.522045 
L 214.392307 137.767511 
L 214.450103 138.269013 
L 214.546711 137.628655 
L 214.741935 139.024193 
L 214.802632 138.679836 
L 214.880164 139.075225 
L 215.036273 137.761107 
L 215.150684 138.963087 
L 215.228511 138.235502 
L 215.305991 138.831755 
L 215.406704 137.813327 
L 215.46257 138.642111 
L 215.598177 138.217507 
L 215.77273 138.970199 
L 215.870126 139.292191 
L 215.93253 140.55794 
L 216.077324 140.849867 
L 216.281207 142.600015 
L 216.496606 141.177158 
L 216.671831 141.467724 
L 216.965027 137.228662 
L 217.050079 136.552781 
L 217.160304 137.246884 
L 217.218566 136.198631 
L 217.306343 136.406757 
L 217.375646 136.450948 
L 217.452808 136.261238 
L 217.766603 138.539411 
L 217.860784 138.480425 
L 217.938997 138.118585 
L 218.016519 138.304275 
L 218.113951 137.297345 
L 218.17246 137.593431 
L 218.256625 138.06345 
L 218.349075 137.681791 
L 218.452543 138.05266 
L 218.521612 137.629396 
L 218.580366 137.839447 
L 218.755073 137.118858 
L 218.931183 140.656692 
L 219.048564 140.681728 
L 219.069965 140.461956 
L 219.144421 140.578689 
L 219.300729 140.754886 
L 219.438793 140.69983 
L 219.556926 141.783075 
L 219.734598 139.939166 
L 219.973068 138.834184 
L 220.029379 139.201213 
L 220.043375 138.481011 
L 220.120693 139.719692 
L 220.218339 139.630909 
L 220.354603 138.169704 
L 220.446262 138.515238 
L 220.529257 138.184668 
L 220.706817 139.182062 
L 220.768595 138.936573 
L 220.979571 136.840122 
L 220.998815 136.946362 
L 221.0758 138.363668 
L 221.212183 138.383037 
L 221.485142 136.010898 
L 221.564776 135.580977 
L 221.717372 136.786962 
L 221.819227 136.890452 
L 221.873283 137.269689 
L 222.052216 138.874173 
L 222.146702 139.109016 
L 222.204884 139.625428 
L 222.368656 142.475608 
L 222.47805 142.404684 
L 222.560375 142.5147 
L 222.769548 138.814123 
L 222.955779 139.137259 
L 223.178822 136.046269 
L 223.275485 136.529696 
L 223.333664 136.515512 
L 223.567179 138.685883 
L 223.665236 137.695147 
L 223.742325 138.108375 
L 223.807029 137.631424 
L 223.898664 137.731709 
L 223.976835 137.914168 
L 224.054021 138.849734 
L 224.154837 138.24238 
L 224.463884 139.259371 
L 224.716271 141.258519 
L 224.814511 141.458143 
L 224.873335 141.046022 
L 224.935419 141.604357 
L 225.027072 141.433565 
L 225.183237 142.642422 
L 225.321253 142.262303 
L 225.3584 140.575322 
L 225.436814 141.278429 
L 225.506438 142.056964 
L 225.670384 140.114916 
L 225.767951 140.946169 
L 225.825957 140.535518 
L 225.981042 138.854745 
L 226.145962 140.761517 
L 226.234707 140.316996 
L 226.312017 139.10926 
L 226.448153 139.585358 
L 226.624963 138.251348 
L 226.705276 139.994572 
L 226.975736 138.235732 
L 227.269741 141.196832 
L 227.364344 141.602493 
L 227.520416 139.530097 
L 227.618264 139.797092 
L 227.773312 138.950004 
L 227.973804 140.244433 
L 228.084796 140.104754 
L 228.163649 138.768301 
L 228.240999 139.900331 
L 228.318542 139.584874 
L 228.558188 142.099518 
L 228.727963 139.544856 
L 228.806843 139.43261 
L 228.981065 140.813454 
L 229.061343 139.966488 
L 229.215468 140.628353 
L 229.3505 140.336644 
L 229.374537 139.920042 
L 229.548106 141.13602 
L 229.68323 139.439748 
L 229.779639 140.280454 
L 229.857992 140.081037 
L 230.016258 139.341616 
L 230.092279 140.355861 
L 230.247182 139.942434 
L 230.365898 138.231406 
L 230.408238 138.735376 
L 230.992652 135.782555 
L 231.071241 136.6369 
L 231.167304 136.59872 
L 231.225311 136.631795 
L 231.398523 137.77195 
L 231.470072 138.555231 
L 231.556643 138.125447 
L 231.790701 139.468446 
L 231.87922 139.09803 
L 231.951955 139.583007 
L 232.030184 139.411526 
L 232.206519 138.498703 
L 232.2653 139.713638 
L 232.370241 139.523866 
L 232.517664 140.056144 
L 232.594489 140.231391 
L 232.730859 140.000253 
L 232.828012 141.074707 
L 232.925607 140.966278 
L 233.003541 140.532856 
L 233.063626 139.43238 
L 233.322132 141.454613 
L 233.400611 140.908037 
L 233.471618 141.127545 
L 233.569882 140.893244 
L 233.6373 139.913335 
L 233.941874 142.276288 
L 234.137023 138.955656 
L 234.195224 139.379436 
L 234.682448 136.44159 
L 234.783201 137.029388 
L 234.995036 138.544596 
L 235.013755 138.645525 
L 235.173096 140.782885 
L 235.250291 140.769612 
L 235.503346 141.632287 
L 235.658647 140.336348 
L 235.736663 141.122437 
L 235.971892 138.120191 
L 236.171889 139.492562 
L 236.322396 138.169855 
L 236.400738 138.929579 
L 236.45955 138.612591 
L 236.662518 137.009387 
L 236.677327 137.826525 
L 236.773878 137.817576 
L 236.854985 137.758617 
L 237.011506 136.010307 
L 237.088229 136.302375 
L 237.26358 135.677568 
L 237.341492 134.912443 
L 237.419567 135.22459 
L 237.497428 135.480639 
L 237.633535 135.215292 
L 237.671971 134.515929 
L 237.905358 136.156639 
L 238.082224 135.334016 
L 238.139466 136.53204 
L 238.238742 136.225219 
L 238.315422 135.490437 
L 238.510611 136.119493 
L 238.553507 135.570248 
L 238.627035 135.58224 
L 238.704191 135.491011 
L 239.056336 139.66323 
L 239.181915 139.70196 
L 239.23028 139.498196 
L 239.508684 142.176738 
L 239.892362 140.362778 
L 240.088653 141.773923 
L 240.148031 141.385875 
L 240.267943 141.749792 
L 240.517171 139.326921 
L 240.558507 141.761503 
L 240.694681 141.667335 
L 240.720729 141.986746 
L 240.970637 139.627246 
L 241.12359 140.53252 
L 241.200375 140.26935 
L 241.2797 140.871336 
L 241.399183 140.252092 
L 241.543611 138.057428 
L 241.686922 139.13571 
L 241.766965 139.05892 
L 241.919716 137.2152 
L 242.015123 138.548029 
L 242.093117 138.275643 
L 242.174047 138.080248 
L 242.269253 139.34339 
L 242.406415 139.996388 
L 242.481958 139.762273 
L 242.581339 138.695404 
L 242.661294 138.654689 
L 242.735514 139.941505 
L 242.832416 139.317287 
L 242.98901 140.246466 
L 243.105663 139.726267 
L 243.378376 142.168807 
L 243.53548 142.300586 
L 243.812745 140.699187 
L 243.866178 140.453688 
L 243.943533 139.029336 
L 244.061231 139.199073 
L 244.180421 137.422336 
L 244.294603 138.337654 
L 244.3946 137.484054 
L 244.430627 138.118075 
L 244.547773 137.627116 
L 244.608742 136.685612 
L 244.668379 136.989596 
L 244.883055 135.842582 
L 244.902632 136.297329 
L 244.967792 137.210238 
L 245.002459 136.582989 
L 245.096577 136.462632 
L 245.155111 136.155997 
L 245.563881 138.118845 
L 245.64229 139.690729 
L 245.719857 139.255375 
L 245.799759 139.688465 
L 245.883054 138.07756 
L 245.954685 138.43805 
L 246.12857 138.040242 
L 246.361964 139.684192 
L 246.537364 140.267748 
L 246.598299 140.151352 
L 246.714099 141.983002 
L 246.955511 140.859271 
L 247.016124 139.758066 
L 247.100586 140.649296 
L 247.111424 140.29332 
L 247.384896 137.61912 
L 247.423715 138.39824 
L 247.501324 137.070005 
L 247.640311 139.131591 
L 247.723144 138.56484 
L 247.812776 139.718625 
L 247.900423 139.319015 
L 247.968057 139.542883 
L 248.074518 140.412623 
L 248.12427 140.310111 
L 248.2285 140.597086 
L 248.360478 141.423899 
L 248.377443 141.105051 
L 248.454702 140.779129 
L 248.535381 141.050113 
L 248.770123 140.492361 
L 248.846755 141.031892 
L 249.000234 141.045344 
L 249.178019 138.681637 
L 249.333781 139.115867 
L 249.431079 138.599704 
L 249.495512 139.227604 
L 249.512295 139.160947 
L 249.647704 137.418063 
L 249.664645 138.199566 
L 249.793416 138.200344 
L 249.822339 137.453515 
L 249.928272 138.325341 
L 250.017755 139.98583 
L 250.155193 138.22829 
L 250.662529 140.423219 
L 250.718706 140.111409 
L 250.990335 141.163639 
L 251.048847 140.661997 
L 251.243827 141.819794 
L 251.282125 141.417048 
L 251.342857 141.320395 
L 251.420907 141.665392 
L 251.516257 143.238874 
L 251.963985 140.196506 
L 252.127183 138.659994 
L 252.314859 136.070555 
L 252.393976 136.70819 
L 253.034968 140.759541 
L 253.133389 140.753982 
L 253.33368 138.991535 
L 253.366652 140.252799 
L 253.463662 139.825464 
L 253.602563 137.781258 
L 253.852201 140.155899 
L 253.930531 140.248394 
L 254.009377 139.907161 
L 254.106305 140.315998 
L 254.165976 140.176203 
L 254.241501 139.007407 
L 254.36667 140.182935 
L 254.485121 139.64847 
L 254.511467 138.608735 
L 254.576784 139.198546 
L 254.732702 138.139705 
L 254.812409 139.524157 
L 254.890096 139.421192 
L 254.96879 138.766674 
L 255.094677 140.060147 
L 255.130417 139.411012 
L 255.299823 139.635226 
L 255.377231 138.69199 
L 255.535056 139.488095 
L 255.613306 138.087293 
L 255.710038 138.862234 
L 255.923928 138.27343 
L 256.124423 139.40124 
L 256.219002 139.552633 
L 256.333815 138.707525 
L 256.411397 138.795834 
L 256.491668 137.760924 
L 256.586916 138.661299 
L 256.664271 138.537319 
L 256.761081 138.224146 
L 256.847319 138.633568 
L 256.898973 137.144893 
L 256.980006 137.622834 
L 257.075059 137.964749 
L 257.152263 137.512111 
L 257.249639 137.878479 
L 257.38453 139.564531 
L 258.053552 143.836885 
L 258.461249 139.600428 
L 258.555902 140.671067 
L 258.595522 140.482387 
L 258.906444 135.782771 
L 259.061312 137.162886 
L 259.120165 136.85922 
L 259.328342 135.437257 
L 259.490519 137.037322 
L 259.723812 140.275413 
L 259.802554 139.516044 
L 259.976883 141.351864 
L 260.075097 141.046484 
L 260.134583 142.350977 
L 260.193829 140.608033 
L 260.211675 141.413666 
L 260.367105 141.875127 
L 260.548459 140.953626 
L 260.702301 141.533184 
L 260.719166 140.06337 
L 260.781827 140.479353 
L 260.84117 141.290157 
L 260.933663 139.173105 
L 261.012167 139.895385 
L 261.217681 138.839898 
L 261.35194 139.988935 
L 261.411957 139.460011 
L 261.489532 139.565594 
L 261.566224 139.358479 
L 261.665779 138.512261 
L 261.741656 139.264454 
L 261.905953 138.921131 
L 261.982096 139.111412 
L 262.115241 137.974938 
L 262.208795 139.78539 
L 262.325986 139.879086 
L 262.522086 138.746835 
L 262.561113 138.629823 
L 262.620109 139.463723 
L 262.777652 138.296378 
L 262.911291 138.264732 
L 263.06708 135.854723 
L 263.183418 135.713774 
L 263.262216 136.405597 
L 263.33998 137.705265 
L 263.42136 136.831096 
L 263.529862 137.614569 
L 263.671245 136.721408 
L 263.751108 137.111964 
L 263.98797 138.782796 
L 264.158784 136.96649 
L 264.474831 141.041213 
L 264.645503 139.881 
L 264.711052 140.671911 
L 264.82673 140.636576 
L 264.879658 142.676999 
L 264.95683 142.266947 
L 265.195391 140.864883 
L 265.3664 140.944275 
L 265.853403 138.177803 
L 265.871254 138.422369 
L 265.930807 139.098425 
L 265.988751 139.027761 
L 266.261796 138.577279 
L 266.319967 138.720815 
L 266.39789 138.158086 
L 266.572796 138.670248 
L 266.652721 137.720731 
L 266.72768 137.749974 
L 266.806123 137.403526 
L 266.981859 136.283172 
L 267.039901 136.497571 
L 267.181851 136.427559 
L 267.294156 137.227485 
L 267.583913 138.599558 
L 267.60564 138.309134 
L 267.683493 138.587165 
L 267.779722 140.113035 
L 267.856756 139.810429 
L 267.936564 139.608406 
L 268.095728 140.785886 
L 268.367568 139.803623 
L 268.523615 140.481576 
L 268.581565 139.389986 
L 268.836341 141.467561 
L 268.932793 140.345714 
L 269.070635 141.617631 
L 269.84882 138.413801 
L 270.186557 140.405993 
L 270.261027 140.600579 
L 270.35534 139.86463 
L 270.43327 140.028945 
L 270.590555 140.894881 
L 270.668714 140.738409 
L 270.765842 139.995157 
L 270.824134 140.514775 
L 270.900789 139.462611 
L 271.015957 139.725021 
L 271.157866 140.618986 
L 271.288252 140.818907 
L 271.463228 137.394736 
L 271.540709 137.084894 
L 271.735304 139.669741 
L 271.794322 140.176543 
L 272.054628 138.952313 
L 272.281237 142.499077 
L 272.455452 142.058243 
L 272.533527 141.843161 
L 272.673053 139.874171 
L 272.924102 141.008729 
L 273.351655 138.40693 
L 273.450481 139.378437 
L 273.487851 138.88895 
L 273.599801 138.078029 
L 273.64518 138.283431 
L 273.728026 138.644278 
L 273.89265 136.741517 
L 273.976049 138.563749 
L 274.052886 138.011098 
L 274.206623 138.386133 
L 274.304605 139.849188 
L 274.363315 139.279986 
L 274.556977 137.561726 
L 274.733314 141.165402 
L 274.774732 138.948633 
L 274.986578 140.416935 
L 275.024335 139.675828 
L 275.103257 139.938982 
L 275.258258 141.153031 
L 275.336702 141.085005 
L 275.420753 141.049289 
L 275.494626 140.219973 
L 275.569557 140.494286 
L 275.669239 140.71244 
L 275.979812 138.259083 
L 276.057125 137.978163 
L 276.1529 138.56193 
L 276.232278 137.503167 
L 276.309425 137.575646 
L 276.464839 136.242587 
L 276.627736 138.186672 
L 276.698964 137.998148 
L 276.799015 137.906472 
L 276.952727 138.403064 
L 277.029987 138.804994 
L 277.107667 138.607728 
L 277.185025 139.14289 
L 277.41966 138.072768 
L 277.671284 139.251259 
L 277.829153 138.880307 
L 278.080812 139.905234 
L 278.160384 139.228396 
L 278.238883 139.581506 
L 278.392717 140.785145 
L 278.550513 138.986188 
L 278.627616 139.914462 
L 278.883249 138.539213 
L 279.037117 140.600714 
L 279.137746 139.665493 
L 279.153955 139.734819 
L 279.231931 139.874485 
L 279.350622 141.514995 
L 279.445425 140.903105 
L 279.54411 141.523777 
L 279.602933 142.948861 
L 279.718539 142.601796 
L 279.840635 140.778325 
L 279.933579 141.237308 
L 280.166941 139.957757 
L 280.244333 140.892079 
L 280.33592 140.53694 
L 280.342961 137.969267 
L 280.41977 140.202025 
L 280.620039 139.246447 
L 280.693675 139.285362 
L 280.886516 138.973439 
L 280.983624 140.310436 
L 281.043119 139.9669 
L 281.218324 139.056445 
L 281.393368 140.022664 
L 281.531037 138.218121 
L 281.665353 138.597944 
L 281.725183 138.106118 
L 281.801879 136.530448 
L 281.920267 136.543093 
L 281.937633 136.101396 
L 281.997577 137.081741 
L 282.035541 136.381993 
L 282.172938 135.840462 
L 282.366122 137.634802 
L 282.424951 137.219302 
L 282.584057 138.579825 
L 282.7377 138.401779 
L 282.817426 138.653069 
L 282.911842 139.810795 
L 283.067963 139.626674 
L 283.133515 140.538165 
L 283.170321 139.531494 
L 283.224779 139.917068 
L 283.362375 139.083002 
L 283.400107 139.146722 
L 283.485416 139.50557 
L 283.635058 138.21487 
L 283.739685 137.65479 
L 283.8092 138.652072 
L 283.908747 138.535684 
L 283.94568 138.742895 
L 284.686087 136.243271 
L 284.842183 138.275095 
L 284.939682 138.468475 
L 285.075689 141.077304 
L 285.328601 143.483607 
L 285.465738 143.372001 
L 285.640266 140.593626 
L 285.661097 140.79124 
L 285.737904 141.307683 
L 285.971035 138.996109 
L 286.049044 139.213324 
L 286.139338 138.94164 
L 286.22398 137.600453 
L 286.244573 137.881825 
L 286.382414 141.054425 
L 286.440484 140.583399 
L 286.536166 138.985019 
L 286.613976 139.624641 
L 286.867641 138.084965 
L 286.926377 138.644449 
L 287.277016 135.509357 
L 287.335104 137.127328 
L 287.413056 136.233288 
L 287.677571 140.009593 
L 287.770157 139.320575 
L 288.058289 141.203421 
L 288.156361 140.097999 
L 288.272095 140.998593 
L 288.388819 139.102579 
L 288.467433 137.52876 
L 288.56749 137.548608 
L 288.704326 136.439084 
L 288.780206 136.830381 
L 289.033164 135.522692 
L 289.2666 139.433415 
L 289.424366 140.013555 
L 289.696874 137.463978 
L 289.83179 138.888541 
L 290.064841 137.216274 
L 290.143786 138.112373 
L 290.220549 137.623293 
L 290.315537 137.686436 
L 290.392565 137.626128 
L 290.553699 140.092322 
L 290.626925 140.340701 
L 290.800968 138.90383 
L 291.112847 141.185969 
L 291.189153 142.788708 
L 291.267236 142.424905 
L 291.441956 141.790816 
L 291.519801 141.9347 
L 291.678537 142.668521 
L 291.831853 140.568898 
L 291.910645 140.791019 
L 292.085653 139.452458 
L 292.240167 138.611941 
L 292.320164 139.366044 
L 292.396146 139.112638 
L 292.554819 137.433827 
L 292.649526 137.441519 
L 292.805672 138.041446 
L 293.041591 137.084482 
L 293.124952 137.234288 
L 293.240594 137.111446 
L 293.447805 139.190549 
L 293.52572 138.286478 
L 293.603818 138.667512 
L 293.683121 139.037687 
L 293.701609 138.893579 
L 293.876351 140.252953 
L 293.935259 139.89382 
L 294.013088 140.012623 
L 294.131518 140.458319 
L 294.250376 138.43322 
L 294.343569 139.062207 
L 294.616755 136.489139 
L 294.674563 137.230813 
L 294.773051 137.238936 
L 294.830477 138.934814 
L 294.908508 138.83685 
L 295.046126 138.940687 
L 295.239999 138.685225 
L 295.408382 140.636816 
L 295.678732 139.472927 
L 295.814543 140.727174 
L 296.028215 142.891862 
L 296.106383 143.070731 
L 296.183864 143.59373 
L 296.51587 139.539686 
L 296.593044 140.250731 
L 296.748906 139.885654 
L 297.001434 137.962633 
L 297.195829 139.479705 
L 297.352042 140.796796 
L 297.41045 139.836127 
L 297.508193 140.519305 
L 297.566797 140.507251 
L 297.644732 139.994973 
L 297.723654 140.324468 
L 297.956016 139.843729 
L 298.131177 137.774031 
L 298.210078 138.664024 
L 298.441819 135.764378 
L 298.528096 136.507268 
L 298.607445 136.113915 
L 298.724845 137.097957 
L 298.765574 136.555252 
L 298.845618 137.040851 
L 298.943605 136.50801 
L 299.015923 136.013995 
L 299.250217 137.710118 
L 299.368642 137.359677 
L 299.449211 137.541498 
L 299.504072 136.745366 
L 299.562209 136.935338 
L 299.82952 138.742594 
L 299.89338 138.99432 
L 300.04917 140.624021 
L 300.225094 140.283353 
L 300.304134 140.992056 
L 300.382026 142.857102 
L 300.635221 141.728081 
L 300.701205 139.920098 
L 300.773152 141.096316 
L 300.849967 140.057264 
L 300.986788 140.645372 
L 301.213494 139.203204 
L 301.422652 140.276865 
L 301.571166 140.554618 
L 301.590567 140.311238 
L 301.903809 142.921684 
L 301.982754 142.490045 
L 302.07873 142.748443 
L 302.303007 142.266463 
L 302.394028 141.386988 
L 302.553548 141.052539 
L 302.58506 140.349022 
L 302.644236 140.813959 
L 302.802975 138.957275 
L 302.878092 139.140409 
L 302.96354 139.833193 
L 303.035111 139.452594 
L 303.221153 141.855812 
L 303.299308 141.296055 
L 303.447865 140.765704 
L 303.524765 140.806359 
L 303.604109 140.929989 
L 303.776447 139.438488 
L 303.912676 139.081192 
L 303.996238 138.042471 
L 304.108581 138.236682 
L 304.165855 138.14837 
L 304.264271 138.76689 
L 304.419436 138.326075 
L 304.479675 139.209503 
L 304.617213 138.902818 
L 304.654978 139.078941 
L 304.756564 139.263931 
L 304.831438 140.598914 
L 304.907371 140.34049 
L 304.964928 140.980307 
L 305.04744 140.947963 
L 305.140271 140.704447 
L 305.377459 141.758867 
L 305.471929 141.62755 
L 305.588417 141.917385 
L 305.685865 139.896207 
L 305.767895 140.675226 
L 305.843329 139.970745 
L 305.93922 141.514527 
L 306.118683 139.505007 
L 306.174694 139.624683 
L 306.349518 137.229609 
L 306.407414 137.733286 
L 306.524379 137.997318 
L 306.601908 136.698542 
L 306.66435 137.288237 
L 306.759335 137.446057 
L 306.841846 138.955307 
L 307.049977 137.346639 
L 307.244135 139.788743 
L 307.577975 141.247428 
L 307.67882 139.475224 
L 307.770705 139.939058 
L 307.88694 139.668685 
L 307.945009 140.431979 
L 308.023999 139.301895 
L 308.129689 139.54232 
L 308.185684 139.994952 
L 308.262387 138.981672 
L 308.667248 141.703735 
L 308.763839 140.120859 
L 308.922581 140.99532 
L 308.997719 139.861568 
L 309.075249 140.249218 
L 309.198832 140.17311 
L 309.233912 139.286842 
L 309.3096 139.323822 
L 309.386939 139.254092 
L 309.484563 138.390311 
L 309.545397 138.767255 
L 309.642628 138.092802 
L 309.717824 136.397057 
L 309.796213 136.848106 
L 309.873852 137.553521 
L 309.954926 136.666648 
L 310.208232 139.248027 
L 310.424142 138.37341 
L 310.438731 138.466411 
L 310.614354 141.485355 
L 310.769507 141.88813 
L 310.866988 141.052782 
L 311.006068 137.903783 
L 311.158485 138.313816 
L 311.256412 140.131272 
L 311.674915 135.502892 
L 311.769603 135.642917 
L 311.887606 134.775554 
L 312.043027 132.913752 
L 312.197228 133.565927 
L 312.296946 136.201553 
L 312.451718 136.907553 
L 312.511997 136.44584 
L 312.828619 141.189633 
L 313.114335 138.734772 
L 313.289311 140.068419 
L 313.413351 139.659356 
L 313.568164 137.505389 
L 313.781913 139.250224 
L 314.065274 140.889443 
L 314.132723 140.888296 
L 314.231588 141.925715 
L 314.321496 143.010059 
L 314.390041 142.791016 
L 314.468353 142.635594 
L 314.583681 142.144093 
L 314.738015 140.003435 
L 314.738164 136.438994 
L 314.803781 138.684447 
L 314.874545 138.881769 
L 314.971715 138.743855 
L 315.050016 139.021882 
L 315.284218 137.139922 
L 315.410015 136.847106 
L 315.521244 138.356342 
L 315.654669 138.291196 
L 315.694416 138.122064 
L 315.829567 138.084499 
L 315.908345 137.185459 
L 315.949123 137.775369 
L 316.032199 137.597713 
L 316.329701 138.982825 
L 316.45369 138.564584 
L 316.648333 139.605421 
L 316.960116 138.866781 
L 317.133198 137.140386 
L 317.222398 137.675226 
L 317.230884 137.353751 
L 317.290113 137.384911 
L 317.477976 136.523603 
L 317.543636 135.368455 
L 317.607142 134.996377 
L 317.699695 135.222701 
L 317.821639 136.163136 
L 317.894344 135.893061 
L 318.091732 135.314864 
L 318.380506 135.857574 
L 318.574702 133.957593 
L 318.652763 135.447242 
L 318.788981 135.798449 
L 318.808818 135.343146 
L 318.889457 135.674374 
L 319.087356 135.962109 
L 319.374477 139.194437 
L 319.569187 137.923923 
L 319.899908 139.774505 
L 320.196464 138.139797 
L 320.338764 140.386493 
L 320.444447 140.695529 
L 320.503367 140.091616 
L 320.67872 140.293896 
L 320.87273 141.285687 
L 320.912479 141.204333 
L 320.989884 142.545499 
L 321.067176 141.726758 
L 321.243404 142.589539 
L 321.311053 142.800497 
L 321.476878 141.401006 
L 321.632405 142.100119 
L 322.102824 135.887113 
L 322.193931 136.039872 
L 322.372741 137.738241 
L 322.499954 137.172686 
L 322.684655 139.960055 
L 322.781865 140.342639 
L 322.918545 142.803295 
L 323.035988 142.553991 
L 323.230592 141.004554 
L 323.328433 141.478789 
L 323.444909 141.363911 
L 323.52445 141.752503 
L 323.565656 141.561267 
L 323.814804 140.199779 
L 323.914281 140.159582 
L 323.989573 139.936392 
L 324.126393 140.224146 
L 324.360662 137.962255 
L 324.476927 139.074678 
L 324.535034 138.055735 
L 324.634352 139.003324 
L 324.690655 138.815192 
L 324.788414 138.81967 
L 324.849318 139.573175 
L 324.943674 138.685382 
L 325.026876 139.302791 
L 325.140458 139.177662 
L 325.216332 139.91788 
L 325.294189 138.80709 
L 325.372402 139.141197 
L 325.43077 138.816095 
L 325.508554 139.189426 
L 325.584749 138.618926 
L 325.684216 139.005964 
L 325.820108 140.8342 
L 325.962836 140.717059 
L 326.056794 140.066745 
L 326.229235 141.106673 
L 326.473082 139.526399 
L 326.618411 138.26965 
L 326.715261 138.730511 
L 326.813719 139.32499 
L 326.871589 141.240862 
L 327.050643 139.583531 
L 327.106383 139.839192 
L 327.18296 139.736489 
L 327.475678 138.1717 
L 327.68998 136.174279 
L 327.747974 136.297424 
L 328.557013 141.030499 
L 328.733976 141.565427 
L 328.832863 141.209574 
L 328.878659 140.290919 
L 329.123845 142.130993 
L 329.20316 142.196904 
L 329.437327 141.314322 
L 329.514248 141.575262 
L 329.610928 142.824306 
L 329.671644 142.694202 
L 330.000274 140.402478 
L 330.078312 140.749268 
L 330.234479 139.724284 
L 330.410802 139.285815 
L 330.567699 139.441322 
L 330.726082 137.432622 
L 330.819615 137.855709 
L 330.897117 137.575616 
L 330.974209 138.378913 
L 331.051877 137.25795 
L 331.131199 137.569434 
L 331.227633 136.472526 
L 331.443918 138.303728 
L 331.539579 138.749712 
L 331.621627 137.488563 
L 331.803328 137.776233 
L 331.813054 137.72135 
L 331.852357 138.295555 
L 332.028985 137.924993 
L 332.418128 140.221625 
L 332.496292 139.463678 
L 332.573654 139.842384 
L 332.737003 139.256514 
L 332.89233 139.869589 
L 333.061069 139.015163 
L 333.139194 139.381569 
L 333.158574 140.196197 
L 333.217991 139.013326 
L 333.389471 140.832748 
L 333.549114 142.438618 
L 333.626938 141.857163 
L 333.724455 141.781463 
L 333.8601 141.346016 
L 334.113244 141.370239 
L 334.269657 141.08833 
L 334.405192 140.350793 
L 334.701219 143.625626 
L 334.815016 142.805086 
L 334.911494 143.312748 
L 335.008547 141.260634 
L 335.164109 142.271739 
L 335.225891 141.445798 
L 335.323266 141.78309 
L 335.477152 139.378381 
L 335.574831 139.821045 
L 335.78887 139.44496 
L 335.864524 137.671949 
L 335.962579 137.821293 
L 336.040755 138.331336 
L 336.119429 137.047707 
L 336.253682 137.091022 
L 336.293366 137.973878 
L 336.389843 137.906406 
L 336.45229 138.160173 
L 336.507823 139.071055 
L 336.636661 138.791705 
L 336.682761 139.478937 
L 336.878712 138.13254 
L 336.957408 138.439495 
L 337.033842 138.402299 
L 337.112087 138.37562 
L 337.231591 138.725553 
L 337.383229 137.968167 
L 337.578616 139.795912 
L 337.660839 140.496462 
L 337.734605 140.43774 
L 337.812366 140.609035 
L 337.932876 139.54274 
L 338.127508 140.973741 
L 338.306784 139.460834 
L 338.459159 140.215056 
L 338.572783 139.766019 
L 338.746485 141.131361 
L 338.791568 140.474999 
L 338.873765 141.24189 
L 338.941926 140.486457 
L 339.058291 141.072043 
L 339.096905 141.923732 
L 339.351786 139.689894 
L 339.430255 141.036891 
L 339.545963 138.930836 
L 339.603679 139.818883 
L 339.818283 137.702631 
L 340.053696 139.725107 
L 340.151068 138.671942 
L 340.303911 139.453941 
L 340.460259 138.331793 
L 340.556924 138.453051 
L 340.621041 139.478126 
L 340.791524 138.71642 
L 340.89147 138.619536 
L 341.142374 140.097508 
L 341.424183 138.475698 
L 341.615862 137.403719 
L 341.775967 137.543978 
L 341.916725 135.521225 
L 342.059796 135.78324 
L 342.07828 137.937527 
L 342.176152 137.079394 
L 342.236773 137.919938 
L 342.330633 137.739408 
L 342.447497 137.659555 
L 342.525511 137.400581 
L 342.802619 139.412298 
L 342.915016 138.940546 
L 343.207164 140.617583 
L 343.342971 139.597513 
L 343.384288 139.65132 
L 343.446694 139.792189 
L 343.713103 137.417309 
L 343.772134 138.203663 
L 344.103854 135.908615 
L 344.285103 136.311434 
L 344.493636 138.246986 
L 344.650361 136.955569 
L 344.747386 138.35326 
L 344.806329 137.922976 
L 344.981437 138.421653 
L 345.369367 134.324346 
L 345.489237 136.275162 
L 345.547561 135.957941 
L 345.704805 136.981483 
L 345.785295 136.848848 
L 345.944014 138.251077 
L 346.018161 139.805303 
L 346.115464 139.62711 
L 346.286931 138.242007 
L 346.40773 137.69444 
L 346.508251 137.858901 
L 346.545985 137.57419 
L 346.662777 136.047002 
L 346.776773 136.476532 
L 346.837485 135.08826 
L 346.993174 136.897686 
L 347.167811 137.877686 
L 347.285298 136.567888 
L 347.338011 137.022785 
L 347.466483 138.232295 
L 347.556621 137.463613 
L 347.71974 137.837407 
L 347.79078 136.638969 
L 347.915593 136.434514 
L 348.04352 135.161577 
L 348.209303 135.951629 
L 348.376329 136.846626 
L 348.525064 137.953252 
L 348.603478 138.501191 
L 348.696015 138.349479 
L 348.873158 139.706169 
L 348.93333 138.508366 
L 349.041431 138.633299 
L 349.320605 135.649009 
L 349.573499 137.370142 
L 349.651033 138.111619 
L 349.807444 137.17249 
L 349.884636 137.559687 
L 350.002562 137.28234 
L 350.060312 138.779196 
L 350.123131 138.66016 
L 350.293304 136.844389 
L 350.370957 137.176048 
L 350.495528 136.63169 
L 350.645668 138.854993 
L 350.859799 136.905339 
L 350.976666 137.14204 
L 351.046908 138.965401 
L 351.111472 138.889344 
L 351.190814 137.822082 
L 351.27293 139.108496 
L 351.365873 138.310559 
L 351.426701 138.370539 
L 351.601439 137.433301 
L 351.873357 137.996467 
L 351.911592 137.134012 
L 351.975379 138.163005 
L 352.028979 137.904974 
L 352.067561 136.827722 
L 352.174518 137.764898 
L 352.227346 137.300461 
L 352.381079 137.717088 
L 352.517995 138.652878 
L 352.621494 138.499691 
L 352.771351 138.741515 
L 352.810422 138.283051 
L 353.006022 139.397674 
L 353.082342 138.227755 
L 353.166491 138.527667 
L 353.184075 138.394767 
L 353.199453 137.253991 
L 353.280341 138.014617 
L 353.472764 137.299816 
L 353.530981 138.554659 
L 353.610808 137.121515 
L 353.66678 137.155253 
L 353.934601 139.900251 
L 354.023766 139.336757 
L 354.098991 140.067527 
L 354.486707 137.56168 
L 354.700857 134.974867 
L 354.71952 135.723298 
" clip-path="url(#p0c017a09fd)" style="fill: none; stroke: #ff0000; stroke-opacity: 0.5; stroke-width: 2.1; stroke-linecap: square"/>
   </g>
   <g id="patch_3">
    <path d="M 38.502813 148.36327 
L 38.502813 0.72 
" style="fill: none; stroke: #000000; stroke-width: 0.8; stroke-linejoin: miter; stroke-linecap: square"/>
   </g>
   <g id="patch_4">
    <path d="M 354.71952 148.36327 
L 354.71952 0.72 
" style="fill: none; stroke: #000000; stroke-width: 0.8; stroke-linejoin: miter; stroke-linecap: square"/>
   </g>
   <g id="patch_5">
    <path d="M 38.502813 148.36327 
L 354.71952 148.36327 
" style="fill: none; stroke: #000000; stroke-width: 0.8; stroke-linejoin: miter; stroke-linecap: square"/>
   </g>
   <g id="patch_6">
    <path d="M 38.502813 0.72 
L 354.71952 0.72 
" style="fill: none; stroke: #000000; stroke-width: 0.8; stroke-linejoin: miter; stroke-linecap: square"/>
   </g>
   <g id="legend_1">
    <g id="patch_7">
     <path d="M 273.95077 38.07625 
L 347.71952 38.07625 
Q 349.71952 38.07625 349.71952 36.07625 
L 349.71952 7.72 
Q 349.71952 5.72 347.71952 5.72 
L 273.95077 5.72 
Q 271.95077 5.72 271.95077 7.72 
L 271.95077 36.07625 
Q 271.95077 38.07625 273.95077 38.07625 
z
" style="fill: #ffffff; opacity: 0.8; stroke: #cccccc; stroke-linejoin: miter"/>
    </g>
    <g id="line2d_31">
     <path d="M 275.95077 13.818437 
L 285.95077 13.818437 
L 295.95077 13.818437 
" style="fill: none; stroke: #0000ff; stroke-opacity: 0.5; stroke-width: 2.1; stroke-linecap: square"/>
    </g>
    <g id="text_17">
     <!-- RNEA -->
     <g transform="translate(303.95077 17.318437) scale(0.1 -0.1)">
      <defs>
       <path id="DejaVuSans-52" d="M 2841 2188 
Q 3044 2119 3236 1894 
Q 3428 1669 3622 1275 
L 4263 0 
L 3584 0 
L 2988 1197 
Q 2756 1666 2539 1819 
Q 2322 1972 1947 1972 
L 1259 1972 
L 1259 0 
L 628 0 
L 628 4666 
L 2053 4666 
Q 2853 4666 3247 4331 
Q 3641 3997 3641 3322 
Q 3641 2881 3436 2590 
Q 3231 2300 2841 2188 
z
M 1259 4147 
L 1259 2491 
L 2053 2491 
Q 2509 2491 2742 2702 
Q 2975 2913 2975 3322 
Q 2975 3731 2742 3939 
Q 2509 4147 2053 4147 
L 1259 4147 
z
" transform="scale(0.015625)"/>
       <path id="DejaVuSans-45" d="M 628 4666 
L 3578 4666 
L 3578 4134 
L 1259 4134 
L 1259 2753 
L 3481 2753 
L 3481 2222 
L 1259 2222 
L 1259 531 
L 3634 531 
L 3634 0 
L 628 0 
L 628 4666 
z
" transform="scale(0.015625)"/>
       <path id="DejaVuSans-41" d="M 2188 4044 
L 1331 1722 
L 3047 1722 
L 2188 4044 
z
M 1831 4666 
L 2547 4666 
L 4325 0 
L 3669 0 
L 3244 1197 
L 1141 1197 
L 716 0 
L 50 0 
L 1831 4666 
z
" transform="scale(0.015625)"/>
      </defs>
      <use xlink:href="#DejaVuSans-52"/>
      <use xlink:href="#DejaVuSans-4e" x="69.482422"/>
      <use xlink:href="#DejaVuSans-45" x="144.287109"/>
      <use xlink:href="#DejaVuSans-41" x="207.470703"/>
     </g>
    </g>
    <g id="line2d_32">
     <path d="M 275.95077 28.496562 
L 285.95077 28.496562 
L 295.95077 28.496562 
" style="fill: none; stroke: #ff0000; stroke-opacity: 0.5; stroke-width: 2.1; stroke-linecap: square"/>
    </g>
    <g id="text_18">
     <!-- BURNEA -->
     <g transform="translate(303.95077 31.996562) scale(0.1 -0.1)">
      <defs>
       <path id="DejaVuSans-42" d="M 1259 2228 
L 1259 519 
L 2272 519 
Q 2781 519 3026 730 
Q 3272 941 3272 1375 
Q 3272 1813 3026 2020 
Q 2781 2228 2272 2228 
L 1259 2228 
z
M 1259 4147 
L 1259 2741 
L 2194 2741 
Q 2656 2741 2882 2914 
Q 3109 3088 3109 3444 
Q 3109 3797 2882 3972 
Q 2656 4147 2194 4147 
L 1259 4147 
z
M 628 4666 
L 2241 4666 
Q 2963 4666 3353 4366 
Q 3744 4066 3744 3513 
Q 3744 3084 3544 2831 
Q 3344 2578 2956 2516 
Q 3422 2416 3680 2098 
Q 3938 1781 3938 1306 
Q 3938 681 3513 340 
Q 3088 0 2303 0 
L 628 0 
L 628 4666 
z
" transform="scale(0.015625)"/>
       <path id="DejaVuSans-55" d="M 556 4666 
L 1191 4666 
L 1191 1831 
Q 1191 1081 1462 751 
Q 1734 422 2344 422 
Q 2950 422 3222 751 
Q 3494 1081 3494 1831 
L 3494 4666 
L 4128 4666 
L 4128 1753 
Q 4128 841 3676 375 
Q 3225 -91 2344 -91 
Q 1459 -91 1007 375 
Q 556 841 556 1753 
L 556 4666 
z
" transform="scale(0.015625)"/>
      </defs>
      <use xlink:href="#DejaVuSans-42"/>
      <use xlink:href="#DejaVuSans-55" x="68.603516"/>
      <use xlink:href="#DejaVuSans-52" x="141.796875"/>
      <use xlink:href="#DejaVuSans-4e" x="211.279297"/>
      <use xlink:href="#DejaVuSans-45" x="286.083984"/>
      <use xlink:href="#DejaVuSans-41" x="349.267578"/>
     </g>
    </g>
   </g>
  </g>
 </g>
 <defs>
  <clipPath id="p0c017a09fd">
   <rect x="38.502813" y="0.72" width="316.216707" height="147.64327"/>
  </clipPath>
 </defs>
</svg>
