<?xml version="1.0" encoding="utf-8" standalone="no"?>
<!DOCTYPE svg PUBLIC "-//W3C//DTD SVG 1.1//EN"
  "http://www.w3.org/Graphics/SVG/1.1/DTD/svg11.dtd">
<svg xmlns:xlink="http://www.w3.org/1999/xlink" width="355.43952pt" height="175.43952pt" viewBox="0 0 355.43952 175.43952" xmlns="http://www.w3.org/2000/svg" version="1.1">
 <metadata>
  <rdf:RDF xmlns:dc="http://purl.org/dc/elements/1.1/" xmlns:cc="http://creativecommons.org/ns#" xmlns:rdf="http://www.w3.org/1999/02/22-rdf-syntax-ns#">
   <cc:Work>
    <dc:type rdf:resource="http://purl.org/dc/dcmitype/StillImage"/>
    <dc:date>2023-09-09T18:29:32.717359</dc:date>
    <dc:format>image/svg+xml</dc:format>
    <dc:creator>
     <cc:Agent>
      <dc:title>Matplotlib v3.7.2, https://matplotlib.org/</dc:title>
     </cc:Agent>
    </dc:creator>
   </cc:Work>
  </rdf:RDF>
 </metadata>
 <defs>
  <style type="text/css">*{stroke-linejoin: round; stroke-linecap: butt}</style>
 </defs>
 <g id="figure_1">
  <g id="patch_1">
   <path d="M 0 175.43952 
L 355.43952 175.43952 
L 355.43952 0 
L 0 0 
L 0 175.43952 
z
" style="fill: none"/>
  </g>
  <g id="axes_1">
   <g id="patch_2">
    <path d="M 23.760625 148.36327 
L 354.71952 148.36327 
L 354.71952 0.72 
L 23.760625 0.72 
L 23.760625 148.36327 
z
" style="fill: none"/>
   </g>
   <g id="matplotlib.axis_1">
    <g id="xtick_1">
     <g id="line2d_1">
      <path d="M 23.760625 148.36327 
L 23.760625 0.72 
" clip-path="url(#pb3b4997595)" style="fill: none; stroke-dasharray: 0.8,1.32; stroke-dashoffset: 0; stroke: #000000; stroke-opacity: 0.5; stroke-width: 0.8"/>
     </g>
     <g id="line2d_2">
      <defs>
       <path id="m59f860f10a" d="M 0 0 
L 0 3.5 
" style="stroke: #000000; stroke-width: 0.8"/>
      </defs>
      <g>
       <use xlink:href="#m59f860f10a" x="23.760625" y="148.36327" style="stroke: #000000; stroke-width: 0.8"/>
      </g>
     </g>
     <g id="text_1">
      <!-- 0 -->
      <g transform="translate(20.579375 162.961707) scale(0.1 -0.1)">
       <defs>
        <path id="DejaVuSans-30" d="M 2034 4250 
Q 1547 4250 1301 3770 
Q 1056 3291 1056 2328 
Q 1056 1369 1301 889 
Q 1547 409 2034 409 
Q 2525 409 2770 889 
Q 3016 1369 3016 2328 
Q 3016 3291 2770 3770 
Q 2525 4250 2034 4250 
z
M 2034 4750 
Q 2819 4750 3233 4129 
Q 3647 3509 3647 2328 
Q 3647 1150 3233 529 
Q 2819 -91 2034 -91 
Q 1250 -91 836 529 
Q 422 1150 422 2328 
Q 422 3509 836 4129 
Q 1250 4750 2034 4750 
z
" transform="scale(0.015625)"/>
       </defs>
       <use xlink:href="#DejaVuSans-30"/>
      </g>
     </g>
    </g>
    <g id="xtick_2">
     <g id="line2d_3">
      <path d="M 74.311809 148.36327 
L 74.311809 0.72 
" clip-path="url(#pb3b4997595)" style="fill: none; stroke-dasharray: 0.8,1.32; stroke-dashoffset: 0; stroke: #000000; stroke-opacity: 0.5; stroke-width: 0.8"/>
     </g>
     <g id="line2d_4">
      <g>
       <use xlink:href="#m59f860f10a" x="74.311809" y="148.36327" style="stroke: #000000; stroke-width: 0.8"/>
      </g>
     </g>
     <g id="text_2">
      <!-- 5 -->
      <g transform="translate(71.130559 162.961707) scale(0.1 -0.1)">
       <defs>
        <path id="DejaVuSans-35" d="M 691 4666 
L 3169 4666 
L 3169 4134 
L 1269 4134 
L 1269 2991 
Q 1406 3038 1543 3061 
Q 1681 3084 1819 3084 
Q 2600 3084 3056 2656 
Q 3513 2228 3513 1497 
Q 3513 744 3044 326 
Q 2575 -91 1722 -91 
Q 1428 -91 1123 -41 
Q 819 9 494 109 
L 494 744 
Q 775 591 1075 516 
Q 1375 441 1709 441 
Q 2250 441 2565 725 
Q 2881 1009 2881 1497 
Q 2881 1984 2565 2268 
Q 2250 2553 1709 2553 
Q 1456 2553 1204 2497 
Q 953 2441 691 2322 
L 691 4666 
z
" transform="scale(0.015625)"/>
       </defs>
       <use xlink:href="#DejaVuSans-35"/>
      </g>
     </g>
    </g>
    <g id="xtick_3">
     <g id="line2d_5">
      <path d="M 124.862993 148.36327 
L 124.862993 0.72 
" clip-path="url(#pb3b4997595)" style="fill: none; stroke-dasharray: 0.8,1.32; stroke-dashoffset: 0; stroke: #000000; stroke-opacity: 0.5; stroke-width: 0.8"/>
     </g>
     <g id="line2d_6">
      <g>
       <use xlink:href="#m59f860f10a" x="124.862993" y="148.36327" style="stroke: #000000; stroke-width: 0.8"/>
      </g>
     </g>
     <g id="text_3">
      <!-- 10 -->
      <g transform="translate(118.500493 162.961707) scale(0.1 -0.1)">
       <defs>
        <path id="DejaVuSans-31" d="M 794 531 
L 1825 531 
L 1825 4091 
L 703 3866 
L 703 4441 
L 1819 4666 
L 2450 4666 
L 2450 531 
L 3481 531 
L 3481 0 
L 794 0 
L 794 531 
z
" transform="scale(0.015625)"/>
       </defs>
       <use xlink:href="#DejaVuSans-31"/>
       <use xlink:href="#DejaVuSans-30" x="63.623047"/>
      </g>
     </g>
    </g>
    <g id="xtick_4">
     <g id="line2d_7">
      <path d="M 175.414178 148.36327 
L 175.414178 0.72 
" clip-path="url(#pb3b4997595)" style="fill: none; stroke-dasharray: 0.8,1.32; stroke-dashoffset: 0; stroke: #000000; stroke-opacity: 0.5; stroke-width: 0.8"/>
     </g>
     <g id="line2d_8">
      <g>
       <use xlink:href="#m59f860f10a" x="175.414178" y="148.36327" style="stroke: #000000; stroke-width: 0.8"/>
      </g>
     </g>
     <g id="text_4">
      <!-- 15 -->
      <g transform="translate(169.051678 162.961707) scale(0.1 -0.1)">
       <use xlink:href="#DejaVuSans-31"/>
       <use xlink:href="#DejaVuSans-35" x="63.623047"/>
      </g>
     </g>
    </g>
    <g id="xtick_5">
     <g id="line2d_9">
      <path d="M 225.965362 148.36327 
L 225.965362 0.72 
" clip-path="url(#pb3b4997595)" style="fill: none; stroke-dasharray: 0.8,1.32; stroke-dashoffset: 0; stroke: #000000; stroke-opacity: 0.5; stroke-width: 0.8"/>
     </g>
     <g id="line2d_10">
      <g>
       <use xlink:href="#m59f860f10a" x="225.965362" y="148.36327" style="stroke: #000000; stroke-width: 0.8"/>
      </g>
     </g>
     <g id="text_5">
      <!-- 20 -->
      <g transform="translate(219.602862 162.961707) scale(0.1 -0.1)">
       <defs>
        <path id="DejaVuSans-32" d="M 1228 531 
L 3431 531 
L 3431 0 
L 469 0 
L 469 531 
Q 828 903 1448 1529 
Q 2069 2156 2228 2338 
Q 2531 2678 2651 2914 
Q 2772 3150 2772 3378 
Q 2772 3750 2511 3984 
Q 2250 4219 1831 4219 
Q 1534 4219 1204 4116 
Q 875 4013 500 3803 
L 500 4441 
Q 881 4594 1212 4672 
Q 1544 4750 1819 4750 
Q 2544 4750 2975 4387 
Q 3406 4025 3406 3419 
Q 3406 3131 3298 2873 
Q 3191 2616 2906 2266 
Q 2828 2175 2409 1742 
Q 1991 1309 1228 531 
z
" transform="scale(0.015625)"/>
       </defs>
       <use xlink:href="#DejaVuSans-32"/>
       <use xlink:href="#DejaVuSans-30" x="63.623047"/>
      </g>
     </g>
    </g>
    <g id="xtick_6">
     <g id="line2d_11">
      <path d="M 276.516546 148.36327 
L 276.516546 0.72 
" clip-path="url(#pb3b4997595)" style="fill: none; stroke-dasharray: 0.8,1.32; stroke-dashoffset: 0; stroke: #000000; stroke-opacity: 0.5; stroke-width: 0.8"/>
     </g>
     <g id="line2d_12">
      <g>
       <use xlink:href="#m59f860f10a" x="276.516546" y="148.36327" style="stroke: #000000; stroke-width: 0.8"/>
      </g>
     </g>
     <g id="text_6">
      <!-- 25 -->
      <g transform="translate(270.154046 162.961707) scale(0.1 -0.1)">
       <use xlink:href="#DejaVuSans-32"/>
       <use xlink:href="#DejaVuSans-35" x="63.623047"/>
      </g>
     </g>
    </g>
    <g id="xtick_7">
     <g id="line2d_13">
      <path d="M 327.06773 148.36327 
L 327.06773 0.72 
" clip-path="url(#pb3b4997595)" style="fill: none; stroke-dasharray: 0.8,1.32; stroke-dashoffset: 0; stroke: #000000; stroke-opacity: 0.5; stroke-width: 0.8"/>
     </g>
     <g id="line2d_14">
      <g>
       <use xlink:href="#m59f860f10a" x="327.06773" y="148.36327" style="stroke: #000000; stroke-width: 0.8"/>
      </g>
     </g>
     <g id="text_7">
      <!-- 30 -->
      <g transform="translate(320.70523 162.961707) scale(0.1 -0.1)">
       <defs>
        <path id="DejaVuSans-33" d="M 2597 2516 
Q 3050 2419 3304 2112 
Q 3559 1806 3559 1356 
Q 3559 666 3084 287 
Q 2609 -91 1734 -91 
Q 1441 -91 1130 -33 
Q 819 25 488 141 
L 488 750 
Q 750 597 1062 519 
Q 1375 441 1716 441 
Q 2309 441 2620 675 
Q 2931 909 2931 1356 
Q 2931 1769 2642 2001 
Q 2353 2234 1838 2234 
L 1294 2234 
L 1294 2753 
L 1863 2753 
Q 2328 2753 2575 2939 
Q 2822 3125 2822 3475 
Q 2822 3834 2567 4026 
Q 2313 4219 1838 4219 
Q 1578 4219 1281 4162 
Q 984 4106 628 3988 
L 628 4550 
Q 988 4650 1302 4700 
Q 1616 4750 1894 4750 
Q 2613 4750 3031 4423 
Q 3450 4097 3450 3541 
Q 3450 3153 3228 2886 
Q 3006 2619 2597 2516 
z
" transform="scale(0.015625)"/>
       </defs>
       <use xlink:href="#DejaVuSans-33"/>
       <use xlink:href="#DejaVuSans-30" x="63.623047"/>
      </g>
     </g>
    </g>
    <g id="text_8">
     <!-- Zeit [s] -->
     <g transform="translate(171.293979 172.639832) scale(0.1 -0.1)">
      <defs>
       <path id="DejaVuSans-5a" d="M 359 4666 
L 4025 4666 
L 4025 4184 
L 1075 531 
L 4097 531 
L 4097 0 
L 288 0 
L 288 481 
L 3238 4134 
L 359 4134 
L 359 4666 
z
" transform="scale(0.015625)"/>
       <path id="DejaVuSans-65" d="M 3597 1894 
L 3597 1613 
L 953 1613 
Q 991 1019 1311 708 
Q 1631 397 2203 397 
Q 2534 397 2845 478 
Q 3156 559 3463 722 
L 3463 178 
Q 3153 47 2828 -22 
Q 2503 -91 2169 -91 
Q 1331 -91 842 396 
Q 353 884 353 1716 
Q 353 2575 817 3079 
Q 1281 3584 2069 3584 
Q 2775 3584 3186 3129 
Q 3597 2675 3597 1894 
z
M 3022 2063 
Q 3016 2534 2758 2815 
Q 2500 3097 2075 3097 
Q 1594 3097 1305 2825 
Q 1016 2553 972 2059 
L 3022 2063 
z
" transform="scale(0.015625)"/>
       <path id="DejaVuSans-69" d="M 603 3500 
L 1178 3500 
L 1178 0 
L 603 0 
L 603 3500 
z
M 603 4863 
L 1178 4863 
L 1178 4134 
L 603 4134 
L 603 4863 
z
" transform="scale(0.015625)"/>
       <path id="DejaVuSans-74" d="M 1172 4494 
L 1172 3500 
L 2356 3500 
L 2356 3053 
L 1172 3053 
L 1172 1153 
Q 1172 725 1289 603 
Q 1406 481 1766 481 
L 2356 481 
L 2356 0 
L 1766 0 
Q 1100 0 847 248 
Q 594 497 594 1153 
L 594 3053 
L 172 3053 
L 172 3500 
L 594 3500 
L 594 4494 
L 1172 4494 
z
" transform="scale(0.015625)"/>
       <path id="DejaVuSans-20" transform="scale(0.015625)"/>
       <path id="DejaVuSans-5b" d="M 550 4863 
L 1875 4863 
L 1875 4416 
L 1125 4416 
L 1125 -397 
L 1875 -397 
L 1875 -844 
L 550 -844 
L 550 4863 
z
" transform="scale(0.015625)"/>
       <path id="DejaVuSans-73" d="M 2834 3397 
L 2834 2853 
Q 2591 2978 2328 3040 
Q 2066 3103 1784 3103 
Q 1356 3103 1142 2972 
Q 928 2841 928 2578 
Q 928 2378 1081 2264 
Q 1234 2150 1697 2047 
L 1894 2003 
Q 2506 1872 2764 1633 
Q 3022 1394 3022 966 
Q 3022 478 2636 193 
Q 2250 -91 1575 -91 
Q 1294 -91 989 -36 
Q 684 19 347 128 
L 347 722 
Q 666 556 975 473 
Q 1284 391 1588 391 
Q 1994 391 2212 530 
Q 2431 669 2431 922 
Q 2431 1156 2273 1281 
Q 2116 1406 1581 1522 
L 1381 1569 
Q 847 1681 609 1914 
Q 372 2147 372 2553 
Q 372 3047 722 3315 
Q 1072 3584 1716 3584 
Q 2034 3584 2315 3537 
Q 2597 3491 2834 3397 
z
" transform="scale(0.015625)"/>
       <path id="DejaVuSans-5d" d="M 1947 4863 
L 1947 -844 
L 622 -844 
L 622 -397 
L 1369 -397 
L 1369 4416 
L 622 4416 
L 622 4863 
L 1947 4863 
z
" transform="scale(0.015625)"/>
      </defs>
      <use xlink:href="#DejaVuSans-5a"/>
      <use xlink:href="#DejaVuSans-65" x="68.505859"/>
      <use xlink:href="#DejaVuSans-69" x="130.029297"/>
      <use xlink:href="#DejaVuSans-74" x="157.8125"/>
      <use xlink:href="#DejaVuSans-20" x="197.021484"/>
      <use xlink:href="#DejaVuSans-5b" x="228.808594"/>
      <use xlink:href="#DejaVuSans-73" x="267.822266"/>
      <use xlink:href="#DejaVuSans-5d" x="319.921875"/>
     </g>
    </g>
   </g>
   <g id="matplotlib.axis_2">
    <g id="ytick_1">
     <g id="line2d_15">
      <path d="M 23.760625 144.982126 
L 354.71952 144.982126 
" clip-path="url(#pb3b4997595)" style="fill: none; stroke-dasharray: 0.8,1.32; stroke-dashoffset: 0; stroke: #000000; stroke-opacity: 0.5; stroke-width: 0.8"/>
     </g>
     <g id="line2d_16">
      <defs>
       <path id="m7fa41abef3" d="M 0 0 
L -3.5 0 
" style="stroke: #000000; stroke-width: 0.8"/>
      </defs>
      <g>
       <use xlink:href="#m7fa41abef3" x="23.760625" y="144.982126" style="stroke: #000000; stroke-width: 0.8"/>
      </g>
     </g>
     <g id="text_9">
      <!-- 0 -->
      <g transform="translate(10.398125 148.781345) scale(0.1 -0.1)">
       <use xlink:href="#DejaVuSans-30"/>
      </g>
     </g>
    </g>
    <g id="ytick_2">
     <g id="line2d_17">
      <path d="M 23.760625 105.684982 
L 354.71952 105.684982 
" clip-path="url(#pb3b4997595)" style="fill: none; stroke-dasharray: 0.8,1.32; stroke-dashoffset: 0; stroke: #000000; stroke-opacity: 0.5; stroke-width: 0.8"/>
     </g>
     <g id="line2d_18">
      <g>
       <use xlink:href="#m7fa41abef3" x="23.760625" y="105.684982" style="stroke: #000000; stroke-width: 0.8"/>
      </g>
     </g>
     <g id="text_10">
      <!-- 1 -->
      <g transform="translate(10.398125 109.4842) scale(0.1 -0.1)">
       <use xlink:href="#DejaVuSans-31"/>
      </g>
     </g>
    </g>
    <g id="ytick_3">
     <g id="line2d_19">
      <path d="M 23.760625 66.387837 
L 354.71952 66.387837 
" clip-path="url(#pb3b4997595)" style="fill: none; stroke-dasharray: 0.8,1.32; stroke-dashoffset: 0; stroke: #000000; stroke-opacity: 0.5; stroke-width: 0.8"/>
     </g>
     <g id="line2d_20">
      <g>
       <use xlink:href="#m7fa41abef3" x="23.760625" y="66.387837" style="stroke: #000000; stroke-width: 0.8"/>
      </g>
     </g>
     <g id="text_11">
      <!-- 2 -->
      <g transform="translate(10.398125 70.187056) scale(0.1 -0.1)">
       <use xlink:href="#DejaVuSans-32"/>
      </g>
     </g>
    </g>
    <g id="ytick_4">
     <g id="line2d_21">
      <path d="M 23.760625 27.090692 
L 354.71952 27.090692 
" clip-path="url(#pb3b4997595)" style="fill: none; stroke-dasharray: 0.8,1.32; stroke-dashoffset: 0; stroke: #000000; stroke-opacity: 0.5; stroke-width: 0.8"/>
     </g>
     <g id="line2d_22">
      <g>
       <use xlink:href="#m7fa41abef3" x="23.760625" y="27.090692" style="stroke: #000000; stroke-width: 0.8"/>
      </g>
     </g>
     <g id="text_12">
      <!-- 3 -->
      <g transform="translate(10.398125 30.889911) scale(0.1 -0.1)">
       <use xlink:href="#DejaVuSans-33"/>
      </g>
     </g>
    </g>
    <g id="text_13">
     <!-- Kraft [N] -->
     <g transform="translate(8.318438 95.804135) rotate(-90) scale(0.1 -0.1)">
      <defs>
       <path id="DejaVuSans-4b" d="M 628 4666 
L 1259 4666 
L 1259 2694 
L 3353 4666 
L 4166 4666 
L 1850 2491 
L 4331 0 
L 3500 0 
L 1259 2247 
L 1259 0 
L 628 0 
L 628 4666 
z
" transform="scale(0.015625)"/>
       <path id="DejaVuSans-72" d="M 2631 2963 
Q 2534 3019 2420 3045 
Q 2306 3072 2169 3072 
Q 1681 3072 1420 2755 
Q 1159 2438 1159 1844 
L 1159 0 
L 581 0 
L 581 3500 
L 1159 3500 
L 1159 2956 
Q 1341 3275 1631 3429 
Q 1922 3584 2338 3584 
Q 2397 3584 2469 3576 
Q 2541 3569 2628 3553 
L 2631 2963 
z
" transform="scale(0.015625)"/>
       <path id="DejaVuSans-61" d="M 2194 1759 
Q 1497 1759 1228 1600 
Q 959 1441 959 1056 
Q 959 750 1161 570 
Q 1363 391 1709 391 
Q 2188 391 2477 730 
Q 2766 1069 2766 1631 
L 2766 1759 
L 2194 1759 
z
M 3341 1997 
L 3341 0 
L 2766 0 
L 2766 531 
Q 2569 213 2275 61 
Q 1981 -91 1556 -91 
Q 1019 -91 701 211 
Q 384 513 384 1019 
Q 384 1609 779 1909 
Q 1175 2209 1959 2209 
L 2766 2209 
L 2766 2266 
Q 2766 2663 2505 2880 
Q 2244 3097 1772 3097 
Q 1472 3097 1187 3025 
Q 903 2953 641 2809 
L 641 3341 
Q 956 3463 1253 3523 
Q 1550 3584 1831 3584 
Q 2591 3584 2966 3190 
Q 3341 2797 3341 1997 
z
" transform="scale(0.015625)"/>
       <path id="DejaVuSans-66" d="M 2375 4863 
L 2375 4384 
L 1825 4384 
Q 1516 4384 1395 4259 
Q 1275 4134 1275 3809 
L 1275 3500 
L 2222 3500 
L 2222 3053 
L 1275 3053 
L 1275 0 
L 697 0 
L 697 3053 
L 147 3053 
L 147 3500 
L 697 3500 
L 697 3744 
Q 697 4328 969 4595 
Q 1241 4863 1831 4863 
L 2375 4863 
z
" transform="scale(0.015625)"/>
       <path id="DejaVuSans-4e" d="M 628 4666 
L 1478 4666 
L 3547 763 
L 3547 4666 
L 4159 4666 
L 4159 0 
L 3309 0 
L 1241 3903 
L 1241 0 
L 628 0 
L 628 4666 
z
" transform="scale(0.015625)"/>
      </defs>
      <use xlink:href="#DejaVuSans-4b"/>
      <use xlink:href="#DejaVuSans-72" x="65.576172"/>
      <use xlink:href="#DejaVuSans-61" x="106.689453"/>
      <use xlink:href="#DejaVuSans-66" x="167.96875"/>
      <use xlink:href="#DejaVuSans-74" x="201.423828"/>
      <use xlink:href="#DejaVuSans-20" x="240.632812"/>
      <use xlink:href="#DejaVuSans-5b" x="272.419922"/>
      <use xlink:href="#DejaVuSans-4e" x="311.433594"/>
      <use xlink:href="#DejaVuSans-5d" x="386.238281"/>
     </g>
    </g>
   </g>
   <g id="line2d_23">
    <path d="M 23.760625 144.982126 
L 354.71952 144.982126 
L 354.71952 144.982126 
" clip-path="url(#pb3b4997595)" style="fill: none; stroke: #0000ff; stroke-opacity: 0.5; stroke-width: 2.1; stroke-linecap: square"/>
   </g>
   <g id="line2d_24">
    <path d="M 23.760625 21.207787 
L 23.823183 21.183356 
L 23.935733 20.083275 
L 24.00659 22.34598 
L 24.132448 19.089734 
L 24.192763 20.252282 
L 24.276805 21.625515 
L 24.415144 16.686307 
L 24.497167 18.19917 
L 24.688173 14.029375 
L 24.92515 20.6891 
L 25.006073 21.957755 
L 25.088114 18.820479 
L 25.210508 20.415624 
L 25.535928 29.46229 
L 25.881353 21.479163 
L 26.08524 24.449925 
L 26.21005 24.07403 
L 26.37165 26.461045 
L 26.514124 27.450809 
L 26.616127 34.036797 
L 26.698566 34.338432 
L 26.861533 33.603758 
L 27.125025 22.91519 
L 27.206464 23.330088 
L 27.278716 24.9565 
L 27.288254 23.738854 
L 27.615895 22.056898 
L 27.703006 19.961016 
L 27.882467 29.970844 
L 28.046053 29.205278 
L 28.12738 30.698074 
L 28.290441 24.60348 
L 28.458842 28.930463 
L 28.962338 11.648305 
L 29.085849 13.561574 
L 29.132763 16.596146 
L 29.211111 14.621714 
L 29.311899 14.945473 
L 29.393432 17.458701 
L 29.556643 15.145392 
L 29.720662 22.707354 
L 29.969324 18.848785 
L 30.067242 19.844506 
L 30.23093 16.160415 
L 30.487515 22.451797 
L 30.739785 17.229598 
L 30.918626 16.625845 
L 31.14877 20.861858 
L 31.413049 14.445908 
L 31.50373 13.802239 
L 31.657004 19.052145 
L 31.73858 17.030143 
L 31.821573 18.541903 
L 31.908879 17.760998 
L 32.007357 15.221111 
L 32.168199 20.409469 
L 32.252556 21.592543 
L 32.414672 16.360592 
L 32.577689 11.868081 
L 32.883298 17.168905 
L 32.944621 20.399563 
L 33.005759 15.846651 
L 33.148205 19.309708 
L 33.333061 31.029887 
L 33.432674 30.465166 
L 33.677397 24.108448 
L 33.865427 21.507137 
L 34.013422 16.242759 
L 34.436736 20.283988 
L 34.516678 18.99626 
L 34.605054 19.624551 
L 34.704844 23.259498 
L 34.788095 25.634708 
L 34.8775 24.771771 
L 34.890605 28.499414 
L 34.953686 21.406776 
L 35.052404 21.549443 
L 35.199052 18.841624 
L 35.304696 20.120434 
L 35.384433 19.711551 
L 35.453563 20.404083 
L 35.646427 18.943261 
L 35.720891 19.401057 
L 35.82105 20.023653 
L 35.840116 19.550482 
L 35.96619 12.352531 
L 36.082219 16.799829 
L 36.082802 16.759895 
L 36.39756 21.332221 
L 36.582685 13.168969 
L 36.845257 20.349654 
L 36.90643 18.793731 
L 37.071644 14.255089 
L 37.212914 17.363688 
L 37.402668 23.064587 
L 37.517816 22.712885 
L 37.621356 23.520021 
L 37.723579 21.247666 
L 37.856852 22.90017 
L 37.917721 21.997196 
L 38.109142 14.979449 
L 38.260876 17.68426 
L 38.333526 15.54879 
L 38.395479 16.422915 
L 38.740482 30.415076 
L 38.863743 29.253231 
L 39.035633 25.188343 
L 39.147945 25.579126 
L 39.229192 26.296979 
L 39.576335 7.11364 
L 40.08532 20.732345 
L 40.290573 16.455614 
L 40.349975 17.707402 
L 40.431827 17.665291 
L 40.512802 18.66972 
L 40.698216 14.449668 
L 40.89984 11.531865 
L 41.009454 14.116566 
L 41.102783 14.87978 
L 41.266267 25.03548 
L 41.383374 22.339461 
L 41.430343 23.197593 
L 41.637676 24.236663 
L 41.695542 23.0795 
L 41.872135 27.604521 
L 42.082347 21.200221 
L 42.143258 21.345968 
L 42.287129 18.400638 
L 42.367311 19.1573 
L 42.531452 24.261746 
L 42.715215 20.808486 
L 42.877806 26.049502 
L 42.999882 24.466139 
L 43.062169 27.92514 
L 43.183323 28.241098 
L 43.227384 26.655891 
L 43.366873 26.187454 
L 43.42792 25.333363 
L 43.489487 26.404406 
L 43.632016 24.857213 
L 43.816493 21.992501 
L 44.022802 23.542827 
L 44.14714 20.833491 
L 44.248729 22.398769 
L 44.320804 20.193713 
L 44.405937 22.232159 
L 44.549708 21.633641 
L 44.6626 29.143345 
L 44.74369 28.503891 
L 45.162726 23.341633 
L 45.216729 24.474842 
L 45.236388 23.714746 
L 45.318112 23.810715 
L 45.509011 22.347165 
L 45.629216 19.293688 
L 45.746367 21.316723 
L 45.911996 26.085106 
L 46.238181 29.575563 
L 46.484993 21.677947 
L 46.502861 22.820542 
L 46.583868 21.788272 
L 46.74714 24.282346 
L 46.869218 22.967409 
L 46.934544 23.034849 
L 47.013164 22.755019 
L 47.078865 20.516327 
L 47.200603 21.467322 
L 47.220071 21.168891 
L 47.364474 28.229226 
L 47.445819 27.479536 
L 47.504814 26.346463 
L 47.669901 25.458276 
L 47.790456 20.982709 
L 47.935237 25.772262 
L 48.443515 18.153827 
L 48.628034 23.030585 
L 48.774298 15.462631 
L 48.87229 18.628247 
L 49.013884 19.035306 
L 49.116894 20.112837 
L 49.136391 24.176916 
L 49.567403 22.974476 
L 50.012448 23.058383 
L 50.487792 25.856174 
L 50.932101 22.994555 
L 51.051123 16.855861 
L 51.29739 16.208948 
L 51.602527 25.549388 
L 51.624532 23.747568 
L 51.805988 19.361483 
L 51.86852 20.251662 
L 51.887668 22.701619 
L 52.175419 26.15271 
L 52.458523 21.883983 
L 52.561336 24.330547 
L 52.73205 22.287045 
L 53.091121 10.979224 
L 53.253017 12.871224 
L 53.445174 14.037826 
L 53.559067 14.371509 
L 53.579758 13.841021 
L 53.744641 23.382017 
L 53.905778 18.193932 
L 53.9885 18.493412 
L 54.190851 20.516167 
L 54.298301 20.242424 
L 54.354312 18.865775 
L 54.599804 25.270637 
L 54.676301 24.325045 
L 54.923489 17.845703 
L 55.027711 19.143015 
L 55.084034 21.522717 
L 55.165946 21.374585 
L 55.534381 16.468255 
L 55.756671 21.283202 
L 55.858339 20.607141 
L 56.021143 21.074664 
L 56.125194 18.083877 
L 56.22471 11.125352 
L 56.285464 12.803169 
L 56.449466 21.490941 
L 56.775726 14.195671 
L 56.940797 19.69504 
L 57.04064 25.510762 
L 57.20398 19.173592 
L 57.285821 19.548912 
L 57.366327 23.742273 
L 57.448467 22.784928 
L 57.590095 20.002983 
L 57.610286 20.679662 
L 57.714299 20.392642 
L 57.887989 19.441666 
L 57.888329 17.330452 
L 57.988165 20.443298 
L 58.063516 21.139599 
L 58.162769 21.014886 
L 58.293752 21.38144 
L 58.456132 31.898875 
L 58.658109 30.547058 
L 58.861846 25.531725 
L 58.88216 27.356516 
L 58.962964 25.128938 
L 59.046981 23.499527 
L 59.147004 25.593729 
L 59.390979 15.967827 
L 59.61421 20.153312 
L 59.637041 20.181093 
L 59.98528 17.278339 
L 60.143668 20.083 
L 60.310567 23.595137 
L 60.532023 21.152102 
L 60.577034 22.172085 
L 60.81704 29.761586 
L 61.002225 30.201833 
L 61.206519 25.406104 
L 61.347068 30.606915 
L 61.571628 20.801164 
L 61.826621 21.677452 
L 62.00296 20.867166 
L 62.060251 22.303927 
L 62.183349 19.354257 
L 62.38756 23.17128 
L 62.428641 23.704328 
L 62.510793 23.472891 
L 62.630997 22.961922 
L 62.85943 18.072945 
L 63.002602 19.477708 
L 63.088499 21.490577 
L 63.36992 12.829567 
L 63.494618 13.06057 
L 63.616323 19.575427 
L 63.676017 19.162357 
L 63.778258 22.333478 
L 63.898241 20.934647 
L 63.945439 18.986002 
L 64.105591 21.982887 
L 64.188345 20.924132 
L 64.452366 10.479705 
L 65.443801 22.577426 
L 65.534584 19.150374 
L 65.634142 24.520334 
L 65.765786 21.768104 
L 65.80296 22.124448 
L 65.924271 22.93335 
L 65.961161 21.756618 
L 66.044124 21.89763 
L 66.315843 24.746883 
L 66.414361 23.196116 
L 66.766334 11.706483 
L 66.88192 14.533056 
L 66.983514 13.607203 
L 67.088108 11.590759 
L 67.133888 8.206021 
L 67.248718 8.926832 
L 67.310084 10.699318 
L 67.463609 10.667347 
L 67.515075 8.160499 
L 67.635634 9.30765 
L 67.655757 11.230292 
L 67.78838 10.841026 
L 68.167243 4.101144 
L 68.411599 12.902477 
L 68.492463 11.815811 
L 68.742327 22.317498 
L 68.843028 22.402061 
L 69.168425 28.563926 
L 69.597994 18.841562 
L 69.679822 21.952349 
L 69.741898 20.568485 
L 70.108761 17.415232 
L 70.17362 20.045541 
L 70.273914 19.654758 
L 70.393871 18.882718 
L 70.517072 22.552764 
L 70.599301 23.65548 
L 70.68106 22.731015 
L 70.885362 17.182692 
L 70.944735 20.77613 
L 71.030155 19.620341 
L 71.088505 22.072621 
L 71.233558 23.379161 
L 71.374788 17.344041 
L 71.460565 16.77452 
L 71.68137 27.744216 
L 71.828209 27.817786 
L 71.848253 28.37746 
L 72.032043 26.269601 
L 72.19707 31.168553 
L 72.296796 30.521962 
L 72.703359 18.258528 
L 72.785154 18.216148 
L 72.953688 17.048953 
L 73.030493 17.09855 
L 73.132494 18.238655 
L 73.294482 17.674421 
L 73.464518 22.390763 
L 73.546908 19.568485 
L 73.630575 23.273628 
L 73.790144 25.377915 
L 73.949722 16.5776 
L 74.03106 18.524172 
L 74.152915 22.119297 
L 74.214364 20.712979 
L 74.397055 25.383484 
L 74.560308 16.675819 
L 74.764105 22.513573 
L 74.887264 20.199648 
L 74.972092 22.574884 
L 75.060402 21.997844 
L 75.2043 19.773737 
L 75.397555 31.30017 
L 75.825388 23.849121 
L 75.909279 24.339082 
L 76.009732 24.11624 
L 76.173566 17.039228 
L 76.315224 15.509274 
L 76.499197 15.126144 
L 76.702115 14.000238 
L 76.906153 9.393269 
L 77.028703 10.243121 
L 77.297276 17.888835 
L 77.376761 18.692844 
L 77.506639 17.079775 
L 77.744933 20.463931 
L 77.948956 20.419359 
L 78.192706 16.227458 
L 78.2757 19.823979 
L 78.37287 17.728599 
L 78.644411 24.229439 
L 78.690642 23.051631 
L 78.787899 24.745753 
L 78.929172 23.712958 
L 79.092598 25.73285 
L 79.15602 25.347768 
L 79.197889 29.716031 
L 79.26305 27.345868 
L 79.360907 25.363858 
L 79.52559 30.337525 
L 79.605287 28.093995 
L 79.769122 32.977161 
L 79.852939 29.235274 
L 80.040915 24.463492 
L 80.195982 28.209589 
L 80.367368 15.917315 
L 80.705177 21.554991 
L 80.788472 22.657143 
L 80.867588 22.259886 
L 81.033533 18.337152 
L 81.295291 29.210945 
L 81.377865 26.332131 
L 81.623614 28.70513 
L 81.707348 27.291741 
L 81.887334 30.838009 
L 81.968531 29.938477 
L 82.131161 23.523073 
L 82.213052 22.316942 
L 82.294174 24.564967 
L 82.642227 19.327116 
L 82.722685 21.789425 
L 82.805485 20.944851 
L 83.069424 26.675114 
L 83.150899 21.767875 
L 83.313442 28.241484 
L 83.395328 27.530468 
L 83.486848 30.719811 
L 83.641428 23.415767 
L 83.723823 24.619592 
L 83.84569 23.433559 
L 83.904713 21.513925 
L 83.989909 24.31469 
L 84.169342 16.046474 
L 84.232023 20.667795 
L 84.321583 18.594804 
L 84.496114 23.762059 
L 84.577692 22.056583 
L 84.661534 22.758552 
L 84.823257 22.259223 
L 85.007991 27.07561 
L 85.171928 19.901622 
L 85.334596 21.094424 
L 85.428848 21.546969 
L 85.455247 21.468934 
L 85.497578 20.551468 
L 85.666117 22.734814 
L 85.767979 17.749933 
L 85.926696 18.794413 
L 86.008912 22.032016 
L 86.171712 17.878163 
L 86.377094 22.325854 
L 86.437795 20.521732 
L 86.642352 23.966292 
L 86.763667 20.455224 
L 86.92805 22.190142 
L 87.054072 22.794135 
L 87.198936 18.273462 
L 87.565088 24.799252 
L 87.604165 24.406702 
L 87.86953 18.216023 
L 87.890047 21.037023 
L 88.09361 23.971727 
L 88.23838 19.71187 
L 88.300534 19.10718 
L 88.404356 19.36517 
L 88.606183 24.061384 
L 88.686042 23.639283 
L 88.789283 18.047753 
L 88.891762 18.155657 
L 88.953274 23.942489 
L 88.971739 21.069045 
L 89.054176 19.206805 
L 89.257855 22.353656 
L 89.379367 20.75342 
L 89.460411 24.396758 
L 89.542826 22.76031 
L 89.624194 27.965539 
L 89.848316 22.905041 
L 89.932055 24.913485 
L 90.032487 24.001422 
L 90.195522 20.048693 
L 90.273089 18.020182 
L 90.298875 19.229747 
L 90.420078 19.49554 
L 90.684609 17.419795 
L 90.72507 18.05212 
L 90.847619 19.924722 
L 90.986232 20.327204 
L 91.285202 26.135381 
L 91.356373 22.303603 
L 91.52127 25.211766 
L 91.686645 19.655515 
L 91.826126 22.793192 
L 91.910076 23.271877 
L 92.081136 17.663436 
L 92.15731 19.721193 
L 92.337972 22.885142 
L 92.419683 26.906214 
L 92.507675 26.901754 
L 92.665362 23.152387 
L 92.785811 23.80931 
L 92.989292 29.55277 
L 93.030276 29.946293 
L 93.277109 22.642515 
L 93.43891 27.877896 
L 93.500942 26.827584 
L 93.665769 24.767579 
L 93.704875 20.948942 
L 93.791914 21.992637 
L 93.927357 22.449474 
L 94.049839 22.11575 
L 94.136036 22.234789 
L 94.35525 16.229562 
L 94.438975 16.307375 
L 94.518421 16.044572 
L 94.564718 19.908098 
L 94.642392 17.413325 
L 94.705402 15.673037 
L 94.869766 19.778645 
L 95.072048 26.075285 
L 95.174018 26.109017 
L 95.683884 15.193022 
L 95.826448 8.275499 
L 95.889158 7.91108 
L 96.132021 14.888953 
L 96.722507 24.115009 
L 96.887191 18.531597 
L 96.96732 20.648424 
L 97.050001 19.877661 
L 97.395311 22.400663 
L 97.497787 23.784441 
L 97.578871 21.291015 
L 97.641426 24.470291 
L 97.743059 24.024948 
L 97.827046 23.573594 
L 97.926778 25.649621 
L 98.029211 24.691303 
L 98.23566 20.403224 
L 98.396793 21.348331 
L 98.661314 17.697989 
L 98.823414 21.95131 
L 98.933006 22.036329 
L 99.154479 14.22128 
L 99.246182 12.479399 
L 99.4967 16.420151 
L 99.57871 13.988529 
L 99.668678 14.121204 
L 99.905237 17.077464 
L 99.989805 27.115243 
L 100.089294 28.985076 
L 100.170185 28.407708 
L 100.385534 29.864728 
L 100.42082 28.685285 
L 100.497198 28.952892 
L 100.679864 33.880827 
L 100.761555 32.966531 
L 100.843828 28.873393 
L 100.925086 30.176227 
L 101.006171 33.604135 
L 101.270107 31.483638 
L 101.597532 23.784668 
L 101.678832 27.490348 
L 101.879204 21.963154 
L 101.942346 23.737478 
L 102.024719 23.642425 
L 102.106079 23.654619 
L 102.273162 23.008156 
L 102.435092 25.346415 
L 102.535166 20.893047 
L 102.617729 22.868425 
L 102.697145 21.849456 
L 102.78494 16.413686 
L 102.861592 16.836678 
L 103.11361 23.144694 
L 103.189983 21.275946 
L 103.297728 21.366863 
L 103.416707 25.478974 
L 103.453561 25.208972 
L 103.616272 24.798969 
L 103.699774 19.821115 
L 103.719291 20.941918 
L 103.781819 21.926937 
L 103.966419 18.87408 
L 104.048094 20.542763 
L 104.150779 19.841992 
L 104.209277 18.384187 
L 104.555367 24.668239 
L 104.643292 22.862382 
L 104.722374 24.535529 
L 104.845708 24.315271 
L 104.979149 23.707402 
L 105.212527 16.353745 
L 105.294119 16.971096 
L 105.45599 17.030373 
L 105.496435 19.060048 
L 105.570066 18.741142 
L 105.639706 16.075904 
L 105.803195 16.426877 
L 105.924397 15.421307 
L 106.029602 17.699913 
L 106.15026 25.302411 
L 106.333305 24.711743 
L 106.422845 22.6667 
L 106.578026 25.051167 
L 106.659108 25.753817 
L 106.843424 24.096703 
L 107.009701 18.276346 
L 107.071286 20.011215 
L 107.148558 18.726512 
L 107.250505 20.039986 
L 107.332764 22.704282 
L 107.49606 19.001892 
L 107.74125 24.519179 
L 107.761368 22.923463 
L 107.987174 19.772109 
L 108.107903 20.07924 
L 108.168614 16.591933 
L 108.259977 18.12985 
L 108.331445 17.768919 
L 108.55243 15.68599 
L 108.760089 18.567172 
L 108.922945 16.647358 
L 109.045295 18.656139 
L 109.126727 17.432236 
L 109.250037 21.488789 
L 109.372058 13.131215 
L 109.433954 14.978478 
L 109.514456 17.100783 
L 109.596615 14.01808 
L 109.699872 15.950755 
L 109.860958 11.94993 
L 109.96356 13.616556 
L 110.126226 7.679715 
L 110.146477 10.548486 
L 110.275933 15.456733 
L 110.391371 10.856679 
L 110.615897 20.704877 
L 110.737065 20.972765 
L 110.777751 20.326411 
L 110.94159 25.325006 
L 111.12366 22.204788 
L 111.307287 25.620535 
L 111.718853 17.175757 
L 111.799087 17.472957 
L 112.002503 21.529705 
L 112.042791 19.25805 
L 112.165501 19.739825 
L 112.307553 14.342879 
L 112.573467 22.375377 
L 112.675242 22.343389 
L 112.718168 19.602377 
L 112.817532 20.101875 
L 112.899292 24.949516 
L 112.980534 22.169611 
L 113.145415 22.336697 
L 113.222417 26.825209 
L 113.23807 26.366793 
L 113.42242 19.335082 
L 113.591242 24.920931 
L 113.733602 19.660615 
L 113.916217 25.527497 
L 114.080037 23.227796 
L 114.140643 23.361865 
L 114.185755 25.254684 
L 114.2631 24.447036 
L 114.426332 21.229895 
L 114.508857 24.209588 
L 114.917275 14.470143 
L 114.998298 14.849166 
L 115.100449 18.452049 
L 115.167019 17.198651 
L 115.387062 14.30974 
L 115.427589 16.323613 
L 115.533392 16.19401 
L 115.617498 19.180069 
L 115.836413 16.262082 
L 115.899747 20.561299 
L 116.102451 18.813171 
L 116.184875 20.015723 
L 116.273696 19.269859 
L 116.348318 21.965012 
L 116.431968 18.938332 
L 116.510421 20.193132 
L 116.592824 20.103424 
L 116.778243 19.249725 
L 116.859679 20.148912 
L 116.94032 18.953396 
L 117.021882 20.96681 
L 117.266452 19.274205 
L 117.390416 19.097874 
L 117.473216 17.742825 
L 117.553605 17.908832 
L 117.63562 18.855015 
L 117.73036 18.638785 
L 117.782083 21.593661 
L 117.858972 19.798059 
L 117.943053 19.132593 
L 118.044524 17.301929 
L 118.309851 22.279516 
L 118.454317 13.10128 
L 118.535583 15.417915 
L 118.622819 12.122163 
L 118.638224 20.198598 
L 118.718591 11.857308 
L 118.782663 11.866711 
L 118.965768 8.565435 
L 119.05231 8.943879 
L 119.289965 19.18417 
L 119.37617 16.1235 
L 119.475156 15.30024 
L 119.637607 19.68759 
L 119.727039 23.939571 
L 119.809412 22.408781 
L 119.963301 21.80763 
L 120.003708 17.86377 
L 120.064922 20.212796 
L 120.168481 17.845031 
L 120.231335 18.342117 
L 120.394775 23.247376 
L 120.557598 18.975483 
L 120.82256 27.626427 
L 120.964733 25.419721 
L 121.006306 28.33072 
L 121.08784 26.903123 
L 121.229362 20.392832 
L 121.392626 24.422244 
L 121.595819 20.258983 
L 121.702587 20.151443 
L 121.844422 11.987006 
L 122.067663 24.419982 
L 122.166421 19.055414 
L 122.26327 19.703422 
L 122.409897 15.25061 
L 122.697115 20.491715 
L 122.797574 21.172428 
L 122.960689 13.292915 
L 123.29162 23.680115 
L 123.34773 24.539084 
L 123.464141 22.901063 
L 123.573948 25.062049 
L 123.592841 24.828426 
L 123.735491 24.096695 
L 123.776854 27.81907 
L 123.858411 27.003096 
L 124.041582 23.276123 
L 124.122699 23.836585 
L 124.185937 22.697464 
L 124.285878 24.974888 
L 124.449477 21.508798 
L 124.594144 22.52515 
L 124.69551 20.852217 
L 124.713856 23.298746 
L 124.797778 22.877022 
L 125.102481 15.855088 
L 125.204271 17.604845 
L 125.547315 8.619775 
L 125.872683 16.273757 
L 126.056198 13.580886 
L 126.283116 22.522007 
L 126.299764 22.465797 
L 126.421494 22.900897 
L 126.48291 21.818668 
L 126.548566 22.883593 
L 126.564081 19.052768 
L 126.626169 25.51749 
L 126.730717 25.400687 
L 126.832001 28.829424 
L 126.891726 28.806528 
L 127.116446 22.794788 
L 127.224149 24.990671 
L 127.40284 23.385831 
L 127.486964 18.509953 
L 127.550226 19.089208 
L 127.681074 18.7537 
L 127.750121 19.325574 
L 127.834422 21.683234 
L 128.05635 15.042182 
L 128.445226 22.387488 
L 128.650599 20.436595 
L 128.688592 21.395923 
L 128.823423 31.346337 
L 128.954226 34.479315 
L 128.979078 33.175408 
L 129.077722 32.04084 
L 129.321503 26.875059 
L 129.505271 30.625365 
L 129.587156 24.843279 
L 129.68901 25.32452 
L 129.854095 23.923617 
L 130.198844 30.510197 
L 130.342257 28.937471 
L 130.383624 26.035392 
L 130.424717 30.63837 
L 130.505932 29.908539 
L 130.669329 25.880266 
L 130.811884 25.836798 
L 130.93609 27.253929 
L 131.140428 27.728797 
L 131.343502 20.619238 
L 131.608009 24.957374 
L 131.852133 18.878317 
L 131.933561 19.602841 
L 132.014731 19.148986 
L 132.221227 23.473512 
L 132.361954 17.350456 
L 132.606269 21.680298 
L 132.691026 21.196118 
L 132.871112 19.774738 
L 133.036061 14.140267 
L 133.115405 19.159276 
L 133.299276 22.328416 
L 133.319128 20.807386 
L 133.37505 19.758329 
L 133.570155 20.525295 
L 133.687591 20.778976 
L 133.816029 27.825868 
L 133.95583 26.033342 
L 134.130318 23.296462 
L 134.298699 23.373183 
L 134.380433 22.918289 
L 134.519444 23.446561 
L 134.634524 17.104421 
L 134.74405 18.046452 
L 134.887161 23.227511 
L 134.970114 23.675961 
L 135.07009 23.055793 
L 135.30389 18.407143 
L 135.416797 21.403626 
L 135.481754 26.336063 
L 135.818569 19.665507 
L 135.917602 17.158121 
L 136.101109 21.203921 
L 136.161608 20.434975 
L 136.306541 20.186043 
L 136.427727 23.817937 
L 136.509261 14.483655 
L 136.573123 18.153873 
L 136.820574 30.295928 
L 137.066375 33.823913 
L 137.245827 22.624817 
L 137.388549 23.778528 
L 137.533079 24.878049 
L 137.755869 19.155504 
L 137.918735 13.229897 
L 138.000499 13.784732 
L 138.183316 22.896938 
L 138.245991 23.773487 
L 138.328222 21.182683 
L 138.429595 21.703383 
L 138.560505 20.769417 
L 138.775794 29.217789 
L 138.800569 33.436732 
L 138.857144 31.61366 
L 138.940297 27.952875 
L 139.020773 28.159851 
L 139.125864 27.532271 
L 139.511093 18.243145 
L 139.631685 14.015987 
L 139.775266 17.908351 
L 139.94653 14.045588 
L 140.019668 19.121358 
L 140.10152 19.006287 
L 140.288438 11.137609 
L 140.381725 10.85596 
L 140.468542 11.916042 
L 140.52973 10.517689 
L 140.693793 15.152076 
L 140.81545 14.775877 
L 140.916317 12.152085 
L 141.120897 20.654618 
L 141.262518 22.021172 
L 141.404402 26.101397 
L 141.567141 22.274674 
L 141.630711 24.376204 
L 141.71305 21.908735 
L 141.793921 22.121303 
L 141.91449 25.908199 
L 141.958153 24.115377 
L 142.070779 23.721325 
L 142.132262 23.025191 
L 142.235201 23.175514 
L 142.252794 28.414126 
L 142.317949 25.850645 
L 142.416158 23.842795 
L 142.540928 18.328033 
L 142.580267 20.016298 
L 142.723231 20.093454 
L 142.746004 19.826665 
L 142.803555 20.538113 
L 142.884637 20.468303 
L 142.968271 19.498438 
L 143.048348 15.015 
L 143.14966 15.709052 
L 143.374949 20.826156 
L 143.3955 19.695439 
L 143.477218 21.476513 
L 143.660494 16.52359 
L 143.855724 17.3576 
L 143.987274 23.363716 
L 144.072825 20.754408 
L 144.190173 22.309979 
L 144.251818 27.865983 
L 144.33339 26.102654 
L 144.518161 32.225392 
L 144.57742 28.173858 
L 144.823375 25.050727 
L 144.850454 21.662173 
L 144.923823 24.556539 
L 145.110165 20.959762 
L 145.188757 21.944542 
L 145.371617 18.898661 
L 145.516541 24.826649 
L 145.703612 21.466813 
L 145.742481 18.545244 
L 145.841383 21.071921 
L 146.004355 14.102486 
L 146.106787 16.246182 
L 146.25098 11.212758 
L 146.351299 11.555776 
L 146.433175 11.439963 
L 146.513559 16.293729 
L 146.597178 15.952876 
L 146.678309 15.292525 
L 146.845604 20.365837 
L 146.941801 17.199462 
L 147.022576 21.114574 
L 147.16949 19.922339 
L 147.225857 20.247835 
L 147.287554 21.194453 
L 147.388907 20.604343 
L 147.472472 23.642987 
L 147.530741 21.96676 
L 147.612325 15.82593 
L 147.694656 17.317145 
L 147.775382 18.762924 
L 147.861301 16.065322 
L 147.876699 17.287411 
L 147.958488 19.073797 
L 148.040797 17.48581 
L 148.121581 19.625328 
L 148.305871 15.916687 
L 148.42835 17.418077 
L 148.468363 23.882471 
L 148.529991 19.06753 
L 148.670195 18.289368 
L 148.712956 18.720115 
L 148.875813 17.841992 
L 148.940154 21.88571 
L 148.998313 16.764493 
L 149.059367 17.49137 
L 149.147619 20.417232 
L 149.207017 19.709716 
L 149.474152 22.697388 
L 149.536546 24.771031 
L 149.676094 25.149801 
L 149.71873 22.636117 
L 149.8207 23.529958 
L 150.04478 16.948518 
L 150.125922 16.961034 
L 150.414539 11.769288 
L 150.533801 12.192927 
L 150.737032 18.629594 
L 150.818701 18.426475 
L 150.902679 19.344099 
L 150.984911 16.764731 
L 151.23128 22.019755 
L 151.32834 23.177318 
L 151.420393 21.568909 
L 151.945013 28.515131 
L 152.149165 25.157404 
L 152.231566 24.139198 
L 152.576311 29.113639 
L 152.739197 26.879645 
L 152.820826 28.631172 
L 152.906287 28.107675 
L 153.004427 28.440486 
L 153.419541 22.673503 
L 153.494887 24.867324 
L 153.677573 22.870888 
L 153.758526 25.194073 
L 153.840849 22.740938 
L 153.923125 25.278899 
L 154.004813 24.042956 
L 154.188785 15.4033 
L 154.254545 20.412361 
L 154.455979 18.342865 
L 154.517084 19.096457 
L 154.597886 17.475392 
L 154.688309 18.463747 
L 154.853042 17.461409 
L 154.940003 18.445202 
L 155.026283 18.092402 
L 155.108727 17.271571 
L 155.274126 18.827433 
L 155.35869 18.150269 
L 155.777423 25.392653 
L 156.111131 27.634684 
L 156.273828 22.453936 
L 156.390009 23.081124 
L 156.536307 16.977515 
L 156.717215 19.104283 
L 156.839167 19.156178 
L 157.031677 26.789481 
L 157.115124 26.046344 
L 157.230704 23.805054 
L 157.373373 29.953506 
L 157.537443 28.771515 
L 157.647285 29.20937 
L 157.706738 28.24356 
L 157.883986 20.53799 
L 158.052528 20.3305 
L 158.149634 17.854225 
L 158.312392 17.293801 
L 158.394084 15.812111 
L 158.577584 12.178519 
L 158.903406 21.13931 
L 159.107025 19.531335 
L 159.189769 18.911651 
L 159.311306 23.260189 
L 159.394225 23.319834 
L 159.494652 23.176826 
L 159.556376 18.833876 
L 159.658258 20.651854 
L 159.758934 19.851028 
L 159.924016 24.323345 
L 160.334122 16.167665 
L 160.512672 18.963241 
L 160.675944 13.27861 
L 160.818171 12.925991 
L 160.941 15.716514 
L 161.002334 15.574792 
L 161.250018 16.947384 
L 161.349009 12.800006 
L 161.449842 14.902795 
L 161.762686 9.747063 
L 162.273779 15.808346 
L 162.367647 20.528284 
L 162.448686 21.14606 
L 162.550775 23.272445 
L 162.673349 23.459025 
L 162.694008 22.91636 
L 162.784817 23.355882 
L 162.884235 22.585426 
L 162.938602 23.433182 
L 163.372728 14.996581 
L 163.637736 23.853311 
L 163.761084 20.283061 
L 163.780495 21.76824 
L 164.15375 19.064833 
L 164.236505 20.226356 
L 164.378999 16.568473 
L 164.484637 12.341525 
L 164.540679 14.658902 
L 164.644215 11.822616 
L 165.213069 24.335386 
L 165.482368 27.662139 
L 165.560406 28.052245 
L 165.74857 23.946973 
L 165.986745 22.495637 
L 166.246141 16.7406 
L 166.32789 18.210917 
L 166.470363 15.269585 
L 166.634838 21.729977 
L 166.857574 17.03755 
L 166.897816 18.440975 
L 167.081579 18.872753 
L 167.223655 17.9574 
L 167.284665 22.994219 
L 167.366588 22.092788 
L 167.572707 14.835361 
L 167.672991 18.776675 
L 167.754689 16.865224 
L 167.835603 17.209239 
L 167.998628 20.231019 
L 168.203269 16.670148 
L 168.590592 28.430889 
L 168.85282 23.599392 
L 169.081124 24.903425 
L 169.104564 23.066516 
L 169.302076 19.856668 
L 169.448819 13.256275 
L 169.508701 16.624757 
L 169.589835 16.355237 
L 169.670761 18.502511 
L 169.772366 16.085089 
L 169.854694 17.123749 
L 169.93873 16.41765 
L 170.262829 21.495885 
L 170.427903 20.830815 
L 170.445822 23.104418 
L 170.6347 22.382916 
L 170.7538 22.951256 
L 170.837388 24.010525 
L 170.954721 17.43913 
L 171.039899 17.467633 
L 171.20213 21.596646 
L 171.282568 20.452389 
L 171.42709 23.579619 
L 171.46507 22.647496 
L 171.526597 22.156466 
L 171.628372 23.253779 
L 171.791459 26.925426 
L 171.872985 27.244776 
L 172.038219 19.538973 
L 172.121077 20.702188 
L 172.206755 19.108743 
L 172.300435 20.844774 
L 172.382727 20.092862 
L 172.464405 20.363568 
L 172.545627 17.109907 
L 172.627033 19.191248 
L 172.732458 17.819027 
L 172.875461 26.216943 
L 172.974822 26.370852 
L 173.138162 24.506725 
L 173.382499 26.269915 
L 173.424915 30.059333 
L 173.547047 29.402011 
L 173.729105 23.658255 
L 173.810637 25.153443 
L 174.060081 22.415106 
L 174.230719 20.798413 
L 174.290921 17.643285 
L 174.320256 18.936331 
L 174.411131 20.3134 
L 174.545782 20.106559 
L 174.647338 14.816161 
L 174.730023 16.658554 
L 174.872902 16.847594 
L 175.078435 23.770398 
L 175.178447 22.394983 
L 175.259778 24.396781 
L 175.322558 23.988472 
L 175.504426 27.414901 
L 175.667217 34.491179 
L 175.994919 30.227384 
L 176.02054 31.589914 
L 176.12936 29.865973 
L 176.21011 31.554698 
L 176.425801 25.401915 
L 176.502868 25.202086 
L 176.76702 21.353988 
L 177.521751 11.636737 
L 177.765349 14.834789 
L 177.86931 12.983853 
L 177.969101 15.720301 
L 178.091205 15.80549 
L 178.111493 18.606024 
L 178.213505 18.403804 
L 178.364974 22.238087 
L 178.523852 22.93784 
L 178.604085 20.916586 
L 178.722854 21.324372 
L 178.807087 19.619678 
L 178.889838 22.337 
L 178.94848 21.622526 
L 179.134451 24.503048 
L 179.214384 23.637278 
L 179.295832 21.416566 
L 179.377944 22.139646 
L 179.564745 24.616281 
L 179.867311 17.785643 
L 179.910078 12.664965 
L 179.971238 13.579307 
L 180.052989 14.055102 
L 180.256804 18.04601 
L 180.34109 17.16516 
L 180.480374 21.68988 
L 180.563062 22.285121 
L 180.745508 27.173214 
L 180.806222 26.647269 
L 180.97054 22.920931 
L 181.092109 21.811685 
L 181.152427 24.623755 
L 181.356606 22.228281 
L 181.419603 22.463567 
L 181.627196 19.332374 
L 181.662166 15.711434 
L 181.743973 16.968402 
L 181.845269 18.082059 
L 182.070106 14.085591 
L 182.152303 12.219444 
L 182.23298 13.171924 
L 182.314553 10.759712 
L 182.498369 14.942399 
L 182.579098 16.080509 
L 182.681161 15.434267 
L 182.762231 18.000007 
L 182.94763 15.028501 
L 183.007817 17.289228 
L 183.088691 13.224675 
L 183.55826 19.162101 
L 183.602519 18.241221 
L 184.005168 28.757526 
L 184.343951 23.503292 
L 184.507961 23.378709 
L 184.522848 24.089944 
L 184.688684 21.951364 
L 184.793471 20.810382 
L 184.851923 18.457556 
L 185.177132 22.951246 
L 185.199073 20.646098 
L 185.587002 24.588795 
L 185.609212 23.591683 
L 185.713959 26.310812 
L 185.775526 24.761642 
L 185.855219 27.180097 
L 185.934722 26.152533 
L 186.035558 28.839707 
L 186.108863 28.522943 
L 186.229136 29.48964 
L 186.465698 32.584652 
L 186.741485 26.879997 
L 186.963327 29.454682 
L 187.044197 24.457204 
L 187.125631 25.916045 
L 187.212209 24.719422 
L 187.309349 25.117991 
L 187.373921 29.297111 
L 187.471943 28.901705 
L 187.554378 29.278736 
L 187.839279 23.853896 
L 187.903512 24.809059 
L 188.227813 16.001383 
L 188.307609 16.906027 
L 188.47117 23.199507 
L 188.55225 23.092188 
L 188.634225 21.566283 
L 188.735564 21.865276 
L 188.816506 23.727294 
L 188.898022 22.003121 
L 189.060815 27.169064 
L 189.148033 25.750042 
L 189.315436 19.923927 
L 189.776048 25.782375 
L 189.818883 25.603781 
L 189.901686 24.041845 
L 189.983962 24.889787 
L 190.165537 30.543943 
L 190.329612 29.135565 
L 190.411325 29.944934 
L 190.49266 29.341182 
L 191.002048 18.762908 
L 191.082828 18.365881 
L 191.245945 13.647984 
L 191.266206 16.710492 
L 191.332046 15.443387 
L 191.430076 18.434996 
L 191.592082 18.09394 
L 191.673901 17.417498 
L 191.755415 17.447938 
L 192.003318 22.410085 
L 192.10389 21.801102 
L 192.265045 17.664889 
L 192.509691 26.132131 
L 192.692488 24.942957 
L 192.75878 25.38048 
L 192.836394 27.660042 
L 192.958796 27.532654 
L 193.119541 31.199736 
L 193.181582 30.42838 
L 193.355644 25.819438 
L 193.54137 27.357786 
L 193.710909 22.788524 
L 193.813057 25.670763 
L 193.935226 23.598904 
L 194.024828 24.086895 
L 194.044165 22.802768 
L 194.120384 24.958393 
L 194.385032 21.284005 
L 194.470509 22.96052 
L 194.532794 22.244242 
L 194.754786 20.682591 
L 194.775417 21.693899 
L 194.874991 20.565286 
L 195.201115 25.995366 
L 195.307666 24.013201 
L 195.385816 25.671777 
L 195.467972 25.65278 
L 195.653404 22.734484 
L 195.718141 24.698099 
L 195.814581 24.054076 
L 195.905784 24.342101 
L 195.976563 22.920585 
L 196.077747 23.724719 
L 196.237777 20.845307 
L 196.465036 27.456571 
L 196.566637 23.544926 
L 196.727069 26.808669 
L 196.808637 26.75546 
L 196.91279 26.289549 
L 196.97917 29.621086 
L 197.053862 29.005356 
L 197.236251 26.874954 
L 197.379621 25.775115 
L 197.462356 26.563969 
L 197.584021 19.645047 
L 197.807623 14.355277 
L 197.838968 12.531173 
L 197.930114 14.000536 
L 198.174456 10.404377 
L 198.34242 12.890271 
L 198.512894 20.274925 
L 198.589041 19.238238 
L 198.726615 18.574603 
L 198.831215 21.657281 
L 198.84867 21.633453 
L 198.909829 24.807137 
L 199.073974 27.203993 
L 199.114549 25.303192 
L 199.196677 28.801237 
L 199.425735 24.872955 
L 199.511432 26.910937 
L 199.813058 22.478123 
L 199.93892 17.618297 
L 200.018538 15.187553 
L 200.098404 18.94705 
L 200.180036 17.735225 
L 200.301586 20.331073 
L 200.42374 18.098138 
L 200.752012 22.812469 
L 200.873021 28.398464 
L 201.035074 25.522585 
L 201.116693 25.520053 
L 201.198756 25.883045 
L 201.280205 27.62268 
L 201.36251 24.841505 
L 201.525249 26.463057 
L 201.585654 26.140048 
L 201.708652 18.849257 
L 201.840165 20.002715 
L 201.937208 21.121381 
L 202.038833 18.487111 
L 202.141221 16.944749 
L 202.262563 18.592606 
L 202.304656 17.852113 
L 202.335929 17.143401 
L 202.365043 18.934438 
L 202.467702 19.671064 
L 202.56873 23.806967 
L 202.711791 17.930578 
L 202.821875 19.043243 
L 202.997705 24.019699 
L 203.141364 22.158238 
L 203.222491 20.532692 
L 203.325092 21.626886 
L 203.406449 18.168374 
L 203.547747 28.13918 
L 203.670792 30.368136 
L 203.895027 27.455109 
L 204.05762 34.194549 
L 204.309779 28.615915 
L 204.591857 24.524253 
L 204.822746 25.148436 
L 204.994689 21.517043 
L 205.158807 25.563501 
L 205.280634 26.841333 
L 205.382845 29.900082 
L 205.586966 22.734411 
L 205.749647 23.732874 
L 205.851885 23.762903 
L 205.913239 22.567346 
L 206.157924 25.96007 
L 206.260042 25.352496 
L 206.484595 28.30041 
L 206.566055 26.253773 
L 206.873445 29.696833 
L 206.973867 28.208981 
L 207.015413 28.247133 
L 207.095035 29.862578 
L 207.176646 29.52704 
L 207.259153 29.209236 
L 207.360423 29.30774 
L 207.464121 28.311426 
L 207.523172 28.587506 
L 207.604057 28.538159 
L 207.850179 22.9545 
L 208.011782 25.992425 
L 208.175707 23.194205 
L 208.279634 25.992065 
L 208.440128 22.674758 
L 208.524167 23.023748 
L 208.643912 26.254404 
L 208.970338 20.468234 
L 209.176575 18.054889 
L 209.294958 15.343013 
L 209.396895 15.154396 
L 209.462208 12.293518 
L 209.613752 11.642119 
L 209.647449 12.045815 
L 209.827141 18.84492 
L 209.889609 16.470761 
L 210.381388 27.307906 
L 210.462953 26.219032 
L 210.631858 22.479872 
L 210.747222 25.690892 
L 210.8082 25.227835 
L 210.900069 25.058035 
L 210.972603 20.561874 
L 211.053363 21.416844 
L 211.134845 21.018464 
L 211.217149 23.362302 
L 211.31886 21.636545 
L 211.381786 22.850802 
L 211.562218 20.030973 
L 211.643353 16.904352 
L 211.991414 20.536721 
L 212.099705 20.711594 
L 212.171994 20.65824 
L 212.233488 17.231575 
L 212.416339 17.636357 
L 212.498384 21.880009 
L 212.60066 21.660376 
L 212.723514 21.809558 
L 212.82384 19.121092 
L 212.950379 17.950191 
L 212.987434 18.605009 
L 213.131935 22.912101 
L 213.171293 21.515734 
L 213.255576 21.626037 
L 213.354166 20.133029 
L 213.441531 23.84625 
L 213.640191 20.38766 
L 213.764703 24.108377 
L 213.845625 23.141765 
L 213.947823 22.734371 
L 214.186373 18.695942 
L 214.375216 13.383257 
L 214.459075 15.636744 
L 214.663265 11.018395 
L 214.845261 14.54358 
L 215.069678 21.211625 
L 215.090206 24.403761 
L 215.191247 24.053289 
L 215.273686 21.064783 
L 215.436795 23.475616 
L 215.623347 18.282009 
L 215.679922 21.535893 
L 215.966089 16.697271 
L 216.128392 24.673997 
L 216.198389 23.562572 
L 216.457768 28.536469 
L 216.617972 21.899852 
L 216.73997 24.037706 
L 216.812885 23.160672 
L 216.964545 15.767697 
L 217.046327 16.283488 
L 217.208387 12.939944 
L 217.291573 13.373218 
L 217.452789 19.56082 
L 217.6361 16.613558 
L 217.703821 19.571662 
L 217.799728 18.853809 
L 217.881543 19.242721 
L 218.067844 21.835001 
L 218.228895 21.245196 
L 218.311023 19.270599 
L 218.59514 23.380544 
L 218.758272 24.63685 
L 218.819838 23.113805 
L 218.980743 25.639533 
L 219.144188 27.312421 
L 219.482457 23.081922 
L 219.572462 20.5382 
L 219.654046 23.003398 
L 219.756161 21.10427 
L 219.816872 24.529262 
L 220.068512 22.034777 
L 220.151796 21.560385 
L 220.325592 24.889606 
L 220.468076 25.048994 
L 220.653128 18.928278 
L 220.737186 18.657156 
L 220.835958 16.139105 
L 221.020255 16.00361 
L 221.203386 13.135215 
L 221.327966 19.924671 
L 221.426979 19.696733 
L 221.590328 15.728949 
L 221.997555 24.367405 
L 222.064853 23.693174 
L 222.181019 18.612883 
L 222.263548 19.278839 
L 222.344505 19.773822 
L 222.588697 22.461954 
L 222.676481 21.76101 
L 222.854171 19.576846 
L 223.065617 25.342015 
L 223.119073 22.512349 
L 223.203094 25.06451 
L 223.364404 22.903605 
L 223.505731 24.198279 
L 223.629148 21.053466 
L 223.77148 22.5563 
L 223.853973 22.363548 
L 224.036883 27.359074 
L 224.138668 26.934781 
L 224.282092 28.162118 
L 224.444217 27.88119 
L 224.568467 30.948214 
L 224.792729 28.437126 
L 225.14075 17.194494 
L 225.224441 16.970232 
L 225.407236 13.856072 
L 225.467947 14.949328 
L 225.629075 15.453384 
L 225.877963 25.804424 
L 226.059695 25.178041 
L 226.152342 26.892642 
L 226.228467 26.715749 
L 226.392013 23.749104 
L 226.494899 24.221604 
L 226.556421 22.968303 
L 226.666254 24.262456 
L 226.739457 23.854388 
L 226.900956 28.316232 
L 227.043684 28.413923 
L 227.247512 31.332834 
L 227.329078 27.895539 
L 227.391965 28.721329 
L 227.575119 25.18678 
L 227.662522 22.40191 
L 227.744661 24.411855 
L 227.818978 24.310136 
L 227.921822 23.772704 
L 227.992384 20.583084 
L 228.08503 20.751628 
L 228.19836 22.055874 
L 228.311157 20.624438 
L 228.351144 18.59959 
L 228.515405 20.658867 
L 228.69851 17.040884 
L 228.759823 16.662604 
L 228.780618 20.065172 
L 228.842956 18.589592 
L 229.008388 13.910329 
L 229.191708 17.202766 
L 229.515191 26.16201 
L 229.599779 26.49154 
L 229.680573 25.696816 
L 229.843237 30.706774 
L 229.945426 30.902144 
L 230.435816 20.273104 
L 230.516622 25.331041 
L 230.645137 23.908438 
L 230.80266 25.81892 
L 231.047126 17.108083 
L 231.158639 17.33423 
L 231.174139 17.190284 
L 231.275191 19.662957 
L 231.523897 11.89268 
L 231.604197 11.437331 
L 231.705662 12.566891 
L 231.950982 18.032315 
L 232.174925 16.142891 
L 232.215153 16.306206 
L 232.382261 17.901073 
L 232.541063 21.768203 
L 232.644533 21.175194 
L 232.704443 24.173872 
L 232.96986 19.215988 
L 233.092891 19.020535 
L 233.295496 15.712869 
L 233.482786 18.357792 
L 233.560971 18.982866 
L 233.664058 20.780335 
L 233.795491 20.785058 
L 234.255474 27.285109 
L 234.436857 22.7595 
L 234.539061 22.340379 
L 234.60369 22.677901 
L 234.68306 22.483693 
L 234.744502 20.528552 
L 234.806649 21.764177 
L 234.932151 21.507427 
L 235.003544 20.517776 
L 235.09256 16.595594 
L 235.236261 18.499878 
L 235.378784 20.569402 
L 235.502691 17.426103 
L 235.621211 17.869963 
L 235.667605 15.663812 
L 235.744351 17.79883 
L 235.827689 16.957599 
L 235.908053 19.645466 
L 236.116129 17.920653 
L 236.179231 13.923783 
L 236.501059 20.246978 
L 236.599271 18.228788 
L 237.17032 29.444861 
L 237.616181 24.252596 
L 237.780076 22.386961 
L 238.065477 15.835829 
L 238.106131 15.878103 
L 238.187594 16.561341 
L 238.289285 18.685022 
L 238.352022 17.426239 
L 238.448227 18.123057 
L 238.595374 17.983419 
L 238.642213 18.272168 
L 238.902284 23.295086 
L 239.146536 20.791096 
L 239.251195 24.230167 
L 239.288901 23.6919 
L 239.411509 24.151692 
L 239.537737 25.179013 
L 239.762422 18.150939 
L 239.782911 21.604979 
L 239.851109 19.823245 
L 239.887393 19.772999 
L 240.047161 17.702227 
L 240.128644 20.586224 
L 240.33256 15.431596 
L 240.414424 13.021134 
L 240.638236 20.949983 
L 240.809042 17.465647 
L 240.884011 18.861279 
L 241.066003 16.654391 
L 241.231543 23.7602 
L 241.310278 23.312386 
L 241.393419 23.7778 
L 241.493856 23.447443 
L 241.67883 28.520568 
L 241.800985 26.045964 
L 241.904073 26.372533 
L 242.3809 16.167659 
L 242.421529 17.23385 
L 242.502756 15.280044 
L 242.648223 22.926612 
L 242.734917 23.921988 
L 242.828728 27.83582 
L 242.920461 26.687737 
L 243.102673 32.123844 
L 243.263834 30.638344 
L 243.585021 24.476748 
L 243.768529 26.31136 
L 243.830707 26.368119 
L 243.910912 28.158677 
L 244.071546 28.364897 
L 244.094248 28.260613 
L 244.176186 29.674061 
L 244.339666 24.8676 
L 244.420643 26.170785 
L 244.522478 24.74089 
L 244.589914 26.197466 
L 244.766932 15.003391 
L 244.901706 15.41481 
L 244.931978 14.262503 
L 245.243126 22.191952 
L 245.28035 17.850887 
L 245.442908 17.533356 
L 245.612057 21.643717 
L 245.811338 27.758191 
L 245.870134 27.677132 
L 246.036407 20.334732 
L 246.154426 19.192379 
L 246.297843 20.194264 
L 246.419736 22.366015 
L 246.45982 21.45541 
L 246.523383 21.343107 
L 246.605072 20.951364 
L 246.704867 19.582298 
L 246.806784 20.499553 
L 246.950021 23.112574 
L 247.214002 18.302565 
L 247.344275 17.693897 
L 247.540701 12.554611 
L 247.623506 15.867918 
L 247.705879 13.385139 
L 247.723838 19.108397 
L 247.785548 18.497961 
L 248.051084 25.747314 
L 248.294381 20.310861 
L 248.397391 20.83308 
L 248.558874 21.333276 
L 248.60702 20.256428 
L 248.641528 22.453887 
L 248.807466 14.016116 
L 248.987756 19.530541 
L 249.149714 21.375599 
L 249.231696 21.613048 
L 249.314218 16.894888 
L 249.415664 18.023018 
L 249.478117 17.185624 
L 249.688168 23.57887 
L 249.812141 18.966846 
L 249.847279 20.205004 
L 249.992896 24.806521 
L 250.071265 25.87406 
L 250.154687 30.417812 
L 250.235996 27.949781 
L 250.318359 28.72497 
L 250.450115 30.123819 
L 250.487521 26.113299 
L 250.565787 27.947178 
L 250.664825 26.929565 
L 250.911025 22.209948 
L 250.992923 20.021153 
L 251.094164 21.170559 
L 251.174825 19.875315 
L 251.318026 20.53719 
L 251.440392 25.32838 
L 251.527869 24.850527 
L 251.68799 26.457548 
L 251.912234 31.006453 
L 252.423339 18.612101 
L 252.522823 17.787154 
L 252.603626 15.51665 
L 253.070818 27.670897 
L 253.172487 27.082034 
L 253.299263 27.924028 
L 253.398018 29.852477 
L 253.481819 29.299694 
L 253.706336 24.822347 
L 253.787637 25.408686 
L 253.85493 24.013532 
L 253.973638 24.643237 
L 254.072704 26.438011 
L 254.215384 23.374539 
L 254.27641 26.548244 
L 254.439588 20.087289 
L 254.601676 23.092364 
L 254.703797 21.331639 
L 254.791033 21.95845 
L 254.881155 20.231975 
L 254.951183 23.354891 
L 255.050893 22.266182 
L 255.125788 22.351965 
L 255.295063 25.896712 
L 255.377475 23.70941 
L 255.460204 24.46658 
L 255.559932 19.663731 
L 255.724984 22.625196 
L 255.80567 18.644473 
L 255.886463 21.458773 
L 256.052625 17.771005 
L 256.33682 20.448473 
L 256.402403 25.227373 
L 256.464513 25.130491 
L 256.643481 21.407762 
L 256.750585 22.072781 
L 256.858576 25.039539 
L 256.918062 24.212909 
L 256.999095 24.279182 
L 257.143101 23.155762 
L 257.223369 23.2326 
L 257.327565 21.343719 
L 257.40698 22.512202 
L 257.578936 21.952995 
L 257.658629 23.8604 
L 257.797981 24.039356 
L 257.895897 28.864007 
L 258.078948 24.742187 
L 258.223793 26.662933 
L 258.26464 24.923133 
L 258.326386 27.386654 
L 258.491274 19.674832 
L 258.631144 21.672129 
L 258.794196 15.629129 
L 258.915958 19.357743 
L 258.998429 17.651309 
L 259.278553 27.504037 
L 259.426527 25.221921 
L 259.510113 28.743152 
L 259.590637 28.672349 
L 259.855447 22.49613 
L 259.936795 22.997802 
L 260.037876 24.259375 
L 260.107949 20.906977 
L 260.267577 24.666818 
L 260.385752 21.609133 
L 260.514811 24.629971 
L 260.635882 26.757295 
L 260.691276 30.711894 
L 260.772046 30.108475 
L 260.853241 28.681988 
L 260.935186 29.393772 
L 261.282099 22.475287 
L 261.385173 21.333456 
L 261.632206 15.401016 
L 261.710419 15.512562 
L 261.729101 12.67773 
L 261.791431 16.154495 
L 262.035194 22.868535 
L 262.137851 23.865863 
L 262.28029 22.050359 
L 262.361935 22.66986 
L 262.46335 20.688829 
L 262.547 20.969286 
L 262.625455 21.716809 
L 262.789395 17.724576 
L 262.952231 17.925345 
L 263.1008 19.568267 
L 263.21834 24.035079 
L 263.408052 25.001623 
L 263.521606 25.059856 
L 263.625828 28.680764 
L 263.726543 27.59202 
L 263.890698 24.988953 
L 263.970329 27.034963 
L 264.057281 25.878207 
L 264.156004 26.430061 
L 264.240085 25.911107 
L 264.505117 20.400478 
L 264.709199 23.789935 
L 264.769888 24.195039 
L 264.933371 21.47823 
L 264.977017 24.337979 
L 265.077639 22.353115 
L 265.16507 23.829943 
L 265.402957 19.661349 
L 265.607591 16.702383 
L 265.668289 14.633607 
L 265.811023 15.621825 
L 265.892104 12.730777 
L 265.93286 14.461995 
L 266.055678 14.268716 
L 266.078562 17.036572 
L 266.157793 16.954497 
L 266.245587 17.638652 
L 266.422238 19.852744 
L 266.750221 16.575058 
L 266.851877 17.17192 
L 266.912887 18.432112 
L 266.993116 18.422409 
L 267.113654 19.917785 
L 267.262179 16.496297 
L 267.398643 17.594198 
L 267.43881 18.831647 
L 267.581777 17.992194 
L 267.66287 19.095852 
L 267.703628 17.097458 
L 267.789536 20.411374 
L 267.866537 19.306235 
L 267.928307 18.094435 
L 268.009271 19.058439 
L 268.200748 22.551847 
L 268.273717 21.932237 
L 268.437921 24.676709 
L 268.523766 27.708109 
L 268.620259 24.81406 
L 268.701974 25.014287 
L 268.76307 24.352603 
L 268.848004 25.030146 
L 268.947528 23.07216 
L 269.110757 25.218819 
L 269.193266 24.354063 
L 269.558243 15.802164 
L 269.661676 17.672158 
L 269.700788 15.732958 
L 269.817957 16.689942 
L 269.952161 13.643778 
L 270.211746 18.802104 
L 270.292165 15.665814 
L 270.55562 20.958623 
L 270.617067 19.547894 
L 270.73849 20.523901 
L 270.819758 22.242025 
L 270.882799 18.764909 
L 271.206696 23.486903 
L 271.308904 22.210669 
L 271.471482 23.705447 
L 271.553732 23.649276 
L 271.723803 18.552122 
L 271.879544 16.404537 
L 271.983874 19.881928 
L 272.063255 19.463025 
L 272.146684 19.358184 
L 272.225391 17.7723 
L 272.308926 18.844732 
L 272.389843 18.400702 
L 272.573162 22.673211 
L 272.73483 21.157439 
L 272.816565 20.533408 
L 272.897744 20.911329 
L 272.987056 21.924943 
L 273.061605 18.874858 
L 273.16632 19.411954 
L 273.244095 18.87237 
L 273.489362 22.533785 
L 273.657982 19.651325 
L 273.737616 20.076712 
L 273.918374 21.94381 
L 273.998484 18.561349 
L 274.079255 19.704686 
L 274.244484 17.833765 
L 274.336513 19.778586 
L 274.406738 19.374354 
L 274.673315 14.170084 
L 274.834322 18.665779 
L 274.999474 15.57315 
L 275.080172 18.354582 
L 275.183165 17.444993 
L 275.263411 18.256622 
L 275.347723 21.380613 
L 275.429239 20.920679 
L 275.614084 19.367543 
L 275.631049 26.301637 
L 275.71266 22.92522 
L 275.836884 27.135139 
L 275.936107 25.700767 
L 276.100959 28.116466 
L 276.221954 27.990943 
L 276.447019 30.67219 
L 276.610945 24.951271 
L 276.691261 27.530422 
L 276.772261 26.635696 
L 276.868117 26.137655 
L 276.875487 27.51802 
L 276.936766 24.118199 
L 276.955877 18.479351 
L 277.165483 22.37191 
L 277.242552 22.96674 
L 277.363626 19.841115 
L 277.444383 20.632187 
L 277.546018 20.338124 
L 277.608287 20.558085 
L 277.70444 21.75651 
L 277.872282 28.005346 
L 277.974864 28.890643 
L 278.035991 27.144442 
L 278.322149 30.758545 
L 278.707607 12.918552 
L 278.891108 10.015008 
L 278.992969 8.938276 
L 279.200087 12.091786 
L 279.381871 20.115768 
L 279.465313 25.029365 
L 279.564131 24.46554 
L 279.72753 27.545287 
L 279.796138 31.954511 
L 279.834661 30.074163 
L 280.222306 21.135473 
L 280.321064 19.156745 
L 280.430569 22.753494 
L 280.607512 18.52014 
L 280.646166 20.276245 
L 280.789946 21.093682 
L 280.811312 22.305839 
L 280.932685 22.376375 
L 281.073871 23.86148 
L 281.156765 22.118303 
L 281.339406 15.735928 
L 281.421092 17.087985 
L 281.482851 16.653798 
L 281.584465 12.21952 
L 282.23709 26.587373 
L 282.319826 23.771582 
L 282.441557 30.240759 
L 282.521946 28.996401 
L 283.030682 16.641159 
L 283.052235 16.884928 
L 283.153985 19.127655 
L 283.25728 13.799467 
L 283.357422 12.410811 
L 283.520762 14.867383 
L 283.663113 15.331656 
L 283.765825 13.953303 
L 283.846596 16.853001 
L 283.948433 14.885221 
L 284.049826 15.426144 
L 284.132811 15.148832 
L 284.193607 15.571795 
L 284.275193 15.325581 
L 284.378286 12.995112 
L 284.552041 16.010819 
L 284.648943 18.320444 
L 284.767248 15.821459 
L 284.911052 20.641304 
L 284.950507 23.046669 
L 285.053152 22.712717 
L 285.174282 22.442341 
L 285.280694 23.939117 
L 285.296447 23.036925 
L 285.378726 22.802904 
L 285.483448 22.041566 
L 285.602377 22.296453 
L 285.626663 20.073892 
L 285.706081 22.493124 
L 285.787312 22.063547 
L 285.867942 22.559474 
L 286.215151 26.832524 
L 286.305456 26.54519 
L 286.540829 19.438014 
L 286.665485 19.231762 
L 286.806691 19.836022 
L 286.969862 19.850637 
L 286.988965 21.275434 
L 287.050607 19.66155 
L 287.133232 19.208345 
L 287.393609 26.541269 
L 287.476881 25.476314 
L 287.638895 23.797117 
L 287.72363 23.560549 
L 287.821052 19.151132 
L 287.983735 23.498828 
L 288.227335 18.806092 
L 288.491923 23.518634 
L 288.573398 23.130384 
L 288.655005 23.966511 
L 288.739534 23.390395 
L 288.982462 18.57184 
L 289.067032 18.759993 
L 289.246591 15.321526 
L 289.327348 16.198452 
L 289.411074 16.620637 
L 289.490598 17.850602 
L 289.574944 16.739161 
L 289.755791 21.481484 
L 289.83699 21.050502 
L 289.919216 21.200407 
L 290.000636 19.046346 
L 290.091162 20.067855 
L 290.166134 18.461705 
L 290.253382 19.050214 
L 290.374414 18.683258 
L 290.672833 20.480378 
L 290.754572 17.955116 
L 290.837572 19.341279 
L 290.856922 22.252463 
L 290.938407 19.508001 
L 291.039811 21.805733 
L 291.101465 21.632376 
L 291.182923 22.496352 
L 291.528811 20.461543 
L 291.754382 25.984718 
L 291.814733 27.003836 
L 291.978316 22.82536 
L 292.038419 22.804639 
L 292.264122 26.972247 
L 292.369632 27.207217 
L 292.467032 26.982808 
L 292.528438 27.286344 
L 292.643266 26.801785 
L 292.691129 28.344128 
L 293.211118 15.325755 
L 293.291996 14.224279 
L 293.537784 17.56348 
L 293.802386 18.47186 
L 293.883157 18.337237 
L 294.046286 17.75796 
L 294.148805 15.596757 
L 294.310586 7.713295 
L 294.514044 11.509739 
L 294.555008 9.16238 
L 294.67754 9.944198 
L 294.840971 9.048963 
L 294.983875 14.171553 
L 295.066477 19.487618 
L 295.309672 13.754393 
L 295.432147 15.473246 
L 295.492999 13.112534 
L 295.678766 16.646191 
L 295.908423 11.137615 
L 295.99147 14.903145 
L 296.114344 14.939552 
L 296.156972 15.836097 
L 296.240748 15.668627 
L 296.323907 24.375506 
L 296.343303 20.96832 
L 296.418992 20.89194 
L 296.585198 18.938403 
L 296.664209 20.49272 
L 296.788155 20.573765 
L 296.872481 17.754669 
L 296.929899 18.198454 
L 296.990747 19.768529 
L 297.27052 16.555819 
L 297.337357 17.108647 
L 297.624919 23.457845 
L 297.684536 23.401803 
L 297.767261 23.057589 
L 297.848784 23.497132 
L 298.113783 26.951632 
L 298.182843 26.95384 
L 298.258144 27.281168 
L 298.33854 26.838373 
L 298.533512 29.382052 
L 298.667652 28.332001 
L 298.937924 22.210179 
L 299.093362 24.323173 
L 299.113668 23.077085 
L 299.256075 24.495628 
L 299.308093 18.697795 
L 299.358261 20.457265 
L 299.441513 19.921804 
L 299.624589 22.261116 
L 299.788421 24.937307 
L 299.859322 21.902701 
L 299.954586 22.801391 
L 300.121544 21.47957 
L 300.154525 25.242246 
L 300.216459 23.389456 
L 300.382598 24.273012 
L 300.550649 27.533175 
L 300.625557 26.26449 
L 300.820272 29.524102 
L 300.902071 29.16484 
L 301.014719 25.952577 
L 301.138039 29.946196 
L 301.401455 20.221663 
L 301.503972 18.966104 
L 301.544034 20.279953 
L 301.749073 17.30903 
L 301.809017 20.112035 
L 302.03417 15.674443 
L 302.07442 16.245446 
L 302.320943 21.358284 
L 302.50563 20.351935 
L 302.585103 23.166765 
L 302.645343 21.428623 
L 302.731702 22.175045 
L 302.828861 20.325099 
L 303.077106 21.837105 
L 303.135429 18.406847 
L 303.175981 21.097039 
L 303.399891 16.398113 
L 303.485744 15.139746 
L 303.564696 17.076527 
L 303.645802 16.721324 
L 303.665057 16.160651 
L 303.746968 16.629228 
L 303.852886 15.690347 
L 303.911509 16.50201 
L 304.012429 15.51491 
L 304.155079 19.030034 
L 304.277497 19.332555 
L 304.35864 20.572017 
L 304.423993 19.144897 
L 304.523406 25.402324 
L 304.609764 23.709728 
L 304.708662 24.736068 
L 304.890076 22.705674 
L 305.030808 22.897283 
L 305.133074 19.106755 
L 305.214562 19.249835 
L 305.276835 19.015876 
L 305.380211 17.619284 
L 305.399464 12.140145 
L 305.485758 14.135154 
L 305.568147 15.095762 
L 305.581926 20.802055 
L 305.703581 21.850788 
L 305.764357 19.628809 
L 305.847029 20.523202 
L 305.957647 20.801768 
L 306.016252 19.392476 
L 306.193718 23.678443 
L 306.295957 23.967405 
L 306.35628 23.28058 
L 306.621361 16.269229 
L 306.778547 16.341764 
L 306.787504 12.657036 
L 306.866145 14.790515 
L 306.947289 14.709777 
L 307.076634 13.6915 
L 307.113349 15.819094 
L 307.192566 15.511634 
L 307.27351 14.327178 
L 307.619821 21.654746 
L 307.701865 21.664011 
L 307.783124 19.936319 
L 307.867977 21.604917 
L 307.947741 19.002754 
L 308.028817 19.245766 
L 308.133092 18.835063 
L 308.292475 19.956016 
L 308.359069 15.234435 
L 308.374337 19.336722 
L 308.558148 26.579623 
L 308.660176 27.515513 
L 308.884058 23.200635 
L 308.968124 22.256552 
L 309.127647 22.928112 
L 309.148565 24.189066 
L 309.395328 15.908719 
L 309.562207 11.558369 
L 309.668153 12.240491 
L 309.767256 10.090581 
L 309.830101 11.296821 
L 309.992021 9.055759 
L 310.214817 9.55392 
L 310.277947 10.462505 
L 310.319184 13.890245 
L 310.54426 18.057582 
L 310.603966 17.76333 
L 310.687073 17.930436 
L 310.748399 17.598418 
L 310.970777 21.201151 
L 310.991458 25.247173 
L 311.104492 24.330007 
L 311.257164 21.216404 
L 311.649666 29.899184 
L 311.734914 29.714082 
L 311.755655 31.715064 
L 311.87338 29.086782 
L 311.934459 31.869765 
L 311.995878 31.003407 
L 312.169951 31.598677 
L 312.438119 24.083979 
L 312.509859 24.087864 
L 312.591823 22.791633 
L 312.712527 23.526703 
L 312.874057 20.543917 
L 312.874213 20.95983 
L 313.016952 21.715145 
L 313.283744 27.966206 
L 313.445723 21.482587 
L 313.6938 17.47586 
L 313.833446 18.376407 
L 313.875046 17.733231 
L 314.016498 18.03007 
L 314.141626 14.500384 
L 314.282054 18.752247 
L 314.383028 19.474775 
L 314.48748 18.107429 
L 314.539948 19.112688 
L 314.669717 18.79797 
L 314.709494 19.687764 
L 314.873434 16.494786 
L 315.03519 18.892597 
L 315.117108 18.028763 
L 315.320063 23.95122 
L 315.380904 22.39348 
L 315.474263 22.631618 
L 315.545134 25.134643 
L 315.654069 26.008588 
L 315.876944 23.388116 
L 315.973811 27.971328 
L 316.219648 27.199575 
L 316.302551 27.195993 
L 316.384125 22.14479 
L 316.686362 27.916041 
L 316.749919 26.575054 
L 316.830894 20.387286 
L 316.889612 21.269552 
L 316.971312 21.198553 
L 317.11388 22.874017 
L 317.134642 20.48675 
L 317.219041 25.249314 
L 317.49143 21.152284 
L 317.569456 21.353098 
L 317.659052 26.63095 
L 317.815913 21.024307 
L 317.93046 20.073334 
L 317.992977 21.260467 
L 318.07489 15.580776 
L 318.154037 15.698693 
L 318.2766 16.103098 
L 318.363869 17.222451 
L 318.398621 19.912912 
L 318.480071 16.737631 
L 318.735915 23.060878 
L 318.846525 21.044463 
L 318.908192 26.744682 
L 319.09172 28.333456 
L 319.294775 27.477744 
L 319.417391 29.587177 
L 319.498286 31.85906 
L 319.58057 31.496084 
L 319.68273 33.56606 
L 319.845723 28.218663 
L 320.255716 22.350668 
L 320.437323 16.805613 
L 320.829694 20.252113 
L 320.864718 19.642413 
L 321.029677 20.141661 
L 321.090483 20.686235 
L 321.191173 20.231563 
L 321.292915 23.010412 
L 321.354021 22.791066 
L 321.435967 21.478513 
L 321.558886 21.457048 
L 321.701065 23.229804 
L 321.864965 20.101602 
L 322.070119 23.254974 
L 322.113246 21.741395 
L 322.251749 22.595319 
L 322.31266 25.917509 
L 322.37401 23.759551 
L 322.478125 22.954218 
L 322.621842 24.84773 
L 322.700126 24.79751 
L 322.823984 23.128284 
L 322.864226 20.640565 
L 322.945316 21.647187 
L 323.290694 17.442326 
L 323.456753 22.728145 
L 323.537114 25.188974 
L 323.555508 22.785196 
L 323.64259 22.587021 
L 323.761467 22.758869 
L 323.922364 19.661665 
L 324.004225 20.337698 
L 324.146724 23.986077 
L 324.392135 20.15819 
L 324.622184 21.741274 
L 324.720522 24.077933 
L 324.807192 23.225579 
L 324.901003 23.541116 
L 325.227467 18.662808 
L 325.308323 18.805606 
L 325.409688 18.17677 
L 325.512737 19.444239 
L 325.573304 17.554531 
L 325.674704 17.734614 
L 325.760706 16.112298 
L 325.819044 17.571785 
L 325.899191 14.608413 
L 326.09344 18.84641 
L 326.205556 19.150219 
L 326.327412 16.895137 
L 326.592088 20.628087 
L 326.669096 19.626674 
L 326.750372 21.732381 
L 326.911119 20.293611 
L 327.337303 27.462363 
L 327.626014 24.008558 
L 327.673944 26.302523 
L 327.848728 24.712281 
L 327.930561 25.155061 
L 328.134957 22.728228 
L 328.216959 19.941683 
L 328.258658 21.131354 
L 328.440353 25.485682 
L 328.503899 23.744286 
L 328.79322 25.093312 
L 328.929526 27.888489 
L 329.193366 24.140848 
L 329.277517 25.789596 
L 329.357302 25.055716 
L 329.441729 25.404391 
L 329.523921 27.045505 
L 329.607495 25.600467 
L 329.705389 25.834342 
L 329.86719 27.918917 
L 329.94848 28.477113 
L 330.031499 24.49832 
L 330.115476 25.641924 
L 330.132429 25.228795 
L 330.193465 26.251358 
L 330.277891 27.027102 
L 330.358798 24.548589 
L 330.458919 26.306596 
L 330.544791 26.120154 
L 330.734963 23.640373 
L 330.745143 25.849197 
L 330.786278 21.893267 
L 330.971141 16.943141 
L 331.045086 18.233822 
L 331.21897 17.487538 
L 331.300535 17.952171 
L 331.378426 17.527972 
L 331.78777 32.695687 
L 331.970479 28.409828 
L 332.051341 29.177417 
L 332.297339 18.498243 
L 332.395053 18.896523 
L 332.481025 12.401097 
L 332.562139 13.919477 
L 332.745654 10.786552 
L 333.033392 15.496847 
L 333.214812 17.561885 
L 333.316273 23.535405 
L 333.458127 22.899108 
L 333.527298 24.138032 
L 333.681586 31.526372 
L 333.887058 32.62099 
L 333.988033 30.635796 
L 334.02876 35.189832 
L 334.089611 32.992033 
L 334.192509 29.160288 
L 334.252425 31.29132 
L 334.580062 23.531672 
L 334.682296 22.627352 
L 334.780672 25.223343 
L 334.906313 22.234978 
L 334.985494 22.680128 
L 335.08812 18.979554 
L 335.169941 19.575286 
L 335.252283 19.848527 
L 335.392795 21.110998 
L 335.535303 26.975518 
L 335.600662 26.558897 
L 335.658784 23.547236 
L 335.793628 24.297862 
L 335.841878 23.531842 
L 335.952414 24.031906 
L 336.046964 23.22719 
L 336.209326 16.894394 
L 336.291219 10.741894 
L 336.416294 10.600287 
L 336.514293 11.818949 
L 336.697379 16.35617 
L 336.779498 15.470933 
L 337.134641 23.048643 
L 337.229461 21.873507 
L 337.35398 20.115352 
L 337.433272 19.575608 
L 337.541614 16.566059 
L 337.615925 17.901084 
L 337.820014 17.117034 
L 338.001814 13.284873 
L 338.048999 14.44144 
L 338.135028 13.20861 
L 338.328157 15.145997 
L 338.36857 16.577975 
L 338.451248 15.091043 
L 338.635334 15.224746 
L 338.717461 13.512318 
L 338.89897 17.418337 
L 339.12358 17.957843 
L 339.307174 21.012346 
L 339.369968 20.440129 
L 339.47188 21.453347 
L 339.553965 21.122843 
L 339.896656 23.757646 
L 340.142193 20.287411 
L 340.370803 23.032754 
L 340.427566 27.287455 
L 340.5094 26.900942 
L 340.671961 23.193579 
L 340.804348 22.423897 
L 341.004963 22.786981 
L 341.172531 21.063337 
L 341.276093 15.689085 
L 341.319852 17.387185 
L 341.508273 21.245944 
L 341.591374 20.852106 
L 341.753057 21.413497 
L 341.875369 20.097038 
L 342.021471 23.101441 
L 342.161883 19.567762 
L 342.364684 15.246003 
L 342.472089 16.069924 
L 342.507232 16.046561 
L 342.588427 15.569859 
L 343.261762 29.545087 
L 343.343607 29.227609 
L 343.445695 29.462498 
L 343.526539 31.429334 
L 343.860357 23.179235 
L 343.934538 28.602965 
L 344.0169 28.462019 
L 344.118109 27.708637 
L 344.180931 28.385269 
L 344.344171 22.855938 
L 344.42488 23.106863 
L 344.527442 22.590458 
L 344.647933 23.727965 
L 344.996088 15.20263 
L 345.058917 16.190147 
L 345.11996 19.797997 
L 345.284534 14.36521 
L 345.368777 16.001439 
L 345.450532 14.547053 
L 345.534895 15.555469 
L 345.800651 22.414834 
L 346.02023 24.780499 
L 346.21102 30.417613 
L 346.287168 30.126307 
L 346.470021 27.045595 
L 346.550545 24.989974 
L 346.632967 27.242837 
L 346.797267 22.50079 
L 346.815747 26.846212 
L 346.993881 20.482293 
L 347.039994 20.844133 
L 347.304161 24.425626 
L 347.467759 19.581327 
L 347.810157 28.667294 
L 348.007394 29.97427 
L 348.080606 30.741433 
L 348.140083 28.961302 
L 348.236275 33.135165 
L 348.318345 32.140947 
L 348.496909 26.033171 
L 348.600597 26.218727 
L 348.934143 18.646141 
L 348.988746 20.88002 
L 349.068905 17.898307 
L 349.170329 18.558972 
L 349.272838 21.209652 
L 349.333589 17.822744 
L 349.414737 18.694903 
L 349.537061 18.95395 
L 349.659231 17.80992 
L 349.782655 16.229877 
L 349.908845 19.994371 
L 350.168225 14.350811 
L 350.298603 12.473436 
L 350.519353 16.695074 
L 350.597584 17.199168 
L 350.679857 15.157475 
L 350.802172 15.330389 
L 350.875689 16.128486 
L 351.112248 22.122779 
L 351.209524 24.016689 
L 351.273188 22.902917 
L 351.456072 26.201878 
L 351.597718 25.837805 
L 351.740667 23.373829 
L 351.780685 25.638997 
L 352.055868 15.399804 
L 352.11116 16.145362 
L 352.335825 10.865705 
L 352.415359 11.780984 
L 352.523683 12.937643 
L 352.680526 12.367826 
L 352.721419 15.831808 
L 352.850001 13.588224 
L 353.128586 24.751685 
L 353.213246 22.11466 
L 353.414639 23.259669 
L 353.475571 18.678125 
L 353.576453 24.290107 
L 353.617701 22.736545 
L 353.898007 17.294861 
L 354.168951 21.645386 
L 354.2698 19.36979 
L 354.31067 23.383694 
L 354.475853 16.486561 
L 354.637185 17.42694 
L 354.699987 16.971557 
L 354.71952 18.183166 
L 354.71952 18.183166 
" clip-path="url(#pb3b4997595)" style="fill: none; stroke: #ff0000; stroke-opacity: 0.5; stroke-width: 2.1; stroke-linecap: square"/>
   </g>
   <g id="patch_3">
    <path d="M 23.760625 148.36327 
L 23.760625 0.72 
" style="fill: none; stroke: #000000; stroke-width: 0.8; stroke-linejoin: miter; stroke-linecap: square"/>
   </g>
   <g id="patch_4">
    <path d="M 354.71952 148.36327 
L 354.71952 0.72 
" style="fill: none; stroke: #000000; stroke-width: 0.8; stroke-linejoin: miter; stroke-linecap: square"/>
   </g>
   <g id="patch_5">
    <path d="M 23.760625 148.36327 
L 354.71952 148.36327 
" style="fill: none; stroke: #000000; stroke-width: 0.8; stroke-linejoin: miter; stroke-linecap: square"/>
   </g>
   <g id="patch_6">
    <path d="M 23.760625 0.72 
L 354.71952 0.72 
" style="fill: none; stroke: #000000; stroke-width: 0.8; stroke-linejoin: miter; stroke-linecap: square"/>
   </g>
   <g id="legend_1">
    <g id="patch_7">
     <path d="M 30.760625 143.36327 
L 104.529375 143.36327 
Q 106.529375 143.36327 106.529375 141.36327 
L 106.529375 113.00702 
Q 106.529375 111.00702 104.529375 111.00702 
L 30.760625 111.00702 
Q 28.760625 111.00702 28.760625 113.00702 
L 28.760625 141.36327 
Q 28.760625 143.36327 30.760625 143.36327 
z
" style="fill: #ffffff; opacity: 0.8; stroke: #cccccc; stroke-linejoin: miter"/>
    </g>
    <g id="line2d_25">
     <path d="M 32.760625 119.105457 
L 42.760625 119.105457 
L 52.760625 119.105457 
" style="fill: none; stroke: #0000ff; stroke-opacity: 0.5; stroke-width: 2.1; stroke-linecap: square"/>
    </g>
    <g id="text_14">
     <!-- RNEA -->
     <g transform="translate(60.760625 122.605457) scale(0.1 -0.1)">
      <defs>
       <path id="DejaVuSans-52" d="M 2841 2188 
Q 3044 2119 3236 1894 
Q 3428 1669 3622 1275 
L 4263 0 
L 3584 0 
L 2988 1197 
Q 2756 1666 2539 1819 
Q 2322 1972 1947 1972 
L 1259 1972 
L 1259 0 
L 628 0 
L 628 4666 
L 2053 4666 
Q 2853 4666 3247 4331 
Q 3641 3997 3641 3322 
Q 3641 2881 3436 2590 
Q 3231 2300 2841 2188 
z
M 1259 4147 
L 1259 2491 
L 2053 2491 
Q 2509 2491 2742 2702 
Q 2975 2913 2975 3322 
Q 2975 3731 2742 3939 
Q 2509 4147 2053 4147 
L 1259 4147 
z
" transform="scale(0.015625)"/>
       <path id="DejaVuSans-45" d="M 628 4666 
L 3578 4666 
L 3578 4134 
L 1259 4134 
L 1259 2753 
L 3481 2753 
L 3481 2222 
L 1259 2222 
L 1259 531 
L 3634 531 
L 3634 0 
L 628 0 
L 628 4666 
z
" transform="scale(0.015625)"/>
       <path id="DejaVuSans-41" d="M 2188 4044 
L 1331 1722 
L 3047 1722 
L 2188 4044 
z
M 1831 4666 
L 2547 4666 
L 4325 0 
L 3669 0 
L 3244 1197 
L 1141 1197 
L 716 0 
L 50 0 
L 1831 4666 
z
" transform="scale(0.015625)"/>
      </defs>
      <use xlink:href="#DejaVuSans-52"/>
      <use xlink:href="#DejaVuSans-4e" x="69.482422"/>
      <use xlink:href="#DejaVuSans-45" x="144.287109"/>
      <use xlink:href="#DejaVuSans-41" x="207.470703"/>
     </g>
    </g>
    <g id="line2d_26">
     <path d="M 32.760625 133.783582 
L 42.760625 133.783582 
L 52.760625 133.783582 
" style="fill: none; stroke: #ff0000; stroke-opacity: 0.5; stroke-width: 2.1; stroke-linecap: square"/>
    </g>
    <g id="text_15">
     <!-- BURNEA -->
     <g transform="translate(60.760625 137.283582) scale(0.1 -0.1)">
      <defs>
       <path id="DejaVuSans-42" d="M 1259 2228 
L 1259 519 
L 2272 519 
Q 2781 519 3026 730 
Q 3272 941 3272 1375 
Q 3272 1813 3026 2020 
Q 2781 2228 2272 2228 
L 1259 2228 
z
M 1259 4147 
L 1259 2741 
L 2194 2741 
Q 2656 2741 2882 2914 
Q 3109 3088 3109 3444 
Q 3109 3797 2882 3972 
Q 2656 4147 2194 4147 
L 1259 4147 
z
M 628 4666 
L 2241 4666 
Q 2963 4666 3353 4366 
Q 3744 4066 3744 3513 
Q 3744 3084 3544 2831 
Q 3344 2578 2956 2516 
Q 3422 2416 3680 2098 
Q 3938 1781 3938 1306 
Q 3938 681 3513 340 
Q 3088 0 2303 0 
L 628 0 
L 628 4666 
z
" transform="scale(0.015625)"/>
       <path id="DejaVuSans-55" d="M 556 4666 
L 1191 4666 
L 1191 1831 
Q 1191 1081 1462 751 
Q 1734 422 2344 422 
Q 2950 422 3222 751 
Q 3494 1081 3494 1831 
L 3494 4666 
L 4128 4666 
L 4128 1753 
Q 4128 841 3676 375 
Q 3225 -91 2344 -91 
Q 1459 -91 1007 375 
Q 556 841 556 1753 
L 556 4666 
z
" transform="scale(0.015625)"/>
      </defs>
      <use xlink:href="#DejaVuSans-42"/>
      <use xlink:href="#DejaVuSans-55" x="68.603516"/>
      <use xlink:href="#DejaVuSans-52" x="141.796875"/>
      <use xlink:href="#DejaVuSans-4e" x="211.279297"/>
      <use xlink:href="#DejaVuSans-45" x="286.083984"/>
      <use xlink:href="#DejaVuSans-41" x="349.267578"/>
     </g>
    </g>
   </g>
  </g>
 </g>
 <defs>
  <clipPath id="pb3b4997595">
   <rect x="23.760625" y="0.72" width="330.958895" height="147.64327"/>
  </clipPath>
 </defs>
</svg>
