<?xml version="1.0" encoding="utf-8" standalone="no"?>
<!DOCTYPE svg PUBLIC "-//W3C//DTD SVG 1.1//EN"
  "http://www.w3.org/Graphics/SVG/1.1/DTD/svg11.dtd">
<svg xmlns:xlink="http://www.w3.org/1999/xlink" width="355.43952pt" height="175.43952pt" viewBox="0 0 355.43952 175.43952" xmlns="http://www.w3.org/2000/svg" version="1.1">
 <metadata>
  <rdf:RDF xmlns:dc="http://purl.org/dc/elements/1.1/" xmlns:cc="http://creativecommons.org/ns#" xmlns:rdf="http://www.w3.org/1999/02/22-rdf-syntax-ns#">
   <cc:Work>
    <dc:type rdf:resource="http://purl.org/dc/dcmitype/StillImage"/>
    <dc:date>2023-09-09T18:29:29.380696</dc:date>
    <dc:format>image/svg+xml</dc:format>
    <dc:creator>
     <cc:Agent>
      <dc:title>Matplotlib v3.7.2, https://matplotlib.org/</dc:title>
     </cc:Agent>
    </dc:creator>
   </cc:Work>
  </rdf:RDF>
 </metadata>
 <defs>
  <style type="text/css">*{stroke-linejoin: round; stroke-linecap: butt}</style>
 </defs>
 <g id="figure_1">
  <g id="patch_1">
   <path d="M 0 175.43952 
L 355.43952 175.43952 
L 355.43952 0 
L 0 0 
L 0 175.43952 
z
" style="fill: none"/>
  </g>
  <g id="axes_1">
   <g id="patch_2">
    <path d="M 39.66375 148.36327 
L 354.71952 148.36327 
L 354.71952 0.72 
L 39.66375 0.72 
L 39.66375 148.36327 
z
" style="fill: none"/>
   </g>
   <g id="matplotlib.axis_1">
    <g id="xtick_1">
     <g id="line2d_1">
      <path d="M 39.66375 148.36327 
L 39.66375 0.72 
" clip-path="url(#p1448d8a6d2)" style="fill: none; stroke-dasharray: 0.8,1.32; stroke-dashoffset: 0; stroke: #000000; stroke-opacity: 0.5; stroke-width: 0.8"/>
     </g>
     <g id="line2d_2">
      <defs>
       <path id="mfc8f76ea65" d="M 0 0 
L 0 3.5 
" style="stroke: #000000; stroke-width: 0.8"/>
      </defs>
      <g>
       <use xlink:href="#mfc8f76ea65" x="39.66375" y="148.36327" style="stroke: #000000; stroke-width: 0.8"/>
      </g>
     </g>
     <g id="text_1">
      <!-- 0 -->
      <g transform="translate(36.4825 162.961707) scale(0.1 -0.1)">
       <defs>
        <path id="DejaVuSans-30" d="M 2034 4250 
Q 1547 4250 1301 3770 
Q 1056 3291 1056 2328 
Q 1056 1369 1301 889 
Q 1547 409 2034 409 
Q 2525 409 2770 889 
Q 3016 1369 3016 2328 
Q 3016 3291 2770 3770 
Q 2525 4250 2034 4250 
z
M 2034 4750 
Q 2819 4750 3233 4129 
Q 3647 3509 3647 2328 
Q 3647 1150 3233 529 
Q 2819 -91 2034 -91 
Q 1250 -91 836 529 
Q 422 1150 422 2328 
Q 422 3509 836 4129 
Q 1250 4750 2034 4750 
z
" transform="scale(0.015625)"/>
       </defs>
       <use xlink:href="#DejaVuSans-30"/>
      </g>
     </g>
    </g>
    <g id="xtick_2">
     <g id="line2d_3">
      <path d="M 87.785866 148.36327 
L 87.785866 0.72 
" clip-path="url(#p1448d8a6d2)" style="fill: none; stroke-dasharray: 0.8,1.32; stroke-dashoffset: 0; stroke: #000000; stroke-opacity: 0.5; stroke-width: 0.8"/>
     </g>
     <g id="line2d_4">
      <g>
       <use xlink:href="#mfc8f76ea65" x="87.785866" y="148.36327" style="stroke: #000000; stroke-width: 0.8"/>
      </g>
     </g>
     <g id="text_2">
      <!-- 5 -->
      <g transform="translate(84.604616 162.961707) scale(0.1 -0.1)">
       <defs>
        <path id="DejaVuSans-35" d="M 691 4666 
L 3169 4666 
L 3169 4134 
L 1269 4134 
L 1269 2991 
Q 1406 3038 1543 3061 
Q 1681 3084 1819 3084 
Q 2600 3084 3056 2656 
Q 3513 2228 3513 1497 
Q 3513 744 3044 326 
Q 2575 -91 1722 -91 
Q 1428 -91 1123 -41 
Q 819 9 494 109 
L 494 744 
Q 775 591 1075 516 
Q 1375 441 1709 441 
Q 2250 441 2565 725 
Q 2881 1009 2881 1497 
Q 2881 1984 2565 2268 
Q 2250 2553 1709 2553 
Q 1456 2553 1204 2497 
Q 953 2441 691 2322 
L 691 4666 
z
" transform="scale(0.015625)"/>
       </defs>
       <use xlink:href="#DejaVuSans-35"/>
      </g>
     </g>
    </g>
    <g id="xtick_3">
     <g id="line2d_5">
      <path d="M 135.907982 148.36327 
L 135.907982 0.72 
" clip-path="url(#p1448d8a6d2)" style="fill: none; stroke-dasharray: 0.8,1.32; stroke-dashoffset: 0; stroke: #000000; stroke-opacity: 0.5; stroke-width: 0.8"/>
     </g>
     <g id="line2d_6">
      <g>
       <use xlink:href="#mfc8f76ea65" x="135.907982" y="148.36327" style="stroke: #000000; stroke-width: 0.8"/>
      </g>
     </g>
     <g id="text_3">
      <!-- 10 -->
      <g transform="translate(129.545482 162.961707) scale(0.1 -0.1)">
       <defs>
        <path id="DejaVuSans-31" d="M 794 531 
L 1825 531 
L 1825 4091 
L 703 3866 
L 703 4441 
L 1819 4666 
L 2450 4666 
L 2450 531 
L 3481 531 
L 3481 0 
L 794 0 
L 794 531 
z
" transform="scale(0.015625)"/>
       </defs>
       <use xlink:href="#DejaVuSans-31"/>
       <use xlink:href="#DejaVuSans-30" x="63.623047"/>
      </g>
     </g>
    </g>
    <g id="xtick_4">
     <g id="line2d_7">
      <path d="M 184.030097 148.36327 
L 184.030097 0.72 
" clip-path="url(#p1448d8a6d2)" style="fill: none; stroke-dasharray: 0.8,1.32; stroke-dashoffset: 0; stroke: #000000; stroke-opacity: 0.5; stroke-width: 0.8"/>
     </g>
     <g id="line2d_8">
      <g>
       <use xlink:href="#mfc8f76ea65" x="184.030097" y="148.36327" style="stroke: #000000; stroke-width: 0.8"/>
      </g>
     </g>
     <g id="text_4">
      <!-- 15 -->
      <g transform="translate(177.667597 162.961707) scale(0.1 -0.1)">
       <use xlink:href="#DejaVuSans-31"/>
       <use xlink:href="#DejaVuSans-35" x="63.623047"/>
      </g>
     </g>
    </g>
    <g id="xtick_5">
     <g id="line2d_9">
      <path d="M 232.152213 148.36327 
L 232.152213 0.72 
" clip-path="url(#p1448d8a6d2)" style="fill: none; stroke-dasharray: 0.8,1.32; stroke-dashoffset: 0; stroke: #000000; stroke-opacity: 0.5; stroke-width: 0.8"/>
     </g>
     <g id="line2d_10">
      <g>
       <use xlink:href="#mfc8f76ea65" x="232.152213" y="148.36327" style="stroke: #000000; stroke-width: 0.8"/>
      </g>
     </g>
     <g id="text_5">
      <!-- 20 -->
      <g transform="translate(225.789713 162.961707) scale(0.1 -0.1)">
       <defs>
        <path id="DejaVuSans-32" d="M 1228 531 
L 3431 531 
L 3431 0 
L 469 0 
L 469 531 
Q 828 903 1448 1529 
Q 2069 2156 2228 2338 
Q 2531 2678 2651 2914 
Q 2772 3150 2772 3378 
Q 2772 3750 2511 3984 
Q 2250 4219 1831 4219 
Q 1534 4219 1204 4116 
Q 875 4013 500 3803 
L 500 4441 
Q 881 4594 1212 4672 
Q 1544 4750 1819 4750 
Q 2544 4750 2975 4387 
Q 3406 4025 3406 3419 
Q 3406 3131 3298 2873 
Q 3191 2616 2906 2266 
Q 2828 2175 2409 1742 
Q 1991 1309 1228 531 
z
" transform="scale(0.015625)"/>
       </defs>
       <use xlink:href="#DejaVuSans-32"/>
       <use xlink:href="#DejaVuSans-30" x="63.623047"/>
      </g>
     </g>
    </g>
    <g id="xtick_6">
     <g id="line2d_11">
      <path d="M 280.274329 148.36327 
L 280.274329 0.72 
" clip-path="url(#p1448d8a6d2)" style="fill: none; stroke-dasharray: 0.8,1.32; stroke-dashoffset: 0; stroke: #000000; stroke-opacity: 0.5; stroke-width: 0.8"/>
     </g>
     <g id="line2d_12">
      <g>
       <use xlink:href="#mfc8f76ea65" x="280.274329" y="148.36327" style="stroke: #000000; stroke-width: 0.8"/>
      </g>
     </g>
     <g id="text_6">
      <!-- 25 -->
      <g transform="translate(273.911829 162.961707) scale(0.1 -0.1)">
       <use xlink:href="#DejaVuSans-32"/>
       <use xlink:href="#DejaVuSans-35" x="63.623047"/>
      </g>
     </g>
    </g>
    <g id="xtick_7">
     <g id="line2d_13">
      <path d="M 328.396445 148.36327 
L 328.396445 0.72 
" clip-path="url(#p1448d8a6d2)" style="fill: none; stroke-dasharray: 0.8,1.32; stroke-dashoffset: 0; stroke: #000000; stroke-opacity: 0.5; stroke-width: 0.8"/>
     </g>
     <g id="line2d_14">
      <g>
       <use xlink:href="#mfc8f76ea65" x="328.396445" y="148.36327" style="stroke: #000000; stroke-width: 0.8"/>
      </g>
     </g>
     <g id="text_7">
      <!-- 30 -->
      <g transform="translate(322.033945 162.961707) scale(0.1 -0.1)">
       <defs>
        <path id="DejaVuSans-33" d="M 2597 2516 
Q 3050 2419 3304 2112 
Q 3559 1806 3559 1356 
Q 3559 666 3084 287 
Q 2609 -91 1734 -91 
Q 1441 -91 1130 -33 
Q 819 25 488 141 
L 488 750 
Q 750 597 1062 519 
Q 1375 441 1716 441 
Q 2309 441 2620 675 
Q 2931 909 2931 1356 
Q 2931 1769 2642 2001 
Q 2353 2234 1838 2234 
L 1294 2234 
L 1294 2753 
L 1863 2753 
Q 2328 2753 2575 2939 
Q 2822 3125 2822 3475 
Q 2822 3834 2567 4026 
Q 2313 4219 1838 4219 
Q 1578 4219 1281 4162 
Q 984 4106 628 3988 
L 628 4550 
Q 988 4650 1302 4700 
Q 1616 4750 1894 4750 
Q 2613 4750 3031 4423 
Q 3450 4097 3450 3541 
Q 3450 3153 3228 2886 
Q 3006 2619 2597 2516 
z
" transform="scale(0.015625)"/>
       </defs>
       <use xlink:href="#DejaVuSans-33"/>
       <use xlink:href="#DejaVuSans-30" x="63.623047"/>
      </g>
     </g>
    </g>
    <g id="text_8">
     <!-- Zeit [s] -->
     <g transform="translate(179.245541 172.639832) scale(0.1 -0.1)">
      <defs>
       <path id="DejaVuSans-5a" d="M 359 4666 
L 4025 4666 
L 4025 4184 
L 1075 531 
L 4097 531 
L 4097 0 
L 288 0 
L 288 481 
L 3238 4134 
L 359 4134 
L 359 4666 
z
" transform="scale(0.015625)"/>
       <path id="DejaVuSans-65" d="M 3597 1894 
L 3597 1613 
L 953 1613 
Q 991 1019 1311 708 
Q 1631 397 2203 397 
Q 2534 397 2845 478 
Q 3156 559 3463 722 
L 3463 178 
Q 3153 47 2828 -22 
Q 2503 -91 2169 -91 
Q 1331 -91 842 396 
Q 353 884 353 1716 
Q 353 2575 817 3079 
Q 1281 3584 2069 3584 
Q 2775 3584 3186 3129 
Q 3597 2675 3597 1894 
z
M 3022 2063 
Q 3016 2534 2758 2815 
Q 2500 3097 2075 3097 
Q 1594 3097 1305 2825 
Q 1016 2553 972 2059 
L 3022 2063 
z
" transform="scale(0.015625)"/>
       <path id="DejaVuSans-69" d="M 603 3500 
L 1178 3500 
L 1178 0 
L 603 0 
L 603 3500 
z
M 603 4863 
L 1178 4863 
L 1178 4134 
L 603 4134 
L 603 4863 
z
" transform="scale(0.015625)"/>
       <path id="DejaVuSans-74" d="M 1172 4494 
L 1172 3500 
L 2356 3500 
L 2356 3053 
L 1172 3053 
L 1172 1153 
Q 1172 725 1289 603 
Q 1406 481 1766 481 
L 2356 481 
L 2356 0 
L 1766 0 
Q 1100 0 847 248 
Q 594 497 594 1153 
L 594 3053 
L 172 3053 
L 172 3500 
L 594 3500 
L 594 4494 
L 1172 4494 
z
" transform="scale(0.015625)"/>
       <path id="DejaVuSans-20" transform="scale(0.015625)"/>
       <path id="DejaVuSans-5b" d="M 550 4863 
L 1875 4863 
L 1875 4416 
L 1125 4416 
L 1125 -397 
L 1875 -397 
L 1875 -844 
L 550 -844 
L 550 4863 
z
" transform="scale(0.015625)"/>
       <path id="DejaVuSans-73" d="M 2834 3397 
L 2834 2853 
Q 2591 2978 2328 3040 
Q 2066 3103 1784 3103 
Q 1356 3103 1142 2972 
Q 928 2841 928 2578 
Q 928 2378 1081 2264 
Q 1234 2150 1697 2047 
L 1894 2003 
Q 2506 1872 2764 1633 
Q 3022 1394 3022 966 
Q 3022 478 2636 193 
Q 2250 -91 1575 -91 
Q 1294 -91 989 -36 
Q 684 19 347 128 
L 347 722 
Q 666 556 975 473 
Q 1284 391 1588 391 
Q 1994 391 2212 530 
Q 2431 669 2431 922 
Q 2431 1156 2273 1281 
Q 2116 1406 1581 1522 
L 1381 1569 
Q 847 1681 609 1914 
Q 372 2147 372 2553 
Q 372 3047 722 3315 
Q 1072 3584 1716 3584 
Q 2034 3584 2315 3537 
Q 2597 3491 2834 3397 
z
" transform="scale(0.015625)"/>
       <path id="DejaVuSans-5d" d="M 1947 4863 
L 1947 -844 
L 622 -844 
L 622 -397 
L 1369 -397 
L 1369 4416 
L 622 4416 
L 622 4863 
L 1947 4863 
z
" transform="scale(0.015625)"/>
      </defs>
      <use xlink:href="#DejaVuSans-5a"/>
      <use xlink:href="#DejaVuSans-65" x="68.505859"/>
      <use xlink:href="#DejaVuSans-69" x="130.029297"/>
      <use xlink:href="#DejaVuSans-74" x="157.8125"/>
      <use xlink:href="#DejaVuSans-20" x="197.021484"/>
      <use xlink:href="#DejaVuSans-5b" x="228.808594"/>
      <use xlink:href="#DejaVuSans-73" x="267.822266"/>
      <use xlink:href="#DejaVuSans-5d" x="319.921875"/>
     </g>
    </g>
   </g>
   <g id="matplotlib.axis_2">
    <g id="ytick_1">
     <g id="line2d_15">
      <path d="M 39.66375 144.963485 
L 354.71952 144.963485 
" clip-path="url(#p1448d8a6d2)" style="fill: none; stroke-dasharray: 0.8,1.32; stroke-dashoffset: 0; stroke: #000000; stroke-opacity: 0.5; stroke-width: 0.8"/>
     </g>
     <g id="line2d_16">
      <defs>
       <path id="mddc53d2c25" d="M 0 0 
L -3.5 0 
" style="stroke: #000000; stroke-width: 0.8"/>
      </defs>
      <g>
       <use xlink:href="#mddc53d2c25" x="39.66375" y="144.963485" style="stroke: #000000; stroke-width: 0.8"/>
      </g>
     </g>
     <g id="text_9">
      <!-- 0.00 -->
      <g transform="translate(10.398125 148.762704) scale(0.1 -0.1)">
       <defs>
        <path id="DejaVuSans-2e" d="M 684 794 
L 1344 794 
L 1344 0 
L 684 0 
L 684 794 
z
" transform="scale(0.015625)"/>
       </defs>
       <use xlink:href="#DejaVuSans-30"/>
       <use xlink:href="#DejaVuSans-2e" x="63.623047"/>
       <use xlink:href="#DejaVuSans-30" x="95.410156"/>
       <use xlink:href="#DejaVuSans-30" x="159.033203"/>
      </g>
     </g>
    </g>
    <g id="ytick_2">
     <g id="line2d_17">
      <path d="M 39.66375 122.069618 
L 354.71952 122.069618 
" clip-path="url(#p1448d8a6d2)" style="fill: none; stroke-dasharray: 0.8,1.32; stroke-dashoffset: 0; stroke: #000000; stroke-opacity: 0.5; stroke-width: 0.8"/>
     </g>
     <g id="line2d_18">
      <g>
       <use xlink:href="#mddc53d2c25" x="39.66375" y="122.069618" style="stroke: #000000; stroke-width: 0.8"/>
      </g>
     </g>
     <g id="text_10">
      <!-- 0.25 -->
      <g transform="translate(10.398125 125.868837) scale(0.1 -0.1)">
       <use xlink:href="#DejaVuSans-30"/>
       <use xlink:href="#DejaVuSans-2e" x="63.623047"/>
       <use xlink:href="#DejaVuSans-32" x="95.410156"/>
       <use xlink:href="#DejaVuSans-35" x="159.033203"/>
      </g>
     </g>
    </g>
    <g id="ytick_3">
     <g id="line2d_19">
      <path d="M 39.66375 99.175751 
L 354.71952 99.175751 
" clip-path="url(#p1448d8a6d2)" style="fill: none; stroke-dasharray: 0.8,1.32; stroke-dashoffset: 0; stroke: #000000; stroke-opacity: 0.5; stroke-width: 0.8"/>
     </g>
     <g id="line2d_20">
      <g>
       <use xlink:href="#mddc53d2c25" x="39.66375" y="99.175751" style="stroke: #000000; stroke-width: 0.8"/>
      </g>
     </g>
     <g id="text_11">
      <!-- 0.50 -->
      <g transform="translate(10.398125 102.974969) scale(0.1 -0.1)">
       <use xlink:href="#DejaVuSans-30"/>
       <use xlink:href="#DejaVuSans-2e" x="63.623047"/>
       <use xlink:href="#DejaVuSans-35" x="95.410156"/>
       <use xlink:href="#DejaVuSans-30" x="159.033203"/>
      </g>
     </g>
    </g>
    <g id="ytick_4">
     <g id="line2d_21">
      <path d="M 39.66375 76.281883 
L 354.71952 76.281883 
" clip-path="url(#p1448d8a6d2)" style="fill: none; stroke-dasharray: 0.8,1.32; stroke-dashoffset: 0; stroke: #000000; stroke-opacity: 0.5; stroke-width: 0.8"/>
     </g>
     <g id="line2d_22">
      <g>
       <use xlink:href="#mddc53d2c25" x="39.66375" y="76.281883" style="stroke: #000000; stroke-width: 0.8"/>
      </g>
     </g>
     <g id="text_12">
      <!-- 0.75 -->
      <g transform="translate(10.398125 80.081102) scale(0.1 -0.1)">
       <defs>
        <path id="DejaVuSans-37" d="M 525 4666 
L 3525 4666 
L 3525 4397 
L 1831 0 
L 1172 0 
L 2766 4134 
L 525 4134 
L 525 4666 
z
" transform="scale(0.015625)"/>
       </defs>
       <use xlink:href="#DejaVuSans-30"/>
       <use xlink:href="#DejaVuSans-2e" x="63.623047"/>
       <use xlink:href="#DejaVuSans-37" x="95.410156"/>
       <use xlink:href="#DejaVuSans-35" x="159.033203"/>
      </g>
     </g>
    </g>
    <g id="ytick_5">
     <g id="line2d_23">
      <path d="M 39.66375 53.388016 
L 354.71952 53.388016 
" clip-path="url(#p1448d8a6d2)" style="fill: none; stroke-dasharray: 0.8,1.32; stroke-dashoffset: 0; stroke: #000000; stroke-opacity: 0.5; stroke-width: 0.8"/>
     </g>
     <g id="line2d_24">
      <g>
       <use xlink:href="#mddc53d2c25" x="39.66375" y="53.388016" style="stroke: #000000; stroke-width: 0.8"/>
      </g>
     </g>
     <g id="text_13">
      <!-- 1.00 -->
      <g transform="translate(10.398125 57.187235) scale(0.1 -0.1)">
       <use xlink:href="#DejaVuSans-31"/>
       <use xlink:href="#DejaVuSans-2e" x="63.623047"/>
       <use xlink:href="#DejaVuSans-30" x="95.410156"/>
       <use xlink:href="#DejaVuSans-30" x="159.033203"/>
      </g>
     </g>
    </g>
    <g id="ytick_6">
     <g id="line2d_25">
      <path d="M 39.66375 30.494149 
L 354.71952 30.494149 
" clip-path="url(#p1448d8a6d2)" style="fill: none; stroke-dasharray: 0.8,1.32; stroke-dashoffset: 0; stroke: #000000; stroke-opacity: 0.5; stroke-width: 0.8"/>
     </g>
     <g id="line2d_26">
      <g>
       <use xlink:href="#mddc53d2c25" x="39.66375" y="30.494149" style="stroke: #000000; stroke-width: 0.8"/>
      </g>
     </g>
     <g id="text_14">
      <!-- 1.25 -->
      <g transform="translate(10.398125 34.293368) scale(0.1 -0.1)">
       <use xlink:href="#DejaVuSans-31"/>
       <use xlink:href="#DejaVuSans-2e" x="63.623047"/>
       <use xlink:href="#DejaVuSans-32" x="95.410156"/>
       <use xlink:href="#DejaVuSans-35" x="159.033203"/>
      </g>
     </g>
    </g>
    <g id="ytick_7">
     <g id="line2d_27">
      <path d="M 39.66375 7.600282 
L 354.71952 7.600282 
" clip-path="url(#p1448d8a6d2)" style="fill: none; stroke-dasharray: 0.8,1.32; stroke-dashoffset: 0; stroke: #000000; stroke-opacity: 0.5; stroke-width: 0.8"/>
     </g>
     <g id="line2d_28">
      <g>
       <use xlink:href="#mddc53d2c25" x="39.66375" y="7.600282" style="stroke: #000000; stroke-width: 0.8"/>
      </g>
     </g>
     <g id="text_15">
      <!-- 1.50 -->
      <g transform="translate(10.398125 11.3995) scale(0.1 -0.1)">
       <use xlink:href="#DejaVuSans-31"/>
       <use xlink:href="#DejaVuSans-2e" x="63.623047"/>
       <use xlink:href="#DejaVuSans-35" x="95.410156"/>
       <use xlink:href="#DejaVuSans-30" x="159.033203"/>
      </g>
     </g>
    </g>
    <g id="text_16">
     <!-- Drehmoment [Nm] -->
     <g transform="translate(8.318438 121.686947) rotate(-90) scale(0.1 -0.1)">
      <defs>
       <path id="DejaVuSans-44" d="M 1259 4147 
L 1259 519 
L 2022 519 
Q 2988 519 3436 956 
Q 3884 1394 3884 2338 
Q 3884 3275 3436 3711 
Q 2988 4147 2022 4147 
L 1259 4147 
z
M 628 4666 
L 1925 4666 
Q 3281 4666 3915 4102 
Q 4550 3538 4550 2338 
Q 4550 1131 3912 565 
Q 3275 0 1925 0 
L 628 0 
L 628 4666 
z
" transform="scale(0.015625)"/>
       <path id="DejaVuSans-72" d="M 2631 2963 
Q 2534 3019 2420 3045 
Q 2306 3072 2169 3072 
Q 1681 3072 1420 2755 
Q 1159 2438 1159 1844 
L 1159 0 
L 581 0 
L 581 3500 
L 1159 3500 
L 1159 2956 
Q 1341 3275 1631 3429 
Q 1922 3584 2338 3584 
Q 2397 3584 2469 3576 
Q 2541 3569 2628 3553 
L 2631 2963 
z
" transform="scale(0.015625)"/>
       <path id="DejaVuSans-68" d="M 3513 2113 
L 3513 0 
L 2938 0 
L 2938 2094 
Q 2938 2591 2744 2837 
Q 2550 3084 2163 3084 
Q 1697 3084 1428 2787 
Q 1159 2491 1159 1978 
L 1159 0 
L 581 0 
L 581 4863 
L 1159 4863 
L 1159 2956 
Q 1366 3272 1645 3428 
Q 1925 3584 2291 3584 
Q 2894 3584 3203 3211 
Q 3513 2838 3513 2113 
z
" transform="scale(0.015625)"/>
       <path id="DejaVuSans-6d" d="M 3328 2828 
Q 3544 3216 3844 3400 
Q 4144 3584 4550 3584 
Q 5097 3584 5394 3201 
Q 5691 2819 5691 2113 
L 5691 0 
L 5113 0 
L 5113 2094 
Q 5113 2597 4934 2840 
Q 4756 3084 4391 3084 
Q 3944 3084 3684 2787 
Q 3425 2491 3425 1978 
L 3425 0 
L 2847 0 
L 2847 2094 
Q 2847 2600 2669 2842 
Q 2491 3084 2119 3084 
Q 1678 3084 1418 2786 
Q 1159 2488 1159 1978 
L 1159 0 
L 581 0 
L 581 3500 
L 1159 3500 
L 1159 2956 
Q 1356 3278 1631 3431 
Q 1906 3584 2284 3584 
Q 2666 3584 2933 3390 
Q 3200 3197 3328 2828 
z
" transform="scale(0.015625)"/>
       <path id="DejaVuSans-6f" d="M 1959 3097 
Q 1497 3097 1228 2736 
Q 959 2375 959 1747 
Q 959 1119 1226 758 
Q 1494 397 1959 397 
Q 2419 397 2687 759 
Q 2956 1122 2956 1747 
Q 2956 2369 2687 2733 
Q 2419 3097 1959 3097 
z
M 1959 3584 
Q 2709 3584 3137 3096 
Q 3566 2609 3566 1747 
Q 3566 888 3137 398 
Q 2709 -91 1959 -91 
Q 1206 -91 779 398 
Q 353 888 353 1747 
Q 353 2609 779 3096 
Q 1206 3584 1959 3584 
z
" transform="scale(0.015625)"/>
       <path id="DejaVuSans-6e" d="M 3513 2113 
L 3513 0 
L 2938 0 
L 2938 2094 
Q 2938 2591 2744 2837 
Q 2550 3084 2163 3084 
Q 1697 3084 1428 2787 
Q 1159 2491 1159 1978 
L 1159 0 
L 581 0 
L 581 3500 
L 1159 3500 
L 1159 2956 
Q 1366 3272 1645 3428 
Q 1925 3584 2291 3584 
Q 2894 3584 3203 3211 
Q 3513 2838 3513 2113 
z
" transform="scale(0.015625)"/>
       <path id="DejaVuSans-4e" d="M 628 4666 
L 1478 4666 
L 3547 763 
L 3547 4666 
L 4159 4666 
L 4159 0 
L 3309 0 
L 1241 3903 
L 1241 0 
L 628 0 
L 628 4666 
z
" transform="scale(0.015625)"/>
      </defs>
      <use xlink:href="#DejaVuSans-44"/>
      <use xlink:href="#DejaVuSans-72" x="77.001953"/>
      <use xlink:href="#DejaVuSans-65" x="115.865234"/>
      <use xlink:href="#DejaVuSans-68" x="177.388672"/>
      <use xlink:href="#DejaVuSans-6d" x="240.767578"/>
      <use xlink:href="#DejaVuSans-6f" x="338.179688"/>
      <use xlink:href="#DejaVuSans-6d" x="399.361328"/>
      <use xlink:href="#DejaVuSans-65" x="496.773438"/>
      <use xlink:href="#DejaVuSans-6e" x="558.296875"/>
      <use xlink:href="#DejaVuSans-74" x="621.675781"/>
      <use xlink:href="#DejaVuSans-20" x="660.884766"/>
      <use xlink:href="#DejaVuSans-5b" x="692.671875"/>
      <use xlink:href="#DejaVuSans-4e" x="731.685547"/>
      <use xlink:href="#DejaVuSans-6d" x="806.490234"/>
      <use xlink:href="#DejaVuSans-5d" x="903.902344"/>
     </g>
    </g>
   </g>
   <g id="line2d_29">
    <path d="M 39.66375 144.970649 
L 40.211302 144.95895 
L 41.179443 144.970699 
L 42.696487 144.961401 
L 44.948276 144.97473 
L 48.40644 144.96935 
L 48.949034 144.968214 
L 50.082081 144.965918 
L 123.471818 144.970257 
L 124.441325 144.968347 
L 126.147983 144.963945 
L 130.448111 144.967406 
L 132.448953 144.965209 
L 137.916274 144.972673 
L 147.461668 144.961964 
L 148.414208 144.965529 
L 151.69582 144.964903 
L 153.315943 144.962905 
L 158.22439 144.967767 
L 169.127114 144.969184 
L 171.263247 144.965491 
L 174.319169 144.972911 
L 176.369208 144.9605 
L 176.73866 144.970033 
L 183.300106 144.973184 
L 184.194475 144.967124 
L 188.368183 144.968182 
L 190.212589 144.969214 
L 234.579722 144.965838 
L 235.123145 144.966409 
L 237.365194 144.960469 
L 238.101692 144.970183 
L 239.771911 144.967365 
L 242.181652 144.960836 
L 243.243191 144.968411 
L 266.799871 144.964266 
L 340.608919 144.967616 
L 342.143096 144.96704 
L 354.71952 144.971351 
L 354.71952 144.971351 
" clip-path="url(#p1448d8a6d2)" style="fill: none; stroke: #0000ff; stroke-opacity: 0.5; stroke-width: 2.1; stroke-linecap: square"/>
   </g>
   <g id="line2d_30">
    <path d="M 39.66375 38.710572 
L 39.830444 33.655816 
L 39.897896 37.599495 
L 40.017706 30.797002 
L 40.075123 34.170013 
L 40.155127 38.135535 
L 40.286818 30.969341 
L 40.3649 32.778681 
L 40.546728 23.109122 
L 40.772318 35.438336 
L 40.849353 37.050355 
L 40.927451 31.993328 
L 41.179443 41.060396 
L 41.353747 54.597082 
L 41.682574 40.205632 
L 41.876664 47.210934 
L 41.916418 46.635812 
L 41.995476 45.513041 
L 42.071419 47.786158 
L 42.14931 47.277354 
L 42.284939 49.881067 
L 42.382041 62.491284 
L 42.460518 63.998126 
L 42.866485 37.54085 
L 42.944011 41.566091 
L 43.021871 47.198996 
L 43.255849 40.512593 
L 43.333768 39.309271 
L 43.416693 34.943155 
L 43.587531 54.49484 
L 43.743256 53.393726 
L 43.820675 55.427224 
L 43.975901 40.519865 
L 44.136209 51.579369 
L 44.615512 18.578543 
L 44.733089 22.926822 
L 44.777748 29.1808 
L 44.852331 25.050097 
L 44.948276 25.375074 
L 45.025891 30.42439 
L 45.181259 24.943825 
L 45.337397 40.588976 
L 45.57411 35.383041 
L 45.667324 38.993727 
L 45.823147 31.654619 
L 45.978509 41.890911 
L 46.067402 40.68817 
L 46.30755 29.757277 
L 46.477797 30.246694 
L 46.620612 37.850594 
L 46.696882 37.038324 
L 46.948462 27.392484 
L 47.034786 28.549503 
L 47.180695 36.120809 
L 47.258351 29.675642 
L 47.337356 30.544161 
L 47.514213 24.746112 
L 47.74763 39.843968 
L 47.901956 28.776099 
L 48.05714 21.115732 
L 48.348064 32.574622 
L 48.40644 38.788748 
L 48.46464 29.793394 
L 48.600241 34.168508 
L 48.776215 51.942786 
L 48.871041 51.052932 
L 49.104004 41.771594 
L 49.184166 40.733145 
L 49.423883 25.897026 
L 49.514989 26.375813 
L 49.669585 33.610767 
L 49.826856 34.936776 
L 49.999821 32.25261 
L 50.258916 48.188759 
L 50.41294 36.239248 
L 50.552542 31.849221 
L 50.653109 34.812198 
L 50.729015 33.741831 
L 50.794823 37.84564 
L 50.874165 37.627575 
L 50.978419 35.105252 
L 51.049305 35.666116 
L 51.144652 38.151434 
L 51.162801 36.528844 
L 51.282817 23.172689 
L 51.393271 32.101405 
L 51.393826 30.949875 
L 51.614717 35.328601 
L 51.693459 36.195642 
L 51.869688 22.276223 
L 52.119644 35.187142 
L 52.23621 20.822073 
L 52.335152 21.697345 
L 52.469635 28.864031 
L 52.65027 42.123665 
L 52.759886 39.458477 
L 52.858449 42.160645 
L 52.955761 36.226092 
L 53.140574 42.088663 
L 53.322797 30.115102 
L 53.46724 32.862062 
L 53.536398 29.669902 
L 53.595375 30.322621 
L 53.9238 56.173026 
L 54.158096 47.57462 
L 54.204769 42.755222 
L 54.311683 43.52935 
L 54.389026 45.691163 
L 54.719489 10.675202 
L 55.204016 35.623698 
L 55.301152 34.162192 
L 55.399406 28.882533 
L 55.455954 32.197454 
L 55.533873 31.8283 
L 55.610957 33.026981 
L 55.787461 27.182744 
L 55.979397 21.479556 
L 56.017897 26.425121 
L 56.083744 24.464312 
L 56.172588 24.840963 
L 56.328217 43.472366 
L 56.439696 38.353775 
L 56.484408 39.45326 
L 56.580489 40.060863 
L 56.736865 37.679853 
L 56.904972 46.718529 
L 57.105083 33.791979 
L 57.163067 34.240316 
L 57.300025 31.078583 
L 57.376354 32.625177 
L 57.532607 42.633241 
L 57.707541 32.955717 
L 57.862318 44.93079 
L 57.978529 42.781813 
L 58.037822 49.797091 
L 58.153155 49.693515 
L 58.385999 43.061418 
L 58.555914 48.068272 
L 58.580287 48.972101 
L 58.7559 42.123681 
L 58.832994 41.937675 
L 58.952296 41.268104 
L 59.070659 36.049927 
L 59.167367 40.785582 
L 59.235978 36.25359 
L 59.317021 39.946859 
L 59.453883 36.115728 
L 59.638544 48.476172 
L 59.727087 47.33778 
L 59.86564 45.378956 
L 60.018451 40.529872 
L 60.088853 43.525503 
L 60.107567 41.320032 
L 60.185364 41.93858 
L 60.277993 41.535772 
L 60.36709 40.14331 
L 60.481519 34.328677 
L 60.944143 51.223044 
L 61.061222 53.263164 
L 61.296174 40.945236 
L 61.313184 43.146094 
L 61.390299 41.884787 
L 61.545725 47.067687 
L 61.661937 43.738918 
L 61.724124 44.88133 
L 61.798966 44.875635 
L 61.86151 41.164051 
L 61.99593 44.222119 
L 62.133395 55.935581 
L 62.210831 53.665931 
L 62.266991 50.92358 
L 62.424145 49.230185 
L 62.538908 41.243463 
L 62.676731 50.626411 
L 62.908141 43.271072 
L 63.005019 41.481199 
L 63.160587 33.12316 
L 63.336239 43.740011 
L 63.475475 25.858026 
L 63.568758 32.557224 
L 63.801608 33.57023 
L 63.820168 41.69837 
L 64.23047 40.518927 
L 64.654129 41.256888 
L 65.106632 46.922942 
L 65.529591 43.243537 
L 65.642894 31.187771 
L 65.721338 31.286815 
L 65.877327 29.901633 
L 66.167802 45.303844 
L 66.18875 39.369229 
L 66.361486 30.447598 
L 66.421014 32.773621 
L 66.439242 36.806103 
L 66.639124 42.43397 
L 66.713166 46.596917 
L 66.788318 44.990248 
L 66.982667 37.69127 
L 67.080539 42.251154 
L 67.24305 37.855984 
L 67.584867 15.864324 
L 67.738983 23.436576 
L 67.835779 26.570262 
L 67.921907 26.444474 
L 68.030328 27.112132 
L 68.050024 25.849912 
L 68.206984 40.397703 
L 68.360379 29.752192 
L 68.439125 32.2898 
L 68.73404 39.505032 
L 68.78736 35.752473 
L 68.889931 37.989054 
L 69.021056 47.482432 
L 69.093876 47.322291 
L 69.329186 34.635585 
L 69.4284 36.235376 
L 69.482017 40.167434 
L 69.559993 39.555716 
L 69.910724 29.503857 
L 70.122333 37.392786 
L 70.219116 36.198964 
L 70.374097 39.507367 
L 70.473148 35.792707 
L 70.567882 22.333637 
L 70.625717 27.134785 
L 70.781838 44.158605 
L 71.092421 25.376103 
L 71.24956 37.178385 
L 71.344605 48.533064 
L 71.500097 36.066356 
L 71.578005 36.798551 
L 71.654642 46.147887 
L 71.732835 45.650286 
L 71.985893 37.713841 
L 72.151237 36.963056 
L 72.151561 33.766312 
L 72.2466 38.831743 
L 72.31833 39.193157 
L 72.412814 39.076429 
L 72.501866 40.390801 
L 72.537503 39.354307 
L 72.69208 60.654225 
L 72.884352 54.66376 
L 73.078299 45.052396 
L 73.097636 49.818443 
L 73.174558 47.675916 
L 73.254538 44.431509 
L 73.349754 49.289405 
L 73.504305 30.872664 
L 73.582006 32.215486 
L 73.659165 37.221327 
L 73.794511 38.738728 
L 73.816245 38.529703 
L 73.916605 36.202497 
L 73.970494 36.314457 
L 74.065431 35.376643 
L 74.14775 31.655799 
L 74.298527 37.592612 
L 74.457406 43.10348 
L 74.668222 38.038144 
L 74.71107 39.345796 
L 74.939543 51.123896 
L 75.017972 52.846478 
L 75.115829 52.682904 
L 75.310307 42.297262 
L 75.444102 53.555237 
L 75.581151 34.618804 
L 75.930578 38.720386 
L 76.068477 38.252138 
L 76.123015 41.260147 
L 76.240198 33.634006 
L 76.434597 41.21285 
L 76.666336 39.187331 
L 76.883792 27.944675 
L 76.954995 28.266391 
L 77.101855 35.75551 
L 77.488459 18.943127 
L 77.661141 33.954885 
L 77.758469 40.581165 
L 77.917617 33.798735 
L 78.070073 41.942805 
L 78.230521 28.841864 
L 78.400185 16.193105 
L 79.002795 35.150636 
L 79.119045 39.680562 
L 79.196302 42.114029 
L 79.34398 43.146192 
L 79.430401 37.53146 
L 79.505923 40.883827 
L 79.525175 46.798189 
L 79.650493 42.555588 
L 79.685881 43.491514 
L 79.801363 41.54799 
L 79.83648 39.024253 
L 79.915457 40.655571 
L 80.174119 47.542419 
L 80.267903 44.489616 
L 80.602963 22.741133 
L 80.634401 25.876705 
L 80.712995 26.20793 
L 80.809707 24.766505 
L 80.909275 19.31552 
L 80.952856 9.888458 
L 81.062168 10.506468 
L 81.120585 14.943327 
L 81.266733 14.292801 
L 81.315726 10.958312 
L 81.430492 14.896324 
L 81.449648 19.715595 
L 81.575898 19.822747 
L 81.838524 10.509084 
L 81.936556 4.101144 
L 82.16917 18.752405 
L 82.246149 15.204927 
L 82.484007 33.079083 
L 82.579868 32.544317 
L 82.88963 46.910868 
L 83.044898 48.538236 
L 83.224292 35.873321 
L 83.283383 36.289841 
L 83.298557 35.418563 
L 83.376453 41.28835 
L 83.435547 38.966649 
L 83.552774 37.517491 
L 83.784781 30.178745 
L 83.941998 35.263499 
L 84.056191 32.570684 
L 84.25175 42.27413 
L 84.32958 40.027108 
L 84.524065 27.161309 
L 84.580585 36.065939 
L 84.6619 34.241672 
L 84.85553 41.31405 
L 85.071628 28.817403 
L 85.281824 50.63105 
L 85.440687 49.758125 
L 85.540696 47.475236 
L 85.615646 48.038812 
L 85.695292 50.438331 
L 85.772743 57.655212 
L 85.867677 56.740709 
L 86.254704 36.371799 
L 86.332569 37.221326 
L 86.566119 30.263891 
L 86.663218 31.405711 
L 86.817422 30.367133 
L 86.979288 38.78668 
L 87.057719 31.324057 
L 87.289267 40.892848 
L 87.441177 26.455116 
L 87.536815 38.772718 
L 87.634607 38.648399 
L 87.693103 35.336355 
L 87.867016 45.514035 
L 88.022424 29.436534 
L 88.216428 40.841589 
L 88.333669 35.947033 
L 88.414421 40.181879 
L 88.498487 39.958723 
L 88.635471 36.706758 
L 88.819439 58.167443 
L 89.129763 42.894449 
L 89.226714 40.602561 
L 89.306575 41.348476 
L 89.402201 38.797627 
L 89.654231 22.486235 
L 89.693013 21.505463 
L 89.944798 24.509735 
L 90.061314 21.576507 
L 90.255547 12.764708 
L 90.372208 13.162928 
L 90.518891 23.514778 
L 90.703542 31.035133 
L 90.827179 29.32043 
L 91.248242 38.86079 
L 91.480279 30.606351 
L 91.548812 36.881131 
L 91.559285 36.409192 
L 91.651786 31.208679 
L 91.778339 39.521053 
L 91.910279 44.309627 
L 91.954288 40.937262 
L 92.046872 42.013222 
L 92.123496 41.490343 
L 92.336929 44.438493 
L 92.397304 43.093944 
L 92.437161 52.811793 
L 92.499192 47.182282 
L 92.592346 43.006668 
L 92.749116 52.221505 
L 92.824983 48.299661 
L 92.980945 57.481839 
L 93.060736 52.168767 
L 93.239679 43.3009 
L 93.387294 49.608077 
L 93.550445 26.969134 
L 93.795482 36.11044 
L 93.951314 38.784587 
L 94.026628 38.593373 
L 94.1846 29.814935 
L 94.433779 51.11675 
L 94.512385 44.68404 
L 94.589135 45.175543 
L 94.746326 45.786553 
L 94.826037 40.769961 
L 94.997374 51.007044 
L 95.07467 50.574359 
L 95.307441 35.201376 
L 95.384664 40.936343 
L 95.715993 33.24768 
L 95.792585 39.342673 
L 95.871407 37.186034 
L 95.950566 36.699849 
L 96.122662 45.307152 
L 96.200223 34.063552 
L 96.354955 48.760128 
L 96.432906 44.821939 
L 96.520028 51.709718 
L 96.66718 36.544453 
L 96.745616 40.72606 
L 96.917815 35.991322 
L 96.998917 42.189007 
L 97.169728 25.549332 
L 97.229397 36.504038 
L 97.314653 31.221018 
L 97.480797 40.283711 
L 97.558456 35.363869 
L 97.638269 38.265403 
L 97.734736 38.127638 
L 97.792221 37.489094 
L 97.968078 46.416602 
L 98.124138 32.904256 
L 98.278989 36.772867 
L 98.368712 39.610713 
L 98.393843 39.493763 
L 98.43414 36.491091 
L 98.59458 39.408884 
L 98.691548 30.83436 
L 98.842638 33.372607 
L 98.900906 40.676204 
L 98.920903 40.131706 
L 99.075881 28.755863 
L 99.523905 43.026969 
L 99.639391 34.577269 
L 99.915841 42.382319 
L 100.053745 33.662766 
L 100.133711 33.812509 
L 100.148978 41.400377 
L 100.206496 41.184478 
L 100.342534 42.014448 
L 100.402303 45.785558 
L 100.439502 45.039004 
L 100.692115 30.600513 
L 100.711647 36.346093 
L 100.905428 42.411226 
L 101.102409 29.805149 
L 101.201243 31.876533 
L 101.469393 44.325607 
L 101.489294 42.714972 
L 101.665228 33.240695 
L 101.723784 40.724565 
L 101.819837 38.818605 
L 102.013729 45.461133 
L 102.129402 41.623385 
L 102.206552 48.547837 
L 102.285007 43.70985 
L 102.362465 52.64896 
L 102.575818 39.472679 
L 102.655533 42.878741 
L 102.751139 41.381605 
L 102.90634 34.06654 
L 102.98018 29.369823 
L 103.004726 31.765028 
L 103.256084 35.63588 
L 103.371925 33.777408 
L 103.410443 33.915899 
L 103.720729 41.81463 
L 103.759888 41.687471 
L 103.943659 49.27446 
L 103.953126 45.91202 
L 104.01141 43.149053 
L 104.168384 48.070491 
L 104.325812 34.52774 
L 104.38095 40.495955 
L 104.538507 43.022777 
L 104.701347 30.008027 
L 104.773861 35.404802 
L 104.945841 41.040718 
L 105.023626 50.788633 
L 105.10739 50.285624 
L 105.2575 43.116053 
L 105.372161 44.459577 
L 105.415281 49.79349 
L 105.604879 55.092159 
L 105.839852 40.321272 
L 105.993878 50.041395 
L 106.052929 47.63353 
L 106.209836 43.527234 
L 106.247062 36.054303 
L 106.32992 38.539557 
L 106.381202 36.909239 
L 106.657506 39.744174 
L 106.866186 30.485106 
L 106.945888 30.567989 
L 107.021516 30.153175 
L 107.065588 38.244369 
L 107.13953 34.893641 
L 107.199512 32.005082 
L 107.355978 36.780989 
L 107.54854 49.213945 
L 107.665388 47.407329 
L 107.744361 45.087799 
L 107.859618 37.193994 
L 108.014325 35.055255 
L 108.326387 13.317767 
L 108.55758 29.863812 
L 108.635276 31.333768 
L 108.719126 30.120178 
L 109.119692 46.101493 
L 109.276463 33.815763 
L 109.352742 37.305648 
L 109.43145 35.333817 
L 109.643615 39.926495 
L 109.683004 38.182569 
L 109.857719 45.365616 
L 109.934907 39.777522 
L 109.994455 45.409819 
L 110.171156 43.193967 
L 110.266096 48.316098 
L 110.401825 46.302159 
L 110.479647 45.347475 
L 110.645225 38.473476 
L 110.713526 40.454548 
L 110.965337 34.842937 
L 111.119647 42.300016 
L 111.223973 39.920503 
L 111.434804 23.500646 
L 111.522101 20.731735 
L 111.682978 26.213923 
L 111.76058 25.86968 
L 111.83865 18.941649 
L 111.924295 19.115686 
L 112.149486 27.68345 
L 112.229991 45.767302 
L 112.3247 47.5842 
L 112.401704 46.885029 
L 112.79109 55.004678 
L 112.886891 59.107939 
L 112.964657 57.12393 
L 113.042977 50.789575 
L 113.197519 62.133228 
L 113.28413 60.18047 
L 113.448773 55.550952 
L 113.760464 42.759183 
L 113.837858 48.619259 
L 114.028601 37.59987 
L 114.088709 42.194764 
L 114.167124 40.320933 
L 114.244575 42.817103 
L 114.403629 39.930273 
L 114.557778 45.858291 
L 114.653043 38.066551 
L 114.731639 43.000202 
L 114.807239 40.141758 
L 114.890816 30.959003 
L 114.963784 32.170657 
L 115.040512 33.832844 
L 115.203692 41.814691 
L 115.276395 37.903875 
L 115.378963 38.801094 
L 115.492225 46.926221 
L 115.527308 45.625932 
L 115.607889 45.221247 
L 115.6822 43.480077 
L 115.76169 35.667914 
L 115.780269 37.889463 
L 115.839793 42.131241 
L 115.916906 40.823301 
L 116.015523 37.698676 
L 116.093273 40.082198 
L 116.246711 33.464481 
L 116.486429 42.039457 
L 116.576171 45.077445 
L 116.659871 39.925596 
L 116.735152 43.147494 
L 116.85256 43.172696 
L 116.979589 42.8648 
L 117.066279 39.109574 
L 117.201753 24.798529 
L 117.472019 33.793302 
L 117.542111 32.442877 
L 117.608405 28.420642 
L 117.764038 28.867235 
L 117.840492 26.865912 
L 117.879416 27.403712 
L 117.979566 33.33478 
L 118.094426 47.985747 
L 118.268676 44.635755 
L 118.353913 39.065762 
L 118.403634 40.511931 
L 118.578823 46.749881 
L 118.868909 34.150464 
L 118.91257 29.764178 
L 118.971195 34.188072 
L 119.044754 32.754904 
L 119.220109 40.820644 
L 119.375558 32.345805 
L 119.473679 40.949892 
L 119.608966 42.30629 
L 119.628118 39.711831 
L 119.76369 38.597039 
L 119.843074 33.719313 
L 119.864262 35.20184 
L 119.958001 36.342491 
L 120.015795 29.629289 
L 120.102767 32.05795 
L 120.251138 28.801566 
L 120.381168 28.56253 
L 120.578848 31.38332 
L 120.733879 27.217271 
L 120.85035 31.208956 
L 120.927869 28.206363 
L 121.045254 35.988512 
L 121.161411 17.593929 
L 121.220333 22.099501 
L 121.296967 26.124768 
L 121.375178 21.440866 
L 121.473474 24.706331 
L 121.626818 18.132471 
L 121.724491 23.078265 
L 121.844321 15.667475 
L 121.87934 16.454622 
L 122.021854 29.937004 
L 122.131745 22.160105 
L 122.345482 42.584302 
L 122.460828 41.047545 
L 122.499558 38.866864 
L 122.655524 46.041282 
L 122.828846 38.194531 
L 123.00365 43.836442 
L 123.315931 26.867562 
L 123.395439 27.427332 
L 123.471818 28.83387 
L 123.665459 39.332644 
L 123.703811 34.440168 
L 123.820625 34.474711 
L 123.95585 21.996071 
L 124.305872 41.877559 
L 124.346735 35.631441 
L 124.441325 35.884943 
L 124.519156 45.804681 
L 124.596494 40.751419 
L 124.753452 41.892657 
L 124.826754 50.511841 
L 124.841655 49.106607 
L 125.017146 33.435256 
L 125.177857 43.250814 
L 125.313376 31.765504 
L 125.487216 45.635667 
L 125.643164 41.32068 
L 125.700858 41.660775 
L 125.743802 46.045567 
L 125.81743 44.579371 
L 125.886846 38.778953 
L 125.972819 39.324112 
L 126.051378 44.116723 
L 126.440172 25.452787 
L 126.517301 26.099182 
L 126.614544 33.691395 
L 126.677915 30.669791 
L 126.797376 28.559134 
L 126.887384 28.802648 
L 126.925964 32.035925 
L 127.026683 32.01444 
L 127.106747 36.196161 
L 127.315143 29.573884 
L 127.375434 37.966618 
L 127.568398 36.685247 
L 127.646862 37.01307 
L 127.731414 33.224873 
L 127.769703 34.670237 
L 127.802451 38.985205 
L 127.882081 34.461384 
L 127.956764 37.12935 
L 128.211716 32.699827 
L 128.289239 33.851843 
L 128.366006 32.282034 
L 128.443649 35.783722 
L 128.676467 32.208237 
L 128.794474 33.188024 
L 128.873295 31.121528 
L 128.949821 31.886529 
L 129.16732 39.718448 
L 129.417151 33.453902 
L 129.669728 39.90828 
L 129.807253 22.189125 
L 129.884613 26.419628 
L 129.967658 22.413178 
L 129.982322 35.420295 
L 130.058828 22.660606 
L 130.294128 13.377346 
L 130.376511 15.88365 
L 130.602746 36.635672 
L 130.779039 28.075501 
L 130.933684 37.008071 
L 131.018818 45.602712 
L 131.097234 43.032887 
L 131.243728 40.84804 
L 131.282193 31.001495 
L 131.340465 37.020266 
L 131.498882 31.634126 
L 131.57665 33.627477 
L 131.654469 39.526091 
L 131.809467 32.891169 
L 131.983946 49.039472 
L 132.061698 49.028799 
L 132.197039 43.857686 
L 132.236614 49.887878 
L 132.31423 48.846473 
L 132.448953 35.031448 
L 132.604371 43.986097 
L 132.797801 35.379071 
L 132.899437 36.047778 
L 133.034458 20.513023 
L 133.246971 45.506841 
L 133.340983 35.011767 
L 133.433179 35.953963 
L 133.572761 27.117528 
L 133.748468 37.720714 
L 133.846178 36.918996 
L 133.941809 37.536739 
L 134.097086 23.47327 
L 134.310594 41.952192 
L 134.412116 42.177934 
L 134.465529 42.709037 
L 134.576346 38.170386 
L 134.698862 42.345043 
L 134.834657 42.307177 
L 134.874033 50.088186 
L 134.951671 47.484897 
L 135.048798 40.593556 
L 135.12604 40.961146 
L 135.263458 39.896293 
L 135.358598 47.444752 
L 135.420762 44.487328 
L 135.514336 40.281328 
L 135.652051 39.975185 
L 135.748546 34.552939 
L 135.766011 41.621148 
L 135.8459 40.268701 
L 136.135962 25.986992 
L 136.23286 29.026869 
L 136.559421 10.295241 
L 136.869154 25.01564 
L 137.04385 19.405707 
L 137.259865 42.361862 
L 137.275713 41.908806 
L 137.391594 42.049947 
L 137.450058 39.537723 
L 137.51256 41.25892 
L 137.527329 31.067116 
L 137.586434 44.150184 
L 137.685958 45.597182 
L 137.782375 55.039182 
L 137.83923 52.913343 
L 138.053152 40.925681 
L 138.155679 43.686285 
L 138.405866 33.922502 
L 138.466088 35.16099 
L 138.590648 34.535631 
L 138.721898 40.047123 
L 138.736628 46.639583 
L 138.815391 37.121517 
L 138.947892 29.315619 
L 139.187648 41.709798 
L 139.318082 42.446573 
L 139.513587 38.357192 
L 139.549754 40.630432 
L 139.678106 56.178775 
L 139.802624 63.205228 
L 139.920186 54.878559 
L 140.152252 45.842513 
L 140.32719 50.600761 
L 140.405141 40.887486 
L 140.5021 42.823647 
L 140.561244 41.196086 
L 140.659252 42.450197 
L 140.813222 49.166075 
L 140.874574 46.074871 
L 140.987436 54.894563 
L 141.163336 47.527312 
L 141.181833 52.302362 
L 141.202455 56.313778 
L 141.279768 54.588098 
L 141.435313 45.027527 
L 141.571018 42.94464 
L 141.787072 49.507924 
L 141.883775 49.865873 
L 142.077091 37.666771 
L 142.328888 47.790303 
L 142.485572 33.264974 
L 142.561281 34.113345 
L 142.638797 34.965123 
L 142.716066 33.044651 
L 142.91264 39.814175 
L 143.046605 27.920451 
L 143.125049 28.939555 
L 143.27918 39.540734 
L 143.608791 26.607457 
L 143.68832 22.597477 
L 143.938887 42.99291 
L 144.01102 35.184323 
L 144.113603 34.911995 
L 144.19675 36.112849 
L 144.308542 36.014604 
L 144.482659 51.340975 
L 144.563893 46.560967 
L 144.658816 38.508609 
L 144.729996 39.423569 
L 144.80108 40.347919 
L 144.890286 39.817466 
L 144.968092 38.574826 
L 145.100423 40.224838 
L 145.209974 26.784225 
L 145.314237 28.487409 
L 145.450471 41.924222 
L 145.624611 40.24157 
L 145.847176 31.543982 
L 146.016493 47.184785 
L 146.121268 43.618644 
L 146.431398 29.76763 
L 146.606087 38.467862 
L 146.663679 36.6279 
L 146.801648 35.872516 
L 146.91701 42.672748 
L 146.994627 22.784311 
L 147.05542 29.135277 
L 147.29098 52.329505 
L 147.461668 58.213961 
L 147.524971 57.608315 
L 147.695799 34.084206 
L 147.969248 42.191487 
L 148.181333 31.755463 
L 148.336373 19.453886 
L 148.414208 23.567227 
L 148.588241 41.190095 
L 148.647904 42.338742 
L 148.726184 38.328292 
L 148.822685 39.411977 
L 148.947305 36.283792 
L 149.152249 53.129365 
L 149.175834 61.852752 
L 149.22969 57.333571 
L 149.385456 50.130616 
L 149.485497 49.464871 
L 149.852215 33.510779 
L 149.967013 25.634617 
L 150.103695 35.476163 
L 150.266729 26.266809 
L 150.336353 35.378514 
L 150.414272 34.267727 
L 150.592208 21.268789 
L 150.681013 22.276886 
L 150.763658 25.504536 
L 150.821905 23.117483 
L 150.978084 30.756429 
L 151.093897 29.361032 
L 151.189916 24.031311 
L 151.229104 27.922304 
L 151.384665 38.701399 
L 151.519481 40.400492 
L 151.654548 46.814503 
L 151.69582 39.29184 
L 151.809467 39.704711 
L 151.869982 44.922594 
L 151.948365 39.512261 
L 152.02535 41.491013 
L 152.140125 48.583425 
L 152.18169 46.042706 
L 152.347433 40.092751 
L 152.445426 40.679597 
L 152.462173 50.879292 
L 152.524198 46.785763 
L 152.736462 31.068601 
L 152.773911 34.450181 
L 152.910005 34.618069 
L 152.931684 35.087922 
L 152.98647 34.048948 
L 153.063655 35.262189 
L 153.143271 33.990894 
L 153.219499 25.370845 
L 153.315943 26.661363 
L 153.530407 38.805922 
L 153.54997 34.992337 
L 153.627762 36.654597 
L 153.705199 26.83154 
L 153.802231 28.383278 
L 153.879417 28.846058 
L 153.98808 30.646881 
L 154.113308 41.042508 
L 154.194748 33.01917 
L 154.306458 34.431648 
L 154.365141 47.012773 
L 154.442793 45.40816 
L 154.618685 55.021639 
L 154.675098 46.651848 
L 154.909233 41.466069 
L 154.935012 35.833349 
L 155.004855 43.062958 
L 155.431132 31.142902 
L 155.569092 42.873333 
L 155.646104 42.306632 
L 155.784175 30.94357 
L 155.878325 36.018311 
L 156.033466 24.996166 
L 156.130976 28.406144 
L 156.26824 17.447295 
L 156.363738 18.690964 
L 156.44168 17.369472 
L 156.518201 28.364308 
L 156.597803 27.2172 
L 156.675035 25.306728 
L 156.834291 36.475963 
L 156.925866 31.46047 
L 157.002759 39.516548 
L 157.142614 36.49471 
L 157.196273 36.710479 
L 157.255004 38.985804 
L 157.351488 37.870326 
L 157.431037 43.689282 
L 157.486507 40.118144 
L 157.56417 29.588147 
L 157.642545 31.26196 
L 157.719391 34.820515 
L 157.801182 29.48509 
L 157.815841 33.846773 
L 157.8937 34.880759 
L 157.972053 31.868094 
L 158.048955 35.046434 
L 158.22439 28.389763 
L 158.340984 29.598522 
L 158.379074 37.701562 
L 158.437741 30.60671 
L 158.571207 29.839503 
L 158.611913 32.288058 
L 158.766946 31.145162 
L 158.828195 38.282 
L 158.883559 27.862862 
L 158.94168 28.152332 
L 159.02569 33.722472 
L 159.082234 32.719963 
L 159.336533 37.67329 
L 159.395929 41.292162 
L 159.528771 41.993796 
L 159.569358 36.824571 
L 159.666429 39.126396 
L 159.879741 27.254155 
L 159.956985 28.235592 
L 160.231733 16.994181 
L 160.345264 18.159683 
L 160.538729 31.738116 
L 160.696417 34.983674 
L 160.774698 29.313865 
L 161.009228 38.713781 
L 161.101624 39.093888 
L 161.189254 35.864289 
L 161.245848 36.098743 
L 161.321094 35.828213 
L 161.493682 39.618412 
L 161.688665 46.09251 
L 161.883007 37.938427 
L 161.961448 36.986706 
L 162.212995 47.307537 
L 162.289628 50.020635 
L 162.444687 46.576646 
L 162.603749 51.479219 
L 162.697172 53.375715 
L 162.853339 47.15206 
L 163.092339 38.009261 
L 163.164065 41.61674 
L 163.244159 40.117544 
L 163.337973 37.485994 
L 163.415036 40.485193 
L 163.493403 38.41361 
L 163.571726 42.359134 
L 163.649488 39.739581 
L 163.82462 29.388068 
L 163.887221 34.155874 
L 164.078975 31.277892 
L 164.137144 33.687271 
L 164.300142 30.400751 
L 164.456959 30.050794 
L 164.53974 33.556388 
L 164.700358 31.973568 
L 164.857809 36.857895 
L 164.938309 33.983728 
L 165.167749 41.280317 
L 165.248548 42.794742 
L 165.41863 48.858712 
L 165.571085 45.955941 
L 165.654594 48.346456 
L 165.809473 38.974887 
L 165.920072 41.544333 
L 166.059339 31.002212 
L 166.152901 33.331481 
L 166.388454 37.679158 
L 166.489976 42.264948 
L 166.530906 49.649279 
L 166.610344 48.876367 
L 166.72037 44.083603 
L 166.856184 56.97311 
L 166.964928 57.030657 
L 167.01237 54.666007 
L 167.116934 56.086444 
L 167.17353 55.428915 
L 167.342261 41.49198 
L 167.439531 41.745425 
L 167.502704 41.096093 
L 167.595144 34.290097 
L 167.750081 32.959045 
L 168.00253 24.0021 
L 168.312696 39.79923 
L 168.391766 39.378011 
L 168.585299 35.649222 
L 168.700996 44.98415 
L 168.875531 43.646521 
L 168.934289 34.149265 
L 169.031275 36.845945 
L 169.127114 35.709746 
L 169.284263 44.708727 
L 169.674663 29.450054 
L 169.844634 35.082083 
L 170.00006 23.718215 
L 170.135454 24.148888 
L 170.214364 28.477729 
L 170.310767 28.192672 
L 170.546549 29.890441 
L 170.563187 23.975362 
L 170.640783 24.275992 
L 170.736772 28.824693 
L 170.796929 26.514058 
L 171.034583 18.619163 
L 171.106216 17.982191 
L 171.237999 19.81655 
L 171.377313 25.670745 
L 171.521117 28.792575 
L 171.610474 36.973557 
L 171.901487 42.629218 
L 171.921153 41.005135 
L 172.007598 41.959233 
L 172.153994 40.365332 
L 172.567259 21.873819 
L 172.819533 37.941246 
L 172.936954 30.654925 
L 172.955432 33.689303 
L 173.116818 32.230408 
L 173.389531 38.424482 
L 173.44594 31.157943 
L 173.525178 31.759201 
L 173.62574 25.343605 
L 173.679088 30.9737 
L 173.77765 24.565928 
L 174.24168 45.022869 
L 174.319169 44.993724 
L 174.575528 54.160938 
L 174.649816 52.911656 
L 174.828938 43.767375 
L 175.055668 41.596377 
L 175.3026 28.55973 
L 175.380421 31.455048 
L 175.516048 27.763384 
L 175.67262 41.603038 
L 175.884653 30.557499 
L 175.922961 33.21173 
L 176.097894 34.533014 
L 176.233143 32.295875 
L 176.291222 42.139462 
L 176.369208 39.060475 
L 176.565423 27.385224 
L 176.660887 35.463956 
L 176.815686 31.65097 
L 176.970877 38.059036 
L 177.165685 31.209753 
L 177.534397 53.988653 
L 177.611482 52.447769 
L 177.784024 43.715753 
L 177.907563 44.155521 
L 178.001358 45.860977 
L 178.15458 39.363393 
L 178.272247 31.863579 
L 178.351384 25.028405 
L 178.562662 35.90666 
L 178.659384 32.38115 
L 178.737756 33.831639 
L 178.817754 31.622338 
L 178.936253 37.213974 
L 178.970967 36.09921 
L 179.068552 37.158822 
L 179.126279 36.536423 
L 179.283421 36.954206 
L 179.30048 40.876805 
L 179.480281 38.355855 
L 179.67323 42.333618 
L 179.784925 31.196581 
L 179.86601 31.378558 
L 180.020445 38.034742 
L 180.097018 35.379984 
L 180.234596 41.407574 
L 180.270751 40.66595 
L 180.329321 38.432564 
L 180.426206 39.33169 
L 180.581457 48.134572 
L 180.659065 47.749404 
L 180.816359 33.950127 
L 180.895235 35.692136 
L 180.976797 31.862545 
L 181.065975 33.443066 
L 181.144313 32.274288 
L 181.222067 34.234391 
L 181.299385 27.791336 
L 181.37688 29.603221 
L 181.477239 27.587302 
L 181.61337 44.555408 
L 181.786847 46.883212 
L 181.863448 46.500713 
L 182.096044 48.525583 
L 182.136422 56.86997 
L 182.252686 55.550896 
L 182.425995 41.478733 
L 182.50361 42.594448 
L 182.66247 37.849277 
L 182.903506 33.717214 
L 182.960815 26.1469 
L 182.98874 30.667142 
L 183.075249 33.18651 
L 183.26137 31.292918 
L 183.300106 26.449734 
L 183.378817 29.882882 
L 183.514831 28.509784 
L 183.650069 32.39551 
L 183.710488 40.103188 
L 183.805694 37.665469 
L 183.942881 40.969556 
L 184.135449 48.872582 
L 184.270978 59.107202 
L 184.607323 50.754022 
L 184.710914 51.178406 
L 184.787784 53.872059 
L 185.066475 42.386668 
L 185.493831 31.607911 
L 185.592848 31.677758 
L 185.628388 33.581395 
L 185.958966 25.073552 
L 186.036398 22.940472 
L 186.268291 26.401926 
L 186.367256 22.729467 
L 186.462252 26.448732 
L 186.578489 26.537338 
L 186.597803 30.564871 
L 186.694913 29.755359 
L 186.990346 37.689847 
L 187.066725 34.547197 
L 187.179786 35.426957 
L 187.259971 31.688285 
L 187.338746 35.774662 
L 187.394571 35.608791 
L 187.565099 38.781928 
L 187.571606 42.891851 
L 187.647698 42.067492 
L 187.803398 39.175533 
L 187.908242 45.029597 
L 187.981223 44.887691 
L 188.26925 33.525406 
L 188.309962 24.108211 
L 188.368183 24.549552 
L 188.446006 24.007692 
L 188.640028 30.706667 
L 188.720263 28.127064 
L 188.852854 35.433762 
L 188.931569 35.715558 
L 189.105248 44.915229 
L 189.163045 44.317591 
L 189.319467 39.360312 
L 189.435195 37.941069 
L 189.492614 43.025686 
L 189.686982 39.217754 
L 189.746953 40.738817 
L 189.861094 40.587177 
L 189.977859 30.420494 
L 190.055736 33.519544 
L 190.152164 34.255836 
L 190.366197 25.61446 
L 190.598898 17.94771 
L 190.773881 25.64202 
L 190.850732 26.314316 
L 190.94789 25.342981 
L 191.008906 29.625795 
L 191.025064 26.351141 
L 191.141791 26.957023 
L 191.201555 26.409653 
L 191.25885 31.057939 
L 191.335837 23.628879 
L 191.419191 25.454849 
L 191.782843 35.993147 
L 191.824975 34.344884 
L 192.208277 53.1344 
L 192.372079 46.843749 
L 192.444809 46.400013 
L 192.530781 42.746668 
L 192.68691 43.531154 
L 192.701081 44.432883 
L 192.858948 40.274634 
L 192.958701 39.975747 
L 193.014344 33.131557 
L 193.14148 38.256789 
L 193.18869 37.744725 
L 193.323925 40.814942 
L 193.344812 35.482411 
L 193.443773 36.6429 
L 193.538092 38.750482 
L 193.599167 35.341921 
L 193.714101 37.425235 
L 193.735244 35.561894 
L 193.969429 43.663092 
L 194.045112 43.528761 
L 194.210885 50.060138 
L 194.325379 52.067234 
L 194.468701 59.519731 
L 194.550574 59.136415 
L 194.813109 48.550724 
L 195.024291 52.050073 
L 195.101275 44.385249 
L 195.178796 47.365975 
L 195.261214 46.210412 
L 195.353686 46.807973 
L 195.415155 56.681787 
L 195.508467 55.756707 
L 195.586941 57.105496 
L 196.228016 27.17545 
L 196.303978 28.845407 
L 196.536863 38.193222 
L 196.6149 35.61357 
L 196.711369 37.048213 
L 196.788422 40.414372 
L 196.86602 38.333883 
L 197.020991 46.103429 
L 197.179609 35.905924 
L 197.263377 36.233184 
L 197.338252 37.693381 
L 197.512252 43.152357 
L 197.587449 42.812004 
L 197.665655 43.041541 
L 197.701856 46.893789 
L 197.742632 46.780793 
L 197.821457 44.491296 
L 197.89978 45.799001 
L 198.07263 55.587948 
L 198.22882 53.886101 
L 198.306607 54.640461 
L 198.384033 54.569252 
L 199.101122 26.182105 
L 199.12041 29.996061 
L 199.183085 28.731079 
L 199.276405 34.295314 
L 199.508514 31.398483 
L 199.586111 31.482196 
L 199.822102 41.030233 
L 199.917841 40.105057 
L 200.071253 32.962071 
L 200.304143 47.610644 
L 200.419956 46.84981 
L 200.789575 53.686584 
L 200.884688 58.995574 
L 200.943748 57.154684 
L 201.109446 49.511871 
L 201.286248 50.84081 
L 201.44764 40.734433 
L 201.54488 45.428403 
L 201.60297 43.01715 
L 201.661179 41.377418 
L 201.746475 42.448549 
L 201.764882 39.454209 
L 201.837439 43.263076 
L 202.089371 34.327704 
L 202.230032 37.442929 
L 202.441358 34.176851 
L 202.460997 35.67391 
L 202.555786 35.183024 
L 202.866239 46.272663 
L 202.96767 41.506808 
L 203.120274 44.876319 
L 203.296795 39.077109 
L 203.358421 42.696769 
L 203.604426 40.506809 
L 203.79478 43.327552 
L 203.853088 40.413458 
L 204.069427 52.050361 
L 204.166146 43.641223 
L 204.318868 50.801343 
L 204.495666 49.375103 
L 204.558856 54.406062 
L 204.629959 51.925065 
L 204.940065 45.557646 
L 205.018824 46.942849 
L 205.134643 33.92677 
L 205.3475 23.788571 
L 205.377339 20.198329 
L 205.464105 22.893525 
L 205.696707 17.160284 
L 205.856599 21.254854 
L 206.018882 36.349076 
L 206.09137 33.656008 
L 206.222333 32.283671 
L 206.396744 43.282511 
L 206.553001 47.456183 
L 206.591627 44.049409 
L 206.669808 51.232698 
L 206.807635 44.145613 
L 206.887859 44.31714 
L 206.969439 48.917357 
L 207.256571 41.133787 
L 207.452177 27.459435 
L 207.528205 34.088784 
L 207.605915 32.049302 
L 207.721624 35.400211 
L 207.837909 32.393631 
L 208.01258 39.509873 
L 208.150407 40.293138 
L 208.265601 51.40468 
L 208.419867 45.655543 
L 208.497564 46.890587 
L 208.575684 47.078663 
L 208.653219 48.208524 
L 208.731569 44.151927 
L 208.943991 48.976118 
L 209.061078 34.319097 
L 209.186272 36.145724 
L 209.278652 40.005931 
L 209.628444 28.299724 
L 209.879828 42.516647 
L 210.016015 30.55429 
L 210.12081 31.315817 
L 210.28819 42.623843 
L 210.345893 42.420423 
L 210.502175 36.149214 
L 210.599846 38.17949 
L 210.677294 30.757627 
L 210.928934 52.793828 
L 211.142395 44.6947 
L 211.297175 60.221571 
L 211.375031 56.146305 
L 211.452591 58.468457 
L 211.704967 46.514832 
L 212.025535 51.437114 
L 212.189216 40.778116 
L 212.252449 42.827517 
L 212.55872 57.302031 
L 212.753033 38.739712 
L 213.005222 43.978407 
L 213.063628 40.414229 
L 213.296556 47.073047 
L 213.393766 44.505071 
L 213.607529 53.385847 
L 213.685075 49.079895 
L 213.977695 55.558539 
L 214.073291 53.05908 
L 214.112841 53.190777 
L 214.188637 56.949035 
L 214.266327 54.772204 
L 214.344869 54.792428 
L 214.441273 54.989814 
L 214.596201 51.008642 
L 214.673199 51.61255 
L 214.907495 40.530382 
L 215.061332 47.336502 
L 215.217381 43.001022 
L 215.316313 49.990177 
L 215.469096 42.892609 
L 215.549097 44.662958 
L 215.663088 50.361294 
L 215.817825 43.086514 
L 215.918168 43.032763 
L 216.108938 35.016541 
L 216.205413 32.563244 
L 216.442063 23.317643 
L 216.586326 21.568458 
L 216.78946 32.69266 
L 216.848927 29.488959 
L 217.317075 48.584497 
L 217.47077 36.728056 
L 217.555509 38.957605 
L 217.66533 43.750498 
L 217.723378 42.810478 
L 217.810833 42.099798 
L 217.879881 34.560364 
L 217.95676 34.595136 
L 218.034327 33.490213 
L 218.112676 37.884198 
L 218.2095 35.378885 
L 218.269403 40.234232 
L 218.441164 35.848017 
L 218.518401 29.522794 
L 218.952824 38.397907 
L 219.02164 37.761468 
L 219.080179 29.928889 
L 219.236099 29.021728 
L 219.254244 29.65561 
L 219.429708 38.061312 
L 219.546658 38.154965 
L 219.762621 30.191242 
L 219.797896 32.579345 
L 219.935454 40.101717 
L 219.972921 36.394415 
L 220.053154 36.188744 
L 220.147006 33.974618 
L 220.230173 40.484022 
L 220.302133 38.374658 
L 220.419287 34.047942 
L 220.537816 41.377897 
L 220.61485 38.790771 
L 220.770273 38.179488 
L 220.939224 29.68523 
L 221.021914 20.123037 
L 221.118993 21.024315 
L 221.198822 27.440171 
L 221.393201 16.93537 
L 221.566451 24.741911 
L 221.780085 40.06055 
L 221.799627 46.400633 
L 221.895812 42.334446 
L 221.97429 36.103316 
L 222.129562 41.85696 
L 222.307149 31.411295 
L 222.361006 37.847849 
L 222.442664 34.877763 
L 222.633422 28.806337 
L 222.787926 44.14525 
L 222.85456 41.89332 
L 223.101475 51.269036 
L 223.253981 38.410172 
L 223.370117 43.002227 
L 223.439528 40.687216 
L 223.5839 28.169148 
L 223.661752 29.159659 
L 223.816026 23.261242 
L 223.895215 23.180519 
L 223.971931 31.307641 
L 224.048683 30.955963 
L 224.223187 26.982334 
L 224.378952 30.851091 
L 224.456835 31.82509 
L 224.533738 35.441472 
L 224.634184 35.302756 
L 224.787496 36.454883 
L 224.82509 35.130239 
L 224.865678 35.737755 
L 224.942096 39.046703 
L 225.040012 38.501339 
L 225.291436 45.006033 
L 225.350044 43.487357 
L 225.4119 46.903701 
L 225.503217 46.287747 
L 225.658808 48.877526 
L 225.796318 45.653991 
L 225.833328 47.482118 
L 226.066503 36.418132 
L 226.144167 41.179486 
L 226.241375 38.828693 
L 226.299168 44.983733 
L 226.386363 42.751239 
L 226.453685 42.892986 
L 226.617999 38.262077 
L 226.783444 42.932956 
L 226.919081 42.298086 
L 227.095241 30.084219 
L 227.175259 28.716413 
L 227.269286 22.404084 
L 227.386271 22.444844 
L 227.444727 24.300073 
L 227.515555 19.053486 
L 227.619058 19.273328 
L 227.737652 34.537028 
L 227.831907 34.354371 
L 227.898365 28.510071 
L 227.987407 28.917836 
L 228.239374 41.69018 
L 228.375066 47.868877 
L 228.43913 47.425746 
L 228.705344 36.403745 
L 228.937802 40.657322 
L 229.190521 31.156068 
L 229.391806 40.768162 
L 229.442693 36.201963 
L 229.522677 40.974565 
L 229.642261 40.170797 
L 229.676236 36.132628 
L 229.810771 39.179097 
L 229.83472 38.716194 
L 229.928258 36.764945 
L 230.063751 39.561654 
L 230.14228 38.445309 
L 230.474086 49.776466 
L 230.549827 50.966698 
L 230.704161 48.032673 
L 230.822442 55.375461 
L 231.035927 50.962933 
L 231.367226 28.263035 
L 231.446895 27.90874 
L 231.620906 20.463424 
L 231.922562 32.106993 
L 232.069014 46.441296 
L 232.165787 44.866405 
L 232.242014 44.991333 
L 232.402676 48.282862 
L 232.714871 40.647435 
L 232.819426 41.537331 
L 232.889112 40.11956 
L 233.042851 50.083859 
L 233.17872 50.528948 
L 233.372754 56.252123 
L 233.450401 50.023635 
L 233.510266 52.363827 
L 233.605989 51.364878 
L 233.767822 41.52896 
L 233.846014 44.859102 
L 233.91676 44.481582 
L 234.014662 41.338133 
L 234.081834 33.354851 
L 234.170028 34.824058 
L 234.277912 36.974018 
L 234.385289 34.394703 
L 234.423354 29.019906 
L 234.579722 33.438261 
L 234.754029 28.872048 
L 234.832192 37.517953 
L 234.891535 36.340694 
L 235.049016 26.655031 
L 235.123145 27.276563 
L 235.531467 46.632307 
L 235.688903 42.257459 
L 235.84375 52.526958 
L 235.941028 53.79304 
L 236.09576 47.476572 
L 236.173489 47.530446 
L 236.330458 37.251093 
L 236.407854 37.766129 
L 236.484777 48.055192 
L 236.607117 43.2712 
L 236.660482 46.473754 
L 236.757071 46.386727 
L 236.98979 30.27281 
L 237.095945 30.123316 
L 237.110699 29.75534 
L 237.133423 30.806386 
L 237.206896 31.516933 
L 237.443651 19.129271 
L 237.520093 18.569411 
L 237.850214 32.065137 
L 237.927789 31.311887 
L 238.101692 30.153119 
L 238.26077 34.288272 
L 238.411941 41.093934 
L 238.510439 41.726984 
L 238.56747 47.573905 
L 238.820134 39.676133 
L 238.937252 37.340714 
L 239.130122 29.367592 
L 239.308413 31.411644 
L 239.382841 31.080323 
L 239.480974 35.13649 
L 239.606092 33.762908 
L 239.65428 34.283018 
L 239.771911 40.788818 
L 239.852855 39.108567 
L 240.043972 48.06224 
L 240.216639 42.383578 
L 240.313931 42.126385 
L 240.451012 44.311419 
L 240.509501 40.759546 
L 240.568661 43.67881 
L 240.688133 43.332827 
L 240.840834 32.791227 
L 240.936446 33.107036 
L 241.113304 35.867287 
L 241.231258 28.932733 
L 241.344082 30.714576 
L 241.388248 26.345976 
L 241.617141 36.227758 
L 241.815219 33.29741 
L 241.875289 26.887014 
L 242.181652 38.406034 
L 242.275146 34.954075 
L 242.587239 44.506347 
L 242.682096 53.375471 
L 242.818754 54.982682 
L 242.91575 48.832771 
L 243.072697 48.86863 
L 243.146645 48.617009 
L 243.670898 24.496875 
L 243.709598 25.124556 
L 243.883952 29.12391 
L 243.943674 25.406866 
L 244.350229 38.958766 
L 244.467495 46.56181 
L 244.507933 43.037521 
L 244.70001 41.417216 
L 244.79964 46.319821 
L 244.835534 44.53898 
L 244.95225 44.320617 
L 245.072413 47.598835 
L 245.286302 32.050337 
L 245.305807 38.628403 
L 245.405267 35.890843 
L 245.557358 33.50322 
L 245.634926 39.868107 
L 245.713328 38.564755 
L 245.906974 24.452652 
L 246.120031 37.885436 
L 246.28263 31.225688 
L 246.353997 34.411871 
L 246.527244 28.40566 
L 246.838926 42.920428 
L 246.934537 42.282976 
L 247.110623 52.273475 
L 247.226908 46.738072 
L 247.325043 48.607123 
L 247.506489 38.101554 
L 247.56769 38.986908 
L 247.642823 33.291294 
L 247.778957 31.957808 
L 247.817634 32.964956 
L 247.894958 28.011775 
L 248.033435 43.336911 
L 248.115963 45.559165 
L 248.205267 51.429777 
L 248.292592 49.625669 
L 248.466048 58.061327 
L 248.619465 52.019572 
L 248.844836 40.507468 
L 248.925218 40.903519 
L 249.002996 43.284905 
L 249.099908 43.203277 
L 249.159099 43.006377 
L 249.23545 46.821524 
L 249.388365 47.231911 
L 249.487977 52.347297 
L 249.643601 44.501596 
L 249.720688 46.817201 
L 249.898546 40.86796 
L 250.050337 26.236112 
L 250.178635 28.629203 
L 250.207451 25.289525 
L 250.503648 38.309927 
L 250.539084 30.559007 
L 250.693831 30.792403 
L 251.044557 53.090844 
L 251.100528 52.771866 
L 251.371159 37.629419 
L 251.623721 41.892074 
L 251.722388 37.758546 
L 251.800151 37.125616 
L 251.992171 34.845426 
L 252.128525 41.446957 
L 252.224414 37.663697 
L 252.341235 37.463926 
L 252.37982 34.035297 
L 252.503834 34.395874 
L 252.690821 25.00485 
L 252.769647 32.242111 
L 252.848062 28.589411 
L 252.865158 38.413675 
L 252.923903 36.507862 
L 253.17668 47.424503 
L 253.408286 35.941531 
L 253.506346 36.825127 
L 253.66007 37.976774 
L 253.705902 35.388786 
L 253.738752 40.383586 
L 253.896717 25.034641 
L 254.145659 39.984942 
L 254.222519 39.730304 
L 254.300561 38.686245 
L 254.379118 28.657129 
L 254.47569 31.39672 
L 254.535141 29.744933 
L 254.735099 43.460216 
L 254.853115 36.282947 
L 254.886565 39.62873 
L 255.179201 62.131771 
L 255.256603 56.741988 
L 255.335008 57.00379 
L 255.460433 59.84267 
L 255.496042 51.108118 
L 255.570547 52.805923 
L 255.977159 32.060779 
L 256.073535 35.116108 
L 256.15032 33.189861 
L 256.286639 34.303309 
L 256.486399 43.515922 
L 256.638826 47.828767 
L 256.852295 57.724239 
L 257.510465 28.768382 
L 257.955207 50.800693 
L 258.051991 47.062909 
L 258.172675 48.252693 
L 258.266685 51.88879 
L 258.346459 50.967677 
L 258.560188 41.311653 
L 258.637582 42.464629 
L 258.701641 39.293619 
L 258.814645 41.898049 
L 258.908951 46.84022 
L 259.044775 41.442895 
L 259.102868 49.114591 
L 259.181479 45.510409 
L 259.258205 39.608715 
L 259.412505 45.008809 
L 259.509718 41.04415 
L 259.592763 43.521512 
L 259.678555 40.091233 
L 259.745217 45.337322 
L 259.911433 41.232212 
L 260.072573 46.403171 
L 260.151026 41.726437 
L 260.229779 44.579063 
L 260.324715 35.678361 
L 260.422569 36.549335 
L 260.481836 40.308509 
L 260.558645 32.554747 
L 260.635556 37.546993 
L 260.713504 32.892189 
L 260.793733 33.000698 
L 261.04747 38.525361 
L 261.126704 49.329434 
L 261.185829 48.856071 
L 261.277982 41.36184 
L 261.356198 41.90662 
L 261.560957 46.213259 
L 261.754521 38.069513 
L 261.83181 38.47628 
L 261.908221 37.778752 
L 262.007411 33.698192 
L 262.083009 37.536205 
L 262.246703 35.29101 
L 262.322566 39.762791 
L 262.455222 40.234405 
L 262.548433 50.171671 
L 262.722688 43.575345 
L 262.860573 48.287635 
L 262.958236 48.774708 
L 263.115201 34.911661 
L 263.24835 39.276786 
L 263.403567 28.808287 
L 263.519478 36.109948 
L 263.597986 31.779877 
L 263.86465 52.123664 
L 264.005514 47.621831 
L 264.085083 54.846408 
L 264.161738 54.274297 
L 264.413824 41.813981 
L 264.491263 42.089267 
L 264.587486 45.350091 
L 264.654193 38.453641 
L 264.722981 41.275073 
L 264.80615 43.256814 
L 264.918646 36.772321 
L 265.041503 42.386229 
L 265.156757 45.425254 
L 265.20949 52.472166 
L 265.286379 49.749004 
L 265.363672 46.843865 
L 265.441679 49.636449 
L 266.004522 31.141731 
L 266.197446 25.212831 
L 266.411402 41.261417 
L 266.586554 45.089647 
L 266.799871 41.011697 
L 266.896412 36.382683 
L 266.976043 37.249224 
L 267.050728 38.803964 
L 267.20679 31.887307 
L 267.303973 31.973491 
L 267.361802 32.433045 
L 267.503231 36.683604 
L 267.615124 45.605688 
L 267.710402 47.079352 
L 267.795719 46.715205 
L 267.903817 45.921833 
L 268.003031 53.048179 
L 268.098907 51.957836 
L 268.255174 45.093168 
L 268.330978 48.62577 
L 268.413753 46.649682 
L 268.507731 49.176841 
L 268.587772 48.155665 
L 268.840069 36.550849 
L 269.034344 42.341212 
L 269.092117 42.117109 
L 269.247745 38.921488 
L 269.289293 43.259771 
L 269.385081 38.676676 
L 269.46831 39.85778 
L 269.558262 36.447808 
L 269.617213 40.697397 
L 269.947349 28.037973 
L 270.083224 29.865137 
L 270.160409 23.78516 
L 270.199207 27.335456 
L 270.316123 27.020446 
L 270.337907 31.186606 
L 270.413332 30.386188 
L 270.496906 31.701887 
L 270.665069 36.770065 
L 270.82025 32.610659 
L 270.89942 35.512029 
L 270.977292 31.759612 
L 271.323261 37.964339 
L 271.464649 30.833813 
L 271.632793 34.768034 
L 271.76889 32.005702 
L 271.846087 33.057185 
L 271.884887 29.063021 
L 271.966666 35.881815 
L 272.039967 34.334707 
L 272.098769 32.792909 
L 272.583895 49.139281 
L 272.665616 54.629049 
L 272.89342 47.073995 
L 272.974273 47.093226 
L 273.069015 43.79921 
L 273.146503 46.125977 
L 273.302945 43.730544 
L 273.436825 37.579096 
L 273.552819 27.862138 
L 273.650384 26.31704 
L 273.748847 28.754255 
L 273.78608 25.623551 
L 273.897619 28.450787 
L 274.025373 23.206433 
L 274.272485 35.215581 
L 274.34904 28.575077 
L 274.599836 37.64442 
L 274.65833 32.701823 
L 274.773918 34.128303 
L 274.851281 37.61735 
L 274.911292 29.374564 
L 275.219626 36.88853 
L 275.279305 34.679095 
L 275.316923 34.584589 
L 275.471689 38.957581 
L 275.549986 38.846261 
L 275.711885 30.599486 
L 275.860143 27.069878 
L 275.959459 34.596224 
L 276.035026 34.581779 
L 276.114446 34.928964 
L 276.189371 32.599213 
L 276.268892 34.164164 
L 276.345921 33.200029 
L 276.520431 41.832063 
L 276.597295 39.695178 
L 276.674331 40.223562 
L 276.752138 39.053374 
L 276.829416 39.514507 
L 276.914437 38.986463 
L 276.985404 33.228674 
L 277.085087 34.015225 
L 277.159124 32.859323 
L 277.392606 37.355284 
L 277.553123 31.963984 
L 277.628932 33.308995 
L 277.801003 37.742728 
L 277.877264 32.279586 
L 277.954154 35.083008 
L 278.111444 29.774858 
L 278.19905 33.921365 
L 278.2659 32.938089 
L 278.519669 23.278419 
L 278.672938 31.921219 
L 278.830155 27.468193 
L 278.906975 33.665386 
L 279.005019 30.824883 
L 279.161669 37.803944 
L 279.239269 35.656054 
L 279.415232 30.992849 
L 279.431381 42.771908 
L 279.509071 37.230421 
L 279.627326 42.560205 
L 279.721781 38.705997 
L 279.820104 44.202849 
L 279.878712 44.003966 
L 279.993892 45.914713 
L 280.11554 52.087574 
L 280.208143 51.676259 
L 280.364192 41.146147 
L 280.440648 46.758728 
L 280.517756 46.129621 
L 280.674357 40.942694 
L 280.69255 33.473787 
L 280.793928 36.245958 
L 280.965449 37.670477 
L 281.003157 37.264946 
L 281.080705 33.480436 
L 281.254333 35.823021 
L 281.31361 36.048144 
L 281.405143 38.117236 
L 281.564919 51.354719 
L 281.662573 51.264803 
L 281.720762 49.228477 
L 281.933559 55.428158 
L 281.99317 54.704166 
L 282.302389 23.160969 
L 282.360106 23.326031 
L 282.534789 19.270502 
L 282.631756 17.635347 
L 282.828922 25.28124 
L 283.00197 39.818011 
L 283.081403 48.30581 
L 283.175472 45.537109 
L 283.33102 48.975101 
L 283.396331 57.8025 
L 283.433003 53.85433 
L 283.74694 41.57057 
L 283.896033 37.412892 
L 284.000276 44.94091 
L 284.069535 42.662988 
L 284.168717 36.514656 
L 284.205514 39.854719 
L 284.342385 42.111112 
L 284.478265 45.317412 
L 284.612667 46.700918 
L 284.865443 29.811778 
L 284.943203 33.956044 
L 285.001994 32.221619 
L 285.098726 23.553061 
L 285.719991 48.233803 
L 285.798751 41.52664 
L 285.914633 53.419995 
L 285.991159 50.898651 
L 286.391119 31.761631 
L 286.495968 30.085348 
L 286.592828 34.833835 
L 286.633302 24.565713 
L 286.69116 24.664505 
L 286.78649 23.935948 
L 286.864015 29.164709 
L 286.941981 27.998921 
L 287.077492 30.05086 
L 287.175268 25.219386 
L 287.252158 30.700805 
L 287.349101 27.010589 
L 287.52462 28.521542 
L 287.66016 28.124273 
L 287.758299 24.267324 
L 287.923705 31.067251 
L 288.01595 34.435302 
L 288.128571 29.905081 
L 288.303024 41.629602 
L 288.516046 38.077454 
L 288.617345 40.40589 
L 288.710666 36.379802 
L 288.923571 34.895494 
L 288.94669 31.524379 
L 289.022291 36.115062 
L 289.09962 35.305707 
L 289.176375 35.797579 
L 289.506899 47.383893 
L 289.592865 46.024024 
L 289.816928 36.536555 
L 289.935594 36.345163 
L 289.993477 38.793365 
L 290.070015 37.992508 
L 290.225346 37.732989 
L 290.243531 39.34724 
L 290.30221 35.493367 
L 290.380866 34.019339 
L 290.628731 44.724316 
L 290.708002 43.677296 
L 290.789273 39.837087 
L 290.862231 40.027848 
L 290.942894 40.553309 
L 291.035635 33.259871 
L 291.1905 41.433267 
L 291.422395 33.635742 
L 291.674269 41.361132 
L 291.751829 41.132628 
L 291.909982 42.119186 
L 292.141237 32.498681 
L 292.221743 33.874152 
L 292.392674 26.29592 
L 292.46955 27.239753 
L 292.549253 27.718234 
L 292.624956 29.862876 
L 292.705249 27.666949 
L 292.877406 36.084057 
L 292.954704 35.404991 
L 293.110486 32.564434 
L 293.196662 34.996535 
L 293.268031 33.046268 
L 293.597945 36.145049 
L 293.750383 40.454655 
L 293.828194 36.000056 
L 293.907206 37.614994 
L 293.925626 44.316292 
L 294.003196 37.790471 
L 294.099727 40.051698 
L 294.158419 39.764906 
L 294.235962 39.730834 
L 294.391219 36.162329 
L 294.472378 33.619273 
L 294.56523 33.837921 
L 294.779962 43.985353 
L 294.837412 46.172418 
L 294.895008 40.477488 
L 294.993135 41.029722 
L 295.205151 45.805735 
L 295.265207 51.178458 
L 295.458368 48.309788 
L 295.516822 49.743587 
L 295.626133 48.062944 
L 295.671696 50.558438 
L 296.166699 26.420631 
L 296.243691 25.024282 
L 296.477668 28.265896 
L 296.632122 30.513615 
L 296.729555 30.225254 
L 296.903074 28.791111 
L 296.961736 30.115882 
L 297.059329 27.796407 
L 297.117093 13.58588 
L 297.213336 13.731409 
L 297.407018 21.430208 
L 297.446013 14.836402 
L 297.776623 18.049274 
L 297.932905 36.298798 
L 298.027579 31.025223 
L 298.164414 27.586666 
L 298.281004 32.11864 
L 298.338932 29.37974 
L 298.515772 34.763418 
L 298.580162 34.051517 
L 298.734394 24.815531 
L 298.813451 30.72713 
L 298.93042 30.53748 
L 298.971 30.963884 
L 299.05075 30.854578 
L 299.129913 46.118789 
L 299.148377 40.409099 
L 299.220429 40.817257 
L 299.378649 34.981403 
L 299.453863 37.00272 
L 299.571854 37.141274 
L 299.652127 32.076779 
L 299.706786 32.880652 
L 299.76471 34.682359 
L 300.03104 28.158896 
L 300.094665 28.683887 
L 300.172631 37.173573 
L 300.249883 36.872726 
L 300.425162 43.743794 
L 300.503911 40.785624 
L 300.581517 41.965846 
L 300.754708 45.382113 
L 300.833783 44.854499 
L 301.04774 42.567601 
L 301.361037 45.861509 
L 301.535627 37.668716 
L 301.618322 37.001592 
L 301.921186 43.505121 
L 301.970704 33.802589 
L 302.018462 36.46995 
L 302.097713 35.358463 
L 302.427951 43.17239 
L 302.586132 37.383021 
L 302.745067 34.833968 
L 302.776463 42.126822 
L 302.835421 41.194979 
L 302.936237 41.857905 
L 303.410221 55.033678 
L 303.595324 48.725066 
L 303.636101 50.718328 
L 303.712718 53.326161 
L 303.963476 36.733085 
L 304.061068 33.250172 
L 304.099205 35.736828 
L 304.294391 31.947265 
L 304.351455 35.156623 
L 304.565788 27.297568 
L 304.801155 37.017333 
L 304.838781 38.115332 
L 305.014594 35.734048 
L 305.090248 40.58292 
L 305.147594 38.306527 
L 305.229803 39.458246 
L 305.322293 36.33745 
L 305.55861 39.848901 
L 305.61413 34.25437 
L 305.652733 38.616702 
L 305.947613 26.716048 
L 306.099979 32.035652 
L 306.118309 29.3664 
L 306.196284 30.138223 
L 306.448989 25.754968 
L 306.584784 31.617562 
L 306.70132 32.910633 
L 306.778564 35.846983 
L 306.840777 31.637857 
L 306.935413 41.92371 
L 307.017621 41.238244 
L 307.111766 43.735308 
L 307.284463 40.263559 
L 307.418433 41.588868 
L 307.593358 33.276087 
L 307.652638 33.666816 
L 307.751047 30.466559 
L 307.769375 20.582448 
L 307.851522 23.27299 
L 307.929953 24.497852 
L 308.058879 37.166434 
L 308.116734 32.369744 
L 308.195434 32.97983 
L 308.300736 34.845129 
L 308.356525 31.667287 
L 308.525463 40.477894 
L 308.62279 39.820666 
L 308.680214 40.180816 
L 308.758342 37.664989 
L 308.932557 28.423364 
L 309.08219 30.553138 
L 309.090717 21.793771 
L 309.165579 25.026267 
L 309.242824 27.485066 
L 309.365954 23.978652 
L 309.400905 29.962569 
L 309.476315 27.80992 
L 309.55337 24.86368 
L 309.711246 35.391633 
L 309.80812 33.919109 
L 309.961142 37.731892 
L 310.038495 32.635022 
L 310.119272 36.06664 
L 310.272383 30.116457 
L 310.371648 29.006066 
L 310.523372 30.031699 
L 310.586765 23.338495 
L 310.6013 28.695241 
L 310.776279 43.229425 
L 310.873404 45.815065 
L 311.166555 38.069167 
L 311.318412 38.877862 
L 311.338325 42.15939 
L 311.512686 27.927407 
L 311.732091 18.327544 
L 311.832946 20.492036 
L 311.927287 15.733552 
L 311.987113 18.775024 
L 312.044857 17.685923 
L 312.141251 15.768381 
L 312.199706 19.168701 
L 312.353341 19.638908 
L 312.413438 20.826663 
L 312.452694 25.129284 
L 312.723792 30.599802 
L 312.802905 30.27075 
L 312.861284 29.335114 
L 313.092664 42.674912 
L 313.200267 41.928598 
L 313.345602 38.426026 
L 313.565 50.492258 
L 313.617752 55.042039 
L 313.800395 53.072155 
L 313.82014 55.48534 
L 313.932208 53.382819 
L 313.990353 58.377211 
L 314.04882 57.674142 
L 314.214529 59.142781 
L 314.281731 56.177716 
L 314.380233 45.124723 
L 314.616129 43.453883 
L 314.731033 43.295524 
L 314.884949 34.500226 
L 314.950325 38.862869 
L 315.02083 37.815095 
L 315.274802 50.217081 
L 315.334398 38.458068 
L 315.428998 38.810661 
L 315.585488 31.76053 
L 315.665154 32.420666 
L 315.837691 34.047509 
L 315.972345 34.068844 
L 316.091462 26.662937 
L 316.225141 33.174699 
L 316.321263 33.909708 
L 316.470643 31.709341 
L 316.594176 31.671903 
L 316.632042 32.328855 
L 316.788105 24.953602 
L 316.942088 30.600465 
L 317.02007 28.623961 
L 317.213273 38.971078 
L 317.27119 36.85283 
L 317.360063 37.100764 
L 317.368518 42.917067 
L 317.427528 42.480013 
L 317.531229 44.090956 
L 317.743394 40.519031 
L 317.835607 48.299423 
L 317.957103 47.518243 
L 318.029541 47.615956 
L 318.069631 48.697064 
L 318.14855 47.954181 
L 318.226205 38.564319 
L 318.300741 42.751856 
L 318.377631 49.130412 
L 318.513919 50.336025 
L 318.574422 47.30163 
L 318.651505 35.725699 
L 318.707402 36.750576 
L 318.785176 36.984024 
L 318.920894 38.877964 
L 318.940658 33.256151 
L 319.021001 41.417129 
L 319.218173 36.779893 
L 319.280302 33.105128 
L 319.354578 33.408066 
L 319.439869 43.261048 
L 319.589193 34.204748 
L 319.698235 33.811983 
L 319.757748 37.336325 
L 319.835725 27.403339 
L 319.911069 27.625762 
L 320.110818 32.133877 
L 320.1439 38.067852 
L 320.221437 33.334076 
L 320.464987 44.579556 
L 320.570282 39.486523 
L 320.744875 52.077271 
L 320.899581 50.531216 
L 320.996993 48.995091 
L 321.036596 50.319988 
L 321.113717 47.630038 
L 321.366306 53.752244 
L 321.521467 43.772575 
L 321.598923 43.029497 
L 321.831761 36.272484 
L 321.911759 37.497883 
L 322.08464 28.892516 
L 322.458156 35.075313 
L 322.491497 34.250148 
L 322.706414 36.681386 
L 322.802265 36.234011 
L 322.899118 41.261226 
L 322.957289 41.150761 
L 323.035297 38.057088 
L 323.152309 38.390352 
L 323.287656 41.487821 
L 323.346199 36.127287 
L 323.443681 36.807049 
L 323.638977 43.536081 
L 323.680032 40.188436 
L 323.811879 42.162761 
L 323.869864 49.855997 
L 323.928266 46.036825 
L 324.027378 44.111244 
L 324.164189 46.58202 
L 324.238711 46.444964 
L 324.645851 29.622266 
L 324.800901 29.960737 
L 325.03548 43.806196 
L 325.052991 39.098651 
L 325.249053 40.535192 
L 325.402219 35.146491 
L 325.480146 35.686478 
L 325.615797 42.814701 
L 325.790815 39.070814 
L 325.926208 39.518935 
L 326.068411 42.404255 
L 326.162024 48.555007 
L 326.41152 43.476988 
L 326.49027 43.631653 
L 326.644609 34.81498 
L 326.72158 36.077089 
L 326.818074 35.296411 
L 326.916171 36.610379 
L 326.973828 32.626198 
L 327.070356 32.794198 
L 327.152225 29.7366 
L 327.20776 32.474969 
L 327.284056 27.922977 
L 327.46897 35.428945 
L 327.575699 35.131559 
L 327.6917 29.15112 
L 327.943658 38.290929 
L 328.016966 38.137086 
L 328.094336 42.148137 
L 328.247359 40.681909 
L 328.653064 54.412168 
L 328.927902 44.791509 
L 328.973529 48.730755 
L 329.296839 44.830499 
L 329.41239 44.449376 
L 329.490451 38.880178 
L 329.530146 42.000278 
L 329.70311 49.488191 
L 329.763603 45.078451 
L 329.858298 45.269945 
L 330.039022 46.583266 
L 330.091027 50.004736 
L 330.168778 49.013583 
L 330.324372 44.828577 
L 330.419941 44.408729 
L 330.500047 44.85998 
L 330.575999 42.843585 
L 330.734612 47.488199 
L 330.81417 44.250639 
L 330.90736 45.11043 
L 331.138769 49.191506 
L 331.217799 40.926269 
L 331.371982 47.701373 
L 331.452352 47.860716 
L 331.529371 46.079411 
L 331.624681 49.540616 
L 331.887461 44.448974 
L 331.897152 49.376244 
L 331.93631 41.563509 
L 332.11229 31.917901 
L 332.182682 33.765459 
L 332.348211 31.419498 
L 332.577881 38.119417 
L 332.654959 35.820905 
L 332.889678 60.943371 
L 333.063608 52.520788 
L 333.140585 55.053008 
L 333.374762 37.445837 
L 333.467781 36.386884 
L 333.549621 23.516213 
L 333.626838 25.988713 
L 333.801534 21.350073 
L 333.878193 25.26189 
L 333.936682 24.126656 
L 334.248149 31.153387 
L 334.344735 43.918612 
L 334.479772 41.143392 
L 334.54562 43.033195 
L 334.692494 54.726267 
L 334.774713 57.884925 
L 334.888092 57.277193 
L 334.984216 53.897448 
L 335.022985 61.166474 
L 335.080913 57.45423 
L 335.178866 48.876247 
L 335.235903 53.440597 
L 335.488534 42.40282 
L 335.645118 38.913588 
L 335.738767 43.213442 
L 335.777607 39.092354 
L 335.85837 39.986769 
L 335.933747 41.824826 
L 336.031442 36.0808 
L 336.109331 37.205221 
L 336.361015 47.228017 
L 336.457137 51.314876 
L 336.519355 49.400051 
L 336.574684 43.431171 
L 336.703049 43.822413 
L 336.74898 43.652997 
L 336.854204 43.586657 
L 336.944211 42.97808 
L 337.295795 20.51857 
L 337.563373 30.016656 
L 337.641546 29.945374 
L 337.723467 30.923611 
L 337.979623 41.883582 
L 338.108633 37.307286 
L 338.188423 37.235257 
L 338.367041 30.114336 
L 338.518856 30.617528 
L 338.632063 30.301341 
L 338.805127 24.834654 
L 338.850045 28.544753 
L 338.931941 25.263268 
L 338.999851 26.951845 
L 339.15426 32.273343 
L 339.232966 29.089422 
L 339.408206 31.592902 
L 339.486387 28.808819 
L 339.523485 30.451341 
L 339.724359 34.480121 
L 339.87299 33.753578 
L 339.891222 36.690322 
L 339.971389 35.245428 
L 340.047763 40.298182 
L 340.204554 35.981929 
L 340.282695 36.488504 
L 340.438153 35.835862 
L 340.608919 38.433154 
L 340.842658 34.11796 
L 341.114318 49.002804 
L 341.19222 48.452208 
L 341.34697 42.128911 
L 341.472995 40.102273 
L 341.66397 40.734544 
L 341.823487 37.772006 
L 341.922072 27.92994 
L 341.963728 31.343801 
L 342.106274 37.266237 
L 342.12469 32.806778 
L 342.222203 36.078888 
L 342.282602 38.694345 
L 342.376117 38.510972 
L 342.492552 35.526601 
L 342.689025 40.929287 
L 342.958355 30.953165 
L 343.060599 33.305066 
L 343.094053 32.704885 
L 343.171346 33.172412 
L 343.562078 49.783797 
L 343.657714 47.799019 
L 343.812326 52.761448 
L 343.890239 49.926784 
L 343.987421 50.818831 
L 344.06438 53.628257 
L 344.323411 45.382447 
L 344.382158 43.226564 
L 344.452775 53.134172 
L 344.531179 52.97772 
L 344.627524 51.92808 
L 344.687328 54.037556 
L 344.842724 41.343714 
L 345.017188 38.260699 
L 345.13189 40.637233 
L 345.463316 26.21802 
L 345.523125 28.576154 
L 345.581235 37.245012 
L 345.737901 28.037429 
L 345.818095 30.71471 
L 345.895922 25.422608 
L 346.050106 32.147636 
L 346.317889 40.861623 
L 346.438245 41.650803 
L 346.692356 56.153442 
L 346.943078 48.710358 
L 347.02154 52.909792 
L 347.102877 46.177854 
L 347.177945 47.051081 
L 347.195536 52.392019 
L 347.365111 42.107296 
L 347.409008 42.941587 
L 347.493112 42.574284 
L 347.660481 46.036916 
L 347.816218 37.002378 
L 348.142164 51.359652 
L 348.233204 51.95081 
L 348.316091 51.722519 
L 348.399617 57.101009 
L 348.456236 53.019898 
L 348.547806 59.266798 
L 348.795916 46.310564 
L 348.894622 47.842166 
L 349.21214 30.602934 
L 349.264119 35.806523 
L 349.340426 32.014124 
L 349.53456 40.567056 
L 349.592392 33.990307 
L 349.669641 34.815885 
L 349.902387 36.212922 
L 350.01988 32.559386 
L 350.140006 39.108085 
L 350.386922 27.039829 
L 350.511036 21.990051 
L 350.721178 28.369201 
L 350.79565 29.473928 
L 350.873969 25.66818 
L 350.990407 25.723154 
L 351.060391 27.00664 
L 351.378185 42.471792 
L 351.43879 40.727336 
L 351.612886 46.204139 
L 351.747726 44.841263 
L 351.883806 39.078799 
L 351.921901 43.339171 
L 351.985453 38.276093 
L 352.450365 14.132431 
L 352.629196 20.151417 
L 352.778503 19.806995 
L 352.817431 26.173125 
L 352.939835 23.398443 
L 353.205033 45.199975 
L 353.285625 37.346841 
L 353.379598 37.671923 
L 353.477341 39.093011 
L 353.535344 30.815798 
L 353.614879 40.249392 
L 353.670645 37.493745 
L 353.811813 31.652995 
L 353.90348 33.163225 
L 353.937482 30.800513 
L 354.195407 39.607836 
L 354.29141 34.857812 
L 354.330316 42.402115 
L 354.399253 34.794898 
L 354.487561 30.727507 
L 354.641141 32.499264 
L 354.700926 32.447731 
L 354.71952 35.180693 
L 354.71952 35.180693 
" clip-path="url(#p1448d8a6d2)" style="fill: none; stroke: #ff0000; stroke-opacity: 0.5; stroke-width: 2.1; stroke-linecap: square"/>
   </g>
   <g id="patch_3">
    <path d="M 39.66375 148.36327 
L 39.66375 0.72 
" style="fill: none; stroke: #000000; stroke-width: 0.8; stroke-linejoin: miter; stroke-linecap: square"/>
   </g>
   <g id="patch_4">
    <path d="M 354.71952 148.36327 
L 354.71952 0.72 
" style="fill: none; stroke: #000000; stroke-width: 0.8; stroke-linejoin: miter; stroke-linecap: square"/>
   </g>
   <g id="patch_5">
    <path d="M 39.66375 148.36327 
L 354.71952 148.36327 
" style="fill: none; stroke: #000000; stroke-width: 0.8; stroke-linejoin: miter; stroke-linecap: square"/>
   </g>
   <g id="patch_6">
    <path d="M 39.66375 0.72 
L 354.71952 0.72 
" style="fill: none; stroke: #000000; stroke-width: 0.8; stroke-linejoin: miter; stroke-linecap: square"/>
   </g>
   <g id="legend_1">
    <g id="patch_7">
     <path d="M 46.66375 143.36327 
L 120.4325 143.36327 
Q 122.4325 143.36327 122.4325 141.36327 
L 122.4325 113.00702 
Q 122.4325 111.00702 120.4325 111.00702 
L 46.66375 111.00702 
Q 44.66375 111.00702 44.66375 113.00702 
L 44.66375 141.36327 
Q 44.66375 143.36327 46.66375 143.36327 
z
" style="fill: #ffffff; opacity: 0.8; stroke: #cccccc; stroke-linejoin: miter"/>
    </g>
    <g id="line2d_31">
     <path d="M 48.66375 119.105457 
L 58.66375 119.105457 
L 68.66375 119.105457 
" style="fill: none; stroke: #0000ff; stroke-opacity: 0.5; stroke-width: 2.1; stroke-linecap: square"/>
    </g>
    <g id="text_17">
     <!-- RNEA -->
     <g transform="translate(76.66375 122.605457) scale(0.1 -0.1)">
      <defs>
       <path id="DejaVuSans-52" d="M 2841 2188 
Q 3044 2119 3236 1894 
Q 3428 1669 3622 1275 
L 4263 0 
L 3584 0 
L 2988 1197 
Q 2756 1666 2539 1819 
Q 2322 1972 1947 1972 
L 1259 1972 
L 1259 0 
L 628 0 
L 628 4666 
L 2053 4666 
Q 2853 4666 3247 4331 
Q 3641 3997 3641 3322 
Q 3641 2881 3436 2590 
Q 3231 2300 2841 2188 
z
M 1259 4147 
L 1259 2491 
L 2053 2491 
Q 2509 2491 2742 2702 
Q 2975 2913 2975 3322 
Q 2975 3731 2742 3939 
Q 2509 4147 2053 4147 
L 1259 4147 
z
" transform="scale(0.015625)"/>
       <path id="DejaVuSans-45" d="M 628 4666 
L 3578 4666 
L 3578 4134 
L 1259 4134 
L 1259 2753 
L 3481 2753 
L 3481 2222 
L 1259 2222 
L 1259 531 
L 3634 531 
L 3634 0 
L 628 0 
L 628 4666 
z
" transform="scale(0.015625)"/>
       <path id="DejaVuSans-41" d="M 2188 4044 
L 1331 1722 
L 3047 1722 
L 2188 4044 
z
M 1831 4666 
L 2547 4666 
L 4325 0 
L 3669 0 
L 3244 1197 
L 1141 1197 
L 716 0 
L 50 0 
L 1831 4666 
z
" transform="scale(0.015625)"/>
      </defs>
      <use xlink:href="#DejaVuSans-52"/>
      <use xlink:href="#DejaVuSans-4e" x="69.482422"/>
      <use xlink:href="#DejaVuSans-45" x="144.287109"/>
      <use xlink:href="#DejaVuSans-41" x="207.470703"/>
     </g>
    </g>
    <g id="line2d_32">
     <path d="M 48.66375 133.783582 
L 58.66375 133.783582 
L 68.66375 133.783582 
" style="fill: none; stroke: #ff0000; stroke-opacity: 0.5; stroke-width: 2.1; stroke-linecap: square"/>
    </g>
    <g id="text_18">
     <!-- BURNEA -->
     <g transform="translate(76.66375 137.283582) scale(0.1 -0.1)">
      <defs>
       <path id="DejaVuSans-42" d="M 1259 2228 
L 1259 519 
L 2272 519 
Q 2781 519 3026 730 
Q 3272 941 3272 1375 
Q 3272 1813 3026 2020 
Q 2781 2228 2272 2228 
L 1259 2228 
z
M 1259 4147 
L 1259 2741 
L 2194 2741 
Q 2656 2741 2882 2914 
Q 3109 3088 3109 3444 
Q 3109 3797 2882 3972 
Q 2656 4147 2194 4147 
L 1259 4147 
z
M 628 4666 
L 2241 4666 
Q 2963 4666 3353 4366 
Q 3744 4066 3744 3513 
Q 3744 3084 3544 2831 
Q 3344 2578 2956 2516 
Q 3422 2416 3680 2098 
Q 3938 1781 3938 1306 
Q 3938 681 3513 340 
Q 3088 0 2303 0 
L 628 0 
L 628 4666 
z
" transform="scale(0.015625)"/>
       <path id="DejaVuSans-55" d="M 556 4666 
L 1191 4666 
L 1191 1831 
Q 1191 1081 1462 751 
Q 1734 422 2344 422 
Q 2950 422 3222 751 
Q 3494 1081 3494 1831 
L 3494 4666 
L 4128 4666 
L 4128 1753 
Q 4128 841 3676 375 
Q 3225 -91 2344 -91 
Q 1459 -91 1007 375 
Q 556 841 556 1753 
L 556 4666 
z
" transform="scale(0.015625)"/>
      </defs>
      <use xlink:href="#DejaVuSans-42"/>
      <use xlink:href="#DejaVuSans-55" x="68.603516"/>
      <use xlink:href="#DejaVuSans-52" x="141.796875"/>
      <use xlink:href="#DejaVuSans-4e" x="211.279297"/>
      <use xlink:href="#DejaVuSans-45" x="286.083984"/>
      <use xlink:href="#DejaVuSans-41" x="349.267578"/>
     </g>
    </g>
   </g>
  </g>
 </g>
 <defs>
  <clipPath id="p1448d8a6d2">
   <rect x="39.66375" y="0.72" width="315.05577" height="147.64327"/>
  </clipPath>
 </defs>
</svg>
