<?xml version="1.0" encoding="utf-8" standalone="no"?>
<!DOCTYPE svg PUBLIC "-//W3C//DTD SVG 1.1//EN"
  "http://www.w3.org/Graphics/SVG/1.1/DTD/svg11.dtd">
<svg xmlns:xlink="http://www.w3.org/1999/xlink" width="355.43952pt" height="175.43952pt" viewBox="0 0 355.43952 175.43952" xmlns="http://www.w3.org/2000/svg" version="1.1">
 <metadata>
  <rdf:RDF xmlns:dc="http://purl.org/dc/elements/1.1/" xmlns:cc="http://creativecommons.org/ns#" xmlns:rdf="http://www.w3.org/1999/02/22-rdf-syntax-ns#">
   <cc:Work>
    <dc:type rdf:resource="http://purl.org/dc/dcmitype/StillImage"/>
    <dc:date>2023-09-09T18:29:31.437954</dc:date>
    <dc:format>image/svg+xml</dc:format>
    <dc:creator>
     <cc:Agent>
      <dc:title>Matplotlib v3.7.2, https://matplotlib.org/</dc:title>
     </cc:Agent>
    </dc:creator>
   </cc:Work>
  </rdf:RDF>
 </metadata>
 <defs>
  <style type="text/css">*{stroke-linejoin: round; stroke-linecap: butt}</style>
 </defs>
 <g id="figure_1">
  <g id="patch_1">
   <path d="M 0 175.43952 
L 355.43952 175.43952 
L 355.43952 0 
L 0 0 
L 0 175.43952 
z
" style="fill: none"/>
  </g>
  <g id="axes_1">
   <g id="patch_2">
    <path d="M 38.502813 148.36327 
L 354.71952 148.36327 
L 354.71952 0.72 
L 38.502813 0.72 
L 38.502813 148.36327 
z
" style="fill: none"/>
   </g>
   <g id="matplotlib.axis_1">
    <g id="xtick_1">
     <g id="line2d_1">
      <path d="M 38.502813 148.36327 
L 38.502813 0.72 
" clip-path="url(#p116b5e21d3)" style="fill: none; stroke-dasharray: 0.8,1.32; stroke-dashoffset: 0; stroke: #000000; stroke-opacity: 0.5; stroke-width: 0.8"/>
     </g>
     <g id="line2d_2">
      <defs>
       <path id="mc89279218a" d="M 0 0 
L 0 3.5 
" style="stroke: #000000; stroke-width: 0.8"/>
      </defs>
      <g>
       <use xlink:href="#mc89279218a" x="38.502813" y="148.36327" style="stroke: #000000; stroke-width: 0.8"/>
      </g>
     </g>
     <g id="text_1">
      <!-- 0 -->
      <g transform="translate(35.321563 162.961707) scale(0.1 -0.1)">
       <defs>
        <path id="DejaVuSans-30" d="M 2034 4250 
Q 1547 4250 1301 3770 
Q 1056 3291 1056 2328 
Q 1056 1369 1301 889 
Q 1547 409 2034 409 
Q 2525 409 2770 889 
Q 3016 1369 3016 2328 
Q 3016 3291 2770 3770 
Q 2525 4250 2034 4250 
z
M 2034 4750 
Q 2819 4750 3233 4129 
Q 3647 3509 3647 2328 
Q 3647 1150 3233 529 
Q 2819 -91 2034 -91 
Q 1250 -91 836 529 
Q 422 1150 422 2328 
Q 422 3509 836 4129 
Q 1250 4750 2034 4750 
z
" transform="scale(0.015625)"/>
       </defs>
       <use xlink:href="#DejaVuSans-30"/>
      </g>
     </g>
    </g>
    <g id="xtick_2">
     <g id="line2d_3">
      <path d="M 86.802252 148.36327 
L 86.802252 0.72 
" clip-path="url(#p116b5e21d3)" style="fill: none; stroke-dasharray: 0.8,1.32; stroke-dashoffset: 0; stroke: #000000; stroke-opacity: 0.5; stroke-width: 0.8"/>
     </g>
     <g id="line2d_4">
      <g>
       <use xlink:href="#mc89279218a" x="86.802252" y="148.36327" style="stroke: #000000; stroke-width: 0.8"/>
      </g>
     </g>
     <g id="text_2">
      <!-- 5 -->
      <g transform="translate(83.621002 162.961707) scale(0.1 -0.1)">
       <defs>
        <path id="DejaVuSans-35" d="M 691 4666 
L 3169 4666 
L 3169 4134 
L 1269 4134 
L 1269 2991 
Q 1406 3038 1543 3061 
Q 1681 3084 1819 3084 
Q 2600 3084 3056 2656 
Q 3513 2228 3513 1497 
Q 3513 744 3044 326 
Q 2575 -91 1722 -91 
Q 1428 -91 1123 -41 
Q 819 9 494 109 
L 494 744 
Q 775 591 1075 516 
Q 1375 441 1709 441 
Q 2250 441 2565 725 
Q 2881 1009 2881 1497 
Q 2881 1984 2565 2268 
Q 2250 2553 1709 2553 
Q 1456 2553 1204 2497 
Q 953 2441 691 2322 
L 691 4666 
z
" transform="scale(0.015625)"/>
       </defs>
       <use xlink:href="#DejaVuSans-35"/>
      </g>
     </g>
    </g>
    <g id="xtick_3">
     <g id="line2d_5">
      <path d="M 135.101691 148.36327 
L 135.101691 0.72 
" clip-path="url(#p116b5e21d3)" style="fill: none; stroke-dasharray: 0.8,1.32; stroke-dashoffset: 0; stroke: #000000; stroke-opacity: 0.5; stroke-width: 0.8"/>
     </g>
     <g id="line2d_6">
      <g>
       <use xlink:href="#mc89279218a" x="135.101691" y="148.36327" style="stroke: #000000; stroke-width: 0.8"/>
      </g>
     </g>
     <g id="text_3">
      <!-- 10 -->
      <g transform="translate(128.739191 162.961707) scale(0.1 -0.1)">
       <defs>
        <path id="DejaVuSans-31" d="M 794 531 
L 1825 531 
L 1825 4091 
L 703 3866 
L 703 4441 
L 1819 4666 
L 2450 4666 
L 2450 531 
L 3481 531 
L 3481 0 
L 794 0 
L 794 531 
z
" transform="scale(0.015625)"/>
       </defs>
       <use xlink:href="#DejaVuSans-31"/>
       <use xlink:href="#DejaVuSans-30" x="63.623047"/>
      </g>
     </g>
    </g>
    <g id="xtick_4">
     <g id="line2d_7">
      <path d="M 183.40113 148.36327 
L 183.40113 0.72 
" clip-path="url(#p116b5e21d3)" style="fill: none; stroke-dasharray: 0.8,1.32; stroke-dashoffset: 0; stroke: #000000; stroke-opacity: 0.5; stroke-width: 0.8"/>
     </g>
     <g id="line2d_8">
      <g>
       <use xlink:href="#mc89279218a" x="183.40113" y="148.36327" style="stroke: #000000; stroke-width: 0.8"/>
      </g>
     </g>
     <g id="text_4">
      <!-- 15 -->
      <g transform="translate(177.03863 162.961707) scale(0.1 -0.1)">
       <use xlink:href="#DejaVuSans-31"/>
       <use xlink:href="#DejaVuSans-35" x="63.623047"/>
      </g>
     </g>
    </g>
    <g id="xtick_5">
     <g id="line2d_9">
      <path d="M 231.700569 148.36327 
L 231.700569 0.72 
" clip-path="url(#p116b5e21d3)" style="fill: none; stroke-dasharray: 0.8,1.32; stroke-dashoffset: 0; stroke: #000000; stroke-opacity: 0.5; stroke-width: 0.8"/>
     </g>
     <g id="line2d_10">
      <g>
       <use xlink:href="#mc89279218a" x="231.700569" y="148.36327" style="stroke: #000000; stroke-width: 0.8"/>
      </g>
     </g>
     <g id="text_5">
      <!-- 20 -->
      <g transform="translate(225.338069 162.961707) scale(0.1 -0.1)">
       <defs>
        <path id="DejaVuSans-32" d="M 1228 531 
L 3431 531 
L 3431 0 
L 469 0 
L 469 531 
Q 828 903 1448 1529 
Q 2069 2156 2228 2338 
Q 2531 2678 2651 2914 
Q 2772 3150 2772 3378 
Q 2772 3750 2511 3984 
Q 2250 4219 1831 4219 
Q 1534 4219 1204 4116 
Q 875 4013 500 3803 
L 500 4441 
Q 881 4594 1212 4672 
Q 1544 4750 1819 4750 
Q 2544 4750 2975 4387 
Q 3406 4025 3406 3419 
Q 3406 3131 3298 2873 
Q 3191 2616 2906 2266 
Q 2828 2175 2409 1742 
Q 1991 1309 1228 531 
z
" transform="scale(0.015625)"/>
       </defs>
       <use xlink:href="#DejaVuSans-32"/>
       <use xlink:href="#DejaVuSans-30" x="63.623047"/>
      </g>
     </g>
    </g>
    <g id="xtick_6">
     <g id="line2d_11">
      <path d="M 280.000008 148.36327 
L 280.000008 0.72 
" clip-path="url(#p116b5e21d3)" style="fill: none; stroke-dasharray: 0.8,1.32; stroke-dashoffset: 0; stroke: #000000; stroke-opacity: 0.5; stroke-width: 0.8"/>
     </g>
     <g id="line2d_12">
      <g>
       <use xlink:href="#mc89279218a" x="280.000008" y="148.36327" style="stroke: #000000; stroke-width: 0.8"/>
      </g>
     </g>
     <g id="text_6">
      <!-- 25 -->
      <g transform="translate(273.637508 162.961707) scale(0.1 -0.1)">
       <use xlink:href="#DejaVuSans-32"/>
       <use xlink:href="#DejaVuSans-35" x="63.623047"/>
      </g>
     </g>
    </g>
    <g id="xtick_7">
     <g id="line2d_13">
      <path d="M 328.299448 148.36327 
L 328.299448 0.72 
" clip-path="url(#p116b5e21d3)" style="fill: none; stroke-dasharray: 0.8,1.32; stroke-dashoffset: 0; stroke: #000000; stroke-opacity: 0.5; stroke-width: 0.8"/>
     </g>
     <g id="line2d_14">
      <g>
       <use xlink:href="#mc89279218a" x="328.299448" y="148.36327" style="stroke: #000000; stroke-width: 0.8"/>
      </g>
     </g>
     <g id="text_7">
      <!-- 30 -->
      <g transform="translate(321.936948 162.961707) scale(0.1 -0.1)">
       <defs>
        <path id="DejaVuSans-33" d="M 2597 2516 
Q 3050 2419 3304 2112 
Q 3559 1806 3559 1356 
Q 3559 666 3084 287 
Q 2609 -91 1734 -91 
Q 1441 -91 1130 -33 
Q 819 25 488 141 
L 488 750 
Q 750 597 1062 519 
Q 1375 441 1716 441 
Q 2309 441 2620 675 
Q 2931 909 2931 1356 
Q 2931 1769 2642 2001 
Q 2353 2234 1838 2234 
L 1294 2234 
L 1294 2753 
L 1863 2753 
Q 2328 2753 2575 2939 
Q 2822 3125 2822 3475 
Q 2822 3834 2567 4026 
Q 2313 4219 1838 4219 
Q 1578 4219 1281 4162 
Q 984 4106 628 3988 
L 628 4550 
Q 988 4650 1302 4700 
Q 1616 4750 1894 4750 
Q 2613 4750 3031 4423 
Q 3450 4097 3450 3541 
Q 3450 3153 3228 2886 
Q 3006 2619 2597 2516 
z
" transform="scale(0.015625)"/>
       </defs>
       <use xlink:href="#DejaVuSans-33"/>
       <use xlink:href="#DejaVuSans-30" x="63.623047"/>
      </g>
     </g>
    </g>
    <g id="text_8">
     <!-- Zeit [s] -->
     <g transform="translate(178.665073 172.639832) scale(0.1 -0.1)">
      <defs>
       <path id="DejaVuSans-5a" d="M 359 4666 
L 4025 4666 
L 4025 4184 
L 1075 531 
L 4097 531 
L 4097 0 
L 288 0 
L 288 481 
L 3238 4134 
L 359 4134 
L 359 4666 
z
" transform="scale(0.015625)"/>
       <path id="DejaVuSans-65" d="M 3597 1894 
L 3597 1613 
L 953 1613 
Q 991 1019 1311 708 
Q 1631 397 2203 397 
Q 2534 397 2845 478 
Q 3156 559 3463 722 
L 3463 178 
Q 3153 47 2828 -22 
Q 2503 -91 2169 -91 
Q 1331 -91 842 396 
Q 353 884 353 1716 
Q 353 2575 817 3079 
Q 1281 3584 2069 3584 
Q 2775 3584 3186 3129 
Q 3597 2675 3597 1894 
z
M 3022 2063 
Q 3016 2534 2758 2815 
Q 2500 3097 2075 3097 
Q 1594 3097 1305 2825 
Q 1016 2553 972 2059 
L 3022 2063 
z
" transform="scale(0.015625)"/>
       <path id="DejaVuSans-69" d="M 603 3500 
L 1178 3500 
L 1178 0 
L 603 0 
L 603 3500 
z
M 603 4863 
L 1178 4863 
L 1178 4134 
L 603 4134 
L 603 4863 
z
" transform="scale(0.015625)"/>
       <path id="DejaVuSans-74" d="M 1172 4494 
L 1172 3500 
L 2356 3500 
L 2356 3053 
L 1172 3053 
L 1172 1153 
Q 1172 725 1289 603 
Q 1406 481 1766 481 
L 2356 481 
L 2356 0 
L 1766 0 
Q 1100 0 847 248 
Q 594 497 594 1153 
L 594 3053 
L 172 3053 
L 172 3500 
L 594 3500 
L 594 4494 
L 1172 4494 
z
" transform="scale(0.015625)"/>
       <path id="DejaVuSans-20" transform="scale(0.015625)"/>
       <path id="DejaVuSans-5b" d="M 550 4863 
L 1875 4863 
L 1875 4416 
L 1125 4416 
L 1125 -397 
L 1875 -397 
L 1875 -844 
L 550 -844 
L 550 4863 
z
" transform="scale(0.015625)"/>
       <path id="DejaVuSans-73" d="M 2834 3397 
L 2834 2853 
Q 2591 2978 2328 3040 
Q 2066 3103 1784 3103 
Q 1356 3103 1142 2972 
Q 928 2841 928 2578 
Q 928 2378 1081 2264 
Q 1234 2150 1697 2047 
L 1894 2003 
Q 2506 1872 2764 1633 
Q 3022 1394 3022 966 
Q 3022 478 2636 193 
Q 2250 -91 1575 -91 
Q 1294 -91 989 -36 
Q 684 19 347 128 
L 347 722 
Q 666 556 975 473 
Q 1284 391 1588 391 
Q 1994 391 2212 530 
Q 2431 669 2431 922 
Q 2431 1156 2273 1281 
Q 2116 1406 1581 1522 
L 1381 1569 
Q 847 1681 609 1914 
Q 372 2147 372 2553 
Q 372 3047 722 3315 
Q 1072 3584 1716 3584 
Q 2034 3584 2315 3537 
Q 2597 3491 2834 3397 
z
" transform="scale(0.015625)"/>
       <path id="DejaVuSans-5d" d="M 1947 4863 
L 1947 -844 
L 622 -844 
L 622 -397 
L 1369 -397 
L 1369 4416 
L 622 4416 
L 622 4863 
L 1947 4863 
z
" transform="scale(0.015625)"/>
      </defs>
      <use xlink:href="#DejaVuSans-5a"/>
      <use xlink:href="#DejaVuSans-65" x="68.505859"/>
      <use xlink:href="#DejaVuSans-69" x="130.029297"/>
      <use xlink:href="#DejaVuSans-74" x="157.8125"/>
      <use xlink:href="#DejaVuSans-20" x="197.021484"/>
      <use xlink:href="#DejaVuSans-5b" x="228.808594"/>
      <use xlink:href="#DejaVuSans-73" x="267.822266"/>
      <use xlink:href="#DejaVuSans-5d" x="319.921875"/>
     </g>
    </g>
   </g>
   <g id="matplotlib.axis_2">
    <g id="ytick_1">
     <g id="line2d_15">
      <path d="M 38.502813 138.010042 
L 354.71952 138.010042 
" clip-path="url(#p116b5e21d3)" style="fill: none; stroke-dasharray: 0.8,1.32; stroke-dashoffset: 0; stroke: #000000; stroke-opacity: 0.5; stroke-width: 0.8"/>
     </g>
     <g id="line2d_16">
      <defs>
       <path id="m7fdf6b8053" d="M 0 0 
L -3.5 0 
" style="stroke: #000000; stroke-width: 0.8"/>
      </defs>
      <g>
       <use xlink:href="#m7fdf6b8053" x="38.502813" y="138.010042" style="stroke: #000000; stroke-width: 0.8"/>
      </g>
     </g>
     <g id="text_9">
      <!-- −30 -->
      <g transform="translate(10.398125 141.809261) scale(0.1 -0.1)">
       <defs>
        <path id="DejaVuSans-2212" d="M 678 2272 
L 4684 2272 
L 4684 1741 
L 678 1741 
L 678 2272 
z
" transform="scale(0.015625)"/>
       </defs>
       <use xlink:href="#DejaVuSans-2212"/>
       <use xlink:href="#DejaVuSans-33" x="83.789062"/>
       <use xlink:href="#DejaVuSans-30" x="147.412109"/>
      </g>
     </g>
    </g>
    <g id="ytick_2">
     <g id="line2d_17">
      <path d="M 38.502813 116.832189 
L 354.71952 116.832189 
" clip-path="url(#p116b5e21d3)" style="fill: none; stroke-dasharray: 0.8,1.32; stroke-dashoffset: 0; stroke: #000000; stroke-opacity: 0.5; stroke-width: 0.8"/>
     </g>
     <g id="line2d_18">
      <g>
       <use xlink:href="#m7fdf6b8053" x="38.502813" y="116.832189" style="stroke: #000000; stroke-width: 0.8"/>
      </g>
     </g>
     <g id="text_10">
      <!-- −25 -->
      <g transform="translate(10.398125 120.631408) scale(0.1 -0.1)">
       <use xlink:href="#DejaVuSans-2212"/>
       <use xlink:href="#DejaVuSans-32" x="83.789062"/>
       <use xlink:href="#DejaVuSans-35" x="147.412109"/>
      </g>
     </g>
    </g>
    <g id="ytick_3">
     <g id="line2d_19">
      <path d="M 38.502813 95.654335 
L 354.71952 95.654335 
" clip-path="url(#p116b5e21d3)" style="fill: none; stroke-dasharray: 0.8,1.32; stroke-dashoffset: 0; stroke: #000000; stroke-opacity: 0.5; stroke-width: 0.8"/>
     </g>
     <g id="line2d_20">
      <g>
       <use xlink:href="#m7fdf6b8053" x="38.502813" y="95.654335" style="stroke: #000000; stroke-width: 0.8"/>
      </g>
     </g>
     <g id="text_11">
      <!-- −20 -->
      <g transform="translate(10.398125 99.453554) scale(0.1 -0.1)">
       <use xlink:href="#DejaVuSans-2212"/>
       <use xlink:href="#DejaVuSans-32" x="83.789062"/>
       <use xlink:href="#DejaVuSans-30" x="147.412109"/>
      </g>
     </g>
    </g>
    <g id="ytick_4">
     <g id="line2d_21">
      <path d="M 38.502813 74.476482 
L 354.71952 74.476482 
" clip-path="url(#p116b5e21d3)" style="fill: none; stroke-dasharray: 0.8,1.32; stroke-dashoffset: 0; stroke: #000000; stroke-opacity: 0.5; stroke-width: 0.8"/>
     </g>
     <g id="line2d_22">
      <g>
       <use xlink:href="#m7fdf6b8053" x="38.502813" y="74.476482" style="stroke: #000000; stroke-width: 0.8"/>
      </g>
     </g>
     <g id="text_12">
      <!-- −15 -->
      <g transform="translate(10.398125 78.2757) scale(0.1 -0.1)">
       <use xlink:href="#DejaVuSans-2212"/>
       <use xlink:href="#DejaVuSans-31" x="83.789062"/>
       <use xlink:href="#DejaVuSans-35" x="147.412109"/>
      </g>
     </g>
    </g>
    <g id="ytick_5">
     <g id="line2d_23">
      <path d="M 38.502813 53.298628 
L 354.71952 53.298628 
" clip-path="url(#p116b5e21d3)" style="fill: none; stroke-dasharray: 0.8,1.32; stroke-dashoffset: 0; stroke: #000000; stroke-opacity: 0.5; stroke-width: 0.8"/>
     </g>
     <g id="line2d_24">
      <g>
       <use xlink:href="#m7fdf6b8053" x="38.502813" y="53.298628" style="stroke: #000000; stroke-width: 0.8"/>
      </g>
     </g>
     <g id="text_13">
      <!-- −10 -->
      <g transform="translate(10.398125 57.097847) scale(0.1 -0.1)">
       <use xlink:href="#DejaVuSans-2212"/>
       <use xlink:href="#DejaVuSans-31" x="83.789062"/>
       <use xlink:href="#DejaVuSans-30" x="147.412109"/>
      </g>
     </g>
    </g>
    <g id="ytick_6">
     <g id="line2d_25">
      <path d="M 38.502813 32.120774 
L 354.71952 32.120774 
" clip-path="url(#p116b5e21d3)" style="fill: none; stroke-dasharray: 0.8,1.32; stroke-dashoffset: 0; stroke: #000000; stroke-opacity: 0.5; stroke-width: 0.8"/>
     </g>
     <g id="line2d_26">
      <g>
       <use xlink:href="#m7fdf6b8053" x="38.502813" y="32.120774" style="stroke: #000000; stroke-width: 0.8"/>
      </g>
     </g>
     <g id="text_14">
      <!-- −5 -->
      <g transform="translate(16.760625 35.919993) scale(0.1 -0.1)">
       <use xlink:href="#DejaVuSans-2212"/>
       <use xlink:href="#DejaVuSans-35" x="83.789062"/>
      </g>
     </g>
    </g>
    <g id="ytick_7">
     <g id="line2d_27">
      <path d="M 38.502813 10.942921 
L 354.71952 10.942921 
" clip-path="url(#p116b5e21d3)" style="fill: none; stroke-dasharray: 0.8,1.32; stroke-dashoffset: 0; stroke: #000000; stroke-opacity: 0.5; stroke-width: 0.8"/>
     </g>
     <g id="line2d_28">
      <g>
       <use xlink:href="#m7fdf6b8053" x="38.502813" y="10.942921" style="stroke: #000000; stroke-width: 0.8"/>
      </g>
     </g>
     <g id="text_15">
      <!-- 0 -->
      <g transform="translate(25.140313 14.74214) scale(0.1 -0.1)">
       <use xlink:href="#DejaVuSans-30"/>
      </g>
     </g>
    </g>
    <g id="text_16">
     <!-- Kraft [N] -->
     <g transform="translate(8.318438 95.804135) rotate(-90) scale(0.1 -0.1)">
      <defs>
       <path id="DejaVuSans-4b" d="M 628 4666 
L 1259 4666 
L 1259 2694 
L 3353 4666 
L 4166 4666 
L 1850 2491 
L 4331 0 
L 3500 0 
L 1259 2247 
L 1259 0 
L 628 0 
L 628 4666 
z
" transform="scale(0.015625)"/>
       <path id="DejaVuSans-72" d="M 2631 2963 
Q 2534 3019 2420 3045 
Q 2306 3072 2169 3072 
Q 1681 3072 1420 2755 
Q 1159 2438 1159 1844 
L 1159 0 
L 581 0 
L 581 3500 
L 1159 3500 
L 1159 2956 
Q 1341 3275 1631 3429 
Q 1922 3584 2338 3584 
Q 2397 3584 2469 3576 
Q 2541 3569 2628 3553 
L 2631 2963 
z
" transform="scale(0.015625)"/>
       <path id="DejaVuSans-61" d="M 2194 1759 
Q 1497 1759 1228 1600 
Q 959 1441 959 1056 
Q 959 750 1161 570 
Q 1363 391 1709 391 
Q 2188 391 2477 730 
Q 2766 1069 2766 1631 
L 2766 1759 
L 2194 1759 
z
M 3341 1997 
L 3341 0 
L 2766 0 
L 2766 531 
Q 2569 213 2275 61 
Q 1981 -91 1556 -91 
Q 1019 -91 701 211 
Q 384 513 384 1019 
Q 384 1609 779 1909 
Q 1175 2209 1959 2209 
L 2766 2209 
L 2766 2266 
Q 2766 2663 2505 2880 
Q 2244 3097 1772 3097 
Q 1472 3097 1187 3025 
Q 903 2953 641 2809 
L 641 3341 
Q 956 3463 1253 3523 
Q 1550 3584 1831 3584 
Q 2591 3584 2966 3190 
Q 3341 2797 3341 1997 
z
" transform="scale(0.015625)"/>
       <path id="DejaVuSans-66" d="M 2375 4863 
L 2375 4384 
L 1825 4384 
Q 1516 4384 1395 4259 
Q 1275 4134 1275 3809 
L 1275 3500 
L 2222 3500 
L 2222 3053 
L 1275 3053 
L 1275 0 
L 697 0 
L 697 3053 
L 147 3053 
L 147 3500 
L 697 3500 
L 697 3744 
Q 697 4328 969 4595 
Q 1241 4863 1831 4863 
L 2375 4863 
z
" transform="scale(0.015625)"/>
       <path id="DejaVuSans-4e" d="M 628 4666 
L 1478 4666 
L 3547 763 
L 3547 4666 
L 4159 4666 
L 4159 0 
L 3309 0 
L 1241 3903 
L 1241 0 
L 628 0 
L 628 4666 
z
" transform="scale(0.015625)"/>
      </defs>
      <use xlink:href="#DejaVuSans-4b"/>
      <use xlink:href="#DejaVuSans-72" x="65.576172"/>
      <use xlink:href="#DejaVuSans-61" x="106.689453"/>
      <use xlink:href="#DejaVuSans-66" x="167.96875"/>
      <use xlink:href="#DejaVuSans-74" x="201.423828"/>
      <use xlink:href="#DejaVuSans-20" x="240.632812"/>
      <use xlink:href="#DejaVuSans-5b" x="272.419922"/>
      <use xlink:href="#DejaVuSans-4e" x="311.433594"/>
      <use xlink:href="#DejaVuSans-5d" x="386.238281"/>
     </g>
    </g>
   </g>
   <g id="line2d_29">
    <path d="M 38.502813 144.982126 
L 354.71952 144.982125 
L 354.71952 144.982125 
" clip-path="url(#p116b5e21d3)" style="fill: none; stroke: #0000ff; stroke-opacity: 0.5; stroke-width: 2.1; stroke-linecap: square"/>
   </g>
   <g id="line2d_30">
    <path d="M 38.502813 12.010485 
L 38.737821 8.586899 
L 38.840937 9.053664 
L 38.858073 11.053634 
L 38.915701 10.083331 
L 38.996 10.256036 
L 39.052382 13.431085 
L 39.128177 13.017223 
L 39.206546 12.269248 
L 39.30483 12.673195 
L 39.389044 11.838245 
L 39.478749 14.052549 
L 39.536905 13.875247 
L 39.692784 12.013756 
L 39.77117 13.036246 
L 39.888112 12.208616 
L 40.02409 13.805447 
L 40.10147 12.338497 
L 40.199037 12.734186 
L 40.335137 11.689606 
L 40.529075 14.779683 
L 40.997532 11.290446 
L 41.13366 11.856015 
L 41.156026 13.015163 
L 41.23112 12.25896 
L 41.309887 12.093006 
L 41.546725 10.261479 
L 41.795161 11.951067 
L 42.108148 8.135994 
L 42.186354 8.555536 
L 42.269585 10.248798 
L 42.351038 10.046327 
L 42.441052 8.695398 
L 42.597351 10.172961 
L 42.675056 10.59296 
L 42.753201 10.356123 
L 42.916489 11.99426 
L 42.991752 10.447031 
L 43.395967 13.101148 
L 43.472821 12.898569 
L 43.635655 10.116045 
L 43.806811 11.663663 
L 43.884713 11.260036 
L 44.119002 14.334004 
L 44.274776 12.122559 
L 44.434952 12.93526 
L 44.528509 12.822388 
L 44.684906 15.17081 
L 44.762357 14.635158 
L 44.930061 12.897825 
L 44.999731 13.39049 
L 45.093005 12.786548 
L 45.171094 12.812403 
L 45.341968 14.14367 
L 45.406183 13.443615 
L 45.48531 13.831127 
L 45.641339 12.444795 
L 45.717658 11.779506 
L 45.90101 14.219512 
L 45.971182 15.434139 
L 46.047456 14.953577 
L 46.382204 11.125382 
L 46.457496 12.070121 
L 46.61648 10.434102 
L 47.044084 13.543875 
L 47.336133 10.750126 
L 47.472233 12.596531 
L 47.744031 5.863802 
L 47.822312 7.105798 
L 47.900331 7.591198 
L 48.05831 12.227829 
L 48.157508 11.356297 
L 48.217857 10.234802 
L 48.298911 10.405148 
L 48.703368 12.829386 
L 48.959534 11.233184 
L 49.039076 11.433378 
L 49.291612 9.969345 
L 49.352002 10.271213 
L 49.431728 10.476997 
L 49.608852 12.824918 
L 49.754536 12.186374 
L 49.859175 11.934477 
L 50.02602 10.26534 
L 50.193099 14.338158 
L 50.2049 14.617439 
L 50.275555 14.496916 
L 50.362067 12.792781 
L 50.576849 10.521375 
L 50.673698 10.850756 
L 50.82926 12.9333 
L 51.063053 9.76331 
L 51.220907 11.719543 
L 51.297247 12.195476 
L 51.491074 10.465073 
L 51.537186 10.349581 
L 51.647206 11.027193 
L 51.746133 10.904061 
L 51.843803 13.268112 
L 52.029296 9.730737 
L 52.095767 9.992894 
L 52.357167 12.468033 
L 52.756722 7.815782 
L 52.815409 8.044426 
L 53.050568 8.859962 
L 53.204722 10.524208 
L 53.282349 9.868177 
L 53.380404 11.009935 
L 53.61403 16.054806 
L 53.710874 15.570519 
L 54.022606 11.181949 
L 54.100343 11.574513 
L 54.197836 11.073583 
L 54.431415 8.540686 
L 54.508782 8.811706 
L 54.878581 13.335122 
L 54.917223 10.798848 
L 54.983312 10.855333 
L 55.072484 12.079624 
L 55.583551 7.122448 
L 55.638839 7.65897 
L 55.716714 10.105472 
L 55.807566 9.990363 
L 55.872646 8.289212 
L 56.066612 8.813518 
L 56.125612 8.516498 
L 56.280685 10.38967 
L 56.554033 7.880578 
L 56.613092 8.373508 
L 56.690673 10.428242 
L 56.76844 10.026656 
L 56.885079 10.090993 
L 57.060348 9.217662 
L 57.235723 9.789944 
L 57.29405 9.681614 
L 57.352874 9.752686 
L 57.464592 10.202393 
L 57.489055 10.041602 
L 57.902949 8.086956 
L 58.078297 10.429273 
L 58.228503 9.118483 
L 58.365869 9.362496 
L 58.429805 9.800635 
L 58.473649 9.020593 
L 58.473732 9.876074 
L 58.55121 9.439649 
L 58.779144 9.065549 
L 58.815468 9.454193 
L 58.836023 8.560178 
L 58.912452 8.746999 
L 59.003179 10.046057 
L 59.021962 9.641273 
L 59.100046 10.306068 
L 59.193016 9.487553 
L 59.282441 9.527143 
L 59.397292 10.205939 
L 59.509224 9.92642 
L 59.590613 10.183477 
L 59.74555 9.354962 
L 59.86162 10.823891 
L 59.900723 8.279719 
L 59.979132 8.835922 
L 60.232021 15.811063 
L 60.309421 14.332221 
L 60.46542 11.994691 
L 60.58206 12.544226 
L 60.644476 10.084266 
L 60.719593 10.815541 
L 60.898684 12.197545 
L 61.055255 10.793187 
L 61.132976 9.867999 
L 61.189343 9.891444 
L 61.384283 10.137704 
L 61.462262 11.697152 
L 61.521787 11.680376 
L 61.600594 10.69154 
L 61.741816 10.45961 
L 61.832855 9.015933 
L 62.007419 10.252775 
L 62.184327 12.488571 
L 62.262531 12.105199 
L 62.40228 14.446263 
L 62.495907 14.483712 
L 62.729615 15.918591 
L 62.748243 15.506121 
L 63.585278 11.791634 
L 64.039448 11.137354 
L 64.463966 11.549498 
L 64.481168 12.68821 
L 64.558547 11.855573 
L 64.656419 10.711229 
L 64.812983 13.088953 
L 65.104529 6.399787 
L 65.125554 8.07383 
L 65.358674 9.150157 
L 65.376968 10.338891 
L 65.512915 11.07987 
L 65.651902 8.781556 
L 65.922396 12.071023 
L 66.101048 8.870475 
L 66.183738 8.504067 
L 66.331997 9.527201 
L 66.526815 14.67494 
L 66.585711 14.385374 
L 66.681499 12.756006 
L 66.865097 15.404148 
L 66.973917 15.343627 
L 67.071161 12.437256 
L 67.151224 11.491675 
L 67.305184 11.933975 
L 67.519321 14.353113 
L 67.680223 12.893784 
L 67.733739 12.920498 
L 67.836688 13.769984 
L 67.889406 13.336608 
L 67.968296 11.194282 
L 68.041385 12.458086 
L 68.158368 12.823607 
L 68.430956 11.23348 
L 68.606096 11.770977 
L 68.683744 12.278216 
L 68.761921 12.178325 
L 68.936731 11.143421 
L 69.01559 10.660667 
L 69.073631 11.116681 
L 69.248114 10.254726 
L 69.326322 10.372462 
L 69.425739 10.601143 
L 69.57887 12.357791 
L 69.735566 10.774637 
L 69.891536 12.986241 
L 70.047294 15.674281 
L 70.205012 14.509325 
L 70.360705 12.634661 
L 70.534667 14.224027 
L 70.690068 10.092183 
L 70.825387 9.606763 
L 70.844679 8.607783 
L 70.944059 9.423586 
L 71.110011 9.715878 
L 71.110337 9.365228 
L 71.205726 11.208179 
L 71.574704 6.882142 
L 71.767818 4.101144 
L 71.904171 4.503119 
L 72.059898 5.403207 
L 72.312945 9.274685 
L 72.409858 11.315033 
L 72.546052 15.353098 
L 72.759341 14.171359 
L 72.935973 14.842767 
L 73.031259 13.919004 
L 73.113881 14.082616 
L 73.188496 13.661922 
L 73.343539 10.240877 
L 73.424679 9.895121 
L 73.577851 9.747562 
L 73.636271 8.449479 
L 73.679277 8.503024 
L 73.753158 8.827412 
L 73.908592 7.014142 
L 73.98731 7.063011 
L 74.163115 11.548116 
L 74.280722 12.113413 
L 74.299231 10.919704 
L 74.41501 10.744277 
L 74.473795 11.32845 
L 74.552564 10.919436 
L 74.629568 12.215818 
L 74.784991 12.885914 
L 74.903278 9.491712 
L 75.135191 10.955171 
L 75.21404 11.8289 
L 75.271707 11.281667 
L 75.448406 10.596024 
L 75.526898 9.966966 
L 75.641748 11.295759 
L 75.720392 11.012924 
L 75.778208 10.001006 
L 75.860005 10.409028 
L 75.93147 11.495826 
L 76.078872 7.664972 
L 76.257972 9.692733 
L 76.523977 13.22364 
L 76.640219 12.049912 
L 76.737905 12.320254 
L 76.89764 18.186621 
L 76.972381 16.799804 
L 77.050658 15.177992 
L 77.129726 15.209854 
L 77.211697 16.512407 
L 77.287041 15.651157 
L 77.538345 17.590174 
L 77.752648 17.583587 
L 77.771767 14.331673 
L 77.850535 16.810366 
L 77.986817 15.248661 
L 78.103495 12.287613 
L 78.181036 12.270108 
L 78.329259 11.986784 
L 78.415998 8.830632 
L 78.491799 10.453242 
L 78.511122 10.185469 
L 78.636902 9.142423 
L 78.672419 7.394528 
L 78.823574 10.148019 
L 78.902841 11.381277 
L 79.135215 10.989003 
L 79.350679 14.624693 
L 79.38959 14.733642 
L 79.547082 15.687166 
L 79.592881 15.340125 
L 79.624434 15.342488 
L 79.800387 14.152891 
L 79.900322 14.511084 
L 79.944063 15.267974 
L 80.112411 12.369078 
L 80.259097 12.979954 
L 80.423459 15.202803 
L 80.442686 14.464898 
L 80.569401 14.357843 
L 80.611767 14.429695 
L 81.008805 19.213572 
L 81.146999 16.721318 
L 81.242121 16.764973 
L 81.39837 14.17855 
L 81.577071 11.868612 
L 81.655048 11.500106 
L 81.717746 10.38309 
L 81.81032 10.431166 
L 81.966286 8.441117 
L 82.043815 9.018766 
L 82.283178 11.169857 
L 82.298408 8.521016 
L 82.376591 10.889762 
L 82.435902 10.930602 
L 82.553561 11.869275 
L 82.610779 10.73042 
L 82.786423 13.763349 
L 82.848394 13.1534 
L 82.94422 10.616895 
L 82.9608 12.147286 
L 83.097711 13.581564 
L 83.33323 10.742842 
L 83.528432 12.826022 
L 83.666775 11.383483 
L 83.722526 13.107861 
L 83.89917 11.907201 
L 83.996056 13.19118 
L 84.078013 12.813226 
L 84.132762 12.745029 
L 84.288983 10.820989 
L 84.429281 10.936448 
L 84.448431 11.181579 
L 84.548809 10.096327 
L 84.624035 10.294958 
L 84.703975 10.746165 
L 84.93464 8.881208 
L 85.422051 13.187885 
L 85.504627 12.838017 
L 85.57801 11.983169 
L 85.675468 12.229485 
L 85.83024 14.084903 
L 86.303823 8.687954 
L 86.456293 12.040289 
L 86.534009 11.867114 
L 86.650435 9.819748 
L 86.709147 10.117401 
L 86.883701 7.994981 
L 87.433123 14.468332 
L 87.654988 16.15435 
L 87.703333 15.773755 
L 88.072722 10.817903 
L 88.328564 9.656214 
L 88.424543 9.878281 
L 88.581079 12.27851 
L 88.716427 11.524964 
L 89.144125 13.308874 
L 89.223355 13.067585 
L 89.281034 12.28214 
L 89.457055 14.064171 
L 89.654734 12.544143 
L 89.854772 13.449111 
L 89.945318 13.97935 
L 90.006933 15.54344 
L 90.082451 15.272997 
L 90.277386 14.056172 
L 90.447934 15.666848 
L 90.579063 12.229526 
L 90.589575 12.504878 
L 90.682417 13.606394 
L 90.766375 13.696769 
L 90.941863 11.257231 
L 90.986034 12.557563 
L 91.155865 10.090549 
L 91.21394 10.106776 
L 91.370085 9.945223 
L 91.430683 10.725051 
L 91.470687 9.449172 
L 91.532946 9.454418 
L 91.704891 9.531051 
L 91.783791 8.676121 
L 91.859938 9.996044 
L 91.937641 9.565341 
L 92.016474 8.980569 
L 92.096559 10.202532 
L 92.192803 10.491873 
L 92.276161 12.14363 
L 92.347228 10.527574 
L 92.424321 11.003289 
L 92.588072 12.536616 
L 92.659191 12.411373 
L 92.748516 13.029741 
L 92.910835 12.712643 
L 92.990419 13.10855 
L 93.066011 11.368008 
L 93.149125 11.624786 
L 93.224564 12.409564 
L 93.474662 9.487745 
L 93.553558 9.704543 
L 93.63059 10.040154 
L 93.707966 8.954067 
L 93.78836 9.058591 
L 93.961667 12.783496 
L 94.117914 10.460998 
L 94.195754 10.491752 
L 94.351543 11.225725 
L 94.429051 10.949499 
L 94.605305 11.597317 
L 94.761601 9.78976 
L 94.838475 10.151914 
L 94.997038 12.398438 
L 95.169768 10.149902 
L 95.481155 9.049182 
L 95.568598 8.256203 
L 95.716293 9.398083 
L 95.795018 9.368401 
L 95.911456 12.13678 
L 95.967851 11.396197 
L 96.049251 9.672931 
L 96.220692 11.83307 
L 96.280581 10.994608 
L 96.366151 12.211893 
L 96.532908 9.997175 
L 96.610853 10.009388 
L 96.69096 9.707022 
L 96.845479 12.354812 
L 96.924017 12.069377 
L 97.021984 10.88638 
L 97.085054 11.13659 
L 97.178619 11.265538 
L 97.254705 12.538871 
L 97.334041 11.95033 
L 97.424095 12.317874 
L 97.430478 10.767202 
L 97.489763 11.026367 
L 97.665453 9.241407 
L 97.899767 11.365725 
L 97.958249 10.778094 
L 97.97832 11.27662 
L 98.057508 11.356237 
L 98.240016 12.614768 
L 98.330102 11.797701 
L 98.388099 12.008989 
L 98.466542 12.741149 
L 98.621866 10.869094 
L 98.699456 12.41743 
L 98.856517 10.931503 
L 98.976924 12.220891 
L 99.034792 11.655826 
L 99.115336 12.127096 
L 99.21092 14.722109 
L 99.26865 14.100876 
L 99.405189 14.063003 
L 99.502514 11.033181 
L 99.678215 11.118979 
L 99.756059 11.593287 
L 99.775662 10.818506 
L 100.010941 11.476493 
L 100.088562 10.754942 
L 100.108479 9.476093 
L 100.167865 10.202317 
L 100.536201 15.273079 
L 100.634843 14.494721 
L 100.732757 14.729177 
L 100.791529 13.347585 
L 100.809172 15.107048 
L 100.887937 15.319218 
L 101.06359 16.460583 
L 101.082543 14.897225 
L 101.198642 14.934487 
L 101.276076 11.683145 
L 101.35482 12.306847 
L 101.432563 10.958972 
L 101.550382 10.970225 
L 101.628335 11.689284 
L 101.646703 9.796684 
L 101.726712 10.95145 
L 101.82267 9.597133 
L 101.88071 10.815667 
L 101.978443 10.528368 
L 102.077192 11.768548 
L 102.192996 11.235338 
L 102.271771 12.52498 
L 102.329476 10.377526 
L 102.733931 13.620137 
L 102.795833 13.107032 
L 102.835136 12.914709 
L 102.971011 13.298217 
L 103.019584 13.073485 
L 103.087585 14.703842 
L 103.165766 15.935954 
L 103.245137 14.059013 
L 103.403146 15.666869 
L 103.458487 13.388846 
L 103.536413 14.19155 
L 103.616624 14.001114 
L 103.758606 13.951496 
L 103.780064 14.762214 
L 103.852845 13.398377 
L 104.025459 14.895498 
L 104.187603 13.305327 
L 104.259981 14.022171 
L 104.496629 11.94881 
L 104.647767 11.488024 
L 104.846188 9.243841 
L 104.922764 10.748737 
L 104.982142 10.40189 
L 105.077358 9.202113 
L 105.136627 10.091418 
L 105.294112 10.497608 
L 105.331475 11.482918 
L 105.544047 9.844405 
L 105.743431 10.567381 
L 105.805461 10.527082 
L 105.95288 12.541856 
L 106.032876 11.513873 
L 106.108783 11.77394 
L 106.153018 11.728489 
L 106.444478 13.785621 
L 106.637749 12.024567 
L 106.735177 11.3583 
L 106.755027 11.800477 
L 107.222332 16.632519 
L 107.263651 14.707429 
L 107.418462 16.59057 
L 107.591923 15.435956 
L 107.72849 14.512829 
L 107.812649 15.18542 
L 107.883765 13.947487 
L 108.040377 14.24344 
L 108.21469 12.704769 
L 108.372038 13.292753 
L 108.448599 13.14657 
L 108.740543 10.069768 
L 108.857525 11.439094 
L 109.189783 10.385015 
L 109.270029 9.751875 
L 109.463189 11.092176 
L 109.501548 10.765316 
L 109.579656 11.271525 
L 109.660442 11.234333 
L 109.745845 10.655805 
L 109.814397 10.950177 
L 109.950662 11.725556 
L 110.378209 8.989025 
L 111.029628 15.236186 
L 111.255649 15.488829 
L 111.33645 12.60901 
L 111.431508 12.154279 
L 111.597093 13.843891 
L 111.821242 11.891065 
L 111.995771 11.228097 
L 112.152432 13.027204 
L 112.23007 11.846571 
L 112.307543 12.01943 
L 112.717274 14.925341 
L 112.793561 14.909878 
L 112.950242 14.231054 
L 113.028397 15.10426 
L 113.141688 14.826782 
L 113.436297 11.637516 
L 113.518098 12.308321 
L 113.598629 12.040927 
L 113.672815 13.227943 
L 113.923195 11.734975 
L 114.00708 11.330368 
L 114.080317 11.563297 
L 114.157327 13.200513 
L 114.238009 13.059579 
L 114.39408 11.003638 
L 114.497026 10.870399 
L 114.645917 11.311104 
L 114.80138 11.066317 
L 114.899811 12.692571 
L 115.036951 9.757318 
L 115.135931 13.369062 
L 115.312079 12.107641 
L 115.367971 12.898704 
L 115.523699 12.157324 
L 115.608572 13.47043 
L 115.698645 12.447576 
L 115.782653 13.46503 
L 115.976053 11.744251 
L 116.103549 15.324119 
L 116.190559 14.410812 
L 116.326532 16.157359 
L 116.40449 15.687766 
L 116.55915 16.131029 
L 116.597794 14.916634 
L 116.668145 15.022005 
L 116.734683 14.677566 
L 116.967625 11.267011 
L 117.006693 12.279398 
L 117.107212 12.473748 
L 117.222495 10.642131 
L 117.482938 11.843725 
L 117.631206 14.035549 
L 117.708676 14.064959 
L 117.786381 15.144655 
L 117.999832 13.032552 
L 118.043654 13.663405 
L 118.176325 11.846946 
L 118.273731 11.055769 
L 118.352326 9.107323 
L 118.508348 9.947746 
L 118.60683 8.255436 
L 118.742616 9.325688 
L 118.761838 10.838775 
L 118.977586 12.614047 
L 119.150944 15.212447 
L 119.238237 14.874013 
L 119.306522 15.160445 
L 119.387154 16.112037 
L 119.517663 15.454283 
L 119.564956 15.844961 
L 119.639298 14.715562 
L 119.716072 14.784011 
L 119.794302 15.08706 
L 119.988574 14.327747 
L 120.242683 11.573566 
L 120.300782 13.170844 
L 120.359921 12.949723 
L 120.613994 9.864023 
L 120.865936 12.386242 
L 120.986208 13.72511 
L 121.021356 16.367699 
L 121.040705 14.534735 
L 121.138473 13.313149 
L 121.164394 11.37057 
L 121.333051 14.377778 
L 121.414466 14.141327 
L 121.8004 7.491595 
L 121.896872 8.025323 
L 121.974361 9.318944 
L 122.071906 8.994303 
L 122.149808 9.327986 
L 122.326672 8.77393 
L 122.619701 12.935923 
L 122.699337 12.89613 
L 122.814057 12.900656 
L 122.85255 13.987457 
L 123.028463 12.945104 
L 123.203057 14.444648 
L 123.456829 12.664496 
L 123.497843 13.126034 
L 123.670899 10.59355 
L 123.748522 11.06328 
L 123.906059 11.688963 
L 123.994587 10.890425 
L 124.065296 11.362374 
L 124.109418 11.331073 
L 124.170724 11.628946 
L 124.332027 8.327824 
L 124.468046 10.564202 
L 124.583776 8.339828 
L 124.642526 9.183116 
L 124.799049 10.36519 
L 124.900058 9.645468 
L 124.973957 10.469756 
L 125.129918 14.036272 
L 125.208767 13.857339 
L 125.305728 13.130382 
L 125.486226 14.641261 
L 125.523755 13.357597 
L 125.598994 14.7434 
L 125.774008 13.205742 
L 125.957514 14.587996 
L 126.047854 14.635954 
L 126.086576 15.232001 
L 126.268025 13.254082 
L 126.537702 14.954964 
L 126.667845 14.51678 
L 126.894994 12.920639 
L 126.933424 13.288576 
L 127.046216 16.113919 
L 127.199907 16.85478 
L 127.377066 17.254954 
L 127.454875 16.619697 
L 127.531924 16.89517 
L 127.785239 15.9881 
L 127.843529 16.082611 
L 128.196252 13.966187 
L 128.489992 15.270571 
L 128.586943 15.101382 
L 128.940141 9.507683 
L 128.978482 10.556969 
L 129.056128 10.296074 
L 129.154196 8.958835 
L 129.230984 10.236417 
L 129.292202 8.962097 
L 129.426346 8.998781 
L 129.699486 14.503096 
L 129.776907 12.003114 
L 129.859272 12.841477 
L 129.953849 13.811883 
L 130.030829 12.74983 
L 130.194511 13.426724 
L 130.273216 12.815201 
L 130.42025 13.150192 
L 130.458857 13.005939 
L 130.517344 11.285185 
L 130.61629 13.037007 
L 130.676345 12.505808 
L 130.832504 10.813825 
L 130.930395 10.475245 
L 130.988074 10.593969 
L 131.109332 10.398313 
L 131.241234 8.771803 
L 131.377074 8.852817 
L 131.494697 6.680368 
L 131.629916 9.467767 
L 131.707902 9.925621 
L 131.785907 9.095932 
L 131.883292 10.557588 
L 131.980049 10.249963 
L 132.082061 9.491633 
L 132.271262 13.342679 
L 132.350279 12.282186 
L 132.430875 12.35062 
L 132.525234 12.128573 
L 132.617769 12.931976 
L 132.68083 12.105112 
L 132.855765 14.356125 
L 132.934219 14.144315 
L 133.03229 14.30095 
L 133.173654 11.557846 
L 133.284123 11.777995 
L 133.361659 11.783484 
L 133.498417 10.176393 
L 133.600313 10.232034 
L 133.765148 6.902973 
L 133.870065 6.554359 
L 133.888116 7.845152 
L 134.024412 9.375513 
L 134.063932 8.316007 
L 134.141856 8.974593 
L 134.239341 8.818856 
L 134.316868 8.329617 
L 134.394372 9.050461 
L 134.550283 12.384717 
L 134.612677 12.8106 
L 134.844817 11.896391 
L 134.941668 13.687671 
L 134.959197 13.28229 
L 135.096131 15.670529 
L 135.252682 14.249016 
L 135.508404 15.497176 
L 135.58337 15.384483 
L 135.662972 15.513892 
L 135.75553 15.168048 
L 135.832766 14.149188 
L 135.930589 14.231003 
L 135.972997 14.688687 
L 136.241745 10.876553 
L 136.379131 11.737892 
L 136.458556 10.524624 
L 136.474462 10.736854 
L 136.59077 10.882562 
L 136.712182 12.192022 
L 136.727005 11.102583 
L 136.786328 12.421725 
L 136.886219 14.257831 
L 136.982991 13.987641 
L 137.040056 14.193658 
L 137.117384 13.752019 
L 137.292618 14.233943 
L 137.357671 13.469328 
L 137.430638 14.292149 
L 137.60878 12.419575 
L 137.669223 12.233059 
L 137.94076 14.240201 
L 138.019814 12.967512 
L 138.152803 15.337111 
L 138.231657 14.303015 
L 138.328512 14.613599 
L 138.524357 12.818455 
L 138.601088 13.161319 
L 138.756883 12.801793 
L 138.83516 12.251631 
L 139.034429 7.253779 
L 139.28448 10.91733 
L 139.537183 8.230318 
L 139.87047 11.492728 
L 139.927742 10.565137 
L 140.086585 9.441988 
L 140.186504 10.471026 
L 140.199862 9.373916 
L 140.571561 12.926454 
L 140.64939 13.693763 
L 140.785595 13.117907 
L 140.847081 13.924308 
L 140.904268 13.700469 
L 141.099505 11.26399 
L 141.150193 11.770582 
L 141.215369 11.900822 
L 141.409441 11.261258 
L 141.622934 8.367347 
L 141.857308 10.73694 
L 141.934862 10.93591 
L 142.032267 11.766006 
L 142.132161 11.203801 
L 142.187935 11.236447 
L 142.423991 14.005258 
L 142.500051 13.330512 
L 142.581032 13.65773 
L 142.830877 12.117166 
L 142.986508 12.976431 
L 143.181156 12.123015 
L 143.337549 11.313077 
L 143.421002 9.645853 
L 144.328005 14.481905 
L 144.348383 13.381772 
L 144.43796 14.751878 
L 144.542607 14.631847 
L 144.679344 13.254406 
L 144.758601 15.005297 
L 144.854124 13.965537 
L 145.07751 16.916779 
L 145.185387 16.98755 
L 145.352612 14.540934 
L 145.431373 15.59015 
L 145.469716 14.757393 
L 145.569263 12.935324 
L 145.663885 14.665857 
L 145.742864 14.230986 
L 145.897022 12.196924 
L 146.035499 13.270033 
L 146.210381 10.671062 
L 146.229189 11.406104 
L 146.290206 11.720513 
L 146.368959 11.257163 
L 146.526634 9.067212 
L 146.639321 10.529301 
L 146.761487 8.363644 
L 147.069309 13.172138 
L 147.207402 11.859903 
L 147.32315 11.95273 
L 147.420268 9.553073 
L 147.498556 10.720298 
L 147.654001 12.373498 
L 147.732139 12.343736 
L 147.888558 11.508782 
L 148.063983 12.058561 
L 148.189063 12.42981 
L 148.297487 12.251929 
L 148.472488 7.344427 
L 148.551937 7.7092 
L 148.628828 7.521012 
L 148.729238 9.010891 
L 148.849026 8.578481 
L 148.902337 8.829348 
L 149.212527 15.108824 
L 149.293594 15.184167 
L 149.661435 12.884445 
L 149.740562 12.723707 
L 149.929159 13.892648 
L 150.187395 11.284871 
L 150.343564 13.223101 
L 150.439938 13.164301 
L 150.47927 12.506911 
L 150.635404 13.065166 
L 150.770717 11.934075 
L 150.795985 10.763987 
L 150.906282 11.210577 
L 150.947706 12.271285 
L 151.122509 9.711773 
L 151.201181 10.240524 
L 151.27845 11.290038 
L 151.435366 9.920375 
L 151.60172 12.081061 
L 151.779136 8.064671 
L 151.87297 9.014633 
L 152.029769 11.034563 
L 152.320581 8.292536 
L 152.40049 8.579686 
L 152.573799 13.353493 
L 152.789052 12.130435 
L 152.808688 12.174244 
L 152.886766 12.061614 
L 153.139349 13.867228 
L 153.374102 11.412052 
L 153.455842 11.530754 
L 153.567963 11.224496 
L 153.626862 10.120994 
L 153.704801 10.230842 
L 153.783236 10.811437 
L 153.881341 8.847365 
L 153.937961 9.940084 
L 154.326939 13.083352 
L 154.446975 13.356104 
L 154.522067 14.50935 
L 154.580207 13.528603 
L 154.696781 15.261206 
L 154.794574 14.890565 
L 154.912545 13.136199 
L 155.013988 13.182556 
L 155.145622 12.302261 
L 155.225878 12.821484 
L 155.301335 12.155475 
L 155.399204 12.265571 
L 155.459316 13.453965 
L 155.536974 13.432416 
L 155.632824 13.354821 
L 155.711053 13.61805 
L 155.787856 13.227924 
L 156.105111 15.440082 
L 156.197023 16.108119 
L 156.2742 14.246292 
L 156.41457 14.014954 
L 156.527375 15.461004 
L 156.704056 13.677366 
L 156.75973 11.555689 
L 156.837679 12.569462 
L 156.916343 12.656026 
L 156.993473 11.995716 
L 157.075565 12.816425 
L 157.090278 10.375049 
L 157.168423 11.915671 
L 157.247065 11.908177 
L 157.324251 11.625777 
L 157.421626 11.689525 
L 157.848428 14.849551 
L 157.889284 14.723812 
L 158.044887 15.158896 
L 158.106362 13.927702 
L 158.16193 14.239634 
L 158.220265 15.353389 
L 158.451546 12.070723 
L 158.676188 9.853734 
L 158.850257 12.078876 
L 158.947685 11.853303 
L 159.161783 14.699009 
L 159.239312 14.276993 
L 159.336455 15.530681 
L 159.473563 15.605403 
L 159.515072 16.480833 
L 159.629021 16.211644 
L 159.651122 16.241757 
L 159.746473 16.68577 
L 159.8232 15.963344 
L 159.901231 16.918679 
L 159.981469 15.689693 
L 160.060038 15.856384 
L 160.295432 14.036624 
L 160.608447 9.437781 
L 160.977373 11.75897 
L 161.015154 11.426023 
L 161.132207 10.823654 
L 161.172431 9.716677 
L 161.251161 10.747049 
L 161.331418 10.717146 
L 161.425436 10.801827 
L 161.503634 10.623997 
L 161.658813 9.990847 
L 161.814174 10.346937 
L 161.989596 12.998028 
L 162.06804 12.614172 
L 162.146338 13.005468 
L 162.224277 14.723662 
L 162.386219 13.555884 
L 162.45821 13.469357 
L 162.538598 12.511041 
L 162.632758 13.690745 
L 162.710105 12.527939 
L 162.867372 14.767992 
L 163.029243 12.257427 
L 163.102747 12.596146 
L 163.121198 10.916233 
L 163.18403 12.618752 
L 163.277479 12.746598 
L 163.376491 13.416193 
L 163.434874 12.800529 
L 163.512076 13.33778 
L 163.668298 10.813023 
L 163.838954 11.168664 
L 163.921391 10.153789 
L 164.000163 10.400198 
L 164.158194 11.020466 
L 164.310546 9.015774 
L 164.389309 10.85189 
L 164.469276 10.17657 
L 164.721082 11.514095 
L 164.874099 9.983197 
L 165.113365 11.049549 
L 165.283916 9.813163 
L 165.458059 10.745868 
L 165.537002 11.07373 
L 165.653522 11.030651 
L 165.796376 9.827545 
L 165.917187 11.303181 
L 166.088834 12.957684 
L 166.273078 11.808208 
L 166.425644 12.735858 
L 166.482448 12.839769 
L 166.557392 12.668087 
L 166.651801 12.986516 
L 166.74943 14.379126 
L 166.812836 14.341932 
L 166.905616 14.731184 
L 167.314503 18.272027 
L 167.528494 17.950527 
L 167.705174 13.961405 
L 168.094768 9.945765 
L 168.190721 10.35383 
L 168.249696 9.279762 
L 168.34704 10.153389 
L 168.443232 10.138644 
L 168.502713 10.429141 
L 168.60096 10.342671 
L 168.754957 10.687678 
L 168.832769 11.417956 
L 169.074391 10.149724 
L 169.163395 10.562278 
L 169.241137 9.616649 
L 169.319394 10.401403 
L 169.534488 9.876352 
L 169.708976 11.583152 
L 169.867897 11.045747 
L 169.884596 12.462514 
L 169.962478 11.758193 
L 170.05882 11.580773 
L 170.1192 10.957928 
L 170.195044 11.196965 
L 170.274091 11.334391 
L 170.429626 10.445975 
L 170.561895 10.550879 
L 170.701722 12.474167 
L 170.857498 15.106653 
L 170.935742 14.28536 
L 171.013171 14.270408 
L 171.247566 15.462997 
L 171.42932 13.024349 
L 171.481265 11.294067 
L 171.579319 11.51411 
L 171.643891 10.859612 
L 171.735174 11.19097 
L 171.993885 13.751846 
L 172.149256 13.45781 
L 172.26711 13.710296 
L 172.285657 14.500441 
L 172.447637 12.698135 
L 172.642285 13.659871 
L 172.857501 10.38626 
L 173.322676 14.226098 
L 173.460186 11.682431 
L 173.499944 11.827559 
L 173.576644 12.799338 
L 173.751333 11.970883 
L 173.911722 11.260735 
L 173.986284 11.799173 
L 174.064181 10.792192 
L 174.166066 12.582961 
L 174.393632 11.171837 
L 174.469613 13.12712 
L 174.544537 13.109601 
L 174.641473 13.112063 
L 174.719581 12.962374 
L 174.956848 11.474338 
L 175.012857 12.690143 
L 175.109407 12.668253 
L 175.225671 12.452747 
L 175.362088 10.662507 
L 175.712011 13.414383 
L 175.828461 14.414532 
L 175.908949 15.154586 
L 176.004766 14.435883 
L 176.082825 14.716159 
L 176.396728 13.005235 
L 176.511424 13.35242 
L 176.72519 10.988884 
L 176.80554 11.419526 
L 176.881494 10.713655 
L 177.037317 12.873072 
L 177.132041 11.674549 
L 177.256035 12.039532 
L 177.350176 10.212128 
L 177.372571 11.444465 
L 177.503962 10.493399 
L 177.561285 12.595963 
L 177.622063 12.532602 
L 177.701491 13.252823 
L 177.758707 11.843352 
L 177.836227 12.126994 
L 177.913548 12.786602 
L 178.010627 12.629649 
L 178.089287 14.241808 
L 178.16958 13.7758 
L 178.288516 13.9796 
L 178.421302 11.538189 
L 178.636963 12.574695 
L 178.654085 11.13432 
L 178.948343 10.172851 
L 179.028208 10.818678 
L 179.140315 14.546712 
L 179.221698 16.290023 
L 179.316996 15.502838 
L 179.376703 15.585426 
L 179.453558 15.337719 
L 179.591642 16.05642 
L 179.627931 14.94439 
L 179.686717 14.956791 
L 179.861973 12.830388 
L 180.095664 10.036831 
L 180.336579 10.523817 
L 180.504712 10.031114 
L 180.582752 10.565613 
L 180.660356 10.242845 
L 180.914136 12.809126 
L 180.975498 11.845385 
L 181.226497 13.615228 
L 181.383891 13.428442 
L 181.45995 14.024862 
L 181.617169 11.570511 
L 182.028464 8.873742 
L 182.107351 9.166747 
L 182.270387 8.778434 
L 182.355936 9.731916 
L 182.442763 9.232567 
L 182.74745 11.133245 
L 182.883965 11.117487 
L 183.019701 10.195348 
L 183.080343 11.062892 
L 183.1759 10.948768 
L 183.313592 9.967758 
L 183.487358 9.573311 
L 183.566113 11.056992 
L 183.799598 13.153793 
L 183.956003 11.54346 
L 183.980483 12.871633 
L 184.084456 11.576122 
L 184.161609 11.976253 
L 184.654712 8.600591 
L 184.693711 9.892046 
L 184.790411 9.737958 
L 184.870258 10.909331 
L 184.96964 10.563305 
L 185.083325 9.731469 
L 185.240225 8.480051 
L 185.512187 11.87105 
L 185.746901 13.083358 
L 186.075765 17.222196 
L 186.220487 16.17157 
L 186.372287 15.497739 
L 186.448947 16.965494 
L 186.562425 16.211527 
L 186.721971 14.342012 
L 186.778001 14.412791 
L 186.949158 14.373688 
L 186.955689 14.834457 
L 187.032061 14.705848 
L 187.10988 14.768985 
L 187.293565 12.973127 
L 187.366815 12.769325 
L 187.460977 14.56479 
L 187.597592 14.499787 
L 187.655904 15.137475 
L 187.696766 14.942903 
L 187.929223 13.189122 
L 188.145617 15.363541 
L 188.397507 14.345538 
L 188.552992 14.441318 
L 188.709991 17.106544 
L 188.883775 15.563896 
L 189.001493 15.205927 
L 189.139051 17.27242 
L 189.337396 15.992816 
L 189.370809 16.227725 
L 189.606403 17.986848 
L 189.916197 14.425173 
L 189.994136 13.97358 
L 190.169764 15.475963 
L 190.405655 12.675915 
L 190.421873 13.131627 
L 190.53903 13.231319 
L 191.026427 9.434407 
L 191.047356 8.691131 
L 191.182444 8.25381 
L 191.224731 9.182358 
L 191.29938 9.175101 
L 191.376389 9.281125 
L 191.4738 8.351282 
L 191.609445 10.393263 
L 191.687681 10.436323 
L 191.773851 10.202723 
L 191.933137 10.416792 
L 192.089842 10.034489 
L 192.104065 11.428124 
L 192.181067 10.223668 
L 192.262514 11.196487 
L 192.418482 8.666932 
L 192.546087 9.410632 
L 192.750169 9.656285 
L 192.94416 7.923568 
L 193.120818 8.453045 
L 193.142038 7.671166 
L 193.24212 8.174471 
L 193.300944 7.184244 
L 193.549393 8.318828 
L 193.619433 8.516438 
L 193.734349 7.039422 
L 193.878199 8.979909 
L 194.125684 14.700876 
L 194.223875 12.956797 
L 194.268128 13.306225 
L 194.36186 12.876224 
L 194.513103 14.294679 
L 194.59091 14.097286 
L 194.673632 13.202154 
L 194.921796 8.851029 
L 195.000559 10.452901 
L 195.272769 7.146139 
L 195.334142 7.754617 
L 195.466682 7.356141 
L 195.643997 8.961173 
L 195.797827 8.216727 
L 196.032306 12.50645 
L 196.129131 12.251011 
L 196.206467 12.055534 
L 196.284352 9.208177 
L 196.365936 10.471567 
L 196.439893 9.796663 
L 196.523226 10.513759 
L 196.758323 8.544616 
L 197.086933 13.573556 
L 197.123267 12.986813 
L 197.164194 12.953192 
L 197.243309 13.743182 
L 197.32192 12.988297 
L 197.573319 14.448977 
L 197.652173 13.692363 
L 197.730247 14.341598 
L 198.05019 12.279749 
L 198.217944 14.644768 
L 198.294657 14.59975 
L 198.371839 15.184896 
L 198.547048 11.738407 
L 198.609955 12.243031 
L 198.703618 12.350182 
L 198.80803 13.701058 
L 198.858408 13.299564 
L 199.347418 10.309915 
L 199.423488 11.253672 
L 199.578837 9.536292 
L 199.735143 10.036091 
L 199.851383 11.543673 
L 199.909798 10.243905 
L 199.973137 10.548099 
L 200.047293 11.438897 
L 200.222364 10.171301 
L 200.317828 10.535933 
L 200.456174 11.986137 
L 200.629818 11.433565 
L 200.720867 11.50132 
L 200.792 12.051885 
L 200.882854 11.453061 
L 201.09718 13.367133 
L 201.351463 11.09116 
L 201.468717 11.549262 
L 201.526949 10.975415 
L 201.761164 12.469742 
L 201.880233 12.422915 
L 201.899945 12.127071 
L 202.092358 12.951916 
L 202.709044 9.677346 
L 202.892821 11.202473 
L 202.979961 10.22826 
L 203.047587 10.657919 
L 203.360164 9.42216 
L 203.514302 9.767621 
L 203.611377 10.749011 
L 203.842597 8.773758 
L 204.0769 10.05099 
L 204.193399 8.765075 
L 204.251164 9.892912 
L 204.388148 8.407196 
L 204.467197 8.449362 
L 204.508753 8.603485 
L 204.583443 10.25346 
L 204.757776 10.270875 
L 205.010703 13.188223 
L 205.147578 14.85747 
L 205.279156 14.071338 
L 205.30806 14.18528 
L 205.47094 15.184068 
L 205.543696 14.265859 
L 205.675142 14.921922 
L 205.720229 14.544392 
L 205.775082 15.106097 
L 205.79176 13.37532 
L 205.850195 13.609232 
L 206.2626 11.335161 
L 206.34312 11.545029 
L 206.425 9.036338 
L 206.578751 9.390493 
L 206.909517 12.204245 
L 206.985825 12.273547 
L 207.063822 10.69823 
L 207.29667 13.414233 
L 207.375005 13.320695 
L 207.471985 10.472519 
L 207.61032 10.590351 
L 207.788315 7.691601 
L 207.880773 10.397544 
L 207.958756 10.202226 
L 208.114984 10.426561 
L 208.349113 12.924482 
L 208.406828 11.561138 
L 208.473615 11.589777 
L 208.650002 13.591612 
L 208.742723 12.611137 
L 208.807053 13.447537 
L 208.83982 12.171626 
L 208.937647 12.857912 
L 209.123683 12.174562 
L 209.249586 13.179353 
L 209.346114 12.512231 
L 209.587983 9.461645 
L 209.682691 9.903002 
L 209.755981 8.750004 
L 209.813896 9.198794 
L 209.893241 8.968157 
L 210.204679 10.933366 
L 210.551845 7.096321 
L 210.768683 6.055424 
L 210.846826 5.702134 
L 211.009609 7.444926 
L 211.177978 9.131344 
L 211.337851 12.719675 
L 211.499727 11.427449 
L 211.578579 12.408518 
L 211.664011 12.215184 
L 211.727477 12.439175 
L 212.034877 11.911241 
L 212.229906 13.517812 
L 212.328121 13.253929 
L 212.483024 11.592643 
L 212.541645 11.954529 
L 212.638692 12.018516 
L 212.775431 8.675589 
L 212.873 9.493572 
L 213.010736 9.08482 
L 213.087551 9.548746 
L 213.165383 8.404051 
L 213.360479 9.829961 
L 213.459081 9.532343 
L 213.594724 12.988133 
L 213.6708 11.734345 
L 213.748776 11.625408 
L 213.827607 11.954282 
L 213.924367 13.171816 
L 214.157148 12.090612 
L 214.296288 12.041628 
L 214.392307 12.98387 
L 214.450103 12.335678 
L 214.546711 13.011087 
L 214.741935 11.519115 
L 214.802632 12.038395 
L 214.880164 11.659132 
L 215.036273 13.085177 
L 215.150684 11.743879 
L 215.228511 12.729799 
L 215.305991 12.030649 
L 215.406704 13.235046 
L 215.46257 12.316313 
L 215.598177 12.829844 
L 215.77273 11.993038 
L 215.870126 11.715104 
L 215.93253 10.196694 
L 216.077324 9.966455 
L 216.281207 8.16808 
L 216.496606 9.472658 
L 216.671831 8.927316 
L 216.888698 12.975776 
L 217.050079 14.476649 
L 217.160304 13.78184 
L 217.218566 15.136066 
L 217.306343 14.862771 
L 217.375646 14.919597 
L 217.452808 15.163969 
L 217.766603 12.533451 
L 217.860784 12.614293 
L 217.938997 12.983248 
L 218.016519 12.582891 
L 218.113951 13.760008 
L 218.17246 13.375639 
L 218.256625 12.891531 
L 218.349075 13.375102 
L 218.452543 12.96943 
L 218.521612 13.370581 
L 218.580366 13.027544 
L 218.755073 13.93087 
L 218.931183 9.96391 
L 219.048564 9.940782 
L 219.069965 10.133572 
L 219.144421 10.049802 
L 219.300729 9.668519 
L 219.438793 9.766128 
L 219.556926 8.304914 
L 219.734598 10.432244 
L 219.973068 11.630041 
L 220.043375 11.981214 
L 220.120693 10.604774 
L 220.218339 10.699133 
L 220.354603 12.66974 
L 220.446262 12.305138 
L 220.529257 12.600729 
L 220.706817 11.656751 
L 220.768595 11.942269 
L 220.979571 14.42927 
L 220.998815 14.274751 
L 221.0758 12.370892 
L 221.212183 12.335972 
L 221.485142 15.435014 
L 221.564776 15.972093 
L 221.640986 14.493467 
L 221.717372 14.588474 
L 221.819227 14.49743 
L 221.873283 14.262942 
L 222.052216 12.355735 
L 222.146702 12.073 
L 222.204884 11.492536 
L 222.368656 8.006161 
L 222.47805 8.047019 
L 222.560375 7.943501 
L 222.769548 12.179408 
L 222.955779 11.685838 
L 223.178822 15.146226 
L 223.333664 14.507402 
L 223.567179 11.686188 
L 223.665236 12.750684 
L 223.742325 12.256566 
L 223.807029 12.852051 
L 223.898664 12.802007 
L 223.976835 12.657486 
L 224.054021 11.654987 
L 224.154837 12.420429 
L 224.308715 12.001016 
L 224.346447 12.133404 
L 224.387184 12.181822 
L 224.463884 11.68608 
L 224.658646 9.372954 
L 224.716271 9.43339 
L 224.814511 9.287231 
L 224.873335 9.736829 
L 224.935419 9.181187 
L 225.027072 9.312909 
L 225.183237 7.831982 
L 225.321253 8.175089 
L 225.3584 10.234836 
L 225.436814 9.374852 
L 225.506438 8.463447 
L 225.670384 10.711374 
L 225.767951 9.655529 
L 225.825957 10.128129 
L 225.981042 12.056651 
L 226.145962 9.693841 
L 226.234707 10.242438 
L 226.312017 11.638184 
L 226.448153 10.99825 
L 226.624963 12.672864 
L 226.705276 10.605846 
L 226.975736 12.656643 
L 227.269741 8.930655 
L 227.364344 8.43244 
L 227.520416 10.780013 
L 227.618264 10.44873 
L 227.773312 11.710362 
L 227.973804 10.387369 
L 228.084796 10.609796 
L 228.163649 12.234261 
L 228.240999 10.803701 
L 228.318542 11.204293 
L 228.558188 8.008521 
L 228.727963 10.82404 
L 228.806843 10.850974 
L 228.981065 9.266298 
L 229.061343 10.327523 
L 229.215468 9.542365 
L 229.3505 9.913503 
L 229.374537 10.638016 
L 229.468419 10.145382 
L 229.548106 9.391861 
L 229.68323 11.314521 
L 229.779639 10.23523 
L 229.857992 10.539364 
L 230.016258 11.56469 
L 230.092279 10.261076 
L 230.247182 10.69511 
L 230.501203 12.990867 
L 230.697128 14.439304 
L 230.763053 13.984877 
L 230.992652 15.713821 
L 231.167304 14.519674 
L 231.225311 14.613251 
L 231.398523 13.372772 
L 231.470072 12.470547 
L 231.556643 13.121959 
L 231.790701 11.355968 
L 231.87922 11.800294 
L 232.030184 11.187777 
L 232.206519 12.059779 
L 232.2653 10.62747 
L 232.370241 10.756226 
L 232.440183 10.171842 
L 232.517664 10.217878 
L 232.594489 10.004745 
L 232.730859 10.247552 
L 232.828012 9.17652 
L 232.925607 9.335808 
L 233.003541 9.845277 
L 233.063626 11.09047 
L 233.322132 8.90081 
L 233.400611 9.690859 
L 233.471618 9.563059 
L 233.569882 9.854481 
L 233.6373 10.944759 
L 233.941874 8.255132 
L 234.137023 11.879675 
L 234.195224 11.326622 
L 234.370554 12.427917 
L 234.390423 11.397464 
L 234.449985 12.170052 
L 234.682448 14.683554 
L 235.013755 12.245314 
L 235.173096 9.663174 
L 235.250291 9.701977 
L 235.503346 8.380192 
L 235.658647 9.746693 
L 235.736663 8.826233 
L 235.971892 12.579887 
L 236.171889 11.112462 
L 236.322396 12.726161 
L 236.400738 11.812703 
L 236.45955 12.141308 
L 236.662518 14.165967 
L 236.677327 13.360316 
L 236.700135 13.360291 
L 236.854985 12.952599 
L 237.011506 15.025721 
L 237.088229 14.679318 
L 237.341492 16.506788 
L 237.419567 16.235214 
L 237.497428 15.927007 
L 237.633535 16.510003 
L 237.671971 17.534975 
L 237.905358 15.625435 
L 238.082224 16.431112 
L 238.139466 14.849775 
L 238.238742 15.104874 
L 238.315422 15.844658 
L 238.510611 14.930067 
L 238.627035 15.673857 
L 238.704191 15.722251 
L 239.056336 11.114232 
L 239.181915 11.165677 
L 239.23028 11.358471 
L 239.508684 8.289634 
L 239.892362 10.442141 
L 239.954113 10.146113 
L 240.088653 8.924957 
L 240.148031 9.388137 
L 240.267943 8.966878 
L 240.517171 12.023016 
L 240.558507 9.214546 
L 240.694681 9.100486 
L 240.720729 8.570274 
L 240.970637 11.39305 
L 241.043965 10.323364 
L 241.12359 10.363511 
L 241.200375 10.470394 
L 241.2797 9.757797 
L 241.399183 10.494908 
L 241.543611 13.142718 
L 241.766965 11.849565 
L 241.919716 13.941757 
L 242.015123 12.41301 
L 242.093117 12.700672 
L 242.174047 12.936988 
L 242.189889 11.443811 
L 242.269253 11.496573 
L 242.406415 10.770667 
L 242.481958 11.14485 
L 242.581339 12.619366 
L 242.661294 12.777077 
L 242.735514 11.180134 
L 242.832416 12.022848 
L 242.98901 10.639097 
L 243.105663 11.094066 
L 243.378376 7.854212 
L 243.53548 7.662527 
L 243.812745 9.550638 
L 243.866178 9.862046 
L 243.943533 11.580753 
L 244.061231 11.362382 
L 244.180421 13.349615 
L 244.294603 12.228334 
L 244.3946 13.282394 
L 244.430627 12.483587 
L 244.547773 13.274959 
L 244.608742 14.544838 
L 244.668379 14.282031 
L 244.883055 15.618323 
L 244.967792 14.098882 
L 245.002459 15.045389 
L 245.155111 15.518062 
L 245.563881 13.062818 
L 245.64229 11.115421 
L 245.719857 11.437185 
L 245.799759 10.927757 
L 245.883054 12.826421 
L 245.954685 12.500573 
L 246.12857 12.989066 
L 246.361964 10.922325 
L 246.598299 10.320016 
L 246.714099 8.101588 
L 246.955511 9.417105 
L 247.016124 10.808619 
L 247.100586 9.629123 
L 247.111424 10.232833 
L 247.384896 13.507525 
L 247.423715 12.725536 
L 247.501324 14.282927 
L 247.640311 11.821956 
L 247.723144 12.616887 
L 247.812776 11.271107 
L 247.900423 11.920109 
L 248.360478 9.133408 
L 248.454702 9.715686 
L 248.535381 9.18368 
L 248.613445 9.28177 
L 248.710714 9.043381 
L 248.770123 9.222656 
L 248.846755 8.721572 
L 249.000234 8.88784 
L 249.178019 12.001829 
L 249.333781 11.621099 
L 249.431079 12.266575 
L 249.495512 11.324729 
L 249.512295 11.691131 
L 249.647704 13.859865 
L 249.664645 12.917448 
L 249.793416 12.871969 
L 249.822339 13.701962 
L 250.017755 10.551518 
L 250.155193 12.490552 
L 250.662529 10.111734 
L 250.718706 10.494514 
L 250.990335 9.174625 
L 251.048847 9.727764 
L 251.243827 8.260289 
L 251.282125 8.814326 
L 251.342857 8.815589 
L 251.420907 8.403202 
L 251.516257 6.459208 
L 252.302041 13.633852 
L 252.314859 14.993908 
L 252.393976 14.080259 
L 252.489839 13.009452 
L 252.548801 13.969601 
L 252.89874 9.713917 
L 252.961462 9.989038 
L 253.034968 9.493288 
L 253.133389 9.513077 
L 253.33368 11.750283 
L 253.366652 10.194796 
L 253.463662 10.612368 
L 253.602563 12.981544 
L 253.930531 10.155077 
L 254.009377 10.499597 
L 254.106305 9.799486 
L 254.165976 9.981673 
L 254.241501 11.431076 
L 254.36667 10.201487 
L 254.485121 10.971569 
L 254.511467 12.179426 
L 254.576784 11.659928 
L 254.732702 13.243792 
L 254.812409 11.526613 
L 254.890096 11.806765 
L 254.96879 12.505324 
L 255.094677 11.025906 
L 255.130417 11.84365 
L 255.299823 11.409739 
L 255.377231 12.340683 
L 255.535056 11.182393 
L 255.613306 12.802474 
L 255.710038 11.840315 
L 255.787106 12.369316 
L 255.923928 12.42358 
L 256.124423 11.337994 
L 256.219002 11.354942 
L 256.333815 12.290935 
L 256.411397 12.338782 
L 256.491668 13.554496 
L 256.586916 12.411883 
L 256.664271 12.62697 
L 256.761081 12.659434 
L 256.847319 12.223613 
L 256.898973 14.045469 
L 256.980006 13.395742 
L 257.075059 13.145937 
L 257.152263 13.824011 
L 257.249639 13.281284 
L 257.38453 11.542131 
L 258.053552 5.789028 
L 258.205854 8.446495 
L 258.347828 10.300391 
L 258.461249 10.875462 
L 258.555902 9.678146 
L 258.595522 10.086081 
L 258.906444 15.920094 
L 259.061312 14.207822 
L 259.328342 16.312345 
L 259.490519 14.26723 
L 259.723812 10.124211 
L 259.802554 11.032991 
L 259.881597 8.664489 
L 259.976883 8.8432 
L 260.075097 9.012946 
L 260.134583 7.494086 
L 260.193829 9.55086 
L 260.211675 8.437066 
L 260.288869 7.923762 
L 260.548459 9.245401 
L 260.702301 8.597312 
L 260.719166 10.318414 
L 260.781827 9.594934 
L 260.84117 8.861833 
L 260.933663 11.404129 
L 261.012167 10.539454 
L 261.217681 11.830332 
L 261.35194 10.576429 
L 261.411957 11.216875 
L 261.489532 11.07692 
L 261.665779 12.391299 
L 261.741656 11.467177 
L 261.905953 11.971321 
L 261.982096 11.819803 
L 262.115241 13.117448 
L 262.208795 10.916307 
L 262.325986 10.924329 
L 262.522086 12.328763 
L 262.561113 12.381403 
L 262.620109 11.362149 
L 262.777652 12.597313 
L 262.911291 12.679993 
L 263.06708 15.593871 
L 263.183418 15.763942 
L 263.262216 14.788388 
L 263.33998 13.400219 
L 263.42136 14.49107 
L 263.529862 13.403669 
L 263.671245 14.523008 
L 263.751108 14.049005 
L 263.98797 12.067691 
L 264.158784 14.086473 
L 264.474831 9.636276 
L 264.645503 10.977875 
L 264.711052 10.072317 
L 264.82673 10.081699 
L 264.879658 7.727749 
L 264.95683 8.208579 
L 265.195391 9.56847 
L 265.290443 9.340898 
L 265.3664 9.268414 
L 265.600202 11.077152 
L 265.778674 12.391006 
L 265.853403 12.808521 
L 265.871254 12.620741 
L 265.930807 11.829929 
L 265.988751 11.904972 
L 266.163712 12.379967 
L 266.261796 12.422481 
L 266.319967 12.227841 
L 266.39789 12.75647 
L 266.572796 12.097984 
L 266.652721 13.055841 
L 266.72768 13.018276 
L 266.981859 14.824932 
L 267.039901 14.49147 
L 267.181851 14.559502 
L 267.294156 13.621818 
L 267.583913 12.162157 
L 267.60564 12.506404 
L 267.683493 12.138604 
L 267.779722 10.317507 
L 267.936564 11.157786 
L 268.095728 9.92651 
L 268.367568 11.107751 
L 268.523615 10.332095 
L 268.581565 11.543664 
L 268.836341 9.016073 
L 268.932793 10.312999 
L 269.070635 9.072693 
L 269.303623 10.4251 
L 269.538126 12.393488 
L 269.57698 11.93194 
L 269.771351 12.692468 
L 269.84882 12.877846 
L 270.102675 10.598693 
L 270.261027 9.708906 
L 270.35534 10.596278 
L 270.43327 10.340649 
L 270.590555 9.279291 
L 270.668714 9.471133 
L 270.765842 10.44799 
L 270.824134 9.886823 
L 270.900789 11.148398 
L 271.015957 10.718768 
L 271.157866 9.776966 
L 271.288252 9.632973 
L 271.463228 13.720051 
L 271.540709 13.969017 
L 271.579652 12.547934 
L 271.661733 12.559914 
L 271.794322 10.487951 
L 272.054628 12.042878 
L 272.281237 7.827094 
L 272.455452 8.531289 
L 272.533527 8.652795 
L 272.673053 10.818923 
L 272.924102 9.404011 
L 273.351655 12.77854 
L 273.450481 11.558475 
L 273.487851 12.157334 
L 273.599801 13.119309 
L 273.64518 12.880562 
L 273.728026 12.425723 
L 273.89265 14.852156 
L 273.976049 12.523203 
L 274.052886 13.078033 
L 274.137551 12.732166 
L 274.206623 12.832845 
L 274.304605 11.050796 
L 274.363315 11.655456 
L 274.556977 13.715156 
L 274.733314 9.311714 
L 274.774732 11.854879 
L 274.986578 10.11604 
L 275.024335 10.942371 
L 275.103257 10.509837 
L 275.258258 9.07191 
L 275.336702 9.206151 
L 275.420753 9.212492 
L 275.494626 10.264991 
L 275.569557 9.7975 
L 275.669239 9.563571 
L 275.979812 12.848352 
L 276.057125 13.229392 
L 276.1529 12.548694 
L 276.232278 13.812397 
L 276.309425 13.691418 
L 276.464839 15.397408 
L 276.627736 13.087701 
L 276.698964 13.326463 
L 276.799015 13.464173 
L 276.952727 12.762118 
L 277.185025 11.736954 
L 277.41966 12.912545 
L 277.671284 11.502479 
L 277.829153 11.955202 
L 278.080812 10.756655 
L 278.160384 11.406206 
L 278.238883 11.071351 
L 278.392717 9.456929 
L 278.550513 11.688871 
L 278.627616 10.646118 
L 278.883249 12.375669 
L 279.037117 9.853669 
L 279.137746 10.989905 
L 279.231931 10.803117 
L 279.350622 8.992951 
L 279.445425 9.660642 
L 279.54411 8.965265 
L 279.602933 7.227647 
L 279.718539 7.544273 
L 279.840635 9.697672 
L 279.933579 9.203571 
L 280.166941 10.732313 
L 280.244333 9.619824 
L 280.33592 10.003423 
L 280.342961 13.121514 
L 280.41977 10.666506 
L 280.731523 11.648608 
L 280.886516 11.876208 
L 280.983624 10.213875 
L 281.043119 10.566074 
L 281.218324 11.615179 
L 281.393368 10.569529 
L 281.531037 12.805609 
L 281.665353 12.413323 
L 281.937633 15.394343 
L 281.997577 14.24642 
L 282.035541 15.125397 
L 282.172938 15.688459 
L 282.366122 13.342352 
L 282.424951 13.807272 
L 282.584057 12.316033 
L 282.669681 13.041918 
L 282.7377 12.730712 
L 282.817426 12.546414 
L 282.911842 11.132412 
L 283.067963 11.366622 
L 283.133515 10.252794 
L 283.170321 11.584988 
L 283.224779 11.180324 
L 283.362375 12.327031 
L 283.400107 12.121949 
L 283.485416 11.761256 
L 283.635058 13.164361 
L 283.739685 13.906752 
L 283.8092 12.830715 
L 283.908747 12.923431 
L 283.94568 12.667997 
L 284.083055 13.113405 
L 284.103469 12.940667 
L 284.354333 14.390207 
L 284.433535 14.40614 
L 284.686087 15.398254 
L 284.842183 12.927892 
L 284.939682 12.602226 
L 285.075689 9.543229 
L 285.328601 6.409752 
L 285.465738 6.583672 
L 285.640266 9.92917 
L 285.661097 9.717471 
L 285.737904 9.196041 
L 285.971035 11.961718 
L 286.049044 11.779171 
L 286.139338 12.198777 
L 286.22398 13.80683 
L 286.244573 13.550824 
L 286.382414 9.750329 
L 286.440484 10.256583 
L 286.536166 12.163109 
L 286.613976 11.366157 
L 286.867641 13.015003 
L 286.926377 12.276341 
L 287.277016 15.908681 
L 287.335104 13.865656 
L 287.413056 14.931136 
L 287.677571 10.463782 
L 287.770157 11.21314 
L 288.058289 9.026161 
L 288.156361 10.344595 
L 288.272095 9.185577 
L 288.388819 11.275614 
L 288.56749 13.303639 
L 288.704326 14.543507 
L 288.780206 14.021274 
L 289.033164 15.757058 
L 289.2666 11.413227 
L 289.352882 11.245971 
L 289.424366 10.835326 
L 289.696874 13.916496 
L 289.83179 12.346549 
L 290.064841 14.268098 
L 290.143786 13.06809 
L 290.220549 13.795713 
L 290.315537 13.608284 
L 290.392565 13.725026 
L 290.626925 10.269534 
L 290.800968 11.922629 
L 291.112847 9.077977 
L 291.189153 7.209682 
L 291.267236 7.817282 
L 291.441956 8.67829 
L 291.519801 8.516516 
L 291.678537 7.569818 
L 291.831853 10.337144 
L 291.910645 10.005748 
L 291.991448 11.58561 
L 292.085653 11.56188 
L 292.240167 12.514345 
L 292.320164 11.565269 
L 292.396146 11.915354 
L 292.554819 13.904602 
L 292.727109 13.614442 
L 292.805672 13.12379 
L 292.883465 13.89096 
L 292.969959 13.836007 
L 293.041591 14.210951 
L 293.124952 14.183674 
L 293.240594 14.307103 
L 293.447805 11.923333 
L 293.52572 12.974905 
L 293.876351 10.628768 
L 293.935259 11.055559 
L 294.013088 10.896677 
L 294.131518 10.377884 
L 294.250376 12.722111 
L 294.343569 11.956628 
L 294.616755 15.057266 
L 294.674563 14.266731 
L 294.773051 14.286976 
L 294.908508 12.321112 
L 295.046126 11.970416 
L 295.239999 12.288332 
L 295.408382 9.896577 
L 295.454113 10.015674 
L 295.56112 9.848167 
L 295.678732 10.954928 
L 295.71674 9.57551 
L 295.814543 9.700845 
L 296.028215 7.200748 
L 296.106383 7.040798 
L 296.183864 6.345385 
L 296.51587 11.216319 
L 296.593044 10.230557 
L 296.748906 10.744103 
L 297.001434 13.090214 
L 297.195829 11.486191 
L 297.352042 9.990513 
L 297.41045 11.270384 
L 297.566797 10.306531 
L 297.644732 10.911819 
L 297.723654 10.458143 
L 297.956016 10.872915 
L 298.131177 13.166556 
L 298.210078 11.991497 
L 298.441819 15.493401 
L 298.528096 14.588557 
L 298.607445 15.029376 
L 298.724845 13.965014 
L 298.765574 14.676511 
L 298.845618 14.169416 
L 298.925073 14.385261 
L 299.015923 15.757404 
L 299.250217 13.810173 
L 299.368642 14.294095 
L 299.449211 14.00677 
L 299.504072 14.942315 
L 299.562209 14.618762 
L 299.936449 10.753724 
L 299.971634 11.535881 
L 300.04917 9.742676 
L 300.225094 10.258162 
L 300.382026 7.156452 
L 300.501607 7.690202 
L 300.635221 8.818143 
L 300.701205 11.097923 
L 300.773152 9.784617 
L 300.849967 11.070046 
L 300.986788 10.30983 
L 301.164419 11.489055 
L 301.213494 12.125632 
L 301.279964 11.602873 
L 301.339651 11.464027 
L 301.571166 10.149402 
L 301.590567 10.520764 
L 301.903809 7.39303 
L 301.982754 7.965057 
L 302.07873 7.847829 
L 302.303007 8.330478 
L 302.394028 9.21035 
L 302.553548 9.537618 
L 302.58506 10.333379 
L 302.644236 9.791103 
L 302.802975 12.040386 
L 302.878092 11.705291 
L 302.96354 10.800911 
L 303.035111 11.154776 
L 303.221153 8.496952 
L 303.299308 9.092263 
L 303.447865 9.87243 
L 303.524765 9.792306 
L 303.604109 9.526751 
L 303.776447 11.372221 
L 303.912676 12.023611 
L 303.996238 13.144372 
L 304.165855 12.791354 
L 304.264271 12.044384 
L 304.419436 12.659358 
L 304.479675 11.610823 
L 304.617213 11.944794 
L 304.964928 9.765309 
L 305.04744 9.725895 
L 305.140271 9.974743 
L 305.377459 8.843239 
L 305.471929 8.978006 
L 305.588417 8.653004 
L 305.685865 11.072462 
L 305.767895 10.076602 
L 305.843329 10.97412 
L 305.93922 9.010238 
L 306.118683 11.494388 
L 306.174694 11.425264 
L 306.349518 14.090862 
L 306.407414 13.462013 
L 306.524379 13.078267 
L 306.601908 14.695531 
L 306.66435 14.04105 
L 306.759335 13.908361 
L 306.841846 12.209742 
L 307.049977 14.185471 
L 307.244135 11.492407 
L 307.577975 9.788012 
L 307.67882 11.712017 
L 307.770705 11.212907 
L 307.88694 11.521432 
L 307.945009 10.470993 
L 308.023999 11.707935 
L 308.129689 11.418237 
L 308.185684 10.819988 
L 308.262387 12.082059 
L 308.667248 9.080429 
L 308.763839 11.032546 
L 308.914023 10.527461 
L 308.922581 10.020148 
L 308.997719 11.309228 
L 309.075249 10.69574 
L 309.198832 10.709869 
L 309.3096 11.802492 
L 309.386939 11.809563 
L 309.484563 12.709751 
L 309.545397 12.232896 
L 309.642628 13.103666 
L 309.717824 15.08332 
L 309.796213 14.557995 
L 309.873852 13.652724 
L 309.954926 14.688225 
L 310.208232 11.328724 
L 310.424142 12.417372 
L 310.438731 12.30989 
L 310.614354 8.658183 
L 310.711837 8.629968 
L 310.769507 8.340257 
L 310.866988 9.333375 
L 311.006068 13.110272 
L 311.158485 12.631307 
L 311.256412 10.344302 
L 311.674915 15.865001 
L 311.769603 15.730062 
L 311.887606 16.894565 
L 312.043027 19.267762 
L 312.197228 18.638771 
L 312.296946 15.444837 
L 312.451718 14.690919 
L 312.511997 15.314833 
L 312.828619 9.437519 
L 313.114335 12.477938 
L 313.289311 10.66115 
L 313.413351 11.243156 
L 313.568164 14.051318 
L 313.781913 12.094317 
L 313.898954 10.083143 
L 314.065274 10.104777 
L 314.132723 10.08447 
L 314.231588 8.651901 
L 314.321496 7.215319 
L 314.390041 7.485564 
L 314.583681 8.234414 
L 314.738015 10.827675 
L 314.738164 15.004745 
L 314.803781 12.345213 
L 314.874545 12.202837 
L 314.971715 12.378974 
L 315.050016 12.123252 
L 315.284218 14.203117 
L 315.410015 14.688232 
L 315.441284 12.99775 
L 315.521244 13.041027 
L 315.829567 13.252766 
L 315.908345 14.346887 
L 315.949123 13.48677 
L 316.032199 13.695055 
L 316.179771 13.193697 
L 316.329701 11.971635 
L 316.45369 12.522781 
L 316.648333 11.200838 
L 316.881152 12.07866 
L 316.960116 12.23961 
L 317.133198 14.37007 
L 317.222398 13.567382 
L 317.290113 13.891407 
L 317.477976 14.953163 
L 317.543636 16.208926 
L 317.607142 16.644645 
L 317.699695 16.478224 
L 317.821639 15.257917 
L 317.894344 15.540089 
L 318.091732 16.294655 
L 318.243716 15.673916 
L 318.380506 15.836114 
L 318.574702 17.962333 
L 318.652763 16.141652 
L 318.788981 15.700012 
L 318.808818 16.224185 
L 318.889457 15.751415 
L 319.087356 15.500447 
L 319.374477 11.478886 
L 319.569187 13.036519 
L 319.782805 11.156663 
L 319.899908 10.740963 
L 320.196464 12.900734 
L 320.338764 10.323939 
L 320.444447 10.05964 
L 320.503367 10.8176 
L 320.619683 10.791859 
L 320.774959 10.24605 
L 321.145794 7.636993 
L 321.243404 7.589995 
L 321.311053 7.359551 
L 321.476878 8.895907 
L 321.632405 8.017449 
L 322.102824 15.403345 
L 322.193931 15.254791 
L 322.372741 13.372226 
L 322.499954 14.076015 
L 322.684655 10.894423 
L 322.781865 10.433304 
L 322.918545 7.377781 
L 323.035988 7.639492 
L 323.230592 9.54267 
L 323.328433 8.903131 
L 323.444909 9.064492 
L 323.52445 8.597974 
L 323.565656 8.768076 
L 323.814804 10.746033 
L 323.914281 10.728583 
L 323.989573 11.072648 
L 324.126393 10.73635 
L 324.360662 13.387037 
L 324.476927 11.992538 
L 324.535034 13.244507 
L 324.634352 12.098281 
L 324.690655 12.410538 
L 324.788414 12.416509 
L 324.849318 11.532097 
L 324.943674 12.586941 
L 325.026876 11.807026 
L 325.140458 11.964051 
L 325.216332 11.119072 
L 325.294189 12.447086 
L 325.372402 11.969828 
L 325.43077 12.40576 
L 325.508554 11.90227 
L 325.584749 12.462456 
L 325.684216 11.956037 
L 325.820108 10.024888 
L 325.962836 10.264535 
L 326.056794 11.12795 
L 326.229235 9.902836 
L 326.473082 11.82804 
L 326.541157 12.191447 
L 326.618411 13.226325 
L 326.813719 11.860895 
L 326.871589 9.469601 
L 327.050643 11.382064 
L 327.106383 11.121885 
L 327.18296 11.187721 
L 327.475678 13.178395 
L 327.68998 15.502004 
L 327.747974 15.371652 
L 328.204803 12.091098 
L 328.321931 9.937785 
L 328.48202 10.29499 
L 328.733976 9.024285 
L 328.832863 9.49005 
L 328.878659 10.629435 
L 329.123845 8.38339 
L 329.20316 8.353794 
L 329.437327 9.214224 
L 329.514248 8.846184 
L 329.610928 7.453705 
L 329.671644 7.621464 
L 330.000274 10.302968 
L 330.078312 9.837699 
L 330.234479 11.137261 
L 330.410802 11.717053 
L 330.487034 11.618675 
L 330.567699 11.751005 
L 330.726082 14.05224 
L 330.819615 13.418868 
L 330.897117 13.805367 
L 330.974209 12.805424 
L 331.051877 14.116788 
L 331.131199 13.701286 
L 331.227633 14.907466 
L 331.443918 12.608746 
L 331.539579 12.130545 
L 331.621627 13.657988 
L 331.803328 13.271086 
L 331.813054 13.377273 
L 331.852357 12.864983 
L 332.028985 13.28059 
L 332.184375 12.037227 
L 332.265775 11.500088 
L 332.343707 11.832176 
L 332.418128 10.698317 
L 332.496292 11.655229 
L 332.573654 11.245045 
L 332.653114 11.390422 
L 332.737003 11.869798 
L 332.89233 11.108141 
L 333.061069 12.138685 
L 333.139194 11.573126 
L 333.158574 10.430266 
L 333.217991 11.992699 
L 333.389471 9.723822 
L 333.549114 7.762486 
L 333.801396 9.113981 
L 333.999376 9.159614 
L 334.172715 9.255249 
L 334.269657 9.494394 
L 334.405192 10.290738 
L 334.701219 6.214112 
L 334.815016 7.16942 
L 334.911494 6.575574 
L 335.008547 9.184167 
L 335.164109 8.048373 
L 335.225891 9.019257 
L 335.323266 8.643026 
L 335.477152 11.617425 
L 335.574831 11.179799 
L 335.707809 11.286864 
L 335.78887 11.614701 
L 335.864524 13.637708 
L 335.962579 13.465471 
L 336.040755 12.737291 
L 336.119429 14.279797 
L 336.253682 14.089458 
L 336.293366 13.049578 
L 336.389843 13.136324 
L 336.45229 12.793809 
L 336.507823 11.69094 
L 336.636661 12.016511 
L 336.682761 11.420711 
L 336.878712 13.094887 
L 337.033842 12.645265 
L 337.112087 12.614341 
L 337.231591 12.20459 
L 337.383229 13.121766 
L 337.578616 10.726426 
L 337.660839 9.795582 
L 337.734605 9.923781 
L 337.812366 9.827881 
L 337.932876 11.147424 
L 338.127508 9.469955 
L 338.306784 11.303667 
L 338.459159 10.391112 
L 338.572783 10.95377 
L 338.746485 9.325277 
L 338.791568 10.184455 
L 338.873765 9.159863 
L 338.941926 10.206253 
L 339.058291 9.578392 
L 339.096905 8.564227 
L 339.351786 11.084817 
L 339.430255 9.423452 
L 339.545963 11.952825 
L 339.603679 10.845857 
L 339.669104 12.498134 
L 339.741108 12.262879 
L 339.818283 13.366077 
L 339.917044 13.320957 
L 339.9937 12.757867 
L 340.053696 11.306258 
L 340.151068 12.524259 
L 340.229497 12.124062 
L 340.303911 11.585688 
L 340.385528 12.89081 
L 340.460259 12.8708 
L 340.556924 12.702197 
L 340.621041 11.469219 
L 340.713266 12.287207 
L 340.791524 12.193203 
L 340.89147 12.307228 
L 341.142374 10.684938 
L 341.297694 11.871395 
L 341.615862 14.042084 
L 341.775967 13.815136 
L 341.916725 16.201174 
L 342.059796 15.876154 
L 342.07828 13.20227 
L 342.176152 14.286303 
L 342.236773 13.383249 
L 342.330633 13.634931 
L 342.525511 13.978986 
L 342.802619 11.542131 
L 342.915016 12.056135 
L 343.207164 10.248821 
L 343.342971 11.507744 
L 343.384288 11.494965 
L 343.446694 11.345233 
L 343.713103 14.404188 
L 343.772134 13.447619 
L 343.850334 13.900307 
L 344.103854 15.641853 
L 344.239856 15.492989 
L 344.414943 14.201997 
L 344.493636 12.62962 
L 344.650361 14.186771 
L 344.747386 12.356623 
L 344.806329 12.93838 
L 344.981437 12.350443 
L 345.369367 17.117731 
L 345.489237 14.855947 
L 345.547561 15.62388 
L 345.704805 14.745887 
L 345.785295 14.873924 
L 345.944014 13.285657 
L 346.018161 11.588295 
L 346.115464 11.858383 
L 346.286931 13.499002 
L 346.40773 13.905045 
L 346.508251 13.6257 
L 346.545985 13.9254 
L 346.662777 15.756126 
L 346.776773 15.129055 
L 346.837485 16.839843 
L 346.993174 14.797916 
L 347.167811 13.20311 
L 347.285298 14.850536 
L 347.338011 14.315766 
L 347.466483 12.841501 
L 347.556621 13.70259 
L 347.71974 13.004498 
L 347.946872 16.035215 
L 348.04352 16.504033 
L 348.209303 15.573242 
L 348.292495 15.311457 
L 348.306378 15.33889 
L 348.603478 12.531381 
L 348.696015 12.587293 
L 348.873158 11.159106 
L 348.93333 12.563897 
L 349.041431 12.318469 
L 349.320605 15.811755 
L 349.573499 13.97625 
L 349.651033 12.984732 
L 349.807444 14.029477 
L 349.884636 13.605286 
L 350.002562 14.011066 
L 350.060312 12.326769 
L 350.123131 12.564436 
L 350.293304 14.681949 
L 350.370957 14.227676 
L 350.495528 14.88787 
L 350.645668 12.375609 
L 350.859799 14.635177 
L 350.976666 14.353624 
L 351.046908 12.190939 
L 351.111472 12.21796 
L 351.190814 13.431326 
L 351.27293 11.804543 
L 351.522471 13.449677 
L 351.601439 13.99433 
L 351.736775 13.743429 
L 351.873357 13.209875 
L 351.911592 14.17517 
L 351.975379 12.992646 
L 352.028979 13.228392 
L 352.067561 14.599896 
L 352.174518 13.30576 
L 352.227346 13.892163 
L 352.381079 13.423147 
L 352.517995 12.220119 
L 352.621494 12.518411 
L 352.771351 12.342114 
L 352.810422 12.99307 
L 353.006022 11.921927 
L 353.082342 13.304477 
L 353.121832 12.573974 
L 353.166491 12.665361 
L 353.199453 14.207503 
L 353.280341 13.317261 
L 353.472764 14.273213 
L 353.530981 12.684716 
L 353.610808 14.46935 
L 353.66678 14.252219 
L 353.934601 11.053056 
L 354.023766 11.69527 
L 354.098991 10.830985 
L 354.486707 13.494502 
L 354.700857 16.865548 
L 354.71952 16.183413 
" clip-path="url(#p116b5e21d3)" style="fill: none; stroke: #ff0000; stroke-opacity: 0.5; stroke-width: 2.1; stroke-linecap: square"/>
   </g>
   <g id="patch_3">
    <path d="M 38.502813 148.36327 
L 38.502813 0.72 
" style="fill: none; stroke: #000000; stroke-width: 0.8; stroke-linejoin: miter; stroke-linecap: square"/>
   </g>
   <g id="patch_4">
    <path d="M 354.71952 148.36327 
L 354.71952 0.72 
" style="fill: none; stroke: #000000; stroke-width: 0.8; stroke-linejoin: miter; stroke-linecap: square"/>
   </g>
   <g id="patch_5">
    <path d="M 38.502813 148.36327 
L 354.71952 148.36327 
" style="fill: none; stroke: #000000; stroke-width: 0.8; stroke-linejoin: miter; stroke-linecap: square"/>
   </g>
   <g id="patch_6">
    <path d="M 38.502813 0.72 
L 354.71952 0.72 
" style="fill: none; stroke: #000000; stroke-width: 0.8; stroke-linejoin: miter; stroke-linecap: square"/>
   </g>
   <g id="legend_1">
    <g id="patch_7">
     <path d="M 45.502813 143.36327 
L 119.271563 143.36327 
Q 121.271563 143.36327 121.271563 141.36327 
L 121.271563 113.00702 
Q 121.271563 111.00702 119.271563 111.00702 
L 45.502813 111.00702 
Q 43.502813 111.00702 43.502813 113.00702 
L 43.502813 141.36327 
Q 43.502813 143.36327 45.502813 143.36327 
z
" style="fill: #ffffff; opacity: 0.8; stroke: #cccccc; stroke-linejoin: miter"/>
    </g>
    <g id="line2d_31">
     <path d="M 47.502813 119.105457 
L 57.502813 119.105457 
L 67.502813 119.105457 
" style="fill: none; stroke: #0000ff; stroke-opacity: 0.5; stroke-width: 2.1; stroke-linecap: square"/>
    </g>
    <g id="text_17">
     <!-- RNEA -->
     <g transform="translate(75.502813 122.605457) scale(0.1 -0.1)">
      <defs>
       <path id="DejaVuSans-52" d="M 2841 2188 
Q 3044 2119 3236 1894 
Q 3428 1669 3622 1275 
L 4263 0 
L 3584 0 
L 2988 1197 
Q 2756 1666 2539 1819 
Q 2322 1972 1947 1972 
L 1259 1972 
L 1259 0 
L 628 0 
L 628 4666 
L 2053 4666 
Q 2853 4666 3247 4331 
Q 3641 3997 3641 3322 
Q 3641 2881 3436 2590 
Q 3231 2300 2841 2188 
z
M 1259 4147 
L 1259 2491 
L 2053 2491 
Q 2509 2491 2742 2702 
Q 2975 2913 2975 3322 
Q 2975 3731 2742 3939 
Q 2509 4147 2053 4147 
L 1259 4147 
z
" transform="scale(0.015625)"/>
       <path id="DejaVuSans-45" d="M 628 4666 
L 3578 4666 
L 3578 4134 
L 1259 4134 
L 1259 2753 
L 3481 2753 
L 3481 2222 
L 1259 2222 
L 1259 531 
L 3634 531 
L 3634 0 
L 628 0 
L 628 4666 
z
" transform="scale(0.015625)"/>
       <path id="DejaVuSans-41" d="M 2188 4044 
L 1331 1722 
L 3047 1722 
L 2188 4044 
z
M 1831 4666 
L 2547 4666 
L 4325 0 
L 3669 0 
L 3244 1197 
L 1141 1197 
L 716 0 
L 50 0 
L 1831 4666 
z
" transform="scale(0.015625)"/>
      </defs>
      <use xlink:href="#DejaVuSans-52"/>
      <use xlink:href="#DejaVuSans-4e" x="69.482422"/>
      <use xlink:href="#DejaVuSans-45" x="144.287109"/>
      <use xlink:href="#DejaVuSans-41" x="207.470703"/>
     </g>
    </g>
    <g id="line2d_32">
     <path d="M 47.502813 133.783582 
L 57.502813 133.783582 
L 67.502813 133.783582 
" style="fill: none; stroke: #ff0000; stroke-opacity: 0.5; stroke-width: 2.1; stroke-linecap: square"/>
    </g>
    <g id="text_18">
     <!-- BURNEA -->
     <g transform="translate(75.502813 137.283582) scale(0.1 -0.1)">
      <defs>
       <path id="DejaVuSans-42" d="M 1259 2228 
L 1259 519 
L 2272 519 
Q 2781 519 3026 730 
Q 3272 941 3272 1375 
Q 3272 1813 3026 2020 
Q 2781 2228 2272 2228 
L 1259 2228 
z
M 1259 4147 
L 1259 2741 
L 2194 2741 
Q 2656 2741 2882 2914 
Q 3109 3088 3109 3444 
Q 3109 3797 2882 3972 
Q 2656 4147 2194 4147 
L 1259 4147 
z
M 628 4666 
L 2241 4666 
Q 2963 4666 3353 4366 
Q 3744 4066 3744 3513 
Q 3744 3084 3544 2831 
Q 3344 2578 2956 2516 
Q 3422 2416 3680 2098 
Q 3938 1781 3938 1306 
Q 3938 681 3513 340 
Q 3088 0 2303 0 
L 628 0 
L 628 4666 
z
" transform="scale(0.015625)"/>
       <path id="DejaVuSans-55" d="M 556 4666 
L 1191 4666 
L 1191 1831 
Q 1191 1081 1462 751 
Q 1734 422 2344 422 
Q 2950 422 3222 751 
Q 3494 1081 3494 1831 
L 3494 4666 
L 4128 4666 
L 4128 1753 
Q 4128 841 3676 375 
Q 3225 -91 2344 -91 
Q 1459 -91 1007 375 
Q 556 841 556 1753 
L 556 4666 
z
" transform="scale(0.015625)"/>
      </defs>
      <use xlink:href="#DejaVuSans-42"/>
      <use xlink:href="#DejaVuSans-55" x="68.603516"/>
      <use xlink:href="#DejaVuSans-52" x="141.796875"/>
      <use xlink:href="#DejaVuSans-4e" x="211.279297"/>
      <use xlink:href="#DejaVuSans-45" x="286.083984"/>
      <use xlink:href="#DejaVuSans-41" x="349.267578"/>
     </g>
    </g>
   </g>
  </g>
 </g>
 <defs>
  <clipPath id="p116b5e21d3">
   <rect x="38.502813" y="0.72" width="316.216707" height="147.64327"/>
  </clipPath>
 </defs>
</svg>
