<?xml version="1.0" encoding="utf-8" standalone="no"?>
<!DOCTYPE svg PUBLIC "-//W3C//DTD SVG 1.1//EN"
  "http://www.w3.org/Graphics/SVG/1.1/DTD/svg11.dtd">
<svg xmlns:xlink="http://www.w3.org/1999/xlink" width="355.43952pt" height="175.43952pt" viewBox="0 0 355.43952 175.43952" xmlns="http://www.w3.org/2000/svg" version="1.1">
 <metadata>
  <rdf:RDF xmlns:dc="http://purl.org/dc/elements/1.1/" xmlns:cc="http://creativecommons.org/ns#" xmlns:rdf="http://www.w3.org/1999/02/22-rdf-syntax-ns#">
   <cc:Work>
    <dc:type rdf:resource="http://purl.org/dc/dcmitype/StillImage"/>
    <dc:date>2023-09-09T18:29:47.659741</dc:date>
    <dc:format>image/svg+xml</dc:format>
    <dc:creator>
     <cc:Agent>
      <dc:title>Matplotlib v3.7.2, https://matplotlib.org/</dc:title>
     </cc:Agent>
    </dc:creator>
   </cc:Work>
  </rdf:RDF>
 </metadata>
 <defs>
  <style type="text/css">*{stroke-linejoin: round; stroke-linecap: butt}</style>
 </defs>
 <g id="figure_1">
  <g id="patch_1">
   <path d="M 0 175.43952 
L 355.43952 175.43952 
L 355.43952 0 
L 0 0 
L 0 175.43952 
z
" style="fill: none"/>
  </g>
  <g id="axes_1">
   <g id="patch_2">
    <path d="M 30.123125 148.36327 
L 354.71952 148.36327 
L 354.71952 0.72 
L 30.123125 0.72 
L 30.123125 148.36327 
z
" style="fill: none"/>
   </g>
   <g id="matplotlib.axis_1">
    <g id="xtick_1">
     <g id="line2d_1">
      <path d="M 30.123125 148.36327 
L 30.123125 0.72 
" clip-path="url(#p927119be05)" style="fill: none; stroke-dasharray: 0.8,1.32; stroke-dashoffset: 0; stroke: #000000; stroke-opacity: 0.5; stroke-width: 0.8"/>
     </g>
     <g id="line2d_2">
      <defs>
       <path id="mffa9e5e9c9" d="M 0 0 
L 0 3.5 
" style="stroke: #000000; stroke-width: 0.8"/>
      </defs>
      <g>
       <use xlink:href="#mffa9e5e9c9" x="30.123125" y="148.36327" style="stroke: #000000; stroke-width: 0.8"/>
      </g>
     </g>
     <g id="text_1">
      <!-- 0 -->
      <g transform="translate(26.941875 162.961707) scale(0.1 -0.1)">
       <defs>
        <path id="DejaVuSans-30" d="M 2034 4250 
Q 1547 4250 1301 3770 
Q 1056 3291 1056 2328 
Q 1056 1369 1301 889 
Q 1547 409 2034 409 
Q 2525 409 2770 889 
Q 3016 1369 3016 2328 
Q 3016 3291 2770 3770 
Q 2525 4250 2034 4250 
z
M 2034 4750 
Q 2819 4750 3233 4129 
Q 3647 3509 3647 2328 
Q 3647 1150 3233 529 
Q 2819 -91 2034 -91 
Q 1250 -91 836 529 
Q 422 1150 422 2328 
Q 422 3509 836 4129 
Q 1250 4750 2034 4750 
z
" transform="scale(0.015625)"/>
       </defs>
       <use xlink:href="#DejaVuSans-30"/>
      </g>
     </g>
    </g>
    <g id="xtick_2">
     <g id="line2d_3">
      <path d="M 79.702491 148.36327 
L 79.702491 0.72 
" clip-path="url(#p927119be05)" style="fill: none; stroke-dasharray: 0.8,1.32; stroke-dashoffset: 0; stroke: #000000; stroke-opacity: 0.5; stroke-width: 0.8"/>
     </g>
     <g id="line2d_4">
      <g>
       <use xlink:href="#mffa9e5e9c9" x="79.702491" y="148.36327" style="stroke: #000000; stroke-width: 0.8"/>
      </g>
     </g>
     <g id="text_2">
      <!-- 5 -->
      <g transform="translate(76.521241 162.961707) scale(0.1 -0.1)">
       <defs>
        <path id="DejaVuSans-35" d="M 691 4666 
L 3169 4666 
L 3169 4134 
L 1269 4134 
L 1269 2991 
Q 1406 3038 1543 3061 
Q 1681 3084 1819 3084 
Q 2600 3084 3056 2656 
Q 3513 2228 3513 1497 
Q 3513 744 3044 326 
Q 2575 -91 1722 -91 
Q 1428 -91 1123 -41 
Q 819 9 494 109 
L 494 744 
Q 775 591 1075 516 
Q 1375 441 1709 441 
Q 2250 441 2565 725 
Q 2881 1009 2881 1497 
Q 2881 1984 2565 2268 
Q 2250 2553 1709 2553 
Q 1456 2553 1204 2497 
Q 953 2441 691 2322 
L 691 4666 
z
" transform="scale(0.015625)"/>
       </defs>
       <use xlink:href="#DejaVuSans-35"/>
      </g>
     </g>
    </g>
    <g id="xtick_3">
     <g id="line2d_5">
      <path d="M 129.281857 148.36327 
L 129.281857 0.72 
" clip-path="url(#p927119be05)" style="fill: none; stroke-dasharray: 0.8,1.32; stroke-dashoffset: 0; stroke: #000000; stroke-opacity: 0.5; stroke-width: 0.8"/>
     </g>
     <g id="line2d_6">
      <g>
       <use xlink:href="#mffa9e5e9c9" x="129.281857" y="148.36327" style="stroke: #000000; stroke-width: 0.8"/>
      </g>
     </g>
     <g id="text_3">
      <!-- 10 -->
      <g transform="translate(122.919357 162.961707) scale(0.1 -0.1)">
       <defs>
        <path id="DejaVuSans-31" d="M 794 531 
L 1825 531 
L 1825 4091 
L 703 3866 
L 703 4441 
L 1819 4666 
L 2450 4666 
L 2450 531 
L 3481 531 
L 3481 0 
L 794 0 
L 794 531 
z
" transform="scale(0.015625)"/>
       </defs>
       <use xlink:href="#DejaVuSans-31"/>
       <use xlink:href="#DejaVuSans-30" x="63.623047"/>
      </g>
     </g>
    </g>
    <g id="xtick_4">
     <g id="line2d_7">
      <path d="M 178.861223 148.36327 
L 178.861223 0.72 
" clip-path="url(#p927119be05)" style="fill: none; stroke-dasharray: 0.8,1.32; stroke-dashoffset: 0; stroke: #000000; stroke-opacity: 0.5; stroke-width: 0.8"/>
     </g>
     <g id="line2d_8">
      <g>
       <use xlink:href="#mffa9e5e9c9" x="178.861223" y="148.36327" style="stroke: #000000; stroke-width: 0.8"/>
      </g>
     </g>
     <g id="text_4">
      <!-- 15 -->
      <g transform="translate(172.498723 162.961707) scale(0.1 -0.1)">
       <use xlink:href="#DejaVuSans-31"/>
       <use xlink:href="#DejaVuSans-35" x="63.623047"/>
      </g>
     </g>
    </g>
    <g id="xtick_5">
     <g id="line2d_9">
      <path d="M 228.440589 148.36327 
L 228.440589 0.72 
" clip-path="url(#p927119be05)" style="fill: none; stroke-dasharray: 0.8,1.32; stroke-dashoffset: 0; stroke: #000000; stroke-opacity: 0.5; stroke-width: 0.8"/>
     </g>
     <g id="line2d_10">
      <g>
       <use xlink:href="#mffa9e5e9c9" x="228.440589" y="148.36327" style="stroke: #000000; stroke-width: 0.8"/>
      </g>
     </g>
     <g id="text_5">
      <!-- 20 -->
      <g transform="translate(222.078089 162.961707) scale(0.1 -0.1)">
       <defs>
        <path id="DejaVuSans-32" d="M 1228 531 
L 3431 531 
L 3431 0 
L 469 0 
L 469 531 
Q 828 903 1448 1529 
Q 2069 2156 2228 2338 
Q 2531 2678 2651 2914 
Q 2772 3150 2772 3378 
Q 2772 3750 2511 3984 
Q 2250 4219 1831 4219 
Q 1534 4219 1204 4116 
Q 875 4013 500 3803 
L 500 4441 
Q 881 4594 1212 4672 
Q 1544 4750 1819 4750 
Q 2544 4750 2975 4387 
Q 3406 4025 3406 3419 
Q 3406 3131 3298 2873 
Q 3191 2616 2906 2266 
Q 2828 2175 2409 1742 
Q 1991 1309 1228 531 
z
" transform="scale(0.015625)"/>
       </defs>
       <use xlink:href="#DejaVuSans-32"/>
       <use xlink:href="#DejaVuSans-30" x="63.623047"/>
      </g>
     </g>
    </g>
    <g id="xtick_6">
     <g id="line2d_11">
      <path d="M 278.019954 148.36327 
L 278.019954 0.72 
" clip-path="url(#p927119be05)" style="fill: none; stroke-dasharray: 0.8,1.32; stroke-dashoffset: 0; stroke: #000000; stroke-opacity: 0.5; stroke-width: 0.8"/>
     </g>
     <g id="line2d_12">
      <g>
       <use xlink:href="#mffa9e5e9c9" x="278.019954" y="148.36327" style="stroke: #000000; stroke-width: 0.8"/>
      </g>
     </g>
     <g id="text_6">
      <!-- 25 -->
      <g transform="translate(271.657454 162.961707) scale(0.1 -0.1)">
       <use xlink:href="#DejaVuSans-32"/>
       <use xlink:href="#DejaVuSans-35" x="63.623047"/>
      </g>
     </g>
    </g>
    <g id="xtick_7">
     <g id="line2d_13">
      <path d="M 327.59932 148.36327 
L 327.59932 0.72 
" clip-path="url(#p927119be05)" style="fill: none; stroke-dasharray: 0.8,1.32; stroke-dashoffset: 0; stroke: #000000; stroke-opacity: 0.5; stroke-width: 0.8"/>
     </g>
     <g id="line2d_14">
      <g>
       <use xlink:href="#mffa9e5e9c9" x="327.59932" y="148.36327" style="stroke: #000000; stroke-width: 0.8"/>
      </g>
     </g>
     <g id="text_7">
      <!-- 30 -->
      <g transform="translate(321.23682 162.961707) scale(0.1 -0.1)">
       <defs>
        <path id="DejaVuSans-33" d="M 2597 2516 
Q 3050 2419 3304 2112 
Q 3559 1806 3559 1356 
Q 3559 666 3084 287 
Q 2609 -91 1734 -91 
Q 1441 -91 1130 -33 
Q 819 25 488 141 
L 488 750 
Q 750 597 1062 519 
Q 1375 441 1716 441 
Q 2309 441 2620 675 
Q 2931 909 2931 1356 
Q 2931 1769 2642 2001 
Q 2353 2234 1838 2234 
L 1294 2234 
L 1294 2753 
L 1863 2753 
Q 2328 2753 2575 2939 
Q 2822 3125 2822 3475 
Q 2822 3834 2567 4026 
Q 2313 4219 1838 4219 
Q 1578 4219 1281 4162 
Q 984 4106 628 3988 
L 628 4550 
Q 988 4650 1302 4700 
Q 1616 4750 1894 4750 
Q 2613 4750 3031 4423 
Q 3450 4097 3450 3541 
Q 3450 3153 3228 2886 
Q 3006 2619 2597 2516 
z
" transform="scale(0.015625)"/>
       </defs>
       <use xlink:href="#DejaVuSans-33"/>
       <use xlink:href="#DejaVuSans-30" x="63.623047"/>
      </g>
     </g>
    </g>
    <g id="text_8">
     <!-- Zeit [s] -->
     <g transform="translate(174.475229 172.639832) scale(0.1 -0.1)">
      <defs>
       <path id="DejaVuSans-5a" d="M 359 4666 
L 4025 4666 
L 4025 4184 
L 1075 531 
L 4097 531 
L 4097 0 
L 288 0 
L 288 481 
L 3238 4134 
L 359 4134 
L 359 4666 
z
" transform="scale(0.015625)"/>
       <path id="DejaVuSans-65" d="M 3597 1894 
L 3597 1613 
L 953 1613 
Q 991 1019 1311 708 
Q 1631 397 2203 397 
Q 2534 397 2845 478 
Q 3156 559 3463 722 
L 3463 178 
Q 3153 47 2828 -22 
Q 2503 -91 2169 -91 
Q 1331 -91 842 396 
Q 353 884 353 1716 
Q 353 2575 817 3079 
Q 1281 3584 2069 3584 
Q 2775 3584 3186 3129 
Q 3597 2675 3597 1894 
z
M 3022 2063 
Q 3016 2534 2758 2815 
Q 2500 3097 2075 3097 
Q 1594 3097 1305 2825 
Q 1016 2553 972 2059 
L 3022 2063 
z
" transform="scale(0.015625)"/>
       <path id="DejaVuSans-69" d="M 603 3500 
L 1178 3500 
L 1178 0 
L 603 0 
L 603 3500 
z
M 603 4863 
L 1178 4863 
L 1178 4134 
L 603 4134 
L 603 4863 
z
" transform="scale(0.015625)"/>
       <path id="DejaVuSans-74" d="M 1172 4494 
L 1172 3500 
L 2356 3500 
L 2356 3053 
L 1172 3053 
L 1172 1153 
Q 1172 725 1289 603 
Q 1406 481 1766 481 
L 2356 481 
L 2356 0 
L 1766 0 
Q 1100 0 847 248 
Q 594 497 594 1153 
L 594 3053 
L 172 3053 
L 172 3500 
L 594 3500 
L 594 4494 
L 1172 4494 
z
" transform="scale(0.015625)"/>
       <path id="DejaVuSans-20" transform="scale(0.015625)"/>
       <path id="DejaVuSans-5b" d="M 550 4863 
L 1875 4863 
L 1875 4416 
L 1125 4416 
L 1125 -397 
L 1875 -397 
L 1875 -844 
L 550 -844 
L 550 4863 
z
" transform="scale(0.015625)"/>
       <path id="DejaVuSans-73" d="M 2834 3397 
L 2834 2853 
Q 2591 2978 2328 3040 
Q 2066 3103 1784 3103 
Q 1356 3103 1142 2972 
Q 928 2841 928 2578 
Q 928 2378 1081 2264 
Q 1234 2150 1697 2047 
L 1894 2003 
Q 2506 1872 2764 1633 
Q 3022 1394 3022 966 
Q 3022 478 2636 193 
Q 2250 -91 1575 -91 
Q 1294 -91 989 -36 
Q 684 19 347 128 
L 347 722 
Q 666 556 975 473 
Q 1284 391 1588 391 
Q 1994 391 2212 530 
Q 2431 669 2431 922 
Q 2431 1156 2273 1281 
Q 2116 1406 1581 1522 
L 1381 1569 
Q 847 1681 609 1914 
Q 372 2147 372 2553 
Q 372 3047 722 3315 
Q 1072 3584 1716 3584 
Q 2034 3584 2315 3537 
Q 2597 3491 2834 3397 
z
" transform="scale(0.015625)"/>
       <path id="DejaVuSans-5d" d="M 1947 4863 
L 1947 -844 
L 622 -844 
L 622 -397 
L 1369 -397 
L 1369 4416 
L 622 4416 
L 622 4863 
L 1947 4863 
z
" transform="scale(0.015625)"/>
      </defs>
      <use xlink:href="#DejaVuSans-5a"/>
      <use xlink:href="#DejaVuSans-65" x="68.505859"/>
      <use xlink:href="#DejaVuSans-69" x="130.029297"/>
      <use xlink:href="#DejaVuSans-74" x="157.8125"/>
      <use xlink:href="#DejaVuSans-20" x="197.021484"/>
      <use xlink:href="#DejaVuSans-5b" x="228.808594"/>
      <use xlink:href="#DejaVuSans-73" x="267.822266"/>
      <use xlink:href="#DejaVuSans-5d" x="319.921875"/>
     </g>
    </g>
   </g>
   <g id="matplotlib.axis_2">
    <g id="ytick_1">
     <g id="line2d_15">
      <path d="M 30.123125 131.727354 
L 354.71952 131.727354 
" clip-path="url(#p927119be05)" style="fill: none; stroke-dasharray: 0.8,1.32; stroke-dashoffset: 0; stroke: #000000; stroke-opacity: 0.5; stroke-width: 0.8"/>
     </g>
     <g id="line2d_16">
      <defs>
       <path id="me084a6dd43" d="M 0 0 
L -3.5 0 
" style="stroke: #000000; stroke-width: 0.8"/>
      </defs>
      <g>
       <use xlink:href="#me084a6dd43" x="30.123125" y="131.727354" style="stroke: #000000; stroke-width: 0.8"/>
      </g>
     </g>
     <g id="text_9">
      <!-- 25 -->
      <g transform="translate(10.398125 135.526572) scale(0.1 -0.1)">
       <use xlink:href="#DejaVuSans-32"/>
       <use xlink:href="#DejaVuSans-35" x="63.623047"/>
      </g>
     </g>
    </g>
    <g id="ytick_2">
     <g id="line2d_17">
      <path d="M 30.123125 109.695355 
L 354.71952 109.695355 
" clip-path="url(#p927119be05)" style="fill: none; stroke-dasharray: 0.8,1.32; stroke-dashoffset: 0; stroke: #000000; stroke-opacity: 0.5; stroke-width: 0.8"/>
     </g>
     <g id="line2d_18">
      <g>
       <use xlink:href="#me084a6dd43" x="30.123125" y="109.695355" style="stroke: #000000; stroke-width: 0.8"/>
      </g>
     </g>
     <g id="text_10">
      <!-- 30 -->
      <g transform="translate(10.398125 113.494573) scale(0.1 -0.1)">
       <use xlink:href="#DejaVuSans-33"/>
       <use xlink:href="#DejaVuSans-30" x="63.623047"/>
      </g>
     </g>
    </g>
    <g id="ytick_3">
     <g id="line2d_19">
      <path d="M 30.123125 87.663356 
L 354.71952 87.663356 
" clip-path="url(#p927119be05)" style="fill: none; stroke-dasharray: 0.8,1.32; stroke-dashoffset: 0; stroke: #000000; stroke-opacity: 0.5; stroke-width: 0.8"/>
     </g>
     <g id="line2d_20">
      <g>
       <use xlink:href="#me084a6dd43" x="30.123125" y="87.663356" style="stroke: #000000; stroke-width: 0.8"/>
      </g>
     </g>
     <g id="text_11">
      <!-- 35 -->
      <g transform="translate(10.398125 91.462574) scale(0.1 -0.1)">
       <use xlink:href="#DejaVuSans-33"/>
       <use xlink:href="#DejaVuSans-35" x="63.623047"/>
      </g>
     </g>
    </g>
    <g id="ytick_4">
     <g id="line2d_21">
      <path d="M 30.123125 65.631357 
L 354.71952 65.631357 
" clip-path="url(#p927119be05)" style="fill: none; stroke-dasharray: 0.8,1.32; stroke-dashoffset: 0; stroke: #000000; stroke-opacity: 0.5; stroke-width: 0.8"/>
     </g>
     <g id="line2d_22">
      <g>
       <use xlink:href="#me084a6dd43" x="30.123125" y="65.631357" style="stroke: #000000; stroke-width: 0.8"/>
      </g>
     </g>
     <g id="text_12">
      <!-- 40 -->
      <g transform="translate(10.398125 69.430575) scale(0.1 -0.1)">
       <defs>
        <path id="DejaVuSans-34" d="M 2419 4116 
L 825 1625 
L 2419 1625 
L 2419 4116 
z
M 2253 4666 
L 3047 4666 
L 3047 1625 
L 3713 1625 
L 3713 1100 
L 3047 1100 
L 3047 0 
L 2419 0 
L 2419 1100 
L 313 1100 
L 313 1709 
L 2253 4666 
z
" transform="scale(0.015625)"/>
       </defs>
       <use xlink:href="#DejaVuSans-34"/>
       <use xlink:href="#DejaVuSans-30" x="63.623047"/>
      </g>
     </g>
    </g>
    <g id="ytick_5">
     <g id="line2d_23">
      <path d="M 30.123125 43.599358 
L 354.71952 43.599358 
" clip-path="url(#p927119be05)" style="fill: none; stroke-dasharray: 0.8,1.32; stroke-dashoffset: 0; stroke: #000000; stroke-opacity: 0.5; stroke-width: 0.8"/>
     </g>
     <g id="line2d_24">
      <g>
       <use xlink:href="#me084a6dd43" x="30.123125" y="43.599358" style="stroke: #000000; stroke-width: 0.8"/>
      </g>
     </g>
     <g id="text_13">
      <!-- 45 -->
      <g transform="translate(10.398125 47.398577) scale(0.1 -0.1)">
       <use xlink:href="#DejaVuSans-34"/>
       <use xlink:href="#DejaVuSans-35" x="63.623047"/>
      </g>
     </g>
    </g>
    <g id="ytick_6">
     <g id="line2d_25">
      <path d="M 30.123125 21.567359 
L 354.71952 21.567359 
" clip-path="url(#p927119be05)" style="fill: none; stroke-dasharray: 0.8,1.32; stroke-dashoffset: 0; stroke: #000000; stroke-opacity: 0.5; stroke-width: 0.8"/>
     </g>
     <g id="line2d_26">
      <g>
       <use xlink:href="#me084a6dd43" x="30.123125" y="21.567359" style="stroke: #000000; stroke-width: 0.8"/>
      </g>
     </g>
     <g id="text_14">
      <!-- 50 -->
      <g transform="translate(10.398125 25.366578) scale(0.1 -0.1)">
       <use xlink:href="#DejaVuSans-35"/>
       <use xlink:href="#DejaVuSans-30" x="63.623047"/>
      </g>
     </g>
    </g>
    <g id="text_15">
     <!-- 2-Norm F [N] -->
     <g transform="translate(8.318438 106.861166) rotate(-90) scale(0.1 -0.1)">
      <defs>
       <path id="DejaVuSans-2d" d="M 313 2009 
L 1997 2009 
L 1997 1497 
L 313 1497 
L 313 2009 
z
" transform="scale(0.015625)"/>
       <path id="DejaVuSans-4e" d="M 628 4666 
L 1478 4666 
L 3547 763 
L 3547 4666 
L 4159 4666 
L 4159 0 
L 3309 0 
L 1241 3903 
L 1241 0 
L 628 0 
L 628 4666 
z
" transform="scale(0.015625)"/>
       <path id="DejaVuSans-6f" d="M 1959 3097 
Q 1497 3097 1228 2736 
Q 959 2375 959 1747 
Q 959 1119 1226 758 
Q 1494 397 1959 397 
Q 2419 397 2687 759 
Q 2956 1122 2956 1747 
Q 2956 2369 2687 2733 
Q 2419 3097 1959 3097 
z
M 1959 3584 
Q 2709 3584 3137 3096 
Q 3566 2609 3566 1747 
Q 3566 888 3137 398 
Q 2709 -91 1959 -91 
Q 1206 -91 779 398 
Q 353 888 353 1747 
Q 353 2609 779 3096 
Q 1206 3584 1959 3584 
z
" transform="scale(0.015625)"/>
       <path id="DejaVuSans-72" d="M 2631 2963 
Q 2534 3019 2420 3045 
Q 2306 3072 2169 3072 
Q 1681 3072 1420 2755 
Q 1159 2438 1159 1844 
L 1159 0 
L 581 0 
L 581 3500 
L 1159 3500 
L 1159 2956 
Q 1341 3275 1631 3429 
Q 1922 3584 2338 3584 
Q 2397 3584 2469 3576 
Q 2541 3569 2628 3553 
L 2631 2963 
z
" transform="scale(0.015625)"/>
       <path id="DejaVuSans-6d" d="M 3328 2828 
Q 3544 3216 3844 3400 
Q 4144 3584 4550 3584 
Q 5097 3584 5394 3201 
Q 5691 2819 5691 2113 
L 5691 0 
L 5113 0 
L 5113 2094 
Q 5113 2597 4934 2840 
Q 4756 3084 4391 3084 
Q 3944 3084 3684 2787 
Q 3425 2491 3425 1978 
L 3425 0 
L 2847 0 
L 2847 2094 
Q 2847 2600 2669 2842 
Q 2491 3084 2119 3084 
Q 1678 3084 1418 2786 
Q 1159 2488 1159 1978 
L 1159 0 
L 581 0 
L 581 3500 
L 1159 3500 
L 1159 2956 
Q 1356 3278 1631 3431 
Q 1906 3584 2284 3584 
Q 2666 3584 2933 3390 
Q 3200 3197 3328 2828 
z
" transform="scale(0.015625)"/>
       <path id="DejaVuSans-46" d="M 628 4666 
L 3309 4666 
L 3309 4134 
L 1259 4134 
L 1259 2759 
L 3109 2759 
L 3109 2228 
L 1259 2228 
L 1259 0 
L 628 0 
L 628 4666 
z
" transform="scale(0.015625)"/>
      </defs>
      <use xlink:href="#DejaVuSans-32"/>
      <use xlink:href="#DejaVuSans-2d" x="63.623047"/>
      <use xlink:href="#DejaVuSans-4e" x="99.707031"/>
      <use xlink:href="#DejaVuSans-6f" x="174.511719"/>
      <use xlink:href="#DejaVuSans-72" x="235.693359"/>
      <use xlink:href="#DejaVuSans-6d" x="275.056641"/>
      <use xlink:href="#DejaVuSans-20" x="372.46875"/>
      <use xlink:href="#DejaVuSans-46" x="404.255859"/>
      <use xlink:href="#DejaVuSans-20" x="461.775391"/>
      <use xlink:href="#DejaVuSans-5b" x="493.5625"/>
      <use xlink:href="#DejaVuSans-4e" x="532.576172"/>
      <use xlink:href="#DejaVuSans-5d" x="607.380859"/>
     </g>
    </g>
   </g>
   <g id="line2d_27">
    <path d="M 30.123125 4.101144 
L 354.71952 4.101144 
L 354.71952 4.101144 
" clip-path="url(#p927119be05)" style="fill: none; stroke: #0000ff; stroke-opacity: 0.5; stroke-width: 2.1; stroke-linecap: square"/>
   </g>
   <g id="line2d_28">
    <path d="M 30.123125 137.014991 
L 30.364361 140.426492 
L 30.47021 139.898201 
L 30.4878 137.922951 
L 30.546955 138.929037 
L 30.629382 138.788939 
L 30.687258 135.633997 
L 30.765061 136.037005 
L 30.845507 136.815193 
L 30.946396 136.33328 
L 31.032842 137.208279 
L 31.124924 135.097502 
L 31.18462 135.255734 
L 31.34463 137.275712 
L 31.425094 136.117806 
L 31.545135 136.931025 
L 31.684716 135.496933 
L 31.764146 136.924566 
L 31.864299 136.55295 
L 32.004006 137.649923 
L 32.203083 134.381022 
L 32.683954 137.654263 
L 32.82369 137.008356 
L 32.846649 135.99598 
L 32.923732 136.90961 
L 33.004586 136.912231 
L 33.2477 138.973225 
L 33.50272 137.392411 
L 33.573583 138.189152 
L 33.582937 138.138372 
L 33.663068 137.930218 
L 33.824002 141.153778 
L 33.90428 140.627928 
L 33.989716 138.819619 
L 34.073328 139.144759 
L 34.165727 140.537882 
L 34.326168 138.96042 
L 34.405932 138.655273 
L 34.486148 138.852801 
L 34.653763 137.25516 
L 34.731021 138.812441 
L 34.927347 137.743356 
L 35.145947 135.949872 
L 35.224838 136.145601 
L 35.391987 138.917961 
L 35.567679 137.499241 
L 35.647645 137.932968 
L 35.807718 134.873842 
L 35.888143 134.946496 
L 36.048044 137.152048 
L 36.212465 136.222385 
L 36.308501 136.307892 
L 36.469042 134.034597 
L 36.548546 134.733997 
L 36.720695 136.336681 
L 36.792211 135.859935 
L 36.968114 136.522444 
L 37.143517 135.032198 
L 37.209434 135.62652 
L 37.290657 135.23503 
L 37.369237 135.627662 
L 37.529163 137.254244 
L 37.717373 134.659631 
L 37.789405 133.526852 
L 38.029106 135.924299 
L 38.211319 137.859509 
L 38.288606 137.017306 
L 38.451804 138.585299 
L 38.890739 135.26695 
L 39.190527 138.094878 
L 39.330234 136.547432 
L 39.609234 143.416776 
L 39.689589 142.177591 
L 39.769676 141.734391 
L 39.931841 137.072048 
L 40.095616 138.945396 
L 40.178818 138.746329 
L 40.593994 136.374636 
L 40.856948 138.064898 
L 40.938598 137.951715 
L 41.197826 139.249763 
L 41.259816 138.965896 
L 41.341655 138.640543 
L 41.523472 136.390054 
L 41.591273 136.949395 
L 41.673017 136.839119 
L 41.780429 137.112892 
L 41.951695 139.015318 
L 42.094045 135.554906 
L 42.135316 134.598496 
L 42.207843 134.76536 
L 42.296647 136.44561 
L 42.517122 138.886324 
L 42.616536 138.388471 
L 42.776221 136.249408 
L 43.016209 139.588279 
L 43.178247 137.616279 
L 43.256609 137.116503 
L 43.455573 138.775965 
L 43.502907 138.803654 
L 43.615842 138.225527 
L 43.717391 138.35842 
L 43.817649 135.885924 
L 44.008058 139.354312 
L 44.076291 139.075225 
L 44.344617 136.822375 
L 44.590634 139.513742 
L 44.754761 141.338216 
L 44.815002 141.21892 
L 45.214632 138.632004 
L 45.294317 139.256346 
L 45.475233 136.969803 
L 45.634787 132.94253 
L 45.814736 134.746035 
L 46.05419 137.991969 
L 46.133987 137.592695 
L 46.234064 137.964702 
L 46.473833 140.313254 
L 46.55325 140.105263 
L 46.932848 135.631718 
L 46.972514 138.204166 
L 47.040355 138.202825 
L 47.131889 137.063281 
L 47.6565 142.194712 
L 47.713254 141.645354 
L 47.793192 139.190809 
L 47.886452 139.264518 
L 47.953256 140.915358 
L 48.152362 140.425869 
L 48.212926 140.61235 
L 48.372108 138.675002 
L 48.652699 141.221485 
L 48.713324 140.748274 
L 48.792961 138.694073 
L 48.872789 139.023602 
L 48.992518 138.861434 
L 49.172432 139.76149 
L 49.352454 139.342098 
L 49.412327 139.441452 
L 49.47271 139.346646 
L 49.587388 138.903171 
L 49.612499 139.014224 
L 49.995773 141.255196 
L 50.037361 141.192703 
L 50.217357 138.879192 
L 50.371543 140.17967 
L 50.512549 140.128368 
L 50.57818 139.711856 
L 50.623186 140.458141 
L 50.623271 139.690041 
L 50.702802 140.017134 
L 50.936776 140.377429 
L 50.974062 139.979129 
L 50.995162 140.835797 
L 51.073616 140.598997 
L 51.166748 139.322697 
L 51.186028 139.6773 
L 51.266181 138.947249 
L 51.361616 139.707443 
L 51.45341 139.579006 
L 51.571304 138.842782 
L 51.848649 139.833015 
L 51.928792 139.76611 
L 52.047938 138.377621 
L 52.088077 140.862669 
L 52.168563 140.297842 
L 52.428154 133.142054 
L 52.507604 134.566486 
L 52.667737 136.657561 
L 52.787469 136.194482 
L 52.851538 138.668238 
L 52.928647 137.965457 
L 52.993085 136.764357 
L 53.112483 136.691408 
L 53.131576 136.776437 
L 53.273203 138.196797 
L 53.352984 139.153416 
L 53.410845 139.076994 
L 53.61095 138.921163 
L 53.690996 137.413343 
L 53.752098 137.422566 
L 53.832993 138.358992 
L 53.977958 138.561465 
L 54.07141 139.816411 
L 54.890905 133.529457 
L 54.991934 133.113151 
L 55.011056 133.630888 
L 55.433782 135.091815 
L 55.870272 137.108569 
L 56.336477 138.008788 
L 56.772244 137.528556 
L 56.789902 136.290706 
L 56.869332 137.248527 
L 56.969798 138.303936 
L 57.130511 135.992705 
L 57.429782 142.752007 
L 57.451364 141.023014 
L 57.690662 139.735814 
L 57.709441 138.683189 
L 57.848991 138.102398 
L 57.99166 140.162774 
L 58.269322 136.856525 
L 58.452709 140.178086 
L 58.53759 140.484939 
L 58.689778 139.227041 
L 58.889759 134.1726 
L 58.950215 134.478879 
L 59.048542 136.041761 
L 59.237005 133.480263 
L 59.348709 133.574372 
L 59.44853 136.709707 
L 59.530715 137.722704 
L 59.688755 137.191728 
L 59.908566 134.798015 
L 60.073732 136.106379 
L 60.128665 136.00929 
L 60.234343 135.196982 
L 60.288458 135.605372 
L 60.353931 136.351736 
L 60.369438 137.887381 
L 60.444464 136.47748 
L 60.564548 136.107301 
L 60.844359 137.772478 
L 61.02414 137.195935 
L 61.103846 136.704542 
L 61.184095 136.75789 
L 61.286048 137.108186 
L 61.444486 138.281592 
L 61.504065 137.904156 
L 61.683171 138.671829 
L 61.763453 138.577766 
L 61.865503 138.212615 
L 62.022692 136.444638 
L 62.183541 138.123405 
L 62.32258 136.972488 
L 62.423322 134.167785 
L 62.50353 133.404075 
L 62.665427 134.634957 
L 62.825246 136.518164 
L 63.003818 134.867347 
L 63.163337 138.874562 
L 63.302242 139.190791 
L 63.322045 140.318711 
L 63.424058 139.539227 
L 63.594409 139.217099 
L 63.594743 139.511398 
L 63.69266 137.718586 
L 63.863907 139.54134 
L 63.955656 139.331269 
L 64.269648 144.982126 
L 64.549545 143.999858 
L 64.928701 137.618976 
L 65.068505 133.735363 
L 65.148 134.712852 
L 65.287445 135.008275 
L 65.309837 134.856609 
L 65.468758 134.309501 
L 65.56657 135.143416 
L 65.651381 134.933296 
L 65.727973 135.336576 
L 65.887125 138.711735 
L 65.970414 139.019047 
L 66.127646 139.089671 
L 66.187614 140.354577 
L 66.23176 140.312515 
L 66.307598 140.108941 
L 66.467151 142.005589 
L 66.547955 141.948967 
L 66.72842 137.322674 
L 66.849143 136.810292 
L 66.868142 138.100684 
L 66.986989 138.346593 
L 67.207233 136.7752 
L 67.366775 136.147557 
L 67.488197 139.390006 
L 67.726255 138.05296 
L 67.807193 137.186717 
L 67.866389 137.714415 
L 68.04777 138.495208 
L 68.128343 139.130418 
L 68.246236 137.855013 
L 68.326964 138.104845 
L 68.386312 139.113463 
L 68.470277 138.676029 
L 68.543636 137.583171 
L 68.694943 141.529286 
L 68.87879 139.354051 
L 69.151844 136.119965 
L 69.271166 137.159453 
L 69.371441 136.837291 
L 69.535408 131.029533 
L 69.61213 132.485807 
L 69.773645 134.241157 
L 69.857788 132.823205 
L 69.935129 133.50296 
L 70.193092 131.684205 
L 70.413074 131.694505 
L 70.4327 134.750343 
L 70.513555 132.252283 
L 70.653449 133.815385 
L 70.773218 136.919759 
L 70.852815 136.938093 
L 71.004966 137.224239 
L 71.094003 140.2697 
L 71.171812 138.744457 
L 71.191647 139.118005 
L 71.32076 140.106277 
L 71.357219 141.783932 
L 71.512379 138.849483 
L 71.593747 137.652246 
L 71.832279 138.143002 
L 72.053453 134.372658 
L 72.093395 134.266222 
L 72.255061 133.323088 
L 72.302073 133.657777 
L 72.515078 134.920775 
L 72.617661 134.519052 
L 72.662561 133.820763 
L 72.83537 136.856981 
L 72.985944 136.140062 
L 73.154661 133.952476 
L 73.174398 134.690557 
L 73.347959 134.697683 
L 73.755519 130.070447 
L 73.897375 132.521094 
L 73.995018 132.452722 
L 74.155407 135.08564 
L 74.240079 137.347532 
L 74.338844 137.278125 
L 74.418887 137.652728 
L 74.483247 138.805495 
L 74.578274 138.729285 
L 74.738373 140.613689 
L 75.063662 137.807769 
L 75.079296 140.268294 
L 75.159551 138.077095 
L 75.220434 138.028793 
L 75.341211 137.082612 
L 75.399945 138.109965 
L 75.580244 135.177672 
L 75.643856 135.989715 
L 75.742222 138.507331 
L 75.759241 136.97564 
L 75.89978 135.490129 
L 76.141541 138.284261 
L 76.341916 136.456852 
L 76.483924 137.704228 
L 76.541153 136.063671 
L 76.722478 137.21849 
L 76.821932 135.946743 
L 77.04191 137.144583 
L 77.122621 138.408459 
L 77.286295 138.2088 
L 77.389333 139.243654 
L 77.466551 139.007118 
L 77.54861 138.597764 
L 77.785387 140.335712 
L 78.285716 135.765091 
L 78.370479 136.147478 
L 78.445807 137.079756 
L 78.545847 136.807258 
L 78.704721 134.971832 
L 79.190854 140.481029 
L 79.347364 136.974729 
L 79.427139 137.216167 
L 79.546651 139.243681 
L 79.606919 139.040406 
L 79.727147 141.066264 
L 79.786098 141.021397 
L 80.185658 136.064634 
L 80.35008 134.620192 
L 80.577824 132.891096 
L 80.746862 135.431307 
L 80.851906 137.248088 
L 81.269251 139.560597 
L 81.367773 139.254137 
L 81.528457 136.903911 
L 81.667391 137.579173 
L 82.106423 135.847417 
L 82.187753 136.077129 
L 82.24696 136.792727 
L 82.427646 134.996802 
L 82.630564 136.69961 
L 82.928848 135.294199 
L 82.992096 133.751959 
L 83.069614 133.993229 
L 83.269716 135.09467 
L 83.444783 133.455568 
L 83.579388 136.782817 
L 83.590178 136.512463 
L 83.68548 135.389289 
L 83.771663 135.353312 
L 83.951801 137.719873 
L 83.997143 136.523417 
L 84.171474 139.028406 
L 84.231088 138.847559 
L 84.391371 139.100633 
L 84.453575 138.391918 
L 84.494638 139.63664 
L 84.558547 139.566068 
L 84.735049 139.727794 
L 84.81604 140.523467 
L 84.894205 139.069766 
L 85.054889 140.421286 
L 85.137096 139.011421 
L 85.235891 138.688898 
L 85.321458 137.162245 
L 85.394409 138.869002 
L 85.473544 138.357202 
L 85.641635 136.745011 
L 85.714638 136.971363 
L 85.80633 136.276448 
L 85.894093 136.444926 
L 85.97295 136.562202 
L 86.054644 136.229405 
L 86.132238 137.912822 
L 86.217556 137.630678 
L 86.294994 136.807078 
L 86.551719 139.794762 
L 86.711779 139.236456 
L 86.791205 140.327189 
L 86.87373 140.142338 
L 87.05163 136.349601 
L 87.212017 138.566297 
L 87.29192 138.38748 
L 87.37152 137.788628 
L 87.451837 137.809462 
L 87.531399 138.109436 
L 87.712323 137.53649 
L 87.872761 139.451073 
L 87.951673 139.046197 
L 88.114437 136.975875 
L 88.291745 139.236984 
L 88.371654 139.387838 
L 88.447437 139.340352 
L 88.701144 140.951249 
L 88.852753 139.933544 
L 88.933564 139.820909 
L 89.053088 137.074784 
L 89.110977 137.849443 
L 89.194534 139.612137 
L 89.370518 137.45649 
L 89.431994 138.175779 
L 89.519832 136.955516 
L 89.691008 139.067957 
L 89.771018 139.126962 
L 89.853248 139.400267 
L 90.011862 136.66345 
L 90.092481 136.957036 
L 90.193044 138.198495 
L 90.257785 137.900257 
L 90.35383 137.845084 
L 90.431932 136.704545 
L 90.513371 137.192343 
L 90.605811 136.731269 
L 90.612363 138.288411 
L 90.673219 138.089376 
L 90.853565 139.843554 
L 91.094088 137.713374 
L 91.154121 138.321824 
L 91.174724 137.778835 
L 91.25601 137.695975 
L 91.443354 136.586078 
L 91.535827 137.349769 
L 91.595361 136.993452 
L 91.675883 136.398728 
L 91.835323 138.126302 
L 91.914969 136.664229 
L 92.076192 138.031498 
L 92.19979 136.809929 
L 92.259192 137.348645 
L 92.424258 135.82215 
L 92.439987 134.42052 
L 92.499247 134.931728 
L 92.639404 134.966841 
L 92.739308 138.033155 
L 92.919665 137.991505 
L 92.999572 137.516299 
L 93.019695 138.246184 
L 93.261208 137.61945 
L 93.361331 139.752908 
L 93.42229 138.990734 
L 93.800387 133.712246 
L 93.901644 134.445759 
L 94.002153 134.232214 
L 94.062482 135.755602 
L 94.080592 133.822024 
L 94.341752 132.453845 
L 94.361208 134.043701 
L 94.480383 134.056756 
L 94.559869 137.302512 
L 94.6407 136.659695 
L 94.720503 138.141948 
L 94.841444 138.042766 
L 94.921463 137.309891 
L 94.940317 139.19526 
L 95.022446 138.146028 
L 95.120948 139.316958 
L 95.180525 138.045039 
L 95.280848 138.322177 
L 95.382214 137.23563 
L 95.501087 137.632421 
L 95.58195 136.349248 
L 95.641183 138.531379 
L 96.056357 135.407641 
L 96.119899 135.956815 
L 96.160244 136.106218 
L 96.299719 135.683855 
L 96.349579 135.935092 
L 96.419382 134.253896 
L 96.499636 133.044426 
L 96.58111 134.902605 
L 96.743306 133.406413 
L 96.800113 135.596929 
L 96.880105 134.747561 
L 96.962441 134.985337 
L 97.108186 135.045695 
L 97.130212 134.234253 
L 97.204922 135.556809 
L 97.382111 134.144309 
L 97.462251 135.702906 
L 97.548551 135.617119 
L 97.622847 134.974601 
L 97.865766 137.192618 
L 98.061105 138.242056 
L 98.224589 140.059206 
L 98.303194 138.541475 
L 98.364145 138.931469 
L 98.461884 140.127906 
L 98.522724 139.274173 
L 98.684382 138.815676 
L 98.722736 137.811028 
L 98.94094 139.587002 
L 99.209282 138.795791 
L 99.360608 136.836151 
L 99.442723 137.832223 
L 99.520642 137.56599 
L 99.566049 137.650245 
L 99.865232 135.382127 
L 100.063625 137.094915 
L 100.163636 137.725605 
L 100.184012 137.246709 
L 100.663699 132.448677 
L 100.706114 134.377283 
L 100.865027 132.486006 
L 101.043085 133.606976 
L 101.18327 134.478864 
L 101.26966 133.727895 
L 101.342661 134.979045 
L 101.503423 134.690276 
L 101.682355 136.314427 
L 101.843873 135.726988 
L 101.922462 135.908129 
L 102.222143 139.15671 
L 102.342225 137.767823 
L 102.583608 138.33528 
L 102.76566 139.340951 
L 103.083493 137.616035 
L 103.166419 137.678919 
L 103.254085 138.272727 
L 103.46433 137.088958 
L 103.903207 140.057188 
L 104.157515 136.375994 
L 104.243579 137.806243 
L 104.571889 134.042992 
L 104.803899 133.780839 
L 104.886842 136.681616 
L 104.984418 137.084282 
L 105.154391 135.474596 
L 105.464932 137.909914 
L 105.563634 138.001759 
L 105.724446 136.28574 
L 105.804142 137.479171 
L 105.883668 137.210299 
L 106.304257 134.292998 
L 106.382565 134.360845 
L 106.543398 134.99704 
L 106.623624 134.152226 
L 106.739918 134.521938 
L 107.042334 137.682559 
L 107.126303 137.074883 
L 107.208967 137.321031 
L 107.28512 136.079713 
L 107.542135 137.489397 
L 107.628242 137.732838 
L 107.70342 137.500874 
L 107.782471 135.874763 
L 107.865291 136.166277 
L 108.025498 138.165872 
L 108.131172 138.287581 
L 108.284009 137.87617 
L 108.443591 138.171347 
L 108.544631 136.466926 
L 108.685405 139.249068 
L 108.787008 135.633583 
L 108.967823 137.051788 
L 109.025197 136.324217 
L 109.185051 136.902039 
L 109.272174 135.748909 
L 109.364634 136.81097 
L 109.450868 135.837387 
L 109.649393 137.455098 
L 109.780268 133.919147 
L 109.869583 134.751461 
L 110.00916 133.045563 
L 110.089183 133.465174 
L 110.247942 133.005651 
L 110.28761 134.193058 
L 110.359825 134.162605 
L 110.428127 134.511066 
L 110.667242 137.845591 
L 110.810527 136.691286 
L 110.928865 138.620292 
L 111.19621 137.411614 
L 111.348407 135.198319 
L 111.42793 135.110319 
L 111.507694 134.066203 
L 111.726801 136.124775 
L 111.771784 135.470812 
L 111.907972 137.238771 
L 112.007958 138.113075 
L 112.088637 140.028692 
L 112.212218 139.126679 
L 112.248793 139.167206 
L 112.349885 140.778729 
L 112.489269 139.732306 
L 112.509001 138.216411 
L 112.730466 136.361509 
L 112.908418 133.74067 
L 112.998024 134.203571 
L 113.068118 133.890312 
L 113.150887 132.934054 
L 113.284855 133.532537 
L 113.333401 133.138172 
L 113.488522 134.378221 
L 113.568825 134.037611 
L 113.768245 134.843872 
L 114.029087 137.638047 
L 114.088726 136.034224 
L 114.149432 136.383678 
L 114.410238 139.469177 
L 114.792316 135.172356 
L 114.828396 132.545403 
L 114.848257 134.459865 
L 114.975224 137.555063 
L 115.14835 134.598198 
L 115.231923 134.782174 
L 115.628084 141.80746 
L 115.727113 141.149481 
L 115.806655 139.827814 
L 115.906785 140.227431 
L 115.986752 139.873273 
L 116.168302 140.472986 
L 116.469097 136.291128 
L 116.550843 136.3925 
L 116.668602 136.327048 
L 116.708116 135.219096 
L 116.888691 136.252631 
L 117.067912 134.772408 
L 117.22859 135.794839 
L 117.328408 136.390056 
L 117.370509 135.965958 
L 117.548151 138.675308 
L 117.789542 137.527342 
L 117.880416 138.350677 
L 118.061222 137.623246 
L 118.226799 140.934082 
L 118.366422 138.648632 
L 118.485219 140.827051 
L 118.545526 139.900727 
L 118.706197 138.667354 
L 118.809882 139.542031 
L 118.957258 136.615097 
L 119.045834 135.157975 
L 119.126773 135.437066 
L 119.226303 136.014477 
L 119.411584 134.66734 
L 119.450108 135.848221 
L 119.52734 134.46381 
L 119.706992 136.072333 
L 119.895361 134.595706 
L 119.988095 134.454496 
L 120.027843 133.927636 
L 120.214101 135.945596 
L 120.490924 134.20887 
L 120.624516 134.608215 
L 120.857684 136.422488 
L 120.897132 136.158177 
L 121.012913 133.213588 
L 121.170677 132.508099 
L 121.352531 132.20066 
L 121.432401 132.752773 
L 121.511493 132.428375 
L 121.952935 133.871191 
L 122.034144 134.845918 
L 122.112987 134.761902 
L 122.193425 135.123378 
L 122.494949 133.77621 
L 122.594469 133.893919 
L 122.957027 139.422788 
L 122.996383 138.383202 
L 123.076087 138.713983 
L 123.176755 140.14515 
L 123.255577 138.763007 
L 123.318417 140.035418 
L 123.456117 139.985812 
L 123.736494 134.628474 
L 123.815967 137.188193 
L 123.997598 135.391347 
L 124.076617 136.382836 
L 124.244638 135.68944 
L 124.325428 136.27461 
L 124.476359 135.985948 
L 124.515989 136.121041 
L 124.576025 137.690323 
L 124.677594 135.901671 
L 124.73924 136.479369 
L 124.899538 138.242256 
L 125.000023 138.589911 
L 125.05923 138.474809 
L 125.183701 138.799916 
L 125.319099 140.480523 
L 125.458538 140.53496 
L 125.579278 142.747077 
L 125.71808 140.047466 
L 125.798133 139.596484 
L 125.878205 140.282264 
L 125.97817 138.775369 
L 126.077492 139.026832 
L 126.182207 139.791426 
L 126.376422 135.699424 
L 126.457533 136.778364 
L 126.540265 136.634669 
L 126.637124 136.84513 
L 126.732111 136.154662 
L 126.796843 136.857349 
L 126.976415 134.707124 
L 127.056948 134.914871 
L 127.157617 134.77254 
L 127.302728 137.655457 
L 127.416123 137.312729 
L 127.495715 137.350193 
L 128.017593 142.684435 
L 128.036122 141.376231 
L 128.17603 139.871468 
L 128.216598 140.887446 
L 128.296586 140.221036 
L 128.396655 140.411698 
L 128.476236 140.96545 
L 128.555795 140.318755 
L 128.715837 137.057913 
L 128.779884 136.484623 
L 129.018176 137.32849 
L 129.117593 135.62961 
L 129.135587 135.915143 
L 129.276149 133.482951 
L 129.356988 134.763802 
L 129.436849 134.75199 
L 129.699348 133.552335 
L 129.7763 133.67617 
L 129.858012 133.543883 
L 129.953023 133.85041 
L 130.032305 134.842487 
L 130.132721 134.777818 
L 130.176252 134.291399 
L 130.452122 138.108071 
L 130.593149 137.25667 
L 130.674678 138.407005 
L 130.691006 138.149029 
L 130.810396 138.068486 
L 130.935026 136.82416 
L 130.950242 137.762621 
L 131.011137 136.670819 
L 131.113674 134.772196 
L 131.350965 135.338563 
L 131.491988 134.883914 
L 131.530843 135.02311 
L 131.59762 135.685439 
L 131.672521 134.865757 
L 131.772876 136.609416 
L 131.855383 136.604638 
L 131.917429 136.84648 
L 132.196161 134.889759 
L 132.27731 136.192553 
L 132.413823 133.742501 
L 132.494766 134.696947 
L 132.594188 134.26096 
L 132.795223 136.188443 
L 132.873987 135.870117 
L 133.033911 136.042588 
L 133.114262 136.68782 
L 133.318812 141.963246 
L 133.575489 138.300089 
L 133.834889 141.130075 
L 134.177007 137.529816 
L 134.39885 139.774995 
L 134.501416 138.916874 
L 134.515129 139.943956 
L 134.816314 136.82144 
L 134.976569 135.636858 
L 135.116384 136.235497 
L 135.179499 135.355188 
L 135.238201 135.534046 
L 135.438612 137.950948 
L 135.490644 137.516204 
L 135.557546 137.251621 
L 135.637781 137.35836 
L 135.756761 137.817164 
L 135.975911 140.844919 
L 136.216497 138.46366 
L 136.296106 138.260997 
L 136.396092 137.588309 
L 136.498633 138.190231 
L 136.555885 138.06034 
L 136.798197 135.364935 
L 136.876272 136.040161 
L 136.959399 135.715795 
L 137.215865 137.141344 
L 137.297802 136.300069 
L 137.37562 136.402345 
L 137.575427 136.980383 
L 137.735964 137.788955 
L 137.821628 139.319703 
L 138.297687 137.507279 
L 138.371022 137.234059 
L 138.536166 135.629792 
L 138.752667 134.749677 
L 138.773585 135.817126 
L 138.865535 134.446437 
L 138.972956 134.617087 
L 139.113316 135.909269 
L 139.194674 134.182784 
L 139.292728 135.236232 
L 139.522033 132.151135 
L 139.632769 132.148123 
L 139.804425 134.54736 
L 139.885274 133.607495 
L 140.026818 136.261059 
L 140.123947 134.467978 
L 140.205019 135.043028 
L 140.363262 137.078284 
L 140.505409 136.069881 
L 140.684925 138.640156 
L 140.766865 137.554469 
L 140.847706 138.087368 
L 141.009559 140.291349 
L 141.125232 138.836172 
L 141.250635 141.027666 
L 141.566615 136.162721 
L 141.708367 137.342105 
L 141.827182 137.29696 
L 141.926874 139.775378 
L 142.007237 138.464329 
L 142.166801 136.809478 
L 142.247009 136.960049 
L 142.407574 137.759577 
L 142.488224 137.620028 
L 142.716042 136.684763 
L 142.827339 136.819138 
L 143.006978 141.824762 
L 143.088532 141.393758 
L 143.167461 141.726493 
L 143.270531 140.283136 
L 143.393494 140.611222 
L 143.448218 140.349584 
L 143.766628 134.013944 
L 143.849843 133.932828 
L 144.308655 136.395975 
L 144.410756 136.040849 
L 144.50225 135.274104 
L 144.767329 137.853014 
L 144.927637 135.906279 
L 145.026564 135.874225 
L 145.066939 136.511289 
L 145.227211 135.864713 
L 145.366109 136.977637 
L 145.392047 138.086833 
L 145.505266 137.723493 
L 145.547788 136.799107 
L 145.727224 139.353208 
L 145.887297 137.731119 
L 146.048371 139.206635 
L 146.219134 137.223057 
L 146.401251 141.225306 
L 146.497572 140.245469 
L 146.658526 138.177956 
L 146.877522 139.559646 
L 146.957044 140.836937 
L 147.039071 140.488011 
L 147.216972 135.695058 
L 147.43793 136.835852 
L 147.458086 136.850497 
L 147.538233 137.074213 
L 147.797509 135.218471 
L 148.297942 139.295051 
L 148.458459 138.672224 
L 148.559164 140.678976 
L 148.777764 138.063655 
L 148.858511 137.824794 
L 149.016571 136.164207 
L 149.139788 135.855199 
L 149.216869 134.79074 
L 149.27655 135.672885 
L 149.396214 133.820017 
L 149.496598 134.170792 
L 149.617695 136.004549 
L 149.721827 135.974554 
L 149.759948 136.043807 
L 149.856949 136.836163 
L 149.939332 136.307237 
L 150.016788 136.905501 
L 150.11725 136.853786 
L 150.178955 135.651499 
L 150.258672 135.731016 
L 150.357061 135.765191 
L 150.437363 135.401121 
L 150.516202 135.869254 
L 150.841864 133.643667 
L 150.936212 132.936362 
L 151.015434 134.953501 
L 151.159523 135.118897 
L 151.275317 133.836955 
L 151.374722 134.442411 
L 151.51383 137.655936 
L 151.593845 136.474279 
L 151.674593 136.550317 
L 151.753767 137.186303 
L 151.838035 136.307738 
L 151.853137 138.60568 
L 151.933354 137.276867 
L 152.01408 137.095165 
L 152.093311 137.462409 
L 152.193266 137.326324 
L 152.394183 134.939151 
L 152.49387 135.198031 
L 152.673317 134.206258 
L 152.833044 133.760067 
L 152.896148 135.206052 
L 152.953188 134.800255 
L 153.013069 133.864849 
L 153.250479 137.190516 
L 153.481074 139.476342 
L 153.659755 137.123488 
L 153.759765 137.352124 
L 153.979537 134.29597 
L 154.05912 134.683821 
L 154.158838 133.473165 
L 154.299579 133.55444 
L 154.342188 132.696222 
L 154.459157 133.076541 
L 154.481844 132.998401 
L 154.579721 132.53537 
L 154.658481 133.22414 
L 154.73858 132.262245 
L 154.820944 133.570413 
L 154.901596 133.44792 
L 155.143228 135.155224 
L 155.464537 139.9531 
L 155.642352 138.68386 
L 155.843239 137.575327 
L 156.043467 139.54685 
L 156.206667 138.35038 
L 156.303176 138.219227 
L 156.383447 138.411279 
L 156.542738 139.043163 
L 156.702216 138.706589 
L 156.882287 136.081817 
L 156.96281 136.52028 
L 157.043182 136.107283 
L 157.123187 134.530768 
L 157.289421 135.587925 
L 157.363318 135.681846 
L 157.445837 136.593569 
L 157.542492 135.499815 
L 157.621889 136.63103 
L 157.783324 134.273852 
L 157.949484 136.499639 
L 158.024936 136.158522 
L 158.043876 137.523713 
L 158.108373 136.141969 
L 158.204298 135.99966 
L 158.305934 135.389167 
L 158.365864 135.899202 
L 158.445112 135.471045 
L 158.605474 138.139095 
L 158.780652 137.760734 
L 158.865274 138.804652 
L 158.946134 138.548766 
L 159.108352 137.876731 
L 159.264742 139.854325 
L 159.345592 137.985649 
L 159.427678 138.702623 
L 159.686157 137.680247 
L 159.843228 139.260793 
L 160.088835 138.116569 
L 160.263906 139.198263 
L 160.442663 138.210278 
L 160.523699 137.79124 
L 160.643306 137.784854 
L 160.789945 139.048437 
L 160.913959 137.573159 
L 161.090154 135.912163 
L 161.27928 137.043352 
L 161.435889 136.188791 
L 161.66804 135.930383 
L 161.768255 134.522232 
L 161.833341 134.663862 
L 161.92858 134.321271 
L 162.348303 130.755641 
L 162.567965 131.15756 
L 162.749326 135.040335 
L 163.149245 139.174908 
L 163.247741 138.785115 
L 163.308278 139.847567 
L 163.408201 139.106065 
L 163.506943 139.150158 
L 163.568 138.955679 
L 163.668851 139.025277 
L 163.906802 137.794278 
L 164.154827 138.962619 
L 164.24619 138.43603 
L 164.325992 139.171895 
L 164.406323 138.356942 
L 164.627117 138.90324 
L 164.806229 137.235223 
L 164.969361 137.754256 
L 164.986503 136.355034 
L 165.066449 136.993732 
L 165.165344 137.324633 
L 165.227323 138.00521 
L 165.305178 137.865647 
L 165.386319 137.672241 
L 165.545976 138.63959 
L 165.68175 138.476508 
L 165.707762 136.896792 
L 165.825282 136.667982 
L 165.985186 134.125287 
L 166.065504 134.924375 
L 166.144985 134.924111 
L 166.385591 133.667151 
L 166.572161 136.067644 
L 166.625483 137.862473 
L 166.726136 137.615658 
L 166.792419 138.347111 
L 166.88612 137.979119 
L 167.151687 135.457644 
L 167.311176 135.78147 
L 167.432153 135.461488 
L 167.451191 134.668375 
L 167.617464 136.372053 
L 167.81727 135.349715 
L 168.03819 138.586645 
L 168.515691 134.852732 
L 168.656845 137.452141 
L 168.697657 137.246886 
L 168.776389 136.336654 
L 168.955708 137.310993 
L 169.120346 137.96336 
L 169.196885 137.522476 
L 169.276846 138.388743 
L 169.381431 136.65492 
L 169.615027 137.974668 
L 169.769932 135.988107 
L 169.869436 135.953726 
L 170.089348 136.881355 
L 170.129061 136.74838 
L 170.193168 137.613939 
L 170.250661 136.392221 
L 170.349771 136.42281 
L 170.469115 136.727114 
L 170.609147 138.459594 
L 170.887996 136.427097 
L 171.1705 133.769085 
L 171.268856 134.422649 
L 171.348984 134.124297 
L 171.671205 135.789301 
L 171.78894 135.396546 
L 172.008372 137.787819 
L 172.09085 137.419289 
L 172.168817 138.08693 
L 172.32877 135.980901 
L 172.426004 137.184206 
L 172.553284 136.932476 
L 172.649919 138.712563 
L 172.672908 137.572549 
L 172.807781 138.485728 
L 172.866622 136.462878 
L 172.929011 136.582567 
L 173.010545 135.895622 
L 173.069276 137.417442 
L 173.14885 137.055551 
L 173.408617 135.007379 
L 173.491038 135.400013 
L 173.613125 135.249077 
L 173.74943 137.608528 
L 173.970806 136.492723 
L 173.988381 137.932311 
L 174.290438 138.892185 
L 174.372419 138.271932 
L 174.487496 134.489175 
L 174.571037 132.736293 
L 174.66886 133.46117 
L 174.730149 133.392323 
L 174.809041 133.638589 
L 174.950784 132.936498 
L 175.048378 134.115556 
L 175.228279 136.327873 
L 175.468162 139.119073 
L 175.63143 138.792566 
L 175.715461 138.684702 
L 175.88805 139.186556 
L 175.968158 138.637316 
L 176.047818 138.881699 
L 176.308324 136.366213 
L 176.371311 137.294767 
L 176.628962 135.277101 
L 176.790527 135.483984 
L 176.868602 134.945996 
L 177.029987 137.41691 
L 177.452181 140.342465 
L 177.533158 140.012348 
L 177.700516 140.376475 
L 177.788331 139.526597 
L 177.877459 140.092728 
L 178.19022 138.205228 
L 178.330353 138.289147 
L 178.469686 139.345052 
L 178.531935 138.472184 
L 178.630024 138.511398 
L 178.771365 139.437978 
L 178.949736 139.859647 
L 179.030578 138.222329 
L 179.27025 135.918884 
L 179.4308 137.465881 
L 179.455928 136.394271 
L 179.562657 137.407664 
L 179.641854 137.091087 
L 180.148024 140.478777 
L 180.188057 139.18508 
L 180.28732 139.289918 
L 180.369282 138.244097 
L 180.471297 138.567378 
L 180.587995 139.31866 
L 180.749054 140.572184 
L 181.028222 137.375541 
L 181.269156 136.088742 
L 181.606735 132.097036 
L 181.755292 133.126311 
L 181.911115 133.794774 
L 181.989806 132.272774 
L 182.106291 133.078347 
L 182.270065 134.998199 
L 182.32758 134.807904 
L 182.503272 134.805785 
L 182.509976 134.264465 
L 182.588373 134.434627 
L 182.668254 134.369249 
L 182.856807 135.991755 
L 182.931997 136.206742 
L 183.028655 134.355293 
L 183.16889 134.414119 
L 183.228747 133.942659 
L 183.270692 134.030336 
L 183.509309 135.83701 
L 183.731437 133.892916 
L 183.990003 134.795931 
L 184.149608 134.675072 
L 184.310767 131.963821 
L 184.489157 133.406891 
L 184.609995 133.741317 
L 184.751198 131.788882 
L 184.954799 133.104387 
L 184.989097 132.838808 
L 185.230934 131.115182 
L 185.548938 134.656776 
L 185.628942 135.105482 
L 185.809224 133.630876 
L 186.051366 136.621394 
L 186.068014 136.257651 
L 186.188275 136.160345 
L 186.548905 137.998669 
L 186.84874 140.792133 
L 186.968775 139.834316 
L 187.047825 139.714208 
L 187.147817 140.610018 
L 187.287056 138.585159 
L 187.367365 138.614353 
L 187.455819 138.868877 
L 187.530751 138.759897 
L 187.619327 138.648608 
L 187.780184 138.931581 
L 187.794784 137.639554 
L 187.873827 138.854743 
L 187.957432 137.865155 
L 188.060205 138.728328 
L 188.117533 140.32539 
L 188.297159 139.376336 
L 188.458009 139.357411 
L 188.657141 141.187853 
L 188.838481 140.822159 
L 188.860263 141.611093 
L 188.962997 141.153765 
L 189.02338 142.068632 
L 189.278413 141.053291 
L 189.350309 140.816316 
L 189.46827 142.23025 
L 189.615932 140.162349 
L 189.869975 134.454823 
L 189.970769 136.151362 
L 190.016194 135.841882 
L 190.11241 136.143974 
L 190.188346 135.809825 
L 190.267661 134.713443 
L 190.34753 134.913969 
L 190.432444 135.824058 
L 190.591047 139.389745 
L 190.687184 140.078174 
L 190.768035 138.537453 
L 191.047458 141.859576 
L 191.110457 141.349582 
L 191.246509 141.652211 
L 191.428523 140.051575 
L 191.58643 140.856938 
L 191.827122 136.301416 
L 191.926513 136.482848 
L 192.005899 136.784217 
L 192.085848 139.557047 
L 192.169594 138.349413 
L 192.245511 139.039045 
L 192.331052 138.429873 
L 192.572379 140.444941 
L 192.909697 135.396367 
L 192.946994 136.007762 
L 192.989005 135.951401 
L 193.070217 135.153154 
L 193.150911 135.911901 
L 193.408972 134.495833 
L 193.489916 135.210313 
L 193.570058 134.685602 
L 193.89848 136.815632 
L 194.07068 134.362984 
L 194.149425 134.402785 
L 194.228652 133.917293 
L 194.408505 137.385116 
L 194.473079 136.913596 
L 194.569224 136.854619 
L 194.676403 135.441443 
L 194.728116 135.782346 
L 195.131446 138.496108 
L 195.230085 138.821097 
L 195.30817 137.887507 
L 195.467636 139.666795 
L 195.628084 139.187305 
L 195.747404 137.583768 
L 195.807368 138.798727 
L 195.872385 138.503042 
L 195.948506 137.580153 
L 196.128216 138.890923 
L 196.22621 138.49993 
L 196.368222 136.902431 
L 196.546468 137.550032 
L 196.63993 137.447988 
L 196.712947 136.923713 
L 196.80621 137.452393 
L 196.906394 135.658073 
L 196.966243 135.853345 
L 197.026215 135.614838 
L 197.207813 137.878651 
L 197.287236 137.839252 
L 197.407598 137.443627 
L 197.467373 138.07099 
L 197.830019 136.787352 
L 197.850253 137.084308 
L 198.047765 136.276066 
L 198.680793 139.464451 
L 198.86944 137.983928 
L 198.958889 138.987818 
L 199.028307 138.509079 
L 199.349167 139.634356 
L 199.46409 139.53192 
L 199.50739 139.361042 
L 199.607038 138.37512 
L 199.844385 140.366469 
L 200.01164 139.08727 
L 200.084897 139.141914 
L 200.204483 140.439699 
L 200.263779 139.421906 
L 200.404393 140.792919 
L 200.485537 140.769266 
L 200.528194 140.524965 
L 200.604863 138.897553 
L 200.783816 138.835964 
L 201.183948 134.050275 
L 201.319013 134.863124 
L 201.348682 134.776076 
L 201.515879 133.701508 
L 201.590563 134.638171 
L 201.828081 133.715175 
L 201.8452 135.534361 
L 201.905184 135.305302 
L 202.328517 137.772399 
L 202.411171 137.456511 
L 202.495221 139.963944 
L 202.653047 139.677772 
L 202.992578 136.858416 
L 203.070908 136.845562 
L 203.150971 138.327949 
L 203.270185 137.442816 
L 203.38999 135.632751 
L 203.470401 135.691298 
L 203.569951 138.529993 
L 203.711952 138.366489 
L 203.894664 141.186475 
L 203.989572 138.460992 
L 204.069622 138.600464 
L 204.150107 138.538161 
L 204.22999 138.627079 
L 204.310713 137.042664 
L 204.470323 136.130935 
L 204.598124 137.544643 
L 204.779185 135.602698 
L 204.874363 136.554055 
L 204.940399 135.799583 
L 204.974034 137.01925 
L 205.074453 136.343967 
L 205.265419 136.98164 
L 205.394658 136.024547 
L 205.555835 137.863203 
L 205.634055 137.842464 
L 205.742023 139.701964 
L 205.83924 139.292972 
L 205.914472 140.395212 
L 205.973922 140.010654 
L 206.05537 140.255497 
L 206.375061 138.367151 
L 206.731427 142.112975 
L 206.875251 142.571748 
L 207.034224 143.511165 
L 207.201322 141.70609 
L 207.374152 140.061135 
L 207.538262 136.396347 
L 207.704428 137.711464 
L 207.785369 136.883697 
L 207.873065 137.024392 
L 207.938213 136.786949 
L 208.253759 137.2763 
L 208.453956 135.777935 
L 208.554774 135.963812 
L 208.713782 137.515445 
L 208.773956 137.163267 
L 208.873574 137.130029 
L 209.013938 140.349856 
L 209.114092 139.570274 
L 209.255478 139.929169 
L 209.334329 139.432128 
L 209.414223 140.549843 
L 209.614489 139.122001 
L 209.715704 139.438636 
L 209.854942 136.07262 
L 209.933033 137.253422 
L 210.013076 137.456898 
L 210.093996 137.139628 
L 210.19332 135.90272 
L 210.432269 137.160818 
L 210.575097 137.22543 
L 210.67366 136.156875 
L 210.732988 136.818823 
L 210.832156 136.229331 
L 211.032553 137.702127 
L 211.334691 136.009518 
L 211.452134 137.414516 
L 211.532023 136.420024 
L 211.611557 137.093844 
L 211.714939 135.916696 
L 211.772285 136.725205 
L 211.911486 136.285324 
L 212.436379 139.231035 
L 212.612616 140.481456 
L 212.673883 139.755753 
L 212.753879 139.936867 
L 212.833723 139.256947 
L 213.013591 139.960752 
L 213.236205 136.159015 
L 213.401863 134.751773 
L 213.515009 135.453657 
L 213.574815 134.086388 
L 213.664918 134.403296 
L 213.815264 134.070049 
L 214.075658 136.652752 
L 214.234052 136.486695 
L 214.314337 136.153899 
L 214.393913 136.576514 
L 214.493927 135.476575 
L 214.553987 135.874102 
L 214.640383 136.29206 
L 214.735282 135.842205 
L 214.841492 136.148829 
L 214.912391 135.833439 
L 214.972702 136.185828 
L 215.152039 135.266827 
L 215.332816 139.138135 
L 215.453308 139.199603 
L 215.475275 139.000241 
L 215.551705 139.032899 
L 215.712154 139.410057 
L 215.853878 139.385714 
L 215.975141 140.938974 
L 216.157521 138.931007 
L 216.402311 137.775931 
L 216.474481 137.5638 
L 216.553847 138.935731 
L 216.654081 138.878416 
L 216.793956 136.814651 
L 216.888044 137.076933 
L 216.973238 136.781004 
L 217.073257 137.004695 
L 217.155504 137.518517 
L 217.218919 137.199949 
L 217.435486 134.700284 
L 217.45524 134.831581 
L 217.534265 136.7734 
L 217.674262 136.780141 
L 217.954454 133.665202 
L 218.036199 133.150666 
L 218.114428 134.654274 
L 218.192838 134.477117 
L 218.297393 134.54278 
L 218.352881 134.765149 
L 218.536556 136.682902 
L 218.633546 136.962013 
L 218.693269 137.511004 
L 218.861381 141.053044 
L 219.058181 141.135275 
L 219.272897 136.915322 
L 219.464063 137.437454 
L 219.693017 133.908212 
L 219.851962 134.557052 
L 220.091665 137.659303 
L 220.19232 136.673494 
L 220.271453 137.100218 
L 220.431934 136.609587 
L 220.512177 136.766113 
L 220.591408 137.766944 
L 220.694896 137.01782 
L 220.852851 137.323284 
L 220.9334 136.908769 
L 221.012132 137.34265 
L 221.212055 139.691819 
L 221.271208 139.581251 
L 221.372051 139.614444 
L 221.432434 139.165323 
L 221.496163 139.677144 
L 221.590245 139.585463 
L 221.750548 141.158685 
L 221.892222 140.850804 
L 221.930353 138.779565 
L 222.010845 139.596494 
L 222.082314 140.481837 
L 222.250605 138.29561 
L 222.350757 139.290271 
L 222.4103 138.903048 
L 222.569495 136.92117 
L 222.738785 139.37471 
L 222.829882 138.81509 
L 222.90924 137.560443 
L 223.048985 138.210235 
L 223.230479 136.377929 
L 223.312921 138.410642 
L 223.590548 136.340775 
L 223.892345 140.22362 
L 223.989454 140.808699 
L 224.149662 138.52963 
L 224.250103 138.923588 
L 224.40926 137.593154 
L 224.615065 138.775139 
L 224.709492 138.406068 
L 224.728998 138.460277 
L 224.80994 136.842375 
L 224.889341 138.264295 
L 224.968939 137.958152 
L 225.214935 141.217022 
L 225.389209 138.468483 
L 225.470179 138.553839 
L 225.649018 140.049556 
L 225.731424 138.969718 
L 225.889633 139.757336 
L 226.028243 139.327901 
L 226.052917 138.414874 
L 226.149287 138.829718 
L 226.231085 139.610958 
L 226.36979 137.750505 
L 226.468754 138.916593 
L 226.549184 138.632671 
L 226.711644 137.481213 
L 226.789679 138.876246 
L 226.948686 138.529233 
L 227.070548 136.184699 
L 227.11401 136.684561 
L 227.410556 134.573135 
L 227.478229 135.053262 
L 227.529866 134.691146 
L 227.713912 133.327437 
L 227.893192 134.68129 
L 227.952736 134.48089 
L 228.130538 135.603909 
L 228.203984 136.514099 
L 228.292848 135.846734 
L 228.533109 137.678432 
L 228.623974 137.260649 
L 228.778938 138.003259 
L 228.959946 137.252058 
L 229.020285 138.650149 
L 229.128007 138.610451 
L 229.279337 139.146223 
L 229.358197 139.344498 
L 229.498181 139.112392 
L 229.597909 140.025114 
L 229.69809 139.951368 
L 229.839766 138.203584 
L 230.105122 140.12753 
L 230.185681 139.357933 
L 230.25857 139.419613 
L 230.359437 139.232143 
L 230.428643 138.173209 
L 230.741288 140.82546 
L 230.941608 137.391858 
L 231.001351 137.909094 
L 231.181327 136.736414 
L 231.201723 137.832795 
L 231.262863 137.042321 
L 231.501487 134.334681 
L 231.60491 134.921883 
L 231.760589 136.354829 
L 231.841573 136.891768 
L 232.005136 139.527096 
L 232.084377 139.445102 
L 232.344138 140.948343 
L 232.503555 139.504054 
L 232.583638 140.398439 
L 232.8251 136.468703 
L 233.030398 137.96035 
L 233.184893 136.457011 
L 233.265311 137.376962 
L 233.325681 137.031107 
L 233.534028 134.938515 
L 233.54923 135.645751 
L 233.731596 136.24782 
L 233.892264 134.070952 
L 233.97102 134.391058 
L 234.230995 132.541669 
L 234.311138 132.775467 
L 234.391063 133.047117 
L 234.530777 132.314145 
L 234.570231 131.233774 
L 234.809803 133.189535 
L 234.991357 132.521908 
L 235.050114 134.204969 
L 235.152021 133.989419 
L 235.230733 133.286478 
L 235.431095 134.28795 
L 235.550605 133.449009 
L 235.629805 133.405265 
L 235.991281 137.892979 
L 236.120188 137.889566 
L 236.169835 137.763459 
L 236.455617 140.694157 
L 236.571328 140.14583 
L 236.629792 140.372764 
L 236.849463 138.461104 
L 236.912849 138.686962 
L 237.050955 139.858305 
L 237.111907 139.366298 
L 237.234996 139.764209 
L 237.392322 138.448291 
L 237.490829 136.669318 
L 237.53326 139.451261 
L 237.673043 139.821908 
L 237.699781 140.378266 
L 237.956312 137.595773 
L 238.031583 138.686925 
L 238.113318 138.520392 
L 238.192137 138.53571 
L 238.273564 139.200748 
L 238.396213 138.478563 
L 238.544469 135.734004 
L 238.773742 137.073875 
L 238.930541 135.060724 
L 239.028477 136.600159 
L 239.108537 136.423264 
L 239.191612 136.118059 
L 239.207873 137.692435 
L 239.289341 137.646335 
L 239.430138 138.316479 
L 239.507682 137.93994 
L 239.609697 136.355336 
L 239.69177 136.172465 
L 239.767957 137.782942 
L 239.867428 136.94345 
L 240.028171 138.435056 
L 240.147915 138.033467 
L 240.427855 141.266661 
L 240.589122 141.509712 
L 240.873735 139.586641 
L 240.928584 139.286019 
L 241.007989 137.631162 
L 241.128806 137.912228 
L 241.251154 135.887261 
L 241.368362 136.948646 
L 241.471009 135.966538 
L 241.50799 136.762473 
L 241.628241 135.938857 
L 241.690825 134.62526 
L 241.752043 134.855551 
L 241.972408 133.434716 
L 242.05939 134.857047 
L 242.094976 133.944587 
L 242.251673 133.468785 
L 242.412366 134.474414 
L 242.531585 135.5468 
L 242.611876 135.195278 
L 242.913404 138.104187 
L 242.998907 136.240071 
L 243.072435 136.531422 
L 243.250929 136.03055 
L 243.330892 137.322327 
L 243.413286 137.221869 
L 243.57205 138.410985 
L 243.733105 138.920227 
L 243.851974 141.121282 
L 244.099783 139.789147 
L 244.162003 138.408126 
L 244.248703 139.625667 
L 244.259828 138.932562 
L 244.540547 135.543352 
L 244.580395 136.264371 
L 244.66006 134.783818 
L 244.802731 137.241834 
L 244.887759 136.472115 
L 244.979766 137.865277 
L 245.069735 137.085611 
L 245.406507 139.213486 
L 245.541982 140.019747 
L 245.559397 139.72345 
L 245.638703 139.544708 
L 245.72152 140.119531 
L 245.801653 140.100307 
L 246.041146 140.870383 
L 246.198692 140.614375 
L 246.381188 137.308394 
L 246.461657 137.633211 
L 246.541078 137.606717 
L 246.640954 136.983223 
L 246.707094 137.939231 
L 246.724322 137.543247 
L 246.863319 135.144736 
L 246.880709 136.0953 
L 247.012893 136.179273 
L 247.042582 135.45642 
L 247.243177 138.700834 
L 247.384257 136.853278 
L 248.24153 139.826199 
L 248.301592 139.301842 
L 248.501739 140.856395 
L 248.541052 140.307529 
L 248.603394 140.30637 
L 248.683512 140.669572 
L 248.781389 142.606896 
L 249.587996 135.565671 
L 249.601154 134.207579 
L 249.682367 135.149791 
L 249.78077 136.149626 
L 249.841294 135.148919 
L 250.200507 139.48982 
L 250.264892 139.225769 
L 250.340345 139.686865 
L 250.441375 139.667188 
L 250.646973 137.48767 
L 250.680818 139.123666 
L 250.7804 138.768375 
L 250.922981 136.40703 
L 251.259641 139.211039 
L 251.340576 138.806258 
L 251.440072 139.536868 
L 251.501324 139.299141 
L 251.578851 137.802973 
L 251.707337 138.987108 
L 251.828927 138.0146 
L 251.855971 136.863405 
L 251.923019 137.322502 
L 252.083069 135.710245 
L 252.164888 137.496326 
L 252.244634 137.10066 
L 252.325413 136.482215 
L 252.454636 137.898567 
L 252.491323 137.054574 
L 252.568085 137.637589 
L 252.665219 137.681406 
L 252.744678 136.798741 
L 252.906685 137.969199 
L 252.987009 136.434769 
L 253.086304 137.430448 
L 253.165414 136.833514 
L 253.305862 136.856261 
L 253.385969 137.521667 
L 253.425876 136.884188 
L 253.511671 137.844755 
L 253.608755 137.735455 
L 253.726611 136.781232 
L 253.806249 136.616623 
L 253.888647 135.4711 
L 253.986419 136.659056 
L 254.065824 136.42102 
L 254.165199 136.49932 
L 254.253723 136.799562 
L 254.306746 135.018523 
L 254.389926 135.694461 
L 254.487497 135.853401 
L 254.566747 135.13835 
L 254.666704 135.715207 
L 254.726527 137.380809 
L 254.80517 137.360559 
L 255.491921 143.472219 
L 255.648258 140.869452 
L 255.910421 138.324527 
L 256.007583 139.537278 
L 256.048253 138.975771 
L 256.367414 132.97405 
L 256.526386 134.675389 
L 256.626543 133.848439 
L 256.712102 133.882599 
L 256.800492 132.551653 
L 256.966967 134.691714 
L 257.206442 139.039981 
L 257.287271 138.210564 
L 257.368409 140.587422 
L 257.466219 140.258134 
L 257.567037 140.277231 
L 257.628098 141.765581 
L 257.688914 139.776386 
L 257.707234 140.866744 
L 257.786474 141.420039 
L 258.052943 139.962356 
L 258.210861 140.503177 
L 258.228173 138.868951 
L 258.292494 139.736106 
L 258.35341 140.343508 
L 258.448354 137.786189 
L 258.528938 138.519786 
L 258.739898 137.322505 
L 258.877715 138.501672 
L 258.939323 137.899878 
L 259.018953 137.986519 
L 259.199871 136.683351 
L 259.277759 137.640561 
L 259.44641 137.206456 
L 259.52457 137.376351 
L 259.661243 136.084665 
L 259.757277 138.35418 
L 259.877574 138.229885 
L 260.07887 136.83145 
L 260.118931 136.793771 
L 260.17949 137.838037 
L 260.341208 136.533865 
L 260.478389 136.479984 
L 260.638307 133.547938 
L 260.757728 133.484761 
L 260.838613 134.472962 
L 260.918438 135.762153 
L 261.001974 134.717685 
L 261.113352 135.914822 
L 261.258482 134.726434 
L 261.583599 137.115669 
L 261.75894 135.151982 
L 261.858078 136.642861 
L 261.926804 135.918731 
L 262.083363 139.412911 
L 262.199266 138.074738 
L 262.258558 138.141192 
L 262.498917 141.491323 
L 262.578134 141.102589 
L 262.657768 140.801266 
L 262.738137 140.959748 
L 262.823017 139.869724 
L 262.998558 140.177734 
L 263.179474 139.115269 
L 263.421757 136.744029 
L 263.498467 136.247751 
L 263.51679 136.364564 
L 263.577921 137.144144 
L 263.637401 137.09198 
L 263.816998 136.715337 
L 263.917682 136.703398 
L 263.977395 136.902018 
L 264.057382 136.480033 
L 264.137458 137.116129 
L 264.236923 137.103243 
L 264.318966 136.26051 
L 264.395912 136.365101 
L 264.656826 134.48364 
L 264.716406 134.772479 
L 264.862118 134.692796 
L 264.977399 135.685891 
L 265.274835 137.100683 
L 265.297137 136.801985 
L 265.377053 137.201079 
L 265.475832 138.951952 
L 265.636831 138.04478 
L 265.800212 139.201213 
L 266.079257 137.878389 
L 266.239439 138.542296 
L 266.298925 137.482992 
L 266.499119 140.084307 
L 266.560452 140.004595 
L 266.65946 138.755985 
L 266.800954 139.91855 
L 266.97938 139.426614 
L 267.280834 136.542786 
L 267.320718 136.898442 
L 267.380249 136.577715 
L 267.599761 136.042023 
L 267.860343 138.596451 
L 268.022892 139.471917 
L 268.119704 138.580505 
L 268.1997 138.867179 
L 268.361152 139.956983 
L 268.441382 139.653677 
L 268.679608 137.844252 
L 269.077338 139.283918 
L 269.256951 135.116295 
L 269.336485 134.970764 
L 269.460716 136.387399 
L 269.596819 138.342076 
L 269.864023 136.825931 
L 270.096637 141.076875 
L 270.275469 140.376417 
L 270.355613 140.347855 
L 270.498835 138.345068 
L 270.756538 139.767817 
L 271.195421 136.283228 
L 271.296865 137.635921 
L 271.335226 136.967972 
L 271.450143 136.041974 
L 271.496725 136.225502 
L 271.581766 136.654411 
L 271.70931 135.640321 
L 271.750752 134.221552 
L 271.768679 136.478783 
L 271.836361 136.634798 
L 271.915234 136.101525 
L 272.002143 136.442522 
L 272.073045 136.233151 
L 272.173624 138.126003 
L 272.23389 137.555674 
L 272.432684 135.5489 
L 272.613694 139.987973 
L 272.656209 137.560277 
L 272.873669 139.33187 
L 272.912427 138.523077 
L 272.99344 138.940444 
L 273.152548 140.295758 
L 273.31935 140.040443 
L 273.39518 138.887865 
L 273.574421 139.630918 
L 273.893224 136.273328 
L 273.972586 135.926551 
L 274.070898 136.611408 
L 274.31094 134.606496 
L 274.391103 133.582824 
L 274.558317 135.973237 
L 274.631433 135.63389 
L 274.734135 135.492116 
L 274.810414 135.709861 
L 275.130374 137.483706 
L 275.371227 136.314834 
L 275.62952 137.537136 
L 275.791572 137.067627 
L 276.0499 138.264525 
L 276.13158 137.689075 
L 276.212159 137.911696 
L 276.37007 139.635613 
L 276.532048 137.293303 
L 276.611194 138.350869 
L 276.873601 136.667674 
L 277.031547 139.197048 
L 277.134842 138.060588 
L 277.15148 138.262062 
L 277.231523 138.328994 
L 277.353359 140.290653 
L 277.450674 139.598135 
L 277.551975 140.279298 
L 277.612357 142.016183 
L 277.731026 141.76015 
L 277.856357 139.669444 
L 277.951764 140.145503 
L 278.19131 138.574612 
L 278.270753 139.672768 
L 278.364767 139.343751 
L 278.371995 136.283354 
L 278.45084 138.258442 
L 278.555289 138.116968 
L 278.770854 137.575142 
L 278.929955 137.391174 
L 279.029635 139.095729 
L 279.090707 138.796481 
L 279.270555 137.872502 
L 279.450237 138.93574 
L 279.591555 136.60831 
L 279.72943 137.020791 
L 279.790846 136.411648 
L 279.869575 134.497739 
L 279.9911 134.439246 
L 280.008925 133.909272 
L 280.070458 134.930818 
L 280.109429 133.969006 
L 280.250466 133.355267 
L 280.44877 135.744638 
L 280.509158 135.264093 
L 280.67248 136.721011 
L 280.760373 135.968734 
L 280.830195 136.227968 
L 280.912033 136.460557 
L 281.008951 137.819196 
L 281.169209 137.604306 
L 281.236498 138.679812 
L 281.27428 137.350604 
L 281.330181 137.724643 
L 281.471423 136.489238 
L 281.510156 136.807193 
L 281.597724 137.141017 
L 281.751333 135.751492 
L 281.858732 135.080559 
L 282.032274 136.107536 
L 282.070185 136.301672 
L 282.211201 135.924446 
L 282.232156 136.097865 
L 282.351195 134.902 
L 282.410092 134.922921 
L 282.830213 133.530967 
L 282.990446 135.999876 
L 283.090529 136.41083 
L 283.230139 139.350864 
L 283.489754 142.537218 
L 283.630524 142.425905 
L 283.809678 139.06874 
L 283.831061 139.273616 
L 283.909904 139.788225 
L 284.149212 137.103716 
L 284.229289 137.239473 
L 284.321975 136.747102 
L 284.40886 135.136118 
L 284.429999 135.338166 
L 284.571493 139.158083 
L 284.631102 138.716386 
L 284.729319 136.762661 
L 284.809191 137.627741 
L 285.069578 136.066318 
L 285.12987 136.843226 
L 285.209088 136.200844 
L 285.489801 133.192791 
L 285.549429 135.242321 
L 285.629446 134.193644 
L 286.133009 139.555219 
L 286.291778 140.18384 
L 286.392449 138.893383 
L 286.51125 140.091431 
L 286.631067 138.099189 
L 286.814473 136.029475 
L 286.954934 134.815236 
L 287.032825 135.418437 
L 287.292487 133.567813 
L 287.532109 137.715842 
L 287.694056 138.162441 
L 287.973786 135.073228 
L 288.112277 136.676218 
L 288.351504 134.825891 
L 288.432541 136.05203 
L 288.511338 135.391683 
L 288.608842 135.663586 
L 288.687912 135.590869 
L 288.928483 139.070053 
L 289.107138 137.362883 
L 289.427281 140.227401 
L 289.50561 142.004153 
L 289.585761 141.380897 
L 289.765112 140.455089 
L 289.84502 140.589937 
L 290.007962 141.510894 
L 290.165341 138.581797 
L 290.24622 138.954465 
L 290.329165 137.401757 
L 290.425866 137.461441 
L 290.584476 136.578545 
L 290.666592 137.551551 
L 290.744588 137.157351 
L 290.827312 135.191521 
L 290.907465 135.217733 
L 291.164965 136.179111 
L 291.24482 135.317722 
L 291.333606 135.406495 
L 291.492707 134.918062 
L 291.611413 134.740856 
L 291.824116 136.930398 
L 291.904095 135.912377 
L 291.984262 136.271257 
L 292.264018 138.251335 
L 292.324487 137.818148 
L 292.525946 138.685773 
L 292.647954 136.472882 
L 292.743617 137.171218 
L 292.964852 135.562157 
L 293.024042 134.045832 
L 293.083382 134.678969 
L 293.18448 134.685328 
L 293.323527 136.615767 
L 293.464792 136.999901 
L 293.663802 136.685733 
L 293.836647 139.20815 
L 293.88359 139.200371 
L 293.993432 139.338889 
L 294.114161 138.302367 
L 294.153177 139.560705 
L 294.253572 139.36169 
L 294.553145 142.03446 
L 294.63268 142.738779 
L 294.973484 137.929558 
L 295.052702 139.00514 
L 295.212695 138.503698 
L 295.471914 136.012462 
L 295.671461 137.634768 
L 295.711637 138.917635 
L 295.831814 139.120629 
L 295.89177 137.774973 
L 296.052259 138.772797 
L 296.13226 138.160772 
L 296.213274 138.679214 
L 296.451793 138.269971 
L 296.631596 135.983256 
L 296.712588 137.193321 
L 296.95047 133.623844 
L 297.039034 134.492826 
L 297.120484 134.170946 
L 297.240996 135.101744 
L 297.282804 134.429141 
L 297.36497 134.882413 
L 297.44653 134.879048 
L 297.539787 133.18017 
L 297.78029 135.042693 
L 297.901854 134.548567 
L 297.984558 134.772063 
L 298.040872 133.886582 
L 298.10055 134.249834 
L 298.484707 138.236194 
L 298.520824 137.476856 
L 298.600415 139.264988 
L 298.781002 138.776439 
L 298.942092 141.944475 
L 299.064841 141.473068 
L 299.201997 140.275508 
L 299.269729 138.043696 
L 299.343583 139.337226 
L 299.422433 138.118435 
L 299.56288 138.870202 
L 299.745218 137.544971 
L 299.795594 136.918677 
L 299.863825 137.362938 
L 299.925094 137.546002 
L 300.162743 138.939871 
L 300.182659 138.427999 
L 300.504202 141.481428 
L 300.585239 140.9519 
L 300.683758 141.043586 
L 300.913979 140.539306 
L 301.007411 139.869536 
L 301.171159 139.543426 
L 301.203506 138.81957 
L 301.26425 139.259555 
L 301.427195 137.024971 
L 301.504303 137.371956 
L 301.592015 138.32701 
L 301.665483 137.971596 
L 301.856455 140.579496 
L 301.936681 140.024121 
L 302.089175 139.215037 
L 302.168113 139.365262 
L 302.249559 139.670237 
L 302.426465 137.830389 
L 302.566303 137.104562 
L 302.65208 136.048619 
L 302.826192 136.563779 
L 302.927216 137.252522 
L 303.086493 136.49073 
L 303.148327 137.578619 
L 303.289511 137.305999 
L 303.509412 139.235545 
L 303.587358 138.808508 
L 303.731138 139.414692 
L 303.82643 139.143322 
L 304.069903 140.282538 
L 304.166876 140.145373 
L 304.286451 140.327648 
L 304.386482 137.868801 
L 304.470685 138.857986 
L 304.548119 137.974076 
L 304.627666 138.708666 
L 304.646551 139.918419 
L 304.726887 138.307821 
L 305.067721 134.858464 
L 305.127152 135.614515 
L 305.247217 135.99748 
L 305.3268 134.40565 
L 305.390897 134.993929 
L 305.488399 135.215506 
L 305.573096 136.75912 
L 305.786742 134.786881 
L 305.848019 136.616087 
L 306.328732 138.994319 
L 306.43225 137.111666 
L 306.526569 137.690335 
L 306.645885 137.45811 
L 306.705493 138.498213 
L 306.786576 137.292121 
L 306.895067 137.532172 
L 306.952545 138.211474 
L 307.031281 136.988544 
L 307.44687 139.867446 
L 307.546021 137.909355 
L 307.700185 138.399655 
L 307.70897 138.872125 
L 307.7861 137.669134 
L 307.865684 138.270992 
L 307.992542 138.312272 
L 308.106245 137.149996 
L 308.185633 137.224779 
L 308.285844 136.417588 
L 308.348291 136.950588 
L 308.448098 136.104685 
L 308.525287 134.20172 
L 308.605753 134.718545 
L 308.68545 135.641962 
L 308.768672 134.614273 
L 309.02869 137.975567 
L 309.250322 136.798431 
L 309.265298 136.912862 
L 309.445575 140.621092 
L 309.545641 140.600299 
L 309.604839 140.859848 
L 309.704904 139.883164 
L 309.847669 136.032118 
L 310.004125 136.514742 
L 310.104647 138.851511 
L 310.53424 133.163399 
L 310.631438 133.293146 
L 310.752568 132.069798 
L 310.912107 129.661048 
L 311.070395 130.220599 
L 311.172756 133.579984 
L 311.331628 134.344856 
L 311.393505 133.681908 
L 311.718517 139.546958 
L 312.011805 136.568618 
L 312.191418 138.496066 
L 312.318745 137.867067 
L 312.47766 135.049577 
L 312.581611 136.948296 
L 312.697073 136.795026 
L 312.817216 138.827236 
L 312.987943 138.755565 
L 313.05718 138.727445 
L 313.158665 140.304857 
L 313.250955 141.750811 
L 313.321316 141.534194 
L 313.520088 140.829962 
L 313.678512 138.223977 
L 313.678665 134.249715 
L 313.746021 136.750319 
L 313.818661 136.844494 
L 313.918405 136.689175 
L 313.998781 136.82156 
L 314.239189 134.699315 
L 314.36832 134.118204 
L 314.400418 135.82004 
L 314.482497 135.684491 
L 314.79899 135.657081 
L 314.879856 134.596847 
L 314.921714 135.47271 
L 315.006992 135.403367 
L 315.158474 135.931102 
L 315.312378 137.195022 
L 315.538138 136.46792 
L 315.639453 137.826925 
L 315.878442 136.99017 
L 315.959499 136.82035 
L 316.137167 134.625321 
L 316.228731 135.530989 
L 316.29824 135.185462 
L 316.491082 134.099748 
L 316.558481 132.903639 
L 316.623671 132.420809 
L 316.718676 132.56634 
L 316.843851 133.831305 
L 316.918483 133.601113 
L 317.121102 132.735005 
L 317.277113 133.422731 
L 317.417529 133.11907 
L 317.616871 131.010135 
L 317.697 132.798785 
L 317.836828 133.325958 
L 317.857191 132.82495 
L 317.939967 133.450729 
L 318.14311 133.59056 
L 318.43784 137.840781 
L 318.637709 136.304933 
L 318.856988 138.11474 
L 318.977195 138.518745 
L 319.281609 136.273149 
L 319.42768 138.787545 
L 319.536163 138.947926 
L 319.596645 138.234329 
L 319.716043 138.187736 
L 320.016599 139.640325 
L 320.096055 141.39811 
L 320.175395 140.70189 
L 320.356293 141.779512 
L 320.425735 141.967809 
L 320.595954 140.572094 
L 320.755602 141.463554 
L 321.238487 133.902923 
L 321.332009 134.030388 
L 321.515557 135.705826 
L 321.646141 135.019504 
L 321.835736 138.080836 
L 321.935522 138.597306 
L 322.075825 141.674133 
L 322.19638 141.415665 
L 322.396141 139.475327 
L 322.496575 140.136427 
L 322.616137 139.984929 
L 322.697786 140.460694 
L 322.740084 140.287806 
L 322.995835 138.139124 
L 323.097948 138.188491 
L 323.175235 137.817764 
L 323.315681 138.258191 
L 323.556157 135.612541 
L 323.675503 136.978799 
L 323.73515 135.762606 
L 323.8371 136.899423 
L 323.894895 136.500434 
L 323.995245 136.456209 
L 324.057763 137.31867 
L 324.154619 136.26705 
L 324.240027 137.054447 
L 324.356618 136.931129 
L 324.434503 137.818432 
L 324.514422 136.567715 
L 324.594709 137.065164 
L 324.654624 136.680453 
L 324.734469 137.31705 
L 324.812683 136.815791 
L 324.914786 137.288729 
L 325.054279 139.073545 
L 325.200788 138.842169 
L 325.297236 137.899228 
L 325.474247 139.126972 
L 325.724556 137.179752 
L 325.794435 136.865389 
L 325.873737 135.870578 
L 326.074221 137.243267 
L 326.133624 139.595967 
L 326.317423 137.62762 
L 326.37464 137.884892 
L 326.453246 137.747749 
L 326.64376 136.589225 
L 326.973702 133.472856 
L 327.033232 133.542036 
L 327.502167 137.033469 
L 327.622399 139.214707 
L 327.786731 138.787532 
L 328.045364 140.202169 
L 328.146872 139.610031 
L 328.19388 138.516626 
L 328.445564 140.646899 
L 328.526981 140.625136 
L 328.767353 139.854719 
L 328.846312 140.344595 
L 328.945555 141.714957 
L 329.007879 141.474486 
L 329.345218 138.897472 
L 329.425324 139.43449 
L 329.684093 137.291697 
L 329.766625 137.264941 
L 329.844877 137.368152 
L 329.92768 137.156492 
L 330.09026 134.950392 
L 330.186272 135.697064 
L 330.265827 135.369148 
L 330.344962 136.324726 
L 330.424689 135.095497 
L 330.506112 135.528608 
L 330.605102 134.485025 
L 330.827119 136.709712 
L 330.925315 137.148941 
L 331.009537 135.624604 
L 331.246381 136.168354 
L 331.42769 135.642387 
L 331.827145 138.126009 
L 331.90738 137.211574 
L 332.068358 137.63113 
L 332.15447 137.109879 
L 332.313913 137.899441 
L 332.487124 136.810143 
L 332.567319 137.378598 
L 332.587213 138.462367 
L 332.648204 136.886672 
L 332.824228 139.166533 
L 332.988102 141.092513 
L 333.067989 140.371243 
L 333.168089 140.247318 
L 333.247069 139.664017 
L 333.307329 139.702436 
L 333.628228 139.810307 
L 333.727739 139.603811 
L 333.866865 138.87067 
L 334.170738 143.028504 
L 334.28755 142.190634 
L 334.386585 142.744401 
L 334.48621 140.102395 
L 334.645894 141.206302 
L 334.709313 140.230056 
L 334.809269 140.580917 
L 334.967232 137.621647 
L 335.067501 137.973753 
L 335.204002 137.958294 
L 335.287211 137.595584 
L 335.364869 135.666973 
L 335.465523 135.77879 
L 335.545771 136.529029 
L 335.626529 134.964783 
L 335.76434 135.229882 
L 335.805076 136.289248 
L 335.904109 136.095739 
L 336.20479 137.477286 
L 336.405933 135.800215 
L 336.565175 136.273979 
L 336.645493 136.235964 
L 336.768164 136.724256 
L 336.923821 135.849377 
L 337.124385 138.379115 
L 337.208787 139.379712 
L 337.284508 139.215905 
L 337.364329 139.251024 
L 337.488033 138.073843 
L 337.687823 139.635803 
L 337.87185 137.781847 
L 338.028262 138.72252 
L 338.144898 138.255823 
L 338.323202 139.796795 
L 338.36948 138.923634 
L 338.453856 139.947215 
L 338.523823 138.875428 
L 338.643272 139.479139 
L 338.682908 140.547644 
L 338.944544 137.961087 
L 339.025092 139.554877 
L 339.143867 137.048338 
L 339.203112 138.205917 
L 339.27027 136.562652 
L 339.344183 136.889956 
L 339.524781 135.770676 
L 339.603468 136.371614 
L 339.665055 137.803286 
L 339.765007 136.645052 
L 339.9219 137.624714 
L 340.082392 136.279352 
L 340.181617 136.514621 
L 340.247433 137.707103 
L 340.342102 136.988676 
L 340.422434 137.04687 
L 340.525029 136.943455 
L 340.782582 138.552578 
L 340.942017 137.245214 
L 341.268618 134.956017 
L 341.432965 135.146084 
L 341.577453 132.759344 
L 341.724315 133.165162 
L 341.743289 135.869335 
L 341.843755 134.922158 
L 341.905983 135.723866 
L 342.00233 135.590968 
L 342.202372 135.194286 
L 342.486823 137.39812 
L 342.602199 136.910173 
L 342.902089 138.701941 
L 343.083907 137.460663 
L 343.147966 137.709783 
L 343.421435 134.704648 
L 343.482031 135.627887 
L 343.562303 135.238266 
L 343.822541 133.47271 
L 343.962147 133.562591 
L 344.141874 135.048973 
L 344.222652 136.648448 
L 344.38353 135.043922 
L 344.483126 136.987367 
L 344.543631 136.394978 
L 344.723379 136.993887 
L 345.12159 131.998091 
L 345.244637 134.365717 
L 345.304506 133.47348 
L 345.465916 134.145428 
L 345.548539 134.082579 
L 345.711464 135.762788 
L 345.787576 137.436267 
L 345.887459 137.210016 
L 346.063468 135.656764 
L 346.187469 135.36987 
L 346.290654 135.632913 
L 346.329388 135.272674 
L 346.449275 133.472483 
L 346.566292 134.103191 
L 346.628613 132.364049 
L 346.788427 134.322014 
L 346.949568 135.345669 
L 346.967692 136.037545 
L 347.088293 134.291955 
L 347.142402 134.772576 
L 347.274279 136.23182 
L 347.366805 135.462101 
L 347.534247 136.229725 
L 347.767398 133.034885 
L 347.866607 132.568903 
L 348.036783 133.575759 
L 348.136431 133.791209 
L 348.616536 137.812874 
L 348.71823 137.950635 
L 348.779997 136.606956 
L 348.890963 136.889732 
L 349.177535 133.240093 
L 349.43713 135.179056 
L 349.516719 136.161701 
L 349.677275 135.091805 
L 349.756513 135.515158 
L 349.877564 135.106828 
L 349.936844 136.840623 
L 350.001327 136.663548 
L 350.17601 134.481802 
L 350.255721 134.868437 
L 350.383593 134.137013 
L 350.537712 136.536536 
L 350.676826 135.689849 
L 350.757517 134.336841 
L 350.877481 134.596819 
L 350.949584 136.655146 
L 351.015859 136.611131 
L 351.097304 135.516744 
L 351.181596 137.211761 
L 351.43775 135.60759 
L 351.51881 135.075771 
L 351.657733 135.285457 
L 351.797934 135.803978 
L 351.837183 134.946511 
L 351.902659 136.147021 
L 351.957681 136.029624 
L 351.997285 134.708205 
L 352.107076 136.032291 
L 352.161304 135.4079 
L 352.319111 135.843509 
L 352.459655 137.018809 
L 352.565896 136.670463 
L 352.719725 136.772706 
L 352.759831 136.163042 
L 352.960614 136.963642 
L 353.038957 135.626835 
L 353.079493 136.411485 
L 353.125336 136.393566 
L 353.159171 135.079128 
L 353.242203 135.798684 
L 353.439725 134.910712 
L 353.499485 136.404012 
L 353.581428 134.672201 
L 353.638883 134.984176 
L 353.9138 137.995555 
L 354.005328 137.366721 
L 354.082547 138.300661 
L 354.480537 135.63548 
L 354.700363 132.301692 
L 354.71952 132.909079 
" clip-path="url(#p927119be05)" style="fill: none; stroke: #ff0000; stroke-opacity: 0.5; stroke-width: 2.1; stroke-linecap: square"/>
   </g>
   <g id="patch_3">
    <path d="M 30.123125 148.36327 
L 30.123125 0.72 
" style="fill: none; stroke: #000000; stroke-width: 0.8; stroke-linejoin: miter; stroke-linecap: square"/>
   </g>
   <g id="patch_4">
    <path d="M 354.71952 148.36327 
L 354.71952 0.72 
" style="fill: none; stroke: #000000; stroke-width: 0.8; stroke-linejoin: miter; stroke-linecap: square"/>
   </g>
   <g id="patch_5">
    <path d="M 30.123125 148.36327 
L 354.71952 148.36327 
" style="fill: none; stroke: #000000; stroke-width: 0.8; stroke-linejoin: miter; stroke-linecap: square"/>
   </g>
   <g id="patch_6">
    <path d="M 30.123125 0.72 
L 354.71952 0.72 
" style="fill: none; stroke: #000000; stroke-width: 0.8; stroke-linejoin: miter; stroke-linecap: square"/>
   </g>
   <g id="legend_1">
    <g id="patch_7">
     <path d="M 273.95077 38.07625 
L 347.71952 38.07625 
Q 349.71952 38.07625 349.71952 36.07625 
L 349.71952 7.72 
Q 349.71952 5.72 347.71952 5.72 
L 273.95077 5.72 
Q 271.95077 5.72 271.95077 7.72 
L 271.95077 36.07625 
Q 271.95077 38.07625 273.95077 38.07625 
z
" style="fill: #ffffff; opacity: 0.8; stroke: #cccccc; stroke-linejoin: miter"/>
    </g>
    <g id="line2d_29">
     <path d="M 275.95077 13.818437 
L 285.95077 13.818437 
L 295.95077 13.818437 
" style="fill: none; stroke: #0000ff; stroke-opacity: 0.5; stroke-width: 2.1; stroke-linecap: square"/>
    </g>
    <g id="text_16">
     <!-- RNEA -->
     <g transform="translate(303.95077 17.318437) scale(0.1 -0.1)">
      <defs>
       <path id="DejaVuSans-52" d="M 2841 2188 
Q 3044 2119 3236 1894 
Q 3428 1669 3622 1275 
L 4263 0 
L 3584 0 
L 2988 1197 
Q 2756 1666 2539 1819 
Q 2322 1972 1947 1972 
L 1259 1972 
L 1259 0 
L 628 0 
L 628 4666 
L 2053 4666 
Q 2853 4666 3247 4331 
Q 3641 3997 3641 3322 
Q 3641 2881 3436 2590 
Q 3231 2300 2841 2188 
z
M 1259 4147 
L 1259 2491 
L 2053 2491 
Q 2509 2491 2742 2702 
Q 2975 2913 2975 3322 
Q 2975 3731 2742 3939 
Q 2509 4147 2053 4147 
L 1259 4147 
z
" transform="scale(0.015625)"/>
       <path id="DejaVuSans-45" d="M 628 4666 
L 3578 4666 
L 3578 4134 
L 1259 4134 
L 1259 2753 
L 3481 2753 
L 3481 2222 
L 1259 2222 
L 1259 531 
L 3634 531 
L 3634 0 
L 628 0 
L 628 4666 
z
" transform="scale(0.015625)"/>
       <path id="DejaVuSans-41" d="M 2188 4044 
L 1331 1722 
L 3047 1722 
L 2188 4044 
z
M 1831 4666 
L 2547 4666 
L 4325 0 
L 3669 0 
L 3244 1197 
L 1141 1197 
L 716 0 
L 50 0 
L 1831 4666 
z
" transform="scale(0.015625)"/>
      </defs>
      <use xlink:href="#DejaVuSans-52"/>
      <use xlink:href="#DejaVuSans-4e" x="69.482422"/>
      <use xlink:href="#DejaVuSans-45" x="144.287109"/>
      <use xlink:href="#DejaVuSans-41" x="207.470703"/>
     </g>
    </g>
    <g id="line2d_30">
     <path d="M 275.95077 28.496562 
L 285.95077 28.496562 
L 295.95077 28.496562 
" style="fill: none; stroke: #ff0000; stroke-opacity: 0.5; stroke-width: 2.1; stroke-linecap: square"/>
    </g>
    <g id="text_17">
     <!-- BURNEA -->
     <g transform="translate(303.95077 31.996562) scale(0.1 -0.1)">
      <defs>
       <path id="DejaVuSans-42" d="M 1259 2228 
L 1259 519 
L 2272 519 
Q 2781 519 3026 730 
Q 3272 941 3272 1375 
Q 3272 1813 3026 2020 
Q 2781 2228 2272 2228 
L 1259 2228 
z
M 1259 4147 
L 1259 2741 
L 2194 2741 
Q 2656 2741 2882 2914 
Q 3109 3088 3109 3444 
Q 3109 3797 2882 3972 
Q 2656 4147 2194 4147 
L 1259 4147 
z
M 628 4666 
L 2241 4666 
Q 2963 4666 3353 4366 
Q 3744 4066 3744 3513 
Q 3744 3084 3544 2831 
Q 3344 2578 2956 2516 
Q 3422 2416 3680 2098 
Q 3938 1781 3938 1306 
Q 3938 681 3513 340 
Q 3088 0 2303 0 
L 628 0 
L 628 4666 
z
" transform="scale(0.015625)"/>
       <path id="DejaVuSans-55" d="M 556 4666 
L 1191 4666 
L 1191 1831 
Q 1191 1081 1462 751 
Q 1734 422 2344 422 
Q 2950 422 3222 751 
Q 3494 1081 3494 1831 
L 3494 4666 
L 4128 4666 
L 4128 1753 
Q 4128 841 3676 375 
Q 3225 -91 2344 -91 
Q 1459 -91 1007 375 
Q 556 841 556 1753 
L 556 4666 
z
" transform="scale(0.015625)"/>
      </defs>
      <use xlink:href="#DejaVuSans-42"/>
      <use xlink:href="#DejaVuSans-55" x="68.603516"/>
      <use xlink:href="#DejaVuSans-52" x="141.796875"/>
      <use xlink:href="#DejaVuSans-4e" x="211.279297"/>
      <use xlink:href="#DejaVuSans-45" x="286.083984"/>
      <use xlink:href="#DejaVuSans-41" x="349.267578"/>
     </g>
    </g>
   </g>
  </g>
 </g>
 <defs>
  <clipPath id="p927119be05">
   <rect x="30.123125" y="0.72" width="324.596395" height="147.64327"/>
  </clipPath>
 </defs>
</svg>
