<?xml version="1.0" encoding="utf-8" standalone="no"?>
<!DOCTYPE svg PUBLIC "-//W3C//DTD SVG 1.1//EN"
  "http://www.w3.org/Graphics/SVG/1.1/DTD/svg11.dtd">
<svg xmlns:xlink="http://www.w3.org/1999/xlink" width="597.222813pt" height="304.99625pt" viewBox="0 0 597.222813 304.99625" xmlns="http://www.w3.org/2000/svg" version="1.1">
 <metadata>
  <rdf:RDF xmlns:dc="http://purl.org/dc/elements/1.1/" xmlns:cc="http://creativecommons.org/ns#" xmlns:rdf="http://www.w3.org/1999/02/22-rdf-syntax-ns#">
   <cc:Work>
    <dc:type rdf:resource="http://purl.org/dc/dcmitype/StillImage"/>
    <dc:date>2023-09-05T13:16:54.984354</dc:date>
    <dc:format>image/svg+xml</dc:format>
    <dc:creator>
     <cc:Agent>
      <dc:title>Matplotlib v3.7.2, https://matplotlib.org/</dc:title>
     </cc:Agent>
    </dc:creator>
   </cc:Work>
  </rdf:RDF>
 </metadata>
 <defs>
  <style type="text/css">*{stroke-linejoin: round; stroke-linecap: butt}</style>
 </defs>
 <g id="figure_1">
  <g id="patch_1">
   <path d="M 0 304.99625 
L 597.222813 304.99625 
L 597.222813 0 
L 0 0 
L 0 304.99625 
z
" style="fill: none"/>
  </g>
  <g id="axes_1">
   <g id="patch_2">
    <path d="M 38.502813 277.92 
L 596.502813 277.92 
L 596.502813 0.72 
L 38.502813 0.72 
L 38.502813 277.92 
z
" style="fill: none"/>
   </g>
   <g id="matplotlib.axis_1">
    <g id="xtick_1">
     <g id="line2d_1">
      <path d="M 38.502813 277.92 
L 38.502813 0.72 
" clip-path="url(#pf41e579b60)" style="fill: none; stroke-dasharray: 0.8,1.32; stroke-dashoffset: 0; stroke: #000000; stroke-opacity: 0.5; stroke-width: 0.8"/>
     </g>
     <g id="line2d_2">
      <defs>
       <path id="ma3e1638f70" d="M 0 0 
L 0 3.5 
" style="stroke: #000000; stroke-width: 0.8"/>
      </defs>
      <g>
       <use xlink:href="#ma3e1638f70" x="38.502813" y="277.92" style="stroke: #000000; stroke-width: 0.8"/>
      </g>
     </g>
     <g id="text_1">
      <!-- 0.0 -->
      <g transform="translate(30.55125 292.518438) scale(0.1 -0.1)">
       <defs>
        <path id="DejaVuSans-30" d="M 2034 4250 
Q 1547 4250 1301 3770 
Q 1056 3291 1056 2328 
Q 1056 1369 1301 889 
Q 1547 409 2034 409 
Q 2525 409 2770 889 
Q 3016 1369 3016 2328 
Q 3016 3291 2770 3770 
Q 2525 4250 2034 4250 
z
M 2034 4750 
Q 2819 4750 3233 4129 
Q 3647 3509 3647 2328 
Q 3647 1150 3233 529 
Q 2819 -91 2034 -91 
Q 1250 -91 836 529 
Q 422 1150 422 2328 
Q 422 3509 836 4129 
Q 1250 4750 2034 4750 
z
" transform="scale(0.015625)"/>
        <path id="DejaVuSans-2e" d="M 684 794 
L 1344 794 
L 1344 0 
L 684 0 
L 684 794 
z
" transform="scale(0.015625)"/>
       </defs>
       <use xlink:href="#DejaVuSans-30"/>
       <use xlink:href="#DejaVuSans-2e" x="63.623047"/>
       <use xlink:href="#DejaVuSans-30" x="95.410156"/>
      </g>
     </g>
    </g>
    <g id="xtick_2">
     <g id="line2d_3">
      <path d="M 112.654137 277.92 
L 112.654137 0.72 
" clip-path="url(#pf41e579b60)" style="fill: none; stroke-dasharray: 0.8,1.32; stroke-dashoffset: 0; stroke: #000000; stroke-opacity: 0.5; stroke-width: 0.8"/>
     </g>
     <g id="line2d_4">
      <g>
       <use xlink:href="#ma3e1638f70" x="112.654137" y="277.92" style="stroke: #000000; stroke-width: 0.8"/>
      </g>
     </g>
     <g id="text_2">
      <!-- 2.5 -->
      <g transform="translate(104.702575 292.518438) scale(0.1 -0.1)">
       <defs>
        <path id="DejaVuSans-32" d="M 1228 531 
L 3431 531 
L 3431 0 
L 469 0 
L 469 531 
Q 828 903 1448 1529 
Q 2069 2156 2228 2338 
Q 2531 2678 2651 2914 
Q 2772 3150 2772 3378 
Q 2772 3750 2511 3984 
Q 2250 4219 1831 4219 
Q 1534 4219 1204 4116 
Q 875 4013 500 3803 
L 500 4441 
Q 881 4594 1212 4672 
Q 1544 4750 1819 4750 
Q 2544 4750 2975 4387 
Q 3406 4025 3406 3419 
Q 3406 3131 3298 2873 
Q 3191 2616 2906 2266 
Q 2828 2175 2409 1742 
Q 1991 1309 1228 531 
z
" transform="scale(0.015625)"/>
        <path id="DejaVuSans-35" d="M 691 4666 
L 3169 4666 
L 3169 4134 
L 1269 4134 
L 1269 2991 
Q 1406 3038 1543 3061 
Q 1681 3084 1819 3084 
Q 2600 3084 3056 2656 
Q 3513 2228 3513 1497 
Q 3513 744 3044 326 
Q 2575 -91 1722 -91 
Q 1428 -91 1123 -41 
Q 819 9 494 109 
L 494 744 
Q 775 591 1075 516 
Q 1375 441 1709 441 
Q 2250 441 2565 725 
Q 2881 1009 2881 1497 
Q 2881 1984 2565 2268 
Q 2250 2553 1709 2553 
Q 1456 2553 1204 2497 
Q 953 2441 691 2322 
L 691 4666 
z
" transform="scale(0.015625)"/>
       </defs>
       <use xlink:href="#DejaVuSans-32"/>
       <use xlink:href="#DejaVuSans-2e" x="63.623047"/>
       <use xlink:href="#DejaVuSans-35" x="95.410156"/>
      </g>
     </g>
    </g>
    <g id="xtick_3">
     <g id="line2d_5">
      <path d="M 186.805462 277.92 
L 186.805462 0.72 
" clip-path="url(#pf41e579b60)" style="fill: none; stroke-dasharray: 0.8,1.32; stroke-dashoffset: 0; stroke: #000000; stroke-opacity: 0.5; stroke-width: 0.8"/>
     </g>
     <g id="line2d_6">
      <g>
       <use xlink:href="#ma3e1638f70" x="186.805462" y="277.92" style="stroke: #000000; stroke-width: 0.8"/>
      </g>
     </g>
     <g id="text_3">
      <!-- 5.0 -->
      <g transform="translate(178.8539 292.518438) scale(0.1 -0.1)">
       <use xlink:href="#DejaVuSans-35"/>
       <use xlink:href="#DejaVuSans-2e" x="63.623047"/>
       <use xlink:href="#DejaVuSans-30" x="95.410156"/>
      </g>
     </g>
    </g>
    <g id="xtick_4">
     <g id="line2d_7">
      <path d="M 260.956787 277.92 
L 260.956787 0.72 
" clip-path="url(#pf41e579b60)" style="fill: none; stroke-dasharray: 0.8,1.32; stroke-dashoffset: 0; stroke: #000000; stroke-opacity: 0.5; stroke-width: 0.8"/>
     </g>
     <g id="line2d_8">
      <g>
       <use xlink:href="#ma3e1638f70" x="260.956787" y="277.92" style="stroke: #000000; stroke-width: 0.8"/>
      </g>
     </g>
     <g id="text_4">
      <!-- 7.5 -->
      <g transform="translate(253.005225 292.518438) scale(0.1 -0.1)">
       <defs>
        <path id="DejaVuSans-37" d="M 525 4666 
L 3525 4666 
L 3525 4397 
L 1831 0 
L 1172 0 
L 2766 4134 
L 525 4134 
L 525 4666 
z
" transform="scale(0.015625)"/>
       </defs>
       <use xlink:href="#DejaVuSans-37"/>
       <use xlink:href="#DejaVuSans-2e" x="63.623047"/>
       <use xlink:href="#DejaVuSans-35" x="95.410156"/>
      </g>
     </g>
    </g>
    <g id="xtick_5">
     <g id="line2d_9">
      <path d="M 335.108112 277.92 
L 335.108112 0.72 
" clip-path="url(#pf41e579b60)" style="fill: none; stroke-dasharray: 0.8,1.32; stroke-dashoffset: 0; stroke: #000000; stroke-opacity: 0.5; stroke-width: 0.8"/>
     </g>
     <g id="line2d_10">
      <g>
       <use xlink:href="#ma3e1638f70" x="335.108112" y="277.92" style="stroke: #000000; stroke-width: 0.8"/>
      </g>
     </g>
     <g id="text_5">
      <!-- 10.0 -->
      <g transform="translate(323.9753 292.518438) scale(0.1 -0.1)">
       <defs>
        <path id="DejaVuSans-31" d="M 794 531 
L 1825 531 
L 1825 4091 
L 703 3866 
L 703 4441 
L 1819 4666 
L 2450 4666 
L 2450 531 
L 3481 531 
L 3481 0 
L 794 0 
L 794 531 
z
" transform="scale(0.015625)"/>
       </defs>
       <use xlink:href="#DejaVuSans-31"/>
       <use xlink:href="#DejaVuSans-30" x="63.623047"/>
       <use xlink:href="#DejaVuSans-2e" x="127.246094"/>
       <use xlink:href="#DejaVuSans-30" x="159.033203"/>
      </g>
     </g>
    </g>
    <g id="xtick_6">
     <g id="line2d_11">
      <path d="M 409.259437 277.92 
L 409.259437 0.72 
" clip-path="url(#pf41e579b60)" style="fill: none; stroke-dasharray: 0.8,1.32; stroke-dashoffset: 0; stroke: #000000; stroke-opacity: 0.5; stroke-width: 0.8"/>
     </g>
     <g id="line2d_12">
      <g>
       <use xlink:href="#ma3e1638f70" x="409.259437" y="277.92" style="stroke: #000000; stroke-width: 0.8"/>
      </g>
     </g>
     <g id="text_6">
      <!-- 12.5 -->
      <g transform="translate(398.126625 292.518438) scale(0.1 -0.1)">
       <use xlink:href="#DejaVuSans-31"/>
       <use xlink:href="#DejaVuSans-32" x="63.623047"/>
       <use xlink:href="#DejaVuSans-2e" x="127.246094"/>
       <use xlink:href="#DejaVuSans-35" x="159.033203"/>
      </g>
     </g>
    </g>
    <g id="xtick_7">
     <g id="line2d_13">
      <path d="M 483.410762 277.92 
L 483.410762 0.72 
" clip-path="url(#pf41e579b60)" style="fill: none; stroke-dasharray: 0.8,1.32; stroke-dashoffset: 0; stroke: #000000; stroke-opacity: 0.5; stroke-width: 0.8"/>
     </g>
     <g id="line2d_14">
      <g>
       <use xlink:href="#ma3e1638f70" x="483.410762" y="277.92" style="stroke: #000000; stroke-width: 0.8"/>
      </g>
     </g>
     <g id="text_7">
      <!-- 15.0 -->
      <g transform="translate(472.27795 292.518438) scale(0.1 -0.1)">
       <use xlink:href="#DejaVuSans-31"/>
       <use xlink:href="#DejaVuSans-35" x="63.623047"/>
       <use xlink:href="#DejaVuSans-2e" x="127.246094"/>
       <use xlink:href="#DejaVuSans-30" x="159.033203"/>
      </g>
     </g>
    </g>
    <g id="xtick_8">
     <g id="line2d_15">
      <path d="M 557.562087 277.92 
L 557.562087 0.72 
" clip-path="url(#pf41e579b60)" style="fill: none; stroke-dasharray: 0.8,1.32; stroke-dashoffset: 0; stroke: #000000; stroke-opacity: 0.5; stroke-width: 0.8"/>
     </g>
     <g id="line2d_16">
      <g>
       <use xlink:href="#ma3e1638f70" x="557.562087" y="277.92" style="stroke: #000000; stroke-width: 0.8"/>
      </g>
     </g>
     <g id="text_8">
      <!-- 17.5 -->
      <g transform="translate(546.429274 292.518438) scale(0.1 -0.1)">
       <use xlink:href="#DejaVuSans-31"/>
       <use xlink:href="#DejaVuSans-37" x="63.623047"/>
       <use xlink:href="#DejaVuSans-2e" x="127.246094"/>
       <use xlink:href="#DejaVuSans-35" x="159.033203"/>
      </g>
     </g>
    </g>
    <g id="text_9">
     <!-- Zeit [s] -->
     <g transform="translate(299.556719 302.196563) scale(0.1 -0.1)">
      <defs>
       <path id="DejaVuSans-5a" d="M 359 4666 
L 4025 4666 
L 4025 4184 
L 1075 531 
L 4097 531 
L 4097 0 
L 288 0 
L 288 481 
L 3238 4134 
L 359 4134 
L 359 4666 
z
" transform="scale(0.015625)"/>
       <path id="DejaVuSans-65" d="M 3597 1894 
L 3597 1613 
L 953 1613 
Q 991 1019 1311 708 
Q 1631 397 2203 397 
Q 2534 397 2845 478 
Q 3156 559 3463 722 
L 3463 178 
Q 3153 47 2828 -22 
Q 2503 -91 2169 -91 
Q 1331 -91 842 396 
Q 353 884 353 1716 
Q 353 2575 817 3079 
Q 1281 3584 2069 3584 
Q 2775 3584 3186 3129 
Q 3597 2675 3597 1894 
z
M 3022 2063 
Q 3016 2534 2758 2815 
Q 2500 3097 2075 3097 
Q 1594 3097 1305 2825 
Q 1016 2553 972 2059 
L 3022 2063 
z
" transform="scale(0.015625)"/>
       <path id="DejaVuSans-69" d="M 603 3500 
L 1178 3500 
L 1178 0 
L 603 0 
L 603 3500 
z
M 603 4863 
L 1178 4863 
L 1178 4134 
L 603 4134 
L 603 4863 
z
" transform="scale(0.015625)"/>
       <path id="DejaVuSans-74" d="M 1172 4494 
L 1172 3500 
L 2356 3500 
L 2356 3053 
L 1172 3053 
L 1172 1153 
Q 1172 725 1289 603 
Q 1406 481 1766 481 
L 2356 481 
L 2356 0 
L 1766 0 
Q 1100 0 847 248 
Q 594 497 594 1153 
L 594 3053 
L 172 3053 
L 172 3500 
L 594 3500 
L 594 4494 
L 1172 4494 
z
" transform="scale(0.015625)"/>
       <path id="DejaVuSans-20" transform="scale(0.015625)"/>
       <path id="DejaVuSans-5b" d="M 550 4863 
L 1875 4863 
L 1875 4416 
L 1125 4416 
L 1125 -397 
L 1875 -397 
L 1875 -844 
L 550 -844 
L 550 4863 
z
" transform="scale(0.015625)"/>
       <path id="DejaVuSans-73" d="M 2834 3397 
L 2834 2853 
Q 2591 2978 2328 3040 
Q 2066 3103 1784 3103 
Q 1356 3103 1142 2972 
Q 928 2841 928 2578 
Q 928 2378 1081 2264 
Q 1234 2150 1697 2047 
L 1894 2003 
Q 2506 1872 2764 1633 
Q 3022 1394 3022 966 
Q 3022 478 2636 193 
Q 2250 -91 1575 -91 
Q 1294 -91 989 -36 
Q 684 19 347 128 
L 347 722 
Q 666 556 975 473 
Q 1284 391 1588 391 
Q 1994 391 2212 530 
Q 2431 669 2431 922 
Q 2431 1156 2273 1281 
Q 2116 1406 1581 1522 
L 1381 1569 
Q 847 1681 609 1914 
Q 372 2147 372 2553 
Q 372 3047 722 3315 
Q 1072 3584 1716 3584 
Q 2034 3584 2315 3537 
Q 2597 3491 2834 3397 
z
" transform="scale(0.015625)"/>
       <path id="DejaVuSans-5d" d="M 1947 4863 
L 1947 -844 
L 622 -844 
L 622 -397 
L 1369 -397 
L 1369 4416 
L 622 4416 
L 622 4863 
L 1947 4863 
z
" transform="scale(0.015625)"/>
      </defs>
      <use xlink:href="#DejaVuSans-5a"/>
      <use xlink:href="#DejaVuSans-65" x="68.505859"/>
      <use xlink:href="#DejaVuSans-69" x="130.029297"/>
      <use xlink:href="#DejaVuSans-74" x="157.8125"/>
      <use xlink:href="#DejaVuSans-20" x="197.021484"/>
      <use xlink:href="#DejaVuSans-5b" x="228.808594"/>
      <use xlink:href="#DejaVuSans-73" x="267.822266"/>
      <use xlink:href="#DejaVuSans-5d" x="319.921875"/>
     </g>
    </g>
   </g>
   <g id="matplotlib.axis_2">
    <g id="ytick_1">
     <g id="line2d_17">
      <path d="M 38.502813 255.332631 
L 596.502813 255.332631 
" clip-path="url(#pf41e579b60)" style="fill: none; stroke-dasharray: 0.8,1.32; stroke-dashoffset: 0; stroke: #000000; stroke-opacity: 0.5; stroke-width: 0.8"/>
     </g>
     <g id="line2d_18">
      <defs>
       <path id="m0da7ec62f9" d="M 0 0 
L -3.5 0 
" style="stroke: #000000; stroke-width: 0.8"/>
      </defs>
      <g>
       <use xlink:href="#m0da7ec62f9" x="38.502813" y="255.332631" style="stroke: #000000; stroke-width: 0.8"/>
      </g>
     </g>
     <g id="text_10">
      <!-- −30 -->
      <g transform="translate(10.398125 259.13185) scale(0.1 -0.1)">
       <defs>
        <path id="DejaVuSans-2212" d="M 678 2272 
L 4684 2272 
L 4684 1741 
L 678 1741 
L 678 2272 
z
" transform="scale(0.015625)"/>
        <path id="DejaVuSans-33" d="M 2597 2516 
Q 3050 2419 3304 2112 
Q 3559 1806 3559 1356 
Q 3559 666 3084 287 
Q 2609 -91 1734 -91 
Q 1441 -91 1130 -33 
Q 819 25 488 141 
L 488 750 
Q 750 597 1062 519 
Q 1375 441 1716 441 
Q 2309 441 2620 675 
Q 2931 909 2931 1356 
Q 2931 1769 2642 2001 
Q 2353 2234 1838 2234 
L 1294 2234 
L 1294 2753 
L 1863 2753 
Q 2328 2753 2575 2939 
Q 2822 3125 2822 3475 
Q 2822 3834 2567 4026 
Q 2313 4219 1838 4219 
Q 1578 4219 1281 4162 
Q 984 4106 628 3988 
L 628 4550 
Q 988 4650 1302 4700 
Q 1616 4750 1894 4750 
Q 2613 4750 3031 4423 
Q 3450 4097 3450 3541 
Q 3450 3153 3228 2886 
Q 3006 2619 2597 2516 
z
" transform="scale(0.015625)"/>
       </defs>
       <use xlink:href="#DejaVuSans-2212"/>
       <use xlink:href="#DejaVuSans-33" x="83.789062"/>
       <use xlink:href="#DejaVuSans-30" x="147.412109"/>
      </g>
     </g>
    </g>
    <g id="ytick_2">
     <g id="line2d_19">
      <path d="M 38.502813 200.159254 
L 596.502813 200.159254 
" clip-path="url(#pf41e579b60)" style="fill: none; stroke-dasharray: 0.8,1.32; stroke-dashoffset: 0; stroke: #000000; stroke-opacity: 0.5; stroke-width: 0.8"/>
     </g>
     <g id="line2d_20">
      <g>
       <use xlink:href="#m0da7ec62f9" x="38.502813" y="200.159254" style="stroke: #000000; stroke-width: 0.8"/>
      </g>
     </g>
     <g id="text_11">
      <!-- −20 -->
      <g transform="translate(10.398125 203.958472) scale(0.1 -0.1)">
       <use xlink:href="#DejaVuSans-2212"/>
       <use xlink:href="#DejaVuSans-32" x="83.789062"/>
       <use xlink:href="#DejaVuSans-30" x="147.412109"/>
      </g>
     </g>
    </g>
    <g id="ytick_3">
     <g id="line2d_21">
      <path d="M 38.502813 144.985876 
L 596.502813 144.985876 
" clip-path="url(#pf41e579b60)" style="fill: none; stroke-dasharray: 0.8,1.32; stroke-dashoffset: 0; stroke: #000000; stroke-opacity: 0.5; stroke-width: 0.8"/>
     </g>
     <g id="line2d_22">
      <g>
       <use xlink:href="#m0da7ec62f9" x="38.502813" y="144.985876" style="stroke: #000000; stroke-width: 0.8"/>
      </g>
     </g>
     <g id="text_12">
      <!-- −10 -->
      <g transform="translate(10.398125 148.785095) scale(0.1 -0.1)">
       <use xlink:href="#DejaVuSans-2212"/>
       <use xlink:href="#DejaVuSans-31" x="83.789062"/>
       <use xlink:href="#DejaVuSans-30" x="147.412109"/>
      </g>
     </g>
    </g>
    <g id="ytick_4">
     <g id="line2d_23">
      <path d="M 38.502813 89.812499 
L 596.502813 89.812499 
" clip-path="url(#pf41e579b60)" style="fill: none; stroke-dasharray: 0.8,1.32; stroke-dashoffset: 0; stroke: #000000; stroke-opacity: 0.5; stroke-width: 0.8"/>
     </g>
     <g id="line2d_24">
      <g>
       <use xlink:href="#m0da7ec62f9" x="38.502813" y="89.812499" style="stroke: #000000; stroke-width: 0.8"/>
      </g>
     </g>
     <g id="text_13">
      <!-- 0 -->
      <g transform="translate(25.140313 93.611717) scale(0.1 -0.1)">
       <use xlink:href="#DejaVuSans-30"/>
      </g>
     </g>
    </g>
    <g id="ytick_5">
     <g id="line2d_25">
      <path d="M 38.502813 34.639121 
L 596.502813 34.639121 
" clip-path="url(#pf41e579b60)" style="fill: none; stroke-dasharray: 0.8,1.32; stroke-dashoffset: 0; stroke: #000000; stroke-opacity: 0.5; stroke-width: 0.8"/>
     </g>
     <g id="line2d_26">
      <g>
       <use xlink:href="#m0da7ec62f9" x="38.502813" y="34.639121" style="stroke: #000000; stroke-width: 0.8"/>
      </g>
     </g>
     <g id="text_14">
      <!-- 10 -->
      <g transform="translate(18.777813 38.43834) scale(0.1 -0.1)">
       <use xlink:href="#DejaVuSans-31"/>
       <use xlink:href="#DejaVuSans-30" x="63.623047"/>
      </g>
     </g>
    </g>
    <g id="text_15">
     <!-- Kraft [N] -->
     <g transform="translate(8.318438 160.5825) rotate(-90) scale(0.1 -0.1)">
      <defs>
       <path id="DejaVuSans-4b" d="M 628 4666 
L 1259 4666 
L 1259 2694 
L 3353 4666 
L 4166 4666 
L 1850 2491 
L 4331 0 
L 3500 0 
L 1259 2247 
L 1259 0 
L 628 0 
L 628 4666 
z
" transform="scale(0.015625)"/>
       <path id="DejaVuSans-72" d="M 2631 2963 
Q 2534 3019 2420 3045 
Q 2306 3072 2169 3072 
Q 1681 3072 1420 2755 
Q 1159 2438 1159 1844 
L 1159 0 
L 581 0 
L 581 3500 
L 1159 3500 
L 1159 2956 
Q 1341 3275 1631 3429 
Q 1922 3584 2338 3584 
Q 2397 3584 2469 3576 
Q 2541 3569 2628 3553 
L 2631 2963 
z
" transform="scale(0.015625)"/>
       <path id="DejaVuSans-61" d="M 2194 1759 
Q 1497 1759 1228 1600 
Q 959 1441 959 1056 
Q 959 750 1161 570 
Q 1363 391 1709 391 
Q 2188 391 2477 730 
Q 2766 1069 2766 1631 
L 2766 1759 
L 2194 1759 
z
M 3341 1997 
L 3341 0 
L 2766 0 
L 2766 531 
Q 2569 213 2275 61 
Q 1981 -91 1556 -91 
Q 1019 -91 701 211 
Q 384 513 384 1019 
Q 384 1609 779 1909 
Q 1175 2209 1959 2209 
L 2766 2209 
L 2766 2266 
Q 2766 2663 2505 2880 
Q 2244 3097 1772 3097 
Q 1472 3097 1187 3025 
Q 903 2953 641 2809 
L 641 3341 
Q 956 3463 1253 3523 
Q 1550 3584 1831 3584 
Q 2591 3584 2966 3190 
Q 3341 2797 3341 1997 
z
" transform="scale(0.015625)"/>
       <path id="DejaVuSans-66" d="M 2375 4863 
L 2375 4384 
L 1825 4384 
Q 1516 4384 1395 4259 
Q 1275 4134 1275 3809 
L 1275 3500 
L 2222 3500 
L 2222 3053 
L 1275 3053 
L 1275 0 
L 697 0 
L 697 3053 
L 147 3053 
L 147 3500 
L 697 3500 
L 697 3744 
Q 697 4328 969 4595 
Q 1241 4863 1831 4863 
L 2375 4863 
z
" transform="scale(0.015625)"/>
       <path id="DejaVuSans-4e" d="M 628 4666 
L 1478 4666 
L 3547 763 
L 3547 4666 
L 4159 4666 
L 4159 0 
L 3309 0 
L 1241 3903 
L 1241 0 
L 628 0 
L 628 4666 
z
" transform="scale(0.015625)"/>
      </defs>
      <use xlink:href="#DejaVuSans-4b"/>
      <use xlink:href="#DejaVuSans-72" x="65.576172"/>
      <use xlink:href="#DejaVuSans-61" x="106.689453"/>
      <use xlink:href="#DejaVuSans-66" x="167.96875"/>
      <use xlink:href="#DejaVuSans-74" x="201.423828"/>
      <use xlink:href="#DejaVuSans-20" x="240.632812"/>
      <use xlink:href="#DejaVuSans-5b" x="272.419922"/>
      <use xlink:href="#DejaVuSans-4e" x="311.433594"/>
      <use xlink:href="#DejaVuSans-5d" x="386.238281"/>
     </g>
    </g>
   </g>
   <g id="line2d_27">
    <path d="M 38.502813 89.812499 
L 223.732051 89.709081 
L 224.048213 88.961935 
L 225.274355 80.827341 
L 225.75103 79.948325 
L 226.226817 79.979259 
L 226.525541 80.275869 
L 226.707352 81.113308 
L 227.004147 81.550226 
L 227.184451 81.28172 
L 227.422827 81.614559 
L 227.479239 81.218009 
L 227.956897 82.398532 
L 228.194151 81.672838 
L 228.491933 82.347356 
L 228.730952 82.613195 
L 228.972776 81.971573 
L 229.507621 81.284337 
L 229.998628 81.241047 
L 230.173069 79.858161 
L 230.408796 80.685091 
L 230.705939 82.241695 
L 230.945101 80.299805 
L 231.242363 82.094087 
L 231.630147 82.646383 
L 231.663719 83.887847 
L 232.136825 81.750265 
L 232.316057 79.375611 
L 232.434509 82.861206 
L 232.915984 81.243226 
L 233.208451 79.230279 
L 233.387885 81.985968 
L 233.626662 81.26942 
L 233.864567 79.746904 
L 234.163673 84.106346 
L 234.459871 80.455111 
L 235.11598 83.253172 
L 235.432665 81.993498 
L 235.72695 83.178977 
L 235.906757 80.63532 
L 236.084479 83.649031 
L 236.384217 84.316323 
L 236.621287 80.286828 
L 236.919839 79.878015 
L 237.157824 81.674619 
L 237.395703 78.879011 
L 237.695023 78.956681 
L 237.874902 83.909465 
L 238.290534 81.865421 
L 238.35076 82.715725 
L 238.589264 83.174719 
L 238.828455 85.012692 
L 239.065068 78.506858 
L 239.305311 78.960087 
L 239.549082 80.20338 
L 239.840779 78.167962 
L 240.023237 84.454194 
L 240.317181 81.259184 
L 240.614551 80.711732 
L 240.793797 77.871492 
L 241.151839 83.214276 
L 241.389884 81.957872 
L 241.569338 80.297403 
L 242.044896 83.427922 
L 242.344062 81.561955 
L 242.641746 81.446255 
L 242.939843 80.341342 
L 243.118815 84.073705 
L 243.41606 85.937589 
L 243.539421 82.545586 
L 243.836562 83.234575 
L 244.071675 83.227626 
L 244.253567 82.192892 
L 244.531837 81.288245 
L 244.760099 83.435671 
L 245.741822 78.798732 
L 246.202726 81.863458 
L 246.337942 89.666608 
L 246.754794 79.016164 
L 246.994239 84.763978 
L 247.232263 87.231662 
L 247.469526 77.654366 
L 247.708076 82.387917 
L 248.125328 86.743329 
L 248.363697 85.257624 
L 248.543255 87.652023 
L 248.848689 75.781655 
L 249.020847 85.719882 
L 249.218981 82.147315 
L 249.530817 83.39358 
L 249.796994 81.865759 
L 249.91722 83.282448 
L 250.176782 83.922541 
L 250.454559 80.92154 
L 250.69308 81.930372 
L 250.990238 81.504565 
L 251.171156 79.410078 
L 251.466717 80.221506 
L 251.705896 77.899485 
L 252.004037 79.535177 
L 252.243865 80.018343 
L 252.425758 76.249249 
L 252.66071 78.568092 
L 252.958474 82.84312 
L 253.137428 82.676451 
L 253.437262 78.152063 
L 253.732822 80.96305 
L 253.912799 79.49413 
L 254.151034 82.851785 
L 254.390353 90.141974 
L 254.866171 74.277506 
L 255.283195 93.672287 
L 255.702331 81.475726 
L 255.879236 80.720551 
L 256.118256 87.097594 
L 256.357 85.99199 
L 256.596713 79.118056 
L 257.013573 77.457111 
L 257.134596 85.416092 
L 257.61066 77.955512 
L 257.848051 82.926236 
L 258.20509 87.366603 
L 258.445132 78.423476 
L 258.859825 91.299947 
L 259.158214 87.63973 
L 259.730147 83.156109 
L 259.876027 74.660889 
L 260.173233 87.031927 
L 260.294447 83.1979 
L 260.591149 78.435868 
L 260.949329 64.834259 
L 261.322962 84.119161 
L 261.602805 88.310516 
L 261.975746 83.362611 
L 262.086563 83.708933 
L 262.328785 87.549859 
L 262.55622 84.185773 
L 262.794199 83.991797 
L 263.151773 93.646907 
L 263.330837 84.662213 
L 263.7477 75.475097 
L 263.866901 80.42514 
L 264.105397 78.594157 
L 264.285849 90.561156 
L 264.643203 78.094353 
L 264.881961 80.466756 
L 265.058864 79.053807 
L 265.299527 82.42654 
L 265.714773 92.630988 
L 265.955612 90.76807 
L 266.191948 80.90989 
L 266.252174 81.693895 
L 266.48981 84.667602 
L 266.788459 83.80745 
L 267.09442 84.229845 
L 267.324829 86.412671 
L 267.563622 76.057633 
L 267.759853 82.661462 
L 268.338011 87.931031 
L 268.532791 85.291266 
L 268.756773 83.975271 
L 269.017167 85.457837 
L 269.233644 92.371382 
L 269.530633 94.223929 
L 269.887378 90.885398 
L 270.125731 90.910812 
L 270.245132 84.195641 
L 270.661966 83.118051 
L 270.723 84.76836 
L 270.960397 87.942355 
L 271.318588 90.957772 
L 271.561653 80.642401 
L 271.735812 91.70321 
L 271.975033 81.468286 
L 272.454512 91.864797 
L 272.689423 77.337868 
L 272.927961 94.838429 
L 273.643316 84.778129 
L 273.969451 82.712639 
L 274.219372 81.868575 
L 274.658263 87.526806 
L 274.845561 84.98986 
L 275.037647 85.149552 
L 275.313574 81.159591 
L 275.437851 90.753341 
L 275.791628 90.15441 
L 275.91339 83.512902 
L 276.20821 81.092996 
L 276.393789 93.163309 
L 276.812326 85.400852 
L 277.049078 97.893338 
L 277.162083 88.506556 
L 277.590469 82.302084 
L 277.779075 91.889975 
L 277.939041 78.252411 
L 278.12053 75.947997 
L 278.475781 97.172068 
L 278.624491 86.990811 
L 278.955747 92.41551 
L 279.193852 91.137434 
L 279.431173 78.084929 
L 279.612332 97.458937 
L 279.907556 83.818832 
L 280.086959 85.673193 
L 280.384925 74.498923 
L 280.623809 87.425651 
L 281.1601 84.371716 
L 281.457142 89.718471 
L 281.594071 96.879713 
L 281.873928 81.437195 
L 282.056615 94.524516 
L 282.113657 82.134895 
L 282.351481 87.418866 
L 282.533731 84.441807 
L 282.828435 84.679243 
L 283.068365 82.816937 
L 283.306338 85.872797 
L 283.66432 71.711265 
L 283.961917 86.289776 
L 284.088847 99.77102 
L 284.563335 80.451237 
L 284.856401 78.889617 
L 285.034625 94.744039 
L 285.276257 86.963536 
L 285.690436 85.283389 
L 285.810779 82.914681 
L 286.048783 75.499162 
L 286.292195 80.265807 
L 286.526687 94.80574 
L 286.769413 92.073286 
L 287.007247 103.747587 
L 287.262421 83.810562 
L 287.484106 96.294106 
L 287.84259 86.513412 
L 288.024509 72.496949 
L 288.259375 84.329672 
L 288.497522 77.491551 
L 288.736219 78.577288 
L 289.035046 88.218818 
L 289.24077 89.567591 
L 289.455069 76.946449 
L 289.811148 80.255934 
L 290.227704 68.767404 
L 290.347633 90.02656 
L 290.465879 73.066124 
L 290.883363 100.225763 
L 290.948755 74.319536 
L 291.225488 83.581837 
L 291.495528 99.692866 
L 291.679836 83.339165 
L 292.13465 106.68941 
L 292.194976 81.174237 
L 292.432576 80.761429 
L 292.969282 92.628234 
L 293.207555 91.487307 
L 293.504983 85.375367 
L 293.689059 90.274631 
L 293.924229 103.514674 
L 294.221147 106.995342 
L 294.466574 94.694646 
L 294.698997 108.345775 
L 294.878318 89.748824 
L 295.173661 96.030814 
L 295.4127 80.535561 
L 295.717231 76.358727 
L 295.948103 102.259077 
L 296.426372 83.575061 
L 296.607631 84.161628 
L 296.961851 88.526282 
L 297.152314 96.040611 
L 297.438974 81.644243 
L 297.620443 98.35861 
L 297.929888 86.17356 
L 298.095365 88.699939 
L 298.335465 84.937779 
L 298.632709 97.298518 
L 298.870236 86.036986 
L 299.108436 86.365317 
L 299.60655 84.229637 
L 299.827215 82.348297 
L 300.182774 99.871724 
L 300.361705 83.502838 
L 300.600166 94.873248 
L 300.854175 83.389641 
L 301.079765 97.034736 
L 301.494049 67.125861 
L 301.613328 85.397166 
L 301.911255 67.542489 
L 302.09056 92.659332 
L 302.626399 83.298634 
L 302.80676 71.534326 
L 303.043886 88.5931 
L 303.341324 88.433722 
L 303.54503 92.205034 
L 303.826118 84.831919 
L 304.119111 89.486855 
L 304.41641 90.630174 
L 304.595673 82.819985 
L 304.95287 89.04891 
L 305.252232 97.362878 
L 305.31073 91.441794 
L 305.548602 88.826757 
L 305.846457 94.485227 
L 306.02906 88.048385 
L 306.385283 89.633765 
L 306.562027 102.423251 
L 306.801509 96.439669 
L 306.996024 85.842581 
L 307.281744 88.562127 
L 307.900046 91.368378 
L 308.067971 90.511581 
L 308.299126 98.992599 
L 308.537897 76.007306 
L 308.839248 92.663013 
L 309.086734 91.931567 
L 309.313549 94.360003 
L 309.455479 92.571363 
L 309.930311 96.906321 
L 310.001814 96.058176 
L 310.28921 83.958022 
L 310.527271 101.1608 
L 310.708003 78.845376 
L 311.063774 88.009509 
L 311.611583 71.472966 
L 311.781527 98.444285 
L 312.017687 96.239507 
L 312.375319 73.818658 
L 312.501747 89.615353 
L 312.732977 90.725972 
L 313.090224 90.372677 
L 313.212638 277.92 
L 313.805492 254.882114 
L 314.235778 135.303723 
L 314.58015 130.086499 
L 314.701814 109.118619 
L 314.938888 93.445247 
L 315.682591 82.430302 
L 316.016983 83.448435 
L 316.33419 85.993106 
L 316.452034 59.064665 
L 316.695304 80.34386 
L 316.995565 68.352374 
L 317.110027 88.380972 
L 317.410895 81.798279 
L 317.763281 89.984431 
L 318.060545 90.069066 
L 318.180102 90.684014 
L 318.359189 95.10148 
L 318.718927 77.348927 
L 318.959086 78.109505 
L 319.49789 101.179014 
L 319.614865 91.188469 
L 319.910478 106.867631 
L 320.14826 92.232977 
L 320.624731 86.079711 
L 320.864807 89.817038 
L 321.102007 73.868109 
L 321.340325 85.144533 
L 321.584298 87.629355 
L 321.878065 69.662911 
L 322.357206 88.819568 
L 322.592008 91.399594 
L 322.840479 88.87928 
L 323.070052 90.326388 
L 323.310491 90.257806 
L 323.548541 102.573429 
L 323.963903 101.358355 
L 324.083748 87.99586 
L 324.50419 97.721272 
L 324.569671 80.320751 
L 324.802157 90.815944 
L 325.454334 89.572308 
L 325.633327 87.129366 
L 325.812051 91.059667 
L 326.051482 76.587644 
L 326.294583 79.599465 
L 326.530758 87.947417 
L 326.852363 82.273239 
L 327.242305 92.398662 
L 327.301953 87.108997 
L 327.540635 90.660799 
L 327.778986 89.606803 
L 328.020226 92.469136 
L 328.256505 90.403775 
L 328.495475 76.299877 
L 328.794246 98.20668 
L 329.171816 89.057541 
L 329.275333 96.30923 
L 329.508337 102.496867 
L 329.745474 81.071631 
L 330.162941 90.072197 
L 330.282264 89.82457 
L 330.580948 89.634448 
L 330.761294 97.276318 
L 331.057073 91.24612 
L 331.312423 99.533835 
L 331.798258 85.562875 
L 332.018819 93.294769 
L 332.487919 91.151148 
L 332.725398 93.298688 
L 333.024265 89.765517 
L 333.267721 94.59889 
L 333.502737 96.221364 
L 333.741417 87.210179 
L 333.980504 90.675756 
L 334.226045 97.594552 
L 334.581092 82.786633 
L 335.022935 91.266977 
L 335.231468 90.754621 
L 335.709664 102.812388 
L 335.971918 98.95809 
L 336.184852 86.882084 
L 336.423478 86.051999 
L 336.663453 86.210034 
L 336.900926 93.588588 
L 337.317585 88.932876 
L 337.437428 85.401828 
L 337.736454 92.779359 
L 337.916816 89.815942 
L 338.161358 76.875735 
L 338.54477 97.452461 
L 338.658091 86.840115 
L 338.944233 89.929607 
L 338.991294 91.771339 
L 339.29103 76.610236 
L 339.410048 92.136021 
L 339.825811 90.294087 
L 339.945144 91.418271 
L 340.12328 89.853425 
L 340.421547 84.965065 
L 340.719728 100.224285 
L 340.898441 92.270296 
L 341.13678 89.364971 
L 341.375437 91.541831 
L 341.615004 86.016387 
L 341.917182 96.05303 
L 342.091832 96.351001 
L 342.390217 85.758829 
L 342.592547 88.709796 
L 342.865715 89.541919 
L 343.224194 100.756817 
L 343.364331 89.81577 
L 343.582206 89.816025 
L 343.819625 88.398883 
L 344.2367 90.816704 
L 344.355474 85.766177 
L 344.835051 94.043672 
L 345.073439 91.046423 
L 345.381281 92.820436 
L 345.609531 96.124305 
L 345.793405 82.479831 
L 346.084919 92.19805 
L 346.386542 92.109522 
L 346.623265 80.732903 
L 346.800697 95.774478 
L 347.046882 88.884805 
L 347.336523 86.179584 
L 347.633595 88.502296 
L 347.812551 91.81606 
L 348.051726 90.076466 
L 348.470912 88.354557 
L 348.531021 90.493411 
L 348.830156 90.188001 
L 349.025631 89.572938 
L 349.25029 96.171949 
L 349.603408 89.429607 
L 349.8421 89.726998 
L 350.139628 92.388563 
L 350.557034 73.131847 
L 350.855204 93.460999 
L 351.033535 92.152879 
L 351.272515 89.402131 
L 351.510253 76.175964 
L 351.86755 103.006862 
L 352.048182 87.9391 
L 352.34541 93.90469 
L 352.643325 88.256505 
L 352.763199 91.406482 
L 353.001631 101.638694 
L 353.358236 87.304307 
L 353.777296 88.861689 
L 354.192068 78.669161 
L 354.49016 96.621123 
L 354.729169 89.660839 
L 354.967142 91.078224 
L 355.26572 88.986668 
L 355.563366 89.81584 
L 355.691361 100.593547 
L 355.993376 89.869868 
L 356.230389 89.695157 
L 356.695564 101.489165 
L 357.11492 100.29586 
L 357.232346 86.558364 
L 357.414082 90.607869 
L 357.768024 88.892193 
L 358.067321 91.119253 
L 358.200121 94.498865 
L 358.619507 89.81592 
L 358.726755 95.669136 
L 358.964857 96.273246 
L 359.203431 88.200559 
L 359.448191 88.270391 
L 359.739861 90.01176 
L 359.918637 88.73816 
L 360.223373 93.022633 
L 360.464925 99.172544 
L 360.754514 78.55856 
L 360.876193 97.471113 
L 361.129106 91.055909 
L 361.415503 96.490959 
L 361.661674 89.348465 
L 361.887082 89.910014 
L 362.185637 92.162639 
L 362.424082 84.951137 
L 362.662654 89.05945 
L 362.950189 96.914781 
L 363.20353 76.57903 
L 363.423447 90.668161 
L 363.622003 88.157668 
L 363.916371 100.848202 
L 364.393153 90.234238 
L 364.630544 88.527236 
L 364.92917 91.706877 
L 365.107627 89.599194 
L 365.345698 91.640531 
L 365.643635 74.965146 
L 365.941582 88.947515 
L 366.120566 87.715549 
L 366.430486 100.521733 
L 366.661699 89.815828 
L 366.95586 89.815875 
L 367.137644 90.270844 
L 367.313284 91.739268 
L 367.613202 89.815951 
L 367.848153 95.639601 
L 368.164973 96.271068 
L 368.328014 87.215458 
L 368.629685 99.384365 
L 368.92628 89.760468 
L 369.113805 91.437516 
L 369.34484 90.54077 
L 369.529356 86.621849 
L 369.821758 87.141577 
L 370.240307 73.883883 
L 370.360723 93.873365 
L 370.778089 88.398971 
L 371.015218 90.770986 
L 371.312315 100.090903 
L 371.555098 91.65753 
L 371.789135 91.308121 
L 372.027824 89.028346 
L 372.325578 91.025874 
L 372.861574 98.249955 
L 373.397043 88.217981 
L 373.93445 101.226202 
L 373.993192 66.853329 
L 374.356468 87.96129 
L 374.64956 92.261376 
L 374.71244 91.142245 
L 375.080509 90.88217 
L 375.245909 88.675165 
L 375.486534 95.677038 
L 375.841426 88.86413 
L 376.021182 89.692301 
L 376.325316 95.14593 
L 376.501063 74.518775 
L 376.735908 88.046167 
L 377.275259 88.664473 
L 377.454122 102.821325 
L 377.691085 101.207331 
L 377.97089 87.637263 
L 378.467507 89.815887 
L 378.705786 89.639532 
L 379.003346 101.111059 
L 379.182787 89.526044 
L 379.541591 92.064021 
L 379.77876 82.924266 
L 379.957593 86.680078 
L 380.315476 88.128506 
L 380.43452 93.929128 
L 380.67377 93.254348 
L 380.971538 94.373814 
L 381.209422 89.229037 
L 381.566802 88.947905 
L 381.744983 90.749052 
L 382.170296 89.623779 
L 382.401177 84.997982 
L 382.640935 95.733245 
L 382.938268 87.320353 
L 383.116642 91.694788 
L 383.414778 89.003775 
L 383.653191 89.752894 
L 383.891272 98.579874 
L 384.130172 88.730667 
L 384.36784 86.969955 
L 385.141968 100.923481 
L 385.442062 90.278894 
L 385.737779 88.848742 
L 385.982328 81.23218 
L 386.154941 99.069552 
L 386.572481 89.515571 
L 386.633083 90.478809 
L 386.871953 91.271548 
L 387.288124 89.633066 
L 387.408358 103.090241 
L 387.704159 80.831552 
L 387.883735 90.754896 
L 388.12156 90.36307 
L 388.360572 100.220739 
L 388.83674 89.499916 
L 389.078696 87.943097 
L 389.373409 90.525064 
L 389.673069 89.70183 
L 389.731908 89.020177 
L 389.85151 89.815745 
L 390.209139 89.816156 
L 390.327434 95.266522 
L 390.566718 88.026609 
L 390.866233 73.900878 
L 391.578394 89.334638 
L 391.956832 89.442397 
L 392.061414 90.765471 
L 392.294363 83.785228 
L 392.534085 98.819916 
L 392.832412 92.615084 
L 393.014287 88.632862 
L 393.427847 100.287631 
L 393.65145 81.644457 
L 393.785792 88.174178 
L 394.023607 88.200403 
L 394.261973 89.119921 
L 394.507191 88.802091 
L 394.798172 87.880931 
L 395.156539 92.492402 
L 395.275553 98.856617 
L 395.574048 93.388313 
L 395.817442 91.899615 
L 396.050757 95.411361 
L 396.289007 91.484021 
L 396.468688 90.883802 
L 396.709418 88.556737 
L 397.006497 87.610936 
L 397.24286 88.723723 
L 397.480824 97.542335 
L 397.839129 89.577864 
L 398.01748 92.972412 
L 398.255879 90.797039 
L 398.493969 100.120493 
L 398.732782 89.6413 
L 399.032184 88.954502 
L 399.38968 92.38566 
L 399.629341 92.767563 
L 399.867123 77.819602 
L 399.986143 97.469725 
L 400.464749 87.110571 
L 400.710246 94.836478 
L 401.000306 97.406196 
L 401.240795 88.156674 
L 401.476641 86.963106 
L 401.775515 91.110246 
L 401.955105 88.517073 
L 402.253688 75.041661 
L 402.431344 96.178323 
L 402.669635 88.893288 
L 402.908526 89.962187 
L 403.206332 92.935522 
L 403.397622 79.112768 
L 403.633589 89.24722 
L 403.922551 91.622947 
L 404.402506 87.438755 
L 404.641312 93.66195 
L 404.947887 76.972483 
L 405.175669 90.616217 
L 405.385104 87.819117 
L 405.65268 86.249095 
L 405.894417 75.257383 
L 406.132636 88.494711 
L 406.426561 88.097463 
L 406.667313 92.611008 
L 406.963223 90.677957 
L 407.144113 72.438834 
L 407.380891 74.90983 
L 407.619993 91.663331 
L 407.860801 90.316472 
L 408.217822 94.738111 
L 408.398363 72.955811 
L 408.636507 89.609578 
L 408.917998 90.028498 
L 409.234688 87.539004 
L 409.470635 97.390855 
L 409.589722 77.212073 
L 409.829013 75.682475 
L 410.126347 91.579955 
L 410.42592 90.849643 
L 410.606015 86.396267 
L 410.844374 93.957878 
L 411.143152 90.046206 
L 411.320402 91.334964 
L 411.619643 90.950867 
L 411.857209 85.883927 
L 412.096215 101.454237 
L 412.512689 89.815926 
L 412.58546 91.660752 
L 412.87158 89.360134 
L 413.062343 84.68892 
L 413.456757 97.895132 
L 413.584819 85.799036 
L 413.81476 89.690176 
L 414.11483 91.468734 
L 414.472681 90.98894 
L 414.533583 100.335875 
L 414.830286 87.280983 
L 415.068038 87.60962 
L 415.309724 89.122023 
L 415.559664 89.81615 
L 415.96323 87.320864 
L 416.023198 88.22443 
L 416.321581 86.969733 
L 416.563927 90.141596 
L 416.805148 83.699924 
L 417.002271 94.043456 
L 417.276707 83.714118 
L 417.756951 90.621908 
L 418.054464 91.953226 
L 418.471725 89.522149 
L 418.530943 90.762598 
L 418.770431 85.807443 
L 419.126668 88.934218 
L 419.305279 97.311046 
L 419.487583 96.993229 
L 419.724077 98.87523 
L 419.962564 90.497766 
L 420.281437 89.749525 
L 420.501517 90.887642 
L 420.738015 81.348112 
L 420.975057 90.377528 
L 421.214128 89.126401 
L 421.512226 90.416795 
L 421.693249 88.006318 
L 422.225812 85.53352 
L 422.234324 185.902083 
L 422.468961 88.361637 
L 422.825214 99.558895 
L 423.004989 95.657898 
L 423.252127 95.27691 
L 423.484338 88.515917 
L 423.840978 88.274627 
L 423.960579 96.407665 
L 424.145321 88.629493 
L 424.43705 86.493204 
L 424.675708 89.815654 
L 424.915208 89.068005 
L 425.155055 86.69902 
L 425.574673 73.865522 
L 425.629286 100.480512 
L 425.988437 90.33212 
L 426.172027 91.206488 
L 426.40654 89.718496 
L 426.64547 89.453709 
L 427.065099 90.050851 
L 427.190077 95.122646 
L 427.445399 88.671115 
L 427.659166 99.502352 
L 427.90644 98.189278 
L 427.958088 86.240158 
L 428.19698 81.270204 
L 428.436409 89.849834 
L 428.619145 86.436346 
L 428.8559 90.396424 
L 429.151322 89.953999 
L 429.628082 72.494589 
L 430.10485 102.578372 
L 430.344322 103.651793 
L 430.903823 89.496108 
L 431.121983 88.941564 
L 431.357652 34.673392 
L 431.597523 30.219519 
L 431.843497 50.706641 
L 432.095657 59.462144 
L 432.328044 61.51762 
L 432.561897 61.830054 
L 432.821237 77.597479 
L 433.594031 89.908931 
L 433.87843 86.524394 
L 434.121676 91.11311 
L 434.414608 91.187208 
L 434.534949 96.653838 
L 434.776173 94.12458 
L 435.198864 100.918272 
L 435.318081 89.893744 
L 435.54992 90.626063 
L 435.793016 92.995314 
L 436.163582 84.890762 
L 436.324342 88.094521 
L 436.627299 87.115785 
L 436.862153 89.445012 
L 437.100266 94.307611 
L 437.400723 82.207745 
L 437.640155 100.108279 
L 438.242412 77.600758 
L 438.507695 86.912759 
L 438.778576 83.849112 
L 439.093849 90.682293 
L 439.259491 104.263207 
L 439.609454 91.627096 
L 439.813723 96.12513 
L 440.027646 88.033088 
L 440.326857 91.810123 
L 440.505242 86.577721 
L 440.743769 85.4204 
L 440.985603 87.110143 
L 441.360449 96.495108 
L 441.460589 94.023338 
L 441.817555 89.963297 
L 441.996582 85.97905 
L 442.476381 97.072209 
L 442.882088 85.427385 
L 443.119643 86.983902 
L 443.306995 83.094717 
L 443.537398 107.076919 
L 443.835364 83.307078 
L 444.193965 87.714981 
L 444.670741 98.385577 
L 445.029606 80.580014 
L 445.21114 84.600877 
L 445.566243 95.900787 
L 445.69185 75.820551 
L 446.223006 92.785464 
L 446.46149 88.361404 
L 446.703529 95.146292 
L 446.93948 92.773801 
L 447.182432 87.433515 
L 447.4174 90.144659 
L 447.656135 99.142342 
L 447.904892 87.546635 
L 448.138367 95.078135 
L 448.437338 86.11865 
L 448.625267 90.485109 
L 449.152725 88.677092 
L 449.392189 97.601007 
L 449.808343 87.26383 
L 449.89612 90.279901 
L 450.16705 83.866823 
L 450.46407 83.754658 
L 450.761942 91.442447 
L 450.94209 86.950743 
L 451.180519 98.885212 
L 451.425902 89.053286 
L 451.658653 89.696091 
L 452.077357 82.540605 
L 452.326715 94.778212 
L 452.613173 85.94154 
L 452.864845 88.397743 
L 453.098099 99.171888 
L 453.469682 89.947581 
L 453.632802 98.971009 
L 453.809319 84.222722 
L 454.134366 81.991042 
L 454.345201 99.736306 
L 454.765606 90.07439 
L 454.847127 93.003185 
L 455.071869 85.349344 
L 455.300727 92.383323 
L 455.539853 92.649156 
L 455.961335 87.474283 
L 456.150748 80.39643 
L 456.566905 100.949011 
L 456.984034 90.468577 
L 457.044693 95.28809 
L 457.700957 86.484999 
L 457.762486 87.784777 
L 458.176246 100.397408 
L 458.295734 82.787358 
L 458.535771 92.896029 
L 458.772737 88.285096 
L 459.18988 93.22523 
L 459.309275 88.980068 
L 459.548312 92.105567 
L 459.792529 91.786726 
L 459.846799 87.893191 
L 460.026983 93.873223 
L 460.264394 108.04599 
L 460.505547 86.924796 
L 460.801349 85.001694 
L 460.981197 89.96282 
L 461.300883 89.905059 
L 461.461133 84.459594 
L 461.759676 102.102627 
L 461.997667 87.266851 
L 462.240011 92.980577 
L 462.535859 84.645805 
L 462.954361 95.638147 
L 463.252644 87.456618 
L 463.439137 93.06543 
L 463.848593 94.135528 
L 463.995751 88.214308 
L 464.210024 88.872154 
L 464.468285 91.034654 
L 464.68398 90.194579 
L 464.923343 84.650178 
L 465.170704 88.597513 
L 465.469677 97.496672 
L 465.710789 88.802142 
L 466.009353 86.68658 
L 466.483619 90.487007 
L 466.663185 84.677209 
L 466.961408 89.592828 
L 467.199234 87.747442 
L 467.597038 91.195366 
L 467.744427 86.501335 
L 467.921045 100.718694 
L 468.454257 85.63435 
L 468.761166 92.330675 
L 468.931187 85.152182 
L 469.179483 88.486344 
L 469.542461 85.954141 
L 469.64942 82.058208 
L 469.893371 81.284012 
L 470.128335 93.991992 
L 470.435389 95.435402 
L 470.683137 90.863228 
L 470.906718 93.546197 
L 471.143739 91.536234 
L 471.389817 96.816216 
L 471.865224 85.773115 
L 472.16172 85.001556 
L 472.456786 89.161266 
L 472.636186 84.891975 
L 473.054076 94.178489 
L 473.400235 88.477431 
L 473.868197 91.396168 
L 474.170263 80.024805 
L 474.354868 97.105715 
L 474.645427 95.682308 
L 474.949827 88.7863 
L 475.125654 99.061813 
L 475.601585 87.056228 
L 476.079329 99.745716 
L 476.317061 99.18965 
L 476.555932 86.505972 
L 476.795462 102.834839 
L 477.212458 97.961861 
L 477.361592 79.769174 
L 477.749946 95.464075 
L 477.868828 86.219796 
L 478.107403 95.373489 
L 478.345862 85.456885 
L 478.643526 95.208441 
L 478.775738 89.271319 
L 479.035221 86.684855 
L 479.305237 99.319211 
L 479.600228 93.710083 
L 479.798874 96.53104 
L 480.01865 95.505595 
L 480.259337 81.288476 
L 480.639147 87.007047 
L 480.797255 84.433991 
L 481.032858 99.497576 
L 481.30086 89.530521 
L 481.594462 90.01058 
L 481.817167 88.861462 
L 482.112202 96.431038 
L 482.54011 82.938053 
L 482.796157 95.541528 
L 483.087039 88.457019 
L 483.208624 99.383048 
L 483.500877 88.836153 
L 483.799178 84.842201 
L 484.097273 90.394736 
L 484.216787 85.615624 
L 484.514676 91.277519 
L 484.761105 104.455613 
L 485.230884 86.126059 
L 485.470722 84.101539 
L 485.76882 88.369727 
L 486.007356 93.940609 
L 486.247979 93.641825 
L 486.483328 90.523214 
L 486.721699 93.707 
L 486.961225 88.596303 
L 487.206514 89.902456 
L 487.440359 90.020566 
L 487.677248 88.553363 
L 488.037454 93.78625 
L 488.214516 99.7638 
L 488.455338 88.599793 
L 488.751713 94.695736 
L 489.288177 88.136818 
L 489.540319 86.716226 
L 489.706772 88.147944 
L 490.005091 86.621771 
L 490.242896 91.741242 
L 490.683853 87.081415 
L 490.899752 87.344631 
L 491.201618 89.016995 
L 491.494573 81.933455 
L 491.741352 91.71121 
L 491.913287 92.206381 
L 492.154206 86.822718 
L 492.390345 92.480489 
L 492.705805 85.536723 
L 492.884784 87.13449 
L 493.122928 81.83923 
L 493.601015 80.873203 
L 493.66099 89.988484 
L 493.95881 81.352716 
L 494.141209 87.252474 
L 494.380638 90.034396 
L 494.614303 90.032477 
L 494.912142 93.924935 
L 495.092642 101.062363 
L 495.391562 90.41476 
L 495.688062 91.833209 
L 495.866611 88.682722 
L 496.169394 91.101033 
L 496.407336 86.224758 
L 496.644163 100.81774 
L 497.122047 89.893097 
L 497.32743 94.519382 
L 497.602808 92.291209 
L 497.947291 85.655256 
L 498.384535 94.619354 
L 498.621652 92.153755 
L 498.860584 100.362732 
L 499.337413 87.206411 
L 499.576371 92.342327 
L 499.817608 93.655899 
L 500.113488 99.734915 
L 500.293182 88.23509 
L 500.609204 89.814392 
L 500.650281 84.777081 
L 500.829084 81.337579 
L 501.130331 100.001866 
L 501.425955 87.713216 
L 501.604394 87.53622 
L 502.085048 93.142547 
L 502.142852 99.880533 
L 502.321119 91.511676 
L 502.565805 87.97983 
L 503.051282 90.053629 
L 503.27591 86.159925 
L 503.515493 96.485633 
L 503.872555 95.479165 
L 504.051407 85.492445 
L 504.229888 93.361381 
L 504.650095 84.360997 
L 504.707569 95.909722 
L 505.069486 93.559303 
L 505.311707 97.081528 
L 505.547959 91.22758 
L 505.78225 90.94457 
L 506.020268 89.940874 
L 506.266043 83.498624 
L 506.569872 94.836403 
L 506.746757 89.122367 
L 506.993307 89.273675 
L 507.231373 85.098598 
L 507.475334 92.050677 
L 507.708032 90.777977 
L 508.005894 98.908648 
L 508.190358 85.959256 
L 508.485193 101.017421 
L 508.787092 77.743504 
L 509.01986 101.402516 
L 509.275368 103.171856 
L 509.498512 80.335399 
L 509.921977 93.281571 
L 509.97473 87.920531 
L 510.21317 94.785999 
L 510.631246 88.606557 
L 510.691646 89.479446 
L 510.932276 86.759428 
L 511.427141 92.956222 
L 511.731757 89.596418 
L 511.94593 96.458174 
L 512.202575 89.582687 
L 512.42372 91.232256 
L 512.662927 98.156876 
L 512.902669 79.187695 
L 513.214663 99.740139 
L 513.619081 81.444499 
L 513.68035 90.467333 
L 513.915563 83.73802 
L 514.39837 91.981957 
L 514.571539 92.014079 
L 514.703169 84.790702 
L 514.890518 90.994946 
L 515.247869 81.862814 
L 515.468485 88.264186 
L 515.690172 87.658579 
L 515.918439 93.77758 
L 516.15758 94.080728 
L 516.400242 98.698837 
L 516.762513 82.665473 
L 516.922212 90.079359 
L 517.159528 86.98526 
L 517.51651 86.276662 
L 517.702683 92.706791 
L 517.878201 84.726521 
L 518.173168 82.064504 
L 518.480489 90.755103 
L 518.653123 91.488366 
L 518.951708 83.55233 
L 519.130101 90.764149 
L 519.388449 92.20102 
L 519.725267 88.905378 
L 519.86004 96.093933 
L 520.141772 102.052409 
L 520.439599 130.587773 
L 520.621899 115.065767 
L 520.859464 128.853087 
L 521.115203 113.922714 
L 521.39507 119.575054 
L 521.637701 110.032273 
L 521.87368 105.351324 
L 522.117242 111.726599 
L 522.363738 95.976387 
L 522.827932 86.192382 
L 523.266623 86.039828 
L 523.497826 88.919691 
L 523.843711 85.976853 
L 524.131034 89.009426 
L 524.380779 88.936558 
L 524.857058 91.281535 
L 524.9168 90.581633 
L 525.275559 90.269094 
L 525.403427 91.305279 
L 525.814188 90.258319 
L 526.316015 89.847237 
L 526.428741 90.061446 
L 526.596989 89.840958 
L 527.911085 89.812499 
L 528.28225 89.601277 
L 528.686391 89.751634 
L 528.92995 89.391159 
L 529.284939 89.845477 
L 532.708292 89.80813 
L 532.939696 89.881571 
L 533.470149 89.809013 
L 541.483777 89.812499 
L 596.502813 89.812499 
L 596.502813 89.812499 
" clip-path="url(#pf41e579b60)" style="fill: none; stroke: #0000ff; stroke-opacity: 0.7; stroke-width: 1.5; stroke-linecap: square"/>
   </g>
   <g id="line2d_28">
    <path d="M 38.502813 114.940515 
L 38.622916 111.393365 
L 38.865804 112.121529 
L 38.937 114.558712 
L 39.111017 112.323159 
L 39.417061 112.945022 
L 39.885883 112.731875 
L 40.302791 114.286687 
L 40.541846 113.474264 
L 40.601545 114.269002 
L 41.018884 114.884936 
L 41.257159 114.874333 
L 41.559198 115.813223 
L 42.033407 116.49072 
L 42.091503 116.299788 
L 42.329583 115.947077 
L 42.628872 114.740616 
L 42.928055 115.435636 
L 43.164095 113.961387 
L 43.581899 115.900031 
L 43.819883 113.72362 
L 44.060446 114.789197 
L 44.300935 113.973926 
L 44.599353 115.617185 
L 44.834047 113.768958 
L 45.371049 114.698197 
L 45.669985 116.18987 
L 45.857012 114.398572 
L 46.328887 113.839517 
L 46.567049 114.620926 
L 46.805772 114.977694 
L 47.224756 113.007869 
L 47.405507 114.601212 
L 47.521373 114.287312 
L 47.766181 115.572942 
L 48.003493 113.978392 
L 48.536913 114.676743 
L 49.14069 114.557101 
L 50.441813 114.898733 
L 53.050949 114.05041 
L 55.661121 113.957137 
L 57.085405 114.428401 
L 58.50861 113.790917 
L 59.813793 114.019668 
L 59.954398 115.166746 
L 60.669155 112.361968 
L 60.966191 115.041643 
L 61.265892 116.061492 
L 61.445302 114.41115 
L 61.681905 116.187757 
L 61.866132 115.06883 
L 62.104406 112.629761 
L 62.404 115.184222 
L 62.638974 115.610764 
L 62.936269 114.330886 
L 63.11617 115.229407 
L 63.356366 115.273261 
L 63.652931 112.949242 
L 64.130974 114.765733 
L 64.426649 114.34019 
L 64.72558 115.37556 
L 64.844761 114.096575 
L 65.083776 113.753387 
L 65.323835 117.089314 
L 65.636208 117.334786 
L 65.860257 115.204656 
L 66.108513 116.70909 
L 66.396826 115.72381 
L 66.578194 114.047901 
L 66.934528 117.516402 
L 67.112748 116.389561 
L 67.414376 115.422482 
L 67.588886 115.828757 
L 67.829178 113.907337 
L 68.125305 112.972712 
L 68.602529 115.997907 
L 68.783671 118.162635 
L 69.019997 116.645128 
L 69.32384 113.150767 
L 69.616891 114.310148 
L 69.855516 116.374294 
L 70.095651 114.659988 
L 70.338534 114.528064 
L 70.523348 117.705476 
L 70.817845 116.760046 
L 71.292681 113.16556 
L 71.413207 113.230024 
L 71.829525 115.259803 
L 72.070236 116.241672 
L 72.364771 114.97329 
L 72.604817 114.69965 
L 72.782636 115.850243 
L 73.259107 114.158276 
L 73.442011 112.784388 
L 73.737273 113.895716 
L 73.796233 114.604781 
L 74.034856 115.293487 
L 74.512377 112.4275 
L 74.809776 113.404278 
L 75.10756 113.704226 
L 75.350039 113.496385 
L 75.716732 116.697914 
L 75.763801 116.219426 
L 76.00305 116.214325 
L 76.299771 115.90656 
L 76.479259 114.929061 
L 76.779836 117.404707 
L 77.014868 118.047882 
L 77.211656 116.126372 
L 77.492991 116.922792 
L 77.731123 117.076129 
L 78.208334 113.447059 
L 78.445703 115.022525 
L 78.984279 115.918935 
L 79.221395 113.788725 
L 79.46119 113.850541 
L 79.699016 114.17806 
L 79.9365 113.020709 
L 80.296129 112.411353 
L 80.712316 117.379126 
L 81.192765 112.850297 
L 81.785318 114.404292 
L 81.913099 112.516264 
L 82.441028 117.881845 
L 82.620686 116.525786 
L 82.859406 112.546129 
L 83.215747 111.996846 
L 83.394399 114.591018 
L 83.632494 114.285359 
L 83.872614 111.889596 
L 84.109856 113.231533 
L 84.411018 116.0179 
L 84.706152 115.203201 
L 84.884266 112.298607 
L 85.123897 111.609796 
L 85.361288 113.61281 
L 85.600003 114.177811 
L 85.838773 114.330227 
L 86.207889 114.891694 
L 86.434523 114.979448 
L 86.732011 113.311188 
L 86.893125 111.319486 
L 87.090643 112.826316 
L 87.329041 116.031967 
L 87.627622 117.235608 
L 88.103508 113.136081 
L 88.40325 112.83936 
L 88.586765 114.254041 
L 89.00022 115.307703 
L 89.118231 116.13714 
L 89.536432 117.920424 
L 89.908761 117.942312 
L 90.081212 115.321556 
L 90.548537 115.419099 
L 90.668047 116.580836 
L 90.905672 117.14919 
L 91.144508 116.789835 
L 91.263784 116.304811 
L 91.681363 115.89828 
L 91.801828 115.189176 
L 92.038568 115.318923 
L 92.514883 115.988504 
L 92.754169 115.437244 
L 93.289814 111.549185 
L 93.489754 111.433899 
L 93.826284 112.831205 
L 94.004867 113.047363 
L 94.541287 108.849137 
L 94.842115 110.427866 
L 95.019457 113.813227 
L 95.257497 115.718109 
L 95.498953 116.056613 
L 95.89183 115.64158 
L 96.064357 115.901568 
L 96.454062 115.331428 
L 96.573099 114.558626 
L 96.628852 115.106355 
L 96.69475 117.511391 
L 96.989749 119.087466 
L 97.286052 116.821769 
L 97.48986 112.817903 
L 97.779913 111.837768 
L 98.202731 117.184771 
L 98.47895 116.200994 
L 98.717529 114.391017 
L 99.025598 115.665768 
L 99.325453 116.049879 
L 99.795665 112.009433 
L 100.391 114.22454 
L 100.526244 116.304869 
L 101.868401 113.662274 
L 103.165642 114.322649 
L 104.594361 114.102939 
L 104.673559 118.461001 
L 105.09155 113.598115 
L 105.454112 112.414512 
L 105.687883 112.081102 
L 106.305417 114.719779 
L 107.089968 105.962465 
L 107.387998 106.495231 
L 107.688168 109.075846 
L 108.164534 117.075465 
L 108.347806 118.563801 
L 108.640473 117.612637 
L 109.117895 114.439216 
L 109.477366 116.267396 
L 109.596272 119.250789 
L 109.892792 120.229847 
L 110.192261 118.400725 
L 110.795086 108.936233 
L 111.052094 109.430005 
L 111.29097 112.651803 
L 111.577019 114.148001 
L 112.049728 110.179434 
L 112.289519 110.804553 
L 112.792567 114.707499 
L 113.325136 115.826407 
L 113.541144 114.255218 
L 113.788285 113.899886 
L 114.093357 116.418239 
L 114.33146 119.489968 
L 114.540544 119.639509 
L 114.883064 117.112382 
L 115.036051 114.504252 
L 115.313819 115.174683 
L 115.937099 117.372464 
L 116.002065 118.175338 
L 116.216076 116.321066 
L 116.30385 113.827984 
L 116.475791 112.522927 
L 116.782905 112.789166 
L 117.130896 112.741238 
L 117.249404 112.346878 
L 117.487743 112.911329 
L 117.726095 113.16071 
L 118.024139 112.737314 
L 118.450471 113.511147 
L 118.928024 115.937893 
L 119.289499 115.099772 
L 119.523478 113.552456 
L 119.821194 115.216386 
L 119.945178 117.704204 
L 120.298612 116.594947 
L 120.606507 114.233069 
L 120.715903 115.014855 
L 120.9231 118.091963 
L 121.194101 119.380625 
L 121.671188 112.949366 
L 121.912267 113.460561 
L 122.149815 114.37818 
L 122.624796 114.163125 
L 122.690525 115.481865 
L 122.935962 116.434593 
L 123.160922 115.04308 
L 123.69748 110.512749 
L 124.174029 115.977107 
L 124.949134 115.244467 
L 125.13009 113.33358 
L 125.427231 111.720279 
L 125.665306 111.484278 
L 125.857602 113.571061 
L 126.147722 115.322987 
L 126.627668 113.85379 
L 127.101098 114.628525 
L 127.397474 114.553809 
L 127.755155 113.99366 
L 128.11266 115.903636 
L 128.470607 116.5263 
L 128.590202 116.318947 
L 128.828251 116.358961 
L 129.127471 115.844858 
L 129.721296 116.242906 
L 130.080965 117.463748 
L 130.318908 116.879079 
L 131.094146 113.409631 
L 131.390373 113.780011 
L 131.570561 114.223838 
L 132.288655 112.283208 
L 132.530023 112.630361 
L 132.778446 113.258347 
L 133.080422 115.111179 
L 133.269134 117.659583 
L 133.599891 117.107093 
L 133.781243 114.118206 
L 134.048442 114.189658 
L 134.27389 116.985744 
L 134.511673 116.735882 
L 134.752536 113.908913 
L 134.988169 113.225212 
L 135.524563 116.638985 
L 136.061597 111.897918 
L 136.299914 111.866502 
L 136.537647 113.375743 
L 137.144696 111.254953 
L 137.371933 112.39538 
L 137.496099 114.074645 
L 137.729921 114.888768 
L 138.031643 113.500217 
L 138.237846 111.911911 
L 138.462756 112.23824 
L 138.821519 114.262611 
L 139.04073 114.515505 
L 139.996454 112.812077 
L 140.23413 113.345165 
L 140.475957 115.573072 
L 140.727123 119.104425 
L 141.011902 121.434604 
L 141.192054 119.839433 
L 141.74323 116.108746 
L 142.220316 120.608344 
L 142.460347 121.172175 
L 142.698106 118.433094 
L 143.173957 111.786271 
L 143.471179 112.208828 
L 143.657606 115.335988 
L 144.128735 118.826577 
L 144.365665 119.110602 
L 144.426045 116.672549 
L 144.665021 114.752223 
L 144.902659 114.38014 
L 145.379375 118.159668 
L 145.679051 118.396093 
L 146.042843 115.851254 
L 146.15371 112.911162 
L 146.451965 112.409631 
L 146.696415 115.070861 
L 146.884804 118.569386 
L 147.11376 118.58645 
L 147.644895 114.658891 
L 148.299554 116.285053 
L 148.41882 117.541884 
L 149.076012 115.623854 
L 149.373331 115.6207 
L 150.029772 117.185604 
L 150.089694 115.846925 
L 150.565971 111.504314 
L 150.92311 112.815198 
L 151.353883 113.932408 
L 151.876006 110.137046 
L 152.351803 114.947623 
L 152.532825 118.198077 
L 152.888581 120.876895 
L 153.188565 119.814773 
L 153.309231 116.874618 
L 153.54568 116.546665 
L 154.082528 120.495993 
L 154.797409 112.944065 
L 155.03402 112.959176 
L 155.333455 114.720662 
L 155.572779 117.625571 
L 155.93189 120.320086 
L 156.054561 120.251062 
L 156.288871 117.188146 
L 156.59785 115.359043 
L 157.244922 119.861057 
L 157.482632 118.287307 
L 158.075811 112.028247 
L 158.493969 109.774185 
L 159.028959 117.003633 
L 159.268997 117.456389 
L 159.984424 109.385165 
L 160.222772 110.15061 
L 160.639178 113.190919 
L 160.761288 115.071577 
L 161.002186 113.16431 
L 161.236001 109.856396 
L 161.473201 108.143849 
L 161.716034 109.159707 
L 162.430118 120.199515 
L 162.728429 119.285527 
L 163.21208 114.345125 
L 163.682554 119.645755 
L 163.922713 119.587473 
L 164.397251 114.60287 
L 164.755999 114.16851 
L 164.99298 114.810002 
L 165.410163 117.987255 
L 165.64954 118.196071 
L 166.126682 114.213298 
L 166.482576 115.400047 
L 166.661225 116.804231 
L 166.89949 115.977411 
L 167.436563 112.732025 
L 167.735563 113.92977 
L 167.91455 115.646009 
L 168.391427 116.42116 
L 168.63296 116.024077 
L 168.867709 116.212629 
L 169.165479 115.885784 
L 169.529336 115.097984 
L 169.881582 113.21291 
L 170.203109 112.846434 
L 170.598518 114.642417 
L 170.837969 114.530825 
L 171.25828 113.42268 
L 171.432118 112.569852 
L 172.146868 114.415869 
L 172.569875 115.198788 
L 172.835447 113.933361 
L 173.106348 112.067818 
L 173.339268 112.337799 
L 173.707388 114.534864 
L 174.158309 112.057531 
L 174.177757 112.05579 
L 174.535783 117.408759 
L 174.91395 117.932091 
L 175.073934 114.906748 
L 175.310543 112.560098 
L 175.54851 113.601831 
L 175.787124 115.9968 
L 176.085682 115.284186 
L 176.323655 114.142198 
L 176.579702 116.162134 
L 176.922167 116.90014 
L 177.049623 114.190609 
L 177.336715 111.041162 
L 177.648399 110.585216 
L 177.755713 112.859048 
L 178.11115 114.87513 
L 178.352257 114.415336 
L 178.528778 113.315323 
L 179.02236 112.390868 
L 179.243954 109.970755 
L 179.542117 111.888103 
L 180.199819 119.584025 
L 180.334683 118.934389 
L 180.554724 115.461787 
L 180.764952 114.345402 
L 181.237254 117.727813 
L 181.716775 117.139622 
L 181.952198 117.449446 
L 182.311857 117.226446 
L 182.856642 114.786736 
L 182.972183 114.915891 
L 184.008236 115.627772 
L 184.480842 113.302258 
L 184.866663 113.344994 
L 184.96201 115.00715 
L 185.456212 118.483135 
L 185.79372 116.896387 
L 185.914024 114.002959 
L 186.210739 114.239804 
L 186.450096 116.177301 
L 186.688066 116.623658 
L 187.183426 112.108662 
L 187.521698 111.764433 
L 187.93929 111.90097 
L 188.237062 111.976404 
L 188.475599 112.236158 
L 188.65442 112.607398 
L 189.608368 113.20187 
L 189.845677 112.185377 
L 189.964926 110.435214 
L 190.203386 110.592158 
L 190.679785 117.075319 
L 190.869436 118.066474 
L 191.396627 114.115392 
L 191.946866 118.715254 
L 192.117173 120.608539 
L 192.356479 119.956919 
L 193.072666 112.305618 
L 193.608741 117.432428 
L 193.905827 117.082251 
L 194.087116 114.581364 
L 194.441225 114.2538 
L 194.621423 114.390628 
L 194.919455 113.848529 
L 195.159734 114.487326 
L 195.574242 118.721767 
L 196.050762 113.990904 
L 196.348274 116.180985 
L 196.532194 116.6998 
L 196.824916 114.39122 
L 197.066503 114.290733 
L 197.302744 117.599383 
L 197.540668 118.554659 
L 198.021222 112.976217 
L 198.278285 114.869505 
L 198.614978 115.286788 
L 198.857745 113.328862 
L 199.328922 118.733727 
L 199.627167 117.532169 
L 199.755281 113.323054 
L 200.037406 112.780134 
L 200.288499 115.560225 
L 200.523074 115.805022 
L 200.76342 112.877883 
L 201.023906 114.041319 
L 201.252764 117.323009 
L 201.602062 117.849883 
L 202.020372 113.591366 
L 202.258451 114.149681 
L 202.734673 115.865156 
L 203.271444 115.795603 
L 203.986273 114.15368 
L 204.347506 114.274868 
L 204.462725 114.55509 
L 204.819721 113.713664 
L 205.180009 111.114084 
L 205.475165 112.349503 
L 205.723048 115.49954 
L 206.192034 115.92343 
L 206.452348 111.770762 
L 206.78839 113.439404 
L 207.266495 119.999758 
L 207.443269 119.988742 
L 207.922916 116.220694 
L 208.578156 114.738776 
L 209.172823 117.028059 
L 209.600943 116.656081 
L 209.950317 114.378413 
L 210.425683 118.026535 
L 210.663532 117.494017 
L 210.903374 117.287862 
L 211.140394 116.752603 
L 211.378598 115.347366 
L 211.677486 114.42139 
L 212.333313 118.729815 
L 212.393738 121.281187 
L 212.631154 121.374424 
L 213.168289 116.353184 
L 213.405839 115.890112 
L 213.824739 118.845895 
L 214.121064 118.38371 
L 215.076049 108.538132 
L 215.37507 110.033672 
L 215.554742 113.799662 
L 215.851328 117.3326 
L 216.089667 118.543554 
L 216.389104 116.586147 
L 216.58001 113.26832 
L 216.811423 111.681207 
L 217.102957 113.178944 
L 217.877773 120.201265 
L 218.056338 119.409901 
L 218.294893 116.894867 
L 218.776973 114.304562 
L 219.266031 115.200614 
L 219.30768 116.143152 
L 219.551399 115.92907 
L 220.04435 112.277715 
L 220.32987 112.235662 
L 220.62314 113.338087 
L 220.8622 115.114976 
L 221.162767 115.196648 
L 221.338171 114.293204 
L 221.515496 114.125473 
L 221.99322 114.956959 
L 222.055181 116.702434 
L 222.530269 119.362467 
L 222.771536 118.272644 
L 223.248476 112.435223 
L 223.554257 111.707754 
L 223.732051 113.061742 
L 224.048213 113.793726 
L 224.738977 109.824377 
L 224.976617 109.400906 
L 225.274355 109.569461 
L 225.513956 110.22944 
L 225.75103 109.536093 
L 226.226817 106.255088 
L 226.525541 106.19844 
L 226.707352 107.443329 
L 227.004147 107.031093 
L 227.422827 104.53731 
L 227.717393 101.945282 
L 227.956897 100.262619 
L 228.194151 100.517763 
L 229.211707 109.881218 
L 229.507621 111.318709 
L 229.86666 111.018255 
L 231.242363 100.659516 
L 231.630147 99.734266 
L 231.663719 99.165472 
L 232.136825 98.529737 
L 232.316057 98.696195 
L 232.434509 100.011032 
L 232.915984 101.920937 
L 233.208451 104.340581 
L 233.387885 106.780022 
L 233.626662 108.478527 
L 233.864567 108.738225 
L 234.163673 108.045089 
L 234.638675 102.308483 
L 235.11598 96.436693 
L 235.432665 93.956983 
L 235.72695 93.062917 
L 235.906757 93.039054 
L 236.084479 93.400658 
L 236.384217 92.956529 
L 236.621287 92.185 
L 236.919839 93.198946 
L 237.395703 93.815557 
L 237.695023 93.148348 
L 237.874902 93.772005 
L 238.290534 93.025865 
L 238.35076 91.998979 
L 238.589264 90.19275 
L 238.828455 89.620696 
L 239.305311 92.757292 
L 239.549082 96.204682 
L 239.840779 98.287485 
L 240.023237 101.681513 
L 240.317181 102.192995 
L 240.614551 102.065593 
L 240.793797 101.174617 
L 241.389884 97.113375 
L 241.569338 94.087831 
L 241.806632 92.266157 
L 242.044896 89.196243 
L 242.641746 85.310389 
L 242.939843 84.632291 
L 243.41606 86.500962 
L 243.539421 90.825623 
L 244.253567 97.568372 
L 244.531837 98.257051 
L 244.760099 97.956881 
L 244.998784 96.836483 
L 245.503869 93.510879 
L 245.741822 90.1557 
L 246.202726 85.92259 
L 246.460816 80.828602 
L 246.754794 80.063621 
L 246.994239 78.929645 
L 247.469526 78.922148 
L 248.125328 83.332622 
L 248.363697 87.303715 
L 248.543255 92.727835 
L 248.848689 93.593925 
L 249.020847 92.561844 
L 249.218981 88.48357 
L 249.91722 78.553938 
L 250.176782 78.731832 
L 250.454559 77.742325 
L 250.69308 77.845742 
L 250.990238 75.060304 
L 251.171156 74.921316 
L 251.466717 75.696474 
L 252.004037 80.128564 
L 252.243865 82.547926 
L 252.425758 86.690474 
L 252.66071 87.487942 
L 253.137428 90.774971 
L 253.437262 90.212296 
L 253.732822 86.538595 
L 254.151034 79.113062 
L 254.866171 68.568069 
L 255.283195 65.400656 
L 255.879236 58.453394 
L 256.118256 61.471197 
L 256.596713 70.740459 
L 257.013573 75.795091 
L 257.134596 79.166033 
L 257.61066 85.179875 
L 257.848051 86.6983 
L 258.20509 84.853574 
L 258.577231 81.489957 
L 258.859825 80.237284 
L 259.158214 81.237145 
L 259.487917 80.855535 
L 260.173233 85.074473 
L 260.294447 87.686424 
L 260.591149 90.584946 
L 260.949329 92.240614 
L 261.322962 89.752288 
L 261.490067 86.625881 
L 261.602805 81.289053 
L 261.975746 78.285089 
L 262.086563 75.592352 
L 263.330837 69.241326 
L 263.7477 71.875512 
L 264.105397 81.755301 
L 264.285849 84.085108 
L 264.643203 84.875954 
L 264.881961 82.690069 
L 265.299527 75.61877 
L 265.714773 72.66201 
L 265.955612 73.765812 
L 266.191948 73.43619 
L 266.252174 73.613447 
L 266.48981 72.251481 
L 266.788459 72.191859 
L 267.324829 70.662927 
L 267.563622 71.830095 
L 268.099501 78.876778 
L 268.532791 80.927446 
L 269.017167 76.544011 
L 269.233644 72.49377 
L 269.530633 69.04228 
L 270.245132 65.536604 
L 270.661966 65.18004 
L 270.723 66.410478 
L 270.960397 65.865837 
L 271.318588 65.747946 
L 271.735812 68.153929 
L 272.454512 72.83563 
L 272.927961 71.330406 
L 273.643316 67.848572 
L 273.969451 66.445896 
L 274.219372 66.412069 
L 274.845561 65.04845 
L 275.037647 62.40954 
L 275.313574 61.599427 
L 275.437851 60.384653 
L 275.791628 61.383236 
L 275.91339 64.241285 
L 276.393789 69.610648 
L 276.812326 69.957639 
L 277.049078 70.675859 
L 277.162083 69.873467 
L 277.590469 70.528656 
L 277.939041 69.919153 
L 278.12053 66.909947 
L 278.624491 62.166547 
L 278.955747 61.042798 
L 279.431173 65.884047 
L 279.612332 70.324433 
L 280.086959 73.651139 
L 280.384925 72.652901 
L 281.1601 65.663798 
L 281.457142 64.727484 
L 281.594071 63.018429 
L 282.056615 61.731143 
L 282.113657 62.220466 
L 282.351481 61.44915 
L 282.533731 63.03619 
L 283.306338 74.865906 
L 283.66432 75.131727 
L 284.088847 74.052081 
L 284.319934 72.195089 
L 284.563335 72.403807 
L 285.034625 73.979973 
L 286.048783 63.011958 
L 286.292195 64.131429 
L 287.007247 70.798286 
L 287.262421 70.130093 
L 287.900764 64.418914 
L 288.259375 69.261028 
L 288.497522 74.384583 
L 288.736219 75.137545 
L 289.035046 72.466481 
L 289.455069 62.605224 
L 289.811148 59.940514 
L 290.227704 60.486773 
L 290.465879 65.794908 
L 290.948755 67.277186 
L 291.225488 67.289333 
L 291.495528 67.855188 
L 291.679836 70.213438 
L 292.13465 72.716999 
L 292.194976 72.671174 
L 292.730948 69.563546 
L 292.969282 69.543725 
L 293.207555 67.865431 
L 293.689059 66.213113 
L 294.221147 63.336626 
L 294.466574 63.362876 
L 294.878318 67.887649 
L 295.4127 75.495614 
L 295.717231 76.54032 
L 295.948103 75.348103 
L 296.426372 71.182086 
L 296.607631 70.417701 
L 296.961851 71.931467 
L 297.152314 73.854473 
L 297.438974 74.962185 
L 297.620443 73.575549 
L 298.335465 62.563324 
L 298.632709 65.12349 
L 299.108436 76.007152 
L 299.60655 75.294481 
L 299.827215 68.943191 
L 300.361705 62.715522 
L 300.600166 64.715424 
L 301.079765 70.291211 
L 301.494049 68.944046 
L 301.613328 65.933583 
L 301.911255 63.158057 
L 302.09056 63.141816 
L 302.447614 65.807051 
L 302.80676 70.626509 
L 303.043886 72.146656 
L 303.341324 71.407857 
L 303.54503 70.171945 
L 303.826118 70.196773 
L 304.595673 77.38235 
L 304.95287 77.309296 
L 305.252232 74.618498 
L 305.31073 71.552762 
L 305.548602 69.223559 
L 305.846457 70.434605 
L 306.02906 72.015622 
L 306.385283 72.560149 
L 306.562027 72.051934 
L 306.996024 70.424787 
L 307.281744 71.36268 
L 307.656728 75.784124 
L 308.067971 81.512388 
L 308.537897 76.163852 
L 309.086734 69.83849 
L 309.313549 68.91025 
L 309.455479 69.276561 
L 309.930311 69.067441 
L 310.001814 68.668434 
L 310.28921 68.815158 
L 310.527271 69.131433 
L 311.781527 74.902627 
L 312.501747 72.107951 
L 312.732977 73.464063 
L 313.090224 76.874358 
L 313.212638 75.8119 
L 313.568273 79.251975 
L 314.235778 147.215794 
L 314.58015 166.466864 
L 314.701814 182.435795 
L 315.682591 225.589106 
L 316.016983 225.091887 
L 316.33419 196.333594 
L 316.452034 157.303312 
L 317.410895 37.226992 
L 318.060545 1.91926 
L 318.180102 0.72 
L 318.718927 23.74791 
L 319.910478 137.418619 
L 320.14826 145.69954 
L 320.328134 144.248928 
L 320.624731 133.798137 
L 321.584298 67.190697 
L 322.117615 53.781822 
L 322.357206 53.960274 
L 322.592008 59.873915 
L 323.070052 83.132088 
L 323.548541 113.83315 
L 324.083748 128.946786 
L 324.50419 127.795145 
L 324.569671 121.733113 
L 325.454334 79.968991 
L 325.812051 53.094639 
L 326.051482 45.713564 
L 326.294583 44.466302 
L 326.530758 49.088058 
L 327.242305 69.316452 
L 327.301953 82.941376 
L 328.020226 124.200769 
L 328.256505 129.914781 
L 328.495475 128.297924 
L 329.171816 109.828847 
L 329.275333 95.975338 
L 329.745474 70.46833 
L 330.162941 60.256273 
L 330.282264 53.821237 
L 330.580948 51.648992 
L 330.761294 55.332361 
L 331.312423 74.957455 
L 332.018819 105.483875 
L 332.248663 110.710637 
L 332.487919 112.589562 
L 332.725398 110.277098 
L 333.024265 105.482626 
L 334.226045 66.298065 
L 334.581092 65.283815 
L 335.022935 73.497719 
L 335.709664 92.984094 
L 335.971918 97.502664 
L 336.184852 98.937066 
L 336.423478 97.577468 
L 336.663453 93.747958 
L 337.916816 63.507126 
L 338.161358 62.171865 
L 338.54477 63.087524 
L 338.658091 65.591614 
L 338.944233 68.38845 
L 338.991294 70.540031 
L 339.29103 73.44395 
L 339.410048 78.309425 
L 340.12328 84.822831 
L 340.421547 85.139944 
L 340.719728 84.380282 
L 341.13678 80.13113 
L 341.615004 76.904001 
L 341.917182 77.04718 
L 342.390217 83.291973 
L 342.592547 88.341529 
L 342.865715 92.264859 
L 343.224194 94.839307 
L 343.364331 97.023026 
L 343.582206 98.158303 
L 343.819625 98.576745 
L 344.2367 97.178365 
L 344.355474 93.760983 
L 344.654162 89.016546 
L 345.073439 78.012639 
L 346.084919 66.357688 
L 346.386542 65.302987 
L 346.623265 66.499654 
L 347.336523 82.878866 
L 347.633595 86.779395 
L 347.812551 87.45091 
L 348.051726 86.60773 
L 348.470912 87.106481 
L 348.531021 88.902182 
L 348.830156 90.300072 
L 349.025631 89.910861 
L 349.25029 86.929659 
L 349.603408 80.424747 
L 349.8421 73.147072 
L 350.139628 68.664385 
L 350.26536 68.536387 
L 351.033535 79.61043 
L 351.510253 81.208413 
L 351.86755 81.249968 
L 352.34541 85.610458 
L 352.643325 87.494457 
L 352.763199 86.526763 
L 353.777296 66.277166 
L 354.192068 66.754821 
L 354.26785 70.0117 
L 354.967142 81.443121 
L 355.563366 86.352758 
L 355.691361 89.913515 
L 356.230389 95.825022 
L 356.695564 95.072826 
L 357.11492 90.474224 
L 357.414082 78.589077 
L 357.768024 74.858203 
L 358.067321 75.914397 
L 358.200121 77.895984 
L 358.619507 76.915042 
L 358.726755 76.298999 
L 359.203431 80.028999 
L 359.448191 82.240053 
L 360.223373 86.532084 
L 360.464925 86.55019 
L 360.876193 84.985573 
L 361.129106 82.249053 
L 361.661674 73.610344 
L 361.887082 72.717045 
L 362.185637 75.008687 
L 362.424082 79.551188 
L 362.662654 81.114449 
L 363.20353 78.470707 
L 363.423447 79.876368 
L 363.916371 88.10849 
L 364.298259 88.099315 
L 364.393153 85.41291 
L 364.92917 81.431503 
L 365.107627 80.204425 
L 365.345698 79.971639 
L 365.643635 78.35163 
L 366.120566 72.951276 
L 366.430486 73.056551 
L 366.661699 76.964269 
L 366.95586 79.790818 
L 367.137644 79.828509 
L 367.313284 78.382847 
L 367.613202 79.187922 
L 368.164973 83.902115 
L 368.328014 83.93873 
L 368.629685 81.297195 
L 369.113805 74.727451 
L 369.34484 74.918005 
L 369.529356 76.458681 
L 369.821758 77.108886 
L 370.240307 76.079995 
L 370.360723 76.729993 
L 370.716213 76.939121 
L 370.778089 78.239733 
L 371.312315 82.739662 
L 371.789135 84.255369 
L 372.027824 84.65601 
L 372.325578 86.271339 
L 372.572937 86.386375 
L 372.861574 82.629222 
L 373.223258 80.217875 
L 373.518933 83.855804 
L 373.93445 84.0609 
L 373.993192 82.308038 
L 374.71244 74.805451 
L 375.080509 76.569634 
L 375.245909 80.94947 
L 375.486534 83.004039 
L 375.841426 81.361187 
L 376.021182 78.617546 
L 376.325316 77.203366 
L 376.501063 78.321122 
L 376.735908 80.776479 
L 377.154139 81.607075 
L 377.275259 80.474064 
L 377.454122 76.850547 
L 377.691085 74.439053 
L 377.97089 75.610921 
L 378.467507 79.469104 
L 378.705786 79.842265 
L 379.541591 82.76051 
L 379.77876 82.286913 
L 379.957593 82.201133 
L 380.315476 81.244144 
L 380.43452 78.965095 
L 380.67377 77.863411 
L 381.209422 81.32843 
L 381.566802 79.274649 
L 381.744983 76.012923 
L 382.170296 75.662769 
L 382.401177 80.637428 
L 382.640935 83.195369 
L 382.938268 83.560884 
L 383.653191 76.103516 
L 383.891272 76.435407 
L 384.36784 80.925673 
L 384.608478 80.381832 
L 385.024513 77.651532 
L 385.141968 74.989772 
L 385.442062 75.840777 
L 385.982328 81.864239 
L 386.154941 83.772752 
L 386.572481 83.03622 
L 386.633083 79.821038 
L 386.871953 77.355315 
L 387.288124 77.535346 
L 387.408358 79.768587 
L 387.883735 83.572753 
L 388.657811 76.686017 
L 388.83674 77.895887 
L 389.078696 81.172954 
L 389.373409 83.554168 
L 389.673069 83.568444 
L 389.85151 81.943089 
L 390.209139 79.278743 
L 390.327434 75.711195 
L 390.566718 74.409121 
L 391.283443 77.271734 
L 391.578394 77.069347 
L 391.956832 77.405395 
L 392.294363 80.460051 
L 392.832412 82.090679 
L 393.65145 81.21264 
L 394.023607 83.144033 
L 394.261973 83.636157 
L 394.507191 84.516846 
L 395.156539 85.045236 
L 395.275553 84.43046 
L 395.817442 83.233691 
L 396.468688 83.793731 
L 396.709418 83.559759 
L 397.480824 80.486422 
L 397.839129 80.816922 
L 398.01748 81.534343 
L 398.255879 81.065675 
L 398.493969 79.246802 
L 398.732782 76.453737 
L 399.032184 74.306455 
L 399.629341 71.754506 
L 399.867123 72.224347 
L 400.224723 77.36953 
L 401.000306 86.758084 
L 401.240795 88.115949 
L 401.476641 87.893749 
L 401.775515 86.363794 
L 402.908526 74.032729 
L 403.162416 73.402614 
L 403.206332 72.768115 
L 403.633589 75.221932 
L 403.922551 75.953322 
L 404.188901 76.296379 
L 404.402506 76.209522 
L 404.641312 76.49256 
L 404.947887 77.83227 
L 405.385104 81.816239 
L 405.65268 82.284956 
L 406.667313 80.893034 
L 406.963223 81.193886 
L 407.144113 81.117161 
L 407.380891 79.49153 
L 407.860801 72.779961 
L 408.398363 69.755631 
L 408.636507 69.834806 
L 408.917998 71.501905 
L 409.234688 74.088663 
L 409.470635 77.133262 
L 409.589722 80.929956 
L 409.829013 83.597052 
L 410.126347 84.936309 
L 410.42592 84.926904 
L 411.143152 82.701035 
L 411.320402 82.884259 
L 411.857209 84.001844 
L 412.096215 84.035495 
L 412.512689 84.640124 
L 412.58546 85.106505 
L 413.062343 86.296283 
L 413.456757 84.854696 
L 413.81476 79.373144 
L 414.472681 71.712383 
L 414.533583 67.739867 
L 414.830286 64.43116 
L 415.068038 63.581079 
L 415.309724 63.630601 
L 415.559664 65.055206 
L 415.96323 68.870815 
L 416.023198 72.65097 
L 416.563927 79.499163 
L 417.002271 85.966169 
L 417.276707 87.530628 
L 417.709181 87.596771 
L 417.756951 87.194827 
L 418.054464 87.512175 
L 418.530943 87.587645 
L 419.126668 86.196322 
L 419.962564 81.589326 
L 420.738015 80.993526 
L 420.975057 80.983455 
L 421.214128 81.156533 
L 421.512226 80.242585 
L 421.693249 78.373269 
L 422.225812 76.954943 
L 422.234324 77.687806 
L 422.468961 79.861546 
L 423.004989 82.606783 
L 423.960579 79.995512 
L 424.43705 81.713753 
L 424.675708 81.494965 
L 425.155055 77.045094 
L 425.574673 76.688793 
L 425.629286 77.197385 
L 426.40654 78.31686 
L 426.64547 77.237046 
L 427.190077 76.134408 
L 427.659166 78.286057 
L 427.90644 77.247465 
L 427.958088 76.182905 
L 428.19698 75.809494 
L 428.436409 74.951425 
L 428.619145 75.494 
L 429.151322 80.373151 
L 429.628082 84.335886 
L 429.867272 84.136293 
L 430.10485 82.676683 
L 430.774626 77.35538 
L 431.121983 70.197926 
L 431.597523 61.475449 
L 432.095657 56.199397 
L 432.561897 46.19139 
L 432.821237 44.414975 
L 433.156978 44.21227 
L 433.594031 45.02869 
L 434.121676 42.621558 
L 434.414608 42.306957 
L 435.793016 80.146564 
L 436.163582 85.934849 
L 436.324342 92.988604 
L 436.627299 98.056542 
L 436.862153 98.381356 
L 437.640155 84.277998 
L 437.947846 81.929533 
L 438.778576 64.449463 
L 439.093849 63.117821 
L 440.027646 89.109792 
L 440.326857 90.008419 
L 440.505242 89.664652 
L 441.360449 86.244535 
L 441.460589 83.095677 
L 441.817555 78.401143 
L 441.996582 72.92426 
L 442.476381 66.518078 
L 442.882088 65.624781 
L 443.119643 66.228316 
L 443.306995 69.669078 
L 444.193965 94.594581 
L 444.670741 95.275554 
L 445.029606 87.77119 
L 445.21114 84.001697 
L 445.566243 81.77583 
L 445.950184 76.198675 
L 446.46149 71.662241 
L 446.703529 72.520236 
L 447.182432 78.12104 
L 448.138367 89.452601 
L 448.437338 90.630286 
L 448.625267 90.005397 
L 448.91479 88.212739 
L 449.392189 83.585817 
L 449.808343 82.834966 
L 450.46407 87.033006 
L 451.180519 89.719828 
L 451.658653 92.815225 
L 451.839194 92.860852 
L 452.326715 91.527369 
L 452.613173 90.973025 
L 453.098099 87.942061 
L 453.469682 85.189972 
L 453.809319 78.953878 
L 454.134366 77.021351 
L 454.765606 75.442226 
L 455.071869 73.24709 
L 455.300727 73.770672 
L 455.961335 79.648763 
L 456.566905 90.432887 
L 456.984034 89.671944 
L 457.044693 88.383462 
L 457.462645 86.270509 
L 457.762486 82.886138 
L 458.176246 81.452515 
L 458.295734 80.49915 
L 458.535771 79.580687 
L 458.772737 78.214254 
L 459.18988 78.446504 
L 459.846799 95.207288 
L 460.264394 100.914825 
L 460.505547 101.866083 
L 460.801349 101.006925 
L 462.535859 90.527782 
L 462.954361 89.507634 
L 463.252644 89.678756 
L 464.210024 94.765042 
L 464.468285 94.150915 
L 464.923343 89.228705 
L 466.243917 68.703991 
L 466.663185 65.274743 
L 466.961408 65.295672 
L 467.597038 70.615107 
L 467.921045 79.250442 
L 468.454257 82.666943 
L 468.761166 81.226208 
L 469.179483 75.843762 
L 469.542461 71.66383 
L 469.64942 68.04014 
L 470.128335 61.340484 
L 470.435389 59.826125 
L 470.683137 60.303278 
L 470.906718 62.219175 
L 472.456786 88.277089 
L 472.636186 90.661562 
L 473.172886 92.244223 
L 473.634969 92.060912 
L 473.868197 90.993523 
L 474.170263 90.159879 
L 474.645427 90.058889 
L 474.949827 89.620757 
L 475.125654 88.995144 
L 475.315542 88.881924 
L 476.079329 87.383281 
L 476.555932 84.894285 
L 477.212458 79.728392 
L 477.361592 76.56283 
L 477.749946 74.618923 
L 477.868828 72.551906 
L 478.107403 71.437808 
L 478.643526 70.456943 
L 478.775738 70.512253 
L 479.305237 73.851514 
L 479.798874 77.542615 
L 480.259337 80.690229 
L 480.639147 80.417181 
L 481.30086 75.455708 
L 481.817167 70.453726 
L 482.301583 68.836812 
L 482.796157 68.095151 
L 483.087039 68.66188 
L 483.208624 69.896827 
L 483.500877 70.930187 
L 484.216787 75.660806 
L 484.514676 75.530375 
L 484.761105 75.279746 
L 485.230884 73.114698 
L 485.470722 74.082361 
L 486.247979 79.059311 
L 486.961225 85.487353 
L 487.677248 95.590199 
L 488.214516 98.276106 
L 488.455338 98.930738 
L 488.751713 98.538048 
L 488.931602 97.815859 
L 489.540319 96.689977 
L 490.005091 95.002363 
L 490.481391 95.218739 
L 490.683853 94.934334 
L 490.899752 94.901427 
L 491.494573 96.772774 
L 492.154206 100.110146 
L 492.390345 100.571503 
L 492.705805 100.359172 
L 493.601015 97.443787 
L 493.66099 96.043121 
L 494.141209 92.691803 
L 495.092642 86.537171 
L 496.407336 81.591424 
L 496.931081 77.881957 
L 497.32743 73.991053 
L 497.602808 73.426945 
L 497.947291 73.775226 
L 498.144884 74.701751 
L 498.860584 79.368115 
L 499.337413 81.764069 
L 499.817608 83.968223 
L 500.113488 84.123814 
L 500.650281 80.756128 
L 500.829084 78.733802 
L 501.425955 74.962851 
L 501.604394 75.194266 
L 502.085048 76.087035 
L 502.321119 79.521294 
L 503.051282 85.855904 
L 503.515493 94.231276 
L 504.051407 101.03278 
L 504.229888 103.923787 
L 504.650095 105.081291 
L 504.707569 104.920417 
L 505.069486 102.257458 
L 505.78225 92.168268 
L 506.266043 84.325029 
L 506.569872 80.957417 
L 506.746757 77.241957 
L 507.231373 72.543272 
L 507.475334 72.972539 
L 507.708032 74.407116 
L 508.005894 75.207488 
L 508.190358 76.154699 
L 508.485193 76.732284 
L 508.787092 76.39466 
L 509.275368 74.584679 
L 509.498512 73.569357 
L 509.921977 73.084352 
L 509.97473 72.20973 
L 510.21317 72.556669 
L 510.631246 72.844028 
L 510.691646 72.717549 
L 511.266656 73.801682 
L 512.42372 87.759249 
L 512.662927 87.871409 
L 512.902669 88.112239 
L 513.214663 88.151491 
L 513.619081 87.811074 
L 513.68035 88.013819 
L 513.915563 87.889413 
L 514.39837 88.166846 
L 514.571539 87.978226 
L 514.703169 88.230856 
L 514.890518 89.165525 
L 515.247869 91.705096 
L 516.400242 105.351742 
L 516.922212 103.940756 
L 517.159528 102.567016 
L 517.51651 101.429465 
L 518.480489 89.427716 
L 518.653123 85.128294 
L 519.388449 75.866983 
L 519.725267 74.261173 
L 519.86004 73.049947 
L 520.141772 73.43199 
L 520.621899 76.98794 
L 520.859464 79.045169 
L 521.115203 82.49 
L 521.637701 95.145254 
L 522.117242 107.198304 
L 522.363738 109.711504 
L 522.827932 110.921186 
L 523.266623 113.127939 
L 523.497826 115.380761 
L 523.843711 115.646667 
L 524.131034 107.000383 
L 524.380779 92.460988 
L 524.857058 81.021448 
L 524.9168 72.220203 
L 525.692727 60.983867 
L 525.814188 60.803093 
L 526.316015 61.647489 
L 527.314102 89.859292 
L 527.911085 95.331167 
L 528.28225 91.3272 
L 529.166701 66.155647 
L 529.284939 65.721776 
L 529.533417 67.637703 
L 529.890641 71.465612 
L 530.247674 82.183423 
L 530.664454 89.08936 
L 531.621121 119.589406 
L 531.88268 119.573208 
L 532.524468 100.73463 
L 532.939696 82.914378 
L 533.72434 62.935371 
L 533.946454 59.907225 
L 534.245028 59.581429 
L 534.451003 60.469399 
L 535.028561 65.786003 
L 535.504579 71.792284 
L 535.801994 72.513097 
L 536.733933 65.79394 
L 536.938388 65.466441 
L 537.241818 66.162427 
L 537.57183 68.214754 
L 537.923297 74.319153 
L 538.432501 83.57884 
L 539.203163 97.138704 
L 539.439601 99.034508 
L 539.680701 99.303219 
L 539.916955 97.636824 
L 540.924843 85.701858 
L 541.483777 80.095445 
L 541.907515 78.200874 
L 542.137411 79.475825 
L 543.147255 94.017283 
L 543.625901 99.694479 
L 543.867082 100.196307 
L 544.160754 99.587208 
L 544.419445 97.991228 
L 544.997465 91.80224 
L 545.177199 88.71036 
L 545.613251 85.19366 
L 545.716345 83.095428 
L 546.311255 80.547418 
L 546.562256 80.291417 
L 547.086927 78.918985 
L 547.328605 78.086933 
L 547.562717 76.673927 
L 548.044159 70.961715 
L 548.57849 63.629443 
L 549.053617 58.203525 
L 549.551337 57.369333 
L 550.187418 61.680807 
L 550.496407 72.071275 
L 550.901628 77.19823 
L 551.264901 84.028094 
L 551.511124 85.358803 
L 551.737027 85.824889 
L 552.395465 86.371797 
L 552.516451 85.463754 
L 553.231918 83.638236 
L 553.531832 84.691518 
L 554.326986 97.588012 
L 554.745389 104.878767 
L 554.984158 107.453678 
L 555.281591 108.91639 
L 555.937535 110.394427 
L 556.23672 109.722479 
L 556.8397 106.010809 
L 556.966916 103.540968 
L 557.459078 98.017825 
L 557.570223 92.148077 
L 557.960614 86.245557 
L 558.43799 82.963505 
L 558.695445 82.254062 
L 558.974965 82.045164 
L 559.210968 82.230095 
L 559.509203 82.978915 
L 559.92538 85.665839 
L 560.468553 86.37016 
L 561.186721 88.702066 
L 561.37958 89.05664 
L 561.675585 88.306171 
L 561.924237 85.433459 
L 562.153707 84.094728 
L 562.693429 83.12842 
L 562.879261 82.881694 
L 563.168071 81.890533 
L 563.541892 79.854274 
L 563.663332 78.372846 
L 564.063923 78.076361 
L 564.36587 82.656351 
L 564.602546 85.368654 
L 565.099238 87.916513 
L 565.376283 87.904065 
L 565.616165 87.525008 
L 566.154132 88.77449 
L 566.807687 87.851493 
L 566.871061 86.767498 
L 567.109206 85.771847 
L 567.348511 85.679379 
L 567.602314 85.061502 
L 567.889683 85.391936 
L 568.067008 86.583976 
L 568.36386 87.601706 
L 568.666409 88.059788 
L 568.905048 87.962633 
L 569.258048 86.820138 
L 569.556614 82.362897 
L 569.830097 81.802134 
L 570.180186 84.01718 
L 570.296782 86.631481 
L 570.596187 88.630926 
L 570.840372 89.338122 
L 571.090269 89.197664 
L 571.551927 88.05626 
L 571.854597 88.999508 
L 572.030259 90.466732 
L 572.327643 90.708367 
L 573.047077 78.405365 
L 573.343047 78.449949 
L 573.705169 81.101726 
L 574.05876 86.381186 
L 574.30091 86.576739 
L 574.789855 85.776339 
L 575.266685 89.630361 
L 575.509254 89.681351 
L 575.806683 85.399261 
L 575.982989 79.908775 
L 576.28069 76.342887 
L 576.639918 77.257888 
L 576.819632 80.136646 
L 577.176708 82.215732 
L 577.414148 82.095288 
L 577.534113 80.364484 
L 577.715511 79.457803 
L 577.951032 81.057634 
L 578.728967 89.6843 
L 579.051607 86.472781 
L 579.234913 83.329754 
L 579.471695 83.206483 
L 580.001437 85.836661 
L 580.238885 85.295898 
L 580.67193 82.458088 
L 580.954797 82.168922 
L 581.193618 83.190864 
L 581.503861 83.973607 
L 581.67021 83.735185 
L 582.031218 82.484813 
L 582.167232 82.676497 
L 582.685641 85.953623 
L 582.987025 85.980862 
L 583.282015 84.755018 
L 583.519781 81.2425 
L 583.93793 81.349572 
L 584.35554 84.810189 
L 584.712611 84.477703 
L 585.071395 76.051827 
L 585.399086 75.961804 
L 585.63542 78.293698 
L 586.150599 89.18749 
L 586.440302 89.829277 
L 586.619088 88.696958 
L 586.989148 87.520418 
L 587.158906 88.040054 
L 587.635596 90.647948 
L 587.875755 90.025801 
L 588.351426 83.800064 
L 588.64969 79.144422 
L 588.888745 78.358797 
L 589.128115 81.040827 
L 589.612081 83.786936 
L 589.849898 83.611929 
L 590.201208 83.623379 
L 590.339608 84.716667 
L 590.564453 84.907018 
L 590.858037 84.171654 
L 591.098088 84.321874 
L 591.336211 85.257973 
L 591.644742 84.856416 
L 591.94111 83.17185 
L 592.179709 83.465772 
L 592.35766 84.2363 
L 592.95496 79.442457 
L 593.252524 81.200758 
L 593.612706 85.337943 
L 593.789061 85.205751 
L 594.265573 82.448126 
L 594.510253 82.709362 
L 594.863145 84.193576 
L 595.041953 85.738271 
L 595.294118 85.849226 
L 596.26267 80.311076 
L 596.502813 81.55542 
L 596.502813 81.55542 
" clip-path="url(#pf41e579b60)" style="fill: none; stroke: #ff0000; stroke-opacity: 0.7; stroke-width: 1.5; stroke-linecap: square"/>
   </g>
   <g id="patch_3">
    <path d="M 38.502813 277.92 
L 38.502813 0.72 
" style="fill: none; stroke: #000000; stroke-width: 0.8; stroke-linejoin: miter; stroke-linecap: square"/>
   </g>
   <g id="patch_4">
    <path d="M 596.502813 277.92 
L 596.502813 0.72 
" style="fill: none; stroke: #000000; stroke-width: 0.8; stroke-linejoin: miter; stroke-linecap: square"/>
   </g>
   <g id="patch_5">
    <path d="M 38.502813 277.92 
L 596.502813 277.92 
" style="fill: none; stroke: #000000; stroke-width: 0.8; stroke-linejoin: miter; stroke-linecap: square"/>
   </g>
   <g id="patch_6">
    <path d="M 38.502813 0.72 
L 596.502813 0.72 
" style="fill: none; stroke: #000000; stroke-width: 0.8; stroke-linejoin: miter; stroke-linecap: square"/>
   </g>
   <g id="legend_1">
    <g id="patch_7">
     <path d="M 515.734062 38.07625 
L 589.502812 38.07625 
Q 591.502812 38.07625 591.502812 36.07625 
L 591.502812 7.72 
Q 591.502812 5.72 589.502812 5.72 
L 515.734062 5.72 
Q 513.734062 5.72 513.734062 7.72 
L 513.734062 36.07625 
Q 513.734062 38.07625 515.734062 38.07625 
z
" style="fill: #ffffff; opacity: 0.8; stroke: #cccccc; stroke-linejoin: miter"/>
    </g>
    <g id="line2d_29">
     <path d="M 517.734062 13.818438 
L 527.734062 13.818438 
L 537.734062 13.818438 
" style="fill: none; stroke: #0000ff; stroke-opacity: 0.7; stroke-width: 1.5; stroke-linecap: square"/>
    </g>
    <g id="text_16">
     <!-- RNEA -->
     <g transform="translate(545.734062 17.318438) scale(0.1 -0.1)">
      <defs>
       <path id="DejaVuSans-52" d="M 2841 2188 
Q 3044 2119 3236 1894 
Q 3428 1669 3622 1275 
L 4263 0 
L 3584 0 
L 2988 1197 
Q 2756 1666 2539 1819 
Q 2322 1972 1947 1972 
L 1259 1972 
L 1259 0 
L 628 0 
L 628 4666 
L 2053 4666 
Q 2853 4666 3247 4331 
Q 3641 3997 3641 3322 
Q 3641 2881 3436 2590 
Q 3231 2300 2841 2188 
z
M 1259 4147 
L 1259 2491 
L 2053 2491 
Q 2509 2491 2742 2702 
Q 2975 2913 2975 3322 
Q 2975 3731 2742 3939 
Q 2509 4147 2053 4147 
L 1259 4147 
z
" transform="scale(0.015625)"/>
       <path id="DejaVuSans-45" d="M 628 4666 
L 3578 4666 
L 3578 4134 
L 1259 4134 
L 1259 2753 
L 3481 2753 
L 3481 2222 
L 1259 2222 
L 1259 531 
L 3634 531 
L 3634 0 
L 628 0 
L 628 4666 
z
" transform="scale(0.015625)"/>
       <path id="DejaVuSans-41" d="M 2188 4044 
L 1331 1722 
L 3047 1722 
L 2188 4044 
z
M 1831 4666 
L 2547 4666 
L 4325 0 
L 3669 0 
L 3244 1197 
L 1141 1197 
L 716 0 
L 50 0 
L 1831 4666 
z
" transform="scale(0.015625)"/>
      </defs>
      <use xlink:href="#DejaVuSans-52"/>
      <use xlink:href="#DejaVuSans-4e" x="69.482422"/>
      <use xlink:href="#DejaVuSans-45" x="144.287109"/>
      <use xlink:href="#DejaVuSans-41" x="207.470703"/>
     </g>
    </g>
    <g id="line2d_30">
     <path d="M 517.734062 28.496563 
L 527.734062 28.496563 
L 537.734062 28.496563 
" style="fill: none; stroke: #ff0000; stroke-opacity: 0.7; stroke-width: 1.5; stroke-linecap: square"/>
    </g>
    <g id="text_17">
     <!-- BURNEA -->
     <g transform="translate(545.734062 31.996563) scale(0.1 -0.1)">
      <defs>
       <path id="DejaVuSans-42" d="M 1259 2228 
L 1259 519 
L 2272 519 
Q 2781 519 3026 730 
Q 3272 941 3272 1375 
Q 3272 1813 3026 2020 
Q 2781 2228 2272 2228 
L 1259 2228 
z
M 1259 4147 
L 1259 2741 
L 2194 2741 
Q 2656 2741 2882 2914 
Q 3109 3088 3109 3444 
Q 3109 3797 2882 3972 
Q 2656 4147 2194 4147 
L 1259 4147 
z
M 628 4666 
L 2241 4666 
Q 2963 4666 3353 4366 
Q 3744 4066 3744 3513 
Q 3744 3084 3544 2831 
Q 3344 2578 2956 2516 
Q 3422 2416 3680 2098 
Q 3938 1781 3938 1306 
Q 3938 681 3513 340 
Q 3088 0 2303 0 
L 628 0 
L 628 4666 
z
" transform="scale(0.015625)"/>
       <path id="DejaVuSans-55" d="M 556 4666 
L 1191 4666 
L 1191 1831 
Q 1191 1081 1462 751 
Q 1734 422 2344 422 
Q 2950 422 3222 751 
Q 3494 1081 3494 1831 
L 3494 4666 
L 4128 4666 
L 4128 1753 
Q 4128 841 3676 375 
Q 3225 -91 2344 -91 
Q 1459 -91 1007 375 
Q 556 841 556 1753 
L 556 4666 
z
" transform="scale(0.015625)"/>
      </defs>
      <use xlink:href="#DejaVuSans-42"/>
      <use xlink:href="#DejaVuSans-55" x="68.603516"/>
      <use xlink:href="#DejaVuSans-52" x="141.796875"/>
      <use xlink:href="#DejaVuSans-4e" x="211.279297"/>
      <use xlink:href="#DejaVuSans-45" x="286.083984"/>
      <use xlink:href="#DejaVuSans-41" x="349.267578"/>
     </g>
    </g>
   </g>
  </g>
 </g>
 <defs>
  <clipPath id="pf41e579b60">
   <rect x="38.502813" y="0.72" width="558" height="277.2"/>
  </clipPath>
 </defs>
</svg>
