<?xml version="1.0" encoding="utf-8" standalone="no"?>
<!DOCTYPE svg PUBLIC "-//W3C//DTD SVG 1.1//EN"
  "http://www.w3.org/Graphics/SVG/1.1/DTD/svg11.dtd">
<svg xmlns:xlink="http://www.w3.org/1999/xlink" width="590.860312pt" height="304.99625pt" viewBox="0 0 590.860312 304.99625" xmlns="http://www.w3.org/2000/svg" version="1.1">
 <metadata>
  <rdf:RDF xmlns:dc="http://purl.org/dc/elements/1.1/" xmlns:cc="http://creativecommons.org/ns#" xmlns:rdf="http://www.w3.org/1999/02/22-rdf-syntax-ns#">
   <cc:Work>
    <dc:type rdf:resource="http://purl.org/dc/dcmitype/StillImage"/>
    <dc:date>2023-09-05T22:08:39.256598</dc:date>
    <dc:format>image/svg+xml</dc:format>
    <dc:creator>
     <cc:Agent>
      <dc:title>Matplotlib v3.7.2, https://matplotlib.org/</dc:title>
     </cc:Agent>
    </dc:creator>
   </cc:Work>
  </rdf:RDF>
 </metadata>
 <defs>
  <style type="text/css">*{stroke-linejoin: round; stroke-linecap: butt}</style>
 </defs>
 <g id="figure_1">
  <g id="patch_1">
   <path d="M -0 304.99625 
L 590.860312 304.99625 
L 590.860312 0 
L -0 0 
L -0 304.99625 
z
" style="fill: none"/>
  </g>
  <g id="axes_1">
   <g id="patch_2">
    <path d="M 32.140313 277.92 
L 590.140313 277.92 
L 590.140313 0.72 
L 32.140313 0.72 
L 32.140313 277.92 
z
" style="fill: none"/>
   </g>
   <g id="matplotlib.axis_1">
    <g id="xtick_1">
     <g id="line2d_1">
      <path d="M 32.140313 277.92 
L 32.140313 0.72 
" clip-path="url(#pd98f6323f5)" style="fill: none; stroke-dasharray: 0.8,1.32; stroke-dashoffset: 0; stroke: #000000; stroke-opacity: 0.5; stroke-width: 0.8"/>
     </g>
     <g id="line2d_2">
      <defs>
       <path id="mee9c41139c" d="M 0 0 
L 0 3.5 
" style="stroke: #000000; stroke-width: 0.8"/>
      </defs>
      <g>
       <use xlink:href="#mee9c41139c" x="32.140313" y="277.92" style="stroke: #000000; stroke-width: 0.8"/>
      </g>
     </g>
     <g id="text_1">
      <!-- 0.0 -->
      <g transform="translate(24.18875 292.518438) scale(0.1 -0.1)">
       <defs>
        <path id="DejaVuSans-30" d="M 2034 4250 
Q 1547 4250 1301 3770 
Q 1056 3291 1056 2328 
Q 1056 1369 1301 889 
Q 1547 409 2034 409 
Q 2525 409 2770 889 
Q 3016 1369 3016 2328 
Q 3016 3291 2770 3770 
Q 2525 4250 2034 4250 
z
M 2034 4750 
Q 2819 4750 3233 4129 
Q 3647 3509 3647 2328 
Q 3647 1150 3233 529 
Q 2819 -91 2034 -91 
Q 1250 -91 836 529 
Q 422 1150 422 2328 
Q 422 3509 836 4129 
Q 1250 4750 2034 4750 
z
" transform="scale(0.015625)"/>
        <path id="DejaVuSans-2e" d="M 684 794 
L 1344 794 
L 1344 0 
L 684 0 
L 684 794 
z
" transform="scale(0.015625)"/>
       </defs>
       <use xlink:href="#DejaVuSans-30"/>
       <use xlink:href="#DejaVuSans-2e" x="63.623047"/>
       <use xlink:href="#DejaVuSans-30" x="95.410156"/>
      </g>
     </g>
    </g>
    <g id="xtick_2">
     <g id="line2d_3">
      <path d="M 106.291637 277.92 
L 106.291637 0.72 
" clip-path="url(#pd98f6323f5)" style="fill: none; stroke-dasharray: 0.8,1.32; stroke-dashoffset: 0; stroke: #000000; stroke-opacity: 0.5; stroke-width: 0.8"/>
     </g>
     <g id="line2d_4">
      <g>
       <use xlink:href="#mee9c41139c" x="106.291637" y="277.92" style="stroke: #000000; stroke-width: 0.8"/>
      </g>
     </g>
     <g id="text_2">
      <!-- 2.5 -->
      <g transform="translate(98.340075 292.518438) scale(0.1 -0.1)">
       <defs>
        <path id="DejaVuSans-32" d="M 1228 531 
L 3431 531 
L 3431 0 
L 469 0 
L 469 531 
Q 828 903 1448 1529 
Q 2069 2156 2228 2338 
Q 2531 2678 2651 2914 
Q 2772 3150 2772 3378 
Q 2772 3750 2511 3984 
Q 2250 4219 1831 4219 
Q 1534 4219 1204 4116 
Q 875 4013 500 3803 
L 500 4441 
Q 881 4594 1212 4672 
Q 1544 4750 1819 4750 
Q 2544 4750 2975 4387 
Q 3406 4025 3406 3419 
Q 3406 3131 3298 2873 
Q 3191 2616 2906 2266 
Q 2828 2175 2409 1742 
Q 1991 1309 1228 531 
z
" transform="scale(0.015625)"/>
        <path id="DejaVuSans-35" d="M 691 4666 
L 3169 4666 
L 3169 4134 
L 1269 4134 
L 1269 2991 
Q 1406 3038 1543 3061 
Q 1681 3084 1819 3084 
Q 2600 3084 3056 2656 
Q 3513 2228 3513 1497 
Q 3513 744 3044 326 
Q 2575 -91 1722 -91 
Q 1428 -91 1123 -41 
Q 819 9 494 109 
L 494 744 
Q 775 591 1075 516 
Q 1375 441 1709 441 
Q 2250 441 2565 725 
Q 2881 1009 2881 1497 
Q 2881 1984 2565 2268 
Q 2250 2553 1709 2553 
Q 1456 2553 1204 2497 
Q 953 2441 691 2322 
L 691 4666 
z
" transform="scale(0.015625)"/>
       </defs>
       <use xlink:href="#DejaVuSans-32"/>
       <use xlink:href="#DejaVuSans-2e" x="63.623047"/>
       <use xlink:href="#DejaVuSans-35" x="95.410156"/>
      </g>
     </g>
    </g>
    <g id="xtick_3">
     <g id="line2d_5">
      <path d="M 180.442962 277.92 
L 180.442962 0.72 
" clip-path="url(#pd98f6323f5)" style="fill: none; stroke-dasharray: 0.8,1.32; stroke-dashoffset: 0; stroke: #000000; stroke-opacity: 0.5; stroke-width: 0.8"/>
     </g>
     <g id="line2d_6">
      <g>
       <use xlink:href="#mee9c41139c" x="180.442962" y="277.92" style="stroke: #000000; stroke-width: 0.8"/>
      </g>
     </g>
     <g id="text_3">
      <!-- 5.0 -->
      <g transform="translate(172.4914 292.518438) scale(0.1 -0.1)">
       <use xlink:href="#DejaVuSans-35"/>
       <use xlink:href="#DejaVuSans-2e" x="63.623047"/>
       <use xlink:href="#DejaVuSans-30" x="95.410156"/>
      </g>
     </g>
    </g>
    <g id="xtick_4">
     <g id="line2d_7">
      <path d="M 254.594287 277.92 
L 254.594287 0.72 
" clip-path="url(#pd98f6323f5)" style="fill: none; stroke-dasharray: 0.8,1.32; stroke-dashoffset: 0; stroke: #000000; stroke-opacity: 0.5; stroke-width: 0.8"/>
     </g>
     <g id="line2d_8">
      <g>
       <use xlink:href="#mee9c41139c" x="254.594287" y="277.92" style="stroke: #000000; stroke-width: 0.8"/>
      </g>
     </g>
     <g id="text_4">
      <!-- 7.5 -->
      <g transform="translate(246.642725 292.518438) scale(0.1 -0.1)">
       <defs>
        <path id="DejaVuSans-37" d="M 525 4666 
L 3525 4666 
L 3525 4397 
L 1831 0 
L 1172 0 
L 2766 4134 
L 525 4134 
L 525 4666 
z
" transform="scale(0.015625)"/>
       </defs>
       <use xlink:href="#DejaVuSans-37"/>
       <use xlink:href="#DejaVuSans-2e" x="63.623047"/>
       <use xlink:href="#DejaVuSans-35" x="95.410156"/>
      </g>
     </g>
    </g>
    <g id="xtick_5">
     <g id="line2d_9">
      <path d="M 328.745612 277.92 
L 328.745612 0.72 
" clip-path="url(#pd98f6323f5)" style="fill: none; stroke-dasharray: 0.8,1.32; stroke-dashoffset: 0; stroke: #000000; stroke-opacity: 0.5; stroke-width: 0.8"/>
     </g>
     <g id="line2d_10">
      <g>
       <use xlink:href="#mee9c41139c" x="328.745612" y="277.92" style="stroke: #000000; stroke-width: 0.8"/>
      </g>
     </g>
     <g id="text_5">
      <!-- 10.0 -->
      <g transform="translate(317.6128 292.518438) scale(0.1 -0.1)">
       <defs>
        <path id="DejaVuSans-31" d="M 794 531 
L 1825 531 
L 1825 4091 
L 703 3866 
L 703 4441 
L 1819 4666 
L 2450 4666 
L 2450 531 
L 3481 531 
L 3481 0 
L 794 0 
L 794 531 
z
" transform="scale(0.015625)"/>
       </defs>
       <use xlink:href="#DejaVuSans-31"/>
       <use xlink:href="#DejaVuSans-30" x="63.623047"/>
       <use xlink:href="#DejaVuSans-2e" x="127.246094"/>
       <use xlink:href="#DejaVuSans-30" x="159.033203"/>
      </g>
     </g>
    </g>
    <g id="xtick_6">
     <g id="line2d_11">
      <path d="M 402.896937 277.92 
L 402.896937 0.72 
" clip-path="url(#pd98f6323f5)" style="fill: none; stroke-dasharray: 0.8,1.32; stroke-dashoffset: 0; stroke: #000000; stroke-opacity: 0.5; stroke-width: 0.8"/>
     </g>
     <g id="line2d_12">
      <g>
       <use xlink:href="#mee9c41139c" x="402.896937" y="277.92" style="stroke: #000000; stroke-width: 0.8"/>
      </g>
     </g>
     <g id="text_6">
      <!-- 12.5 -->
      <g transform="translate(391.764125 292.518438) scale(0.1 -0.1)">
       <use xlink:href="#DejaVuSans-31"/>
       <use xlink:href="#DejaVuSans-32" x="63.623047"/>
       <use xlink:href="#DejaVuSans-2e" x="127.246094"/>
       <use xlink:href="#DejaVuSans-35" x="159.033203"/>
      </g>
     </g>
    </g>
    <g id="xtick_7">
     <g id="line2d_13">
      <path d="M 477.048262 277.92 
L 477.048262 0.72 
" clip-path="url(#pd98f6323f5)" style="fill: none; stroke-dasharray: 0.8,1.32; stroke-dashoffset: 0; stroke: #000000; stroke-opacity: 0.5; stroke-width: 0.8"/>
     </g>
     <g id="line2d_14">
      <g>
       <use xlink:href="#mee9c41139c" x="477.048262" y="277.92" style="stroke: #000000; stroke-width: 0.8"/>
      </g>
     </g>
     <g id="text_7">
      <!-- 15.0 -->
      <g transform="translate(465.91545 292.518438) scale(0.1 -0.1)">
       <use xlink:href="#DejaVuSans-31"/>
       <use xlink:href="#DejaVuSans-35" x="63.623047"/>
       <use xlink:href="#DejaVuSans-2e" x="127.246094"/>
       <use xlink:href="#DejaVuSans-30" x="159.033203"/>
      </g>
     </g>
    </g>
    <g id="xtick_8">
     <g id="line2d_15">
      <path d="M 551.199587 277.92 
L 551.199587 0.72 
" clip-path="url(#pd98f6323f5)" style="fill: none; stroke-dasharray: 0.8,1.32; stroke-dashoffset: 0; stroke: #000000; stroke-opacity: 0.5; stroke-width: 0.8"/>
     </g>
     <g id="line2d_16">
      <g>
       <use xlink:href="#mee9c41139c" x="551.199587" y="277.92" style="stroke: #000000; stroke-width: 0.8"/>
      </g>
     </g>
     <g id="text_8">
      <!-- 17.5 -->
      <g transform="translate(540.066774 292.518438) scale(0.1 -0.1)">
       <use xlink:href="#DejaVuSans-31"/>
       <use xlink:href="#DejaVuSans-37" x="63.623047"/>
       <use xlink:href="#DejaVuSans-2e" x="127.246094"/>
       <use xlink:href="#DejaVuSans-35" x="159.033203"/>
      </g>
     </g>
    </g>
    <g id="text_9">
     <!-- Zeit [s] -->
     <g transform="translate(293.194219 302.196563) scale(0.1 -0.1)">
      <defs>
       <path id="DejaVuSans-5a" d="M 359 4666 
L 4025 4666 
L 4025 4184 
L 1075 531 
L 4097 531 
L 4097 0 
L 288 0 
L 288 481 
L 3238 4134 
L 359 4134 
L 359 4666 
z
" transform="scale(0.015625)"/>
       <path id="DejaVuSans-65" d="M 3597 1894 
L 3597 1613 
L 953 1613 
Q 991 1019 1311 708 
Q 1631 397 2203 397 
Q 2534 397 2845 478 
Q 3156 559 3463 722 
L 3463 178 
Q 3153 47 2828 -22 
Q 2503 -91 2169 -91 
Q 1331 -91 842 396 
Q 353 884 353 1716 
Q 353 2575 817 3079 
Q 1281 3584 2069 3584 
Q 2775 3584 3186 3129 
Q 3597 2675 3597 1894 
z
M 3022 2063 
Q 3016 2534 2758 2815 
Q 2500 3097 2075 3097 
Q 1594 3097 1305 2825 
Q 1016 2553 972 2059 
L 3022 2063 
z
" transform="scale(0.015625)"/>
       <path id="DejaVuSans-69" d="M 603 3500 
L 1178 3500 
L 1178 0 
L 603 0 
L 603 3500 
z
M 603 4863 
L 1178 4863 
L 1178 4134 
L 603 4134 
L 603 4863 
z
" transform="scale(0.015625)"/>
       <path id="DejaVuSans-74" d="M 1172 4494 
L 1172 3500 
L 2356 3500 
L 2356 3053 
L 1172 3053 
L 1172 1153 
Q 1172 725 1289 603 
Q 1406 481 1766 481 
L 2356 481 
L 2356 0 
L 1766 0 
Q 1100 0 847 248 
Q 594 497 594 1153 
L 594 3053 
L 172 3053 
L 172 3500 
L 594 3500 
L 594 4494 
L 1172 4494 
z
" transform="scale(0.015625)"/>
       <path id="DejaVuSans-20" transform="scale(0.015625)"/>
       <path id="DejaVuSans-5b" d="M 550 4863 
L 1875 4863 
L 1875 4416 
L 1125 4416 
L 1125 -397 
L 1875 -397 
L 1875 -844 
L 550 -844 
L 550 4863 
z
" transform="scale(0.015625)"/>
       <path id="DejaVuSans-73" d="M 2834 3397 
L 2834 2853 
Q 2591 2978 2328 3040 
Q 2066 3103 1784 3103 
Q 1356 3103 1142 2972 
Q 928 2841 928 2578 
Q 928 2378 1081 2264 
Q 1234 2150 1697 2047 
L 1894 2003 
Q 2506 1872 2764 1633 
Q 3022 1394 3022 966 
Q 3022 478 2636 193 
Q 2250 -91 1575 -91 
Q 1294 -91 989 -36 
Q 684 19 347 128 
L 347 722 
Q 666 556 975 473 
Q 1284 391 1588 391 
Q 1994 391 2212 530 
Q 2431 669 2431 922 
Q 2431 1156 2273 1281 
Q 2116 1406 1581 1522 
L 1381 1569 
Q 847 1681 609 1914 
Q 372 2147 372 2553 
Q 372 3047 722 3315 
Q 1072 3584 1716 3584 
Q 2034 3584 2315 3537 
Q 2597 3491 2834 3397 
z
" transform="scale(0.015625)"/>
       <path id="DejaVuSans-5d" d="M 1947 4863 
L 1947 -844 
L 622 -844 
L 622 -397 
L 1369 -397 
L 1369 4416 
L 622 4416 
L 622 4863 
L 1947 4863 
z
" transform="scale(0.015625)"/>
      </defs>
      <use xlink:href="#DejaVuSans-5a"/>
      <use xlink:href="#DejaVuSans-65" x="68.505859"/>
      <use xlink:href="#DejaVuSans-69" x="130.029297"/>
      <use xlink:href="#DejaVuSans-74" x="157.8125"/>
      <use xlink:href="#DejaVuSans-20" x="197.021484"/>
      <use xlink:href="#DejaVuSans-5b" x="228.808594"/>
      <use xlink:href="#DejaVuSans-73" x="267.822266"/>
      <use xlink:href="#DejaVuSans-5d" x="319.921875"/>
     </g>
    </g>
   </g>
   <g id="matplotlib.axis_2">
    <g id="ytick_1">
     <g id="line2d_17">
      <path d="M 32.140313 255.559178 
L 590.140313 255.559178 
" clip-path="url(#pd98f6323f5)" style="fill: none; stroke-dasharray: 0.8,1.32; stroke-dashoffset: 0; stroke: #000000; stroke-opacity: 0.5; stroke-width: 0.8"/>
     </g>
     <g id="line2d_18">
      <defs>
       <path id="m97316df9ef" d="M 0 0 
L -3.5 0 
" style="stroke: #000000; stroke-width: 0.8"/>
      </defs>
      <g>
       <use xlink:href="#m97316df9ef" x="32.140313" y="255.559178" style="stroke: #000000; stroke-width: 0.8"/>
      </g>
     </g>
     <g id="text_10">
      <!-- −5 -->
      <g transform="translate(10.398125 259.358397) scale(0.1 -0.1)">
       <defs>
        <path id="DejaVuSans-2212" d="M 678 2272 
L 4684 2272 
L 4684 1741 
L 678 1741 
L 678 2272 
z
" transform="scale(0.015625)"/>
       </defs>
       <use xlink:href="#DejaVuSans-2212"/>
       <use xlink:href="#DejaVuSans-35" x="83.789062"/>
      </g>
     </g>
    </g>
    <g id="ytick_2">
     <g id="line2d_19">
      <path d="M 32.140313 210.575311 
L 590.140313 210.575311 
" clip-path="url(#pd98f6323f5)" style="fill: none; stroke-dasharray: 0.8,1.32; stroke-dashoffset: 0; stroke: #000000; stroke-opacity: 0.5; stroke-width: 0.8"/>
     </g>
     <g id="line2d_20">
      <g>
       <use xlink:href="#m97316df9ef" x="32.140313" y="210.575311" style="stroke: #000000; stroke-width: 0.8"/>
      </g>
     </g>
     <g id="text_11">
      <!-- 0 -->
      <g transform="translate(18.777813 214.374529) scale(0.1 -0.1)">
       <use xlink:href="#DejaVuSans-30"/>
      </g>
     </g>
    </g>
    <g id="ytick_3">
     <g id="line2d_21">
      <path d="M 32.140313 165.591443 
L 590.140313 165.591443 
" clip-path="url(#pd98f6323f5)" style="fill: none; stroke-dasharray: 0.8,1.32; stroke-dashoffset: 0; stroke: #000000; stroke-opacity: 0.5; stroke-width: 0.8"/>
     </g>
     <g id="line2d_22">
      <g>
       <use xlink:href="#m97316df9ef" x="32.140313" y="165.591443" style="stroke: #000000; stroke-width: 0.8"/>
      </g>
     </g>
     <g id="text_12">
      <!-- 5 -->
      <g transform="translate(18.777813 169.390662) scale(0.1 -0.1)">
       <use xlink:href="#DejaVuSans-35"/>
      </g>
     </g>
    </g>
    <g id="ytick_4">
     <g id="line2d_23">
      <path d="M 32.140313 120.607576 
L 590.140313 120.607576 
" clip-path="url(#pd98f6323f5)" style="fill: none; stroke-dasharray: 0.8,1.32; stroke-dashoffset: 0; stroke: #000000; stroke-opacity: 0.5; stroke-width: 0.8"/>
     </g>
     <g id="line2d_24">
      <g>
       <use xlink:href="#m97316df9ef" x="32.140313" y="120.607576" style="stroke: #000000; stroke-width: 0.8"/>
      </g>
     </g>
     <g id="text_13">
      <!-- 10 -->
      <g transform="translate(12.415313 124.406794) scale(0.1 -0.1)">
       <use xlink:href="#DejaVuSans-31"/>
       <use xlink:href="#DejaVuSans-30" x="63.623047"/>
      </g>
     </g>
    </g>
    <g id="ytick_5">
     <g id="line2d_25">
      <path d="M 32.140313 75.623708 
L 590.140313 75.623708 
" clip-path="url(#pd98f6323f5)" style="fill: none; stroke-dasharray: 0.8,1.32; stroke-dashoffset: 0; stroke: #000000; stroke-opacity: 0.5; stroke-width: 0.8"/>
     </g>
     <g id="line2d_26">
      <g>
       <use xlink:href="#m97316df9ef" x="32.140313" y="75.623708" style="stroke: #000000; stroke-width: 0.8"/>
      </g>
     </g>
     <g id="text_14">
      <!-- 15 -->
      <g transform="translate(12.415313 79.422927) scale(0.1 -0.1)">
       <use xlink:href="#DejaVuSans-31"/>
       <use xlink:href="#DejaVuSans-35" x="63.623047"/>
      </g>
     </g>
    </g>
    <g id="ytick_6">
     <g id="line2d_27">
      <path d="M 32.140313 30.639841 
L 590.140313 30.639841 
" clip-path="url(#pd98f6323f5)" style="fill: none; stroke-dasharray: 0.8,1.32; stroke-dashoffset: 0; stroke: #000000; stroke-opacity: 0.5; stroke-width: 0.8"/>
     </g>
     <g id="line2d_28">
      <g>
       <use xlink:href="#m97316df9ef" x="32.140313" y="30.639841" style="stroke: #000000; stroke-width: 0.8"/>
      </g>
     </g>
     <g id="text_15">
      <!-- 20 -->
      <g transform="translate(12.415313 34.439059) scale(0.1 -0.1)">
       <use xlink:href="#DejaVuSans-32"/>
       <use xlink:href="#DejaVuSans-30" x="63.623047"/>
      </g>
     </g>
    </g>
    <g id="text_16">
     <!-- Drehmoment [Nm] -->
     <g transform="translate(8.318438 186.465313) rotate(-90) scale(0.1 -0.1)">
      <defs>
       <path id="DejaVuSans-44" d="M 1259 4147 
L 1259 519 
L 2022 519 
Q 2988 519 3436 956 
Q 3884 1394 3884 2338 
Q 3884 3275 3436 3711 
Q 2988 4147 2022 4147 
L 1259 4147 
z
M 628 4666 
L 1925 4666 
Q 3281 4666 3915 4102 
Q 4550 3538 4550 2338 
Q 4550 1131 3912 565 
Q 3275 0 1925 0 
L 628 0 
L 628 4666 
z
" transform="scale(0.015625)"/>
       <path id="DejaVuSans-72" d="M 2631 2963 
Q 2534 3019 2420 3045 
Q 2306 3072 2169 3072 
Q 1681 3072 1420 2755 
Q 1159 2438 1159 1844 
L 1159 0 
L 581 0 
L 581 3500 
L 1159 3500 
L 1159 2956 
Q 1341 3275 1631 3429 
Q 1922 3584 2338 3584 
Q 2397 3584 2469 3576 
Q 2541 3569 2628 3553 
L 2631 2963 
z
" transform="scale(0.015625)"/>
       <path id="DejaVuSans-68" d="M 3513 2113 
L 3513 0 
L 2938 0 
L 2938 2094 
Q 2938 2591 2744 2837 
Q 2550 3084 2163 3084 
Q 1697 3084 1428 2787 
Q 1159 2491 1159 1978 
L 1159 0 
L 581 0 
L 581 4863 
L 1159 4863 
L 1159 2956 
Q 1366 3272 1645 3428 
Q 1925 3584 2291 3584 
Q 2894 3584 3203 3211 
Q 3513 2838 3513 2113 
z
" transform="scale(0.015625)"/>
       <path id="DejaVuSans-6d" d="M 3328 2828 
Q 3544 3216 3844 3400 
Q 4144 3584 4550 3584 
Q 5097 3584 5394 3201 
Q 5691 2819 5691 2113 
L 5691 0 
L 5113 0 
L 5113 2094 
Q 5113 2597 4934 2840 
Q 4756 3084 4391 3084 
Q 3944 3084 3684 2787 
Q 3425 2491 3425 1978 
L 3425 0 
L 2847 0 
L 2847 2094 
Q 2847 2600 2669 2842 
Q 2491 3084 2119 3084 
Q 1678 3084 1418 2786 
Q 1159 2488 1159 1978 
L 1159 0 
L 581 0 
L 581 3500 
L 1159 3500 
L 1159 2956 
Q 1356 3278 1631 3431 
Q 1906 3584 2284 3584 
Q 2666 3584 2933 3390 
Q 3200 3197 3328 2828 
z
" transform="scale(0.015625)"/>
       <path id="DejaVuSans-6f" d="M 1959 3097 
Q 1497 3097 1228 2736 
Q 959 2375 959 1747 
Q 959 1119 1226 758 
Q 1494 397 1959 397 
Q 2419 397 2687 759 
Q 2956 1122 2956 1747 
Q 2956 2369 2687 2733 
Q 2419 3097 1959 3097 
z
M 1959 3584 
Q 2709 3584 3137 3096 
Q 3566 2609 3566 1747 
Q 3566 888 3137 398 
Q 2709 -91 1959 -91 
Q 1206 -91 779 398 
Q 353 888 353 1747 
Q 353 2609 779 3096 
Q 1206 3584 1959 3584 
z
" transform="scale(0.015625)"/>
       <path id="DejaVuSans-6e" d="M 3513 2113 
L 3513 0 
L 2938 0 
L 2938 2094 
Q 2938 2591 2744 2837 
Q 2550 3084 2163 3084 
Q 1697 3084 1428 2787 
Q 1159 2491 1159 1978 
L 1159 0 
L 581 0 
L 581 3500 
L 1159 3500 
L 1159 2956 
Q 1366 3272 1645 3428 
Q 1925 3584 2291 3584 
Q 2894 3584 3203 3211 
Q 3513 2838 3513 2113 
z
" transform="scale(0.015625)"/>
       <path id="DejaVuSans-4e" d="M 628 4666 
L 1478 4666 
L 3547 763 
L 3547 4666 
L 4159 4666 
L 4159 0 
L 3309 0 
L 1241 3903 
L 1241 0 
L 628 0 
L 628 4666 
z
" transform="scale(0.015625)"/>
      </defs>
      <use xlink:href="#DejaVuSans-44"/>
      <use xlink:href="#DejaVuSans-72" x="77.001953"/>
      <use xlink:href="#DejaVuSans-65" x="115.865234"/>
      <use xlink:href="#DejaVuSans-68" x="177.388672"/>
      <use xlink:href="#DejaVuSans-6d" x="240.767578"/>
      <use xlink:href="#DejaVuSans-6f" x="338.179688"/>
      <use xlink:href="#DejaVuSans-6d" x="399.361328"/>
      <use xlink:href="#DejaVuSans-65" x="496.773438"/>
      <use xlink:href="#DejaVuSans-6e" x="558.296875"/>
      <use xlink:href="#DejaVuSans-74" x="621.675781"/>
      <use xlink:href="#DejaVuSans-20" x="660.884766"/>
      <use xlink:href="#DejaVuSans-5b" x="692.671875"/>
      <use xlink:href="#DejaVuSans-4e" x="731.685547"/>
      <use xlink:href="#DejaVuSans-6d" x="806.490234"/>
      <use xlink:href="#DejaVuSans-5d" x="903.902344"/>
     </g>
    </g>
   </g>
   <g id="line2d_29">
    <path d="M 32.140313 225.030313 
L 217.369551 225.107008 
L 217.685713 225.66119 
L 218.614117 230.730288 
L 218.911855 231.596863 
L 219.38853 231.976505 
L 220.163041 231.513749 
L 220.344852 230.645666 
L 220.641647 230.280912 
L 220.821951 230.602838 
L 221.060327 230.310653 
L 221.116739 230.724874 
L 221.594397 229.496788 
L 221.831651 230.330583 
L 222.129433 229.573523 
L 222.368452 229.310118 
L 222.849207 230.334644 
L 223.145121 230.734877 
L 223.636128 230.763664 
L 223.810569 232.23673 
L 224.046296 231.337074 
L 224.343439 229.633187 
L 224.582601 231.761235 
L 224.879863 229.828914 
L 225.267647 229.215079 
L 225.301219 227.851787 
L 225.774325 230.185775 
L 225.953557 232.783688 
L 226.072009 228.944123 
L 226.553484 230.693812 
L 226.845951 232.878957 
L 227.025385 229.913782 
L 227.264162 230.652533 
L 227.502067 232.313547 
L 227.801173 227.558672 
L 228.097371 231.573175 
L 228.75348 228.477133 
L 229.070165 229.844151 
L 229.36445 228.55687 
L 229.544257 231.334941 
L 229.721979 228.014533 
L 230.021717 227.318116 
L 230.258787 231.675591 
L 230.557339 232.093222 
L 230.795324 230.179917 
L 231.033203 233.176466 
L 231.332523 233.121877 
L 231.512402 227.697157 
L 231.928034 229.947924 
L 231.98826 229.038699 
L 232.226764 228.466262 
L 232.465955 226.520558 
L 232.702568 233.567313 
L 232.942811 233.025363 
L 233.186582 231.661653 
L 233.478279 233.843021 
L 233.660737 226.963191 
L 233.954681 230.474145 
L 234.252051 231.0689 
L 234.431297 234.130247 
L 234.789339 228.321868 
L 235.027384 229.698856 
L 235.206838 231.472857 
L 235.682396 228.027758 
L 235.981562 230.108598 
L 236.279246 230.173422 
L 236.577343 231.3701 
L 236.756315 227.310621 
L 237.05356 225.272341 
L 237.176921 228.938057 
L 237.474062 228.16451 
L 237.709175 228.214991 
L 237.891067 229.372118 
L 238.169337 230.291715 
L 238.397599 227.908136 
L 238.636284 229.183495 
L 239.141369 232.488746 
L 239.379322 232.929387 
L 239.840226 229.582717 
L 239.975442 221.190579 
L 240.098316 223.800108 
L 240.392294 232.658607 
L 240.631739 226.343366 
L 240.869763 223.59817 
L 241.107026 234.042032 
L 241.345576 228.898074 
L 241.762828 224.165548 
L 242.001197 225.750515 
L 242.180755 223.071045 
L 242.486189 236.045629 
L 242.658347 225.154171 
L 242.856481 229.06925 
L 243.168317 227.691428 
L 243.434494 229.372303 
L 243.55472 227.783971 
L 243.814282 227.100833 
L 244.092059 230.298393 
L 244.33058 229.155825 
L 244.627738 229.679157 
L 244.808656 231.949938 
L 245.104217 231.152303 
L 245.343396 233.591074 
L 245.641537 231.727425 
L 245.881365 231.188837 
L 246.063258 235.353677 
L 246.29821 232.749646 
L 246.595974 228.009218 
L 246.774928 228.220078 
L 247.074762 233.220803 
L 247.370322 230.048196 
L 247.550299 231.622692 
L 247.788534 227.949821 
L 248.027853 220.010152 
L 248.503671 237.287985 
L 248.920695 216.04717 
L 249.339831 229.324495 
L 249.516736 230.151982 
L 249.755756 223.169126 
L 249.9945 224.333876 
L 250.234213 231.907442 
L 250.651073 233.694685 
L 250.772096 224.888641 
L 251.24816 233.026185 
L 251.485551 227.571051 
L 251.84259 222.738115 
L 252.082632 232.498876 
L 252.497325 218.332985 
L 252.795714 222.406415 
L 253.367647 227.17845 
L 253.513527 236.524108 
L 253.810733 222.953575 
L 253.931947 227.12041 
L 254.228649 232.344858 
L 254.586829 247.148393 
L 254.960462 226.00573 
L 255.240305 221.367635 
L 255.613246 226.780399 
L 255.724063 226.512982 
L 255.966285 222.150763 
L 256.19372 225.781334 
L 256.431699 225.928222 
L 256.789273 215.341104 
L 256.968337 225.252534 
L 257.3852 235.271217 
L 257.504401 229.879909 
L 257.742897 231.781071 
L 257.923349 218.645952 
L 258.280703 232.19917 
L 258.519461 229.67782 
L 258.696364 231.197135 
L 258.937027 227.412772 
L 259.352273 216.512241 
L 259.593112 218.269077 
L 259.829448 229.115091 
L 259.889674 228.140963 
L 260.12731 224.832148 
L 260.425959 225.775226 
L 260.73192 225.253362 
L 260.962329 222.88612 
L 261.201122 234.294593 
L 261.397353 226.934508 
L 261.975511 221.129747 
L 262.170291 224.02508 
L 262.394273 225.35084 
L 262.654667 223.77753 
L 262.871144 216.183374 
L 263.168133 213.988432 
L 263.524878 217.64834 
L 263.763231 217.538683 
L 263.882632 224.979693 
L 264.299466 226.125861 
L 264.3605 224.383149 
L 264.597897 220.841639 
L 264.956088 217.383273 
L 265.199153 228.797039 
L 265.373312 216.54983 
L 265.612533 227.776763 
L 266.092012 216.318589 
L 266.326923 232.321852 
L 266.565461 212.970101 
L 267.280816 223.972493 
L 267.606951 226.199584 
L 267.856872 227.100247 
L 268.295763 220.918326 
L 268.483061 223.618258 
L 268.675147 223.396768 
L 268.951074 227.732003 
L 269.075351 217.056782 
L 269.429128 217.721582 
L 269.55089 225.091721 
L 269.84571 227.654682 
L 270.031289 214.40216 
L 270.449826 222.794928 
L 270.686578 209.01766 
L 270.799583 219.296018 
L 271.227969 226.252425 
L 271.416575 215.619267 
L 271.576541 230.628997 
L 271.75803 233.181666 
L 272.113281 209.645913 
L 272.261991 220.892838 
L 272.593247 214.802191 
L 272.831352 216.185087 
L 273.068673 230.525224 
L 273.249832 209.206062 
L 273.545056 224.253172 
L 273.724459 222.182355 
L 274.022425 234.432501 
L 274.261309 220.163489 
L 274.7976 223.372398 
L 275.094642 217.547277 
L 275.231571 209.596673 
L 275.511428 226.676622 
L 275.694115 212.08381 
L 275.751157 225.818008 
L 275.988981 219.972977 
L 276.171231 223.153018 
L 276.465935 222.935026 
L 276.705865 224.939199 
L 276.943838 221.547308 
L 277.30182 237.170246 
L 277.599417 220.942593 
L 277.726347 206.062336 
L 278.200835 227.287626 
L 278.493901 228.968964 
L 278.672125 211.532158 
L 278.913757 220.337424 
L 279.327936 221.766287 
L 279.448279 224.420232 
L 279.686283 232.477522 
L 279.929695 227.297102 
L 280.164187 211.050148 
L 280.406913 214.211468 
L 280.644747 201.135357 
L 280.899921 223.263888 
L 281.121606 209.187599 
L 281.48009 220.070068 
L 281.662009 235.708358 
L 281.896875 222.47805 
L 282.135022 230.501721 
L 282.373719 228.664209 
L 282.672546 217.990868 
L 282.87827 216.44476 
L 283.092569 230.626539 
L 283.448648 226.751741 
L 283.865204 239.31778 
L 283.985133 216.043964 
L 284.103379 234.522435 
L 284.520863 204.619189 
L 284.586255 233.109977 
L 284.862988 222.838485 
L 285.133028 204.851499 
L 285.317336 223.035921 
L 285.77215 197.210986 
L 285.832476 225.728094 
L 286.070076 225.795125 
L 286.606782 212.536205 
L 286.845055 213.803417 
L 287.142483 220.519578 
L 287.326559 215.024754 
L 287.561729 200.430741 
L 287.858647 196.267289 
L 288.104074 210.016036 
L 288.336497 194.76173 
L 288.515818 215.462864 
L 288.811161 208.329113 
L 289.0502 225.49893 
L 289.354731 230.223616 
L 289.585603 201.580029 
L 290.063872 221.973011 
L 290.245131 221.351624 
L 290.599351 216.419183 
L 290.789814 208.157649 
L 291.076474 224.075716 
L 291.257943 205.434951 
L 291.567388 218.909024 
L 291.732865 215.950092 
L 291.972965 220.166291 
L 292.270209 206.344419 
L 292.507736 219.02988 
L 292.745936 218.274282 
L 293.24405 220.737126 
L 293.464715 222.763612 
L 293.820274 203.193207 
L 293.999205 221.282114 
L 294.237666 208.85085 
L 294.491675 221.447832 
L 294.717265 206.58899 
L 295.131549 239.379904 
L 295.250828 219.057465 
L 295.548755 238.9441 
L 295.72806 210.911817 
L 296.263899 221.073639 
L 296.44426 234.591841 
L 296.681386 215.275042 
L 296.978824 215.425896 
L 297.18253 211.143974 
L 297.463618 219.334629 
L 297.756611 214.103997 
L 298.05391 212.771084 
L 298.233173 221.51203 
L 298.59037 214.623588 
L 298.889732 205.113406 
L 298.94823 211.694312 
L 299.186102 214.716709 
L 299.483957 208.202083 
L 299.66656 215.546761 
L 300.022783 213.849273 
L 300.199527 198.608003 
L 300.439009 205.997233 
L 300.633524 217.514417 
L 300.919244 214.523743 
L 301.537546 211.373499 
L 301.705471 212.750993 
L 301.936626 202.668665 
L 302.175397 228.139559 
L 302.476748 209.718636 
L 302.724234 210.41659 
L 302.951049 207.753617 
L 303.092979 209.788168 
L 303.567811 205.085833 
L 303.639314 205.887109 
L 303.92671 219.246132 
L 304.164771 199.941937 
L 304.345503 224.612768 
L 304.701274 214.386025 
L 305.249083 232.768697 
L 305.419027 202.860375 
L 305.655187 205.133218 
L 306.012819 230.047727 
L 306.139247 212.47438 
L 306.370477 210.798019 
L 306.727724 210.667833 
L 306.850138 0.72 
L 307.442992 27.867321 
L 307.873278 160.171497 
L 308.21765 165.246805 
L 308.339314 188.839742 
L 308.576388 206.020118 
L 309.320091 218.711838 
L 309.654483 217.533943 
L 309.97169 214.632766 
L 310.089534 244.62245 
L 310.332804 220.887936 
L 310.633065 234.404314 
L 310.747527 212.186348 
L 311.048395 219.473585 
L 311.400781 210.292991 
L 311.698045 210.255656 
L 311.817602 209.61883 
L 311.996689 204.710272 
L 312.356427 224.404898 
L 312.596586 223.561537 
L 313.13539 198.024217 
L 313.252365 209.078462 
L 313.547978 191.719562 
L 313.78576 207.91972 
L 314.262231 214.764962 
L 314.502307 210.597842 
L 314.739507 228.283051 
L 314.977825 215.772915 
L 315.221798 213.022132 
L 315.515565 232.913515 
L 315.994706 211.703359 
L 316.229508 208.845657 
L 316.477979 211.634855 
L 316.707552 210.034323 
L 316.947991 210.109848 
L 317.186041 196.473572 
L 317.601403 197.819669 
L 317.721248 212.367804 
L 318.14169 201.872186 
L 318.207171 221.121723 
L 318.439657 209.507696 
L 319.091834 210.894538 
L 319.270827 213.633853 
L 319.449551 209.227063 
L 319.688982 225.239752 
L 319.932083 221.911309 
L 320.168258 212.668544 
L 320.489863 218.949976 
L 320.879805 207.739065 
L 320.939453 213.594618 
L 321.178135 209.663483 
L 321.416486 210.829072 
L 321.657726 207.661145 
L 321.894005 209.859106 
L 322.132975 225.552714 
L 322.431746 201.308159 
L 322.809316 211.434511 
L 322.912833 203.416658 
L 323.145837 196.56307 
L 323.382974 220.283673 
L 323.800441 210.316073 
L 323.919764 210.590674 
L 324.218448 210.800106 
L 324.398794 202.339335 
L 324.694573 209.015787 
L 324.949923 199.83995 
L 325.435758 215.308503 
L 325.656319 206.754403 
L 326.125419 209.11964 
L 326.362898 206.669008 
L 326.661765 210.658859 
L 326.905221 205.305653 
L 327.140237 203.508578 
L 327.378917 213.484053 
L 327.618004 209.646925 
L 327.863545 201.986729 
L 328.218592 218.382184 
L 328.660435 208.991771 
L 328.868968 209.559193 
L 329.347164 196.209939 
L 329.609418 200.476923 
L 329.822352 213.840955 
L 330.060978 214.765926 
L 330.300953 214.590445 
L 330.538426 206.421 
L 330.955085 211.575318 
L 331.074928 215.484697 
L 331.373954 207.312619 
L 331.554316 210.59778 
L 331.798858 224.925763 
L 332.18227 202.146598 
L 332.295591 213.893014 
L 332.581733 210.472321 
L 332.628794 208.43301 
L 332.92853 225.215361 
L 333.047548 208.030262 
L 333.463311 210.069584 
L 333.582644 208.825192 
L 333.76078 210.557753 
L 334.059047 215.968267 
L 334.357228 199.075043 
L 334.535941 207.880001 
L 334.77428 211.106364 
L 335.012937 208.686614 
L 335.252504 214.8044 
L 335.554682 203.693993 
L 335.729332 203.362565 
L 336.027717 215.089342 
L 336.230047 211.822665 
L 336.503215 210.900769 
L 336.861694 198.484241 
L 337.001831 210.598809 
L 337.219706 210.597615 
L 337.457125 212.16682 
L 337.8742 209.488733 
L 337.992974 215.08066 
L 338.472551 205.917439 
L 338.710939 209.235425 
L 339.018781 207.272055 
L 339.247031 203.612557 
L 339.430905 218.719016 
L 339.722419 207.961357 
L 340.024042 208.058952 
L 340.260765 220.655338 
L 340.438197 204.001139 
L 340.684382 211.628076 
L 340.974023 214.62402 
L 341.271095 212.052193 
L 341.450051 208.384053 
L 341.689226 210.31081 
L 342.108412 212.215653 
L 342.168521 209.846984 
L 342.467656 210.185913 
L 342.663131 210.867428 
L 342.88779 203.561222 
L 343.240908 211.026507 
L 343.4796 210.695841 
L 343.777128 207.75031 
L 344.194534 229.069765 
L 344.492704 206.562636 
L 344.671035 208.010055 
L 344.910015 211.056595 
L 345.147753 225.700208 
L 345.50505 195.993322 
L 345.685682 212.675118 
L 345.98291 206.070917 
L 346.280825 212.324872 
L 346.400699 208.837304 
L 346.639131 197.507969 
L 346.995736 213.378263 
L 347.414796 211.654003 
L 347.829568 222.940051 
L 348.12766 203.06387 
L 348.366669 210.769241 
L 348.604642 209.200657 
L 348.90322 211.517153 
L 349.200866 210.598659 
L 349.328861 198.666534 
L 349.630876 210.539393 
L 349.867889 210.732 
L 350.333064 197.674018 
L 350.75242 198.994829 
L 350.869846 214.20493 
L 351.051582 209.720468 
L 351.405524 211.62126 
L 351.704821 209.154034 
L 351.837621 205.412848 
L 352.257007 210.597957 
L 352.364255 204.117406 
L 352.602357 203.448238 
L 352.840931 212.386955 
L 353.085691 212.308109 
L 353.377361 210.380749 
L 353.556137 211.791498 
L 353.860873 207.047089 
L 354.102425 200.238349 
L 354.392014 223.0622 
L 354.513693 202.121413 
L 354.766606 209.225723 
L 355.053003 203.207782 
L 355.299174 211.114586 
L 355.524582 210.493915 
L 355.823137 208.000549 
L 356.061582 215.984368 
L 356.300154 211.434816 
L 356.587689 202.738203 
L 356.84103 225.25453 
L 357.060947 209.654927 
L 357.259503 212.434284 
L 357.553871 198.383735 
L 358.030653 210.135005 
L 358.268044 212.024933 
L 358.56667 208.504205 
L 358.745127 210.838012 
L 358.983198 208.577768 
L 359.281135 227.039938 
L 359.579082 211.560285 
L 359.758066 212.924437 
L 360.067986 198.744703 
L 360.299199 210.598356 
L 360.59336 210.597964 
L 360.775144 210.095787 
L 360.950784 208.467481 
L 361.250702 210.59756 
L 361.485653 204.150256 
L 361.802473 203.450567 
L 361.965514 213.475894 
L 362.267185 200.004143 
L 362.56378 210.660132 
L 362.751305 208.802722 
L 362.98234 209.796026 
L 363.166856 214.134554 
L 363.459258 213.558625 
L 363.877807 228.236097 
L 363.998223 206.10652 
L 364.415589 212.166985 
L 364.652718 209.54074 
L 364.949815 199.221486 
L 365.192598 208.558975 
L 365.426635 208.944875 
L 365.665324 211.470067 
L 365.963078 209.259267 
L 366.499074 201.260294 
L 367.034543 212.365745 
L 367.57195 197.964472 
L 367.630692 236.021809 
L 367.993968 212.651612 
L 368.28706 207.890595 
L 368.34994 209.129841 
L 368.718009 209.417834 
L 368.883409 211.860449 
L 369.124034 204.109218 
L 369.478926 211.651839 
L 369.658682 210.734765 
L 369.962816 204.696914 
L 370.138563 227.533807 
L 370.373408 212.55742 
L 370.912759 211.872331 
L 371.091622 196.198899 
L 371.328585 197.985894 
L 371.60839 213.010443 
L 372.105007 210.596893 
L 372.343286 210.794351 
L 372.640846 198.092449 
L 372.820287 210.918582 
L 373.179091 208.108522 
L 373.41626 218.227365 
L 373.595093 214.069494 
L 373.952976 212.465479 
L 374.07202 206.043473 
L 374.31127 206.791434 
L 374.609038 205.551473 
L 374.846922 211.248088 
L 375.204302 211.559262 
L 375.382483 209.565033 
L 375.807796 210.811208 
L 376.038677 215.931928 
L 376.278435 204.046507 
L 376.575768 213.361256 
L 376.754142 208.518052 
L 377.052278 211.497151 
L 377.290691 210.668452 
L 377.528772 200.894932 
L 377.767672 211.799257 
L 378.00534 213.748388 
L 378.779468 198.300252 
L 379.079562 210.085286 
L 379.375279 211.668488 
L 379.619828 220.10193 
L 379.792441 200.353196 
L 380.209981 210.930016 
L 380.270583 209.863461 
L 380.509453 208.986354 
L 380.925624 210.801602 
L 381.045858 195.901472 
L 381.341659 220.545528 
L 381.521235 209.558683 
L 381.75906 209.992485 
L 381.998072 199.078389 
L 382.47424 210.947302 
L 382.716196 212.671773 
L 383.010909 209.812853 
L 383.310569 210.72378 
L 383.369408 211.47888 
L 383.48901 210.59818 
L 383.846639 210.598413 
L 383.964934 204.562955 
L 384.204218 212.579437 
L 384.503733 228.217121 
L 385.215894 211.131181 
L 385.594332 211.011391 
L 385.698914 209.546815 
L 385.931863 217.273226 
L 386.171585 200.628801 
L 386.469912 207.498775 
L 386.651787 211.907589 
L 387.065347 199.003974 
L 387.28895 219.644421 
L 387.423292 212.41418 
L 387.661107 212.386037 
L 387.899473 211.36893 
L 388.144691 211.720452 
L 388.435672 212.740925 
L 388.794039 207.63454 
L 388.913053 200.587987 
L 389.211548 206.64324 
L 389.454942 208.291713 
L 389.688257 204.402639 
L 389.926507 208.751496 
L 390.106188 209.416795 
L 390.346918 211.991864 
L 390.643997 213.038674 
L 390.88036 211.806376 
L 391.118324 202.043702 
L 391.476629 210.861969 
L 391.65498 207.104104 
L 391.893379 209.511434 
L 392.131469 199.189226 
L 392.370282 210.791692 
L 392.669684 211.551902 
L 393.02718 207.752632 
L 393.266841 207.329635 
L 393.504623 223.879794 
L 393.623643 202.122761 
L 394.102249 213.59197 
L 394.347746 205.039214 
L 394.637806 202.194247 
L 394.878295 212.434822 
L 395.114141 213.755487 
L 395.413015 209.16527 
L 395.592605 212.036291 
L 395.891188 226.955358 
L 396.068844 203.55353 
L 396.307135 211.618469 
L 396.546026 210.436411 
L 396.843832 207.143596 
L 397.035122 222.446902 
L 397.271089 211.226607 
L 397.560051 208.597682 
L 398.040006 213.229068 
L 398.278812 206.340076 
L 398.585387 224.816274 
L 398.813169 209.71184 
L 399.022604 212.808882 
L 399.29018 214.546687 
L 399.531917 226.717119 
L 399.770136 212.059882 
L 400.064061 212.500412 
L 400.304813 207.50385 
L 400.600723 209.643802 
L 400.781613 229.837136 
L 401.018391 227.10227 
L 401.257493 208.551589 
L 401.498301 210.043181 
L 401.855322 205.148754 
L 402.035863 229.263705 
L 402.274007 210.826464 
L 402.555498 210.363146 
L 402.872188 213.118996 
L 403.108135 202.211685 
L 403.227222 224.552168 
L 403.466513 226.246775 
L 403.763847 208.644766 
L 404.06342 209.453927 
L 404.243515 214.383889 
L 404.481874 206.011472 
L 404.780652 210.343376 
L 404.957902 208.916082 
L 405.257143 209.340768 
L 405.494709 214.951469 
L 405.733715 197.711764 
L 406.150189 210.599033 
L 406.22296 208.55539 
L 406.50908 211.102232 
L 406.699843 216.273741 
L 407.094257 201.652668 
L 407.222319 215.045329 
L 407.45226 210.73646 
L 407.75233 208.768155 
L 408.110181 209.299736 
L 408.171083 198.951193 
L 408.467786 213.404377 
L 408.705538 213.040464 
L 408.947224 211.366766 
L 409.197164 210.597086 
L 409.60073 213.359397 
L 409.660698 212.359045 
L 409.959081 213.749073 
L 410.201427 210.237994 
L 410.442648 217.368895 
L 410.639771 205.91834 
L 410.914207 217.353117 
L 411.394451 209.705404 
L 411.691964 208.232039 
L 412.109225 210.923494 
L 412.168443 209.549382 
L 412.407931 215.035403 
L 412.764168 211.574702 
L 412.942779 202.299584 
L 413.125083 202.650824 
L 413.361577 200.56834 
L 413.600064 209.843033 
L 413.918937 210.671507 
L 414.139017 209.411749 
L 414.375515 219.973923 
L 414.612557 209.975924 
L 414.851628 211.360844 
L 415.149726 209.932415 
L 415.330749 212.60213 
L 415.863312 215.339754 
L 415.871824 104.212447 
L 416.106461 212.208879 
L 416.462714 199.810965 
L 416.642489 204.129706 
L 416.889627 204.552519 
L 417.121838 212.037318 
L 417.478478 212.30454 
L 417.598079 203.300226 
L 417.782821 211.911889 
L 418.07455 214.27586 
L 418.313208 210.598199 
L 418.552708 211.425912 
L 418.792555 214.047585 
L 419.212173 228.257042 
L 419.266786 198.7902 
L 419.625937 210.026781 
L 419.809527 209.058636 
L 420.04404 210.705755 
L 420.28297 210.999183 
L 420.702599 210.33857 
L 420.827577 204.722231 
L 421.082899 211.867123 
L 421.296666 199.873584 
L 421.54394 201.328244 
L 421.595588 214.556489 
L 421.83448 220.058787 
L 422.073909 210.560322 
L 422.256645 214.340022 
L 422.4934 209.955962 
L 422.788822 210.445677 
L 423.265582 229.775023 
L 423.74235 196.468363 
L 423.981822 195.279402 
L 424.541323 210.951565 
L 424.759483 211.56536 
L 424.995152 272.630571 
L 425.235023 276.484645 
L 425.480997 253.883696 
L 425.733157 244.299548 
L 425.965544 241.990916 
L 426.199397 241.770598 
L 426.458737 224.288091 
L 427.231531 210.678509 
L 427.51593 214.450186 
L 427.759176 209.265905 
L 428.052108 209.292163 
L 428.172449 203.248406 
L 428.413673 206.124124 
L 428.836364 198.529739 
L 428.955581 210.739226 
L 429.18742 209.968889 
L 429.430516 207.394543 
L 429.801082 216.367294 
L 429.961842 212.772898 
L 430.264799 213.961103 
L 430.499653 211.387232 
L 430.737766 205.991432 
L 431.038223 219.456302 
L 431.277655 199.614341 
L 431.879912 224.606475 
L 432.145195 214.269672 
L 432.416076 217.662014 
L 432.731349 210.135303 
L 432.896991 195.101183 
L 433.246954 209.161659 
L 433.451223 204.158749 
L 433.665146 213.215665 
L 433.964357 209.002069 
L 434.142742 214.703675 
L 434.381269 216.060117 
L 434.623103 214.13291 
L 434.997949 203.8461 
L 435.098089 206.631988 
L 435.455055 211.089804 
L 435.634082 215.527618 
L 436.113881 203.186644 
L 436.519588 216.251975 
L 436.757143 214.48234 
L 436.944495 218.784169 
L 437.174898 192.24464 
L 437.472864 218.5704 
L 437.831465 213.754476 
L 438.308241 201.925132 
L 438.667106 221.716426 
L 438.84864 217.253802 
L 439.203743 204.781373 
L 439.32935 226.999139 
L 439.860506 208.225253 
L 440.09899 213.181351 
L 440.341029 205.660179 
L 440.57698 208.21736 
L 440.819932 214.223745 
L 441.0549 211.187348 
L 441.293635 201.297256 
L 441.542392 214.184473 
L 441.775867 205.872455 
L 442.074838 215.736312 
L 442.262767 210.954536 
L 442.790225 213.025543 
L 443.029689 203.078786 
L 443.445843 214.574071 
L 443.53362 211.256339 
L 443.80455 218.334364 
L 444.10157 218.526778 
L 444.399442 210.011859 
L 444.57959 215.04252 
L 444.818019 201.814896 
L 445.063402 212.677679 
L 445.296153 211.989598 
L 445.714857 219.897001 
L 445.964215 206.350469 
L 446.250673 216.206167 
L 446.502345 213.54126 
L 446.735599 201.620046 
L 447.107182 211.836781 
L 447.270302 201.851911 
L 447.446819 218.199593 
L 447.771866 220.699969 
L 447.982701 201.097762 
L 448.403106 211.753875 
L 448.484627 208.575475 
L 448.709369 217.058812 
L 448.938227 209.15418 
L 449.177353 209.017068 
L 449.598835 214.755847 
L 449.788248 222.573221 
L 450.204405 199.839157 
L 450.621534 211.405498 
L 450.682193 206.148226 
L 451.338457 215.917772 
L 451.399986 214.463994 
L 451.813746 200.556116 
L 451.933234 220.120556 
L 452.173271 208.882833 
L 452.410237 213.971675 
L 452.82738 208.550568 
L 452.946775 213.253985 
L 453.185812 209.836101 
L 453.430029 210.168342 
L 453.484299 214.511371 
L 453.664483 207.878525 
L 453.901894 192.244371 
L 454.143047 215.602512 
L 454.438849 217.810949 
L 454.618697 212.274745 
L 454.938383 212.366921 
L 455.098633 218.431733 
L 455.397176 198.861917 
L 455.635167 215.303493 
L 455.877511 208.991183 
L 456.173359 218.266198 
L 456.591861 206.191169 
L 456.890144 215.140647 
L 457.076637 208.984013 
L 457.486093 207.789316 
L 457.633251 214.352513 
L 457.847524 213.742814 
L 458.105785 211.313153 
L 458.32148 212.259897 
L 458.560843 218.42674 
L 458.808204 213.97931 
L 459.107177 204.19439 
L 459.348289 213.857127 
L 459.646853 216.293031 
L 460.121119 212.053696 
L 460.300685 218.477588 
L 460.598908 212.956323 
L 460.836734 215.0806 
L 461.234538 211.29531 
L 461.381927 216.49974 
L 461.558545 200.700196 
L 462.091757 217.547184 
L 462.398666 210.094406 
L 462.568687 218.132237 
L 462.816983 214.382293 
L 463.179961 217.233766 
L 463.28692 221.572338 
L 463.530871 222.449528 
L 463.765835 208.361027 
L 464.072889 206.781805 
L 464.320637 211.858264 
L 464.544218 208.981512 
L 464.781239 211.112598 
L 465.027317 205.31783 
L 465.502724 217.495604 
L 465.79922 218.433877 
L 466.094286 213.856498 
L 466.273686 218.592674 
L 466.691576 208.320996 
L 467.037735 214.611197 
L 467.505697 211.537164 
L 467.807763 224.045864 
L 467.992368 205.172446 
L 468.282927 206.746286 
L 468.587327 214.376182 
L 468.763154 202.98174 
L 469.239085 216.418143 
L 469.716829 202.320237 
L 469.954561 202.968286 
L 470.193432 217.028057 
L 470.432962 198.98695 
L 470.849958 204.392295 
L 470.999092 224.540918 
L 471.387446 207.191187 
L 471.506328 217.387518 
L 471.744903 207.286663 
L 471.983362 218.236656 
L 472.281026 207.505838 
L 472.413238 214.098483 
L 472.672721 216.959365 
L 472.942737 202.999983 
L 473.237728 209.217364 
L 473.436374 206.131252 
L 473.65615 207.237989 
L 473.896837 223.116426 
L 474.276647 216.735554 
L 474.434755 219.628645 
L 474.670358 202.888797 
L 474.93836 213.917047 
L 475.231962 213.447844 
L 475.454667 214.787613 
L 475.749702 206.381415 
L 476.17761 221.36044 
L 476.433657 207.404171 
L 476.724539 215.271461 
L 476.846124 203.133632 
L 477.138377 214.864708 
L 477.436678 219.381878 
L 477.734773 213.168799 
L 477.854287 218.485277 
L 478.152176 212.218462 
L 478.398605 197.610542 
L 478.868384 217.99867 
L 479.108222 220.250236 
L 479.40632 215.553346 
L 479.644856 209.354831 
L 479.885479 209.719609 
L 480.120828 213.182977 
L 480.359199 209.620594 
L 480.598725 215.339672 
L 480.844014 213.929587 
L 481.077859 213.786719 
L 481.314748 215.436343 
L 481.674954 209.62683 
L 481.852016 203.006956 
L 482.092838 215.41339 
L 482.389213 208.631169 
L 482.925677 216.064052 
L 483.177819 217.574231 
L 483.344272 216.025002 
L 483.642591 217.700732 
L 483.880396 212.094844 
L 484.321353 217.259978 
L 484.537252 216.900254 
L 484.839118 215.05507 
L 485.132073 222.990865 
L 485.378852 212.162532 
L 485.550787 211.580668 
L 485.791706 217.676756 
L 486.027845 211.372288 
L 486.343305 219.072997 
L 486.522284 217.318688 
L 486.760428 223.165312 
L 487.238515 224.303969 
L 487.29849 214.204806 
L 487.59631 223.8378 
L 487.778709 217.265215 
L 488.018138 214.178735 
L 488.251803 214.192933 
L 488.549642 209.956456 
L 488.730142 202.061736 
L 489.029062 213.78887 
L 489.325562 212.27583 
L 489.504111 215.766826 
L 489.806894 213.038139 
L 490.044836 218.534482 
L 490.281663 202.365101 
L 490.759547 214.516897 
L 490.96493 209.390912 
L 491.240308 211.868763 
L 491.584791 219.196167 
L 492.022035 209.320972 
L 492.259152 212.038196 
L 492.498084 203.069265 
L 492.974913 217.619422 
L 493.213871 211.925877 
L 493.455108 210.417191 
L 493.750988 203.720474 
L 493.930682 216.591648 
L 494.246704 214.774516 
L 494.287781 220.383654 
L 494.466584 224.232972 
L 494.767831 203.552541 
L 495.063455 217.173942 
L 495.241894 217.41982 
L 495.722548 211.15951 
L 495.780352 203.679652 
L 495.958619 213.074982 
L 496.203305 216.941169 
L 496.688782 214.661906 
L 496.91341 218.919703 
L 497.152993 207.521705 
L 497.510055 208.705424 
L 497.688907 219.801418 
L 497.867388 211.157606 
L 498.287595 221.068273 
L 498.345069 208.235557 
L 498.706986 210.865352 
L 498.949207 206.997051 
L 499.185459 213.488323 
L 499.41975 213.839767 
L 499.657768 214.947594 
L 499.903543 222.074884 
L 500.207372 209.548797 
L 500.384257 215.933925 
L 500.630807 215.755 
L 500.868873 220.445765 
L 501.112834 212.70823 
L 501.345532 214.103259 
L 501.643394 205.154673 
L 501.827858 219.458571 
L 502.122693 202.807483 
L 502.424592 228.735991 
L 502.65736 202.44676 
L 502.912868 200.425038 
L 503.136012 225.776615 
L 503.559477 211.550476 
L 503.61223 217.401311 
L 503.85067 209.880714 
L 504.268746 216.723365 
L 504.329146 215.750476 
L 504.569776 218.710807 
L 505.064641 211.930588 
L 505.369257 215.673558 
L 505.58343 208.091172 
L 505.840075 215.745879 
L 506.06122 213.875027 
L 506.300427 206.195778 
L 506.540169 227.343769 
L 506.852163 204.500935 
L 507.256581 224.856054 
L 507.31785 214.831078 
L 507.553063 222.323031 
L 508.03587 213.184028 
L 508.209039 213.144618 
L 508.340669 221.231584 
L 508.528018 214.242455 
L 508.885369 224.561177 
L 509.105985 217.393811 
L 509.327672 218.032177 
L 509.555939 211.261595 
L 509.79508 210.9644 
L 510.037742 205.837636 
L 510.400013 223.706137 
L 510.559712 215.429403 
L 510.797028 218.851426 
L 511.15401 219.691472 
L 511.340183 212.498278 
L 511.515701 221.424057 
L 511.810668 224.31223 
L 512.117989 214.814794 
L 512.290623 214.013313 
L 512.589208 222.812078 
L 512.767601 214.810682 
L 513.025949 213.204712 
L 513.362767 216.830341 
L 513.49754 208.927364 
L 513.779272 202.157309 
L 514.077099 170.312756 
L 514.259399 188.279063 
L 514.496964 172.883351 
L 514.752703 189.041454 
L 515.03257 182.71011 
L 515.275201 193.310695 
L 515.51118 198.508853 
L 515.754742 191.519888 
L 516.001238 208.989942 
L 516.465432 219.8685 
L 516.904123 220.030828 
L 517.135326 216.822137 
L 517.481211 220.087709 
L 517.768534 216.714805 
L 518.018279 216.795778 
L 518.494558 214.192386 
L 518.5543 214.967817 
L 518.913059 215.316036 
L 519.040927 214.163267 
L 519.451688 215.327334 
L 519.953515 215.782858 
L 520.066241 215.544854 
L 520.234489 215.789885 
L 521.548585 215.822142 
L 521.91975 216.056401 
L 522.323891 215.889202 
L 522.56745 216.290574 
L 522.804201 215.789834 
L 522.922439 215.913559 
L 523.170917 215.798762 
L 525.913162 215.832812 
L 526.161968 215.904859 
L 526.577196 215.753733 
L 526.87331 215.907235 
L 527.107649 215.758155 
L 527.583954 215.82885 
L 528.357895 215.811374 
L 530.163816 215.835172 
L 532.070001 215.822304 
L 552.848468 215.82323 
L 575.30771 215.825345 
L 590.140313 215.823553 
L 590.140313 215.823553 
" clip-path="url(#pd98f6323f5)" style="fill: none; stroke: #0000ff; stroke-opacity: 0.7; stroke-width: 1.5; stroke-linecap: square"/>
   </g>
   <g id="line2d_30">
    <path d="M 32.140313 274.20724 
L 32.260416 272.360135 
L 32.503304 271.829572 
L 32.5745 273.221534 
L 32.748517 272.487256 
L 33.345096 272.686288 
L 33.523383 272.459368 
L 33.940291 273.390866 
L 34.179346 273.379854 
L 34.239045 273.825406 
L 34.894659 274.208574 
L 35.196698 275.037713 
L 35.670907 275.440041 
L 35.729003 275.257758 
L 35.967083 275.299342 
L 36.266372 274.748248 
L 36.565555 274.900015 
L 36.801595 274.541192 
L 37.115218 274.909525 
L 37.219399 275.767302 
L 37.457383 274.242415 
L 37.697946 274.367554 
L 37.938435 273.875458 
L 38.236853 274.805916 
L 38.471547 273.835701 
L 38.70973 273.553134 
L 39.008549 273.895814 
L 39.307485 274.723926 
L 39.812296 273.19031 
L 40.443272 274.752363 
L 40.862256 273.439874 
L 41.043007 274.026882 
L 41.158873 273.954344 
L 41.403681 274.445039 
L 41.640993 273.930508 
L 41.881665 273.888085 
L 42.174413 274.054303 
L 42.77819 273.75473 
L 44.079313 273.882212 
L 47.994112 273.537566 
L 49.298621 273.124651 
L 50.722905 273.204474 
L 52.14611 273.455924 
L 53.451293 273.403925 
L 53.591898 274.483977 
L 53.829341 273.97007 
L 54.067819 272.830097 
L 54.306655 272.481892 
L 54.903392 274.757427 
L 55.082802 274.308488 
L 55.319405 274.705415 
L 55.503632 274.421636 
L 55.741906 272.852732 
L 56.0415 273.324617 
L 56.276474 274.061616 
L 56.75367 273.616396 
L 56.993866 273.481531 
L 57.290431 272.396388 
L 57.484191 272.532177 
L 57.768474 273.239251 
L 58.36308 273.952673 
L 58.721276 273.171233 
L 58.961335 274.357913 
L 59.273708 275.234472 
L 59.497757 274.548293 
L 59.746013 274.65588 
L 60.034326 274.084444 
L 60.215694 273.135713 
L 60.514101 273.824359 
L 60.572028 274.475044 
L 60.750248 274.586597 
L 61.226386 273.823368 
L 61.466678 273.025121 
L 61.762805 272.430832 
L 62.060926 273.079841 
L 62.240029 274.041518 
L 62.421171 275.72591 
L 62.657497 275.673731 
L 62.96134 273.777462 
L 63.254391 273.413798 
L 63.493016 274.35868 
L 63.733151 274.221151 
L 63.976034 273.80798 
L 64.160848 275.049387 
L 64.455345 275.46813 
L 65.050707 272.995187 
L 65.227079 273.144812 
L 65.467025 273.675057 
L 65.707736 274.576567 
L 66.002271 274.617341 
L 66.242317 274.259531 
L 66.420136 274.833037 
L 66.896607 273.847257 
L 67.079511 272.82861 
L 67.374773 273.05368 
L 67.672356 274.414532 
L 67.910925 274.14324 
L 68.149877 272.949597 
L 68.447276 272.811843 
L 68.74506 273.395688 
L 68.987539 273.520861 
L 69.401301 275.487914 
L 69.937271 275.285123 
L 70.116759 274.39123 
L 70.417336 275.017973 
L 70.652368 276.122907 
L 70.849156 275.669711 
L 71.130491 275.41856 
L 71.368623 275.358237 
L 71.845834 273.211033 
L 72.083203 273.521087 
L 72.621779 274.440803 
L 73.09869 273.054529 
L 73.574 272.674009 
L 73.933629 272.256387 
L 74.349816 274.85839 
L 74.588354 274.664797 
L 74.830265 273.332132 
L 75.303153 273.26867 
L 75.422818 273.523457 
L 75.550599 272.892418 
L 75.788722 273.526238 
L 76.078528 275.207324 
L 76.258186 275.564365 
L 76.496906 273.871208 
L 76.853247 272.759467 
L 77.031899 273.418417 
L 77.269994 273.763382 
L 77.510114 272.846756 
L 77.747356 272.95703 
L 78.048518 274.351263 
L 78.343652 274.91806 
L 78.761397 272.438717 
L 78.998788 272.940384 
L 79.476273 273.167005 
L 79.845389 273.23215 
L 80.072023 273.825691 
L 80.369511 273.671819 
L 80.530625 272.301631 
L 80.728143 272.154702 
L 81.265122 275.152294 
L 81.503326 275.057918 
L 81.741008 274.462104 
L 82.04075 274.213511 
L 82.224265 274.609938 
L 82.63772 274.639109 
L 82.755731 274.828071 
L 83.546261 276.485426 
L 83.718712 275.275875 
L 84.186037 274.953687 
L 84.543172 275.372417 
L 84.901284 275.047256 
L 85.318863 274.941394 
L 85.439328 274.488211 
L 85.676068 274.315257 
L 85.973647 274.333205 
L 86.152383 274.60045 
L 86.391669 274.717255 
L 87.127254 273.205717 
L 87.463784 273.202741 
L 87.642367 273.490317 
L 87.942829 272.865031 
L 88.178787 271.316221 
L 88.479615 271.20085 
L 88.894997 273.925988 
L 89.136453 274.389264 
L 89.52933 274.150655 
L 89.701857 274.394743 
L 90.091562 274.669238 
L 90.210599 274.094803 
L 90.266352 274.152026 
L 90.33225 274.92045 
L 90.627249 276.353951 
L 90.923552 276.15899 
L 91.12736 274.137146 
L 91.417413 272.693886 
L 91.700983 273.449627 
L 91.840231 274.467435 
L 92.11645 274.457354 
L 92.355029 273.495999 
L 92.663098 273.741946 
L 92.962953 274.447815 
L 93.433165 272.531384 
L 94.0285 272.952875 
L 94.163744 274.032681 
L 95.505901 273.455834 
L 96.803142 273.694342 
L 98.231861 273.492164 
L 98.311059 276.221413 
L 98.490811 276.043062 
L 98.72905 275.370645 
L 99.091612 275.054032 
L 99.325383 274.393524 
L 99.703719 274.68897 
L 99.942917 275.277477 
L 100.326145 273.562899 
L 100.727468 270.613135 
L 101.025498 270.185875 
L 101.325668 270.400699 
L 101.985306 275.316581 
L 102.277973 275.872207 
L 102.540233 275.45551 
L 102.755395 274.466982 
L 103.114866 274.694587 
L 103.233772 275.656311 
L 103.530292 276.385004 
L 103.829761 276.450723 
L 104.013288 275.57068 
L 104.432586 271.979241 
L 104.689594 271.144821 
L 105.214519 273.979376 
L 105.687228 272.380837 
L 105.927019 272.13034 
L 106.430067 272.694466 
L 107.059362 273.34746 
L 107.425785 272.270718 
L 107.730857 272.953505 
L 108.178044 276.112009 
L 108.520564 275.80145 
L 108.673551 274.835338 
L 108.951319 274.914929 
L 109.574599 275.65856 
L 109.639565 276.007066 
L 109.853576 275.706412 
L 110.113291 273.45045 
L 110.420405 273.221869 
L 110.768396 273.112218 
L 110.886904 272.762981 
L 111.363595 272.846881 
L 111.661639 272.5012 
L 111.843756 272.702302 
L 112.087971 272.710819 
L 112.393847 273.13478 
L 112.565524 273.858239 
L 112.926999 273.588246 
L 113.160978 272.657125 
L 113.458694 272.730941 
L 113.582678 273.974431 
L 113.936112 274.009445 
L 114.353403 272.928765 
L 114.831601 275.676547 
L 115.070886 274.982738 
L 115.308688 273.472744 
L 115.549767 273.218525 
L 115.787315 273.754822 
L 116.262296 273.548322 
L 116.573462 274.413082 
L 116.798422 274.533213 
L 117.226811 273.250862 
L 117.33498 271.893674 
L 117.632928 272.759143 
L 117.811529 273.944939 
L 117.99319 274.218474 
L 118.586634 273.810646 
L 119.302806 272.166643 
L 119.785222 273.644283 
L 120.028396 273.746776 
L 120.265168 273.714687 
L 120.49819 273.516938 
L 121.034974 274.138078 
L 121.392655 273.753353 
L 121.75016 274.404395 
L 122.227702 274.667976 
L 122.465751 274.782082 
L 122.764971 274.40752 
L 123.061124 274.507051 
L 123.481512 274.495047 
L 123.718465 274.833043 
L 124.194498 274.367041 
L 124.432582 273.65976 
L 124.731646 273.30617 
L 125.027873 273.379662 
L 125.208061 273.608865 
L 125.447421 273.41793 
L 125.708499 273.048055 
L 125.926155 272.959079 
L 126.415946 273.297223 
L 126.717922 273.791795 
L 126.906634 275.160294 
L 127.237391 275.584087 
L 127.418743 274.149585 
L 127.685942 273.381797 
L 127.91139 274.381917 
L 128.149173 274.641969 
L 128.625669 273.156979 
L 128.937299 273.671629 
L 129.162063 274.538819 
L 129.399844 274.35103 
L 129.937414 272.065965 
L 130.175147 272.428549 
L 130.534909 272.210921 
L 130.782196 271.929282 
L 131.009433 271.973952 
L 131.133599 272.843858 
L 131.367421 273.45152 
L 131.669143 273.320206 
L 131.875346 272.5598 
L 132.100256 272.560382 
L 132.67823 273.735792 
L 132.97878 273.618924 
L 133.155995 273.341665 
L 133.513843 273.101688 
L 133.633954 272.709241 
L 133.87163 273.119862 
L 134.113457 274.047508 
L 134.649402 277.242523 
L 134.829554 277.506904 
L 135.321084 276.525451 
L 135.38073 275.801973 
L 136.097847 277.92 
L 136.335606 276.677169 
L 136.811457 272.915719 
L 137.108679 272.105438 
L 138.003165 276.141203 
L 138.063545 275.402672 
L 138.302521 274.563695 
L 138.540159 274.212275 
L 139.316551 275.490588 
L 139.680343 274.978084 
L 139.79121 273.508572 
L 140.089465 272.24892 
L 140.333915 272.649425 
L 140.522304 274.585307 
L 140.75126 275.559347 
L 141.282395 274.460189 
L 141.51987 274.524104 
L 141.937054 274.412102 
L 142.05632 274.768593 
L 142.235917 274.93365 
L 142.713512 274.565851 
L 143.010831 274.158983 
L 143.250749 274.475609 
L 143.727194 275.352674 
L 144.203471 274.027707 
L 144.991383 274.588359 
L 145.513506 273.033076 
L 145.750976 273.081262 
L 145.989303 273.903447 
L 146.170325 275.474115 
L 146.526081 277.335771 
L 146.826065 277.409066 
L 146.946731 276.330831 
L 147.18318 275.761883 
L 147.720028 276.841719 
L 147.956751 276.120495 
L 148.67152 272.536076 
L 148.970955 272.651648 
L 149.56939 275.753889 
L 149.692061 276.872867 
L 150.23535 275.255359 
L 150.462195 275.324635 
L 150.882422 276.578795 
L 151.120132 276.134976 
L 151.713311 273.481203 
L 152.131469 271.278478 
L 152.370451 271.87577 
L 152.906497 275.090526 
L 153.14437 274.941469 
L 153.44687 274.005401 
L 153.621924 273.079545 
L 153.860272 272.857174 
L 154.276678 273.723996 
L 154.398788 274.361885 
L 154.639686 274.08654 
L 155.353534 270.342904 
L 155.602336 270.92896 
L 156.067618 274.573903 
L 156.365929 275.110072 
L 156.84958 273.372263 
L 157.087007 273.936362 
L 157.560213 275.555207 
L 157.808202 275.232203 
L 158.034751 274.357439 
L 158.393499 273.799088 
L 158.63048 274.002124 
L 158.870077 274.802664 
L 159.28704 276.667555 
L 159.764182 275.122116 
L 160.120076 275.247474 
L 160.298725 275.573782 
L 160.53699 275.743789 
L 160.835331 274.795311 
L 161.074063 273.563702 
L 161.373063 273.283804 
L 161.55205 273.895479 
L 161.790008 274.08788 
L 162.028927 274.483242 
L 162.27046 274.356001 
L 162.505209 274.397845 
L 162.802979 274.235325 
L 163.338688 273.33255 
L 163.519082 272.685166 
L 163.840609 272.318945 
L 163.996722 272.557287 
L 164.236018 273.214859 
L 164.475469 273.259071 
L 164.89578 273.015108 
L 165.069618 272.612928 
L 166.207375 274.197851 
L 166.472947 273.747409 
L 166.743848 272.692871 
L 166.976768 272.424057 
L 167.344888 273.283076 
L 167.45527 273.257294 
L 167.795809 272.575199 
L 167.815257 272.221487 
L 167.952087 272.798283 
L 168.173283 274.349232 
L 168.55145 275.493079 
L 168.711434 274.820382 
L 168.948043 273.341033 
L 169.18601 273.04478 
L 169.424624 274.008469 
L 169.723182 273.940348 
L 169.961155 273.675565 
L 170.559667 275.38625 
L 171.285899 272.241775 
L 171.393213 272.702014 
L 171.74865 273.643612 
L 171.989757 273.501794 
L 172.166278 273.054885 
L 172.65986 272.520707 
L 172.881454 270.546086 
L 173.179617 270.508676 
L 173.597299 271.879267 
L 173.972183 274.801253 
L 174.402452 273.160041 
L 175.113153 274.94797 
L 175.949357 275.607133 
L 176.305641 275.196974 
L 176.609683 274.116545 
L 176.847717 274.328111 
L 177.105723 274.406808 
L 177.343524 274.180874 
L 177.645736 274.492224 
L 177.880569 274.184981 
L 178.118342 273.645108 
L 178.504163 273.34928 
L 178.851805 274.994474 
L 179.093712 276.28251 
L 179.43122 276.197082 
L 179.551524 274.852732 
L 179.848239 274.504399 
L 180.325566 275.198083 
L 180.563712 274.646994 
L 180.820926 273.540232 
L 181.399395 272.610709 
L 181.57679 272.572407 
L 181.874562 272.307017 
L 182.113099 272.368293 
L 182.29192 272.778483 
L 182.768574 273.061803 
L 183.245868 273.445765 
L 183.483177 273.247384 
L 183.602426 272.302929 
L 183.840886 271.584971 
L 184.02086 271.883097 
L 184.506936 275.217286 
L 184.795101 274.680527 
L 185.034127 273.711445 
L 185.277323 273.794929 
L 185.584366 274.344446 
L 185.754673 275.080885 
L 185.993979 275.382545 
L 186.232526 274.859438 
L 186.710166 272.173842 
L 186.95296 272.604402 
L 187.246241 274.1569 
L 187.543327 274.758663 
L 187.724616 273.851877 
L 188.258923 273.7022 
L 188.797234 273.609751 
L 189.092174 274.389592 
L 189.211742 275.741337 
L 189.450228 275.233407 
L 189.688262 273.371435 
L 189.985774 273.584147 
L 190.169694 274.008155 
L 190.462416 273.274219 
L 190.704003 273.197501 
L 191.178168 275.548341 
L 191.420626 274.623011 
L 191.658722 272.89459 
L 191.915785 272.946841 
L 192.252478 273.479562 
L 192.495245 272.619047 
L 192.673459 273.206243 
L 192.966422 275.013266 
L 193.264667 275.426478 
L 193.392781 273.60829 
L 193.674906 272.443866 
L 194.160574 273.763074 
L 194.40092 272.942966 
L 194.661406 273.182138 
L 194.890264 274.728761 
L 195.239562 275.831222 
L 195.657872 273.664828 
L 195.895951 273.699923 
L 196.252846 274.088438 
L 196.372173 274.402051 
L 196.614569 274.549901 
L 197.206116 274.040249 
L 197.384839 273.479794 
L 197.623773 273.297845 
L 198.100225 273.680343 
L 198.457221 273.431581 
L 198.697055 273.057721 
L 198.817509 272.514323 
L 199.112665 272.712703 
L 199.360548 273.681934 
L 199.829534 274.201349 
L 200.089848 272.589255 
L 200.42589 272.138572 
L 200.723554 273.806582 
L 201.080769 276.394934 
L 201.560416 275.008931 
L 201.856285 274.802612 
L 202.215656 274.378809 
L 202.34336 274.462253 
L 202.810323 275.614261 
L 203.238443 275.683974 
L 203.468321 274.939056 
L 203.587817 274.136115 
L 203.827094 274.484041 
L 204.063183 275.167714 
L 204.301032 275.106012 
L 204.540874 275.399723 
L 204.777894 275.387366 
L 205.512219 273.850179 
L 205.970813 274.906117 
L 206.031238 276.512515 
L 206.268654 277.665216 
L 206.507617 277.504288 
L 206.805789 276.751925 
L 207.043339 275.781981 
L 207.282053 275.818677 
L 207.462239 276.247884 
L 207.758564 276.009878 
L 208.713549 270.76502 
L 209.01257 270.574597 
L 209.727167 274.779743 
L 210.026604 274.978252 
L 210.448923 273.236251 
L 210.740457 273.299888 
L 211.038025 273.971503 
L 211.515273 275.45881 
L 211.693838 275.394676 
L 212.414473 273.053885 
L 212.903531 273.279942 
L 212.94518 273.680374 
L 213.188899 273.607088 
L 213.68185 271.782861 
L 213.96737 271.626097 
L 214.26064 272.071659 
L 214.4997 273.177371 
L 214.800267 273.499072 
L 214.975671 272.767594 
L 215.152996 272.512784 
L 215.63072 272.806018 
L 215.692681 273.573172 
L 216.167769 274.887652 
L 216.409036 274.610878 
L 216.644147 273.845588 
L 216.885976 272.172611 
L 217.191757 271.138095 
L 217.685713 271.624105 
L 218.135976 270.071369 
L 218.376477 269.902156 
L 218.911855 270.899189 
L 219.151456 270.610599 
L 219.38853 269.239257 
L 220.163041 260.959781 
L 221.116739 256.008635 
L 221.594397 253.904926 
L 221.831651 253.495747 
L 222.129433 255.274692 
L 222.849207 262.698521 
L 223.145121 264.757104 
L 223.50416 265.155557 
L 223.810569 262.228387 
L 224.046296 259.530765 
L 224.343439 257.927593 
L 224.582601 255.971295 
L 225.301219 255.792913 
L 225.774325 254.263455 
L 225.953557 253.068868 
L 226.072009 254.246593 
L 226.553484 255.365415 
L 227.264162 260.983282 
L 227.502067 260.247181 
L 227.801173 260.09341 
L 228.276175 255.975217 
L 228.75348 253.241362 
L 229.070165 251.414118 
L 229.36445 250.387652 
L 229.544257 250.193167 
L 229.721979 250.746565 
L 230.021717 251.110167 
L 230.258787 250.65297 
L 230.795324 253.354415 
L 231.033203 253.55354 
L 231.332523 252.591982 
L 231.512402 253.070997 
L 231.928034 251.769697 
L 231.98826 250.51749 
L 232.702568 247.415809 
L 232.942811 247.124641 
L 233.186582 249.229658 
L 233.478279 250.272287 
L 233.660737 253.829734 
L 233.954681 254.834274 
L 234.252051 254.972859 
L 234.431297 255.190913 
L 235.027384 252.715475 
L 235.206838 250.035352 
L 235.444132 249.036818 
L 235.981562 243.94936 
L 236.577343 239.299048 
L 236.756315 240.031911 
L 237.05356 239.450653 
L 237.176921 242.710958 
L 237.474062 245.211845 
L 237.891067 250.155838 
L 238.397599 251.536761 
L 239.141369 247.081714 
L 239.840226 242.236976 
L 240.392294 235.362572 
L 240.869763 235.624979 
L 241.107026 235.418181 
L 242.001197 241.082334 
L 242.180755 245.590195 
L 242.486189 244.444201 
L 242.658347 246.067417 
L 243.55472 235.529273 
L 243.814282 234.474874 
L 244.092059 231.319067 
L 244.33058 231.541487 
L 244.627738 229.397076 
L 245.104217 230.955391 
L 245.343396 231.784302 
L 245.881365 234.922315 
L 246.063258 237.995659 
L 246.29821 239.136797 
L 246.595974 242.71744 
L 246.774928 243.166089 
L 247.074762 241.182631 
L 247.370322 238.042287 
L 247.550299 234.318119 
L 248.267448 228.072148 
L 248.503671 223.97719 
L 248.920695 224.901663 
L 249.339831 219.32183 
L 249.516736 219.562875 
L 250.234213 228.402598 
L 250.651073 231.015552 
L 250.772096 233.614048 
L 251.068182 234.40233 
L 251.24816 233.905097 
L 251.485551 234.765172 
L 251.84259 233.795871 
L 252.082632 231.195536 
L 252.214731 231.554547 
L 252.497325 231.278269 
L 252.795714 230.756382 
L 253.125417 229.320539 
L 253.367647 229.599725 
L 253.513527 228.587412 
L 253.931947 233.895678 
L 254.228649 233.964396 
L 254.586829 231.41318 
L 254.960462 231.582341 
L 255.127567 230.408864 
L 255.240305 228.17976 
L 255.613246 226.44495 
L 255.724063 225.119424 
L 255.966285 225.418075 
L 256.431699 222.837015 
L 256.789273 222.942942 
L 256.968337 221.602314 
L 257.3852 222.182398 
L 257.504401 225.56858 
L 257.923349 230.198832 
L 258.696364 223.770997 
L 258.937027 223.889247 
L 259.352273 222.664124 
L 259.593112 223.667822 
L 259.829448 220.156216 
L 259.889674 220.446788 
L 260.12731 219.441348 
L 260.425959 219.179582 
L 260.73192 219.786193 
L 260.962329 220.906123 
L 261.201122 220.444025 
L 261.397353 222.525281 
L 261.737001 223.865982 
L 261.975511 223.673781 
L 262.170291 223.359381 
L 262.394273 222.575234 
L 262.654667 222.855699 
L 262.871144 222.322852 
L 263.524878 218.336235 
L 263.882632 215.160308 
L 264.299466 214.144622 
L 264.3605 216.893928 
L 264.597897 217.465892 
L 264.956088 217.842983 
L 265.199153 215.922711 
L 265.373312 217.776262 
L 265.612533 216.392349 
L 265.911494 217.79871 
L 266.092012 220.908927 
L 266.326923 218.777433 
L 266.565461 221.224363 
L 267.101689 216.534854 
L 267.606951 212.948581 
L 267.856872 213.43051 
L 268.295763 212.883852 
L 268.483061 212.88733 
L 268.675147 210.910373 
L 268.951074 209.817839 
L 269.075351 211.218567 
L 269.429128 212.27405 
L 269.55089 214.518828 
L 269.84571 215.977694 
L 270.031289 219.538794 
L 270.449826 217.131081 
L 270.686578 218.949962 
L 270.799583 217.028443 
L 271.227969 215.538096 
L 271.416575 216.924942 
L 271.75803 213.833533 
L 272.113281 215.133458 
L 272.261991 212.927578 
L 272.593247 212.072244 
L 272.831352 212.533557 
L 273.068673 211.683287 
L 273.249832 216.806134 
L 273.545056 214.518399 
L 273.724459 214.543706 
L 274.022425 211.330923 
L 274.261309 211.68266 
L 274.617965 210.485342 
L 274.7976 211.328589 
L 275.231571 215.483829 
L 275.511428 212.971917 
L 275.694115 215.299935 
L 275.751157 213.95749 
L 275.988981 213.857289 
L 276.171231 214.008031 
L 276.465935 215.369954 
L 276.705865 217.136051 
L 276.943838 217.586078 
L 277.30182 213.972036 
L 277.599417 215.471931 
L 277.726347 217.077471 
L 277.957434 213.468206 
L 278.200835 211.971785 
L 278.493901 211.728938 
L 278.672125 214.1638 
L 278.913757 210.731233 
L 279.327936 210.234983 
L 279.448279 210.272586 
L 279.686283 207.97412 
L 279.929695 209.478922 
L 280.164187 213.69664 
L 280.406913 215.11221 
L 280.644747 217.689624 
L 280.899921 214.210121 
L 281.121606 216.094402 
L 281.662009 211.438417 
L 281.896875 213.970343 
L 282.135022 211.560295 
L 282.373719 212.980734 
L 282.672546 212.576537 
L 282.87827 211.770406 
L 283.092569 208.14059 
L 283.448648 209.049643 
L 283.865204 208.165393 
L 283.985133 212.96609 
L 284.103379 211.862015 
L 284.520863 215.010465 
L 284.586255 211.672739 
L 284.862988 212.364828 
L 285.133028 213.99147 
L 285.317336 211.372603 
L 285.77215 215.190779 
L 285.832476 210.324855 
L 286.070076 210.744768 
L 286.368448 210.266998 
L 286.606782 209.43998 
L 286.845055 207.868297 
L 287.142483 206.84135 
L 287.561729 212.196079 
L 287.858647 213.599075 
L 288.104074 211.731278 
L 288.336497 213.755863 
L 288.515818 209.692787 
L 288.811161 210.87962 
L 289.0502 209.793342 
L 289.354731 209.265897 
L 289.585603 212.619914 
L 289.83192 211.405583 
L 290.245131 208.201654 
L 290.599351 207.948204 
L 290.789814 208.909349 
L 291.076474 206.652718 
L 291.257943 209.06521 
L 291.567388 207.080037 
L 291.732865 208.231551 
L 291.972965 207.46325 
L 292.270209 209.784601 
L 292.507736 208.161489 
L 292.745936 208.21498 
L 293.24405 207.731284 
L 293.464715 208.542749 
L 293.820274 211.307394 
L 293.999205 208.61516 
L 294.237666 210.05392 
L 294.491675 207.552903 
L 294.717265 207.59117 
L 295.131549 203.54627 
L 295.250828 207.049348 
L 295.548755 204.523403 
L 295.72806 208.094877 
L 296.085114 207.137025 
L 296.263899 207.319368 
L 296.44426 204.973746 
L 296.681386 209.220688 
L 296.978824 209.968484 
L 297.18253 210.829549 
L 297.463618 209.086704 
L 297.756611 209.125368 
L 298.05391 208.308492 
L 298.233173 206.462676 
L 298.59037 206.295419 
L 298.889732 208.36481 
L 298.94823 207.649546 
L 299.186102 206.130125 
L 299.483957 205.888787 
L 299.66656 204.377313 
L 300.022783 204.085636 
L 300.199527 209.196092 
L 300.439009 206.225176 
L 300.633524 205.643503 
L 300.919244 205.678252 
L 301.294228 204.899312 
L 301.537546 204.662867 
L 301.705471 203.423215 
L 301.936626 208.272794 
L 302.175397 206.635073 
L 302.476748 210.201835 
L 302.951049 211.56038 
L 303.092979 211.022872 
L 303.567811 211.018878 
L 303.639314 210.878666 
L 303.92671 208.960449 
L 304.164771 211.892485 
L 304.345503 206.537161 
L 304.701274 206.656237 
L 304.880211 204.690123 
L 305.249083 201.874201 
L 305.419027 205.718191 
L 305.655187 205.700494 
L 306.012819 202.280384 
L 306.139247 204.576315 
L 306.727724 204.144858 
L 306.850138 226.248115 
L 307.205773 207.397823 
L 307.442992 185.350627 
L 307.873278 121.658635 
L 308.576388 98.965485 
L 308.875217 95.989938 
L 309.231579 94.310751 
L 309.654483 113.272686 
L 309.97169 135.09202 
L 310.332804 183.165581 
L 310.633065 194.883033 
L 310.747527 204.976862 
L 311.400781 211.387422 
L 311.698045 210.765304 
L 311.817602 211.270097 
L 311.996689 211.05375 
L 312.356427 206.369101 
L 312.832303 203.841723 
L 313.13539 201.053901 
L 313.252365 194.823739 
L 313.547978 192.714002 
L 313.78576 187.461309 
L 313.965634 187.570427 
L 314.262231 190.287736 
L 314.502307 194.87088 
L 314.739507 195.554274 
L 314.977825 198.931564 
L 315.221798 199.381853 
L 315.515565 196.510026 
L 315.994706 202.292527 
L 316.229508 204.909026 
L 316.477979 206.033062 
L 316.707552 205.766059 
L 316.947991 203.81176 
L 317.186041 203.220685 
L 317.601403 201.071011 
L 317.721248 199.082045 
L 318.14169 199.470773 
L 318.207171 197.30325 
L 318.439657 199.596734 
L 318.735586 200.362471 
L 319.270827 201.314296 
L 319.449551 202.775761 
L 319.688982 201.025844 
L 319.932083 201.60416 
L 320.168258 202.732413 
L 320.489863 201.63607 
L 320.879805 202.596907 
L 320.939453 200.564643 
L 321.178135 199.046291 
L 321.657726 195.02409 
L 321.894005 194.326578 
L 322.132975 192.705504 
L 322.431746 197.771639 
L 322.809316 198.333383 
L 322.912833 201.537931 
L 323.145837 204.421015 
L 323.382974 203.027837 
L 324.398794 210.854277 
L 324.694573 208.426973 
L 324.949923 207.721303 
L 325.435758 201.10679 
L 325.656319 200.335244 
L 326.125419 196.770403 
L 326.362898 196.289384 
L 326.661765 194.992674 
L 326.905221 196.076595 
L 327.140237 197.713435 
L 327.378917 197.66487 
L 327.863545 200.655686 
L 328.218592 198.969522 
L 328.400133 199.802128 
L 328.660435 200.186127 
L 328.868968 199.700356 
L 329.107151 200.114426 
L 329.347164 200.833905 
L 329.609418 199.663366 
L 329.822352 197.565471 
L 330.060978 197.850136 
L 330.300953 198.555372 
L 330.538426 200.301768 
L 331.074928 200.672115 
L 331.373954 202.470152 
L 331.554316 202.306781 
L 331.798858 200.058342 
L 332.18227 203.151053 
L 332.295591 201.577072 
L 332.581733 201.958953 
L 332.628794 202.230612 
L 332.92853 199.810621 
L 333.047548 202.144575 
L 333.463311 201.684691 
L 333.582644 201.958808 
L 334.059047 200.248104 
L 334.357228 202.63353 
L 334.535941 201.526055 
L 334.77428 200.969589 
L 335.012937 201.036213 
L 335.252504 199.740109 
L 335.554682 200.748251 
L 335.729332 200.164935 
L 336.027717 197.86378 
L 336.230047 198.056479 
L 336.503215 198.631187 
L 336.861694 201.161816 
L 337.001831 200.137312 
L 337.992974 203.222538 
L 338.472551 206.937041 
L 338.710939 206.908526 
L 339.018781 206.715565 
L 339.247031 206.318997 
L 339.430905 203.623174 
L 339.722419 204.951589 
L 340.024042 204.599913 
L 340.260765 202.107323 
L 340.438197 203.084755 
L 340.684382 200.39768 
L 340.974023 198.854399 
L 341.271095 199.315576 
L 341.450051 200.921832 
L 341.689226 201.955217 
L 342.108412 201.985769 
L 342.168521 201.595582 
L 342.663131 200.101981 
L 342.88779 201.479269 
L 343.240908 201.532965 
L 343.4796 202.760354 
L 343.777128 203.289612 
L 344.194534 197.658323 
L 344.492704 200.21643 
L 344.671035 200.535368 
L 344.969858 200.689617 
L 345.147753 200.146306 
L 345.50505 205.315749 
L 345.685682 203.349612 
L 345.98291 204.130698 
L 346.280825 202.927131 
L 346.400699 203.600995 
L 346.639131 206.137556 
L 346.995736 204.89293 
L 347.293581 204.957059 
L 347.414796 204.50681 
L 347.90535 201.145286 
L 348.12766 201.618981 
L 348.366669 199.627784 
L 349.200866 201.145225 
L 349.328861 202.600663 
L 349.630876 200.340018 
L 349.867889 199.80872 
L 350.333064 201.573646 
L 350.75242 201.767932 
L 350.869846 200.41877 
L 351.051582 201.870661 
L 351.405524 201.098297 
L 351.704821 200.117086 
L 351.837621 200.110111 
L 352.257007 200.40832 
L 352.364255 202.467349 
L 352.602357 203.03948 
L 352.840931 201.680345 
L 353.085691 201.329499 
L 353.377361 201.542026 
L 353.556137 200.854891 
L 353.860873 201.202248 
L 354.102425 202.490652 
L 354.392014 199.295802 
L 354.513693 202.067425 
L 354.766606 201.398317 
L 355.053003 203.226962 
L 355.299174 203.393851 
L 355.524582 204.08581 
L 355.823137 203.595071 
L 356.061582 201.409623 
L 356.300154 202.344412 
L 356.587689 204.20852 
L 356.84103 200.961985 
L 357.060947 202.003427 
L 357.259503 200.117291 
L 357.553871 201.19404 
L 357.935759 200.199012 
L 358.030653 200.600121 
L 358.56667 201.787043 
L 358.745127 200.926577 
L 358.983198 200.924704 
L 359.281135 199.132999 
L 359.579082 202.394514 
L 359.758066 202.505678 
L 360.067986 203.829343 
L 360.299199 201.025902 
L 360.59336 200.585163 
L 360.775144 201.184311 
L 360.950784 202.664185 
L 361.250702 202.93728 
L 361.485653 203.357326 
L 361.802473 202.302315 
L 361.965514 200.765647 
L 362.267185 203.373926 
L 362.56378 202.615172 
L 362.751305 202.709632 
L 362.98234 201.840805 
L 363.166856 200.485862 
L 363.459258 200.391725 
L 363.877807 198.742363 
L 363.998223 201.680058 
L 364.415589 200.934108 
L 364.652718 200.85105 
L 364.949815 201.971002 
L 365.192598 200.768754 
L 365.426635 200.817088 
L 365.665324 200.12431 
L 365.963078 199.771145 
L 366.210437 200.24963 
L 366.499074 202.130941 
L 366.860758 202.015698 
L 367.156433 200.58201 
L 367.57195 202.068917 
L 367.630692 197.395523 
L 367.993968 201.475802 
L 368.28706 202.740576 
L 368.34994 202.412178 
L 368.718009 201.342926 
L 368.883409 199.946756 
L 369.124034 200.89468 
L 369.478926 201.024017 
L 369.962816 204.387077 
L 370.138563 200.778631 
L 370.373408 201.87219 
L 370.791639 201.445837 
L 370.912759 201.835939 
L 371.091622 205.184509 
L 371.328585 205.075939 
L 371.60839 202.083876 
L 371.865734 201.563699 
L 372.343286 201.452466 
L 372.640846 203.085755 
L 372.820287 201.090344 
L 373.179091 201.334497 
L 373.41626 200.364047 
L 373.595093 200.702556 
L 373.952976 200.762851 
L 374.07202 201.797147 
L 374.609038 200.566218 
L 374.846922 199.512313 
L 375.204302 200.51286 
L 375.382483 202.382908 
L 375.807796 203.188741 
L 376.038677 201.540717 
L 376.278435 202.917517 
L 376.575768 201.773525 
L 376.754142 203.191058 
L 377.052278 203.391913 
L 377.290691 203.296727 
L 377.528772 203.512913 
L 377.767672 200.648605 
L 378.00534 199.412765 
L 378.245978 200.387783 
L 378.662013 202.56557 
L 378.779468 204.408712 
L 379.375279 201.62108 
L 379.619828 199.484298 
L 379.792441 201.796601 
L 380.209981 201.03739 
L 380.270583 202.21497 
L 380.509453 202.473508 
L 380.925624 201.368581 
L 381.045858 201.903099 
L 381.341659 197.205974 
L 381.998072 202.946698 
L 382.295311 202.77737 
L 382.47424 202.168727 
L 382.716196 200.909374 
L 383.310569 200.484809 
L 383.48901 201.133533 
L 383.846639 201.880847 
L 383.964934 203.430319 
L 384.204218 202.020343 
L 384.503733 198.652765 
L 384.920943 198.597404 
L 385.215894 198.940208 
L 385.594332 199.064854 
L 385.698914 199.22978 
L 385.931863 198.399956 
L 386.171585 201.155246 
L 386.651787 200.6259 
L 387.065347 203.207682 
L 387.28895 201.025011 
L 387.423292 202.325301 
L 387.899473 202.35013 
L 388.144691 201.988012 
L 388.435672 200.933593 
L 388.794039 200.743477 
L 388.913053 201.300735 
L 389.454942 199.153994 
L 389.688257 199.041804 
L 389.926507 198.057653 
L 390.106188 198.035856 
L 390.346918 198.198937 
L 390.643997 198.892165 
L 390.88036 200.097597 
L 391.118324 202.467961 
L 391.476629 201.751274 
L 391.65498 202.634021 
L 391.893379 203.123359 
L 392.131469 205.832089 
L 392.370282 205.481714 
L 393.02718 207.360673 
L 393.266841 207.440882 
L 393.504623 204.756454 
L 393.623643 206.653732 
L 394.102249 201.889398 
L 394.347746 201.585293 
L 394.637806 200.488827 
L 394.878295 198.018532 
L 395.114141 197.356923 
L 395.413015 197.950392 
L 395.592605 198.028425 
L 395.891188 196.60414 
L 396.068844 200.497396 
L 396.307135 199.858935 
L 396.843832 201.4593 
L 397.035122 199.407579 
L 397.271089 201.230293 
L 397.560051 202.00986 
L 398.040006 202.144504 
L 398.278812 203.311661 
L 398.585387 201.094711 
L 398.813169 203.079656 
L 399.022604 202.134462 
L 399.29018 201.555291 
L 399.531917 199.473343 
L 399.770136 201.031565 
L 400.064061 200.524794 
L 400.304813 200.791918 
L 400.600723 199.981272 
L 400.781613 196.985665 
L 401.018391 197.346868 
L 401.257493 200.683911 
L 401.498301 201.147278 
L 401.855322 202.427194 
L 402.035863 199.252042 
L 402.274007 201.924231 
L 402.555498 201.490264 
L 402.872188 200.267174 
L 403.108135 200.808364 
L 403.227222 196.830894 
L 403.466513 196.44605 
L 403.763847 199.204079 
L 404.243515 200.41733 
L 404.481874 202.701966 
L 404.780652 202.682818 
L 404.957902 202.942802 
L 405.257143 202.780977 
L 405.494709 201.875899 
L 405.733715 203.85569 
L 406.699843 197.378494 
L 407.094257 199.140687 
L 407.222319 197.544034 
L 407.75233 200.338274 
L 408.110181 201.565102 
L 408.171083 204.284353 
L 408.467786 203.310234 
L 408.947224 203.947791 
L 409.197164 203.610425 
L 409.60073 202.487778 
L 409.660698 201.773812 
L 409.959081 200.750724 
L 410.201427 200.52328 
L 410.442648 198.760148 
L 410.639771 199.803421 
L 410.914207 198.098767 
L 411.346681 199.654843 
L 411.394451 200.525545 
L 411.691964 201.061587 
L 412.109225 200.626367 
L 412.168443 200.738549 
L 412.407931 199.806075 
L 412.764168 199.957147 
L 412.942779 200.927993 
L 413.125083 200.893141 
L 413.361577 201.294951 
L 413.600064 199.816285 
L 414.139017 198.703079 
L 414.375515 197.075367 
L 414.612557 198.53123 
L 414.851628 198.886953 
L 415.330749 201.157966 
L 415.863312 201.701964 
L 415.871824 217.434059 
L 416.106461 202.065304 
L 416.462714 203.672889 
L 416.642489 203.098823 
L 416.889627 203.017501 
L 417.121838 201.948123 
L 417.478478 201.519272 
L 417.598079 202.12293 
L 417.782821 200.13982 
L 418.07455 199.081849 
L 418.552708 199.44955 
L 418.792555 199.279273 
L 419.212173 197.341425 
L 419.266786 201.707671 
L 419.625937 200.595904 
L 419.809527 201.420768 
L 420.04404 201.807362 
L 420.28297 202.508775 
L 420.702599 203.310443 
L 420.827577 204.472181 
L 421.082899 203.59668 
L 421.296666 205.687055 
L 421.54394 206.028315 
L 421.595588 204.476852 
L 421.83448 203.892107 
L 422.073909 205.270157 
L 422.256645 204.28321 
L 422.4934 203.845397 
L 422.788822 202.445298 
L 423.265582 197.292915 
L 423.74235 201.744922 
L 423.981822 202.335308 
L 424.412126 200.8742 
L 424.759483 202.391132 
L 424.995152 191.910783 
L 425.965544 212.369049 
L 426.458737 224.387619 
L 426.794478 226.644124 
L 427.101052 227.11006 
L 427.231531 227.01273 
L 427.51593 226.430894 
L 427.759176 227.66217 
L 428.052108 226.954263 
L 428.413673 219.136813 
L 428.836364 214.249206 
L 428.955581 207.466371 
L 429.18742 205.012629 
L 429.430516 204.055527 
L 429.801082 201.455664 
L 430.264799 200.592694 
L 430.499653 200.616532 
L 430.737766 201.859343 
L 431.038223 200.710629 
L 431.277655 203.634879 
L 431.728635 200.990326 
L 431.879912 201.311163 
L 432.145195 204.818203 
L 432.896991 206.895392 
L 433.246954 202.668265 
L 433.451223 202.164727 
L 433.665146 200.955564 
L 434.142742 203.74351 
L 434.623103 204.631833 
L 435.098089 206.650684 
L 435.634082 207.394066 
L 435.899155 208.588894 
L 436.113881 208.694222 
L 436.519588 206.407539 
L 436.757143 206.264246 
L 436.944495 204.795727 
L 437.174898 207.01401 
L 437.472864 201.78479 
L 437.65321 201.158293 
L 437.831465 201.158807 
L 438.430107 203.985726 
L 438.667106 204.213974 
L 438.84864 205.93249 
L 439.203743 207.771457 
L 439.32935 204.732002 
L 439.860506 207.034825 
L 440.09899 205.725034 
L 440.341029 205.766015 
L 440.819932 203.017803 
L 441.0549 203.22553 
L 441.293635 204.02784 
L 441.542392 201.561309 
L 441.775867 202.115878 
L 442.074838 200.661549 
L 442.262767 201.264109 
L 442.55229 201.387144 
L 442.790225 201.837971 
L 443.029689 203.168066 
L 443.80455 198.849636 
L 444.10157 198.779465 
L 444.57959 201.393831 
L 444.818019 204.724306 
L 445.063402 204.482882 
L 445.476694 206.41689 
L 445.714857 206.850305 
L 445.964215 209.408629 
L 446.250673 208.254076 
L 446.502345 208.257479 
L 446.735599 209.41062 
L 447.107182 207.242271 
L 447.270302 208.077127 
L 447.446819 205.007844 
L 447.771866 203.598779 
L 447.982701 205.639709 
L 448.403106 203.722264 
L 448.484627 204.259167 
L 448.709369 203.552794 
L 448.938227 205.285397 
L 449.177353 205.446993 
L 449.598835 204.28043 
L 449.788248 202.484432 
L 450.204405 205.600667 
L 450.621534 204.386169 
L 450.682193 206.088398 
L 451.338457 205.385432 
L 451.399986 205.746406 
L 451.813746 207.491572 
L 451.933234 204.848177 
L 452.173271 206.766709 
L 452.410237 206.248266 
L 452.82738 207.194641 
L 452.946775 206.314692 
L 453.185812 205.784118 
L 453.430029 204.545241 
L 453.484299 203.34676 
L 453.664483 203.613697 
L 453.901894 205.05712 
L 454.143047 201.592657 
L 454.438849 201.034611 
L 454.618697 201.930752 
L 454.938383 201.533305 
L 455.098633 199.890284 
L 455.397176 201.867421 
L 455.635167 198.896326 
L 455.877511 199.480649 
L 456.173359 198.423737 
L 456.591861 200.960182 
L 456.890144 200.777516 
L 457.076637 202.246684 
L 457.486093 202.528042 
L 457.633251 201.769972 
L 458.560843 203.213014 
L 459.107177 206.135384 
L 459.348289 205.523478 
L 459.646853 205.245523 
L 460.121119 206.309771 
L 460.300685 205.58104 
L 460.598908 206.553553 
L 460.836734 205.900191 
L 461.234538 205.588386 
L 461.381927 204.17333 
L 461.558545 205.304589 
L 462.091757 201.746195 
L 462.398666 202.768253 
L 462.568687 202.482381 
L 462.816983 203.912465 
L 463.179961 204.079493 
L 463.530871 205.059007 
L 463.765835 207.557491 
L 464.072889 208.826304 
L 464.320637 208.863462 
L 464.544218 209.474661 
L 464.781239 209.222354 
L 465.027317 209.728942 
L 465.79922 205.597496 
L 466.094286 205.306721 
L 466.273686 203.737617 
L 466.691576 204.570496 
L 467.037735 202.038728 
L 467.272469 202.048001 
L 467.505697 201.828545 
L 467.807763 199.995417 
L 467.992368 202.859375 
L 468.282927 202.951214 
L 468.587327 202.763004 
L 468.763154 205.684812 
L 468.953042 206.283209 
L 469.239085 206.258199 
L 469.716829 210.232097 
L 469.954561 210.678422 
L 470.193432 209.106525 
L 470.432962 212.328898 
L 470.849958 212.289562 
L 470.999092 209.784167 
L 471.387446 212.502487 
L 471.506328 210.948743 
L 471.744903 212.38554 
L 471.983362 211.187584 
L 472.281026 213.112535 
L 472.413238 212.880409 
L 472.672721 213.312138 
L 472.942737 215.980069 
L 473.237728 215.432589 
L 473.436374 216.15466 
L 473.65615 216.033762 
L 473.896837 213.839061 
L 474.276647 214.69866 
L 474.434755 214.438175 
L 474.670358 216.962562 
L 474.93836 215.274412 
L 475.231962 215.376811 
L 475.454667 215.019793 
L 475.749702 215.900003 
L 476.17761 213.667228 
L 476.433657 215.582123 
L 476.724539 214.497551 
L 476.846124 216.60864 
L 477.138377 214.638846 
L 477.436678 213.692259 
L 477.734773 214.311657 
L 477.854287 213.351283 
L 478.152176 213.886067 
L 478.398605 215.864778 
L 479.108222 211.084302 
L 479.885479 209.283035 
L 480.120828 208.04331 
L 480.359199 207.612789 
L 480.598725 206.053546 
L 480.844014 205.443175 
L 481.314748 203.665784 
L 481.674954 204.34001 
L 481.852016 205.09665 
L 482.092838 203.391707 
L 482.389213 204.01219 
L 482.925677 202.262132 
L 483.177819 201.86073 
L 483.344272 202.029682 
L 483.642591 201.70411 
L 483.880396 202.554952 
L 484.118891 202.557874 
L 484.321353 202.431247 
L 484.537252 202.464573 
L 484.839118 203.239786 
L 485.132073 202.223786 
L 485.378852 203.796576 
L 485.550787 204.01926 
L 485.791706 203.059749 
L 486.027845 203.800018 
L 486.760428 200.764545 
L 487.238515 200.69023 
L 487.29849 202.382634 
L 487.59631 201.423474 
L 488.018138 204.780443 
L 488.549642 206.959868 
L 488.730142 209.094377 
L 489.029062 208.252327 
L 489.504111 209.738627 
L 489.806894 210.646184 
L 490.044836 210.708987 
L 490.281663 213.333676 
L 490.568581 212.457171 
L 490.759547 212.539964 
L 490.96493 213.722564 
L 491.240308 214.099545 
L 491.584791 213.625152 
L 492.022035 216.228697 
L 492.259152 216.182271 
L 492.498084 217.338844 
L 492.974913 215.815894 
L 493.213871 216.899299 
L 493.750988 217.746359 
L 493.930682 215.599487 
L 494.246704 215.686074 
L 494.287781 215.061235 
L 494.466584 214.275579 
L 494.767831 217.121829 
L 495.063455 215.250369 
L 495.241894 215.306257 
L 495.722548 215.992409 
L 495.780352 217.0161 
L 495.958619 216.036504 
L 496.203305 215.784408 
L 496.396104 216.342742 
L 496.688782 216.6526 
L 496.91341 215.538126 
L 497.152993 216.546262 
L 497.510055 215.872332 
L 497.688907 213.693275 
L 497.867388 214.606939 
L 498.287595 212.717332 
L 498.345069 214.490961 
L 498.706986 214.019179 
L 498.949207 214.334051 
L 499.185459 213.641325 
L 499.657768 214.166669 
L 499.903543 214.020896 
L 500.207372 216.374684 
L 500.384257 215.609066 
L 500.630807 215.977871 
L 500.868873 215.20938 
L 501.112834 216.317538 
L 501.345532 216.078003 
L 501.643394 216.841291 
L 501.827858 214.890372 
L 502.122693 217.321078 
L 502.424592 213.628137 
L 502.65736 217.352743 
L 502.912868 217.645716 
L 503.136012 214.311363 
L 503.559477 216.378681 
L 503.61223 215.616893 
L 503.85067 216.987327 
L 504.268746 216.556651 
L 504.329146 217.025621 
L 504.569776 217.064539 
L 505.064641 218.229337 
L 505.369257 218.129346 
L 505.58343 219.217098 
L 505.840075 218.2983 
L 506.06122 218.848226 
L 506.300427 219.998095 
L 506.540169 217.218624 
L 506.852163 220.250247 
L 507.256581 217.196044 
L 507.31785 218.337774 
L 507.553063 217.171813 
L 508.03587 218.728308 
L 508.209039 218.780697 
L 508.340669 217.701707 
L 508.528018 218.424487 
L 508.885369 216.811713 
L 509.105985 217.577349 
L 509.327672 217.25004 
L 509.555939 217.115968 
L 510.037742 215.923765 
L 510.400013 211.512511 
L 510.559712 211.38554 
L 510.797028 209.30482 
L 511.15401 207.980921 
L 511.340183 208.004841 
L 511.515701 205.538556 
L 511.810668 204.647391 
L 512.117989 206.176159 
L 512.290623 206.375976 
L 512.589208 205.54812 
L 512.767601 207.375201 
L 513.025949 208.445736 
L 513.362767 208.870272 
L 513.49754 210.916691 
L 513.779272 212.812349 
L 514.077099 218.484391 
L 514.259399 215.062174 
L 514.496964 214.586186 
L 514.752703 212.077319 
L 515.03257 213.029793 
L 515.275201 211.155837 
L 515.51118 210.390234 
L 515.754742 212.083896 
L 516.001238 210.474209 
L 516.28825 210.49572 
L 516.904123 212.96939 
L 517.135326 215.318508 
L 517.481211 216.327268 
L 517.768534 215.325573 
L 518.018279 212.964095 
L 518.494558 210.790361 
L 518.5543 208.481081 
L 518.913059 206.213995 
L 519.040927 204.529904 
L 519.451688 202.269797 
L 519.953515 202.958661 
L 520.234489 207.918005 
L 520.528014 210.592912 
L 520.646156 213.262484 
L 520.951602 215.321787 
L 521.422505 216.761921 
L 521.548585 217.626123 
L 521.91975 218.13002 
L 522.143296 218.06605 
L 522.804201 214.241528 
L 522.922439 212.818464 
L 523.528141 212.861276 
L 523.705647 213.086744 
L 523.885174 213.073276 
L 524.301954 213.356863 
L 525.077207 216.824903 
L 525.258621 216.845694 
L 525.52018 215.698553 
L 525.638618 213.620602 
L 526.87331 203.206622 
L 527.36184 201.913711 
L 527.583954 202.557291 
L 527.882528 204.243551 
L 528.357895 208.450862 
L 529.142079 212.880881 
L 529.439494 213.504174 
L 529.616804 213.457945 
L 529.853886 212.751924 
L 530.163816 211.198922 
L 530.575888 207.561059 
L 530.879318 206.068842 
L 531.560797 204.218534 
L 531.825108 204.024261 
L 532.070001 204.213684 
L 532.361335 204.93448 
L 532.542685 206.096569 
L 533.077101 207.663091 
L 533.318201 207.631759 
L 533.793101 206.080339 
L 534.562343 203.376329 
L 535.121277 202.137523 
L 535.470202 201.985224 
L 536.250806 205.7628 
L 536.784755 208.001928 
L 537.023054 208.380042 
L 537.263401 208.298868 
L 538.814699 205.481096 
L 539.250751 205.387441 
L 539.353845 205.90181 
L 539.650513 206.73688 
L 539.828521 207.870384 
L 539.948755 209.43181 
L 540.424821 211.961312 
L 540.724427 212.712926 
L 540.966105 212.989272 
L 541.200217 212.674377 
L 541.916388 209.594153 
L 542.691117 205.855045 
L 543.406721 204.057271 
L 543.824918 204.31794 
L 544.133907 205.621081 
L 544.902401 206.494546 
L 545.374527 206.185471 
L 546.032965 205.109458 
L 546.153951 204.508578 
L 546.869418 203.484554 
L 547.169332 203.457148 
L 547.759634 204.420511 
L 548.621658 208.255557 
L 548.919091 209.204619 
L 549.575035 210.660174 
L 550.11367 211.701673 
L 550.4772 212.060239 
L 550.604416 212.350634 
L 551.096578 213.189226 
L 551.207723 214.48154 
L 552.07549 216.500285 
L 552.332945 216.492826 
L 552.612465 216.125355 
L 553.146703 214.192929 
L 553.56288 210.828216 
L 554.106053 209.171441 
L 554.582658 205.961986 
L 555.01708 204.205371 
L 555.313085 204.769441 
L 555.791207 206.582342 
L 556.516761 207.869671 
L 556.805571 208.114705 
L 557.179392 208.169965 
L 557.701423 206.94415 
L 557.824513 205.882403 
L 558.00337 205.316691 
L 558.240046 205.523216 
L 558.537158 206.462005 
L 559.791632 213.670282 
L 560.05369 214.932476 
L 560.445187 215.63598 
L 560.508561 216.073939 
L 560.746706 215.45269 
L 561.527183 210.981154 
L 561.704508 209.079039 
L 562.303909 206.097553 
L 562.542548 205.503115 
L 563.133461 205.930636 
L 563.194114 206.335773 
L 563.467597 206.49643 
L 563.817686 207.213136 
L 563.934282 208.460226 
L 564.949624 213.888819 
L 565.189427 214.067658 
L 565.492097 213.687549 
L 565.667759 212.95305 
L 566.155913 213.157014 
L 566.441811 212.791934 
L 566.980547 210.412058 
L 567.527469 209.015049 
L 568.427355 211.900804 
L 568.608239 211.22759 
L 568.904185 210.936533 
L 569.146754 211.491392 
L 569.444183 211.872972 
L 569.620489 211.548133 
L 570.457132 207.776971 
L 570.814208 208.094638 
L 571.051648 209.328779 
L 571.353011 211.675705 
L 571.588532 211.731903 
L 571.946887 211.65277 
L 572.19284 211.949916 
L 572.366467 212.95523 
L 572.689107 213.390229 
L 573.344611 210.963421 
L 573.638937 210.681926 
L 574.070009 210.820981 
L 574.592297 209.950157 
L 574.831118 209.826191 
L 575.141361 210.143814 
L 575.30771 210.778901 
L 575.668718 210.562515 
L 575.804732 210.213127 
L 576.323141 210.357472 
L 576.624525 210.989075 
L 577.157281 213.216252 
L 577.57543 212.951732 
L 577.99304 211.505139 
L 578.528892 212.021429 
L 579.424829 207.692341 
L 579.545654 207.620607 
L 580.077802 210.221261 
L 580.256588 211.95311 
L 580.796406 213.275168 
L 581.09442 213.307581 
L 581.273096 213.046144 
L 581.513255 213.066213 
L 581.988926 212.522627 
L 582.28719 211.287588 
L 582.765615 208.90554 
L 583.183897 208.966988 
L 583.249581 209.429785 
L 583.487398 210.225443 
L 583.838708 210.527511 
L 584.201953 211.22301 
L 584.735588 211.174973 
L 585.282242 211.413798 
L 585.57861 211.254658 
L 585.99516 209.370596 
L 586.236852 209.682696 
L 586.890024 209.27068 
L 587.130374 209.900927 
L 587.250206 210.817505 
L 587.426561 210.919681 
L 587.675567 210.744395 
L 587.903073 210.046628 
L 588.147753 209.673196 
L 588.500645 210.144788 
L 588.679453 210.931249 
L 588.931618 211.3302 
L 589.157686 210.939264 
L 589.632768 209.488552 
L 589.90017 209.371619 
L 590.140313 209.419481 
L 590.140313 209.419481 
" clip-path="url(#pd98f6323f5)" style="fill: none; stroke: #ff0000; stroke-opacity: 0.7; stroke-width: 1.5; stroke-linecap: square"/>
   </g>
   <g id="patch_3">
    <path d="M 32.140313 277.92 
L 32.140313 0.72 
" style="fill: none; stroke: #000000; stroke-width: 0.8; stroke-linejoin: miter; stroke-linecap: square"/>
   </g>
   <g id="patch_4">
    <path d="M 590.140313 277.92 
L 590.140313 0.72 
" style="fill: none; stroke: #000000; stroke-width: 0.8; stroke-linejoin: miter; stroke-linecap: square"/>
   </g>
   <g id="patch_5">
    <path d="M 32.140313 277.92 
L 590.140313 277.92 
" style="fill: none; stroke: #000000; stroke-width: 0.8; stroke-linejoin: miter; stroke-linecap: square"/>
   </g>
   <g id="patch_6">
    <path d="M 32.140313 0.72 
L 590.140313 0.72 
" style="fill: none; stroke: #000000; stroke-width: 0.8; stroke-linejoin: miter; stroke-linecap: square"/>
   </g>
   <g id="legend_1">
    <g id="patch_7">
     <path d="M 509.371562 38.07625 
L 583.140312 38.07625 
Q 585.140312 38.07625 585.140312 36.07625 
L 585.140312 7.72 
Q 585.140312 5.72 583.140312 5.72 
L 509.371562 5.72 
Q 507.371562 5.72 507.371562 7.72 
L 507.371562 36.07625 
Q 507.371562 38.07625 509.371562 38.07625 
z
" style="fill: #ffffff; opacity: 0.8; stroke: #cccccc; stroke-linejoin: miter"/>
    </g>
    <g id="line2d_31">
     <path d="M 511.371562 13.818438 
L 521.371562 13.818438 
L 531.371562 13.818438 
" style="fill: none; stroke: #0000ff; stroke-opacity: 0.7; stroke-width: 1.5; stroke-linecap: square"/>
    </g>
    <g id="text_17">
     <!-- RNEA -->
     <g transform="translate(539.371562 17.318438) scale(0.1 -0.1)">
      <defs>
       <path id="DejaVuSans-52" d="M 2841 2188 
Q 3044 2119 3236 1894 
Q 3428 1669 3622 1275 
L 4263 0 
L 3584 0 
L 2988 1197 
Q 2756 1666 2539 1819 
Q 2322 1972 1947 1972 
L 1259 1972 
L 1259 0 
L 628 0 
L 628 4666 
L 2053 4666 
Q 2853 4666 3247 4331 
Q 3641 3997 3641 3322 
Q 3641 2881 3436 2590 
Q 3231 2300 2841 2188 
z
M 1259 4147 
L 1259 2491 
L 2053 2491 
Q 2509 2491 2742 2702 
Q 2975 2913 2975 3322 
Q 2975 3731 2742 3939 
Q 2509 4147 2053 4147 
L 1259 4147 
z
" transform="scale(0.015625)"/>
       <path id="DejaVuSans-45" d="M 628 4666 
L 3578 4666 
L 3578 4134 
L 1259 4134 
L 1259 2753 
L 3481 2753 
L 3481 2222 
L 1259 2222 
L 1259 531 
L 3634 531 
L 3634 0 
L 628 0 
L 628 4666 
z
" transform="scale(0.015625)"/>
       <path id="DejaVuSans-41" d="M 2188 4044 
L 1331 1722 
L 3047 1722 
L 2188 4044 
z
M 1831 4666 
L 2547 4666 
L 4325 0 
L 3669 0 
L 3244 1197 
L 1141 1197 
L 716 0 
L 50 0 
L 1831 4666 
z
" transform="scale(0.015625)"/>
      </defs>
      <use xlink:href="#DejaVuSans-52"/>
      <use xlink:href="#DejaVuSans-4e" x="69.482422"/>
      <use xlink:href="#DejaVuSans-45" x="144.287109"/>
      <use xlink:href="#DejaVuSans-41" x="207.470703"/>
     </g>
    </g>
    <g id="line2d_32">
     <path d="M 511.371562 28.496563 
L 521.371562 28.496563 
L 531.371562 28.496563 
" style="fill: none; stroke: #ff0000; stroke-opacity: 0.7; stroke-width: 1.5; stroke-linecap: square"/>
    </g>
    <g id="text_18">
     <!-- BURNEA -->
     <g transform="translate(539.371562 31.996563) scale(0.1 -0.1)">
      <defs>
       <path id="DejaVuSans-42" d="M 1259 2228 
L 1259 519 
L 2272 519 
Q 2781 519 3026 730 
Q 3272 941 3272 1375 
Q 3272 1813 3026 2020 
Q 2781 2228 2272 2228 
L 1259 2228 
z
M 1259 4147 
L 1259 2741 
L 2194 2741 
Q 2656 2741 2882 2914 
Q 3109 3088 3109 3444 
Q 3109 3797 2882 3972 
Q 2656 4147 2194 4147 
L 1259 4147 
z
M 628 4666 
L 2241 4666 
Q 2963 4666 3353 4366 
Q 3744 4066 3744 3513 
Q 3744 3084 3544 2831 
Q 3344 2578 2956 2516 
Q 3422 2416 3680 2098 
Q 3938 1781 3938 1306 
Q 3938 681 3513 340 
Q 3088 0 2303 0 
L 628 0 
L 628 4666 
z
" transform="scale(0.015625)"/>
       <path id="DejaVuSans-55" d="M 556 4666 
L 1191 4666 
L 1191 1831 
Q 1191 1081 1462 751 
Q 1734 422 2344 422 
Q 2950 422 3222 751 
Q 3494 1081 3494 1831 
L 3494 4666 
L 4128 4666 
L 4128 1753 
Q 4128 841 3676 375 
Q 3225 -91 2344 -91 
Q 1459 -91 1007 375 
Q 556 841 556 1753 
L 556 4666 
z
" transform="scale(0.015625)"/>
      </defs>
      <use xlink:href="#DejaVuSans-42"/>
      <use xlink:href="#DejaVuSans-55" x="68.603516"/>
      <use xlink:href="#DejaVuSans-52" x="141.796875"/>
      <use xlink:href="#DejaVuSans-4e" x="211.279297"/>
      <use xlink:href="#DejaVuSans-45" x="286.083984"/>
      <use xlink:href="#DejaVuSans-41" x="349.267578"/>
     </g>
    </g>
   </g>
  </g>
 </g>
 <defs>
  <clipPath id="pd98f6323f5">
   <rect x="32.140313" y="0.72" width="558" height="277.2"/>
  </clipPath>
 </defs>
</svg>
