<?xml version="1.0" encoding="utf-8" standalone="no"?>
<!DOCTYPE svg PUBLIC "-//W3C//DTD SVG 1.1//EN"
  "http://www.w3.org/Graphics/SVG/1.1/DTD/svg11.dtd">
<svg xmlns:xlink="http://www.w3.org/1999/xlink" width="597.222813pt" height="304.99625pt" viewBox="0 0 597.222813 304.99625" xmlns="http://www.w3.org/2000/svg" version="1.1">
 <metadata>
  <rdf:RDF xmlns:dc="http://purl.org/dc/elements/1.1/" xmlns:cc="http://creativecommons.org/ns#" xmlns:rdf="http://www.w3.org/1999/02/22-rdf-syntax-ns#">
   <cc:Work>
    <dc:type rdf:resource="http://purl.org/dc/dcmitype/StillImage"/>
    <dc:date>2023-09-05T22:08:39.856057</dc:date>
    <dc:format>image/svg+xml</dc:format>
    <dc:creator>
     <cc:Agent>
      <dc:title>Matplotlib v3.7.2, https://matplotlib.org/</dc:title>
     </cc:Agent>
    </dc:creator>
   </cc:Work>
  </rdf:RDF>
 </metadata>
 <defs>
  <style type="text/css">*{stroke-linejoin: round; stroke-linecap: butt}</style>
 </defs>
 <g id="figure_1">
  <g id="patch_1">
   <path d="M -0 304.99625 
L 597.222813 304.99625 
L 597.222813 0 
L -0 0 
L -0 304.99625 
z
" style="fill: none"/>
  </g>
  <g id="axes_1">
   <g id="patch_2">
    <path d="M 38.502813 277.92 
L 596.502813 277.92 
L 596.502813 0.72 
L 38.502813 0.72 
L 38.502813 277.92 
z
" style="fill: none"/>
   </g>
   <g id="matplotlib.axis_1">
    <g id="xtick_1">
     <g id="line2d_1">
      <path d="M 38.502813 277.92 
L 38.502813 0.72 
" clip-path="url(#p760c7a5fc2)" style="fill: none; stroke-dasharray: 0.8,1.32; stroke-dashoffset: 0; stroke: #000000; stroke-opacity: 0.5; stroke-width: 0.8"/>
     </g>
     <g id="line2d_2">
      <defs>
       <path id="md9fe706ce2" d="M 0 0 
L 0 3.5 
" style="stroke: #000000; stroke-width: 0.8"/>
      </defs>
      <g>
       <use xlink:href="#md9fe706ce2" x="38.502813" y="277.92" style="stroke: #000000; stroke-width: 0.8"/>
      </g>
     </g>
     <g id="text_1">
      <!-- 0.0 -->
      <g transform="translate(30.55125 292.518438) scale(0.1 -0.1)">
       <defs>
        <path id="DejaVuSans-30" d="M 2034 4250 
Q 1547 4250 1301 3770 
Q 1056 3291 1056 2328 
Q 1056 1369 1301 889 
Q 1547 409 2034 409 
Q 2525 409 2770 889 
Q 3016 1369 3016 2328 
Q 3016 3291 2770 3770 
Q 2525 4250 2034 4250 
z
M 2034 4750 
Q 2819 4750 3233 4129 
Q 3647 3509 3647 2328 
Q 3647 1150 3233 529 
Q 2819 -91 2034 -91 
Q 1250 -91 836 529 
Q 422 1150 422 2328 
Q 422 3509 836 4129 
Q 1250 4750 2034 4750 
z
" transform="scale(0.015625)"/>
        <path id="DejaVuSans-2e" d="M 684 794 
L 1344 794 
L 1344 0 
L 684 0 
L 684 794 
z
" transform="scale(0.015625)"/>
       </defs>
       <use xlink:href="#DejaVuSans-30"/>
       <use xlink:href="#DejaVuSans-2e" x="63.623047"/>
       <use xlink:href="#DejaVuSans-30" x="95.410156"/>
      </g>
     </g>
    </g>
    <g id="xtick_2">
     <g id="line2d_3">
      <path d="M 112.654137 277.92 
L 112.654137 0.72 
" clip-path="url(#p760c7a5fc2)" style="fill: none; stroke-dasharray: 0.8,1.32; stroke-dashoffset: 0; stroke: #000000; stroke-opacity: 0.5; stroke-width: 0.8"/>
     </g>
     <g id="line2d_4">
      <g>
       <use xlink:href="#md9fe706ce2" x="112.654137" y="277.92" style="stroke: #000000; stroke-width: 0.8"/>
      </g>
     </g>
     <g id="text_2">
      <!-- 2.5 -->
      <g transform="translate(104.702575 292.518438) scale(0.1 -0.1)">
       <defs>
        <path id="DejaVuSans-32" d="M 1228 531 
L 3431 531 
L 3431 0 
L 469 0 
L 469 531 
Q 828 903 1448 1529 
Q 2069 2156 2228 2338 
Q 2531 2678 2651 2914 
Q 2772 3150 2772 3378 
Q 2772 3750 2511 3984 
Q 2250 4219 1831 4219 
Q 1534 4219 1204 4116 
Q 875 4013 500 3803 
L 500 4441 
Q 881 4594 1212 4672 
Q 1544 4750 1819 4750 
Q 2544 4750 2975 4387 
Q 3406 4025 3406 3419 
Q 3406 3131 3298 2873 
Q 3191 2616 2906 2266 
Q 2828 2175 2409 1742 
Q 1991 1309 1228 531 
z
" transform="scale(0.015625)"/>
        <path id="DejaVuSans-35" d="M 691 4666 
L 3169 4666 
L 3169 4134 
L 1269 4134 
L 1269 2991 
Q 1406 3038 1543 3061 
Q 1681 3084 1819 3084 
Q 2600 3084 3056 2656 
Q 3513 2228 3513 1497 
Q 3513 744 3044 326 
Q 2575 -91 1722 -91 
Q 1428 -91 1123 -41 
Q 819 9 494 109 
L 494 744 
Q 775 591 1075 516 
Q 1375 441 1709 441 
Q 2250 441 2565 725 
Q 2881 1009 2881 1497 
Q 2881 1984 2565 2268 
Q 2250 2553 1709 2553 
Q 1456 2553 1204 2497 
Q 953 2441 691 2322 
L 691 4666 
z
" transform="scale(0.015625)"/>
       </defs>
       <use xlink:href="#DejaVuSans-32"/>
       <use xlink:href="#DejaVuSans-2e" x="63.623047"/>
       <use xlink:href="#DejaVuSans-35" x="95.410156"/>
      </g>
     </g>
    </g>
    <g id="xtick_3">
     <g id="line2d_5">
      <path d="M 186.805462 277.92 
L 186.805462 0.72 
" clip-path="url(#p760c7a5fc2)" style="fill: none; stroke-dasharray: 0.8,1.32; stroke-dashoffset: 0; stroke: #000000; stroke-opacity: 0.5; stroke-width: 0.8"/>
     </g>
     <g id="line2d_6">
      <g>
       <use xlink:href="#md9fe706ce2" x="186.805462" y="277.92" style="stroke: #000000; stroke-width: 0.8"/>
      </g>
     </g>
     <g id="text_3">
      <!-- 5.0 -->
      <g transform="translate(178.8539 292.518438) scale(0.1 -0.1)">
       <use xlink:href="#DejaVuSans-35"/>
       <use xlink:href="#DejaVuSans-2e" x="63.623047"/>
       <use xlink:href="#DejaVuSans-30" x="95.410156"/>
      </g>
     </g>
    </g>
    <g id="xtick_4">
     <g id="line2d_7">
      <path d="M 260.956787 277.92 
L 260.956787 0.72 
" clip-path="url(#p760c7a5fc2)" style="fill: none; stroke-dasharray: 0.8,1.32; stroke-dashoffset: 0; stroke: #000000; stroke-opacity: 0.5; stroke-width: 0.8"/>
     </g>
     <g id="line2d_8">
      <g>
       <use xlink:href="#md9fe706ce2" x="260.956787" y="277.92" style="stroke: #000000; stroke-width: 0.8"/>
      </g>
     </g>
     <g id="text_4">
      <!-- 7.5 -->
      <g transform="translate(253.005225 292.518438) scale(0.1 -0.1)">
       <defs>
        <path id="DejaVuSans-37" d="M 525 4666 
L 3525 4666 
L 3525 4397 
L 1831 0 
L 1172 0 
L 2766 4134 
L 525 4134 
L 525 4666 
z
" transform="scale(0.015625)"/>
       </defs>
       <use xlink:href="#DejaVuSans-37"/>
       <use xlink:href="#DejaVuSans-2e" x="63.623047"/>
       <use xlink:href="#DejaVuSans-35" x="95.410156"/>
      </g>
     </g>
    </g>
    <g id="xtick_5">
     <g id="line2d_9">
      <path d="M 335.108112 277.92 
L 335.108112 0.72 
" clip-path="url(#p760c7a5fc2)" style="fill: none; stroke-dasharray: 0.8,1.32; stroke-dashoffset: 0; stroke: #000000; stroke-opacity: 0.5; stroke-width: 0.8"/>
     </g>
     <g id="line2d_10">
      <g>
       <use xlink:href="#md9fe706ce2" x="335.108112" y="277.92" style="stroke: #000000; stroke-width: 0.8"/>
      </g>
     </g>
     <g id="text_5">
      <!-- 10.0 -->
      <g transform="translate(323.9753 292.518438) scale(0.1 -0.1)">
       <defs>
        <path id="DejaVuSans-31" d="M 794 531 
L 1825 531 
L 1825 4091 
L 703 3866 
L 703 4441 
L 1819 4666 
L 2450 4666 
L 2450 531 
L 3481 531 
L 3481 0 
L 794 0 
L 794 531 
z
" transform="scale(0.015625)"/>
       </defs>
       <use xlink:href="#DejaVuSans-31"/>
       <use xlink:href="#DejaVuSans-30" x="63.623047"/>
       <use xlink:href="#DejaVuSans-2e" x="127.246094"/>
       <use xlink:href="#DejaVuSans-30" x="159.033203"/>
      </g>
     </g>
    </g>
    <g id="xtick_6">
     <g id="line2d_11">
      <path d="M 409.259437 277.92 
L 409.259437 0.72 
" clip-path="url(#p760c7a5fc2)" style="fill: none; stroke-dasharray: 0.8,1.32; stroke-dashoffset: 0; stroke: #000000; stroke-opacity: 0.5; stroke-width: 0.8"/>
     </g>
     <g id="line2d_12">
      <g>
       <use xlink:href="#md9fe706ce2" x="409.259437" y="277.92" style="stroke: #000000; stroke-width: 0.8"/>
      </g>
     </g>
     <g id="text_6">
      <!-- 12.5 -->
      <g transform="translate(398.126625 292.518438) scale(0.1 -0.1)">
       <use xlink:href="#DejaVuSans-31"/>
       <use xlink:href="#DejaVuSans-32" x="63.623047"/>
       <use xlink:href="#DejaVuSans-2e" x="127.246094"/>
       <use xlink:href="#DejaVuSans-35" x="159.033203"/>
      </g>
     </g>
    </g>
    <g id="xtick_7">
     <g id="line2d_13">
      <path d="M 483.410762 277.92 
L 483.410762 0.72 
" clip-path="url(#p760c7a5fc2)" style="fill: none; stroke-dasharray: 0.8,1.32; stroke-dashoffset: 0; stroke: #000000; stroke-opacity: 0.5; stroke-width: 0.8"/>
     </g>
     <g id="line2d_14">
      <g>
       <use xlink:href="#md9fe706ce2" x="483.410762" y="277.92" style="stroke: #000000; stroke-width: 0.8"/>
      </g>
     </g>
     <g id="text_7">
      <!-- 15.0 -->
      <g transform="translate(472.27795 292.518438) scale(0.1 -0.1)">
       <use xlink:href="#DejaVuSans-31"/>
       <use xlink:href="#DejaVuSans-35" x="63.623047"/>
       <use xlink:href="#DejaVuSans-2e" x="127.246094"/>
       <use xlink:href="#DejaVuSans-30" x="159.033203"/>
      </g>
     </g>
    </g>
    <g id="xtick_8">
     <g id="line2d_15">
      <path d="M 557.562087 277.92 
L 557.562087 0.72 
" clip-path="url(#p760c7a5fc2)" style="fill: none; stroke-dasharray: 0.8,1.32; stroke-dashoffset: 0; stroke: #000000; stroke-opacity: 0.5; stroke-width: 0.8"/>
     </g>
     <g id="line2d_16">
      <g>
       <use xlink:href="#md9fe706ce2" x="557.562087" y="277.92" style="stroke: #000000; stroke-width: 0.8"/>
      </g>
     </g>
     <g id="text_8">
      <!-- 17.5 -->
      <g transform="translate(546.429274 292.518438) scale(0.1 -0.1)">
       <use xlink:href="#DejaVuSans-31"/>
       <use xlink:href="#DejaVuSans-37" x="63.623047"/>
       <use xlink:href="#DejaVuSans-2e" x="127.246094"/>
       <use xlink:href="#DejaVuSans-35" x="159.033203"/>
      </g>
     </g>
    </g>
    <g id="text_9">
     <!-- Zeit [s] -->
     <g transform="translate(299.556719 302.196563) scale(0.1 -0.1)">
      <defs>
       <path id="DejaVuSans-5a" d="M 359 4666 
L 4025 4666 
L 4025 4184 
L 1075 531 
L 4097 531 
L 4097 0 
L 288 0 
L 288 481 
L 3238 4134 
L 359 4134 
L 359 4666 
z
" transform="scale(0.015625)"/>
       <path id="DejaVuSans-65" d="M 3597 1894 
L 3597 1613 
L 953 1613 
Q 991 1019 1311 708 
Q 1631 397 2203 397 
Q 2534 397 2845 478 
Q 3156 559 3463 722 
L 3463 178 
Q 3153 47 2828 -22 
Q 2503 -91 2169 -91 
Q 1331 -91 842 396 
Q 353 884 353 1716 
Q 353 2575 817 3079 
Q 1281 3584 2069 3584 
Q 2775 3584 3186 3129 
Q 3597 2675 3597 1894 
z
M 3022 2063 
Q 3016 2534 2758 2815 
Q 2500 3097 2075 3097 
Q 1594 3097 1305 2825 
Q 1016 2553 972 2059 
L 3022 2063 
z
" transform="scale(0.015625)"/>
       <path id="DejaVuSans-69" d="M 603 3500 
L 1178 3500 
L 1178 0 
L 603 0 
L 603 3500 
z
M 603 4863 
L 1178 4863 
L 1178 4134 
L 603 4134 
L 603 4863 
z
" transform="scale(0.015625)"/>
       <path id="DejaVuSans-74" d="M 1172 4494 
L 1172 3500 
L 2356 3500 
L 2356 3053 
L 1172 3053 
L 1172 1153 
Q 1172 725 1289 603 
Q 1406 481 1766 481 
L 2356 481 
L 2356 0 
L 1766 0 
Q 1100 0 847 248 
Q 594 497 594 1153 
L 594 3053 
L 172 3053 
L 172 3500 
L 594 3500 
L 594 4494 
L 1172 4494 
z
" transform="scale(0.015625)"/>
       <path id="DejaVuSans-20" transform="scale(0.015625)"/>
       <path id="DejaVuSans-5b" d="M 550 4863 
L 1875 4863 
L 1875 4416 
L 1125 4416 
L 1125 -397 
L 1875 -397 
L 1875 -844 
L 550 -844 
L 550 4863 
z
" transform="scale(0.015625)"/>
       <path id="DejaVuSans-73" d="M 2834 3397 
L 2834 2853 
Q 2591 2978 2328 3040 
Q 2066 3103 1784 3103 
Q 1356 3103 1142 2972 
Q 928 2841 928 2578 
Q 928 2378 1081 2264 
Q 1234 2150 1697 2047 
L 1894 2003 
Q 2506 1872 2764 1633 
Q 3022 1394 3022 966 
Q 3022 478 2636 193 
Q 2250 -91 1575 -91 
Q 1294 -91 989 -36 
Q 684 19 347 128 
L 347 722 
Q 666 556 975 473 
Q 1284 391 1588 391 
Q 1994 391 2212 530 
Q 2431 669 2431 922 
Q 2431 1156 2273 1281 
Q 2116 1406 1581 1522 
L 1381 1569 
Q 847 1681 609 1914 
Q 372 2147 372 2553 
Q 372 3047 722 3315 
Q 1072 3584 1716 3584 
Q 2034 3584 2315 3537 
Q 2597 3491 2834 3397 
z
" transform="scale(0.015625)"/>
       <path id="DejaVuSans-5d" d="M 1947 4863 
L 1947 -844 
L 622 -844 
L 622 -397 
L 1369 -397 
L 1369 4416 
L 622 4416 
L 622 4863 
L 1947 4863 
z
" transform="scale(0.015625)"/>
      </defs>
      <use xlink:href="#DejaVuSans-5a"/>
      <use xlink:href="#DejaVuSans-65" x="68.505859"/>
      <use xlink:href="#DejaVuSans-69" x="130.029297"/>
      <use xlink:href="#DejaVuSans-74" x="157.8125"/>
      <use xlink:href="#DejaVuSans-20" x="197.021484"/>
      <use xlink:href="#DejaVuSans-5b" x="228.808594"/>
      <use xlink:href="#DejaVuSans-73" x="267.822266"/>
      <use xlink:href="#DejaVuSans-5d" x="319.921875"/>
     </g>
    </g>
   </g>
   <g id="matplotlib.axis_2">
    <g id="ytick_1">
     <g id="line2d_17">
      <path d="M 38.502813 258.31325 
L 596.502813 258.31325 
" clip-path="url(#p760c7a5fc2)" style="fill: none; stroke-dasharray: 0.8,1.32; stroke-dashoffset: 0; stroke: #000000; stroke-opacity: 0.5; stroke-width: 0.8"/>
     </g>
     <g id="line2d_18">
      <defs>
       <path id="m4992506ebc" d="M 0 0 
L -3.5 0 
" style="stroke: #000000; stroke-width: 0.8"/>
      </defs>
      <g>
       <use xlink:href="#m4992506ebc" x="38.502813" y="258.31325" style="stroke: #000000; stroke-width: 0.8"/>
      </g>
     </g>
     <g id="text_10">
      <!-- −25 -->
      <g transform="translate(10.398125 262.112469) scale(0.1 -0.1)">
       <defs>
        <path id="DejaVuSans-2212" d="M 678 2272 
L 4684 2272 
L 4684 1741 
L 678 1741 
L 678 2272 
z
" transform="scale(0.015625)"/>
       </defs>
       <use xlink:href="#DejaVuSans-2212"/>
       <use xlink:href="#DejaVuSans-32" x="83.789062"/>
       <use xlink:href="#DejaVuSans-35" x="147.412109"/>
      </g>
     </g>
    </g>
    <g id="ytick_2">
     <g id="line2d_19">
      <path d="M 38.502813 211.315701 
L 596.502813 211.315701 
" clip-path="url(#p760c7a5fc2)" style="fill: none; stroke-dasharray: 0.8,1.32; stroke-dashoffset: 0; stroke: #000000; stroke-opacity: 0.5; stroke-width: 0.8"/>
     </g>
     <g id="line2d_20">
      <g>
       <use xlink:href="#m4992506ebc" x="38.502813" y="211.315701" style="stroke: #000000; stroke-width: 0.8"/>
      </g>
     </g>
     <g id="text_11">
      <!-- −20 -->
      <g transform="translate(10.398125 215.11492) scale(0.1 -0.1)">
       <use xlink:href="#DejaVuSans-2212"/>
       <use xlink:href="#DejaVuSans-32" x="83.789062"/>
       <use xlink:href="#DejaVuSans-30" x="147.412109"/>
      </g>
     </g>
    </g>
    <g id="ytick_3">
     <g id="line2d_21">
      <path d="M 38.502813 164.318152 
L 596.502813 164.318152 
" clip-path="url(#p760c7a5fc2)" style="fill: none; stroke-dasharray: 0.8,1.32; stroke-dashoffset: 0; stroke: #000000; stroke-opacity: 0.5; stroke-width: 0.8"/>
     </g>
     <g id="line2d_22">
      <g>
       <use xlink:href="#m4992506ebc" x="38.502813" y="164.318152" style="stroke: #000000; stroke-width: 0.8"/>
      </g>
     </g>
     <g id="text_12">
      <!-- −15 -->
      <g transform="translate(10.398125 168.117371) scale(0.1 -0.1)">
       <use xlink:href="#DejaVuSans-2212"/>
       <use xlink:href="#DejaVuSans-31" x="83.789062"/>
       <use xlink:href="#DejaVuSans-35" x="147.412109"/>
      </g>
     </g>
    </g>
    <g id="ytick_4">
     <g id="line2d_23">
      <path d="M 38.502813 117.320603 
L 596.502813 117.320603 
" clip-path="url(#p760c7a5fc2)" style="fill: none; stroke-dasharray: 0.8,1.32; stroke-dashoffset: 0; stroke: #000000; stroke-opacity: 0.5; stroke-width: 0.8"/>
     </g>
     <g id="line2d_24">
      <g>
       <use xlink:href="#m4992506ebc" x="38.502813" y="117.320603" style="stroke: #000000; stroke-width: 0.8"/>
      </g>
     </g>
     <g id="text_13">
      <!-- −10 -->
      <g transform="translate(10.398125 121.119822) scale(0.1 -0.1)">
       <use xlink:href="#DejaVuSans-2212"/>
       <use xlink:href="#DejaVuSans-31" x="83.789062"/>
       <use xlink:href="#DejaVuSans-30" x="147.412109"/>
      </g>
     </g>
    </g>
    <g id="ytick_5">
     <g id="line2d_25">
      <path d="M 38.502813 70.323054 
L 596.502813 70.323054 
" clip-path="url(#p760c7a5fc2)" style="fill: none; stroke-dasharray: 0.8,1.32; stroke-dashoffset: 0; stroke: #000000; stroke-opacity: 0.5; stroke-width: 0.8"/>
     </g>
     <g id="line2d_26">
      <g>
       <use xlink:href="#m4992506ebc" x="38.502813" y="70.323054" style="stroke: #000000; stroke-width: 0.8"/>
      </g>
     </g>
     <g id="text_14">
      <!-- −5 -->
      <g transform="translate(16.760625 74.122273) scale(0.1 -0.1)">
       <use xlink:href="#DejaVuSans-2212"/>
       <use xlink:href="#DejaVuSans-35" x="83.789062"/>
      </g>
     </g>
    </g>
    <g id="ytick_6">
     <g id="line2d_27">
      <path d="M 38.502813 23.325505 
L 596.502813 23.325505 
" clip-path="url(#p760c7a5fc2)" style="fill: none; stroke-dasharray: 0.8,1.32; stroke-dashoffset: 0; stroke: #000000; stroke-opacity: 0.5; stroke-width: 0.8"/>
     </g>
     <g id="line2d_28">
      <g>
       <use xlink:href="#m4992506ebc" x="38.502813" y="23.325505" style="stroke: #000000; stroke-width: 0.8"/>
      </g>
     </g>
     <g id="text_15">
      <!-- 0 -->
      <g transform="translate(25.140313 27.124724) scale(0.1 -0.1)">
       <use xlink:href="#DejaVuSans-30"/>
      </g>
     </g>
    </g>
    <g id="text_16">
     <!-- Drehmoment [Nm] -->
     <g transform="translate(8.318438 186.465313) rotate(-90) scale(0.1 -0.1)">
      <defs>
       <path id="DejaVuSans-44" d="M 1259 4147 
L 1259 519 
L 2022 519 
Q 2988 519 3436 956 
Q 3884 1394 3884 2338 
Q 3884 3275 3436 3711 
Q 2988 4147 2022 4147 
L 1259 4147 
z
M 628 4666 
L 1925 4666 
Q 3281 4666 3915 4102 
Q 4550 3538 4550 2338 
Q 4550 1131 3912 565 
Q 3275 0 1925 0 
L 628 0 
L 628 4666 
z
" transform="scale(0.015625)"/>
       <path id="DejaVuSans-72" d="M 2631 2963 
Q 2534 3019 2420 3045 
Q 2306 3072 2169 3072 
Q 1681 3072 1420 2755 
Q 1159 2438 1159 1844 
L 1159 0 
L 581 0 
L 581 3500 
L 1159 3500 
L 1159 2956 
Q 1341 3275 1631 3429 
Q 1922 3584 2338 3584 
Q 2397 3584 2469 3576 
Q 2541 3569 2628 3553 
L 2631 2963 
z
" transform="scale(0.015625)"/>
       <path id="DejaVuSans-68" d="M 3513 2113 
L 3513 0 
L 2938 0 
L 2938 2094 
Q 2938 2591 2744 2837 
Q 2550 3084 2163 3084 
Q 1697 3084 1428 2787 
Q 1159 2491 1159 1978 
L 1159 0 
L 581 0 
L 581 4863 
L 1159 4863 
L 1159 2956 
Q 1366 3272 1645 3428 
Q 1925 3584 2291 3584 
Q 2894 3584 3203 3211 
Q 3513 2838 3513 2113 
z
" transform="scale(0.015625)"/>
       <path id="DejaVuSans-6d" d="M 3328 2828 
Q 3544 3216 3844 3400 
Q 4144 3584 4550 3584 
Q 5097 3584 5394 3201 
Q 5691 2819 5691 2113 
L 5691 0 
L 5113 0 
L 5113 2094 
Q 5113 2597 4934 2840 
Q 4756 3084 4391 3084 
Q 3944 3084 3684 2787 
Q 3425 2491 3425 1978 
L 3425 0 
L 2847 0 
L 2847 2094 
Q 2847 2600 2669 2842 
Q 2491 3084 2119 3084 
Q 1678 3084 1418 2786 
Q 1159 2488 1159 1978 
L 1159 0 
L 581 0 
L 581 3500 
L 1159 3500 
L 1159 2956 
Q 1356 3278 1631 3431 
Q 1906 3584 2284 3584 
Q 2666 3584 2933 3390 
Q 3200 3197 3328 2828 
z
" transform="scale(0.015625)"/>
       <path id="DejaVuSans-6f" d="M 1959 3097 
Q 1497 3097 1228 2736 
Q 959 2375 959 1747 
Q 959 1119 1226 758 
Q 1494 397 1959 397 
Q 2419 397 2687 759 
Q 2956 1122 2956 1747 
Q 2956 2369 2687 2733 
Q 2419 3097 1959 3097 
z
M 1959 3584 
Q 2709 3584 3137 3096 
Q 3566 2609 3566 1747 
Q 3566 888 3137 398 
Q 2709 -91 1959 -91 
Q 1206 -91 779 398 
Q 353 888 353 1747 
Q 353 2609 779 3096 
Q 1206 3584 1959 3584 
z
" transform="scale(0.015625)"/>
       <path id="DejaVuSans-6e" d="M 3513 2113 
L 3513 0 
L 2938 0 
L 2938 2094 
Q 2938 2591 2744 2837 
Q 2550 3084 2163 3084 
Q 1697 3084 1428 2787 
Q 1159 2491 1159 1978 
L 1159 0 
L 581 0 
L 581 3500 
L 1159 3500 
L 1159 2956 
Q 1366 3272 1645 3428 
Q 1925 3584 2291 3584 
Q 2894 3584 3203 3211 
Q 3513 2838 3513 2113 
z
" transform="scale(0.015625)"/>
       <path id="DejaVuSans-4e" d="M 628 4666 
L 1478 4666 
L 3547 763 
L 3547 4666 
L 4159 4666 
L 4159 0 
L 3309 0 
L 1241 3903 
L 1241 0 
L 628 0 
L 628 4666 
z
" transform="scale(0.015625)"/>
      </defs>
      <use xlink:href="#DejaVuSans-44"/>
      <use xlink:href="#DejaVuSans-72" x="77.001953"/>
      <use xlink:href="#DejaVuSans-65" x="115.865234"/>
      <use xlink:href="#DejaVuSans-68" x="177.388672"/>
      <use xlink:href="#DejaVuSans-6d" x="240.767578"/>
      <use xlink:href="#DejaVuSans-6f" x="338.179688"/>
      <use xlink:href="#DejaVuSans-6d" x="399.361328"/>
      <use xlink:href="#DejaVuSans-65" x="496.773438"/>
      <use xlink:href="#DejaVuSans-6e" x="558.296875"/>
      <use xlink:href="#DejaVuSans-74" x="621.675781"/>
      <use xlink:href="#DejaVuSans-20" x="660.884766"/>
      <use xlink:href="#DejaVuSans-5b" x="692.671875"/>
      <use xlink:href="#DejaVuSans-4e" x="731.685547"/>
      <use xlink:href="#DejaVuSans-6d" x="806.490234"/>
      <use xlink:href="#DejaVuSans-5d" x="903.902344"/>
     </g>
    </g>
   </g>
   <g id="line2d_29">
    <path d="M 38.502813 23.323046 
L 41.559198 23.326361 
L 49.14069 23.325434 
L 67.414376 23.330909 
L 69.616891 23.331775 
L 73.442011 23.336967 
L 77.492991 23.333713 
L 79.9365 23.329917 
L 85.123897 23.33654 
L 86.207889 23.329889 
L 92.754169 23.331914 
L 100.526244 23.321649 
L 112.289519 23.325582 
L 122.149815 23.322408 
L 127.101098 23.334977 
L 131.809921 23.331705 
L 135.762344 23.333953 
L 140.475957 23.328159 
L 143.173957 23.342504 
L 144.902659 23.330644 
L 151.353883 23.331718 
L 158.075811 23.320385 
L 161.473201 23.330386 
L 168.63296 23.332554 
L 175.310543 23.330494 
L 176.579702 23.336027 
L 183.706024 23.328966 
L 190.203386 23.333217 
L 191.396627 23.340236 
L 193.072666 23.332573 
L 201.252764 23.329299 
L 207.922916 23.316733 
L 209.172823 23.329941 
L 216.58001 23.32871 
L 218.593264 23.344597 
L 219.611225 23.330485 
L 223.248476 23.332514 
L 223.554257 17.797247 
L 223.732051 53.593816 
L 224.048213 53.815636 
L 224.26118 68.616603 
L 224.498476 77.177498 
L 224.738977 70.271306 
L 225.274355 41.212428 
L 225.513956 41.510159 
L 225.75103 25.532818 
L 225.988789 40.550409 
L 226.226817 13.636057 
L 226.525541 22.454247 
L 226.707352 44.269261 
L 227.004147 22.525195 
L 227.184451 28.455664 
L 227.422827 11.433072 
L 227.479239 41.118824 
L 227.717393 26.574896 
L 227.956897 22.079996 
L 228.194151 30.699863 
L 228.491933 45.657596 
L 228.730952 35.311794 
L 228.972776 37.413107 
L 229.211707 18.252318 
L 229.507621 36.900052 
L 229.86666 37.827275 
L 229.998628 37.300689 
L 230.173069 50.760677 
L 230.408796 48.215607 
L 230.705939 47.007556 
L 231.242363 27.654312 
L 231.630147 39.972126 
L 231.663719 57.698785 
L 232.136825 44.806876 
L 232.316057 36.384975 
L 232.434509 54.252251 
L 232.915984 43.36259 
L 233.208451 42.239512 
L 233.387885 25.708899 
L 233.626662 49.969934 
L 233.864567 39.663879 
L 234.163673 55.818247 
L 234.459871 32.750699 
L 234.638675 55.506571 
L 235.11598 39.937375 
L 235.432665 48.925294 
L 235.906757 45.977058 
L 236.084479 49.9902 
L 236.384217 42.517875 
L 236.621287 45.571152 
L 236.919839 47.13237 
L 237.157824 45.533112 
L 237.874902 68.242618 
L 238.290534 52.055966 
L 238.35076 64.973288 
L 238.589264 59.057546 
L 238.828455 64.078754 
L 239.065068 58.187451 
L 239.305311 64.391733 
L 239.549082 57.520876 
L 240.023237 78.050487 
L 240.317181 64.416481 
L 240.614551 61.586794 
L 240.793797 71.708736 
L 241.151839 65.835166 
L 241.389884 54.362365 
L 241.569338 70.914833 
L 241.806632 64.097598 
L 242.044896 67.681158 
L 242.344062 68.40021 
L 242.641746 78.5069 
L 242.939843 75.787996 
L 243.118815 65.839407 
L 243.41606 68.076855 
L 243.836562 75.510515 
L 244.071675 64.666924 
L 244.253567 61.700291 
L 244.531837 74.717579 
L 244.760099 75.61339 
L 244.998784 82.432608 
L 245.503869 77.749502 
L 245.741822 79.378865 
L 246.202726 76.795297 
L 246.337942 73.48157 
L 246.460816 77.690378 
L 246.754794 81.648722 
L 246.994239 79.625792 
L 247.232263 93.230938 
L 247.469526 90.938945 
L 247.708076 85.612733 
L 248.125328 71.000437 
L 248.543255 95.860198 
L 248.848689 84.244092 
L 249.020847 83.79025 
L 249.530817 89.213564 
L 249.91722 83.969014 
L 250.176782 87.371125 
L 250.454559 94.223681 
L 250.69308 108.263611 
L 250.990238 87.606514 
L 251.171156 90.26272 
L 251.466717 81.492841 
L 251.705896 83.116434 
L 252.004037 102.222623 
L 252.243865 101.018176 
L 252.425758 88.589457 
L 252.66071 95.414101 
L 252.958474 111.19445 
L 253.137428 97.116752 
L 253.437262 88.570012 
L 253.732822 103.311702 
L 254.151034 106.498769 
L 254.390353 88.042309 
L 254.629948 101.627887 
L 254.866171 102.258651 
L 255.283195 105.037796 
L 255.64118 90.434313 
L 255.702331 111.832243 
L 255.879236 101.035925 
L 256.118256 103.148202 
L 256.357 109.142076 
L 256.596713 97.900923 
L 257.013573 98.167695 
L 257.134596 112.353058 
L 257.430682 95.185809 
L 257.61066 115.037754 
L 257.848051 113.055939 
L 258.20509 103.720085 
L 258.445132 109.888635 
L 258.577231 93.625663 
L 258.859825 110.019572 
L 259.158214 92.825574 
L 259.487917 113.048554 
L 259.730147 113.409001 
L 259.876027 106.026593 
L 260.173233 103.15259 
L 260.294447 111.642941 
L 260.591149 105.267454 
L 260.949329 118.995342 
L 261.322962 117.351573 
L 261.490067 106.043669 
L 261.602805 110.760421 
L 261.975746 115.177877 
L 262.086563 111.330463 
L 262.328785 115.031403 
L 262.55622 121.207192 
L 262.794199 135.328287 
L 263.151773 129.03915 
L 263.330837 104.795779 
L 263.7477 118.537769 
L 263.866901 113.988261 
L 264.105397 118.146709 
L 264.285849 113.170545 
L 264.643203 123.659793 
L 264.881961 122.206881 
L 265.058864 122.582741 
L 265.299527 135.047829 
L 265.714773 114.424127 
L 265.955612 122.878609 
L 266.191948 107.647852 
L 266.252174 133.422794 
L 266.48981 136.473038 
L 266.788459 131.11695 
L 267.09442 137.285688 
L 267.324829 125.860542 
L 267.563622 124.800061 
L 267.759853 125.943469 
L 268.099501 133.835219 
L 268.338011 117.500104 
L 268.532791 123.428331 
L 268.756773 140.333746 
L 269.017167 128.79681 
L 269.233644 130.05099 
L 269.530633 143.808471 
L 269.887378 143.138431 
L 270.125731 145.471289 
L 270.245132 141.022221 
L 270.661966 133.577109 
L 270.723 122.224572 
L 270.960397 132.084632 
L 271.318588 138.698278 
L 271.561653 125.427347 
L 271.735812 138.039593 
L 272.273994 145.348712 
L 272.454512 135.782231 
L 272.689423 135.782706 
L 272.927961 137.220839 
L 273.17533 120.442357 
L 273.464189 138.353864 
L 273.643316 137.889798 
L 273.969451 144.078393 
L 274.219372 137.94462 
L 274.658263 136.037579 
L 275.037647 144.261563 
L 275.313574 145.878019 
L 275.437851 155.541097 
L 275.791628 153.62273 
L 275.91339 138.565047 
L 276.20821 150.832521 
L 276.393789 144.661246 
L 276.812326 153.014709 
L 277.049078 153.567083 
L 277.162083 161.144136 
L 277.590469 137.383662 
L 277.779075 140.518111 
L 277.939041 149.347111 
L 278.12053 144.73496 
L 278.475781 153.70016 
L 278.624491 144.023063 
L 278.955747 159.930497 
L 279.193852 157.816683 
L 279.431173 158.684913 
L 279.612332 148.571786 
L 279.907556 149.15079 
L 280.086959 150.907102 
L 280.384925 149.764251 
L 280.623809 146.55894 
L 280.980465 135.489507 
L 281.1601 158.504425 
L 281.457142 144.901662 
L 281.594071 145.555455 
L 281.873928 153.110457 
L 282.056615 150.980283 
L 282.113657 140.172108 
L 282.351481 145.386969 
L 282.533731 155.023822 
L 282.828435 142.174615 
L 283.068365 142.199915 
L 283.306338 146.598941 
L 283.66432 173.370631 
L 284.088847 140.019837 
L 284.319934 158.819527 
L 284.563335 161.315586 
L 284.856401 156.053083 
L 285.034625 140.170121 
L 285.276257 156.736162 
L 285.690436 158.323463 
L 285.810779 150.094503 
L 286.048783 172.544801 
L 286.292195 151.051995 
L 286.526687 158.454435 
L 286.769413 145.290095 
L 287.007247 162.50349 
L 287.262421 157.176193 
L 287.484106 175.391508 
L 287.900764 162.694934 
L 288.024509 146.241358 
L 288.259375 159.831139 
L 288.497522 156.688022 
L 289.035046 169.63022 
L 289.24077 168.904219 
L 289.455069 138.040405 
L 290.227704 177.720715 
L 290.347633 160.971707 
L 290.465879 174.370137 
L 290.883363 147.984592 
L 290.948755 167.211046 
L 291.225488 166.485231 
L 291.495528 172.310139 
L 291.679836 170.778166 
L 292.194976 148.219942 
L 292.432576 164.18053 
L 292.730948 162.552713 
L 292.969282 168.804218 
L 293.207555 158.04541 
L 293.504983 161.141318 
L 293.689059 165.263473 
L 293.924229 155.000808 
L 294.221147 186.341983 
L 294.466574 165.122931 
L 294.698997 170.689762 
L 294.878318 164.209031 
L 295.173661 177.642147 
L 295.4127 171.268904 
L 295.717231 157.504281 
L 295.948103 167.044843 
L 296.19442 165.402678 
L 296.426372 168.409029 
L 296.961851 170.403277 
L 297.152314 162.997062 
L 297.438974 160.828459 
L 297.620443 164.232658 
L 297.929888 161.352249 
L 298.095365 182.16095 
L 298.335465 171.698306 
L 298.632709 175.86798 
L 298.870236 153.330352 
L 299.108436 194.983542 
L 299.60655 172.631127 
L 300.182774 183.577205 
L 300.361705 190.94035 
L 300.600166 165.414065 
L 300.854175 169.668294 
L 301.079765 164.302919 
L 301.494049 171.549233 
L 301.613328 182.138186 
L 301.911255 161.77569 
L 302.09056 178.177008 
L 302.447614 166.379547 
L 302.626399 197.626141 
L 302.80676 156.271108 
L 303.043886 175.740819 
L 303.341324 181.947735 
L 303.54503 182.223421 
L 303.826118 179.456573 
L 304.119111 183.328858 
L 304.41641 173.505506 
L 304.595673 172.287061 
L 304.95287 186.494907 
L 305.31073 175.302313 
L 305.548602 159.705379 
L 305.846457 185.272616 
L 306.02906 155.042871 
L 306.385283 157.522726 
L 306.562027 185.726698 
L 306.801509 172.477573 
L 306.996024 181.191578 
L 307.281744 171.673901 
L 307.656728 175.889863 
L 307.900046 173.836323 
L 308.067971 164.313529 
L 308.299126 195.2146 
L 308.839248 180.53618 
L 309.086734 185.590598 
L 309.313549 175.25126 
L 309.455479 182.526948 
L 309.930311 164.420496 
L 310.001814 177.345348 
L 310.28921 178.9498 
L 310.527271 165.387681 
L 310.708003 186.412337 
L 311.063774 199.972872 
L 311.242711 174.908286 
L 311.781527 169.156015 
L 312.017687 190.086576 
L 312.375319 167.391174 
L 312.501747 167.634037 
L 312.732977 177.327453 
L 313.090224 177.437642 
L 313.212638 102.495411 
L 313.568273 119.21375 
L 313.805492 113.608027 
L 314.235778 161.247606 
L 314.58015 155.554316 
L 314.701814 174.570385 
L 314.938888 178.453484 
L 315.237717 176.946067 
L 315.682591 180.830091 
L 316.016983 186.849609 
L 316.33419 181.91199 
L 316.452034 182.270854 
L 316.695304 180.316953 
L 316.995565 176.706659 
L 317.110027 179.472012 
L 317.410895 177.241527 
L 317.763281 176.738543 
L 318.060545 178.379723 
L 318.180102 177.056596 
L 318.359189 178.370655 
L 318.718927 176.792833 
L 318.959086 177.252577 
L 319.194803 177.421811 
L 319.49789 177.37781 
L 319.614865 177.515 
L 319.910478 177.612361 
L 320.328134 177.535744 
L 320.624731 176.95564 
L 320.864807 177.536097 
L 321.102007 177.104309 
L 321.340325 177.477155 
L 321.584298 177.514589 
L 321.878065 177.417308 
L 322.117615 177.556738 
L 323.070052 177.537768 
L 323.963903 177.598181 
L 324.083748 180.705743 
L 324.569671 177.613072 
L 324.802157 177.286427 
L 325.098086 177.582298 
L 325.454334 177.188519 
L 325.633327 176.722548 
L 325.812051 177.468342 
L 326.294583 177.357407 
L 326.530758 177.524582 
L 327.301953 177.520699 
L 328.020226 177.550403 
L 328.256505 178.671941 
L 328.495475 177.593793 
L 329.508337 177.537812 
L 329.745474 177.437193 
L 330.761294 177.563034 
L 332.018819 177.450546 
L 332.487919 177.536571 
L 332.725398 178.50021 
L 333.024265 177.476376 
L 333.741417 177.500477 
L 335.022935 177.540355 
L 337.437428 177.509703 
L 337.736454 177.610001 
L 338.161358 177.45935 
L 338.991294 177.545693 
L 340.421547 177.507995 
L 340.898441 177.548317 
L 341.13678 177.420163 
L 341.375437 177.545822 
L 341.917182 177.560723 
L 343.224194 177.599152 
L 343.582206 177.536381 
L 346.623265 177.484883 
L 346.800697 177.569288 
L 347.633595 177.528922 
L 348.531021 177.540311 
L 356.230389 177.535521 
L 357.11492 177.594954 
L 357.232346 177.517788 
L 358.200121 177.562202 
L 359.918637 177.530344 
L 360.464925 177.58852 
L 360.754514 177.473081 
L 360.876193 177.579224 
L 361.887082 177.536579 
L 362.950189 177.575912 
L 363.20353 177.461743 
L 363.622003 177.526562 
L 363.916371 177.597873 
L 365.107627 177.534896 
L 367.313284 177.5472 
L 370.240307 177.447328 
L 370.360723 177.558557 
L 372.027824 177.531788 
L 373.93445 177.600147 
L 373.993192 177.407359 
L 374.71244 177.543423 
L 387.288124 177.534881 
L 387.408358 177.610409 
L 387.704159 177.485546 
L 388.360572 177.594483 
L 389.373409 177.540034 
L 393.014287 177.529486 
L 393.427847 177.594572 
L 393.785792 177.527222 
L 422.225812 177.511942 
L 422.234324 178.074819 
L 422.468961 177.527648 
L 423.252127 177.566475 
L 423.840978 177.527359 
L 424.145321 177.529523 
L 425.574673 177.446935 
L 425.629286 177.595841 
L 426.64547 177.533815 
L 429.39598 177.483907 
L 429.628082 177.439275 
L 430.10485 177.607598 
L 431.121983 177.531498 
L 431.357652 144.601248 
L 431.597523 167.487525 
L 431.843497 159.224364 
L 432.095657 163.81396 
L 432.328044 175.748279 
L 432.561897 164.352963 
L 432.821237 168.53646 
L 433.156978 168.386361 
L 433.463552 181.333453 
L 433.594031 177.497818 
L 433.87843 175.68746 
L 434.121676 192.160598 
L 434.776173 170.374915 
L 435.318081 189.550206 
L 435.793016 176.979889 
L 436.163582 181.699205 
L 436.324342 192.598946 
L 436.627299 175.876586 
L 436.862153 177.820417 
L 437.100266 182.803407 
L 437.400723 173.608943 
L 437.640155 179.937343 
L 437.947846 166.851971 
L 438.091135 175.445993 
L 438.242412 174.331513 
L 438.507695 181.895501 
L 438.778576 185.757475 
L 439.093849 181.032888 
L 439.259491 181.731019 
L 439.609454 172.958148 
L 439.813723 178.77319 
L 440.027646 163.017936 
L 440.326857 172.708724 
L 440.505242 193.362569 
L 440.743769 181.481254 
L 440.985603 195.153512 
L 441.460589 169.95251 
L 441.817555 182.758625 
L 441.996582 179.815995 
L 442.261655 178.935974 
L 442.476381 195.707058 
L 442.882088 167.405612 
L 443.306995 182.723749 
L 443.537398 180.577912 
L 443.835364 184.656265 
L 444.01571 171.46386 
L 444.193965 175.306129 
L 444.670741 182.84661 
L 444.792607 177.09686 
L 445.029606 175.609461 
L 445.21114 180.311991 
L 445.566243 174.776246 
L 445.69185 180.903383 
L 445.950184 185.874967 
L 446.223006 183.553593 
L 446.46149 175.386391 
L 446.703529 179.228208 
L 446.93948 195.874029 
L 447.182432 180.810169 
L 447.4174 189.936258 
L 447.656135 177.684602 
L 448.138367 169.212243 
L 448.437338 184.671683 
L 448.625267 175.597137 
L 448.91479 169.09564 
L 449.152725 168.816018 
L 449.392189 183.064439 
L 449.808343 179.689197 
L 449.89612 175.934101 
L 450.16705 186.611111 
L 450.46407 174.567459 
L 450.761942 177.519816 
L 450.94209 168.887485 
L 451.180519 172.865334 
L 451.425902 181.765304 
L 451.658653 179.625204 
L 451.839194 179.064623 
L 452.077357 188.648845 
L 452.326715 189.317579 
L 452.864845 172.458152 
L 453.098099 171.842886 
L 453.469682 176.556477 
L 453.632802 176.438926 
L 453.689602 184.527989 
L 453.809319 177.644194 
L 454.134366 175.606145 
L 454.345201 165.961461 
L 454.765606 180.804955 
L 454.847127 168.481915 
L 455.071869 170.788076 
L 455.300727 195.158254 
L 455.539853 167.074137 
L 455.961335 171.234001 
L 456.150748 178.833951 
L 456.387019 160.745079 
L 456.566905 175.177049 
L 456.984034 189.246802 
L 457.044693 173.531868 
L 457.462645 196.010655 
L 457.700957 178.734597 
L 457.762486 182.110216 
L 458.176246 173.021727 
L 458.295734 165.174361 
L 458.772737 181.684886 
L 459.18988 175.535351 
L 459.309275 177.649049 
L 459.548312 171.405689 
L 459.792529 178.299063 
L 459.846799 173.427884 
L 460.026983 176.655604 
L 460.264394 165.045351 
L 460.505547 177.637569 
L 460.801349 166.717345 
L 460.981197 175.923776 
L 461.300883 173.707122 
L 461.461133 170.888487 
L 461.997667 179.987069 
L 462.240011 178.560902 
L 462.535859 175.06906 
L 462.954361 158.124502 
L 463.252644 185.290197 
L 463.439137 175.282125 
L 463.995751 183.106233 
L 464.210024 162.822936 
L 464.468285 172.128923 
L 464.923343 170.335237 
L 465.170704 186.94507 
L 465.469677 174.336405 
L 465.710789 172.940358 
L 466.009353 158.715594 
L 466.243917 179.124552 
L 466.483619 169.234421 
L 466.663185 174.32404 
L 466.961408 191.88876 
L 467.199234 179.491659 
L 467.597038 174.861478 
L 467.744427 178.546879 
L 467.921045 187.922168 
L 468.311702 180.003869 
L 468.454257 169.630421 
L 468.761166 179.806327 
L 468.931187 165.992974 
L 469.179483 179.534761 
L 469.64942 172.890851 
L 469.893371 172.095195 
L 470.128335 173.888324 
L 470.435389 173.40693 
L 470.683137 174.794424 
L 470.906718 158.074578 
L 471.143739 179.96833 
L 471.682015 160.362205 
L 471.865224 189.466586 
L 472.16172 177.314396 
L 472.456786 173.238623 
L 472.636186 174.941698 
L 473.054076 174.649226 
L 473.400235 185.474403 
L 473.868197 158.938934 
L 474.170263 181.942575 
L 474.354868 170.560555 
L 474.645427 175.154288 
L 475.125654 183.797648 
L 475.315542 165.220445 
L 475.601585 176.003496 
L 475.840459 190.801919 
L 476.079329 176.005929 
L 476.317061 172.552758 
L 476.555932 176.318178 
L 476.795462 166.084097 
L 477.212458 170.115934 
L 477.361592 177.234651 
L 477.749946 170.990882 
L 477.868828 183.148865 
L 478.107403 176.097122 
L 478.345862 188.407365 
L 478.643526 174.876084 
L 478.775738 174.978245 
L 479.035221 178.9416 
L 479.305237 172.126629 
L 479.600228 176.190881 
L 479.798874 170.422565 
L 480.01865 179.075515 
L 480.259337 159.901338 
L 480.639147 172.311932 
L 480.797255 166.786685 
L 481.30086 183.498863 
L 481.817167 164.84923 
L 482.301583 173.348491 
L 482.54011 172.285778 
L 482.796157 169.93684 
L 483.087039 171.83613 
L 483.208624 176.659537 
L 483.500877 174.016905 
L 483.799178 160.14999 
L 484.097273 174.33383 
L 484.216787 172.652535 
L 484.514676 172.995442 
L 484.761105 173.771012 
L 485.008903 168.321929 
L 485.230884 168.818419 
L 485.470722 170.177221 
L 485.76882 166.005622 
L 486.007356 172.504084 
L 486.247979 168.415994 
L 486.483328 170.457029 
L 486.721699 178.931791 
L 487.206514 167.822699 
L 487.440359 172.534145 
L 487.677248 171.574356 
L 488.037454 176.297596 
L 488.214516 175.862551 
L 488.455338 174.581256 
L 488.751713 181.550927 
L 489.288177 157.13602 
L 489.540319 173.001655 
L 489.706772 167.248859 
L 490.005091 174.243311 
L 490.242896 162.157392 
L 490.481391 170.043823 
L 490.683853 167.921405 
L 490.899752 183.731551 
L 491.201618 185.268856 
L 491.494573 174.207115 
L 491.741352 172.411215 
L 491.913287 180.864971 
L 492.154206 159.612081 
L 492.390345 167.142834 
L 492.705805 171.227463 
L 492.884784 169.64472 
L 493.122928 177.838031 
L 493.66099 168.393647 
L 493.95881 161.961201 
L 494.141209 169.042043 
L 494.380638 171.344076 
L 494.614303 171.3042 
L 495.092642 155.956929 
L 495.391562 176.856933 
L 495.688062 168.141593 
L 495.866611 171.592844 
L 496.169394 183.12872 
L 496.407336 168.352389 
L 496.644163 166.966758 
L 496.931081 168.608458 
L 497.122047 167.320266 
L 497.32743 167.273227 
L 497.602808 169.686038 
L 497.947291 180.546978 
L 498.144884 161.28233 
L 498.621652 177.819412 
L 498.860584 152.217176 
L 499.099563 176.063093 
L 499.337413 168.069055 
L 499.576371 169.397639 
L 499.817608 181.830442 
L 500.113488 175.44201 
L 500.293182 156.609001 
L 500.609204 172.28086 
L 500.650281 169.385742 
L 501.130331 161.38699 
L 501.425955 168.473048 
L 501.604394 160.789964 
L 502.142852 173.987043 
L 502.321119 155.337012 
L 502.565805 168.80339 
L 502.758604 169.620198 
L 503.051282 169.687002 
L 503.27591 184.775849 
L 503.515493 174.999137 
L 503.872555 166.390676 
L 504.051407 167.035159 
L 504.229888 150.889956 
L 504.707569 174.067245 
L 505.069486 173.681131 
L 505.311707 167.375792 
L 505.547959 172.385797 
L 505.78225 168.23497 
L 506.020268 171.813315 
L 506.266043 179.744885 
L 506.746757 164.53576 
L 506.993307 169.232284 
L 507.231373 161.098258 
L 507.708032 173.279587 
L 508.005894 161.395462 
L 508.190358 177.610075 
L 508.787092 153.942284 
L 509.01986 160.126069 
L 509.275368 173.568508 
L 509.498512 177.854682 
L 509.921977 153.406394 
L 509.97473 173.992545 
L 510.21317 156.396995 
L 510.691646 166.042487 
L 510.932276 180.816392 
L 511.427141 166.301992 
L 511.731757 167.203775 
L 511.94593 162.759263 
L 512.202575 161.632677 
L 512.42372 171.630781 
L 512.662927 172.020511 
L 512.902669 160.003558 
L 513.214663 164.027077 
L 513.619081 164.048826 
L 513.68035 168.358162 
L 513.915563 163.715006 
L 514.39837 165.054742 
L 514.571539 166.902156 
L 514.703169 157.11589 
L 514.890518 177.360034 
L 515.247869 147.60586 
L 515.690172 169.999132 
L 515.918439 167.597003 
L 516.15758 162.72586 
L 516.400242 164.518461 
L 516.762513 156.846246 
L 516.922212 166.632483 
L 517.159528 172.195316 
L 517.51651 166.16615 
L 517.702683 177.455153 
L 517.878201 167.615257 
L 518.173168 184.697801 
L 518.480489 158.909216 
L 518.653123 156.600645 
L 518.951708 162.864765 
L 519.130101 163.054047 
L 519.388449 167.512413 
L 519.725267 178.520567 
L 519.86004 163.691925 
L 520.141772 196.111403 
L 520.439599 192.23285 
L 520.621899 181.991088 
L 520.859464 189.343098 
L 521.115203 190.318263 
L 521.637701 177.547582 
L 521.87368 179.662059 
L 522.117242 167.07883 
L 522.363738 171.381984 
L 522.65075 162.912123 
L 522.827932 163.032528 
L 523.266623 163.624383 
L 523.497826 165.232987 
L 523.843711 165.150421 
L 524.131034 165.709367 
L 524.857058 166.121593 
L 524.9168 165.879785 
L 525.275559 165.755864 
L 525.403427 165.929034 
L 525.692727 166.09541 
L 525.814188 165.744745 
L 526.890514 166.10261 
L 527.008656 165.833709 
L 527.911085 165.848305 
L 528.28225 165.746671 
L 528.686391 165.851821 
L 528.92995 165.825649 
L 529.166701 165.658562 
L 529.284939 163.648926 
L 529.533417 166.021031 
L 530.068147 166.356302 
L 530.247674 165.949811 
L 530.664454 165.92866 
L 530.905653 165.55545 
L 531.262127 166.224938 
L 531.439707 165.755673 
L 531.621121 165.759313 
L 531.88268 166.50589 
L 532.001118 165.839336 
L 532.708292 165.829809 
L 532.939696 165.704828 
L 533.23581 164.408181 
L 533.470149 167.058571 
L 533.72434 165.830027 
L 533.946454 165.817617 
L 534.245028 166.503934 
L 534.451003 166.152239 
L 534.720395 166.098754 
L 535.028561 165.677087 
L 535.260177 165.929597 
L 536.733933 165.844808 
L 536.938388 165.864975 
L 537.241818 165.775434 
L 538.187608 165.876757 
L 538.432501 165.830538 
L 538.905185 165.844444 
L 540.393637 165.830709 
L 540.636535 166.029321 
L 540.924843 165.82776 
L 548.278888 165.822744 
L 558.695445 165.82279 
L 596.502813 165.827399 
L 596.502813 165.827399 
" clip-path="url(#p760c7a5fc2)" style="fill: none; stroke: #0000ff; stroke-opacity: 0.7; stroke-width: 1.5; stroke-linecap: square"/>
   </g>
   <g id="line2d_30">
    <path d="M 38.502813 25.701718 
L 38.622916 25.52644 
L 38.865804 25.705445 
L 38.937 24.64846 
L 39.111017 24.458017 
L 39.417061 25.970414 
L 39.707596 26.244429 
L 39.885883 26.586508 
L 40.541846 25.769445 
L 40.601545 26.647319 
L 41.559198 26.668801 
L 42.033407 26.873288 
L 42.091503 26.375564 
L 42.329583 26.198963 
L 42.628872 26.986917 
L 42.928055 27.408843 
L 43.164095 26.120315 
L 43.477718 26.868549 
L 43.581899 26.468971 
L 43.819883 27.601663 
L 44.300935 25.853344 
L 44.599353 26.322882 
L 44.834047 27.636676 
L 45.07223 27.033552 
L 45.371049 25.431388 
L 45.669985 25.764414 
L 46.174796 27.770248 
L 46.328887 26.207074 
L 46.567049 26.302086 
L 46.805772 26.710478 
L 47.224756 27.986174 
L 47.405507 27.356553 
L 47.521373 27.461934 
L 47.766181 27.854753 
L 48.003493 27.843779 
L 48.244165 28.203023 
L 48.536913 27.881464 
L 49.14069 28.134565 
L 50.441813 28.084005 
L 51.746796 27.618148 
L 53.050949 26.680612 
L 54.356612 26.226169 
L 55.661121 26.161699 
L 57.085405 26.93414 
L 58.50861 26.674186 
L 59.813793 28.184311 
L 59.954398 27.722166 
L 60.191841 28.732083 
L 60.430319 28.661406 
L 60.966191 26.984628 
L 61.265892 24.954543 
L 61.445302 25.452802 
L 61.681905 26.947554 
L 61.866132 26.206587 
L 62.104406 26.31091 
L 62.404 26.139412 
L 62.638974 24.576778 
L 62.936269 25.457604 
L 63.11617 27.43469 
L 63.356366 27.795464 
L 63.652931 27.609598 
L 64.130974 25.842172 
L 64.426649 26.042505 
L 64.72558 27.623722 
L 64.844761 26.893337 
L 65.083776 27.56512 
L 65.323835 26.959523 
L 65.636208 25.531067 
L 65.860257 25.959545 
L 66.108513 27.065093 
L 66.396826 26.196927 
L 66.578194 26.734598 
L 66.876601 26.656045 
L 67.112748 25.477924 
L 67.588886 27.268745 
L 68.125305 26.299358 
L 68.602529 24.466438 
L 68.783671 24.665344 
L 69.019997 24.443429 
L 69.616891 27.256654 
L 69.855516 26.609304 
L 70.095651 24.960699 
L 70.523348 25.961951 
L 70.817845 26.019572 
L 71.292681 27.391444 
L 71.413207 29.02819 
L 72.070236 25.693997 
L 72.364771 25.257938 
L 72.782636 27.986977 
L 73.259107 27.642771 
L 73.442011 26.539327 
L 73.737273 25.922331 
L 73.796233 24.928207 
L 74.034856 25.407725 
L 74.273425 26.163123 
L 74.512377 27.63257 
L 74.809776 27.642366 
L 75.10756 25.735101 
L 75.350039 25.148301 
L 75.716732 26.501078 
L 75.763801 26.836327 
L 76.299771 27.537316 
L 76.479259 27.243185 
L 76.779836 26.430619 
L 77.014868 24.837788 
L 77.211656 25.108451 
L 77.492991 26.900334 
L 77.731123 26.701491 
L 78.028409 25.70258 
L 78.208334 25.952552 
L 78.74416 24.7983 
L 78.984279 25.120881 
L 79.221395 25.867268 
L 79.46119 27.137263 
L 79.699016 26.212328 
L 79.9365 24.814489 
L 80.296129 24.938864 
L 80.48719 25.605735 
L 80.712316 25.193317 
L 80.950854 25.250592 
L 81.192765 26.601873 
L 81.665653 27.19774 
L 81.913099 24.226177 
L 82.151222 25.515665 
L 82.441028 25.442786 
L 82.620686 25.246218 
L 83.215747 28.519308 
L 83.394399 28.450413 
L 83.872614 25.161258 
L 84.109856 26.454608 
L 84.411018 26.575906 
L 84.706152 25.822427 
L 84.884266 26.269406 
L 85.123897 27.364168 
L 85.361288 27.569993 
L 85.600003 27.198787 
L 85.838773 27.082849 
L 86.434523 26.948345 
L 86.732011 26.673056 
L 87.090643 27.975031 
L 87.329041 27.123924 
L 87.865826 24.223938 
L 88.103508 24.012138 
L 88.40325 25.153467 
L 88.586765 26.862274 
L 89.118231 27.140737 
L 89.536432 26.528308 
L 89.908761 25.700846 
L 90.012432 26.147329 
L 90.081212 27.116071 
L 90.548537 28.101363 
L 90.668047 28.73316 
L 90.905672 28.55712 
L 91.263784 27.708195 
L 91.681363 27.038824 
L 92.038568 27.366796 
L 92.336147 26.953232 
L 92.754169 25.228109 
L 92.991265 24.81983 
L 93.289814 25.00847 
L 93.489754 26.31253 
L 93.826284 27.567964 
L 94.004867 27.335303 
L 94.305329 26.709069 
L 94.541287 27.706684 
L 94.842115 28.442376 
L 95.257497 27.896122 
L 95.498953 27.495008 
L 95.89183 27.379426 
L 96.573099 25.592666 
L 96.69475 27.29268 
L 96.989749 26.509012 
L 97.286052 26.171082 
L 98.063483 29.443445 
L 98.47895 26.578366 
L 98.717529 26.748792 
L 99.025598 27.65582 
L 99.325453 26.800644 
L 99.58166 27.028805 
L 99.795665 27.892758 
L 100.391 28.706276 
L 100.526244 26.968198 
L 101.868401 25.657568 
L 103.165642 26.327476 
L 104.594361 25.067158 
L 104.673559 22.844646 
L 104.853311 21.892271 
L 105.09155 22.629506 
L 105.454112 24.261974 
L 105.687883 26.574159 
L 106.066219 28.741791 
L 106.42681 29.504287 
L 107.089968 27.147197 
L 107.387998 27.313069 
L 107.688168 27.142087 
L 107.864974 26.8786 
L 108.164534 25.15607 
L 108.347806 23.008459 
L 108.640473 21.683852 
L 108.902733 21.903003 
L 109.117895 24.242378 
L 109.477366 26.884924 
L 109.596272 28.644408 
L 109.892792 27.899209 
L 110.554204 24.564761 
L 111.052094 25.764638 
L 111.29097 25.418136 
L 111.577019 23.977458 
L 111.812008 23.366413 
L 112.049728 23.993374 
L 112.530576 27.803834 
L 112.792567 28.592279 
L 113.325136 27.950643 
L 113.541144 27.264762 
L 113.788285 27.643442 
L 114.093357 27.429512 
L 114.540544 24.043109 
L 114.883064 22.942287 
L 115.036051 23.355868 
L 115.313819 25.052202 
L 115.937099 26.923857 
L 116.30385 24.743969 
L 116.475791 25.481994 
L 116.782905 26.108427 
L 117.130896 25.950767 
L 117.249404 26.370267 
L 117.487743 26.637011 
L 117.726095 26.484601 
L 118.024139 26.108651 
L 118.206256 26.200773 
L 118.756347 27.821059 
L 118.928024 27.467694 
L 119.289499 27.434008 
L 119.821194 28.785946 
L 119.945178 28.348441 
L 120.606507 25.250786 
L 120.715903 26.629508 
L 120.9231 26.968195 
L 121.194101 25.795175 
L 121.433386 25.884945 
L 121.912267 27.406264 
L 122.149815 27.286444 
L 122.624796 27.370867 
L 122.690525 28.094928 
L 122.935962 28.144556 
L 123.160922 26.513014 
L 123.589311 25.476777 
L 123.69748 26.419303 
L 123.995428 26.255928 
L 124.35569 25.23952 
L 124.650229 25.382634 
L 124.949134 24.745127 
L 125.13009 23.691425 
L 125.427231 23.272905 
L 125.665306 23.660162 
L 125.857602 24.857292 
L 126.147722 24.525419 
L 126.390896 23.961142 
L 126.86069 24.431971 
L 127.397474 23.677064 
L 127.755155 23.6701 
L 128.11266 25.50316 
L 128.470607 25.955164 
L 128.590202 25.751409 
L 129.127471 25.963759 
L 129.721296 25.993573 
L 129.844012 26.603335 
L 130.080965 26.853491 
L 130.318908 26.171327 
L 130.556998 25.856952 
L 130.795082 25.764988 
L 131.094146 26.349465 
L 131.390373 26.270043 
L 131.809921 25.589342 
L 132.530023 26.494611 
L 132.778446 27.03997 
L 133.080422 27.316741 
L 133.599891 26.00812 
L 134.048442 28.524513 
L 134.27389 28.357972 
L 134.752536 24.199915 
L 135.299799 25.880542 
L 135.762344 25.234284 
L 136.299914 26.732117 
L 136.537647 26.503882 
L 136.897409 25.433372 
L 137.144696 25.897708 
L 137.496099 27.664414 
L 137.729921 27.143895 
L 138.031643 26.980865 
L 138.462756 27.891944 
L 138.821519 28.14749 
L 139.04073 27.779315 
L 139.34128 27.706408 
L 139.518495 27.417051 
L 139.876343 27.156888 
L 139.996454 26.509816 
L 140.23413 26.419955 
L 140.727123 25.204909 
L 141.011902 23.769541 
L 141.192054 22.170912 
L 141.683584 22.231794 
L 141.74323 24.468919 
L 141.924188 26.882354 
L 142.220316 27.97174 
L 142.460347 28.226469 
L 142.698106 27.796728 
L 142.935384 27.732657 
L 143.173957 28.118012 
L 143.471179 29.104438 
L 143.657606 29.089421 
L 144.128735 27.802303 
L 144.426045 24.81281 
L 144.665021 24.998226 
L 145.379375 28.434276 
L 145.679051 27.762439 
L 146.042843 26.237413 
L 146.15371 26.257257 
L 146.696415 27.711231 
L 147.407001 24.647674 
L 147.644895 25.206016 
L 147.88237 26.162006 
L 148.41882 27.139788 
L 148.598417 26.460279 
L 149.076012 26.540006 
L 149.373331 26.88021 
L 150.029772 25.274026 
L 150.089694 23.839457 
L 150.446581 23.62039 
L 150.565971 25.041653 
L 150.92311 27.327835 
L 151.353883 27.154018 
L 151.703 26.191927 
L 152.113476 27.515416 
L 152.351803 27.756293 
L 152.832111 26.836313 
L 152.888581 26.309137 
L 153.309231 25.339189 
L 153.920396 28.655771 
L 154.319251 26.82579 
L 154.617256 26.760553 
L 155.03402 27.933396 
L 155.333455 28.149287 
L 155.572779 27.502943 
L 155.93189 25.969838 
L 156.054561 24.267142 
L 156.288871 23.790222 
L 156.59785 25.395698 
L 157.062934 28.870216 
L 157.244922 29.105509 
L 157.482632 28.447109 
L 157.720275 27.251207 
L 158.075811 26.213055 
L 158.493969 26.798298 
L 158.732951 27.324766 
L 159.50687 23.355168 
L 159.80937 23.001623 
L 159.984424 24.00837 
L 160.222772 26.421844 
L 160.761288 29.135053 
L 161.002186 27.511553 
L 161.236001 27.054104 
L 161.716034 28.786634 
L 161.964836 28.458952 
L 162.194991 27.92327 
L 162.728429 25.260055 
L 162.970124 24.546875 
L 163.21208 25.851154 
L 163.449507 28.162349 
L 163.682554 28.783237 
L 164.170702 25.929624 
L 164.397251 26.195669 
L 164.755999 26.134604 
L 164.99298 26.251081 
L 165.232577 25.792384 
L 165.889046 23.31282 
L 166.482576 25.474648 
L 166.661225 25.574257 
L 166.89949 24.445867 
L 167.197831 24.951664 
L 167.436563 26.342007 
L 167.735563 26.785405 
L 167.91455 26.664169 
L 168.152508 26.909334 
L 168.391427 26.693628 
L 168.867709 27.412604 
L 169.529336 27.192069 
L 169.881582 26.503579 
L 170.359222 27.335243 
L 171.25828 25.794128 
L 171.432118 26.221619 
L 171.900581 26.823008 
L 172.146868 26.703446 
L 172.386262 26.993272 
L 172.569875 26.217708 
L 172.835447 25.768042 
L 173.339268 27.461491 
L 173.707388 27.640569 
L 173.81777 25.839436 
L 174.158309 25.504803 
L 174.314587 27.176747 
L 174.535783 27.02608 
L 174.91395 26.198104 
L 175.073934 26.458785 
L 175.54851 28.51298 
L 175.787124 28.128794 
L 176.085682 26.59329 
L 176.323655 26.737019 
L 176.579702 27.608002 
L 177.049623 26.217475 
L 177.336715 26.787683 
L 177.755713 28.90649 
L 178.11115 28.321834 
L 178.528778 26.867602 
L 179.02236 26.422289 
L 179.243954 27.487488 
L 179.542117 28.17552 
L 179.959799 27.861631 
L 180.199819 26.220962 
L 180.334683 24.530342 
L 180.554724 24.280653 
L 181.004126 27.355653 
L 181.237254 27.277936 
L 181.475653 25.942336 
L 181.716775 25.702053 
L 181.952198 25.780365 
L 182.311857 25.502411 
L 182.668141 25.616907 
L 182.856642 25.889307 
L 182.972183 26.257906 
L 183.210217 26.103509 
L 183.706024 26.25413 
L 184.008236 25.976124 
L 184.243069 25.181057 
L 184.866663 25.565135 
L 184.96201 25.766871 
L 185.214305 25.172223 
L 185.456212 24.156797 
L 185.79372 23.378055 
L 185.914024 23.956185 
L 186.450096 27.54095 
L 186.688066 27.037671 
L 186.926212 25.751805 
L 187.521698 26.243395 
L 187.93929 26.557246 
L 188.237062 26.728544 
L 188.65442 27.089555 
L 188.892101 27.260088 
L 189.131074 27.017597 
L 189.608368 26.826175 
L 189.845677 26.321966 
L 190.38336 27.718804 
L 190.679785 26.960529 
L 190.869436 25.654135 
L 191.157601 24.686345 
L 191.396627 25.871271 
L 191.639823 28.48168 
L 191.946866 30.251152 
L 192.117173 30.498521 
L 192.595026 27.482637 
L 192.83502 27.023544 
L 193.072666 27.556615 
L 193.31546 27.034582 
L 194.087116 23.736509 
L 194.919455 25.41277 
L 195.159734 26.553464 
L 195.454674 26.929926 
L 195.574242 26.076187 
L 195.812728 26.474186 
L 196.050762 28.142808 
L 196.348274 28.652003 
L 196.532194 26.464044 
L 196.824916 25.32785 
L 197.066503 25.257378 
L 197.302744 25.870013 
L 197.540668 25.768258 
L 197.783126 26.516005 
L 198.021222 28.433747 
L 198.278285 29.013378 
L 198.614978 27.229114 
L 198.857745 27.136046 
L 199.035959 28.887235 
L 199.627167 27.791724 
L 200.037406 29.797047 
L 200.288499 30.011383 
L 200.76342 26.712705 
L 201.023906 27.962964 
L 201.252764 27.840263 
L 201.602062 26.525913 
L 201.781853 26.629167 
L 202.020372 27.23015 
L 202.258451 28.147981 
L 202.615346 28.52192 
L 202.977069 28.257687 
L 203.271444 28.060864 
L 203.568616 28.076887 
L 203.986273 27.86711 
L 204.347506 27.817381 
L 204.462725 27.423028 
L 204.819721 27.044515 
L 205.059555 26.5504 
L 205.180009 27.121754 
L 205.723048 30.959279 
L 206.452348 29.780276 
L 206.78839 30.639273 
L 207.086054 29.692192 
L 207.443269 26.439314 
L 207.682274 25.650245 
L 207.922916 25.619249 
L 208.578156 24.835261 
L 208.70586 25.382871 
L 208.935203 25.516588 
L 209.172823 25.25879 
L 209.600943 25.489394 
L 209.830821 26.178287 
L 209.950317 27.496172 
L 210.189594 27.904952 
L 210.663532 26.064983 
L 210.903374 25.809575 
L 211.140394 25.296603 
L 211.378598 25.087897 
L 211.874719 26.121057 
L 212.333313 25.356528 
L 212.393738 23.798323 
L 212.631154 21.715242 
L 212.870117 21.077028 
L 213.168289 21.936071 
L 213.824739 27.826191 
L 214.121064 27.764982 
L 214.60033 26.576664 
L 214.837813 26.303358 
L 215.37507 27.31418 
L 215.554742 27.388276 
L 215.851328 26.129642 
L 216.089667 23.66718 
L 216.389104 22.527988 
L 216.58001 22.923791 
L 217.102957 27.318676 
L 217.400525 29.169169 
L 217.639634 29.787801 
L 217.877773 29.728774 
L 218.593264 27.68037 
L 218.776973 26.484095 
L 219.266031 25.286005 
L 219.30768 24.077765 
L 219.799306 22.6231 
L 220.04435 22.85467 
L 220.32987 22.920896 
L 220.62314 23.239286 
L 220.8622 23.666393 
L 221.162767 24.835281 
L 221.515496 28.698144 
L 221.99322 30.086882 
L 222.055181 31.331348 
L 222.292144 31.966306 
L 222.530269 32.043881 
L 222.771536 31.520493 
L 223.006647 30.237812 
L 223.248476 29.612563 
L 223.554257 6.849478 
L 223.732051 8.516696 
L 224.048213 6.497577 
L 224.26118 0.72 
L 224.738977 22.067617 
L 225.513956 44.171148 
L 225.988789 60.449418 
L 226.525541 80.840201 
L 226.707352 83.117735 
L 227.004147 80.268868 
L 227.184451 71.776361 
L 227.422827 67.337354 
L 227.479239 62.040574 
L 227.717393 62.085445 
L 227.956897 58.706851 
L 228.194151 51.118969 
L 228.491933 45.963793 
L 229.211707 29.363371 
L 229.507621 31.376436 
L 229.86666 40.807512 
L 230.173069 54.767142 
L 230.408796 64.09485 
L 230.705939 70.304232 
L 230.945101 71.696047 
L 231.630147 80.442179 
L 231.663719 79.998678 
L 232.136825 75.075282 
L 232.434509 64.219917 
L 232.915984 57.602096 
L 233.208451 56.793882 
L 233.387885 63.470331 
L 233.626662 66.976908 
L 233.864567 67.782892 
L 234.163673 75.187045 
L 234.459871 74.362469 
L 234.638675 78.25771 
L 235.11598 91.883041 
L 235.432665 95.313721 
L 235.72695 95.567892 
L 236.084479 87.237371 
L 236.384217 83.897035 
L 236.621287 77.580117 
L 236.919839 78.651742 
L 237.157824 81.188535 
L 237.395703 79.484545 
L 237.695023 82.12841 
L 237.874902 85.575993 
L 238.290534 88.356858 
L 238.828455 105.387914 
L 239.065068 104.409555 
L 239.305311 105.805923 
L 240.023237 100.290418 
L 240.317181 100.328823 
L 240.614551 101.374551 
L 240.793797 99.640741 
L 241.151839 103.436396 
L 241.389884 102.960154 
L 241.569338 103.829518 
L 241.806632 106.88547 
L 242.044896 114.746745 
L 242.641746 123.971119 
L 242.939843 124.366659 
L 243.118815 125.019005 
L 243.41606 124.728577 
L 243.539421 120.74377 
L 243.836562 121.396545 
L 244.071675 122.633211 
L 244.531837 118.204134 
L 244.760099 118.429322 
L 244.998784 116.338938 
L 245.503869 119.399141 
L 245.741822 127.069918 
L 246.202726 133.831346 
L 246.337942 138.159838 
L 246.460816 138.051877 
L 246.754794 132.929496 
L 246.994239 135.157551 
L 247.232263 135.450837 
L 247.469526 135.437257 
L 247.708076 138.458963 
L 248.125328 140.463192 
L 248.363697 138.20166 
L 248.848689 128.602658 
L 249.796994 144.940265 
L 249.91722 148.244162 
L 250.176782 149.833909 
L 250.454559 149.370881 
L 250.69308 149.602588 
L 251.171156 153.955391 
L 251.466717 153.962132 
L 251.705896 151.813176 
L 252.004037 150.66187 
L 252.243865 148.309865 
L 252.425758 144.751318 
L 252.66071 147.551307 
L 253.137428 156.796441 
L 253.437262 156.681406 
L 253.732822 158.837502 
L 253.912799 158.25356 
L 254.151034 160.972173 
L 254.629948 169.315148 
L 254.866171 169.147479 
L 255.283195 175.751545 
L 255.64118 171.307124 
L 255.702331 168.347748 
L 255.879236 167.331018 
L 256.118256 170.029031 
L 256.357 174.349474 
L 256.596713 174.559157 
L 257.013573 174.252057 
L 257.134596 174.949146 
L 257.61066 168.92846 
L 257.848051 169.274198 
L 258.20509 174.796718 
L 258.445132 175.747079 
L 258.859825 180.636247 
L 259.487917 178.242231 
L 259.730147 178.512645 
L 259.876027 180.013824 
L 260.173233 188.797898 
L 260.294447 189.015865 
L 260.591149 188.276872 
L 260.949329 183.763721 
L 261.322962 187.189641 
L 261.490067 186.026044 
L 261.602805 188.160231 
L 262.086563 192.918347 
L 262.328785 193.199054 
L 262.794199 186.695553 
L 263.151773 187.781036 
L 263.330837 186.962217 
L 263.7477 191.368185 
L 263.866901 195.855909 
L 264.105397 195.669139 
L 264.285849 197.341364 
L 264.643203 192.787421 
L 264.881961 192.076586 
L 265.058864 192.306694 
L 265.299527 198.564941 
L 265.714773 206.096523 
L 265.955612 206.075129 
L 266.191948 201.787264 
L 266.252174 197.635947 
L 266.48981 195.280187 
L 266.788459 194.244754 
L 267.09442 198.079489 
L 267.324829 203.472135 
L 267.563622 202.647064 
L 267.759853 204.852253 
L 268.099501 204.878386 
L 268.338011 204.573858 
L 268.532791 204.125518 
L 268.756773 206.876085 
L 269.233644 215.105674 
L 269.530633 214.909295 
L 269.887378 213.386352 
L 270.125731 210.343442 
L 270.245132 206.548962 
L 270.661966 207.841127 
L 270.723 211.06478 
L 270.960397 212.224923 
L 271.318588 212.538629 
L 271.561653 208.262638 
L 271.735812 207.975637 
L 271.975033 205.051604 
L 272.273994 208.478832 
L 272.454512 215.008921 
L 272.689423 215.697345 
L 272.927961 220.427905 
L 273.17533 219.360202 
L 273.464189 216.645634 
L 273.643316 213.69126 
L 273.969451 214.620721 
L 274.658263 224.083578 
L 274.845561 222.071166 
L 275.437851 212.724635 
L 275.791628 212.990541 
L 276.20821 220.645165 
L 276.393789 223.615085 
L 276.812326 221.512254 
L 277.049078 222.400879 
L 277.162083 217.924139 
L 277.590469 218.904639 
L 277.939041 226.89006 
L 278.12053 227.977799 
L 278.475781 231.63539 
L 278.624491 228.201258 
L 278.955747 227.957116 
L 279.431173 229.595829 
L 279.612332 239.051343 
L 279.907556 237.594869 
L 280.623809 225.416849 
L 280.980465 223.238064 
L 281.1601 223.728497 
L 281.594071 233.307272 
L 281.873928 228.038175 
L 282.056615 227.902769 
L 282.113657 223.620945 
L 282.351481 223.391633 
L 282.533731 221.973938 
L 282.828435 226.119659 
L 283.306338 238.928794 
L 283.66432 236.122799 
L 283.961917 237.538237 
L 284.088847 237.263942 
L 284.319934 233.394953 
L 284.563335 234.689262 
L 284.856401 239.969745 
L 285.034625 248.320961 
L 285.276257 244.786534 
L 285.690436 240.544475 
L 286.048783 228.73356 
L 286.292195 229.343869 
L 286.769413 241.280712 
L 287.007247 244.540956 
L 287.262421 237.369107 
L 287.484106 236.529846 
L 287.900764 230.846662 
L 288.024509 232.083325 
L 288.497522 246.386636 
L 288.736219 249.697004 
L 289.035046 246.171436 
L 289.24077 240.864456 
L 289.455069 232.4571 
L 289.811148 232.676367 
L 290.227704 233.987043 
L 290.347633 243.297254 
L 290.465879 242.654235 
L 290.883363 244.006275 
L 290.948755 235.215248 
L 291.225488 233.503054 
L 291.495528 237.368968 
L 291.679836 237.76355 
L 292.13465 250.216457 
L 292.194976 249.097088 
L 292.432576 248.134148 
L 292.730948 246.29713 
L 293.207555 238.510378 
L 293.504983 238.157706 
L 293.924229 251.043831 
L 294.221147 251.027009 
L 294.466574 243.665992 
L 294.698997 242.860197 
L 294.878318 235.688928 
L 295.4127 244.120009 
L 295.948103 257.768173 
L 296.426372 247.373479 
L 296.607631 243.63139 
L 296.961851 246.414158 
L 297.152314 252.924807 
L 297.620443 261.073729 
L 298.335465 235.641571 
L 298.870236 242.220708 
L 299.108436 250.943397 
L 299.60655 251.915556 
L 299.827215 241.852668 
L 300.182774 240.286137 
L 300.361705 238.596952 
L 301.079765 264.700838 
L 301.494049 254.111702 
L 301.911255 235.01558 
L 302.09056 235.946735 
L 302.447614 238.394944 
L 302.80676 249.968002 
L 303.043886 250.044274 
L 303.54503 236.335395 
L 303.826118 233.670603 
L 304.119111 240.743874 
L 304.595673 260.434227 
L 304.95287 261.354307 
L 305.252232 253.59665 
L 305.31073 244.806836 
L 305.548602 239.472976 
L 305.846457 243.636991 
L 306.02906 250.751865 
L 306.562027 262.73651 
L 306.996024 241.046097 
L 307.281744 235.88544 
L 307.656728 237.563806 
L 308.299126 250.470822 
L 308.537897 236.523556 
L 309.086734 226.037283 
L 309.313549 228.671695 
L 309.455479 234.092503 
L 309.930311 247.261211 
L 310.001814 252.707445 
L 310.708003 236.289306 
L 311.063774 239.723368 
L 311.781527 258.166641 
L 312.375319 235.544767 
L 312.501747 230.403625 
L 312.732977 228.520241 
L 313.090224 232.256049 
L 313.212638 257.328115 
L 313.568273 233.571849 
L 313.805492 206.802477 
L 314.235778 116.824437 
L 314.58015 91.21667 
L 314.701814 71.7547 
L 314.938888 54.102962 
L 315.237717 43.51003 
L 315.594079 38.2215 
L 316.016983 58.123015 
L 316.33419 76.487353 
L 316.695304 138.46178 
L 316.995565 173.431673 
L 317.110027 210.087148 
L 317.410895 237.951927 
L 317.763281 256.305476 
L 318.060545 256.391263 
L 318.359189 246.718217 
L 319.194803 220.786491 
L 319.49789 205.790516 
L 319.614865 182.800932 
L 320.14826 151.705385 
L 320.328134 151.789298 
L 320.624731 164.072509 
L 321.340325 216.389207 
L 321.584298 224.387603 
L 321.878065 224.10377 
L 322.357206 229.591973 
L 322.592008 228.051594 
L 322.840479 221.203998 
L 324.083748 160.102336 
L 324.50419 165.465405 
L 324.802157 186.522525 
L 325.812051 230.394347 
L 326.294583 238.745943 
L 326.530758 237.693709 
L 327.242305 216.840144 
L 327.301953 201.742634 
L 327.778986 180.108904 
L 328.020226 175.368792 
L 328.495475 171.642338 
L 328.794246 178.954085 
L 329.171816 184.466597 
L 329.275333 195.234412 
L 329.508337 206.474705 
L 330.162941 219.478993 
L 330.282264 221.053884 
L 330.580948 218.221751 
L 332.018819 183.933157 
L 332.248663 182.783853 
L 332.487919 185.07112 
L 333.024265 199.141787 
L 333.502737 217.366443 
L 333.980504 225.618843 
L 334.226045 227.322494 
L 334.581092 222.127414 
L 335.022935 211.082298 
L 335.469651 194.081254 
L 335.971918 180.890433 
L 336.184852 176.833483 
L 336.423478 177.722442 
L 336.663453 182.057745 
L 336.900926 190.168307 
L 337.317585 197.257207 
L 337.437428 204.310293 
L 337.916816 217.319743 
L 338.161358 218.170686 
L 338.54477 221.543864 
L 338.658091 216.352359 
L 338.944233 212.405207 
L 338.991294 209.031363 
L 339.945144 187.671819 
L 340.12328 186.268274 
L 340.421547 185.710679 
L 340.898441 193.731728 
L 341.917182 217.470641 
L 342.091832 218.218819 
L 342.390217 214.711707 
L 343.224194 200.244737 
L 343.364331 191.911513 
L 343.819625 181.265119 
L 344.2367 179.59959 
L 344.355474 179.79815 
L 344.654162 183.843594 
L 345.381281 205.80927 
L 345.793405 215.068506 
L 346.084919 219.140564 
L 346.386542 219.405475 
L 346.623265 216.130422 
L 346.800697 215.439285 
L 348.051726 186.863054 
L 348.470912 187.793662 
L 348.531021 192.143361 
L 349.025631 201.494359 
L 349.25029 206.56888 
L 349.603408 209.506185 
L 350.139628 218.0066 
L 350.26536 219.15083 
L 350.557034 215.385494 
L 350.855204 213.809315 
L 351.033535 206.265958 
L 351.272515 201.352201 
L 351.510253 190.248226 
L 351.86755 190.891021 
L 352.048182 186.747891 
L 352.643325 189.39818 
L 353.001631 198.722621 
L 353.358236 201.579524 
L 353.656081 207.900411 
L 353.777296 213.27306 
L 354.192068 214.762188 
L 354.26785 216.662281 
L 354.49016 217.045367 
L 355.563366 195.560601 
L 355.691361 194.746487 
L 355.993376 191.931763 
L 356.230389 192.5122 
L 357.232346 204.285815 
L 357.414082 209.697067 
L 358.067321 216.724752 
L 358.200121 216.209374 
L 358.619507 211.581217 
L 358.726755 208.449673 
L 358.964857 205.806271 
L 359.448191 198.642238 
L 359.918637 195.003074 
L 360.223373 195.656478 
L 360.464925 198.066613 
L 360.754514 197.236611 
L 360.876193 203.221457 
L 361.129106 204.100249 
L 361.415503 205.854247 
L 361.661674 205.757537 
L 362.185637 210.167112 
L 362.950189 204.699255 
L 363.20353 199.690359 
L 363.423447 201.121985 
L 363.622003 199.944417 
L 363.916371 200.696581 
L 364.393153 197.934731 
L 364.630544 199.377109 
L 365.345698 206.824483 
L 365.643635 205.020866 
L 366.120566 209.869464 
L 366.430486 212.271768 
L 367.313284 197.502237 
L 367.613202 197.059824 
L 367.848153 199.077903 
L 368.164973 199.379348 
L 368.328014 198.183833 
L 368.629685 201.543008 
L 368.92628 202.927797 
L 369.34484 209.645213 
L 369.529356 210.462987 
L 369.821758 209.955768 
L 370.240307 206.317786 
L 370.360723 208.43386 
L 370.716213 205.723171 
L 370.778089 203.615385 
L 371.015218 202.151631 
L 371.312315 201.673752 
L 371.555098 199.180715 
L 371.789135 198.960805 
L 372.027824 199.902945 
L 372.572937 202.923561 
L 372.861574 203.388656 
L 373.223258 204.718288 
L 373.518933 208.093132 
L 373.93445 209.573731 
L 373.993192 202.777511 
L 374.356468 205.556689 
L 374.64956 205.39993 
L 374.71244 204.470912 
L 375.080509 204.151904 
L 375.841426 196.597143 
L 376.021182 195.449083 
L 376.325316 197.275282 
L 376.501063 196.672054 
L 376.735908 201.674594 
L 377.154139 203.004342 
L 377.275259 203.952046 
L 377.454122 207.240404 
L 377.691085 208.63713 
L 377.97089 207.092451 
L 378.228234 207.005868 
L 378.467507 205.951248 
L 378.705786 204.256655 
L 379.003346 204.497113 
L 379.182787 200.35279 
L 379.541591 199.518461 
L 379.77876 197.648978 
L 379.957593 198.816101 
L 380.315476 200.103742 
L 380.43452 203.240977 
L 380.971538 208.334653 
L 381.209422 207.859413 
L 381.744983 205.234325 
L 382.170296 205.326566 
L 382.401177 204.613782 
L 382.640935 204.761716 
L 383.116642 199.588155 
L 383.414778 198.983022 
L 383.653191 200.202582 
L 383.891272 203.755901 
L 384.36784 204.254949 
L 384.608478 203.961165 
L 385.024513 203.727448 
L 385.141968 205.325198 
L 385.442062 205.684743 
L 385.737779 206.888803 
L 385.982328 205.391163 
L 386.154941 207.045941 
L 386.633083 202.967609 
L 387.288124 203.615541 
L 387.408358 206.516022 
L 387.704159 201.886189 
L 387.883735 201.915305 
L 388.12156 200.287799 
L 388.360572 201.9114 
L 388.657811 202.460354 
L 389.078696 205.682199 
L 389.373409 206.205046 
L 389.85151 205.31286 
L 390.209139 204.901824 
L 390.327434 205.888199 
L 390.566718 206.119754 
L 390.866233 204.363003 
L 391.283443 205.045342 
L 391.578394 204.596096 
L 391.956832 204.566487 
L 392.061414 205.40058 
L 392.294363 204.111361 
L 392.534085 206.479807 
L 392.775135 205.645927 
L 392.832412 204.580382 
L 393.014287 203.596652 
L 393.427847 205.306786 
L 393.65145 202.407364 
L 393.785792 203.898882 
L 394.261973 204.986495 
L 394.798172 205.263952 
L 395.156539 206.481105 
L 395.275553 208.166738 
L 395.574048 208.259159 
L 396.050757 209.615754 
L 397.006497 203.982613 
L 397.24286 203.261768 
L 397.480824 203.84431 
L 398.01748 199.98378 
L 398.255879 197.068634 
L 398.493969 196.578658 
L 398.732782 193.986542 
L 399.032184 193.956529 
L 399.38968 196.065511 
L 399.629341 198.18654 
L 399.867123 198.099498 
L 399.986143 204.406194 
L 400.464749 207.492535 
L 400.710246 210.958817 
L 401.000306 213.12787 
L 401.476641 212.201741 
L 401.775515 211.70331 
L 402.253688 205.579944 
L 402.431344 207.66705 
L 402.669635 205.814438 
L 403.162416 205.4412 
L 403.206332 205.105978 
L 403.397622 202.466313 
L 403.633589 203.479215 
L 403.922551 202.968899 
L 404.188901 201.379973 
L 404.402506 200.839056 
L 404.641312 202.255629 
L 404.947887 199.918562 
L 405.175669 202.940363 
L 405.385104 202.866531 
L 405.65268 202.651192 
L 405.894417 200.798456 
L 406.132636 202.906477 
L 406.426561 203.102345 
L 406.667313 204.80659 
L 406.963223 205.001462 
L 407.144113 202.078634 
L 407.380891 202.092819 
L 407.619993 204.244043 
L 407.860801 204.583769 
L 408.217822 206.022969 
L 408.398363 203.345318 
L 408.636507 207.212157 
L 408.917998 208.324639 
L 409.234688 208.469292 
L 409.470635 209.982292 
L 409.589722 205.265047 
L 409.829013 203.124411 
L 410.126347 203.502397 
L 410.606015 199.002553 
L 410.844374 199.923586 
L 411.143152 199.777083 
L 411.320402 201.299117 
L 411.857209 202.863219 
L 412.096215 208.090902 
L 412.512689 208.179994 
L 412.58546 210.119288 
L 412.87158 210.018885 
L 413.062343 208.750711 
L 413.456757 210.085178 
L 413.584819 206.563116 
L 414.11483 204.238581 
L 414.472681 202.948066 
L 414.533583 203.255453 
L 414.830286 201.050649 
L 415.068038 201.967423 
L 415.559664 205.088779 
L 415.96323 205.133443 
L 416.023198 206.098463 
L 416.563927 206.797863 
L 416.805148 205.245208 
L 417.002271 205.783846 
L 417.276707 202.109405 
L 417.756951 200.699353 
L 418.471725 201.441834 
L 418.530943 202.593069 
L 418.770431 201.852388 
L 419.126668 202.715079 
L 419.487583 206.043703 
L 419.724077 208.062754 
L 419.962564 208.296017 
L 420.281437 209.336219 
L 420.501517 209.229769 
L 420.738015 205.963681 
L 420.975057 205.707258 
L 421.214128 204.095944 
L 421.512226 203.008008 
L 421.693249 201.256042 
L 422.225812 199.887498 
L 422.234324 216.529584 
L 422.468961 200.173103 
L 422.825214 201.899377 
L 423.004989 202.138556 
L 423.252127 203.514245 
L 423.484338 203.745503 
L 423.840978 205.374806 
L 423.960579 207.935423 
L 424.145321 207.346961 
L 424.43705 207.065431 
L 424.675708 207.332936 
L 425.155055 206.448698 
L 425.574673 203.10993 
L 425.629286 206.147293 
L 426.40654 199.627636 
L 426.64547 198.966154 
L 427.065099 198.987546 
L 427.190077 200.373186 
L 427.445399 199.140032 
L 427.659166 200.760118 
L 427.90644 201.183252 
L 427.958088 199.870578 
L 428.19698 200.144163 
L 428.619145 205.987021 
L 428.8559 209.137632 
L 429.151322 210.559423 
L 429.39598 209.612284 
L 429.628082 207.734878 
L 429.867272 210.01334 
L 430.10485 210.992834 
L 430.344322 210.620232 
L 430.903823 207.315557 
L 431.121983 206.990852 
L 431.357652 196.31781 
L 431.597523 198.009894 
L 431.843497 204.820316 
L 432.328044 230.471922 
L 432.821237 262.295956 
L 433.156978 271.919081 
L 433.594031 276.68066 
L 433.87843 276.345222 
L 434.121676 277.92 
L 434.414608 276.801157 
L 435.198864 242.871485 
L 435.318081 223.30248 
L 435.793016 203.142221 
L 436.324342 196.533486 
L 436.862153 194.336144 
L 437.100266 194.728989 
L 437.400723 194.551824 
L 437.640155 203.258158 
L 437.947846 207.374282 
L 438.242412 216.512237 
L 438.507695 221.276374 
L 438.778576 222.29314 
L 439.093849 222.345576 
L 439.259491 221.276491 
L 439.813723 209.061742 
L 440.027646 201.776471 
L 440.505242 194.379194 
L 440.743769 193.654304 
L 440.985603 194.495611 
L 441.360449 198.444666 
L 441.460589 202.149456 
L 441.817555 206.460127 
L 442.476381 220.122986 
L 442.882088 219.846668 
L 443.119643 220.217149 
L 443.306995 217.817671 
L 443.537398 218.536867 
L 444.193965 199.135655 
L 444.670741 196.722682 
L 444.792607 193.284065 
L 445.029606 192.577797 
L 445.566243 201.302611 
L 445.69185 202.23792 
L 446.223006 214.987923 
L 446.703529 221.074053 
L 446.93948 220.838152 
L 447.4174 216.770543 
L 447.656135 215.554751 
L 448.138367 206.759091 
L 448.625267 199.635 
L 448.91479 199.668127 
L 449.152725 201.359726 
L 449.392189 206.020822 
L 449.808343 207.203006 
L 449.89612 208.984049 
L 450.16705 207.812217 
L 450.46407 207.768888 
L 450.761942 207.905474 
L 450.94209 205.090011 
L 451.180519 204.815432 
L 451.839194 190.566848 
L 452.077357 186.390951 
L 452.326715 187.29511 
L 452.613173 187.127251 
L 452.864845 190.497341 
L 453.098099 196.841503 
L 453.469682 199.929499 
L 453.632802 204.807287 
L 453.689602 204.431918 
L 453.809319 205.679642 
L 454.134366 206.925089 
L 454.345201 211.222026 
L 454.765606 211.21969 
L 454.847127 211.779121 
L 455.961335 200.696434 
L 456.150748 196.578058 
L 456.566905 198.117957 
L 456.984034 195.852073 
L 457.044693 196.979023 
L 457.462645 197.92175 
L 457.700957 199.621319 
L 457.762486 202.237814 
L 458.176246 207.394381 
L 458.295734 206.64849 
L 458.535771 210.509819 
L 458.772737 211.05577 
L 459.548312 216.10176 
L 459.792529 215.424449 
L 459.846799 214.126436 
L 460.026983 214.101415 
L 460.264394 214.45916 
L 460.505547 208.62768 
L 460.801349 208.289866 
L 460.981197 210.729637 
L 461.461133 214.17465 
L 461.759676 218.448773 
L 461.997667 216.435378 
L 462.240011 217.085613 
L 462.535859 214.583076 
L 462.954361 214.980319 
L 463.439137 208.438265 
L 463.848593 204.917924 
L 463.995751 200.202991 
L 464.468285 194.836831 
L 464.68398 193.649862 
L 464.923343 193.404015 
L 465.710789 200.74995 
L 466.663185 204.402316 
L 466.961408 206.874115 
L 467.199234 206.383168 
L 467.597038 206.918237 
L 467.744427 204.686578 
L 467.921045 205.069461 
L 468.454257 199.810509 
L 468.761166 200.597484 
L 468.931187 200.014433 
L 469.179483 201.262378 
L 469.542461 201.7308 
L 469.64942 202.360542 
L 469.893371 202.528462 
L 470.128335 203.898942 
L 470.435389 202.909226 
L 470.683137 201.214122 
L 470.906718 200.676322 
L 471.143739 199.387196 
L 471.389817 199.712064 
L 471.682015 197.528951 
L 471.865224 194.428599 
L 472.16172 191.897632 
L 472.456786 191.21762 
L 472.636186 190.463463 
L 473.054076 194.158962 
L 473.172886 196.831008 
L 473.400235 198.925405 
L 473.868197 204.380309 
L 474.170263 203.430204 
L 474.354868 208.508975 
L 474.645427 209.601483 
L 474.949827 209.27718 
L 475.125654 211.768586 
L 475.315542 210.855299 
L 475.601585 208.043287 
L 475.840459 207.547834 
L 476.079329 206.12714 
L 476.555932 199.120701 
L 476.795462 201.019868 
L 477.212458 201.616043 
L 477.361592 199.764493 
L 477.749946 203.179199 
L 477.868828 201.226985 
L 478.107403 200.561376 
L 478.345862 197.064343 
L 478.643526 197.338847 
L 478.775738 195.171979 
L 479.035221 194.024614 
L 479.305237 194.797868 
L 480.01865 184.549267 
L 480.259337 179.01202 
L 480.639147 179.727926 
L 480.797255 179.219195 
L 481.032858 182.904968 
L 481.30086 183.282381 
L 482.112202 188.378357 
L 482.301583 187.097513 
L 482.54011 187.435096 
L 482.796157 191.707589 
L 483.087039 192.525721 
L 483.208624 195.851809 
L 483.500877 195.103632 
L 483.799178 193.329811 
L 484.097273 193.116052 
L 484.216787 190.899328 
L 484.514676 191.127523 
L 484.761105 194.253711 
L 485.008903 193.712904 
L 485.470722 196.114143 
L 486.007356 200.738711 
L 486.483328 203.018061 
L 486.721699 205.551326 
L 487.206514 208.622178 
L 487.440359 208.533842 
L 487.677248 206.146909 
L 488.037454 204.492357 
L 488.214516 202.632213 
L 488.455338 198.349576 
L 488.751713 198.622596 
L 488.931602 197.799617 
L 489.288177 198.041005 
L 489.540319 199.551563 
L 489.706772 199.492197 
L 490.005091 198.402458 
L 490.242896 198.785762 
L 490.481391 197.883761 
L 490.683853 197.776291 
L 491.201618 199.169071 
L 491.494573 197.738663 
L 491.741352 198.035935 
L 492.154206 193.643369 
L 492.390345 194.157309 
L 492.705805 193.65774 
L 492.884784 195.480658 
L 493.122928 196.111049 
L 493.601015 198.512226 
L 493.66099 201.80694 
L 493.95881 200.619064 
L 494.141209 201.8795 
L 494.380638 202.393101 
L 494.614303 202.396371 
L 494.912142 203.856107 
L 495.092642 205.744954 
L 495.391562 204.033697 
L 495.688062 203.887722 
L 495.866611 201.255174 
L 496.169394 198.696615 
L 496.407336 194.820955 
L 496.644163 194.380705 
L 497.122047 189.892082 
L 497.602808 187.305415 
L 498.621652 178.15983 
L 498.860584 178.438839 
L 499.337413 175.719411 
L 499.576371 176.456887 
L 500.113488 179.654664 
L 500.293182 177.689416 
L 500.609204 178.574798 
L 500.650281 178.241289 
L 500.829084 177.958233 
L 501.130331 183.112683 
L 501.425955 182.855881 
L 501.604394 184.53366 
L 502.085048 186.7618 
L 502.142852 186.629397 
L 502.321119 182.258807 
L 502.758604 177.286806 
L 503.051282 176.590539 
L 503.27591 176.448216 
L 503.515493 178.068317 
L 503.872555 178.145883 
L 504.051407 175.537555 
L 504.229888 175.616184 
L 504.650095 174.00373 
L 504.707569 175.644367 
L 505.069486 175.832401 
L 505.311707 178.624745 
L 505.78225 181.584078 
L 506.020268 182.169925 
L 506.266043 180.617232 
L 506.569872 182.027119 
L 506.746757 181.199811 
L 507.231373 183.941654 
L 507.475334 186.872394 
L 508.005894 188.619279 
L 508.190358 184.038361 
L 508.485193 185.263917 
L 508.787092 180.354537 
L 509.01986 184.560499 
L 509.275368 185.922041 
L 509.498512 182.432285 
L 509.921977 184.651234 
L 509.97473 182.955517 
L 510.21317 183.561043 
L 510.631246 180.957087 
L 510.691646 179.856634 
L 510.932276 178.598318 
L 511.427141 178.992586 
L 511.94593 176.643817 
L 512.42372 170.82367 
L 512.662927 169.368251 
L 512.902669 165.878818 
L 513.214663 171.152071 
L 513.619081 169.664668 
L 513.68035 172.543041 
L 513.915563 171.043259 
L 514.39837 171.309719 
L 514.571539 170.405215 
L 514.703169 168.312962 
L 514.890518 170.254028 
L 515.247869 169.80086 
L 515.468485 171.22369 
L 515.690172 171.333214 
L 515.918439 171.921845 
L 516.15758 171.666176 
L 516.400242 172.964368 
L 516.762513 171.495526 
L 516.922212 175.263957 
L 517.159528 177.718233 
L 517.51651 180.053348 
L 517.702683 183.758556 
L 518.173168 182.106653 
L 518.480489 183.174403 
L 518.653123 182.586159 
L 518.951708 181.055851 
L 519.130101 182.527247 
L 519.725267 180.972243 
L 519.86004 180.397176 
L 520.141772 178.51494 
L 520.439599 182.157233 
L 520.621899 178.651961 
L 520.859464 179.485859 
L 521.39507 157.931736 
L 522.117242 115.966418 
L 522.363738 106.742749 
L 522.827932 98.724266 
L 523.266623 96.187338 
L 523.497826 96.024568 
L 523.843711 102.040627 
L 524.380779 152.226695 
L 524.857058 168.902052 
L 524.9168 180.566876 
L 525.403427 192.419257 
L 525.692727 193.663735 
L 525.814188 193.381398 
L 526.316015 191.725579 
L 526.890514 175.850824 
L 527.008656 168.446612 
L 527.314102 162.258989 
L 527.911085 156.639172 
L 528.28225 158.053283 
L 528.505796 161.91476 
L 529.166701 178.814691 
L 529.284939 181.606131 
L 529.533417 181.766493 
L 529.890641 179.437386 
L 530.247674 172.162208 
L 530.664454 167.880271 
L 531.621121 151.162232 
L 531.88268 150.568553 
L 532.275662 158.857477 
L 533.23581 186.179754 
L 533.470149 188.536995 
L 533.72434 187.626584 
L 534.245028 182.316728 
L 535.504579 158.106064 
L 535.801994 156.114693 
L 535.979304 156.986819 
L 536.526316 165.025798 
L 536.938388 177.261338 
L 537.241818 181.817386 
L 537.709664 185.368716 
L 537.923297 185.34437 
L 538.187608 184.2932 
L 538.905185 177.744652 
L 539.439601 173.212237 
L 539.680701 173.017953 
L 539.916955 174.526716 
L 540.155601 177.638421 
L 540.924843 191.085192 
L 541.177946 193.977173 
L 541.483777 195.219345 
L 541.832702 195.065149 
L 542.137411 192.082125 
L 542.613306 185.659737 
L 543.385554 172.642765 
L 543.625901 170.802934 
L 543.867082 171.326142 
L 544.419445 175.239792 
L 544.997465 179.3154 
L 545.177199 180.217077 
L 545.613251 180.707693 
L 546.191021 175.606346 
L 546.311255 171.989938 
L 547.086927 162.15608 
L 547.328605 160.788542 
L 547.562717 161.251351 
L 547.800201 163.373242 
L 548.874603 177.588973 
L 549.053617 179.577912 
L 549.551337 181.453295 
L 549.769221 181.394247 
L 550.187418 179.805099 
L 550.496407 174.200677 
L 550.901628 170.967289 
L 551.264901 167.245476 
L 551.511124 167.534148 
L 552.035323 170.807909 
L 552.395465 173.181579 
L 552.516451 175.754557 
L 552.989968 178.580452 
L 553.231918 179.170343 
L 553.531832 179.473637 
L 553.764774 178.629961 
L 554.122134 176.832764 
L 554.984158 165.871357 
L 555.281591 164.563714 
L 555.654441 164.643159 
L 555.937535 165.564881 
L 556.966916 170.141458 
L 557.459078 170.232257 
L 557.570223 169.966699 
L 557.743454 169.986255 
L 557.960614 169.30394 
L 558.43799 166.377684 
L 558.695445 165.982546 
L 558.974965 166.848285 
L 559.509203 171.840644 
L 559.92538 178.575522 
L 560.468553 180.693794 
L 560.652229 182.690421 
L 561.186721 185.375518 
L 561.37958 185.116268 
L 561.675585 182.494336 
L 562.153707 174.716667 
L 562.879261 168.285174 
L 563.168071 167.633955 
L 563.541892 167.935397 
L 563.663332 169.298514 
L 564.063923 170.944574 
L 564.36587 174.236933 
L 564.602546 175.152107 
L 564.899658 175.168893 
L 565.099238 174.6571 
L 565.616165 171.385979 
L 566.41619 166.814662 
L 566.807687 166.610786 
L 567.348511 171.217055 
L 568.36386 183.70185 
L 568.666409 185.009879 
L 568.905048 184.773415 
L 569.258048 183.810426 
L 569.317197 182.795026 
L 569.495961 181.848497 
L 569.556614 179.566502 
L 570.180186 174.45475 
L 570.296782 171.154275 
L 571.090269 163.932455 
L 571.312124 163.457214 
L 571.551927 164.290576 
L 571.854597 166.72975 
L 572.030259 169.480596 
L 573.047077 173.409628 
L 573.343047 174.503093 
L 573.705169 174.986311 
L 573.889969 174.501798 
L 574.30091 170.14967 
L 574.655476 168.740873 
L 574.970739 170.417908 
L 575.509254 171.027711 
L 575.806683 171.803044 
L 576.639918 176.830363 
L 576.819632 177.257595 
L 577.176708 175.50025 
L 577.715511 169.603237 
L 577.951032 170.218862 
L 578.309387 170.684038 
L 578.55534 169.858065 
L 578.728967 168.719158 
L 579.051607 168.250609 
L 579.234913 168.831625 
L 579.707111 171.989903 
L 580.001437 172.450624 
L 580.238885 172.590369 
L 580.67193 172.567654 
L 580.954797 172.688881 
L 581.503861 171.617669 
L 581.67021 170.611558 
L 582.446877 169.363848 
L 583.282015 166.241577 
L 583.460499 166.832143 
L 583.519781 167.99311 
L 583.93793 169.340334 
L 584.35554 174.176148 
L 584.712611 174.466077 
L 584.891392 174.41859 
L 585.399086 176.358919 
L 585.63542 176.323396 
L 585.787329 175.811736 
L 586.619088 166.226428 
L 586.989148 166.050117 
L 587.875755 171.652625 
L 588.64969 173.716945 
L 588.888745 175.203655 
L 589.128115 175.568071 
L 589.546397 174.10994 
L 589.612081 172.356163 
L 589.849898 171.029769 
L 590.201208 170.258041 
L 590.339608 170.5345 
L 590.564453 170.143523 
L 590.858037 170.221535 
L 591.098088 170.591987 
L 591.336211 170.686695 
L 591.644742 170.936213 
L 591.94111 171.90426 
L 592.179709 174.08511 
L 592.35766 174.16143 
L 592.599352 172.802185 
L 592.95496 172.15889 
L 593.252524 172.261982 
L 593.612706 170.821477 
L 593.789061 171.070418 
L 594.038067 170.727763 
L 594.265573 170.7992 
L 594.510253 169.580118 
L 595.041953 168.915829 
L 595.776521 172.677727 
L 595.995268 172.909801 
L 596.502813 172.851364 
L 596.502813 172.851364 
" clip-path="url(#p760c7a5fc2)" style="fill: none; stroke: #ff0000; stroke-opacity: 0.7; stroke-width: 1.5; stroke-linecap: square"/>
   </g>
   <g id="patch_3">
    <path d="M 38.502813 277.92 
L 38.502813 0.72 
" style="fill: none; stroke: #000000; stroke-width: 0.8; stroke-linejoin: miter; stroke-linecap: square"/>
   </g>
   <g id="patch_4">
    <path d="M 596.502813 277.92 
L 596.502813 0.72 
" style="fill: none; stroke: #000000; stroke-width: 0.8; stroke-linejoin: miter; stroke-linecap: square"/>
   </g>
   <g id="patch_5">
    <path d="M 38.502813 277.92 
L 596.502813 277.92 
" style="fill: none; stroke: #000000; stroke-width: 0.8; stroke-linejoin: miter; stroke-linecap: square"/>
   </g>
   <g id="patch_6">
    <path d="M 38.502813 0.72 
L 596.502813 0.72 
" style="fill: none; stroke: #000000; stroke-width: 0.8; stroke-linejoin: miter; stroke-linecap: square"/>
   </g>
   <g id="legend_1">
    <g id="patch_7">
     <path d="M 515.734063 38.07625 
L 589.502813 38.07625 
Q 591.502813 38.07625 591.502813 36.07625 
L 591.502813 7.72 
Q 591.502813 5.72 589.502813 5.72 
L 515.734063 5.72 
Q 513.734063 5.72 513.734063 7.72 
L 513.734063 36.07625 
Q 513.734063 38.07625 515.734063 38.07625 
z
" style="fill: #ffffff; opacity: 0.8; stroke: #cccccc; stroke-linejoin: miter"/>
    </g>
    <g id="line2d_31">
     <path d="M 517.734063 13.818438 
L 527.734063 13.818438 
L 537.734063 13.818438 
" style="fill: none; stroke: #0000ff; stroke-opacity: 0.7; stroke-width: 1.5; stroke-linecap: square"/>
    </g>
    <g id="text_17">
     <!-- RNEA -->
     <g transform="translate(545.734063 17.318438) scale(0.1 -0.1)">
      <defs>
       <path id="DejaVuSans-52" d="M 2841 2188 
Q 3044 2119 3236 1894 
Q 3428 1669 3622 1275 
L 4263 0 
L 3584 0 
L 2988 1197 
Q 2756 1666 2539 1819 
Q 2322 1972 1947 1972 
L 1259 1972 
L 1259 0 
L 628 0 
L 628 4666 
L 2053 4666 
Q 2853 4666 3247 4331 
Q 3641 3997 3641 3322 
Q 3641 2881 3436 2590 
Q 3231 2300 2841 2188 
z
M 1259 4147 
L 1259 2491 
L 2053 2491 
Q 2509 2491 2742 2702 
Q 2975 2913 2975 3322 
Q 2975 3731 2742 3939 
Q 2509 4147 2053 4147 
L 1259 4147 
z
" transform="scale(0.015625)"/>
       <path id="DejaVuSans-45" d="M 628 4666 
L 3578 4666 
L 3578 4134 
L 1259 4134 
L 1259 2753 
L 3481 2753 
L 3481 2222 
L 1259 2222 
L 1259 531 
L 3634 531 
L 3634 0 
L 628 0 
L 628 4666 
z
" transform="scale(0.015625)"/>
       <path id="DejaVuSans-41" d="M 2188 4044 
L 1331 1722 
L 3047 1722 
L 2188 4044 
z
M 1831 4666 
L 2547 4666 
L 4325 0 
L 3669 0 
L 3244 1197 
L 1141 1197 
L 716 0 
L 50 0 
L 1831 4666 
z
" transform="scale(0.015625)"/>
      </defs>
      <use xlink:href="#DejaVuSans-52"/>
      <use xlink:href="#DejaVuSans-4e" x="69.482422"/>
      <use xlink:href="#DejaVuSans-45" x="144.287109"/>
      <use xlink:href="#DejaVuSans-41" x="207.470703"/>
     </g>
    </g>
    <g id="line2d_32">
     <path d="M 517.734063 28.496563 
L 527.734063 28.496563 
L 537.734063 28.496563 
" style="fill: none; stroke: #ff0000; stroke-opacity: 0.7; stroke-width: 1.5; stroke-linecap: square"/>
    </g>
    <g id="text_18">
     <!-- BURNEA -->
     <g transform="translate(545.734063 31.996563) scale(0.1 -0.1)">
      <defs>
       <path id="DejaVuSans-42" d="M 1259 2228 
L 1259 519 
L 2272 519 
Q 2781 519 3026 730 
Q 3272 941 3272 1375 
Q 3272 1813 3026 2020 
Q 2781 2228 2272 2228 
L 1259 2228 
z
M 1259 4147 
L 1259 2741 
L 2194 2741 
Q 2656 2741 2882 2914 
Q 3109 3088 3109 3444 
Q 3109 3797 2882 3972 
Q 2656 4147 2194 4147 
L 1259 4147 
z
M 628 4666 
L 2241 4666 
Q 2963 4666 3353 4366 
Q 3744 4066 3744 3513 
Q 3744 3084 3544 2831 
Q 3344 2578 2956 2516 
Q 3422 2416 3680 2098 
Q 3938 1781 3938 1306 
Q 3938 681 3513 340 
Q 3088 0 2303 0 
L 628 0 
L 628 4666 
z
" transform="scale(0.015625)"/>
       <path id="DejaVuSans-55" d="M 556 4666 
L 1191 4666 
L 1191 1831 
Q 1191 1081 1462 751 
Q 1734 422 2344 422 
Q 2950 422 3222 751 
Q 3494 1081 3494 1831 
L 3494 4666 
L 4128 4666 
L 4128 1753 
Q 4128 841 3676 375 
Q 3225 -91 2344 -91 
Q 1459 -91 1007 375 
Q 556 841 556 1753 
L 556 4666 
z
" transform="scale(0.015625)"/>
      </defs>
      <use xlink:href="#DejaVuSans-42"/>
      <use xlink:href="#DejaVuSans-55" x="68.603516"/>
      <use xlink:href="#DejaVuSans-52" x="141.796875"/>
      <use xlink:href="#DejaVuSans-4e" x="211.279297"/>
      <use xlink:href="#DejaVuSans-45" x="286.083984"/>
      <use xlink:href="#DejaVuSans-41" x="349.267578"/>
     </g>
    </g>
   </g>
  </g>
 </g>
 <defs>
  <clipPath id="p760c7a5fc2">
   <rect x="38.502813" y="0.72" width="558" height="277.2"/>
  </clipPath>
 </defs>
</svg>
