<?xml version="1.0" encoding="utf-8" standalone="no"?>
<!DOCTYPE svg PUBLIC "-//W3C//DTD SVG 1.1//EN"
  "http://www.w3.org/Graphics/SVG/1.1/DTD/svg11.dtd">
<svg xmlns:xlink="http://www.w3.org/1999/xlink" width="597.222813pt" height="304.99625pt" viewBox="0 0 597.222813 304.99625" xmlns="http://www.w3.org/2000/svg" version="1.1">
 <metadata>
  <rdf:RDF xmlns:dc="http://purl.org/dc/elements/1.1/" xmlns:cc="http://creativecommons.org/ns#" xmlns:rdf="http://www.w3.org/1999/02/22-rdf-syntax-ns#">
   <cc:Work>
    <dc:type rdf:resource="http://purl.org/dc/dcmitype/StillImage"/>
    <dc:date>2023-09-05T13:16:53.768708</dc:date>
    <dc:format>image/svg+xml</dc:format>
    <dc:creator>
     <cc:Agent>
      <dc:title>Matplotlib v3.7.2, https://matplotlib.org/</dc:title>
     </cc:Agent>
    </dc:creator>
   </cc:Work>
  </rdf:RDF>
 </metadata>
 <defs>
  <style type="text/css">*{stroke-linejoin: round; stroke-linecap: butt}</style>
 </defs>
 <g id="figure_1">
  <g id="patch_1">
   <path d="M -0 304.99625 
L 597.222813 304.99625 
L 597.222813 0 
L -0 0 
L -0 304.99625 
z
" style="fill: none"/>
  </g>
  <g id="axes_1">
   <g id="patch_2">
    <path d="M 38.502813 277.92 
L 596.502813 277.92 
L 596.502813 0.72 
L 38.502813 0.72 
L 38.502813 277.92 
z
" style="fill: none"/>
   </g>
   <g id="matplotlib.axis_1">
    <g id="xtick_1">
     <g id="line2d_1">
      <path d="M 38.502813 277.92 
L 38.502813 0.72 
" clip-path="url(#p9afd43e5ca)" style="fill: none; stroke-dasharray: 0.8,1.32; stroke-dashoffset: 0; stroke: #000000; stroke-opacity: 0.5; stroke-width: 0.8"/>
     </g>
     <g id="line2d_2">
      <defs>
       <path id="mabe90e216b" d="M 0 0 
L 0 3.5 
" style="stroke: #000000; stroke-width: 0.8"/>
      </defs>
      <g>
       <use xlink:href="#mabe90e216b" x="38.502813" y="277.92" style="stroke: #000000; stroke-width: 0.8"/>
      </g>
     </g>
     <g id="text_1">
      <!-- 0.0 -->
      <g transform="translate(30.55125 292.518438) scale(0.1 -0.1)">
       <defs>
        <path id="DejaVuSans-30" d="M 2034 4250 
Q 1547 4250 1301 3770 
Q 1056 3291 1056 2328 
Q 1056 1369 1301 889 
Q 1547 409 2034 409 
Q 2525 409 2770 889 
Q 3016 1369 3016 2328 
Q 3016 3291 2770 3770 
Q 2525 4250 2034 4250 
z
M 2034 4750 
Q 2819 4750 3233 4129 
Q 3647 3509 3647 2328 
Q 3647 1150 3233 529 
Q 2819 -91 2034 -91 
Q 1250 -91 836 529 
Q 422 1150 422 2328 
Q 422 3509 836 4129 
Q 1250 4750 2034 4750 
z
" transform="scale(0.015625)"/>
        <path id="DejaVuSans-2e" d="M 684 794 
L 1344 794 
L 1344 0 
L 684 0 
L 684 794 
z
" transform="scale(0.015625)"/>
       </defs>
       <use xlink:href="#DejaVuSans-30"/>
       <use xlink:href="#DejaVuSans-2e" x="63.623047"/>
       <use xlink:href="#DejaVuSans-30" x="95.410156"/>
      </g>
     </g>
    </g>
    <g id="xtick_2">
     <g id="line2d_3">
      <path d="M 112.654137 277.92 
L 112.654137 0.72 
" clip-path="url(#p9afd43e5ca)" style="fill: none; stroke-dasharray: 0.8,1.32; stroke-dashoffset: 0; stroke: #000000; stroke-opacity: 0.5; stroke-width: 0.8"/>
     </g>
     <g id="line2d_4">
      <g>
       <use xlink:href="#mabe90e216b" x="112.654137" y="277.92" style="stroke: #000000; stroke-width: 0.8"/>
      </g>
     </g>
     <g id="text_2">
      <!-- 2.5 -->
      <g transform="translate(104.702575 292.518438) scale(0.1 -0.1)">
       <defs>
        <path id="DejaVuSans-32" d="M 1228 531 
L 3431 531 
L 3431 0 
L 469 0 
L 469 531 
Q 828 903 1448 1529 
Q 2069 2156 2228 2338 
Q 2531 2678 2651 2914 
Q 2772 3150 2772 3378 
Q 2772 3750 2511 3984 
Q 2250 4219 1831 4219 
Q 1534 4219 1204 4116 
Q 875 4013 500 3803 
L 500 4441 
Q 881 4594 1212 4672 
Q 1544 4750 1819 4750 
Q 2544 4750 2975 4387 
Q 3406 4025 3406 3419 
Q 3406 3131 3298 2873 
Q 3191 2616 2906 2266 
Q 2828 2175 2409 1742 
Q 1991 1309 1228 531 
z
" transform="scale(0.015625)"/>
        <path id="DejaVuSans-35" d="M 691 4666 
L 3169 4666 
L 3169 4134 
L 1269 4134 
L 1269 2991 
Q 1406 3038 1543 3061 
Q 1681 3084 1819 3084 
Q 2600 3084 3056 2656 
Q 3513 2228 3513 1497 
Q 3513 744 3044 326 
Q 2575 -91 1722 -91 
Q 1428 -91 1123 -41 
Q 819 9 494 109 
L 494 744 
Q 775 591 1075 516 
Q 1375 441 1709 441 
Q 2250 441 2565 725 
Q 2881 1009 2881 1497 
Q 2881 1984 2565 2268 
Q 2250 2553 1709 2553 
Q 1456 2553 1204 2497 
Q 953 2441 691 2322 
L 691 4666 
z
" transform="scale(0.015625)"/>
       </defs>
       <use xlink:href="#DejaVuSans-32"/>
       <use xlink:href="#DejaVuSans-2e" x="63.623047"/>
       <use xlink:href="#DejaVuSans-35" x="95.410156"/>
      </g>
     </g>
    </g>
    <g id="xtick_3">
     <g id="line2d_5">
      <path d="M 186.805462 277.92 
L 186.805462 0.72 
" clip-path="url(#p9afd43e5ca)" style="fill: none; stroke-dasharray: 0.8,1.32; stroke-dashoffset: 0; stroke: #000000; stroke-opacity: 0.5; stroke-width: 0.8"/>
     </g>
     <g id="line2d_6">
      <g>
       <use xlink:href="#mabe90e216b" x="186.805462" y="277.92" style="stroke: #000000; stroke-width: 0.8"/>
      </g>
     </g>
     <g id="text_3">
      <!-- 5.0 -->
      <g transform="translate(178.8539 292.518438) scale(0.1 -0.1)">
       <use xlink:href="#DejaVuSans-35"/>
       <use xlink:href="#DejaVuSans-2e" x="63.623047"/>
       <use xlink:href="#DejaVuSans-30" x="95.410156"/>
      </g>
     </g>
    </g>
    <g id="xtick_4">
     <g id="line2d_7">
      <path d="M 260.956787 277.92 
L 260.956787 0.72 
" clip-path="url(#p9afd43e5ca)" style="fill: none; stroke-dasharray: 0.8,1.32; stroke-dashoffset: 0; stroke: #000000; stroke-opacity: 0.5; stroke-width: 0.8"/>
     </g>
     <g id="line2d_8">
      <g>
       <use xlink:href="#mabe90e216b" x="260.956787" y="277.92" style="stroke: #000000; stroke-width: 0.8"/>
      </g>
     </g>
     <g id="text_4">
      <!-- 7.5 -->
      <g transform="translate(253.005225 292.518438) scale(0.1 -0.1)">
       <defs>
        <path id="DejaVuSans-37" d="M 525 4666 
L 3525 4666 
L 3525 4397 
L 1831 0 
L 1172 0 
L 2766 4134 
L 525 4134 
L 525 4666 
z
" transform="scale(0.015625)"/>
       </defs>
       <use xlink:href="#DejaVuSans-37"/>
       <use xlink:href="#DejaVuSans-2e" x="63.623047"/>
       <use xlink:href="#DejaVuSans-35" x="95.410156"/>
      </g>
     </g>
    </g>
    <g id="xtick_5">
     <g id="line2d_9">
      <path d="M 335.108112 277.92 
L 335.108112 0.72 
" clip-path="url(#p9afd43e5ca)" style="fill: none; stroke-dasharray: 0.8,1.32; stroke-dashoffset: 0; stroke: #000000; stroke-opacity: 0.5; stroke-width: 0.8"/>
     </g>
     <g id="line2d_10">
      <g>
       <use xlink:href="#mabe90e216b" x="335.108112" y="277.92" style="stroke: #000000; stroke-width: 0.8"/>
      </g>
     </g>
     <g id="text_5">
      <!-- 10.0 -->
      <g transform="translate(323.9753 292.518438) scale(0.1 -0.1)">
       <defs>
        <path id="DejaVuSans-31" d="M 794 531 
L 1825 531 
L 1825 4091 
L 703 3866 
L 703 4441 
L 1819 4666 
L 2450 4666 
L 2450 531 
L 3481 531 
L 3481 0 
L 794 0 
L 794 531 
z
" transform="scale(0.015625)"/>
       </defs>
       <use xlink:href="#DejaVuSans-31"/>
       <use xlink:href="#DejaVuSans-30" x="63.623047"/>
       <use xlink:href="#DejaVuSans-2e" x="127.246094"/>
       <use xlink:href="#DejaVuSans-30" x="159.033203"/>
      </g>
     </g>
    </g>
    <g id="xtick_6">
     <g id="line2d_11">
      <path d="M 409.259437 277.92 
L 409.259437 0.72 
" clip-path="url(#p9afd43e5ca)" style="fill: none; stroke-dasharray: 0.8,1.32; stroke-dashoffset: 0; stroke: #000000; stroke-opacity: 0.5; stroke-width: 0.8"/>
     </g>
     <g id="line2d_12">
      <g>
       <use xlink:href="#mabe90e216b" x="409.259437" y="277.92" style="stroke: #000000; stroke-width: 0.8"/>
      </g>
     </g>
     <g id="text_6">
      <!-- 12.5 -->
      <g transform="translate(398.126625 292.518438) scale(0.1 -0.1)">
       <use xlink:href="#DejaVuSans-31"/>
       <use xlink:href="#DejaVuSans-32" x="63.623047"/>
       <use xlink:href="#DejaVuSans-2e" x="127.246094"/>
       <use xlink:href="#DejaVuSans-35" x="159.033203"/>
      </g>
     </g>
    </g>
    <g id="xtick_7">
     <g id="line2d_13">
      <path d="M 483.410762 277.92 
L 483.410762 0.72 
" clip-path="url(#p9afd43e5ca)" style="fill: none; stroke-dasharray: 0.8,1.32; stroke-dashoffset: 0; stroke: #000000; stroke-opacity: 0.5; stroke-width: 0.8"/>
     </g>
     <g id="line2d_14">
      <g>
       <use xlink:href="#mabe90e216b" x="483.410762" y="277.92" style="stroke: #000000; stroke-width: 0.8"/>
      </g>
     </g>
     <g id="text_7">
      <!-- 15.0 -->
      <g transform="translate(472.27795 292.518438) scale(0.1 -0.1)">
       <use xlink:href="#DejaVuSans-31"/>
       <use xlink:href="#DejaVuSans-35" x="63.623047"/>
       <use xlink:href="#DejaVuSans-2e" x="127.246094"/>
       <use xlink:href="#DejaVuSans-30" x="159.033203"/>
      </g>
     </g>
    </g>
    <g id="xtick_8">
     <g id="line2d_15">
      <path d="M 557.562087 277.92 
L 557.562087 0.72 
" clip-path="url(#p9afd43e5ca)" style="fill: none; stroke-dasharray: 0.8,1.32; stroke-dashoffset: 0; stroke: #000000; stroke-opacity: 0.5; stroke-width: 0.8"/>
     </g>
     <g id="line2d_16">
      <g>
       <use xlink:href="#mabe90e216b" x="557.562087" y="277.92" style="stroke: #000000; stroke-width: 0.8"/>
      </g>
     </g>
     <g id="text_8">
      <!-- 17.5 -->
      <g transform="translate(546.429274 292.518438) scale(0.1 -0.1)">
       <use xlink:href="#DejaVuSans-31"/>
       <use xlink:href="#DejaVuSans-37" x="63.623047"/>
       <use xlink:href="#DejaVuSans-2e" x="127.246094"/>
       <use xlink:href="#DejaVuSans-35" x="159.033203"/>
      </g>
     </g>
    </g>
    <g id="text_9">
     <!-- Zeit [s] -->
     <g transform="translate(299.556719 302.196563) scale(0.1 -0.1)">
      <defs>
       <path id="DejaVuSans-5a" d="M 359 4666 
L 4025 4666 
L 4025 4184 
L 1075 531 
L 4097 531 
L 4097 0 
L 288 0 
L 288 481 
L 3238 4134 
L 359 4134 
L 359 4666 
z
" transform="scale(0.015625)"/>
       <path id="DejaVuSans-65" d="M 3597 1894 
L 3597 1613 
L 953 1613 
Q 991 1019 1311 708 
Q 1631 397 2203 397 
Q 2534 397 2845 478 
Q 3156 559 3463 722 
L 3463 178 
Q 3153 47 2828 -22 
Q 2503 -91 2169 -91 
Q 1331 -91 842 396 
Q 353 884 353 1716 
Q 353 2575 817 3079 
Q 1281 3584 2069 3584 
Q 2775 3584 3186 3129 
Q 3597 2675 3597 1894 
z
M 3022 2063 
Q 3016 2534 2758 2815 
Q 2500 3097 2075 3097 
Q 1594 3097 1305 2825 
Q 1016 2553 972 2059 
L 3022 2063 
z
" transform="scale(0.015625)"/>
       <path id="DejaVuSans-69" d="M 603 3500 
L 1178 3500 
L 1178 0 
L 603 0 
L 603 3500 
z
M 603 4863 
L 1178 4863 
L 1178 4134 
L 603 4134 
L 603 4863 
z
" transform="scale(0.015625)"/>
       <path id="DejaVuSans-74" d="M 1172 4494 
L 1172 3500 
L 2356 3500 
L 2356 3053 
L 1172 3053 
L 1172 1153 
Q 1172 725 1289 603 
Q 1406 481 1766 481 
L 2356 481 
L 2356 0 
L 1766 0 
Q 1100 0 847 248 
Q 594 497 594 1153 
L 594 3053 
L 172 3053 
L 172 3500 
L 594 3500 
L 594 4494 
L 1172 4494 
z
" transform="scale(0.015625)"/>
       <path id="DejaVuSans-20" transform="scale(0.015625)"/>
       <path id="DejaVuSans-5b" d="M 550 4863 
L 1875 4863 
L 1875 4416 
L 1125 4416 
L 1125 -397 
L 1875 -397 
L 1875 -844 
L 550 -844 
L 550 4863 
z
" transform="scale(0.015625)"/>
       <path id="DejaVuSans-73" d="M 2834 3397 
L 2834 2853 
Q 2591 2978 2328 3040 
Q 2066 3103 1784 3103 
Q 1356 3103 1142 2972 
Q 928 2841 928 2578 
Q 928 2378 1081 2264 
Q 1234 2150 1697 2047 
L 1894 2003 
Q 2506 1872 2764 1633 
Q 3022 1394 3022 966 
Q 3022 478 2636 193 
Q 2250 -91 1575 -91 
Q 1294 -91 989 -36 
Q 684 19 347 128 
L 347 722 
Q 666 556 975 473 
Q 1284 391 1588 391 
Q 1994 391 2212 530 
Q 2431 669 2431 922 
Q 2431 1156 2273 1281 
Q 2116 1406 1581 1522 
L 1381 1569 
Q 847 1681 609 1914 
Q 372 2147 372 2553 
Q 372 3047 722 3315 
Q 1072 3584 1716 3584 
Q 2034 3584 2315 3537 
Q 2597 3491 2834 3397 
z
" transform="scale(0.015625)"/>
       <path id="DejaVuSans-5d" d="M 1947 4863 
L 1947 -844 
L 622 -844 
L 622 -397 
L 1369 -397 
L 1369 4416 
L 622 4416 
L 622 4863 
L 1947 4863 
z
" transform="scale(0.015625)"/>
      </defs>
      <use xlink:href="#DejaVuSans-5a"/>
      <use xlink:href="#DejaVuSans-65" x="68.505859"/>
      <use xlink:href="#DejaVuSans-69" x="130.029297"/>
      <use xlink:href="#DejaVuSans-74" x="157.8125"/>
      <use xlink:href="#DejaVuSans-20" x="197.021484"/>
      <use xlink:href="#DejaVuSans-5b" x="228.808594"/>
      <use xlink:href="#DejaVuSans-73" x="267.822266"/>
      <use xlink:href="#DejaVuSans-5d" x="319.921875"/>
     </g>
    </g>
   </g>
   <g id="matplotlib.axis_2">
    <g id="ytick_1">
     <g id="line2d_17">
      <path d="M 38.502813 274.382395 
L 596.502813 274.382395 
" clip-path="url(#p9afd43e5ca)" style="fill: none; stroke-dasharray: 0.8,1.32; stroke-dashoffset: 0; stroke: #000000; stroke-opacity: 0.5; stroke-width: 0.8"/>
     </g>
     <g id="line2d_18">
      <defs>
       <path id="m2423240130" d="M 0 0 
L -3.5 0 
" style="stroke: #000000; stroke-width: 0.8"/>
      </defs>
      <g>
       <use xlink:href="#m2423240130" x="38.502813" y="274.382395" style="stroke: #000000; stroke-width: 0.8"/>
      </g>
     </g>
     <g id="text_10">
      <!-- −10 -->
      <g transform="translate(10.398125 278.181614) scale(0.1 -0.1)">
       <defs>
        <path id="DejaVuSans-2212" d="M 678 2272 
L 4684 2272 
L 4684 1741 
L 678 1741 
L 678 2272 
z
" transform="scale(0.015625)"/>
       </defs>
       <use xlink:href="#DejaVuSans-2212"/>
       <use xlink:href="#DejaVuSans-31" x="83.789062"/>
       <use xlink:href="#DejaVuSans-30" x="147.412109"/>
      </g>
     </g>
    </g>
    <g id="ytick_2">
     <g id="line2d_19">
      <path d="M 38.502813 242.917311 
L 596.502813 242.917311 
" clip-path="url(#p9afd43e5ca)" style="fill: none; stroke-dasharray: 0.8,1.32; stroke-dashoffset: 0; stroke: #000000; stroke-opacity: 0.5; stroke-width: 0.8"/>
     </g>
     <g id="line2d_20">
      <g>
       <use xlink:href="#m2423240130" x="38.502813" y="242.917311" style="stroke: #000000; stroke-width: 0.8"/>
      </g>
     </g>
     <g id="text_11">
      <!-- −5 -->
      <g transform="translate(16.760625 246.71653) scale(0.1 -0.1)">
       <use xlink:href="#DejaVuSans-2212"/>
       <use xlink:href="#DejaVuSans-35" x="83.789062"/>
      </g>
     </g>
    </g>
    <g id="ytick_3">
     <g id="line2d_21">
      <path d="M 38.502813 211.452227 
L 596.502813 211.452227 
" clip-path="url(#p9afd43e5ca)" style="fill: none; stroke-dasharray: 0.8,1.32; stroke-dashoffset: 0; stroke: #000000; stroke-opacity: 0.5; stroke-width: 0.8"/>
     </g>
     <g id="line2d_22">
      <g>
       <use xlink:href="#m2423240130" x="38.502813" y="211.452227" style="stroke: #000000; stroke-width: 0.8"/>
      </g>
     </g>
     <g id="text_12">
      <!-- 0 -->
      <g transform="translate(25.140313 215.251445) scale(0.1 -0.1)">
       <use xlink:href="#DejaVuSans-30"/>
      </g>
     </g>
    </g>
    <g id="ytick_4">
     <g id="line2d_23">
      <path d="M 38.502813 179.987142 
L 596.502813 179.987142 
" clip-path="url(#p9afd43e5ca)" style="fill: none; stroke-dasharray: 0.8,1.32; stroke-dashoffset: 0; stroke: #000000; stroke-opacity: 0.5; stroke-width: 0.8"/>
     </g>
     <g id="line2d_24">
      <g>
       <use xlink:href="#m2423240130" x="38.502813" y="179.987142" style="stroke: #000000; stroke-width: 0.8"/>
      </g>
     </g>
     <g id="text_13">
      <!-- 5 -->
      <g transform="translate(25.140313 183.786361) scale(0.1 -0.1)">
       <use xlink:href="#DejaVuSans-35"/>
      </g>
     </g>
    </g>
    <g id="ytick_5">
     <g id="line2d_25">
      <path d="M 38.502813 148.522058 
L 596.502813 148.522058 
" clip-path="url(#p9afd43e5ca)" style="fill: none; stroke-dasharray: 0.8,1.32; stroke-dashoffset: 0; stroke: #000000; stroke-opacity: 0.5; stroke-width: 0.8"/>
     </g>
     <g id="line2d_26">
      <g>
       <use xlink:href="#m2423240130" x="38.502813" y="148.522058" style="stroke: #000000; stroke-width: 0.8"/>
      </g>
     </g>
     <g id="text_14">
      <!-- 10 -->
      <g transform="translate(18.777813 152.321277) scale(0.1 -0.1)">
       <use xlink:href="#DejaVuSans-31"/>
       <use xlink:href="#DejaVuSans-30" x="63.623047"/>
      </g>
     </g>
    </g>
    <g id="ytick_6">
     <g id="line2d_27">
      <path d="M 38.502813 117.056974 
L 596.502813 117.056974 
" clip-path="url(#p9afd43e5ca)" style="fill: none; stroke-dasharray: 0.8,1.32; stroke-dashoffset: 0; stroke: #000000; stroke-opacity: 0.5; stroke-width: 0.8"/>
     </g>
     <g id="line2d_28">
      <g>
       <use xlink:href="#m2423240130" x="38.502813" y="117.056974" style="stroke: #000000; stroke-width: 0.8"/>
      </g>
     </g>
     <g id="text_15">
      <!-- 15 -->
      <g transform="translate(18.777813 120.856193) scale(0.1 -0.1)">
       <use xlink:href="#DejaVuSans-31"/>
       <use xlink:href="#DejaVuSans-35" x="63.623047"/>
      </g>
     </g>
    </g>
    <g id="ytick_7">
     <g id="line2d_29">
      <path d="M 38.502813 85.59189 
L 596.502813 85.59189 
" clip-path="url(#p9afd43e5ca)" style="fill: none; stroke-dasharray: 0.8,1.32; stroke-dashoffset: 0; stroke: #000000; stroke-opacity: 0.5; stroke-width: 0.8"/>
     </g>
     <g id="line2d_30">
      <g>
       <use xlink:href="#m2423240130" x="38.502813" y="85.59189" style="stroke: #000000; stroke-width: 0.8"/>
      </g>
     </g>
     <g id="text_16">
      <!-- 20 -->
      <g transform="translate(18.777813 89.391108) scale(0.1 -0.1)">
       <use xlink:href="#DejaVuSans-32"/>
       <use xlink:href="#DejaVuSans-30" x="63.623047"/>
      </g>
     </g>
    </g>
    <g id="ytick_8">
     <g id="line2d_31">
      <path d="M 38.502813 54.126805 
L 596.502813 54.126805 
" clip-path="url(#p9afd43e5ca)" style="fill: none; stroke-dasharray: 0.8,1.32; stroke-dashoffset: 0; stroke: #000000; stroke-opacity: 0.5; stroke-width: 0.8"/>
     </g>
     <g id="line2d_32">
      <g>
       <use xlink:href="#m2423240130" x="38.502813" y="54.126805" style="stroke: #000000; stroke-width: 0.8"/>
      </g>
     </g>
     <g id="text_17">
      <!-- 25 -->
      <g transform="translate(18.777813 57.926024) scale(0.1 -0.1)">
       <use xlink:href="#DejaVuSans-32"/>
       <use xlink:href="#DejaVuSans-35" x="63.623047"/>
      </g>
     </g>
    </g>
    <g id="ytick_9">
     <g id="line2d_33">
      <path d="M 38.502813 22.661721 
L 596.502813 22.661721 
" clip-path="url(#p9afd43e5ca)" style="fill: none; stroke-dasharray: 0.8,1.32; stroke-dashoffset: 0; stroke: #000000; stroke-opacity: 0.5; stroke-width: 0.8"/>
     </g>
     <g id="line2d_34">
      <g>
       <use xlink:href="#m2423240130" x="38.502813" y="22.661721" style="stroke: #000000; stroke-width: 0.8"/>
      </g>
     </g>
     <g id="text_18">
      <!-- 30 -->
      <g transform="translate(18.777813 26.46094) scale(0.1 -0.1)">
       <defs>
        <path id="DejaVuSans-33" d="M 2597 2516 
Q 3050 2419 3304 2112 
Q 3559 1806 3559 1356 
Q 3559 666 3084 287 
Q 2609 -91 1734 -91 
Q 1441 -91 1130 -33 
Q 819 25 488 141 
L 488 750 
Q 750 597 1062 519 
Q 1375 441 1716 441 
Q 2309 441 2620 675 
Q 2931 909 2931 1356 
Q 2931 1769 2642 2001 
Q 2353 2234 1838 2234 
L 1294 2234 
L 1294 2753 
L 1863 2753 
Q 2328 2753 2575 2939 
Q 2822 3125 2822 3475 
Q 2822 3834 2567 4026 
Q 2313 4219 1838 4219 
Q 1578 4219 1281 4162 
Q 984 4106 628 3988 
L 628 4550 
Q 988 4650 1302 4700 
Q 1616 4750 1894 4750 
Q 2613 4750 3031 4423 
Q 3450 4097 3450 3541 
Q 3450 3153 3228 2886 
Q 3006 2619 2597 2516 
z
" transform="scale(0.015625)"/>
       </defs>
       <use xlink:href="#DejaVuSans-33"/>
       <use xlink:href="#DejaVuSans-30" x="63.623047"/>
      </g>
     </g>
    </g>
    <g id="text_19">
     <!-- Drehmoment [Nm] -->
     <g transform="translate(8.318438 186.465313) rotate(-90) scale(0.1 -0.1)">
      <defs>
       <path id="DejaVuSans-44" d="M 1259 4147 
L 1259 519 
L 2022 519 
Q 2988 519 3436 956 
Q 3884 1394 3884 2338 
Q 3884 3275 3436 3711 
Q 2988 4147 2022 4147 
L 1259 4147 
z
M 628 4666 
L 1925 4666 
Q 3281 4666 3915 4102 
Q 4550 3538 4550 2338 
Q 4550 1131 3912 565 
Q 3275 0 1925 0 
L 628 0 
L 628 4666 
z
" transform="scale(0.015625)"/>
       <path id="DejaVuSans-72" d="M 2631 2963 
Q 2534 3019 2420 3045 
Q 2306 3072 2169 3072 
Q 1681 3072 1420 2755 
Q 1159 2438 1159 1844 
L 1159 0 
L 581 0 
L 581 3500 
L 1159 3500 
L 1159 2956 
Q 1341 3275 1631 3429 
Q 1922 3584 2338 3584 
Q 2397 3584 2469 3576 
Q 2541 3569 2628 3553 
L 2631 2963 
z
" transform="scale(0.015625)"/>
       <path id="DejaVuSans-68" d="M 3513 2113 
L 3513 0 
L 2938 0 
L 2938 2094 
Q 2938 2591 2744 2837 
Q 2550 3084 2163 3084 
Q 1697 3084 1428 2787 
Q 1159 2491 1159 1978 
L 1159 0 
L 581 0 
L 581 4863 
L 1159 4863 
L 1159 2956 
Q 1366 3272 1645 3428 
Q 1925 3584 2291 3584 
Q 2894 3584 3203 3211 
Q 3513 2838 3513 2113 
z
" transform="scale(0.015625)"/>
       <path id="DejaVuSans-6d" d="M 3328 2828 
Q 3544 3216 3844 3400 
Q 4144 3584 4550 3584 
Q 5097 3584 5394 3201 
Q 5691 2819 5691 2113 
L 5691 0 
L 5113 0 
L 5113 2094 
Q 5113 2597 4934 2840 
Q 4756 3084 4391 3084 
Q 3944 3084 3684 2787 
Q 3425 2491 3425 1978 
L 3425 0 
L 2847 0 
L 2847 2094 
Q 2847 2600 2669 2842 
Q 2491 3084 2119 3084 
Q 1678 3084 1418 2786 
Q 1159 2488 1159 1978 
L 1159 0 
L 581 0 
L 581 3500 
L 1159 3500 
L 1159 2956 
Q 1356 3278 1631 3431 
Q 1906 3584 2284 3584 
Q 2666 3584 2933 3390 
Q 3200 3197 3328 2828 
z
" transform="scale(0.015625)"/>
       <path id="DejaVuSans-6f" d="M 1959 3097 
Q 1497 3097 1228 2736 
Q 959 2375 959 1747 
Q 959 1119 1226 758 
Q 1494 397 1959 397 
Q 2419 397 2687 759 
Q 2956 1122 2956 1747 
Q 2956 2369 2687 2733 
Q 2419 3097 1959 3097 
z
M 1959 3584 
Q 2709 3584 3137 3096 
Q 3566 2609 3566 1747 
Q 3566 888 3137 398 
Q 2709 -91 1959 -91 
Q 1206 -91 779 398 
Q 353 888 353 1747 
Q 353 2609 779 3096 
Q 1206 3584 1959 3584 
z
" transform="scale(0.015625)"/>
       <path id="DejaVuSans-6e" d="M 3513 2113 
L 3513 0 
L 2938 0 
L 2938 2094 
Q 2938 2591 2744 2837 
Q 2550 3084 2163 3084 
Q 1697 3084 1428 2787 
Q 1159 2491 1159 1978 
L 1159 0 
L 581 0 
L 581 3500 
L 1159 3500 
L 1159 2956 
Q 1366 3272 1645 3428 
Q 1925 3584 2291 3584 
Q 2894 3584 3203 3211 
Q 3513 2838 3513 2113 
z
" transform="scale(0.015625)"/>
       <path id="DejaVuSans-4e" d="M 628 4666 
L 1478 4666 
L 3547 763 
L 3547 4666 
L 4159 4666 
L 4159 0 
L 3309 0 
L 1241 3903 
L 1241 0 
L 628 0 
L 628 4666 
z
" transform="scale(0.015625)"/>
      </defs>
      <use xlink:href="#DejaVuSans-44"/>
      <use xlink:href="#DejaVuSans-72" x="77.001953"/>
      <use xlink:href="#DejaVuSans-65" x="115.865234"/>
      <use xlink:href="#DejaVuSans-68" x="177.388672"/>
      <use xlink:href="#DejaVuSans-6d" x="240.767578"/>
      <use xlink:href="#DejaVuSans-6f" x="338.179688"/>
      <use xlink:href="#DejaVuSans-6d" x="399.361328"/>
      <use xlink:href="#DejaVuSans-65" x="496.773438"/>
      <use xlink:href="#DejaVuSans-6e" x="558.296875"/>
      <use xlink:href="#DejaVuSans-74" x="621.675781"/>
      <use xlink:href="#DejaVuSans-20" x="660.884766"/>
      <use xlink:href="#DejaVuSans-5b" x="692.671875"/>
      <use xlink:href="#DejaVuSans-4e" x="731.685547"/>
      <use xlink:href="#DejaVuSans-6d" x="806.490234"/>
      <use xlink:href="#DejaVuSans-5d" x="903.902344"/>
     </g>
    </g>
   </g>
   <g id="line2d_35">
    <path d="M 38.502813 211.452407 
L 85.123897 211.451535 
L 103.165642 211.451987 
L 223.248476 211.451794 
L 223.554257 258.958924 
L 223.732051 251.77469 
L 224.048213 256.311459 
L 224.26118 277.92 
L 225.513956 224.932606 
L 225.75103 221.110227 
L 225.988789 214.955692 
L 226.226817 214.941599 
L 226.525541 212.445941 
L 226.707352 205.515521 
L 227.004147 205.820858 
L 227.184451 208.361408 
L 227.422827 208.194455 
L 227.479239 209.348808 
L 227.956897 204.49447 
L 228.194151 208.884112 
L 228.491933 204.885702 
L 228.730952 204.661546 
L 229.211707 209.865529 
L 229.507621 210.495451 
L 229.998628 210.465679 
L 230.173069 214.384408 
L 230.408796 211.71826 
L 230.705939 206.547224 
L 230.945101 213.041305 
L 231.242363 208.672268 
L 231.630147 206.801065 
L 231.663719 202.266958 
L 232.136825 209.198167 
L 232.316057 214.988071 
L 232.434509 205.867969 
L 232.915984 210.239322 
L 233.208451 214.495287 
L 233.387885 209.6518 
L 233.626662 209.60591 
L 233.864567 213.346556 
L 234.163673 204.148093 
L 234.459871 212.203522 
L 234.877477 207.151279 
L 235.11598 206.894282 
L 235.432665 208.483146 
L 235.72695 206.833443 
L 235.906757 210.97822 
L 236.084479 205.797072 
L 236.384217 205.118356 
L 236.621287 211.432607 
L 236.919839 211.981349 
L 237.157824 209.327513 
L 237.395703 213.032584 
L 237.695023 212.536422 
L 237.874902 205.302477 
L 238.290534 209.102125 
L 238.35076 207.091612 
L 238.589264 206.664091 
L 238.828455 204.461823 
L 239.065068 212.943075 
L 239.549082 210.528131 
L 239.840779 212.368459 
L 240.023237 204.437165 
L 240.317181 208.943683 
L 240.614551 209.800625 
L 240.793797 212.522512 
L 241.151839 206.76294 
L 241.569338 209.71682 
L 242.044896 206.645401 
L 242.344062 208.340914 
L 242.641746 208.234771 
L 242.939843 209.271182 
L 243.118815 205.968054 
L 243.41606 204.132758 
L 243.539421 207.27066 
L 243.836562 206.696648 
L 244.071675 207.007567 
L 244.253567 208.270833 
L 244.531837 208.38845 
L 244.760099 206.440757 
L 244.998784 207.090736 
L 245.503869 210.012779 
L 245.741822 209.925668 
L 246.202726 207.765699 
L 246.337942 201.345605 
L 246.754794 209.718491 
L 247.232263 202.711517 
L 247.469526 210.397213 
L 247.708076 206.912894 
L 248.125328 204.217398 
L 248.363697 204.723549 
L 248.543255 202.446794 
L 248.848689 211.808718 
L 249.020847 204.839746 
L 249.218981 207.035919 
L 249.530817 206.01121 
L 249.796994 207.122626 
L 249.91722 206.36752 
L 250.176782 205.775431 
L 250.454559 207.448754 
L 250.69308 206.100463 
L 251.171156 208.666786 
L 251.466717 208.720994 
L 251.705896 209.938307 
L 252.004037 207.947077 
L 252.243865 207.687812 
L 252.425758 210.53118 
L 252.66071 208.746452 
L 252.958474 205.391205 
L 253.137428 206.328915 
L 253.437262 209.225492 
L 253.732822 207.014744 
L 253.912799 207.890852 
L 254.151034 205.659865 
L 254.390353 202.344906 
L 254.629948 205.544497 
L 254.866171 210.981252 
L 255.283195 199.861636 
L 255.64118 207.225507 
L 255.702331 206.286585 
L 255.879236 207.290128 
L 256.118256 203.702014 
L 256.357 203.935402 
L 256.596713 207.985623 
L 257.013573 208.72558 
L 257.134596 204.207455 
L 257.61066 207.773308 
L 257.848051 205.467508 
L 258.20509 203.584308 
L 258.445132 207.880473 
L 258.859825 201.687662 
L 259.158214 204.022685 
L 259.487917 204.370973 
L 259.730147 205.231314 
L 259.876027 209.55497 
L 260.173233 203.970337 
L 260.949329 213.151889 
L 261.322962 204.608916 
L 261.490067 204.164684 
L 261.602805 203.325234 
L 262.086563 205.136996 
L 262.328785 203.346639 
L 262.55622 204.639991 
L 262.794199 203.903202 
L 263.151773 200.282085 
L 263.330837 205.016313 
L 263.7477 208.14858 
L 263.866901 206.438733 
L 264.105397 206.72504 
L 264.285849 202.548984 
L 264.643203 206.725656 
L 264.881961 205.80718 
L 265.058864 206.272633 
L 265.714773 201.711137 
L 265.955612 201.877048 
L 266.191948 206.377459 
L 266.252174 204.915902 
L 266.48981 203.639797 
L 266.788459 204.183651 
L 267.324829 203.608106 
L 267.563622 207.049331 
L 267.759853 204.805445 
L 268.099501 203.281159 
L 268.338011 203.451527 
L 268.532791 204.064809 
L 268.756773 203.791151 
L 269.017167 203.689063 
L 269.233644 201.412693 
L 269.530633 200.195937 
L 269.887378 201.26392 
L 270.125731 201.398253 
L 270.245132 203.54953 
L 270.661966 204.282152 
L 270.723 204.185674 
L 271.318588 201.721908 
L 271.561653 205.545323 
L 271.735812 201.603975 
L 271.975033 204.408173 
L 272.273994 201.956616 
L 272.454512 201.604398 
L 272.689423 205.851803 
L 272.927961 200.919593 
L 273.17533 202.580867 
L 273.464189 202.958601 
L 273.643316 203.584605 
L 273.969451 203.787101 
L 274.219372 204.340222 
L 274.658263 202.99691 
L 274.845561 203.452131 
L 275.037647 203.166227 
L 275.313574 204.125099 
L 275.437851 201.430792 
L 275.791628 201.508499 
L 275.91339 203.967204 
L 276.20821 204.072434 
L 276.393789 201.276257 
L 276.812326 202.980831 
L 277.049078 199.810637 
L 277.162083 201.706557 
L 277.590469 204.184258 
L 277.779075 201.885972 
L 277.939041 204.507421 
L 278.12053 205.267042 
L 278.475781 199.84395 
L 278.624491 202.960749 
L 278.955747 200.866262 
L 279.193852 201.282827 
L 279.431173 204.271871 
L 279.612332 200.363832 
L 279.907556 203.23903 
L 280.086959 202.675769 
L 280.384925 205.3033 
L 280.623809 202.625918 
L 280.980465 203.417558 
L 281.1601 202.757356 
L 281.457142 202.241327 
L 281.594071 200.811256 
L 281.873928 203.359554 
L 282.056615 201.048291 
L 282.113657 204.140362 
L 282.351481 202.641846 
L 283.068365 203.85956 
L 283.306338 202.946171 
L 283.66432 204.264903 
L 283.961917 202.537295 
L 284.088847 200.840908 
L 284.563335 203.111551 
L 284.856401 203.751869 
L 285.034625 201.572144 
L 285.276257 202.506992 
L 285.690436 202.564733 
L 285.810779 203.383576 
L 286.292195 203.597572 
L 286.526687 201.103794 
L 286.769413 201.923145 
L 287.007247 199.694248 
L 287.262421 202.802235 
L 287.484106 200.144028 
L 287.84259 202.043456 
L 288.024509 204.757255 
L 288.259375 202.527117 
L 288.497522 203.873385 
L 288.736219 203.164063 
L 289.035046 201.367269 
L 289.24077 201.354559 
L 289.455069 204.341743 
L 289.811148 203.17123 
L 290.227704 203.873228 
L 290.347633 201.791712 
L 290.465879 203.26708 
L 290.883363 201.006397 
L 290.948755 203.450251 
L 291.225488 202.323445 
L 291.495528 200.146019 
L 291.679836 202.017529 
L 292.13465 200.051317 
L 292.194976 203.335264 
L 292.969282 201.116911 
L 293.504983 202.276102 
L 293.689059 201.674552 
L 294.221147 198.941394 
L 294.466574 201.168153 
L 294.698997 199.775834 
L 294.878318 201.581208 
L 295.173661 200.530013 
L 295.4127 202.321681 
L 295.717231 203.073303 
L 295.948103 200.604655 
L 296.426372 202.268796 
L 296.607631 201.906387 
L 297.152314 201.18334 
L 297.438974 202.317499 
L 297.620443 201.141741 
L 297.929888 202.162451 
L 298.095365 200.957734 
L 298.335465 201.75712 
L 298.632709 200.806239 
L 298.870236 202.243029 
L 299.108436 200.799811 
L 299.60655 201.765678 
L 299.827215 201.650334 
L 300.182774 200.134292 
L 300.361705 201.05789 
L 300.600166 201.287368 
L 300.854175 202.016855 
L 301.079765 201.170359 
L 301.494049 202.774405 
L 301.613328 201.104355 
L 301.911255 202.942298 
L 302.09056 201.084898 
L 302.447614 201.706719 
L 302.626399 200.9398 
L 302.80676 202.72006 
L 303.043886 201.40469 
L 303.341324 200.832173 
L 303.826118 201.104244 
L 304.119111 200.885187 
L 304.41641 201.473636 
L 304.595673 201.543525 
L 304.95287 200.885196 
L 305.252232 201.044599 
L 305.31073 201.301846 
L 305.548602 201.769242 
L 305.846457 200.790772 
L 306.02906 202.060041 
L 306.385283 201.877896 
L 306.562027 200.594958 
L 306.801509 201.356129 
L 306.996024 201.200252 
L 307.656728 201.208819 
L 307.900046 201.316504 
L 308.067971 201.723995 
L 308.299126 200.120881 
L 308.537897 200.952412 
L 308.839248 200.980165 
L 309.086734 200.618761 
L 309.313549 201.364083 
L 309.455479 200.79602 
L 309.930311 201.553324 
L 310.001814 201.083312 
L 310.28921 201.27264 
L 310.527271 201.665405 
L 310.708003 200.968864 
L 311.063774 200.178602 
L 311.242711 201.188046 
L 311.611583 201.469152 
L 311.781527 201.222856 
L 312.017687 200.56199 
L 312.501747 201.763465 
L 312.732977 201.170791 
L 313.090224 201.247594 
L 313.212638 207.019007 
L 313.568273 206.279276 
L 313.805492 206.640681 
L 314.235778 202.802572 
L 314.58015 203.223978 
L 314.701814 201.687848 
L 314.938888 201.116781 
L 315.237717 201.382477 
L 315.594079 201.245059 
L 315.682591 201.058177 
L 316.016983 200.883226 
L 316.33419 201.073203 
L 316.452034 200.734199 
L 316.695304 201.06075 
L 317.763281 201.379155 
L 318.180102 201.3791 
L 318.959086 201.244125 
L 319.49789 201.456419 
L 319.614865 201.355276 
L 319.910478 201.498597 
L 320.328134 201.341478 
L 321.584298 201.321747 
L 321.878065 201.15642 
L 322.592008 201.356247 
L 323.310491 201.345333 
L 323.548541 201.458748 
L 323.963903 201.447578 
L 324.083748 201.175317 
L 324.50419 201.382961 
L 324.569671 201.247691 
L 324.802157 201.362621 
L 326.852363 201.272033 
L 327.540635 201.349174 
L 328.495475 201.210673 
L 328.794246 201.418592 
L 329.275333 201.405703 
L 329.508337 201.46153 
L 329.745474 201.263287 
L 330.761294 201.410793 
L 331.057073 201.355223 
L 331.312423 201.431293 
L 332.018819 201.378388 
L 333.267721 201.387319 
L 334.226045 201.413458 
L 334.762633 201.316464 
L 335.971918 201.42558 
L 336.423478 201.306896 
L 350.26536 201.31564 
L 350.557034 201.18769 
L 351.033535 201.362934 
L 351.510253 201.215951 
L 351.86755 201.462908 
L 352.048182 201.324142 
L 353.001631 201.450205 
L 353.358236 201.318284 
L 357.11492 201.437959 
L 357.232346 201.311442 
L 357.768024 201.332925 
L 359.203431 201.326562 
L 362.950189 201.406808 
L 363.20353 201.219735 
L 363.423447 201.34925 
L 363.622003 201.326148 
L 363.916371 201.442934 
L 364.630544 201.329546 
L 365.345698 201.35821 
L 365.643635 201.204842 
L 366.430486 201.43999 
L 366.661699 201.341413 
L 369.821758 201.316806 
L 370.240307 201.194694 
L 370.360723 201.378727 
L 371.015218 201.350204 
L 371.312315 201.436114 
L 371.789135 201.355158 
L 372.572937 201.387238 
L 373.223258 201.356229 
L 373.518933 201.353505 
L 373.93445 201.446481 
L 373.993192 201.130018 
L 374.64956 201.363926 
L 375.245909 201.330906 
L 375.486534 201.39534 
L 376.021182 201.340278 
L 376.325316 201.390448 
L 376.501063 201.200618 
L 376.735908 201.325125 
L 377.275259 201.330814 
L 377.454122 201.461164 
L 380.43452 201.379282 
L 383.653191 201.340836 
L 383.891272 201.422165 
L 384.36784 201.315201 
L 385.141968 201.44369 
L 385.982328 201.262383 
L 386.154941 201.426617 
L 386.871953 201.354818 
L 387.288124 201.339736 
L 387.408358 201.463524 
L 387.704159 201.258636 
L 388.12156 201.346451 
L 388.360572 201.437148 
L 389.078696 201.32418 
L 390.327434 201.391562 
L 390.866233 201.194721 
L 392.061414 201.35015 
L 392.294363 201.285828 
L 392.534085 201.424291 
L 393.014287 201.330517 
L 393.427847 201.437989 
L 393.65145 201.266182 
L 394.023607 201.32652 
L 396.709418 201.329819 
L 398.255879 201.350456 
L 398.493969 201.436292 
L 399.032184 201.333479 
L 399.629341 201.368623 
L 399.867123 201.231011 
L 399.986143 201.411992 
L 400.710246 201.387637 
L 401.240795 201.32614 
L 402.253688 201.205313 
L 402.431344 201.400014 
L 402.908526 201.342762 
L 403.206332 201.370133 
L 403.397622 201.242713 
L 403.922551 201.358036 
L 405.894417 201.207402 
L 406.132636 201.329234 
L 406.963223 201.349345 
L 407.144113 201.181359 
L 407.380891 201.204417 
L 407.619993 201.35844 
L 408.217822 201.386687 
L 408.398363 201.186163 
L 408.636507 201.339515 
L 409.470635 201.411088 
L 409.589722 201.225285 
L 409.829013 201.211467 
L 410.126347 201.357638 
L 411.857209 201.305223 
L 412.096215 201.448796 
L 413.062343 201.294205 
L 413.456757 201.415813 
L 413.584819 201.30442 
L 414.533583 201.438165 
L 415.068038 201.321111 
L 416.563927 201.344408 
L 416.805148 201.285085 
L 417.002271 201.380304 
L 417.276707 201.285217 
L 418.530943 201.350134 
L 419.126668 201.333305 
L 419.487583 201.407615 
L 419.962564 201.347686 
L 422.225812 201.302025 
L 422.234324 202.224305 
L 422.468961 201.328037 
L 423.004989 201.395153 
L 425.155055 201.312657 
L 425.574673 201.194462 
L 425.629286 201.43965 
L 426.40654 201.340518 
L 429.39598 201.255545 
L 429.628082 201.18201 
L 430.10485 201.458722 
L 430.344322 201.468734 
L 431.121983 201.333365 
L 431.357652 202.382227 
L 431.597523 201.261287 
L 431.843497 201.826716 
L 432.095657 201.719192 
L 432.328044 201.172639 
L 432.561897 201.725209 
L 432.821237 201.670602 
L 433.156978 201.731705 
L 433.463552 201.157363 
L 433.594031 201.353292 
L 433.87843 201.413022 
L 434.121676 200.662944 
L 434.776173 201.722795 
L 435.318081 200.776627 
L 435.793016 201.395972 
L 436.163582 201.120067 
L 436.324342 200.619482 
L 436.627299 201.412382 
L 436.862153 201.332982 
L 437.100266 201.121325 
L 437.400723 201.496986 
L 437.640155 201.284612 
L 437.947846 201.844309 
L 438.091135 201.420928 
L 438.242412 201.446763 
L 438.778576 200.931728 
L 439.609454 201.572509 
L 439.813723 201.309177 
L 440.027646 202.035372 
L 440.326857 201.583808 
L 440.505242 200.583764 
L 440.743769 201.148541 
L 440.985603 200.500633 
L 441.460589 201.717867 
L 441.817555 201.098751 
L 441.996582 201.2333 
L 442.261655 201.285707 
L 442.476381 200.488271 
L 442.882088 201.827772 
L 443.306995 201.096907 
L 443.537398 201.207843 
L 443.835364 201.007423 
L 444.01571 201.637933 
L 444.670741 201.088883 
L 444.792607 201.368672 
L 445.029606 201.448852 
L 445.21114 201.220682 
L 445.566243 201.471634 
L 445.69185 201.207303 
L 445.950184 200.95979 
L 446.223006 201.054936 
L 446.46149 201.453462 
L 446.703529 201.255219 
L 446.93948 200.465362 
L 447.182432 201.198031 
L 447.4174 200.755252 
L 447.656135 201.313125 
L 448.138367 201.727789 
L 448.437338 201.021197 
L 448.625267 201.438385 
L 448.91479 201.754337 
L 449.152725 201.769663 
L 449.392189 201.050927 
L 449.89612 201.423307 
L 450.16705 200.945632 
L 450.46407 201.521955 
L 450.761942 201.341132 
L 450.94209 201.778232 
L 451.425902 201.152365 
L 451.839194 201.301941 
L 452.077357 200.869849 
L 452.326715 200.754282 
L 452.864845 201.602734 
L 453.632802 201.331946 
L 453.689602 201.018014 
L 453.809319 201.389993 
L 454.134366 201.5069 
L 454.345201 201.820563 
L 454.765606 201.193007 
L 454.847127 201.755749 
L 455.071869 201.713296 
L 455.300727 200.487088 
L 455.539853 201.824784 
L 455.961335 201.675422 
L 456.150748 201.382398 
L 456.387019 202.122521 
L 456.566905 201.352572 
L 456.984034 200.787428 
L 457.044693 201.486613 
L 457.462645 200.480559 
L 457.700957 201.332846 
L 457.762486 201.157543 
L 458.176246 201.448733 
L 458.295734 202.024649 
L 458.772737 201.174309 
L 459.548312 201.618782 
L 459.792529 201.293503 
L 459.846799 201.575529 
L 460.026983 201.344914 
L 460.264394 201.713373 
L 460.505547 201.38896 
L 460.801349 201.937377 
L 460.981197 201.430941 
L 461.300883 201.53771 
L 461.461133 201.749043 
L 461.759676 201.209304 
L 462.240011 201.261727 
L 462.535859 201.552345 
L 462.954361 202.195426 
L 463.252644 201.024505 
L 463.439137 201.414984 
L 463.848593 201.076474 
L 463.995751 201.118675 
L 464.210024 202.076981 
L 464.468285 201.597684 
L 464.923343 201.791044 
L 465.170704 200.931801 
L 466.009353 202.314434 
L 466.243917 201.300676 
L 466.483619 201.7457 
L 466.663185 201.610092 
L 466.961408 200.681172 
L 467.199234 201.307738 
L 467.597038 201.464665 
L 467.744427 201.37832 
L 467.921045 200.65818 
L 468.311702 201.275118 
L 468.454257 201.823671 
L 468.761166 201.205931 
L 468.931187 202.009459 
L 469.179483 201.296838 
L 469.893371 201.804247 
L 470.128335 201.452579 
L 470.683137 201.47544 
L 470.906718 202.21532 
L 471.143739 201.214116 
L 471.389817 201.524402 
L 471.682015 202.176489 
L 471.865224 200.890269 
L 472.16172 201.489651 
L 472.636186 201.607695 
L 473.172886 201.298898 
L 473.400235 201.024412 
L 473.868197 202.221924 
L 474.170263 201.400641 
L 474.354868 201.527174 
L 474.949827 201.186438 
L 475.125654 200.842714 
L 475.315542 201.845869 
L 475.601585 201.518669 
L 475.840459 200.678572 
L 476.079329 201.191263 
L 476.555932 201.521635 
L 476.795462 201.578376 
L 477.212458 201.512864 
L 477.361592 201.663003 
L 477.749946 201.536503 
L 477.868828 201.209195 
L 478.107403 201.29432 
L 478.345862 200.981941 
L 478.775738 201.517655 
L 479.305237 201.367876 
L 479.600228 201.333797 
L 479.798874 201.527501 
L 480.01865 201.14345 
L 480.259337 202.475428 
L 480.639147 201.716767 
L 480.797255 202.058238 
L 481.032858 201.197933 
L 481.30086 201.109139 
L 481.817167 202.02133 
L 482.112202 201.550278 
L 482.301583 201.580942 
L 482.54011 201.853554 
L 482.796157 201.570864 
L 483.087039 201.703992 
L 483.208624 201.12624 
L 483.500877 201.589008 
L 483.799178 202.38089 
L 484.097273 201.524915 
L 484.216787 201.761369 
L 484.514676 201.560154 
L 484.761105 201.086941 
L 485.008903 201.731658 
L 485.230884 201.933059 
L 485.76882 201.996701 
L 486.007356 201.494069 
L 486.247979 201.698989 
L 486.483328 201.709246 
L 486.721699 201.194333 
L 486.961225 201.684778 
L 487.206514 201.858184 
L 487.440359 201.629704 
L 487.677248 201.728368 
L 488.214516 201.1214 
L 488.455338 201.58571 
L 488.751713 201.031426 
L 489.288177 202.43829 
L 489.540319 201.734819 
L 489.706772 201.956846 
L 490.005091 201.681476 
L 490.242896 202.066182 
L 490.481391 201.799792 
L 490.683853 201.968784 
L 490.899752 201.205097 
L 491.201618 201.068494 
L 491.494573 201.87298 
L 491.741352 201.579079 
L 491.913287 201.156293 
L 492.154206 202.382967 
L 492.390345 201.800685 
L 492.884784 201.894906 
L 493.122928 201.717437 
L 493.601015 202.100442 
L 493.66099 201.842651 
L 493.95881 202.503547 
L 494.141209 201.925242 
L 494.380638 201.70157 
L 494.614303 201.703879 
L 494.912142 202.12099 
L 495.092642 201.976097 
L 495.391562 201.425495 
L 495.688062 201.781483 
L 495.866611 201.751265 
L 496.169394 201.103632 
L 496.407336 202.013151 
L 496.644163 201.450489 
L 497.122047 201.907348 
L 497.32743 201.706875 
L 497.602808 201.689433 
L 497.947291 201.465078 
L 498.144884 202.160746 
L 498.384535 201.502928 
L 498.621652 201.307819 
L 498.860584 202.159784 
L 499.099563 201.359032 
L 499.337413 201.999079 
L 499.576371 201.702096 
L 499.817608 201.048339 
L 500.113488 201.072509 
L 500.293182 202.503632 
L 500.609204 201.683011 
L 500.650281 202.056348 
L 500.829084 202.403863 
L 501.130331 201.724902 
L 501.425955 201.966717 
L 501.604394 202.341133 
L 502.142852 201.12363 
L 502.321119 202.415351 
L 502.565805 201.943715 
L 503.051282 201.8027 
L 503.27591 201.273497 
L 503.515493 201.234558 
L 503.872555 201.693955 
L 504.229888 202.539011 
L 504.650095 202.015288 
L 504.707569 201.304935 
L 505.547959 201.621302 
L 505.78225 201.834619 
L 506.569872 201.54015 
L 506.746757 202.107794 
L 506.993307 201.876504 
L 507.231373 202.484687 
L 507.475334 201.82554 
L 507.708032 201.606376 
L 508.005894 201.7428 
L 508.190358 201.657649 
L 508.485193 201.339027 
L 508.787092 203.23346 
L 509.01986 201.663597 
L 509.275368 200.924217 
L 509.498512 201.961489 
L 509.921977 202.423557 
L 509.97473 201.735062 
L 510.21317 202.197101 
L 510.631246 202.152854 
L 510.932276 201.481014 
L 511.731757 201.973765 
L 511.94593 201.798985 
L 512.202575 202.2423 
L 512.662927 201.256483 
L 512.902669 202.921071 
L 513.214663 201.543743 
L 513.619081 202.606297 
L 513.68035 201.876216 
L 513.915563 202.490668 
L 514.571539 201.855379 
L 514.703169 202.75277 
L 514.890518 201.416973 
L 515.247869 203.383533 
L 515.468485 202.371972 
L 515.918439 201.718814 
L 516.15758 201.933422 
L 516.400242 201.565891 
L 516.762513 202.909902 
L 516.922212 201.990811 
L 517.159528 201.915887 
L 517.51651 202.250022 
L 517.702683 201.31438 
L 517.878201 202.279412 
L 518.173168 201.632621 
L 518.480489 202.323472 
L 518.951708 202.589182 
L 519.130101 202.126415 
L 519.725267 201.508465 
L 519.86004 201.758122 
L 520.439599 198.315623 
L 520.621899 199.572401 
L 520.859464 198.409005 
L 521.115203 199.307513 
L 521.39507 199.316902 
L 521.637701 200.160465 
L 522.117242 200.553232 
L 522.65075 202.157323 
L 522.827932 202.399153 
L 523.266623 202.380603 
L 523.497826 202.117374 
L 523.843711 202.311829 
L 524.131034 202.088748 
L 524.380779 202.088293 
L 524.9168 201.978897 
L 527.008656 202.030893 
L 529.166701 202.037341 
L 529.284939 202.140578 
L 529.533417 202.020705 
L 532.708292 202.031389 
L 547.800201 202.031229 
L 596.502813 202.031283 
L 596.502813 202.031283 
" clip-path="url(#p9afd43e5ca)" style="fill: none; stroke: #0000ff; stroke-opacity: 0.7; stroke-width: 1.5; stroke-linecap: square"/>
   </g>
   <g id="line2d_36">
    <path d="M 38.502813 208.595202 
L 38.622916 208.460019 
L 38.865804 208.616416 
L 38.937 208.806733 
L 39.111017 208.229651 
L 39.417061 208.54883 
L 40.302791 208.69092 
L 40.541846 208.306396 
L 40.601545 208.355225 
L 41.376814 208.560086 
L 41.559198 208.530058 
L 42.091503 208.689135 
L 42.329583 208.812553 
L 42.628872 208.602697 
L 42.928055 208.932024 
L 43.164095 208.572407 
L 43.819883 208.571824 
L 44.060446 208.927635 
L 44.300935 208.386813 
L 44.599353 208.509958 
L 44.834047 208.30583 
L 45.07223 208.666283 
L 45.371049 208.237694 
L 45.857012 208.19663 
L 46.174796 208.583717 
L 46.328887 208.328044 
L 46.567049 208.168771 
L 46.805772 208.21454 
L 47.224756 208.143778 
L 47.405507 208.551359 
L 47.521373 208.288247 
L 47.766181 208.688105 
L 48.003493 208.524785 
L 48.244165 208.768202 
L 48.536913 208.802426 
L 49.14069 208.724093 
L 54.356612 208.792776 
L 55.661121 208.387229 
L 57.085405 208.533357 
L 58.50861 208.349525 
L 59.813793 208.87256 
L 59.954398 208.774891 
L 60.966191 208.852006 
L 61.265892 208.551431 
L 61.445302 208.000254 
L 61.681905 208.758802 
L 61.866132 208.941368 
L 62.104406 208.605942 
L 62.404 208.978565 
L 62.936269 208.148507 
L 63.356366 209.277359 
L 64.130974 208.769089 
L 64.426649 208.307293 
L 64.72558 208.830268 
L 65.083776 208.638083 
L 65.323835 209.054457 
L 65.860257 208.005745 
L 66.108513 208.522577 
L 66.396826 208.673731 
L 66.578194 208.278927 
L 66.876601 208.701936 
L 66.934528 208.466899 
L 67.112748 208.22081 
L 67.414376 208.121983 
L 67.588886 208.87024 
L 67.829178 209.007203 
L 68.423426 209.025841 
L 68.602529 208.885697 
L 68.783671 208.994818 
L 69.32384 208.644368 
L 69.855516 209.745904 
L 70.095651 208.830616 
L 70.338534 208.444525 
L 70.523348 209.08993 
L 71.292681 208.54342 
L 71.589579 209.399231 
L 72.070236 208.991366 
L 72.364771 208.434972 
L 72.604817 208.697419 
L 72.782636 209.214437 
L 73.737273 208.912717 
L 73.796233 208.71164 
L 74.034856 208.44287 
L 74.512377 208.413025 
L 74.809776 208.912999 
L 75.10756 208.692743 
L 75.350039 208.163715 
L 75.534701 208.153999 
L 76.779836 209.097839 
L 77.014868 208.805865 
L 77.211656 208.249369 
L 77.731123 209.375535 
L 78.208334 208.885753 
L 78.445703 208.97372 
L 78.984279 208.729684 
L 79.221395 208.496656 
L 79.46119 208.962457 
L 79.699016 209.131729 
L 79.9365 208.592211 
L 80.296129 208.075721 
L 80.712316 208.828434 
L 80.950854 208.368262 
L 81.192765 208.244857 
L 81.785318 208.998104 
L 81.913099 208.214084 
L 82.441028 208.966922 
L 82.859406 208.232175 
L 83.215747 208.650967 
L 83.394399 209.386096 
L 83.632494 209.259331 
L 83.872614 208.45418 
L 84.109856 208.587404 
L 84.411018 209.263793 
L 84.706152 208.945062 
L 84.884266 208.538094 
L 85.123897 208.801352 
L 85.361288 209.283269 
L 85.838773 209.484126 
L 86.434523 209.700531 
L 86.732011 209.189687 
L 86.893125 208.675257 
L 87.329041 209.384724 
L 87.627622 209.119113 
L 88.103508 207.783302 
L 88.40325 207.694049 
L 88.586765 207.992919 
L 89.536432 208.808121 
L 89.908761 208.724084 
L 90.081212 208.26126 
L 90.548537 208.583335 
L 90.668047 208.885019 
L 90.905672 209.02453 
L 91.263784 208.945779 
L 91.801828 208.810585 
L 92.514883 209.327102 
L 92.754169 209.039158 
L 93.289814 208.10656 
L 93.489754 208.06175 
L 94.004867 208.980311 
L 94.541287 208.12333 
L 94.842115 208.558672 
L 95.019457 209.094808 
L 95.257497 209.189044 
L 95.498953 209.063487 
L 96.064357 209.143055 
L 96.454062 208.721201 
L 96.573099 208.324759 
L 96.628852 208.364527 
L 96.69475 208.836252 
L 96.989749 209.021006 
L 97.48986 207.745097 
L 97.779913 208.091213 
L 98.202731 209.288842 
L 98.47895 208.989366 
L 98.717529 208.428036 
L 99.025598 208.802369 
L 99.325453 208.988608 
L 99.58166 208.48986 
L 99.795665 208.617191 
L 100.391 209.35901 
L 100.526244 209.781612 
L 101.868401 208.809127 
L 103.165642 208.855214 
L 104.594361 208.573265 
L 104.673559 208.849333 
L 105.09155 207.291197 
L 105.454112 206.993846 
L 105.687883 207.209104 
L 106.42681 208.620924 
L 106.688645 208.314995 
L 107.089968 207.523985 
L 107.387998 207.586477 
L 107.688168 208.066676 
L 107.864974 208.727491 
L 108.164534 209.096468 
L 108.347806 209.009375 
L 108.902733 207.489901 
L 109.117895 207.481993 
L 109.477366 208.182625 
L 109.596272 209.232757 
L 109.892792 209.831023 
L 110.192261 209.568022 
L 110.554204 208.126301 
L 110.795086 207.683243 
L 111.052094 208.032175 
L 111.29097 208.751751 
L 111.577019 208.568207 
L 112.049728 207.73212 
L 112.289519 207.978822 
L 112.792567 209.339721 
L 113.325136 209.713763 
L 113.421862 209.610731 
L 113.541144 209.314944 
L 113.788285 209.230212 
L 114.093357 209.763057 
L 114.33146 209.896203 
L 115.036051 207.952465 
L 115.313819 208.059117 
L 115.937099 208.622555 
L 116.002065 209.022354 
L 116.216076 208.884115 
L 116.30385 208.205636 
L 116.475791 208.002096 
L 116.782905 208.230357 
L 117.249404 208.314455 
L 117.726095 208.682971 
L 118.206256 208.786412 
L 118.450471 208.647488 
L 118.928024 209.143511 
L 119.289499 208.826235 
L 119.523478 208.813676 
L 119.945178 209.792158 
L 120.298612 209.353267 
L 120.715903 208.397692 
L 120.9231 209.091415 
L 121.194101 209.17594 
L 121.433386 208.573672 
L 121.671188 208.353164 
L 122.149815 208.724755 
L 122.624796 208.813579 
L 122.690525 209.162626 
L 122.935962 209.551449 
L 123.160922 209.365086 
L 123.69748 208.583575 
L 124.174029 209.361716 
L 124.35569 209.132209 
L 124.650229 209.159336 
L 124.949134 208.974855 
L 125.13009 208.490095 
L 125.665306 207.844303 
L 126.147722 208.655083 
L 126.390896 208.342337 
L 126.627668 208.219552 
L 126.86069 208.458896 
L 127.397474 208.452741 
L 127.874394 208.14969 
L 128.470607 208.572892 
L 128.590202 208.421528 
L 129.127471 208.454666 
L 129.844012 208.606439 
L 130.080965 208.859072 
L 130.318908 208.915434 
L 130.556998 208.699146 
L 130.795082 208.303821 
L 131.390373 208.458552 
L 131.570561 208.462309 
L 132.070999 207.99291 
L 132.778446 208.188687 
L 133.080422 208.62846 
L 133.269134 209.136933 
L 133.781243 208.357501 
L 134.048442 208.873755 
L 134.27389 209.610075 
L 134.511673 209.470762 
L 134.752536 208.522588 
L 134.988169 208.163304 
L 135.524563 209.028255 
L 135.762344 208.54337 
L 136.061597 208.261102 
L 136.537647 208.868779 
L 136.897409 208.505786 
L 137.144696 207.957681 
L 137.371933 208.05424 
L 137.496099 208.478535 
L 137.729921 208.613048 
L 138.237846 208.004238 
L 138.462756 208.165379 
L 138.821519 208.582665 
L 139.996454 208.335034 
L 140.23413 208.463221 
L 140.475957 208.79786 
L 140.727123 209.363099 
L 141.011902 209.416129 
L 141.192054 208.710039 
L 141.683584 208.016773 
L 141.74323 208.089633 
L 142.220316 209.683936 
L 142.460347 210.226855 
L 142.698106 209.992023 
L 143.173957 208.703317 
L 143.471179 208.918751 
L 143.657606 209.535906 
L 144.128735 209.781285 
L 144.365665 209.390522 
L 144.426045 208.767031 
L 144.665021 208.301939 
L 144.902659 208.09027 
L 145.147247 208.438643 
L 145.379375 209.282344 
L 145.679051 209.846722 
L 146.042843 209.473846 
L 146.15371 208.811115 
L 146.451965 208.895971 
L 146.884804 209.821246 
L 147.644895 208.352787 
L 147.88237 208.460693 
L 148.299554 208.850274 
L 148.41882 209.343956 
L 148.598417 209.337123 
L 149.076012 208.865607 
L 150.029772 209.067966 
L 150.089694 208.448476 
L 150.565971 207.415825 
L 150.92311 207.743159 
L 151.353883 208.328579 
L 151.876006 207.650751 
L 152.832111 209.514664 
L 153.188565 208.847613 
L 153.309231 208.286557 
L 153.54568 208.507659 
L 153.920396 209.192041 
L 154.082528 209.749597 
L 154.617256 208.484268 
L 154.797409 208.015106 
L 155.03402 208.154776 
L 155.572779 209.174989 
L 155.93189 209.263708 
L 156.288871 207.666773 
L 156.59785 207.301144 
L 156.824695 207.854934 
L 157.244922 209.448092 
L 157.482632 209.455671 
L 158.075811 208.46623 
L 158.493969 208.058156 
L 158.732951 209.008419 
L 159.028959 209.400688 
L 159.268997 209.022958 
L 159.80937 207.249895 
L 159.984424 206.826259 
L 160.222772 207.217782 
L 160.639178 208.160199 
L 160.761288 209.011368 
L 161.002186 208.842506 
L 161.236001 208.007878 
L 161.473201 207.730037 
L 161.716034 208.138722 
L 162.194991 209.568995 
L 162.430118 209.737182 
L 162.728429 209.102852 
L 162.970124 208.133966 
L 163.21208 207.729235 
L 163.449507 208.340062 
L 163.682554 209.263298 
L 163.922713 209.531105 
L 164.397251 208.275687 
L 164.755999 208.306244 
L 165.410163 208.800737 
L 165.64954 208.659676 
L 165.889046 208.032999 
L 166.126682 207.85678 
L 166.482576 208.197462 
L 166.661225 208.696009 
L 166.89949 208.578195 
L 167.197831 207.933121 
L 167.436563 207.851836 
L 167.91455 208.6517 
L 168.391427 208.441042 
L 168.63296 208.375949 
L 169.165479 208.533122 
L 169.701188 208.500083 
L 169.881582 208.348353 
L 170.359222 208.429543 
L 170.598518 208.63567 
L 171.432118 208.03229 
L 172.569875 208.398324 
L 173.106348 207.979302 
L 173.707388 208.810856 
L 173.81777 208.452042 
L 174.177757 207.749269 
L 174.535783 208.813475 
L 174.91395 208.647622 
L 175.073934 207.990695 
L 175.310543 207.935533 
L 175.787124 209.095134 
L 176.085682 208.90269 
L 176.323655 208.391281 
L 176.579702 208.814988 
L 176.922167 208.872621 
L 177.049623 208.357941 
L 177.336715 208.103635 
L 177.648399 208.401665 
L 177.755713 209.017306 
L 178.11115 209.35667 
L 178.352257 209.147443 
L 178.528778 208.816547 
L 179.02236 208.592806 
L 179.243954 208.345241 
L 180.199819 209.784339 
L 180.554724 208.34183 
L 180.764952 208.230044 
L 181.237254 209.388263 
L 181.952198 208.845575 
L 182.311857 208.78972 
L 182.972183 208.297566 
L 183.468223 208.13335 
L 184.008236 208.543232 
L 184.480842 208.248178 
L 184.866663 208.303842 
L 184.96201 208.674202 
L 185.214305 208.95928 
L 185.456212 208.821381 
L 185.79372 208.243773 
L 185.914024 207.749259 
L 186.210739 208.011838 
L 186.688066 209.017904 
L 187.183426 207.929825 
L 187.521698 207.905912 
L 187.761895 208.128482 
L 187.93929 208.11819 
L 188.475599 208.421424 
L 189.608368 208.407622 
L 189.845677 208.132509 
L 189.964926 207.677767 
L 190.203386 207.803829 
L 190.38336 208.442578 
L 190.679785 208.831331 
L 190.869436 208.560067 
L 191.396627 207.600966 
L 191.946866 209.211993 
L 192.117173 210.126899 
L 192.356479 210.412394 
L 192.83502 209.121275 
L 193.072666 209.071664 
L 193.31546 209.67372 
L 193.608741 209.901708 
L 193.905827 209.510257 
L 194.087116 209.016352 
L 194.621423 208.907649 
L 194.919455 208.675047 
L 195.159734 208.715419 
L 195.574242 209.629068 
L 195.812728 208.910082 
L 196.050762 208.98669 
L 196.348274 209.740863 
L 196.532194 209.587248 
L 196.824916 208.684961 
L 197.066503 208.35541 
L 197.302744 208.758891 
L 197.540668 208.893441 
L 197.783126 208.48207 
L 198.021222 208.357299 
L 198.278285 209.082107 
L 198.614978 208.868463 
L 198.857745 208.095341 
L 199.328922 209.034227 
L 199.627167 208.62812 
L 199.755281 208.068615 
L 200.037406 208.35518 
L 200.288499 208.996724 
L 200.523074 208.98762 
L 200.76342 208.140656 
L 201.023906 208.208343 
L 201.252764 208.880159 
L 201.602062 208.83867 
L 201.781853 208.469112 
L 202.020372 208.452695 
L 202.734673 209.157881 
L 203.271444 209.07176 
L 204.819721 208.556637 
L 205.180009 208.062968 
L 205.475165 208.348839 
L 205.723048 209.326089 
L 206.192034 209.642593 
L 206.452348 208.773389 
L 207.266495 209.984914 
L 207.682274 209.034965 
L 207.922916 208.849201 
L 208.218785 208.78096 
L 208.578156 208.55923 
L 208.935203 208.963698 
L 209.830821 208.370959 
L 210.425683 209.592326 
L 211.140394 209.167467 
L 211.378598 208.860584 
L 211.677486 208.873134 
L 211.874719 209.320882 
L 212.393738 210.03652 
L 213.168289 207.703448 
L 213.405839 207.916901 
L 213.824739 209.434021 
L 214.121064 209.621957 
L 214.60033 208.879326 
L 214.837813 208.385811 
L 215.076049 208.213023 
L 215.37507 208.419852 
L 215.554742 209.012181 
L 215.851328 209.238793 
L 216.089667 208.883159 
L 216.811423 207.151955 
L 217.102957 207.687346 
L 218.056338 210.754211 
L 218.593264 210.474922 
L 218.776973 210.489367 
L 219.266031 210.283274 
L 219.30768 209.919534 
L 219.551399 209.642743 
L 220.04435 207.742515 
L 220.32987 207.352271 
L 220.8622 207.360208 
L 221.162767 207.111149 
L 221.338171 207.125149 
L 221.515496 207.578997 
L 221.99322 208.268833 
L 222.055181 209.052824 
L 222.530269 210.442503 
L 222.771536 210.599155 
L 223.248476 209.435183 
L 223.554257 194.736859 
L 223.732051 196.117542 
L 224.048213 194.819133 
L 224.26118 188.074938 
L 225.513956 208.643389 
L 226.707352 217.327231 
L 227.004147 216.50351 
L 227.184451 214.210136 
L 227.422827 213.230766 
L 227.479239 211.634732 
L 227.717393 212.183024 
L 227.956897 211.571186 
L 228.194151 209.590185 
L 228.491933 209.72828 
L 228.730952 209.341265 
L 229.211707 206.196447 
L 229.507621 205.018302 
L 229.86666 204.784189 
L 229.998628 204.89033 
L 230.173069 203.609053 
L 230.705939 206.51145 
L 230.945101 205.18226 
L 231.242363 206.511802 
L 231.630147 207.335696 
L 231.663719 208.571096 
L 232.136825 207.10457 
L 232.316057 205.69298 
L 232.434509 208.016388 
L 232.915984 206.705453 
L 233.208451 205.144294 
L 233.387885 206.695586 
L 233.626662 206.48956 
L 233.864567 204.902601 
L 234.163673 206.803665 
L 234.459871 203.769231 
L 234.638675 203.435699 
L 234.877477 204.024977 
L 235.432665 203.473382 
L 235.72695 204.175336 
L 235.906757 203.116932 
L 236.084479 204.340778 
L 236.384217 204.555027 
L 236.621287 202.493262 
L 236.919839 202.160402 
L 237.157824 203.223926 
L 237.395703 201.997204 
L 237.695023 201.506539 
L 237.874902 203.383525 
L 238.35076 201.563985 
L 238.589264 202.614715 
L 238.828455 203.08777 
L 239.065068 201.302758 
L 239.305311 201.923936 
L 239.549082 201.716327 
L 239.840779 200.869885 
L 240.023237 202.463338 
L 240.317181 201.254929 
L 240.614551 201.026582 
L 240.793797 200.174753 
L 241.151839 202.088994 
L 241.389884 201.572429 
L 241.569338 201.578036 
L 241.806632 202.332414 
L 242.044896 204.044614 
L 242.344062 203.845853 
L 242.641746 205.091654 
L 242.939843 205.26876 
L 243.118815 206.136713 
L 243.41606 206.394232 
L 243.539421 204.511865 
L 243.836562 203.80394 
L 244.531837 199.294041 
L 244.760099 199.60677 
L 244.998784 198.493622 
L 245.503869 197.971386 
L 245.741822 198.75658 
L 246.202726 200.757626 
L 246.460816 204.52145 
L 246.754794 202.427973 
L 246.994239 204.4072 
L 247.232263 204.688145 
L 247.469526 202.328298 
L 248.125328 203.552932 
L 248.363697 202.561955 
L 248.543255 201.256611 
L 248.848689 197.317785 
L 249.020847 198.34578 
L 249.218981 197.855302 
L 249.530817 198.748064 
L 249.796994 199.903038 
L 249.91722 202.230863 
L 250.176782 203.471804 
L 250.454559 204.07723 
L 250.69308 203.991536 
L 250.990238 204.267451 
L 251.171156 203.223517 
L 251.466717 202.646965 
L 251.705896 201.798969 
L 252.004037 201.224906 
L 252.243865 200.355768 
L 252.425758 198.105015 
L 252.958474 197.822678 
L 253.137428 197.615297 
L 253.437262 196.818872 
L 253.912799 199.728076 
L 254.390353 204.969367 
L 254.629948 204.693941 
L 254.866171 203.988084 
L 255.283195 208.187854 
L 255.64118 207.095948 
L 255.879236 207.893931 
L 256.118256 208.796797 
L 256.357 207.976836 
L 256.596713 205.889713 
L 257.013573 204.67129 
L 257.134596 204.894977 
L 257.61066 201.78484 
L 257.848051 201.471523 
L 258.20509 202.032292 
L 258.445132 200.475395 
L 258.577231 200.782196 
L 258.859825 202.914799 
L 259.158214 201.912346 
L 259.487917 201.350248 
L 259.730147 200.514131 
L 259.876027 198.760114 
L 260.173233 199.861833 
L 260.294447 198.706634 
L 260.591149 197.606765 
L 260.949329 195.144298 
L 261.602805 200.506989 
L 261.975746 201.098498 
L 262.328785 203.709091 
L 262.794199 203.466973 
L 263.151773 204.823418 
L 263.330837 203.911089 
L 263.7477 202.453943 
L 264.105397 199.8243 
L 264.285849 199.976268 
L 264.643203 197.592428 
L 265.058864 198.654504 
L 265.955612 204.300092 
L 266.252174 203.827341 
L 266.48981 204.530005 
L 266.788459 203.908423 
L 267.324829 203.575103 
L 267.563622 202.058375 
L 267.759853 202.421372 
L 268.338011 201.226474 
L 268.532791 199.768246 
L 268.756773 199.369872 
L 269.017167 199.707499 
L 269.530633 204.535979 
L 270.125731 208.007712 
L 270.245132 207.471091 
L 270.661966 207.661431 
L 270.723 205.859938 
L 270.960397 205.450062 
L 271.318588 206.128305 
L 271.561653 204.70668 
L 271.735812 205.179777 
L 271.975033 203.357418 
L 272.273994 203.016753 
L 272.689423 199.378875 
L 272.927961 201.506653 
L 273.643316 204.403455 
L 273.969451 205.469495 
L 274.219372 205.224591 
L 274.658263 206.752428 
L 274.845561 206.671945 
L 275.037647 208.010104 
L 275.313574 208.610082 
L 275.437851 209.874726 
L 275.791628 209.588169 
L 275.91339 206.686467 
L 276.393789 204.442594 
L 276.812326 204.465442 
L 277.049078 205.290796 
L 277.162083 204.5174 
L 277.590469 203.674319 
L 277.779075 203.689343 
L 277.939041 201.787119 
L 278.12053 202.690644 
L 278.624491 207.533546 
L 278.955747 209.939567 
L 279.193852 209.411844 
L 279.612332 205.869057 
L 279.907556 204.549458 
L 280.086959 204.766566 
L 280.384925 205.471196 
L 280.623809 207.906272 
L 280.980465 208.907019 
L 281.1601 208.445772 
L 281.457142 208.1261 
L 281.594071 208.590997 
L 281.873928 208.440039 
L 282.056615 210.701178 
L 282.113657 210.000131 
L 282.351481 211.469486 
L 282.533731 210.748627 
L 282.828435 208.329744 
L 283.068365 204.559583 
L 283.306338 202.873572 
L 283.66432 201.878291 
L 284.319934 206.368904 
L 285.034625 203.676534 
L 285.276257 203.661219 
L 286.048783 211.002439 
L 286.292195 210.796785 
L 286.526687 209.460925 
L 286.769413 206.904077 
L 287.262421 205.958649 
L 287.484106 207.92755 
L 287.900764 209.627891 
L 288.497522 201.634397 
L 288.736219 202.272312 
L 289.24077 207.572118 
L 289.455069 210.265528 
L 289.811148 211.895725 
L 290.227704 211.065968 
L 290.465879 207.209441 
L 290.883363 209.372046 
L 290.948755 208.309825 
L 291.225488 209.11679 
L 291.495528 209.399576 
L 291.679836 205.984165 
L 292.13465 205.270992 
L 292.194976 202.421525 
L 292.432576 203.577625 
L 292.969282 207.932912 
L 293.207555 209.152123 
L 293.504983 208.869571 
L 293.689059 207.809841 
L 293.924229 208.273602 
L 294.698997 211.838918 
L 294.878318 211.209773 
L 295.173661 209.244034 
L 295.4127 205.010616 
L 295.717231 203.302639 
L 295.948103 203.917589 
L 296.607631 208.924162 
L 296.961851 208.412339 
L 297.152314 206.091053 
L 297.438974 204.523475 
L 297.929888 209.316993 
L 298.095365 212.446007 
L 298.335465 214.685986 
L 298.632709 213.365179 
L 299.108436 205.776424 
L 299.60655 206.748927 
L 299.827215 209.903133 
L 300.182774 213.283008 
L 300.600166 209.140066 
L 300.854175 206.306851 
L 301.079765 206.540054 
L 301.494049 208.755143 
L 301.613328 211.638746 
L 301.911255 214.342539 
L 302.09056 214.841646 
L 302.447614 212.251031 
L 302.626399 208.791165 
L 302.80676 207.469644 
L 303.043886 207.887825 
L 303.54503 211.431575 
L 303.826118 211.275299 
L 304.595673 203.599522 
L 304.95287 204.923399 
L 305.548602 212.077862 
L 305.846457 210.609199 
L 306.02906 207.50521 
L 306.385283 207.248202 
L 306.801509 210.784865 
L 306.996024 213.205878 
L 307.281744 214.676949 
L 307.656728 211.978092 
L 308.067971 206.520256 
L 308.299126 207.448078 
L 309.086734 213.327428 
L 309.313549 211.028908 
L 309.455479 206.878663 
L 309.930311 206.266138 
L 310.001814 205.566733 
L 310.28921 206.93354 
L 310.708003 210.315297 
L 311.063774 209.310145 
L 311.242711 206.267327 
L 311.611583 205.420912 
L 311.781527 205.480839 
L 312.017687 207.084439 
L 312.501747 211.768075 
L 312.732977 210.595547 
L 313.090224 207.269991 
L 313.212638 204.34714 
L 313.568273 188.425132 
L 314.235778 71.033986 
L 314.938888 29.688271 
L 315.682591 0.72 
L 316.016983 14.81969 
L 316.33419 63.191843 
L 316.452034 118.510822 
L 316.695304 157.359243 
L 316.995565 186.433161 
L 317.110027 208.41872 
L 318.180102 259.417152 
L 318.718927 241.022986 
L 319.194803 210.093574 
L 319.49789 197.092158 
L 319.614865 181.268617 
L 320.14826 157.313447 
L 320.328134 157.948577 
L 320.624731 168.955028 
L 321.340325 214.68706 
L 321.584298 220.897834 
L 322.357206 231.494416 
L 322.592008 230.342774 
L 322.840479 222.834757 
L 323.548541 180.028794 
L 324.083748 169.496919 
L 324.50419 171.185011 
L 324.569671 175.256762 
L 325.454334 202.626704 
L 325.812051 222.876916 
L 326.051482 227.845042 
L 326.294583 228.249845 
L 326.852363 219.596672 
L 327.242305 212.404412 
L 327.301953 203.682648 
L 328.020226 177.985242 
L 328.256505 175.984422 
L 328.495475 178.892793 
L 329.171816 192.816577 
L 329.275333 200.825709 
L 329.745474 214.491722 
L 330.282264 222.42211 
L 330.580948 222.033576 
L 331.312423 201.929397 
L 331.798258 187.48686 
L 332.018819 183.203427 
L 332.248663 181.213808 
L 332.487919 181.632079 
L 333.024265 189.717308 
L 333.980504 214.500061 
L 334.226045 216.711824 
L 334.581092 216.442616 
L 335.022935 209.489765 
L 335.709664 192.832315 
L 335.971918 189.205838 
L 336.184852 187.853053 
L 336.423478 188.541043 
L 336.663453 191.066716 
L 336.900926 195.244262 
L 337.317585 200.357029 
L 337.437428 205.684672 
L 338.161358 215.873127 
L 338.54477 215.304498 
L 338.658091 212.916932 
L 338.944233 209.943322 
L 338.991294 208.01629 
L 339.29103 205.206324 
L 339.410048 200.744724 
L 339.825811 196.784185 
L 339.945144 194.103592 
L 340.12328 192.833249 
L 340.421547 193.02327 
L 340.719728 194.551944 
L 341.615004 209.06672 
L 342.091832 212.539605 
L 342.390217 211.756966 
L 343.224194 202.850585 
L 343.582206 195.522475 
L 343.819625 192.73685 
L 344.2367 191.364793 
L 344.355474 191.662979 
L 344.654162 192.807375 
L 346.084919 209.835183 
L 346.386542 210.38199 
L 346.623265 209.624577 
L 347.336523 201.711074 
L 348.051726 195.26122 
L 348.470912 194.710205 
L 349.025631 198.401344 
L 349.8421 207.242299 
L 350.26536 209.667188 
L 350.557034 208.695121 
L 350.855204 206.599013 
L 351.033535 204.29808 
L 351.272515 203.005338 
L 351.510253 199.913577 
L 351.86755 198.210165 
L 352.048182 196.337424 
L 352.34541 195.182982 
L 352.643325 195.162277 
L 353.001631 199.135631 
L 353.656081 205.59916 
L 353.777296 207.540745 
L 354.26785 208.784156 
L 354.49016 208.091663 
L 354.967142 204.687066 
L 355.993376 195.751232 
L 356.230389 194.960862 
L 356.695564 195.642047 
L 357.11492 198.180682 
L 357.414082 203.346575 
L 357.768024 205.67246 
L 358.200121 206.552975 
L 358.619507 206.443676 
L 359.448191 199.687592 
L 359.918637 197.623809 
L 360.223373 197.302183 
L 360.464925 197.790029 
L 360.754514 199.053478 
L 361.129106 202.332374 
L 361.661674 206.055565 
L 361.887082 206.540984 
L 362.185637 206.317462 
L 362.950189 202.142344 
L 363.916371 197.70329 
L 364.298259 198.021853 
L 364.393153 199.072868 
L 364.630544 199.722628 
L 364.92917 201.046265 
L 365.107627 202.68396 
L 365.643635 204.510967 
L 366.120566 205.814435 
L 366.430486 205.654578 
L 366.95586 203.099343 
L 367.848153 199.659963 
L 368.164973 199.220831 
L 368.328014 199.562674 
L 368.629685 200.519667 
L 368.92628 201.879365 
L 369.34484 204.587875 
L 369.529356 205.209123 
L 369.821758 205.752052 
L 370.240307 206.029934 
L 370.360723 205.50964 
L 370.716213 204.825884 
L 370.778089 203.537252 
L 371.312315 201.296504 
L 371.789135 200.042549 
L 372.325578 200.119851 
L 372.572937 200.760129 
L 372.861574 202.031267 
L 373.397043 203.463133 
L 373.93445 203.08126 
L 373.993192 203.255245 
L 374.356468 203.418431 
L 374.71244 203.148398 
L 375.080509 202.431537 
L 375.245909 201.339313 
L 375.486534 200.887556 
L 375.841426 201.061711 
L 376.021182 201.408584 
L 376.325316 201.660057 
L 376.735908 201.484961 
L 377.154139 201.926116 
L 377.454122 203.501457 
L 377.691085 204.151283 
L 377.97089 204.067282 
L 379.182787 200.889715 
L 379.77876 200.177023 
L 380.315476 200.577835 
L 380.67377 202.257898 
L 381.209422 203.540074 
L 381.744983 204.843508 
L 382.170296 203.949762 
L 382.401177 202.197244 
L 382.640935 201.307616 
L 383.116642 200.356328 
L 383.653191 200.53294 
L 384.130172 201.072493 
L 384.608478 202.993652 
L 385.141968 204.150595 
L 385.442062 203.857318 
L 385.737779 203.409843 
L 386.154941 202.360044 
L 386.572481 201.907303 
L 386.633083 202.054232 
L 386.871953 201.932789 
L 387.408358 201.189434 
L 387.704159 201.111968 
L 387.883735 201.378443 
L 388.360572 202.681543 
L 388.657811 202.870021 
L 388.83674 202.708226 
L 389.373409 201.643744 
L 389.673069 201.573748 
L 389.731908 201.415692 
L 389.85151 201.629748 
L 390.209139 201.947572 
L 390.327434 202.427788 
L 390.566718 202.554822 
L 390.866233 202.513879 
L 391.283443 202.846899 
L 391.578394 203.4493 
L 391.956832 203.723512 
L 392.061414 203.944637 
L 392.294363 203.705279 
L 393.014287 203.436031 
L 393.427847 203.031054 
L 393.65145 202.454125 
L 394.023607 200.962193 
L 394.261973 200.490909 
L 394.507191 199.626218 
L 395.156539 198.755764 
L 395.574048 199.141417 
L 396.289007 201.444927 
L 396.468688 201.898675 
L 396.709418 202.104697 
L 397.480824 203.43296 
L 397.839129 203.169391 
L 398.493969 201.592828 
L 399.032184 200.950195 
L 399.38968 200.787927 
L 399.629341 200.862516 
L 399.867123 200.605571 
L 399.986143 200.220891 
L 400.464749 199.484178 
L 400.710246 198.916086 
L 401.000306 199.015821 
L 401.476641 199.823395 
L 402.253688 201.499069 
L 402.431344 202.228088 
L 403.162416 203.522562 
L 403.206332 204.13723 
L 403.397622 203.545575 
L 403.633589 203.244519 
L 404.188901 203.023032 
L 404.641312 202.945061 
L 405.894417 200.291084 
L 406.132636 200.206238 
L 407.144113 200.454105 
L 407.619993 201.901032 
L 407.860801 202.666543 
L 408.217822 203.37546 
L 408.398363 204.23415 
L 408.636507 204.785585 
L 408.917998 204.815089 
L 409.470635 204.486142 
L 409.829013 203.291894 
L 411.143152 200.558654 
L 411.320402 199.951248 
L 412.096215 198.913933 
L 412.512689 198.976942 
L 412.58546 199.344168 
L 413.062343 199.740094 
L 413.456757 200.402882 
L 413.81476 201.737371 
L 414.472681 202.999705 
L 414.533583 203.832765 
L 415.068038 204.520141 
L 415.309724 204.705647 
L 415.559664 204.683535 
L 416.321581 203.513788 
L 416.563927 203.381158 
L 417.276707 202.131876 
L 417.709181 201.497257 
L 417.756951 200.996192 
L 418.054464 200.507743 
L 418.471725 200.313093 
L 418.530943 199.796677 
L 419.126668 199.015402 
L 419.305279 198.915603 
L 421.214128 202.348375 
L 421.693249 202.919917 
L 422.225812 202.80631 
L 422.234324 202.29788 
L 422.468961 201.298462 
L 423.004989 199.958539 
L 424.675708 199.745507 
L 425.155055 201.524839 
L 425.574673 201.978545 
L 425.629286 202.24198 
L 426.40654 201.895268 
L 426.64547 202.081889 
L 427.190077 202.41478 
L 427.90644 200.589807 
L 427.958088 200.608881 
L 428.19698 200.234574 
L 428.436409 200.180676 
L 428.619145 199.897563 
L 429.151322 198.723201 
L 429.39598 198.343537 
L 429.628082 198.285549 
L 429.867272 198.59444 
L 430.344322 200.106137 
L 430.774626 201.101821 
L 431.121983 203.221347 
L 431.597523 205.551184 
L 431.843497 206.304372 
L 432.095657 210.412876 
L 432.821237 237.17616 
L 433.156978 241.28036 
L 434.121676 248.712669 
L 434.414608 249.422944 
L 435.198864 221.50861 
L 435.318081 211.999656 
L 435.793016 199.205881 
L 436.163582 195.237894 
L 436.324342 191.261998 
L 436.627299 188.997943 
L 436.862153 190.137306 
L 437.640155 198.955519 
L 437.947846 201.492773 
L 438.507695 212.904919 
L 438.778576 215.321682 
L 439.093849 214.394178 
L 439.259491 209.472224 
L 440.027646 196.450893 
L 440.326857 196.151116 
L 440.743769 195.255423 
L 440.985603 194.951984 
L 441.360449 195.796129 
L 441.460589 198.266022 
L 441.817555 202.739497 
L 441.996582 207.120655 
L 442.261655 209.825306 
L 442.476381 210.562681 
L 442.882088 210.34691 
L 443.119643 209.505435 
L 443.537398 205.303876 
L 443.835364 201.609381 
L 444.193965 195.060849 
L 444.670741 193.631725 
L 444.792607 194.101411 
L 446.223006 206.987041 
L 446.46149 208.269323 
L 446.703529 208.620391 
L 446.93948 208.241496 
L 447.182432 206.51415 
L 448.138367 196.304621 
L 448.437338 195.365392 
L 448.625267 196.039515 
L 448.91479 197.610127 
L 449.89612 207.488752 
L 450.16705 208.299031 
L 450.761942 208.276121 
L 450.94209 208.061538 
L 451.180519 207.182845 
L 451.658653 201.86713 
L 452.077357 195.9925 
L 452.326715 194.281382 
L 452.613173 194.043058 
L 453.469682 200.133399 
L 453.809319 204.029784 
L 454.847127 208.365489 
L 455.071869 208.349896 
L 455.300727 206.751206 
L 455.539853 204.136251 
L 455.961335 201.78307 
L 456.387019 197.48047 
L 456.566905 196.870231 
L 456.984034 198.113011 
L 457.044693 199.371687 
L 457.462645 201.483112 
L 457.762486 204.173534 
L 458.176246 205.025954 
L 458.295734 204.419413 
L 458.535771 204.437371 
L 458.772737 204.942005 
L 459.18988 205.08314 
L 459.846799 195.17808 
L 460.264394 192.342692 
L 460.505547 192.046363 
L 460.801349 193.68833 
L 460.981197 195.400568 
L 461.300883 197.337854 
L 461.461133 199.1214 
L 461.997667 201.314368 
L 462.240011 202.290554 
L 462.535859 202.988256 
L 462.954361 203.568474 
L 463.252644 202.490168 
L 463.439137 200.635432 
L 463.848593 198.66143 
L 463.995751 196.587678 
L 464.210024 195.368025 
L 464.468285 195.626307 
L 464.923343 198.403625 
L 465.469677 203.7573 
L 466.243917 207.571174 
L 466.961408 209.128012 
L 467.199234 208.499692 
L 467.597038 206.729612 
L 467.921045 201.887778 
L 468.454257 200.002192 
L 468.761166 201.428571 
L 469.64942 208.12083 
L 470.128335 210.033157 
L 470.435389 210.226816 
L 470.906718 209.823948 
L 471.143739 208.352059 
L 472.16172 198.794166 
L 472.636186 197.807806 
L 473.054076 198.67679 
L 473.400235 201.088809 
L 473.868197 202.221884 
L 474.645427 201.555437 
L 474.949827 201.587317 
L 475.125654 201.457354 
L 476.079329 195.666786 
L 476.317061 195.114552 
L 476.555932 195.373841 
L 477.361592 200.586886 
L 477.868828 202.357219 
L 478.107403 202.74048 
L 478.345862 202.563339 
L 478.775738 203.679664 
L 479.035221 203.751643 
L 479.305237 203.377841 
L 479.600228 202.178419 
L 480.01865 199.510909 
L 480.259337 198.489552 
L 480.639147 199.102505 
L 481.032858 201.692948 
L 481.594462 204.716103 
L 481.817167 205.211404 
L 482.112202 205.194973 
L 482.301583 204.123952 
L 482.54011 203.651508 
L 482.796157 204.161828 
L 483.087039 204.250972 
L 483.500877 202.547476 
L 484.216787 197.445767 
L 484.514676 197.914939 
L 485.008903 200.224648 
L 485.230884 201.816726 
L 485.470722 202.207815 
L 485.76882 202.276223 
L 486.007356 202.073909 
L 486.483328 200.880287 
L 486.721699 201.051202 
L 486.961225 200.916854 
L 487.206514 200.555569 
L 487.440359 199.712656 
L 487.677248 198.365237 
L 488.455338 195.797777 
L 488.751713 196.892695 
L 488.931602 198.352367 
L 489.540319 201.02575 
L 489.706772 201.221794 
L 490.005091 201.018404 
L 490.481391 199.635373 
L 490.683853 200.054289 
L 490.899752 200.968212 
L 491.201618 200.905013 
L 491.494573 200.250775 
L 491.741352 199.304211 
L 491.913287 197.651773 
L 492.154206 196.579523 
L 492.390345 196.435389 
L 492.705805 196.921697 
L 493.122928 199.744102 
L 493.66099 200.922874 
L 493.95881 200.548727 
L 494.141209 199.959331 
L 494.380638 199.568128 
L 494.614303 199.891896 
L 495.092642 201.51388 
L 495.688062 200.388592 
L 495.866611 199.094918 
L 496.407336 198.137958 
L 497.122047 202.77197 
L 497.32743 204.212409 
L 497.602808 204.567658 
L 497.947291 204.113391 
L 498.384535 202.580655 
L 498.621652 202.670855 
L 498.860584 203.548014 
L 499.099563 203.688773 
L 499.337413 203.379844 
L 499.576371 202.36114 
L 499.817608 200.638619 
L 500.293182 198.837389 
L 500.650281 199.560298 
L 501.130331 202.734609 
L 501.425955 203.447389 
L 501.604394 203.353539 
L 502.085048 203.365626 
L 502.321119 201.755599 
L 502.565805 201.560829 
L 503.051282 202.11438 
L 503.515493 200.948822 
L 503.872555 199.397659 
L 504.229888 196.774996 
L 504.650095 196.527819 
L 504.707569 197.447899 
L 505.069486 199.160757 
L 505.311707 201.011778 
L 505.78225 201.528345 
L 506.020268 201.307818 
L 506.266043 200.554352 
L 506.569872 201.136037 
L 506.993307 202.67702 
L 507.231373 203.087921 
L 507.475334 202.520895 
L 507.708032 200.909635 
L 508.005894 200.173941 
L 508.190358 198.841277 
L 508.485193 199.230319 
L 508.787092 199.402402 
L 509.01986 201.648117 
L 509.275368 203.016513 
L 509.498512 202.828161 
L 509.921977 203.543707 
L 509.97473 203.027809 
L 510.21317 202.385421 
L 510.631246 201.897902 
L 510.691646 202.188532 
L 511.266656 203.355134 
L 511.427141 202.90802 
L 512.42372 198.279357 
L 512.662927 199.601168 
L 512.902669 200.015988 
L 513.214663 202.182125 
L 513.619081 202.326029 
L 513.68035 202.572894 
L 513.915563 201.838881 
L 514.39837 200.907421 
L 514.703169 199.964438 
L 514.890518 200.680638 
L 515.468485 200.238947 
L 516.15758 196.183087 
L 516.400242 195.754839 
L 516.762513 196.403663 
L 517.159528 199.577312 
L 517.702683 201.070082 
L 518.173168 200.234975 
L 518.480489 200.372455 
L 519.388449 205.394133 
L 519.725267 205.160717 
L 520.141772 204.23351 
L 520.439599 204.749646 
L 520.621899 204.059552 
L 520.859464 204.555794 
L 521.115203 201.552692 
L 521.39507 194.114473 
L 522.117242 165.669324 
L 522.363738 161.352644 
L 522.65075 160.482005 
L 522.827932 160.992058 
L 523.266623 160.544643 
L 523.497826 159.556725 
L 523.843711 160.464171 
L 524.131034 171.989119 
L 524.380779 189.116779 
L 524.857058 200.909402 
L 524.9168 209.200019 
L 525.403427 215.086016 
L 525.692727 214.411657 
L 525.814188 213.027653 
L 526.316015 211.649695 
L 526.890514 204.787002 
L 527.008656 199.617783 
L 527.314102 193.511973 
L 527.911085 185.498052 
L 528.28225 187.062475 
L 528.686391 198.946091 
L 529.166701 208.080381 
L 529.284939 208.271787 
L 529.890641 206.055194 
L 530.068147 205.52968 
L 530.247674 205.456071 
L 530.664454 204.536881 
L 531.262127 195.987186 
L 531.621121 185.943707 
L 531.88268 185.269244 
L 532.708292 201.693838 
L 532.939696 204.57787 
L 533.946454 211.122104 
L 534.245028 211.274251 
L 534.451003 210.073977 
L 535.028561 204.027085 
L 535.504579 198.312191 
L 535.801994 197.840109 
L 536.526316 204.983098 
L 536.938388 208.399486 
L 537.241818 208.755466 
L 537.57183 208.411409 
L 538.187608 206.364165 
L 538.723835 200.582061 
L 538.905185 196.512409 
L 539.439601 191.458799 
L 539.680701 191.373505 
L 540.155601 195.629703 
L 540.636535 199.948979 
L 541.483777 204.195432 
L 541.907515 205.598038 
L 542.137411 204.794667 
L 542.912553 196.802075 
L 543.385554 192.824845 
L 543.625901 192.661152 
L 543.867082 193.365042 
L 544.160754 194.62882 
L 545.716345 205.090999 
L 546.013013 205.592419 
L 546.191021 205.419378 
L 546.562256 202.90005 
L 546.787321 201.450555 
L 547.328605 199.612696 
L 547.562717 199.816522 
L 547.800201 200.811315 
L 549.053617 208.812965 
L 549.551337 209.942707 
L 549.769221 209.784107 
L 550.187418 208.560195 
L 550.496407 203.500255 
L 551.511124 197.552683 
L 551.737027 197.72031 
L 552.395465 199.212277 
L 552.516451 200.475448 
L 552.989968 202.822215 
L 553.231918 203.885378 
L 553.531832 204.137946 
L 554.122134 201.790225 
L 554.745389 196.352273 
L 554.984158 194.9068 
L 555.281591 194.120095 
L 555.654441 193.878314 
L 555.937535 193.914992 
L 556.23672 194.505932 
L 557.459078 200.318954 
L 557.570223 201.753503 
L 557.743454 201.875506 
L 557.960614 201.507076 
L 558.43799 199.611625 
L 558.974965 197.522159 
L 559.210968 196.8169 
L 559.689623 196.29172 
L 560.468553 197.647533 
L 560.652229 198.652731 
L 561.675585 201.932551 
L 561.924237 202.431999 
L 562.153707 202.084675 
L 562.693429 200.580718 
L 562.879261 199.848628 
L 563.168071 199.537872 
L 563.541892 199.854744 
L 563.663332 200.252363 
L 564.063923 200.645532 
L 564.187013 200.99163 
L 564.602546 201.266093 
L 565.376283 201.988258 
L 565.616165 201.937336 
L 566.154132 200.048525 
L 567.109206 197.084084 
L 567.348511 196.995952 
L 568.067008 197.971953 
L 568.36386 198.617317 
L 569.317197 201.943542 
L 569.556614 202.985294 
L 569.830097 202.804588 
L 570.180186 201.904216 
L 570.296782 200.882014 
L 570.840372 199.373846 
L 571.312124 198.658636 
L 571.551927 198.601493 
L 572.030259 198.394703 
L 572.327643 198.834283 
L 572.804311 201.714243 
L 573.047077 202.903077 
L 573.343047 203.092705 
L 573.705169 202.646192 
L 574.05876 201.025546 
L 574.30091 200.389123 
L 574.655476 199.870726 
L 574.970739 198.64321 
L 575.266685 198.096666 
L 575.509254 198.247729 
L 575.806683 199.542733 
L 575.982989 201.098722 
L 576.28069 202.224585 
L 576.819632 202.684962 
L 577.534113 202.673285 
L 577.715511 202.15079 
L 578.55534 197.777362 
L 578.728967 197.575351 
L 579.471695 199.09154 
L 580.001437 199.590042 
L 580.954797 201.969823 
L 581.193618 201.895146 
L 581.67021 201.213478 
L 582.031218 201.070432 
L 582.446877 199.894747 
L 582.685641 199.515858 
L 583.282015 199.439779 
L 583.460499 199.592162 
L 583.519781 199.893982 
L 583.93793 199.725694 
L 584.119675 199.527789 
L 584.35554 199.483169 
L 584.712611 200.092606 
L 585.071395 202.469818 
L 585.399086 202.437962 
L 585.63542 201.984065 
L 586.150599 199.75539 
L 586.619088 199.101404 
L 586.989148 198.824196 
L 587.158906 198.265615 
L 587.45692 197.733092 
L 587.635596 197.843398 
L 587.875755 198.391235 
L 588.888745 202.225394 
L 589.612081 201.318248 
L 589.849898 200.853027 
L 590.201208 200.554238 
L 590.339608 199.8474 
L 590.564453 199.601544 
L 591.098088 199.57137 
L 591.336211 199.480399 
L 591.644742 199.71462 
L 592.35766 200.867442 
L 592.599352 201.817483 
L 592.95496 202.586623 
L 593.252524 202.126519 
L 593.789061 200.140095 
L 594.038067 200.33803 
L 594.265573 200.716078 
L 594.510253 200.744262 
L 594.863145 200.356664 
L 595.041953 199.611534 
L 595.294118 199.487211 
L 595.776521 200.636136 
L 596.26267 202.060725 
L 596.502813 201.906702 
L 596.502813 201.906702 
" clip-path="url(#p9afd43e5ca)" style="fill: none; stroke: #ff0000; stroke-opacity: 0.7; stroke-width: 1.5; stroke-linecap: square"/>
   </g>
   <g id="patch_3">
    <path d="M 38.502813 277.92 
L 38.502813 0.72 
" style="fill: none; stroke: #000000; stroke-width: 0.8; stroke-linejoin: miter; stroke-linecap: square"/>
   </g>
   <g id="patch_4">
    <path d="M 596.502813 277.92 
L 596.502813 0.72 
" style="fill: none; stroke: #000000; stroke-width: 0.8; stroke-linejoin: miter; stroke-linecap: square"/>
   </g>
   <g id="patch_5">
    <path d="M 38.502813 277.92 
L 596.502813 277.92 
" style="fill: none; stroke: #000000; stroke-width: 0.8; stroke-linejoin: miter; stroke-linecap: square"/>
   </g>
   <g id="patch_6">
    <path d="M 38.502813 0.72 
L 596.502813 0.72 
" style="fill: none; stroke: #000000; stroke-width: 0.8; stroke-linejoin: miter; stroke-linecap: square"/>
   </g>
   <g id="legend_1">
    <g id="patch_7">
     <path d="M 515.734063 38.07625 
L 589.502813 38.07625 
Q 591.502813 38.07625 591.502813 36.07625 
L 591.502813 7.72 
Q 591.502813 5.72 589.502813 5.72 
L 515.734063 5.72 
Q 513.734063 5.72 513.734063 7.72 
L 513.734063 36.07625 
Q 513.734063 38.07625 515.734063 38.07625 
z
" style="fill: #ffffff; opacity: 0.8; stroke: #cccccc; stroke-linejoin: miter"/>
    </g>
    <g id="line2d_37">
     <path d="M 517.734063 13.818438 
L 527.734063 13.818438 
L 537.734063 13.818438 
" style="fill: none; stroke: #0000ff; stroke-opacity: 0.7; stroke-width: 1.5; stroke-linecap: square"/>
    </g>
    <g id="text_20">
     <!-- RNEA -->
     <g transform="translate(545.734063 17.318438) scale(0.1 -0.1)">
      <defs>
       <path id="DejaVuSans-52" d="M 2841 2188 
Q 3044 2119 3236 1894 
Q 3428 1669 3622 1275 
L 4263 0 
L 3584 0 
L 2988 1197 
Q 2756 1666 2539 1819 
Q 2322 1972 1947 1972 
L 1259 1972 
L 1259 0 
L 628 0 
L 628 4666 
L 2053 4666 
Q 2853 4666 3247 4331 
Q 3641 3997 3641 3322 
Q 3641 2881 3436 2590 
Q 3231 2300 2841 2188 
z
M 1259 4147 
L 1259 2491 
L 2053 2491 
Q 2509 2491 2742 2702 
Q 2975 2913 2975 3322 
Q 2975 3731 2742 3939 
Q 2509 4147 2053 4147 
L 1259 4147 
z
" transform="scale(0.015625)"/>
       <path id="DejaVuSans-45" d="M 628 4666 
L 3578 4666 
L 3578 4134 
L 1259 4134 
L 1259 2753 
L 3481 2753 
L 3481 2222 
L 1259 2222 
L 1259 531 
L 3634 531 
L 3634 0 
L 628 0 
L 628 4666 
z
" transform="scale(0.015625)"/>
       <path id="DejaVuSans-41" d="M 2188 4044 
L 1331 1722 
L 3047 1722 
L 2188 4044 
z
M 1831 4666 
L 2547 4666 
L 4325 0 
L 3669 0 
L 3244 1197 
L 1141 1197 
L 716 0 
L 50 0 
L 1831 4666 
z
" transform="scale(0.015625)"/>
      </defs>
      <use xlink:href="#DejaVuSans-52"/>
      <use xlink:href="#DejaVuSans-4e" x="69.482422"/>
      <use xlink:href="#DejaVuSans-45" x="144.287109"/>
      <use xlink:href="#DejaVuSans-41" x="207.470703"/>
     </g>
    </g>
    <g id="line2d_38">
     <path d="M 517.734063 28.496563 
L 527.734063 28.496563 
L 537.734063 28.496563 
" style="fill: none; stroke: #ff0000; stroke-opacity: 0.7; stroke-width: 1.5; stroke-linecap: square"/>
    </g>
    <g id="text_21">
     <!-- BURNEA -->
     <g transform="translate(545.734063 31.996563) scale(0.1 -0.1)">
      <defs>
       <path id="DejaVuSans-42" d="M 1259 2228 
L 1259 519 
L 2272 519 
Q 2781 519 3026 730 
Q 3272 941 3272 1375 
Q 3272 1813 3026 2020 
Q 2781 2228 2272 2228 
L 1259 2228 
z
M 1259 4147 
L 1259 2741 
L 2194 2741 
Q 2656 2741 2882 2914 
Q 3109 3088 3109 3444 
Q 3109 3797 2882 3972 
Q 2656 4147 2194 4147 
L 1259 4147 
z
M 628 4666 
L 2241 4666 
Q 2963 4666 3353 4366 
Q 3744 4066 3744 3513 
Q 3744 3084 3544 2831 
Q 3344 2578 2956 2516 
Q 3422 2416 3680 2098 
Q 3938 1781 3938 1306 
Q 3938 681 3513 340 
Q 3088 0 2303 0 
L 628 0 
L 628 4666 
z
" transform="scale(0.015625)"/>
       <path id="DejaVuSans-55" d="M 556 4666 
L 1191 4666 
L 1191 1831 
Q 1191 1081 1462 751 
Q 1734 422 2344 422 
Q 2950 422 3222 751 
Q 3494 1081 3494 1831 
L 3494 4666 
L 4128 4666 
L 4128 1753 
Q 4128 841 3676 375 
Q 3225 -91 2344 -91 
Q 1459 -91 1007 375 
Q 556 841 556 1753 
L 556 4666 
z
" transform="scale(0.015625)"/>
      </defs>
      <use xlink:href="#DejaVuSans-42"/>
      <use xlink:href="#DejaVuSans-55" x="68.603516"/>
      <use xlink:href="#DejaVuSans-52" x="141.796875"/>
      <use xlink:href="#DejaVuSans-4e" x="211.279297"/>
      <use xlink:href="#DejaVuSans-45" x="286.083984"/>
      <use xlink:href="#DejaVuSans-41" x="349.267578"/>
     </g>
    </g>
   </g>
  </g>
 </g>
 <defs>
  <clipPath id="p9afd43e5ca">
   <rect x="38.502813" y="0.72" width="558" height="277.2"/>
  </clipPath>
 </defs>
</svg>
