<?xml version="1.0" encoding="utf-8" standalone="no"?>
<!DOCTYPE svg PUBLIC "-//W3C//DTD SVG 1.1//EN"
  "http://www.w3.org/Graphics/SVG/1.1/DTD/svg11.dtd">
<svg xmlns:xlink="http://www.w3.org/1999/xlink" width="597.222813pt" height="304.99625pt" viewBox="0 0 597.222813 304.99625" xmlns="http://www.w3.org/2000/svg" version="1.1">
 <metadata>
  <rdf:RDF xmlns:dc="http://purl.org/dc/elements/1.1/" xmlns:cc="http://creativecommons.org/ns#" xmlns:rdf="http://www.w3.org/1999/02/22-rdf-syntax-ns#">
   <cc:Work>
    <dc:type rdf:resource="http://purl.org/dc/dcmitype/StillImage"/>
    <dc:date>2023-09-07T03:30:22.054570</dc:date>
    <dc:format>image/svg+xml</dc:format>
    <dc:creator>
     <cc:Agent>
      <dc:title>Matplotlib v3.7.2, https://matplotlib.org/</dc:title>
     </cc:Agent>
    </dc:creator>
   </cc:Work>
  </rdf:RDF>
 </metadata>
 <defs>
  <style type="text/css">*{stroke-linejoin: round; stroke-linecap: butt}</style>
 </defs>
 <g id="figure_1">
  <g id="patch_1">
   <path d="M 0 304.99625 
L 597.222813 304.99625 
L 597.222813 0 
L 0 0 
L 0 304.99625 
z
" style="fill: none"/>
  </g>
  <g id="axes_1">
   <g id="patch_2">
    <path d="M 38.502813 277.92 
L 596.502813 277.92 
L 596.502813 0.72 
L 38.502813 0.72 
L 38.502813 277.92 
z
" style="fill: none"/>
   </g>
   <g id="matplotlib.axis_1">
    <g id="xtick_1">
     <g id="line2d_1">
      <path d="M 38.502813 277.92 
L 38.502813 0.72 
" clip-path="url(#pd0a59071a8)" style="fill: none; stroke-dasharray: 0.8,1.32; stroke-dashoffset: 0; stroke: #000000; stroke-opacity: 0.5; stroke-width: 0.8"/>
     </g>
     <g id="line2d_2">
      <defs>
       <path id="mebc975fbc0" d="M 0 0 
L 0 3.5 
" style="stroke: #000000; stroke-width: 0.8"/>
      </defs>
      <g>
       <use xlink:href="#mebc975fbc0" x="38.502813" y="277.92" style="stroke: #000000; stroke-width: 0.8"/>
      </g>
     </g>
     <g id="text_1">
      <!-- 0.0 -->
      <g transform="translate(30.55125 292.518438) scale(0.1 -0.1)">
       <defs>
        <path id="DejaVuSans-30" d="M 2034 4250 
Q 1547 4250 1301 3770 
Q 1056 3291 1056 2328 
Q 1056 1369 1301 889 
Q 1547 409 2034 409 
Q 2525 409 2770 889 
Q 3016 1369 3016 2328 
Q 3016 3291 2770 3770 
Q 2525 4250 2034 4250 
z
M 2034 4750 
Q 2819 4750 3233 4129 
Q 3647 3509 3647 2328 
Q 3647 1150 3233 529 
Q 2819 -91 2034 -91 
Q 1250 -91 836 529 
Q 422 1150 422 2328 
Q 422 3509 836 4129 
Q 1250 4750 2034 4750 
z
" transform="scale(0.015625)"/>
        <path id="DejaVuSans-2e" d="M 684 794 
L 1344 794 
L 1344 0 
L 684 0 
L 684 794 
z
" transform="scale(0.015625)"/>
       </defs>
       <use xlink:href="#DejaVuSans-30"/>
       <use xlink:href="#DejaVuSans-2e" x="63.623047"/>
       <use xlink:href="#DejaVuSans-30" x="95.410156"/>
      </g>
     </g>
    </g>
    <g id="xtick_2">
     <g id="line2d_3">
      <path d="M 112.654137 277.92 
L 112.654137 0.72 
" clip-path="url(#pd0a59071a8)" style="fill: none; stroke-dasharray: 0.8,1.32; stroke-dashoffset: 0; stroke: #000000; stroke-opacity: 0.5; stroke-width: 0.8"/>
     </g>
     <g id="line2d_4">
      <g>
       <use xlink:href="#mebc975fbc0" x="112.654137" y="277.92" style="stroke: #000000; stroke-width: 0.8"/>
      </g>
     </g>
     <g id="text_2">
      <!-- 2.5 -->
      <g transform="translate(104.702575 292.518438) scale(0.1 -0.1)">
       <defs>
        <path id="DejaVuSans-32" d="M 1228 531 
L 3431 531 
L 3431 0 
L 469 0 
L 469 531 
Q 828 903 1448 1529 
Q 2069 2156 2228 2338 
Q 2531 2678 2651 2914 
Q 2772 3150 2772 3378 
Q 2772 3750 2511 3984 
Q 2250 4219 1831 4219 
Q 1534 4219 1204 4116 
Q 875 4013 500 3803 
L 500 4441 
Q 881 4594 1212 4672 
Q 1544 4750 1819 4750 
Q 2544 4750 2975 4387 
Q 3406 4025 3406 3419 
Q 3406 3131 3298 2873 
Q 3191 2616 2906 2266 
Q 2828 2175 2409 1742 
Q 1991 1309 1228 531 
z
" transform="scale(0.015625)"/>
        <path id="DejaVuSans-35" d="M 691 4666 
L 3169 4666 
L 3169 4134 
L 1269 4134 
L 1269 2991 
Q 1406 3038 1543 3061 
Q 1681 3084 1819 3084 
Q 2600 3084 3056 2656 
Q 3513 2228 3513 1497 
Q 3513 744 3044 326 
Q 2575 -91 1722 -91 
Q 1428 -91 1123 -41 
Q 819 9 494 109 
L 494 744 
Q 775 591 1075 516 
Q 1375 441 1709 441 
Q 2250 441 2565 725 
Q 2881 1009 2881 1497 
Q 2881 1984 2565 2268 
Q 2250 2553 1709 2553 
Q 1456 2553 1204 2497 
Q 953 2441 691 2322 
L 691 4666 
z
" transform="scale(0.015625)"/>
       </defs>
       <use xlink:href="#DejaVuSans-32"/>
       <use xlink:href="#DejaVuSans-2e" x="63.623047"/>
       <use xlink:href="#DejaVuSans-35" x="95.410156"/>
      </g>
     </g>
    </g>
    <g id="xtick_3">
     <g id="line2d_5">
      <path d="M 186.805462 277.92 
L 186.805462 0.72 
" clip-path="url(#pd0a59071a8)" style="fill: none; stroke-dasharray: 0.8,1.32; stroke-dashoffset: 0; stroke: #000000; stroke-opacity: 0.5; stroke-width: 0.8"/>
     </g>
     <g id="line2d_6">
      <g>
       <use xlink:href="#mebc975fbc0" x="186.805462" y="277.92" style="stroke: #000000; stroke-width: 0.8"/>
      </g>
     </g>
     <g id="text_3">
      <!-- 5.0 -->
      <g transform="translate(178.8539 292.518438) scale(0.1 -0.1)">
       <use xlink:href="#DejaVuSans-35"/>
       <use xlink:href="#DejaVuSans-2e" x="63.623047"/>
       <use xlink:href="#DejaVuSans-30" x="95.410156"/>
      </g>
     </g>
    </g>
    <g id="xtick_4">
     <g id="line2d_7">
      <path d="M 260.956787 277.92 
L 260.956787 0.72 
" clip-path="url(#pd0a59071a8)" style="fill: none; stroke-dasharray: 0.8,1.32; stroke-dashoffset: 0; stroke: #000000; stroke-opacity: 0.5; stroke-width: 0.8"/>
     </g>
     <g id="line2d_8">
      <g>
       <use xlink:href="#mebc975fbc0" x="260.956787" y="277.92" style="stroke: #000000; stroke-width: 0.8"/>
      </g>
     </g>
     <g id="text_4">
      <!-- 7.5 -->
      <g transform="translate(253.005225 292.518438) scale(0.1 -0.1)">
       <defs>
        <path id="DejaVuSans-37" d="M 525 4666 
L 3525 4666 
L 3525 4397 
L 1831 0 
L 1172 0 
L 2766 4134 
L 525 4134 
L 525 4666 
z
" transform="scale(0.015625)"/>
       </defs>
       <use xlink:href="#DejaVuSans-37"/>
       <use xlink:href="#DejaVuSans-2e" x="63.623047"/>
       <use xlink:href="#DejaVuSans-35" x="95.410156"/>
      </g>
     </g>
    </g>
    <g id="xtick_5">
     <g id="line2d_9">
      <path d="M 335.108112 277.92 
L 335.108112 0.72 
" clip-path="url(#pd0a59071a8)" style="fill: none; stroke-dasharray: 0.8,1.32; stroke-dashoffset: 0; stroke: #000000; stroke-opacity: 0.5; stroke-width: 0.8"/>
     </g>
     <g id="line2d_10">
      <g>
       <use xlink:href="#mebc975fbc0" x="335.108112" y="277.92" style="stroke: #000000; stroke-width: 0.8"/>
      </g>
     </g>
     <g id="text_5">
      <!-- 10.0 -->
      <g transform="translate(323.9753 292.518438) scale(0.1 -0.1)">
       <defs>
        <path id="DejaVuSans-31" d="M 794 531 
L 1825 531 
L 1825 4091 
L 703 3866 
L 703 4441 
L 1819 4666 
L 2450 4666 
L 2450 531 
L 3481 531 
L 3481 0 
L 794 0 
L 794 531 
z
" transform="scale(0.015625)"/>
       </defs>
       <use xlink:href="#DejaVuSans-31"/>
       <use xlink:href="#DejaVuSans-30" x="63.623047"/>
       <use xlink:href="#DejaVuSans-2e" x="127.246094"/>
       <use xlink:href="#DejaVuSans-30" x="159.033203"/>
      </g>
     </g>
    </g>
    <g id="xtick_6">
     <g id="line2d_11">
      <path d="M 409.259437 277.92 
L 409.259437 0.72 
" clip-path="url(#pd0a59071a8)" style="fill: none; stroke-dasharray: 0.8,1.32; stroke-dashoffset: 0; stroke: #000000; stroke-opacity: 0.5; stroke-width: 0.8"/>
     </g>
     <g id="line2d_12">
      <g>
       <use xlink:href="#mebc975fbc0" x="409.259437" y="277.92" style="stroke: #000000; stroke-width: 0.8"/>
      </g>
     </g>
     <g id="text_6">
      <!-- 12.5 -->
      <g transform="translate(398.126625 292.518438) scale(0.1 -0.1)">
       <use xlink:href="#DejaVuSans-31"/>
       <use xlink:href="#DejaVuSans-32" x="63.623047"/>
       <use xlink:href="#DejaVuSans-2e" x="127.246094"/>
       <use xlink:href="#DejaVuSans-35" x="159.033203"/>
      </g>
     </g>
    </g>
    <g id="xtick_7">
     <g id="line2d_13">
      <path d="M 483.410762 277.92 
L 483.410762 0.72 
" clip-path="url(#pd0a59071a8)" style="fill: none; stroke-dasharray: 0.8,1.32; stroke-dashoffset: 0; stroke: #000000; stroke-opacity: 0.5; stroke-width: 0.8"/>
     </g>
     <g id="line2d_14">
      <g>
       <use xlink:href="#mebc975fbc0" x="483.410762" y="277.92" style="stroke: #000000; stroke-width: 0.8"/>
      </g>
     </g>
     <g id="text_7">
      <!-- 15.0 -->
      <g transform="translate(472.27795 292.518438) scale(0.1 -0.1)">
       <use xlink:href="#DejaVuSans-31"/>
       <use xlink:href="#DejaVuSans-35" x="63.623047"/>
       <use xlink:href="#DejaVuSans-2e" x="127.246094"/>
       <use xlink:href="#DejaVuSans-30" x="159.033203"/>
      </g>
     </g>
    </g>
    <g id="xtick_8">
     <g id="line2d_15">
      <path d="M 557.562087 277.92 
L 557.562087 0.72 
" clip-path="url(#pd0a59071a8)" style="fill: none; stroke-dasharray: 0.8,1.32; stroke-dashoffset: 0; stroke: #000000; stroke-opacity: 0.5; stroke-width: 0.8"/>
     </g>
     <g id="line2d_16">
      <g>
       <use xlink:href="#mebc975fbc0" x="557.562087" y="277.92" style="stroke: #000000; stroke-width: 0.8"/>
      </g>
     </g>
     <g id="text_8">
      <!-- 17.5 -->
      <g transform="translate(546.429274 292.518438) scale(0.1 -0.1)">
       <use xlink:href="#DejaVuSans-31"/>
       <use xlink:href="#DejaVuSans-37" x="63.623047"/>
       <use xlink:href="#DejaVuSans-2e" x="127.246094"/>
       <use xlink:href="#DejaVuSans-35" x="159.033203"/>
      </g>
     </g>
    </g>
    <g id="text_9">
     <!-- Zeit [s] -->
     <g transform="translate(299.556719 302.196563) scale(0.1 -0.1)">
      <defs>
       <path id="DejaVuSans-5a" d="M 359 4666 
L 4025 4666 
L 4025 4184 
L 1075 531 
L 4097 531 
L 4097 0 
L 288 0 
L 288 481 
L 3238 4134 
L 359 4134 
L 359 4666 
z
" transform="scale(0.015625)"/>
       <path id="DejaVuSans-65" d="M 3597 1894 
L 3597 1613 
L 953 1613 
Q 991 1019 1311 708 
Q 1631 397 2203 397 
Q 2534 397 2845 478 
Q 3156 559 3463 722 
L 3463 178 
Q 3153 47 2828 -22 
Q 2503 -91 2169 -91 
Q 1331 -91 842 396 
Q 353 884 353 1716 
Q 353 2575 817 3079 
Q 1281 3584 2069 3584 
Q 2775 3584 3186 3129 
Q 3597 2675 3597 1894 
z
M 3022 2063 
Q 3016 2534 2758 2815 
Q 2500 3097 2075 3097 
Q 1594 3097 1305 2825 
Q 1016 2553 972 2059 
L 3022 2063 
z
" transform="scale(0.015625)"/>
       <path id="DejaVuSans-69" d="M 603 3500 
L 1178 3500 
L 1178 0 
L 603 0 
L 603 3500 
z
M 603 4863 
L 1178 4863 
L 1178 4134 
L 603 4134 
L 603 4863 
z
" transform="scale(0.015625)"/>
       <path id="DejaVuSans-74" d="M 1172 4494 
L 1172 3500 
L 2356 3500 
L 2356 3053 
L 1172 3053 
L 1172 1153 
Q 1172 725 1289 603 
Q 1406 481 1766 481 
L 2356 481 
L 2356 0 
L 1766 0 
Q 1100 0 847 248 
Q 594 497 594 1153 
L 594 3053 
L 172 3053 
L 172 3500 
L 594 3500 
L 594 4494 
L 1172 4494 
z
" transform="scale(0.015625)"/>
       <path id="DejaVuSans-20" transform="scale(0.015625)"/>
       <path id="DejaVuSans-5b" d="M 550 4863 
L 1875 4863 
L 1875 4416 
L 1125 4416 
L 1125 -397 
L 1875 -397 
L 1875 -844 
L 550 -844 
L 550 4863 
z
" transform="scale(0.015625)"/>
       <path id="DejaVuSans-73" d="M 2834 3397 
L 2834 2853 
Q 2591 2978 2328 3040 
Q 2066 3103 1784 3103 
Q 1356 3103 1142 2972 
Q 928 2841 928 2578 
Q 928 2378 1081 2264 
Q 1234 2150 1697 2047 
L 1894 2003 
Q 2506 1872 2764 1633 
Q 3022 1394 3022 966 
Q 3022 478 2636 193 
Q 2250 -91 1575 -91 
Q 1294 -91 989 -36 
Q 684 19 347 128 
L 347 722 
Q 666 556 975 473 
Q 1284 391 1588 391 
Q 1994 391 2212 530 
Q 2431 669 2431 922 
Q 2431 1156 2273 1281 
Q 2116 1406 1581 1522 
L 1381 1569 
Q 847 1681 609 1914 
Q 372 2147 372 2553 
Q 372 3047 722 3315 
Q 1072 3584 1716 3584 
Q 2034 3584 2315 3537 
Q 2597 3491 2834 3397 
z
" transform="scale(0.015625)"/>
       <path id="DejaVuSans-5d" d="M 1947 4863 
L 1947 -844 
L 622 -844 
L 622 -397 
L 1369 -397 
L 1369 4416 
L 622 4416 
L 622 4863 
L 1947 4863 
z
" transform="scale(0.015625)"/>
      </defs>
      <use xlink:href="#DejaVuSans-5a"/>
      <use xlink:href="#DejaVuSans-65" x="68.505859"/>
      <use xlink:href="#DejaVuSans-69" x="130.029297"/>
      <use xlink:href="#DejaVuSans-74" x="157.8125"/>
      <use xlink:href="#DejaVuSans-20" x="197.021484"/>
      <use xlink:href="#DejaVuSans-5b" x="228.808594"/>
      <use xlink:href="#DejaVuSans-73" x="267.822266"/>
      <use xlink:href="#DejaVuSans-5d" x="319.921875"/>
     </g>
    </g>
   </g>
   <g id="matplotlib.axis_2">
    <g id="ytick_1">
     <g id="line2d_17">
      <path d="M 38.502813 245.231141 
L 596.502813 245.231141 
" clip-path="url(#pd0a59071a8)" style="fill: none; stroke-dasharray: 0.8,1.32; stroke-dashoffset: 0; stroke: #000000; stroke-opacity: 0.5; stroke-width: 0.8"/>
     </g>
     <g id="line2d_18">
      <defs>
       <path id="m15fa14e3a2" d="M 0 0 
L -3.5 0 
" style="stroke: #000000; stroke-width: 0.8"/>
      </defs>
      <g>
       <use xlink:href="#m15fa14e3a2" x="38.502813" y="245.231141" style="stroke: #000000; stroke-width: 0.8"/>
      </g>
     </g>
     <g id="text_10">
      <!-- −30 -->
      <g transform="translate(10.398125 249.03036) scale(0.1 -0.1)">
       <defs>
        <path id="DejaVuSans-2212" d="M 678 2272 
L 4684 2272 
L 4684 1741 
L 678 1741 
L 678 2272 
z
" transform="scale(0.015625)"/>
        <path id="DejaVuSans-33" d="M 2597 2516 
Q 3050 2419 3304 2112 
Q 3559 1806 3559 1356 
Q 3559 666 3084 287 
Q 2609 -91 1734 -91 
Q 1441 -91 1130 -33 
Q 819 25 488 141 
L 488 750 
Q 750 597 1062 519 
Q 1375 441 1716 441 
Q 2309 441 2620 675 
Q 2931 909 2931 1356 
Q 2931 1769 2642 2001 
Q 2353 2234 1838 2234 
L 1294 2234 
L 1294 2753 
L 1863 2753 
Q 2328 2753 2575 2939 
Q 2822 3125 2822 3475 
Q 2822 3834 2567 4026 
Q 2313 4219 1838 4219 
Q 1578 4219 1281 4162 
Q 984 4106 628 3988 
L 628 4550 
Q 988 4650 1302 4700 
Q 1616 4750 1894 4750 
Q 2613 4750 3031 4423 
Q 3450 4097 3450 3541 
Q 3450 3153 3228 2886 
Q 3006 2619 2597 2516 
z
" transform="scale(0.015625)"/>
       </defs>
       <use xlink:href="#DejaVuSans-2212"/>
       <use xlink:href="#DejaVuSans-33" x="83.789062"/>
       <use xlink:href="#DejaVuSans-30" x="147.412109"/>
      </g>
     </g>
    </g>
    <g id="ytick_2">
     <g id="line2d_19">
      <path d="M 38.502813 193.399734 
L 596.502813 193.399734 
" clip-path="url(#pd0a59071a8)" style="fill: none; stroke-dasharray: 0.8,1.32; stroke-dashoffset: 0; stroke: #000000; stroke-opacity: 0.5; stroke-width: 0.8"/>
     </g>
     <g id="line2d_20">
      <g>
       <use xlink:href="#m15fa14e3a2" x="38.502813" y="193.399734" style="stroke: #000000; stroke-width: 0.8"/>
      </g>
     </g>
     <g id="text_11">
      <!-- −20 -->
      <g transform="translate(10.398125 197.198952) scale(0.1 -0.1)">
       <use xlink:href="#DejaVuSans-2212"/>
       <use xlink:href="#DejaVuSans-32" x="83.789062"/>
       <use xlink:href="#DejaVuSans-30" x="147.412109"/>
      </g>
     </g>
    </g>
    <g id="ytick_3">
     <g id="line2d_21">
      <path d="M 38.502813 141.568326 
L 596.502813 141.568326 
" clip-path="url(#pd0a59071a8)" style="fill: none; stroke-dasharray: 0.8,1.32; stroke-dashoffset: 0; stroke: #000000; stroke-opacity: 0.5; stroke-width: 0.8"/>
     </g>
     <g id="line2d_22">
      <g>
       <use xlink:href="#m15fa14e3a2" x="38.502813" y="141.568326" style="stroke: #000000; stroke-width: 0.8"/>
      </g>
     </g>
     <g id="text_12">
      <!-- −10 -->
      <g transform="translate(10.398125 145.367545) scale(0.1 -0.1)">
       <use xlink:href="#DejaVuSans-2212"/>
       <use xlink:href="#DejaVuSans-31" x="83.789062"/>
       <use xlink:href="#DejaVuSans-30" x="147.412109"/>
      </g>
     </g>
    </g>
    <g id="ytick_4">
     <g id="line2d_23">
      <path d="M 38.502813 89.736918 
L 596.502813 89.736918 
" clip-path="url(#pd0a59071a8)" style="fill: none; stroke-dasharray: 0.8,1.32; stroke-dashoffset: 0; stroke: #000000; stroke-opacity: 0.5; stroke-width: 0.8"/>
     </g>
     <g id="line2d_24">
      <g>
       <use xlink:href="#m15fa14e3a2" x="38.502813" y="89.736918" style="stroke: #000000; stroke-width: 0.8"/>
      </g>
     </g>
     <g id="text_13">
      <!-- 0 -->
      <g transform="translate(25.140313 93.536137) scale(0.1 -0.1)">
       <use xlink:href="#DejaVuSans-30"/>
      </g>
     </g>
    </g>
    <g id="ytick_5">
     <g id="line2d_25">
      <path d="M 38.502813 37.90551 
L 596.502813 37.90551 
" clip-path="url(#pd0a59071a8)" style="fill: none; stroke-dasharray: 0.8,1.32; stroke-dashoffset: 0; stroke: #000000; stroke-opacity: 0.5; stroke-width: 0.8"/>
     </g>
     <g id="line2d_26">
      <g>
       <use xlink:href="#m15fa14e3a2" x="38.502813" y="37.90551" style="stroke: #000000; stroke-width: 0.8"/>
      </g>
     </g>
     <g id="text_14">
      <!-- 10 -->
      <g transform="translate(18.777813 41.704729) scale(0.1 -0.1)">
       <use xlink:href="#DejaVuSans-31"/>
       <use xlink:href="#DejaVuSans-30" x="63.623047"/>
      </g>
     </g>
    </g>
    <g id="text_15">
     <!-- Kraft [N] -->
     <g transform="translate(8.318438 160.5825) rotate(-90) scale(0.1 -0.1)">
      <defs>
       <path id="DejaVuSans-4b" d="M 628 4666 
L 1259 4666 
L 1259 2694 
L 3353 4666 
L 4166 4666 
L 1850 2491 
L 4331 0 
L 3500 0 
L 1259 2247 
L 1259 0 
L 628 0 
L 628 4666 
z
" transform="scale(0.015625)"/>
       <path id="DejaVuSans-72" d="M 2631 2963 
Q 2534 3019 2420 3045 
Q 2306 3072 2169 3072 
Q 1681 3072 1420 2755 
Q 1159 2438 1159 1844 
L 1159 0 
L 581 0 
L 581 3500 
L 1159 3500 
L 1159 2956 
Q 1341 3275 1631 3429 
Q 1922 3584 2338 3584 
Q 2397 3584 2469 3576 
Q 2541 3569 2628 3553 
L 2631 2963 
z
" transform="scale(0.015625)"/>
       <path id="DejaVuSans-61" d="M 2194 1759 
Q 1497 1759 1228 1600 
Q 959 1441 959 1056 
Q 959 750 1161 570 
Q 1363 391 1709 391 
Q 2188 391 2477 730 
Q 2766 1069 2766 1631 
L 2766 1759 
L 2194 1759 
z
M 3341 1997 
L 3341 0 
L 2766 0 
L 2766 531 
Q 2569 213 2275 61 
Q 1981 -91 1556 -91 
Q 1019 -91 701 211 
Q 384 513 384 1019 
Q 384 1609 779 1909 
Q 1175 2209 1959 2209 
L 2766 2209 
L 2766 2266 
Q 2766 2663 2505 2880 
Q 2244 3097 1772 3097 
Q 1472 3097 1187 3025 
Q 903 2953 641 2809 
L 641 3341 
Q 956 3463 1253 3523 
Q 1550 3584 1831 3584 
Q 2591 3584 2966 3190 
Q 3341 2797 3341 1997 
z
" transform="scale(0.015625)"/>
       <path id="DejaVuSans-66" d="M 2375 4863 
L 2375 4384 
L 1825 4384 
Q 1516 4384 1395 4259 
Q 1275 4134 1275 3809 
L 1275 3500 
L 2222 3500 
L 2222 3053 
L 1275 3053 
L 1275 0 
L 697 0 
L 697 3053 
L 147 3053 
L 147 3500 
L 697 3500 
L 697 3744 
Q 697 4328 969 4595 
Q 1241 4863 1831 4863 
L 2375 4863 
z
" transform="scale(0.015625)"/>
       <path id="DejaVuSans-4e" d="M 628 4666 
L 1478 4666 
L 3547 763 
L 3547 4666 
L 4159 4666 
L 4159 0 
L 3309 0 
L 1241 3903 
L 1241 0 
L 628 0 
L 628 4666 
z
" transform="scale(0.015625)"/>
      </defs>
      <use xlink:href="#DejaVuSans-4b"/>
      <use xlink:href="#DejaVuSans-72" x="65.576172"/>
      <use xlink:href="#DejaVuSans-61" x="106.689453"/>
      <use xlink:href="#DejaVuSans-66" x="167.96875"/>
      <use xlink:href="#DejaVuSans-74" x="201.423828"/>
      <use xlink:href="#DejaVuSans-20" x="240.632812"/>
      <use xlink:href="#DejaVuSans-5b" x="272.419922"/>
      <use xlink:href="#DejaVuSans-4e" x="311.433594"/>
      <use xlink:href="#DejaVuSans-5d" x="386.238281"/>
     </g>
    </g>
   </g>
   <g id="line2d_27">
    <path d="M 38.502813 89.736918 
L 223.732051 89.698317 
L 224.048213 89.567708 
L 224.498476 88.866936 
L 224.976617 88.403636 
L 225.274355 88.41446 
L 226.226817 89.198271 
L 226.525541 89.361762 
L 226.707352 90.099961 
L 227.004147 90.351739 
L 227.184451 90.033791 
L 227.422827 90.202354 
L 227.479239 89.801474 
L 227.956897 90.763453 
L 228.194151 89.977261 
L 228.491933 90.644087 
L 228.730952 90.836542 
L 229.211707 89.95965 
L 229.507621 89.614026 
L 229.998628 89.613069 
L 230.173069 88.35895 
L 230.408796 89.170043 
L 230.705939 90.619687 
L 230.945101 88.717206 
L 231.242363 90.460602 
L 231.630147 90.958228 
L 231.663719 92.114149 
L 232.136825 90.093576 
L 232.316057 87.844102 
L 232.434509 91.152802 
L 232.915984 89.632617 
L 233.208451 87.694006 
L 233.387885 90.336657 
L 233.626662 89.638948 
L 233.864567 88.21588 
L 234.163673 92.366896 
L 234.459871 88.875433 
L 235.11598 91.549639 
L 235.432665 90.313243 
L 235.72695 91.496572 
L 235.906757 89.077549 
L 236.084479 91.960972 
L 236.384217 92.563881 
L 236.621287 88.71703 
L 236.919839 88.340767 
L 237.157824 89.981934 
L 237.395703 87.418105 
L 237.695023 87.471358 
L 237.874902 92.223333 
L 238.290534 90.268432 
L 238.35076 91.079144 
L 238.589264 91.49554 
L 238.828455 93.256137 
L 239.065068 87.095926 
L 239.305311 87.442782 
L 239.549082 88.646363 
L 239.840779 86.662938 
L 240.023237 92.69658 
L 240.317181 89.601456 
L 240.614551 89.09591 
L 240.793797 86.373468 
L 241.151839 91.512701 
L 241.389884 90.315666 
L 241.569338 88.697654 
L 242.044896 91.675582 
L 242.344062 89.909991 
L 242.641746 89.836477 
L 242.939843 88.761161 
L 243.118815 92.34958 
L 243.41606 94.116658 
L 243.539421 90.881891 
L 243.836562 91.519476 
L 244.071675 91.537544 
L 244.253567 90.535404 
L 244.531837 89.733594 
L 244.760099 91.758583 
L 244.998784 90.619747 
L 245.503869 87.666101 
L 245.741822 87.255595 
L 246.202726 90.194925 
L 246.337942 97.708361 
L 246.754794 87.479743 
L 246.994239 92.9654 
L 247.232263 95.354114 
L 247.469526 86.199106 
L 247.708076 90.720642 
L 248.125328 94.93853 
L 248.363697 93.476787 
L 248.543255 95.773503 
L 248.848689 84.372259 
L 249.020847 93.927745 
L 249.218981 90.484414 
L 249.530817 91.671643 
L 249.796994 90.274329 
L 249.91722 91.635763 
L 250.176782 92.205941 
L 250.454559 89.366034 
L 250.69308 90.300763 
L 250.990238 89.851873 
L 251.171156 87.844066 
L 251.466717 88.646479 
L 251.705896 86.456162 
L 252.004037 88.001983 
L 252.243865 88.425785 
L 252.425758 84.813493 
L 252.66071 87.054295 
L 252.958474 91.126653 
L 253.137428 90.979511 
L 253.437262 86.671323 
L 253.732822 89.346197 
L 253.912799 87.934241 
L 254.151034 91.141036 
L 254.390353 98.143344 
L 254.866171 82.966965 
L 255.283195 101.575669 
L 255.702331 89.853879 
L 255.879236 89.100249 
L 256.118256 95.241627 
L 256.357 94.129677 
L 256.596713 87.599556 
L 257.013573 86.053393 
L 257.134596 93.638973 
L 257.61066 86.488373 
L 257.848051 91.246183 
L 258.20509 95.488495 
L 258.445132 86.921506 
L 258.859825 99.280043 
L 259.158214 95.770323 
L 259.730147 91.466766 
L 259.876027 83.312291 
L 260.173233 95.169269 
L 260.294447 91.527103 
L 260.591149 86.984782 
L 260.949329 73.997061 
L 261.322962 92.375961 
L 261.602805 96.360713 
L 261.975746 91.663532 
L 262.086563 92.018108 
L 262.328785 95.702508 
L 262.55622 92.454812 
L 262.794199 92.248864 
L 263.151773 101.492552 
L 263.330837 92.883605 
L 263.7477 84.086695 
L 263.866901 88.837966 
L 264.105397 87.128338 
L 264.285849 98.549613 
L 264.643203 86.606801 
L 264.881961 88.87327 
L 265.058864 87.573733 
L 265.299527 90.747441 
L 265.714773 100.565392 
L 265.955612 98.800478 
L 266.191948 89.312188 
L 266.252174 90.068948 
L 266.48981 92.927457 
L 266.788459 92.088079 
L 267.09442 92.441285 
L 267.324829 94.577405 
L 267.563622 84.671345 
L 267.759853 91.000237 
L 268.338011 96.001355 
L 268.532791 93.5011 
L 268.756773 92.243324 
L 269.017167 93.685928 
L 269.233644 100.305187 
L 269.530633 102.09831 
L 269.887378 98.887697 
L 270.125731 98.888447 
L 270.245132 92.427373 
L 270.661966 91.377611 
L 270.723 92.968289 
L 270.960397 96.044659 
L 271.318588 98.975964 
L 271.561653 89.068748 
L 271.735812 99.667782 
L 271.975033 89.834455 
L 272.454512 99.797328 
L 272.689423 85.90793 
L 272.927961 102.696286 
L 273.643316 92.994588 
L 273.969451 91.034202 
L 274.219372 90.233623 
L 274.658263 95.706426 
L 274.845561 93.269218 
L 275.037647 93.3813 
L 275.313574 89.539948 
L 275.437851 98.7319 
L 275.791628 98.16023 
L 275.91339 91.79045 
L 276.20821 89.489966 
L 276.393789 101.078241 
L 276.812326 93.60306 
L 277.049078 105.573356 
L 277.162083 96.605696 
L 277.590469 90.621199 
L 277.779075 99.799031 
L 277.939041 86.766896 
L 278.12053 84.548039 
L 278.475781 104.910274 
L 278.624491 95.126404 
L 278.955747 100.351113 
L 279.193852 99.103696 
L 279.431173 86.590408 
L 279.612332 105.169649 
L 279.907556 92.133806 
L 280.086959 93.898992 
L 280.384925 83.162239 
L 280.623809 95.557933 
L 281.1601 92.616608 
L 281.457142 97.757264 
L 281.594071 104.58666 
L 281.873928 89.839156 
L 282.056615 102.369509 
L 282.113657 90.484593 
L 282.351481 95.5646 
L 282.533731 92.70642 
L 282.828435 92.937211 
L 283.068365 91.129026 
L 283.306338 94.098233 
L 283.66432 80.535704 
L 283.961917 94.497101 
L 284.088847 107.407002 
L 284.563335 88.855593 
L 284.856401 87.339479 
L 285.034625 102.558556 
L 285.276257 95.107388 
L 285.690436 93.516125 
L 285.810779 91.2354 
L 286.048783 84.124617 
L 286.292195 88.690091 
L 286.526687 102.652457 
L 286.769413 100.043968 
L 287.007247 111.224735 
L 287.262421 92.160896 
L 287.484106 104.073281 
L 287.84259 94.66043 
L 288.024509 81.230332 
L 288.259375 92.557275 
L 288.497522 86.052151 
L 288.736219 87.094849 
L 289.035046 96.372718 
L 289.24077 97.628575 
L 289.455069 85.566754 
L 289.811148 88.69476 
L 290.227704 77.647076 
L 290.347633 98.074548 
L 290.465879 81.821422 
L 290.883363 107.847504 
L 290.948755 83.014426 
L 291.225488 91.87088 
L 291.495528 107.304967 
L 291.679836 91.611083 
L 292.13465 114.015393 
L 292.194976 89.562053 
L 292.432576 89.163625 
L 292.969282 100.559151 
L 293.207555 99.446384 
L 293.504983 93.587327 
L 293.689059 98.285865 
L 293.924229 110.96941 
L 294.221147 114.329651 
L 294.466574 102.525453 
L 294.698997 115.584463 
L 294.878318 97.762424 
L 295.173661 103.791347 
L 295.4127 88.928892 
L 295.717231 84.939956 
L 295.948103 109.795665 
L 296.426372 91.881339 
L 296.607631 92.4525 
L 296.961851 96.603094 
L 297.152314 103.83111 
L 297.438974 90.024299 
L 297.620443 106.023329 
L 297.929888 94.36969 
L 298.095365 96.797778 
L 298.335465 93.200302 
L 298.632709 104.990178 
L 298.870236 94.229482 
L 299.108436 94.535701 
L 299.60655 92.507132 
L 299.827215 90.702217 
L 300.182774 107.473117 
L 300.361705 91.775295 
L 300.600166 102.695792 
L 300.854175 91.670131 
L 301.079765 104.801782 
L 301.494049 76.108111 
L 301.613328 93.616432 
L 301.911255 76.513593 
L 302.09056 100.594184 
L 302.626399 91.581487 
L 302.80676 80.345568 
L 303.043886 96.700801 
L 303.341324 96.570372 
L 303.54503 100.158121 
L 303.826118 93.069784 
L 304.119111 97.504914 
L 304.41641 98.626131 
L 304.595673 91.183301 
L 304.95287 97.15264 
L 305.252232 105.1046 
L 305.31073 99.40719 
L 305.548602 96.889121 
L 305.846457 102.301198 
L 306.02906 96.165085 
L 306.385283 97.85139 
L 306.562027 109.98209 
L 306.801509 104.228798 
L 306.996024 94.058908 
L 307.281744 96.66255 
L 307.900046 99.329167 
L 308.067971 98.533362 
L 308.299126 106.684587 
L 308.537897 84.636878 
L 308.839248 100.600424 
L 309.086734 99.89579 
L 309.313549 102.171645 
L 309.455479 100.468662 
L 309.930311 104.718117 
L 310.001814 103.885633 
L 310.28921 92.313141 
L 310.527271 108.766996 
L 310.708003 87.338634 
L 311.063774 96.091666 
L 311.611583 80.309835 
L 311.781527 106.177126 
L 312.017687 104.016254 
L 312.375319 82.525345 
L 312.501747 97.632495 
L 312.732977 96.646011 
L 313.090224 93.606653 
L 313.212638 272.589231 
L 313.805492 248.435405 
L 314.235778 133.411283 
L 314.58015 128.438613 
L 314.701814 108.318338 
L 314.938888 93.287983 
L 315.682591 82.709657 
L 316.016983 83.671307 
L 316.33419 86.107141 
L 316.452034 60.247191 
L 316.695304 80.673863 
L 316.995565 69.15075 
L 317.110027 88.382282 
L 317.410895 82.056165 
L 317.763281 89.91451 
L 318.060545 89.996621 
L 318.180102 90.587574 
L 318.359189 94.831316 
L 318.718927 77.788227 
L 318.959086 78.518653 
L 319.49789 100.668525 
L 319.614865 91.074697 
L 319.910478 106.132061 
L 320.14826 92.0846 
L 320.624731 86.175366 
L 320.864807 89.762237 
L 321.102007 74.444297 
L 321.340325 85.27216 
L 321.584298 87.658282 
L 321.878065 70.407683 
L 322.357206 88.801598 
L 322.592008 91.278337 
L 322.840479 88.858173 
L 323.070052 90.24817 
L 323.310491 90.18317 
L 323.548541 102.010859 
L 323.963903 100.843634 
L 324.083748 88.013846 
L 324.50419 97.354359 
L 324.569671 80.643387 
L 324.802157 90.721841 
L 325.454334 89.524866 
L 325.633327 87.178031 
L 325.812051 90.952036 
L 326.051482 77.053391 
L 326.294583 79.947657 
L 326.530758 87.963722 
L 326.852363 82.515255 
L 327.242305 92.238717 
L 327.301953 87.158973 
L 327.540635 90.569752 
L 327.778986 89.558067 
L 328.020226 92.307855 
L 328.256505 90.324937 
L 328.495475 76.780242 
L 328.794246 97.817036 
L 329.171816 89.030758 
L 329.275333 95.995526 
L 329.508337 101.936995 
L 329.745474 81.361103 
L 330.162941 90.00388 
L 330.282264 89.766011 
L 330.580948 89.583348 
L 330.761294 96.922584 
L 331.057073 91.130977 
L 331.312423 99.090585 
L 331.798258 85.675441 
L 332.018819 93.100877 
L 332.487919 91.042223 
L 332.725398 93.104258 
L 333.024265 89.711075 
L 333.267721 94.352306 
L 333.502737 95.910622 
L 333.741417 87.255984 
L 333.980504 90.583599 
L 334.226045 97.227382 
L 334.581092 83.008168 
L 335.022935 91.151724 
L 335.231468 90.660076 
L 335.709664 102.242048 
L 335.971918 98.540287 
L 336.184852 86.94256 
L 336.423478 86.145468 
L 336.663453 86.296579 
L 336.900926 93.382134 
L 337.317585 88.910833 
L 337.437428 85.5195 
L 337.736454 92.604474 
L 337.916816 89.758715 
L 338.161358 77.332284 
L 338.54477 97.091429 
L 338.658091 86.901164 
L 338.944233 89.868088 
L 338.991294 91.636937 
L 339.29103 77.07896 
L 339.410048 91.986739 
L 339.825811 90.21936 
L 339.945144 91.299135 
L 340.12328 89.796178 
L 340.421547 85.101269 
L 340.719728 99.755483 
L 340.898441 92.114877 
L 341.13678 89.325804 
L 341.375437 91.416362 
L 341.615004 86.109431 
L 341.917182 95.747849 
L 342.091832 96.033306 
L 342.390217 85.862299 
L 342.592547 88.696058 
L 342.865715 89.495435 
L 343.224194 100.267074 
L 343.364331 89.757889 
L 343.582206 89.759523 
L 343.819625 88.398049 
L 344.2367 90.719816 
L 344.355474 85.870729 
L 344.835051 93.818635 
L 345.073439 90.940385 
L 345.381281 92.643291 
L 345.609531 95.815962 
L 345.793405 82.711944 
L 346.084919 92.045452 
L 346.386542 91.960616 
L 346.623265 81.035654 
L 346.800697 95.481102 
L 347.046882 88.864462 
L 347.336523 86.266106 
L 347.633595 88.496966 
L 347.812551 91.679363 
L 348.051726 90.008298 
L 348.470912 88.355366 
L 348.531021 90.40941 
L 348.830156 90.115645 
L 349.025631 89.525587 
L 349.25029 95.863455 
L 349.603408 89.38741 
L 349.8421 89.672932 
L 350.139628 92.228754 
L 350.557034 73.735968 
L 350.855204 93.25778 
L 351.033535 92.00262 
L 351.272515 89.361128 
L 351.510253 76.659859 
L 351.86755 102.426516 
L 352.048182 87.956124 
L 352.34541 93.685469 
L 352.643325 88.261326 
L 352.763199 91.286282 
L 353.001631 101.113516 
L 353.358236 87.34542 
L 353.777296 88.841669 
L 354.192068 79.054628 
L 354.49016 96.293852 
L 354.729169 89.609396 
L 354.967142 90.970717 
L 355.26572 88.962161 
L 355.563366 89.758339 
L 355.691361 100.10896 
L 355.993376 89.810911 
L 356.230389 89.642728 
L 356.695564 100.969066 
L 357.11492 99.82337 
L 357.232346 86.630626 
L 357.414082 90.51935 
L 357.768024 88.871871 
L 358.067321 91.009687 
L 358.200121 94.256414 
L 358.619507 89.758853 
L 358.726755 95.380794 
L 358.964857 95.960771 
L 359.203431 88.207722 
L 359.448191 88.274714 
L 359.739861 89.94706 
L 359.918637 88.723976 
L 360.223373 92.838633 
L 360.464925 98.745663 
L 360.754514 78.948725 
L 360.876193 97.110685 
L 361.129106 90.949486 
L 361.415503 96.16996 
L 361.661674 89.309806 
L 361.887082 89.848934 
L 362.185637 92.012014 
L 362.424082 85.086324 
L 362.662654 89.031687 
L 362.950189 96.577499 
L 363.20353 77.047897 
L 363.423447 90.577195 
L 363.622003 88.166045 
L 363.916371 100.354228 
L 364.393153 90.160636 
L 364.630544 88.520974 
L 364.92917 91.574632 
L 365.107627 89.550492 
L 365.345698 91.511409 
L 365.643635 75.496723 
L 365.941582 88.924543 
L 366.120566 87.741341 
L 366.430486 100.040485 
L 366.661699 89.758261 
L 366.95586 89.758564 
L 367.137644 90.195627 
L 367.313284 91.605863 
L 367.613202 89.759052 
L 367.848153 95.35059 
L 368.164973 95.95761 
L 368.328014 87.261336 
L 368.629685 98.947491 
L 368.92628 89.706643 
L 369.113805 91.316207 
L 369.34484 90.45484 
L 369.529356 86.691182 
L 369.821758 87.190467 
L 370.240307 74.458143 
L 370.360723 93.654746 
L 370.778089 88.397656 
L 371.015218 90.675406 
L 371.312315 99.626409 
L 371.555098 91.526623 
L 371.789135 91.191803 
L 372.027824 89.002339 
L 372.325578 90.920644 
L 372.861574 97.858995 
L 373.397043 88.224036 
L 373.93445 100.716976 
L 373.993192 67.707734 
L 374.356468 87.977508 
L 374.64956 92.106768 
L 374.71244 91.032328 
L 375.080509 90.783384 
L 375.245909 88.6635 
L 375.486534 95.387543 
L 375.841426 88.845121 
L 376.021182 89.640428 
L 376.325316 94.876875 
L 376.501063 75.06839 
L 376.735908 88.059945 
L 377.275259 88.653336 
L 377.454122 102.249135 
L 377.691085 100.699311 
L 377.97089 87.666823 
L 378.467507 89.758637 
L 378.705786 89.588719 
L 379.003346 100.605522 
L 379.182787 89.480365 
L 379.541591 91.9181 
L 379.77876 83.140549 
L 379.957593 86.747138 
L 380.315476 88.138802 
L 380.43452 93.708841 
L 380.67377 93.060626 
L 380.971538 94.135631 
L 381.209422 89.194355 
L 381.566802 88.924698 
L 381.744983 90.654093 
L 382.170296 89.57388 
L 382.401177 85.132215 
L 382.640935 95.442273 
L 382.938268 87.362139 
L 383.116642 91.563491 
L 383.414778 88.978753 
L 383.653191 89.697958 
L 383.891272 98.175205 
L 384.130172 88.716439 
L 384.36784 87.025666 
L 385.141968 100.425263 
L 385.442062 90.202577 
L 385.737779 88.829284 
L 385.982328 81.515829 
L 386.154941 98.645097 
L 386.572481 89.46995 
L 386.633083 90.395057 
L 386.871953 91.156326 
L 387.288124 89.582822 
L 387.408358 102.506682 
L 387.704159 81.132128 
L 387.883735 90.660274 
L 388.12156 90.284063 
L 388.360572 99.751261 
L 388.83674 89.454784 
L 389.078696 87.95945 
L 389.373409 90.439275 
L 389.673069 89.648849 
L 389.731908 88.994164 
L 389.85151 89.757731 
L 390.209139 89.760365 
L 390.327434 94.993134 
L 390.566718 88.040149 
L 390.866233 74.473796 
L 391.578394 89.296641 
L 391.956832 89.400047 
L 392.061414 90.67054 
L 392.294363 83.96627 
L 392.534085 98.40469 
L 392.832412 92.446927 
L 393.014287 88.622697 
L 393.427847 99.815396 
L 393.65145 81.909899 
L 393.785792 88.182128 
L 394.023607 88.207664 
L 394.261973 89.090689 
L 394.507191 88.78539 
L 394.798172 87.90041 
L 395.156539 92.330802 
L 395.275553 98.440306 
L 395.574048 93.189369 
L 395.817442 91.76026 
L 396.050757 95.132869 
L 396.289007 91.36135 
L 396.468688 90.784604 
L 396.709418 88.549768 
L 397.006497 87.641253 
L 397.24286 88.709752 
L 397.480824 97.177983 
L 397.839129 89.530731 
L 398.01748 92.789672 
L 398.255879 90.701053 
L 398.493969 99.65426 
L 398.732782 89.591237 
L 399.032184 88.931792 
L 399.38968 92.226747 
L 399.629341 92.59355 
L 399.867123 78.237781 
L 399.986143 97.109473 
L 400.464749 87.160246 
L 400.710246 94.579479 
L 401.000306 97.048047 
L 401.240795 88.165245 
L 401.476641 87.018493 
L 401.775515 91.001379 
L 401.955105 88.511118 
L 402.253688 75.570316 
L 402.431344 95.869461 
L 402.669635 88.872668 
L 402.908526 89.898946 
L 403.206332 92.75395 
L 403.397622 79.478686 
L 403.633589 89.212209 
L 403.922551 91.493795 
L 404.402506 87.475681 
L 404.641312 93.452504 
L 404.947887 77.423741 
L 405.175669 90.527277 
L 405.385104 87.840837 
L 405.65268 86.332604 
L 405.894417 75.777746 
L 406.132636 88.489995 
L 406.426561 88.108395 
L 406.667313 92.442872 
L 406.963223 90.58627 
L 407.144113 73.071042 
L 407.380891 75.444644 
L 407.619993 91.532963 
L 407.860801 90.239226 
L 408.217822 94.484687 
L 408.398363 73.5664 
L 408.636507 89.560264 
L 408.917998 89.962663 
L 409.234688 87.572103 
L 409.470635 97.033205 
L 409.589722 77.654827 
L 409.829013 76.186456 
L 410.126347 91.452824 
L 410.42592 90.751465 
L 410.606015 86.476035 
L 410.844374 93.737486 
L 411.143152 89.979718 
L 411.320402 91.217144 
L 411.619643 90.848762 
L 411.857209 85.982109 
L 412.096215 100.934848 
L 412.512689 89.758888 
L 412.58546 91.530774 
L 412.87158 89.32113 
L 413.062343 84.836064 
L 413.456757 97.51754 
L 413.584819 85.90201 
L 413.81476 89.638866 
L 414.11483 91.346318 
L 414.472681 90.884787 
L 414.533583 99.862118 
L 414.830286 87.324952 
L 415.068038 87.640031 
L 415.309724 89.092343 
L 415.559664 89.760323 
L 415.96323 87.362847 
L 416.023198 88.230295 
L 416.321581 87.025552 
L 416.563927 90.071588 
L 416.805148 83.886017 
L 417.002271 93.818838 
L 417.276707 83.898821 
L 417.756951 90.532473 
L 418.054464 91.810186 
L 418.471725 89.475901 
L 418.530943 90.66723 
L 418.770431 85.908985 
L 419.126668 88.911662 
L 419.305279 96.957312 
L 419.487583 96.651271 
L 419.724077 98.458086 
L 419.962564 90.413689 
L 420.281437 89.695201 
L 420.501517 90.787347 
L 420.738015 81.62638 
L 420.975057 90.297984 
L 421.214128 89.096383 
L 421.512226 90.335213 
L 421.693249 88.02034 
L 422.225812 85.64475 
L 422.234324 182.021433 
L 422.468961 88.361596 
L 422.825214 99.114942 
L 423.004989 95.367616 
L 423.252127 95.00194 
L 423.484338 88.510165 
L 423.840978 88.278584 
L 423.960579 96.088663 
L 424.145321 88.61921 
L 424.43705 86.566767 
L 424.675708 89.757142 
L 424.915208 89.040341 
L 425.155055 86.764932 
L 425.574673 74.440652 
L 425.629286 99.999233 
L 425.988437 90.253864 
L 426.172027 91.093851 
L 426.40654 89.664927 
L 426.64547 89.410823 
L 427.065099 89.985452 
L 427.190077 94.854326 
L 427.445399 88.659586 
L 427.659166 99.061436 
L 427.90644 97.800714 
L 427.958088 86.326041 
L 428.19698 81.551602 
L 428.436409 89.791538 
L 428.619145 86.513497 
L 428.8559 90.315921 
L 429.151322 89.891154 
L 429.628082 73.124188 
L 430.10485 102.014987 
L 430.344322 103.045643 
L 430.903823 89.451892 
L 431.121983 88.919233 
L 431.357652 36.789192 
L 431.597523 32.526896 
L 431.843497 52.227731 
L 432.095657 60.701445 
L 432.328044 62.750744 
L 432.561897 63.157053 
L 432.821237 78.372538 
L 433.594031 90.316779 
L 433.87843 87.071388 
L 434.121676 91.473137 
L 434.414608 91.537001 
L 434.534949 96.773596 
L 434.776173 94.349027 
L 435.198864 100.844762 
L 435.318081 90.280949 
L 435.54992 90.974835 
L 435.793016 93.236756 
L 436.163582 85.467699 
L 436.324342 88.532607 
L 436.627299 87.596771 
L 436.862153 89.833604 
L 437.100266 94.496008 
L 437.400723 82.909322 
L 437.640155 100.046803 
L 438.242412 78.500637 
L 438.507695 87.413373 
L 438.778576 84.488426 
L 439.093849 91.02299 
L 439.259491 104.018534 
L 439.609454 91.920883 
L 439.813723 96.220503 
L 440.027646 88.482367 
L 440.326857 92.095568 
L 440.505242 87.095187 
L 440.743769 85.987305 
L 440.985603 87.600935 
L 441.360449 96.58376 
L 441.460589 94.212917 
L 441.817555 90.335484 
L 441.996582 86.523649 
L 442.476381 97.116784 
L 442.882088 85.996094 
L 443.119643 87.479507 
L 443.306995 83.773702 
L 443.537398 106.678984 
L 443.835364 83.974677 
L 444.193965 88.187497 
L 444.670741 98.377901 
L 445.029606 81.374331 
L 445.21114 85.208864 
L 445.566243 95.997366 
L 445.69185 76.833568 
L 446.223006 93.025534 
L 446.46149 88.802138 
L 446.703529 95.28285 
L 446.93948 93.012232 
L 447.182432 87.918709 
L 447.4174 90.50464 
L 447.656135 99.090084 
L 447.904892 88.027692 
L 448.138367 95.21235 
L 448.437338 86.667645 
L 448.625267 90.823582 
L 449.152725 89.106491 
L 449.392189 97.612841 
L 449.808343 87.762477 
L 449.89612 90.637753 
L 450.16705 84.527683 
L 450.46407 84.417002 
L 450.761942 91.735013 
L 450.94209 87.463162 
L 451.180519 98.82781 
L 451.425902 89.467141 
L 451.658653 90.073864 
L 452.077357 83.260348 
L 452.326715 94.913007 
L 452.613173 86.505762 
L 452.864845 88.840538 
L 453.098099 99.099275 
L 453.469682 90.324838 
L 453.632802 98.910707 
L 453.809319 84.878923 
L 454.134366 82.751296 
L 454.345201 99.625642 
L 454.765606 90.439574 
L 454.847127 93.223701 
L 455.071869 85.945269 
L 455.300727 92.633216 
L 455.539853 92.885459 
L 455.961335 87.970623 
L 456.150748 81.245351 
L 456.566905 100.775992 
L 456.984034 90.815708 
L 457.044693 95.392927 
L 457.700957 87.032327 
L 457.762486 88.268778 
L 458.176246 100.242428 
L 458.295734 83.520897 
L 458.535771 93.115978 
L 458.772737 88.73978 
L 459.18988 93.424849 
L 459.309275 89.399344 
L 459.548312 92.36551 
L 459.792529 92.061081 
L 459.846799 88.366115 
L 460.026983 94.042803 
L 460.264394 107.495433 
L 460.505547 87.446033 
L 460.801349 85.625377 
L 460.981197 90.336959 
L 461.300883 90.277301 
L 461.461133 85.122 
L 461.759676 101.848399 
L 461.997667 87.779797 
L 462.240011 93.192283 
L 462.535859 85.285616 
L 462.954361 95.704765 
L 463.252644 87.956433 
L 463.439137 93.270379 
L 463.848593 94.283199 
L 463.995751 88.672014 
L 464.210024 89.302044 
L 464.468285 91.35202 
L 464.68398 90.549258 
L 464.923343 85.306099 
L 465.170704 89.035423 
L 465.469677 97.46624 
L 465.710789 89.236529 
L 466.009353 87.23058 
L 466.483619 90.82987 
L 466.663185 85.331574 
L 466.961408 89.982125 
L 467.199234 88.237309 
L 467.597038 91.498556 
L 467.744427 87.059112 
L 467.921045 100.510245 
L 468.454257 86.237755 
L 468.761166 92.572842 
L 468.931187 85.782825 
L 469.179483 88.940975 
L 469.542461 86.544175 
L 469.64942 82.869621 
L 469.893371 82.141758 
L 470.128335 94.138902 
L 470.435389 95.500939 
L 470.683137 91.179032 
L 470.906718 93.707522 
L 471.143739 91.816466 
L 471.389817 96.801082 
L 471.865224 86.368111 
L 472.16172 85.650648 
L 472.456786 89.57023 
L 472.636186 85.539795 
L 473.054076 94.307093 
L 473.400235 88.934449 
L 473.868197 91.687918 
L 474.170263 80.953744 
L 474.354868 97.066921 
L 474.645427 95.724884 
L 474.949827 89.222519 
L 475.125654 98.910999 
L 475.601585 87.592567 
L 476.079329 99.556714 
L 476.317061 99.033215 
L 476.555932 87.072553 
L 476.795462 102.465109 
L 477.212458 97.865045 
L 477.361592 80.728935 
L 477.749946 95.510033 
L 477.868828 86.803425 
L 478.107403 95.424903 
L 478.345862 86.089547 
L 478.643526 95.265843 
L 478.775738 89.679446 
L 479.035221 87.24534 
L 479.305237 99.141209 
L 479.600228 93.85692 
L 479.798874 96.522842 
L 480.01865 95.554553 
L 480.259337 82.171543 
L 480.639147 87.555303 
L 480.797255 85.130884 
L 481.032858 99.302606 
L 481.30086 89.924711 
L 481.594462 90.388911 
L 481.817167 89.304265 
L 482.112202 96.419478 
L 482.54011 83.731565 
L 482.796157 95.574138 
L 483.087039 88.919392 
L 483.208624 99.186997 
L 483.500877 89.273537 
L 483.799178 85.520258 
L 484.097273 90.740293 
L 484.216787 86.251583 
L 484.514676 91.561539 
L 484.761105 103.945998 
L 485.230884 86.733813 
L 485.470722 84.831363 
L 485.76882 88.838449 
L 486.007356 94.065132 
L 486.247979 93.777229 
L 486.483328 90.855871 
L 486.721699 93.839705 
L 486.961225 89.047824 
L 487.206514 90.272446 
L 487.440359 90.388656 
L 487.677248 89.010404 
L 488.037454 93.920607 
L 488.214516 99.528025 
L 488.455338 89.055704 
L 488.751713 94.770678 
L 489.288177 88.620585 
L 489.540319 87.292218 
L 489.706772 88.630075 
L 490.005091 87.204605 
L 490.242896 91.999583 
L 490.683853 87.631375 
L 490.899752 87.879053 
L 491.201618 89.444343 
L 491.494573 82.819719 
L 491.741352 91.973776 
L 491.913287 92.435052 
L 492.154206 87.395304 
L 492.390345 92.691831 
L 492.705805 86.187343 
L 492.884784 87.684047 
L 493.122928 82.725211 
L 493.601015 81.832282 
L 493.66099 90.363902 
L 493.95881 82.283422 
L 494.141209 87.803477 
L 494.380638 90.398489 
L 494.614303 90.392189 
L 494.912142 94.035503 
L 495.092642 100.713282 
L 495.391562 90.757614 
L 495.688062 92.079882 
L 495.866611 89.14124 
L 496.169394 91.394875 
L 496.407336 86.840448 
L 496.644163 100.477963 
L 497.122047 90.270733 
L 497.32743 94.584764 
L 497.602808 92.505321 
L 497.947291 86.306891 
L 498.384535 94.675933 
L 498.621652 92.375262 
L 498.860584 100.034299 
L 499.337413 87.762127 
L 499.576371 92.554699 
L 499.817608 93.779681 
L 500.113488 99.453611 
L 500.293182 88.725687 
L 500.609204 90.193242 
L 500.650281 85.49649 
L 500.829084 82.288679 
L 501.130331 99.693493 
L 501.425955 88.234629 
L 501.604394 88.072356 
L 502.085048 93.302714 
L 502.142852 99.576354 
L 502.321119 91.775481 
L 502.565805 88.486808 
L 503.051282 90.417019 
L 503.27591 86.792441 
L 503.515493 96.416866 
L 503.872555 95.474148 
L 504.051407 86.172899 
L 504.229888 93.500359 
L 504.650095 85.121177 
L 504.707569 95.870491 
L 505.069486 93.678485 
L 505.311707 96.957029 
L 505.547959 91.51392 
L 505.78225 91.252158 
L 506.020268 90.310671 
L 506.266043 84.32239 
L 506.569872 94.857526 
L 506.746757 89.551938 
L 506.993307 89.689707 
L 507.231373 85.811619 
L 507.475334 92.274004 
L 507.708032 91.08871 
L 508.005894 98.652767 
L 508.190358 86.61356 
L 508.485193 100.60558 
L 508.787092 78.978722 
L 509.01986 100.960389 
L 509.275368 102.595691 
L 509.498512 81.38983 
L 509.921977 93.41359 
L 509.97473 88.434531 
L 510.21317 94.812645 
L 510.631246 89.072049 
L 510.691646 89.883437 
L 510.932276 87.358406 
L 511.427141 93.113321 
L 511.731757 89.999892 
L 511.94593 96.36489 
L 512.202575 89.985662 
L 512.42372 91.511692 
L 512.662927 97.93453 
L 512.902669 80.355844 
L 513.214663 99.39453 
L 513.619081 82.438913 
L 513.68035 90.806242 
L 513.915563 84.565867 
L 514.39837 92.201473 
L 514.571539 92.225385 
L 514.703169 85.542926 
L 514.890518 91.28364 
L 515.247869 82.836855 
L 515.468485 88.766128 
L 515.690172 88.205111 
L 515.918439 93.871392 
L 516.15758 94.154035 
L 516.400242 98.425008 
L 516.762513 83.584793 
L 516.922212 90.440665 
L 517.159528 87.568957 
L 517.51651 86.920233 
L 517.702683 92.866391 
L 517.878201 85.48285 
L 518.173168 83.02587 
L 518.480489 91.061314 
L 518.653123 91.740009 
L 518.951708 84.403806 
L 519.130101 91.071534 
L 519.388449 92.398505 
L 519.725267 89.358653 
L 519.86004 96.002542 
L 520.141772 101.50481 
L 520.439599 127.681466 
L 520.621899 113.272499 
L 520.859464 125.945693 
L 521.115203 112.090154 
L 521.39507 117.26862 
L 521.637701 108.432564 
L 521.87368 104.099309 
L 522.117242 109.990267 
L 522.363738 95.435638 
L 522.827932 86.392425 
L 523.266623 86.250781 
L 523.497826 88.91245 
L 523.843711 86.19173 
L 524.131034 88.994631 
L 524.380779 88.927246 
L 524.857058 91.094692 
L 524.9168 90.447841 
L 525.275559 90.158964 
L 525.403427 91.116716 
L 525.814188 90.14897 
L 526.316015 89.769029 
L 526.428741 89.967013 
L 526.596989 89.763224 
L 527.911085 89.736918 
L 528.28225 89.541682 
L 528.686391 89.680662 
L 528.92995 89.347502 
L 529.284939 89.7674 
L 536.526316 89.73171 
L 541.907515 89.736918 
L 596.502813 89.736918 
L 596.502813 89.736918 
" clip-path="url(#pd0a59071a8)" style="fill: none; stroke: #0000ff; stroke-opacity: 0.5; stroke-width: 1.5; stroke-linecap: square"/>
   </g>
   <g id="line2d_28">
    <path d="M 38.502813 113.342877 
L 38.622916 110.010586 
L 38.865804 110.694643 
L 38.937 112.9842 
L 39.111017 110.884059 
L 39.417061 111.468256 
L 39.885883 111.268019 
L 40.302791 112.728652 
L 40.541846 111.96544 
L 40.601545 112.712039 
L 41.018884 113.290665 
L 41.257159 113.280704 
L 41.559198 114.162723 
L 42.033407 114.799183 
L 42.091503 114.619816 
L 42.329583 114.288469 
L 42.628872 113.155086 
L 42.928055 113.808007 
L 43.164095 112.423057 
L 43.581899 114.244273 
L 43.819883 112.199692 
L 44.060446 113.200725 
L 44.300935 112.434836 
L 44.599353 113.978559 
L 44.834047 112.242284 
L 45.371049 113.115236 
L 45.669985 114.516556 
L 45.857012 112.83376 
L 46.328887 112.308568 
L 46.567049 113.042646 
L 46.805772 113.377804 
L 47.224756 111.527295 
L 47.405507 113.024126 
L 47.521373 112.72924 
L 47.766181 113.936996 
L 48.003493 112.439032 
L 48.536913 113.095082 
L 49.14069 112.982687 
L 50.441813 113.303625 
L 53.050949 112.506688 
L 55.661121 112.419064 
L 57.085405 112.861783 
L 58.50861 112.262912 
L 59.813793 112.477808 
L 59.954398 113.555405 
L 60.669155 110.920518 
L 60.966191 113.437879 
L 61.265892 114.395954 
L 61.445302 112.845577 
L 61.681905 114.514571 
L 61.866132 113.463419 
L 62.104406 111.17209 
L 62.404 113.571822 
L 62.638974 113.972528 
L 62.936269 112.770174 
L 63.11617 113.61427 
L 63.356366 113.655467 
L 63.652931 111.47222 
L 64.130974 113.178682 
L 64.426649 112.778915 
L 64.72558 113.75157 
L 64.844761 112.550056 
L 65.083776 112.227656 
L 65.323835 115.361518 
L 65.636208 115.592122 
L 65.860257 113.591018 
L 66.108513 115.004325 
L 66.396826 114.078726 
L 66.578194 112.50433 
L 66.934528 115.762736 
L 67.112748 114.704151 
L 67.414376 113.79565 
L 67.588886 114.177316 
L 67.829178 112.372281 
L 68.125305 111.494268 
L 68.602529 114.336221 
L 68.783671 116.369826 
L 69.019997 114.944238 
L 69.32384 111.661538 
L 69.616891 112.750692 
L 69.855516 114.689809 
L 70.095651 113.079342 
L 70.338534 112.955409 
L 70.523348 115.940358 
L 70.817845 115.052195 
L 71.292681 111.675435 
L 71.413207 111.735994 
L 71.829525 113.642825 
L 72.070236 114.56522 
L 72.364771 113.373666 
L 72.604817 113.116601 
L 72.782636 114.197501 
L 73.259107 112.608019 
L 73.442011 111.317351 
L 73.737273 112.361363 
L 73.796233 113.027479 
L 74.034856 113.674469 
L 74.512377 110.982081 
L 74.809776 111.899693 
L 75.10756 112.181472 
L 75.350039 111.986221 
L 75.716732 114.993826 
L 75.763801 114.544321 
L 76.00305 114.539529 
L 76.299771 114.250407 
L 76.479259 113.332117 
L 76.779836 115.657808 
L 77.014868 116.262024 
L 77.211656 114.456904 
L 77.492991 115.205083 
L 77.731123 115.349132 
L 78.208334 111.939883 
L 78.445703 113.419919 
L 78.984279 114.262031 
L 79.221395 112.260853 
L 79.46119 112.318925 
L 79.699016 112.626605 
L 79.9365 111.539358 
L 80.296129 110.966912 
L 80.712316 115.633776 
L 81.192765 111.379268 
L 81.785318 112.839134 
L 81.913099 111.065468 
L 82.441028 116.106045 
L 82.620686 114.832124 
L 82.859406 111.093524 
L 83.215747 110.577512 
L 83.394399 113.014549 
L 83.632494 112.727405 
L 83.872614 110.476759 
L 84.109856 111.737411 
L 84.411018 114.355003 
L 84.706152 113.589652 
L 84.884266 110.860995 
L 85.123897 110.213907 
L 85.361288 112.095594 
L 85.600003 112.626371 
L 85.838773 112.769555 
L 86.207889 113.297013 
L 86.434523 113.379452 
L 86.732011 111.812242 
L 86.893125 109.941181 
L 87.090643 111.356739 
L 87.329041 114.368217 
L 87.627622 115.498951 
L 88.103508 111.647742 
L 88.40325 111.368993 
L 88.586765 112.697984 
L 89.00022 113.687823 
L 89.118231 114.46702 
L 89.536432 116.142287 
L 89.908761 116.162849 
L 90.081212 113.700837 
L 90.548537 113.792472 
L 90.668047 114.883841 
L 90.905672 115.417768 
L 91.144508 115.080179 
L 91.263784 114.624534 
L 91.681363 114.242627 
L 91.801828 113.576476 
L 92.038568 113.698364 
L 92.514883 114.327387 
L 92.754169 113.809518 
L 93.289814 110.156967 
L 93.489754 110.048664 
L 93.826284 111.361332 
L 94.004867 111.564397 
L 94.541287 107.620467 
L 94.842115 109.103569 
L 95.019457 112.283871 
L 95.257497 114.07337 
L 95.498953 114.39137 
L 95.89183 114.001477 
L 96.064357 114.245717 
L 96.454062 113.710111 
L 96.573099 112.98412 
L 96.628852 113.498672 
L 96.69475 115.75803 
L 96.989749 117.238638 
L 97.286052 115.11018 
L 97.48986 111.348836 
L 97.779913 110.428069 
L 98.202731 115.451193 
L 98.47895 114.527006 
L 98.717529 112.826663 
L 99.025598 114.0242 
L 99.325453 114.385044 
L 99.795665 110.589337 
L 100.391 112.67027 
L 100.526244 114.624589 
L 101.868401 112.142062 
L 103.165642 112.762436 
L 104.594361 112.556035 
L 104.673559 116.650119 
L 105.09155 112.081789 
L 105.454112 110.969879 
L 105.687883 110.656664 
L 106.305417 113.135511 
L 107.089968 104.908647 
L 107.387998 105.409142 
L 107.688168 107.833444 
L 108.164534 115.348508 
L 108.347806 116.746693 
L 108.640473 115.853143 
L 109.117895 112.871943 
L 109.477366 114.589386 
L 109.596272 117.392068 
L 109.892792 118.311822 
L 110.192261 116.593494 
L 110.795086 107.702287 
L 111.052094 108.166151 
L 111.29097 111.192797 
L 111.577019 112.598367 
L 112.049728 108.870184 
L 112.289519 109.457439 
L 112.792567 113.123975 
L 113.325136 114.175109 
L 113.541144 112.699089 
L 113.788285 112.365281 
L 114.093357 114.731092 
L 114.33146 117.616759 
L 114.540544 117.757242 
L 114.883064 115.383189 
L 115.036051 112.933039 
L 115.313819 113.562861 
L 115.937099 115.627517 
L 116.002065 116.38176 
L 116.216076 114.639804 
L 116.30385 112.297734 
L 116.475791 111.071728 
L 116.782905 111.321839 
L 117.130896 111.276815 
L 117.249404 110.906342 
L 117.487743 111.436603 
L 117.726095 111.670879 
L 118.024139 111.273128 
L 118.450471 112.000089 
L 118.928024 114.279841 
L 119.289499 113.492487 
L 119.523478 112.038896 
L 119.821194 113.602038 
L 119.945178 115.939163 
L 120.298612 114.897096 
L 120.606507 112.678283 
L 120.715903 113.412714 
L 120.9231 116.303434 
L 121.194101 117.51404 
L 121.671188 111.472336 
L 121.912267 111.952567 
L 122.149815 112.814603 
L 122.624796 112.612575 
L 122.690525 113.851436 
L 122.935962 114.746455 
L 123.160922 113.439229 
L 123.69748 109.18331 
L 124.174029 114.31668 
L 124.949134 113.628418 
L 125.13009 111.833277 
L 125.427231 110.317698 
L 125.665306 110.095991 
L 125.857602 112.056373 
L 126.147722 113.702182 
L 126.627668 112.321977 
L 127.101098 113.049784 
L 127.397474 112.979594 
L 127.755155 112.453375 
L 128.11266 114.24766 
L 128.470607 114.832608 
L 128.590202 114.637814 
L 128.828251 114.675405 
L 129.127471 114.192442 
L 129.721296 114.56638 
L 130.080965 115.713272 
L 130.318908 115.164018 
L 131.094146 111.904722 
L 131.390373 112.252667 
L 131.570561 112.66961 
L 132.288655 110.846529 
L 132.530023 111.172654 
L 132.778446 111.762601 
L 133.080422 113.503203 
L 133.269134 115.897245 
L 133.599891 115.378221 
L 133.781243 112.570377 
L 134.048442 112.637501 
L 134.27389 115.264222 
L 134.511673 115.029494 
L 134.752536 112.373761 
L 134.988169 111.731473 
L 135.524563 114.938467 
L 136.061597 110.484576 
L 136.299914 110.455063 
L 136.537647 111.872887 
L 137.144696 109.880558 
L 137.371933 110.951906 
L 137.496099 112.529455 
L 137.729921 113.294265 
L 138.031643 111.989821 
L 138.237846 110.497722 
L 138.462756 110.804284 
L 138.821519 112.706035 
L 139.04073 112.943611 
L 139.996454 111.343363 
L 140.23413 111.844161 
L 140.475957 113.937118 
L 140.727123 117.25457 
L 141.011902 119.443605 
L 141.192054 117.945057 
L 141.74323 114.440346 
L 142.220316 118.667394 
L 142.460347 119.197072 
L 142.698106 116.623903 
L 143.173957 110.379692 
L 143.471179 110.776654 
L 143.657606 113.714395 
L 144.128735 116.993551 
L 144.365665 117.260373 
L 144.426045 114.969998 
L 144.665021 113.16599 
L 144.902659 112.816445 
L 145.379375 116.367039 
L 145.679051 116.589143 
L 146.042843 114.198451 
L 146.15371 111.436446 
L 146.451965 110.965293 
L 146.696415 113.465327 
L 146.884804 116.75194 
L 147.11376 116.767969 
L 147.644895 113.078312 
L 148.299554 114.605973 
L 148.41882 115.786675 
L 149.076012 113.984825 
L 149.373331 113.981862 
L 150.029772 115.451976 
L 150.089694 114.194384 
L 150.565971 110.114814 
L 150.92311 111.346295 
L 151.353883 112.395833 
L 151.876006 108.830364 
L 152.351803 113.349554 
L 152.532825 116.403122 
L 152.888581 118.919677 
L 153.188565 117.921891 
L 153.309231 115.159827 
L 153.54568 114.851739 
L 154.082528 118.561848 
L 154.797409 111.467356 
L 155.03402 111.481552 
L 155.333455 113.136341 
L 155.572779 115.865293 
L 155.93189 118.396596 
L 156.054561 118.331752 
L 156.288871 115.454364 
L 156.59785 113.736053 
L 157.244922 117.965371 
L 157.482632 116.486946 
L 158.075811 110.607011 
L 158.493969 108.489483 
L 159.028959 115.281028 
L 159.268997 115.706359 
L 159.984424 108.124026 
L 160.222772 108.843107 
L 160.639178 111.699258 
L 160.761288 113.466 
L 161.002186 111.67426 
L 161.236001 108.566714 
L 161.473201 106.957899 
L 161.716034 107.912225 
L 162.430118 118.283328 
L 162.728429 117.424702 
L 163.21208 112.783551 
L 163.682554 117.76311 
L 163.922713 117.708359 
L 164.397251 113.025684 
L 164.755999 112.617634 
L 164.99298 113.220269 
L 165.410163 116.205069 
L 165.64954 116.401236 
L 166.126682 112.659709 
L 166.482576 113.774574 
L 166.661225 115.093703 
L 166.89949 114.316966 
L 167.436563 111.26816 
L 167.735563 112.393355 
L 167.91455 114.005638 
L 168.391427 114.733836 
L 168.63296 114.360805 
L 168.867709 114.537936 
L 169.165479 114.230888 
L 169.529336 113.490807 
L 169.881582 111.719917 
L 170.203109 111.375639 
L 170.598518 113.062835 
L 170.837969 112.958003 
L 171.25828 111.916981 
L 171.432118 111.11581 
L 172.146868 112.850009 
L 172.569875 113.585505 
L 172.835447 112.396728 
L 173.106348 110.644185 
L 173.339268 110.897813 
L 173.707388 112.961797 
L 174.158309 110.634521 
L 174.177757 110.632885 
L 174.535783 115.661614 
L 174.91395 116.153246 
L 175.073934 113.311155 
L 175.310543 111.106647 
L 175.54851 112.08528 
L 175.787124 114.335181 
L 176.085682 113.665731 
L 176.323655 112.592915 
L 176.579702 114.4905 
L 176.922167 115.183803 
L 177.049623 112.638394 
L 177.336715 109.679716 
L 177.648399 109.251388 
L 177.755713 111.387489 
L 178.11115 113.281452 
L 178.352257 112.849509 
L 178.528778 111.816126 
L 179.02236 110.947667 
L 179.243954 108.674146 
L 179.542117 110.475356 
L 180.199819 117.705119 
L 180.334683 117.094833 
L 180.554724 113.832574 
L 180.764952 112.783812 
L 181.237254 115.961342 
L 181.716775 115.408779 
L 181.952198 115.699836 
L 182.311857 115.490344 
L 182.856642 113.198412 
L 182.972183 113.319744 
L 184.008236 113.988505 
L 184.480842 111.803852 
L 184.866663 111.844 
L 184.96201 113.405475 
L 185.456212 116.670912 
L 185.79372 115.180278 
L 185.914024 112.46211 
L 186.210739 112.68461 
L 186.450096 114.504748 
L 186.688066 114.924068 
L 187.183426 110.682556 
L 187.521698 110.359177 
L 187.93929 110.487444 
L 188.237062 110.558308 
L 188.475599 110.802328 
L 188.65442 111.151082 
L 189.608368 111.709545 
L 189.845677 110.754624 
L 189.964926 109.110472 
L 190.203386 109.25791 
L 190.679785 115.348371 
L 190.869436 116.27949 
L 191.396627 112.567733 
L 191.946866 116.888972 
L 192.117173 118.667577 
L 192.356479 118.055426 
L 193.072666 110.867581 
L 193.608741 115.683849 
L 193.905827 115.354883 
L 194.087116 113.00548 
L 194.441225 112.697758 
L 194.621423 112.826298 
L 194.919455 112.317035 
L 195.159734 112.917138 
L 195.574242 116.895091 
L 196.050762 112.450786 
L 196.348274 114.508209 
L 196.532194 114.995598 
L 196.824916 112.826854 
L 197.066503 112.732453 
L 197.302744 115.840691 
L 197.540668 116.738104 
L 198.021222 111.49756 
L 198.278285 113.276168 
L 198.614978 113.668175 
L 198.857745 111.828845 
L 199.328922 116.906326 
L 199.627167 115.777549 
L 199.755281 111.823389 
L 200.037406 111.313355 
L 200.288499 113.925049 
L 200.523074 114.155018 
L 200.76342 111.405183 
L 201.023906 112.498147 
L 201.252764 115.581058 
L 201.602062 116.076018 
L 202.020372 112.075448 
L 202.258451 112.599945 
L 202.734673 114.211511 
L 203.271444 114.14617 
L 203.986273 112.603702 
L 204.347506 112.717549 
L 204.462725 112.980798 
L 204.819721 112.190338 
L 205.180009 109.748221 
L 205.475165 110.908808 
L 205.723048 113.86804 
L 206.192034 114.266254 
L 206.452348 110.365122 
L 206.78839 111.932692 
L 207.266495 118.095671 
L 207.443269 118.085322 
L 207.922916 114.545513 
L 208.578156 113.153358 
L 209.172823 115.303974 
L 209.600943 114.954527 
L 209.950317 112.814823 
L 210.425683 116.24197 
L 210.663532 115.741708 
L 210.903374 115.54804 
L 211.140394 115.045202 
L 211.378598 113.725084 
L 211.677486 112.855196 
L 212.333313 116.902651 
L 212.393738 119.299481 
L 212.631154 119.38707 
L 213.168289 114.669977 
L 213.405839 114.234955 
L 213.824739 117.011699 
L 214.121064 116.57751 
L 215.076049 107.3283 
L 215.37507 108.733252 
L 215.554742 112.271128 
L 215.851328 115.590068 
L 216.089667 116.727672 
L 216.389104 114.888829 
L 216.58001 111.77197 
L 216.811423 110.280992 
L 217.102957 111.688008 
L 217.877773 118.284972 
L 218.056338 117.541543 
L 218.294893 115.17885 
L 218.776973 112.745445 
L 219.266031 113.587221 
L 219.30768 114.472668 
L 219.551399 114.271553 
L 220.04435 110.841369 
L 220.32987 110.801862 
L 220.62314 111.837511 
L 220.8622 113.50677 
L 221.162767 113.583496 
L 221.338171 112.734775 
L 221.515496 112.577204 
L 221.99322 113.358325 
L 222.055181 114.998073 
L 222.530269 117.496982 
L 222.771536 116.473172 
L 223.248476 110.989336 
L 223.554257 110.303192 
L 223.732051 111.626217 
L 224.048213 112.788528 
L 224.498476 111.901075 
L 224.738977 112.178899 
L 225.274355 114.147735 
L 225.513956 115.363999 
L 225.75103 115.067118 
L 226.226817 112.302754 
L 226.525541 112.150764 
L 226.707352 113.269619 
L 227.004147 112.746896 
L 227.422827 110.23381 
L 227.717393 107.693744 
L 227.956897 106.07671 
L 228.194151 106.242139 
L 229.211707 115.018017 
L 229.507621 116.394158 
L 229.86666 116.164607 
L 230.945101 107.611953 
L 231.242363 106.435266 
L 231.630147 105.5398 
L 231.663719 104.976639 
L 232.136825 104.416959 
L 232.316057 104.586655 
L 232.434509 105.792754 
L 232.915984 107.609832 
L 233.208451 109.886026 
L 233.387885 112.166024 
L 233.626662 113.755247 
L 233.864567 114.032274 
L 234.163673 113.349032 
L 234.459871 110.630032 
L 235.11598 102.450695 
L 235.432665 100.103888 
L 235.72695 99.30151 
L 235.906757 99.289128 
L 236.084479 99.621377 
L 236.384217 99.168763 
L 236.621287 98.46931 
L 236.919839 99.43309 
L 237.395703 100.056225 
L 237.695023 99.415569 
L 237.874902 99.99405 
L 238.290534 99.299421 
L 238.35076 98.335907 
L 238.589264 96.614189 
L 238.828455 96.075571 
L 239.305311 99.01724 
L 239.549082 102.256851 
L 239.840779 104.192861 
L 240.023237 107.371654 
L 240.317181 107.836346 
L 240.614551 107.724911 
L 240.793797 106.898517 
L 241.389884 103.085688 
L 241.569338 100.23265 
L 241.806632 98.547709 
L 242.044896 95.620048 
L 242.641746 92.024199 
L 242.939843 91.370358 
L 243.41606 93.103669 
L 243.539421 97.182653 
L 244.253567 103.514075 
L 244.531837 104.230165 
L 244.760099 103.906707 
L 244.998784 102.862026 
L 245.503869 99.728328 
L 245.741822 96.539651 
L 246.202726 92.553147 
L 246.460816 87.7889 
L 246.754794 87.068373 
L 246.994239 85.973929 
L 247.469526 86.035254 
L 248.125328 90.174871 
L 248.363697 93.870003 
L 248.543255 98.96342 
L 248.848689 99.780804 
L 249.020847 98.817368 
L 249.218981 94.988731 
L 249.91722 85.702664 
L 250.176782 85.829839 
L 250.454559 84.9348 
L 250.69308 85.000939 
L 250.990238 82.355918 
L 251.171156 82.224964 
L 251.466717 82.98016 
L 252.004037 87.150881 
L 252.243865 89.3924 
L 252.425758 93.286082 
L 252.66071 94.051195 
L 253.137428 97.118748 
L 253.437262 96.627961 
L 253.732822 93.151506 
L 254.151034 86.156234 
L 254.866171 76.304456 
L 255.283195 73.304117 
L 255.879236 66.75714 
L 256.118256 69.600541 
L 256.596713 78.328347 
L 257.013573 83.127437 
L 257.134596 86.241072 
L 257.61066 91.903603 
L 257.848051 93.312563 
L 258.20509 91.560764 
L 258.577231 88.446368 
L 258.859825 87.238056 
L 259.158214 88.169454 
L 259.487917 87.791036 
L 260.173233 91.764547 
L 260.294447 94.25358 
L 260.591149 97.008841 
L 260.949329 98.629057 
L 261.322962 96.161509 
L 261.490067 93.228074 
L 261.602805 88.183927 
L 261.975746 85.398792 
L 262.086563 82.894222 
L 263.330837 76.883116 
L 263.7477 79.387215 
L 264.105397 88.712562 
L 264.285849 90.827921 
L 264.643203 91.604271 
L 264.881961 89.5337 
L 265.299527 82.891052 
L 265.714773 80.123736 
L 265.955612 81.1746 
L 266.191948 80.852789 
L 266.252174 81.025567 
L 266.48981 79.745355 
L 266.788459 79.683387 
L 267.324829 78.222996 
L 267.563622 79.376133 
L 268.099501 85.956325 
L 268.532791 87.870747 
L 269.017167 83.768967 
L 269.233644 79.949439 
L 269.530633 76.723885 
L 270.245132 73.401447 
L 270.661966 73.062325 
L 270.723 74.21551 
L 270.960397 73.725847 
L 271.318588 73.645415 
L 271.735812 75.874933 
L 271.975033 77.235845 
L 272.273994 78.290801 
L 272.454512 80.255531 
L 272.927961 78.877846 
L 273.643316 75.577256 
L 273.969451 74.279088 
L 274.219372 74.264934 
L 274.845561 73.009719 
L 275.037647 70.492407 
L 275.313574 69.725225 
L 275.437851 68.562565 
L 275.791628 69.501205 
L 275.91339 72.201782 
L 276.393789 77.253729 
L 276.812326 77.573306 
L 277.049078 78.209605 
L 277.162083 77.501551 
L 277.590469 78.096715 
L 277.939041 77.557317 
L 278.12053 74.732859 
L 278.624491 70.243106 
L 278.955747 69.191633 
L 279.431173 73.755824 
L 279.612332 77.891199 
L 280.086959 81.066153 
L 280.384925 80.132898 
L 281.1601 73.534197 
L 281.457142 72.653011 
L 281.594071 71.002781 
L 281.873928 70.486817 
L 282.056615 69.834539 
L 282.113657 70.313063 
L 282.351481 69.58771 
L 282.533731 71.079531 
L 283.306338 82.20196 
L 283.66432 82.516274 
L 284.088847 81.398933 
L 284.319934 79.660403 
L 284.563335 79.875916 
L 285.034625 81.318845 
L 286.048783 71.072723 
L 286.292195 72.112714 
L 287.007247 78.341767 
L 287.262421 77.808809 
L 287.900764 72.373226 
L 288.259375 76.897234 
L 288.497522 81.789054 
L 288.736219 82.476712 
L 289.035046 79.988267 
L 289.455069 70.730107 
L 289.811148 68.187701 
L 290.227704 68.706675 
L 290.465879 73.721739 
L 290.948755 75.101785 
L 291.225488 75.075286 
L 291.495528 75.558375 
L 291.679836 77.802357 
L 292.194976 80.135196 
L 292.730948 77.224026 
L 292.969282 77.18693 
L 293.207555 75.588875 
L 293.689059 74.0384 
L 294.221147 71.316242 
L 294.466574 71.357136 
L 294.878318 75.603089 
L 295.4127 82.766912 
L 295.717231 83.767085 
L 295.948103 82.617234 
L 296.426372 78.752779 
L 296.607631 78.027109 
L 296.961851 79.420382 
L 297.152314 81.216388 
L 297.438974 82.290752 
L 297.620443 80.924836 
L 297.929888 77.060294 
L 298.335465 70.653137 
L 298.632709 72.982905 
L 299.108436 83.262856 
L 299.60655 82.605357 
L 299.827215 76.636619 
L 300.361705 70.76334 
L 300.600166 72.629188 
L 301.079765 77.884278 
L 301.494049 76.676126 
L 301.613328 73.799022 
L 301.911255 71.24013 
L 302.09056 71.172103 
L 302.447614 73.670947 
L 302.80676 78.257255 
L 303.043886 79.646814 
L 303.341324 78.970546 
L 303.54503 77.784126 
L 303.826118 77.796461 
L 304.595673 84.599923 
L 304.95287 84.519883 
L 305.252232 81.949767 
L 305.31073 79.066257 
L 305.548602 76.867933 
L 305.846457 77.990381 
L 306.02906 79.506237 
L 306.385283 80.200785 
L 306.996024 78.031926 
L 307.281744 78.899545 
L 307.656728 83.030018 
L 308.067971 88.444449 
L 308.537897 83.458208 
L 309.086734 77.463829 
L 309.313549 76.542801 
L 309.455479 76.909122 
L 309.930311 76.785709 
L 310.001814 76.398937 
L 310.527271 76.803793 
L 311.611583 81.81147 
L 311.781527 82.24839 
L 312.017687 81.224138 
L 312.732977 79.16843 
L 313.090224 80.244827 
L 313.212638 78.148793 
L 313.568273 80.17102 
L 314.235778 143.604479 
L 314.58015 161.727027 
L 314.701814 176.762731 
L 315.682591 217.346452 
L 316.016983 216.864886 
L 316.33419 189.840185 
L 316.452034 153.201239 
L 317.410895 40.356908 
L 318.060545 7.177646 
L 318.180102 6.050769 
L 318.718927 27.702934 
L 319.910478 134.455178 
L 320.14826 142.254928 
L 320.328134 140.897054 
L 320.624731 131.080859 
L 321.584298 68.501943 
L 322.117615 55.915464 
L 322.357206 56.07194 
L 322.592008 61.623998 
L 323.070052 83.474791 
L 323.548541 112.305201 
L 324.083748 126.520046 
L 324.50419 125.42929 
L 324.569671 119.751142 
L 325.454334 80.504963 
L 325.812051 55.255829 
L 326.051482 48.335532 
L 326.294583 47.16258 
L 326.530758 51.495452 
L 327.242305 70.494353 
L 327.301953 83.299331 
L 328.020226 122.055304 
L 328.256505 127.425776 
L 328.495475 125.920764 
L 329.171816 108.556808 
L 329.275333 95.535824 
L 329.745474 71.587818 
L 330.162941 61.984835 
L 330.282264 55.939763 
L 330.580948 53.899211 
L 330.761294 57.352318 
L 331.312423 75.786558 
L 332.018819 104.471522 
L 332.248663 109.382988 
L 332.487919 111.148847 
L 332.725398 108.974125 
L 333.024265 104.473412 
L 334.226045 67.65265 
L 334.581092 66.715706 
L 335.022935 74.423345 
L 335.709664 92.720434 
L 335.971918 96.968605 
L 336.184852 98.327493 
L 336.423478 97.05124 
L 336.663453 93.452897 
L 337.916816 65.03971 
L 338.161358 63.798654 
L 338.54477 64.637198 
L 338.658091 67.001137 
L 338.944233 69.625411 
L 338.991294 71.644995 
L 339.29103 74.389579 
L 339.410048 78.94307 
L 340.12328 85.065404 
L 340.421547 85.367811 
L 340.719728 84.639329 
L 341.13678 80.657334 
L 341.615004 77.62854 
L 341.917182 77.75293 
L 342.390217 83.630005 
L 342.592547 88.370598 
L 342.865715 92.055674 
L 343.224194 94.464476 
L 343.364331 96.524935 
L 343.582206 97.592556 
L 343.819625 97.986604 
L 344.2367 96.67044 
L 344.355474 93.465894 
L 344.654162 89.003863 
L 345.073439 78.665355 
L 346.084919 67.714483 
L 346.386542 66.723909 
L 346.623265 67.859727 
L 347.336523 83.241249 
L 347.633595 86.903445 
L 347.812551 87.531059 
L 348.051726 86.740298 
L 348.470912 87.211064 
L 348.531021 88.89593 
L 348.830156 90.209066 
L 349.025631 89.84453 
L 349.25029 87.037967 
L 349.603408 80.932731 
L 349.8421 74.09552 
L 350.139628 69.881593 
L 350.26536 69.766664 
L 351.033535 80.16505 
L 351.510253 81.682396 
L 351.86755 81.695081 
L 352.34541 85.800302 
L 352.643325 87.575761 
L 352.763199 86.663479 
L 353.777296 67.642361 
L 354.192068 68.10212 
L 354.26785 71.154434 
L 354.967142 81.887866 
L 355.563366 86.501294 
L 355.691361 89.83584 
L 356.230389 95.400152 
L 356.695564 94.682146 
L 357.11492 90.363545 
L 357.414082 79.207428 
L 357.768024 75.704347 
L 358.067321 76.693639 
L 358.200121 78.552813 
L 358.619507 77.635589 
L 358.726755 77.051839 
L 359.203431 80.562666 
L 359.448191 82.639647 
L 360.223373 86.667174 
L 360.464925 86.679042 
L 360.876193 85.209994 
L 361.129106 82.64514 
L 361.661674 74.531421 
L 361.887082 73.691559 
L 362.185637 75.842037 
L 362.424082 80.116325 
L 362.662654 81.580807 
L 363.20353 79.110958 
L 363.423447 80.416621 
L 363.916371 88.140669 
L 364.298259 88.13993 
L 364.393153 85.618349 
L 364.92917 81.876474 
L 365.107627 80.725756 
L 365.345698 80.505486 
L 365.643635 78.999388 
L 366.120566 73.913656 
L 366.430486 74.000721 
L 366.661699 77.681433 
L 366.95586 80.336977 
L 367.137644 80.372046 
L 367.313284 79.012559 
L 367.613202 79.770931 
L 368.164973 84.192821 
L 368.328014 84.236214 
L 368.629685 81.742571 
L 369.113805 75.578951 
L 369.34484 75.758705 
L 369.529356 77.209828 
L 369.821758 77.820293 
L 370.240307 76.86634 
L 370.360723 77.457228 
L 370.716213 77.658829 
L 370.778089 78.881079 
L 371.312315 83.097682 
L 371.789135 84.529817 
L 372.027824 84.908296 
L 372.325578 86.423822 
L 372.572937 86.528253 
L 372.861574 82.995777 
L 373.223258 80.736719 
L 373.518933 84.154604 
L 373.93445 84.337471 
L 373.993192 82.725348 
L 374.71244 75.652268 
L 375.080509 77.310491 
L 375.245909 81.426894 
L 375.486534 83.349936 
L 375.841426 81.813612 
L 376.021182 79.235323 
L 376.325316 77.900681 
L 376.501063 78.971386 
L 376.735908 81.2654 
L 377.154139 82.044875 
L 377.275259 80.980353 
L 377.454122 77.562678 
L 377.691085 75.298973 
L 377.97089 76.41279 
L 378.467507 80.0348 
L 378.705786 80.385088 
L 379.541591 83.125027 
L 379.77876 82.688802 
L 379.957593 82.604424 
L 380.315476 81.704468 
L 380.43452 79.557338 
L 380.67377 78.522945 
L 381.209422 81.781513 
L 381.566802 79.852676 
L 381.744983 76.786471 
L 382.170296 76.458997 
L 382.401177 81.137434 
L 382.640935 83.53034 
L 382.938268 83.881218 
L 383.653191 76.872988 
L 383.891272 77.176586 
L 384.36784 81.40597 
L 384.608478 80.89065 
L 385.024513 78.318609 
L 385.141968 75.815431 
L 385.442062 76.625231 
L 385.982328 82.293812 
L 386.154941 84.068554 
L 386.572481 83.385918 
L 386.633083 80.36461 
L 386.871953 78.047414 
L 387.288124 78.218158 
L 387.408358 80.303103 
L 387.883735 83.888835 
L 388.657811 77.417763 
L 388.83674 78.556852 
L 389.078696 81.636765 
L 389.373409 83.871381 
L 389.673069 83.885741 
L 389.85151 82.358315 
L 390.209139 79.857144 
L 390.327434 76.499141 
L 390.566718 75.282948 
L 391.283443 77.976799 
L 391.578394 77.780998 
L 391.956832 78.096526 
L 392.294363 80.970831 
L 392.832412 82.494937 
L 393.65145 81.679625 
L 394.023607 83.489033 
L 394.261973 83.95047 
L 394.507191 84.778059 
L 395.156539 85.272003 
L 395.275553 84.686281 
L 395.817442 83.569781 
L 396.468688 84.096736 
L 396.709418 83.879195 
L 397.480824 80.982362 
L 397.839129 81.301752 
L 398.01748 81.971562 
L 398.255879 81.533849 
L 398.493969 79.815605 
L 398.732782 77.202463 
L 399.032184 75.186005 
L 399.629341 72.78486 
L 399.867123 73.240355 
L 400.224723 78.059635 
L 401.000306 86.87497 
L 401.240795 88.159537 
L 401.476641 87.951495 
L 401.775515 86.51035 
L 402.908526 74.927423 
L 403.162416 74.33305 
L 403.206332 73.736149 
L 403.633589 76.045186 
L 403.922551 76.730033 
L 404.188901 77.054866 
L 404.402506 76.974919 
L 404.641312 77.235036 
L 404.947887 78.508948 
L 405.385104 82.241552 
L 405.65268 82.683047 
L 406.667313 81.369633 
L 406.963223 81.654066 
L 407.144113 81.60039 
L 407.380891 80.071613 
L 407.860801 73.750236 
L 408.398363 70.925306 
L 408.636507 70.984078 
L 408.917998 72.549859 
L 409.234688 74.982548 
L 409.470635 77.833056 
L 409.589722 81.419763 
L 409.829013 83.92727 
L 410.126347 85.169161 
L 410.42592 85.161035 
L 411.143152 83.070654 
L 411.320402 83.241362 
L 411.857209 84.296417 
L 412.096215 84.312805 
L 412.512689 84.892771 
L 412.58546 85.329278 
L 413.062343 86.454274 
L 413.456757 85.086383 
L 413.81476 79.945537 
L 414.472681 72.746449 
L 414.533583 69.006304 
L 414.830286 65.910825 
L 415.068038 65.111444 
L 415.309724 65.156408 
L 415.559664 66.495128 
L 415.96323 70.081122 
L 416.023198 73.631194 
L 416.563927 80.062836 
L 417.002271 86.134415 
L 417.276707 87.614023 
L 417.709181 87.670555 
L 417.756951 87.291581 
L 418.054464 87.587764 
L 418.530943 87.66021 
L 419.126668 86.355196 
L 419.962564 82.026096 
L 420.738015 81.474974 
L 420.975057 81.456861 
L 421.214128 81.620596 
L 421.512226 80.760444 
L 421.693249 79.006714 
L 422.225812 77.676114 
L 422.234324 78.255332 
L 422.468961 80.404529 
L 423.004989 82.975486 
L 423.960579 80.522665 
L 424.43705 82.145927 
L 424.675708 81.936935 
L 425.155055 77.760267 
L 425.574673 77.438498 
L 425.629286 77.889342 
L 426.40654 78.9523 
L 426.64547 77.938292 
L 427.190077 76.896426 
L 427.659166 78.914332 
L 427.90644 77.940127 
L 427.958088 76.952234 
L 428.19698 76.605036 
L 428.436409 75.790973 
L 428.619145 76.304115 
L 429.151322 80.883857 
L 429.628082 84.623679 
L 429.867272 84.418692 
L 430.10485 83.035328 
L 430.774626 78.048543 
L 431.121983 71.326248 
L 431.597523 63.189819 
L 432.095657 58.26545 
L 432.561897 48.988306 
L 432.821237 47.358494 
L 433.156978 47.21733 
L 433.594031 48.013161 
L 434.121676 45.751256 
L 434.414608 45.450493 
L 435.793016 80.972372 
L 436.163582 86.41931 
L 436.324342 93.0379 
L 436.627299 97.801027 
L 436.862153 98.106968 
L 437.640155 84.844695 
L 437.947846 82.65214 
L 438.778576 66.246821 
L 439.093849 64.981678 
L 440.027646 89.397807 
L 440.326857 90.237175 
L 440.505242 89.925451 
L 441.360449 86.701402 
L 441.460589 83.741298 
L 441.817555 79.340506 
L 441.996582 74.198388 
L 442.476381 68.157569 
L 442.882088 67.339696 
L 443.119643 67.901763 
L 443.306995 71.147325 
L 444.193965 94.554992 
L 444.670741 95.180721 
L 445.029606 88.15366 
L 445.21114 84.603749 
L 445.566243 82.497909 
L 445.950184 77.28147 
L 446.46149 73.008667 
L 446.703529 73.810345 
L 447.182432 79.078329 
L 448.138367 89.714592 
L 448.437338 90.832679 
L 448.625267 90.233974 
L 448.91479 88.555566 
L 449.392189 84.199028 
L 449.808343 83.508608 
L 450.46407 87.454985 
L 451.180519 89.956856 
L 451.658653 92.876348 
L 451.839194 92.923848 
L 452.326715 91.660324 
L 452.613173 91.155231 
L 453.098099 88.291159 
L 453.469682 85.721355 
L 453.809319 79.871458 
L 454.134366 78.054976 
L 454.765606 76.559733 
L 455.071869 74.503001 
L 455.300727 74.985363 
L 455.961335 80.516737 
L 456.566905 90.628697 
L 456.984034 89.928475 
L 457.044693 88.709699 
L 457.462645 86.733657 
L 457.762486 83.558981 
L 458.176246 82.190137 
L 458.295734 81.320387 
L 458.772737 79.165446 
L 459.18988 79.372871 
L 459.846799 95.127797 
L 460.264394 100.465766 
L 460.505547 101.383685 
L 460.801349 100.581366 
L 462.535859 90.733798 
L 462.954361 89.759058 
L 463.252644 89.936876 
L 464.210024 94.714273 
L 464.468285 94.13575 
L 464.923343 89.521205 
L 466.243917 70.229048 
L 466.663185 67.015509 
L 466.961408 67.027432 
L 467.597038 72.022115 
L 467.921045 80.124728 
L 468.454257 83.350812 
L 468.761166 81.990694 
L 469.179483 76.941905 
L 469.542461 73.015971 
L 469.64942 69.622679 
L 470.128335 63.305055 
L 470.435389 61.879316 
L 470.683137 62.332922 
L 470.906718 64.123557 
L 472.456786 88.613042 
L 472.636186 90.858732 
L 473.172886 92.336106 
L 473.634969 92.169939 
L 473.868197 91.167293 
L 474.170263 90.39663 
L 474.645427 90.28022 
L 474.949827 89.879757 
L 475.125654 89.276874 
L 475.315542 89.178701 
L 476.079329 87.764598 
L 476.555932 85.441812 
L 477.212458 80.571519 
L 477.361592 77.626544 
L 477.749946 75.774274 
L 477.868828 73.846648 
L 478.107403 72.786691 
L 478.643526 71.863831 
L 478.775738 71.927099 
L 479.305237 75.05223 
L 479.798874 78.528794 
L 480.259337 81.500875 
L 480.639147 81.239236 
L 481.30086 76.571479 
L 481.817167 71.879163 
L 482.301583 70.356048 
L 482.796157 69.647002 
L 483.087039 70.192792 
L 483.208624 71.337451 
L 483.500877 72.32158 
L 484.216787 76.772623 
L 484.514676 76.635437 
L 484.761105 76.388409 
L 485.230884 74.380779 
L 485.470722 75.29057 
L 486.247979 79.945433 
L 486.961225 85.995397 
L 487.677248 95.487901 
L 488.214516 97.999249 
L 488.455338 98.627048 
L 488.751713 98.249906 
L 488.931602 97.573423 
L 489.540319 96.525248 
L 490.005091 94.940447 
L 490.481391 95.135086 
L 490.683853 94.872768 
L 490.899752 94.842446 
L 491.494573 96.613003 
L 492.154206 99.738199 
L 492.390345 100.16414 
L 492.705805 99.970762 
L 493.122928 98.340596 
L 493.601015 97.24315 
L 493.66099 95.91734 
L 493.95881 94.345998 
L 494.380638 91.295985 
L 495.092642 86.968182 
L 496.407336 82.340653 
L 496.931081 78.841663 
L 497.32743 75.18557 
L 497.602808 74.660426 
L 497.947291 74.996371 
L 498.144884 75.856064 
L 498.860584 80.227966 
L 499.337413 82.502957 
L 499.817608 84.564816 
L 500.113488 84.704781 
L 500.650281 81.557893 
L 500.829084 79.662365 
L 501.425955 76.110791 
L 501.604394 76.329868 
L 502.085048 77.16438 
L 502.321119 80.387543 
L 503.051282 86.340716 
L 503.515493 94.20698 
L 504.051407 100.606771 
L 504.229888 103.311323 
L 504.650095 104.412347 
L 504.707569 104.244637 
L 505.069486 101.74357 
L 505.78225 92.274399 
L 506.266043 84.914509 
L 506.569872 81.727046 
L 506.746757 78.251133 
L 507.231373 73.843177 
L 507.475334 74.235654 
L 507.708032 75.583966 
L 508.005894 76.328925 
L 508.190358 77.234984 
L 508.485193 77.755113 
L 508.787092 77.468963 
L 509.275368 75.728948 
L 509.498512 74.811702 
L 509.921977 74.337064 
L 509.97473 73.522879 
L 510.21317 73.841216 
L 510.631246 74.11787 
L 510.691646 73.998458 
L 511.266656 75.017744 
L 512.42372 88.128392 
L 512.662927 88.224858 
L 512.902669 88.48642 
L 513.214663 88.480664 
L 513.619081 88.191742 
L 513.68035 88.372091 
L 513.915563 88.262216 
L 514.39837 88.507598 
L 514.571539 88.325918 
L 514.703169 88.580623 
L 514.890518 89.445587 
L 515.247869 91.851862 
L 516.400242 104.64666 
L 516.922212 103.33051 
L 517.159528 102.038146 
L 517.51651 100.975203 
L 518.480489 89.691588 
L 518.653123 85.651867 
L 519.388449 76.950973 
L 519.725267 75.452619 
L 519.86004 74.303799 
L 520.141772 74.652895 
L 520.621899 77.788356 
L 520.859464 79.663069 
L 521.115203 82.879642 
L 521.637701 94.730944 
L 522.117242 106.046457 
L 522.363738 108.425601 
L 522.827932 109.571737 
L 523.266623 111.644593 
L 523.497826 113.757925 
L 523.843711 114.010136 
L 524.131034 105.884476 
L 524.380779 92.225814 
L 524.857058 81.476832 
L 524.9168 73.209469 
L 525.692727 62.653933 
L 525.814188 62.484206 
L 526.316015 63.277891 
L 527.314102 89.780872 
L 527.911085 94.921309 
L 528.28225 91.160076 
L 529.166701 67.512976 
L 529.284939 67.10539 
L 529.533417 68.90527 
L 529.890641 72.501327 
L 530.247674 82.569937 
L 530.664454 89.057584 
L 531.621121 117.710178 
L 531.88268 117.69488 
L 532.524468 99.99755 
L 532.939696 83.256557 
L 533.72434 64.487794 
L 533.946454 61.643074 
L 534.245028 61.337012 
L 534.451003 62.171195 
L 535.028561 67.165761 
L 535.504579 72.808228 
L 535.801994 73.485381 
L 536.733933 67.173216 
L 536.938388 66.865556 
L 537.241818 67.519382 
L 537.57183 69.447395 
L 537.923297 75.182037 
L 538.432501 83.880846 
L 539.203163 96.61936 
L 539.439601 98.40033 
L 539.680701 98.652766 
L 539.916955 97.087307 
L 540.924843 85.875268 
L 541.483777 80.608447 
L 541.907515 78.828634 
L 542.137411 80.026359 
L 543.147255 93.68701 
L 543.625901 99.020326 
L 543.867082 99.491757 
L 544.160754 98.919552 
L 544.419445 97.420245 
L 544.997465 91.606137 
L 545.177199 88.701539 
L 545.613251 85.397852 
L 545.716345 83.426715 
L 546.311255 81.033043 
L 546.562256 80.792549 
L 547.086927 79.503249 
L 547.328605 78.721595 
L 547.562717 77.394178 
L 548.044159 72.027967 
L 548.57849 65.139826 
L 549.053617 60.042568 
L 549.551337 59.258904 
L 550.187418 63.309223 
L 550.496407 73.070319 
L 550.901628 77.886723 
L 551.264901 84.302888 
L 551.511124 85.552992 
L 551.737027 85.990846 
L 552.395465 86.504628 
L 552.516451 85.651587 
L 553.231918 83.936644 
L 553.531832 84.926126 
L 554.326986 97.041453 
L 554.745389 103.89059 
L 554.984158 106.309533 
L 555.281591 107.683646 
L 555.937535 109.072155 
L 556.23672 108.440908 
L 556.8397 104.954062 
L 556.966916 102.633825 
L 557.459078 97.44523 
L 557.570223 91.931026 
L 557.960614 86.386034 
L 558.43799 83.302783 
L 558.695445 82.636312 
L 558.974965 82.440068 
L 559.210968 82.613797 
L 559.509203 83.31726 
L 559.92538 85.841431 
L 560.468553 86.503089 
L 561.186721 88.693747 
L 561.37958 89.026844 
L 561.675585 88.321832 
L 561.924237 85.623127 
L 562.153707 84.365485 
L 562.693429 83.457709 
L 562.879261 83.225927 
L 563.168071 82.294803 
L 563.541892 80.381885 
L 563.663332 78.99019 
L 564.063923 78.711664 
L 564.36587 83.014234 
L 564.602546 85.562247 
L 565.099238 87.955776 
L 565.376283 87.944082 
L 565.616165 87.587986 
L 566.154132 88.761784 
L 566.807687 87.894695 
L 566.871061 86.87636 
L 567.109206 85.941018 
L 567.348511 85.854151 
L 567.602314 85.2737 
L 567.889683 85.584118 
L 568.067008 86.703954 
L 568.36386 87.660038 
L 568.666409 88.090373 
L 568.905048 87.999103 
L 569.258048 86.925811 
L 569.556614 82.738555 
L 569.830097 82.211758 
L 570.180186 84.292635 
L 570.296782 86.748582 
L 570.596187 88.626916 
L 570.840372 89.291276 
L 571.090269 89.159325 
L 571.551927 88.087059 
L 571.854597 88.973172 
L 572.030259 90.351523 
L 572.327643 90.578522 
L 573.047077 79.020739 
L 573.343047 79.062622 
L 573.705169 81.553775 
L 574.05876 86.513448 
L 574.30091 86.697156 
L 574.789855 85.945238 
L 575.266685 89.565813 
L 575.509254 89.613715 
L 575.806683 85.591 
L 575.982989 80.433084 
L 576.28069 77.08319 
L 576.639918 77.942767 
L 576.819632 80.647153 
L 577.176708 82.600304 
L 577.414148 82.487155 
L 577.534113 80.861191 
L 577.715511 80.009428 
L 577.951032 81.512354 
L 578.728967 89.616485 
L 579.051607 86.599494 
L 579.234913 83.646848 
L 579.471695 83.531044 
L 580.001437 86.001905 
L 580.238885 85.493897 
L 580.67193 82.82798 
L 580.954797 82.55633 
L 581.193618 83.51637 
L 581.503861 84.251701 
L 581.67021 84.02772 
L 582.031218 82.853087 
L 582.167232 83.033159 
L 582.685641 86.111783 
L 582.987025 86.137372 
L 583.282015 84.98578 
L 583.519781 81.686023 
L 583.93793 81.786609 
L 584.35554 85.037609 
L 584.712611 84.725262 
L 585.071395 76.80976 
L 585.399086 76.72519 
L 585.63542 78.915836 
L 586.150599 89.149768 
L 586.440302 89.752681 
L 586.619088 88.688949 
L 586.989148 87.583674 
L 587.158906 88.071834 
L 587.635596 90.521763 
L 587.875755 89.937301 
L 588.351426 84.08867 
L 588.64969 79.71503 
L 588.888745 78.976992 
L 589.128115 81.496565 
L 589.612081 84.076336 
L 589.849898 83.91193 
L 590.201208 83.922687 
L 590.339608 84.949752 
L 590.564453 85.128573 
L 590.858037 84.437752 
L 591.098088 84.578873 
L 591.336211 85.45827 
L 591.644742 85.081036 
L 591.94111 83.498508 
L 592.179709 83.774627 
L 592.35766 84.498482 
L 592.95496 79.995012 
L 593.252524 81.646809 
L 593.612706 85.533396 
L 593.789061 85.409211 
L 594.265573 82.818621 
L 594.510253 83.064033 
L 594.863145 84.458346 
L 595.041953 85.909475 
L 595.294118 86.01371 
L 596.26267 80.811017 
L 596.502813 81.979988 
L 596.502813 81.979988 
" clip-path="url(#pd0a59071a8)" style="fill: none; stroke: #ff0000; stroke-opacity: 0.5; stroke-width: 1.5; stroke-linecap: square"/>
   </g>
   <g id="patch_3">
    <path d="M 38.502813 277.92 
L 38.502813 0.72 
" style="fill: none; stroke: #000000; stroke-width: 0.8; stroke-linejoin: miter; stroke-linecap: square"/>
   </g>
   <g id="patch_4">
    <path d="M 596.502813 277.92 
L 596.502813 0.72 
" style="fill: none; stroke: #000000; stroke-width: 0.8; stroke-linejoin: miter; stroke-linecap: square"/>
   </g>
   <g id="patch_5">
    <path d="M 38.502813 277.92 
L 596.502813 277.92 
" style="fill: none; stroke: #000000; stroke-width: 0.8; stroke-linejoin: miter; stroke-linecap: square"/>
   </g>
   <g id="patch_6">
    <path d="M 38.502813 0.72 
L 596.502813 0.72 
" style="fill: none; stroke: #000000; stroke-width: 0.8; stroke-linejoin: miter; stroke-linecap: square"/>
   </g>
   <g id="legend_1">
    <g id="patch_7">
     <path d="M 515.734062 38.07625 
L 589.502812 38.07625 
Q 591.502812 38.07625 591.502812 36.07625 
L 591.502812 7.72 
Q 591.502812 5.72 589.502812 5.72 
L 515.734062 5.72 
Q 513.734062 5.72 513.734062 7.72 
L 513.734062 36.07625 
Q 513.734062 38.07625 515.734062 38.07625 
z
" style="fill: #ffffff; opacity: 0.8; stroke: #cccccc; stroke-linejoin: miter"/>
    </g>
    <g id="line2d_29">
     <path d="M 517.734062 13.818438 
L 527.734062 13.818438 
L 537.734062 13.818438 
" style="fill: none; stroke: #0000ff; stroke-opacity: 0.5; stroke-width: 1.5; stroke-linecap: square"/>
    </g>
    <g id="text_16">
     <!-- RNEA -->
     <g transform="translate(545.734062 17.318438) scale(0.1 -0.1)">
      <defs>
       <path id="DejaVuSans-52" d="M 2841 2188 
Q 3044 2119 3236 1894 
Q 3428 1669 3622 1275 
L 4263 0 
L 3584 0 
L 2988 1197 
Q 2756 1666 2539 1819 
Q 2322 1972 1947 1972 
L 1259 1972 
L 1259 0 
L 628 0 
L 628 4666 
L 2053 4666 
Q 2853 4666 3247 4331 
Q 3641 3997 3641 3322 
Q 3641 2881 3436 2590 
Q 3231 2300 2841 2188 
z
M 1259 4147 
L 1259 2491 
L 2053 2491 
Q 2509 2491 2742 2702 
Q 2975 2913 2975 3322 
Q 2975 3731 2742 3939 
Q 2509 4147 2053 4147 
L 1259 4147 
z
" transform="scale(0.015625)"/>
       <path id="DejaVuSans-45" d="M 628 4666 
L 3578 4666 
L 3578 4134 
L 1259 4134 
L 1259 2753 
L 3481 2753 
L 3481 2222 
L 1259 2222 
L 1259 531 
L 3634 531 
L 3634 0 
L 628 0 
L 628 4666 
z
" transform="scale(0.015625)"/>
       <path id="DejaVuSans-41" d="M 2188 4044 
L 1331 1722 
L 3047 1722 
L 2188 4044 
z
M 1831 4666 
L 2547 4666 
L 4325 0 
L 3669 0 
L 3244 1197 
L 1141 1197 
L 716 0 
L 50 0 
L 1831 4666 
z
" transform="scale(0.015625)"/>
      </defs>
      <use xlink:href="#DejaVuSans-52"/>
      <use xlink:href="#DejaVuSans-4e" x="69.482422"/>
      <use xlink:href="#DejaVuSans-45" x="144.287109"/>
      <use xlink:href="#DejaVuSans-41" x="207.470703"/>
     </g>
    </g>
    <g id="line2d_30">
     <path d="M 517.734062 28.496563 
L 527.734062 28.496563 
L 537.734062 28.496563 
" style="fill: none; stroke: #ff0000; stroke-opacity: 0.5; stroke-width: 1.5; stroke-linecap: square"/>
    </g>
    <g id="text_17">
     <!-- BURNEA -->
     <g transform="translate(545.734062 31.996563) scale(0.1 -0.1)">
      <defs>
       <path id="DejaVuSans-42" d="M 1259 2228 
L 1259 519 
L 2272 519 
Q 2781 519 3026 730 
Q 3272 941 3272 1375 
Q 3272 1813 3026 2020 
Q 2781 2228 2272 2228 
L 1259 2228 
z
M 1259 4147 
L 1259 2741 
L 2194 2741 
Q 2656 2741 2882 2914 
Q 3109 3088 3109 3444 
Q 3109 3797 2882 3972 
Q 2656 4147 2194 4147 
L 1259 4147 
z
M 628 4666 
L 2241 4666 
Q 2963 4666 3353 4366 
Q 3744 4066 3744 3513 
Q 3744 3084 3544 2831 
Q 3344 2578 2956 2516 
Q 3422 2416 3680 2098 
Q 3938 1781 3938 1306 
Q 3938 681 3513 340 
Q 3088 0 2303 0 
L 628 0 
L 628 4666 
z
" transform="scale(0.015625)"/>
       <path id="DejaVuSans-55" d="M 556 4666 
L 1191 4666 
L 1191 1831 
Q 1191 1081 1462 751 
Q 1734 422 2344 422 
Q 2950 422 3222 751 
Q 3494 1081 3494 1831 
L 3494 4666 
L 4128 4666 
L 4128 1753 
Q 4128 841 3676 375 
Q 3225 -91 2344 -91 
Q 1459 -91 1007 375 
Q 556 841 556 1753 
L 556 4666 
z
" transform="scale(0.015625)"/>
      </defs>
      <use xlink:href="#DejaVuSans-42"/>
      <use xlink:href="#DejaVuSans-55" x="68.603516"/>
      <use xlink:href="#DejaVuSans-52" x="141.796875"/>
      <use xlink:href="#DejaVuSans-4e" x="211.279297"/>
      <use xlink:href="#DejaVuSans-45" x="286.083984"/>
      <use xlink:href="#DejaVuSans-41" x="349.267578"/>
     </g>
    </g>
   </g>
  </g>
 </g>
 <defs>
  <clipPath id="pd0a59071a8">
   <rect x="38.502813" y="0.72" width="558" height="277.2"/>
  </clipPath>
 </defs>
</svg>
