<?xml version="1.0" encoding="utf-8" standalone="no"?>
<!DOCTYPE svg PUBLIC "-//W3C//DTD SVG 1.1//EN"
  "http://www.w3.org/Graphics/SVG/1.1/DTD/svg11.dtd">
<svg xmlns:xlink="http://www.w3.org/1999/xlink" width="597.222813pt" height="304.99625pt" viewBox="0 0 597.222813 304.99625" xmlns="http://www.w3.org/2000/svg" version="1.1">
 <metadata>
  <rdf:RDF xmlns:dc="http://purl.org/dc/elements/1.1/" xmlns:cc="http://creativecommons.org/ns#" xmlns:rdf="http://www.w3.org/1999/02/22-rdf-syntax-ns#">
   <cc:Work>
    <dc:type rdf:resource="http://purl.org/dc/dcmitype/StillImage"/>
    <dc:date>2023-09-07T03:30:19.512603</dc:date>
    <dc:format>image/svg+xml</dc:format>
    <dc:creator>
     <cc:Agent>
      <dc:title>Matplotlib v3.7.2, https://matplotlib.org/</dc:title>
     </cc:Agent>
    </dc:creator>
   </cc:Work>
  </rdf:RDF>
 </metadata>
 <defs>
  <style type="text/css">*{stroke-linejoin: round; stroke-linecap: butt}</style>
 </defs>
 <g id="figure_1">
  <g id="patch_1">
   <path d="M -0 304.99625 
L 597.222813 304.99625 
L 597.222813 0 
L -0 0 
L -0 304.99625 
z
" style="fill: none"/>
  </g>
  <g id="axes_1">
   <g id="patch_2">
    <path d="M 38.502813 277.92 
L 596.502813 277.92 
L 596.502813 0.72 
L 38.502813 0.72 
L 38.502813 277.92 
z
" style="fill: none"/>
   </g>
   <g id="matplotlib.axis_1">
    <g id="xtick_1">
     <g id="line2d_1">
      <path d="M 38.502813 277.92 
L 38.502813 0.72 
" clip-path="url(#pd1b86f5cd2)" style="fill: none; stroke-dasharray: 0.8,1.32; stroke-dashoffset: 0; stroke: #000000; stroke-opacity: 0.5; stroke-width: 0.8"/>
     </g>
     <g id="line2d_2">
      <defs>
       <path id="m4f2276a405" d="M 0 0 
L 0 3.5 
" style="stroke: #000000; stroke-width: 0.8"/>
      </defs>
      <g>
       <use xlink:href="#m4f2276a405" x="38.502813" y="277.92" style="stroke: #000000; stroke-width: 0.8"/>
      </g>
     </g>
     <g id="text_1">
      <!-- 0.0 -->
      <g transform="translate(30.55125 292.518438) scale(0.1 -0.1)">
       <defs>
        <path id="DejaVuSans-30" d="M 2034 4250 
Q 1547 4250 1301 3770 
Q 1056 3291 1056 2328 
Q 1056 1369 1301 889 
Q 1547 409 2034 409 
Q 2525 409 2770 889 
Q 3016 1369 3016 2328 
Q 3016 3291 2770 3770 
Q 2525 4250 2034 4250 
z
M 2034 4750 
Q 2819 4750 3233 4129 
Q 3647 3509 3647 2328 
Q 3647 1150 3233 529 
Q 2819 -91 2034 -91 
Q 1250 -91 836 529 
Q 422 1150 422 2328 
Q 422 3509 836 4129 
Q 1250 4750 2034 4750 
z
" transform="scale(0.015625)"/>
        <path id="DejaVuSans-2e" d="M 684 794 
L 1344 794 
L 1344 0 
L 684 0 
L 684 794 
z
" transform="scale(0.015625)"/>
       </defs>
       <use xlink:href="#DejaVuSans-30"/>
       <use xlink:href="#DejaVuSans-2e" x="63.623047"/>
       <use xlink:href="#DejaVuSans-30" x="95.410156"/>
      </g>
     </g>
    </g>
    <g id="xtick_2">
     <g id="line2d_3">
      <path d="M 112.654137 277.92 
L 112.654137 0.72 
" clip-path="url(#pd1b86f5cd2)" style="fill: none; stroke-dasharray: 0.8,1.32; stroke-dashoffset: 0; stroke: #000000; stroke-opacity: 0.5; stroke-width: 0.8"/>
     </g>
     <g id="line2d_4">
      <g>
       <use xlink:href="#m4f2276a405" x="112.654137" y="277.92" style="stroke: #000000; stroke-width: 0.8"/>
      </g>
     </g>
     <g id="text_2">
      <!-- 2.5 -->
      <g transform="translate(104.702575 292.518438) scale(0.1 -0.1)">
       <defs>
        <path id="DejaVuSans-32" d="M 1228 531 
L 3431 531 
L 3431 0 
L 469 0 
L 469 531 
Q 828 903 1448 1529 
Q 2069 2156 2228 2338 
Q 2531 2678 2651 2914 
Q 2772 3150 2772 3378 
Q 2772 3750 2511 3984 
Q 2250 4219 1831 4219 
Q 1534 4219 1204 4116 
Q 875 4013 500 3803 
L 500 4441 
Q 881 4594 1212 4672 
Q 1544 4750 1819 4750 
Q 2544 4750 2975 4387 
Q 3406 4025 3406 3419 
Q 3406 3131 3298 2873 
Q 3191 2616 2906 2266 
Q 2828 2175 2409 1742 
Q 1991 1309 1228 531 
z
" transform="scale(0.015625)"/>
        <path id="DejaVuSans-35" d="M 691 4666 
L 3169 4666 
L 3169 4134 
L 1269 4134 
L 1269 2991 
Q 1406 3038 1543 3061 
Q 1681 3084 1819 3084 
Q 2600 3084 3056 2656 
Q 3513 2228 3513 1497 
Q 3513 744 3044 326 
Q 2575 -91 1722 -91 
Q 1428 -91 1123 -41 
Q 819 9 494 109 
L 494 744 
Q 775 591 1075 516 
Q 1375 441 1709 441 
Q 2250 441 2565 725 
Q 2881 1009 2881 1497 
Q 2881 1984 2565 2268 
Q 2250 2553 1709 2553 
Q 1456 2553 1204 2497 
Q 953 2441 691 2322 
L 691 4666 
z
" transform="scale(0.015625)"/>
       </defs>
       <use xlink:href="#DejaVuSans-32"/>
       <use xlink:href="#DejaVuSans-2e" x="63.623047"/>
       <use xlink:href="#DejaVuSans-35" x="95.410156"/>
      </g>
     </g>
    </g>
    <g id="xtick_3">
     <g id="line2d_5">
      <path d="M 186.805462 277.92 
L 186.805462 0.72 
" clip-path="url(#pd1b86f5cd2)" style="fill: none; stroke-dasharray: 0.8,1.32; stroke-dashoffset: 0; stroke: #000000; stroke-opacity: 0.5; stroke-width: 0.8"/>
     </g>
     <g id="line2d_6">
      <g>
       <use xlink:href="#m4f2276a405" x="186.805462" y="277.92" style="stroke: #000000; stroke-width: 0.8"/>
      </g>
     </g>
     <g id="text_3">
      <!-- 5.0 -->
      <g transform="translate(178.8539 292.518438) scale(0.1 -0.1)">
       <use xlink:href="#DejaVuSans-35"/>
       <use xlink:href="#DejaVuSans-2e" x="63.623047"/>
       <use xlink:href="#DejaVuSans-30" x="95.410156"/>
      </g>
     </g>
    </g>
    <g id="xtick_4">
     <g id="line2d_7">
      <path d="M 260.956787 277.92 
L 260.956787 0.72 
" clip-path="url(#pd1b86f5cd2)" style="fill: none; stroke-dasharray: 0.8,1.32; stroke-dashoffset: 0; stroke: #000000; stroke-opacity: 0.5; stroke-width: 0.8"/>
     </g>
     <g id="line2d_8">
      <g>
       <use xlink:href="#m4f2276a405" x="260.956787" y="277.92" style="stroke: #000000; stroke-width: 0.8"/>
      </g>
     </g>
     <g id="text_4">
      <!-- 7.5 -->
      <g transform="translate(253.005225 292.518438) scale(0.1 -0.1)">
       <defs>
        <path id="DejaVuSans-37" d="M 525 4666 
L 3525 4666 
L 3525 4397 
L 1831 0 
L 1172 0 
L 2766 4134 
L 525 4134 
L 525 4666 
z
" transform="scale(0.015625)"/>
       </defs>
       <use xlink:href="#DejaVuSans-37"/>
       <use xlink:href="#DejaVuSans-2e" x="63.623047"/>
       <use xlink:href="#DejaVuSans-35" x="95.410156"/>
      </g>
     </g>
    </g>
    <g id="xtick_5">
     <g id="line2d_9">
      <path d="M 335.108112 277.92 
L 335.108112 0.72 
" clip-path="url(#pd1b86f5cd2)" style="fill: none; stroke-dasharray: 0.8,1.32; stroke-dashoffset: 0; stroke: #000000; stroke-opacity: 0.5; stroke-width: 0.8"/>
     </g>
     <g id="line2d_10">
      <g>
       <use xlink:href="#m4f2276a405" x="335.108112" y="277.92" style="stroke: #000000; stroke-width: 0.8"/>
      </g>
     </g>
     <g id="text_5">
      <!-- 10.0 -->
      <g transform="translate(323.9753 292.518438) scale(0.1 -0.1)">
       <defs>
        <path id="DejaVuSans-31" d="M 794 531 
L 1825 531 
L 1825 4091 
L 703 3866 
L 703 4441 
L 1819 4666 
L 2450 4666 
L 2450 531 
L 3481 531 
L 3481 0 
L 794 0 
L 794 531 
z
" transform="scale(0.015625)"/>
       </defs>
       <use xlink:href="#DejaVuSans-31"/>
       <use xlink:href="#DejaVuSans-30" x="63.623047"/>
       <use xlink:href="#DejaVuSans-2e" x="127.246094"/>
       <use xlink:href="#DejaVuSans-30" x="159.033203"/>
      </g>
     </g>
    </g>
    <g id="xtick_6">
     <g id="line2d_11">
      <path d="M 409.259437 277.92 
L 409.259437 0.72 
" clip-path="url(#pd1b86f5cd2)" style="fill: none; stroke-dasharray: 0.8,1.32; stroke-dashoffset: 0; stroke: #000000; stroke-opacity: 0.5; stroke-width: 0.8"/>
     </g>
     <g id="line2d_12">
      <g>
       <use xlink:href="#m4f2276a405" x="409.259437" y="277.92" style="stroke: #000000; stroke-width: 0.8"/>
      </g>
     </g>
     <g id="text_6">
      <!-- 12.5 -->
      <g transform="translate(398.126625 292.518438) scale(0.1 -0.1)">
       <use xlink:href="#DejaVuSans-31"/>
       <use xlink:href="#DejaVuSans-32" x="63.623047"/>
       <use xlink:href="#DejaVuSans-2e" x="127.246094"/>
       <use xlink:href="#DejaVuSans-35" x="159.033203"/>
      </g>
     </g>
    </g>
    <g id="xtick_7">
     <g id="line2d_13">
      <path d="M 483.410762 277.92 
L 483.410762 0.72 
" clip-path="url(#pd1b86f5cd2)" style="fill: none; stroke-dasharray: 0.8,1.32; stroke-dashoffset: 0; stroke: #000000; stroke-opacity: 0.5; stroke-width: 0.8"/>
     </g>
     <g id="line2d_14">
      <g>
       <use xlink:href="#m4f2276a405" x="483.410762" y="277.92" style="stroke: #000000; stroke-width: 0.8"/>
      </g>
     </g>
     <g id="text_7">
      <!-- 15.0 -->
      <g transform="translate(472.27795 292.518438) scale(0.1 -0.1)">
       <use xlink:href="#DejaVuSans-31"/>
       <use xlink:href="#DejaVuSans-35" x="63.623047"/>
       <use xlink:href="#DejaVuSans-2e" x="127.246094"/>
       <use xlink:href="#DejaVuSans-30" x="159.033203"/>
      </g>
     </g>
    </g>
    <g id="xtick_8">
     <g id="line2d_15">
      <path d="M 557.562087 277.92 
L 557.562087 0.72 
" clip-path="url(#pd1b86f5cd2)" style="fill: none; stroke-dasharray: 0.8,1.32; stroke-dashoffset: 0; stroke: #000000; stroke-opacity: 0.5; stroke-width: 0.8"/>
     </g>
     <g id="line2d_16">
      <g>
       <use xlink:href="#m4f2276a405" x="557.562087" y="277.92" style="stroke: #000000; stroke-width: 0.8"/>
      </g>
     </g>
     <g id="text_8">
      <!-- 17.5 -->
      <g transform="translate(546.429274 292.518438) scale(0.1 -0.1)">
       <use xlink:href="#DejaVuSans-31"/>
       <use xlink:href="#DejaVuSans-37" x="63.623047"/>
       <use xlink:href="#DejaVuSans-2e" x="127.246094"/>
       <use xlink:href="#DejaVuSans-35" x="159.033203"/>
      </g>
     </g>
    </g>
    <g id="text_9">
     <!-- Zeit [s] -->
     <g transform="translate(299.556719 302.196563) scale(0.1 -0.1)">
      <defs>
       <path id="DejaVuSans-5a" d="M 359 4666 
L 4025 4666 
L 4025 4184 
L 1075 531 
L 4097 531 
L 4097 0 
L 288 0 
L 288 481 
L 3238 4134 
L 359 4134 
L 359 4666 
z
" transform="scale(0.015625)"/>
       <path id="DejaVuSans-65" d="M 3597 1894 
L 3597 1613 
L 953 1613 
Q 991 1019 1311 708 
Q 1631 397 2203 397 
Q 2534 397 2845 478 
Q 3156 559 3463 722 
L 3463 178 
Q 3153 47 2828 -22 
Q 2503 -91 2169 -91 
Q 1331 -91 842 396 
Q 353 884 353 1716 
Q 353 2575 817 3079 
Q 1281 3584 2069 3584 
Q 2775 3584 3186 3129 
Q 3597 2675 3597 1894 
z
M 3022 2063 
Q 3016 2534 2758 2815 
Q 2500 3097 2075 3097 
Q 1594 3097 1305 2825 
Q 1016 2553 972 2059 
L 3022 2063 
z
" transform="scale(0.015625)"/>
       <path id="DejaVuSans-69" d="M 603 3500 
L 1178 3500 
L 1178 0 
L 603 0 
L 603 3500 
z
M 603 4863 
L 1178 4863 
L 1178 4134 
L 603 4134 
L 603 4863 
z
" transform="scale(0.015625)"/>
       <path id="DejaVuSans-74" d="M 1172 4494 
L 1172 3500 
L 2356 3500 
L 2356 3053 
L 1172 3053 
L 1172 1153 
Q 1172 725 1289 603 
Q 1406 481 1766 481 
L 2356 481 
L 2356 0 
L 1766 0 
Q 1100 0 847 248 
Q 594 497 594 1153 
L 594 3053 
L 172 3053 
L 172 3500 
L 594 3500 
L 594 4494 
L 1172 4494 
z
" transform="scale(0.015625)"/>
       <path id="DejaVuSans-20" transform="scale(0.015625)"/>
       <path id="DejaVuSans-5b" d="M 550 4863 
L 1875 4863 
L 1875 4416 
L 1125 4416 
L 1125 -397 
L 1875 -397 
L 1875 -844 
L 550 -844 
L 550 4863 
z
" transform="scale(0.015625)"/>
       <path id="DejaVuSans-73" d="M 2834 3397 
L 2834 2853 
Q 2591 2978 2328 3040 
Q 2066 3103 1784 3103 
Q 1356 3103 1142 2972 
Q 928 2841 928 2578 
Q 928 2378 1081 2264 
Q 1234 2150 1697 2047 
L 1894 2003 
Q 2506 1872 2764 1633 
Q 3022 1394 3022 966 
Q 3022 478 2636 193 
Q 2250 -91 1575 -91 
Q 1294 -91 989 -36 
Q 684 19 347 128 
L 347 722 
Q 666 556 975 473 
Q 1284 391 1588 391 
Q 1994 391 2212 530 
Q 2431 669 2431 922 
Q 2431 1156 2273 1281 
Q 2116 1406 1581 1522 
L 1381 1569 
Q 847 1681 609 1914 
Q 372 2147 372 2553 
Q 372 3047 722 3315 
Q 1072 3584 1716 3584 
Q 2034 3584 2315 3537 
Q 2597 3491 2834 3397 
z
" transform="scale(0.015625)"/>
       <path id="DejaVuSans-5d" d="M 1947 4863 
L 1947 -844 
L 622 -844 
L 622 -397 
L 1369 -397 
L 1369 4416 
L 622 4416 
L 622 4863 
L 1947 4863 
z
" transform="scale(0.015625)"/>
      </defs>
      <use xlink:href="#DejaVuSans-5a"/>
      <use xlink:href="#DejaVuSans-65" x="68.505859"/>
      <use xlink:href="#DejaVuSans-69" x="130.029297"/>
      <use xlink:href="#DejaVuSans-74" x="157.8125"/>
      <use xlink:href="#DejaVuSans-20" x="197.021484"/>
      <use xlink:href="#DejaVuSans-5b" x="228.808594"/>
      <use xlink:href="#DejaVuSans-73" x="267.822266"/>
      <use xlink:href="#DejaVuSans-5d" x="319.921875"/>
     </g>
    </g>
   </g>
   <g id="matplotlib.axis_2">
    <g id="ytick_1">
     <g id="line2d_17">
      <path d="M 38.502813 271.109302 
L 596.502813 271.109302 
" clip-path="url(#pd1b86f5cd2)" style="fill: none; stroke-dasharray: 0.8,1.32; stroke-dashoffset: 0; stroke: #000000; stroke-opacity: 0.5; stroke-width: 0.8"/>
     </g>
     <g id="line2d_18">
      <defs>
       <path id="md688390d8b" d="M 0 0 
L -3.5 0 
" style="stroke: #000000; stroke-width: 0.8"/>
      </defs>
      <g>
       <use xlink:href="#md688390d8b" x="38.502813" y="271.109302" style="stroke: #000000; stroke-width: 0.8"/>
      </g>
     </g>
     <g id="text_10">
      <!-- −35 -->
      <g transform="translate(10.398125 274.90852) scale(0.1 -0.1)">
       <defs>
        <path id="DejaVuSans-2212" d="M 678 2272 
L 4684 2272 
L 4684 1741 
L 678 1741 
L 678 2272 
z
" transform="scale(0.015625)"/>
        <path id="DejaVuSans-33" d="M 2597 2516 
Q 3050 2419 3304 2112 
Q 3559 1806 3559 1356 
Q 3559 666 3084 287 
Q 2609 -91 1734 -91 
Q 1441 -91 1130 -33 
Q 819 25 488 141 
L 488 750 
Q 750 597 1062 519 
Q 1375 441 1716 441 
Q 2309 441 2620 675 
Q 2931 909 2931 1356 
Q 2931 1769 2642 2001 
Q 2353 2234 1838 2234 
L 1294 2234 
L 1294 2753 
L 1863 2753 
Q 2328 2753 2575 2939 
Q 2822 3125 2822 3475 
Q 2822 3834 2567 4026 
Q 2313 4219 1838 4219 
Q 1578 4219 1281 4162 
Q 984 4106 628 3988 
L 628 4550 
Q 988 4650 1302 4700 
Q 1616 4750 1894 4750 
Q 2613 4750 3031 4423 
Q 3450 4097 3450 3541 
Q 3450 3153 3228 2886 
Q 3006 2619 2597 2516 
z
" transform="scale(0.015625)"/>
       </defs>
       <use xlink:href="#DejaVuSans-2212"/>
       <use xlink:href="#DejaVuSans-33" x="83.789062"/>
       <use xlink:href="#DejaVuSans-35" x="147.412109"/>
      </g>
     </g>
    </g>
    <g id="ytick_2">
     <g id="line2d_19">
      <path d="M 38.502813 215.262077 
L 596.502813 215.262077 
" clip-path="url(#pd1b86f5cd2)" style="fill: none; stroke-dasharray: 0.8,1.32; stroke-dashoffset: 0; stroke: #000000; stroke-opacity: 0.5; stroke-width: 0.8"/>
     </g>
     <g id="line2d_20">
      <g>
       <use xlink:href="#md688390d8b" x="38.502813" y="215.262077" style="stroke: #000000; stroke-width: 0.8"/>
      </g>
     </g>
     <g id="text_11">
      <!-- −30 -->
      <g transform="translate(10.398125 219.061295) scale(0.1 -0.1)">
       <use xlink:href="#DejaVuSans-2212"/>
       <use xlink:href="#DejaVuSans-33" x="83.789062"/>
       <use xlink:href="#DejaVuSans-30" x="147.412109"/>
      </g>
     </g>
    </g>
    <g id="ytick_3">
     <g id="line2d_21">
      <path d="M 38.502813 159.414852 
L 596.502813 159.414852 
" clip-path="url(#pd1b86f5cd2)" style="fill: none; stroke-dasharray: 0.8,1.32; stroke-dashoffset: 0; stroke: #000000; stroke-opacity: 0.5; stroke-width: 0.8"/>
     </g>
     <g id="line2d_22">
      <g>
       <use xlink:href="#md688390d8b" x="38.502813" y="159.414852" style="stroke: #000000; stroke-width: 0.8"/>
      </g>
     </g>
     <g id="text_12">
      <!-- −25 -->
      <g transform="translate(10.398125 163.21407) scale(0.1 -0.1)">
       <use xlink:href="#DejaVuSans-2212"/>
       <use xlink:href="#DejaVuSans-32" x="83.789062"/>
       <use xlink:href="#DejaVuSans-35" x="147.412109"/>
      </g>
     </g>
    </g>
    <g id="ytick_4">
     <g id="line2d_23">
      <path d="M 38.502813 103.567627 
L 596.502813 103.567627 
" clip-path="url(#pd1b86f5cd2)" style="fill: none; stroke-dasharray: 0.8,1.32; stroke-dashoffset: 0; stroke: #000000; stroke-opacity: 0.5; stroke-width: 0.8"/>
     </g>
     <g id="line2d_24">
      <g>
       <use xlink:href="#md688390d8b" x="38.502813" y="103.567627" style="stroke: #000000; stroke-width: 0.8"/>
      </g>
     </g>
     <g id="text_13">
      <!-- −20 -->
      <g transform="translate(10.398125 107.366845) scale(0.1 -0.1)">
       <use xlink:href="#DejaVuSans-2212"/>
       <use xlink:href="#DejaVuSans-32" x="83.789062"/>
       <use xlink:href="#DejaVuSans-30" x="147.412109"/>
      </g>
     </g>
    </g>
    <g id="ytick_5">
     <g id="line2d_25">
      <path d="M 38.502813 47.720402 
L 596.502813 47.720402 
" clip-path="url(#pd1b86f5cd2)" style="fill: none; stroke-dasharray: 0.8,1.32; stroke-dashoffset: 0; stroke: #000000; stroke-opacity: 0.5; stroke-width: 0.8"/>
     </g>
     <g id="line2d_26">
      <g>
       <use xlink:href="#md688390d8b" x="38.502813" y="47.720402" style="stroke: #000000; stroke-width: 0.8"/>
      </g>
     </g>
     <g id="text_14">
      <!-- −15 -->
      <g transform="translate(10.398125 51.51962) scale(0.1 -0.1)">
       <use xlink:href="#DejaVuSans-2212"/>
       <use xlink:href="#DejaVuSans-31" x="83.789062"/>
       <use xlink:href="#DejaVuSans-35" x="147.412109"/>
      </g>
     </g>
    </g>
    <g id="text_15">
     <!-- Drehmoment [Nm] -->
     <g transform="translate(8.318438 186.465313) rotate(-90) scale(0.1 -0.1)">
      <defs>
       <path id="DejaVuSans-44" d="M 1259 4147 
L 1259 519 
L 2022 519 
Q 2988 519 3436 956 
Q 3884 1394 3884 2338 
Q 3884 3275 3436 3711 
Q 2988 4147 2022 4147 
L 1259 4147 
z
M 628 4666 
L 1925 4666 
Q 3281 4666 3915 4102 
Q 4550 3538 4550 2338 
Q 4550 1131 3912 565 
Q 3275 0 1925 0 
L 628 0 
L 628 4666 
z
" transform="scale(0.015625)"/>
       <path id="DejaVuSans-72" d="M 2631 2963 
Q 2534 3019 2420 3045 
Q 2306 3072 2169 3072 
Q 1681 3072 1420 2755 
Q 1159 2438 1159 1844 
L 1159 0 
L 581 0 
L 581 3500 
L 1159 3500 
L 1159 2956 
Q 1341 3275 1631 3429 
Q 1922 3584 2338 3584 
Q 2397 3584 2469 3576 
Q 2541 3569 2628 3553 
L 2631 2963 
z
" transform="scale(0.015625)"/>
       <path id="DejaVuSans-68" d="M 3513 2113 
L 3513 0 
L 2938 0 
L 2938 2094 
Q 2938 2591 2744 2837 
Q 2550 3084 2163 3084 
Q 1697 3084 1428 2787 
Q 1159 2491 1159 1978 
L 1159 0 
L 581 0 
L 581 4863 
L 1159 4863 
L 1159 2956 
Q 1366 3272 1645 3428 
Q 1925 3584 2291 3584 
Q 2894 3584 3203 3211 
Q 3513 2838 3513 2113 
z
" transform="scale(0.015625)"/>
       <path id="DejaVuSans-6d" d="M 3328 2828 
Q 3544 3216 3844 3400 
Q 4144 3584 4550 3584 
Q 5097 3584 5394 3201 
Q 5691 2819 5691 2113 
L 5691 0 
L 5113 0 
L 5113 2094 
Q 5113 2597 4934 2840 
Q 4756 3084 4391 3084 
Q 3944 3084 3684 2787 
Q 3425 2491 3425 1978 
L 3425 0 
L 2847 0 
L 2847 2094 
Q 2847 2600 2669 2842 
Q 2491 3084 2119 3084 
Q 1678 3084 1418 2786 
Q 1159 2488 1159 1978 
L 1159 0 
L 581 0 
L 581 3500 
L 1159 3500 
L 1159 2956 
Q 1356 3278 1631 3431 
Q 1906 3584 2284 3584 
Q 2666 3584 2933 3390 
Q 3200 3197 3328 2828 
z
" transform="scale(0.015625)"/>
       <path id="DejaVuSans-6f" d="M 1959 3097 
Q 1497 3097 1228 2736 
Q 959 2375 959 1747 
Q 959 1119 1226 758 
Q 1494 397 1959 397 
Q 2419 397 2687 759 
Q 2956 1122 2956 1747 
Q 2956 2369 2687 2733 
Q 2419 3097 1959 3097 
z
M 1959 3584 
Q 2709 3584 3137 3096 
Q 3566 2609 3566 1747 
Q 3566 888 3137 398 
Q 2709 -91 1959 -91 
Q 1206 -91 779 398 
Q 353 888 353 1747 
Q 353 2609 779 3096 
Q 1206 3584 1959 3584 
z
" transform="scale(0.015625)"/>
       <path id="DejaVuSans-6e" d="M 3513 2113 
L 3513 0 
L 2938 0 
L 2938 2094 
Q 2938 2591 2744 2837 
Q 2550 3084 2163 3084 
Q 1697 3084 1428 2787 
Q 1159 2491 1159 1978 
L 1159 0 
L 581 0 
L 581 3500 
L 1159 3500 
L 1159 2956 
Q 1366 3272 1645 3428 
Q 1925 3584 2291 3584 
Q 2894 3584 3203 3211 
Q 3513 2838 3513 2113 
z
" transform="scale(0.015625)"/>
       <path id="DejaVuSans-4e" d="M 628 4666 
L 1478 4666 
L 3547 763 
L 3547 4666 
L 4159 4666 
L 4159 0 
L 3309 0 
L 1241 3903 
L 1241 0 
L 628 0 
L 628 4666 
z
" transform="scale(0.015625)"/>
      </defs>
      <use xlink:href="#DejaVuSans-44"/>
      <use xlink:href="#DejaVuSans-72" x="77.001953"/>
      <use xlink:href="#DejaVuSans-65" x="115.865234"/>
      <use xlink:href="#DejaVuSans-68" x="177.388672"/>
      <use xlink:href="#DejaVuSans-6d" x="240.767578"/>
      <use xlink:href="#DejaVuSans-6f" x="338.179688"/>
      <use xlink:href="#DejaVuSans-6d" x="399.361328"/>
      <use xlink:href="#DejaVuSans-65" x="496.773438"/>
      <use xlink:href="#DejaVuSans-6e" x="558.296875"/>
      <use xlink:href="#DejaVuSans-74" x="621.675781"/>
      <use xlink:href="#DejaVuSans-20" x="660.884766"/>
      <use xlink:href="#DejaVuSans-5b" x="692.671875"/>
      <use xlink:href="#DejaVuSans-4e" x="731.685547"/>
      <use xlink:href="#DejaVuSans-6d" x="806.490234"/>
      <use xlink:href="#DejaVuSans-5d" x="903.902344"/>
     </g>
    </g>
   </g>
   <g id="line2d_27">
    <path d="M 38.502813 64.078598 
L 223.554257 64.048623 
L 223.732051 63.940208 
L 224.048213 63.06064 
L 224.976617 55.145983 
L 225.274355 53.74396 
L 225.75103 53.161433 
L 225.988789 53.260329 
L 226.525541 53.969467 
L 226.707352 55.16257 
L 227.004147 56.055422 
L 227.184451 55.530479 
L 227.422827 56.205583 
L 227.479239 55.163322 
L 227.717393 56.573837 
L 227.956897 57.24582 
L 228.194151 55.884118 
L 228.730952 57.317996 
L 228.972776 56.361702 
L 229.211707 56.17452 
L 229.507621 55.179576 
L 229.86666 55.226093 
L 229.998628 55.12996 
L 230.173069 52.600388 
L 230.705939 56.508372 
L 230.945101 53.570746 
L 231.242363 57.08907 
L 231.630147 57.717814 
L 231.663719 58.920316 
L 232.136825 56.186639 
L 232.316057 52.149847 
L 232.434509 57.643124 
L 232.915984 55.411172 
L 233.208451 51.934309 
L 233.387885 57.470459 
L 233.864567 53.083849 
L 234.163673 59.965053 
L 234.459871 54.587033 
L 234.638675 55.017856 
L 234.877477 58.193764 
L 235.11598 59.374764 
L 235.432665 56.527592 
L 235.72695 58.928136 
L 235.906757 54.483255 
L 236.084479 59.476432 
L 236.384217 60.812901 
L 236.621287 54.075139 
L 236.919839 53.499254 
L 237.157824 56.416714 
L 237.395703 51.524252 
L 237.695023 51.156958 
L 237.874902 59.330934 
L 238.290534 57.048865 
L 238.35076 57.242277 
L 238.589264 58.500854 
L 238.828455 61.618189 
L 239.065068 50.96354 
L 239.305311 51.371056 
L 239.549082 53.765541 
L 239.840779 49.574969 
L 240.023237 59.775991 
L 240.317181 55.304041 
L 240.614551 54.79492 
L 240.793797 49.360287 
L 241.151839 58.786766 
L 241.389884 57.595154 
L 241.569338 53.589165 
L 242.044896 59.43121 
L 242.344062 55.702082 
L 242.641746 55.40963 
L 242.939843 53.465537 
L 243.118815 60.424525 
L 243.41606 63.451569 
L 243.539421 57.630404 
L 243.836562 58.986537 
L 244.071675 59.397848 
L 244.531837 55.582009 
L 244.760099 59.291085 
L 244.998784 56.583587 
L 245.741822 50.623797 
L 246.202726 56.712065 
L 246.337942 69.347387 
L 246.460816 65.355376 
L 246.754794 51.413707 
L 246.994239 61.650077 
L 247.232263 64.422328 
L 247.469526 48.94426 
L 247.708076 57.175853 
L 248.125328 65.707644 
L 248.363697 61.89931 
L 248.543255 64.90296 
L 248.848689 46.713983 
L 249.020847 63.925701 
L 249.218981 57.056494 
L 249.530817 58.852631 
L 249.796994 56.456944 
L 249.91722 59.487308 
L 250.176782 60.079212 
L 250.454559 54.586503 
L 250.69308 54.694286 
L 250.990238 56.40524 
L 251.171156 52.73724 
L 251.466717 55.355149 
L 251.705896 51.314511 
L 252.004037 51.873358 
L 252.243865 52.846977 
L 252.425758 47.936098 
L 253.137428 58.247244 
L 253.437262 51.349285 
L 253.732822 54.800557 
L 253.912799 52.629446 
L 254.151034 57.291886 
L 254.390353 71.329819 
L 254.866171 45.171722 
L 255.283195 75.412268 
L 255.702331 55.256408 
L 255.879236 55.808265 
L 256.118256 65.530067 
L 256.357 62.767951 
L 256.596713 53.026408 
L 257.013573 50.32606 
L 257.134596 61.946969 
L 257.430682 58.323742 
L 257.61066 49.624195 
L 257.848051 58.132889 
L 258.20509 65.996352 
L 258.445132 51.779022 
L 258.577231 61.226254 
L 258.859825 72.323967 
L 259.158214 68.151695 
L 259.730147 58.66845 
L 259.876027 46.596147 
L 260.173233 66.324747 
L 260.294447 59.187897 
L 260.591149 52.491117 
L 260.949329 30.183475 
L 261.490067 64.865472 
L 261.602805 68.320693 
L 261.975746 59.497 
L 262.086563 60.415486 
L 262.328785 66.183405 
L 262.55622 60.762783 
L 262.794199 57.809515 
L 263.151773 73.658058 
L 263.330837 63.514834 
L 263.7477 47.847164 
L 263.866901 56.260095 
L 264.105397 52.327644 
L 264.285849 72.356775 
L 264.643203 51.449161 
L 264.881961 54.841927 
L 265.058864 52.633151 
L 265.299527 55.995961 
L 265.714773 74.407132 
L 265.955612 70.418636 
L 266.252174 55.96596 
L 266.48981 59.834404 
L 267.09442 59.183963 
L 267.324829 64.696694 
L 267.563622 48.619282 
L 267.759853 58.937438 
L 268.099501 61.511823 
L 268.338011 68.478033 
L 268.756773 59.153057 
L 269.017167 62.730852 
L 269.233644 72.798489 
L 269.530633 73.372157 
L 269.887378 68.332777 
L 270.125731 69.0559 
L 270.245132 59.194594 
L 270.661966 59.356471 
L 270.723 63.25222 
L 270.960397 67.341316 
L 271.318588 70.400587 
L 271.561653 58.232695 
L 271.735812 71.799358 
L 271.975033 56.135713 
L 272.454512 72.103593 
L 272.689423 51.461754 
L 272.927961 77.106497 
L 273.17533 75.082941 
L 273.643316 62.026326 
L 273.969451 57.694738 
L 274.219372 58.005868 
L 274.658263 66.728625 
L 274.845561 62.423816 
L 275.037647 61.681002 
L 275.313574 55.879163 
L 275.437851 68.728547 
L 275.791628 67.438969 
L 275.91339 61.366219 
L 276.20821 56.078712 
L 276.393789 73.819441 
L 276.812326 62.323886 
L 277.049078 79.120429 
L 277.162083 64.517132 
L 277.590469 60.036934 
L 277.779075 73.338702 
L 277.939041 51.933917 
L 278.12053 49.799354 
L 278.475781 77.016183 
L 278.624491 66.474652 
L 278.955747 70.191493 
L 279.193852 69.000328 
L 279.431173 51.710925 
L 279.612332 79.689338 
L 279.907556 60.603669 
L 280.086959 62.427343 
L 280.384925 48.606749 
L 280.623809 66.483046 
L 280.980465 65.891229 
L 281.1601 60.343695 
L 281.457142 70.108509 
L 281.594071 79.865956 
L 281.873928 56.451456 
L 282.056615 75.641295 
L 282.113657 61.95562 
L 282.351481 66.91875 
L 282.533731 61.859493 
L 282.828435 64.200042 
L 283.068365 62.645463 
L 283.306338 65.20085 
L 283.66432 40.301416 
L 283.961917 64.478008 
L 284.088847 85.809167 
L 284.319934 65.613949 
L 284.563335 54.778145 
L 284.856401 54.68063 
L 285.034625 78.117652 
L 285.276257 65.556265 
L 285.810779 62.021332 
L 286.048783 46.93428 
L 286.292195 57.704994 
L 286.526687 76.200911 
L 286.769413 74.256078 
L 287.007247 87.610529 
L 287.262421 61.661749 
L 287.484106 74.500608 
L 287.84259 63.77156 
L 288.024509 48.687528 
L 288.259375 61.801448 
L 288.497522 54.151017 
L 288.736219 53.908377 
L 289.035046 64.168021 
L 289.24077 66.819117 
L 289.455069 56.74507 
L 289.811148 57.776981 
L 290.227704 39.465885 
L 290.347633 69.671059 
L 290.465879 44.946887 
L 290.883363 85.275028 
L 290.948755 48.632044 
L 291.225488 60.599488 
L 291.495528 80.0325 
L 291.679836 58.746501 
L 292.13465 92.016494 
L 292.194976 61.25748 
L 292.432576 57.846451 
L 292.969282 71.600111 
L 293.207555 72.849924 
L 293.504983 64.536238 
L 293.689059 70.28102 
L 293.924229 87.270159 
L 294.221147 85.787818 
L 294.466574 75.472183 
L 294.698997 92.087247 
L 294.878318 68.955055 
L 295.173661 74.443126 
L 295.4127 57.2484 
L 295.717231 54.127937 
L 295.948103 84.930324 
L 296.426372 62.646382 
L 296.607631 61.709002 
L 296.961851 66.930437 
L 297.152314 77.456575 
L 297.438974 60.052982 
L 297.620443 80.979392 
L 297.929888 66.808907 
L 298.095365 64.585082 
L 298.335465 62.869508 
L 298.632709 77.345883 
L 299.108436 60.370017 
L 299.60655 62.268636 
L 299.827215 58.887787 
L 300.182774 77.302036 
L 300.361705 57.743627 
L 300.600166 75.80843 
L 300.854175 62.850631 
L 301.079765 78.135356 
L 301.494049 43.711634 
L 301.613328 61.152854 
L 301.911255 45.632478 
L 302.09056 71.541271 
L 302.447614 64.988075 
L 302.80676 50.818608 
L 303.043886 67.652382 
L 303.341324 64.356319 
L 303.54503 70.079117 
L 303.826118 61.053299 
L 304.41641 70.940741 
L 304.595673 61.062113 
L 304.95287 65.619799 
L 305.252232 77.30902 
L 305.31073 71.112101 
L 305.548602 70.279768 
L 305.846457 72.146177 
L 306.02906 70.976571 
L 306.385283 72.03183 
L 306.562027 81.043151 
L 306.801509 77.496635 
L 306.996024 63.919083 
L 307.281744 66.976308 
L 308.299126 73.377377 
L 308.537897 51.839399 
L 308.839248 70.815402 
L 309.086734 68.01795 
L 309.313549 74.7594 
L 309.455479 69.635451 
L 309.930311 78.468279 
L 310.28921 63.195098 
L 310.527271 83.458711 
L 310.708003 56.357396 
L 311.063774 61.522405 
L 311.242711 60.568981 
L 311.611583 52.26644 
L 311.781527 77.774819 
L 312.017687 71.868711 
L 312.375319 55.059812 
L 312.501747 72.067618 
L 312.732977 68.439712 
L 313.090224 66.533948 
L 313.212638 272.589231 
L 313.805492 246.010734 
L 314.235778 114.106018 
L 314.58015 111.651085 
L 314.701814 83.819596 
L 314.938888 66.221881 
L 315.237717 63.888879 
L 315.682591 55.729148 
L 316.016983 55.685373 
L 316.33419 59.084062 
L 316.452034 32.314897 
L 316.695304 53.788404 
L 316.995565 43.350536 
L 317.110027 62.16251 
L 317.410895 56.343941 
L 317.763281 64.45462 
L 318.060545 64.130313 
L 318.180102 65.10107 
L 318.359189 69.013619 
L 318.718927 52.112511 
L 318.959086 52.735946 
L 319.49789 75.227921 
L 319.614865 65.436533 
L 319.910478 80.721771 
L 320.14826 66.446892 
L 320.624731 60.597741 
L 320.864807 64.09506 
L 321.102007 48.632785 
L 321.340325 59.546147 
L 321.584298 61.962438 
L 321.878065 44.447551 
L 322.357206 63.122663 
L 322.592008 65.637349 
L 322.840479 63.17766 
L 323.070052 64.588727 
L 323.310491 64.522654 
L 323.548541 76.530809 
L 323.963903 75.346566 
L 324.083748 61.491542 
L 324.50419 71.628728 
L 324.569671 54.801062 
L 324.802157 65.135587 
L 325.098086 64.412517 
L 325.454334 63.94582 
L 325.633327 61.680391 
L 325.812051 65.323771 
L 326.051482 51.203848 
L 326.294583 54.164083 
L 326.530758 62.27043 
L 326.852363 56.738779 
L 327.242305 66.610615 
L 327.301953 61.453262 
L 327.540635 64.916155 
L 327.778986 63.888798 
L 328.020226 66.680177 
L 328.256505 64.37193 
L 328.495475 50.880675 
L 328.794246 72.274008 
L 329.171816 63.345339 
L 329.275333 70.449213 
L 329.508337 76.47414 
L 329.745474 55.579389 
L 330.162941 64.349748 
L 330.282264 64.106872 
L 330.580948 63.919581 
L 330.761294 71.370035 
L 331.057073 65.490028 
L 331.312423 73.570097 
L 331.798258 59.948098 
L 332.018819 67.512726 
L 332.487919 65.396989 
L 332.725398 67.243108 
L 333.024265 64.059322 
L 333.267721 68.766549 
L 333.502737 70.345688 
L 333.741417 61.557288 
L 333.980504 64.933914 
L 334.226045 71.678168 
L 334.581092 57.24067 
L 335.022935 65.508116 
L 335.231468 65.00912 
L 335.709664 76.767134 
L 335.971918 73.007651 
L 336.184852 61.218061 
L 336.423478 60.424144 
L 336.663453 60.577568 
L 336.900926 67.771725 
L 337.317585 63.232178 
L 337.437428 59.789281 
L 337.736454 66.967171 
L 337.916816 64.092594 
L 338.161358 51.477289 
L 338.54477 71.551718 
L 338.658091 61.191729 
L 338.944233 64.203832 
L 338.991294 65.999824 
L 339.29103 51.201774 
L 339.410048 66.355219 
L 339.825811 64.560079 
L 339.945144 65.656281 
L 340.12328 64.130354 
L 340.421547 59.363974 
L 340.719728 74.242295 
L 340.898441 66.485402 
L 341.13678 63.682494 
L 341.375437 65.775471 
L 341.615004 60.387841 
L 341.917182 70.176226 
L 342.091832 70.463463 
L 342.390217 60.136741 
L 342.592547 63.013746 
L 342.865715 63.825216 
L 343.224194 74.760485 
L 343.364331 64.092044 
L 343.582206 64.093099 
L 343.819625 62.711024 
L 344.2367 65.068357 
L 344.355474 60.144794 
L 344.835051 68.214509 
L 345.073439 65.292333 
L 345.381281 67.021554 
L 345.609531 70.242856 
L 345.793405 56.938891 
L 346.084919 66.414615 
L 346.386542 66.328417 
L 346.623265 55.236193 
L 346.800697 69.902126 
L 347.046882 63.184695 
L 347.336523 60.546764 
L 347.633595 62.811657 
L 347.812551 66.042674 
L 348.051726 64.346257 
L 348.470912 62.667734 
L 348.531021 64.753195 
L 348.830156 64.455133 
L 349.025631 63.855803 
L 349.25029 70.290579 
L 349.603408 63.71574 
L 349.8421 64.005664 
L 350.139628 66.600686 
L 350.557034 47.825792 
L 350.855204 67.645852 
L 351.033535 66.371015 
L 351.272515 63.689015 
L 351.510253 50.793446 
L 351.86755 76.954256 
L 352.048182 62.26257 
L 352.34541 68.079316 
L 352.643325 62.572232 
L 352.763199 65.643403 
L 353.001631 75.620284 
L 353.358236 61.642926 
L 353.777296 63.161802 
L 354.192068 53.224446 
L 354.49016 70.727755 
L 354.729169 63.941157 
L 354.967142 65.323284 
L 355.26572 63.283902 
L 355.563366 64.092335 
L 355.691361 74.60102 
L 355.993376 64.145406 
L 356.230389 63.97483 
L 356.695564 75.474374 
L 357.11492 74.311224 
L 357.232346 60.916564 
L 357.414082 64.86482 
L 357.768024 63.192086 
L 358.067321 65.36298 
L 358.200121 68.658726 
L 358.619507 64.09267 
L 358.726755 69.800145 
L 358.964857 70.388937 
L 359.203431 62.517765 
L 359.448191 62.58585 
L 359.739861 64.283694 
L 359.918637 63.041919 
L 360.223373 67.219396 
L 360.464925 73.216199 
L 360.754514 53.11687 
L 360.876193 71.556545 
L 361.129106 65.301583 
L 361.415503 70.601622 
L 361.661674 63.636826 
L 361.887082 64.184257 
L 362.185637 66.380587 
L 362.424082 59.348997 
L 362.662654 63.354685 
L 362.950189 71.014912 
L 363.20353 51.186988 
L 363.423447 64.923564 
L 363.622003 62.47566 
L 363.916371 74.849676 
L 364.393153 64.500545 
L 364.630544 62.836 
L 364.92917 65.93629 
L 365.107627 63.88122 
L 365.345698 65.87184 
L 365.643635 49.612315 
L 365.941582 63.245736 
L 366.120566 62.044505 
L 366.430486 74.531336 
L 366.661699 64.092286 
L 366.95586 64.092474 
L 367.137644 64.536174 
L 367.313284 65.96789 
L 367.613202 64.092797 
L 367.848153 69.770354 
L 368.164973 70.386239 
L 368.328014 61.557128 
L 368.629685 73.421652 
L 368.92628 64.039198 
L 369.113805 65.673757 
L 369.34484 64.799336 
L 369.529356 60.978283 
L 369.821758 61.485213 
L 370.240307 48.558663 
L 370.360723 68.048403 
L 370.778089 62.710858 
L 371.015218 65.023499 
L 371.312315 74.111425 
L 371.555098 65.88787 
L 371.789135 65.547612 
L 372.027824 63.324637 
L 372.325578 65.272315 
L 372.861574 72.316122 
L 373.397043 62.534536 
L 373.93445 75.217458 
L 373.993192 41.704737 
L 374.356468 62.284257 
L 374.64956 66.476703 
L 374.71244 65.38569 
L 375.080509 65.132558 
L 375.245909 62.980528 
L 375.486534 69.807224 
L 375.841426 63.164839 
L 376.021182 63.972305 
L 376.325316 69.289094 
L 376.501063 49.177376 
L 376.735908 62.367523 
L 377.275259 62.970103 
L 377.454122 76.773269 
L 377.691085 75.199779 
L 377.97089 61.968572 
L 378.467507 64.092539 
L 378.705786 63.92025 
L 379.003346 75.105274 
L 379.182787 63.809967 
L 379.541591 66.284723 
L 379.77876 57.373184 
L 379.957593 61.0352 
L 380.315476 62.447675 
L 380.43452 68.102982 
L 380.67377 67.44513 
L 380.971538 68.536589 
L 381.209422 63.519919 
L 381.566802 63.246012 
L 381.744983 65.001935 
L 382.170296 63.905059 
L 382.401177 59.395318 
L 382.640935 69.862614 
L 382.938268 61.659322 
L 383.116642 65.924739 
L 383.414778 63.300728 
L 383.653191 64.030998 
L 383.891272 72.638006 
L 384.130172 63.034445 
L 384.36784 61.317697 
L 385.141968 74.922163 
L 385.442062 64.543563 
L 385.737779 63.149221 
L 385.982328 55.72388 
L 386.154941 73.114997 
L 386.572481 63.799553 
L 386.633083 64.738791 
L 386.871953 65.511644 
L 387.288124 63.914123 
L 387.408358 77.035225 
L 387.704159 55.333991 
L 387.883735 65.007967 
L 388.12156 64.62601 
L 388.360572 74.237992 
L 388.83674 63.784212 
L 389.078696 62.266156 
L 389.373409 64.783707 
L 389.673069 63.981176 
L 389.731908 63.316512 
L 389.85151 64.091936 
L 390.209139 64.093638 
L 390.327434 69.406908 
L 390.566718 62.34786 
L 390.866233 48.574227 
L 391.578394 63.623377 
L 391.956832 63.728411 
L 392.061414 65.018377 
L 392.294363 58.211993 
L 392.534085 72.870914 
L 392.832412 66.82187 
L 393.014287 62.939172 
L 393.427847 74.302807 
L 393.65145 56.124458 
L 393.785792 62.491929 
L 394.023607 62.517632 
L 394.261973 63.414198 
L 394.507191 63.104269 
L 394.798172 62.205861 
L 395.156539 66.703247 
L 395.275553 72.906806 
L 395.574048 67.57556 
L 395.817442 66.124623 
L 396.050757 69.548746 
L 396.289007 65.719399 
L 396.468688 65.134007 
L 396.709418 62.865065 
L 397.006497 61.942775 
L 397.24286 63.027649 
L 397.480824 71.6255 
L 397.839129 63.860839 
L 398.01748 67.170017 
L 398.255879 65.049271 
L 398.493969 74.139488 
L 398.732782 63.922453 
L 399.032184 63.252875 
L 399.38968 66.598238 
L 399.629341 66.97063 
L 399.867123 52.395617 
L 399.986143 71.555295 
L 400.464749 61.454594 
L 400.710246 68.987483 
L 401.000306 71.493413 
L 401.240795 62.474799 
L 401.476641 61.310697 
L 401.775515 65.354354 
L 401.955105 62.826041 
L 402.253688 49.687793 
L 402.431344 70.296048 
L 402.669635 63.192999 
L 402.908526 64.235056 
L 403.206332 67.133825 
L 403.397622 53.65602 
L 403.633589 63.537891 
L 403.922551 65.854381 
L 404.402506 61.774797 
L 404.641312 67.842674 
L 404.947887 51.569589 
L 405.175669 64.872894 
L 405.385104 62.145521 
L 405.65268 60.614491 
L 405.894417 49.898216 
L 406.132636 62.804448 
L 406.426561 62.417058 
L 406.667313 66.817704 
L 406.963223 64.932932 
L 407.144113 47.150118 
L 407.380891 49.559882 
L 407.619993 65.89393 
L 407.860801 64.580541 
L 408.217822 68.891389 
L 408.398363 47.652693 
L 408.636507 63.89123 
L 408.917998 64.299734 
L 409.234688 61.872576 
L 409.470635 71.478464 
L 409.589722 51.804111 
L 409.829013 50.312539 
L 410.126347 65.812547 
L 410.42592 65.100476 
L 410.606015 60.759318 
L 410.844374 68.131656 
L 411.143152 64.317027 
L 411.320402 65.573532 
L 411.619643 65.199228 
L 411.857209 60.258446 
L 412.096215 75.439515 
L 412.512689 64.092684 
L 412.58546 65.891559 
L 412.87158 63.648273 
L 413.062343 59.094239 
L 413.456757 71.97005 
L 413.584819 60.176597 
L 413.81476 63.970514 
L 414.11483 65.704296 
L 414.472681 65.236053 
L 414.533583 74.350335 
L 414.830286 61.621485 
L 415.068038 61.941477 
L 415.309724 63.416048 
L 415.559664 64.093615 
L 415.96323 61.660011 
L 416.023198 62.540837 
L 416.321581 61.31768 
L 416.563927 64.410172 
L 416.805148 58.129572 
L 417.002271 68.214764 
L 417.276707 58.143377 
L 417.756951 64.878243 
L 418.054464 66.175909 
L 418.471725 63.805749 
L 418.530943 65.015276 
L 418.770431 60.184282 
L 419.126668 63.232736 
L 419.305279 71.400789 
L 419.487583 71.090615 
L 419.724077 72.925236 
L 419.962564 64.757498 
L 420.281437 64.027993 
L 420.501517 65.137175 
L 420.738015 55.836054 
L 420.975057 64.640137 
L 421.214128 63.420202 
L 421.512226 64.678143 
L 421.693249 62.327824 
L 422.225812 59.916432 
L 422.234324 157.770844 
L 422.468961 62.67431 
L 422.825214 73.591924 
L 423.004989 69.78754 
L 423.252127 69.416386 
L 423.484338 62.825029 
L 423.840978 62.589822 
L 423.960579 70.519604 
L 424.145321 62.935688 
L 424.43705 60.852247 
L 424.675708 64.091565 
L 424.915208 63.36327 
L 425.155055 61.053298 
L 425.574673 48.541071 
L 425.629286 74.489947 
L 425.988437 64.595539 
L 426.172027 65.448268 
L 426.40654 63.997464 
L 426.64547 63.73939 
L 427.065099 64.322282 
L 427.190077 69.266373 
L 427.445399 62.976504 
L 427.659166 73.537349 
L 427.90644 72.257464 
L 427.958088 60.607043 
L 428.19698 55.760304 
L 428.436409 64.125805 
L 428.619145 60.79763 
L 428.8559 64.658418 
L 429.151322 64.227123 
L 429.628082 47.203821 
L 430.10485 76.536007 
L 430.344322 77.582254 
L 430.903823 63.780941 
L 431.121983 63.240198 
L 431.357652 18.908003 
L 431.597523 8.560343 
L 431.843497 30.628744 
L 432.095657 38.131662 
L 432.328044 37.011981 
L 432.561897 40.379596 
L 432.821237 54.733857 
L 433.156978 60.439343 
L 433.463552 61.922434 
L 433.594031 64.483195 
L 433.87843 61.640899 
L 434.121676 61.791191 
L 434.414608 64.227539 
L 434.534949 69.895523 
L 434.776173 70.499743 
L 435.198864 72.46423 
L 435.318081 61.261519 
L 435.54992 63.38942 
L 435.793016 67.627613 
L 436.163582 58.379498 
L 436.324342 58.660514 
L 437.100266 67.393137 
L 437.400723 57.837016 
L 437.640155 73.897899 
L 438.242412 53.049977 
L 438.507695 60.293733 
L 438.778576 56.231362 
L 439.093849 64.261888 
L 439.259491 77.59075 
L 439.609454 67.321619 
L 439.813723 70.269602 
L 440.027646 66.351941 
L 440.326857 67.565714 
L 440.505242 56.911495 
L 440.743769 58.875816 
L 440.985603 56.96322 
L 441.360449 70.739739 
L 441.460589 70.499304 
L 441.996582 59.846542 
L 442.261655 67.542101 
L 442.476381 66.788448 
L 443.119643 61.083465 
L 443.306995 56.160353 
L 443.537398 80.836372 
L 443.835364 55.850319 
L 444.01571 61.809747 
L 444.193965 62.734911 
L 444.670741 71.517282 
L 445.029606 55.433438 
L 445.21114 58.250594 
L 445.566243 71.123073 
L 445.69185 49.206317 
L 446.223006 65.670395 
L 446.46149 63.32124 
L 446.703529 69.1966 
L 446.93948 62.43266 
L 447.182432 60.949451 
L 447.4174 61.313501 
L 447.656135 73.660105 
L 447.904892 63.211115 
L 448.138367 71.740687 
L 448.437338 58.578185 
L 448.625267 65.387281 
L 448.91479 65.827472 
L 449.152725 65.308435 
L 449.392189 70.69633 
L 449.808343 61.017785 
L 449.89612 65.07818 
L 450.16705 55.73023 
L 450.46407 58.742062 
L 450.761942 65.835709 
L 450.94209 63.484395 
L 451.180519 74.674932 
L 451.425902 62.276521 
L 451.658653 63.485352 
L 452.077357 53.796437 
L 452.326715 66.177888 
L 452.613173 59.509633 
L 452.864845 63.990274 
L 453.098099 75.246089 
L 453.469682 64.516736 
L 453.632802 73.849935 
L 453.809319 58.319349 
L 454.134366 56.531764 
L 454.345201 77.355066 
L 454.765606 63.517201 
L 454.847127 69.740234 
L 455.071869 61.218044 
L 455.300727 62.177297 
L 455.539853 69.727555 
L 455.961335 63.279308 
L 456.150748 53.963753 
L 456.387019 71.665926 
L 456.566905 76.236087 
L 456.984034 61.706415 
L 457.044693 70.778002 
L 457.462645 58.102389 
L 457.762486 60.742143 
L 458.176246 76.225142 
L 458.295734 59.891049 
L 458.535771 68.029164 
L 458.772737 61.345967 
L 459.18988 68.082259 
L 459.309275 63.100024 
L 459.548312 67.972756 
L 459.792529 65.856193 
L 459.846799 63.036664 
L 460.026983 68.461409 
L 460.264394 86.300412 
L 460.505547 60.916907 
L 460.801349 61.702794 
L 460.981197 64.536371 
L 461.300883 65.036242 
L 461.461133 60.039504 
L 461.759676 77.018318 
L 461.997667 60.630871 
L 462.240011 67.000933 
L 462.535859 59.110969 
L 462.954361 75.03528 
L 463.252644 59.429488 
L 463.439137 67.911924 
L 463.848593 67.310359 
L 463.995751 60.769324 
L 464.210024 66.663043 
L 464.468285 66.558065 
L 464.68398 65.847901 
L 464.923343 60.24844 
L 465.170704 60.159539 
L 465.469677 72.859042 
L 465.710789 63.945401 
L 466.009353 65.329086 
L 466.243917 62.571157 
L 466.483619 66.662391 
L 466.663185 59.190706 
L 466.961408 59.91061 
L 467.199234 61.107997 
L 467.597038 65.954926 
L 467.744427 60.004525 
L 467.921045 72.763983 
L 468.311702 61.574818 
L 468.454257 61.326363 
L 468.761166 65.872176 
L 468.931187 61.715776 
L 469.179483 61.825135 
L 469.542461 60.33219 
L 469.64942 56.624533 
L 469.893371 55.988412 
L 470.128335 69.127771 
L 470.435389 70.790012 
L 470.683137 65.527979 
L 470.906718 72.645088 
L 471.143739 64.925888 
L 471.389817 72.862031 
L 471.682015 68.62039 
L 471.865224 56.297714 
L 472.16172 58.544628 
L 472.456786 64.040746 
L 472.636186 59.004013 
L 473.054076 69.07395 
L 473.400235 60.179234 
L 473.868197 70.029986 
L 474.170263 51.909188 
L 474.354868 73.245047 
L 474.645427 70.540145 
L 474.949827 61.340329 
L 475.125654 72.008762 
L 475.315542 71.67166 
L 475.601585 60.955836 
L 475.840459 62.882864 
L 476.079329 74.71103 
L 476.317061 74.976209 
L 476.555932 60.241693 
L 476.795462 80.561116 
L 477.212458 74.237919 
L 477.361592 52.650818 
L 477.749946 71.286977 
L 477.868828 58.158283 
L 478.107403 69.898001 
L 478.345862 55.988749 
L 478.643526 70.001377 
L 478.775738 63.505551 
L 479.035221 59.680279 
L 479.305237 75.183709 
L 479.600228 68.025402 
L 479.798874 72.559165 
L 480.01865 69.262203 
L 480.259337 58.492421 
L 480.639147 61.627275 
L 480.797255 60.179108 
L 481.032858 74.547049 
L 481.30086 61.567844 
L 481.594462 64.608558 
L 481.817167 65.479515 
L 482.112202 72.544197 
L 482.54011 57.074764 
L 482.796157 71.519314 
L 483.087039 63.23651 
L 483.208624 74.065534 
L 483.500877 63.091777 
L 483.799178 62.128442 
L 484.097273 64.711454 
L 484.216787 59.849834 
L 484.514676 65.99998 
L 484.761105 80.367517 
L 485.230884 61.319198 
L 485.470722 58.729645 
L 486.007356 69.022259 
L 486.247979 69.693105 
L 486.483328 65.724933 
L 486.721699 67.146496 
L 486.961225 63.085755 
L 487.206514 65.657577 
L 487.677248 63.211594 
L 488.037454 67.852858 
L 488.214516 74.609325 
L 488.455338 62.488677 
L 488.751713 67.546853 
L 488.931602 67.315405 
L 489.288177 66.238815 
L 489.540319 60.731517 
L 489.706772 63.736432 
L 490.005091 60.297238 
L 490.242896 68.981664 
L 490.481391 63.78541 
L 490.683853 62.332018 
L 490.899752 58.727817 
L 491.201618 60.20762 
L 491.494573 54.984477 
L 491.741352 66.369292 
L 491.913287 64.840883 
L 492.154206 64.009194 
L 492.390345 68.499562 
L 492.705805 59.686523 
L 492.884784 61.860531 
L 493.122928 53.888707 
L 493.601015 54.516925 
L 493.66099 65.343519 
L 493.95881 57.181333 
L 494.141209 62.082789 
L 494.380638 64.637706 
L 494.614303 64.632665 
L 494.912142 71.967731 
L 495.092642 80.803195 
L 495.391562 63.682376 
L 495.688062 67.391546 
L 495.866611 62.987397 
L 496.169394 62.928455 
L 496.407336 60.969446 
L 496.644163 77.805552 
L 496.931081 67.739554 
L 497.122047 65.338814 
L 497.32743 70.576089 
L 497.602808 67.455153 
L 497.947291 57.279449 
L 498.144884 67.679021 
L 498.384535 69.643862 
L 498.621652 65.285126 
L 498.860584 80.804217 
L 499.099563 66.517208 
L 499.337413 61.995157 
L 499.576371 67.504328 
L 499.817608 65.983705 
L 500.113488 74.442059 
L 500.293182 65.88636 
L 500.609204 63.88327 
L 500.650281 58.838199 
L 500.829084 55.839801 
L 501.130331 78.108406 
L 501.425955 62.364062 
L 501.604394 63.996027 
L 502.085048 67.222312 
L 502.142852 74.908883 
L 502.565805 62.532252 
L 503.051282 64.667739 
L 503.27591 56.576816 
L 503.515493 70.746813 
L 503.872555 71.640647 
L 504.051407 60.021238 
L 504.229888 72.90857 
L 504.650095 57.6618 
L 504.707569 70.268422 
L 505.069486 67.641683 
L 505.311707 73.189379 
L 505.547959 65.254057 
L 505.78225 65.908376 
L 506.020268 63.883079 
L 506.266043 54.562068 
L 506.569872 69.879859 
L 506.746757 64.640661 
L 506.993307 63.681839 
L 507.231373 60.792147 
L 507.475334 67.33017 
L 507.708032 64.420943 
L 508.005894 76.62839 
L 508.190358 57.804909 
L 508.485193 77.612836 
L 508.787092 53.882755 
L 509.01986 79.774939 
L 509.275368 78.626893 
L 509.498512 51.16249 
L 509.921977 71.922475 
L 509.97473 60.83459 
L 510.21317 72.941458 
L 510.932276 57.838024 
L 511.427141 68.426365 
L 511.731757 64.297843 
L 511.94593 73.315695 
L 512.202575 65.564588 
L 512.42372 65.116705 
L 512.662927 73.079193 
L 512.902669 53.798176 
L 513.214663 76.785109 
L 513.619081 55.417795 
L 513.68035 64.915897 
L 513.915563 58.153918 
L 514.39837 67.435886 
L 514.571539 67.031365 
L 514.703169 60.887121 
L 514.890518 63.377427 
L 515.247869 59.641886 
L 515.468485 64.028952 
L 515.690172 61.162268 
L 515.918439 68.874436 
L 516.15758 70.356532 
L 516.400242 75.328251 
L 516.762513 58.310258 
L 516.922212 64.71023 
L 517.159528 59.764924 
L 517.51651 60.316966 
L 517.702683 65.236297 
L 517.878201 58.136207 
L 518.173168 51.025665 
L 518.480489 67.19879 
L 518.653123 68.595709 
L 518.951708 57.78927 
L 519.130101 66.222391 
L 519.388449 66.869024 
L 519.725267 60.425657 
L 519.86004 72.320628 
L 520.141772 71.842587 
L 520.439599 107.320169 
L 520.621899 89.706736 
L 520.859464 104.364606 
L 521.115203 86.861741 
L 521.39507 95.442104 
L 521.87368 79.235653 
L 522.117242 89.633013 
L 522.363738 70.064437 
L 522.827932 60.442093 
L 523.266623 60.128568 
L 523.497826 63.16207 
L 523.843711 59.704919 
L 524.131034 63.158938 
L 524.380779 63.047288 
L 524.857058 65.743537 
L 524.9168 64.976135 
L 525.275559 64.635324 
L 525.403427 65.819766 
L 525.814188 64.625532 
L 526.316015 64.111965 
L 526.428741 64.350127 
L 526.596989 64.10206 
L 527.008656 64.078548 
L 527.911085 64.075126 
L 528.28225 63.849954 
L 528.686391 64.002935 
L 528.92995 63.582436 
L 529.284939 64.50053 
L 529.533417 64.059469 
L 530.247674 64.074231 
L 531.88268 64.013531 
L 532.001118 64.161055 
L 532.524468 63.990079 
L 533.23581 64.326686 
L 533.470149 63.85536 
L 533.72434 64.07853 
L 533.946454 64.07561 
L 534.245028 63.954947 
L 535.028561 64.103506 
L 535.504579 64.064135 
L 549.769221 64.078537 
L 596.502813 64.078539 
L 596.502813 64.078539 
" clip-path="url(#pd1b86f5cd2)" style="fill: none; stroke: #0000ff; stroke-opacity: 0.5; stroke-width: 1.5; stroke-linecap: square"/>
   </g>
   <g id="line2d_28">
    <path d="M 38.502813 54.981923 
L 38.622916 57.343167 
L 38.865804 55.998676 
L 38.937 54.16333 
L 39.111017 56.365084 
L 39.417061 55.756537 
L 39.707596 56.065709 
L 39.885883 55.928272 
L 40.302791 54.847492 
L 40.541846 55.991225 
L 40.601545 55.61225 
L 41.018884 55.119223 
L 41.257159 55.18442 
L 41.376814 54.922272 
L 41.559198 54.943852 
L 42.091503 54.5274 
L 42.329583 54.956818 
L 42.628872 56.009901 
L 42.928055 55.181542 
L 43.164095 56.568771 
L 43.477718 55.455654 
L 43.581899 55.568827 
L 43.819883 56.789852 
L 44.060446 55.233088 
L 44.300935 55.841512 
L 44.599353 54.857214 
L 44.834047 56.227866 
L 45.07223 55.1667 
L 45.371049 54.866969 
L 45.669985 54.046707 
L 45.857012 55.751016 
L 46.174796 55.275609 
L 46.328887 55.549093 
L 46.567049 55.111832 
L 46.805772 55.583018 
L 47.224756 56.8682 
L 47.405507 55.292413 
L 47.521373 55.801032 
L 47.766181 54.659441 
L 48.003493 56.116116 
L 48.244165 55.587014 
L 48.536913 55.327518 
L 49.14069 55.239155 
L 50.441813 54.930681 
L 53.050949 55.622709 
L 55.661121 55.218963 
L 57.085405 54.748956 
L 58.50861 55.713238 
L 59.954398 55.114813 
L 60.430319 56.488731 
L 60.669155 56.293706 
L 60.966191 54.091312 
L 61.265892 54.011964 
L 61.445302 55.973055 
L 61.681905 54.145642 
L 61.866132 54.876171 
L 62.104406 56.378349 
L 62.404 53.577508 
L 62.638974 53.677737 
L 62.936269 55.339092 
L 63.11617 54.227757 
L 63.356366 53.715388 
L 63.652931 55.330021 
L 63.846691 54.475251 
L 64.130974 53.974408 
L 64.426649 55.168594 
L 64.72558 54.311234 
L 64.844761 55.4654 
L 65.083776 55.527317 
L 65.323835 52.430529 
L 65.636208 52.942166 
L 65.860257 55.230207 
L 66.108513 53.438002 
L 66.396826 53.807917 
L 66.578194 55.015451 
L 66.934528 51.826274 
L 67.112748 53.455573 
L 67.414376 54.44421 
L 67.588886 53.506884 
L 67.829178 54.79727 
L 68.125305 55.259431 
L 68.423426 53.654279 
L 68.602529 53.322681 
L 68.783671 52.432511 
L 69.32384 56.922308 
L 69.855516 53.066263 
L 70.095651 55.085052 
L 70.338534 55.247214 
L 70.523348 52.598976 
L 71.292681 57.067994 
L 71.829525 53.955801 
L 72.070236 53.690264 
L 72.364771 55.547988 
L 72.604817 55.797467 
L 72.782636 54.765386 
L 73.259107 55.573645 
L 73.442011 56.141906 
L 73.796233 54.507884 
L 74.034856 54.866209 
L 74.512377 57.069851 
L 74.809776 55.523787 
L 75.10756 55.485148 
L 75.350039 56.082529 
L 75.716732 54.425574 
L 75.763801 55.061653 
L 76.00305 54.934416 
L 76.299771 54.968027 
L 76.479259 55.204289 
L 76.779836 52.661815 
L 77.014868 52.895225 
L 77.211656 55.1655 
L 77.731123 53.465144 
L 78.028409 55.827958 
L 78.208334 55.761315 
L 78.445703 54.076416 
L 78.984279 54.149385 
L 79.221395 56.066994 
L 79.699016 54.467342 
L 79.9365 55.562534 
L 80.296129 56.295027 
L 80.48719 53.642256 
L 80.712316 52.772785 
L 80.950854 55.668465 
L 81.192765 57.075922 
L 81.785318 54.847971 
L 81.913099 56.6763 
L 82.441028 52.479525 
L 82.859406 57.903478 
L 83.215747 57.553992 
L 83.394399 54.603162 
L 83.632494 54.977514 
L 83.872614 57.208701 
L 84.411018 53.797061 
L 84.706152 55.337299 
L 84.884266 57.821146 
L 85.123897 57.657357 
L 85.361288 55.553857 
L 85.600003 54.877171 
L 85.838773 54.738712 
L 86.207889 54.029342 
L 86.434523 54.471364 
L 86.893125 57.638567 
L 87.329041 53.089367 
L 87.627622 52.87589 
L 88.103508 57.625114 
L 88.40325 57.974292 
L 88.586765 56.714942 
L 89.00022 55.275074 
L 89.118231 54.408699 
L 89.536432 53.161009 
L 89.908761 53.676758 
L 90.081212 55.823552 
L 90.548537 55.376344 
L 90.668047 53.983495 
L 90.905672 53.504661 
L 91.144508 53.637729 
L 91.263784 54.215453 
L 91.681363 54.575313 
L 91.801828 55.019672 
L 92.038568 54.711976 
L 92.514883 53.98788 
L 92.754169 54.804549 
L 93.289814 58.66622 
L 93.489754 58.797857 
L 93.826284 56.981272 
L 94.004867 56.740728 
L 94.541287 59.811659 
L 94.842115 57.895621 
L 95.019457 55.061455 
L 95.257497 53.832051 
L 95.498953 53.849952 
L 95.89183 54.07377 
L 96.064357 53.987566 
L 96.573099 55.487256 
L 96.628852 54.986273 
L 96.69475 52.871882 
L 96.989749 52.151527 
L 97.286052 54.698909 
L 97.48986 57.854179 
L 97.779913 57.745967 
L 98.202731 52.246091 
L 98.47895 53.281582 
L 98.717529 54.755198 
L 99.025598 53.575257 
L 99.325453 53.640851 
L 99.58166 56.051553 
L 99.795665 56.992284 
L 100.391 54.570139 
L 100.526244 52.607074 
L 101.868401 55.542438 
L 103.165642 55.037043 
L 104.594361 55.169358 
L 104.673559 52.081659 
L 105.09155 57.813458 
L 105.454112 59.475766 
L 105.687883 59.512209 
L 106.305417 56.964199 
L 106.688645 59.587536 
L 106.855494 61.657101 
L 107.089968 62.48927 
L 107.387998 61.464581 
L 107.688168 58.471119 
L 107.864974 54.778661 
L 108.164534 51.659923 
L 108.347806 50.965511 
L 108.640473 52.783983 
L 108.902733 55.312149 
L 109.117895 56.124099 
L 109.477366 54.356976 
L 109.596272 51.487238 
L 109.892792 50.609226 
L 110.192261 52.618546 
L 110.554204 58.556415 
L 110.795086 60.081729 
L 111.052094 58.809954 
L 111.29097 55.901011 
L 111.577019 55.611804 
L 112.049728 59.21136 
L 112.289519 58.399501 
L 112.792567 53.739124 
L 113.325136 52.743429 
L 113.541144 54.250733 
L 113.788285 54.029123 
L 114.33146 49.60125 
L 114.540544 50.411657 
L 114.883064 53.501947 
L 115.036051 56.211127 
L 115.313819 55.859092 
L 115.937099 53.937583 
L 116.002065 53.001887 
L 116.216076 54.733244 
L 116.30385 56.784926 
L 116.475791 57.233861 
L 116.782905 56.661075 
L 117.130896 56.612906 
L 117.249404 56.755582 
L 117.487743 56.000573 
L 117.726095 55.632455 
L 118.024139 55.781069 
L 118.206256 55.670801 
L 118.450471 55.286756 
L 118.928024 53.5474 
L 119.289499 54.363403 
L 119.523478 55.491687 
L 119.821194 53.370075 
L 119.945178 51.274531 
L 120.298612 52.529727 
L 120.606507 54.74802 
L 120.715903 54.014828 
L 120.9231 51.413307 
L 121.194101 51.210095 
L 121.671188 57.298017 
L 122.149815 55.77666 
L 122.624796 55.810074 
L 122.690525 54.41821 
L 122.935962 53.523799 
L 123.69748 58.006072 
L 124.174029 52.894025 
L 124.35569 53.362523 
L 124.650229 53.354828 
L 124.949134 53.580431 
L 125.13009 55.562463 
L 125.427231 57.112608 
L 125.665306 57.027121 
L 125.857602 55.137049 
L 126.147722 53.806726 
L 126.627668 55.715306 
L 127.101098 54.797814 
L 127.755155 55.552063 
L 128.11266 54.088649 
L 128.470607 53.594897 
L 128.590202 53.811384 
L 128.828251 53.881397 
L 129.127471 54.12419 
L 129.721296 53.711106 
L 130.080965 52.411006 
L 130.318908 52.759942 
L 130.795082 55.326116 
L 131.094146 55.853782 
L 131.570561 55.212231 
L 132.288655 57.341054 
L 132.778446 56.60748 
L 133.080422 54.831878 
L 133.269134 52.938506 
L 133.599891 53.960463 
L 133.781243 56.444145 
L 134.048442 55.660966 
L 134.27389 52.793219 
L 134.511673 53.01072 
L 134.752536 55.797163 
L 134.988169 56.222497 
L 135.299799 54.015398 
L 135.524563 53.331796 
L 136.061597 57.515784 
L 136.299914 56.697032 
L 136.537647 54.892963 
L 136.897409 55.95464 
L 137.144696 57.190781 
L 137.729921 54.479867 
L 138.237846 57.440218 
L 138.462756 57.117608 
L 138.821519 55.300189 
L 139.04073 55.20202 
L 139.518495 55.949962 
L 139.876343 56.324003 
L 139.996454 56.048795 
L 140.23413 55.8331 
L 140.475957 54.005396 
L 140.727123 51.061015 
L 141.011902 49.46992 
L 141.192054 51.806675 
L 141.74323 55.563563 
L 142.220316 51.462849 
L 142.460347 51.070758 
L 142.698106 52.912233 
L 142.935384 55.985048 
L 143.173957 57.621748 
L 143.471179 56.499398 
L 143.657606 53.449141 
L 144.128735 50.893774 
L 144.365665 51.619699 
L 144.426045 53.99852 
L 144.665021 55.75504 
L 144.902659 56.124843 
L 145.147247 54.59406 
L 145.379375 52.159514 
L 145.679051 51.835881 
L 146.042843 54.218023 
L 146.15371 56.459879 
L 146.451965 56.008325 
L 146.884804 50.470942 
L 147.11376 51.394949 
L 147.644895 55.614301 
L 147.88237 55.068963 
L 148.299554 53.643856 
L 148.41882 52.266392 
L 148.598417 53.075978 
L 149.076012 54.369129 
L 149.373331 53.980128 
L 149.613249 53.384467 
L 150.029772 52.898508 
L 150.089694 54.674302 
L 150.565971 59.602559 
L 151.353883 56.955805 
L 151.703 59.879598 
L 151.876006 60.125823 
L 152.888581 50.594952 
L 153.188565 51.935402 
L 153.309231 54.832906 
L 153.54568 54.948611 
L 154.082528 50.66928 
L 154.617256 55.549933 
L 154.797409 56.580874 
L 155.03402 55.872502 
L 155.333455 53.923089 
L 155.572779 51.397601 
L 155.93189 49.744696 
L 156.054561 50.939331 
L 156.288871 54.311458 
L 156.59785 56.303937 
L 157.244922 51.852259 
L 157.482632 52.93396 
L 158.075811 57.663334 
L 158.493969 58.379419 
L 158.732951 54.38433 
L 159.028959 51.643169 
L 159.268997 52.126949 
L 159.984424 61.210056 
L 160.222772 60.38312 
L 160.639178 57.491979 
L 160.761288 55.457405 
L 161.002186 57.189018 
L 161.236001 59.973783 
L 161.473201 60.63125 
L 161.716034 58.6819 
L 162.430118 48.524349 
L 162.728429 50.134937 
L 163.21208 55.266212 
L 163.449507 53.212612 
L 163.682554 50.218555 
L 163.922713 50.518583 
L 164.397251 55.47367 
L 164.755999 55.553848 
L 164.99298 54.967062 
L 165.410163 52.470134 
L 165.64954 52.999904 
L 165.889046 55.527392 
L 166.126682 56.820244 
L 166.482576 55.525293 
L 166.661225 53.870573 
L 166.89949 54.917463 
L 167.197831 56.836165 
L 167.436563 57.093417 
L 168.152508 53.466631 
L 168.391427 53.502548 
L 168.63296 53.949508 
L 168.867709 53.831874 
L 169.529336 54.450722 
L 169.881582 55.573774 
L 170.203109 55.725601 
L 170.598518 54.335304 
L 170.837969 54.429679 
L 171.432118 56.418205 
L 172.146868 54.962883 
L 172.569875 54.649113 
L 173.106348 57.139752 
L 173.339268 56.594788 
L 173.707388 54.434082 
L 174.158309 56.820254 
L 174.535783 52.202136 
L 174.91395 52.476529 
L 175.073934 55.721841 
L 175.310543 57.443321 
L 175.787124 53.515329 
L 176.085682 54.153524 
L 176.323655 55.549515 
L 176.579702 53.874174 
L 176.922167 53.801015 
L 177.049623 56.604169 
L 177.336715 59.10067 
L 177.648399 58.827769 
L 177.755713 56.312469 
L 178.11115 54.510242 
L 178.352257 54.729944 
L 178.528778 55.652461 
L 179.02236 56.286879 
L 179.243954 57.502411 
L 179.959799 51.12414 
L 180.199819 48.687994 
L 180.764952 55.111692 
L 181.004126 53.126396 
L 181.237254 52.131103 
L 181.716775 53.342213 
L 181.952198 53.230604 
L 182.311857 53.610365 
L 182.856642 55.547715 
L 182.972183 55.208696 
L 183.210217 55.279264 
L 183.468223 55.213994 
L 183.706024 54.636516 
L 184.008236 54.614917 
L 184.480842 56.540809 
L 184.866663 56.335404 
L 184.96201 54.675611 
L 185.214305 52.985947 
L 185.456212 52.55166 
L 185.79372 54.402686 
L 185.914024 56.957892 
L 186.210739 56.619521 
L 186.450096 54.363071 
L 186.688066 53.967743 
L 187.183426 57.715448 
L 187.521698 57.526473 
L 187.761895 57.084851 
L 187.93929 57.068993 
L 188.475599 56.479216 
L 189.131074 56.35634 
L 189.608368 56.429109 
L 189.845677 57.434005 
L 189.964926 58.751746 
L 190.203386 58.057918 
L 190.38336 55.079349 
L 190.679785 52.060891 
L 190.869436 52.101558 
L 191.396627 56.060591 
L 191.639823 54.287306 
L 192.117173 49.137046 
L 192.356479 49.78092 
L 192.83502 55.448844 
L 193.072666 56.011272 
L 193.608741 51.304503 
L 193.905827 52.230374 
L 194.087116 54.664768 
L 194.441225 55.072491 
L 194.621423 54.956429 
L 194.919455 55.76834 
L 195.159734 55.081729 
L 195.574242 51.838242 
L 195.812728 54.488606 
L 196.050762 55.633798 
L 196.348274 52.839654 
L 196.532194 52.167821 
L 196.824916 54.374506 
L 197.066503 54.833976 
L 197.302744 52.171911 
L 197.540668 52.019479 
L 197.783126 55.093735 
L 198.021222 56.401553 
L 198.278285 53.856629 
L 198.614978 53.559362 
L 198.857745 55.392318 
L 199.035959 53.250179 
L 199.328922 51.202832 
L 199.627167 53.032481 
L 199.755281 56.65174 
L 200.037406 56.323184 
L 200.288499 53.421046 
L 200.523074 53.308335 
L 200.76342 56.250617 
L 201.023906 55.422582 
L 201.252764 52.911523 
L 201.602062 53.252797 
L 201.781853 55.387663 
L 202.020372 56.522356 
L 202.734673 54.211002 
L 202.977069 54.389828 
L 203.271444 54.26113 
L 203.747339 55.211737 
L 204.347506 55.36686 
L 204.462725 55.163037 
L 204.819721 55.933268 
L 205.180009 58.642511 
L 205.475165 57.577088 
L 205.723048 54.444008 
L 206.192034 53.997609 
L 206.452348 57.552329 
L 206.78839 55.114572 
L 207.266495 50.043183 
L 207.443269 50.646714 
L 207.922916 54.126433 
L 208.578156 55.311253 
L 208.935203 53.884282 
L 209.172823 53.806578 
L 209.600943 54.370313 
L 209.950317 55.899417 
L 210.425683 51.879365 
L 211.140394 53.596739 
L 211.378598 54.782418 
L 211.677486 55.153038 
L 212.393738 48.885942 
L 212.631154 49.897125 
L 213.168289 55.95006 
L 213.405839 55.897473 
L 213.824739 52.494224 
L 214.121064 52.348418 
L 214.359272 53.936934 
L 214.837813 58.494843 
L 215.076049 59.010636 
L 215.37507 57.066875 
L 215.554742 53.335366 
L 215.851328 50.555298 
L 216.089667 50.311896 
L 216.389104 53.117131 
L 216.58001 56.807142 
L 216.811423 58.531423 
L 217.102957 57.011849 
L 217.877773 49.656988 
L 218.056338 50.148248 
L 218.294893 52.149234 
L 218.593264 53.487211 
L 218.776973 53.558131 
L 219.266031 52.502084 
L 219.30768 51.629423 
L 219.551399 51.791895 
L 220.04435 55.255435 
L 220.32987 55.548333 
L 220.62314 54.927798 
L 220.8622 54.020874 
L 221.162767 54.540438 
L 221.338171 55.218731 
L 221.515496 55.39897 
L 221.99322 54.638647 
L 222.055181 53.108587 
L 222.530269 50.454957 
L 222.771536 51.126184 
L 223.248476 55.865568 
L 223.554257 55.748043 
L 223.732051 54.154821 
L 224.048213 52.946445 
L 224.26118 53.064571 
L 224.498476 53.367918 
L 224.976617 53.357002 
L 225.274355 52.679697 
L 225.75103 49.4334 
L 226.226817 46.29751 
L 226.525541 43.151096 
L 226.707352 39.839704 
L 227.184451 38.091198 
L 227.479239 38.951709 
L 227.717393 39.832472 
L 227.956897 41.309441 
L 228.194151 40.88398 
L 228.730952 38.434958 
L 228.972776 39.053998 
L 229.211707 40.370809 
L 229.998628 42.547687 
L 230.408796 41.748298 
L 230.705939 42.10933 
L 230.945101 43.775059 
L 231.242363 45.052324 
L 231.630147 45.867296 
L 231.663719 46.207772 
L 232.136825 45.458353 
L 232.434509 43.131015 
L 232.915984 41.986773 
L 233.208451 42.096745 
L 233.864567 39.093676 
L 234.163673 39.232039 
L 234.459871 40.562237 
L 234.877477 45.668516 
L 235.11598 48.491946 
L 235.432665 50.202358 
L 235.906757 50.104753 
L 236.084479 49.604469 
L 236.384217 50.426689 
L 236.621287 51.6121 
L 236.919839 52.475798 
L 237.695023 52.562017 
L 237.874902 51.445964 
L 238.290534 51.282427 
L 238.589264 52.542703 
L 238.828455 52.045598 
L 239.065068 50.377674 
L 239.549082 45.870896 
L 240.023237 43.575118 
L 240.317181 44.66334 
L 240.614551 45.310785 
L 240.793797 47.223736 
L 241.151839 47.885101 
L 241.806632 50.753665 
L 242.044896 51.210214 
L 242.641746 49.965177 
L 243.539421 43.453202 
L 243.836562 42.427967 
L 244.760099 46.996925 
L 244.998784 47.635742 
L 245.503869 49.753421 
L 245.741822 52.294739 
L 246.202726 52.744867 
L 246.337942 53.054431 
L 246.460816 52.366798 
L 246.754794 51.414096 
L 246.994239 51.559519 
L 247.232263 51.519797 
L 247.469526 52.862697 
L 247.708076 52.314333 
L 248.125328 50.806877 
L 248.543255 46.557546 
L 248.848689 46.95787 
L 249.218981 53.479612 
L 249.530817 55.844214 
L 249.796994 56.646828 
L 250.454559 49.703943 
L 250.69308 49.495337 
L 250.990238 50.527107 
L 251.171156 52.405722 
L 251.466717 52.674119 
L 252.004037 51.052717 
L 252.243865 49.92284 
L 252.425758 49.777427 
L 253.137428 50.95149 
L 253.437262 50.33004 
L 253.732822 50.572816 
L 253.912799 51.423494 
L 254.151034 51.656464 
L 254.390353 51.467387 
L 254.629948 52.862659 
L 254.866171 55.084403 
L 255.283195 56.525119 
L 255.64118 58.166544 
L 255.702331 60.569352 
L 255.879236 60.914179 
L 256.357 57.204849 
L 257.430682 46.033466 
L 257.61066 43.584931 
L 257.848051 42.696416 
L 258.20509 43.754408 
L 258.577231 47.697594 
L 259.730147 45.55024 
L 259.876027 45.708831 
L 260.173233 45.591619 
L 260.949329 39.495454 
L 261.322962 39.909634 
L 261.602805 45.42093 
L 261.975746 47.145308 
L 262.086563 48.315027 
L 262.55622 48.490469 
L 263.151773 49.832413 
L 263.330837 51.606915 
L 263.7477 50.433929 
L 264.105397 45.83197 
L 264.285849 44.458445 
L 264.643203 43.461191 
L 264.881961 44.613198 
L 265.299527 50.490154 
L 265.714773 49.890101 
L 266.191948 44.585142 
L 266.252174 44.603956 
L 266.48981 44.561826 
L 266.788459 45.14708 
L 267.324829 49.608311 
L 267.563622 49.663298 
L 268.099501 44.104846 
L 268.338011 42.770505 
L 268.532791 43.44425 
L 269.233644 51.939666 
L 269.530633 51.586471 
L 269.887378 49.507304 
L 270.245132 46.746119 
L 270.661966 46.016624 
L 270.723 49.124128 
L 270.960397 50.920138 
L 271.318588 50.471879 
L 271.735812 48.598468 
L 271.975033 48.149047 
L 272.273994 48.629524 
L 272.689423 53.127719 
L 272.927961 53.506199 
L 273.17533 52.14316 
L 273.643316 49.001424 
L 273.969451 47.728832 
L 274.219372 48.495386 
L 274.658263 47.20475 
L 274.845561 47.682553 
L 275.037647 47.656478 
L 275.313574 47.081741 
L 275.437851 48.010197 
L 275.791628 47.938098 
L 275.91339 49.885543 
L 276.20821 49.432301 
L 276.393789 49.617427 
L 277.049078 46.519541 
L 277.162083 47.233503 
L 277.590469 46.678059 
L 277.939041 50.583074 
L 278.12053 52.164006 
L 278.624491 50.753263 
L 279.193852 46.145536 
L 279.612332 45.045925 
L 280.384925 38.746773 
L 280.623809 38.476154 
L 280.980465 39.445095 
L 281.1601 43.723488 
L 281.594071 49.633718 
L 281.873928 48.598701 
L 282.533731 43.649525 
L 282.828435 42.023674 
L 283.306338 42.735639 
L 283.66432 41.960777 
L 284.319934 39.083489 
L 284.563335 39.659245 
L 284.856401 40.697067 
L 285.276257 43.781141 
L 285.810779 42.594522 
L 286.048783 40.788973 
L 286.292195 40.356058 
L 286.769413 43.126857 
L 287.007247 43.256414 
L 287.262421 42.83317 
L 287.484106 43.25835 
L 287.84259 42.158092 
L 288.024509 43.956863 
L 288.259375 44.106957 
L 288.736219 42.179785 
L 289.035046 41.270862 
L 289.811148 44.496592 
L 290.227704 44.383103 
L 290.347633 45.390626 
L 290.465879 45.138631 
L 290.948755 41.288698 
L 291.225488 40.189984 
L 291.495528 39.825841 
L 291.679836 41.355841 
L 292.13465 41.596509 
L 292.194976 44.468317 
L 292.432576 45.056441 
L 293.207555 39.053695 
L 293.504983 40.697261 
L 293.689059 44.473357 
L 293.924229 46.513833 
L 294.221147 46.525742 
L 294.466574 43.555649 
L 294.878318 35.149865 
L 295.173661 34.078191 
L 295.4127 36.465011 
L 295.717231 37.878375 
L 295.948103 39.640029 
L 296.19442 39.432246 
L 296.607631 35.412 
L 296.961851 34.512224 
L 297.152314 36.738791 
L 297.620443 37.772683 
L 298.095365 36.585248 
L 298.632709 35.621489 
L 298.870236 35.473755 
L 299.108436 34.73768 
L 299.60655 34.232587 
L 299.827215 37.217398 
L 300.182774 38.228663 
L 300.361705 41.302752 
L 300.600166 43.466377 
L 300.854175 43.006495 
L 301.079765 40.68242 
L 301.613328 37.679377 
L 301.911255 35.809609 
L 302.09056 35.973757 
L 302.447614 37.016824 
L 302.626399 39.251002 
L 302.80676 38.616796 
L 303.54503 33.036425 
L 303.826118 32.64132 
L 304.41641 35.240239 
L 304.595673 36.408653 
L 305.252232 31.924606 
L 305.31073 32.286851 
L 305.548602 32.129785 
L 305.846457 33.539866 
L 306.02906 37.138992 
L 306.385283 36.826363 
L 306.562027 36.006301 
L 306.996024 29.468403 
L 307.281744 25.728633 
L 307.656728 25.302755 
L 307.900046 26.291341 
L 308.067971 28.729047 
L 308.299126 30.318195 
L 308.537897 30.548145 
L 308.839248 29.43685 
L 309.086734 31.066115 
L 309.313549 36.08202 
L 309.455479 42.531053 
L 309.930311 43.300382 
L 310.001814 44.362386 
L 310.28921 41.023738 
L 310.708003 33.387374 
L 311.063774 33.728201 
L 311.242711 37.812222 
L 311.611583 38.444895 
L 311.781527 38.398699 
L 312.017687 37.348796 
L 312.501747 32.037166 
L 313.090224 38.932629 
L 313.568273 72.565489 
L 314.235778 201.985383 
L 314.701814 220.736969 
L 314.938888 221.405942 
L 315.237717 226.477685 
L 315.594079 234.492122 
L 315.682591 234.043035 
L 316.016983 209.145935 
L 316.33419 156.740686 
L 316.452034 104.252079 
L 316.695304 73.016957 
L 317.110027 58.642865 
L 317.410895 57.967684 
L 317.763281 50.272331 
L 318.180102 37.276649 
L 318.359189 39.400633 
L 318.718927 42.093185 
L 318.959086 42.739762 
L 319.49789 33.572994 
L 319.614865 33.743893 
L 320.328134 45.698027 
L 320.624731 38.76284 
L 321.102007 21.265708 
L 321.340325 21.794667 
L 321.878065 31.132843 
L 322.117615 30.395648 
L 322.592008 20.277909 
L 322.840479 21.470217 
L 323.548541 44.689381 
L 323.963903 45.946693 
L 324.083748 44.277014 
L 324.569671 42.131397 
L 324.802157 43.423905 
L 325.098086 44.234994 
L 325.454334 43.363941 
L 325.812051 39.898062 
L 326.051482 40.030335 
L 326.294583 40.958923 
L 326.530758 41.111759 
L 326.852363 40.807716 
L 327.242305 39.853192 
L 327.301953 39.034998 
L 327.540635 38.344463 
L 327.778986 37.294532 
L 328.020226 35.233612 
L 328.495475 29.369497 
L 328.794246 27.242451 
L 329.171816 27.354803 
L 329.508337 32.837235 
L 329.745474 35.965542 
L 330.162941 38.871 
L 330.282264 41.39714 
L 331.312423 51.012779 
L 331.533689 51.301333 
L 332.018819 46.896142 
L 333.024265 35.661098 
L 333.267721 33.834802 
L 333.502737 34.013917 
L 333.980504 35.197422 
L 335.231468 43.741517 
L 335.709664 48.65923 
L 336.184852 50.456662 
L 336.423478 50.977069 
L 336.663453 51.069882 
L 336.900926 50.609498 
L 337.317585 50.59165 
L 337.437428 49.479491 
L 337.736454 48.068279 
L 338.161358 44.244125 
L 338.54477 44.12795 
L 338.658091 45.329967 
L 339.29103 49.406159 
L 339.410048 51.502159 
L 339.825811 53.838742 
L 339.945144 55.982188 
L 340.12328 56.883689 
L 340.421547 55.897605 
L 340.719728 53.99277 
L 342.390217 24.422791 
L 342.592547 22.265599 
L 342.865715 23.670996 
L 343.224194 27.360725 
L 343.582206 36.31444 
L 343.819625 40.545755 
L 344.2367 44.455766 
L 344.355474 47.756699 
L 344.835051 53.210103 
L 345.073439 53.559445 
L 345.381281 51.574887 
L 345.793405 47.242377 
L 346.084919 46.890248 
L 346.386542 47.454769 
L 346.623265 47.391589 
L 346.800697 46.408122 
L 347.046882 44.066302 
L 347.336523 42.399049 
L 347.633595 43.526719 
L 348.051726 50.027856 
L 348.470912 49.875074 
L 348.531021 46.516828 
L 349.025631 39.179921 
L 349.25029 38.350352 
L 349.603408 40.66751 
L 349.8421 44.104105 
L 350.139628 45.692697 
L 350.855204 40.431712 
L 351.332358 45.127146 
L 351.510253 48.225254 
L 352.048182 51.673885 
L 352.34541 50.34665 
L 352.763199 46.696473 
L 353.358236 51.517002 
L 353.656081 52.250045 
L 354.192068 48.259854 
L 354.26785 44.27623 
L 354.729169 38.499661 
L 354.967142 39.087408 
L 355.26572 41.008612 
L 355.563366 41.802768 
L 356.230389 38.591398 
L 356.695564 38.330204 
L 357.11492 39.518895 
L 357.414082 44.52935 
L 357.768024 44.5376 
L 358.200121 39.622464 
L 358.619507 41.377277 
L 358.726755 43.954847 
L 358.964857 45.316865 
L 359.739861 47.367974 
L 359.918637 46.936926 
L 360.754514 44.096216 
L 360.876193 42.580733 
L 361.129106 42.436903 
L 361.661674 46.240562 
L 361.887082 45.982077 
L 362.424082 40.488955 
L 362.662654 41.816073 
L 363.20353 48.785068 
L 363.423447 48.465539 
L 363.622003 45.478818 
L 363.916371 42.83068 
L 364.298259 42.59553 
L 364.393153 44.03043 
L 364.630544 45.20838 
L 364.92917 45.008117 
L 365.345698 42.068959 
L 365.643635 42.926716 
L 366.120566 47.1169 
L 366.430486 47.026843 
L 366.661699 44.773716 
L 366.95586 44.032794 
L 367.137644 45.642963 
L 367.313284 48.811602 
L 367.613202 49.571279 
L 368.328014 44.809171 
L 369.113805 48.520587 
L 369.821758 42.04513 
L 370.360723 43.186191 
L 370.716213 44.226647 
L 370.778089 44.88225 
L 371.312315 43.403639 
L 371.555098 43.676997 
L 371.789135 43.625033 
L 372.027824 43.008545 
L 372.572937 40.120596 
L 372.861574 42.522713 
L 373.223258 43.252482 
L 373.518933 37.992413 
L 373.93445 38.617698 
L 373.993192 40.795459 
L 374.71244 49.434385 
L 375.080509 48.28953 
L 375.245909 45.100067 
L 375.486534 43.924058 
L 375.841426 45.98931 
L 376.021182 48.645753 
L 376.325316 49.468072 
L 376.735908 44.671209 
L 377.154139 43.247041 
L 377.275259 43.923385 
L 377.454122 46.912879 
L 377.691085 48.340706 
L 378.467507 44.791934 
L 378.705786 45.455472 
L 379.003346 45.551064 
L 379.182787 45.096068 
L 379.541591 45.200595 
L 379.77876 45.936625 
L 379.957593 45.63817 
L 380.315476 46.234623 
L 380.43452 47.505344 
L 380.67377 46.893781 
L 381.209422 40.900499 
L 381.566802 42.239321 
L 381.744983 45.439824 
L 382.170296 46.789998 
L 382.401177 43.536234 
L 382.640935 42.382756 
L 382.938268 43.473577 
L 383.414778 50.771607 
L 383.653191 52.490944 
L 383.891272 51.19677 
L 384.36784 44.217749 
L 384.608478 43.462652 
L 385.024513 45.593466 
L 385.141968 47.86823 
L 385.442062 46.854031 
L 386.154941 40.213767 
L 386.572481 42.291201 
L 386.633083 45.931068 
L 386.871953 48.7261 
L 387.288124 49.044386 
L 387.408358 46.611611 
L 387.883735 42.354299 
L 388.657811 47.636493 
L 389.373409 40.988794 
L 389.673069 41.464891 
L 389.85151 43.597955 
L 390.209139 46.482715 
L 390.327434 49.899676 
L 390.566718 50.905508 
L 391.283443 46.937321 
L 391.956832 45.406886 
L 392.061414 43.250852 
L 392.294363 41.624091 
L 392.832412 39.936349 
L 393.014287 40.310409 
L 393.427847 41.551017 
L 393.785792 42.957256 
L 394.023607 42.747357 
L 394.261973 42.88884 
L 395.156539 44.037196 
L 395.275553 44.67261 
L 395.574048 44.890438 
L 395.817442 44.115908 
L 396.289007 41.522169 
L 396.468688 40.9502 
L 396.709418 41.16303 
L 397.480824 42.93799 
L 398.01748 42.849424 
L 398.255879 44.681184 
L 399.032184 54.335621 
L 399.38968 55.984066 
L 399.629341 56.547102 
L 399.867123 55.894026 
L 400.224723 50.350702 
L 401.240795 38.762207 
L 401.476641 38.700747 
L 401.775515 40.114103 
L 402.669635 50.48096 
L 402.908526 51.245627 
L 403.162416 51.072597 
L 403.206332 50.737653 
L 403.397622 50.410928 
L 403.633589 49.397694 
L 404.188901 48.319852 
L 404.402506 48.224862 
L 404.947887 46.951394 
L 405.385104 43.82794 
L 405.65268 44.346061 
L 405.894417 45.745583 
L 406.426561 46.764646 
L 406.667313 47.240706 
L 406.963223 47.076736 
L 407.144113 47.28252 
L 407.380891 48.603239 
L 407.860801 53.974831 
L 408.217822 55.068546 
L 408.636507 53.049241 
L 409.234688 47.464928 
L 409.470635 43.882637 
L 409.589722 40.305791 
L 409.829013 38.273298 
L 410.126347 37.844888 
L 410.42592 38.883789 
L 411.143152 44.058854 
L 411.320402 44.72271 
L 412.096215 44.650192 
L 412.512689 43.67184 
L 412.58546 42.603248 
L 412.87158 41.51007 
L 413.062343 41.306704 
L 413.456757 42.435824 
L 413.81476 47.756705 
L 414.472681 55.446923 
L 414.533583 59.004779 
L 414.830286 61.970636 
L 415.068038 62.273743 
L 415.309724 61.399988 
L 415.96323 55.690042 
L 416.023198 51.502357 
L 416.805148 40.401603 
L 417.002271 37.64644 
L 417.276707 36.575897 
L 417.709181 37.754525 
L 417.756951 39.09627 
L 418.054464 39.416054 
L 418.471725 39.52198 
L 418.530943 40.236593 
L 419.305279 44.588006 
L 419.724077 46.487965 
L 419.962564 46.521138 
L 420.975057 44.640267 
L 421.214128 43.999554 
L 421.512226 44.634161 
L 421.693249 46.327537 
L 422.225812 47.993348 
L 422.234324 47.779993 
L 422.468961 46.495842 
L 422.825214 45.472424 
L 423.004989 45.451786 
L 423.252127 46.277829 
L 423.484338 47.443613 
L 423.960579 48.604839 
L 424.145321 47.908472 
L 424.43705 47.353369 
L 424.675708 47.910544 
L 425.155055 50.658636 
L 425.574673 50.376065 
L 425.629286 49.439001 
L 426.40654 48.939064 
L 426.64547 49.716914 
L 427.065099 50.12338 
L 427.445399 49.059006 
L 427.659166 49.279019 
L 428.19698 52.83198 
L 428.436409 53.501607 
L 428.619145 52.832837 
L 429.151322 48.59966 
L 429.39598 46.284182 
L 429.628082 45.151193 
L 429.867272 45.380842 
L 430.10485 46.297046 
L 430.344322 48.093214 
L 430.774626 50.368814 
L 431.357652 59.321698 
L 431.843497 64.171326 
L 432.095657 59.774621 
L 432.821237 25.225863 
L 433.463552 13.493537 
L 433.87843 9.80209 
L 434.121676 7.200061 
L 434.414608 6.050769 
L 435.198864 28.85626 
L 435.318081 38.349651 
L 435.793016 49.648008 
L 436.163582 49.325737 
L 436.862153 44.02463 
L 437.100266 44.1621 
L 437.400723 45.355451 
L 437.640155 44.781331 
L 437.947846 42.694791 
L 438.242412 37.931318 
L 438.507695 38.248824 
L 438.778576 39.958295 
L 439.093849 42.996512 
L 439.259491 46.035215 
L 439.609454 46.410867 
L 439.813723 45.621574 
L 440.027646 44.21564 
L 440.326857 43.959115 
L 440.985603 47.880217 
L 441.360449 48.098688 
L 441.996582 43.293564 
L 442.261655 42.943476 
L 442.476381 44.452409 
L 443.119643 46.7335 
L 443.306995 45.536675 
L 443.835364 39.427413 
L 444.01571 38.077666 
L 444.193965 39.241136 
L 444.670741 41.503048 
L 444.792607 44.617027 
L 445.029606 45.533325 
L 445.21114 45.130998 
L 445.69185 41.935602 
L 445.950184 42.323436 
L 446.223006 42.529985 
L 446.46149 42.123466 
L 446.93948 38.088722 
L 447.182432 37.449659 
L 448.138367 42.316783 
L 448.437338 42.556663 
L 448.91479 41.709402 
L 449.152725 40.303892 
L 449.808343 33.380156 
L 449.89612 29.645729 
L 450.16705 26.395084 
L 450.46407 24.611453 
L 450.761942 24.127868 
L 450.94209 24.221928 
L 451.180519 25.159341 
L 451.425902 27.200721 
L 451.658653 31.395477 
L 452.077357 42.455627 
L 452.326715 45.998308 
L 452.613173 46.39769 
L 453.098099 42.615625 
L 453.469682 41.587979 
L 453.632802 41.549822 
L 453.689602 41.918018 
L 453.809319 41.953296 
L 454.134366 41.896354 
L 454.765606 40.265713 
L 454.847127 40.411985 
L 455.539853 46.093223 
L 455.961335 45.794178 
L 456.387019 43.168697 
L 456.566905 41.271998 
L 457.044693 39.037867 
L 457.700957 36.301815 
L 457.762486 36.410077 
L 458.176246 36.710245 
L 458.295734 38.303373 
L 458.535771 39.315867 
L 458.772737 39.531739 
L 459.18988 38.660627 
L 459.548312 36.433316 
L 460.026983 33.862949 
L 460.264394 33.404051 
L 460.505547 32.524949 
L 461.461133 26.44653 
L 461.759676 26.035898 
L 461.997667 26.385279 
L 462.535859 28.034898 
L 462.954361 29.029207 
L 463.252644 31.094651 
L 463.439137 33.749313 
L 463.848593 35.57125 
L 463.995751 37.694098 
L 464.210024 39.143825 
L 464.468285 39.640572 
L 464.923343 40.931055 
L 465.170704 41.273786 
L 465.469677 42.252766 
L 466.243917 49.247984 
L 466.483619 50.469218 
L 466.663185 50.40878 
L 466.961408 49.358462 
L 467.199234 47.656525 
L 467.597038 46.174909 
L 467.921045 43.478246 
L 468.761166 40.854878 
L 469.179483 42.697523 
L 469.542461 43.954846 
L 469.64942 46.766706 
L 470.128335 52.892815 
L 470.435389 55.044787 
L 470.683137 55.448223 
L 471.143739 51.786934 
L 471.682015 47.684321 
L 472.16172 45.406628 
L 472.456786 42.938511 
L 472.636186 39.91211 
L 473.054076 36.805353 
L 473.172886 33.885217 
L 473.400235 31.293225 
L 473.634969 30.088338 
L 473.868197 29.771971 
L 474.354868 30.980817 
L 474.645427 30.772884 
L 474.949827 30.748515 
L 475.315542 34.071229 
L 475.840459 40.20441 
L 476.317061 46.133367 
L 476.555932 46.936 
L 476.795462 47.282001 
L 477.212458 47.369516 
L 477.361592 48.057824 
L 477.749946 48.806538 
L 477.868828 50.358458 
L 478.345862 52.629386 
L 478.643526 52.736206 
L 479.305237 50.40006 
L 479.600228 50.483934 
L 480.01865 51.429821 
L 480.259337 51.264954 
L 480.797255 50.507899 
L 481.032858 49.459971 
L 481.30086 49.158417 
L 481.817167 51.666007 
L 482.112202 53.207912 
L 482.301583 54.947137 
L 482.54011 55.745491 
L 482.796157 55.367487 
L 483.208624 53.832647 
L 483.500877 53.93036 
L 483.799178 54.354305 
L 484.097273 55.239473 
L 484.216787 56.158078 
L 484.514676 55.601633 
L 485.008903 53.109099 
L 486.007356 45.043936 
L 486.247979 43.811357 
L 486.483328 41.935217 
L 487.677248 28.260155 
L 488.037454 28.639389 
L 488.214516 29.664655 
L 488.455338 29.759907 
L 488.751713 28.798674 
L 489.288177 24.845115 
L 489.540319 23.850781 
L 490.005091 26.079544 
L 490.481391 28.493439 
L 490.683853 28.135063 
L 490.899752 26.589732 
L 491.201618 25.708458 
L 491.494573 25.366411 
L 491.741352 25.827089 
L 491.913287 27.104321 
L 492.154206 27.684264 
L 492.390345 27.478812 
L 492.705805 26.249826 
L 493.122928 22.309789 
L 493.601015 21.741631 
L 493.66099 23.16146 
L 493.95881 25.21581 
L 494.380638 31.402353 
L 494.614303 32.790687 
L 494.912142 33.177623 
L 495.391562 35.417122 
L 495.688062 37.853897 
L 495.866611 41.124166 
L 496.407336 46.033376 
L 496.644163 46.827013 
L 496.931081 47.003764 
L 497.122047 46.904045 
L 497.32743 47.063348 
L 497.947291 48.405194 
L 498.144884 49.419745 
L 498.384535 49.551569 
L 498.621652 48.098521 
L 499.099563 43.354531 
L 499.337413 42.529656 
L 499.576371 43.073694 
L 500.293182 47.319639 
L 500.829084 48.173838 
L 501.130331 47.964814 
L 501.604394 48.006429 
L 502.142852 47.314574 
L 502.321119 46.734545 
L 502.758604 43.173316 
L 503.051282 40.115132 
L 503.515493 32.584897 
L 504.229888 27.402572 
L 504.650095 25.690812 
L 504.707569 24.971461 
L 505.069486 24.948683 
L 505.311707 25.666514 
L 505.547959 27.967367 
L 506.746757 48.726215 
L 507.231373 51.349362 
L 508.005894 52.915778 
L 508.190358 53.168235 
L 508.485193 52.781056 
L 509.275368 49.517952 
L 509.498512 49.955372 
L 509.921977 50.307622 
L 509.97473 51.99017 
L 510.21317 53.230047 
L 510.691646 53.534259 
L 511.427141 49.806567 
L 511.731757 48.818283 
L 512.42372 44.477935 
L 513.214663 39.009552 
L 513.68035 37.853636 
L 514.39837 40.508545 
L 514.571539 41.845864 
L 514.703169 41.431722 
L 515.918439 29.434044 
L 516.762513 24.751689 
L 517.159528 20.482891 
L 517.51651 19.439234 
L 517.702683 20.980716 
L 518.653123 35.501212 
L 519.130101 38.924679 
L 519.725267 44.007121 
L 519.86004 47.419394 
L 520.141772 49.081066 
L 520.439599 49.046841 
L 520.859464 43.899651 
L 521.115203 43.598933 
L 521.39507 48.752927 
L 522.117242 71.423321 
L 522.363738 74.248561 
L 522.65075 74.156237 
L 522.827932 73.125326 
L 523.266623 72.066437 
L 523.497826 72.179551 
L 523.843711 70.958592 
L 524.131034 62.20254 
L 524.380779 50.666331 
L 524.857058 44.202064 
L 524.9168 40.409221 
L 525.275559 39.472254 
L 525.814188 45.440453 
L 526.316015 46.718656 
L 526.428741 46.469681 
L 526.596989 45.305927 
L 526.890514 44.395963 
L 527.008656 44.915547 
L 527.785005 50.808029 
L 527.911085 54.114331 
L 528.28225 56.305744 
L 528.505796 56.421527 
L 528.92995 52.582752 
L 529.166701 51.323345 
L 529.533417 51.202974 
L 529.890641 49.089042 
L 530.664454 31.663128 
L 530.905653 27.567935 
L 531.262127 26.083746 
L 531.439707 26.124885 
L 531.621121 27.389606 
L 531.88268 27.655234 
L 532.001118 26.322132 
L 532.275662 25.191441 
L 532.524468 25.651863 
L 532.939696 33.372316 
L 533.72434 46.746914 
L 533.946454 48.577552 
L 534.245028 49.675876 
L 535.504579 60.753233 
L 535.801994 61.059262 
L 535.979304 60.383606 
L 536.526316 55.407538 
L 536.938388 50.365821 
L 537.57183 46.021958 
L 537.923297 39.757025 
L 538.432501 33.567113 
L 538.723835 32.492678 
L 539.439601 35.609828 
L 539.680701 35.241449 
L 540.393637 31.594974 
L 540.636535 31.95026 
L 541.483777 34.572113 
L 541.907515 34.369783 
L 542.137411 34.389049 
L 542.376781 34.870872 
L 542.912553 37.041691 
L 543.147255 37.007253 
L 543.625901 33.717819 
L 543.867082 32.049929 
L 544.419445 30.24682 
L 544.699628 30.64741 
L 545.613251 33.858115 
L 545.716345 34.908165 
L 546.013013 36.347423 
L 546.562256 44.814613 
L 547.086927 51.06924 
L 547.328605 52.872341 
L 547.562717 53.606289 
L 547.800201 53.819409 
L 548.57849 55.751164 
L 548.874603 56.049087 
L 549.053617 55.599707 
L 549.551337 53.831778 
L 549.769221 51.98253 
L 550.187418 50.886003 
L 550.496407 47.428841 
L 550.901628 45.684074 
L 551.264901 42.432742 
L 552.035323 39.086835 
L 553.531832 31.127751 
L 553.764774 28.763605 
L 554.745389 22.532855 
L 554.984158 22.278419 
L 555.281591 22.380443 
L 555.937535 21.960272 
L 556.23672 22.226384 
L 556.8397 23.294537 
L 557.459078 28.029462 
L 557.743454 36.622207 
L 558.43799 46.803181 
L 558.695445 48.943755 
L 558.974965 50.106654 
L 559.210968 50.219589 
L 559.509203 49.144806 
L 559.92538 43.773017 
L 560.468553 40.934951 
L 560.945158 35.184488 
L 561.37958 31.249467 
L 561.675585 32.054185 
L 562.153707 37.974234 
L 563.168071 44.591429 
L 563.663332 46.874807 
L 564.063923 45.864814 
L 564.602546 35.93865 
L 565.099238 33.767612 
L 565.376283 34.243506 
L 566.154132 38.401583 
L 566.41619 40.678169 
L 566.807687 42.929058 
L 566.871061 45.239242 
L 567.109206 46.169896 
L 567.602314 44.726556 
L 567.889683 42.908072 
L 568.067008 39.910508 
L 568.666409 34.894615 
L 568.905048 33.755262 
L 569.258048 34.185261 
L 569.495961 35.981948 
L 569.556614 37.785457 
L 569.830097 38.899766 
L 570.180186 38.190386 
L 570.296782 37.666136 
L 570.596187 37.780794 
L 570.840372 38.674095 
L 571.312124 41.267872 
L 571.551927 41.872846 
L 571.854597 40.595899 
L 572.030259 38.507025 
L 572.327643 37.807621 
L 573.047077 45.148591 
L 573.343047 44.004075 
L 573.705169 41.110736 
L 573.889969 38.503394 
L 574.05876 37.980346 
L 574.789855 42.053146 
L 575.266685 38.830012 
L 575.509254 39.100252 
L 575.806683 42.347357 
L 575.982989 45.998363 
L 576.28069 47.440946 
L 576.639918 44.968902 
L 576.819632 41.221862 
L 577.176708 39.272726 
L 577.414148 40.23285 
L 577.715511 44.954647 
L 577.951032 44.530968 
L 578.55534 39.678451 
L 578.728967 40.76215 
L 579.234913 45.709427 
L 579.471695 45.017611 
L 580.001437 40.914632 
L 580.238885 40.647791 
L 580.67193 41.619678 
L 580.954797 41.116073 
L 581.193618 40.020214 
L 581.503861 40.101939 
L 581.67021 41.173438 
L 582.167232 42.852308 
L 582.685641 40.916268 
L 582.987025 41.459323 
L 583.282015 43.543496 
L 583.519781 46.877104 
L 583.93793 46.560469 
L 584.35554 41.906884 
L 584.712611 41.759156 
L 585.071395 47.607268 
L 585.399086 46.960212 
L 585.63542 44.307105 
L 585.908154 37.866957 
L 586.150599 36.212141 
L 586.440302 37.139971 
L 586.619088 39.629102 
L 586.989148 41.62865 
L 587.158906 41.70666 
L 587.635596 38.947877 
L 587.875755 38.921745 
L 588.119341 40.540091 
L 588.64969 45.575693 
L 588.888745 44.984814 
L 589.128115 42.000895 
L 589.546397 40.109565 
L 589.612081 40.355997 
L 589.849898 41.718799 
L 590.201208 42.224639 
L 590.339608 42.112998 
L 590.564453 42.433358 
L 590.858037 43.186256 
L 591.098088 43.01126 
L 591.336211 42.139747 
L 591.644742 42.351527 
L 591.94111 43.405192 
L 592.179709 42.081383 
L 592.35766 40.42636 
L 592.599352 42.038126 
L 592.95496 43.582654 
L 593.612706 40.303412 
L 594.265573 43.092622 
L 594.510253 42.726784 
L 595.041953 41.385845 
L 595.294118 41.527583 
L 595.995268 42.816111 
L 596.26267 43.215538 
L 596.502813 41.930342 
L 596.502813 41.930342 
" clip-path="url(#pd1b86f5cd2)" style="fill: none; stroke: #ff0000; stroke-opacity: 0.5; stroke-width: 1.5; stroke-linecap: square"/>
   </g>
   <g id="patch_3">
    <path d="M 38.502813 277.92 
L 38.502813 0.72 
" style="fill: none; stroke: #000000; stroke-width: 0.8; stroke-linejoin: miter; stroke-linecap: square"/>
   </g>
   <g id="patch_4">
    <path d="M 596.502813 277.92 
L 596.502813 0.72 
" style="fill: none; stroke: #000000; stroke-width: 0.8; stroke-linejoin: miter; stroke-linecap: square"/>
   </g>
   <g id="patch_5">
    <path d="M 38.502813 277.92 
L 596.502813 277.92 
" style="fill: none; stroke: #000000; stroke-width: 0.8; stroke-linejoin: miter; stroke-linecap: square"/>
   </g>
   <g id="patch_6">
    <path d="M 38.502813 0.72 
L 596.502813 0.72 
" style="fill: none; stroke: #000000; stroke-width: 0.8; stroke-linejoin: miter; stroke-linecap: square"/>
   </g>
   <g id="legend_1">
    <g id="patch_7">
     <path d="M 45.502813 38.07625 
L 119.271563 38.07625 
Q 121.271563 38.07625 121.271563 36.07625 
L 121.271563 7.72 
Q 121.271563 5.72 119.271563 5.72 
L 45.502813 5.72 
Q 43.502813 5.72 43.502813 7.72 
L 43.502813 36.07625 
Q 43.502813 38.07625 45.502813 38.07625 
z
" style="fill: #ffffff; opacity: 0.8; stroke: #cccccc; stroke-linejoin: miter"/>
    </g>
    <g id="line2d_29">
     <path d="M 47.502813 13.818438 
L 57.502813 13.818438 
L 67.502813 13.818438 
" style="fill: none; stroke: #0000ff; stroke-opacity: 0.5; stroke-width: 1.5; stroke-linecap: square"/>
    </g>
    <g id="text_16">
     <!-- RNEA -->
     <g transform="translate(75.502813 17.318438) scale(0.1 -0.1)">
      <defs>
       <path id="DejaVuSans-52" d="M 2841 2188 
Q 3044 2119 3236 1894 
Q 3428 1669 3622 1275 
L 4263 0 
L 3584 0 
L 2988 1197 
Q 2756 1666 2539 1819 
Q 2322 1972 1947 1972 
L 1259 1972 
L 1259 0 
L 628 0 
L 628 4666 
L 2053 4666 
Q 2853 4666 3247 4331 
Q 3641 3997 3641 3322 
Q 3641 2881 3436 2590 
Q 3231 2300 2841 2188 
z
M 1259 4147 
L 1259 2491 
L 2053 2491 
Q 2509 2491 2742 2702 
Q 2975 2913 2975 3322 
Q 2975 3731 2742 3939 
Q 2509 4147 2053 4147 
L 1259 4147 
z
" transform="scale(0.015625)"/>
       <path id="DejaVuSans-45" d="M 628 4666 
L 3578 4666 
L 3578 4134 
L 1259 4134 
L 1259 2753 
L 3481 2753 
L 3481 2222 
L 1259 2222 
L 1259 531 
L 3634 531 
L 3634 0 
L 628 0 
L 628 4666 
z
" transform="scale(0.015625)"/>
       <path id="DejaVuSans-41" d="M 2188 4044 
L 1331 1722 
L 3047 1722 
L 2188 4044 
z
M 1831 4666 
L 2547 4666 
L 4325 0 
L 3669 0 
L 3244 1197 
L 1141 1197 
L 716 0 
L 50 0 
L 1831 4666 
z
" transform="scale(0.015625)"/>
      </defs>
      <use xlink:href="#DejaVuSans-52"/>
      <use xlink:href="#DejaVuSans-4e" x="69.482422"/>
      <use xlink:href="#DejaVuSans-45" x="144.287109"/>
      <use xlink:href="#DejaVuSans-41" x="207.470703"/>
     </g>
    </g>
    <g id="line2d_30">
     <path d="M 47.502813 28.496563 
L 57.502813 28.496563 
L 67.502813 28.496563 
" style="fill: none; stroke: #ff0000; stroke-opacity: 0.5; stroke-width: 1.5; stroke-linecap: square"/>
    </g>
    <g id="text_17">
     <!-- BURNEA -->
     <g transform="translate(75.502813 31.996563) scale(0.1 -0.1)">
      <defs>
       <path id="DejaVuSans-42" d="M 1259 2228 
L 1259 519 
L 2272 519 
Q 2781 519 3026 730 
Q 3272 941 3272 1375 
Q 3272 1813 3026 2020 
Q 2781 2228 2272 2228 
L 1259 2228 
z
M 1259 4147 
L 1259 2741 
L 2194 2741 
Q 2656 2741 2882 2914 
Q 3109 3088 3109 3444 
Q 3109 3797 2882 3972 
Q 2656 4147 2194 4147 
L 1259 4147 
z
M 628 4666 
L 2241 4666 
Q 2963 4666 3353 4366 
Q 3744 4066 3744 3513 
Q 3744 3084 3544 2831 
Q 3344 2578 2956 2516 
Q 3422 2416 3680 2098 
Q 3938 1781 3938 1306 
Q 3938 681 3513 340 
Q 3088 0 2303 0 
L 628 0 
L 628 4666 
z
" transform="scale(0.015625)"/>
       <path id="DejaVuSans-55" d="M 556 4666 
L 1191 4666 
L 1191 1831 
Q 1191 1081 1462 751 
Q 1734 422 2344 422 
Q 2950 422 3222 751 
Q 3494 1081 3494 1831 
L 3494 4666 
L 4128 4666 
L 4128 1753 
Q 4128 841 3676 375 
Q 3225 -91 2344 -91 
Q 1459 -91 1007 375 
Q 556 841 556 1753 
L 556 4666 
z
" transform="scale(0.015625)"/>
      </defs>
      <use xlink:href="#DejaVuSans-42"/>
      <use xlink:href="#DejaVuSans-55" x="68.603516"/>
      <use xlink:href="#DejaVuSans-52" x="141.796875"/>
      <use xlink:href="#DejaVuSans-4e" x="211.279297"/>
      <use xlink:href="#DejaVuSans-45" x="286.083984"/>
      <use xlink:href="#DejaVuSans-41" x="349.267578"/>
     </g>
    </g>
   </g>
  </g>
 </g>
 <defs>
  <clipPath id="pd1b86f5cd2">
   <rect x="38.502813" y="0.72" width="558" height="277.2"/>
  </clipPath>
 </defs>
</svg>
