<?xml version="1.0" encoding="utf-8" standalone="no"?>
<!DOCTYPE svg PUBLIC "-//W3C//DTD SVG 1.1//EN"
  "http://www.w3.org/Graphics/SVG/1.1/DTD/svg11.dtd">
<svg xmlns:xlink="http://www.w3.org/1999/xlink" width="316.205625pt" height="166.39625pt" viewBox="0 0 316.205625 166.39625" xmlns="http://www.w3.org/2000/svg" version="1.1">
 <metadata>
  <rdf:RDF xmlns:dc="http://purl.org/dc/elements/1.1/" xmlns:cc="http://creativecommons.org/ns#" xmlns:rdf="http://www.w3.org/1999/02/22-rdf-syntax-ns#">
   <cc:Work>
    <dc:type rdf:resource="http://purl.org/dc/dcmitype/StillImage"/>
    <dc:date>2023-09-07T03:31:16.754785</dc:date>
    <dc:format>image/svg+xml</dc:format>
    <dc:creator>
     <cc:Agent>
      <dc:title>Matplotlib v3.7.2, https://matplotlib.org/</dc:title>
     </cc:Agent>
    </dc:creator>
   </cc:Work>
  </rdf:RDF>
 </metadata>
 <defs>
  <style type="text/css">*{stroke-linejoin: round; stroke-linecap: butt}</style>
 </defs>
 <g id="figure_1">
  <g id="patch_1">
   <path d="M 0 166.39625 
L 316.205625 166.39625 
L 316.205625 0 
L 0 0 
L 0 166.39625 
z
" style="fill: none"/>
  </g>
  <g id="axes_1">
   <g id="patch_2">
    <path d="M 36.485625 139.32 
L 315.485625 139.32 
L 315.485625 0.72 
L 36.485625 0.72 
L 36.485625 139.32 
z
" style="fill: none"/>
   </g>
   <g id="matplotlib.axis_1">
    <g id="xtick_1">
     <g id="line2d_1">
      <path d="M 36.485625 139.32 
L 36.485625 0.72 
" clip-path="url(#p1940756464)" style="fill: none; stroke-dasharray: 0.8,1.32; stroke-dashoffset: 0; stroke: #000000; stroke-opacity: 0.5; stroke-width: 0.8"/>
     </g>
     <g id="line2d_2">
      <defs>
       <path id="m6b6fbbe7b6" d="M 0 0 
L 0 3.5 
" style="stroke: #000000; stroke-width: 0.8"/>
      </defs>
      <g>
       <use xlink:href="#m6b6fbbe7b6" x="36.485625" y="139.32" style="stroke: #000000; stroke-width: 0.8"/>
      </g>
     </g>
     <g id="text_1">
      <!-- 0 -->
      <g transform="translate(33.304375 153.918437) scale(0.1 -0.1)">
       <defs>
        <path id="DejaVuSans-30" d="M 2034 4250 
Q 1547 4250 1301 3770 
Q 1056 3291 1056 2328 
Q 1056 1369 1301 889 
Q 1547 409 2034 409 
Q 2525 409 2770 889 
Q 3016 1369 3016 2328 
Q 3016 3291 2770 3770 
Q 2525 4250 2034 4250 
z
M 2034 4750 
Q 2819 4750 3233 4129 
Q 3647 3509 3647 2328 
Q 3647 1150 3233 529 
Q 2819 -91 2034 -91 
Q 1250 -91 836 529 
Q 422 1150 422 2328 
Q 422 3509 836 4129 
Q 1250 4750 2034 4750 
z
" transform="scale(0.015625)"/>
       </defs>
       <use xlink:href="#DejaVuSans-30"/>
      </g>
     </g>
    </g>
    <g id="xtick_2">
     <g id="line2d_3">
      <path d="M 79.100526 139.32 
L 79.100526 0.72 
" clip-path="url(#p1940756464)" style="fill: none; stroke-dasharray: 0.8,1.32; stroke-dashoffset: 0; stroke: #000000; stroke-opacity: 0.5; stroke-width: 0.8"/>
     </g>
     <g id="line2d_4">
      <g>
       <use xlink:href="#m6b6fbbe7b6" x="79.100526" y="139.32" style="stroke: #000000; stroke-width: 0.8"/>
      </g>
     </g>
     <g id="text_2">
      <!-- 5 -->
      <g transform="translate(75.919276 153.918437) scale(0.1 -0.1)">
       <defs>
        <path id="DejaVuSans-35" d="M 691 4666 
L 3169 4666 
L 3169 4134 
L 1269 4134 
L 1269 2991 
Q 1406 3038 1543 3061 
Q 1681 3084 1819 3084 
Q 2600 3084 3056 2656 
Q 3513 2228 3513 1497 
Q 3513 744 3044 326 
Q 2575 -91 1722 -91 
Q 1428 -91 1123 -41 
Q 819 9 494 109 
L 494 744 
Q 775 591 1075 516 
Q 1375 441 1709 441 
Q 2250 441 2565 725 
Q 2881 1009 2881 1497 
Q 2881 1984 2565 2268 
Q 2250 2553 1709 2553 
Q 1456 2553 1204 2497 
Q 953 2441 691 2322 
L 691 4666 
z
" transform="scale(0.015625)"/>
       </defs>
       <use xlink:href="#DejaVuSans-35"/>
      </g>
     </g>
    </g>
    <g id="xtick_3">
     <g id="line2d_5">
      <path d="M 121.715426 139.32 
L 121.715426 0.72 
" clip-path="url(#p1940756464)" style="fill: none; stroke-dasharray: 0.8,1.32; stroke-dashoffset: 0; stroke: #000000; stroke-opacity: 0.5; stroke-width: 0.8"/>
     </g>
     <g id="line2d_6">
      <g>
       <use xlink:href="#m6b6fbbe7b6" x="121.715426" y="139.32" style="stroke: #000000; stroke-width: 0.8"/>
      </g>
     </g>
     <g id="text_3">
      <!-- 10 -->
      <g transform="translate(115.352926 153.918437) scale(0.1 -0.1)">
       <defs>
        <path id="DejaVuSans-31" d="M 794 531 
L 1825 531 
L 1825 4091 
L 703 3866 
L 703 4441 
L 1819 4666 
L 2450 4666 
L 2450 531 
L 3481 531 
L 3481 0 
L 794 0 
L 794 531 
z
" transform="scale(0.015625)"/>
       </defs>
       <use xlink:href="#DejaVuSans-31"/>
       <use xlink:href="#DejaVuSans-30" x="63.623047"/>
      </g>
     </g>
    </g>
    <g id="xtick_4">
     <g id="line2d_7">
      <path d="M 164.330327 139.32 
L 164.330327 0.72 
" clip-path="url(#p1940756464)" style="fill: none; stroke-dasharray: 0.8,1.32; stroke-dashoffset: 0; stroke: #000000; stroke-opacity: 0.5; stroke-width: 0.8"/>
     </g>
     <g id="line2d_8">
      <g>
       <use xlink:href="#m6b6fbbe7b6" x="164.330327" y="139.32" style="stroke: #000000; stroke-width: 0.8"/>
      </g>
     </g>
     <g id="text_4">
      <!-- 15 -->
      <g transform="translate(157.967827 153.918437) scale(0.1 -0.1)">
       <use xlink:href="#DejaVuSans-31"/>
       <use xlink:href="#DejaVuSans-35" x="63.623047"/>
      </g>
     </g>
    </g>
    <g id="xtick_5">
     <g id="line2d_9">
      <path d="M 206.945227 139.32 
L 206.945227 0.72 
" clip-path="url(#p1940756464)" style="fill: none; stroke-dasharray: 0.8,1.32; stroke-dashoffset: 0; stroke: #000000; stroke-opacity: 0.5; stroke-width: 0.8"/>
     </g>
     <g id="line2d_10">
      <g>
       <use xlink:href="#m6b6fbbe7b6" x="206.945227" y="139.32" style="stroke: #000000; stroke-width: 0.8"/>
      </g>
     </g>
     <g id="text_5">
      <!-- 20 -->
      <g transform="translate(200.582727 153.918437) scale(0.1 -0.1)">
       <defs>
        <path id="DejaVuSans-32" d="M 1228 531 
L 3431 531 
L 3431 0 
L 469 0 
L 469 531 
Q 828 903 1448 1529 
Q 2069 2156 2228 2338 
Q 2531 2678 2651 2914 
Q 2772 3150 2772 3378 
Q 2772 3750 2511 3984 
Q 2250 4219 1831 4219 
Q 1534 4219 1204 4116 
Q 875 4013 500 3803 
L 500 4441 
Q 881 4594 1212 4672 
Q 1544 4750 1819 4750 
Q 2544 4750 2975 4387 
Q 3406 4025 3406 3419 
Q 3406 3131 3298 2873 
Q 3191 2616 2906 2266 
Q 2828 2175 2409 1742 
Q 1991 1309 1228 531 
z
" transform="scale(0.015625)"/>
       </defs>
       <use xlink:href="#DejaVuSans-32"/>
       <use xlink:href="#DejaVuSans-30" x="63.623047"/>
      </g>
     </g>
    </g>
    <g id="xtick_6">
     <g id="line2d_11">
      <path d="M 249.560128 139.32 
L 249.560128 0.72 
" clip-path="url(#p1940756464)" style="fill: none; stroke-dasharray: 0.8,1.32; stroke-dashoffset: 0; stroke: #000000; stroke-opacity: 0.5; stroke-width: 0.8"/>
     </g>
     <g id="line2d_12">
      <g>
       <use xlink:href="#m6b6fbbe7b6" x="249.560128" y="139.32" style="stroke: #000000; stroke-width: 0.8"/>
      </g>
     </g>
     <g id="text_6">
      <!-- 25 -->
      <g transform="translate(243.197628 153.918437) scale(0.1 -0.1)">
       <use xlink:href="#DejaVuSans-32"/>
       <use xlink:href="#DejaVuSans-35" x="63.623047"/>
      </g>
     </g>
    </g>
    <g id="xtick_7">
     <g id="line2d_13">
      <path d="M 292.175028 139.32 
L 292.175028 0.72 
" clip-path="url(#p1940756464)" style="fill: none; stroke-dasharray: 0.8,1.32; stroke-dashoffset: 0; stroke: #000000; stroke-opacity: 0.5; stroke-width: 0.8"/>
     </g>
     <g id="line2d_14">
      <g>
       <use xlink:href="#m6b6fbbe7b6" x="292.175028" y="139.32" style="stroke: #000000; stroke-width: 0.8"/>
      </g>
     </g>
     <g id="text_7">
      <!-- 30 -->
      <g transform="translate(285.812528 153.918437) scale(0.1 -0.1)">
       <defs>
        <path id="DejaVuSans-33" d="M 2597 2516 
Q 3050 2419 3304 2112 
Q 3559 1806 3559 1356 
Q 3559 666 3084 287 
Q 2609 -91 1734 -91 
Q 1441 -91 1130 -33 
Q 819 25 488 141 
L 488 750 
Q 750 597 1062 519 
Q 1375 441 1716 441 
Q 2309 441 2620 675 
Q 2931 909 2931 1356 
Q 2931 1769 2642 2001 
Q 2353 2234 1838 2234 
L 1294 2234 
L 1294 2753 
L 1863 2753 
Q 2328 2753 2575 2939 
Q 2822 3125 2822 3475 
Q 2822 3834 2567 4026 
Q 2313 4219 1838 4219 
Q 1578 4219 1281 4162 
Q 984 4106 628 3988 
L 628 4550 
Q 988 4650 1302 4700 
Q 1616 4750 1894 4750 
Q 2613 4750 3031 4423 
Q 3450 4097 3450 3541 
Q 3450 3153 3228 2886 
Q 3006 2619 2597 2516 
z
" transform="scale(0.015625)"/>
       </defs>
       <use xlink:href="#DejaVuSans-33"/>
       <use xlink:href="#DejaVuSans-30" x="63.623047"/>
      </g>
     </g>
    </g>
    <g id="text_8">
     <!-- Zeit [s] -->
     <g transform="translate(158.039531 163.596562) scale(0.1 -0.1)">
      <defs>
       <path id="DejaVuSans-5a" d="M 359 4666 
L 4025 4666 
L 4025 4184 
L 1075 531 
L 4097 531 
L 4097 0 
L 288 0 
L 288 481 
L 3238 4134 
L 359 4134 
L 359 4666 
z
" transform="scale(0.015625)"/>
       <path id="DejaVuSans-65" d="M 3597 1894 
L 3597 1613 
L 953 1613 
Q 991 1019 1311 708 
Q 1631 397 2203 397 
Q 2534 397 2845 478 
Q 3156 559 3463 722 
L 3463 178 
Q 3153 47 2828 -22 
Q 2503 -91 2169 -91 
Q 1331 -91 842 396 
Q 353 884 353 1716 
Q 353 2575 817 3079 
Q 1281 3584 2069 3584 
Q 2775 3584 3186 3129 
Q 3597 2675 3597 1894 
z
M 3022 2063 
Q 3016 2534 2758 2815 
Q 2500 3097 2075 3097 
Q 1594 3097 1305 2825 
Q 1016 2553 972 2059 
L 3022 2063 
z
" transform="scale(0.015625)"/>
       <path id="DejaVuSans-69" d="M 603 3500 
L 1178 3500 
L 1178 0 
L 603 0 
L 603 3500 
z
M 603 4863 
L 1178 4863 
L 1178 4134 
L 603 4134 
L 603 4863 
z
" transform="scale(0.015625)"/>
       <path id="DejaVuSans-74" d="M 1172 4494 
L 1172 3500 
L 2356 3500 
L 2356 3053 
L 1172 3053 
L 1172 1153 
Q 1172 725 1289 603 
Q 1406 481 1766 481 
L 2356 481 
L 2356 0 
L 1766 0 
Q 1100 0 847 248 
Q 594 497 594 1153 
L 594 3053 
L 172 3053 
L 172 3500 
L 594 3500 
L 594 4494 
L 1172 4494 
z
" transform="scale(0.015625)"/>
       <path id="DejaVuSans-20" transform="scale(0.015625)"/>
       <path id="DejaVuSans-5b" d="M 550 4863 
L 1875 4863 
L 1875 4416 
L 1125 4416 
L 1125 -397 
L 1875 -397 
L 1875 -844 
L 550 -844 
L 550 4863 
z
" transform="scale(0.015625)"/>
       <path id="DejaVuSans-73" d="M 2834 3397 
L 2834 2853 
Q 2591 2978 2328 3040 
Q 2066 3103 1784 3103 
Q 1356 3103 1142 2972 
Q 928 2841 928 2578 
Q 928 2378 1081 2264 
Q 1234 2150 1697 2047 
L 1894 2003 
Q 2506 1872 2764 1633 
Q 3022 1394 3022 966 
Q 3022 478 2636 193 
Q 2250 -91 1575 -91 
Q 1294 -91 989 -36 
Q 684 19 347 128 
L 347 722 
Q 666 556 975 473 
Q 1284 391 1588 391 
Q 1994 391 2212 530 
Q 2431 669 2431 922 
Q 2431 1156 2273 1281 
Q 2116 1406 1581 1522 
L 1381 1569 
Q 847 1681 609 1914 
Q 372 2147 372 2553 
Q 372 3047 722 3315 
Q 1072 3584 1716 3584 
Q 2034 3584 2315 3537 
Q 2597 3491 2834 3397 
z
" transform="scale(0.015625)"/>
       <path id="DejaVuSans-5d" d="M 1947 4863 
L 1947 -844 
L 622 -844 
L 622 -397 
L 1369 -397 
L 1369 4416 
L 622 4416 
L 622 4863 
L 1947 4863 
z
" transform="scale(0.015625)"/>
      </defs>
      <use xlink:href="#DejaVuSans-5a"/>
      <use xlink:href="#DejaVuSans-65" x="68.505859"/>
      <use xlink:href="#DejaVuSans-69" x="130.029297"/>
      <use xlink:href="#DejaVuSans-74" x="157.8125"/>
      <use xlink:href="#DejaVuSans-20" x="197.021484"/>
      <use xlink:href="#DejaVuSans-5b" x="228.808594"/>
      <use xlink:href="#DejaVuSans-73" x="267.822266"/>
      <use xlink:href="#DejaVuSans-5d" x="319.921875"/>
     </g>
    </g>
   </g>
   <g id="matplotlib.axis_2">
    <g id="ytick_1">
     <g id="line2d_15">
      <path d="M 36.485625 132.371217 
L 315.485625 132.371217 
" clip-path="url(#p1940756464)" style="fill: none; stroke-dasharray: 0.8,1.32; stroke-dashoffset: 0; stroke: #000000; stroke-opacity: 0.5; stroke-width: 0.8"/>
     </g>
     <g id="line2d_16">
      <defs>
       <path id="m01f0d359ff" d="M 0 0 
L -3.5 0 
" style="stroke: #000000; stroke-width: 0.8"/>
      </defs>
      <g>
       <use xlink:href="#m01f0d359ff" x="36.485625" y="132.371217" style="stroke: #000000; stroke-width: 0.8"/>
      </g>
     </g>
     <g id="text_9">
      <!-- 140 -->
      <g transform="translate(10.398125 136.170436) scale(0.1 -0.1)">
       <defs>
        <path id="DejaVuSans-34" d="M 2419 4116 
L 825 1625 
L 2419 1625 
L 2419 4116 
z
M 2253 4666 
L 3047 4666 
L 3047 1625 
L 3713 1625 
L 3713 1100 
L 3047 1100 
L 3047 0 
L 2419 0 
L 2419 1100 
L 313 1100 
L 313 1709 
L 2253 4666 
z
" transform="scale(0.015625)"/>
       </defs>
       <use xlink:href="#DejaVuSans-31"/>
       <use xlink:href="#DejaVuSans-34" x="63.623047"/>
       <use xlink:href="#DejaVuSans-30" x="127.246094"/>
      </g>
     </g>
    </g>
    <g id="ytick_2">
     <g id="line2d_17">
      <path d="M 36.485625 93.557477 
L 315.485625 93.557477 
" clip-path="url(#p1940756464)" style="fill: none; stroke-dasharray: 0.8,1.32; stroke-dashoffset: 0; stroke: #000000; stroke-opacity: 0.5; stroke-width: 0.8"/>
     </g>
     <g id="line2d_18">
      <g>
       <use xlink:href="#m01f0d359ff" x="36.485625" y="93.557477" style="stroke: #000000; stroke-width: 0.8"/>
      </g>
     </g>
     <g id="text_10">
      <!-- 150 -->
      <g transform="translate(10.398125 97.356696) scale(0.1 -0.1)">
       <use xlink:href="#DejaVuSans-31"/>
       <use xlink:href="#DejaVuSans-35" x="63.623047"/>
       <use xlink:href="#DejaVuSans-30" x="127.246094"/>
      </g>
     </g>
    </g>
    <g id="ytick_3">
     <g id="line2d_19">
      <path d="M 36.485625 54.743737 
L 315.485625 54.743737 
" clip-path="url(#p1940756464)" style="fill: none; stroke-dasharray: 0.8,1.32; stroke-dashoffset: 0; stroke: #000000; stroke-opacity: 0.5; stroke-width: 0.8"/>
     </g>
     <g id="line2d_20">
      <g>
       <use xlink:href="#m01f0d359ff" x="36.485625" y="54.743737" style="stroke: #000000; stroke-width: 0.8"/>
      </g>
     </g>
     <g id="text_11">
      <!-- 160 -->
      <g transform="translate(10.398125 58.542956) scale(0.1 -0.1)">
       <defs>
        <path id="DejaVuSans-36" d="M 2113 2584 
Q 1688 2584 1439 2293 
Q 1191 2003 1191 1497 
Q 1191 994 1439 701 
Q 1688 409 2113 409 
Q 2538 409 2786 701 
Q 3034 994 3034 1497 
Q 3034 2003 2786 2293 
Q 2538 2584 2113 2584 
z
M 3366 4563 
L 3366 3988 
Q 3128 4100 2886 4159 
Q 2644 4219 2406 4219 
Q 1781 4219 1451 3797 
Q 1122 3375 1075 2522 
Q 1259 2794 1537 2939 
Q 1816 3084 2150 3084 
Q 2853 3084 3261 2657 
Q 3669 2231 3669 1497 
Q 3669 778 3244 343 
Q 2819 -91 2113 -91 
Q 1303 -91 875 529 
Q 447 1150 447 2328 
Q 447 3434 972 4092 
Q 1497 4750 2381 4750 
Q 2619 4750 2861 4703 
Q 3103 4656 3366 4563 
z
" transform="scale(0.015625)"/>
       </defs>
       <use xlink:href="#DejaVuSans-31"/>
       <use xlink:href="#DejaVuSans-36" x="63.623047"/>
       <use xlink:href="#DejaVuSans-30" x="127.246094"/>
      </g>
     </g>
    </g>
    <g id="ytick_4">
     <g id="line2d_21">
      <path d="M 36.485625 15.929997 
L 315.485625 15.929997 
" clip-path="url(#p1940756464)" style="fill: none; stroke-dasharray: 0.8,1.32; stroke-dashoffset: 0; stroke: #000000; stroke-opacity: 0.5; stroke-width: 0.8"/>
     </g>
     <g id="line2d_22">
      <g>
       <use xlink:href="#m01f0d359ff" x="36.485625" y="15.929997" style="stroke: #000000; stroke-width: 0.8"/>
      </g>
     </g>
     <g id="text_12">
      <!-- 170 -->
      <g transform="translate(10.398125 19.729216) scale(0.1 -0.1)">
       <defs>
        <path id="DejaVuSans-37" d="M 525 4666 
L 3525 4666 
L 3525 4397 
L 1831 0 
L 1172 0 
L 2766 4134 
L 525 4134 
L 525 4666 
z
" transform="scale(0.015625)"/>
       </defs>
       <use xlink:href="#DejaVuSans-31"/>
       <use xlink:href="#DejaVuSans-37" x="63.623047"/>
       <use xlink:href="#DejaVuSans-30" x="127.246094"/>
      </g>
     </g>
    </g>
    <g id="text_13">
     <!-- 2-Norm F [N] -->
     <g transform="translate(8.318438 102.339531) rotate(-90) scale(0.1 -0.1)">
      <defs>
       <path id="DejaVuSans-2d" d="M 313 2009 
L 1997 2009 
L 1997 1497 
L 313 1497 
L 313 2009 
z
" transform="scale(0.015625)"/>
       <path id="DejaVuSans-4e" d="M 628 4666 
L 1478 4666 
L 3547 763 
L 3547 4666 
L 4159 4666 
L 4159 0 
L 3309 0 
L 1241 3903 
L 1241 0 
L 628 0 
L 628 4666 
z
" transform="scale(0.015625)"/>
       <path id="DejaVuSans-6f" d="M 1959 3097 
Q 1497 3097 1228 2736 
Q 959 2375 959 1747 
Q 959 1119 1226 758 
Q 1494 397 1959 397 
Q 2419 397 2687 759 
Q 2956 1122 2956 1747 
Q 2956 2369 2687 2733 
Q 2419 3097 1959 3097 
z
M 1959 3584 
Q 2709 3584 3137 3096 
Q 3566 2609 3566 1747 
Q 3566 888 3137 398 
Q 2709 -91 1959 -91 
Q 1206 -91 779 398 
Q 353 888 353 1747 
Q 353 2609 779 3096 
Q 1206 3584 1959 3584 
z
" transform="scale(0.015625)"/>
       <path id="DejaVuSans-72" d="M 2631 2963 
Q 2534 3019 2420 3045 
Q 2306 3072 2169 3072 
Q 1681 3072 1420 2755 
Q 1159 2438 1159 1844 
L 1159 0 
L 581 0 
L 581 3500 
L 1159 3500 
L 1159 2956 
Q 1341 3275 1631 3429 
Q 1922 3584 2338 3584 
Q 2397 3584 2469 3576 
Q 2541 3569 2628 3553 
L 2631 2963 
z
" transform="scale(0.015625)"/>
       <path id="DejaVuSans-6d" d="M 3328 2828 
Q 3544 3216 3844 3400 
Q 4144 3584 4550 3584 
Q 5097 3584 5394 3201 
Q 5691 2819 5691 2113 
L 5691 0 
L 5113 0 
L 5113 2094 
Q 5113 2597 4934 2840 
Q 4756 3084 4391 3084 
Q 3944 3084 3684 2787 
Q 3425 2491 3425 1978 
L 3425 0 
L 2847 0 
L 2847 2094 
Q 2847 2600 2669 2842 
Q 2491 3084 2119 3084 
Q 1678 3084 1418 2786 
Q 1159 2488 1159 1978 
L 1159 0 
L 581 0 
L 581 3500 
L 1159 3500 
L 1159 2956 
Q 1356 3278 1631 3431 
Q 1906 3584 2284 3584 
Q 2666 3584 2933 3390 
Q 3200 3197 3328 2828 
z
" transform="scale(0.015625)"/>
       <path id="DejaVuSans-46" d="M 628 4666 
L 3309 4666 
L 3309 4134 
L 1259 4134 
L 1259 2759 
L 3109 2759 
L 3109 2228 
L 1259 2228 
L 1259 0 
L 628 0 
L 628 4666 
z
" transform="scale(0.015625)"/>
      </defs>
      <use xlink:href="#DejaVuSans-32"/>
      <use xlink:href="#DejaVuSans-2d" x="63.623047"/>
      <use xlink:href="#DejaVuSans-4e" x="99.707031"/>
      <use xlink:href="#DejaVuSans-6f" x="174.511719"/>
      <use xlink:href="#DejaVuSans-72" x="235.693359"/>
      <use xlink:href="#DejaVuSans-6d" x="275.056641"/>
      <use xlink:href="#DejaVuSans-20" x="372.46875"/>
      <use xlink:href="#DejaVuSans-46" x="404.255859"/>
      <use xlink:href="#DejaVuSans-20" x="461.775391"/>
      <use xlink:href="#DejaVuSans-5b" x="493.5625"/>
      <use xlink:href="#DejaVuSans-4e" x="532.576172"/>
      <use xlink:href="#DejaVuSans-5d" x="607.380859"/>
     </g>
    </g>
   </g>
   <g id="line2d_23">
    <path d="M 36.485625 5.853333 
L 315.485625 5.853333 
L 315.485625 5.853333 
" clip-path="url(#p1940756464)" style="fill: none; stroke: #0000ff; stroke-opacity: 0.5; stroke-width: 3; stroke-linecap: square"/>
   </g>
   <g id="line2d_24">
    <path d="M 36.485625 126.924251 
L 36.692975 130.060821 
L 36.783954 129.624693 
L 36.799073 127.793146 
L 36.849919 128.690352 
L 36.920767 128.533589 
L 36.970513 125.623621 
L 37.037388 126.00438 
L 37.106533 126.694537 
L 37.19325 126.311847 
L 37.267553 127.083192 
L 37.3467 125.070019 
L 37.398011 125.228672 
L 37.535544 126.961335 
L 37.604705 126.004275 
L 37.707884 126.759907 
L 37.827858 125.319879 
L 37.89613 126.65679 
L 37.982215 126.298734 
L 38.102297 127.264626 
L 38.273409 124.402067 
L 38.686732 127.573295 
L 38.806839 127.040791 
L 38.826572 125.999988 
L 38.892828 126.716674 
L 38.962324 126.844196 
L 39.171288 128.555844 
L 39.390485 127.025043 
L 39.666636 130.515955 
L 39.735637 130.114383 
L 39.809072 128.545062 
L 39.880939 128.749785 
L 39.960359 129.993374 
L 40.098262 128.626199 
L 40.37984 126.970489 
L 40.446245 128.390866 
L 40.527187 127.942729 
L 40.802886 125.926438 
L 40.870695 126.111617 
L 41.014364 128.663102 
L 41.165376 127.26389 
L 41.23411 127.637617 
L 41.440825 124.832632 
L 41.578265 126.855938 
L 41.648283 126.347282 
L 41.870849 125.337732 
L 41.940125 124.052012 
L 42.00846 124.569274 
L 42.156427 126.139535 
L 42.217897 125.691627 
L 42.300193 126.255976 
L 42.369092 126.23446 
L 42.519856 124.987857 
L 42.576513 125.61497 
L 42.646326 125.26087 
L 42.783992 126.531413 
L 42.851329 127.137626 
L 43.013101 124.874983 
L 43.075014 123.775598 
L 43.142312 124.232013 
L 43.437662 127.728559 
L 43.504092 126.87836 
L 43.644365 128.368123 
L 44.021643 125.483964 
L 44.279319 128.056949 
L 44.399402 126.404063 
L 44.63921 132.599998 
L 44.708278 131.459442 
L 44.777115 131.017666 
L 44.916501 126.765134 
L 45.004024 127.569252 
L 45.05727 128.574496 
L 45.128784 128.414973 
L 45.48564 126.200858 
L 45.711656 127.675626 
L 45.781837 127.50492 
L 46.004651 128.825094 
L 46.057934 128.550117 
L 46.128276 128.343608 
L 46.284553 126.206052 
L 46.34283 126.777141 
L 46.413092 126.760197 
L 46.505415 126.995885 
L 46.652624 128.561401 
L 46.668696 127.433468 
L 46.810451 124.561829 
L 46.87279 124.678406 
L 46.94912 126.2381 
L 47.138624 128.346927 
L 47.224074 128.019175 
L 47.361328 126.10101 
L 47.567604 129.030496 
L 47.70688 127.234679 
L 47.774235 126.79552 
L 47.985935 128.465859 
L 48.203652 126.411688 
L 48.256465 125.789379 
L 48.420127 129.020975 
L 48.478775 128.779266 
L 48.709409 126.542394 
L 49.06194 130.789675 
L 49.113719 130.593678 
L 49.457212 128.306262 
L 49.525704 128.900636 
L 49.612218 127.857964 
L 49.818347 123.212059 
L 49.903794 123.67816 
L 50.178837 127.702114 
L 50.247424 127.343925 
L 50.333443 127.784752 
L 50.539532 130.082438 
L 50.607793 129.840419 
L 50.934069 125.699752 
L 50.968163 128.032278 
L 51.026474 127.985535 
L 51.105151 126.878205 
L 51.556069 131.448411 
L 51.60485 130.954652 
L 51.673559 128.70872 
L 51.753719 128.810341 
L 51.811139 130.362523 
L 51.982276 129.886725 
L 52.034332 130.146014 
L 52.171154 128.414437 
L 52.412331 130.723253 
L 52.464439 130.27365 
L 52.532889 128.388117 
L 52.601504 128.747264 
L 52.704415 128.673486 
L 52.859056 129.481326 
L 53.01379 128.975482 
L 53.065253 129.073287 
L 53.117154 129.00412 
L 53.215722 128.591628 
L 53.237307 128.734826 
L 53.602488 130.559526 
L 53.757199 128.414006 
L 53.889726 129.615383 
L 54.010925 129.420108 
L 54.067337 129.021615 
L 54.106021 129.732605 
L 54.106094 128.95667 
L 54.174453 129.345117 
L 54.37556 129.6842 
L 54.407609 129.328924 
L 54.425745 130.141447 
L 54.493179 129.961108 
L 54.573228 128.774528 
L 54.5898 129.139605 
L 54.658694 128.518857 
L 54.740723 129.262926 
L 54.819623 129.212793 
L 54.920956 128.58164 
L 55.019715 128.857146 
L 55.091525 128.652193 
L 55.228227 129.371165 
L 55.330636 128.037951 
L 55.365137 130.36138 
L 55.434317 129.848987 
L 55.657443 123.429471 
L 55.725733 124.774144 
L 55.863372 126.883002 
L 55.966285 126.392074 
L 56.021354 128.652224 
L 56.087631 127.984964 
L 56.245644 126.730707 
L 56.383787 128.034104 
L 56.452362 128.886225 
L 56.502095 128.859932 
L 56.674091 128.645512 
L 56.742893 127.222148 
L 56.795412 127.237454 
L 57.069869 129.64216 
L 57.223888 128.501988 
L 57.379975 126.460079 
L 57.448975 126.799219 
L 57.654884 124.609253 
L 57.861086 123.34094 
L 57.877522 123.734856 
L 58.616043 127.10525 
L 59.01676 127.740835 
L 59.391315 127.352763 
L 59.406492 126.295639 
L 59.491651 127.279788 
L 59.561118 128.112682 
L 59.699255 125.940956 
L 59.956487 132.089249 
L 59.975038 130.545127 
L 60.180721 129.526608 
L 60.316809 127.799765 
L 60.439438 129.872671 
L 60.678096 126.852767 
L 60.835723 129.808921 
L 60.908681 130.133497 
L 61.03949 129.16101 
L 61.21138 124.453165 
L 61.263344 124.720992 
L 61.347859 126.205702 
L 61.509848 123.79044 
L 61.605861 123.852123 
L 61.7623 127.4247 
L 61.89814 127.011045 
L 62.087074 124.792321 
L 62.229039 126.10866 
L 62.276256 126.075604 
L 62.367088 125.301465 
L 62.413602 125.694065 
L 62.483207 127.680328 
L 62.547694 126.499242 
L 62.650909 126.162723 
L 62.891415 127.632588 
L 63.045942 127.134221 
L 63.114452 126.672875 
L 63.183428 126.756261 
L 63.337664 127.710159 
L 63.407241 128.149553 
L 63.458451 127.742691 
L 63.612399 128.519371 
L 63.681403 128.414179 
L 63.769118 128.185401 
L 63.904227 126.573264 
L 64.042481 128.037869 
L 64.180094 125.999731 
L 64.31752 123.571016 
L 64.456676 124.652046 
L 64.594045 126.369543 
L 64.747533 124.903429 
L 64.884644 128.676567 
L 65.004037 129.094508 
L 65.021058 130.029497 
L 65.108742 129.28749 
L 65.255163 129.013819 
L 65.25545 129.327184 
L 65.339612 127.644409 
L 65.665164 131.666986 
L 65.83555 134.186667 
L 65.955855 133.824175 
L 66.093254 133.00078 
L 66.316519 129.425009 
L 66.522191 123.869112 
L 66.590519 124.682888 
L 66.710376 124.965161 
L 66.729623 124.89082 
L 66.86622 124.345585 
L 66.950292 125.177632 
L 67.02319 125.019832 
L 67.089023 125.404666 
L 67.297408 128.8474 
L 67.432554 128.970179 
L 67.484097 130.157908 
L 67.522042 130.110364 
L 67.587228 129.82986 
L 67.724368 131.503483 
L 67.793821 131.460872 
L 68.052701 126.813969 
L 68.171184 128.09508 
L 68.360489 126.730389 
L 68.497621 126.121186 
L 68.601986 129.213308 
L 68.806604 127.887886 
L 68.876173 127.086386 
L 68.927053 127.587398 
L 69.082955 128.229769 
L 69.15221 128.806537 
L 69.253542 127.597068 
L 69.32293 127.851307 
L 69.373943 128.780762 
L 69.446113 128.400616 
L 69.509166 127.40412 
L 69.639219 130.934565 
L 69.981579 126.966978 
L 70.031939 125.86085 
L 70.084178 126.400549 
L 70.1345 126.913354 
L 70.220689 126.658349 
L 70.361624 121.291967 
L 70.427568 122.572569 
L 70.496632 124.078746 
L 70.566395 124.053272 
L 70.638718 122.842669 
L 70.705195 123.603976 
L 70.926922 121.848147 
L 71.116003 121.853189 
L 71.132872 124.803352 
L 71.202369 122.530941 
L 71.322612 123.960395 
L 71.425557 126.695544 
L 71.493973 126.713937 
L 71.624751 126.970561 
L 71.701281 129.850762 
L 71.76816 128.374819 
L 71.785209 128.637534 
L 71.896186 129.582604 
L 71.927523 131.177452 
L 72.130826 127.502661 
L 72.271289 127.741731 
L 72.33585 127.873203 
L 72.525956 124.521621 
L 72.560287 124.422263 
L 72.699244 123.551166 
L 72.739652 123.865396 
L 72.767492 123.890073 
L 72.922736 124.965293 
L 73.010909 124.630492 
L 73.049502 123.947351 
L 73.198037 126.623552 
L 73.327459 126.048759 
L 73.472476 124.01587 
L 73.601242 124.778888 
L 73.638622 124.720505 
L 73.988931 120.35992 
L 74.405425 127.061389 
L 74.490316 127.070292 
L 74.559115 127.410893 
L 74.614434 128.438757 
L 74.696113 128.390353 
L 74.833723 130.200531 
L 74.902126 129.648592 
L 75.113318 127.689922 
L 75.126755 130.090542 
L 75.195737 127.943209 
L 75.248068 127.905275 
L 75.351879 127.042508 
L 75.402363 128.068479 
L 75.557335 125.304351 
L 75.612012 125.891242 
L 75.69656 128.215443 
L 75.711188 126.811884 
L 75.831986 125.489101 
L 76.039786 128.085352 
L 76.212014 126.214839 
L 76.334074 127.508581 
L 76.383264 125.938225 
L 76.539118 127.030689 
L 76.624602 125.858162 
L 76.696912 126.204487 
L 76.745218 126.270997 
L 76.883052 128.046546 
L 77.006838 127.941415 
L 77.023735 127.736884 
L 77.112299 128.724573 
L 77.178671 128.536328 
L 77.249203 128.129552 
L 77.45272 129.822345 
L 77.882766 125.830984 
L 78.020369 126.954391 
L 78.106357 126.725283 
L 78.242913 125.027373 
L 78.660759 129.989268 
L 78.795284 126.894112 
L 78.863853 127.06461 
L 78.966577 128.937261 
L 79.018379 128.676898 
L 79.172389 130.60569 
L 79.657147 124.678153 
L 79.8529 123.128064 
L 79.998193 125.245194 
L 80.088481 126.886988 
L 80.447201 129.112171 
L 80.531883 128.893906 
L 80.669996 126.701899 
L 80.789414 127.380283 
L 81.166775 125.752906 
L 81.236681 125.969795 
L 81.287571 126.682493 
L 81.442875 125.044441 
L 81.617289 126.467297 
L 81.873673 125.156305 
L 81.928036 123.727289 
L 81.994666 123.96949 
L 82.166659 125.066118 
L 82.317134 123.585211 
L 82.43283 126.720104 
L 82.52402 125.456591 
L 82.598097 125.382857 
L 82.75293 127.607969 
L 82.791904 126.428914 
L 82.941746 128.698446 
L 82.992986 128.659225 
L 83.130754 128.820841 
L 83.18422 128.116273 
L 83.219515 129.281809 
L 83.274447 129.269228 
L 83.426155 129.229142 
L 83.495769 130.007647 
L 83.562954 128.777304 
L 83.631512 129.194365 
L 83.701067 129.757641 
L 83.771726 128.606846 
L 83.856643 128.338456 
L 83.930191 126.841189 
L 83.992894 128.336832 
L 84.060913 127.895914 
L 84.205391 126.480425 
L 84.26814 126.609754 
L 84.346952 126.031993 
L 84.422386 126.251918 
L 84.490167 126.31751 
L 84.560385 125.962956 
L 84.62708 127.549189 
L 84.700412 127.311758 
L 84.766973 126.587707 
L 84.987635 129.273842 
L 85.057246 129.071242 
L 85.125212 128.767804 
L 85.193481 129.764497 
L 85.264413 129.656672 
L 85.417323 126.231342 
L 85.55518 128.344381 
L 85.62386 128.293141 
L 85.761313 127.646175 
L 85.829699 127.902588 
L 85.985208 127.318777 
L 86.12311 128.991912 
L 86.190936 128.653856 
L 86.330837 126.619708 
L 86.483238 128.681074 
L 86.757977 129.689569 
L 86.835129 130.392218 
L 87.137634 126.835203 
L 87.187392 127.517768 
L 87.259212 129.105078 
L 87.410475 127.125115 
L 87.463315 127.874524 
L 87.538815 126.760052 
L 87.685945 128.774707 
L 87.754716 128.773406 
L 87.825395 129.046893 
L 87.961728 126.604667 
L 88.031023 126.868842 
L 88.11746 127.963377 
L 88.173107 127.725255 
L 88.25566 127.618864 
L 88.322791 126.470353 
L 88.39279 126.996034 
L 88.472245 126.645213 
L 88.477877 128.06792 
L 88.530184 127.838562 
L 88.685197 129.471637 
L 88.891933 127.521551 
L 88.943533 128.065257 
L 88.961242 127.602706 
L 89.031109 127.528288 
L 89.192137 126.395888 
L 89.271621 127.137229 
L 89.322792 126.920112 
L 89.392003 126.271716 
L 89.529046 127.965567 
L 89.597504 126.557199 
L 89.666701 127.290767 
L 89.73608 127.903927 
L 89.842316 126.730905 
L 89.893373 127.244542 
L 90.035253 125.77044 
L 90.048772 124.455444 
L 90.099708 125.008025 
L 90.220177 125.042248 
L 90.306048 127.825647 
L 90.461069 127.752058 
L 90.529752 127.317541 
L 90.547048 128.021576 
L 90.754636 127.424001 
L 90.840694 129.280598 
L 90.89309 128.605571 
L 91.218076 123.926228 
L 91.305109 124.632126 
L 91.391499 124.419999 
L 91.443354 125.709616 
L 91.45892 124.069989 
L 91.528414 123.854862 
L 91.683394 122.826968 
L 91.821034 125.796407 
L 91.870872 127.217384 
L 91.940349 126.641835 
L 92.008942 127.899806 
L 92.112894 127.874175 
L 92.181673 127.212231 
L 92.197879 128.948857 
L 92.268471 127.90506 
L 92.353135 129.121635 
L 92.404344 127.993183 
L 92.490575 128.258531 
L 92.577702 127.143003 
L 92.679877 127.609024 
L 92.749381 126.429662 
L 92.800293 128.403891 
L 93.157147 125.446607 
L 93.211763 125.921679 
L 93.246441 126.091823 
L 93.366324 125.734795 
L 93.40918 125.946254 
L 93.538158 123.318205 
L 93.608187 125.035461 
L 93.747599 123.577723 
L 93.796427 125.655722 
L 93.865182 124.909663 
L 94.061224 125.139196 
L 94.080157 124.394879 
L 94.144372 125.639858 
L 94.296671 124.282422 
L 94.365553 125.733018 
L 94.439731 125.718425 
L 94.503591 125.075826 
L 94.880286 127.882516 
L 95.020805 129.499948 
L 95.088368 128.119567 
L 95.140757 128.444347 
L 95.224767 129.543134 
L 95.27706 128.731344 
L 95.41601 128.352329 
L 95.448977 127.445847 
L 95.63653 128.967358 
L 95.812448 128.299532 
L 95.867177 128.327881 
L 95.997246 126.489311 
L 96.067827 127.426301 
L 96.1348 127.187172 
L 96.173829 127.233296 
L 96.430986 125.318862 
L 96.60151 126.926441 
L 96.687472 127.528589 
L 96.704986 127.119081 
L 97.117291 122.693626 
L 97.153747 124.459883 
L 97.237474 123.742094 
L 97.290338 122.73393 
L 97.495073 124.123259 
L 97.563877 124.624987 
L 97.638131 123.99618 
L 97.700878 125.134362 
L 97.839058 124.859937 
L 97.992856 126.283513 
L 98.131685 125.748207 
L 98.199234 125.884259 
L 98.456819 128.732879 
L 98.560033 127.473194 
L 98.853186 128.423643 
L 98.923987 129.006789 
L 99.197174 127.581608 
L 99.268451 127.61821 
L 99.343803 128.149999 
L 99.404287 127.879451 
L 99.524514 127.152646 
L 99.901742 129.700381 
L 100.476493 124.002451 
L 100.675913 123.773246 
L 100.831074 126.82268 
L 100.977171 125.287001 
L 101.244089 127.559806 
L 101.328927 127.670992 
L 101.46715 126.034539 
L 101.535651 127.119172 
L 101.604006 126.945849 
L 101.965514 124.282403 
L 102.032822 124.303073 
L 102.171063 124.917762 
L 102.240019 124.120101 
L 102.339977 124.391003 
L 102.599912 127.30953 
L 102.808594 125.848467 
L 103.103517 127.552329 
L 103.168135 127.33967 
L 103.236082 125.839285 
L 103.307268 125.991219 
L 103.5358 127.986345 
L 103.667168 127.588558 
L 103.804334 127.819783 
L 103.89118 126.320154 
L 103.943891 127.080254 
L 104.01218 128.988749 
L 104.09951 125.675698 
L 104.254926 126.853281 
L 104.30424 126.137678 
L 104.372726 126.578053 
L 104.44164 126.792757 
L 104.516524 125.614763 
L 104.595996 126.556946 
L 104.670117 125.628581 
L 104.840755 127.194041 
L 104.953246 123.91811 
L 105.030015 124.743076 
L 105.149985 123.147069 
L 105.218767 123.570514 
L 105.355225 123.162307 
L 105.389321 124.270735 
L 105.451392 124.186959 
L 105.510099 124.501503 
L 105.715625 127.618936 
L 105.750095 126.686907 
L 105.838783 126.520601 
L 105.940498 128.213744 
L 106.170289 127.110065 
L 106.301107 125.09849 
L 106.369459 125.062107 
L 106.438019 124.078177 
L 106.937355 129.602306 
L 107.075014 128.827635 
L 107.161906 130.369765 
L 107.281711 129.389594 
L 107.418727 127.17802 
L 107.85039 123.165201 
L 108.072859 124.448742 
L 108.140597 124.399333 
L 108.20962 124.117746 
L 108.381028 124.82006 
L 108.605229 127.349455 
L 108.65649 125.886301 
L 108.708669 126.107108 
L 108.932839 128.936844 
L 109.155129 126.587812 
L 109.261246 125.332498 
L 109.292258 122.911342 
L 109.309329 124.604481 
L 109.418461 127.495871 
L 109.515776 125.923984 
L 109.567268 124.746543 
L 109.639101 124.953069 
L 109.979613 131.108829 
L 110.064731 130.59951 
L 110.1331 129.409857 
L 110.219165 129.71799 
L 110.287898 129.407696 
L 110.443946 129.924463 
L 110.702488 126.105493 
L 110.772751 126.148429 
L 110.873969 126.136939 
L 110.907932 125.139813 
L 111.063141 126.092219 
L 111.217187 124.722525 
L 111.441091 126.327847 
L 111.477278 125.912612 
L 111.629966 128.260208 
L 111.698454 127.815821 
L 111.837449 127.248279 
L 111.915558 127.982216 
L 111.977945 127.536518 
L 112.016874 127.560302 
L 112.070965 127.306591 
L 112.213284 130.334828 
L 112.333294 128.277262 
L 112.435403 130.311269 
L 112.487239 129.525429 
L 112.62534 128.42904 
L 112.714461 129.118217 
L 112.841134 126.481425 
L 112.917268 125.090107 
L 112.986837 125.269789 
L 113.072386 125.912906 
L 113.231641 124.552855 
L 113.264753 125.714206 
L 113.331136 124.445801 
L 113.485553 125.86475 
L 113.761333 123.991304 
L 113.921427 125.810468 
L 114.159364 124.244817 
L 114.274191 124.638756 
L 114.474605 126.137238 
L 114.508512 125.815552 
L 114.674166 122.680707 
L 114.899941 122.183236 
L 114.968592 122.750624 
L 115.036573 122.489445 
L 115.416006 123.836626 
L 115.622714 125.139888 
L 115.881882 123.936534 
L 115.967423 124.08669 
L 116.279052 129.204666 
L 116.31288 128.242453 
L 116.381387 128.492926 
L 116.467914 129.734113 
L 116.535664 128.546102 
L 116.589677 129.713573 
L 116.708034 129.68013 
L 116.949026 124.652227 
L 117.017335 126.954193 
L 117.090006 126.176375 
L 117.173452 125.298827 
L 117.241372 126.259492 
L 117.3104 125.760733 
L 117.38579 125.637721 
L 117.455232 126.196389 
L 117.584961 125.895316 
L 117.619025 126.026205 
L 117.670628 127.579776 
L 117.757929 125.969078 
L 117.810915 126.464132 
L 118.035066 128.333869 
L 118.085956 128.226201 
L 118.192943 128.4263 
L 118.309321 129.925552 
L 118.429173 129.872679 
L 118.532953 131.871711 
L 118.721065 128.90638 
L 118.789889 129.64654 
L 118.875812 128.303364 
L 118.961182 128.575315 
L 119.051187 129.270442 
L 119.218121 125.704682 
L 119.287838 126.679201 
L 119.358949 126.606773 
L 119.442202 126.806952 
L 119.523846 126.08688 
L 119.579485 126.827343 
L 119.733832 124.778608 
L 119.803052 124.971921 
L 119.88958 124.830706 
L 120.014307 127.365968 
L 120.180185 127.148331 
L 120.300847 128.640239 
L 120.390751 128.586579 
L 120.536186 131.6242 
L 120.628755 131.956605 
L 120.764936 129.372437 
L 120.799805 130.336893 
L 120.868558 129.730491 
L 120.954569 129.88118 
L 121.022972 130.338164 
L 121.091355 129.688571 
L 121.228915 126.641731 
L 121.283966 126.229991 
L 121.488785 127.057414 
L 121.574237 125.428647 
L 121.589703 125.782738 
L 121.71052 123.586499 
L 121.848647 124.867521 
L 122.074272 123.730405 
L 122.140414 123.834701 
L 122.210648 123.717571 
L 122.292313 124.028092 
L 122.360458 124.95696 
L 122.446768 124.885301 
L 122.484185 124.459601 
L 122.721303 127.958235 
L 122.84252 127.168769 
L 122.912596 128.272136 
L 122.926631 128.068979 
L 123.02925 127.946595 
L 123.289926 124.862468 
L 123.493885 125.337795 
L 123.648494 124.918794 
L 123.705892 125.602363 
L 123.770271 124.851702 
L 123.980776 126.728203 
L 124.220355 124.896395 
L 124.290105 126.066444 
L 124.407442 123.880592 
L 124.477015 124.817564 
L 124.562471 124.51338 
L 124.735266 126.179474 
L 124.802966 125.868723 
L 124.940425 126.16987 
L 125.009489 126.690121 
L 125.185306 131.314206 
L 125.405927 127.953272 
L 125.628889 130.440085 
L 125.92295 127.397404 
L 125.973481 128.264787 
L 126.11363 129.307131 
L 126.213575 129.384102 
L 126.369345 126.96561 
L 126.385725 127.80546 
L 126.403987 127.029268 
L 126.610196 125.424233 
L 126.730371 125.958649 
L 126.78462 125.205984 
L 126.835077 125.404769 
L 127.007335 127.636191 
L 127.052058 127.18157 
L 127.109563 127.043721 
L 127.280793 127.61766 
L 127.46916 130.293392 
L 127.67595 128.117482 
L 127.744376 127.933575 
L 127.830317 127.196858 
L 127.918454 127.717294 
L 127.967664 127.676116 
L 128.175938 125.145512 
L 128.243046 125.762593 
L 128.314496 125.464427 
L 128.534936 126.860739 
L 128.605363 126.080736 
L 128.67225 126.091333 
L 128.843989 126.832243 
L 128.981976 127.573967 
L 129.055607 129.083554 
L 129.855862 124.688444 
L 129.873841 125.692753 
L 129.952875 124.437972 
L 130.045206 124.552206 
L 130.16585 125.806193 
L 130.235779 124.19926 
L 130.32006 125.157435 
L 130.517154 122.433588 
L 130.612335 122.37726 
L 130.759879 124.612215 
L 130.82937 123.665489 
L 130.8632 124.443834 
L 130.951031 126.103331 
L 131.034516 124.504241 
L 131.1042 124.925263 
L 131.240215 126.789281 
L 131.362394 125.816286 
L 131.516693 128.193502 
L 131.533288 127.518087 
L 131.587124 127.226143 
L 131.656608 127.661483 
L 131.795726 129.67061 
L 131.89515 128.32971 
L 132.002938 130.321386 
L 132.274532 125.904321 
L 132.396371 127.086724 
L 132.498496 127.009192 
L 132.584185 129.220881 
L 132.653259 128.129799 
L 132.790409 126.613015 
L 132.85935 126.657407 
L 132.99736 127.418509 
L 133.152139 126.906992 
L 133.262497 126.550966 
L 133.35816 126.707892 
L 133.512565 131.223655 
L 133.650505 131.072709 
L 133.739097 129.713196 
L 133.844787 130.09504 
L 133.891823 129.863463 
L 134.237032 124.027326 
L 134.56158 126.152655 
L 134.631394 126.282329 
L 134.797795 125.218696 
L 135.025638 127.605497 
L 135.163427 125.82719 
L 135.248458 125.864702 
L 135.283161 126.466563 
L 135.360522 126.046329 
L 135.42092 125.941523 
L 135.562601 128.04122 
L 135.659916 127.644552 
L 135.696465 126.689827 
L 135.850696 129.038302 
L 135.920108 128.536376 
L 135.988283 127.584051 
L 136.126731 128.853775 
L 136.273506 126.900125 
L 136.430041 130.581154 
L 136.512832 129.70484 
L 136.651176 127.845764 
L 136.907761 130.349503 
L 136.978266 130.073198 
L 137.131177 125.693599 
L 137.321097 126.804413 
L 137.338421 126.770596 
L 137.40731 126.893763 
L 137.630166 125.231174 
L 137.83729 127.494134 
L 137.90941 127.393439 
L 138.008335 127.701139 
L 138.060302 128.712245 
L 138.129067 128.594168 
L 138.198271 128.089235 
L 138.28483 129.897495 
L 138.334786 128.884548 
L 138.677984 125.972941 
L 138.783893 125.718151 
L 139.004298 123.950125 
L 139.12647 124.842091 
L 139.194668 125.909108 
L 139.284172 125.869852 
L 139.5377 126.796172 
L 139.62405 126.704328 
L 139.677087 125.612919 
L 139.745606 125.638732 
L 139.830175 125.7041 
L 139.899197 125.447944 
L 139.966961 125.817596 
L 140.327971 123.170742 
L 140.396065 124.897897 
L 140.519914 125.10275 
L 140.619442 123.799668 
L 140.775329 125.43917 
L 140.824451 127.368944 
L 140.893226 126.41406 
L 140.962631 126.358085 
L 141.030684 126.960299 
L 141.103114 126.19978 
L 141.116095 128.414192 
L 141.185044 127.034097 
L 141.25443 127.014167 
L 141.322531 127.287501 
L 141.408446 127.216257 
L 141.785016 124.329119 
L 141.821063 124.41896 
L 141.958353 124.020717 
L 142.012593 125.183 
L 142.061621 124.882903 
L 142.11309 123.885903 
L 142.317151 126.904598 
L 142.515354 128.946046 
L 142.805887 126.355479 
L 143.097911 123.691795 
L 143.218883 123.647603 
L 143.255506 122.846282 
L 143.356045 123.112017 
L 143.375545 123.075857 
L 143.459673 122.66948 
L 143.52737 123.32431 
L 143.596217 122.446648 
L 143.667011 123.585967 
L 143.736333 123.440358 
L 143.944023 125.089118 
L 144.220198 129.335848 
L 144.545704 127.199588 
L 144.579038 127.499438 
L 144.682315 128.061249 
L 144.717805 129.061789 
L 144.787269 128.101382 
L 145.010028 128.195937 
L 145.146943 128.777502 
L 145.284019 128.453997 
L 145.438795 126.027305 
L 145.508007 126.38494 
L 145.577089 126.025308 
L 145.645855 124.469215 
L 145.716164 125.276771 
L 145.852255 125.602982 
L 145.923183 126.477062 
L 146.00626 125.40774 
L 146.074504 126.471029 
L 146.213262 124.397405 
L 146.437215 127.841856 
L 146.575102 126.206946 
L 146.662461 125.601372 
L 146.713973 126.150751 
L 146.782089 125.671596 
L 146.919924 128.008756 
L 147.070495 127.679697 
L 147.14323 128.616843 
L 147.212731 128.388391 
L 147.352163 127.811349 
L 147.486584 129.649407 
L 147.556077 127.960007 
L 147.626632 128.585027 
L 147.848802 127.405653 
L 147.98381 128.816209 
L 148.057762 128.246878 
L 148.123622 128.333009 
L 148.194916 127.824533 
L 148.345394 128.935306 
L 148.568694 127.759789 
L 148.6715 127.790252 
L 148.79754 128.901802 
L 148.904133 127.55144 
L 149.055578 126.03383 
L 149.218138 127.083151 
L 149.352748 126.243896 
L 149.402867 126.15541 
L 149.46899 126.301184 
L 149.552288 126.011634 
L 149.638426 124.731017 
L 149.69437 124.78365 
L 149.77623 124.43349 
L 150.136994 121.182191 
L 150.3258 121.490031 
L 150.481685 125.131442 
L 150.825427 128.831087 
L 150.910087 128.460237 
L 150.962121 129.44247 
L 151.048007 128.660254 
L 151.132878 128.678913 
L 151.185359 128.427499 
L 151.272043 128.502287 
L 151.407916 128.16794 
L 151.476569 127.495112 
L 151.689754 128.643993 
L 151.768283 128.249037 
L 151.836875 129.08476 
L 151.905922 128.359103 
L 152.0957 128.842144 
L 152.249653 127.286441 
L 152.38987 127.775854 
L 152.404603 126.476937 
L 152.473319 127.114128 
L 152.558322 127.300252 
L 152.611595 127.88028 
L 152.678514 127.673055 
L 152.748257 127.53932 
L 152.885487 128.367336 
L 153.002188 128.262536 
L 153.125559 126.515977 
L 153.263 124.116018 
L 153.332036 124.865163 
L 153.400352 124.875537 
L 153.60716 123.775014 
L 153.767523 126.004319 
L 153.813354 127.599331 
L 153.899868 127.394385 
L 153.95684 128.004968 
L 154.037379 127.696155 
L 154.265642 125.353355 
L 154.402727 125.627747 
L 154.50671 125.388095 
L 154.523074 124.661718 
L 154.665991 126.300223 
L 154.83773 125.407217 
L 155.027616 128.404417 
L 155.438043 124.898337 
L 155.559369 127.238341 
L 155.594448 127.097618 
L 155.66212 126.215495 
L 155.81625 126.99733 
L 155.957761 127.640342 
L 156.023548 127.161 
L 156.092277 128.062856 
L 156.182171 126.427589 
L 156.382954 127.711201 
L 156.449992 125.916082 
L 156.516099 125.925777 
L 156.601626 125.918321 
L 156.670541 126.069378 
L 156.879883 127.424352 
L 156.9293 126.310768 
L 157.014487 126.330405 
L 157.117067 126.541592 
L 157.237429 128.175662 
L 157.546169 125.647712 
L 157.719928 124.024975 
L 157.804467 124.673159 
L 157.87334 124.415204 
L 158.150298 125.976611 
L 158.251495 125.652881 
L 158.440103 127.825587 
L 158.510996 127.442685 
L 158.57801 128.079056 
L 158.715494 126.106729 
L 158.79907 127.2051 
L 158.908471 126.888423 
L 158.991531 128.556198 
L 159.011291 127.441492 
L 159.127218 128.310456 
L 159.301499 125.801837 
L 159.351981 127.111217 
L 159.420377 126.839322 
L 159.643654 124.91064 
L 159.714497 125.327917 
L 159.819435 125.147212 
L 159.936593 127.372413 
L 160.126872 126.413326 
L 160.141978 127.732297 
L 160.401605 128.613902 
L 160.47207 128.02419 
L 160.642788 122.999991 
L 160.847359 123.865361 
L 160.969192 123.208253 
L 161.138874 125.121446 
L 161.413893 128.751868 
L 161.626454 128.312811 
L 161.774799 128.765779 
L 162.136036 126.21178 
L 162.190176 127.091341 
L 162.411634 125.431051 
L 162.550504 125.605181 
L 162.617611 125.065725 
L 162.756326 127.322033 
L 163.119214 129.827406 
L 163.188817 129.555009 
L 163.332665 129.904704 
L 163.408145 129.048353 
L 163.484753 129.513544 
L 163.753581 127.772415 
L 163.874029 127.798107 
L 163.99379 128.662431 
L 164.047294 127.867392 
L 164.131604 127.95981 
L 164.253091 128.85189 
L 164.406406 129.219098 
L 164.54364 127.142563 
L 164.681898 125.881816 
L 164.819894 127.347408 
L 164.841493 126.17015 
L 164.933229 127.31602 
L 165.001302 126.960136 
L 165.436369 130.056682 
L 165.470779 128.874524 
L 165.556098 129.008687 
L 165.626547 127.9532 
L 165.714232 128.267116 
L 165.814538 129.016951 
L 165.952972 130.164178 
L 166.192925 127.084115 
L 166.400015 125.962835 
L 166.690174 122.191479 
L 166.817863 123.150182 
L 166.951797 123.765551 
L 167.019435 122.41486 
L 167.119557 123.112867 
L 167.260325 124.833474 
L 167.309761 124.750432 
L 167.460774 124.779611 
L 167.466536 124.342809 
L 167.53392 124.468556 
L 167.602581 124.411845 
L 167.764647 126.032399 
L 167.829275 126.221637 
L 167.912355 124.565821 
L 168.032891 124.622715 
L 168.08434 124.064054 
L 168.120393 124.228152 
L 168.325491 125.842329 
L 168.516417 123.88439 
L 168.738662 124.800684 
L 168.875847 124.709573 
L 169.014368 122.258478 
L 169.167699 123.657446 
L 169.271563 123.981477 
L 169.392931 122.103701 
L 169.567932 123.282373 
L 169.597412 123.063551 
L 169.805278 121.457015 
L 170.147378 125.130829 
L 170.302335 123.757948 
L 170.510463 126.354735 
L 170.524772 125.949778 
L 170.62814 125.857603 
L 171.058174 129.323778 
L 171.195829 130.371105 
L 171.233139 129.519027 
L 171.299003 129.522806 
L 171.366948 129.423131 
L 171.452894 130.270689 
L 171.572575 128.39954 
L 171.641602 128.372957 
L 171.717631 128.590113 
L 171.782037 128.455968 
L 171.85817 128.391945 
L 171.996432 128.727257 
L 172.008981 127.464478 
L 172.076921 128.568246 
L 172.148782 127.676473 
L 172.286393 129.983747 
L 172.39898 129.312664 
L 172.579042 129.082631 
L 172.750202 130.684522 
L 172.906069 130.225853 
L 172.924792 130.940401 
L 173.013094 130.482636 
L 173.064995 131.383647 
L 173.132176 130.820382 
L 173.199198 131.025264 
L 173.346 130.171272 
L 173.447391 131.516697 
L 173.574311 129.720258 
L 173.792668 124.475658 
L 173.879303 126.071312 
L 173.918347 125.754396 
L 174.001048 126.128767 
L 174.134491 124.826415 
L 174.20314 125.007659 
L 174.276126 125.830538 
L 174.495083 129.80848 
L 174.564576 128.347726 
L 174.804749 131.384317 
L 174.858898 130.83809 
L 174.975839 131.18967 
L 175.132285 129.719999 
L 175.268011 130.409059 
L 175.474893 126.435875 
L 175.560322 126.658464 
L 175.628557 126.85422 
L 175.697275 129.456893 
L 175.769257 128.305602 
L 175.83451 128.927823 
L 175.908035 128.283642 
L 176.115462 130.097939 
L 176.405397 125.481979 
L 176.437455 126.024552 
L 176.473565 126.040282 
L 176.543369 125.315136 
L 176.612728 126.010027 
L 176.681377 125.603994 
L 176.834538 124.676133 
L 176.904112 125.362527 
L 176.972997 124.786931 
L 177.255285 126.68764 
L 177.403295 124.50397 
L 177.470979 124.544103 
L 177.539077 124.023814 
L 177.693666 127.187769 
L 177.749169 126.731199 
L 177.831809 126.638869 
L 177.923932 125.392037 
L 177.96838 125.749545 
L 178.399837 128.499854 
L 178.466954 127.632089 
L 178.60402 129.218545 
L 178.74193 128.762394 
L 178.844489 127.365855 
L 178.896029 128.547251 
L 178.951913 128.26759 
L 179.017342 127.443778 
L 179.171808 128.616634 
L 179.256036 128.275283 
L 179.3781 126.925191 
L 179.531307 127.445723 
L 179.61164 127.380668 
L 179.674401 126.877252 
L 179.754562 127.41619 
L 179.943663 125.673468 
L 180.168019 127.753489 
L 180.271473 127.341673 
L 180.322852 127.875417 
L 180.529501 126.532079 
L 180.634556 126.57375 
L 180.651948 126.844163 
L 180.821715 126.089333 
L 181.365821 129.079545 
L 181.527968 127.688139 
L 181.604853 128.585929 
L 181.66452 128.182912 
L 181.940308 129.300141 
L 182.076305 128.99514 
L 182.161955 128.093444 
L 182.365962 129.9091 
L 182.572689 128.745289 
L 182.675477 129.9255 
L 182.726444 128.906077 
L 182.847305 130.253196 
L 182.917051 130.218833 
L 182.953716 130.062755 
L 183.019615 128.551786 
L 183.17343 128.531724 
L 183.433235 125.466177 
L 183.517355 124.294738 
L 183.633447 125.018511 
L 183.658949 124.91917 
L 183.80266 123.990436 
L 183.866852 124.836453 
L 184.071006 124.056218 
L 184.085721 125.65522 
L 184.137278 125.441079 
L 184.501146 127.55467 
L 184.572189 127.34648 
L 184.644433 129.6472 
L 184.780088 129.333852 
L 185.071925 126.751451 
L 185.139252 126.696141 
L 185.208069 128.126676 
L 185.413512 125.640812 
L 185.482628 125.719106 
L 185.568194 128.328583 
L 185.690248 128.216136 
L 185.847294 130.864432 
L 185.92887 128.378437 
L 185.997675 128.549689 
L 186.135516 128.380642 
L 186.34209 126.087394 
L 186.393012 127.333828 
L 186.451938 127.324627 
L 186.607566 125.498448 
L 186.689374 126.392283 
L 186.746133 125.639144 
L 186.775044 126.800848 
L 186.861357 126.173669 
L 187.025498 126.793698 
L 187.136583 125.880218 
L 187.275119 127.691306 
L 187.342351 127.574294 
L 187.435152 129.278463 
L 187.518714 128.879748 
L 187.583378 129.929596 
L 187.634477 129.527928 
L 187.704483 129.743055 
L 187.979268 127.949726 
L 188.285574 131.457868 
L 188.476892 132.40292 
L 188.545837 132.737676 
L 188.979072 126.285282 
L 189.121897 127.475351 
L 189.191468 126.599655 
L 189.266845 126.767941 
L 189.322842 126.560342 
L 189.594062 127.038657 
L 189.766138 125.580874 
L 189.852793 125.813767 
L 189.989466 127.317992 
L 190.041187 126.988245 
L 190.126812 126.933383 
L 190.247458 129.982606 
L 190.333544 129.23835 
L 190.455069 129.605402 
L 190.522843 129.176289 
L 190.591515 130.222295 
L 190.763649 128.912534 
L 190.850646 129.186564 
L 190.970326 126.032307 
L 191.037448 127.170612 
L 191.106246 127.282616 
L 191.1758 126.985324 
L 191.261171 125.865483 
L 191.466555 126.88394 
L 191.58932 126.931246 
L 191.674038 126.047204 
L 191.725031 126.644 
L 191.810269 126.037144 
L 191.982517 127.402489 
L 192.242213 125.947526 
L 192.343159 127.188047 
L 192.411826 126.28359 
L 192.480187 126.917574 
L 192.569047 125.821215 
L 192.618338 126.644606 
L 192.737985 126.186967 
L 192.891993 126.934321 
L 192.977927 127.186429 
L 193.032986 128.572612 
L 193.160739 128.770935 
L 193.340626 130.394721 
L 193.530675 129.207926 
L 193.685276 129.729608 
L 193.943965 125.321394 
L 194.019007 124.692232 
L 194.116259 125.332494 
L 194.167664 124.088171 
L 194.24511 124.344751 
L 194.374337 124.064321 
L 194.6512 126.462175 
L 194.734297 126.380524 
L 194.803305 126.047344 
L 194.871703 126.417675 
L 194.957668 125.352145 
L 195.009291 125.705332 
L 195.08355 126.137522 
L 195.16512 125.701139 
L 195.256409 126.058758 
L 195.31735 125.702145 
L 195.369189 126.01906 
L 195.523334 125.189235 
L 195.678717 128.812322 
L 195.782283 128.838177 
L 195.801165 128.662295 
L 195.866858 128.729975 
L 196.004769 129.07863 
L 196.126585 128.999893 
L 196.230814 130.353643 
L 196.4513 128.035074 
L 196.597979 127.326193 
L 196.660011 127.02634 
L 196.728229 128.286612 
L 196.814382 128.207236 
L 196.934609 126.385759 
L 197.01548 126.704911 
L 197.088708 126.434716 
L 197.24537 127.269059 
L 197.299878 127.003551 
L 197.486023 124.720318 
L 197.503002 124.859855 
L 197.570926 126.611719 
L 197.691257 126.636515 
L 197.932091 123.794348 
L 198.002353 123.305016 
L 198.069593 124.667109 
L 198.136989 124.563439 
L 198.226857 124.645064 
L 198.27455 124.856202 
L 198.432424 126.608142 
L 198.51579 126.867259 
L 198.567124 127.39521 
L 198.711621 130.602631 
L 198.80814 130.567848 
L 198.880776 130.662952 
L 199.065331 126.776732 
L 199.229643 127.23617 
L 199.426436 124.051893 
L 199.563054 124.64028 
L 199.769086 127.264846 
L 199.855601 126.301574 
L 199.923618 126.747251 
L 199.980707 126.214877 
L 200.061557 126.254957 
L 200.130528 126.388996 
L 200.198629 127.307437 
L 200.28758 126.607936 
L 200.423347 126.97708 
L 200.456638 126.844402 
L 200.492581 126.775762 
L 200.560254 127.221578 
L 200.732093 129.348724 
L 200.782937 129.285432 
L 200.869615 129.403401 
L 200.921515 128.989372 
L 201.194944 130.753428 
L 201.316716 130.442072 
L 201.349491 128.550856 
L 201.418676 129.331387 
L 201.480106 130.168096 
L 201.624757 128.109713 
L 201.71084 129.070528 
L 201.762019 128.652771 
L 201.898852 126.873392 
L 202.044362 129.056 
L 202.122662 128.550804 
L 202.190873 127.289771 
L 202.310987 127.877839 
L 202.466987 126.319657 
L 202.537849 128.213299 
L 202.776477 126.327462 
L 203.03588 129.7653 
L 203.119348 130.236187 
L 203.394406 127.438391 
L 203.480183 127.238822 
L 203.657079 128.433159 
L 203.755007 128.215922 
L 203.82458 126.726433 
L 204.030364 128.660685 
L 204.172684 130.623221 
L 204.322478 128.049522 
L 204.392074 128.042238 
L 204.545791 129.482214 
L 204.616621 128.506994 
L 204.752607 129.228179 
L 204.871746 128.877256 
L 204.892954 128.184822 
L 204.975787 128.625748 
L 205.046095 129.321822 
L 205.165316 127.567722 
L 205.250379 128.570875 
L 205.31951 128.294139 
L 205.459149 127.335021 
L 205.526222 128.545181 
L 205.662894 128.159676 
L 205.887019 126.022443 
L 206.059884 124.691287 
L 206.118051 125.114869 
L 206.162434 124.712 
L 206.320627 123.532208 
L 206.474724 124.649792 
L 206.525904 124.54782 
L 206.678729 125.667196 
L 206.741858 126.49483 
L 206.81824 125.895362 
L 207.024751 127.525119 
L 207.102852 127.121723 
L 207.236049 127.700285 
L 207.39163 126.920669 
L 207.443493 128.229753 
L 207.536083 128.123261 
L 207.597793 128.649717 
L 207.666155 128.616013 
L 207.733938 128.810911 
L 207.854258 128.58837 
L 207.939977 129.54869 
L 208.026086 129.41434 
L 208.147861 127.807069 
L 208.375942 129.777095 
L 208.445185 129.055892 
L 208.507834 129.162224 
L 208.594533 128.9111 
L 208.654017 127.914868 
L 208.922744 130.374146 
L 209.094926 127.078976 
L 209.146276 127.584683 
L 209.300972 126.560705 
L 209.318502 127.515318 
L 209.371054 126.805431 
L 209.576158 124.470778 
L 209.868472 126.72467 
L 210.009059 129.099141 
L 210.077169 129.055745 
L 210.300441 130.296562 
L 210.437465 129.031671 
L 210.506298 129.872845 
L 210.713842 126.40395 
L 210.890301 127.753872 
L 211.023094 126.290257 
L 211.092216 127.12789 
L 211.144106 126.82641 
L 211.323186 124.959668 
L 211.356375 125.692775 
L 211.493001 126.086279 
L 211.6311 124.170752 
L 211.698793 124.483933 
L 211.922249 122.804135 
L 211.991135 123.048081 
L 212.059832 123.324957 
L 212.17992 122.767462 
L 212.213832 121.819896 
L 212.419752 123.575216 
L 212.575802 122.861045 
L 212.626306 124.323972 
L 212.713898 124.096567 
L 212.781553 123.424975 
L 212.95377 124.275861 
L 213.056492 123.579595 
L 213.124566 123.536571 
L 213.435266 127.743372 
L 213.546066 127.70507 
L 213.588739 127.53533 
L 213.834376 130.330714 
L 214.172898 128.343523 
L 214.227381 128.606035 
L 214.346086 129.718851 
L 214.398476 129.292081 
L 214.504275 129.67252 
L 214.724171 126.863265 
L 214.760641 129.435093 
L 214.880789 129.576437 
L 214.903771 130.06671 
L 215.124267 127.484444 
L 215.188964 128.468006 
L 215.259218 128.413344 
L 215.326965 128.332914 
L 215.396955 128.981125 
L 215.502375 128.304748 
L 215.629805 125.861098 
L 215.826872 127.053409 
L 215.961645 125.147244 
L 216.045823 126.555216 
L 216.114637 126.305532 
L 216.186043 126.078065 
L 216.20002 127.45976 
L 216.270044 127.411696 
L 216.391063 128.071459 
L 216.457714 127.727024 
L 216.545399 126.356314 
L 216.615944 126.207823 
L 216.681429 127.676572 
L 216.766926 126.903405 
L 216.90509 128.187779 
L 217.008013 127.779164 
L 217.24863 130.750777 
L 217.387244 130.932352 
L 217.747271 127.344952 
L 217.851118 127.553753 
L 217.956279 125.728159 
L 218.057023 126.745685 
L 218.145251 125.791579 
L 218.177037 126.523056 
L 218.576218 123.617677 
L 218.59349 124.281777 
L 218.650982 124.99561 
L 218.681569 124.135404 
L 218.816254 123.701516 
L 219.176914 125.948648 
L 219.246096 127.739999 
L 219.314533 127.465737 
L 219.385031 127.918105 
L 219.458523 126.180218 
L 219.521723 126.473039 
L 219.675143 126.024284 
L 219.881068 127.933687 
L 220.089588 128.503847 
L 220.191759 130.538181 
L 220.404758 129.327262 
L 220.458238 128.053478 
L 220.532759 129.136776 
L 220.542321 128.574079 
L 220.783607 125.555004 
L 220.817858 126.263294 
L 220.886333 124.845135 
L 220.938385 126.045408 
L 221.008962 127.101518 
L 221.082046 126.377193 
L 221.161129 127.61835 
L 221.23846 127.002299 
L 221.64437 129.581168 
L 221.727504 129.062641 
L 221.798688 129.555926 
L 221.867565 129.477885 
L 222.073415 130.019013 
L 222.208831 129.855505 
L 222.365692 126.972554 
L 222.503122 127.311127 
L 222.588968 126.720045 
L 222.645818 127.586211 
L 222.660625 127.247434 
L 222.780097 125.224137 
L 222.795045 126.087551 
L 222.90866 126.138096 
L 222.934179 125.394862 
L 223.106596 128.293631 
L 223.227858 126.529572 
L 223.964709 129.521631 
L 224.016335 129.016835 
L 224.188367 130.376256 
L 224.222158 129.868482 
L 224.275742 129.867147 
L 224.344606 130.238371 
L 224.428734 132.020056 
L 225.122036 125.460469 
L 225.133345 124.215152 
L 225.203151 125.055893 
L 225.287731 126.027139 
L 225.339753 125.141994 
L 225.648507 129.055835 
L 225.703848 128.806449 
L 225.768702 129.256443 
L 225.85554 129.236676 
L 226.032258 127.19246 
L 226.061349 128.629036 
L 226.146942 128.258683 
L 226.269494 126.085654 
L 226.558863 128.67788 
L 226.62843 128.351538 
L 226.713949 128.996803 
L 226.766597 128.82121 
L 226.833234 127.485351 
L 226.943671 128.604465 
L 227.048181 127.870032 
L 227.071427 126.771184 
L 227.129056 127.239513 
L 227.266623 125.779891 
L 227.336949 127.367473 
L 227.405493 127.09281 
L 227.474925 126.463976 
L 227.585996 127.81224 
L 227.61753 127.056938 
L 227.766998 127.485453 
L 227.835296 126.636376 
L 227.974546 127.702252 
L 228.043586 126.228948 
L 228.128933 127.117785 
L 228.196931 126.621225 
L 228.317649 126.581658 
L 228.494548 127.562422 
L 228.577995 127.534111 
L 228.81857 125.505357 
L 228.902608 126.562232 
L 228.970859 126.361461 
L 229.056275 126.347596 
L 229.132364 126.728781 
L 229.177938 125.063916 
L 229.249434 125.663382 
L 229.333299 125.878394 
L 229.401417 125.250385 
L 229.487333 125.75166 
L 229.606348 127.33462 
L 230.196631 132.661192 
L 230.331007 130.236156 
L 230.556344 127.989436 
L 230.639857 129.090711 
L 230.674814 128.693679 
L 230.949142 123.320709 
L 231.085783 124.884304 
L 231.13771 124.328842 
L 231.321385 122.954386 
L 231.464475 124.841647 
L 231.670311 128.675086 
L 231.739786 127.851134 
L 231.809526 130.02562 
L 231.893597 129.838582 
L 231.980253 129.711759 
L 232.032737 131.098178 
L 232.08501 129.223101 
L 232.100756 130.241025 
L 232.168865 130.716013 
L 232.397903 129.484766 
L 232.533638 130.06604 
L 232.548518 128.497527 
L 232.603805 129.181952 
L 232.656164 129.836314 
L 232.737771 127.502059 
L 232.807035 128.277027 
L 232.988361 127.10822 
L 233.106819 128.245268 
L 233.295883 127.389314 
L 233.383721 126.582089 
L 233.450668 127.431763 
L 233.595628 126.982442 
L 233.66281 127.123731 
L 233.780284 125.934401 
L 233.862828 127.961787 
L 233.966226 127.938314 
L 234.139246 126.649358 
L 234.17368 126.606042 
L 234.225732 127.544575 
L 234.364733 126.401465 
L 234.482645 126.330798 
L 234.620098 123.655271 
L 234.722744 123.516367 
L 235.028414 125.689406 
L 235.153157 124.652555 
L 235.432604 126.894096 
L 235.583315 125.049277 
L 235.862165 129.104114 
L 235.961788 127.878292 
L 236.012751 127.886314 
L 236.219346 130.877664 
L 236.287436 130.451337 
L 236.49792 129.22347 
L 236.581785 129.426636 
L 236.648803 129.499575 
L 236.855088 127.815991 
L 237.078489 126.195991 
L 237.146782 127.080665 
L 237.197907 127.014857 
L 237.438816 126.559541 
L 237.490141 126.738769 
L 237.558892 126.270486 
L 237.713213 126.867871 
L 237.988071 124.660571 
L 238.074132 124.385794 
L 238.125343 124.685522 
L 238.250586 124.620878 
L 238.349673 125.487168 
L 238.605328 126.818721 
L 238.624498 126.510934 
L 238.693188 126.851584 
L 238.778091 128.513141 
L 238.846059 127.883769 
L 238.916475 127.730236 
L 239.056905 128.848323 
L 239.296752 127.745296 
L 239.434433 128.440426 
L 239.485563 127.352135 
L 239.710353 129.670009 
L 239.795454 128.488006 
L 239.832247 129.441865 
L 239.917072 129.612616 
L 240.122639 128.379852 
L 240.329542 126.558286 
L 240.414993 126.640085 
L 240.60367 126.114122 
L 240.827648 128.242848 
L 240.967363 129.057892 
L 241.050576 128.241095 
L 241.119334 128.482706 
L 241.258107 129.458899 
L 241.327067 129.266786 
L 241.531829 127.707701 
L 241.87369 129.087091 
L 242.028073 125.326381 
L 242.096434 125.113442 
L 242.268127 127.823268 
L 242.320199 128.289394 
L 242.549868 126.867965 
L 242.749807 130.742278 
L 242.903518 130.096812 
L 242.972404 129.998667 
L 243.095508 128.037832 
L 243.31701 129.3335 
L 243.694243 126.224346 
L 243.781438 127.363083 
L 243.81441 126.804276 
L 243.913184 125.927446 
L 243.953223 126.136292 
L 244.026318 126.550514 
L 244.171566 124.325135 
L 244.24515 126.471589 
L 244.312944 125.96822 
L 244.387644 126.283459 
L 244.448587 126.175126 
L 244.535038 127.82708 
L 244.586838 127.275704 
L 244.757707 125.394834 
L 244.91329 129.437136 
L 244.949833 127.123593 
L 245.136747 128.725759 
L 245.17006 127.967921 
L 245.376451 129.668332 
L 245.519822 129.520573 
L 245.585 128.542804 
L 245.651112 128.980133 
L 245.739062 129.191765 
L 246.013083 126.170102 
L 246.081297 125.826167 
L 246.165799 126.45071 
L 246.372122 124.722931 
L 246.441025 123.812992 
L 246.58475 125.942683 
L 246.647595 125.70761 
L 246.735871 125.580913 
L 246.871492 126.240018 
L 247.07645 127.202913 
L 247.28347 126.125261 
L 247.50548 127.39093 
L 247.644768 126.974078 
L 247.866809 128.073723 
L 247.937015 127.488324 
L 248.006275 127.779274 
L 248.142004 129.274661 
L 248.281229 127.21253 
L 248.349257 128.171938 
L 248.574804 126.590205 
L 248.710563 128.905404 
L 248.799348 127.864124 
L 248.882448 128.045363 
L 248.987169 129.731205 
L 249.070815 129.111792 
L 249.157886 129.74766 
L 249.209786 131.343402 
L 249.311785 131.059956 
L 249.419511 129.092992 
L 249.501516 129.543929 
L 249.707413 128.138385 
L 249.775696 129.156438 
L 249.856504 128.809894 
L 249.862717 125.962301 
L 249.930486 128.142079 
L 250.205547 127.284387 
L 250.342299 127.08294 
L 250.427978 128.612732 
L 250.480471 128.297715 
L 250.635055 127.353775 
L 250.789497 128.314556 
L 250.910964 126.251288 
L 251.029472 126.614178 
L 251.269706 123.862328 
L 251.322595 124.894481 
L 251.356091 124.077295 
L 251.477317 123.55261 
L 251.647765 125.709714 
L 251.69967 125.282028 
L 251.84005 126.647465 
L 251.915597 125.975049 
L 251.975611 126.253223 
L 252.045953 126.430582 
L 252.129257 127.717386 
L 252.267003 127.504884 
L 252.32484 128.521703 
L 252.357315 127.300608 
L 252.405363 127.66856 
L 252.526765 126.60254 
L 252.560056 126.805381 
L 252.635324 127.13306 
L 252.859668 125.178013 
L 253.041418 126.312932 
L 253.162625 125.912201 
L 253.180637 126.0726 
L 253.401976 124.747217 
L 253.471856 124.735635 
L 253.694684 123.802201 
L 253.832409 126.066657 
L 253.918433 126.378503 
L 254.038433 129.16796 
L 254.261579 132.050621 
L 254.382575 131.898283 
L 254.536563 128.827262 
L 254.554942 129.02205 
L 254.62271 129.498622 
L 254.828402 126.974782 
L 254.89723 127.133696 
L 254.976897 126.738405 
L 255.051577 125.264521 
L 255.069746 125.488296 
L 255.191364 128.979572 
L 255.2426 128.525892 
L 255.327021 126.769742 
L 255.395673 127.509507 
L 255.619483 126.00818 
L 255.671306 126.693476 
L 255.980677 123.362793 
L 256.031929 125.23534 
L 256.100706 124.260426 
L 256.33409 128.354018 
L 256.415779 127.680117 
L 256.669999 129.689514 
L 256.756529 128.480129 
L 256.858642 129.552446 
L 256.961628 127.648682 
L 257.119271 125.784174 
L 257.240002 124.652644 
L 257.306951 125.142543 
L 257.530138 123.534781 
L 257.7361 127.484718 
L 257.875298 127.996478 
L 258.115734 125.169965 
L 258.234771 126.614113 
L 258.440393 124.861895 
L 258.510047 125.969529 
L 258.577776 125.312195 
L 258.661583 125.494836 
L 258.729546 125.393022 
L 258.936324 128.567055 
L 259.089883 127.04333 
L 259.365056 129.653206 
L 259.432381 131.35281 
L 259.501274 130.794032 
L 259.65543 129.994285 
L 259.724114 130.141034 
L 259.864167 131.003887 
L 260.14025 127.307009 
L 260.223368 127.334423 
L 260.359697 126.469607 
L 260.430279 127.344244 
L 260.497318 127.015829 
L 260.637316 125.200963 
L 260.789329 125.486156 
L 260.858645 125.942705 
L 261.066798 124.926529 
L 261.140349 124.943475 
L 261.24238 124.818986 
L 261.425204 126.978121 
L 261.493948 126.017056 
L 261.562855 126.421514 
L 261.803313 128.170139 
L 261.855287 127.775387 
L 261.923956 127.943001 
L 262.028448 128.425915 
L 262.133317 126.297261 
L 262.215542 126.987682 
L 262.456575 124.140367 
L 262.50758 124.842614 
L 262.594477 124.827955 
L 262.713991 126.624854 
L 262.835413 126.951845 
L 263.006467 126.659632 
L 263.155033 128.87264 
L 263.195381 128.781191 
L 263.289794 128.93072 
L 263.393564 127.925683 
L 263.427099 129.17282 
L 263.513392 129.047694 
L 263.770884 131.488856 
L 263.839246 132.12724 
L 264.132177 127.669675 
L 264.200268 128.586712 
L 264.285838 128.365734 
L 264.42421 127.2341 
L 264.560592 125.944489 
L 264.732109 127.419292 
L 264.869937 128.789967 
L 264.921471 127.604468 
L 265.059416 128.491631 
L 265.128178 127.937476 
L 265.197812 128.363241 
L 265.402826 127.983762 
L 265.557372 125.883324 
L 265.626987 126.963082 
L 265.831454 123.744754 
L 265.907577 124.566389 
L 265.977586 124.183022 
L 266.081169 125.13779 
L 266.117105 124.490851 
L 266.187728 124.948514 
L 266.257832 124.781978 
L 266.337989 123.474529 
L 266.544708 125.249301 
L 266.649196 124.804405 
L 266.720282 125.056858 
L 266.768686 124.20517 
L 266.819981 124.506491 
L 267.150175 128.068985 
L 267.181219 127.358203 
L 267.249629 129.000976 
L 267.404849 128.533507 
L 267.54331 131.386462 
L 267.648817 130.904885 
L 267.766706 129.858604 
L 267.824924 127.776597 
L 267.888403 128.979434 
L 267.956178 127.809684 
L 268.076896 128.507027 
L 268.27692 126.820189 
L 268.592496 128.64009 
L 268.609614 128.278127 
L 268.88599 131.13951 
L 268.955643 130.618507 
L 269.040323 130.724635 
L 269.238204 130.275104 
L 269.487062 128.480993 
L 269.539272 128.962298 
L 269.679329 126.901558 
L 269.745605 127.20964 
L 270.04829 130.154133 
L 270.24832 128.894038 
L 270.386174 129.226621 
L 270.53823 127.534145 
L 270.658425 126.926708 
L 270.732153 125.908733 
L 270.881807 126.255685 
L 270.96864 126.931773 
L 271.105543 126.3469 
L 271.158692 127.312794 
L 271.280043 127.016337 
L 271.586834 128.987016 
L 271.659635 129.035588 
L 271.74154 128.802596 
L 271.950813 129.842693 
L 272.034164 129.717808 
L 272.136942 129.995169 
L 272.222922 127.771218 
L 272.295297 128.681722 
L 272.361853 127.861161 
L 272.446458 129.660448 
L 272.604799 127.36717 
L 272.654218 127.424906 
L 272.808466 125.003922 
L 272.859549 125.599267 
L 272.962748 125.951521 
L 273.031152 124.472845 
L 273.086245 125.063685 
L 273.170051 125.197732 
L 273.24285 126.730902 
L 273.426486 124.919645 
L 273.597793 127.37674 
L 273.892341 128.927706 
L 273.981318 127.167631 
L 274.062388 127.636756 
L 274.164944 127.366476 
L 274.216179 128.325677 
L 274.285871 127.196675 
L 274.379123 127.454713 
L 274.428527 128.017063 
L 274.496203 126.862485 
L 274.853414 129.601127 
L 274.938637 127.808594 
L 275.071146 128.27048 
L 275.078696 128.728644 
L 275.144991 127.558631 
L 275.322434 128.115068 
L 275.420166 127.104763 
L 275.488402 127.107703 
L 275.780344 124.145508 
L 275.849507 124.62592 
L 275.918009 125.45916 
L 275.989541 124.509578 
L 276.213034 127.590394 
L 276.403533 126.578298 
L 276.416405 126.679108 
L 276.571358 130.033971 
L 276.657368 130.053752 
L 276.70825 130.315983 
L 276.794259 129.403879 
L 276.91697 125.932932 
L 277.051448 126.370775 
L 277.13785 128.475765 
L 277.507097 123.390038 
L 277.590642 123.513706 
L 277.694757 122.434895 
L 277.831885 120.255697 
L 277.967938 120.821364 
L 278.192476 124.467117 
L 278.245661 123.889277 
L 278.525018 129.279281 
L 278.777107 126.497719 
L 278.93149 128.179259 
L 279.040931 127.639541 
L 279.177523 125.059331 
L 279.266873 126.839094 
L 279.366115 126.826794 
L 279.469382 128.673729 
L 279.616126 128.648105 
L 279.675637 128.65972 
L 279.842193 131.314946 
L 280.073521 130.393492 
L 280.209691 128.011592 
L 280.209822 124.215755 
L 280.267716 126.627443 
L 280.330152 126.750547 
L 280.415885 126.592244 
L 280.484971 126.809838 
L 280.691609 124.894281 
L 280.802601 124.436823 
L 280.830189 125.988167 
L 280.900738 125.935404 
L 281.172774 125.769026 
L 281.24228 124.768319 
L 281.278258 125.560624 
L 281.351557 125.388638 
L 281.396639 125.550715 
L 281.481761 125.853506 
L 281.614045 126.980755 
L 281.808093 126.460106 
L 281.895176 127.666191 
L 281.963237 127.19504 
L 282.031537 127.208679 
L 282.170264 126.718519 
L 282.322975 124.75527 
L 282.401678 125.50733 
L 282.461422 125.205373 
L 282.627175 124.228666 
L 282.74114 122.678402 
L 282.822799 122.829827 
L 282.930391 123.954728 
L 282.994539 123.704926 
L 283.168696 122.995184 
L 283.302792 123.575014 
L 283.423483 123.404609 
L 283.594824 121.457964 
L 283.783883 123.540059 
L 283.801386 123.064886 
L 283.872534 123.520413 
L 284.047141 123.733338 
L 284.30047 127.453137 
L 284.472264 126.029282 
L 284.764061 128.122058 
L 285.025714 126.127746 
L 285.151266 128.483302 
L 285.244511 128.71175 
L 285.296497 128.022162 
L 285.399123 128.032773 
L 285.657459 129.247353 
L 285.725754 130.844446 
L 285.793949 130.06662 
L 285.949436 131.025856 
L 286.009124 131.231741 
L 286.155432 129.844164 
L 286.292654 130.65149 
L 286.707708 123.854151 
L 286.788092 123.991881 
L 286.945858 125.681888 
L 287.058098 125.039182 
L 287.221061 127.940268 
L 287.30683 128.36988 
L 287.427424 131.176411 
L 287.531045 130.93645 
L 287.702745 129.18665 
L 287.789071 129.774294 
L 287.891838 129.628648 
L 287.962017 130.059331 
L 287.998374 129.901831 
L 288.218199 128.061126 
L 288.305968 128.08409 
L 288.372399 127.763116 
L 288.493116 128.086181 
L 288.699812 125.657483 
L 288.802394 126.931297 
L 288.853662 125.78715 
L 288.941291 126.839393 
L 288.990967 126.540375 
L 289.077221 126.530307 
L 289.130957 127.336561 
L 289.214208 126.367708 
L 289.287618 127.085959 
L 289.387832 126.945128 
L 289.454776 127.72774 
L 289.523469 126.522535 
L 289.592478 126.964423 
L 289.643976 126.570056 
L 289.712605 127.051075 
L 289.779833 126.544896 
L 289.919488 127.865487 
L 289.987491 128.756297 
L 290.113421 128.536125 
L 290.19632 127.731499 
L 290.348466 128.856732 
L 290.563614 127.089424 
L 290.691839 125.819535 
L 290.77729 126.332652 
L 290.864161 127.070365 
L 290.91522 129.258994 
L 291.000701 128.287011 
L 291.0732 127.497864 
L 291.12238 127.736368 
L 291.189944 127.662084 
L 291.448211 125.838598 
L 291.637291 123.71368 
L 291.688459 123.824678 
L 292.091522 126.86566 
L 292.194865 128.84213 
L 292.336113 128.507179 
L 292.558415 129.690997 
L 292.645664 129.248207 
L 292.68607 128.206717 
L 292.902399 130.252049 
L 292.972379 130.269946 
L 293.178986 129.49426 
L 293.246854 129.849898 
L 293.332156 131.125478 
L 293.385725 130.959488 
L 293.675678 128.514502 
L 293.744531 128.9522 
L 293.96695 127.24483 
L 294.037889 127.185098 
L 294.105149 127.277637 
L 294.176321 127.144064 
L 294.316063 125.049605 
L 294.398588 125.645235 
L 294.466968 125.299545 
L 294.534987 126.209077 
L 294.603514 125.021686 
L 294.6735 125.403953 
L 294.758585 124.322621 
L 294.949415 126.418906 
L 295.033817 126.851412 
L 295.106208 125.45019 
L 295.309783 126.144005 
L 295.403326 125.879817 
L 295.465623 125.743069 
L 295.808966 128.09586 
L 295.87793 127.226002 
L 295.946188 127.599688 
L 296.016295 127.491989 
L 296.090311 127.044227 
L 296.227357 127.750723 
L 296.376237 126.793051 
L 296.445167 127.313338 
L 296.462266 128.352443 
L 296.51469 126.917048 
L 296.665988 129.001206 
L 296.806842 130.797735 
L 296.875507 130.114756 
L 296.961546 130.05539 
L 297.081227 129.508344 
L 297.357049 129.453401 
L 297.442581 129.240304 
L 297.562165 128.520488 
L 297.823352 132.271372 
L 297.923755 131.412704 
L 298.008878 131.951025 
L 298.094509 129.552868 
L 298.231762 130.589534 
L 298.286273 129.700278 
L 298.372188 130.039866 
L 298.507962 127.314493 
L 298.594145 127.704087 
L 298.711472 127.617503 
L 298.782992 127.312972 
L 298.849742 125.473333 
L 298.936257 125.622713 
L 299.005233 126.292856 
L 299.074647 124.876458 
L 299.193099 125.060989 
L 299.228113 126.018831 
L 299.313235 125.922726 
L 299.368332 126.241008 
L 299.41733 127.228311 
L 299.531004 126.931065 
L 299.571679 127.445443 
L 299.744567 125.909267 
L 299.814001 126.250926 
L 299.950475 126.344318 
L 300.055914 126.730948 
L 300.189706 125.895181 
L 300.434643 128.977458 
L 300.499727 128.853958 
L 300.568336 128.934249 
L 300.674663 127.742649 
L 300.846388 129.265361 
L 301.004565 127.58048 
L 301.139005 128.421973 
L 301.239257 127.918855 
L 301.392515 129.401864 
L 301.432292 128.610926 
L 301.504816 129.549667 
L 301.564954 128.585831 
L 301.667624 129.159803 
L 301.701693 130.095811 
L 301.771391 129.286569 
L 301.926576 127.775498 
L 301.99581 129.290931 
L 302.0979 126.972964 
L 302.148823 127.996465 
L 302.338169 125.706474 
L 302.545876 127.581312 
L 302.631788 126.471956 
L 302.700986 126.833887 
L 302.766642 127.341095 
L 302.838654 126.143231 
L 302.904589 126.153024 
L 302.989877 126.317392 
L 303.046447 127.443324 
L 303.127818 126.705183 
L 303.196866 126.787529 
L 303.285049 126.682808 
L 303.506423 128.171243 
L 303.643463 127.064265 
L 303.924185 125.057399 
L 304.065446 125.259365 
L 304.189638 123.072716 
L 304.31587 123.381649 
L 304.332179 125.836733 
L 304.418532 124.863673 
L 304.472019 125.675317 
L 304.554832 125.463102 
L 304.726774 125.139554 
L 304.971268 127.338432 
L 305.070437 126.874082 
L 305.328201 128.52669 
L 305.774594 124.739485 
L 305.826678 125.612279 
L 305.895674 125.206365 
L 306.119356 123.609179 
L 306.239351 123.736006 
L 306.393832 124.946405 
L 306.463263 126.394138 
L 306.601542 124.957216 
L 306.687148 126.650428 
L 306.739154 126.118064 
L 306.893652 126.65894 
L 307.235926 122.255696 
L 307.341688 124.346001 
L 307.393148 123.620265 
L 307.531885 124.395289 
L 307.602902 124.288662 
L 307.74294 125.755888 
L 307.808361 127.309205 
L 307.894212 127.066604 
L 308.045498 125.577214 
L 308.15208 125.224394 
L 308.240771 125.476916 
L 308.274063 125.195326 
L 308.37711 123.520267 
L 308.477689 124.094184 
L 308.531256 122.521618 
L 308.740649 124.909775 
L 308.822705 125.861875 
L 308.926364 124.337727 
L 308.972873 124.820299 
L 309.086225 126.167389 
L 309.165753 125.392818 
L 309.23444 125.785139 
L 309.309675 126.04242 
L 309.510074 123.240024 
L 309.595348 122.81062 
L 309.741619 123.67682 
L 309.81502 123.906869 
L 309.827269 123.888187 
L 310.089402 126.467701 
L 310.171048 126.424022 
L 310.327343 127.718132 
L 310.380433 126.440765 
L 310.475811 126.667294 
L 310.722128 123.442134 
L 310.945258 125.139584 
L 311.013667 126.047349 
L 311.151669 125.087681 
L 311.219776 125.476642 
L 311.323824 125.103252 
L 311.374777 126.655943 
L 311.430202 126.446278 
L 311.580347 124.495346 
L 311.64886 124.900702 
L 311.75877 124.284202 
L 311.89124 126.571284 
L 312.080169 124.508685 
L 312.183281 124.763112 
L 312.245256 126.728801 
L 312.302221 126.702518 
L 312.372225 125.608939 
L 312.444677 127.111008 
L 312.664848 125.606921 
L 312.734522 125.110733 
L 312.85393 125.333873 
L 312.974437 125.820581 
L 313.008173 124.95181 
L 313.064452 126.039939 
L 313.111744 125.843306 
L 313.145785 124.590247 
L 313.240153 125.782859 
L 313.286764 125.23763 
L 313.422404 125.663678 
L 313.543206 126.761311 
L 313.634523 126.481534 
L 313.766743 126.63193 
L 313.801216 126.041749 
L 313.973795 126.983631 
L 314.14446 124.948051 
L 314.215828 125.737503 
L 314.385604 124.872361 
L 314.436969 126.314843 
L 314.507402 124.685921 
L 314.556786 124.898467 
L 314.793086 127.8079 
L 314.871757 127.216999 
L 314.938128 128.022588 
L 315.280212 125.57924 
L 315.469159 122.491878 
L 315.485625 123.108904 
" clip-path="url(#p1940756464)" style="fill: none; stroke: #ff0000; stroke-opacity: 0.5; stroke-width: 3; stroke-linecap: square"/>
   </g>
   <g id="patch_3">
    <path d="M 36.485625 139.32 
L 36.485625 0.72 
" style="fill: none; stroke: #000000; stroke-width: 0.8; stroke-linejoin: miter; stroke-linecap: square"/>
   </g>
   <g id="patch_4">
    <path d="M 315.485625 139.32 
L 315.485625 0.72 
" style="fill: none; stroke: #000000; stroke-width: 0.8; stroke-linejoin: miter; stroke-linecap: square"/>
   </g>
   <g id="patch_5">
    <path d="M 36.485625 139.32 
L 315.485625 139.32 
" style="fill: none; stroke: #000000; stroke-width: 0.8; stroke-linejoin: miter; stroke-linecap: square"/>
   </g>
   <g id="patch_6">
    <path d="M 36.485625 0.72 
L 315.485625 0.72 
" style="fill: none; stroke: #000000; stroke-width: 0.8; stroke-linejoin: miter; stroke-linecap: square"/>
   </g>
   <g id="legend_1">
    <g id="patch_7">
     <path d="M 234.716875 86.198125 
L 308.485625 86.198125 
Q 310.485625 86.198125 310.485625 84.198125 
L 310.485625 55.841875 
Q 310.485625 53.841875 308.485625 53.841875 
L 234.716875 53.841875 
Q 232.716875 53.841875 232.716875 55.841875 
L 232.716875 84.198125 
Q 232.716875 86.198125 234.716875 86.198125 
z
" style="fill: #ffffff; opacity: 0.8; stroke: #cccccc; stroke-linejoin: miter"/>
    </g>
    <g id="line2d_25">
     <path d="M 236.716875 61.940312 
L 246.716875 61.940312 
L 256.716875 61.940312 
" style="fill: none; stroke: #0000ff; stroke-opacity: 0.5; stroke-width: 3; stroke-linecap: square"/>
    </g>
    <g id="text_14">
     <!-- RNEA -->
     <g transform="translate(264.716875 65.440312) scale(0.1 -0.1)">
      <defs>
       <path id="DejaVuSans-52" d="M 2841 2188 
Q 3044 2119 3236 1894 
Q 3428 1669 3622 1275 
L 4263 0 
L 3584 0 
L 2988 1197 
Q 2756 1666 2539 1819 
Q 2322 1972 1947 1972 
L 1259 1972 
L 1259 0 
L 628 0 
L 628 4666 
L 2053 4666 
Q 2853 4666 3247 4331 
Q 3641 3997 3641 3322 
Q 3641 2881 3436 2590 
Q 3231 2300 2841 2188 
z
M 1259 4147 
L 1259 2491 
L 2053 2491 
Q 2509 2491 2742 2702 
Q 2975 2913 2975 3322 
Q 2975 3731 2742 3939 
Q 2509 4147 2053 4147 
L 1259 4147 
z
" transform="scale(0.015625)"/>
       <path id="DejaVuSans-45" d="M 628 4666 
L 3578 4666 
L 3578 4134 
L 1259 4134 
L 1259 2753 
L 3481 2753 
L 3481 2222 
L 1259 2222 
L 1259 531 
L 3634 531 
L 3634 0 
L 628 0 
L 628 4666 
z
" transform="scale(0.015625)"/>
       <path id="DejaVuSans-41" d="M 2188 4044 
L 1331 1722 
L 3047 1722 
L 2188 4044 
z
M 1831 4666 
L 2547 4666 
L 4325 0 
L 3669 0 
L 3244 1197 
L 1141 1197 
L 716 0 
L 50 0 
L 1831 4666 
z
" transform="scale(0.015625)"/>
      </defs>
      <use xlink:href="#DejaVuSans-52"/>
      <use xlink:href="#DejaVuSans-4e" x="69.482422"/>
      <use xlink:href="#DejaVuSans-45" x="144.287109"/>
      <use xlink:href="#DejaVuSans-41" x="207.470703"/>
     </g>
    </g>
    <g id="line2d_26">
     <path d="M 236.716875 76.618437 
L 246.716875 76.618437 
L 256.716875 76.618437 
" style="fill: none; stroke: #ff0000; stroke-opacity: 0.5; stroke-width: 3; stroke-linecap: square"/>
    </g>
    <g id="text_15">
     <!-- BURNEA -->
     <g transform="translate(264.716875 80.118437) scale(0.1 -0.1)">
      <defs>
       <path id="DejaVuSans-42" d="M 1259 2228 
L 1259 519 
L 2272 519 
Q 2781 519 3026 730 
Q 3272 941 3272 1375 
Q 3272 1813 3026 2020 
Q 2781 2228 2272 2228 
L 1259 2228 
z
M 1259 4147 
L 1259 2741 
L 2194 2741 
Q 2656 2741 2882 2914 
Q 3109 3088 3109 3444 
Q 3109 3797 2882 3972 
Q 2656 4147 2194 4147 
L 1259 4147 
z
M 628 4666 
L 2241 4666 
Q 2963 4666 3353 4366 
Q 3744 4066 3744 3513 
Q 3744 3084 3544 2831 
Q 3344 2578 2956 2516 
Q 3422 2416 3680 2098 
Q 3938 1781 3938 1306 
Q 3938 681 3513 340 
Q 3088 0 2303 0 
L 628 0 
L 628 4666 
z
" transform="scale(0.015625)"/>
       <path id="DejaVuSans-55" d="M 556 4666 
L 1191 4666 
L 1191 1831 
Q 1191 1081 1462 751 
Q 1734 422 2344 422 
Q 2950 422 3222 751 
Q 3494 1081 3494 1831 
L 3494 4666 
L 4128 4666 
L 4128 1753 
Q 4128 841 3676 375 
Q 3225 -91 2344 -91 
Q 1459 -91 1007 375 
Q 556 841 556 1753 
L 556 4666 
z
" transform="scale(0.015625)"/>
      </defs>
      <use xlink:href="#DejaVuSans-42"/>
      <use xlink:href="#DejaVuSans-55" x="68.603516"/>
      <use xlink:href="#DejaVuSans-52" x="141.796875"/>
      <use xlink:href="#DejaVuSans-4e" x="211.279297"/>
      <use xlink:href="#DejaVuSans-45" x="286.083984"/>
      <use xlink:href="#DejaVuSans-41" x="349.267578"/>
     </g>
    </g>
   </g>
  </g>
 </g>
 <defs>
  <clipPath id="p1940756464">
   <rect x="36.485625" y="0.72" width="279" height="138.6"/>
  </clipPath>
 </defs>
</svg>
