<?xml version="1.0" encoding="utf-8" standalone="no"?>
<!DOCTYPE svg PUBLIC "-//W3C//DTD SVG 1.1//EN"
  "http://www.w3.org/Graphics/SVG/1.1/DTD/svg11.dtd">
<svg xmlns:xlink="http://www.w3.org/1999/xlink" width="595.205625pt" height="304.99625pt" viewBox="0 0 595.205625 304.99625" xmlns="http://www.w3.org/2000/svg" version="1.1">
 <metadata>
  <rdf:RDF xmlns:dc="http://purl.org/dc/elements/1.1/" xmlns:cc="http://creativecommons.org/ns#" xmlns:rdf="http://www.w3.org/1999/02/22-rdf-syntax-ns#">
   <cc:Work>
    <dc:type rdf:resource="http://purl.org/dc/dcmitype/StillImage"/>
    <dc:date>2023-09-05T22:09:04.480870</dc:date>
    <dc:format>image/svg+xml</dc:format>
    <dc:creator>
     <cc:Agent>
      <dc:title>Matplotlib v3.7.2, https://matplotlib.org/</dc:title>
     </cc:Agent>
    </dc:creator>
   </cc:Work>
  </rdf:RDF>
 </metadata>
 <defs>
  <style type="text/css">*{stroke-linejoin: round; stroke-linecap: butt}</style>
 </defs>
 <g id="figure_1">
  <g id="patch_1">
   <path d="M 0 304.99625 
L 595.205625 304.99625 
L 595.205625 0 
L 0 0 
L 0 304.99625 
z
" style="fill: none"/>
  </g>
  <g id="axes_1">
   <g id="patch_2">
    <path d="M 36.485625 277.92 
L 594.485625 277.92 
L 594.485625 0.72 
L 36.485625 0.72 
L 36.485625 277.92 
z
" style="fill: none"/>
   </g>
   <g id="matplotlib.axis_1">
    <g id="xtick_1">
     <g id="line2d_1">
      <path d="M 36.485625 277.92 
L 36.485625 0.72 
" clip-path="url(#p18952500f4)" style="fill: none; stroke-dasharray: 0.8,1.32; stroke-dashoffset: 0; stroke: #000000; stroke-opacity: 0.5; stroke-width: 0.8"/>
     </g>
     <g id="line2d_2">
      <defs>
       <path id="m46e2740483" d="M 0 0 
L 0 3.5 
" style="stroke: #000000; stroke-width: 0.8"/>
      </defs>
      <g>
       <use xlink:href="#m46e2740483" x="36.485625" y="277.92" style="stroke: #000000; stroke-width: 0.8"/>
      </g>
     </g>
     <g id="text_1">
      <!-- 0 -->
      <g transform="translate(33.304375 292.518438) scale(0.1 -0.1)">
       <defs>
        <path id="DejaVuSans-30" d="M 2034 4250 
Q 1547 4250 1301 3770 
Q 1056 3291 1056 2328 
Q 1056 1369 1301 889 
Q 1547 409 2034 409 
Q 2525 409 2770 889 
Q 3016 1369 3016 2328 
Q 3016 3291 2770 3770 
Q 2525 4250 2034 4250 
z
M 2034 4750 
Q 2819 4750 3233 4129 
Q 3647 3509 3647 2328 
Q 3647 1150 3233 529 
Q 2819 -91 2034 -91 
Q 1250 -91 836 529 
Q 422 1150 422 2328 
Q 422 3509 836 4129 
Q 1250 4750 2034 4750 
z
" transform="scale(0.015625)"/>
       </defs>
       <use xlink:href="#DejaVuSans-30"/>
      </g>
     </g>
    </g>
    <g id="xtick_2">
     <g id="line2d_3">
      <path d="M 121.715426 277.92 
L 121.715426 0.72 
" clip-path="url(#p18952500f4)" style="fill: none; stroke-dasharray: 0.8,1.32; stroke-dashoffset: 0; stroke: #000000; stroke-opacity: 0.5; stroke-width: 0.8"/>
     </g>
     <g id="line2d_4">
      <g>
       <use xlink:href="#m46e2740483" x="121.715426" y="277.92" style="stroke: #000000; stroke-width: 0.8"/>
      </g>
     </g>
     <g id="text_2">
      <!-- 5 -->
      <g transform="translate(118.534176 292.518438) scale(0.1 -0.1)">
       <defs>
        <path id="DejaVuSans-35" d="M 691 4666 
L 3169 4666 
L 3169 4134 
L 1269 4134 
L 1269 2991 
Q 1406 3038 1543 3061 
Q 1681 3084 1819 3084 
Q 2600 3084 3056 2656 
Q 3513 2228 3513 1497 
Q 3513 744 3044 326 
Q 2575 -91 1722 -91 
Q 1428 -91 1123 -41 
Q 819 9 494 109 
L 494 744 
Q 775 591 1075 516 
Q 1375 441 1709 441 
Q 2250 441 2565 725 
Q 2881 1009 2881 1497 
Q 2881 1984 2565 2268 
Q 2250 2553 1709 2553 
Q 1456 2553 1204 2497 
Q 953 2441 691 2322 
L 691 4666 
z
" transform="scale(0.015625)"/>
       </defs>
       <use xlink:href="#DejaVuSans-35"/>
      </g>
     </g>
    </g>
    <g id="xtick_3">
     <g id="line2d_5">
      <path d="M 206.945227 277.92 
L 206.945227 0.72 
" clip-path="url(#p18952500f4)" style="fill: none; stroke-dasharray: 0.8,1.32; stroke-dashoffset: 0; stroke: #000000; stroke-opacity: 0.5; stroke-width: 0.8"/>
     </g>
     <g id="line2d_6">
      <g>
       <use xlink:href="#m46e2740483" x="206.945227" y="277.92" style="stroke: #000000; stroke-width: 0.8"/>
      </g>
     </g>
     <g id="text_3">
      <!-- 10 -->
      <g transform="translate(200.582727 292.518438) scale(0.1 -0.1)">
       <defs>
        <path id="DejaVuSans-31" d="M 794 531 
L 1825 531 
L 1825 4091 
L 703 3866 
L 703 4441 
L 1819 4666 
L 2450 4666 
L 2450 531 
L 3481 531 
L 3481 0 
L 794 0 
L 794 531 
z
" transform="scale(0.015625)"/>
       </defs>
       <use xlink:href="#DejaVuSans-31"/>
       <use xlink:href="#DejaVuSans-30" x="63.623047"/>
      </g>
     </g>
    </g>
    <g id="xtick_4">
     <g id="line2d_7">
      <path d="M 292.175028 277.92 
L 292.175028 0.72 
" clip-path="url(#p18952500f4)" style="fill: none; stroke-dasharray: 0.8,1.32; stroke-dashoffset: 0; stroke: #000000; stroke-opacity: 0.5; stroke-width: 0.8"/>
     </g>
     <g id="line2d_8">
      <g>
       <use xlink:href="#m46e2740483" x="292.175028" y="277.92" style="stroke: #000000; stroke-width: 0.8"/>
      </g>
     </g>
     <g id="text_4">
      <!-- 15 -->
      <g transform="translate(285.812528 292.518438) scale(0.1 -0.1)">
       <use xlink:href="#DejaVuSans-31"/>
       <use xlink:href="#DejaVuSans-35" x="63.623047"/>
      </g>
     </g>
    </g>
    <g id="xtick_5">
     <g id="line2d_9">
      <path d="M 377.404829 277.92 
L 377.404829 0.72 
" clip-path="url(#p18952500f4)" style="fill: none; stroke-dasharray: 0.8,1.32; stroke-dashoffset: 0; stroke: #000000; stroke-opacity: 0.5; stroke-width: 0.8"/>
     </g>
     <g id="line2d_10">
      <g>
       <use xlink:href="#m46e2740483" x="377.404829" y="277.92" style="stroke: #000000; stroke-width: 0.8"/>
      </g>
     </g>
     <g id="text_5">
      <!-- 20 -->
      <g transform="translate(371.042329 292.518438) scale(0.1 -0.1)">
       <defs>
        <path id="DejaVuSans-32" d="M 1228 531 
L 3431 531 
L 3431 0 
L 469 0 
L 469 531 
Q 828 903 1448 1529 
Q 2069 2156 2228 2338 
Q 2531 2678 2651 2914 
Q 2772 3150 2772 3378 
Q 2772 3750 2511 3984 
Q 2250 4219 1831 4219 
Q 1534 4219 1204 4116 
Q 875 4013 500 3803 
L 500 4441 
Q 881 4594 1212 4672 
Q 1544 4750 1819 4750 
Q 2544 4750 2975 4387 
Q 3406 4025 3406 3419 
Q 3406 3131 3298 2873 
Q 3191 2616 2906 2266 
Q 2828 2175 2409 1742 
Q 1991 1309 1228 531 
z
" transform="scale(0.015625)"/>
       </defs>
       <use xlink:href="#DejaVuSans-32"/>
       <use xlink:href="#DejaVuSans-30" x="63.623047"/>
      </g>
     </g>
    </g>
    <g id="xtick_6">
     <g id="line2d_11">
      <path d="M 462.63463 277.92 
L 462.63463 0.72 
" clip-path="url(#p18952500f4)" style="fill: none; stroke-dasharray: 0.8,1.32; stroke-dashoffset: 0; stroke: #000000; stroke-opacity: 0.5; stroke-width: 0.8"/>
     </g>
     <g id="line2d_12">
      <g>
       <use xlink:href="#m46e2740483" x="462.63463" y="277.92" style="stroke: #000000; stroke-width: 0.8"/>
      </g>
     </g>
     <g id="text_6">
      <!-- 25 -->
      <g transform="translate(456.27213 292.518438) scale(0.1 -0.1)">
       <use xlink:href="#DejaVuSans-32"/>
       <use xlink:href="#DejaVuSans-35" x="63.623047"/>
      </g>
     </g>
    </g>
    <g id="xtick_7">
     <g id="line2d_13">
      <path d="M 547.864431 277.92 
L 547.864431 0.72 
" clip-path="url(#p18952500f4)" style="fill: none; stroke-dasharray: 0.8,1.32; stroke-dashoffset: 0; stroke: #000000; stroke-opacity: 0.5; stroke-width: 0.8"/>
     </g>
     <g id="line2d_14">
      <g>
       <use xlink:href="#m46e2740483" x="547.864431" y="277.92" style="stroke: #000000; stroke-width: 0.8"/>
      </g>
     </g>
     <g id="text_7">
      <!-- 30 -->
      <g transform="translate(541.501931 292.518438) scale(0.1 -0.1)">
       <defs>
        <path id="DejaVuSans-33" d="M 2597 2516 
Q 3050 2419 3304 2112 
Q 3559 1806 3559 1356 
Q 3559 666 3084 287 
Q 2609 -91 1734 -91 
Q 1441 -91 1130 -33 
Q 819 25 488 141 
L 488 750 
Q 750 597 1062 519 
Q 1375 441 1716 441 
Q 2309 441 2620 675 
Q 2931 909 2931 1356 
Q 2931 1769 2642 2001 
Q 2353 2234 1838 2234 
L 1294 2234 
L 1294 2753 
L 1863 2753 
Q 2328 2753 2575 2939 
Q 2822 3125 2822 3475 
Q 2822 3834 2567 4026 
Q 2313 4219 1838 4219 
Q 1578 4219 1281 4162 
Q 984 4106 628 3988 
L 628 4550 
Q 988 4650 1302 4700 
Q 1616 4750 1894 4750 
Q 2613 4750 3031 4423 
Q 3450 4097 3450 3541 
Q 3450 3153 3228 2886 
Q 3006 2619 2597 2516 
z
" transform="scale(0.015625)"/>
       </defs>
       <use xlink:href="#DejaVuSans-33"/>
       <use xlink:href="#DejaVuSans-30" x="63.623047"/>
      </g>
     </g>
    </g>
    <g id="text_8">
     <!-- Zeit [s] -->
     <g transform="translate(297.539531 302.196563) scale(0.1 -0.1)">
      <defs>
       <path id="DejaVuSans-5a" d="M 359 4666 
L 4025 4666 
L 4025 4184 
L 1075 531 
L 4097 531 
L 4097 0 
L 288 0 
L 288 481 
L 3238 4134 
L 359 4134 
L 359 4666 
z
" transform="scale(0.015625)"/>
       <path id="DejaVuSans-65" d="M 3597 1894 
L 3597 1613 
L 953 1613 
Q 991 1019 1311 708 
Q 1631 397 2203 397 
Q 2534 397 2845 478 
Q 3156 559 3463 722 
L 3463 178 
Q 3153 47 2828 -22 
Q 2503 -91 2169 -91 
Q 1331 -91 842 396 
Q 353 884 353 1716 
Q 353 2575 817 3079 
Q 1281 3584 2069 3584 
Q 2775 3584 3186 3129 
Q 3597 2675 3597 1894 
z
M 3022 2063 
Q 3016 2534 2758 2815 
Q 2500 3097 2075 3097 
Q 1594 3097 1305 2825 
Q 1016 2553 972 2059 
L 3022 2063 
z
" transform="scale(0.015625)"/>
       <path id="DejaVuSans-69" d="M 603 3500 
L 1178 3500 
L 1178 0 
L 603 0 
L 603 3500 
z
M 603 4863 
L 1178 4863 
L 1178 4134 
L 603 4134 
L 603 4863 
z
" transform="scale(0.015625)"/>
       <path id="DejaVuSans-74" d="M 1172 4494 
L 1172 3500 
L 2356 3500 
L 2356 3053 
L 1172 3053 
L 1172 1153 
Q 1172 725 1289 603 
Q 1406 481 1766 481 
L 2356 481 
L 2356 0 
L 1766 0 
Q 1100 0 847 248 
Q 594 497 594 1153 
L 594 3053 
L 172 3053 
L 172 3500 
L 594 3500 
L 594 4494 
L 1172 4494 
z
" transform="scale(0.015625)"/>
       <path id="DejaVuSans-20" transform="scale(0.015625)"/>
       <path id="DejaVuSans-5b" d="M 550 4863 
L 1875 4863 
L 1875 4416 
L 1125 4416 
L 1125 -397 
L 1875 -397 
L 1875 -844 
L 550 -844 
L 550 4863 
z
" transform="scale(0.015625)"/>
       <path id="DejaVuSans-73" d="M 2834 3397 
L 2834 2853 
Q 2591 2978 2328 3040 
Q 2066 3103 1784 3103 
Q 1356 3103 1142 2972 
Q 928 2841 928 2578 
Q 928 2378 1081 2264 
Q 1234 2150 1697 2047 
L 1894 2003 
Q 2506 1872 2764 1633 
Q 3022 1394 3022 966 
Q 3022 478 2636 193 
Q 2250 -91 1575 -91 
Q 1294 -91 989 -36 
Q 684 19 347 128 
L 347 722 
Q 666 556 975 473 
Q 1284 391 1588 391 
Q 1994 391 2212 530 
Q 2431 669 2431 922 
Q 2431 1156 2273 1281 
Q 2116 1406 1581 1522 
L 1381 1569 
Q 847 1681 609 1914 
Q 372 2147 372 2553 
Q 372 3047 722 3315 
Q 1072 3584 1716 3584 
Q 2034 3584 2315 3537 
Q 2597 3491 2834 3397 
z
" transform="scale(0.015625)"/>
       <path id="DejaVuSans-5d" d="M 1947 4863 
L 1947 -844 
L 622 -844 
L 622 -397 
L 1369 -397 
L 1369 4416 
L 622 4416 
L 622 4863 
L 1947 4863 
z
" transform="scale(0.015625)"/>
      </defs>
      <use xlink:href="#DejaVuSans-5a"/>
      <use xlink:href="#DejaVuSans-65" x="68.505859"/>
      <use xlink:href="#DejaVuSans-69" x="130.029297"/>
      <use xlink:href="#DejaVuSans-74" x="157.8125"/>
      <use xlink:href="#DejaVuSans-20" x="197.021484"/>
      <use xlink:href="#DejaVuSans-5b" x="228.808594"/>
      <use xlink:href="#DejaVuSans-73" x="267.822266"/>
      <use xlink:href="#DejaVuSans-5d" x="319.921875"/>
     </g>
    </g>
   </g>
   <g id="matplotlib.axis_2">
    <g id="ytick_1">
     <g id="line2d_15">
      <path d="M 36.485625 259.310085 
L 594.485625 259.310085 
" clip-path="url(#p18952500f4)" style="fill: none; stroke-dasharray: 0.8,1.32; stroke-dashoffset: 0; stroke: #000000; stroke-opacity: 0.5; stroke-width: 0.8"/>
     </g>
     <g id="line2d_16">
      <defs>
       <path id="mf17df9c726" d="M 0 0 
L -3.5 0 
" style="stroke: #000000; stroke-width: 0.8"/>
      </defs>
      <g>
       <use xlink:href="#mf17df9c726" x="36.485625" y="259.310085" style="stroke: #000000; stroke-width: 0.8"/>
      </g>
     </g>
     <g id="text_9">
      <!-- 105 -->
      <g transform="translate(10.398125 263.109304) scale(0.1 -0.1)">
       <use xlink:href="#DejaVuSans-31"/>
       <use xlink:href="#DejaVuSans-30" x="63.623047"/>
       <use xlink:href="#DejaVuSans-35" x="127.246094"/>
      </g>
     </g>
    </g>
    <g id="ytick_2">
     <g id="line2d_17">
      <path d="M 36.485625 211.873605 
L 594.485625 211.873605 
" clip-path="url(#p18952500f4)" style="fill: none; stroke-dasharray: 0.8,1.32; stroke-dashoffset: 0; stroke: #000000; stroke-opacity: 0.5; stroke-width: 0.8"/>
     </g>
     <g id="line2d_18">
      <g>
       <use xlink:href="#mf17df9c726" x="36.485625" y="211.873605" style="stroke: #000000; stroke-width: 0.8"/>
      </g>
     </g>
     <g id="text_10">
      <!-- 110 -->
      <g transform="translate(10.398125 215.672824) scale(0.1 -0.1)">
       <use xlink:href="#DejaVuSans-31"/>
       <use xlink:href="#DejaVuSans-31" x="63.623047"/>
       <use xlink:href="#DejaVuSans-30" x="127.246094"/>
      </g>
     </g>
    </g>
    <g id="ytick_3">
     <g id="line2d_19">
      <path d="M 36.485625 164.437125 
L 594.485625 164.437125 
" clip-path="url(#p18952500f4)" style="fill: none; stroke-dasharray: 0.8,1.32; stroke-dashoffset: 0; stroke: #000000; stroke-opacity: 0.5; stroke-width: 0.8"/>
     </g>
     <g id="line2d_20">
      <g>
       <use xlink:href="#mf17df9c726" x="36.485625" y="164.437125" style="stroke: #000000; stroke-width: 0.8"/>
      </g>
     </g>
     <g id="text_11">
      <!-- 115 -->
      <g transform="translate(10.398125 168.236344) scale(0.1 -0.1)">
       <use xlink:href="#DejaVuSans-31"/>
       <use xlink:href="#DejaVuSans-31" x="63.623047"/>
       <use xlink:href="#DejaVuSans-35" x="127.246094"/>
      </g>
     </g>
    </g>
    <g id="ytick_4">
     <g id="line2d_21">
      <path d="M 36.485625 117.000645 
L 594.485625 117.000645 
" clip-path="url(#p18952500f4)" style="fill: none; stroke-dasharray: 0.8,1.32; stroke-dashoffset: 0; stroke: #000000; stroke-opacity: 0.5; stroke-width: 0.8"/>
     </g>
     <g id="line2d_22">
      <g>
       <use xlink:href="#mf17df9c726" x="36.485625" y="117.000645" style="stroke: #000000; stroke-width: 0.8"/>
      </g>
     </g>
     <g id="text_12">
      <!-- 120 -->
      <g transform="translate(10.398125 120.799864) scale(0.1 -0.1)">
       <use xlink:href="#DejaVuSans-31"/>
       <use xlink:href="#DejaVuSans-32" x="63.623047"/>
       <use xlink:href="#DejaVuSans-30" x="127.246094"/>
      </g>
     </g>
    </g>
    <g id="ytick_5">
     <g id="line2d_23">
      <path d="M 36.485625 69.564165 
L 594.485625 69.564165 
" clip-path="url(#p18952500f4)" style="fill: none; stroke-dasharray: 0.8,1.32; stroke-dashoffset: 0; stroke: #000000; stroke-opacity: 0.5; stroke-width: 0.8"/>
     </g>
     <g id="line2d_24">
      <g>
       <use xlink:href="#mf17df9c726" x="36.485625" y="69.564165" style="stroke: #000000; stroke-width: 0.8"/>
      </g>
     </g>
     <g id="text_13">
      <!-- 125 -->
      <g transform="translate(10.398125 73.363384) scale(0.1 -0.1)">
       <use xlink:href="#DejaVuSans-31"/>
       <use xlink:href="#DejaVuSans-32" x="63.623047"/>
       <use xlink:href="#DejaVuSans-35" x="127.246094"/>
      </g>
     </g>
    </g>
    <g id="ytick_6">
     <g id="line2d_25">
      <path d="M 36.485625 22.127685 
L 594.485625 22.127685 
" clip-path="url(#p18952500f4)" style="fill: none; stroke-dasharray: 0.8,1.32; stroke-dashoffset: 0; stroke: #000000; stroke-opacity: 0.5; stroke-width: 0.8"/>
     </g>
     <g id="line2d_26">
      <g>
       <use xlink:href="#mf17df9c726" x="36.485625" y="22.127685" style="stroke: #000000; stroke-width: 0.8"/>
      </g>
     </g>
     <g id="text_14">
      <!-- 130 -->
      <g transform="translate(10.398125 25.926904) scale(0.1 -0.1)">
       <use xlink:href="#DejaVuSans-31"/>
       <use xlink:href="#DejaVuSans-33" x="63.623047"/>
       <use xlink:href="#DejaVuSans-30" x="127.246094"/>
      </g>
     </g>
    </g>
    <g id="text_15">
     <!-- Kraft [N] -->
     <g transform="translate(8.318438 160.5825) rotate(-90) scale(0.1 -0.1)">
      <defs>
       <path id="DejaVuSans-4b" d="M 628 4666 
L 1259 4666 
L 1259 2694 
L 3353 4666 
L 4166 4666 
L 1850 2491 
L 4331 0 
L 3500 0 
L 1259 2247 
L 1259 0 
L 628 0 
L 628 4666 
z
" transform="scale(0.015625)"/>
       <path id="DejaVuSans-72" d="M 2631 2963 
Q 2534 3019 2420 3045 
Q 2306 3072 2169 3072 
Q 1681 3072 1420 2755 
Q 1159 2438 1159 1844 
L 1159 0 
L 581 0 
L 581 3500 
L 1159 3500 
L 1159 2956 
Q 1341 3275 1631 3429 
Q 1922 3584 2338 3584 
Q 2397 3584 2469 3576 
Q 2541 3569 2628 3553 
L 2631 2963 
z
" transform="scale(0.015625)"/>
       <path id="DejaVuSans-61" d="M 2194 1759 
Q 1497 1759 1228 1600 
Q 959 1441 959 1056 
Q 959 750 1161 570 
Q 1363 391 1709 391 
Q 2188 391 2477 730 
Q 2766 1069 2766 1631 
L 2766 1759 
L 2194 1759 
z
M 3341 1997 
L 3341 0 
L 2766 0 
L 2766 531 
Q 2569 213 2275 61 
Q 1981 -91 1556 -91 
Q 1019 -91 701 211 
Q 384 513 384 1019 
Q 384 1609 779 1909 
Q 1175 2209 1959 2209 
L 2766 2209 
L 2766 2266 
Q 2766 2663 2505 2880 
Q 2244 3097 1772 3097 
Q 1472 3097 1187 3025 
Q 903 2953 641 2809 
L 641 3341 
Q 956 3463 1253 3523 
Q 1550 3584 1831 3584 
Q 2591 3584 2966 3190 
Q 3341 2797 3341 1997 
z
" transform="scale(0.015625)"/>
       <path id="DejaVuSans-66" d="M 2375 4863 
L 2375 4384 
L 1825 4384 
Q 1516 4384 1395 4259 
Q 1275 4134 1275 3809 
L 1275 3500 
L 2222 3500 
L 2222 3053 
L 1275 3053 
L 1275 0 
L 697 0 
L 697 3053 
L 147 3053 
L 147 3500 
L 697 3500 
L 697 3744 
Q 697 4328 969 4595 
Q 1241 4863 1831 4863 
L 2375 4863 
z
" transform="scale(0.015625)"/>
       <path id="DejaVuSans-4e" d="M 628 4666 
L 1478 4666 
L 3547 763 
L 3547 4666 
L 4159 4666 
L 4159 0 
L 3309 0 
L 1241 3903 
L 1241 0 
L 628 0 
L 628 4666 
z
" transform="scale(0.015625)"/>
      </defs>
      <use xlink:href="#DejaVuSans-4b"/>
      <use xlink:href="#DejaVuSans-72" x="65.576172"/>
      <use xlink:href="#DejaVuSans-61" x="106.689453"/>
      <use xlink:href="#DejaVuSans-66" x="167.96875"/>
      <use xlink:href="#DejaVuSans-74" x="201.423828"/>
      <use xlink:href="#DejaVuSans-20" x="240.632812"/>
      <use xlink:href="#DejaVuSans-5b" x="272.419922"/>
      <use xlink:href="#DejaVuSans-4e" x="311.433594"/>
      <use xlink:href="#DejaVuSans-5d" x="386.238281"/>
     </g>
    </g>
   </g>
   <g id="line2d_27">
    <path d="M 36.485625 0.720001 
L 594.485625 0.720001 
L 594.485625 0.720001 
" clip-path="url(#p18952500f4)" style="fill: none; stroke: #0000ff; stroke-opacity: 0.7; stroke-width: 1.5; stroke-linecap: square"/>
   </g>
   <g id="line2d_28">
    <path d="M 36.485625 260.214018 
L 36.900324 267.875657 
L 37.082283 266.834376 
L 37.112522 262.351749 
L 37.214214 264.533171 
L 37.35591 264.137302 
L 37.455402 257.01935 
L 37.727442 259.632426 
L 37.900875 258.72372 
L 38.049481 260.59505 
L 38.207775 255.637165 
L 38.310397 256.034067 
L 38.585464 260.209672 
L 38.723785 257.923595 
L 38.930142 259.774589 
L 39.170091 256.194245 
L 39.306635 259.474551 
L 39.478804 258.589065 
L 39.718968 260.930807 
L 40.061194 253.996367 
L 40.40495 257.036962 
L 40.615379 259.860927 
L 40.749884 259.185549 
L 40.887838 261.828311 
L 41.128053 260.556593 
L 41.16752 257.960642 
L 41.856951 264.122724 
L 42.295344 260.345845 
L 42.433243 262.601803 
L 42.570993 261.81697 
L 42.847646 268.895419 
L 42.985649 267.947826 
L 43.132519 264.15512 
L 43.276253 264.6146 
L 43.435093 267.637626 
L 43.54503 264.952753 
L 43.710899 264.335411 
L 43.848018 263.387307 
L 43.985914 263.918183 
L 44.274055 260.24571 
L 44.406865 263.710593 
L 44.74436 261.345114 
L 44.846263 259.446574 
L 44.982306 260.326283 
L 45.120147 257.766504 
L 45.255764 258.220248 
L 45.543104 264.460595 
L 45.845128 260.999561 
L 45.982594 261.899941 
L 46.257769 255.065758 
L 46.396024 255.010673 
L 46.670904 259.955404 
L 46.953553 258.144956 
L 47.118645 258.399552 
L 47.394625 253.131984 
L 47.531296 254.335039 
L 47.66979 257.586051 
L 47.827229 258.216783 
L 47.95017 257.120282 
L 48.114762 258.480587 
L 48.252558 258.41773 
L 48.554086 255.427588 
L 48.667401 257.000544 
L 48.807028 256.137256 
L 48.942111 257.082236 
L 49.217033 260.735525 
L 49.387688 258.920849 
L 49.664404 252.54674 
L 49.798999 253.629455 
L 50.223662 260.813909 
L 50.389698 262.195323 
L 50.52256 260.080486 
L 50.803106 263.740391 
L 50.939641 262.36146 
L 51.076434 262.168646 
L 51.351283 259.890274 
L 51.557661 256.775216 
L 51.69536 258.694076 
L 51.866543 258.618025 
L 52.073013 263.054002 
L 52.313178 258.898827 
L 52.624848 267.500287 
L 52.792796 273.983185 
L 53.205401 265.71982 
L 53.347376 259.729015 
L 53.522423 261.682431 
L 53.628915 264.191313 
L 53.771944 263.811898 
L 54.072095 262.06727 
L 54.207109 258.736826 
L 54.485655 258.386525 
L 54.620437 260.065982 
L 54.76944 259.913218 
L 54.791996 261.030688 
L 54.937688 261.94971 
L 55.078049 261.502745 
L 55.228788 262.528948 
L 55.250883 262.303708 
L 55.357237 262.595866 
L 55.523677 264.791826 
L 55.770927 263.648149 
L 56.083482 258.391554 
L 56.200035 259.814494 
L 56.340559 259.810721 
L 56.525206 260.380524 
L 56.819622 264.122331 
L 56.921365 258.139759 
L 57.114452 255.005505 
L 57.135277 254.372505 
L 57.259955 254.639417 
L 57.260939 256.779126 
L 57.412615 258.461679 
L 57.652162 262.62127 
L 57.791623 263.552895 
L 57.962523 262.810815 
L 58.23703 258.146536 
L 58.546446 264.022709 
L 58.649583 265.237468 
L 58.752897 261.387053 
L 58.928136 260.858312 
L 59.062845 259.794272 
L 59.166319 261.701332 
L 59.486246 263.930286 
L 59.680387 262.414498 
L 59.854955 262.693557 
L 60.027305 257.393147 
L 60.35463 265.309632 
L 60.471925 264.726657 
L 60.755061 260.659102 
L 60.933193 259.183895 
L 61.055681 260.933597 
L 61.160136 260.202327 
L 61.53561 269.063186 
L 61.638254 269.60578 
L 62.156779 267.272451 
L 62.239441 264.203972 
L 62.4288 263.541097 
L 62.565783 265.002173 
L 62.73881 262.455909 
L 63.014317 255.971027 
L 63.15107 251.153934 
L 63.321963 252.238997 
L 63.674248 258.523906 
L 63.733728 261.91538 
L 63.872048 262.055867 
L 64.009224 261.188889 
L 64.181262 262.312679 
L 64.593439 267.990094 
L 64.729962 267.371103 
L 65.382513 257.243141 
L 65.450701 262.929126 
L 65.567323 262.793796 
L 65.724676 260.057825 
L 66.000313 265.135702 
L 66.197755 264.353343 
L 66.447115 269.094068 
L 66.626512 271.15472 
L 66.724075 269.958456 
L 66.861494 264.47286 
L 67.021812 264.739891 
L 67.136653 268.543317 
L 67.376231 267.347004 
L 67.478928 267.374264 
L 67.58304 268.049283 
L 67.856684 263.837161 
L 68.339036 269.463338 
L 68.443253 268.361209 
L 68.580154 263.753907 
L 68.717383 264.657562 
L 68.923204 264.515287 
L 69.02822 266.184188 
L 69.232487 266.47893 
L 69.541955 265.186409 
L 69.644881 265.42592 
L 69.748682 265.266327 
L 69.94582 264.252808 
L 70.127595 265.455399 
L 70.300018 265.565681 
L 70.43656 267.93189 
L 70.71935 269.00204 
L 71.028773 263.750116 
L 71.150291 266.09795 
L 71.293828 266.69146 
L 71.536226 266.147193 
L 71.649049 265.16405 
L 71.726416 266.916069 
L 71.726563 264.980408 
L 72.020103 266.588865 
L 72.265496 266.806178 
L 72.329594 265.946398 
L 72.365865 267.93894 
L 72.500733 267.511274 
L 72.660831 264.605876 
L 72.693976 265.524245 
L 72.831763 264.024535 
L 72.99582 265.866317 
L 73.15362 265.774374 
L 73.356287 264.250303 
L 73.553805 264.867982 
L 73.697425 264.305992 
L 73.833058 266.070535 
L 73.970829 266.15127 
L 74.175647 262.872847 
L 74.244649 268.563653 
L 74.383009 267.318023 
L 74.829262 251.706364 
L 75.241119 260.250348 
L 75.446944 259.019566 
L 75.557084 264.537493 
L 76.005662 259.789738 
L 76.247954 261.403381 
L 76.419098 265.004331 
L 76.518564 264.965273 
L 76.862557 264.406772 
L 77.00016 260.909212 
L 77.105198 260.952189 
L 77.244261 263.16733 
L 77.493465 263.691147 
L 77.654114 266.918819 
L 77.962151 264.137319 
L 78.101225 260.289689 
L 78.274325 259.13783 
L 78.412325 260.003085 
L 78.658927 254.758894 
L 78.824143 254.664543 
L 79.236548 251.457305 
L 79.269419 252.37875 
L 79.996111 256.087995 
L 80.746461 260.701893 
L 81.547895 262.163924 
L 82.297004 261.238871 
L 82.327359 258.696592 
L 82.63661 263.116077 
L 82.912885 257.788858 
L 83.427349 272.785356 
L 83.464451 269.029677 
L 83.875817 266.618236 
L 83.9081 263.952321 
L 84.147994 262.293737 
L 84.393251 267.439464 
L 84.870568 260.07449 
L 85.043912 267.169356 
L 85.185821 267.253734 
L 85.331736 268.062521 
L 85.593355 265.769588 
L 85.937134 254.243281 
L 86.041062 254.891427 
L 86.210092 258.538773 
L 86.534071 252.607463 
L 86.726096 252.748946 
L 86.897694 259.248839 
L 87.038975 261.36392 
L 87.242755 260.931365 
L 87.310655 260.393295 
L 87.688523 254.957868 
L 87.972452 258.231835 
L 88.066887 258.177214 
L 88.248552 256.272768 
L 88.454131 258.931692 
L 88.480789 262.040051 
L 88.609763 259.208577 
L 88.816194 258.388088 
L 89.297205 261.948232 
L 89.435309 261.585348 
L 89.743278 259.617985 
L 89.881231 259.838879 
L 90.056494 260.641499 
L 90.328858 263.238539 
L 90.431278 262.215757 
L 90.739172 264.144574 
L 91.052611 263.370903 
L 91.322829 259.437864 
L 91.426237 262.489192 
L 91.599337 262.980021 
L 91.838353 260.43204 
L 92.011534 254.024585 
L 92.149416 251.999146 
L 92.322449 252.957071 
L 92.702465 258.811994 
L 92.871456 255.333621 
L 93.00944 255.253291 
L 93.283662 264.517218 
L 93.522449 265.595462 
L 93.556491 267.830245 
L 93.731858 266.009763 
L 94.024701 265.350785 
L 94.025274 266.134986 
L 94.039979 263.097803 
L 94.193599 262.008462 
L 94.487983 265.854171 
L 94.645705 265.454147 
L 94.844702 271.695932 
L 94.982595 276.337727 
L 95.185475 277.92 
L 95.426085 277.028281 
L 95.700883 275.007943 
L 95.83712 273.099108 
L 96.558757 252.726431 
L 96.695414 254.674141 
L 96.935128 255.372795 
L 96.97362 255.220365 
L 97.151371 254.622702 
L 97.246815 253.868059 
L 97.414959 255.930762 
L 97.560754 255.5629 
L 97.692421 256.513906 
L 97.966012 264.176209 
L 98.109191 264.94963 
L 98.379482 265.274729 
L 98.48257 268.188752 
L 98.558459 268.0713 
L 98.68883 267.339493 
L 98.963111 271.395859 
L 99.102017 271.295452 
L 99.412246 261.249725 
L 99.619776 259.977934 
L 99.652437 262.654402 
L 99.856743 263.050895 
L 99.960476 261.732241 
L 100.099472 262.660268 
L 100.235354 259.75521 
L 100.509617 258.248507 
L 100.718348 265.85612 
L 100.962584 264.35892 
L 101.266721 260.609094 
L 101.368481 261.843285 
L 101.611023 262.621499 
L 101.818795 264.781965 
L 102.02146 261.810428 
L 102.160236 262.444703 
L 102.26226 264.718957 
L 102.4066 263.797837 
L 102.532708 261.367921 
L 102.792814 269.948756 
L 103.108857 265.402832 
L 103.578252 257.503783 
L 103.783374 260.120838 
L 103.955753 259.516841 
L 104.158047 253.775079 
L 104.237622 246.382117 
L 104.50764 253.120628 
L 104.647165 253.043273 
L 104.791811 250.120193 
L 104.924765 252.053444 
L 105.229808 248.638627 
L 105.368219 247.721628 
L 105.746381 247.728114 
L 105.780119 255.010681 
L 105.919114 249.470174 
L 106.159598 252.956542 
L 106.22799 258.535686 
L 106.365489 259.587508 
L 106.50232 259.636138 
L 106.763876 260.25668 
L 106.916936 267.33314 
L 107.050695 263.692001 
L 107.084793 264.298448 
L 107.306746 266.619629 
L 107.369421 270.543374 
L 107.573953 267.592112 
L 107.776026 261.62718 
L 108.186076 262.490325 
L 108.400249 256.30154 
L 108.63495 254.111925 
L 108.912863 251.977885 
L 109.359847 255.411424 
L 109.536193 254.609049 
L 109.613379 252.918437 
L 109.806983 255.532176 
L 109.910448 259.403879 
L 110.169292 258.041673 
L 110.256064 254.828432 
L 110.459327 253.062902 
L 110.493256 254.715752 
L 110.716859 254.951994 
L 110.791618 254.793759 
L 110.924555 252.272734 
L 111.046433 252.121669 
L 111.182 250.293951 
L 111.492237 244.072926 
L 111.736096 249.6624 
L 111.767613 248.25442 
L 112.042117 251.862025 
L 112.325224 260.472052 
L 112.495006 260.524407 
L 112.632605 261.357468 
L 112.743244 263.853142 
L 112.9066 263.744858 
L 113.043629 265.297509 
L 113.18182 268.202928 
L 113.741011 262.100512 
L 113.767886 268.029729 
L 114.010511 262.633345 
L 114.218133 260.531234 
L 114.319101 263.069374 
L 114.493385 260.630225 
L 114.629044 256.286678 
L 114.738398 257.644489 
L 114.907495 263.329471 
L 114.936751 259.902667 
L 115.178346 256.689716 
L 115.317462 259.559656 
L 115.4561 259.236266 
L 115.593947 263.048353 
L 115.938403 258.387719 
L 116.038505 261.170755 
L 116.182524 261.617015 
L 116.280903 257.750427 
L 116.592611 260.435045 
L 116.763578 257.569634 
L 117.141733 260.235886 
L 117.28048 262.883449 
L 117.528052 262.605324 
L 117.561845 262.065437 
L 117.738973 264.499594 
L 117.871717 264.050124 
L 118.01278 263.04522 
L 118.318094 266.770469 
L 118.419814 267.22451 
L 119.141471 257.992359 
L 119.279907 257.565808 
L 119.42562 258.355975 
L 119.555113 260.273906 
L 119.727089 259.727007 
L 120.000202 255.570424 
L 120.150131 257.713039 
L 120.425795 264.122744 
L 120.566858 265.891439 
L 120.835893 267.645563 
L 121.104943 260.141302 
L 121.242081 260.537734 
L 121.274328 264.466001 
L 121.447529 265.112264 
L 121.551133 264.445111 
L 121.859152 269.208074 
L 122.031531 265.996254 
L 122.272975 259.978443 
L 122.478002 259.94491 
L 122.685648 256.835017 
L 122.97756 253.031293 
L 123.220175 250.934424 
L 123.305486 251.779711 
L 123.510761 256.003135 
L 123.546004 259.158796 
L 123.820407 261.39416 
L 124.095622 263.521357 
L 124.408777 265.491503 
L 124.578142 264.984947 
L 124.681689 261.252067 
L 124.854367 259.617051 
L 125.093203 261.298075 
L 125.403384 260.030211 
L 125.539144 257.828168 
L 125.745506 258.234867 
L 125.847924 257.30574 
L 125.987736 257.838651 
L 126.089516 259.605695 
L 126.400126 255.606964 
L 126.748953 259.020302 
L 127.101942 256.981706 
L 127.261721 255.806913 
L 127.370447 252.305085 
L 127.503706 252.90789 
L 127.847692 255.628096 
L 128.148643 252.019282 
L 128.380036 259.71926 
L 128.398585 259.105466 
L 128.562414 256.641861 
L 128.690231 258.702288 
L 128.710568 256.441668 
L 128.786555 261.584117 
L 129.020236 261.901076 
L 129.098182 258.981979 
L 129.397867 264.514572 
L 129.500347 264.477031 
L 129.775883 264.839387 
L 129.882814 263.095911 
L 129.953405 265.950478 
L 130.063268 265.945655 
L 130.366685 265.755907 
L 130.505913 267.681904 
L 130.640283 264.724945 
L 130.916509 266.999431 
L 131.057827 264.250652 
L 131.227662 263.614125 
L 131.374756 259.906887 
L 131.500162 263.530395 
L 131.774916 260.688801 
L 131.925158 259.041027 
L 132.050655 259.31775 
L 132.20828 257.936022 
L 132.494709 258.643738 
L 132.635144 257.753126 
L 132.768534 261.647728 
L 132.915199 261.079128 
L 133.04832 259.324774 
L 133.489646 265.859259 
L 133.764798 264.626334 
L 133.901337 267.059948 
L 134.043202 266.825736 
L 134.349021 258.481762 
L 134.624736 263.680807 
L 134.762094 263.608247 
L 134.898932 262.03047 
L 135.037 261.975814 
L 135.173772 262.594758 
L 135.345792 261.308739 
L 135.484792 261.138171 
L 135.62211 262.549945 
L 135.760594 265.187388 
L 135.896247 264.378815 
L 136.176049 259.342172 
L 136.307962 263.150505 
L 136.61822 264.902231 
L 136.748494 264.818282 
L 137.184632 268.619578 
L 137.445256 266.063446 
L 137.584175 266.132986 
L 137.789644 259.930974 
L 138.032799 265.447622 
L 138.335325 260.610514 
L 138.441006 262.481257 
L 138.592004 259.76216 
L 138.886265 264.717907 
L 139.023808 264.689184 
L 139.165166 265.368641 
L 139.336019 263.158143 
L 139.437831 259.433139 
L 139.576421 260.080028 
L 139.749295 262.73087 
L 140.025695 261.879946 
L 140.159956 259.024913 
L 140.299955 260.346133 
L 140.458865 259.52326 
L 140.470128 262.997546 
L 140.574744 262.417806 
L 140.884769 266.416268 
L 141.298241 261.654767 
L 141.401441 262.975079 
L 141.436858 261.862663 
L 141.576594 261.679995 
L 141.898649 258.860164 
L 142.057617 260.69063 
L 142.159959 260.209084 
L 142.298381 258.583059 
L 142.572466 262.768084 
L 142.709382 259.296316 
L 142.986535 262.632575 
L 143.199008 259.739036 
L 143.301122 261.002207 
L 143.44325 259.948235 
L 143.584881 257.365973 
L 143.611919 254.13857 
L 143.71379 255.527192 
L 143.954729 255.616573 
L 144.060587 257.584972 
L 144.12647 262.402345 
L 144.436513 262.200727 
L 144.573878 261.143259 
L 144.608471 262.878682 
L 145.023646 261.408539 
L 145.160617 263.016859 
L 145.195763 265.902936 
L 145.950526 252.905362 
L 145.985774 254.015181 
L 146.124592 254.644623 
L 146.297373 254.118681 
L 146.401082 257.221235 
L 146.432214 253.275556 
L 146.571204 252.797855 
L 146.881164 250.245098 
L 146.914609 253.73921 
L 147.119479 253.660244 
L 147.25612 260.944349 
L 147.395073 259.546045 
L 147.532259 262.571709 
L 147.740164 262.538293 
L 147.87772 260.921573 
L 147.910132 265.170392 
L 148.051317 262.582535 
L 148.220646 265.619862 
L 148.323063 262.881988 
L 148.495525 263.537689 
L 148.669778 260.757169 
L 148.874128 261.938919 
L 149.013136 259.059209 
L 149.114962 263.869704 
L 149.828669 256.604954 
L 150.007256 258.178196 
L 150.247023 257.321784 
L 150.332735 257.833362 
L 150.452731 254.172627 
L 150.590691 251.420591 
L 150.730749 255.619978 
L 150.969631 253.709268 
L 151.009573 252.01975 
L 151.107229 257.135515 
L 151.244739 255.321029 
L 151.38628 255.749531 
L 151.636824 255.862139 
L 151.674689 254.045655 
L 151.803119 257.101265 
L 152.107716 253.756357 
L 152.245482 257.311026 
L 152.393838 257.303639 
L 152.521556 255.712775 
L 152.659699 257.387185 
L 152.862777 258.489138 
L 152.939148 260.349499 
L 153.205848 261.381454 
L 153.555985 266.400741 
L 153.691111 263.040158 
L 153.79589 263.818649 
L 153.963909 266.500076 
L 154.068496 264.504093 
L 154.346396 263.597767 
L 154.412328 261.388526 
L 154.559078 264.062004 
L 154.649906 262.751501 
L 154.787435 265.05681 
L 155.139271 263.440751 
L 155.24873 263.535688 
L 155.508867 259.025617 
L 155.650029 261.323553 
L 155.992991 259.888687 
L 156.099227 258.30631 
L 156.235463 259.126807 
L 156.376346 256.242353 
L 156.51166 259.04411 
L 156.889319 261.66736 
L 157.096364 256.878847 
L 157.26835 256.715112 
L 157.542354 252.863117 
L 157.748957 249.853409 
L 157.82187 254.172569 
L 157.989322 252.447762 
L 158.095051 249.955752 
L 158.229993 252.381528 
L 158.401142 252.537234 
L 158.64213 254.610683 
L 158.790638 253.104157 
L 158.916131 255.882115 
L 159.19249 255.200137 
L 159.500086 258.647877 
L 159.777744 257.345641 
L 159.912844 257.658099 
L 160.291346 264.099712 
L 160.428013 264.561038 
L 160.63444 261.488384 
L 161.049392 262.895704 
L 161.220747 263.852805 
L 161.362349 265.27881 
L 161.703203 262.272674 
L 161.770891 263.001818 
L 161.908722 261.871867 
L 162.051278 261.949249 
L 162.201981 263.240181 
L 162.563403 260.84896 
L 162.706928 262.116828 
L 162.768934 264.001058 
L 162.905478 264.572709 
L 163.042236 266.012571 
L 163.317859 266.987931 
L 163.600415 263.067195 
L 163.755028 258.469003 
L 163.902978 261.559984 
L 164.467361 252.98181 
L 164.8662 252.42744 
L 165.008783 258.874255 
L 165.176523 259.887958 
L 165.312906 256.889809 
L 165.468716 256.109461 
L 165.735478 260.452067 
L 165.864253 260.475559 
L 166.002554 261.67925 
L 166.172229 261.96267 
L 166.448675 257.939368 
L 166.585676 260.581047 
L 166.722386 260.192954 
L 167.445403 253.692691 
L 167.580019 253.721072 
L 167.719426 255.212308 
L 167.8565 255.239121 
L 167.994413 253.276795 
L 168.194329 253.905402 
L 168.300787 255.820397 
L 168.439669 256.236961 
L 168.576842 260.437927 
L 168.7142 261.051875 
L 168.858546 259.547348 
L 169.000652 260.143482 
L 169.131562 257.483082 
L 169.439489 260.272044 
L 169.721409 261.737876 
L 169.850645 261.213747 
L 169.986538 257.545132 
L 170.128911 257.861754 
L 170.404315 262.462013 
L 170.585975 262.759447 
L 170.848711 261.776617 
L 171.123042 262.32467 
L 171.263828 258.690223 
L 171.296734 258.692783 
L 171.402157 260.548035 
L 171.538734 265.26645 
L 171.571375 258.538977 
L 171.713395 257.175857 
L 171.8511 259.169289 
L 172.024227 259.98851 
L 172.122856 258.223813 
L 172.397655 259.878608 
L 172.547423 256.944804 
L 172.706367 259.231578 
L 172.854609 256.945276 
L 173.195885 260.811619 
L 173.420866 252.787722 
L 173.574405 254.834654 
L 173.814345 250.916932 
L 173.951909 251.969543 
L 174.224826 250.981898 
L 174.293017 253.698891 
L 174.417158 253.467446 
L 174.534573 254.23355 
L 174.945626 261.880531 
L 175.014565 259.609608 
L 175.191942 259.179076 
L 175.395371 263.281711 
L 175.703988 261.903658 
L 175.854952 260.584434 
L 175.943015 256.191892 
L 176.253294 255.609391 
L 176.390412 253.193321 
L 176.76707 257.917895 
L 176.844399 256.508666 
L 176.94823 260.354299 
L 177.078512 260.576272 
L 177.250396 262.349294 
L 177.389086 266.715305 
L 177.664404 264.831443 
L 177.838187 268.626054 
L 178.077797 266.222382 
L 178.111717 262.831342 
L 178.492428 258.858415 
L 178.529954 257.338863 
L 178.695977 256.288417 
L 178.798337 253.047964 
L 178.952375 253.805103 
L 179.072872 253.146591 
L 179.215156 251.02219 
L 179.445455 252.50226 
L 179.528908 251.615811 
L 179.660093 254.152256 
L 179.79557 253.99148 
L 179.933615 253.322477 
L 180.27643 255.017461 
L 180.621627 260.756513 
L 180.724833 261.181641 
L 180.827355 257.614698 
L 180.931713 258.105429 
L 181.205961 264.999536 
L 181.380053 265.018915 
L 181.651645 262.771287 
L 182.036867 256.371674 
L 182.09889 250.452832 
L 182.133033 254.556992 
L 182.305556 257.293869 
L 182.351298 261.646738 
L 182.64891 254.91274 
L 182.792576 255.435669 
L 183.473601 270.337971 
L 183.643837 269.135641 
L 183.780574 266.241607 
L 183.952704 266.968433 
L 184.090172 266.213824 
L 184.402267 267.462802 
L 184.91935 258.140419 
L 185.262313 258.217096 
L 185.330238 255.789911 
L 185.640657 258.119947 
L 185.776629 255.321223 
L 185.948748 254.766872 
L 186.224964 257.2171 
L 186.396557 258.746473 
L 186.46893 257.723056 
L 186.774308 263.392324 
L 187.189273 260.940776 
L 187.319098 261.789863 
L 187.345491 262.718637 
L 187.470264 261.661987 
L 187.548123 261.738538 
L 187.656306 261.069354 
L 187.940942 268.459042 
L 188.180963 263.448673 
L 188.363394 266.084778 
L 188.385181 268.435327 
L 188.488853 266.545803 
L 188.765055 263.877924 
L 188.943297 265.514186 
L 189.073701 263.656909 
L 189.348911 255.671466 
L 189.488049 256.072773 
L 189.659147 257.700648 
L 189.871978 256.206135 
L 189.977657 254.31538 
L 190.043881 257.189174 
L 190.176647 254.094404 
L 190.48548 257.532805 
L 190.809297 254.443504 
L 190.968712 254.325804 
L 191.037042 253.003334 
L 191.357229 257.43272 
L 191.519472 255.720912 
L 191.726322 255.305052 
L 191.833104 253.617666 
L 192.062757 254.589763 
L 192.313834 257.8068 
L 192.463586 258.177762 
L 192.5314 257.353889 
L 192.730434 251.024218 
L 193.00164 249.357941 
L 193.314256 248.46757 
L 193.451558 249.883725 
L 193.587522 249.263111 
L 193.897981 250.492629 
L 194.034524 251.297801 
L 194.137382 251.090671 
L 194.346387 252.571144 
L 194.485989 254.802971 
L 194.621525 254.867806 
L 194.759803 255.834282 
L 195.278139 252.905524 
L 195.44922 253.293702 
L 195.896563 265.108945 
L 196.072478 265.813733 
L 196.140135 263.462055 
L 196.27715 264.047861 
L 196.450203 267.048765 
L 196.585704 264.183852 
L 196.693729 267.033696 
L 196.930442 266.961285 
L 197.412428 254.622654 
L 197.549046 260.224752 
L 197.86128 256.177423 
L 197.997119 258.546106 
L 198.135174 257.345731 
L 198.285956 257.039932 
L 198.424839 258.415422 
L 198.684298 257.660968 
L 198.752424 257.983046 
L 198.855631 261.832247 
L 199.030233 257.913287 
L 199.584506 263.637049 
L 199.686287 263.37609 
L 199.900261 263.820409 
L 200.133017 267.463354 
L 200.372721 267.28484 
L 200.442814 271.440397 
L 200.58028 272.15783 
L 200.818889 265.903763 
L 200.956505 264.878597 
L 201.094153 266.738359 
L 201.265999 263.476793 
L 201.436739 264.15822 
L 201.61675 265.849664 
L 201.950616 257.22688 
L 202.090051 259.606552 
L 202.232272 259.454188 
L 202.398778 259.947002 
L 202.562067 258.14333 
L 202.673345 259.998796 
L 202.982039 254.959971 
L 203.120479 255.432104 
L 203.293535 255.083832 
L 203.46291 257.698186 
L 203.54299 261.222925 
L 203.737923 260.73304 
L 203.874745 260.721742 
L 204.116069 264.321476 
L 204.295877 264.195275 
L 204.390478 270.400348 
L 204.771884 272.425184 
L 204.803737 269.546934 
L 205.044247 266.114184 
L 205.113985 268.482286 
L 205.25149 267.001806 
L 205.423514 267.364292 
L 205.560319 268.456903 
L 205.697084 266.843377 
L 205.803703 259.918242 
L 205.972206 259.371793 
L 206.082306 258.419555 
L 206.248035 259.811602 
L 206.491944 260.467835 
L 206.662848 256.453446 
L 206.693781 257.362442 
L 206.935415 252.011103 
L 207.074383 255.063174 
L 207.211668 255.200486 
L 207.520624 252.668281 
L 207.662919 252.402166 
L 207.795204 252.654388 
L 207.935671 252.368637 
L 208.099001 253.143598 
L 208.235291 255.422599 
L 208.407911 255.241581 
L 208.482745 254.210241 
L 208.78725 260.143275 
L 208.956981 262.754582 
L 209.199415 260.823413 
L 209.339568 263.540564 
L 209.367637 263.057069 
L 209.572875 262.736236 
L 209.78712 259.810965 
L 209.813278 262.243322 
L 210.094228 255.174625 
L 210.264993 255.778053 
L 210.36569 255.313444 
L 210.502144 256.315982 
L 210.811364 255.228304 
L 210.926159 256.932658 
L 211.054917 255.101375 
L 211.227434 258.90301 
L 211.475928 259.716454 
L 211.955085 255.223131 
L 212.094584 258.069123 
L 212.329259 252.754056 
L 212.468405 255.07706 
L 212.639316 254.381937 
L 212.984907 258.400837 
L 213.120307 257.631942 
L 213.331168 258.022655 
L 213.533354 259.672466 
L 213.62255 264.751876 
L 213.843087 267.07446 
L 213.884986 270.868118 
L 214.051302 266.232887 
L 214.326229 262.657645 
L 214.601456 267.426872 
L 214.772153 268.682859 
L 215.18669 265.57079 
L 215.360274 261.369102 
L 215.632973 265.763458 
L 215.741634 265.969494 
L 215.917952 263.655761 
L 215.941524 266.119736 
L 216.253065 260.244101 
L 216.285825 262.337845 
L 216.322349 260.357951 
L 216.734768 256.437305 
L 216.975117 257.738192 
L 217.083616 255.922485 
L 217.184528 256.425417 
L 217.529045 261.885787 
L 217.618491 260.747334 
L 217.733501 260.459017 
L 217.871429 260.869315 
L 218.075962 261.889544 
L 218.180718 265.349221 
L 218.317391 264.731554 
L 218.452695 268.377393 
L 218.728986 264.403742 
L 219.175009 260.76043 
L 219.351283 262.019025 
L 219.449703 261.958088 
L 219.727484 256.977209 
L 219.86625 255.742864 
L 220.000467 257.245999 
L 220.143367 256.521067 
L 220.584246 259.974595 
L 220.725101 258.061254 
L 220.858875 258.053145 
L 221.168884 259.210296 
L 221.29664 260.731809 
L 221.478327 261.770748 
L 221.625589 265.507942 
L 221.823586 264.091187 
L 222.0008 261.787932 
L 222.040134 262.105792 
L 222.443961 260.992769 
L 222.570029 260.181729 
L 222.695928 256.735387 
L 222.853921 256.662556 
L 222.991724 255.099106 
L 223.226098 254.678526 
L 223.262057 257.143311 
L 223.420126 254.07918 
L 223.604788 254.336982 
L 223.70847 257.102656 
L 223.846074 257.436673 
L 223.985934 253.494191 
L 224.154495 255.834449 
L 224.548683 249.229457 
L 224.739045 249.063899 
L 224.848563 253.552764 
L 225.034132 254.541935 
L 225.173115 252.187259 
L 225.416437 258.148227 
L 225.583408 254.257437 
L 225.722776 255.239048 
L 225.994804 259.794048 
L 226.239163 257.395048 
L 226.547762 263.213405 
L 226.688622 260.859483 
L 226.827592 261.90134 
L 227.105827 266.802532 
L 227.304674 263.522837 
L 227.520251 268.379626 
L 227.822807 260.610978 
L 228.063438 257.609776 
L 228.166941 260.102616 
L 228.307118 260.546839 
L 228.511368 260.34047 
L 228.682745 265.712904 
L 229.095193 259.394685 
L 229.233075 259.458975 
L 229.509095 261.333823 
L 229.647738 261.006258 
L 230.039369 259.267412 
L 230.230696 259.669663 
L 230.402348 264.380387 
L 230.539505 270.662935 
L 230.679701 269.848383 
L 230.815384 270.264119 
L 230.992569 266.931225 
L 231.203948 267.900308 
L 231.298022 267.335201 
L 231.845388 253.266708 
L 231.988438 253.103947 
L 232.087467 254.184396 
L 232.261277 254.50931 
L 232.499532 257.621824 
L 232.777163 258.610714 
L 232.952681 257.69251 
L 233.109964 255.997652 
L 233.359501 260.388516 
L 233.565651 261.833534 
L 233.636112 258.402359 
L 233.841229 257.497945 
L 234.011291 257.618742 
L 234.080697 259.096265 
L 234.356214 257.844079 
L 234.594989 260.375719 
L 234.639577 263.005767 
L 234.834208 262.00675 
L 234.907305 259.625381 
L 235.215766 265.36356 
L 235.354591 264.178501 
L 235.49094 261.828537 
L 235.767836 264.886405 
L 235.957726 262.67227 
L 236.061387 260.053347 
L 236.374457 269.053167 
L 236.816727 262.398506 
L 237.193194 265.607963 
L 237.329898 268.544504 
L 237.470907 267.884816 
L 237.776729 257.197187 
L 237.933413 259.179708 
L 238.156569 259.943993 
L 238.191218 259.836401 
L 238.328995 260.098291 
L 238.774706 256.056896 
L 239.188955 261.558578 
L 239.333194 261.28511 
L 239.531044 261.962524 
L 239.634979 264.439825 
L 239.77251 264.201357 
L 239.910917 262.891721 
L 240.084035 267.297987 
L 240.183948 264.848394 
L 240.870343 257.807577 
L 241.08216 257.200624 
L 241.214668 254.615562 
L 241.317263 256.81067 
L 241.522972 252.924138 
L 241.695538 253.757 
L 241.903711 257.693028 
L 242.082719 257.590265 
L 242.148251 257.905343 
L 242.315002 259.554903 
L 242.456623 258.392167 
L 242.589774 259.887968 
L 242.762475 259.644011 
L 242.86855 256.982588 
L 243.005587 257.022175 
L 243.174724 257.196037 
L 243.312768 256.610388 
L 243.448296 257.483203 
L 243.726066 253.41806 
L 243.896455 253.4374 
L 244.170317 251.040367 
L 244.306505 255.198684 
L 244.554203 255.727957 
L 244.75326 252.476499 
L 244.924142 253.945499 
L 245.065033 256.47807 
L 245.163277 261.234747 
L 245.300827 258.962983 
L 245.439638 258.766473 
L 245.575742 260.245448 
L 245.720603 258.408534 
L 245.746565 263.865137 
L 245.884462 260.419113 
L 246.023235 260.441416 
L 246.159437 261.081833 
L 246.331267 260.928939 
L 246.470152 259.328731 
L 246.676654 255.406753 
L 246.711196 257.271504 
L 246.744115 256.155508 
L 246.848022 255.942485 
L 247.084406 253.84619 
L 247.156501 254.124509 
L 247.431081 253.159451 
L 247.539561 255.920764 
L 247.637617 255.224458 
L 247.740555 252.715977 
L 247.989493 258.967205 
L 248.148677 260.085287 
L 248.301107 263.606612 
L 248.439886 263.928325 
L 248.545083 265.044416 
L 248.852246 260.054046 
L 249.02417 260.560169 
L 249.40197 254.19438 
L 249.538778 255.135419 
L 249.710198 252.324572 
L 249.95214 252.157575 
L 250.025387 250.19225 
L 250.226464 250.802843 
L 250.265464 250.732856 
L 250.433721 249.747415 
L 250.569114 251.361725 
L 250.706809 249.21229 
L 250.848397 251.972155 
L 250.987042 251.600935 
L 251.125366 252.855387 
L 251.566066 259.738663 
L 251.721268 260.68821 
L 251.821503 262.149079 
L 251.954771 265.974366 
L 252.260445 263.069716 
L 252.396676 261.347078 
L 252.605782 260.775248 
L 252.949985 265.34901 
L 253.088913 263.040077 
L 253.230535 263.112415 
L 253.39644 262.918357 
L 253.53443 263.316778 
L 253.670158 264.569519 
L 253.808261 264.738848 
L 254.082413 263.942027 
L 254.391965 258.004844 
L 254.530388 258.854038 
L 254.668553 257.989846 
L 254.806085 254.130062 
L 255.091851 256.746196 
L 255.218886 256.938695 
L 255.36074 259.09731 
L 255.526896 256.450217 
L 255.663384 259.064743 
L 255.802182 254.798478 
L 255.940899 254.032745 
L 256.226539 259.65826 
L 256.356246 258.903127 
L 256.388804 262.667034 
L 256.499677 258.845993 
L 256.664579 258.564203 
L 256.839297 257.059857 
L 256.94232 258.442517 
L 257.078552 257.230915 
L 257.354223 262.883678 
L 257.508749 262.596728 
L 257.655365 262.088802 
L 257.800835 264.371677 
L 257.939837 263.815134 
L 258.079053 262.504307 
L 258.2187 262.423111 
L 258.487543 266.92413 
L 258.626529 262.815879 
L 258.76764 264.319214 
L 259.067264 262.199519 
L 259.21198 261.331932 
L 259.481995 264.759172 
L 259.629899 263.379463 
L 259.761619 263.58822 
L 259.904207 262.360749 
L 260.205164 265.1293 
L 260.346749 263.394809 
L 260.512457 263.043053 
L 260.651763 262.314048 
L 260.857375 262.401333 
L 261.109456 265.096207 
L 261.181949 262.515544 
L 261.322642 261.805817 
L 261.625532 258.09844 
L 261.758052 260.455973 
L 261.95065 260.66905 
L 262.034676 259.203563 
L 262.320109 258.349966 
L 262.452356 258.746713 
L 262.618951 258.025442 
L 262.791227 254.899468 
L 262.903114 254.991463 
L 263.066835 254.121461 
L 263.788363 246.180217 
L 264.165974 246.90259 
L 264.337703 253.996971 
L 264.820514 261.622213 
L 265.025426 264.651075 
L 265.165228 264.835492 
L 265.334548 263.924785 
L 265.438616 266.328368 
L 265.61039 264.369209 
L 265.780132 264.407583 
L 265.885093 263.759916 
L 266.058461 263.945929 
L 266.330206 263.179539 
L 266.467513 261.543521 
L 266.893882 264.384818 
L 267.050941 263.462451 
L 267.188125 265.576076 
L 267.326218 263.81138 
L 267.705776 264.980394 
L 267.773106 263.402629 
L 267.876516 263.761403 
L 268.01368 261.178259 
L 268.294114 262.375751 
L 268.323581 259.194077 
L 268.461014 260.776033 
L 268.63102 261.175916 
L 268.737566 262.572441 
L 269.010889 261.719447 
L 269.158477 263.598138 
L 269.285349 263.719606 
L 269.518751 263.481289 
L 269.563468 259.718479 
L 269.765492 259.176646 
L 270.020186 255.7508 
L 270.040376 253.278403 
L 270.178448 255.114648 
L 270.31508 255.147316 
L 270.487204 253.844354 
L 270.693865 253.659033 
L 270.728695 252.483538 
L 270.8818 254.333695 
L 271.141083 261.817006 
L 271.314111 261.325523 
L 271.428056 262.786342 
L 271.589134 262.048506 
L 272.045659 256.305274 
L 272.31983 256.968283 
L 272.527796 256.406668 
L 272.560523 254.633837 
L 272.846356 258.674037 
L 273.01722 256.520497 
L 273.189834 256.512549 
L 273.569608 263.846463 
L 274.39046 255.243785 
L 274.633112 260.938047 
L 274.703271 260.61713 
L 274.838615 258.442269 
L 274.975857 260.118194 
L 275.146874 260.298043 
L 275.429898 261.892836 
L 275.561471 260.686161 
L 275.69893 262.938206 
L 275.878717 258.921406 
L 276.280283 262.092537 
L 276.414359 257.710467 
L 276.717626 257.740341 
L 276.855457 258.080553 
L 277.095668 259.928512 
L 277.163936 259.295286 
L 277.274141 261.413009 
L 277.372975 258.695528 
L 277.543349 258.743785 
L 277.748509 259.225988 
L 277.816357 262.81876 
L 277.989233 263.236466 
L 278.46859 258.601792 
L 278.606712 257.058731 
L 278.6762 254.928965 
L 278.812201 254.824492 
L 278.954231 253.169891 
L 279.12331 254.774152 
L 279.261054 254.154772 
L 279.397475 255.17355 
L 279.534331 257.183249 
L 279.672338 256.725964 
L 279.814971 257.982625 
L 280.017365 257.208975 
L 280.118674 259.685522 
L 280.224195 259.556477 
L 280.39458 262.50799 
L 280.536366 261.553831 
L 280.670396 263.116217 
L 280.945363 258.278064 
L 281.112514 260.957339 
L 281.331316 260.142275 
L 281.497437 264.234298 
L 281.536956 261.479852 
L 281.768811 263.617053 
L 281.869963 258.901501 
L 281.977213 259.037661 
L 282.117374 257.427259 
L 282.218337 260.585804 
L 282.355129 259.949188 
L 282.491571 258.476451 
L 282.662878 258.830489 
L 282.801683 255.211354 
L 282.943369 256.260224 
L 283.153244 255.794676 
L 283.214727 259.093331 
L 283.38756 261.262326 
L 283.489803 260.120654 
L 283.768119 258.954179 
L 283.798332 262.172306 
L 284.317584 264.324647 
L 284.458515 262.875285 
L 284.521549 259.041486 
L 284.79995 250.626082 
L 284.968114 252.38987 
L 285.073473 252.20082 
L 285.209093 252.76046 
L 285.452758 251.145453 
L 285.516794 253.637895 
L 285.620528 253.61299 
L 285.929787 258.376427 
L 286.204541 263.707542 
L 286.342161 264.629499 
L 286.622827 263.650507 
L 286.767282 263.537523 
L 287.063973 264.640272 
L 287.201683 263.44145 
L 287.338623 264.174842 
L 287.786447 258.416197 
L 287.894727 260.578237 
L 288.062251 258.541805 
L 288.201974 258.703773 
L 288.337643 256.613774 
L 288.615383 257.03354 
L 288.749597 255.691497 
L 288.821111 258.747817 
L 289.131071 262.37186 
L 289.198029 265.027936 
L 289.333979 264.267618 
L 289.607987 267.071551 
L 289.752803 267.23429 
L 289.892009 266.585033 
L 290.179705 267.442461 
L 290.330665 265.321948 
L 290.483882 266.428067 
L 291.021536 262.168927 
L 291.262432 262.210619 
L 291.334553 263.863649 
L 291.501954 264.274611 
L 291.608963 262.334395 
L 291.777584 262.584439 
L 292.020557 264.784972 
L 292.327188 265.678788 
L 292.466159 262.345039 
L 292.87817 257.653767 
L 293.154164 261.251496 
L 293.197362 258.28523 
L 293.380834 261.1879 
L 293.516979 260.284871 
L 293.880636 262.911406 
L 294.010572 263.426957 
L 294.147722 266.103263 
L 294.387114 267.843691 
L 294.455933 264.956346 
L 294.626571 265.307283 
L 294.76747 262.68109 
L 294.94284 263.456141 
L 295.005784 264.870455 
L 295.143451 265.315092 
L 295.420319 268.11504 
L 295.728417 263.279848 
L 295.900226 260.525658 
L 296.314406 257.816622 
L 296.482654 254.14371 
L 296.688522 253.011247 
L 296.722729 250.401642 
L 296.894723 248.541469 
L 297.150101 250.892535 
L 297.41797 252.393227 
L 297.553245 249.117792 
L 297.753489 250.802404 
L 298.035026 254.988594 
L 298.133897 254.831797 
L 298.435922 254.918331 
L 298.447447 253.878269 
L 298.582215 254.172015 
L 298.719536 254.03551 
L 298.857978 257.061777 
L 299.172926 258.519928 
L 299.339086 254.491934 
L 299.580158 254.629124 
L 299.683055 253.20415 
L 299.755161 253.649145 
L 300.165358 257.569449 
L 300.339745 255.128675 
L 300.481851 255.369046 
L 300.547209 252.704235 
L 300.991699 254.984299 
L 301.266068 254.773803 
L 301.543111 248.797218 
L 301.849773 252.253451 
L 302.0575 253.052565 
L 302.300236 248.421695 
L 302.650239 251.287099 
L 302.847127 248.691782 
L 303.124931 246.82636 
L 303.260002 249.367347 
L 303.396989 248.888369 
L 303.671597 254.807635 
L 303.80913 255.811958 
L 304.119045 252.448449 
L 304.535301 258.725343 
L 304.563919 257.701107 
L 304.770656 257.47516 
L 304.876505 258.365976 
L 304.977981 257.840137 
L 305.114334 261.128881 
L 305.261964 260.44118 
L 305.630724 265.984411 
L 305.667654 267.647953 
L 305.906033 268.62166 
L 305.980653 266.53955 
L 306.11238 266.565816 
L 306.248271 266.325388 
L 306.420163 268.407324 
L 306.524881 264.356465 
L 306.659524 263.831971 
L 306.79758 263.74773 
L 306.949637 264.270193 
L 307.230716 263.787266 
L 307.507238 264.635142 
L 307.532337 261.519846 
L 307.668217 264.208701 
L 307.811939 262.03866 
L 307.988611 264.246713 
L 308.087162 267.695713 
L 308.395949 265.785238 
L 308.635466 265.676803 
L 308.67246 265.488765 
L 308.84773 268.845421 
L 309.01478 269.367339 
L 309.326512 268.192801 
L 309.363958 269.932121 
L 309.540563 268.791776 
L 309.644365 271.024157 
L 309.778727 269.599247 
L 309.912771 270.114088 
L 310.206374 268.036407 
L 310.409157 271.341036 
L 310.662997 267.000086 
L 310.959865 255.912248 
L 311.099711 254.180555 
L 311.272981 258.102198 
L 311.35107 257.309422 
L 311.51647 258.270845 
L 311.64701 257.356411 
L 311.783357 255.097871 
L 311.920655 255.537456 
L 312.066627 257.542212 
L 312.339275 265.503189 
L 312.504541 267.292606 
L 312.643528 263.704983 
L 313.019773 267.681786 
L 313.123873 271.112942 
L 313.232171 269.739779 
L 313.466053 270.636168 
L 313.58054 267.127137 
L 313.627073 267.612555 
L 313.778945 267.047363 
L 313.913483 267.612317 
L 314.050397 268.705713 
L 314.464161 259.099469 
L 314.635019 259.666748 
L 314.771488 260.109753 
L 314.908924 266.491083 
L 315.052889 263.659058 
L 315.183394 265.173976 
L 315.330445 263.565654 
L 315.7453 267.977512 
L 315.882587 265.023889 
L 316.053474 264.789274 
L 316.186656 261.996788 
L 316.325169 256.709546 
L 316.389285 258.029376 
L 316.461505 258.100755 
L 316.601112 256.329458 
L 316.739831 258.030495 
L 317.183451 254.75495 
L 317.322599 256.440586 
L 317.460369 254.992405 
L 317.5975 256.014026 
L 317.791518 256.495882 
L 318.024945 259.610784 
L 318.320966 254.306487 
L 318.456334 254.405431 
L 318.59253 253.096797 
L 318.901706 260.821839 
L 319.012713 259.696201 
L 319.177992 259.453912 
L 319.362239 256.428814 
L 319.589084 258.633638 
L 319.726518 261.235259 
L 319.871714 259.721874 
L 320.001358 262.800867 
L 320.144484 263.09514 
L 320.31405 264.026265 
L 320.448283 261.898145 
L 320.722415 265.756201 
L 320.998235 264.636109 
L 321.203352 261.254593 
L 321.306433 264.173141 
L 321.418202 263.481098 
L 321.549058 261.481249 
L 321.85799 264.335532 
L 322.026447 263.508162 
L 322.270574 260.265909 
L 322.576989 261.50321 
L 322.737655 261.36097 
L 322.863176 260.115473 
L 323.0235 261.458117 
L 323.195722 257.44206 
L 323.298606 257.992483 
L 323.401701 257.17509 
L 323.55277 259.232065 
L 323.585372 261.633789 
L 323.713879 262.225311 
L 323.850412 262.274061 
L 324.057321 261.247162 
L 324.160078 262.530632 
L 324.573377 259.17717 
L 324.783487 259.294235 
L 324.818271 259.952403 
L 325.157805 258.098743 
L 325.262325 258.892388 
L 325.398001 260.813205 
L 325.536002 260.223064 
L 325.985926 263.130152 
L 326.246018 265.432573 
L 326.298566 264.356344 
L 326.407713 265.012843 
L 326.570312 262.022348 
L 326.72408 264.206536 
L 326.843415 263.237792 
L 327.180554 264.880193 
L 327.283824 264.723443 
L 327.394991 266.001242 
L 327.592551 265.71242 
L 327.666985 265.236814 
L 327.838286 263.030344 
L 328.108775 266.337439 
L 328.2463 267.462255 
L 328.533821 264.614701 
L 328.659753 264.59937 
L 328.865329 267.477751 
L 328.967262 264.948438 
L 329.208985 268.281587 
L 329.348476 268.193062 
L 329.421807 267.838556 
L 329.553605 264.143046 
L 329.861235 264.113771 
L 329.983449 261.786168 
L 330.137121 260.395535 
L 330.549085 253.832318 
L 330.78127 255.591831 
L 330.832273 255.339058 
L 330.967379 254.629876 
L 331.119694 253.095724 
L 331.24808 255.156319 
L 331.48003 253.693636 
L 331.559593 254.544341 
L 331.656387 253.287248 
L 331.685816 257.156517 
L 331.788931 256.632795 
L 332.065681 258.684714 
L 332.134091 258.517746 
L 332.27256 259.118624 
L 332.516666 261.724279 
L 332.658754 261.253358 
L 332.80324 266.868573 
L 333.074552 266.082586 
L 333.523989 260.204268 
L 333.79288 259.62102 
L 333.930513 263.149941 
L 334.135447 260.939125 
L 334.3414 257.075953 
L 334.47963 257.270287 
L 334.650763 263.650893 
L 334.89487 263.390789 
L 334.95983 266.728917 
L 335.098892 267.762699 
L 335.208963 269.886686 
L 335.372115 263.826258 
L 335.509726 264.261028 
L 335.785408 263.762493 
L 335.924175 260.210706 
L 336.198555 258.154023 
L 336.300399 261.220384 
L 336.418252 261.154371 
L 336.729506 256.669885 
L 336.893123 258.861428 
L 337.006642 256.994156 
L 337.064462 259.85427 
L 337.237089 258.318434 
L 337.56537 259.850235 
L 337.614455 258.1753 
L 337.78754 257.601676 
L 337.957874 259.088058 
L 338.064613 262.080542 
L 338.199077 261.751879 
L 338.38468 265.911333 
L 338.551803 264.927465 
L 338.68113 267.507831 
L 338.783329 266.509493 
L 338.923341 267.029329 
L 339.060123 265.915349 
L 339.233108 263.478078 
L 339.370277 264.508721 
L 339.47291 262.617758 
L 339.608507 265.322981 
L 339.815962 267.106746 
L 340.085523 271.219348 
L 340.332765 272.57503 
L 340.60605 274.342109 
L 340.8933 270.430976 
L 341.190405 266.666847 
L 341.47252 258.616506 
L 341.758168 261.519071 
L 341.897311 259.326442 
L 342.048065 259.7556 
L 342.160058 259.250835 
L 342.7025 260.434146 
L 343.046651 256.831097 
L 343.219962 257.433414 
L 343.493306 261.145981 
L 343.59675 260.338087 
L 343.767999 260.192112 
L 344.009291 267.684278 
L 344.181463 265.85478 
L 344.424514 266.766558 
L 344.560062 265.731694 
L 344.697404 268.29443 
L 345.041674 265.094815 
L 345.215668 265.755015 
L 345.455026 258.025656 
L 345.58927 260.827386 
L 345.726867 261.065204 
L 345.865975 260.338178 
L 346.036717 257.610447 
L 346.447486 260.036798 
L 346.693015 260.142883 
L 346.86245 258.029479 
L 346.964438 259.483544 
L 347.134914 257.968879 
L 347.245028 259.29255 
L 347.411293 259.795979 
L 347.479408 261.309218 
L 347.586515 260.139585 
L 347.723329 260.991545 
L 347.998801 257.800087 
L 348.200693 260.809461 
L 348.338027 258.604118 
L 348.474749 260.157102 
L 348.652468 257.478846 
L 348.75105 259.522581 
L 348.990345 258.381664 
L 349.098767 259.501574 
L 349.161213 258.782573 
L 349.298362 260.25414 
L 349.47023 260.869442 
L 349.580347 264.280669 
L 349.835852 264.789743 
L 349.9916 268.401002 
L 350.195627 268.820841 
L 350.300949 267.255795 
L 350.438467 267.450581 
L 350.575724 265.897168 
L 350.884927 267.110832 
L 350.988029 263.43708 
L 351.130094 263.025646 
L 351.402305 256.244191 
L 351.552388 254.686098 
L 351.746894 256.251676 
L 351.849703 253.21276 
L 352.004596 253.823506 
L 352.126888 253.698525 
L 352.26305 253.150192 
L 352.816776 259.036639 
L 352.98297 258.857947 
L 353.120984 258.029364 
L 353.25778 258.927283 
L 353.429711 256.297924 
L 353.681476 258.233144 
L 353.844614 257.154458 
L 354.027194 258.067752 
L 354.149074 257.163322 
L 354.252753 257.934975 
L 354.561042 255.915291 
L 354.871809 264.798989 
L 355.078941 264.848342 
L 355.116704 264.422217 
L 355.248092 264.603969 
L 355.523914 265.454971 
L 355.767544 265.238386 
L 355.976004 268.51008 
L 356.142228 264.315874 
L 356.289525 263.750795 
L 356.710333 261.05651 
L 356.8097 262.17261 
L 356.834397 260.275701 
L 356.970833 263.356227 
L 357.14314 263.151318 
L 357.383593 258.731963 
L 357.545336 259.548229 
L 357.69179 258.886709 
L 357.863728 259.736727 
L 358.005115 261.000904 
L 358.11413 260.368786 
L 358.48642 254.791773 
L 358.520379 255.141093 
L 358.656228 259.409344 
L 358.89689 259.47505 
L 359.069209 255.857813 
L 359.239564 255.174841 
L 359.519081 251.334378 
L 359.653561 254.656103 
L 359.788353 254.430305 
L 359.968088 254.639788 
L 360.063475 255.159432 
L 360.208101 258.773984 
L 360.545955 260.075775 
L 360.648623 261.372685 
L 360.937616 269.184962 
L 361.130655 269.088325 
L 361.275927 269.328383 
L 361.645037 259.826265 
L 361.973662 260.941592 
L 362.367247 253.182956 
L 362.640483 254.618955 
L 362.916609 259.62648 
L 363.052546 260.924861 
L 363.225578 258.546249 
L 363.361611 259.660546 
L 363.475788 258.321248 
L 363.637489 258.442324 
L 363.775431 258.763419 
L 363.911633 261.006048 
L 364.089535 259.29192 
L 364.361069 260.238423 
L 364.499538 259.827839 
L 364.634882 260.939301 
L 364.978562 266.123116 
L 365.080249 265.988144 
L 365.253604 266.308739 
L 365.357405 265.30004 
L 365.466959 266.53967 
L 365.628692 266.251174 
L 365.904262 269.57801 
L 366.147807 268.805177 
L 366.213357 264.190053 
L 366.474587 268.169123 
L 366.763888 263.111668 
L 366.936056 265.485021 
L 367.192845 262.300375 
L 367.31208 260.105242 
L 367.603099 265.405855 
L 367.759699 264.176706 
L 367.896121 261.041795 
L 368.13635 262.47665 
L 368.276091 260.803162 
L 368.309025 259.042844 
L 368.44835 258.726498 
L 368.590072 263.366978 
L 368.756604 261.079095 
L 368.963799 259.964077 
L 369.067329 258.766288 
L 369.192774 261.533118 
L 369.376091 262.420264 
L 369.586134 267.103897 
L 369.75307 268.225801 
L 370.028478 262.967621 
L 370.201142 263.711661 
L 370.303187 261.377643 
L 370.474741 260.879588 
L 370.715067 262.391178 
L 370.828532 263.851434 
L 370.990858 263.149632 
L 371.02439 263.356055 
L 371.163534 259.71567 
L 371.300029 262.915142 
L 371.436862 262.02008 
L 371.859743 269.175591 
L 372.159331 262.865737 
L 372.298523 262.80908 
L 372.605957 266.355561 
L 372.747618 263.985196 
L 373.019588 265.742746 
L 373.257867 264.905766 
L 373.300283 263.281603 
L 373.465949 264.386013 
L 373.606565 266.076677 
L 373.845007 261.774065 
L 374.015132 264.191944 
L 374.325006 262.629972 
L 374.432673 261.209159 
L 374.56682 264.13278 
L 374.840163 263.16272 
L 375.049651 258.193644 
L 375.124365 259.360529 
L 375.634144 254.757763 
L 375.750477 255.789561 
L 376.15563 251.924907 
L 376.294308 254.408877 
L 376.463823 254.5962 
L 376.566183 254.382684 
L 376.871834 257.161882 
L 376.998092 259.178761 
L 377.150855 257.722602 
L 377.257475 258.902669 
L 377.428871 259.559985 
L 377.563876 261.678869 
L 377.720079 260.681949 
L 377.848428 262.025829 
L 377.986472 262.045478 
L 378.124167 260.649905 
L 378.297634 260.102689 
L 378.401361 263.313468 
L 378.586541 263.021365 
L 378.709962 264.326279 
L 378.846686 264.226834 
L 378.982251 264.706922 
L 379.222891 264.159353 
L 379.39433 266.563722 
L 379.566547 266.204223 
L 379.704069 265.070313 
L 379.810097 262.272527 
L 380.118896 266.197961 
L 380.266259 267.180001 
L 380.404745 265.413665 
L 380.530044 265.694533 
L 380.703441 265.046559 
L 380.82241 262.600922 
L 381.359864 268.616895 
L 381.601064 263.295862 
L 381.704227 260.5011 
L 381.806928 261.753662 
L 382.116318 259.276916 
L 382.15138 261.583922 
L 382.666691 254.222496 
L 382.844481 255.62959 
L 382.94856 257.776095 
L 383.251319 259.687321 
L 383.532493 265.466208 
L 383.668713 265.371756 
L 384.115257 268.343073 
L 384.389304 265.277474 
L 384.52697 267.341214 
L 384.942059 258.931105 
L 385.078299 261.277726 
L 385.294977 262.22037 
L 385.560563 258.606998 
L 385.698807 260.649356 
L 385.802587 259.922322 
L 386.160747 255.38561 
L 386.186879 257.186315 
L 386.227125 257.181364 
L 386.500377 258.103418 
L 386.776575 253.462779 
L 386.911961 254.238921 
L 387.221389 252.008348 
L 387.358873 250.135917 
L 387.634039 251.441657 
L 387.874215 250.135015 
L 387.94204 247.841555 
L 388.353878 252.106916 
L 388.491526 250.607019 
L 388.665979 250.313309 
L 388.766987 253.850268 
L 388.942171 253.279608 
L 389.077481 251.626437 
L 389.214483 253.223189 
L 389.421914 253.674258 
L 389.49761 252.211265 
L 389.763508 251.901565 
L 390.384907 262.222212 
L 390.606506 262.117263 
L 390.691852 261.672693 
L 391.043551 267.720819 
L 391.183127 268.546325 
L 391.382041 267.138616 
L 391.482544 267.685697 
L 391.687855 263.90106 
L 391.860171 263.722594 
L 391.969136 264.391227 
L 392.206548 267.12462 
L 392.311327 266.096487 
L 392.522925 267.02986 
L 392.962716 260.187756 
L 393.035658 266.472966 
L 393.275952 266.729211 
L 393.321917 267.916831 
L 393.484861 264.330764 
L 393.684687 263.086427 
L 393.762909 261.594085 
L 393.892304 263.992496 
L 394.032811 263.900756 
L 394.168306 263.661907 
L 394.308284 265.264141 
L 394.519125 263.602536 
L 394.773984 257.667271 
L 395.168119 260.564589 
L 395.437666 255.879551 
L 395.606022 259.322599 
L 395.886461 258.135618 
L 395.914415 261.483718 
L 396.054462 261.361156 
L 396.296501 262.998579 
L 396.429804 262.153966 
L 396.468291 259.343432 
L 396.746262 258.489059 
L 396.877232 262.077479 
L 397.048227 260.184731 
L 397.324555 263.281316 
L 397.530401 262.265393 
L 397.704634 265.677843 
L 397.805744 265.170574 
L 397.874287 268.796582 
L 398.011635 269.529809 
L 398.183087 269.685137 
L 398.288862 269.948652 
L 398.451065 267.815902 
L 398.872416 265.024027 
L 399.008918 261.174588 
L 399.21661 261.661747 
L 399.28823 257.959668 
L 399.426934 257.218911 
L 399.62842 259.721424 
L 399.804876 257.367681 
L 399.868449 259.156159 
L 400.075167 257.379584 
L 400.182753 254.536024 
L 400.287989 255.122092 
L 400.66681 252.123931 
L 400.816338 255.523491 
L 400.877512 253.414913 
L 401.043593 252.991968 
L 401.146883 252.355281 
L 401.423124 254.853971 
L 401.628068 257.111413 
L 401.766093 256.462701 
L 401.868204 257.849863 
L 402.006566 262.218873 
L 402.143442 261.49176 
L 402.284438 262.641173 
L 402.431422 258.379237 
L 402.557821 259.108025 
L 402.864661 258.01443 
L 403.002123 260.890854 
L 403.143763 260.444451 
L 403.416687 263.130618 
L 403.693551 263.994093 
L 403.897894 268.970992 
L 404.323892 266.018588 
L 404.430851 262.90319 
L 404.579893 265.52917 
L 404.599018 264.194973 
L 404.840481 258.079451 
L 405.08159 256.862016 
L 405.150091 258.613716 
L 405.287041 255.119088 
L 405.532299 260.630459 
L 405.678467 258.856119 
L 405.836633 261.870067 
L 405.991296 260.413596 
L 406.803114 266.658819 
L 406.833052 265.913587 
L 406.969383 265.351631 
L 407.111751 266.54257 
L 407.249504 266.323221 
L 407.421147 266.852326 
L 407.52598 266.455272 
L 407.661206 267.568116 
L 407.932037 267.205025 
L 408.10846 263.049487 
L 408.245758 260.227964 
L 408.520618 261.086802 
L 408.692312 259.633587 
L 408.806011 261.745489 
L 408.835625 260.926811 
L 409.074569 256.071904 
L 409.104464 258.170547 
L 409.331695 258.287346 
L 409.382733 256.432425 
L 409.569664 259.114338 
L 409.727567 263.477019 
L 409.970091 259.134294 
L 410.865343 264.474484 
L 410.964474 263.613662 
L 411.244812 265.414456 
L 411.443793 266.568529 
L 411.547044 265.32344 
L 411.891109 268.610398 
L 412.065859 267.363172 
L 412.203586 268.288668 
L 412.371842 272.64202 
L 413.161908 264.623948 
L 413.230248 261.452591 
L 413.44989 260.470242 
L 413.781066 253.532465 
L 414.089837 257.973614 
L 414.193882 255.826526 
L 414.366547 259.488867 
L 414.503215 259.904715 
L 414.81139 265.35758 
L 414.92207 264.743359 
L 415.051779 265.857413 
L 415.225455 265.805481 
L 415.57889 260.791682 
L 415.637072 264.272438 
L 415.808259 263.348095 
L 416.053364 258.030909 
L 416.493879 264.064382 
L 416.632101 264.380687 
L 416.771234 263.60111 
L 416.942274 265.166732 
L 417.047569 264.758625 
L 417.180842 261.509005 
L 417.401717 264.257727 
L 417.610737 262.534805 
L 417.657228 259.832547 
L 417.66998 261.157649 
L 417.772487 261.003395 
L 418.047622 257.441885 
L 418.188273 261.296521 
L 418.325362 260.668553 
L 418.464225 259.103395 
L 418.686367 262.421209 
L 418.749435 260.583674 
L 418.881392 261.496459 
L 419.048371 261.561068 
L 419.184966 259.466274 
L 419.463466 262.071517 
L 419.601548 258.440532 
L 419.772241 260.600916 
L 419.908236 259.410752 
L 420.149674 259.282462 
L 420.287382 260.971628 
L 420.355985 259.514317 
L 420.503471 261.712674 
L 420.670365 261.681062 
L 420.872967 259.574507 
L 421.009868 259.477846 
L 421.151515 256.745457 
L 421.319591 259.314073 
L 421.456093 258.832697 
L 421.626924 258.755314 
L 421.779102 259.736578 
L 421.870251 255.659386 
L 422.013243 257.111421 
L 422.180974 257.66969 
L 422.317209 256.148509 
L 422.489041 257.355749 
L 422.59188 261.211318 
L 422.727071 261.257348 
L 423.104899 264.134993 
L 423.49006 268.39891 
L 423.907636 274.134352 
L 424.107664 271.279712 
L 424.313463 265.204783 
L 424.627063 262.752901 
L 424.794089 265.43639 
L 424.864003 264.526202 
L 425.276768 252.821694 
L 425.412659 251.459486 
L 425.685941 255.27763 
L 425.858117 253.341221 
L 426.005199 253.484988 
L 426.157146 250.572013 
L 426.443326 255.146317 
L 426.854998 264.443159 
L 426.993946 262.399625 
L 427.133427 267.707826 
L 427.47488 266.928505 
L 427.579849 270.321515 
L 427.684395 265.720222 
L 427.715887 268.216495 
L 427.852105 269.356934 
L 427.99016 268.672025 
L 428.31018 266.400555 
L 428.581652 267.859565 
L 428.611411 263.996452 
L 428.826702 267.262025 
L 428.989916 261.563195 
L 429.128445 263.50464 
L 429.491098 260.617597 
L 429.728012 263.421676 
L 429.83392 261.990453 
L 429.970809 262.29129 
L 430.106142 261.35718 
L 430.281818 259.361164 
L 430.415711 261.422868 
L 430.705631 260.303896 
L 430.839994 260.636254 
L 431.074943 257.728381 
L 431.102699 260.489325 
L 431.240031 262.658519 
L 431.446828 262.643262 
L 431.548657 260.678983 
L 431.861735 259.38367 
L 431.965839 261.668384 
L 432.243842 258.898282 
L 432.479664 258.717746 
L 432.754571 252.182659 
L 432.959863 251.802619 
L 433.09891 253.983415 
L 433.236133 257.10107 
L 433.379737 254.655282 
L 433.571202 257.087747 
L 433.654194 255.250148 
L 433.820688 254.582523 
L 433.961615 255.648623 
L 434.232025 258.711911 
L 434.379584 260.080678 
L 434.681005 255.551818 
L 434.851428 259.156395 
L 434.969573 257.672838 
L 435.238706 265.529822 
L 435.539876 262.532878 
L 435.655545 264.555008 
L 435.859672 264.544495 
L 435.953068 269.797745 
L 436.226142 267.86648 
L 436.364302 268.196644 
L 436.510215 265.682605 
L 436.811981 266.355282 
L 437.122984 264.150691 
L 437.361161 260.133298 
L 437.671352 258.424052 
L 437.702851 258.840837 
L 437.807939 260.613975 
L 437.910188 260.443944 
L 438.218926 259.386124 
L 438.392007 259.286462 
L 438.494657 259.726089 
L 438.63216 258.538324 
L 438.769815 259.979139 
L 438.940802 260.012835 
L 439.081837 257.868064 
L 439.214112 257.959151 
L 439.352533 256.871061 
L 439.490516 254.576851 
L 439.662639 253.907576 
L 439.765061 254.658605 
L 440.015548 254.503323 
L 440.07341 256.093999 
L 440.213722 256.598925 
L 440.533578 259.005154 
L 440.725032 259.870439 
L 440.76337 259.103711 
L 440.900751 259.923365 
L 441.070558 264.010301 
L 441.347324 262.117145 
L 441.481583 264.33669 
L 441.628186 264.873625 
L 442.107879 262.231614 
L 442.212988 263.826532 
L 442.383242 263.972272 
L 442.485501 261.257167 
L 442.829647 266.900396 
L 442.935082 266.92195 
L 443.105282 264.020145 
L 443.178869 266.359823 
L 443.348519 266.788551 
L 443.655243 265.525917 
L 443.897008 262.273139 
L 444.173459 259.351018 
L 444.242023 260.383453 
L 444.344361 259.575909 
L 444.721714 258.276417 
L 444.790431 259.474682 
L 444.997503 260.614918 
L 445.16967 263.372187 
L 445.4491 265.370359 
L 445.615527 263.373269 
L 445.753043 263.954421 
L 446.030589 266.327993 
L 446.16851 265.900642 
L 446.339903 263.723552 
L 446.442766 264.965687 
L 446.578033 262.136797 
L 446.78126 263.098849 
L 446.883521 264.719775 
L 447.031675 265.217059 
L 447.261755 265.53119 
L 447.329476 261.551231 
L 447.707244 255.822176 
L 447.775963 259.002566 
L 447.920804 258.98237 
L 448.154773 263.616438 
L 448.469561 260.874059 
L 448.614112 260.126192 
L 449.013988 269.578597 
L 449.158724 268.207653 
L 449.459183 267.731193 
L 449.705391 262.88725 
L 449.873191 264.73959 
L 450.01043 264.857864 
L 450.148396 266.04103 
L 450.287508 264.725904 
L 450.524624 264.028426 
L 450.594195 261.624653 
L 450.730063 261.205631 
L 450.902862 258.491628 
L 451.077251 261.225736 
L 451.340743 257.730536 
L 451.567011 259.281403 
L 451.786267 256.828154 
L 451.857508 253.847934 
L 451.888326 258.851535 
L 452.004675 259.058432 
L 452.140262 257.824451 
L 452.289663 258.595322 
L 452.411549 258.369717 
L 452.58445 262.367299 
L 453.029788 256.390487 
L 453.136076 259.806451 
L 453.340622 260.856036 
L 453.340955 266.253956 
L 453.414042 260.561466 
L 453.787868 264.468386 
L 453.854495 262.60377 
L 453.993761 263.571728 
L 454.267277 266.792713 
L 454.4057 266.495994 
L 454.554018 266.469015 
L 454.684375 264.119753 
L 454.9925 265.691325 
L 455.3997 258.982563 
L 455.676969 257.486867 
L 455.845973 259.011137 
L 455.986046 256.174538 
L 456.122181 256.444464 
L 456.396425 252.633179 
L 456.533294 254.373363 
L 456.683876 257.805235 
L 456.986116 256.958852 
L 457.117245 257.434862 
L 457.393693 259.768126 
L 457.530768 259.333499 
L 457.667275 260.825067 
L 457.815062 259.807926 
L 457.949327 259.811101 
L 458.081315 258.184342 
L 458.254086 259.527551 
L 458.389153 259.609722 
L 458.525334 261.348128 
L 458.803912 260.33809 
L 459.247992 263.024038 
L 459.388406 261.570404 
L 459.526925 262.320502 
L 459.798383 265.930793 
L 460.076832 260.934513 
L 460.21289 263.274651 
L 460.663982 259.392193 
L 460.935501 265.041108 
L 461.11307 262.500893 
L 461.141673 262.681679 
L 461.279271 262.911476 
L 461.488714 266.979984 
L 461.656005 265.472215 
L 461.830147 267.03167 
L 461.933947 270.93025 
L 462.137945 270.215587 
L 462.353397 265.390588 
L 462.517407 266.496311 
L 462.655056 265.582878 
L 462.929201 263.079433 
L 463.065768 265.571122 
L 463.227383 264.702777 
L 463.239809 257.724916 
L 463.375347 263.223464 
L 463.858684 261.080035 
L 464.062815 260.894055 
L 464.198973 260.515206 
L 464.37033 264.238679 
L 464.784485 261.09543 
L 464.920414 262.750459 
L 465.09337 263.436557 
L 465.336303 258.428245 
L 465.573318 259.309543 
L 465.678896 257.943731 
L 465.814234 253.893787 
L 466.023143 253.843032 
L 466.053786 252.630257 
L 466.159565 255.198416 
L 466.328781 252.261697 
L 466.469009 251.968825 
L 466.809905 257.222532 
L 466.913715 256.184444 
L 467.194475 259.53783 
L 467.345569 257.899058 
L 467.606281 259.017592 
L 467.772889 262.178699 
L 468.048381 261.648732 
L 468.164056 264.149882 
L 468.229005 261.166512 
L 468.325101 262.078558 
L 468.567905 259.502399 
L 468.634488 259.95369 
L 468.785024 260.768385 
L 468.882579 258.707666 
L 469.233712 255.963253 
L 469.356377 258.370075 
L 469.532039 258.169818 
L 469.597212 258.74225 
L 469.839625 257.734637 
L 469.875649 258.128748 
L 470.18153 255.427122 
L 470.318326 254.885027 
L 470.458087 254.846608 
L 470.903743 252.622837 
L 471.007869 256.278067 
L 471.351241 258.88319 
L 471.59124 265.739139 
L 471.763864 268.048564 
L 471.911865 268.266061 
L 472.037532 272.757416 
L 472.279525 272.362118 
L 472.587501 264.871499 
L 472.759794 266.516174 
L 473.171179 260.323493 
L 473.308835 260.728113 
L 473.468169 259.788886 
L 473.617529 256.19164 
L 473.653868 256.753672 
L 473.897104 265.2745 
L 473.999575 264.14598 
L 474.168416 259.87532 
L 474.305722 261.654933 
L 474.753342 257.954292 
L 474.856987 259.615853 
L 474.993168 258.037798 
L 475.335816 252.760572 
L 475.475729 251.485487 
L 475.578233 256.062009 
L 475.715787 253.667537 
L 476.182555 263.676624 
L 476.345933 262.000645 
L 476.854374 266.905164 
L 477.027434 263.93329 
L 477.231659 266.54575 
L 477.437632 261.860256 
L 477.576354 257.518917 
L 477.752916 257.318547 
L 477.994378 254.544121 
L 478.128277 255.70893 
L 478.574652 251.823755 
L 478.986575 261.543115 
L 479.13883 261.922499 
L 479.26497 262.843295 
L 479.535671 258.251896 
L 479.745842 255.942388 
L 479.983917 259.456808 
L 480.395162 255.147992 
L 480.534469 257.846868 
L 480.669926 256.218396 
L 480.837542 256.631584 
L 480.973467 256.365198 
L 481.257806 263.387859 
L 481.387022 264.114281 
L 481.69414 260.412845 
L 482.244486 266.77672 
L 482.379137 270.961179 
L 482.66246 268.183514 
L 482.825236 267.670419 
L 482.962603 268.042693 
L 483.24271 270.158547 
L 483.513253 263.955218 
L 483.652289 264.700671 
L 483.794875 261.162101 
L 483.961111 261.217811 
L 484.23377 259.07418 
L 484.374933 261.207218 
L 484.509011 260.417537 
L 484.651219 256.046593 
L 484.789007 255.968538 
L 485.093032 256.621621 
L 485.231665 257.71176 
L 485.36894 256.00004 
L 485.521569 256.119041 
L 485.647972 255.280401 
L 485.795072 255.349491 
L 485.999135 255.062895 
L 486.232288 259.766432 
L 486.364783 260.405841 
L 486.502272 258.046927 
L 486.780024 260.409292 
L 486.812647 260.127358 
L 486.950033 262.682728 
L 487.121 263.307826 
L 487.22495 262.345407 
L 487.362288 262.711632 
L 487.57127 263.869877 
L 487.781008 258.622673 
L 487.945459 260.331982 
L 488.325775 256.7823 
L 488.427526 253.382187 
L 488.529535 255.159086 
L 488.703328 255.110948 
L 488.804663 259.438536 
L 488.942357 259.514485 
L 489.1852 260.301457 
L 489.363092 259.609415 
L 489.52731 259.583949 
L 489.82444 264.943704 
L 489.905138 264.680725 
L 490.093964 265.05872 
L 490.301504 262.575348 
L 490.368574 265.66699 
L 490.541159 265.386388 
L 490.918206 270.985617 
L 491.056143 271.341237 
L 491.192867 272.895974 
L 491.506668 267.546842 
L 491.778729 261.992384 
L 491.91491 264.200445 
L 492.189947 263.049869 
L 492.63556 257.79459 
L 492.978592 261.390713 
L 493.047658 264.208074 
L 493.254248 264.742565 
L 493.357316 261.867939 
L 493.633207 264.017031 
L 493.770732 262.671436 
L 493.91 263.687398 
L 494.077678 263.15586 
L 494.186675 263.272326 
L 494.320028 262.759711 
L 494.629119 257.629549 
L 494.768349 260.250619 
L 495.177283 252.413905 
L 495.329529 254.430711 
L 495.469547 253.454349 
L 495.676713 255.836621 
L 495.748585 254.241001 
L 495.889832 255.380026 
L 496.030039 254.894317 
L 496.190353 251.821725 
L 496.470578 255.476548 
L 496.603792 256.189559 
L 496.812766 255.103229 
L 496.954939 255.744913 
L 497.051747 253.644355 
L 497.154337 254.363163 
L 497.292203 256.62724 
L 497.738725 260.88983 
L 497.814725 263.018355 
L 497.876813 261.279337 
L 498.013634 265.292793 
L 498.324073 264.141216 
L 498.463547 266.226997 
L 498.600996 271.083901 
L 498.907736 268.769509 
L 499.047788 267.353383 
L 499.164223 262.252429 
L 499.291182 265.19808 
L 499.42673 262.317816 
L 499.668167 264.022667 
L 499.755455 262.152408 
L 499.981616 261.367581 
L 500.068215 259.951111 
L 500.437297 263.256087 
L 500.699367 264.384269 
L 500.733604 263.547676 
L 501.286354 270.561997 
L 501.425661 269.272503 
L 501.595022 269.542956 
L 501.990784 268.447246 
L 502.1514 266.483218 
L 502.432892 265.752702 
L 502.488498 263.970668 
L 502.59292 265.181152 
L 502.873033 260.144646 
L 503.005586 260.889184 
L 503.156368 262.920481 
L 503.282663 262.122957 
L 503.45039 264.116671 
L 503.610955 268.083314 
L 504.011015 265.004547 
L 504.146713 265.184651 
L 504.286724 265.779226 
L 504.423452 262.226693 
L 504.76368 260.708127 
L 504.831225 260.18318 
L 504.978681 257.67359 
L 505.277989 258.461707 
L 505.451655 260.136159 
L 505.725461 258.756568 
L 505.831759 261.099866 
L 506.074461 260.355779 
L 506.1411 261.087404 
L 506.320362 261.512126 
L 506.452485 264.809422 
L 506.586478 263.843247 
L 506.688043 265.239331 
L 506.833644 265.326881 
L 506.997456 264.767301 
L 507.416 267.305231 
L 507.514332 267.001502 
L 507.582703 266.99987 
L 507.788259 267.727582 
L 507.960218 262.312219 
L 508.104968 264.536032 
L 508.238081 262.526929 
L 508.374827 264.342483 
L 508.407291 266.929045 
L 508.723973 261.363893 
L 508.822811 261.51795 
L 509.131307 255.551003 
L 509.233472 256.957036 
L 509.43987 257.81624 
L 509.576679 254.198969 
L 509.686865 255.667415 
L 509.854477 255.959931 
L 510.000075 259.75778 
L 510.367346 255.331542 
L 510.472685 259.593782 
L 511.299058 265.194388 
L 511.477011 260.883112 
L 511.639152 261.997005 
L 511.844263 261.311758 
L 511.946732 263.652011 
L 512.086118 260.888541 
L 512.27262 261.534314 
L 512.37143 262.878485 
L 512.506781 260.045546 
L 512.94472 263.933383 
L 513.083094 264.600022 
L 513.221203 266.781946 
L 513.391649 262.404083 
L 513.656666 263.536763 
L 513.671767 264.665538 
L 513.804357 261.780405 
L 513.941167 263.168341 
L 514.159244 263.122133 
L 514.221146 260.705332 
L 514.491179 260.656386 
L 514.663447 258.645303 
L 514.770797 259.710069 
L 514.942371 257.759106 
L 515.075063 253.331862 
L 515.350392 256.541026 
L 515.493457 254.212143 
L 515.940443 261.739508 
L 516.321441 259.299834 
L 516.347184 259.547296 
L 516.554299 266.197458 
L 516.657091 267.715899 
L 516.829111 267.783434 
L 516.930876 268.43554 
L 517.102893 266.198926 
L 517.348315 257.750837 
L 517.617271 258.815738 
L 517.65254 261.774425 
L 517.790075 263.941746 
L 518.068585 257.345306 
L 518.349945 251.913479 
L 518.52857 251.57642 
L 518.695658 251.885137 
L 518.903888 249.26545 
L 519.178145 243.955974 
L 519.450251 245.362467 
L 519.626215 252.525451 
L 519.899327 254.207782 
L 520.005696 252.80985 
L 520.564411 265.982855 
L 521.06859 259.16547 
L 521.377355 263.229554 
L 521.596237 261.930661 
L 521.869421 255.624537 
L 522.04812 259.993372 
L 522.246605 260.025131 
L 522.349586 261.418556 
L 522.453138 264.52418 
L 522.86565 264.528536 
L 523.040108 267.738408 
L 523.198761 270.957839 
L 523.661416 268.672851 
L 523.933756 262.8597 
L 523.934019 253.518123 
L 524.049808 259.467521 
L 524.174679 259.782416 
L 524.346145 259.387434 
L 524.484317 259.964794 
L 524.730044 257.030475 
L 524.897592 255.299748 
L 525.119576 254.222824 
L 525.174754 258.005917 
L 525.551295 257.764588 
L 525.621434 257.507262 
L 525.859923 257.438078 
L 525.998935 254.974766 
L 526.070892 256.904611 
L 526.217489 256.434989 
L 526.477896 257.560443 
L 526.742465 260.302596 
L 526.961257 259.063154 
L 527.028321 259.856885 
L 527.130561 259.100021 
L 527.304726 262.027542 
L 527.440849 260.878401 
L 527.577448 260.920029 
L 527.854904 259.698159 
L 528.160326 254.92428 
L 528.31773 256.728855 
L 528.332705 255.899545 
L 528.437219 255.998986 
L 528.768726 253.620606 
L 528.88459 250.813911 
L 528.996654 249.822829 
L 529.159974 250.20312 
L 529.375157 252.933679 
L 529.851767 250.610582 
L 529.983778 251.051809 
L 530.119959 252.003394 
L 530.361342 251.642384 
L 530.468499 248.591456 
L 530.704023 246.87918 
L 530.84177 250.952578 
L 531.082141 251.944565 
L 531.117146 250.778231 
L 531.259443 251.83255 
L 531.608657 252.392037 
L 532.115315 261.399538 
L 532.265775 258.149396 
L 532.458902 257.912821 
L 532.835856 262.129732 
L 533.042498 263.0571 
L 533.565804 258.213627 
L 533.816908 263.990756 
L 534.003397 264.587804 
L 534.107369 262.887276 
L 534.312622 262.934745 
L 534.586623 264.159311 
L 534.829294 265.846636 
L 534.965883 269.737768 
L 535.102273 267.778851 
L 535.241004 270.003372 
L 535.413248 270.106607 
L 535.532622 270.624772 
L 535.688055 267.490467 
L 535.825239 267.186724 
L 535.963212 269.005471 
L 536.099683 269.155016 
L 536.685499 256.313273 
L 536.92979 252.605573 
L 537.09056 252.957559 
L 537.206469 255.302124 
L 537.34704 255.718585 
L 537.40609 257.161271 
L 537.630571 255.579997 
L 537.786733 261.108484 
L 538.128035 263.739608 
L 538.23106 269.35507 
L 538.369223 270.587152 
L 538.576465 269.995875 
L 538.644105 268.418387 
L 538.81618 267.462509 
L 538.919865 265.742511 
L 539.092517 267.167301 
L 539.298051 266.809728 
L 539.43841 267.859391 
L 539.511122 267.472939 
L 539.744639 264.447053 
L 539.847336 264.993801 
L 539.950773 263.039311 
L 540.126311 263.085601 
L 540.259172 262.308771 
L 540.368619 262.995353 
L 540.500607 263.061149 
L 540.709432 260.79071 
L 540.914 257.127558 
L 541.119163 260.250934 
L 541.221699 257.440753 
L 541.396957 260.01923 
L 541.49631 259.319048 
L 541.668817 259.307389 
L 541.776288 261.284655 
L 541.94279 258.914549 
L 542.089611 260.669055 
L 542.290038 260.309408 
L 542.423927 262.205913 
L 542.561313 259.238928 
L 542.69933 260.313739 
L 542.802327 259.328119 
L 542.939586 260.453801 
L 543.07404 259.19467 
L 543.249561 260.327577 
L 543.489358 264.665292 
L 543.741216 264.120659 
L 543.907016 262.183333 
L 544.211308 264.929992 
L 544.488377 262.047924 
L 544.898053 257.491071 
L 545.242697 260.539169 
L 545.344814 265.901276 
L 545.660775 261.622444 
L 545.759135 262.204749 
L 545.894263 262.045845 
L 546.221768 259.479877 
L 546.616248 256.244924 
L 546.788958 252.385869 
L 546.891293 252.682057 
L 547.062494 254.238965 
L 547.329362 257.409171 
L 547.69742 260.038023 
L 547.904106 264.850751 
L 548.041201 264.14236 
L 548.1866 264.061967 
L 548.525423 266.887174 
L 548.631206 266.90028 
L 548.805704 265.863751 
L 548.886514 263.297101 
L 549.319173 268.338273 
L 549.459133 268.397519 
L 549.663787 267.433779 
L 549.802043 267.433918 
L 549.872347 266.47369 
L 550.008083 267.299522 
L 550.178687 270.421253 
L 550.285826 270.038481 
L 550.453541 267.578234 
L 550.597054 267.351276 
L 550.865731 264.032287 
L 551.003437 265.078874 
L 551.279012 262.167074 
L 551.448275 261.027527 
L 551.590153 260.864643 
L 551.724673 261.091231 
L 551.867016 260.795419 
L 552.005594 256.12326 
L 552.1465 255.643748 
L 552.311551 257.056411 
L 552.448311 256.192632 
L 552.584349 258.425316 
L 552.721404 255.501554 
L 552.861375 256.425991 
L 553.031544 253.720065 
L 553.134451 255.98937 
L 553.276795 256.14 
L 553.413204 258.871913 
L 553.582009 259.944586 
L 553.726791 256.515911 
L 554.047423 257.390918 
L 554.064586 257.156876 
L 554.13394 258.308259 
L 554.44562 257.361718 
L 554.570293 258.172002 
L 554.863464 261.361413 
L 555.000982 260.609385 
L 555.132307 263.14456 
L 555.270236 261.011345 
L 555.40675 261.932608 
L 555.546965 261.604296 
L 555.694998 260.520697 
L 555.822465 261.984932 
L 555.969089 262.241012 
L 556.266849 259.918624 
L 556.404709 261.189948 
L 556.438907 263.750131 
L 556.543755 260.247428 
L 556.681605 264.586799 
L 556.846351 265.336396 
L 557.128059 269.733646 
L 557.265389 268.053102 
L 557.437467 267.936991 
L 557.676829 266.579348 
L 558.12353 266.510558 
L 558.228473 266.37106 
L 558.399538 265.842662 
L 558.638704 264.059555 
L 559.161078 273.19313 
L 559.361886 271.056748 
L 559.532131 272.38659 
L 559.703393 266.539982 
L 559.977899 269.082136 
L 560.086921 266.913867 
L 560.258751 267.752909 
L 560.530299 261.088867 
L 560.702665 262.074407 
L 560.937319 261.824898 
L 561.08036 261.094109 
L 561.21386 256.569706 
L 561.386889 256.954766 
L 561.524841 258.583392 
L 561.663668 255.131308 
L 561.900574 255.551678 
L 561.970601 257.890151 
L 562.140844 257.692833 
L 562.251039 258.45871 
L 562.349034 260.924705 
L 562.576383 260.202108 
L 562.657732 261.533849 
L 563.003509 257.781842 
L 563.277254 258.791311 
L 563.415326 258.861805 
L 563.626204 259.778122 
L 563.893787 257.715652 
L 564.100116 262.738336 
L 564.23857 263.088526 
L 564.383661 265.178699 
L 564.51383 264.889136 
L 564.651046 265.104448 
L 564.863701 262.142751 
L 565.065835 265.788656 
L 565.207152 265.902417 
L 565.523504 261.794864 
L 565.648793 263.582506 
L 565.792386 263.842035 
L 565.992889 262.575955 
L 566.299405 266.231209 
L 566.378959 264.305585 
L 566.524006 266.596903 
L 566.644283 264.251826 
L 566.849623 265.66565 
L 566.91776 267.926018 
L 567.367527 262.284899 
L 567.505994 266.013535 
L 567.571699 260.986723 
L 567.710175 260.343181 
L 567.812021 262.824434 
L 567.92747 259.11884 
L 568.05453 259.652888 
L 568.190714 257.174591 
L 568.223004 257.472929 
L 568.364989 257.271909 
L 568.500256 258.534545 
L 568.606127 261.788091 
L 568.777951 259.055623 
L 569.04766 261.167382 
L 569.191682 258.243836 
L 569.323554 258.284943 
L 569.494128 258.662222 
L 569.60727 261.427472 
L 569.770011 259.584502 
L 569.908107 259.799928 
L 570.084474 259.542721 
L 570.527221 263.183241 
L 570.664332 262.352253 
L 571.202284 256.450297 
L 571.362745 255.666802 
L 571.645267 256.168373 
L 571.893651 250.830668 
L 572.146116 251.550649 
L 572.178733 257.541043 
L 572.211331 256.519079 
L 572.35144 255.112625 
L 572.458412 257.131761 
L 572.624038 256.572251 
L 572.830258 256.302283 
L 572.967923 255.798675 
L 573.45691 261.25507 
L 573.655249 260.117496 
L 574.170776 264.152856 
L 574.410423 261.345294 
L 574.483332 261.366018 
L 574.593454 261.693648 
L 575.063562 254.842797 
L 575.16773 256.988813 
L 575.477844 254.136456 
L 575.753087 252.08504 
L 575.993077 252.416919 
L 576.302038 255.299559 
L 576.440901 258.829825 
L 576.717459 255.333387 
L 576.888672 259.425224 
L 576.992683 258.134052 
L 577.30168 259.449574 
L 577.986227 248.773646 
L 578.197752 253.846474 
L 578.300671 252.114574 
L 578.444177 253.901559 
L 578.578144 254.082998 
L 578.720178 253.804176 
L 579.000255 257.348967 
L 579.131096 261.153581 
L 579.3028 260.542982 
L 579.605371 256.873093 
L 579.818535 255.971683 
L 579.995916 256.592612 
L 580.062502 255.930241 
L 580.140209 252.303481 
L 580.268595 251.822687 
L 580.469753 253.2229 
L 580.576887 249.388768 
L 580.851616 253.968639 
L 581.159784 257.540088 
L 581.367103 253.85038 
L 581.686825 258.346935 
L 581.845882 256.424711 
L 582.133724 257.982026 
L 582.259084 254.777971 
L 582.47933 253.928629 
L 582.534524 251.197186 
L 582.705071 250.145016 
L 582.836371 251.835573 
L 583.144415 252.823537 
L 583.168913 252.760331 
L 583.693179 259.045114 
L 583.856472 258.919646 
L 583.994241 261.733222 
L 584.16906 262.124016 
L 584.275242 258.984365 
L 584.465997 259.518424 
L 584.547765 257.857936 
L 584.731422 257.929964 
L 584.958632 251.695829 
L 585.302464 254.795567 
L 585.541708 258.029917 
L 585.817713 255.693365 
L 585.953928 256.643948 
L 586.162022 255.733619 
L 586.263928 259.511544 
L 586.374778 258.974387 
L 586.675068 254.229542 
L 586.812096 255.242749 
L 587.031915 253.76427 
L 587.12684 257.307075 
L 587.296854 259.395161 
L 587.536 257.325654 
L 587.674713 254.332755 
L 587.880937 254.959169 
L 588.004887 259.797353 
L 588.118817 259.742068 
L 588.258825 257.029015 
L 588.403729 260.672013 
L 588.675076 258.210582 
L 588.98342 255.767857 
L 589.222236 256.325849 
L 589.46325 257.519755 
L 589.53072 255.356164 
L 589.643279 258.012859 
L 589.737863 257.491177 
L 589.805945 254.405209 
L 589.994682 257.309676 
L 590.087904 255.992682 
L 590.359183 257.046656 
L 590.466691 259.521437 
L 590.600786 259.738316 
L 590.783421 259.072034 
L 591.047861 259.468001 
L 591.116807 258.012707 
L 591.461964 260.410621 
L 591.59664 257.313801 
L 591.666324 258.94895 
L 591.74513 258.748569 
L 591.803295 255.289484 
L 591.946032 257.278241 
L 592.285583 255.143622 
L 592.388314 258.702588 
L 592.529178 254.704569 
L 592.558402 256.43606 
L 592.627947 255.18741 
L 592.877972 260.725051 
L 593.040324 260.860376 
L 593.100546 262.370263 
L 593.257888 260.91216 
L 593.390631 262.861855 
L 594.074799 256.891516 
L 594.452693 249.324947 
L 594.485625 250.868545 
L 594.485625 250.868545 
" clip-path="url(#p18952500f4)" style="fill: none; stroke: #ff0000; stroke-opacity: 0.7; stroke-width: 1.5; stroke-linecap: square"/>
   </g>
   <g id="patch_3">
    <path d="M 36.485625 277.92 
L 36.485625 0.72 
" style="fill: none; stroke: #000000; stroke-width: 0.8; stroke-linejoin: miter; stroke-linecap: square"/>
   </g>
   <g id="patch_4">
    <path d="M 594.485625 277.92 
L 594.485625 0.72 
" style="fill: none; stroke: #000000; stroke-width: 0.8; stroke-linejoin: miter; stroke-linecap: square"/>
   </g>
   <g id="patch_5">
    <path d="M 36.485625 277.92 
L 594.485625 277.92 
" style="fill: none; stroke: #000000; stroke-width: 0.8; stroke-linejoin: miter; stroke-linecap: square"/>
   </g>
   <g id="patch_6">
    <path d="M 36.485625 0.72 
L 594.485625 0.72 
" style="fill: none; stroke: #000000; stroke-width: 0.8; stroke-linejoin: miter; stroke-linecap: square"/>
   </g>
   <g id="legend_1">
    <g id="patch_7">
     <path d="M 513.716875 38.07625 
L 587.485625 38.07625 
Q 589.485625 38.07625 589.485625 36.07625 
L 589.485625 7.72 
Q 589.485625 5.72 587.485625 5.72 
L 513.716875 5.72 
Q 511.716875 5.72 511.716875 7.72 
L 511.716875 36.07625 
Q 511.716875 38.07625 513.716875 38.07625 
z
" style="fill: #ffffff; opacity: 0.8; stroke: #cccccc; stroke-linejoin: miter"/>
    </g>
    <g id="line2d_29">
     <path d="M 515.716875 13.818438 
L 525.716875 13.818438 
L 535.716875 13.818438 
" style="fill: none; stroke: #0000ff; stroke-opacity: 0.7; stroke-width: 1.5; stroke-linecap: square"/>
    </g>
    <g id="text_16">
     <!-- RNEA -->
     <g transform="translate(543.716875 17.318438) scale(0.1 -0.1)">
      <defs>
       <path id="DejaVuSans-52" d="M 2841 2188 
Q 3044 2119 3236 1894 
Q 3428 1669 3622 1275 
L 4263 0 
L 3584 0 
L 2988 1197 
Q 2756 1666 2539 1819 
Q 2322 1972 1947 1972 
L 1259 1972 
L 1259 0 
L 628 0 
L 628 4666 
L 2053 4666 
Q 2853 4666 3247 4331 
Q 3641 3997 3641 3322 
Q 3641 2881 3436 2590 
Q 3231 2300 2841 2188 
z
M 1259 4147 
L 1259 2491 
L 2053 2491 
Q 2509 2491 2742 2702 
Q 2975 2913 2975 3322 
Q 2975 3731 2742 3939 
Q 2509 4147 2053 4147 
L 1259 4147 
z
" transform="scale(0.015625)"/>
       <path id="DejaVuSans-45" d="M 628 4666 
L 3578 4666 
L 3578 4134 
L 1259 4134 
L 1259 2753 
L 3481 2753 
L 3481 2222 
L 1259 2222 
L 1259 531 
L 3634 531 
L 3634 0 
L 628 0 
L 628 4666 
z
" transform="scale(0.015625)"/>
       <path id="DejaVuSans-41" d="M 2188 4044 
L 1331 1722 
L 3047 1722 
L 2188 4044 
z
M 1831 4666 
L 2547 4666 
L 4325 0 
L 3669 0 
L 3244 1197 
L 1141 1197 
L 716 0 
L 50 0 
L 1831 4666 
z
" transform="scale(0.015625)"/>
      </defs>
      <use xlink:href="#DejaVuSans-52"/>
      <use xlink:href="#DejaVuSans-4e" x="69.482422"/>
      <use xlink:href="#DejaVuSans-45" x="144.287109"/>
      <use xlink:href="#DejaVuSans-41" x="207.470703"/>
     </g>
    </g>
    <g id="line2d_30">
     <path d="M 515.716875 28.496563 
L 525.716875 28.496563 
L 535.716875 28.496563 
" style="fill: none; stroke: #ff0000; stroke-opacity: 0.7; stroke-width: 1.5; stroke-linecap: square"/>
    </g>
    <g id="text_17">
     <!-- BURNEA -->
     <g transform="translate(543.716875 31.996563) scale(0.1 -0.1)">
      <defs>
       <path id="DejaVuSans-42" d="M 1259 2228 
L 1259 519 
L 2272 519 
Q 2781 519 3026 730 
Q 3272 941 3272 1375 
Q 3272 1813 3026 2020 
Q 2781 2228 2272 2228 
L 1259 2228 
z
M 1259 4147 
L 1259 2741 
L 2194 2741 
Q 2656 2741 2882 2914 
Q 3109 3088 3109 3444 
Q 3109 3797 2882 3972 
Q 2656 4147 2194 4147 
L 1259 4147 
z
M 628 4666 
L 2241 4666 
Q 2963 4666 3353 4366 
Q 3744 4066 3744 3513 
Q 3744 3084 3544 2831 
Q 3344 2578 2956 2516 
Q 3422 2416 3680 2098 
Q 3938 1781 3938 1306 
Q 3938 681 3513 340 
Q 3088 0 2303 0 
L 628 0 
L 628 4666 
z
" transform="scale(0.015625)"/>
       <path id="DejaVuSans-55" d="M 556 4666 
L 1191 4666 
L 1191 1831 
Q 1191 1081 1462 751 
Q 1734 422 2344 422 
Q 2950 422 3222 751 
Q 3494 1081 3494 1831 
L 3494 4666 
L 4128 4666 
L 4128 1753 
Q 4128 841 3676 375 
Q 3225 -91 2344 -91 
Q 1459 -91 1007 375 
Q 556 841 556 1753 
L 556 4666 
z
" transform="scale(0.015625)"/>
      </defs>
      <use xlink:href="#DejaVuSans-42"/>
      <use xlink:href="#DejaVuSans-55" x="68.603516"/>
      <use xlink:href="#DejaVuSans-52" x="141.796875"/>
      <use xlink:href="#DejaVuSans-4e" x="211.279297"/>
      <use xlink:href="#DejaVuSans-45" x="286.083984"/>
      <use xlink:href="#DejaVuSans-41" x="349.267578"/>
     </g>
    </g>
   </g>
  </g>
 </g>
 <defs>
  <clipPath id="p18952500f4">
   <rect x="36.485625" y="0.72" width="558" height="277.2"/>
  </clipPath>
 </defs>
</svg>
