<?xml version="1.0" encoding="utf-8" standalone="no"?>
<!DOCTYPE svg PUBLIC "-//W3C//DTD SVG 1.1//EN"
  "http://www.w3.org/Graphics/SVG/1.1/DTD/svg11.dtd">
<svg xmlns:xlink="http://www.w3.org/1999/xlink" width="604.74625pt" height="304.99625pt" viewBox="0 0 604.74625 304.99625" xmlns="http://www.w3.org/2000/svg" version="1.1">
 <metadata>
  <rdf:RDF xmlns:dc="http://purl.org/dc/elements/1.1/" xmlns:cc="http://creativecommons.org/ns#" xmlns:rdf="http://www.w3.org/1999/02/22-rdf-syntax-ns#">
   <cc:Work>
    <dc:type rdf:resource="http://purl.org/dc/dcmitype/StillImage"/>
    <dc:date>2023-09-05T22:09:03.329750</dc:date>
    <dc:format>image/svg+xml</dc:format>
    <dc:creator>
     <cc:Agent>
      <dc:title>Matplotlib v3.7.2, https://matplotlib.org/</dc:title>
     </cc:Agent>
    </dc:creator>
   </cc:Work>
  </rdf:RDF>
 </metadata>
 <defs>
  <style type="text/css">*{stroke-linejoin: round; stroke-linecap: butt}</style>
 </defs>
 <g id="figure_1">
  <g id="patch_1">
   <path d="M 0 304.99625 
L 604.74625 304.99625 
L 604.74625 0 
L 0 0 
L 0 304.99625 
z
" style="fill: none"/>
  </g>
  <g id="axes_1">
   <g id="patch_2">
    <path d="M 46.02625 277.92 
L 604.02625 277.92 
L 604.02625 0.72 
L 46.02625 0.72 
L 46.02625 277.92 
z
" style="fill: none"/>
   </g>
   <g id="matplotlib.axis_1">
    <g id="xtick_1">
     <g id="line2d_1">
      <path d="M 46.02625 277.92 
L 46.02625 0.72 
" clip-path="url(#pcf9e5519b2)" style="fill: none; stroke-dasharray: 0.8,1.32; stroke-dashoffset: 0; stroke: #000000; stroke-opacity: 0.5; stroke-width: 0.8"/>
     </g>
     <g id="line2d_2">
      <defs>
       <path id="mf0ea81d387" d="M 0 0 
L 0 3.5 
" style="stroke: #000000; stroke-width: 0.8"/>
      </defs>
      <g>
       <use xlink:href="#mf0ea81d387" x="46.02625" y="277.92" style="stroke: #000000; stroke-width: 0.8"/>
      </g>
     </g>
     <g id="text_1">
      <!-- 0 -->
      <g transform="translate(42.845 292.518438) scale(0.1 -0.1)">
       <defs>
        <path id="DejaVuSans-30" d="M 2034 4250 
Q 1547 4250 1301 3770 
Q 1056 3291 1056 2328 
Q 1056 1369 1301 889 
Q 1547 409 2034 409 
Q 2525 409 2770 889 
Q 3016 1369 3016 2328 
Q 3016 3291 2770 3770 
Q 2525 4250 2034 4250 
z
M 2034 4750 
Q 2819 4750 3233 4129 
Q 3647 3509 3647 2328 
Q 3647 1150 3233 529 
Q 2819 -91 2034 -91 
Q 1250 -91 836 529 
Q 422 1150 422 2328 
Q 422 3509 836 4129 
Q 1250 4750 2034 4750 
z
" transform="scale(0.015625)"/>
       </defs>
       <use xlink:href="#DejaVuSans-30"/>
      </g>
     </g>
    </g>
    <g id="xtick_2">
     <g id="line2d_3">
      <path d="M 131.256051 277.92 
L 131.256051 0.72 
" clip-path="url(#pcf9e5519b2)" style="fill: none; stroke-dasharray: 0.8,1.32; stroke-dashoffset: 0; stroke: #000000; stroke-opacity: 0.5; stroke-width: 0.8"/>
     </g>
     <g id="line2d_4">
      <g>
       <use xlink:href="#mf0ea81d387" x="131.256051" y="277.92" style="stroke: #000000; stroke-width: 0.8"/>
      </g>
     </g>
     <g id="text_2">
      <!-- 5 -->
      <g transform="translate(128.074801 292.518438) scale(0.1 -0.1)">
       <defs>
        <path id="DejaVuSans-35" d="M 691 4666 
L 3169 4666 
L 3169 4134 
L 1269 4134 
L 1269 2991 
Q 1406 3038 1543 3061 
Q 1681 3084 1819 3084 
Q 2600 3084 3056 2656 
Q 3513 2228 3513 1497 
Q 3513 744 3044 326 
Q 2575 -91 1722 -91 
Q 1428 -91 1123 -41 
Q 819 9 494 109 
L 494 744 
Q 775 591 1075 516 
Q 1375 441 1709 441 
Q 2250 441 2565 725 
Q 2881 1009 2881 1497 
Q 2881 1984 2565 2268 
Q 2250 2553 1709 2553 
Q 1456 2553 1204 2497 
Q 953 2441 691 2322 
L 691 4666 
z
" transform="scale(0.015625)"/>
       </defs>
       <use xlink:href="#DejaVuSans-35"/>
      </g>
     </g>
    </g>
    <g id="xtick_3">
     <g id="line2d_5">
      <path d="M 216.485852 277.92 
L 216.485852 0.72 
" clip-path="url(#pcf9e5519b2)" style="fill: none; stroke-dasharray: 0.8,1.32; stroke-dashoffset: 0; stroke: #000000; stroke-opacity: 0.5; stroke-width: 0.8"/>
     </g>
     <g id="line2d_6">
      <g>
       <use xlink:href="#mf0ea81d387" x="216.485852" y="277.92" style="stroke: #000000; stroke-width: 0.8"/>
      </g>
     </g>
     <g id="text_3">
      <!-- 10 -->
      <g transform="translate(210.123352 292.518438) scale(0.1 -0.1)">
       <defs>
        <path id="DejaVuSans-31" d="M 794 531 
L 1825 531 
L 1825 4091 
L 703 3866 
L 703 4441 
L 1819 4666 
L 2450 4666 
L 2450 531 
L 3481 531 
L 3481 0 
L 794 0 
L 794 531 
z
" transform="scale(0.015625)"/>
       </defs>
       <use xlink:href="#DejaVuSans-31"/>
       <use xlink:href="#DejaVuSans-30" x="63.623047"/>
      </g>
     </g>
    </g>
    <g id="xtick_4">
     <g id="line2d_7">
      <path d="M 301.715653 277.92 
L 301.715653 0.72 
" clip-path="url(#pcf9e5519b2)" style="fill: none; stroke-dasharray: 0.8,1.32; stroke-dashoffset: 0; stroke: #000000; stroke-opacity: 0.5; stroke-width: 0.8"/>
     </g>
     <g id="line2d_8">
      <g>
       <use xlink:href="#mf0ea81d387" x="301.715653" y="277.92" style="stroke: #000000; stroke-width: 0.8"/>
      </g>
     </g>
     <g id="text_4">
      <!-- 15 -->
      <g transform="translate(295.353153 292.518438) scale(0.1 -0.1)">
       <use xlink:href="#DejaVuSans-31"/>
       <use xlink:href="#DejaVuSans-35" x="63.623047"/>
      </g>
     </g>
    </g>
    <g id="xtick_5">
     <g id="line2d_9">
      <path d="M 386.945454 277.92 
L 386.945454 0.72 
" clip-path="url(#pcf9e5519b2)" style="fill: none; stroke-dasharray: 0.8,1.32; stroke-dashoffset: 0; stroke: #000000; stroke-opacity: 0.5; stroke-width: 0.8"/>
     </g>
     <g id="line2d_10">
      <g>
       <use xlink:href="#mf0ea81d387" x="386.945454" y="277.92" style="stroke: #000000; stroke-width: 0.8"/>
      </g>
     </g>
     <g id="text_5">
      <!-- 20 -->
      <g transform="translate(380.582954 292.518438) scale(0.1 -0.1)">
       <defs>
        <path id="DejaVuSans-32" d="M 1228 531 
L 3431 531 
L 3431 0 
L 469 0 
L 469 531 
Q 828 903 1448 1529 
Q 2069 2156 2228 2338 
Q 2531 2678 2651 2914 
Q 2772 3150 2772 3378 
Q 2772 3750 2511 3984 
Q 2250 4219 1831 4219 
Q 1534 4219 1204 4116 
Q 875 4013 500 3803 
L 500 4441 
Q 881 4594 1212 4672 
Q 1544 4750 1819 4750 
Q 2544 4750 2975 4387 
Q 3406 4025 3406 3419 
Q 3406 3131 3298 2873 
Q 3191 2616 2906 2266 
Q 2828 2175 2409 1742 
Q 1991 1309 1228 531 
z
" transform="scale(0.015625)"/>
       </defs>
       <use xlink:href="#DejaVuSans-32"/>
       <use xlink:href="#DejaVuSans-30" x="63.623047"/>
      </g>
     </g>
    </g>
    <g id="xtick_6">
     <g id="line2d_11">
      <path d="M 472.175255 277.92 
L 472.175255 0.72 
" clip-path="url(#pcf9e5519b2)" style="fill: none; stroke-dasharray: 0.8,1.32; stroke-dashoffset: 0; stroke: #000000; stroke-opacity: 0.5; stroke-width: 0.8"/>
     </g>
     <g id="line2d_12">
      <g>
       <use xlink:href="#mf0ea81d387" x="472.175255" y="277.92" style="stroke: #000000; stroke-width: 0.8"/>
      </g>
     </g>
     <g id="text_6">
      <!-- 25 -->
      <g transform="translate(465.812755 292.518438) scale(0.1 -0.1)">
       <use xlink:href="#DejaVuSans-32"/>
       <use xlink:href="#DejaVuSans-35" x="63.623047"/>
      </g>
     </g>
    </g>
    <g id="xtick_7">
     <g id="line2d_13">
      <path d="M 557.405056 277.92 
L 557.405056 0.72 
" clip-path="url(#pcf9e5519b2)" style="fill: none; stroke-dasharray: 0.8,1.32; stroke-dashoffset: 0; stroke: #000000; stroke-opacity: 0.5; stroke-width: 0.8"/>
     </g>
     <g id="line2d_14">
      <g>
       <use xlink:href="#mf0ea81d387" x="557.405056" y="277.92" style="stroke: #000000; stroke-width: 0.8"/>
      </g>
     </g>
     <g id="text_7">
      <!-- 30 -->
      <g transform="translate(551.042556 292.518438) scale(0.1 -0.1)">
       <defs>
        <path id="DejaVuSans-33" d="M 2597 2516 
Q 3050 2419 3304 2112 
Q 3559 1806 3559 1356 
Q 3559 666 3084 287 
Q 2609 -91 1734 -91 
Q 1441 -91 1130 -33 
Q 819 25 488 141 
L 488 750 
Q 750 597 1062 519 
Q 1375 441 1716 441 
Q 2309 441 2620 675 
Q 2931 909 2931 1356 
Q 2931 1769 2642 2001 
Q 2353 2234 1838 2234 
L 1294 2234 
L 1294 2753 
L 1863 2753 
Q 2328 2753 2575 2939 
Q 2822 3125 2822 3475 
Q 2822 3834 2567 4026 
Q 2313 4219 1838 4219 
Q 1578 4219 1281 4162 
Q 984 4106 628 3988 
L 628 4550 
Q 988 4650 1302 4700 
Q 1616 4750 1894 4750 
Q 2613 4750 3031 4423 
Q 3450 4097 3450 3541 
Q 3450 3153 3228 2886 
Q 3006 2619 2597 2516 
z
" transform="scale(0.015625)"/>
       </defs>
       <use xlink:href="#DejaVuSans-33"/>
       <use xlink:href="#DejaVuSans-30" x="63.623047"/>
      </g>
     </g>
    </g>
    <g id="text_8">
     <!-- Zeit [s] -->
     <g transform="translate(307.080156 302.196563) scale(0.1 -0.1)">
      <defs>
       <path id="DejaVuSans-5a" d="M 359 4666 
L 4025 4666 
L 4025 4184 
L 1075 531 
L 4097 531 
L 4097 0 
L 288 0 
L 288 481 
L 3238 4134 
L 359 4134 
L 359 4666 
z
" transform="scale(0.015625)"/>
       <path id="DejaVuSans-65" d="M 3597 1894 
L 3597 1613 
L 953 1613 
Q 991 1019 1311 708 
Q 1631 397 2203 397 
Q 2534 397 2845 478 
Q 3156 559 3463 722 
L 3463 178 
Q 3153 47 2828 -22 
Q 2503 -91 2169 -91 
Q 1331 -91 842 396 
Q 353 884 353 1716 
Q 353 2575 817 3079 
Q 1281 3584 2069 3584 
Q 2775 3584 3186 3129 
Q 3597 2675 3597 1894 
z
M 3022 2063 
Q 3016 2534 2758 2815 
Q 2500 3097 2075 3097 
Q 1594 3097 1305 2825 
Q 1016 2553 972 2059 
L 3022 2063 
z
" transform="scale(0.015625)"/>
       <path id="DejaVuSans-69" d="M 603 3500 
L 1178 3500 
L 1178 0 
L 603 0 
L 603 3500 
z
M 603 4863 
L 1178 4863 
L 1178 4134 
L 603 4134 
L 603 4863 
z
" transform="scale(0.015625)"/>
       <path id="DejaVuSans-74" d="M 1172 4494 
L 1172 3500 
L 2356 3500 
L 2356 3053 
L 1172 3053 
L 1172 1153 
Q 1172 725 1289 603 
Q 1406 481 1766 481 
L 2356 481 
L 2356 0 
L 1766 0 
Q 1100 0 847 248 
Q 594 497 594 1153 
L 594 3053 
L 172 3053 
L 172 3500 
L 594 3500 
L 594 4494 
L 1172 4494 
z
" transform="scale(0.015625)"/>
       <path id="DejaVuSans-20" transform="scale(0.015625)"/>
       <path id="DejaVuSans-5b" d="M 550 4863 
L 1875 4863 
L 1875 4416 
L 1125 4416 
L 1125 -397 
L 1875 -397 
L 1875 -844 
L 550 -844 
L 550 4863 
z
" transform="scale(0.015625)"/>
       <path id="DejaVuSans-73" d="M 2834 3397 
L 2834 2853 
Q 2591 2978 2328 3040 
Q 2066 3103 1784 3103 
Q 1356 3103 1142 2972 
Q 928 2841 928 2578 
Q 928 2378 1081 2264 
Q 1234 2150 1697 2047 
L 1894 2003 
Q 2506 1872 2764 1633 
Q 3022 1394 3022 966 
Q 3022 478 2636 193 
Q 2250 -91 1575 -91 
Q 1294 -91 989 -36 
Q 684 19 347 128 
L 347 722 
Q 666 556 975 473 
Q 1284 391 1588 391 
Q 1994 391 2212 530 
Q 2431 669 2431 922 
Q 2431 1156 2273 1281 
Q 2116 1406 1581 1522 
L 1381 1569 
Q 847 1681 609 1914 
Q 372 2147 372 2553 
Q 372 3047 722 3315 
Q 1072 3584 1716 3584 
Q 2034 3584 2315 3537 
Q 2597 3491 2834 3397 
z
" transform="scale(0.015625)"/>
       <path id="DejaVuSans-5d" d="M 1947 4863 
L 1947 -844 
L 622 -844 
L 622 -397 
L 1369 -397 
L 1369 4416 
L 622 4416 
L 622 4863 
L 1947 4863 
z
" transform="scale(0.015625)"/>
      </defs>
      <use xlink:href="#DejaVuSans-5a"/>
      <use xlink:href="#DejaVuSans-65" x="68.505859"/>
      <use xlink:href="#DejaVuSans-69" x="130.029297"/>
      <use xlink:href="#DejaVuSans-74" x="157.8125"/>
      <use xlink:href="#DejaVuSans-20" x="197.021484"/>
      <use xlink:href="#DejaVuSans-5b" x="228.808594"/>
      <use xlink:href="#DejaVuSans-73" x="267.822266"/>
      <use xlink:href="#DejaVuSans-5d" x="319.921875"/>
     </g>
    </g>
   </g>
   <g id="matplotlib.axis_2">
    <g id="ytick_1">
     <g id="line2d_15">
      <path d="M 46.02625 248.04602 
L 604.02625 248.04602 
" clip-path="url(#pcf9e5519b2)" style="fill: none; stroke-dasharray: 0.8,1.32; stroke-dashoffset: 0; stroke: #000000; stroke-opacity: 0.5; stroke-width: 0.8"/>
     </g>
     <g id="line2d_16">
      <defs>
       <path id="m8dc6b02115" d="M 0 0 
L -3.5 0 
" style="stroke: #000000; stroke-width: 0.8"/>
      </defs>
      <g>
       <use xlink:href="#m8dc6b02115" x="46.02625" y="248.04602" style="stroke: #000000; stroke-width: 0.8"/>
      </g>
     </g>
     <g id="text_9">
      <!-- 61.25 -->
      <g transform="translate(10.398125 251.845238) scale(0.1 -0.1)">
       <defs>
        <path id="DejaVuSans-36" d="M 2113 2584 
Q 1688 2584 1439 2293 
Q 1191 2003 1191 1497 
Q 1191 994 1439 701 
Q 1688 409 2113 409 
Q 2538 409 2786 701 
Q 3034 994 3034 1497 
Q 3034 2003 2786 2293 
Q 2538 2584 2113 2584 
z
M 3366 4563 
L 3366 3988 
Q 3128 4100 2886 4159 
Q 2644 4219 2406 4219 
Q 1781 4219 1451 3797 
Q 1122 3375 1075 2522 
Q 1259 2794 1537 2939 
Q 1816 3084 2150 3084 
Q 2853 3084 3261 2657 
Q 3669 2231 3669 1497 
Q 3669 778 3244 343 
Q 2819 -91 2113 -91 
Q 1303 -91 875 529 
Q 447 1150 447 2328 
Q 447 3434 972 4092 
Q 1497 4750 2381 4750 
Q 2619 4750 2861 4703 
Q 3103 4656 3366 4563 
z
" transform="scale(0.015625)"/>
        <path id="DejaVuSans-2e" d="M 684 794 
L 1344 794 
L 1344 0 
L 684 0 
L 684 794 
z
" transform="scale(0.015625)"/>
       </defs>
       <use xlink:href="#DejaVuSans-36"/>
       <use xlink:href="#DejaVuSans-31" x="63.623047"/>
       <use xlink:href="#DejaVuSans-2e" x="127.246094"/>
       <use xlink:href="#DejaVuSans-32" x="159.033203"/>
       <use xlink:href="#DejaVuSans-35" x="222.65625"/>
      </g>
     </g>
    </g>
    <g id="ytick_2">
     <g id="line2d_17">
      <path d="M 46.02625 214.679216 
L 604.02625 214.679216 
" clip-path="url(#pcf9e5519b2)" style="fill: none; stroke-dasharray: 0.8,1.32; stroke-dashoffset: 0; stroke: #000000; stroke-opacity: 0.5; stroke-width: 0.8"/>
     </g>
     <g id="line2d_18">
      <g>
       <use xlink:href="#m8dc6b02115" x="46.02625" y="214.679216" style="stroke: #000000; stroke-width: 0.8"/>
      </g>
     </g>
     <g id="text_10">
      <!-- 61.50 -->
      <g transform="translate(10.398125 218.478435) scale(0.1 -0.1)">
       <use xlink:href="#DejaVuSans-36"/>
       <use xlink:href="#DejaVuSans-31" x="63.623047"/>
       <use xlink:href="#DejaVuSans-2e" x="127.246094"/>
       <use xlink:href="#DejaVuSans-35" x="159.033203"/>
       <use xlink:href="#DejaVuSans-30" x="222.65625"/>
      </g>
     </g>
    </g>
    <g id="ytick_3">
     <g id="line2d_19">
      <path d="M 46.02625 181.312412 
L 604.02625 181.312412 
" clip-path="url(#pcf9e5519b2)" style="fill: none; stroke-dasharray: 0.8,1.32; stroke-dashoffset: 0; stroke: #000000; stroke-opacity: 0.5; stroke-width: 0.8"/>
     </g>
     <g id="line2d_20">
      <g>
       <use xlink:href="#m8dc6b02115" x="46.02625" y="181.312412" style="stroke: #000000; stroke-width: 0.8"/>
      </g>
     </g>
     <g id="text_11">
      <!-- 61.75 -->
      <g transform="translate(10.398125 185.111631) scale(0.1 -0.1)">
       <defs>
        <path id="DejaVuSans-37" d="M 525 4666 
L 3525 4666 
L 3525 4397 
L 1831 0 
L 1172 0 
L 2766 4134 
L 525 4134 
L 525 4666 
z
" transform="scale(0.015625)"/>
       </defs>
       <use xlink:href="#DejaVuSans-36"/>
       <use xlink:href="#DejaVuSans-31" x="63.623047"/>
       <use xlink:href="#DejaVuSans-2e" x="127.246094"/>
       <use xlink:href="#DejaVuSans-37" x="159.033203"/>
       <use xlink:href="#DejaVuSans-35" x="222.65625"/>
      </g>
     </g>
    </g>
    <g id="ytick_4">
     <g id="line2d_21">
      <path d="M 46.02625 147.945609 
L 604.02625 147.945609 
" clip-path="url(#pcf9e5519b2)" style="fill: none; stroke-dasharray: 0.8,1.32; stroke-dashoffset: 0; stroke: #000000; stroke-opacity: 0.5; stroke-width: 0.8"/>
     </g>
     <g id="line2d_22">
      <g>
       <use xlink:href="#m8dc6b02115" x="46.02625" y="147.945609" style="stroke: #000000; stroke-width: 0.8"/>
      </g>
     </g>
     <g id="text_12">
      <!-- 62.00 -->
      <g transform="translate(10.398125 151.744828) scale(0.1 -0.1)">
       <use xlink:href="#DejaVuSans-36"/>
       <use xlink:href="#DejaVuSans-32" x="63.623047"/>
       <use xlink:href="#DejaVuSans-2e" x="127.246094"/>
       <use xlink:href="#DejaVuSans-30" x="159.033203"/>
       <use xlink:href="#DejaVuSans-30" x="222.65625"/>
      </g>
     </g>
    </g>
    <g id="ytick_5">
     <g id="line2d_23">
      <path d="M 46.02625 114.578805 
L 604.02625 114.578805 
" clip-path="url(#pcf9e5519b2)" style="fill: none; stroke-dasharray: 0.8,1.32; stroke-dashoffset: 0; stroke: #000000; stroke-opacity: 0.5; stroke-width: 0.8"/>
     </g>
     <g id="line2d_24">
      <g>
       <use xlink:href="#m8dc6b02115" x="46.02625" y="114.578805" style="stroke: #000000; stroke-width: 0.8"/>
      </g>
     </g>
     <g id="text_13">
      <!-- 62.25 -->
      <g transform="translate(10.398125 118.378024) scale(0.1 -0.1)">
       <use xlink:href="#DejaVuSans-36"/>
       <use xlink:href="#DejaVuSans-32" x="63.623047"/>
       <use xlink:href="#DejaVuSans-2e" x="127.246094"/>
       <use xlink:href="#DejaVuSans-32" x="159.033203"/>
       <use xlink:href="#DejaVuSans-35" x="222.65625"/>
      </g>
     </g>
    </g>
    <g id="ytick_6">
     <g id="line2d_25">
      <path d="M 46.02625 81.212002 
L 604.02625 81.212002 
" clip-path="url(#pcf9e5519b2)" style="fill: none; stroke-dasharray: 0.8,1.32; stroke-dashoffset: 0; stroke: #000000; stroke-opacity: 0.5; stroke-width: 0.8"/>
     </g>
     <g id="line2d_26">
      <g>
       <use xlink:href="#m8dc6b02115" x="46.02625" y="81.212002" style="stroke: #000000; stroke-width: 0.8"/>
      </g>
     </g>
     <g id="text_14">
      <!-- 62.50 -->
      <g transform="translate(10.398125 85.011221) scale(0.1 -0.1)">
       <use xlink:href="#DejaVuSans-36"/>
       <use xlink:href="#DejaVuSans-32" x="63.623047"/>
       <use xlink:href="#DejaVuSans-2e" x="127.246094"/>
       <use xlink:href="#DejaVuSans-35" x="159.033203"/>
       <use xlink:href="#DejaVuSans-30" x="222.65625"/>
      </g>
     </g>
    </g>
    <g id="ytick_7">
     <g id="line2d_27">
      <path d="M 46.02625 47.845198 
L 604.02625 47.845198 
" clip-path="url(#pcf9e5519b2)" style="fill: none; stroke-dasharray: 0.8,1.32; stroke-dashoffset: 0; stroke: #000000; stroke-opacity: 0.5; stroke-width: 0.8"/>
     </g>
     <g id="line2d_28">
      <g>
       <use xlink:href="#m8dc6b02115" x="46.02625" y="47.845198" style="stroke: #000000; stroke-width: 0.8"/>
      </g>
     </g>
     <g id="text_15">
      <!-- 62.75 -->
      <g transform="translate(10.398125 51.644417) scale(0.1 -0.1)">
       <use xlink:href="#DejaVuSans-36"/>
       <use xlink:href="#DejaVuSans-32" x="63.623047"/>
       <use xlink:href="#DejaVuSans-2e" x="127.246094"/>
       <use xlink:href="#DejaVuSans-37" x="159.033203"/>
       <use xlink:href="#DejaVuSans-35" x="222.65625"/>
      </g>
     </g>
    </g>
    <g id="ytick_8">
     <g id="line2d_29">
      <path d="M 46.02625 14.478395 
L 604.02625 14.478395 
" clip-path="url(#pcf9e5519b2)" style="fill: none; stroke-dasharray: 0.8,1.32; stroke-dashoffset: 0; stroke: #000000; stroke-opacity: 0.5; stroke-width: 0.8"/>
     </g>
     <g id="line2d_30">
      <g>
       <use xlink:href="#m8dc6b02115" x="46.02625" y="14.478395" style="stroke: #000000; stroke-width: 0.8"/>
      </g>
     </g>
     <g id="text_16">
      <!-- 63.00 -->
      <g transform="translate(10.398125 18.277614) scale(0.1 -0.1)">
       <use xlink:href="#DejaVuSans-36"/>
       <use xlink:href="#DejaVuSans-33" x="63.623047"/>
       <use xlink:href="#DejaVuSans-2e" x="127.246094"/>
       <use xlink:href="#DejaVuSans-30" x="159.033203"/>
       <use xlink:href="#DejaVuSans-30" x="222.65625"/>
      </g>
     </g>
    </g>
    <g id="text_17">
     <!-- Drehmoment [Nm] -->
     <g transform="translate(8.318438 186.465313) rotate(-90) scale(0.1 -0.1)">
      <defs>
       <path id="DejaVuSans-44" d="M 1259 4147 
L 1259 519 
L 2022 519 
Q 2988 519 3436 956 
Q 3884 1394 3884 2338 
Q 3884 3275 3436 3711 
Q 2988 4147 2022 4147 
L 1259 4147 
z
M 628 4666 
L 1925 4666 
Q 3281 4666 3915 4102 
Q 4550 3538 4550 2338 
Q 4550 1131 3912 565 
Q 3275 0 1925 0 
L 628 0 
L 628 4666 
z
" transform="scale(0.015625)"/>
       <path id="DejaVuSans-72" d="M 2631 2963 
Q 2534 3019 2420 3045 
Q 2306 3072 2169 3072 
Q 1681 3072 1420 2755 
Q 1159 2438 1159 1844 
L 1159 0 
L 581 0 
L 581 3500 
L 1159 3500 
L 1159 2956 
Q 1341 3275 1631 3429 
Q 1922 3584 2338 3584 
Q 2397 3584 2469 3576 
Q 2541 3569 2628 3553 
L 2631 2963 
z
" transform="scale(0.015625)"/>
       <path id="DejaVuSans-68" d="M 3513 2113 
L 3513 0 
L 2938 0 
L 2938 2094 
Q 2938 2591 2744 2837 
Q 2550 3084 2163 3084 
Q 1697 3084 1428 2787 
Q 1159 2491 1159 1978 
L 1159 0 
L 581 0 
L 581 4863 
L 1159 4863 
L 1159 2956 
Q 1366 3272 1645 3428 
Q 1925 3584 2291 3584 
Q 2894 3584 3203 3211 
Q 3513 2838 3513 2113 
z
" transform="scale(0.015625)"/>
       <path id="DejaVuSans-6d" d="M 3328 2828 
Q 3544 3216 3844 3400 
Q 4144 3584 4550 3584 
Q 5097 3584 5394 3201 
Q 5691 2819 5691 2113 
L 5691 0 
L 5113 0 
L 5113 2094 
Q 5113 2597 4934 2840 
Q 4756 3084 4391 3084 
Q 3944 3084 3684 2787 
Q 3425 2491 3425 1978 
L 3425 0 
L 2847 0 
L 2847 2094 
Q 2847 2600 2669 2842 
Q 2491 3084 2119 3084 
Q 1678 3084 1418 2786 
Q 1159 2488 1159 1978 
L 1159 0 
L 581 0 
L 581 3500 
L 1159 3500 
L 1159 2956 
Q 1356 3278 1631 3431 
Q 1906 3584 2284 3584 
Q 2666 3584 2933 3390 
Q 3200 3197 3328 2828 
z
" transform="scale(0.015625)"/>
       <path id="DejaVuSans-6f" d="M 1959 3097 
Q 1497 3097 1228 2736 
Q 959 2375 959 1747 
Q 959 1119 1226 758 
Q 1494 397 1959 397 
Q 2419 397 2687 759 
Q 2956 1122 2956 1747 
Q 2956 2369 2687 2733 
Q 2419 3097 1959 3097 
z
M 1959 3584 
Q 2709 3584 3137 3096 
Q 3566 2609 3566 1747 
Q 3566 888 3137 398 
Q 2709 -91 1959 -91 
Q 1206 -91 779 398 
Q 353 888 353 1747 
Q 353 2609 779 3096 
Q 1206 3584 1959 3584 
z
" transform="scale(0.015625)"/>
       <path id="DejaVuSans-6e" d="M 3513 2113 
L 3513 0 
L 2938 0 
L 2938 2094 
Q 2938 2591 2744 2837 
Q 2550 3084 2163 3084 
Q 1697 3084 1428 2787 
Q 1159 2491 1159 1978 
L 1159 0 
L 581 0 
L 581 3500 
L 1159 3500 
L 1159 2956 
Q 1366 3272 1645 3428 
Q 1925 3584 2291 3584 
Q 2894 3584 3203 3211 
Q 3513 2838 3513 2113 
z
" transform="scale(0.015625)"/>
       <path id="DejaVuSans-4e" d="M 628 4666 
L 1478 4666 
L 3547 763 
L 3547 4666 
L 4159 4666 
L 4159 0 
L 3309 0 
L 1241 3903 
L 1241 0 
L 628 0 
L 628 4666 
z
" transform="scale(0.015625)"/>
      </defs>
      <use xlink:href="#DejaVuSans-44"/>
      <use xlink:href="#DejaVuSans-72" x="77.001953"/>
      <use xlink:href="#DejaVuSans-65" x="115.865234"/>
      <use xlink:href="#DejaVuSans-68" x="177.388672"/>
      <use xlink:href="#DejaVuSans-6d" x="240.767578"/>
      <use xlink:href="#DejaVuSans-6f" x="338.179688"/>
      <use xlink:href="#DejaVuSans-6d" x="399.361328"/>
      <use xlink:href="#DejaVuSans-65" x="496.773438"/>
      <use xlink:href="#DejaVuSans-6e" x="558.296875"/>
      <use xlink:href="#DejaVuSans-74" x="621.675781"/>
      <use xlink:href="#DejaVuSans-20" x="660.884766"/>
      <use xlink:href="#DejaVuSans-5b" x="692.671875"/>
      <use xlink:href="#DejaVuSans-4e" x="731.685547"/>
      <use xlink:href="#DejaVuSans-6d" x="806.490234"/>
      <use xlink:href="#DejaVuSans-5d" x="903.902344"/>
     </g>
    </g>
   </g>
   <g id="line2d_31">
    <path d="M 46.02625 277.919891 
L 254.293885 277.919924 
L 604.02625 277.919888 
L 604.02625 277.919888 
" clip-path="url(#pcf9e5519b2)" style="fill: none; stroke: #0000ff; stroke-opacity: 0.7; stroke-width: 1.5; stroke-linecap: square"/>
   </g>
   <g id="line2d_32">
    <path d="M 46.02625 32.016602 
L 46.321484 30.875151 
L 46.440949 31.708474 
L 46.622908 31.999267 
L 46.896535 37.664859 
L 47.129776 38.489606 
L 47.268067 35.8899 
L 47.4415 35.195014 
L 47.7484 40.776492 
L 47.989651 42.993467 
L 48.26441 37.419272 
L 48.470767 36.326394 
L 48.612598 36.803215 
L 48.84726 35.830785 
L 49.019429 35.794316 
L 49.259593 41.850854 
L 49.705589 28.952802 
L 50.015984 18.169468 
L 50.156004 22.849169 
L 50.428463 37.005892 
L 50.668678 35.645473 
L 50.840655 22.340702 
L 50.979649 14.735402 
L 51.116782 14.202559 
L 51.397576 38.57539 
L 51.698662 49.3959 
L 51.835969 41.255847 
L 52.111618 14.232276 
L 52.249876 14.416162 
L 52.673144 49.469234 
L 52.816878 52.395695 
L 52.975718 39.126079 
L 53.251524 4.278161 
L 53.388643 2.274956 
L 53.526539 8.282368 
L 53.94749 46.485895 
L 54.109375 39.206257 
L 54.522931 0.72 
L 54.660772 5.472146 
L 55.083729 49.267628 
L 55.215824 48.502265 
L 55.668545 13.05194 
L 55.798394 15.025257 
L 56.211529 52.372785 
L 56.351566 57.159917 
L 56.65927 38.605938 
L 56.93525 22.475337 
L 57.210415 31.74879 
L 57.655387 52.276338 
L 58.208026 16.573124 
L 58.347653 19.716064 
L 58.757658 53.224891 
L 58.928313 49.138688 
L 59.477163 10.97222 
L 60.063185 38.485699 
L 60.343731 23.087044 
L 60.480266 9.382811 
L 60.617059 8.470458 
L 60.891908 13.097775 
L 61.407168 44.002663 
L 61.510559 43.172744 
L 61.613638 29.565252 
L 61.853803 19.382633 
L 61.990496 20.941001 
L 62.097821 23.926548 
L 62.165473 34.004229 
L 62.471556 41.201913 
L 62.609229 40.839227 
L 63.16954 16.60441 
L 63.61272 38.054028 
L 63.747734 37.768465 
L 64.02628 35.551716 
L 64.332621 21.64938 
L 64.618674 34.943082 
L 64.897862 46.238282 
L 65.170867 42.426586 
L 65.489669 32.528396 
L 65.624107 29.481349 
L 66.191378 44.198075 
L 66.360247 43.971856 
L 66.392392 44.162943 
L 66.604954 31.998924 
L 66.655077 35.262127 
L 66.675902 31.141276 
L 66.95324 25.156807 
L 67.056439 27.829255 
L 67.332248 39.86361 
L 67.503148 39.418404 
L 67.64437 35.250253 
L 67.916669 22.586301 
L 68.087071 18.685745 
L 68.190208 19.148776 
L 68.468761 32.250219 
L 68.60347 36.120768 
L 69.221012 21.507219 
L 69.39558 22.855861 
L 69.56793 32.554086 
L 69.895255 38.556664 
L 70.01255 33.728154 
L 70.217993 31.200715 
L 70.295686 28.061401 
L 70.473818 26.475892 
L 70.596306 27.909128 
L 70.700761 31.817083 
L 71.076235 34.640489 
L 71.490257 29.702781 
L 71.697404 27.159031 
L 71.780066 27.725226 
L 72.106408 34.681459 
L 72.243409 34.488301 
L 72.279435 34.993178 
L 72.417414 33.701467 
L 72.691695 27.792299 
L 72.862588 28.993951 
L 73.001037 31.201254 
L 73.214873 31.698486 
L 73.412673 34.071412 
L 73.549849 35.109917 
L 73.721887 35.379031 
L 74.134064 31.522284 
L 74.270587 31.346476 
L 74.583197 33.830781 
L 74.830019 34.270839 
L 75.265301 27.140373 
L 75.404761 28.151635 
L 75.540938 28.10242 
L 75.73838 27.438597 
L 75.81757 28.113175 
L 75.98774 27.633104 
L 76.167137 25.016236 
L 76.2647 25.974846 
L 76.402119 24.436876 
L 76.562437 26.003272 
L 76.677278 24.712518 
L 76.916856 24.761795 
L 77.262121 29.059042 
L 77.397309 28.803028 
L 77.6047 28.97127 
L 77.674052 25.915911 
L 77.879661 26.459354 
L 78.258008 30.783223 
L 78.463829 29.115684 
L 78.847401 19.029845 
L 79.08258 19.088455 
L 79.185506 20.648754 
L 79.289307 24.164426 
L 79.529613 24.681608 
L 79.66822 21.678408 
L 79.977185 23.582635 
L 80.188482 24.191138 
L 80.569398 34.571351 
L 80.690916 32.81168 
L 80.834453 32.738982 
L 81.076851 31.680113 
L 81.267041 34.597222 
L 81.267188 31.046186 
L 81.403906 34.171885 
L 81.560728 34.908541 
L 81.806121 37.460721 
L 81.870219 37.310995 
L 81.90649 36.028121 
L 82.041358 35.960657 
L 82.076766 32.933904 
L 82.110407 35.243219 
L 82.234601 31.915498 
L 82.372388 32.414676 
L 82.536445 32.637857 
L 82.694245 35.170799 
L 82.896912 33.606622 
L 83.09443 37.080222 
L 83.23805 36.712108 
L 83.373683 35.144616 
L 83.511454 31.942828 
L 83.785274 33.366892 
L 83.923634 32.839933 
L 84.06117 30.658925 
L 84.237614 33.228385 
L 84.339761 30.962931 
L 84.369887 33.205572 
L 84.645145 24.976484 
L 84.781744 25.303524 
L 85.230263 33.757989 
L 85.341035 30.71392 
L 85.546287 31.290809 
L 85.579109 38.930253 
L 85.788579 33.825618 
L 85.822575 34.305112 
L 85.959723 33.116358 
L 86.059189 34.990875 
L 86.337527 34.34325 
L 86.403182 36.36571 
L 86.645823 32.544564 
L 86.784886 33.741979 
L 87.096146 31.094032 
L 87.194739 32.805067 
L 87.366322 32.844465 
L 87.502776 33.624909 
L 87.64185 33.235593 
L 87.95295 28.56259 
L 88.199552 26.695676 
L 88.364768 27.728012 
L 88.603498 27.924917 
L 88.777173 27.84679 
L 88.810044 26.286875 
L 89.536736 26.614348 
L 90.287086 28.621738 
L 91.08852 31.364028 
L 91.837629 29.458952 
L 92.004529 35.659613 
L 92.038302 34.685147 
L 92.177235 35.45197 
L 92.314136 34.897942 
L 92.45351 30.35755 
L 92.622651 28.872127 
L 92.967974 34.040609 
L 93.005076 30.757999 
L 93.311011 30.534582 
L 93.416442 29.949493 
L 93.448725 31.835459 
L 93.688619 32.825774 
L 93.802739 32.336102 
L 94.06698 33.808564 
L 94.273111 32.332588 
L 94.411193 32.258155 
L 94.54775 34.427028 
L 94.584537 33.803509 
L 94.726446 32.788221 
L 94.872361 29.486684 
L 95.13398 26.730349 
L 95.306925 28.800984 
L 95.581687 34.331092 
L 95.922153 31.424935 
L 96.074696 28.624723 
L 96.266721 28.349306 
L 96.438319 31.415796 
L 96.5796 32.658156 
L 96.78338 28.886446 
L 96.990748 33.578557 
L 97.331916 35.914049 
L 97.513077 37.062113 
L 97.607512 34.860799 
L 97.789177 33.913012 
L 97.882204 34.94551 
L 97.994756 33.24592 
L 98.021414 36.960005 
L 98.150388 30.830807 
L 98.494392 26.662767 
L 98.567149 28.047303 
L 98.83783 26.754967 
L 98.975934 26.814127 
L 99.146885 26.701265 
L 99.283903 25.388396 
L 99.421856 25.167489 
L 99.597119 26.00054 
L 99.971903 30.742436 
L 100.593236 34.383395 
L 100.761022 32.434117 
L 100.863454 32.606611 
L 100.966862 34.699056 
L 101.139962 33.293034 
L 101.415189 26.999367 
L 102.412081 36.55011 
L 102.550065 35.681353 
L 102.685799 36.821064 
L 103.097116 32.979521 
L 103.272483 36.275702 
L 103.565326 38.60347 
L 103.565899 36.773324 
L 103.580604 38.715657 
L 104.028608 34.876905 
L 104.18633 37.238679 
L 104.385327 43.486012 
L 104.52322 43.813631 
L 104.863756 35.939863 
L 105.207259 37.993873 
L 105.241508 39.514004 
L 105.377745 40.278058 
L 105.519399 39.442513 
L 105.859051 35.984223 
L 105.961765 31.872394 
L 106.099382 32.124175 
L 106.236039 33.857665 
L 106.475753 32.022357 
L 106.514245 29.148178 
L 106.691996 29.600438 
L 106.955584 27.411096 
L 107.233046 22.971975 
L 107.506637 24.640297 
L 107.649816 24.495357 
L 107.920107 24.588855 
L 108.023195 24.458361 
L 108.099084 22.819704 
L 108.36734 23.516138 
L 108.503736 22.359958 
L 108.642642 22.769195 
L 108.815959 21.479836 
L 108.952871 17.832518 
L 109.160401 17.471646 
L 109.193062 18.68355 
L 110.050242 28.463253 
L 110.205898 27.941485 
L 110.258973 29.855631 
L 110.668208 35.431773 
L 110.807346 34.339364 
L 110.909106 31.849573 
L 111.151648 31.801948 
L 111.35942 28.027891 
L 111.562085 27.651826 
L 111.700861 28.444825 
L 112.073333 23.359588 
L 112.333439 29.215966 
L 112.49865 25.599738 
L 112.649482 26.652129 
L 112.807917 30.106369 
L 113.018159 32.229305 
L 113.118877 32.016376 
L 113.223355 32.251821 
L 113.496378 33.56379 
L 113.778247 26.599259 
L 113.910137 32.44666 
L 114.048265 33.069371 
L 114.18779 31.89554 
L 114.332436 32.714753 
L 114.46539 32.141325 
L 114.632931 32.967921 
L 114.908844 36.864457 
L 115.287006 37.410593 
L 115.459739 30.762442 
L 115.700223 30.020249 
L 116.042945 26.533697 
L 116.304501 26.1325 
L 116.457561 25.006369 
L 116.59132 26.858877 
L 116.625418 26.494425 
L 116.847371 27.851665 
L 116.910046 30.36337 
L 117.114578 30.124101 
L 117.176775 27.158112 
L 117.316651 30.85443 
L 117.597578 31.382781 
L 117.774772 30.949825 
L 118.106912 31.512335 
L 118.453488 24.933917 
L 118.534304 25.741861 
L 118.589984 29.551511 
L 118.729184 29.662515 
L 119.154004 26.562298 
L 119.709917 27.416071 
L 120.033881 31.0591 
L 120.257484 31.507485 
L 120.332243 33.653822 
L 120.46518 33.83381 
L 120.587058 33.595073 
L 120.722625 32.21315 
L 120.896251 31.761658 
L 121.203531 36.831202 
L 121.720293 27.836027 
L 121.865849 27.62875 
L 122.17323 29.312682 
L 122.283869 32.710501 
L 122.447225 32.932379 
L 122.584254 31.709062 
L 122.859253 31.583928 
L 123.031537 30.511212 
L 123.176979 30.772961 
L 123.281636 30.398536 
L 123.308511 32.648499 
L 123.446475 30.236658 
L 123.551136 31.766887 
L 124.03401 26.986984 
L 124.169669 23.741366 
L 124.279023 27.72662 
L 124.477376 30.243633 
L 124.650368 29.315928 
L 124.718971 30.774376 
L 124.858087 30.070162 
L 125.304643 24.439334 
L 125.479028 25.030639 
L 125.57913 30.737282 
L 125.821528 27.384321 
L 126.066089 28.512644 
L 126.133236 26.796343 
L 126.304203 26.165652 
L 126.448825 29.364199 
L 126.682358 27.628685 
L 126.821105 29.865789 
L 127.068677 29.018566 
L 127.10247 27.915679 
L 127.279598 27.942957 
L 127.553405 27.478717 
L 127.690579 28.481904 
L 127.858719 24.905459 
L 127.960439 25.083045 
L 128.170503 26.231369 
L 128.443093 26.234802 
L 128.682096 25.036612 
L 128.820532 24.211449 
L 129.267714 29.54448 
L 129.540827 30.508389 
L 129.690756 32.16589 
L 129.827509 30.382513 
L 130.107483 32.369036 
L 130.376518 31.410118 
L 130.442993 30.187976 
L 130.645568 29.96604 
L 130.814953 28.05994 
L 130.988154 24.270434 
L 131.298437 27.118638 
L 131.399777 26.901866 
L 131.572156 24.006887 
L 131.8136 26.800375 
L 132.018627 25.527308 
L 132.086644 29.220396 
L 132.226273 28.811984 
L 132.518185 31.047093 
L 132.7608 30.59057 
L 133.086629 34.32695 
L 133.231962 33.929236 
L 133.361032 33.233739 
L 133.49794 30.284783 
L 133.80796 33.454885 
L 134.222314 27.207554 
L 134.394992 29.066141 
L 134.633828 27.633979 
L 134.944009 31.121376 
L 135.079769 30.113936 
L 135.388549 26.258052 
L 135.528361 26.807858 
L 135.836761 22.844489 
L 136.096553 30.240345 
L 136.423591 27.371617 
L 136.642567 28.92771 
L 136.911072 37.143423 
L 137.044331 36.992855 
L 137.388317 35.531549 
L 137.799282 27.632039 
L 137.920661 27.63312 
L 137.93921 27.821535 
L 138.103039 23.52587 
L 138.230856 24.633626 
L 138.32718 20.511739 
L 138.560861 19.500306 
L 138.638807 20.322071 
L 138.938492 19.88438 
L 139.040972 21.386157 
L 139.316508 22.157353 
L 139.423439 21.328343 
L 139.49403 23.955202 
L 139.603893 22.961799 
L 139.76888 23.825483 
L 139.90731 25.950312 
L 140.046538 23.054732 
L 140.180908 23.78551 
L 140.49058 28.616194 
L 140.598452 26.414224 
L 140.915381 25.060228 
L 141.040787 23.592106 
L 141.176825 24.411139 
L 141.315541 23.473427 
L 141.59128 29.225854 
L 141.748905 29.617127 
L 141.899773 28.77375 
L 142.175769 31.070071 
L 142.455824 34.395715 
L 142.588945 32.310805 
L 142.721333 35.632982 
L 142.754778 33.561118 
L 142.894086 34.360303 
L 143.305423 24.006254 
L 143.441962 25.920669 
L 143.725004 22.59874 
L 143.889646 22.450137 
L 144.028462 21.434074 
L 144.165361 18.588404 
L 144.302719 18.244944 
L 144.714397 24.939499 
L 144.886417 23.829636 
L 145.162735 28.180033 
L 145.436872 26.561013 
L 145.576474 27.299152 
L 145.716674 27.160214 
L 145.848587 25.608118 
L 146.021476 25.839478 
L 146.158845 24.124088 
L 146.289119 26.602508 
L 146.432893 24.502695 
L 146.570954 20.435026 
L 146.725257 20.865815 
L 146.848182 22.139178 
L 147.1248 27.853108 
L 147.429783 28.289519 
L 147.573424 30.557953 
L 147.704352 26.700493 
L 147.981631 32.984948 
L 148.132629 30.653739 
L 148.258089 32.246832 
L 148.42689 27.083615 
L 148.564433 27.62477 
L 148.705791 30.695223 
L 148.876644 31.099338 
L 148.978456 30.394858 
L 149.117046 31.417535 
L 149.401214 27.936685 
L 149.56632 32.36697 
L 149.99949 27.780581 
L 150.010753 29.495794 
L 150.043999 27.038921 
L 150.115369 23.07451 
L 150.399528 22.249496 
L 150.425394 20.794776 
L 150.571268 23.30613 
L 150.838866 25.883427 
L 150.942066 24.983974 
L 150.977483 21.001067 
L 151.117219 20.854836 
L 151.251966 20.019659 
L 151.439274 20.731824 
L 151.598242 23.32349 
L 151.700584 22.144002 
L 152.045468 21.617555 
L 152.250007 19.891603 
L 152.388401 20.864114 
L 152.52716 20.520511 
L 152.841747 24.096844 
L 152.983875 24.055303 
L 153.254415 29.21016 
L 153.601212 26.95605 
L 153.667095 27.589994 
L 153.977138 26.035299 
L 154.149096 29.255775 
L 154.492305 29.049252 
L 154.736388 21.926038 
L 155.016226 26.564112 
L 155.287691 26.820699 
L 155.356507 28.132317 
L 155.837998 21.095119 
L 155.941707 22.445483 
L 155.972839 19.759082 
L 156.111829 19.576242 
L 156.660104 20.789465 
L 156.796745 23.772738 
L 156.935698 23.251475 
L 157.072884 24.740304 
L 157.280789 24.796663 
L 157.418345 25.01107 
L 157.450757 28.815434 
L 157.591942 29.805334 
L 157.761271 28.431534 
L 157.863688 25.285365 
L 158.03615 26.025821 
L 158.166928 24.503484 
L 158.210403 26.24787 
L 158.414753 24.884148 
L 158.553761 22.920196 
L 158.655587 25.554292 
L 158.860754 26.867839 
L 158.928973 25.270065 
L 159.478527 27.528371 
L 159.547881 26.053942 
L 159.787648 26.65754 
L 159.87336 27.367628 
L 159.890129 28.595866 
L 159.993356 28.026529 
L 160.271374 24.718031 
L 160.510256 20.806003 
L 160.550198 23.91685 
L 160.785364 18.390552 
L 160.926905 19.461633 
L 161.177449 12.2487 
L 161.215314 12.800804 
L 161.786107 20.966978 
L 161.934463 18.517216 
L 162.200324 24.925554 
L 162.403402 23.698867 
L 162.479773 26.153766 
L 162.746473 26.706928 
L 162.918098 25.630948 
L 163.09661 27.329187 
L 163.231736 22.844671 
L 163.336515 24.124887 
L 163.609121 21.163178 
L 164.099703 27.414925 
L 164.190531 27.808814 
L 164.32806 29.086278 
L 164.534566 25.490167 
L 164.789355 27.39145 
L 165.049492 27.0243 
L 165.190654 28.49088 
L 165.324601 24.28332 
L 165.402657 26.910346 
L 165.533616 26.519321 
L 165.776088 21.547442 
L 165.916971 22.139716 
L 166.052285 25.332427 
L 166.25802 23.050625 
L 166.429944 24.951714 
L 166.464971 26.82174 
L 166.636989 29.06361 
L 166.808975 28.985893 
L 166.914489 29.278675 
L 167.362495 32.78717 
L 167.529947 29.385519 
L 167.635676 33.561249 
L 167.770618 32.692476 
L 167.941767 30.44653 
L 168.045147 31.018705 
L 168.331263 24.911342 
L 168.456756 28.162708 
L 168.733115 29.498449 
L 168.874979 31.956777 
L 169.040711 27.801839 
L 169.318369 28.246545 
L 169.453469 27.707851 
L 169.59287 29.817692 
L 169.831971 31.108191 
L 170.038402 26.01191 
L 170.347842 23.24912 
L 170.48455 24.44199 
L 170.590017 23.34721 
L 170.761372 24.604683 
L 170.902974 24.795052 
L 171.071124 24.762995 
L 171.243828 23.86927 
L 171.311516 25.192316 
L 171.449347 22.810075 
L 171.591903 23.246743 
L 171.742606 25.351194 
L 171.863574 23.909839 
L 172.104028 22.811689 
L 172.247553 24.012493 
L 172.446103 21.680865 
L 172.582861 24.648364 
L 172.767635 25.963705 
L 172.858484 28.234385 
L 173.295653 32.675188 
L 173.443603 34.575298 
L 173.580585 32.191996 
L 173.856298 34.563743 
L 174.406825 31.715476 
L 174.549408 26.666219 
L 174.717148 26.216692 
L 174.853531 26.455473 
L 175.216611 25.370294 
L 175.276103 23.921088 
L 175.404878 24.105731 
L 175.543179 26.131886 
L 175.712854 24.395922 
L 175.9893 26.622455 
L 176.126301 26.527074 
L 176.263011 24.647446 
L 176.416408 25.254983 
L 176.846602 32.28974 
L 176.986028 30.821381 
L 177.260051 35.232546 
L 177.397125 33.788524 
L 177.734954 36.792947 
L 177.841412 36.223372 
L 177.980294 35.515529 
L 178.254825 27.276431 
L 178.399171 27.677552 
L 178.840912 21.436295 
L 178.980114 21.139651 
L 179.527163 26.668164 
L 179.94494 28.691405 
L 180.1266 30.472602 
L 180.389336 35.604137 
L 180.532054 34.229417 
L 180.663667 35.671913 
L 180.804453 27.070286 
L 180.942782 35.646192 
L 181.079359 40.18238 
L 181.112 34.101965 
L 181.391725 32.234721 
L 181.663481 29.117815 
L 181.800452 30.162157 
L 182.088048 24.411297 
L 182.246992 24.701936 
L 182.395234 25.58622 
L 182.528567 29.464588 
L 182.73651 28.926114 
L 183.11503 31.371257 
L 183.224528 28.584358 
L 183.35497 28.216919 
L 183.492534 30.829903 
L 183.765451 30.248662 
L 183.833642 29.593337 
L 183.957783 27.244857 
L 184.075198 28.590112 
L 184.350842 29.30965 
L 184.55519 24.501251 
L 184.794801 27.84629 
L 184.935996 27.571983 
L 185.244613 25.831901 
L 185.395577 23.077881 
L 185.48364 23.113644 
L 185.657214 24.755583 
L 185.793919 24.421027 
L 185.931037 22.641061 
L 186.104678 22.81537 
L 186.307695 24.126396 
L 186.385024 21.234458 
L 186.619137 24.91787 
L 186.791021 26.367721 
L 186.929711 26.354338 
L 187.142154 24.189864 
L 187.205029 29.692636 
L 187.378812 33.174548 
L 187.652342 29.945699 
L 187.892454 29.888864 
L 188.236602 25.426034 
L 188.338962 22.237414 
L 188.493 23.777631 
L 188.613497 19.607835 
L 188.755781 19.612975 
L 188.98608 19.983135 
L 189.069533 19.163782 
L 189.200718 20.669352 
L 189.336195 20.359841 
L 189.47424 18.94033 
L 189.817055 23.786306 
L 189.954351 21.472677 
L 190.162252 22.559243 
L 190.265458 20.083428 
L 190.36798 21.323635 
L 190.472338 24.326653 
L 190.608065 24.631723 
L 190.746586 25.408773 
L 190.920678 25.052637 
L 191.026005 25.913159 
L 191.19227 26.305946 
L 191.365258 27.758723 
L 191.577492 26.614713 
L 191.639515 25.259517 
L 191.673658 25.801915 
L 192.086552 22.638849 
L 192.333201 29.740714 
L 192.465106 26.456047 
L 192.877957 22.565461 
L 193.014226 25.014057 
L 193.184462 23.461988 
L 193.321199 23.715999 
L 193.493329 28.157377 
L 193.803234 24.350014 
L 194.046875 28.938086 
L 194.183883 29.522732 
L 194.600502 33.606234 
L 194.870863 28.073153 
L 195.077754 28.99587 
L 195.181282 28.825946 
L 195.317254 25.767454 
L 195.628935 28.825825 
L 195.765589 28.2236 
L 196.009555 26.091386 
L 196.177084 27.524054 
L 196.314933 27.100958 
L 196.451907 25.082853 
L 196.729898 25.697479 
L 196.859723 28.707202 
L 196.886116 26.049231 
L 197.010889 25.661448 
L 197.088748 27.741347 
L 197.196931 25.10117 
L 197.300801 25.419978 
L 197.481567 24.463864 
L 197.585661 20.02707 
L 197.925806 27.148084 
L 198.029478 22.459078 
L 198.30568 21.111305 
L 198.483922 23.003589 
L 199.028674 30.41398 
L 199.412603 25.126671 
L 199.584506 30.402782 
L 199.717272 30.539775 
L 199.853877 30.394122 
L 200.026105 28.668696 
L 200.138342 26.138077 
L 200.577667 29.200428 
L 200.756051 32.210763 
L 200.897854 28.314959 
L 201.060097 27.873561 
L 201.266947 28.845293 
L 201.373729 27.873807 
L 201.603382 29.910268 
L 201.71549 33.222822 
L 201.854459 32.503916 
L 202.004211 33.387059 
L 202.271059 38.104758 
L 202.542265 35.552005 
L 202.854881 36.521042 
L 203.128147 34.131654 
L 203.26566 34.771627 
L 203.438606 34.224849 
L 203.887012 28.288588 
L 204.300428 24.565231 
L 204.460161 25.483562 
L 204.547366 25.063279 
L 204.677002 22.644962 
L 204.989845 24.617021 
L 205.245452 28.864977 
L 205.437188 29.821677 
L 205.613103 29.123197 
L 205.68076 29.491803 
L 205.964856 27.686487 
L 205.990828 30.373895 
L 206.471067 24.323006 
L 206.543072 24.146914 
L 206.688981 25.717229 
L 206.815794 25.674503 
L 207.089671 26.892001 
L 207.235013 25.19522 
L 207.401905 27.159788 
L 207.675799 26.050862 
L 207.826581 25.533623 
L 207.965464 25.672217 
L 208.293049 22.040534 
L 208.396256 22.207993 
L 208.570858 21.248761 
L 208.67683 23.106476 
L 208.814566 21.276114 
L 208.952392 21.068626 
L 209.125131 19.218156 
L 209.226912 22.573969 
L 209.440886 22.442675 
L 209.673642 25.6737 
L 209.913346 25.870557 
L 209.983439 27.493172 
L 210.120905 27.496129 
L 210.222103 26.602281 
L 210.49713 33.630384 
L 210.806624 31.117419 
L 210.977364 33.110974 
L 211.157375 32.800717 
L 211.251537 31.175757 
L 211.630676 34.063301 
L 211.939403 29.114365 
L 212.102692 28.851677 
L 212.349908 27.203051 
L 212.522664 28.257144 
L 212.661104 30.010441 
L 212.83416 27.259157 
L 213.003535 26.681689 
L 213.083615 24.6647 
L 213.278548 26.223653 
L 213.41537 28.473635 
L 213.55276 27.728075 
L 213.656694 29.324979 
L 213.931103 24.791733 
L 214.127372 23.578068 
L 214.312509 23.869149 
L 214.344362 26.397826 
L 214.584872 26.396828 
L 214.792115 23.923343 
L 214.964139 25.403079 
L 215.344328 32.458811 
L 215.512831 31.309469 
L 215.78866 28.016116 
L 216.032569 29.772402 
L 216.06462 31.422166 
L 216.203473 31.495556 
L 216.234406 32.960902 
L 216.375898 31.845857 
L 216.615008 26.694725 
L 216.752293 24.591183 
L 216.889631 27.033199 
L 217.061249 27.4246 
L 217.639626 25.36584 
L 217.775916 23.867391 
L 218.188199 26.429751 
L 218.327875 25.373973 
L 218.610242 28.256816 
L 218.74004 27.22012 
L 218.880193 27.140804 
L 218.908262 25.257142 
L 219.1135 24.686948 
L 219.217047 27.307145 
L 219.327745 26.986172 
L 219.353903 27.591751 
L 219.458585 25.382571 
L 219.805618 26.844545 
L 220.042769 21.656793 
L 220.285196 23.754274 
L 220.351989 25.809665 
L 220.466784 25.554501 
L 220.595542 24.309344 
L 220.768059 24.723893 
L 220.909893 23.470328 
L 221.016553 23.937369 
L 221.237164 23.942314 
L 221.353578 24.975506 
L 221.469621 28.350551 
L 221.49571 26.456794 
L 221.635209 27.385168 
L 221.768416 22.257643 
L 222.00903 24.644134 
L 222.179941 22.331918 
L 222.294519 22.32584 
L 222.660932 20.290385 
L 222.871793 20.556534 
L 222.93585 17.452228 
L 223.073979 16.345247 
L 223.163175 18.811895 
L 223.383712 19.642085 
L 223.425611 19.192617 
L 223.591927 20.942173 
L 223.866854 25.958313 
L 224.002943 24.069917 
L 224.142081 23.932957 
L 224.727315 29.853276 
L 224.900899 28.837186 
L 225.173598 24.125293 
L 225.282259 24.218082 
L 225.458577 25.982713 
L 225.482149 25.800764 
L 225.723945 27.395945 
L 225.999904 25.37838 
L 226.138054 24.016529 
L 226.275393 21.29686 
L 226.515742 22.357608 
L 226.624241 23.940281 
L 226.725153 21.533266 
L 226.898397 23.054186 
L 227.06967 23.081612 
L 227.159116 24.375597 
L 227.412054 28.774041 
L 227.616587 28.163345 
L 227.858016 32.165489 
L 227.99332 30.541734 
L 228.269611 33.14179 
L 228.4069 30.323075 
L 228.543753 30.209119 
L 228.891908 23.490866 
L 228.990328 24.623934 
L 229.129175 23.359486 
L 229.268109 24.389636 
L 229.406875 27.633349 
L 229.683992 24.486231 
L 229.818997 27.016539 
L 229.987619 27.374188 
L 230.124871 29.025766 
L 230.3995 34.387843 
L 230.709509 34.726 
L 230.837265 28.243305 
L 231.018952 28.065331 
L 231.166214 31.119827 
L 231.364211 30.972296 
L 231.541425 30.326179 
L 231.580759 30.344484 
L 231.672592 26.235258 
L 231.816466 25.005699 
L 232.236553 29.453673 
L 232.394546 30.235516 
L 232.532349 28.091135 
L 232.766723 29.500543 
L 232.802682 28.108301 
L 232.960751 27.926214 
L 233.249095 31.984094 
L 233.386699 31.713665 
L 233.69512 33.534211 
L 233.938313 31.974161 
L 234.27967 32.541932 
L 234.389188 32.019361 
L 234.574757 28.966194 
L 234.71374 29.830898 
L 234.7814 31.461172 
L 234.957062 30.512163 
L 235.124033 28.880441 
L 235.263401 30.501777 
L 235.433428 30.390651 
L 235.535429 27.074121 
L 235.779788 26.576118 
L 235.984108 28.117529 
L 236.229247 22.394655 
L 236.501147 25.615518 
L 236.646452 25.957468 
L 236.845299 25.566578 
L 236.94876 25.815519 
L 237.226455 27.465121 
L 237.363432 28.495599 
L 237.707566 32.640852 
L 237.847743 29.946974 
L 238.051993 28.226296 
L 238.15536 28.241877 
L 238.22337 30.841243 
L 238.361518 30.97108 
L 238.497962 32.161344 
L 238.7737 36.39124 
L 238.944049 34.683937 
L 239.04972 31.661827 
L 239.188363 31.643333 
L 239.359277 32.268759 
L 239.579994 31.071044 
L 239.771321 29.406281 
L 239.942973 29.796492 
L 239.984744 29.377363 
L 240.220326 24.413752 
L 240.533194 29.96179 
L 240.744573 30.074931 
L 241.043355 36.189509 
L 241.182694 36.161596 
L 241.386013 34.995076 
L 241.529063 35.775156 
L 241.801902 30.380311 
L 241.916845 29.610009 
L 242.040157 31.981336 
L 242.317788 28.394929 
L 242.650589 28.264024 
L 242.796964 28.661323 
L 243.176737 31.607904 
L 243.381854 31.381356 
L 243.551916 29.6454 
L 243.621322 26.066051 
L 244.180202 22.411876 
L 244.374833 21.500101 
L 244.44793 21.56095 
L 244.649211 19.233648 
L 244.756391 21.419148 
L 244.895216 20.826133 
L 245.031565 25.728866 
L 245.234845 26.863103 
L 245.308461 25.271314 
L 245.498351 25.478531 
L 245.775568 27.246003 
L 245.805229 26.895859 
L 245.915082 27.558233 
L 246.291026 25.189472 
L 246.357352 27.897579 
L 246.598391 28.684315 
L 246.733819 27.738431 
L 246.870523 28.669975 
L 247.146541 24.730314 
L 247.317354 25.482771 
L 247.474038 27.422578 
L 247.697194 26.333469 
L 247.731843 22.780596 
L 248.006771 20.005966 
L 248.178626 20.177679 
L 248.507786 27.86799 
L 248.591674 29.285334 
L 248.873819 27.651146 
L 249.071669 27.886142 
L 249.175604 31.726753 
L 249.313135 31.6883 
L 249.62466 36.218854 
L 249.724573 32.616036 
L 250.000445 29.86679 
L 250.139254 31.250084 
L 250.184911 27.546118 
L 250.308611 27.494504 
L 250.410968 27.851785 
L 250.622785 27.05479 
L 250.857888 32.548293 
L 251.444336 22.736824 
L 251.623344 26.20973 
L 251.855627 35.595753 
L 251.997248 35.969125 
L 252.409175 24.299232 
L 252.988921 32.947816 
L 253.129905 30.391078 
L 253.266691 25.149704 
L 253.548753 21.77311 
L 253.710942 21.85274 
L 253.84713 27.464256 
L 254.094828 27.847604 
L 254.189864 30.129878 
L 254.293885 29.589082 
L 254.464767 28.014038 
L 254.841452 19.451629 
L 255.116367 27.700511 
L 255.261228 28.056312 
L 255.28719 31.345366 
L 255.56386 27.974903 
L 255.700062 29.166138 
L 255.871892 25.822538 
L 256.010777 25.593123 
L 256.217279 26.343544 
L 256.251821 31.012574 
L 256.28474 30.358139 
L 256.625031 31.694919 
L 256.697126 28.637003 
L 257.080186 23.244016 
L 257.178242 18.377495 
L 257.530118 28.196538 
L 257.689302 29.68371 
L 257.841732 32.196851 
L 258.085708 28.519136 
L 258.320987 26.62287 
L 258.392871 23.829286 
L 258.564795 24.66815 
L 258.666775 25.975504 
L 258.942595 30.61229 
L 259.079403 29.336624 
L 259.250823 25.251391 
L 259.492765 24.148108 
L 259.566012 22.386246 
L 259.767089 24.517415 
L 259.806089 27.831013 
L 260.109739 35.197959 
L 260.247434 33.867936 
L 260.527667 25.207766 
L 260.806999 18.150594 
L 261.106691 24.463915 
L 261.362128 30.582219 
L 261.80107 14.196028 
L 261.937301 12.888561 
L 262.146407 15.959621 
L 262.213076 21.629932 
L 262.49061 27.768043 
L 263.075055 17.61214 
L 263.210783 20.598981 
L 263.623038 38.730861 
L 263.93259 34.829323 
L 264.209178 23.57513 
L 264.34671 23.875237 
L 264.759511 35.788052 
L 264.901365 33.091381 
L 265.342807 19.645245 
L 265.481524 17.755636 
L 265.767164 25.962449 
L 265.929429 31.109347 
L 266.040302 31.780945 
L 266.205204 29.241682 
L 266.619177 19.337459 
L 266.771633 21.798234 
L 267.049374 35.318373 
L 267.19599 34.780233 
L 267.34146 35.310586 
L 267.619678 26.229096 
L 267.759325 23.992823 
L 267.901901 23.920743 
L 268.167154 29.256462 
L 268.308265 30.253089 
L 268.451369 29.081757 
L 268.607889 29.417182 
L 268.752605 25.140165 
L 268.883732 25.38975 
L 269.02262 25.096248 
L 269.444832 31.788668 
L 269.640716 34.818674 
L 269.887374 32.983132 
L 270.398 23.606738 
L 270.722574 34.687276 
L 271.058135 27.476113 
L 271.298677 20.75431 
L 271.491275 21.992539 
L 271.760495 30.975773 
L 272.159576 26.092743 
L 272.331852 26.014341 
L 272.60746 25.266972 
L 272.881872 26.465422 
L 272.986069 24.781104 
L 273.15791 28.122495 
L 273.328988 27.859936 
L 273.467421 27.972104 
L 273.706599 25.510401 
L 273.845056 22.612412 
L 273.878328 19.573556 
L 274.221631 17.286988 
L 274.361139 18.590235 
L 274.566051 13.408647 
L 274.705853 14.146753 
L 274.875173 13.77031 
L 275.151015 17.329086 
L 275.425718 25.223986 
L 275.599086 26.451927 
L 275.733796 25.741318 
L 275.870831 26.08974 
L 276.179811 26.034816 
L 276.290528 26.59051 
L 276.72875 23.938885 
L 276.866843 22.651667 
L 277.106641 23.026156 
L 277.417141 26.475018 
L 277.554305 25.20204 
L 277.834739 24.386095 
L 277.864206 24.984728 
L 278.001639 24.348836 
L 278.171645 24.604428 
L 278.412027 28.836496 
L 278.551514 28.521057 
L 278.699102 29.309581 
L 278.825974 30.895503 
L 279.059376 31.486738 
L 279.104093 32.383303 
L 279.306117 32.535678 
L 279.560811 33.472749 
L 279.581001 32.012423 
L 279.719073 33.224925 
L 279.855705 30.643284 
L 280.027829 31.190636 
L 280.23449 30.718507 
L 280.26932 28.020576 
L 280.422425 28.015239 
L 280.681708 25.598083 
L 280.968681 25.393122 
L 281.129759 24.299628 
L 281.277637 25.569995 
L 281.759858 20.184268 
L 281.860455 20.385601 
L 282.068421 21.213906 
L 282.101148 22.648995 
L 282.375111 23.343654 
L 282.386981 23.253803 
L 282.557845 24.50948 
L 282.730459 24.435051 
L 282.869986 26.028813 
L 282.969893 25.280919 
L 283.110233 26.65206 
L 283.288339 23.030628 
L 283.382825 23.228677 
L 283.557389 22.016014 
L 283.691261 22.851192 
L 283.931085 20.486618 
L 284.068857 20.759537 
L 284.173737 18.897926 
L 284.243896 19.50995 
L 284.37924 19.651491 
L 284.687499 24.657692 
L 284.970523 30.584365 
L 285.102096 28.070917 
L 285.239555 30.730241 
L 285.419342 31.31311 
L 285.673767 30.996601 
L 285.954984 28.259612 
L 286.087198 29.07927 
L 286.396082 23.912491 
L 286.704561 27.018563 
L 286.9136 24.039308 
L 287.289134 26.176953 
L 287.356982 28.22376 
L 287.529858 27.356712 
L 287.666809 25.127626 
L 287.90635 27.109065 
L 288.009215 26.291131 
L 288.147337 23.536135 
L 288.352826 27.334472 
L 288.494856 27.722412 
L 288.663935 26.899216 
L 288.9381 22.920759 
L 289.074956 25.192629 
L 289.212963 22.528817 
L 289.55799 26.35917 
L 289.659299 25.112874 
L 289.935205 19.490521 
L 290.076991 19.244326 
L 290.211021 19.243895 
L 290.485988 20.973457 
L 290.653139 23.241685 
L 290.871941 23.512582 
L 291.038062 24.28817 
L 291.077581 23.870698 
L 291.309436 24.09289 
L 291.517838 28.710655 
L 291.657999 29.040723 
L 291.758962 29.733877 
L 291.895754 31.702277 
L 292.203503 30.431695 
L 292.342308 28.827302 
L 292.483994 32.114946 
L 292.693869 32.880588 
L 292.928185 30.543798 
L 293.030428 30.361868 
L 293.308744 30.207449 
L 293.338957 26.14317 
L 293.657406 23.711594 
L 293.858209 24.493404 
L 293.99914 20.524324 
L 294.02647 21.830179 
L 294.062174 22.615993 
L 294.196964 20.638815 
L 294.340575 21.691719 
L 294.614098 19.937749 
L 295.057419 25.029623 
L 295.161153 22.851563 
L 295.470412 24.377517 
L 295.745166 28.021163 
L 296.023753 31.060331 
L 296.163452 30.872962 
L 296.307907 29.512339 
L 296.604598 24.501362 
L 296.742308 26.2673 
L 297.0165 20.481232 
L 297.194248 20.325601 
L 297.327072 18.681365 
L 297.602876 20.615471 
L 297.878268 24.241847 
L 298.361736 27.95774 
L 298.567653 28.314182 
L 298.671696 24.452895 
L 298.738654 25.388593 
L 298.874604 23.783812 
L 299.148612 18.337166 
L 299.293428 17.950176 
L 299.72033 13.443757 
L 299.87129 15.778669 
L 300.024507 19.877955 
L 300.251529 21.270928 
L 300.562161 28.97712 
L 300.803057 27.366868 
L 300.875178 28.491365 
L 301.149588 26.661561 
L 301.318209 26.037175 
L 301.455334 26.201072 
L 301.561182 23.323752 
L 301.867813 20.735895 
L 302.006784 18.143604 
L 302.14228 20.591075 
L 302.280506 20.275912 
L 302.418795 22.749298 
L 302.694789 20.541734 
L 302.737987 17.13001 
L 303.551197 24.407621 
L 303.688347 23.915614 
L 303.927739 22.163464 
L 303.996558 19.913006 
L 304.167196 20.615305 
L 304.308095 20.623272 
L 304.546409 21.938239 
L 304.684076 24.723694 
L 304.861945 24.437798 
L 305.131902 20.388527 
L 305.269042 21.050238 
L 305.679752 29.391587 
L 305.855031 29.04301 
L 306.023279 29.059494 
L 306.229147 27.549595 
L 306.263354 27.773429 
L 306.435348 27.810267 
L 306.54305 31.463864 
L 306.690726 32.499773 
L 306.958595 33.128279 
L 307.09387 33.832336 
L 307.294114 34.00755 
L 307.436132 34.336137 
L 307.575651 32.413966 
L 307.674522 32.661565 
L 307.976547 31.803281 
L 307.988072 31.259814 
L 308.260161 33.051714 
L 308.584293 29.989753 
L 308.713551 30.387639 
L 308.879711 28.634058 
L 309.120783 29.202169 
L 309.22368 25.993726 
L 309.295786 27.164778 
L 309.398903 26.864443 
L 309.536736 24.119861 
L 309.705983 25.161159 
L 310.022476 23.724073 
L 310.087834 24.726498 
L 310.396723 22.937839 
L 310.532324 26.487519 
L 310.704329 27.225373 
L 310.806693 24.670592 
L 310.978806 24.813384 
L 311.083736 22.993129 
L 311.288702 24.48575 
L 311.390398 27.671713 
L 311.598125 26.923945 
L 311.840861 31.842284 
L 312.043019 30.908184 
L 312.190864 28.248153 
L 312.387752 32.859458 
L 312.665556 30.323932 
L 312.800627 27.199695 
L 313.076199 26.526375 
L 313.349755 21.937088 
L 313.65967 24.009595 
L 313.795781 21.845289 
L 313.967859 23.082293 
L 314.075926 22.82535 
L 314.104544 24.913781 
L 314.311281 23.208798 
L 314.41713 23.412891 
L 314.518606 20.866532 
L 314.654959 25.040631 
L 314.802589 25.382785 
L 314.931225 26.198805 
L 315.171349 25.785932 
L 315.208279 28.483537 
L 315.446658 28.481836 
L 315.521278 27.506068 
L 315.653005 27.991007 
L 315.788896 25.600245 
L 315.960788 26.884311 
L 316.065506 26.133968 
L 316.200149 28.85371 
L 316.338205 28.598137 
L 316.490262 27.693039 
L 316.771341 23.503775 
L 317.047863 25.498187 
L 317.072962 22.698291 
L 317.208842 22.551339 
L 317.352564 24.522517 
L 317.529236 22.766809 
L 317.627787 19.894424 
L 317.85296 17.951043 
L 317.936574 19.482209 
L 318.176091 21.236135 
L 318.213085 23.70161 
L 318.555405 27.493208 
L 318.663576 29.208415 
L 318.867137 26.703914 
L 318.904583 28.1809 
L 319.081188 27.207545 
L 319.18499 29.251979 
L 319.319352 28.875546 
L 319.453396 28.99456 
L 319.623407 29.540205 
L 319.746999 29.205449 
L 319.949782 30.624897 
L 320.203622 28.278383 
L 320.348628 25.652648 
L 320.50049 29.633467 
L 320.813606 29.681574 
L 320.891695 27.742335 
L 321.057095 29.000772 
L 321.323982 24.60902 
L 321.46128 26.874193 
L 321.607252 26.728679 
L 321.771032 29.00868 
L 322.045166 28.237243 
L 322.184153 27.518384 
L 322.355334 27.753041 
L 322.664498 21.307183 
L 323.006678 18.18827 
L 323.121165 18.384714 
L 323.31957 13.147176 
L 323.454108 13.572953 
L 323.591022 14.591217 
L 323.729873 13.10274 
L 324.175644 18.605929 
L 324.312113 18.640396 
L 324.449549 19.11624 
L 324.724019 23.030456 
L 324.87107 22.686076 
L 325.004951 24.44601 
L 325.153313 23.730423 
L 325.423212 26.686731 
L 325.594099 26.788404 
L 325.727281 27.010241 
L 325.865794 25.569703 
L 325.92991 26.771243 
L 326.00213 31.575123 
L 326.141737 31.257542 
L 326.280456 33.322165 
L 326.417753 31.035733 
L 326.586593 33.270667 
L 326.724076 32.993966 
L 326.863224 33.33449 
L 327.000994 32.624402 
L 327.332143 37.003866 
L 327.421794 30.87267 
L 327.720454 28.250901 
L 327.861591 29.754708 
L 328.133155 29.093885 
L 328.271455 27.067416 
L 328.40817 27.051091 
L 328.442331 30.008274 
L 328.553338 26.693102 
L 328.718617 26.06142 
L 328.902864 27.907051 
L 328.991761 32.014173 
L 329.129709 31.129297 
L 329.412339 28.361256 
L 329.541983 28.475505 
L 329.988908 25.555046 
L 330.126384 25.363262 
L 330.26304 24.702497 
L 330.53886 19.371452 
L 330.743977 20.390101 
L 330.847058 19.848247 
L 331.089683 23.009809 
L 331.296054 22.166953 
L 331.398615 20.070501 
L 331.811199 17.911394 
L 331.965144 18.925648 
L 332.117614 18.790341 
L 332.27828 19.719054 
L 332.403801 18.779977 
L 332.564125 19.058824 
L 332.942326 16.680479 
L 333.125997 17.841341 
L 333.254504 16.2447 
L 333.391037 16.72642 
L 333.597946 16.487944 
L 333.700703 18.831043 
L 333.844818 17.862638 
L 334.80295 29.598726 
L 334.938626 29.681721 
L 335.076627 26.947603 
L 335.256273 25.960699 
L 335.388035 27.515968 
L 335.526551 27.107961 
L 335.786643 28.350128 
L 335.948338 30.648317 
L 336.38404 29.751109 
L 336.554637 30.581511 
L 336.721179 29.417179 
L 336.824449 27.1889 
L 336.935616 29.247451 
L 337.133176 28.242063 
L 337.20761 26.847997 
L 337.378911 26.167079 
L 337.6494 22.983245 
L 337.786925 21.883082 
L 337.962529 23.383496 
L 338.074446 25.596057 
L 338.507887 22.687616 
L 338.74961 21.050808 
L 338.889101 18.138626 
L 338.962432 21.466269 
L 339.09423 22.373756 
L 339.40186 27.011238 
L 339.471225 26.765136 
L 339.524074 26.468447 
L 339.677746 27.029365 
L 339.848179 25.949121 
L 339.921469 26.003857 
L 340.321895 27.140385 
L 340.508004 26.680082 
L 340.788705 22.078203 
L 341.020655 22.134114 
L 341.197012 22.812491 
L 341.226441 21.120381 
L 341.329556 25.156358 
L 341.674716 28.470228 
L 341.813185 29.127369 
L 342.343865 26.924597 
L 342.769088 28.351493 
L 342.920213 24.022146 
L 343.064614 25.360244 
L 343.333505 23.826863 
L 343.471138 24.639141 
L 343.676072 24.400734 
L 343.882025 26.80834 
L 344.020255 24.954226 
L 344.12422 25.361563 
L 344.191388 25.241195 
L 344.435495 25.99759 
L 344.500455 25.332093 
L 344.639517 25.221085 
L 344.749588 26.248673 
L 344.91274 23.561307 
L 345.050351 25.260902 
L 345.188709 23.151401 
L 345.326033 24.473637 
L 345.4648 22.598845 
L 345.73918 23.475266 
L 345.841024 22.533798 
L 346.048399 24.949051 
L 346.433748 31.439658 
L 346.547267 28.546399 
L 346.605087 28.558545 
L 346.777714 26.319652 
L 346.982299 28.119016 
L 347.053269 25.02754 
L 347.15508 28.779676 
L 347.328165 28.887106 
L 347.498499 28.643495 
L 347.739702 20.804845 
L 347.925305 20.478636 
L 348.221755 21.919426 
L 348.600748 19.579402 
L 348.910902 14.164014 
L 349.013535 12.240821 
L 349.149132 14.01584 
L 349.356587 14.455285 
L 349.463501 13.404602 
L 349.626148 14.834568 
L 349.87339 19.690675 
L 350.008783 18.601489 
L 350.284043 21.953293 
L 350.433925 25.708054 
L 350.73103 25.919731 
L 350.909511 28.601151 
L 351.013145 24.09104 
L 351.298793 21.981719 
L 351.437936 19.694184 
L 351.865395 27.886656 
L 352.070797 26.943905 
L 352.340701 29.68456 
L 352.380277 29.248678 
L 352.587276 34.475404 
L 352.760587 36.827407 
L 353.137375 27.836784 
L 353.308624 28.409587 
L 353.417003 28.179949 
L 353.722088 30.605381 
L 353.965139 33.285604 
L 354.423978 26.389643 
L 354.582299 25.956839 
L 354.925604 28.057202 
L 354.995651 27.92297 
L 355.129895 25.466953 
L 355.267492 25.044729 
L 355.752178 34.071297 
L 355.851738 31.264929 
L 355.988111 31.223616 
L 356.23364 29.722339 
L 356.675539 33.533766 
L 357.263954 25.578218 
L 357.539426 30.366257 
L 358.015374 23.199091 
L 358.291675 23.179615 
L 358.53097 20.809861 
L 358.639392 23.01813 
L 358.701838 22.274916 
L 359.120972 17.875413 
L 359.376477 16.372998 
L 359.433291 17.41007 
L 359.736252 15.702227 
L 360.116349 24.49633 
L 360.289087 25.430807 
L 360.425552 27.219288 
L 360.528654 26.168192 
L 360.670719 26.712622 
L 360.808238 24.489711 
L 361.093013 28.352385 
L 361.803675 19.295209 
L 361.941055 21.054254 
L 362.079819 19.735029 
L 362.251306 21.074775 
L 362.357401 18.99311 
L 362.661609 19.619105 
L 362.798405 22.178359 
L 362.970336 21.869572 
L 363.073582 22.759148 
L 363.222101 22.40361 
L 363.385239 21.198283 
L 363.793378 23.922671 
L 364.101667 23.740241 
L 364.239996 19.618972 
L 364.412434 19.732538 
L 364.619566 18.533095 
L 364.657329 20.394136 
L 364.788717 19.416852 
L 365.002063 20.755534 
L 365.064539 23.521711 
L 365.374527 22.553501 
L 365.682853 24.738348 
L 365.83015 23.825446 
L 365.9576 25.40457 
L 366.165093 25.18064 
L 366.250958 25.329415 
L 366.350325 25.151908 
L 366.511458 21.019398 
L 366.683765 20.257393 
L 366.924218 16.709328 
L 367.404353 18.811828 
L 367.54574 17.715531 
L 367.654755 17.985142 
L 367.890007 18.001335 
L 368.061004 21.376936 
L 368.196853 25.280084 
L 368.437515 27.581132 
L 368.575222 26.736816 
L 368.780189 21.603898 
L 368.919182 23.587222 
L 369.059706 22.930782 
L 369.194186 23.40277 
L 369.328978 21.623934 
L 369.508713 20.889202 
L 369.6041 16.661758 
L 369.919849 13.61527 
L 370.08658 13.596404 
L 370.189248 14.936086 
L 370.360224 13.218018 
L 370.478241 15.156335 
L 370.816552 16.301606 
L 371.048253 18.797945 
L 371.391351 21.963589 
L 371.514287 22.856391 
L 371.769987 29.40263 
L 371.907872 29.182049 
L 372.078443 28.349301 
L 372.181108 29.37027 
L 372.32136 27.792132 
L 372.457234 28.142164 
L 372.902236 31.068127 
L 373.016413 28.807205 
L 373.178114 28.135396 
L 373.63016 22.605281 
L 373.901694 22.692789 
L 373.968276 21.476922 
L 374.040163 22.062754 
L 374.519187 18.005417 
L 374.620874 17.880777 
L 374.89803 19.09105 
L 375.007584 17.914434 
L 375.169317 18.959167 
L 375.308646 19.068638 
L 375.444887 17.630447 
L 375.892352 19.727661 
L 376.015212 19.262537 
L 376.166962 19.501566 
L 376.304513 20.324233 
L 376.852705 25.825112 
L 377.143724 24.239146 
L 377.300324 24.938553 
L 377.436746 23.565716 
L 377.816716 25.656537 
L 377.84965 26.57451 
L 378.297229 23.094621 
L 378.607954 26.511322 
L 378.733399 26.850073 
L 378.916716 28.679788 
L 379.4114 24.396411 
L 379.569103 25.64917 
L 379.741767 25.46284 
L 380.015366 22.579103 
L 380.255692 23.333005 
L 380.369157 20.921005 
L 380.531483 20.945161 
L 380.565015 19.998312 
L 380.704159 19.990799 
L 380.840654 21.793198 
L 380.977487 19.603495 
L 381.115728 20.922604 
L 381.252363 19.025641 
L 381.400368 21.632586 
L 381.563032 20.657266 
L 381.699956 26.150892 
L 381.839148 27.19767 
L 382.146582 27.264439 
L 382.288243 27.903115 
L 382.560213 26.62537 
L 382.798492 28.110873 
L 383.006574 25.427176 
L 383.14719 22.29305 
L 383.385632 24.175498 
L 383.555757 24.520547 
L 383.69402 23.169009 
L 383.865631 23.943432 
L 384.107445 23.056738 
L 384.380788 22.354275 
L 384.449671 24.976293 
L 384.829038 20.71768 
L 384.968384 21.822479 
L 385.174769 22.026687 
L 385.291102 23.468388 
L 385.379869 23.176395 
L 385.555151 23.25549 
L 385.696255 23.611382 
L 385.834933 21.840407 
L 386.106808 23.133965 
L 386.412459 23.507152 
L 386.538717 23.118749 
L 386.69148 21.461558 
L 386.7981 22.848293 
L 386.969496 22.844399 
L 387.104501 24.137644 
L 387.260704 24.239194 
L 387.527097 25.949617 
L 387.664792 29.478338 
L 387.941986 27.827279 
L 388.250587 28.824675 
L 388.387311 27.042774 
L 388.522876 27.87008 
L 388.763516 28.486397 
L 388.901016 29.671524 
L 388.934955 27.446516 
L 389.107172 24.898502 
L 389.244694 25.328636 
L 389.350722 26.495741 
L 389.520258 25.421901 
L 389.659521 22.23621 
L 389.806884 24.317695 
L 390.244066 16.46631 
L 390.363035 16.883409 
L 390.710311 15.46754 
L 390.900489 13.136093 
L 391.656943 24.696712 
L 391.692005 33.62283 
L 391.797108 26.541152 
L 391.9345 27.228089 
L 392.076026 25.912271 
L 392.207316 29.239907 
L 392.385106 29.179285 
L 392.652727 24.681116 
L 392.758912 27.268831 
L 392.791944 24.486139 
L 392.930501 25.398704 
L 393.073118 22.93079 
L 393.209338 23.110594 
L 393.48359 27.821064 
L 393.655882 27.402721 
L 393.929929 33.431207 
L 394.067595 33.126259 
L 394.205328 32.493867 
L 394.345606 33.066079 
L 394.482684 32.299133 
L 395.101188 25.626986 
L 395.239432 23.959647 
L 395.343212 24.434344 
L 395.513359 23.77202 
L 395.701372 23.581854 
L 395.727504 21.489454 
L 395.76775 22.052459 
L 396.3172 30.431653 
L 396.452586 30.742177 
L 396.623658 29.823643 
L 396.762014 26.987009 
L 396.899498 29.388212 
L 397.037269 28.712647 
L 397.174664 29.462821 
L 397.41484 26.324116 
L 397.482665 23.399272 
L 397.764411 21.303867 
L 397.894503 21.659263 
L 398.482796 25.801043 
L 398.755108 29.748802 
L 398.962539 29.067325 
L 399.038235 30.105039 
L 399.167983 28.987814 
L 399.304133 29.430387 
L 399.450555 28.216262 
L 399.619907 28.20353 
L 399.925532 23.312639 
L 400.232477 19.430419 
L 400.440815 20.161396 
L 400.584176 19.5153 
L 400.723752 20.067453 
L 400.922666 18.632437 
L 401.22848 21.628746 
L 401.400796 22.055336 
L 401.747173 19.320538 
L 401.851952 20.894997 
L 402.06355 20.670459 
L 402.18392 18.651682 
L 402.334002 19.575389 
L 402.503341 17.488698 
L 402.576283 14.521932 
L 402.816577 14.549577 
L 402.862542 16.773985 
L 403.025486 17.191787 
L 403.225312 18.698137 
L 403.303534 15.760079 
L 403.432929 16.037216 
L 403.573436 17.204255 
L 403.708931 20.485887 
L 403.848909 20.82157 
L 404.05975 20.522771 
L 404.16614 23.871044 
L 404.314609 22.749834 
L 404.498812 22.652444 
L 404.708744 25.091526 
L 404.874332 26.734619 
L 404.978291 26.480599 
L 405.284275 23.418652 
L 405.427086 25.444761 
L 405.45504 32.551558 
L 405.595087 22.638057 
L 405.837126 22.998624 
L 406.286887 15.883095 
L 406.417857 16.153152 
L 406.588852 13.288398 
L 406.86518 16.20771 
L 407.245259 19.736161 
L 407.414912 23.936385 
L 407.723712 24.051558 
L 407.829487 23.780242 
L 407.99169 25.673471 
L 408.239781 26.856702 
L 408.549543 25.262737 
L 408.757235 25.1268 
L 408.828855 23.302855 
L 408.967559 29.821153 
L 409.169045 31.320458 
L 409.345501 30.27164 
L 409.409074 30.910166 
L 409.828614 23.422909 
L 409.968107 24.268709 
L 410.207435 24.138574 
L 410.241981 27.311712 
L 410.356963 23.949884 
L 410.418137 18.38713 
L 410.584218 17.910043 
L 410.82489 19.747473 
L 410.963749 17.947196 
L 411.168693 18.700124 
L 411.825063 25.686262 
L 411.972047 25.726144 
L 412.098446 24.31321 
L 412.405286 23.684689 
L 412.542748 27.126302 
L 412.684388 27.837739 
L 413.126651 21.055509 
L 413.234176 23.879897 
L 413.644473 27.223272 
L 413.864517 26.073388 
L 413.971476 23.614937 
L 414.120518 24.671361 
L 414.139643 21.519271 
L 414.248037 22.737451 
L 414.381106 21.6859 
L 414.622215 22.492386 
L 414.827666 18.809068 
L 414.931769 20.674164 
L 415.072924 21.020803 
L 415.377258 16.9191 
L 415.531921 15.6395 
L 415.926923 22.003452 
L 416.373677 18.149088 
L 416.510008 19.306771 
L 417.066605 31.980853 
L 417.201831 29.083968 
L 417.472662 27.022854 
L 417.510937 27.479427 
L 417.649085 27.29512 
L 417.786383 24.682906 
L 417.924714 25.056688 
L 418.232937 21.745543 
L 418.346636 26.591882 
L 418.37625 19.245014 
L 418.510113 17.532546 
L 418.615194 21.362695 
L 418.645089 20.027325 
L 418.87232 20.418015 
L 418.923358 19.017317 
L 419.110289 21.720985 
L 419.268192 20.69352 
L 419.447956 12.852598 
L 419.510716 22.211462 
L 419.784792 21.060559 
L 419.920977 22.784021 
L 420.195349 22.092852 
L 420.505099 22.789292 
L 420.639782 25.064631 
L 420.785437 24.980111 
L 421.087669 26.564741 
L 421.22622 25.894495 
L 421.431734 26.92465 
L 421.499316 24.783701 
L 421.744211 28.600835 
L 421.912467 28.835099 
L 422.084301 26.489799 
L 422.188215 28.251684 
L 422.3258 26.72248 
L 422.49563 27.132848 
L 422.702533 27.327613 
L 422.770873 27.224261 
L 422.990515 27.555805 
L 423.114819 27.095305 
L 423.299072 27.306889 
L 423.321691 26.70545 
L 423.600184 32.591891 
L 423.734507 27.552856 
L 423.907172 26.719403 
L 424.04384 24.511222 
L 424.182202 24.509112 
L 424.352015 25.777552 
L 424.462695 24.250848 
L 424.592404 25.949701 
L 424.76608 25.747513 
L 425.177697 20.712272 
L 425.348884 20.250031 
L 425.457471 23.232847 
L 426.034504 18.579328 
L 426.311859 21.894115 
L 426.588194 27.442705 
L 426.721467 28.649085 
L 426.942342 26.639807 
L 427.197853 27.346403 
L 427.313112 25.530584 
L 427.456117 23.639072 
L 427.588247 19.419335 
L 427.728898 20.340808 
L 427.865987 18.474147 
L 428.00485 19.101012 
L 428.226992 18.941442 
L 428.29006 17.384829 
L 428.422017 17.983075 
L 428.588996 16.895708 
L 429.004091 23.715397 
L 429.142173 22.495713 
L 429.312866 22.743921 
L 429.448861 23.334795 
L 429.690299 25.433364 
L 429.89661 21.810795 
L 430.044096 22.592245 
L 430.314062 19.628911 
L 430.413592 24.115379 
L 430.860216 22.40899 
L 430.996718 20.412107 
L 431.167549 24.934039 
L 431.319727 25.865992 
L 431.410876 24.698916 
L 431.553868 25.172494 
L 431.721599 23.046955 
L 431.857834 19.813362 
L 432.029666 22.365013 
L 432.267696 18.634838 
L 432.439508 19.242954 
L 432.645524 16.522081 
L 432.816939 15.760325 
L 433.197187 25.934033 
L 433.338475 27.102192 
L 433.448261 25.506153 
L 433.648289 26.500956 
L 433.717014 26.309452 
L 433.967545 27.838314 
L 434.167688 27.671015 
L 434.678164 21.752058 
L 435.226566 25.827703 
L 435.33042 21.483911 
L 435.398742 22.797446 
L 435.545824 25.736115 
L 435.697771 25.037782 
L 435.815838 25.901487 
L 435.983951 25.886793 
L 436.110224 28.449497 
L 436.26617 28.916344 
L 436.534571 24.728157 
L 436.674052 28.754854 
L 436.842194 25.842101 
L 437.015505 26.576024 
L 437.120474 26.27343 
L 437.22502 25.452255 
L 437.256512 28.535531 
L 437.39273 28.314499 
L 437.67288 22.74548 
L 437.850805 24.721433 
L 438.122277 26.460664 
L 438.152036 26.18305 
L 438.262609 29.824849 
L 438.367327 26.691359 
L 438.530541 26.799859 
L 438.66907 29.571352 
L 438.849648 27.705569 
L 439.031723 28.329112 
L 439.268637 26.313657 
L 439.374545 25.056795 
L 439.511434 26.588992 
L 439.646767 24.053928 
L 439.822443 24.799303 
L 439.956336 24.497711 
L 440.380619 18.602469 
L 440.643324 21.246444 
L 440.987453 19.506407 
L 441.089282 19.718569 
L 441.333491 18.764883 
L 441.506464 20.6289 
L 441.681914 20.718367 
L 441.784467 24.028639 
L 442.020289 22.962379 
L 442.091621 20.277308 
L 442.295196 21.008433 
L 442.500488 19.620231 
L 442.639535 22.038051 
L 442.776758 21.705572 
L 442.920362 19.596114 
L 443.111827 22.473482 
L 443.194819 21.612358 
L 443.77265 23.991337 
L 443.920209 24.021361 
L 444.084476 23.091457 
L 444.22163 25.356722 
L 444.392053 26.144495 
L 444.632029 21.244519 
L 444.978576 16.576305 
L 445.080501 18.46217 
L 445.493693 14.439066 
L 445.629872 12.379055 
L 445.904927 16.963051 
L 446.05084 16.616717 
L 446.21857 17.976991 
L 446.489825 21.408855 
L 446.663609 21.605137 
L 446.765175 21.510354 
L 446.901786 23.112847 
L 447.080109 23.049555 
L 447.211977 22.570296 
L 447.243476 20.53683 
L 447.450813 22.268728 
L 447.622417 21.676238 
L 447.759551 22.613522 
L 447.932632 21.52886 
L 448.035282 21.582297 
L 448.481427 23.606031 
L 448.622462 25.526794 
L 448.893158 23.111038 
L 449.031141 24.411256 
L 449.203264 23.731249 
L 449.305686 26.913888 
L 449.614035 28.72292 
L 449.754347 27.753026 
L 450.074203 23.528129 
L 450.611183 25.429877 
L 450.747119 20.344623 
L 450.887949 20.286783 
L 451.168811 17.570808 
L 451.335258 20.505296 
L 451.47702 20.76617 
L 451.648504 20.455613 
L 451.753613 21.472869 
L 452.026126 20.86285 
L 452.26795 21.628656 
L 452.370272 19.315996 
L 452.475707 21.421686 
L 452.645907 21.27373 
L 452.719494 20.676776 
L 452.889144 15.797635 
L 453.036554 16.145808 
L 453.195868 16.893111 
L 453.437633 15.551162 
L 453.714084 14.396235 
L 453.884986 14.991405 
L 454.262339 16.151206 
L 454.57671 21.82302 
L 454.710295 22.260758 
L 454.858316 22.330824 
L 454.989725 24.923663 
L 455.430994 25.831742 
L 455.571214 24.842456 
L 455.709135 26.991721 
L 456.321885 28.770988 
L 456.424146 25.891378 
L 456.5723 25.746597 
L 456.80238 26.233198 
L 456.870101 27.760687 
L 457.247869 31.277554 
L 457.316588 31.136043 
L 457.591254 28.08717 
L 457.695398 26.769713 
L 457.831904 27.874912 
L 458.010186 27.624887 
L 458.277763 24.323303 
L 458.519978 24.889613 
L 458.699349 20.756573 
L 458.862036 18.971188 
L 458.999808 20.200276 
L 459.102817 22.994726 
L 459.246016 21.848726 
L 459.413816 23.357261 
L 459.551055 22.244485 
L 459.689021 22.542626 
L 459.828133 18.083972 
L 460.065249 16.986178 
L 460.13482 16.055555 
L 460.270688 17.090524 
L 460.443487 16.258446 
L 460.617876 14.533877 
L 460.68382 15.479878 
L 460.881368 15.456641 
L 460.961445 15.573811 
L 461.107636 16.502945 
L 461.326892 15.744623 
L 461.398133 15.000689 
L 461.428951 16.364361 
L 461.5453 16.498937 
L 461.830288 18.2628 
L 462.125075 14.806543 
L 462.433396 16.234363 
L 462.570413 15.517476 
L 462.676701 16.013459 
L 462.881247 16.276756 
L 462.88158 15.347519 
L 462.954667 16.176547 
L 463.222796 14.104696 
L 463.328493 14.639204 
L 463.39512 15.573495 
L 463.534386 19.179003 
L 463.669227 19.525479 
L 463.807902 20.824783 
L 463.946325 19.906737 
L 464.533125 24.966167 
L 464.666963 22.759346 
L 464.807624 23.707801 
L 465.081166 18.726551 
L 465.217594 16.573741 
L 465.386598 16.784823 
L 465.93705 20.572589 
L 466.224501 17.783149 
L 466.35019 18.951538 
L 466.526741 18.611499 
L 466.65787 18.083311 
L 466.797984 18.562688 
L 466.934318 20.304546 
L 467.071393 19.648146 
L 467.2079 18.019933 
L 467.355687 17.792318 
L 467.62194 20.967176 
L 467.794711 20.100632 
L 468.203988 26.378238 
L 468.344537 24.484246 
L 468.499698 24.476782 
L 468.618097 24.210925 
L 468.788617 23.381255 
L 468.929031 24.647938 
L 469.06755 24.85777 
L 469.200291 27.320454 
L 469.339008 27.587744 
L 469.476391 28.561266 
L 469.617457 28.151713 
L 469.927162 25.668319 
L 470.062457 26.520302 
L 470.342045 23.875131 
L 470.476126 24.688344 
L 470.653695 24.720689 
L 470.956016 19.454163 
L 471.029339 15.399615 
L 471.19663 17.210263 
L 471.370772 16.894055 
L 471.67857 18.274442 
L 471.832374 21.297522 
L 471.894022 18.898516 
L 472.195681 17.386162 
L 472.334413 17.568767 
L 472.469826 18.679712 
L 472.768008 17.597315 
L 472.780434 16.445105 
L 472.915972 19.313757 
L 473.095526 18.834265 
L 473.399309 17.889894 
L 473.60344 17.257277 
L 473.739598 18.213839 
L 473.910955 17.971757 
L 474.015941 18.298963 
L 474.178056 19.703867 
L 474.32511 19.012644 
L 474.633995 15.90261 
L 474.737055 16.817151 
L 474.876928 16.763485 
L 475.219521 15.062754 
L 475.354859 18.689317 
L 475.594411 17.143372 
L 475.70019 17.791644 
L 475.767182 16.876452 
L 476.009634 19.727689 
L 476.17879 18.194385 
L 476.45434 23.917225 
L 476.699733 24.482875 
L 476.7351 22.927964 
L 476.886194 24.073299 
L 477.146906 19.754172 
L 477.313514 21.101524 
L 477.589006 21.470699 
L 477.704681 24.191454 
L 477.865726 19.303975 
L 478.10853 16.558411 
L 478.175113 17.31701 
L 478.325649 15.229979 
L 478.58971 17.732131 
L 479.072664 10.564863 
L 479.137837 13.042374 
L 479.38025 14.138287 
L 479.416274 16.005948 
L 479.620909 14.898435 
L 479.722155 17.599371 
L 479.858951 16.890682 
L 479.998712 17.182156 
L 480.176934 16.969804 
L 480.444368 20.440746 
L 480.548494 18.380658 
L 480.719818 18.582301 
L 480.891866 19.780714 
L 480.994854 21.898001 
L 481.131865 20.729843 
L 481.578157 27.884873 
L 481.82015 25.803447 
L 481.959643 25.826837 
L 482.164883 27.908583 
L 482.300419 24.882311 
L 482.574471 23.310048 
L 483.008794 18.330482 
L 483.158154 18.569015 
L 483.194493 17.778286 
L 483.366044 16.473187 
L 483.5402 14.789694 
L 483.709041 16.360066 
L 483.846347 16.020043 
L 484.397612 19.377173 
L 484.533793 23.779234 
L 484.705491 23.172031 
L 484.876441 23.491974 
L 485.016354 24.66744 
L 485.118858 26.728595 
L 485.256412 26.608202 
L 485.430228 26.798042 
L 485.54328 23.697216 
L 485.886558 25.410201 
L 486.122066 22.479026 
L 486.328476 25.020178 
L 486.394999 24.442766 
L 486.568059 23.977851 
L 486.772284 24.684696 
L 486.951696 24.897531 
L 486.978257 27.508583 
L 487.293541 24.539498 
L 487.494057 24.593936 
L 487.535003 25.650337 
L 487.668902 25.619051 
L 487.80586 24.390117 
L 488.115277 25.393378 
L 488.5272 21.814331 
L 488.679455 19.043588 
L 488.805595 20.952743 
L 489.076296 20.073418 
L 489.286467 19.716413 
L 489.524542 15.039709 
L 489.799651 15.152759 
L 490.075094 17.92448 
L 490.210551 13.410976 
L 490.378167 14.849995 
L 490.514092 13.512094 
L 490.65449 15.435145 
L 490.798431 15.703332 
L 491.371232 18.262213 
L 491.50905 17.150091 
L 491.64542 21.347778 
L 491.919762 19.636236 
L 492.057547 16.854935 
L 492.203085 18.887889 
L 492.365861 17.181097 
L 492.503228 17.50809 
L 492.640819 16.782608 
L 492.783335 19.498188 
L 492.914865 19.315935 
L 493.053878 16.801555 
L 493.192914 16.892989 
L 493.3355 16.512749 
L 493.501736 16.589419 
L 493.638238 15.734904 
L 493.774395 15.915948 
L 494.049636 16.896839 
L 494.191844 14.718429 
L 494.329632 17.090411 
L 494.496754 17.072207 
L 494.77229 14.337202 
L 494.909565 14.70337 
L 495.062194 15.952335 
L 495.188597 18.687233 
L 495.335697 16.993108 
L 495.630336 19.932346 
L 495.772913 17.116112 
L 495.905408 21.040016 
L 496.042897 21.468555 
L 496.320649 24.300149 
L 496.353272 23.893494 
L 496.661625 21.16542 
L 496.765575 21.377346 
L 497.111895 16.239852 
L 497.177891 17.739726 
L 497.321633 15.305427 
L 497.8664 21.382735 
L 498.243953 19.14093 
L 498.345288 18.81373 
L 498.725825 27.117045 
L 498.903717 25.802251 
L 499.067935 26.777704 
L 499.171464 24.16693 
L 499.365065 23.866136 
L 499.445763 23.186906 
L 499.634589 27.014342 
L 499.909199 27.968866 
L 500.322471 20.354506 
L 500.458831 19.647183 
L 500.596768 17.613424 
L 501.146787 22.407133 
L 501.319354 19.907549 
L 501.455535 20.546634 
L 501.90342 16.415118 
L 502.005727 16.268403 
L 502.176185 17.397977 
L 502.519217 12.650705 
L 502.588283 7.850535 
L 502.794873 9.611772 
L 502.897941 8.070199 
L 503.450625 15.583032 
L 503.618303 14.674892 
L 503.860653 17.330664 
L 504.308974 24.93089 
L 504.482949 24.9556 
L 504.596992 27.899622 
L 504.717908 26.110139 
L 504.870154 26.200667 
L 505.010172 25.54142 
L 505.217338 25.966711 
L 505.28921 23.858401 
L 505.430457 23.25756 
L 505.570664 23.689986 
L 505.603366 20.029998 
L 505.730978 19.61872 
L 505.869628 21.477216 
L 506.011203 18.544799 
L 506.144417 19.093531 
L 506.353391 17.96836 
L 506.495564 20.141204 
L 506.592372 19.697225 
L 506.832828 23.261447 
L 507.166662 25.706705 
L 507.35535 25.548107 
L 507.417438 27.592587 
L 507.554259 28.148399 
L 508.004172 25.152919 
L 508.352634 22.013059 
L 508.448361 18.326517 
L 508.588413 17.815811 
L 508.967355 9.810374 
L 509.208792 11.868081 
L 509.29608 10.896878 
L 509.60884 12.958188 
L 509.831459 16.830064 
L 509.977922 17.110069 
L 510.274229 20.743344 
L 510.514328 20.987761 
L 510.60203 20.004286 
L 510.686616 20.563935 
L 510.826979 20.197656 
L 510.966286 18.62029 
L 511.135647 14.54474 
L 511.310751 14.680012 
L 511.411868 13.38036 
L 511.531409 17.457298 
L 511.692025 17.305795 
L 511.973517 18.839645 
L 512.133545 21.23516 
L 512.312101 20.50616 
L 512.413658 21.32705 
L 512.546211 24.601077 
L 512.696993 25.428339 
L 512.823288 27.62526 
L 513.15158 23.605862 
L 513.289494 24.681929 
L 513.47942 24.079021 
L 513.55164 21.610498 
L 513.687338 21.137764 
L 513.827349 21.690079 
L 514.13146 18.180435 
L 514.37185 14.734286 
L 514.818614 17.629105 
L 514.99228 18.189555 
L 515.198224 17.920229 
L 515.266086 19.61297 
L 515.372384 18.45254 
L 515.615086 19.28564 
L 515.681725 22.014049 
L 516.228668 15.926792 
L 516.374269 15.964569 
L 516.538081 16.907518 
L 516.779474 13.65906 
L 516.956625 13.551879 
L 517.054957 15.532556 
L 517.123328 13.911994 
L 517.328884 15.239982 
L 517.397557 18.220937 
L 517.500843 17.127798 
L 517.645593 17.893479 
L 517.778706 17.355516 
L 517.915452 17.373025 
L 517.947916 19.665476 
L 518.086018 18.714537 
L 518.264598 20.88175 
L 518.363436 20.495289 
L 518.533588 23.222805 
L 518.671932 23.498917 
L 518.774097 20.56364 
L 518.980495 22.369934 
L 519.395102 19.289064 
L 519.5407 19.371498 
L 519.707443 19.631921 
L 519.907971 18.293523 
L 520.01331 16.145805 
L 520.250585 14.221803 
L 520.423007 13.98589 
L 520.560397 12.034714 
L 520.66539 13.605434 
L 520.839683 12.675694 
L 520.872143 14.469814 
L 521.017636 16.060269 
L 521.156545 14.19687 
L 521.179777 15.000718 
L 521.384888 13.990873 
L 521.626743 19.413001 
L 521.813245 20.77126 
L 522.047406 18.319282 
L 522.485345 15.182651 
L 522.761828 11.7918 
L 522.932274 11.173757 
L 523.197291 9.02672 
L 523.212392 9.612608 
L 523.344982 10.492172 
L 523.481792 14.574722 
L 523.699869 14.504045 
L 523.761771 16.307011 
L 524.031804 14.829504 
L 524.204072 17.276569 
L 524.311422 17.10725 
L 524.482996 15.075709 
L 524.615688 15.799278 
L 524.754014 15.585913 
L 524.891017 15.71645 
L 525.481068 21.957862 
L 525.749789 22.582496 
L 525.862066 22.047737 
L 525.957238 25.434878 
L 526.094924 25.788284 
L 526.471501 21.995941 
L 526.643518 21.126558 
L 526.88894 23.812214 
L 527.157896 23.427673 
L 527.193165 22.843551 
L 527.3307 22.82983 
L 527.501979 23.068308 
L 527.60921 26.428771 
L 527.753394 26.355796 
L 527.89057 27.696004 
L 528.069195 26.692827 
L 528.236283 25.050357 
L 528.342242 21.799899 
L 528.444513 23.458678 
L 528.71877 21.216725 
L 528.990876 19.274796 
L 529.16684 16.663974 
L 529.546321 14.879643 
L 529.787104 18.068333 
L 529.890501 17.418489 
L 530.105036 19.167927 
L 530.300301 18.298661 
L 530.490878 16.596184 
L 530.609215 16.993719 
L 530.748283 19.019544 
L 531.136862 19.918588 
L 531.230292 19.345379 
L 531.410046 15.896422 
L 531.553775 16.357161 
L 531.588745 15.830979 
L 531.78723 17.338714 
L 531.993763 22.141333 
L 532.287253 18.886446 
L 532.406275 19.835523 
L 532.439562 19.047773 
L 532.580733 18.560158 
L 532.739386 21.24506 
L 532.860341 19.583612 
L 532.998533 20.129344 
L 533.202041 19.429422 
L 533.341906 17.392579 
L 533.474381 18.77923 
L 533.474644 17.226665 
L 533.590433 20.094096 
L 533.715304 19.032972 
L 533.88677 19.180325 
L 534.024942 21.072521 
L 534.165118 19.544637 
L 534.438217 25.652201 
L 534.715379 22.891959 
L 534.856477 20.828938 
L 535.09192 20.598945 
L 535.162059 19.679017 
L 535.400548 19.23246 
L 535.53956 17.330494 
L 535.611517 20.015488 
L 535.848278 15.952041 
L 536.194629 16.969003 
L 536.501882 18.700164 
L 536.568946 18.35678 
L 536.845351 20.568162 
L 536.981474 16.616571 
L 537.118073 17.402103 
L 537.256188 17.260555 
L 537.598373 18.174734 
L 537.977844 22.686961 
L 538.161511 22.279017 
L 538.309351 22.874072 
L 538.322074 22.756677 
L 538.537279 25.753005 
L 538.700599 25.421907 
L 538.915782 26.115012 
L 539.044079 25.873274 
L 539.115082 27.13224 
L 539.392392 25.459721 
L 539.660584 24.221043 
L 539.901967 24.573881 
L 540.009124 24.174365 
L 540.145648 26.387321 
L 540.244648 25.957395 
L 540.382395 27.300962 
L 540.622766 26.09728 
L 540.657771 25.309145 
L 540.800068 24.723503 
L 541.001387 25.668451 
L 541.259319 23.667954 
L 541.390871 23.641606 
L 541.65594 20.593851 
L 541.8064 19.043847 
L 541.999527 18.696268 
L 542.243038 21.100011 
L 542.376481 21.465048 
L 542.583123 20.669638 
L 542.730259 23.851566 
L 542.788851 22.336396 
L 542.926178 22.097123 
L 543.106429 19.993347 
L 543.236221 20.154669 
L 543.544022 18.37278 
L 543.647994 18.761972 
L 543.853247 17.314073 
L 543.957424 18.216487 
L 544.127248 16.476886 
L 544.369919 16.911629 
L 544.506508 19.171263 
L 544.642898 18.323759 
L 544.781629 18.641632 
L 545.22868 16.529909 
L 545.365864 16.389952 
L 545.503837 14.996665 
L 545.640308 15.799683 
L 545.778247 17.903364 
L 546.121939 18.624465 
L 546.226124 19.162065 
L 546.470415 21.389099 
L 546.631185 21.777694 
L 546.747094 22.354445 
L 546.887665 21.930246 
L 546.946715 22.857259 
L 547.171196 22.056504 
L 547.327358 19.142288 
L 547.497122 20.359636 
L 547.66866 19.843031 
L 547.771685 20.651371 
L 547.909848 20.236128 
L 548.11709 21.229936 
L 548.18473 20.202964 
L 548.356805 20.421574 
L 548.633142 22.198154 
L 548.838676 21.983685 
L 548.979035 22.344547 
L 549.051747 23.369983 
L 549.491398 20.31398 
L 549.666936 21.001081 
L 549.799797 20.026265 
L 549.909244 17.289225 
L 550.041232 17.389767 
L 550.317907 18.954609 
L 550.454625 18.554716 
L 550.659788 19.553356 
L 550.762324 17.30257 
L 550.937582 17.84903 
L 551.036935 17.771559 
L 551.316913 20.287003 
L 551.452402 22.659623 
L 551.483415 20.750926 
L 551.630236 21.324838 
L 551.830663 20.305877 
L 552.101938 15.230879 
L 552.239955 16.85035 
L 552.480211 13.480939 
L 552.790186 15.618528 
L 553.029983 12.375999 
L 553.281841 10.092117 
L 553.305072 11.369512 
L 553.447641 11.155091 
L 553.593767 9.566868 
L 553.751933 9.977301 
L 553.889526 12.47811 
L 554.029002 9.196927 
L 554.182228 9.395364 
L 554.302354 9.26263 
L 554.438678 9.419084 
L 554.609581 11.486132 
L 554.783322 11.551542 
L 555.056401 15.664175 
L 555.2014 16.993809 
L 555.29976 16.417788 
L 555.434888 18.388877 
L 555.57238 18.654571 
L 555.762393 18.461361 
L 555.951422 18.587405 
L 556.020791 18.124132 
L 556.329583 19.390708 
L 556.431918 20.642189 
L 556.603119 18.992328 
L 556.732956 20.139125 
L 556.869987 19.560238 
L 557.141008 20.45787 
L 557.322937 19.492858 
L 557.444731 19.05486 
L 557.581826 18.006064 
L 557.727225 17.841272 
L 557.859559 14.59154 
L 558.066048 15.142157 
L 558.171831 13.973832 
L 558.346329 15.775904 
L 558.427139 14.71404 
L 558.619672 15.994462 
L 558.721827 17.433447 
L 558.859798 17.575574 
L 559.204412 16.807992 
L 559.412972 19.083251 
L 559.548708 18.665346 
L 559.719312 16.368156 
L 559.994166 18.999294 
L 560.314249 17.611626 
L 560.406356 18.671774 
L 560.544062 17.983228 
L 560.703918 17.961199 
L 560.819637 19.882003 
L 561.130778 22.145926 
L 561.407641 18.329306 
L 561.546219 18.590441 
L 561.687125 19.486113 
L 561.852176 19.481184 
L 561.988936 17.338858 
L 562.124974 19.349583 
L 562.402 17.555833 
L 562.543586 16.014168 
L 562.572169 16.413607 
L 562.675076 19.930953 
L 562.81742 19.607059 
L 562.953829 20.398605 
L 563.122634 20.542824 
L 563.267416 20.273757 
L 563.605211 23.153371 
L 563.674565 20.898181 
L 563.861653 21.286829 
L 563.986245 22.580431 
L 564.260448 19.087479 
L 564.404089 19.798105 
L 564.541607 18.297236 
L 564.672932 20.007258 
L 564.947375 18.663074 
L 565.08759 19.227522 
L 565.36309 21.145098 
L 565.509714 20.775372 
L 565.67114 22.692332 
L 565.807474 21.871405 
L 565.945334 23.238646 
L 565.979532 28.711847 
L 566.08438 24.235609 
L 566.22223 25.771933 
L 566.386976 24.730357 
L 566.531925 24.936432 
L 566.668684 23.845564 
L 566.806014 21.400359 
L 566.978092 23.639762 
L 567.217454 21.366669 
L 567.463221 21.621018 
L 567.769098 18.624564 
L 568.179329 19.794899 
L 568.295952 20.70917 
L 568.387002 19.815548 
L 568.701703 23.642213 
L 568.902511 21.875034 
L 569.072756 21.524435 
L 569.141422 21.728773 
L 569.244018 20.287824 
L 569.417505 19.577358 
L 569.518524 18.147937 
L 569.627546 18.432702 
L 569.965962 15.390759 
L 570.070924 14.163637 
L 570.24329 13.588804 
L 570.409153 14.86763 
L 570.477944 13.093665 
L 570.620985 12.473417 
L 570.754485 13.239099 
L 570.927514 13.233741 
L 571.204293 16.684714 
L 571.511226 18.964845 
L 571.681469 22.493396 
L 571.791664 22.382832 
L 571.889659 25.205569 
L 572.117008 25.860746 
L 572.198357 25.079077 
L 572.384722 26.129202 
L 572.544134 24.048191 
L 572.683003 23.885006 
L 572.817879 24.048104 
L 572.955951 24.996753 
L 573.166829 22.381056 
L 573.332055 21.730003 
L 573.434412 22.79722 
L 573.640741 26.207446 
L 573.779195 24.302164 
L 574.054455 25.504135 
L 574.191671 24.407575 
L 574.404326 21.03887 
L 574.537835 22.444093 
L 574.60646 21.824721 
L 574.747777 21.74492 
L 574.881463 20.375718 
L 575.189418 21.005467 
L 575.333011 20.397776 
L 575.643927 16.989643 
L 575.84003 17.367387 
L 575.919584 16.606441 
L 576.064631 18.403537 
L 576.184908 16.084331 
L 576.390248 15.214432 
L 576.458385 13.754321 
L 576.597781 19.449531 
L 576.908152 19.938914 
L 577.2508 23.085074 
L 577.352646 22.828625 
L 577.595155 18.881849 
L 577.731339 20.198778 
L 577.763629 18.932037 
L 577.905614 20.847726 
L 578.146752 13.632876 
L 578.318576 13.861549 
L 578.732307 12.353266 
L 578.864179 16.62498 
L 579.034753 15.798655 
L 579.147895 16.322205 
L 579.310636 16.061729 
L 579.448732 18.650745 
L 579.625099 18.779807 
L 579.834171 16.573224 
L 580.067846 17.145124 
L 580.204957 18.540118 
L 580.341925 18.132066 
L 580.742909 22.216581 
L 580.90337 19.592771 
L 581.185892 21.373323 
L 581.434276 21.617554 
L 581.686741 20.771893 
L 581.719358 21.234634 
L 581.751956 18.905076 
L 582.164663 12.843763 
L 582.370883 13.437036 
L 582.718859 18.75516 
L 582.853949 19.845731 
L 582.997535 19.863953 
L 583.195874 20.533908 
L 583.37696 20.474951 
L 583.43621 16.673166 
L 583.573107 16.959286 
L 583.951048 14.111586 
L 584.023957 14.879908 
L 584.134079 13.568958 
L 584.265137 8.859153 
L 584.434519 10.699411 
L 584.604187 8.945233 
L 584.708355 10.450775 
L 585.293712 24.449601 
L 585.613545 21.853799 
L 585.717592 24.372246 
L 585.842663 22.23355 
L 586.152164 26.675634 
L 586.669384 20.235458 
L 586.842305 21.809566 
L 587.286202 30.155055 
L 587.526852 30.540394 
L 588.118769 14.246018 
L 588.260803 13.995948 
L 588.843425 3.855784 
L 588.988949 3.395206 
L 589.145996 3.494955 
L 589.536541 11.019039 
L 589.603127 13.980744 
L 589.680834 13.302118 
L 590.010378 16.237524 
L 590.117512 15.545353 
L 590.253277 13.880313 
L 590.392241 14.364409 
L 590.700409 21.336729 
L 590.907728 20.639167 
L 591.000745 21.078166 
L 591.078493 22.342812 
L 591.22745 22.093841 
L 591.52388 22.400628 
L 591.799709 27.706736 
L 592.019955 28.442464 
L 592.245696 25.334615 
L 592.376996 26.696221 
L 592.538239 23.714383 
L 592.709538 23.728589 
L 592.933253 23.42921 
L 593.095435 24.097115 
L 593.233804 23.055093 
L 593.397097 23.216713 
L 593.815867 19.377676 
L 594.006622 19.254879 
L 594.08839 19.603672 
L 594.272047 21.6568 
L 594.364107 25.129516 
L 594.499257 25.237979 
L 594.670258 25.022974 
L 594.945516 16.031954 
L 595.082333 18.984409 
L 595.288573 18.6827 
L 595.358338 21.839047 
L 595.702647 18.257102 
L 595.915403 11.163077 
L 596.04781 9.621114 
L 596.352721 15.803371 
L 596.57254 16.926225 
L 596.667465 16.614361 
L 596.837479 16.466066 
L 596.944727 17.687975 
L 597.076625 16.879706 
L 597.421562 18.02912 
L 597.545512 19.725523 
L 597.659442 22.899493 
L 597.944354 23.15544 
L 598.108362 21.057763 
L 598.215701 16.637307 
L 599.071345 22.226807 
L 599.34657 13.743944 
L 599.628529 15.534193 
L 599.899808 14.128505 
L 600.007316 16.466313 
L 600.141411 16.24077 
L 600.588486 14.123887 
L 600.657432 12.062258 
L 601.002589 12.495292 
L 601.137265 14.240442 
L 601.285755 18.871785 
L 601.34392 12.909372 
L 601.486657 15.704541 
L 601.826208 12.035813 
L 601.928939 14.572481 
L 602.069803 13.753625 
L 602.168572 15.3288 
L 602.418597 15.547879 
L 602.580949 16.315001 
L 602.641171 15.16091 
L 602.798513 16.490419 
L 602.931256 14.622573 
L 603.097986 15.209566 
L 603.615424 22.600187 
L 603.887432 20.745385 
L 604.02625 12.521814 
L 604.02625 12.521814 
" clip-path="url(#pcf9e5519b2)" style="fill: none; stroke: #ff0000; stroke-opacity: 0.7; stroke-width: 1.5; stroke-linecap: square"/>
   </g>
   <g id="patch_3">
    <path d="M 46.02625 277.92 
L 46.02625 0.72 
" style="fill: none; stroke: #000000; stroke-width: 0.8; stroke-linejoin: miter; stroke-linecap: square"/>
   </g>
   <g id="patch_4">
    <path d="M 604.02625 277.92 
L 604.02625 0.72 
" style="fill: none; stroke: #000000; stroke-width: 0.8; stroke-linejoin: miter; stroke-linecap: square"/>
   </g>
   <g id="patch_5">
    <path d="M 46.02625 277.92 
L 604.02625 277.92 
" style="fill: none; stroke: #000000; stroke-width: 0.8; stroke-linejoin: miter; stroke-linecap: square"/>
   </g>
   <g id="patch_6">
    <path d="M 46.02625 0.72 
L 604.02625 0.72 
" style="fill: none; stroke: #000000; stroke-width: 0.8; stroke-linejoin: miter; stroke-linecap: square"/>
   </g>
   <g id="legend_1">
    <g id="patch_7">
     <path d="M 53.02625 272.92 
L 126.795 272.92 
Q 128.795 272.92 128.795 270.92 
L 128.795 242.56375 
Q 128.795 240.56375 126.795 240.56375 
L 53.02625 240.56375 
Q 51.02625 240.56375 51.02625 242.56375 
L 51.02625 270.92 
Q 51.02625 272.92 53.02625 272.92 
z
" style="fill: #ffffff; opacity: 0.8; stroke: #cccccc; stroke-linejoin: miter"/>
    </g>
    <g id="line2d_33">
     <path d="M 55.02625 248.662188 
L 65.02625 248.662188 
L 75.02625 248.662188 
" style="fill: none; stroke: #0000ff; stroke-opacity: 0.7; stroke-width: 1.5; stroke-linecap: square"/>
    </g>
    <g id="text_18">
     <!-- RNEA -->
     <g transform="translate(83.02625 252.162188) scale(0.1 -0.1)">
      <defs>
       <path id="DejaVuSans-52" d="M 2841 2188 
Q 3044 2119 3236 1894 
Q 3428 1669 3622 1275 
L 4263 0 
L 3584 0 
L 2988 1197 
Q 2756 1666 2539 1819 
Q 2322 1972 1947 1972 
L 1259 1972 
L 1259 0 
L 628 0 
L 628 4666 
L 2053 4666 
Q 2853 4666 3247 4331 
Q 3641 3997 3641 3322 
Q 3641 2881 3436 2590 
Q 3231 2300 2841 2188 
z
M 1259 4147 
L 1259 2491 
L 2053 2491 
Q 2509 2491 2742 2702 
Q 2975 2913 2975 3322 
Q 2975 3731 2742 3939 
Q 2509 4147 2053 4147 
L 1259 4147 
z
" transform="scale(0.015625)"/>
       <path id="DejaVuSans-45" d="M 628 4666 
L 3578 4666 
L 3578 4134 
L 1259 4134 
L 1259 2753 
L 3481 2753 
L 3481 2222 
L 1259 2222 
L 1259 531 
L 3634 531 
L 3634 0 
L 628 0 
L 628 4666 
z
" transform="scale(0.015625)"/>
       <path id="DejaVuSans-41" d="M 2188 4044 
L 1331 1722 
L 3047 1722 
L 2188 4044 
z
M 1831 4666 
L 2547 4666 
L 4325 0 
L 3669 0 
L 3244 1197 
L 1141 1197 
L 716 0 
L 50 0 
L 1831 4666 
z
" transform="scale(0.015625)"/>
      </defs>
      <use xlink:href="#DejaVuSans-52"/>
      <use xlink:href="#DejaVuSans-4e" x="69.482422"/>
      <use xlink:href="#DejaVuSans-45" x="144.287109"/>
      <use xlink:href="#DejaVuSans-41" x="207.470703"/>
     </g>
    </g>
    <g id="line2d_34">
     <path d="M 55.02625 263.340313 
L 65.02625 263.340313 
L 75.02625 263.340313 
" style="fill: none; stroke: #ff0000; stroke-opacity: 0.7; stroke-width: 1.5; stroke-linecap: square"/>
    </g>
    <g id="text_19">
     <!-- BURNEA -->
     <g transform="translate(83.02625 266.840313) scale(0.1 -0.1)">
      <defs>
       <path id="DejaVuSans-42" d="M 1259 2228 
L 1259 519 
L 2272 519 
Q 2781 519 3026 730 
Q 3272 941 3272 1375 
Q 3272 1813 3026 2020 
Q 2781 2228 2272 2228 
L 1259 2228 
z
M 1259 4147 
L 1259 2741 
L 2194 2741 
Q 2656 2741 2882 2914 
Q 3109 3088 3109 3444 
Q 3109 3797 2882 3972 
Q 2656 4147 2194 4147 
L 1259 4147 
z
M 628 4666 
L 2241 4666 
Q 2963 4666 3353 4366 
Q 3744 4066 3744 3513 
Q 3744 3084 3544 2831 
Q 3344 2578 2956 2516 
Q 3422 2416 3680 2098 
Q 3938 1781 3938 1306 
Q 3938 681 3513 340 
Q 3088 0 2303 0 
L 628 0 
L 628 4666 
z
" transform="scale(0.015625)"/>
       <path id="DejaVuSans-55" d="M 556 4666 
L 1191 4666 
L 1191 1831 
Q 1191 1081 1462 751 
Q 1734 422 2344 422 
Q 2950 422 3222 751 
Q 3494 1081 3494 1831 
L 3494 4666 
L 4128 4666 
L 4128 1753 
Q 4128 841 3676 375 
Q 3225 -91 2344 -91 
Q 1459 -91 1007 375 
Q 556 841 556 1753 
L 556 4666 
z
" transform="scale(0.015625)"/>
      </defs>
      <use xlink:href="#DejaVuSans-42"/>
      <use xlink:href="#DejaVuSans-55" x="68.603516"/>
      <use xlink:href="#DejaVuSans-52" x="141.796875"/>
      <use xlink:href="#DejaVuSans-4e" x="211.279297"/>
      <use xlink:href="#DejaVuSans-45" x="286.083984"/>
      <use xlink:href="#DejaVuSans-41" x="349.267578"/>
     </g>
    </g>
   </g>
  </g>
 </g>
 <defs>
  <clipPath id="pcf9e5519b2">
   <rect x="46.02625" y="0.72" width="558" height="277.2"/>
  </clipPath>
 </defs>
</svg>
