<?xml version="1.0" encoding="utf-8" standalone="no"?>
<!DOCTYPE svg PUBLIC "-//W3C//DTD SVG 1.1//EN"
  "http://www.w3.org/Graphics/SVG/1.1/DTD/svg11.dtd">
<svg xmlns:xlink="http://www.w3.org/1999/xlink" width="355.43952pt" height="175.43952pt" viewBox="0 0 355.43952 175.43952" xmlns="http://www.w3.org/2000/svg" version="1.1">
 <metadata>
  <rdf:RDF xmlns:dc="http://purl.org/dc/elements/1.1/" xmlns:cc="http://creativecommons.org/ns#" xmlns:rdf="http://www.w3.org/1999/02/22-rdf-syntax-ns#">
   <cc:Work>
    <dc:type rdf:resource="http://purl.org/dc/dcmitype/StillImage"/>
    <dc:date>2023-09-09T18:29:24.246040</dc:date>
    <dc:format>image/svg+xml</dc:format>
    <dc:creator>
     <cc:Agent>
      <dc:title>Matplotlib v3.7.2, https://matplotlib.org/</dc:title>
     </cc:Agent>
    </dc:creator>
   </cc:Work>
  </rdf:RDF>
 </metadata>
 <defs>
  <style type="text/css">*{stroke-linejoin: round; stroke-linecap: butt}</style>
 </defs>
 <g id="figure_1">
  <g id="patch_1">
   <path d="M 0 175.43952 
L 355.43952 175.43952 
L 355.43952 0 
L 0 0 
L 0 175.43952 
z
" style="fill: none"/>
  </g>
  <g id="axes_1">
   <g id="patch_2">
    <path d="M 36.485625 148.36327 
L 354.71952 148.36327 
L 354.71952 0.72 
L 36.485625 0.72 
L 36.485625 148.36327 
z
" style="fill: none"/>
   </g>
   <g id="matplotlib.axis_1">
    <g id="xtick_1">
     <g id="line2d_1">
      <path d="M 36.485625 148.36327 
L 36.485625 0.72 
" clip-path="url(#p85bcb9c786)" style="fill: none; stroke-dasharray: 0.8,1.32; stroke-dashoffset: 0; stroke: #000000; stroke-opacity: 0.5; stroke-width: 0.8"/>
     </g>
     <g id="line2d_2">
      <defs>
       <path id="ma308de57ed" d="M 0 0 
L 0 3.5 
" style="stroke: #000000; stroke-width: 0.8"/>
      </defs>
      <g>
       <use xlink:href="#ma308de57ed" x="36.485625" y="148.36327" style="stroke: #000000; stroke-width: 0.8"/>
      </g>
     </g>
     <g id="text_1">
      <!-- 0 -->
      <g transform="translate(33.304375 162.961707) scale(0.1 -0.1)">
       <defs>
        <path id="DejaVuSans-30" d="M 2034 4250 
Q 1547 4250 1301 3770 
Q 1056 3291 1056 2328 
Q 1056 1369 1301 889 
Q 1547 409 2034 409 
Q 2525 409 2770 889 
Q 3016 1369 3016 2328 
Q 3016 3291 2770 3770 
Q 2525 4250 2034 4250 
z
M 2034 4750 
Q 2819 4750 3233 4129 
Q 3647 3509 3647 2328 
Q 3647 1150 3233 529 
Q 2819 -91 2034 -91 
Q 1250 -91 836 529 
Q 422 1150 422 2328 
Q 422 3509 836 4129 
Q 1250 4750 2034 4750 
z
" transform="scale(0.015625)"/>
       </defs>
       <use xlink:href="#DejaVuSans-30"/>
      </g>
     </g>
    </g>
    <g id="xtick_2">
     <g id="line2d_3">
      <path d="M 85.093173 148.36327 
L 85.093173 0.72 
" clip-path="url(#p85bcb9c786)" style="fill: none; stroke-dasharray: 0.8,1.32; stroke-dashoffset: 0; stroke: #000000; stroke-opacity: 0.5; stroke-width: 0.8"/>
     </g>
     <g id="line2d_4">
      <g>
       <use xlink:href="#ma308de57ed" x="85.093173" y="148.36327" style="stroke: #000000; stroke-width: 0.8"/>
      </g>
     </g>
     <g id="text_2">
      <!-- 5 -->
      <g transform="translate(81.911923 162.961707) scale(0.1 -0.1)">
       <defs>
        <path id="DejaVuSans-35" d="M 691 4666 
L 3169 4666 
L 3169 4134 
L 1269 4134 
L 1269 2991 
Q 1406 3038 1543 3061 
Q 1681 3084 1819 3084 
Q 2600 3084 3056 2656 
Q 3513 2228 3513 1497 
Q 3513 744 3044 326 
Q 2575 -91 1722 -91 
Q 1428 -91 1123 -41 
Q 819 9 494 109 
L 494 744 
Q 775 591 1075 516 
Q 1375 441 1709 441 
Q 2250 441 2565 725 
Q 2881 1009 2881 1497 
Q 2881 1984 2565 2268 
Q 2250 2553 1709 2553 
Q 1456 2553 1204 2497 
Q 953 2441 691 2322 
L 691 4666 
z
" transform="scale(0.015625)"/>
       </defs>
       <use xlink:href="#DejaVuSans-35"/>
      </g>
     </g>
    </g>
    <g id="xtick_3">
     <g id="line2d_5">
      <path d="M 133.70072 148.36327 
L 133.70072 0.72 
" clip-path="url(#p85bcb9c786)" style="fill: none; stroke-dasharray: 0.8,1.32; stroke-dashoffset: 0; stroke: #000000; stroke-opacity: 0.5; stroke-width: 0.8"/>
     </g>
     <g id="line2d_6">
      <g>
       <use xlink:href="#ma308de57ed" x="133.70072" y="148.36327" style="stroke: #000000; stroke-width: 0.8"/>
      </g>
     </g>
     <g id="text_3">
      <!-- 10 -->
      <g transform="translate(127.33822 162.961707) scale(0.1 -0.1)">
       <defs>
        <path id="DejaVuSans-31" d="M 794 531 
L 1825 531 
L 1825 4091 
L 703 3866 
L 703 4441 
L 1819 4666 
L 2450 4666 
L 2450 531 
L 3481 531 
L 3481 0 
L 794 0 
L 794 531 
z
" transform="scale(0.015625)"/>
       </defs>
       <use xlink:href="#DejaVuSans-31"/>
       <use xlink:href="#DejaVuSans-30" x="63.623047"/>
      </g>
     </g>
    </g>
    <g id="xtick_4">
     <g id="line2d_7">
      <path d="M 182.308268 148.36327 
L 182.308268 0.72 
" clip-path="url(#p85bcb9c786)" style="fill: none; stroke-dasharray: 0.8,1.32; stroke-dashoffset: 0; stroke: #000000; stroke-opacity: 0.5; stroke-width: 0.8"/>
     </g>
     <g id="line2d_8">
      <g>
       <use xlink:href="#ma308de57ed" x="182.308268" y="148.36327" style="stroke: #000000; stroke-width: 0.8"/>
      </g>
     </g>
     <g id="text_4">
      <!-- 15 -->
      <g transform="translate(175.945768 162.961707) scale(0.1 -0.1)">
       <use xlink:href="#DejaVuSans-31"/>
       <use xlink:href="#DejaVuSans-35" x="63.623047"/>
      </g>
     </g>
    </g>
    <g id="xtick_5">
     <g id="line2d_9">
      <path d="M 230.915815 148.36327 
L 230.915815 0.72 
" clip-path="url(#p85bcb9c786)" style="fill: none; stroke-dasharray: 0.8,1.32; stroke-dashoffset: 0; stroke: #000000; stroke-opacity: 0.5; stroke-width: 0.8"/>
     </g>
     <g id="line2d_10">
      <g>
       <use xlink:href="#ma308de57ed" x="230.915815" y="148.36327" style="stroke: #000000; stroke-width: 0.8"/>
      </g>
     </g>
     <g id="text_5">
      <!-- 20 -->
      <g transform="translate(224.553315 162.961707) scale(0.1 -0.1)">
       <defs>
        <path id="DejaVuSans-32" d="M 1228 531 
L 3431 531 
L 3431 0 
L 469 0 
L 469 531 
Q 828 903 1448 1529 
Q 2069 2156 2228 2338 
Q 2531 2678 2651 2914 
Q 2772 3150 2772 3378 
Q 2772 3750 2511 3984 
Q 2250 4219 1831 4219 
Q 1534 4219 1204 4116 
Q 875 4013 500 3803 
L 500 4441 
Q 881 4594 1212 4672 
Q 1544 4750 1819 4750 
Q 2544 4750 2975 4387 
Q 3406 4025 3406 3419 
Q 3406 3131 3298 2873 
Q 3191 2616 2906 2266 
Q 2828 2175 2409 1742 
Q 1991 1309 1228 531 
z
" transform="scale(0.015625)"/>
       </defs>
       <use xlink:href="#DejaVuSans-32"/>
       <use xlink:href="#DejaVuSans-30" x="63.623047"/>
      </g>
     </g>
    </g>
    <g id="xtick_6">
     <g id="line2d_11">
      <path d="M 279.523363 148.36327 
L 279.523363 0.72 
" clip-path="url(#p85bcb9c786)" style="fill: none; stroke-dasharray: 0.8,1.32; stroke-dashoffset: 0; stroke: #000000; stroke-opacity: 0.5; stroke-width: 0.8"/>
     </g>
     <g id="line2d_12">
      <g>
       <use xlink:href="#ma308de57ed" x="279.523363" y="148.36327" style="stroke: #000000; stroke-width: 0.8"/>
      </g>
     </g>
     <g id="text_6">
      <!-- 25 -->
      <g transform="translate(273.160863 162.961707) scale(0.1 -0.1)">
       <use xlink:href="#DejaVuSans-32"/>
       <use xlink:href="#DejaVuSans-35" x="63.623047"/>
      </g>
     </g>
    </g>
    <g id="xtick_7">
     <g id="line2d_13">
      <path d="M 328.130911 148.36327 
L 328.130911 0.72 
" clip-path="url(#p85bcb9c786)" style="fill: none; stroke-dasharray: 0.8,1.32; stroke-dashoffset: 0; stroke: #000000; stroke-opacity: 0.5; stroke-width: 0.8"/>
     </g>
     <g id="line2d_14">
      <g>
       <use xlink:href="#ma308de57ed" x="328.130911" y="148.36327" style="stroke: #000000; stroke-width: 0.8"/>
      </g>
     </g>
     <g id="text_7">
      <!-- 30 -->
      <g transform="translate(321.768411 162.961707) scale(0.1 -0.1)">
       <defs>
        <path id="DejaVuSans-33" d="M 2597 2516 
Q 3050 2419 3304 2112 
Q 3559 1806 3559 1356 
Q 3559 666 3084 287 
Q 2609 -91 1734 -91 
Q 1441 -91 1130 -33 
Q 819 25 488 141 
L 488 750 
Q 750 597 1062 519 
Q 1375 441 1716 441 
Q 2309 441 2620 675 
Q 2931 909 2931 1356 
Q 2931 1769 2642 2001 
Q 2353 2234 1838 2234 
L 1294 2234 
L 1294 2753 
L 1863 2753 
Q 2328 2753 2575 2939 
Q 2822 3125 2822 3475 
Q 2822 3834 2567 4026 
Q 2313 4219 1838 4219 
Q 1578 4219 1281 4162 
Q 984 4106 628 3988 
L 628 4550 
Q 988 4650 1302 4700 
Q 1616 4750 1894 4750 
Q 2613 4750 3031 4423 
Q 3450 4097 3450 3541 
Q 3450 3153 3228 2886 
Q 3006 2619 2597 2516 
z
" transform="scale(0.015625)"/>
       </defs>
       <use xlink:href="#DejaVuSans-33"/>
       <use xlink:href="#DejaVuSans-30" x="63.623047"/>
      </g>
     </g>
    </g>
    <g id="text_8">
     <!-- Zeit [s] -->
     <g transform="translate(177.656479 172.639832) scale(0.1 -0.1)">
      <defs>
       <path id="DejaVuSans-5a" d="M 359 4666 
L 4025 4666 
L 4025 4184 
L 1075 531 
L 4097 531 
L 4097 0 
L 288 0 
L 288 481 
L 3238 4134 
L 359 4134 
L 359 4666 
z
" transform="scale(0.015625)"/>
       <path id="DejaVuSans-65" d="M 3597 1894 
L 3597 1613 
L 953 1613 
Q 991 1019 1311 708 
Q 1631 397 2203 397 
Q 2534 397 2845 478 
Q 3156 559 3463 722 
L 3463 178 
Q 3153 47 2828 -22 
Q 2503 -91 2169 -91 
Q 1331 -91 842 396 
Q 353 884 353 1716 
Q 353 2575 817 3079 
Q 1281 3584 2069 3584 
Q 2775 3584 3186 3129 
Q 3597 2675 3597 1894 
z
M 3022 2063 
Q 3016 2534 2758 2815 
Q 2500 3097 2075 3097 
Q 1594 3097 1305 2825 
Q 1016 2553 972 2059 
L 3022 2063 
z
" transform="scale(0.015625)"/>
       <path id="DejaVuSans-69" d="M 603 3500 
L 1178 3500 
L 1178 0 
L 603 0 
L 603 3500 
z
M 603 4863 
L 1178 4863 
L 1178 4134 
L 603 4134 
L 603 4863 
z
" transform="scale(0.015625)"/>
       <path id="DejaVuSans-74" d="M 1172 4494 
L 1172 3500 
L 2356 3500 
L 2356 3053 
L 1172 3053 
L 1172 1153 
Q 1172 725 1289 603 
Q 1406 481 1766 481 
L 2356 481 
L 2356 0 
L 1766 0 
Q 1100 0 847 248 
Q 594 497 594 1153 
L 594 3053 
L 172 3053 
L 172 3500 
L 594 3500 
L 594 4494 
L 1172 4494 
z
" transform="scale(0.015625)"/>
       <path id="DejaVuSans-20" transform="scale(0.015625)"/>
       <path id="DejaVuSans-5b" d="M 550 4863 
L 1875 4863 
L 1875 4416 
L 1125 4416 
L 1125 -397 
L 1875 -397 
L 1875 -844 
L 550 -844 
L 550 4863 
z
" transform="scale(0.015625)"/>
       <path id="DejaVuSans-73" d="M 2834 3397 
L 2834 2853 
Q 2591 2978 2328 3040 
Q 2066 3103 1784 3103 
Q 1356 3103 1142 2972 
Q 928 2841 928 2578 
Q 928 2378 1081 2264 
Q 1234 2150 1697 2047 
L 1894 2003 
Q 2506 1872 2764 1633 
Q 3022 1394 3022 966 
Q 3022 478 2636 193 
Q 2250 -91 1575 -91 
Q 1294 -91 989 -36 
Q 684 19 347 128 
L 347 722 
Q 666 556 975 473 
Q 1284 391 1588 391 
Q 1994 391 2212 530 
Q 2431 669 2431 922 
Q 2431 1156 2273 1281 
Q 2116 1406 1581 1522 
L 1381 1569 
Q 847 1681 609 1914 
Q 372 2147 372 2553 
Q 372 3047 722 3315 
Q 1072 3584 1716 3584 
Q 2034 3584 2315 3537 
Q 2597 3491 2834 3397 
z
" transform="scale(0.015625)"/>
       <path id="DejaVuSans-5d" d="M 1947 4863 
L 1947 -844 
L 622 -844 
L 622 -397 
L 1369 -397 
L 1369 4416 
L 622 4416 
L 622 4863 
L 1947 4863 
z
" transform="scale(0.015625)"/>
      </defs>
      <use xlink:href="#DejaVuSans-5a"/>
      <use xlink:href="#DejaVuSans-65" x="68.505859"/>
      <use xlink:href="#DejaVuSans-69" x="130.029297"/>
      <use xlink:href="#DejaVuSans-74" x="157.8125"/>
      <use xlink:href="#DejaVuSans-20" x="197.021484"/>
      <use xlink:href="#DejaVuSans-5b" x="228.808594"/>
      <use xlink:href="#DejaVuSans-73" x="267.822266"/>
      <use xlink:href="#DejaVuSans-5d" x="319.921875"/>
     </g>
    </g>
   </g>
   <g id="matplotlib.axis_2">
    <g id="ytick_1">
     <g id="line2d_15">
      <path d="M 36.485625 136.669012 
L 354.71952 136.669012 
" clip-path="url(#p85bcb9c786)" style="fill: none; stroke-dasharray: 0.8,1.32; stroke-dashoffset: 0; stroke: #000000; stroke-opacity: 0.5; stroke-width: 0.8"/>
     </g>
     <g id="line2d_16">
      <defs>
       <path id="m88bd4bbb34" d="M 0 0 
L -3.5 0 
" style="stroke: #000000; stroke-width: 0.8"/>
      </defs>
      <g>
       <use xlink:href="#m88bd4bbb34" x="36.485625" y="136.669012" style="stroke: #000000; stroke-width: 0.8"/>
      </g>
     </g>
     <g id="text_9">
      <!-- 105 -->
      <g transform="translate(10.398125 140.468231) scale(0.1 -0.1)">
       <use xlink:href="#DejaVuSans-31"/>
       <use xlink:href="#DejaVuSans-30" x="63.623047"/>
       <use xlink:href="#DejaVuSans-35" x="127.246094"/>
      </g>
     </g>
    </g>
    <g id="ytick_2">
     <g id="line2d_17">
      <path d="M 36.485625 115.491467 
L 354.71952 115.491467 
" clip-path="url(#p85bcb9c786)" style="fill: none; stroke-dasharray: 0.8,1.32; stroke-dashoffset: 0; stroke: #000000; stroke-opacity: 0.5; stroke-width: 0.8"/>
     </g>
     <g id="line2d_18">
      <g>
       <use xlink:href="#m88bd4bbb34" x="36.485625" y="115.491467" style="stroke: #000000; stroke-width: 0.8"/>
      </g>
     </g>
     <g id="text_10">
      <!-- 110 -->
      <g transform="translate(10.398125 119.290686) scale(0.1 -0.1)">
       <use xlink:href="#DejaVuSans-31"/>
       <use xlink:href="#DejaVuSans-31" x="63.623047"/>
       <use xlink:href="#DejaVuSans-30" x="127.246094"/>
      </g>
     </g>
    </g>
    <g id="ytick_3">
     <g id="line2d_19">
      <path d="M 36.485625 94.313923 
L 354.71952 94.313923 
" clip-path="url(#p85bcb9c786)" style="fill: none; stroke-dasharray: 0.8,1.32; stroke-dashoffset: 0; stroke: #000000; stroke-opacity: 0.5; stroke-width: 0.8"/>
     </g>
     <g id="line2d_20">
      <g>
       <use xlink:href="#m88bd4bbb34" x="36.485625" y="94.313923" style="stroke: #000000; stroke-width: 0.8"/>
      </g>
     </g>
     <g id="text_11">
      <!-- 115 -->
      <g transform="translate(10.398125 98.113141) scale(0.1 -0.1)">
       <use xlink:href="#DejaVuSans-31"/>
       <use xlink:href="#DejaVuSans-31" x="63.623047"/>
       <use xlink:href="#DejaVuSans-35" x="127.246094"/>
      </g>
     </g>
    </g>
    <g id="ytick_4">
     <g id="line2d_21">
      <path d="M 36.485625 73.136378 
L 354.71952 73.136378 
" clip-path="url(#p85bcb9c786)" style="fill: none; stroke-dasharray: 0.8,1.32; stroke-dashoffset: 0; stroke: #000000; stroke-opacity: 0.5; stroke-width: 0.8"/>
     </g>
     <g id="line2d_22">
      <g>
       <use xlink:href="#m88bd4bbb34" x="36.485625" y="73.136378" style="stroke: #000000; stroke-width: 0.8"/>
      </g>
     </g>
     <g id="text_12">
      <!-- 120 -->
      <g transform="translate(10.398125 76.935596) scale(0.1 -0.1)">
       <use xlink:href="#DejaVuSans-31"/>
       <use xlink:href="#DejaVuSans-32" x="63.623047"/>
       <use xlink:href="#DejaVuSans-30" x="127.246094"/>
      </g>
     </g>
    </g>
    <g id="ytick_5">
     <g id="line2d_23">
      <path d="M 36.485625 51.958833 
L 354.71952 51.958833 
" clip-path="url(#p85bcb9c786)" style="fill: none; stroke-dasharray: 0.8,1.32; stroke-dashoffset: 0; stroke: #000000; stroke-opacity: 0.5; stroke-width: 0.8"/>
     </g>
     <g id="line2d_24">
      <g>
       <use xlink:href="#m88bd4bbb34" x="36.485625" y="51.958833" style="stroke: #000000; stroke-width: 0.8"/>
      </g>
     </g>
     <g id="text_13">
      <!-- 125 -->
      <g transform="translate(10.398125 55.758052) scale(0.1 -0.1)">
       <use xlink:href="#DejaVuSans-31"/>
       <use xlink:href="#DejaVuSans-32" x="63.623047"/>
       <use xlink:href="#DejaVuSans-35" x="127.246094"/>
      </g>
     </g>
    </g>
    <g id="ytick_6">
     <g id="line2d_25">
      <path d="M 36.485625 30.781288 
L 354.71952 30.781288 
" clip-path="url(#p85bcb9c786)" style="fill: none; stroke-dasharray: 0.8,1.32; stroke-dashoffset: 0; stroke: #000000; stroke-opacity: 0.5; stroke-width: 0.8"/>
     </g>
     <g id="line2d_26">
      <g>
       <use xlink:href="#m88bd4bbb34" x="36.485625" y="30.781288" style="stroke: #000000; stroke-width: 0.8"/>
      </g>
     </g>
     <g id="text_14">
      <!-- 130 -->
      <g transform="translate(10.398125 34.580507) scale(0.1 -0.1)">
       <use xlink:href="#DejaVuSans-31"/>
       <use xlink:href="#DejaVuSans-33" x="63.623047"/>
       <use xlink:href="#DejaVuSans-30" x="127.246094"/>
      </g>
     </g>
    </g>
    <g id="ytick_7">
     <g id="line2d_27">
      <path d="M 36.485625 9.603743 
L 354.71952 9.603743 
" clip-path="url(#p85bcb9c786)" style="fill: none; stroke-dasharray: 0.8,1.32; stroke-dashoffset: 0; stroke: #000000; stroke-opacity: 0.5; stroke-width: 0.8"/>
     </g>
     <g id="line2d_28">
      <g>
       <use xlink:href="#m88bd4bbb34" x="36.485625" y="9.603743" style="stroke: #000000; stroke-width: 0.8"/>
      </g>
     </g>
     <g id="text_15">
      <!-- 135 -->
      <g transform="translate(10.398125 13.402962) scale(0.1 -0.1)">
       <use xlink:href="#DejaVuSans-31"/>
       <use xlink:href="#DejaVuSans-33" x="63.623047"/>
       <use xlink:href="#DejaVuSans-35" x="127.246094"/>
      </g>
     </g>
    </g>
    <g id="text_16">
     <!-- Kraft [N] -->
     <g transform="translate(8.318438 95.804135) rotate(-90) scale(0.1 -0.1)">
      <defs>
       <path id="DejaVuSans-4b" d="M 628 4666 
L 1259 4666 
L 1259 2694 
L 3353 4666 
L 4166 4666 
L 1850 2491 
L 4331 0 
L 3500 0 
L 1259 2247 
L 1259 0 
L 628 0 
L 628 4666 
z
" transform="scale(0.015625)"/>
       <path id="DejaVuSans-72" d="M 2631 2963 
Q 2534 3019 2420 3045 
Q 2306 3072 2169 3072 
Q 1681 3072 1420 2755 
Q 1159 2438 1159 1844 
L 1159 0 
L 581 0 
L 581 3500 
L 1159 3500 
L 1159 2956 
Q 1341 3275 1631 3429 
Q 1922 3584 2338 3584 
Q 2397 3584 2469 3576 
Q 2541 3569 2628 3553 
L 2631 2963 
z
" transform="scale(0.015625)"/>
       <path id="DejaVuSans-61" d="M 2194 1759 
Q 1497 1759 1228 1600 
Q 959 1441 959 1056 
Q 959 750 1161 570 
Q 1363 391 1709 391 
Q 2188 391 2477 730 
Q 2766 1069 2766 1631 
L 2766 1759 
L 2194 1759 
z
M 3341 1997 
L 3341 0 
L 2766 0 
L 2766 531 
Q 2569 213 2275 61 
Q 1981 -91 1556 -91 
Q 1019 -91 701 211 
Q 384 513 384 1019 
Q 384 1609 779 1909 
Q 1175 2209 1959 2209 
L 2766 2209 
L 2766 2266 
Q 2766 2663 2505 2880 
Q 2244 3097 1772 3097 
Q 1472 3097 1187 3025 
Q 903 2953 641 2809 
L 641 3341 
Q 956 3463 1253 3523 
Q 1550 3584 1831 3584 
Q 2591 3584 2966 3190 
Q 3341 2797 3341 1997 
z
" transform="scale(0.015625)"/>
       <path id="DejaVuSans-66" d="M 2375 4863 
L 2375 4384 
L 1825 4384 
Q 1516 4384 1395 4259 
Q 1275 4134 1275 3809 
L 1275 3500 
L 2222 3500 
L 2222 3053 
L 1275 3053 
L 1275 0 
L 697 0 
L 697 3053 
L 147 3053 
L 147 3500 
L 697 3500 
L 697 3744 
Q 697 4328 969 4595 
Q 1241 4863 1831 4863 
L 2375 4863 
z
" transform="scale(0.015625)"/>
       <path id="DejaVuSans-4e" d="M 628 4666 
L 1478 4666 
L 3547 763 
L 3547 4666 
L 4159 4666 
L 4159 0 
L 3309 0 
L 1241 3903 
L 1241 0 
L 628 0 
L 628 4666 
z
" transform="scale(0.015625)"/>
      </defs>
      <use xlink:href="#DejaVuSans-4b"/>
      <use xlink:href="#DejaVuSans-72" x="65.576172"/>
      <use xlink:href="#DejaVuSans-61" x="106.689453"/>
      <use xlink:href="#DejaVuSans-66" x="167.96875"/>
      <use xlink:href="#DejaVuSans-74" x="201.423828"/>
      <use xlink:href="#DejaVuSans-20" x="240.632812"/>
      <use xlink:href="#DejaVuSans-5b" x="272.419922"/>
      <use xlink:href="#DejaVuSans-4e" x="311.433594"/>
      <use xlink:href="#DejaVuSans-5d" x="386.238281"/>
     </g>
    </g>
   </g>
   <g id="line2d_29">
    <path d="M 36.485625 4.101144 
L 354.71952 4.101144 
L 354.71952 4.101144 
" clip-path="url(#p85bcb9c786)" style="fill: none; stroke: #0000ff; stroke-opacity: 0.5; stroke-width: 2.1; stroke-linecap: square"/>
   </g>
   <g id="line2d_30">
    <path d="M 36.485625 137.075384 
L 36.722133 140.49673 
L 36.825906 140.030726 
L 36.843152 138.030904 
L 36.901148 139.002608 
L 36.981959 138.825874 
L 37.0387 135.650274 
L 37.114979 136.068183 
L 37.193847 136.814457 
L 37.292759 136.410493 
L 37.37751 137.244205 
L 37.467787 135.033228 
L 37.526314 135.20799 
L 37.683187 137.073361 
L 37.762074 136.050195 
L 37.879762 136.876369 
L 38.016607 135.27998 
L 38.09448 136.744459 
L 38.19267 136.351274 
L 38.329638 137.396418 
L 38.524813 134.303542 
L 38.996259 137.796321 
L 39.133255 137.228138 
L 39.155764 136.069902 
L 39.231336 136.824125 
L 39.310606 136.991725 
L 39.548955 138.820297 
L 39.798975 137.133405 
L 40.11396 140.947791 
L 40.192664 140.527955 
L 40.276426 138.83605 
L 40.358399 139.038762 
L 40.448987 140.38699 
L 40.606283 138.912655 
L 40.684483 138.491533 
L 40.763127 138.727331 
L 40.927457 137.088992 
L 41.0032 138.637228 
L 41.409993 135.982864 
L 41.487338 136.18663 
L 41.651211 138.96854 
L 41.823458 137.421613 
L 41.901857 137.824766 
L 42.137641 134.752506 
L 42.294408 136.960295 
L 42.455606 136.149251 
L 42.54976 136.263681 
L 42.707154 133.911506 
L 42.7851 134.449919 
L 42.953874 136.186671 
L 43.023988 135.694339 
L 43.117857 136.300009 
L 43.196444 136.272181 
L 43.368409 134.93797 
L 43.433033 135.639031 
L 43.512664 135.25406 
L 43.669689 136.640307 
L 43.746495 137.305356 
L 43.931016 134.863289 
L 44.001636 133.651642 
L 44.078397 134.130489 
L 44.41528 137.95724 
L 44.491052 137.014719 
L 44.651051 138.651114 
L 45.081382 135.538727 
L 45.375294 138.336713 
L 45.512263 136.489412 
L 45.690012 140.32745 
L 45.785794 143.223135 
L 46.102078 136.855922 
L 46.201909 137.728514 
L 46.262643 138.848584 
L 46.344214 138.67961 
L 46.751251 136.255901 
L 47.009051 137.85089 
L 47.089101 137.650135 
L 47.343248 139.11523 
L 47.404023 138.814144 
L 47.484257 138.607706 
L 47.662511 136.261202 
L 47.809125 136.896485 
L 47.914431 137.149644 
L 48.08234 138.818956 
L 48.250485 134.747252 
L 48.262362 134.467173 
L 48.333467 134.586761 
L 48.420531 136.291823 
L 48.636684 138.565631 
L 48.73415 138.235307 
L 48.890705 136.151554 
L 49.125988 139.321101 
L 49.28485 137.363825 
L 49.361677 136.888724 
L 49.55674 138.620642 
L 49.603147 138.737033 
L 49.713868 138.055762 
L 49.813426 138.178905 
L 49.911719 135.817229 
L 50.098396 139.352331 
L 50.165291 139.091457 
L 50.428358 136.61592 
L 50.830462 141.269614 
L 50.889523 141.039212 
L 51.126183 140.225244 
L 51.281319 138.561837 
L 51.359442 139.214663 
L 51.458122 138.075033 
L 51.693239 133.03178 
L 51.790701 133.51411 
L 52.104421 137.900165 
L 52.182654 137.509288 
L 52.280769 138.010583 
L 52.515838 140.543827 
L 52.593699 140.271843 
L 52.965856 135.749756 
L 53.004745 138.286721 
L 53.071256 138.226292 
L 53.160996 137.006706 
L 53.675324 141.963278 
L 53.730965 141.424848 
L 53.809336 138.978173 
L 53.900768 139.094603 
L 53.966263 140.796835 
L 54.161466 140.270427 
L 54.220843 140.570266 
L 54.376905 138.694008 
L 54.651996 141.204811 
L 54.711432 140.710462 
L 54.789508 138.655653 
L 54.867772 139.058853 
L 54.985154 138.992463 
L 55.161542 139.869553 
L 55.338035 139.294047 
L 55.396735 139.403126 
L 55.455934 139.330871 
L 55.568364 138.881557 
L 55.592983 139.043889 
L 56.009517 140.998374 
L 56.185984 138.654321 
L 56.337148 139.965001 
L 56.475391 139.721591 
L 56.539735 139.284394 
L 56.583858 140.064123 
L 56.583942 139.206268 
L 56.661914 139.645522 
L 56.891302 140.018019 
L 56.927858 139.630977 
L 56.948543 140.524586 
L 57.02546 140.337163 
L 57.116766 139.039639 
L 57.135669 139.442308 
L 57.214251 138.778031 
L 57.307814 139.597741 
L 57.397809 139.557217 
L 57.513393 138.879647 
L 57.626039 139.156753 
L 57.707948 138.901615 
L 57.863873 139.728835 
L 57.980683 138.260489 
L 58.020036 140.804372 
L 58.098944 140.24569 
L 58.353447 133.274573 
L 58.43134 134.751204 
L 58.588334 137.089942 
L 58.705719 136.54125 
L 58.768533 139.000683 
L 58.84413 138.270556 
L 59.024362 136.886218 
L 59.181932 138.289701 
L 59.26015 139.215213 
L 59.316876 139.193375 
L 59.513059 138.945744 
L 59.591536 137.386415 
L 59.651441 137.403479 
L 59.73075 138.39336 
L 59.872873 138.626266 
L 59.964493 140.068931 
L 60.140171 138.828887 
L 60.318207 136.595698 
L 60.39691 136.981299 
L 60.53755 134.638326 
L 60.631774 134.60039 
L 60.866974 133.165536 
L 60.885721 133.578605 
L 61.728095 137.292272 
L 62.185162 137.946078 
L 62.612388 137.534559 
L 62.6297 136.396923 
L 62.707573 137.226901 
L 62.806069 138.373961 
L 62.963632 135.994036 
L 63.257037 142.683901 
L 63.278196 141.011717 
L 63.512803 139.93425 
L 63.531214 138.743806 
L 63.668029 138.005444 
L 63.807902 140.303256 
L 64.080121 137.012867 
L 64.259914 140.215483 
L 64.343131 140.57947 
L 64.492335 139.557858 
L 64.688396 134.409316 
L 64.747668 134.698495 
L 64.844067 136.329924 
L 65.028836 133.681937 
L 65.13835 133.742636 
L 65.236215 136.645837 
L 65.316789 137.591269 
L 65.471731 137.153007 
L 65.687233 134.729248 
L 65.849162 136.189005 
L 65.903019 136.165055 
L 66.006625 135.314408 
L 66.059679 135.747402 
L 66.139072 137.890609 
L 66.212628 136.626045 
L 66.330358 136.259732 
L 66.604684 137.851548 
L 66.780941 137.313944 
L 66.859085 136.807308 
L 66.93776 136.905063 
L 67.113686 137.94177 
L 67.193047 138.423505 
L 67.251459 137.967749 
L 67.427055 138.830177 
L 67.505762 138.711725 
L 67.605812 138.483746 
L 67.75992 136.729113 
L 67.917616 138.309319 
L 68.074582 136.099356 
L 68.231333 133.409716 
L 68.390057 134.576431 
L 68.546743 136.449628 
L 68.721815 134.860193 
L 68.878207 138.994617 
L 69.01439 139.476976 
L 69.033804 140.476218 
L 69.133818 139.66059 
L 69.30083 139.367184 
L 69.301157 139.717975 
L 69.397154 137.876009 
L 69.768486 142.202003 
L 69.962833 144.982126 
L 70.100055 144.581147 
L 70.256776 143.682542 
L 70.511437 139.809858 
L 70.608968 137.76774 
L 70.746031 133.733051 
L 70.96068 134.912582 
L 71.138439 134.241488 
L 71.234333 135.164989 
L 71.317482 134.999918 
L 71.392573 135.421252 
L 71.548605 138.844759 
L 71.630262 139.18979 
L 71.784412 139.336189 
L 71.843204 140.634892 
L 71.886485 140.580077 
L 71.960837 140.257253 
L 72.117262 142.0671 
L 72.196482 142.022803 
L 72.37341 137.536506 
L 72.491766 136.972892 
L 72.510393 138.163153 
L 72.626911 138.341122 
L 72.686071 137.754622 
L 72.765343 138.166577 
L 72.842837 136.868399 
L 72.999253 136.198181 
L 73.118294 139.593232 
L 73.351686 138.128042 
L 73.431038 137.254548 
L 73.489073 137.803227 
L 73.666899 138.487026 
L 73.745892 139.116602 
L 73.861474 137.789193 
L 73.94062 138.070973 
L 73.998806 139.084313 
L 74.081124 138.675316 
L 74.153045 137.589478 
L 74.301387 141.420119 
L 74.481629 139.392289 
L 74.749331 135.862996 
L 74.866315 137.032956 
L 74.964624 136.76334 
L 75.125378 130.897848 
L 75.200596 132.284827 
L 75.279372 133.907505 
L 75.358945 133.872555 
L 75.441438 132.57337 
L 75.517263 133.432304 
L 75.77017 131.494678 
L 75.98584 131.500848 
L 76.005081 134.753257 
L 76.084352 132.275961 
L 76.221503 133.83727 
L 76.338925 136.796748 
L 76.416961 136.815824 
L 76.56613 137.096183 
L 76.653422 140.254052 
L 76.729706 138.629673 
L 76.749152 138.89895 
L 76.875735 139.939684 
L 76.911479 141.687885 
L 77.063598 138.936891 
L 77.143371 137.703343 
L 77.377227 138.092907 
L 77.594066 134.459161 
L 77.633225 134.350134 
L 77.791722 133.399577 
L 77.837812 133.744314 
L 77.869567 133.741208 
L 78.046642 134.930088 
L 78.147214 134.572302 
L 78.191235 133.818026 
L 78.360656 136.715599 
L 78.508278 136.104733 
L 78.673689 133.880419 
L 78.693039 134.618319 
L 78.820562 134.725838 
L 78.863198 134.654486 
L 79.262769 129.869899 
L 79.401845 132.363635 
L 79.497574 132.318549 
L 79.654819 134.904446 
L 79.83466 137.215316 
L 79.913134 137.585076 
L 79.976233 138.700466 
L 80.069397 138.652134 
L 80.226358 140.642154 
L 80.304381 140.066404 
L 80.545271 137.919003 
L 80.560598 140.563893 
L 80.63928 138.194185 
L 80.69897 138.155941 
L 80.817379 137.215294 
L 80.874962 138.35403 
L 81.051727 135.323306 
L 81.114092 135.930089 
L 81.21053 138.468008 
L 81.227215 136.937223 
L 81.365 135.502878 
L 81.602022 138.340745 
L 81.798469 136.259896 
L 81.937694 137.703347 
L 81.993801 135.976448 
L 82.171572 137.17516 
L 82.269076 135.894025 
L 82.351555 136.274107 
L 82.406654 136.339003 
L 82.563871 138.266333 
L 82.705064 138.144283 
L 82.724337 137.903447 
L 82.825355 138.987388 
L 82.90106 138.789266 
L 82.981511 138.337609 
L 83.213647 140.204355 
L 83.704168 135.895731 
L 83.78727 136.245369 
L 83.861121 137.102081 
L 83.959201 136.855312 
L 84.11496 135.001087 
L 84.591565 140.394023 
L 84.745007 137.044973 
L 84.823218 137.218432 
L 84.940388 139.265225 
L 84.999474 138.964891 
L 85.175141 141.089173 
L 85.728068 134.61569 
L 85.951348 132.93039 
L 86.000003 133.311315 
L 86.371748 138.266463 
L 86.629222 139.429736 
L 86.725813 139.20574 
L 86.883347 136.806214 
L 87.019558 137.560239 
L 87.449985 135.776184 
L 87.529721 136.014093 
L 87.587767 136.803729 
L 87.764911 135.019511 
L 87.963851 136.540909 
L 88.165165 135.633845 
L 88.256289 135.10547 
L 88.318297 133.543516 
L 88.394296 133.812151 
L 88.590475 135.028205 
L 88.762111 133.41734 
L 88.894077 136.854742 
L 88.904656 136.579932 
L 88.99809 135.478924 
L 89.082584 135.390053 
L 89.259191 137.828783 
L 89.303644 136.526299 
L 89.474558 138.994294 
L 89.533003 138.977819 
L 89.690145 139.139304 
L 89.751129 138.358781 
L 89.791388 139.635696 
L 89.854044 139.631806 
L 90.027086 139.551875 
L 90.10649 140.409518 
L 90.183122 139.089196 
L 90.261322 139.515362 
L 90.340657 140.105454 
L 90.421253 138.881011 
L 90.518111 138.59117 
L 90.602001 136.939655 
L 90.673521 138.556045 
L 90.751106 138.08196 
L 90.915902 136.548278 
L 90.987474 136.673977 
L 91.077369 136.055211 
L 91.240723 136.37218 
L 91.320815 135.975242 
L 91.396889 137.715314 
L 91.480534 137.460108 
L 91.556454 136.676891 
L 91.808147 139.59637 
L 91.887546 139.38051 
L 91.96507 139.045613 
L 92.042939 140.131306 
L 92.123847 140.0259 
L 92.298259 136.302503 
L 92.455502 138.623333 
L 92.533839 138.590774 
L 92.690621 137.860373 
L 92.768624 138.135398 
L 92.946002 137.488123 
L 93.103295 139.295116 
L 93.18066 138.932545 
L 93.340234 136.687242 
L 93.514066 138.931534 
L 93.82744 140.034186 
L 93.915441 140.826223 
L 94.064078 139.686468 
L 94.143305 139.715844 
L 94.260486 136.947023 
L 94.31724 137.686868 
L 94.39916 139.411559 
L 94.571695 137.250884 
L 94.631965 138.087882 
L 94.718082 136.872844 
L 94.885902 139.08629 
L 94.964344 139.073434 
L 95.044962 139.375822 
L 95.200467 136.728201 
L 95.279506 137.013412 
L 95.378098 138.198504 
L 95.44157 137.947112 
L 95.535732 137.818584 
L 95.612303 136.5449 
L 95.692146 137.134784 
L 95.782774 136.767267 
L 95.789198 138.316592 
L 95.848861 138.055784 
L 96.025672 139.841631 
L 96.26148 137.716688 
L 96.320336 138.306982 
L 96.340535 137.809675 
L 96.420228 137.729599 
L 96.6039 136.470414 
L 96.694561 137.287627 
L 96.752928 137.075128 
L 96.831871 136.343373 
L 96.988185 138.215116 
L 97.06627 136.665423 
L 97.224333 138.15175 
L 97.345509 136.86354 
L 97.403746 137.427988 
L 97.484804 136.957456 
L 97.580998 134.363924 
L 97.639096 134.985656 
L 97.776506 135.021276 
L 97.874452 138.050613 
L 98.051273 137.965405 
L 98.129614 137.490388 
L 98.149342 138.265438 
L 98.386122 137.609102 
L 98.464238 138.326312 
L 98.484282 139.610088 
L 98.544046 138.882379 
L 98.914732 133.811764 
L 99.014004 134.589641 
L 99.112543 134.354665 
L 99.17169 135.736871 
L 99.189445 133.978819 
L 99.268712 133.764602 
L 99.445486 132.624852 
L 99.46456 134.185722 
L 99.5814 134.151493 
L 99.659328 137.400948 
L 99.738574 136.775989 
L 99.816813 138.126059 
L 99.935383 138.112277 
L 100.013833 137.394884 
L 100.032318 139.287608 
L 100.112838 138.133313 
L 100.209408 139.48875 
L 100.267818 138.266989 
L 100.366175 138.557325 
L 100.465553 137.316839 
L 100.582097 137.848149 
L 100.661374 136.561312 
L 100.719447 138.706673 
L 101.126482 135.46217 
L 101.188779 135.975726 
L 101.228333 136.169153 
L 101.365074 135.785642 
L 101.413957 136.010414 
L 101.482392 134.380438 
L 101.561072 133.149896 
L 101.640949 135.027309 
L 101.799966 133.417138 
L 101.85566 135.6966 
L 101.934084 134.893403 
L 102.014806 135.082757 
L 102.157694 135.133694 
L 102.179289 134.320812 
L 102.252534 135.686215 
L 102.426249 134.191666 
L 102.589428 135.777138 
L 102.662267 135.062921 
L 102.900425 137.136317 
L 103.052527 137.59553 
L 103.252214 139.841029 
L 103.329278 138.33534 
L 103.389034 138.682638 
L 103.484858 139.882771 
L 103.544505 138.991417 
L 103.702994 138.586386 
L 103.740597 137.601424 
L 103.954524 139.238603 
L 104.15518 138.515997 
L 104.217606 138.558203 
L 104.365965 136.543066 
L 104.446472 137.571517 
L 104.522863 137.311338 
L 104.567379 137.355356 
L 104.860699 135.300795 
L 105.055203 137.061024 
L 105.153253 137.724672 
L 105.17323 137.284 
L 105.643515 132.452292 
L 105.685098 134.377435 
L 105.840896 132.497233 
L 106.015464 133.648327 
L 106.152902 134.573066 
L 106.237597 133.899745 
L 106.309168 135.138353 
L 106.466778 134.840114 
L 106.642204 136.377881 
L 106.800556 135.79311 
L 106.877605 135.937601 
L 107.171411 139.014327 
L 107.289139 137.644452 
L 107.623517 138.69911 
L 107.704274 139.334362 
L 107.898667 137.993704 
L 107.93727 138.320739 
L 108.015877 137.813129 
L 108.097178 137.849577 
L 108.183126 138.427307 
L 108.389249 137.357424 
L 108.819524 140.098497 
L 109.475099 133.845613 
L 109.702561 133.597651 
L 109.783878 136.476211 
L 109.879542 136.929983 
L 110.046183 135.24079 
L 110.271762 137.191809 
L 110.447405 137.85718 
L 110.605065 136.05674 
L 110.683199 137.239877 
L 110.761166 137.065714 
L 111.173511 134.161166 
L 111.250284 134.175687 
L 111.407964 134.852927 
L 111.486617 133.97827 
L 111.600632 134.259555 
L 111.89712 137.446594 
L 111.979443 136.776914 
L 112.060487 137.043996 
L 112.135147 135.855622 
L 112.387124 137.348427 
L 112.471544 137.752107 
L 112.545248 137.522365 
L 112.62275 135.883814 
L 112.703947 136.024932 
L 112.861013 138.079867 
L 112.964616 138.211424 
L 113.114457 137.774083 
L 113.270911 138.017315 
L 113.36997 136.394091 
L 113.507985 139.327796 
L 113.607596 135.71635 
L 113.784867 136.977238 
L 113.841116 136.183528 
L 113.997838 136.926603 
L 114.083252 135.615578 
L 114.1739 136.636922 
L 114.258444 135.616877 
L 114.453077 137.340864 
L 114.581387 133.760819 
L 114.668952 134.673985 
L 114.805793 132.92611 
L 114.884247 133.397251 
L 115.039894 132.952995 
L 115.078785 134.167463 
L 115.149584 134.063846 
L 115.216547 134.406103 
L 115.450975 137.818318 
L 115.490292 136.805004 
L 115.591452 136.612021 
L 115.70747 138.441994 
L 115.969575 137.240629 
L 116.118789 135.04929 
L 116.196753 135.019942 
L 116.274954 133.94001 
L 116.489766 136.051229 
L 116.533867 135.422085 
L 116.667385 137.238995 
L 116.765412 138.030496 
L 116.844509 139.977018 
L 117.001526 139.135307 
L 117.100636 140.829385 
L 117.237289 139.757508 
L 117.256634 138.245791 
L 117.473758 136.469691 
L 117.648221 133.873487 
L 117.736071 134.212191 
L 117.804792 133.921601 
L 117.885938 132.971264 
L 118.01728 133.632227 
L 118.064875 133.237964 
L 118.139691 134.368383 
L 118.216955 134.299683 
L 118.295683 133.997152 
L 118.491195 134.757027 
L 118.746924 137.50951 
L 118.805394 135.91318 
L 118.86491 136.133663 
L 119.120604 139.220788 
L 119.374153 136.697184 
L 119.495192 135.360882 
L 119.530565 132.716391 
L 119.550037 134.550972 
L 119.648429 135.770911 
L 119.674516 137.714238 
L 119.844248 134.708609 
L 119.926182 134.941911 
L 120.314579 141.593777 
L 120.411666 141.05806 
L 120.489649 139.765537 
L 120.587817 140.089077 
L 120.666216 139.755286 
L 120.844207 140.310961 
L 121.139106 136.14976 
L 121.21925 136.186729 
L 121.334702 136.183504 
L 121.37344 135.099471 
L 121.550476 136.139267 
L 121.726184 134.642318 
L 121.981575 136.419969 
L 122.02285 135.95996 
L 122.19701 138.492304 
L 122.275128 138.020387 
L 122.433669 137.396485 
L 122.522762 138.194892 
L 122.593922 137.720591 
L 122.638326 137.753312 
L 122.700024 137.453887 
L 122.862355 140.755907 
L 122.999242 138.521535 
L 123.11571 140.745347 
L 123.174835 139.90163 
L 123.332357 138.716605 
L 123.43401 139.442265 
L 123.508381 138.612854 
L 123.665336 135.046602 
L 123.744689 135.226952 
L 123.842268 135.951834 
L 124.023917 134.442074 
L 124.061686 135.727022 
L 124.137404 134.341335 
L 124.313535 135.878739 
L 124.498211 134.495149 
L 124.589128 134.448001 
L 124.628097 133.852628 
L 124.810704 135.831279 
L 125.0821 134.129711 
L 125.213074 134.567313 
L 125.441672 136.164808 
L 125.480347 135.796983 
L 125.593858 132.968843 
L 125.74853 132.229387 
L 125.926819 131.83234 
L 126.005124 132.465949 
L 126.082665 132.188648 
L 126.337596 133.095953 
L 126.396257 133.001114 
L 126.751231 135.117423 
L 127.046844 133.813211 
L 127.144414 133.985826 
L 127.499865 139.577416 
L 127.53845 138.526133 
L 127.616591 138.788763 
L 127.715286 140.125716 
L 127.792563 138.847384 
L 127.854171 140.120363 
L 127.989172 140.084717 
L 128.264054 134.579822 
L 128.341969 137.081737 
L 128.424859 136.241292 
L 128.520039 135.273898 
L 128.59751 136.334205 
L 128.762237 135.656192 
L 128.841444 136.27019 
L 128.989416 135.934816 
L 129.028269 136.079541 
L 129.087129 137.797583 
L 129.186707 136.047236 
L 129.247144 136.579224 
L 129.4043 138.26821 
L 129.502815 138.606624 
L 129.560862 138.487479 
L 129.682894 138.684877 
L 129.815637 140.310721 
L 129.952344 140.233324 
L 130.070717 142.405162 
L 130.206798 139.615773 
L 130.285282 139.156549 
L 130.363785 139.986361 
L 130.46179 138.528621 
L 130.559165 138.834665 
L 130.661827 139.5931 
L 130.852236 135.743424 
L 130.931757 136.80033 
L 131.012867 136.735424 
L 131.107828 136.954981 
L 131.200953 136.152998 
L 131.264416 136.980194 
L 131.440468 134.728307 
L 131.519422 134.940482 
L 131.618118 134.783284 
L 131.760385 137.527329 
L 131.871557 137.307977 
L 131.949589 137.302444 
L 132.087219 138.908302 
L 132.189765 138.851355 
L 132.355652 142.182269 
L 132.461237 142.527488 
L 132.479403 141.239996 
L 132.616569 139.709135 
L 132.656342 140.76819 
L 132.734762 140.108927 
L 132.832869 140.265819 
L 132.910891 140.753843 
L 132.98889 140.034637 
L 133.145795 136.699701 
L 133.208586 136.274383 
L 133.442208 137.187708 
L 133.539676 135.396133 
L 133.557317 135.802237 
L 133.695124 133.413443 
L 133.852675 134.835434 
L 134.110028 133.587789 
L 134.185472 133.698745 
L 134.265582 133.572544 
L 134.358731 133.916888 
L 134.436459 134.934152 
L 134.534906 134.853339 
L 134.577584 134.393849 
L 134.848047 138.209063 
L 134.98631 137.346169 
L 135.066241 138.559052 
L 135.082249 138.345911 
L 135.199298 138.202143 
L 135.321485 136.895199 
L 135.336403 137.981122 
L 135.396104 136.661522 
L 135.496632 134.825826 
L 135.594021 135.097207 
L 135.65145 134.889228 
L 135.729272 135.334385 
L 135.905623 134.850204 
L 135.971092 135.613449 
L 136.044524 134.793576 
L 136.223802 136.663539 
L 136.284631 136.852469 
L 136.557901 134.846472 
L 136.637458 136.118152 
L 136.771296 133.747913 
L 136.850653 134.78178 
L 136.948126 134.469766 
L 137.14522 136.266124 
L 137.22244 135.923602 
L 137.379229 136.28249 
L 137.458005 136.834339 
L 137.658546 141.829898 
L 137.910192 138.166237 
L 138.164507 140.855379 
L 138.49992 137.591969 
L 138.557557 138.51963 
L 138.717414 139.640803 
L 138.81797 138.6127 
L 138.831413 139.70968 
L 139.205483 136.159918 
L 139.283809 135.388992 
L 139.420883 135.968317 
L 139.482761 135.159619 
L 139.540313 135.38372 
L 139.736795 137.820509 
L 139.787807 137.313677 
L 139.853398 137.185603 
L 140.048708 137.821855 
L 140.263563 140.71835 
L 140.499432 138.348362 
L 140.577481 138.148806 
L 140.675507 137.319916 
L 140.776038 137.880359 
L 140.832168 137.850161 
L 141.06973 135.078177 
L 141.146275 135.753014 
L 141.227773 135.425606 
L 141.479211 136.968339 
L 141.635836 136.108664 
L 141.831726 136.961374 
L 141.989116 137.772168 
L 142.073101 139.439009 
L 142.539828 137.420111 
L 142.611726 137.060151 
L 142.773634 135.489322 
L 142.852224 134.79157 
L 142.985891 134.601698 
L 143.006398 135.703689 
L 143.096547 134.334537 
L 143.201862 134.450555 
L 143.33947 135.832527 
L 143.419233 134.076071 
L 143.515366 135.118856 
L 143.740176 132.168924 
L 143.848741 132.096314 
L 144.017033 134.543346 
L 144.096297 133.491897 
L 144.134884 134.325943 
L 144.235066 136.152319 
L 144.330292 134.419615 
L 144.409775 134.854473 
L 144.564916 136.887316 
L 144.704276 135.814868 
L 144.880274 138.41241 
L 144.899202 137.677704 
L 144.960608 137.364819 
L 145.039864 137.827162 
L 145.198545 140.016621 
L 145.31195 138.553379 
L 145.434896 140.721883 
L 145.744682 135.912351 
L 145.883655 137.223428 
L 146.000141 137.131276 
L 146.09788 139.5318 
L 146.176667 138.364122 
L 146.333103 136.710628 
L 146.411739 136.739326 
L 146.569157 137.574489 
L 146.648226 137.432219 
L 146.871578 136.654157 
L 146.980694 136.831064 
L 147.156811 141.738733 
L 147.236767 141.374301 
L 147.314149 141.563314 
L 147.415199 140.07246 
L 147.535751 140.505364 
L 147.589402 140.256155 
L 147.901572 133.973715 
L 147.983155 133.899853 
L 148.353343 136.200879 
L 148.432974 136.359737 
L 148.622774 135.191012 
L 148.882658 137.801546 
L 149.039823 135.861069 
L 149.136812 135.917412 
L 149.176395 136.578003 
L 149.333525 136.02074 
L 149.469701 137.150285 
L 149.49513 138.320484 
L 149.606131 137.875264 
L 149.647819 136.811562 
L 149.823738 139.37357 
L 149.902911 138.845251 
L 149.980673 137.794715 
L 150.13859 139.163643 
L 150.306005 137.004184 
L 150.484552 141.019365 
L 150.578985 140.069876 
L 150.736784 138.049305 
L 151.029452 140.791774 
L 151.109871 140.501707 
L 151.284285 135.729487 
L 151.500912 136.953302 
L 151.520672 136.907685 
L 151.599249 137.024903 
L 151.853443 135.218945 
L 152.089693 137.675052 
L 152.171955 137.553943 
L 152.284791 137.858759 
L 152.344066 138.962711 
L 152.422502 138.854673 
L 152.501437 138.273213 
L 152.600168 140.23802 
L 152.814483 137.689756 
L 152.893647 137.492133 
L 153.048609 136.002295 
L 153.16941 135.72947 
L 153.244981 134.575438 
L 153.303492 135.556135 
L 153.42081 133.823035 
L 153.519227 134.194397 
L 153.637951 135.949204 
L 153.740041 135.90445 
L 153.872515 136.781092 
L 153.953282 136.26244 
L 154.02922 136.929973 
L 154.127714 136.819856 
L 154.188209 135.63194 
L 154.266363 135.65052 
L 154.362824 135.73 
L 154.441552 135.465786 
L 154.518845 135.857077 
L 154.838124 133.643935 
L 154.930622 132.976737 
L 155.008292 134.836233 
L 155.149557 135.069722 
L 155.263081 133.622576 
L 155.440889 135.408548 
L 155.496919 137.5296 
L 155.575365 136.515147 
L 155.654531 136.427655 
L 155.732153 137.089108 
L 155.814768 136.269234 
L 155.829575 138.707205 
L 155.908219 137.168675 
L 155.987363 137.176843 
L 156.065041 137.460408 
L 156.163037 137.395739 
L 156.592561 134.234641 
L 156.633678 134.359628 
L 156.790274 133.926436 
L 156.852141 135.158878 
L 156.908064 134.845883 
L 156.966771 133.730171 
L 157.199527 137.014086 
L 157.425602 139.230555 
L 157.600781 137.006897 
L 157.698831 137.229571 
L 157.914295 134.385833 
L 157.992318 134.807087 
L 158.090081 133.552955 
L 158.228063 133.479476 
L 158.269837 132.601626 
L 158.384513 132.872829 
L 158.406756 132.840628 
L 158.502714 132.401433 
L 158.579931 133.120285 
L 158.65846 132.166026 
L 158.739209 133.394583 
L 158.81828 133.227991 
L 159.055176 135.04658 
L 159.370187 139.646181 
L 159.741466 137.325378 
L 159.779488 137.659557 
L 159.897288 138.26405 
L 159.937769 139.367978 
L 160.017001 138.3384 
L 160.09777 138.369549 
L 160.192388 138.282473 
L 160.271085 138.45958 
L 160.427254 139.093562 
L 160.583606 138.737829 
L 160.760147 136.087932 
L 160.839092 136.470132 
L 160.917888 136.079519 
L 160.996325 134.360156 
L 161.1593 135.525994 
L 161.23175 135.61377 
L 161.312651 136.572996 
L 161.407411 135.393788 
L 161.485252 136.557325 
L 161.643522 134.317505 
L 161.806426 136.827088 
L 161.880399 136.488996 
L 161.898968 138.169592 
L 161.9622 136.466168 
L 162.056245 136.338199 
L 162.155889 135.669955 
L 162.214644 136.285279 
L 162.292339 135.74464 
L 162.449557 138.270766 
L 162.621302 137.915677 
L 162.704265 138.931208 
L 162.78354 138.684213 
L 162.942579 138.064 
L 163.095903 140.071089 
L 163.175168 138.23305 
L 163.255645 138.910819 
L 163.509058 137.572308 
L 163.66305 139.102611 
L 163.903843 138.034443 
L 164.075482 139.269696 
L 164.250735 138.338582 
L 164.330183 138.011483 
L 164.447445 138.054087 
L 164.59121 139.254252 
L 164.712793 137.780677 
L 164.885534 136.129217 
L 165.070953 137.274603 
L 165.224492 136.349757 
L 165.28166 136.24352 
L 165.357082 136.418355 
L 165.452093 136.09687 
L 165.550344 134.70397 
L 165.614154 134.744472 
L 165.707527 134.353435 
L 166.119022 130.811256 
L 166.334378 131.133761 
L 166.512185 135.12332 
L 166.904265 139.139539 
L 167.00083 138.73193 
L 167.060181 139.803842 
L 167.158145 138.93079 
L 167.254951 138.945379 
L 167.314812 138.655984 
L 167.413685 138.740613 
L 167.568665 138.398488 
L 167.646973 137.666665 
L 167.890136 138.935909 
L 167.979708 138.522937 
L 168.057946 139.467509 
L 168.136702 138.682868 
L 168.353168 139.206269 
L 168.52877 137.501947 
L 168.688705 138.039824 
L 168.70551 136.621945 
L 168.783889 137.326539 
L 168.880846 137.504499 
L 168.94161 138.127231 
L 169.017939 137.88538 
L 169.097489 137.749753 
L 169.254017 138.637731 
L 169.387129 138.534161 
L 169.412632 136.853073 
L 169.527848 136.610085 
L 169.684618 133.97755 
L 169.763362 134.799737 
L 169.841285 134.812342 
L 170.077174 133.622456 
L 170.260088 136.0613 
L 170.312364 137.789282 
L 170.411044 137.570644 
L 170.476028 138.225095 
L 170.567893 137.892876 
L 170.828254 135.333129 
L 170.984617 135.626244 
L 171.103222 135.376983 
L 171.121887 134.583886 
L 171.284901 136.387352 
L 171.480791 135.423365 
L 171.69738 138.697411 
L 172.165522 134.856894 
L 172.303909 137.400742 
L 172.343921 137.257006 
L 172.42111 136.283881 
L 172.596913 137.113967 
L 172.758325 137.823401 
L 172.833363 137.285093 
L 172.911757 138.291733 
L 173.014292 136.498969 
L 173.243309 137.914007 
L 173.319775 135.955013 
L 173.395178 135.975554 
L 173.492732 135.971889 
L 173.571338 136.122112 
L 173.810118 137.610132 
L 173.866484 136.397394 
L 173.963651 136.415125 
L 174.080656 136.631864 
L 174.217943 138.424432 
L 174.570099 135.667437 
L 174.687292 134.669465 
L 174.768293 133.929322 
L 174.864721 134.648133 
L 174.943278 134.36877 
L 175.259183 136.079736 
L 175.374611 135.734803 
L 175.589741 138.097104 
L 175.670603 137.669623 
L 175.747042 138.36936 
L 175.903859 136.21218 
L 175.999187 137.40874 
L 176.123973 137.046047 
L 176.218713 138.870181 
L 176.241252 137.640713 
L 176.373481 138.594393 
L 176.431169 136.488215 
L 176.492335 136.551292 
L 176.57227 135.830694 
L 176.629851 137.240775 
L 176.707865 136.957024 
L 176.78568 136.298832 
L 176.883378 136.456479 
L 176.96254 134.842667 
L 177.043345 135.309434 
L 177.163039 135.104898 
L 177.296673 137.544481 
L 177.51371 136.510015 
L 177.53094 137.949384 
L 177.827076 138.91141 
L 177.907451 138.263928 
L 178.020272 134.538307 
L 178.102175 132.794631 
L 178.198081 133.581188 
L 178.258168 133.499432 
L 178.335514 133.746555 
L 178.474479 133.028016 
L 178.510999 134.138805 
L 178.57016 134.125758 
L 178.746534 136.252855 
L 178.981716 139.04722 
L 179.224167 138.560422 
L 179.393373 139.052983 
L 179.471911 138.51872 
L 179.55001 138.842345 
L 179.805409 136.274375 
L 179.867162 137.239626 
L 180.119763 135.468808 
L 180.278161 135.654512 
L 180.354705 135.057307 
L 180.512927 137.515321 
L 180.926845 140.210564 
L 181.006235 139.918856 
L 181.170312 140.304936 
L 181.256406 139.352866 
L 181.343787 139.851478 
L 181.650418 137.950901 
L 181.787804 137.967028 
L 181.924406 138.888437 
L 181.985434 138.022035 
L 182.081601 138.135481 
L 182.220171 139.116778 
L 182.395046 139.510776 
L 182.474303 138.027861 
L 182.709278 135.928971 
L 182.86668 137.539063 
L 182.891317 136.213513 
L 182.995953 137.508224 
L 183.073598 137.107764 
L 183.569846 140.480791 
L 183.609095 139.194344 
L 183.706411 139.34582 
L 183.786767 138.176919 
L 183.886783 138.522731 
L 184.001194 139.352907 
L 184.159095 140.602846 
L 184.432791 137.213245 
L 184.669003 136.001272 
L 184.999964 131.862795 
L 185.14561 132.912842 
L 185.298378 133.587258 
L 185.375527 132.120597 
L 185.489729 132.874528 
L 185.650293 134.744233 
L 185.70668 134.672239 
L 185.878929 134.710645 
L 185.885501 134.247498 
L 185.962361 134.377679 
L 186.040677 134.316269 
L 186.225533 136.113293 
L 186.29925 136.315669 
L 186.394013 134.52035 
L 186.531499 134.584482 
L 186.590183 133.947264 
L 186.631306 134.14285 
L 186.865246 135.895615 
L 187.08302 133.720305 
L 187.336518 134.74011 
L 187.492994 134.643755 
L 187.650994 131.978221 
L 187.825888 133.521254 
L 187.944357 133.878987 
L 188.082792 131.810531 
L 188.282402 133.09167 
L 188.316028 132.857465 
L 188.553125 131.098312 
L 188.864895 134.65886 
L 188.943332 135.110776 
L 189.12008 133.607911 
L 189.357475 136.409767 
L 189.373797 135.953149 
L 189.491701 135.851609 
L 189.982208 139.652272 
L 190.00327 140.392948 
L 190.13922 140.829829 
L 190.181776 139.9014 
L 190.256902 139.91082 
L 190.334402 139.805174 
L 190.432434 140.733681 
L 190.568944 138.691793 
L 190.647679 138.649343 
L 190.734399 138.882852 
L 190.894702 138.667948 
L 191.052406 139.051817 
L 191.06672 137.6569 
L 191.144213 138.858948 
L 191.22618 137.889717 
L 191.383143 140.415437 
L 191.511562 139.675741 
L 191.716945 139.430958 
L 191.912174 141.160059 
L 192.089959 140.63459 
L 192.111315 141.412434 
L 192.212034 140.907961 
L 192.271234 141.900717 
L 192.347862 141.268004 
L 192.424309 141.497362 
L 192.591754 140.565443 
L 192.707403 142.043233 
L 192.852171 140.105157 
L 193.101235 134.384447 
L 193.200053 136.13208 
L 193.244588 135.780584 
L 193.338917 136.209353 
L 193.491126 134.789097 
L 193.569429 134.987101 
L 193.652678 135.882093 
L 193.902426 140.234378 
L 193.981691 138.632179 
L 194.255638 141.939634 
L 194.317402 141.330644 
L 194.450787 141.726515 
L 194.51608 140.164758 
L 194.542619 140.37855 
L 194.629233 140.124842 
L 194.784045 140.866326 
L 195.02002 136.578084 
L 195.117462 136.833882 
L 195.195292 137.028843 
L 195.273673 139.877725 
L 195.355778 138.614918 
L 195.430207 139.290533 
L 195.514071 138.569007 
L 195.750668 140.540378 
L 196.081374 135.512156 
L 196.11794 136.098633 
L 196.159128 136.129704 
L 196.238748 135.341967 
L 196.317861 136.097628 
L 196.570863 134.635557 
L 196.65022 135.393567 
L 196.728792 134.744048 
L 197.050776 136.806001 
L 197.2196 134.438502 
L 197.296802 134.483453 
L 197.374476 133.900031 
L 197.550804 137.346881 
L 197.614112 136.843389 
L 197.708373 136.734038 
L 197.813451 135.385226 
L 197.86415 135.784383 
L 198.356279 138.775753 
L 198.432834 137.828593 
L 198.589175 139.547213 
L 198.746478 139.045779 
L 198.863459 137.540384 
L 198.922247 138.8416 
L 198.98599 138.537277 
L 199.060619 137.643115 
L 199.236807 138.91411 
L 199.33288 138.546337 
L 199.472108 137.098098 
L 199.64686 137.64992 
L 199.73849 137.583512 
L 199.810076 137.032329 
L 199.90151 137.630779 
L 200.117203 135.718204 
L 200.373108 137.994595 
L 200.491111 137.534635 
L 200.549714 138.108144 
L 200.785423 136.612878 
L 200.905252 136.661818 
L 200.925089 136.957097 
L 201.118729 136.132114 
L 201.73935 139.407711 
L 201.924298 137.881894 
L 202.011994 138.855383 
L 202.080052 138.42384 
L 202.394623 139.661378 
L 202.549744 139.315346 
L 202.647439 138.335191 
L 202.880134 140.311206 
L 203.115931 139.034982 
L 203.233174 140.319389 
L 203.291307 139.190318 
L 203.429164 140.676522 
L 203.508718 140.635985 
L 203.550539 140.481572 
L 203.625706 138.829348 
L 203.80115 138.813717 
L 204.055691 135.897271 
L 204.193439 134.227226 
L 204.325857 135.011161 
L 204.354945 134.898939 
L 204.518864 133.898986 
L 204.592084 134.818897 
L 204.724368 134.163766 
L 204.769743 134.542268 
L 204.824946 133.980074 
L 204.84173 135.710382 
L 204.900538 135.475417 
L 205.315574 137.74911 
L 205.396608 137.539416 
L 205.47901 140.049071 
L 205.633742 139.696052 
L 205.966618 136.881263 
L 206.043413 136.811992 
L 206.121907 138.386019 
L 206.35624 135.670314 
L 206.435075 135.764827 
L 206.532674 138.609493 
L 206.671891 138.496014 
L 206.851022 141.393446 
L 206.944069 138.686792 
L 207.02255 138.883925 
L 207.179775 138.657858 
L 207.415397 136.158793 
L 207.47348 137.523922 
L 207.540693 137.49297 
L 207.718205 135.492086 
L 207.811518 136.472868 
L 207.876259 135.637343 
L 207.909235 136.913289 
L 208.007686 136.227377 
L 208.194908 136.910995 
L 208.321614 135.906904 
L 208.418758 136.572604 
L 208.66217 139.619948 
L 208.757482 139.180048 
L 208.831239 140.333158 
L 208.889524 139.8831 
L 208.969375 140.11627 
L 209.2828 138.149297 
L 209.632181 141.988799 
L 209.850402 143.029082 
L 209.929043 143.383137 
L 210.092865 141.639877 
L 210.262308 139.955599 
L 210.423201 136.364701 
L 210.58611 137.657943 
L 210.665464 136.677649 
L 210.751441 136.869732 
L 210.815312 136.64645 
L 211.124673 137.174039 
L 211.320946 135.566641 
L 211.419788 135.832471 
L 211.575679 137.490674 
L 211.634674 137.129312 
L 211.73234 137.064574 
L 211.869951 140.408453 
L 211.968143 139.59081 
L 212.106757 139.999449 
L 212.184062 139.537003 
L 212.26239 140.681368 
L 212.458731 139.25488 
L 212.557962 139.550763 
L 212.694471 136.095253 
L 212.771032 137.350437 
L 212.849505 137.457253 
L 212.928839 137.130779 
L 213.026216 135.912042 
L 213.260482 136.993429 
L 213.40051 137.044258 
L 213.497141 136.09959 
L 213.555306 136.747994 
L 213.65253 136.072269 
L 213.849 137.565842 
L 213.910084 137.044231 
L 213.98811 137.423685 
L 214.145215 135.999598 
L 214.260356 137.341833 
L 214.338679 136.356638 
L 214.416654 137.053026 
L 214.518009 135.849962 
L 214.574232 136.768336 
L 214.710704 136.256559 
L 214.88637 137.092777 
L 214.984388 137.36943 
L 215.047189 138.888753 
L 215.192907 139.117665 
L 215.398091 140.917636 
L 215.614864 139.611153 
L 215.791207 140.155408 
L 216.009457 136.108943 
L 216.171868 134.607385 
L 216.282796 135.304188 
L 216.34143 133.949461 
L 216.429767 134.222107 
L 216.499511 134.164611 
L 216.577166 133.921508 
L 216.892962 136.553272 
L 216.987745 136.469903 
L 217.066456 136.101163 
L 217.144472 136.500884 
L 217.242526 135.325839 
L 217.301409 135.707788 
L 217.386111 136.191444 
L 217.479151 135.710797 
L 217.583278 136.115734 
L 217.652788 135.712878 
L 217.711917 136.057189 
L 217.887738 135.153756 
L 218.064972 139.12108 
L 218.183102 139.142854 
L 218.204638 138.952437 
L 218.27957 139.034436 
L 218.436875 139.415831 
L 218.57582 139.317662 
L 218.694707 140.779948 
L 218.873512 138.651 
L 219.113503 137.452077 
L 219.184259 137.102285 
L 219.262069 138.478214 
L 219.360338 138.385409 
L 219.497472 136.412854 
L 219.589715 136.778032 
L 219.67324 136.484249 
L 219.851932 137.427054 
L 219.914105 137.141292 
L 220.126426 134.653857 
L 220.145794 134.810588 
L 220.22327 136.714655 
L 220.360522 136.747255 
L 220.635222 133.649704 
L 220.715365 133.111344 
L 220.79206 134.593586 
L 220.868934 134.493493 
L 220.971439 134.587278 
L 221.02584 134.819024 
L 221.205914 136.7282 
L 221.301003 137.00927 
L 221.359556 137.591884 
L 221.524372 141.079851 
L 221.634465 141.036893 
L 221.717314 141.141199 
L 221.927822 136.903144 
L 222.115241 137.399154 
L 222.339707 133.938602 
L 222.495537 134.578448 
L 222.730541 137.396054 
L 222.829223 136.331117 
L 222.906805 136.829099 
L 222.971921 136.230664 
L 223.064141 136.280834 
L 223.142811 136.425997 
L 223.220489 137.429289 
L 223.321948 136.662856 
L 223.476807 137.083182 
L 223.51478 136.951658 
L 223.555778 136.902447 
L 223.632966 137.39867 
L 223.82897 139.711192 
L 223.886964 139.649098 
L 223.98583 139.79902 
L 224.045029 139.346038 
L 224.107509 139.901355 
L 224.199747 139.770335 
L 224.356908 141.254824 
L 224.495805 140.909532 
L 224.533189 138.850665 
L 224.612102 139.708031 
L 224.682171 140.622511 
L 224.847163 138.371396 
L 224.945352 139.426591 
L 225.003728 138.95819 
L 225.159803 137.027837 
L 225.325775 139.392441 
L 225.415085 138.843019 
L 225.492889 137.446557 
L 225.629894 138.085406 
L 225.807831 136.412264 
L 225.888657 138.482473 
L 226.160842 136.429246 
L 226.456723 140.152466 
L 226.551928 140.651582 
L 226.708997 138.302768 
L 226.807469 138.636752 
L 226.963506 137.373968 
L 227.165277 138.698214 
L 227.276977 138.475272 
L 227.356332 136.849797 
L 227.434176 138.279372 
L 227.512214 137.881397 
L 227.753388 141.076479 
L 227.924247 138.25913 
L 228.003629 138.233065 
L 228.178963 139.818894 
L 228.259753 138.756315 
L 228.414861 139.544155 
L 228.550754 139.170099 
L 228.574945 138.445069 
L 228.669426 138.938401 
L 228.749621 139.692654 
L 228.885607 137.769181 
L 228.982632 138.849819 
L 229.061484 138.544048 
L 229.22076 137.519877 
L 229.297265 138.824872 
L 229.453156 138.389383 
L 229.708799 136.094691 
L 229.905973 134.643371 
L 229.972319 135.09963 
L 230.203383 133.371867 
L 230.379149 134.564441 
L 230.437526 134.472457 
L 230.611842 135.712019 
L 230.683848 136.613676 
L 230.770971 135.961674 
L 231.006522 137.728591 
L 231.095606 137.285458 
L 231.247533 137.895737 
L 231.424992 137.024437 
L 231.484149 138.458025 
L 231.589759 138.32711 
L 231.660148 138.910683 
L 231.738123 138.864446 
L 231.815438 139.080624 
L 231.952677 138.835667 
L 232.050451 139.907228 
L 232.148668 139.74749 
L 232.227099 139.238629 
L 232.287567 137.99528 
L 232.547722 140.184957 
L 232.626702 139.395001 
L 232.698162 139.521871 
L 232.797052 139.231104 
L 232.864901 138.140203 
L 233.171418 140.827429 
L 233.367812 137.204574 
L 233.426383 137.76167 
L 233.602832 136.655285 
L 233.622828 137.686396 
L 233.68277 136.915265 
L 233.916716 134.400462 
L 234.250136 136.838789 
L 234.410494 139.419879 
L 234.488181 139.38048 
L 234.74285 140.703456 
L 234.899143 139.337983 
L 234.977655 140.259507 
L 235.214385 136.505221 
L 235.415659 137.973251 
L 235.567125 136.358372 
L 235.645968 137.271316 
L 235.705154 136.944848 
L 235.909417 134.919951 
L 235.924321 135.726032 
L 235.947274 135.724468 
L 236.103112 136.13304 
L 236.260631 134.059882 
L 236.337844 134.405209 
L 236.592722 132.578425 
L 236.671295 132.849796 
L 236.749653 133.157092 
L 236.886628 132.574292 
L 236.925309 131.54989 
L 237.160185 133.458273 
L 237.33818 132.656323 
L 237.395786 134.234317 
L 237.495696 133.980033 
L 237.572865 133.240765 
L 237.769299 134.154292 
L 237.886466 133.410574 
L 237.964114 133.362647 
L 238.318505 137.970909 
L 238.444885 137.919577 
L 238.493559 137.725308 
L 238.773739 140.795487 
L 239.159865 138.642442 
L 239.222009 138.939091 
L 239.357408 140.159832 
L 239.417165 139.698909 
L 239.537841 140.117543 
L 239.78866 137.061988 
L 239.830259 139.869192 
L 239.967302 139.981379 
L 239.993516 140.511579 
L 240.245019 137.692433 
L 240.318814 138.759102 
L 240.398947 138.72151 
L 240.476221 138.613641 
L 240.556052 139.327312 
L 240.676297 138.58879 
L 240.821647 135.941059 
L 241.046426 137.232122 
L 241.200152 135.14102 
L 241.296167 136.673327 
L 241.374658 136.383395 
L 241.456105 136.147708 
L 241.472047 137.640498 
L 241.551918 137.587967 
L 241.689956 138.314628 
L 241.76598 137.940956 
L 241.865995 136.465256 
L 241.94646 136.306794 
L 242.021153 137.904106 
L 242.118674 137.06183 
L 242.276267 138.445194 
L 242.393663 137.990907 
L 242.668116 141.229518 
L 242.826223 141.421677 
L 243.105256 139.532632 
L 243.15903 139.221532 
L 243.236878 137.503591 
L 243.355328 137.721141 
L 243.475278 135.734896 
L 243.590188 136.856297 
L 243.690823 135.802917 
L 243.727079 136.601112 
L 243.844973 135.80969 
L 243.906331 134.541459 
L 243.966348 134.803973 
L 244.182394 133.463903 
L 244.267672 134.984283 
L 244.30256 134.038968 
L 244.456185 133.56643 
L 244.867563 136.021175 
L 244.946472 137.970893 
L 245.024534 137.645973 
L 245.104946 138.156974 
L 245.188772 136.257642 
L 245.26086 136.581812 
L 245.435854 136.09574 
L 245.670737 138.161338 
L 245.908579 138.762915 
L 246.025118 140.983533 
L 246.26807 139.665712 
L 246.32907 138.275643 
L 246.414071 139.452199 
L 246.424978 138.850728 
L 246.700194 135.577014 
L 246.739261 136.359909 
L 246.817365 134.800782 
L 246.957239 137.263142 
L 247.0406 136.467697 
L 247.130804 137.813935 
L 247.21901 137.162074 
L 247.681999 139.950866 
L 247.776825 139.369823 
L 247.858018 139.900051 
L 247.936581 139.803119 
L 248.034471 140.039703 
L 248.094258 139.861988 
L 248.171379 140.360619 
L 248.325837 140.194928 
L 248.504756 137.081807 
L 248.661512 137.464228 
L 248.759431 136.815446 
L 248.824275 137.757766 
L 248.841164 137.394422 
L 248.977437 135.222816 
L 248.994486 136.165685 
L 249.124079 136.212562 
L 249.153186 135.385118 
L 249.349849 138.53154 
L 249.488163 136.592746 
L 249.998736 138.975946 
L 250.055272 138.591381 
L 250.328633 139.909614 
L 250.387518 139.355223 
L 250.583742 140.824287 
L 250.622285 140.269305 
L 250.683404 140.26934 
L 250.761952 140.680916 
L 250.85791 142.62252 
L 251.648707 135.450967 
L 251.661607 134.090709 
L 251.741228 135.003334 
L 251.837703 136.075066 
L 251.89704 135.116356 
L 252.249212 139.370193 
L 252.312335 139.09759 
L 252.386309 139.592656 
L 252.485358 139.572035 
L 252.686927 137.333146 
L 252.720109 138.886384 
L 252.817738 138.472783 
L 252.957524 136.101978 
L 253.287585 138.931712 
L 253.366934 138.586409 
L 253.46448 139.284705 
L 253.524531 139.10135 
L 253.600539 137.653382 
L 253.726506 138.880873 
L 253.845713 138.113835 
L 253.872227 136.90595 
L 253.937961 137.424432 
L 254.094873 135.839281 
L 254.175088 137.559429 
L 254.253271 137.277856 
L 254.332467 136.579352 
L 254.459157 138.058806 
L 254.495125 137.24022 
L 254.665612 137.676965 
L 254.743514 136.743623 
L 254.902346 137.902234 
L 254.981095 136.281631 
L 255.078443 137.24611 
L 255.156003 136.715538 
L 255.293698 136.661034 
L 255.495472 137.74674 
L 255.590654 137.72913 
L 255.7062 136.79349 
L 255.784276 136.746003 
L 255.865059 135.527839 
L 255.960915 136.672599 
L 256.038764 136.457 
L 256.136191 136.425082 
L 256.22298 136.86312 
L 256.274963 135.038403 
L 256.356513 135.689223 
L 256.452172 135.938472 
L 256.529868 135.259615 
L 256.627866 135.802205 
L 256.763617 137.543676 
L 257.436908 143.293113 
L 257.59018 140.640006 
L 257.733061 138.783936 
L 257.847205 138.208299 
L 257.942462 139.407515 
L 257.982335 138.996656 
L 258.295239 133.167269 
L 258.451096 134.875012 
L 258.719829 132.773461 
L 258.883041 134.815815 
L 259.117822 138.961223 
L 259.197066 138.050317 
L 259.276614 140.420604 
L 259.372507 140.240327 
L 259.471348 140.072163 
L 259.531213 141.589048 
L 259.590837 139.533903 
L 259.608797 140.646675 
L 259.686484 141.160179 
L 259.94773 139.838085 
L 260.102553 140.48881 
L 260.119525 138.764891 
L 260.182586 139.48842 
L 260.242308 140.220842 
L 260.335391 137.679035 
L 260.414395 138.544887 
L 260.621221 137.255279 
L 260.756336 138.506392 
L 260.816736 137.867429 
L 260.894805 138.006535 
L 261.072177 136.693863 
L 261.148539 137.614784 
L 261.313883 137.11285 
L 261.390512 137.266587 
L 261.524506 135.968157 
L 261.618657 138.167353 
L 261.736596 138.160572 
L 261.933946 136.753354 
L 261.973223 136.703466 
L 262.032595 137.722706 
L 262.191142 136.488145 
L 262.325635 136.405605 
L 262.482417 133.490933 
L 262.599498 133.322238 
L 262.678798 134.29573 
L 262.757058 135.686299 
L 262.838957 134.592445 
L 262.948152 135.681678 
L 263.090436 134.559971 
L 263.170809 135.03717 
L 263.409181 137.017655 
L 263.581085 134.995799 
L 263.899148 139.44737 
L 264.070909 138.108647 
L 264.136876 139.01098 
L 264.253293 139.005099 
L 264.306557 141.354603 
L 264.384222 140.876573 
L 264.624305 139.516618 
L 264.719963 139.741771 
L 264.796405 139.815991 
L 265.031699 138.007497 
L 265.211309 136.693566 
L 265.286515 136.275736 
L 265.304479 136.463948 
L 265.364412 137.253883 
L 265.422726 137.178735 
L 265.598803 136.703881 
L 265.697513 136.660764 
L 265.756055 136.854215 
L 265.834475 136.328614 
L 266.010497 136.984503 
L 266.090931 136.028157 
L 266.166369 136.066038 
L 266.422169 134.260096 
L 266.480581 134.593976 
L 266.623437 134.525841 
L 266.736458 135.46184 
L 267.028064 136.921183 
L 267.049929 136.577697 
L 267.128279 136.944386 
L 267.225121 138.767775 
L 267.382965 137.925682 
L 267.543143 139.157263 
L 267.816718 137.977293 
L 267.97376 138.751513 
L 268.03208 137.542248 
L 268.288481 140.069044 
L 268.385548 138.772437 
L 268.52427 140.01229 
L 268.758744 138.659773 
L 268.994742 136.690852 
L 269.033845 137.149849 
L 269.229456 136.387991 
L 269.307419 136.208377 
L 269.562893 138.48619 
L 269.722255 139.376561 
L 269.81717 138.487215 
L 269.895597 138.745881 
L 270.053885 139.805516 
L 270.132543 139.612625 
L 270.23029 138.638988 
L 270.288954 139.199234 
L 270.366099 137.935026 
L 270.482001 138.366541 
L 270.624816 139.310576 
L 270.756033 139.451299 
L 270.932126 135.363237 
L 271.010101 135.11377 
L 271.049292 136.536761 
L 271.131897 136.523117 
L 271.265332 138.59468 
L 271.527298 137.041151 
L 271.755352 141.256076 
L 271.930679 140.552697 
L 272.009252 140.429803 
L 272.149667 138.266143 
L 272.402318 139.679864 
L 272.832599 136.305644 
L 272.932055 137.526062 
L 272.969664 136.926915 
L 273.082328 135.96568 
L 273.127997 136.203025 
L 273.211371 136.658476 
L 273.377045 134.231833 
L 273.460976 136.560144 
L 273.538303 136.006837 
L 273.623508 136.351497 
L 273.693021 136.251315 
L 273.791628 138.034532 
L 273.850713 137.428906 
L 274.04561 135.367587 
L 274.223072 139.770598 
L 274.264754 137.228983 
L 274.477952 138.97111 
L 274.515949 138.143469 
L 274.595375 138.575365 
L 274.751364 140.013463 
L 274.830308 139.878562 
L 274.914896 139.870975 
L 274.98924 138.820123 
L 275.064649 139.286901 
L 275.164967 139.52029 
L 275.477522 136.235977 
L 275.555328 135.855447 
L 275.651713 136.53595 
L 275.731598 135.272164 
L 275.809237 135.393346 
L 275.965642 133.688584 
L 276.129578 135.998805 
L 276.201261 135.758241 
L 276.30195 135.621392 
L 276.456643 136.321515 
L 276.690422 137.346944 
L 276.926554 136.172448 
L 277.179784 137.581695 
L 277.33866 137.129311 
L 277.591924 138.328932 
L 277.672003 137.677318 
L 277.751003 138.013124 
L 277.905818 139.626355 
L 278.064621 137.396261 
L 278.142216 138.439096 
L 278.39948 136.707203 
L 278.55433 139.232025 
L 278.6556 138.096067 
L 278.750386 138.281003 
L 278.869834 140.094493 
L 278.965241 139.423243 
L 279.064557 140.118248 
L 279.123755 141.858054 
L 279.240097 141.539658 
L 279.362972 139.384156 
L 279.456509 139.879924 
L 279.69136 138.354059 
L 279.769246 139.466696 
L 279.861417 139.080122 
L 279.868503 135.965172 
L 279.945803 138.419658 
L 280.259544 137.435519 
L 280.415526 137.208848 
L 280.513253 138.869732 
L 280.573128 138.518901 
L 280.74945 137.469441 
L 280.925611 138.514861 
L 281.064159 136.278058 
L 281.199331 136.67009 
L 281.473347 133.689125 
L 281.533674 134.836355 
L 281.571881 133.958861 
L 281.710154 133.394553 
L 281.904571 135.740831 
L 281.963775 135.276802 
L 282.123895 136.770588 
L 282.210066 136.04302 
L 282.278519 136.354973 
L 282.358754 136.539108 
L 282.453772 137.951063 
L 282.610888 137.717884 
L 282.676859 138.830826 
L 282.7139 137.499639 
L 282.768705 137.905137 
L 282.907179 136.759216 
L 282.945152 136.96257 
L 283.031004 137.322407 
L 283.181601 135.921868 
L 283.286896 135.176159 
L 283.356854 136.252667 
L 283.457036 136.160805 
L 283.494204 136.417319 
L 283.632455 135.969895 
L 283.653 136.144392 
L 283.905464 134.695296 
L 283.985171 134.677704 
L 284.239335 133.685632 
L 284.396427 136.155232 
L 284.494547 136.482791 
L 284.631422 139.542734 
L 284.885947 142.675225 
L 285.023959 142.499749 
L 285.199601 139.153672 
L 285.220564 139.367451 
L 285.297862 139.887669 
L 285.532479 137.123749 
L 285.610986 137.30413 
L 285.701856 136.885089 
L 285.787038 135.27812 
L 285.807762 135.531731 
L 285.946483 139.334778 
L 286.004923 138.829553 
L 286.101215 136.92203 
L 286.179522 137.71814 
L 286.434805 136.066699 
L 286.493915 136.808266 
L 286.846791 133.178325 
L 286.90525 135.218175 
L 286.983699 134.154281 
L 287.249902 138.620675 
L 287.343078 137.871947 
L 287.633048 140.05992 
L 287.731746 138.738707 
L 287.848219 139.90014 
L 287.965687 137.807735 
L 288.145497 135.781041 
L 288.283206 134.542366 
L 288.35957 135.064624 
L 288.614143 133.3279 
L 288.849067 137.669875 
L 288.9359 137.837352 
L 289.00784 138.248008 
L 289.282086 135.167351 
L 289.417863 136.737282 
L 289.652401 134.815075 
L 289.731849 136.019502 
L 289.809102 135.290352 
L 289.904695 135.475972 
L 289.982215 135.357742 
L 290.21807 138.816514 
L 290.393223 137.162404 
L 290.707092 140.006997 
L 290.783885 141.872943 
L 290.862466 141.266505 
L 291.0383 140.405581 
L 291.116642 140.568678 
L 291.27639 141.512252 
L 291.430685 138.747045 
L 291.509979 139.077371 
L 291.591297 137.498588 
L 291.686103 137.522051 
L 291.841604 136.569736 
L 291.92211 137.51772 
L 291.998577 137.167868 
L 292.158262 135.179843 
L 292.331651 135.469841 
L 292.410715 135.960485 
L 292.489004 135.194485 
L 292.57605 135.247097 
L 292.648139 134.872269 
L 292.732033 134.901845 
L 292.848412 134.77451 
L 293.056945 137.162516 
L 293.135357 136.108424 
L 293.488225 138.457534 
L 293.547508 138.027699 
L 293.625834 138.188966 
L 293.745019 138.70509 
L 293.864635 136.36346 
L 293.958423 137.127511 
L 294.233352 134.026382 
L 294.291528 134.817661 
L 294.390645 134.798368 
L 294.526966 136.762884 
L 294.665462 137.11395 
L 294.860571 136.795315 
L 295.030028 139.186391 
L 295.076051 139.069662 
L 295.18374 139.236249 
L 295.302103 138.130472 
L 295.340354 139.508486 
L 295.438781 139.384519 
L 295.653816 141.883186 
L 295.732482 142.043148 
L 295.810458 142.737239 
L 296.144582 137.868085 
L 296.222247 138.853578 
L 296.379104 138.340073 
L 296.633242 135.992989 
L 296.828878 137.598949 
L 296.986087 139.09493 
L 297.044868 137.813378 
L 297.202212 138.776862 
L 297.280644 138.172173 
L 297.36007 138.626444 
L 297.593914 138.21131 
L 297.770193 135.918636 
L 297.849597 137.091334 
L 298.082817 133.59161 
L 298.169644 134.494815 
L 298.249498 134.056096 
L 298.367648 135.119398 
L 298.408637 134.407306 
L 298.489191 134.915394 
L 298.569153 134.698708 
L 298.660582 133.325786 
L 298.896371 135.27603 
L 299.015552 134.794265 
L 299.096635 135.078775 
L 299.151846 134.141967 
L 299.210354 134.464555 
L 299.58698 138.329972 
L 299.62239 137.550478 
L 299.700421 139.341713 
L 299.877467 138.828656 
L 300.0354 141.926914 
L 300.155743 141.391969 
L 300.290211 140.263134 
L 300.356615 137.986121 
L 300.429021 139.300918 
L 300.506326 138.014333 
L 300.64402 138.777358 
L 300.822784 137.591142 
L 300.872172 136.959189 
L 300.939066 137.482312 
L 300.999134 137.62197 
L 301.232125 138.934646 
L 301.251651 138.563436 
L 301.566891 141.693158 
L 301.646339 141.119317 
L 301.742928 141.238752 
L 301.968636 140.75362 
L 302.060237 139.87368 
L 302.220775 139.548767 
L 302.252488 138.752227 
L 302.312041 139.293366 
L 302.471792 137.043471 
L 302.547389 137.378741 
L 302.633381 138.28454 
L 302.705409 137.927611 
L 302.892638 140.588308 
L 302.971292 139.994533 
L 303.120797 139.212092 
L 303.198187 139.291803 
L 303.278037 139.55656 
L 303.451475 137.710139 
L 303.588572 137.06101 
L 303.672668 135.939748 
L 303.843367 136.291818 
L 303.942411 137.038202 
L 304.098565 136.42604 
L 304.159188 137.473509 
L 304.297604 137.139549 
L 304.647537 139.320271 
L 304.730575 139.359737 
L 304.823999 139.108053 
L 305.0627 140.240834 
L 305.157772 140.105263 
L 305.275003 140.429915 
L 305.373073 138.012305 
L 305.455626 139.005867 
L 305.531542 138.109796 
L 305.628044 140.073432 
L 305.808652 137.588253 
L 305.86502 137.659958 
L 306.040959 134.993139 
L 306.099225 135.622202 
L 306.216936 136.007485 
L 306.29496 134.388305 
L 306.3578 135.043883 
L 306.453391 135.176128 
L 306.536428 136.874808 
L 306.745886 134.899282 
L 306.941283 137.592101 
L 307.277252 139.298037 
L 307.378741 137.372393 
L 307.471212 137.872066 
L 307.588189 137.564708 
L 307.646629 138.613541 
L 307.726122 137.376014 
L 307.832486 137.666253 
L 307.888839 138.267044 
L 307.966031 137.00011 
L 308.373474 140.004665 
L 308.470681 138.052858 
L 308.621824 138.559249 
L 308.630436 139.064362 
L 308.706054 137.773904 
L 308.784078 138.391407 
L 308.90845 138.374275 
L 309.019924 137.283612 
L 309.097756 137.274217 
L 309.196003 136.374499 
L 309.257226 136.850787 
L 309.355077 135.981635 
L 309.430752 134.00051 
L 309.509641 134.527443 
L 309.587776 135.431797 
L 309.669367 134.396021 
L 309.924289 137.757419 
L 310.141576 136.666876 
L 310.156258 136.774586 
L 310.333001 140.426061 
L 310.431106 140.45482 
L 310.489144 140.745252 
L 310.587247 139.748342 
L 310.727214 135.974752 
L 310.880603 136.452492 
L 310.979155 138.739471 
L 311.400327 133.220815 
L 311.49562 133.354885 
L 311.614376 132.189123 
L 311.770788 129.816377 
L 311.925973 130.446748 
L 312.026327 133.640001 
L 312.182086 134.393441 
L 312.24275 133.769825 
L 312.561391 139.648431 
L 312.84893 136.606009 
L 313.025022 138.422985 
L 313.149854 137.841254 
L 313.305654 135.029796 
L 313.520766 136.991087 
L 313.638554 139.002087 
L 313.805935 138.979757 
L 313.873815 139.001652 
L 313.97331 140.432623 
L 314.063792 141.869903 
L 314.132774 141.595073 
L 314.327649 140.850783 
L 314.482968 138.256457 
L 314.483118 134.082006 
L 314.549154 136.738531 
L 314.620369 136.881934 
L 314.718158 136.706316 
L 314.796959 136.963653 
L 315.032655 134.881754 
L 315.159255 134.397298 
L 315.190723 136.087455 
L 315.271193 136.044629 
L 315.581483 135.833418 
L 315.660764 134.738324 
L 315.701801 135.600294 
L 315.785408 135.388511 
L 315.933921 135.892089 
L 316.084807 137.113445 
L 316.209587 136.561064 
L 316.405472 137.882596 
L 316.639777 137.004151 
L 316.719244 136.845531 
L 316.89343 134.71555 
L 316.983199 135.516963 
L 317.051345 135.19042 
L 317.240407 134.12941 
L 317.306486 132.875436 
L 317.370398 132.437252 
L 317.463541 132.605835 
L 317.586262 133.826328 
L 317.659431 133.544048 
L 317.858078 132.789475 
L 318.011032 133.410842 
L 318.148695 133.24724 
L 318.34413 131.120037 
L 318.422688 132.941918 
L 318.559775 133.384233 
L 318.579739 132.861145 
L 318.660892 133.333033 
L 318.860054 133.584758 
L 319.149006 137.604063 
L 319.344958 136.047443 
L 319.559939 137.929118 
L 319.677789 138.342881 
L 319.976237 136.182032 
L 320.119444 138.76139 
L 320.225801 139.026552 
L 320.285098 138.26764 
L 320.402156 138.291764 
L 320.558422 138.837188 
L 320.931623 141.447085 
L 321.029856 141.493142 
L 321.097936 141.724039 
L 321.264819 140.189507 
L 321.421338 141.067545 
L 321.894758 133.681279 
L 321.986446 133.833796 
L 322.166397 135.710781 
L 322.294421 135.008903 
L 322.4803 138.191082 
L 322.57813 138.651462 
L 322.715683 141.706096 
L 322.833875 141.445913 
L 323.02972 139.542745 
L 323.128186 140.18005 
L 323.245404 140.01945 
L 323.325452 140.487375 
L 323.366921 140.317011 
L 323.617659 138.33723 
L 323.717771 138.357347 
L 323.793543 138.012329 
L 323.931236 138.34712 
L 324.166999 135.698645 
L 324.284005 137.091192 
L 324.342483 135.838268 
L 324.442434 136.986175 
L 324.499097 136.674911 
L 324.59748 136.671052 
L 324.658772 137.552633 
L 324.75373 136.49649 
L 324.837463 137.277626 
L 324.951769 137.119463 
L 325.028128 137.966104 
L 325.106481 136.638171 
L 325.185193 137.116016 
L 325.243934 136.678413 
L 325.322214 137.181885 
L 325.398895 136.620168 
L 325.498996 137.126457 
L 325.635755 139.059932 
L 325.779393 138.819707 
L 325.87395 137.955039 
L 326.047492 139.181941 
L 326.292894 137.258546 
L 326.361403 136.892006 
L 326.43915 135.858102 
L 326.635705 137.222329 
L 326.693944 139.613862 
L 326.87414 137.702433 
L 326.930235 137.963607 
L 327.007301 137.894068 
L 327.301886 135.908626 
L 327.517555 133.582983 
L 327.575919 133.713585 
L 328.035662 136.994402 
L 328.153537 139.146323 
L 328.314647 138.791537 
L 328.568211 140.059086 
L 328.667729 139.597382 
L 328.713817 138.456281 
L 328.960567 140.702578 
L 329.040388 140.730508 
L 329.276048 139.870385 
L 329.35346 140.238845 
L 329.450757 141.63364 
L 329.51186 141.464656 
L 329.842587 138.782123 
L 329.921122 139.246887 
L 330.078286 137.948696 
L 330.255733 137.36704 
L 330.332451 137.466783 
L 330.413631 137.332992 
L 330.573024 135.034816 
L 330.667155 135.665449 
L 330.74515 135.277675 
L 330.822735 136.279366 
L 330.900898 134.968391 
L 330.980726 135.383461 
L 331.077775 134.178155 
L 331.29544 136.477256 
L 331.391712 136.954544 
L 331.474283 135.426398 
L 331.657143 135.8152 
L 331.666931 135.706698 
L 331.706485 136.222866 
L 331.884239 135.805586 
L 332.040621 137.047602 
L 332.12254 137.587859 
L 332.200969 137.251403 
L 332.275865 138.385414 
L 332.354527 137.428436 
L 332.432383 137.841905 
L 332.512349 137.693923 
L 332.596774 137.213962 
L 332.753091 137.979141 
L 332.922907 136.945 
L 333.00153 137.511509 
L 333.021034 138.652813 
L 333.08083 137.091251 
L 333.253404 139.360018 
L 333.414065 141.324312 
L 333.590524 140.522215 
L 333.727035 139.916863 
L 334.041644 139.827077 
L 334.139204 139.588665 
L 334.275604 138.79563 
L 334.57352 142.87043 
L 334.688043 141.916382 
L 334.785136 142.508464 
L 334.882808 139.899703 
L 335.039362 141.035125 
L 335.101539 140.066615 
L 335.199535 140.439749 
L 335.354402 137.466332 
L 335.452705 137.903969 
L 335.586531 137.796334 
L 335.668109 137.470034 
L 335.744245 135.446188 
L 335.842926 135.620198 
L 335.921601 136.347766 
L 336.000776 134.805897 
L 336.135886 134.995865 
L 336.175823 136.036421 
L 336.272915 135.94929 
L 336.335761 136.291647 
L 336.391648 137.393099 
L 336.521308 137.067672 
L 336.567702 137.663437 
L 336.764903 135.989612 
L 336.921023 136.439228 
L 336.999767 136.471201 
L 337.120033 136.879323 
L 337.272639 135.963278 
L 337.469272 138.359067 
L 337.55202 139.288428 
L 337.626256 139.159395 
L 337.704513 139.258132 
L 337.825792 137.935395 
L 338.021666 139.614863 
L 338.202085 137.781043 
L 338.355432 138.693348 
L 338.469781 138.130205 
L 338.644591 139.761124 
L 338.689961 138.90029 
L 338.772683 139.924138 
L 338.841279 138.877464 
L 338.958386 139.506068 
L 338.997246 140.519568 
L 339.253753 138.000332 
L 339.332723 139.661931 
L 339.449169 137.131577 
L 339.507253 138.239813 
L 339.573095 136.587565 
L 339.645559 136.821942 
L 339.723226 135.719104 
L 339.822617 135.762595 
L 339.899762 136.325766 
L 339.960141 137.778024 
L 340.058134 136.558383 
L 340.137063 136.957925 
L 340.211952 137.499254 
L 340.29409 136.192714 
L 340.369298 136.213636 
L 340.466579 136.382054 
L 340.531104 137.617273 
L 340.623918 136.796582 
L 340.702675 136.892246 
L 340.803259 136.774449 
L 341.055764 138.401373 
L 341.212074 137.214556 
L 341.532272 135.042656 
L 341.693398 135.271143 
L 341.835054 132.884568 
L 341.979038 133.209653 
L 341.99764 135.881105 
L 342.096137 134.797619 
L 342.157144 135.699781 
L 342.447724 135.104617 
L 342.726599 137.540164 
L 342.839714 137.028406 
L 343.133725 138.834036 
L 343.270399 137.578436 
L 343.31198 137.590335 
L 343.374783 137.737112 
L 343.642892 134.679421 
L 343.7023 135.63672 
L 343.780998 135.183198 
L 344.036136 133.443872 
L 344.173005 133.591771 
L 344.349209 134.880319 
L 344.428404 136.455257 
L 344.586128 134.895425 
L 344.683773 136.725691 
L 344.743091 136.145042 
L 344.919316 136.734457 
L 345.309721 131.967595 
L 345.430356 134.229976 
L 345.489052 133.459395 
L 345.647298 134.340396 
L 345.728302 134.211097 
L 345.888033 135.797678 
L 345.962654 137.494842 
L 346.060578 137.223643 
L 346.233138 135.585661 
L 346.354708 135.179944 
L 346.45587 135.458617 
L 346.493845 135.160684 
L 346.611382 133.328379 
L 346.726105 133.953998 
L 346.787205 132.242818 
L 346.943886 134.287218 
L 347.119638 135.881533 
L 347.237874 134.235787 
L 347.290923 134.769975 
L 347.420215 136.241847 
L 347.510927 135.381007 
L 347.675087 136.079992 
L 347.903668 133.048722 
L 348.000933 132.580406 
L 348.167773 133.512803 
L 348.251496 133.772776 
L 348.265468 133.745607 
L 348.564463 136.554009 
L 348.65759 136.496731 
L 348.835863 137.927142 
L 348.89642 136.523733 
L 349.00521 136.76566 
L 349.286165 133.273238 
L 349.540672 135.108189 
L 349.6187 136.097893 
L 349.776109 135.056474 
L 349.853794 135.481022 
L 349.972472 135.073245 
L 350.030591 136.758155 
L 350.09381 136.520635 
L 350.265069 134.403361 
L 350.343217 134.857351 
L 350.468582 134.195679 
L 350.61968 136.707401 
L 350.835177 134.449432 
L 350.95279 134.731699 
L 351.02348 136.89189 
L 351.088456 136.86521 
L 351.168304 135.653517 
L 351.250944 137.280844 
L 351.502077 135.63382 
L 351.581548 135.089682 
L 351.717748 135.340563 
L 351.855201 135.873999 
L 351.89368 134.909439 
L 351.957873 136.09191 
L 352.011816 135.858052 
L 352.050644 134.483549 
L 352.158283 135.780481 
L 352.211448 135.190213 
L 352.366162 135.660743 
L 352.503951 136.862348 
L 352.60811 136.56616 
L 352.758923 136.74134 
L 352.798244 136.090465 
L 352.995091 137.161884 
L 353.071898 135.780135 
L 353.11164 136.510832 
L 353.156584 136.42205 
L 353.189756 134.877267 
L 353.27116 135.767317 
L 353.464811 134.810968 
L 353.523399 136.400282 
L 353.603736 134.614018 
L 353.660065 134.830692 
L 353.929594 138.033206 
L 354.019327 137.389631 
L 354.095032 138.254819 
L 354.485221 135.591033 
L 354.700738 132.218452 
L 354.71952 132.902405 
" clip-path="url(#p85bcb9c786)" style="fill: none; stroke: #ff0000; stroke-opacity: 0.5; stroke-width: 2.1; stroke-linecap: square"/>
   </g>
   <g id="patch_3">
    <path d="M 36.485625 148.36327 
L 36.485625 0.72 
" style="fill: none; stroke: #000000; stroke-width: 0.8; stroke-linejoin: miter; stroke-linecap: square"/>
   </g>
   <g id="patch_4">
    <path d="M 354.71952 148.36327 
L 354.71952 0.72 
" style="fill: none; stroke: #000000; stroke-width: 0.8; stroke-linejoin: miter; stroke-linecap: square"/>
   </g>
   <g id="patch_5">
    <path d="M 36.485625 148.36327 
L 354.71952 148.36327 
" style="fill: none; stroke: #000000; stroke-width: 0.8; stroke-linejoin: miter; stroke-linecap: square"/>
   </g>
   <g id="patch_6">
    <path d="M 36.485625 0.72 
L 354.71952 0.72 
" style="fill: none; stroke: #000000; stroke-width: 0.8; stroke-linejoin: miter; stroke-linecap: square"/>
   </g>
   <g id="legend_1">
    <g id="patch_7">
     <path d="M 273.95077 38.07625 
L 347.71952 38.07625 
Q 349.71952 38.07625 349.71952 36.07625 
L 349.71952 7.72 
Q 349.71952 5.72 347.71952 5.72 
L 273.95077 5.72 
Q 271.95077 5.72 271.95077 7.72 
L 271.95077 36.07625 
Q 271.95077 38.07625 273.95077 38.07625 
z
" style="fill: #ffffff; opacity: 0.8; stroke: #cccccc; stroke-linejoin: miter"/>
    </g>
    <g id="line2d_31">
     <path d="M 275.95077 13.818437 
L 285.95077 13.818437 
L 295.95077 13.818437 
" style="fill: none; stroke: #0000ff; stroke-opacity: 0.5; stroke-width: 2.1; stroke-linecap: square"/>
    </g>
    <g id="text_17">
     <!-- RNEA -->
     <g transform="translate(303.95077 17.318437) scale(0.1 -0.1)">
      <defs>
       <path id="DejaVuSans-52" d="M 2841 2188 
Q 3044 2119 3236 1894 
Q 3428 1669 3622 1275 
L 4263 0 
L 3584 0 
L 2988 1197 
Q 2756 1666 2539 1819 
Q 2322 1972 1947 1972 
L 1259 1972 
L 1259 0 
L 628 0 
L 628 4666 
L 2053 4666 
Q 2853 4666 3247 4331 
Q 3641 3997 3641 3322 
Q 3641 2881 3436 2590 
Q 3231 2300 2841 2188 
z
M 1259 4147 
L 1259 2491 
L 2053 2491 
Q 2509 2491 2742 2702 
Q 2975 2913 2975 3322 
Q 2975 3731 2742 3939 
Q 2509 4147 2053 4147 
L 1259 4147 
z
" transform="scale(0.015625)"/>
       <path id="DejaVuSans-45" d="M 628 4666 
L 3578 4666 
L 3578 4134 
L 1259 4134 
L 1259 2753 
L 3481 2753 
L 3481 2222 
L 1259 2222 
L 1259 531 
L 3634 531 
L 3634 0 
L 628 0 
L 628 4666 
z
" transform="scale(0.015625)"/>
       <path id="DejaVuSans-41" d="M 2188 4044 
L 1331 1722 
L 3047 1722 
L 2188 4044 
z
M 1831 4666 
L 2547 4666 
L 4325 0 
L 3669 0 
L 3244 1197 
L 1141 1197 
L 716 0 
L 50 0 
L 1831 4666 
z
" transform="scale(0.015625)"/>
      </defs>
      <use xlink:href="#DejaVuSans-52"/>
      <use xlink:href="#DejaVuSans-4e" x="69.482422"/>
      <use xlink:href="#DejaVuSans-45" x="144.287109"/>
      <use xlink:href="#DejaVuSans-41" x="207.470703"/>
     </g>
    </g>
    <g id="line2d_32">
     <path d="M 275.95077 28.496562 
L 285.95077 28.496562 
L 295.95077 28.496562 
" style="fill: none; stroke: #ff0000; stroke-opacity: 0.5; stroke-width: 2.1; stroke-linecap: square"/>
    </g>
    <g id="text_18">
     <!-- BURNEA -->
     <g transform="translate(303.95077 31.996562) scale(0.1 -0.1)">
      <defs>
       <path id="DejaVuSans-42" d="M 1259 2228 
L 1259 519 
L 2272 519 
Q 2781 519 3026 730 
Q 3272 941 3272 1375 
Q 3272 1813 3026 2020 
Q 2781 2228 2272 2228 
L 1259 2228 
z
M 1259 4147 
L 1259 2741 
L 2194 2741 
Q 2656 2741 2882 2914 
Q 3109 3088 3109 3444 
Q 3109 3797 2882 3972 
Q 2656 4147 2194 4147 
L 1259 4147 
z
M 628 4666 
L 2241 4666 
Q 2963 4666 3353 4366 
Q 3744 4066 3744 3513 
Q 3744 3084 3544 2831 
Q 3344 2578 2956 2516 
Q 3422 2416 3680 2098 
Q 3938 1781 3938 1306 
Q 3938 681 3513 340 
Q 3088 0 2303 0 
L 628 0 
L 628 4666 
z
" transform="scale(0.015625)"/>
       <path id="DejaVuSans-55" d="M 556 4666 
L 1191 4666 
L 1191 1831 
Q 1191 1081 1462 751 
Q 1734 422 2344 422 
Q 2950 422 3222 751 
Q 3494 1081 3494 1831 
L 3494 4666 
L 4128 4666 
L 4128 1753 
Q 4128 841 3676 375 
Q 3225 -91 2344 -91 
Q 1459 -91 1007 375 
Q 556 841 556 1753 
L 556 4666 
z
" transform="scale(0.015625)"/>
      </defs>
      <use xlink:href="#DejaVuSans-42"/>
      <use xlink:href="#DejaVuSans-55" x="68.603516"/>
      <use xlink:href="#DejaVuSans-52" x="141.796875"/>
      <use xlink:href="#DejaVuSans-4e" x="211.279297"/>
      <use xlink:href="#DejaVuSans-45" x="286.083984"/>
      <use xlink:href="#DejaVuSans-41" x="349.267578"/>
     </g>
    </g>
   </g>
  </g>
 </g>
 <defs>
  <clipPath id="p85bcb9c786">
   <rect x="36.485625" y="0.72" width="318.233895" height="147.64327"/>
  </clipPath>
 </defs>
</svg>
