<?xml version="1.0" encoding="utf-8" standalone="no"?>
<!DOCTYPE svg PUBLIC "-//W3C//DTD SVG 1.1//EN"
  "http://www.w3.org/Graphics/SVG/1.1/DTD/svg11.dtd">
<svg xmlns:xlink="http://www.w3.org/1999/xlink" width="427.43952pt" height="211.43952pt" viewBox="0 0 427.43952 211.43952" xmlns="http://www.w3.org/2000/svg" version="1.1">
 <metadata>
  <rdf:RDF xmlns:dc="http://purl.org/dc/elements/1.1/" xmlns:cc="http://creativecommons.org/ns#" xmlns:rdf="http://www.w3.org/1999/02/22-rdf-syntax-ns#">
   <cc:Work>
    <dc:type rdf:resource="http://purl.org/dc/dcmitype/StillImage"/>
    <dc:date>2023-09-09T18:28:41.667889</dc:date>
    <dc:format>image/svg+xml</dc:format>
    <dc:creator>
     <cc:Agent>
      <dc:title>Matplotlib v3.7.2, https://matplotlib.org/</dc:title>
     </cc:Agent>
    </dc:creator>
   </cc:Work>
  </rdf:RDF>
 </metadata>
 <defs>
  <style type="text/css">*{stroke-linejoin: round; stroke-linecap: butt}</style>
 </defs>
 <g id="figure_1">
  <g id="patch_1">
   <path d="M 0 211.43952 
L 427.43952 211.43952 
L 427.43952 0 
L 0 0 
L 0 211.43952 
z
" style="fill: none"/>
  </g>
  <g id="axes_1">
   <g id="patch_2">
    <path d="M 38.502813 184.36327 
L 426.71952 184.36327 
L 426.71952 0.72 
L 38.502813 0.72 
L 38.502813 184.36327 
z
" style="fill: none"/>
   </g>
   <g id="matplotlib.axis_1">
    <g id="xtick_1">
     <g id="line2d_1">
      <path d="M 38.502813 184.36327 
L 38.502813 0.72 
" clip-path="url(#pa8920fe042)" style="fill: none; stroke-dasharray: 0.8,1.32; stroke-dashoffset: 0; stroke: #000000; stroke-opacity: 0.5; stroke-width: 0.8"/>
     </g>
     <g id="line2d_2">
      <defs>
       <path id="m8d9aec7db4" d="M 0 0 
L 0 3.5 
" style="stroke: #000000; stroke-width: 0.8"/>
      </defs>
      <g>
       <use xlink:href="#m8d9aec7db4" x="38.502813" y="184.36327" style="stroke: #000000; stroke-width: 0.8"/>
      </g>
     </g>
     <g id="text_1">
      <!-- 0.0 -->
      <g transform="translate(30.55125 198.961707) scale(0.1 -0.1)">
       <defs>
        <path id="DejaVuSans-30" d="M 2034 4250 
Q 1547 4250 1301 3770 
Q 1056 3291 1056 2328 
Q 1056 1369 1301 889 
Q 1547 409 2034 409 
Q 2525 409 2770 889 
Q 3016 1369 3016 2328 
Q 3016 3291 2770 3770 
Q 2525 4250 2034 4250 
z
M 2034 4750 
Q 2819 4750 3233 4129 
Q 3647 3509 3647 2328 
Q 3647 1150 3233 529 
Q 2819 -91 2034 -91 
Q 1250 -91 836 529 
Q 422 1150 422 2328 
Q 422 3509 836 4129 
Q 1250 4750 2034 4750 
z
" transform="scale(0.015625)"/>
        <path id="DejaVuSans-2e" d="M 684 794 
L 1344 794 
L 1344 0 
L 684 0 
L 684 794 
z
" transform="scale(0.015625)"/>
       </defs>
       <use xlink:href="#DejaVuSans-30"/>
       <use xlink:href="#DejaVuSans-2e" x="63.623047"/>
       <use xlink:href="#DejaVuSans-30" x="95.410156"/>
      </g>
     </g>
    </g>
    <g id="xtick_2">
     <g id="line2d_3">
      <path d="M 90.09203 184.36327 
L 90.09203 0.72 
" clip-path="url(#pa8920fe042)" style="fill: none; stroke-dasharray: 0.8,1.32; stroke-dashoffset: 0; stroke: #000000; stroke-opacity: 0.5; stroke-width: 0.8"/>
     </g>
     <g id="line2d_4">
      <g>
       <use xlink:href="#m8d9aec7db4" x="90.09203" y="184.36327" style="stroke: #000000; stroke-width: 0.8"/>
      </g>
     </g>
     <g id="text_2">
      <!-- 2.5 -->
      <g transform="translate(82.140467 198.961707) scale(0.1 -0.1)">
       <defs>
        <path id="DejaVuSans-32" d="M 1228 531 
L 3431 531 
L 3431 0 
L 469 0 
L 469 531 
Q 828 903 1448 1529 
Q 2069 2156 2228 2338 
Q 2531 2678 2651 2914 
Q 2772 3150 2772 3378 
Q 2772 3750 2511 3984 
Q 2250 4219 1831 4219 
Q 1534 4219 1204 4116 
Q 875 4013 500 3803 
L 500 4441 
Q 881 4594 1212 4672 
Q 1544 4750 1819 4750 
Q 2544 4750 2975 4387 
Q 3406 4025 3406 3419 
Q 3406 3131 3298 2873 
Q 3191 2616 2906 2266 
Q 2828 2175 2409 1742 
Q 1991 1309 1228 531 
z
" transform="scale(0.015625)"/>
        <path id="DejaVuSans-35" d="M 691 4666 
L 3169 4666 
L 3169 4134 
L 1269 4134 
L 1269 2991 
Q 1406 3038 1543 3061 
Q 1681 3084 1819 3084 
Q 2600 3084 3056 2656 
Q 3513 2228 3513 1497 
Q 3513 744 3044 326 
Q 2575 -91 1722 -91 
Q 1428 -91 1123 -41 
Q 819 9 494 109 
L 494 744 
Q 775 591 1075 516 
Q 1375 441 1709 441 
Q 2250 441 2565 725 
Q 2881 1009 2881 1497 
Q 2881 1984 2565 2268 
Q 2250 2553 1709 2553 
Q 1456 2553 1204 2497 
Q 953 2441 691 2322 
L 691 4666 
z
" transform="scale(0.015625)"/>
       </defs>
       <use xlink:href="#DejaVuSans-32"/>
       <use xlink:href="#DejaVuSans-2e" x="63.623047"/>
       <use xlink:href="#DejaVuSans-35" x="95.410156"/>
      </g>
     </g>
    </g>
    <g id="xtick_3">
     <g id="line2d_5">
      <path d="M 141.681247 184.36327 
L 141.681247 0.72 
" clip-path="url(#pa8920fe042)" style="fill: none; stroke-dasharray: 0.8,1.32; stroke-dashoffset: 0; stroke: #000000; stroke-opacity: 0.5; stroke-width: 0.8"/>
     </g>
     <g id="line2d_6">
      <g>
       <use xlink:href="#m8d9aec7db4" x="141.681247" y="184.36327" style="stroke: #000000; stroke-width: 0.8"/>
      </g>
     </g>
     <g id="text_3">
      <!-- 5.0 -->
      <g transform="translate(133.729684 198.961707) scale(0.1 -0.1)">
       <use xlink:href="#DejaVuSans-35"/>
       <use xlink:href="#DejaVuSans-2e" x="63.623047"/>
       <use xlink:href="#DejaVuSans-30" x="95.410156"/>
      </g>
     </g>
    </g>
    <g id="xtick_4">
     <g id="line2d_7">
      <path d="M 193.270464 184.36327 
L 193.270464 0.72 
" clip-path="url(#pa8920fe042)" style="fill: none; stroke-dasharray: 0.8,1.32; stroke-dashoffset: 0; stroke: #000000; stroke-opacity: 0.5; stroke-width: 0.8"/>
     </g>
     <g id="line2d_8">
      <g>
       <use xlink:href="#m8d9aec7db4" x="193.270464" y="184.36327" style="stroke: #000000; stroke-width: 0.8"/>
      </g>
     </g>
     <g id="text_4">
      <!-- 7.5 -->
      <g transform="translate(185.318902 198.961707) scale(0.1 -0.1)">
       <defs>
        <path id="DejaVuSans-37" d="M 525 4666 
L 3525 4666 
L 3525 4397 
L 1831 0 
L 1172 0 
L 2766 4134 
L 525 4134 
L 525 4666 
z
" transform="scale(0.015625)"/>
       </defs>
       <use xlink:href="#DejaVuSans-37"/>
       <use xlink:href="#DejaVuSans-2e" x="63.623047"/>
       <use xlink:href="#DejaVuSans-35" x="95.410156"/>
      </g>
     </g>
    </g>
    <g id="xtick_5">
     <g id="line2d_9">
      <path d="M 244.859681 184.36327 
L 244.859681 0.72 
" clip-path="url(#pa8920fe042)" style="fill: none; stroke-dasharray: 0.8,1.32; stroke-dashoffset: 0; stroke: #000000; stroke-opacity: 0.5; stroke-width: 0.8"/>
     </g>
     <g id="line2d_10">
      <g>
       <use xlink:href="#m8d9aec7db4" x="244.859681" y="184.36327" style="stroke: #000000; stroke-width: 0.8"/>
      </g>
     </g>
     <g id="text_5">
      <!-- 10.0 -->
      <g transform="translate(233.726869 198.961707) scale(0.1 -0.1)">
       <defs>
        <path id="DejaVuSans-31" d="M 794 531 
L 1825 531 
L 1825 4091 
L 703 3866 
L 703 4441 
L 1819 4666 
L 2450 4666 
L 2450 531 
L 3481 531 
L 3481 0 
L 794 0 
L 794 531 
z
" transform="scale(0.015625)"/>
       </defs>
       <use xlink:href="#DejaVuSans-31"/>
       <use xlink:href="#DejaVuSans-30" x="63.623047"/>
       <use xlink:href="#DejaVuSans-2e" x="127.246094"/>
       <use xlink:href="#DejaVuSans-30" x="159.033203"/>
      </g>
     </g>
    </g>
    <g id="xtick_6">
     <g id="line2d_11">
      <path d="M 296.448899 184.36327 
L 296.448899 0.72 
" clip-path="url(#pa8920fe042)" style="fill: none; stroke-dasharray: 0.8,1.32; stroke-dashoffset: 0; stroke: #000000; stroke-opacity: 0.5; stroke-width: 0.8"/>
     </g>
     <g id="line2d_12">
      <g>
       <use xlink:href="#m8d9aec7db4" x="296.448899" y="184.36327" style="stroke: #000000; stroke-width: 0.8"/>
      </g>
     </g>
     <g id="text_6">
      <!-- 12.5 -->
      <g transform="translate(285.316086 198.961707) scale(0.1 -0.1)">
       <use xlink:href="#DejaVuSans-31"/>
       <use xlink:href="#DejaVuSans-32" x="63.623047"/>
       <use xlink:href="#DejaVuSans-2e" x="127.246094"/>
       <use xlink:href="#DejaVuSans-35" x="159.033203"/>
      </g>
     </g>
    </g>
    <g id="xtick_7">
     <g id="line2d_13">
      <path d="M 348.038116 184.36327 
L 348.038116 0.72 
" clip-path="url(#pa8920fe042)" style="fill: none; stroke-dasharray: 0.8,1.32; stroke-dashoffset: 0; stroke: #000000; stroke-opacity: 0.5; stroke-width: 0.8"/>
     </g>
     <g id="line2d_14">
      <g>
       <use xlink:href="#m8d9aec7db4" x="348.038116" y="184.36327" style="stroke: #000000; stroke-width: 0.8"/>
      </g>
     </g>
     <g id="text_7">
      <!-- 15.0 -->
      <g transform="translate(336.905303 198.961707) scale(0.1 -0.1)">
       <use xlink:href="#DejaVuSans-31"/>
       <use xlink:href="#DejaVuSans-35" x="63.623047"/>
       <use xlink:href="#DejaVuSans-2e" x="127.246094"/>
       <use xlink:href="#DejaVuSans-30" x="159.033203"/>
      </g>
     </g>
    </g>
    <g id="xtick_8">
     <g id="line2d_15">
      <path d="M 399.627333 184.36327 
L 399.627333 0.72 
" clip-path="url(#pa8920fe042)" style="fill: none; stroke-dasharray: 0.8,1.32; stroke-dashoffset: 0; stroke: #000000; stroke-opacity: 0.5; stroke-width: 0.8"/>
     </g>
     <g id="line2d_16">
      <g>
       <use xlink:href="#m8d9aec7db4" x="399.627333" y="184.36327" style="stroke: #000000; stroke-width: 0.8"/>
      </g>
     </g>
     <g id="text_8">
      <!-- 17.5 -->
      <g transform="translate(388.494521 198.961707) scale(0.1 -0.1)">
       <use xlink:href="#DejaVuSans-31"/>
       <use xlink:href="#DejaVuSans-37" x="63.623047"/>
       <use xlink:href="#DejaVuSans-2e" x="127.246094"/>
       <use xlink:href="#DejaVuSans-35" x="159.033203"/>
      </g>
     </g>
    </g>
    <g id="text_9">
     <!-- Zeit [s] -->
     <g transform="translate(214.665073 208.639832) scale(0.1 -0.1)">
      <defs>
       <path id="DejaVuSans-5a" d="M 359 4666 
L 4025 4666 
L 4025 4184 
L 1075 531 
L 4097 531 
L 4097 0 
L 288 0 
L 288 481 
L 3238 4134 
L 359 4134 
L 359 4666 
z
" transform="scale(0.015625)"/>
       <path id="DejaVuSans-65" d="M 3597 1894 
L 3597 1613 
L 953 1613 
Q 991 1019 1311 708 
Q 1631 397 2203 397 
Q 2534 397 2845 478 
Q 3156 559 3463 722 
L 3463 178 
Q 3153 47 2828 -22 
Q 2503 -91 2169 -91 
Q 1331 -91 842 396 
Q 353 884 353 1716 
Q 353 2575 817 3079 
Q 1281 3584 2069 3584 
Q 2775 3584 3186 3129 
Q 3597 2675 3597 1894 
z
M 3022 2063 
Q 3016 2534 2758 2815 
Q 2500 3097 2075 3097 
Q 1594 3097 1305 2825 
Q 1016 2553 972 2059 
L 3022 2063 
z
" transform="scale(0.015625)"/>
       <path id="DejaVuSans-69" d="M 603 3500 
L 1178 3500 
L 1178 0 
L 603 0 
L 603 3500 
z
M 603 4863 
L 1178 4863 
L 1178 4134 
L 603 4134 
L 603 4863 
z
" transform="scale(0.015625)"/>
       <path id="DejaVuSans-74" d="M 1172 4494 
L 1172 3500 
L 2356 3500 
L 2356 3053 
L 1172 3053 
L 1172 1153 
Q 1172 725 1289 603 
Q 1406 481 1766 481 
L 2356 481 
L 2356 0 
L 1766 0 
Q 1100 0 847 248 
Q 594 497 594 1153 
L 594 3053 
L 172 3053 
L 172 3500 
L 594 3500 
L 594 4494 
L 1172 4494 
z
" transform="scale(0.015625)"/>
       <path id="DejaVuSans-20" transform="scale(0.015625)"/>
       <path id="DejaVuSans-5b" d="M 550 4863 
L 1875 4863 
L 1875 4416 
L 1125 4416 
L 1125 -397 
L 1875 -397 
L 1875 -844 
L 550 -844 
L 550 4863 
z
" transform="scale(0.015625)"/>
       <path id="DejaVuSans-73" d="M 2834 3397 
L 2834 2853 
Q 2591 2978 2328 3040 
Q 2066 3103 1784 3103 
Q 1356 3103 1142 2972 
Q 928 2841 928 2578 
Q 928 2378 1081 2264 
Q 1234 2150 1697 2047 
L 1894 2003 
Q 2506 1872 2764 1633 
Q 3022 1394 3022 966 
Q 3022 478 2636 193 
Q 2250 -91 1575 -91 
Q 1294 -91 989 -36 
Q 684 19 347 128 
L 347 722 
Q 666 556 975 473 
Q 1284 391 1588 391 
Q 1994 391 2212 530 
Q 2431 669 2431 922 
Q 2431 1156 2273 1281 
Q 2116 1406 1581 1522 
L 1381 1569 
Q 847 1681 609 1914 
Q 372 2147 372 2553 
Q 372 3047 722 3315 
Q 1072 3584 1716 3584 
Q 2034 3584 2315 3537 
Q 2597 3491 2834 3397 
z
" transform="scale(0.015625)"/>
       <path id="DejaVuSans-5d" d="M 1947 4863 
L 1947 -844 
L 622 -844 
L 622 -397 
L 1369 -397 
L 1369 4416 
L 622 4416 
L 622 4863 
L 1947 4863 
z
" transform="scale(0.015625)"/>
      </defs>
      <use xlink:href="#DejaVuSans-5a"/>
      <use xlink:href="#DejaVuSans-65" x="68.505859"/>
      <use xlink:href="#DejaVuSans-69" x="130.029297"/>
      <use xlink:href="#DejaVuSans-74" x="157.8125"/>
      <use xlink:href="#DejaVuSans-20" x="197.021484"/>
      <use xlink:href="#DejaVuSans-5b" x="228.808594"/>
      <use xlink:href="#DejaVuSans-73" x="267.822266"/>
      <use xlink:href="#DejaVuSans-5d" x="319.921875"/>
     </g>
    </g>
   </g>
   <g id="matplotlib.axis_2">
    <g id="ytick_1">
     <g id="line2d_17">
      <path d="M 38.502813 162.707105 
L 426.71952 162.707105 
" clip-path="url(#pa8920fe042)" style="fill: none; stroke-dasharray: 0.8,1.32; stroke-dashoffset: 0; stroke: #000000; stroke-opacity: 0.5; stroke-width: 0.8"/>
     </g>
     <g id="line2d_18">
      <defs>
       <path id="mf00554c56f" d="M 0 0 
L -3.5 0 
" style="stroke: #000000; stroke-width: 0.8"/>
      </defs>
      <g>
       <use xlink:href="#mf00554c56f" x="38.502813" y="162.707105" style="stroke: #000000; stroke-width: 0.8"/>
      </g>
     </g>
     <g id="text_10">
      <!-- −30 -->
      <g transform="translate(10.398125 166.506324) scale(0.1 -0.1)">
       <defs>
        <path id="DejaVuSans-2212" d="M 678 2272 
L 4684 2272 
L 4684 1741 
L 678 1741 
L 678 2272 
z
" transform="scale(0.015625)"/>
        <path id="DejaVuSans-33" d="M 2597 2516 
Q 3050 2419 3304 2112 
Q 3559 1806 3559 1356 
Q 3559 666 3084 287 
Q 2609 -91 1734 -91 
Q 1441 -91 1130 -33 
Q 819 25 488 141 
L 488 750 
Q 750 597 1062 519 
Q 1375 441 1716 441 
Q 2309 441 2620 675 
Q 2931 909 2931 1356 
Q 2931 1769 2642 2001 
Q 2353 2234 1838 2234 
L 1294 2234 
L 1294 2753 
L 1863 2753 
Q 2328 2753 2575 2939 
Q 2822 3125 2822 3475 
Q 2822 3834 2567 4026 
Q 2313 4219 1838 4219 
Q 1578 4219 1281 4162 
Q 984 4106 628 3988 
L 628 4550 
Q 988 4650 1302 4700 
Q 1616 4750 1894 4750 
Q 2613 4750 3031 4423 
Q 3450 4097 3450 3541 
Q 3450 3153 3228 2886 
Q 3006 2619 2597 2516 
z
" transform="scale(0.015625)"/>
       </defs>
       <use xlink:href="#DejaVuSans-2212"/>
       <use xlink:href="#DejaVuSans-33" x="83.789062"/>
       <use xlink:href="#DejaVuSans-30" x="147.412109"/>
      </g>
     </g>
    </g>
    <g id="ytick_2">
     <g id="line2d_19">
      <path d="M 38.502813 128.369121 
L 426.71952 128.369121 
" clip-path="url(#pa8920fe042)" style="fill: none; stroke-dasharray: 0.8,1.32; stroke-dashoffset: 0; stroke: #000000; stroke-opacity: 0.5; stroke-width: 0.8"/>
     </g>
     <g id="line2d_20">
      <g>
       <use xlink:href="#mf00554c56f" x="38.502813" y="128.369121" style="stroke: #000000; stroke-width: 0.8"/>
      </g>
     </g>
     <g id="text_11">
      <!-- −20 -->
      <g transform="translate(10.398125 132.16834) scale(0.1 -0.1)">
       <use xlink:href="#DejaVuSans-2212"/>
       <use xlink:href="#DejaVuSans-32" x="83.789062"/>
       <use xlink:href="#DejaVuSans-30" x="147.412109"/>
      </g>
     </g>
    </g>
    <g id="ytick_3">
     <g id="line2d_21">
      <path d="M 38.502813 94.031137 
L 426.71952 94.031137 
" clip-path="url(#pa8920fe042)" style="fill: none; stroke-dasharray: 0.8,1.32; stroke-dashoffset: 0; stroke: #000000; stroke-opacity: 0.5; stroke-width: 0.8"/>
     </g>
     <g id="line2d_22">
      <g>
       <use xlink:href="#mf00554c56f" x="38.502813" y="94.031137" style="stroke: #000000; stroke-width: 0.8"/>
      </g>
     </g>
     <g id="text_12">
      <!-- −10 -->
      <g transform="translate(10.398125 97.830356) scale(0.1 -0.1)">
       <use xlink:href="#DejaVuSans-2212"/>
       <use xlink:href="#DejaVuSans-31" x="83.789062"/>
       <use xlink:href="#DejaVuSans-30" x="147.412109"/>
      </g>
     </g>
    </g>
    <g id="ytick_4">
     <g id="line2d_23">
      <path d="M 38.502813 59.693153 
L 426.71952 59.693153 
" clip-path="url(#pa8920fe042)" style="fill: none; stroke-dasharray: 0.8,1.32; stroke-dashoffset: 0; stroke: #000000; stroke-opacity: 0.5; stroke-width: 0.8"/>
     </g>
     <g id="line2d_24">
      <g>
       <use xlink:href="#mf00554c56f" x="38.502813" y="59.693153" style="stroke: #000000; stroke-width: 0.8"/>
      </g>
     </g>
     <g id="text_13">
      <!-- 0 -->
      <g transform="translate(25.140313 63.492371) scale(0.1 -0.1)">
       <use xlink:href="#DejaVuSans-30"/>
      </g>
     </g>
    </g>
    <g id="ytick_5">
     <g id="line2d_25">
      <path d="M 38.502813 25.355169 
L 426.71952 25.355169 
" clip-path="url(#pa8920fe042)" style="fill: none; stroke-dasharray: 0.8,1.32; stroke-dashoffset: 0; stroke: #000000; stroke-opacity: 0.5; stroke-width: 0.8"/>
     </g>
     <g id="line2d_26">
      <g>
       <use xlink:href="#mf00554c56f" x="38.502813" y="25.355169" style="stroke: #000000; stroke-width: 0.8"/>
      </g>
     </g>
     <g id="text_14">
      <!-- 10 -->
      <g transform="translate(18.777813 29.154387) scale(0.1 -0.1)">
       <use xlink:href="#DejaVuSans-31"/>
       <use xlink:href="#DejaVuSans-30" x="63.623047"/>
      </g>
     </g>
    </g>
    <g id="text_15">
     <!-- Kraft [N] -->
     <g transform="translate(8.318438 113.804135) rotate(-90) scale(0.1 -0.1)">
      <defs>
       <path id="DejaVuSans-4b" d="M 628 4666 
L 1259 4666 
L 1259 2694 
L 3353 4666 
L 4166 4666 
L 1850 2491 
L 4331 0 
L 3500 0 
L 1259 2247 
L 1259 0 
L 628 0 
L 628 4666 
z
" transform="scale(0.015625)"/>
       <path id="DejaVuSans-72" d="M 2631 2963 
Q 2534 3019 2420 3045 
Q 2306 3072 2169 3072 
Q 1681 3072 1420 2755 
Q 1159 2438 1159 1844 
L 1159 0 
L 581 0 
L 581 3500 
L 1159 3500 
L 1159 2956 
Q 1341 3275 1631 3429 
Q 1922 3584 2338 3584 
Q 2397 3584 2469 3576 
Q 2541 3569 2628 3553 
L 2631 2963 
z
" transform="scale(0.015625)"/>
       <path id="DejaVuSans-61" d="M 2194 1759 
Q 1497 1759 1228 1600 
Q 959 1441 959 1056 
Q 959 750 1161 570 
Q 1363 391 1709 391 
Q 2188 391 2477 730 
Q 2766 1069 2766 1631 
L 2766 1759 
L 2194 1759 
z
M 3341 1997 
L 3341 0 
L 2766 0 
L 2766 531 
Q 2569 213 2275 61 
Q 1981 -91 1556 -91 
Q 1019 -91 701 211 
Q 384 513 384 1019 
Q 384 1609 779 1909 
Q 1175 2209 1959 2209 
L 2766 2209 
L 2766 2266 
Q 2766 2663 2505 2880 
Q 2244 3097 1772 3097 
Q 1472 3097 1187 3025 
Q 903 2953 641 2809 
L 641 3341 
Q 956 3463 1253 3523 
Q 1550 3584 1831 3584 
Q 2591 3584 2966 3190 
Q 3341 2797 3341 1997 
z
" transform="scale(0.015625)"/>
       <path id="DejaVuSans-66" d="M 2375 4863 
L 2375 4384 
L 1825 4384 
Q 1516 4384 1395 4259 
Q 1275 4134 1275 3809 
L 1275 3500 
L 2222 3500 
L 2222 3053 
L 1275 3053 
L 1275 0 
L 697 0 
L 697 3053 
L 147 3053 
L 147 3500 
L 697 3500 
L 697 3744 
Q 697 4328 969 4595 
Q 1241 4863 1831 4863 
L 2375 4863 
z
" transform="scale(0.015625)"/>
       <path id="DejaVuSans-4e" d="M 628 4666 
L 1478 4666 
L 3547 763 
L 3547 4666 
L 4159 4666 
L 4159 0 
L 3309 0 
L 1241 3903 
L 1241 0 
L 628 0 
L 628 4666 
z
" transform="scale(0.015625)"/>
      </defs>
      <use xlink:href="#DejaVuSans-4b"/>
      <use xlink:href="#DejaVuSans-72" x="65.576172"/>
      <use xlink:href="#DejaVuSans-61" x="106.689453"/>
      <use xlink:href="#DejaVuSans-66" x="167.96875"/>
      <use xlink:href="#DejaVuSans-74" x="201.423828"/>
      <use xlink:href="#DejaVuSans-20" x="240.632812"/>
      <use xlink:href="#DejaVuSans-5b" x="272.419922"/>
      <use xlink:href="#DejaVuSans-4e" x="311.433594"/>
      <use xlink:href="#DejaVuSans-5d" x="386.238281"/>
     </g>
    </g>
   </g>
   <g id="line2d_27">
    <path d="M 38.502813 59.693153 
L 167.37214 59.66758 
L 167.592103 59.581052 
L 168.072688 58.978085 
L 168.238021 58.809862 
L 168.445166 58.817033 
L 169.107821 59.336302 
L 169.315652 59.444614 
L 169.442143 59.933667 
L 169.648632 60.100468 
L 169.774075 59.889829 
L 169.93992 60.001501 
L 169.979168 59.73592 
L 170.311488 60.373225 
L 170.476552 59.852378 
L 170.85002 60.421646 
L 171.184495 59.840711 
L 171.390371 59.611737 
L 171.731979 59.611103 
L 171.853342 58.780258 
L 172.224076 60.277982 
L 172.390467 59.0176 
L 172.597282 60.172589 
L 172.867074 60.502263 
L 172.890431 61.268053 
L 173.219585 59.929436 
L 173.344281 58.439174 
L 173.426692 60.631167 
L 173.761668 59.624054 
L 173.965146 58.339736 
L 174.089983 60.090476 
L 174.256107 59.628248 
L 174.421625 58.685474 
L 174.629721 61.435497 
L 174.835794 59.122424 
L 175.292269 60.894069 
L 175.512596 60.074964 
L 175.717338 60.858913 
L 175.842435 59.256325 
L 175.966082 61.166575 
L 176.174618 61.565998 
L 176.339554 59.017483 
L 176.547265 58.768211 
L 176.712839 59.855474 
L 176.878337 58.156953 
L 177.086584 58.192233 
L 177.211731 61.340387 
L 177.500898 60.045277 
L 177.542799 60.582369 
L 177.708732 60.858229 
L 177.875145 62.024613 
L 178.039763 57.943512 
L 178.206907 58.173302 
L 178.376506 58.970667 
L 178.579448 57.65666 
L 178.706389 61.65391 
L 178.910895 59.60341 
L 179.117783 59.268489 
L 179.24249 57.464888 
L 179.49159 60.869598 
L 179.782056 59.004647 
L 180.112916 60.977505 
L 180.321054 59.807812 
L 180.528161 59.75911 
L 180.735556 59.046719 
L 180.860072 61.424025 
L 181.066874 62.594703 
L 181.152699 60.45169 
L 181.35943 60.874086 
L 181.523004 60.886056 
L 181.843152 59.69095 
L 182.00196 61.032493 
L 182.684974 58.049292 
L 183.005638 59.996579 
L 183.099712 64.974184 
L 183.389727 58.197788 
L 183.721917 63.41451 
L 183.886987 57.349374 
L 184.052953 60.344863 
L 184.343248 63.139188 
L 184.509088 62.170792 
L 184.634012 63.692353 
L 184.846511 56.1391 
L 184.966286 62.46955 
L 185.104134 60.188364 
L 185.321087 60.974896 
L 185.506274 60.049184 
L 185.589918 60.951125 
L 185.770503 61.328865 
L 185.963761 59.447444 
L 186.129707 60.066696 
L 186.336448 59.76931 
L 186.462318 58.43915 
L 186.667948 58.970744 
L 186.834352 57.519672 
L 187.208633 58.824535 
L 187.335181 56.431415 
L 187.705807 60.613843 
L 187.83031 60.516363 
L 188.038914 57.662215 
L 188.244543 59.434303 
L 188.369759 58.498891 
L 188.535505 60.623372 
L 188.702007 65.262357 
L 189.033047 55.208101 
L 189.323182 67.536251 
L 189.614787 59.770639 
L 189.737865 59.271363 
L 189.904158 63.339988 
L 190.070259 62.603328 
L 190.237035 58.277163 
L 190.527056 57.25284 
L 190.611255 62.278239 
L 190.942467 57.541012 
L 191.356029 63.503536 
L 191.523033 57.82796 
L 191.811547 66.015414 
L 192.248529 62.02858 
L 192.417055 60.839166 
L 192.518548 55.436877 
L 192.725323 63.292051 
L 193.265275 49.265596 
L 193.641482 62.804611 
L 193.719918 64.081375 
L 193.979383 60.969522 
L 194.056481 61.204427 
L 194.225003 63.645319 
L 194.383236 61.49374 
L 194.548805 61.357301 
L 194.797579 67.481186 
L 194.922159 61.777813 
L 195.212183 55.949915 
L 195.295114 59.097603 
L 195.461043 57.964984 
L 195.586589 65.531508 
L 195.83521 57.61947 
L 196.001321 59.120991 
L 196.124398 58.260056 
L 196.291833 60.362618 
L 196.580732 66.866949 
L 196.748291 65.697705 
L 196.912717 59.411771 
L 196.954617 59.91312 
L 197.119948 61.806865 
L 197.327727 61.250782 
L 197.540592 61.484779 
L 197.700895 62.899945 
L 197.86703 56.337242 
L 198.003553 60.530093 
L 198.405795 63.843303 
L 198.697139 61.353631 
L 198.878303 62.309347 
L 199.028913 66.694565 
L 199.235536 67.882498 
L 199.483734 65.755487 
L 199.649563 65.755983 
L 199.732634 61.475562 
L 200.022637 60.780102 
L 200.230265 63.871991 
L 200.479468 65.813963 
L 200.648575 59.250494 
L 200.769743 66.272288 
L 200.936176 59.75777 
L 201.269763 66.358112 
L 201.433198 57.156472 
L 201.599156 68.278653 
L 202.32375 60.552595 
L 202.497627 60.022217 
L 202.802977 63.647915 
L 202.933285 62.033279 
L 203.066925 62.107533 
L 203.258895 59.562662 
L 203.345358 65.652272 
L 203.591491 65.273544 
L 203.676205 61.053605 
L 203.881319 59.529548 
L 204.010432 67.206708 
L 204.30162 62.254447 
L 204.466335 70.184694 
L 204.544957 64.243675 
L 204.842997 60.278983 
L 204.974216 66.35924 
L 205.211776 56.255553 
L 205.458934 69.745406 
L 205.562396 63.263653 
L 205.79286 66.724991 
L 205.958517 65.898584 
L 206.123628 57.608609 
L 206.249665 69.917241 
L 206.455061 61.281076 
L 206.579877 62.450501 
L 206.787181 55.337469 
L 206.953379 63.549538 
L 207.326492 61.60093 
L 207.533153 65.006582 
L 207.628418 69.531014 
L 207.823123 59.760885 
L 207.950223 68.062165 
L 207.989909 60.188482 
L 208.15537 63.553955 
L 208.282167 61.660429 
L 208.487201 61.813327 
L 208.654127 60.615415 
L 208.819692 62.582497 
L 209.06875 53.597406 
L 209.364106 71.399473 
L 209.694221 59.109281 
L 209.898115 58.104865 
L 210.022111 68.187408 
L 210.190221 63.251055 
L 210.478378 62.196854 
L 210.72769 55.975038 
L 210.897039 58.999636 
L 211.060182 68.249617 
L 211.229053 66.521509 
L 211.394521 73.928697 
L 211.572053 61.299023 
L 211.726285 69.190903 
L 211.975693 62.954948 
L 212.102259 54.057593 
L 212.265662 61.561621 
L 212.431349 57.252018 
L 212.597417 57.942798 
L 212.805319 64.089328 
L 212.948447 64.921326 
L 213.097541 56.930445 
L 213.345276 59.00273 
L 213.635086 51.683708 
L 213.718524 65.216781 
L 213.800791 54.449186 
L 214.091247 71.691303 
L 214.136742 55.239544 
L 214.329273 61.106889 
L 214.517147 71.331876 
L 214.645376 60.934775 
L 214.961804 75.777491 
L 215.003774 59.577306 
L 215.169079 59.31335 
L 215.542481 66.862815 
L 215.708254 66.125613 
L 215.915184 62.244024 
L 216.043251 65.356777 
L 216.206865 73.759546 
L 216.41344 75.985685 
L 216.58419 68.165477 
L 216.745894 76.81699 
L 216.870653 65.01 
L 217.076131 69.004124 
L 217.242437 59.157841 
L 217.454308 56.515195 
L 217.614932 72.981947 
L 217.947678 61.113818 
L 218.073785 61.492208 
L 218.320226 64.241951 
L 218.452737 69.030467 
L 218.652175 59.883541 
L 218.778428 70.482798 
L 218.993718 62.762335 
L 219.108845 64.370929 
L 219.27589 61.987623 
L 219.48269 69.798342 
L 219.647945 62.669448 
L 219.813668 62.872317 
L 220.16022 61.528402 
L 220.313743 60.332657 
L 220.561116 71.443274 
L 220.685603 61.043564 
L 220.851507 68.278326 
L 221.028229 60.973894 
L 221.185178 69.673531 
L 221.473407 50.664153 
L 221.556393 62.263307 
L 221.76367 50.932783 
L 221.888417 66.886023 
L 222.261216 60.915168 
L 222.386698 53.471442 
L 222.551674 64.306682 
L 222.75861 64.220273 
L 222.900334 66.597134 
L 223.095895 61.901156 
L 223.299739 64.839402 
L 223.506579 65.582201 
L 223.631297 60.651372 
L 223.879809 64.606022 
L 224.088084 69.874146 
L 224.128783 66.099647 
L 224.294277 64.431443 
L 224.501503 68.01691 
L 224.628545 63.951773 
L 224.87638 65.06894 
L 224.999346 73.105453 
L 225.165961 69.293933 
L 225.30129 62.556444 
L 225.500074 64.28134 
L 225.930244 66.047958 
L 226.047075 65.520742 
L 226.207896 70.920878 
L 226.374016 56.314408 
L 226.583675 66.890158 
L 226.755858 66.423342 
L 226.913659 67.931082 
L 227.012404 66.802866 
L 227.342758 69.618103 
L 227.392505 69.066588 
L 227.592455 61.399884 
L 227.758081 72.300461 
L 227.883821 58.104305 
L 228.131341 63.903134 
L 228.512468 53.447769 
L 228.630703 70.584688 
L 228.795006 69.153123 
L 229.043821 54.91553 
L 229.13178 64.923923 
L 229.292654 64.270384 
L 229.541201 62.256828 
L 229.626368 180.831669 
L 230.038834 164.82991 
L 230.338196 88.627147 
L 230.577786 85.332784 
L 230.82737 62.045711 
L 231.344786 55.037636 
L 231.577432 55.674723 
L 231.798122 57.288448 
L 231.880109 40.156393 
L 232.04936 53.688935 
L 232.258259 46.054945 
L 232.337894 58.795715 
L 232.547216 54.604702 
L 232.792382 59.810806 
L 232.999197 59.865205 
L 233.082376 60.256707 
L 233.206972 63.068159 
L 233.457252 51.77722 
L 233.624338 52.261122 
L 233.999199 66.935274 
L 234.080582 60.579423 
L 234.286248 70.554832 
L 234.576824 59.714038 
L 234.783175 57.333646 
L 234.950203 59.709926 
L 235.11523 49.561886 
L 235.281034 56.735278 
L 235.450774 58.316069 
L 235.655156 46.887655 
L 236.151866 60.714333 
L 236.324735 59.110989 
L 236.484455 60.031854 
L 236.651736 59.988792 
L 236.817354 67.824562 
L 237.106334 67.051283 
L 237.189713 58.551628 
L 237.482227 64.73966 
L 237.527784 53.668745 
L 237.689531 60.345658 
L 238.14327 59.552669 
L 238.2678 57.997906 
L 238.392143 60.498161 
L 238.558722 51.290395 
L 238.727855 53.207828 
L 238.892169 58.518422 
L 239.115918 54.908846 
L 239.387212 61.350579 
L 239.428711 57.98528 
L 239.594769 60.2449 
L 239.760597 59.574665 
L 239.928434 61.396383 
L 240.092821 60.082712 
L 240.259079 51.109435 
L 240.466943 65.046181 
L 240.729629 59.225326 
L 240.963756 67.775628 
L 241.128739 54.144228 
L 241.419183 59.870013 
L 241.502199 59.712427 
L 241.710003 59.591414 
L 241.835474 64.453612 
L 242.041257 60.616708 
L 242.218911 65.889899 
L 242.55692 57.00245 
L 242.710371 61.921754 
L 243.036737 60.557909 
L 243.201958 61.923994 
L 243.409889 59.676032 
L 243.742776 63.783193 
L 243.908832 58.049549 
L 244.075172 60.254074 
L 244.246002 64.655538 
L 244.493018 55.235398 
L 244.800421 60.630453 
L 244.945504 60.304739 
L 245.278198 67.977723 
L 245.460656 65.52533 
L 245.6088 57.841908 
L 245.774819 57.313839 
L 245.941777 57.41395 
L 246.106994 62.108085 
L 246.396875 59.145876 
L 246.480254 56.899139 
L 246.688295 61.592891 
L 246.813778 59.707593 
L 246.983913 51.47516 
L 247.250664 64.56547 
L 247.329504 57.814483 
L 247.561323 60.951904 
L 247.769858 51.307334 
L 247.852662 61.183645 
L 248.141921 60.012768 
L 248.224944 60.728112 
L 248.348878 59.732412 
L 248.556392 56.622064 
L 248.763845 66.330389 
L 248.88818 61.268535 
L 249.054 59.420792 
L 249.22004 60.805774 
L 249.386714 57.289965 
L 249.596948 63.675357 
L 249.718457 63.86447 
L 249.926052 57.126242 
L 250.066819 59.00359 
L 250.25687 59.533171 
L 250.506274 66.669316 
L 250.603771 59.707046 
L 250.755353 59.708128 
L 250.920532 58.80616 
L 251.210704 60.344317 
L 251.293338 57.131826 
L 251.626994 62.397264 
L 251.792847 60.490442 
L 252.007021 61.618607 
L 252.165822 63.720481 
L 252.293748 55.039151 
L 252.496563 61.222542 
L 252.706411 61.166339 
L 252.871106 53.92862 
L 252.99455 63.498639 
L 253.165828 59.115156 
L 253.36734 57.393762 
L 253.574021 58.871692 
L 253.698526 60.980011 
L 253.864927 59.87294 
L 254.156567 58.777883 
L 254.198387 60.138674 
L 254.406504 59.944057 
L 254.542501 59.553147 
L 254.698803 63.751945 
L 254.944477 59.461606 
L 255.110542 59.650762 
L 255.317541 61.343978 
L 255.607942 49.092623 
L 255.815387 62.025702 
L 256.105723 59.444194 
L 256.271124 51.029683 
L 256.519706 68.099932 
L 256.645377 58.513388 
L 256.852167 62.309043 
L 257.059435 58.715582 
L 257.308719 67.230078 
L 257.55682 58.1088 
L 257.848371 59.100055 
L 258.13694 52.616202 
L 258.344332 64.03708 
L 258.510617 59.60867 
L 258.676182 60.510537 
L 258.883911 59.179881 
L 259.090992 59.707344 
L 259.180042 66.564566 
L 259.390162 59.742173 
L 259.555059 59.630753 
L 259.878695 67.134381 
L 260.170453 66.375364 
L 260.25215 57.635253 
L 260.378588 60.211509 
L 260.624836 59.120064 
L 260.833066 60.536354 
L 260.925458 62.68729 
L 261.217238 59.707684 
L 261.291853 63.432185 
L 261.457507 63.816416 
L 261.62349 58.68007 
L 261.793777 58.724451 
L 261.9967 59.83237 
L 262.121079 59.022085 
L 262.333093 61.74802 
L 262.501148 65.66139 
L 262.702624 52.546042 
L 262.787279 64.578227 
L 262.963238 60.496471 
L 263.162493 63.955003 
L 263.333761 59.410194 
L 263.490584 59.767363 
L 263.698297 61.200389 
L 263.86419 56.612163 
L 264.030171 59.225941 
L 264.230218 64.224995 
L 264.406474 51.286756 
L 264.559477 60.249831 
L 264.697618 58.652459 
L 264.902419 66.727054 
L 265.39929 58.887597 
L 265.607052 60.910627 
L 265.73121 59.569647 
L 265.896843 60.868742 
L 266.104126 50.259112 
L 266.311416 59.154959 
L 266.435941 58.371095 
L 266.651561 66.519202 
L 266.812423 59.707292 
L 267.017079 59.707493 
L 267.143552 59.997045 
L 267.265749 60.931317 
L 267.474411 59.707816 
L 267.637873 63.412175 
L 267.858294 63.814322 
L 267.971726 58.053095 
L 268.181608 65.7951 
L 268.387957 59.673096 
L 268.518424 60.739422 
L 268.679162 60.168771 
L 268.807534 57.675371 
L 269.010967 58.006145 
L 269.302164 49.57106 
L 269.38594 62.288689 
L 269.676314 58.8059 
L 269.841292 60.314895 
L 270.047991 66.244879 
L 270.216902 60.878821 
L 270.379728 60.657005 
L 270.545791 59.206499 
L 270.752947 60.477364 
L 271.125855 65.073978 
L 271.498396 58.690878 
L 271.872285 66.967372 
L 271.913154 45.098956 
L 272.165896 58.527555 
L 272.369808 61.263164 
L 272.413556 60.551353 
L 272.669632 60.38643 
L 272.784705 58.98202 
L 272.952115 63.436656 
L 273.199024 59.102343 
L 273.324085 59.629229 
L 273.53568 63.098342 
L 273.657953 49.975344 
L 273.82134 58.582169 
L 274.196583 58.975286 
L 274.321023 67.982418 
L 274.485885 66.95567 
L 274.680553 58.321728 
L 275.026064 59.707541 
L 275.191841 59.594972 
L 275.398863 66.893535 
L 275.523705 59.523188 
L 275.773336 61.138172 
L 275.93834 55.323099 
L 276.06276 57.712442 
L 276.311749 58.634411 
L 276.394572 62.324527 
L 276.561025 61.895088 
L 276.768191 62.607273 
L 276.933694 59.333708 
L 277.182333 59.155062 
L 277.306299 60.300775 
L 277.602201 59.585141 
L 277.762832 56.642566 
L 277.929639 63.472915 
L 278.136501 58.119877 
L 278.260601 60.903246 
L 278.468023 59.190873 
L 278.633894 59.667342 
L 278.799534 65.283465 
L 278.965744 59.017091 
L 279.131096 57.896965 
L 279.669679 66.774114 
L 279.878463 60.001649 
L 280.084202 59.09185 
L 280.254342 54.246733 
L 280.374434 65.594765 
L 280.664929 59.516288 
L 280.707091 60.129166 
L 280.87328 60.633501 
L 281.162822 59.591065 
L 281.246472 68.153041 
L 281.452269 53.992533 
L 281.577205 60.30487 
L 281.742667 60.055633 
L 281.908955 66.327592 
L 282.240239 59.506241 
L 282.408575 58.515591 
L 282.613615 60.15846 
L 282.822097 59.634808 
L 282.863033 59.201083 
L 282.946243 59.706941 
L 283.195056 59.708686 
L 283.277358 63.175363 
L 283.443835 58.569054 
L 283.652216 49.581429 
L 284.147687 59.401472 
L 284.410977 59.469978 
L 284.483738 60.311672 
L 284.645807 55.870134 
L 284.812589 65.435497 
L 285.146679 58.954988 
L 285.434405 66.370081 
L 285.589971 54.507801 
L 285.683437 58.663114 
L 285.848892 58.680032 
L 286.01473 59.26503 
L 286.185335 59.062771 
L 286.387779 58.476477 
L 286.637106 61.411585 
L 286.719907 65.459093 
L 286.927579 61.98038 
L 287.096915 61.033604 
L 287.259239 63.267937 
L 287.550005 60.387238 
L 287.717488 58.906673 
L 287.924174 58.304788 
L 288.088619 59.012662 
L 288.254177 64.622812 
L 288.503461 59.556555 
L 288.627545 61.715583 
L 288.793406 60.331886 
L 288.959052 66.26333 
L 289.125201 59.59664 
L 289.333503 59.159762 
L 289.582224 61.342649 
L 289.748963 61.585654 
L 289.914395 52.075046 
L 289.9972 64.577424 
L 290.33018 57.986123 
L 290.500979 62.901319 
L 290.702783 64.53673 
L 290.870098 58.651929 
L 291.034183 57.892213 
L 291.242118 60.53085 
L 291.367064 58.881068 
L 291.574797 50.307867 
L 291.698397 63.755924 
L 291.864183 59.120592 
L 292.030386 59.800495 
L 292.237578 61.691918 
L 292.370664 52.897138 
L 292.534833 59.345536 
L 292.735873 60.857072 
L 293.069791 58.195097 
L 293.235936 62.154705 
L 293.449229 51.535749 
L 293.607703 60.216761 
L 293.939573 57.437816 
L 294.107757 50.445288 
L 294.273493 58.867074 
L 294.477985 58.614267 
L 294.645483 61.48583 
L 294.851356 60.255843 
L 294.977207 48.652114 
L 295.14194 50.22461 
L 295.30829 60.883021 
L 295.475827 60.025928 
L 295.724217 62.83852 
L 295.849825 48.980285 
L 296.015508 59.57612 
L 296.21135 59.842707 
L 296.43168 58.258976 
L 296.595835 64.526897 
L 296.678688 51.688843 
L 296.845169 50.716056 
L 297.052033 60.82993 
L 297.260455 60.365284 
L 297.385752 57.532838 
L 297.551585 62.343504 
L 297.759453 59.854006 
L 297.882771 60.673793 
L 298.090962 60.429742 
L 298.256243 57.205615 
L 298.422527 67.111711 
L 298.71228 59.707708 
L 298.762909 60.881571 
L 298.96197 59.417696 
L 299.09469 56.446367 
L 299.369096 64.847766 
L 299.458192 57.15255 
L 299.618168 59.628194 
L 299.826935 60.75937 
L 300.075903 60.453609 
L 300.118274 66.401035 
L 300.324699 58.09524 
L 300.49011 58.303978 
L 300.832148 59.708658 
L 301.112921 58.120345 
L 301.154643 58.695024 
L 301.362236 57.89689 
L 301.530843 59.91487 
L 301.698668 55.816967 
L 301.835811 62.397399 
L 302.026745 55.82545 
L 302.567853 61.06668 
L 302.858153 59.52023 
L 302.899353 60.309478 
L 303.065972 57.157171 
L 303.313816 59.146426 
L 303.438081 64.476619 
L 303.564915 64.273868 
L 303.729451 65.470872 
L 303.895373 60.141509 
L 304.117223 59.665515 
L 304.270338 60.389055 
L 304.434877 54.319972 
L 304.599794 60.064856 
L 304.766122 59.268803 
L 304.973517 60.089519 
L 305.099461 58.555931 
L 305.46998 56.982117 
L 305.475902 120.831068 
L 305.639145 58.78201 
L 305.887001 65.906035 
L 306.012076 63.423455 
L 306.184017 63.181197 
L 306.345573 58.880437 
L 306.593697 58.727015 
L 306.676907 63.901144 
L 306.805438 58.952678 
L 307.008402 57.592947 
L 307.174443 59.706551 
L 307.34107 59.231675 
L 307.507939 57.72423 
L 307.799879 49.559472 
L 307.837875 66.491872 
L 308.087747 60.035626 
L 308.215475 60.592113 
L 308.378633 59.645459 
L 308.544864 59.477117 
L 308.836812 59.857805 
L 308.923762 63.083403 
L 309.101398 58.979427 
L 309.250121 65.870588 
L 309.422157 65.035367 
L 309.45809 57.433468 
L 309.624294 54.270432 
L 309.790871 59.729338 
L 309.918006 57.557656 
L 310.082723 60.076738 
L 310.288257 59.795333 
L 310.619953 48.687323 
L 310.951654 67.827297 
L 311.118262 68.5101 
L 311.507522 59.504325 
L 311.659303 59.151442 
L 311.823265 24.615615 
L 311.99015 21.79187 
L 312.336716 40.457333 
L 312.498394 41.814981 
L 312.661092 42.084158 
L 312.841523 52.164322 
L 313.379178 60.077307 
L 313.577042 57.927256 
L 313.746276 60.843387 
L 313.950077 60.885696 
L 314.033802 64.354908 
L 314.201629 62.748646 
L 314.495707 67.05203 
L 314.578649 60.05357 
L 314.739947 60.513265 
L 314.909075 62.011773 
L 315.166889 56.864822 
L 315.278734 58.895304 
L 315.48951 58.275318 
L 315.652905 59.757206 
L 315.818567 62.84602 
L 316.027603 55.169913 
L 316.194183 66.523387 
L 316.613191 52.249186 
L 316.797756 58.153818 
L 316.986216 56.216059 
L 317.20556 60.545167 
L 317.320802 69.154634 
L 317.564282 61.140016 
L 317.706398 63.988487 
L 317.85523 58.86202 
L 318.0634 61.255744 
L 318.187507 57.943022 
L 318.353457 57.209058 
L 318.521708 58.278077 
L 318.782499 64.229143 
L 318.85217 62.658474 
L 319.100521 60.089699 
L 319.225076 57.564382 
L 319.558885 64.582268 
L 319.841148 57.21488 
L 320.006421 58.197632 
L 320.136768 55.742559 
L 320.297066 70.917166 
L 320.504369 55.875704 
L 320.753858 58.666671 
L 321.085565 65.41775 
L 321.335238 54.152991 
L 321.708592 63.840661 
L 321.79598 51.144764 
L 322.165521 61.871841 
L 322.331441 59.073867 
L 322.499834 63.367298 
L 322.663992 61.863028 
L 322.833021 58.488601 
L 322.996495 60.201764 
L 323.16259 65.889566 
L 323.335657 58.560801 
L 323.498092 63.320592 
L 323.706095 57.659778 
L 323.836843 60.413061 
L 324.203811 59.275499 
L 324.370413 64.910902 
L 324.659943 58.385098 
L 324.721012 60.28995 
L 324.909506 56.242067 
L 325.116151 56.168741 
L 325.323389 61.016878 
L 325.448723 58.186804 
L 325.614606 65.715812 
L 325.785326 59.514427 
L 325.947257 59.916377 
L 326.238562 55.402466 
L 326.412047 63.122279 
L 326.611344 57.552532 
L 326.78644 59.099307 
L 326.948721 65.895656 
L 327.207242 60.082646 
L 327.32073 65.77073 
L 327.443537 56.474761 
L 327.669682 55.065222 
L 327.816366 66.24437 
L 328.108854 60.158658 
L 328.165571 62.003124 
L 328.32193 57.181209 
L 328.481153 61.611932 
L 328.64752 61.779042 
L 328.940757 58.522993 
L 329.072537 54.067542 
L 329.36207 67.00647 
L 329.652278 60.407844 
L 329.694481 63.440224 
L 330.151062 57.901378 
L 330.19387 58.720519 
L 330.481735 66.652987 
L 330.564866 55.575078 
L 330.731867 61.931759 
L 330.896731 59.032555 
L 331.186949 62.136384 
L 331.270016 59.469512 
L 331.436321 61.434578 
L 331.60623 61.232896 
L 331.643987 58.785004 
L 331.769346 62.545775 
L 331.934519 71.458058 
L 332.102296 58.175456 
L 332.308094 56.969282 
L 332.43322 60.090676 
L 332.655635 60.051153 
L 332.767125 56.635799 
L 332.97483 67.716933 
L 333.140408 58.396572 
L 333.309014 61.98231 
L 333.514844 56.744193 
L 333.806007 63.646814 
L 334.013531 58.513593 
L 334.14328 62.034049 
L 334.42815 62.705036 
L 334.530533 58.987661 
L 334.679608 59.405052 
L 334.859288 60.763148 
L 335.009353 60.231323 
L 335.175884 56.757763 
L 335.347981 59.228417 
L 335.555985 64.81378 
L 335.723733 59.361648 
L 335.931453 58.03272 
L 336.261414 60.417227 
L 336.386343 56.77464 
L 336.593826 59.855601 
L 336.759288 58.699671 
L 337.036051 60.860227 
L 337.138595 57.919123 
L 337.261473 66.830414 
L 337.632443 57.374979 
L 337.845969 61.571934 
L 337.964258 57.07359 
L 338.137004 59.165845 
L 338.389539 57.57798 
L 338.463953 55.143611 
L 338.633677 54.661406 
L 338.797148 62.609439 
L 339.010774 63.511781 
L 339.18314 60.648544 
L 339.338692 62.323653 
L 339.503594 61.07084 
L 339.674798 64.373117 
L 340.005552 57.461339 
L 340.211833 56.986025 
L 340.417118 59.582723 
L 340.541933 56.912585 
L 340.832671 62.720865 
L 341.073503 59.161522 
L 341.399078 60.985678 
L 341.609234 53.874355 
L 341.737669 64.549234 
L 341.93982 63.660143 
L 342.151599 59.352366 
L 342.273927 65.770924 
L 342.605046 58.272533 
L 342.937427 66.198706 
L 343.102823 65.851891 
L 343.269013 57.928028 
L 343.435661 68.1255 
L 343.725777 65.077986 
L 343.829534 53.72542 
L 344.099723 63.517806 
L 344.182432 57.749732 
L 344.348416 63.461407 
L 344.514318 57.276792 
L 344.721412 63.356031 
L 344.813396 59.655078 
L 344.993925 58.042498 
L 345.181784 65.923437 
L 345.387017 62.422628 
L 345.525221 64.188785 
L 345.678126 63.547299 
L 345.845578 54.681139 
L 346.109824 58.247846 
L 346.219824 56.641684 
L 346.383739 66.030361 
L 346.570196 59.817564 
L 346.774464 60.125094 
L 346.929406 59.406523 
L 347.13467 64.120307 
L 347.432378 55.714643 
L 347.610518 63.560275 
L 347.812893 59.151547 
L 347.897482 65.953771 
L 348.100811 59.386166 
L 348.308348 56.899642 
L 348.515742 60.357883 
L 348.598891 57.38414 
L 348.806141 60.901953 
L 348.977588 69.106579 
L 349.304427 57.703614 
L 349.47129 56.443253 
L 349.844641 62.560567 
L 350.012049 62.369833 
L 350.175789 60.434452 
L 350.34163 62.411224 
L 350.508276 59.236632 
L 350.67893 60.047936 
L 350.841623 60.124925 
L 351.006434 59.211841 
L 351.257039 62.464821 
L 351.380226 66.1797 
L 351.547773 59.241852 
L 351.75397 63.027988 
L 352.127203 58.953589 
L 352.302626 58.073554 
L 352.418432 58.959876 
L 352.625981 58.015511 
L 352.791429 61.192154 
L 353.098215 58.298244 
L 353.248422 58.462329 
L 353.45844 59.499323 
L 353.662257 55.110552 
L 353.953568 61.480649 
L 354.121182 58.141848 
L 354.285471 61.650764 
L 354.504945 57.341581 
L 354.629467 58.333139 
L 354.79515 55.04794 
L 355.127769 54.456381 
L 355.169495 60.108526 
L 355.376697 54.755258 
L 355.670175 60.131439 
L 355.832743 60.127266 
L 356.039958 62.540938 
L 356.165537 66.964925 
L 356.373504 60.369357 
L 356.579788 61.245352 
L 356.70401 59.29852 
L 356.914665 60.791539 
L 357.080208 57.774259 
L 357.244975 66.809028 
L 357.577453 60.046802 
L 357.720344 62.90482 
L 357.911932 61.527203 
L 358.151598 57.420781 
L 358.455802 62.965219 
L 358.620771 61.441039 
L 358.787003 66.515104 
L 359.118747 58.384866 
L 359.284997 61.559915 
L 359.452832 62.371458 
L 359.658684 66.130401 
L 359.783703 59.023218 
L 360.003568 59.995465 
L 360.156545 54.758741 
L 360.366132 66.289321 
L 360.571805 58.697896 
L 360.695951 58.590391 
L 361.030356 62.05547 
L 361.070572 66.211717 
L 361.194597 61.043688 
L 361.364832 58.864963 
L 361.702593 60.143715 
L 361.858873 57.742455 
L 362.025558 64.118576 
L 362.273976 63.494032 
L 362.398408 57.332012 
L 362.522582 62.186409 
L 362.814933 56.635253 
L 362.854919 63.756607 
L 363.106715 62.304416 
L 363.275235 64.476431 
L 363.439603 60.870406 
L 363.602606 60.69699 
L 363.768202 60.07326 
L 363.939195 56.106061 
L 364.150577 63.085523 
L 364.273641 59.570604 
L 364.445173 59.661876 
L 364.610802 57.092667 
L 364.780534 61.373956 
L 364.942428 60.588706 
L 365.149659 65.599847 
L 365.277996 57.623947 
L 365.483121 66.893573 
L 365.693161 52.565915 
L 365.855104 67.128632 
L 366.032869 68.21201 
L 366.188117 54.163259 
L 366.482734 62.128925 
L 366.519435 58.830329 
L 366.685325 63.05579 
L 366.976192 59.252681 
L 367.018215 59.790221 
L 367.185628 58.117403 
L 367.52992 61.929999 
L 367.74185 59.867371 
L 367.890856 64.084142 
L 368.069412 59.857944 
L 368.223268 60.868929 
L 368.389692 65.124019 
L 368.556487 53.478249 
L 368.77355 66.09126 
L 369.054915 54.85827 
L 369.097542 60.401573 
L 369.261187 56.267364 
L 369.59709 61.325905 
L 369.717568 61.341747 
L 369.809147 56.914659 
L 369.939491 60.717846 
L 370.18811 55.121904 
L 370.341599 59.050011 
L 370.495833 58.67834 
L 370.654645 62.432216 
L 370.821023 62.619465 
L 370.98985 65.448958 
L 371.241892 55.617408 
L 371.352999 60.15938 
L 371.518107 58.256892 
L 371.766469 57.827116 
L 371.895995 61.766409 
L 372.018108 56.874859 
L 372.223325 55.247125 
L 372.557244 61.020188 
L 372.764978 56.159999 
L 372.889091 60.577328 
L 373.068831 61.456437 
L 373.303165 59.442555 
L 373.396931 63.844089 
L 373.59294 67.489308 
L 373.800147 84.831179 
L 373.926978 75.285328 
L 374.092259 83.68124 
L 374.270184 74.502032 
L 374.464896 77.932733 
L 374.797878 69.208147 
L 374.967332 73.11087 
L 375.138826 63.468519 
L 375.461779 57.477447 
L 375.766989 57.383609 
L 375.927844 59.146948 
L 376.168486 57.344488 
L 376.368385 59.201392 
L 376.54214 59.15675 
L 376.8735 60.592669 
L 376.915065 60.164135 
L 377.164664 59.972755 
L 377.253625 60.60726 
L 377.539404 59.966135 
L 377.888539 59.714426 
L 377.966966 59.845589 
L 378.084021 59.71058 
L 378.998275 59.693153 
L 379.256506 59.56381 
L 379.537678 59.655884 
L 379.707129 59.435167 
L 379.954105 59.713347 
L 386.8545 59.693153 
L 426.71952 59.693153 
L 426.71952 59.693153 
" clip-path="url(#pa8920fe042)" style="fill: none; stroke: #0000ff; stroke-opacity: 0.5; stroke-width: 1.75; stroke-linecap: square"/>
   </g>
   <g id="line2d_28">
    <path d="M 38.502813 75.331953 
L 38.586372 73.124331 
L 38.755356 73.577515 
L 38.804889 75.094332 
L 38.925958 73.703002 
L 39.138881 74.090028 
L 39.465054 73.957373 
L 39.755109 74.925033 
L 39.921427 74.41941 
L 39.962962 74.914027 
L 40.253316 75.297363 
L 40.419091 75.290764 
L 40.629228 75.875096 
L 40.959149 76.296747 
L 40.999568 76.177917 
L 41.165207 75.958402 
L 41.373431 75.207543 
L 41.581581 75.640099 
L 41.745801 74.722578 
L 42.03648 75.929122 
L 42.202052 74.5746 
L 42.369418 75.237778 
L 42.536733 74.730382 
L 42.744351 75.753089 
L 42.907635 74.602817 
L 43.281243 75.181143 
L 43.489221 76.109508 
L 43.619341 74.994666 
L 43.947639 74.64673 
L 44.279421 75.355092 
L 44.570921 74.129141 
L 44.696674 75.120783 
L 44.777286 74.925422 
L 44.947605 75.725553 
L 45.11271 74.733162 
L 45.483826 75.167791 
L 45.903891 75.09333 
L 46.80912 75.305949 
L 48.624371 74.777983 
L 50.440343 74.719933 
L 51.431258 75.013231 
L 52.421423 74.616483 
L 53.329477 74.75885 
L 53.427299 75.472751 
L 53.924577 73.727155 
L 54.131233 75.394891 
L 54.339744 76.02961 
L 54.464565 75.002495 
L 54.629176 76.108193 
L 54.757348 75.411812 
L 54.923122 73.89382 
L 55.131559 75.483628 
L 55.295037 75.749093 
L 55.501873 74.952541 
L 55.627036 75.511749 
L 55.794147 75.539042 
L 56.000476 74.092654 
L 56.333064 75.223175 
L 56.538774 74.958332 
L 56.746749 75.60271 
L 56.829666 74.806714 
L 56.995956 74.593126 
L 57.162972 76.66929 
L 57.380299 76.822064 
L 57.536176 75.496345 
L 57.708895 76.432652 
L 57.909483 75.819448 
L 58.035666 74.776421 
L 58.283578 76.935095 
L 58.617422 75.631912 
L 58.738834 75.884764 
L 58.906011 74.688939 
L 59.112035 74.107261 
L 59.444054 75.990037 
L 59.57008 77.337288 
L 59.734499 76.392845 
L 59.945891 74.218076 
L 60.149775 74.939635 
L 60.315794 76.224287 
L 60.482862 75.157363 
L 60.651843 75.075258 
L 60.780423 77.052768 
L 60.985313 76.464366 
L 61.31567 74.227283 
L 61.399524 74.267403 
L 61.689168 75.530667 
L 61.856638 76.141748 
L 62.061554 75.352351 
L 62.228562 75.182047 
L 62.352275 75.898136 
L 62.68377 74.845115 
L 62.811021 73.990055 
L 63.223481 75.551631 
L 63.555706 73.76794 
L 63.762615 74.375853 
L 63.969792 74.56253 
L 64.138491 74.433177 
L 64.393611 76.425697 
L 64.426358 76.127902 
L 64.59281 76.124728 
L 64.799248 75.933186 
L 64.924123 75.324824 
L 65.296761 77.26587 
L 65.433672 76.069989 
L 65.629405 76.565653 
L 65.79508 76.661085 
L 66.12709 74.402478 
L 66.292234 75.382993 
L 66.666937 75.940887 
L 66.831905 74.615119 
L 66.998738 74.653591 
L 67.164201 74.857428 
L 67.329425 74.137133 
L 67.579629 73.757891 
L 67.869183 76.849659 
L 68.203445 74.031075 
L 68.615701 74.998226 
L 68.704602 73.823184 
L 69.071897 77.162534 
L 69.19689 76.31857 
L 69.362975 73.841771 
L 69.610891 73.499916 
L 69.735185 75.114438 
L 69.900835 74.924207 
L 70.067893 73.433168 
L 70.232949 74.268342 
L 70.442476 76.00248 
L 70.647809 75.49544 
L 70.771729 73.687722 
L 70.938447 73.25903 
L 71.103606 74.505636 
L 71.435806 74.952131 
L 71.850287 75.356184 
L 72.057258 74.317917 
L 72.16935 73.078351 
L 72.306769 74.016149 
L 72.472629 76.011234 
L 72.68036 76.760339 
L 73.011448 74.208937 
L 73.219987 74.024267 
L 73.347664 74.904716 
L 73.635317 75.560478 
L 73.71742 76.076691 
L 74.008375 77.186544 
L 74.267415 77.200167 
L 74.387394 75.569099 
L 74.712525 75.629807 
L 74.795672 76.352832 
L 74.960994 76.706555 
L 75.127159 76.482905 
L 75.210143 76.181043 
L 75.500665 75.928032 
L 75.584476 75.486711 
L 75.749183 75.567461 
L 76.080569 75.984185 
L 76.247047 75.6411 
L 76.619711 73.221308 
L 76.758815 73.149558 
L 77.117194 74.153721 
L 77.490397 71.540892 
L 77.699691 72.523438 
L 77.988685 75.8159 
L 78.156673 76.026573 
L 78.430009 75.768271 
L 78.550041 75.930079 
L 78.821169 75.575244 
L 78.903987 75.094279 
L 78.942776 75.435166 
L 78.988623 76.931977 
L 79.193863 77.912871 
L 79.400009 76.50278 
L 79.541804 74.010914 
L 79.743602 73.400911 
L 80.037769 76.728699 
L 80.229943 76.116431 
L 80.395929 74.989965 
L 80.610261 75.783325 
L 80.818879 76.022383 
L 81.146019 73.50775 
L 81.560211 74.886355 
L 81.654305 76.181079 
L 82.588081 74.536421 
L 83.490609 74.947415 
L 84.484611 74.810675 
L 84.539711 77.522981 
L 84.830519 74.49649 
L 85.245405 73.552354 
L 85.675042 75.194575 
L 86.220877 69.744328 
L 86.428224 70.075903 
L 86.637062 71.681988 
L 86.968483 76.660671 
L 87.095991 77.58696 
L 87.299607 76.994989 
L 87.631764 75.019962 
L 87.881858 76.157757 
L 87.964585 78.014517 
L 88.170882 78.623848 
L 88.379231 77.485467 
L 88.798634 71.595097 
L 88.977442 71.902404 
L 89.143635 73.907539 
L 89.342647 74.83872 
L 89.671525 72.368822 
L 89.838354 72.757874 
L 90.188339 75.186932 
L 90.558863 75.883301 
L 90.709146 74.905448 
L 90.881089 74.684302 
L 91.404457 78.256443 
L 91.642758 76.683647 
L 91.749195 75.060438 
L 91.942447 75.477691 
L 92.42128 77.345194 
L 92.570173 76.191159 
L 92.750864 73.827331 
L 92.964533 73.993028 
L 93.20664 73.9632 
L 93.289089 73.717764 
L 93.620737 74.224265 
L 93.828095 73.960757 
L 94.124706 74.442364 
L 94.456954 75.952686 
L 94.708442 75.431069 
L 94.871228 74.468074 
L 95.078358 75.503645 
L 95.164617 77.051977 
L 95.410511 76.361614 
L 95.624723 74.891664 
L 95.700833 75.37822 
L 95.844986 77.293304 
L 96.033529 78.095323 
L 96.365452 74.092731 
L 96.533178 74.410881 
L 96.698446 74.981975 
L 97.028904 74.848132 
L 97.074634 75.668871 
L 97.245392 76.261815 
L 97.699946 73.267128 
L 97.775202 72.576266 
L 98.106751 75.977092 
L 98.646014 75.521122 
L 98.97864 73.327791 
L 99.144276 73.180912 
L 99.479906 75.56999 
L 99.813818 74.655613 
L 100.143197 75.137781 
L 100.349394 75.091281 
L 100.598244 74.742664 
L 100.84697 75.931366 
L 101.096004 76.318891 
L 101.17921 76.189841 
L 101.344827 76.214744 
L 101.553004 75.894785 
L 101.966145 76.142516 
L 102.216377 76.902325 
L 102.381921 76.538448 
L 102.921276 74.379184 
L 103.252732 74.885918 
L 103.752331 73.678138 
L 104.093092 74.28503 
L 104.303186 75.438168 
L 104.434478 77.024206 
L 104.664595 76.680356 
L 104.790767 74.820176 
L 104.976665 74.864646 
L 105.133516 76.604832 
L 105.298948 76.449327 
L 105.466524 74.68992 
L 105.63046 74.264408 
L 106.003645 76.389021 
L 106.377275 73.438347 
L 106.543079 73.418795 
L 106.708477 74.358094 
L 107.130818 73.038188 
L 107.288914 73.74795 
L 107.3753 74.793066 
L 107.537976 75.299748 
L 107.891354 73.447055 
L 108.04783 73.650151 
L 108.297433 74.910049 
L 108.449944 75.067442 
L 109.114869 74.007288 
L 109.280227 74.339063 
L 109.821345 79.373648 
L 110.330151 76.059019 
L 110.662074 78.859412 
L 110.82907 79.210321 
L 111.325549 73.368862 
L 111.532335 73.631847 
L 111.662038 75.578081 
L 111.989816 77.750502 
L 112.154655 77.92727 
L 112.196663 76.409911 
L 112.362925 75.214766 
L 112.528257 74.983195 
L 112.859922 77.335442 
L 113.068415 77.482584 
L 113.321516 75.898765 
L 113.398649 74.068954 
L 113.606154 73.756819 
L 114.066584 77.601055 
L 114.43611 75.15668 
L 114.891575 76.168746 
L 114.974552 76.950954 
L 115.431779 75.757239 
L 115.638632 75.755276 
L 116.095338 76.729218 
L 116.137027 75.896071 
L 116.468387 73.193382 
L 117.01656 74.704542 
L 117.379816 72.342442 
L 117.710841 75.336377 
L 117.836784 77.359346 
L 118.084294 79.026549 
L 118.293001 78.365521 
L 118.376952 76.535671 
L 118.541457 76.331565 
L 118.914957 78.789489 
L 119.41232 74.089432 
L 119.576937 74.098837 
L 119.785263 75.195124 
L 120.201611 78.68001 
L 120.286958 78.637052 
L 120.449973 76.7308 
L 120.664939 75.59243 
L 121.115126 78.394326 
L 121.280508 77.414879 
L 121.693199 73.519459 
L 121.984124 72.11661 
L 122.356332 76.615966 
L 122.523333 76.897745 
L 123.021076 71.874497 
L 123.186902 72.350884 
L 123.561563 75.413521 
L 123.729163 74.226505 
L 124.056862 71.101945 
L 124.225808 71.73418 
L 124.722616 78.604971 
L 124.93016 78.036137 
L 125.26665 74.961403 
L 125.593972 78.26033 
L 125.761058 78.224058 
L 126.091208 75.121814 
L 126.340799 74.851484 
L 126.505673 75.250726 
L 126.79592 77.228138 
L 126.962461 77.358097 
L 127.294422 74.879359 
L 127.542028 75.61795 
L 127.666319 76.491865 
L 127.832088 75.977281 
L 128.205745 73.957466 
L 128.413767 74.7029 
L 128.538294 75.771028 
L 128.870071 76.253455 
L 129.038112 76.006324 
L 129.201434 76.123672 
L 129.408601 75.920255 
L 129.661747 75.429956 
L 129.906815 74.256752 
L 130.13051 74.02867 
L 130.405608 75.146427 
L 130.572201 75.076976 
L 130.985567 73.856535 
L 131.649393 75.372672 
L 131.777138 75.492693 
L 132.150378 73.544086 
L 132.312427 73.712113 
L 132.568539 75.07949 
L 132.895788 73.536601 
L 133.144877 76.868102 
L 133.407978 77.193805 
L 133.683899 73.850465 
L 133.84946 74.498803 
L 134.015471 75.989348 
L 134.223187 75.545842 
L 134.388751 74.835108 
L 134.56689 76.092246 
L 134.805153 76.551555 
L 135.093566 72.905132 
L 135.310413 72.621367 
L 135.385075 74.036521 
L 135.632363 75.29126 
L 135.800108 75.0051 
L 135.922919 74.32049 
L 136.266318 73.745142 
L 136.420487 72.238948 
L 136.627928 73.432239 
L 137.08551 78.221911 
L 137.179339 77.817601 
L 137.47869 74.961576 
L 137.807284 77.06667 
L 138.1409 76.7006 
L 138.304691 76.893424 
L 138.554916 76.754637 
L 138.933939 75.236246 
L 139.014324 75.316628 
L 139.735136 75.759678 
L 140.063941 74.312359 
L 140.332368 74.338957 
L 140.574233 76.776934 
L 140.742535 77.536756 
L 140.977349 76.54922 
L 141.061047 74.748451 
L 141.26748 74.895855 
L 141.434008 76.101686 
L 141.599571 76.379482 
L 141.944207 73.569507 
L 142.179553 73.355271 
L 142.843209 73.648856 
L 143.132982 73.953409 
L 143.63131 74.249881 
L 143.796412 73.617252 
L 143.879377 72.528011 
L 144.045281 72.625688 
L 144.376725 76.66058 
L 144.508671 77.277441 
L 144.875453 74.818425 
L 145.25827 77.681219 
L 145.376758 78.859533 
L 145.54325 78.453988 
L 146.041521 73.692085 
L 146.414484 76.882832 
L 146.621175 76.664895 
L 146.747304 75.10843 
L 146.993667 74.904566 
L 147.119037 74.989723 
L 147.326386 74.652339 
L 147.493555 75.049904 
L 147.78194 77.685272 
L 148.113469 74.740948 
L 148.448415 76.42687 
L 148.65207 74.990091 
L 148.820149 74.927551 
L 148.984509 76.986739 
L 149.150039 77.58127 
L 149.484374 74.109442 
L 149.663221 75.287759 
L 149.897468 75.547461 
L 150.066368 74.328916 
L 150.394179 77.692716 
L 150.601677 76.944908 
L 150.690809 74.325302 
L 150.887092 73.987408 
L 151.061785 75.717639 
L 151.224985 75.869992 
L 151.392201 74.048243 
L 151.573428 74.772325 
L 151.732652 76.814734 
L 151.975668 77.142642 
L 152.266699 74.49229 
L 152.680639 75.577848 
L 152.763658 75.907417 
L 153.137106 75.86413 
L 153.634433 74.842255 
L 153.885753 74.917677 
L 153.965914 75.092078 
L 154.214287 74.568404 
L 154.464949 72.950516 
L 154.670298 73.719398 
L 154.842757 75.67987 
L 155.169045 75.943685 
L 155.350152 73.359209 
L 155.583946 74.397714 
L 156.039565 78.473793 
L 156.373269 76.128692 
L 156.829139 75.206398 
L 157.242865 76.631167 
L 157.540721 76.399661 
L 157.783791 74.982121 
L 158.114516 77.252584 
L 158.611761 76.459733 
L 158.985432 75.008868 
L 159.441709 77.690281 
L 159.483749 79.278166 
L 159.648926 79.336193 
L 160.022626 76.211149 
L 160.187897 75.922949 
L 160.479337 77.762525 
L 160.6855 77.474878 
L 161.34991 71.347334 
L 161.557948 72.278105 
L 161.889294 76.820703 
L 162.055113 77.574359 
L 162.263441 76.356137 
L 162.55726 73.303473 
L 162.760088 74.235613 
L 163.299151 78.60606 
L 163.423383 78.113543 
L 163.796938 75.329968 
L 163.92475 74.936158 
L 164.265002 75.49383 
L 164.293978 76.080432 
L 164.46354 75.947195 
L 164.806501 73.674719 
L 165.005145 73.648547 
L 165.209182 74.334658 
L 165.375503 75.440531 
L 165.584616 75.491362 
L 165.830019 74.8247 
L 166.162386 75.342187 
L 166.205494 76.42851 
L 166.536026 78.084021 
L 166.703883 77.405754 
L 167.035704 73.772747 
L 167.248444 73.318181 
L 167.592103 74.9647 
L 167.905364 74.376768 
L 168.072688 74.560825 
L 168.445166 75.865167 
L 168.611864 76.670934 
L 168.776803 76.474252 
L 169.107821 74.642878 
L 169.315652 74.542186 
L 169.442143 75.28342 
L 169.648632 74.93712 
L 169.93992 73.272215 
L 170.144858 71.589438 
L 170.311488 70.518163 
L 170.476552 70.627758 
L 171.390371 77.353408 
L 171.640165 77.201332 
L 172.597282 70.755704 
L 172.867074 70.162463 
L 172.890431 69.789373 
L 173.219585 69.418588 
L 173.344281 69.531011 
L 173.426692 70.330044 
L 173.761668 71.533847 
L 174.421625 75.788675 
L 174.629721 75.336031 
L 174.960194 71.764501 
L 175.292269 68.115951 
L 175.512596 66.561205 
L 175.717338 66.029635 
L 175.842435 66.021432 
L 175.966082 66.241545 
L 176.174618 65.941691 
L 176.339554 65.478308 
L 176.712839 66.293344 
L 176.878337 66.529629 
L 177.086584 66.105198 
L 177.211731 66.488438 
L 177.500898 66.028251 
L 177.708732 64.249302 
L 177.875145 63.89247 
L 178.206907 65.841308 
L 178.706389 71.376055 
L 178.910895 71.683911 
L 179.117783 71.610086 
L 179.49159 69.542181 
L 179.657205 68.536629 
L 179.947148 65.530247 
L 180.321054 62.446306 
L 180.528161 61.208462 
L 180.735556 60.775297 
L 181.066874 61.923604 
L 181.152699 64.625905 
L 181.649551 68.820433 
L 181.843152 69.294838 
L 182.00196 69.080549 
L 182.168021 68.388455 
L 182.519423 66.312399 
L 182.684974 64.199921 
L 183.005638 61.558887 
L 183.185199 58.402603 
L 183.389727 57.925258 
L 183.556317 57.200196 
L 183.886987 57.240823 
L 184.343248 59.983294 
L 184.846511 66.347165 
L 184.966286 65.708894 
L 185.321087 60.687255 
L 185.589918 57.020484 
L 185.770503 57.104737 
L 185.963761 56.51178 
L 186.129707 56.555596 
L 186.336448 54.803286 
L 186.462318 54.71653 
L 186.667948 55.216843 
L 187.041777 57.979919 
L 187.208633 59.464912 
L 187.335181 62.044452 
L 187.498644 62.551334 
L 187.83031 64.583569 
L 188.038914 64.258425 
L 188.369759 59.359079 
L 189.614787 44.65788 
L 189.737865 44.469193 
L 190.070259 49.379043 
L 190.611255 57.377176 
L 191.107627 62.061995 
L 191.356029 60.901439 
L 191.614938 58.838171 
L 191.811547 58.037672 
L 192.019145 58.654717 
L 192.248529 58.404018 
L 192.725323 61.036444 
L 192.809655 62.685413 
L 193.016079 64.510757 
L 193.265275 65.584139 
L 193.525223 63.949404 
L 193.641482 62.006022 
L 193.719918 58.664306 
L 193.979383 56.819172 
L 194.056481 55.159909 
L 194.922159 51.177589 
L 195.212183 52.836539 
L 195.461043 59.014523 
L 195.586589 60.415935 
L 195.83521 60.930262 
L 196.001321 59.558522 
L 196.291833 55.157809 
L 196.580732 53.324479 
L 196.748291 54.020671 
L 196.912717 53.807472 
L 196.954617 53.921937 
L 197.119948 53.073805 
L 197.327727 53.032751 
L 197.700895 52.065251 
L 197.86703 52.829197 
L 198.239856 57.188533 
L 198.541309 58.456826 
L 198.878303 55.739422 
L 199.235536 51.0721 
L 199.732634 48.871005 
L 200.022637 48.646339 
L 200.0651 49.410316 
L 200.230265 49.085918 
L 200.479468 49.032632 
L 200.769743 50.509674 
L 201.269763 53.411793 
L 201.599156 52.499085 
L 202.32375 49.452437 
L 202.497627 49.44306 
L 202.933285 48.611487 
L 203.066925 46.943784 
L 203.258895 46.435531 
L 203.345358 45.665276 
L 203.591491 46.287119 
L 203.676205 48.076234 
L 204.010432 51.423118 
L 204.30162 51.634835 
L 204.466335 52.05638 
L 204.544957 51.587298 
L 204.842997 51.981591 
L 205.085509 51.624243 
L 205.211776 49.753057 
L 205.562396 46.778624 
L 205.79286 46.082029 
L 206.123628 49.105778 
L 206.249665 51.845438 
L 206.579877 53.948825 
L 206.787181 53.330549 
L 207.326492 48.958951 
L 207.533153 48.375171 
L 207.628418 47.281904 
L 208.15537 46.344428 
L 208.282167 47.33275 
L 208.819692 54.70129 
L 209.06875 54.909521 
L 209.364106 54.169289 
L 209.52488 53.017524 
L 209.694221 53.1603 
L 210.022111 54.116232 
L 210.72769 47.32824 
L 210.897039 48.017228 
L 211.394521 52.143936 
L 211.572053 51.790855 
L 212.016167 48.189815 
L 212.265662 51.186942 
L 212.431349 54.427743 
L 212.597417 54.883311 
L 212.805319 53.234732 
L 213.345276 45.416931 
L 213.635086 45.760748 
L 213.800791 49.083196 
L 214.136742 49.997469 
L 214.329273 49.979913 
L 214.517147 50.299956 
L 214.645376 51.78658 
L 215.003774 53.332072 
L 215.376665 51.40344 
L 215.542481 51.378864 
L 215.915184 49.690458 
L 216.206865 48.46059 
L 216.41344 47.48957 
L 216.58419 47.516662 
L 217.076131 52.819966 
L 217.242437 55.075567 
L 217.454308 55.738176 
L 217.614932 54.976407 
L 217.947678 52.416229 
L 218.073785 51.935477 
L 218.320226 52.858512 
L 218.452737 54.048355 
L 218.652175 54.760114 
L 218.778428 53.855203 
L 219.27589 47.050266 
L 219.48269 48.593724 
L 219.813668 55.404127 
L 220.16022 54.968538 
L 220.313743 51.014287 
L 220.685603 47.123276 
L 220.851507 48.359389 
L 221.185178 51.840853 
L 221.473407 51.040459 
L 221.556393 49.134396 
L 221.76367 47.439146 
L 221.888417 47.394079 
L 222.13683 49.049547 
L 222.386698 52.087948 
L 222.551674 53.008522 
L 222.75861 52.560499 
L 222.900334 51.774502 
L 223.095895 51.782675 
L 223.631297 56.289925 
L 223.879809 56.2369 
L 224.088084 54.534214 
L 224.128783 52.623906 
L 224.294277 51.16753 
L 224.501503 51.911145 
L 224.628545 52.91539 
L 224.87638 53.375524 
L 225.30129 51.938668 
L 225.500074 52.513461 
L 226.047075 58.8369 
L 226.374016 55.533547 
L 226.755858 51.562307 
L 226.913659 50.952133 
L 227.012404 51.194818 
L 227.342758 51.113058 
L 227.392505 50.856824 
L 227.758081 51.125038 
L 228.630703 54.732049 
L 229.13178 52.959571 
L 229.292654 52.691595 
L 229.541201 53.404702 
L 229.626368 52.016092 
L 229.873793 53.355805 
L 230.338196 95.380075 
L 230.577786 107.38615 
L 230.82737 123.956857 
L 231.344786 144.233672 
L 231.577432 143.914638 
L 231.798122 126.010942 
L 232.04936 81.659483 
L 232.258259 60.799387 
L 232.337894 41.462608 
L 232.792382 14.047658 
L 233.082376 4.251601 
L 233.457252 18.596025 
L 234.286248 89.318721 
L 234.451681 94.486006 
L 234.576824 93.586424 
L 234.783175 87.083256 
L 235.450774 45.625114 
L 235.821818 37.28665 
L 235.988508 37.390315 
L 236.151866 41.068519 
L 236.484455 55.544533 
L 236.817354 74.644499 
L 237.189713 84.061745 
L 237.482227 83.339126 
L 237.689531 72.720066 
L 238.558722 32.264992 
L 238.727855 31.487919 
L 239.115918 39.775897 
L 239.387212 46.945073 
L 239.428711 55.428292 
L 239.928434 81.103882 
L 240.092821 84.661786 
L 240.259079 83.664725 
L 240.729629 72.161212 
L 240.963756 55.25406 
L 241.128739 47.669487 
L 241.710003 35.950895 
L 242.041257 43.737104 
L 242.87028 72.708551 
L 243.036737 73.878422 
L 243.201958 72.437682 
L 243.409889 69.455988 
L 244.246002 45.062463 
L 244.493018 44.441743 
L 244.800421 49.548006 
L 245.278198 61.669713 
L 245.6088 65.384355 
L 245.774819 64.538845 
L 246.106994 58.524222 
L 246.396875 53.790166 
L 246.480254 49.367699 
L 246.983913 42.509215 
L 247.250664 43.064745 
L 247.329504 44.63084 
L 247.528581 46.369405 
L 247.561323 47.707367 
L 247.769858 49.525636 
L 247.852662 52.542296 
L 248.348878 56.598304 
L 248.556392 56.798647 
L 248.763845 56.316032 
L 249.22004 52.439427 
L 249.386714 51.671427 
L 249.596948 51.753836 
L 249.926052 55.647361 
L 250.25687 61.229314 
L 250.506274 62.82513 
L 250.755353 64.897464 
L 250.920532 65.158518 
L 251.210704 64.286567 
L 251.626994 55.771571 
L 252.007021 49.951034 
L 252.496563 45.103427 
L 252.706411 44.447178 
L 252.871106 45.19965 
L 253.574021 57.815995 
L 253.698526 58.231785 
L 253.864927 57.707911 
L 254.156567 58.01979 
L 254.198387 59.136003 
L 254.406504 60.005948 
L 254.542501 59.764445 
L 254.944477 53.860434 
L 255.317541 46.539124 
L 255.405016 46.462984 
L 256.105723 53.837407 
L 256.271124 54.357082 
L 256.519706 54.365486 
L 256.852167 57.085169 
L 257.059435 58.261399 
L 257.142835 57.657019 
L 257.848371 45.055646 
L 258.13694 45.360234 
L 258.344332 49.973018 
L 258.676182 54.493204 
L 259.090992 57.549572 
L 259.180042 59.758688 
L 259.555059 63.44501 
L 259.878695 62.969336 
L 260.170453 60.108289 
L 260.378588 52.717431 
L 260.624836 50.396662 
L 260.833066 51.052062 
L 260.925458 52.283753 
L 261.291853 51.289367 
L 262.333093 57.659467 
L 262.501148 57.667329 
L 262.787279 56.694094 
L 262.963238 54.994894 
L 263.333761 49.619606 
L 263.490584 49.063203 
L 263.698297 50.487881 
L 264.030171 54.28978 
L 264.406474 52.65352 
L 264.559477 53.518514 
L 264.902419 58.635647 
L 265.168109 58.635158 
L 265.234129 56.964627 
L 265.73121 53.723314 
L 265.896843 53.577386 
L 266.104126 52.579606 
L 266.435941 49.21034 
L 266.651561 49.26802 
L 267.017079 53.465751 
L 267.143552 53.488984 
L 267.265749 52.588332 
L 267.474411 53.090749 
L 267.858294 56.020223 
L 267.971726 56.048971 
L 268.387957 52.059563 
L 268.518424 50.313588 
L 268.679162 50.432674 
L 268.807534 51.394034 
L 269.010967 51.798463 
L 269.302164 51.166475 
L 269.38594 51.557935 
L 269.633265 51.691494 
L 269.841292 53.894218 
L 270.216902 55.848174 
L 270.545791 56.49422 
L 270.752947 57.498247 
L 270.925041 57.567432 
L 271.125855 55.227189 
L 271.377489 53.730577 
L 271.583198 55.994904 
L 271.872285 56.116053 
L 271.913154 55.048031 
L 272.413556 50.36216 
L 272.669632 51.460722 
L 272.784705 54.187813 
L 272.952115 55.461817 
L 273.199024 54.444012 
L 273.324085 52.735912 
L 273.53568 51.85172 
L 274.112316 54.597222 
L 274.196583 53.891983 
L 274.485885 50.128104 
L 274.680553 50.866001 
L 275.026064 53.26556 
L 275.191841 53.497624 
L 275.773336 55.312816 
L 276.311749 54.371705 
L 276.394572 52.949244 
L 276.561025 52.263965 
L 276.933694 54.422747 
L 277.182333 53.144904 
L 277.306299 51.113563 
L 277.602201 50.896613 
L 277.929639 55.581333 
L 278.136501 55.813788 
L 278.633894 51.170879 
L 278.799534 51.372011 
L 279.131096 54.173952 
L 279.298515 53.832555 
L 279.587963 52.128594 
L 279.669679 50.470254 
L 279.878463 51.006742 
L 280.374434 55.937897 
L 280.664929 55.485654 
L 280.707091 53.484057 
L 280.87328 51.948929 
L 281.162822 52.062046 
L 281.452269 55.316394 
L 281.577205 55.818834 
L 282.115753 51.531789 
L 282.240239 52.286429 
L 282.613615 55.807271 
L 282.822097 55.816784 
L 282.946243 54.804874 
L 283.195056 53.147864 
L 283.277358 50.923208 
L 283.443835 50.117488 
L 283.942481 51.902147 
L 284.147687 51.77243 
L 284.410977 51.981465 
L 284.645807 53.885675 
L 285.020143 54.895385 
L 285.589971 54.355247 
L 285.848892 55.553968 
L 286.01473 55.859667 
L 286.185335 56.40794 
L 286.637106 56.735174 
L 286.719907 56.347137 
L 287.096915 55.607463 
L 287.550005 55.956568 
L 287.717488 55.812448 
L 288.254177 53.893314 
L 288.503461 54.104908 
L 288.627545 54.548653 
L 288.793406 54.258671 
L 289.748963 48.46252 
L 289.914395 48.764282 
L 290.33018 53.781572 
L 290.702783 57.79713 
L 290.870098 58.648148 
L 291.034183 58.510321 
L 291.242118 57.555572 
L 292.030386 49.881954 
L 292.207025 49.488186 
L 292.237578 49.092743 
L 292.534833 50.622466 
L 292.92118 51.291373 
L 293.069791 51.238408 
L 293.235936 51.410734 
L 293.449229 52.254692 
L 293.753414 54.72752 
L 293.939573 55.020007 
L 294.645483 54.149878 
L 294.851356 54.338314 
L 294.977207 54.302754 
L 295.14194 53.289949 
L 295.475827 49.102076 
L 295.849825 47.230577 
L 296.015508 47.269513 
L 296.43168 49.918474 
L 296.595835 51.806918 
L 296.845169 55.844297 
L 297.052033 56.667042 
L 297.260455 56.661659 
L 297.759453 55.276794 
L 297.882771 55.389887 
L 298.256243 56.088855 
L 298.422527 56.099712 
L 298.71228 56.483935 
L 298.96197 57.27974 
L 299.09469 57.518422 
L 299.369096 56.612202 
L 299.826935 50.900792 
L 300.075903 48.437073 
L 300.118274 45.95925 
L 300.324699 43.908515 
L 300.49011 43.37893 
L 300.658258 43.408718 
L 300.832148 44.295612 
L 301.112921 46.671311 
L 301.154643 49.023211 
L 301.698668 55.425883 
L 301.835811 57.306517 
L 302.026745 58.286748 
L 302.327629 58.3242 
L 302.360864 58.073132 
L 302.567853 58.269351 
L 302.899353 58.317347 
L 303.313816 57.452783 
L 303.895373 54.584781 
L 304.434877 54.219666 
L 304.599794 54.207667 
L 304.766122 54.31614 
L 304.973517 53.746295 
L 305.099461 52.58446 
L 305.46998 51.702945 
L 305.475902 52.086673 
L 305.887001 54.728116 
L 306.012076 55.213746 
L 306.676907 53.588768 
L 307.008402 54.664168 
L 307.174443 54.525712 
L 307.507939 51.758696 
L 307.799879 51.545526 
L 307.837875 51.844208 
L 308.378633 52.548411 
L 308.544864 51.876636 
L 308.923762 51.186407 
L 309.250121 52.523257 
L 309.422157 51.877852 
L 309.45809 51.223379 
L 309.624294 50.993363 
L 309.790871 50.454051 
L 309.918006 50.794005 
L 310.619953 56.305664 
L 310.786364 56.169861 
L 311.118262 53.871649 
L 311.417636 51.949677 
L 311.823265 44.635787 
L 312.161281 40.44362 
L 312.336716 38.843502 
L 312.661092 32.697452 
L 312.841523 31.617711 
L 313.075108 31.524191 
L 313.379178 32.051424 
L 313.746276 30.552926 
L 313.950077 30.353673 
L 314.909075 53.886695 
L 315.166889 57.495258 
L 315.278734 61.880033 
L 315.48951 65.035575 
L 315.652905 65.238259 
L 316.986216 44.13111 
L 317.20556 43.29296 
L 317.85523 59.468493 
L 318.0634 60.02457 
L 318.187507 59.818055 
L 318.782499 57.682142 
L 318.85217 55.721092 
L 319.100521 52.805594 
L 319.409494 46.946653 
L 319.558885 45.396969 
L 319.841148 44.855133 
L 320.006421 45.227499 
L 320.297066 51.453078 
L 320.753858 62.885096 
L 321.085565 63.299638 
L 321.461537 56.29246 
L 321.708592 54.897355 
L 321.97571 51.441496 
L 322.331441 48.61079 
L 322.499834 49.141898 
L 322.996495 54.515303 
L 323.335657 58.454542 
L 323.706095 60.419087 
L 323.836843 60.022449 
L 324.203811 57.463183 
L 324.370413 56.024335 
L 324.659943 55.566936 
L 325.116151 58.181386 
L 325.614606 59.83886 
L 325.947257 61.773005 
L 326.072865 61.804474 
L 326.412047 60.967397 
L 326.611344 60.632776 
L 326.948721 58.735346 
L 327.207242 57.032867 
L 327.443537 53.157347 
L 327.816366 51.63895 
L 328.108854 50.96335 
L 328.32193 49.600777 
L 328.481153 49.92034 
L 329.072537 56.135502 
L 329.36207 60.283951 
L 329.652278 59.820058 
L 329.694481 59.012627 
L 330.151062 56.459164 
L 330.19387 55.600308 
L 330.564866 54.117254 
L 330.896731 52.689619 
L 331.186949 52.827036 
L 331.769346 65.216787 
L 332.102296 67.409063 
L 332.308094 66.877532 
L 333.514844 60.35358 
L 333.806007 59.70782 
L 334.013531 59.825624 
L 334.679608 62.990619 
L 334.859288 62.607351 
L 335.175884 59.550244 
L 336.094646 46.76931 
L 336.386343 44.640361 
L 336.593826 44.64826 
L 337.036051 47.957206 
L 337.261473 53.325137 
L 337.632443 55.462397 
L 337.845969 54.561328 
L 338.797148 42.182208 
L 339.010774 41.237665 
L 339.18314 41.538176 
L 339.338692 42.724461 
L 340.541933 60.436347 
L 340.91533 61.415098 
L 341.236815 61.305014 
L 341.609234 60.130208 
L 341.93982 60.053087 
L 342.151599 59.787783 
L 342.406038 59.323337 
L 342.937427 58.386503 
L 343.269013 56.847672 
L 343.725777 53.621133 
L 343.829534 51.670105 
L 344.099723 50.442988 
L 344.182432 49.165948 
L 344.514318 48.15829 
L 344.813396 47.894259 
L 345.387017 51.106419 
L 345.845578 54.236826 
L 346.109824 54.063492 
L 346.570196 50.971132 
L 346.929406 47.862502 
L 347.266428 46.853447 
L 347.610518 46.383709 
L 347.812893 46.745291 
L 347.897482 47.503621 
L 348.100811 48.1556 
L 348.598891 51.104388 
L 348.977588 50.849849 
L 349.304427 49.519806 
L 349.678685 51.165717 
L 350.012049 53.206355 
L 350.508276 57.214418 
L 351.006434 63.503143 
L 351.547773 65.582808 
L 351.75397 65.332954 
L 351.879123 64.884788 
L 352.302626 64.190379 
L 352.625981 63.140458 
L 352.957356 63.269405 
L 353.248422 63.075533 
L 353.833948 65.07036 
L 354.121182 66.318939 
L 354.285471 66.601122 
L 354.504945 66.473011 
L 355.127769 64.665984 
L 355.169495 63.787644 
L 355.670175 60.726025 
L 356.165537 57.858882 
L 357.080208 54.793173 
L 357.444592 52.475114 
L 357.720344 50.052975 
L 357.911932 49.705071 
L 358.151598 49.927633 
L 358.455802 51.63241 
L 359.452832 56.266667 
L 359.658684 56.359393 
L 360.032147 54.274599 
L 360.366132 51.714731 
L 360.571805 50.665929 
L 361.030356 51.363924 
L 361.194597 53.49925 
L 361.702593 57.44319 
L 362.273976 65.241011 
L 362.522582 68.686111 
L 362.814933 69.415533 
L 362.854919 69.304426 
L 363.106715 67.647485 
L 364.150577 54.386662 
L 364.445173 50.440566 
L 364.610802 49.163648 
L 364.780534 49.423662 
L 364.942428 50.31691 
L 365.149659 50.810441 
L 365.277996 51.410699 
L 365.483121 51.755282 
L 365.693161 51.565709 
L 366.032869 50.41296 
L 366.188117 49.80529 
L 366.482734 49.490845 
L 366.519435 48.951453 
L 366.685325 49.16235 
L 367.185628 49.570616 
L 367.418265 49.941792 
L 368.223268 58.627514 
L 368.77355 58.860892 
L 369.054915 58.669483 
L 369.097542 58.788963 
L 369.261187 58.716172 
L 369.59709 58.878736 
L 369.717568 58.758374 
L 369.809147 58.927115 
L 369.939491 59.500148 
L 370.18811 61.09429 
L 370.98985 69.570764 
L 371.352999 68.698823 
L 371.895995 65.724431 
L 372.223325 61.75718 
L 372.437137 59.663121 
L 372.764978 54.663925 
L 373.068831 51.222544 
L 373.396931 49.468808 
L 373.59294 49.700082 
L 373.926978 51.777305 
L 374.270184 55.15025 
L 375.138826 72.074288 
L 375.766989 74.206851 
L 375.927844 75.60692 
L 376.168486 75.774008 
L 376.368385 70.390809 
L 376.54214 61.34203 
L 376.8735 54.220897 
L 376.915065 48.743821 
L 377.454899 41.750844 
L 377.539404 41.638401 
L 377.888539 42.164212 
L 378.582937 59.722272 
L 378.998275 63.127779 
L 379.256506 60.635986 
L 379.871843 44.96993 
L 379.954105 44.699906 
L 380.37551 48.274681 
L 381.579455 78.225263 
L 381.761429 78.215128 
L 382.207939 66.490757 
L 382.496825 55.399954 
L 383.197255 41.081156 
L 383.404982 40.878392 
L 383.548285 41.431033 
L 384.111251 46.730384 
L 384.281288 48.478001 
L 384.488208 48.926611 
L 385.136585 44.744841 
L 385.27883 44.541018 
L 385.489935 44.974173 
L 385.719534 46.25147 
L 386.647188 62.233169 
L 387.018996 65.432609 
L 387.186736 65.599846 
L 387.517139 62.945456 
L 388.441189 53.645598 
L 388.735995 52.466483 
L 388.895941 53.259968 
L 390.099323 66.155673 
L 390.303639 65.776591 
L 390.483618 64.783309 
L 391.716154 54.040872 
L 392.131017 53.435807 
L 392.507604 52.39557 
L 392.835707 50.08185 
L 393.707745 40.020831 
L 394.054023 39.501659 
L 394.496563 42.18497 
L 394.711536 48.651635 
L 395.132427 54.51216 
L 395.246199 56.093142 
L 395.574671 57.211404 
L 396.032765 57.55178 
L 396.116938 56.986646 
L 396.61471 55.850507 
L 396.823368 56.506033 
L 398.040726 71.582748 
L 398.497086 72.502626 
L 398.705237 72.084429 
L 399.213256 68.237273 
L 399.555667 64.799861 
L 399.753515 59.139036 
L 400.07302 56.204537 
L 400.415843 54.989045 
L 400.610313 54.859035 
L 400.774507 54.974129 
L 400.981998 55.440169 
L 401.271544 57.112417 
L 401.649446 57.550761 
L 402.283273 59.222733 
L 402.489212 58.755667 
L 402.821856 56.134612 
L 403.197356 55.533216 
L 403.326644 55.379662 
L 403.527578 54.762798 
L 403.872146 52.573512 
L 404.150848 52.388991 
L 404.871147 58.513157 
L 405.063895 58.50541 
L 405.230788 58.269498 
L 405.605067 59.047132 
L 406.059764 58.472691 
L 406.103855 57.798051 
L 406.26954 57.178392 
L 406.436031 57.120844 
L 406.612609 56.736298 
L 406.81254 56.941949 
L 407.142439 58.317233 
L 407.352931 58.602327 
L 407.518959 58.541861 
L 407.764551 57.830812 
L 407.972272 55.056781 
L 408.162542 54.707781 
L 408.406109 56.086349 
L 408.487228 57.713399 
L 408.865419 59.397918 
L 409.03928 59.310501 
L 409.360469 58.600131 
L 409.571045 59.187176 
L 409.693258 60.100325 
L 409.900157 60.25071 
L 410.400688 52.593751 
L 410.606602 52.621498 
L 410.858541 54.271872 
L 411.104545 57.557624 
L 411.273016 57.679329 
L 411.613188 57.181188 
L 411.944933 59.579797 
L 412.113696 59.611531 
L 412.320625 56.946508 
L 412.443287 53.529421 
L 412.650406 51.310137 
L 412.900331 51.879601 
L 413.025363 53.67124 
L 413.273791 54.965191 
L 413.438985 54.89023 
L 413.648652 53.248751 
L 413.812511 54.244431 
L 414.353743 59.613367 
L 414.87048 55.5818 
L 415.239037 57.21873 
L 415.404236 56.882178 
L 415.705518 55.116024 
L 415.902317 54.936058 
L 416.284316 56.059231 
L 416.40005 55.910845 
L 416.651214 55.132657 
L 416.745843 55.251954 
L 417.106515 57.291523 
L 417.316196 57.308476 
L 417.52143 56.545554 
L 417.686851 54.359485 
L 417.977769 54.426122 
L 418.268312 56.57989 
L 418.516737 56.372962 
L 418.766353 51.128991 
L 418.994337 51.072964 
L 419.158762 52.524253 
L 419.517186 59.304169 
L 419.718741 59.703595 
L 419.843127 58.99888 
L 420.100589 58.266642 
L 420.218695 58.590045 
L 420.550342 60.213107 
L 420.717427 59.825905 
L 421.048365 55.951224 
L 421.255876 53.053714 
L 421.422194 52.564769 
L 421.58873 54.23397 
L 421.925439 55.943053 
L 422.090896 55.834135 
L 422.335312 55.841261 
L 422.431601 56.521685 
L 422.588032 56.640153 
L 422.792287 56.182488 
L 422.959297 56.27598 
L 423.124966 56.858575 
L 423.33962 56.60866 
L 423.545812 55.560245 
L 423.711812 55.743172 
L 423.835618 56.222722 
L 424.251177 53.239201 
L 424.4582 54.333506 
L 424.70879 56.908345 
L 424.831484 56.826074 
L 425.163008 55.109824 
L 425.333239 55.272408 
L 425.578756 56.196132 
L 425.703158 57.157496 
L 425.878596 57.22655 
L 426.552446 53.779799 
L 426.71952 54.554235 
L 426.71952 54.554235 
" clip-path="url(#pa8920fe042)" style="fill: none; stroke: #ff0000; stroke-opacity: 0.5; stroke-width: 1.75; stroke-linecap: square"/>
   </g>
   <g id="patch_3">
    <path d="M 38.502813 184.36327 
L 38.502813 0.72 
" style="fill: none; stroke: #000000; stroke-width: 0.8; stroke-linejoin: miter; stroke-linecap: square"/>
   </g>
   <g id="patch_4">
    <path d="M 426.71952 184.36327 
L 426.71952 0.72 
" style="fill: none; stroke: #000000; stroke-width: 0.8; stroke-linejoin: miter; stroke-linecap: square"/>
   </g>
   <g id="patch_5">
    <path d="M 38.502813 184.36327 
L 426.71952 184.36327 
" style="fill: none; stroke: #000000; stroke-width: 0.8; stroke-linejoin: miter; stroke-linecap: square"/>
   </g>
   <g id="patch_6">
    <path d="M 38.502813 0.72 
L 426.71952 0.72 
" style="fill: none; stroke: #000000; stroke-width: 0.8; stroke-linejoin: miter; stroke-linecap: square"/>
   </g>
   <g id="legend_1">
    <g id="patch_7">
     <path d="M 345.95077 38.07625 
L 419.71952 38.07625 
Q 421.71952 38.07625 421.71952 36.07625 
L 421.71952 7.72 
Q 421.71952 5.72 419.71952 5.72 
L 345.95077 5.72 
Q 343.95077 5.72 343.95077 7.72 
L 343.95077 36.07625 
Q 343.95077 38.07625 345.95077 38.07625 
z
" style="fill: #ffffff; opacity: 0.8; stroke: #cccccc; stroke-linejoin: miter"/>
    </g>
    <g id="line2d_29">
     <path d="M 347.95077 13.818437 
L 357.95077 13.818437 
L 367.95077 13.818437 
" style="fill: none; stroke: #0000ff; stroke-opacity: 0.5; stroke-width: 1.75; stroke-linecap: square"/>
    </g>
    <g id="text_16">
     <!-- RNEA -->
     <g transform="translate(375.95077 17.318437) scale(0.1 -0.1)">
      <defs>
       <path id="DejaVuSans-52" d="M 2841 2188 
Q 3044 2119 3236 1894 
Q 3428 1669 3622 1275 
L 4263 0 
L 3584 0 
L 2988 1197 
Q 2756 1666 2539 1819 
Q 2322 1972 1947 1972 
L 1259 1972 
L 1259 0 
L 628 0 
L 628 4666 
L 2053 4666 
Q 2853 4666 3247 4331 
Q 3641 3997 3641 3322 
Q 3641 2881 3436 2590 
Q 3231 2300 2841 2188 
z
M 1259 4147 
L 1259 2491 
L 2053 2491 
Q 2509 2491 2742 2702 
Q 2975 2913 2975 3322 
Q 2975 3731 2742 3939 
Q 2509 4147 2053 4147 
L 1259 4147 
z
" transform="scale(0.015625)"/>
       <path id="DejaVuSans-45" d="M 628 4666 
L 3578 4666 
L 3578 4134 
L 1259 4134 
L 1259 2753 
L 3481 2753 
L 3481 2222 
L 1259 2222 
L 1259 531 
L 3634 531 
L 3634 0 
L 628 0 
L 628 4666 
z
" transform="scale(0.015625)"/>
       <path id="DejaVuSans-41" d="M 2188 4044 
L 1331 1722 
L 3047 1722 
L 2188 4044 
z
M 1831 4666 
L 2547 4666 
L 4325 0 
L 3669 0 
L 3244 1197 
L 1141 1197 
L 716 0 
L 50 0 
L 1831 4666 
z
" transform="scale(0.015625)"/>
      </defs>
      <use xlink:href="#DejaVuSans-52"/>
      <use xlink:href="#DejaVuSans-4e" x="69.482422"/>
      <use xlink:href="#DejaVuSans-45" x="144.287109"/>
      <use xlink:href="#DejaVuSans-41" x="207.470703"/>
     </g>
    </g>
    <g id="line2d_30">
     <path d="M 347.95077 28.496562 
L 357.95077 28.496562 
L 367.95077 28.496562 
" style="fill: none; stroke: #ff0000; stroke-opacity: 0.5; stroke-width: 1.75; stroke-linecap: square"/>
    </g>
    <g id="text_17">
     <!-- BURNEA -->
     <g transform="translate(375.95077 31.996562) scale(0.1 -0.1)">
      <defs>
       <path id="DejaVuSans-42" d="M 1259 2228 
L 1259 519 
L 2272 519 
Q 2781 519 3026 730 
Q 3272 941 3272 1375 
Q 3272 1813 3026 2020 
Q 2781 2228 2272 2228 
L 1259 2228 
z
M 1259 4147 
L 1259 2741 
L 2194 2741 
Q 2656 2741 2882 2914 
Q 3109 3088 3109 3444 
Q 3109 3797 2882 3972 
Q 2656 4147 2194 4147 
L 1259 4147 
z
M 628 4666 
L 2241 4666 
Q 2963 4666 3353 4366 
Q 3744 4066 3744 3513 
Q 3744 3084 3544 2831 
Q 3344 2578 2956 2516 
Q 3422 2416 3680 2098 
Q 3938 1781 3938 1306 
Q 3938 681 3513 340 
Q 3088 0 2303 0 
L 628 0 
L 628 4666 
z
" transform="scale(0.015625)"/>
       <path id="DejaVuSans-55" d="M 556 4666 
L 1191 4666 
L 1191 1831 
Q 1191 1081 1462 751 
Q 1734 422 2344 422 
Q 2950 422 3222 751 
Q 3494 1081 3494 1831 
L 3494 4666 
L 4128 4666 
L 4128 1753 
Q 4128 841 3676 375 
Q 3225 -91 2344 -91 
Q 1459 -91 1007 375 
Q 556 841 556 1753 
L 556 4666 
z
" transform="scale(0.015625)"/>
      </defs>
      <use xlink:href="#DejaVuSans-42"/>
      <use xlink:href="#DejaVuSans-55" x="68.603516"/>
      <use xlink:href="#DejaVuSans-52" x="141.796875"/>
      <use xlink:href="#DejaVuSans-4e" x="211.279297"/>
      <use xlink:href="#DejaVuSans-45" x="286.083984"/>
      <use xlink:href="#DejaVuSans-41" x="349.267578"/>
     </g>
    </g>
   </g>
  </g>
 </g>
 <defs>
  <clipPath id="pa8920fe042">
   <rect x="38.502813" y="0.72" width="388.216708" height="183.64327"/>
  </clipPath>
 </defs>
</svg>
