<?xml version="1.0" encoding="utf-8" standalone="no"?>
<!DOCTYPE svg PUBLIC "-//W3C//DTD SVG 1.1//EN"
  "http://www.w3.org/Graphics/SVG/1.1/DTD/svg11.dtd">
<svg xmlns:xlink="http://www.w3.org/1999/xlink" width="427.43952pt" height="211.43952pt" viewBox="0 0 427.43952 211.43952" xmlns="http://www.w3.org/2000/svg" version="1.1">
 <metadata>
  <rdf:RDF xmlns:dc="http://purl.org/dc/elements/1.1/" xmlns:cc="http://creativecommons.org/ns#" xmlns:rdf="http://www.w3.org/1999/02/22-rdf-syntax-ns#">
   <cc:Work>
    <dc:type rdf:resource="http://purl.org/dc/dcmitype/StillImage"/>
    <dc:date>2023-09-09T18:28:40.948227</dc:date>
    <dc:format>image/svg+xml</dc:format>
    <dc:creator>
     <cc:Agent>
      <dc:title>Matplotlib v3.7.2, https://matplotlib.org/</dc:title>
     </cc:Agent>
    </dc:creator>
   </cc:Work>
  </rdf:RDF>
 </metadata>
 <defs>
  <style type="text/css">*{stroke-linejoin: round; stroke-linecap: butt}</style>
 </defs>
 <g id="figure_1">
  <g id="patch_1">
   <path d="M 0 211.43952 
L 427.43952 211.43952 
L 427.43952 0 
L 0 0 
L 0 211.43952 
z
" style="fill: none"/>
  </g>
  <g id="axes_1">
   <g id="patch_2">
    <path d="M 38.502813 184.36327 
L 426.71952 184.36327 
L 426.71952 0.72 
L 38.502813 0.72 
L 38.502813 184.36327 
z
" style="fill: none"/>
   </g>
   <g id="matplotlib.axis_1">
    <g id="xtick_1">
     <g id="line2d_1">
      <path d="M 38.502813 184.36327 
L 38.502813 0.72 
" clip-path="url(#pebe5199fe4)" style="fill: none; stroke-dasharray: 0.8,1.32; stroke-dashoffset: 0; stroke: #000000; stroke-opacity: 0.5; stroke-width: 0.8"/>
     </g>
     <g id="line2d_2">
      <defs>
       <path id="me9ba21a3a7" d="M 0 0 
L 0 3.5 
" style="stroke: #000000; stroke-width: 0.8"/>
      </defs>
      <g>
       <use xlink:href="#me9ba21a3a7" x="38.502813" y="184.36327" style="stroke: #000000; stroke-width: 0.8"/>
      </g>
     </g>
     <g id="text_1">
      <!-- 0.0 -->
      <g transform="translate(30.55125 198.961707) scale(0.1 -0.1)">
       <defs>
        <path id="DejaVuSans-30" d="M 2034 4250 
Q 1547 4250 1301 3770 
Q 1056 3291 1056 2328 
Q 1056 1369 1301 889 
Q 1547 409 2034 409 
Q 2525 409 2770 889 
Q 3016 1369 3016 2328 
Q 3016 3291 2770 3770 
Q 2525 4250 2034 4250 
z
M 2034 4750 
Q 2819 4750 3233 4129 
Q 3647 3509 3647 2328 
Q 3647 1150 3233 529 
Q 2819 -91 2034 -91 
Q 1250 -91 836 529 
Q 422 1150 422 2328 
Q 422 3509 836 4129 
Q 1250 4750 2034 4750 
z
" transform="scale(0.015625)"/>
        <path id="DejaVuSans-2e" d="M 684 794 
L 1344 794 
L 1344 0 
L 684 0 
L 684 794 
z
" transform="scale(0.015625)"/>
       </defs>
       <use xlink:href="#DejaVuSans-30"/>
       <use xlink:href="#DejaVuSans-2e" x="63.623047"/>
       <use xlink:href="#DejaVuSans-30" x="95.410156"/>
      </g>
     </g>
    </g>
    <g id="xtick_2">
     <g id="line2d_3">
      <path d="M 90.09203 184.36327 
L 90.09203 0.72 
" clip-path="url(#pebe5199fe4)" style="fill: none; stroke-dasharray: 0.8,1.32; stroke-dashoffset: 0; stroke: #000000; stroke-opacity: 0.5; stroke-width: 0.8"/>
     </g>
     <g id="line2d_4">
      <g>
       <use xlink:href="#me9ba21a3a7" x="90.09203" y="184.36327" style="stroke: #000000; stroke-width: 0.8"/>
      </g>
     </g>
     <g id="text_2">
      <!-- 2.5 -->
      <g transform="translate(82.140467 198.961707) scale(0.1 -0.1)">
       <defs>
        <path id="DejaVuSans-32" d="M 1228 531 
L 3431 531 
L 3431 0 
L 469 0 
L 469 531 
Q 828 903 1448 1529 
Q 2069 2156 2228 2338 
Q 2531 2678 2651 2914 
Q 2772 3150 2772 3378 
Q 2772 3750 2511 3984 
Q 2250 4219 1831 4219 
Q 1534 4219 1204 4116 
Q 875 4013 500 3803 
L 500 4441 
Q 881 4594 1212 4672 
Q 1544 4750 1819 4750 
Q 2544 4750 2975 4387 
Q 3406 4025 3406 3419 
Q 3406 3131 3298 2873 
Q 3191 2616 2906 2266 
Q 2828 2175 2409 1742 
Q 1991 1309 1228 531 
z
" transform="scale(0.015625)"/>
        <path id="DejaVuSans-35" d="M 691 4666 
L 3169 4666 
L 3169 4134 
L 1269 4134 
L 1269 2991 
Q 1406 3038 1543 3061 
Q 1681 3084 1819 3084 
Q 2600 3084 3056 2656 
Q 3513 2228 3513 1497 
Q 3513 744 3044 326 
Q 2575 -91 1722 -91 
Q 1428 -91 1123 -41 
Q 819 9 494 109 
L 494 744 
Q 775 591 1075 516 
Q 1375 441 1709 441 
Q 2250 441 2565 725 
Q 2881 1009 2881 1497 
Q 2881 1984 2565 2268 
Q 2250 2553 1709 2553 
Q 1456 2553 1204 2497 
Q 953 2441 691 2322 
L 691 4666 
z
" transform="scale(0.015625)"/>
       </defs>
       <use xlink:href="#DejaVuSans-32"/>
       <use xlink:href="#DejaVuSans-2e" x="63.623047"/>
       <use xlink:href="#DejaVuSans-35" x="95.410156"/>
      </g>
     </g>
    </g>
    <g id="xtick_3">
     <g id="line2d_5">
      <path d="M 141.681247 184.36327 
L 141.681247 0.72 
" clip-path="url(#pebe5199fe4)" style="fill: none; stroke-dasharray: 0.8,1.32; stroke-dashoffset: 0; stroke: #000000; stroke-opacity: 0.5; stroke-width: 0.8"/>
     </g>
     <g id="line2d_6">
      <g>
       <use xlink:href="#me9ba21a3a7" x="141.681247" y="184.36327" style="stroke: #000000; stroke-width: 0.8"/>
      </g>
     </g>
     <g id="text_3">
      <!-- 5.0 -->
      <g transform="translate(133.729684 198.961707) scale(0.1 -0.1)">
       <use xlink:href="#DejaVuSans-35"/>
       <use xlink:href="#DejaVuSans-2e" x="63.623047"/>
       <use xlink:href="#DejaVuSans-30" x="95.410156"/>
      </g>
     </g>
    </g>
    <g id="xtick_4">
     <g id="line2d_7">
      <path d="M 193.270464 184.36327 
L 193.270464 0.72 
" clip-path="url(#pebe5199fe4)" style="fill: none; stroke-dasharray: 0.8,1.32; stroke-dashoffset: 0; stroke: #000000; stroke-opacity: 0.5; stroke-width: 0.8"/>
     </g>
     <g id="line2d_8">
      <g>
       <use xlink:href="#me9ba21a3a7" x="193.270464" y="184.36327" style="stroke: #000000; stroke-width: 0.8"/>
      </g>
     </g>
     <g id="text_4">
      <!-- 7.5 -->
      <g transform="translate(185.318902 198.961707) scale(0.1 -0.1)">
       <defs>
        <path id="DejaVuSans-37" d="M 525 4666 
L 3525 4666 
L 3525 4397 
L 1831 0 
L 1172 0 
L 2766 4134 
L 525 4134 
L 525 4666 
z
" transform="scale(0.015625)"/>
       </defs>
       <use xlink:href="#DejaVuSans-37"/>
       <use xlink:href="#DejaVuSans-2e" x="63.623047"/>
       <use xlink:href="#DejaVuSans-35" x="95.410156"/>
      </g>
     </g>
    </g>
    <g id="xtick_5">
     <g id="line2d_9">
      <path d="M 244.859681 184.36327 
L 244.859681 0.72 
" clip-path="url(#pebe5199fe4)" style="fill: none; stroke-dasharray: 0.8,1.32; stroke-dashoffset: 0; stroke: #000000; stroke-opacity: 0.5; stroke-width: 0.8"/>
     </g>
     <g id="line2d_10">
      <g>
       <use xlink:href="#me9ba21a3a7" x="244.859681" y="184.36327" style="stroke: #000000; stroke-width: 0.8"/>
      </g>
     </g>
     <g id="text_5">
      <!-- 10.0 -->
      <g transform="translate(233.726869 198.961707) scale(0.1 -0.1)">
       <defs>
        <path id="DejaVuSans-31" d="M 794 531 
L 1825 531 
L 1825 4091 
L 703 3866 
L 703 4441 
L 1819 4666 
L 2450 4666 
L 2450 531 
L 3481 531 
L 3481 0 
L 794 0 
L 794 531 
z
" transform="scale(0.015625)"/>
       </defs>
       <use xlink:href="#DejaVuSans-31"/>
       <use xlink:href="#DejaVuSans-30" x="63.623047"/>
       <use xlink:href="#DejaVuSans-2e" x="127.246094"/>
       <use xlink:href="#DejaVuSans-30" x="159.033203"/>
      </g>
     </g>
    </g>
    <g id="xtick_6">
     <g id="line2d_11">
      <path d="M 296.448899 184.36327 
L 296.448899 0.72 
" clip-path="url(#pebe5199fe4)" style="fill: none; stroke-dasharray: 0.8,1.32; stroke-dashoffset: 0; stroke: #000000; stroke-opacity: 0.5; stroke-width: 0.8"/>
     </g>
     <g id="line2d_12">
      <g>
       <use xlink:href="#me9ba21a3a7" x="296.448899" y="184.36327" style="stroke: #000000; stroke-width: 0.8"/>
      </g>
     </g>
     <g id="text_6">
      <!-- 12.5 -->
      <g transform="translate(285.316086 198.961707) scale(0.1 -0.1)">
       <use xlink:href="#DejaVuSans-31"/>
       <use xlink:href="#DejaVuSans-32" x="63.623047"/>
       <use xlink:href="#DejaVuSans-2e" x="127.246094"/>
       <use xlink:href="#DejaVuSans-35" x="159.033203"/>
      </g>
     </g>
    </g>
    <g id="xtick_7">
     <g id="line2d_13">
      <path d="M 348.038116 184.36327 
L 348.038116 0.72 
" clip-path="url(#pebe5199fe4)" style="fill: none; stroke-dasharray: 0.8,1.32; stroke-dashoffset: 0; stroke: #000000; stroke-opacity: 0.5; stroke-width: 0.8"/>
     </g>
     <g id="line2d_14">
      <g>
       <use xlink:href="#me9ba21a3a7" x="348.038116" y="184.36327" style="stroke: #000000; stroke-width: 0.8"/>
      </g>
     </g>
     <g id="text_7">
      <!-- 15.0 -->
      <g transform="translate(336.905303 198.961707) scale(0.1 -0.1)">
       <use xlink:href="#DejaVuSans-31"/>
       <use xlink:href="#DejaVuSans-35" x="63.623047"/>
       <use xlink:href="#DejaVuSans-2e" x="127.246094"/>
       <use xlink:href="#DejaVuSans-30" x="159.033203"/>
      </g>
     </g>
    </g>
    <g id="xtick_8">
     <g id="line2d_15">
      <path d="M 399.627333 184.36327 
L 399.627333 0.72 
" clip-path="url(#pebe5199fe4)" style="fill: none; stroke-dasharray: 0.8,1.32; stroke-dashoffset: 0; stroke: #000000; stroke-opacity: 0.5; stroke-width: 0.8"/>
     </g>
     <g id="line2d_16">
      <g>
       <use xlink:href="#me9ba21a3a7" x="399.627333" y="184.36327" style="stroke: #000000; stroke-width: 0.8"/>
      </g>
     </g>
     <g id="text_8">
      <!-- 17.5 -->
      <g transform="translate(388.494521 198.961707) scale(0.1 -0.1)">
       <use xlink:href="#DejaVuSans-31"/>
       <use xlink:href="#DejaVuSans-37" x="63.623047"/>
       <use xlink:href="#DejaVuSans-2e" x="127.246094"/>
       <use xlink:href="#DejaVuSans-35" x="159.033203"/>
      </g>
     </g>
    </g>
    <g id="text_9">
     <!-- Zeit [s] -->
     <g transform="translate(214.665073 208.639832) scale(0.1 -0.1)">
      <defs>
       <path id="DejaVuSans-5a" d="M 359 4666 
L 4025 4666 
L 4025 4184 
L 1075 531 
L 4097 531 
L 4097 0 
L 288 0 
L 288 481 
L 3238 4134 
L 359 4134 
L 359 4666 
z
" transform="scale(0.015625)"/>
       <path id="DejaVuSans-65" d="M 3597 1894 
L 3597 1613 
L 953 1613 
Q 991 1019 1311 708 
Q 1631 397 2203 397 
Q 2534 397 2845 478 
Q 3156 559 3463 722 
L 3463 178 
Q 3153 47 2828 -22 
Q 2503 -91 2169 -91 
Q 1331 -91 842 396 
Q 353 884 353 1716 
Q 353 2575 817 3079 
Q 1281 3584 2069 3584 
Q 2775 3584 3186 3129 
Q 3597 2675 3597 1894 
z
M 3022 2063 
Q 3016 2534 2758 2815 
Q 2500 3097 2075 3097 
Q 1594 3097 1305 2825 
Q 1016 2553 972 2059 
L 3022 2063 
z
" transform="scale(0.015625)"/>
       <path id="DejaVuSans-69" d="M 603 3500 
L 1178 3500 
L 1178 0 
L 603 0 
L 603 3500 
z
M 603 4863 
L 1178 4863 
L 1178 4134 
L 603 4134 
L 603 4863 
z
" transform="scale(0.015625)"/>
       <path id="DejaVuSans-74" d="M 1172 4494 
L 1172 3500 
L 2356 3500 
L 2356 3053 
L 1172 3053 
L 1172 1153 
Q 1172 725 1289 603 
Q 1406 481 1766 481 
L 2356 481 
L 2356 0 
L 1766 0 
Q 1100 0 847 248 
Q 594 497 594 1153 
L 594 3053 
L 172 3053 
L 172 3500 
L 594 3500 
L 594 4494 
L 1172 4494 
z
" transform="scale(0.015625)"/>
       <path id="DejaVuSans-20" transform="scale(0.015625)"/>
       <path id="DejaVuSans-5b" d="M 550 4863 
L 1875 4863 
L 1875 4416 
L 1125 4416 
L 1125 -397 
L 1875 -397 
L 1875 -844 
L 550 -844 
L 550 4863 
z
" transform="scale(0.015625)"/>
       <path id="DejaVuSans-73" d="M 2834 3397 
L 2834 2853 
Q 2591 2978 2328 3040 
Q 2066 3103 1784 3103 
Q 1356 3103 1142 2972 
Q 928 2841 928 2578 
Q 928 2378 1081 2264 
Q 1234 2150 1697 2047 
L 1894 2003 
Q 2506 1872 2764 1633 
Q 3022 1394 3022 966 
Q 3022 478 2636 193 
Q 2250 -91 1575 -91 
Q 1294 -91 989 -36 
Q 684 19 347 128 
L 347 722 
Q 666 556 975 473 
Q 1284 391 1588 391 
Q 1994 391 2212 530 
Q 2431 669 2431 922 
Q 2431 1156 2273 1281 
Q 2116 1406 1581 1522 
L 1381 1569 
Q 847 1681 609 1914 
Q 372 2147 372 2553 
Q 372 3047 722 3315 
Q 1072 3584 1716 3584 
Q 2034 3584 2315 3537 
Q 2597 3491 2834 3397 
z
" transform="scale(0.015625)"/>
       <path id="DejaVuSans-5d" d="M 1947 4863 
L 1947 -844 
L 622 -844 
L 622 -397 
L 1369 -397 
L 1369 4416 
L 622 4416 
L 622 4863 
L 1947 4863 
z
" transform="scale(0.015625)"/>
      </defs>
      <use xlink:href="#DejaVuSans-5a"/>
      <use xlink:href="#DejaVuSans-65" x="68.505859"/>
      <use xlink:href="#DejaVuSans-69" x="130.029297"/>
      <use xlink:href="#DejaVuSans-74" x="157.8125"/>
      <use xlink:href="#DejaVuSans-20" x="197.021484"/>
      <use xlink:href="#DejaVuSans-5b" x="228.808594"/>
      <use xlink:href="#DejaVuSans-73" x="267.822266"/>
      <use xlink:href="#DejaVuSans-5d" x="319.921875"/>
     </g>
    </g>
   </g>
   <g id="matplotlib.axis_2">
    <g id="ytick_1">
     <g id="line2d_17">
      <path d="M 38.502813 166.720246 
L 426.71952 166.720246 
" clip-path="url(#pebe5199fe4)" style="fill: none; stroke-dasharray: 0.8,1.32; stroke-dashoffset: 0; stroke: #000000; stroke-opacity: 0.5; stroke-width: 0.8"/>
     </g>
     <g id="line2d_18">
      <defs>
       <path id="m66cee0e5e7" d="M 0 0 
L -3.5 0 
" style="stroke: #000000; stroke-width: 0.8"/>
      </defs>
      <g>
       <use xlink:href="#m66cee0e5e7" x="38.502813" y="166.720246" style="stroke: #000000; stroke-width: 0.8"/>
      </g>
     </g>
     <g id="text_10">
      <!-- −20 -->
      <g transform="translate(10.398125 170.519465) scale(0.1 -0.1)">
       <defs>
        <path id="DejaVuSans-2212" d="M 678 2272 
L 4684 2272 
L 4684 1741 
L 678 1741 
L 678 2272 
z
" transform="scale(0.015625)"/>
       </defs>
       <use xlink:href="#DejaVuSans-2212"/>
       <use xlink:href="#DejaVuSans-32" x="83.789062"/>
       <use xlink:href="#DejaVuSans-30" x="147.412109"/>
      </g>
     </g>
    </g>
    <g id="ytick_2">
     <g id="line2d_19">
      <path d="M 38.502813 136.171661 
L 426.71952 136.171661 
" clip-path="url(#pebe5199fe4)" style="fill: none; stroke-dasharray: 0.8,1.32; stroke-dashoffset: 0; stroke: #000000; stroke-opacity: 0.5; stroke-width: 0.8"/>
     </g>
     <g id="line2d_20">
      <g>
       <use xlink:href="#m66cee0e5e7" x="38.502813" y="136.171661" style="stroke: #000000; stroke-width: 0.8"/>
      </g>
     </g>
     <g id="text_11">
      <!-- −10 -->
      <g transform="translate(10.398125 139.970879) scale(0.1 -0.1)">
       <use xlink:href="#DejaVuSans-2212"/>
       <use xlink:href="#DejaVuSans-31" x="83.789062"/>
       <use xlink:href="#DejaVuSans-30" x="147.412109"/>
      </g>
     </g>
    </g>
    <g id="ytick_3">
     <g id="line2d_21">
      <path d="M 38.502813 105.623075 
L 426.71952 105.623075 
" clip-path="url(#pebe5199fe4)" style="fill: none; stroke-dasharray: 0.8,1.32; stroke-dashoffset: 0; stroke: #000000; stroke-opacity: 0.5; stroke-width: 0.8"/>
     </g>
     <g id="line2d_22">
      <g>
       <use xlink:href="#m66cee0e5e7" x="38.502813" y="105.623075" style="stroke: #000000; stroke-width: 0.8"/>
      </g>
     </g>
     <g id="text_12">
      <!-- 0 -->
      <g transform="translate(25.140313 109.422294) scale(0.1 -0.1)">
       <use xlink:href="#DejaVuSans-30"/>
      </g>
     </g>
    </g>
    <g id="ytick_4">
     <g id="line2d_23">
      <path d="M 38.502813 75.07449 
L 426.71952 75.07449 
" clip-path="url(#pebe5199fe4)" style="fill: none; stroke-dasharray: 0.8,1.32; stroke-dashoffset: 0; stroke: #000000; stroke-opacity: 0.5; stroke-width: 0.8"/>
     </g>
     <g id="line2d_24">
      <g>
       <use xlink:href="#m66cee0e5e7" x="38.502813" y="75.07449" style="stroke: #000000; stroke-width: 0.8"/>
      </g>
     </g>
     <g id="text_13">
      <!-- 10 -->
      <g transform="translate(18.777813 78.873709) scale(0.1 -0.1)">
       <use xlink:href="#DejaVuSans-31"/>
       <use xlink:href="#DejaVuSans-30" x="63.623047"/>
      </g>
     </g>
    </g>
    <g id="ytick_5">
     <g id="line2d_25">
      <path d="M 38.502813 44.525904 
L 426.71952 44.525904 
" clip-path="url(#pebe5199fe4)" style="fill: none; stroke-dasharray: 0.8,1.32; stroke-dashoffset: 0; stroke: #000000; stroke-opacity: 0.5; stroke-width: 0.8"/>
     </g>
     <g id="line2d_26">
      <g>
       <use xlink:href="#m66cee0e5e7" x="38.502813" y="44.525904" style="stroke: #000000; stroke-width: 0.8"/>
      </g>
     </g>
     <g id="text_14">
      <!-- 20 -->
      <g transform="translate(18.777813 48.325123) scale(0.1 -0.1)">
       <use xlink:href="#DejaVuSans-32"/>
       <use xlink:href="#DejaVuSans-30" x="63.623047"/>
      </g>
     </g>
    </g>
    <g id="ytick_6">
     <g id="line2d_27">
      <path d="M 38.502813 13.977319 
L 426.71952 13.977319 
" clip-path="url(#pebe5199fe4)" style="fill: none; stroke-dasharray: 0.8,1.32; stroke-dashoffset: 0; stroke: #000000; stroke-opacity: 0.5; stroke-width: 0.8"/>
     </g>
     <g id="line2d_28">
      <g>
       <use xlink:href="#m66cee0e5e7" x="38.502813" y="13.977319" style="stroke: #000000; stroke-width: 0.8"/>
      </g>
     </g>
     <g id="text_15">
      <!-- 30 -->
      <g transform="translate(18.777813 17.776538) scale(0.1 -0.1)">
       <defs>
        <path id="DejaVuSans-33" d="M 2597 2516 
Q 3050 2419 3304 2112 
Q 3559 1806 3559 1356 
Q 3559 666 3084 287 
Q 2609 -91 1734 -91 
Q 1441 -91 1130 -33 
Q 819 25 488 141 
L 488 750 
Q 750 597 1062 519 
Q 1375 441 1716 441 
Q 2309 441 2620 675 
Q 2931 909 2931 1356 
Q 2931 1769 2642 2001 
Q 2353 2234 1838 2234 
L 1294 2234 
L 1294 2753 
L 1863 2753 
Q 2328 2753 2575 2939 
Q 2822 3125 2822 3475 
Q 2822 3834 2567 4026 
Q 2313 4219 1838 4219 
Q 1578 4219 1281 4162 
Q 984 4106 628 3988 
L 628 4550 
Q 988 4650 1302 4700 
Q 1616 4750 1894 4750 
Q 2613 4750 3031 4423 
Q 3450 4097 3450 3541 
Q 3450 3153 3228 2886 
Q 3006 2619 2597 2516 
z
" transform="scale(0.015625)"/>
       </defs>
       <use xlink:href="#DejaVuSans-33"/>
       <use xlink:href="#DejaVuSans-30" x="63.623047"/>
      </g>
     </g>
    </g>
    <g id="text_16">
     <!-- Kraft [N] -->
     <g transform="translate(8.318438 113.804135) rotate(-90) scale(0.1 -0.1)">
      <defs>
       <path id="DejaVuSans-4b" d="M 628 4666 
L 1259 4666 
L 1259 2694 
L 3353 4666 
L 4166 4666 
L 1850 2491 
L 4331 0 
L 3500 0 
L 1259 2247 
L 1259 0 
L 628 0 
L 628 4666 
z
" transform="scale(0.015625)"/>
       <path id="DejaVuSans-72" d="M 2631 2963 
Q 2534 3019 2420 3045 
Q 2306 3072 2169 3072 
Q 1681 3072 1420 2755 
Q 1159 2438 1159 1844 
L 1159 0 
L 581 0 
L 581 3500 
L 1159 3500 
L 1159 2956 
Q 1341 3275 1631 3429 
Q 1922 3584 2338 3584 
Q 2397 3584 2469 3576 
Q 2541 3569 2628 3553 
L 2631 2963 
z
" transform="scale(0.015625)"/>
       <path id="DejaVuSans-61" d="M 2194 1759 
Q 1497 1759 1228 1600 
Q 959 1441 959 1056 
Q 959 750 1161 570 
Q 1363 391 1709 391 
Q 2188 391 2477 730 
Q 2766 1069 2766 1631 
L 2766 1759 
L 2194 1759 
z
M 3341 1997 
L 3341 0 
L 2766 0 
L 2766 531 
Q 2569 213 2275 61 
Q 1981 -91 1556 -91 
Q 1019 -91 701 211 
Q 384 513 384 1019 
Q 384 1609 779 1909 
Q 1175 2209 1959 2209 
L 2766 2209 
L 2766 2266 
Q 2766 2663 2505 2880 
Q 2244 3097 1772 3097 
Q 1472 3097 1187 3025 
Q 903 2953 641 2809 
L 641 3341 
Q 956 3463 1253 3523 
Q 1550 3584 1831 3584 
Q 2591 3584 2966 3190 
Q 3341 2797 3341 1997 
z
" transform="scale(0.015625)"/>
       <path id="DejaVuSans-66" d="M 2375 4863 
L 2375 4384 
L 1825 4384 
Q 1516 4384 1395 4259 
Q 1275 4134 1275 3809 
L 1275 3500 
L 2222 3500 
L 2222 3053 
L 1275 3053 
L 1275 0 
L 697 0 
L 697 3053 
L 147 3053 
L 147 3500 
L 697 3500 
L 697 3744 
Q 697 4328 969 4595 
Q 1241 4863 1831 4863 
L 2375 4863 
z
" transform="scale(0.015625)"/>
       <path id="DejaVuSans-4e" d="M 628 4666 
L 1478 4666 
L 3547 763 
L 3547 4666 
L 4159 4666 
L 4159 0 
L 3309 0 
L 1241 3903 
L 1241 0 
L 628 0 
L 628 4666 
z
" transform="scale(0.015625)"/>
      </defs>
      <use xlink:href="#DejaVuSans-4b"/>
      <use xlink:href="#DejaVuSans-72" x="65.576172"/>
      <use xlink:href="#DejaVuSans-61" x="106.689453"/>
      <use xlink:href="#DejaVuSans-66" x="167.96875"/>
      <use xlink:href="#DejaVuSans-74" x="201.423828"/>
      <use xlink:href="#DejaVuSans-20" x="240.632812"/>
      <use xlink:href="#DejaVuSans-5b" x="272.419922"/>
      <use xlink:href="#DejaVuSans-4e" x="311.433594"/>
      <use xlink:href="#DejaVuSans-5d" x="386.238281"/>
     </g>
    </g>
   </g>
   <g id="line2d_29">
    <path d="M 38.502813 105.612932 
L 167.035704 105.626378 
L 167.248444 180.831669 
L 167.37214 141.521758 
L 167.592103 146.262895 
L 167.740271 165.186066 
L 168.072688 137.568803 
L 168.238021 138.098821 
L 168.445166 128.915013 
L 168.611864 115.95082 
L 168.776803 119.365491 
L 168.942218 103.49561 
L 169.107821 118.902778 
L 169.315652 110.523323 
L 169.442143 89.023166 
L 169.774075 105.029242 
L 169.93992 113.535946 
L 169.979168 99.881534 
L 170.144858 103.464783 
L 170.311488 102.43215 
L 170.476552 105.397543 
L 170.683728 90.580787 
L 171.018264 102.336539 
L 171.184495 115.032417 
L 171.390371 106.255587 
L 171.731979 106.413245 
L 171.853342 106.176747 
L 172.017345 104.078346 
L 172.224076 94.6509 
L 172.390467 110.99974 
L 172.597282 112.851188 
L 172.867074 104.39486 
L 172.890431 84.334053 
L 173.344281 115.857992 
L 173.426692 96.004441 
L 174.089983 120.460255 
L 174.256107 104.407746 
L 174.421625 117.551343 
L 174.629721 96.791341 
L 174.835794 119.788329 
L 174.960194 102.831618 
L 175.292269 111.570717 
L 175.512596 106.871703 
L 175.717338 106.855989 
L 175.842435 112.321041 
L 175.966082 103.677236 
L 176.174618 106.152132 
L 176.339554 115.19386 
L 176.547265 116.815907 
L 176.712839 113.400115 
L 176.878337 113.11071 
L 177.086584 111.612453 
L 177.211731 97.10169 
L 177.500898 114.00691 
L 177.542799 103.150838 
L 177.708732 103.155288 
L 177.875145 102.728025 
L 178.039763 114.49699 
L 178.206907 110.24203 
L 178.376506 111.896035 
L 178.579448 108.337121 
L 178.706389 93.605087 
L 178.910895 108.134882 
L 179.117783 112.234934 
L 179.24249 111.084749 
L 179.49159 106.075306 
L 179.657205 115.894184 
L 179.782056 108.505071 
L 179.947148 110.356016 
L 180.112916 107.701883 
L 180.321054 108.667356 
L 180.528161 105.718728 
L 180.735556 106.109539 
L 180.860072 106.966618 
L 181.066874 103.699529 
L 181.152699 107.133414 
L 181.35943 106.755932 
L 181.649551 116.552963 
L 182.00196 105.266282 
L 182.168021 103.676957 
L 182.519423 112.060975 
L 182.684974 108.653418 
L 183.005638 110.003603 
L 183.185199 100.458195 
L 183.389727 110.390126 
L 183.556317 106.318516 
L 183.721917 95.344936 
L 183.886987 107.943536 
L 184.052953 106.489834 
L 184.343248 108.837928 
L 184.509088 103.001506 
L 184.634012 94.607563 
L 184.846511 116.625622 
L 184.966286 108.804196 
L 185.104134 108.600108 
L 185.321087 105.910898 
L 185.506274 109.004462 
L 185.770503 107.59528 
L 185.963761 107.097155 
L 186.129707 97.966072 
L 186.462318 112.447399 
L 186.667948 120.695214 
L 186.834352 118.524086 
L 187.041777 106.257371 
L 187.208633 107.088709 
L 187.335181 117.441575 
L 187.498644 111.649122 
L 187.705807 99.210974 
L 188.038914 116.663565 
L 188.244543 107.411163 
L 188.369759 109.565383 
L 188.535505 103.980781 
L 188.702007 107.442722 
L 188.868699 106.134364 
L 189.033047 118.786429 
L 189.323182 96.416864 
L 189.572243 117.125486 
L 189.614787 105.388257 
L 189.737865 113.234763 
L 190.070259 102.676084 
L 190.237035 115.41732 
L 190.527056 115.56018 
L 190.611255 102.582468 
L 190.817251 117.539978 
L 190.942467 109.021042 
L 191.107627 106.982475 
L 191.356029 107.446886 
L 191.614938 119.828124 
L 191.811547 102.674986 
L 192.019145 113.199796 
L 192.248529 106.046186 
L 192.417055 107.732294 
L 192.518548 120.120332 
L 192.809655 109.752204 
L 193.265275 123.228649 
L 193.525223 106.998181 
L 193.641482 110.759266 
L 193.719918 108.889143 
L 193.979383 109.887083 
L 194.056481 114.32957 
L 194.225003 106.431325 
L 194.383236 107.887034 
L 194.548805 100.165238 
L 194.797579 96.302763 
L 194.922159 115.218647 
L 195.295114 117.748995 
L 195.586589 108.62292 
L 195.83521 113.639514 
L 196.001321 111.868505 
L 196.124398 112.874424 
L 196.291833 104.529364 
L 196.580732 112.632306 
L 196.748291 103.53405 
L 196.912717 120.558833 
L 196.954617 107.651557 
L 197.119948 103.797252 
L 197.327727 107.676553 
L 197.540592 104.775485 
L 197.86703 116.365464 
L 198.239856 104.927637 
L 198.405795 112.191746 
L 198.541309 112.324665 
L 198.697139 105.909299 
L 198.878303 109.481301 
L 199.235536 95.778813 
L 199.483734 99.064933 
L 199.649563 99.725497 
L 199.732634 105.912144 
L 200.022637 111.132355 
L 200.0651 114.52698 
L 200.479468 103.110311 
L 200.648575 118.331611 
L 200.769743 104.303784 
L 200.936176 110.16374 
L 201.144172 103.396279 
L 201.269763 105.617137 
L 201.433198 117.285596 
L 201.599156 104.021498 
L 201.771257 112.702983 
L 201.972225 109.036498 
L 202.096849 110.928019 
L 202.32375 109.686811 
L 202.497627 113.323898 
L 202.933285 111.02154 
L 203.066925 108.899667 
L 203.258895 111.091481 
L 203.345358 101.814146 
L 203.591491 102.57958 
L 203.676205 114.214607 
L 203.881319 111.172048 
L 204.010432 105.417035 
L 204.30162 107.740235 
L 204.466335 98.827487 
L 204.842997 116.213495 
L 204.974216 109.280481 
L 205.211776 117.650276 
L 205.458934 98.33064 
L 205.562396 111.540753 
L 205.79286 101.445233 
L 205.958517 103.504044 
L 206.123628 112.542943 
L 206.249665 103.699368 
L 206.455061 112.204798 
L 206.579877 109.661728 
L 206.787181 118.351079 
L 206.953379 111.081306 
L 207.201515 116.737304 
L 207.326492 108.891954 
L 207.533153 111.220652 
L 207.628418 106.421065 
L 207.823123 113.834029 
L 207.950223 105.392626 
L 207.989909 118.381743 
L 208.282167 111.856719 
L 208.654127 118.165308 
L 208.819692 114.387836 
L 209.06875 116.472593 
L 209.364106 108.391124 
L 209.52488 109.510664 
L 209.898115 116.207982 
L 210.022111 111.428454 
L 210.190221 119.033971 
L 210.478378 111.520586 
L 210.562104 116.259918 
L 210.72769 112.883688 
L 210.897039 117.578266 
L 211.060182 106.032421 
L 211.229053 112.466755 
L 211.394521 101.225181 
L 211.572053 114.621994 
L 211.726285 99.537345 
L 212.016167 114.526223 
L 212.102259 124.353698 
L 212.265662 113.38756 
L 212.431349 129.0584 
L 212.597417 113.193131 
L 212.805319 106.0306 
L 212.948447 106.384071 
L 213.097541 124.236905 
L 213.345276 117.005687 
L 213.635086 118.841198 
L 213.718524 114.848879 
L 213.800791 115.503875 
L 214.091247 109.869017 
L 214.136742 117.874739 
L 214.329273 113.266123 
L 214.517147 101.874624 
L 214.645376 112.541014 
L 214.961804 104.379202 
L 215.003774 125.466404 
L 215.169079 116.239802 
L 215.542481 108.146689 
L 215.915184 114.85927 
L 216.206865 105.850419 
L 216.41344 95.121786 
L 216.58419 108.53737 
L 216.745894 99.504636 
L 216.870653 111.724355 
L 217.076131 104.951052 
L 217.242437 115.612305 
L 217.454308 121.493433 
L 217.614932 109.116849 
L 217.786303 111.022684 
L 217.947678 114.940837 
L 218.073785 114.499105 
L 218.452737 109.433839 
L 218.652175 118.148408 
L 218.778428 108.130769 
L 218.993718 115.282615 
L 219.108845 108.646559 
L 219.27589 113.858534 
L 219.48269 106.187858 
L 219.647945 118.005461 
L 219.813668 108.264127 
L 220.16022 114.370716 
L 220.313743 114.608242 
L 220.561116 102.493947 
L 220.685603 111.443322 
L 220.851507 110.897247 
L 221.028229 115.977364 
L 221.185178 113.716415 
L 221.473407 124.697026 
L 221.556393 112.402193 
L 221.76367 126.740071 
L 221.888417 109.388042 
L 222.13683 115.909641 
L 222.261216 111.667706 
L 222.386698 128.755336 
L 222.551674 112.066351 
L 222.75861 111.300215 
L 222.900334 108.953484 
L 223.095895 113.92883 
L 223.299739 111.379795 
L 223.506579 111.685025 
L 223.631297 116.931194 
L 223.879809 115.00225 
L 224.088084 106.319884 
L 224.128783 110.259536 
L 224.294277 115.061842 
L 224.501503 108.111901 
L 224.628545 116.892834 
L 224.87638 116.171904 
L 224.999346 89.918792 
L 225.165961 109.725882 
L 225.30129 111.61214 
L 225.500074 111.295996 
L 225.760961 112.444972 
L 225.930244 111.978248 
L 226.047075 121.388243 
L 226.207896 103.122835 
L 226.374016 117.262472 
L 226.583675 110.134542 
L 226.755858 108.900837 
L 227.012404 111.664482 
L 227.342758 112.211339 
L 227.392505 110.31781 
L 227.592455 117.29928 
L 227.758081 104.040466 
L 227.883821 116.636851 
L 228.131341 111.456024 
L 228.255833 116.808803 
L 228.512468 122.718556 
L 228.630703 107.277774 
L 228.795006 107.272627 
L 229.043821 122.349023 
L 229.13178 112.981057 
L 229.541201 108.268367 
L 229.626368 4.251601 
L 230.038834 13.204872 
L 230.338196 78.165562 
L 230.577786 80.593911 
L 230.662431 94.533681 
L 230.82737 94.423875 
L 231.035274 105.957887 
L 231.344786 109.280846 
L 231.577432 107.370708 
L 231.798122 103.652226 
L 231.880109 122.170361 
L 232.04936 106.691734 
L 232.258259 118.159997 
L 232.337894 106.295161 
L 232.547216 109.778117 
L 232.792382 102.808809 
L 233.082376 104.412042 
L 233.206972 101.619265 
L 233.457252 112.257628 
L 233.624338 111.790396 
L 233.999199 98.943386 
L 234.080582 104.500601 
L 234.286248 95.776666 
L 234.576824 105.282362 
L 234.783175 108.20764 
L 234.950203 105.301995 
L 235.11523 114.674934 
L 235.281034 107.93585 
L 235.450774 106.48431 
L 235.655156 116.487603 
L 236.151866 104.403703 
L 236.324735 105.803462 
L 236.484455 104.951755 
L 236.651736 105.017718 
L 236.817354 98.193471 
L 237.106334 98.857298 
L 237.189713 101.429186 
L 237.482227 101.45219 
L 237.527784 110.802106 
L 237.689531 105.057925 
L 237.895417 104.996596 
L 238.14327 105.93504 
L 238.2678 107.990347 
L 238.392143 104.682909 
L 238.558722 112.713555 
L 238.727855 110.978703 
L 238.892169 106.308051 
L 239.115918 109.467297 
L 239.387212 103.857223 
L 239.428711 106.805361 
L 239.594769 104.816131 
L 239.760597 105.427178 
L 240.092821 103.249743 
L 240.259079 112.60434 
L 240.466943 100.659492 
L 240.729629 105.681684 
L 240.963756 98.347863 
L 241.128739 110.244679 
L 241.419183 105.209813 
L 241.502199 105.323604 
L 241.710003 105.423887 
L 241.835474 101.176751 
L 242.041257 104.537591 
L 242.218911 99.919888 
L 242.55692 107.662116 
L 242.710371 103.548113 
L 243.036737 104.586108 
L 243.201958 101.923803 
L 243.409889 105.427656 
L 243.742776 101.788345 
L 243.908832 106.792099 
L 244.075172 104.844725 
L 244.246002 100.967867 
L 244.493018 109.207577 
L 244.800421 104.50051 
L 244.945504 104.799428 
L 245.278198 98.097516 
L 245.460656 100.213678 
L 245.6088 106.868475 
L 245.774819 107.384956 
L 245.941777 107.323653 
L 246.106994 103.211519 
L 246.396875 105.81298 
L 246.480254 107.758805 
L 246.688295 103.592686 
L 246.813778 105.308067 
L 246.983913 112.496742 
L 247.250664 101.137115 
L 247.329504 106.938246 
L 247.561323 104.230296 
L 247.769858 112.537747 
L 247.852662 104.007031 
L 248.141921 105.042789 
L 248.224944 104.412561 
L 248.348878 105.265016 
L 248.556392 108.004866 
L 248.763845 99.523698 
L 248.88818 103.93103 
L 249.054 105.720164 
L 249.22004 104.352159 
L 249.386714 107.409029 
L 249.596948 101.839605 
L 249.718457 101.665288 
L 249.926052 107.550299 
L 250.066819 105.921161 
L 250.25687 105.45957 
L 250.506274 99.230631 
L 250.603771 105.299568 
L 250.755353 105.30863 
L 250.920532 106.102017 
L 251.210704 104.762176 
L 251.293338 107.568265 
L 251.626994 102.938063 
L 251.792847 104.623746 
L 252.007021 103.61788 
L 252.165822 101.815133 
L 252.293748 109.394313 
L 252.496563 103.95515 
L 252.706411 104.013273 
L 252.871106 110.345646 
L 252.99455 101.971992 
L 253.165828 105.838445 
L 253.36734 107.328917 
L 253.574021 106.035445 
L 253.698526 104.185637 
L 253.864927 105.142179 
L 254.156567 106.131565 
L 254.198387 104.94203 
L 254.406504 105.090903 
L 254.542501 105.421633 
L 254.698803 101.78628 
L 254.944477 105.49804 
L 255.110542 105.361011 
L 255.317541 103.870081 
L 255.607942 114.572936 
L 255.815387 103.274797 
L 256.105723 105.519467 
L 256.271124 112.8829 
L 256.519706 97.986171 
L 256.645377 106.353664 
L 256.852167 103.036738 
L 257.059435 106.1669 
L 257.308719 98.730433 
L 257.55682 106.712695 
L 257.848371 105.847062 
L 258.13694 111.499755 
L 258.344332 101.520202 
L 258.510617 105.397785 
L 258.676182 104.61649 
L 258.883911 105.766081 
L 259.090992 105.303014 
L 259.180042 99.288815 
L 259.390162 105.260368 
L 259.555059 105.3598 
L 259.878695 98.819817 
L 260.170453 99.49855 
L 260.25215 107.113285 
L 260.378588 104.883365 
L 260.624836 105.805293 
L 260.833066 104.595154 
L 260.925458 102.70412 
L 261.217238 105.315622 
L 261.291853 102.057342 
L 261.457507 101.719407 
L 261.62349 106.193129 
L 261.793777 106.171585 
L 261.9967 105.204974 
L 262.121079 105.895999 
L 262.333093 103.531875 
L 262.501148 100.114221 
L 262.702624 111.563403 
L 262.787279 101.059666 
L 262.963238 104.608544 
L 263.162493 101.608875 
L 263.333761 105.571822 
L 263.490584 105.268081 
L 263.698297 104.004609 
L 263.86419 108.005154 
L 264.030171 105.740763 
L 264.230218 101.366756 
L 264.406474 112.653942 
L 264.559477 104.825619 
L 264.697618 106.220281 
L 264.902419 99.16824 
L 265.39929 106.019801 
L 265.607052 104.258301 
L 265.73121 105.430464 
L 265.896843 104.287007 
L 266.104126 113.57286 
L 266.311416 105.781002 
L 266.435941 106.456083 
L 266.651561 99.363597 
L 266.812423 105.307938 
L 267.017079 105.289577 
L 267.143552 105.039756 
L 267.265749 104.245818 
L 267.474411 105.31526 
L 267.637873 102.068653 
L 267.858294 101.720252 
L 267.971726 106.763104 
L 268.181608 99.974768 
L 268.387957 105.321393 
L 268.518424 104.394704 
L 268.679162 104.891457 
L 268.807534 107.070851 
L 269.010967 106.776978 
L 269.302164 114.172821 
L 269.38594 103.036331 
L 269.676314 106.089215 
L 269.841292 104.768474 
L 270.047991 99.623351 
L 270.216902 104.293911 
L 270.379728 104.507462 
L 270.545791 105.756652 
L 270.752947 104.625203 
L 271.125855 100.614097 
L 271.498396 106.209235 
L 271.872285 98.945855 
L 271.913154 118.064511 
L 272.165896 106.322639 
L 272.369808 103.941534 
L 272.413556 104.556647 
L 272.669632 104.693875 
L 272.784705 105.941617 
L 272.952115 102.028653 
L 273.199024 105.831636 
L 273.324085 105.379118 
L 273.53568 102.331607 
L 273.657953 113.824692 
L 273.82134 106.28806 
L 274.196583 105.968336 
L 274.321023 98.06771 
L 274.485885 98.966705 
L 274.680553 106.511347 
L 275.026064 105.341313 
L 275.191841 105.381425 
L 275.398863 99.022954 
L 275.523705 105.481913 
L 275.773336 104.056292 
L 275.93834 109.150539 
L 276.06276 107.035229 
L 276.311749 106.255857 
L 276.394572 103.019372 
L 276.561025 103.399468 
L 276.768191 102.783702 
L 276.933694 105.630163 
L 277.182333 105.780544 
L 277.306299 104.766736 
L 277.602201 105.408507 
L 277.762832 107.98297 
L 277.929639 102.020467 
L 278.136501 106.696738 
L 278.260601 104.25356 
L 278.468023 105.7492 
L 278.633894 105.331124 
L 278.799534 100.451608 
L 278.965744 105.899806 
L 279.131096 106.903518 
L 279.669679 99.116577 
L 279.878463 105.048857 
L 280.084202 105.845537 
L 280.254342 110.061712 
L 280.374434 100.156603 
L 280.664929 105.478663 
L 280.707091 104.95684 
L 280.87328 104.486462 
L 281.162822 105.401494 
L 281.246472 97.913847 
L 281.452269 110.284051 
L 281.577205 104.765137 
L 281.742667 104.998071 
L 281.908955 99.531121 
L 282.240239 105.492287 
L 282.408575 106.335334 
L 282.613615 104.890875 
L 282.863033 105.747309 
L 282.946243 105.28381 
L 283.195056 105.299152 
L 283.277358 102.271773 
L 283.443835 106.290017 
L 283.652216 114.17494 
L 284.147687 105.588458 
L 284.410977 105.528443 
L 284.483738 104.775019 
L 284.645807 108.682833 
L 284.812589 100.291695 
L 285.146679 105.961833 
L 285.434405 99.488241 
L 285.589971 109.853496 
L 285.683437 106.234474 
L 285.848892 106.223267 
L 286.01473 105.680563 
L 286.185335 105.86599 
L 286.387779 106.379271 
L 286.637106 103.829786 
L 286.719907 100.271585 
L 287.096915 104.158448 
L 287.259239 102.212349 
L 287.550005 104.697682 
L 287.717488 106.000576 
L 287.924174 106.534484 
L 288.088619 105.919261 
L 288.254177 101.002432 
L 288.503461 105.439845 
L 288.627545 103.533681 
L 288.793406 104.766346 
L 288.959052 99.57264 
L 289.125201 105.390484 
L 289.333503 105.786293 
L 289.582224 103.881011 
L 289.748963 103.672404 
L 289.914395 111.978425 
L 289.9972 101.066165 
L 290.33018 106.828128 
L 290.500979 102.527908 
L 290.702783 101.09369 
L 290.870098 106.22594 
L 291.034183 106.910643 
L 291.242118 104.571201 
L 291.367064 106.02028 
L 291.574797 113.514118 
L 291.698397 101.749638 
L 291.864183 105.838836 
L 292.207025 104.161207 
L 292.237578 103.569542 
L 292.370664 111.270342 
L 292.534833 105.638567 
L 292.735873 104.30857 
L 293.069791 106.628903 
L 293.235936 103.161309 
L 293.449229 112.461137 
L 293.607703 104.86185 
L 293.939573 107.286285 
L 294.107757 113.388118 
L 294.273493 106.053656 
L 294.477985 106.262667 
L 294.645483 103.727981 
L 294.851356 104.827287 
L 294.977207 114.964481 
L 295.14194 113.575068 
L 295.30829 104.30019 
L 295.475827 105.045912 
L 295.724217 102.570546 
L 295.849825 114.700087 
L 296.015508 105.417693 
L 296.21135 105.176686 
L 296.43168 106.566338 
L 296.595835 101.097152 
L 296.678688 112.307873 
L 296.845169 113.157098 
L 297.052033 104.320854 
L 297.260455 104.716438 
L 297.385752 107.196142 
L 297.551585 103.016052 
L 297.759453 105.166876 
L 297.882771 104.475542 
L 298.090962 104.680757 
L 298.256243 107.493266 
L 298.422527 98.838676 
L 298.71228 105.291475 
L 298.762909 104.28309 
L 298.96197 105.551729 
L 299.09469 108.171029 
L 299.369096 100.824165 
L 299.458192 107.538479 
L 299.618168 105.388173 
L 299.826935 104.384232 
L 300.075903 104.642358 
L 300.118274 99.45859 
L 300.324699 106.699807 
L 300.49011 106.535285 
L 300.832148 105.31286 
L 301.112921 106.70848 
L 301.154643 106.205692 
L 301.362236 106.877472 
L 301.530843 105.099737 
L 301.698668 108.729581 
L 301.835811 102.95041 
L 302.026745 108.694806 
L 302.567853 104.111808 
L 302.858153 105.466023 
L 302.899353 104.791708 
L 303.065972 107.529173 
L 303.313816 105.77962 
L 303.438081 101.137194 
L 303.564915 101.33561 
L 303.729451 100.257492 
L 303.895373 104.927229 
L 304.117223 105.34216 
L 304.270338 104.694859 
L 304.434877 110.005353 
L 304.599794 105.002645 
L 304.766122 105.700234 
L 304.973517 104.979073 
L 305.099461 106.311018 
L 305.46998 107.668194 
L 305.475902 51.839732 
L 305.639145 106.106563 
L 305.887001 99.884358 
L 306.012076 102.036263 
L 306.184017 102.244664 
L 306.345573 106.019268 
L 306.593697 106.160439 
L 306.676907 101.644249 
L 306.805438 105.969766 
L 307.008402 107.16956 
L 307.174443 105.305978 
L 307.34107 105.732717 
L 307.507939 107.055447 
L 307.799879 114.172038 
L 307.837875 99.372488 
L 308.087747 105.002036 
L 308.215475 104.531452 
L 308.378633 105.35723 
L 308.544864 105.51688 
L 308.836812 105.153006 
L 308.923762 102.359935 
L 309.101398 105.924641 
L 309.250121 99.923726 
L 309.422157 100.648773 
L 309.45809 107.291099 
L 309.624294 110.061196 
L 309.790871 105.300015 
L 309.918006 107.179858 
L 310.082723 104.966566 
L 310.288257 105.224922 
L 310.619953 114.943271 
L 310.951654 98.189969 
L 311.118262 97.596469 
L 311.507522 105.496772 
L 311.659303 105.800087 
L 311.823265 154.792681 
L 312.161281 126.113614 
L 312.498394 121.392964 
L 312.661092 122.799557 
L 312.841523 113.182741 
L 313.379178 105.671236 
L 313.577042 107.556328 
L 313.746276 102.996183 
L 313.950077 104.575261 
L 314.033802 101.601508 
L 314.201629 103.920834 
L 314.495707 98.591446 
L 314.578649 104.643904 
L 314.739947 104.648252 
L 314.909075 103.950085 
L 315.166889 108.079257 
L 315.278734 105.381428 
L 315.48951 107.322238 
L 315.652905 105.864086 
L 315.818567 102.726907 
L 316.027603 110.265779 
L 316.194183 99.75538 
L 316.613191 112.766351 
L 316.797756 106.906422 
L 316.986216 108.251826 
L 317.20556 104.878586 
L 317.320802 97.253697 
L 317.564282 105.084405 
L 317.706398 102.036962 
L 317.85523 108.033487 
L 318.0634 105.023513 
L 318.353457 107.740133 
L 318.782499 101.856507 
L 318.85217 104.078235 
L 319.100521 105.078752 
L 319.225076 107.57874 
L 319.558885 99.80102 
L 319.841148 109.133986 
L 320.006421 107.114235 
L 320.136768 108.874927 
L 320.297066 95.772854 
L 320.504369 108.585355 
L 320.629841 108.556644 
L 320.753858 106.938865 
L 321.085565 100.206844 
L 321.335238 111.060444 
L 321.708592 102.608787 
L 321.79598 113.152488 
L 322.165521 103.367942 
L 322.331441 106.70844 
L 322.499834 102.499829 
L 322.663992 101.959764 
L 322.833021 106.618079 
L 323.16259 100.439833 
L 323.335657 107.467464 
L 323.498092 103.64366 
L 323.706095 106.886025 
L 323.836843 105.488999 
L 324.038273 106.927111 
L 324.203811 107.275471 
L 324.370413 100.652415 
L 324.659943 106.819383 
L 324.721012 105.552478 
L 325.116151 109.378154 
L 325.323389 104.700265 
L 325.448723 108.284434 
L 325.614606 101.11346 
L 325.785326 105.513931 
L 325.947257 105.418037 
L 326.072865 107.647337 
L 326.238562 108.274305 
L 326.412047 101.348247 
L 326.611344 107.454782 
L 326.78644 107.034803 
L 326.948721 101.10684 
L 327.207242 105.620102 
L 327.32073 100.627673 
L 327.443537 108.704451 
L 327.669682 110.194895 
L 327.816366 101.538909 
L 328.108854 105.020401 
L 328.165571 104.983817 
L 328.32193 108.947582 
L 328.481153 101.811353 
L 328.64752 105.395692 
L 328.940757 107.733555 
L 329.072537 110.626716 
L 329.36207 99.663111 
L 329.652278 103.606591 
L 329.694481 103.046803 
L 329.985262 103.622708 
L 330.151062 107.241225 
L 330.19387 106.048984 
L 330.481735 100.239967 
L 330.564866 111.190044 
L 330.731867 104.24838 
L 330.896731 105.795455 
L 331.186949 103.910418 
L 331.270016 105.956986 
L 331.60623 104.266498 
L 331.643987 107.177228 
L 331.934519 97.108377 
L 332.102296 107.09667 
L 332.308094 109.773661 
L 332.43322 105.642016 
L 332.655635 105.977059 
L 332.767125 109.454179 
L 332.97483 98.68158 
L 333.140408 106.531882 
L 333.309014 103.538965 
L 333.514844 108.711445 
L 333.806007 105.114525 
L 334.013531 105.586652 
L 334.14328 103.969884 
L 334.42815 102.303319 
L 334.679608 108.228505 
L 334.859288 105.562638 
L 335.009353 106.160142 
L 335.175884 109.444458 
L 335.555985 101.585539 
L 335.931453 110.139617 
L 336.094646 105.572368 
L 336.261414 106.339868 
L 336.386343 108.779062 
L 336.593826 103.187931 
L 336.759288 106.204698 
L 337.036051 105.035799 
L 337.138595 107.041795 
L 337.261473 97.528237 
L 337.632443 109.010837 
L 337.845969 103.5279 
L 337.964258 109.875632 
L 338.137004 105.735216 
L 338.389539 107.955219 
L 338.463953 110.445903 
L 338.633677 111.01328 
L 338.797148 103.571003 
L 339.010774 102.804634 
L 339.338692 106.488173 
L 339.674798 102.434498 
L 339.878088 107.918266 
L 340.005552 105.445568 
L 340.211833 107.984086 
L 340.417118 106.350136 
L 340.541933 108.462691 
L 340.832671 103.258011 
L 341.399078 107.633535 
L 341.609234 109.899377 
L 341.737669 102.33381 
L 341.93982 102.304414 
L 342.151599 104.949101 
L 342.273927 98.79151 
L 342.406038 104.79667 
L 342.605046 106.988399 
L 342.771238 101.291894 
L 342.937427 99.801709 
L 343.102823 100.756184 
L 343.269013 107.218392 
L 343.435661 99.897857 
L 343.725777 101.879708 
L 343.829534 110.803274 
L 344.099723 103.082466 
L 344.182432 106.044188 
L 344.348416 102.176991 
L 344.514318 105.44116 
L 344.721412 102.489824 
L 344.813396 105.822432 
L 344.993925 106.521195 
L 345.181784 100.678431 
L 345.387017 103.054755 
L 345.525221 102.584469 
L 345.678126 101.475157 
L 345.845578 113.257326 
L 346.109824 107.565651 
L 346.219824 110.104503 
L 346.383739 99.915153 
L 346.570196 103.915089 
L 346.774464 105.641251 
L 346.929406 107.972565 
L 347.13467 102.707704 
L 347.432378 109.837303 
L 347.610518 103.168113 
L 347.812893 106.806644 
L 347.897482 99.624086 
L 348.308348 111.212418 
L 348.515742 105.157737 
L 348.598891 108.22241 
L 348.806141 104.922179 
L 348.977588 97.277946 
L 349.304427 108.664501 
L 349.47129 109.55029 
L 349.678685 107.987272 
L 349.844641 103.453798 
L 350.175789 105.800058 
L 350.34163 102.21719 
L 350.508276 106.469541 
L 350.67893 106.70708 
L 350.841623 105.628647 
L 351.006434 106.653548 
L 351.380226 99.353057 
L 351.547773 105.984556 
L 351.75397 100.976192 
L 352.127203 109.975664 
L 352.302626 107.353703 
L 352.418432 107.760417 
L 352.791429 106.821253 
L 352.957356 106.720725 
L 353.098215 108.187477 
L 353.248422 104.571554 
L 353.45844 103.230737 
L 353.662257 109.712202 
L 353.953568 102.343855 
L 354.121182 110.162365 
L 354.285471 105.249943 
L 354.504945 108.288184 
L 354.629467 107.712751 
L 355.127769 111.03819 
L 355.169495 106.355622 
L 355.376697 112.752041 
L 355.503598 107.753236 
L 355.670175 105.616261 
L 355.832743 105.619878 
L 356.039958 106.159959 
L 356.165537 102.844376 
L 356.70401 106.274453 
L 356.914665 102.172567 
L 357.080208 108.443215 
L 357.244975 100.381797 
L 357.577453 106.527274 
L 357.720344 103.876606 
L 358.151598 105.785097 
L 358.28907 107.444714 
L 358.455802 102.771164 
L 358.620771 102.663893 
L 358.787003 104.096242 
L 358.953268 102.636398 
L 359.118747 107.816974 
L 359.658684 98.786096 
L 359.783703 109.970473 
L 360.003568 105.230503 
L 360.156545 111.747318 
L 360.366132 101.998873 
L 360.695951 109.342031 
L 361.030356 102.838035 
L 361.070572 98.936932 
L 361.194597 108.373954 
L 361.498968 106.303596 
L 361.702593 105.608748 
L 361.858873 104.103828 
L 362.025558 100.551744 
L 362.273976 103.265347 
L 362.398408 108.852914 
L 362.522582 108.375239 
L 362.814933 108.419037 
L 362.854919 101.034345 
L 363.106715 102.4862 
L 363.275235 102.029186 
L 363.602606 105.325521 
L 363.768202 104.968651 
L 363.939195 106.660968 
L 364.150577 102.505812 
L 364.273641 107.290067 
L 364.445173 105.963657 
L 364.610802 110.513093 
L 364.780534 104.829391 
L 365.149659 102.376594 
L 365.277996 105.656415 
L 365.483121 99.528603 
L 365.693161 116.609317 
L 365.855104 101.202853 
L 366.032869 96.629856 
L 366.188117 108.770495 
L 366.482734 107.678706 
L 366.519435 105.328187 
L 366.976192 107.420327 
L 367.185628 104.052118 
L 367.52992 104.373456 
L 367.74185 106.067864 
L 367.890856 103.247299 
L 368.069412 107.553038 
L 368.389692 99.692047 
L 368.556487 114.127982 
L 368.77355 100.838368 
L 369.054915 111.677665 
L 369.097542 105.557174 
L 369.261187 110.33792 
L 369.717568 104.558144 
L 369.809147 111.490749 
L 369.939491 102.258336 
L 370.18811 115.850355 
L 370.495833 106.182983 
L 370.654645 103.246359 
L 370.821023 104.429942 
L 370.98985 101.180505 
L 371.241892 112.74969 
L 371.352999 105.599547 
L 371.518107 105.848089 
L 371.766469 107.930424 
L 371.895995 100.971323 
L 372.018108 108.428359 
L 372.223325 105.094574 
L 372.437137 107.508642 
L 372.557244 107.546273 
L 372.764978 110.413716 
L 372.889091 106.079726 
L 373.068831 103.938369 
L 373.303165 102.683885 
L 373.396931 102.715827 
L 373.800147 72.501437 
L 373.926978 88.18148 
L 374.092259 83.745462 
L 374.270184 85.331872 
L 374.464896 82.843714 
L 374.797878 92.116069 
L 374.967332 92.721645 
L 375.338508 106.170981 
L 375.461779 108.392453 
L 375.766989 108.232483 
L 375.927844 106.028217 
L 376.168486 107.802905 
L 376.368385 105.874692 
L 376.54214 105.88784 
L 376.8735 104.430815 
L 376.915065 104.87217 
L 377.164664 105.066244 
L 377.253625 104.424933 
L 377.539404 105.078108 
L 377.888539 105.312566 
L 377.966966 105.148732 
L 378.084021 105.301192 
L 378.288234 105.220938 
L 378.370429 105.313183 
L 378.998275 105.331359 
L 379.256506 105.493534 
L 379.537678 105.360018 
L 379.707129 105.558528 
L 379.871843 105.38325 
L 379.954105 108.327047 
L 380.126978 105.381251 
L 380.37551 104.878284 
L 380.913873 105.244503 
L 381.081683 105.535558 
L 381.329692 104.902523 
L 381.453239 105.468461 
L 381.579455 105.480976 
L 381.761429 105.068399 
L 381.843829 105.268509 
L 382.496825 105.436098 
L 382.70284 107.222814 
L 382.865877 103.59067 
L 383.042724 105.297689 
L 383.197255 105.322416 
L 383.404982 104.366924 
L 383.548285 104.85559 
L 383.735709 104.91679 
L 383.950109 105.510348 
L 384.111251 105.134324 
L 384.611568 105.220026 
L 385.136585 105.287358 
L 385.27883 105.225617 
L 385.489935 105.380485 
L 385.96406 105.186934 
L 387.682747 105.262318 
L 387.851738 105.015146 
L 388.052322 105.275819 
L 389.43523 105.265549 
L 389.76431 105.270262 
L 390.885763 105.289373 
L 391.592309 105.28977 
L 426.71952 105.288865 
L 426.71952 105.288865 
" clip-path="url(#pebe5199fe4)" style="fill: none; stroke: #0000ff; stroke-opacity: 0.5; stroke-width: 1.75; stroke-linecap: square"/>
   </g>
   <g id="line2d_30">
    <path d="M 38.502813 114.017987 
L 38.586372 113.662831 
L 38.755356 114.61431 
L 38.804889 113.505181 
L 38.925958 113.426772 
L 39.138881 114.537001 
L 39.341015 114.356579 
L 39.465054 114.893557 
L 39.921427 113.945447 
L 39.962962 114.770197 
L 40.253316 114.60196 
L 40.502338 114.690471 
L 40.629228 114.5305 
L 40.959149 114.819003 
L 40.999568 114.402314 
L 41.165207 114.065714 
L 41.581581 114.92439 
L 41.745801 113.79685 
L 41.963998 114.859115 
L 42.03648 113.980973 
L 42.202052 115.163026 
L 42.536733 113.982548 
L 42.744351 114.171783 
L 42.907635 114.943496 
L 43.073346 114.609985 
L 43.281243 113.746675 
L 43.619341 114.406885 
L 43.840433 115.316973 
L 43.947639 113.994491 
L 44.113335 114.565725 
L 44.279421 114.336416 
L 44.570921 115.566551 
L 44.696674 114.983603 
L 44.777286 115.457415 
L 44.947605 115.502948 
L 45.11271 115.337017 
L 45.280153 115.881507 
L 45.483826 115.583538 
L 45.903891 115.850945 
L 46.80912 115.874608 
L 47.717034 115.358904 
L 48.624371 114.542278 
L 49.532758 114.568102 
L 50.440343 114.820474 
L 51.431258 115.254043 
L 52.421423 114.857522 
L 53.329477 115.722244 
L 53.427299 115.307045 
L 53.592495 115.912788 
L 53.924577 115.782811 
L 54.131233 115.275237 
L 54.339744 113.542652 
L 54.629176 115.275886 
L 54.757348 113.991779 
L 54.923122 114.57722 
L 55.131559 114.663099 
L 55.295037 112.939607 
L 55.501873 113.916874 
L 55.627036 115.560832 
L 56.000476 115.130657 
L 56.13528 115.180282 
L 56.333064 114.378549 
L 56.538774 114.734639 
L 56.746749 115.650485 
L 56.829666 114.829954 
L 56.995956 116.072045 
L 57.162972 115.642193 
L 57.380299 114.056534 
L 57.708895 115.574775 
L 57.909483 114.531869 
L 58.035666 115.178958 
L 58.243276 115.233292 
L 58.40757 113.920946 
L 58.617422 115.205986 
L 58.738834 115.11692 
L 58.906011 114.508526 
L 59.112035 114.425319 
L 59.57008 113.075463 
L 59.734499 112.293831 
L 60.149775 115.165209 
L 60.482862 113.019761 
L 60.780423 114.50489 
L 60.985313 113.685247 
L 61.31567 114.918795 
L 61.399524 116.640316 
L 62.061554 113.870701 
L 62.228562 115.480212 
L 62.352275 115.572937 
L 63.016444 114.473559 
L 63.057464 113.7512 
L 63.38946 114.127516 
L 63.555706 115.295541 
L 63.762615 115.446465 
L 63.969792 113.928727 
L 64.138491 113.816305 
L 64.426358 114.803995 
L 64.924123 115.150059 
L 65.133243 114.936487 
L 65.296761 113.318953 
L 65.433672 113.605621 
L 65.629405 115.092446 
L 66.001911 113.547707 
L 66.12709 114.455088 
L 66.292234 114.316499 
L 66.666937 113.67047 
L 66.831905 113.923498 
L 66.998738 115.170756 
L 67.329425 113.53302 
L 67.712556 115.185696 
L 68.035141 113.508694 
L 68.203445 114.948864 
L 68.532447 115.653095 
L 68.704602 113.586799 
L 68.870271 114.878739 
L 69.19689 113.212427 
L 69.610891 116.128994 
L 69.735185 115.932724 
L 69.900835 113.826662 
L 70.067893 113.273617 
L 70.232949 114.839421 
L 70.442476 114.600369 
L 70.647809 113.379813 
L 71.103606 115.48696 
L 71.269688 115.015464 
L 71.692611 114.743084 
L 72.057258 113.946202 
L 72.306769 116.126583 
L 72.472629 115.312565 
L 72.846086 112.330789 
L 73.011448 112.530006 
L 73.347664 115.2318 
L 73.635317 115.257593 
L 73.71742 115.379153 
L 74.008375 114.811966 
L 74.267415 113.69372 
L 74.339542 113.887885 
L 74.387394 114.730619 
L 74.795672 115.965128 
L 74.960994 115.770679 
L 75.210143 115.287954 
L 75.500665 114.797504 
L 75.749183 115.242859 
L 75.956217 114.908037 
L 76.412002 113.152235 
L 76.619711 113.566764 
L 76.758815 114.751626 
L 76.992949 115.541692 
L 77.326234 114.165281 
L 77.699691 116.763585 
L 77.823074 116.721232 
L 78.156673 115.535446 
L 78.430009 115.34186 
L 78.821169 114.029422 
L 78.903987 113.95224 
L 78.988623 115.613875 
L 79.400009 113.495278 
L 79.94089 116.909868 
L 80.229943 114.148447 
L 80.610261 115.588753 
L 80.818879 114.520913 
L 80.99713 114.442793 
L 81.146019 115.589896 
L 81.560211 116.389174 
L 81.654305 114.425302 
L 82.588081 113.89387 
L 83.490609 114.398024 
L 84.484611 113.709895 
L 84.66477 110.461821 
L 85.082764 112.828606 
L 85.245405 114.736799 
L 85.508625 116.255561 
L 85.675042 116.230882 
L 85.941665 114.603533 
L 86.057746 114.444417 
L 86.220877 114.763096 
L 86.637062 116.249414 
L 86.760071 116.152455 
L 86.968483 114.432375 
L 87.095991 112.279144 
L 87.299607 110.938788 
L 87.48207 111.458062 
L 87.881858 115.916744 
L 87.964585 116.696638 
L 88.506917 112.015652 
L 88.631045 112.419071 
L 88.977442 115.057307 
L 89.143635 114.903016 
L 89.506136 112.698818 
L 89.671525 113.658156 
L 90.006064 116.972562 
L 90.188339 117.039421 
L 90.558863 116.069433 
L 90.709146 115.11016 
L 90.881089 115.660045 
L 91.093336 115.767678 
L 91.404457 111.89662 
L 91.642758 110.938675 
L 91.942447 113.602521 
L 92.376081 115.073539 
L 92.63124 112.6872 
L 92.750864 113.679745 
L 92.964533 114.283248 
L 93.20664 114.262742 
L 93.289089 114.644655 
L 93.454909 114.687151 
L 93.828095 114.180276 
L 93.954799 114.430381 
L 94.337513 116.031124 
L 94.456954 115.691599 
L 94.708442 115.599013 
L 95.078358 117.130406 
L 95.410511 114.574195 
L 95.624723 114.186727 
L 95.700833 115.844826 
L 95.844986 115.990813 
L 96.200006 113.785837 
L 96.533178 115.819888 
L 96.698446 115.693602 
L 97.028904 115.821548 
L 97.074634 116.547376 
L 97.245392 115.995148 
L 97.401903 114.084358 
L 97.699946 113.260793 
L 97.775202 114.696136 
L 97.982493 114.899767 
L 98.233138 113.368273 
L 98.438057 113.503788 
L 98.646014 112.837237 
L 98.77191 112.014848 
L 98.97864 112.047324 
L 99.278061 114.133556 
L 99.649089 112.743213 
L 99.975938 113.218327 
L 100.349394 112.46061 
L 100.598244 112.687347 
L 100.84697 114.33474 
L 101.096004 114.524244 
L 101.17921 114.322166 
L 101.966145 114.706672 
L 102.051522 115.190875 
L 102.216377 115.062023 
L 102.547567 113.959919 
L 102.713209 114.022625 
L 102.921276 114.731177 
L 103.12737 114.754997 
L 103.419261 114.269573 
L 103.920257 115.227453 
L 104.303186 116.172811 
L 104.664595 114.213841 
L 104.976665 116.727182 
L 105.133516 116.288769 
L 105.466524 112.834271 
L 105.84727 114.922411 
L 106.169076 113.194431 
L 106.543079 114.97532 
L 106.958774 113.506625 
L 107.130818 114.271317 
L 107.3753 116.059656 
L 107.747893 114.970127 
L 108.04783 116.078327 
L 108.297433 116.024238 
L 108.449944 115.42591 
L 108.659045 115.336634 
L 108.782339 114.991149 
L 109.031304 114.843117 
L 109.114869 114.478994 
L 109.280227 114.495139 
L 109.448473 114.249948 
L 109.623216 113.634491 
L 109.946682 110.435395 
L 110.288654 110.95875 
L 110.456049 115.164859 
L 110.662074 115.474751 
L 110.994486 114.228125 
L 111.159567 114.533414 
L 111.662038 117.65337 
L 111.989816 116.278103 
L 112.196663 113.373954 
L 112.362925 113.886709 
L 112.698424 116.43066 
L 112.859922 116.469103 
L 113.321516 113.7916 
L 113.776225 116.650639 
L 114.2706 113.148 
L 114.891575 115.412684 
L 115.099502 114.199439 
L 115.431779 114.312017 
L 115.638632 114.655938 
L 116.095338 112.976125 
L 116.137027 111.483862 
L 116.385323 111.559317 
L 116.468387 113.196532 
L 116.716859 115.09795 
L 117.25945 113.185622 
L 117.545031 115.402774 
L 117.710841 115.794834 
L 118.045006 114.750942 
L 118.084294 113.996825 
L 118.293001 113.057428 
L 118.376952 113.343862 
L 118.541457 115.071303 
L 118.802157 116.307336 
L 119.079652 113.777003 
L 119.286983 114.029922 
L 119.576937 116.420843 
L 119.785263 116.972422 
L 119.951768 116.377879 
L 120.201611 114.566873 
L 120.286958 112.763749 
L 120.449973 112.445988 
L 120.988512 116.706433 
L 121.115126 116.141108 
L 121.445842 113.727039 
L 121.693199 113.346726 
L 122.15039 116.080616 
L 122.688828 111.384234 
L 122.899286 111.323111 
L 123.186902 115.005779 
L 123.476608 116.581719 
L 123.561563 116.071453 
L 123.729163 114.141313 
L 123.891834 113.84818 
L 124.225808 116.76387 
L 124.398906 116.984633 
L 124.559032 116.407461 
L 124.93016 113.189172 
L 125.098314 112.815495 
L 125.593972 116.474751 
L 125.933591 113.274297 
L 126.091208 113.824381 
L 126.505673 114.393257 
L 126.672368 114.020124 
L 126.962461 111.535997 
L 127.129093 111.461836 
L 127.542028 113.639018 
L 127.666319 113.39695 
L 127.832088 112.295402 
L 128.039652 112.81045 
L 128.205745 114.540535 
L 128.413767 115.329201 
L 128.703848 115.330149 
L 128.870071 115.144112 
L 129.201434 115.635757 
L 129.408601 115.494877 
L 129.78131 114.788047 
L 129.906815 114.563185 
L 130.239123 115.489848 
L 130.864623 114.121867 
L 130.985567 114.545716 
L 131.311491 114.968035 
L 131.48284 114.903334 
L 131.649393 114.974154 
L 131.777138 114.128136 
L 131.961904 113.696606 
L 132.312427 115.500785 
L 132.568539 115.334828 
L 132.645334 113.742534 
L 132.882257 114.053542 
L 132.990985 115.880383 
L 133.144877 115.540209 
L 133.519284 114.041351 
L 133.84946 116.693446 
L 134.015471 116.191519 
L 134.223187 114.696926 
L 134.56689 115.836003 
L 134.893828 113.717599 
L 135.093566 114.478631 
L 135.385075 116.641214 
L 135.632363 115.87737 
L 135.922919 114.603364 
L 136.266318 114.49762 
L 136.627928 117.322741 
L 136.918521 117.338761 
L 137.332428 113.406665 
L 137.64509 116.240557 
L 137.807284 115.642863 
L 137.973145 114.419733 
L 138.1409 114.188771 
L 138.304691 114.287765 
L 138.554916 113.792487 
L 138.802793 113.593315 
L 139.179931 114.840542 
L 139.524878 115.116139 
L 139.735136 114.558337 
L 139.898516 113.767882 
L 140.063941 113.966547 
L 140.332368 114.554109 
L 140.398704 115.081801 
L 140.574233 114.360633 
L 140.977349 111.692779 
L 141.434008 115.279322 
L 141.765256 113.120499 
L 142.843209 115.141551 
L 143.132982 115.246385 
L 143.63131 114.827448 
L 143.796412 114.322743 
L 144.170493 116.945646 
L 144.376725 116.059146 
L 144.508671 114.376333 
L 144.709156 113.674925 
L 145.25827 118.665525 
L 145.376758 118.151975 
L 145.709214 114.651214 
L 145.876184 114.520646 
L 146.041521 115.568416 
L 146.21044 115.62699 
L 146.747304 112.340162 
L 147.326386 113.899948 
L 147.493555 115.020226 
L 147.698753 115.249727 
L 147.78194 114.153928 
L 147.947862 114.159533 
L 148.113469 115.919686 
L 148.320456 116.420915 
L 148.448415 114.532285 
L 148.65207 113.860779 
L 148.984509 115.192384 
L 149.150039 114.361716 
L 149.318724 114.537366 
L 149.484374 116.199871 
L 149.663221 116.798448 
L 149.897468 115.082733 
L 150.066368 115.487206 
L 150.190357 117.133558 
L 150.601677 114.987078 
L 151.061785 117.839604 
L 151.392201 115.233078 
L 151.573428 116.821121 
L 151.732652 116.490209 
L 152.100754 114.754366 
L 152.432337 116.358494 
L 152.680639 116.459957 
L 152.932301 115.949044 
L 153.343857 115.869688 
L 153.634433 116.045594 
L 153.885753 115.969215 
L 154.214287 115.206482 
L 154.381146 114.924723 
L 154.842757 118.585307 
L 155.169045 117.202918 
L 155.350152 117.153512 
L 155.583946 118.700409 
L 155.79104 117.838326 
L 156.205848 113.619985 
L 156.373269 113.658546 
L 156.829139 113.089081 
L 156.917986 113.644526 
L 157.077547 113.614578 
L 157.242865 113.198504 
L 157.540721 113.217168 
L 157.700653 113.856739 
L 157.783791 115.297704 
L 157.950262 115.625554 
L 158.279995 113.870572 
L 158.44686 113.808759 
L 158.611761 113.271995 
L 158.777487 113.235151 
L 159.122653 114.783806 
L 159.441709 114.3833 
L 159.483749 112.614459 
L 159.648926 110.540039 
L 159.81518 109.878925 
L 160.022626 110.866175 
L 160.353977 115.144973 
L 160.479337 115.167151 
L 161.018938 113.179258 
L 161.184162 113.485418 
L 161.557948 115.877731 
L 161.68295 116.214529 
L 161.889294 114.92678 
L 162.055113 112.587969 
L 162.263441 111.454783 
L 162.396259 111.992903 
L 162.760088 116.309495 
L 162.967115 117.543123 
L 163.13347 117.30272 
L 163.299151 116.436524 
L 163.589353 114.108848 
L 163.796938 113.795755 
L 163.92475 113.270667 
L 164.265002 112.715047 
L 164.293978 112.10721 
L 164.543176 111.567974 
L 165.584616 115.503533 
L 165.830019 118.657082 
L 166.162386 119.369331 
L 166.205494 119.902811 
L 166.370355 119.763261 
L 166.703883 117.851771 
L 166.867456 116.714626 
L 167.035704 116.911739 
L 167.248444 117.630972 
L 167.592103 117.318637 
L 169.315652 145.715673 
L 169.648632 138.311472 
L 169.979168 124.738258 
L 170.311488 118.480261 
L 171.018264 106.415342 
L 171.184495 106.575408 
L 171.390371 107.266561 
L 171.640165 110.319759 
L 172.017345 119.419914 
L 172.390467 122.512378 
L 172.597282 122.319063 
L 172.867074 123.20253 
L 172.890431 122.082988 
L 173.219585 120.87247 
L 173.761668 113.781156 
L 173.965146 113.407772 
L 174.256107 115.679673 
L 174.835794 117.406976 
L 175.512596 123.519758 
L 175.717338 122.732333 
L 175.842435 121.76878 
L 175.966082 118.984724 
L 176.547265 114.241463 
L 176.878337 113.573963 
L 177.086584 114.830484 
L 177.211731 114.836097 
L 177.542799 116.386361 
L 178.039763 123.292474 
L 178.206907 124.518085 
L 178.579448 122.900576 
L 178.706389 120.450482 
L 179.117783 119.736223 
L 179.24249 119.151962 
L 179.49159 118.907564 
L 179.657205 119.12464 
L 180.528161 126.760611 
L 180.735556 126.587972 
L 180.860072 126.086017 
L 181.066874 125.874856 
L 181.843152 117.897405 
L 182.168021 116.847593 
L 182.519423 118.15209 
L 182.684974 120.327833 
L 183.099712 122.538792 
L 183.185199 123.545425 
L 183.556317 122.781082 
L 183.721917 121.684298 
L 183.886987 122.299767 
L 184.052953 122.454967 
L 184.343248 122.517199 
L 184.509088 122.294037 
L 184.634012 120.30881 
L 184.966286 117.220598 
L 185.321087 120.451066 
L 185.506274 122.988975 
L 185.589918 125.667865 
L 185.770503 127.16447 
L 185.963761 127.078474 
L 186.129707 125.617088 
L 186.336448 124.976291 
L 186.462318 124.970955 
L 187.208633 122.661364 
L 187.335181 121.55132 
L 187.498644 121.70569 
L 187.83031 124.160424 
L 188.038914 124.473105 
L 188.244543 125.102902 
L 188.535505 126.764558 
L 188.702007 127.148683 
L 188.868699 128.080482 
L 189.033047 128.231066 
L 189.572243 126.47057 
L 189.614787 126.306636 
L 190.237035 130.555428 
L 190.527056 129.548099 
L 190.942467 125.43946 
L 191.107627 123.676771 
L 191.356029 123.688959 
L 191.614938 124.22973 
L 191.811547 124.743363 
L 192.417055 124.693172 
L 192.809655 127.761948 
L 193.016079 127.341197 
L 193.265275 125.748721 
L 193.641482 121.553641 
L 193.719918 121.769948 
L 194.056481 124.212256 
L 194.225003 123.618124 
L 194.797579 119.71412 
L 195.212183 123.710921 
L 195.295114 125.467632 
L 195.461043 124.796579 
L 195.83521 122.091997 
L 196.124398 120.529971 
L 196.580732 124.439627 
L 196.748291 124.411222 
L 196.912717 123.223915 
L 196.954617 121.329091 
L 197.327727 118.142886 
L 197.540592 118.612137 
L 198.003553 123.866125 
L 198.239856 123.679225 
L 198.697139 121.922452 
L 199.028913 123.365805 
L 199.483734 123.809452 
L 199.649563 122.990367 
L 199.732634 121.735981 
L 200.230265 119.890158 
L 200.648575 119.667722 
L 201.144172 118.43225 
L 201.599156 121.925582 
L 201.771257 122.70476 
L 201.972225 122.242784 
L 202.096849 121.206982 
L 202.32375 120.521983 
L 202.802977 120.38052 
L 203.345358 114.806748 
L 203.591491 114.709919 
L 203.676205 116.168724 
L 204.010432 118.024494 
L 204.30162 118.211526 
L 204.974216 119.985586 
L 205.211776 122.125754 
L 205.458934 122.519886 
L 205.562396 123.79342 
L 205.79286 124.235766 
L 205.958517 124.974668 
L 206.123628 125.016434 
L 206.249665 125.512207 
L 206.455061 124.427742 
L 206.953379 117.043995 
L 207.326492 114.788446 
L 208.282167 118.970823 
L 208.819692 122.469379 
L 209.06875 122.014643 
L 209.52488 121.874349 
L 209.898115 122.660751 
L 210.022111 122.895018 
L 210.478378 119.674197 
L 210.897039 117.702425 
L 211.060182 117.998087 
L 211.229053 118.934858 
L 211.394521 118.837471 
L 211.572053 117.65139 
L 211.726285 117.452471 
L 211.975693 116.862436 
L 212.265662 122.432709 
L 212.431349 124.032632 
L 212.597417 122.80051 
L 213.097541 115.323848 
L 213.345276 115.817322 
L 213.635086 117.046676 
L 213.800791 119.457138 
L 214.329273 116.246024 
L 214.517147 116.775942 
L 214.645376 117.522529 
L 215.003774 119.194901 
L 215.376665 118.231624 
L 215.915184 113.40122 
L 216.043251 113.926331 
L 216.206865 115.315134 
L 216.41344 115.907477 
L 216.58419 115.570702 
L 216.745894 116.134095 
L 216.870653 114.767771 
L 217.076131 114.444677 
L 217.614932 118.730573 
L 217.786303 118.410484 
L 217.947678 119.312798 
L 218.073785 118.846731 
L 218.320226 118.96888 
L 218.652175 120.517658 
L 218.778428 119.750693 
L 219.27589 112.899028 
L 219.48269 113.560304 
L 219.813668 115.655898 
L 220.16022 114.387719 
L 220.313743 111.988205 
L 220.561116 111.81862 
L 221.185178 121.343565 
L 221.473407 117.975637 
L 221.556393 114.600181 
L 221.888417 110.246334 
L 222.13683 110.033316 
L 222.386698 113.09025 
L 222.551674 112.208224 
L 222.75861 110.352523 
L 222.900334 110.116847 
L 223.095895 110.641996 
L 223.506579 116.470175 
L 223.631297 119.217945 
L 223.879809 119.366957 
L 224.294277 113.589549 
L 224.501503 113.683808 
L 224.87638 117.033087 
L 224.999346 116.881876 
L 225.30129 112.640875 
L 225.500074 110.652809 
L 225.760961 110.190948 
L 226.207896 108.432373 
L 226.374016 105.406279 
L 226.755858 102.853435 
L 226.913659 104.157116 
L 227.012404 106.38698 
L 227.342758 110.781953 
L 227.392505 114.474965 
L 227.592455 115.066175 
L 227.758081 114.697543 
L 227.883821 114.030423 
L 228.255833 112.981327 
L 228.512468 113.67485 
L 228.630703 113.227818 
L 229.292654 100.419819 
L 229.541201 99.887745 
L 230.163231 62.697388 
L 230.338196 48.261643 
L 231.035274 19.313731 
L 231.283205 17.537371 
L 231.798122 38.376176 
L 232.04936 70.033368 
L 232.792382 124.150296 
L 233.082376 127.626591 
L 233.206972 126.556189 
L 233.457252 122.154921 
L 233.999199 101.415752 
L 234.080582 92.596801 
L 234.451681 81.315301 
L 234.576824 81.563732 
L 234.783175 86.219921 
L 235.450774 111.349535 
L 235.821818 113.876075 
L 235.988508 112.276692 
L 236.324735 103.402779 
L 236.817354 83.90661 
L 237.189713 79.111042 
L 237.482227 81.374372 
L 237.689531 91.339116 
L 238.558722 117.359948 
L 238.727855 118.314973 
L 238.892169 116.441075 
L 239.387212 106.235591 
L 239.428711 99.919744 
L 239.760597 89.697884 
L 240.092821 85.136861 
L 240.259079 84.482304 
L 240.466943 85.476174 
L 240.729629 88.344698 
L 240.963756 96.835653 
L 241.128739 100.966488 
L 241.502199 105.067232 
L 241.710003 104.165306 
L 242.372852 95.264043 
L 242.710371 91.751583 
L 242.87028 91.794477 
L 243.036737 93.258317 
L 244.075172 107.888068 
L 244.246002 107.320079 
L 244.493018 105.153907 
L 245.278198 84.105193 
L 245.6088 80.515309 
L 245.774819 80.762566 
L 245.941777 82.803467 
L 246.813778 100.781725 
L 246.983913 102.269749 
L 247.250664 102.195717 
L 247.329504 100.610823 
L 247.528581 99.007853 
L 247.561323 97.494264 
L 247.769858 95.451489 
L 247.852662 92.236347 
L 248.224944 89.285213 
L 248.556392 90.84462 
L 248.763845 92.548622 
L 249.386714 104.736748 
L 249.596948 106.510286 
L 249.718457 106.533469 
L 249.926052 105.263223 
L 250.755353 88.317491 
L 250.920532 86.346924 
L 251.210704 85.71712 
L 251.626994 92.372782 
L 252.165822 105.336204 
L 252.293748 107.504765 
L 252.496563 108.418815 
L 252.706411 108.325821 
L 252.871106 107.877957 
L 253.165828 104.251374 
L 253.864927 90.623698 
L 254.156567 92.365855 
L 254.198387 95.208668 
L 254.698803 100.783606 
L 254.944477 101.902052 
L 255.405016 109.425834 
L 255.607942 108.972714 
L 255.815387 105.634303 
L 256.147357 95.904072 
L 256.271124 92.918219 
L 256.519706 91.322979 
L 256.645377 91.456997 
L 257.059435 93.354505 
L 257.308719 95.359234 
L 257.55682 98.302238 
L 258.189664 109.599138 
L 258.344332 108.431251 
L 259.180042 95.305633 
L 259.390162 94.767845 
L 259.555059 94.814772 
L 259.878695 95.752522 
L 260.170453 97.609406 
L 260.624836 105.27866 
L 260.833066 107.127477 
L 261.291853 100.743382 
L 261.62349 98.837561 
L 261.9967 95.997798 
L 262.121079 95.80794 
L 262.333093 95.90732 
L 262.501148 96.412308 
L 262.963238 99.246405 
L 263.162493 99.248878 
L 263.333761 100.088136 
L 263.698297 103.811737 
L 263.86419 103.01586 
L 264.230218 98.765368 
L 264.406474 98.994045 
L 264.559477 99.695581 
L 264.697618 99.684657 
L 265.168109 97.144442 
L 265.234129 97.070528 
L 265.896843 101.801345 
L 266.104126 101.462633 
L 266.311416 101.840093 
L 266.435941 103.099955 
L 266.651561 104.090058 
L 266.812423 103.116478 
L 267.265749 95.441496 
L 267.474411 96.429671 
L 267.637873 97.953027 
L 267.858294 98.130697 
L 267.971726 97.653368 
L 268.181608 97.85899 
L 268.387957 99.664924 
L 268.679162 104.190136 
L 268.807534 104.725626 
L 269.633265 100.729086 
L 269.676314 99.960151 
L 270.216902 98.062816 
L 270.379728 98.340319 
L 270.752947 99.990213 
L 270.925041 99.24844 
L 271.125855 98.891506 
L 271.498396 103.043546 
L 271.583198 102.661359 
L 271.872285 101.386281 
L 271.913154 99.828406 
L 272.165896 99.152415 
L 272.369808 99.452241 
L 272.413556 100.13515 
L 272.669632 101.011105 
L 272.784705 100.010381 
L 273.199024 94.988435 
L 273.324085 94.430764 
L 273.53568 95.912704 
L 273.82134 99.989559 
L 274.112316 99.694392 
L 274.196583 98.877826 
L 274.321023 98.897976 
L 274.680553 101.912959 
L 274.859595 101.869073 
L 275.191841 100.017553 
L 275.398863 99.076626 
L 275.523705 97.880986 
L 275.773336 97.259424 
L 275.93834 97.456667 
L 276.311749 98.624231 
L 276.561025 102.368047 
L 276.768191 103.374968 
L 276.933694 102.691369 
L 277.306299 100.14322 
L 277.762832 102.200751 
L 278.260601 96.275004 
L 278.468023 96.713184 
L 278.965744 101.925645 
L 279.131096 101.332397 
L 279.298515 99.563081 
L 279.587963 98.259517 
L 279.878463 101.606558 
L 280.084202 102.810609 
L 280.254342 102.052256 
L 280.374434 100.235361 
L 280.707091 97.962519 
L 281.246472 101.598477 
L 281.452269 100.776632 
L 281.742667 97.6405 
L 281.908955 98.157961 
L 282.408575 103.416026 
L 282.613615 102.672079 
L 283.195056 99.4984 
L 283.277358 99.892202 
L 283.443835 101.685621 
L 283.652216 102.595216 
L 283.942481 102.141689 
L 284.147687 101.415538 
L 284.410977 101.821636 
L 284.483738 102.529116 
L 284.645807 102.596503 
L 284.980294 102.172361 
L 285.146679 100.97922 
L 285.434405 100.645138 
L 285.589971 100.656091 
L 286.01473 101.44875 
L 286.185335 101.595391 
L 286.719907 102.72801 
L 287.096915 104.133662 
L 287.259239 104.133395 
L 287.550005 101.886682 
L 287.924174 99.562659 
L 288.254177 98.223203 
L 288.503461 97.787348 
L 288.959052 92.991764 
L 289.125201 92.768684 
L 289.333503 93.505891 
L 289.582224 95.34632 
L 289.914395 99.757168 
L 290.163188 103.820117 
L 290.500979 106.066376 
L 290.702783 106.506478 
L 290.870098 106.181897 
L 291.242118 103.433798 
L 291.574797 100.372329 
L 291.698397 99.675077 
L 291.864183 99.873246 
L 292.207025 100.60088 
L 292.237578 100.268927 
L 292.370664 100.33529 
L 292.735873 99.611082 
L 292.92118 98.91764 
L 293.069791 98.940521 
L 293.449229 99.899164 
L 293.607703 99.937008 
L 294.107757 99.023938 
L 294.477985 99.038587 
L 294.645483 99.502618 
L 294.851356 99.499355 
L 295.30829 97.846578 
L 295.849825 101.146961 
L 296.43168 104.999484 
L 296.595835 105.443319 
L 297.052033 101.375804 
L 297.385752 98.65022 
L 297.551585 98.588223 
L 297.759453 99.054899 
L 297.882771 99.90639 
L 298.090962 100.327254 
L 298.256243 101.096683 
L 298.422527 102.811653 
L 298.762909 104.450363 
L 298.96197 103.736919 
L 299.09469 102.522584 
L 299.369096 101.273365 
L 299.618168 97.98479 
L 300.118274 95.10337 
L 300.324699 95.729895 
L 300.832148 101.176714 
L 301.112921 101.764156 
L 301.154643 102.417111 
L 301.362236 102.977063 
L 301.698668 102.211227 
L 302.026745 99.174874 
L 302.360864 97.321297 
L 302.567853 97.407971 
L 302.858153 98.022481 
L 302.899353 98.589026 
L 303.065972 98.29176 
L 303.313816 98.413923 
L 303.564915 99.734651 
L 303.895373 101.829822 
L 304.117223 102.556196 
L 304.270338 102.339241 
L 304.766122 99.346673 
L 305.099461 98.090152 
L 305.46998 98.07813 
L 305.475902 98.551215 
L 305.639145 99.037346 
L 305.887001 98.890039 
L 306.184017 99.736078 
L 306.805438 101.857903 
L 307.008402 101.341867 
L 307.34107 99.897839 
L 307.507939 99.756797 
L 307.799879 99.052751 
L 307.837875 98.144268 
L 308.544864 95.388465 
L 308.836812 95.883455 
L 308.923762 96.785581 
L 309.250121 97.037899 
L 309.422157 97.716958 
L 309.624294 99.597465 
L 310.082723 106.189266 
L 310.288257 107.061218 
L 310.458473 106.999686 
L 311.118262 102.090798 
L 311.417636 101.515914 
L 311.659303 100.579739 
L 311.823265 100.516179 
L 311.99015 101.317908 
L 312.161281 102.923633 
L 312.498394 110.968701 
L 312.841523 120.313957 
L 313.075108 122.923616 
L 313.2884 123.218802 
L 313.577042 122.219958 
L 313.746276 122.311069 
L 313.950077 122.238151 
L 314.201629 117.409935 
L 314.495707 111.035313 
L 314.739947 99.988737 
L 314.909075 97.990517 
L 315.166889 97.17006 
L 315.652905 93.218356 
L 315.818567 92.778126 
L 316.027603 94.507469 
L 316.507943 103.633548 
L 316.797756 105.005288 
L 317.20556 106.444236 
L 317.320802 106.473408 
L 317.564282 104.757345 
L 318.0634 93.955315 
L 318.187507 93.389193 
L 318.521708 94.928967 
L 318.782499 96.35937 
L 318.85217 98.521684 
L 319.100521 100.857082 
L 319.409494 106.274395 
L 319.558885 107.651549 
L 319.841148 108.214569 
L 320.006421 108.277545 
L 320.136768 107.782364 
L 320.297066 106.452156 
L 320.504369 103.532712 
L 320.753858 96.254682 
L 321.170351 92.059435 
L 321.335238 92.974252 
L 321.461537 95.357854 
L 321.708592 97.40929 
L 321.97571 102.237906 
L 322.499834 109.065115 
L 322.663992 109.040943 
L 323.335657 103.135437 
L 323.836843 98.395456 
L 324.038273 98.417178 
L 324.203811 99.310937 
L 324.370413 101.064661 
L 324.721012 103.019701 
L 325.116151 101.183902 
L 325.323389 99.218498 
L 326.072865 87.097476 
L 326.238562 85.962577 
L 326.412047 86.47724 
L 326.78644 90.466667 
L 326.948721 93.121837 
L 327.32073 96.968202 
L 327.443537 98.881562 
L 327.816366 100.447084 
L 328.108854 100.802906 
L 328.32193 99.322055 
L 328.64752 97.475534 
L 328.940757 96.892864 
L 329.236918 96.001422 
L 329.652278 95.322939 
L 330.151062 97.879119 
L 330.19387 99.217973 
L 330.481735 100.611747 
L 330.731867 103.755829 
L 331.436321 110.217799 
L 331.60623 110.262223 
L 332.308094 106.08192 
L 332.97483 108.22085 
L 333.140408 108.001791 
L 333.514844 105.857752 
L 333.806007 104.062956 
L 334.42815 96.644281 
L 334.679608 92.094989 
L 335.009353 89.683916 
L 335.175884 89.825068 
L 335.555985 91.836635 
L 335.931453 94.45514 
L 336.593826 101.550936 
L 337.138595 104.053501 
L 337.533264 104.938892 
L 337.845969 104.523033 
L 337.964258 104.210987 
L 339.010774 98.749005 
L 339.674798 92.497988 
L 339.878088 91.842357 
L 340.211833 89.88254 
L 340.417118 89.566938 
L 340.832671 90.882911 
L 341.073503 94.149083 
L 341.737669 103.027301 
L 342.273927 107.010545 
L 342.406038 107.630781 
L 342.771238 107.767317 
L 343.435661 104.524049 
L 343.829534 104.907282 
L 344.099723 104.792467 
L 344.182432 104.518133 
L 344.813396 98.524133 
L 345.525221 89.992226 
L 345.845578 86.228926 
L 346.219824 85.713092 
L 346.383739 86.115332 
L 347.266428 91.423067 
L 347.897482 96.940263 
L 348.100811 97.919734 
L 348.515742 98.527451 
L 348.598891 98.854276 
L 348.806141 98.825517 
L 348.977588 99.08802 
L 349.149989 99.585803 
L 350.508276 108.929411 
L 350.67893 109.577091 
L 350.841623 109.092456 
L 351.547773 101.14396 
L 351.879123 98.975849 
L 352.127203 98.731575 
L 352.302626 99.055645 
L 352.625981 98.031592 
L 353.098215 98.090358 
L 353.248422 98.271782 
L 353.662257 98.333251 
L 354.121182 97.090366 
L 354.285471 97.352587 
L 354.504945 98.154182 
L 354.79515 101.187601 
L 355.127769 102.894703 
L 355.169495 104.635001 
L 356.039958 108.076619 
L 356.165537 109.043902 
L 356.373504 109.451342 
L 356.579788 109.261661 
L 357.080208 104.679876 
L 357.911932 95.183121 
L 358.28907 90.459338 
L 358.620771 86.550756 
L 358.953268 85.032976 
L 359.118747 84.600117 
L 359.284997 84.745429 
L 360.156545 91.71775 
L 360.695951 93.942813 
L 361.030356 94.201656 
L 361.194597 91.256277 
L 361.702593 86.017995 
L 361.858873 85.852672 
L 362.025558 85.866002 
L 362.522582 86.421427 
L 363.106715 86.921372 
L 363.768202 91.261651 
L 364.273641 92.654292 
L 365.149659 98.912184 
L 365.483121 97.841604 
L 366.482734 95.108451 
L 366.519435 94.737135 
L 366.685325 94.718298 
L 366.976192 93.943069 
L 367.018215 93.066531 
L 367.52992 90.414742 
L 367.890856 88.270228 
L 368.223268 85.407536 
L 368.556487 82.305586 
L 368.77355 82.326041 
L 369.054915 82.75929 
L 369.097542 83.483878 
L 369.261187 83.735523 
L 369.59709 83.550918 
L 370.341599 84.702797 
L 370.654645 86.094625 
L 371.241892 90.791568 
L 371.518107 95.42074 
L 371.766469 97.534601 
L 372.018108 101.68665 
L 372.437137 102.56977 
L 372.557244 102.444431 
L 372.764978 101.798912 
L 373.396931 95.073043 
L 373.800147 90.539387 
L 374.270184 87.478297 
L 375.461779 73.558733 
L 375.927844 71.294417 
L 376.168486 73.104234 
L 377.253625 103.718911 
L 377.539404 105.315747 
L 377.888539 104.706546 
L 378.582937 89.51287 
L 378.910558 88.786714 
L 379.412032 91.328701 
L 379.954105 96.765823 
L 380.126978 96.446789 
L 380.37551 95.021318 
L 380.623908 90.698556 
L 380.913873 88.335237 
L 381.329692 83.418293 
L 381.453239 82.072319 
L 381.579455 82.266288 
L 381.761429 83.75942 
L 382.034838 90.536221 
L 382.70284 105.702058 
L 382.865877 107.138832 
L 383.042724 106.876208 
L 383.404982 102.179898 
L 383.950109 91.446738 
L 384.281288 86.856168 
L 384.488208 85.721346 
L 384.611568 85.809987 
L 384.99214 88.72352 
L 385.489935 97.039008 
L 385.96406 99.411626 
L 386.147949 99.733681 
L 386.521018 99.63048 
L 386.647188 99.746093 
L 387.018996 99.210758 
L 387.186736 99.74501 
L 387.517139 102.801567 
L 388.228413 110.455439 
L 388.441189 111.235774 
L 388.683946 111.411167 
L 388.735995 111.305456 
L 388.895941 110.443519 
L 389.227035 106.276672 
L 389.931527 96.357412 
L 390.678549 95.037238 
L 391.010809 94.836169 
L 391.314183 94.876836 
L 392.131017 84.541767 
L 392.339462 83.984811 
L 392.507604 84.690694 
L 392.835707 88.548878 
L 393.707745 101.027041 
L 394.205611 103.572701 
L 394.496563 102.661787 
L 394.711536 100.293138 
L 395.246199 98.60283 
L 395.782204 100.202176 
L 396.032765 101.24546 
L 396.116938 102.379584 
L 396.446378 103.461134 
L 396.61471 103.617503 
L 396.823368 103.386757 
L 397.234059 101.007455 
L 398.040726 93.430875 
L 398.497086 92.421327 
L 398.871829 92.086547 
L 399.124748 92.00499 
L 399.555667 90.692324 
L 399.632994 89.593295 
L 399.753515 89.842389 
L 399.9046 89.898797 
L 400.07302 89.676154 
L 400.236724 89.799746 
L 400.415843 90.727569 
L 400.774507 94.486923 
L 401.271544 101.419928 
L 401.649446 102.267701 
L 401.981033 103.549911 
L 402.149096 103.323439 
L 402.283273 102.063614 
L 402.821856 93.796059 
L 403.197356 92.851025 
L 403.527578 93.496354 
L 403.787656 94.508596 
L 403.872146 96.287771 
L 404.150848 98.402854 
L 404.360921 101.104586 
L 404.525584 100.946459 
L 404.732293 99.793614 
L 405.437728 92.701013 
L 405.787388 90.751291 
L 406.059764 90.926397 
L 406.93591 103.379283 
L 407.142439 104.335056 
L 407.352931 104.39053 
L 407.930074 99.621778 
L 407.972272 98.250753 
L 408.406109 95.812852 
L 408.487228 93.412873 
L 409.03928 88.485209 
L 409.193631 88.422956 
L 409.571045 91.381718 
L 409.693258 93.006905 
L 409.900157 92.653215 
L 410.032881 91.883058 
L 410.231789 92.294801 
L 410.606602 95.173311 
L 410.858541 96.1654 
L 410.987112 96.085382 
L 411.273016 92.816299 
L 411.519697 91.985814 
L 411.739035 94.544694 
L 411.944933 94.627038 
L 412.113696 93.682743 
L 412.320625 93.310429 
L 412.443287 93.952243 
L 412.900331 97.810109 
L 413.025363 98.233631 
L 413.273791 96.519214 
L 413.522448 92.586636 
L 413.648652 92.672876 
L 413.812511 94.198962 
L 414.061829 95.068216 
L 414.232945 93.981177 
L 414.353743 92.142606 
L 414.578213 91.55767 
L 415.034266 94.853441 
L 415.239037 94.717904 
L 415.538946 94.067462 
L 415.902317 94.525462 
L 416.068472 94.191623 
L 416.284316 93.382312 
L 416.40005 92.424913 
L 416.651214 92.386356 
L 416.745843 92.966131 
L 416.9404 93.194221 
L 417.316196 91.469947 
L 417.52143 90.317552 
L 417.645606 91.106349 
L 417.686851 92.206198 
L 417.977769 93.722515 
L 418.268312 97.163993 
L 418.64112 95.245471 
L 419.158762 98.432422 
L 419.264449 98.330139 
L 419.843127 90.21254 
L 420.100589 90.424025 
L 420.426032 92.80376 
L 420.550342 93.705334 
L 421.048365 92.728327 
L 421.255876 93.876188 
L 421.58873 96.334631 
L 421.879741 95.30701 
L 421.925439 94.09822 
L 422.090896 93.175886 
L 422.335312 92.960286 
L 422.431601 93.53356 
L 422.588032 93.423123 
L 422.959297 93.853731 
L 423.33962 93.574291 
L 423.545812 94.142107 
L 423.711812 95.814434 
L 423.835618 95.273809 
L 424.00377 93.782443 
L 424.251177 93.85086 
L 424.4582 94.782599 
L 424.70879 93.962463 
L 424.831484 94.050395 
L 425.004725 93.552836 
L 425.163008 93.812717 
L 425.333239 93.297051 
L 425.703158 93.143529 
L 426.035878 94.06478 
L 426.214218 94.484026 
L 426.366406 94.454183 
L 426.71952 95.164979 
L 426.71952 95.164979 
" clip-path="url(#pebe5199fe4)" style="fill: none; stroke: #ff0000; stroke-opacity: 0.5; stroke-width: 1.75; stroke-linecap: square"/>
   </g>
   <g id="patch_3">
    <path d="M 38.502813 184.36327 
L 38.502813 0.72 
" style="fill: none; stroke: #000000; stroke-width: 0.8; stroke-linejoin: miter; stroke-linecap: square"/>
   </g>
   <g id="patch_4">
    <path d="M 426.71952 184.36327 
L 426.71952 0.72 
" style="fill: none; stroke: #000000; stroke-width: 0.8; stroke-linejoin: miter; stroke-linecap: square"/>
   </g>
   <g id="patch_5">
    <path d="M 38.502813 184.36327 
L 426.71952 184.36327 
" style="fill: none; stroke: #000000; stroke-width: 0.8; stroke-linejoin: miter; stroke-linecap: square"/>
   </g>
   <g id="patch_6">
    <path d="M 38.502813 0.72 
L 426.71952 0.72 
" style="fill: none; stroke: #000000; stroke-width: 0.8; stroke-linejoin: miter; stroke-linecap: square"/>
   </g>
   <g id="legend_1">
    <g id="patch_7">
     <path d="M 345.95077 38.07625 
L 419.71952 38.07625 
Q 421.71952 38.07625 421.71952 36.07625 
L 421.71952 7.72 
Q 421.71952 5.72 419.71952 5.72 
L 345.95077 5.72 
Q 343.95077 5.72 343.95077 7.72 
L 343.95077 36.07625 
Q 343.95077 38.07625 345.95077 38.07625 
z
" style="fill: #ffffff; opacity: 0.8; stroke: #cccccc; stroke-linejoin: miter"/>
    </g>
    <g id="line2d_31">
     <path d="M 347.95077 13.818437 
L 357.95077 13.818437 
L 367.95077 13.818437 
" style="fill: none; stroke: #0000ff; stroke-opacity: 0.5; stroke-width: 1.75; stroke-linecap: square"/>
    </g>
    <g id="text_17">
     <!-- RNEA -->
     <g transform="translate(375.95077 17.318437) scale(0.1 -0.1)">
      <defs>
       <path id="DejaVuSans-52" d="M 2841 2188 
Q 3044 2119 3236 1894 
Q 3428 1669 3622 1275 
L 4263 0 
L 3584 0 
L 2988 1197 
Q 2756 1666 2539 1819 
Q 2322 1972 1947 1972 
L 1259 1972 
L 1259 0 
L 628 0 
L 628 4666 
L 2053 4666 
Q 2853 4666 3247 4331 
Q 3641 3997 3641 3322 
Q 3641 2881 3436 2590 
Q 3231 2300 2841 2188 
z
M 1259 4147 
L 1259 2491 
L 2053 2491 
Q 2509 2491 2742 2702 
Q 2975 2913 2975 3322 
Q 2975 3731 2742 3939 
Q 2509 4147 2053 4147 
L 1259 4147 
z
" transform="scale(0.015625)"/>
       <path id="DejaVuSans-45" d="M 628 4666 
L 3578 4666 
L 3578 4134 
L 1259 4134 
L 1259 2753 
L 3481 2753 
L 3481 2222 
L 1259 2222 
L 1259 531 
L 3634 531 
L 3634 0 
L 628 0 
L 628 4666 
z
" transform="scale(0.015625)"/>
       <path id="DejaVuSans-41" d="M 2188 4044 
L 1331 1722 
L 3047 1722 
L 2188 4044 
z
M 1831 4666 
L 2547 4666 
L 4325 0 
L 3669 0 
L 3244 1197 
L 1141 1197 
L 716 0 
L 50 0 
L 1831 4666 
z
" transform="scale(0.015625)"/>
      </defs>
      <use xlink:href="#DejaVuSans-52"/>
      <use xlink:href="#DejaVuSans-4e" x="69.482422"/>
      <use xlink:href="#DejaVuSans-45" x="144.287109"/>
      <use xlink:href="#DejaVuSans-41" x="207.470703"/>
     </g>
    </g>
    <g id="line2d_32">
     <path d="M 347.95077 28.496562 
L 357.95077 28.496562 
L 367.95077 28.496562 
" style="fill: none; stroke: #ff0000; stroke-opacity: 0.5; stroke-width: 1.75; stroke-linecap: square"/>
    </g>
    <g id="text_18">
     <!-- BURNEA -->
     <g transform="translate(375.95077 31.996562) scale(0.1 -0.1)">
      <defs>
       <path id="DejaVuSans-42" d="M 1259 2228 
L 1259 519 
L 2272 519 
Q 2781 519 3026 730 
Q 3272 941 3272 1375 
Q 3272 1813 3026 2020 
Q 2781 2228 2272 2228 
L 1259 2228 
z
M 1259 4147 
L 1259 2741 
L 2194 2741 
Q 2656 2741 2882 2914 
Q 3109 3088 3109 3444 
Q 3109 3797 2882 3972 
Q 2656 4147 2194 4147 
L 1259 4147 
z
M 628 4666 
L 2241 4666 
Q 2963 4666 3353 4366 
Q 3744 4066 3744 3513 
Q 3744 3084 3544 2831 
Q 3344 2578 2956 2516 
Q 3422 2416 3680 2098 
Q 3938 1781 3938 1306 
Q 3938 681 3513 340 
Q 3088 0 2303 0 
L 628 0 
L 628 4666 
z
" transform="scale(0.015625)"/>
       <path id="DejaVuSans-55" d="M 556 4666 
L 1191 4666 
L 1191 1831 
Q 1191 1081 1462 751 
Q 1734 422 2344 422 
Q 2950 422 3222 751 
Q 3494 1081 3494 1831 
L 3494 4666 
L 4128 4666 
L 4128 1753 
Q 4128 841 3676 375 
Q 3225 -91 2344 -91 
Q 1459 -91 1007 375 
Q 556 841 556 1753 
L 556 4666 
z
" transform="scale(0.015625)"/>
      </defs>
      <use xlink:href="#DejaVuSans-42"/>
      <use xlink:href="#DejaVuSans-55" x="68.603516"/>
      <use xlink:href="#DejaVuSans-52" x="141.796875"/>
      <use xlink:href="#DejaVuSans-4e" x="211.279297"/>
      <use xlink:href="#DejaVuSans-45" x="286.083984"/>
      <use xlink:href="#DejaVuSans-41" x="349.267578"/>
     </g>
    </g>
   </g>
  </g>
 </g>
 <defs>
  <clipPath id="pebe5199fe4">
   <rect x="38.502813" y="0.72" width="388.216708" height="183.64327"/>
  </clipPath>
 </defs>
</svg>
