<?xml version="1.0" encoding="utf-8" standalone="no"?>
<!DOCTYPE svg PUBLIC "-//W3C//DTD SVG 1.1//EN"
  "http://www.w3.org/Graphics/SVG/1.1/DTD/svg11.dtd">
<svg xmlns:xlink="http://www.w3.org/1999/xlink" width="309.843125pt" height="166.39625pt" viewBox="0 0 309.843125 166.39625" xmlns="http://www.w3.org/2000/svg" version="1.1">
 <metadata>
  <rdf:RDF xmlns:dc="http://purl.org/dc/elements/1.1/" xmlns:cc="http://creativecommons.org/ns#" xmlns:rdf="http://www.w3.org/1999/02/22-rdf-syntax-ns#">
   <cc:Work>
    <dc:type rdf:resource="http://purl.org/dc/dcmitype/StillImage"/>
    <dc:date>2023-09-07T03:31:04.466329</dc:date>
    <dc:format>image/svg+xml</dc:format>
    <dc:creator>
     <cc:Agent>
      <dc:title>Matplotlib v3.7.2, https://matplotlib.org/</dc:title>
     </cc:Agent>
    </dc:creator>
   </cc:Work>
  </rdf:RDF>
 </metadata>
 <defs>
  <style type="text/css">*{stroke-linejoin: round; stroke-linecap: butt}</style>
 </defs>
 <g id="figure_1">
  <g id="patch_1">
   <path d="M -0 166.39625 
L 309.843125 166.39625 
L 309.843125 0 
L -0 0 
L -0 166.39625 
z
" style="fill: none"/>
  </g>
  <g id="axes_1">
   <g id="patch_2">
    <path d="M 30.123125 139.32 
L 309.123125 139.32 
L 309.123125 0.72 
L 30.123125 0.72 
L 30.123125 139.32 
z
" style="fill: none"/>
   </g>
   <g id="matplotlib.axis_1">
    <g id="xtick_1">
     <g id="line2d_1">
      <path d="M 30.123125 139.32 
L 30.123125 0.72 
" clip-path="url(#pa811a7475a)" style="fill: none; stroke-dasharray: 0.8,1.32; stroke-dashoffset: 0; stroke: #000000; stroke-opacity: 0.5; stroke-width: 0.8"/>
     </g>
     <g id="line2d_2">
      <defs>
       <path id="m0c30f5b3a5" d="M 0 0 
L 0 3.5 
" style="stroke: #000000; stroke-width: 0.8"/>
      </defs>
      <g>
       <use xlink:href="#m0c30f5b3a5" x="30.123125" y="139.32" style="stroke: #000000; stroke-width: 0.8"/>
      </g>
     </g>
     <g id="text_1">
      <!-- 0 -->
      <g transform="translate(26.941875 153.918437) scale(0.1 -0.1)">
       <defs>
        <path id="DejaVuSans-30" d="M 2034 4250 
Q 1547 4250 1301 3770 
Q 1056 3291 1056 2328 
Q 1056 1369 1301 889 
Q 1547 409 2034 409 
Q 2525 409 2770 889 
Q 3016 1369 3016 2328 
Q 3016 3291 2770 3770 
Q 2525 4250 2034 4250 
z
M 2034 4750 
Q 2819 4750 3233 4129 
Q 3647 3509 3647 2328 
Q 3647 1150 3233 529 
Q 2819 -91 2034 -91 
Q 1250 -91 836 529 
Q 422 1150 422 2328 
Q 422 3509 836 4129 
Q 1250 4750 2034 4750 
z
" transform="scale(0.015625)"/>
       </defs>
       <use xlink:href="#DejaVuSans-30"/>
      </g>
     </g>
    </g>
    <g id="xtick_2">
     <g id="line2d_3">
      <path d="M 72.738026 139.32 
L 72.738026 0.72 
" clip-path="url(#pa811a7475a)" style="fill: none; stroke-dasharray: 0.8,1.32; stroke-dashoffset: 0; stroke: #000000; stroke-opacity: 0.5; stroke-width: 0.8"/>
     </g>
     <g id="line2d_4">
      <g>
       <use xlink:href="#m0c30f5b3a5" x="72.738026" y="139.32" style="stroke: #000000; stroke-width: 0.8"/>
      </g>
     </g>
     <g id="text_2">
      <!-- 5 -->
      <g transform="translate(69.556776 153.918437) scale(0.1 -0.1)">
       <defs>
        <path id="DejaVuSans-35" d="M 691 4666 
L 3169 4666 
L 3169 4134 
L 1269 4134 
L 1269 2991 
Q 1406 3038 1543 3061 
Q 1681 3084 1819 3084 
Q 2600 3084 3056 2656 
Q 3513 2228 3513 1497 
Q 3513 744 3044 326 
Q 2575 -91 1722 -91 
Q 1428 -91 1123 -41 
Q 819 9 494 109 
L 494 744 
Q 775 591 1075 516 
Q 1375 441 1709 441 
Q 2250 441 2565 725 
Q 2881 1009 2881 1497 
Q 2881 1984 2565 2268 
Q 2250 2553 1709 2553 
Q 1456 2553 1204 2497 
Q 953 2441 691 2322 
L 691 4666 
z
" transform="scale(0.015625)"/>
       </defs>
       <use xlink:href="#DejaVuSans-35"/>
      </g>
     </g>
    </g>
    <g id="xtick_3">
     <g id="line2d_5">
      <path d="M 115.352926 139.32 
L 115.352926 0.72 
" clip-path="url(#pa811a7475a)" style="fill: none; stroke-dasharray: 0.8,1.32; stroke-dashoffset: 0; stroke: #000000; stroke-opacity: 0.5; stroke-width: 0.8"/>
     </g>
     <g id="line2d_6">
      <g>
       <use xlink:href="#m0c30f5b3a5" x="115.352926" y="139.32" style="stroke: #000000; stroke-width: 0.8"/>
      </g>
     </g>
     <g id="text_3">
      <!-- 10 -->
      <g transform="translate(108.990426 153.918437) scale(0.1 -0.1)">
       <defs>
        <path id="DejaVuSans-31" d="M 794 531 
L 1825 531 
L 1825 4091 
L 703 3866 
L 703 4441 
L 1819 4666 
L 2450 4666 
L 2450 531 
L 3481 531 
L 3481 0 
L 794 0 
L 794 531 
z
" transform="scale(0.015625)"/>
       </defs>
       <use xlink:href="#DejaVuSans-31"/>
       <use xlink:href="#DejaVuSans-30" x="63.623047"/>
      </g>
     </g>
    </g>
    <g id="xtick_4">
     <g id="line2d_7">
      <path d="M 157.967827 139.32 
L 157.967827 0.72 
" clip-path="url(#pa811a7475a)" style="fill: none; stroke-dasharray: 0.8,1.32; stroke-dashoffset: 0; stroke: #000000; stroke-opacity: 0.5; stroke-width: 0.8"/>
     </g>
     <g id="line2d_8">
      <g>
       <use xlink:href="#m0c30f5b3a5" x="157.967827" y="139.32" style="stroke: #000000; stroke-width: 0.8"/>
      </g>
     </g>
     <g id="text_4">
      <!-- 15 -->
      <g transform="translate(151.605327 153.918437) scale(0.1 -0.1)">
       <use xlink:href="#DejaVuSans-31"/>
       <use xlink:href="#DejaVuSans-35" x="63.623047"/>
      </g>
     </g>
    </g>
    <g id="xtick_5">
     <g id="line2d_9">
      <path d="M 200.582727 139.32 
L 200.582727 0.72 
" clip-path="url(#pa811a7475a)" style="fill: none; stroke-dasharray: 0.8,1.32; stroke-dashoffset: 0; stroke: #000000; stroke-opacity: 0.5; stroke-width: 0.8"/>
     </g>
     <g id="line2d_10">
      <g>
       <use xlink:href="#m0c30f5b3a5" x="200.582727" y="139.32" style="stroke: #000000; stroke-width: 0.8"/>
      </g>
     </g>
     <g id="text_5">
      <!-- 20 -->
      <g transform="translate(194.220227 153.918437) scale(0.1 -0.1)">
       <defs>
        <path id="DejaVuSans-32" d="M 1228 531 
L 3431 531 
L 3431 0 
L 469 0 
L 469 531 
Q 828 903 1448 1529 
Q 2069 2156 2228 2338 
Q 2531 2678 2651 2914 
Q 2772 3150 2772 3378 
Q 2772 3750 2511 3984 
Q 2250 4219 1831 4219 
Q 1534 4219 1204 4116 
Q 875 4013 500 3803 
L 500 4441 
Q 881 4594 1212 4672 
Q 1544 4750 1819 4750 
Q 2544 4750 2975 4387 
Q 3406 4025 3406 3419 
Q 3406 3131 3298 2873 
Q 3191 2616 2906 2266 
Q 2828 2175 2409 1742 
Q 1991 1309 1228 531 
z
" transform="scale(0.015625)"/>
       </defs>
       <use xlink:href="#DejaVuSans-32"/>
       <use xlink:href="#DejaVuSans-30" x="63.623047"/>
      </g>
     </g>
    </g>
    <g id="xtick_6">
     <g id="line2d_11">
      <path d="M 243.197628 139.32 
L 243.197628 0.72 
" clip-path="url(#pa811a7475a)" style="fill: none; stroke-dasharray: 0.8,1.32; stroke-dashoffset: 0; stroke: #000000; stroke-opacity: 0.5; stroke-width: 0.8"/>
     </g>
     <g id="line2d_12">
      <g>
       <use xlink:href="#m0c30f5b3a5" x="243.197628" y="139.32" style="stroke: #000000; stroke-width: 0.8"/>
      </g>
     </g>
     <g id="text_6">
      <!-- 25 -->
      <g transform="translate(236.835128 153.918437) scale(0.1 -0.1)">
       <use xlink:href="#DejaVuSans-32"/>
       <use xlink:href="#DejaVuSans-35" x="63.623047"/>
      </g>
     </g>
    </g>
    <g id="xtick_7">
     <g id="line2d_13">
      <path d="M 285.812528 139.32 
L 285.812528 0.72 
" clip-path="url(#pa811a7475a)" style="fill: none; stroke-dasharray: 0.8,1.32; stroke-dashoffset: 0; stroke: #000000; stroke-opacity: 0.5; stroke-width: 0.8"/>
     </g>
     <g id="line2d_14">
      <g>
       <use xlink:href="#m0c30f5b3a5" x="285.812528" y="139.32" style="stroke: #000000; stroke-width: 0.8"/>
      </g>
     </g>
     <g id="text_7">
      <!-- 30 -->
      <g transform="translate(279.450028 153.918437) scale(0.1 -0.1)">
       <defs>
        <path id="DejaVuSans-33" d="M 2597 2516 
Q 3050 2419 3304 2112 
Q 3559 1806 3559 1356 
Q 3559 666 3084 287 
Q 2609 -91 1734 -91 
Q 1441 -91 1130 -33 
Q 819 25 488 141 
L 488 750 
Q 750 597 1062 519 
Q 1375 441 1716 441 
Q 2309 441 2620 675 
Q 2931 909 2931 1356 
Q 2931 1769 2642 2001 
Q 2353 2234 1838 2234 
L 1294 2234 
L 1294 2753 
L 1863 2753 
Q 2328 2753 2575 2939 
Q 2822 3125 2822 3475 
Q 2822 3834 2567 4026 
Q 2313 4219 1838 4219 
Q 1578 4219 1281 4162 
Q 984 4106 628 3988 
L 628 4550 
Q 988 4650 1302 4700 
Q 1616 4750 1894 4750 
Q 2613 4750 3031 4423 
Q 3450 4097 3450 3541 
Q 3450 3153 3228 2886 
Q 3006 2619 2597 2516 
z
" transform="scale(0.015625)"/>
       </defs>
       <use xlink:href="#DejaVuSans-33"/>
       <use xlink:href="#DejaVuSans-30" x="63.623047"/>
      </g>
     </g>
    </g>
    <g id="text_8">
     <!-- Zeit [s] -->
     <g transform="translate(151.677031 163.596562) scale(0.1 -0.1)">
      <defs>
       <path id="DejaVuSans-5a" d="M 359 4666 
L 4025 4666 
L 4025 4184 
L 1075 531 
L 4097 531 
L 4097 0 
L 288 0 
L 288 481 
L 3238 4134 
L 359 4134 
L 359 4666 
z
" transform="scale(0.015625)"/>
       <path id="DejaVuSans-65" d="M 3597 1894 
L 3597 1613 
L 953 1613 
Q 991 1019 1311 708 
Q 1631 397 2203 397 
Q 2534 397 2845 478 
Q 3156 559 3463 722 
L 3463 178 
Q 3153 47 2828 -22 
Q 2503 -91 2169 -91 
Q 1331 -91 842 396 
Q 353 884 353 1716 
Q 353 2575 817 3079 
Q 1281 3584 2069 3584 
Q 2775 3584 3186 3129 
Q 3597 2675 3597 1894 
z
M 3022 2063 
Q 3016 2534 2758 2815 
Q 2500 3097 2075 3097 
Q 1594 3097 1305 2825 
Q 1016 2553 972 2059 
L 3022 2063 
z
" transform="scale(0.015625)"/>
       <path id="DejaVuSans-69" d="M 603 3500 
L 1178 3500 
L 1178 0 
L 603 0 
L 603 3500 
z
M 603 4863 
L 1178 4863 
L 1178 4134 
L 603 4134 
L 603 4863 
z
" transform="scale(0.015625)"/>
       <path id="DejaVuSans-74" d="M 1172 4494 
L 1172 3500 
L 2356 3500 
L 2356 3053 
L 1172 3053 
L 1172 1153 
Q 1172 725 1289 603 
Q 1406 481 1766 481 
L 2356 481 
L 2356 0 
L 1766 0 
Q 1100 0 847 248 
Q 594 497 594 1153 
L 594 3053 
L 172 3053 
L 172 3500 
L 594 3500 
L 594 4494 
L 1172 4494 
z
" transform="scale(0.015625)"/>
       <path id="DejaVuSans-20" transform="scale(0.015625)"/>
       <path id="DejaVuSans-5b" d="M 550 4863 
L 1875 4863 
L 1875 4416 
L 1125 4416 
L 1125 -397 
L 1875 -397 
L 1875 -844 
L 550 -844 
L 550 4863 
z
" transform="scale(0.015625)"/>
       <path id="DejaVuSans-73" d="M 2834 3397 
L 2834 2853 
Q 2591 2978 2328 3040 
Q 2066 3103 1784 3103 
Q 1356 3103 1142 2972 
Q 928 2841 928 2578 
Q 928 2378 1081 2264 
Q 1234 2150 1697 2047 
L 1894 2003 
Q 2506 1872 2764 1633 
Q 3022 1394 3022 966 
Q 3022 478 2636 193 
Q 2250 -91 1575 -91 
Q 1294 -91 989 -36 
Q 684 19 347 128 
L 347 722 
Q 666 556 975 473 
Q 1284 391 1588 391 
Q 1994 391 2212 530 
Q 2431 669 2431 922 
Q 2431 1156 2273 1281 
Q 2116 1406 1581 1522 
L 1381 1569 
Q 847 1681 609 1914 
Q 372 2147 372 2553 
Q 372 3047 722 3315 
Q 1072 3584 1716 3584 
Q 2034 3584 2315 3537 
Q 2597 3491 2834 3397 
z
" transform="scale(0.015625)"/>
       <path id="DejaVuSans-5d" d="M 1947 4863 
L 1947 -844 
L 622 -844 
L 622 -397 
L 1369 -397 
L 1369 4416 
L 622 4416 
L 622 4863 
L 1947 4863 
z
" transform="scale(0.015625)"/>
      </defs>
      <use xlink:href="#DejaVuSans-5a"/>
      <use xlink:href="#DejaVuSans-65" x="68.505859"/>
      <use xlink:href="#DejaVuSans-69" x="130.029297"/>
      <use xlink:href="#DejaVuSans-74" x="157.8125"/>
      <use xlink:href="#DejaVuSans-20" x="197.021484"/>
      <use xlink:href="#DejaVuSans-5b" x="228.808594"/>
      <use xlink:href="#DejaVuSans-73" x="267.822266"/>
      <use xlink:href="#DejaVuSans-5d" x="319.921875"/>
     </g>
    </g>
   </g>
   <g id="matplotlib.axis_2">
    <g id="ytick_1">
     <g id="line2d_15">
      <path d="M 30.123125 136.89188 
L 309.123125 136.89188 
" clip-path="url(#pa811a7475a)" style="fill: none; stroke-dasharray: 0.8,1.32; stroke-dashoffset: 0; stroke: #000000; stroke-opacity: 0.5; stroke-width: 0.8"/>
     </g>
     <g id="line2d_16">
      <defs>
       <path id="mf43b82874e" d="M 0 0 
L -3.5 0 
" style="stroke: #000000; stroke-width: 0.8"/>
      </defs>
      <g>
       <use xlink:href="#mf43b82874e" x="30.123125" y="136.89188" style="stroke: #000000; stroke-width: 0.8"/>
      </g>
     </g>
     <g id="text_9">
      <!-- 20 -->
      <g transform="translate(10.398125 140.691098) scale(0.1 -0.1)">
       <use xlink:href="#DejaVuSans-32"/>
       <use xlink:href="#DejaVuSans-30" x="63.623047"/>
      </g>
     </g>
    </g>
    <g id="ytick_2">
     <g id="line2d_17">
      <path d="M 30.123125 98.310085 
L 309.123125 98.310085 
" clip-path="url(#pa811a7475a)" style="fill: none; stroke-dasharray: 0.8,1.32; stroke-dashoffset: 0; stroke: #000000; stroke-opacity: 0.5; stroke-width: 0.8"/>
     </g>
     <g id="line2d_18">
      <g>
       <use xlink:href="#mf43b82874e" x="30.123125" y="98.310085" style="stroke: #000000; stroke-width: 0.8"/>
      </g>
     </g>
     <g id="text_10">
      <!-- 30 -->
      <g transform="translate(10.398125 102.109304) scale(0.1 -0.1)">
       <use xlink:href="#DejaVuSans-33"/>
       <use xlink:href="#DejaVuSans-30" x="63.623047"/>
      </g>
     </g>
    </g>
    <g id="ytick_3">
     <g id="line2d_19">
      <path d="M 30.123125 59.728291 
L 309.123125 59.728291 
" clip-path="url(#pa811a7475a)" style="fill: none; stroke-dasharray: 0.8,1.32; stroke-dashoffset: 0; stroke: #000000; stroke-opacity: 0.5; stroke-width: 0.8"/>
     </g>
     <g id="line2d_20">
      <g>
       <use xlink:href="#mf43b82874e" x="30.123125" y="59.728291" style="stroke: #000000; stroke-width: 0.8"/>
      </g>
     </g>
     <g id="text_11">
      <!-- 40 -->
      <g transform="translate(10.398125 63.52751) scale(0.1 -0.1)">
       <defs>
        <path id="DejaVuSans-34" d="M 2419 4116 
L 825 1625 
L 2419 1625 
L 2419 4116 
z
M 2253 4666 
L 3047 4666 
L 3047 1625 
L 3713 1625 
L 3713 1100 
L 3047 1100 
L 3047 0 
L 2419 0 
L 2419 1100 
L 313 1100 
L 313 1709 
L 2253 4666 
z
" transform="scale(0.015625)"/>
       </defs>
       <use xlink:href="#DejaVuSans-34"/>
       <use xlink:href="#DejaVuSans-30" x="63.623047"/>
      </g>
     </g>
    </g>
    <g id="ytick_4">
     <g id="line2d_21">
      <path d="M 30.123125 21.146497 
L 309.123125 21.146497 
" clip-path="url(#pa811a7475a)" style="fill: none; stroke-dasharray: 0.8,1.32; stroke-dashoffset: 0; stroke: #000000; stroke-opacity: 0.5; stroke-width: 0.8"/>
     </g>
     <g id="line2d_22">
      <g>
       <use xlink:href="#mf43b82874e" x="30.123125" y="21.146497" style="stroke: #000000; stroke-width: 0.8"/>
      </g>
     </g>
     <g id="text_12">
      <!-- 50 -->
      <g transform="translate(10.398125 24.945716) scale(0.1 -0.1)">
       <use xlink:href="#DejaVuSans-35"/>
       <use xlink:href="#DejaVuSans-30" x="63.623047"/>
      </g>
     </g>
    </g>
    <g id="text_13">
     <!-- Kraft [N] -->
     <g transform="translate(8.318438 91.2825) rotate(-90) scale(0.1 -0.1)">
      <defs>
       <path id="DejaVuSans-4b" d="M 628 4666 
L 1259 4666 
L 1259 2694 
L 3353 4666 
L 4166 4666 
L 1850 2491 
L 4331 0 
L 3500 0 
L 1259 2247 
L 1259 0 
L 628 0 
L 628 4666 
z
" transform="scale(0.015625)"/>
       <path id="DejaVuSans-72" d="M 2631 2963 
Q 2534 3019 2420 3045 
Q 2306 3072 2169 3072 
Q 1681 3072 1420 2755 
Q 1159 2438 1159 1844 
L 1159 0 
L 581 0 
L 581 3500 
L 1159 3500 
L 1159 2956 
Q 1341 3275 1631 3429 
Q 1922 3584 2338 3584 
Q 2397 3584 2469 3576 
Q 2541 3569 2628 3553 
L 2631 2963 
z
" transform="scale(0.015625)"/>
       <path id="DejaVuSans-61" d="M 2194 1759 
Q 1497 1759 1228 1600 
Q 959 1441 959 1056 
Q 959 750 1161 570 
Q 1363 391 1709 391 
Q 2188 391 2477 730 
Q 2766 1069 2766 1631 
L 2766 1759 
L 2194 1759 
z
M 3341 1997 
L 3341 0 
L 2766 0 
L 2766 531 
Q 2569 213 2275 61 
Q 1981 -91 1556 -91 
Q 1019 -91 701 211 
Q 384 513 384 1019 
Q 384 1609 779 1909 
Q 1175 2209 1959 2209 
L 2766 2209 
L 2766 2266 
Q 2766 2663 2505 2880 
Q 2244 3097 1772 3097 
Q 1472 3097 1187 3025 
Q 903 2953 641 2809 
L 641 3341 
Q 956 3463 1253 3523 
Q 1550 3584 1831 3584 
Q 2591 3584 2966 3190 
Q 3341 2797 3341 1997 
z
" transform="scale(0.015625)"/>
       <path id="DejaVuSans-66" d="M 2375 4863 
L 2375 4384 
L 1825 4384 
Q 1516 4384 1395 4259 
Q 1275 4134 1275 3809 
L 1275 3500 
L 2222 3500 
L 2222 3053 
L 1275 3053 
L 1275 0 
L 697 0 
L 697 3053 
L 147 3053 
L 147 3500 
L 697 3500 
L 697 3744 
Q 697 4328 969 4595 
Q 1241 4863 1831 4863 
L 2375 4863 
z
" transform="scale(0.015625)"/>
       <path id="DejaVuSans-4e" d="M 628 4666 
L 1478 4666 
L 3547 763 
L 3547 4666 
L 4159 4666 
L 4159 0 
L 3309 0 
L 1241 3903 
L 1241 0 
L 628 0 
L 628 4666 
z
" transform="scale(0.015625)"/>
      </defs>
      <use xlink:href="#DejaVuSans-4b"/>
      <use xlink:href="#DejaVuSans-72" x="65.576172"/>
      <use xlink:href="#DejaVuSans-61" x="106.689453"/>
      <use xlink:href="#DejaVuSans-66" x="167.96875"/>
      <use xlink:href="#DejaVuSans-74" x="201.423828"/>
      <use xlink:href="#DejaVuSans-20" x="240.632812"/>
      <use xlink:href="#DejaVuSans-5b" x="272.419922"/>
      <use xlink:href="#DejaVuSans-4e" x="311.433594"/>
      <use xlink:href="#DejaVuSans-5d" x="386.238281"/>
     </g>
    </g>
   </g>
   <g id="line2d_23">
    <path d="M 30.123125 5.853334 
L 309.123125 5.853334 
L 309.123125 5.853334 
" clip-path="url(#pa811a7475a)" style="fill: none; stroke: #0000ff; stroke-opacity: 0.5; stroke-width: 3; stroke-linecap: square"/>
   </g>
   <g id="line2d_24">
    <path d="M 30.123125 126.982195 
L 30.330475 130.100364 
L 30.421454 129.675454 
L 30.436573 127.853552 
L 30.487419 128.737061 
L 30.558267 128.578753 
L 30.608013 125.68671 
L 30.674888 126.065108 
L 30.744033 126.745012 
L 30.83075 126.378266 
L 30.905053 127.138219 
L 30.9842 125.122226 
L 31.035511 125.282943 
L 31.173044 126.979678 
L 31.242205 126.048402 
L 31.345384 126.801326 
L 31.465358 125.346485 
L 31.53363 126.682107 
L 31.619715 126.322971 
L 31.739797 127.274339 
L 31.910909 124.457901 
L 32.324232 127.638682 
L 32.444339 127.122017 
L 32.464072 126.067644 
L 32.530328 126.754879 
L 32.599824 126.906898 
L 32.808788 128.57333 
L 33.027985 127.035605 
L 33.304136 130.510632 
L 33.373137 130.127132 
L 33.446572 128.586508 
L 33.518439 128.770732 
L 33.597859 129.999309 
L 33.735762 128.655986 
L 34.01734 126.995916 
L 34.083745 128.40516 
L 34.164687 127.959587 
L 34.440386 125.988935 
L 34.508195 126.172912 
L 34.651864 128.707541 
L 34.802876 127.298284 
L 34.87161 127.665408 
L 35.078325 124.865551 
L 35.215765 126.878988 
L 35.285783 126.37622 
L 35.508349 125.390601 
L 35.577625 124.102045 
L 35.64596 124.59075 
L 35.793927 126.17314 
L 35.855397 125.724046 
L 35.937693 126.275225 
L 36.006592 126.251318 
L 36.157356 125.036342 
L 36.214013 125.674864 
L 36.283826 125.323639 
L 36.421492 126.58661 
L 36.488829 127.191983 
L 36.650601 124.96991 
L 36.712514 123.862923 
L 36.779812 124.300394 
L 37.075162 127.787406 
L 37.141592 126.927781 
L 37.281865 128.417431 
L 37.659143 125.58441 
L 37.916819 128.130499 
L 38.036902 126.447847 
L 38.27671 132.581158 
L 38.345778 131.449421 
L 38.414615 131.005633 
L 38.554001 126.782984 
L 38.641524 127.578144 
L 38.69477 128.598018 
L 38.766284 128.442619 
L 39.12314 126.236652 
L 39.349156 127.68974 
L 39.419337 127.506321 
L 39.642151 128.841343 
L 39.695434 128.565501 
L 39.765776 128.379272 
L 39.922053 126.241133 
L 40.050592 126.820417 
L 40.142915 127.050599 
L 40.290124 128.569664 
L 40.306196 127.46135 
L 40.447951 124.606815 
L 40.51029 124.716177 
L 40.58662 126.269763 
L 40.776124 128.33869 
L 40.861574 128.039146 
L 40.998828 126.141039 
L 41.205104 129.028914 
L 41.34438 127.245604 
L 41.411735 126.812512 
L 41.623435 128.495041 
L 41.841152 126.453075 
L 41.893965 125.836001 
L 42.057627 129.057351 
L 42.116275 128.819272 
L 42.346909 126.564884 
L 42.69944 130.80285 
L 42.751219 130.593611 
L 43.094712 128.336303 
L 43.163204 128.931289 
L 43.249718 127.891907 
L 43.455847 123.299532 
L 43.541294 123.738245 
L 43.816337 127.734417 
L 43.884924 127.378483 
L 43.970943 127.835141 
L 44.177032 130.142506 
L 44.245293 129.894854 
L 44.571569 125.77432 
L 44.605663 128.085807 
L 44.663974 128.031922 
L 44.742651 126.919086 
L 45.193569 131.434824 
L 45.24235 130.945072 
L 45.311059 128.716061 
L 45.391219 128.822454 
L 45.448639 130.372291 
L 45.619776 129.893079 
L 45.671832 130.165797 
L 45.808654 128.457984 
L 46.049831 130.74382 
L 46.101939 130.293506 
L 46.170389 128.422739 
L 46.239004 128.789702 
L 46.341915 128.729468 
L 46.496556 129.526905 
L 46.65129 129.003825 
L 46.702753 129.103712 
L 46.754654 129.037149 
L 46.853222 128.629153 
L 46.874807 128.774769 
L 47.239988 130.555537 
L 47.394699 128.420635 
L 47.527226 129.615609 
L 47.648425 129.392501 
L 47.704837 128.994447 
L 47.743521 129.705442 
L 47.743594 128.924513 
L 47.811953 129.323221 
L 48.01306 129.664309 
L 48.045109 129.310379 
L 48.063245 130.125187 
L 48.130679 129.953944 
L 48.210728 128.772035 
L 48.2273 129.139686 
L 48.296194 128.534187 
L 48.378223 129.278084 
L 48.457123 129.242375 
L 48.558456 128.623952 
L 48.657215 128.879367 
L 48.729025 128.645779 
L 48.865727 129.400323 
L 48.968136 128.062223 
L 49.002637 130.380158 
L 49.071817 129.873959 
L 49.294943 123.520325 
L 49.363233 124.865851 
L 49.500872 126.996384 
L 49.603785 126.495764 
L 49.658854 128.735558 
L 49.725131 128.069993 
L 49.883144 126.811312 
L 50.021287 128.088866 
L 50.089862 128.932036 
L 50.139595 128.912033 
L 50.311591 128.686675 
L 50.380393 127.266342 
L 50.432912 127.281569 
L 50.707369 129.710015 
L 50.861388 128.581034 
L 51.017475 126.545461 
L 51.086475 126.896402 
L 51.292384 124.728594 
L 51.498586 123.421867 
L 51.515022 123.797444 
L 52.253543 127.180061 
L 52.65426 127.77662 
L 53.028815 127.400973 
L 53.043992 126.364611 
L 53.129151 127.323856 
L 53.198618 128.166145 
L 53.336755 125.998025 
L 53.593987 132.091363 
L 53.612538 130.567921 
L 53.818221 129.587787 
L 53.954309 127.830008 
L 54.076938 129.923155 
L 54.315596 126.925342 
L 54.473223 129.841652 
L 54.546181 130.17519 
L 54.67699 129.242731 
L 54.84888 124.553494 
L 54.900844 124.818584 
L 54.985359 126.30292 
L 55.147348 123.890832 
L 55.243361 123.945258 
L 55.3998 127.453469 
L 55.53564 127.052774 
L 55.724574 124.846697 
L 55.866539 126.176612 
L 55.913756 126.15394 
L 56.004588 125.379513 
L 56.051102 125.773293 
L 56.120707 127.725226 
L 56.185194 126.573663 
L 56.288409 126.240984 
L 56.528915 127.68953 
L 56.683442 127.200141 
L 56.751952 126.738319 
L 56.820928 126.828133 
L 56.975164 127.770934 
L 57.044741 128.210889 
L 57.095951 127.79437 
L 57.249899 128.58055 
L 57.318903 128.473731 
L 57.406618 128.264989 
L 57.541727 126.665562 
L 57.679981 128.105981 
L 57.817594 126.093221 
L 57.95502 123.643363 
L 58.094176 124.706054 
L 58.231545 126.41474 
L 58.385033 124.964971 
L 58.522144 128.729563 
L 58.641537 129.170059 
L 58.658558 130.080177 
L 58.746242 129.338487 
L 58.892663 129.071368 
L 58.89295 129.389573 
L 58.977112 127.712052 
L 59.302664 131.653232 
L 59.47305 134.186667 
L 59.593355 133.819478 
L 59.798872 132.223825 
L 60.159691 123.937898 
L 60.228019 124.731591 
L 60.347876 125.013534 
L 60.367123 124.952222 
L 60.50372 124.402121 
L 60.587792 125.242941 
L 60.66069 125.09301 
L 60.726523 125.477699 
L 60.934908 128.908659 
L 61.070054 129.042369 
L 61.121597 130.224497 
L 61.159542 130.176536 
L 61.224728 129.880267 
L 61.361868 131.531706 
L 61.431321 131.488959 
L 61.690201 126.889173 
L 61.808684 128.134291 
L 61.997989 126.794174 
L 62.135121 126.183458 
L 62.239486 129.276925 
L 62.444104 127.94192 
L 62.513673 127.146353 
L 62.564553 127.645402 
L 62.720455 128.26968 
L 62.78971 128.843789 
L 62.891042 127.632938 
L 62.96043 127.889078 
L 63.011443 128.812116 
L 63.083613 128.439354 
L 63.146666 127.449833 
L 63.276719 130.940462 
L 63.619079 127.005027 
L 63.669439 125.877754 
L 63.721678 126.422856 
L 63.772 126.945606 
L 63.858189 126.698975 
L 63.999124 121.356567 
L 64.065068 122.61955 
L 64.134132 124.097127 
L 64.203895 124.065871 
L 64.276218 122.880887 
L 64.342695 123.664693 
L 64.564422 121.899766 
L 64.753503 121.904642 
L 64.770372 124.867768 
L 64.839869 122.6102 
L 64.960112 124.032641 
L 65.063057 126.729413 
L 65.131473 126.746576 
L 65.262251 127.002708 
L 65.338781 129.87828 
L 65.40566 128.398306 
L 65.422709 128.643673 
L 65.533686 129.59275 
L 65.565023 131.185115 
L 65.768326 127.554413 
L 65.908789 127.772156 
L 65.97335 127.910881 
L 66.163456 124.59957 
L 66.197787 124.501541 
L 66.336744 123.632448 
L 66.377152 123.948825 
L 66.404992 123.945664 
L 66.560236 125.028948 
L 66.648409 124.703462 
L 66.687002 124.014148 
L 66.835537 126.655029 
L 66.964959 126.099034 
L 67.109976 124.074221 
L 67.238742 124.842474 
L 67.276122 124.777962 
L 67.626431 120.419185 
L 68.042925 127.085611 
L 68.127816 127.110497 
L 68.196615 127.447008 
L 68.251934 128.46398 
L 68.333613 128.419649 
L 68.471223 130.232173 
L 68.539626 129.707646 
L 68.750818 127.749677 
L 68.764255 130.16026 
L 68.833237 128.002525 
L 68.885568 127.965521 
L 68.989379 127.109965 
L 69.039863 128.148029 
L 69.194835 125.385422 
L 69.249512 125.940176 
L 69.33406 128.250903 
L 69.348688 126.856525 
L 69.469486 125.550209 
L 69.677286 128.136891 
L 69.849514 126.238984 
L 69.971574 127.55394 
L 70.020764 125.981541 
L 70.176618 127.074874 
L 70.262102 125.9068 
L 70.334412 126.251 
L 70.382718 126.311904 
L 70.520552 128.066918 
L 70.644338 127.958915 
L 70.661235 127.735814 
L 70.749799 128.724565 
L 70.816171 128.544304 
L 70.886703 128.132563 
L 71.09022 129.83171 
L 71.520266 125.908835 
L 71.657869 127.00678 
L 71.743857 126.783539 
L 71.880413 125.093197 
L 72.298259 130.007396 
L 72.432784 126.954453 
L 72.501353 127.112177 
L 72.604077 128.978131 
L 72.655879 128.704871 
L 72.809889 130.638924 
L 73.294647 124.742024 
L 73.4904 123.207194 
L 73.533056 123.555247 
L 73.928123 128.328781 
L 74.084701 129.127096 
L 74.169383 128.923379 
L 74.307496 126.737919 
L 74.426914 127.424147 
L 74.804275 125.798901 
L 74.874181 126.016654 
L 74.925071 126.73514 
L 75.080375 125.110313 
L 75.254789 126.495386 
L 75.511173 125.188053 
L 75.565536 123.765139 
L 75.632166 124.009502 
L 75.804159 125.117614 
L 75.954634 123.650336 
L 76.07033 126.782306 
L 76.16152 125.528241 
L 76.235597 125.446887 
L 76.39043 127.667813 
L 76.429404 126.482771 
L 76.579246 128.729603 
L 76.630486 128.715324 
L 76.768254 128.863328 
L 76.82172 128.151651 
L 76.857015 129.3155 
L 76.911947 129.311964 
L 77.063655 129.239868 
L 77.133269 130.01972 
L 77.200454 128.817357 
L 77.269012 129.207137 
L 77.338567 129.742606 
L 77.409226 128.627788 
L 77.494143 128.364001 
L 77.567691 126.859694 
L 77.630394 128.332262 
L 77.698413 127.898426 
L 77.984452 126.053806 
L 78.127667 126.342453 
L 78.197885 125.981796 
L 78.26458 127.565478 
L 78.337912 127.333149 
L 78.404473 126.618952 
L 78.625135 129.278772 
L 78.694746 129.082679 
L 78.762712 128.776965 
L 78.830981 129.766163 
L 78.901913 129.670796 
L 79.054823 126.278686 
L 79.19268 128.392992 
L 79.26136 128.36402 
L 79.398813 127.697022 
L 79.467199 127.948524 
L 79.622708 127.357926 
L 79.76061 129.005302 
L 79.828436 128.674197 
L 79.968337 126.628184 
L 80.120738 128.674601 
L 80.395477 129.678207 
L 80.472629 130.400699 
L 80.775134 126.866086 
L 80.824892 127.540115 
L 80.896712 129.110332 
L 81.047975 127.142946 
L 81.100815 127.906792 
L 81.176315 126.798076 
L 81.323445 128.815224 
L 81.392216 128.803825 
L 81.462895 129.078086 
L 81.599228 126.667478 
L 81.668523 126.927579 
L 81.75496 128.004604 
L 81.810607 127.777218 
L 81.89316 127.658949 
L 81.960291 126.500301 
L 82.03029 127.037026 
L 82.109745 126.702609 
L 82.115377 128.112711 
L 82.167684 127.877037 
L 82.322697 129.504009 
L 82.529433 127.568892 
L 82.581033 128.105355 
L 82.598742 127.650302 
L 82.668609 127.578439 
L 82.829637 126.431411 
L 82.909121 127.176031 
L 82.960292 126.982368 
L 83.029503 126.315275 
L 83.166546 128.02201 
L 83.235004 126.610242 
L 83.304201 127.334706 
L 83.37358 127.964191 
L 83.479816 126.78986 
L 83.530873 127.304132 
L 83.672753 125.82634 
L 83.686272 124.512373 
L 83.737208 125.079273 
L 83.857677 125.112254 
L 83.943548 127.871819 
L 84.098569 127.793338 
L 84.167252 127.360613 
L 84.184548 128.067179 
L 84.392136 127.468447 
L 84.478194 129.291886 
L 84.53059 128.628692 
L 84.855576 124.010883 
L 84.942609 124.719422 
L 85.028999 124.504602 
L 85.080854 125.763657 
L 85.09642 124.162174 
L 85.165914 123.968608 
L 85.320894 122.928372 
L 85.458534 125.848837 
L 85.508372 127.279287 
L 85.577849 126.710798 
L 85.646442 127.939904 
L 85.750394 127.928118 
L 85.819173 127.27452 
L 85.835379 128.999076 
L 85.905971 127.946492 
L 85.990635 129.180779 
L 86.041844 128.0693 
L 86.128075 128.333334 
L 86.215202 127.202761 
L 86.317377 127.687651 
L 86.386881 126.51469 
L 86.437793 128.468687 
L 86.794647 125.513977 
L 86.849263 125.982542 
L 86.883941 126.157551 
L 87.003824 125.808452 
L 87.04668 126.013198 
L 87.175658 123.406526 
L 87.245687 125.116914 
L 87.385099 123.651458 
L 87.433927 125.725682 
L 87.502682 124.99582 
L 87.698724 125.213784 
L 87.717657 124.474096 
L 87.781872 125.717314 
L 87.934171 124.354503 
L 88.077231 125.802593 
L 88.141091 125.149231 
L 88.517786 127.904158 
L 88.569049 128.218604 
L 88.658305 129.501956 
L 88.725868 128.13059 
L 88.778257 128.447062 
L 88.862267 129.539651 
L 88.91456 128.729371 
L 89.05351 128.360126 
L 89.086477 127.462163 
L 89.27403 128.953256 
L 89.449948 128.295242 
L 89.504677 128.333181 
L 89.634746 126.497041 
L 89.705327 127.433979 
L 89.7723 127.197087 
L 89.811329 127.237889 
L 90.068486 125.365569 
L 90.23901 126.968912 
L 90.324972 127.574838 
L 90.342486 127.174099 
L 90.754791 122.772792 
L 90.791247 124.52466 
L 90.874974 123.827503 
L 90.927838 122.810808 
L 91.132573 124.191376 
L 91.201377 124.702883 
L 91.275631 124.089996 
L 91.338378 125.218709 
L 91.476558 124.946038 
L 91.630356 126.348121 
L 91.769185 125.813606 
L 91.836734 125.946962 
L 92.094319 128.748233 
L 92.197533 127.502339 
L 92.490686 128.462009 
L 92.561487 129.039886 
L 92.834674 127.654876 
L 92.905951 127.688281 
L 92.981303 128.215645 
L 93.041787 127.947723 
L 93.162014 127.240128 
L 93.539242 129.734771 
L 94.113993 124.042518 
L 94.313413 123.81338 
L 94.468574 126.850479 
L 94.614671 125.311852 
L 94.881589 127.580582 
L 94.966427 127.694851 
L 95.10465 126.054443 
L 95.173151 127.131476 
L 95.241506 126.972721 
L 95.603014 124.327667 
L 95.670322 124.341117 
L 95.808563 124.95844 
L 95.877519 124.162577 
L 95.977477 124.416316 
L 96.237412 127.320385 
L 96.446094 125.871808 
L 96.741017 127.599681 
L 96.805635 127.388605 
L 96.873582 125.897167 
L 96.944768 126.026043 
L 97.1733 128.018613 
L 97.304668 127.618211 
L 97.441834 127.840733 
L 97.52868 126.361665 
L 97.581391 127.118785 
L 97.64968 129.034144 
L 97.73701 125.744552 
L 97.892426 126.893053 
L 97.94174 126.17093 
L 98.010226 126.613028 
L 98.07914 126.846861 
L 98.154024 125.652194 
L 98.233496 126.58351 
L 98.307617 125.655483 
L 98.478255 127.224748 
L 98.590746 123.962785 
L 98.667515 124.795 
L 98.787485 123.204017 
L 98.856267 123.632664 
L 98.992725 123.229072 
L 99.026821 124.334818 
L 99.088892 124.238588 
L 99.147599 124.551112 
L 99.353125 127.659318 
L 99.387595 126.736716 
L 99.476283 126.560289 
L 99.577998 128.227656 
L 99.807789 127.133231 
L 99.938607 125.13827 
L 100.006959 125.11006 
L 100.075519 124.126986 
L 100.574855 129.626054 
L 100.712514 128.859956 
L 100.799406 130.401415 
L 100.919211 129.426963 
L 101.056227 127.234892 
L 101.48789 123.245506 
L 101.710359 124.518605 
L 101.778097 124.455236 
L 101.84712 124.178493 
L 102.018528 124.87002 
L 102.242729 127.379613 
L 102.29399 125.925696 
L 102.346169 126.125571 
L 102.570339 128.937233 
L 102.792629 126.639028 
L 102.898746 125.420743 
L 102.929758 123.011529 
L 102.946829 124.682329 
L 103.03309 125.794656 
L 103.055961 127.565325 
L 103.204768 124.826356 
L 103.276601 125.039885 
L 103.617113 131.098632 
L 103.702231 130.611942 
L 103.7706 129.43351 
L 103.856665 129.728749 
L 103.925398 129.424925 
L 104.081446 129.930026 
L 104.339988 126.138066 
L 104.410251 126.173501 
L 104.511469 126.17006 
L 104.545432 125.18145 
L 104.700641 126.129561 
L 104.854687 124.765508 
L 105.078591 126.385258 
L 105.114778 125.966222 
L 105.267466 128.272754 
L 105.335954 127.84416 
L 105.474949 127.27496 
L 105.553058 128.003095 
L 105.615445 127.571812 
L 105.654374 127.600328 
L 105.708465 127.329659 
L 105.850784 130.335852 
L 105.970794 128.299155 
L 106.072903 130.325707 
L 106.124739 129.556633 
L 106.26284 128.478818 
L 106.351961 129.136404 
L 106.478634 126.528624 
L 106.554768 125.135614 
L 106.624337 125.29903 
L 106.709886 125.960412 
L 106.869141 124.584885 
L 106.902253 125.754639 
L 106.968636 124.491555 
L 107.123053 125.892837 
L 107.398833 124.047802 
L 107.558927 125.849079 
L 107.796864 124.298286 
L 107.911691 124.699149 
L 108.112105 126.152595 
L 108.146012 125.818239 
L 108.311666 122.713387 
L 108.537441 122.205464 
L 108.606092 122.782629 
L 108.674073 122.531079 
L 108.897575 123.35841 
L 108.949004 123.272328 
L 109.260214 125.200144 
L 109.34008 124.888783 
L 109.519382 124.011383 
L 109.604923 124.16658 
L 109.916552 129.261867 
L 109.95038 128.304323 
L 110.018887 128.542811 
L 110.105414 129.761936 
L 110.173164 128.598525 
L 110.227177 129.757785 
L 110.345534 129.724353 
L 110.586526 124.710832 
L 110.654835 126.988469 
L 110.727506 126.224082 
L 110.810952 125.341568 
L 110.878872 126.308192 
L 110.9479 125.818229 
L 111.02329 125.69039 
L 111.092732 126.248283 
L 111.222461 125.943541 
L 111.256525 126.076421 
L 111.308128 127.641139 
L 111.395429 126.046166 
L 111.448415 126.530203 
L 111.672566 128.378629 
L 111.723456 128.271144 
L 111.830443 128.449465 
L 111.946821 129.931535 
L 112.066673 129.858428 
L 112.170453 131.836748 
L 112.358565 128.879662 
L 112.427389 129.635368 
L 112.513312 128.305405 
L 112.598682 128.585758 
L 112.688687 129.275662 
L 112.855621 125.768655 
L 112.925338 126.733826 
L 112.996449 126.672176 
L 113.079702 126.873835 
L 113.161346 126.142089 
L 113.216985 126.896236 
L 113.371332 124.844718 
L 113.440552 125.037999 
L 113.52708 124.895912 
L 113.651807 127.395319 
L 113.817685 127.18855 
L 113.938347 128.652622 
L 114.028251 128.600122 
L 114.173686 131.634303 
L 114.266255 131.950225 
L 114.402436 129.381599 
L 114.437305 130.346743 
L 114.506058 129.745866 
L 114.592069 129.888655 
L 114.660472 130.334076 
L 114.728855 129.678164 
L 114.866415 126.64075 
L 114.921466 126.25335 
L 115.126285 127.08663 
L 115.211737 125.453011 
L 115.227203 125.823079 
L 115.34802 123.646439 
L 115.486147 124.94156 
L 115.711772 123.80557 
L 115.777914 123.907859 
L 115.848148 123.791167 
L 115.929813 124.105376 
L 115.997958 125.033438 
L 116.084268 124.958295 
L 116.121685 124.540935 
L 116.358803 128.014718 
L 116.48002 127.230011 
L 116.550096 128.334667 
L 116.564131 128.14019 
L 116.66675 128.010466 
L 116.927426 124.933691 
L 117.131385 125.395631 
L 117.285994 124.956639 
L 117.343392 125.651564 
L 117.407771 124.903231 
L 117.618276 126.779642 
L 117.857855 124.951299 
L 117.927605 126.109992 
L 118.044942 123.950372 
L 118.114515 124.89312 
L 118.199971 124.609833 
L 118.372766 126.245553 
L 118.440466 125.932274 
L 118.577925 126.260485 
L 118.646989 126.762407 
L 118.822806 131.31353 
L 119.043427 127.977893 
L 119.266389 130.424739 
L 119.56045 127.453514 
L 119.610981 128.297655 
L 119.75113 129.320534 
L 119.851075 129.383264 
L 120.006845 126.993642 
L 120.023225 127.847414 
L 120.041487 127.039431 
L 120.247696 125.447064 
L 120.367871 125.972751 
L 120.42212 125.237706 
L 120.472577 125.44229 
L 120.644835 127.661439 
L 120.689558 127.20029 
L 120.747063 127.082327 
L 120.918293 127.664411 
L 121.10666 130.300596 
L 121.31345 128.142024 
L 121.381876 127.960583 
L 121.467817 127.204466 
L 121.555954 127.715724 
L 121.605164 127.687695 
L 121.813438 125.164956 
L 121.880546 125.778631 
L 121.951996 125.479686 
L 122.172436 126.883798 
L 122.30975 126.102051 
L 122.481489 126.878847 
L 122.619476 127.617406 
L 122.693107 129.135024 
L 123.493362 124.730457 
L 123.511341 125.732994 
L 123.590375 124.485366 
L 123.682706 124.593473 
L 123.80335 125.849602 
L 123.873279 124.253059 
L 123.95756 125.200044 
L 124.154654 122.513352 
L 124.249835 122.447758 
L 124.397379 124.676023 
L 124.46687 123.719756 
L 124.5007 124.47894 
L 124.588531 126.140505 
L 124.672016 124.562982 
L 124.7417 124.959937 
L 124.877715 126.811248 
L 124.999894 125.834028 
L 125.154193 128.201012 
L 125.170788 127.530901 
L 125.224624 127.245922 
L 125.294108 127.667677 
L 125.433226 129.662732 
L 125.53265 128.329768 
L 125.640438 130.304319 
L 125.912032 125.924008 
L 126.033871 127.117874 
L 126.135996 127.034135 
L 126.221685 129.220549 
L 126.290759 128.156378 
L 126.427909 126.650518 
L 126.49685 126.676546 
L 126.63486 127.436925 
L 126.789639 126.937321 
L 126.899997 126.60006 
L 126.99566 126.761142 
L 127.150065 131.231047 
L 127.288005 131.070687 
L 127.376597 129.713308 
L 127.482287 130.106791 
L 127.529323 129.880632 
L 127.803006 124.158607 
L 127.874532 124.090587 
L 128.19908 126.185969 
L 128.268894 126.332173 
L 128.435295 125.265535 
L 128.663138 127.643199 
L 128.800927 125.87751 
L 128.885958 125.929577 
L 128.920661 126.530489 
L 128.998022 126.115296 
L 129.05842 126.020855 
L 129.200101 128.116925 
L 129.297416 127.711476 
L 129.333965 126.742842 
L 129.488196 129.075955 
L 129.557608 128.594601 
L 129.625783 127.637218 
L 129.764231 128.884919 
L 129.911006 126.916983 
L 130.067541 130.574901 
L 130.150332 129.710938 
L 130.288676 127.870486 
L 130.545261 130.367375 
L 130.615766 130.10517 
L 130.768677 125.758121 
L 130.958597 126.871962 
L 130.975921 126.831471 
L 131.04481 126.935555 
L 131.267666 125.291331 
L 131.47479 127.528518 
L 131.54691 127.418935 
L 131.645835 127.696557 
L 131.697802 128.701961 
L 131.766567 128.603679 
L 131.835771 128.074199 
L 131.92233 129.862306 
L 131.972286 128.866465 
L 132.315484 126.004147 
L 132.421393 125.756786 
L 132.641798 124.020211 
L 132.76397 124.900709 
L 132.832168 125.955758 
L 132.921672 125.915646 
L 133.1752 126.849919 
L 133.26155 126.748991 
L 133.314587 125.666902 
L 133.383106 125.685189 
L 133.467675 125.757692 
L 133.536697 125.517007 
L 133.604461 125.873032 
L 133.965471 123.249313 
L 134.033565 124.94476 
L 134.157414 125.155167 
L 134.256942 123.838316 
L 134.412829 125.464327 
L 134.461951 127.39508 
L 134.530726 126.473273 
L 134.600131 126.392761 
L 134.668184 126.994985 
L 134.740614 126.248041 
L 134.753595 128.46971 
L 134.822544 127.068937 
L 134.89193 127.073831 
L 134.960031 127.332991 
L 135.045946 127.274751 
L 135.422516 124.394517 
L 135.458563 124.50924 
L 135.595853 124.115196 
L 135.650093 125.235637 
L 135.699121 124.951073 
L 135.75059 123.935935 
L 135.954651 126.926948 
L 136.152854 128.946382 
L 136.443387 126.402804 
L 136.735411 123.775074 
L 136.856383 123.706694 
L 136.893006 122.907157 
L 136.993545 123.155029 
L 137.013045 123.125937 
L 137.097173 122.724268 
L 137.16487 123.379508 
L 137.233717 122.51026 
L 137.304511 123.62959 
L 137.373833 123.478018 
L 137.581523 125.135838 
L 137.857698 129.325371 
L 138.183204 127.210205 
L 138.216538 127.514155 
L 138.319815 128.063437 
L 138.355305 129.072116 
L 138.424769 128.134371 
L 138.647528 128.243933 
L 138.784443 128.820787 
L 138.921519 128.496863 
L 139.076295 126.083238 
L 139.145507 126.431411 
L 139.214589 126.074184 
L 139.283355 124.509808 
L 139.353664 125.30755 
L 139.489755 125.652403 
L 139.560683 126.526414 
L 139.64376 125.450592 
L 139.712004 126.509504 
L 139.850762 124.470984 
L 140.074715 127.980007 
L 140.212602 126.312946 
L 140.299961 125.702736 
L 140.351473 126.263044 
L 140.419589 125.771561 
L 140.557424 128.072161 
L 140.707995 127.747832 
L 140.78073 128.672142 
L 140.850231 128.449553 
L 140.989663 127.883598 
L 141.124084 129.710245 
L 141.193577 128.036948 
L 141.264132 128.652903 
L 141.486302 127.435463 
L 141.62131 128.82988 
L 141.695262 128.269204 
L 141.761122 128.356427 
L 141.832416 127.857431 
L 141.982894 128.982093 
L 142.206194 127.83567 
L 142.309 127.874487 
L 142.43504 128.968941 
L 142.541633 127.625897 
L 142.693078 126.12023 
L 142.855638 127.164808 
L 142.990248 126.322106 
L 143.040367 126.225434 
L 143.10649 126.382837 
L 143.189788 126.091303 
L 143.275926 124.82391 
L 143.33187 124.85874 
L 143.41373 124.504003 
L 143.774494 121.276313 
L 143.9633 121.570632 
L 144.119185 125.204673 
L 144.462927 128.862337 
L 144.547587 128.490503 
L 144.599621 129.467675 
L 144.822859 128.421812 
L 144.909543 128.500793 
L 145.045416 128.186656 
L 145.114069 127.521171 
L 145.327254 128.676957 
L 145.405783 128.301859 
L 145.474375 129.16111 
L 145.543422 128.447009 
L 145.7332 128.925676 
L 145.887153 127.371527 
L 146.02737 127.859722 
L 146.042103 126.569366 
L 146.110819 127.210874 
L 146.195822 127.372629 
L 146.249095 127.942225 
L 146.316014 127.721789 
L 146.385757 127.596668 
L 146.522987 128.406264 
L 146.639688 128.311526 
L 146.763059 126.55872 
L 146.9005 124.162309 
L 146.969536 124.908507 
L 147.037852 124.922757 
L 147.24466 123.837279 
L 147.405023 126.058765 
L 147.450854 127.633967 
L 147.537368 127.43341 
L 147.59434 128.029857 
L 147.674879 127.728215 
L 147.903142 125.396182 
L 148.040227 125.662561 
L 148.14421 125.435396 
L 148.160574 124.712734 
L 148.303491 126.355855 
L 148.47523 125.47778 
L 148.665116 128.461751 
L 149.075543 124.962393 
L 149.196869 127.279177 
L 149.231948 127.148477 
L 149.29962 126.263118 
L 149.45375 127.017299 
L 149.595261 127.664399 
L 149.661048 127.174446 
L 149.729777 128.091991 
L 149.819671 126.459341 
L 150.020454 127.74672 
L 150.087492 125.963529 
L 150.153599 125.980838 
L 150.239126 125.978905 
L 150.308041 126.115217 
L 150.517383 127.469607 
L 150.5668 126.364692 
L 150.651987 126.382238 
L 150.754567 126.579214 
L 150.874929 128.210292 
L 151.183669 125.701163 
L 151.357428 124.116503 
L 151.441967 124.772176 
L 151.51084 124.517931 
L 151.787798 126.075819 
L 151.888995 125.760281 
L 152.077603 127.911898 
L 152.148496 127.522072 
L 152.21551 128.161921 
L 152.352994 126.196359 
L 152.43657 127.287942 
L 152.545971 126.955347 
L 152.629031 128.61962 
L 152.648791 127.497798 
L 152.764718 128.364799 
L 152.938999 125.849632 
L 152.989481 127.134485 
L 153.057877 126.875816 
L 153.281154 124.94918 
L 153.351997 125.372491 
L 153.456935 125.188169 
L 153.574093 127.41119 
L 153.764372 126.467595 
L 153.779478 127.779402 
L 154.039105 128.655832 
L 154.10957 128.067108 
L 154.280288 123.08396 
L 154.484859 123.949778 
L 154.606692 123.29682 
L 154.776374 125.178504 
L 155.051393 128.77863 
L 155.263954 128.335639 
L 155.412299 128.784832 
L 155.773536 126.252928 
L 155.827676 127.131684 
L 156.049134 125.519329 
L 156.188004 125.689351 
L 156.255111 125.145932 
L 156.393826 127.382479 
L 156.756714 129.838129 
L 156.826317 129.572297 
L 156.970165 129.925071 
L 157.045645 129.057679 
L 157.122253 129.512051 
L 157.391081 127.781112 
L 157.511529 127.795155 
L 157.63129 128.635376 
L 157.684794 127.845366 
L 157.769104 127.948718 
L 157.890591 128.842497 
L 158.043906 129.201926 
L 158.18114 127.184027 
L 158.319398 125.939821 
L 158.457394 127.405878 
L 158.478993 126.197607 
L 158.570729 127.376693 
L 158.638802 127.013312 
L 159.073869 130.086489 
L 159.108279 128.911712 
L 159.193598 129.05087 
L 159.264047 127.985542 
L 159.351732 128.300432 
L 159.452038 129.058061 
L 159.590472 130.196974 
L 159.830425 127.107928 
L 160.037515 126.004756 
L 160.327674 122.23456 
L 160.455363 123.190538 
L 160.589297 123.804448 
L 160.656935 122.469109 
L 160.757057 123.155751 
L 160.897825 124.858012 
L 160.947261 124.793514 
L 161.098274 124.829377 
L 161.104036 124.40687 
L 161.17142 124.526085 
L 161.240081 124.46833 
L 161.402147 126.105471 
L 161.466775 126.290694 
L 161.549855 124.655322 
L 161.670391 124.714305 
L 161.72184 124.133139 
L 161.757893 124.311025 
L 161.962991 125.907326 
L 162.153917 123.926377 
L 162.376162 124.855704 
L 162.513347 124.767079 
L 162.651868 122.34021 
L 162.805199 123.74547 
L 162.909063 124.07042 
L 163.030431 122.188125 
L 163.205432 123.354214 
L 163.234912 123.140888 
L 163.442778 121.5392 
L 163.784878 125.193123 
L 163.939835 123.823699 
L 164.147963 126.37491 
L 164.162272 125.96081 
L 164.26564 125.869046 
L 164.695674 129.328735 
L 164.833329 130.403104 
L 164.870639 129.557404 
L 164.936503 129.565542 
L 165.004448 129.468567 
L 165.090394 130.315023 
L 165.210075 128.456701 
L 165.279102 128.416346 
L 165.355131 128.629073 
L 165.419537 128.488406 
L 165.49567 128.43308 
L 165.633932 128.78279 
L 165.646481 127.512422 
L 165.714421 128.608268 
L 165.786282 127.724065 
L 165.923893 130.02584 
L 166.03648 129.350008 
L 166.216542 129.126724 
L 166.387702 130.703803 
L 166.543569 130.223134 
L 166.562292 130.932119 
L 166.650594 130.474653 
L 166.702495 131.378465 
L 166.769676 130.802305 
L 166.836698 131.010505 
L 166.9835 130.163077 
L 167.084891 131.508701 
L 167.211811 129.741941 
L 167.430168 124.531534 
L 167.516803 126.120644 
L 167.555847 125.801974 
L 167.638548 126.19342 
L 167.771991 124.900569 
L 167.84064 125.080822 
L 167.913626 125.896938 
L 168.132583 129.860309 
L 168.202076 128.401071 
L 168.442249 131.413191 
L 168.496398 130.857705 
L 168.613339 131.220257 
L 168.769785 129.761036 
L 168.905511 130.436138 
L 169.112393 126.530672 
L 169.197822 126.762566 
L 169.266057 126.940264 
L 169.334775 129.533798 
L 169.406757 128.384691 
L 169.47201 129.000119 
L 169.545535 128.344499 
L 169.752962 130.13936 
L 170.042897 125.558106 
L 170.074955 126.092678 
L 170.111065 126.122009 
L 170.180869 125.40476 
L 170.250228 126.091128 
L 170.318877 125.685633 
L 170.472038 124.760736 
L 170.541612 125.450441 
L 170.610497 124.858751 
L 170.892785 126.736694 
L 171.040795 124.582169 
L 171.108479 124.622567 
L 171.176577 124.09022 
L 171.331166 127.23043 
L 171.386669 126.770315 
L 171.469309 126.672172 
L 171.561432 125.442285 
L 171.60588 125.807684 
L 172.037337 128.530936 
L 172.104454 127.669963 
L 172.24152 129.233993 
L 172.37943 128.778512 
L 172.481989 127.407146 
L 172.533529 128.591497 
L 172.589413 128.314169 
L 172.654842 127.500442 
L 172.809308 128.658084 
L 172.893536 128.322757 
L 173.0156 127.003671 
L 173.168807 127.5062 
L 173.24914 127.445716 
L 173.311901 126.944622 
L 173.392062 127.490545 
L 173.581163 125.746677 
L 173.805519 127.818981 
L 173.908973 127.400742 
L 173.960352 127.923353 
L 174.167001 126.562028 
L 174.272056 126.605852 
L 174.289448 126.876318 
L 174.459215 126.12345 
L 175.003321 129.106707 
L 175.165468 127.7179 
L 175.242353 128.605408 
L 175.30202 128.21252 
L 175.577808 129.338762 
L 175.713805 129.024319 
L 175.799455 128.129448 
L 176.003462 129.930482 
L 176.210189 128.76772 
L 176.312977 129.937499 
L 176.363944 128.90846 
L 176.484805 130.263122 
L 176.554551 130.22569 
L 176.591216 130.085001 
L 176.657115 128.582215 
L 176.81093 128.56615 
L 177.070735 125.556212 
L 177.154855 124.388752 
L 177.270947 125.102846 
L 177.296449 125.000831 
L 177.44016 124.089769 
L 177.504352 124.927602 
L 177.708506 124.162749 
L 177.723221 125.739369 
L 177.774778 125.52555 
L 178.138646 127.596527 
L 178.209689 127.405651 
L 178.281933 129.690616 
L 178.417588 129.368924 
L 178.709425 126.805861 
L 178.776752 126.741944 
L 178.845569 128.177247 
L 179.051012 125.702261 
L 179.120128 125.789119 
L 179.205694 128.381697 
L 179.327748 128.275837 
L 179.484794 130.916233 
L 179.56637 128.450716 
L 179.635175 128.629606 
L 179.773016 128.424449 
L 179.97959 126.149222 
L 180.030512 127.391103 
L 180.089438 127.364068 
L 180.245066 125.541412 
L 180.326874 126.434 
L 180.383633 125.673408 
L 180.412544 126.835482 
L 180.498857 126.209904 
L 180.662998 126.832509 
L 180.774083 125.918332 
L 180.859249 126.52536 
L 181.072652 129.301754 
L 181.156214 128.90094 
L 181.220878 129.950562 
L 181.271977 129.54251 
L 181.341983 129.752347 
L 181.616768 127.961687 
L 181.923074 131.458298 
L 182.183337 132.728073 
L 182.616572 126.334704 
L 182.759397 127.513245 
L 182.828968 126.620063 
L 182.904345 126.795803 
L 182.960342 126.592077 
L 183.231562 127.072454 
L 183.403638 125.609342 
L 183.490293 125.84934 
L 183.626966 127.361903 
L 183.678687 127.031822 
L 183.764312 126.973177 
L 183.884958 130.018884 
L 183.971044 129.274159 
L 184.092569 129.646855 
L 184.160343 129.224291 
L 184.229015 130.267463 
L 184.401149 128.968066 
L 184.488146 129.238477 
L 184.607826 126.0917 
L 184.674948 127.232323 
L 184.743746 127.332873 
L 184.8133 127.033413 
L 184.898671 125.923139 
L 185.104055 126.908153 
L 185.22682 126.953514 
L 185.311538 126.094622 
L 185.362531 126.685572 
L 185.447769 126.069376 
L 185.620017 127.428604 
L 185.879713 126.00213 
L 185.980659 127.223902 
L 186.049326 126.32736 
L 186.117687 126.963427 
L 186.206547 125.867112 
L 186.255838 126.703245 
L 186.375485 126.235539 
L 186.529493 126.997378 
L 186.615427 127.250669 
L 186.670486 128.633355 
L 186.798239 128.843746 
L 186.978126 130.482268 
L 187.168175 129.292641 
L 187.322776 129.788716 
L 187.581465 125.368205 
L 187.656507 124.735748 
L 187.753759 125.368128 
L 187.805164 124.134602 
L 187.88261 124.38298 
L 187.943757 124.331232 
L 188.011837 124.109581 
L 188.2887 126.50616 
L 188.371797 126.431276 
L 188.440805 126.095364 
L 188.509203 126.459164 
L 188.595168 125.388071 
L 188.646791 125.737345 
L 188.72105 126.178461 
L 188.80262 125.738821 
L 188.893909 126.109293 
L 188.95485 125.741784 
L 189.006689 126.055409 
L 189.160834 125.231826 
L 189.316217 128.846586 
L 189.419783 128.866312 
L 189.438665 128.6921 
L 189.504358 128.768416 
L 189.642269 129.114437 
L 189.764085 129.026691 
L 189.868314 130.356287 
L 190.0888 128.040814 
L 190.235479 127.326425 
L 190.297511 127.007853 
L 190.365729 128.260688 
L 190.451882 128.17594 
L 190.572109 126.380274 
L 190.65298 126.712725 
L 190.726208 126.444366 
L 190.88287 127.303641 
L 190.937378 127.043032 
L 191.123523 124.776773 
L 191.140502 124.919345 
L 191.208426 126.654528 
L 191.328757 126.684651 
L 191.569591 123.86221 
L 191.639853 123.371813 
L 191.707093 124.721374 
L 191.774489 124.632352 
L 191.864357 124.71606 
L 191.91205 124.928588 
L 192.069924 126.666447 
L 192.15329 126.924103 
L 192.204624 127.452772 
L 192.349121 130.629458 
L 192.44564 130.591406 
L 192.518276 130.685256 
L 192.702831 126.826874 
L 192.867143 127.276576 
L 193.063936 124.125593 
L 193.200554 124.707667 
L 193.406586 127.276438 
L 193.493101 126.30531 
L 193.561118 126.757376 
L 193.618207 126.213995 
L 193.699057 126.259514 
L 193.768028 126.392475 
L 193.836129 127.305553 
L 193.92508 126.607593 
L 194.060847 126.989988 
L 194.094138 126.870067 
L 194.130081 126.825718 
L 194.284464 128.593588 
L 194.369593 129.384363 
L 194.420437 129.327588 
L 194.507115 129.46199 
L 194.559015 129.051216 
L 194.832444 130.788966 
L 194.954216 130.474118 
L 194.986991 128.599215 
L 195.056176 129.382255 
L 195.117606 130.213847 
L 195.262257 128.164257 
L 195.34834 129.125683 
L 195.399519 128.696161 
L 195.536352 126.940291 
L 195.681862 129.09323 
L 195.760162 128.593312 
L 195.828373 127.321013 
L 195.948487 127.903057 
L 196.104487 126.378124 
L 196.175349 128.263478 
L 196.413977 126.393705 
L 196.67338 129.786289 
L 196.756848 130.24049 
L 197.031906 127.45378 
L 197.117683 127.255604 
L 197.294579 128.460621 
L 197.392507 128.257784 
L 197.46208 126.777011 
L 197.667864 128.703309 
L 197.810184 130.627323 
L 198.029574 128.03722 
L 198.183291 129.481151 
L 198.254121 128.51344 
L 198.390107 129.230661 
L 198.509246 128.890586 
L 198.530454 128.23113 
L 198.613287 128.680442 
L 198.683595 129.366815 
L 198.802816 127.615686 
L 198.887879 128.599608 
L 198.95701 128.320849 
L 199.096649 127.387498 
L 199.163722 128.575903 
L 199.300394 128.179862 
L 199.524519 126.089003 
L 199.697384 124.767701 
L 199.755551 125.18254 
L 199.799934 124.769994 
L 199.958127 123.609357 
L 200.112224 124.69553 
L 200.163404 124.611996 
L 200.316229 125.740487 
L 200.379358 126.563019 
L 200.45574 125.969239 
L 200.662251 127.578416 
L 200.740352 127.173441 
L 200.873549 127.730076 
L 201.02913 126.937456 
L 201.080993 128.241102 
L 201.173583 128.12417 
L 201.235293 128.655122 
L 201.303655 128.61365 
L 201.371438 128.809268 
L 201.491758 128.587554 
L 201.577477 129.563129 
L 201.663586 129.417179 
L 201.732347 128.954077 
L 201.785361 127.819584 
L 202.013442 129.815722 
L 202.082685 129.09481 
L 202.145334 129.211136 
L 202.232033 128.945711 
L 202.291517 127.951988 
L 202.560244 130.4022 
L 202.732426 127.100156 
L 202.783776 127.605934 
L 202.938472 126.601169 
L 202.956002 127.540029 
L 203.008554 126.835858 
L 203.213658 124.547385 
L 203.505972 126.768062 
L 203.646559 129.118994 
L 203.714669 129.082877 
L 203.937941 130.288047 
L 204.074965 129.044498 
L 204.143798 129.883257 
L 204.351342 126.462274 
L 204.527801 127.80082 
L 204.660594 126.33012 
L 204.729716 127.161833 
L 204.781606 126.86358 
L 204.960686 125.018229 
L 204.993875 125.751932 
L 205.130501 126.122603 
L 205.2686 124.235513 
L 205.336293 124.550272 
L 205.559749 122.886363 
L 205.628635 123.13302 
L 205.697332 123.413614 
L 205.81742 122.883571 
L 205.851332 121.950534 
L 206.057252 123.688576 
L 206.213302 122.955719 
L 206.263806 124.395672 
L 206.351398 124.161595 
L 206.419053 123.487873 
L 206.59127 124.321966 
L 206.693992 123.64383 
L 206.762066 123.601375 
L 207.072766 127.798786 
L 207.183566 127.751145 
L 207.226239 127.576012 
L 207.471876 130.370861 
L 207.810398 128.411306 
L 207.864881 128.679857 
L 207.983586 129.792083 
L 208.035976 129.371226 
L 208.141775 129.753482 
L 208.361671 126.969784 
L 208.398141 129.529494 
L 208.518289 129.631255 
L 208.541271 130.114201 
L 208.761767 127.544895 
L 208.826464 128.516652 
L 208.896718 128.481764 
L 208.964465 128.384485 
L 209.034455 129.033045 
L 209.139875 128.36216 
L 209.267305 125.949368 
L 209.464372 127.127136 
L 209.599145 125.22114 
L 209.683323 126.615727 
L 209.752137 126.353226 
L 209.823543 126.136935 
L 209.83752 127.497363 
L 209.907544 127.449426 
L 210.028563 128.111448 
L 210.095214 127.7702 
L 210.182899 126.427531 
L 210.253444 126.282416 
L 210.318929 127.737859 
L 210.404426 126.97018 
L 210.54259 128.231122 
L 210.645513 127.816876 
L 210.88613 130.766731 
L 211.024744 130.941972 
L 211.384771 127.372541 
L 211.488618 127.571752 
L 211.593779 125.761838 
L 211.694523 126.783665 
L 211.782751 125.823048 
L 211.814537 126.550355 
L 212.213718 123.694372 
L 212.23099 124.338918 
L 212.288482 125.078475 
L 212.319069 124.217372 
L 212.453754 123.786596 
L 212.814414 126.02188 
L 212.883596 127.797384 
L 212.952033 127.502884 
L 213.022531 127.967737 
L 213.096023 126.238669 
L 213.159223 126.534087 
L 213.312643 126.090334 
L 213.518568 127.972798 
L 213.727088 128.521152 
L 213.829259 130.542052 
L 214.042258 129.342141 
L 214.095738 128.076128 
L 214.170259 129.149425 
L 214.179821 128.600718 
L 214.421107 125.618254 
L 214.455358 126.331203 
L 214.523833 124.909996 
L 214.575885 126.08342 
L 214.646462 127.152369 
L 214.719546 126.428937 
L 214.798629 127.655353 
L 214.87596 127.062809 
L 215.28187 129.60288 
L 215.296839 129.300502 
L 215.365004 129.072515 
L 215.436188 129.556123 
L 215.505065 129.467389 
L 215.710915 129.976309 
L 215.846331 129.826141 
L 216.003192 126.988133 
L 216.140622 127.335517 
L 216.226468 126.746016 
L 216.283318 127.606077 
L 216.298125 127.273102 
L 216.417597 125.296709 
L 216.432545 126.15556 
L 216.54616 126.196853 
L 216.571679 125.440559 
L 216.744096 128.310274 
L 216.865358 126.543845 
L 217.602209 129.564556 
L 217.653835 129.060303 
L 217.825867 130.398052 
L 217.859658 129.893374 
L 217.913242 129.892106 
L 217.982106 130.266711 
L 218.066234 132.036703 
L 218.759536 125.502879 
L 218.770845 124.264001 
L 218.840651 125.096056 
L 218.925231 126.072451 
L 218.977253 125.197993 
L 219.286007 129.073602 
L 219.341348 128.823171 
L 219.406202 129.274441 
L 219.49304 129.255459 
L 219.669758 127.218958 
L 219.698849 128.633798 
L 219.784442 128.254438 
L 219.906994 126.096173 
L 220.196363 128.671759 
L 220.26593 128.358654 
L 220.351449 128.994934 
L 220.404097 128.828669 
L 220.470734 127.509171 
L 220.581171 128.628408 
L 220.685681 127.92853 
L 220.708927 126.828706 
L 220.766556 127.300357 
L 220.904123 125.858088 
L 220.974449 127.42222 
L 221.042993 127.167877 
L 221.112425 126.53037 
L 221.223496 127.878593 
L 221.25503 127.134151 
L 221.404498 127.530936 
L 221.472796 126.680936 
L 221.612046 127.735337 
L 221.681086 126.260207 
L 221.766433 127.136623 
L 221.834431 126.655748 
L 221.955149 126.605969 
L 222.132048 127.594238 
L 222.215495 127.578099 
L 222.45607 125.574631 
L 222.540108 126.616705 
L 222.608359 126.420427 
L 222.693775 126.391306 
L 222.769864 126.787281 
L 222.815438 125.127405 
L 222.886934 125.72093 
L 222.970799 125.946682 
L 223.038917 125.330014 
L 223.124833 125.824382 
L 223.243848 127.409639 
L 223.834131 132.648215 
L 224.193844 128.015769 
L 224.277357 129.106939 
L 224.312314 128.733927 
L 224.586642 123.421579 
L 224.723283 124.980298 
L 224.77521 124.436671 
L 224.958885 123.062732 
L 225.101975 124.926784 
L 225.307811 128.70045 
L 225.377286 127.872156 
L 225.447026 130.030312 
L 225.531097 129.865673 
L 225.617753 129.712463 
L 225.670237 131.094446 
L 225.72251 129.22196 
L 225.738256 130.236776 
L 225.806365 130.703539 
L 225.875393 130.421905 
L 226.035403 129.499791 
L 226.171138 130.091164 
L 226.186018 128.522645 
L 226.241305 129.181694 
L 226.293664 129.84769 
L 226.375271 127.532789 
L 226.444535 128.322201 
L 226.625861 127.146684 
L 226.744319 128.287224 
L 226.797273 127.703868 
L 226.865717 127.832447 
L 227.021221 126.635405 
L 227.088168 127.474081 
L 227.233128 127.018571 
L 227.30031 127.155808 
L 227.417784 125.973674 
L 227.500328 127.978122 
L 227.603726 127.971207 
L 227.776746 126.690269 
L 227.81118 126.643286 
L 227.863232 127.573139 
L 228.002233 126.447028 
L 228.120145 126.372269 
L 228.257598 123.717676 
L 228.360244 123.563236 
L 228.665914 125.712483 
L 228.790657 124.691055 
L 229.070104 126.929486 
L 229.220815 125.089677 
L 229.499665 129.143383 
L 229.650251 127.922202 
L 229.856846 130.882402 
L 229.924936 130.445147 
L 230.13542 129.20672 
L 230.219285 129.412327 
L 230.286303 129.480231 
L 230.492588 127.83196 
L 230.715989 126.253123 
L 230.784282 127.144904 
L 230.835407 127.077185 
L 231.076316 126.606119 
L 231.127641 126.782215 
L 231.196392 126.302872 
L 231.350713 126.90075 
L 231.625571 124.688563 
L 231.711632 124.418829 
L 231.762843 124.721682 
L 231.888086 124.659117 
L 231.987173 125.513951 
L 232.242828 126.843187 
L 232.261998 126.528714 
L 232.330688 126.864203 
L 232.415591 128.524418 
L 232.483559 127.916445 
L 232.553975 127.758521 
L 232.694405 128.880093 
L 232.934252 127.804281 
L 233.071933 128.510653 
L 233.123063 127.408101 
L 233.347853 129.710231 
L 233.432954 128.527718 
L 233.469747 129.483174 
L 233.554572 129.657753 
L 233.760139 128.42595 
L 233.967042 126.632778 
L 234.052493 126.72239 
L 234.24117 126.191547 
L 234.465148 128.267267 
L 234.604863 129.077485 
L 234.688076 128.269614 
L 234.756834 128.502795 
L 234.895607 129.46971 
L 234.964567 129.294428 
L 235.169329 127.765906 
L 235.270942 128.158403 
L 235.39615 129.016843 
L 235.51119 129.147638 
L 235.665573 125.423586 
L 235.733934 125.195435 
L 235.905627 127.893903 
L 235.957699 128.367885 
L 236.187368 126.951894 
L 236.387307 130.792089 
L 236.541018 130.151901 
L 236.609904 130.039606 
L 236.733008 128.067175 
L 236.95451 129.356005 
L 237.331743 126.281642 
L 237.418938 127.39259 
L 237.45191 126.847653 
L 237.550684 125.972716 
L 237.590723 126.189538 
L 237.663818 126.602834 
L 237.809066 124.393114 
L 237.88265 126.514203 
L 237.950444 126.009864 
L 238.025144 126.32447 
L 238.086087 126.232383 
L 238.172538 127.856821 
L 238.224338 127.304373 
L 238.395207 125.427346 
L 238.55079 129.438828 
L 238.587333 127.123291 
L 238.774247 128.709184 
L 238.80756 127.954653 
L 239.013951 129.658083 
L 239.157322 129.528787 
L 239.2225 128.571808 
L 239.288612 128.996751 
L 239.376562 129.210842 
L 239.650583 126.21977 
L 239.718797 125.870701 
L 239.803299 126.491427 
L 240.009622 124.79746 
L 240.078525 123.897215 
L 240.22225 126.000873 
L 240.285095 125.783817 
L 240.373371 125.657947 
L 240.508992 126.296752 
L 240.71395 127.23038 
L 240.92097 126.160398 
L 241.14298 127.443486 
L 241.211994 127.281135 
L 241.282268 127.032046 
L 241.504309 128.124152 
L 241.574515 127.531319 
L 241.643775 127.837014 
L 241.779504 129.306616 
L 241.918729 127.274683 
L 241.986757 128.224617 
L 242.212304 126.648111 
L 242.348063 128.947102 
L 242.436848 127.911919 
L 242.519948 128.080823 
L 242.624669 129.731902 
L 242.708315 129.121267 
L 242.795386 129.755126 
L 242.847286 131.339082 
L 242.949285 131.049779 
L 243.057011 129.08694 
L 243.139016 129.537369 
L 243.344913 128.14721 
L 243.413196 129.160872 
L 243.494004 128.809374 
L 243.500217 125.969764 
L 243.567986 128.206883 
L 243.843047 127.31128 
L 243.979799 127.104357 
L 244.065478 128.618224 
L 244.117971 128.297995 
L 244.272555 127.341218 
L 244.426997 128.294947 
L 244.548464 126.256482 
L 244.666972 126.615392 
L 244.907206 123.897553 
L 244.960095 124.944099 
L 244.993591 124.144493 
L 245.114817 123.630326 
L 245.285265 125.767352 
L 245.33717 125.344875 
L 245.47755 126.704854 
L 245.553097 126.042638 
L 245.613111 126.326489 
L 245.683453 126.493703 
L 245.766757 127.781523 
L 245.904503 127.567756 
L 245.96234 128.582257 
L 245.994815 127.369 
L 246.042863 127.738052 
L 246.164265 126.695209 
L 246.197556 126.881308 
L 246.272824 127.208727 
L 246.497168 125.254812 
L 246.678918 126.383845 
L 246.800125 125.976467 
L 246.818137 126.134426 
L 247.039476 124.81464 
L 247.109356 124.799625 
L 247.332184 123.896634 
L 247.469909 126.145089 
L 247.555933 126.443013 
L 247.675933 129.22974 
L 247.899079 132.083803 
L 248.020075 131.925267 
L 248.174063 128.876431 
L 248.192442 129.070083 
L 248.26021 129.544926 
L 248.465902 127.026801 
L 248.53473 127.191777 
L 248.614397 126.810806 
L 248.689077 125.345684 
L 248.707246 125.576805 
L 248.828864 129.041145 
L 248.8801 128.57942 
L 248.964521 126.843341 
L 249.033173 127.568948 
L 249.256983 126.065382 
L 249.308806 126.739561 
L 249.618177 123.431563 
L 249.669429 125.291485 
L 249.738206 124.322446 
L 249.97159 128.391165 
L 250.053279 127.708043 
L 250.307499 129.700175 
L 250.394029 128.498251 
L 250.496142 129.555126 
L 250.599128 127.650214 
L 250.756771 125.803551 
L 250.877502 124.67405 
L 250.944451 125.150639 
L 251.167638 123.567924 
L 251.3736 127.525773 
L 251.449727 127.677473 
L 251.512798 128.051676 
L 251.753234 125.245345 
L 251.872271 126.674759 
L 252.077893 124.925431 
L 252.147547 126.019062 
L 252.215276 125.356678 
L 252.299083 125.525559 
L 252.367046 125.417634 
L 252.573824 128.566588 
L 252.727383 127.062043 
L 253.002556 129.65291 
L 253.069881 131.354113 
L 253.138774 130.801412 
L 253.29293 130.015474 
L 253.361614 130.164782 
L 253.501667 131.025618 
L 253.77775 127.369086 
L 253.860868 127.38992 
L 253.997197 126.521862 
L 254.067779 127.385824 
L 254.134818 127.066514 
L 254.274816 125.255485 
L 254.426829 125.521021 
L 254.496145 125.966146 
L 254.704298 124.97737 
L 254.777849 125.003008 
L 254.87988 124.888222 
L 255.062704 127.061669 
L 255.131448 126.104029 
L 255.200355 126.516483 
L 255.440813 128.241317 
L 255.492787 127.850662 
L 255.561456 127.996777 
L 255.665948 128.467752 
L 255.770817 126.333876 
L 255.853042 127.031263 
L 256.094075 124.205345 
L 256.14508 124.927378 
L 256.231977 124.908798 
L 256.351491 126.698757 
L 256.472913 127.017317 
L 256.643967 126.727849 
L 256.792533 128.907175 
L 256.832881 128.799746 
L 256.927294 128.950008 
L 257.031064 127.943773 
L 257.064599 129.199146 
L 257.150892 129.086222 
L 257.408384 131.508841 
L 257.476746 132.141006 
L 257.769677 127.705732 
L 257.837768 128.602362 
L 257.923338 128.373954 
L 258.06171 127.256376 
L 258.198092 125.997238 
L 258.369609 127.458541 
L 258.507437 128.821356 
L 258.558971 127.655367 
L 258.696916 128.533638 
L 258.765678 127.982199 
L 258.835312 128.395459 
L 259.040326 128.017293 
L 259.194872 125.928561 
L 259.264487 126.997533 
L 259.468954 123.809816 
L 259.545077 124.632864 
L 259.615086 124.232147 
L 259.718669 125.201074 
L 259.754605 124.552418 
L 259.825228 125.015137 
L 259.895332 124.818595 
L 259.975489 123.567627 
L 260.182208 125.343368 
L 260.286696 124.904085 
L 260.357782 125.164352 
L 260.406186 124.311458 
L 260.457481 124.605597 
L 260.787675 128.12597 
L 260.818719 127.415812 
L 260.887129 129.047802 
L 261.042349 128.57862 
L 261.18081 131.401704 
L 261.286317 130.916005 
L 261.404206 129.887766 
L 261.462424 127.811995 
L 261.525903 129.009034 
L 261.593678 127.838548 
L 261.714396 128.530838 
L 261.91442 126.877098 
L 262.229996 128.67731 
L 262.247114 128.338659 
L 262.52349 131.187818 
L 262.593143 130.666077 
L 262.677823 130.774124 
L 262.875704 130.334163 
L 263.124562 128.509936 
L 263.176772 129.003652 
L 263.316829 126.95472 
L 263.383105 127.258845 
L 263.68579 130.182799 
L 263.88582 128.929636 
L 263.953669 129.001044 
L 264.023674 129.243686 
L 264.17573 127.562378 
L 264.295925 126.970482 
L 264.369653 125.948129 
L 264.519307 126.26879 
L 264.60614 126.949932 
L 264.743043 126.391408 
L 264.796192 127.345333 
L 264.917543 127.041784 
L 265.224334 129.027052 
L 265.297135 129.062795 
L 265.37904 128.834826 
L 265.588313 129.86532 
L 265.671664 129.742675 
L 265.774442 130.039371 
L 265.860422 127.836398 
L 265.932797 128.7422 
L 265.999353 127.925414 
L 266.083958 129.714541 
L 266.242299 127.450913 
L 266.291718 127.514909 
L 266.445966 125.086215 
L 266.497049 125.660511 
L 266.600248 126.010379 
L 266.668652 124.535916 
L 266.723745 125.132306 
L 266.807551 125.253412 
L 266.88035 126.799496 
L 267.063986 124.99917 
L 267.235293 127.453758 
L 267.529841 129.007176 
L 267.618818 127.254198 
L 267.699888 127.709087 
L 267.802444 127.427897 
L 267.853679 128.383837 
L 267.923371 127.257674 
L 268.016623 127.522387 
L 268.066027 128.067022 
L 268.133703 126.915906 
L 268.490914 129.65036 
L 268.576137 127.872552 
L 268.708646 128.333398 
L 268.716196 128.794934 
L 268.782491 127.620061 
L 268.850896 128.180076 
L 268.959934 128.166731 
L 269.057666 127.171322 
L 269.125902 127.163809 
L 269.417844 124.182587 
L 269.487007 124.662387 
L 269.555509 125.485386 
L 269.627041 124.541811 
L 269.850534 127.603208 
L 270.041033 126.610242 
L 270.053905 126.708364 
L 270.208858 130.035053 
L 270.294868 130.060551 
L 270.34575 130.326477 
L 270.431759 129.4186 
L 270.55447 125.980349 
L 270.688948 126.415528 
L 270.77535 128.5001 
L 271.144597 123.470311 
L 271.228142 123.593211 
L 271.332257 122.532381 
L 271.469385 120.370857 
L 271.605438 120.944848 
L 271.829976 124.539139 
L 271.883161 123.971202 
L 272.162518 129.325782 
L 272.414607 126.555833 
L 272.56899 128.210447 
L 272.678431 127.680035 
L 272.815023 125.121243 
L 273.003615 126.905314 
L 273.106882 128.738944 
L 273.253626 128.718587 
L 273.313137 128.737095 
L 273.479693 131.350317 
L 273.711021 130.421972 
L 273.847191 128.059346 
L 273.847322 124.254288 
L 273.905216 126.676696 
L 273.967652 126.805548 
L 274.053385 126.646853 
L 274.122471 126.880198 
L 274.329109 124.984414 
L 274.440101 124.54304 
L 274.467689 126.082297 
L 274.538238 126.04362 
L 274.810274 125.850766 
L 274.87978 124.853657 
L 274.915758 125.63664 
L 274.989057 125.445904 
L 275.034139 125.605967 
L 275.119261 125.904532 
L 275.251545 127.01693 
L 275.445593 126.527681 
L 275.532676 127.718781 
L 275.600737 127.25297 
L 275.669037 127.272601 
L 275.807764 126.772701 
L 275.960475 124.832803 
L 276.039178 125.562692 
L 276.098922 125.267766 
L 276.264675 124.299993 
L 276.37864 122.759096 
L 276.460299 122.911598 
L 276.567891 124.024024 
L 276.632039 123.765775 
L 276.806196 123.079094 
L 276.940292 123.644644 
L 277.060983 123.495409 
L 277.232324 121.558149 
L 277.421383 123.620407 
L 277.438886 123.144256 
L 277.510034 123.573319 
L 277.684641 123.802311 
L 277.93797 127.464687 
L 278.109764 126.04632 
L 278.401561 128.137675 
L 278.663214 126.170199 
L 278.788766 128.518529 
L 278.882011 128.758971 
L 278.933997 128.069206 
L 279.036623 128.090864 
L 279.294959 129.273314 
L 279.363254 130.859081 
L 279.431449 130.058473 
L 279.586936 131.007411 
L 279.646624 131.217733 
L 279.792932 129.818825 
L 279.930154 130.619364 
L 280.345208 123.891258 
L 280.425592 124.027333 
L 280.583358 125.740222 
L 280.695598 125.100657 
L 280.858561 127.998818 
L 280.94433 128.418724 
L 281.064924 131.201199 
L 281.168545 130.963668 
L 281.340245 129.229541 
L 281.426571 129.812942 
L 281.529338 129.665332 
L 281.599517 130.090958 
L 281.635874 129.935768 
L 281.855699 128.132943 
L 281.943468 128.150489 
L 282.009899 127.836434 
L 282.064622 128.112246 
L 282.130616 128.142156 
L 282.337312 125.7282 
L 282.439894 126.997562 
L 282.491162 125.856144 
L 282.578791 126.902318 
L 282.628467 126.617815 
L 282.714721 126.61289 
L 282.768457 127.417941 
L 282.851708 126.4562 
L 282.925118 127.167857 
L 283.025332 127.024123 
L 283.092276 127.793776 
L 283.160969 126.584021 
L 283.229978 127.019836 
L 283.281476 126.620697 
L 283.350105 127.080556 
L 283.417333 126.569276 
L 283.556988 127.892118 
L 283.624991 128.789289 
L 283.750921 128.571736 
L 283.83382 127.784564 
L 283.985966 128.901603 
L 284.201114 127.149041 
L 284.329339 125.874634 
L 284.41479 126.394784 
L 284.501661 127.117098 
L 284.55272 129.296726 
L 284.638201 128.318321 
L 284.7107 127.553353 
L 284.75988 127.790836 
L 284.827444 127.729125 
L 285.085711 125.918399 
L 285.274791 123.801041 
L 285.325959 123.919444 
L 285.729022 126.908708 
L 285.832365 128.869581 
L 285.973613 128.545681 
L 286.195915 129.701012 
L 286.283164 129.279396 
L 286.32357 128.240467 
L 286.539899 130.286546 
L 286.609879 130.31341 
L 286.816486 129.52914 
L 286.884354 129.864347 
L 286.969656 131.132954 
L 287.023225 130.980406 
L 287.313178 128.536955 
L 287.382031 128.960537 
L 287.60445 127.315704 
L 287.675389 127.248851 
L 287.742649 127.338817 
L 287.813821 127.218774 
L 287.953563 125.123949 
L 288.036088 125.698417 
L 288.104468 125.345476 
L 288.172487 126.257607 
L 288.241014 125.063764 
L 288.311 125.441527 
L 288.396085 124.344199 
L 288.586915 126.437521 
L 288.671317 126.872492 
L 288.743708 125.479864 
L 288.904024 125.833409 
L 288.912605 125.73604 
L 288.947283 126.205708 
L 289.103123 125.825725 
L 289.446466 128.176826 
L 289.51543 127.30467 
L 289.583688 127.680528 
L 289.653795 127.546727 
L 289.727811 127.109541 
L 289.864857 127.80454 
L 290.013737 126.865073 
L 290.082667 127.379561 
L 290.099766 128.42057 
L 290.15219 126.997461 
L 290.303488 129.063588 
L 290.444342 130.852481 
L 290.513007 130.173736 
L 290.599046 130.123387 
L 290.718727 129.572161 
L 290.994549 129.490877 
L 291.080081 129.272756 
L 291.199665 128.549253 
L 291.460852 132.260926 
L 291.561255 131.392091 
L 291.646378 131.932169 
L 291.732009 129.555317 
L 291.869262 130.590764 
L 291.923773 129.706581 
L 292.009688 130.048111 
L 292.145462 127.33989 
L 292.231645 127.737574 
L 292.348972 127.641099 
L 292.420492 127.34323 
L 292.487242 125.499467 
L 292.573757 125.656394 
L 292.642733 126.31945 
L 292.712147 124.915026 
L 292.830599 125.087982 
L 292.865613 126.035307 
L 292.950735 125.957034 
L 293.005832 126.268341 
L 293.05483 127.272555 
L 293.168504 126.97624 
L 293.209179 127.519055 
L 293.382067 125.993372 
L 293.451501 126.337486 
L 293.587975 126.432712 
L 293.693414 126.804432 
L 293.827206 125.969788 
L 293.999597 128.151809 
L 294.072143 128.998447 
L 294.137227 128.882011 
L 294.205836 128.969397 
L 294.312163 127.76801 
L 294.483888 129.295932 
L 294.642065 127.625517 
L 294.776505 128.455657 
L 294.876757 127.943517 
L 295.030015 129.428612 
L 295.069792 128.644617 
L 295.142316 129.577636 
L 295.202454 128.624652 
L 295.305124 129.196941 
L 295.339193 130.120918 
L 295.408891 129.315142 
L 295.564076 127.824959 
L 295.63331 129.338303 
L 295.7354 127.032832 
L 295.786323 128.043619 
L 295.975669 125.747029 
L 296.183376 127.622507 
L 296.269288 126.512069 
L 296.338486 126.877137 
L 296.404142 127.368365 
L 296.476154 126.178453 
L 296.542089 126.198159 
L 296.627377 126.351238 
L 296.683947 127.474717 
L 296.765318 126.729254 
L 296.834366 126.815624 
L 296.922549 126.709823 
L 297.143923 128.188878 
L 297.280963 127.108615 
L 297.561685 125.130332 
L 297.702946 125.338146 
L 297.827138 123.165371 
L 297.95337 123.460969 
L 297.969679 125.895261 
L 298.056032 124.907841 
L 298.109519 125.730287 
L 298.192332 125.502265 
L 298.364274 125.187412 
L 298.608768 127.407503 
L 298.707937 126.9396 
L 298.965701 128.58469 
L 299.412094 124.800552 
L 299.464178 125.67191 
L 299.533174 125.260206 
L 299.756856 123.675182 
L 299.876851 123.809794 
L 300.031332 124.984785 
L 300.100763 126.417161 
L 300.239042 124.998038 
L 300.324648 126.665579 
L 300.376654 126.135428 
L 300.531152 126.671694 
L 300.873426 122.329946 
L 300.979188 124.391198 
L 301.030648 123.68854 
L 301.169385 124.490435 
L 301.240402 124.373425 
L 301.38044 125.819482 
L 301.445861 127.366743 
L 301.531712 127.118623 
L 301.682998 125.62558 
L 301.78958 125.256761 
L 301.878271 125.50996 
L 301.911563 125.23719 
L 302.01461 123.569513 
L 302.115189 124.139718 
L 302.168756 122.581213 
L 302.378149 124.982432 
L 302.460205 125.895089 
L 302.563864 124.394913 
L 302.610373 124.88205 
L 302.723725 126.224523 
L 302.803253 125.439821 
L 302.87194 125.82651 
L 302.947175 126.075965 
L 303.147574 123.314788 
L 303.232848 122.889186 
L 303.379119 123.736656 
L 303.45252 123.97503 
L 303.464769 123.949384 
L 303.726902 126.507676 
L 303.808548 126.456369 
L 303.964843 127.759231 
L 304.017933 126.478584 
L 304.113311 126.700763 
L 304.359628 123.519953 
L 304.582758 125.191598 
L 304.651167 126.094315 
L 304.789169 125.143332 
L 304.857276 125.530579 
L 304.961324 125.159662 
L 305.012277 126.69343 
L 305.067702 126.476734 
L 305.217847 124.547971 
L 305.28636 124.961411 
L 305.39627 124.361783 
L 305.52874 126.648304 
L 305.717669 124.591032 
L 305.820781 124.847599 
L 305.882756 126.81667 
L 305.939721 126.792844 
L 306.009725 125.687557 
L 306.082177 127.169557 
L 306.302348 125.670028 
L 306.372022 125.174457 
L 306.49143 125.403018 
L 306.611937 125.888584 
L 306.645673 125.010167 
L 306.701952 126.087058 
L 306.749244 125.871902 
L 306.783285 124.621734 
L 306.877653 125.802094 
L 306.924264 125.265965 
L 307.059904 125.694873 
L 307.180706 126.788913 
L 307.272023 126.518699 
L 307.404243 126.67924 
L 307.438716 126.085727 
L 307.611295 127.06143 
L 307.78196 124.980612 
L 307.853328 125.79063 
L 308.023104 124.920034 
L 308.074469 126.367427 
L 308.144902 124.741592 
L 308.194286 124.938932 
L 308.430586 127.854256 
L 308.509257 127.269391 
L 308.575628 128.057166 
L 308.917712 125.629644 
L 309.106659 122.559076 
L 309.123125 123.18126 
" clip-path="url(#pa811a7475a)" style="fill: none; stroke: #ff0000; stroke-opacity: 0.5; stroke-width: 3; stroke-linecap: square"/>
   </g>
   <g id="patch_3">
    <path d="M 30.123125 139.32 
L 30.123125 0.72 
" style="fill: none; stroke: #000000; stroke-width: 0.8; stroke-linejoin: miter; stroke-linecap: square"/>
   </g>
   <g id="patch_4">
    <path d="M 309.123125 139.32 
L 309.123125 0.72 
" style="fill: none; stroke: #000000; stroke-width: 0.8; stroke-linejoin: miter; stroke-linecap: square"/>
   </g>
   <g id="patch_5">
    <path d="M 30.123125 139.32 
L 309.123125 139.32 
" style="fill: none; stroke: #000000; stroke-width: 0.8; stroke-linejoin: miter; stroke-linecap: square"/>
   </g>
   <g id="patch_6">
    <path d="M 30.123125 0.72 
L 309.123125 0.72 
" style="fill: none; stroke: #000000; stroke-width: 0.8; stroke-linejoin: miter; stroke-linecap: square"/>
   </g>
   <g id="legend_1">
    <g id="patch_7">
     <path d="M 228.354375 86.198125 
L 302.123125 86.198125 
Q 304.123125 86.198125 304.123125 84.198125 
L 304.123125 55.841875 
Q 304.123125 53.841875 302.123125 53.841875 
L 228.354375 53.841875 
Q 226.354375 53.841875 226.354375 55.841875 
L 226.354375 84.198125 
Q 226.354375 86.198125 228.354375 86.198125 
z
" style="fill: #ffffff; opacity: 0.8; stroke: #cccccc; stroke-linejoin: miter"/>
    </g>
    <g id="line2d_25">
     <path d="M 230.354375 61.940312 
L 240.354375 61.940312 
L 250.354375 61.940312 
" style="fill: none; stroke: #0000ff; stroke-opacity: 0.5; stroke-width: 3; stroke-linecap: square"/>
    </g>
    <g id="text_14">
     <!-- RNEA -->
     <g transform="translate(258.354375 65.440312) scale(0.1 -0.1)">
      <defs>
       <path id="DejaVuSans-52" d="M 2841 2188 
Q 3044 2119 3236 1894 
Q 3428 1669 3622 1275 
L 4263 0 
L 3584 0 
L 2988 1197 
Q 2756 1666 2539 1819 
Q 2322 1972 1947 1972 
L 1259 1972 
L 1259 0 
L 628 0 
L 628 4666 
L 2053 4666 
Q 2853 4666 3247 4331 
Q 3641 3997 3641 3322 
Q 3641 2881 3436 2590 
Q 3231 2300 2841 2188 
z
M 1259 4147 
L 1259 2491 
L 2053 2491 
Q 2509 2491 2742 2702 
Q 2975 2913 2975 3322 
Q 2975 3731 2742 3939 
Q 2509 4147 2053 4147 
L 1259 4147 
z
" transform="scale(0.015625)"/>
       <path id="DejaVuSans-45" d="M 628 4666 
L 3578 4666 
L 3578 4134 
L 1259 4134 
L 1259 2753 
L 3481 2753 
L 3481 2222 
L 1259 2222 
L 1259 531 
L 3634 531 
L 3634 0 
L 628 0 
L 628 4666 
z
" transform="scale(0.015625)"/>
       <path id="DejaVuSans-41" d="M 2188 4044 
L 1331 1722 
L 3047 1722 
L 2188 4044 
z
M 1831 4666 
L 2547 4666 
L 4325 0 
L 3669 0 
L 3244 1197 
L 1141 1197 
L 716 0 
L 50 0 
L 1831 4666 
z
" transform="scale(0.015625)"/>
      </defs>
      <use xlink:href="#DejaVuSans-52"/>
      <use xlink:href="#DejaVuSans-4e" x="69.482422"/>
      <use xlink:href="#DejaVuSans-45" x="144.287109"/>
      <use xlink:href="#DejaVuSans-41" x="207.470703"/>
     </g>
    </g>
    <g id="line2d_26">
     <path d="M 230.354375 76.618437 
L 240.354375 76.618437 
L 250.354375 76.618437 
" style="fill: none; stroke: #ff0000; stroke-opacity: 0.5; stroke-width: 3; stroke-linecap: square"/>
    </g>
    <g id="text_15">
     <!-- BURNEA -->
     <g transform="translate(258.354375 80.118437) scale(0.1 -0.1)">
      <defs>
       <path id="DejaVuSans-42" d="M 1259 2228 
L 1259 519 
L 2272 519 
Q 2781 519 3026 730 
Q 3272 941 3272 1375 
Q 3272 1813 3026 2020 
Q 2781 2228 2272 2228 
L 1259 2228 
z
M 1259 4147 
L 1259 2741 
L 2194 2741 
Q 2656 2741 2882 2914 
Q 3109 3088 3109 3444 
Q 3109 3797 2882 3972 
Q 2656 4147 2194 4147 
L 1259 4147 
z
M 628 4666 
L 2241 4666 
Q 2963 4666 3353 4366 
Q 3744 4066 3744 3513 
Q 3744 3084 3544 2831 
Q 3344 2578 2956 2516 
Q 3422 2416 3680 2098 
Q 3938 1781 3938 1306 
Q 3938 681 3513 340 
Q 3088 0 2303 0 
L 628 0 
L 628 4666 
z
" transform="scale(0.015625)"/>
       <path id="DejaVuSans-55" d="M 556 4666 
L 1191 4666 
L 1191 1831 
Q 1191 1081 1462 751 
Q 1734 422 2344 422 
Q 2950 422 3222 751 
Q 3494 1081 3494 1831 
L 3494 4666 
L 4128 4666 
L 4128 1753 
Q 4128 841 3676 375 
Q 3225 -91 2344 -91 
Q 1459 -91 1007 375 
Q 556 841 556 1753 
L 556 4666 
z
" transform="scale(0.015625)"/>
      </defs>
      <use xlink:href="#DejaVuSans-42"/>
      <use xlink:href="#DejaVuSans-55" x="68.603516"/>
      <use xlink:href="#DejaVuSans-52" x="141.796875"/>
      <use xlink:href="#DejaVuSans-4e" x="211.279297"/>
      <use xlink:href="#DejaVuSans-45" x="286.083984"/>
      <use xlink:href="#DejaVuSans-41" x="349.267578"/>
     </g>
    </g>
   </g>
  </g>
 </g>
 <defs>
  <clipPath id="pa811a7475a">
   <rect x="30.123125" y="0.72" width="279" height="138.6"/>
  </clipPath>
 </defs>
</svg>
