<?xml version="1.0" encoding="utf-8" standalone="no"?>
<!DOCTYPE svg PUBLIC "-//W3C//DTD SVG 1.1//EN"
  "http://www.w3.org/Graphics/SVG/1.1/DTD/svg11.dtd">
<svg xmlns:xlink="http://www.w3.org/1999/xlink" width="303.480625pt" height="166.39625pt" viewBox="0 0 303.480625 166.39625" xmlns="http://www.w3.org/2000/svg" version="1.1">
 <metadata>
  <rdf:RDF xmlns:dc="http://purl.org/dc/elements/1.1/" xmlns:cc="http://creativecommons.org/ns#" xmlns:rdf="http://www.w3.org/1999/02/22-rdf-syntax-ns#">
   <cc:Work>
    <dc:type rdf:resource="http://purl.org/dc/dcmitype/StillImage"/>
    <dc:date>2023-09-07T03:31:04.911811</dc:date>
    <dc:format>image/svg+xml</dc:format>
    <dc:creator>
     <cc:Agent>
      <dc:title>Matplotlib v3.7.2, https://matplotlib.org/</dc:title>
     </cc:Agent>
    </dc:creator>
   </cc:Work>
  </rdf:RDF>
 </metadata>
 <defs>
  <style type="text/css">*{stroke-linejoin: round; stroke-linecap: butt}</style>
 </defs>
 <g id="figure_1">
  <g id="patch_1">
   <path d="M 0 166.39625 
L 303.480625 166.39625 
L 303.480625 0 
L 0 0 
L 0 166.39625 
z
" style="fill: none"/>
  </g>
  <g id="axes_1">
   <g id="patch_2">
    <path d="M 23.760625 139.32 
L 302.760625 139.32 
L 302.760625 0.72 
L 23.760625 0.72 
L 23.760625 139.32 
z
" style="fill: none"/>
   </g>
   <g id="matplotlib.axis_1">
    <g id="xtick_1">
     <g id="line2d_1">
      <path d="M 23.760625 139.32 
L 23.760625 0.72 
" clip-path="url(#pe7d49178da)" style="fill: none; stroke-dasharray: 0.8,1.32; stroke-dashoffset: 0; stroke: #000000; stroke-opacity: 0.5; stroke-width: 0.8"/>
     </g>
     <g id="line2d_2">
      <defs>
       <path id="m8e1ab2733e" d="M 0 0 
L 0 3.5 
" style="stroke: #000000; stroke-width: 0.8"/>
      </defs>
      <g>
       <use xlink:href="#m8e1ab2733e" x="23.760625" y="139.32" style="stroke: #000000; stroke-width: 0.8"/>
      </g>
     </g>
     <g id="text_1">
      <!-- 0 -->
      <g transform="translate(20.579375 153.918437) scale(0.1 -0.1)">
       <defs>
        <path id="DejaVuSans-30" d="M 2034 4250 
Q 1547 4250 1301 3770 
Q 1056 3291 1056 2328 
Q 1056 1369 1301 889 
Q 1547 409 2034 409 
Q 2525 409 2770 889 
Q 3016 1369 3016 2328 
Q 3016 3291 2770 3770 
Q 2525 4250 2034 4250 
z
M 2034 4750 
Q 2819 4750 3233 4129 
Q 3647 3509 3647 2328 
Q 3647 1150 3233 529 
Q 2819 -91 2034 -91 
Q 1250 -91 836 529 
Q 422 1150 422 2328 
Q 422 3509 836 4129 
Q 1250 4750 2034 4750 
z
" transform="scale(0.015625)"/>
       </defs>
       <use xlink:href="#DejaVuSans-30"/>
      </g>
     </g>
    </g>
    <g id="xtick_2">
     <g id="line2d_3">
      <path d="M 66.375526 139.32 
L 66.375526 0.72 
" clip-path="url(#pe7d49178da)" style="fill: none; stroke-dasharray: 0.8,1.32; stroke-dashoffset: 0; stroke: #000000; stroke-opacity: 0.5; stroke-width: 0.8"/>
     </g>
     <g id="line2d_4">
      <g>
       <use xlink:href="#m8e1ab2733e" x="66.375526" y="139.32" style="stroke: #000000; stroke-width: 0.8"/>
      </g>
     </g>
     <g id="text_2">
      <!-- 5 -->
      <g transform="translate(63.194276 153.918437) scale(0.1 -0.1)">
       <defs>
        <path id="DejaVuSans-35" d="M 691 4666 
L 3169 4666 
L 3169 4134 
L 1269 4134 
L 1269 2991 
Q 1406 3038 1543 3061 
Q 1681 3084 1819 3084 
Q 2600 3084 3056 2656 
Q 3513 2228 3513 1497 
Q 3513 744 3044 326 
Q 2575 -91 1722 -91 
Q 1428 -91 1123 -41 
Q 819 9 494 109 
L 494 744 
Q 775 591 1075 516 
Q 1375 441 1709 441 
Q 2250 441 2565 725 
Q 2881 1009 2881 1497 
Q 2881 1984 2565 2268 
Q 2250 2553 1709 2553 
Q 1456 2553 1204 2497 
Q 953 2441 691 2322 
L 691 4666 
z
" transform="scale(0.015625)"/>
       </defs>
       <use xlink:href="#DejaVuSans-35"/>
      </g>
     </g>
    </g>
    <g id="xtick_3">
     <g id="line2d_5">
      <path d="M 108.990426 139.32 
L 108.990426 0.72 
" clip-path="url(#pe7d49178da)" style="fill: none; stroke-dasharray: 0.8,1.32; stroke-dashoffset: 0; stroke: #000000; stroke-opacity: 0.5; stroke-width: 0.8"/>
     </g>
     <g id="line2d_6">
      <g>
       <use xlink:href="#m8e1ab2733e" x="108.990426" y="139.32" style="stroke: #000000; stroke-width: 0.8"/>
      </g>
     </g>
     <g id="text_3">
      <!-- 10 -->
      <g transform="translate(102.627926 153.918437) scale(0.1 -0.1)">
       <defs>
        <path id="DejaVuSans-31" d="M 794 531 
L 1825 531 
L 1825 4091 
L 703 3866 
L 703 4441 
L 1819 4666 
L 2450 4666 
L 2450 531 
L 3481 531 
L 3481 0 
L 794 0 
L 794 531 
z
" transform="scale(0.015625)"/>
       </defs>
       <use xlink:href="#DejaVuSans-31"/>
       <use xlink:href="#DejaVuSans-30" x="63.623047"/>
      </g>
     </g>
    </g>
    <g id="xtick_4">
     <g id="line2d_7">
      <path d="M 151.605327 139.32 
L 151.605327 0.72 
" clip-path="url(#pe7d49178da)" style="fill: none; stroke-dasharray: 0.8,1.32; stroke-dashoffset: 0; stroke: #000000; stroke-opacity: 0.5; stroke-width: 0.8"/>
     </g>
     <g id="line2d_8">
      <g>
       <use xlink:href="#m8e1ab2733e" x="151.605327" y="139.32" style="stroke: #000000; stroke-width: 0.8"/>
      </g>
     </g>
     <g id="text_4">
      <!-- 15 -->
      <g transform="translate(145.242827 153.918437) scale(0.1 -0.1)">
       <use xlink:href="#DejaVuSans-31"/>
       <use xlink:href="#DejaVuSans-35" x="63.623047"/>
      </g>
     </g>
    </g>
    <g id="xtick_5">
     <g id="line2d_9">
      <path d="M 194.220227 139.32 
L 194.220227 0.72 
" clip-path="url(#pe7d49178da)" style="fill: none; stroke-dasharray: 0.8,1.32; stroke-dashoffset: 0; stroke: #000000; stroke-opacity: 0.5; stroke-width: 0.8"/>
     </g>
     <g id="line2d_10">
      <g>
       <use xlink:href="#m8e1ab2733e" x="194.220227" y="139.32" style="stroke: #000000; stroke-width: 0.8"/>
      </g>
     </g>
     <g id="text_5">
      <!-- 20 -->
      <g transform="translate(187.857727 153.918437) scale(0.1 -0.1)">
       <defs>
        <path id="DejaVuSans-32" d="M 1228 531 
L 3431 531 
L 3431 0 
L 469 0 
L 469 531 
Q 828 903 1448 1529 
Q 2069 2156 2228 2338 
Q 2531 2678 2651 2914 
Q 2772 3150 2772 3378 
Q 2772 3750 2511 3984 
Q 2250 4219 1831 4219 
Q 1534 4219 1204 4116 
Q 875 4013 500 3803 
L 500 4441 
Q 881 4594 1212 4672 
Q 1544 4750 1819 4750 
Q 2544 4750 2975 4387 
Q 3406 4025 3406 3419 
Q 3406 3131 3298 2873 
Q 3191 2616 2906 2266 
Q 2828 2175 2409 1742 
Q 1991 1309 1228 531 
z
" transform="scale(0.015625)"/>
       </defs>
       <use xlink:href="#DejaVuSans-32"/>
       <use xlink:href="#DejaVuSans-30" x="63.623047"/>
      </g>
     </g>
    </g>
    <g id="xtick_6">
     <g id="line2d_11">
      <path d="M 236.835128 139.32 
L 236.835128 0.72 
" clip-path="url(#pe7d49178da)" style="fill: none; stroke-dasharray: 0.8,1.32; stroke-dashoffset: 0; stroke: #000000; stroke-opacity: 0.5; stroke-width: 0.8"/>
     </g>
     <g id="line2d_12">
      <g>
       <use xlink:href="#m8e1ab2733e" x="236.835128" y="139.32" style="stroke: #000000; stroke-width: 0.8"/>
      </g>
     </g>
     <g id="text_6">
      <!-- 25 -->
      <g transform="translate(230.472628 153.918437) scale(0.1 -0.1)">
       <use xlink:href="#DejaVuSans-32"/>
       <use xlink:href="#DejaVuSans-35" x="63.623047"/>
      </g>
     </g>
    </g>
    <g id="xtick_7">
     <g id="line2d_13">
      <path d="M 279.450028 139.32 
L 279.450028 0.72 
" clip-path="url(#pe7d49178da)" style="fill: none; stroke-dasharray: 0.8,1.32; stroke-dashoffset: 0; stroke: #000000; stroke-opacity: 0.5; stroke-width: 0.8"/>
     </g>
     <g id="line2d_14">
      <g>
       <use xlink:href="#m8e1ab2733e" x="279.450028" y="139.32" style="stroke: #000000; stroke-width: 0.8"/>
      </g>
     </g>
     <g id="text_7">
      <!-- 30 -->
      <g transform="translate(273.087528 153.918437) scale(0.1 -0.1)">
       <defs>
        <path id="DejaVuSans-33" d="M 2597 2516 
Q 3050 2419 3304 2112 
Q 3559 1806 3559 1356 
Q 3559 666 3084 287 
Q 2609 -91 1734 -91 
Q 1441 -91 1130 -33 
Q 819 25 488 141 
L 488 750 
Q 750 597 1062 519 
Q 1375 441 1716 441 
Q 2309 441 2620 675 
Q 2931 909 2931 1356 
Q 2931 1769 2642 2001 
Q 2353 2234 1838 2234 
L 1294 2234 
L 1294 2753 
L 1863 2753 
Q 2328 2753 2575 2939 
Q 2822 3125 2822 3475 
Q 2822 3834 2567 4026 
Q 2313 4219 1838 4219 
Q 1578 4219 1281 4162 
Q 984 4106 628 3988 
L 628 4550 
Q 988 4650 1302 4700 
Q 1616 4750 1894 4750 
Q 2613 4750 3031 4423 
Q 3450 4097 3450 3541 
Q 3450 3153 3228 2886 
Q 3006 2619 2597 2516 
z
" transform="scale(0.015625)"/>
       </defs>
       <use xlink:href="#DejaVuSans-33"/>
       <use xlink:href="#DejaVuSans-30" x="63.623047"/>
      </g>
     </g>
    </g>
    <g id="text_8">
     <!-- Zeit [s] -->
     <g transform="translate(145.314531 163.596562) scale(0.1 -0.1)">
      <defs>
       <path id="DejaVuSans-5a" d="M 359 4666 
L 4025 4666 
L 4025 4184 
L 1075 531 
L 4097 531 
L 4097 0 
L 288 0 
L 288 481 
L 3238 4134 
L 359 4134 
L 359 4666 
z
" transform="scale(0.015625)"/>
       <path id="DejaVuSans-65" d="M 3597 1894 
L 3597 1613 
L 953 1613 
Q 991 1019 1311 708 
Q 1631 397 2203 397 
Q 2534 397 2845 478 
Q 3156 559 3463 722 
L 3463 178 
Q 3153 47 2828 -22 
Q 2503 -91 2169 -91 
Q 1331 -91 842 396 
Q 353 884 353 1716 
Q 353 2575 817 3079 
Q 1281 3584 2069 3584 
Q 2775 3584 3186 3129 
Q 3597 2675 3597 1894 
z
M 3022 2063 
Q 3016 2534 2758 2815 
Q 2500 3097 2075 3097 
Q 1594 3097 1305 2825 
Q 1016 2553 972 2059 
L 3022 2063 
z
" transform="scale(0.015625)"/>
       <path id="DejaVuSans-69" d="M 603 3500 
L 1178 3500 
L 1178 0 
L 603 0 
L 603 3500 
z
M 603 4863 
L 1178 4863 
L 1178 4134 
L 603 4134 
L 603 4863 
z
" transform="scale(0.015625)"/>
       <path id="DejaVuSans-74" d="M 1172 4494 
L 1172 3500 
L 2356 3500 
L 2356 3053 
L 1172 3053 
L 1172 1153 
Q 1172 725 1289 603 
Q 1406 481 1766 481 
L 2356 481 
L 2356 0 
L 1766 0 
Q 1100 0 847 248 
Q 594 497 594 1153 
L 594 3053 
L 172 3053 
L 172 3500 
L 594 3500 
L 594 4494 
L 1172 4494 
z
" transform="scale(0.015625)"/>
       <path id="DejaVuSans-20" transform="scale(0.015625)"/>
       <path id="DejaVuSans-5b" d="M 550 4863 
L 1875 4863 
L 1875 4416 
L 1125 4416 
L 1125 -397 
L 1875 -397 
L 1875 -844 
L 550 -844 
L 550 4863 
z
" transform="scale(0.015625)"/>
       <path id="DejaVuSans-73" d="M 2834 3397 
L 2834 2853 
Q 2591 2978 2328 3040 
Q 2066 3103 1784 3103 
Q 1356 3103 1142 2972 
Q 928 2841 928 2578 
Q 928 2378 1081 2264 
Q 1234 2150 1697 2047 
L 1894 2003 
Q 2506 1872 2764 1633 
Q 3022 1394 3022 966 
Q 3022 478 2636 193 
Q 2250 -91 1575 -91 
Q 1294 -91 989 -36 
Q 684 19 347 128 
L 347 722 
Q 666 556 975 473 
Q 1284 391 1588 391 
Q 1994 391 2212 530 
Q 2431 669 2431 922 
Q 2431 1156 2273 1281 
Q 2116 1406 1581 1522 
L 1381 1569 
Q 847 1681 609 1914 
Q 372 2147 372 2553 
Q 372 3047 722 3315 
Q 1072 3584 1716 3584 
Q 2034 3584 2315 3537 
Q 2597 3491 2834 3397 
z
" transform="scale(0.015625)"/>
       <path id="DejaVuSans-5d" d="M 1947 4863 
L 1947 -844 
L 622 -844 
L 622 -397 
L 1369 -397 
L 1369 4416 
L 622 4416 
L 622 4863 
L 1947 4863 
z
" transform="scale(0.015625)"/>
      </defs>
      <use xlink:href="#DejaVuSans-5a"/>
      <use xlink:href="#DejaVuSans-65" x="68.505859"/>
      <use xlink:href="#DejaVuSans-69" x="130.029297"/>
      <use xlink:href="#DejaVuSans-74" x="157.8125"/>
      <use xlink:href="#DejaVuSans-20" x="197.021484"/>
      <use xlink:href="#DejaVuSans-5b" x="228.808594"/>
      <use xlink:href="#DejaVuSans-73" x="267.822266"/>
      <use xlink:href="#DejaVuSans-5d" x="319.921875"/>
     </g>
    </g>
   </g>
   <g id="matplotlib.axis_2">
    <g id="ytick_1">
     <g id="line2d_15">
      <path d="M 23.760625 134.186666 
L 302.760625 134.186666 
" clip-path="url(#pe7d49178da)" style="fill: none; stroke-dasharray: 0.8,1.32; stroke-dashoffset: 0; stroke: #000000; stroke-opacity: 0.5; stroke-width: 0.8"/>
     </g>
     <g id="line2d_16">
      <defs>
       <path id="m0bf9f0ca79" d="M 0 0 
L -3.5 0 
" style="stroke: #000000; stroke-width: 0.8"/>
      </defs>
      <g>
       <use xlink:href="#m0bf9f0ca79" x="23.760625" y="134.186666" style="stroke: #000000; stroke-width: 0.8"/>
      </g>
     </g>
     <g id="text_9">
      <!-- 0 -->
      <g transform="translate(10.398125 137.985885) scale(0.1 -0.1)">
       <use xlink:href="#DejaVuSans-30"/>
      </g>
     </g>
    </g>
    <g id="ytick_2">
     <g id="line2d_17">
      <path d="M 23.760625 98.389545 
L 302.760625 98.389545 
" clip-path="url(#pe7d49178da)" style="fill: none; stroke-dasharray: 0.8,1.32; stroke-dashoffset: 0; stroke: #000000; stroke-opacity: 0.5; stroke-width: 0.8"/>
     </g>
     <g id="line2d_18">
      <g>
       <use xlink:href="#m0bf9f0ca79" x="23.760625" y="98.389545" style="stroke: #000000; stroke-width: 0.8"/>
      </g>
     </g>
     <g id="text_10">
      <!-- 1 -->
      <g transform="translate(10.398125 102.188764) scale(0.1 -0.1)">
       <use xlink:href="#DejaVuSans-31"/>
      </g>
     </g>
    </g>
    <g id="ytick_3">
     <g id="line2d_19">
      <path d="M 23.760625 62.592425 
L 302.760625 62.592425 
" clip-path="url(#pe7d49178da)" style="fill: none; stroke-dasharray: 0.8,1.32; stroke-dashoffset: 0; stroke: #000000; stroke-opacity: 0.5; stroke-width: 0.8"/>
     </g>
     <g id="line2d_20">
      <g>
       <use xlink:href="#m0bf9f0ca79" x="23.760625" y="62.592425" style="stroke: #000000; stroke-width: 0.8"/>
      </g>
     </g>
     <g id="text_11">
      <!-- 2 -->
      <g transform="translate(10.398125 66.391643) scale(0.1 -0.1)">
       <use xlink:href="#DejaVuSans-32"/>
      </g>
     </g>
    </g>
    <g id="ytick_4">
     <g id="line2d_21">
      <path d="M 23.760625 26.795304 
L 302.760625 26.795304 
" clip-path="url(#pe7d49178da)" style="fill: none; stroke-dasharray: 0.8,1.32; stroke-dashoffset: 0; stroke: #000000; stroke-opacity: 0.5; stroke-width: 0.8"/>
     </g>
     <g id="line2d_22">
      <g>
       <use xlink:href="#m0bf9f0ca79" x="23.760625" y="26.795304" style="stroke: #000000; stroke-width: 0.8"/>
      </g>
     </g>
     <g id="text_12">
      <!-- 3 -->
      <g transform="translate(10.398125 30.594523) scale(0.1 -0.1)">
       <use xlink:href="#DejaVuSans-33"/>
      </g>
     </g>
    </g>
    <g id="text_13">
     <!-- Kraft [N] -->
     <g transform="translate(8.318438 91.2825) rotate(-90) scale(0.1 -0.1)">
      <defs>
       <path id="DejaVuSans-4b" d="M 628 4666 
L 1259 4666 
L 1259 2694 
L 3353 4666 
L 4166 4666 
L 1850 2491 
L 4331 0 
L 3500 0 
L 1259 2247 
L 1259 0 
L 628 0 
L 628 4666 
z
" transform="scale(0.015625)"/>
       <path id="DejaVuSans-72" d="M 2631 2963 
Q 2534 3019 2420 3045 
Q 2306 3072 2169 3072 
Q 1681 3072 1420 2755 
Q 1159 2438 1159 1844 
L 1159 0 
L 581 0 
L 581 3500 
L 1159 3500 
L 1159 2956 
Q 1341 3275 1631 3429 
Q 1922 3584 2338 3584 
Q 2397 3584 2469 3576 
Q 2541 3569 2628 3553 
L 2631 2963 
z
" transform="scale(0.015625)"/>
       <path id="DejaVuSans-61" d="M 2194 1759 
Q 1497 1759 1228 1600 
Q 959 1441 959 1056 
Q 959 750 1161 570 
Q 1363 391 1709 391 
Q 2188 391 2477 730 
Q 2766 1069 2766 1631 
L 2766 1759 
L 2194 1759 
z
M 3341 1997 
L 3341 0 
L 2766 0 
L 2766 531 
Q 2569 213 2275 61 
Q 1981 -91 1556 -91 
Q 1019 -91 701 211 
Q 384 513 384 1019 
Q 384 1609 779 1909 
Q 1175 2209 1959 2209 
L 2766 2209 
L 2766 2266 
Q 2766 2663 2505 2880 
Q 2244 3097 1772 3097 
Q 1472 3097 1187 3025 
Q 903 2953 641 2809 
L 641 3341 
Q 956 3463 1253 3523 
Q 1550 3584 1831 3584 
Q 2591 3584 2966 3190 
Q 3341 2797 3341 1997 
z
" transform="scale(0.015625)"/>
       <path id="DejaVuSans-66" d="M 2375 4863 
L 2375 4384 
L 1825 4384 
Q 1516 4384 1395 4259 
Q 1275 4134 1275 3809 
L 1275 3500 
L 2222 3500 
L 2222 3053 
L 1275 3053 
L 1275 0 
L 697 0 
L 697 3053 
L 147 3053 
L 147 3500 
L 697 3500 
L 697 3744 
Q 697 4328 969 4595 
Q 1241 4863 1831 4863 
L 2375 4863 
z
" transform="scale(0.015625)"/>
       <path id="DejaVuSans-4e" d="M 628 4666 
L 1478 4666 
L 3547 763 
L 3547 4666 
L 4159 4666 
L 4159 0 
L 3309 0 
L 1241 3903 
L 1241 0 
L 628 0 
L 628 4666 
z
" transform="scale(0.015625)"/>
      </defs>
      <use xlink:href="#DejaVuSans-4b"/>
      <use xlink:href="#DejaVuSans-72" x="65.576172"/>
      <use xlink:href="#DejaVuSans-61" x="106.689453"/>
      <use xlink:href="#DejaVuSans-66" x="167.96875"/>
      <use xlink:href="#DejaVuSans-74" x="201.423828"/>
      <use xlink:href="#DejaVuSans-20" x="240.632812"/>
      <use xlink:href="#DejaVuSans-5b" x="272.419922"/>
      <use xlink:href="#DejaVuSans-4e" x="311.433594"/>
      <use xlink:href="#DejaVuSans-5d" x="386.238281"/>
     </g>
    </g>
   </g>
   <g id="line2d_23">
    <path d="M 23.760625 134.186667 
L 302.760625 134.186667 
L 302.760625 134.186667 
" clip-path="url(#pe7d49178da)" style="fill: none; stroke: #0000ff; stroke-opacity: 0.5; stroke-width: 3; stroke-linecap: square"/>
   </g>
   <g id="line2d_24">
    <path d="M 23.760625 21.436364 
L 23.813362 21.414108 
L 23.908242 20.412007 
L 23.967975 22.473182 
L 24.074073 19.506956 
L 24.124919 20.565961 
L 24.195767 21.816886 
L 24.312388 17.317591 
L 24.381533 18.695711 
L 24.542553 14.897301 
L 24.810544 22.119535 
L 24.879705 19.261682 
L 25.102858 23.58794 
L 25.257215 28.955674 
L 25.548409 21.683569 
L 25.720287 24.389738 
L 25.755492 24.294143 
L 25.825502 24.047323 
L 26.237324 33.397519 
L 26.305891 32.833555 
L 26.374706 32.72828 
L 26.596831 22.991696 
L 26.665485 23.369641 
L 26.726393 24.851195 
L 26.734434 23.742 
L 27.010637 22.209848 
L 27.084072 20.300637 
L 27.235359 29.418933 
L 27.373262 28.721553 
L 27.441821 30.081392 
L 27.579282 24.529617 
L 27.721245 28.471214 
L 28.145695 12.728302 
L 28.249816 14.471165 
L 28.289364 17.23546 
L 28.355412 15.436883 
L 28.440376 15.731806 
L 28.50911 18.021192 
L 28.581773 16.915301 
L 28.646697 15.913919 
L 28.784966 22.80237 
L 28.994589 19.287468 
L 29.077135 20.194504 
L 29.215125 16.838539 
L 29.431427 22.569575 
L 29.644092 17.812494 
L 29.794856 17.262515 
L 29.988868 21.121245 
L 30.288101 14.690395 
L 30.417312 19.472714 
L 30.486081 17.630804 
L 30.556044 19.007918 
L 30.629643 18.296565 
L 30.712662 15.982895 
L 30.919365 21.786851 
L 31.193454 12.928504 
L 31.451084 17.757206 
L 31.502779 20.700124 
L 31.554319 16.55272 
L 31.674402 19.707338 
L 31.830237 30.383652 
L 31.91421 29.869228 
L 32.191501 22.983627 
L 32.279024 21.709052 
L 32.403784 16.913549 
L 32.76064 20.594843 
L 32.828031 19.421807 
L 32.902532 19.994139 
L 33.056837 25.468998 
L 33.132206 24.682919 
L 33.143254 28.078557 
L 33.196431 21.61763 
L 33.279651 21.74759 
L 33.403276 19.280944 
L 33.61783 20.704241 
L 33.780415 19.373529 
L 33.843189 19.790551 
L 33.927624 20.357695 
L 33.943696 19.926667 
L 34.049977 13.369806 
L 34.085451 14.721735 
L 34.275719 19.156504 
L 34.413624 21.549715 
L 34.569685 14.113528 
L 34.791035 20.654661 
L 34.98188 15.102912 
L 35.049235 16.160476 
L 35.260935 23.127786 
L 35.358006 22.807409 
L 35.44529 23.542657 
L 35.478652 22.919378 
L 35.531465 21.472691 
L 35.643814 22.978013 
L 35.695127 22.155463 
L 35.856496 15.762756 
L 35.984409 18.226662 
L 36.045653 16.281388 
L 36.09788 17.077659 
L 36.388719 29.823599 
L 36.492629 28.765235 
L 36.637533 25.062388 
L 36.732212 25.418366 
L 36.800704 26.072283 
L 37.093347 8.59752 
L 37.522424 21.003266 
L 37.695453 17.107445 
L 37.74553 18.247742 
L 37.814532 18.209382 
L 37.882793 19.124351 
L 38.039098 15.280161 
L 38.209069 12.622233 
L 38.301474 14.976726 
L 38.380151 15.671964 
L 38.517969 24.923141 
L 38.61669 22.467244 
L 38.656285 23.248946 
L 38.831069 24.195471 
L 38.87985 23.141371 
L 39.028719 27.263368 
L 39.205928 21.429471 
L 39.257276 21.562237 
L 39.378561 18.879234 
L 39.446154 19.568504 
L 39.584526 24.21832 
L 39.739439 21.072626 
L 39.876504 25.846848 
L 39.979415 24.404508 
L 40.134056 27.843249 
L 40.28879 25.972513 
L 40.340253 25.194492 
L 40.392154 26.170142 
L 40.512307 24.760751 
L 40.667821 22.151186 
L 40.841741 23.563431 
L 40.946559 21.095404 
L 41.032199 22.521269 
L 41.092958 20.512608 
L 41.164726 22.369499 
L 41.285925 21.824289 
L 41.381094 28.665136 
L 41.527864 26.991855 
L 41.65056 26.23427 
L 41.802703 23.380157 
L 41.848228 24.412436 
L 41.8648 23.720038 
L 41.933694 23.80746 
L 42.094623 22.474262 
L 42.195956 19.692745 
L 42.294715 21.535597 
L 42.434342 25.879281 
L 42.709317 29.058859 
L 42.917381 21.864648 
L 42.932443 22.905477 
L 43.000733 21.965147 
L 43.138372 24.237085 
L 43.418018 20.806489 
L 43.520644 21.672782 
L 43.537055 21.400932 
L 43.658787 27.832433 
L 43.777095 26.11736 
L 43.916264 25.30828 
L 44.017893 21.231332 
L 44.139943 25.5943 
L 44.568425 18.654406 
L 44.723975 23.096813 
L 44.847276 16.202903 
L 45.049249 19.457376 
L 45.136086 20.438936 
L 45.152522 24.141045 
L 45.515868 23.045701 
L 45.891043 23.122135 
L 46.29176 25.670739 
L 46.666315 23.063992 
L 46.766651 17.472044 
L 46.974255 16.882749 
L 47.231487 25.391277 
L 47.250038 23.749937 
L 47.403006 19.754501 
L 47.455721 20.565396 
L 47.471862 22.797146 
L 47.714438 25.940864 
L 47.953096 22.052333 
L 48.039768 24.280993 
L 48.110723 23.491828 
L 48.183681 22.419496 
L 48.48638 12.118814 
L 48.538344 13.712812 
L 48.622859 13.842301 
L 48.880861 15.208962 
L 48.898303 14.725723 
L 49.0373 23.416945 
L 49.17314 18.690939 
L 49.242874 18.963746 
L 49.413458 20.806342 
L 49.504039 20.556981 
L 49.551256 19.302944 
L 49.758207 25.137353 
L 49.822694 24.27598 
L 50.031075 18.373725 
L 50.118934 19.555492 
L 50.166415 21.723244 
L 50.235467 21.588306 
L 50.54606 17.118961 
L 50.733451 21.505061 
L 50.819158 20.889214 
L 50.887399 21.161941 
L 50.956403 21.315097 
L 51.044118 18.590686 
L 51.128011 12.251927 
L 51.179227 13.780307 
L 51.317481 21.694298 
L 51.59252 15.048785 
L 51.731676 20.05835 
L 51.815844 25.356091 
L 51.869045 22.245938 
L 51.953541 19.583345 
L 52.022533 19.925237 
L 52.0904 23.745114 
L 52.159644 22.873035 
L 52.279037 20.338866 
L 52.296058 20.955276 
L 52.383742 20.693819 
L 52.530163 19.827543 
L 52.53045 17.904366 
L 52.614612 20.739964 
L 52.678133 21.374248 
L 52.761804 21.260643 
L 52.872223 21.594549 
L 53.00911 31.175243 
L 53.179378 29.943827 
L 53.351129 25.375187 
L 53.368254 27.037452 
L 53.436372 25.008275 
L 53.507199 23.523988 
L 53.591519 25.431669 
L 53.797191 16.663104 
L 54.004623 20.501112 
L 54.29819 17.856894 
L 54.431712 20.411756 
L 54.572408 23.611082 
L 54.759097 21.385638 
L 54.797042 22.314775 
L 54.999368 29.228313 
L 55.155479 29.629349 
L 55.327701 25.260755 
L 55.446184 29.998353 
L 55.635489 21.065956 
L 55.772621 21.879403 
L 55.850449 21.864198 
L 55.999104 21.12608 
L 56.047401 22.434875 
L 56.081604 20.532614 
L 56.151173 19.747919 
L 56.357955 23.710549 
L 56.528542 23.034265 
L 56.721113 18.580728 
L 56.841807 19.860375 
L 56.914219 21.693967 
L 57.151458 13.804355 
L 57.256579 14.014783 
L 57.359178 19.949391 
L 57.4095 19.573111 
L 57.495689 22.461794 
L 57.636624 19.412463 
L 57.702568 21.125367 
L 57.771632 22.142428 
L 57.841395 21.177972 
L 58.063965 11.663784 
L 58.899751 22.684015 
L 58.976281 19.562195 
L 59.060209 24.453876 
L 59.171186 21.946775 
L 59.202523 22.271382 
L 59.304789 23.008238 
L 59.335887 21.936312 
L 59.405826 22.064765 
L 59.634886 24.660248 
L 59.717937 23.2476 
L 60.014652 12.781299 
L 60.112092 15.356121 
L 60.285909 12.675882 
L 60.324502 9.592607 
L 60.421304 10.249219 
L 60.473037 11.863837 
L 60.602459 11.834714 
L 60.645844 9.55114 
L 60.747476 10.596119 
L 60.764441 12.34752 
L 60.876242 11.992924 
L 61.195625 5.853333 
L 61.401619 13.870771 
L 61.469787 12.88089 
L 61.680425 22.447237 
L 61.765316 22.524269 
L 62.039627 28.137323 
L 62.401755 19.280888 
L 62.470737 22.11461 
L 62.523068 20.854001 
L 62.832335 17.981595 
L 62.887012 20.377634 
L 62.97156 20.021656 
L 63.072684 19.318378 
L 63.245862 23.666051 
L 63.314786 22.823924 
L 63.487014 17.769766 
L 63.658264 22.22417 
L 63.780545 23.414342 
L 63.971912 17.397948 
L 64.298735 27.967465 
L 64.453671 26.047344 
L 64.59279 30.509968 
L 64.676859 29.920965 
L 65.019594 18.749782 
L 65.088548 18.711177 
L 65.230623 17.647939 
L 65.295369 17.693118 
L 65.381357 18.731679 
L 65.517913 18.217699 
L 65.661255 22.513977 
L 65.73071 19.943067 
L 65.935759 25.235077 
L 66.070284 17.218567 
L 66.447389 25.240149 
L 66.585012 17.308038 
L 66.756813 22.625849 
L 66.860637 20.518014 
L 66.932147 22.681699 
L 67.006593 22.156053 
L 67.1279 20.130038 
L 67.290814 30.629862 
L 67.65148 23.842445 
L 67.722201 24.288767 
L 67.806883 24.085773 
L 68.03007 16.559273 
L 68.167169 16.07593 
L 68.287384 15.460646 
L 68.390565 14.870759 
L 68.562571 10.674112 
L 68.66588 11.448272 
L 68.959295 19.145415 
L 69.068783 17.676015 
L 69.269666 20.758759 
L 69.441659 20.718157 
L 69.647141 16.89961 
L 69.717105 20.175805 
L 69.79902 18.267051 
L 70.02793 24.18889 
L 70.066904 23.115985 
L 70.148892 24.659218 
L 70.267986 23.718409 
L 70.405754 25.558399 
L 70.45922 25.207614 
L 70.494515 29.186816 
L 70.549447 27.027752 
L 70.63194 25.222271 
L 70.770769 29.752956 
L 70.837954 27.709247 
L 70.976067 32.157491 
L 70.99279 29.816009 
L 71.205191 24.402097 
L 71.335913 27.814545 
L 71.480391 16.61709 
L 71.835385 22.756631 
L 71.90208 22.394756 
L 72.041973 18.821403 
L 72.262635 28.726715 
L 72.332246 26.104304 
L 72.400212 27.100373 
L 72.539413 28.265951 
L 72.610002 26.978446 
L 72.761731 30.208864 
L 72.83018 29.389449 
L 73.036313 22.446731 
L 73.104699 24.494534 
L 73.39811 19.723195 
L 73.465936 21.966197 
L 73.535737 21.196845 
L 73.758238 26.416739 
L 73.826923 21.946567 
L 73.963947 27.8436 
L 74.032977 27.195911 
L 74.110129 30.101193 
L 74.24044 23.447688 
L 74.3099 24.544294 
L 74.412634 23.463895 
L 74.462392 21.715235 
L 74.534212 24.266548 
L 74.685475 16.734745 
L 74.738315 20.944466 
L 74.813815 19.056107 
L 74.960945 23.763138 
L 75.029716 22.209561 
L 75.100395 22.849008 
L 75.236728 22.394152 
L 75.39246 26.781565 
L 75.53066 20.246533 
L 75.747245 21.745336 
L 75.752877 21.717212 
L 75.769499 21.674251 
L 75.805184 20.838499 
L 75.947264 22.827385 
L 76.033134 18.286485 
L 76.166933 19.237938 
L 76.236242 22.187182 
L 76.306109 20.92972 
L 76.373483 18.403294 
L 76.546621 22.454849 
L 76.597792 20.811412 
L 76.667003 21.664257 
L 76.770234 23.94918 
L 76.872504 20.750828 
L 77.01108 22.331224 
L 77.117316 22.881422 
L 77.239438 18.763385 
L 77.548106 24.707952 
L 77.581048 24.350365 
L 77.804752 18.711063 
L 77.822048 21.280808 
L 77.993652 23.954132 
L 78.16809 19.522848 
L 78.255613 19.75786 
L 78.425754 24.035802 
L 78.493076 23.651296 
L 78.580109 18.55778 
L 78.666499 18.656073 
L 78.718354 23.927497 
L 78.73392 21.309979 
L 78.803414 19.6136 
L 78.975117 22.480174 
L 79.077552 21.022465 
L 79.145872 24.341307 
L 79.215349 22.85061 
L 79.283942 27.592232 
L 79.472879 22.98245 
L 79.543471 24.812011 
L 79.628135 23.981181 
L 79.830964 18.532664 
L 79.954877 19.876619 
L 80.177877 17.985751 
L 80.211987 18.561757 
L 80.68418 25.925078 
L 80.744178 22.434579 
L 80.883187 25.083726 
L 81.022599 20.022345 
L 81.071427 22.158733 
L 81.210953 23.316614 
L 81.355157 18.207692 
L 81.419372 20.082174 
L 81.571671 22.964323 
L 81.640553 26.627256 
L 81.714731 26.623194 
L 81.847662 23.207766 
L 81.949201 23.80618 
L 82.120737 29.038096 
L 82.155286 29.396569 
L 82.363368 22.743307 
L 82.415757 23.971544 
L 82.499767 27.512395 
L 82.55206 26.555629 
L 82.69101 24.6791 
L 82.723977 21.200572 
L 82.797351 22.15131 
L 82.91153 22.567459 
L 83.014783 22.263458 
L 83.087448 22.371895 
L 83.272246 16.901526 
L 83.342827 16.972409 
L 83.4098 16.733013 
L 83.448829 20.252432 
L 83.514308 17.979857 
L 83.567426 16.394569 
L 83.705986 20.134508 
L 83.87651 25.870335 
L 83.962472 25.901062 
L 84.392291 15.957307 
L 84.565338 9.323936 
L 84.770073 15.68032 
L 85.267856 24.084651 
L 85.406685 18.99853 
L 85.474234 20.92682 
L 85.543935 20.224706 
L 85.835033 22.522995 
L 85.921421 23.783526 
L 85.989775 21.512179 
L 86.042509 24.40829 
L 86.128186 24.002612 
L 86.198987 23.591458 
L 86.283062 25.482583 
L 86.369414 24.609618 
L 86.543451 20.70346 
L 86.679287 21.56439 
L 86.90228 18.239167 
L 87.131318 22.191111 
L 87.31802 15.072114 
L 87.395326 13.485375 
L 87.606514 17.075141 
L 87.675649 14.860093 
L 87.751493 14.980951 
L 87.950913 17.67391 
L 88.106074 28.520963 
L 88.174266 27.995019 
L 88.355806 29.322268 
L 88.385552 28.247873 
L 88.449939 28.491646 
L 88.603927 32.980672 
L 88.672793 32.147808 
L 88.74215 28.419227 
L 88.810651 29.606024 
L 88.879006 32.728623 
L 88.955704 31.905851 
L 89.101506 30.796989 
L 89.377526 23.783733 
L 89.446063 27.159364 
L 89.614977 22.124453 
L 89.668206 23.740746 
L 89.737647 23.654159 
L 89.806234 23.665266 
L 89.947086 23.076382 
L 90.083594 25.206382 
L 90.167956 21.149656 
L 90.237557 22.949095 
L 90.304505 22.020881 
L 90.378517 17.069252 
L 90.443135 17.45457 
L 90.655587 23.200759 
L 90.71997 21.498452 
L 90.8108 21.581271 
L 90.911099 25.327135 
L 90.942168 25.08118 
L 91.079334 24.707694 
L 91.149726 20.173196 
L 91.218891 22.091461 
L 91.37451 19.310509 
L 91.443362 20.83057 
L 91.529926 20.192214 
L 91.57924 18.864249 
L 91.870996 24.588608 
L 91.945117 22.943591 
L 92.011783 24.467718 
L 92.115755 24.267078 
L 92.228246 23.713348 
L 92.424985 17.014649 
L 92.493767 17.577016 
L 92.630225 17.631013 
L 92.664321 19.479914 
L 92.726392 19.189411 
L 92.785099 16.761554 
L 92.922921 17.081268 
L 93.025095 16.16526 
L 93.113783 18.24092 
L 93.215498 25.166297 
L 93.369807 24.628237 
L 93.445289 22.765338 
L 93.48932 24.387248 
L 93.644459 25.577498 
L 93.799839 24.067977 
L 93.940012 18.766013 
L 94.057069 19.176085 
L 94.212355 22.799572 
L 94.350014 19.426937 
L 94.556711 24.452824 
L 94.693727 21.728779 
L 94.764026 20.128555 
L 94.78279 20.412699 
L 94.865801 20.408331 
L 94.916981 17.231623 
L 94.994 18.632565 
L 95.054249 18.30378 
L 95.24054 16.406369 
L 95.415597 19.030937 
L 95.552886 17.282111 
L 95.656028 19.111979 
L 95.724675 17.997084 
L 95.828626 21.692337 
L 95.93149 14.079136 
L 95.983669 15.761872 
L 96.051532 17.695152 
L 96.120793 14.887012 
L 96.207839 16.647552 
L 96.343635 13.003063 
L 96.430129 14.52125 
L 96.567258 9.113177 
L 96.584329 11.726439 
L 96.693461 16.19753 
L 96.790776 12.007183 
L 96.980053 20.978245 
L 97.082198 21.222274 
L 97.116496 20.633488 
L 97.254613 25.18688 
L 97.4081 22.344566 
L 97.562898 25.456087 
L 97.90985 17.763449 
L 97.977488 18.034178 
L 98.148969 21.729609 
L 98.182932 19.660281 
L 98.286377 20.099146 
L 98.406127 15.182882 
L 98.630294 22.499961 
L 98.716091 22.470822 
L 98.752278 19.97394 
L 98.836042 20.42895 
L 98.904966 24.844833 
L 98.973454 22.312521 
L 99.112449 22.464726 
L 99.177362 26.553466 
L 99.190558 26.13588 
L 99.345965 19.730452 
L 99.488284 24.818794 
L 99.608294 20.026991 
L 99.762239 25.371336 
L 99.90034 23.276459 
L 99.951431 23.398587 
L 99.989461 25.122821 
L 100.054663 24.387106 
L 100.192268 21.456502 
L 100.261837 24.170807 
L 100.606136 15.298811 
L 100.674439 15.644077 
L 100.760553 18.926067 
L 100.816671 17.784304 
L 101.002169 15.152695 
L 101.036333 16.987201 
L 101.125526 16.869141 
L 101.196427 19.589245 
L 101.380974 16.93115 
L 101.434364 20.847455 
L 101.605245 19.255025 
L 101.674729 20.350471 
L 101.749605 19.671038 
L 101.812513 22.126146 
L 101.88303 19.369039 
L 101.949166 20.512079 
L 102.018632 20.430361 
L 102.174941 19.652697 
L 102.243592 20.471797 
L 102.311573 19.382761 
L 102.38033 21.216849 
L 102.586504 19.674997 
L 102.691006 19.514371 
L 102.760807 18.28001 
L 102.828575 18.431232 
L 103.021183 21.787869 
L 103.242423 17.878383 
L 103.466094 22.412638 
L 103.729928 13.159956 
L 103.742914 20.517059 
L 103.810664 12.91869 
L 103.864677 12.927255 
L 104.019036 9.92001 
L 104.091991 10.264747 
L 104.292335 19.592981 
L 104.365006 16.804912 
L 104.448452 16.054975 
L 104.66079 23.924839 
L 104.730232 22.53039 
L 104.859961 21.982781 
L 104.894025 18.390183 
L 104.945628 20.529992 
L 105.032929 18.373113 
L 105.085915 18.825926 
L 105.223696 23.294295 
L 105.360956 19.40288 
L 105.584321 27.283323 
L 105.704173 25.273159 
L 105.739219 27.924888 
L 105.807953 26.624441 
L 105.927257 20.693993 
L 106.064889 24.364522 
L 106.236182 20.572065 
L 106.326187 20.474103 
L 106.445756 13.036836 
L 106.633949 24.362462 
L 106.854485 17.578957 
L 106.922454 16.009766 
L 107.249268 21.404154 
L 107.386774 14.226434 
L 107.665751 23.688492 
L 107.713052 24.470956 
L 107.811186 22.978826 
L 107.903755 24.947343 
L 107.919681 24.734528 
L 108.039936 24.067969 
L 108.074805 27.458808 
L 108.143558 26.715509 
L 108.297972 23.320482 
L 108.366355 23.831026 
L 108.419664 22.793362 
L 108.503915 24.867945 
L 108.64183 21.710564 
L 108.763785 22.636394 
L 108.849237 21.112462 
L 108.864703 23.34109 
L 108.935449 22.956927 
L 109.192316 16.560405 
L 109.278125 18.15432 
L 109.567313 9.969511 
L 109.841599 16.941785 
L 109.996303 14.488756 
L 110.187596 22.633532 
L 110.201631 22.582328 
L 110.30425 22.978675 
L 110.424451 19.473282 
L 110.476792 25.36222 
L 110.564926 25.25582 
L 110.650309 28.379174 
L 110.700658 28.358318 
L 110.890098 22.882017 
L 110.980892 24.882322 
L 111.131529 23.420418 
L 111.202447 18.978813 
L 111.255776 19.506477 
L 111.366082 19.200851 
L 111.424289 19.721791 
L 111.495355 21.869465 
L 111.682442 15.819902 
L 112.010266 22.510993 
L 112.183397 20.733858 
L 112.215425 21.607743 
L 112.329088 30.671917 
L 112.439356 33.525855 
L 112.460306 32.338081 
L 112.680927 28.390503 
L 112.748972 26.598876 
L 112.903889 30.015159 
L 112.972919 24.748058 
L 113.058782 25.186437 
L 113.19795 23.910306 
L 113.488575 29.910249 
L 113.609472 28.477598 
L 113.644345 25.833994 
L 113.678987 30.027006 
L 113.747452 29.362177 
L 113.885196 25.692685 
L 114.005371 25.653089 
L 114.196699 27.331804 
L 114.282335 27.376575 
L 114.453527 20.900234 
L 114.676508 24.851991 
L 114.882306 19.314369 
L 115.105317 21.607469 
L 115.193454 23.50029 
L 115.312087 17.922588 
L 115.518046 21.866789 
L 115.589496 21.425733 
L 115.74131 20.130949 
L 115.880363 14.998316 
L 115.94725 19.570304 
L 116.102254 22.457183 
L 116.118989 21.071624 
L 116.166132 20.116002 
L 116.429605 21.045744 
L 116.53788 27.465001 
L 116.655733 25.832127 
L 116.802827 23.339009 
L 116.944773 23.408897 
L 117.013675 22.994519 
L 117.130862 23.47574 
L 117.227875 17.698466 
L 117.320206 18.556594 
L 117.510779 23.684708 
L 117.59506 23.119775 
L 117.792154 18.885161 
L 117.942094 26.107887 
L 118.034879 24.612159 
L 118.309516 17.747384 
L 118.464214 21.432842 
L 118.637394 20.505621 
L 118.739554 23.814039 
L 118.808288 15.31112 
L 118.862124 18.654448 
L 119.070726 29.715063 
L 119.277938 32.928826 
L 119.429216 22.727184 
L 119.549532 23.77814 
L 119.671371 24.779731 
L 119.859185 19.566868 
L 119.996481 14.169029 
L 120.065409 14.674447 
L 120.27236 23.773548 
L 120.341681 21.413495 
L 120.427139 21.887819 
L 120.537497 21.037037 
L 120.718987 28.732949 
L 120.739872 32.57613 
L 120.787565 30.915431 
L 120.857663 27.580696 
L 120.925505 27.769238 
L 121.014097 27.197554 
L 121.338847 18.735769 
L 121.440506 14.885105 
L 121.561546 18.430793 
L 121.705922 14.91207 
L 121.767579 19.535764 
L 121.83658 19.430942 
L 121.994153 12.263092 
L 122.072795 12.006528 
L 122.145982 12.972193 
L 122.197563 11.698385 
L 122.335869 15.920008 
L 122.438427 15.577316 
L 122.523458 13.187213 
L 122.558161 15.101932 
L 122.934916 25.894121 
L 123.072106 22.408227 
L 123.125696 24.322583 
L 123.195108 22.074881 
L 123.263283 22.268516 
L 123.364923 25.718131 
L 123.401731 24.084987 
L 123.496675 23.726031 
L 123.548506 23.091899 
L 123.635284 23.228834 
L 123.650114 28.000866 
L 123.705041 25.665702 
L 123.787832 23.836683 
L 123.893013 18.813097 
L 123.926176 20.350995 
L 124.046695 20.421279 
L 124.065894 20.178252 
L 124.114409 20.826334 
L 124.182761 20.762742 
L 124.253266 19.879258 
L 124.32077 15.795141 
L 124.406177 16.427376 
L 124.596097 21.088723 
L 124.613421 20.058713 
L 124.68231 21.681155 
L 124.836813 17.169367 
L 125.001393 17.929096 
L 125.11229 23.400273 
L 125.18441 21.023364 
L 125.283335 22.440388 
L 125.335302 27.501543 
L 125.404067 25.895266 
L 125.55983 31.472679 
L 125.747722 25.713208 
L 125.817127 24.937029 
L 125.839955 21.850279 
L 125.901806 24.486857 
L 126.058893 21.210428 
L 126.125147 22.107499 
L 126.279298 19.332901 
L 126.40147 24.732909 
L 126.469668 23.820501 
L 126.8127 14.9639 
L 126.89905 16.916667 
L 127.020606 12.331548 
L 127.105175 12.644014 
L 127.174197 12.538517 
L 127.241961 16.959979 
L 127.312452 16.649484 
L 127.380846 16.047948 
L 127.521876 20.669402 
L 127.602971 17.785042 
L 127.671065 21.351453 
L 127.794914 20.265404 
L 127.842432 20.56191 
L 127.894442 21.424217 
L 127.979884 20.886665 
L 128.050329 23.654671 
L 128.099451 22.127738 
L 128.168226 16.533845 
L 128.237631 17.892244 
L 128.305684 19.209253 
L 128.378114 16.751915 
L 128.391095 17.865158 
L 128.460044 19.492438 
L 128.52943 18.045886 
L 128.597531 19.994847 
L 128.752889 16.616518 
L 128.85614 17.984186 
L 128.88987 23.872825 
L 128.941823 19.48673 
L 129.233353 18.370345 
L 129.287593 22.053906 
L 129.336621 17.388814 
L 129.38809 18.050951 
L 129.462486 20.716219 
L 129.512559 20.071719 
L 129.737756 22.793292 
L 129.907994 25.027279 
L 129.943936 22.737478 
L 130.029897 23.551709 
L 130.218798 17.556449 
L 130.287201 17.56785 
L 130.530506 12.83851 
L 130.631045 13.224417 
L 130.80237 19.087798 
L 130.871217 18.902771 
L 130.942011 19.738666 
L 131.011333 17.38903 
L 131.219023 22.176013 
L 131.300845 23.230476 
L 131.378447 21.765321 
L 131.428564 22.631287 
L 131.495198 22.656603 
L 131.820704 28.092874 
L 131.992805 25.034205 
L 132.062269 24.106687 
L 132.352891 28.638076 
L 132.490205 26.603054 
L 132.559019 28.19858 
L 132.631063 27.721709 
L 132.713795 28.024877 
L 133.063738 22.771534 
L 133.127255 24.769961 
L 133.198183 24.027283 
L 133.28126 22.951339 
L 133.349504 25.067609 
L 133.418903 22.832964 
L 133.488262 25.144879 
L 133.557125 24.019016 
L 133.712215 16.148857 
L 133.767651 20.711783 
L 133.850102 18.822426 
L 133.937461 18.826608 
L 133.988973 19.51308 
L 134.057089 18.036396 
L 134.133316 18.936723 
L 134.194924 18.431371 
L 134.272187 18.023658 
L 134.345495 18.91983 
L 134.41823 18.598452 
L 134.487731 17.850728 
L 134.627163 19.268016 
L 134.69845 18.651165 
L 135.051445 25.248502 
L 135.332762 27.290845 
L 135.469916 22.571524 
L 135.567858 23.14285 
L 135.691187 17.582863 
L 135.843694 19.520209 
L 135.9465 19.567482 
L 136.108787 26.520921 
L 136.179133 25.843971 
L 136.276567 23.802303 
L 136.396839 29.40314 
L 136.677867 27.845491 
L 136.827288 20.826223 
L 136.913426 20.612037 
L 136.96937 20.637212 
L 137.05123 18.381488 
L 137.240535 17.25933 
L 137.411994 13.211292 
L 137.686664 21.373985 
L 137.756685 20.142742 
L 137.858315 19.909225 
L 137.928069 19.344734 
L 138.100427 23.3603 
L 138.185087 23.230029 
L 138.237121 19.273887 
L 138.323007 20.929944 
L 138.407878 20.200445 
L 138.547043 24.274432 
L 138.892764 16.845143 
L 139.043283 19.391729 
L 139.180922 14.213403 
L 139.300821 13.892191 
L 139.404365 16.434174 
L 139.45607 16.305074 
L 139.66487 17.555415 
L 139.748319 13.777426 
L 139.833322 15.692929 
L 139.886595 14.712032 
L 140.097051 10.996396 
L 140.527905 16.517826 
L 140.607036 20.817381 
L 140.675352 21.380134 
L 140.864745 23.487093 
L 140.88216 22.992761 
L 140.958712 23.393137 
L 141.042523 22.691302 
L 141.088354 23.463553 
L 141.454325 15.778362 
L 141.677727 23.846262 
L 141.78171 20.593998 
L 141.798074 21.946899 
L 142.11273 19.484272 
L 142.182493 20.542344 
L 142.39167 13.359781 
L 142.438913 15.470759 
L 142.526195 12.887088 
L 143.09125 25.822407 
L 143.298548 27.671216 
L 143.457171 23.931582 
L 143.724992 21.030617 
L 143.876626 17.367049 
L 143.945541 18.706412 
L 144.065646 16.02705 
L 144.2043 21.912044 
L 144.392067 17.637551 
L 144.425991 18.915979 
L 144.580904 19.309301 
L 144.700675 18.475474 
L 144.752107 23.063686 
L 144.821169 22.242542 
L 144.994928 15.631501 
L 145.079467 19.22178 
L 145.14834 17.480573 
L 145.21655 17.793948 
L 145.353982 20.546592 
L 145.526495 17.302872 
L 145.85301 28.016135 
L 146.07407 23.614958 
L 146.266531 24.802847 
L 146.402218 21.530023 
L 146.576499 14.193058 
L 146.626981 17.261523 
L 146.695377 17.016008 
L 146.763598 18.972035 
L 146.849252 16.769922 
L 146.918654 17.716072 
L 146.989497 17.072863 
L 147.262714 21.698801 
L 147.401872 21.092966 
L 147.416978 23.16407 
L 147.576203 22.506829 
L 147.676605 23.024549 
L 147.74707 23.989474 
L 147.845982 18.003364 
L 147.917788 18.029328 
L 148.054549 21.790589 
L 148.122359 20.748245 
L 148.244192 23.596946 
L 148.276209 22.747844 
L 148.328076 22.300547 
L 148.413874 23.300127 
L 148.620083 26.935665 
L 148.759376 19.916183 
L 148.829226 20.975795 
L 148.901454 19.524272 
L 148.980426 21.105682 
L 149.049799 20.42074 
L 149.118654 20.667335 
L 149.187124 17.703463 
L 149.25575 19.599428 
L 149.344624 18.349425 
L 149.548938 26.139576 
L 149.686634 24.441479 
L 149.892611 26.04763 
L 149.928368 29.499541 
L 150.031326 28.900763 
L 150.184802 23.668579 
L 150.253534 25.030597 
L 150.463817 22.536151 
L 150.607665 21.063451 
L 150.658416 18.189336 
L 150.683145 19.367216 
L 150.759753 20.621636 
L 150.873264 20.433217 
L 150.958877 15.614011 
L 151.028581 17.29231 
L 151.149029 17.464514 
L 151.322294 23.770734 
L 151.406604 22.517821 
L 151.81864 33.536662 
L 152.094894 29.652624 
L 152.116493 30.8938 
L 152.208229 29.323403 
L 152.276302 30.861721 
L 152.523098 25.074908 
L 152.745779 21.569543 
L 153.382021 12.717764 
L 153.587376 15.63098 
L 153.675015 13.944898 
L 153.879177 19.066328 
L 153.965174 18.882118 
L 154.226797 23.012328 
L 154.294435 21.171098 
L 154.394557 21.542564 
L 154.465566 19.989701 
L 154.535325 22.465002 
L 154.584761 21.814163 
L 154.741536 24.43813 
L 154.80892 23.64947 
L 154.877581 21.626547 
L 154.946802 22.285226 
L 155.104275 24.541278 
L 155.395393 13.654413 
L 155.515868 14.920737 
L 155.687685 18.556191 
L 155.758738 17.753796 
L 155.876155 21.875518 
L 155.945862 22.417744 
L 156.099664 26.870476 
L 156.150847 26.391374 
L 156.391851 21.986475 
L 156.442699 24.548086 
L 156.614824 22.365966 
L 156.667931 22.580296 
L 156.842932 19.727985 
L 156.872412 16.429546 
L 156.941376 17.574561 
L 157.026768 18.58903 
L 157.216307 14.94851 
L 157.422378 11.918852 
L 157.645391 16.765749 
L 157.73143 16.177066 
L 157.799772 18.514286 
L 157.956065 15.807439 
L 158.006803 17.866813 
L 158.074979 14.164272 
L 158.148794 15.332805 
L 158.213112 15.986197 
L 158.470829 19.572878 
L 158.508139 18.734016 
L 158.847575 28.31368 
L 159.13317 23.527418 
L 159.271432 23.413931 
L 159.283981 24.061819 
L 159.351921 22.277535 
L 159.423782 22.113713 
L 159.512118 21.074353 
L 159.561393 18.931083 
L 159.835545 23.02454 
L 159.854042 20.924701 
L 159.941678 22.031901 
L 160.181069 24.51624 
L 160.199792 23.607936 
L 160.407176 26.876746 
L 160.474198 25.940702 
L 160.559203 28.388542 
L 160.621 28.09999 
L 160.722391 28.980588 
L 160.921814 31.799941 
L 161.154303 26.603375 
L 161.341317 28.948744 
L 161.409491 24.396369 
L 161.47814 25.725277 
L 161.551126 24.635232 
L 161.633016 24.998303 
L 161.68745 28.805207 
L 161.770083 28.445018 
L 161.839576 28.788469 
L 162.079749 23.846795 
L 162.133898 24.716886 
L 162.407285 16.693671 
L 162.474554 17.517742 
L 162.612437 23.250689 
L 162.680787 23.152929 
L 162.749893 21.76293 
L 162.835322 22.035293 
L 162.903557 23.731469 
L 162.972275 22.16086 
L 163.10951 26.866695 
L 163.183035 25.57406 
L 163.324157 20.266851 
L 163.712455 25.603513 
L 163.748565 25.440825 
L 163.818369 24.018004 
L 163.887728 24.790424 
L 164.040796 29.940989 
L 164.179112 28.658049 
L 164.247997 29.395331 
L 164.316562 28.845353 
L 164.745979 19.209239 
L 164.814077 18.847573 
L 164.951585 14.549879 
L 164.968666 17.339623 
L 165.024169 16.185373 
L 165.106809 18.910533 
L 165.198932 18.759787 
L 165.312354 17.983659 
L 165.381071 18.011388 
L 165.590054 22.531578 
L 165.674837 21.976834 
L 165.810692 18.209016 
L 166.01693 25.922118 
L 166.171029 24.838859 
L 166.226913 25.237413 
L 166.292342 27.313944 
L 166.395527 27.197902 
L 166.531036 30.538373 
L 166.583337 29.835718 
L 166.730072 25.637274 
L 166.88664 27.038609 
L 167.029562 22.876311 
L 167.115674 25.501841 
L 167.167116 24.16875 
L 167.218663 23.614514 
L 167.294198 24.059042 
L 167.310499 22.889286 
L 167.374752 24.852919 
L 167.597852 21.505793 
L 167.669909 23.032988 
L 167.722415 22.380506 
L 167.909556 20.957944 
L 167.926948 21.87918 
L 168.010889 20.851087 
L 168.285813 25.797533 
L 168.375636 23.991911 
L 168.441517 25.502765 
L 168.510776 25.48546 
L 168.667095 22.827084 
L 168.721669 24.615809 
L 168.802968 24.029146 
L 168.879853 24.291518 
L 168.93952 22.99661 
L 169.024818 23.729123 
L 169.159725 21.106168 
L 169.351305 27.128595 
L 169.436955 23.565344 
L 169.5722 26.538399 
L 169.640962 26.48993 
L 169.728764 26.065515 
L 169.784723 29.100326 
L 169.847689 28.539437 
L 170.122305 25.5969 
L 170.192051 26.315494 
L 170.294615 20.01281 
L 170.483113 15.194176 
L 170.509537 13.532537 
L 170.586373 14.871031 
L 170.792355 11.595165 
L 170.933949 13.859652 
L 171.07766 20.586588 
L 171.141852 19.642234 
L 171.257828 19.037706 
L 171.346006 21.845822 
L 171.360721 21.824117 
L 171.550653 26.898514 
L 171.584858 25.167009 
L 171.654093 28.353498 
L 171.847189 24.775091 
L 171.919433 26.631559 
L 172.173705 22.593556 
L 172.346925 15.952325 
L 172.414252 19.37698 
L 172.483069 18.273087 
L 172.585536 20.637734 
L 172.688512 18.603677 
L 172.965248 22.898123 
L 173.067259 27.986598 
L 173.272675 25.364555 
L 173.341855 25.695217 
L 173.410516 27.27991 
L 173.4799 24.746442 
L 173.61709 26.22357 
L 173.668012 25.929329 
L 173.7717 19.287898 
L 173.882566 20.338622 
L 173.964374 21.357653 
L 174.136357 17.553015 
L 174.300498 17.733975 
L 174.496749 23.804046 
L 174.617351 18.451041 
L 174.710152 19.464606 
L 174.858378 23.99783 
L 174.909477 23.53596 
L 175.047874 20.821396 
L 175.134367 21.818135 
L 175.202951 18.667657 
L 175.322066 27.750408 
L 175.425793 29.78084 
L 175.614825 27.127264 
L 175.751892 33.266451 
L 175.964462 28.184682 
L 176.202256 24.457446 
L 176.396897 25.026036 
L 176.541845 21.718075 
L 176.869062 29.354474 
L 177.041138 22.827017 
L 177.264466 23.763906 
L 177.316187 22.674833 
L 177.522458 25.765381 
L 177.608544 25.211921 
L 177.797843 27.897277 
L 177.866515 26.032926 
L 178.125646 29.169328 
L 178.210302 27.813992 
L 178.245326 27.848746 
L 178.312448 29.32031 
L 178.381246 29.014657 
L 178.623589 27.907312 
L 178.673369 28.158803 
L 178.741555 28.113851 
L 178.949038 23.027505 
L 179.000031 24.128668 
L 179.085269 25.794855 
L 179.223459 23.24586 
L 179.31107 25.794527 
L 179.446367 22.772677 
L 179.517213 23.090585 
L 179.618159 26.033501 
L 179.893338 20.762679 
L 180.098419 17.625652 
L 180.307986 13.316049 
L 180.435739 12.722667 
L 180.464145 13.090407 
L 180.615626 19.283946 
L 180.668287 17.121243 
L 180.737046 18.784553 
L 180.805675 19.197581 
L 181.011827 26.409447 
L 181.082859 26.993172 
L 181.151619 26.001279 
L 181.294007 22.595149 
L 181.391259 25.520178 
L 181.442664 25.098363 
L 181.52011 24.943686 
L 181.581257 20.847979 
L 181.649337 21.626801 
L 181.718028 21.263902 
L 181.78741 23.398985 
L 181.873153 21.826934 
L 181.9262 22.933042 
L 182.078305 20.364363 
L 182.146703 17.516216 
L 182.44012 20.825066 
L 182.531409 20.984364 
L 182.59235 20.935762 
L 182.644189 17.814295 
L 182.798334 18.183025 
L 182.867498 22.048714 
L 182.953717 21.848642 
L 183.057283 21.984537 
L 183.248531 18.468907 
L 183.401585 22.988882 
L 183.505814 21.817361 
L 183.588926 20.457329 
L 183.662575 23.83983 
L 183.7263 22.157745 
L 183.830047 20.689281 
L 183.935011 24.078611 
L 184.003229 23.19809 
L 184.140865 22.170841 
L 184.29048 19.148238 
L 184.449676 14.30873 
L 184.52037 16.361509 
L 184.692504 12.154495 
L 184.845926 15.365707 
L 185.035111 21.43986 
L 185.052417 24.347685 
L 185.137594 24.028429 
L 185.207091 21.306096 
L 185.277353 22.358009 
L 185.344593 23.502207 
L 185.501857 18.771172 
L 185.54955 21.735246 
L 185.621863 20.11914 
L 185.79079 17.327579 
L 185.927612 24.593853 
L 185.986621 23.581418 
L 186.205278 28.112312 
L 186.340331 22.066789 
L 186.443176 24.014234 
L 186.504643 23.215314 
L 186.632493 16.480798 
L 186.701436 16.95065 
L 186.838054 13.9049 
L 186.90818 14.299585 
L 187.044086 19.936084 
L 187.198618 17.251322 
L 187.255707 19.945961 
L 187.336557 19.292044 
L 187.405528 19.646317 
L 187.56258 22.007714 
L 187.698347 21.47044 
L 187.767581 19.671712 
L 188.057937 24.366383 
L 188.144615 24.560014 
L 188.196515 23.17262 
L 188.332158 25.473393 
L 188.469944 26.997284 
L 188.755106 23.143578 
L 188.830981 20.826413 
L 188.899757 23.072047 
L 188.98584 21.342066 
L 189.037019 24.462009 
L 189.114235 23.174747 
L 189.319362 21.757557 
L 189.585987 24.935451 
L 189.741987 19.35988 
L 189.812849 19.112906 
L 189.999712 16.729267 
L 190.051477 16.695699 
L 190.205858 14.08278 
L 190.31088 20.267529 
L 190.394348 20.059892 
L 190.532052 16.445501 
L 190.875346 24.314568 
L 190.932079 23.700388 
L 191.030007 19.072576 
L 191.09958 19.679218 
L 191.167827 20.130115 
L 191.373682 22.578827 
L 191.597478 19.950683 
L 191.775728 25.202374 
L 191.820791 22.624734 
L 191.891621 24.949585 
L 192.027607 22.981142 
L 192.146746 24.160505 
L 192.250787 21.295787 
L 192.370774 22.664771 
L 192.440316 22.489186 
L 192.59451 27.039782 
L 192.680315 26.653279 
L 192.801222 27.771302 
L 192.937894 27.515395 
L 193.042638 30.309253 
L 193.231692 28.021817 
L 193.525076 17.780516 
L 193.595627 17.576229 
L 193.749724 14.739434 
L 193.800904 15.735318 
L 193.936736 16.19448 
L 194.14655 25.623598 
L 194.299751 25.053004 
L 194.377852 26.614893 
L 194.442026 26.453756 
L 194.718493 23.040078 
L 195.301086 30.659617 
L 195.369847 27.528467 
L 195.422861 28.280708 
L 195.57726 25.060965 
L 195.650942 22.524131 
L 195.720185 24.355059 
L 195.782834 24.262399 
L 195.869533 23.772834 
L 195.929017 20.8673 
L 196.007118 21.020833 
L 196.102655 22.208915 
L 196.231453 19.060467 
L 196.318345 19.797698 
L 196.369926 20.936333 
L 196.575972 17.296 
L 196.593502 20.395516 
L 196.646054 19.05136 
L 196.785513 14.788858 
L 196.940053 17.788052 
L 197.21275 25.949335 
L 197.284059 26.249516 
L 197.352169 25.525574 
L 197.489295 30.089317 
L 197.575441 30.267287 
L 197.988842 20.584928 
L 198.056962 25.192377 
L 198.165301 23.896479 
L 198.298094 25.636803 
L 198.504179 17.701802 
L 198.598186 17.907807 
L 198.611252 17.776682 
L 198.69644 20.029124 
L 198.9061 12.950912 
L 198.973793 12.536119 
L 199.059329 13.565074 
L 199.266135 18.543717 
L 199.45492 16.822576 
L 199.488832 16.971345 
L 199.629705 18.424164 
L 199.763576 21.946866 
L 199.850802 21.406673 
L 199.901306 24.138272 
L 200.125054 19.621965 
L 200.22877 19.44392 
L 200.399566 16.430853 
L 200.623364 19.409606 
L 200.821066 21.051285 
L 201.208833 26.972405 
L 201.36174 22.849872 
L 201.447898 22.468081 
L 201.502381 22.775541 
L 201.56929 22.598629 
L 201.621086 20.817625 
L 201.673476 21.943198 
L 201.779275 21.709316 
L 201.83946 20.807809 
L 201.914501 17.234958 
L 201.999171 18.003269 
L 202.155789 20.854837 
L 202.260243 17.991497 
L 202.360156 18.395825 
L 202.399267 16.386165 
L 202.463964 18.331027 
L 202.534218 17.564721 
L 202.601965 20.013191 
L 202.671955 18.963603 
L 202.777375 18.442 
L 202.83057 14.801113 
L 202.904805 16.721645 
L 203.101872 20.56113 
L 203.184666 18.72269 
L 203.236645 20.008461 
L 203.320823 20.15788 
L 203.545044 27.710085 
L 203.666063 28.939797 
L 204.041926 24.209984 
L 204.18009 22.510513 
L 204.420685 16.542862 
L 204.454956 16.581371 
L 204.52363 17.203756 
L 204.609356 19.13829 
L 204.662244 17.991621 
L 204.743345 18.626376 
L 204.86739 18.499175 
L 204.906876 18.762207 
L 205.126118 23.337756 
L 205.161928 22.733356 
L 205.332023 21.056785 
L 205.420251 24.189554 
L 205.452037 23.699228 
L 205.555396 24.118067 
L 205.661807 25.053889 
L 205.851218 18.651775 
L 205.86849 21.798179 
L 206.091254 18.243028 
L 206.159945 20.87016 
L 206.229375 19.492754 
L 206.400859 13.978859 
L 206.589533 21.201521 
L 206.733523 18.027519 
L 206.796723 19.298849 
L 206.950143 17.288518 
L 207.226156 23.777476 
L 207.310825 23.476543 
L 207.466759 28.097827 
L 208.058607 16.845137 
L 208.092858 17.816367 
L 208.161333 16.036578 
L 208.283962 23.0021 
L 208.357046 23.908822 
L 208.573134 29.494143 
L 208.667066 31.380175 
L 208.710962 30.184276 
L 208.802925 30.026982 
L 209.073688 24.414173 
L 209.348415 27.768168 
L 209.483831 27.956021 
L 209.502968 27.861025 
L 209.572043 29.148583 
L 209.709857 24.770213 
L 209.778122 25.957328 
L 209.863968 24.654789 
L 209.920818 25.981633 
L 210.070045 15.784566 
L 210.18366 16.159341 
L 210.209179 15.109665 
L 210.471478 22.332873 
L 210.502858 18.378448 
L 210.639896 18.089198 
L 210.782489 21.833467 
L 210.950484 27.403351 
L 211.00005 27.329512 
L 211.239709 19.600458 
L 211.463367 22.491433 
L 211.550742 21.559631 
L 211.619606 21.202778 
L 211.703734 19.95565 
L 211.78965 20.791209 
L 211.9104 23.171499 
L 212.408345 13.553888 
L 212.478151 16.572093 
L 212.547592 14.310444 
L 212.562731 19.523957 
L 212.614753 18.967889 
L 212.838601 25.571575 
L 213.043702 20.619322 
L 213.13054 21.095029 
L 213.266671 21.550676 
L 213.307258 20.569738 
L 213.336349 22.571479 
L 213.476235 14.885222 
L 213.544494 18.588256 
L 213.833863 21.80553 
L 213.90343 17.507596 
L 213.988949 18.535247 
L 214.041597 17.772437 
L 214.218671 23.596264 
L 214.323181 19.395013 
L 214.352803 20.522894 
L 214.611949 29.826092 
L 214.680493 27.577878 
L 214.749925 28.284023 
L 214.860996 29.558283 
L 214.89253 25.904963 
L 214.958509 27.575506 
L 215.041998 26.648528 
L 215.318586 20.355418 
L 215.403933 21.402451 
L 215.471931 20.222569 
L 215.592649 20.825494 
L 215.695805 25.189953 
L 215.769548 24.75466 
L 215.904531 26.218551 
L 216.09357 30.362305 
L 216.676417 16.25211 
L 217.070262 27.323833 
L 217.15597 26.787417 
L 217.262842 27.554418 
L 217.346094 29.311109 
L 217.416738 28.80756 
L 217.606007 24.728991 
L 217.674544 25.263106 
L 217.731272 23.992213 
L 217.831344 24.565833 
L 217.914857 26.200754 
L 218.035137 23.410132 
L 218.086582 26.301169 
L 218.224142 20.415663 
L 218.360783 23.15309 
L 218.41271 22.290625 
L 218.596385 20.547462 
L 218.655419 23.392234 
L 218.739475 22.400492 
L 218.802612 22.478634 
L 218.945311 25.707666 
L 219.168597 20.02983 
L 219.307737 22.72753 
L 219.36001 21.248467 
L 219.375756 19.101352 
L 219.443865 21.664995 
L 219.58394 18.30568 
L 219.823518 20.744678 
L 219.878805 25.097943 
L 219.931164 25.009689 
L 220.082035 21.618527 
L 220.172324 22.224316 
L 220.263361 24.926838 
L 220.313508 24.173833 
L 220.381819 24.234203 
L 220.503217 23.21084 
L 220.570883 23.280835 
L 220.658721 21.560189 
L 220.725668 22.6246 
L 220.870628 22.115199 
L 221.137828 28.410677 
L 221.292141 24.65597 
L 221.414246 26.405643 
L 221.500732 27.064905 
L 221.639733 20.039942 
L 221.757645 21.859349 
L 221.895098 16.354572 
L 221.997744 19.751095 
L 222.054095 18.235549 
L 222.067267 18.196645 
L 222.303414 27.171834 
L 222.428157 25.092976 
L 222.49862 28.300586 
L 222.566502 28.23609 
L 222.789738 22.609959 
L 222.858315 23.066949 
L 222.943527 24.21616 
L 223.002599 21.162345 
L 223.063515 23.529941 
L 223.137165 24.587314 
L 223.236788 21.801963 
L 223.494346 30.093981 
L 223.630884 28.24487 
L 223.699963 28.893258 
L 223.992413 22.590973 
L 224.079305 21.550839 
L 224.287555 16.146776 
L 224.353489 16.248387 
L 224.369238 13.666041 
L 224.421782 16.833145 
L 224.627275 22.949196 
L 224.713816 23.857696 
L 224.833892 22.203891 
L 224.90272 22.768216 
L 224.988213 20.963627 
L 225.058731 21.219105 
L 225.124868 21.900049 
L 225.263071 18.263387 
L 225.400343 18.446274 
L 225.525586 19.942868 
L 225.624673 24.011841 
L 225.784601 24.892299 
L 225.880328 24.945345 
L 225.968188 28.243755 
L 226.053091 27.25198 
L 226.191475 24.880758 
L 226.258604 26.744539 
L 226.331905 25.69081 
L 226.415129 26.193512 
L 226.48601 25.72078 
L 226.709433 20.700958 
L 226.932636 24.157554 
L 227.070454 21.682719 
L 227.107247 24.287763 
L 227.192072 22.479682 
L 227.265777 23.824975 
L 227.466317 20.02766 
L 227.638824 17.332235 
L 227.689993 15.447716 
L 227.810319 16.347919 
L 227.87867 13.714363 
L 227.913028 15.291389 
L 228.016564 15.115324 
L 228.035855 17.63666 
L 228.102648 17.561895 
L 228.176658 18.185115 
L 228.325576 20.202008 
L 228.602067 17.216251 
L 228.687764 17.759954 
L 228.908442 20.261256 
L 229.03365 17.144505 
L 229.182551 19.271856 
L 229.303073 18.507169 
L 229.371434 19.512529 
L 229.405794 17.692123 
L 229.478215 20.710883 
L 229.543127 19.704174 
L 229.595199 18.600304 
L 229.663452 19.478448 
L 229.824868 22.660714 
L 229.886382 22.09629 
L 230.097175 27.357731 
L 230.298909 24.301085 
L 230.370508 24.918282 
L 230.454408 23.134685 
L 230.59201 25.09015 
L 230.661566 24.302414 
L 230.969243 16.512195 
L 231.056438 18.215637 
L 231.08941 16.449153 
L 231.188184 17.320903 
L 231.301318 14.546047 
L 231.52015 19.244943 
L 231.587944 16.38799 
L 231.810038 21.209391 
L 231.861838 19.92431 
L 232.032707 22.378486 
L 232.085851 19.211061 
L 232.358898 23.512488 
L 232.44506 22.349923 
L 232.582114 23.711568 
L 232.651451 23.6604 
L 232.86 18.055209 
L 232.926112 17.060918 
L 233.014062 20.228593 
L 233.080982 19.847 
L 233.151312 19.751496 
L 233.217662 18.30686 
L 233.510835 22.771269 
L 233.716025 20.822049 
L 233.85975 22.089645 
L 233.922595 19.311218 
L 234.010871 19.800478 
L 234.076435 19.308952 
L 234.283196 22.644261 
L 234.425344 20.018529 
L 234.492476 20.406028 
L 234.644855 22.106832 
L 234.712389 19.025632 
L 234.78048 20.067137 
L 234.919768 18.362851 
L 234.997349 20.134455 
L 235.056549 19.766226 
L 235.281275 15.025478 
L 235.417004 19.120761 
L 235.485695 17.623446 
L 235.556229 16.303578 
L 235.624257 18.837281 
L 235.711081 18.008705 
L 235.778729 18.748046 
L 235.849804 21.593797 
L 235.918523 21.174827 
L 236.074348 19.760021 
L 236.088649 26.076526 
L 236.157448 23.000832 
L 236.262169 26.835793 
L 236.345815 25.529173 
L 236.484786 27.729716 
L 236.586785 27.615374 
L 236.776516 30.057813 
L 236.914707 24.846432 
L 236.982413 27.195869 
L 237.050696 26.380832 
L 237.131504 25.927149 
L 237.137717 27.184572 
L 237.205486 18.950937 
L 237.382185 22.496803 
L 237.447154 23.038654 
L 237.54922 20.191415 
L 237.617299 20.912029 
L 237.702978 20.644157 
L 237.755471 20.844527 
L 237.836528 21.936214 
L 237.97802 27.628494 
L 238.064497 28.434941 
L 238.116028 26.844266 
L 238.185964 27.903682 
L 238.35726 30.136477 
L 238.752317 12.148387 
L 238.922765 10.259643 
L 239.11505 15.268717 
L 239.250611 20.441606 
L 239.320953 24.91757 
L 239.404257 24.403963 
L 239.542003 27.20941 
L 239.59984 31.225924 
L 239.632315 29.51305 
L 239.959102 21.37049 
L 240.042355 19.567999 
L 240.134668 22.844401 
L 240.196001 21.570416 
L 240.283832 18.988093 
L 240.316418 20.587789 
L 240.437625 21.332421 
L 240.557955 22.50087 
L 240.676976 23.853704 
L 241.107409 13.248642 
L 241.657575 26.336813 
L 241.727321 23.771812 
L 241.829942 29.664808 
L 241.89771 28.53128 
L 242.326577 17.276465 
L 242.344746 17.498522 
L 242.430522 19.5415 
L 242.5176 14.68787 
L 242.602021 13.422896 
L 242.739717 15.660672 
L 242.85972 16.083593 
L 242.946306 14.828004 
L 243.014396 17.469439 
L 243.100245 15.67692 
L 243.18572 16.169666 
L 243.255677 15.917052 
L 243.306929 16.302344 
L 243.375706 16.07806 
L 243.462614 13.955155 
L 243.60909 16.702266 
L 243.690779 18.806183 
L 243.790511 16.529772 
L 243.944999 23.111464 
L 244.133642 22.560961 
L 244.223348 23.924426 
L 244.236628 23.102588 
L 244.30599 22.889411 
L 244.394271 22.195881 
L 244.494528 22.428066 
L 244.515002 20.403459 
L 244.581951 22.607221 
L 244.65043 22.215905 
L 244.805138 23.979148 
L 245.0111 26.560129 
L 245.087227 26.298388 
L 245.285648 19.824216 
L 245.390734 19.636334 
L 245.509771 20.186776 
L 245.647326 20.200089 
L 245.663429 21.497985 
L 245.715393 20.027842 
L 245.785047 19.615003 
L 246.004546 26.294816 
L 246.074745 25.324711 
L 246.211324 23.795073 
L 246.282755 23.579575 
L 246.364883 19.562886 
L 246.502025 23.523351 
L 246.707381 19.248577 
L 246.93043 23.541393 
L 246.999114 23.187723 
L 247.06791 23.94938 
L 247.139167 23.424576 
L 247.343957 19.035188 
L 247.41525 19.206583 
L 247.566619 16.074366 
L 247.634697 16.873187 
L 247.705279 17.257771 
L 247.772318 18.378188 
L 247.843422 17.365738 
L 247.995877 21.685683 
L 248.064329 21.293087 
L 248.133645 21.42964 
L 248.202282 19.467432 
L 248.278597 20.39796 
L 248.341798 18.934862 
L 248.415349 19.470956 
L 248.51738 19.136683 
L 248.562668 19.365107 
L 248.633956 19.510628 
L 248.768948 20.773741 
L 248.837855 18.473393 
L 248.907824 19.736097 
L 248.924136 22.387995 
L 248.992829 19.88797 
L 249.198956 22.610161 
L 249.490542 20.756584 
L 249.6807 25.787834 
L 249.731575 26.716184 
L 249.869477 22.909866 
L 249.920144 22.890991 
L 250.110413 26.687408 
L 250.199359 26.90145 
L 250.281467 26.697028 
L 250.333232 26.97353 
L 250.430033 26.532129 
L 250.470381 27.937101 
L 250.908735 16.078218 
L 250.976916 15.074845 
L 251.184116 18.116638 
L 251.407177 18.944113 
L 251.475268 18.821481 
L 251.612786 18.293797 
L 251.69921 16.325083 
L 251.835592 9.143766 
L 252.007109 12.602078 
L 252.041641 10.463787 
L 252.144937 11.175973 
L 252.28271 10.360472 
L 252.403178 15.026815 
L 252.472812 19.869402 
L 252.677826 14.64681 
L 252.781074 16.212573 
L 252.832372 14.062119 
L 252.988974 17.281048 
L 253.182577 12.263097 
L 253.356169 15.726413 
L 253.392105 16.543106 
L 253.462728 16.390551 
L 253.532832 24.321947 
L 253.612989 21.148647 
L 253.753102 19.369103 
L 253.924196 20.858811 
L 253.995282 18.290799 
L 254.043686 18.695058 
L 254.094981 20.125293 
L 254.330831 17.198726 
L 254.387175 17.702316 
L 254.629591 23.486018 
L 254.679849 23.434967 
L 254.749586 23.121411 
L 254.81831 23.521807 
L 255.041706 26.668629 
L 255.099924 26.670641 
L 255.163403 26.968815 
L 255.231178 26.565457 
L 255.39554 28.882582 
L 255.508621 27.926055 
L 255.736461 22.349476 
L 255.867496 24.274275 
L 255.884614 23.139171 
L 256.004664 24.431371 
L 256.048515 19.149925 
L 256.090808 20.752687 
L 256.16099 20.264917 
L 256.453434 24.833711 
L 256.513204 22.069385 
L 256.593512 22.888032 
L 256.734259 21.68394 
L 256.762062 25.111491 
L 256.814272 23.423721 
L 256.954329 24.228583 
L 257.095996 27.198377 
L 257.159144 26.042688 
L 257.32329 29.01198 
L 257.392247 28.684717 
L 257.48721 25.758555 
L 257.52332 27.932822 
L 257.591169 29.396481 
L 257.899653 19.394337 
L 257.933425 20.591167 
L 258.106273 17.884852 
L 258.156807 20.438205 
L 258.346612 16.39585 
L 258.380543 16.915996 
L 258.588363 21.573456 
L 258.744055 20.656738 
L 258.811051 23.220864 
L 258.861834 21.63753 
L 258.934635 22.317472 
L 259.01654 20.632293 
L 259.225813 22.009631 
L 259.274979 18.884891 
L 259.309164 21.335479 
L 259.497922 17.055066 
L 259.570297 15.908776 
L 259.636853 17.673056 
L 259.705226 17.34949 
L 259.721458 16.838753 
L 259.790509 17.265596 
L 259.879799 16.410338 
L 259.929218 17.149709 
L 260.014294 16.250526 
L 260.134549 19.452573 
L 260.237748 19.72815 
L 260.306152 20.857218 
L 260.361245 19.557206 
L 260.445051 25.257312 
L 260.51785 23.715468 
L 260.601222 24.650396 
L 260.754155 22.80084 
L 260.872793 22.975384 
L 260.959003 19.522461 
L 261.027699 19.652798 
L 261.080195 19.439676 
L 261.167341 18.167473 
L 261.183572 13.176337 
L 261.256318 14.993659 
L 261.325773 15.86871 
L 261.439944 22.022095 
L 261.491179 19.998018 
L 261.560871 20.812751 
L 261.654123 21.066507 
L 261.703527 19.782734 
L 261.93932 23.950194 
L 262.059359 21.193919 
L 262.213637 16.937661 
L 262.346146 17.003736 
L 262.353696 13.64719 
L 262.419991 15.590649 
L 262.488396 15.517102 
L 262.597434 14.589519 
L 262.628386 16.527617 
L 262.695166 16.247542 
L 262.763402 15.16858 
L 263.055344 21.843513 
L 263.124507 21.851953 
L 263.193009 20.278139 
L 263.264541 21.798123 
L 263.331782 19.427723 
L 263.40013 19.649091 
L 263.488034 19.274968 
L 263.622395 20.296082 
L 263.678533 15.995031 
L 263.691405 19.731946 
L 263.846358 26.329753 
L 263.932368 27.182288 
L 264.121102 23.251717 
L 264.19197 22.391719 
L 264.326448 23.003467 
L 264.344082 24.152113 
L 264.552105 16.60926 
L 264.692785 12.646377 
L 264.782097 13.267744 
L 264.969757 10.897541 
L 265.05512 10.366663 
L 265.106885 10.545746 
L 265.242938 10.820455 
L 265.296157 11.648116 
L 265.467476 17.336019 
L 265.520661 18.566733 
L 265.570993 18.298689 
L 265.641052 18.450912 
L 265.69275 18.148465 
L 265.880217 21.430318 
L 265.897651 25.115979 
L 265.992939 24.280501 
L 266.121642 21.444213 
L 266.541873 31.007804 
L 266.641115 28.613611 
L 266.692605 31.148726 
L 266.744382 30.35953 
L 266.891126 30.901782 
L 267.117193 24.056386 
L 267.17767 24.059924 
L 267.246766 22.879143 
L 267.348521 23.548744 
L 267.484691 20.831622 
L 267.484822 21.21049 
L 267.605152 21.898534 
L 267.830059 27.59284 
L 267.966609 21.686688 
L 268.175738 18.036823 
L 268.29346 18.857162 
L 268.328529 18.27127 
L 268.447774 18.541672 
L 268.553258 15.326359 
L 268.671639 19.199528 
L 268.756761 19.857703 
L 268.844815 18.61214 
L 268.889045 19.527865 
L 268.998441 19.241178 
L 269.031973 20.051722 
L 269.170176 17.143129 
L 269.546686 23.935451 
L 269.597975 22.516452 
L 269.676678 22.73338 
L 269.736422 25.013472 
L 269.828255 25.809578 
L 270.01614 23.4225 
L 270.097799 27.597506 
L 270.305041 26.894489 
L 270.374928 26.891226 
L 270.443696 22.289912 
L 270.509702 24.368805 
L 270.698483 27.547142 
L 270.752062 26.325592 
L 270.820324 20.688941 
L 270.869824 21.492627 
L 270.938697 21.427951 
L 271.058883 22.954189 
L 271.076386 20.779546 
L 271.147534 25.117929 
L 271.377159 21.385804 
L 271.442935 21.568732 
L 271.518465 26.376509 
L 271.6507 21.269225 
L 271.747264 20.402951 
L 271.799966 21.484352 
L 271.869019 16.310526 
L 271.93574 16.41794 
L 272.039061 16.786326 
L 272.11263 17.805984 
L 272.141926 20.256817 
L 272.210589 17.364344 
L 272.426266 23.124407 
L 272.519511 21.287586 
L 272.674123 27.334099 
L 272.726212 27.92738 
L 272.811124 27.634976 
L 272.897388 27.147883 
L 273.068949 31.138974 
L 273.138315 30.808326 
L 273.224436 32.693939 
L 273.430432 26.904104 
L 273.567654 24.563366 
L 273.860562 17.426271 
L 274.191333 20.565807 
L 274.220858 20.010411 
L 274.359919 20.465193 
L 274.411179 20.961263 
L 274.496061 20.547087 
L 274.58183 23.078437 
L 274.633343 22.878626 
L 274.806045 21.663423 
L 274.925902 23.278289 
L 275.064071 20.428702 
L 275.237017 23.301216 
L 275.273374 21.922445 
L 275.390132 22.700314 
L 275.441481 25.726611 
L 275.493199 23.760853 
L 275.580968 23.027247 
L 275.702122 24.752112 
L 275.768116 24.706366 
L 275.872529 23.18581 
L 275.906454 20.919661 
L 275.974812 21.836628 
L 276.265967 18.006276 
L 276.405957 22.82131 
L 276.473701 25.062963 
L 276.489208 22.873279 
L 276.562618 22.692755 
L 276.662832 22.849298 
L 276.798469 20.027948 
L 276.867478 20.643769 
L 276.987605 23.967203 
L 277.194488 20.48025 
L 277.388421 21.922335 
L 277.47132 24.050878 
L 277.692263 22.434623 
L 277.762001 22.788248 
L 277.898677 19.118055 
L 277.966839 19.248134 
L 278.05229 18.675305 
L 278.139161 19.829887 
L 278.19022 18.108487 
L 278.275701 18.27253 
L 278.3482 16.794707 
L 278.39738 18.124204 
L 278.464944 15.424766 
L 278.628696 19.285304 
L 278.723211 19.562054 
L 278.825936 17.507822 
L 279.049059 20.908294 
L 279.113978 19.996073 
L 279.182493 21.914234 
L 279.318004 20.603609 
L 279.67728 27.133871 
L 279.920664 23.987682 
L 279.96107 26.077333 
L 280.108413 24.628727 
L 280.177399 25.032071 
L 280.349706 22.821385 
L 280.418834 20.283026 
L 280.453986 21.366738 
L 280.607156 25.333245 
L 280.660725 23.746948 
L 280.744583 24.172104 
L 281.019531 27.522044 
L 281.24195 24.108189 
L 281.312889 25.610091 
L 281.380149 24.941574 
L 281.451321 25.259194 
L 281.52061 26.754142 
L 281.591063 25.437807 
L 281.673588 25.650852 
L 281.878514 28.058242 
L 281.9485 24.433823 
L 282.033585 25.099237 
L 282.15621 26.737377 
L 282.224415 24.479615 
L 282.308817 26.081044 
L 282.381208 25.911207 
L 282.541524 23.65229 
L 282.550105 25.664384 
L 282.584783 22.060791 
L 282.740623 17.55155 
L 282.877724 18.070128 
L 282.949544 18.047461 
L 283.018304 18.470711 
L 283.083966 18.084293 
L 283.429045 31.901087 
L 283.58307 27.996951 
L 283.651237 28.696173 
L 283.858615 18.968146 
L 283.940988 19.330954 
L 284.013462 13.414046 
L 284.081842 14.797191 
L 284.236546 11.943301 
L 284.479111 16.234072 
L 284.632049 18.115186 
L 284.717581 23.55667 
L 284.837165 22.977046 
L 284.895476 24.105624 
L 285.025542 30.835917 
L 285.198755 31.833042 
L 285.283878 30.024661 
L 285.318211 34.173089 
L 285.369509 32.171038 
L 285.456252 28.68057 
L 285.561273 28.69958 
L 285.869145 22.729493 
L 285.952076 25.094272 
L 286.057992 22.372067 
L 286.124742 22.77757 
L 286.211257 19.406589 
L 286.280233 19.949262 
L 286.349647 20.198166 
L 286.468099 21.348195 
L 286.588235 26.690388 
L 286.643332 26.310874 
L 286.69233 23.567448 
L 286.806004 24.251218 
L 286.846679 23.553425 
L 286.939861 24.008951 
L 287.019567 23.275907 
L 287.330914 11.773627 
L 287.521634 15.146768 
L 287.56787 17.016859 
L 287.637097 16.210466 
L 287.936484 23.113262 
L 288.016418 22.04279 
L 288.188231 19.949555 
L 288.279565 17.208054 
L 288.342209 18.424174 
L 288.514257 17.709956 
L 288.667515 14.219109 
L 288.707292 15.272665 
L 288.779816 14.149638 
L 288.839954 14.714552 
L 288.976693 17.218909 
L 289.046391 15.86441 
L 289.201576 15.986206 
L 289.27081 14.426296 
L 289.423823 17.984422 
L 289.613169 18.475877 
L 289.767941 21.258329 
L 289.820876 20.737077 
L 289.906788 21.660052 
L 289.975986 21.358985 
L 290.264877 23.759117 
L 290.471866 20.597961 
L 290.664585 23.098788 
L 290.712436 26.974542 
L 290.781423 26.622454 
L 290.918463 23.245289 
L 291.030065 22.54416 
L 291.118954 22.685551 
L 291.199185 22.874905 
L 291.340446 21.304779 
L 291.427749 16.409188 
L 291.464638 17.956045 
L 291.623478 21.471122 
L 291.693532 21.112361 
L 291.829832 21.623752 
L 291.932942 20.424544 
L 292.056106 23.161358 
L 292.10693 21.998767 
L 292.345437 16.005569 
L 292.43598 16.756107 
L 292.465605 16.734825 
L 292.534053 16.300581 
L 293.101678 29.031097 
L 293.170674 28.741895 
L 293.256734 28.955864 
L 293.324886 30.747522 
L 293.606296 23.232223 
L 293.668832 28.172886 
L 293.738263 28.044493 
L 293.823582 27.358211 
L 293.876542 27.974578 
L 294.014154 22.937721 
L 294.082192 23.166297 
L 294.168652 22.695886 
L 294.270227 23.73208 
L 294.563724 15.96606 
L 294.616688 16.865622 
L 294.668148 20.152137 
L 294.806885 15.203225 
L 294.877902 16.693722 
L 294.946822 15.368872 
L 295.01794 16.287473 
L 295.241974 22.535904 
L 295.42708 24.69087 
L 295.587917 29.82591 
L 295.65211 29.56055 
L 295.806256 26.754224 
L 295.874139 24.881688 
L 295.943621 26.933898 
L 296.082126 22.614204 
L 296.097705 26.572598 
L 296.247873 20.775486 
L 296.286746 21.105098 
L 296.50944 24.367603 
L 296.647354 19.954765 
L 297.016619 28.670062 
L 297.09002 28.565669 
L 297.163987 30.120889 
L 297.214127 28.499307 
L 297.295217 32.301422 
L 297.364402 31.395754 
L 297.514933 25.831972 
L 297.602343 26.001001 
L 297.883524 19.102871 
L 297.929554 21.137789 
L 297.997128 18.421644 
L 298.082629 19.023467 
L 298.169045 21.438062 
L 298.220258 18.352811 
L 298.288667 19.147291 
L 298.391786 19.383265 
L 298.494776 18.34113 
L 298.598824 16.901813 
L 298.705202 20.331021 
L 298.92386 15.190108 
L 299.03377 13.479943 
L 299.219863 17.325578 
L 299.285813 17.784775 
L 299.355169 15.924926 
L 299.458281 16.082439 
L 299.520256 16.809453 
L 299.801681 23.995089 
L 299.85535 22.980515 
L 300.009522 25.985652 
L 300.12893 25.654006 
L 300.249437 23.409485 
L 300.283173 25.472904 
L 300.339452 23.105174 
L 300.751158 12.015405 
L 300.818206 12.849164 
L 300.909523 13.902805 
L 301.041743 13.383739 
L 301.076216 16.539199 
L 301.184612 14.495442 
L 301.41946 24.664622 
L 301.490828 22.262465 
L 301.574047 22.830538 
L 301.660604 23.305494 
L 301.711969 19.132007 
L 301.797014 24.244154 
L 301.831786 22.828961 
L 302.068086 17.871945 
L 302.296493 21.834987 
L 302.381509 19.762069 
L 302.415963 23.418472 
L 302.477011 19.708113 
L 302.555212 17.135636 
L 302.691216 17.99226 
L 302.744159 17.577436 
L 302.760625 18.681132 
L 302.760625 18.681132 
" clip-path="url(#pe7d49178da)" style="fill: none; stroke: #ff0000; stroke-opacity: 0.5; stroke-width: 3; stroke-linecap: square"/>
   </g>
   <g id="patch_3">
    <path d="M 23.760625 139.32 
L 23.760625 0.72 
" style="fill: none; stroke: #000000; stroke-width: 0.8; stroke-linejoin: miter; stroke-linecap: square"/>
   </g>
   <g id="patch_4">
    <path d="M 302.760625 139.32 
L 302.760625 0.72 
" style="fill: none; stroke: #000000; stroke-width: 0.8; stroke-linejoin: miter; stroke-linecap: square"/>
   </g>
   <g id="patch_5">
    <path d="M 23.760625 139.32 
L 302.760625 139.32 
" style="fill: none; stroke: #000000; stroke-width: 0.8; stroke-linejoin: miter; stroke-linecap: square"/>
   </g>
   <g id="patch_6">
    <path d="M 23.760625 0.72 
L 302.760625 0.72 
" style="fill: none; stroke: #000000; stroke-width: 0.8; stroke-linejoin: miter; stroke-linecap: square"/>
   </g>
   <g id="legend_1">
    <g id="patch_7">
     <path d="M 221.991875 86.198125 
L 295.760625 86.198125 
Q 297.760625 86.198125 297.760625 84.198125 
L 297.760625 55.841875 
Q 297.760625 53.841875 295.760625 53.841875 
L 221.991875 53.841875 
Q 219.991875 53.841875 219.991875 55.841875 
L 219.991875 84.198125 
Q 219.991875 86.198125 221.991875 86.198125 
z
" style="fill: #ffffff; opacity: 0.8; stroke: #cccccc; stroke-linejoin: miter"/>
    </g>
    <g id="line2d_25">
     <path d="M 223.991875 61.940312 
L 233.991875 61.940312 
L 243.991875 61.940312 
" style="fill: none; stroke: #0000ff; stroke-opacity: 0.5; stroke-width: 3; stroke-linecap: square"/>
    </g>
    <g id="text_14">
     <!-- RNEA -->
     <g transform="translate(251.991875 65.440312) scale(0.1 -0.1)">
      <defs>
       <path id="DejaVuSans-52" d="M 2841 2188 
Q 3044 2119 3236 1894 
Q 3428 1669 3622 1275 
L 4263 0 
L 3584 0 
L 2988 1197 
Q 2756 1666 2539 1819 
Q 2322 1972 1947 1972 
L 1259 1972 
L 1259 0 
L 628 0 
L 628 4666 
L 2053 4666 
Q 2853 4666 3247 4331 
Q 3641 3997 3641 3322 
Q 3641 2881 3436 2590 
Q 3231 2300 2841 2188 
z
M 1259 4147 
L 1259 2491 
L 2053 2491 
Q 2509 2491 2742 2702 
Q 2975 2913 2975 3322 
Q 2975 3731 2742 3939 
Q 2509 4147 2053 4147 
L 1259 4147 
z
" transform="scale(0.015625)"/>
       <path id="DejaVuSans-45" d="M 628 4666 
L 3578 4666 
L 3578 4134 
L 1259 4134 
L 1259 2753 
L 3481 2753 
L 3481 2222 
L 1259 2222 
L 1259 531 
L 3634 531 
L 3634 0 
L 628 0 
L 628 4666 
z
" transform="scale(0.015625)"/>
       <path id="DejaVuSans-41" d="M 2188 4044 
L 1331 1722 
L 3047 1722 
L 2188 4044 
z
M 1831 4666 
L 2547 4666 
L 4325 0 
L 3669 0 
L 3244 1197 
L 1141 1197 
L 716 0 
L 50 0 
L 1831 4666 
z
" transform="scale(0.015625)"/>
      </defs>
      <use xlink:href="#DejaVuSans-52"/>
      <use xlink:href="#DejaVuSans-4e" x="69.482422"/>
      <use xlink:href="#DejaVuSans-45" x="144.287109"/>
      <use xlink:href="#DejaVuSans-41" x="207.470703"/>
     </g>
    </g>
    <g id="line2d_26">
     <path d="M 223.991875 76.618437 
L 233.991875 76.618437 
L 243.991875 76.618437 
" style="fill: none; stroke: #ff0000; stroke-opacity: 0.5; stroke-width: 3; stroke-linecap: square"/>
    </g>
    <g id="text_15">
     <!-- BURNEA -->
     <g transform="translate(251.991875 80.118437) scale(0.1 -0.1)">
      <defs>
       <path id="DejaVuSans-42" d="M 1259 2228 
L 1259 519 
L 2272 519 
Q 2781 519 3026 730 
Q 3272 941 3272 1375 
Q 3272 1813 3026 2020 
Q 2781 2228 2272 2228 
L 1259 2228 
z
M 1259 4147 
L 1259 2741 
L 2194 2741 
Q 2656 2741 2882 2914 
Q 3109 3088 3109 3444 
Q 3109 3797 2882 3972 
Q 2656 4147 2194 4147 
L 1259 4147 
z
M 628 4666 
L 2241 4666 
Q 2963 4666 3353 4366 
Q 3744 4066 3744 3513 
Q 3744 3084 3544 2831 
Q 3344 2578 2956 2516 
Q 3422 2416 3680 2098 
Q 3938 1781 3938 1306 
Q 3938 681 3513 340 
Q 3088 0 2303 0 
L 628 0 
L 628 4666 
z
" transform="scale(0.015625)"/>
       <path id="DejaVuSans-55" d="M 556 4666 
L 1191 4666 
L 1191 1831 
Q 1191 1081 1462 751 
Q 1734 422 2344 422 
Q 2950 422 3222 751 
Q 3494 1081 3494 1831 
L 3494 4666 
L 4128 4666 
L 4128 1753 
Q 4128 841 3676 375 
Q 3225 -91 2344 -91 
Q 1459 -91 1007 375 
Q 556 841 556 1753 
L 556 4666 
z
" transform="scale(0.015625)"/>
      </defs>
      <use xlink:href="#DejaVuSans-42"/>
      <use xlink:href="#DejaVuSans-55" x="68.603516"/>
      <use xlink:href="#DejaVuSans-52" x="141.796875"/>
      <use xlink:href="#DejaVuSans-4e" x="211.279297"/>
      <use xlink:href="#DejaVuSans-45" x="286.083984"/>
      <use xlink:href="#DejaVuSans-41" x="349.267578"/>
     </g>
    </g>
   </g>
  </g>
 </g>
 <defs>
  <clipPath id="pe7d49178da">
   <rect x="23.760625" y="0.72" width="279" height="138.6"/>
  </clipPath>
 </defs>
</svg>
