<?xml version="1.0" encoding="utf-8" standalone="no"?>
<!DOCTYPE svg PUBLIC "-//W3C//DTD SVG 1.1//EN"
  "http://www.w3.org/Graphics/SVG/1.1/DTD/svg11.dtd">
<svg xmlns:xlink="http://www.w3.org/1999/xlink" width="321.400937pt" height="166.39625pt" viewBox="0 0 321.400937 166.39625" xmlns="http://www.w3.org/2000/svg" version="1.1">
 <metadata>
  <rdf:RDF xmlns:dc="http://purl.org/dc/elements/1.1/" xmlns:cc="http://creativecommons.org/ns#" xmlns:rdf="http://www.w3.org/1999/02/22-rdf-syntax-ns#">
   <cc:Work>
    <dc:type rdf:resource="http://purl.org/dc/dcmitype/StillImage"/>
    <dc:date>2023-09-07T03:31:02.585032</dc:date>
    <dc:format>image/svg+xml</dc:format>
    <dc:creator>
     <cc:Agent>
      <dc:title>Matplotlib v3.7.2, https://matplotlib.org/</dc:title>
     </cc:Agent>
    </dc:creator>
   </cc:Work>
  </rdf:RDF>
 </metadata>
 <defs>
  <style type="text/css">*{stroke-linejoin: round; stroke-linecap: butt}</style>
 </defs>
 <g id="figure_1">
  <g id="patch_1">
   <path d="M 0 166.39625 
L 321.400937 166.39625 
L 321.400937 0 
L 0 0 
L 0 166.39625 
z
" style="fill: none"/>
  </g>
  <g id="axes_1">
   <g id="patch_2">
    <path d="M 41.680938 139.32 
L 320.680938 139.32 
L 320.680938 0.72 
L 41.680938 0.72 
L 41.680938 139.32 
z
" style="fill: none"/>
   </g>
   <g id="matplotlib.axis_1">
    <g id="xtick_1">
     <g id="line2d_1">
      <path d="M 41.680938 139.32 
L 41.680938 0.72 
" clip-path="url(#p51a00c32c1)" style="fill: none; stroke-dasharray: 0.8,1.32; stroke-dashoffset: 0; stroke: #000000; stroke-opacity: 0.5; stroke-width: 0.8"/>
     </g>
     <g id="line2d_2">
      <defs>
       <path id="m502c174751" d="M 0 0 
L 0 3.5 
" style="stroke: #000000; stroke-width: 0.8"/>
      </defs>
      <g>
       <use xlink:href="#m502c174751" x="41.680938" y="139.32" style="stroke: #000000; stroke-width: 0.8"/>
      </g>
     </g>
     <g id="text_1">
      <!-- 0 -->
      <g transform="translate(38.499688 153.918438) scale(0.1 -0.1)">
       <defs>
        <path id="DejaVuSans-30" d="M 2034 4250 
Q 1547 4250 1301 3770 
Q 1056 3291 1056 2328 
Q 1056 1369 1301 889 
Q 1547 409 2034 409 
Q 2525 409 2770 889 
Q 3016 1369 3016 2328 
Q 3016 3291 2770 3770 
Q 2525 4250 2034 4250 
z
M 2034 4750 
Q 2819 4750 3233 4129 
Q 3647 3509 3647 2328 
Q 3647 1150 3233 529 
Q 2819 -91 2034 -91 
Q 1250 -91 836 529 
Q 422 1150 422 2328 
Q 422 3509 836 4129 
Q 1250 4750 2034 4750 
z
" transform="scale(0.015625)"/>
       </defs>
       <use xlink:href="#DejaVuSans-30"/>
      </g>
     </g>
    </g>
    <g id="xtick_2">
     <g id="line2d_3">
      <path d="M 84.295838 139.32 
L 84.295838 0.72 
" clip-path="url(#p51a00c32c1)" style="fill: none; stroke-dasharray: 0.8,1.32; stroke-dashoffset: 0; stroke: #000000; stroke-opacity: 0.5; stroke-width: 0.8"/>
     </g>
     <g id="line2d_4">
      <g>
       <use xlink:href="#m502c174751" x="84.295838" y="139.32" style="stroke: #000000; stroke-width: 0.8"/>
      </g>
     </g>
     <g id="text_2">
      <!-- 5 -->
      <g transform="translate(81.114588 153.918438) scale(0.1 -0.1)">
       <defs>
        <path id="DejaVuSans-35" d="M 691 4666 
L 3169 4666 
L 3169 4134 
L 1269 4134 
L 1269 2991 
Q 1406 3038 1543 3061 
Q 1681 3084 1819 3084 
Q 2600 3084 3056 2656 
Q 3513 2228 3513 1497 
Q 3513 744 3044 326 
Q 2575 -91 1722 -91 
Q 1428 -91 1123 -41 
Q 819 9 494 109 
L 494 744 
Q 775 591 1075 516 
Q 1375 441 1709 441 
Q 2250 441 2565 725 
Q 2881 1009 2881 1497 
Q 2881 1984 2565 2268 
Q 2250 2553 1709 2553 
Q 1456 2553 1204 2497 
Q 953 2441 691 2322 
L 691 4666 
z
" transform="scale(0.015625)"/>
       </defs>
       <use xlink:href="#DejaVuSans-35"/>
      </g>
     </g>
    </g>
    <g id="xtick_3">
     <g id="line2d_5">
      <path d="M 126.910739 139.32 
L 126.910739 0.72 
" clip-path="url(#p51a00c32c1)" style="fill: none; stroke-dasharray: 0.8,1.32; stroke-dashoffset: 0; stroke: #000000; stroke-opacity: 0.5; stroke-width: 0.8"/>
     </g>
     <g id="line2d_6">
      <g>
       <use xlink:href="#m502c174751" x="126.910739" y="139.32" style="stroke: #000000; stroke-width: 0.8"/>
      </g>
     </g>
     <g id="text_3">
      <!-- 10 -->
      <g transform="translate(120.548239 153.918438) scale(0.1 -0.1)">
       <defs>
        <path id="DejaVuSans-31" d="M 794 531 
L 1825 531 
L 1825 4091 
L 703 3866 
L 703 4441 
L 1819 4666 
L 2450 4666 
L 2450 531 
L 3481 531 
L 3481 0 
L 794 0 
L 794 531 
z
" transform="scale(0.015625)"/>
       </defs>
       <use xlink:href="#DejaVuSans-31"/>
       <use xlink:href="#DejaVuSans-30" x="63.623047"/>
      </g>
     </g>
    </g>
    <g id="xtick_4">
     <g id="line2d_7">
      <path d="M 169.525639 139.32 
L 169.525639 0.72 
" clip-path="url(#p51a00c32c1)" style="fill: none; stroke-dasharray: 0.8,1.32; stroke-dashoffset: 0; stroke: #000000; stroke-opacity: 0.5; stroke-width: 0.8"/>
     </g>
     <g id="line2d_8">
      <g>
       <use xlink:href="#m502c174751" x="169.525639" y="139.32" style="stroke: #000000; stroke-width: 0.8"/>
      </g>
     </g>
     <g id="text_4">
      <!-- 15 -->
      <g transform="translate(163.163139 153.918438) scale(0.1 -0.1)">
       <use xlink:href="#DejaVuSans-31"/>
       <use xlink:href="#DejaVuSans-35" x="63.623047"/>
      </g>
     </g>
    </g>
    <g id="xtick_5">
     <g id="line2d_9">
      <path d="M 212.14054 139.32 
L 212.14054 0.72 
" clip-path="url(#p51a00c32c1)" style="fill: none; stroke-dasharray: 0.8,1.32; stroke-dashoffset: 0; stroke: #000000; stroke-opacity: 0.5; stroke-width: 0.8"/>
     </g>
     <g id="line2d_10">
      <g>
       <use xlink:href="#m502c174751" x="212.14054" y="139.32" style="stroke: #000000; stroke-width: 0.8"/>
      </g>
     </g>
     <g id="text_5">
      <!-- 20 -->
      <g transform="translate(205.77804 153.918438) scale(0.1 -0.1)">
       <defs>
        <path id="DejaVuSans-32" d="M 1228 531 
L 3431 531 
L 3431 0 
L 469 0 
L 469 531 
Q 828 903 1448 1529 
Q 2069 2156 2228 2338 
Q 2531 2678 2651 2914 
Q 2772 3150 2772 3378 
Q 2772 3750 2511 3984 
Q 2250 4219 1831 4219 
Q 1534 4219 1204 4116 
Q 875 4013 500 3803 
L 500 4441 
Q 881 4594 1212 4672 
Q 1544 4750 1819 4750 
Q 2544 4750 2975 4387 
Q 3406 4025 3406 3419 
Q 3406 3131 3298 2873 
Q 3191 2616 2906 2266 
Q 2828 2175 2409 1742 
Q 1991 1309 1228 531 
z
" transform="scale(0.015625)"/>
       </defs>
       <use xlink:href="#DejaVuSans-32"/>
       <use xlink:href="#DejaVuSans-30" x="63.623047"/>
      </g>
     </g>
    </g>
    <g id="xtick_6">
     <g id="line2d_11">
      <path d="M 254.75544 139.32 
L 254.75544 0.72 
" clip-path="url(#p51a00c32c1)" style="fill: none; stroke-dasharray: 0.8,1.32; stroke-dashoffset: 0; stroke: #000000; stroke-opacity: 0.5; stroke-width: 0.8"/>
     </g>
     <g id="line2d_12">
      <g>
       <use xlink:href="#m502c174751" x="254.75544" y="139.32" style="stroke: #000000; stroke-width: 0.8"/>
      </g>
     </g>
     <g id="text_6">
      <!-- 25 -->
      <g transform="translate(248.39294 153.918438) scale(0.1 -0.1)">
       <use xlink:href="#DejaVuSans-32"/>
       <use xlink:href="#DejaVuSans-35" x="63.623047"/>
      </g>
     </g>
    </g>
    <g id="xtick_7">
     <g id="line2d_13">
      <path d="M 297.370341 139.32 
L 297.370341 0.72 
" clip-path="url(#p51a00c32c1)" style="fill: none; stroke-dasharray: 0.8,1.32; stroke-dashoffset: 0; stroke: #000000; stroke-opacity: 0.5; stroke-width: 0.8"/>
     </g>
     <g id="line2d_14">
      <g>
       <use xlink:href="#m502c174751" x="297.370341" y="139.32" style="stroke: #000000; stroke-width: 0.8"/>
      </g>
     </g>
     <g id="text_7">
      <!-- 30 -->
      <g transform="translate(291.007841 153.918438) scale(0.1 -0.1)">
       <defs>
        <path id="DejaVuSans-33" d="M 2597 2516 
Q 3050 2419 3304 2112 
Q 3559 1806 3559 1356 
Q 3559 666 3084 287 
Q 2609 -91 1734 -91 
Q 1441 -91 1130 -33 
Q 819 25 488 141 
L 488 750 
Q 750 597 1062 519 
Q 1375 441 1716 441 
Q 2309 441 2620 675 
Q 2931 909 2931 1356 
Q 2931 1769 2642 2001 
Q 2353 2234 1838 2234 
L 1294 2234 
L 1294 2753 
L 1863 2753 
Q 2328 2753 2575 2939 
Q 2822 3125 2822 3475 
Q 2822 3834 2567 4026 
Q 2313 4219 1838 4219 
Q 1578 4219 1281 4162 
Q 984 4106 628 3988 
L 628 4550 
Q 988 4650 1302 4700 
Q 1616 4750 1894 4750 
Q 2613 4750 3031 4423 
Q 3450 4097 3450 3541 
Q 3450 3153 3228 2886 
Q 3006 2619 2597 2516 
z
" transform="scale(0.015625)"/>
       </defs>
       <use xlink:href="#DejaVuSans-33"/>
       <use xlink:href="#DejaVuSans-30" x="63.623047"/>
      </g>
     </g>
    </g>
    <g id="text_8">
     <!-- Zeit [s] -->
     <g transform="translate(163.234844 163.596563) scale(0.1 -0.1)">
      <defs>
       <path id="DejaVuSans-5a" d="M 359 4666 
L 4025 4666 
L 4025 4184 
L 1075 531 
L 4097 531 
L 4097 0 
L 288 0 
L 288 481 
L 3238 4134 
L 359 4134 
L 359 4666 
z
" transform="scale(0.015625)"/>
       <path id="DejaVuSans-65" d="M 3597 1894 
L 3597 1613 
L 953 1613 
Q 991 1019 1311 708 
Q 1631 397 2203 397 
Q 2534 397 2845 478 
Q 3156 559 3463 722 
L 3463 178 
Q 3153 47 2828 -22 
Q 2503 -91 2169 -91 
Q 1331 -91 842 396 
Q 353 884 353 1716 
Q 353 2575 817 3079 
Q 1281 3584 2069 3584 
Q 2775 3584 3186 3129 
Q 3597 2675 3597 1894 
z
M 3022 2063 
Q 3016 2534 2758 2815 
Q 2500 3097 2075 3097 
Q 1594 3097 1305 2825 
Q 1016 2553 972 2059 
L 3022 2063 
z
" transform="scale(0.015625)"/>
       <path id="DejaVuSans-69" d="M 603 3500 
L 1178 3500 
L 1178 0 
L 603 0 
L 603 3500 
z
M 603 4863 
L 1178 4863 
L 1178 4134 
L 603 4134 
L 603 4863 
z
" transform="scale(0.015625)"/>
       <path id="DejaVuSans-74" d="M 1172 4494 
L 1172 3500 
L 2356 3500 
L 2356 3053 
L 1172 3053 
L 1172 1153 
Q 1172 725 1289 603 
Q 1406 481 1766 481 
L 2356 481 
L 2356 0 
L 1766 0 
Q 1100 0 847 248 
Q 594 497 594 1153 
L 594 3053 
L 172 3053 
L 172 3500 
L 594 3500 
L 594 4494 
L 1172 4494 
z
" transform="scale(0.015625)"/>
       <path id="DejaVuSans-20" transform="scale(0.015625)"/>
       <path id="DejaVuSans-5b" d="M 550 4863 
L 1875 4863 
L 1875 4416 
L 1125 4416 
L 1125 -397 
L 1875 -397 
L 1875 -844 
L 550 -844 
L 550 4863 
z
" transform="scale(0.015625)"/>
       <path id="DejaVuSans-73" d="M 2834 3397 
L 2834 2853 
Q 2591 2978 2328 3040 
Q 2066 3103 1784 3103 
Q 1356 3103 1142 2972 
Q 928 2841 928 2578 
Q 928 2378 1081 2264 
Q 1234 2150 1697 2047 
L 1894 2003 
Q 2506 1872 2764 1633 
Q 3022 1394 3022 966 
Q 3022 478 2636 193 
Q 2250 -91 1575 -91 
Q 1294 -91 989 -36 
Q 684 19 347 128 
L 347 722 
Q 666 556 975 473 
Q 1284 391 1588 391 
Q 1994 391 2212 530 
Q 2431 669 2431 922 
Q 2431 1156 2273 1281 
Q 2116 1406 1581 1522 
L 1381 1569 
Q 847 1681 609 1914 
Q 372 2147 372 2553 
Q 372 3047 722 3315 
Q 1072 3584 1716 3584 
Q 2034 3584 2315 3537 
Q 2597 3491 2834 3397 
z
" transform="scale(0.015625)"/>
       <path id="DejaVuSans-5d" d="M 1947 4863 
L 1947 -844 
L 622 -844 
L 622 -397 
L 1369 -397 
L 1369 4416 
L 622 4416 
L 622 4863 
L 1947 4863 
z
" transform="scale(0.015625)"/>
      </defs>
      <use xlink:href="#DejaVuSans-5a"/>
      <use xlink:href="#DejaVuSans-65" x="68.505859"/>
      <use xlink:href="#DejaVuSans-69" x="130.029297"/>
      <use xlink:href="#DejaVuSans-74" x="157.8125"/>
      <use xlink:href="#DejaVuSans-20" x="197.021484"/>
      <use xlink:href="#DejaVuSans-5b" x="228.808594"/>
      <use xlink:href="#DejaVuSans-73" x="267.822266"/>
      <use xlink:href="#DejaVuSans-5d" x="319.921875"/>
     </g>
    </g>
   </g>
   <g id="matplotlib.axis_2">
    <g id="ytick_1">
     <g id="line2d_15">
      <path d="M 41.680938 119.440519 
L 320.680938 119.440519 
" clip-path="url(#p51a00c32c1)" style="fill: none; stroke-dasharray: 0.8,1.32; stroke-dashoffset: 0; stroke: #000000; stroke-opacity: 0.5; stroke-width: 0.8"/>
     </g>
     <g id="line2d_16">
      <defs>
       <path id="m45d0d141b8" d="M 0 0 
L -3.5 0 
" style="stroke: #000000; stroke-width: 0.8"/>
      </defs>
      <g>
       <use xlink:href="#m45d0d141b8" x="41.680938" y="119.440519" style="stroke: #000000; stroke-width: 0.8"/>
      </g>
     </g>
     <g id="text_9">
      <!-- −5.8 -->
      <g transform="translate(10.398125 123.239738) scale(0.1 -0.1)">
       <defs>
        <path id="DejaVuSans-2212" d="M 678 2272 
L 4684 2272 
L 4684 1741 
L 678 1741 
L 678 2272 
z
" transform="scale(0.015625)"/>
        <path id="DejaVuSans-2e" d="M 684 794 
L 1344 794 
L 1344 0 
L 684 0 
L 684 794 
z
" transform="scale(0.015625)"/>
        <path id="DejaVuSans-38" d="M 2034 2216 
Q 1584 2216 1326 1975 
Q 1069 1734 1069 1313 
Q 1069 891 1326 650 
Q 1584 409 2034 409 
Q 2484 409 2743 651 
Q 3003 894 3003 1313 
Q 3003 1734 2745 1975 
Q 2488 2216 2034 2216 
z
M 1403 2484 
Q 997 2584 770 2862 
Q 544 3141 544 3541 
Q 544 4100 942 4425 
Q 1341 4750 2034 4750 
Q 2731 4750 3128 4425 
Q 3525 4100 3525 3541 
Q 3525 3141 3298 2862 
Q 3072 2584 2669 2484 
Q 3125 2378 3379 2068 
Q 3634 1759 3634 1313 
Q 3634 634 3220 271 
Q 2806 -91 2034 -91 
Q 1263 -91 848 271 
Q 434 634 434 1313 
Q 434 1759 690 2068 
Q 947 2378 1403 2484 
z
M 1172 3481 
Q 1172 3119 1398 2916 
Q 1625 2713 2034 2713 
Q 2441 2713 2670 2916 
Q 2900 3119 2900 3481 
Q 2900 3844 2670 4047 
Q 2441 4250 2034 4250 
Q 1625 4250 1398 4047 
Q 1172 3844 1172 3481 
z
" transform="scale(0.015625)"/>
       </defs>
       <use xlink:href="#DejaVuSans-2212"/>
       <use xlink:href="#DejaVuSans-35" x="83.789062"/>
       <use xlink:href="#DejaVuSans-2e" x="147.412109"/>
       <use xlink:href="#DejaVuSans-38" x="179.199219"/>
      </g>
     </g>
    </g>
    <g id="ytick_2">
     <g id="line2d_17">
      <path d="M 41.680938 86.88131 
L 320.680938 86.88131 
" clip-path="url(#p51a00c32c1)" style="fill: none; stroke-dasharray: 0.8,1.32; stroke-dashoffset: 0; stroke: #000000; stroke-opacity: 0.5; stroke-width: 0.8"/>
     </g>
     <g id="line2d_18">
      <g>
       <use xlink:href="#m45d0d141b8" x="41.680938" y="86.88131" style="stroke: #000000; stroke-width: 0.8"/>
      </g>
     </g>
     <g id="text_10">
      <!-- −5.6 -->
      <g transform="translate(10.398125 90.680529) scale(0.1 -0.1)">
       <defs>
        <path id="DejaVuSans-36" d="M 2113 2584 
Q 1688 2584 1439 2293 
Q 1191 2003 1191 1497 
Q 1191 994 1439 701 
Q 1688 409 2113 409 
Q 2538 409 2786 701 
Q 3034 994 3034 1497 
Q 3034 2003 2786 2293 
Q 2538 2584 2113 2584 
z
M 3366 4563 
L 3366 3988 
Q 3128 4100 2886 4159 
Q 2644 4219 2406 4219 
Q 1781 4219 1451 3797 
Q 1122 3375 1075 2522 
Q 1259 2794 1537 2939 
Q 1816 3084 2150 3084 
Q 2853 3084 3261 2657 
Q 3669 2231 3669 1497 
Q 3669 778 3244 343 
Q 2819 -91 2113 -91 
Q 1303 -91 875 529 
Q 447 1150 447 2328 
Q 447 3434 972 4092 
Q 1497 4750 2381 4750 
Q 2619 4750 2861 4703 
Q 3103 4656 3366 4563 
z
" transform="scale(0.015625)"/>
       </defs>
       <use xlink:href="#DejaVuSans-2212"/>
       <use xlink:href="#DejaVuSans-35" x="83.789062"/>
       <use xlink:href="#DejaVuSans-2e" x="147.412109"/>
       <use xlink:href="#DejaVuSans-36" x="179.199219"/>
      </g>
     </g>
    </g>
    <g id="ytick_3">
     <g id="line2d_19">
      <path d="M 41.680938 54.322101 
L 320.680938 54.322101 
" clip-path="url(#p51a00c32c1)" style="fill: none; stroke-dasharray: 0.8,1.32; stroke-dashoffset: 0; stroke: #000000; stroke-opacity: 0.5; stroke-width: 0.8"/>
     </g>
     <g id="line2d_20">
      <g>
       <use xlink:href="#m45d0d141b8" x="41.680938" y="54.322101" style="stroke: #000000; stroke-width: 0.8"/>
      </g>
     </g>
     <g id="text_11">
      <!-- −5.4 -->
      <g transform="translate(10.398125 58.12132) scale(0.1 -0.1)">
       <defs>
        <path id="DejaVuSans-34" d="M 2419 4116 
L 825 1625 
L 2419 1625 
L 2419 4116 
z
M 2253 4666 
L 3047 4666 
L 3047 1625 
L 3713 1625 
L 3713 1100 
L 3047 1100 
L 3047 0 
L 2419 0 
L 2419 1100 
L 313 1100 
L 313 1709 
L 2253 4666 
z
" transform="scale(0.015625)"/>
       </defs>
       <use xlink:href="#DejaVuSans-2212"/>
       <use xlink:href="#DejaVuSans-35" x="83.789062"/>
       <use xlink:href="#DejaVuSans-2e" x="147.412109"/>
       <use xlink:href="#DejaVuSans-34" x="179.199219"/>
      </g>
     </g>
    </g>
    <g id="ytick_4">
     <g id="line2d_21">
      <path d="M 41.680938 21.762892 
L 320.680938 21.762892 
" clip-path="url(#p51a00c32c1)" style="fill: none; stroke-dasharray: 0.8,1.32; stroke-dashoffset: 0; stroke: #000000; stroke-opacity: 0.5; stroke-width: 0.8"/>
     </g>
     <g id="line2d_22">
      <g>
       <use xlink:href="#m45d0d141b8" x="41.680938" y="21.762892" style="stroke: #000000; stroke-width: 0.8"/>
      </g>
     </g>
     <g id="text_12">
      <!-- −5.2 -->
      <g transform="translate(10.398125 25.56211) scale(0.1 -0.1)">
       <use xlink:href="#DejaVuSans-2212"/>
       <use xlink:href="#DejaVuSans-35" x="83.789062"/>
       <use xlink:href="#DejaVuSans-2e" x="147.412109"/>
       <use xlink:href="#DejaVuSans-32" x="179.199219"/>
      </g>
     </g>
    </g>
    <g id="text_13">
     <!-- Drehmoment [Nm] -->
     <g transform="translate(8.318437 117.165313) rotate(-90) scale(0.1 -0.1)">
      <defs>
       <path id="DejaVuSans-44" d="M 1259 4147 
L 1259 519 
L 2022 519 
Q 2988 519 3436 956 
Q 3884 1394 3884 2338 
Q 3884 3275 3436 3711 
Q 2988 4147 2022 4147 
L 1259 4147 
z
M 628 4666 
L 1925 4666 
Q 3281 4666 3915 4102 
Q 4550 3538 4550 2338 
Q 4550 1131 3912 565 
Q 3275 0 1925 0 
L 628 0 
L 628 4666 
z
" transform="scale(0.015625)"/>
       <path id="DejaVuSans-72" d="M 2631 2963 
Q 2534 3019 2420 3045 
Q 2306 3072 2169 3072 
Q 1681 3072 1420 2755 
Q 1159 2438 1159 1844 
L 1159 0 
L 581 0 
L 581 3500 
L 1159 3500 
L 1159 2956 
Q 1341 3275 1631 3429 
Q 1922 3584 2338 3584 
Q 2397 3584 2469 3576 
Q 2541 3569 2628 3553 
L 2631 2963 
z
" transform="scale(0.015625)"/>
       <path id="DejaVuSans-68" d="M 3513 2113 
L 3513 0 
L 2938 0 
L 2938 2094 
Q 2938 2591 2744 2837 
Q 2550 3084 2163 3084 
Q 1697 3084 1428 2787 
Q 1159 2491 1159 1978 
L 1159 0 
L 581 0 
L 581 4863 
L 1159 4863 
L 1159 2956 
Q 1366 3272 1645 3428 
Q 1925 3584 2291 3584 
Q 2894 3584 3203 3211 
Q 3513 2838 3513 2113 
z
" transform="scale(0.015625)"/>
       <path id="DejaVuSans-6d" d="M 3328 2828 
Q 3544 3216 3844 3400 
Q 4144 3584 4550 3584 
Q 5097 3584 5394 3201 
Q 5691 2819 5691 2113 
L 5691 0 
L 5113 0 
L 5113 2094 
Q 5113 2597 4934 2840 
Q 4756 3084 4391 3084 
Q 3944 3084 3684 2787 
Q 3425 2491 3425 1978 
L 3425 0 
L 2847 0 
L 2847 2094 
Q 2847 2600 2669 2842 
Q 2491 3084 2119 3084 
Q 1678 3084 1418 2786 
Q 1159 2488 1159 1978 
L 1159 0 
L 581 0 
L 581 3500 
L 1159 3500 
L 1159 2956 
Q 1356 3278 1631 3431 
Q 1906 3584 2284 3584 
Q 2666 3584 2933 3390 
Q 3200 3197 3328 2828 
z
" transform="scale(0.015625)"/>
       <path id="DejaVuSans-6f" d="M 1959 3097 
Q 1497 3097 1228 2736 
Q 959 2375 959 1747 
Q 959 1119 1226 758 
Q 1494 397 1959 397 
Q 2419 397 2687 759 
Q 2956 1122 2956 1747 
Q 2956 2369 2687 2733 
Q 2419 3097 1959 3097 
z
M 1959 3584 
Q 2709 3584 3137 3096 
Q 3566 2609 3566 1747 
Q 3566 888 3137 398 
Q 2709 -91 1959 -91 
Q 1206 -91 779 398 
Q 353 888 353 1747 
Q 353 2609 779 3096 
Q 1206 3584 1959 3584 
z
" transform="scale(0.015625)"/>
       <path id="DejaVuSans-6e" d="M 3513 2113 
L 3513 0 
L 2938 0 
L 2938 2094 
Q 2938 2591 2744 2837 
Q 2550 3084 2163 3084 
Q 1697 3084 1428 2787 
Q 1159 2491 1159 1978 
L 1159 0 
L 581 0 
L 581 3500 
L 1159 3500 
L 1159 2956 
Q 1366 3272 1645 3428 
Q 1925 3584 2291 3584 
Q 2894 3584 3203 3211 
Q 3513 2838 3513 2113 
z
" transform="scale(0.015625)"/>
       <path id="DejaVuSans-4e" d="M 628 4666 
L 1478 4666 
L 3547 763 
L 3547 4666 
L 4159 4666 
L 4159 0 
L 3309 0 
L 1241 3903 
L 1241 0 
L 628 0 
L 628 4666 
z
" transform="scale(0.015625)"/>
      </defs>
      <use xlink:href="#DejaVuSans-44"/>
      <use xlink:href="#DejaVuSans-72" x="77.001953"/>
      <use xlink:href="#DejaVuSans-65" x="115.865234"/>
      <use xlink:href="#DejaVuSans-68" x="177.388672"/>
      <use xlink:href="#DejaVuSans-6d" x="240.767578"/>
      <use xlink:href="#DejaVuSans-6f" x="338.179688"/>
      <use xlink:href="#DejaVuSans-6d" x="399.361328"/>
      <use xlink:href="#DejaVuSans-65" x="496.773438"/>
      <use xlink:href="#DejaVuSans-6e" x="558.296875"/>
      <use xlink:href="#DejaVuSans-74" x="621.675781"/>
      <use xlink:href="#DejaVuSans-20" x="660.884766"/>
      <use xlink:href="#DejaVuSans-5b" x="692.671875"/>
      <use xlink:href="#DejaVuSans-4e" x="731.685547"/>
      <use xlink:href="#DejaVuSans-6d" x="806.490234"/>
      <use xlink:href="#DejaVuSans-5d" x="903.902344"/>
     </g>
    </g>
   </g>
   <g id="line2d_23">
    <path d="M 41.680938 5.853354 
L 320.680938 5.853354 
L 320.680938 5.853354 
" clip-path="url(#p51a00c32c1)" style="fill: none; stroke: #0000ff; stroke-opacity: 0.5; stroke-width: 3; stroke-linecap: square"/>
   </g>
   <g id="line2d_24">
    <path d="M 41.680938 117.496014 
L 41.733674 115.7957 
L 41.828554 117.283908 
L 41.994386 113.304463 
L 42.045232 114.020324 
L 42.11608 110.646215 
L 42.2327 120.231187 
L 42.301846 117.133107 
L 42.388563 118.199126 
L 42.462865 118.837822 
L 42.662638 110.331703 
L 42.730857 111.791898 
L 42.800018 116.800169 
L 42.974111 114.799478 
L 43.177527 108.184762 
L 43.246087 110.333197 
L 43.297609 109.698031 
L 43.367194 109.104991 
L 43.468722 113.905868 
L 43.520607 112.288222 
L 43.675805 106.826546 
L 43.745815 110.768804 
L 44.002151 101.448102 
L 44.021885 101.699929 
L 44.077315 103.826262 
L 44.08814 102.983004 
L 44.157637 102.128436 
L 44.295019 103.910013 
L 44.517144 112.393861 
L 44.585797 111.428979 
L 44.646706 109.819253 
L 44.723621 113.439178 
L 44.792751 114.237967 
L 44.93095 108.216692 
L 45.004385 111.445886 
L 45.155671 102.206037 
L 45.499595 115.635609 
L 45.641557 105.579209 
L 45.861256 115.529981 
L 45.929278 121.018628 
L 45.998198 120.887604 
L 46.066007 120.544398 
L 46.170128 116.12762 
L 46.209677 109.713576 
L 46.275724 114.286935 
L 46.360689 116.717264 
L 46.429422 115.012824 
L 46.502085 116.396073 
L 46.567009 120.562445 
L 46.843595 108.363991 
L 46.914901 109.348895 
L 46.997447 107.15006 
L 47.135437 115.406042 
L 47.203773 113.970108 
L 47.35174 108.839848 
L 47.41321 111.63685 
L 47.495506 110.188866 
L 47.715168 120.07921 
L 47.841639 115.873306 
L 47.909181 116.008163 
L 48.046641 112.503594 
L 48.131969 113.551188 
L 48.406394 124.154992 
L 48.549956 121.962235 
L 48.632974 122.731314 
L 48.699405 117.615276 
L 48.768564 118.853279 
L 48.839678 119.469763 
L 49.113767 129.37122 
L 49.423092 112.799287 
L 49.474632 117.895893 
L 49.594714 116.882451 
L 49.834523 99.793774 
L 50.040826 107.06363 
L 50.252582 120.258022 
L 50.324097 119.948239 
L 50.54168 115.785391 
L 50.748344 118.727668 
L 50.834123 113.185177 
L 51.063567 99.60644 
L 51.116744 108.399915 
L 51.199964 106.211435 
L 51.253246 106.107196 
L 51.479866 113.682853 
L 51.608404 112.085885 
L 51.763501 115.024323 
L 51.847936 112.57901 
L 51.864008 112.70177 
L 52.005763 125.516866 
L 52.144433 118.422189 
L 52.196032 118.677491 
L 52.333936 111.803427 
L 52.419386 114.061691 
L 52.489998 120.647546 
L 52.55664 118.508778 
L 52.711348 112.781526 
L 52.762917 113.720547 
L 52.814573 118.872908 
L 52.902193 118.828998 
L 52.969548 118.782541 
L 53.021285 118.289299 
L 53.140562 113.74724 
L 53.181248 113.911002 
L 53.278319 115.130837 
L 53.365603 113.187634 
L 53.398965 114.001754 
L 53.451777 116.042461 
L 53.61544 112.347472 
L 53.776809 120.717433 
L 53.904722 114.734645 
L 53.965965 115.262398 
L 54.20593 108.023231 
L 54.309032 97.079142 
L 54.412941 97.742731 
L 54.789517 113.872674 
L 54.80753 115.158712 
L 54.876519 110.999718 
L 55.01366 130.45518 
L 55.099107 128.778683 
L 55.304989 113.567348 
L 55.374149 112.373351 
L 55.442737 108.248526 
L 55.528756 109.197657 
L 55.615766 111.609037 
L 55.665842 110.186833 
L 55.734844 110.07902 
L 55.803106 107.773723 
L 55.959411 115.901823 
L 56.129381 119.682998 
L 56.163475 117.707228 
L 56.221786 118.922198 
L 56.300463 120.408881 
L 56.438281 108.773181 
L 56.537003 113.006161 
L 56.576598 112.766283 
L 56.949031 105.130341 
L 57.177589 109.73098 
L 57.229645 109.367102 
L 57.366467 112.668392 
L 57.504838 108.409973 
L 57.659752 116.159377 
L 57.728202 114.563362 
L 57.899727 113.490938 
L 57.952235 110.216618 
L 58.209102 114.681663 
L 58.312466 113.935153 
L 58.411035 114.403579 
L 58.432619 113.998726 
L 58.588134 119.795989 
L 58.656405 118.096133 
L 58.762054 113.202234 
L 58.7978 115.555761 
L 58.866872 119.4339 
L 58.952511 117.901117 
L 59.013271 118.876219 
L 59.085039 116.819633 
L 59.206238 117.948447 
L 59.301406 106.161981 
L 59.448176 108.875654 
L 59.570873 108.372985 
L 59.688491 114.625407 
L 59.706195 113.076171 
L 59.854007 110.130271 
L 59.936035 109.843355 
L 60.116269 116.419235 
L 60.215027 113.82686 
L 60.354654 106.86509 
L 60.42354 106.999026 
L 60.560449 108.83502 
L 60.62963 106.799597 
L 60.921046 120.162207 
L 60.990385 120.657311 
L 61.058684 118.509625 
L 61.161597 120.022207 
L 61.282944 113.325665 
L 61.33833 113.761715 
L 61.562102 109.345299 
L 61.697407 99.467932 
L 61.836576 101.412149 
L 61.938205 108.829953 
L 61.990724 106.426727 
L 62.184857 111.872807 
L 62.215886 107.706355 
L 62.265182 111.897664 
L 62.488737 122.305036 
L 62.575287 120.817981 
L 62.644288 116.967482 
L 62.767589 124.925374 
L 62.850196 122.585785 
L 62.969561 123.546326 
L 63.056399 120.799737 
L 63.072835 113.912701 
L 63.43618 115.590182 
L 63.811355 116.507847 
L 64.212072 112.196659 
L 64.586627 115.200793 
L 64.601805 123.230743 
L 64.686964 119.779199 
L 64.894568 125.59836 
L 65.1518 110.889783 
L 65.170351 113.621257 
L 65.323318 119.513525 
L 65.392175 118.728479 
L 65.634751 111.194774 
L 65.873409 121.033912 
L 66.103993 113.469085 
L 66.321275 127.272631 
L 66.406692 124.800974 
L 66.458656 120.380427 
L 66.543171 120.611618 
L 66.628889 119.308412 
L 66.818615 123.200782 
L 66.957612 111.904024 
L 67.059502 115.067314 
L 67.163187 122.096691 
L 67.282386 121.629231 
L 67.33377 120.331664 
L 67.562401 124.55996 
L 67.67852 118.137257 
L 67.743006 118.230806 
L 67.915008 123.964399 
L 67.951387 122.453662 
L 68.039247 120.172647 
L 68.155779 114.691201 
L 68.37874 118.25846 
L 68.466372 117.652333 
L 68.602554 109.468098 
L 68.653764 110.458946 
L 68.739471 110.748092 
L 68.807711 109.249203 
L 68.876715 109.720486 
L 68.964431 113.137074 
L 69.099539 123.336649 
L 69.237793 115.446119 
L 69.375407 118.874243 
L 69.512833 127.218292 
L 69.599349 124.585697 
L 69.736156 110.481751 
L 69.873853 122.246445 
L 69.942845 122.367108 
L 70.079956 117.610861 
L 70.19935 117.521038 
L 70.304054 112.951909 
L 70.450762 115.680668 
L 70.458115 116.046736 
L 70.598445 112.77704 
L 70.682117 113.347659 
L 70.760978 112.892874 
L 70.929423 98.089262 
L 71.09969 98.585703 
L 71.271442 102.506551 
L 71.288566 99.627131 
L 71.356685 100.663749 
L 71.717503 118.948416 
L 71.785832 116.561936 
L 71.905689 115.576688 
L 72.01381 110.917792 
L 72.218502 113.95244 
L 72.284335 113.663588 
L 72.492721 104.719709 
L 72.627866 106.465916 
L 72.717354 109.83341 
L 72.989134 102.768201 
L 73.248013 115.47245 
L 73.264344 111.749124 
L 73.366496 107.333335 
L 73.555802 112.839182 
L 73.692933 114.456575 
L 73.797299 107.85484 
L 73.919417 110.153819 
L 73.967713 110.121591 
L 74.071485 114.575289 
L 74.122366 113.418569 
L 74.278268 112.103617 
L 74.347523 110.282625 
L 74.448855 112.602967 
L 74.569255 120.511818 
L 74.704479 121.395462 
L 74.834532 115.728444 
L 74.917137 118.492164 
L 75.071771 130.086236 
L 75.176892 129.957986 
L 75.329812 115.932856 
L 75.416001 112.588622 
L 75.556936 122.258049 
L 75.622881 118.259316 
L 75.691945 111.951057 
L 75.761708 112.054384 
L 76.053029 128.189785 
L 76.122234 127.93082 
L 76.328184 117.388583 
L 76.397682 120.626011 
L 76.517924 119.212645 
L 76.689285 109.940683 
L 76.820063 110.496665 
L 76.896593 112.734196 
L 76.963473 111.956186 
L 76.980522 110.697487 
L 77.091498 111.791223 
L 77.225102 107.677234 
L 77.326138 114.729379 
L 77.466601 114.454461 
L 77.555199 110.738885 
L 77.934965 131.857219 
L 77.962804 129.596645 
L 78.118048 123.631145 
L 78.244815 131.61516 
L 78.341617 128.120724 
L 78.393349 122.308042 
L 78.522771 123.091596 
L 78.566157 125.583211 
L 78.667789 124.913913 
L 78.684753 122.434416 
L 78.796555 123.282616 
L 78.961341 128.969417 
L 79.029125 129.312192 
L 79.115938 134.164273 
L 79.321931 124.54905 
L 79.3901 128.031587 
L 79.600737 113.239814 
L 79.754427 109.314248 
L 79.891425 102.090505 
L 80.029035 101.401113 
L 80.097439 98.746518 
L 80.322068 112.052667 
L 80.39105 108.845479 
L 80.597675 117.436186 
L 80.684818 118.928597 
L 80.752647 122.885084 
L 80.807324 120.2676 
L 81.166175 113.697521 
L 81.235098 114.131895 
L 81.407326 120.213282 
L 81.529387 113.210658 
L 81.700857 116.310281 
L 81.892225 125.27541 
L 82.008992 119.026245 
L 82.078365 114.134895 
L 82.219048 114.77075 
L 82.597172 103.866634 
L 82.648032 105.955377 
L 83.078079 124.465282 
L 83.150935 124.323955 
L 83.215682 123.561189 
L 83.301669 119.920708 
L 83.438226 119.460635 
L 83.581567 115.115644 
L 83.651023 119.946959 
L 83.856072 108.453373 
L 83.990597 118.305685 
L 84.213692 110.846823 
L 84.367701 101.618553 
L 84.505324 108.935177 
L 84.574613 106.328183 
L 84.677126 104.581167 
L 84.780949 109.467129 
L 84.85246 108.799141 
L 85.048212 115.245842 
L 85.211127 102.983566 
L 85.283793 105.504089 
L 85.348328 105.13537 
L 85.416782 101.15154 
L 85.485936 103.830672 
L 85.642513 101.932576 
L 85.727196 104.456881 
L 85.865309 115.201334 
L 86.139817 123.576494 
L 86.207697 123.573959 
L 86.310878 125.686248 
L 86.362087 129.131696 
L 86.431993 127.571109 
L 86.638188 121.24949 
L 86.716089 120.589791 
L 86.879608 114.499529 
L 86.989096 114.592713 
L 87.123349 108.357133 
L 87.567454 118.295287 
L 87.637418 112.752562 
L 87.719332 115.933352 
L 87.793409 114.658824 
L 87.831402 114.725176 
L 87.948243 114.38016 
L 87.987216 117.404513 
L 88.137059 112.539825 
L 88.188298 112.664873 
L 88.326066 111.370704 
L 88.379532 112.224592 
L 88.414828 104.399096 
L 88.469759 108.850394 
L 88.552253 109.345656 
L 88.691081 101.126481 
L 88.826825 106.040505 
L 88.89638 104.063536 
L 88.913102 105.569737 
L 89.051956 110.292664 
L 89.125503 114.25807 
L 89.188206 107.074657 
L 89.256225 107.342322 
L 89.400704 119.239636 
L 89.463453 119.489571 
L 89.542265 114.594285 
L 89.617699 114.641772 
L 89.685479 112.669845 
L 89.755697 113.138986 
L 89.822392 112.954856 
L 89.962285 116.635332 
L 90.182948 103.720154 
L 90.252558 104.649154 
L 90.320524 105.828831 
L 90.459726 101.496303 
L 90.612636 105.241286 
L 90.750493 104.443418 
L 90.956625 114.113463 
L 91.025011 109.088621 
L 91.111021 110.666287 
L 91.318422 117.311091 
L 91.386249 114.586384 
L 91.526149 118.702959 
L 91.678551 108.5887 
L 91.747235 112.945401 
L 91.884259 103.131253 
L 91.953289 104.001144 
L 92.030441 100.216484 
L 92.160753 106.234391 
L 92.230212 105.984704 
L 92.382704 113.177366 
L 92.454524 109.62044 
L 92.605788 120.418472 
L 92.658628 111.190482 
L 92.734127 112.075748 
L 92.881257 105.076915 
L 93.020708 105.866237 
L 93.106135 104.385217 
L 93.157041 108.114478 
L 93.226336 106.836372 
L 93.312772 102.023386 
L 93.450972 112.940645 
L 93.518103 111.244234 
L 93.588102 111.870317 
L 93.667557 110.578057 
L 93.673189 114.555774 
L 93.725497 113.475695 
L 93.867576 112.577658 
L 93.953447 115.364269 
L 94.087246 117.797564 
L 94.138845 116.866983 
L 94.156554 115.971225 
L 94.226422 117.524305 
L 94.293796 119.321712 
L 94.466933 113.071757 
L 94.587315 115.425897 
L 94.690547 114.223842 
L 94.724358 116.061442 
L 94.792816 114.74216 
L 94.862013 111.724313 
L 94.931392 112.191717 
L 95.088686 118.155046 
L 95.15975 118.132978 
L 95.230565 116.847053 
L 95.244085 112.491764 
L 95.29502 112.994569 
L 95.468418 111.046882 
L 95.656382 116.880152 
L 95.725064 118.749618 
L 95.74236 112.364707 
L 95.913965 111.060048 
L 96.088403 116.151829 
L 96.346066 106.345639 
L 96.413388 107.917937 
L 96.500421 115.3652 
L 96.586811 114.551022 
L 96.638666 112.117954 
L 96.654232 114.191176 
L 96.723727 118.110576 
L 96.878707 117.061457 
L 96.895429 116.122817 
L 96.997864 117.391471 
L 97.066185 115.335073 
L 97.135661 116.069406 
L 97.204255 108.377112 
L 97.308207 111.144646 
L 97.376985 110.90472 
L 97.463783 107.193001 
L 97.548448 106.126041 
L 97.751277 114.01865 
L 97.773014 112.187157 
L 97.875189 113.004705 
L 98.132299 121.177952 
L 98.235608 119.980096 
L 98.35246 120.580942 
L 98.604493 113.589001 
L 98.612877 114.275621 
L 98.73347 116.260943 
L 98.803499 112.854179 
L 98.922941 114.948866 
L 98.942912 118.56625 
L 98.99174 113.976856 
L 99.060495 113.780755 
L 99.256537 116.328301 
L 99.275469 118.699142 
L 99.339684 115.975893 
L 99.635044 104.067764 
L 99.698903 107.898894 
L 99.767975 106.110966 
L 99.869514 105.399888 
L 100.075599 98.735653 
L 100.33607 107.520465 
L 100.42008 101.830661 
L 100.472373 105.43973 
L 100.611323 104.41517 
L 100.644289 108.687373 
L 100.717664 104.462073 
L 100.763078 103.297794 
L 100.831842 104.603946 
L 100.935095 103.894148 
L 101.00776 104.313502 
L 101.330113 109.480387 
L 101.369141 106.821424 
L 101.487738 114.970533 
L 101.555856 113.107648 
L 101.626298 112.471127 
L 101.796823 102.639197 
L 101.970234 106.5406 
L 102.0723 110.777001 
L 102.312604 118.346797 
L 102.432786 124.670792 
L 102.485651 127.031256 
L 102.553121 122.164652 
L 102.638696 122.325587 
L 102.690386 122.218661 
L 103.105302 108.627456 
L 103.188168 107.374098 
L 103.269788 113.595946 
L 103.326997 113.259035 
L 103.394547 110.704888 
L 103.464247 113.618612 
L 103.652131 109.261256 
L 103.687013 113.619997 
L 103.755345 112.624257 
L 103.841733 110.675482 
L 103.910088 115.905836 
L 103.962821 112.335042 
L 104.048499 112.035472 
L 104.1193 113.307594 
L 104.203374 110.261502 
L 104.463764 119.276493 
L 104.539115 119.205134 
L 104.599599 116.634076 
L 104.791589 120.861845 
L 104.822592 120.625432 
L 105.05163 112.559801 
L 105.097054 113.885547 
L 105.389614 123.745775 
L 105.595961 118.147687 
L 105.871225 116.841158 
L 105.942517 106.214833 
L 106.026387 106.702664 
L 106.094578 105.045948 
L 106.172483 105.383661 
L 106.276118 104.507895 
L 106.370251 108.409195 
L 106.52424 103.744235 
L 106.593106 104.583122 
L 106.662462 109.395326 
L 106.730963 107.230496 
L 106.799318 103.797685 
L 107.297838 120.956268 
L 107.366375 114.609593 
L 107.435331 118.335656 
L 107.535289 119.653059 
L 107.588518 115.044643 
L 107.657959 116.257071 
L 107.726546 115.264109 
L 107.795225 116.352098 
L 107.867398 115.821841 
L 108.003906 107.021277 
L 108.088269 111.872416 
L 108.224818 107.578407 
L 108.29883 113.304774 
L 108.363448 110.781711 
L 108.431394 110.141476 
L 108.5759 102.675419 
L 108.731113 107.076255 
L 108.831412 105.057214 
L 108.93384 111.850327 
L 108.999646 111.674419 
L 109.070039 112.936904 
L 109.223812 120.513727 
L 109.294822 121.627299 
L 109.363675 121.44582 
L 109.499553 118.344938 
L 109.636952 113.279534 
L 109.711837 112.66543 
L 109.791309 110.668973 
L 109.86543 113.069024 
L 110.036067 108.095555 
L 110.345298 119.811453 
L 110.584634 113.000303 
L 110.646704 113.45555 
L 110.705412 116.718195 
L 110.843234 115.777069 
L 110.910938 115.787149 
L 110.945408 116.482257 
L 111.034096 115.24835 
L 111.065213 110.425557 
L 111.135811 110.86939 
L 111.290119 115.657573 
L 111.365601 115.194969 
L 111.564772 111.639609 
L 111.720151 119.158677 
L 111.82166 121.073173 
L 112.132668 110.167159 
L 112.270327 111.750856 
L 112.357219 103.169132 
L 112.477023 102.866779 
L 112.61404 110.245958 
L 112.684339 111.525911 
L 112.837294 122.290355 
L 112.974561 119.705029 
L 113.045703 122.695177 
L 113.160852 118.687479 
L 113.202579 120.095694 
L 113.268171 119.435215 
L 113.33591 116.43111 
L 113.404932 117.68411 
L 113.57634 111.761632 
L 113.644988 117.055906 
L 113.748938 112.038723 
L 113.800542 114.978133 
L 113.851803 124.531952 
L 113.903981 119.189473 
L 113.971845 117.51526 
L 114.041105 121.926277 
L 114.128152 117.71216 
L 114.263947 125.03159 
L 114.350442 118.864611 
L 114.48757 128.66965 
L 114.504641 126.582544 
L 114.613774 118.404671 
L 114.711089 121.632346 
L 114.900365 112.950663 
L 115.002511 113.786493 
L 115.036809 119.228563 
L 115.174926 108.284629 
L 115.328412 111.550212 
L 115.414477 108.220938 
L 115.483211 108.340644 
L 115.69125 117.501476 
L 115.759754 116.985529 
L 115.8978 121.143483 
L 115.968063 121.419789 
L 116.069281 121.087073 
L 116.103244 125.01704 
L 116.636404 110.667533 
L 116.67259 114.149303 
L 116.756354 112.802372 
L 116.825279 106.404427 
L 116.893766 110.602655 
L 117.032761 111.518662 
L 117.097674 108.856859 
L 117.11087 108.963839 
L 117.266278 114.811472 
L 117.408596 105.441173 
L 117.528606 113.330362 
L 117.630715 110.951563 
L 117.682551 111.206215 
L 117.871744 116.31217 
L 117.974975 113.279522 
L 118.036447 117.062534 
L 118.112581 116.785982 
L 118.18215 113.205591 
L 118.426954 120.442709 
L 118.460066 117.967564 
L 118.526449 117.753832 
L 118.594751 118.952615 
L 118.680865 115.228673 
L 118.842773 121.067395 
L 119.045838 119.922476 
L 119.11674 116.257744 
L 119.197861 119.383442 
L 119.301286 118.584718 
L 119.354677 112.653154 
L 119.469503 113.668934 
L 119.525557 113.113195 
L 119.703825 109.392957 
L 119.732825 108.633341 
L 119.803342 115.91286 
L 119.869478 112.823184 
L 120.062976 115.478731 
L 120.095253 114.692527 
L 120.163904 114.926997 
L 120.231886 117.285169 
L 120.387116 114.502255 
L 120.455387 115.285301 
L 120.506816 112.557918 
L 120.681119 114.38395 
L 120.748887 114.129714 
L 120.818026 114.066062 
L 120.897893 114.341441 
L 120.941495 110.056562 
L 121.006314 112.963309 
L 121.077195 114.33477 
L 121.162735 113.806002 
L 121.386407 105.328574 
L 121.65024 116.829194 
L 121.663227 112.596647 
L 121.730977 118.1149 
L 121.784989 117.392432 
L 121.939348 122.86535 
L 122.012303 126.044513 
L 122.07571 125.628983 
L 122.144339 124.4463 
L 122.212648 118.678525 
L 122.285319 120.292857 
L 122.368765 123.331394 
L 122.780274 114.041869 
L 122.814337 118.697878 
L 122.86594 113.059456 
L 123.006228 114.081855 
L 123.144008 105.437897 
L 123.281269 111.884147 
L 123.504633 102.658071 
L 123.624486 105.094085 
L 123.728265 102.382338 
L 123.847569 113.010278 
L 123.985202 106.697317 
L 124.156494 115.136414 
L 124.2465 115.443523 
L 124.366068 127.488176 
L 124.413433 123.734682 
L 124.554261 114.08341 
L 124.637514 119.184551 
L 124.719159 117.73165 
L 124.774797 118.272774 
L 124.842766 117.800418 
L 125.16958 111.00473 
L 125.307087 121.050545 
L 125.49616 114.581098 
L 125.586063 115.585227 
L 125.633364 114.497191 
L 125.731499 114.994667 
L 125.824067 111.100375 
L 125.839993 114.208079 
L 125.960248 112.879454 
L 125.995118 106.734757 
L 126.06387 108.363084 
L 126.149882 110.750227 
L 126.286667 108.558332 
L 126.479278 115.693684 
L 126.562143 116.549936 
L 126.684097 115.438445 
L 126.769549 119.052935 
L 126.785015 113.735067 
L 126.855761 114.814644 
L 127.043959 123.142191 
L 127.112628 124.421594 
L 127.198437 120.992693 
L 127.269584 123.638124 
L 127.335727 121.807639 
L 127.487625 129.368223 
L 127.555771 126.335029 
L 127.761912 117.308974 
L 127.83175 119.777804 
L 127.916616 119.711201 
L 128.107909 112.880658 
L 128.224562 112.679667 
L 128.276336 112.677849 
L 128.344764 114.122955 
L 128.570622 103.111456 
L 128.62097 102.387214 
L 128.810411 109.809966 
L 128.901204 105.994462 
L 129.286394 118.380785 
L 129.402623 115.513494 
L 129.415668 113.811704 
L 129.485417 117.975622 
L 129.602754 121.941494 
L 129.672327 121.471583 
L 130.135738 114.00252 
L 130.380618 99.238577 
L 130.568127 100.361367 
L 130.60124 99.27225 
L 130.669284 104.287194 
L 130.738853 102.009245 
L 130.824202 98.51852 
L 130.893231 103.273116 
L 130.979095 99.841691 
L 131.118262 106.593851 
L 131.168794 106.582683 
L 131.254611 104.396487 
L 131.308942 106.754882 
L 131.397101 98.470865 
L 131.408887 98.486645 
L 131.667764 106.351413 
L 131.73684 109.98708 
L 131.805509 109.370955 
L 131.925683 108.048715 
L 132.030389 104.745316 
L 132.117011 106.216108 
L 132.202648 103.829826 
L 132.247371 105.258423 
L 132.304875 110.119807 
L 132.476106 102.20883 
L 132.528484 103.053037 
L 132.596821 101.631029 
L 132.735573 109.941325 
L 132.802618 109.58392 
L 132.871262 109.986462 
L 132.939689 113.508372 
L 133.02563 111.996254 
L 133.113767 112.041105 
L 133.162977 116.584813 
L 133.2324 115.046577 
L 133.301867 114.310318 
L 133.37125 114.573791 
L 133.438358 110.499774 
L 133.509809 111.649095 
L 133.577311 113.179052 
L 133.661622 109.246756 
L 133.800676 117.372876 
L 133.867562 112.851107 
L 134.022567 112.509425 
L 134.086445 117.541445 
L 134.25092 118.20632 
L 134.458192 110.803199 
L 134.504108 106.997279 
L 134.576046 108.330935 
L 134.660105 111.501987 
L 134.723139 110.340758 
L 134.786089 110.214115 
L 134.865086 110.901821 
L 134.933987 109.744401 
L 135.051174 111.285663 
L 135.148188 114.274246 
L 135.240519 115.464608 
L 135.361162 109.939801 
L 135.712467 117.086473 
L 135.862407 111.956911 
L 135.955191 113.156349 
L 136.024683 115.633124 
L 136.058513 113.322398 
L 136.146344 113.122091 
L 136.229829 115.807091 
L 136.299513 114.824834 
L 136.384526 113.236538 
L 136.435527 113.606615 
L 136.557706 113.838364 
L 136.659867 107.417396 
L 136.712006 109.911311 
L 136.7286 112.773085 
L 136.782436 112.361495 
L 137.142192 96.102842 
L 137.19825 95.067973 
L 137.28104 98.347956 
L 137.349529 106.873929 
L 137.469844 107.152679 
L 137.591684 103.650719 
L 137.848571 112.67316 
L 137.916794 113.72442 
L 137.985721 116.792197 
L 138.192673 107.638808 
L 138.45781 112.539823 
L 138.707877 95.978654 
L 138.777975 99.122813 
L 138.934409 102.352555 
L 139.040099 103.645923 
L 139.259159 113.808748 
L 139.360819 119.011595 
L 139.432344 117.039843 
L 139.481859 117.039521 
L 139.568764 117.834948 
L 139.626235 121.708998 
L 139.687891 117.894874 
L 139.756893 117.932131 
L 139.993107 129.707835 
L 140.066294 128.637518 
L 140.117875 129.579431 
L 140.256181 123.226108 
L 140.443771 126.67073 
L 140.616232 117.572921 
L 140.855229 111.001116 
L 140.891778 118.148064 
L 140.992418 117.586303 
L 141.046008 113.267422 
L 141.115421 115.792583 
L 141.183595 114.477653 
L 141.285235 109.692481 
L 141.322043 110.383285 
L 141.416988 113.932441 
L 141.468818 112.516644 
L 141.555597 112.289215 
L 141.625353 106.022305 
L 141.813325 113.345506 
L 141.846489 112.843609 
L 142.103074 106.846506 
L 142.173578 107.348609 
L 142.32649 113.837557 
L 142.516409 109.836134 
L 142.671198 116.618431 
L 142.757125 115.709068 
L 142.825478 115.744423 
L 142.921706 118.11948 
L 143.032602 111.500815 
L 143.104722 113.55025 
L 143.480143 100.623403 
L 143.530099 102.296408 
L 143.73744 106.129783 
L 143.873297 113.283452 
L 144.045459 114.418439 
L 144.199611 118.063735 
L 144.285894 116.184762 
L 144.321783 117.822728 
L 144.389981 117.500415 
L 144.479484 118.73544 
L 144.512251 120.925747 
L 144.595626 114.585186 
L 144.733012 122.123671 
L 144.819363 117.471541 
L 144.940918 124.166998 
L 145.162273 112.699816 
L 145.232765 113.736546 
L 145.301158 116.434108 
L 145.442189 111.844148 
L 145.523284 114.716277 
L 145.715227 107.441864 
L 145.762744 106.974501 
L 146.088538 118.700434 
L 146.157944 117.790386 
L 146.225996 116.637757 
L 146.298426 121.38535 
L 146.311408 120.579556 
L 146.380356 116.868283 
L 146.449742 117.578967 
L 146.517844 115.641129 
L 146.673201 118.719885 
L 146.776452 117.90178 
L 146.810183 112.555955 
L 146.862136 116.782232 
L 146.980328 118.554909 
L 147.016376 116.95847 
L 147.153666 120.391665 
L 147.207905 117.183446 
L 147.256933 120.779826 
L 147.710667 106.088017 
L 147.828306 105.331882 
L 147.864248 109.247917 
L 147.95021 108.400238 
L 148.13911 115.767718 
L 148.207514 113.959557 
L 148.551357 124.423662 
L 148.570857 123.042078 
L 148.722682 118.891538 
L 148.79153 120.420347 
L 148.862324 118.547167 
L 148.931646 120.548068 
L 149.415511 108.162391 
L 149.568348 109.4722 
L 149.741016 106.256931 
L 149.77435 106.620498 
L 149.877627 106.85687 
L 149.982581 107.607456 
L 150.136345 103.877159 
L 150.20534 104.507397 
L 150.342256 100.566541 
L 150.410517 100.985546 
L 150.551375 96.056579 
L 150.703319 100.103665 
L 150.841168 107.884955 
L 151.047568 104.181778 
L 151.201573 106.697736 
L 151.269817 105.962972 
L 151.339216 108.39678 
L 151.408575 107.740044 
L 151.477438 107.799582 
L 151.977401 119.459563 
L 152.192499 115.130882 
L 152.265807 115.199883 
L 152.408043 112.899772 
L 152.547475 108.658269 
L 152.618763 110.946542 
L 153.044115 102.34675 
L 153.109679 103.632832 
L 153.253075 102.008861 
L 153.318935 103.775358 
L 153.390228 103.513742 
L 153.48817 102.649092 
L 153.6115 110.92954 
L 153.694354 110.116573 
L 153.764006 109.978318 
L 153.866812 111.478753 
L 153.902949 111.269009 
L 154.029099 107.210558 
L 154.099446 107.344533 
L 154.19688 111.218027 
L 154.317151 106.903019 
L 154.54806 103.199479 
L 154.747601 113.027914 
L 154.971543 116.974234 
L 155.108748 116.56241 
L 155.246767 120.220534 
L 155.606976 108.338985 
L 155.778628 112.419266 
L 155.950838 109.343448 
L 156.157433 116.663907 
L 156.467355 106.274174 
L 156.671882 114.796453 
L 156.813077 119.923188 
L 156.885066 116.736651 
L 157.032187 121.547162 
L 157.101234 126.916274 
L 157.221133 127.346308 
L 157.376383 121.634399 
L 157.585182 120.373606 
L 157.668632 124.633687 
L 157.873826 119.882527 
L 158.017364 123.5357 
L 158.080799 123.000315 
L 158.197501 123.748114 
L 158.320871 121.810101 
L 158.448218 120.130136 
L 158.527349 114.737989 
L 158.595665 114.446155 
L 158.681727 114.783983 
L 158.785057 113.775675 
L 158.802472 114.236267 
L 159.008667 107.580718 
L 159.09518 108.892211 
L 159.152153 107.814855 
L 159.374637 117.112906 
L 159.460955 112.441279 
L 159.547742 114.160007 
L 159.59804 112.932928 
L 159.861303 123.964004 
L 159.946735 122.401996 
L 160.033042 122.611288 
L 160.102806 119.592498 
L 160.152759 123.146839 
L 160.222929 119.864369 
L 160.311982 125.115904 
L 160.359225 123.785136 
L 160.446507 126.375243 
L 160.702241 116.508043 
L 160.754681 116.367362 
L 160.857433 112.042205 
L 160.926054 112.728139 
L 161.218861 102.770974 
L 161.28759 103.341942 
L 161.504696 108.845898 
L 161.578266 109.210956 
L 161.711411 112.881454 
L 161.865854 118.672601 
L 161.985959 121.668039 
L 162.124612 114.734076 
L 162.31238 120.349011 
L 162.432741 117.651587 
L 162.67242 108.669428 
L 162.915241 113.571798 
L 162.99978 111.765231 
L 163.068652 115.396203 
L 163.136863 114.004294 
L 163.205291 113.849712 
L 163.274294 112.293654 
L 163.34561 117.652509 
L 163.446808 117.310665 
L 163.773323 101.706643 
L 163.994382 107.086211 
L 164.103783 103.578922 
L 164.186844 104.266139 
L 164.322531 110.510229 
L 164.373107 110.220545 
L 164.496812 124.300839 
L 164.547293 120.757196 
L 164.683911 118.135679 
L 164.769564 122.825965 
L 165.183026 110.718593 
L 165.322184 112.51878 
L 165.337291 110.770453 
L 165.596917 106.950693 
L 165.667383 107.460636 
L 165.766295 115.103159 
L 165.8381 117.440332 
L 166.042671 112.844742 
L 166.164504 111.31206 
L 166.196522 112.859321 
L 166.248389 111.356102 
L 166.540396 100.249258 
L 166.821766 112.24392 
L 166.900739 109.462153 
L 166.970111 110.672889 
L 167.107436 114.756339 
L 167.176062 112.242683 
L 167.264936 114.610996 
L 167.46925 106.651457 
L 167.539112 106.285453 
L 167.606947 108.216971 
L 167.812924 105.14016 
L 167.848681 101.491985 
L 168.003661 105.471654 
L 168.03714 107.155108 
L 168.105114 105.49307 
L 168.527978 112.816371 
L 168.578728 117.735089 
L 168.603457 115.071815 
L 168.680066 116.216258 
L 168.793577 114.755279 
L 168.87919 117.140783 
L 168.948893 116.67743 
L 169.189102 113.383762 
L 169.242607 110.024302 
L 169.326917 110.771095 
L 169.39548 107.723091 
L 169.448404 108.079736 
L 169.618934 101.592611 
L 169.671205 97.325885 
L 169.738953 98.61007 
L 169.808065 99.24146 
L 170.015207 105.827829 
L 170.128542 105.478955 
L 170.196614 105.313082 
L 170.378443 111.809133 
L 170.631682 113.874859 
L 170.666092 112.826097 
L 171.302334 129.63537 
L 171.388238 129.0977 
L 171.885486 115.811861 
L 172.14711 106.765295 
L 172.214747 110.786274 
L 172.314869 108.883801 
L 172.385878 110.64684 
L 172.455638 106.718767 
L 172.505074 108.773133 
L 172.656086 109.103615 
L 172.661849 108.676723 
L 172.867114 116.458337 
L 172.959959 112.576845 
L 173.024588 113.013787 
L 173.107668 114.338994 
L 173.367264 128.898811 
L 173.436181 127.136158 
L 173.71173 118.377184 
L 173.796468 117.54894 
L 173.933974 111.457448 
L 174.071159 106.260614 
L 174.312164 115.60574 
L 174.363012 113.760326 
L 174.535136 117.924078 
L 174.588243 116.861921 
L 174.763244 119.782233 
L 174.792724 121.637781 
L 174.861688 120.403769 
L 174.947081 119.652159 
L 175.068126 122.054017 
L 175.273924 120.469626 
L 175.34269 123.75439 
L 175.565703 117.63127 
L 175.705776 113.193032 
L 175.720085 119.936375 
L 175.823453 116.366768 
L 175.995292 119.846657 
L 176.069107 117.264144 
L 176.133425 117.912913 
L 176.271952 112.85595 
L 176.428452 115.511899 
L 176.700566 103.868293 
L 176.767887 104.224054 
L 177.053483 111.776423 
L 177.191744 111.101873 
L 177.272233 114.747966 
L 177.344094 115.758536 
L 177.481706 121.896901 
L 177.594292 118.338477 
L 177.636099 120.627031 
L 178.101381 106.647331 
L 178.120104 107.99041 
L 178.327489 101.75667 
L 178.39451 102.244792 
L 178.746487 96.64059 
L 178.769623 98.861843 
L 178.842126 96.873023 
L 179.074616 107.479754 
L 179.11366 105.580294 
L 179.26163 102.360644 
L 179.329803 108.259875 
L 179.398453 105.326373 
L 179.471439 105.195761 
L 179.553328 106.484291 
L 179.607763 100.243531 
L 179.690396 101.282267 
L 179.759889 98.473104 
L 180.327598 123.279887 
L 180.394866 122.975361 
L 180.463323 122.207435 
L 180.670205 115.396357 
L 181.029822 106.190789 
L 181.103347 106.989026 
L 181.244469 111.326606 
L 181.464862 105.944591 
L 181.531453 107.926915 
L 181.668877 102.791531 
L 181.80804 104.419541 
L 181.876689 99.030872 
L 181.961109 100.384866 
L 182.029851 101.744966 
L 182.099425 101.639329 
L 182.168309 100.269725 
L 182.236875 100.278947 
L 182.37871 110.661396 
L 182.450597 110.248864 
L 182.52804 108.884365 
L 182.888978 122.812744 
L 183.027121 115.723367 
L 183.119245 116.231023 
L 183.163693 116.125679 
L 183.232667 118.185797 
L 183.301384 117.786932 
L 183.373982 117.556862 
L 183.510367 114.914665 
L 183.59515 113.841105 
L 183.731004 116.454067 
L 184.091341 104.739983 
L 184.147226 105.07641 
L 184.31584 100.264685 
L 184.36712 102.084123 
L 184.503649 94.053411 
L 184.650385 101.771659 
L 184.726619 99.033518 
L 184.806953 99.495037 
L 184.869713 100.093827 
L 184.949875 104.110753 
L 185.035986 101.17105 
L 185.230811 108.49275 
L 185.363331 105.905247 
L 185.829869 113.630774 
L 185.931202 110.488534 
L 186.206126 106.111285 
L 186.295949 112.179509 
L 186.431088 107.844505 
L 186.587408 112.004867 
L 186.641981 111.630316 
L 186.800165 110.556982 
L 186.859832 111.219178 
L 187.028402 110.073202 
L 187.080037 112.518911 
L 187.271618 103.707283 
L 187.357268 109.556843 
L 187.423745 108.085351 
L 187.492513 108.720711 
L 187.561275 108.688227 
L 187.649077 107.124871 
L 187.768001 101.313437 
L 187.87079 102.428139 
L 187.921756 102.136779 
L 188.042618 102.135433 
L 188.112363 98.498991 
L 188.214928 105.19982 
L 188.368743 108.550507 
L 188.429849 118.310103 
L 188.506686 116.468246 
L 188.628547 120.677792 
L 188.712667 125.768235 
L 188.997972 121.294102 
L 189.17814 120.173472 
L 189.217921 120.958232 
L 189.470966 107.31879 
L 189.505171 112.932721 
L 189.574405 111.007654 
L 189.643866 111.733362 
L 189.839745 105.905675 
L 189.975401 108.657758 
L 190.052356 108.459628 
L 190.127919 115.343346 
L 190.20012 114.909553 
L 190.267237 115.970449 
L 190.334565 114.526381 
L 190.403381 116.157131 
L 190.505849 112.626034 
L 190.608825 118.725769 
L 190.67794 116.383764 
L 190.729922 118.318651 
L 190.763506 115.361297 
L 190.88556 115.465763 
L 190.987571 109.533811 
L 191.124183 111.094913 
L 191.192988 111.740355 
L 191.330829 107.733657 
L 191.400213 108.960129 
L 191.537402 109.122584 
L 191.588324 108.463725 
L 191.647251 109.034483 
L 191.692012 113.372302 
L 191.941446 109.285683 
L 191.970356 111.254851 
L 192.05667 111.097378 
L 192.158962 111.50133 
L 192.331895 113.654392 
L 192.417062 108.577723 
L 192.470431 114.876867 
L 192.537663 114.437014 
L 192.899796 109.099531 
L 192.968186 110.679655 
L 193.054679 108.883061 
L 193.123264 114.608694 
L 193.242379 102.910321 
L 193.346106 99.64524 
L 193.399563 101.941199 
L 193.480887 101.293705 
L 193.535138 102.718812 
L 193.672204 94.691381 
L 193.74115 101.122059 
L 193.809834 97.329227 
L 194.033328 107.416693 
L 194.122568 105.574385 
L 194.174385 105.954502 
L 194.317209 104.769628 
L 194.462157 108.533436 
L 194.60051 103.083608 
L 194.789375 96.263631 
L 194.96145 107.81273 
L 195.048106 107.790007 
L 195.098591 110.775579 
L 195.322124 105.378304 
L 195.376314 108.058036 
L 195.650382 101.612415 
L 195.718156 101.19787 
L 195.958962 105.28824 
L 196.045959 107.728073 
L 196.301559 102.053346 
L 196.371112 102.696764 
L 196.456484 102.638468 
L 196.543901 103.236023 
L 196.593681 100.812312 
L 196.661868 102.183483 
L 196.86935 109.435652 
L 196.920344 107.84134 
L 197.005582 104.615964 
L 197.060639 106.710413 
L 197.143772 107.095361 
L 197.231382 102.087896 
L 197.29979 106.179979 
L 197.36668 106.031735 
L 197.538471 101.60014 
L 197.81365 112.468007 
L 197.987508 116.638204 
L 198.018732 114.854288 
L 198.087306 115.096175 
L 198.17324 116.973715 
L 198.228299 121.930196 
L 198.356051 122.155169 
L 198.535939 109.764114 
L 198.5886 111.374445 
L 198.657359 108.305154 
L 198.725987 111.09343 
L 198.932139 99.765187 
L 199.003172 100.148384 
L 199.139277 105.528722 
L 199.214319 103.263766 
L 199.311572 102.408472 
L 199.63834 111.504315 
L 199.707722 106.962043 
L 199.92961 115.403439 
L 199.998617 114.461929 
L 200.067015 117.733479 
L 200.278863 108.929411 
L 200.360432 109.165819 
L 200.451722 110.642703 
L 200.512662 109.250947 
L 200.564502 114.915886 
L 200.702578 114.650857 
L 200.718646 117.638236 
L 200.78781 112.159458 
L 200.87403 114.402651 
L 200.977596 113.190934 
L 201.062171 116.110851 
L 201.168844 115.907725 
L 201.582888 104.14143 
L 201.842975 111.317771 
L 201.855324 108.802231 
L 201.923541 108.993198 
L 202.061177 111.156426 
L 202.369989 123.228994 
L 202.440682 118.862286 
L 202.49519 121.552978 
L 202.612816 124.141274 
L 202.681335 121.921092 
L 202.698314 122.261972 
L 202.766239 122.79841 
L 202.972729 110.46124 
L 203.057907 111.862676 
L 203.127403 115.261932 
L 203.197665 113.848208 
L 203.264905 113.687193 
L 203.422169 116.053855 
L 203.469863 111.087558 
L 203.711102 119.03621 
L 203.906933 109.098942 
L 204.125591 103.251499 
L 204.260643 112.091828 
L 204.363488 109.154042 
L 204.424956 109.23118 
L 204.552806 118.748826 
L 204.621748 118.210957 
L 204.828493 122.715317 
L 204.964398 113.719838 
L 205.118931 117.160218 
L 205.25687 112.054371 
L 205.32584 113.181786 
L 205.393942 112.229478 
L 205.61866 112.890288 
L 205.651951 114.919042 
L 205.687894 114.444662 
L 205.755566 110.270903 
L 205.842277 111.385392 
L 206.064927 106.588549 
L 206.116828 108.49449 
L 206.252471 102.580903 
L 206.512029 107.434642 
L 206.544804 104.648388 
L 206.751294 114.411764 
L 206.820069 111.821386 
L 206.906153 116.629896 
L 207.034547 112.732761 
L 207.094165 113.631131 
L 207.239675 112.403 
L 207.386186 108.542057 
L 207.5063 107.774041 
L 207.6623 112.869146 
L 207.733161 113.198107 
L 208.034512 123.754003 
L 208.12617 122.440919 
L 208.31466 114.787418 
L 208.452364 121.159287 
L 208.675496 111.450648 
L 208.795659 111.078921 
L 208.852391 111.900425 
L 209.019892 117.028236 
L 209.367997 110.120218 
L 209.449328 110.457829 
L 209.517791 111.724189 
L 209.587386 107.532808 
L 209.69604 108.750539 
L 209.741104 108.234693 
L 209.811934 107.572134 
L 209.947919 109.701888 
L 210.067058 107.215729 
L 210.1711 113.556094 
L 210.360628 111.093025 
L 210.445691 110.947663 
L 210.514822 108.080065 
L 210.600628 109.223558 
L 210.654461 108.714284 
L 210.858207 106.840219 
L 210.892648 103.115027 
L 210.96295 105.547672 
L 211.000307 104.573231 
L 211.082331 104.631417 
L 211.152004 103.971759 
L 211.585279 122.728671 
L 211.670037 121.230539 
L 211.721216 123.773652 
L 211.857049 124.294772 
L 212.013553 114.313059 
L 212.220063 103.215595 
L 212.298165 104.153909 
L 212.362339 106.500002 
L 212.586942 100.78463 
L 212.638805 103.391216 
L 212.731395 99.679807 
L 212.793106 100.730326 
L 213.118321 93.305446 
L 213.29016 105.87873 
L 213.343173 103.989506 
L 213.497573 109.69715 
L 213.571255 111.612648 
L 213.640497 108.117867 
L 213.703147 109.543463 
L 213.84933 112.956358 
L 214.022968 109.049156 
L 214.118057 111.545562 
L 214.151766 115.361315 
L 214.290239 112.249128 
L 214.513815 115.690076 
L 214.566366 112.465587 
L 214.635063 117.126697 
L 214.705826 115.6179 
L 214.77147 114.862756 
L 215.133063 102.251334 
L 215.204372 103.178765 
L 215.272482 105.685032 
L 215.346671 100.596719 
L 215.409608 103.372821 
L 215.547509 100.778881 
L 215.624327 97.408191 
L 215.70161 105.600994 
L 215.840616 114.185875 
L 215.909154 115.585778 
L 215.977274 108.113946 
L 216.085614 110.60779 
L 216.132871 105.852135 
L 216.218406 107.199895 
L 216.424492 120.238406 
L 216.518499 119.803189 
L 216.616752 114.91893 
L 216.826412 123.6871 
L 216.979642 123.253526 
L 217.186447 114.922172 
L 217.409145 120.832936 
L 217.550018 118.712224 
L 217.683888 111.364266 
L 217.771114 113.385944 
L 217.821618 111.45094 
L 217.90921 112.706255 
L 217.976866 111.951486 
L 218.18693 117.100376 
L 218.251804 115.020666 
L 218.319879 120.007836 
L 218.630579 111.465578 
L 218.741378 110.400424 
L 219.029688 100.481514 
L 219.129146 100.521458 
L 219.541399 112.449338 
L 219.593789 111.633124 
L 219.759773 115.183382 
L 219.919483 120.405304 
L 219.955954 119.894687 
L 220.099084 114.910811 
L 220.319579 118.863394 
L 220.522278 111.258953 
L 220.750882 117.852115 
L 220.917218 114.152541 
L 220.951562 109.993966 
L 221.022185 110.001544 
L 221.104978 111.962704 
L 221.156958 110.976881 
L 221.241136 111.1031 
L 221.465356 100.375644 
L 221.653027 98.87272 
L 221.672271 104.214253 
L 221.740712 103.358665 
L 221.876741 108.891542 
L 221.962239 108.807764 
L 222.100403 111.668012 
L 222.340997 118.188615 
L 222.375268 118.327667 
L 222.443942 117.791775 
L 222.529669 112.604234 
L 222.582556 112.763034 
L 222.787703 114.629748 
L 222.942584 117.055342 
L 223.08224 115.024687 
L 223.252335 116.594594 
L 223.340563 113.792159 
L 223.37235 114.103678 
L 223.475709 113.357291 
L 223.58212 110.63366 
L 223.651866 111.378067 
L 223.77153 115.537193 
L 223.788803 111.030624 
L 223.876881 113.89657 
L 224.011566 116.432801 
L 224.149687 113.302476 
L 224.321171 119.047583 
L 224.509846 113.659815 
L 224.653836 115.570898 
L 224.717036 115.365228 
L 224.870456 118.498198 
L 224.924911 118.195772 
L 225.010007 111.330661 
L 225.076381 113.175384 
L 225.2849 108.194545 
L 225.387072 99.406276 
L 225.490049 102.642863 
L 225.600071 100.23793 
L 225.858365 114.958536 
L 226.081645 120.66214 
L 226.204275 111.553551 
L 226.277358 110.704397 
L 226.493447 101.639841 
L 226.587378 98.276823 
L 226.631274 99.242362 
L 226.723238 100.729495 
L 226.994 110.254186 
L 227.268728 101.74151 
L 227.423281 103.249452 
L 227.492355 102.974764 
L 227.561004 107.076957 
L 227.63017 106.863694 
L 227.698434 102.136987 
L 227.97541 119.974325 
L 227.990357 122.639756 
L 228.103973 121.845475 
L 228.129491 123.698293 
L 228.391791 112.835429 
L 228.403779 115.005049 
L 228.423171 118.658811 
L 228.560209 118.808531 
L 228.628301 117.913438 
L 228.870796 107.075811 
L 228.920362 107.883911 
L 229.160022 119.90943 
L 229.41747 111.518202 
L 229.471054 110.512833 
L 229.624046 113.581218 
L 229.709963 112.901218 
L 229.830712 108.943875 
L 230.053249 116.886285 
L 230.317349 121.37984 
L 230.328658 121.329587 
L 230.398463 116.901634 
L 230.467904 119.872731 
L 230.483044 113.63196 
L 230.535066 118.104251 
L 230.689732 109.527416 
L 230.758914 109.628134 
L 230.84382 110.147976 
L 230.964015 118.484694 
L 231.050852 115.767301 
L 231.186983 116.823194 
L 231.22757 121.700984 
L 231.256661 117.232428 
L 231.342254 119.955941 
L 231.396548 126.014109 
L 231.617001 117.535278 
L 231.685064 114.547289 
L 231.754176 115.560275 
L 231.823742 120.266269 
L 231.909262 113.839879 
L 231.96191 114.417978 
L 232.028546 114.207429 
L 232.138983 111.23478 
L 232.266739 118.353819 
L 232.273115 114.437175 
L 232.324369 114.008346 
L 232.395871 114.403037 
L 232.461936 113.768623 
L 232.532261 108.701795 
L 232.600806 113.500536 
L 232.670237 112.313768 
L 232.781309 109.917965 
L 232.812843 113.821361 
L 232.878821 111.288428 
L 232.96231 111.967547 
L 233.118673 114.159182 
L 233.169858 114.23599 
L 233.238899 117.122098 
L 233.324245 115.894805 
L 233.512962 118.517659 
L 233.616117 111.751748 
L 233.689861 111.873154 
L 233.824843 107.27311 
L 233.874608 108.563609 
L 233.943059 108.112919 
L 234.166171 111.602835 
L 234.596729 126.766594 
L 234.990575 112.477225 
L 235.076282 112.199452 
L 235.183155 110.251405 
L 235.33705 104.183834 
L 235.651585 112.169835 
L 235.751656 112.546548 
L 235.835169 110.447741 
L 235.95545 116.590604 
L 236.006894 115.848659 
L 236.144454 123.140831 
L 236.440724 116.203051 
L 236.516698 117.272329 
L 236.575732 113.126451 
L 236.659788 113.521479 
L 236.865624 112.031677 
L 237.08891 118.743438 
L 237.228049 114.218159 
L 237.296068 119.058286 
L 237.364178 118.532354 
L 237.433205 121.676682 
L 237.799117 107.942671 
L 237.851476 108.215064 
L 238.002347 112.806798 
L 238.183674 109.90054 
L 238.355085 114.497461 
L 238.491196 112.412173 
L 238.579034 115.038537 
L 238.645981 112.079479 
L 238.790941 113.067071 
L 238.858122 109.304285 
L 238.975596 111.065815 
L 239.05814 103.835128 
L 239.368992 113.092817 
L 239.421045 107.828627 
L 239.560046 117.937456 
L 239.677957 111.181836 
L 239.815411 118.758759 
L 240.056192 108.366129 
L 240.127994 109.439209 
L 240.223726 102.026566 
L 240.265222 103.095943 
L 240.348469 106.23139 
L 240.418932 102.464939 
L 240.710051 113.054866 
L 240.863839 109.682291 
L 240.922911 113.499718 
L 240.983827 110.370959 
L 241.057478 107.954894 
L 241.1571 108.748723 
L 241.265897 100.484358 
L 241.367961 99.844262 
L 241.414659 97.084152 
L 241.482748 99.368259 
L 241.620276 98.363379 
L 241.912725 111.139502 
L 242.273801 116.959865 
L 242.289551 118.095807 
L 242.342095 115.37928 
L 242.479021 107.934472 
L 242.547588 108.178654 
L 242.634129 107.913328 
L 242.685453 108.552972 
L 242.908526 116.870321 
L 243.045181 113.923571 
L 243.183383 121.727046 
L 243.544986 110.875047 
L 243.704914 105.633316 
L 243.800641 106.357357 
L 243.8885 99.537934 
L 244.041372 104.109271 
L 244.111787 103.308366 
L 244.178916 98.735969 
L 244.252218 102.022036 
L 244.335441 100.981177 
L 244.406322 102.010949 
L 244.544619 109.792138 
L 244.629746 107.971963 
L 244.801788 104.085399 
L 244.852949 104.508096 
L 244.990766 107.55389 
L 245.02756 103.47989 
L 245.112385 105.45136 
L 245.186089 105.106281 
L 245.317951 106.192421 
L 245.386629 110.558591 
L 245.524855 112.149981 
L 245.610305 116.408918 
L 245.730631 116.486983 
L 245.798982 121.75783 
L 245.83334 120.79877 
L 245.936877 121.629435 
L 245.956167 118.203862 
L 246.02296 119.864836 
L 246.09697 119.835841 
L 246.245888 116.492405 
L 246.314647 117.323864 
L 246.383309 117.193075 
L 246.453419 116.806706 
L 246.52238 119.566426 
L 246.608076 118.687162 
L 246.659508 119.510035 
L 246.828755 114.500332 
L 246.953962 120.05851 
L 247.398527 105.551723 
L 247.463439 107.253799 
L 247.515511 107.307746 
L 247.583765 106.099492 
L 247.672905 102.145535 
L 247.745181 102.653287 
L 247.806694 103.029366 
L 247.927802 102.614486 
L 247.945119 103.165185 
L 248.017487 100.653474 
L 248.37472 109.704368 
L 248.44334 106.840697 
L 248.889556 120.551814 
L 248.97675 115.876407 
L 249.009722 116.679169 
L 249.108497 116.860804 
L 249.221631 119.418051 
L 249.366879 116.616121 
L 249.382288 119.230153 
L 249.440462 117.579222 
L 249.508256 121.59894 
L 249.582957 120.027338 
L 249.6439 122.420918 
L 249.73035 118.723472 
L 249.78215 119.039191 
L 249.88451 116.896339 
L 249.953019 113.073784 
L 250.006163 116.666473 
L 250.365372 104.191258 
L 250.435006 105.159959 
L 250.502426 102.120986 
L 250.846424 115.518826 
L 250.934375 113.508334 
L 251.001294 113.459801 
L 251.137975 115.534677 
L 251.431148 110.139255 
L 251.499215 111.266475 
L 251.636338 113.25543 
L 251.704772 112.712576 
L 251.780063 111.2815 
L 251.996747 115.491088 
L 252.203509 110.157119 
L 252.271762 109.19907 
L 252.345656 112.550238 
L 252.412789 111.760985 
L 252.478782 110.635497 
L 252.565168 112.285693 
L 252.632702 116.752927 
L 252.700792 113.652305 
L 252.769807 116.298067 
L 252.840081 116.057752 
L 252.917661 113.938644 
L 252.976861 114.500183 
L 253.062121 113.154361 
L 253.201588 117.466309 
L 253.337317 111.360896 
L 253.406008 113.925786 
L 253.476541 116.020601 
L 253.631394 112.990579 
L 253.99466 110.793326 
L 254.145821 103.882818 
L 254.182482 102.020032 
L 254.266127 102.936136 
L 254.353198 99.989587 
L 254.405098 100.407339 
L 254.583999 97.30302 
L 254.765653 102.41766 
L 254.835019 106.015707 
L 254.902725 103.249484 
L 254.971009 103.270442 
L 255.051817 103.352452 
L 255.058029 101.513093 
L 255.125799 113.984017 
L 255.302497 105.987717 
L 255.367467 103.836774 
L 255.40086 105.606482 
L 255.62329 108.639861 
L 255.675783 108.430597 
L 255.756841 108.950943 
L 255.830367 103.517859 
L 255.898332 108.600958 
L 255.98481 108.359151 
L 256.03634 109.282463 
L 256.106277 108.982474 
L 256.277573 106.916883 
L 256.67263 131.736255 
L 256.843077 133.290446 
L 257.520153 96.110693 
L 257.600675 98.545206 
L 257.755369 101.442543 
L 257.962668 106.974475 
L 258.054981 104.032797 
L 258.204145 109.518581 
L 258.236731 107.04487 
L 258.357938 108.795363 
L 258.37595 110.980734 
L 258.478267 110.67563 
L 258.52889 108.283024 
L 258.597288 108.624032 
L 258.821136 119.7239 
L 258.889997 117.761573 
L 259.027722 122.509991 
L 259.456891 97.888392 
L 259.577887 98.051714 
L 259.647634 102.62518 
L 259.750254 94.374034 
L 259.818022 96.758703 
L 260.246889 118.606752 
L 260.265059 117.701026 
L 260.350834 116.824059 
L 260.437913 125.342949 
L 260.522333 130.310484 
L 260.590986 127.819883 
L 260.780032 126.266885 
L 260.814796 128.604668 
L 260.866618 125.713261 
L 260.934709 120.740191 
L 261.020558 121.391682 
L 261.296019 115.803849 
L 261.382926 119.461389 
L 261.439453 117.971602 
L 261.529402 118.904087 
L 261.611091 117.938756 
L 261.710823 121.541267 
L 261.728846 118.866497 
L 262.226302 106.471374 
L 262.314583 106.258909 
L 262.414841 106.408792 
L 262.570743 111.051626 
L 262.638714 111.40555 
L 262.725451 110.915218 
L 262.79346 109.656806 
L 262.862274 109.857088 
L 262.931412 110.286817 
L 263.205961 118.844818 
L 263.430083 121.935404 
L 263.567638 121.888912 
L 263.635706 121.125446 
L 263.70536 123.475543 
L 264.067028 116.144105 
L 264.131636 116.066711 
L 264.203068 114.178033 
L 264.285195 116.518315 
L 264.353428 115.573978 
L 264.422337 112.947459 
L 264.490523 115.339582 
L 264.560368 111.087176 
L 264.627693 115.917421 
L 264.696586 113.26821 
L 264.850743 107.603879 
L 264.919426 108.699134 
L 264.988222 109.52233 
L 265.05948 104.663032 
L 265.125245 106.070842 
L 265.26427 110.28026 
L 265.335563 108.023514 
L 265.418681 109.208825 
L 265.486932 112.654437 
L 265.55501 112.644608 
L 265.692631 109.952589 
L 265.763735 113.75778 
L 265.916189 107.718306 
L 266.122595 112.996467 
L 266.198909 112.926146 
L 266.262111 115.424634 
L 266.437692 113.699863 
L 266.482981 113.704679 
L 266.554269 113.433137 
L 266.758167 116.036603 
L 266.828137 115.384757 
L 266.844449 105.43177 
L 266.913141 111.819698 
L 266.998625 109.947847 
L 267.0506 111.973556 
L 267.119269 111.34808 
L 267.22376 113.050927 
L 267.256758 112.290407 
L 267.328629 112.555703 
L 267.601012 105.044248 
L 267.651888 106.280643 
L 267.702892 109.312739 
L 267.789789 108.633256 
L 267.840457 108.835422 
L 268.030725 101.287636 
L 268.119671 101.953822 
L 268.253545 105.099083 
L 268.350345 105.853195 
L 268.390694 104.851775 
L 268.829048 122.955377 
L 268.897228 121.738541 
L 269.104429 114.459117 
L 269.327489 110.558175 
L 269.533098 114.982509 
L 269.670676 130.561065 
L 269.824578 129.199705 
L 269.927421 128.228532 
L 270.116783 133.12117 
L 270.203022 134.186667 
L 270.393125 116.191069 
L 270.598139 122.015587 
L 270.701386 120.659403 
L 270.752685 123.054091 
L 270.909287 118.88135 
L 271.102889 125.81024 
L 271.172899 120.290261 
L 271.276482 122.013585 
L 271.383041 118.901052 
L 271.453145 106.857655 
L 271.533302 107.797218 
L 271.740021 112.401889 
L 271.844508 111.44058 
L 271.915595 116.749926 
L 271.963999 114.53632 
L 272.015294 113.740716 
L 272.307487 120.665665 
L 272.600161 106.226618 
L 272.669899 109.271663 
L 272.891993 103.03924 
L 272.962019 102.456643 
L 273.15149 106.825845 
L 273.272208 106.231231 
L 273.315852 103.771669 
L 273.428933 105.573464 
L 273.583542 111.338055 
L 273.656774 112.077277 
L 273.787808 107.936295 
L 273.804927 110.365528 
L 273.924976 107.4854 
L 273.968828 113.987135 
L 274.01112 113.394612 
L 274.235636 107.623494 
L 274.323188 111.187116 
L 274.373747 108.212094 
L 274.433517 112.410997 
L 274.513825 111.464219 
L 274.654571 115.741772 
L 274.682374 109.248549 
L 274.734585 110.472628 
L 274.823863 112.31983 
L 274.874641 111.583334 
L 274.940918 110.557619 
L 275.016309 105.779077 
L 275.079456 107.8421 
L 275.312559 101.154605 
L 275.443632 107.437801 
L 275.511482 102.20884 
L 275.819965 116.941193 
L 275.853738 115.241105 
L 276.026586 117.81572 
L 276.07712 112.992475 
L 276.163953 113.637831 
L 276.354004 116.238567 
L 276.475355 109.513575 
L 276.508675 110.679933 
L 276.664367 112.936898 
L 276.731364 111.794198 
L 276.854947 115.949815 
L 276.936853 118.666115 
L 277.146125 112.433783 
L 277.195291 116.797466 
L 277.229477 113.131785 
L 277.332254 115.719841 
L 277.418234 113.198837 
L 277.490609 112.739751 
L 277.557165 109.494027 
L 277.625538 109.883975 
L 277.641771 111.638914 
L 277.710822 110.703514 
L 277.934606 111.604198 
L 278.003779 108.506346 
L 278.054861 110.054763 
L 278.281558 117.164993 
L 278.365363 111.350636 
L 278.438163 111.588205 
L 278.521534 111.153157 
L 278.674467 111.993809 
L 278.793105 113.447099 
L 278.879316 117.112767 
L 278.948011 116.473889 
L 279.087654 114.297731 
L 279.103884 119.025335 
L 279.176631 117.159256 
L 279.246085 116.500828 
L 279.360257 109.764603 
L 279.411491 111.415354 
L 279.481184 110.650231 
L 279.574435 110.158143 
L 279.62384 113.49614 
L 279.691516 112.462073 
L 279.773444 110.37063 
L 279.979672 116.134386 
L 280.133949 123.423317 
L 280.266458 123.056008 
L 280.274008 128.554047 
L 280.340304 125.300799 
L 280.408709 123.849295 
L 280.517747 124.393601 
L 280.548698 120.490193 
L 280.615478 121.62828 
L 280.683714 122.925021 
L 280.909311 115.839576 
L 280.975657 115.727027 
L 281.04482 114.362809 
L 281.113321 115.729375 
L 281.184853 113.160649 
L 281.252094 117.256188 
L 281.320442 115.77487 
L 281.408347 116.467757 
L 281.542707 115.35722 
L 281.598846 118.871445 
L 281.611717 114.778432 
L 281.766671 101.425539 
L 281.903563 104.040429 
L 282.112282 108.475067 
L 282.246761 108.013367 
L 282.264395 105.568445 
L 282.333163 110.690769 
L 282.418802 111.937479 
L 282.613098 118.537775 
L 282.70241 116.127013 
L 283.027198 124.084735 
L 283.16325 124.934561 
L 283.387788 118.66094 
L 283.440973 117.959206 
L 283.491305 118.441342 
L 283.561365 118.381796 
L 283.720331 112.516232 
L 283.800529 112.406946 
L 283.817963 108.07078 
L 283.913251 109.873575 
L 284.041954 112.958894 
L 284.282958 100.82341 
L 284.372836 101.257393 
L 284.4447 101.177191 
L 284.462185 100.227929 
L 284.561428 102.765557 
L 284.612918 101.007193 
L 284.664694 101.599476 
L 284.811439 100.228873 
L 285.037505 108.377281 
L 285.167079 105.934475 
L 285.268833 105.272258 
L 285.405135 110.927235 
L 285.611198 105.578412 
L 285.680283 105.473687 
L 285.750372 101.337172 
L 285.886921 111.49011 
L 286.213773 116.394576 
L 286.368086 118.75003 
L 286.437593 119.532186 
L 286.473571 122.782459 
L 286.677073 114.058724 
L 286.765127 113.712727 
L 286.952286 109.516969 
L 287.090488 114.121475 
L 287.15855 113.536715 
L 287.226849 114.169631 
L 287.295907 117.124074 
L 287.365577 116.518112 
L 287.466999 112.264386 
L 287.518288 113.903715 
L 287.748568 107.631247 
L 287.828849 106.88011 
L 287.936452 111.075117 
L 288.125704 104.769377 
L 288.364008 115.220787 
L 288.430014 112.432216 
L 288.498105 107.225775 
L 288.618796 108.126364 
L 288.672374 107.34736 
L 288.740637 116.092492 
L 288.790136 115.708439 
L 288.979195 110.112202 
L 288.996698 114.726369 
L 289.067846 108.637835 
L 289.168506 110.115346 
L 289.297472 114.294283 
L 289.363248 114.216489 
L 289.438778 106.532891 
L 289.495783 111.005766 
L 289.667576 116.363098 
L 289.720278 115.708122 
L 289.856053 121.547393 
L 290.062238 118.353218 
L 290.130902 123.170642 
L 290.285923 117.966617 
L 290.346579 118.243268 
L 290.439824 118.001687 
L 290.594436 111.25629 
L 290.646525 111.031087 
L 290.817701 112.091839 
L 290.989262 101.889388 
L 291.144749 98.198378 
L 291.282153 102.137432 
L 291.350745 101.531284 
L 291.728782 113.545217 
L 291.780875 116.743203 
L 291.90302 116.818173 
L 292.04136 113.68728 
L 292.14117 110.106413 
L 292.25341 110.213549 
L 292.280231 111.325175 
L 292.331491 110.631861 
L 292.416373 110.197476 
L 292.502142 104.618351 
L 292.553655 106.140647 
L 292.898058 110.98097 
L 293.08715 112.553495 
L 293.15733 109.955034 
L 293.193686 112.691966 
L 293.310445 112.827659 
L 293.361793 111.40187 
L 293.413511 112.834811 
L 293.501281 114.117726 
L 293.688428 110.931133 
L 293.792841 111.492624 
L 293.826766 114.874153 
L 293.895125 113.544539 
L 293.997706 113.226803 
L 294.048974 115.345744 
L 294.136603 114.133916 
L 294.18628 115.015867 
L 294.272534 114.564517 
L 294.394014 108.362352 
L 294.40952 110.227716 
L 294.48293 109.504216 
L 294.583144 109.876752 
L 294.718782 115.051038 
L 294.907918 108.032289 
L 295.182804 120.756985 
L 295.308733 121.144661 
L 295.391633 120.107315 
L 295.464696 124.663193 
L 295.543779 123.185785 
L 295.612576 124.59886 
L 295.682313 119.882467 
L 295.758926 121.150257 
L 295.887151 122.665733 
L 295.972603 121.374941 
L 296.059473 117.922802 
L 296.110532 118.064721 
L 296.196013 116.968284 
L 296.268512 117.903902 
L 296.317692 116.981995 
L 296.385256 119.921575 
L 296.549009 111.487684 
L 296.678208 112.567842 
L 296.746249 115.313319 
L 296.832604 114.481541 
L 296.883772 114.67549 
L 296.969372 112.125015 
L 297.03429 113.516649 
L 297.102806 112.068065 
L 297.286835 115.781271 
L 297.329281 114.86989 
L 297.390178 115.320158 
L 297.597592 107.824449 
L 297.700836 110.760932 
L 297.753728 107.812807 
L 297.840977 110.739099 
L 297.881382 106.555488 
L 297.977648 107.709244 
L 298.028726 108.221627 
L 298.097711 105.498685 
L 298.374299 116.536082 
L 298.442166 114.610441 
L 298.527468 113.112708 
L 298.581038 115.248619 
L 298.736652 111.699979 
L 298.824937 111.17853 
L 298.939844 106.528215 
L 299.019771 108.411366 
L 299.077631 108.082497 
L 299.162263 109.0211 
L 299.233202 107.492024 
L 299.371633 109.277573 
L 299.440922 107.085876 
L 299.5939 109.942801 
L 299.730299 106.246156 
L 299.798827 106.258928 
L 299.868812 110.878994 
L 299.939606 107.850204 
L 300.00535 108.003521 
L 300.144727 110.762497 
L 300.301521 108.938486 
L 300.461836 111.053978 
L 300.470418 108.436462 
L 300.505095 109.388568 
L 300.598639 111.051646 
L 300.660935 115.574733 
L 300.723271 114.100531 
L 300.798037 111.204346 
L 300.869857 113.172426 
L 301.285624 100.074934 
L 301.349358 96.47969 
L 301.42267 97.254844 
L 302.002154 122.536506 
L 302.070819 124.193304 
L 302.156859 123.706077 
L 302.224744 123.575778 
L 302.49989 115.792191 
L 302.552361 116.69984 
L 302.637894 110.18643 
L 302.757477 109.794215 
L 302.815789 109.028529 
L 302.945854 98.96309 
L 303.204191 103.641717 
L 303.238523 99.516845 
L 303.289821 100.325593 
L 303.376565 105.250115 
L 303.481585 105.180224 
L 303.703274 110.365004 
L 303.872389 105.088947 
L 303.978305 111.059572 
L 304.045055 112.209795 
L 304.13157 116.663349 
L 304.200545 114.632331 
L 304.269959 114.701964 
L 304.388412 116.540727 
L 304.508547 109.201786 
L 304.612642 113.714699 
L 304.766991 112.153725 
L 304.860173 109.584596 
L 304.93988 111.873196 
L 305.145788 124.768853 
L 305.251227 126.661804 
L 305.488183 120.472987 
L 305.629956 118.711873 
L 305.69504 113.278868 
L 305.763648 113.745666 
L 305.869976 106.420937 
L 305.971042 114.009982 
L 306.041701 113.479907 
L 306.108544 114.399563 
L 306.334318 118.599159 
L 306.43457 119.197077 
L 306.587828 124.012829 
L 306.627605 121.039038 
L 306.700128 124.694407 
L 306.760267 121.833885 
L 306.862936 123.694487 
L 306.897005 120.17038 
L 306.966703 122.189123 
L 307.121889 122.191822 
L 307.191122 125.450266 
L 307.223975 123.813567 
L 307.40186 119.541314 
L 307.46539 120.895341 
L 308.323131 103.163892 
L 308.392178 106.415009 
L 308.480362 106.163107 
L 308.584898 103.366598 
L 308.701736 96.52353 
L 308.950378 109.231994 
L 309.119497 111.032653 
L 309.260758 110.962178 
L 309.348061 116.224991 
L 309.38495 114.041561 
L 309.511183 110.786346 
L 309.527491 116.337208 
L 309.613845 110.033436 
L 309.667331 109.879752 
L 309.853254 115.044331 
L 309.922086 114.658806 
L 310.16658 125.232885 
L 310.454366 117.36849 
L 310.800381 95.582339 
L 311.02199 100.024251 
L 311.177047 100.756161 
L 311.314669 98.543284 
L 311.474585 108.520858 
L 311.526609 112.085149 
L 311.658575 105.362405 
L 311.743895 106.046113 
L 311.796854 105.142813 
L 312.088965 112.856749 
L 312.19054 110.869145 
L 312.246484 111.61928 
L 312.431239 115.483378 
L 312.537001 117.543152 
L 312.58846 114.992321 
L 312.727197 121.047104 
L 312.798214 119.226382 
L 313.50823 100.590372 
L 314.002439 115.436095 
L 314.018017 113.082294 
L 314.168185 118.684894 
L 314.207059 117.524032 
L 314.361066 111.765885 
L 314.429753 105.976643 
L 314.504987 108.059503 
L 314.567667 108.059459 
L 314.67779 106.458595 
L 314.79066 100.585585 
L 315.010332 96.950911 
L 315.134439 101.429693 
L 315.284715 95.440144 
L 315.803836 111.042548 
L 315.849866 108.267835 
L 316.002942 119.284053 
L 316.089357 117.737846 
L 316.140571 119.664111 
L 316.208979 119.407692 
L 316.312099 119.813263 
L 316.570089 125.16352 
L 316.691718 121.860127 
L 316.954083 130.517404 
L 317.140176 122.076914 
L 317.275481 124.529014 
L 317.497534 119.970692 
L 317.63999 114.132933 
L 317.721994 113.71302 
L 317.775663 117.031401 
L 317.929835 112.130974 
L 318.049243 111.321679 
L 318.16975 114.915573 
L 318.203485 112.572539 
L 318.259764 113.694003 
L 318.482077 125.703119 
L 318.738518 130.307968 
L 318.829836 127.511288 
L 318.962056 129.072076 
L 318.996528 123.569569 
L 319.104924 123.835465 
L 319.169107 122.466277 
L 319.339773 100.227605 
L 319.411141 105.718007 
L 319.494359 106.066325 
L 319.580917 102.059641 
L 319.632282 109.060752 
L 319.717326 109.015455 
L 319.752099 103.615058 
L 320.133441 111.649875 
L 320.216805 110.094434 
L 320.301821 111.183394 
L 320.336275 107.537431 
L 320.397323 110.722768 
L 320.611528 119.290661 
L 320.680938 120.819755 
L 320.680938 120.819755 
" clip-path="url(#p51a00c32c1)" style="fill: none; stroke: #ff0000; stroke-opacity: 0.5; stroke-width: 3; stroke-linecap: square"/>
   </g>
   <g id="patch_3">
    <path d="M 41.680938 139.32 
L 41.680938 0.72 
" style="fill: none; stroke: #000000; stroke-width: 0.8; stroke-linejoin: miter; stroke-linecap: square"/>
   </g>
   <g id="patch_4">
    <path d="M 320.680938 139.32 
L 320.680938 0.72 
" style="fill: none; stroke: #000000; stroke-width: 0.8; stroke-linejoin: miter; stroke-linecap: square"/>
   </g>
   <g id="patch_5">
    <path d="M 41.680938 139.32 
L 320.680938 139.32 
" style="fill: none; stroke: #000000; stroke-width: 0.8; stroke-linejoin: miter; stroke-linecap: square"/>
   </g>
   <g id="patch_6">
    <path d="M 41.680938 0.72 
L 320.680938 0.72 
" style="fill: none; stroke: #000000; stroke-width: 0.8; stroke-linejoin: miter; stroke-linecap: square"/>
   </g>
   <g id="legend_1">
    <g id="patch_7">
     <path d="M 239.912187 86.198125 
L 313.680938 86.198125 
Q 315.680938 86.198125 315.680938 84.198125 
L 315.680938 55.841875 
Q 315.680938 53.841875 313.680938 53.841875 
L 239.912187 53.841875 
Q 237.912187 53.841875 237.912187 55.841875 
L 237.912187 84.198125 
Q 237.912187 86.198125 239.912187 86.198125 
z
" style="fill: #ffffff; opacity: 0.8; stroke: #cccccc; stroke-linejoin: miter"/>
    </g>
    <g id="line2d_25">
     <path d="M 241.912187 61.940313 
L 251.912187 61.940313 
L 261.912187 61.940313 
" style="fill: none; stroke: #0000ff; stroke-opacity: 0.5; stroke-width: 3; stroke-linecap: square"/>
    </g>
    <g id="text_14">
     <!-- RNEA -->
     <g transform="translate(269.912187 65.440313) scale(0.1 -0.1)">
      <defs>
       <path id="DejaVuSans-52" d="M 2841 2188 
Q 3044 2119 3236 1894 
Q 3428 1669 3622 1275 
L 4263 0 
L 3584 0 
L 2988 1197 
Q 2756 1666 2539 1819 
Q 2322 1972 1947 1972 
L 1259 1972 
L 1259 0 
L 628 0 
L 628 4666 
L 2053 4666 
Q 2853 4666 3247 4331 
Q 3641 3997 3641 3322 
Q 3641 2881 3436 2590 
Q 3231 2300 2841 2188 
z
M 1259 4147 
L 1259 2491 
L 2053 2491 
Q 2509 2491 2742 2702 
Q 2975 2913 2975 3322 
Q 2975 3731 2742 3939 
Q 2509 4147 2053 4147 
L 1259 4147 
z
" transform="scale(0.015625)"/>
       <path id="DejaVuSans-45" d="M 628 4666 
L 3578 4666 
L 3578 4134 
L 1259 4134 
L 1259 2753 
L 3481 2753 
L 3481 2222 
L 1259 2222 
L 1259 531 
L 3634 531 
L 3634 0 
L 628 0 
L 628 4666 
z
" transform="scale(0.015625)"/>
       <path id="DejaVuSans-41" d="M 2188 4044 
L 1331 1722 
L 3047 1722 
L 2188 4044 
z
M 1831 4666 
L 2547 4666 
L 4325 0 
L 3669 0 
L 3244 1197 
L 1141 1197 
L 716 0 
L 50 0 
L 1831 4666 
z
" transform="scale(0.015625)"/>
      </defs>
      <use xlink:href="#DejaVuSans-52"/>
      <use xlink:href="#DejaVuSans-4e" x="69.482422"/>
      <use xlink:href="#DejaVuSans-45" x="144.287109"/>
      <use xlink:href="#DejaVuSans-41" x="207.470703"/>
     </g>
    </g>
    <g id="line2d_26">
     <path d="M 241.912187 76.618438 
L 251.912187 76.618438 
L 261.912187 76.618438 
" style="fill: none; stroke: #ff0000; stroke-opacity: 0.5; stroke-width: 3; stroke-linecap: square"/>
    </g>
    <g id="text_15">
     <!-- BURNEA -->
     <g transform="translate(269.912187 80.118438) scale(0.1 -0.1)">
      <defs>
       <path id="DejaVuSans-42" d="M 1259 2228 
L 1259 519 
L 2272 519 
Q 2781 519 3026 730 
Q 3272 941 3272 1375 
Q 3272 1813 3026 2020 
Q 2781 2228 2272 2228 
L 1259 2228 
z
M 1259 4147 
L 1259 2741 
L 2194 2741 
Q 2656 2741 2882 2914 
Q 3109 3088 3109 3444 
Q 3109 3797 2882 3972 
Q 2656 4147 2194 4147 
L 1259 4147 
z
M 628 4666 
L 2241 4666 
Q 2963 4666 3353 4366 
Q 3744 4066 3744 3513 
Q 3744 3084 3544 2831 
Q 3344 2578 2956 2516 
Q 3422 2416 3680 2098 
Q 3938 1781 3938 1306 
Q 3938 681 3513 340 
Q 3088 0 2303 0 
L 628 0 
L 628 4666 
z
" transform="scale(0.015625)"/>
       <path id="DejaVuSans-55" d="M 556 4666 
L 1191 4666 
L 1191 1831 
Q 1191 1081 1462 751 
Q 1734 422 2344 422 
Q 2950 422 3222 751 
Q 3494 1081 3494 1831 
L 3494 4666 
L 4128 4666 
L 4128 1753 
Q 4128 841 3676 375 
Q 3225 -91 2344 -91 
Q 1459 -91 1007 375 
Q 556 841 556 1753 
L 556 4666 
z
" transform="scale(0.015625)"/>
      </defs>
      <use xlink:href="#DejaVuSans-42"/>
      <use xlink:href="#DejaVuSans-55" x="68.603516"/>
      <use xlink:href="#DejaVuSans-52" x="141.796875"/>
      <use xlink:href="#DejaVuSans-4e" x="211.279297"/>
      <use xlink:href="#DejaVuSans-45" x="286.083984"/>
      <use xlink:href="#DejaVuSans-41" x="349.267578"/>
     </g>
    </g>
   </g>
  </g>
 </g>
 <defs>
  <clipPath id="p51a00c32c1">
   <rect x="41.680938" y="0.72" width="279" height="138.6"/>
  </clipPath>
 </defs>
</svg>
