<?xml version="1.0" encoding="utf-8" standalone="no"?>
<!DOCTYPE svg PUBLIC "-//W3C//DTD SVG 1.1//EN"
  "http://www.w3.org/Graphics/SVG/1.1/DTD/svg11.dtd">
<svg xmlns:xlink="http://www.w3.org/1999/xlink" width="318.222812pt" height="166.39625pt" viewBox="0 0 318.222812 166.39625" xmlns="http://www.w3.org/2000/svg" version="1.1">
 <metadata>
  <rdf:RDF xmlns:dc="http://purl.org/dc/elements/1.1/" xmlns:cc="http://creativecommons.org/ns#" xmlns:rdf="http://www.w3.org/1999/02/22-rdf-syntax-ns#">
   <cc:Work>
    <dc:type rdf:resource="http://purl.org/dc/dcmitype/StillImage"/>
    <dc:date>2023-09-07T03:31:03.555642</dc:date>
    <dc:format>image/svg+xml</dc:format>
    <dc:creator>
     <cc:Agent>
      <dc:title>Matplotlib v3.7.2, https://matplotlib.org/</dc:title>
     </cc:Agent>
    </dc:creator>
   </cc:Work>
  </rdf:RDF>
 </metadata>
 <defs>
  <style type="text/css">*{stroke-linejoin: round; stroke-linecap: butt}</style>
 </defs>
 <g id="figure_1">
  <g id="patch_1">
   <path d="M 0 166.39625 
L 318.222812 166.39625 
L 318.222812 0 
L 0 0 
L 0 166.39625 
z
" style="fill: none"/>
  </g>
  <g id="axes_1">
   <g id="patch_2">
    <path d="M 38.502813 139.32 
L 317.502813 139.32 
L 317.502813 0.72 
L 38.502813 0.72 
L 38.502813 139.32 
z
" style="fill: none"/>
   </g>
   <g id="matplotlib.axis_1">
    <g id="xtick_1">
     <g id="line2d_1">
      <path d="M 38.502813 139.32 
L 38.502813 0.72 
" clip-path="url(#pdc0c56702b)" style="fill: none; stroke-dasharray: 0.8,1.32; stroke-dashoffset: 0; stroke: #000000; stroke-opacity: 0.5; stroke-width: 0.8"/>
     </g>
     <g id="line2d_2">
      <defs>
       <path id="mbde52d104e" d="M 0 0 
L 0 3.5 
" style="stroke: #000000; stroke-width: 0.8"/>
      </defs>
      <g>
       <use xlink:href="#mbde52d104e" x="38.502813" y="139.32" style="stroke: #000000; stroke-width: 0.8"/>
      </g>
     </g>
     <g id="text_1">
      <!-- 0 -->
      <g transform="translate(35.321563 153.918437) scale(0.1 -0.1)">
       <defs>
        <path id="DejaVuSans-30" d="M 2034 4250 
Q 1547 4250 1301 3770 
Q 1056 3291 1056 2328 
Q 1056 1369 1301 889 
Q 1547 409 2034 409 
Q 2525 409 2770 889 
Q 3016 1369 3016 2328 
Q 3016 3291 2770 3770 
Q 2525 4250 2034 4250 
z
M 2034 4750 
Q 2819 4750 3233 4129 
Q 3647 3509 3647 2328 
Q 3647 1150 3233 529 
Q 2819 -91 2034 -91 
Q 1250 -91 836 529 
Q 422 1150 422 2328 
Q 422 3509 836 4129 
Q 1250 4750 2034 4750 
z
" transform="scale(0.015625)"/>
       </defs>
       <use xlink:href="#DejaVuSans-30"/>
      </g>
     </g>
    </g>
    <g id="xtick_2">
     <g id="line2d_3">
      <path d="M 81.117713 139.32 
L 81.117713 0.72 
" clip-path="url(#pdc0c56702b)" style="fill: none; stroke-dasharray: 0.8,1.32; stroke-dashoffset: 0; stroke: #000000; stroke-opacity: 0.5; stroke-width: 0.8"/>
     </g>
     <g id="line2d_4">
      <g>
       <use xlink:href="#mbde52d104e" x="81.117713" y="139.32" style="stroke: #000000; stroke-width: 0.8"/>
      </g>
     </g>
     <g id="text_2">
      <!-- 5 -->
      <g transform="translate(77.936463 153.918437) scale(0.1 -0.1)">
       <defs>
        <path id="DejaVuSans-35" d="M 691 4666 
L 3169 4666 
L 3169 4134 
L 1269 4134 
L 1269 2991 
Q 1406 3038 1543 3061 
Q 1681 3084 1819 3084 
Q 2600 3084 3056 2656 
Q 3513 2228 3513 1497 
Q 3513 744 3044 326 
Q 2575 -91 1722 -91 
Q 1428 -91 1123 -41 
Q 819 9 494 109 
L 494 744 
Q 775 591 1075 516 
Q 1375 441 1709 441 
Q 2250 441 2565 725 
Q 2881 1009 2881 1497 
Q 2881 1984 2565 2268 
Q 2250 2553 1709 2553 
Q 1456 2553 1204 2497 
Q 953 2441 691 2322 
L 691 4666 
z
" transform="scale(0.015625)"/>
       </defs>
       <use xlink:href="#DejaVuSans-35"/>
      </g>
     </g>
    </g>
    <g id="xtick_3">
     <g id="line2d_5">
      <path d="M 123.732614 139.32 
L 123.732614 0.72 
" clip-path="url(#pdc0c56702b)" style="fill: none; stroke-dasharray: 0.8,1.32; stroke-dashoffset: 0; stroke: #000000; stroke-opacity: 0.5; stroke-width: 0.8"/>
     </g>
     <g id="line2d_6">
      <g>
       <use xlink:href="#mbde52d104e" x="123.732614" y="139.32" style="stroke: #000000; stroke-width: 0.8"/>
      </g>
     </g>
     <g id="text_3">
      <!-- 10 -->
      <g transform="translate(117.370114 153.918437) scale(0.1 -0.1)">
       <defs>
        <path id="DejaVuSans-31" d="M 794 531 
L 1825 531 
L 1825 4091 
L 703 3866 
L 703 4441 
L 1819 4666 
L 2450 4666 
L 2450 531 
L 3481 531 
L 3481 0 
L 794 0 
L 794 531 
z
" transform="scale(0.015625)"/>
       </defs>
       <use xlink:href="#DejaVuSans-31"/>
       <use xlink:href="#DejaVuSans-30" x="63.623047"/>
      </g>
     </g>
    </g>
    <g id="xtick_4">
     <g id="line2d_7">
      <path d="M 166.347514 139.32 
L 166.347514 0.72 
" clip-path="url(#pdc0c56702b)" style="fill: none; stroke-dasharray: 0.8,1.32; stroke-dashoffset: 0; stroke: #000000; stroke-opacity: 0.5; stroke-width: 0.8"/>
     </g>
     <g id="line2d_8">
      <g>
       <use xlink:href="#mbde52d104e" x="166.347514" y="139.32" style="stroke: #000000; stroke-width: 0.8"/>
      </g>
     </g>
     <g id="text_4">
      <!-- 15 -->
      <g transform="translate(159.985014 153.918437) scale(0.1 -0.1)">
       <use xlink:href="#DejaVuSans-31"/>
       <use xlink:href="#DejaVuSans-35" x="63.623047"/>
      </g>
     </g>
    </g>
    <g id="xtick_5">
     <g id="line2d_9">
      <path d="M 208.962415 139.32 
L 208.962415 0.72 
" clip-path="url(#pdc0c56702b)" style="fill: none; stroke-dasharray: 0.8,1.32; stroke-dashoffset: 0; stroke: #000000; stroke-opacity: 0.5; stroke-width: 0.8"/>
     </g>
     <g id="line2d_10">
      <g>
       <use xlink:href="#mbde52d104e" x="208.962415" y="139.32" style="stroke: #000000; stroke-width: 0.8"/>
      </g>
     </g>
     <g id="text_5">
      <!-- 20 -->
      <g transform="translate(202.599915 153.918437) scale(0.1 -0.1)">
       <defs>
        <path id="DejaVuSans-32" d="M 1228 531 
L 3431 531 
L 3431 0 
L 469 0 
L 469 531 
Q 828 903 1448 1529 
Q 2069 2156 2228 2338 
Q 2531 2678 2651 2914 
Q 2772 3150 2772 3378 
Q 2772 3750 2511 3984 
Q 2250 4219 1831 4219 
Q 1534 4219 1204 4116 
Q 875 4013 500 3803 
L 500 4441 
Q 881 4594 1212 4672 
Q 1544 4750 1819 4750 
Q 2544 4750 2975 4387 
Q 3406 4025 3406 3419 
Q 3406 3131 3298 2873 
Q 3191 2616 2906 2266 
Q 2828 2175 2409 1742 
Q 1991 1309 1228 531 
z
" transform="scale(0.015625)"/>
       </defs>
       <use xlink:href="#DejaVuSans-32"/>
       <use xlink:href="#DejaVuSans-30" x="63.623047"/>
      </g>
     </g>
    </g>
    <g id="xtick_6">
     <g id="line2d_11">
      <path d="M 251.577315 139.32 
L 251.577315 0.72 
" clip-path="url(#pdc0c56702b)" style="fill: none; stroke-dasharray: 0.8,1.32; stroke-dashoffset: 0; stroke: #000000; stroke-opacity: 0.5; stroke-width: 0.8"/>
     </g>
     <g id="line2d_12">
      <g>
       <use xlink:href="#mbde52d104e" x="251.577315" y="139.32" style="stroke: #000000; stroke-width: 0.8"/>
      </g>
     </g>
     <g id="text_6">
      <!-- 25 -->
      <g transform="translate(245.214815 153.918437) scale(0.1 -0.1)">
       <use xlink:href="#DejaVuSans-32"/>
       <use xlink:href="#DejaVuSans-35" x="63.623047"/>
      </g>
     </g>
    </g>
    <g id="xtick_7">
     <g id="line2d_13">
      <path d="M 294.192216 139.32 
L 294.192216 0.72 
" clip-path="url(#pdc0c56702b)" style="fill: none; stroke-dasharray: 0.8,1.32; stroke-dashoffset: 0; stroke: #000000; stroke-opacity: 0.5; stroke-width: 0.8"/>
     </g>
     <g id="line2d_14">
      <g>
       <use xlink:href="#mbde52d104e" x="294.192216" y="139.32" style="stroke: #000000; stroke-width: 0.8"/>
      </g>
     </g>
     <g id="text_7">
      <!-- 30 -->
      <g transform="translate(287.829716 153.918437) scale(0.1 -0.1)">
       <defs>
        <path id="DejaVuSans-33" d="M 2597 2516 
Q 3050 2419 3304 2112 
Q 3559 1806 3559 1356 
Q 3559 666 3084 287 
Q 2609 -91 1734 -91 
Q 1441 -91 1130 -33 
Q 819 25 488 141 
L 488 750 
Q 750 597 1062 519 
Q 1375 441 1716 441 
Q 2309 441 2620 675 
Q 2931 909 2931 1356 
Q 2931 1769 2642 2001 
Q 2353 2234 1838 2234 
L 1294 2234 
L 1294 2753 
L 1863 2753 
Q 2328 2753 2575 2939 
Q 2822 3125 2822 3475 
Q 2822 3834 2567 4026 
Q 2313 4219 1838 4219 
Q 1578 4219 1281 4162 
Q 984 4106 628 3988 
L 628 4550 
Q 988 4650 1302 4700 
Q 1616 4750 1894 4750 
Q 2613 4750 3031 4423 
Q 3450 4097 3450 3541 
Q 3450 3153 3228 2886 
Q 3006 2619 2597 2516 
z
" transform="scale(0.015625)"/>
       </defs>
       <use xlink:href="#DejaVuSans-33"/>
       <use xlink:href="#DejaVuSans-30" x="63.623047"/>
      </g>
     </g>
    </g>
    <g id="text_8">
     <!-- Zeit [s] -->
     <g transform="translate(160.056719 163.596562) scale(0.1 -0.1)">
      <defs>
       <path id="DejaVuSans-5a" d="M 359 4666 
L 4025 4666 
L 4025 4184 
L 1075 531 
L 4097 531 
L 4097 0 
L 288 0 
L 288 481 
L 3238 4134 
L 359 4134 
L 359 4666 
z
" transform="scale(0.015625)"/>
       <path id="DejaVuSans-65" d="M 3597 1894 
L 3597 1613 
L 953 1613 
Q 991 1019 1311 708 
Q 1631 397 2203 397 
Q 2534 397 2845 478 
Q 3156 559 3463 722 
L 3463 178 
Q 3153 47 2828 -22 
Q 2503 -91 2169 -91 
Q 1331 -91 842 396 
Q 353 884 353 1716 
Q 353 2575 817 3079 
Q 1281 3584 2069 3584 
Q 2775 3584 3186 3129 
Q 3597 2675 3597 1894 
z
M 3022 2063 
Q 3016 2534 2758 2815 
Q 2500 3097 2075 3097 
Q 1594 3097 1305 2825 
Q 1016 2553 972 2059 
L 3022 2063 
z
" transform="scale(0.015625)"/>
       <path id="DejaVuSans-69" d="M 603 3500 
L 1178 3500 
L 1178 0 
L 603 0 
L 603 3500 
z
M 603 4863 
L 1178 4863 
L 1178 4134 
L 603 4134 
L 603 4863 
z
" transform="scale(0.015625)"/>
       <path id="DejaVuSans-74" d="M 1172 4494 
L 1172 3500 
L 2356 3500 
L 2356 3053 
L 1172 3053 
L 1172 1153 
Q 1172 725 1289 603 
Q 1406 481 1766 481 
L 2356 481 
L 2356 0 
L 1766 0 
Q 1100 0 847 248 
Q 594 497 594 1153 
L 594 3053 
L 172 3053 
L 172 3500 
L 594 3500 
L 594 4494 
L 1172 4494 
z
" transform="scale(0.015625)"/>
       <path id="DejaVuSans-20" transform="scale(0.015625)"/>
       <path id="DejaVuSans-5b" d="M 550 4863 
L 1875 4863 
L 1875 4416 
L 1125 4416 
L 1125 -397 
L 1875 -397 
L 1875 -844 
L 550 -844 
L 550 4863 
z
" transform="scale(0.015625)"/>
       <path id="DejaVuSans-73" d="M 2834 3397 
L 2834 2853 
Q 2591 2978 2328 3040 
Q 2066 3103 1784 3103 
Q 1356 3103 1142 2972 
Q 928 2841 928 2578 
Q 928 2378 1081 2264 
Q 1234 2150 1697 2047 
L 1894 2003 
Q 2506 1872 2764 1633 
Q 3022 1394 3022 966 
Q 3022 478 2636 193 
Q 2250 -91 1575 -91 
Q 1294 -91 989 -36 
Q 684 19 347 128 
L 347 722 
Q 666 556 975 473 
Q 1284 391 1588 391 
Q 1994 391 2212 530 
Q 2431 669 2431 922 
Q 2431 1156 2273 1281 
Q 2116 1406 1581 1522 
L 1381 1569 
Q 847 1681 609 1914 
Q 372 2147 372 2553 
Q 372 3047 722 3315 
Q 1072 3584 1716 3584 
Q 2034 3584 2315 3537 
Q 2597 3491 2834 3397 
z
" transform="scale(0.015625)"/>
       <path id="DejaVuSans-5d" d="M 1947 4863 
L 1947 -844 
L 622 -844 
L 622 -397 
L 1369 -397 
L 1369 4416 
L 622 4416 
L 622 4863 
L 1947 4863 
z
" transform="scale(0.015625)"/>
      </defs>
      <use xlink:href="#DejaVuSans-5a"/>
      <use xlink:href="#DejaVuSans-65" x="68.505859"/>
      <use xlink:href="#DejaVuSans-69" x="130.029297"/>
      <use xlink:href="#DejaVuSans-74" x="157.8125"/>
      <use xlink:href="#DejaVuSans-20" x="197.021484"/>
      <use xlink:href="#DejaVuSans-5b" x="228.808594"/>
      <use xlink:href="#DejaVuSans-73" x="267.822266"/>
      <use xlink:href="#DejaVuSans-5d" x="319.921875"/>
     </g>
    </g>
   </g>
   <g id="matplotlib.axis_2">
    <g id="ytick_1">
     <g id="line2d_15">
      <path d="M 38.502813 112.821719 
L 317.502813 112.821719 
" clip-path="url(#pdc0c56702b)" style="fill: none; stroke-dasharray: 0.8,1.32; stroke-dashoffset: 0; stroke: #000000; stroke-opacity: 0.5; stroke-width: 0.8"/>
     </g>
     <g id="line2d_16">
      <defs>
       <path id="m973f5b1204" d="M 0 0 
L -3.5 0 
" style="stroke: #000000; stroke-width: 0.8"/>
      </defs>
      <g>
       <use xlink:href="#m973f5b1204" x="38.502813" y="112.821719" style="stroke: #000000; stroke-width: 0.8"/>
      </g>
     </g>
     <g id="text_9">
      <!-- −35 -->
      <g transform="translate(10.398125 116.620938) scale(0.1 -0.1)">
       <defs>
        <path id="DejaVuSans-2212" d="M 678 2272 
L 4684 2272 
L 4684 1741 
L 678 1741 
L 678 2272 
z
" transform="scale(0.015625)"/>
       </defs>
       <use xlink:href="#DejaVuSans-2212"/>
       <use xlink:href="#DejaVuSans-33" x="83.789062"/>
       <use xlink:href="#DejaVuSans-35" x="147.412109"/>
      </g>
     </g>
    </g>
    <g id="ytick_2">
     <g id="line2d_17">
      <path d="M 38.502813 79.906415 
L 317.502813 79.906415 
" clip-path="url(#pdc0c56702b)" style="fill: none; stroke-dasharray: 0.8,1.32; stroke-dashoffset: 0; stroke: #000000; stroke-opacity: 0.5; stroke-width: 0.8"/>
     </g>
     <g id="line2d_18">
      <g>
       <use xlink:href="#m973f5b1204" x="38.502813" y="79.906415" style="stroke: #000000; stroke-width: 0.8"/>
      </g>
     </g>
     <g id="text_10">
      <!-- −30 -->
      <g transform="translate(10.398125 83.705634) scale(0.1 -0.1)">
       <use xlink:href="#DejaVuSans-2212"/>
       <use xlink:href="#DejaVuSans-33" x="83.789062"/>
       <use xlink:href="#DejaVuSans-30" x="147.412109"/>
      </g>
     </g>
    </g>
    <g id="ytick_3">
     <g id="line2d_19">
      <path d="M 38.502813 46.991111 
L 317.502813 46.991111 
" clip-path="url(#pdc0c56702b)" style="fill: none; stroke-dasharray: 0.8,1.32; stroke-dashoffset: 0; stroke: #000000; stroke-opacity: 0.5; stroke-width: 0.8"/>
     </g>
     <g id="line2d_20">
      <g>
       <use xlink:href="#m973f5b1204" x="38.502813" y="46.991111" style="stroke: #000000; stroke-width: 0.8"/>
      </g>
     </g>
     <g id="text_11">
      <!-- −25 -->
      <g transform="translate(10.398125 50.790329) scale(0.1 -0.1)">
       <use xlink:href="#DejaVuSans-2212"/>
       <use xlink:href="#DejaVuSans-32" x="83.789062"/>
       <use xlink:href="#DejaVuSans-35" x="147.412109"/>
      </g>
     </g>
    </g>
    <g id="ytick_4">
     <g id="line2d_21">
      <path d="M 38.502813 14.075806 
L 317.502813 14.075806 
" clip-path="url(#pdc0c56702b)" style="fill: none; stroke-dasharray: 0.8,1.32; stroke-dashoffset: 0; stroke: #000000; stroke-opacity: 0.5; stroke-width: 0.8"/>
     </g>
     <g id="line2d_22">
      <g>
       <use xlink:href="#m973f5b1204" x="38.502813" y="14.075806" style="stroke: #000000; stroke-width: 0.8"/>
      </g>
     </g>
     <g id="text_12">
      <!-- −20 -->
      <g transform="translate(10.398125 17.875025) scale(0.1 -0.1)">
       <use xlink:href="#DejaVuSans-2212"/>
       <use xlink:href="#DejaVuSans-32" x="83.789062"/>
       <use xlink:href="#DejaVuSans-30" x="147.412109"/>
      </g>
     </g>
    </g>
    <g id="text_13">
     <!-- Drehmoment [Nm] -->
     <g transform="translate(8.318437 117.165312) rotate(-90) scale(0.1 -0.1)">
      <defs>
       <path id="DejaVuSans-44" d="M 1259 4147 
L 1259 519 
L 2022 519 
Q 2988 519 3436 956 
Q 3884 1394 3884 2338 
Q 3884 3275 3436 3711 
Q 2988 4147 2022 4147 
L 1259 4147 
z
M 628 4666 
L 1925 4666 
Q 3281 4666 3915 4102 
Q 4550 3538 4550 2338 
Q 4550 1131 3912 565 
Q 3275 0 1925 0 
L 628 0 
L 628 4666 
z
" transform="scale(0.015625)"/>
       <path id="DejaVuSans-72" d="M 2631 2963 
Q 2534 3019 2420 3045 
Q 2306 3072 2169 3072 
Q 1681 3072 1420 2755 
Q 1159 2438 1159 1844 
L 1159 0 
L 581 0 
L 581 3500 
L 1159 3500 
L 1159 2956 
Q 1341 3275 1631 3429 
Q 1922 3584 2338 3584 
Q 2397 3584 2469 3576 
Q 2541 3569 2628 3553 
L 2631 2963 
z
" transform="scale(0.015625)"/>
       <path id="DejaVuSans-68" d="M 3513 2113 
L 3513 0 
L 2938 0 
L 2938 2094 
Q 2938 2591 2744 2837 
Q 2550 3084 2163 3084 
Q 1697 3084 1428 2787 
Q 1159 2491 1159 1978 
L 1159 0 
L 581 0 
L 581 4863 
L 1159 4863 
L 1159 2956 
Q 1366 3272 1645 3428 
Q 1925 3584 2291 3584 
Q 2894 3584 3203 3211 
Q 3513 2838 3513 2113 
z
" transform="scale(0.015625)"/>
       <path id="DejaVuSans-6d" d="M 3328 2828 
Q 3544 3216 3844 3400 
Q 4144 3584 4550 3584 
Q 5097 3584 5394 3201 
Q 5691 2819 5691 2113 
L 5691 0 
L 5113 0 
L 5113 2094 
Q 5113 2597 4934 2840 
Q 4756 3084 4391 3084 
Q 3944 3084 3684 2787 
Q 3425 2491 3425 1978 
L 3425 0 
L 2847 0 
L 2847 2094 
Q 2847 2600 2669 2842 
Q 2491 3084 2119 3084 
Q 1678 3084 1418 2786 
Q 1159 2488 1159 1978 
L 1159 0 
L 581 0 
L 581 3500 
L 1159 3500 
L 1159 2956 
Q 1356 3278 1631 3431 
Q 1906 3584 2284 3584 
Q 2666 3584 2933 3390 
Q 3200 3197 3328 2828 
z
" transform="scale(0.015625)"/>
       <path id="DejaVuSans-6f" d="M 1959 3097 
Q 1497 3097 1228 2736 
Q 959 2375 959 1747 
Q 959 1119 1226 758 
Q 1494 397 1959 397 
Q 2419 397 2687 759 
Q 2956 1122 2956 1747 
Q 2956 2369 2687 2733 
Q 2419 3097 1959 3097 
z
M 1959 3584 
Q 2709 3584 3137 3096 
Q 3566 2609 3566 1747 
Q 3566 888 3137 398 
Q 2709 -91 1959 -91 
Q 1206 -91 779 398 
Q 353 888 353 1747 
Q 353 2609 779 3096 
Q 1206 3584 1959 3584 
z
" transform="scale(0.015625)"/>
       <path id="DejaVuSans-6e" d="M 3513 2113 
L 3513 0 
L 2938 0 
L 2938 2094 
Q 2938 2591 2744 2837 
Q 2550 3084 2163 3084 
Q 1697 3084 1428 2787 
Q 1159 2491 1159 1978 
L 1159 0 
L 581 0 
L 581 3500 
L 1159 3500 
L 1159 2956 
Q 1366 3272 1645 3428 
Q 1925 3584 2291 3584 
Q 2894 3584 3203 3211 
Q 3513 2838 3513 2113 
z
" transform="scale(0.015625)"/>
       <path id="DejaVuSans-4e" d="M 628 4666 
L 1478 4666 
L 3547 763 
L 3547 4666 
L 4159 4666 
L 4159 0 
L 3309 0 
L 1241 3903 
L 1241 0 
L 628 0 
L 628 4666 
z
" transform="scale(0.015625)"/>
      </defs>
      <use xlink:href="#DejaVuSans-44"/>
      <use xlink:href="#DejaVuSans-72" x="77.001953"/>
      <use xlink:href="#DejaVuSans-65" x="115.865234"/>
      <use xlink:href="#DejaVuSans-68" x="177.388672"/>
      <use xlink:href="#DejaVuSans-6d" x="240.767578"/>
      <use xlink:href="#DejaVuSans-6f" x="338.179688"/>
      <use xlink:href="#DejaVuSans-6d" x="399.361328"/>
      <use xlink:href="#DejaVuSans-65" x="496.773438"/>
      <use xlink:href="#DejaVuSans-6e" x="558.296875"/>
      <use xlink:href="#DejaVuSans-74" x="621.675781"/>
      <use xlink:href="#DejaVuSans-20" x="660.884766"/>
      <use xlink:href="#DejaVuSans-5b" x="692.671875"/>
      <use xlink:href="#DejaVuSans-4e" x="731.685547"/>
      <use xlink:href="#DejaVuSans-6d" x="806.490234"/>
      <use xlink:href="#DejaVuSans-5d" x="903.902344"/>
     </g>
    </g>
   </g>
   <g id="line2d_23">
    <path d="M 38.502813 5.853336 
L 317.502813 5.853336 
L 317.502813 5.853336 
" clip-path="url(#pdc0c56702b)" style="fill: none; stroke: #0000ff; stroke-opacity: 0.5; stroke-width: 3; stroke-linecap: square"/>
   </g>
   <g id="line2d_24">
    <path d="M 38.502813 129.337322 
L 38.710162 131.580249 
L 38.801142 131.316567 
L 38.816261 129.935642 
L 38.867107 130.341275 
L 38.937955 130.16129 
L 38.987701 128.001072 
L 39.054575 128.240833 
L 39.123721 128.839786 
L 39.210438 128.674737 
L 39.28474 128.927641 
L 39.363887 127.35326 
L 39.415198 127.407163 
L 39.552732 128.619083 
L 39.621893 128.196171 
L 39.725071 128.831959 
L 39.845046 127.654964 
L 39.913318 128.739706 
L 39.999402 128.493707 
L 40.067962 128.81773 
L 40.119484 128.740845 
L 40.290597 127.240067 
L 40.56769 129.927617 
L 40.634942 129.14488 
L 40.703919 129.757934 
L 40.824026 129.577434 
L 40.84376 128.936808 
L 40.910015 129.699653 
L 41.048079 130.72004 
L 41.116894 130.627679 
L 41.339019 128.231187 
L 41.407672 128.538414 
L 41.614626 131.135724 
L 41.683823 131.798877 
L 41.898126 129.503343 
L 42.115449 131.898077 
L 42.252957 131.460453 
L 42.397027 128.912288 
L 42.463432 129.467193 
L 42.544375 129.440361 
L 42.751153 130.641144 
L 42.887882 129.089548 
L 42.992003 129.623164 
L 43.031552 129.599416 
L 43.097599 128.882122 
L 43.182564 128.978623 
L 43.251297 129.991674 
L 43.66547 127.365959 
L 43.736776 127.599525 
L 43.819322 128.326325 
L 43.888037 128.28252 
L 44.025648 127.399074 
L 44.094895 128.309853 
L 44.173615 128.077539 
L 44.235085 127.252247 
L 44.317381 127.442025 
L 44.5937 129.054824 
L 44.663514 128.708186 
L 44.80118 128.16927 
L 44.868516 128.322815 
L 45.092202 127.536856 
L 45.371831 129.464043 
L 45.454849 129.565299 
L 45.52128 128.865743 
L 45.72982 130.987177 
L 45.798217 131.003792 
L 45.935642 130.175897 
L 46.03883 128.712913 
L 46.10768 128.738399 
L 46.193272 128.356611 
L 46.296507 130.399992 
L 46.416589 129.389194 
L 46.656398 132.784397 
L 46.933688 129.248426 
L 47.074457 130.975089 
L 47.145972 130.585861 
L 47.363555 128.390195 
L 47.502827 128.382539 
L 47.655998 129.787147 
L 47.728844 129.774346 
L 47.885442 128.918279 
L 48.145464 129.926434 
L 48.301741 128.658353 
L 48.360018 129.018401 
L 48.585376 128.86474 
L 48.669811 129.509767 
L 48.685883 128.797777 
L 48.817226 127.284074 
L 48.827638 127.291641 
L 48.889978 127.505476 
L 48.966308 128.83217 
L 49.017907 129.61686 
L 49.086081 129.530071 
L 49.241261 129.35665 
L 49.378515 128.637734 
L 49.584792 130.935504 
L 49.724068 128.952609 
L 49.791423 128.513195 
L 50.003123 130.66116 
L 50.187478 130.232046 
L 50.273652 128.329866 
L 50.495962 130.42205 
L 50.726597 128.88921 
L 51.079127 131.925827 
L 51.130907 131.783813 
L 51.234816 131.528717 
L 51.338389 131.585671 
L 51.4744 130.208839 
L 51.542891 130.544002 
L 51.629405 129.654427 
L 51.835535 126.685855 
L 51.920982 126.797643 
L 52.097124 128.597306 
L 52.126864 129.597848 
L 52.196024 129.526159 
L 52.264612 129.266984 
L 52.437641 130.705045 
L 52.556719 131.732591 
L 52.624981 131.504372 
L 52.951256 128.343733 
L 53.043661 130.099988 
L 53.122338 129.251608 
L 53.192068 129.610391 
L 53.398473 131.043009 
L 53.573256 132.499632 
L 53.622037 132.101233 
L 53.690747 130.667543 
L 53.770906 130.755578 
L 53.828326 131.912083 
L 53.999464 131.407777 
L 54.05152 131.609833 
L 54.188342 130.44085 
L 54.429518 132.185763 
L 54.550077 130.431648 
L 54.618691 130.731375 
L 54.721602 130.865196 
L 54.876244 131.824887 
L 54.913388 131.807506 
L 55.23291 130.834053 
L 55.323798 131.286242 
L 55.410009 131.001879 
L 55.583929 131.869574 
L 55.619675 131.825507 
L 55.774386 129.876173 
L 55.906914 130.821873 
L 56.084524 130.06697 
L 56.123208 130.648563 
L 56.191641 130.460989 
L 56.270051 130.595403 
L 56.392748 130.51499 
L 56.424797 130.261294 
L 56.442932 130.923762 
L 56.510366 130.859494 
L 56.590416 130.122722 
L 56.606988 130.529891 
L 56.675882 130.162454 
L 56.75791 130.742639 
L 56.83681 130.691476 
L 57.108713 129.900408 
L 57.245415 131.027755 
L 57.347824 129.960108 
L 57.382324 131.649949 
L 57.451505 131.34499 
L 57.674631 126.955921 
L 57.742921 128.218232 
L 57.880559 130.210618 
L 57.983472 129.572748 
L 58.038542 130.984223 
L 58.104819 130.360945 
L 58.279242 129.157126 
L 58.400975 130.178813 
L 58.469549 130.775625 
L 58.519282 130.720273 
L 58.691279 130.325436 
L 58.76008 129.289098 
L 58.812599 129.490193 
L 59.087057 131.480768 
L 59.241076 130.603039 
L 59.397162 129.312176 
L 59.466163 129.816424 
L 59.672071 128.289961 
L 59.878274 126.989275 
L 59.89471 127.269396 
L 60.63323 129.839148 
L 61.033947 129.857762 
L 61.408502 129.721239 
L 61.42368 128.940845 
L 61.508839 129.256726 
L 61.578305 129.918722 
L 61.716443 128.544886 
L 61.973675 132.752622 
L 61.992226 131.880304 
L 62.145193 131.387203 
L 62.197909 131.429624 
L 62.333997 129.741866 
L 62.456626 131.522769 
L 62.695284 129.422704 
L 62.852911 131.329133 
L 62.925868 131.772678 
L 63.056678 131.457664 
L 63.228567 127.589097 
L 63.280531 127.73481 
L 63.365046 128.928723 
L 63.527036 127.362154 
L 63.623048 127.378624 
L 63.779487 129.426699 
L 63.881377 129.475792 
L 64.104261 127.496917 
L 64.155645 127.949508 
L 64.293443 128.691207 
L 64.384276 128.18118 
L 64.43079 128.483309 
L 64.500395 129.620731 
L 64.564881 129.280578 
L 64.668097 129.132206 
L 64.908602 130.124615 
L 64.977654 130.093548 
L 65.131639 129.493183 
L 65.200615 129.614958 
L 65.354852 130.114907 
L 65.424429 130.373576 
L 65.475639 129.979979 
L 65.629586 130.527082 
L 65.69859 130.36283 
L 65.786306 130.334347 
L 65.921414 129.209834 
L 66.059668 130.233897 
L 66.179176 129.721965 
L 66.334708 126.884983 
L 66.421224 127.045684 
L 66.611232 128.60758 
L 66.76472 127.607527 
L 67.038245 131.582484 
L 67.125929 130.849262 
L 67.27235 130.564246 
L 67.272637 130.908359 
L 67.356799 129.697955 
L 67.682351 131.853251 
L 67.852737 134.169214 
L 67.921565 134.186667 
L 68.17856 132.659731 
L 68.539378 126.988269 
L 68.607707 127.380489 
L 68.74681 127.928339 
L 68.835685 127.690739 
L 68.883407 127.458323 
L 69.314596 131.251208 
L 69.449741 131.411547 
L 69.539229 132.317969 
L 69.604415 132.014288 
L 69.741555 133.171741 
L 69.811009 133.143129 
L 70.069888 130.198167 
L 70.086219 130.82521 
L 70.188371 130.773781 
L 70.514808 128.944497 
L 70.619174 131.244823 
L 70.89336 129.309678 
L 70.944241 129.856223 
L 71.065512 130.010367 
L 71.169398 130.791525 
L 71.27073 129.880157 
L 71.340118 130.014638 
L 71.39113 130.760201 
L 71.4633 130.556507 
L 71.526354 129.97282 
L 71.656407 132.050339 
L 71.814428 130.946843 
L 72.049126 128.056739 
L 72.101365 128.541914 
L 72.151687 128.978315 
L 72.237876 128.906052 
L 72.339023 127.508789 
L 72.378811 125.304121 
L 72.444756 125.858049 
L 72.51382 126.731267 
L 72.583583 126.686279 
L 72.655906 125.884526 
L 72.722383 126.647011 
L 72.944109 124.97135 
L 73.13319 125.013384 
L 73.150059 127.525507 
L 73.219557 126.176414 
L 73.339799 127.249349 
L 73.442745 129.156989 
L 73.641938 129.418664 
L 73.718468 131.583714 
L 73.785348 130.365826 
L 73.802397 130.481523 
L 73.913373 131.095882 
L 73.944711 132.192918 
L 74.078075 130.817042 
L 74.148013 129.801364 
L 74.288476 129.76326 
L 74.353038 129.939655 
L 74.577475 127.583823 
L 74.784679 126.959434 
L 74.939923 127.908896 
L 75.028096 127.783364 
L 75.06669 127.153193 
L 75.163492 127.708925 
L 75.215224 128.863772 
L 75.344646 128.597158 
L 75.489664 126.955349 
L 75.506628 127.42054 
L 75.61843 127.559059 
L 75.851 125.978899 
L 76.006118 123.932663 
L 76.507503 129.458686 
L 76.781815 130.730049 
L 76.85091 131.714189 
L 76.919314 131.553437 
L 77.130506 129.986926 
L 77.143943 131.792551 
L 77.212925 130.233106 
L 77.265255 130.117155 
L 77.369067 129.598839 
L 77.41955 130.536726 
L 77.506693 130.011762 
L 77.629199 128.628836 
L 77.713747 130.203013 
L 77.728376 129.163027 
L 77.849173 128.326321 
L 78.056973 130.46946 
L 78.229201 128.733264 
L 78.279252 129.377551 
L 78.351262 129.790278 
L 78.400451 128.679256 
L 78.556306 129.51602 
L 78.641789 128.639367 
L 78.7141 128.726767 
L 78.762406 128.810008 
L 78.90024 130.070279 
L 79.024026 129.965622 
L 79.040923 129.727709 
L 79.129486 130.461112 
L 79.195858 130.389406 
L 79.26639 130.08279 
L 79.469907 131.578951 
L 79.830735 129.170319 
L 79.899954 128.97261 
L 79.97281 129.078648 
L 80.037557 129.421831 
L 80.123544 129.245008 
L 80.260101 127.965572 
L 80.335065 128.437533 
L 80.543429 130.676181 
L 80.677947 131.387111 
L 80.812472 129.338944 
L 80.88104 129.482942 
L 80.983764 131.090874 
L 81.035567 130.712116 
L 81.189576 132.251865 
L 81.870087 126.678575 
L 81.912743 126.702885 
L 82.238657 130.058481 
L 82.307811 130.032744 
L 82.393667 130.227907 
L 82.549071 130.794411 
L 82.687184 129.01953 
L 82.806602 129.646731 
L 83.029572 128.570571 
L 83.132753 128.783818 
L 83.183962 128.404356 
L 83.253868 128.513734 
L 83.304758 129.1643 
L 83.460063 128.073702 
L 83.537964 128.26309 
L 83.634476 128.842695 
L 83.701483 128.725645 
L 83.890861 127.634589 
L 83.945224 126.425658 
L 84.011853 126.646914 
L 84.183846 127.660604 
L 84.311008 127.333282 
L 84.334322 126.933129 
L 84.389329 127.725692 
L 84.450018 129.388719 
L 84.459293 129.208236 
L 84.541207 128.69984 
L 84.615284 128.643279 
L 84.770118 130.55868 
L 84.809091 129.520331 
L 84.891079 130.203142 
L 85.010173 131.220483 
L 85.147941 131.207359 
L 85.201407 130.649148 
L 85.291634 131.548219 
L 85.443342 131.059323 
L 85.512956 131.867157 
L 85.6487 131.101245 
L 85.718255 131.265146 
L 85.734977 130.616699 
L 85.788913 130.676143 
L 85.873831 130.515974 
L 85.947378 129.281456 
L 86.010081 130.341244 
L 86.0781 130.052338 
L 86.36414 128.40836 
L 86.439574 128.7221 
L 86.507354 128.678583 
L 86.577572 128.285164 
L 86.644267 129.419751 
L 86.7176 129.147202 
L 86.78416 128.758266 
L 86.93673 129.741134 
L 87.074433 130.908436 
L 87.142399 130.790866 
L 87.281601 131.5514 
L 87.434511 129.308478 
L 87.641047 131.245907 
L 87.7785 130.301802 
L 87.846886 130.388864 
L 88.002396 129.782109 
L 88.140297 130.684571 
L 88.208124 130.58616 
L 88.348024 128.883604 
L 88.500426 130.464244 
L 88.775164 131.47514 
L 88.852316 132.236438 
L 89.154822 129.235076 
L 89.204579 129.627401 
L 89.276399 130.631621 
L 89.427663 129.059873 
L 89.480503 129.736031 
L 89.556002 129.034647 
L 89.703132 130.866555 
L 89.771904 130.706173 
L 89.842583 130.800585 
L 89.978916 129.21898 
L 90.048211 129.386365 
L 90.134647 130.290484 
L 90.190294 130.074865 
L 90.339978 128.751903 
L 90.409977 129.2989 
L 90.489432 129.322567 
L 90.547372 130.275516 
L 90.702385 131.554346 
L 90.909121 129.93142 
L 90.96072 130.389433 
L 91.048297 130.262895 
L 91.209324 129.256025 
L 91.33998 129.837281 
L 91.40919 129.217836 
L 91.546233 130.6683 
L 91.614691 129.579507 
L 91.683888 130.020668 
L 91.753267 130.693895 
L 91.859504 129.657024 
L 91.910561 129.951143 
L 91.981625 129.651662 
L 92.06596 127.741813 
L 92.116895 128.144654 
L 92.237365 128.278197 
L 92.323235 130.188998 
L 92.478257 130.080436 
L 92.546939 129.633901 
L 92.564235 130.181157 
L 92.771823 129.815952 
L 92.840308 130.197868 
L 92.857882 131.17254 
L 92.910278 130.59806 
L 93.235263 127.648824 
L 93.252887 127.941031 
L 93.460541 128.897253 
L 93.545602 128.071601 
L 93.700582 127.202111 
L 93.838221 128.948431 
L 93.88806 130.063354 
L 93.957536 129.680235 
L 94.130082 130.452546 
L 94.19886 129.955185 
L 94.215066 130.988842 
L 94.285658 130.10198 
L 94.370323 131.25735 
L 94.421532 130.636739 
L 94.507762 130.786613 
L 94.594889 129.766247 
L 94.697064 130.350717 
L 94.766568 129.607388 
L 94.817481 130.811114 
L 95.174335 128.520374 
L 95.228951 128.811548 
L 95.263628 129.061497 
L 95.383512 128.891947 
L 95.426368 128.994921 
L 95.555345 127.187386 
L 95.625374 128.536331 
L 95.744816 128.097086 
L 95.764787 127.280426 
L 95.813615 129.029693 
L 95.95314 128.761033 
L 96.078412 129.06333 
L 96.097344 128.475969 
L 96.161559 129.375222 
L 96.313858 128.245189 
L 96.456919 129.402948 
L 96.520778 128.595284 
L 96.58985 128.853082 
L 96.948736 130.261896 
L 97.037992 131.080771 
L 97.105556 130.279941 
L 97.157945 130.410789 
L 97.241955 131.344308 
L 97.294248 130.764142 
L 97.433198 130.312286 
L 97.466164 129.551077 
L 97.539539 130.261248 
L 97.584953 129.700228 
L 97.75697 130.366721 
L 98.014434 128.667933 
L 98.085014 129.304649 
L 98.151988 129.347292 
L 98.191016 129.271566 
L 98.309613 128.908308 
L 98.377731 129.354562 
L 98.448173 128.46575 
L 98.704659 130.116286 
L 98.894175 128.503883 
L 99.134479 126.153808 
L 99.170935 127.288192 
L 99.254661 127.009716 
L 99.307526 125.964501 
L 99.460571 127.021092 
L 99.512261 127.218863 
L 99.718066 128.360256 
L 99.856245 128.147369 
L 99.927177 128.364085 
L 100.010043 129.154713 
L 100.148872 128.654254 
L 100.216422 128.763813 
L 100.474006 130.609039 
L 100.57722 129.849473 
L 100.941175 131.104466 
L 101.111601 130.439526 
L 101.145445 130.697576 
L 101.214361 130.476916 
L 101.285639 130.394231 
L 101.36099 130.646583 
L 101.421474 130.568222 
L 101.541702 130.194412 
L 101.613464 130.437098 
L 101.712739 131.39323 
L 101.781118 131.554438 
L 101.918929 131.393357 
L 102.49368 126.669679 
L 102.6931 126.696332 
L 102.848262 129.394815 
L 102.994358 128.215591 
L 103.127739 129.788973 
L 103.192126 129.65723 
L 103.346115 130.18245 
L 103.484337 128.711175 
L 103.621193 129.655519 
L 103.761453 128.601534 
L 103.982701 127.35444 
L 104.050009 127.118773 
L 104.18825 127.665212 
L 104.357164 126.863703 
L 104.6171 129.457024 
L 104.689273 128.918645 
L 104.760326 129.258932 
L 104.825781 128.647795 
L 105.046693 129.727806 
L 105.120705 130.016156 
L 105.185323 129.837173 
L 105.324456 128.656629 
L 105.552988 129.969048 
L 105.684355 129.473711 
L 105.755715 129.521059 
L 105.821521 129.552032 
L 105.908367 128.554614 
L 105.961078 129.097351 
L 106.029367 130.384802 
L 106.045687 128.729458 
L 106.116697 128.4007 
L 106.272114 129.189223 
L 106.321428 128.585256 
L 106.389914 128.903219 
L 106.458827 129.363081 
L 106.533712 128.53461 
L 106.613184 129.173099 
L 106.687305 128.371707 
L 106.753971 128.799886 
L 106.857942 129.492512 
L 106.970433 127.021141 
L 107.047203 127.645841 
L 107.167173 126.504432 
L 107.235955 126.764049 
L 107.372413 126.52913 
L 107.406509 127.424672 
L 107.468579 127.367907 
L 107.527287 127.460277 
L 107.732813 129.873762 
L 107.767283 129.3267 
L 107.855971 129.035171 
L 107.957686 130.204602 
L 108.187476 129.608469 
L 108.318295 128.185497 
L 108.386647 128.273786 
L 108.455206 127.598517 
L 108.643535 128.876287 
L 108.682199 128.60096 
L 108.734115 129.683317 
L 108.799256 129.663957 
L 108.885198 130.019017 
L 108.954543 131.3642 
L 109.060765 131.081108 
L 109.092202 130.612643 
L 109.179094 131.711541 
L 109.298898 131.125183 
L 109.435915 129.625801 
L 109.867578 127.175988 
L 110.090046 128.013268 
L 110.226807 127.784521 
L 110.295073 127.826769 
L 110.398215 128.000954 
L 110.622417 129.899305 
L 110.725856 128.567661 
L 110.86298 130.605424 
L 110.950027 130.547118 
L 111.278433 128.40957 
L 111.309445 126.732933 
L 111.326516 127.841822 
L 111.412778 128.696799 
L 111.435649 130.126558 
L 111.584455 128.094937 
L 111.656288 128.110496 
L 111.996801 132.309901 
L 112.081918 132.163378 
L 112.236352 131.288757 
L 112.305086 131.169064 
L 112.391304 131.508456 
L 112.461133 131.341163 
L 112.789938 128.31257 
L 112.891156 128.566111 
L 112.925119 127.980362 
L 113.080329 128.596146 
L 113.234374 127.615078 
L 113.458279 129.165297 
L 113.494465 128.794815 
L 113.647154 130.2467 
L 113.715641 130.091786 
L 113.919549 129.642739 
L 113.932745 130.167483 
L 114.034062 129.833574 
L 114.088153 129.584212 
L 114.230471 131.836861 
L 114.282518 131.056816 
L 114.350481 130.460461 
L 114.45259 131.82127 
L 114.504426 131.628866 
L 114.642528 130.950129 
L 114.693619 131.143594 
L 114.731648 131.172371 
L 114.858322 129.165342 
L 115.004025 127.921596 
L 115.089574 128.64322 
L 115.195989 128.232612 
L 115.248829 127.241611 
L 115.348324 127.266496 
L 115.50274 128.337653 
L 115.558859 128.139393 
L 115.778521 127.120719 
L 115.938615 128.448263 
L 116.019736 127.896084 
L 116.123161 127.773548 
L 116.176552 127.443239 
L 116.347432 127.857271 
L 116.491793 128.220765 
L 116.76082 125.543761 
L 116.917128 125.091634 
L 116.985779 125.730112 
L 117.053761 125.617729 
L 117.122518 125.672233 
L 117.639901 128.311226 
L 117.89907 127.570997 
L 117.98461 127.676356 
L 118.296239 131.118367 
L 118.330067 130.337114 
L 118.398575 130.501121 
L 118.472115 131.376061 
L 118.485102 131.25365 
L 118.552852 130.50439 
L 118.606864 131.413577 
L 118.725221 131.442936 
L 118.966214 127.73343 
L 119.034523 129.333502 
L 119.107194 128.88294 
L 119.19064 128.059232 
L 119.25856 128.892459 
L 119.327587 128.695886 
L 119.402978 128.673423 
L 119.47242 129.071545 
L 119.602149 128.936784 
L 119.636212 128.98743 
L 119.687815 130.326702 
L 119.775116 129.253454 
L 119.828103 129.454526 
L 120.052253 130.882132 
L 120.103144 130.604133 
L 120.21013 130.687861 
L 120.326508 131.553994 
L 120.446361 131.279776 
L 120.55014 132.574104 
L 120.738252 129.999992 
L 120.807077 130.791941 
L 120.892999 129.912956 
L 120.978369 130.06608 
L 121.068375 130.556927 
L 121.235308 128.349501 
L 121.376136 129.273965 
L 121.459389 129.426337 
L 121.541034 128.787319 
L 121.596672 129.482647 
L 121.751019 127.888283 
L 121.82024 127.993368 
L 121.906768 128.016541 
L 122.318035 130.387208 
L 122.407938 130.552675 
L 122.553374 132.934657 
L 122.645942 133.030403 
L 122.782123 131.073842 
L 122.816993 131.935478 
L 122.885745 131.570511 
L 122.971757 131.48829 
L 123.040159 131.5936 
L 123.108542 130.891977 
L 123.246103 128.645701 
L 123.301153 128.612409 
L 123.505972 129.282066 
L 123.591424 127.880509 
L 123.60689 128.281796 
L 123.727708 126.97246 
L 123.865834 128.201901 
L 124.091459 127.19376 
L 124.157602 127.288948 
L 124.227835 127.126952 
L 124.3095 127.381264 
L 124.377646 128.198222 
L 124.463956 128.104141 
L 124.501372 127.807463 
L 124.738491 130.178612 
L 124.859707 129.724617 
L 124.943818 130.684732 
L 125.046437 130.548751 
L 125.21898 129.389401 
L 125.307114 128.238723 
L 125.392497 128.435388 
L 125.442845 128.270152 
L 125.511072 128.715913 
L 125.665682 127.966156 
L 125.873717 129.124079 
L 125.997964 129.480102 
L 126.166477 128.4833 
L 126.224498 127.953301 
L 126.237543 128.04719 
L 126.307292 128.719881 
L 126.424629 127.429359 
L 126.636947 128.589808 
L 126.752453 129.418964 
L 126.820154 129.164713 
L 126.925584 129.395339 
L 127.202493 132.995559 
L 127.423115 130.229123 
L 127.646077 131.818147 
L 127.940137 129.879731 
L 127.990669 130.444049 
L 128.130817 131.223392 
L 128.386532 129.442066 
L 128.402912 130.190515 
L 128.421174 129.407283 
L 128.627384 128.457717 
L 128.747558 128.754826 
L 128.801808 128.26918 
L 128.852264 128.599843 
L 129.024523 130.132924 
L 129.069246 129.611365 
L 129.12675 129.457687 
L 129.297981 129.984124 
L 129.486347 131.521181 
L 129.693137 129.977753 
L 129.761564 129.849141 
L 129.847505 129.346515 
L 129.935642 129.831957 
L 129.984852 129.813741 
L 130.193125 127.7802 
L 130.260233 128.297246 
L 130.331684 128.175102 
L 130.399186 128.274233 
L 130.552123 128.995553 
L 130.689437 128.083898 
L 130.844442 128.666167 
L 130.90832 129.577554 
L 130.999163 129.861782 
L 131.072795 130.960235 
L 131.2604 129.900648 
L 131.325983 130.214227 
L 131.397921 130.173128 
L 131.873049 127.632844 
L 131.891029 128.409223 
L 131.970063 127.460129 
L 132.062394 127.333193 
L 132.183037 128.411619 
L 132.252967 127.205745 
L 132.337247 127.801744 
L 132.534342 126.042306 
L 132.629522 125.948388 
L 132.777066 127.83673 
L 132.846558 126.915677 
L 132.880388 127.268407 
L 132.968219 128.563415 
L 133.051704 127.552052 
L 133.121388 127.620051 
L 133.257402 129.112596 
L 133.379581 128.352718 
L 133.533881 130.1832 
L 133.550475 129.646989 
L 133.604311 129.60592 
L 133.673796 129.791022 
L 133.812913 131.264309 
L 133.912337 130.362105 
L 133.964067 130.906288 
L 134.020125 131.694066 
L 134.291719 128.246307 
L 134.413559 129.370827 
L 134.515684 129.291733 
L 134.601372 130.534268 
L 134.670446 129.895217 
L 134.807596 128.622841 
L 134.876537 128.516396 
L 135.014548 129.403812 
L 135.083869 129.255728 
L 135.279685 128.983981 
L 135.375348 129.296101 
L 135.529752 132.631394 
L 135.667692 132.289438 
L 135.756284 131.13533 
L 135.861974 131.495976 
L 136.011365 129.989642 
L 136.254219 126.90026 
L 136.44811 128.424221 
L 136.509766 128.336034 
L 136.648582 128.785314 
L 136.814982 127.905406 
L 137.042826 129.553758 
L 137.180614 128.318786 
L 137.265646 128.502858 
L 137.300349 129.179191 
L 137.37771 129.052357 
L 137.438107 129.165057 
L 137.579788 130.890584 
L 137.677104 130.579633 
L 137.713653 129.654613 
L 137.867883 131.345012 
L 137.937296 131.136952 
L 138.00547 130.132401 
L 138.143918 130.932114 
L 138.290693 129.226245 
L 138.447228 131.836533 
L 138.530019 131.277535 
L 138.668364 129.896491 
L 138.924949 131.737624 
L 138.995453 131.680722 
L 139.148365 128.649018 
L 139.355609 129.650808 
L 139.424498 129.686788 
L 139.647353 128.339981 
L 139.854477 129.7723 
L 139.926597 129.580191 
L 140.025522 129.529322 
L 140.146255 130.25595 
L 140.215459 129.605387 
L 140.302018 130.719081 
L 140.351974 130.201416 
L 140.695172 128.592782 
L 140.80108 128.463543 
L 140.867334 127.507261 
L 140.918631 128.084326 
L 141.021486 127.270859 
L 141.211856 128.968112 
L 141.334126 128.619879 
L 141.417501 128.817128 
L 141.488311 128.418325 
L 141.641238 129.194627 
L 141.762793 128.293803 
L 141.916384 128.153297 
L 141.984148 128.312829 
L 142.123033 127.533841 
L 142.208227 127.600426 
L 142.264064 127.532455 
L 142.345159 127.090725 
L 142.537102 128.081894 
L 142.63663 126.85558 
L 142.792517 128.282108 
L 142.841638 129.88247 
L 142.910413 129.465227 
L 142.979819 129.000457 
L 143.047871 129.303448 
L 143.120301 128.780609 
L 143.133283 130.392843 
L 143.202231 129.23507 
L 143.425633 129.795849 
L 143.495076 129.399261 
L 143.632058 127.898301 
L 143.684011 128.012842 
L 143.802203 127.371804 
L 143.838251 127.827233 
L 143.975541 127.73446 
L 144.078808 128.467869 
L 144.130278 127.347121 
L 144.334339 129.09244 
L 144.532542 130.565881 
L 144.686123 129.490246 
L 144.772085 129.604067 
L 145.115099 127.309031 
L 145.23607 127.093075 
L 145.392732 126.358602 
L 145.47686 125.976789 
L 145.544557 126.357013 
L 145.613405 125.805776 
L 145.893187 128.30724 
L 145.961211 128.390333 
L 146.043033 129.410082 
L 146.120634 129.39107 
L 146.170751 129.470921 
L 146.237386 130.926382 
L 146.321371 130.810362 
L 146.596225 129.989902 
L 146.699502 130.05497 
L 146.734992 130.785498 
L 146.804456 130.357869 
L 147.095079 131.265607 
L 147.301206 130.176542 
L 147.455982 128.628012 
L 147.594277 129.070825 
L 147.663043 127.73606 
L 147.733351 127.996797 
L 147.869443 128.109787 
L 147.94037 128.911947 
L 148.023448 128.281199 
L 148.091692 129.284394 
L 148.23045 128.316964 
L 148.37327 129.79973 
L 148.438123 129.336056 
L 148.454402 130.711669 
L 148.509839 129.281839 
L 148.592289 129.305197 
L 148.679648 129.036189 
L 148.875504 130.625426 
L 149.087682 129.807001 
L 149.229918 130.512646 
L 149.299527 130.386188 
L 149.36935 130.483738 
L 149.503771 131.659545 
L 149.573265 130.427295 
L 149.64382 130.809859 
L 149.86599 129.868732 
L 150.000997 130.797204 
L 150.07495 130.379078 
L 150.14081 130.319195 
L 150.212103 129.803041 
L 150.362582 130.643695 
L 150.516229 130.264357 
L 150.724824 130.830299 
L 150.814728 130.994612 
L 150.921321 130.058906 
L 151.072766 129.400204 
L 151.235325 130.33157 
L 151.369935 129.199947 
L 151.420054 129.092772 
L 151.486178 129.364281 
L 151.569476 129.126468 
L 151.793418 127.81389 
L 152.154181 125.305562 
L 152.223398 125.350363 
L 152.342987 125.677643 
L 152.498873 128.755995 
L 152.842614 131.460815 
L 152.927274 131.192478 
L 152.979308 131.738502 
L 153.202547 130.232269 
L 153.356585 130.296075 
L 153.425103 130.210631 
L 153.493757 129.715863 
L 153.706941 130.677986 
L 153.78547 130.588007 
L 153.854062 131.465576 
L 153.923109 131.012515 
L 154.043008 131.391016 
L 154.112888 131.285145 
L 154.26684 130.121925 
L 154.407057 130.539439 
L 154.42179 129.510382 
L 154.490507 130.061876 
L 154.57551 130.009039 
L 154.628783 130.218243 
L 154.765444 129.751116 
L 154.839239 130.326403 
L 154.902674 130.097462 
L 155.019376 130.086547 
L 155.142746 128.700096 
L 155.280188 127.001866 
L 155.349224 127.549667 
L 155.41754 127.716119 
L 155.624347 127.20049 
L 155.78471 128.930775 
L 155.830542 129.982784 
L 155.917055 129.842331 
L 155.974028 130.159144 
L 156.054567 129.977612 
L 156.28283 128.411651 
L 156.419915 128.742266 
L 156.523898 128.564515 
L 156.540261 128.011072 
L 156.683178 129.235347 
L 156.76861 128.579887 
L 156.854917 128.623041 
L 157.044804 130.616449 
L 157.268382 129.276119 
L 157.45523 128.291678 
L 157.576556 130.028306 
L 157.611635 130.02065 
L 157.679308 129.342265 
L 157.747929 129.618648 
L 157.920384 129.527327 
L 157.974949 129.751203 
L 158.040736 129.406384 
L 158.109465 130.058396 
L 158.199358 128.767799 
L 158.400141 129.844635 
L 158.533286 128.629893 
L 158.807834 129.439788 
L 158.841968 129.084586 
L 158.89707 129.924917 
L 158.946487 129.232205 
L 159.134255 129.052677 
L 159.254616 130.262856 
L 159.442862 129.598943 
L 159.737116 127.529461 
L 159.821655 128.195942 
L 159.890527 128.107796 
L 159.958738 128.328655 
L 160.167485 129.302372 
L 160.268683 129.02676 
L 160.45729 130.980689 
L 160.528183 130.685443 
L 160.595198 131.214463 
L 160.732682 129.63005 
L 160.816257 130.239893 
L 160.925658 129.870473 
L 161.008719 131.064803 
L 161.028478 130.148014 
L 161.144406 130.767806 
L 161.318687 128.355361 
L 161.369168 129.150982 
L 161.437565 128.969885 
L 161.505786 128.512758 
L 161.591439 128.707636 
L 161.660841 127.671089 
L 161.731684 127.898417 
L 161.836622 127.710713 
L 161.95378 129.54772 
L 162.144059 129.000868 
L 162.159166 130.169165 
L 162.418792 130.867368 
L 162.489258 130.632766 
L 162.659975 127.008609 
L 162.744057 127.725155 
L 162.796737 127.695955 
L 162.864546 127.774929 
L 162.986379 127.281064 
L 163.018397 127.900414 
L 163.070264 127.841071 
L 163.224893 129.093607 
L 163.43108 130.60197 
L 163.571414 130.051685 
L 163.643641 130.131625 
L 163.791986 130.703 
L 163.860841 130.296766 
L 163.929311 130.676243 
L 164.153224 129.328671 
L 164.207363 130.014141 
L 164.428822 128.919751 
L 164.567692 128.923883 
L 164.634799 128.423792 
L 164.773514 130.003519 
L 165.063994 131.867313 
L 165.206004 131.764013 
L 165.349853 132.1462 
L 165.425332 131.252753 
L 165.501941 131.307151 
L 165.891216 129.543895 
L 166.010977 130.040176 
L 166.064482 129.582872 
L 166.148792 129.758948 
L 166.423594 131.047439 
L 166.440809 130.410373 
L 166.49308 130.535728 
L 166.699085 129.206381 
L 166.837082 130.384323 
L 166.858681 129.392864 
L 166.950417 130.484543 
L 167.018489 130.049666 
L 167.265286 130.464497 
L 167.453557 131.951944 
L 167.487967 131.230513 
L 167.573286 131.329333 
L 167.643735 130.378218 
L 167.73142 130.577804 
L 167.831725 131.014997 
L 167.970159 131.843663 
L 168.329563 128.77237 
L 168.417203 128.431217 
L 168.707361 125.716296 
L 168.968985 126.700641 
L 169.036622 125.752245 
L 169.136744 126.169072 
L 169.326949 127.502364 
L 169.477961 127.659622 
L 169.483724 127.511131 
L 169.619768 127.360757 
L 169.846463 129.058883 
L 169.929543 128.012649 
L 170.050079 127.98016 
L 170.101528 127.474726 
L 170.137581 127.586513 
L 170.342679 128.83115 
L 170.533605 127.183283 
L 170.755849 128.007836 
L 170.841852 127.959906 
L 170.893034 128.115582 
L 171.031555 126.461669 
L 171.184887 127.396179 
L 171.28875 127.654846 
L 171.410118 125.91758 
L 171.585119 126.816752 
L 171.614599 126.569809 
L 171.822466 125.347754 
L 172.095799 127.96674 
L 172.164565 128.282276 
L 172.319522 127.259011 
L 172.527651 128.928944 
L 172.645328 128.380732 
L 173.075362 130.917153 
L 173.213016 131.848765 
L 173.250327 131.282745 
L 173.31619 131.360736 
L 173.384135 131.48015 
L 173.470081 132.049796 
L 173.589762 130.73022 
L 173.65879 130.601018 
L 173.734818 130.74554 
L 173.799225 130.672428 
L 174.013619 131.0439 
L 174.026168 130.170926 
L 174.094108 130.89481 
L 174.165969 130.198335 
L 174.303581 132.060646 
L 174.416167 131.660869 
L 174.457974 131.694665 
L 174.577733 131.570927 
L 174.59623 131.264643 
L 174.76739 132.109781 
L 174.923256 131.631537 
L 174.941979 132.023132 
L 175.030281 131.736304 
L 175.082183 132.344866 
L 175.149364 131.835719 
L 175.216385 132.009085 
L 175.363187 131.456401 
L 175.464578 132.432779 
L 175.591498 131.521177 
L 175.809856 127.709518 
L 176.018235 129.069716 
L 176.151678 128.31305 
L 176.220328 128.351619 
L 176.293314 128.893943 
L 176.512271 131.814119 
L 176.581764 130.753921 
L 176.821936 133.057184 
L 176.993027 133.010738 
L 177.05027 131.909437 
L 177.149473 132.137467 
L 177.285198 132.557685 
L 177.49208 130.107493 
L 177.645744 130.252162 
L 177.714462 132.113729 
L 177.786444 131.200196 
L 177.851697 131.554137 
L 177.925222 130.944785 
L 178.13265 131.937529 
L 178.422584 128.793012 
L 178.454642 129.094424 
L 178.490752 128.987787 
L 178.560556 128.479708 
L 178.629915 128.877942 
L 178.698564 128.757682 
L 178.851726 127.975007 
L 178.9213 128.493883 
L 178.990184 127.964285 
L 179.05875 128.169494 
L 179.155759 128.207913 
L 179.272472 129.238956 
L 179.556265 127.272802 
L 179.710853 129.391964 
L 179.766356 129.163182 
L 179.848996 129.118577 
L 179.94112 128.238639 
L 179.985568 128.368621 
L 180.054542 128.653391 
L 180.260679 130.043071 
L 180.332242 130.16478 
L 180.417025 130.607828 
L 180.484142 129.954441 
L 180.621207 131.057695 
L 180.759117 131.062081 
L 180.861676 130.15294 
L 180.913216 131.12112 
L 180.969101 130.814042 
L 181.034529 130.269474 
L 181.188995 131.194706 
L 181.273224 131.084268 
L 181.395287 130.316154 
L 181.47226 130.346918 
L 181.628828 130.484564 
L 181.691588 130.101088 
L 181.77175 130.515518 
L 181.960851 129.322264 
L 182.185206 130.853311 
L 182.838902 128.642823 
L 183.383009 130.906407 
L 183.463856 130.705557 
L 183.545156 129.783795 
L 183.62204 130.391513 
L 183.681707 130.160437 
L 184.056275 131.114867 
L 184.093493 131.013959 
L 184.179143 130.348679 
L 184.38315 131.870958 
L 184.589876 130.898412 
L 184.692665 131.735852 
L 184.743631 130.884897 
L 184.934238 132.161637 
L 184.970903 131.940915 
L 185.036803 130.74188 
L 185.190618 130.498699 
L 185.328561 129.326826 
L 185.534542 127.707715 
L 185.650635 128.176383 
L 185.743689 128.132247 
L 185.819847 127.904401 
L 185.88404 128.493775 
L 186.000015 128.050275 
L 186.102908 129.155558 
L 186.154466 128.857644 
L 186.589377 129.93228 
L 186.66162 131.633102 
L 186.797276 131.247101 
L 187.089112 129.432728 
L 187.15644 129.403008 
L 187.225256 130.471662 
L 187.4307 128.601184 
L 187.499815 128.823568 
L 187.585381 130.68658 
L 187.707435 130.664492 
L 187.864482 132.676976 
L 187.946058 131.081328 
L 188.014863 131.193806 
L 188.152704 130.80942 
L 188.359277 129.223283 
L 188.410199 130.204977 
L 188.469126 129.921719 
L 188.763321 128.267222 
L 188.792231 129.131293 
L 188.878545 128.753577 
L 189.042685 129.178221 
L 189.15377 128.474147 
L 189.238937 128.936437 
L 189.292306 130.182271 
L 189.359538 130.080754 
L 189.600565 131.821832 
L 189.651664 131.47654 
L 189.721671 131.606394 
L 189.996455 130.693122 
L 190.302762 133.228601 
L 190.357013 133.296614 
L 190.563025 133.921038 
L 190.99626 129.214226 
L 191.139084 130.133895 
L 191.208655 129.382421 
L 191.284032 129.396036 
L 191.422385 129.213219 
L 191.525086 129.508201 
L 191.61125 129.475154 
L 191.783325 127.910212 
L 191.869981 128.090223 
L 192.006653 129.625029 
L 192.058375 129.482008 
L 192.143999 129.399707 
L 192.264646 131.706503 
L 192.350731 131.051043 
L 192.472257 131.286227 
L 192.540031 131.177022 
L 192.608702 132.088909 
L 192.780837 131.266472 
L 192.867834 131.387024 
L 192.987513 128.992695 
L 193.054635 130.043733 
L 193.123434 130.002799 
L 193.278359 128.68811 
L 193.415556 128.834499 
L 193.483743 129.165302 
L 193.606507 129.187675 
L 193.827457 128.421023 
L 193.999704 129.633215 
L 194.053257 129.425903 
L 194.121665 129.795785 
L 194.259401 128.667404 
L 194.360346 129.677295 
L 194.429013 129.171033 
L 194.497375 129.651926 
L 194.586234 128.837153 
L 194.635525 129.537703 
L 194.755172 129.205121 
L 195.050174 131.158915 
L 195.177926 131.46197 
L 195.357814 133.026409 
L 195.547862 131.659185 
L 195.702464 131.768993 
L 195.961152 128.282093 
L 196.036194 127.677718 
L 196.133447 128.309849 
L 196.184852 127.541552 
L 196.262298 127.691772 
L 196.323444 127.793591 
L 196.391525 127.653483 
L 196.668388 129.513445 
L 196.751485 129.473875 
L 196.974855 128.373224 
L 197.026479 128.589662 
L 197.100738 129.009088 
L 197.182307 128.723016 
L 197.273597 129.038969 
L 197.334537 128.641373 
L 197.386377 128.750858 
L 197.524453 128.175886 
L 197.540521 128.206411 
L 197.695905 131.166364 
L 197.799471 131.191229 
L 197.818352 130.973669 
L 197.884046 131.10008 
L 198.143772 131.111427 
L 198.248002 131.868636 
L 198.404763 130.361874 
L 198.615166 129.412703 
L 198.66485 129.669454 
L 198.677199 129.088924 
L 198.745416 130.133827 
L 198.83157 130.055553 
L 198.951797 129.035584 
L 199.032668 129.33846 
L 199.105895 129.015445 
L 199.262557 129.956864 
L 199.317065 129.758021 
L 199.50321 128.087138 
L 199.520189 128.153258 
L 199.588114 129.146958 
L 199.708445 129.15625 
L 200.01954 127.112923 
L 200.154176 128.10296 
L 200.244044 128.20429 
L 200.728808 132.738762 
L 200.825328 132.656393 
L 200.897963 132.760858 
L 201.082518 129.716499 
L 201.246831 129.906857 
L 201.443623 127.315929 
L 201.786273 129.220676 
L 201.872789 128.364231 
L 201.940806 128.689984 
L 201.997894 128.328455 
L 202.078745 128.450467 
L 202.147715 128.638902 
L 202.215817 129.450312 
L 202.304767 128.99396 
L 202.577441 130.091799 
L 202.800124 131.759501 
L 202.886802 131.973068 
L 202.938703 131.621366 
L 202.99348 132.131227 
L 203.074346 131.951427 
L 203.212131 132.885644 
L 203.333904 132.518405 
L 203.366679 131.20819 
L 203.435863 131.753189 
L 203.497294 132.38038 
L 203.641944 130.799259 
L 203.728028 131.419716 
L 203.779207 131.082796 
L 203.91604 129.702362 
L 204.06155 131.160689 
L 204.13985 130.81938 
L 204.208061 129.834551 
L 204.328175 130.168911 
L 204.414513 129.146017 
L 204.484175 129.161154 
L 204.555036 130.549889 
L 204.793665 129.126986 
L 205.053067 131.358752 
L 205.136535 131.67157 
L 205.274239 129.951936 
L 205.360571 130.155665 
L 205.497371 129.636189 
L 205.674266 130.79785 
L 205.772195 130.72122 
L 205.841767 129.680199 
L 206.115869 131.88608 
L 206.189872 132.168382 
L 206.409261 129.84689 
L 206.562979 130.980058 
L 206.633809 130.339916 
L 206.769794 130.866258 
L 206.910142 130.45822 
L 207.063283 131.547003 
L 207.182503 130.139831 
L 207.267566 130.759609 
L 207.336697 130.642958 
L 207.476336 130.143334 
L 207.54341 130.89012 
L 207.714523 130.17443 
L 207.784825 129.276456 
L 207.822182 129.726452 
L 207.973879 128.839737 
L 208.337815 127.260439 
L 208.407154 127.882403 
L 208.491912 127.774477 
L 208.543091 127.880666 
L 208.695917 128.85898 
L 208.759046 129.499449 
L 208.835428 129.243359 
L 209.041938 130.208405 
L 209.12004 129.916231 
L 209.184214 130.289462 
L 209.408817 129.162932 
L 209.46068 130.13773 
L 209.55327 129.927451 
L 209.751126 130.544708 
L 209.871446 130.341655 
L 209.957165 131.322409 
L 210.043273 131.255222 
L 210.112035 130.906152 
L 210.165048 129.992182 
L 210.39313 131.730986 
L 210.462372 131.3824 
L 210.525022 131.638296 
L 210.611721 131.459686 
L 210.671205 130.634823 
L 210.939932 132.587795 
L 211.112114 129.748806 
L 211.163464 130.054659 
L 211.593345 127.634715 
L 211.954938 130.31846 
L 212.094357 131.179925 
L 212.317629 131.685044 
L 212.454652 130.546871 
L 212.523485 131.180751 
L 212.731029 128.90543 
L 212.907489 130.09624 
L 212.954746 129.941962 
L 213.040281 129.069377 
L 213.109404 129.667886 
L 213.161293 129.385525 
L 213.340374 128.182907 
L 213.353439 128.933706 
L 213.438627 128.746159 
L 213.510188 128.582998 
L 213.648287 127.187694 
L 213.715981 127.42112 
L 213.870694 127.074415 
L 213.939436 126.421343 
L 214.008322 126.730869 
L 214.07702 126.932395 
L 214.197108 126.883663 
L 214.23102 126.444733 
L 214.436939 127.776186 
L 214.592989 127.01589 
L 214.643493 127.873761 
L 214.731085 127.563912 
L 214.798741 126.897598 
L 214.867242 127.248228 
L 214.970957 127.295846 
L 215.008805 126.860342 
L 215.073679 126.93281 
L 215.141754 126.822516 
L 215.563253 130.447851 
L 215.605926 130.255246 
L 215.851563 132.45741 
L 216.103927 130.951306 
L 216.190085 131.010785 
L 216.363274 132.232285 
L 216.415664 131.923931 
L 216.521462 132.221428 
L 216.741358 130.400524 
L 216.777829 132.389126 
L 216.897976 132.177853 
L 216.920959 132.340301 
L 217.141454 130.472277 
L 217.276405 131.221711 
L 217.344153 130.886684 
L 217.414142 131.367932 
L 217.519562 130.875386 
L 217.646992 129.153239 
L 217.773437 130.013466 
L 217.84406 129.887755 
L 217.978833 128.360041 
L 218.063011 129.453227 
L 218.131825 129.214754 
L 218.20323 129.062417 
L 218.287231 130.104588 
L 218.40825 130.654387 
L 218.474902 130.5268 
L 218.494146 129.668354 
L 218.562587 129.803236 
L 218.633131 129.838442 
L 218.698616 130.820947 
L 218.784114 130.385612 
L 218.922278 130.954522 
L 219.025201 130.440822 
L 219.265817 132.180439 
L 219.404431 132.263524 
L 219.649064 130.98018 
L 219.696208 130.796694 
L 219.764459 129.678551 
L 219.868305 129.80331 
L 219.973467 128.313137 
L 220.07421 129.020989 
L 220.162438 128.366012 
L 220.194225 128.84327 
L 220.297584 128.579245 
L 220.351377 127.921011 
L 220.403995 128.223298 
L 220.593405 127.294813 
L 220.610678 127.554884 
L 220.668169 128.447967 
L 220.698756 128.070542 
L 220.781797 128.002373 
L 220.833441 127.709614 
L 221.194102 129.198094 
L 221.263283 130.399832 
L 221.331721 129.934997 
L 221.402219 130.282391 
L 221.475711 128.99025 
L 221.538911 129.340647 
L 221.692331 129.032777 
L 221.968344 130.511296 
L 222.053013 130.851089 
L 222.106775 130.615823 
L 222.208947 132.048293 
L 222.421946 131.142743 
L 222.475426 130.315678 
L 222.549947 130.952462 
L 222.559509 130.778427 
L 222.800795 128.708415 
L 222.835046 129.415889 
L 222.90352 128.347501 
L 222.955572 129.012066 
L 223.02615 129.981358 
L 223.099233 129.603785 
L 223.178317 130.537292 
L 223.255648 130.326251 
L 223.315322 130.384251 
L 223.409253 131.018254 
L 223.453149 130.893068 
L 223.545113 131.104635 
L 223.661557 131.826721 
L 223.676526 131.544293 
L 223.884752 130.92386 
L 223.970573 130.779912 
L 224.02299 130.465273 
L 224.090603 130.980815 
L 224.226018 131.10176 
L 224.382879 129.407153 
L 224.520309 129.83489 
L 224.606156 129.444605 
L 224.677812 129.945198 
L 224.744744 129.611092 
L 224.797285 128.617904 
L 224.812232 129.231364 
L 224.925848 129.204914 
L 224.951366 128.575541 
L 225.044832 129.169276 
L 225.123783 130.505281 
L 225.245046 129.015198 
L 225.692671 130.900648 
L 225.742237 130.661201 
L 225.981897 131.456667 
L 226.033522 131.031412 
L 226.102797 131.374703 
L 226.205554 131.896516 
L 226.239345 131.621908 
L 226.292929 131.475805 
L 226.361793 131.749655 
L 226.445921 132.957513 
L 226.840954 130.515612 
L 226.984945 129.306331 
L 227.150533 127.26023 
L 227.220338 127.672886 
L 227.872727 131.040669 
L 228.049445 129.723856 
L 228.078536 130.694682 
L 228.164129 130.298825 
L 228.286682 128.63511 
L 228.506939 130.605589 
L 228.576051 130.662581 
L 228.645617 130.353297 
L 228.731137 130.549099 
L 228.783785 130.447819 
L 228.850421 129.553779 
L 228.960858 130.592067 
L 229.065369 130.247819 
L 229.088614 129.403 
L 229.146244 129.984124 
L 229.283811 129.339419 
L 229.422681 130.411291 
L 229.492112 129.842776 
L 229.603184 130.907152 
L 229.634718 130.418382 
L 229.784185 130.493752 
L 229.852483 129.628468 
L 229.991733 130.133269 
L 230.060774 128.990635 
L 230.14612 129.582364 
L 230.334837 129.042256 
L 230.511736 130.095638 
L 230.595183 130.336616 
L 230.835757 128.953207 
L 230.919795 129.624789 
L 230.988046 129.567638 
L 231.073462 129.110975 
L 231.149551 129.468477 
L 231.195126 128.315872 
L 231.266621 128.645352 
L 231.350487 129.014127 
L 231.418604 128.738606 
L 231.50452 128.964806 
L 231.623535 130.467439 
L 232.213818 133.457509 
L 232.573531 130.116397 
L 232.657044 131.013994 
L 232.692001 130.976741 
L 232.966329 127.386428 
L 233.102971 128.441673 
L 233.154897 128.34377 
L 233.338573 127.101246 
L 233.397607 127.373621 
L 233.826714 131.41585 
L 233.910785 131.541338 
L 233.99744 131.179565 
L 234.049924 132.238105 
L 234.102197 130.841185 
L 234.117943 131.386963 
L 234.25508 131.964681 
L 234.41509 131.180702 
L 234.550826 131.666121 
L 234.565706 130.481057 
L 234.620992 130.672485 
L 234.673351 131.459553 
L 234.754958 129.789901 
L 234.824222 130.359787 
L 235.005549 129.541671 
L 235.124006 130.525428 
L 235.17696 130.111628 
L 235.245404 130.186114 
L 235.313071 130.127562 
L 235.400909 129.385676 
L 235.467856 129.968076 
L 235.612816 129.750912 
L 235.679997 129.948377 
L 235.797471 129.011556 
L 235.811349 129.737324 
L 235.983414 130.56989 
L 236.156433 129.70561 
L 236.190867 129.559144 
L 236.24292 130.204756 
L 236.381921 129.183509 
L 236.499832 129.185421 
L 236.739931 127.186728 
L 236.809455 127.644289 
L 236.878067 128.774285 
L 236.949869 128.109706 
L 237.045601 128.638438 
L 237.170344 127.964007 
L 237.240807 128.266555 
L 237.449792 129.600201 
L 237.600502 128.069875 
L 237.879353 131.552377 
L 238.029938 130.605593 
L 238.236534 132.875689 
L 238.304623 132.544853 
L 238.515108 131.2419 
L 238.598973 131.283744 
L 238.66599 131.179574 
L 239.095676 129.132988 
L 239.16397 129.935927 
L 239.215094 129.873808 
L 239.456004 129.504128 
L 239.507328 129.604518 
L 239.57608 129.069717 
L 239.644908 129.466656 
L 239.730401 129.448314 
L 239.800919 128.587779 
L 239.867056 128.609996 
L 239.936266 128.378877 
L 240.09132 127.479884 
L 240.14253 127.603189 
L 240.267774 127.538611 
L 240.366861 128.182771 
L 240.622516 129.379357 
L 240.641685 129.148239 
L 240.710375 129.346451 
L 240.795279 130.55538 
L 240.863247 130.50215 
L 240.933662 130.300675 
L 241.074093 131.340369 
L 241.31394 130.566861 
L 241.451621 131.124923 
L 241.502751 130.203088 
L 241.727541 131.821266 
L 241.812641 130.906938 
L 241.93426 132.084551 
L 242.34673 130.010518 
L 242.381012 130.393323 
L 242.43218 130.061506 
L 242.620857 129.533005 
L 242.655215 129.701121 
L 242.778042 130.10558 
L 242.98455 130.926535 
L 243.067763 130.348217 
L 243.136522 130.441999 
L 243.275294 131.111517 
L 243.344255 130.990914 
L 243.429951 130.455224 
L 243.481383 130.903316 
L 243.549017 130.074066 
L 243.65063 130.210379 
L 243.775837 130.995101 
L 243.890877 131.211535 
L 244.04526 128.497532 
L 244.113622 128.179125 
L 244.285314 130.303332 
L 244.337386 130.75669 
L 244.567056 129.842941 
L 244.766994 132.665612 
L 244.989592 132.171913 
L 245.112696 130.498195 
L 245.334198 131.360703 
L 245.625031 130.170778 
L 245.711431 129.462267 
L 245.798625 130.195909 
L 245.831597 129.816361 
L 245.930372 129.168937 
L 245.97041 129.336135 
L 246.043506 129.608192 
L 246.188754 128.193962 
L 246.262337 129.545068 
L 246.330131 129.042316 
L 246.404832 129.286178 
L 246.465775 129.463612 
L 246.552225 130.60098 
L 246.604025 130.105258 
L 246.774894 128.748908 
L 246.930478 131.543485 
L 246.967021 129.722648 
L 247.153934 130.893786 
L 247.187247 130.271933 
L 247.256881 130.407658 
L 247.393638 131.37795 
L 247.46285 131.356627 
L 247.537009 131.306744 
L 247.602188 130.686256 
L 247.668299 130.818953 
L 247.75625 131.007367 
L 248.098484 129.085369 
L 248.182987 129.557543 
L 248.253023 128.717521 
L 248.32109 128.75456 
L 248.458213 127.76724 
L 248.601938 129.315276 
L 248.664783 129.173896 
L 248.753058 129.118744 
L 249.093637 129.946333 
L 249.300657 129.035343 
L 249.522667 129.968488 
L 249.661956 129.679825 
L 249.883996 130.507295 
L 249.954203 129.87495 
L 250.023463 130.20725 
L 250.159192 131.053815 
L 250.298416 129.678436 
L 250.366445 130.454095 
L 250.591991 129.418152 
L 250.72775 131.013991 
L 250.816535 130.284817 
L 250.899635 130.489539 
L 251.004357 131.878882 
L 251.088002 131.357197 
L 251.175073 131.876694 
L 251.226973 132.983421 
L 251.328972 132.649341 
L 251.436699 131.190452 
L 251.518704 131.586867 
L 251.7246 130.571721 
L 251.792884 131.31393 
L 251.873692 131.009196 
L 251.879904 129.005551 
L 251.947674 130.903173 
L 252.124372 130.021079 
L 252.189342 130.093517 
L 252.222735 130.024347 
L 252.291408 130.010888 
L 252.359487 129.773032 
L 252.445165 130.792736 
L 252.497658 130.484718 
L 252.652242 129.74073 
L 252.806685 130.57154 
L 252.928152 129.192039 
L 253.046659 129.529341 
L 253.099448 129.153516 
L 253.286893 127.552347 
L 253.339783 128.342523 
L 253.373279 127.813717 
L 253.494505 127.334449 
L 253.664952 128.632483 
L 253.716857 128.283474 
L 254.146444 130.592995 
L 254.284191 130.456109 
L 254.342028 131.163044 
L 254.374502 130.444404 
L 254.42255 130.783663 
L 254.577244 130.185757 
L 254.652512 130.512242 
L 254.784543 129.404413 
L 254.876856 129.005861 
L 254.938189 129.867251 
L 255.02602 129.746166 
L 255.058606 129.904676 
L 255.711872 127.76867 
L 255.849597 129.353206 
L 255.93562 129.447852 
L 256.05562 131.54946 
L 256.278766 133.298085 
L 256.399762 133.234492 
L 256.55375 131.050508 
L 256.572129 131.22137 
L 256.639897 131.688807 
L 256.845589 129.8594 
L 256.914418 130.079254 
L 256.994085 129.921129 
L 257.068764 128.862436 
L 257.086934 129.13557 
L 257.208552 131.640882 
L 257.259788 131.233717 
L 257.344208 129.965309 
L 257.412861 130.45222 
L 257.636671 129.117472 
L 257.688493 129.516955 
L 257.997864 126.964047 
L 258.049116 128.179364 
L 258.117894 127.46854 
L 258.351277 130.487278 
L 258.432966 129.896835 
L 258.687187 131.426396 
L 258.773717 130.55003 
L 258.87583 131.21204 
L 259.257189 127.546141 
L 259.324139 127.822139 
L 259.547326 126.89307 
L 259.829415 130.462073 
L 259.892485 130.720488 
L 260.132921 128.722084 
L 260.251958 129.931438 
L 260.457581 128.55956 
L 260.527235 129.190139 
L 260.594963 128.889805 
L 260.746733 128.853324 
L 260.953511 130.873304 
L 261.10707 129.695516 
L 261.382243 131.431492 
L 261.449568 132.729865 
L 261.518461 132.546602 
L 261.672618 132.108476 
L 261.741301 132.227322 
L 261.881355 132.766959 
L 262.157438 130.373594 
L 262.240556 130.310238 
L 262.376885 129.613213 
L 262.447466 130.181594 
L 262.514506 130.009996 
L 262.654504 128.669458 
L 262.738064 128.608122 
L 262.875833 129.117713 
L 263.083986 128.324426 
L 263.157536 128.535035 
L 263.259567 128.425079 
L 263.442391 130.131695 
L 263.511136 129.39799 
L 263.580042 129.701303 
L 263.650012 129.899422 
L 263.666324 129.756757 
L 263.8205 130.957562 
L 263.872475 130.67296 
L 263.941144 130.755808 
L 264.045635 131.118271 
L 264.150504 129.467284 
L 264.23273 129.95691 
L 264.473763 127.935899 
L 264.662332 130.008164 
L 264.731179 129.836788 
L 265.023655 129.586789 
L 265.17222 131.095601 
L 265.212569 130.942053 
L 265.306982 130.832539 
L 265.410752 129.970722 
L 265.530579 131.113163 
L 265.719103 132.881018 
L 265.856434 133.427237 
L 266.149364 130.231519 
L 266.217455 130.712574 
L 266.303025 130.5253 
L 266.354973 130.470811 
L 266.57778 128.977078 
L 266.887124 131.396263 
L 266.938658 130.715933 
L 267.024897 131.240812 
L 267.076603 131.148579 
L 267.145366 130.738728 
L 267.215 130.963143 
L 267.420014 130.485293 
L 267.57456 128.736286 
L 267.644174 129.374082 
L 267.848642 127.098657 
L 267.924764 127.67737 
L 267.994774 127.347472 
L 268.204916 128.232815 
L 268.355177 127.640246 
L 268.561896 129.03072 
L 268.785874 128.254458 
L 268.837169 128.346456 
L 269.073019 129.609575 
L 269.129362 129.700592 
L 269.266817 130.982039 
L 269.422036 130.77806 
L 269.491774 131.286874 
L 269.560498 132.802002 
L 269.783894 132.098555 
L 269.842112 130.738788 
L 269.905591 131.726062 
L 269.973365 130.929567 
L 270.094083 131.360452 
L 270.294108 130.274448 
L 270.478649 131.008001 
L 270.609683 131.124449 
L 270.626802 130.981038 
L 270.903177 133.043325 
L 270.97283 132.736207 
L 271.057511 133.056772 
L 271.255392 132.618387 
L 271.504249 130.923867 
L 271.55646 131.300367 
L 271.696516 129.848594 
L 271.762793 129.923512 
L 271.838184 130.425184 
L 271.901331 130.062358 
L 272.065478 132.095324 
L 272.134434 131.607083 
L 272.403362 131.31615 
L 272.555417 130.17359 
L 272.675613 130.026449 
L 272.74934 129.131329 
L 272.848461 129.271892 
L 272.898995 129.077753 
L 272.985828 129.562336 
L 273.12273 129.265881 
L 273.175879 129.970686 
L 273.29723 129.707534 
L 273.33055 129.776224 
L 273.420181 129.942166 
L 273.604022 131.537624 
L 273.758728 131.246841 
L 273.968 132.160384 
L 274.051352 132.042803 
L 274.154129 132.284921 
L 274.240109 130.686134 
L 274.312484 131.2644 
L 274.37904 130.739892 
L 274.463646 131.889789 
L 274.621987 130.349317 
L 274.671405 130.488447 
L 274.825654 128.472238 
L 274.876736 128.853715 
L 274.979935 129.021021 
L 275.04834 128.03306 
L 275.103433 128.530533 
L 275.187238 128.68944 
L 275.260038 129.949478 
L 275.443673 128.708422 
L 275.61498 130.778806 
L 275.909529 131.957056 
L 275.998506 130.435676 
L 276.079576 130.836481 
L 276.182132 130.613576 
L 276.233366 131.13438 
L 276.303059 130.169819 
L 276.39631 130.358218 
L 276.445715 130.681933 
L 276.513391 129.911662 
L 276.870601 132.220411 
L 276.955824 131.003501 
L 277.095883 131.715782 
L 277.162179 130.778241 
L 277.230584 130.992866 
L 277.339622 130.886081 
L 277.370573 130.198426 
L 277.437353 130.260944 
L 277.505589 130.159955 
L 277.591724 129.395527 
L 277.645398 129.676948 
L 277.731186 129.182676 
L 277.797532 127.811127 
L 277.866695 128.175824 
L 277.935196 128.697592 
L 278.006728 127.980624 
L 278.230222 129.856689 
L 278.420721 129.191405 
L 278.433592 129.267142 
L 278.588546 131.630951 
L 278.725438 132.048311 
L 278.811447 131.385793 
L 278.934157 128.898905 
L 279.068636 129.231101 
L 279.155038 130.599381 
L 279.524285 126.928288 
L 279.607829 127.058937 
L 279.711944 126.450099 
L 279.797307 125.045039 
L 279.849073 125.065891 
L 279.985125 125.673347 
L 280.209663 128.348685 
L 280.262848 128.026755 
L 280.542206 131.655974 
L 280.794295 129.777232 
L 280.863829 130.108956 
L 280.948677 130.697654 
L 281.058119 130.430662 
L 281.194711 128.868096 
L 281.383303 130.327057 
L 281.434793 130.555603 
L 281.486569 131.38462 
L 281.692825 131.591767 
L 281.85938 133.068947 
L 282.090708 132.373574 
L 282.226878 130.699968 
L 282.22701 127.826906 
L 282.284904 129.619837 
L 282.34734 129.833619 
L 282.433073 129.730132 
L 282.502158 129.996693 
L 282.708796 128.404002 
L 282.819788 128.254169 
L 282.917926 129.544637 
L 283.035648 129.485562 
L 283.259468 128.560741 
L 283.413826 129.008513 
L 283.498948 129.176497 
L 283.631233 129.845809 
L 283.740628 129.546625 
L 283.912363 130.322731 
L 284.187452 129.832812 
L 284.340163 128.506166 
L 284.418865 128.8309 
L 284.426352 128.565948 
L 284.47861 128.586868 
L 284.644363 127.924961 
L 284.758327 126.634122 
L 284.839987 126.876173 
L 284.947579 127.561583 
L 285.011727 127.323779 
L 285.185883 126.90421 
L 285.251889 127.02103 
L 285.440671 127.450752 
L 285.612011 125.858419 
L 285.80107 127.277209 
L 285.818573 126.903603 
L 285.889721 127.120077 
L 286.119347 127.767901 
L 286.317658 129.867908 
L 286.489451 128.885379 
L 286.781249 130.299485 
L 287.042902 129.130695 
L 287.168454 130.975087 
L 287.261699 131.284045 
L 287.313684 130.827441 
L 287.553311 131.275881 
L 287.742942 132.691361 
L 287.811137 131.982309 
L 287.880502 132.671568 
L 287.966624 132.659058 
L 288.026311 132.839053 
L 288.17262 131.647405 
L 288.241606 132.196421 
L 288.309842 132.174622 
L 288.724895 127.230763 
L 288.80528 127.371957 
L 288.963045 128.807906 
L 289.075285 128.376028 
L 289.238248 130.674518 
L 289.324017 130.975201 
L 289.444611 132.854372 
L 289.548232 132.634284 
L 289.719933 131.438984 
L 289.806258 131.769603 
L 289.909025 131.693722 
L 289.979205 131.999712 
L 290.015561 131.812808 
L 290.235386 130.94924 
L 290.389586 130.747207 
L 290.44431 130.997422 
L 290.510303 130.980123 
L 290.717 129.156543 
L 290.819581 129.998424 
L 290.870849 129.213051 
L 290.958478 129.953673 
L 291.008155 129.858024 
L 291.094409 129.86813 
L 291.148144 130.475025 
L 291.231395 129.768814 
L 291.304805 130.231288 
L 291.405019 130.137226 
L 291.471963 130.747608 
L 291.540657 129.868322 
L 291.609665 130.084654 
L 291.661164 129.85747 
L 291.729793 130.117348 
L 291.79702 129.592104 
L 291.88478 129.872486 
L 292.004679 131.474592 
L 292.142224 131.331337 
L 292.213508 130.980108 
L 292.365654 131.813701 
L 292.580801 130.583852 
L 292.709026 129.525915 
L 292.794478 129.878527 
L 292.881348 130.299007 
L 292.932407 131.753308 
L 293.090387 130.400153 
L 293.139567 130.629938 
L 293.275878 130.282463 
L 293.568124 128.907306 
L 293.654479 127.727743 
L 293.705647 127.835738 
L 294.212053 131.159827 
L 294.2806 131.004791 
L 294.3533 131.117507 
L 294.575603 131.976232 
L 294.662852 131.717334 
L 294.703257 131.015855 
L 294.989567 132.526518 
L 295.196174 131.709467 
L 295.264041 131.881882 
L 295.349343 132.931986 
L 295.402913 132.83626 
L 295.692866 130.987061 
L 295.761719 131.230863 
L 295.899506 130.464334 
L 296.055077 130.151276 
L 296.193508 130.407837 
L 296.33325 128.755648 
L 296.415775 129.014481 
L 296.484155 128.824812 
L 296.552174 129.435755 
L 296.620702 128.530353 
L 296.690687 128.751136 
L 296.775772 127.817721 
L 296.827225 128.540954 
L 296.898398 128.425472 
L 297.051004 129.588041 
L 297.123396 128.602525 
L 297.283711 128.803309 
L 297.292293 128.785023 
L 297.32697 129.343746 
L 297.420514 129.153494 
L 297.48281 129.034626 
L 297.826154 130.953088 
L 297.963375 130.708609 
L 298.107499 130.199952 
L 298.244545 130.666983 
L 298.393425 129.996597 
L 298.462355 130.20939 
L 298.531878 129.905211 
L 298.600802 131.116864 
L 298.683175 131.288825 
L 298.824029 132.533275 
L 298.892694 132.103442 
L 299.046619 131.842629 
L 299.098414 131.728865 
L 299.321765 131.785786 
L 299.579352 130.900249 
L 299.840539 133.395483 
L 299.940943 132.729351 
L 300.026066 133.139784 
L 300.111696 131.610321 
L 300.24895 132.454692 
L 300.30346 131.79062 
L 300.389375 132.074889 
L 300.525149 130.23109 
L 300.694264 130.488438 
L 300.80018 130.330083 
L 300.86693 128.868227 
L 300.953445 128.990276 
L 301.02242 129.322034 
L 301.091834 128.310233 
L 301.210287 128.260348 
L 301.2453 128.968701 
L 301.330422 128.918495 
L 301.38552 129.095999 
L 301.434517 129.808891 
L 301.548191 129.582459 
L 301.588866 130.26408 
L 301.761755 129.237992 
L 301.831189 129.47441 
L 301.898627 129.374228 
L 301.967663 129.313568 
L 302.073102 129.596854 
L 302.206894 129.003862 
L 302.379285 130.322574 
L 302.585523 131.011723 
L 302.691851 130.194487 
L 302.863576 131.347707 
L 303.021752 130.165312 
L 303.156193 130.756508 
L 303.256445 130.416513 
L 303.409703 131.498565 
L 303.44948 131.025274 
L 303.522003 131.566887 
L 303.582142 131.056057 
L 303.71888 132.24 
L 303.943764 130.38011 
L 304.012997 131.415366 
L 304.115087 129.756123 
L 304.16601 130.429899 
L 304.355357 128.74921 
L 304.563064 130.569127 
L 304.648976 129.710991 
L 304.718174 130.027918 
L 304.78383 130.326917 
L 304.921777 129.403896 
L 305.007064 129.485816 
L 305.063635 130.292517 
L 305.214053 129.575479 
L 305.302237 129.498979 
L 305.523611 130.756315 
L 305.941372 128.707432 
L 306.082633 128.781616 
L 306.206825 127.160225 
L 306.333058 127.360782 
L 306.349366 129.00715 
L 306.43572 128.363219 
L 306.489206 129.090809 
L 306.572019 128.968921 
L 306.675129 128.921655 
L 306.743961 128.664466 
L 306.988455 130.237412 
L 307.087624 129.833277 
L 307.345388 131.282164 
L 307.465211 130.496769 
L 307.501666 130.571394 
L 307.556727 130.695584 
L 307.791781 128.948783 
L 307.843865 129.561249 
L 308.136544 127.408051 
L 308.348484 127.933398 
L 308.48045 129.1284 
L 308.618729 128.114595 
L 308.704336 129.123739 
L 308.756341 128.824308 
L 308.91084 129.223632 
L 309.253114 125.899548 
L 309.482089 128.30527 
L 309.689009 128.694065 
L 309.825548 130.862214 
L 309.9114 130.757331 
L 310.169268 129.064841 
L 310.257958 129.145449 
L 310.548444 126.89286 
L 310.685808 128.397685 
L 310.839892 128.916283 
L 310.943552 127.928772 
L 310.99006 128.294409 
L 311.103412 129.234976 
L 311.182941 128.591387 
L 311.251628 128.835445 
L 311.326862 128.734001 
L 311.527262 127.017959 
L 311.612535 126.798238 
L 312.10659 129.454322 
L 312.188236 129.257993 
L 312.34453 130.448839 
L 312.533882 129.017701 
L 312.625711 129.065327 
L 312.739316 127.117225 
L 312.962446 128.615384 
L 313.030854 129.138634 
L 313.168857 128.347172 
L 313.236964 128.676724 
L 313.341011 128.503261 
L 313.391964 129.752695 
L 313.447389 129.716725 
L 313.597534 128.246739 
L 313.666048 128.474323 
L 313.775958 128.047948 
L 313.908427 129.898135 
L 314.097356 128.310592 
L 314.200469 128.498779 
L 314.262444 129.953331 
L 314.319409 129.853637 
L 314.389413 128.970622 
L 314.461865 129.934743 
L 314.682036 129.150653 
L 314.75171 128.722883 
L 314.991625 129.101231 
L 315.02536 128.377784 
L 315.081639 129.221618 
L 315.128931 128.973287 
L 315.162972 128.172037 
L 315.257341 128.807031 
L 315.303952 128.459674 
L 315.439591 128.806093 
L 315.560393 129.496744 
L 315.651711 129.444664 
L 315.783931 129.704901 
L 315.818403 129.405027 
L 315.990982 130.446767 
L 316.161648 128.579978 
L 316.233016 129.194376 
L 316.402792 128.690189 
L 316.454157 129.629469 
L 316.573974 128.457749 
L 316.810273 130.680332 
L 316.888944 130.214982 
L 316.955316 130.798872 
L 317.219198 129.479425 
L 317.486346 126.735271 
L 317.502813 127.456826 
" clip-path="url(#pdc0c56702b)" style="fill: none; stroke: #ff0000; stroke-opacity: 0.5; stroke-width: 3; stroke-linecap: square"/>
   </g>
   <g id="patch_3">
    <path d="M 38.502813 139.32 
L 38.502813 0.72 
" style="fill: none; stroke: #000000; stroke-width: 0.8; stroke-linejoin: miter; stroke-linecap: square"/>
   </g>
   <g id="patch_4">
    <path d="M 317.502813 139.32 
L 317.502813 0.72 
" style="fill: none; stroke: #000000; stroke-width: 0.8; stroke-linejoin: miter; stroke-linecap: square"/>
   </g>
   <g id="patch_5">
    <path d="M 38.502813 139.32 
L 317.502813 139.32 
" style="fill: none; stroke: #000000; stroke-width: 0.8; stroke-linejoin: miter; stroke-linecap: square"/>
   </g>
   <g id="patch_6">
    <path d="M 38.502813 0.72 
L 317.502813 0.72 
" style="fill: none; stroke: #000000; stroke-width: 0.8; stroke-linejoin: miter; stroke-linecap: square"/>
   </g>
   <g id="legend_1">
    <g id="patch_7">
     <path d="M 236.734062 86.198125 
L 310.502813 86.198125 
Q 312.502813 86.198125 312.502813 84.198125 
L 312.502813 55.841875 
Q 312.502813 53.841875 310.502813 53.841875 
L 236.734062 53.841875 
Q 234.734062 53.841875 234.734062 55.841875 
L 234.734062 84.198125 
Q 234.734062 86.198125 236.734062 86.198125 
z
" style="fill: #ffffff; opacity: 0.8; stroke: #cccccc; stroke-linejoin: miter"/>
    </g>
    <g id="line2d_25">
     <path d="M 238.734062 61.940312 
L 248.734062 61.940312 
L 258.734062 61.940312 
" style="fill: none; stroke: #0000ff; stroke-opacity: 0.5; stroke-width: 3; stroke-linecap: square"/>
    </g>
    <g id="text_14">
     <!-- RNEA -->
     <g transform="translate(266.734062 65.440312) scale(0.1 -0.1)">
      <defs>
       <path id="DejaVuSans-52" d="M 2841 2188 
Q 3044 2119 3236 1894 
Q 3428 1669 3622 1275 
L 4263 0 
L 3584 0 
L 2988 1197 
Q 2756 1666 2539 1819 
Q 2322 1972 1947 1972 
L 1259 1972 
L 1259 0 
L 628 0 
L 628 4666 
L 2053 4666 
Q 2853 4666 3247 4331 
Q 3641 3997 3641 3322 
Q 3641 2881 3436 2590 
Q 3231 2300 2841 2188 
z
M 1259 4147 
L 1259 2491 
L 2053 2491 
Q 2509 2491 2742 2702 
Q 2975 2913 2975 3322 
Q 2975 3731 2742 3939 
Q 2509 4147 2053 4147 
L 1259 4147 
z
" transform="scale(0.015625)"/>
       <path id="DejaVuSans-45" d="M 628 4666 
L 3578 4666 
L 3578 4134 
L 1259 4134 
L 1259 2753 
L 3481 2753 
L 3481 2222 
L 1259 2222 
L 1259 531 
L 3634 531 
L 3634 0 
L 628 0 
L 628 4666 
z
" transform="scale(0.015625)"/>
       <path id="DejaVuSans-41" d="M 2188 4044 
L 1331 1722 
L 3047 1722 
L 2188 4044 
z
M 1831 4666 
L 2547 4666 
L 4325 0 
L 3669 0 
L 3244 1197 
L 1141 1197 
L 716 0 
L 50 0 
L 1831 4666 
z
" transform="scale(0.015625)"/>
      </defs>
      <use xlink:href="#DejaVuSans-52"/>
      <use xlink:href="#DejaVuSans-4e" x="69.482422"/>
      <use xlink:href="#DejaVuSans-45" x="144.287109"/>
      <use xlink:href="#DejaVuSans-41" x="207.470703"/>
     </g>
    </g>
    <g id="line2d_26">
     <path d="M 238.734062 76.618437 
L 248.734062 76.618437 
L 258.734062 76.618437 
" style="fill: none; stroke: #ff0000; stroke-opacity: 0.5; stroke-width: 3; stroke-linecap: square"/>
    </g>
    <g id="text_15">
     <!-- BURNEA -->
     <g transform="translate(266.734062 80.118437) scale(0.1 -0.1)">
      <defs>
       <path id="DejaVuSans-42" d="M 1259 2228 
L 1259 519 
L 2272 519 
Q 2781 519 3026 730 
Q 3272 941 3272 1375 
Q 3272 1813 3026 2020 
Q 2781 2228 2272 2228 
L 1259 2228 
z
M 1259 4147 
L 1259 2741 
L 2194 2741 
Q 2656 2741 2882 2914 
Q 3109 3088 3109 3444 
Q 3109 3797 2882 3972 
Q 2656 4147 2194 4147 
L 1259 4147 
z
M 628 4666 
L 2241 4666 
Q 2963 4666 3353 4366 
Q 3744 4066 3744 3513 
Q 3744 3084 3544 2831 
Q 3344 2578 2956 2516 
Q 3422 2416 3680 2098 
Q 3938 1781 3938 1306 
Q 3938 681 3513 340 
Q 3088 0 2303 0 
L 628 0 
L 628 4666 
z
" transform="scale(0.015625)"/>
       <path id="DejaVuSans-55" d="M 556 4666 
L 1191 4666 
L 1191 1831 
Q 1191 1081 1462 751 
Q 1734 422 2344 422 
Q 2950 422 3222 751 
Q 3494 1081 3494 1831 
L 3494 4666 
L 4128 4666 
L 4128 1753 
Q 4128 841 3676 375 
Q 3225 -91 2344 -91 
Q 1459 -91 1007 375 
Q 556 841 556 1753 
L 556 4666 
z
" transform="scale(0.015625)"/>
      </defs>
      <use xlink:href="#DejaVuSans-42"/>
      <use xlink:href="#DejaVuSans-55" x="68.603516"/>
      <use xlink:href="#DejaVuSans-52" x="141.796875"/>
      <use xlink:href="#DejaVuSans-4e" x="211.279297"/>
      <use xlink:href="#DejaVuSans-45" x="286.083984"/>
      <use xlink:href="#DejaVuSans-41" x="349.267578"/>
     </g>
    </g>
   </g>
  </g>
 </g>
 <defs>
  <clipPath id="pdc0c56702b">
   <rect x="38.502813" y="0.72" width="279" height="138.6"/>
  </clipPath>
 </defs>
</svg>
