<?xml version="1.0" encoding="utf-8" standalone="no"?>
<!DOCTYPE svg PUBLIC "-//W3C//DTD SVG 1.1//EN"
  "http://www.w3.org/Graphics/SVG/1.1/DTD/svg11.dtd">
<svg xmlns:xlink="http://www.w3.org/1999/xlink" width="814.587012pt" height="576pt" viewBox="0 0 814.587012 576" xmlns="http://www.w3.org/2000/svg" version="1.1">
 <metadata>
  <rdf:RDF xmlns:dc="http://purl.org/dc/elements/1.1/" xmlns:cc="http://creativecommons.org/ns#" xmlns:rdf="http://www.w3.org/1999/02/22-rdf-syntax-ns#">
   <cc:Work>
    <dc:type rdf:resource="http://purl.org/dc/dcmitype/StillImage"/>
    <dc:date>2023-08-10T16:02:08.279735</dc:date>
    <dc:format>image/svg+xml</dc:format>
    <dc:creator>
     <cc:Agent>
      <dc:title>Matplotlib v3.7.2, https://matplotlib.org/</dc:title>
     </cc:Agent>
    </dc:creator>
   </cc:Work>
  </rdf:RDF>
 </metadata>
 <defs>
  <style type="text/css">*{stroke-linejoin: round; stroke-linecap: butt}</style>
 </defs>
 <g id="figure_1">
  <g id="patch_1">
   <path d="M 0 576 
L 814.587012 576 
L 814.587012 0 
L 0 0 
z
" style="fill: #ffffff"/>
  </g>
  <g id="axes_1">
   <g id="patch_2">
    <path d="M 101.823376 512.64 
L 692.39896 512.64 
L 692.39896 69.12 
L 101.823376 69.12 
z
" style="fill: #ffffff"/>
   </g>
   <g id="PathCollection_1">
    <path d="M 224.748225 359.352889 
L 217.677157 359.352889 
" clip-path="url(#p30c25f9643)" style="fill: #ff0000; fill-opacity: 0.79; stroke: #ff0000; stroke-opacity: 0.79; stroke-width: 1.5"/>
    <path d="M 521.22809 209.91983 
L 514.157022 209.91983 
" clip-path="url(#p30c25f9643)" style="fill: #ff0000; fill-opacity: 0.54; stroke: #ff0000; stroke-opacity: 0.54; stroke-width: 1.5"/>
    <path d="M 267.848369 337.629369 
L 260.777301 337.629369 
" clip-path="url(#p30c25f9643)" style="fill: #ff0000; fill-opacity: 0.4; stroke: #ff0000; stroke-opacity: 0.4; stroke-width: 1.5"/>
    <path d="M 454.586327 243.508899 
L 447.515259 243.508899 
" clip-path="url(#p30c25f9643)" style="fill: #ff0000; fill-opacity: 0.58; stroke: #ff0000; stroke-opacity: 0.58; stroke-width: 1.5"/>
    <path d="M 341.471445 300.521549 
L 334.400377 300.521549 
" clip-path="url(#p30c25f9643)" style="fill: #ff0000; fill-opacity: 0.62; stroke: #ff0000; stroke-opacity: 0.62; stroke-width: 1.5"/>
    <path d="M 337.590882 302.477447 
L 330.519814 302.477447 
" clip-path="url(#p30c25f9643)" style="fill: #ff0000; fill-opacity: 0.55; stroke: #ff0000; stroke-opacity: 0.55; stroke-width: 1.5"/>
    <path d="M 438.064273 251.836415 
L 430.993205 251.836415 
" clip-path="url(#p30c25f9643)" style="fill: #ff0000; fill-opacity: 0.54; stroke: #ff0000; stroke-opacity: 0.54; stroke-width: 1.5"/>
    <path d="M 216.044247 363.739906 
L 208.973179 363.739906 
" clip-path="url(#p30c25f9643)" style="fill: #ff0000; fill-opacity: 0.72; stroke: #ff0000; stroke-opacity: 0.72; stroke-width: 1.5"/>
    <path d="M 212.83593 365.356975 
L 205.764862 365.356975 
" clip-path="url(#p30c25f9643)" style="fill: #ff0000; fill-opacity: 0.61; stroke: #ff0000; stroke-opacity: 0.61; stroke-width: 1.5"/>
    <path d="M 461.558082 239.994964 
L 454.487015 239.994964 
" clip-path="url(#p30c25f9643)" style="fill: #ff0000; fill-opacity: 0.38; stroke: #ff0000; stroke-opacity: 0.38; stroke-width: 1.5"/>
    <path d="M 258.322209 342.430785 
L 251.251141 342.430785 
" clip-path="url(#p30c25f9643)" style="fill: #ff0000; fill-opacity: 0.74; stroke: #ff0000; stroke-opacity: 0.74; stroke-width: 1.5"/>
    <path d="M 534.364974 203.298521 
L 527.293906 203.298521 
" clip-path="url(#p30c25f9643)" style="fill: #ff0000; fill-opacity: 0.73; stroke: #ff0000; stroke-opacity: 0.73; stroke-width: 1.5"/>
    <path d="M 380.219336 280.991669 
L 373.148269 280.991669 
" clip-path="url(#p30c25f9643)" style="fill: #ff0000; fill-opacity: 0.51; stroke: #ff0000; stroke-opacity: 0.51; stroke-width: 1.5"/>
    <path d="M 296.399496 323.238907 
L 289.328428 323.238907 
" clip-path="url(#p30c25f9643)" style="fill: #ff0000; fill-opacity: 0.71; stroke: #ff0000; stroke-opacity: 0.71; stroke-width: 1.5"/>
    <path d="M 417.271533 262.316462 
L 410.200465 262.316462 
" clip-path="url(#p30c25f9643)" style="fill: #ff0000; fill-opacity: 0.61; stroke: #ff0000; stroke-opacity: 0.61; stroke-width: 1.5"/>
    <path d="M 210.96822 366.298346 
L 203.897152 366.298346 
" clip-path="url(#p30c25f9643)" style="fill: #ff0000; fill-opacity: 0.46; stroke: #ff0000; stroke-opacity: 0.46; stroke-width: 1.5"/>
    <path d="M 479.777547 230.811911 
L 472.706479 230.811911 
" clip-path="url(#p30c25f9643)" style="fill: #ff0000; fill-opacity: 0.6; stroke: #ff0000; stroke-opacity: 0.6; stroke-width: 1.5"/>
    <path d="M 287.066603 327.942911 
L 279.995535 327.942911 
" clip-path="url(#p30c25f9643)" style="fill: #ff0000; fill-opacity: 0.67; stroke: #ff0000; stroke-opacity: 0.67; stroke-width: 1.5"/>
    <path d="M 599.803052 170.316139 
L 592.731985 170.316139 
" clip-path="url(#p30c25f9643)" style="fill: #ff0000; fill-opacity: 0.38; stroke: #ff0000; stroke-opacity: 0.38; stroke-width: 1.5"/>
    <path d="M 308.143999 317.319391 
L 301.072931 317.319391 
" clip-path="url(#p30c25f9643)" style="fill: #ff0000; fill-opacity: 0.58; stroke: #ff0000; stroke-opacity: 0.58; stroke-width: 1.5"/>
    <path d="M 367.242961 287.532078 
L 360.171893 287.532078 
" clip-path="url(#p30c25f9643)" style="fill: #ff0000; fill-opacity: 0.47; stroke: #ff0000; stroke-opacity: 0.47; stroke-width: 1.5"/>
    <path d="M 262.442533 340.354041 
L 255.371465 340.354041 
" clip-path="url(#p30c25f9643)" style="fill: #ff0000; fill-opacity: 0.68; stroke: #ff0000; stroke-opacity: 0.68; stroke-width: 1.5"/>
    <path d="M 475.632556 232.901087 
L 468.561489 232.901087 
" clip-path="url(#p30c25f9643)" style="fill: #ff0000; fill-opacity: 0.6; stroke: #ff0000; stroke-opacity: 0.6; stroke-width: 1.5"/>
    <path d="M 345.82983 298.324817 
L 338.758762 298.324817 
" clip-path="url(#p30c25f9643)" style="fill: #ff0000; fill-opacity: 0.59; stroke: #ff0000; stroke-opacity: 0.59; stroke-width: 1.5"/>
    <path d="M 300.140584 321.353307 
L 293.069516 321.353307 
" clip-path="url(#p30c25f9643)" style="fill: #ff0000; fill-opacity: 0.64; stroke: #ff0000; stroke-opacity: 0.64; stroke-width: 1.5"/>
    <path d="M 442.084521 249.810112 
L 435.013454 249.810112 
" clip-path="url(#p30c25f9643)" style="fill: #ff0000; fill-opacity: 0.44; stroke: #ff0000; stroke-opacity: 0.44; stroke-width: 1.5"/>
    <path d="M 237.28646 353.033314 
L 230.215392 353.033314 
" clip-path="url(#p30c25f9643)" style="fill: #ff0000; fill-opacity: 0.71; stroke: #ff0000; stroke-opacity: 0.71; stroke-width: 1.5"/>
    <path d="M 612.562798 163.884917 
L 605.49173 163.884917 
" clip-path="url(#p30c25f9643)" style="fill: #ff0000; fill-opacity: 0.31; stroke: #ff0000; stroke-opacity: 0.31; stroke-width: 1.5"/>
    <path d="M 278.433264 332.294324 
L 271.362196 332.294324 
" clip-path="url(#p30c25f9643)" style="fill: #ff0000; fill-opacity: 0.6; stroke: #ff0000; stroke-opacity: 0.6; stroke-width: 1.5"/>
    <path d="M 408.527905 266.723462 
L 401.456838 266.723462 
" clip-path="url(#p30c25f9643)" style="fill: #ff0000; fill-opacity: 0.5; stroke: #ff0000; stroke-opacity: 0.5; stroke-width: 1.5"/>
    <path d="M 241.472668 350.923363 
L 234.4016 350.923363 
" clip-path="url(#p30c25f9643)" style="fill: #ff0000; fill-opacity: 0.67; stroke: #ff0000; stroke-opacity: 0.67; stroke-width: 1.5"/>
    <path d="M 504.936899 218.130986 
L 497.865831 218.130986 
" clip-path="url(#p30c25f9643)" style="fill: #ff0000; fill-opacity: 0.58; stroke: #ff0000; stroke-opacity: 0.58; stroke-width: 1.5"/>
    <path d="M 275.023245 334.013057 
L 267.952177 334.013057 
" clip-path="url(#p30c25f9643)" style="fill: #ff0000; fill-opacity: 0.66; stroke: #ff0000; stroke-opacity: 0.66; stroke-width: 1.5"/>
    <path d="M 396.272133 272.90067 
L 389.201065 272.90067 
" clip-path="url(#p30c25f9643)" style="fill: #ff0000; fill-opacity: 0.56; stroke: #ff0000; stroke-opacity: 0.56; stroke-width: 1.5"/>
    <path d="M 320.692952 310.994414 
L 313.621884 310.994414 
" clip-path="url(#p30c25f9643)" style="fill: #ff0000; fill-opacity: 0.57; stroke: #ff0000; stroke-opacity: 0.57; stroke-width: 1.5"/>
    <path d="M 232.8316 355.278671 
L 225.760532 355.278671 
" clip-path="url(#p30c25f9643)" style="fill: #ff0000; fill-opacity: 0.73; stroke: #ff0000; stroke-opacity: 0.73; stroke-width: 1.5"/>
    <path d="M 370.748605 285.765148 
L 363.677537 285.765148 
" clip-path="url(#p30c25f9643)" style="fill: #ff0000; fill-opacity: 0.56; stroke: #ff0000; stroke-opacity: 0.56; stroke-width: 1.5"/>
    <path d="M 358.923469 291.725304 
L 351.852401 291.725304 
" clip-path="url(#p30c25f9643)" style="fill: #ff0000; fill-opacity: 0.5; stroke: #ff0000; stroke-opacity: 0.5; stroke-width: 1.5"/>
    <path d="M 316.661839 313.026193 
L 309.590771 313.026193 
" clip-path="url(#p30c25f9643)" style="fill: #ff0000; fill-opacity: 0.68; stroke: #ff0000; stroke-opacity: 0.68; stroke-width: 1.5"/>
    <path d="M 488.191999 226.570823 
L 481.120931 226.570823 
" clip-path="url(#p30c25f9643)" style="fill: #ff0000; fill-opacity: 0.63; stroke: #ff0000; stroke-opacity: 0.63; stroke-width: 1.5"/>
    <path d="M 229.067387 357.175927 
L 221.996319 357.175927 
" clip-path="url(#p30c25f9643)" style="fill: #ff0000; fill-opacity: 0.79; stroke: #ff0000; stroke-opacity: 0.79; stroke-width: 1.5"/>
    <path d="M 245.518498 348.884167 
L 238.44743 348.884167 
" clip-path="url(#p30c25f9643)" style="fill: #ff0000; fill-opacity: 0.55; stroke: #ff0000; stroke-opacity: 0.55; stroke-width: 1.5"/>
    <path d="M 362.175136 290.086385 
L 355.104068 290.086385 
" clip-path="url(#p30c25f9643)" style="fill: #ff0000; fill-opacity: 0.51; stroke: #ff0000; stroke-opacity: 0.51; stroke-width: 1.5"/>
    <path d="M 450.207306 245.716031 
L 443.136238 245.716031 
" clip-path="url(#p30c25f9643)" style="fill: #ff0000; fill-opacity: 0.5; stroke: #ff0000; stroke-opacity: 0.5; stroke-width: 1.5"/>
    <path d="M 203.769192 369.926832 
L 196.698124 369.926832 
" clip-path="url(#p30c25f9643)" style="fill: #ff0000; fill-opacity: 0.8; stroke: #ff0000; stroke-opacity: 0.8; stroke-width: 1.5"/>
    <path d="M 435.105092 253.327914 
L 428.034025 253.327914 
" clip-path="url(#p30c25f9643)" style="fill: #ff0000; fill-opacity: 0.5; stroke: #ff0000; stroke-opacity: 0.5; stroke-width: 1.5"/>
    <path d="M 377.979616 282.120543 
L 370.908549 282.120543 
" clip-path="url(#p30c25f9643)" style="fill: #ff0000; fill-opacity: 0.46; stroke: #ff0000; stroke-opacity: 0.46; stroke-width: 1.5"/>
    <path d="M 195.611107 374.038705 
L 188.540039 374.038705 
" clip-path="url(#p30c25f9643)" style="fill: #ff0000; fill-opacity: 0.68; stroke: #ff0000; stroke-opacity: 0.68; stroke-width: 1.5"/>
    <path d="M 495.90043 222.685586 
L 488.829363 222.685586 
" clip-path="url(#p30c25f9643)" style="fill: #ff0000; fill-opacity: 0.54; stroke: #ff0000; stroke-opacity: 0.54; stroke-width: 1.5"/>
    <path d="M 392.316436 274.894437 
L 385.245368 274.894437 
" clip-path="url(#p30c25f9643)" style="fill: #ff0000; fill-opacity: 0.53; stroke: #ff0000; stroke-opacity: 0.53; stroke-width: 1.5"/>
    <path d="M 325.282636 308.681102 
L 318.211568 308.681102 
" clip-path="url(#p30c25f9643)" style="fill: #ff0000; fill-opacity: 0.61; stroke: #ff0000; stroke-opacity: 0.61; stroke-width: 1.5"/>
    <path d="M 563.522094 188.602624 
L 556.451026 188.602624 
" clip-path="url(#p30c25f9643)" style="fill: #ff0000; fill-opacity: 0.54; stroke: #ff0000; stroke-opacity: 0.54; stroke-width: 1.5"/>
    <path d="M 375.16273 283.540322 
L 368.091662 283.540322 
" clip-path="url(#p30c25f9643)" style="fill: #ff0000; fill-opacity: 0.5; stroke: #ff0000; stroke-opacity: 0.5; stroke-width: 1.5"/>
    <path d="M 529.744331 205.627437 
L 522.673263 205.627437 
" clip-path="url(#p30c25f9643)" style="fill: #ff0000; fill-opacity: 0.6; stroke: #ff0000; stroke-opacity: 0.6; stroke-width: 1.5"/>
    <path d="M 283.326858 329.827834 
L 276.25579 329.827834 
" clip-path="url(#p30c25f9643)" style="fill: #ff0000; fill-opacity: 0.57; stroke: #ff0000; stroke-opacity: 0.57; stroke-width: 1.5"/>
    <path d="M 500.374675 220.430458 
L 493.303607 220.430458 
" clip-path="url(#p30c25f9643)" style="fill: #ff0000; fill-opacity: 0.61; stroke: #ff0000; stroke-opacity: 0.61; stroke-width: 1.5"/>
    <path d="M 387.532484 277.305665 
L 380.461416 277.305665 
" clip-path="url(#p30c25f9643)" style="fill: #ff0000; fill-opacity: 0.5; stroke: #ff0000; stroke-opacity: 0.5; stroke-width: 1.5"/>
    <path d="M 404.138859 268.935649 
L 397.067791 268.935649 
" clip-path="url(#p30c25f9643)" style="fill: #ff0000; fill-opacity: 0.63; stroke: #ff0000; stroke-opacity: 0.63; stroke-width: 1.5"/>
    <path d="M 249.503719 346.875518 
L 242.432651 346.875518 
" clip-path="url(#p30c25f9643)" style="fill: #ff0000; fill-opacity: 0.72; stroke: #ff0000; stroke-opacity: 0.72; stroke-width: 1.5"/>
    <path d="M 349.670271 296.389141 
L 342.599203 296.389141 
" clip-path="url(#p30c25f9643)" style="fill: #ff0000; fill-opacity: 0.53; stroke: #ff0000; stroke-opacity: 0.53; stroke-width: 1.5"/>
    <path d="M 270.742657 336.170577 
L 263.671589 336.170577 
" clip-path="url(#p30c25f9643)" style="fill: #ff0000; fill-opacity: 0.66; stroke: #ff0000; stroke-opacity: 0.66; stroke-width: 1.5"/>
    <path d="M 492.231455 224.534838 
L 485.160388 224.534838 
" clip-path="url(#p30c25f9643)" style="fill: #ff0000; fill-opacity: 0.56; stroke: #ff0000; stroke-opacity: 0.56; stroke-width: 1.5"/>
    <path d="M 207.668295 367.961589 
L 200.597227 367.961589 
" clip-path="url(#p30c25f9643)" style="fill: #ff0000; fill-opacity: 0.77; stroke: #ff0000; stroke-opacity: 0.77; stroke-width: 1.5"/>
    <path d="M 351.819324 295.305966 
L 344.748256 295.305966 
" clip-path="url(#p30c25f9643)" style="fill: #ff0000; fill-opacity: 0.36; stroke: #ff0000; stroke-opacity: 0.36; stroke-width: 1.5"/>
    <path d="M 186.907239 378.425666 
L 179.836171 378.425666 
" clip-path="url(#p30c25f9643)" style="fill: #ff0000; fill-opacity: 0.58; stroke: #ff0000; stroke-opacity: 0.58; stroke-width: 1.5"/>
    <path d="M 329.102666 306.755714 
L 322.031599 306.755714 
" clip-path="url(#p30c25f9643)" style="fill: #ff0000; fill-opacity: 0.63; stroke: #ff0000; stroke-opacity: 0.63; stroke-width: 1.5"/>
    <path d="M 153.968788 395.027446 
L 146.89772 395.027446 
" clip-path="url(#p30c25f9643)" style="fill: #ff0000; fill-opacity: 0.37; stroke: #ff0000; stroke-opacity: 0.37; stroke-width: 1.5"/>
    <path d="M 464.013914 238.757165 
L 456.942846 238.757165 
" clip-path="url(#p30c25f9643)" style="fill: #ff0000; fill-opacity: 0.45; stroke: #ff0000; stroke-opacity: 0.45; stroke-width: 1.5"/>
    <path d="M 291.535002 325.69073 
L 284.463934 325.69073 
" clip-path="url(#p30c25f9643)" style="fill: #ff0000; fill-opacity: 0.72; stroke: #ff0000; stroke-opacity: 0.72; stroke-width: 1.5"/>
    <path d="M 425.212528 258.314007 
L 418.14146 258.314007 
" clip-path="url(#p30c25f9643)" style="fill: #ff0000; fill-opacity: 0.54; stroke: #ff0000; stroke-opacity: 0.54; stroke-width: 1.5"/>
    <path d="M 538.30346 201.313428 
L 531.232392 201.313428 
" clip-path="url(#p30c25f9643)" style="fill: #ff0000; fill-opacity: 0.58; stroke: #ff0000; stroke-opacity: 0.58; stroke-width: 1.5"/>
    <path d="M 220.56219 361.462753 
L 213.491122 361.462753 
" clip-path="url(#p30c25f9643)" style="fill: #ff0000; fill-opacity: 0.75; stroke: #ff0000; stroke-opacity: 0.75; stroke-width: 1.5"/>
    <path d="M 467.347448 237.076983 
L 460.27638 237.076983 
" clip-path="url(#p30c25f9643)" style="fill: #ff0000; fill-opacity: 0.63; stroke: #ff0000; stroke-opacity: 0.63; stroke-width: 1.5"/>
    <path d="M 509.104882 216.030221 
L 502.033814 216.030221 
" clip-path="url(#p30c25f9643)" style="fill: #ff0000; fill-opacity: 0.6; stroke: #ff0000; stroke-opacity: 0.6; stroke-width: 1.5"/>
    <path d="M 191.336759 376.19308 
L 184.265691 376.19308 
" clip-path="url(#p30c25f9643)" style="fill: #ff0000; fill-opacity: 0.6; stroke: #ff0000; stroke-opacity: 0.6; stroke-width: 1.5"/>
    <path d="M 470.648584 235.41313 
L 463.577516 235.41313 
" clip-path="url(#p30c25f9643)" style="fill: #ff0000; fill-opacity: 0.47; stroke: #ff0000; stroke-opacity: 0.47; stroke-width: 1.5"/>
    <path d="M 312.654502 315.045989 
L 305.583434 315.045989 
" clip-path="url(#p30c25f9643)" style="fill: #ff0000; fill-opacity: 0.56; stroke: #ff0000; stroke-opacity: 0.56; stroke-width: 1.5"/>
    <path d="M 458.867529 241.351068 
L 451.796461 241.351068 
" clip-path="url(#p30c25f9643)" style="fill: #ff0000; fill-opacity: 0.58; stroke: #ff0000; stroke-opacity: 0.58; stroke-width: 1.5"/>
    <path d="M 162.193922 390.881778 
L 155.122854 390.881778 
" clip-path="url(#p30c25f9643)" style="fill: #ff0000; fill-opacity: 0.39; stroke: #ff0000; stroke-opacity: 0.39; stroke-width: 1.5"/>
    <path d="M 182.16606 380.815335 
L 175.094992 380.815335 
" clip-path="url(#p30c25f9643)" style="fill: #ff0000; fill-opacity: 0.43; stroke: #ff0000; stroke-opacity: 0.43; stroke-width: 1.5"/>
    <path d="M 516.462834 212.321634 
L 509.391767 212.321634 
" clip-path="url(#p30c25f9643)" style="fill: #ff0000; fill-opacity: 0.51; stroke: #ff0000; stroke-opacity: 0.51; stroke-width: 1.5"/>
    <path d="M 178.500079 382.663079 
L 171.429011 382.663079 
" clip-path="url(#p30c25f9643)" style="fill: #ff0000; fill-opacity: 0.59; stroke: #ff0000; stroke-opacity: 0.59; stroke-width: 1.5"/>
    <path d="M 199.352754 372.152824 
L 192.281686 372.152824 
" clip-path="url(#p30c25f9643)" style="fill: #ff0000; fill-opacity: 0.62; stroke: #ff0000; stroke-opacity: 0.62; stroke-width: 1.5"/>
    <path d="M 429.608971 256.098093 
L 422.537903 256.098093 
" clip-path="url(#p30c25f9643)" style="fill: #ff0000; fill-opacity: 0.6; stroke: #ff0000; stroke-opacity: 0.6; stroke-width: 1.5"/>
    <path d="M 420.99311 260.440696 
L 413.922043 260.440696 
" clip-path="url(#p30c25f9643)" style="fill: #ff0000; fill-opacity: 0.64; stroke: #ff0000; stroke-opacity: 0.64; stroke-width: 1.5"/>
    <path d="M 265.839957 338.641657 
L 258.768889 338.641657 
" clip-path="url(#p30c25f9643)" style="fill: #ff0000; fill-opacity: 0.6; stroke: #ff0000; stroke-opacity: 0.6; stroke-width: 1.5"/>
    <path d="M 555.218893 192.787639 
L 548.147825 192.787639 
" clip-path="url(#p30c25f9643)" style="fill: #ff0000; fill-opacity: 0.56; stroke: #ff0000; stroke-opacity: 0.56; stroke-width: 1.5"/>
    <path d="M 166.149894 388.887872 
L 159.078826 388.887872 
" clip-path="url(#p30c25f9643)" style="fill: #ff0000; fill-opacity: 0.43; stroke: #ff0000; stroke-opacity: 0.43; stroke-width: 1.5"/>
    <path d="M 512.989334 214.072363 
L 505.918266 214.072363 
" clip-path="url(#p30c25f9643)" style="fill: #ff0000; fill-opacity: 0.62; stroke: #ff0000; stroke-opacity: 0.62; stroke-width: 1.5"/>
    <path d="M 254.316927 344.449544 
L 247.245859 344.449544 
" clip-path="url(#p30c25f9643)" style="fill: #ff0000; fill-opacity: 0.67; stroke: #ff0000; stroke-opacity: 0.67; stroke-width: 1.5"/>
    <path d="M 483.638417 228.865938 
L 476.56735 228.865938 
" clip-path="url(#p30c25f9643)" style="fill: #ff0000; fill-opacity: 0.59; stroke: #ff0000; stroke-opacity: 0.59; stroke-width: 1.5"/>
    <path d="M 304.127375 319.343868 
L 297.056307 319.343868 
" clip-path="url(#p30c25f9643)" style="fill: #ff0000; fill-opacity: 0.64; stroke: #ff0000; stroke-opacity: 0.64; stroke-width: 1.5"/>
    <path d="M 383.43656 279.370111 
L 376.365492 279.370111 
" clip-path="url(#p30c25f9643)" style="fill: #ff0000; fill-opacity: 0.49; stroke: #ff0000; stroke-opacity: 0.49; stroke-width: 1.5"/>
    <path d="M 354.179656 294.116301 
L 347.108589 294.116301 
" clip-path="url(#p30c25f9643)" style="fill: #ff0000; fill-opacity: 0.59; stroke: #ff0000; stroke-opacity: 0.59; stroke-width: 1.5"/>
    <path d="M 294.476682 324.208051 
L 287.405614 324.208051 
" clip-path="url(#p30c25f9643)" style="fill: #ff0000; fill-opacity: 0.49; stroke: #ff0000; stroke-opacity: 0.49; stroke-width: 1.5"/>
    <path d="M 184.232123 379.773989 
L 177.161055 379.773989 
" clip-path="url(#p30c25f9643)" style="fill: #ff0000; fill-opacity: 0.34; stroke: #ff0000; stroke-opacity: 0.34; stroke-width: 1.5"/>
    <path d="M 518.836082 211.12546 
L 511.765015 211.12546 
" clip-path="url(#p30c25f9643)" style="fill: #ff0000; fill-opacity: 0.39; stroke: #ff0000; stroke-opacity: 0.39; stroke-width: 1.5"/>
    <path d="M 149.704391 397.176806 
L 142.633323 397.176806 
" clip-path="url(#p30c25f9643)" style="fill: #ff0000; fill-opacity: 0.35; stroke: #ff0000; stroke-opacity: 0.35; stroke-width: 1.5"/>
    <path d="M 170.308108 386.792031 
L 163.237041 386.792031 
" clip-path="url(#p30c25f9643)" style="fill: #ff0000; fill-opacity: 0.5; stroke: #ff0000; stroke-opacity: 0.5; stroke-width: 1.5"/>
    <path d="M 446.226936 247.722235 
L 439.155868 247.722235 
" clip-path="url(#p30c25f9643)" style="fill: #ff0000; fill-opacity: 0.59; stroke: #ff0000; stroke-opacity: 0.59; stroke-width: 1.5"/>
    <path d="M 144.404519 399.84807 
L 137.333451 399.84807 
" clip-path="url(#p30c25f9643)" style="fill: #ff0000; fill-opacity: 0.37; stroke: #ff0000; stroke-opacity: 0.37; stroke-width: 1.5"/>
    <path d="M 400.27246 270.884407 
L 393.201392 270.884407 
" clip-path="url(#p30c25f9643)" style="fill: #ff0000; fill-opacity: 0.49; stroke: #ff0000; stroke-opacity: 0.49; stroke-width: 1.5"/>
    <path d="M 333.035632 304.773403 
L 325.964564 304.773403 
" clip-path="url(#p30c25f9643)" style="fill: #ff0000; fill-opacity: 0.53; stroke: #ff0000; stroke-opacity: 0.53; stroke-width: 1.5"/>
    <path d="M 175.018428 384.417915 
L 167.947361 384.417915 
" clip-path="url(#p30c25f9643)" style="fill: #ff0000; fill-opacity: 0.47; stroke: #ff0000; stroke-opacity: 0.47; stroke-width: 1.5"/>
    <path d="M 412.478331 264.732352 
L 405.407263 264.732352 
" clip-path="url(#p30c25f9643)" style="fill: #ff0000; fill-opacity: 0.48; stroke: #ff0000; stroke-opacity: 0.48; stroke-width: 1.5"/>
    <path d="M 525.467257 207.783187 
L 518.396189 207.783187 
" clip-path="url(#p30c25f9643)" style="fill: #ff0000; fill-opacity: 0.52; stroke: #ff0000; stroke-opacity: 0.52; stroke-width: 1.5"/>
    <path d="M 575.540247 182.545182 
L 568.469179 182.545182 
" clip-path="url(#p30c25f9643)" style="fill: #ff0000; fill-opacity: 0.44; stroke: #ff0000; stroke-opacity: 0.44; stroke-width: 1.5"/>
    <path d="M 550.305838 195.263938 
L 543.23477 195.263938 
" clip-path="url(#p30c25f9643)" style="fill: #ff0000; fill-opacity: 0.65; stroke: #ff0000; stroke-opacity: 0.65; stroke-width: 1.5"/>
    <path d="M 406.598852 267.695752 
L 399.527784 267.695752 
" clip-path="url(#p30c25f9643)" style="fill: #ff0000; fill-opacity: 0.34; stroke: #ff0000; stroke-opacity: 0.34; stroke-width: 1.5"/>
    <path d="M 587.930245 176.300322 
L 580.859177 176.300322 
" clip-path="url(#p30c25f9643)" style="fill: #ff0000; fill-opacity: 0.49; stroke: #ff0000; stroke-opacity: 0.49; stroke-width: 1.5"/>
    <path d="M 158.157809 392.916077 
L 151.086741 392.916077 
" clip-path="url(#p30c25f9643)" style="fill: #ff0000; fill-opacity: 0.47; stroke: #ff0000; stroke-opacity: 0.47; stroke-width: 1.5"/>
    <path d="M 490.239658 225.538753 
L 483.16859 225.538753 
" clip-path="url(#p30c25f9643)" style="fill: #ff0000; fill-opacity: 0.32; stroke: #ff0000; stroke-opacity: 0.32; stroke-width: 1.5"/>
    <path d="M 545.615294 197.628086 
L 538.544226 197.628086 
" clip-path="url(#p30c25f9643)" style="fill: #ff0000; fill-opacity: 0.41; stroke: #ff0000; stroke-opacity: 0.41; stroke-width: 1.5"/>
    <path d="M 132.203255 405.997804 
L 125.132187 405.997804 
" clip-path="url(#p30c25f9643)" style="fill: #ff0000; fill-opacity: 0.32; stroke: #ff0000; stroke-opacity: 0.32; stroke-width: 1.5"/>
    <path d="M 432.93691 254.420731 
L 425.865842 254.420731 
" clip-path="url(#p30c25f9643)" style="fill: #ff0000; fill-opacity: 0.43; stroke: #ff0000; stroke-opacity: 0.43; stroke-width: 1.5"/>
    <path d="M 559.075037 190.844048 
L 552.003969 190.844048 
" clip-path="url(#p30c25f9643)" style="fill: #ff0000; fill-opacity: 0.53; stroke: #ff0000; stroke-opacity: 0.53; stroke-width: 1.5"/>
    <path d="M 542.481833 199.207427 
L 535.410765 199.207427 
" clip-path="url(#p30c25f9643)" style="fill: #ff0000; fill-opacity: 0.55; stroke: #ff0000; stroke-opacity: 0.55; stroke-width: 1.5"/>
    <path d="M 547.431888 196.712478 
L 540.36082 196.712478 
" clip-path="url(#p30c25f9643)" style="fill: #ff0000; fill-opacity: 0.42; stroke: #ff0000; stroke-opacity: 0.42; stroke-width: 1.5"/>
    <path d="M 584.36066 178.09948 
L 577.289592 178.09948 
" clip-path="url(#p30c25f9643)" style="fill: #ff0000; fill-opacity: 0.4; stroke: #ff0000; stroke-opacity: 0.4; stroke-width: 1.5"/>
    <path d="M 571.578933 184.541781 
L 564.507865 184.541781 
" clip-path="url(#p30c25f9643)" style="fill: #ff0000; fill-opacity: 0.48; stroke: #ff0000; stroke-opacity: 0.48; stroke-width: 1.5"/>
    <path d="M 592.441749 174.026414 
L 585.370681 174.026414 
" clip-path="url(#p30c25f9643)" style="fill: #ff0000; fill-opacity: 0.45; stroke: #ff0000; stroke-opacity: 0.45; stroke-width: 1.5"/>
    <path d="M 602.390726 169.011888 
L 595.319659 169.011888 
" clip-path="url(#p30c25f9643)" style="fill: #ff0000; fill-opacity: 0.32; stroke: #ff0000; stroke-opacity: 0.32; stroke-width: 1.5"/>
    <path d="M 617.496366 161.398279 
L 610.425298 161.398279 
" clip-path="url(#p30c25f9643)" style="fill: #ff0000; fill-opacity: 0.32; stroke: #ff0000; stroke-opacity: 0.32; stroke-width: 1.5"/>
    <path d="M 566.964902 186.867365 
L 559.893834 186.867365 
" clip-path="url(#p30c25f9643)" style="fill: #ff0000; fill-opacity: 0.48; stroke: #ff0000; stroke-opacity: 0.48; stroke-width: 1.5"/>
    <path d="M 597.252465 171.601697 
L 590.181397 171.601697 
" clip-path="url(#p30c25f9643)" style="fill: #ff0000; fill-opacity: 0.42; stroke: #ff0000; stroke-opacity: 0.42; stroke-width: 1.5"/>
    <path d="M 579.81554 180.390331 
L 572.744472 180.390331 
" clip-path="url(#p30c25f9643)" style="fill: #ff0000; fill-opacity: 0.36; stroke: #ff0000; stroke-opacity: 0.36; stroke-width: 1.5"/>
    <path d="M 644.750059 147.661754 
L 637.678991 147.661754 
" clip-path="url(#p30c25f9643)" style="fill: #ff0000; fill-opacity: 0.31; stroke: #ff0000; stroke-opacity: 0.31; stroke-width: 1.5"/>
    <path d="M 239.426833 351.954514 
L 232.355766 351.954514 
" clip-path="url(#p30c25f9643)" style="fill: #ff0000; fill-opacity: 0.32; stroke: #ff0000; stroke-opacity: 0.32; stroke-width: 1.5"/>
    <path d="M 623.492795 158.375933 
L 616.421727 158.375933 
" clip-path="url(#p30c25f9643)" style="fill: #ff0000; fill-opacity: 0.31; stroke: #ff0000; stroke-opacity: 0.31; stroke-width: 1.5"/>
    <path d="M 633.867327 153.146916 
L 626.796259 153.146916 
" clip-path="url(#p30c25f9643)" style="fill: #ff0000; fill-opacity: 0.31; stroke: #ff0000; stroke-opacity: 0.31; stroke-width: 1.5"/>
    <path d="M 141.094515 401.516392 
L 134.023447 401.516392 
" clip-path="url(#p30c25f9643)" style="fill: #ff0000; fill-opacity: 0.33; stroke: #ff0000; stroke-opacity: 0.33; stroke-width: 1.5"/>
    <path d="M 669.090149 135.393757 
L 662.019082 135.393757 
" clip-path="url(#p30c25f9643)" style="fill: #ff0000; fill-opacity: 0.31; stroke: #ff0000; stroke-opacity: 0.31; stroke-width: 1.5"/>
    <path d="M 631.276741 154.452635 
L 624.205673 154.452635 
" clip-path="url(#p30c25f9643)" style="fill: #ff0000; fill-opacity: 0.32; stroke: #ff0000; stroke-opacity: 0.32; stroke-width: 1.5"/>
    <path d="M 652.142215 143.935928 
L 645.071147 143.935928 
" clip-path="url(#p30c25f9643)" style="fill: #ff0000; fill-opacity: 0.31; stroke: #ff0000; stroke-opacity: 0.31; stroke-width: 1.5"/>
    <path d="M 606.191459 167.096226 
L 599.120391 167.096226 
" clip-path="url(#p30c25f9643)" style="fill: #ff0000; fill-opacity: 0.33; stroke: #ff0000; stroke-opacity: 0.33; stroke-width: 1.5"/>
    <path d="M 626.360232 156.930674 
L 619.289164 156.930674 
" clip-path="url(#p30c25f9643)" style="fill: #ff0000; fill-opacity: 0.32; stroke: #ff0000; stroke-opacity: 0.32; stroke-width: 1.5"/>
    <path d="M 609.26164 165.54878 
L 602.190572 165.54878 
" clip-path="url(#p30c25f9643)" style="fill: #ff0000; fill-opacity: 0.34; stroke: #ff0000; stroke-opacity: 0.34; stroke-width: 1.5"/>
    <path d="M 661.616865 139.160474 
L 654.545797 139.160474 
" clip-path="url(#p30c25f9643)" style="fill: #ff0000; fill-opacity: 0.31; stroke: #ff0000; stroke-opacity: 0.31; stroke-width: 1.5"/>
    <path d="M 646.662961 146.697606 
L 639.591893 146.697606 
" clip-path="url(#p30c25f9643)" style="fill: #ff0000; fill-opacity: 0.31; stroke: #ff0000; stroke-opacity: 0.31; stroke-width: 1.5"/>
    <path d="M 659.011076 140.473855 
L 651.940008 140.473855 
" clip-path="url(#p30c25f9643)" style="fill: #ff0000; fill-opacity: 0.31; stroke: #ff0000; stroke-opacity: 0.31; stroke-width: 1.5"/>
    <path d="M 155.704898 394.152404 
L 148.633831 394.152404 
" clip-path="url(#p30c25f9643)" style="fill: #ff0000; fill-opacity: 0.31; stroke: #ff0000; stroke-opacity: 0.31; stroke-width: 1.5"/>
    <path d="M 323.015162 309.823964 
L 315.944094 309.823964 
" clip-path="url(#p30c25f9643)" style="fill: #ff0000; fill-opacity: 0.31; stroke: #ff0000; stroke-opacity: 0.31; stroke-width: 1.5"/>
   </g>
   <g id="PathCollection_2">
    <defs>
     <path id="mb4bc0d1883" d="M 0 5.59017 
C 1.48253 5.59017 2.90454 5.001154 3.952847 3.952847 
C 5.001154 2.90454 5.59017 1.48253 5.59017 0 
C 5.59017 -1.48253 5.001154 -2.90454 3.952847 -3.952847 
C 2.90454 -5.001154 1.48253 -5.59017 0 -5.59017 
C -1.48253 -5.59017 -2.90454 -5.001154 -3.952847 -3.952847 
C -5.001154 -2.90454 -5.59017 -1.48253 -5.59017 0 
C -5.59017 1.48253 -5.001154 2.90454 -3.952847 3.952847 
C -2.90454 5.001154 -1.48253 5.59017 0 5.59017 
z
" style="stroke: #ff0000; stroke-opacity: 0.6"/>
    </defs>
    <g clip-path="url(#p30c25f9643)">
     <use xlink:href="#mb4bc0d1883" x="357.065045" y="290.88" style="fill: #ff0000; fill-opacity: 0.6; stroke: #ff0000; stroke-opacity: 0.6"/>
    </g>
   </g>
   <g id="matplotlib.axis_1">
    <g id="xtick_1">
     <g id="line2d_1">
      <defs>
       <path id="m4990ce7571" d="M 0 0 
L 0 3.5 
" style="stroke: #000000; stroke-width: 0.8"/>
      </defs>
      <g>
       <use xlink:href="#m4990ce7571" x="110.588956" y="512.64" style="stroke: #000000; stroke-width: 0.8"/>
      </g>
     </g>
     <g id="text_1">
      <!-- 192.5 -->
      <g transform="translate(96.274893 527.238438) scale(0.1 -0.1)">
       <defs>
        <path id="DejaVuSans-31" d="M 794 531 
L 1825 531 
L 1825 4091 
L 703 3866 
L 703 4441 
L 1819 4666 
L 2450 4666 
L 2450 531 
L 3481 531 
L 3481 0 
L 794 0 
L 794 531 
z
" transform="scale(0.015625)"/>
        <path id="DejaVuSans-39" d="M 703 97 
L 703 672 
Q 941 559 1184 500 
Q 1428 441 1663 441 
Q 2288 441 2617 861 
Q 2947 1281 2994 2138 
Q 2813 1869 2534 1725 
Q 2256 1581 1919 1581 
Q 1219 1581 811 2004 
Q 403 2428 403 3163 
Q 403 3881 828 4315 
Q 1253 4750 1959 4750 
Q 2769 4750 3195 4129 
Q 3622 3509 3622 2328 
Q 3622 1225 3098 567 
Q 2575 -91 1691 -91 
Q 1453 -91 1209 -44 
Q 966 3 703 97 
z
M 1959 2075 
Q 2384 2075 2632 2365 
Q 2881 2656 2881 3163 
Q 2881 3666 2632 3958 
Q 2384 4250 1959 4250 
Q 1534 4250 1286 3958 
Q 1038 3666 1038 3163 
Q 1038 2656 1286 2365 
Q 1534 2075 1959 2075 
z
" transform="scale(0.015625)"/>
        <path id="DejaVuSans-32" d="M 1228 531 
L 3431 531 
L 3431 0 
L 469 0 
L 469 531 
Q 828 903 1448 1529 
Q 2069 2156 2228 2338 
Q 2531 2678 2651 2914 
Q 2772 3150 2772 3378 
Q 2772 3750 2511 3984 
Q 2250 4219 1831 4219 
Q 1534 4219 1204 4116 
Q 875 4013 500 3803 
L 500 4441 
Q 881 4594 1212 4672 
Q 1544 4750 1819 4750 
Q 2544 4750 2975 4387 
Q 3406 4025 3406 3419 
Q 3406 3131 3298 2873 
Q 3191 2616 2906 2266 
Q 2828 2175 2409 1742 
Q 1991 1309 1228 531 
z
" transform="scale(0.015625)"/>
        <path id="DejaVuSans-2e" d="M 684 794 
L 1344 794 
L 1344 0 
L 684 0 
L 684 794 
z
" transform="scale(0.015625)"/>
        <path id="DejaVuSans-35" d="M 691 4666 
L 3169 4666 
L 3169 4134 
L 1269 4134 
L 1269 2991 
Q 1406 3038 1543 3061 
Q 1681 3084 1819 3084 
Q 2600 3084 3056 2656 
Q 3513 2228 3513 1497 
Q 3513 744 3044 326 
Q 2575 -91 1722 -91 
Q 1428 -91 1123 -41 
Q 819 9 494 109 
L 494 744 
Q 775 591 1075 516 
Q 1375 441 1709 441 
Q 2250 441 2565 725 
Q 2881 1009 2881 1497 
Q 2881 1984 2565 2268 
Q 2250 2553 1709 2553 
Q 1456 2553 1204 2497 
Q 953 2441 691 2322 
L 691 4666 
z
" transform="scale(0.015625)"/>
       </defs>
       <use xlink:href="#DejaVuSans-31"/>
       <use xlink:href="#DejaVuSans-39" x="63.623047"/>
       <use xlink:href="#DejaVuSans-32" x="127.246094"/>
       <use xlink:href="#DejaVuSans-2e" x="190.869141"/>
       <use xlink:href="#DejaVuSans-35" x="222.65625"/>
      </g>
     </g>
    </g>
    <g id="xtick_2">
     <g id="line2d_2">
      <g>
       <use xlink:href="#m4990ce7571" x="180.259426" y="512.64" style="stroke: #000000; stroke-width: 0.8"/>
      </g>
     </g>
     <g id="text_2">
      <!-- 195.0 -->
      <g transform="translate(165.945364 527.238438) scale(0.1 -0.1)">
       <defs>
        <path id="DejaVuSans-30" d="M 2034 4250 
Q 1547 4250 1301 3770 
Q 1056 3291 1056 2328 
Q 1056 1369 1301 889 
Q 1547 409 2034 409 
Q 2525 409 2770 889 
Q 3016 1369 3016 2328 
Q 3016 3291 2770 3770 
Q 2525 4250 2034 4250 
z
M 2034 4750 
Q 2819 4750 3233 4129 
Q 3647 3509 3647 2328 
Q 3647 1150 3233 529 
Q 2819 -91 2034 -91 
Q 1250 -91 836 529 
Q 422 1150 422 2328 
Q 422 3509 836 4129 
Q 1250 4750 2034 4750 
z
" transform="scale(0.015625)"/>
       </defs>
       <use xlink:href="#DejaVuSans-31"/>
       <use xlink:href="#DejaVuSans-39" x="63.623047"/>
       <use xlink:href="#DejaVuSans-35" x="127.246094"/>
       <use xlink:href="#DejaVuSans-2e" x="190.869141"/>
       <use xlink:href="#DejaVuSans-30" x="222.65625"/>
      </g>
     </g>
    </g>
    <g id="xtick_3">
     <g id="line2d_3">
      <g>
       <use xlink:href="#m4990ce7571" x="249.929897" y="512.64" style="stroke: #000000; stroke-width: 0.8"/>
      </g>
     </g>
     <g id="text_3">
      <!-- 197.5 -->
      <g transform="translate(235.615834 527.238438) scale(0.1 -0.1)">
       <defs>
        <path id="DejaVuSans-37" d="M 525 4666 
L 3525 4666 
L 3525 4397 
L 1831 0 
L 1172 0 
L 2766 4134 
L 525 4134 
L 525 4666 
z
" transform="scale(0.015625)"/>
       </defs>
       <use xlink:href="#DejaVuSans-31"/>
       <use xlink:href="#DejaVuSans-39" x="63.623047"/>
       <use xlink:href="#DejaVuSans-37" x="127.246094"/>
       <use xlink:href="#DejaVuSans-2e" x="190.869141"/>
       <use xlink:href="#DejaVuSans-35" x="222.65625"/>
      </g>
     </g>
    </g>
    <g id="xtick_4">
     <g id="line2d_4">
      <g>
       <use xlink:href="#m4990ce7571" x="319.600367" y="512.64" style="stroke: #000000; stroke-width: 0.8"/>
      </g>
     </g>
     <g id="text_4">
      <!-- 200.0 -->
      <g transform="translate(305.286305 527.238438) scale(0.1 -0.1)">
       <use xlink:href="#DejaVuSans-32"/>
       <use xlink:href="#DejaVuSans-30" x="63.623047"/>
       <use xlink:href="#DejaVuSans-30" x="127.246094"/>
       <use xlink:href="#DejaVuSans-2e" x="190.869141"/>
       <use xlink:href="#DejaVuSans-30" x="222.65625"/>
      </g>
     </g>
    </g>
    <g id="xtick_5">
     <g id="line2d_5">
      <g>
       <use xlink:href="#m4990ce7571" x="389.270838" y="512.64" style="stroke: #000000; stroke-width: 0.8"/>
      </g>
     </g>
     <g id="text_5">
      <!-- 202.5 -->
      <g transform="translate(374.956775 527.238438) scale(0.1 -0.1)">
       <use xlink:href="#DejaVuSans-32"/>
       <use xlink:href="#DejaVuSans-30" x="63.623047"/>
       <use xlink:href="#DejaVuSans-32" x="127.246094"/>
       <use xlink:href="#DejaVuSans-2e" x="190.869141"/>
       <use xlink:href="#DejaVuSans-35" x="222.65625"/>
      </g>
     </g>
    </g>
    <g id="xtick_6">
     <g id="line2d_6">
      <g>
       <use xlink:href="#m4990ce7571" x="458.941308" y="512.64" style="stroke: #000000; stroke-width: 0.8"/>
      </g>
     </g>
     <g id="text_6">
      <!-- 205.0 -->
      <g transform="translate(444.627246 527.238438) scale(0.1 -0.1)">
       <use xlink:href="#DejaVuSans-32"/>
       <use xlink:href="#DejaVuSans-30" x="63.623047"/>
       <use xlink:href="#DejaVuSans-35" x="127.246094"/>
       <use xlink:href="#DejaVuSans-2e" x="190.869141"/>
       <use xlink:href="#DejaVuSans-30" x="222.65625"/>
      </g>
     </g>
    </g>
    <g id="xtick_7">
     <g id="line2d_7">
      <g>
       <use xlink:href="#m4990ce7571" x="528.611779" y="512.64" style="stroke: #000000; stroke-width: 0.8"/>
      </g>
     </g>
     <g id="text_7">
      <!-- 207.5 -->
      <g transform="translate(514.297716 527.238438) scale(0.1 -0.1)">
       <use xlink:href="#DejaVuSans-32"/>
       <use xlink:href="#DejaVuSans-30" x="63.623047"/>
       <use xlink:href="#DejaVuSans-37" x="127.246094"/>
       <use xlink:href="#DejaVuSans-2e" x="190.869141"/>
       <use xlink:href="#DejaVuSans-35" x="222.65625"/>
      </g>
     </g>
    </g>
    <g id="xtick_8">
     <g id="line2d_8">
      <g>
       <use xlink:href="#m4990ce7571" x="598.282249" y="512.64" style="stroke: #000000; stroke-width: 0.8"/>
      </g>
     </g>
     <g id="text_8">
      <!-- 210.0 -->
      <g transform="translate(583.968187 527.238438) scale(0.1 -0.1)">
       <use xlink:href="#DejaVuSans-32"/>
       <use xlink:href="#DejaVuSans-31" x="63.623047"/>
       <use xlink:href="#DejaVuSans-30" x="127.246094"/>
       <use xlink:href="#DejaVuSans-2e" x="190.869141"/>
       <use xlink:href="#DejaVuSans-30" x="222.65625"/>
      </g>
     </g>
    </g>
    <g id="xtick_9">
     <g id="line2d_9">
      <g>
       <use xlink:href="#m4990ce7571" x="667.95272" y="512.64" style="stroke: #000000; stroke-width: 0.8"/>
      </g>
     </g>
     <g id="text_9">
      <!-- 212.5 -->
      <g transform="translate(653.638657 527.238438) scale(0.1 -0.1)">
       <use xlink:href="#DejaVuSans-32"/>
       <use xlink:href="#DejaVuSans-31" x="63.623047"/>
       <use xlink:href="#DejaVuSans-32" x="127.246094"/>
       <use xlink:href="#DejaVuSans-2e" x="190.869141"/>
       <use xlink:href="#DejaVuSans-35" x="222.65625"/>
      </g>
     </g>
    </g>
    <g id="text_10">
     <!-- Mittelwert zweier Messungen [mm] -->
     <g transform="translate(308.763512 540.916563) scale(0.1 -0.1)">
      <defs>
       <path id="DejaVuSans-4d" d="M 628 4666 
L 1569 4666 
L 2759 1491 
L 3956 4666 
L 4897 4666 
L 4897 0 
L 4281 0 
L 4281 4097 
L 3078 897 
L 2444 897 
L 1241 4097 
L 1241 0 
L 628 0 
L 628 4666 
z
" transform="scale(0.015625)"/>
       <path id="DejaVuSans-69" d="M 603 3500 
L 1178 3500 
L 1178 0 
L 603 0 
L 603 3500 
z
M 603 4863 
L 1178 4863 
L 1178 4134 
L 603 4134 
L 603 4863 
z
" transform="scale(0.015625)"/>
       <path id="DejaVuSans-74" d="M 1172 4494 
L 1172 3500 
L 2356 3500 
L 2356 3053 
L 1172 3053 
L 1172 1153 
Q 1172 725 1289 603 
Q 1406 481 1766 481 
L 2356 481 
L 2356 0 
L 1766 0 
Q 1100 0 847 248 
Q 594 497 594 1153 
L 594 3053 
L 172 3053 
L 172 3500 
L 594 3500 
L 594 4494 
L 1172 4494 
z
" transform="scale(0.015625)"/>
       <path id="DejaVuSans-65" d="M 3597 1894 
L 3597 1613 
L 953 1613 
Q 991 1019 1311 708 
Q 1631 397 2203 397 
Q 2534 397 2845 478 
Q 3156 559 3463 722 
L 3463 178 
Q 3153 47 2828 -22 
Q 2503 -91 2169 -91 
Q 1331 -91 842 396 
Q 353 884 353 1716 
Q 353 2575 817 3079 
Q 1281 3584 2069 3584 
Q 2775 3584 3186 3129 
Q 3597 2675 3597 1894 
z
M 3022 2063 
Q 3016 2534 2758 2815 
Q 2500 3097 2075 3097 
Q 1594 3097 1305 2825 
Q 1016 2553 972 2059 
L 3022 2063 
z
" transform="scale(0.015625)"/>
       <path id="DejaVuSans-6c" d="M 603 4863 
L 1178 4863 
L 1178 0 
L 603 0 
L 603 4863 
z
" transform="scale(0.015625)"/>
       <path id="DejaVuSans-77" d="M 269 3500 
L 844 3500 
L 1563 769 
L 2278 3500 
L 2956 3500 
L 3675 769 
L 4391 3500 
L 4966 3500 
L 4050 0 
L 3372 0 
L 2619 2869 
L 1863 0 
L 1184 0 
L 269 3500 
z
" transform="scale(0.015625)"/>
       <path id="DejaVuSans-72" d="M 2631 2963 
Q 2534 3019 2420 3045 
Q 2306 3072 2169 3072 
Q 1681 3072 1420 2755 
Q 1159 2438 1159 1844 
L 1159 0 
L 581 0 
L 581 3500 
L 1159 3500 
L 1159 2956 
Q 1341 3275 1631 3429 
Q 1922 3584 2338 3584 
Q 2397 3584 2469 3576 
Q 2541 3569 2628 3553 
L 2631 2963 
z
" transform="scale(0.015625)"/>
       <path id="DejaVuSans-20" transform="scale(0.015625)"/>
       <path id="DejaVuSans-7a" d="M 353 3500 
L 3084 3500 
L 3084 2975 
L 922 459 
L 3084 459 
L 3084 0 
L 275 0 
L 275 525 
L 2438 3041 
L 353 3041 
L 353 3500 
z
" transform="scale(0.015625)"/>
       <path id="DejaVuSans-73" d="M 2834 3397 
L 2834 2853 
Q 2591 2978 2328 3040 
Q 2066 3103 1784 3103 
Q 1356 3103 1142 2972 
Q 928 2841 928 2578 
Q 928 2378 1081 2264 
Q 1234 2150 1697 2047 
L 1894 2003 
Q 2506 1872 2764 1633 
Q 3022 1394 3022 966 
Q 3022 478 2636 193 
Q 2250 -91 1575 -91 
Q 1294 -91 989 -36 
Q 684 19 347 128 
L 347 722 
Q 666 556 975 473 
Q 1284 391 1588 391 
Q 1994 391 2212 530 
Q 2431 669 2431 922 
Q 2431 1156 2273 1281 
Q 2116 1406 1581 1522 
L 1381 1569 
Q 847 1681 609 1914 
Q 372 2147 372 2553 
Q 372 3047 722 3315 
Q 1072 3584 1716 3584 
Q 2034 3584 2315 3537 
Q 2597 3491 2834 3397 
z
" transform="scale(0.015625)"/>
       <path id="DejaVuSans-75" d="M 544 1381 
L 544 3500 
L 1119 3500 
L 1119 1403 
Q 1119 906 1312 657 
Q 1506 409 1894 409 
Q 2359 409 2629 706 
Q 2900 1003 2900 1516 
L 2900 3500 
L 3475 3500 
L 3475 0 
L 2900 0 
L 2900 538 
Q 2691 219 2414 64 
Q 2138 -91 1772 -91 
Q 1169 -91 856 284 
Q 544 659 544 1381 
z
M 1991 3584 
L 1991 3584 
z
" transform="scale(0.015625)"/>
       <path id="DejaVuSans-6e" d="M 3513 2113 
L 3513 0 
L 2938 0 
L 2938 2094 
Q 2938 2591 2744 2837 
Q 2550 3084 2163 3084 
Q 1697 3084 1428 2787 
Q 1159 2491 1159 1978 
L 1159 0 
L 581 0 
L 581 3500 
L 1159 3500 
L 1159 2956 
Q 1366 3272 1645 3428 
Q 1925 3584 2291 3584 
Q 2894 3584 3203 3211 
Q 3513 2838 3513 2113 
z
" transform="scale(0.015625)"/>
       <path id="DejaVuSans-67" d="M 2906 1791 
Q 2906 2416 2648 2759 
Q 2391 3103 1925 3103 
Q 1463 3103 1205 2759 
Q 947 2416 947 1791 
Q 947 1169 1205 825 
Q 1463 481 1925 481 
Q 2391 481 2648 825 
Q 2906 1169 2906 1791 
z
M 3481 434 
Q 3481 -459 3084 -895 
Q 2688 -1331 1869 -1331 
Q 1566 -1331 1297 -1286 
Q 1028 -1241 775 -1147 
L 775 -588 
Q 1028 -725 1275 -790 
Q 1522 -856 1778 -856 
Q 2344 -856 2625 -561 
Q 2906 -266 2906 331 
L 2906 616 
Q 2728 306 2450 153 
Q 2172 0 1784 0 
Q 1141 0 747 490 
Q 353 981 353 1791 
Q 353 2603 747 3093 
Q 1141 3584 1784 3584 
Q 2172 3584 2450 3431 
Q 2728 3278 2906 2969 
L 2906 3500 
L 3481 3500 
L 3481 434 
z
" transform="scale(0.015625)"/>
       <path id="DejaVuSans-5b" d="M 550 4863 
L 1875 4863 
L 1875 4416 
L 1125 4416 
L 1125 -397 
L 1875 -397 
L 1875 -844 
L 550 -844 
L 550 4863 
z
" transform="scale(0.015625)"/>
       <path id="DejaVuSans-6d" d="M 3328 2828 
Q 3544 3216 3844 3400 
Q 4144 3584 4550 3584 
Q 5097 3584 5394 3201 
Q 5691 2819 5691 2113 
L 5691 0 
L 5113 0 
L 5113 2094 
Q 5113 2597 4934 2840 
Q 4756 3084 4391 3084 
Q 3944 3084 3684 2787 
Q 3425 2491 3425 1978 
L 3425 0 
L 2847 0 
L 2847 2094 
Q 2847 2600 2669 2842 
Q 2491 3084 2119 3084 
Q 1678 3084 1418 2786 
Q 1159 2488 1159 1978 
L 1159 0 
L 581 0 
L 581 3500 
L 1159 3500 
L 1159 2956 
Q 1356 3278 1631 3431 
Q 1906 3584 2284 3584 
Q 2666 3584 2933 3390 
Q 3200 3197 3328 2828 
z
" transform="scale(0.015625)"/>
       <path id="DejaVuSans-5d" d="M 1947 4863 
L 1947 -844 
L 622 -844 
L 622 -397 
L 1369 -397 
L 1369 4416 
L 622 4416 
L 622 4863 
L 1947 4863 
z
" transform="scale(0.015625)"/>
      </defs>
      <use xlink:href="#DejaVuSans-4d"/>
      <use xlink:href="#DejaVuSans-69" x="86.279297"/>
      <use xlink:href="#DejaVuSans-74" x="114.0625"/>
      <use xlink:href="#DejaVuSans-74" x="153.271484"/>
      <use xlink:href="#DejaVuSans-65" x="192.480469"/>
      <use xlink:href="#DejaVuSans-6c" x="254.003906"/>
      <use xlink:href="#DejaVuSans-77" x="281.787109"/>
      <use xlink:href="#DejaVuSans-65" x="363.574219"/>
      <use xlink:href="#DejaVuSans-72" x="425.097656"/>
      <use xlink:href="#DejaVuSans-74" x="466.210938"/>
      <use xlink:href="#DejaVuSans-20" x="505.419922"/>
      <use xlink:href="#DejaVuSans-7a" x="537.207031"/>
      <use xlink:href="#DejaVuSans-77" x="589.697266"/>
      <use xlink:href="#DejaVuSans-65" x="671.484375"/>
      <use xlink:href="#DejaVuSans-69" x="733.007812"/>
      <use xlink:href="#DejaVuSans-65" x="760.791016"/>
      <use xlink:href="#DejaVuSans-72" x="822.314453"/>
      <use xlink:href="#DejaVuSans-20" x="863.427734"/>
      <use xlink:href="#DejaVuSans-4d" x="895.214844"/>
      <use xlink:href="#DejaVuSans-65" x="981.494141"/>
      <use xlink:href="#DejaVuSans-73" x="1043.017578"/>
      <use xlink:href="#DejaVuSans-73" x="1095.117188"/>
      <use xlink:href="#DejaVuSans-75" x="1147.216797"/>
      <use xlink:href="#DejaVuSans-6e" x="1210.595703"/>
      <use xlink:href="#DejaVuSans-67" x="1273.974609"/>
      <use xlink:href="#DejaVuSans-65" x="1337.451172"/>
      <use xlink:href="#DejaVuSans-6e" x="1398.974609"/>
      <use xlink:href="#DejaVuSans-20" x="1462.353516"/>
      <use xlink:href="#DejaVuSans-5b" x="1494.140625"/>
      <use xlink:href="#DejaVuSans-6d" x="1533.154297"/>
      <use xlink:href="#DejaVuSans-6d" x="1630.566406"/>
      <use xlink:href="#DejaVuSans-5d" x="1727.978516"/>
     </g>
    </g>
   </g>
   <g id="matplotlib.axis_2">
    <g id="ytick_1">
     <g id="line2d_10">
      <defs>
       <path id="mc955cd9b8c" d="M 0 0 
L -3.5 0 
" style="stroke: #000000; stroke-width: 0.8"/>
      </defs>
      <g>
       <use xlink:href="#mc955cd9b8c" x="101.823376" y="488.973521" style="stroke: #000000; stroke-width: 0.8"/>
      </g>
     </g>
     <g id="text_11">
      <!-- −30 -->
      <g transform="translate(73.718689 492.77274) scale(0.1 -0.1)">
       <defs>
        <path id="DejaVuSans-2212" d="M 678 2272 
L 4684 2272 
L 4684 1741 
L 678 1741 
L 678 2272 
z
" transform="scale(0.015625)"/>
        <path id="DejaVuSans-33" d="M 2597 2516 
Q 3050 2419 3304 2112 
Q 3559 1806 3559 1356 
Q 3559 666 3084 287 
Q 2609 -91 1734 -91 
Q 1441 -91 1130 -33 
Q 819 25 488 141 
L 488 750 
Q 750 597 1062 519 
Q 1375 441 1716 441 
Q 2309 441 2620 675 
Q 2931 909 2931 1356 
Q 2931 1769 2642 2001 
Q 2353 2234 1838 2234 
L 1294 2234 
L 1294 2753 
L 1863 2753 
Q 2328 2753 2575 2939 
Q 2822 3125 2822 3475 
Q 2822 3834 2567 4026 
Q 2313 4219 1838 4219 
Q 1578 4219 1281 4162 
Q 984 4106 628 3988 
L 628 4550 
Q 988 4650 1302 4700 
Q 1616 4750 1894 4750 
Q 2613 4750 3031 4423 
Q 3450 4097 3450 3541 
Q 3450 3153 3228 2886 
Q 3006 2619 2597 2516 
z
" transform="scale(0.015625)"/>
       </defs>
       <use xlink:href="#DejaVuSans-2212"/>
       <use xlink:href="#DejaVuSans-33" x="83.789062"/>
       <use xlink:href="#DejaVuSans-30" x="147.412109"/>
      </g>
     </g>
    </g>
    <g id="ytick_2">
     <g id="line2d_11">
      <g>
       <use xlink:href="#mc955cd9b8c" x="101.823376" y="418.7423" style="stroke: #000000; stroke-width: 0.8"/>
      </g>
     </g>
     <g id="text_12">
      <!-- −20 -->
      <g transform="translate(73.718689 422.541518) scale(0.1 -0.1)">
       <use xlink:href="#DejaVuSans-2212"/>
       <use xlink:href="#DejaVuSans-32" x="83.789062"/>
       <use xlink:href="#DejaVuSans-30" x="147.412109"/>
      </g>
     </g>
    </g>
    <g id="ytick_3">
     <g id="line2d_12">
      <g>
       <use xlink:href="#mc955cd9b8c" x="101.823376" y="348.511078" style="stroke: #000000; stroke-width: 0.8"/>
      </g>
     </g>
     <g id="text_13">
      <!-- −10 -->
      <g transform="translate(73.718689 352.310297) scale(0.1 -0.1)">
       <use xlink:href="#DejaVuSans-2212"/>
       <use xlink:href="#DejaVuSans-31" x="83.789062"/>
       <use xlink:href="#DejaVuSans-30" x="147.412109"/>
      </g>
     </g>
    </g>
    <g id="ytick_4">
     <g id="line2d_13">
      <g>
       <use xlink:href="#mc955cd9b8c" x="101.823376" y="278.279856" style="stroke: #000000; stroke-width: 0.8"/>
      </g>
     </g>
     <g id="text_14">
      <!-- 0 -->
      <g transform="translate(88.460876 282.079075) scale(0.1 -0.1)">
       <use xlink:href="#DejaVuSans-30"/>
      </g>
     </g>
    </g>
    <g id="ytick_5">
     <g id="line2d_14">
      <g>
       <use xlink:href="#mc955cd9b8c" x="101.823376" y="208.048635" style="stroke: #000000; stroke-width: 0.8"/>
      </g>
     </g>
     <g id="text_15">
      <!-- 10 -->
      <g transform="translate(82.098376 211.847854) scale(0.1 -0.1)">
       <use xlink:href="#DejaVuSans-31"/>
       <use xlink:href="#DejaVuSans-30" x="63.623047"/>
      </g>
     </g>
    </g>
    <g id="ytick_6">
     <g id="line2d_15">
      <g>
       <use xlink:href="#mc955cd9b8c" x="101.823376" y="137.817413" style="stroke: #000000; stroke-width: 0.8"/>
      </g>
     </g>
     <g id="text_16">
      <!-- 20 -->
      <g transform="translate(82.098376 141.616632) scale(0.1 -0.1)">
       <use xlink:href="#DejaVuSans-32"/>
       <use xlink:href="#DejaVuSans-30" x="63.623047"/>
      </g>
     </g>
    </g>
    <g id="text_17">
     <!-- Differenz zweier Messungen [mm] -->
     <g transform="translate(67.639001 376.605781) rotate(-90) scale(0.1 -0.1)">
      <defs>
       <path id="DejaVuSans-44" d="M 1259 4147 
L 1259 519 
L 2022 519 
Q 2988 519 3436 956 
Q 3884 1394 3884 2338 
Q 3884 3275 3436 3711 
Q 2988 4147 2022 4147 
L 1259 4147 
z
M 628 4666 
L 1925 4666 
Q 3281 4666 3915 4102 
Q 4550 3538 4550 2338 
Q 4550 1131 3912 565 
Q 3275 0 1925 0 
L 628 0 
L 628 4666 
z
" transform="scale(0.015625)"/>
       <path id="DejaVuSans-66" d="M 2375 4863 
L 2375 4384 
L 1825 4384 
Q 1516 4384 1395 4259 
Q 1275 4134 1275 3809 
L 1275 3500 
L 2222 3500 
L 2222 3053 
L 1275 3053 
L 1275 0 
L 697 0 
L 697 3053 
L 147 3053 
L 147 3500 
L 697 3500 
L 697 3744 
Q 697 4328 969 4595 
Q 1241 4863 1831 4863 
L 2375 4863 
z
" transform="scale(0.015625)"/>
      </defs>
      <use xlink:href="#DejaVuSans-44"/>
      <use xlink:href="#DejaVuSans-69" x="77.001953"/>
      <use xlink:href="#DejaVuSans-66" x="104.785156"/>
      <use xlink:href="#DejaVuSans-66" x="139.990234"/>
      <use xlink:href="#DejaVuSans-65" x="175.195312"/>
      <use xlink:href="#DejaVuSans-72" x="236.71875"/>
      <use xlink:href="#DejaVuSans-65" x="275.582031"/>
      <use xlink:href="#DejaVuSans-6e" x="337.105469"/>
      <use xlink:href="#DejaVuSans-7a" x="400.484375"/>
      <use xlink:href="#DejaVuSans-20" x="452.974609"/>
      <use xlink:href="#DejaVuSans-7a" x="484.761719"/>
      <use xlink:href="#DejaVuSans-77" x="537.251953"/>
      <use xlink:href="#DejaVuSans-65" x="619.039062"/>
      <use xlink:href="#DejaVuSans-69" x="680.5625"/>
      <use xlink:href="#DejaVuSans-65" x="708.345703"/>
      <use xlink:href="#DejaVuSans-72" x="769.869141"/>
      <use xlink:href="#DejaVuSans-20" x="810.982422"/>
      <use xlink:href="#DejaVuSans-4d" x="842.769531"/>
      <use xlink:href="#DejaVuSans-65" x="929.048828"/>
      <use xlink:href="#DejaVuSans-73" x="990.572266"/>
      <use xlink:href="#DejaVuSans-73" x="1042.671875"/>
      <use xlink:href="#DejaVuSans-75" x="1094.771484"/>
      <use xlink:href="#DejaVuSans-6e" x="1158.150391"/>
      <use xlink:href="#DejaVuSans-67" x="1221.529297"/>
      <use xlink:href="#DejaVuSans-65" x="1285.005859"/>
      <use xlink:href="#DejaVuSans-6e" x="1346.529297"/>
      <use xlink:href="#DejaVuSans-20" x="1409.908203"/>
      <use xlink:href="#DejaVuSans-5b" x="1441.695312"/>
      <use xlink:href="#DejaVuSans-6d" x="1480.708984"/>
      <use xlink:href="#DejaVuSans-6d" x="1578.121094"/>
      <use xlink:href="#DejaVuSans-5d" x="1675.533203"/>
     </g>
    </g>
   </g>
   <g id="line2d_16">
    <path d="M 101.823376 290.88 
L 692.39896 290.88 
" clip-path="url(#p30c25f9643)" style="fill: none; stroke: #000000; stroke-width: 1.5; stroke-linecap: square"/>
   </g>
   <g id="line2d_17">
    <path d="M 101.823376 166.6944 
L 692.39896 166.6944 
" clip-path="url(#p30c25f9643)" style="fill: none; stroke-dasharray: 5.55,2.4; stroke-dashoffset: 0; stroke: #000000; stroke-width: 1.5"/>
   </g>
   <g id="line2d_18">
    <path d="M 101.823376 415.0656 
L 692.39896 415.0656 
" clip-path="url(#p30c25f9643)" style="fill: none; stroke-dasharray: 5.55,2.4; stroke-dashoffset: 0; stroke: #000000; stroke-width: 1.5"/>
   </g>
   <g id="patch_3">
    <path d="M 101.823376 512.64 
L 101.823376 69.12 
" style="fill: none; stroke: #000000; stroke-width: 0.8; stroke-linejoin: miter; stroke-linecap: square"/>
   </g>
   <g id="patch_4">
    <path d="M 692.39896 512.64 
L 692.39896 69.12 
" style="fill: none; stroke: #000000; stroke-width: 0.8; stroke-linejoin: miter; stroke-linecap: square"/>
   </g>
   <g id="patch_5">
    <path d="M 101.823376 512.64 
L 692.39896 512.64 
" style="fill: none; stroke: #000000; stroke-width: 0.8; stroke-linejoin: miter; stroke-linecap: square"/>
   </g>
   <g id="patch_6">
    <path d="M 101.823376 69.12 
L 692.39896 69.12 
" style="fill: none; stroke: #000000; stroke-width: 0.8; stroke-linejoin: miter; stroke-linecap: square"/>
   </g>
   <g id="text_18">
    <!-- +1.96$\sigma$: -->
    <g transform="translate(725.919262 163.854869) scale(0.1 -0.1)">
     <defs>
      <path id="DejaVuSans-2b" d="M 2944 4013 
L 2944 2272 
L 4684 2272 
L 4684 1741 
L 2944 1741 
L 2944 0 
L 2419 0 
L 2419 1741 
L 678 1741 
L 678 2272 
L 2419 2272 
L 2419 4013 
L 2944 4013 
z
" transform="scale(0.015625)"/>
      <path id="DejaVuSans-36" d="M 2113 2584 
Q 1688 2584 1439 2293 
Q 1191 2003 1191 1497 
Q 1191 994 1439 701 
Q 1688 409 2113 409 
Q 2538 409 2786 701 
Q 3034 994 3034 1497 
Q 3034 2003 2786 2293 
Q 2538 2584 2113 2584 
z
M 3366 4563 
L 3366 3988 
Q 3128 4100 2886 4159 
Q 2644 4219 2406 4219 
Q 1781 4219 1451 3797 
Q 1122 3375 1075 2522 
Q 1259 2794 1537 2939 
Q 1816 3084 2150 3084 
Q 2853 3084 3261 2657 
Q 3669 2231 3669 1497 
Q 3669 778 3244 343 
Q 2819 -91 2113 -91 
Q 1303 -91 875 529 
Q 447 1150 447 2328 
Q 447 3434 972 4092 
Q 1497 4750 2381 4750 
Q 2619 4750 2861 4703 
Q 3103 4656 3366 4563 
z
" transform="scale(0.015625)"/>
      <path id="DejaVuSans-Oblique-3c3" d="M 2219 3044 
Q 1744 3044 1422 2700 
Q 1081 2341 969 1747 
Q 844 1119 1044 756 
Q 1241 397 1706 397 
Q 2166 397 2503 759 
Q 2844 1122 2966 1747 
Q 3075 2319 2881 2700 
Q 2700 3044 2219 3044 
z
M 2309 3503 
L 4219 3500 
L 4106 2925 
L 3463 2925 
Q 3706 2438 3575 1747 
Q 3406 888 2884 400 
Q 2359 -91 1609 -91 
Q 856 -91 525 400 
Q 194 888 363 1747 
Q 528 2609 1050 3097 
Q 1484 3503 2309 3503 
z
" transform="scale(0.015625)"/>
      <path id="DejaVuSans-3a" d="M 750 794 
L 1409 794 
L 1409 0 
L 750 0 
L 750 794 
z
M 750 3309 
L 1409 3309 
L 1409 2516 
L 750 2516 
L 750 3309 
z
" transform="scale(0.015625)"/>
     </defs>
     <use xlink:href="#DejaVuSans-2b" transform="translate(0 0.78125)"/>
     <use xlink:href="#DejaVuSans-31" transform="translate(83.789062 0.78125)"/>
     <use xlink:href="#DejaVuSans-2e" transform="translate(147.412109 0.78125)"/>
     <use xlink:href="#DejaVuSans-39" transform="translate(179.199219 0.78125)"/>
     <use xlink:href="#DejaVuSans-36" transform="translate(242.822266 0.78125)"/>
     <use xlink:href="#DejaVuSans-Oblique-3c3" transform="translate(306.445312 0.78125)"/>
     <use xlink:href="#DejaVuSans-3a" transform="translate(369.824219 0.78125)"/>
    </g>
    <!-- 15.8883 -->
    <g transform="translate(725.442699 175.052681) scale(0.1 -0.1)">
     <defs>
      <path id="DejaVuSans-38" d="M 2034 2216 
Q 1584 2216 1326 1975 
Q 1069 1734 1069 1313 
Q 1069 891 1326 650 
Q 1584 409 2034 409 
Q 2484 409 2743 651 
Q 3003 894 3003 1313 
Q 3003 1734 2745 1975 
Q 2488 2216 2034 2216 
z
M 1403 2484 
Q 997 2584 770 2862 
Q 544 3141 544 3541 
Q 544 4100 942 4425 
Q 1341 4750 2034 4750 
Q 2731 4750 3128 4425 
Q 3525 4100 3525 3541 
Q 3525 3141 3298 2862 
Q 3072 2584 2669 2484 
Q 3125 2378 3379 2068 
Q 3634 1759 3634 1313 
Q 3634 634 3220 271 
Q 2806 -91 2034 -91 
Q 1263 -91 848 271 
Q 434 634 434 1313 
Q 434 1759 690 2068 
Q 947 2378 1403 2484 
z
M 1172 3481 
Q 1172 3119 1398 2916 
Q 1625 2713 2034 2713 
Q 2441 2713 2670 2916 
Q 2900 3119 2900 3481 
Q 2900 3844 2670 4047 
Q 2441 4250 2034 4250 
Q 1625 4250 1398 4047 
Q 1172 3844 1172 3481 
z
" transform="scale(0.015625)"/>
     </defs>
     <use xlink:href="#DejaVuSans-31"/>
     <use xlink:href="#DejaVuSans-35" x="63.623047"/>
     <use xlink:href="#DejaVuSans-2e" x="127.246094"/>
     <use xlink:href="#DejaVuSans-38" x="159.033203"/>
     <use xlink:href="#DejaVuSans-38" x="222.65625"/>
     <use xlink:href="#DejaVuSans-38" x="286.279297"/>
     <use xlink:href="#DejaVuSans-33" x="349.902344"/>
    </g>
   </g>
   <g id="text_19">
    <!-- Mittelwert: -->
    <g transform="translate(719.164574 288.040469) scale(0.1 -0.1)">
     <use xlink:href="#DejaVuSans-4d"/>
     <use xlink:href="#DejaVuSans-69" x="86.279297"/>
     <use xlink:href="#DejaVuSans-74" x="114.0625"/>
     <use xlink:href="#DejaVuSans-74" x="153.271484"/>
     <use xlink:href="#DejaVuSans-65" x="192.480469"/>
     <use xlink:href="#DejaVuSans-6c" x="254.003906"/>
     <use xlink:href="#DejaVuSans-77" x="281.787109"/>
     <use xlink:href="#DejaVuSans-65" x="363.574219"/>
     <use xlink:href="#DejaVuSans-72" x="425.097656"/>
     <use xlink:href="#DejaVuSans-74" x="466.210938"/>
     <use xlink:href="#DejaVuSans-3a" x="505.419922"/>
    </g>
    <!-- -1.7941 -->
    <g transform="translate(726.820043 299.238281) scale(0.1 -0.1)">
     <defs>
      <path id="DejaVuSans-2d" d="M 313 2009 
L 1997 2009 
L 1997 1497 
L 313 1497 
L 313 2009 
z
" transform="scale(0.015625)"/>
      <path id="DejaVuSans-34" d="M 2419 4116 
L 825 1625 
L 2419 1625 
L 2419 4116 
z
M 2253 4666 
L 3047 4666 
L 3047 1625 
L 3713 1625 
L 3713 1100 
L 3047 1100 
L 3047 0 
L 2419 0 
L 2419 1100 
L 313 1100 
L 313 1709 
L 2253 4666 
z
" transform="scale(0.015625)"/>
     </defs>
     <use xlink:href="#DejaVuSans-2d"/>
     <use xlink:href="#DejaVuSans-31" x="36.083984"/>
     <use xlink:href="#DejaVuSans-2e" x="99.707031"/>
     <use xlink:href="#DejaVuSans-37" x="131.494141"/>
     <use xlink:href="#DejaVuSans-39" x="195.117188"/>
     <use xlink:href="#DejaVuSans-34" x="258.740234"/>
     <use xlink:href="#DejaVuSans-31" x="322.363281"/>
    </g>
   </g>
   <g id="text_20">
    <!-- -1.96$\sigma$: -->
    <g transform="translate(728.319262 412.226069) scale(0.1 -0.1)">
     <use xlink:href="#DejaVuSans-2d" transform="translate(0 0.78125)"/>
     <use xlink:href="#DejaVuSans-31" transform="translate(36.083984 0.78125)"/>
     <use xlink:href="#DejaVuSans-2e" transform="translate(99.707031 0.78125)"/>
     <use xlink:href="#DejaVuSans-39" transform="translate(131.494141 0.78125)"/>
     <use xlink:href="#DejaVuSans-36" transform="translate(195.117188 0.78125)"/>
     <use xlink:href="#DejaVuSans-Oblique-3c3" transform="translate(258.740234 0.78125)"/>
     <use xlink:href="#DejaVuSans-3a" transform="translate(322.119141 0.78125)"/>
    </g>
    <!-- -19.4765 -->
    <g transform="translate(723.638793 423.423881) scale(0.1 -0.1)">
     <use xlink:href="#DejaVuSans-2d"/>
     <use xlink:href="#DejaVuSans-31" x="36.083984"/>
     <use xlink:href="#DejaVuSans-39" x="99.707031"/>
     <use xlink:href="#DejaVuSans-2e" x="163.330078"/>
     <use xlink:href="#DejaVuSans-34" x="195.117188"/>
     <use xlink:href="#DejaVuSans-37" x="258.740234"/>
     <use xlink:href="#DejaVuSans-36" x="322.363281"/>
     <use xlink:href="#DejaVuSans-35" x="385.986328"/>
    </g>
   </g>
   <g id="text_21">
    <!-- $\mathbf{Bland-Altman-Diagramm}$ -->
    <g transform="translate(304.051168 49.53825) scale(0.12 -0.12)">
     <defs>
      <path id="DejaVuSans-Bold-42" d="M 2456 2859 
Q 2741 2859 2887 2984 
Q 3034 3109 3034 3353 
Q 3034 3594 2887 3720 
Q 2741 3847 2456 3847 
L 1791 3847 
L 1791 2859 
L 2456 2859 
z
M 2497 819 
Q 2859 819 3042 972 
Q 3225 1125 3225 1434 
Q 3225 1738 3044 1889 
Q 2863 2041 2497 2041 
L 1791 2041 
L 1791 819 
L 2497 819 
z
M 3616 2497 
Q 4003 2384 4215 2081 
Q 4428 1778 4428 1338 
Q 4428 663 3972 331 
Q 3516 0 2584 0 
L 588 0 
L 588 4666 
L 2394 4666 
Q 3366 4666 3802 4372 
Q 4238 4078 4238 3431 
Q 4238 3091 4078 2852 
Q 3919 2613 3616 2497 
z
" transform="scale(0.015625)"/>
      <path id="DejaVuSans-Bold-6c" d="M 538 4863 
L 1656 4863 
L 1656 0 
L 538 0 
L 538 4863 
z
" transform="scale(0.015625)"/>
      <path id="DejaVuSans-Bold-61" d="M 2106 1575 
Q 1756 1575 1579 1456 
Q 1403 1338 1403 1106 
Q 1403 894 1545 773 
Q 1688 653 1941 653 
Q 2256 653 2472 879 
Q 2688 1106 2688 1447 
L 2688 1575 
L 2106 1575 
z
M 3816 1997 
L 3816 0 
L 2688 0 
L 2688 519 
Q 2463 200 2181 54 
Q 1900 -91 1497 -91 
Q 953 -91 614 226 
Q 275 544 275 1050 
Q 275 1666 698 1953 
Q 1122 2241 2028 2241 
L 2688 2241 
L 2688 2328 
Q 2688 2594 2478 2717 
Q 2269 2841 1825 2841 
Q 1466 2841 1156 2769 
Q 847 2697 581 2553 
L 581 3406 
Q 941 3494 1303 3539 
Q 1666 3584 2028 3584 
Q 2975 3584 3395 3211 
Q 3816 2838 3816 1997 
z
" transform="scale(0.015625)"/>
      <path id="DejaVuSans-Bold-6e" d="M 4056 2131 
L 4056 0 
L 2931 0 
L 2931 347 
L 2931 1631 
Q 2931 2084 2911 2256 
Q 2891 2428 2841 2509 
Q 2775 2619 2662 2680 
Q 2550 2741 2406 2741 
Q 2056 2741 1856 2470 
Q 1656 2200 1656 1722 
L 1656 0 
L 538 0 
L 538 3500 
L 1656 3500 
L 1656 2988 
Q 1909 3294 2193 3439 
Q 2478 3584 2822 3584 
Q 3428 3584 3742 3212 
Q 4056 2841 4056 2131 
z
" transform="scale(0.015625)"/>
      <path id="DejaVuSans-Bold-64" d="M 2919 2988 
L 2919 4863 
L 4044 4863 
L 4044 0 
L 2919 0 
L 2919 506 
Q 2688 197 2409 53 
Q 2131 -91 1766 -91 
Q 1119 -91 703 423 
Q 288 938 288 1747 
Q 288 2556 703 3070 
Q 1119 3584 1766 3584 
Q 2128 3584 2408 3439 
Q 2688 3294 2919 2988 
z
M 2181 722 
Q 2541 722 2730 984 
Q 2919 1247 2919 1747 
Q 2919 2247 2730 2509 
Q 2541 2772 2181 2772 
Q 1825 2772 1636 2509 
Q 1447 2247 1447 1747 
Q 1447 1247 1636 984 
Q 1825 722 2181 722 
z
" transform="scale(0.015625)"/>
      <path id="DejaVuSans-Bold-2212" d="M 678 2375 
L 4684 2375 
L 4684 1638 
L 678 1638 
L 678 2375 
z
" transform="scale(0.015625)"/>
      <path id="DejaVuSans-Bold-41" d="M 3419 850 
L 1538 850 
L 1241 0 
L 31 0 
L 1759 4666 
L 3194 4666 
L 4922 0 
L 3713 0 
L 3419 850 
z
M 1838 1716 
L 3116 1716 
L 2478 3572 
L 1838 1716 
z
" transform="scale(0.015625)"/>
      <path id="DejaVuSans-Bold-74" d="M 1759 4494 
L 1759 3500 
L 2913 3500 
L 2913 2700 
L 1759 2700 
L 1759 1216 
Q 1759 972 1856 886 
Q 1953 800 2241 800 
L 2816 800 
L 2816 0 
L 1856 0 
Q 1194 0 917 276 
Q 641 553 641 1216 
L 641 2700 
L 84 2700 
L 84 3500 
L 641 3500 
L 641 4494 
L 1759 4494 
z
" transform="scale(0.015625)"/>
      <path id="DejaVuSans-Bold-6d" d="M 3781 2919 
Q 3994 3244 4286 3414 
Q 4578 3584 4928 3584 
Q 5531 3584 5847 3212 
Q 6163 2841 6163 2131 
L 6163 0 
L 5038 0 
L 5038 1825 
Q 5041 1866 5042 1909 
Q 5044 1953 5044 2034 
Q 5044 2406 4934 2573 
Q 4825 2741 4581 2741 
Q 4263 2741 4089 2478 
Q 3916 2216 3909 1719 
L 3909 0 
L 2784 0 
L 2784 1825 
Q 2784 2406 2684 2573 
Q 2584 2741 2328 2741 
Q 2006 2741 1831 2477 
Q 1656 2213 1656 1722 
L 1656 0 
L 531 0 
L 531 3500 
L 1656 3500 
L 1656 2988 
Q 1863 3284 2130 3434 
Q 2397 3584 2719 3584 
Q 3081 3584 3359 3409 
Q 3638 3234 3781 2919 
z
" transform="scale(0.015625)"/>
      <path id="DejaVuSans-Bold-44" d="M 1791 3756 
L 1791 909 
L 2222 909 
Q 2959 909 3348 1275 
Q 3738 1641 3738 2338 
Q 3738 3031 3350 3393 
Q 2963 3756 2222 3756 
L 1791 3756 
z
M 588 4666 
L 1856 4666 
Q 2919 4666 3439 4514 
Q 3959 4363 4331 4000 
Q 4659 3684 4818 3271 
Q 4978 2859 4978 2338 
Q 4978 1809 4818 1395 
Q 4659 981 4331 666 
Q 3956 303 3431 151 
Q 2906 0 1856 0 
L 588 0 
L 588 4666 
z
" transform="scale(0.015625)"/>
      <path id="DejaVuSans-Bold-69" d="M 538 3500 
L 1656 3500 
L 1656 0 
L 538 0 
L 538 3500 
z
M 538 4863 
L 1656 4863 
L 1656 3950 
L 538 3950 
L 538 4863 
z
" transform="scale(0.015625)"/>
      <path id="DejaVuSans-Bold-67" d="M 2919 594 
Q 2688 288 2409 144 
Q 2131 0 1766 0 
Q 1125 0 706 504 
Q 288 1009 288 1791 
Q 288 2575 706 3076 
Q 1125 3578 1766 3578 
Q 2131 3578 2409 3434 
Q 2688 3291 2919 2981 
L 2919 3500 
L 4044 3500 
L 4044 353 
Q 4044 -491 3511 -936 
Q 2978 -1381 1966 -1381 
Q 1638 -1381 1331 -1331 
Q 1025 -1281 716 -1178 
L 716 -306 
Q 1009 -475 1290 -558 
Q 1572 -641 1856 -641 
Q 2406 -641 2662 -400 
Q 2919 -159 2919 353 
L 2919 594 
z
M 2181 2772 
Q 1834 2772 1640 2515 
Q 1447 2259 1447 1791 
Q 1447 1309 1634 1061 
Q 1822 813 2181 813 
Q 2531 813 2725 1069 
Q 2919 1325 2919 1791 
Q 2919 2259 2725 2515 
Q 2531 2772 2181 2772 
z
" transform="scale(0.015625)"/>
      <path id="DejaVuSans-Bold-72" d="M 3138 2547 
Q 2991 2616 2845 2648 
Q 2700 2681 2553 2681 
Q 2122 2681 1889 2404 
Q 1656 2128 1656 1613 
L 1656 0 
L 538 0 
L 538 3500 
L 1656 3500 
L 1656 2925 
Q 1872 3269 2151 3426 
Q 2431 3584 2822 3584 
Q 2878 3584 2943 3579 
Q 3009 3575 3134 3559 
L 3138 2547 
z
" transform="scale(0.015625)"/>
     </defs>
     <use xlink:href="#DejaVuSans-Bold-42" transform="translate(0 0.015625)"/>
     <use xlink:href="#DejaVuSans-Bold-6c" transform="translate(76.220703 0.015625)"/>
     <use xlink:href="#DejaVuSans-Bold-61" transform="translate(110.498047 0.015625)"/>
     <use xlink:href="#DejaVuSans-Bold-6e" transform="translate(177.978516 0.015625)"/>
     <use xlink:href="#DejaVuSans-Bold-64" transform="translate(249.169922 0.015625)"/>
     <use xlink:href="#DejaVuSans-Bold-2212" transform="translate(340.234375 0.015625)"/>
     <use xlink:href="#DejaVuSans-Bold-41" transform="translate(443.505859 0.015625)"/>
     <use xlink:href="#DejaVuSans-Bold-6c" transform="translate(520.898438 0.015625)"/>
     <use xlink:href="#DejaVuSans-Bold-74" transform="translate(555.175781 0.015625)"/>
     <use xlink:href="#DejaVuSans-Bold-6d" transform="translate(602.978516 0.015625)"/>
     <use xlink:href="#DejaVuSans-Bold-61" transform="translate(707.177734 0.015625)"/>
     <use xlink:href="#DejaVuSans-Bold-6e" transform="translate(774.658203 0.015625)"/>
     <use xlink:href="#DejaVuSans-Bold-2212" transform="translate(865.332031 0.015625)"/>
     <use xlink:href="#DejaVuSans-Bold-44" transform="translate(968.603516 0.015625)"/>
     <use xlink:href="#DejaVuSans-Bold-69" transform="translate(1051.611328 0.015625)"/>
     <use xlink:href="#DejaVuSans-Bold-61" transform="translate(1085.888672 0.015625)"/>
     <use xlink:href="#DejaVuSans-Bold-67" transform="translate(1153.369141 0.015625)"/>
     <use xlink:href="#DejaVuSans-Bold-72" transform="translate(1224.951172 0.015625)"/>
     <use xlink:href="#DejaVuSans-Bold-61" transform="translate(1274.267578 0.015625)"/>
     <use xlink:href="#DejaVuSans-Bold-6d" transform="translate(1341.748047 0.015625)"/>
     <use xlink:href="#DejaVuSans-Bold-6d" transform="translate(1445.947266 0.015625)"/>
    </g>
    <!-- CoP Kraftmessplatte vs. CoP Rechteck ohne sma (y-Achse) -->
    <g transform="translate(221.246481 63.12) scale(0.12 -0.12)">
     <defs>
      <path id="DejaVuSans-43" d="M 4122 4306 
L 4122 3641 
Q 3803 3938 3442 4084 
Q 3081 4231 2675 4231 
Q 1875 4231 1450 3742 
Q 1025 3253 1025 2328 
Q 1025 1406 1450 917 
Q 1875 428 2675 428 
Q 3081 428 3442 575 
Q 3803 722 4122 1019 
L 4122 359 
Q 3791 134 3420 21 
Q 3050 -91 2638 -91 
Q 1578 -91 968 557 
Q 359 1206 359 2328 
Q 359 3453 968 4101 
Q 1578 4750 2638 4750 
Q 3056 4750 3426 4639 
Q 3797 4528 4122 4306 
z
" transform="scale(0.015625)"/>
      <path id="DejaVuSans-6f" d="M 1959 3097 
Q 1497 3097 1228 2736 
Q 959 2375 959 1747 
Q 959 1119 1226 758 
Q 1494 397 1959 397 
Q 2419 397 2687 759 
Q 2956 1122 2956 1747 
Q 2956 2369 2687 2733 
Q 2419 3097 1959 3097 
z
M 1959 3584 
Q 2709 3584 3137 3096 
Q 3566 2609 3566 1747 
Q 3566 888 3137 398 
Q 2709 -91 1959 -91 
Q 1206 -91 779 398 
Q 353 888 353 1747 
Q 353 2609 779 3096 
Q 1206 3584 1959 3584 
z
" transform="scale(0.015625)"/>
      <path id="DejaVuSans-50" d="M 1259 4147 
L 1259 2394 
L 2053 2394 
Q 2494 2394 2734 2622 
Q 2975 2850 2975 3272 
Q 2975 3691 2734 3919 
Q 2494 4147 2053 4147 
L 1259 4147 
z
M 628 4666 
L 2053 4666 
Q 2838 4666 3239 4311 
Q 3641 3956 3641 3272 
Q 3641 2581 3239 2228 
Q 2838 1875 2053 1875 
L 1259 1875 
L 1259 0 
L 628 0 
L 628 4666 
z
" transform="scale(0.015625)"/>
      <path id="DejaVuSans-4b" d="M 628 4666 
L 1259 4666 
L 1259 2694 
L 3353 4666 
L 4166 4666 
L 1850 2491 
L 4331 0 
L 3500 0 
L 1259 2247 
L 1259 0 
L 628 0 
L 628 4666 
z
" transform="scale(0.015625)"/>
      <path id="DejaVuSans-61" d="M 2194 1759 
Q 1497 1759 1228 1600 
Q 959 1441 959 1056 
Q 959 750 1161 570 
Q 1363 391 1709 391 
Q 2188 391 2477 730 
Q 2766 1069 2766 1631 
L 2766 1759 
L 2194 1759 
z
M 3341 1997 
L 3341 0 
L 2766 0 
L 2766 531 
Q 2569 213 2275 61 
Q 1981 -91 1556 -91 
Q 1019 -91 701 211 
Q 384 513 384 1019 
Q 384 1609 779 1909 
Q 1175 2209 1959 2209 
L 2766 2209 
L 2766 2266 
Q 2766 2663 2505 2880 
Q 2244 3097 1772 3097 
Q 1472 3097 1187 3025 
Q 903 2953 641 2809 
L 641 3341 
Q 956 3463 1253 3523 
Q 1550 3584 1831 3584 
Q 2591 3584 2966 3190 
Q 3341 2797 3341 1997 
z
" transform="scale(0.015625)"/>
      <path id="DejaVuSans-70" d="M 1159 525 
L 1159 -1331 
L 581 -1331 
L 581 3500 
L 1159 3500 
L 1159 2969 
Q 1341 3281 1617 3432 
Q 1894 3584 2278 3584 
Q 2916 3584 3314 3078 
Q 3713 2572 3713 1747 
Q 3713 922 3314 415 
Q 2916 -91 2278 -91 
Q 1894 -91 1617 61 
Q 1341 213 1159 525 
z
M 3116 1747 
Q 3116 2381 2855 2742 
Q 2594 3103 2138 3103 
Q 1681 3103 1420 2742 
Q 1159 2381 1159 1747 
Q 1159 1113 1420 752 
Q 1681 391 2138 391 
Q 2594 391 2855 752 
Q 3116 1113 3116 1747 
z
" transform="scale(0.015625)"/>
      <path id="DejaVuSans-76" d="M 191 3500 
L 800 3500 
L 1894 563 
L 2988 3500 
L 3597 3500 
L 2284 0 
L 1503 0 
L 191 3500 
z
" transform="scale(0.015625)"/>
      <path id="DejaVuSans-52" d="M 2841 2188 
Q 3044 2119 3236 1894 
Q 3428 1669 3622 1275 
L 4263 0 
L 3584 0 
L 2988 1197 
Q 2756 1666 2539 1819 
Q 2322 1972 1947 1972 
L 1259 1972 
L 1259 0 
L 628 0 
L 628 4666 
L 2053 4666 
Q 2853 4666 3247 4331 
Q 3641 3997 3641 3322 
Q 3641 2881 3436 2590 
Q 3231 2300 2841 2188 
z
M 1259 4147 
L 1259 2491 
L 2053 2491 
Q 2509 2491 2742 2702 
Q 2975 2913 2975 3322 
Q 2975 3731 2742 3939 
Q 2509 4147 2053 4147 
L 1259 4147 
z
" transform="scale(0.015625)"/>
      <path id="DejaVuSans-63" d="M 3122 3366 
L 3122 2828 
Q 2878 2963 2633 3030 
Q 2388 3097 2138 3097 
Q 1578 3097 1268 2742 
Q 959 2388 959 1747 
Q 959 1106 1268 751 
Q 1578 397 2138 397 
Q 2388 397 2633 464 
Q 2878 531 3122 666 
L 3122 134 
Q 2881 22 2623 -34 
Q 2366 -91 2075 -91 
Q 1284 -91 818 406 
Q 353 903 353 1747 
Q 353 2603 823 3093 
Q 1294 3584 2113 3584 
Q 2378 3584 2631 3529 
Q 2884 3475 3122 3366 
z
" transform="scale(0.015625)"/>
      <path id="DejaVuSans-68" d="M 3513 2113 
L 3513 0 
L 2938 0 
L 2938 2094 
Q 2938 2591 2744 2837 
Q 2550 3084 2163 3084 
Q 1697 3084 1428 2787 
Q 1159 2491 1159 1978 
L 1159 0 
L 581 0 
L 581 4863 
L 1159 4863 
L 1159 2956 
Q 1366 3272 1645 3428 
Q 1925 3584 2291 3584 
Q 2894 3584 3203 3211 
Q 3513 2838 3513 2113 
z
" transform="scale(0.015625)"/>
      <path id="DejaVuSans-6b" d="M 581 4863 
L 1159 4863 
L 1159 1991 
L 2875 3500 
L 3609 3500 
L 1753 1863 
L 3688 0 
L 2938 0 
L 1159 1709 
L 1159 0 
L 581 0 
L 581 4863 
z
" transform="scale(0.015625)"/>
      <path id="DejaVuSans-28" d="M 1984 4856 
Q 1566 4138 1362 3434 
Q 1159 2731 1159 2009 
Q 1159 1288 1364 580 
Q 1569 -128 1984 -844 
L 1484 -844 
Q 1016 -109 783 600 
Q 550 1309 550 2009 
Q 550 2706 781 3412 
Q 1013 4119 1484 4856 
L 1984 4856 
z
" transform="scale(0.015625)"/>
      <path id="DejaVuSans-79" d="M 2059 -325 
Q 1816 -950 1584 -1140 
Q 1353 -1331 966 -1331 
L 506 -1331 
L 506 -850 
L 844 -850 
Q 1081 -850 1212 -737 
Q 1344 -625 1503 -206 
L 1606 56 
L 191 3500 
L 800 3500 
L 1894 763 
L 2988 3500 
L 3597 3500 
L 2059 -325 
z
" transform="scale(0.015625)"/>
      <path id="DejaVuSans-41" d="M 2188 4044 
L 1331 1722 
L 3047 1722 
L 2188 4044 
z
M 1831 4666 
L 2547 4666 
L 4325 0 
L 3669 0 
L 3244 1197 
L 1141 1197 
L 716 0 
L 50 0 
L 1831 4666 
z
" transform="scale(0.015625)"/>
      <path id="DejaVuSans-29" d="M 513 4856 
L 1013 4856 
Q 1481 4119 1714 3412 
Q 1947 2706 1947 2009 
Q 1947 1309 1714 600 
Q 1481 -109 1013 -844 
L 513 -844 
Q 928 -128 1133 580 
Q 1338 1288 1338 2009 
Q 1338 2731 1133 3434 
Q 928 4138 513 4856 
z
" transform="scale(0.015625)"/>
     </defs>
     <use xlink:href="#DejaVuSans-43"/>
     <use xlink:href="#DejaVuSans-6f" x="69.824219"/>
     <use xlink:href="#DejaVuSans-50" x="131.005859"/>
     <use xlink:href="#DejaVuSans-20" x="191.308594"/>
     <use xlink:href="#DejaVuSans-4b" x="223.095703"/>
     <use xlink:href="#DejaVuSans-72" x="288.671875"/>
     <use xlink:href="#DejaVuSans-61" x="329.785156"/>
     <use xlink:href="#DejaVuSans-66" x="391.064453"/>
     <use xlink:href="#DejaVuSans-74" x="424.519531"/>
     <use xlink:href="#DejaVuSans-6d" x="463.728516"/>
     <use xlink:href="#DejaVuSans-65" x="561.140625"/>
     <use xlink:href="#DejaVuSans-73" x="622.664062"/>
     <use xlink:href="#DejaVuSans-73" x="674.763672"/>
     <use xlink:href="#DejaVuSans-70" x="726.863281"/>
     <use xlink:href="#DejaVuSans-6c" x="790.339844"/>
     <use xlink:href="#DejaVuSans-61" x="818.123047"/>
     <use xlink:href="#DejaVuSans-74" x="879.402344"/>
     <use xlink:href="#DejaVuSans-74" x="918.611328"/>
     <use xlink:href="#DejaVuSans-65" x="957.820312"/>
     <use xlink:href="#DejaVuSans-20" x="1019.34375"/>
     <use xlink:href="#DejaVuSans-76" x="1051.130859"/>
     <use xlink:href="#DejaVuSans-73" x="1110.310547"/>
     <use xlink:href="#DejaVuSans-2e" x="1162.410156"/>
     <use xlink:href="#DejaVuSans-20" x="1194.197266"/>
     <use xlink:href="#DejaVuSans-43" x="1225.984375"/>
     <use xlink:href="#DejaVuSans-6f" x="1295.808594"/>
     <use xlink:href="#DejaVuSans-50" x="1356.990234"/>
     <use xlink:href="#DejaVuSans-20" x="1417.292969"/>
     <use xlink:href="#DejaVuSans-52" x="1449.080078"/>
     <use xlink:href="#DejaVuSans-65" x="1514.0625"/>
     <use xlink:href="#DejaVuSans-63" x="1575.585938"/>
     <use xlink:href="#DejaVuSans-68" x="1630.566406"/>
     <use xlink:href="#DejaVuSans-74" x="1693.945312"/>
     <use xlink:href="#DejaVuSans-65" x="1733.154297"/>
     <use xlink:href="#DejaVuSans-63" x="1794.677734"/>
     <use xlink:href="#DejaVuSans-6b" x="1849.658203"/>
     <use xlink:href="#DejaVuSans-20" x="1907.568359"/>
     <use xlink:href="#DejaVuSans-6f" x="1939.355469"/>
     <use xlink:href="#DejaVuSans-68" x="2000.537109"/>
     <use xlink:href="#DejaVuSans-6e" x="2063.916016"/>
     <use xlink:href="#DejaVuSans-65" x="2127.294922"/>
     <use xlink:href="#DejaVuSans-20" x="2188.818359"/>
     <use xlink:href="#DejaVuSans-73" x="2220.605469"/>
     <use xlink:href="#DejaVuSans-6d" x="2272.705078"/>
     <use xlink:href="#DejaVuSans-61" x="2370.117188"/>
     <use xlink:href="#DejaVuSans-20" x="2431.396484"/>
     <use xlink:href="#DejaVuSans-28" x="2463.183594"/>
     <use xlink:href="#DejaVuSans-79" x="2502.197266"/>
     <use xlink:href="#DejaVuSans-2d" x="2559.626953"/>
     <use xlink:href="#DejaVuSans-41" x="2593.460938"/>
     <use xlink:href="#DejaVuSans-63" x="2660.119141"/>
     <use xlink:href="#DejaVuSans-68" x="2715.099609"/>
     <use xlink:href="#DejaVuSans-73" x="2778.478516"/>
     <use xlink:href="#DejaVuSans-65" x="2830.578125"/>
     <use xlink:href="#DejaVuSans-29" x="2892.101562"/>
    </g>
   </g>
  </g>
 </g>
 <defs>
  <clipPath id="p30c25f9643">
   <rect x="101.823376" y="69.12" width="590.575584" height="443.52"/>
  </clipPath>
 </defs>
</svg>
