<?xml version="1.0" encoding="utf-8" standalone="no"?>
<!DOCTYPE svg PUBLIC "-//W3C//DTD SVG 1.1//EN"
  "http://www.w3.org/Graphics/SVG/1.1/DTD/svg11.dtd">
<svg xmlns:xlink="http://www.w3.org/1999/xlink" width="355.43952pt" height="175.43952pt" viewBox="0 0 355.43952 175.43952" xmlns="http://www.w3.org/2000/svg" version="1.1">
 <metadata>
  <rdf:RDF xmlns:dc="http://purl.org/dc/elements/1.1/" xmlns:cc="http://creativecommons.org/ns#" xmlns:rdf="http://www.w3.org/1999/02/22-rdf-syntax-ns#">
   <cc:Work>
    <dc:type rdf:resource="http://purl.org/dc/dcmitype/StillImage"/>
    <dc:date>2023-09-09T18:29:40.820699</dc:date>
    <dc:format>image/svg+xml</dc:format>
    <dc:creator>
     <cc:Agent>
      <dc:title>Matplotlib v3.7.2, https://matplotlib.org/</dc:title>
     </cc:Agent>
    </dc:creator>
   </cc:Work>
  </rdf:RDF>
 </metadata>
 <defs>
  <style type="text/css">*{stroke-linejoin: round; stroke-linecap: butt}</style>
 </defs>
 <g id="figure_1">
  <g id="patch_1">
   <path d="M 0 175.43952 
L 355.43952 175.43952 
L 355.43952 0 
L 0 0 
L 0 175.43952 
z
" style="fill: none"/>
  </g>
  <g id="axes_1">
   <g id="patch_2">
    <path d="M 23.760625 148.36327 
L 354.71952 148.36327 
L 354.71952 0.72 
L 23.760625 0.72 
L 23.760625 148.36327 
z
" style="fill: none"/>
   </g>
   <g id="matplotlib.axis_1">
    <g id="xtick_1">
     <g id="line2d_1">
      <path d="M 23.760625 148.36327 
L 23.760625 0.72 
" clip-path="url(#paf0fc3a4af)" style="fill: none; stroke-dasharray: 0.8,1.32; stroke-dashoffset: 0; stroke: #000000; stroke-opacity: 0.5; stroke-width: 0.8"/>
     </g>
     <g id="line2d_2">
      <defs>
       <path id="mf03c09e0b5" d="M 0 0 
L 0 3.5 
" style="stroke: #000000; stroke-width: 0.8"/>
      </defs>
      <g>
       <use xlink:href="#mf03c09e0b5" x="23.760625" y="148.36327" style="stroke: #000000; stroke-width: 0.8"/>
      </g>
     </g>
     <g id="text_1">
      <!-- 0 -->
      <g transform="translate(20.579375 162.961707) scale(0.1 -0.1)">
       <defs>
        <path id="DejaVuSans-30" d="M 2034 4250 
Q 1547 4250 1301 3770 
Q 1056 3291 1056 2328 
Q 1056 1369 1301 889 
Q 1547 409 2034 409 
Q 2525 409 2770 889 
Q 3016 1369 3016 2328 
Q 3016 3291 2770 3770 
Q 2525 4250 2034 4250 
z
M 2034 4750 
Q 2819 4750 3233 4129 
Q 3647 3509 3647 2328 
Q 3647 1150 3233 529 
Q 2819 -91 2034 -91 
Q 1250 -91 836 529 
Q 422 1150 422 2328 
Q 422 3509 836 4129 
Q 1250 4750 2034 4750 
z
" transform="scale(0.015625)"/>
       </defs>
       <use xlink:href="#DejaVuSans-30"/>
      </g>
     </g>
    </g>
    <g id="xtick_2">
     <g id="line2d_3">
      <path d="M 74.311809 148.36327 
L 74.311809 0.72 
" clip-path="url(#paf0fc3a4af)" style="fill: none; stroke-dasharray: 0.8,1.32; stroke-dashoffset: 0; stroke: #000000; stroke-opacity: 0.5; stroke-width: 0.8"/>
     </g>
     <g id="line2d_4">
      <g>
       <use xlink:href="#mf03c09e0b5" x="74.311809" y="148.36327" style="stroke: #000000; stroke-width: 0.8"/>
      </g>
     </g>
     <g id="text_2">
      <!-- 5 -->
      <g transform="translate(71.130559 162.961707) scale(0.1 -0.1)">
       <defs>
        <path id="DejaVuSans-35" d="M 691 4666 
L 3169 4666 
L 3169 4134 
L 1269 4134 
L 1269 2991 
Q 1406 3038 1543 3061 
Q 1681 3084 1819 3084 
Q 2600 3084 3056 2656 
Q 3513 2228 3513 1497 
Q 3513 744 3044 326 
Q 2575 -91 1722 -91 
Q 1428 -91 1123 -41 
Q 819 9 494 109 
L 494 744 
Q 775 591 1075 516 
Q 1375 441 1709 441 
Q 2250 441 2565 725 
Q 2881 1009 2881 1497 
Q 2881 1984 2565 2268 
Q 2250 2553 1709 2553 
Q 1456 2553 1204 2497 
Q 953 2441 691 2322 
L 691 4666 
z
" transform="scale(0.015625)"/>
       </defs>
       <use xlink:href="#DejaVuSans-35"/>
      </g>
     </g>
    </g>
    <g id="xtick_3">
     <g id="line2d_5">
      <path d="M 124.862993 148.36327 
L 124.862993 0.72 
" clip-path="url(#paf0fc3a4af)" style="fill: none; stroke-dasharray: 0.8,1.32; stroke-dashoffset: 0; stroke: #000000; stroke-opacity: 0.5; stroke-width: 0.8"/>
     </g>
     <g id="line2d_6">
      <g>
       <use xlink:href="#mf03c09e0b5" x="124.862993" y="148.36327" style="stroke: #000000; stroke-width: 0.8"/>
      </g>
     </g>
     <g id="text_3">
      <!-- 10 -->
      <g transform="translate(118.500493 162.961707) scale(0.1 -0.1)">
       <defs>
        <path id="DejaVuSans-31" d="M 794 531 
L 1825 531 
L 1825 4091 
L 703 3866 
L 703 4441 
L 1819 4666 
L 2450 4666 
L 2450 531 
L 3481 531 
L 3481 0 
L 794 0 
L 794 531 
z
" transform="scale(0.015625)"/>
       </defs>
       <use xlink:href="#DejaVuSans-31"/>
       <use xlink:href="#DejaVuSans-30" x="63.623047"/>
      </g>
     </g>
    </g>
    <g id="xtick_4">
     <g id="line2d_7">
      <path d="M 175.414178 148.36327 
L 175.414178 0.72 
" clip-path="url(#paf0fc3a4af)" style="fill: none; stroke-dasharray: 0.8,1.32; stroke-dashoffset: 0; stroke: #000000; stroke-opacity: 0.5; stroke-width: 0.8"/>
     </g>
     <g id="line2d_8">
      <g>
       <use xlink:href="#mf03c09e0b5" x="175.414178" y="148.36327" style="stroke: #000000; stroke-width: 0.8"/>
      </g>
     </g>
     <g id="text_4">
      <!-- 15 -->
      <g transform="translate(169.051678 162.961707) scale(0.1 -0.1)">
       <use xlink:href="#DejaVuSans-31"/>
       <use xlink:href="#DejaVuSans-35" x="63.623047"/>
      </g>
     </g>
    </g>
    <g id="xtick_5">
     <g id="line2d_9">
      <path d="M 225.965362 148.36327 
L 225.965362 0.72 
" clip-path="url(#paf0fc3a4af)" style="fill: none; stroke-dasharray: 0.8,1.32; stroke-dashoffset: 0; stroke: #000000; stroke-opacity: 0.5; stroke-width: 0.8"/>
     </g>
     <g id="line2d_10">
      <g>
       <use xlink:href="#mf03c09e0b5" x="225.965362" y="148.36327" style="stroke: #000000; stroke-width: 0.8"/>
      </g>
     </g>
     <g id="text_5">
      <!-- 20 -->
      <g transform="translate(219.602862 162.961707) scale(0.1 -0.1)">
       <defs>
        <path id="DejaVuSans-32" d="M 1228 531 
L 3431 531 
L 3431 0 
L 469 0 
L 469 531 
Q 828 903 1448 1529 
Q 2069 2156 2228 2338 
Q 2531 2678 2651 2914 
Q 2772 3150 2772 3378 
Q 2772 3750 2511 3984 
Q 2250 4219 1831 4219 
Q 1534 4219 1204 4116 
Q 875 4013 500 3803 
L 500 4441 
Q 881 4594 1212 4672 
Q 1544 4750 1819 4750 
Q 2544 4750 2975 4387 
Q 3406 4025 3406 3419 
Q 3406 3131 3298 2873 
Q 3191 2616 2906 2266 
Q 2828 2175 2409 1742 
Q 1991 1309 1228 531 
z
" transform="scale(0.015625)"/>
       </defs>
       <use xlink:href="#DejaVuSans-32"/>
       <use xlink:href="#DejaVuSans-30" x="63.623047"/>
      </g>
     </g>
    </g>
    <g id="xtick_6">
     <g id="line2d_11">
      <path d="M 276.516546 148.36327 
L 276.516546 0.72 
" clip-path="url(#paf0fc3a4af)" style="fill: none; stroke-dasharray: 0.8,1.32; stroke-dashoffset: 0; stroke: #000000; stroke-opacity: 0.5; stroke-width: 0.8"/>
     </g>
     <g id="line2d_12">
      <g>
       <use xlink:href="#mf03c09e0b5" x="276.516546" y="148.36327" style="stroke: #000000; stroke-width: 0.8"/>
      </g>
     </g>
     <g id="text_6">
      <!-- 25 -->
      <g transform="translate(270.154046 162.961707) scale(0.1 -0.1)">
       <use xlink:href="#DejaVuSans-32"/>
       <use xlink:href="#DejaVuSans-35" x="63.623047"/>
      </g>
     </g>
    </g>
    <g id="xtick_7">
     <g id="line2d_13">
      <path d="M 327.06773 148.36327 
L 327.06773 0.72 
" clip-path="url(#paf0fc3a4af)" style="fill: none; stroke-dasharray: 0.8,1.32; stroke-dashoffset: 0; stroke: #000000; stroke-opacity: 0.5; stroke-width: 0.8"/>
     </g>
     <g id="line2d_14">
      <g>
       <use xlink:href="#mf03c09e0b5" x="327.06773" y="148.36327" style="stroke: #000000; stroke-width: 0.8"/>
      </g>
     </g>
     <g id="text_7">
      <!-- 30 -->
      <g transform="translate(320.70523 162.961707) scale(0.1 -0.1)">
       <defs>
        <path id="DejaVuSans-33" d="M 2597 2516 
Q 3050 2419 3304 2112 
Q 3559 1806 3559 1356 
Q 3559 666 3084 287 
Q 2609 -91 1734 -91 
Q 1441 -91 1130 -33 
Q 819 25 488 141 
L 488 750 
Q 750 597 1062 519 
Q 1375 441 1716 441 
Q 2309 441 2620 675 
Q 2931 909 2931 1356 
Q 2931 1769 2642 2001 
Q 2353 2234 1838 2234 
L 1294 2234 
L 1294 2753 
L 1863 2753 
Q 2328 2753 2575 2939 
Q 2822 3125 2822 3475 
Q 2822 3834 2567 4026 
Q 2313 4219 1838 4219 
Q 1578 4219 1281 4162 
Q 984 4106 628 3988 
L 628 4550 
Q 988 4650 1302 4700 
Q 1616 4750 1894 4750 
Q 2613 4750 3031 4423 
Q 3450 4097 3450 3541 
Q 3450 3153 3228 2886 
Q 3006 2619 2597 2516 
z
" transform="scale(0.015625)"/>
       </defs>
       <use xlink:href="#DejaVuSans-33"/>
       <use xlink:href="#DejaVuSans-30" x="63.623047"/>
      </g>
     </g>
    </g>
    <g id="text_8">
     <!-- Zeit [s] -->
     <g transform="translate(171.293979 172.639832) scale(0.1 -0.1)">
      <defs>
       <path id="DejaVuSans-5a" d="M 359 4666 
L 4025 4666 
L 4025 4184 
L 1075 531 
L 4097 531 
L 4097 0 
L 288 0 
L 288 481 
L 3238 4134 
L 359 4134 
L 359 4666 
z
" transform="scale(0.015625)"/>
       <path id="DejaVuSans-65" d="M 3597 1894 
L 3597 1613 
L 953 1613 
Q 991 1019 1311 708 
Q 1631 397 2203 397 
Q 2534 397 2845 478 
Q 3156 559 3463 722 
L 3463 178 
Q 3153 47 2828 -22 
Q 2503 -91 2169 -91 
Q 1331 -91 842 396 
Q 353 884 353 1716 
Q 353 2575 817 3079 
Q 1281 3584 2069 3584 
Q 2775 3584 3186 3129 
Q 3597 2675 3597 1894 
z
M 3022 2063 
Q 3016 2534 2758 2815 
Q 2500 3097 2075 3097 
Q 1594 3097 1305 2825 
Q 1016 2553 972 2059 
L 3022 2063 
z
" transform="scale(0.015625)"/>
       <path id="DejaVuSans-69" d="M 603 3500 
L 1178 3500 
L 1178 0 
L 603 0 
L 603 3500 
z
M 603 4863 
L 1178 4863 
L 1178 4134 
L 603 4134 
L 603 4863 
z
" transform="scale(0.015625)"/>
       <path id="DejaVuSans-74" d="M 1172 4494 
L 1172 3500 
L 2356 3500 
L 2356 3053 
L 1172 3053 
L 1172 1153 
Q 1172 725 1289 603 
Q 1406 481 1766 481 
L 2356 481 
L 2356 0 
L 1766 0 
Q 1100 0 847 248 
Q 594 497 594 1153 
L 594 3053 
L 172 3053 
L 172 3500 
L 594 3500 
L 594 4494 
L 1172 4494 
z
" transform="scale(0.015625)"/>
       <path id="DejaVuSans-20" transform="scale(0.015625)"/>
       <path id="DejaVuSans-5b" d="M 550 4863 
L 1875 4863 
L 1875 4416 
L 1125 4416 
L 1125 -397 
L 1875 -397 
L 1875 -844 
L 550 -844 
L 550 4863 
z
" transform="scale(0.015625)"/>
       <path id="DejaVuSans-73" d="M 2834 3397 
L 2834 2853 
Q 2591 2978 2328 3040 
Q 2066 3103 1784 3103 
Q 1356 3103 1142 2972 
Q 928 2841 928 2578 
Q 928 2378 1081 2264 
Q 1234 2150 1697 2047 
L 1894 2003 
Q 2506 1872 2764 1633 
Q 3022 1394 3022 966 
Q 3022 478 2636 193 
Q 2250 -91 1575 -91 
Q 1294 -91 989 -36 
Q 684 19 347 128 
L 347 722 
Q 666 556 975 473 
Q 1284 391 1588 391 
Q 1994 391 2212 530 
Q 2431 669 2431 922 
Q 2431 1156 2273 1281 
Q 2116 1406 1581 1522 
L 1381 1569 
Q 847 1681 609 1914 
Q 372 2147 372 2553 
Q 372 3047 722 3315 
Q 1072 3584 1716 3584 
Q 2034 3584 2315 3537 
Q 2597 3491 2834 3397 
z
" transform="scale(0.015625)"/>
       <path id="DejaVuSans-5d" d="M 1947 4863 
L 1947 -844 
L 622 -844 
L 622 -397 
L 1369 -397 
L 1369 4416 
L 622 4416 
L 622 4863 
L 1947 4863 
z
" transform="scale(0.015625)"/>
      </defs>
      <use xlink:href="#DejaVuSans-5a"/>
      <use xlink:href="#DejaVuSans-65" x="68.505859"/>
      <use xlink:href="#DejaVuSans-69" x="130.029297"/>
      <use xlink:href="#DejaVuSans-74" x="157.8125"/>
      <use xlink:href="#DejaVuSans-20" x="197.021484"/>
      <use xlink:href="#DejaVuSans-5b" x="228.808594"/>
      <use xlink:href="#DejaVuSans-73" x="267.822266"/>
      <use xlink:href="#DejaVuSans-5d" x="319.921875"/>
     </g>
    </g>
   </g>
   <g id="matplotlib.axis_2">
    <g id="ytick_1">
     <g id="line2d_15">
      <path d="M 23.760625 144.960604 
L 354.71952 144.960604 
" clip-path="url(#paf0fc3a4af)" style="fill: none; stroke-dasharray: 0.8,1.32; stroke-dashoffset: 0; stroke: #000000; stroke-opacity: 0.5; stroke-width: 0.8"/>
     </g>
     <g id="line2d_16">
      <defs>
       <path id="m95770b8396" d="M 0 0 
L -3.5 0 
" style="stroke: #000000; stroke-width: 0.8"/>
      </defs>
      <g>
       <use xlink:href="#m95770b8396" x="23.760625" y="144.960604" style="stroke: #000000; stroke-width: 0.8"/>
      </g>
     </g>
     <g id="text_9">
      <!-- 0 -->
      <g transform="translate(10.398125 148.759823) scale(0.1 -0.1)">
       <use xlink:href="#DejaVuSans-30"/>
      </g>
     </g>
    </g>
    <g id="ytick_2">
     <g id="line2d_17">
      <path d="M 23.760625 105.672654 
L 354.71952 105.672654 
" clip-path="url(#paf0fc3a4af)" style="fill: none; stroke-dasharray: 0.8,1.32; stroke-dashoffset: 0; stroke: #000000; stroke-opacity: 0.5; stroke-width: 0.8"/>
     </g>
     <g id="line2d_18">
      <g>
       <use xlink:href="#m95770b8396" x="23.760625" y="105.672654" style="stroke: #000000; stroke-width: 0.8"/>
      </g>
     </g>
     <g id="text_10">
      <!-- 1 -->
      <g transform="translate(10.398125 109.471872) scale(0.1 -0.1)">
       <use xlink:href="#DejaVuSans-31"/>
      </g>
     </g>
    </g>
    <g id="ytick_3">
     <g id="line2d_19">
      <path d="M 23.760625 66.384703 
L 354.71952 66.384703 
" clip-path="url(#paf0fc3a4af)" style="fill: none; stroke-dasharray: 0.8,1.32; stroke-dashoffset: 0; stroke: #000000; stroke-opacity: 0.5; stroke-width: 0.8"/>
     </g>
     <g id="line2d_20">
      <g>
       <use xlink:href="#m95770b8396" x="23.760625" y="66.384703" style="stroke: #000000; stroke-width: 0.8"/>
      </g>
     </g>
     <g id="text_11">
      <!-- 2 -->
      <g transform="translate(10.398125 70.183922) scale(0.1 -0.1)">
       <use xlink:href="#DejaVuSans-32"/>
      </g>
     </g>
    </g>
    <g id="ytick_4">
     <g id="line2d_21">
      <path d="M 23.760625 27.096752 
L 354.71952 27.096752 
" clip-path="url(#paf0fc3a4af)" style="fill: none; stroke-dasharray: 0.8,1.32; stroke-dashoffset: 0; stroke: #000000; stroke-opacity: 0.5; stroke-width: 0.8"/>
     </g>
     <g id="line2d_22">
      <g>
       <use xlink:href="#m95770b8396" x="23.760625" y="27.096752" style="stroke: #000000; stroke-width: 0.8"/>
      </g>
     </g>
     <g id="text_12">
      <!-- 3 -->
      <g transform="translate(10.398125 30.895971) scale(0.1 -0.1)">
       <use xlink:href="#DejaVuSans-33"/>
      </g>
     </g>
    </g>
    <g id="text_13">
     <!-- Kraft [N] -->
     <g transform="translate(8.318438 95.804135) rotate(-90) scale(0.1 -0.1)">
      <defs>
       <path id="DejaVuSans-4b" d="M 628 4666 
L 1259 4666 
L 1259 2694 
L 3353 4666 
L 4166 4666 
L 1850 2491 
L 4331 0 
L 3500 0 
L 1259 2247 
L 1259 0 
L 628 0 
L 628 4666 
z
" transform="scale(0.015625)"/>
       <path id="DejaVuSans-72" d="M 2631 2963 
Q 2534 3019 2420 3045 
Q 2306 3072 2169 3072 
Q 1681 3072 1420 2755 
Q 1159 2438 1159 1844 
L 1159 0 
L 581 0 
L 581 3500 
L 1159 3500 
L 1159 2956 
Q 1341 3275 1631 3429 
Q 1922 3584 2338 3584 
Q 2397 3584 2469 3576 
Q 2541 3569 2628 3553 
L 2631 2963 
z
" transform="scale(0.015625)"/>
       <path id="DejaVuSans-61" d="M 2194 1759 
Q 1497 1759 1228 1600 
Q 959 1441 959 1056 
Q 959 750 1161 570 
Q 1363 391 1709 391 
Q 2188 391 2477 730 
Q 2766 1069 2766 1631 
L 2766 1759 
L 2194 1759 
z
M 3341 1997 
L 3341 0 
L 2766 0 
L 2766 531 
Q 2569 213 2275 61 
Q 1981 -91 1556 -91 
Q 1019 -91 701 211 
Q 384 513 384 1019 
Q 384 1609 779 1909 
Q 1175 2209 1959 2209 
L 2766 2209 
L 2766 2266 
Q 2766 2663 2505 2880 
Q 2244 3097 1772 3097 
Q 1472 3097 1187 3025 
Q 903 2953 641 2809 
L 641 3341 
Q 956 3463 1253 3523 
Q 1550 3584 1831 3584 
Q 2591 3584 2966 3190 
Q 3341 2797 3341 1997 
z
" transform="scale(0.015625)"/>
       <path id="DejaVuSans-66" d="M 2375 4863 
L 2375 4384 
L 1825 4384 
Q 1516 4384 1395 4259 
Q 1275 4134 1275 3809 
L 1275 3500 
L 2222 3500 
L 2222 3053 
L 1275 3053 
L 1275 0 
L 697 0 
L 697 3053 
L 147 3053 
L 147 3500 
L 697 3500 
L 697 3744 
Q 697 4328 969 4595 
Q 1241 4863 1831 4863 
L 2375 4863 
z
" transform="scale(0.015625)"/>
       <path id="DejaVuSans-4e" d="M 628 4666 
L 1478 4666 
L 3547 763 
L 3547 4666 
L 4159 4666 
L 4159 0 
L 3309 0 
L 1241 3903 
L 1241 0 
L 628 0 
L 628 4666 
z
" transform="scale(0.015625)"/>
      </defs>
      <use xlink:href="#DejaVuSans-4b"/>
      <use xlink:href="#DejaVuSans-72" x="65.576172"/>
      <use xlink:href="#DejaVuSans-61" x="106.689453"/>
      <use xlink:href="#DejaVuSans-66" x="167.96875"/>
      <use xlink:href="#DejaVuSans-74" x="201.423828"/>
      <use xlink:href="#DejaVuSans-20" x="240.632812"/>
      <use xlink:href="#DejaVuSans-5b" x="272.419922"/>
      <use xlink:href="#DejaVuSans-4e" x="311.433594"/>
      <use xlink:href="#DejaVuSans-5d" x="386.238281"/>
     </g>
    </g>
   </g>
   <g id="line2d_23">
    <path d="M 23.760625 144.963302 
L 28.800145 144.96837 
L 29.393432 144.953384 
L 35.199052 144.94976 
L 35.881395 144.96837 
L 41.430343 144.966054 
L 42.287129 144.948441 
L 43.366873 144.965619 
L 43.714226 144.95836 
L 51.133527 144.963447 
L 51.887668 144.966922 
L 54.798738 144.950607 
L 55.348607 144.95474 
L 57.20398 144.965619 
L 58.374345 144.951957 
L 59.248434 144.96475 
L 63.36992 144.959697 
L 64.616014 144.96475 
L 69.679822 144.95836 
L 72.643398 144.960696 
L 73.630575 144.956098 
L 77.376761 144.963447 
L 78.192706 144.945619 
L 78.505811 144.95696 
L 354.71952 144.969674 
L 354.71952 144.969674 
" clip-path="url(#paf0fc3a4af)" style="fill: none; stroke: #0000ff; stroke-opacity: 0.5; stroke-width: 2.1; stroke-linecap: square"/>
   </g>
   <g id="line2d_24">
    <path d="M 23.760625 21.206963 
L 23.823183 21.178439 
L 23.935733 20.128779 
L 24.00659 22.387355 
L 24.132448 19.108769 
L 24.192763 20.262803 
L 24.276805 21.609111 
L 24.415144 16.72467 
L 24.497167 18.195091 
L 24.688173 14.030216 
L 24.92515 20.707778 
L 25.006073 21.998254 
L 25.088114 18.839359 
L 25.210508 20.418983 
L 25.535928 29.494044 
L 25.881353 21.471606 
L 26.08524 24.433161 
L 26.21005 24.068121 
L 26.37165 26.517738 
L 26.514124 27.478983 
L 26.616127 34.052358 
L 26.698566 34.334099 
L 26.861533 33.646321 
L 27.125025 22.937562 
L 27.206464 23.298154 
L 27.278716 24.974288 
L 27.288254 23.787755 
L 27.703006 19.964399 
L 27.882467 29.908157 
L 28.046053 29.193853 
L 28.12738 30.718819 
L 28.290441 24.617003 
L 28.458842 28.927253 
L 28.962338 11.68414 
L 29.085849 13.573524 
L 29.132763 16.607405 
L 29.211111 14.59999 
L 29.311899 14.965527 
L 29.393432 17.489286 
L 29.556643 15.139245 
L 29.720662 22.713286 
L 29.969324 18.893868 
L 30.067242 19.867494 
L 30.23093 16.167902 
L 30.487515 22.43977 
L 30.739785 17.264194 
L 30.918626 16.672561 
L 31.14877 20.841557 
L 31.413049 14.481193 
L 31.50373 13.818121 
L 31.657004 19.084112 
L 31.73858 17.056223 
L 31.821573 18.567687 
L 31.908879 17.81112 
L 32.007357 15.23268 
L 32.168199 20.393116 
L 32.252556 21.615465 
L 32.414672 16.400062 
L 32.577689 11.865026 
L 32.883298 17.199272 
L 32.944621 20.433856 
L 33.005759 15.846528 
L 33.148205 19.308935 
L 33.333061 30.999032 
L 33.432674 30.502885 
L 33.677397 24.153523 
L 33.865427 21.486109 
L 34.013422 16.26271 
L 34.436736 20.26366 
L 34.516678 19.003047 
L 34.605054 19.613039 
L 34.704844 23.257683 
L 34.788095 25.671926 
L 34.8775 24.785333 
L 34.890605 28.523275 
L 34.953686 21.429686 
L 35.052404 21.523943 
L 35.199052 18.883325 
L 35.304696 20.104351 
L 35.384433 19.695754 
L 35.453563 20.39461 
L 35.53691 20.010551 
L 35.646427 18.969196 
L 35.82105 20.071088 
L 35.840116 19.554012 
L 35.96619 12.334278 
L 36.082802 16.798544 
L 36.39756 21.393318 
L 36.582685 13.215741 
L 36.845257 20.371279 
L 36.90643 18.808758 
L 37.071644 14.290647 
L 37.212914 17.348088 
L 37.402668 23.062741 
L 37.517816 22.722661 
L 37.621356 23.538176 
L 37.723579 21.285317 
L 37.856852 22.894403 
L 37.917721 21.984663 
L 38.109142 15.010572 
L 38.260876 17.679885 
L 38.333526 15.553265 
L 38.395479 16.416118 
L 38.740482 30.382735 
L 38.863743 29.30179 
L 39.035633 25.217361 
L 39.147945 25.584355 
L 39.229192 26.267619 
L 39.576335 7.13899 
L 40.08532 20.707997 
L 40.290573 16.498056 
L 40.349975 17.727081 
L 40.431827 17.70075 
L 40.512802 18.709127 
L 40.698216 14.504864 
L 40.89984 11.529039 
L 41.009454 14.163353 
L 41.102783 14.91494 
L 41.266267 25.049035 
L 41.383374 22.338219 
L 41.430343 23.187398 
L 41.637676 24.238912 
L 41.695542 23.113842 
L 41.872135 27.621701 
L 42.082347 21.1877 
L 42.143258 21.336156 
L 42.287129 18.446966 
L 42.367311 19.176424 
L 42.531452 24.271356 
L 42.715215 20.823137 
L 42.877806 26.069951 
L 42.999882 24.499548 
L 43.062169 27.906595 
L 43.183323 28.233841 
L 43.227384 26.669104 
L 43.366873 26.178031 
L 43.42792 25.377871 
L 43.489487 26.41034 
L 43.632016 24.820113 
L 43.816493 22.011026 
L 44.022802 23.556857 
L 44.14714 20.84803 
L 44.248729 22.370966 
L 44.320804 20.161517 
L 44.405937 22.273406 
L 44.549708 21.643868 
L 44.6626 29.12781 
L 44.74369 28.512508 
L 45.162726 23.378289 
L 45.216729 24.48852 
L 45.236388 23.71314 
L 45.318112 23.824539 
L 45.509011 22.396613 
L 45.629216 19.301286 
L 45.746367 21.350804 
L 45.911996 26.118251 
L 46.238181 29.599566 
L 46.484993 21.710709 
L 46.502861 22.826478 
L 46.583868 21.813112 
L 46.74714 24.300038 
L 46.869218 22.966217 
L 46.934544 23.07261 
L 47.013164 22.76181 
L 47.078865 20.506798 
L 47.200603 21.492602 
L 47.220071 21.220898 
L 47.364474 28.248941 
L 47.445819 27.4969 
L 47.504814 26.395303 
L 47.669901 25.51152 
L 47.790456 20.973017 
L 47.935237 25.767117 
L 48.443515 18.188427 
L 48.628034 23.037315 
L 48.774298 15.443887 
L 48.87229 18.620015 
L 49.013884 19.083524 
L 49.116894 20.137785 
L 49.136391 24.141883 
L 49.567403 22.966427 
L 50.012448 23.056663 
L 50.487792 25.878008 
L 50.932101 22.966552 
L 51.051123 16.871213 
L 51.214725 16.22076 
L 51.29739 16.23943 
L 51.602527 25.555512 
L 51.624532 23.77037 
L 51.805988 19.396591 
L 51.86852 20.295158 
L 51.887668 22.689039 
L 52.175419 26.197612 
L 52.458523 21.898128 
L 52.561336 24.367191 
L 52.73205 22.321588 
L 53.091121 11.010639 
L 53.253017 12.86141 
L 53.445174 14.083133 
L 53.559067 14.393812 
L 53.579758 13.849036 
L 53.744641 23.415522 
L 53.905778 18.208942 
L 53.9885 18.454284 
L 54.190851 20.549759 
L 54.298301 20.256897 
L 54.354312 18.910859 
L 54.599804 25.264326 
L 54.676301 24.331472 
L 54.923489 17.852755 
L 55.027711 19.142178 
L 55.084034 21.506118 
L 55.165946 21.400057 
L 55.534381 16.472521 
L 55.756671 21.328403 
L 55.858339 20.644155 
L 56.021143 21.096111 
L 56.125194 18.118833 
L 56.22471 11.142038 
L 56.285464 12.819419 
L 56.449466 21.4895 
L 56.775726 14.196362 
L 56.940797 19.736803 
L 57.04064 25.528212 
L 57.20398 19.166483 
L 57.285821 19.567671 
L 57.366327 23.744839 
L 57.448467 22.791709 
L 57.590095 20.033388 
L 57.610286 20.721589 
L 57.887989 19.418392 
L 57.888329 17.318941 
L 57.988165 20.492963 
L 58.063516 21.193661 
L 58.162769 21.021171 
L 58.293752 21.400298 
L 58.456132 31.894481 
L 58.658109 30.571647 
L 58.861846 25.528852 
L 58.88216 27.365381 
L 58.962964 25.126253 
L 59.046981 23.481717 
L 59.147004 25.638601 
L 59.390979 15.947077 
L 59.61421 20.148575 
L 59.637041 20.153383 
L 59.98528 17.282512 
L 60.143668 20.086394 
L 60.310567 23.656095 
L 60.532023 21.207016 
L 60.577034 22.163404 
L 60.81704 29.794659 
L 61.002225 30.214179 
L 61.206519 25.369319 
L 61.347068 30.619111 
L 61.571628 20.789391 
L 61.734298 21.720721 
L 61.826621 21.700208 
L 62.00296 20.885976 
L 62.060251 22.291535 
L 62.183349 19.338307 
L 62.38756 23.165426 
L 62.428641 23.718149 
L 62.510793 23.46413 
L 62.630997 22.987064 
L 62.85943 18.083908 
L 63.002602 19.51679 
L 63.088499 21.509517 
L 63.36992 12.841766 
L 63.494618 13.103072 
L 63.616323 19.548598 
L 63.676017 19.150936 
L 63.778258 22.34751 
L 63.898241 20.948822 
L 63.945439 19.00435 
L 64.105591 21.971409 
L 64.188345 20.938287 
L 64.452366 10.485584 
L 65.288668 22.149215 
L 65.443801 22.576279 
L 65.534584 19.138334 
L 65.634142 24.526709 
L 65.765786 21.734535 
L 65.80296 22.127203 
L 65.924271 22.94748 
L 65.961161 21.801773 
L 66.044124 21.899715 
L 66.315843 24.749213 
L 66.414361 23.220729 
L 66.766334 11.712013 
L 66.88192 14.515027 
L 66.983514 13.645978 
L 67.088108 11.585474 
L 67.133888 8.267384 
L 67.248718 8.929053 
L 67.310084 10.746231 
L 67.463609 10.722089 
L 67.515075 8.173747 
L 67.635634 9.353855 
L 67.655757 11.27632 
L 67.78838 10.842821 
L 68.167243 4.101144 
L 68.411599 12.946992 
L 68.492463 11.824333 
L 68.742327 22.350831 
L 68.843028 22.438298 
L 69.168425 28.549858 
L 69.597994 18.847886 
L 69.679822 21.966559 
L 69.741898 20.575787 
L 70.108761 17.468617 
L 70.17362 20.064276 
L 70.273914 19.676515 
L 70.393871 18.885152 
L 70.517072 22.547228 
L 70.599301 23.662064 
L 70.68106 22.722546 
L 70.885362 17.206336 
L 70.944735 20.790551 
L 71.030155 19.665823 
L 71.088505 22.097614 
L 71.233558 23.397215 
L 71.374788 17.359172 
L 71.460565 16.789818 
L 71.68137 27.783745 
L 71.828209 27.865746 
L 71.848253 28.37042 
L 72.032043 26.313866 
L 72.19707 31.149345 
L 72.296796 30.514154 
L 72.703359 18.284577 
L 72.785154 18.235309 
L 72.953688 17.075153 
L 73.030493 17.098241 
L 73.132494 18.242525 
L 73.294482 17.697663 
L 73.464518 22.409162 
L 73.546908 19.607411 
L 73.630575 23.294726 
L 73.790144 25.38317 
L 73.949722 16.569441 
L 74.03106 18.504429 
L 74.152915 22.117626 
L 74.214364 20.7388 
L 74.397055 25.361064 
L 74.560308 16.691229 
L 74.764105 22.536043 
L 74.887264 20.2375 
L 74.972092 22.565293 
L 75.060402 22.022459 
L 75.2043 19.784069 
L 75.397555 31.285992 
L 75.825388 23.854749 
L 75.909279 24.343229 
L 76.009732 24.145623 
L 76.173566 17.04736 
L 76.315224 15.564191 
L 76.499197 15.126306 
L 76.702115 13.990187 
L 76.906153 9.414615 
L 77.028703 10.234044 
L 77.297276 17.873397 
L 77.376761 18.692234 
L 77.506639 17.12508 
L 77.744933 20.448537 
L 77.948956 20.433703 
L 78.192706 16.280787 
L 78.2757 19.856371 
L 78.37287 17.739478 
L 78.644411 24.247408 
L 78.690642 23.008975 
L 78.787899 24.785795 
L 78.929172 23.731156 
L 79.092598 25.753255 
L 79.15602 25.387901 
L 79.197889 29.724219 
L 79.26305 27.363292 
L 79.360907 25.345947 
L 79.52559 30.313676 
L 79.605287 28.075565 
L 79.769122 32.957347 
L 79.852939 29.263404 
L 80.040915 24.465902 
L 80.195982 28.218077 
L 80.367368 15.937075 
L 80.788472 22.686142 
L 80.867588 22.266794 
L 81.033533 18.360556 
L 81.295291 29.250538 
L 81.377865 26.352419 
L 81.623614 28.745031 
L 81.707348 27.311672 
L 81.887334 30.830423 
L 81.968531 29.966358 
L 82.131161 23.501528 
L 82.213052 22.34905 
L 82.294174 24.571334 
L 82.642227 19.310688 
L 82.722685 21.815013 
L 82.805485 20.955067 
L 83.069424 26.723735 
L 83.150899 21.753622 
L 83.313442 28.258731 
L 83.395328 27.511945 
L 83.486848 30.756767 
L 83.641428 23.461056 
L 83.723823 24.617296 
L 83.84569 23.423811 
L 83.904713 21.536673 
L 83.989909 24.288448 
L 84.169342 16.057838 
L 84.232023 20.659848 
L 84.321583 18.601687 
L 84.496114 23.751879 
L 84.577692 22.059465 
L 84.661534 22.752639 
L 84.823257 22.273261 
L 85.007991 27.072872 
L 85.171928 19.955361 
L 85.428848 21.557056 
L 85.497578 20.600938 
L 85.666117 22.744694 
L 85.767979 17.729926 
L 85.926696 18.805191 
L 86.008912 22.015308 
L 86.171712 17.915489 
L 86.377094 22.294096 
L 86.437795 20.536201 
L 86.642352 23.975885 
L 86.763667 20.451519 
L 86.92805 22.173315 
L 87.054072 22.808074 
L 87.198936 18.303612 
L 87.565088 24.850794 
L 87.604165 24.405048 
L 87.86953 18.242189 
L 87.890047 21.051453 
L 88.09361 24.031564 
L 88.23838 19.757793 
L 88.300534 19.117951 
L 88.404356 19.410473 
L 88.606183 24.097733 
L 88.686042 23.686079 
L 88.789283 18.058698 
L 88.891762 18.219044 
L 88.953274 23.936761 
L 88.971739 21.087183 
L 89.054176 19.22815 
L 89.257855 22.363582 
L 89.379367 20.767634 
L 89.460411 24.39516 
L 89.542826 22.778349 
L 89.624194 27.978338 
L 89.848316 22.923346 
L 89.932055 24.903194 
L 90.032487 23.992481 
L 90.195522 20.024173 
L 90.273089 18.016044 
L 90.298875 19.229366 
L 90.420078 19.525572 
L 90.684609 17.430983 
L 90.72507 18.029723 
L 90.847619 19.935288 
L 90.986232 20.333697 
L 91.285202 26.126473 
L 91.356373 22.313509 
L 91.52127 25.225005 
L 91.686645 19.680614 
L 91.826126 22.798681 
L 91.910076 23.274645 
L 92.081136 17.678385 
L 92.15731 19.765899 
L 92.337972 22.891913 
L 92.419683 26.94926 
L 92.507675 26.906706 
L 92.665362 23.146834 
L 92.785811 23.827209 
L 92.989292 29.549505 
L 93.030276 29.951401 
L 93.277109 22.640802 
L 93.43891 27.890836 
L 93.500942 26.849333 
L 93.665769 24.807912 
L 93.704875 20.989842 
L 93.791914 21.998702 
L 93.927357 22.447728 
L 94.049839 22.129967 
L 94.136036 22.257518 
L 94.35525 16.218921 
L 94.438975 16.292062 
L 94.518421 16.055916 
L 94.564718 19.922729 
L 94.642392 17.428511 
L 94.705402 15.658192 
L 94.869766 19.78614 
L 95.072048 26.06889 
L 95.174018 26.087359 
L 95.683884 15.208421 
L 95.826448 8.296724 
L 95.889158 7.946817 
L 96.132021 14.911161 
L 96.722507 24.136993 
L 96.887191 18.561557 
L 96.96732 20.65859 
L 97.050001 19.903369 
L 97.395311 22.430103 
L 97.497787 23.824794 
L 97.578871 21.309706 
L 97.641426 24.483909 
L 97.743059 24.016122 
L 97.827046 23.544831 
L 97.926778 25.671603 
L 98.029211 24.731545 
L 98.23566 20.393589 
L 98.396793 21.336186 
L 98.661314 17.713242 
L 98.823414 21.945551 
L 98.933006 22.04632 
L 99.154479 14.244272 
L 99.246182 12.44593 
L 99.4967 16.42017 
L 99.57871 13.974434 
L 99.668678 14.126165 
L 99.905237 17.073613 
L 99.989805 27.150162 
L 100.089294 28.958538 
L 100.170185 28.41231 
L 100.385534 29.853057 
L 100.42082 28.70214 
L 100.497198 28.989185 
L 100.679864 33.900707 
L 100.761555 32.973895 
L 100.843828 28.924478 
L 100.925086 30.214886 
L 101.006171 33.599968 
L 101.270107 31.48014 
L 101.597532 23.798212 
L 101.678832 27.473064 
L 101.879204 21.961954 
L 101.942346 23.744047 
L 102.024719 23.671029 
L 102.106079 23.65277 
L 102.273162 22.967596 
L 102.435092 25.359672 
L 102.535166 20.903213 
L 102.617729 22.917234 
L 102.697145 21.874746 
L 102.78494 16.464176 
L 102.861592 16.874296 
L 103.11361 23.147397 
L 103.189983 21.274575 
L 103.297728 21.407879 
L 103.416707 25.50772 
L 103.453561 25.208493 
L 103.53821 24.781839 
L 103.616272 24.821072 
L 103.699774 19.824634 
L 103.719291 20.990824 
L 103.781819 21.960685 
L 103.966419 18.893068 
L 104.048094 20.568211 
L 104.150779 19.887155 
L 104.209277 18.383657 
L 104.555367 24.65384 
L 104.643292 22.845999 
L 104.722374 24.518537 
L 104.845708 24.344162 
L 104.979149 23.731615 
L 105.212527 16.346323 
L 105.294119 16.990235 
L 105.45599 17.049441 
L 105.496435 19.093574 
L 105.570066 18.762529 
L 105.639706 16.080383 
L 105.803195 16.442269 
L 105.924397 15.478684 
L 106.029602 17.699506 
L 106.15026 25.334038 
L 106.333305 24.740634 
L 106.422845 22.669517 
L 106.578026 25.08753 
L 106.659108 25.790006 
L 106.843424 24.110197 
L 107.009701 18.265443 
L 107.071286 20.025824 
L 107.148558 18.752513 
L 107.250505 20.043384 
L 107.332764 22.714196 
L 107.49606 19.052154 
L 107.74125 24.505978 
L 107.761368 22.93745 
L 107.987174 19.801804 
L 108.107903 20.097813 
L 108.168614 16.615137 
L 108.259977 18.16748 
L 108.331445 17.783816 
L 108.55243 15.705378 
L 108.760089 18.552107 
L 108.922945 16.647833 
L 109.045295 18.70454 
L 109.126727 17.439399 
L 109.250037 21.453214 
L 109.372058 13.166431 
L 109.433954 14.974797 
L 109.514456 17.120285 
L 109.596615 14.011516 
L 109.699872 15.969368 
L 109.860958 11.955213 
L 109.96356 13.60208 
L 110.126226 7.700876 
L 110.146477 10.535238 
L 110.275933 15.465232 
L 110.391371 10.914559 
L 110.615897 20.7574 
L 110.737065 20.975974 
L 110.777751 20.336866 
L 110.94159 25.29968 
L 111.12366 22.241809 
L 111.307287 25.618457 
L 111.718853 17.193898 
L 111.799087 17.495093 
L 112.002503 21.547994 
L 112.042791 19.238723 
L 112.165501 19.773414 
L 112.307553 14.358643 
L 112.573467 22.393391 
L 112.675242 22.368398 
L 112.718168 19.646851 
L 112.817532 20.142727 
L 112.899292 24.936459 
L 112.980534 22.214302 
L 113.145415 22.355062 
L 113.222417 26.823012 
L 113.23807 26.399474 
L 113.42242 19.349855 
L 113.591242 24.927207 
L 113.733602 19.675385 
L 113.916217 25.561158 
L 114.080037 23.221857 
L 114.140643 23.391438 
L 114.185755 25.236835 
L 114.2631 24.491729 
L 114.426332 21.248248 
L 114.508857 24.192982 
L 114.917275 14.445245 
L 114.998298 14.84825 
L 115.100449 18.492956 
L 115.167019 17.247977 
L 115.387062 14.306429 
L 115.427589 16.323767 
L 115.533392 16.23505 
L 115.617498 19.175443 
L 115.836413 16.258259 
L 115.899747 20.582259 
L 116.102451 18.84289 
L 116.184875 20.045315 
L 116.273696 19.299681 
L 116.348318 21.997856 
L 116.431968 18.919669 
L 116.510421 20.170111 
L 116.592824 20.132165 
L 116.778243 19.260178 
L 116.859679 20.163151 
L 116.94032 18.930728 
L 117.021882 20.991419 
L 117.266452 19.284677 
L 117.390416 19.116547 
L 117.473216 17.713158 
L 117.553605 17.908544 
L 117.63562 18.876509 
L 117.73036 18.642649 
L 117.782083 21.618498 
L 117.858972 19.797364 
L 117.943053 19.16606 
L 118.044524 17.297976 
L 118.309851 22.277807 
L 118.454317 13.144332 
L 118.535583 15.433678 
L 118.622819 12.150188 
L 118.638224 20.240522 
L 118.718591 11.885205 
L 118.782663 11.871932 
L 118.965768 8.582815 
L 119.05231 8.976516 
L 119.289965 19.203237 
L 119.37617 16.138941 
L 119.475156 15.311682 
L 119.637607 19.678473 
L 119.727039 23.945217 
L 119.809412 22.437915 
L 119.963301 21.795364 
L 120.003708 17.844058 
L 120.064922 20.247057 
L 120.168481 17.86842 
L 120.231335 18.403025 
L 120.394775 23.245528 
L 120.557598 19.005884 
L 120.82256 27.671011 
L 120.964733 25.47348 
L 121.006306 28.298023 
L 121.08784 26.886987 
L 121.229362 20.407514 
L 121.310984 24.429597 
L 121.392626 24.411303 
L 121.595819 20.237935 
L 121.702587 20.146113 
L 121.844422 11.992373 
L 122.067663 24.429329 
L 122.166421 19.05466 
L 122.26327 19.701268 
L 122.409897 15.255226 
L 122.697115 20.476085 
L 122.797574 21.205986 
L 122.960689 13.278371 
L 123.184974 23.620138 
L 123.29162 23.682627 
L 123.34773 24.593758 
L 123.464141 22.894762 
L 123.573948 25.080347 
L 123.592841 24.86526 
L 123.735491 24.126193 
L 123.776854 27.840911 
L 123.858411 27.063716 
L 124.041582 23.298991 
L 124.122699 23.866216 
L 124.185937 22.700287 
L 124.285878 25.023011 
L 124.449477 21.492429 
L 124.594144 22.497377 
L 124.69551 20.870689 
L 124.713856 23.316697 
L 124.797778 22.879909 
L 125.102481 15.870453 
L 125.204271 17.656242 
L 125.547315 8.621727 
L 125.872683 16.28916 
L 126.056198 13.609911 
L 126.283116 22.547357 
L 126.299764 22.45739 
L 126.421494 22.903618 
L 126.48291 21.867648 
L 126.548566 22.877966 
L 126.564081 19.076168 
L 126.626169 25.530753 
L 126.730717 25.392133 
L 126.832001 28.856763 
L 126.891726 28.799769 
L 127.116446 22.808593 
L 127.224149 24.976412 
L 127.40284 23.414739 
L 127.486964 18.524864 
L 127.550226 19.158295 
L 127.681074 18.738172 
L 127.750121 19.378337 
L 127.834422 21.686384 
L 128.05635 15.091263 
L 128.445226 22.424876 
L 128.650599 20.443933 
L 128.688592 21.379726 
L 128.823423 31.354205 
L 128.954226 34.510751 
L 128.979078 33.155139 
L 129.077722 32.048564 
L 129.321503 26.884009 
L 129.505271 30.626166 
L 129.587156 24.84546 
L 129.68901 25.338057 
L 129.854095 23.930136 
L 130.198844 30.526791 
L 130.342257 28.972364 
L 130.383624 25.987768 
L 130.424717 30.657499 
L 130.505932 29.890291 
L 130.669329 25.900225 
L 130.811884 25.8459 
L 130.93609 27.281624 
L 131.140428 27.737521 
L 131.343502 20.614081 
L 131.608009 25.014389 
L 131.852133 18.924216 
L 131.933561 19.591063 
L 132.014731 19.182096 
L 132.221227 23.491517 
L 132.361954 17.365621 
L 132.606269 21.698517 
L 132.691026 21.195432 
L 132.871112 19.785313 
L 133.036061 14.182117 
L 133.115405 19.178084 
L 133.299276 22.327366 
L 133.319128 20.806664 
L 133.37505 19.777139 
L 133.570155 20.504469 
L 133.687591 20.793495 
L 133.816029 27.834595 
L 133.95583 26.053648 
L 134.130318 23.306195 
L 134.298699 23.424698 
L 134.380433 22.936084 
L 134.519444 23.4532 
L 134.634524 17.090121 
L 134.74405 18.06132 
L 134.887161 23.217998 
L 134.970114 23.659753 
L 135.07009 23.073572 
L 135.30389 18.433835 
L 135.416797 21.440136 
L 135.481754 26.344892 
L 135.674251 22.195453 
L 135.714381 22.923715 
L 135.917602 17.181455 
L 136.101109 21.207119 
L 136.161608 20.427267 
L 136.306541 20.2073 
L 136.427727 23.796685 
L 136.509261 14.444659 
L 136.573123 18.173215 
L 136.820574 30.284064 
L 137.066375 33.832533 
L 137.245827 22.623202 
L 137.388549 23.792155 
L 137.533079 24.865254 
L 137.755869 19.186085 
L 137.918735 13.219901 
L 138.000499 13.785232 
L 138.183316 22.915156 
L 138.245991 23.763556 
L 138.328222 21.201288 
L 138.429595 21.713396 
L 138.560505 20.760342 
L 138.775794 29.252946 
L 138.800569 33.480336 
L 138.857144 31.625853 
L 138.940297 27.986261 
L 139.020773 28.180066 
L 139.125864 27.55253 
L 139.511093 18.258139 
L 139.631685 14.012804 
L 139.775266 17.94641 
L 139.94653 14.099936 
L 140.019668 19.155428 
L 140.10152 19.010005 
L 140.288438 11.158421 
L 140.381725 10.895893 
L 140.468542 11.940897 
L 140.52973 10.534503 
L 140.693793 15.148337 
L 140.81545 14.768336 
L 140.916317 12.202851 
L 141.120897 20.675793 
L 141.262518 22.035295 
L 141.404402 26.125787 
L 141.567141 22.257765 
L 141.630711 24.414269 
L 141.71305 21.938543 
L 141.793921 22.104577 
L 141.91449 25.897133 
L 141.958153 24.129148 
L 142.070779 23.766025 
L 142.132262 23.080996 
L 142.235201 23.158305 
L 142.252794 28.44697 
L 142.317949 25.871264 
L 142.416158 23.833802 
L 142.540928 18.36291 
L 142.580267 20.026719 
L 142.723231 20.092279 
L 142.746004 19.857055 
L 142.803555 20.516818 
L 142.884637 20.494569 
L 142.968271 19.529188 
L 143.048348 14.999996 
L 143.14966 15.73292 
L 143.374949 20.8558 
L 143.3955 19.736439 
L 143.477218 21.499235 
L 143.660494 16.500408 
L 143.855724 17.377006 
L 143.987274 23.38604 
L 144.072825 20.764634 
L 144.190173 22.330988 
L 144.251818 27.878846 
L 144.33339 26.089258 
L 144.518161 32.210296 
L 144.57742 28.202278 
L 144.823375 25.037839 
L 144.850454 21.680613 
L 144.923823 24.565837 
L 145.110165 20.98497 
L 145.188757 21.946345 
L 145.371617 18.932166 
L 145.516541 24.810003 
L 145.703612 21.515417 
L 145.742481 18.544688 
L 145.841383 21.097292 
L 146.004355 14.133697 
L 146.106787 16.265907 
L 146.25098 11.225141 
L 146.351299 11.591534 
L 146.433175 11.46323 
L 146.513559 16.328412 
L 146.597178 15.994097 
L 146.678309 15.263242 
L 146.845604 20.380107 
L 146.941801 17.210425 
L 147.022576 21.09055 
L 147.16949 19.917635 
L 147.225857 20.311185 
L 147.287554 21.208527 
L 147.388907 20.599581 
L 147.472472 23.62778 
L 147.530741 21.985203 
L 147.612325 15.82597 
L 147.694656 17.362696 
L 147.775382 18.78889 
L 147.861301 16.100092 
L 147.876699 17.247719 
L 147.958488 19.066364 
L 148.040797 17.512091 
L 148.121581 19.609266 
L 148.305871 15.955748 
L 148.42835 17.425258 
L 148.468363 23.888136 
L 148.529991 19.066928 
L 148.670195 18.293337 
L 148.712956 18.715783 
L 148.875813 17.834056 
L 148.940154 21.876622 
L 148.998313 16.764458 
L 149.059367 17.468977 
L 149.147619 20.450885 
L 149.207017 19.750491 
L 149.474152 22.67625 
L 149.536546 24.784687 
L 149.676094 25.178498 
L 149.71873 22.669507 
L 149.8207 23.563199 
L 150.125922 16.96139 
L 150.414539 11.796087 
L 150.533801 12.175869 
L 150.737032 18.644234 
L 150.818701 18.430501 
L 150.902679 19.339744 
L 150.984911 16.761 
L 151.23128 22.052688 
L 151.32834 23.206292 
L 151.420393 21.587327 
L 151.479844 22.494641 
L 151.558888 22.561489 
L 151.945013 28.538858 
L 152.149165 25.178127 
L 152.231566 24.157108 
L 152.576311 29.086851 
L 152.739197 26.842164 
L 152.820826 28.628473 
L 152.906287 28.101271 
L 153.004427 28.418736 
L 153.419541 22.683379 
L 153.494887 24.880676 
L 153.677573 22.89954 
L 153.758526 25.229547 
L 153.840849 22.754714 
L 153.923125 25.29891 
L 154.004813 24.071448 
L 154.188785 15.403744 
L 154.254545 20.437806 
L 154.352351 18.345224 
L 154.455979 18.3836 
L 154.517084 19.096192 
L 154.597886 17.464614 
L 154.688309 18.485868 
L 154.853042 17.437628 
L 154.940003 18.510526 
L 155.108727 17.28691 
L 155.274126 18.827083 
L 155.35869 18.138665 
L 155.599711 22.270578 
L 156.111131 27.68243 
L 156.273828 22.494639 
L 156.390009 23.097789 
L 156.536307 16.973068 
L 156.717215 19.083737 
L 156.839167 19.162916 
L 157.031677 26.802554 
L 157.115124 26.090352 
L 157.230704 23.842401 
L 157.373373 29.993776 
L 157.537443 28.796652 
L 157.647285 29.236947 
L 157.706738 28.236761 
L 157.883986 20.552388 
L 157.986166 20.306341 
L 158.052528 20.353097 
L 158.149634 17.873285 
L 158.312392 17.333935 
L 158.394084 15.79044 
L 158.577584 12.216731 
L 158.903406 21.172422 
L 159.107025 19.541848 
L 159.189769 18.922335 
L 159.311306 23.234308 
L 159.394225 23.33379 
L 159.494652 23.195117 
L 159.556376 18.837481 
L 159.658258 20.658231 
L 159.758934 19.877072 
L 159.924016 24.363802 
L 160.334122 16.121019 
L 160.512672 18.943034 
L 160.675944 13.263742 
L 160.818171 12.922411 
L 160.941 15.779029 
L 161.002334 15.58236 
L 161.083688 16.433636 
L 161.250018 16.938524 
L 161.349009 12.820594 
L 161.449842 14.927129 
L 161.762686 9.795168 
L 162.273779 15.817045 
L 162.367647 20.531706 
L 162.448686 21.171061 
L 162.673349 23.517416 
L 162.694008 22.955507 
L 162.784817 23.369508 
L 162.884235 22.579974 
L 162.938602 23.442771 
L 163.372728 14.996819 
L 163.637736 23.892888 
L 163.761084 20.267339 
L 163.780495 21.775271 
L 164.15375 19.094542 
L 164.236505 20.233742 
L 164.378999 16.615018 
L 164.484637 12.366497 
L 164.540679 14.663601 
L 164.644215 11.813026 
L 165.213069 24.371116 
L 165.482368 27.670776 
L 165.560406 28.018703 
L 165.74857 23.99528 
L 165.986745 22.518235 
L 166.246141 16.755861 
L 166.32789 18.236823 
L 166.470363 15.263075 
L 166.634838 21.718078 
L 166.857574 17.04171 
L 166.897816 18.475775 
L 167.081579 18.867932 
L 167.223655 17.987787 
L 167.284665 23.03166 
L 167.366588 22.110998 
L 167.572707 14.821257 
L 167.672991 18.821214 
L 167.754689 16.891146 
L 167.835603 17.194367 
L 167.998628 20.226187 
L 168.203269 16.655187 
L 168.590592 28.454822 
L 168.85282 23.621632 
L 169.081124 24.901136 
L 169.104564 23.091574 
L 169.302076 19.851801 
L 169.448819 13.249095 
L 169.508701 16.613889 
L 169.589835 16.359543 
L 169.670761 18.494026 
L 169.772366 16.092564 
L 169.854694 17.161968 
L 169.93873 16.394573 
L 170.262829 21.514349 
L 170.427903 20.879671 
L 170.445822 23.153331 
L 170.6347 22.370436 
L 170.7538 22.949421 
L 170.837388 24.024259 
L 170.954721 17.47311 
L 171.039899 17.493133 
L 171.20213 21.595598 
L 171.282568 20.458873 
L 171.42709 23.589127 
L 171.46507 22.68011 
L 171.526597 22.155662 
L 171.628372 23.293243 
L 171.872985 27.308713 
L 172.038219 19.546514 
L 172.121077 20.732147 
L 172.206755 19.101089 
L 172.300435 20.828115 
L 172.382727 20.083546 
L 172.464405 20.378181 
L 172.545627 17.074705 
L 172.627033 19.171114 
L 172.732458 17.807873 
L 172.875461 26.214933 
L 172.974822 26.409987 
L 173.138162 24.531057 
L 173.382499 26.282901 
L 173.424915 30.098826 
L 173.547047 29.429669 
L 173.729105 23.645425 
L 173.810637 25.198099 
L 174.060081 22.437776 
L 174.230719 20.790096 
L 174.290921 17.654427 
L 174.320256 18.924515 
L 174.411131 20.336575 
L 174.545782 20.140903 
L 174.647338 14.832045 
L 174.730023 16.685167 
L 174.872902 16.878258 
L 175.078435 23.756366 
L 175.178447 22.435623 
L 175.259778 24.417633 
L 175.322558 24.021917 
L 175.504426 27.41651 
L 175.667217 34.46368 
L 175.994919 30.239622 
L 176.02054 31.631732 
L 176.12936 29.889416 
L 176.21011 31.536372 
L 176.425801 25.419509 
L 176.502868 25.219744 
L 176.76702 21.364257 
L 177.521751 11.622759 
L 177.765349 14.83151 
L 177.86931 12.988988 
L 177.969101 15.758411 
L 178.091205 15.806195 
L 178.111493 18.59133 
L 178.213505 18.443391 
L 178.364974 22.23864 
L 178.523852 22.930052 
L 178.604085 20.94515 
L 178.722854 21.331512 
L 178.807087 19.66801 
L 178.889838 22.335671 
L 178.94848 21.640741 
L 179.134451 24.494792 
L 179.214384 23.654961 
L 179.295832 21.415489 
L 179.377944 22.179637 
L 179.564745 24.640747 
L 179.867311 17.808728 
L 179.910078 12.651318 
L 179.971238 13.614276 
L 180.052989 14.040813 
L 180.256804 18.052611 
L 180.34109 17.142037 
L 180.480374 21.681004 
L 180.563062 22.275603 
L 180.745508 27.14133 
L 180.806222 26.644939 
L 180.97054 22.96346 
L 181.092109 21.802908 
L 181.152427 24.65583 
L 181.356606 22.234359 
L 181.419603 22.462462 
L 181.627196 19.331891 
L 181.662166 15.725276 
L 181.743973 16.979393 
L 181.845269 18.109683 
L 182.070106 14.097251 
L 182.152303 12.261066 
L 182.23298 13.198779 
L 182.314553 10.783083 
L 182.579098 16.114922 
L 182.681161 15.454137 
L 182.762231 18.034286 
L 182.94763 15.05519 
L 183.007817 17.296426 
L 183.088691 13.232807 
L 183.55826 19.193002 
L 183.602519 18.28354 
L 184.005168 28.774532 
L 184.343951 23.494593 
L 184.507961 23.369981 
L 184.522848 24.118971 
L 184.688684 21.969853 
L 184.793471 20.824924 
L 184.851923 18.472728 
L 185.177132 22.969693 
L 185.199073 20.656411 
L 185.587002 24.62986 
L 185.609212 23.610201 
L 185.713959 26.315843 
L 185.775526 24.743325 
L 185.855219 27.172911 
L 185.934722 26.165987 
L 186.035558 28.884177 
L 186.108863 28.547249 
L 186.229136 29.543341 
L 186.465698 32.580755 
L 186.741485 26.901319 
L 186.963327 29.482063 
L 187.044197 24.49637 
L 187.125631 25.939961 
L 187.212209 24.743778 
L 187.309349 25.115661 
L 187.373921 29.273779 
L 187.471943 28.889674 
L 187.554378 29.275445 
L 187.839279 23.875135 
L 187.903512 24.840356 
L 188.227813 16.05736 
L 188.307609 16.921568 
L 188.47117 23.173431 
L 188.55225 23.097999 
L 188.634225 21.580439 
L 188.735564 21.840436 
L 188.816506 23.747883 
L 188.898022 21.985929 
L 189.060815 27.197742 
L 189.148033 25.790166 
L 189.315436 19.89393 
L 189.776048 25.795529 
L 189.818883 25.601567 
L 189.901686 24.081272 
L 189.983962 24.905745 
L 190.165537 30.54502 
L 190.329612 29.122127 
L 190.411325 29.941825 
L 190.49266 29.349337 
L 191.002048 18.758551 
L 191.082828 18.384785 
L 191.245945 13.633654 
L 191.266206 16.725871 
L 191.332046 15.493774 
L 191.430076 18.458325 
L 191.592082 18.093513 
L 191.673901 17.4478 
L 191.755415 17.493845 
L 192.003318 22.397648 
L 192.10389 21.788727 
L 192.265045 17.633564 
L 192.509691 26.11417 
L 192.692488 24.949234 
L 192.75878 25.390988 
L 192.836394 27.684026 
L 192.958796 27.565274 
L 193.119541 31.185205 
L 193.181582 30.464296 
L 193.355644 25.841093 
L 193.54137 27.416881 
L 193.710909 22.806741 
L 193.813057 25.683942 
L 193.935226 23.597632 
L 194.024828 24.062041 
L 194.044165 22.834807 
L 194.120384 24.998396 
L 194.385032 21.317979 
L 194.470509 22.989741 
L 194.532794 22.300251 
L 194.754786 20.658523 
L 194.775417 21.696956 
L 194.874991 20.575602 
L 195.201115 26.038945 
L 195.307666 24.042139 
L 195.385816 25.66535 
L 195.467972 25.650808 
L 195.653404 22.706059 
L 195.718141 24.687679 
L 195.814581 24.067774 
L 195.905784 24.344457 
L 195.976563 22.942958 
L 196.077747 23.738556 
L 196.237777 20.859855 
L 196.465036 27.512215 
L 196.566637 23.574127 
L 196.727069 26.833248 
L 196.808637 26.792797 
L 196.91279 26.294601 
L 196.97917 29.618131 
L 197.053862 29.05633 
L 197.379621 25.800083 
L 197.462356 26.608624 
L 197.584021 19.651661 
L 197.807623 14.367179 
L 197.838968 12.532321 
L 197.930114 14.005385 
L 198.174456 10.406315 
L 198.34242 12.951074 
L 198.512894 20.285335 
L 198.589041 19.233727 
L 198.726615 18.604017 
L 198.831215 21.652739 
L 198.84867 21.6134 
L 198.909829 24.813455 
L 199.073974 27.205785 
L 199.114549 25.342516 
L 199.196677 28.835818 
L 199.425735 24.897572 
L 199.511432 26.908533 
L 199.813058 22.469671 
L 199.93892 17.659667 
L 200.018538 15.211412 
L 200.098404 18.992015 
L 200.180036 17.769965 
L 200.301586 20.368979 
L 200.42374 18.150149 
L 200.752012 22.806656 
L 200.873021 28.407128 
L 201.035074 25.504852 
L 201.116693 25.537838 
L 201.198756 25.923191 
L 201.280205 27.635578 
L 201.36251 24.84382 
L 201.525249 26.415393 
L 201.585654 26.168585 
L 201.708652 18.837907 
L 201.840165 20.036435 
L 201.937208 21.139885 
L 202.038833 18.506339 
L 202.141221 16.952025 
L 202.262563 18.60749 
L 202.304656 17.863018 
L 202.335929 17.123624 
L 202.365043 18.979428 
L 202.467702 19.689903 
L 202.56873 23.824913 
L 202.711791 17.96538 
L 202.821875 19.062614 
L 202.997705 24.053781 
L 203.141364 22.165163 
L 203.222491 20.520451 
L 203.325092 21.656663 
L 203.406449 18.175331 
L 203.547747 28.152023 
L 203.670792 30.416391 
L 203.895027 27.500389 
L 204.05762 34.210742 
L 204.309779 28.649216 
L 204.591857 24.52215 
L 204.822746 25.122562 
L 204.994689 21.527103 
L 205.158807 25.581023 
L 205.280634 26.850143 
L 205.382845 29.905204 
L 205.586966 22.726367 
L 205.749647 23.781066 
L 205.851885 23.803069 
L 205.913239 22.585636 
L 206.157924 25.953278 
L 206.260042 25.314591 
L 206.484595 28.32027 
L 206.566055 26.310592 
L 206.873445 29.705032 
L 206.973867 28.244004 
L 207.015413 28.251766 
L 207.095035 29.844147 
L 207.176646 29.500206 
L 207.259153 29.210528 
L 207.360423 29.313004 
L 207.464121 28.304575 
L 207.523172 28.604315 
L 207.604057 28.567533 
L 207.850179 22.946323 
L 208.011782 26.024918 
L 208.175707 23.227569 
L 208.279634 26.005261 
L 208.440128 22.684488 
L 208.524167 23.052669 
L 208.643912 26.271843 
L 208.970338 20.463188 
L 209.213613 17.039731 
L 209.462208 12.310045 
L 209.613752 11.642912 
L 209.647449 12.058133 
L 209.827141 18.875923 
L 209.889609 16.466213 
L 210.381388 27.356162 
L 210.462953 26.227969 
L 210.631858 22.50861 
L 210.747222 25.712343 
L 210.8082 25.245115 
L 210.900069 25.030702 
L 210.972603 20.590974 
L 211.053363 21.441622 
L 211.134845 21.025671 
L 211.217149 23.36506 
L 211.31886 21.654964 
L 211.381786 22.849195 
L 211.562218 19.999772 
L 211.643353 16.930656 
L 211.991414 20.553678 
L 212.099705 20.745333 
L 212.171994 20.661592 
L 212.233488 17.274377 
L 212.416339 17.627829 
L 212.498384 21.870076 
L 212.60066 21.666515 
L 212.723514 21.79711 
L 212.82384 19.136014 
L 212.950379 17.954024 
L 212.987434 18.593258 
L 213.131935 22.930533 
L 213.171293 21.510008 
L 213.255576 21.665149 
L 213.354166 20.136368 
L 213.441531 23.879925 
L 213.640191 20.406511 
L 213.764703 24.156838 
L 213.845625 23.151469 
L 213.947823 22.737123 
L 214.186373 18.717683 
L 214.375216 13.364815 
L 214.459075 15.626072 
L 214.663265 11.019655 
L 214.845261 14.559422 
L 215.069678 21.184753 
L 215.090206 24.398001 
L 215.191247 24.058919 
L 215.273686 21.038583 
L 215.436795 23.493357 
L 215.623347 18.300966 
L 215.679922 21.534744 
L 215.966089 16.704596 
L 216.128392 24.723585 
L 216.198389 23.544731 
L 216.457768 28.556392 
L 216.617972 21.913978 
L 216.73997 24.055576 
L 216.812885 23.152248 
L 216.964545 15.772263 
L 217.046327 16.283645 
L 217.208387 12.933046 
L 217.291573 13.389297 
L 217.452789 19.603283 
L 217.6361 16.59039 
L 217.703821 19.582207 
L 217.799728 18.87686 
L 217.881543 19.253356 
L 218.067844 21.807573 
L 218.228895 21.26369 
L 218.311023 19.304705 
L 218.59514 23.367619 
L 218.758272 24.670459 
L 218.819838 23.116428 
L 218.980743 25.664371 
L 219.144188 27.322585 
L 219.482457 23.091801 
L 219.572462 20.532789 
L 219.654046 23.032753 
L 219.756161 21.130107 
L 219.816872 24.527505 
L 220.068512 22.011123 
L 220.151796 21.523908 
L 220.325592 24.911348 
L 220.468076 25.088972 
L 220.653128 18.969135 
L 220.737186 18.700022 
L 220.835958 16.130979 
L 221.020255 15.995687 
L 221.203386 13.097249 
L 221.327966 19.928006 
L 221.426979 19.711623 
L 221.590328 15.724817 
L 221.997555 24.36979 
L 222.064853 23.702889 
L 222.181019 18.654478 
L 222.263548 19.293583 
L 222.344505 19.815076 
L 222.588697 22.460579 
L 222.676481 21.779754 
L 222.854171 19.580342 
L 223.065617 25.351343 
L 223.119073 22.566021 
L 223.203094 25.093425 
L 223.364404 22.906269 
L 223.505731 24.203824 
L 223.629148 21.083307 
L 223.77148 22.589995 
L 223.853973 22.366414 
L 224.036883 27.376242 
L 224.138668 26.940594 
L 224.282092 28.148245 
L 224.444217 27.921732 
L 224.568467 30.952215 
L 224.792729 28.430396 
L 225.14075 17.243045 
L 225.224441 16.962165 
L 225.407236 13.842047 
L 225.467947 14.975718 
L 225.629075 15.479795 
L 225.877963 25.791553 
L 226.059695 25.180249 
L 226.152342 26.898467 
L 226.228467 26.771097 
L 226.392013 23.743226 
L 226.494899 24.204569 
L 226.556421 22.982294 
L 226.666254 24.284696 
L 226.739457 23.872543 
L 226.900956 28.317649 
L 227.043684 28.457726 
L 227.247512 31.344974 
L 227.329078 27.984001 
L 227.391965 28.729726 
L 227.575119 25.204742 
L 227.662522 22.420546 
L 227.744661 24.448209 
L 227.818978 24.299755 
L 227.921822 23.766573 
L 227.992384 20.613035 
L 228.08503 20.781664 
L 228.19836 22.077236 
L 228.311157 20.634825 
L 228.351144 18.623344 
L 228.454217 19.392656 
L 228.515405 20.697045 
L 228.69851 17.017056 
L 228.759823 16.693134 
L 228.780618 20.11047 
L 228.842956 18.615543 
L 229.008388 13.910924 
L 229.191708 17.228728 
L 229.515191 26.140229 
L 229.599779 26.473406 
L 229.680573 25.674795 
L 229.843237 30.719105 
L 229.945426 30.939063 
L 230.435816 20.298612 
L 230.516622 25.410456 
L 230.645137 23.917938 
L 230.80266 25.812674 
L 231.047126 17.134229 
L 231.158639 17.338394 
L 231.174139 17.209667 
L 231.275191 19.662143 
L 231.523897 11.889984 
L 231.604197 11.457924 
L 231.705662 12.593662 
L 231.950982 18.007103 
L 232.032473 17.597763 
L 232.174925 16.154074 
L 232.215153 16.354182 
L 232.382261 17.905197 
L 232.541063 21.807381 
L 232.644533 21.181522 
L 232.704443 24.16828 
L 232.96986 19.249507 
L 233.092891 19.064832 
L 233.295496 15.761794 
L 233.482786 18.394715 
L 233.560971 19.001889 
L 233.664058 20.77909 
L 233.795491 20.795287 
L 234.255474 27.338465 
L 234.436857 22.766288 
L 234.539061 22.33871 
L 234.60369 22.660774 
L 234.68306 22.489628 
L 234.744502 20.54763 
L 234.806649 21.78294 
L 234.932151 21.544697 
L 235.003544 20.539477 
L 235.09256 16.626658 
L 235.236261 18.519415 
L 235.378784 20.584042 
L 235.502691 17.433235 
L 235.621211 17.900619 
L 235.667605 15.68377 
L 235.744351 17.814051 
L 235.827689 17.004136 
L 235.908053 19.675772 
L 236.116129 17.93157 
L 236.179231 13.92023 
L 236.501059 20.230824 
L 236.599271 18.22836 
L 236.842415 22.712467 
L 236.927119 23.22236 
L 237.026763 28.103399 
L 237.17032 29.446047 
L 237.437081 26.817171 
L 237.780076 22.370018 
L 238.065477 15.813422 
L 238.106131 15.89837 
L 238.187594 16.595654 
L 238.289285 18.695824 
L 238.352022 17.446209 
L 238.448227 18.119466 
L 238.595374 17.962614 
L 238.642213 18.302979 
L 238.902284 23.297736 
L 239.146536 20.755439 
L 239.251195 24.252015 
L 239.288901 23.670678 
L 239.411509 24.157286 
L 239.537737 25.192236 
L 239.762422 18.133605 
L 239.782911 21.623115 
L 239.851109 19.812064 
L 239.887393 19.802204 
L 240.047161 17.706362 
L 240.128644 20.62338 
L 240.33256 15.421306 
L 240.414424 13.044054 
L 240.638236 20.929554 
L 240.809042 17.500103 
L 240.884011 18.830604 
L 241.066003 16.658664 
L 241.231543 23.739244 
L 241.310278 23.330576 
L 241.393419 23.760548 
L 241.493856 23.488056 
L 241.67883 28.506195 
L 241.800985 26.027706 
L 241.904073 26.37026 
L 242.3809 16.175998 
L 242.421529 17.237976 
L 242.502756 15.250897 
L 242.648223 22.905826 
L 242.734917 23.927629 
L 242.828728 27.809714 
L 242.920461 26.711879 
L 243.102673 32.159643 
L 243.263834 30.635148 
L 243.585021 24.510399 
L 243.768529 26.340286 
L 243.830707 26.34991 
L 243.910912 28.170275 
L 244.071546 28.369455 
L 244.094248 28.257946 
L 244.176186 29.647357 
L 244.339666 24.858776 
L 244.420643 26.172772 
L 244.522478 24.750267 
L 244.589914 26.195417 
L 244.766932 15.004093 
L 244.901706 15.422444 
L 244.931978 14.256469 
L 245.243126 22.213031 
L 245.28035 17.892084 
L 245.442908 17.559648 
L 245.612057 21.638201 
L 245.811338 27.759743 
L 245.870134 27.654868 
L 246.036407 20.360744 
L 246.154426 19.207353 
L 246.297843 20.223421 
L 246.419736 22.416015 
L 246.45982 21.509534 
L 246.605072 20.997294 
L 246.704867 19.585608 
L 246.806784 20.534511 
L 246.950021 23.103637 
L 247.214002 18.317591 
L 247.344275 17.686783 
L 247.540701 12.585426 
L 247.623506 15.860265 
L 247.705879 13.40402 
L 247.723838 19.123128 
L 247.785548 18.519669 
L 248.051084 25.752504 
L 248.294381 20.302767 
L 248.397391 20.871528 
L 248.558874 21.374059 
L 248.60702 20.266921 
L 248.641528 22.448108 
L 248.807466 14.040285 
L 248.987756 19.552305 
L 249.149714 21.389986 
L 249.231696 21.642976 
L 249.314218 16.934437 
L 249.415664 18.033929 
L 249.478117 17.193715 
L 249.688168 23.608307 
L 249.812141 18.977508 
L 249.847279 20.228098 
L 249.992896 24.839358 
L 250.071265 25.867866 
L 250.154687 30.399201 
L 250.235996 27.975212 
L 250.318359 28.772099 
L 250.450115 30.113664 
L 250.487521 26.150313 
L 250.565787 27.951863 
L 250.664825 26.966454 
L 250.911025 22.228387 
L 250.992923 20.02463 
L 251.094164 21.243663 
L 251.174825 19.8819 
L 251.318026 20.566845 
L 251.440392 25.329269 
L 251.527869 24.813537 
L 251.68799 26.459492 
L 251.912234 31.007392 
L 252.423339 18.588389 
L 252.522823 17.798095 
L 252.603626 15.558058 
L 253.070818 27.68815 
L 253.172487 27.090865 
L 253.299263 27.932678 
L 253.398018 29.869572 
L 253.481819 29.349415 
L 253.706336 24.831771 
L 253.787637 25.449094 
L 253.85493 24.047135 
L 253.973638 24.648689 
L 254.072704 26.426698 
L 254.215384 23.403567 
L 254.27641 26.567889 
L 254.439588 20.105709 
L 254.601676 23.129296 
L 254.703797 21.364677 
L 254.791033 22.006184 
L 254.881155 20.260885 
L 254.951183 23.387255 
L 255.050893 22.27223 
L 255.125788 22.354888 
L 255.295063 25.917073 
L 255.377475 23.692251 
L 255.460204 24.480355 
L 255.559932 19.658434 
L 255.724984 22.607452 
L 255.80567 18.671104 
L 255.886463 21.468898 
L 256.052625 17.778955 
L 256.33682 20.436416 
L 256.402403 25.249579 
L 256.464513 25.144097 
L 256.643481 21.43337 
L 256.750585 22.095437 
L 256.858576 25.044909 
L 256.918062 24.218461 
L 256.999095 24.261783 
L 257.143101 23.185085 
L 257.223369 23.242247 
L 257.327565 21.39269 
L 257.40698 22.50657 
L 257.578936 21.940905 
L 257.658629 23.862936 
L 257.797981 24.044975 
L 257.895897 28.887803 
L 258.078948 24.740074 
L 258.223793 26.675943 
L 258.26464 24.966979 
L 258.326386 27.388346 
L 258.491274 19.654582 
L 258.631144 21.68342 
L 258.794196 15.644497 
L 258.915958 19.368184 
L 258.998429 17.674509 
L 259.278553 27.493111 
L 259.426527 25.235118 
L 259.510113 28.763848 
L 259.590637 28.700002 
L 259.855447 22.479771 
L 259.936795 23.004544 
L 260.037876 24.28815 
L 260.107949 20.921278 
L 260.267577 24.653643 
L 260.385752 21.63204 
L 260.514811 24.654909 
L 260.635882 26.786004 
L 260.691276 30.724272 
L 260.772046 30.136822 
L 260.853241 28.671798 
L 260.935186 29.422181 
L 261.282099 22.473526 
L 261.385173 21.316667 
L 261.632206 15.427698 
L 261.710419 15.523992 
L 261.729101 12.663529 
L 261.791431 16.154393 
L 262.035194 22.908691 
L 262.137851 23.840609 
L 262.28029 22.083797 
L 262.361935 22.668259 
L 262.46335 20.683704 
L 262.547 20.994546 
L 262.625455 21.765332 
L 262.789395 17.784387 
L 262.952231 17.944407 
L 263.1008 19.559827 
L 263.21834 24.014533 
L 263.408052 24.9929 
L 263.521606 25.038665 
L 263.625828 28.704384 
L 263.726543 27.617705 
L 263.890698 24.98002 
L 263.970329 27.029464 
L 264.057281 25.887306 
L 264.156004 26.408069 
L 264.240085 25.932888 
L 264.505117 20.439011 
L 264.709199 23.812367 
L 264.769888 24.19327 
L 264.933371 21.492591 
L 264.977017 24.347507 
L 265.077639 22.348587 
L 265.16507 23.832384 
L 265.402957 19.683126 
L 265.607591 16.71366 
L 265.668289 14.618871 
L 265.811023 15.66345 
L 265.892104 12.773071 
L 265.93286 14.477875 
L 266.055678 14.295763 
L 266.078562 17.07838 
L 266.157793 17.020641 
L 266.245587 17.658196 
L 266.422238 19.898208 
L 266.750221 16.587215 
L 266.851877 17.160655 
L 266.912887 18.482472 
L 266.993116 18.445721 
L 267.113654 19.90144 
L 267.262179 16.504549 
L 267.398643 17.613773 
L 267.43881 18.854863 
L 267.581777 18.056192 
L 267.66287 19.114587 
L 267.703628 17.108645 
L 267.789536 20.425831 
L 267.866537 19.336359 
L 267.928307 18.094213 
L 268.009271 19.053581 
L 268.200748 22.550711 
L 268.273717 21.931105 
L 268.437921 24.706264 
L 268.523766 27.748299 
L 268.620259 24.807977 
L 268.701974 25.019626 
L 268.76307 24.346803 
L 268.848004 25.019806 
L 268.947528 23.074803 
L 269.110757 25.240774 
L 269.193266 24.317062 
L 269.558243 15.825793 
L 269.661676 17.702502 
L 269.700788 15.763654 
L 269.817957 16.668345 
L 269.952161 13.670889 
L 270.211746 18.805854 
L 270.292165 15.70729 
L 270.55562 20.980149 
L 270.617067 19.551433 
L 270.73849 20.556247 
L 270.819758 22.255974 
L 270.882799 18.81 
L 271.206696 23.489482 
L 271.308904 22.240131 
L 271.471482 23.711105 
L 271.553732 23.638512 
L 271.723803 18.601693 
L 271.879544 16.435742 
L 271.983874 19.876671 
L 272.063255 19.49771 
L 272.146684 19.372993 
L 272.225391 17.767915 
L 272.308926 18.852442 
L 272.389843 18.382679 
L 272.573162 22.702054 
L 272.73483 21.197312 
L 272.816565 20.543594 
L 272.897744 20.933792 
L 272.987056 21.947403 
L 273.061605 18.881688 
L 273.16632 19.43753 
L 273.244095 18.85687 
L 273.489362 22.552013 
L 273.657982 19.646454 
L 273.737616 20.08015 
L 273.918374 21.985695 
L 273.998484 18.57209 
L 274.079255 19.71938 
L 274.244484 17.844652 
L 274.336513 19.812922 
L 274.406738 19.358251 
L 274.673315 14.190405 
L 274.834322 18.653974 
L 274.999474 15.615253 
L 275.080172 18.389419 
L 275.183165 17.482549 
L 275.263411 18.267454 
L 275.347723 21.405899 
L 275.429239 20.942173 
L 275.614084 19.35139 
L 275.631049 26.323379 
L 275.71266 22.939209 
L 275.836884 27.188405 
L 275.936107 25.741156 
L 276.100959 28.129485 
L 276.221954 27.987701 
L 276.447019 30.664362 
L 276.610945 24.948985 
L 276.691261 27.535196 
L 276.772261 26.660263 
L 276.868117 26.124206 
L 276.875487 27.535002 
L 276.936766 24.120627 
L 276.955877 18.52535 
L 277.165483 22.35787 
L 277.242552 22.976455 
L 277.363626 19.871094 
L 277.444383 20.655135 
L 277.546018 20.372695 
L 277.608287 20.568383 
L 277.70444 21.720225 
L 277.872282 28.029334 
L 277.974864 28.887452 
L 278.035991 27.135065 
L 278.322149 30.777374 
L 278.707607 12.930512 
L 278.992969 8.905874 
L 279.221064 14.475076 
L 279.381871 20.095452 
L 279.465313 25.053775 
L 279.564131 24.486098 
L 279.72753 27.553929 
L 279.796138 31.955087 
L 279.834661 30.093323 
L 280.164445 22.930877 
L 280.321064 19.171462 
L 280.430569 22.745505 
L 280.607512 18.554427 
L 280.646166 20.264682 
L 280.789946 21.08859 
L 280.811312 22.300442 
L 280.932685 22.360259 
L 280.992735 23.887907 
L 281.073871 23.826039 
L 281.156765 22.143044 
L 281.339406 15.75544 
L 281.421092 17.065273 
L 281.482851 16.623694 
L 281.584465 12.240114 
L 282.23709 26.596378 
L 282.319826 23.801286 
L 282.441557 30.248826 
L 282.521946 28.982128 
L 283.030682 16.632843 
L 283.052235 16.889171 
L 283.153985 19.115932 
L 283.25728 13.811383 
L 283.357422 12.431445 
L 283.520762 14.898426 
L 283.663113 15.362424 
L 283.765825 13.969256 
L 283.846596 16.857227 
L 283.948433 14.919851 
L 284.049826 15.456343 
L 284.132811 15.183076 
L 284.193607 15.572007 
L 284.275193 15.370675 
L 284.378286 12.972764 
L 284.552041 16.066059 
L 284.648943 18.300568 
L 284.767248 15.84145 
L 284.911052 20.620346 
L 284.950507 23.049277 
L 285.053152 22.71546 
L 285.174282 22.449199 
L 285.280694 23.959906 
L 285.296447 23.031146 
L 285.378726 22.885554 
L 285.483448 22.025337 
L 285.602377 22.310348 
L 285.626663 20.100559 
L 285.706081 22.48782 
L 285.787312 22.058408 
L 285.867942 22.562437 
L 286.215151 26.856706 
L 286.305456 26.582033 
L 286.540829 19.476047 
L 286.665485 19.223294 
L 286.806691 19.816105 
L 286.969862 19.841952 
L 286.988965 21.282579 
L 287.050607 19.65694 
L 287.133232 19.177809 
L 287.393609 26.573292 
L 287.476881 25.500775 
L 287.638895 23.810938 
L 287.72363 23.539422 
L 287.821052 19.188114 
L 287.983735 23.490235 
L 288.227335 18.845936 
L 288.491923 23.524324 
L 288.573398 23.167412 
L 288.655005 23.984798 
L 288.739534 23.368323 
L 288.982462 18.582731 
L 289.067032 18.774902 
L 289.246591 15.302588 
L 289.327348 16.222111 
L 289.411074 16.605264 
L 289.490598 17.885043 
L 289.574944 16.747367 
L 289.755791 21.476387 
L 289.83699 21.064753 
L 289.919216 21.264035 
L 290.000636 19.046182 
L 290.091162 20.078311 
L 290.166134 18.465606 
L 290.253382 19.079689 
L 290.374414 18.716841 
L 290.591286 19.982505 
L 290.672833 20.49479 
L 290.754572 17.978264 
L 290.837572 19.367147 
L 290.856922 22.288716 
L 290.938407 19.50345 
L 291.039811 21.839556 
L 291.101465 21.635401 
L 291.182923 22.502306 
L 291.528811 20.445807 
L 291.754382 25.982902 
L 291.814733 26.987292 
L 291.978316 22.824345 
L 292.038419 22.822638 
L 292.264122 26.943904 
L 292.369632 27.235191 
L 292.467032 26.999848 
L 292.528438 27.299291 
L 292.643266 26.806721 
L 292.691129 28.368215 
L 293.211118 15.337472 
L 293.291996 14.220511 
L 293.537784 17.547028 
L 293.802386 18.491193 
L 293.883157 18.340999 
L 294.046286 17.780132 
L 294.148805 15.612399 
L 294.310586 7.695982 
L 294.514044 11.565565 
L 294.555008 9.152946 
L 294.67754 9.957003 
L 294.840971 9.058959 
L 294.983875 14.207343 
L 295.066477 19.517955 
L 295.309672 13.779051 
L 295.432147 15.481744 
L 295.492999 13.128657 
L 295.678766 16.646131 
L 295.908423 11.122514 
L 295.99147 14.944249 
L 296.114344 14.955176 
L 296.156972 15.859695 
L 296.240748 15.688253 
L 296.323907 24.410568 
L 296.343303 20.982462 
L 296.418992 20.910168 
L 296.585198 18.957277 
L 296.664209 20.499177 
L 296.788155 20.572844 
L 296.872481 17.761769 
L 296.929899 18.209217 
L 296.990747 19.827886 
L 297.072517 18.209225 
L 297.27052 16.52556 
L 297.337357 17.154529 
L 297.624919 23.467493 
L 297.684536 23.39581 
L 297.767261 23.031529 
L 297.848784 23.563982 
L 298.113783 26.980519 
L 298.182843 26.971125 
L 298.258144 27.258346 
L 298.33854 26.820491 
L 298.533512 29.394506 
L 298.667652 28.313869 
L 298.937924 22.251071 
L 299.093362 24.343933 
L 299.113668 23.091092 
L 299.256075 24.552574 
L 299.308093 18.72429 
L 299.358261 20.487845 
L 299.441513 19.957208 
L 299.624589 22.302887 
L 299.788421 24.950998 
L 299.859322 21.944434 
L 299.954586 22.792671 
L 300.121544 21.502656 
L 300.154525 25.224564 
L 300.216459 23.367547 
L 300.382598 24.255961 
L 300.550649 27.546086 
L 300.625557 26.288835 
L 300.820272 29.543873 
L 300.902071 29.173155 
L 301.014719 25.945893 
L 301.138039 29.938613 
L 301.503972 18.965341 
L 301.544034 20.314038 
L 301.749073 17.321334 
L 301.809017 20.145915 
L 302.03417 15.698447 
L 302.07442 16.260887 
L 302.320943 21.383702 
L 302.50563 20.342093 
L 302.585103 23.156339 
L 302.645343 21.407165 
L 302.731702 22.193654 
L 302.828861 20.355348 
L 303.077106 21.835415 
L 303.135429 18.399121 
L 303.175981 21.104212 
L 303.399891 16.409371 
L 303.485744 15.175552 
L 303.564696 17.060906 
L 303.645802 16.752361 
L 303.665057 16.144779 
L 303.746968 16.644701 
L 303.852886 15.697901 
L 303.911509 16.556696 
L 304.012429 15.519448 
L 304.094483 19.033886 
L 304.155079 19.018916 
L 304.277497 19.323485 
L 304.35864 20.575446 
L 304.423993 19.167862 
L 304.523406 25.4114 
L 304.609764 23.734499 
L 304.708662 24.70819 
L 304.890076 22.669595 
L 305.030808 22.922372 
L 305.133074 19.101854 
L 305.214562 19.256543 
L 305.276835 19.030838 
L 305.380211 17.625914 
L 305.399464 12.172282 
L 305.485758 14.151137 
L 305.568147 15.135471 
L 305.581926 20.80841 
L 305.703581 21.895679 
L 305.764357 19.678955 
L 305.847029 20.511396 
L 305.957647 20.805004 
L 306.016252 19.400053 
L 306.193718 23.672515 
L 306.295957 23.974196 
L 306.35628 23.298869 
L 306.621361 16.277538 
L 306.778547 16.350054 
L 306.787504 12.693421 
L 306.866145 14.79917 
L 306.947289 14.749725 
L 307.076634 13.707647 
L 307.113349 15.854261 
L 307.192566 15.546831 
L 307.27351 14.373658 
L 307.619821 21.639029 
L 307.701865 21.662858 
L 307.783124 19.961697 
L 307.867977 21.608104 
L 307.947741 19.059948 
L 308.028817 19.25638 
L 308.133092 18.847072 
L 308.292475 19.970605 
L 308.359069 15.230626 
L 308.374337 19.316912 
L 308.558148 26.549776 
L 308.660176 27.551491 
L 308.884058 23.238104 
L 308.968124 22.278837 
L 309.127647 22.907551 
L 309.148565 24.171863 
L 309.395328 15.920119 
L 309.562207 11.566939 
L 309.668153 12.242082 
L 309.767256 10.092237 
L 309.830101 11.298663 
L 309.992021 9.069333 
L 310.214817 9.58085 
L 310.277947 10.493424 
L 310.319184 13.895269 
L 310.54426 18.065484 
L 310.603966 17.786432 
L 310.687073 17.979935 
L 310.748399 17.644636 
L 310.970777 21.222673 
L 310.991458 25.25649 
L 311.104492 24.351921 
L 311.257164 21.219553 
L 311.649666 29.960251 
L 311.734914 29.767795 
L 311.755655 31.757181 
L 311.87338 29.114379 
L 311.934459 31.896848 
L 311.995878 30.976183 
L 312.169951 31.603396 
L 312.438119 24.082087 
L 312.509859 24.090163 
L 312.591823 22.785923 
L 312.712527 23.489142 
L 312.874057 20.519377 
L 312.874213 20.973975 
L 313.016952 21.732205 
L 313.283744 27.982921 
L 313.445723 21.451958 
L 313.6938 17.497982 
L 313.833446 18.380282 
L 313.875046 17.737261 
L 314.016498 18.045037 
L 314.141626 14.523083 
L 314.282054 18.796813 
L 314.383028 19.485423 
L 314.48748 18.10736 
L 314.539948 19.142623 
L 314.669717 18.782755 
L 314.709494 19.680226 
L 314.873434 16.483825 
L 315.03519 18.881169 
L 315.117108 18.017612 
L 315.320063 23.972716 
L 315.380904 22.385646 
L 315.474263 22.660364 
L 315.545134 25.190337 
L 315.654069 25.976536 
L 315.876944 23.386741 
L 315.973811 28.002476 
L 316.219648 27.212204 
L 316.302551 27.212762 
L 316.384125 22.166692 
L 316.686362 27.9178 
L 316.749919 26.591795 
L 316.830894 20.419881 
L 316.889612 21.297814 
L 316.971312 21.205722 
L 317.11388 22.902385 
L 317.134642 20.494086 
L 317.219041 25.277123 
L 317.49143 21.174638 
L 317.569456 21.337041 
L 317.659052 26.667687 
L 317.815913 21.064681 
L 317.93046 20.126342 
L 317.992977 21.25922 
L 318.07489 15.592218 
L 318.154037 15.711442 
L 318.2766 16.165387 
L 318.363869 17.23771 
L 318.398621 19.901194 
L 318.480071 16.70714 
L 318.735915 23.07921 
L 318.846525 21.043064 
L 318.908192 26.757776 
L 319.09172 28.357435 
L 319.192446 28.033888 
L 319.294775 27.463885 
L 319.336378 29.591611 
L 319.417391 29.58358 
L 319.498286 31.85684 
L 319.58057 31.496656 
L 319.68273 33.584989 
L 319.845723 28.191215 
L 320.255716 22.39974 
L 320.437323 16.829131 
L 320.829694 20.281486 
L 320.864718 19.637694 
L 321.029677 20.171307 
L 321.090483 20.663244 
L 321.191173 20.281476 
L 321.292915 22.982018 
L 321.354021 22.809731 
L 321.435967 21.509066 
L 321.558886 21.503466 
L 321.701065 23.227782 
L 321.864965 20.09621 
L 322.070119 23.293606 
L 322.113246 21.72416 
L 322.251749 22.62503 
L 322.31266 25.922652 
L 322.37401 23.762066 
L 322.478125 22.968205 
L 322.621842 24.872474 
L 322.700126 24.795292 
L 322.823984 23.139271 
L 322.864226 20.661846 
L 322.945316 21.695705 
L 323.290694 17.453304 
L 323.456753 22.792718 
L 323.537114 25.210767 
L 323.555508 22.844946 
L 323.64259 22.60102 
L 323.761467 22.742154 
L 323.922364 19.695822 
L 324.004225 20.321551 
L 324.146724 24.006627 
L 324.392135 20.203703 
L 324.472803 20.552044 
L 324.635963 22.366347 
L 324.720522 24.08352 
L 324.807192 23.248093 
L 324.901003 23.530519 
L 325.227467 18.647106 
L 325.308323 18.824597 
L 325.409688 18.202755 
L 325.512737 19.447811 
L 325.573304 17.553898 
L 325.674704 17.745599 
L 325.760706 16.127824 
L 325.819044 17.567265 
L 325.899191 14.635496 
L 326.09344 18.865519 
L 326.205556 19.14559 
L 326.2467 18.764473 
L 326.327412 16.910316 
L 326.592088 20.627186 
L 326.669096 19.633331 
L 326.750372 21.744931 
L 326.911119 20.31238 
L 327.337303 27.471062 
L 327.626014 24.006416 
L 327.673944 26.315733 
L 327.848728 24.76181 
L 327.930561 25.18893 
L 328.134957 22.762575 
L 328.216959 19.924874 
L 328.258658 21.129861 
L 328.440353 25.503731 
L 328.503899 23.783095 
L 328.79322 25.111205 
L 328.929526 27.893169 
L 329.193366 24.178251 
L 329.277517 25.807087 
L 329.357302 25.053514 
L 329.441729 25.409675 
L 329.523921 27.088246 
L 329.607495 25.598349 
L 329.705389 25.851651 
L 329.86719 27.916148 
L 329.94848 28.523565 
L 330.031499 24.485968 
L 330.115476 25.639824 
L 330.132429 25.260858 
L 330.193465 26.328575 
L 330.277891 27.063098 
L 330.358798 24.570398 
L 330.458919 26.312559 
L 330.544791 26.125293 
L 330.734963 23.638646 
L 330.745143 25.885573 
L 330.786278 21.915636 
L 330.971141 16.954289 
L 331.045086 18.272085 
L 331.133775 17.496951 
L 331.21897 17.513891 
L 331.300535 17.952094 
L 331.378426 17.554468 
L 331.78777 32.699259 
L 331.970479 28.422455 
L 332.051341 29.155256 
L 332.297339 18.524618 
L 332.395053 18.904213 
L 332.481025 12.410304 
L 332.562139 13.899675 
L 332.745654 10.823585 
L 333.033392 15.536788 
L 333.214812 17.581535 
L 333.316273 23.549358 
L 333.458127 22.928561 
L 333.527298 24.143584 
L 333.681586 31.498074 
L 333.887058 32.63296 
L 333.988033 30.636524 
L 334.02876 35.173979 
L 334.089611 32.980925 
L 334.192509 29.169542 
L 334.252425 31.280436 
L 334.580062 23.530272 
L 334.682296 22.684211 
L 334.780672 25.256159 
L 334.821473 22.241429 
L 334.906313 22.264273 
L 334.985494 22.664265 
L 335.08812 18.986361 
L 335.169941 19.609047 
L 335.252283 19.85514 
L 335.392795 21.13211 
L 335.535303 26.999391 
L 335.600662 26.549847 
L 335.658784 23.561002 
L 335.793628 24.353095 
L 335.841878 23.560873 
L 335.952414 24.045535 
L 336.046964 23.218966 
L 336.209326 16.928779 
L 336.291219 10.780611 
L 336.416294 10.647263 
L 336.514293 11.813324 
L 336.697379 16.341145 
L 336.779498 15.506229 
L 337.134641 23.093264 
L 337.229461 21.868257 
L 337.35398 20.137306 
L 337.433272 19.621135 
L 337.541614 16.565816 
L 337.615925 17.931783 
L 337.885502 14.998257 
L 338.001814 13.328276 
L 338.048999 14.426248 
L 338.135028 13.198024 
L 338.328157 15.134584 
L 338.36857 16.553187 
L 338.451248 15.099622 
L 338.635334 15.218086 
L 338.717461 13.552995 
L 338.89897 17.398121 
L 339.12358 17.936024 
L 339.142731 18.742551 
L 339.226945 18.046586 
L 339.307174 20.983467 
L 339.369968 20.454665 
L 339.47188 21.467563 
L 339.553965 21.145616 
L 339.896656 23.751879 
L 340.142193 20.325606 
L 340.370803 23.055156 
L 340.427566 27.292289 
L 340.5094 26.882954 
L 340.671961 23.20027 
L 340.804348 22.479502 
L 341.004963 22.823961 
L 341.172531 21.048764 
L 341.276093 15.742186 
L 341.319852 17.406172 
L 341.508273 21.240886 
L 341.591374 20.87459 
L 341.654821 21.450812 
L 341.753057 21.438566 
L 341.875369 20.085727 
L 342.021471 23.115217 
L 342.161883 19.562909 
L 342.364684 15.235499 
L 342.507232 16.093088 
L 342.588427 15.589884 
L 343.261762 29.550296 
L 343.343607 29.194616 
L 343.445695 29.440557 
L 343.526539 31.466494 
L 343.860357 23.192904 
L 343.934538 28.585414 
L 344.0169 28.428707 
L 344.118109 27.744651 
L 344.180931 28.378607 
L 344.344171 22.865621 
L 344.42488 23.105214 
L 344.527442 22.658779 
L 344.647933 23.771602 
L 344.996088 15.188523 
L 345.058917 16.209597 
L 345.11996 19.820566 
L 345.284534 14.380932 
L 345.368777 16.016769 
L 345.450532 14.532811 
L 345.534895 15.586102 
L 345.800651 22.433014 
L 346.02023 24.759422 
L 346.21102 30.433658 
L 346.287168 30.163654 
L 346.470021 27.0542 
L 346.550545 25.003178 
L 346.632967 27.230055 
L 346.797267 22.538057 
L 346.815747 26.824454 
L 346.993881 20.489625 
L 347.039994 20.854283 
L 347.304161 24.408833 
L 347.467759 19.595849 
L 347.810157 28.650095 
L 348.007394 29.97124 
L 348.080606 30.778987 
L 348.140083 29.012122 
L 348.236275 33.124643 
L 348.318345 32.145546 
L 348.496909 26.030716 
L 348.600597 26.231904 
L 348.934143 18.687066 
L 348.988746 20.875158 
L 349.068905 17.921292 
L 349.170329 18.592621 
L 349.272838 21.21292 
L 349.333589 17.803315 
L 349.414737 18.709732 
L 349.537061 18.957711 
L 349.659231 17.839955 
L 349.782655 16.226037 
L 349.908845 20.030969 
L 350.168225 14.362482 
L 350.298603 12.478768 
L 350.519353 16.702408 
L 350.597584 17.207265 
L 350.679857 15.181233 
L 350.802172 15.356735 
L 350.875689 16.156541 
L 351.112248 22.097734 
L 351.209524 23.969562 
L 351.273188 22.925137 
L 351.456072 26.219037 
L 351.597718 25.855077 
L 351.740667 23.380481 
L 351.780685 25.656264 
L 352.055868 15.389505 
L 352.11116 16.145442 
L 352.335825 10.864232 
L 352.415359 11.793372 
L 352.523683 12.958038 
L 352.680526 12.403549 
L 352.721419 15.901081 
L 352.850001 13.569767 
L 353.128586 24.773159 
L 353.213246 22.132817 
L 353.414639 23.262451 
L 353.475571 18.658573 
L 353.576453 24.2887 
L 353.617701 22.757149 
L 353.898007 17.314385 
L 354.168951 21.705772 
L 354.2698 19.395641 
L 354.31067 23.382402 
L 354.475853 16.501872 
L 354.637185 17.449748 
L 354.699987 16.98264 
L 354.71952 18.164698 
L 354.71952 18.164698 
" clip-path="url(#paf0fc3a4af)" style="fill: none; stroke: #ff0000; stroke-opacity: 0.5; stroke-width: 2.1; stroke-linecap: square"/>
   </g>
   <g id="patch_3">
    <path d="M 23.760625 148.36327 
L 23.760625 0.72 
" style="fill: none; stroke: #000000; stroke-width: 0.8; stroke-linejoin: miter; stroke-linecap: square"/>
   </g>
   <g id="patch_4">
    <path d="M 354.71952 148.36327 
L 354.71952 0.72 
" style="fill: none; stroke: #000000; stroke-width: 0.8; stroke-linejoin: miter; stroke-linecap: square"/>
   </g>
   <g id="patch_5">
    <path d="M 23.760625 148.36327 
L 354.71952 148.36327 
" style="fill: none; stroke: #000000; stroke-width: 0.8; stroke-linejoin: miter; stroke-linecap: square"/>
   </g>
   <g id="patch_6">
    <path d="M 23.760625 0.72 
L 354.71952 0.72 
" style="fill: none; stroke: #000000; stroke-width: 0.8; stroke-linejoin: miter; stroke-linecap: square"/>
   </g>
   <g id="legend_1">
    <g id="patch_7">
     <path d="M 30.760625 143.36327 
L 104.529375 143.36327 
Q 106.529375 143.36327 106.529375 141.36327 
L 106.529375 113.00702 
Q 106.529375 111.00702 104.529375 111.00702 
L 30.760625 111.00702 
Q 28.760625 111.00702 28.760625 113.00702 
L 28.760625 141.36327 
Q 28.760625 143.36327 30.760625 143.36327 
z
" style="fill: #ffffff; opacity: 0.8; stroke: #cccccc; stroke-linejoin: miter"/>
    </g>
    <g id="line2d_25">
     <path d="M 32.760625 119.105457 
L 42.760625 119.105457 
L 52.760625 119.105457 
" style="fill: none; stroke: #0000ff; stroke-opacity: 0.5; stroke-width: 2.1; stroke-linecap: square"/>
    </g>
    <g id="text_14">
     <!-- RNEA -->
     <g transform="translate(60.760625 122.605457) scale(0.1 -0.1)">
      <defs>
       <path id="DejaVuSans-52" d="M 2841 2188 
Q 3044 2119 3236 1894 
Q 3428 1669 3622 1275 
L 4263 0 
L 3584 0 
L 2988 1197 
Q 2756 1666 2539 1819 
Q 2322 1972 1947 1972 
L 1259 1972 
L 1259 0 
L 628 0 
L 628 4666 
L 2053 4666 
Q 2853 4666 3247 4331 
Q 3641 3997 3641 3322 
Q 3641 2881 3436 2590 
Q 3231 2300 2841 2188 
z
M 1259 4147 
L 1259 2491 
L 2053 2491 
Q 2509 2491 2742 2702 
Q 2975 2913 2975 3322 
Q 2975 3731 2742 3939 
Q 2509 4147 2053 4147 
L 1259 4147 
z
" transform="scale(0.015625)"/>
       <path id="DejaVuSans-45" d="M 628 4666 
L 3578 4666 
L 3578 4134 
L 1259 4134 
L 1259 2753 
L 3481 2753 
L 3481 2222 
L 1259 2222 
L 1259 531 
L 3634 531 
L 3634 0 
L 628 0 
L 628 4666 
z
" transform="scale(0.015625)"/>
       <path id="DejaVuSans-41" d="M 2188 4044 
L 1331 1722 
L 3047 1722 
L 2188 4044 
z
M 1831 4666 
L 2547 4666 
L 4325 0 
L 3669 0 
L 3244 1197 
L 1141 1197 
L 716 0 
L 50 0 
L 1831 4666 
z
" transform="scale(0.015625)"/>
      </defs>
      <use xlink:href="#DejaVuSans-52"/>
      <use xlink:href="#DejaVuSans-4e" x="69.482422"/>
      <use xlink:href="#DejaVuSans-45" x="144.287109"/>
      <use xlink:href="#DejaVuSans-41" x="207.470703"/>
     </g>
    </g>
    <g id="line2d_26">
     <path d="M 32.760625 133.783582 
L 42.760625 133.783582 
L 52.760625 133.783582 
" style="fill: none; stroke: #ff0000; stroke-opacity: 0.5; stroke-width: 2.1; stroke-linecap: square"/>
    </g>
    <g id="text_15">
     <!-- BURNEA -->
     <g transform="translate(60.760625 137.283582) scale(0.1 -0.1)">
      <defs>
       <path id="DejaVuSans-42" d="M 1259 2228 
L 1259 519 
L 2272 519 
Q 2781 519 3026 730 
Q 3272 941 3272 1375 
Q 3272 1813 3026 2020 
Q 2781 2228 2272 2228 
L 1259 2228 
z
M 1259 4147 
L 1259 2741 
L 2194 2741 
Q 2656 2741 2882 2914 
Q 3109 3088 3109 3444 
Q 3109 3797 2882 3972 
Q 2656 4147 2194 4147 
L 1259 4147 
z
M 628 4666 
L 2241 4666 
Q 2963 4666 3353 4366 
Q 3744 4066 3744 3513 
Q 3744 3084 3544 2831 
Q 3344 2578 2956 2516 
Q 3422 2416 3680 2098 
Q 3938 1781 3938 1306 
Q 3938 681 3513 340 
Q 3088 0 2303 0 
L 628 0 
L 628 4666 
z
" transform="scale(0.015625)"/>
       <path id="DejaVuSans-55" d="M 556 4666 
L 1191 4666 
L 1191 1831 
Q 1191 1081 1462 751 
Q 1734 422 2344 422 
Q 2950 422 3222 751 
Q 3494 1081 3494 1831 
L 3494 4666 
L 4128 4666 
L 4128 1753 
Q 4128 841 3676 375 
Q 3225 -91 2344 -91 
Q 1459 -91 1007 375 
Q 556 841 556 1753 
L 556 4666 
z
" transform="scale(0.015625)"/>
      </defs>
      <use xlink:href="#DejaVuSans-42"/>
      <use xlink:href="#DejaVuSans-55" x="68.603516"/>
      <use xlink:href="#DejaVuSans-52" x="141.796875"/>
      <use xlink:href="#DejaVuSans-4e" x="211.279297"/>
      <use xlink:href="#DejaVuSans-45" x="286.083984"/>
      <use xlink:href="#DejaVuSans-41" x="349.267578"/>
     </g>
    </g>
   </g>
  </g>
 </g>
 <defs>
  <clipPath id="paf0fc3a4af">
   <rect x="23.760625" y="0.72" width="330.958895" height="147.64327"/>
  </clipPath>
 </defs>
</svg>
