<?xml version="1.0" encoding="utf-8" standalone="no"?>
<!DOCTYPE svg PUBLIC "-//W3C//DTD SVG 1.1//EN"
  "http://www.w3.org/Graphics/SVG/1.1/DTD/svg11.dtd">
<svg xmlns:xlink="http://www.w3.org/1999/xlink" width="355.43952pt" height="175.43952pt" viewBox="0 0 355.43952 175.43952" xmlns="http://www.w3.org/2000/svg" version="1.1">
 <metadata>
  <rdf:RDF xmlns:dc="http://purl.org/dc/elements/1.1/" xmlns:cc="http://creativecommons.org/ns#" xmlns:rdf="http://www.w3.org/1999/02/22-rdf-syntax-ns#">
   <cc:Work>
    <dc:type rdf:resource="http://purl.org/dc/dcmitype/StillImage"/>
    <dc:date>2023-09-09T18:29:39.522787</dc:date>
    <dc:format>image/svg+xml</dc:format>
    <dc:creator>
     <cc:Agent>
      <dc:title>Matplotlib v3.7.2, https://matplotlib.org/</dc:title>
     </cc:Agent>
    </dc:creator>
   </cc:Work>
  </rdf:RDF>
 </metadata>
 <defs>
  <style type="text/css">*{stroke-linejoin: round; stroke-linecap: butt}</style>
 </defs>
 <g id="figure_1">
  <g id="patch_1">
   <path d="M 0 175.43952 
L 355.43952 175.43952 
L 355.43952 0 
L 0 0 
L 0 175.43952 
z
" style="fill: none"/>
  </g>
  <g id="axes_1">
   <g id="patch_2">
    <path d="M 38.502813 148.36327 
L 354.71952 148.36327 
L 354.71952 0.72 
L 38.502813 0.72 
L 38.502813 148.36327 
z
" style="fill: none"/>
   </g>
   <g id="matplotlib.axis_1">
    <g id="xtick_1">
     <g id="line2d_1">
      <path d="M 38.502813 148.36327 
L 38.502813 0.72 
" clip-path="url(#p1424bc2b59)" style="fill: none; stroke-dasharray: 0.8,1.32; stroke-dashoffset: 0; stroke: #000000; stroke-opacity: 0.5; stroke-width: 0.8"/>
     </g>
     <g id="line2d_2">
      <defs>
       <path id="mf72b2e9cfc" d="M 0 0 
L 0 3.5 
" style="stroke: #000000; stroke-width: 0.8"/>
      </defs>
      <g>
       <use xlink:href="#mf72b2e9cfc" x="38.502813" y="148.36327" style="stroke: #000000; stroke-width: 0.8"/>
      </g>
     </g>
     <g id="text_1">
      <!-- 0 -->
      <g transform="translate(35.321563 162.961707) scale(0.1 -0.1)">
       <defs>
        <path id="DejaVuSans-30" d="M 2034 4250 
Q 1547 4250 1301 3770 
Q 1056 3291 1056 2328 
Q 1056 1369 1301 889 
Q 1547 409 2034 409 
Q 2525 409 2770 889 
Q 3016 1369 3016 2328 
Q 3016 3291 2770 3770 
Q 2525 4250 2034 4250 
z
M 2034 4750 
Q 2819 4750 3233 4129 
Q 3647 3509 3647 2328 
Q 3647 1150 3233 529 
Q 2819 -91 2034 -91 
Q 1250 -91 836 529 
Q 422 1150 422 2328 
Q 422 3509 836 4129 
Q 1250 4750 2034 4750 
z
" transform="scale(0.015625)"/>
       </defs>
       <use xlink:href="#DejaVuSans-30"/>
      </g>
     </g>
    </g>
    <g id="xtick_2">
     <g id="line2d_3">
      <path d="M 86.802252 148.36327 
L 86.802252 0.72 
" clip-path="url(#p1424bc2b59)" style="fill: none; stroke-dasharray: 0.8,1.32; stroke-dashoffset: 0; stroke: #000000; stroke-opacity: 0.5; stroke-width: 0.8"/>
     </g>
     <g id="line2d_4">
      <g>
       <use xlink:href="#mf72b2e9cfc" x="86.802252" y="148.36327" style="stroke: #000000; stroke-width: 0.8"/>
      </g>
     </g>
     <g id="text_2">
      <!-- 5 -->
      <g transform="translate(83.621002 162.961707) scale(0.1 -0.1)">
       <defs>
        <path id="DejaVuSans-35" d="M 691 4666 
L 3169 4666 
L 3169 4134 
L 1269 4134 
L 1269 2991 
Q 1406 3038 1543 3061 
Q 1681 3084 1819 3084 
Q 2600 3084 3056 2656 
Q 3513 2228 3513 1497 
Q 3513 744 3044 326 
Q 2575 -91 1722 -91 
Q 1428 -91 1123 -41 
Q 819 9 494 109 
L 494 744 
Q 775 591 1075 516 
Q 1375 441 1709 441 
Q 2250 441 2565 725 
Q 2881 1009 2881 1497 
Q 2881 1984 2565 2268 
Q 2250 2553 1709 2553 
Q 1456 2553 1204 2497 
Q 953 2441 691 2322 
L 691 4666 
z
" transform="scale(0.015625)"/>
       </defs>
       <use xlink:href="#DejaVuSans-35"/>
      </g>
     </g>
    </g>
    <g id="xtick_3">
     <g id="line2d_5">
      <path d="M 135.101691 148.36327 
L 135.101691 0.72 
" clip-path="url(#p1424bc2b59)" style="fill: none; stroke-dasharray: 0.8,1.32; stroke-dashoffset: 0; stroke: #000000; stroke-opacity: 0.5; stroke-width: 0.8"/>
     </g>
     <g id="line2d_6">
      <g>
       <use xlink:href="#mf72b2e9cfc" x="135.101691" y="148.36327" style="stroke: #000000; stroke-width: 0.8"/>
      </g>
     </g>
     <g id="text_3">
      <!-- 10 -->
      <g transform="translate(128.739191 162.961707) scale(0.1 -0.1)">
       <defs>
        <path id="DejaVuSans-31" d="M 794 531 
L 1825 531 
L 1825 4091 
L 703 3866 
L 703 4441 
L 1819 4666 
L 2450 4666 
L 2450 531 
L 3481 531 
L 3481 0 
L 794 0 
L 794 531 
z
" transform="scale(0.015625)"/>
       </defs>
       <use xlink:href="#DejaVuSans-31"/>
       <use xlink:href="#DejaVuSans-30" x="63.623047"/>
      </g>
     </g>
    </g>
    <g id="xtick_4">
     <g id="line2d_7">
      <path d="M 183.40113 148.36327 
L 183.40113 0.72 
" clip-path="url(#p1424bc2b59)" style="fill: none; stroke-dasharray: 0.8,1.32; stroke-dashoffset: 0; stroke: #000000; stroke-opacity: 0.5; stroke-width: 0.8"/>
     </g>
     <g id="line2d_8">
      <g>
       <use xlink:href="#mf72b2e9cfc" x="183.40113" y="148.36327" style="stroke: #000000; stroke-width: 0.8"/>
      </g>
     </g>
     <g id="text_4">
      <!-- 15 -->
      <g transform="translate(177.03863 162.961707) scale(0.1 -0.1)">
       <use xlink:href="#DejaVuSans-31"/>
       <use xlink:href="#DejaVuSans-35" x="63.623047"/>
      </g>
     </g>
    </g>
    <g id="xtick_5">
     <g id="line2d_9">
      <path d="M 231.700569 148.36327 
L 231.700569 0.72 
" clip-path="url(#p1424bc2b59)" style="fill: none; stroke-dasharray: 0.8,1.32; stroke-dashoffset: 0; stroke: #000000; stroke-opacity: 0.5; stroke-width: 0.8"/>
     </g>
     <g id="line2d_10">
      <g>
       <use xlink:href="#mf72b2e9cfc" x="231.700569" y="148.36327" style="stroke: #000000; stroke-width: 0.8"/>
      </g>
     </g>
     <g id="text_5">
      <!-- 20 -->
      <g transform="translate(225.338069 162.961707) scale(0.1 -0.1)">
       <defs>
        <path id="DejaVuSans-32" d="M 1228 531 
L 3431 531 
L 3431 0 
L 469 0 
L 469 531 
Q 828 903 1448 1529 
Q 2069 2156 2228 2338 
Q 2531 2678 2651 2914 
Q 2772 3150 2772 3378 
Q 2772 3750 2511 3984 
Q 2250 4219 1831 4219 
Q 1534 4219 1204 4116 
Q 875 4013 500 3803 
L 500 4441 
Q 881 4594 1212 4672 
Q 1544 4750 1819 4750 
Q 2544 4750 2975 4387 
Q 3406 4025 3406 3419 
Q 3406 3131 3298 2873 
Q 3191 2616 2906 2266 
Q 2828 2175 2409 1742 
Q 1991 1309 1228 531 
z
" transform="scale(0.015625)"/>
       </defs>
       <use xlink:href="#DejaVuSans-32"/>
       <use xlink:href="#DejaVuSans-30" x="63.623047"/>
      </g>
     </g>
    </g>
    <g id="xtick_6">
     <g id="line2d_11">
      <path d="M 280.000008 148.36327 
L 280.000008 0.72 
" clip-path="url(#p1424bc2b59)" style="fill: none; stroke-dasharray: 0.8,1.32; stroke-dashoffset: 0; stroke: #000000; stroke-opacity: 0.5; stroke-width: 0.8"/>
     </g>
     <g id="line2d_12">
      <g>
       <use xlink:href="#mf72b2e9cfc" x="280.000008" y="148.36327" style="stroke: #000000; stroke-width: 0.8"/>
      </g>
     </g>
     <g id="text_6">
      <!-- 25 -->
      <g transform="translate(273.637508 162.961707) scale(0.1 -0.1)">
       <use xlink:href="#DejaVuSans-32"/>
       <use xlink:href="#DejaVuSans-35" x="63.623047"/>
      </g>
     </g>
    </g>
    <g id="xtick_7">
     <g id="line2d_13">
      <path d="M 328.299448 148.36327 
L 328.299448 0.72 
" clip-path="url(#p1424bc2b59)" style="fill: none; stroke-dasharray: 0.8,1.32; stroke-dashoffset: 0; stroke: #000000; stroke-opacity: 0.5; stroke-width: 0.8"/>
     </g>
     <g id="line2d_14">
      <g>
       <use xlink:href="#mf72b2e9cfc" x="328.299448" y="148.36327" style="stroke: #000000; stroke-width: 0.8"/>
      </g>
     </g>
     <g id="text_7">
      <!-- 30 -->
      <g transform="translate(321.936948 162.961707) scale(0.1 -0.1)">
       <defs>
        <path id="DejaVuSans-33" d="M 2597 2516 
Q 3050 2419 3304 2112 
Q 3559 1806 3559 1356 
Q 3559 666 3084 287 
Q 2609 -91 1734 -91 
Q 1441 -91 1130 -33 
Q 819 25 488 141 
L 488 750 
Q 750 597 1062 519 
Q 1375 441 1716 441 
Q 2309 441 2620 675 
Q 2931 909 2931 1356 
Q 2931 1769 2642 2001 
Q 2353 2234 1838 2234 
L 1294 2234 
L 1294 2753 
L 1863 2753 
Q 2328 2753 2575 2939 
Q 2822 3125 2822 3475 
Q 2822 3834 2567 4026 
Q 2313 4219 1838 4219 
Q 1578 4219 1281 4162 
Q 984 4106 628 3988 
L 628 4550 
Q 988 4650 1302 4700 
Q 1616 4750 1894 4750 
Q 2613 4750 3031 4423 
Q 3450 4097 3450 3541 
Q 3450 3153 3228 2886 
Q 3006 2619 2597 2516 
z
" transform="scale(0.015625)"/>
       </defs>
       <use xlink:href="#DejaVuSans-33"/>
       <use xlink:href="#DejaVuSans-30" x="63.623047"/>
      </g>
     </g>
    </g>
    <g id="text_8">
     <!-- Zeit [s] -->
     <g transform="translate(178.665073 172.639832) scale(0.1 -0.1)">
      <defs>
       <path id="DejaVuSans-5a" d="M 359 4666 
L 4025 4666 
L 4025 4184 
L 1075 531 
L 4097 531 
L 4097 0 
L 288 0 
L 288 481 
L 3238 4134 
L 359 4134 
L 359 4666 
z
" transform="scale(0.015625)"/>
       <path id="DejaVuSans-65" d="M 3597 1894 
L 3597 1613 
L 953 1613 
Q 991 1019 1311 708 
Q 1631 397 2203 397 
Q 2534 397 2845 478 
Q 3156 559 3463 722 
L 3463 178 
Q 3153 47 2828 -22 
Q 2503 -91 2169 -91 
Q 1331 -91 842 396 
Q 353 884 353 1716 
Q 353 2575 817 3079 
Q 1281 3584 2069 3584 
Q 2775 3584 3186 3129 
Q 3597 2675 3597 1894 
z
M 3022 2063 
Q 3016 2534 2758 2815 
Q 2500 3097 2075 3097 
Q 1594 3097 1305 2825 
Q 1016 2553 972 2059 
L 3022 2063 
z
" transform="scale(0.015625)"/>
       <path id="DejaVuSans-69" d="M 603 3500 
L 1178 3500 
L 1178 0 
L 603 0 
L 603 3500 
z
M 603 4863 
L 1178 4863 
L 1178 4134 
L 603 4134 
L 603 4863 
z
" transform="scale(0.015625)"/>
       <path id="DejaVuSans-74" d="M 1172 4494 
L 1172 3500 
L 2356 3500 
L 2356 3053 
L 1172 3053 
L 1172 1153 
Q 1172 725 1289 603 
Q 1406 481 1766 481 
L 2356 481 
L 2356 0 
L 1766 0 
Q 1100 0 847 248 
Q 594 497 594 1153 
L 594 3053 
L 172 3053 
L 172 3500 
L 594 3500 
L 594 4494 
L 1172 4494 
z
" transform="scale(0.015625)"/>
       <path id="DejaVuSans-20" transform="scale(0.015625)"/>
       <path id="DejaVuSans-5b" d="M 550 4863 
L 1875 4863 
L 1875 4416 
L 1125 4416 
L 1125 -397 
L 1875 -397 
L 1875 -844 
L 550 -844 
L 550 4863 
z
" transform="scale(0.015625)"/>
       <path id="DejaVuSans-73" d="M 2834 3397 
L 2834 2853 
Q 2591 2978 2328 3040 
Q 2066 3103 1784 3103 
Q 1356 3103 1142 2972 
Q 928 2841 928 2578 
Q 928 2378 1081 2264 
Q 1234 2150 1697 2047 
L 1894 2003 
Q 2506 1872 2764 1633 
Q 3022 1394 3022 966 
Q 3022 478 2636 193 
Q 2250 -91 1575 -91 
Q 1294 -91 989 -36 
Q 684 19 347 128 
L 347 722 
Q 666 556 975 473 
Q 1284 391 1588 391 
Q 1994 391 2212 530 
Q 2431 669 2431 922 
Q 2431 1156 2273 1281 
Q 2116 1406 1581 1522 
L 1381 1569 
Q 847 1681 609 1914 
Q 372 2147 372 2553 
Q 372 3047 722 3315 
Q 1072 3584 1716 3584 
Q 2034 3584 2315 3537 
Q 2597 3491 2834 3397 
z
" transform="scale(0.015625)"/>
       <path id="DejaVuSans-5d" d="M 1947 4863 
L 1947 -844 
L 622 -844 
L 622 -397 
L 1369 -397 
L 1369 4416 
L 622 4416 
L 622 4863 
L 1947 4863 
z
" transform="scale(0.015625)"/>
      </defs>
      <use xlink:href="#DejaVuSans-5a"/>
      <use xlink:href="#DejaVuSans-65" x="68.505859"/>
      <use xlink:href="#DejaVuSans-69" x="130.029297"/>
      <use xlink:href="#DejaVuSans-74" x="157.8125"/>
      <use xlink:href="#DejaVuSans-20" x="197.021484"/>
      <use xlink:href="#DejaVuSans-5b" x="228.808594"/>
      <use xlink:href="#DejaVuSans-73" x="267.822266"/>
      <use xlink:href="#DejaVuSans-5d" x="319.921875"/>
     </g>
    </g>
   </g>
   <g id="matplotlib.axis_2">
    <g id="ytick_1">
     <g id="line2d_15">
      <path d="M 38.502813 142.731773 
L 354.71952 142.731773 
" clip-path="url(#p1424bc2b59)" style="fill: none; stroke-dasharray: 0.8,1.32; stroke-dashoffset: 0; stroke: #000000; stroke-opacity: 0.5; stroke-width: 0.8"/>
     </g>
     <g id="line2d_16">
      <defs>
       <path id="mef910a1021" d="M 0 0 
L -3.5 0 
" style="stroke: #000000; stroke-width: 0.8"/>
      </defs>
      <g>
       <use xlink:href="#mef910a1021" x="38.502813" y="142.731773" style="stroke: #000000; stroke-width: 0.8"/>
      </g>
     </g>
     <g id="text_9">
      <!-- −25 -->
      <g transform="translate(10.398125 146.530991) scale(0.1 -0.1)">
       <defs>
        <path id="DejaVuSans-2212" d="M 678 2272 
L 4684 2272 
L 4684 1741 
L 678 1741 
L 678 2272 
z
" transform="scale(0.015625)"/>
       </defs>
       <use xlink:href="#DejaVuSans-2212"/>
       <use xlink:href="#DejaVuSans-32" x="83.789062"/>
       <use xlink:href="#DejaVuSans-35" x="147.412109"/>
      </g>
     </g>
    </g>
    <g id="ytick_2">
     <g id="line2d_17">
      <path d="M 38.502813 121.553404 
L 354.71952 121.553404 
" clip-path="url(#p1424bc2b59)" style="fill: none; stroke-dasharray: 0.8,1.32; stroke-dashoffset: 0; stroke: #000000; stroke-opacity: 0.5; stroke-width: 0.8"/>
     </g>
     <g id="line2d_18">
      <g>
       <use xlink:href="#mef910a1021" x="38.502813" y="121.553404" style="stroke: #000000; stroke-width: 0.8"/>
      </g>
     </g>
     <g id="text_10">
      <!-- −20 -->
      <g transform="translate(10.398125 125.352623) scale(0.1 -0.1)">
       <use xlink:href="#DejaVuSans-2212"/>
       <use xlink:href="#DejaVuSans-32" x="83.789062"/>
       <use xlink:href="#DejaVuSans-30" x="147.412109"/>
      </g>
     </g>
    </g>
    <g id="ytick_3">
     <g id="line2d_19">
      <path d="M 38.502813 100.375036 
L 354.71952 100.375036 
" clip-path="url(#p1424bc2b59)" style="fill: none; stroke-dasharray: 0.8,1.32; stroke-dashoffset: 0; stroke: #000000; stroke-opacity: 0.5; stroke-width: 0.8"/>
     </g>
     <g id="line2d_20">
      <g>
       <use xlink:href="#mef910a1021" x="38.502813" y="100.375036" style="stroke: #000000; stroke-width: 0.8"/>
      </g>
     </g>
     <g id="text_11">
      <!-- −15 -->
      <g transform="translate(10.398125 104.174255) scale(0.1 -0.1)">
       <use xlink:href="#DejaVuSans-2212"/>
       <use xlink:href="#DejaVuSans-31" x="83.789062"/>
       <use xlink:href="#DejaVuSans-35" x="147.412109"/>
      </g>
     </g>
    </g>
    <g id="ytick_4">
     <g id="line2d_21">
      <path d="M 38.502813 79.196668 
L 354.71952 79.196668 
" clip-path="url(#p1424bc2b59)" style="fill: none; stroke-dasharray: 0.8,1.32; stroke-dashoffset: 0; stroke: #000000; stroke-opacity: 0.5; stroke-width: 0.8"/>
     </g>
     <g id="line2d_22">
      <g>
       <use xlink:href="#mef910a1021" x="38.502813" y="79.196668" style="stroke: #000000; stroke-width: 0.8"/>
      </g>
     </g>
     <g id="text_12">
      <!-- −10 -->
      <g transform="translate(10.398125 82.995887) scale(0.1 -0.1)">
       <use xlink:href="#DejaVuSans-2212"/>
       <use xlink:href="#DejaVuSans-31" x="83.789062"/>
       <use xlink:href="#DejaVuSans-30" x="147.412109"/>
      </g>
     </g>
    </g>
    <g id="ytick_5">
     <g id="line2d_23">
      <path d="M 38.502813 58.0183 
L 354.71952 58.0183 
" clip-path="url(#p1424bc2b59)" style="fill: none; stroke-dasharray: 0.8,1.32; stroke-dashoffset: 0; stroke: #000000; stroke-opacity: 0.5; stroke-width: 0.8"/>
     </g>
     <g id="line2d_24">
      <g>
       <use xlink:href="#mef910a1021" x="38.502813" y="58.0183" style="stroke: #000000; stroke-width: 0.8"/>
      </g>
     </g>
     <g id="text_13">
      <!-- −5 -->
      <g transform="translate(16.760625 61.817519) scale(0.1 -0.1)">
       <use xlink:href="#DejaVuSans-2212"/>
       <use xlink:href="#DejaVuSans-35" x="83.789062"/>
      </g>
     </g>
    </g>
    <g id="ytick_6">
     <g id="line2d_25">
      <path d="M 38.502813 36.839932 
L 354.71952 36.839932 
" clip-path="url(#p1424bc2b59)" style="fill: none; stroke-dasharray: 0.8,1.32; stroke-dashoffset: 0; stroke: #000000; stroke-opacity: 0.5; stroke-width: 0.8"/>
     </g>
     <g id="line2d_26">
      <g>
       <use xlink:href="#mef910a1021" x="38.502813" y="36.839932" style="stroke: #000000; stroke-width: 0.8"/>
      </g>
     </g>
     <g id="text_14">
      <!-- 0 -->
      <g transform="translate(25.140313 40.63915) scale(0.1 -0.1)">
       <use xlink:href="#DejaVuSans-30"/>
      </g>
     </g>
    </g>
    <g id="ytick_7">
     <g id="line2d_27">
      <path d="M 38.502813 15.661563 
L 354.71952 15.661563 
" clip-path="url(#p1424bc2b59)" style="fill: none; stroke-dasharray: 0.8,1.32; stroke-dashoffset: 0; stroke: #000000; stroke-opacity: 0.5; stroke-width: 0.8"/>
     </g>
     <g id="line2d_28">
      <g>
       <use xlink:href="#mef910a1021" x="38.502813" y="15.661563" style="stroke: #000000; stroke-width: 0.8"/>
      </g>
     </g>
     <g id="text_15">
      <!-- 5 -->
      <g transform="translate(25.140313 19.460782) scale(0.1 -0.1)">
       <use xlink:href="#DejaVuSans-35"/>
      </g>
     </g>
    </g>
    <g id="text_16">
     <!-- Kraft [N] -->
     <g transform="translate(8.318438 95.804135) rotate(-90) scale(0.1 -0.1)">
      <defs>
       <path id="DejaVuSans-4b" d="M 628 4666 
L 1259 4666 
L 1259 2694 
L 3353 4666 
L 4166 4666 
L 1850 2491 
L 4331 0 
L 3500 0 
L 1259 2247 
L 1259 0 
L 628 0 
L 628 4666 
z
" transform="scale(0.015625)"/>
       <path id="DejaVuSans-72" d="M 2631 2963 
Q 2534 3019 2420 3045 
Q 2306 3072 2169 3072 
Q 1681 3072 1420 2755 
Q 1159 2438 1159 1844 
L 1159 0 
L 581 0 
L 581 3500 
L 1159 3500 
L 1159 2956 
Q 1341 3275 1631 3429 
Q 1922 3584 2338 3584 
Q 2397 3584 2469 3576 
Q 2541 3569 2628 3553 
L 2631 2963 
z
" transform="scale(0.015625)"/>
       <path id="DejaVuSans-61" d="M 2194 1759 
Q 1497 1759 1228 1600 
Q 959 1441 959 1056 
Q 959 750 1161 570 
Q 1363 391 1709 391 
Q 2188 391 2477 730 
Q 2766 1069 2766 1631 
L 2766 1759 
L 2194 1759 
z
M 3341 1997 
L 3341 0 
L 2766 0 
L 2766 531 
Q 2569 213 2275 61 
Q 1981 -91 1556 -91 
Q 1019 -91 701 211 
Q 384 513 384 1019 
Q 384 1609 779 1909 
Q 1175 2209 1959 2209 
L 2766 2209 
L 2766 2266 
Q 2766 2663 2505 2880 
Q 2244 3097 1772 3097 
Q 1472 3097 1187 3025 
Q 903 2953 641 2809 
L 641 3341 
Q 956 3463 1253 3523 
Q 1550 3584 1831 3584 
Q 2591 3584 2966 3190 
Q 3341 2797 3341 1997 
z
" transform="scale(0.015625)"/>
       <path id="DejaVuSans-66" d="M 2375 4863 
L 2375 4384 
L 1825 4384 
Q 1516 4384 1395 4259 
Q 1275 4134 1275 3809 
L 1275 3500 
L 2222 3500 
L 2222 3053 
L 1275 3053 
L 1275 0 
L 697 0 
L 697 3053 
L 147 3053 
L 147 3500 
L 697 3500 
L 697 3744 
Q 697 4328 969 4595 
Q 1241 4863 1831 4863 
L 2375 4863 
z
" transform="scale(0.015625)"/>
       <path id="DejaVuSans-4e" d="M 628 4666 
L 1478 4666 
L 3547 763 
L 3547 4666 
L 4159 4666 
L 4159 0 
L 3309 0 
L 1241 3903 
L 1241 0 
L 628 0 
L 628 4666 
z
" transform="scale(0.015625)"/>
      </defs>
      <use xlink:href="#DejaVuSans-4b"/>
      <use xlink:href="#DejaVuSans-72" x="65.576172"/>
      <use xlink:href="#DejaVuSans-61" x="106.689453"/>
      <use xlink:href="#DejaVuSans-66" x="167.96875"/>
      <use xlink:href="#DejaVuSans-74" x="201.423828"/>
      <use xlink:href="#DejaVuSans-20" x="240.632812"/>
      <use xlink:href="#DejaVuSans-5b" x="272.419922"/>
      <use xlink:href="#DejaVuSans-4e" x="311.433594"/>
      <use xlink:href="#DejaVuSans-5d" x="386.238281"/>
     </g>
    </g>
   </g>
   <g id="line2d_29">
    <path d="M 38.502813 4.101144 
L 354.71952 4.101145 
L 354.71952 4.101145 
" clip-path="url(#p1424bc2b59)" style="fill: none; stroke: #0000ff; stroke-opacity: 0.5; stroke-width: 2.1; stroke-linecap: square"/>
   </g>
   <g id="line2d_30">
    <path d="M 38.502813 137.072744 
L 38.737821 140.498299 
L 38.840937 140.030986 
L 38.858073 138.028323 
L 38.915701 139.000134 
L 38.996 138.825602 
L 39.052382 135.652545 
L 39.128177 136.065619 
L 39.206546 136.813588 
L 39.30483 136.409224 
L 39.389044 137.244903 
L 39.478749 135.030171 
L 39.536905 135.208295 
L 39.692784 137.07141 
L 39.77117 136.048812 
L 39.888112 136.875298 
L 40.02409 135.279083 
L 40.10147 136.744953 
L 40.199037 136.348688 
L 40.335137 137.394744 
L 40.529075 134.302808 
L 40.997532 137.794035 
L 41.13366 137.227944 
L 41.156026 136.068531 
L 41.23112 136.825586 
L 41.309887 136.98956 
L 41.546725 138.821603 
L 41.795161 137.133544 
L 42.108148 140.946931 
L 42.186354 140.528717 
L 42.269585 138.834687 
L 42.351038 139.037181 
L 42.441052 140.386966 
L 42.597351 138.911279 
L 42.675056 138.491253 
L 42.753201 138.728489 
L 42.916489 137.090981 
L 42.991752 138.635684 
L 43.395967 135.983561 
L 43.472821 136.185686 
L 43.635655 138.968017 
L 43.806811 137.420742 
L 43.884713 137.824112 
L 44.119002 134.750476 
L 44.274776 136.960722 
L 44.434952 136.148309 
L 44.528509 136.261327 
L 44.684906 133.912744 
L 44.762357 134.448461 
L 44.930061 136.186592 
L 44.999731 135.693369 
L 45.093005 136.298057 
L 45.171094 136.270321 
L 45.341968 134.939923 
L 45.406183 135.638655 
L 45.48531 135.252437 
L 45.641339 136.639017 
L 45.717658 137.304015 
L 45.90101 134.863628 
L 45.971182 133.649665 
L 46.047456 134.129097 
L 46.382204 137.956951 
L 46.457496 137.013632 
L 46.61648 138.650853 
L 47.044084 135.539456 
L 47.336133 138.332716 
L 47.472233 136.486365 
L 47.744031 143.220555 
L 47.822312 141.978988 
L 47.900331 141.492218 
L 48.05831 136.854257 
L 48.157508 137.725115 
L 48.217857 138.848824 
L 48.298911 138.678128 
L 48.703368 136.254918 
L 48.959534 137.851077 
L 49.039076 137.650641 
L 49.291612 139.113181 
L 49.352002 138.812075 
L 49.431728 138.607187 
L 49.608852 136.256464 
L 49.754536 136.898389 
L 49.859175 137.149626 
L 50.02602 138.819562 
L 50.193099 134.745775 
L 50.2049 134.467985 
L 50.275555 134.585802 
L 50.362067 136.292387 
L 50.576849 138.563937 
L 50.673698 138.233284 
L 50.82926 136.151229 
L 51.063053 139.320458 
L 51.220907 137.365148 
L 51.297247 136.887717 
L 51.491074 138.618893 
L 51.537186 138.734324 
L 51.647206 138.056757 
L 51.746133 138.180477 
L 51.843803 135.816748 
L 52.029296 139.352106 
L 52.095767 139.089706 
L 52.357167 136.615354 
L 52.756722 141.268591 
L 52.815409 141.03823 
L 53.050568 140.223227 
L 53.204722 138.561596 
L 53.282349 139.214139 
L 53.380404 138.073223 
L 53.61403 133.028118 
L 53.710874 133.511006 
L 54.022606 137.900101 
L 54.100343 137.507532 
L 54.197836 138.009487 
L 54.431415 140.543986 
L 54.508782 140.272814 
L 54.878581 135.748286 
L 54.917223 138.284098 
L 54.983312 138.228171 
L 55.072484 137.003966 
L 55.583551 141.960713 
L 55.638839 141.425884 
L 55.716714 138.978885 
L 55.807566 139.092671 
L 55.872646 140.794442 
L 56.066612 140.270017 
L 56.125612 140.568227 
L 56.280685 138.693338 
L 56.554033 141.203082 
L 56.613092 140.710077 
L 56.690673 138.655237 
L 56.76844 139.056341 
L 56.885079 138.992596 
L 57.060348 139.865533 
L 57.235723 139.292906 
L 57.29405 139.402229 
L 57.352874 139.331459 
L 57.464592 138.880592 
L 57.489055 139.040962 
L 57.902949 140.995955 
L 58.078297 138.654106 
L 58.228503 139.965152 
L 58.365869 139.721254 
L 58.429805 139.283732 
L 58.473649 140.063245 
L 58.473732 139.207585 
L 58.55121 139.642737 
L 58.779144 140.016476 
L 58.815468 139.628184 
L 58.836023 140.523973 
L 58.912452 140.337229 
L 59.003179 139.037807 
L 59.021962 139.441637 
L 59.100046 138.7768 
L 59.193016 139.595628 
L 59.282441 139.557616 
L 59.397292 138.877636 
L 59.509224 139.158532 
L 59.590613 138.900352 
L 59.74555 139.728299 
L 59.86162 138.259996 
L 59.900723 140.804407 
L 59.979132 140.248877 
L 60.232021 133.272871 
L 60.309421 134.752902 
L 60.46542 137.088685 
L 60.58206 136.540273 
L 60.644476 138.998235 
L 60.719593 138.266115 
L 60.898684 136.885146 
L 61.055255 138.290729 
L 61.132976 139.216008 
L 61.189343 139.192443 
L 61.384283 138.945739 
L 61.462262 137.386247 
L 61.521787 137.401478 
L 61.600594 138.391543 
L 61.741816 138.624184 
L 61.832855 140.066933 
L 62.007419 138.828879 
L 62.184327 136.595091 
L 62.262531 136.976455 
L 62.40228 134.637264 
L 62.495907 134.600569 
L 62.729615 133.164157 
L 62.748243 133.575967 
L 63.585278 137.291431 
L 64.039448 137.946377 
L 64.463966 137.533382 
L 64.481168 136.396103 
L 64.558547 137.227727 
L 64.656419 138.372141 
L 64.812983 135.995805 
L 65.104529 142.685861 
L 65.125554 141.010549 
L 65.358674 139.933239 
L 65.376968 138.744794 
L 65.512915 138.004844 
L 65.651902 140.302477 
L 65.922396 137.011275 
L 66.101048 140.213033 
L 66.183738 140.580688 
L 66.331997 139.557021 
L 66.526815 134.408173 
L 66.585711 134.700627 
L 66.681499 136.326877 
L 66.865097 133.680647 
L 66.973917 133.740431 
L 67.071161 136.646475 
L 67.151224 137.592707 
L 67.305184 137.149778 
L 67.519321 134.730379 
L 67.680223 136.189984 
L 67.733739 136.163951 
L 67.836688 135.312422 
L 67.889406 135.746371 
L 67.968296 137.88926 
L 68.041385 136.626065 
L 68.158368 136.260983 
L 68.430956 137.848703 
L 68.606096 137.312081 
L 68.683744 136.803345 
L 68.761921 136.905044 
L 68.936731 137.941853 
L 69.01559 138.423555 
L 69.073631 137.967451 
L 69.248114 138.827206 
L 69.326322 138.710981 
L 69.425739 138.482803 
L 69.57887 136.725581 
L 69.735566 138.308929 
L 69.891536 136.095707 
L 70.047294 133.409145 
L 70.205012 134.574056 
L 70.360705 136.448922 
L 70.534667 134.860769 
L 70.690068 138.99106 
L 70.825387 139.475306 
L 70.844679 140.476811 
L 70.944059 139.659109 
L 71.110011 139.366698 
L 71.110337 139.717262 
L 71.205726 137.876856 
L 71.574704 142.201893 
L 71.767818 144.982126 
L 71.904171 144.580332 
L 72.059898 143.68184 
L 72.312945 139.809747 
L 72.409858 137.767485 
L 72.546052 133.727968 
L 72.759341 134.910845 
L 72.935973 134.239631 
L 73.031259 135.166057 
L 73.113881 135.000395 
L 73.188496 135.420385 
L 73.343539 138.842276 
L 73.424679 139.188604 
L 73.577851 139.334041 
L 73.636271 140.63378 
L 73.679277 140.57927 
L 73.753158 140.254527 
L 73.908592 142.069155 
L 73.98731 142.021603 
L 74.163115 137.535866 
L 74.280722 136.970243 
L 74.299231 138.164429 
L 74.41501 138.339565 
L 74.473795 137.755307 
L 74.552564 138.163979 
L 74.629568 136.866386 
L 74.784991 136.196709 
L 74.903278 139.591119 
L 75.135191 138.126831 
L 75.21404 137.253618 
L 75.271707 137.80123 
L 75.448406 138.488806 
L 75.526898 139.115402 
L 75.641748 137.786593 
L 75.720392 138.071921 
L 75.778208 139.081585 
L 75.860005 138.672807 
L 75.93147 137.58767 
L 76.078872 141.418715 
L 76.257972 139.390733 
L 76.523977 135.861499 
L 76.640219 137.032746 
L 76.737905 136.762521 
L 76.89764 130.897521 
L 76.972381 132.283195 
L 77.050658 133.903606 
L 77.129726 133.87366 
L 77.211697 132.571638 
L 77.287041 133.431224 
L 77.538345 131.492865 
L 77.752648 131.499893 
L 77.771767 134.750801 
L 77.850535 132.272232 
L 77.986817 133.835244 
L 78.103495 136.794463 
L 78.181036 136.815893 
L 78.329259 137.09749 
L 78.415998 140.252199 
L 78.491799 138.630116 
L 78.511122 138.898982 
L 78.636902 139.939238 
L 78.672419 141.689071 
L 78.823574 138.934923 
L 78.902841 137.701383 
L 79.135215 138.094089 
L 79.350679 134.457959 
L 79.38959 134.351224 
L 79.547082 133.396704 
L 79.592881 133.741663 
L 79.624434 133.740838 
L 79.800387 134.930686 
L 79.900322 134.571875 
L 79.944063 133.816468 
L 80.112411 136.715631 
L 80.259097 136.10391 
L 80.423459 133.880773 
L 80.442686 134.618678 
L 80.569401 134.725159 
L 80.611767 134.654972 
L 81.008805 129.870157 
L 81.146999 132.36191 
L 81.242121 132.318732 
L 81.39837 134.905559 
L 81.577071 137.214699 
L 81.655048 137.584369 
L 81.717746 138.701682 
L 81.81032 138.650855 
L 81.966286 140.642428 
L 82.043815 140.062877 
L 82.283178 137.911472 
L 82.298408 140.560863 
L 82.376591 138.193958 
L 82.435902 138.152516 
L 82.553561 137.213674 
L 82.610779 138.353486 
L 82.786423 135.320511 
L 82.848394 135.928823 
L 82.94422 138.468063 
L 82.9608 136.935722 
L 83.097711 135.501073 
L 83.33323 138.34066 
L 83.528432 136.259481 
L 83.666775 137.699703 
L 83.722526 135.975057 
L 83.89917 137.17497 
L 83.996056 135.891337 
L 84.078013 136.270385 
L 84.132762 136.339066 
L 84.288983 138.263142 
L 84.429281 138.147325 
L 84.448431 137.901711 
L 84.548809 138.985199 
L 84.624035 138.789023 
L 84.703975 138.337781 
L 84.93464 140.201424 
L 85.422051 135.895681 
L 85.504627 136.245604 
L 85.57801 137.100986 
L 85.675468 136.853448 
L 85.83024 134.999502 
L 86.303823 140.39572 
L 86.456293 137.043219 
L 86.534009 137.21586 
L 86.650435 139.263572 
L 86.709147 138.966573 
L 86.883701 141.088946 
L 87.433123 134.614007 
L 87.654988 132.928482 
L 87.703333 133.309321 
L 88.072722 138.266878 
L 88.328564 139.427089 
L 88.424543 139.206315 
L 88.581079 136.80408 
L 88.716427 137.559869 
L 89.144125 135.773707 
L 89.223355 136.016073 
L 89.281034 136.799847 
L 89.457055 135.018474 
L 89.654734 136.538938 
L 89.854772 135.634746 
L 89.945318 135.102216 
L 90.006933 133.540587 
L 90.082451 133.8099 
L 90.277386 135.027391 
L 90.447934 133.416768 
L 90.579063 136.850545 
L 90.589575 136.580158 
L 90.682417 135.477815 
L 90.766375 135.387012 
L 90.941863 137.826837 
L 90.986034 136.525802 
L 91.155865 138.992414 
L 91.21394 138.977574 
L 91.370085 139.139695 
L 91.430683 138.358193 
L 91.470687 139.634265 
L 91.532946 139.628276 
L 91.704891 139.553643 
L 91.783791 140.405281 
L 91.859938 139.087368 
L 91.937641 139.518686 
L 92.016474 140.101945 
L 92.096559 138.880236 
L 92.192803 138.591221 
L 92.276161 136.940451 
L 92.347228 138.556172 
L 92.424321 138.081377 
L 92.588072 136.546565 
L 92.659191 136.669905 
L 92.748516 136.053341 
L 92.910835 136.371243 
L 92.990419 135.974377 
L 93.066011 137.715566 
L 93.149125 137.458146 
L 93.224564 136.675555 
L 93.474662 139.596855 
L 93.553558 139.37899 
L 93.63059 139.044562 
L 93.707966 140.13007 
L 93.78836 140.026934 
L 93.961667 136.298945 
L 94.117914 138.62189 
L 94.195754 138.591512 
L 94.351543 137.860013 
L 94.429051 138.134342 
L 94.605305 137.487553 
L 94.761601 139.292582 
L 94.838475 138.9331 
L 94.997038 136.686879 
L 95.169768 138.934846 
L 95.481155 140.033459 
L 95.568598 140.827774 
L 95.716293 139.685158 
L 95.795018 139.716588 
L 95.911456 136.946638 
L 95.967851 137.686617 
L 96.049251 139.409425 
L 96.220692 137.251117 
L 96.280581 138.089906 
L 96.366151 136.87175 
L 96.532908 139.084949 
L 96.610853 139.07351 
L 96.69096 139.376127 
L 96.845479 136.730385 
L 96.924017 137.014341 
L 97.021984 138.196165 
L 97.085054 137.946216 
L 97.178619 137.81934 
L 97.254705 136.545598 
L 97.334041 137.133565 
L 97.424095 136.767091 
L 97.430478 138.317521 
L 97.489763 138.056351 
L 97.665453 139.841681 
L 97.899767 137.715947 
L 97.958249 138.307601 
L 97.97832 137.80654 
L 98.057508 137.727286 
L 98.240016 136.470035 
L 98.330102 137.285133 
L 98.388099 137.076068 
L 98.466542 136.343994 
L 98.621866 138.214502 
L 98.699456 136.665191 
L 98.856517 138.150659 
L 98.976924 136.862752 
L 99.034792 137.425772 
L 99.115336 136.95647 
L 99.21092 134.360615 
L 99.26865 134.983262 
L 99.405189 135.020202 
L 99.502514 138.049975 
L 99.678215 137.963538 
L 99.756059 137.490509 
L 99.775662 138.266453 
L 100.010941 137.608385 
L 100.088562 138.328403 
L 100.108479 139.606794 
L 100.167865 138.880246 
L 100.536201 133.810947 
L 100.634843 134.588977 
L 100.732757 134.354071 
L 100.791529 135.735775 
L 100.809172 133.976095 
L 100.887937 133.765551 
L 101.06359 132.62298 
L 101.082543 134.186793 
L 101.198642 134.150963 
L 101.276076 137.400943 
L 101.35482 136.776649 
L 101.432563 138.12536 
L 101.550382 138.113882 
L 101.628335 137.39439 
L 101.646703 139.287387 
L 101.726712 138.132775 
L 101.82267 139.486411 
L 101.88071 138.268717 
L 101.978443 138.5545 
L 102.077192 137.314108 
L 102.192996 137.846967 
L 102.271771 136.559098 
L 102.329476 138.706273 
L 102.733931 135.462392 
L 102.795833 135.977676 
L 102.835136 136.167803 
L 102.971011 135.785845 
L 103.019584 136.009485 
L 103.087585 134.379173 
L 103.165766 133.14677 
L 103.245137 135.025161 
L 103.403146 133.416788 
L 103.458487 135.69406 
L 103.536413 134.891434 
L 103.616624 135.083663 
L 103.758606 135.131743 
L 103.780064 134.322334 
L 103.852845 135.687374 
L 104.025459 134.188022 
L 104.187603 135.776769 
L 104.259981 135.060623 
L 104.496629 137.134289 
L 104.647767 137.595637 
L 104.846188 139.841334 
L 104.922764 138.334944 
L 104.982142 138.682633 
L 105.077358 139.882282 
L 105.136627 138.992667 
L 105.294112 138.585594 
L 105.331475 137.60128 
L 105.544047 139.238346 
L 105.743431 138.516609 
L 105.805461 138.556001 
L 105.95288 136.540417 
L 106.032876 137.570061 
L 106.108783 137.308793 
L 106.153018 137.355358 
L 106.444478 135.297627 
L 106.637749 137.059693 
L 106.735177 137.726375 
L 106.755027 137.282638 
L 107.222332 132.451536 
L 107.263651 134.375348 
L 107.418462 132.493418 
L 107.591923 133.646769 
L 107.72849 134.571547 
L 107.812649 133.89802 
L 107.883765 135.136536 
L 108.040377 134.841153 
L 108.21469 136.378306 
L 108.372038 135.791158 
L 108.448599 135.93801 
L 108.740543 139.01593 
L 108.857525 137.646095 
L 109.189783 138.698169 
L 109.270029 139.330217 
L 109.463189 137.991254 
L 109.501548 138.318471 
L 109.579656 137.81335 
L 109.660442 137.847985 
L 109.745845 138.428891 
L 109.814397 138.13176 
L 109.950662 137.357578 
L 110.378209 140.094523 
L 111.029628 133.848263 
L 111.255649 133.594721 
L 111.33645 136.473695 
L 111.431508 136.928046 
L 111.597093 135.240716 
L 111.821242 137.193001 
L 111.995771 137.85369 
L 112.152432 136.05773 
L 112.23007 137.238137 
L 112.307543 137.064889 
L 112.717274 134.156466 
L 112.793561 134.174443 
L 112.950242 134.853014 
L 113.028397 133.978955 
L 113.141688 134.25629 
L 113.436297 137.446058 
L 113.518098 136.775173 
L 113.598629 137.043698 
L 113.672815 135.855569 
L 113.923195 137.34708 
L 114.00708 137.752704 
L 114.080317 137.520342 
L 114.157327 135.883201 
L 114.238009 136.022427 
L 114.39408 138.080472 
L 114.497026 138.214355 
L 114.645917 137.772803 
L 114.80138 138.016761 
L 114.881163 136.390702 
L 114.899811 136.391788 
L 115.036951 139.327293 
L 115.135931 135.715962 
L 115.312079 136.975945 
L 115.367971 136.185418 
L 115.523699 136.92584 
L 115.608572 135.612234 
L 115.698645 136.634962 
L 115.782653 135.619081 
L 115.976053 137.338504 
L 116.103549 133.759347 
L 116.190559 134.672924 
L 116.326532 132.92622 
L 116.40449 133.396301 
L 116.55915 132.951947 
L 116.597794 134.167528 
L 116.668145 134.059645 
L 116.734683 134.40712 
L 116.967625 137.816653 
L 117.006693 136.805951 
L 117.107212 136.61058 
L 117.222495 138.441536 
L 117.482938 137.240443 
L 117.631206 135.048186 
L 117.708676 135.01726 
L 117.786381 133.939901 
L 117.999832 136.050153 
L 118.043654 135.420857 
L 118.176325 137.239044 
L 118.273731 138.026991 
L 118.352326 139.977112 
L 118.508348 139.13628 
L 118.60683 140.828864 
L 118.742616 139.759354 
L 118.761838 138.245303 
L 118.977586 136.470417 
L 119.150944 133.871031 
L 119.238237 134.20903 
L 119.306522 133.922711 
L 119.387154 132.971061 
L 119.517663 133.628342 
L 119.564956 133.238219 
L 119.639298 134.367423 
L 119.716072 134.297314 
L 119.794302 133.997549 
L 119.988574 134.756706 
L 120.242683 137.510275 
L 120.300782 135.914807 
L 120.359921 136.135239 
L 120.613994 139.221386 
L 120.865936 136.698066 
L 120.986208 135.357553 
L 121.021356 132.7149 
L 121.040705 134.547732 
L 121.138473 135.770078 
L 121.164394 137.712552 
L 121.333051 134.706407 
L 121.414466 134.942985 
L 121.8004 141.59291 
L 121.896872 141.059885 
L 121.974361 139.765058 
L 122.071906 140.089314 
L 122.149808 139.756419 
L 122.326672 140.310173 
L 122.619701 136.147699 
L 122.699337 136.18934 
L 122.814057 136.184072 
L 122.85255 135.096802 
L 123.028463 136.137888 
L 123.203057 134.640027 
L 123.456829 136.420509 
L 123.497843 135.957617 
L 123.670899 138.489535 
L 123.748522 138.019766 
L 123.906059 137.394248 
L 123.994587 138.193265 
L 124.065296 137.722279 
L 124.109418 137.753007 
L 124.170724 137.454379 
L 124.332027 140.755465 
L 124.468046 138.519953 
L 124.583776 140.742965 
L 124.642526 139.90115 
L 124.799049 138.719319 
L 124.900058 139.43872 
L 124.973957 138.615178 
L 125.129918 135.048769 
L 125.208767 135.22583 
L 125.305728 135.953149 
L 125.486226 134.44307 
L 125.523755 135.725931 
L 125.598994 134.338754 
L 125.774008 135.877685 
L 125.957514 134.496801 
L 126.047854 134.446488 
L 126.086576 133.851324 
L 126.268025 135.830171 
L 126.537702 134.127979 
L 126.667845 134.566067 
L 126.894994 136.163759 
L 126.933424 135.793762 
L 127.046216 132.969617 
L 127.199907 132.229468 
L 127.377066 131.829285 
L 127.454875 132.46434 
L 127.531924 132.18747 
L 127.785239 133.095812 
L 127.843529 132.999519 
L 128.196252 135.117467 
L 128.489992 133.812959 
L 128.586943 133.981691 
L 128.940141 139.575011 
L 128.978482 138.527594 
L 129.056128 138.788992 
L 129.154196 140.125371 
L 129.230984 138.849304 
L 129.292202 140.121784 
L 129.426346 140.084624 
L 129.699486 134.579362 
L 129.776907 137.081188 
L 129.859272 136.241655 
L 129.953849 135.272603 
L 130.030829 136.335222 
L 130.194511 135.656926 
L 130.273216 136.26927 
L 130.42025 135.931222 
L 130.458857 136.076918 
L 130.517344 137.79832 
L 130.61629 136.048708 
L 130.676345 136.578694 
L 130.832504 138.268248 
L 130.930395 138.608864 
L 130.988074 138.49029 
L 131.109332 138.685326 
L 131.241234 140.312532 
L 131.377074 140.232154 
L 131.494697 142.403212 
L 131.629916 139.616305 
L 131.707902 139.159867 
L 131.785907 139.98854 
L 131.883292 138.526453 
L 131.980049 138.832434 
L 132.082061 139.592415 
L 132.271262 135.740283 
L 132.350279 136.799442 
L 132.430875 136.732219 
L 132.525234 136.953443 
L 132.617769 136.150998 
L 132.68083 136.975623 
L 132.855765 134.727933 
L 132.934219 134.939282 
L 133.03229 134.781907 
L 133.173654 137.525593 
L 133.284123 137.304577 
L 133.361659 137.301205 
L 133.498417 138.90729 
L 133.600313 138.850888 
L 133.765148 142.180706 
L 133.870065 142.52728 
L 133.888116 141.238977 
L 134.024412 139.707462 
L 134.063932 140.769438 
L 134.141856 140.110114 
L 134.239341 140.265136 
L 134.316868 140.754726 
L 134.394372 140.034354 
L 134.550283 136.699608 
L 134.612677 136.271591 
L 134.844817 137.186783 
L 134.941668 135.395673 
L 134.959197 135.800137 
L 135.096131 133.412748 
L 135.252682 134.835073 
L 135.508404 133.586507 
L 135.58337 133.697152 
L 135.662972 133.568066 
L 135.75553 133.915734 
L 135.832766 134.93446 
L 135.930589 134.852055 
L 135.972997 134.394556 
L 136.241745 138.207964 
L 136.379131 137.346084 
L 136.458556 138.560561 
L 136.474462 138.346387 
L 136.59077 138.200486 
L 136.712182 136.892214 
L 136.727005 137.981499 
L 136.786328 136.660947 
L 136.886219 134.825487 
L 136.982991 135.097063 
L 137.040056 134.889232 
L 137.117384 135.331369 
L 137.292618 134.850343 
L 137.357671 135.615871 
L 137.430638 134.789363 
L 137.60878 136.664743 
L 137.669223 136.851806 
L 137.94076 134.842795 
L 138.019814 136.116627 
L 138.152803 133.745386 
L 138.231657 134.780438 
L 138.328512 134.469257 
L 138.524357 136.265633 
L 138.601088 135.922211 
L 138.756883 136.280262 
L 138.83516 136.832141 
L 139.034429 141.829876 
L 139.28448 138.165428 
L 139.537183 140.852797 
L 139.87047 137.591223 
L 139.927742 138.517474 
L 140.086585 139.642639 
L 140.186504 138.613475 
L 140.199862 139.710432 
L 140.571561 136.158737 
L 140.64939 135.390447 
L 140.785595 135.964719 
L 140.847081 135.159661 
L 140.904268 135.383431 
L 141.099505 137.819575 
L 141.150193 137.312184 
L 141.215369 137.182708 
L 141.409441 137.823863 
L 141.622934 140.718745 
L 141.857308 138.346378 
L 141.934862 138.146711 
L 142.032267 137.317441 
L 142.132161 137.879003 
L 142.187935 137.846468 
L 142.423991 135.076783 
L 142.500051 135.752404 
L 142.581032 135.42441 
L 142.830877 136.966004 
L 142.986508 136.106302 
L 143.181156 136.960709 
L 143.337549 137.770793 
L 143.421002 139.436654 
L 144.328005 134.601686 
L 144.348383 135.70202 
L 144.43796 134.330879 
L 144.542607 134.452466 
L 144.679344 135.830238 
L 144.758601 134.078402 
L 144.854124 135.119491 
L 145.07751 132.167812 
L 145.185387 132.097675 
L 145.352612 134.543798 
L 145.431373 133.493076 
L 145.469716 134.325785 
L 145.569263 136.148832 
L 145.663885 134.417099 
L 145.742864 134.852774 
L 145.897022 136.883858 
L 146.035499 135.814175 
L 146.210381 138.412973 
L 146.229189 137.675968 
L 146.290206 137.363364 
L 146.368959 137.826054 
L 146.526634 140.014799 
L 146.639321 138.553453 
L 146.761487 140.720266 
L 147.069309 135.910688 
L 147.207402 137.223944 
L 147.32315 137.131794 
L 147.420268 139.529297 
L 147.498556 138.363752 
L 147.654001 136.710266 
L 147.732139 136.739449 
L 147.888558 137.575005 
L 147.967127 137.433122 
L 148.189063 136.652623 
L 148.297487 136.831454 
L 148.472488 141.739403 
L 148.551937 141.374172 
L 148.628828 141.561171 
L 148.729238 140.07152 
L 148.849026 140.503816 
L 148.902337 140.256103 
L 149.212527 133.975035 
L 149.293594 133.899673 
L 149.661435 136.199944 
L 149.740562 136.360326 
L 149.929159 135.191006 
L 150.187395 137.799954 
L 150.343564 135.860415 
L 150.439938 135.920567 
L 150.47927 136.575701 
L 150.635404 136.018081 
L 150.770717 137.150294 
L 150.795985 138.320791 
L 150.906282 137.873245 
L 150.947706 136.811964 
L 151.122509 139.372539 
L 151.201181 138.843636 
L 151.27845 137.792722 
L 151.435366 139.164012 
L 151.60172 137.002246 
L 151.779136 141.018695 
L 151.87297 140.068173 
L 152.029769 138.048826 
L 152.320581 140.789793 
L 152.40049 140.505174 
L 152.573799 135.730945 
L 152.789052 136.953078 
L 152.808688 136.911144 
L 152.886766 137.021025 
L 153.139349 135.216632 
L 153.374102 137.670255 
L 153.455842 137.553442 
L 153.567963 137.859208 
L 153.626862 138.962049 
L 153.704801 138.85166 
L 153.783236 138.272163 
L 153.881341 140.236854 
L 153.937961 139.144072 
L 154.326939 135.999591 
L 154.446975 135.726234 
L 154.522067 134.5724 
L 154.580207 135.555145 
L 154.696781 133.821974 
L 154.794574 134.19258 
L 154.912545 135.948102 
L 155.013988 135.901298 
L 155.145622 136.780415 
L 155.225878 136.260565 
L 155.301335 136.92924 
L 155.399204 136.817037 
L 155.459316 135.630559 
L 155.536974 135.650223 
L 155.632824 135.728501 
L 155.711053 135.466113 
L 155.787856 135.856773 
L 156.105111 133.644933 
L 156.197023 132.975519 
L 156.2742 134.837919 
L 156.41457 135.066807 
L 156.527375 133.621754 
L 156.704056 135.406044 
L 156.75973 137.528098 
L 156.837679 136.516055 
L 156.916343 136.428663 
L 156.993473 137.086671 
L 157.075565 136.267385 
L 157.090278 138.706075 
L 157.168423 137.167862 
L 157.247065 137.177007 
L 157.324251 137.458207 
L 157.421626 137.395309 
L 157.848428 134.233071 
L 157.889284 134.359464 
L 158.044887 133.924839 
L 158.106362 135.155416 
L 158.16193 134.843176 
L 158.220265 133.72982 
L 158.451546 137.0128 
L 158.676188 139.230832 
L 158.850257 137.005494 
L 158.947685 137.230373 
L 159.161783 134.383377 
L 159.239312 134.806905 
L 159.336455 133.552627 
L 159.473563 133.478256 
L 159.515072 132.602287 
L 159.629021 132.87095 
L 159.651122 132.841874 
L 159.746473 132.396762 
L 159.8232 133.12113 
L 159.901231 132.165136 
L 159.981469 133.393235 
L 160.060038 133.2259 
L 160.295432 135.046478 
L 160.608447 139.647027 
L 160.977373 137.324601 
L 161.015154 137.657568 
L 161.132207 138.260238 
L 161.172431 139.366868 
L 161.251161 138.33712 
L 161.331418 138.367748 
L 161.425436 138.281897 
L 161.503634 138.460065 
L 161.658813 139.092184 
L 161.814174 138.736313 
L 161.989596 136.085289 
L 162.06804 136.469395 
L 162.146338 136.077685 
L 162.224277 134.360239 
L 162.386219 135.526659 
L 162.45821 135.615018 
L 162.538598 136.571816 
L 162.632758 135.392343 
L 162.710105 136.55716 
L 162.867372 134.315448 
L 163.029243 136.826179 
L 163.102747 136.488427 
L 163.121198 138.166572 
L 163.18403 136.463963 
L 163.277479 136.336385 
L 163.376491 135.668913 
L 163.434874 136.281149 
L 163.512076 135.743972 
L 163.668298 138.270417 
L 163.838954 137.916479 
L 163.921391 138.932238 
L 164.000163 138.682498 
L 164.158194 138.064117 
L 164.310546 140.068442 
L 164.389309 138.229583 
L 164.469276 138.906023 
L 164.721082 137.570389 
L 164.874099 139.102235 
L 165.113365 138.034338 
L 165.283916 139.270629 
L 165.458059 138.337448 
L 165.537002 138.007718 
L 165.653522 138.051297 
L 165.796376 139.254001 
L 165.917187 137.779758 
L 166.088834 136.125661 
L 166.273078 137.275784 
L 166.425644 136.347041 
L 166.482448 136.242826 
L 166.557392 136.414388 
L 166.651801 136.096862 
L 166.74943 134.70392 
L 166.812836 134.740592 
L 166.905616 134.350966 
L 167.314503 130.81083 
L 167.528494 131.132671 
L 167.705174 135.122819 
L 168.094768 139.137442 
L 168.190721 138.729178 
L 168.249696 139.804457 
L 168.34704 138.929272 
L 168.443232 138.945123 
L 168.502713 138.654807 
L 168.60096 138.741874 
L 168.754957 138.396659 
L 168.832769 137.665667 
L 169.074391 138.932548 
L 169.163395 138.520965 
L 169.241137 139.464455 
L 169.319394 138.683022 
L 169.534488 139.208778 
L 169.708976 137.500034 
L 169.867897 138.038672 
L 169.884596 136.622547 
L 169.962478 137.324817 
L 170.05882 137.503541 
L 170.1192 138.125719 
L 170.195044 137.886801 
L 170.274091 137.749383 
L 170.429626 138.637731 
L 170.561895 138.532372 
L 170.701722 136.608164 
L 170.857498 133.977721 
L 170.935742 134.79724 
L 171.013171 134.813075 
L 171.247566 133.621346 
L 171.42932 136.059532 
L 171.481265 137.790219 
L 171.579319 137.570193 
L 171.643891 138.22412 
L 171.735174 137.892219 
L 171.993885 135.331101 
L 172.149256 135.626369 
L 172.26711 135.373769 
L 172.285657 134.583814 
L 172.447637 136.38463 
L 172.642285 135.42458 
L 172.857501 138.697211 
L 173.322676 134.856606 
L 173.460186 137.400457 
L 173.499944 137.257752 
L 173.576644 136.282005 
L 173.751333 137.112329 
L 173.911722 137.822833 
L 173.986284 137.281518 
L 174.064181 138.289486 
L 174.166066 136.502784 
L 174.393632 137.913187 
L 174.469613 135.955995 
L 174.544537 135.974609 
L 174.641473 135.971032 
L 174.719581 136.121362 
L 174.956848 137.610096 
L 175.012857 136.3928 
L 175.109407 136.414033 
L 175.225671 136.631315 
L 175.362088 138.420153 
L 175.712011 135.669461 
L 175.828461 134.668519 
L 175.908949 133.927942 
L 176.004766 134.64777 
L 176.082825 134.365871 
L 176.396728 136.077334 
L 176.511424 135.730352 
L 176.72519 138.095376 
L 176.80554 137.664458 
L 176.881494 138.368489 
L 177.037317 136.20863 
L 177.132041 137.408225 
L 177.256035 137.04327 
L 177.350176 138.870593 
L 177.372571 137.639037 
L 177.503962 138.589111 
L 177.561285 136.4871 
L 177.622063 136.550818 
L 177.701491 135.830319 
L 177.758707 137.239264 
L 177.836227 136.957346 
L 177.913548 136.297036 
L 178.010627 136.45408 
L 178.089287 134.842957 
L 178.16958 135.306015 
L 178.288516 135.105184 
L 178.421302 137.545161 
L 178.636963 136.507932 
L 178.654085 137.950594 
L 178.948343 138.911899 
L 179.028208 138.264681 
L 179.140315 134.537711 
L 179.221698 132.793483 
L 179.316996 133.581202 
L 179.376703 133.497438 
L 179.453558 133.746378 
L 179.591642 133.026695 
L 179.627931 134.139829 
L 179.686717 134.126494 
L 179.861973 136.253925 
L 180.095664 139.048338 
L 180.336579 138.558479 
L 180.504712 139.051899 
L 180.582752 138.518327 
L 180.660356 138.84137 
L 180.914136 136.273321 
L 180.975498 137.237505 
L 181.226497 135.469637 
L 181.383891 135.65527 
L 181.45995 135.058874 
L 181.617169 137.513972 
L 182.028464 140.209727 
L 182.107351 139.915648 
L 182.270387 140.304012 
L 182.355936 139.353993 
L 182.442763 139.851522 
L 182.74745 137.950737 
L 182.883965 137.966281 
L 183.019701 138.887037 
L 183.080343 138.021185 
L 183.1759 138.135013 
L 183.313592 139.116393 
L 183.487358 139.511196 
L 183.566113 138.025727 
L 183.799598 135.929537 
L 183.956003 137.540212 
L 183.980483 136.211718 
L 184.084456 137.50795 
L 184.161609 137.105897 
L 184.654712 140.482105 
L 184.693711 139.191058 
L 184.790411 139.346267 
L 184.870258 138.175649 
L 184.96964 138.521461 
L 185.083325 139.350967 
L 185.240225 140.603387 
L 185.512187 137.212835 
L 185.746901 136.001171 
L 186.075765 131.861995 
L 186.220487 132.911294 
L 186.372287 133.58657 
L 186.448947 132.116943 
L 186.562425 132.871432 
L 186.721971 134.741028 
L 186.778001 134.67084 
L 186.949158 134.710712 
L 186.955689 134.247498 
L 187.032061 134.376555 
L 187.10988 134.314227 
L 187.293565 136.109983 
L 187.366815 136.315177 
L 187.460977 134.519678 
L 187.597592 134.58385 
L 187.655904 133.945679 
L 187.696766 134.139311 
L 187.929223 135.892798 
L 188.145617 133.720714 
L 188.397507 134.739062 
L 188.552992 134.643277 
L 188.709991 131.977323 
L 188.883775 133.520026 
L 189.001493 133.878512 
L 189.139051 131.810288 
L 189.337396 133.091405 
L 189.370809 132.855257 
L 189.606403 131.095087 
L 189.916197 134.658214 
L 189.994136 135.109097 
L 190.169764 133.607603 
L 190.405655 136.406512 
L 190.421873 135.951755 
L 190.53903 135.853191 
L 191.026427 139.649901 
L 191.047356 140.391961 
L 191.182444 140.830247 
L 191.224731 139.902397 
L 191.29938 139.908789 
L 191.376389 139.802008 
L 191.4738 140.731511 
L 191.609445 138.691806 
L 191.687681 138.64748 
L 191.773851 138.883423 
L 191.933137 138.664811 
L 192.089842 139.046991 
L 192.104065 137.656369 
L 192.181067 138.859086 
L 192.262514 137.886817 
L 192.418482 140.416746 
L 192.546087 139.673846 
L 192.750169 139.427688 
L 192.94416 141.160558 
L 193.120818 140.632369 
L 193.142038 141.413386 
L 193.24212 140.908744 
L 193.300944 141.898971 
L 193.549393 140.764528 
L 193.619433 140.56592 
L 193.734349 142.045324 
L 193.878199 140.10478 
L 194.125684 134.380349 
L 194.223875 136.127077 
L 194.268128 135.77526 
L 194.36186 136.207368 
L 194.513103 134.788673 
L 194.59091 134.985716 
L 194.673632 135.882267 
L 194.921796 140.233203 
L 195.000559 138.630477 
L 195.272769 141.939465 
L 195.334142 141.330352 
L 195.466682 141.728906 
L 195.643997 140.122721 
L 195.797827 140.864992 
L 196.032306 136.575686 
L 196.129131 136.831894 
L 196.206467 137.028682 
L 196.284352 139.874044 
L 196.365936 138.612781 
L 196.439893 139.287568 
L 196.523226 138.569668 
L 196.758323 140.539091 
L 197.086933 135.511304 
L 197.123267 136.096566 
L 197.164194 136.131398 
L 197.243309 135.341273 
L 197.32192 136.09462 
L 197.573319 134.635708 
L 197.652173 135.390458 
L 197.730247 134.742264 
L 198.05019 136.803554 
L 198.217944 134.437405 
L 198.294657 134.482977 
L 198.371839 133.89774 
L 198.547048 137.346847 
L 198.609955 136.841475 
L 198.703618 136.733922 
L 198.80803 135.381886 
L 198.858408 135.783911 
L 199.347418 138.773364 
L 199.423488 137.829624 
L 199.578837 139.549768 
L 199.735143 139.047375 
L 199.851383 137.539252 
L 199.909798 138.839477 
L 199.973137 138.535225 
L 200.047293 137.645282 
L 200.222364 138.911698 
L 200.317828 138.546309 
L 200.456174 137.096755 
L 200.629818 137.649027 
L 200.720867 137.581982 
L 200.792 137.029548 
L 200.882854 137.631016 
L 201.09718 135.716158 
L 201.351463 137.992569 
L 201.468717 137.535386 
L 201.526949 138.109669 
L 201.761164 136.61505 
L 201.880233 136.659585 
L 201.899945 136.956652 
L 202.092358 136.131416 
L 202.709044 139.405862 
L 202.892821 137.880089 
L 202.979961 138.854187 
L 203.047587 138.424902 
L 203.360164 139.66281 
L 203.514302 139.315287 
L 203.611377 138.334332 
L 203.842597 140.310112 
L 204.0769 139.032202 
L 204.193399 140.318821 
L 204.251164 139.191122 
L 204.388148 140.676798 
L 204.467197 140.634157 
L 204.508753 140.47951 
L 204.583443 138.829748 
L 204.757776 138.81407 
L 205.010703 135.895699 
L 205.147578 134.224016 
L 205.279156 135.011387 
L 205.30806 134.898336 
L 205.47094 133.900282 
L 205.543696 134.817953 
L 205.675142 134.161629 
L 205.720229 134.539463 
L 205.775082 133.977529 
L 205.79176 135.706687 
L 205.850195 135.475162 
L 206.2626 137.748807 
L 206.34312 137.539381 
L 206.425 140.046816 
L 206.578751 139.692904 
L 206.909517 136.879584 
L 206.985825 136.810895 
L 207.063822 138.384249 
L 207.29667 135.670822 
L 207.375005 135.761916 
L 207.471985 138.611279 
L 207.61032 138.492953 
L 207.788315 141.391086 
L 207.880773 138.68285 
L 207.958756 138.882208 
L 208.114984 138.65703 
L 208.349113 136.156488 
L 208.406828 137.52319 
L 208.473615 137.494268 
L 208.650002 135.490375 
L 208.742723 136.471314 
L 208.807053 135.635433 
L 208.83982 136.911638 
L 208.937647 136.226279 
L 209.123683 136.90962 
L 209.249586 135.903034 
L 209.346114 136.570838 
L 209.587983 139.621052 
L 209.682691 139.180248 
L 209.755981 140.334696 
L 209.813896 139.884025 
L 209.893241 140.114985 
L 210.204679 138.150844 
L 210.551845 141.988611 
L 210.768683 143.029514 
L 210.846826 143.381545 
L 211.009609 141.637953 
L 211.177978 139.951869 
L 211.337851 136.363603 
L 211.499727 137.656089 
L 211.578579 136.674573 
L 211.664011 136.86912 
L 211.727477 136.643892 
L 212.034877 137.171492 
L 212.229906 135.566293 
L 212.328121 135.83002 
L 212.483024 137.492146 
L 212.541645 137.129523 
L 212.638692 137.06491 
L 212.775431 140.407923 
L 212.873 139.588659 
L 213.010736 139.999659 
L 213.087551 139.536381 
L 213.165383 140.680901 
L 213.360479 139.251662 
L 213.459081 139.551934 
L 213.594724 136.095359 
L 213.6708 137.349033 
L 213.748776 137.457263 
L 213.827607 137.129866 
L 213.924367 135.910758 
L 214.157148 136.995499 
L 214.296288 137.041317 
L 214.392307 136.099735 
L 214.450103 136.747926 
L 214.546711 136.070617 
L 214.741935 137.563959 
L 214.802632 137.043884 
L 214.880164 137.424532 
L 215.036273 135.999286 
L 215.150684 137.340251 
L 215.228511 136.354048 
L 215.305991 137.054029 
L 215.406704 135.850149 
L 215.46257 136.766584 
L 215.598177 136.252268 
L 215.77273 137.092096 
L 215.870126 137.369433 
L 215.93253 138.88659 
L 216.077324 139.116891 
L 216.281207 140.914445 
L 216.496606 139.610533 
L 216.671831 140.156987 
L 216.888698 136.107803 
L 217.050079 134.607476 
L 217.160304 135.301619 
L 217.218566 133.94779 
L 217.306343 134.220107 
L 217.375646 134.163554 
L 217.452808 133.919616 
L 217.766603 136.54904 
L 217.860784 136.469246 
L 217.938997 136.098245 
L 218.016519 136.500341 
L 218.113951 135.324618 
L 218.17246 135.706744 
L 218.256625 136.192786 
L 218.349075 135.709946 
L 218.452543 136.113339 
L 218.521612 135.711778 
L 218.580366 136.056125 
L 218.755073 135.150701 
L 218.931183 139.120364 
L 219.048564 139.143797 
L 219.069965 138.951294 
L 219.144421 139.033859 
L 219.300729 139.414513 
L 219.438793 139.318629 
L 219.556926 140.777646 
L 219.734598 138.650689 
L 219.973068 137.452498 
L 220.043375 137.102773 
L 220.120693 138.479846 
L 220.218339 138.38572 
L 220.354603 136.41286 
L 220.446262 136.777247 
L 220.529257 136.48324 
L 220.706817 137.426526 
L 220.768595 137.141481 
L 220.979571 134.654418 
L 220.998815 134.810193 
L 221.0758 136.713428 
L 221.212183 136.747967 
L 221.485142 133.647531 
L 221.564776 133.111438 
L 221.640986 134.590335 
L 221.717372 134.493948 
L 221.819227 134.586502 
L 221.873283 134.819718 
L 222.052216 136.727173 
L 222.146702 137.011685 
L 222.204884 137.590206 
L 222.368656 141.077356 
L 222.47805 141.035903 
L 222.560375 141.138982 
L 222.769548 136.904656 
L 222.955779 137.395979 
L 223.178822 133.938008 
L 223.333664 134.575577 
L 223.567179 137.399292 
L 223.665236 136.335164 
L 223.742325 136.827807 
L 223.807029 136.231933 
L 223.898664 136.280569 
L 223.976835 136.426288 
L 224.054021 137.429078 
L 224.154837 136.664287 
L 224.308715 137.081917 
L 224.346447 136.949391 
L 224.387184 136.902323 
L 224.463884 137.395619 
L 224.658646 139.710547 
L 224.716271 139.649438 
L 224.814511 139.79751 
L 224.873335 139.348393 
L 224.935419 139.902885 
L 225.027072 139.770462 
L 225.183237 141.252456 
L 225.321253 140.909516 
L 225.3584 138.849007 
L 225.436814 139.708839 
L 225.506438 140.621562 
L 225.670384 138.373173 
L 225.767951 139.428247 
L 225.825957 138.955879 
L 225.981042 137.026706 
L 226.145962 139.387197 
L 226.234707 138.842601 
L 226.312017 137.445936 
L 226.448153 138.085526 
L 226.624963 136.410006 
L 226.705276 138.476872 
L 226.975736 136.426579 
L 227.269741 140.154378 
L 227.364344 140.652153 
L 227.520416 138.304431 
L 227.618264 138.635626 
L 227.773312 137.372608 
L 227.973804 138.696567 
L 228.084796 138.475164 
L 228.163649 136.8491 
L 228.240999 138.279232 
L 228.318542 137.879123 
L 228.558188 141.073897 
L 228.727963 138.260754 
L 228.806843 138.233339 
L 228.981065 139.817751 
L 229.061343 138.756137 
L 229.215468 139.542367 
L 229.3505 139.169594 
L 229.374537 138.445576 
L 229.468419 138.939051 
L 229.548106 139.69361 
L 229.68323 137.77033 
L 229.779639 138.848443 
L 229.857992 138.543496 
L 230.016258 137.516775 
L 230.092279 138.822445 
L 230.247182 138.388654 
L 230.501203 136.091243 
L 230.697128 134.643327 
L 230.763053 135.097106 
L 230.992652 133.370355 
L 231.167304 134.563597 
L 231.225311 134.471316 
L 231.398523 135.71132 
L 231.470072 136.611696 
L 231.556643 135.962187 
L 231.790701 137.726229 
L 231.87922 137.283514 
L 232.030184 137.894913 
L 232.206519 137.023324 
L 232.2653 138.457109 
L 232.370241 138.327937 
L 232.440183 138.912056 
L 232.517664 138.865899 
L 232.594489 139.078205 
L 232.730859 138.837232 
L 232.828012 139.908901 
L 232.925607 139.74739 
L 233.003541 139.239614 
L 233.063626 137.99325 
L 233.322132 140.181607 
L 233.400611 139.391774 
L 233.471618 139.519001 
L 233.569882 139.229822 
L 233.6373 138.1391 
L 233.941874 140.829453 
L 234.137023 137.205054 
L 234.195224 137.757364 
L 234.370554 136.655947 
L 234.390423 137.685911 
L 234.449985 136.913759 
L 234.682448 134.399931 
L 235.013755 136.839754 
L 235.173096 139.420545 
L 235.250291 139.380976 
L 235.503346 140.704363 
L 235.658647 139.337769 
L 235.736663 140.257011 
L 235.971892 136.503975 
L 236.171889 137.969977 
L 236.322396 136.356895 
L 236.400738 137.27131 
L 236.45955 136.9435 
L 236.662518 134.917772 
L 236.677327 135.723775 
L 236.700135 135.722631 
L 236.854985 136.132091 
L 237.011506 134.057056 
L 237.088229 134.403237 
L 237.341492 132.578354 
L 237.419567 132.847012 
L 237.497428 133.158611 
L 237.633535 132.574096 
L 237.671971 131.548761 
L 237.905358 133.459785 
L 238.082224 132.651474 
L 238.139466 134.232326 
L 238.238742 133.979415 
L 238.315422 133.239204 
L 238.510611 134.153849 
L 238.627035 133.409039 
L 238.704191 133.361678 
L 239.056336 137.967688 
L 239.181915 137.919291 
L 239.23028 137.726341 
L 239.508684 140.793172 
L 239.892362 138.642452 
L 239.954113 138.936735 
L 240.088653 140.159044 
L 240.148031 139.693771 
L 240.267943 140.117493 
L 240.517171 137.060429 
L 240.558507 139.868797 
L 240.694681 139.984983 
L 240.720729 140.515217 
L 240.970637 137.691445 
L 241.043965 138.761094 
L 241.12359 138.719299 
L 241.200375 138.61295 
L 241.2797 139.324436 
L 241.399183 138.587681 
L 241.543611 135.941217 
L 241.766965 137.233408 
L 241.919716 135.14024 
L 242.015123 136.670189 
L 242.093117 136.383398 
L 242.174047 136.145789 
L 242.189889 137.640129 
L 242.269253 137.586336 
L 242.406415 138.311919 
L 242.481958 137.939805 
L 242.581339 136.464188 
L 242.661294 136.30578 
L 242.735514 137.904787 
L 242.832416 137.060024 
L 242.98901 138.444352 
L 243.105663 137.990002 
L 243.378376 141.2292 
L 243.53548 141.421466 
L 243.812745 139.533424 
L 243.866178 139.222524 
L 243.943533 137.501505 
L 244.061231 137.721215 
L 244.180421 135.734996 
L 244.294603 136.853224 
L 244.3946 135.802212 
L 244.430627 136.601076 
L 244.547773 135.809115 
L 244.608742 134.53706 
L 244.668379 134.800863 
L 244.883055 133.467112 
L 244.967792 134.984719 
L 245.002459 134.038314 
L 245.155111 133.564363 
L 245.563881 136.021846 
L 245.64229 137.968734 
L 245.719857 137.646293 
L 245.799759 138.156165 
L 245.883054 136.257928 
L 245.954685 136.583288 
L 246.12857 136.093373 
L 246.361964 138.160397 
L 246.598299 138.763916 
L 246.714099 140.980472 
L 246.955511 139.666392 
L 247.016124 138.276657 
L 247.100586 139.455218 
L 247.111424 138.850559 
L 247.384896 135.576074 
L 247.423715 136.356496 
L 247.501324 134.79943 
L 247.640311 137.262223 
L 247.723144 136.466387 
L 247.812776 137.811601 
L 247.900423 137.163217 
L 248.360478 139.950997 
L 248.454702 139.368366 
L 248.535381 139.901506 
L 248.613445 139.802483 
L 248.710714 140.041118 
L 248.770123 139.859591 
L 248.846755 140.36244 
L 249.000234 140.193221 
L 249.178019 137.082388 
L 249.333781 137.462583 
L 249.431079 136.81725 
L 249.495512 137.757887 
L 249.512295 137.392213 
L 249.647704 135.224087 
L 249.664645 136.166463 
L 249.793416 136.211713 
L 249.822339 135.381988 
L 250.017755 138.531789 
L 250.155193 136.592598 
L 250.662529 138.972024 
L 250.718706 138.589256 
L 250.990335 139.906859 
L 251.048847 139.356209 
L 251.243827 140.824762 
L 251.282125 140.269479 
L 251.342857 140.268444 
L 251.420907 140.681663 
L 251.516257 142.624904 
L 252.302041 135.449364 
L 252.314859 134.090768 
L 252.393976 135.00251 
L 252.489839 136.073198 
L 252.548801 135.113327 
L 252.89874 139.368757 
L 252.961462 139.093102 
L 253.034968 139.590222 
L 253.133389 139.572737 
L 253.33368 137.33309 
L 253.366652 138.88828 
L 253.463662 138.471158 
L 253.602563 136.102747 
L 253.930531 138.928759 
L 254.009377 138.583112 
L 254.106305 139.283421 
L 254.165976 139.101494 
L 254.241501 137.652372 
L 254.36667 138.882296 
L 254.485121 138.110407 
L 254.511467 136.905387 
L 254.576784 137.425467 
L 254.732702 135.839058 
L 254.812409 137.555048 
L 254.890096 137.276054 
L 254.96879 136.579126 
L 255.094677 138.057576 
L 255.130417 137.241021 
L 255.299823 137.673669 
L 255.377231 136.741992 
L 255.535056 137.900945 
L 255.613306 136.280515 
L 255.710038 137.244188 
L 255.787106 136.713467 
L 255.923928 136.660175 
L 256.124423 137.746337 
L 256.219002 137.728791 
L 256.333815 136.792706 
L 256.411397 136.74383 
L 256.491668 135.530673 
L 256.586916 136.672128 
L 256.664271 136.456757 
L 256.761081 136.424596 
L 256.847319 136.8617 
L 256.898973 135.036528 
L 256.980006 135.686679 
L 257.075059 135.937318 
L 257.152263 135.259669 
L 257.249639 135.802076 
L 257.38453 137.542457 
L 258.053552 143.29442 
L 258.205854 140.637293 
L 258.347828 138.784733 
L 258.461249 138.208202 
L 258.555902 139.405451 
L 258.595522 138.99848 
L 258.906444 133.164829 
L 259.061312 134.877283 
L 259.328342 132.772021 
L 259.490519 134.815757 
L 259.723812 138.95942 
L 259.802554 138.050241 
L 259.881597 140.419239 
L 259.976883 140.24047 
L 260.075097 140.069717 
L 260.134583 141.59005 
L 260.193829 139.534342 
L 260.211675 140.64539 
L 260.288869 141.158817 
L 260.548459 139.838142 
L 260.702301 140.486113 
L 260.719166 138.764288 
L 260.781827 139.489124 
L 260.84117 140.222797 
L 260.933663 137.678288 
L 261.012167 138.543034 
L 261.217681 137.253877 
L 261.35194 138.505457 
L 261.411957 137.86725 
L 261.489532 138.004305 
L 261.665779 136.694573 
L 261.741656 137.616878 
L 261.905953 137.113579 
L 261.982096 137.264345 
L 262.115241 135.965417 
L 262.208795 138.16926 
L 262.325986 138.15941 
L 262.522086 136.755899 
L 262.561113 136.701323 
L 262.620109 137.721877 
L 262.777652 136.485389 
L 262.911291 136.404876 
L 263.06708 133.489676 
L 263.183418 133.319297 
L 263.262216 134.295803 
L 263.33998 135.682643 
L 263.42136 134.59144 
L 263.529862 135.679475 
L 263.671245 134.561573 
L 263.751108 135.033448 
L 263.98797 137.016187 
L 264.158784 134.996497 
L 264.474831 139.447252 
L 264.645503 138.104966 
L 264.711052 139.012163 
L 264.82673 139.000632 
L 264.879658 141.355216 
L 264.95683 140.875355 
L 265.195391 139.515281 
L 265.290443 139.74166 
L 265.3664 139.81698 
L 265.600202 138.005532 
L 265.778674 136.691589 
L 265.853403 136.274052 
L 265.871254 136.462383 
L 265.930807 137.253955 
L 265.988751 137.178311 
L 266.163712 136.703278 
L 266.261796 136.66042 
L 266.319967 136.855986 
L 266.39789 136.326947 
L 266.572796 136.98442 
L 266.652721 136.028054 
L 266.72768 136.066014 
L 266.981859 134.258453 
L 267.039901 134.593713 
L 267.181851 134.523617 
L 267.294156 135.461645 
L 267.583913 136.920298 
L 267.60564 136.577943 
L 267.683493 136.945317 
L 267.779722 138.765976 
L 267.936564 137.924928 
L 268.095728 139.156455 
L 268.367568 137.976281 
L 268.523615 138.750702 
L 268.581565 137.540149 
L 268.836341 140.066799 
L 268.932793 138.771241 
L 269.070635 140.010112 
L 269.303623 138.660576 
L 269.538126 136.690635 
L 269.57698 137.15264 
L 269.771351 136.392429 
L 269.84882 136.206415 
L 270.102675 138.485492 
L 270.261027 139.377041 
L 270.35534 138.48663 
L 270.43327 138.743565 
L 270.590555 139.806155 
L 270.668714 139.613204 
L 270.765842 138.63444 
L 270.824134 139.198148 
L 270.900789 137.93615 
L 271.015957 138.363553 
L 271.157866 139.305417 
L 271.288252 139.452419 
L 271.463228 135.362472 
L 271.540709 135.115594 
L 271.579652 136.537263 
L 271.661733 136.523487 
L 271.794322 138.595538 
L 272.054628 137.038807 
L 272.281237 141.256894 
L 272.455452 140.551344 
L 272.533527 140.430213 
L 272.673053 138.265457 
L 272.924102 139.67978 
L 273.351655 136.305048 
L 273.450481 137.526603 
L 273.487851 136.924435 
L 273.599801 135.962001 
L 273.64518 136.202811 
L 273.728026 136.657814 
L 273.89265 134.232482 
L 273.976049 136.559431 
L 274.052886 136.006665 
L 274.137551 136.349959 
L 274.206623 136.249977 
L 274.304605 138.032467 
L 274.363315 137.428297 
L 274.556977 135.367757 
L 274.733314 139.772275 
L 274.774732 137.228231 
L 274.986578 138.968548 
L 275.024335 138.142176 
L 275.103257 138.572905 
L 275.258258 140.0121 
L 275.336702 139.875332 
L 275.420753 139.870479 
L 275.494626 138.819738 
L 275.569557 139.286794 
L 275.669239 139.520579 
L 275.979812 136.234783 
L 276.057125 135.854188 
L 276.1529 136.534456 
L 276.232278 135.270888 
L 276.309425 135.392256 
L 276.464839 133.686742 
L 276.627736 135.995738 
L 276.698964 135.757643 
L 276.799015 135.618876 
L 276.952727 136.321392 
L 277.185025 137.346655 
L 277.41966 136.171226 
L 277.671284 137.580764 
L 277.829153 137.128329 
L 278.080812 138.327211 
L 278.160384 137.67721 
L 278.238883 138.013421 
L 278.392717 139.627779 
L 278.550513 137.39547 
L 278.627616 138.437786 
L 278.883249 136.707801 
L 279.037117 139.22966 
L 279.137746 138.091699 
L 279.231931 138.280992 
L 279.350622 140.091068 
L 279.445425 139.422808 
L 279.54411 140.119624 
L 279.602933 141.855874 
L 279.718539 141.539869 
L 279.840635 139.385476 
L 279.933579 139.880557 
L 280.166941 138.351374 
L 280.244333 139.464623 
L 280.33592 139.079803 
L 280.342961 135.960992 
L 280.41977 138.418232 
L 280.731523 137.434718 
L 280.886516 137.207578 
L 280.983624 138.869917 
L 281.043119 138.51897 
L 281.218324 137.468837 
L 281.393368 138.514377 
L 281.531037 136.277255 
L 281.665353 136.669007 
L 281.937633 133.68919 
L 281.997577 134.837578 
L 282.035541 133.957005 
L 282.172938 133.396065 
L 282.366122 135.740141 
L 282.424951 135.276072 
L 282.584057 136.767654 
L 282.669681 136.04128 
L 282.7377 136.35293 
L 282.817426 136.53836 
L 282.911842 137.95246 
L 283.067963 137.718569 
L 283.133515 138.83099 
L 283.170321 137.498607 
L 283.224779 137.90423 
L 283.362375 136.757697 
L 283.400107 136.961009 
L 283.485416 137.323983 
L 283.635058 135.920112 
L 283.739685 135.175323 
L 283.8092 136.252335 
L 283.908747 136.158644 
L 283.94568 136.415037 
L 284.083055 135.968294 
L 284.103469 136.144586 
L 284.354333 134.692127 
L 284.433535 134.678354 
L 284.686087 133.683661 
L 284.842183 136.156557 
L 284.939682 136.48128 
L 285.075689 139.541015 
L 285.328601 142.673177 
L 285.465738 142.500698 
L 285.640266 139.154069 
L 285.661097 139.365922 
L 285.737904 139.887681 
L 285.971035 137.121564 
L 286.049044 137.304485 
L 286.139338 136.884877 
L 286.22398 135.275495 
L 286.244573 135.532519 
L 286.382414 139.332136 
L 286.440484 138.82747 
L 286.536166 136.92234 
L 286.613976 137.716023 
L 286.867641 136.067003 
L 286.926377 136.805899 
L 287.277016 133.175013 
L 287.335104 135.218286 
L 287.413056 134.151936 
L 287.677571 138.62162 
L 287.770157 137.868995 
L 288.058289 140.058442 
L 288.156361 138.737873 
L 288.272095 139.900139 
L 288.388819 137.809389 
L 288.56749 135.778053 
L 288.704326 134.54006 
L 288.780206 135.063005 
L 289.033164 133.325542 
L 289.2666 137.670284 
L 289.352882 137.83651 
L 289.424366 138.247017 
L 289.696874 135.166901 
L 289.83179 136.735431 
L 290.064841 134.815051 
L 290.143786 136.016356 
L 290.220549 135.28926 
L 290.315537 135.475075 
L 290.392565 135.359176 
L 290.626925 138.813692 
L 290.800968 137.161251 
L 291.112847 140.00359 
L 291.189153 141.875971 
L 291.267236 141.266294 
L 291.441956 140.405429 
L 291.519801 140.567617 
L 291.678537 141.513878 
L 291.831853 138.747073 
L 291.910645 139.07838 
L 291.991448 137.498191 
L 292.085653 137.521212 
L 292.240167 136.56914 
L 292.320164 137.5192 
L 292.396146 137.167324 
L 292.554819 135.179661 
L 292.727109 135.470356 
L 292.805672 135.959706 
L 292.883465 135.192674 
L 292.969959 135.247059 
L 293.041591 134.872022 
L 293.124952 134.900226 
L 293.240594 134.776843 
L 293.447805 137.16025 
L 293.52572 136.110049 
L 293.876351 138.4552 
L 293.935259 138.029147 
L 294.013088 138.186937 
L 294.131518 138.70685 
L 294.250376 136.361155 
L 294.343569 137.12857 
L 294.616755 134.02615 
L 294.674563 134.815381 
L 294.773051 134.796289 
L 294.908508 136.761546 
L 295.046126 137.112145 
L 295.239999 136.794872 
L 295.408382 139.186687 
L 295.454113 139.070274 
L 295.56112 139.235794 
L 295.678732 138.128822 
L 295.71674 139.507936 
L 295.814543 139.382712 
L 296.028215 141.883788 
L 296.106383 142.043328 
L 296.183864 142.73889 
L 296.51587 137.866915 
L 296.593044 138.851127 
L 296.748906 138.339606 
L 297.001434 135.993265 
L 297.195829 137.59715 
L 297.352042 139.094117 
L 297.41045 137.815327 
L 297.566797 138.775654 
L 297.644732 138.171319 
L 297.723654 138.623982 
L 297.956016 138.209835 
L 298.131177 135.917669 
L 298.210078 137.091881 
L 298.441819 133.590962 
L 298.528096 134.493572 
L 298.607445 134.054816 
L 298.724845 135.119842 
L 298.765574 134.407726 
L 298.845618 134.912977 
L 298.925073 134.69896 
L 299.015923 133.326235 
L 299.250217 135.273528 
L 299.368642 134.789529 
L 299.449211 135.076026 
L 299.504072 134.141282 
L 299.562209 134.464992 
L 299.936449 138.329431 
L 299.971634 137.547485 
L 300.04917 139.3413 
L 300.225094 138.825521 
L 300.382026 141.927855 
L 300.501607 141.394583 
L 300.635221 140.265724 
L 300.701205 137.986825 
L 300.773152 139.298048 
L 300.849967 138.013027 
L 300.986788 138.775228 
L 301.164419 137.5943 
L 301.213494 136.957221 
L 301.279964 137.480747 
L 301.339651 137.618323 
L 301.571166 138.934062 
L 301.590567 138.562311 
L 301.903809 141.6914 
L 301.982754 141.117752 
L 302.07873 141.236328 
L 302.303007 140.75184 
L 302.394028 139.872738 
L 302.553548 139.544213 
L 302.58506 138.749479 
L 302.644236 139.291414 
L 302.802975 137.043843 
L 302.878092 137.377434 
L 302.96354 138.281857 
L 303.035111 137.929802 
L 303.221153 140.587132 
L 303.299308 139.990697 
L 303.447865 139.212548 
L 303.524765 139.291541 
L 303.604109 139.556623 
L 303.776447 137.712823 
L 303.912676 137.059197 
L 303.996238 135.938996 
L 304.165855 136.292124 
L 304.264271 137.039623 
L 304.419436 136.422723 
L 304.479675 137.472428 
L 304.617213 137.13732 
L 304.964928 139.317477 
L 305.04744 139.35818 
L 305.140271 139.108275 
L 305.377459 140.23988 
L 305.471929 140.104292 
L 305.588417 140.430549 
L 305.685865 138.010285 
L 305.767895 139.007329 
L 305.843329 138.109243 
L 305.93922 140.074264 
L 306.118683 137.589399 
L 306.174694 137.659822 
L 306.349518 134.991456 
L 306.407414 135.62169 
L 306.524379 136.005113 
L 306.601908 134.389255 
L 306.66435 135.04198 
L 306.759335 135.175372 
L 306.841846 136.87345 
L 307.049977 134.897879 
L 307.244135 137.591542 
L 307.577975 139.293828 
L 307.67882 137.37167 
L 307.770705 137.8704 
L 307.88694 137.563051 
L 307.945009 138.613518 
L 308.023999 137.375132 
L 308.129689 137.66371 
L 308.185684 138.263789 
L 308.262387 137.001419 
L 308.667248 140.003007 
L 308.763839 138.049846 
L 308.914023 138.556653 
L 308.922581 139.064876 
L 308.997719 137.77415 
L 309.075249 138.388851 
L 309.198832 138.373562 
L 309.3096 137.281476 
L 309.386939 137.275338 
L 309.484563 136.373094 
L 309.545397 136.850067 
L 309.642628 135.979823 
L 309.717824 133.999337 
L 309.796213 134.525119 
L 309.873852 135.430567 
L 309.954926 134.396261 
L 310.208232 137.755191 
L 310.424142 136.666797 
L 310.438731 136.77264 
L 310.614354 140.425222 
L 310.711837 140.454168 
L 310.769507 140.743907 
L 310.866988 139.749848 
L 311.006068 135.971863 
L 311.158485 136.450747 
L 311.256412 138.739911 
L 311.674915 133.217201 
L 311.769603 133.352872 
L 311.887606 132.188845 
L 312.043027 129.815622 
L 312.197228 130.443612 
L 312.296946 133.638153 
L 312.451718 134.391719 
L 312.511997 133.769022 
L 312.828619 139.64634 
L 313.114335 136.604283 
L 313.289311 138.423109 
L 313.413351 137.840938 
L 313.568164 135.033191 
L 313.781913 136.989236 
L 313.898954 138.998146 
L 314.065274 138.978399 
L 314.132723 138.999936 
L 314.231588 140.430775 
L 314.321496 141.866829 
L 314.390041 141.598697 
L 314.583681 140.849133 
L 314.738015 138.253837 
L 314.738164 134.079411 
L 314.803781 136.738834 
L 314.874545 136.880776 
L 314.971715 136.702863 
L 315.050016 136.960875 
L 315.284218 134.880082 
L 315.410015 134.396522 
L 315.441284 136.085802 
L 315.521244 136.0419 
L 315.829567 135.829296 
L 315.908345 134.735951 
L 315.949123 135.596052 
L 316.032199 135.388955 
L 316.179771 135.891013 
L 316.329701 137.111989 
L 316.45369 136.55988 
L 316.648333 137.88274 
L 316.881152 137.005026 
L 316.960116 136.843877 
L 317.133198 134.712738 
L 317.222398 135.516978 
L 317.290113 135.191874 
L 317.477976 134.130313 
L 317.543636 132.876042 
L 317.607142 132.438713 
L 317.699695 132.604703 
L 317.821639 133.824638 
L 317.894344 133.54178 
L 318.091732 132.789996 
L 318.243716 133.407963 
L 318.380506 133.247619 
L 318.574702 131.122968 
L 318.652763 132.941306 
L 318.788981 133.383663 
L 318.808818 132.859648 
L 318.889457 133.332901 
L 319.087356 133.581007 
L 319.374477 137.604789 
L 319.569187 136.048495 
L 319.782805 137.926083 
L 319.899908 138.342968 
L 320.196464 136.183069 
L 320.338764 138.758799 
L 320.444447 139.023259 
L 320.503367 138.265983 
L 320.619683 138.290165 
L 320.912479 139.589191 
L 320.989884 141.329017 
L 321.067176 140.452971 
L 321.243404 141.494567 
L 321.311053 141.725091 
L 321.476878 140.188801 
L 321.632405 141.066619 
L 322.102824 133.679446 
L 322.193931 133.827425 
L 322.372741 135.711183 
L 322.499954 135.008818 
L 322.684655 138.189807 
L 322.781865 138.650673 
L 322.918545 141.706547 
L 323.035988 141.444299 
L 323.230592 139.541336 
L 323.328433 140.181679 
L 323.444909 140.019835 
L 323.52445 140.487115 
L 323.565656 140.315505 
L 323.814804 138.337387 
L 323.914281 138.355379 
L 323.989573 138.01206 
L 324.126393 138.347411 
L 324.360662 135.698162 
L 324.476927 137.091374 
L 324.535034 135.839311 
L 324.634352 136.985325 
L 324.690655 136.673292 
L 324.788414 136.667255 
L 324.849318 137.552134 
L 324.943674 136.497556 
L 325.026876 137.276756 
L 325.140458 137.118183 
L 325.216332 137.964762 
L 325.294189 136.637504 
L 325.372402 137.113702 
L 325.43077 136.676545 
L 325.508554 137.18084 
L 325.584749 136.620939 
L 325.684216 137.128061 
L 325.820108 139.05836 
L 325.962836 138.821104 
L 326.056794 137.956613 
L 326.229235 139.181538 
L 326.473082 137.255127 
L 326.541157 136.892518 
L 326.618411 135.857452 
L 326.813719 137.222902 
L 326.871589 139.613286 
L 327.050643 137.702714 
L 327.106383 137.962998 
L 327.18296 137.895923 
L 327.475678 135.906284 
L 327.68998 133.581263 
L 327.747974 133.710995 
L 328.204803 136.990932 
L 328.321931 139.146957 
L 328.48202 138.787941 
L 328.733976 140.059837 
L 328.832863 139.592082 
L 328.878659 138.45419 
L 329.123845 140.699698 
L 329.20316 140.730282 
L 329.437327 139.869092 
L 329.514248 140.237559 
L 329.610928 141.629591 
L 329.671644 141.463528 
L 330.000274 138.782486 
L 330.078312 139.244792 
L 330.234479 137.946187 
L 330.410802 137.366631 
L 330.487034 137.464292 
L 330.567699 137.331761 
L 330.726082 135.031163 
L 330.819615 135.665767 
L 330.897117 135.277192 
L 330.974209 136.277288 
L 331.051877 134.966719 
L 331.131199 135.380756 
L 331.227633 134.176611 
L 331.443918 136.474881 
L 331.539579 136.952494 
L 331.621627 135.424327 
L 331.803328 135.813088 
L 331.813054 135.707429 
L 331.852357 136.21744 
L 332.028985 135.803273 
L 332.265775 137.58398 
L 332.343707 137.251508 
L 332.418128 138.386299 
L 332.496292 137.427724 
L 332.573654 137.838229 
L 332.653114 137.693749 
L 332.737003 137.214522 
L 332.89233 137.975016 
L 333.061069 136.944837 
L 333.139194 137.511232 
L 333.158574 138.65412 
L 333.217991 137.090195 
L 333.389471 139.360296 
L 333.549114 141.319221 
L 333.801396 139.968178 
L 333.999376 139.924774 
L 334.172715 139.827549 
L 334.269657 139.589004 
L 334.405192 138.793136 
L 334.701219 142.868677 
L 334.815016 141.912889 
L 334.911494 142.508778 
L 335.008547 139.89873 
L 335.164109 141.036116 
L 335.225891 140.065778 
L 335.323266 140.441252 
L 335.477152 137.466734 
L 335.574831 137.904306 
L 335.707809 137.794996 
L 335.78887 137.468899 
L 335.864524 135.44523 
L 335.962579 135.618835 
L 336.040755 136.347436 
L 336.119429 134.802474 
L 336.253682 134.993913 
L 336.293366 136.034145 
L 336.389843 135.946789 
L 336.45229 136.291703 
L 336.507823 137.390962 
L 336.636661 137.067033 
L 336.682761 137.662773 
L 336.878712 135.988772 
L 337.033842 136.438961 
L 337.112087 136.468934 
L 337.231591 136.880087 
L 337.383229 135.963789 
L 337.578616 138.357794 
L 337.660839 139.286446 
L 337.734605 139.158511 
L 337.812366 139.255214 
L 337.932876 137.935474 
L 338.127508 139.614894 
L 338.306784 137.780645 
L 338.459159 138.692218 
L 338.572783 138.130275 
L 338.746485 139.760958 
L 338.791568 138.900164 
L 338.873765 139.923679 
L 338.941926 138.879471 
L 339.058291 139.503943 
L 339.096905 140.519013 
L 339.351786 137.998622 
L 339.430255 139.661739 
L 339.545963 137.129612 
L 339.603679 138.235834 
L 339.669104 136.584922 
L 339.741108 136.822037 
L 339.818283 135.715918 
L 339.917044 135.762661 
L 339.9937 136.326037 
L 340.053696 137.775094 
L 340.151068 136.560155 
L 340.229497 136.960396 
L 340.303911 137.498385 
L 340.385528 136.192184 
L 340.460259 136.212166 
L 340.556924 136.379803 
L 340.621041 137.614207 
L 340.713266 136.797884 
L 340.791524 136.890917 
L 340.89147 136.776178 
L 341.142374 138.399943 
L 341.297694 137.213429 
L 341.615862 135.042095 
L 341.775967 135.269035 
L 341.916725 132.88269 
L 342.059796 133.207033 
L 342.07828 135.880454 
L 342.176152 134.797272 
L 342.236773 135.701631 
L 342.330633 135.448132 
L 342.525511 135.105201 
L 342.802619 137.542126 
L 342.915016 137.026226 
L 343.207164 138.833562 
L 343.342971 137.576201 
L 343.384288 137.589115 
L 343.446694 137.738896 
L 343.713103 134.678988 
L 343.772134 135.635073 
L 343.850334 135.181369 
L 344.103854 133.440007 
L 344.239856 133.591924 
L 344.414943 134.881735 
L 344.493636 136.453608 
L 344.650361 134.895553 
L 344.747386 136.727375 
L 344.806329 136.145333 
L 344.981437 136.734702 
L 345.369367 131.965273 
L 345.489237 134.228752 
L 345.547561 133.459376 
L 345.704805 134.336978 
L 345.785295 134.209704 
L 345.944014 135.798029 
L 346.018161 137.494754 
L 346.115464 137.226405 
L 346.286931 135.585311 
L 346.40773 135.178975 
L 346.508251 135.458001 
L 346.545985 135.160425 
L 346.662777 133.327968 
L 346.776773 133.953822 
L 346.837485 132.244078 
L 346.993174 134.284125 
L 347.167811 135.879621 
L 347.285298 134.232072 
L 347.338011 134.767414 
L 347.466483 136.24442 
L 347.556621 135.380697 
L 347.71974 136.079703 
L 347.946872 133.050252 
L 348.04352 132.578775 
L 348.209303 133.50955 
L 348.292495 133.772514 
L 348.306378 133.745233 
L 348.603478 136.551195 
L 348.696015 136.494939 
L 348.873158 137.92543 
L 348.93333 136.518925 
L 349.041431 136.764432 
L 349.320605 133.273211 
L 349.573499 135.107626 
L 349.651033 136.099682 
L 349.807444 135.056103 
L 349.884636 135.477773 
L 350.002562 135.07295 
L 350.060312 136.757843 
L 350.123131 136.519858 
L 350.293304 134.401531 
L 350.370957 134.857712 
L 350.495528 134.194283 
L 350.645668 136.708351 
L 350.859799 134.448465 
L 350.976666 134.73149 
L 351.046908 136.893889 
L 351.111472 136.867123 
L 351.190814 135.651147 
L 351.27293 137.27895 
L 351.522471 135.633662 
L 351.601439 135.088254 
L 351.736775 135.339365 
L 351.873357 135.873051 
L 351.911592 134.909233 
L 351.975379 136.090568 
L 352.028979 135.854523 
L 352.067561 134.483045 
L 352.174518 135.776727 
L 352.227346 135.191381 
L 352.381079 135.660905 
L 352.517995 136.863646 
L 352.621494 136.564462 
L 352.771351 136.741098 
L 352.810422 136.090288 
L 353.006022 137.161819 
L 353.082342 135.779611 
L 353.121832 136.508827 
L 353.166491 136.417988 
L 353.199453 134.876582 
L 353.280341 135.765659 
L 353.472764 134.809955 
L 353.530981 136.397069 
L 353.610808 134.614428 
L 353.66678 134.832183 
L 353.934601 138.030531 
L 354.023766 137.389329 
L 354.098991 138.253044 
L 354.486707 135.589562 
L 354.700857 132.217212 
L 354.71952 132.899188 
" clip-path="url(#p1424bc2b59)" style="fill: none; stroke: #ff0000; stroke-opacity: 0.5; stroke-width: 2.1; stroke-linecap: square"/>
   </g>
   <g id="patch_3">
    <path d="M 38.502813 148.36327 
L 38.502813 0.72 
" style="fill: none; stroke: #000000; stroke-width: 0.8; stroke-linejoin: miter; stroke-linecap: square"/>
   </g>
   <g id="patch_4">
    <path d="M 354.71952 148.36327 
L 354.71952 0.72 
" style="fill: none; stroke: #000000; stroke-width: 0.8; stroke-linejoin: miter; stroke-linecap: square"/>
   </g>
   <g id="patch_5">
    <path d="M 38.502813 148.36327 
L 354.71952 148.36327 
" style="fill: none; stroke: #000000; stroke-width: 0.8; stroke-linejoin: miter; stroke-linecap: square"/>
   </g>
   <g id="patch_6">
    <path d="M 38.502813 0.72 
L 354.71952 0.72 
" style="fill: none; stroke: #000000; stroke-width: 0.8; stroke-linejoin: miter; stroke-linecap: square"/>
   </g>
   <g id="legend_1">
    <g id="patch_7">
     <path d="M 273.95077 38.07625 
L 347.71952 38.07625 
Q 349.71952 38.07625 349.71952 36.07625 
L 349.71952 7.72 
Q 349.71952 5.72 347.71952 5.72 
L 273.95077 5.72 
Q 271.95077 5.72 271.95077 7.72 
L 271.95077 36.07625 
Q 271.95077 38.07625 273.95077 38.07625 
z
" style="fill: #ffffff; opacity: 0.8; stroke: #cccccc; stroke-linejoin: miter"/>
    </g>
    <g id="line2d_31">
     <path d="M 275.95077 13.818437 
L 285.95077 13.818437 
L 295.95077 13.818437 
" style="fill: none; stroke: #0000ff; stroke-opacity: 0.5; stroke-width: 2.1; stroke-linecap: square"/>
    </g>
    <g id="text_17">
     <!-- RNEA -->
     <g transform="translate(303.95077 17.318437) scale(0.1 -0.1)">
      <defs>
       <path id="DejaVuSans-52" d="M 2841 2188 
Q 3044 2119 3236 1894 
Q 3428 1669 3622 1275 
L 4263 0 
L 3584 0 
L 2988 1197 
Q 2756 1666 2539 1819 
Q 2322 1972 1947 1972 
L 1259 1972 
L 1259 0 
L 628 0 
L 628 4666 
L 2053 4666 
Q 2853 4666 3247 4331 
Q 3641 3997 3641 3322 
Q 3641 2881 3436 2590 
Q 3231 2300 2841 2188 
z
M 1259 4147 
L 1259 2491 
L 2053 2491 
Q 2509 2491 2742 2702 
Q 2975 2913 2975 3322 
Q 2975 3731 2742 3939 
Q 2509 4147 2053 4147 
L 1259 4147 
z
" transform="scale(0.015625)"/>
       <path id="DejaVuSans-45" d="M 628 4666 
L 3578 4666 
L 3578 4134 
L 1259 4134 
L 1259 2753 
L 3481 2753 
L 3481 2222 
L 1259 2222 
L 1259 531 
L 3634 531 
L 3634 0 
L 628 0 
L 628 4666 
z
" transform="scale(0.015625)"/>
       <path id="DejaVuSans-41" d="M 2188 4044 
L 1331 1722 
L 3047 1722 
L 2188 4044 
z
M 1831 4666 
L 2547 4666 
L 4325 0 
L 3669 0 
L 3244 1197 
L 1141 1197 
L 716 0 
L 50 0 
L 1831 4666 
z
" transform="scale(0.015625)"/>
      </defs>
      <use xlink:href="#DejaVuSans-52"/>
      <use xlink:href="#DejaVuSans-4e" x="69.482422"/>
      <use xlink:href="#DejaVuSans-45" x="144.287109"/>
      <use xlink:href="#DejaVuSans-41" x="207.470703"/>
     </g>
    </g>
    <g id="line2d_32">
     <path d="M 275.95077 28.496562 
L 285.95077 28.496562 
L 295.95077 28.496562 
" style="fill: none; stroke: #ff0000; stroke-opacity: 0.5; stroke-width: 2.1; stroke-linecap: square"/>
    </g>
    <g id="text_18">
     <!-- BURNEA -->
     <g transform="translate(303.95077 31.996562) scale(0.1 -0.1)">
      <defs>
       <path id="DejaVuSans-42" d="M 1259 2228 
L 1259 519 
L 2272 519 
Q 2781 519 3026 730 
Q 3272 941 3272 1375 
Q 3272 1813 3026 2020 
Q 2781 2228 2272 2228 
L 1259 2228 
z
M 1259 4147 
L 1259 2741 
L 2194 2741 
Q 2656 2741 2882 2914 
Q 3109 3088 3109 3444 
Q 3109 3797 2882 3972 
Q 2656 4147 2194 4147 
L 1259 4147 
z
M 628 4666 
L 2241 4666 
Q 2963 4666 3353 4366 
Q 3744 4066 3744 3513 
Q 3744 3084 3544 2831 
Q 3344 2578 2956 2516 
Q 3422 2416 3680 2098 
Q 3938 1781 3938 1306 
Q 3938 681 3513 340 
Q 3088 0 2303 0 
L 628 0 
L 628 4666 
z
" transform="scale(0.015625)"/>
       <path id="DejaVuSans-55" d="M 556 4666 
L 1191 4666 
L 1191 1831 
Q 1191 1081 1462 751 
Q 1734 422 2344 422 
Q 2950 422 3222 751 
Q 3494 1081 3494 1831 
L 3494 4666 
L 4128 4666 
L 4128 1753 
Q 4128 841 3676 375 
Q 3225 -91 2344 -91 
Q 1459 -91 1007 375 
Q 556 841 556 1753 
L 556 4666 
z
" transform="scale(0.015625)"/>
      </defs>
      <use xlink:href="#DejaVuSans-42"/>
      <use xlink:href="#DejaVuSans-55" x="68.603516"/>
      <use xlink:href="#DejaVuSans-52" x="141.796875"/>
      <use xlink:href="#DejaVuSans-4e" x="211.279297"/>
      <use xlink:href="#DejaVuSans-45" x="286.083984"/>
      <use xlink:href="#DejaVuSans-41" x="349.267578"/>
     </g>
    </g>
   </g>
  </g>
 </g>
 <defs>
  <clipPath id="p1424bc2b59">
   <rect x="38.502813" y="0.72" width="316.216707" height="147.64327"/>
  </clipPath>
 </defs>
</svg>
