<?xml version="1.0" encoding="utf-8" standalone="no"?>
<!DOCTYPE svg PUBLIC "-//W3C//DTD SVG 1.1//EN"
  "http://www.w3.org/Graphics/SVG/1.1/DTD/svg11.dtd">
<svg xmlns:xlink="http://www.w3.org/1999/xlink" width="355.43952pt" height="175.43952pt" viewBox="0 0 355.43952 175.43952" xmlns="http://www.w3.org/2000/svg" version="1.1">
 <metadata>
  <rdf:RDF xmlns:dc="http://purl.org/dc/elements/1.1/" xmlns:cc="http://creativecommons.org/ns#" xmlns:rdf="http://www.w3.org/1999/02/22-rdf-syntax-ns#">
   <cc:Work>
    <dc:type rdf:resource="http://purl.org/dc/dcmitype/StillImage"/>
    <dc:date>2023-09-09T18:29:25.518018</dc:date>
    <dc:format>image/svg+xml</dc:format>
    <dc:creator>
     <cc:Agent>
      <dc:title>Matplotlib v3.7.2, https://matplotlib.org/</dc:title>
     </cc:Agent>
    </dc:creator>
   </cc:Work>
  </rdf:RDF>
 </metadata>
 <defs>
  <style type="text/css">*{stroke-linejoin: round; stroke-linecap: butt}</style>
 </defs>
 <g id="figure_1">
  <g id="patch_1">
   <path d="M 0 175.43952 
L 355.43952 175.43952 
L 355.43952 0 
L 0 0 
L 0 175.43952 
z
" style="fill: none"/>
  </g>
  <g id="axes_1">
   <g id="patch_2">
    <path d="M 41.680938 148.36327 
L 354.71952 148.36327 
L 354.71952 0.72 
L 41.680938 0.72 
L 41.680938 148.36327 
z
" style="fill: none"/>
   </g>
   <g id="matplotlib.axis_1">
    <g id="xtick_1">
     <g id="line2d_1">
      <path d="M 41.680938 148.36327 
L 41.680938 0.72 
" clip-path="url(#pd4b17ca986)" style="fill: none; stroke-dasharray: 0.8,1.32; stroke-dashoffset: 0; stroke: #000000; stroke-opacity: 0.5; stroke-width: 0.8"/>
     </g>
     <g id="line2d_2">
      <defs>
       <path id="ma1d33177ba" d="M 0 0 
L 0 3.5 
" style="stroke: #000000; stroke-width: 0.8"/>
      </defs>
      <g>
       <use xlink:href="#ma1d33177ba" x="41.680938" y="148.36327" style="stroke: #000000; stroke-width: 0.8"/>
      </g>
     </g>
     <g id="text_1">
      <!-- 0 -->
      <g transform="translate(38.499688 162.961708) scale(0.1 -0.1)">
       <defs>
        <path id="DejaVuSans-30" d="M 2034 4250 
Q 1547 4250 1301 3770 
Q 1056 3291 1056 2328 
Q 1056 1369 1301 889 
Q 1547 409 2034 409 
Q 2525 409 2770 889 
Q 3016 1369 3016 2328 
Q 3016 3291 2770 3770 
Q 2525 4250 2034 4250 
z
M 2034 4750 
Q 2819 4750 3233 4129 
Q 3647 3509 3647 2328 
Q 3647 1150 3233 529 
Q 2819 -91 2034 -91 
Q 1250 -91 836 529 
Q 422 1150 422 2328 
Q 422 3509 836 4129 
Q 1250 4750 2034 4750 
z
" transform="scale(0.015625)"/>
       </defs>
       <use xlink:href="#DejaVuSans-30"/>
      </g>
     </g>
    </g>
    <g id="xtick_2">
     <g id="line2d_3">
      <path d="M 89.494945 148.36327 
L 89.494945 0.72 
" clip-path="url(#pd4b17ca986)" style="fill: none; stroke-dasharray: 0.8,1.32; stroke-dashoffset: 0; stroke: #000000; stroke-opacity: 0.5; stroke-width: 0.8"/>
     </g>
     <g id="line2d_4">
      <g>
       <use xlink:href="#ma1d33177ba" x="89.494945" y="148.36327" style="stroke: #000000; stroke-width: 0.8"/>
      </g>
     </g>
     <g id="text_2">
      <!-- 5 -->
      <g transform="translate(86.313695 162.961708) scale(0.1 -0.1)">
       <defs>
        <path id="DejaVuSans-35" d="M 691 4666 
L 3169 4666 
L 3169 4134 
L 1269 4134 
L 1269 2991 
Q 1406 3038 1543 3061 
Q 1681 3084 1819 3084 
Q 2600 3084 3056 2656 
Q 3513 2228 3513 1497 
Q 3513 744 3044 326 
Q 2575 -91 1722 -91 
Q 1428 -91 1123 -41 
Q 819 9 494 109 
L 494 744 
Q 775 591 1075 516 
Q 1375 441 1709 441 
Q 2250 441 2565 725 
Q 2881 1009 2881 1497 
Q 2881 1984 2565 2268 
Q 2250 2553 1709 2553 
Q 1456 2553 1204 2497 
Q 953 2441 691 2322 
L 691 4666 
z
" transform="scale(0.015625)"/>
       </defs>
       <use xlink:href="#DejaVuSans-35"/>
      </g>
     </g>
    </g>
    <g id="xtick_3">
     <g id="line2d_5">
      <path d="M 137.308952 148.36327 
L 137.308952 0.72 
" clip-path="url(#pd4b17ca986)" style="fill: none; stroke-dasharray: 0.8,1.32; stroke-dashoffset: 0; stroke: #000000; stroke-opacity: 0.5; stroke-width: 0.8"/>
     </g>
     <g id="line2d_6">
      <g>
       <use xlink:href="#ma1d33177ba" x="137.308952" y="148.36327" style="stroke: #000000; stroke-width: 0.8"/>
      </g>
     </g>
     <g id="text_3">
      <!-- 10 -->
      <g transform="translate(130.946452 162.961708) scale(0.1 -0.1)">
       <defs>
        <path id="DejaVuSans-31" d="M 794 531 
L 1825 531 
L 1825 4091 
L 703 3866 
L 703 4441 
L 1819 4666 
L 2450 4666 
L 2450 531 
L 3481 531 
L 3481 0 
L 794 0 
L 794 531 
z
" transform="scale(0.015625)"/>
       </defs>
       <use xlink:href="#DejaVuSans-31"/>
       <use xlink:href="#DejaVuSans-30" x="63.623047"/>
      </g>
     </g>
    </g>
    <g id="xtick_4">
     <g id="line2d_7">
      <path d="M 185.12296 148.36327 
L 185.12296 0.72 
" clip-path="url(#pd4b17ca986)" style="fill: none; stroke-dasharray: 0.8,1.32; stroke-dashoffset: 0; stroke: #000000; stroke-opacity: 0.5; stroke-width: 0.8"/>
     </g>
     <g id="line2d_8">
      <g>
       <use xlink:href="#ma1d33177ba" x="185.12296" y="148.36327" style="stroke: #000000; stroke-width: 0.8"/>
      </g>
     </g>
     <g id="text_4">
      <!-- 15 -->
      <g transform="translate(178.76046 162.961708) scale(0.1 -0.1)">
       <use xlink:href="#DejaVuSans-31"/>
       <use xlink:href="#DejaVuSans-35" x="63.623047"/>
      </g>
     </g>
    </g>
    <g id="xtick_5">
     <g id="line2d_9">
      <path d="M 232.936967 148.36327 
L 232.936967 0.72 
" clip-path="url(#pd4b17ca986)" style="fill: none; stroke-dasharray: 0.8,1.32; stroke-dashoffset: 0; stroke: #000000; stroke-opacity: 0.5; stroke-width: 0.8"/>
     </g>
     <g id="line2d_10">
      <g>
       <use xlink:href="#ma1d33177ba" x="232.936967" y="148.36327" style="stroke: #000000; stroke-width: 0.8"/>
      </g>
     </g>
     <g id="text_5">
      <!-- 20 -->
      <g transform="translate(226.574467 162.961708) scale(0.1 -0.1)">
       <defs>
        <path id="DejaVuSans-32" d="M 1228 531 
L 3431 531 
L 3431 0 
L 469 0 
L 469 531 
Q 828 903 1448 1529 
Q 2069 2156 2228 2338 
Q 2531 2678 2651 2914 
Q 2772 3150 2772 3378 
Q 2772 3750 2511 3984 
Q 2250 4219 1831 4219 
Q 1534 4219 1204 4116 
Q 875 4013 500 3803 
L 500 4441 
Q 881 4594 1212 4672 
Q 1544 4750 1819 4750 
Q 2544 4750 2975 4387 
Q 3406 4025 3406 3419 
Q 3406 3131 3298 2873 
Q 3191 2616 2906 2266 
Q 2828 2175 2409 1742 
Q 1991 1309 1228 531 
z
" transform="scale(0.015625)"/>
       </defs>
       <use xlink:href="#DejaVuSans-32"/>
       <use xlink:href="#DejaVuSans-30" x="63.623047"/>
      </g>
     </g>
    </g>
    <g id="xtick_6">
     <g id="line2d_11">
      <path d="M 280.750974 148.36327 
L 280.750974 0.72 
" clip-path="url(#pd4b17ca986)" style="fill: none; stroke-dasharray: 0.8,1.32; stroke-dashoffset: 0; stroke: #000000; stroke-opacity: 0.5; stroke-width: 0.8"/>
     </g>
     <g id="line2d_12">
      <g>
       <use xlink:href="#ma1d33177ba" x="280.750974" y="148.36327" style="stroke: #000000; stroke-width: 0.8"/>
      </g>
     </g>
     <g id="text_6">
      <!-- 25 -->
      <g transform="translate(274.388474 162.961708) scale(0.1 -0.1)">
       <use xlink:href="#DejaVuSans-32"/>
       <use xlink:href="#DejaVuSans-35" x="63.623047"/>
      </g>
     </g>
    </g>
    <g id="xtick_7">
     <g id="line2d_13">
      <path d="M 328.564982 148.36327 
L 328.564982 0.72 
" clip-path="url(#pd4b17ca986)" style="fill: none; stroke-dasharray: 0.8,1.32; stroke-dashoffset: 0; stroke: #000000; stroke-opacity: 0.5; stroke-width: 0.8"/>
     </g>
     <g id="line2d_14">
      <g>
       <use xlink:href="#ma1d33177ba" x="328.564982" y="148.36327" style="stroke: #000000; stroke-width: 0.8"/>
      </g>
     </g>
     <g id="text_7">
      <!-- 30 -->
      <g transform="translate(322.202482 162.961708) scale(0.1 -0.1)">
       <defs>
        <path id="DejaVuSans-33" d="M 2597 2516 
Q 3050 2419 3304 2112 
Q 3559 1806 3559 1356 
Q 3559 666 3084 287 
Q 2609 -91 1734 -91 
Q 1441 -91 1130 -33 
Q 819 25 488 141 
L 488 750 
Q 750 597 1062 519 
Q 1375 441 1716 441 
Q 2309 441 2620 675 
Q 2931 909 2931 1356 
Q 2931 1769 2642 2001 
Q 2353 2234 1838 2234 
L 1294 2234 
L 1294 2753 
L 1863 2753 
Q 2328 2753 2575 2939 
Q 2822 3125 2822 3475 
Q 2822 3834 2567 4026 
Q 2313 4219 1838 4219 
Q 1578 4219 1281 4162 
Q 984 4106 628 3988 
L 628 4550 
Q 988 4650 1302 4700 
Q 1616 4750 1894 4750 
Q 2613 4750 3031 4423 
Q 3450 4097 3450 3541 
Q 3450 3153 3228 2886 
Q 3006 2619 2597 2516 
z
" transform="scale(0.015625)"/>
       </defs>
       <use xlink:href="#DejaVuSans-33"/>
       <use xlink:href="#DejaVuSans-30" x="63.623047"/>
      </g>
     </g>
    </g>
    <g id="text_8">
     <!-- Zeit [s] -->
     <g transform="translate(180.254135 172.639833) scale(0.1 -0.1)">
      <defs>
       <path id="DejaVuSans-5a" d="M 359 4666 
L 4025 4666 
L 4025 4184 
L 1075 531 
L 4097 531 
L 4097 0 
L 288 0 
L 288 481 
L 3238 4134 
L 359 4134 
L 359 4666 
z
" transform="scale(0.015625)"/>
       <path id="DejaVuSans-65" d="M 3597 1894 
L 3597 1613 
L 953 1613 
Q 991 1019 1311 708 
Q 1631 397 2203 397 
Q 2534 397 2845 478 
Q 3156 559 3463 722 
L 3463 178 
Q 3153 47 2828 -22 
Q 2503 -91 2169 -91 
Q 1331 -91 842 396 
Q 353 884 353 1716 
Q 353 2575 817 3079 
Q 1281 3584 2069 3584 
Q 2775 3584 3186 3129 
Q 3597 2675 3597 1894 
z
M 3022 2063 
Q 3016 2534 2758 2815 
Q 2500 3097 2075 3097 
Q 1594 3097 1305 2825 
Q 1016 2553 972 2059 
L 3022 2063 
z
" transform="scale(0.015625)"/>
       <path id="DejaVuSans-69" d="M 603 3500 
L 1178 3500 
L 1178 0 
L 603 0 
L 603 3500 
z
M 603 4863 
L 1178 4863 
L 1178 4134 
L 603 4134 
L 603 4863 
z
" transform="scale(0.015625)"/>
       <path id="DejaVuSans-74" d="M 1172 4494 
L 1172 3500 
L 2356 3500 
L 2356 3053 
L 1172 3053 
L 1172 1153 
Q 1172 725 1289 603 
Q 1406 481 1766 481 
L 2356 481 
L 2356 0 
L 1766 0 
Q 1100 0 847 248 
Q 594 497 594 1153 
L 594 3053 
L 172 3053 
L 172 3500 
L 594 3500 
L 594 4494 
L 1172 4494 
z
" transform="scale(0.015625)"/>
       <path id="DejaVuSans-20" transform="scale(0.015625)"/>
       <path id="DejaVuSans-5b" d="M 550 4863 
L 1875 4863 
L 1875 4416 
L 1125 4416 
L 1125 -397 
L 1875 -397 
L 1875 -844 
L 550 -844 
L 550 4863 
z
" transform="scale(0.015625)"/>
       <path id="DejaVuSans-73" d="M 2834 3397 
L 2834 2853 
Q 2591 2978 2328 3040 
Q 2066 3103 1784 3103 
Q 1356 3103 1142 2972 
Q 928 2841 928 2578 
Q 928 2378 1081 2264 
Q 1234 2150 1697 2047 
L 1894 2003 
Q 2506 1872 2764 1633 
Q 3022 1394 3022 966 
Q 3022 478 2636 193 
Q 2250 -91 1575 -91 
Q 1294 -91 989 -36 
Q 684 19 347 128 
L 347 722 
Q 666 556 975 473 
Q 1284 391 1588 391 
Q 1994 391 2212 530 
Q 2431 669 2431 922 
Q 2431 1156 2273 1281 
Q 2116 1406 1581 1522 
L 1381 1569 
Q 847 1681 609 1914 
Q 372 2147 372 2553 
Q 372 3047 722 3315 
Q 1072 3584 1716 3584 
Q 2034 3584 2315 3537 
Q 2597 3491 2834 3397 
z
" transform="scale(0.015625)"/>
       <path id="DejaVuSans-5d" d="M 1947 4863 
L 1947 -844 
L 622 -844 
L 622 -397 
L 1369 -397 
L 1369 4416 
L 622 4416 
L 622 4863 
L 1947 4863 
z
" transform="scale(0.015625)"/>
      </defs>
      <use xlink:href="#DejaVuSans-5a"/>
      <use xlink:href="#DejaVuSans-65" x="68.505859"/>
      <use xlink:href="#DejaVuSans-69" x="130.029297"/>
      <use xlink:href="#DejaVuSans-74" x="157.8125"/>
      <use xlink:href="#DejaVuSans-20" x="197.021484"/>
      <use xlink:href="#DejaVuSans-5b" x="228.808594"/>
      <use xlink:href="#DejaVuSans-73" x="267.822266"/>
      <use xlink:href="#DejaVuSans-5d" x="319.921875"/>
     </g>
    </g>
   </g>
   <g id="matplotlib.axis_2">
    <g id="ytick_1">
     <g id="line2d_15">
      <path d="M 41.680938 128.794191 
L 354.71952 128.794191 
" clip-path="url(#pd4b17ca986)" style="fill: none; stroke-dasharray: 0.8,1.32; stroke-dashoffset: 0; stroke: #000000; stroke-opacity: 0.5; stroke-width: 0.8"/>
     </g>
     <g id="line2d_16">
      <defs>
       <path id="m3d1603a29c" d="M 0 0 
L -3.5 0 
" style="stroke: #000000; stroke-width: 0.8"/>
      </defs>
      <g>
       <use xlink:href="#m3d1603a29c" x="41.680938" y="128.794191" style="stroke: #000000; stroke-width: 0.8"/>
      </g>
     </g>
     <g id="text_9">
      <!-- −5.8 -->
      <g transform="translate(10.398125 132.59341) scale(0.1 -0.1)">
       <defs>
        <path id="DejaVuSans-2212" d="M 678 2272 
L 4684 2272 
L 4684 1741 
L 678 1741 
L 678 2272 
z
" transform="scale(0.015625)"/>
        <path id="DejaVuSans-2e" d="M 684 794 
L 1344 794 
L 1344 0 
L 684 0 
L 684 794 
z
" transform="scale(0.015625)"/>
        <path id="DejaVuSans-38" d="M 2034 2216 
Q 1584 2216 1326 1975 
Q 1069 1734 1069 1313 
Q 1069 891 1326 650 
Q 1584 409 2034 409 
Q 2484 409 2743 651 
Q 3003 894 3003 1313 
Q 3003 1734 2745 1975 
Q 2488 2216 2034 2216 
z
M 1403 2484 
Q 997 2584 770 2862 
Q 544 3141 544 3541 
Q 544 4100 942 4425 
Q 1341 4750 2034 4750 
Q 2731 4750 3128 4425 
Q 3525 4100 3525 3541 
Q 3525 3141 3298 2862 
Q 3072 2584 2669 2484 
Q 3125 2378 3379 2068 
Q 3634 1759 3634 1313 
Q 3634 634 3220 271 
Q 2806 -91 2034 -91 
Q 1263 -91 848 271 
Q 434 634 434 1313 
Q 434 1759 690 2068 
Q 947 2378 1403 2484 
z
M 1172 3481 
Q 1172 3119 1398 2916 
Q 1625 2713 2034 2713 
Q 2441 2713 2670 2916 
Q 2900 3119 2900 3481 
Q 2900 3844 2670 4047 
Q 2441 4250 2034 4250 
Q 1625 4250 1398 4047 
Q 1172 3844 1172 3481 
z
" transform="scale(0.015625)"/>
       </defs>
       <use xlink:href="#DejaVuSans-2212"/>
       <use xlink:href="#DejaVuSans-35" x="83.789062"/>
       <use xlink:href="#DejaVuSans-2e" x="147.412109"/>
       <use xlink:href="#DejaVuSans-38" x="179.199219"/>
      </g>
     </g>
    </g>
    <g id="ytick_2">
     <g id="line2d_17">
      <path d="M 41.680938 93.051541 
L 354.71952 93.051541 
" clip-path="url(#pd4b17ca986)" style="fill: none; stroke-dasharray: 0.8,1.32; stroke-dashoffset: 0; stroke: #000000; stroke-opacity: 0.5; stroke-width: 0.8"/>
     </g>
     <g id="line2d_18">
      <g>
       <use xlink:href="#m3d1603a29c" x="41.680938" y="93.051541" style="stroke: #000000; stroke-width: 0.8"/>
      </g>
     </g>
     <g id="text_10">
      <!-- −5.6 -->
      <g transform="translate(10.398125 96.85076) scale(0.1 -0.1)">
       <defs>
        <path id="DejaVuSans-36" d="M 2113 2584 
Q 1688 2584 1439 2293 
Q 1191 2003 1191 1497 
Q 1191 994 1439 701 
Q 1688 409 2113 409 
Q 2538 409 2786 701 
Q 3034 994 3034 1497 
Q 3034 2003 2786 2293 
Q 2538 2584 2113 2584 
z
M 3366 4563 
L 3366 3988 
Q 3128 4100 2886 4159 
Q 2644 4219 2406 4219 
Q 1781 4219 1451 3797 
Q 1122 3375 1075 2522 
Q 1259 2794 1537 2939 
Q 1816 3084 2150 3084 
Q 2853 3084 3261 2657 
Q 3669 2231 3669 1497 
Q 3669 778 3244 343 
Q 2819 -91 2113 -91 
Q 1303 -91 875 529 
Q 447 1150 447 2328 
Q 447 3434 972 4092 
Q 1497 4750 2381 4750 
Q 2619 4750 2861 4703 
Q 3103 4656 3366 4563 
z
" transform="scale(0.015625)"/>
       </defs>
       <use xlink:href="#DejaVuSans-2212"/>
       <use xlink:href="#DejaVuSans-35" x="83.789062"/>
       <use xlink:href="#DejaVuSans-2e" x="147.412109"/>
       <use xlink:href="#DejaVuSans-36" x="179.199219"/>
      </g>
     </g>
    </g>
    <g id="ytick_3">
     <g id="line2d_19">
      <path d="M 41.680938 57.308891 
L 354.71952 57.308891 
" clip-path="url(#pd4b17ca986)" style="fill: none; stroke-dasharray: 0.8,1.32; stroke-dashoffset: 0; stroke: #000000; stroke-opacity: 0.5; stroke-width: 0.8"/>
     </g>
     <g id="line2d_20">
      <g>
       <use xlink:href="#m3d1603a29c" x="41.680938" y="57.308891" style="stroke: #000000; stroke-width: 0.8"/>
      </g>
     </g>
     <g id="text_11">
      <!-- −5.4 -->
      <g transform="translate(10.398125 61.10811) scale(0.1 -0.1)">
       <defs>
        <path id="DejaVuSans-34" d="M 2419 4116 
L 825 1625 
L 2419 1625 
L 2419 4116 
z
M 2253 4666 
L 3047 4666 
L 3047 1625 
L 3713 1625 
L 3713 1100 
L 3047 1100 
L 3047 0 
L 2419 0 
L 2419 1100 
L 313 1100 
L 313 1709 
L 2253 4666 
z
" transform="scale(0.015625)"/>
       </defs>
       <use xlink:href="#DejaVuSans-2212"/>
       <use xlink:href="#DejaVuSans-35" x="83.789062"/>
       <use xlink:href="#DejaVuSans-2e" x="147.412109"/>
       <use xlink:href="#DejaVuSans-34" x="179.199219"/>
      </g>
     </g>
    </g>
    <g id="ytick_4">
     <g id="line2d_21">
      <path d="M 41.680938 21.566241 
L 354.71952 21.566241 
" clip-path="url(#pd4b17ca986)" style="fill: none; stroke-dasharray: 0.8,1.32; stroke-dashoffset: 0; stroke: #000000; stroke-opacity: 0.5; stroke-width: 0.8"/>
     </g>
     <g id="line2d_22">
      <g>
       <use xlink:href="#m3d1603a29c" x="41.680938" y="21.566241" style="stroke: #000000; stroke-width: 0.8"/>
      </g>
     </g>
     <g id="text_12">
      <!-- −5.2 -->
      <g transform="translate(10.398125 25.36546) scale(0.1 -0.1)">
       <use xlink:href="#DejaVuSans-2212"/>
       <use xlink:href="#DejaVuSans-35" x="83.789062"/>
       <use xlink:href="#DejaVuSans-2e" x="147.412109"/>
       <use xlink:href="#DejaVuSans-32" x="179.199219"/>
      </g>
     </g>
    </g>
    <g id="text_13">
     <!-- Drehmoment [Nm] -->
     <g transform="translate(8.318437 121.686948) rotate(-90) scale(0.1 -0.1)">
      <defs>
       <path id="DejaVuSans-44" d="M 1259 4147 
L 1259 519 
L 2022 519 
Q 2988 519 3436 956 
Q 3884 1394 3884 2338 
Q 3884 3275 3436 3711 
Q 2988 4147 2022 4147 
L 1259 4147 
z
M 628 4666 
L 1925 4666 
Q 3281 4666 3915 4102 
Q 4550 3538 4550 2338 
Q 4550 1131 3912 565 
Q 3275 0 1925 0 
L 628 0 
L 628 4666 
z
" transform="scale(0.015625)"/>
       <path id="DejaVuSans-72" d="M 2631 2963 
Q 2534 3019 2420 3045 
Q 2306 3072 2169 3072 
Q 1681 3072 1420 2755 
Q 1159 2438 1159 1844 
L 1159 0 
L 581 0 
L 581 3500 
L 1159 3500 
L 1159 2956 
Q 1341 3275 1631 3429 
Q 1922 3584 2338 3584 
Q 2397 3584 2469 3576 
Q 2541 3569 2628 3553 
L 2631 2963 
z
" transform="scale(0.015625)"/>
       <path id="DejaVuSans-68" d="M 3513 2113 
L 3513 0 
L 2938 0 
L 2938 2094 
Q 2938 2591 2744 2837 
Q 2550 3084 2163 3084 
Q 1697 3084 1428 2787 
Q 1159 2491 1159 1978 
L 1159 0 
L 581 0 
L 581 4863 
L 1159 4863 
L 1159 2956 
Q 1366 3272 1645 3428 
Q 1925 3584 2291 3584 
Q 2894 3584 3203 3211 
Q 3513 2838 3513 2113 
z
" transform="scale(0.015625)"/>
       <path id="DejaVuSans-6d" d="M 3328 2828 
Q 3544 3216 3844 3400 
Q 4144 3584 4550 3584 
Q 5097 3584 5394 3201 
Q 5691 2819 5691 2113 
L 5691 0 
L 5113 0 
L 5113 2094 
Q 5113 2597 4934 2840 
Q 4756 3084 4391 3084 
Q 3944 3084 3684 2787 
Q 3425 2491 3425 1978 
L 3425 0 
L 2847 0 
L 2847 2094 
Q 2847 2600 2669 2842 
Q 2491 3084 2119 3084 
Q 1678 3084 1418 2786 
Q 1159 2488 1159 1978 
L 1159 0 
L 581 0 
L 581 3500 
L 1159 3500 
L 1159 2956 
Q 1356 3278 1631 3431 
Q 1906 3584 2284 3584 
Q 2666 3584 2933 3390 
Q 3200 3197 3328 2828 
z
" transform="scale(0.015625)"/>
       <path id="DejaVuSans-6f" d="M 1959 3097 
Q 1497 3097 1228 2736 
Q 959 2375 959 1747 
Q 959 1119 1226 758 
Q 1494 397 1959 397 
Q 2419 397 2687 759 
Q 2956 1122 2956 1747 
Q 2956 2369 2687 2733 
Q 2419 3097 1959 3097 
z
M 1959 3584 
Q 2709 3584 3137 3096 
Q 3566 2609 3566 1747 
Q 3566 888 3137 398 
Q 2709 -91 1959 -91 
Q 1206 -91 779 398 
Q 353 888 353 1747 
Q 353 2609 779 3096 
Q 1206 3584 1959 3584 
z
" transform="scale(0.015625)"/>
       <path id="DejaVuSans-6e" d="M 3513 2113 
L 3513 0 
L 2938 0 
L 2938 2094 
Q 2938 2591 2744 2837 
Q 2550 3084 2163 3084 
Q 1697 3084 1428 2787 
Q 1159 2491 1159 1978 
L 1159 0 
L 581 0 
L 581 3500 
L 1159 3500 
L 1159 2956 
Q 1366 3272 1645 3428 
Q 1925 3584 2291 3584 
Q 2894 3584 3203 3211 
Q 3513 2838 3513 2113 
z
" transform="scale(0.015625)"/>
       <path id="DejaVuSans-4e" d="M 628 4666 
L 1478 4666 
L 3547 763 
L 3547 4666 
L 4159 4666 
L 4159 0 
L 3309 0 
L 1241 3903 
L 1241 0 
L 628 0 
L 628 4666 
z
" transform="scale(0.015625)"/>
      </defs>
      <use xlink:href="#DejaVuSans-44"/>
      <use xlink:href="#DejaVuSans-72" x="77.001953"/>
      <use xlink:href="#DejaVuSans-65" x="115.865234"/>
      <use xlink:href="#DejaVuSans-68" x="177.388672"/>
      <use xlink:href="#DejaVuSans-6d" x="240.767578"/>
      <use xlink:href="#DejaVuSans-6f" x="338.179688"/>
      <use xlink:href="#DejaVuSans-6d" x="399.361328"/>
      <use xlink:href="#DejaVuSans-65" x="496.773438"/>
      <use xlink:href="#DejaVuSans-6e" x="558.296875"/>
      <use xlink:href="#DejaVuSans-74" x="621.675781"/>
      <use xlink:href="#DejaVuSans-20" x="660.884766"/>
      <use xlink:href="#DejaVuSans-5b" x="692.671875"/>
      <use xlink:href="#DejaVuSans-4e" x="731.685547"/>
      <use xlink:href="#DejaVuSans-6d" x="806.490234"/>
      <use xlink:href="#DejaVuSans-5d" x="903.902344"/>
     </g>
    </g>
   </g>
   <g id="line2d_23">
    <path d="M 41.680938 4.101167 
L 354.71952 4.101167 
L 354.71952 4.101167 
" clip-path="url(#pd4b17ca986)" style="fill: none; stroke: #0000ff; stroke-opacity: 0.5; stroke-width: 2.1; stroke-linecap: square"/>
   </g>
   <g id="line2d_24">
    <path d="M 41.680938 126.659563 
L 41.740108 124.793004 
L 41.846564 126.426719 
L 41.913584 123.334135 
L 42.015663 123.853756 
L 42.169168 119.140033 
L 42.300017 129.662165 
L 42.377598 126.261174 
L 42.558262 128.132565 
L 42.782408 118.79477 
L 42.858949 120.397734 
L 42.936548 125.895683 
L 43.131881 123.699377 
L 43.360114 116.437914 
L 43.437039 118.79641 
L 43.494847 118.099141 
L 43.572921 117.448118 
L 43.686835 122.718395 
L 43.745051 120.942585 
L 43.919183 114.9469 
L 43.997734 119.274608 
L 44.285344 109.042585 
L 44.307485 109.319034 
L 44.369678 111.653266 
L 44.381824 110.72756 
L 44.459799 109.789438 
L 44.613942 111.745207 
L 44.863167 121.058553 
L 44.940196 119.999331 
L 45.008536 118.232216 
L 45.094835 122.206075 
L 45.172398 123.082965 
L 45.327458 116.472966 
L 45.409852 120.017891 
L 45.579596 109.874626 
L 45.965479 124.61726 
L 46.124761 113.577607 
L 46.371264 124.501304 
L 46.447584 130.526597 
L 46.524913 130.382763 
L 46.600995 130.006 
L 46.717819 125.157377 
L 46.762193 118.116207 
L 46.836298 123.13672 
L 46.931628 125.804672 
L 47.008747 123.933583 
L 47.090275 125.452077 
L 47.16312 130.025812 
L 47.39489 117.456862 
L 47.473451 116.634667 
L 47.553456 117.715869 
L 47.646073 115.302045 
L 47.800898 124.365247 
L 47.87757 122.788916 
L 48.043589 117.157051 
L 48.112559 120.227526 
L 48.204895 118.637968 
L 48.451357 129.495329 
L 48.593257 124.878197 
L 48.669039 125.026239 
L 48.823271 121.179015 
L 48.919008 122.329037 
L 49.226913 133.969616 
L 49.387991 131.562464 
L 49.481137 132.406739 
L 49.555672 126.790486 
L 49.633269 128.149533 
L 49.713059 128.826294 
L 49.866397 135.790944 
L 50.020587 139.695854 
L 50.367651 121.50362 
L 50.425479 127.098541 
L 50.560211 125.98601 
L 50.829277 107.226506 
L 50.984006 109.064236 
L 51.298341 129.691623 
L 51.37858 129.351552 
L 51.469102 128.182537 
L 51.622709 124.781687 
L 51.854586 128.011641 
L 51.950831 121.927239 
L 52.208267 107.020856 
L 52.267932 116.674104 
L 52.361305 114.271647 
L 52.421088 114.157216 
L 52.675356 122.473575 
L 52.819576 120.720465 
L 52.993595 123.946206 
L 53.088331 121.261805 
L 53.106364 121.396567 
L 53.265414 135.464645 
L 53.421001 127.676295 
L 53.478895 127.956558 
L 53.633625 120.41039 
L 53.7295 122.889453 
L 53.808726 130.119234 
L 53.883499 127.771349 
L 54.057081 121.484122 
L 54.114941 122.514955 
L 54.1729 128.171082 
L 54.271209 128.122879 
L 54.346782 128.071879 
L 54.404831 127.530411 
L 54.538661 122.544257 
L 54.58431 122.724031 
L 54.693223 124.063135 
L 54.791156 121.929937 
L 54.828588 122.823656 
L 54.887844 125.063892 
L 55.071474 121.007629 
L 55.25253 130.195953 
L 55.396049 123.628204 
L 55.464764 124.207559 
L 55.734005 116.26059 
L 55.849685 104.246455 
L 55.966272 104.974925 
L 56.311933 115.381976 
L 56.409002 124.093734 
L 56.486408 119.5281 
L 56.64028 140.885798 
L 56.736151 139.045383 
L 56.967152 122.346777 
L 57.04475 121.036038 
L 57.121705 116.507913 
L 57.218219 117.549844 
L 57.315844 120.196995 
L 57.52604 115.986686 
L 57.701414 124.909502 
L 57.892122 129.060377 
L 57.930375 126.891429 
L 57.9958 128.225192 
L 58.084076 129.857233 
L 58.238708 117.083865 
L 58.349474 121.73072 
L 58.393899 121.467389 
L 58.81177 113.084851 
L 59.068213 118.135312 
L 59.12662 117.735856 
L 59.280134 121.359926 
L 59.435387 116.685145 
L 59.6092 125.192239 
L 59.686002 123.440175 
L 59.878453 122.262896 
L 59.937367 118.668433 
L 60.225573 123.570042 
L 60.341547 122.750543 
L 60.452142 123.264769 
L 60.476359 122.820332 
L 60.650847 129.184416 
L 60.845986 121.945965 
L 60.886093 124.529605 
L 60.963592 128.786924 
L 61.059679 127.104276 
L 61.127852 128.174717 
L 61.208376 125.91705 
L 61.344361 127.156233 
L 61.45114 114.217358 
L 61.52784 115.421916 
L 61.615817 117.196358 
L 61.753482 116.644541 
L 61.88545 123.508287 
L 61.905314 121.807575 
L 61.975266 118.951422 
L 61.99386 119.06674 
L 62.163195 118.258675 
L 62.365417 125.477503 
L 62.476225 122.631662 
L 62.632886 114.989213 
L 62.710176 115.136244 
L 62.863789 117.151751 
L 62.94141 114.917316 
L 63.268379 129.586441 
L 63.346178 130.129953 
L 63.42281 127.772279 
L 63.538278 129.432752 
L 63.674429 122.081464 
L 63.736573 122.560147 
L 63.987646 117.711922 
L 64.083658 108.013532 
L 64.139458 106.868806 
L 64.295606 109.003116 
L 64.409634 117.146189 
L 64.468561 114.507989 
L 64.686378 120.486553 
L 64.721192 115.912732 
L 64.776503 120.513841 
L 65.027332 131.938783 
L 65.124442 130.306332 
L 65.20186 126.079355 
L 65.340204 134.815321 
L 65.43289 132.246982 
L 65.566818 133.301439 
L 65.66425 130.286305 
L 65.682691 122.725897 
L 66.090365 124.567391 
L 66.511313 125.57478 
L 66.960918 120.84207 
L 67.381169 124.13993 
L 67.398198 132.954999 
L 67.493747 129.165985 
L 67.726679 135.554107 
L 68.015294 119.407416 
L 68.036108 122.405957 
L 68.207738 128.874335 
L 68.284995 128.012531 
L 68.557166 119.742226 
L 68.747477 128.437119 
L 68.824941 130.543376 
L 69.083657 122.238906 
L 69.327448 137.392079 
L 69.423286 134.678759 
L 69.481589 129.825997 
L 69.576415 130.079792 
L 69.672591 128.649167 
L 69.885464 132.922109 
L 70.041419 120.520824 
L 70.15574 123.9934 
L 70.272074 131.710067 
L 70.405816 131.196901 
L 70.463469 129.772466 
L 70.719994 134.414179 
L 70.850279 127.363503 
L 70.922633 127.466199 
L 71.11562 133.760388 
L 71.156437 132.101941 
L 71.255016 129.597901 
L 71.385765 123.580514 
L 71.635928 127.496557 
L 71.734251 126.831166 
L 71.887047 117.846728 
L 71.944505 118.934454 
L 72.040669 119.251871 
L 72.117234 117.60643 
L 72.194657 118.123792 
L 72.293074 121.874433 
L 72.444666 133.07126 
L 72.599787 124.409243 
L 72.75419 128.172548 
L 72.908382 137.332427 
L 73.005454 134.442433 
L 73.158952 118.959489 
L 73.313448 131.874463 
L 73.390857 132.006923 
L 73.544696 126.785639 
L 73.678655 126.687034 
L 73.796134 121.671163 
L 73.960741 124.666725 
L 73.96899 125.068584 
L 74.126442 121.479197 
L 74.220321 122.105607 
L 74.308803 121.606357 
L 74.497799 105.355338 
L 74.68884 105.900318 
L 74.881545 110.204523 
L 74.900759 107.043571 
L 74.977188 108.181543 
L 75.382027 128.253972 
L 75.458692 125.634158 
L 75.593172 124.552578 
L 75.714484 119.438164 
L 75.944149 122.769521 
L 76.018014 122.452427 
L 76.251823 112.634069 
L 76.403456 114.55101 
L 76.503862 118.247757 
L 76.808799 110.491755 
L 77.099262 124.438148 
L 77.117585 120.350778 
L 77.232201 115.503239 
L 77.368372 121.135902 
L 77.444602 121.547415 
L 77.598464 123.322947 
L 77.715562 116.075735 
L 78.0232 123.453268 
L 78.080288 122.183451 
L 78.25521 120.739931 
L 78.332914 118.740893 
L 78.446609 121.288105 
L 78.581698 129.970235 
L 78.73342 130.940276 
L 78.87934 124.719171 
L 78.972023 127.753111 
L 79.145522 140.48078 
L 79.263468 140.339991 
L 79.435045 124.943569 
L 79.53175 121.272357 
L 79.689879 131.887202 
L 79.763869 127.497497 
L 79.841359 120.572455 
L 79.919633 120.685885 
L 80.246496 138.398907 
L 80.324145 138.114621 
L 80.555221 126.541629 
L 80.633197 130.095592 
L 80.768109 128.544036 
L 80.960377 118.365519 
L 81.10711 118.975861 
L 81.192977 121.432164 
L 81.268016 120.578085 
L 81.287145 119.196318 
L 81.41166 120.396993 
L 81.561564 115.880763 
L 81.674927 123.622424 
L 81.832527 123.320626 
L 81.931933 119.241764 
L 82.118264 131.974487 
L 82.156784 135.688339 
L 82.312693 137.809143 
L 82.358032 142.424919 
L 82.389268 139.94332 
L 82.563452 133.39455 
L 82.705684 142.159194 
L 82.814296 138.323093 
L 82.87234 131.942083 
L 83.017552 132.802247 
L 83.066231 135.537478 
L 83.180262 134.802739 
L 83.199296 132.080812 
L 83.324737 133.011944 
L 83.509628 139.254766 
L 83.585682 139.631056 
L 83.683086 144.957543 
L 83.914211 134.402203 
L 83.990697 138.225241 
L 84.227032 121.987218 
L 84.399473 117.677834 
L 84.553184 109.747798 
L 84.707583 108.991002 
L 84.784332 106.076856 
L 85.036366 120.684 
L 85.113764 117.163232 
L 85.288956 125.509055 
L 85.443372 128.232216 
L 85.519477 132.575544 
L 85.675688 127.90239 
L 85.692101 129.02185 
L 85.983456 122.489677 
L 86.060789 122.966521 
L 86.254029 129.642509 
L 86.390981 121.955212 
L 86.583371 125.357897 
L 86.798086 135.199581 
L 86.929098 128.339412 
L 87.006935 122.969815 
L 87.164782 123.66784 
L 87.589038 111.697586 
L 87.646103 113.990554 
L 88.128616 134.310244 
L 88.210362 134.155099 
L 88.283007 133.317754 
L 88.379485 129.321329 
L 88.532702 128.816273 
L 88.693531 124.046456 
L 88.771461 129.350147 
L 88.850597 120.39643 
L 89.001526 116.732788 
L 89.152463 127.548399 
L 89.402776 119.360255 
L 89.575575 109.229701 
L 89.729989 117.261701 
L 89.922751 112.481982 
L 90.03924 117.845663 
L 90.119475 117.112364 
L 90.339111 124.189384 
L 90.521901 110.728177 
L 90.603433 113.495142 
L 90.675841 113.090372 
L 90.752647 108.717027 
L 90.830237 111.658108 
L 91.005917 109.574428 
L 91.100931 112.345544 
L 91.255894 124.140524 
L 91.563893 133.334556 
L 91.640055 133.331774 
L 91.755824 135.650589 
L 91.813281 139.432911 
L 91.891715 137.71974 
L 92.123066 130.780031 
L 92.210472 130.055831 
L 92.39394 123.3701 
L 92.516786 123.472395 
L 92.667418 116.627139 
L 93.103986 125.570825 
L 93.165704 127.536985 
L 93.244204 121.452326 
L 93.336113 124.944114 
L 93.407818 124.347674 
L 93.419227 123.544971 
L 93.461855 123.61781 
L 93.592951 123.23906 
L 93.636679 126.559116 
L 93.804802 121.218789 
L 93.862293 121.356063 
L 94.01687 119.935358 
L 94.076858 120.872734 
L 94.11646 112.282108 
L 94.178093 117.168628 
L 94.270651 117.712314 
L 94.426417 108.689517 
L 94.578722 114.084005 
L 94.656762 111.91374 
L 94.675525 113.567208 
L 94.831319 118.751914 
L 94.913839 123.105034 
L 94.984192 115.21927 
L 95.06051 115.513105 
L 95.222615 128.573666 
L 95.293019 128.848038 
L 95.381447 123.474122 
L 95.466084 123.526252 
L 95.542134 121.361521 
L 95.620918 121.876532 
L 95.69575 121.674399 
L 95.85271 125.714729 
L 96.100294 111.536784 
L 96.178397 112.556616 
L 96.254655 113.851635 
L 96.41084 109.095499 
L 96.582405 113.206643 
L 96.737081 112.330765 
L 96.968362 122.946287 
L 97.045091 117.430147 
L 97.141595 119.162068 
L 97.296609 124.964231 
L 97.374299 126.45656 
L 97.4504 123.465448 
L 97.607369 127.984517 
L 97.778364 116.881347 
L 97.855428 121.664019 
L 98.009169 110.890305 
L 98.086621 111.845247 
L 98.173186 107.690547 
L 98.319396 114.296848 
L 98.397329 114.022748 
L 98.568426 121.918665 
L 98.649008 118.013965 
L 98.818726 129.867762 
L 98.878012 119.737515 
L 98.962723 120.709337 
L 99.127803 113.026201 
L 99.284267 113.892698 
L 99.380116 112.266873 
L 99.437233 116.360758 
L 99.514982 114.957687 
L 99.611964 109.674117 
L 99.767025 121.658799 
L 99.842346 119.796523 
L 99.920885 120.483821 
L 100.010033 119.065211 
L 100.016352 123.431845 
L 100.075042 122.246163 
L 100.234455 121.260321 
L 100.330802 124.31939 
L 100.480925 126.990597 
L 100.558689 124.98569 
L 100.712674 128.663767 
L 100.906935 121.80273 
L 101.042004 124.387043 
L 101.15783 123.067459 
L 101.195766 125.084728 
L 101.272576 123.636454 
L 101.350215 120.323541 
L 101.428059 120.836645 
L 101.604543 127.383032 
L 101.684277 127.358806 
L 101.763732 125.947151 
L 101.7789 121.166028 
L 101.83605 121.717995 
L 102.030603 119.579875 
L 102.241498 125.983486 
L 102.31856 128.035738 
L 102.337967 121.026549 
L 102.530507 119.594328 
L 102.570881 121.94904 
L 102.647721 119.935906 
L 102.667439 121.456713 
L 102.726227 125.183952 
L 103.015326 114.418973 
L 103.090861 116.145 
L 103.188512 124.320411 
L 103.285443 123.426628 
L 103.343624 120.755669 
L 103.361089 123.031599 
L 103.439062 127.334214 
L 103.61295 126.182519 
L 103.631713 125.152104 
L 103.746645 126.544799 
L 103.823301 124.28734 
L 103.901254 125.093471 
L 103.978215 116.649071 
L 104.09485 119.687198 
L 104.172019 119.423813 
L 104.269407 115.349185 
L 104.364401 114.177904 
L 104.518608 122.278497 
L 104.591975 122.842205 
L 104.616364 120.831639 
L 104.731005 121.729122 
L 105.019483 130.701499 
L 105.135396 129.386524 
L 105.266504 130.046117 
L 105.549285 122.370547 
L 105.558692 123.124301 
L 105.693998 125.303735 
L 105.772571 121.563878 
L 105.906585 123.863371 
L 105.928992 127.83444 
L 105.983777 122.796324 
L 106.06092 122.58105 
L 106.28088 125.377678 
L 106.302122 127.980326 
L 106.374172 124.990815 
L 106.705566 111.918381 
L 106.777216 116.124096 
L 106.854714 114.161356 
L 106.968641 113.380752 
L 107.161105 107.886463 
L 107.199869 106.064929 
L 107.257386 107.911015 
L 107.357531 109.29305 
L 107.492118 115.708666 
L 107.586378 109.462548 
L 107.645051 113.42449 
L 107.800953 112.299755 
L 107.837941 116.989668 
L 107.971222 111.073128 
L 108.048376 112.506988 
L 108.164226 111.72779 
L 108.245757 112.188146 
L 108.607437 117.860218 
L 108.651227 114.941278 
L 108.784293 123.887157 
L 108.939757 121.143374 
L 109.131086 110.350137 
L 109.325654 114.632996 
L 109.440172 119.283607 
L 109.593889 124.050572 
L 109.844639 134.535848 
L 109.903953 137.127104 
L 109.979655 131.784673 
L 110.07567 131.961343 
L 110.133666 131.843962 
L 110.599203 116.923893 
L 110.692179 115.547988 
L 110.783757 122.378171 
L 110.847945 122.008319 
L 110.923736 119.204443 
L 111.00194 122.403053 
L 111.212746 117.619661 
L 111.251884 122.404574 
L 111.328552 121.311476 
L 111.42548 119.172162 
L 111.502174 124.913907 
L 111.657471 120.665123 
L 111.73691 122.061626 
L 111.831242 118.717706 
L 111.928129 122.150748 
L 112.043426 127.786036 
L 112.1234 128.614127 
L 112.207944 128.535791 
L 112.275807 125.713351 
L 112.49122 130.354485 
L 112.526006 130.094958 
L 112.782987 121.240718 
L 112.833953 122.696088 
L 113.162205 133.520388 
L 113.316158 127.879748 
L 113.702574 125.94068 
L 113.782564 114.275378 
L 113.876666 114.810905 
L 113.953177 112.992207 
L 114.040586 113.362939 
L 114.156865 112.401545 
L 114.262483 116.684291 
L 114.435258 111.56322 
L 114.512526 112.484128 
L 114.590344 117.766839 
L 114.743897 111.621896 
L 115.303237 130.458141 
L 115.380136 123.490926 
L 115.569658 129.027512 
L 115.629381 123.968512 
L 115.707294 125.299485 
L 115.784248 124.209437 
L 115.861306 125.403802 
L 115.942285 124.8217 
L 116.095447 115.160671 
L 116.190102 120.486125 
L 116.34331 115.772274 
L 116.426352 122.05853 
L 116.498853 119.288777 
L 116.575089 118.585944 
L 116.737225 110.389902 
L 116.911374 115.221025 
L 117.02391 113.004574 
L 117.138834 120.461876 
L 117.212669 120.268768 
L 117.29165 121.654691 
L 117.445873 129.700214 
L 117.543858 131.194781 
L 117.62111 130.995558 
L 117.773566 127.59149 
L 117.927728 122.030822 
L 118.011748 121.356674 
L 118.100916 119.165016 
L 118.18408 121.799729 
L 118.375536 116.339985 
L 118.722493 129.201393 
L 118.991028 121.724289 
L 119.060672 122.224048 
L 119.126541 125.805695 
L 119.357142 124.783616 
L 119.395817 125.546688 
L 119.495326 124.192137 
L 119.530239 118.897801 
L 119.60945 119.385029 
L 119.782585 124.641371 
L 119.867276 124.133537 
L 120.014054 120.274725 
L 120.090746 120.230555 
L 120.265082 128.484792 
L 120.378975 130.586475 
L 120.727926 118.614138 
L 120.847107 119.363119 
L 120.88238 120.352679 
L 120.979872 110.931886 
L 121.114294 110.599971 
L 121.268026 118.700642 
L 121.346902 120.10574 
L 121.518518 131.922666 
L 121.672532 129.084563 
L 121.752353 132.367069 
L 121.881551 127.967523 
L 121.928369 129.513424 
L 122.001964 128.788367 
L 122.077966 125.49054 
L 122.15541 126.866051 
L 122.347729 120.364509 
L 122.424752 126.176424 
L 122.541385 120.668692 
L 122.599284 123.8955 
L 122.656799 134.383433 
L 122.715343 128.518599 
L 122.791487 126.680691 
L 122.869197 131.522991 
L 122.966863 126.896843 
L 123.119226 134.931923 
L 123.216273 128.161973 
L 123.370131 138.925689 
L 123.389285 136.634519 
L 123.511732 127.657064 
L 123.620919 131.200321 
L 123.833289 121.669796 
L 123.947896 122.587348 
L 123.986378 128.561511 
L 124.141346 116.547545 
L 124.313558 120.132417 
L 124.410123 116.477627 
L 124.487242 116.609038 
L 124.720663 126.66556 
L 124.797524 126.099166 
L 124.952412 130.66366 
L 125.031248 130.966981 
L 125.144814 130.601735 
L 125.182921 134.91595 
L 125.781127 119.163435 
L 125.821728 122.985632 
L 125.915712 121.507006 
L 125.993045 114.483509 
L 126.069888 119.092214 
L 126.225841 120.097783 
L 126.298673 117.175724 
L 126.31348 117.293165 
L 126.487847 123.712543 
L 126.647529 113.426074 
L 126.78218 122.086619 
L 126.896747 119.475236 
L 126.954907 119.754786 
L 127.167181 125.35997 
L 127.283007 122.030808 
L 127.351978 126.183701 
L 127.437401 125.880109 
L 127.515457 121.949649 
L 127.790128 129.894368 
L 127.827279 127.177219 
L 127.901761 126.942589 
L 127.978397 128.258582 
L 128.075017 124.170536 
L 128.256678 130.580133 
L 128.484517 129.32327 
L 128.564069 125.300223 
L 128.655087 128.731533 
L 128.771131 127.854714 
L 128.831035 121.343199 
L 128.959871 122.458295 
L 129.022764 121.84822 
L 129.100725 118.155308 
L 129.184736 118.969393 
L 129.255318 116.930352 
L 129.334439 124.921619 
L 129.408644 121.529852 
L 129.625748 124.445043 
L 129.661963 123.581969 
L 129.73899 123.839364 
L 129.815265 126.428103 
L 129.989434 123.373093 
L 130.066034 124.2327 
L 130.123738 121.238651 
L 130.319306 123.243221 
L 130.472916 122.894252 
L 130.562527 123.196555 
L 130.611449 118.492728 
L 130.684175 121.683679 
L 130.763704 123.189232 
L 130.85968 122.608764 
L 131.003076 115.865205 
L 131.11064 113.302466 
L 131.406662 125.927546 
L 131.421233 121.281166 
L 131.497249 127.33896 
L 131.557851 126.545854 
L 131.731042 132.553881 
L 131.812897 136.043883 
L 131.88404 135.587725 
L 131.961042 134.289406 
L 132.037685 127.957694 
L 132.119222 129.729865 
L 132.212848 133.065492 
L 132.674562 122.867693 
L 132.712781 127.978939 
L 132.77068 121.789226 
L 132.928083 122.911589 
L 133.082673 113.422477 
L 133.236679 120.499003 
L 133.487295 110.370857 
L 133.62177 113.04505 
L 133.73821 110.068165 
L 133.87207 121.73524 
L 134.026494 114.805036 
L 134.218685 124.069256 
L 134.319671 124.406393 
L 134.453827 137.628699 
L 134.50697 133.508211 
L 134.66498 122.913296 
L 134.75839 128.513195 
L 134.849995 126.918239 
L 134.912422 127.51227 
L 134.988683 126.99373 
L 135.355369 119.533601 
L 135.509651 130.561635 
L 135.721792 123.459645 
L 135.822664 124.561952 
L 135.875735 123.367534 
L 135.985843 123.91365 
L 136.089704 119.638598 
L 136.107574 123.050155 
L 136.2425 121.591625 
L 136.281624 114.846137 
L 136.358764 116.633671 
L 136.455269 119.254215 
L 136.608743 116.84801 
L 136.668556 120.11218 
L 136.763086 118.864445 
L 136.917827 125.620984 
L 137.05466 124.400819 
L 137.150538 128.368711 
L 137.167891 122.530894 
L 137.247268 123.716025 
L 137.381409 130.040746 
L 137.535473 134.262284 
L 137.631751 130.498126 
L 137.711578 133.402211 
L 137.78579 131.392753 
L 137.95622 139.692565 
L 138.03268 136.362803 
L 138.26397 126.454236 
L 138.342329 129.164453 
L 138.437549 129.091338 
L 138.500737 124.320421 
L 138.573554 126.431377 
L 138.667927 121.526537 
L 138.841156 121.370308 
L 138.917932 122.956708 
L 138.976658 114.862326 
L 139.075545 115.821379 
L 139.227836 110.073518 
L 139.440388 118.22202 
L 139.542259 114.03346 
L 139.974443 127.630842 
L 140.104852 124.483204 
L 140.119488 122.615024 
L 140.3294 131.539696 
L 140.503342 129.712303 
L 140.697219 125.82543 
L 140.773179 125.722332 
L 140.891472 125.808059 
L 141.202164 106.617026 
L 141.295468 107.842129 
L 141.41255 107.849595 
L 141.449702 106.653991 
L 141.526048 112.159266 
L 141.699866 105.826566 
L 141.777318 111.046038 
L 141.873656 107.279109 
L 142.029803 114.691454 
L 142.086499 114.679194 
L 142.182787 112.279245 
L 142.243746 114.868229 
L 142.34266 105.774252 
L 142.355884 105.791575 
L 142.491532 109.159875 
L 142.646345 114.425312 
L 142.723848 118.416452 
L 142.800895 117.740086 
L 142.935731 116.288565 
L 143.053211 112.662181 
L 143.150401 114.276778 
L 143.246485 111.65718 
L 143.296665 113.225456 
L 143.361185 118.562157 
L 143.553306 109.877693 
L 143.612074 110.804441 
L 143.688748 109.243398 
L 143.844429 118.366224 
L 143.919653 117.973873 
L 143.996672 118.415773 
L 144.073447 122.282035 
L 144.169873 120.62207 
L 144.268763 120.671307 
L 144.323976 125.659271 
L 144.40187 123.970636 
L 144.479812 123.162389 
L 144.55766 123.451623 
L 144.632955 118.979275 
L 144.713123 120.240969 
L 144.78886 121.920516 
L 144.883458 117.603744 
L 145.039476 126.524386 
L 145.114523 121.560506 
L 145.288439 121.185416 
L 145.36011 126.709437 
L 145.544651 127.439319 
L 145.777211 119.312367 
L 145.828729 115.134327 
L 145.909443 116.598379 
L 146.003758 120.079477 
L 146.074482 118.80471 
L 146.145112 118.665685 
L 146.233746 119.420631 
L 146.311054 118.150045 
L 146.442538 119.842003 
L 146.551388 123.122791 
L 146.654983 124.429539 
L 146.790345 118.36455 
L 147.18451 126.209981 
L 147.352742 120.578881 
L 147.456847 121.895593 
L 147.534816 124.614532 
L 147.572774 122.077877 
L 147.67132 121.857986 
L 147.764991 124.805508 
L 147.938562 121.983622 
L 147.995785 122.389883 
L 148.13287 122.644291 
L 148.247494 115.59552 
L 148.305994 118.333275 
L 148.324613 121.474856 
L 148.385017 121.023022 
L 148.788665 103.174698 
L 148.851562 102.038645 
L 148.944452 105.639326 
L 149.021297 114.998916 
L 149.156291 115.30492 
L 149.292995 111.46056 
L 149.581224 121.365161 
L 149.657769 122.519206 
L 149.735106 125.886931 
L 149.967306 115.83858 
L 150.26479 121.218787 
L 150.545367 103.038368 
L 150.624017 106.489943 
L 150.799536 110.03547 
L 150.91812 111.455296 
L 151.163906 122.611779 
L 151.277968 128.323329 
L 151.413775 126.158438 
L 151.511283 127.031636 
L 151.575766 131.284468 
L 151.644944 127.097422 
L 151.722364 127.138322 
L 151.987397 140.065382 
L 152.069513 138.890415 
L 152.127387 139.924423 
L 152.282567 132.949911 
L 152.493043 136.731327 
L 152.686545 126.74399 
L 152.9547 119.529634 
L 152.995707 127.375367 
L 153.108626 126.75868 
L 153.168754 122.017525 
L 153.246635 124.789581 
L 153.323127 123.346085 
L 153.437167 118.093048 
L 153.478466 118.851396 
L 153.584994 122.747566 
L 153.643148 121.193341 
L 153.740514 120.943676 
L 153.818781 114.064026 
L 154.029686 122.103245 
L 154.066895 121.552275 
L 154.354784 114.968812 
L 154.43389 115.520007 
L 154.605457 122.643405 
L 154.818548 118.250747 
L 154.992221 125.696176 
L 155.088631 124.697901 
L 155.165323 124.736713 
L 155.273291 127.343988 
L 155.397717 120.078191 
L 155.478636 122.328007 
L 155.58963 118.6257 
L 155.647937 112.75964 
L 155.725092 114.471951 
L 155.899858 108.137252 
L 156.214159 118.761764 
L 156.283555 116.381922 
L 156.340978 122.035123 
L 156.534144 123.281083 
L 156.707103 127.282793 
L 156.803913 125.220105 
L 156.84418 127.018222 
L 156.920698 126.664395 
L 157.021122 128.020173 
L 157.057886 130.424636 
L 157.151433 123.464133 
L 157.30558 131.739685 
L 157.402466 126.632698 
L 157.538852 133.982796 
L 157.787212 121.394423 
L 157.866304 122.532518 
L 157.943041 125.49383 
L 158.101278 120.455093 
L 158.192267 123.60804 
L 158.268668 117.331223 
L 158.460942 115.109321 
L 158.615163 120.311283 
L 158.694203 119.042667 
L 158.749318 119.580642 
L 158.826484 127.981744 
L 158.904357 126.982717 
L 158.980712 125.717391 
L 159.061979 130.929175 
L 159.076543 130.044596 
L 159.153904 125.970457 
L 159.231755 126.750627 
L 159.308165 124.62332 
L 159.482477 128.003097 
L 159.598324 127.105004 
L 159.63617 121.236496 
L 159.694462 125.875993 
L 159.827074 127.821991 
L 159.867519 126.069462 
L 160.021559 129.838334 
L 160.082416 126.316435 
L 160.137425 130.264447 
L 160.195174 128.361359 
L 160.278647 123.132257 
L 160.334828 124.057888 
L 160.424131 124.085846 
L 160.646515 114.136162 
L 160.778507 113.306097 
L 160.818834 117.605018 
L 160.915283 116.674458 
L 161.127229 124.762285 
L 161.203979 122.777333 
L 161.589771 134.264554 
L 161.611651 132.747887 
L 161.781998 128.191534 
L 161.859245 129.86982 
L 161.938677 127.813492 
L 162.016456 130.010029 
L 162.559353 116.413356 
L 162.730837 117.85123 
L 162.924571 114.321592 
L 162.961973 114.720706 
L 163.077849 114.980189 
L 163.195608 115.804163 
L 163.368131 111.709141 
L 163.445544 112.400999 
L 163.599163 108.074831 
L 163.675753 108.534804 
L 163.833796 103.123912 
L 164.004277 107.566697 
L 164.158944 116.108794 
L 164.390525 112.043543 
L 164.563319 114.805497 
L 164.639889 113.998891 
L 164.717755 116.670662 
L 164.795576 115.949715 
L 164.87284 116.015074 
L 165.046851 121.395931 
L 165.10905 118.891025 
L 165.4338 128.815097 
L 165.675141 124.063183 
L 165.757392 124.138931 
L 165.916981 121.613929 
L 166.073424 116.957718 
L 166.153409 119.469725 
L 166.630655 110.029097 
L 166.704218 111.440924 
L 166.865108 109.658172 
L 166.939003 111.597386 
L 167.018995 111.310191 
L 167.128886 110.361001 
L 167.267262 119.45106 
L 167.438375 118.406834 
L 167.553723 120.053971 
L 167.594269 119.82372 
L 167.73581 115.368458 
L 167.814739 115.515533 
L 167.92406 119.767754 
L 168.059004 115.03085 
L 168.318085 110.965201 
L 168.541969 121.7546 
L 168.793233 126.086767 
L 168.947178 125.634677 
L 169.102036 129.65047 
L 169.506191 116.607216 
L 169.698784 121.086443 
L 169.892005 117.70989 
L 169.970434 119.909376 
L 170.065422 119.431936 
L 170.123805 125.746098 
L 170.471538 114.340521 
L 170.701017 123.696056 
L 170.859438 129.324052 
L 170.94021 125.825954 
L 171.02832 127.503509 
L 171.317278 137.472959 
L 171.491469 131.202575 
L 171.725742 129.818509 
L 171.819373 134.495115 
L 172.049601 129.279415 
L 172.21065 133.289773 
L 172.281826 132.702041 
L 172.412764 133.522955 
L 172.551186 131.395456 
L 172.69407 129.551234 
L 172.782855 123.631876 
L 172.859506 123.311508 
L 172.956067 123.682366 
L 173.072004 122.575472 
L 173.091544 123.081098 
L 173.322894 115.774811 
L 173.419963 117.214533 
L 173.483886 116.03184 
L 173.657211 124.295639 
L 173.733514 126.238998 
L 173.830363 121.110608 
L 173.927738 122.997382 
L 173.984172 121.650327 
L 174.279554 133.759954 
L 174.375409 132.045222 
L 174.472246 132.274978 
L 174.550521 128.961029 
L 174.606569 132.862892 
L 174.685299 129.259482 
L 174.785217 135.024479 
L 174.838224 133.563598 
L 174.936155 136.406949 
L 175.145798 129.960385 
L 175.397214 120.672515 
L 175.474207 121.425515 
L 175.802737 110.494799 
L 175.879851 111.121593 
L 176.123445 117.163692 
L 176.205991 117.564444 
L 176.35538 121.593821 
L 176.528664 127.95119 
L 176.663423 131.239504 
L 176.818992 123.62758 
L 177.029667 129.791509 
L 177.164713 126.830347 
L 177.241543 123.821298 
L 177.375926 123.294128 
L 177.433633 116.969968 
L 177.51112 118.941955 
L 177.706079 122.351662 
L 177.800932 120.36846 
L 177.878207 124.354446 
L 177.954739 122.826445 
L 178.031516 122.656748 
L 178.108937 120.948549 
L 178.188955 126.83136 
L 178.302498 126.456092 
L 178.41853 119.336603 
L 178.514116 119.788086 
L 178.668849 109.326404 
L 178.916878 115.231954 
L 179.039626 111.381743 
L 179.13282 112.136152 
L 179.15499 117.461431 
L 179.285061 118.990751 
L 179.341807 118.672744 
L 179.480605 134.129723 
L 179.537245 130.239605 
L 179.69053 127.361771 
L 179.786633 132.510645 
L 180.061729 123.66706 
L 180.096221 125.39522 
L 180.250539 119.219488 
L 180.406675 121.195687 
L 180.423624 119.276418 
L 180.714925 115.083185 
L 180.793988 115.642987 
L 180.904967 124.032749 
L 180.985533 126.598438 
L 181.215063 121.553519 
L 181.351759 119.870981 
L 181.387683 121.569523 
L 181.445878 119.919328 
L 181.77351 107.726526 
L 182.089208 120.893952 
L 182.177816 117.840201 
L 182.409731 123.65202 
L 182.48673 120.892594 
L 182.586447 123.492466 
L 182.660961 117.516218 
L 182.721706 118.433498 
L 182.894072 114.352902 
L 182.970183 116.473272 
L 183.201289 113.095629 
L 183.241409 109.090758 
L 183.415297 113.459535 
L 183.45286 115.307587 
L 183.529128 113.483045 
L 184.003581 121.522374 
L 184.060524 126.922014 
L 184.08827 123.998342 
L 184.174225 125.254681 
L 184.301584 123.650856 
L 184.397642 126.269601 
L 184.475849 125.760944 
L 184.745364 122.145241 
L 184.805396 118.457314 
L 184.899993 119.277123 
L 184.976921 115.931104 
L 185.036301 116.32262 
L 185.227637 109.201223 
L 185.286284 104.517323 
L 185.362298 105.927068 
L 185.439843 106.620191 
L 185.672256 113.850535 
L 185.69649 113.692862 
L 185.875795 113.285459 
L 186.079807 120.416654 
L 186.363942 122.684354 
L 186.40255 121.53305 
L 187.116415 139.985832 
L 187.212799 139.395591 
L 187.770713 124.810744 
L 188.064255 114.879661 
L 188.140145 119.293786 
L 188.252482 117.205302 
L 188.332154 119.140719 
L 188.410424 114.828583 
L 188.465891 117.083813 
L 188.635328 117.446607 
L 188.641793 116.977976 
L 188.872102 125.520429 
L 188.976274 121.259429 
L 189.048787 121.739092 
L 189.142003 123.19387 
L 189.43327 139.177256 
L 189.510595 137.242262 
L 189.703374 130.71165 
L 189.783096 130.118694 
L 189.914838 126.717664 
L 190.069121 120.030583 
L 190.223043 114.325635 
L 190.49345 124.584471 
L 190.550502 122.558623 
L 190.743626 127.129481 
L 190.803212 125.963473 
L 190.999564 129.169315 
L 191.03264 131.206287 
L 191.110018 129.851621 
L 191.205829 129.026524 
L 191.341642 131.66322 
L 191.418492 130.405079 
L 191.496238 130.826505 
L 191.572547 129.923917 
L 191.649703 133.529846 
L 191.823565 129.236584 
L 192.057086 121.935862 
L 192.07314 129.338528 
L 192.18912 125.419907 
L 192.248501 128.660267 
L 192.305429 126.103131 
L 192.381924 129.240038 
L 192.464744 126.405023 
L 192.536909 127.117225 
L 192.692337 121.565823 
L 192.86793 124.481454 
L 193.173242 111.699408 
L 193.248777 112.089953 
L 193.569216 120.380746 
L 193.724346 119.640242 
L 193.814654 123.642828 
L 193.895283 124.752206 
L 194.049683 131.490743 
L 194.176005 127.584398 
L 194.222913 130.096712 
L 194.378036 124.99818 
L 194.476363 125.554338 
L 194.74496 114.750163 
L 194.765967 116.22456 
L 194.998653 109.381322 
L 195.073852 109.917171 
L 195.468771 103.765024 
L 195.494729 106.203457 
L 195.576078 104.020183 
L 195.836931 115.663975 
L 196.046762 110.044349 
L 196.123252 116.520371 
L 196.282167 113.156667 
L 196.374048 114.571181 
L 196.435123 107.720238 
L 196.527838 108.860536 
L 196.605809 105.77671 
L 197.24278 133.008948 
L 197.318255 132.674648 
L 197.395064 131.831639 
L 197.627186 124.354616 
L 198.030677 114.248982 
L 198.113172 115.125267 
L 198.271511 119.886948 
L 198.518793 113.978713 
L 198.593508 116.154856 
L 198.747698 110.517366 
L 198.903839 112.304553 
L 198.980863 106.389013 
L 199.152711 109.368475 
L 199.230773 109.252509 
L 199.308062 107.748994 
L 199.384993 107.759117 
L 199.544132 119.156699 
L 199.62479 118.703831 
L 199.71168 117.20592 
L 199.943206 122.381207 
L 200.09749 129.59512 
L 200.116654 132.496131 
L 200.178929 127.291413 
L 200.271651 124.713598 
L 200.375013 125.270889 
L 200.424885 125.155246 
L 200.502273 127.416789 
L 200.579374 126.978925 
L 200.660829 126.726361 
L 200.813854 123.825827 
L 200.90898 122.6473 
L 201.061409 125.515741 
L 201.465708 112.656326 
L 201.528411 113.025647 
L 201.717595 107.74346 
L 201.775132 109.740792 
L 201.928318 100.924886 
L 202.092956 109.397777 
L 202.178491 106.391917 
L 202.268625 106.898561 
L 202.339043 107.555897 
L 202.428984 111.965574 
L 202.525601 108.738444 
L 202.744195 116.776016 
L 202.892883 113.935522 
L 203.008959 115.812442 
L 203.066606 118.685252 
L 203.147454 116.088014 
L 203.416339 122.416404 
L 203.530035 118.966935 
L 203.838501 114.161705 
L 203.939282 120.823243 
L 204.090909 116.064389 
L 204.2663 120.631526 
L 204.327531 120.220353 
L 204.505014 119.042076 
L 204.571961 119.769017 
L 204.761096 118.510994 
L 204.819031 121.19583 
L 205.033985 111.522654 
L 205.130084 117.944149 
L 205.204672 116.328784 
L 205.281829 117.026265 
L 205.358981 116.990605 
L 205.457495 115.274394 
L 205.590928 108.894753 
L 205.706257 110.118444 
L 205.763441 109.798596 
L 205.899048 109.797119 
L 205.977303 105.805128 
L 206.09238 113.161123 
L 206.264961 116.83942 
L 206.333523 127.55325 
L 206.419734 125.531306 
L 206.556462 130.152436 
L 206.650845 135.740591 
L 206.970958 130.829006 
L 207.173107 129.598808 
L 207.217741 130.460296 
L 207.501658 115.487273 
L 207.540036 121.650099 
L 207.617717 119.536811 
L 207.695652 120.333475 
L 207.915429 113.935993 
L 208.067635 116.957157 
L 208.153979 116.739655 
L 208.238761 124.296421 
L 208.31977 123.820214 
L 208.395076 124.984838 
L 208.470618 123.399578 
L 208.54783 125.189773 
L 208.662798 121.313427 
L 208.778338 128.009557 
L 208.855886 125.438565 
L 208.91421 127.562634 
L 208.951891 124.316127 
L 209.088836 124.430807 
L 209.203292 117.918866 
L 209.356571 119.632602 
L 209.43377 120.341151 
L 209.588428 115.942703 
L 209.666277 117.289092 
L 209.820204 117.467431 
L 209.877339 116.744152 
L 209.943454 117.370715 
L 209.993676 122.13266 
L 210.273542 117.646477 
L 210.305979 119.808178 
L 210.402823 119.635309 
L 210.517595 120.078756 
L 210.614526 121.717233 
L 210.711627 122.442332 
L 210.807184 116.869297 
L 210.867064 123.784333 
L 210.942499 123.301473 
L 211.348812 117.442124 
L 211.425547 119.176742 
L 211.522592 117.204489 
L 211.599544 123.489939 
L 211.733191 110.64777 
L 211.849573 107.06345 
L 211.909552 109.583894 
L 212.000797 108.873092 
L 212.061667 110.437538 
L 212.215456 101.625233 
L 212.292813 108.684664 
L 212.369877 104.520991 
L 212.620637 115.594749 
L 212.720765 113.572311 
L 212.778904 113.989593 
L 212.939153 112.688869 
L 213.101785 116.820679 
L 213.257017 110.838001 
L 213.468924 103.351207 
L 213.661993 116.029507 
L 213.759221 116.004563 
L 213.815865 119.282045 
L 214.06667 113.357058 
L 214.127471 116.298798 
L 214.298624 112.029994 
L 214.511018 108.767887 
L 214.781203 113.258188 
L 214.878814 115.936574 
L 215.165597 109.707006 
L 215.243637 110.413333 
L 215.339423 110.349337 
L 215.437506 111.005317 
L 215.49336 108.344631 
L 215.569865 109.849867 
L 215.80266 117.811108 
L 215.859876 116.060914 
L 215.955513 112.520182 
L 216.110562 115.241998 
L 216.208862 109.744934 
L 216.285614 114.237116 
L 216.360665 114.074377 
L 216.553416 109.209488 
L 216.862167 121.139949 
L 217.057236 125.717882 
L 217.092269 123.759546 
L 217.169209 124.025084 
L 217.265627 126.086198 
L 217.327404 131.527293 
L 217.470742 131.774263 
L 217.672576 118.171686 
L 217.731662 119.939465 
L 217.80881 116.570078 
L 217.885811 119.630974 
L 218.117114 107.195124 
L 218.196813 107.615788 
L 218.349524 113.522183 
L 218.433721 111.035773 
L 218.542838 110.096854 
L 218.832402 119.502977 
L 218.909473 120.082033 
L 218.98732 115.095646 
L 219.236278 124.362389 
L 219.313705 123.328824 
L 219.390447 126.920246 
L 219.628141 117.25537 
L 219.719662 117.514893 
L 219.822089 119.136177 
L 219.890464 117.608344 
L 219.948628 123.827166 
L 220.10355 123.536225 
L 220.121579 126.815691 
L 220.199181 120.801232 
L 220.295919 123.26375 
L 220.412121 121.933559 
L 220.507014 125.138968 
L 220.626701 124.915981 
L 221.091259 111.999251 
L 221.383078 119.87725 
L 221.396933 117.115756 
L 221.473474 117.325394 
L 221.627902 119.70013 
L 221.974389 132.953079 
L 222.053707 128.159421 
L 222.114865 131.113192 
L 222.246841 133.954557 
L 222.32372 131.517299 
L 222.342771 131.891508 
L 222.418982 132.480396 
L 222.631248 124.082356 
L 222.650665 118.936972 
L 222.746234 120.475432 
L 222.824209 124.207046 
L 222.978487 122.47834 
L 223.154937 125.076399 
L 223.208449 119.624528 
L 223.385584 127.248306 
L 223.479121 128.350351 
L 223.632636 117.683194 
L 223.698843 117.441478 
L 223.944178 111.022307 
L 224.095707 120.726989 
L 224.211099 117.501965 
L 224.280066 117.586645 
L 224.423514 128.034868 
L 224.500868 127.44441 
L 224.732835 132.389179 
L 224.885321 122.514177 
L 225.058707 126.290936 
L 225.213475 120.68587 
L 225.29086 121.923517 
L 225.36727 120.878098 
L 225.467073 121.423064 
L 225.619404 121.603518 
L 225.656757 123.830631 
L 225.697085 123.30987 
L 225.773013 118.728026 
L 225.870303 119.951483 
L 226.120117 114.685633 
L 226.178349 116.777926 
L 226.330542 110.286145 
L 226.621766 115.614452 
L 226.658539 112.555775 
L 226.890222 123.273755 
L 226.967388 120.430105 
L 227.063974 125.708762 
L 227.208033 121.430588 
L 227.274924 122.416797 
L 227.438186 121.068586 
L 227.602572 116.830144 
L 227.73734 115.987036 
L 227.912373 121.580309 
L 227.991879 121.941434 
L 228.329996 133.529421 
L 228.432836 132.087951 
L 228.644322 123.686138 
L 228.798826 130.681009 
L 228.952938 122.173462 
L 229.04918 120.023119 
L 229.184003 119.615047 
L 229.247658 120.516872 
L 229.435594 126.14605 
L 229.826168 118.562608 
L 229.917422 118.933227 
L 229.994237 120.323405 
L 230.072324 115.722216 
L 230.194234 117.05901 
L 230.244795 116.492728 
L 230.324266 115.765387 
L 230.476842 118.103376 
L 230.610517 115.374135 
L 230.727251 122.334423 
L 230.939903 119.630529 
L 231.035343 119.470955 
L 231.112909 116.322981 
L 231.209183 117.578277 
L 231.269584 117.01921 
L 231.498187 114.96191 
L 231.53683 110.872491 
L 231.615709 113.542986 
L 231.657624 112.47327 
L 231.749655 112.537145 
L 231.827828 111.812989 
L 232.313963 132.403838 
L 232.409062 130.759227 
L 232.466485 133.55099 
L 232.618889 134.123063 
L 232.708787 126.955593 
L 233.026193 110.982892 
L 233.113822 112.012949 
L 233.185826 114.588428 
L 233.437831 108.314243 
L 233.496022 111.175684 
L 233.599908 107.101397 
L 233.669148 108.254629 
L 233.74585 106.322905 
L 233.821902 107.431142 
L 234.034039 100.103789 
L 234.053079 102.977562 
L 234.149693 105.43387 
L 234.226843 113.906412 
L 234.286325 111.832472 
L 234.381435 113.869258 
L 234.542232 120.200958 
L 234.619923 116.364479 
L 234.690216 117.929461 
L 234.854233 121.676048 
L 235.049055 117.386824 
L 235.155746 120.127312 
L 235.193567 124.316147 
L 235.348934 120.899669 
L 235.522125 122.991398 
L 235.580117 123.176016 
L 235.599787 124.677052 
L 235.65875 121.137292 
L 235.735827 126.254138 
L 235.815223 124.597819 
L 235.888877 123.768842 
L 236.294584 109.924352 
L 236.374593 110.942462 
L 236.451012 113.693776 
L 236.534253 108.107958 
L 236.604868 111.155491 
L 236.759594 108.307931 
L 236.845783 104.607676 
L 236.932496 113.601521 
L 237.08846 123.025779 
L 237.165361 124.562557 
L 237.241791 116.360175 
L 237.363348 119.097852 
L 237.416371 113.877217 
L 237.512342 115.356753 
L 237.74357 129.67009 
L 237.849046 129.19232 
L 237.959287 123.830509 
L 238.194526 133.455976 
L 238.36645 132.98001 
L 238.598486 123.834067 
L 238.675564 125.270252 
L 238.848353 130.32275 
L 239.006413 127.994687 
L 239.156616 119.928291 
L 239.254484 122.147636 
L 239.311149 120.023439 
L 239.409428 121.401492 
L 239.485337 120.572925 
L 239.72103 126.225243 
L 239.793819 123.942192 
L 239.870199 129.416976 
L 240.218804 120.039508 
L 240.343121 118.87021 
L 240.666606 107.98149 
L 240.778198 108.025339 
L 241.240747 121.119455 
L 241.299528 120.223437 
L 241.485762 124.120817 
L 241.664958 129.853307 
L 241.705878 129.292764 
L 241.86647 123.821595 
L 242.113867 128.160638 
L 242.341295 119.812681 
L 242.419823 122.063804 
L 242.538105 122.164715 
L 242.59779 127.050482 
L 242.681081 125.233809 
L 242.784419 122.989187 
L 242.822953 118.424012 
L 242.902191 118.43233 
L 242.995086 120.58524 
L 243.053407 119.503029 
L 243.147855 119.64159 
L 243.399431 107.865269 
L 243.609997 106.215398 
L 243.631589 112.079193 
L 243.70838 111.139951 
L 243.861005 117.213799 
L 243.956934 117.121829 
L 244.111954 120.261735 
L 244.325179 126.615988 
L 244.420354 127.572531 
L 244.497406 126.984242 
L 244.593591 121.289495 
L 244.652931 121.463822 
L 244.883106 123.513051 
L 245.056883 126.175805 
L 245.213578 123.946606 
L 245.404425 125.670008 
L 245.503417 122.593568 
L 245.539081 122.935545 
L 245.65505 122.116181 
L 245.774444 119.12625 
L 245.852699 119.943441 
L 245.986963 124.509221 
L 246.006343 119.562028 
L 246.070848 122.566426 
L 246.105167 122.708188 
L 246.256284 125.492397 
L 246.411255 122.056007 
L 246.603661 128.362835 
L 246.738567 123.696427 
L 246.815354 122.448284 
L 246.976911 124.546221 
L 247.047822 124.320442 
L 247.219959 127.759735 
L 247.281059 127.427739 
L 247.376536 119.8914 
L 247.451008 121.916489 
L 247.684967 116.448653 
L 247.799604 106.801122 
L 247.915145 110.354162 
L 248.038589 107.71409 
L 248.328396 123.873986 
L 248.578917 130.135254 
L 248.716507 120.136083 
L 248.798507 119.203904 
L 249.040959 109.253071 
L 249.14635 105.561237 
L 249.195601 106.621181 
L 249.298785 108.253717 
L 249.602581 118.709674 
L 249.910826 109.364681 
L 250.084235 111.02006 
L 250.161736 110.718515 
L 250.23876 115.221795 
L 250.316364 114.987681 
L 250.392957 109.798824 
L 250.703724 129.380189 
L 250.720495 132.30623 
L 250.847972 131.434288 
L 250.876604 133.468264 
L 251.170905 121.543295 
L 251.184356 123.925048 
L 251.206113 127.936051 
L 251.35987 128.100411 
L 251.436269 127.117801 
L 251.70835 115.220537 
L 251.763963 116.107648 
L 252.032861 129.308948 
L 252.283806 120.702227 
L 252.381841 118.993609 
L 252.553498 122.362003 
L 252.649897 121.615517 
L 252.785378 117.271248 
L 253.035064 125.990219 
L 253.331385 130.923126 
L 253.344074 130.86796 
L 253.422395 126.007069 
L 253.500308 129.268662 
L 253.517295 122.417706 
L 253.575664 127.327271 
L 253.7492 117.911845 
L 253.826822 118.022411 
L 253.922086 118.593079 
L 254.056945 127.74491 
L 254.154377 124.761828 
L 254.307117 125.920959 
L 254.352655 131.275669 
L 254.385295 126.370205 
L 254.481331 129.360007 
L 254.542248 136.010506 
L 254.712775 129.635435 
L 254.865964 123.422531 
L 254.943508 124.53456 
L 255.021561 129.700677 
L 255.117515 122.645954 
L 255.176586 123.280576 
L 255.251352 123.04944 
L 255.375263 119.786145 
L 255.518605 127.60124 
L 255.525759 123.30165 
L 255.583265 122.830893 
L 255.663491 123.264174 
L 255.737616 122.567731 
L 255.816521 117.0055 
L 255.893428 122.273433 
L 255.971331 120.97063 
L 256.095953 118.340579 
L 256.131334 122.625625 
L 256.205362 119.845038 
L 256.299037 120.590557 
L 256.474477 122.996477 
L 256.531906 123.080794 
L 256.60937 126.249088 
L 256.705129 124.901798 
L 256.916869 127.781099 
L 257.03261 120.353658 
L 257.11535 120.486935 
L 257.266801 115.437127 
L 257.322637 116.853803 
L 257.399439 116.359047 
L 257.649772 120.190186 
L 258.056431 134.00329 
L 258.132859 136.836565 
L 258.362792 125.809815 
L 258.459179 128.8376 
L 258.670918 120.845136 
L 258.790829 118.706621 
L 258.9635 112.0458 
L 259.316409 120.812624 
L 259.428689 121.226169 
L 259.522391 118.922154 
L 259.657346 125.665628 
L 259.715067 124.85114 
L 259.869409 132.856297 
L 260.080983 127.085136 
L 260.119312 128.751781 
L 260.201825 125.240182 
L 260.287067 126.414008 
L 260.353303 121.862771 
L 260.447615 122.296422 
L 260.678563 120.660957 
L 260.92909 128.028954 
L 261.026318 126.260551 
L 261.085205 123.06122 
L 261.161523 128.374585 
L 261.237941 127.797231 
L 261.31539 131.248992 
L 261.725944 116.172153 
L 261.784691 116.471179 
L 261.953969 121.511865 
L 262.157418 118.321451 
L 262.349742 123.367831 
L 262.502458 121.078656 
L 262.601013 123.961809 
L 262.676127 120.713433 
L 262.838773 121.797586 
L 262.91415 117.666897 
L 263.045957 119.600659 
L 263.138571 111.663 
L 263.487348 121.825849 
L 263.545751 116.046959 
L 263.70171 127.144167 
L 263.834007 119.728024 
L 263.98823 128.045773 
L 264.258387 116.637015 
L 264.338949 117.815014 
L 264.446361 109.677607 
L 264.49292 110.851542 
L 264.586323 114.293554 
L 264.665383 110.158842 
L 264.992018 121.784188 
L 265.164569 118.081863 
L 265.230848 122.272534 
L 265.381832 116.185571 
L 265.493609 117.057017 
L 265.615679 107.984612 
L 265.730195 107.281932 
L 265.78259 104.251955 
L 265.858986 106.759387 
L 265.935785 106.100752 
L 266.013293 105.656256 
L 266.341421 119.68155 
L 266.746549 126.070993 
L 266.76422 127.318001 
L 266.823175 124.335868 
L 266.976807 116.163153 
L 267.053739 116.431209 
L 267.150838 116.139941 
L 267.208424 116.842126 
L 267.458712 125.972694 
L 267.612039 122.737829 
L 267.767102 131.30428 
L 268.094106 122.756105 
L 268.352261 113.637003 
L 268.459667 114.431837 
L 268.558245 106.945653 
L 268.729767 111.963947 
L 268.808773 111.084734 
L 268.884093 106.065276 
L 268.966337 109.672634 
L 269.059714 108.530007 
L 269.139243 109.660463 
L 269.294412 118.202449 
L 269.582955 111.937741 
L 269.640358 112.401766 
L 269.79499 115.745359 
L 269.836272 111.273028 
L 269.931446 113.437257 
L 270.014143 113.058438 
L 270.162092 114.250774 
L 270.239149 119.043842 
L 270.394238 120.790828 
L 270.490114 125.466178 
L 270.62512 125.551876 
L 270.70181 131.338074 
L 270.74036 130.285243 
L 270.856528 131.197126 
L 270.878172 127.43662 
L 270.953113 129.259994 
L 271.036153 129.228164 
L 271.203239 125.557828 
L 271.280386 126.470582 
L 271.357426 126.327005 
L 271.43609 125.90286 
L 271.513463 128.932408 
L 271.609615 127.967175 
L 271.667322 128.870504 
L 271.857217 123.370982 
L 271.9977 129.472605 
L 272.376695 120.186965 
L 272.415247 120.425049 
L 272.496503 113.547432 
L 272.569334 115.415927 
L 272.627759 115.475149 
L 272.704339 114.148759 
L 272.804355 109.808208 
L 272.885449 110.365606 
L 272.954467 110.778455 
L 273.09035 110.323011 
L 273.10978 110.927553 
L 273.190977 108.170263 
L 273.591793 118.106098 
L 273.668785 114.962435 
L 274.16944 130.014141 
L 274.267272 124.881601 
L 274.304267 125.762853 
L 274.415092 125.962247 
L 274.542029 128.769526 
L 274.704997 125.69364 
L 274.722286 128.563256 
L 274.787558 126.750907 
L 274.863623 131.163648 
L 274.947437 129.438385 
L 275.015815 132.065995 
L 275.112813 128.007035 
L 275.170932 128.353623 
L 275.285781 126.001257 
L 275.362648 121.804955 
L 275.422276 125.748915 
L 275.825309 112.05395 
L 275.903438 113.117365 
L 275.979084 109.781259 
L 276.365051 124.489058 
L 276.463731 122.281993 
L 276.538815 122.228714 
L 276.692171 124.50646 
L 276.942531 121.281059 
L 277.021112 118.583505 
L 277.251335 122.004361 
L 277.328118 121.40843 
L 277.412595 119.837432 
L 277.483107 121.680983 
L 277.582152 121.213434 
L 277.655715 124.458609 
L 277.887702 118.603116 
L 277.964283 117.551395 
L 278.047192 121.230219 
L 278.122515 120.363798 
L 278.196559 119.128267 
L 278.293484 120.939809 
L 278.369257 125.843822 
L 278.445655 122.44004 
L 278.523089 125.344489 
L 278.601937 125.080677 
L 278.688983 122.754376 
L 278.755405 123.370819 
L 278.851067 121.89341 
L 279.007549 126.626954 
L 279.159837 119.924591 
L 279.316047 125.039894 
L 279.489792 121.713615 
L 279.897378 119.301528 
L 280.06698 111.715353 
L 280.108114 109.670435 
L 280.201964 110.67611 
L 280.299658 107.441465 
L 280.35789 107.900062 
L 280.558617 104.492222 
L 280.593202 106.605912 
L 280.685212 106.582385 
L 280.840262 114.056783 
L 280.916229 111.020095 
L 280.992843 111.043103 
L 281.083509 111.133131 
L 281.09048 109.113931 
L 281.148441 113.559914 
L 281.166517 122.804185 
L 281.364773 114.026055 
L 281.43767 111.664807 
L 281.475137 113.607546 
L 281.724704 116.93751 
L 281.783601 116.707786 
L 281.874548 117.279008 
L 281.957045 111.31471 
L 282.033301 116.894803 
L 282.13033 116.629354 
L 282.188147 117.642942 
L 282.266616 117.313622 
L 282.45881 115.04607 
L 282.902065 142.292128 
L 283.093308 143.998278 
L 283.151545 141.240305 
L 283.289211 140.427852 
L 283.393816 127.370169 
L 283.852988 103.183317 
L 283.889424 104.632705 
L 284.34949 115.109293 
L 284.453066 111.879996 
L 284.620428 117.902146 
L 284.65699 115.18657 
L 284.792984 117.108217 
L 284.813194 119.507259 
L 284.927994 119.172325 
L 284.984793 116.545784 
L 285.061536 116.920133 
L 285.312693 129.105279 
L 285.389955 126.951088 
L 285.544483 132.163777 
L 286.026012 105.134828 
L 286.16177 105.314118 
L 286.240026 110.33475 
L 286.355166 101.276858 
L 286.431202 103.894685 
L 286.912392 127.878903 
L 286.932778 126.884621 
L 287.029018 125.921909 
L 287.12672 135.273724 
L 287.22144 140.726954 
L 287.375936 136.778189 
L 287.510579 136.287997 
L 287.549584 138.854354 
L 287.607729 135.680243 
L 287.684127 130.220936 
L 287.78045 130.936126 
L 288.089517 124.801949 
L 288.187028 128.817101 
L 288.25045 127.181652 
L 288.351374 128.20531 
L 288.443029 127.145594 
L 288.554928 131.100337 
L 288.57515 128.164045 
L 288.825352 120.672161 
L 288.939923 121.419682 
L 289.232349 114.323763 
L 289.344838 114.488301 
L 289.51976 119.585083 
L 289.596024 119.973611 
L 289.693343 119.435337 
L 289.769649 118.053886 
L 289.846859 118.27375 
L 289.924432 118.745496 
L 290.232476 128.140245 
L 290.483942 131.53301 
L 290.638279 131.481972 
L 290.714651 130.64386 
L 290.792803 133.223735 
L 291.198595 125.175473 
L 291.271086 125.090512 
L 291.351232 123.017171 
L 291.443379 125.586272 
L 291.519937 124.549603 
L 291.597253 121.666278 
L 291.673757 124.292289 
L 291.752124 119.624109 
L 291.827663 124.926626 
L 292.077925 115.800236 
L 292.232177 117.906262 
L 292.312128 112.571851 
L 292.385917 114.117308 
L 292.541903 118.738297 
L 292.621894 116.260901 
L 292.715152 117.562104 
L 292.79173 121.344607 
L 292.868114 121.333817 
L 293.022525 118.378589 
L 293.102304 122.555828 
L 293.273358 115.925851 
L 293.504946 121.720079 
L 293.590571 121.642882 
L 293.661483 124.385657 
L 293.858486 122.492248 
L 293.909299 122.497535 
L 293.989285 122.199443 
L 294.218059 125.05746 
L 294.296565 124.341881 
L 294.314867 113.415751 
L 294.391941 120.428252 
L 294.487853 118.373383 
L 294.546169 120.597154 
L 294.623216 119.910523 
L 294.740455 121.779863 
L 294.777479 120.944984 
L 294.858119 121.23622 
L 295.163733 112.99034 
L 295.220816 114.347623 
L 295.278043 117.676178 
L 295.375541 116.930259 
L 295.43239 117.152192 
L 295.645872 108.86643 
L 295.745669 109.597752 
L 295.895876 113.050537 
L 296.004486 113.878381 
L 296.049758 112.779048 
L 296.541592 132.65271 
L 296.61809 131.316899 
L 296.850569 123.325738 
L 297.100844 119.043385 
L 297.331538 123.900303 
L 297.428506 129.885906 
L 297.4859 141.002035 
L 297.581527 140.499594 
L 297.773969 138.441441 
L 297.986433 143.812452 
L 298.083193 144.982126 
L 298.296489 125.227029 
L 298.526515 131.621033 
L 298.642359 130.13225 
L 298.699916 132.761076 
L 298.875624 128.180349 
L 299.092846 135.786704 
L 299.171397 129.727015 
L 299.287617 131.618835 
L 299.407177 128.201977 
L 299.485834 114.981051 
L 299.57577 116.012479 
L 299.732976 120.952397 
L 299.807709 121.067367 
L 299.924944 120.012066 
L 300.004704 125.840528 
L 300.059013 123.410489 
L 300.116566 122.537096 
L 300.444408 130.139124 
L 300.772789 114.288315 
L 300.851034 117.631085 
L 300.928143 113.846904 
L 301.046522 114.106637 
L 301.178794 110.149735 
L 301.391381 114.94613 
L 301.526827 114.293379 
L 301.575795 111.593336 
L 301.702672 113.571299 
L 301.876144 119.899517 
L 301.95831 120.711016 
L 302.105331 116.165154 
L 302.124538 118.831902 
L 302.259234 115.670173 
L 302.308435 122.807608 
L 302.355888 122.157151 
L 302.607795 115.821769 
L 302.706028 119.73382 
L 302.762755 116.467919 
L 302.829818 121.077365 
L 302.919923 120.038017 
L 303.077841 124.733802 
L 303.109036 117.605712 
L 303.167616 118.949474 
L 303.267787 120.977284 
L 303.32476 120.168778 
L 303.399123 119.042775 
L 303.483711 113.797017 
L 303.554563 116.061749 
L 303.816105 108.720392 
L 303.963169 115.61792 
L 304.039296 109.877703 
L 304.385415 126.050496 
L 304.423308 124.184183 
L 304.617244 127.010529 
L 304.673943 121.715696 
L 304.77137 122.424151 
L 304.984608 125.279171 
L 305.120765 117.89665 
L 305.15815 119.177048 
L 305.332836 121.654685 
L 305.408007 120.400258 
L 305.546667 124.962187 
L 305.638566 127.94407 
L 305.87337 121.102379 
L 305.928534 125.892716 
L 305.96689 121.868627 
L 306.082207 124.709727 
L 306.178676 121.942235 
L 306.259881 121.438262 
L 306.334558 117.875191 
L 306.411272 118.303266 
L 306.429485 120.229793 
L 306.50696 119.202934 
L 306.758047 120.191682 
L 306.835659 116.790941 
L 306.892973 118.490753 
L 307.147327 126.296177 
L 307.241357 119.913328 
L 307.323039 120.174125 
L 307.416582 119.696541 
L 307.588173 120.619386 
L 307.721285 122.21477 
L 307.818013 126.238845 
L 307.89509 125.537501 
L 308.051769 123.148573 
L 308.069979 128.338412 
L 308.151601 126.28988 
L 308.229529 125.567075 
L 308.242562 118.966269 
L 308.35763 118.172223 
L 308.415115 119.984373 
L 308.493311 119.144442 
L 308.597939 118.604241 
L 308.653371 122.268607 
L 308.729303 121.133434 
L 308.821227 118.837503 
L 309.052615 125.164804 
L 309.225715 133.166403 
L 309.37439 132.76318 
L 309.382861 138.798784 
L 309.457245 135.227453 
L 309.533995 133.634029 
L 309.656336 134.231555 
L 309.691064 129.946495 
L 309.765991 131.195857 
L 309.842552 132.619386 
L 309.999418 125.276299 
L 310.170112 124.717616 
L 310.247713 123.220013 
L 310.324572 124.720194 
L 310.404831 121.900313 
L 310.480275 126.396289 
L 310.556962 124.770137 
L 310.655591 125.53077 
L 310.806344 124.311652 
L 310.869331 128.169476 
L 310.883773 123.676273 
L 311.057631 109.017816 
L 311.211225 111.888374 
L 311.307727 115.941005 
L 311.365895 115.382117 
L 311.445408 116.756604 
L 311.596293 116.249762 
L 311.616079 113.56579 
L 311.849481 124.958111 
L 311.930368 125.713029 
L 312.007324 127.803181 
L 312.107533 125.15671 
L 312.20127 128.306017 
L 312.260713 126.542208 
L 312.413864 133.45147 
L 312.624597 134.825406 
L 312.876529 127.938389 
L 312.936202 127.168044 
L 312.992675 127.69732 
L 313.071282 127.631952 
L 313.249642 121.192889 
L 313.339625 121.072918 
L 313.359186 116.312787 
L 313.610504 121.678832 
L 313.880911 108.356814 
L 313.981754 108.833229 
L 314.062386 108.745186 
L 314.082004 107.703111 
L 314.193355 110.488853 
L 314.251127 108.558566 
L 314.30922 109.208759 
L 314.473868 107.704147 
L 314.727515 116.649256 
L 314.872896 113.967608 
L 314.987065 113.240643 
L 315.139996 119.44853 
L 315.371199 113.576732 
L 315.448713 113.461767 
L 315.527352 108.920809 
L 315.680561 120.066439 
L 316.047289 125.450434 
L 316.086637 127.40648 
L 316.298415 128.894821 
L 316.338783 132.462885 
L 316.471607 123.25133 
L 316.66591 122.50637 
L 316.838279 118.485054 
L 316.875902 117.900377 
L 317.030966 122.955083 
L 317.107331 122.313149 
L 317.183963 123.007948 
L 317.261446 126.251258 
L 317.339616 125.586049 
L 317.453411 120.916419 
L 317.510958 122.716031 
L 317.769332 115.830281 
L 317.852271 118.621852 
L 317.859409 115.005701 
L 317.917271 116.975068 
L 317.980139 119.610871 
L 318.071761 112.900111 
L 318.19248 112.688594 
L 318.459858 124.161879 
L 318.533917 121.100659 
L 318.610314 115.385163 
L 318.74573 116.373807 
L 318.805845 115.518636 
L 318.882436 125.118814 
L 318.937974 124.697211 
L 319.150099 118.553807 
L 319.169737 123.619119 
L 319.249566 116.935286 
L 319.362506 118.557259 
L 319.507206 123.144787 
L 319.581007 123.059386 
L 319.665752 114.624533 
L 319.814119 124.036421 
L 319.922464 125.415879 
L 319.981596 124.696863 
L 320.133935 131.107062 
L 320.365275 127.60058 
L 320.442316 132.889022 
L 320.61625 127.176179 
L 320.684306 127.479879 
L 320.788927 127.214679 
L 320.962402 119.809757 
L 321.020846 119.562536 
L 321.212906 120.727001 
L 321.405398 109.527017 
L 321.579855 105.475123 
L 321.734022 109.799313 
L 321.810982 109.1339 
L 322.235141 122.322481 
L 322.293589 125.833147 
L 322.430637 125.915448 
L 322.585854 122.478435 
L 322.697841 118.547452 
L 322.823775 118.665063 
L 322.853869 119.885377 
L 322.911382 119.124276 
L 323.00662 118.647419 
L 323.102853 112.522801 
L 323.160651 114.193938 
L 323.547071 119.507519 
L 323.759233 121.233795 
L 323.837975 118.381273 
L 323.878767 121.385805 
L 324.00977 121.534765 
L 324.067383 119.969572 
L 324.223888 122.950968 
L 324.433868 119.452809 
L 324.55102 120.069199 
L 324.589084 123.781353 
L 324.665782 122.321737 
L 324.780879 121.972936 
L 324.838402 124.299053 
L 324.936722 122.96874 
L 324.992459 123.936923 
L 325.089236 123.441442 
L 325.225536 116.632868 
L 325.242935 118.680615 
L 325.325301 117.886376 
L 325.437741 118.295337 
L 325.589927 123.975532 
L 325.802138 116.270534 
L 326.034261 129.368126 
L 326.264886 131.535249 
L 326.344867 129.526181 
L 326.426844 134.527505 
L 326.515576 132.905645 
L 326.592766 134.456882 
L 326.671012 129.27935 
L 326.756972 130.671096 
L 326.90084 132.334746 
L 326.996717 130.917748 
L 327.094186 127.12808 
L 327.151474 127.283875 
L 327.247384 126.080235 
L 327.328728 127.107333 
L 327.383908 126.095287 
L 327.459715 129.322281 
L 327.643446 120.063776 
L 327.788408 121.249545 
L 327.86475 124.263458 
L 327.96164 123.350354 
L 328.01905 123.563266 
L 328.115094 120.763422 
L 328.187933 122.291121 
L 328.264807 120.700903 
L 328.471288 124.777164 
L 328.819958 116.042372 
L 328.935798 119.265967 
L 328.995143 116.029592 
L 329.093036 119.241999 
L 329.138371 114.649339 
L 329.303691 116.478384 
L 329.381093 113.489209 
L 329.691425 125.605775 
L 329.767572 123.491857 
L 329.863281 121.847684 
L 329.923387 124.192432 
L 330.097986 120.296827 
L 330.197042 119.724395 
L 330.325967 114.6194 
L 330.415646 116.686674 
L 330.480565 116.32565 
L 330.575522 117.356025 
L 330.655116 115.677445 
L 330.810436 117.637574 
L 330.888178 115.231586 
L 331.05982 118.367843 
L 331.21286 114.309764 
L 331.289748 114.323783 
L 331.368272 119.395572 
L 331.447702 116.070645 
L 331.521468 116.238952 
L 331.677849 119.267685 
L 331.853772 117.265333 
L 332.033646 119.587665 
L 332.043275 116.714224 
L 332.082183 117.759421 
L 332.187139 119.585105 
L 332.257036 124.550431 
L 332.326977 122.932092 
L 332.410864 119.752735 
L 332.491446 121.913241 
L 332.957938 107.535157 
L 333.029447 103.588392 
L 333.111703 104.439336 
L 333.761886 132.192884 
L 333.838929 134.011674 
L 334.011633 133.33377 
L 334.320347 124.789151 
L 334.37922 125.785545 
L 334.475187 118.635293 
L 334.60936 118.20473 
L 334.674786 117.36418 
L 334.82072 106.314603 
L 335.015066 108.641876 
L 335.110574 111.450678 
L 335.149095 106.922501 
L 335.206651 107.810324 
L 335.303978 113.216335 
L 335.36065 110.951401 
L 335.670546 118.831327 
L 335.860293 113.039409 
L 335.979131 119.593806 
L 336.054025 120.856491 
L 336.151095 125.745486 
L 336.228486 123.515887 
L 336.306368 123.592329 
L 336.439272 125.610875 
L 336.574064 117.554376 
L 336.690859 122.508535 
L 336.864039 120.794938 
L 336.96859 117.974615 
L 337.05802 120.486981 
L 337.28905 134.643497 
L 337.407353 136.721529 
L 337.621341 130.925465 
L 337.832287 127.994302 
L 337.905312 122.030091 
L 337.98229 122.542529 
L 338.10159 114.501633 
L 338.214987 122.832688 
L 338.294266 122.250786 
L 338.369264 123.260361 
L 338.542027 127.107728 
L 338.735066 128.526946 
L 338.907021 133.813553 
L 338.951651 130.549003 
L 339.033023 134.561772 
L 339.100498 131.421565 
L 339.215694 133.464085 
L 339.253919 129.595413 
L 339.332121 131.811536 
L 339.506239 131.814499 
L 339.583919 135.391534 
L 339.62078 133.594808 
L 339.820367 128.904841 
L 339.891648 130.391257 
L 339.968047 128.94465 
L 339.986162 126.466408 
L 340.065816 127.522172 
L 340.297488 120.611684 
L 340.375129 119.72224 
L 340.448795 121.08672 
L 340.762737 111.834585 
L 340.854035 110.926135 
L 340.931507 114.495126 
L 341.030449 114.218595 
L 341.147738 111.14866 
L 341.278831 103.636519 
L 341.557808 117.587538 
L 341.74756 119.564254 
L 341.906055 119.486889 
L 342.004009 125.264268 
L 342.045399 122.867355 
L 342.187032 119.293866 
L 342.20533 125.387457 
L 342.223618 118.9295 
L 342.362231 118.29863 
L 342.570837 123.96817 
L 342.648067 123.544951 
L 342.922389 135.152899 
L 343.245285 126.519571 
L 343.633515 102.603303 
L 343.882161 107.479518 
L 344.056135 108.28299 
L 344.210547 105.853751 
L 344.345181 110.79409 
L 344.448344 120.719657 
L 344.596411 113.339605 
L 344.692139 114.090161 
L 344.75156 113.098543 
L 344.9823 119.991736 
L 345.079309 121.5667 
L 345.193276 119.38476 
L 345.256046 120.208238 
L 345.328336 123.410402 
L 345.463341 124.450144 
L 345.582006 126.711311 
L 345.639744 123.911075 
L 345.795407 130.557858 
L 345.875088 128.559116 
L 346.671727 108.100992 
L 347.226231 124.398239 
L 347.24371 121.814297 
L 347.412198 127.964685 
L 347.455815 126.690321 
L 347.628611 120.369178 
L 347.705677 114.013899 
L 347.860418 116.30036 
L 347.983976 114.542973 
L 348.110617 108.095736 
L 348.274734 104.529871 
L 348.357089 104.105687 
L 348.496337 109.022376 
L 348.664947 102.447205 
L 349.247402 119.575117 
L 349.299048 116.52911 
L 349.470799 128.622426 
L 349.567757 126.925041 
L 349.625219 129.039644 
L 349.701973 128.758154 
L 349.817674 129.203379 
L 350.107139 135.076752 
L 350.243607 131.450373 
L 350.537981 140.954106 
L 350.746778 131.688356 
L 350.898591 134.380207 
L 351.147734 129.376201 
L 351.30757 122.967661 
L 351.399579 122.506692 
L 351.459796 126.149523 
L 351.632777 120.769962 
L 351.766753 119.88154 
L 351.901962 123.826822 
L 351.939813 121.254702 
L 352.002959 122.485815 
L 352.252394 135.669109 
L 352.540122 140.724192 
L 352.64258 137.65407 
L 352.790931 139.367462 
L 352.829609 133.326954 
L 352.95123 133.618847 
L 353.023243 132.115789 
L 353.21473 107.702756 
L 353.388177 114.112349 
L 353.485294 109.713917 
L 353.542926 117.399553 
L 353.677361 111.421413 
L 354.105227 120.241825 
L 354.198763 118.534303 
L 354.294151 119.729734 
L 354.332808 115.727291 
L 354.401304 119.224071 
L 354.489046 125.720787 
L 354.71952 130.30828 
L 354.71952 130.30828 
" clip-path="url(#pd4b17ca986)" style="fill: none; stroke: #ff0000; stroke-opacity: 0.5; stroke-width: 2.1; stroke-linecap: square"/>
   </g>
   <g id="patch_3">
    <path d="M 41.680938 148.36327 
L 41.680938 0.72 
" style="fill: none; stroke: #000000; stroke-width: 0.8; stroke-linejoin: miter; stroke-linecap: square"/>
   </g>
   <g id="patch_4">
    <path d="M 354.71952 148.36327 
L 354.71952 0.72 
" style="fill: none; stroke: #000000; stroke-width: 0.8; stroke-linejoin: miter; stroke-linecap: square"/>
   </g>
   <g id="patch_5">
    <path d="M 41.680938 148.36327 
L 354.71952 148.36327 
" style="fill: none; stroke: #000000; stroke-width: 0.8; stroke-linejoin: miter; stroke-linecap: square"/>
   </g>
   <g id="patch_6">
    <path d="M 41.680938 0.72 
L 354.71952 0.72 
" style="fill: none; stroke: #000000; stroke-width: 0.8; stroke-linejoin: miter; stroke-linecap: square"/>
   </g>
   <g id="legend_1">
    <g id="patch_7">
     <path d="M 273.95077 38.07625 
L 347.71952 38.07625 
Q 349.71952 38.07625 349.71952 36.07625 
L 349.71952 7.72 
Q 349.71952 5.72 347.71952 5.72 
L 273.95077 5.72 
Q 271.95077 5.72 271.95077 7.72 
L 271.95077 36.07625 
Q 271.95077 38.07625 273.95077 38.07625 
z
" style="fill: #ffffff; opacity: 0.8; stroke: #cccccc; stroke-linejoin: miter"/>
    </g>
    <g id="line2d_25">
     <path d="M 275.95077 13.818437 
L 285.95077 13.818437 
L 295.95077 13.818437 
" style="fill: none; stroke: #0000ff; stroke-opacity: 0.5; stroke-width: 2.1; stroke-linecap: square"/>
    </g>
    <g id="text_14">
     <!-- RNEA -->
     <g transform="translate(303.95077 17.318437) scale(0.1 -0.1)">
      <defs>
       <path id="DejaVuSans-52" d="M 2841 2188 
Q 3044 2119 3236 1894 
Q 3428 1669 3622 1275 
L 4263 0 
L 3584 0 
L 2988 1197 
Q 2756 1666 2539 1819 
Q 2322 1972 1947 1972 
L 1259 1972 
L 1259 0 
L 628 0 
L 628 4666 
L 2053 4666 
Q 2853 4666 3247 4331 
Q 3641 3997 3641 3322 
Q 3641 2881 3436 2590 
Q 3231 2300 2841 2188 
z
M 1259 4147 
L 1259 2491 
L 2053 2491 
Q 2509 2491 2742 2702 
Q 2975 2913 2975 3322 
Q 2975 3731 2742 3939 
Q 2509 4147 2053 4147 
L 1259 4147 
z
" transform="scale(0.015625)"/>
       <path id="DejaVuSans-45" d="M 628 4666 
L 3578 4666 
L 3578 4134 
L 1259 4134 
L 1259 2753 
L 3481 2753 
L 3481 2222 
L 1259 2222 
L 1259 531 
L 3634 531 
L 3634 0 
L 628 0 
L 628 4666 
z
" transform="scale(0.015625)"/>
       <path id="DejaVuSans-41" d="M 2188 4044 
L 1331 1722 
L 3047 1722 
L 2188 4044 
z
M 1831 4666 
L 2547 4666 
L 4325 0 
L 3669 0 
L 3244 1197 
L 1141 1197 
L 716 0 
L 50 0 
L 1831 4666 
z
" transform="scale(0.015625)"/>
      </defs>
      <use xlink:href="#DejaVuSans-52"/>
      <use xlink:href="#DejaVuSans-4e" x="69.482422"/>
      <use xlink:href="#DejaVuSans-45" x="144.287109"/>
      <use xlink:href="#DejaVuSans-41" x="207.470703"/>
     </g>
    </g>
    <g id="line2d_26">
     <path d="M 275.95077 28.496562 
L 285.95077 28.496562 
L 295.95077 28.496562 
" style="fill: none; stroke: #ff0000; stroke-opacity: 0.5; stroke-width: 2.1; stroke-linecap: square"/>
    </g>
    <g id="text_15">
     <!-- BURNEA -->
     <g transform="translate(303.95077 31.996562) scale(0.1 -0.1)">
      <defs>
       <path id="DejaVuSans-42" d="M 1259 2228 
L 1259 519 
L 2272 519 
Q 2781 519 3026 730 
Q 3272 941 3272 1375 
Q 3272 1813 3026 2020 
Q 2781 2228 2272 2228 
L 1259 2228 
z
M 1259 4147 
L 1259 2741 
L 2194 2741 
Q 2656 2741 2882 2914 
Q 3109 3088 3109 3444 
Q 3109 3797 2882 3972 
Q 2656 4147 2194 4147 
L 1259 4147 
z
M 628 4666 
L 2241 4666 
Q 2963 4666 3353 4366 
Q 3744 4066 3744 3513 
Q 3744 3084 3544 2831 
Q 3344 2578 2956 2516 
Q 3422 2416 3680 2098 
Q 3938 1781 3938 1306 
Q 3938 681 3513 340 
Q 3088 0 2303 0 
L 628 0 
L 628 4666 
z
" transform="scale(0.015625)"/>
       <path id="DejaVuSans-55" d="M 556 4666 
L 1191 4666 
L 1191 1831 
Q 1191 1081 1462 751 
Q 1734 422 2344 422 
Q 2950 422 3222 751 
Q 3494 1081 3494 1831 
L 3494 4666 
L 4128 4666 
L 4128 1753 
Q 4128 841 3676 375 
Q 3225 -91 2344 -91 
Q 1459 -91 1007 375 
Q 556 841 556 1753 
L 556 4666 
z
" transform="scale(0.015625)"/>
      </defs>
      <use xlink:href="#DejaVuSans-42"/>
      <use xlink:href="#DejaVuSans-55" x="68.603516"/>
      <use xlink:href="#DejaVuSans-52" x="141.796875"/>
      <use xlink:href="#DejaVuSans-4e" x="211.279297"/>
      <use xlink:href="#DejaVuSans-45" x="286.083984"/>
      <use xlink:href="#DejaVuSans-41" x="349.267578"/>
     </g>
    </g>
   </g>
  </g>
 </g>
 <defs>
  <clipPath id="pd4b17ca986">
   <rect x="41.680938" y="0.72" width="313.038582" height="147.64327"/>
  </clipPath>
 </defs>
</svg>
