<?xml version="1.0" encoding="utf-8" standalone="no"?>
<!DOCTYPE svg PUBLIC "-//W3C//DTD SVG 1.1//EN"
  "http://www.w3.org/Graphics/SVG/1.1/DTD/svg11.dtd">
<svg xmlns:xlink="http://www.w3.org/1999/xlink" width="355.43952pt" height="175.434986pt" viewBox="0 0 355.43952 175.434986" xmlns="http://www.w3.org/2000/svg" version="1.1">
 <metadata>
  <rdf:RDF xmlns:dc="http://purl.org/dc/elements/1.1/" xmlns:cc="http://creativecommons.org/ns#" xmlns:rdf="http://www.w3.org/1999/02/22-rdf-syntax-ns#">
   <cc:Work>
    <dc:type rdf:resource="http://purl.org/dc/dcmitype/StillImage"/>
    <dc:date>2023-09-09T18:29:26.162445</dc:date>
    <dc:format>image/svg+xml</dc:format>
    <dc:creator>
     <cc:Agent>
      <dc:title>Matplotlib v3.7.2, https://matplotlib.org/</dc:title>
     </cc:Agent>
    </dc:creator>
   </cc:Work>
  </rdf:RDF>
 </metadata>
 <defs>
  <style type="text/css">*{stroke-linejoin: round; stroke-linecap: butt}</style>
 </defs>
 <g id="figure_1">
  <g id="patch_1">
   <path d="M 0 175.434986 
L 355.43952 175.434986 
L 355.43952 0 
L 0 0 
L 0 175.434986 
z
" style="fill: none"/>
  </g>
  <g id="axes_1">
   <g id="patch_2">
    <path d="M 41.680938 148.358736 
L 354.71952 148.358736 
L 354.71952 1.109018 
L 41.680938 1.109018 
L 41.680938 148.358736 
z
" style="fill: none"/>
   </g>
   <g id="matplotlib.axis_1">
    <g id="xtick_1">
     <g id="line2d_1">
      <path d="M 41.680938 148.358736 
L 41.680938 1.109018 
" clip-path="url(#p65f626103a)" style="fill: none; stroke-dasharray: 0.8,1.32; stroke-dashoffset: 0; stroke: #000000; stroke-opacity: 0.5; stroke-width: 0.8"/>
     </g>
     <g id="line2d_2">
      <defs>
       <path id="m107de016ee" d="M 0 0 
L 0 3.5 
" style="stroke: #000000; stroke-width: 0.8"/>
      </defs>
      <g>
       <use xlink:href="#m107de016ee" x="41.680938" y="148.358736" style="stroke: #000000; stroke-width: 0.8"/>
      </g>
     </g>
     <g id="text_1">
      <!-- 0 -->
      <g transform="translate(38.499688 162.957173) scale(0.1 -0.1)">
       <defs>
        <path id="DejaVuSans-30" d="M 2034 4250 
Q 1547 4250 1301 3770 
Q 1056 3291 1056 2328 
Q 1056 1369 1301 889 
Q 1547 409 2034 409 
Q 2525 409 2770 889 
Q 3016 1369 3016 2328 
Q 3016 3291 2770 3770 
Q 2525 4250 2034 4250 
z
M 2034 4750 
Q 2819 4750 3233 4129 
Q 3647 3509 3647 2328 
Q 3647 1150 3233 529 
Q 2819 -91 2034 -91 
Q 1250 -91 836 529 
Q 422 1150 422 2328 
Q 422 3509 836 4129 
Q 1250 4750 2034 4750 
z
" transform="scale(0.015625)"/>
       </defs>
       <use xlink:href="#DejaVuSans-30"/>
      </g>
     </g>
    </g>
    <g id="xtick_2">
     <g id="line2d_3">
      <path d="M 89.494945 148.358736 
L 89.494945 1.109018 
" clip-path="url(#p65f626103a)" style="fill: none; stroke-dasharray: 0.8,1.32; stroke-dashoffset: 0; stroke: #000000; stroke-opacity: 0.5; stroke-width: 0.8"/>
     </g>
     <g id="line2d_4">
      <g>
       <use xlink:href="#m107de016ee" x="89.494945" y="148.358736" style="stroke: #000000; stroke-width: 0.8"/>
      </g>
     </g>
     <g id="text_2">
      <!-- 5 -->
      <g transform="translate(86.313695 162.957173) scale(0.1 -0.1)">
       <defs>
        <path id="DejaVuSans-35" d="M 691 4666 
L 3169 4666 
L 3169 4134 
L 1269 4134 
L 1269 2991 
Q 1406 3038 1543 3061 
Q 1681 3084 1819 3084 
Q 2600 3084 3056 2656 
Q 3513 2228 3513 1497 
Q 3513 744 3044 326 
Q 2575 -91 1722 -91 
Q 1428 -91 1123 -41 
Q 819 9 494 109 
L 494 744 
Q 775 591 1075 516 
Q 1375 441 1709 441 
Q 2250 441 2565 725 
Q 2881 1009 2881 1497 
Q 2881 1984 2565 2268 
Q 2250 2553 1709 2553 
Q 1456 2553 1204 2497 
Q 953 2441 691 2322 
L 691 4666 
z
" transform="scale(0.015625)"/>
       </defs>
       <use xlink:href="#DejaVuSans-35"/>
      </g>
     </g>
    </g>
    <g id="xtick_3">
     <g id="line2d_5">
      <path d="M 137.308952 148.358736 
L 137.308952 1.109018 
" clip-path="url(#p65f626103a)" style="fill: none; stroke-dasharray: 0.8,1.32; stroke-dashoffset: 0; stroke: #000000; stroke-opacity: 0.5; stroke-width: 0.8"/>
     </g>
     <g id="line2d_6">
      <g>
       <use xlink:href="#m107de016ee" x="137.308952" y="148.358736" style="stroke: #000000; stroke-width: 0.8"/>
      </g>
     </g>
     <g id="text_3">
      <!-- 10 -->
      <g transform="translate(130.946452 162.957173) scale(0.1 -0.1)">
       <defs>
        <path id="DejaVuSans-31" d="M 794 531 
L 1825 531 
L 1825 4091 
L 703 3866 
L 703 4441 
L 1819 4666 
L 2450 4666 
L 2450 531 
L 3481 531 
L 3481 0 
L 794 0 
L 794 531 
z
" transform="scale(0.015625)"/>
       </defs>
       <use xlink:href="#DejaVuSans-31"/>
       <use xlink:href="#DejaVuSans-30" x="63.623047"/>
      </g>
     </g>
    </g>
    <g id="xtick_4">
     <g id="line2d_7">
      <path d="M 185.12296 148.358736 
L 185.12296 1.109018 
" clip-path="url(#p65f626103a)" style="fill: none; stroke-dasharray: 0.8,1.32; stroke-dashoffset: 0; stroke: #000000; stroke-opacity: 0.5; stroke-width: 0.8"/>
     </g>
     <g id="line2d_8">
      <g>
       <use xlink:href="#m107de016ee" x="185.12296" y="148.358736" style="stroke: #000000; stroke-width: 0.8"/>
      </g>
     </g>
     <g id="text_4">
      <!-- 15 -->
      <g transform="translate(178.76046 162.957173) scale(0.1 -0.1)">
       <use xlink:href="#DejaVuSans-31"/>
       <use xlink:href="#DejaVuSans-35" x="63.623047"/>
      </g>
     </g>
    </g>
    <g id="xtick_5">
     <g id="line2d_9">
      <path d="M 232.936967 148.358736 
L 232.936967 1.109018 
" clip-path="url(#p65f626103a)" style="fill: none; stroke-dasharray: 0.8,1.32; stroke-dashoffset: 0; stroke: #000000; stroke-opacity: 0.5; stroke-width: 0.8"/>
     </g>
     <g id="line2d_10">
      <g>
       <use xlink:href="#m107de016ee" x="232.936967" y="148.358736" style="stroke: #000000; stroke-width: 0.8"/>
      </g>
     </g>
     <g id="text_5">
      <!-- 20 -->
      <g transform="translate(226.574467 162.957173) scale(0.1 -0.1)">
       <defs>
        <path id="DejaVuSans-32" d="M 1228 531 
L 3431 531 
L 3431 0 
L 469 0 
L 469 531 
Q 828 903 1448 1529 
Q 2069 2156 2228 2338 
Q 2531 2678 2651 2914 
Q 2772 3150 2772 3378 
Q 2772 3750 2511 3984 
Q 2250 4219 1831 4219 
Q 1534 4219 1204 4116 
Q 875 4013 500 3803 
L 500 4441 
Q 881 4594 1212 4672 
Q 1544 4750 1819 4750 
Q 2544 4750 2975 4387 
Q 3406 4025 3406 3419 
Q 3406 3131 3298 2873 
Q 3191 2616 2906 2266 
Q 2828 2175 2409 1742 
Q 1991 1309 1228 531 
z
" transform="scale(0.015625)"/>
       </defs>
       <use xlink:href="#DejaVuSans-32"/>
       <use xlink:href="#DejaVuSans-30" x="63.623047"/>
      </g>
     </g>
    </g>
    <g id="xtick_6">
     <g id="line2d_11">
      <path d="M 280.750974 148.358736 
L 280.750974 1.109018 
" clip-path="url(#p65f626103a)" style="fill: none; stroke-dasharray: 0.8,1.32; stroke-dashoffset: 0; stroke: #000000; stroke-opacity: 0.5; stroke-width: 0.8"/>
     </g>
     <g id="line2d_12">
      <g>
       <use xlink:href="#m107de016ee" x="280.750974" y="148.358736" style="stroke: #000000; stroke-width: 0.8"/>
      </g>
     </g>
     <g id="text_6">
      <!-- 25 -->
      <g transform="translate(274.388474 162.957173) scale(0.1 -0.1)">
       <use xlink:href="#DejaVuSans-32"/>
       <use xlink:href="#DejaVuSans-35" x="63.623047"/>
      </g>
     </g>
    </g>
    <g id="xtick_7">
     <g id="line2d_13">
      <path d="M 328.564982 148.358736 
L 328.564982 1.109018 
" clip-path="url(#p65f626103a)" style="fill: none; stroke-dasharray: 0.8,1.32; stroke-dashoffset: 0; stroke: #000000; stroke-opacity: 0.5; stroke-width: 0.8"/>
     </g>
     <g id="line2d_14">
      <g>
       <use xlink:href="#m107de016ee" x="328.564982" y="148.358736" style="stroke: #000000; stroke-width: 0.8"/>
      </g>
     </g>
     <g id="text_7">
      <!-- 30 -->
      <g transform="translate(322.202482 162.957173) scale(0.1 -0.1)">
       <defs>
        <path id="DejaVuSans-33" d="M 2597 2516 
Q 3050 2419 3304 2112 
Q 3559 1806 3559 1356 
Q 3559 666 3084 287 
Q 2609 -91 1734 -91 
Q 1441 -91 1130 -33 
Q 819 25 488 141 
L 488 750 
Q 750 597 1062 519 
Q 1375 441 1716 441 
Q 2309 441 2620 675 
Q 2931 909 2931 1356 
Q 2931 1769 2642 2001 
Q 2353 2234 1838 2234 
L 1294 2234 
L 1294 2753 
L 1863 2753 
Q 2328 2753 2575 2939 
Q 2822 3125 2822 3475 
Q 2822 3834 2567 4026 
Q 2313 4219 1838 4219 
Q 1578 4219 1281 4162 
Q 984 4106 628 3988 
L 628 4550 
Q 988 4650 1302 4700 
Q 1616 4750 1894 4750 
Q 2613 4750 3031 4423 
Q 3450 4097 3450 3541 
Q 3450 3153 3228 2886 
Q 3006 2619 2597 2516 
z
" transform="scale(0.015625)"/>
       </defs>
       <use xlink:href="#DejaVuSans-33"/>
       <use xlink:href="#DejaVuSans-30" x="63.623047"/>
      </g>
     </g>
    </g>
    <g id="text_8">
     <!-- Zeit [s] -->
     <g transform="translate(180.254135 172.635298) scale(0.1 -0.1)">
      <defs>
       <path id="DejaVuSans-5a" d="M 359 4666 
L 4025 4666 
L 4025 4184 
L 1075 531 
L 4097 531 
L 4097 0 
L 288 0 
L 288 481 
L 3238 4134 
L 359 4134 
L 359 4666 
z
" transform="scale(0.015625)"/>
       <path id="DejaVuSans-65" d="M 3597 1894 
L 3597 1613 
L 953 1613 
Q 991 1019 1311 708 
Q 1631 397 2203 397 
Q 2534 397 2845 478 
Q 3156 559 3463 722 
L 3463 178 
Q 3153 47 2828 -22 
Q 2503 -91 2169 -91 
Q 1331 -91 842 396 
Q 353 884 353 1716 
Q 353 2575 817 3079 
Q 1281 3584 2069 3584 
Q 2775 3584 3186 3129 
Q 3597 2675 3597 1894 
z
M 3022 2063 
Q 3016 2534 2758 2815 
Q 2500 3097 2075 3097 
Q 1594 3097 1305 2825 
Q 1016 2553 972 2059 
L 3022 2063 
z
" transform="scale(0.015625)"/>
       <path id="DejaVuSans-69" d="M 603 3500 
L 1178 3500 
L 1178 0 
L 603 0 
L 603 3500 
z
M 603 4863 
L 1178 4863 
L 1178 4134 
L 603 4134 
L 603 4863 
z
" transform="scale(0.015625)"/>
       <path id="DejaVuSans-74" d="M 1172 4494 
L 1172 3500 
L 2356 3500 
L 2356 3053 
L 1172 3053 
L 1172 1153 
Q 1172 725 1289 603 
Q 1406 481 1766 481 
L 2356 481 
L 2356 0 
L 1766 0 
Q 1100 0 847 248 
Q 594 497 594 1153 
L 594 3053 
L 172 3053 
L 172 3500 
L 594 3500 
L 594 4494 
L 1172 4494 
z
" transform="scale(0.015625)"/>
       <path id="DejaVuSans-20" transform="scale(0.015625)"/>
       <path id="DejaVuSans-5b" d="M 550 4863 
L 1875 4863 
L 1875 4416 
L 1125 4416 
L 1125 -397 
L 1875 -397 
L 1875 -844 
L 550 -844 
L 550 4863 
z
" transform="scale(0.015625)"/>
       <path id="DejaVuSans-73" d="M 2834 3397 
L 2834 2853 
Q 2591 2978 2328 3040 
Q 2066 3103 1784 3103 
Q 1356 3103 1142 2972 
Q 928 2841 928 2578 
Q 928 2378 1081 2264 
Q 1234 2150 1697 2047 
L 1894 2003 
Q 2506 1872 2764 1633 
Q 3022 1394 3022 966 
Q 3022 478 2636 193 
Q 2250 -91 1575 -91 
Q 1294 -91 989 -36 
Q 684 19 347 128 
L 347 722 
Q 666 556 975 473 
Q 1284 391 1588 391 
Q 1994 391 2212 530 
Q 2431 669 2431 922 
Q 2431 1156 2273 1281 
Q 2116 1406 1581 1522 
L 1381 1569 
Q 847 1681 609 1914 
Q 372 2147 372 2553 
Q 372 3047 722 3315 
Q 1072 3584 1716 3584 
Q 2034 3584 2315 3537 
Q 2597 3491 2834 3397 
z
" transform="scale(0.015625)"/>
       <path id="DejaVuSans-5d" d="M 1947 4863 
L 1947 -844 
L 622 -844 
L 622 -397 
L 1369 -397 
L 1369 4416 
L 622 4416 
L 622 4863 
L 1947 4863 
z
" transform="scale(0.015625)"/>
      </defs>
      <use xlink:href="#DejaVuSans-5a"/>
      <use xlink:href="#DejaVuSans-65" x="68.505859"/>
      <use xlink:href="#DejaVuSans-69" x="130.029297"/>
      <use xlink:href="#DejaVuSans-74" x="157.8125"/>
      <use xlink:href="#DejaVuSans-20" x="197.021484"/>
      <use xlink:href="#DejaVuSans-5b" x="228.808594"/>
      <use xlink:href="#DejaVuSans-73" x="267.822266"/>
      <use xlink:href="#DejaVuSans-5d" x="319.921875"/>
     </g>
    </g>
   </g>
   <g id="matplotlib.axis_2">
    <g id="ytick_1">
     <g id="line2d_15">
      <path d="M 41.680938 143.585533 
L 354.71952 143.585533 
" clip-path="url(#p65f626103a)" style="fill: none; stroke-dasharray: 0.8,1.32; stroke-dashoffset: 0; stroke: #000000; stroke-opacity: 0.5; stroke-width: 0.8"/>
     </g>
     <g id="line2d_16">
      <defs>
       <path id="mc9ff8a534c" d="M 0 0 
L -3.5 0 
" style="stroke: #000000; stroke-width: 0.8"/>
      </defs>
      <g>
       <use xlink:href="#mc9ff8a534c" x="41.680938" y="143.585533" style="stroke: #000000; stroke-width: 0.8"/>
      </g>
     </g>
     <g id="text_9">
      <!-- −1.0 -->
      <g transform="translate(10.398125 147.384752) scale(0.1 -0.1)">
       <defs>
        <path id="DejaVuSans-2212" d="M 678 2272 
L 4684 2272 
L 4684 1741 
L 678 1741 
L 678 2272 
z
" transform="scale(0.015625)"/>
        <path id="DejaVuSans-2e" d="M 684 794 
L 1344 794 
L 1344 0 
L 684 0 
L 684 794 
z
" transform="scale(0.015625)"/>
       </defs>
       <use xlink:href="#DejaVuSans-2212"/>
       <use xlink:href="#DejaVuSans-31" x="83.789062"/>
       <use xlink:href="#DejaVuSans-2e" x="147.412109"/>
       <use xlink:href="#DejaVuSans-30" x="179.199219"/>
      </g>
     </g>
    </g>
    <g id="ytick_2">
     <g id="line2d_17">
      <path d="M 41.680938 115.77227 
L 354.71952 115.77227 
" clip-path="url(#p65f626103a)" style="fill: none; stroke-dasharray: 0.8,1.32; stroke-dashoffset: 0; stroke: #000000; stroke-opacity: 0.5; stroke-width: 0.8"/>
     </g>
     <g id="line2d_18">
      <g>
       <use xlink:href="#mc9ff8a534c" x="41.680938" y="115.77227" style="stroke: #000000; stroke-width: 0.8"/>
      </g>
     </g>
     <g id="text_10">
      <!-- −0.8 -->
      <g transform="translate(10.398125 119.571489) scale(0.1 -0.1)">
       <defs>
        <path id="DejaVuSans-38" d="M 2034 2216 
Q 1584 2216 1326 1975 
Q 1069 1734 1069 1313 
Q 1069 891 1326 650 
Q 1584 409 2034 409 
Q 2484 409 2743 651 
Q 3003 894 3003 1313 
Q 3003 1734 2745 1975 
Q 2488 2216 2034 2216 
z
M 1403 2484 
Q 997 2584 770 2862 
Q 544 3141 544 3541 
Q 544 4100 942 4425 
Q 1341 4750 2034 4750 
Q 2731 4750 3128 4425 
Q 3525 4100 3525 3541 
Q 3525 3141 3298 2862 
Q 3072 2584 2669 2484 
Q 3125 2378 3379 2068 
Q 3634 1759 3634 1313 
Q 3634 634 3220 271 
Q 2806 -91 2034 -91 
Q 1263 -91 848 271 
Q 434 634 434 1313 
Q 434 1759 690 2068 
Q 947 2378 1403 2484 
z
M 1172 3481 
Q 1172 3119 1398 2916 
Q 1625 2713 2034 2713 
Q 2441 2713 2670 2916 
Q 2900 3119 2900 3481 
Q 2900 3844 2670 4047 
Q 2441 4250 2034 4250 
Q 1625 4250 1398 4047 
Q 1172 3844 1172 3481 
z
" transform="scale(0.015625)"/>
       </defs>
       <use xlink:href="#DejaVuSans-2212"/>
       <use xlink:href="#DejaVuSans-30" x="83.789062"/>
       <use xlink:href="#DejaVuSans-2e" x="147.412109"/>
       <use xlink:href="#DejaVuSans-38" x="179.199219"/>
      </g>
     </g>
    </g>
    <g id="ytick_3">
     <g id="line2d_19">
      <path d="M 41.680938 87.959007 
L 354.71952 87.959007 
" clip-path="url(#p65f626103a)" style="fill: none; stroke-dasharray: 0.8,1.32; stroke-dashoffset: 0; stroke: #000000; stroke-opacity: 0.5; stroke-width: 0.8"/>
     </g>
     <g id="line2d_20">
      <g>
       <use xlink:href="#mc9ff8a534c" x="41.680938" y="87.959007" style="stroke: #000000; stroke-width: 0.8"/>
      </g>
     </g>
     <g id="text_11">
      <!-- −0.6 -->
      <g transform="translate(10.398125 91.758226) scale(0.1 -0.1)">
       <defs>
        <path id="DejaVuSans-36" d="M 2113 2584 
Q 1688 2584 1439 2293 
Q 1191 2003 1191 1497 
Q 1191 994 1439 701 
Q 1688 409 2113 409 
Q 2538 409 2786 701 
Q 3034 994 3034 1497 
Q 3034 2003 2786 2293 
Q 2538 2584 2113 2584 
z
M 3366 4563 
L 3366 3988 
Q 3128 4100 2886 4159 
Q 2644 4219 2406 4219 
Q 1781 4219 1451 3797 
Q 1122 3375 1075 2522 
Q 1259 2794 1537 2939 
Q 1816 3084 2150 3084 
Q 2853 3084 3261 2657 
Q 3669 2231 3669 1497 
Q 3669 778 3244 343 
Q 2819 -91 2113 -91 
Q 1303 -91 875 529 
Q 447 1150 447 2328 
Q 447 3434 972 4092 
Q 1497 4750 2381 4750 
Q 2619 4750 2861 4703 
Q 3103 4656 3366 4563 
z
" transform="scale(0.015625)"/>
       </defs>
       <use xlink:href="#DejaVuSans-2212"/>
       <use xlink:href="#DejaVuSans-30" x="83.789062"/>
       <use xlink:href="#DejaVuSans-2e" x="147.412109"/>
       <use xlink:href="#DejaVuSans-36" x="179.199219"/>
      </g>
     </g>
    </g>
    <g id="ytick_4">
     <g id="line2d_21">
      <path d="M 41.680938 60.145745 
L 354.71952 60.145745 
" clip-path="url(#p65f626103a)" style="fill: none; stroke-dasharray: 0.8,1.32; stroke-dashoffset: 0; stroke: #000000; stroke-opacity: 0.5; stroke-width: 0.8"/>
     </g>
     <g id="line2d_22">
      <g>
       <use xlink:href="#mc9ff8a534c" x="41.680938" y="60.145745" style="stroke: #000000; stroke-width: 0.8"/>
      </g>
     </g>
     <g id="text_12">
      <!-- −0.4 -->
      <g transform="translate(10.398125 63.944963) scale(0.1 -0.1)">
       <defs>
        <path id="DejaVuSans-34" d="M 2419 4116 
L 825 1625 
L 2419 1625 
L 2419 4116 
z
M 2253 4666 
L 3047 4666 
L 3047 1625 
L 3713 1625 
L 3713 1100 
L 3047 1100 
L 3047 0 
L 2419 0 
L 2419 1100 
L 313 1100 
L 313 1709 
L 2253 4666 
z
" transform="scale(0.015625)"/>
       </defs>
       <use xlink:href="#DejaVuSans-2212"/>
       <use xlink:href="#DejaVuSans-30" x="83.789062"/>
       <use xlink:href="#DejaVuSans-2e" x="147.412109"/>
       <use xlink:href="#DejaVuSans-34" x="179.199219"/>
      </g>
     </g>
    </g>
    <g id="ytick_5">
     <g id="line2d_23">
      <path d="M 41.680938 32.332482 
L 354.71952 32.332482 
" clip-path="url(#p65f626103a)" style="fill: none; stroke-dasharray: 0.8,1.32; stroke-dashoffset: 0; stroke: #000000; stroke-opacity: 0.5; stroke-width: 0.8"/>
     </g>
     <g id="line2d_24">
      <g>
       <use xlink:href="#mc9ff8a534c" x="41.680938" y="32.332482" style="stroke: #000000; stroke-width: 0.8"/>
      </g>
     </g>
     <g id="text_13">
      <!-- −0.2 -->
      <g transform="translate(10.398125 36.1317) scale(0.1 -0.1)">
       <use xlink:href="#DejaVuSans-2212"/>
       <use xlink:href="#DejaVuSans-30" x="83.789062"/>
       <use xlink:href="#DejaVuSans-2e" x="147.412109"/>
       <use xlink:href="#DejaVuSans-32" x="179.199219"/>
      </g>
     </g>
    </g>
    <g id="ytick_6">
     <g id="line2d_25">
      <path d="M 41.680938 4.519219 
L 354.71952 4.519219 
" clip-path="url(#p65f626103a)" style="fill: none; stroke-dasharray: 0.8,1.32; stroke-dashoffset: 0; stroke: #000000; stroke-opacity: 0.5; stroke-width: 0.8"/>
     </g>
     <g id="line2d_26">
      <g>
       <use xlink:href="#mc9ff8a534c" x="41.680938" y="4.519219" style="stroke: #000000; stroke-width: 0.8"/>
      </g>
     </g>
     <g id="text_14">
      <!-- 0.0 -->
      <g transform="translate(18.777813 8.318437) scale(0.1 -0.1)">
       <use xlink:href="#DejaVuSans-30"/>
       <use xlink:href="#DejaVuSans-2e" x="63.623047"/>
       <use xlink:href="#DejaVuSans-30" x="95.410156"/>
      </g>
     </g>
    </g>
    <g id="text_15">
     <!-- Drehmoment [Nm] -->
     <g transform="translate(8.318437 121.879189) rotate(-90) scale(0.1 -0.1)">
      <defs>
       <path id="DejaVuSans-44" d="M 1259 4147 
L 1259 519 
L 2022 519 
Q 2988 519 3436 956 
Q 3884 1394 3884 2338 
Q 3884 3275 3436 3711 
Q 2988 4147 2022 4147 
L 1259 4147 
z
M 628 4666 
L 1925 4666 
Q 3281 4666 3915 4102 
Q 4550 3538 4550 2338 
Q 4550 1131 3912 565 
Q 3275 0 1925 0 
L 628 0 
L 628 4666 
z
" transform="scale(0.015625)"/>
       <path id="DejaVuSans-72" d="M 2631 2963 
Q 2534 3019 2420 3045 
Q 2306 3072 2169 3072 
Q 1681 3072 1420 2755 
Q 1159 2438 1159 1844 
L 1159 0 
L 581 0 
L 581 3500 
L 1159 3500 
L 1159 2956 
Q 1341 3275 1631 3429 
Q 1922 3584 2338 3584 
Q 2397 3584 2469 3576 
Q 2541 3569 2628 3553 
L 2631 2963 
z
" transform="scale(0.015625)"/>
       <path id="DejaVuSans-68" d="M 3513 2113 
L 3513 0 
L 2938 0 
L 2938 2094 
Q 2938 2591 2744 2837 
Q 2550 3084 2163 3084 
Q 1697 3084 1428 2787 
Q 1159 2491 1159 1978 
L 1159 0 
L 581 0 
L 581 4863 
L 1159 4863 
L 1159 2956 
Q 1366 3272 1645 3428 
Q 1925 3584 2291 3584 
Q 2894 3584 3203 3211 
Q 3513 2838 3513 2113 
z
" transform="scale(0.015625)"/>
       <path id="DejaVuSans-6d" d="M 3328 2828 
Q 3544 3216 3844 3400 
Q 4144 3584 4550 3584 
Q 5097 3584 5394 3201 
Q 5691 2819 5691 2113 
L 5691 0 
L 5113 0 
L 5113 2094 
Q 5113 2597 4934 2840 
Q 4756 3084 4391 3084 
Q 3944 3084 3684 2787 
Q 3425 2491 3425 1978 
L 3425 0 
L 2847 0 
L 2847 2094 
Q 2847 2600 2669 2842 
Q 2491 3084 2119 3084 
Q 1678 3084 1418 2786 
Q 1159 2488 1159 1978 
L 1159 0 
L 581 0 
L 581 3500 
L 1159 3500 
L 1159 2956 
Q 1356 3278 1631 3431 
Q 1906 3584 2284 3584 
Q 2666 3584 2933 3390 
Q 3200 3197 3328 2828 
z
" transform="scale(0.015625)"/>
       <path id="DejaVuSans-6f" d="M 1959 3097 
Q 1497 3097 1228 2736 
Q 959 2375 959 1747 
Q 959 1119 1226 758 
Q 1494 397 1959 397 
Q 2419 397 2687 759 
Q 2956 1122 2956 1747 
Q 2956 2369 2687 2733 
Q 2419 3097 1959 3097 
z
M 1959 3584 
Q 2709 3584 3137 3096 
Q 3566 2609 3566 1747 
Q 3566 888 3137 398 
Q 2709 -91 1959 -91 
Q 1206 -91 779 398 
Q 353 888 353 1747 
Q 353 2609 779 3096 
Q 1206 3584 1959 3584 
z
" transform="scale(0.015625)"/>
       <path id="DejaVuSans-6e" d="M 3513 2113 
L 3513 0 
L 2938 0 
L 2938 2094 
Q 2938 2591 2744 2837 
Q 2550 3084 2163 3084 
Q 1697 3084 1428 2787 
Q 1159 2491 1159 1978 
L 1159 0 
L 581 0 
L 581 3500 
L 1159 3500 
L 1159 2956 
Q 1366 3272 1645 3428 
Q 1925 3584 2291 3584 
Q 2894 3584 3203 3211 
Q 3513 2838 3513 2113 
z
" transform="scale(0.015625)"/>
       <path id="DejaVuSans-4e" d="M 628 4666 
L 1478 4666 
L 3547 763 
L 3547 4666 
L 4159 4666 
L 4159 0 
L 3309 0 
L 1241 3903 
L 1241 0 
L 628 0 
L 628 4666 
z
" transform="scale(0.015625)"/>
      </defs>
      <use xlink:href="#DejaVuSans-44"/>
      <use xlink:href="#DejaVuSans-72" x="77.001953"/>
      <use xlink:href="#DejaVuSans-65" x="115.865234"/>
      <use xlink:href="#DejaVuSans-68" x="177.388672"/>
      <use xlink:href="#DejaVuSans-6d" x="240.767578"/>
      <use xlink:href="#DejaVuSans-6f" x="338.179688"/>
      <use xlink:href="#DejaVuSans-6d" x="399.361328"/>
      <use xlink:href="#DejaVuSans-65" x="496.773438"/>
      <use xlink:href="#DejaVuSans-6e" x="558.296875"/>
      <use xlink:href="#DejaVuSans-74" x="621.675781"/>
      <use xlink:href="#DejaVuSans-20" x="660.884766"/>
      <use xlink:href="#DejaVuSans-5b" x="692.671875"/>
      <use xlink:href="#DejaVuSans-4e" x="731.685547"/>
      <use xlink:href="#DejaVuSans-6d" x="806.490234"/>
      <use xlink:href="#DejaVuSans-5d" x="903.902344"/>
     </g>
    </g>
   </g>
   <g id="line2d_27">
    <path d="M 41.680938 4.578301 
L 41.740108 4.667363 
L 42.089677 4.548099 
L 42.300017 4.609105 
L 42.474894 4.63056 
L 43.919183 4.612304 
L 44.150584 4.574445 
L 44.8254 4.56596 
L 45.017557 4.522697 
L 45.094835 4.653804 
L 45.250038 4.566528 
L 46.124761 4.596742 
L 46.447584 4.577493 
L 46.600995 4.604112 
L 47.090275 4.556237 
L 47.87757 4.573431 
L 48.043589 4.629423 
L 48.282199 4.586315 
L 48.593257 4.576366 
L 48.747719 4.60924 
L 48.919008 4.597797 
L 49.074246 4.554349 
L 49.149754 4.533793 
L 49.305412 4.594713 
L 49.713059 4.592555 
L 49.866397 4.583091 
L 50.213615 4.623991 
L 50.425479 4.481149 
L 50.735058 4.59763 
L 50.906772 4.595498 
L 51.060749 4.572286 
L 51.778973 4.560053 
L 51.950831 4.627373 
L 53.265414 4.589229 
L 53.555387 4.574342 
L 53.883499 4.579789 
L 54.887844 4.590495 
L 55.464764 4.618742 
L 55.523364 4.530647 
L 55.849685 4.633617 
L 56.409002 4.54016 
L 56.64028 4.613208 
L 56.813821 4.647379 
L 57.04475 4.636086 
L 57.315844 4.591624 
L 57.602826 4.627167 
L 57.701414 4.550987 
L 57.9958 4.606179 
L 58.393899 4.580254 
L 58.644739 4.594663 
L 59.010599 4.577485 
L 60.225573 4.580597 
L 60.452142 4.662141 
L 60.554118 4.551613 
L 61.059679 4.588458 
L 61.809789 4.617124 
L 62.071159 4.626548 
L 62.251721 4.557424 
L 67.937319 4.597866 
L 68.015294 4.539878 
L 68.036108 4.589078 
L 68.922187 4.563018 
L 69.001798 4.521125 
L 69.083657 4.609624 
L 69.885464 4.577462 
L 70.041419 4.64764 
L 70.405816 4.628425 
L 70.772182 4.604016 
L 71.038441 4.618669 
L 71.481669 4.604028 
L 71.808981 4.542789 
L 72.194657 4.607326 
L 72.502678 4.582892 
L 72.83103 4.559996 
L 73.005454 4.597647 
L 73.158952 4.542916 
L 73.313448 4.607326 
L 73.796134 4.588126 
L 74.746597 4.574325 
L 75.382027 4.591778 
L 75.714484 4.617909 
L 76.251823 4.591631 
L 76.90603 4.603461 
L 77.444602 4.565883 
L 78.332914 4.662151 
L 78.73342 4.548164 
L 79.263468 4.557503 
L 79.53175 4.597045 
L 80.169357 4.639093 
L 80.324145 4.565805 
L 81.596456 4.594891 
L 81.674927 4.547954 
L 81.931933 4.68445 
L 82.118264 4.586052 
L 82.156784 4.614439 
L 82.467359 4.610169 
L 83.066231 4.551761 
L 83.366677 4.593907 
L 83.509628 4.609447 
L 83.990697 4.625991 
L 84.227032 4.559808 
L 84.461541 4.624172 
L 85.519477 4.572198 
L 85.692101 4.59454 
L 87.006935 4.565868 
L 87.145823 4.679174 
L 87.164782 4.580664 
L 89.575575 4.573552 
L 89.80773 4.592208 
L 90.119475 4.606043 
L 90.339111 4.570754 
L 90.50213 4.627381 
L 90.603433 4.574448 
L 91.100931 4.600807 
L 91.159021 4.659055 
L 91.351347 4.547055 
L 91.389882 4.598517 
L 91.813281 4.574313 
L 92.210472 4.618085 
L 92.39394 4.598852 
L 92.516786 4.662166 
L 92.742176 4.556515 
L 93.419227 4.560539 
L 93.804802 4.551266 
L 94.178093 4.577719 
L 94.270651 4.531831 
L 94.34831 4.658171 
L 94.426417 4.592352 
L 95.381447 4.565034 
L 95.85271 4.554227 
L 96.100294 4.593398 
L 96.49004 4.600898 
L 98.818726 4.586265 
L 98.962723 4.579744 
L 100.010033 4.610665 
L 100.016352 4.557425 
L 100.035003 4.65355 
L 100.075042 4.584705 
L 100.330802 4.60715 
L 100.964349 4.612821 
L 101.15783 4.541056 
L 101.272576 4.615578 
L 101.428059 4.57743 
L 102.241498 4.628181 
L 102.570881 4.586357 
L 103.015326 4.636699 
L 103.361089 4.60786 
L 103.746645 4.630753 
L 103.767382 4.546464 
L 103.823301 4.586006 
L 104.591975 4.597363 
L 104.616364 4.582452 
L 104.808989 4.615598 
L 105.019483 4.61996 
L 105.558692 4.578483 
L 105.693998 4.583184 
L 105.928992 4.621698 
L 105.983777 4.509462 
L 106.140325 4.592439 
L 108.245757 4.60351 
L 108.724695 4.571124 
L 108.860721 4.603761 
L 109.131086 4.528933 
L 109.325654 4.63061 
L 109.343688 4.574464 
L 109.709793 4.656896 
L 109.750698 4.57118 
L 109.979655 4.600877 
L 110.519617 4.614536 
L 110.599203 4.550293 
L 110.783757 4.59785 
L 110.847945 4.542706 
L 111.00194 4.606474 
L 126.954907 4.571504 
L 127.167181 4.613827 
L 127.20985 4.53826 
L 127.283007 4.612751 
L 128.256678 4.55128 
L 128.484517 4.606311 
L 128.655087 4.580338 
L 129.334439 4.565683 
L 129.486585 4.598016 
L 129.892411 4.588515 
L 130.611449 4.592267 
L 132.366503 4.611786 
L 132.674562 4.577456 
L 132.77068 4.604126 
L 133.082673 4.618096 
L 133.236679 4.656023 
L 133.62177 4.586046 
L 133.661091 4.639036 
L 133.73821 4.538666 
L 133.794982 4.612402 
L 134.026494 4.601059 
L 134.122899 4.521902 
L 134.372496 4.626567 
L 134.66498 4.559578 
L 134.988683 4.619045 
L 135.260349 4.600245 
L 135.985843 4.552086 
L 136.089704 4.631955 
L 136.107574 4.565127 
L 136.824853 4.603351 
L 136.917827 4.542841 
L 137.167891 4.594645 
L 137.458426 4.551184 
L 138.667927 4.610021 
L 138.841156 4.581508 
L 138.976658 4.597853 
L 171.317278 4.559998 
L 171.395683 4.677621 
L 171.433456 4.624244 
L 171.914746 4.562253 
L 172.127853 4.612744 
L 172.437851 4.588413 
L 172.551186 4.562878 
L 172.859506 4.620477 
L 173.091544 4.568099 
L 175.145798 4.612742 
L 175.474207 4.565844 
L 175.980712 4.648011 
L 176.35538 4.618706 
L 176.663423 4.596753 
L 176.818992 4.579962 
L 177.433633 4.626769 
L 178.41853 4.564708 
L 178.593658 4.49326 
L 178.823106 4.601729 
L 179.13282 4.643824 
L 179.285061 4.546295 
L 179.537245 4.618379 
L 187.039479 4.647367 
L 187.116415 4.676871 
L 187.308934 4.591587 
L 187.346823 4.65359 
L 187.539542 4.621219 
L 191.341642 4.615233 
L 191.418492 4.641467 
L 191.572547 4.566076 
L 191.899924 4.677794 
L 192.057086 4.540882 
L 192.07314 4.601014 
L 192.941829 4.589102 
L 202.641156 4.591834 
L 202.816288 4.580407 
L 203.206367 4.562888 
L 203.298467 4.615748 
L 203.530035 4.602907 
L 205.899048 4.589056 
L 206.018441 4.609309 
L 206.09238 4.641265 
L 206.419734 4.577595 
L 206.809714 4.609639 
L 207.217741 4.539564 
L 208.662798 4.64421 
L 208.778338 4.527153 
L 208.951891 4.630444 
L 209.588428 4.577499 
L 209.666277 4.56588 
L 209.820204 4.6674 
L 209.877339 4.577493 
L 210.305979 4.586919 
L 210.711627 4.566067 
L 211.046622 4.639106 
L 212.292813 4.586008 
L 213.164614 4.609187 
L 213.372248 4.59474 
L 218.98732 4.565942 
L 219.083524 4.676107 
L 219.143043 4.610525 
L 219.890464 4.592106 
L 222.418982 4.586587 
L 222.746234 4.638253 
L 223.154937 4.592439 
L 223.289584 4.638458 
L 223.536718 4.571199 
L 223.807138 4.59134 
L 223.888636 4.524724 
L 223.944178 4.601067 
L 224.095707 4.63182 
L 224.211099 4.662213 
L 224.280066 4.551182 
L 224.348482 4.597707 
L 224.885321 4.682888 
L 225.213475 4.565751 
L 225.467073 4.603115 
L 225.773013 4.59813 
L 225.965818 4.582688 
L 226.178349 4.595406 
L 226.330542 4.61164 
L 226.736165 4.635655 
L 226.890222 4.595666 
L 227.063974 4.600432 
L 227.121397 4.521258 
L 227.274924 4.627492 
L 227.526039 4.58618 
L 227.815735 4.605755 
L 227.912373 4.589825 
L 228.20154 4.597696 
L 228.491304 4.589825 
L 228.710355 4.591834 
L 229.588931 4.612541 
L 229.743137 4.580968 
L 230.244795 4.597777 
L 230.476842 4.576664 
L 231.53683 4.641347 
L 231.749655 4.565694 
L 231.943611 4.647615 
L 232.008874 4.57431 
L 232.058672 4.618844 
L 233.185826 4.569002 
L 233.340516 4.644469 
L 233.821902 4.585893 
L 234.149693 4.577806 
L 234.459561 4.597674 
L 236.534253 4.59163 
L 236.759594 4.559558 
L 237.165361 4.595284 
L 315.139848 4.61279 
L 315.139996 4.496051 
L 315.204953 4.570924 
L 315.836049 4.552008 
L 316.838279 4.574412 
L 316.875902 4.615948 
L 316.933259 4.559525 
L 317.510958 4.604158 
L 317.769332 4.571215 
L 318.459858 4.621767 
L 318.610314 4.604166 
L 319.015251 4.597746 
L 322.430637 4.635456 
L 322.520828 4.497997 
L 322.585854 4.592282 
L 323.160651 4.632956 
L 323.392369 4.52512 
L 323.643928 4.656336 
L 324.067383 4.562897 
L 324.223888 4.591413 
L 324.589084 4.624582 
L 324.992459 4.577759 
L 325.325301 4.603994 
L 325.512853 4.601079 
L 325.725136 4.563451 
L 325.976035 4.609966 
L 326.264886 4.598614 
L 326.824363 4.59227 
L 332.410864 4.574242 
L 332.568594 4.589998 
L 332.719646 4.565467 
L 334.207623 4.620291 
L 334.320347 4.570225 
L 334.37922 4.673681 
L 334.60936 4.623673 
L 336.054025 4.588576 
L 336.635884 4.579816 
L 336.864039 4.594692 
L 337.407353 4.583226 
L 337.75089 4.592367 
L 337.98229 4.542827 
L 338.294266 4.591994 
L 338.47174 4.592462 
L 338.622583 4.548074 
L 338.907021 4.571241 
L 339.215694 4.556835 
L 339.253919 4.632863 
L 339.332121 4.572333 
L 340.375129 4.633649 
L 340.529592 4.548878 
L 340.699264 4.589056 
L 340.762737 4.551455 
L 340.931507 4.608491 
L 342.648067 4.595532 
L 342.841837 4.570043 
L 342.922389 4.630292 
L 343.033657 4.536236 
L 343.322869 4.5946 
L 343.633515 4.61042 
L 346.590778 4.59235 
L 346.628133 4.527315 
L 346.671727 4.624206 
L 346.916704 4.61047 
L 347.455815 4.618351 
L 348.931916 4.598017 
L 348.991484 4.515929 
L 349.14437 4.607345 
L 349.470799 4.553658 
L 349.701973 4.61817 
L 350.414662 4.586457 
L 350.591234 4.589056 
L 351.901962 4.615247 
L 352.002959 4.588603 
L 352.056021 4.519228 
L 352.094214 4.611586 
L 352.64258 4.59798 
L 353.908705 4.576677 
L 353.942489 4.507911 
L 354.030758 4.635916 
L 354.105227 4.562744 
L 354.332808 4.60717 
L 354.489046 4.5544 
L 354.701045 4.664585 
L 354.71952 4.576773 
" clip-path="url(#p65f626103a)" style="fill: none; stroke: #0000ff; stroke-opacity: 0.5; stroke-width: 2.1; stroke-linecap: square"/>
   </g>
   <g id="line2d_28">
    <path d="M 41.680938 121.534497 
L 41.846564 127.273145 
L 41.913584 124.431632 
L 42.032627 130.630395 
L 42.169168 122.341241 
L 42.224983 126.909809 
L 42.300017 125.763969 
L 42.377598 124.823715 
L 42.558262 133.247962 
L 42.782408 122.081839 
L 42.858949 121.395638 
L 42.936548 126.229883 
L 43.186926 117.921058 
L 43.360114 106.864856 
L 43.686835 118.04864 
L 43.879683 112.84502 
L 43.997734 117.838296 
L 44.073191 115.480605 
L 44.150584 117.960161 
L 44.285344 116.765482 
L 44.381824 103.767046 
L 44.459799 104.291339 
L 44.863167 121.373061 
L 45.008536 110.867728 
L 45.017557 111.613864 
L 45.172398 116.122648 
L 45.250038 115.841746 
L 45.409852 124.235843 
L 45.579596 107.790837 
L 45.734324 110.100439 
L 45.811248 107.750129 
L 45.965479 122.175494 
L 46.124761 110.571837 
L 46.215579 113.511776 
L 46.600995 136.539682 
L 46.717819 133.586618 
L 46.762193 128.058721 
L 46.836298 130.508061 
L 46.931628 129.624429 
L 47.008747 125.471184 
L 47.16312 130.693423 
L 47.318258 116.28779 
L 47.553456 120.990389 
L 47.646073 117.551779 
L 47.72317 121.957028 
L 47.800898 121.874245 
L 47.955266 114.752701 
L 48.282199 124.220242 
L 48.360149 123.518054 
L 48.451357 125.005846 
L 48.593257 121.826195 
L 48.919008 129.372402 
L 49.074246 124.670914 
L 49.149754 121.956 
L 49.387991 130.796826 
L 49.481137 133.455331 
L 49.713059 120.155828 
L 49.866397 129.085396 
L 50.020587 135.212259 
L 50.213615 131.04578 
L 50.367651 121.089588 
L 50.425479 128.853698 
L 50.560211 123.723048 
L 50.735058 112.584958 
L 50.829277 112.625098 
L 50.906772 116.542828 
L 50.984006 114.44539 
L 51.238599 121.492117 
L 51.37858 130.771335 
L 51.469102 130.532777 
L 51.622709 124.760731 
L 51.778973 123.321453 
L 51.950831 127.787476 
L 52.111307 119.24132 
L 52.195871 120.721341 
L 52.208267 112.750965 
L 52.267932 123.315159 
L 52.361305 122.614154 
L 52.500012 126.496679 
L 52.740742 119.909706 
L 52.819576 121.160268 
L 52.923163 122.987491 
L 53.088331 116.318172 
L 53.106364 119.275281 
L 53.225612 129.016335 
L 53.335359 121.275541 
L 53.33591 122.719831 
L 53.421001 121.508368 
L 53.478895 124.803932 
L 53.633625 119.655756 
L 53.808726 131.693525 
L 54.057081 121.98885 
L 54.114941 123.956989 
L 54.1729 133.718938 
L 54.404831 126.026863 
L 54.58431 117.133591 
L 54.693223 119.220683 
L 54.791156 116.25498 
L 54.887844 123.669223 
L 55.071474 116.243318 
L 55.25253 124.77427 
L 55.396049 120.840045 
L 55.523364 124.166271 
L 55.849685 105.403954 
L 56.128855 119.593661 
L 56.235085 119.027477 
L 56.311933 117.090042 
L 56.64028 142.478338 
L 56.967152 126.755545 
L 57.121705 123.25229 
L 57.218219 124.342862 
L 57.315844 129.436397 
L 57.37203 126.917962 
L 57.44945 127.951291 
L 57.52604 126.862836 
L 57.602826 130.010944 
L 57.701414 129.441424 
L 57.892122 133.152113 
L 57.930375 128.285817 
L 57.9958 130.895429 
L 58.084076 130.671547 
L 58.238708 114.779515 
L 58.349474 119.846176 
L 58.393899 118.673849 
L 58.489365 118.281758 
L 58.644739 121.119732 
L 58.81177 115.88385 
L 59.010599 125.090335 
L 59.068213 124.734218 
L 59.204294 127.079636 
L 59.280134 126.525164 
L 59.435387 119.242075 
L 59.6092 127.4121 
L 59.762987 119.079464 
L 59.878453 121.163158 
L 59.937367 115.348718 
L 60.225573 117.526169 
L 60.283315 119.632956 
L 60.476359 110.930705 
L 60.554118 113.906982 
L 60.650847 113.548361 
L 60.727448 113.313045 
L 60.845986 115.898532 
L 60.963592 121.783283 
L 61.059679 115.753792 
L 61.127852 119.148255 
L 61.208376 116.709445 
L 61.344361 118.738563 
L 61.615817 111.520568 
L 61.753482 113.144676 
L 61.905314 116.268221 
L 61.975266 114.049073 
L 61.99386 116.830912 
L 62.163195 117.139518 
L 62.365417 124.325163 
L 62.556796 109.810871 
L 62.632886 110.809537 
L 62.710176 111.505544 
L 62.863789 110.355755 
L 62.94141 110.538882 
L 63.174857 119.209256 
L 63.191758 119.136554 
L 63.268379 119.854063 
L 63.346178 118.208432 
L 63.538278 120.934973 
L 63.674429 117.875926 
L 63.736573 120.290246 
L 63.987646 110.817321 
L 64.006717 106.759161 
L 64.083658 108.360056 
L 64.139458 111.565676 
L 64.295606 111.797251 
L 64.409634 115.948119 
L 64.468561 109.811893 
L 64.546575 110.095981 
L 65.027332 126.642696 
L 65.20186 120.585525 
L 65.340204 136.970341 
L 65.566818 129.125351 
L 65.66425 128.132364 
L 65.682691 120.64596 
L 66.090365 123.123069 
L 66.511313 122.329039 
L 66.960918 114.517509 
L 67.381169 116.589098 
L 67.398198 126.41108 
L 67.493747 124.728646 
L 67.726679 126.134697 
L 68.015294 115.380674 
L 68.036108 122.72247 
L 68.207738 131.190484 
L 68.266885 130.368024 
L 68.284995 126.440263 
L 68.557166 117.87741 
L 68.824941 125.520615 
L 68.922187 120.734188 
L 69.001798 121.642306 
L 69.083657 124.256213 
L 69.327448 144.69343 
L 69.423286 142.800193 
L 69.672591 131.464761 
L 69.758168 131.316124 
L 69.885464 130.311251 
L 70.041419 119.496627 
L 70.193832 128.86502 
L 70.272074 125.467091 
L 70.565101 119.257439 
L 70.618079 123.864353 
L 70.719994 123.41586 
L 70.850279 113.714189 
L 70.922633 114.789778 
L 71.156437 123.504409 
L 71.255016 122.739681 
L 71.308289 119.915811 
L 71.385765 121.531813 
L 71.734251 129.261471 
L 71.944505 123.472313 
L 72.040669 124.459777 
L 72.194657 120.810545 
L 72.293074 123.651448 
L 72.387202 134.634687 
L 72.444666 128.896896 
L 72.599787 115.211472 
L 72.908382 130.242593 
L 73.158952 110.933789 
L 73.218643 116.829741 
L 73.313448 122.225973 
L 73.390857 121.150572 
L 73.467004 112.807095 
L 73.544696 113.989549 
L 73.796134 122.074267 
L 73.960419 122.133114 
L 73.960741 124.26886 
L 74.055171 121.336982 
L 74.344212 118.123212 
L 74.497799 102.39999 
L 74.881545 115.18292 
L 74.900759 111.407084 
L 74.977188 112.527586 
L 75.056656 115.601145 
L 75.151263 112.603026 
L 75.304824 126.220959 
L 75.593172 117.861142 
L 75.714484 121.041195 
L 75.768028 121.146043 
L 75.862357 122.219727 
L 75.944149 126.350341 
L 76.018014 125.380312 
L 76.171499 119.690208 
L 76.251823 119.798251 
L 76.461288 124.736699 
L 76.503862 124.260282 
L 76.808799 113.239901 
L 76.90603 114.809519 
L 76.982838 124.007819 
L 77.099262 124.296947 
L 77.232201 112.749839 
L 77.368372 129.098108 
L 77.444602 126.544787 
L 77.685787 125.053358 
L 77.715562 123.32546 
L 77.852579 122.428188 
L 77.906767 119.93231 
L 78.0232 126.284993 
L 78.216354 119.897193 
L 78.332914 121.79523 
L 78.446609 121.627649 
L 78.662673 131.580803 
L 78.73342 132.220431 
L 78.87934 123.116851 
L 79.145522 137.571621 
L 79.263468 136.449983 
L 79.435045 122.706884 
L 79.53175 118.561464 
L 79.689879 123.458582 
L 79.841359 112.547527 
L 80.000779 125.850679 
L 80.169357 137.651626 
L 80.536294 126.742107 
L 80.555221 127.979371 
L 80.633197 129.85839 
L 80.960377 115.171527 
L 81.10711 114.180718 
L 81.153712 118.27705 
L 81.192977 118.232411 
L 81.268016 115.656049 
L 81.287145 110.103402 
L 81.561564 117.743054 
L 81.596456 121.924035 
L 81.674927 119.419497 
L 81.931933 113.0693 
L 82.118264 120.802311 
L 82.156784 125.308218 
L 82.312693 127.780058 
L 82.358032 131.421624 
L 82.389268 127.656823 
L 82.467359 127.71866 
L 82.563452 130.044476 
L 82.705684 143.863844 
L 82.814296 141.71223 
L 82.87234 137.65826 
L 83.066231 142.568898 
L 83.199296 132.720535 
L 83.366677 132.917043 
L 83.441255 132.867313 
L 83.509628 132.056714 
L 83.683086 144.691494 
L 83.855471 133.602248 
L 83.990697 139.861782 
L 84.227032 128.613056 
L 84.32228 130.948095 
L 84.630058 117.907643 
L 84.707583 116.30503 
L 84.784332 116.646199 
L 84.962577 125.931314 
L 85.113764 119.407319 
L 85.519477 129.969314 
L 85.675688 122.510278 
L 85.827636 126.699685 
L 85.983456 118.972689 
L 86.060789 121.664713 
L 86.254029 128.894311 
L 86.310186 121.529051 
L 86.390981 124.759481 
L 86.583371 118.303994 
L 86.798086 128.035434 
L 87.006935 110.753884 
L 87.145823 111.121951 
L 87.164782 110.654513 
L 87.264151 112.024106 
L 87.417757 109.493623 
L 87.494711 103.878071 
L 87.589038 104.727162 
L 87.973587 122.899775 
L 88.050953 121.240974 
L 88.210362 127.491807 
L 88.283007 127.18026 
L 88.532702 128.468475 
L 88.693531 121.339079 
L 88.771461 126.028414 
L 88.850597 122.594843 
L 89.001526 122.045311 
L 89.152463 132.814897 
L 89.247488 121.697629 
L 89.344654 122.068848 
L 89.402776 123.45247 
L 89.518723 114.828039 
L 89.575575 117.0904 
L 89.729989 129.71004 
L 89.922751 118.81186 
L 90.03924 122.796 
L 90.119475 120.922491 
L 90.203004 121.262244 
L 90.339111 122.673907 
L 90.521901 102.947185 
L 90.830237 118.619454 
L 90.926568 118.3803 
L 91.005917 119.325883 
L 91.389882 137.207288 
L 91.640055 132.279899 
L 92.064728 143.224579 
L 92.210472 130.561046 
L 92.39394 126.186169 
L 92.606422 124.315243 
L 92.742176 118.798544 
L 92.935152 118.488174 
L 93.165704 125.088194 
L 93.233798 121.397293 
L 93.244204 123.003569 
L 93.336113 128.070101 
L 93.419227 120.866516 
L 93.461855 121.794004 
L 93.592951 118.398373 
L 93.636679 120.333534 
L 93.728669 120.163624 
L 93.804802 119.63707 
L 93.862293 120.426778 
L 94.01687 119.341633 
L 94.076858 119.874676 
L 94.11646 112.30397 
L 94.178093 118.076012 
L 94.270651 118.970582 
L 94.426417 112.414335 
L 94.501799 116.978932 
L 94.656762 105.786219 
L 94.675525 109.694785 
L 94.913839 115.589938 
L 94.984192 110.05262 
L 95.06051 111.033477 
L 95.222615 127.107747 
L 95.381447 120.199892 
L 95.466084 120.758124 
L 95.620918 119.269585 
L 95.69575 119.431715 
L 95.85271 127.69864 
L 96.023894 110.557946 
L 96.100294 111.198843 
L 96.254655 117.629919 
L 96.331253 117.820253 
L 96.41084 119.626831 
L 96.49004 126.052031 
L 96.660281 116.277856 
L 96.737081 117.061872 
L 96.968362 128.356881 
L 97.141595 122.571203 
L 97.219573 124.136882 
L 97.296609 121.175846 
L 97.374299 123.21673 
L 97.4504 118.591814 
L 97.607369 121.21659 
L 97.778364 114.518413 
L 97.855428 124.998351 
L 97.928512 120.288397 
L 98.009169 113.406127 
L 98.086621 116.649762 
L 98.173186 113.521148 
L 98.319396 123.370844 
L 98.397329 120.997774 
L 98.568426 122.713351 
L 98.649008 116.94393 
L 98.818726 129.204056 
L 98.878012 121.629515 
L 98.962723 126.622185 
L 99.051277 121.436007 
L 99.127803 122.190307 
L 99.204965 125.887301 
L 99.284267 122.935035 
L 99.437233 125.164862 
L 99.611964 118.073351 
L 99.6744 128.983243 
L 99.767025 126.788165 
L 100.035003 120.121696 
L 100.075042 122.264938 
L 100.234455 120.201296 
L 100.330802 127.520752 
L 100.480925 124.799006 
L 100.53882 118.132144 
L 100.558689 120.123082 
L 100.712674 129.695458 
L 101.15783 117.412261 
L 101.272576 125.779651 
L 101.547257 118.422036 
L 101.763732 126.154894 
L 101.7789 117.900789 
L 101.83605 120.191771 
L 101.971217 118.704241 
L 102.067564 116.225088 
L 102.31856 127.645743 
L 102.337967 123.988793 
L 102.530507 119.09322 
L 102.570881 120.152493 
L 102.647721 119.682925 
L 102.726227 128.828377 
L 103.110635 118.007717 
L 103.188512 126.322067 
L 103.285443 126.316865 
L 103.361089 121.060285 
L 103.439062 122.043051 
L 103.631713 114.832867 
L 103.746645 117.437126 
L 103.823301 112.15673 
L 103.901254 117.267041 
L 103.978215 109.864773 
L 104.190202 123.104428 
L 104.269407 119.853239 
L 104.364401 123.028315 
L 104.421857 129.19985 
L 104.518608 128.964579 
L 104.591975 132.763425 
L 104.616364 129.172598 
L 104.866113 124.17806 
L 104.981212 124.661799 
L 105.019483 125.781505 
L 105.327783 117.707942 
L 105.366691 118.144618 
L 105.549285 113.782649 
L 105.558692 115.32492 
L 105.616603 117.989423 
L 105.693998 116.555992 
L 105.772571 115.043463 
L 105.928992 125.282936 
L 105.983777 120.929559 
L 106.06092 120.61507 
L 106.140325 119.155711 
L 106.302122 129.902306 
L 106.374172 125.422202 
L 106.545051 121.013995 
L 106.622338 112.719336 
L 106.705566 114.733516 
L 106.777216 118.845172 
L 106.854714 117.54857 
L 106.968641 115.916591 
L 107.011485 111.436994 
L 107.199869 107.195212 
L 107.433338 117.227679 
L 107.492118 114.8229 
L 107.586378 109.9895 
L 107.645051 111.575569 
L 107.800953 115.394872 
L 107.837941 121.04383 
L 107.920268 117.929119 
L 107.971222 118.853443 
L 108.245757 115.857962 
L 108.532292 121.108209 
L 108.607437 121.451433 
L 108.651227 114.78562 
L 108.724695 117.939935 
L 108.784293 121.031645 
L 108.860721 120.838662 
L 108.939757 120.404131 
L 109.131086 112.009255 
L 109.325654 117.778235 
L 109.440172 122.846468 
L 109.499366 121.946093 
L 109.593889 122.72054 
L 109.750698 130.064957 
L 109.903953 138.612384 
L 110.133666 124.547012 
L 110.210864 125.862991 
L 110.294177 130.406374 
L 110.692179 115.083569 
L 110.847945 124.987912 
L 111.136076 116.857102 
L 111.212746 117.346625 
L 111.251884 118.843112 
L 111.42548 113.520298 
L 111.502174 119.127093 
L 111.561341 114.558712 
L 111.657471 117.227721 
L 111.73691 117.111123 
L 111.831242 112.306387 
L 112.043426 116.16008 
L 112.207944 122.274779 
L 112.275807 120.537394 
L 112.410703 124.57929 
L 112.49122 123.708886 
L 112.526006 124.437475 
L 112.679329 118.735794 
L 112.782987 120.342424 
L 112.833953 127.194836 
L 112.992467 133.096049 
L 113.079205 132.749076 
L 113.239052 129.069593 
L 113.316158 130.092004 
L 113.393728 136.475545 
L 113.478825 136.459792 
L 113.627782 132.995278 
L 113.724773 121.026932 
L 113.782564 116.480961 
L 113.876666 117.349568 
L 113.953177 117.224867 
L 114.435258 107.619599 
L 114.512526 108.508437 
L 114.590344 111.328155 
L 114.743897 102.694014 
L 114.829953 105.671407 
L 114.901269 104.16795 
L 115.303237 116.820586 
L 115.380136 113.871386 
L 115.569658 120.027557 
L 115.629381 114.390845 
L 115.707294 116.875257 
L 115.784248 113.794915 
L 115.942285 117.299966 
L 116.095447 113.271416 
L 116.190102 118.615828 
L 116.268194 113.711302 
L 116.426352 124.817695 
L 116.575089 124.45 
L 116.737225 116.322328 
L 116.809462 120.519256 
L 116.911374 119.378061 
L 117.02391 112.778135 
L 117.058769 114.897824 
L 117.138834 113.827159 
L 117.29165 121.425696 
L 117.310111 120.557525 
L 117.369253 115.50936 
L 117.445873 116.404098 
L 117.543858 119.924 
L 117.62111 117.28545 
L 117.773566 122.096759 
L 118.011748 115.489312 
L 118.100916 114.021542 
L 118.18408 118.365361 
L 118.25888 115.970283 
L 118.375536 117.14209 
L 118.501751 116.477443 
L 118.649315 126.784042 
L 118.722493 132.779417 
L 118.799666 130.566755 
L 118.952773 128.072661 
L 118.991028 124.772428 
L 119.060672 125.206328 
L 119.126541 126.828036 
L 119.281178 126.39252 
L 119.357142 129.161669 
L 119.395817 128.392985 
L 119.495326 122.090166 
L 119.60945 110.255837 
L 119.782585 114.257443 
L 119.916679 120.793862 
L 120.090746 114.714296 
L 120.167669 117.411698 
L 120.378975 125.555031 
L 120.422356 129.102558 
L 120.480606 125.325266 
L 120.553694 125.685748 
L 120.727926 118.498675 
L 120.88238 125.867912 
L 120.979872 120.163986 
L 121.114294 120.286911 
L 121.133323 122.065375 
L 121.268026 122.134097 
L 121.346902 127.600015 
L 121.367954 126.134346 
L 121.461093 125.218652 
L 121.518518 129.584999 
L 121.604933 126.428614 
L 121.752353 129.233983 
L 121.881551 129.278736 
L 121.928369 129.651743 
L 122.001964 129.230057 
L 122.077966 126.794573 
L 122.232004 130.34334 
L 122.347729 126.985726 
L 122.424752 129.059434 
L 122.541385 123.180859 
L 122.656799 138.097411 
L 122.791487 129.38252 
L 122.869197 132.522021 
L 122.966863 129.345033 
L 123.025952 135.553041 
L 123.119226 135.196979 
L 123.216273 131.985115 
L 123.335336 138.152766 
L 123.370131 135.854414 
L 123.486071 125.534632 
L 123.511732 126.920661 
L 123.620919 132.318162 
L 123.833289 115.610092 
L 123.986378 118.954598 
L 124.141346 112.127673 
L 124.313558 121.584693 
L 124.410123 117.263596 
L 124.487242 117.666058 
L 124.58398 122.089779 
L 124.662328 120.031798 
L 124.797524 130.907948 
L 124.876523 129.498605 
L 124.952412 127.656495 
L 125.144814 118.218345 
L 125.182921 122.562188 
L 125.298987 122.523722 
L 125.433346 133.998446 
L 125.684863 118.239621 
L 125.781127 118.190382 
L 125.821728 122.88997 
L 125.915712 120.689143 
L 125.993045 112.942143 
L 126.069888 117.377969 
L 126.225841 115.666429 
L 126.298673 107.822051 
L 126.31348 110.650778 
L 126.487847 123.097753 
L 126.647529 116.367105 
L 126.78218 126.538678 
L 126.954907 116.460905 
L 127.109857 120.213446 
L 127.20985 114.076343 
L 127.283007 115.581418 
L 127.351978 120.514091 
L 127.515457 114.40501 
L 127.790128 126.957876 
L 127.827279 126.701435 
L 127.901761 128.503044 
L 127.978397 127.198739 
L 128.075017 121.130234 
L 128.256678 125.856726 
L 128.346111 124.8946 
L 128.484517 121.80929 
L 128.564069 119.734776 
L 128.771131 125.493625 
L 128.831035 120.005408 
L 128.959871 120.281909 
L 129.100725 118.123906 
L 129.184736 122.155542 
L 129.22278 119.756573 
L 129.255318 116.985416 
L 129.334439 120.338416 
L 129.408644 117.657004 
L 129.486585 120.390052 
L 129.625748 120.960932 
L 129.815265 123.790416 
L 129.892411 120.777095 
L 130.123738 125.338071 
L 130.24099 123.042672 
L 130.395342 124.974208 
L 130.611449 120.507227 
L 130.684175 123.57522 
L 130.763704 121.546825 
L 130.85968 124.255214 
L 131.11064 120.049662 
L 131.247284 134.389573 
L 131.32415 130.685123 
L 131.406662 133.190136 
L 131.421233 123.123779 
L 131.497249 130.807785 
L 131.690647 139.785142 
L 131.731042 139.268534 
L 131.812897 138.93267 
L 132.037685 118.950463 
L 132.212848 125.832696 
L 132.366503 120.978411 
L 132.451092 114.291172 
L 132.529006 116.085717 
L 132.674562 117.80896 
L 132.712781 126.572975 
L 132.77068 122.98901 
L 132.928083 128.339317 
L 133.005353 127.642794 
L 133.082673 122.768488 
L 133.236679 125.763128 
L 133.487295 112.143041 
L 133.62177 114.568772 
L 133.73821 108.362557 
L 133.87207 118.035973 
L 133.949273 111.795044 
L 134.026494 112.874963 
L 134.218685 121.034764 
L 134.319671 119.55985 
L 134.453827 134.1739 
L 134.585193 116.189125 
L 134.66498 117.004354 
L 134.75839 124.425715 
L 134.849995 122.530188 
L 134.988683 129.88813 
L 135.163265 121.117373 
L 135.260349 122.801142 
L 135.355369 120.556726 
L 135.509651 130.880743 
L 135.721792 116.674402 
L 135.822664 116.552147 
L 135.985843 122.548044 
L 136.107574 118.123254 
L 136.2425 116.924918 
L 136.281624 111.451733 
L 136.358764 114.304397 
L 136.455269 118.477366 
L 136.532017 116.724487 
L 136.608743 118.294056 
L 136.668556 116.076335 
L 136.763086 108.136182 
L 136.824853 112.042718 
L 137.072641 123.333746 
L 137.150538 123.139685 
L 137.167891 118.120356 
L 137.247268 119.783376 
L 137.535473 132.360873 
L 137.631751 130.266509 
L 137.95622 144.986605 
L 138.26397 133.551562 
L 138.342329 139.118456 
L 138.437549 138.907565 
L 138.65218 119.083852 
L 138.667927 120.315102 
L 138.783065 120.019836 
L 138.841156 121.034336 
L 138.903257 120.53917 
L 138.917932 131.740405 
L 138.976658 119.19318 
L 139.075545 118.049524 
L 139.171344 108.969782 
L 139.227836 110.475274 
L 139.440388 120.693729 
L 139.542259 118.278596 
L 139.614493 120.047317 
L 139.711275 117.858577 
L 139.790844 124.470205 
L 139.85068 122.77767 
L 139.974443 123.788933 
L 140.104852 117.985497 
L 140.119488 109.126297 
L 140.197747 117.957002 
L 140.3294 125.562219 
L 140.407461 121.772297 
L 140.503342 123.319433 
L 140.56762 118.222971 
L 140.697219 118.138345 
L 140.891472 122.544093 
L 140.927408 121.643725 
L 141.178659 102.982829 
L 141.295468 110.044289 
L 141.449702 112.084418 
L 141.526048 116.709394 
L 141.604105 112.464952 
L 141.699866 112.91643 
L 141.777318 120.248552 
L 141.873656 118.47366 
L 141.932421 120.559068 
L 142.029803 120.111273 
L 142.182787 112.439483 
L 142.243746 115.590805 
L 142.355884 107.035541 
L 142.530659 112.921427 
L 142.569527 105.211016 
L 142.646345 106.240184 
L 142.935731 117.842926 
L 143.053211 115.617718 
L 143.246485 112.086648 
L 143.438563 121.338924 
L 143.688748 110.987333 
L 143.844429 122.765269 
L 143.919653 120.494213 
L 144.073447 124.068056 
L 144.268763 117.849302 
L 144.40187 127.229259 
L 144.479812 126.980692 
L 144.632955 116.017433 
L 144.78886 119.856422 
L 144.883458 119.593365 
L 145.039476 131.111093 
L 145.114523 121.392174 
L 145.288439 113.87416 
L 145.36011 123.782204 
L 145.544651 124.694263 
L 145.655727 124.365395 
L 145.755144 119.873212 
L 145.828729 112.359705 
L 146.003758 123.334318 
L 146.074482 120.332539 
L 146.145112 119.243315 
L 146.311054 120.656847 
L 146.442538 120.150879 
L 146.551388 130.955926 
L 146.654983 129.000345 
L 146.790345 118.130536 
L 147.040776 122.82782 
L 147.18451 128.116596 
L 147.352742 115.357493 
L 147.456847 119.124755 
L 147.534816 120.924979 
L 147.572774 117.845598 
L 147.764991 127.407436 
L 147.938562 117.106622 
L 147.995785 119.742618 
L 148.13287 119.7012 
L 148.247494 113.047414 
L 148.324613 130.652051 
L 148.385017 127.385613 
L 148.61907 109.933046 
L 148.730623 109.099519 
L 148.788665 105.359967 
L 148.851562 106.958012 
L 149.021297 127.01729 
L 149.292995 119.43779 
L 149.503722 123.840807 
L 149.657769 136.613151 
L 149.967306 116.379169 
L 150.26479 123.247082 
L 150.372124 119.60136 
L 150.491855 100.599627 
L 150.545367 106.738292 
L 150.624017 112.875529 
L 150.700135 111.127506 
L 150.799536 110.779622 
L 151.277968 128.79285 
L 151.413775 121.798734 
L 151.575766 130.042315 
L 151.644944 120.97787 
L 151.722364 121.827864 
L 151.899161 129.668193 
L 152.282567 121.544727 
L 152.397637 124.034917 
L 152.493043 129.128964 
L 152.531979 126.908234 
L 152.686545 122.217938 
L 152.820497 121.847582 
L 152.9547 118.220192 
L 152.995707 122.731662 
L 153.108626 121.189565 
L 153.168754 116.124885 
L 153.246635 122.173217 
L 153.437167 110.770075 
L 153.478466 113.090603 
L 153.643148 118.210541 
L 153.740514 116.796398 
L 153.757153 109.675766 
L 153.818781 112.025866 
L 154.029686 126.907951 
L 154.066895 123.119213 
L 154.202118 124.026623 
L 154.223658 125.05671 
L 154.278093 125.024638 
L 154.354784 123.244121 
L 154.43389 124.472876 
L 154.509631 132.662376 
L 154.605457 130.822506 
L 154.818548 121.612897 
L 154.992221 132.04527 
L 155.165323 129.17487 
L 155.273291 128.155958 
L 155.397717 119.424913 
L 155.478636 126.316223 
L 155.58963 123.60011 
L 155.647937 113.438182 
L 155.725092 115.118988 
L 155.899858 106.429798 
L 155.955909 113.816278 
L 156.188546 117.656544 
L 156.214159 122.605161 
L 156.283555 116.426084 
L 156.340978 117.203566 
L 156.707103 128.990201 
L 156.920698 118.746564 
L 157.057886 128.316093 
L 157.151433 123.726293 
L 157.30558 130.401064 
L 157.402466 127.833895 
L 157.538852 135.775042 
L 157.633738 135.161488 
L 157.711181 138.523289 
L 157.787212 128.4775 
L 157.866304 129.702513 
L 157.943041 132.175141 
L 158.101278 123.257855 
L 158.192267 126.514554 
L 158.268668 117.88744 
L 158.407627 121.555046 
L 158.460942 120.107793 
L 158.519298 117.490446 
L 158.615163 118.924047 
L 158.694203 113.831799 
L 158.826484 126.565182 
L 158.904357 123.957894 
L 158.980712 121.169599 
L 159.061979 125.952994 
L 159.076543 122.795908 
L 159.153904 121.420624 
L 159.231755 126.185565 
L 159.308165 123.597141 
L 159.482477 129.92795 
L 159.598324 128.586716 
L 159.63617 123.142757 
L 159.694462 129.375167 
L 159.827074 129.737264 
L 159.867519 129.106109 
L 160.021559 129.781073 
L 160.082416 122.019868 
L 160.137425 131.045062 
L 160.195174 129.166808 
L 160.278647 124.816576 
L 160.334828 125.220696 
L 160.646515 118.439164 
L 160.778507 119.080923 
L 160.818834 124.105441 
L 160.915283 121.864188 
L 161.127229 133.024443 
L 161.203979 131.957957 
L 161.300145 134.541619 
L 161.435875 134.679225 
L 161.476967 137.558201 
L 161.611651 133.234009 
L 161.938677 121.216268 
L 162.016456 125.005568 
L 162.173162 120.484228 
L 162.249485 120.657671 
L 162.428358 123.546402 
L 162.48459 121.610121 
L 162.559353 122.183234 
L 162.653586 121.86668 
L 162.807262 117.178235 
L 162.924571 117.380646 
L 163.117669 125.122152 
L 163.195608 126.721691 
L 163.445544 117.921756 
L 163.521687 116.197872 
L 163.599163 119.022109 
L 163.675753 118.230173 
L 163.926622 110.228716 
L 164.004277 110.417462 
L 164.319259 123.397878 
L 164.390525 121.323897 
L 164.563319 123.875226 
L 164.639889 123.346137 
L 164.717755 123.884403 
L 164.795576 122.755981 
L 164.87284 125.791816 
L 165.046851 134.447457 
L 165.10905 131.105424 
L 165.20156 131.985774 
L 165.299577 131.717719 
L 165.357374 130.642864 
L 165.4338 130.778673 
L 165.519328 131.995326 
L 165.588452 129.882559 
L 165.675141 130.773536 
L 165.757392 126.063494 
L 165.839001 127.197579 
L 165.916981 126.194116 
L 166.073424 122.124076 
L 166.153409 124.87777 
L 166.224245 122.387621 
L 166.302217 122.751236 
L 166.461661 117.652837 
L 166.630655 111.249291 
L 166.782134 115.20909 
L 166.865108 114.264612 
L 167.018995 120.859107 
L 167.128886 118.649325 
L 167.267262 128.075804 
L 167.360224 125.787699 
L 167.438375 126.416047 
L 167.594269 125.300555 
L 167.814739 115.809743 
L 167.92406 119.673797 
L 168.059004 109.383472 
L 168.167052 109.12224 
L 168.21419 110.854372 
L 168.374319 108.064667 
L 168.541969 117.929051 
L 168.701385 117.231106 
L 168.793233 122.942669 
L 168.947178 123.945139 
L 169.102036 130.064585 
L 169.198011 130.166949 
L 169.409851 119.827728 
L 169.487526 123.292959 
L 169.506191 119.186613 
L 169.584755 118.932955 
L 169.698784 122.305206 
L 169.777048 121.688741 
L 169.892005 112.254607 
L 170.123805 122.51939 
L 170.22017 119.649159 
L 170.315395 119.624119 
L 170.471538 112.036095 
L 170.797325 122.350813 
L 170.859438 124.209073 
L 170.94021 121.946885 
L 171.02832 123.558803 
L 171.182751 134.965871 
L 171.317278 134.970246 
L 171.395683 130.917414 
L 171.491469 131.523691 
L 171.568418 131.991347 
L 171.725742 131.087753 
L 171.742273 134.790576 
L 171.819373 133.770364 
L 171.914746 128.020774 
L 171.974519 128.887687 
L 172.21065 134.53709 
L 172.281826 134.488029 
L 172.412764 133.22247 
L 172.551186 127.121059 
L 172.69407 125.113049 
L 172.782855 120.669738 
L 172.956067 118.744839 
L 173.072004 116.962757 
L 173.091544 119.824747 
L 173.177436 118.657309 
L 173.322894 120.490791 
L 173.657211 132.908039 
L 173.733514 134.527507 
L 173.984172 123.972481 
L 174.100842 130.477105 
L 174.119202 128.303611 
L 174.272895 128.647223 
L 174.375409 124.653819 
L 174.472246 124.392041 
L 174.550521 120.05873 
L 174.606569 125.662403 
L 174.685299 125.019929 
L 174.785217 129.608547 
L 174.838224 124.063217 
L 174.936155 128.481185 
L 175.223088 119.859798 
L 175.321285 118.513697 
L 175.570147 110.08314 
L 175.728924 105.320018 
L 175.802737 106.508524 
L 175.980712 115.11938 
L 176.123445 114.955335 
L 176.35538 124.181838 
L 176.451341 129.346916 
L 176.528664 126.039369 
L 176.663423 128.678863 
L 176.818992 117.34587 
L 177.029667 124.998137 
L 177.06773 123.345443 
L 177.164713 123.281602 
L 177.241543 122.188468 
L 177.375926 125.477029 
L 177.433633 117.359985 
L 177.51112 121.155333 
L 177.706079 130.490002 
L 177.800932 125.412293 
L 177.878207 127.87864 
L 177.954739 127.054421 
L 178.108937 123.439998 
L 178.302498 129.946619 
L 178.359332 129.056165 
L 178.514116 120.137397 
L 178.668849 112.698693 
L 178.745441 114.233468 
L 178.916878 120.035961 
L 179.039626 119.527028 
L 179.13282 117.581766 
L 179.15499 117.934329 
L 179.480605 127.824039 
L 179.69053 118.135185 
L 179.786633 120.703208 
L 179.864503 119.364015 
L 179.943989 122.607639 
L 180.061729 117.900698 
L 180.193181 121.90088 
L 180.250539 123.73009 
L 180.406675 123.073304 
L 180.423624 120.457932 
L 180.602274 122.643331 
L 180.714925 121.391785 
L 180.793988 119.27129 
L 180.80932 127.791774 
L 180.904967 127.162401 
L 180.985533 127.362388 
L 181.079873 122.881665 
L 181.13898 124.501509 
L 181.215063 126.638471 
L 181.387683 122.282255 
L 181.445878 123.241069 
L 181.542143 122.757058 
L 181.77351 115.420824 
L 181.929798 124.121268 
L 182.008169 121.428265 
L 182.089208 125.531892 
L 182.177816 124.716617 
L 182.255652 126.271742 
L 182.332908 124.029883 
L 182.409731 129.721429 
L 182.48673 128.954233 
L 182.586447 131.903891 
L 182.721706 118.91974 
L 182.894072 116.196779 
L 182.970183 117.158845 
L 183.201289 115.7914 
L 183.241409 108.932453 
L 183.356928 109.474324 
L 183.682847 123.676385 
L 183.764089 122.418032 
L 184.003581 125.826635 
L 184.060524 131.145762 
L 184.08827 126.237747 
L 184.174225 123.496554 
L 184.301584 124.157146 
L 184.359154 124.034547 
L 184.397642 126.921182 
L 184.475849 122.753525 
L 184.610992 124.123261 
L 184.805396 115.780757 
L 184.899993 118.341974 
L 185.036301 116.562942 
L 185.227637 113.58922 
L 185.362298 110.160616 
L 185.672256 117.401884 
L 185.69649 116.42523 
L 185.799418 116.877906 
L 185.875795 114.355073 
L 186.229643 120.984261 
L 186.498278 125.33559 
L 186.577322 125.187516 
L 186.675705 124.24986 
L 186.711017 121.903855 
L 186.943571 126.72129 
L 187.039479 126.772013 
L 187.116415 128.130599 
L 187.212799 125.74978 
L 187.308934 126.571952 
L 187.346823 126.315729 
L 187.445155 130.547744 
L 187.539542 129.219991 
L 187.655035 129.699156 
L 187.770713 126.924767 
L 188.064255 122.344904 
L 188.140145 124.973741 
L 188.252482 123.390106 
L 188.332154 125.783283 
L 188.410424 123.463701 
L 188.465891 124.394877 
L 188.635328 123.098531 
L 188.717398 119.037271 
L 188.872102 121.496108 
L 188.976274 118.197553 
L 189.048787 118.473416 
L 189.334971 123.596464 
L 189.375422 131.258557 
L 189.43327 130.76749 
L 189.510595 131.648584 
L 189.605543 131.214302 
L 189.914838 124.138057 
L 189.993049 125.289955 
L 190.069121 124.800645 
L 190.165616 119.987126 
L 190.223043 120.787157 
L 190.319598 124.767011 
L 190.378464 123.44165 
L 190.49345 124.696077 
L 190.550502 121.872468 
L 190.743626 123.780563 
L 190.916622 118.660682 
L 191.03264 125.374462 
L 191.110018 123.088939 
L 191.205829 123.147179 
L 191.496238 133.722223 
L 191.572547 132.362549 
L 191.649703 135.694377 
L 191.823565 130.587434 
L 192.057086 125.618309 
L 192.07314 129.85874 
L 192.305429 121.888863 
L 192.381924 127.937137 
L 192.464744 127.451446 
L 192.826067 121.194732 
L 192.86793 122.413605 
L 192.941829 121.473355 
L 193.173242 112.306173 
L 193.248777 112.039826 
L 193.411531 115.912176 
L 193.483794 115.266878 
L 193.569216 118.160855 
L 193.724346 118.135995 
L 193.738426 116.723725 
L 193.814654 118.947625 
L 193.994396 119.868645 
L 194.049683 125.227996 
L 194.176005 120.780454 
L 194.222913 122.554283 
L 194.357282 121.767592 
L 194.378036 125.226552 
L 194.476363 124.106047 
L 194.570078 122.792754 
L 194.630762 126.94144 
L 194.74496 124.628293 
L 194.765967 125.424315 
L 194.998653 117.503067 
L 195.073852 116.601636 
L 195.238564 110.763418 
L 195.352325 109.848796 
L 195.468771 104.681741 
L 195.494729 105.277052 
L 195.576078 106.477126 
L 195.661272 112.145857 
L 195.739727 111.325245 
L 195.836931 114.682466 
L 195.880739 114.264147 
L 195.973529 113.549277 
L 196.046762 113.625502 
L 196.123252 118.744899 
L 196.200277 116.474409 
L 196.374048 115.861045 
L 196.435123 106.491464 
L 196.527838 108.607089 
L 196.605809 106.661198 
L 197.24278 130.246013 
L 197.318255 129.024832 
L 197.47296 126.059188 
L 197.627186 130.040033 
L 197.723038 129.299833 
L 197.799597 125.612393 
L 197.876699 126.410788 
L 197.957463 125.575277 
L 198.030677 122.088516 
L 198.18828 127.242142 
L 198.518793 118.999858 
L 198.671214 122.172318 
L 198.707183 117.053101 
L 198.747698 118.168148 
L 198.826018 119.507259 
L 198.903839 118.669178 
L 198.980863 111.893806 
L 199.075583 111.930717 
L 199.230773 113.214473 
L 199.384993 111.011428 
L 199.62479 115.909848 
L 199.71168 116.16475 
L 199.943206 124.274198 
L 200.09749 127.809348 
L 200.271651 121.165283 
L 200.424885 125.148706 
L 200.502273 124.414218 
L 200.579374 123.9397 
L 200.813854 116.799067 
L 200.984285 120.456077 
L 201.061409 123.71455 
L 201.292808 112.547027 
L 201.40788 114.154618 
L 201.717595 108.675215 
L 201.775132 109.347515 
L 201.869637 106.08004 
L 202.006592 114.090256 
L 202.092956 113.840537 
L 202.178491 112.53374 
L 202.268625 113.929411 
L 202.428984 122.596856 
L 202.525601 120.447917 
L 202.583319 122.409994 
L 202.641156 122.205663 
L 202.725906 121.453784 
L 202.744195 123.687168 
L 202.816288 120.928842 
L 203.008959 126.478448 
L 203.066606 127.727754 
L 203.206367 123.377089 
L 203.416339 124.910604 
L 203.684968 117.679857 
L 203.761082 117.287568 
L 203.838501 114.977163 
L 203.939282 119.118963 
L 204.013201 117.652975 
L 204.090909 116.84388 
L 204.2663 121.547661 
L 204.327531 119.070927 
L 204.418749 119.583646 
L 204.571961 119.12844 
L 204.761096 115.911849 
L 204.819031 117.794294 
L 205.033985 109.274923 
L 205.130084 116.014539 
L 205.281829 110.131774 
L 205.358981 110.789026 
L 205.457495 112.746522 
L 205.52028 109.137312 
L 205.590928 111.125448 
L 205.899048 115.123275 
L 205.977303 114.084066 
L 206.09238 124.050375 
L 206.303875 129.780767 
L 206.333523 133.918987 
L 206.419734 132.061 
L 206.650845 139.077757 
L 206.885509 132.397103 
L 206.970958 126.169012 
L 207.042982 128.225751 
L 207.173107 129.279301 
L 207.217741 127.746734 
L 207.272043 121.933899 
L 207.346401 122.245087 
L 207.501658 118.547887 
L 207.540036 121.225035 
L 207.617717 114.850857 
L 207.695652 118.834771 
L 207.754661 118.411561 
L 207.834372 119.102032 
L 207.915429 114.826514 
L 208.153979 119.305433 
L 208.200723 118.439181 
L 208.395076 128.407423 
L 208.470618 123.560483 
L 208.54783 125.758499 
L 208.662798 123.555351 
L 208.778338 126.046242 
L 208.91421 120.289782 
L 208.951891 120.667113 
L 209.088836 122.387386 
L 209.203292 115.061441 
L 209.265042 115.674135 
L 209.356571 119.890222 
L 209.43377 118.778536 
L 209.588428 116.609453 
L 209.666277 118.629379 
L 209.820204 116.710484 
L 209.877339 113.936413 
L 209.993676 123.341411 
L 210.118068 121.231957 
L 210.209857 117.415595 
L 210.273542 118.942112 
L 210.402823 126.619982 
L 210.517595 126.80378 
L 210.557409 129.834798 
L 210.586989 127.010854 
L 210.807184 116.739675 
L 210.942499 126.434942 
L 211.046622 126.621054 
L 211.270265 116.301011 
L 211.425547 122.078155 
L 211.522592 121.632304 
L 211.599544 127.530302 
L 211.849573 110.943423 
L 212.061667 119.180977 
L 212.215456 106.586145 
L 212.292813 107.364739 
L 212.369877 105.511161 
L 212.453961 110.830552 
L 212.620637 112.786609 
L 212.939153 106.744941 
L 213.164614 116.173794 
L 213.468924 104.783271 
L 213.661993 120.15872 
L 213.912567 116.286821 
L 213.970599 119.707995 
L 214.06667 117.300161 
L 214.127471 119.662029 
L 214.202035 115.677486 
L 214.298624 118.270602 
L 214.511018 110.688132 
L 214.588068 114.086302 
L 214.973798 109.638239 
L 215.013094 110.442138 
L 215.088405 108.061619 
L 215.165597 109.463497 
L 215.243637 108.870568 
L 215.339423 109.181834 
L 215.437506 111.189372 
L 215.49336 110.84837 
L 215.569865 110.326889 
L 215.80266 119.998229 
L 215.859876 117.05357 
L 215.955513 113.035004 
L 216.017287 114.570587 
L 216.110562 115.041112 
L 216.208862 109.000474 
L 216.360665 115.485875 
L 216.440155 114.526394 
L 216.553416 109.885695 
L 216.707162 115.748097 
L 216.806863 114.841819 
L 216.996412 122.628918 
L 217.169209 127.100272 
L 217.265627 127.751328 
L 217.470742 134.326473 
L 217.502615 134.462932 
L 217.672576 131.266446 
L 217.731662 132.940465 
L 218.196813 116.168015 
L 218.273961 118.487311 
L 218.349524 125.021045 
L 218.542838 118.261082 
L 218.687409 119.400013 
L 218.832402 125.520915 
L 218.909473 126.839068 
L 218.98732 122.241901 
L 219.083524 124.42826 
L 219.143043 120.154802 
L 219.236278 121.160762 
L 219.313705 122.474703 
L 219.390447 126.60783 
L 219.628141 122.263654 
L 219.719662 122.437456 
L 219.890464 119.616101 
L 219.948628 125.841454 
L 220.121579 127.278512 
L 220.199181 121.465611 
L 220.295919 121.722091 
L 220.412121 121.202262 
L 220.433306 121.438569 
L 220.507014 122.614745 
L 220.626701 127.377277 
L 220.661751 125.347978 
L 220.798428 119.850057 
L 220.835654 123.573821 
L 220.915373 122.046332 
L 221.008625 122.306088 
L 221.091259 117.766676 
L 221.162759 118.638484 
L 221.279163 121.410394 
L 221.327333 119.933165 
L 221.383078 119.186629 
L 221.396933 114.31592 
L 221.473474 116.519052 
L 221.570138 116.157168 
L 221.627902 116.692252 
L 221.79577 125.85938 
L 221.974389 132.779642 
L 222.053707 127.340261 
L 222.246841 137.526022 
L 222.650665 115.183517 
L 222.824209 124.699178 
L 222.978487 119.062359 
L 223.154937 128.106662 
L 223.208449 123.632326 
L 223.289584 125.581356 
L 223.385584 129.226823 
L 223.479121 129.136516 
L 223.632636 117.521151 
L 223.698843 119.119408 
L 223.944178 112.005584 
L 224.095707 122.024843 
L 224.211099 118.793848 
L 224.280066 120.127093 
L 224.423514 129.433445 
L 224.500868 128.201007 
L 224.596558 132.414527 
L 224.654153 131.521687 
L 224.732835 131.826991 
L 224.80906 125.146178 
L 224.885321 125.747292 
L 224.982392 127.29793 
L 225.058707 127.008639 
L 225.213475 123.964207 
L 225.36727 120.736483 
L 225.467073 121.564051 
L 225.656757 120.56753 
L 225.697085 121.983998 
L 225.773013 120.787835 
L 225.870303 122.56157 
L 226.120117 118.593591 
L 226.178349 118.504835 
L 226.239809 117.549982 
L 226.330542 118.27396 
L 226.408705 117.708371 
L 226.485137 115.45598 
L 226.621766 117.171702 
L 226.658539 115.749917 
L 226.890222 124.073819 
L 226.967388 120.566648 
L 227.063974 121.743334 
L 227.121397 116.856235 
L 227.208033 118.97675 
L 227.274924 118.439473 
L 227.438186 121.714535 
L 227.602572 118.381797 
L 227.73734 119.31048 
L 227.912373 130.688394 
L 227.991879 132.546404 
L 228.085304 138.175483 
L 228.20154 137.59747 
L 228.259621 135.583145 
L 228.329996 139.233617 
L 228.432836 137.194148 
L 228.644322 121.799798 
L 228.710355 124.467632 
L 228.798826 123.060979 
L 228.895691 116.251578 
L 228.952938 118.14262 
L 229.184003 108.833507 
L 229.247658 109.972882 
L 229.512167 121.800012 
L 229.588931 121.255647 
L 229.666484 121.213641 
L 229.743137 118.562659 
L 229.826168 120.422599 
L 229.994237 126.157936 
L 230.194234 119.315852 
L 230.244795 122.618747 
L 230.324266 119.922522 
L 230.443085 119.799863 
L 230.476842 123.700787 
L 230.610517 121.977503 
L 230.727251 124.52514 
L 230.861876 122.737275 
L 230.939903 123.052021 
L 231.209183 115.398697 
L 231.344841 112.078534 
L 231.498187 114.888044 
L 231.615709 110.88458 
L 231.749655 115.261209 
L 231.827828 114.580264 
L 232.157005 131.731198 
L 232.236165 131.566449 
L 232.409062 135.150388 
L 232.466485 135.437779 
L 232.618889 133.283243 
L 232.637956 134.041866 
L 232.854301 117.920699 
L 232.950454 118.736775 
L 233.026193 118.076157 
L 233.263269 113.994774 
L 233.340516 116.239786 
L 233.437831 113.767144 
L 233.496022 117.436552 
L 233.599908 116.851494 
L 233.669148 119.03243 
L 233.821902 110.533184 
L 233.956902 109.855702 
L 234.149693 106.690003 
L 234.226843 111.499743 
L 234.286325 108.692044 
L 234.381435 109.513176 
L 234.542232 118.491862 
L 234.619923 116.511316 
L 234.787492 120.325229 
L 234.854233 127.068773 
L 234.941863 125.556371 
L 235.049055 123.960167 
L 235.155746 125.47864 
L 235.193567 129.351157 
L 235.348934 124.936286 
L 235.406549 126.466046 
L 235.522125 126.270022 
L 235.65875 118.157126 
L 235.888877 129.48457 
L 236.294584 115.945153 
L 236.451012 120.982048 
L 236.604868 110.790573 
L 236.701524 108.966062 
L 236.855265 114.572642 
L 236.932496 114.00623 
L 237.08846 120.933711 
L 237.165361 121.17286 
L 237.241791 112.403364 
L 237.363348 118.071313 
L 237.416371 116.034909 
L 237.512342 115.048439 
L 237.863706 129.211192 
L 237.886284 128.553854 
L 237.959287 127.376351 
L 238.194526 135.701276 
L 238.270478 136.126609 
L 238.598486 127.435373 
L 238.675564 128.307721 
L 238.848353 131.456411 
L 239.254484 118.762667 
L 239.311149 112.863234 
L 239.409428 116.140518 
L 239.485337 115.295733 
L 239.562195 115.736302 
L 239.678564 117.677293 
L 239.870199 125.979819 
L 239.952341 126.202641 
L 240.1213 129.303377 
L 240.218804 126.362035 
L 240.343121 127.778559 
L 240.391001 127.27595 
L 240.507879 122.121481 
L 240.588304 123.650597 
L 240.778198 115.795591 
L 240.83458 118.131191 
L 240.949759 118.249526 
L 241.046429 119.577262 
L 241.182631 118.054186 
L 241.240747 120.044874 
L 241.299528 118.180406 
L 241.418234 118.418933 
L 241.664958 128.757384 
L 241.705878 128.679026 
L 241.840684 125.582621 
L 241.957882 129.726734 
L 242.069984 128.954734 
L 242.113867 131.794139 
L 242.341295 122.723035 
L 242.419823 122.763952 
L 242.538105 124.857872 
L 242.59779 131.097658 
L 242.902191 121.794244 
L 242.995086 124.062782 
L 243.320864 111.437434 
L 243.399431 108.416389 
L 243.535214 108.84981 
L 243.787531 116.214166 
L 243.861005 114.704016 
L 244.227434 129.31029 
L 244.381902 133.874477 
L 244.420354 132.346879 
L 244.593591 128.601298 
L 244.652931 132.543499 
L 245.056883 116.586881 
L 245.173399 109.128227 
L 245.291391 114.265518 
L 245.404425 114.542631 
L 245.503417 111.731551 
L 245.539081 113.472896 
L 245.65505 115.135566 
L 245.774444 113.12425 
L 245.986963 126.857172 
L 246.006343 121.054319 
L 246.105167 124.560007 
L 246.198338 125.29044 
L 246.256284 124.973072 
L 246.333355 120.21303 
L 246.411255 120.887359 
L 246.603661 132.456779 
L 246.815354 120.407577 
L 246.976911 126.390613 
L 247.047822 124.191743 
L 247.219959 130.086971 
L 247.529647 117.6712 
L 247.624645 118.292668 
L 247.799604 108.960192 
L 247.915145 114.300021 
L 248.01265 111.027494 
L 248.038589 113.379011 
L 248.098594 113.423355 
L 248.182206 112.88305 
L 248.253744 118.108131 
L 248.328396 123.681052 
L 248.463658 123.567645 
L 248.578917 127.936922 
L 248.716507 116.598376 
L 248.887239 111.043147 
L 248.974004 113.898805 
L 249.14635 107.662374 
L 249.298785 113.082049 
L 249.522713 120.636155 
L 249.910826 111.308323 
L 250.062762 112.449963 
L 250.161736 107.437552 
L 250.316364 114.203898 
L 250.392957 114.091829 
L 250.569676 119.083119 
L 250.720495 130.779235 
L 251.170905 119.087387 
L 251.206113 123.781104 
L 251.35987 124.129191 
L 251.70835 107.171112 
L 251.763963 107.660863 
L 252.032861 119.658194 
L 252.283806 116.424777 
L 252.459106 122.005343 
L 252.649897 124.041283 
L 252.785378 116.744937 
L 252.880652 118.678468 
L 252.996726 118.375019 
L 253.035064 121.360028 
L 253.158284 119.526618 
L 253.344074 126.211771 
L 253.422395 120.005369 
L 253.500308 122.930466 
L 253.517295 116.809037 
L 253.575664 119.511707 
L 253.826822 112.367321 
L 254.056945 121.535912 
L 254.154377 120.978272 
L 254.307117 120.443472 
L 254.352655 121.832214 
L 254.385295 116.223384 
L 254.542248 125.780498 
L 254.789597 114.363349 
L 254.865964 114.281585 
L 254.943508 116.887846 
L 255.021561 125.442222 
L 255.117515 122.458791 
L 255.176586 124.452204 
L 255.375263 115.295738 
L 255.492523 121.957002 
L 255.525759 119.901722 
L 255.816521 100.567757 
L 255.893428 106.556099 
L 255.971331 106.347222 
L 256.095953 104.881206 
L 256.131334 112.316384 
L 256.205362 110.008138 
L 256.60937 126.705589 
L 256.705129 123.288449 
L 256.781423 125.234894 
L 256.916869 123.432861 
L 257.11535 117.601639 
L 257.266801 115.715182 
L 257.478903 108.472131 
L 257.573194 110.249808 
L 257.83098 120.357439 
L 257.882115 119.972107 
L 258.056431 123.295939 
L 258.132859 128.715814 
L 258.574754 114.036674 
L 258.670918 118.146647 
L 258.9635 112.34607 
L 259.316409 121.903385 
L 259.428689 119.401305 
L 259.522391 114.345853 
L 259.561613 120.279327 
L 259.657346 119.237534 
L 259.715067 113.086773 
L 259.869409 121.050273 
L 260.022721 117.403197 
L 260.080983 121.100523 
L 260.119312 120.173687 
L 260.201825 117.816324 
L 260.287067 120.978208 
L 260.353303 116.375568 
L 260.518454 119.231815 
L 260.678563 114.985128 
L 260.756513 117.546904 
L 260.834762 113.890655 
L 260.92909 121.812951 
L 261.085205 116.954952 
L 261.143856 119.405711 
L 261.161523 121.936752 
L 261.237941 118.158718 
L 261.395106 122.973204 
L 261.663913 116.336145 
L 261.725944 106.862823 
L 261.784691 109.054604 
L 261.876255 117.121643 
L 261.953969 116.191657 
L 262.055274 115.713105 
L 262.157418 114.392922 
L 262.349742 124.466334 
L 262.426536 124.213019 
L 262.601013 128.715995 
L 262.676127 123.961529 
L 262.838773 125.697882 
L 262.91415 121.638508 
L 263.045957 121.327517 
L 263.138571 112.533402 
L 263.254584 118.386836 
L 263.311711 117.844021 
L 263.545751 113.475377 
L 263.70171 123.369797 
L 263.834007 119.57083 
L 263.874024 126.937871 
L 263.98823 126.415978 
L 264.103399 119.755552 
L 264.181404 123.207602 
L 264.446361 107.100094 
L 264.49292 110.078136 
L 264.586323 111.420841 
L 264.665383 105.760396 
L 264.741546 107.402201 
L 264.899864 109.759085 
L 264.992018 117.880291 
L 265.068961 116.361586 
L 265.164569 114.96413 
L 265.230848 121.090718 
L 265.299196 119.735365 
L 265.381832 119.266639 
L 265.493609 124.572521 
L 265.615679 119.845079 
L 265.78259 112.063152 
L 265.858986 114.07882 
L 265.935785 115.03753 
L 266.013293 111.749273 
L 266.09515 112.97872 
L 266.495893 125.179028 
L 266.572532 123.793676 
L 266.76422 128.95141 
L 267.053739 116.230387 
L 267.150838 114.656974 
L 267.208424 114.783712 
L 267.362788 117.393121 
L 267.458712 121.572914 
L 267.612039 116.993455 
L 267.767102 122.184445 
L 267.863663 122.630627 
L 267.921122 122.617464 
L 268.061645 118.974856 
L 268.172821 111.632024 
L 268.26749 111.098293 
L 268.459667 113.236696 
L 268.558245 107.040757 
L 268.653507 107.766809 
L 268.808773 115.10127 
L 268.884093 112.656182 
L 268.966337 115.002375 
L 269.059714 111.647317 
L 269.139243 112.753679 
L 269.389924 125.298808 
L 269.447292 122.716089 
L 269.582955 119.25164 
L 269.640358 119.298543 
L 269.699507 121.648618 
L 269.79499 120.658394 
L 269.836272 119.00759 
L 269.931446 123.242654 
L 270.014143 121.765106 
L 270.103518 123.381066 
L 270.162092 118.937786 
L 270.490114 129.431034 
L 270.62512 128.030897 
L 270.70181 132.258083 
L 270.74036 128.086646 
L 270.856528 128.101546 
L 270.953113 124.511966 
L 271.036153 123.932848 
L 271.109874 119.394383 
L 271.203239 119.748674 
L 271.280386 120.671597 
L 271.357426 123.838193 
L 271.43609 118.132376 
L 271.513463 122.615399 
L 271.667322 120.683799 
L 271.743207 121.714712 
L 271.857217 119.302476 
L 271.9977 125.532018 
L 272.126775 125.482066 
L 272.164767 124.618358 
L 272.299993 129.574251 
L 272.376695 128.237991 
L 272.415247 130.96546 
L 272.496503 125.728976 
L 272.569334 126.792762 
L 272.627759 127.920641 
L 273.09035 114.551171 
L 273.190977 108.299724 
L 273.417323 113.47192 
L 273.497658 112.673926 
L 273.591793 115.739363 
L 273.668785 113.66092 
L 273.957248 121.941816 
L 274.0725 130.348616 
L 274.16944 131.217746 
L 274.267272 128.337159 
L 274.304267 131.119687 
L 274.415092 128.043233 
L 274.460015 129.449053 
L 274.542029 132.100667 
L 274.787558 121.047516 
L 274.863623 125.905518 
L 274.947437 121.904966 
L 275.015815 123.765407 
L 275.112813 120.37675 
L 275.170932 125.127005 
L 275.285781 124.50941 
L 275.362648 121.504399 
L 275.422276 129.002175 
L 275.728635 122.11532 
L 275.787932 123.765759 
L 275.825309 122.671835 
L 275.979084 118.672451 
L 276.05688 119.636719 
L 276.290873 127.533438 
L 276.365051 128.247367 
L 276.463731 122.664867 
L 276.538815 123.378481 
L 276.617725 123.563256 
L 276.692171 124.92976 
L 277.021112 117.344759 
L 277.097483 118.417564 
L 277.412595 121.960751 
L 277.483107 127.325857 
L 277.582152 127.069996 
L 277.655715 127.843436 
L 277.887702 123.770859 
L 277.964283 124.212496 
L 278.047192 125.870979 
L 278.122515 125.278064 
L 278.293484 121.348036 
L 278.369257 126.489741 
L 278.445655 124.255269 
L 278.601937 129.683795 
L 278.688983 126.861271 
L 278.755405 127.53891 
L 279.007549 134.036057 
L 279.159837 126.178285 
L 279.316047 130.085463 
L 279.392375 124.74054 
L 279.489792 127.523492 
L 279.645439 122.921833 
L 279.897378 129.734346 
L 279.913424 121.122563 
L 279.990616 124.677818 
L 280.108114 120.900995 
L 280.201964 124.813938 
L 280.472333 116.470111 
L 280.593202 110.037088 
L 280.685212 111.648169 
L 280.840262 120.334745 
L 280.992843 114.652523 
L 281.083509 115.868511 
L 281.09048 115.014419 
L 281.148441 118.40995 
L 281.166517 126.287766 
L 281.267247 123.825649 
L 281.364773 123.011313 
L 281.43767 123.356092 
L 281.475137 121.658627 
L 281.552188 124.710494 
L 281.783601 119.283467 
L 281.874548 117.628686 
L 282.033301 106.133102 
L 282.266616 108.090011 
L 282.399581 104.827132 
L 282.45881 106.554631 
L 282.823397 131.996596 
L 282.902065 130.432259 
L 282.996961 133.699533 
L 283.151545 131.970954 
L 283.540076 113.447841 
L 283.633543 117.226237 
L 283.788094 116.662249 
L 283.852988 110.557563 
L 283.889424 113.838806 
L 284.079548 123.443472 
L 284.116901 120.220302 
L 284.25608 122.319896 
L 284.34949 122.064774 
L 284.453066 115.426834 
L 284.521882 117.081647 
L 284.620428 120.613863 
L 284.65699 119.258911 
L 284.927994 113.958578 
L 284.984793 114.173415 
L 285.061536 113.603191 
L 285.312693 126.619086 
L 285.44837 124.051826 
L 285.544483 131.60107 
L 285.641002 129.226825 
L 285.698778 130.606806 
L 285.955513 122.401056 
L 286.16177 114.617428 
L 286.240026 120.982416 
L 286.355166 113.578412 
L 286.431202 115.392886 
L 286.584945 121.449494 
L 286.661989 120.100506 
L 286.828601 127.492331 
L 286.912392 127.944775 
L 286.932778 129.85998 
L 287.029018 124.836579 
L 287.069234 132.933042 
L 287.12672 131.319601 
L 287.22144 131.288583 
L 287.298469 126.109886 
L 287.375936 128.274724 
L 287.510579 125.857349 
L 287.607729 128.953457 
L 287.684127 124.509368 
L 287.78045 127.987151 
L 287.954844 126.796479 
L 288.012349 127.268757 
L 288.089517 127.165357 
L 288.187028 130.486806 
L 288.351374 123.243768 
L 288.443029 120.736878 
L 288.554928 124.751912 
L 288.57515 121.925831 
L 288.728265 116.779833 
L 288.939923 120.25771 
L 289.040573 117.580577 
L 289.133297 122.327732 
L 289.344838 123.584048 
L 289.367809 126.016391 
L 289.442927 121.644415 
L 289.51976 122.099727 
L 289.596024 122.789071 
L 289.846859 116.33508 
L 289.924432 115.678736 
L 290.232476 123.689107 
L 290.350382 122.794789 
L 290.407894 119.573731 
L 290.483942 120.460825 
L 290.792803 124.271908 
L 291.039081 116.791895 
L 291.117844 116.903108 
L 291.198595 119.347389 
L 291.271086 118.71501 
L 291.351232 117.281052 
L 291.443379 122.634512 
L 291.597253 115.336659 
L 291.673757 118.120158 
L 291.752124 116.924145 
L 291.827663 121.547913 
L 291.904961 121.199439 
L 291.986608 118.264527 
L 292.077925 118.86386 
L 292.154988 119.034918 
L 292.232177 117.835313 
L 292.312128 118.014472 
L 292.541903 127.157252 
L 292.621894 125.388668 
L 292.79173 130.682237 
L 292.868114 129.902693 
L 293.022525 128.74215 
L 293.102304 130.891279 
L 293.273358 122.562421 
L 293.350161 123.275291 
L 293.504946 124.982012 
L 293.590571 122.368822 
L 293.744006 124.721781 
L 293.858486 123.682453 
L 293.909299 124.395797 
L 294.140746 119.890064 
L 294.218059 123.914229 
L 294.296565 121.975946 
L 294.314867 114.910276 
L 294.391941 123.598309 
L 294.487853 122.265247 
L 294.546169 122.515642 
L 294.623216 122.140734 
L 294.740455 122.169126 
L 294.858119 125.869467 
L 294.950376 126.204913 
L 295.04454 119.383744 
L 295.163733 120.262793 
L 295.220816 118.764975 
L 295.278043 123.134284 
L 295.43239 120.691022 
L 295.645872 112.538035 
L 295.745669 114.037428 
L 295.837796 116.903701 
L 295.895876 113.753896 
L 296.004486 114.652669 
L 296.049758 111.805461 
L 296.541592 129.733297 
L 296.61809 129.897545 
L 296.772175 128.645301 
L 296.850569 128.740406 
L 297.004034 127.943648 
L 297.100844 128.093449 
L 297.177242 127.975748 
L 297.331538 125.45505 
L 297.428506 125.713614 
L 297.4859 136.875539 
L 297.581527 136.602384 
L 297.773969 130.561767 
L 297.812715 136.130849 
L 297.928612 136.324564 
L 297.986433 134.979688 
L 298.083193 135.583903 
L 298.141208 134.877555 
L 298.21836 130.942143 
L 298.296489 120.448238 
L 298.390557 124.346234 
L 298.451704 123.242733 
L 298.526515 124.398156 
L 298.778024 118.79753 
L 298.875624 117.497369 
L 298.939602 118.051921 
L 299.092846 125.92602 
L 299.171397 121.38353 
L 299.407177 124.53455 
L 299.485834 112.183451 
L 299.504179 118.604585 
L 299.57577 119.731371 
L 299.732976 126.108931 
L 299.807709 125.880466 
L 299.924944 126.09324 
L 300.004704 130.072189 
L 300.059013 128.969838 
L 300.116566 128.067815 
L 300.193909 130.147942 
L 300.38119 131.93889 
L 300.772789 116.933104 
L 300.851034 119.160574 
L 301.046522 117.483306 
L 301.100225 117.244735 
L 301.315338 121.458472 
L 301.391381 122.105208 
L 301.526827 121.62814 
L 301.575795 122.546368 
L 301.702672 121.663038 
L 301.876144 125.996039 
L 301.95831 125.920964 
L 302.259234 120.275567 
L 302.308435 126.729273 
L 302.355888 124.026365 
L 302.434632 125.641556 
L 302.512783 125.475375 
L 302.607795 126.122569 
L 302.706028 125.571632 
L 302.762755 121.397742 
L 302.829818 125.547167 
L 302.919923 124.713276 
L 303.077841 126.529718 
L 303.167616 120.406933 
L 303.267787 119.707425 
L 303.738735 108.545247 
L 303.922654 113.564371 
L 303.963169 113.356274 
L 304.039296 110.885708 
L 304.288449 120.166041 
L 304.385415 124.606607 
L 304.423308 123.051692 
L 304.617244 123.890799 
L 304.673943 120.29807 
L 304.886905 127.032885 
L 304.924975 124.920912 
L 304.984608 125.414998 
L 305.15815 119.158976 
L 305.258715 119.570019 
L 305.332836 121.811716 
L 305.408007 118.999969 
L 305.464985 121.596145 
L 305.546667 119.790845 
L 305.638566 121.868935 
L 305.773988 121.206644 
L 305.87337 118.625196 
L 306.082207 125.90673 
L 306.120733 124.751953 
L 306.259881 130.782413 
L 306.411272 126.19867 
L 306.429485 128.288586 
L 306.50696 127.942563 
L 306.758047 135.013498 
L 307.085513 124.183199 
L 307.147327 129.186035 
L 307.241357 122.240654 
L 307.323039 122.486131 
L 307.416582 119.753878 
L 307.529078 121.018285 
L 307.588173 123.358376 
L 307.721285 121.983598 
L 307.818013 128.952252 
L 307.89509 128.699261 
L 308.051769 131.297479 
L 308.069979 138.505767 
L 308.151601 136.452938 
L 308.229529 135.68886 
L 308.35763 125.491564 
L 308.493311 129.421082 
L 308.597939 127.7118 
L 308.653371 128.999445 
L 308.821227 121.756659 
L 308.91793 121.479654 
L 308.974987 120.418454 
L 309.052615 121.380166 
L 309.225715 130.205952 
L 309.37439 127.225422 
L 309.382861 134.900806 
L 309.457245 132.466 
L 309.533995 128.743354 
L 309.656336 131.537751 
L 309.691064 126.697876 
L 309.765991 129.943544 
L 309.842552 131.224056 
L 309.999418 121.007186 
L 310.095672 122.92305 
L 310.170112 120.375929 
L 310.247713 120.446934 
L 310.324572 124.96512 
L 310.404831 122.423499 
L 310.480275 127.12105 
L 310.556962 126.310845 
L 310.655591 128.203512 
L 310.806344 128.355717 
L 310.869331 132.437701 
L 310.883773 130.844826 
L 311.057631 118.871381 
L 311.154134 117.150757 
L 311.445408 122.663956 
L 311.596293 122.310528 
L 311.616079 118.128821 
L 311.789324 130.777164 
L 312.007324 138.622691 
L 312.107533 135.327563 
L 312.20127 139.13324 
L 312.260713 136.122431 
L 312.318087 136.467878 
L 312.413864 138.57068 
L 312.471945 134.494954 
L 312.624597 135.296138 
L 312.876529 129.714467 
L 312.936202 129.858918 
L 312.992675 129.810724 
L 313.071282 129.898277 
L 313.129287 130.493194 
L 313.466099 119.797722 
L 313.610504 120.915334 
L 313.880911 109.825312 
L 313.981754 111.28008 
L 314.062386 113.720754 
L 314.082004 112.339867 
L 314.193355 113.764516 
L 314.30922 109.578045 
L 314.473868 108.997191 
L 314.540639 110.37699 
L 314.63851 116.767614 
L 314.727515 117.279319 
L 314.795371 116.233077 
L 314.872896 117.069265 
L 314.987065 116.917924 
L 315.139996 124.629284 
L 315.204953 120.60226 
L 315.275006 123.372126 
L 315.527352 115.958615 
L 315.586566 124.491328 
L 315.680561 124.003387 
L 315.836049 129.745949 
L 315.915205 129.668089 
L 316.047289 128.57664 
L 316.086637 125.465892 
L 316.220429 125.437492 
L 316.338783 130.259057 
L 316.471607 125.10103 
L 316.567113 124.786339 
L 316.838279 127.620564 
L 317.030966 134.600021 
L 317.183963 130.581275 
L 317.261446 131.058494 
L 317.453411 125.183544 
L 317.510958 127.112238 
L 317.599262 125.429204 
L 317.607663 118.482249 
L 317.666295 121.613713 
L 317.769332 119.829319 
L 317.852271 121.990504 
L 317.917271 121.338703 
L 317.980139 122.339702 
L 318.19248 117.629355 
L 318.304287 115.346855 
L 318.382701 116.54501 
L 318.459858 123.872388 
L 318.610314 114.997868 
L 318.74573 116.204786 
L 318.805845 118.442121 
L 318.882436 126.379553 
L 318.937974 126.267529 
L 319.015251 126.027498 
L 319.150099 124.525797 
L 319.169737 129.03816 
L 319.249566 121.821177 
L 319.507206 127.508591 
L 319.581007 127.090465 
L 319.665752 118.565657 
L 319.729711 123.002614 
L 319.814119 123.223814 
L 319.922464 122.555403 
L 319.981596 118.930224 
L 320.059074 126.471653 
L 320.133935 125.691825 
L 320.332405 122.021232 
L 320.365275 116.593903 
L 320.442316 120.650587 
L 320.684306 114.002968 
L 320.788927 119.953518 
L 320.962402 111.902573 
L 321.020846 113.692435 
L 321.116117 113.066774 
L 321.328883 118.603808 
L 321.405398 116.713423 
L 321.483226 118.030204 
L 321.579855 112.480152 
L 321.734022 118.2987 
L 321.810982 117.506167 
L 321.964946 122.729509 
L 322.042329 122.242219 
L 322.121815 120.797837 
L 322.293589 125.842035 
L 322.585854 123.604774 
L 322.697841 125.196647 
L 322.823775 122.519141 
L 322.853869 123.659905 
L 322.911382 123.051699 
L 323.00662 124.222248 
L 323.160651 119.708398 
L 323.23816 121.502368 
L 323.354423 121.002115 
L 323.392369 118.654492 
L 323.488903 118.726653 
L 323.547071 123.621776 
L 323.837975 116.292068 
L 323.878767 119.002703 
L 324.00977 118.880606 
L 324.067383 112.65498 
L 324.125411 116.16995 
L 324.223888 117.439644 
L 324.433868 115.661998 
L 324.55102 118.780838 
L 324.665782 123.247755 
L 324.992459 130.519414 
L 325.225536 122.558616 
L 325.242935 125.995506 
L 325.325301 124.078466 
L 325.512853 122.609235 
L 325.589927 124.694876 
L 325.667355 124.626856 
L 325.802138 116.865086 
L 325.877567 117.806887 
L 326.034261 116.362255 
L 326.110561 117.824262 
L 326.264886 113.85786 
L 326.344867 110.891143 
L 326.824363 122.857437 
L 326.90084 120.83647 
L 326.996717 121.971749 
L 327.094186 120.61943 
L 327.151474 123.756873 
L 327.247384 122.86303 
L 327.459715 128.290861 
L 327.643446 124.21633 
L 327.749491 125.439426 
L 327.86475 130.980853 
L 328.264807 116.526323 
L 328.416851 116.513677 
L 328.664149 109.852343 
L 328.745719 111.3267 
L 328.819958 104.991016 
L 329.093036 115.255208 
L 329.138371 112.424926 
L 329.459611 116.946087 
L 329.574422 115.508576 
L 329.651984 119.264796 
L 329.767572 111.459183 
L 329.863281 109.003062 
L 330.017475 113.984272 
L 330.097986 113.775434 
L 330.248714 111.897469 
L 330.325967 112.530141 
L 330.575522 118.686662 
L 330.730581 121.880488 
L 330.888178 118.740514 
L 330.967227 120.917738 
L 331.21286 116.303097 
L 331.289748 114.859483 
L 331.368272 120.687754 
L 331.601323 112.062994 
L 331.677849 111.477059 
L 331.772549 109.522847 
L 332.033646 114.508639 
L 332.043275 110.78856 
L 332.082183 118.441701 
L 332.257036 126.735278 
L 332.326977 124.74406 
L 332.491446 128.750814 
L 332.719646 124.596955 
L 332.79623 126.6244 
L 333.029447 106.447794 
L 333.202263 113.008161 
L 333.278747 110.506534 
L 333.434091 121.987851 
L 333.511425 121.678632 
L 333.603848 122.738129 
L 333.685164 133.380244 
L 333.761886 130.611125 
L 333.935465 133.35735 
L 334.011633 131.293348 
L 334.069747 132.921359 
L 334.320347 129.051482 
L 334.475187 115.705119 
L 334.60936 118.234985 
L 334.674786 117.483354 
L 334.82072 107.593035 
L 335.015066 105.765643 
L 335.110574 108.140034 
L 335.149095 104.37335 
L 335.206651 107.47158 
L 335.421811 115.223117 
L 335.670546 121.452034 
L 335.767244 121.41802 
L 335.860293 118.268513 
L 335.898885 119.218818 
L 335.979131 118.447498 
L 336.054025 115.266709 
L 336.151095 118.930931 
L 336.228486 117.718274 
L 336.574064 108.790986 
L 336.635884 110.495958 
L 336.690859 116.762576 
L 336.818402 117.449251 
L 336.96859 120.739019 
L 337.05802 120.339006 
L 337.28905 134.942896 
L 337.407353 133.447843 
L 337.905312 122.083007 
L 337.98229 122.275507 
L 338.086803 118.332812 
L 338.10159 119.692731 
L 338.214987 120.779646 
L 338.294266 120.30495 
L 338.47174 126.06744 
L 338.622583 125.846667 
L 338.735066 124.738732 
L 338.797007 124.936182 
L 338.907021 127.878136 
L 338.951651 124.451985 
L 339.033023 127.202002 
L 339.100498 126.243119 
L 339.215694 124.828345 
L 339.253919 121.819702 
L 339.332121 124.442117 
L 339.506239 122.196175 
L 339.583919 124.290695 
L 339.62078 123.312604 
L 339.698465 122.157829 
L 339.7556 123.346538 
L 339.891648 120.696267 
L 339.968047 121.466585 
L 339.986162 118.511879 
L 340.065816 120.863219 
L 340.141701 117.358421 
L 340.297488 123.940886 
L 340.375129 123.025467 
L 340.448795 123.140281 
L 340.603572 124.595462 
L 340.699264 123.305086 
L 340.762737 123.364939 
L 340.931507 123.872466 
L 341.278831 112.488593 
L 341.432589 118.140988 
L 341.657541 123.341861 
L 341.74756 121.730526 
L 341.906055 123.994406 
L 342.004009 130.987207 
L 342.045399 128.304281 
L 342.187032 122.905052 
L 342.20533 127.5303 
L 342.223618 123.160772 
L 342.302219 122.566515 
L 342.455147 119.444664 
L 342.570837 122.818037 
L 342.766052 117.266149 
L 342.841837 119.384466 
L 343.033657 124.569493 
L 343.322869 119.303889 
L 343.457311 117.779504 
L 343.498213 118.031493 
L 343.633515 113.294387 
L 343.728539 115.945022 
L 343.823723 112.774157 
L 343.882161 112.967434 
L 344.056135 116.762196 
L 344.132601 114.153691 
L 344.210547 114.548557 
L 344.448344 116.603762 
L 344.596411 107.831612 
L 344.692139 109.41166 
L 344.75156 106.973964 
L 344.9823 116.972773 
L 345.328336 126.351409 
L 345.463341 127.093405 
L 345.52258 128.57284 
L 345.639744 120.941604 
L 345.795407 129.209769 
L 345.875088 126.839653 
L 345.952417 130.796273 
L 346.491267 119.424425 
L 346.743751 106.833131 
L 346.856601 107.784965 
L 346.992868 112.51169 
L 347.070827 108.709301 
L 347.151643 113.772979 
L 347.226231 111.388865 
L 347.24371 106.781579 
L 347.53938 115.962851 
L 347.705677 113.330197 
L 347.860418 120.012011 
L 347.983976 116.721886 
L 348.01494 117.047849 
L 348.110617 116.539839 
L 348.274734 112.870779 
L 348.357089 113.925786 
L 348.440081 108.429662 
L 348.496337 111.381633 
L 348.587321 108.173869 
L 348.756554 116.903512 
L 348.833843 115.796419 
L 348.931916 114.349586 
L 349.098498 121.565591 
L 349.247402 129.04523 
L 349.299048 125.225633 
L 349.374867 126.640568 
L 349.567757 117.435665 
L 349.701973 121.761515 
L 349.933229 118.791474 
L 350.04997 121.835664 
L 350.169327 116.060534 
L 350.537981 133.356563 
L 350.820773 129.881881 
L 351.014283 133.314621 
L 351.083819 133.692166 
L 351.147734 132.096054 
L 351.399579 120.254401 
L 351.459796 120.603546 
L 351.632777 117.804582 
L 351.766753 119.8457 
L 351.901962 124.770764 
L 351.939813 120.520158 
L 352.002959 123.606096 
L 352.464894 138.850513 
L 352.64258 133.98529 
L 352.790931 134.659189 
L 352.829609 130.097554 
L 352.95123 133.494857 
L 353.023243 132.65369 
L 353.21473 113.817009 
L 353.294806 123.894743 
L 353.388177 123.557911 
L 353.485294 122.238368 
L 353.542926 128.625898 
L 353.621951 121.487922 
L 353.677361 123.007586 
L 353.817625 126.978825 
L 354.105227 123.723278 
L 354.198763 119.08113 
L 354.294151 122.53395 
L 354.332808 116.620309 
L 354.401304 122.410157 
L 354.489046 124.757757 
L 354.71952 121.744607 
L 354.71952 121.744607 
" clip-path="url(#p65f626103a)" style="fill: none; stroke: #ff0000; stroke-opacity: 0.5; stroke-width: 2.1; stroke-linecap: square"/>
   </g>
   <g id="patch_3">
    <path d="M 41.680938 148.358736 
L 41.680938 1.109018 
" style="fill: none; stroke: #000000; stroke-width: 0.8; stroke-linejoin: miter; stroke-linecap: square"/>
   </g>
   <g id="patch_4">
    <path d="M 354.71952 148.358736 
L 354.71952 1.109018 
" style="fill: none; stroke: #000000; stroke-width: 0.8; stroke-linejoin: miter; stroke-linecap: square"/>
   </g>
   <g id="patch_5">
    <path d="M 41.680938 148.358736 
L 354.71952 148.358736 
" style="fill: none; stroke: #000000; stroke-width: 0.8; stroke-linejoin: miter; stroke-linecap: square"/>
   </g>
   <g id="patch_6">
    <path d="M 41.680938 1.109018 
L 354.71952 1.109018 
" style="fill: none; stroke: #000000; stroke-width: 0.8; stroke-linejoin: miter; stroke-linecap: square"/>
   </g>
   <g id="legend_1">
    <g id="patch_7">
     <path d="M 273.95077 38.465268 
L 347.71952 38.465268 
Q 349.71952 38.465268 349.71952 36.465268 
L 349.71952 8.109018 
Q 349.71952 6.109018 347.71952 6.109018 
L 273.95077 6.109018 
Q 271.95077 6.109018 271.95077 8.109018 
L 271.95077 36.465268 
Q 271.95077 38.465268 273.95077 38.465268 
z
" style="fill: #ffffff; opacity: 0.8; stroke: #cccccc; stroke-linejoin: miter"/>
    </g>
    <g id="line2d_29">
     <path d="M 275.95077 14.207455 
L 285.95077 14.207455 
L 295.95077 14.207455 
" style="fill: none; stroke: #0000ff; stroke-opacity: 0.5; stroke-width: 2.1; stroke-linecap: square"/>
    </g>
    <g id="text_16">
     <!-- RNEA -->
     <g transform="translate(303.95077 17.707455) scale(0.1 -0.1)">
      <defs>
       <path id="DejaVuSans-52" d="M 2841 2188 
Q 3044 2119 3236 1894 
Q 3428 1669 3622 1275 
L 4263 0 
L 3584 0 
L 2988 1197 
Q 2756 1666 2539 1819 
Q 2322 1972 1947 1972 
L 1259 1972 
L 1259 0 
L 628 0 
L 628 4666 
L 2053 4666 
Q 2853 4666 3247 4331 
Q 3641 3997 3641 3322 
Q 3641 2881 3436 2590 
Q 3231 2300 2841 2188 
z
M 1259 4147 
L 1259 2491 
L 2053 2491 
Q 2509 2491 2742 2702 
Q 2975 2913 2975 3322 
Q 2975 3731 2742 3939 
Q 2509 4147 2053 4147 
L 1259 4147 
z
" transform="scale(0.015625)"/>
       <path id="DejaVuSans-45" d="M 628 4666 
L 3578 4666 
L 3578 4134 
L 1259 4134 
L 1259 2753 
L 3481 2753 
L 3481 2222 
L 1259 2222 
L 1259 531 
L 3634 531 
L 3634 0 
L 628 0 
L 628 4666 
z
" transform="scale(0.015625)"/>
       <path id="DejaVuSans-41" d="M 2188 4044 
L 1331 1722 
L 3047 1722 
L 2188 4044 
z
M 1831 4666 
L 2547 4666 
L 4325 0 
L 3669 0 
L 3244 1197 
L 1141 1197 
L 716 0 
L 50 0 
L 1831 4666 
z
" transform="scale(0.015625)"/>
      </defs>
      <use xlink:href="#DejaVuSans-52"/>
      <use xlink:href="#DejaVuSans-4e" x="69.482422"/>
      <use xlink:href="#DejaVuSans-45" x="144.287109"/>
      <use xlink:href="#DejaVuSans-41" x="207.470703"/>
     </g>
    </g>
    <g id="line2d_30">
     <path d="M 275.95077 28.88558 
L 285.95077 28.88558 
L 295.95077 28.88558 
" style="fill: none; stroke: #ff0000; stroke-opacity: 0.5; stroke-width: 2.1; stroke-linecap: square"/>
    </g>
    <g id="text_17">
     <!-- BURNEA -->
     <g transform="translate(303.95077 32.38558) scale(0.1 -0.1)">
      <defs>
       <path id="DejaVuSans-42" d="M 1259 2228 
L 1259 519 
L 2272 519 
Q 2781 519 3026 730 
Q 3272 941 3272 1375 
Q 3272 1813 3026 2020 
Q 2781 2228 2272 2228 
L 1259 2228 
z
M 1259 4147 
L 1259 2741 
L 2194 2741 
Q 2656 2741 2882 2914 
Q 3109 3088 3109 3444 
Q 3109 3797 2882 3972 
Q 2656 4147 2194 4147 
L 1259 4147 
z
M 628 4666 
L 2241 4666 
Q 2963 4666 3353 4366 
Q 3744 4066 3744 3513 
Q 3744 3084 3544 2831 
Q 3344 2578 2956 2516 
Q 3422 2416 3680 2098 
Q 3938 1781 3938 1306 
Q 3938 681 3513 340 
Q 3088 0 2303 0 
L 628 0 
L 628 4666 
z
" transform="scale(0.015625)"/>
       <path id="DejaVuSans-55" d="M 556 4666 
L 1191 4666 
L 1191 1831 
Q 1191 1081 1462 751 
Q 1734 422 2344 422 
Q 2950 422 3222 751 
Q 3494 1081 3494 1831 
L 3494 4666 
L 4128 4666 
L 4128 1753 
Q 4128 841 3676 375 
Q 3225 -91 2344 -91 
Q 1459 -91 1007 375 
Q 556 841 556 1753 
L 556 4666 
z
" transform="scale(0.015625)"/>
      </defs>
      <use xlink:href="#DejaVuSans-42"/>
      <use xlink:href="#DejaVuSans-55" x="68.603516"/>
      <use xlink:href="#DejaVuSans-52" x="141.796875"/>
      <use xlink:href="#DejaVuSans-4e" x="211.279297"/>
      <use xlink:href="#DejaVuSans-45" x="286.083984"/>
      <use xlink:href="#DejaVuSans-41" x="349.267578"/>
     </g>
    </g>
   </g>
  </g>
 </g>
 <defs>
  <clipPath id="p65f626103a">
   <rect x="41.680938" y="1.109018" width="313.038582" height="147.249718"/>
  </clipPath>
 </defs>
</svg>
