<?xml version="1.0" encoding="utf-8" standalone="no"?>
<!DOCTYPE svg PUBLIC "-//W3C//DTD SVG 1.1//EN"
  "http://www.w3.org/Graphics/SVG/1.1/DTD/svg11.dtd">
<svg xmlns:xlink="http://www.w3.org/1999/xlink" width="597.222813pt" height="306.935963pt" viewBox="0 0 597.222813 306.935963" xmlns="http://www.w3.org/2000/svg" version="1.1">
 <metadata>
  <rdf:RDF xmlns:dc="http://purl.org/dc/elements/1.1/" xmlns:cc="http://creativecommons.org/ns#" xmlns:rdf="http://www.w3.org/1999/02/22-rdf-syntax-ns#">
   <cc:Work>
    <dc:type rdf:resource="http://purl.org/dc/dcmitype/StillImage"/>
    <dc:date>2023-09-05T22:08:33.801645</dc:date>
    <dc:format>image/svg+xml</dc:format>
    <dc:creator>
     <cc:Agent>
      <dc:title>Matplotlib v3.7.2, https://matplotlib.org/</dc:title>
     </cc:Agent>
    </dc:creator>
   </cc:Work>
  </rdf:RDF>
 </metadata>
 <defs>
  <style type="text/css">*{stroke-linejoin: round; stroke-linecap: butt}</style>
 </defs>
 <g id="figure_1">
  <g id="patch_1">
   <path d="M 0 306.935963 
L 597.222813 306.935963 
L 597.222813 0 
L 0 0 
L 0 306.935963 
z
" style="fill: none"/>
  </g>
  <g id="axes_1">
   <g id="patch_2">
    <path d="M 38.502813 279.859713 
L 596.502813 279.859713 
L 596.502813 2.659713 
L 38.502813 2.659713 
L 38.502813 279.859713 
z
" style="fill: none"/>
   </g>
   <g id="matplotlib.axis_1">
    <g id="xtick_1">
     <g id="line2d_1">
      <path d="M 38.502813 279.859713 
L 38.502813 2.659713 
" clip-path="url(#p1882bd2881)" style="fill: none; stroke-dasharray: 0.8,1.32; stroke-dashoffset: 0; stroke: #000000; stroke-opacity: 0.5; stroke-width: 0.8"/>
     </g>
     <g id="line2d_2">
      <defs>
       <path id="mb5aa9f10aa" d="M 0 0 
L 0 3.5 
" style="stroke: #000000; stroke-width: 0.8"/>
      </defs>
      <g>
       <use xlink:href="#mb5aa9f10aa" x="38.502813" y="279.859713" style="stroke: #000000; stroke-width: 0.8"/>
      </g>
     </g>
     <g id="text_1">
      <!-- 0.0 -->
      <g transform="translate(30.55125 294.458151) scale(0.1 -0.1)">
       <defs>
        <path id="DejaVuSans-30" d="M 2034 4250 
Q 1547 4250 1301 3770 
Q 1056 3291 1056 2328 
Q 1056 1369 1301 889 
Q 1547 409 2034 409 
Q 2525 409 2770 889 
Q 3016 1369 3016 2328 
Q 3016 3291 2770 3770 
Q 2525 4250 2034 4250 
z
M 2034 4750 
Q 2819 4750 3233 4129 
Q 3647 3509 3647 2328 
Q 3647 1150 3233 529 
Q 2819 -91 2034 -91 
Q 1250 -91 836 529 
Q 422 1150 422 2328 
Q 422 3509 836 4129 
Q 1250 4750 2034 4750 
z
" transform="scale(0.015625)"/>
        <path id="DejaVuSans-2e" d="M 684 794 
L 1344 794 
L 1344 0 
L 684 0 
L 684 794 
z
" transform="scale(0.015625)"/>
       </defs>
       <use xlink:href="#DejaVuSans-30"/>
       <use xlink:href="#DejaVuSans-2e" x="63.623047"/>
       <use xlink:href="#DejaVuSans-30" x="95.410156"/>
      </g>
     </g>
    </g>
    <g id="xtick_2">
     <g id="line2d_3">
      <path d="M 112.654137 279.859713 
L 112.654137 2.659713 
" clip-path="url(#p1882bd2881)" style="fill: none; stroke-dasharray: 0.8,1.32; stroke-dashoffset: 0; stroke: #000000; stroke-opacity: 0.5; stroke-width: 0.8"/>
     </g>
     <g id="line2d_4">
      <g>
       <use xlink:href="#mb5aa9f10aa" x="112.654137" y="279.859713" style="stroke: #000000; stroke-width: 0.8"/>
      </g>
     </g>
     <g id="text_2">
      <!-- 2.5 -->
      <g transform="translate(104.702575 294.458151) scale(0.1 -0.1)">
       <defs>
        <path id="DejaVuSans-32" d="M 1228 531 
L 3431 531 
L 3431 0 
L 469 0 
L 469 531 
Q 828 903 1448 1529 
Q 2069 2156 2228 2338 
Q 2531 2678 2651 2914 
Q 2772 3150 2772 3378 
Q 2772 3750 2511 3984 
Q 2250 4219 1831 4219 
Q 1534 4219 1204 4116 
Q 875 4013 500 3803 
L 500 4441 
Q 881 4594 1212 4672 
Q 1544 4750 1819 4750 
Q 2544 4750 2975 4387 
Q 3406 4025 3406 3419 
Q 3406 3131 3298 2873 
Q 3191 2616 2906 2266 
Q 2828 2175 2409 1742 
Q 1991 1309 1228 531 
z
" transform="scale(0.015625)"/>
        <path id="DejaVuSans-35" d="M 691 4666 
L 3169 4666 
L 3169 4134 
L 1269 4134 
L 1269 2991 
Q 1406 3038 1543 3061 
Q 1681 3084 1819 3084 
Q 2600 3084 3056 2656 
Q 3513 2228 3513 1497 
Q 3513 744 3044 326 
Q 2575 -91 1722 -91 
Q 1428 -91 1123 -41 
Q 819 9 494 109 
L 494 744 
Q 775 591 1075 516 
Q 1375 441 1709 441 
Q 2250 441 2565 725 
Q 2881 1009 2881 1497 
Q 2881 1984 2565 2268 
Q 2250 2553 1709 2553 
Q 1456 2553 1204 2497 
Q 953 2441 691 2322 
L 691 4666 
z
" transform="scale(0.015625)"/>
       </defs>
       <use xlink:href="#DejaVuSans-32"/>
       <use xlink:href="#DejaVuSans-2e" x="63.623047"/>
       <use xlink:href="#DejaVuSans-35" x="95.410156"/>
      </g>
     </g>
    </g>
    <g id="xtick_3">
     <g id="line2d_5">
      <path d="M 186.805462 279.859713 
L 186.805462 2.659713 
" clip-path="url(#p1882bd2881)" style="fill: none; stroke-dasharray: 0.8,1.32; stroke-dashoffset: 0; stroke: #000000; stroke-opacity: 0.5; stroke-width: 0.8"/>
     </g>
     <g id="line2d_6">
      <g>
       <use xlink:href="#mb5aa9f10aa" x="186.805462" y="279.859713" style="stroke: #000000; stroke-width: 0.8"/>
      </g>
     </g>
     <g id="text_3">
      <!-- 5.0 -->
      <g transform="translate(178.8539 294.458151) scale(0.1 -0.1)">
       <use xlink:href="#DejaVuSans-35"/>
       <use xlink:href="#DejaVuSans-2e" x="63.623047"/>
       <use xlink:href="#DejaVuSans-30" x="95.410156"/>
      </g>
     </g>
    </g>
    <g id="xtick_4">
     <g id="line2d_7">
      <path d="M 260.956787 279.859713 
L 260.956787 2.659713 
" clip-path="url(#p1882bd2881)" style="fill: none; stroke-dasharray: 0.8,1.32; stroke-dashoffset: 0; stroke: #000000; stroke-opacity: 0.5; stroke-width: 0.8"/>
     </g>
     <g id="line2d_8">
      <g>
       <use xlink:href="#mb5aa9f10aa" x="260.956787" y="279.859713" style="stroke: #000000; stroke-width: 0.8"/>
      </g>
     </g>
     <g id="text_4">
      <!-- 7.5 -->
      <g transform="translate(253.005225 294.458151) scale(0.1 -0.1)">
       <defs>
        <path id="DejaVuSans-37" d="M 525 4666 
L 3525 4666 
L 3525 4397 
L 1831 0 
L 1172 0 
L 2766 4134 
L 525 4134 
L 525 4666 
z
" transform="scale(0.015625)"/>
       </defs>
       <use xlink:href="#DejaVuSans-37"/>
       <use xlink:href="#DejaVuSans-2e" x="63.623047"/>
       <use xlink:href="#DejaVuSans-35" x="95.410156"/>
      </g>
     </g>
    </g>
    <g id="xtick_5">
     <g id="line2d_9">
      <path d="M 335.108112 279.859713 
L 335.108112 2.659713 
" clip-path="url(#p1882bd2881)" style="fill: none; stroke-dasharray: 0.8,1.32; stroke-dashoffset: 0; stroke: #000000; stroke-opacity: 0.5; stroke-width: 0.8"/>
     </g>
     <g id="line2d_10">
      <g>
       <use xlink:href="#mb5aa9f10aa" x="335.108112" y="279.859713" style="stroke: #000000; stroke-width: 0.8"/>
      </g>
     </g>
     <g id="text_5">
      <!-- 10.0 -->
      <g transform="translate(323.9753 294.458151) scale(0.1 -0.1)">
       <defs>
        <path id="DejaVuSans-31" d="M 794 531 
L 1825 531 
L 1825 4091 
L 703 3866 
L 703 4441 
L 1819 4666 
L 2450 4666 
L 2450 531 
L 3481 531 
L 3481 0 
L 794 0 
L 794 531 
z
" transform="scale(0.015625)"/>
       </defs>
       <use xlink:href="#DejaVuSans-31"/>
       <use xlink:href="#DejaVuSans-30" x="63.623047"/>
       <use xlink:href="#DejaVuSans-2e" x="127.246094"/>
       <use xlink:href="#DejaVuSans-30" x="159.033203"/>
      </g>
     </g>
    </g>
    <g id="xtick_6">
     <g id="line2d_11">
      <path d="M 409.259437 279.859713 
L 409.259437 2.659713 
" clip-path="url(#p1882bd2881)" style="fill: none; stroke-dasharray: 0.8,1.32; stroke-dashoffset: 0; stroke: #000000; stroke-opacity: 0.5; stroke-width: 0.8"/>
     </g>
     <g id="line2d_12">
      <g>
       <use xlink:href="#mb5aa9f10aa" x="409.259437" y="279.859713" style="stroke: #000000; stroke-width: 0.8"/>
      </g>
     </g>
     <g id="text_6">
      <!-- 12.5 -->
      <g transform="translate(398.126625 294.458151) scale(0.1 -0.1)">
       <use xlink:href="#DejaVuSans-31"/>
       <use xlink:href="#DejaVuSans-32" x="63.623047"/>
       <use xlink:href="#DejaVuSans-2e" x="127.246094"/>
       <use xlink:href="#DejaVuSans-35" x="159.033203"/>
      </g>
     </g>
    </g>
    <g id="xtick_7">
     <g id="line2d_13">
      <path d="M 483.410762 279.859713 
L 483.410762 2.659713 
" clip-path="url(#p1882bd2881)" style="fill: none; stroke-dasharray: 0.8,1.32; stroke-dashoffset: 0; stroke: #000000; stroke-opacity: 0.5; stroke-width: 0.8"/>
     </g>
     <g id="line2d_14">
      <g>
       <use xlink:href="#mb5aa9f10aa" x="483.410762" y="279.859713" style="stroke: #000000; stroke-width: 0.8"/>
      </g>
     </g>
     <g id="text_7">
      <!-- 15.0 -->
      <g transform="translate(472.27795 294.458151) scale(0.1 -0.1)">
       <use xlink:href="#DejaVuSans-31"/>
       <use xlink:href="#DejaVuSans-35" x="63.623047"/>
       <use xlink:href="#DejaVuSans-2e" x="127.246094"/>
       <use xlink:href="#DejaVuSans-30" x="159.033203"/>
      </g>
     </g>
    </g>
    <g id="xtick_8">
     <g id="line2d_15">
      <path d="M 557.562087 279.859713 
L 557.562087 2.659713 
" clip-path="url(#p1882bd2881)" style="fill: none; stroke-dasharray: 0.8,1.32; stroke-dashoffset: 0; stroke: #000000; stroke-opacity: 0.5; stroke-width: 0.8"/>
     </g>
     <g id="line2d_16">
      <g>
       <use xlink:href="#mb5aa9f10aa" x="557.562087" y="279.859713" style="stroke: #000000; stroke-width: 0.8"/>
      </g>
     </g>
     <g id="text_8">
      <!-- 17.5 -->
      <g transform="translate(546.429274 294.458151) scale(0.1 -0.1)">
       <use xlink:href="#DejaVuSans-31"/>
       <use xlink:href="#DejaVuSans-37" x="63.623047"/>
       <use xlink:href="#DejaVuSans-2e" x="127.246094"/>
       <use xlink:href="#DejaVuSans-35" x="159.033203"/>
      </g>
     </g>
    </g>
    <g id="text_9">
     <!-- Zeit [s] -->
     <g transform="translate(299.556719 304.136276) scale(0.1 -0.1)">
      <defs>
       <path id="DejaVuSans-5a" d="M 359 4666 
L 4025 4666 
L 4025 4184 
L 1075 531 
L 4097 531 
L 4097 0 
L 288 0 
L 288 481 
L 3238 4134 
L 359 4134 
L 359 4666 
z
" transform="scale(0.015625)"/>
       <path id="DejaVuSans-65" d="M 3597 1894 
L 3597 1613 
L 953 1613 
Q 991 1019 1311 708 
Q 1631 397 2203 397 
Q 2534 397 2845 478 
Q 3156 559 3463 722 
L 3463 178 
Q 3153 47 2828 -22 
Q 2503 -91 2169 -91 
Q 1331 -91 842 396 
Q 353 884 353 1716 
Q 353 2575 817 3079 
Q 1281 3584 2069 3584 
Q 2775 3584 3186 3129 
Q 3597 2675 3597 1894 
z
M 3022 2063 
Q 3016 2534 2758 2815 
Q 2500 3097 2075 3097 
Q 1594 3097 1305 2825 
Q 1016 2553 972 2059 
L 3022 2063 
z
" transform="scale(0.015625)"/>
       <path id="DejaVuSans-69" d="M 603 3500 
L 1178 3500 
L 1178 0 
L 603 0 
L 603 3500 
z
M 603 4863 
L 1178 4863 
L 1178 4134 
L 603 4134 
L 603 4863 
z
" transform="scale(0.015625)"/>
       <path id="DejaVuSans-74" d="M 1172 4494 
L 1172 3500 
L 2356 3500 
L 2356 3053 
L 1172 3053 
L 1172 1153 
Q 1172 725 1289 603 
Q 1406 481 1766 481 
L 2356 481 
L 2356 0 
L 1766 0 
Q 1100 0 847 248 
Q 594 497 594 1153 
L 594 3053 
L 172 3053 
L 172 3500 
L 594 3500 
L 594 4494 
L 1172 4494 
z
" transform="scale(0.015625)"/>
       <path id="DejaVuSans-20" transform="scale(0.015625)"/>
       <path id="DejaVuSans-5b" d="M 550 4863 
L 1875 4863 
L 1875 4416 
L 1125 4416 
L 1125 -397 
L 1875 -397 
L 1875 -844 
L 550 -844 
L 550 4863 
z
" transform="scale(0.015625)"/>
       <path id="DejaVuSans-73" d="M 2834 3397 
L 2834 2853 
Q 2591 2978 2328 3040 
Q 2066 3103 1784 3103 
Q 1356 3103 1142 2972 
Q 928 2841 928 2578 
Q 928 2378 1081 2264 
Q 1234 2150 1697 2047 
L 1894 2003 
Q 2506 1872 2764 1633 
Q 3022 1394 3022 966 
Q 3022 478 2636 193 
Q 2250 -91 1575 -91 
Q 1294 -91 989 -36 
Q 684 19 347 128 
L 347 722 
Q 666 556 975 473 
Q 1284 391 1588 391 
Q 1994 391 2212 530 
Q 2431 669 2431 922 
Q 2431 1156 2273 1281 
Q 2116 1406 1581 1522 
L 1381 1569 
Q 847 1681 609 1914 
Q 372 2147 372 2553 
Q 372 3047 722 3315 
Q 1072 3584 1716 3584 
Q 2034 3584 2315 3537 
Q 2597 3491 2834 3397 
z
" transform="scale(0.015625)"/>
       <path id="DejaVuSans-5d" d="M 1947 4863 
L 1947 -844 
L 622 -844 
L 622 -397 
L 1369 -397 
L 1369 4416 
L 622 4416 
L 622 4863 
L 1947 4863 
z
" transform="scale(0.015625)"/>
      </defs>
      <use xlink:href="#DejaVuSans-5a"/>
      <use xlink:href="#DejaVuSans-65" x="68.505859"/>
      <use xlink:href="#DejaVuSans-69" x="130.029297"/>
      <use xlink:href="#DejaVuSans-74" x="157.8125"/>
      <use xlink:href="#DejaVuSans-20" x="197.021484"/>
      <use xlink:href="#DejaVuSans-5b" x="228.808594"/>
      <use xlink:href="#DejaVuSans-73" x="267.822266"/>
      <use xlink:href="#DejaVuSans-5d" x="319.921875"/>
     </g>
    </g>
   </g>
   <g id="matplotlib.axis_2">
    <g id="ytick_1">
     <g id="line2d_17">
      <path d="M 38.502813 230.647298 
L 596.502813 230.647298 
" clip-path="url(#p1882bd2881)" style="fill: none; stroke-dasharray: 0.8,1.32; stroke-dashoffset: 0; stroke: #000000; stroke-opacity: 0.5; stroke-width: 0.8"/>
     </g>
     <g id="line2d_18">
      <defs>
       <path id="m94d2352044" d="M 0 0 
L -3.5 0 
" style="stroke: #000000; stroke-width: 0.8"/>
      </defs>
      <g>
       <use xlink:href="#m94d2352044" x="38.502813" y="230.647298" style="stroke: #000000; stroke-width: 0.8"/>
      </g>
     </g>
     <g id="text_10">
      <!-- −20 -->
      <g transform="translate(10.398125 234.446517) scale(0.1 -0.1)">
       <defs>
        <path id="DejaVuSans-2212" d="M 678 2272 
L 4684 2272 
L 4684 1741 
L 678 1741 
L 678 2272 
z
" transform="scale(0.015625)"/>
       </defs>
       <use xlink:href="#DejaVuSans-2212"/>
       <use xlink:href="#DejaVuSans-32" x="83.789062"/>
       <use xlink:href="#DejaVuSans-30" x="147.412109"/>
      </g>
     </g>
    </g>
    <g id="ytick_2">
     <g id="line2d_19">
      <path d="M 38.502813 174.115278 
L 596.502813 174.115278 
" clip-path="url(#p1882bd2881)" style="fill: none; stroke-dasharray: 0.8,1.32; stroke-dashoffset: 0; stroke: #000000; stroke-opacity: 0.5; stroke-width: 0.8"/>
     </g>
     <g id="line2d_20">
      <g>
       <use xlink:href="#m94d2352044" x="38.502813" y="174.115278" style="stroke: #000000; stroke-width: 0.8"/>
      </g>
     </g>
     <g id="text_11">
      <!-- −10 -->
      <g transform="translate(10.398125 177.914497) scale(0.1 -0.1)">
       <use xlink:href="#DejaVuSans-2212"/>
       <use xlink:href="#DejaVuSans-31" x="83.789062"/>
       <use xlink:href="#DejaVuSans-30" x="147.412109"/>
      </g>
     </g>
    </g>
    <g id="ytick_3">
     <g id="line2d_21">
      <path d="M 38.502813 117.583258 
L 596.502813 117.583258 
" clip-path="url(#p1882bd2881)" style="fill: none; stroke-dasharray: 0.8,1.32; stroke-dashoffset: 0; stroke: #000000; stroke-opacity: 0.5; stroke-width: 0.8"/>
     </g>
     <g id="line2d_22">
      <g>
       <use xlink:href="#m94d2352044" x="38.502813" y="117.583258" style="stroke: #000000; stroke-width: 0.8"/>
      </g>
     </g>
     <g id="text_12">
      <!-- 0 -->
      <g transform="translate(25.140313 121.382477) scale(0.1 -0.1)">
       <use xlink:href="#DejaVuSans-30"/>
      </g>
     </g>
    </g>
    <g id="ytick_4">
     <g id="line2d_23">
      <path d="M 38.502813 61.051239 
L 596.502813 61.051239 
" clip-path="url(#p1882bd2881)" style="fill: none; stroke-dasharray: 0.8,1.32; stroke-dashoffset: 0; stroke: #000000; stroke-opacity: 0.5; stroke-width: 0.8"/>
     </g>
     <g id="line2d_24">
      <g>
       <use xlink:href="#m94d2352044" x="38.502813" y="61.051239" style="stroke: #000000; stroke-width: 0.8"/>
      </g>
     </g>
     <g id="text_13">
      <!-- 10 -->
      <g transform="translate(18.777813 64.850457) scale(0.1 -0.1)">
       <use xlink:href="#DejaVuSans-31"/>
       <use xlink:href="#DejaVuSans-30" x="63.623047"/>
      </g>
     </g>
    </g>
    <g id="ytick_5">
     <g id="line2d_25">
      <path d="M 38.502813 4.519219 
L 596.502813 4.519219 
" clip-path="url(#p1882bd2881)" style="fill: none; stroke-dasharray: 0.8,1.32; stroke-dashoffset: 0; stroke: #000000; stroke-opacity: 0.5; stroke-width: 0.8"/>
     </g>
     <g id="line2d_26">
      <g>
       <use xlink:href="#m94d2352044" x="38.502813" y="4.519219" style="stroke: #000000; stroke-width: 0.8"/>
      </g>
     </g>
     <g id="text_14">
      <!-- 20 -->
      <g transform="translate(18.777813 8.318438) scale(0.1 -0.1)">
       <use xlink:href="#DejaVuSans-32"/>
       <use xlink:href="#DejaVuSans-30" x="63.623047"/>
      </g>
     </g>
    </g>
    <g id="text_15">
     <!-- Kraft [N] -->
     <g transform="translate(8.318438 162.522213) rotate(-90) scale(0.1 -0.1)">
      <defs>
       <path id="DejaVuSans-4b" d="M 628 4666 
L 1259 4666 
L 1259 2694 
L 3353 4666 
L 4166 4666 
L 1850 2491 
L 4331 0 
L 3500 0 
L 1259 2247 
L 1259 0 
L 628 0 
L 628 4666 
z
" transform="scale(0.015625)"/>
       <path id="DejaVuSans-72" d="M 2631 2963 
Q 2534 3019 2420 3045 
Q 2306 3072 2169 3072 
Q 1681 3072 1420 2755 
Q 1159 2438 1159 1844 
L 1159 0 
L 581 0 
L 581 3500 
L 1159 3500 
L 1159 2956 
Q 1341 3275 1631 3429 
Q 1922 3584 2338 3584 
Q 2397 3584 2469 3576 
Q 2541 3569 2628 3553 
L 2631 2963 
z
" transform="scale(0.015625)"/>
       <path id="DejaVuSans-61" d="M 2194 1759 
Q 1497 1759 1228 1600 
Q 959 1441 959 1056 
Q 959 750 1161 570 
Q 1363 391 1709 391 
Q 2188 391 2477 730 
Q 2766 1069 2766 1631 
L 2766 1759 
L 2194 1759 
z
M 3341 1997 
L 3341 0 
L 2766 0 
L 2766 531 
Q 2569 213 2275 61 
Q 1981 -91 1556 -91 
Q 1019 -91 701 211 
Q 384 513 384 1019 
Q 384 1609 779 1909 
Q 1175 2209 1959 2209 
L 2766 2209 
L 2766 2266 
Q 2766 2663 2505 2880 
Q 2244 3097 1772 3097 
Q 1472 3097 1187 3025 
Q 903 2953 641 2809 
L 641 3341 
Q 956 3463 1253 3523 
Q 1550 3584 1831 3584 
Q 2591 3584 2966 3190 
Q 3341 2797 3341 1997 
z
" transform="scale(0.015625)"/>
       <path id="DejaVuSans-66" d="M 2375 4863 
L 2375 4384 
L 1825 4384 
Q 1516 4384 1395 4259 
Q 1275 4134 1275 3809 
L 1275 3500 
L 2222 3500 
L 2222 3053 
L 1275 3053 
L 1275 0 
L 697 0 
L 697 3053 
L 147 3053 
L 147 3500 
L 697 3500 
L 697 3744 
Q 697 4328 969 4595 
Q 1241 4863 1831 4863 
L 2375 4863 
z
" transform="scale(0.015625)"/>
       <path id="DejaVuSans-4e" d="M 628 4666 
L 1478 4666 
L 3547 763 
L 3547 4666 
L 4159 4666 
L 4159 0 
L 3309 0 
L 1241 3903 
L 1241 0 
L 628 0 
L 628 4666 
z
" transform="scale(0.015625)"/>
      </defs>
      <use xlink:href="#DejaVuSans-4b"/>
      <use xlink:href="#DejaVuSans-72" x="65.576172"/>
      <use xlink:href="#DejaVuSans-61" x="106.689453"/>
      <use xlink:href="#DejaVuSans-66" x="167.96875"/>
      <use xlink:href="#DejaVuSans-74" x="201.423828"/>
      <use xlink:href="#DejaVuSans-20" x="240.632812"/>
      <use xlink:href="#DejaVuSans-5b" x="272.419922"/>
      <use xlink:href="#DejaVuSans-4e" x="311.433594"/>
      <use xlink:href="#DejaVuSans-5d" x="386.238281"/>
     </g>
    </g>
   </g>
   <g id="line2d_27">
    <path d="M 38.502813 117.583258 
L 223.248476 117.583258 
L 223.554257 2.659713 
L 223.732051 72.070859 
L 224.048213 66.776193 
L 224.26118 43.305223 
L 224.498476 68.773524 
L 224.738977 80.731559 
L 224.976617 76.743002 
L 225.274355 88.15961 
L 225.513956 104.524834 
L 225.75103 98.311308 
L 225.988789 122.380123 
L 226.226817 97.406624 
L 226.525541 110.608249 
L 226.707352 144.049595 
L 227.004147 120.882119 
L 227.184451 117.220256 
L 227.422827 103.819775 
L 227.479239 125.399258 
L 227.717393 119.448187 
L 227.956897 122.120996 
L 228.194151 117.226899 
L 228.491933 141.621223 
L 228.972776 121.467243 
L 229.211707 102.180386 
L 229.507621 116.402327 
L 229.86666 116.310977 
L 229.998628 116.640795 
L 230.173069 116.735102 
L 230.408796 119.510065 
L 230.705939 136.565907 
L 230.945101 109.686641 
L 231.242363 104.840472 
L 231.630147 118.001262 
L 231.663719 152.612463 
L 232.316057 103.454793 
L 232.434509 132.129131 
L 232.915984 109.539508 
L 233.208451 101.217162 
L 233.387885 91.777967 
L 233.626662 120.079937 
L 233.864567 98.076301 
L 234.163673 129.576002 
L 234.459871 94.861176 
L 234.638675 122.589997 
L 235.11598 105.931046 
L 235.432665 115.66488 
L 235.72695 114.491842 
L 235.906757 107.641929 
L 236.084479 120.227227 
L 236.384217 117.160778 
L 236.621287 102.281007 
L 236.919839 99.44471 
L 237.157824 105.201461 
L 237.395703 106.938343 
L 237.695023 107.067159 
L 237.874902 130.212152 
L 238.290534 101.987469 
L 238.35076 120.048147 
L 238.589264 122.251692 
L 238.828455 118.838869 
L 239.065068 104.131946 
L 239.305311 110.675271 
L 239.549082 108.122397 
L 239.840779 113.612012 
L 240.023237 136.032408 
L 240.317181 113.284411 
L 240.614551 106.34407 
L 240.793797 108.4622 
L 241.151839 115.923236 
L 241.389884 100.255717 
L 241.569338 112.692669 
L 241.806632 109.008967 
L 242.044896 112.203562 
L 242.344062 112.418115 
L 242.641746 115.785677 
L 242.939843 117.197602 
L 243.118815 115.45661 
L 243.41606 119.948704 
L 243.539421 115.115881 
L 243.836562 113.548191 
L 244.071675 107.734682 
L 244.253567 98.564967 
L 244.760099 117.728082 
L 244.998784 120.359572 
L 245.503869 106.525385 
L 245.741822 114.643785 
L 246.202726 109.946298 
L 246.460816 126.056225 
L 246.754794 110.660409 
L 246.994239 114.920118 
L 247.232263 132.352149 
L 247.469526 114.213988 
L 247.708076 115.496485 
L 248.125328 112.259234 
L 248.543255 134.573407 
L 248.848689 100.166642 
L 249.020847 108.718836 
L 249.530817 116.394822 
L 249.796994 111.916778 
L 249.91722 113.627791 
L 250.176782 113.84626 
L 250.454559 114.937564 
L 250.69308 128.907646 
L 250.990238 107.713896 
L 251.171156 106.318406 
L 251.466717 90.691032 
L 251.705896 96.966216 
L 252.004037 116.51079 
L 252.243865 114.995346 
L 252.425758 99.236746 
L 252.66071 107.618539 
L 252.958474 127.330649 
L 253.137428 111.355145 
L 253.437262 100.495491 
L 253.732822 113.840527 
L 253.912799 109.722333 
L 254.151034 119.505487 
L 254.390353 113.278779 
L 254.629948 116.695216 
L 254.866171 94.156169 
L 255.283195 130.202941 
L 255.64118 98.012304 
L 255.702331 116.501203 
L 255.879236 103.49749 
L 256.357 121.169212 
L 256.596713 101.642633 
L 257.013573 102.700945 
L 257.134596 121.257504 
L 257.430682 96.630813 
L 257.61066 111.537388 
L 257.848051 113.540084 
L 258.20509 113.71724 
L 258.577231 92.141841 
L 258.859825 119.379154 
L 259.158214 104.985293 
L 259.487917 115.653779 
L 259.730147 113.236857 
L 259.876027 93.540399 
L 260.294447 109.903753 
L 260.949329 89.508492 
L 261.322962 114.711223 
L 261.490067 108.472442 
L 261.602805 109.778442 
L 261.975746 109.612474 
L 262.086563 100.991563 
L 262.328785 115.187492 
L 262.55622 112.045667 
L 262.794199 125.094078 
L 263.151773 130.611192 
L 263.330837 101.574679 
L 263.866901 95.559827 
L 264.285849 110.792262 
L 264.643203 103.478035 
L 264.881961 107.107475 
L 265.058864 105.62993 
L 265.299527 118.251396 
L 265.714773 102.185341 
L 265.955612 120.768586 
L 266.191948 92.729002 
L 266.252174 112.840355 
L 266.48981 119.014303 
L 266.788459 112.618194 
L 267.09442 117.424782 
L 267.324829 110.797234 
L 267.563622 100.265881 
L 267.759853 109.050526 
L 268.099501 118.391451 
L 268.338011 105.886723 
L 268.532791 105.392229 
L 268.756773 115.155737 
L 269.017167 110.599001 
L 269.233644 117.264064 
L 269.530633 131.846833 
L 270.125731 124.20476 
L 270.245132 115.971596 
L 270.661966 107.373985 
L 270.723 102.932947 
L 270.960397 106.025108 
L 271.318588 120.084917 
L 271.561653 95.804802 
L 271.735812 117.600957 
L 271.975033 108.809584 
L 272.273994 119.137829 
L 272.454512 116.196129 
L 272.689423 97.066587 
L 272.927961 117.538192 
L 273.17533 105.478694 
L 273.464189 110.445328 
L 273.643316 107.700606 
L 273.969451 110.14656 
L 274.219372 104.06428 
L 274.658263 105.813706 
L 274.845561 107.502296 
L 275.037647 110.995077 
L 275.313574 107.819779 
L 275.437851 120.483625 
L 275.791628 120.63006 
L 275.91339 102.108102 
L 276.20821 105.969063 
L 276.393789 115.758694 
L 276.812326 111.263194 
L 277.049078 125.673699 
L 277.162083 121.289452 
L 277.590469 99.494535 
L 277.779075 109.659985 
L 278.12053 97.434943 
L 278.475781 129.08778 
L 278.624491 106.092673 
L 278.955747 122.225147 
L 279.193852 118.820876 
L 279.431173 104.153753 
L 279.612332 118.387678 
L 279.907556 105.798814 
L 280.086959 110.115751 
L 280.384925 95.732442 
L 280.623809 107.786572 
L 280.980465 99.529363 
L 281.1601 110.441604 
L 281.457142 107.423375 
L 281.594071 114.370058 
L 281.873928 103.390282 
L 282.056615 116.283896 
L 282.113657 95.791732 
L 282.351481 105.651114 
L 282.533731 105.574583 
L 283.068365 95.66023 
L 283.306338 102.311058 
L 283.66432 97.039957 
L 284.088847 111.397526 
L 284.319934 108.969678 
L 284.856401 99.118821 
L 285.034625 107.827446 
L 285.276257 90.027443 
L 285.690436 106.559453 
L 285.810779 99.062167 
L 286.048783 104.485888 
L 286.292195 97.737196 
L 286.526687 114.230513 
L 286.769413 105.816969 
L 287.007247 120.278872 
L 287.262421 101.503783 
L 287.484106 124.719607 
L 287.900764 101.385584 
L 288.024509 88.317029 
L 288.259375 103.776635 
L 288.497522 73.3673 
L 288.736219 105.893071 
L 289.035046 117.051419 
L 289.24077 115.041165 
L 289.455069 89.150808 
L 289.811148 97.950123 
L 290.227704 94.233813 
L 290.465879 101.0891 
L 290.883363 109.149231 
L 290.948755 96.705968 
L 291.225488 103.708253 
L 291.495528 120.461002 
L 291.679836 104.908096 
L 292.13465 118.745395 
L 292.194976 83.525477 
L 292.432576 99.018358 
L 292.969282 111.618319 
L 293.504983 101.53735 
L 293.689059 106.505543 
L 294.221147 130.074135 
L 294.466574 111.006549 
L 294.698997 123.116303 
L 294.878318 106.891731 
L 295.173661 115.480545 
L 295.4127 99.54981 
L 295.717231 92.617054 
L 295.948103 106.809431 
L 296.19442 107.649377 
L 296.426372 100.233175 
L 296.961851 105.908949 
L 297.152314 110.165432 
L 297.438974 97.784998 
L 297.620443 111.314361 
L 297.929888 101.09213 
L 298.095365 110.451732 
L 298.335465 103.106079 
L 298.632709 113.110138 
L 298.870236 98.399256 
L 299.108436 108.720079 
L 299.60655 101.954703 
L 299.827215 101.379241 
L 300.182774 120.227863 
L 300.361705 104.610258 
L 300.600166 107.940188 
L 300.854175 98.928937 
L 301.079765 102.051186 
L 301.494049 86.161464 
L 301.613328 104.700485 
L 301.911255 84.95381 
L 302.09056 108.512118 
L 302.447614 100.736582 
L 302.626399 102.01242 
L 302.80676 80.93758 
L 303.043886 104.841145 
L 303.341324 106.949794 
L 303.54503 109.355214 
L 303.826118 103.145676 
L 304.119111 105.909724 
L 304.41641 105.010152 
L 304.595673 98.675542 
L 304.95287 97.221927 
L 305.252232 114.254917 
L 305.31073 108.244223 
L 305.548602 103.179921 
L 305.846457 109.999692 
L 306.02906 100.172552 
L 306.385283 101.136531 
L 306.562027 144.491857 
L 306.801509 108.18595 
L 306.996024 106.186971 
L 307.281744 109.402206 
L 307.656728 104.698552 
L 307.900046 105.327058 
L 308.067971 88.244006 
L 308.299126 118.602185 
L 308.537897 97.025245 
L 308.839248 107.627922 
L 309.086734 110.689868 
L 309.455479 105.281825 
L 309.930311 105.765742 
L 310.001814 107.428864 
L 310.28921 95.652751 
L 310.527271 119.821911 
L 310.708003 97.14912 
L 311.063774 104.037016 
L 311.611583 89.669836 
L 311.781527 115.766177 
L 312.017687 111.758431 
L 312.375319 91.040944 
L 312.501747 104.169895 
L 313.090224 112.132023 
L 313.212638 272.283923 
L 313.805492 259.437709 
L 314.235778 159.162469 
L 314.58015 154.80408 
L 314.701814 134.232808 
L 314.938888 139.402429 
L 315.237717 116.101198 
L 315.594079 111.172822 
L 315.682591 111.460688 
L 316.016983 113.926699 
L 316.33419 121.704576 
L 316.452034 91.826168 
L 316.695304 117.441858 
L 316.995565 97.608525 
L 317.110027 115.785176 
L 317.410895 110.737967 
L 317.763281 122.568445 
L 318.180102 119.094255 
L 318.359189 123.358698 
L 318.718927 106.94361 
L 318.959086 107.601554 
L 319.49789 127.21538 
L 319.614865 118.728694 
L 319.910478 132.05508 
L 320.14826 119.701781 
L 320.624731 112.740455 
L 320.864807 117.557458 
L 321.102007 102.984181 
L 321.340325 113.493459 
L 321.584298 115.677755 
L 321.878065 100.405924 
L 322.357206 116.693933 
L 322.592008 118.890965 
L 322.840479 116.777011 
L 323.070052 118.006882 
L 323.310491 117.944353 
L 323.548541 128.410087 
L 323.963903 127.369856 
L 324.083748 125.507217 
L 324.50419 123.093757 
L 324.569671 109.042677 
L 324.802157 117.7983 
L 325.098086 118.077051 
L 325.454334 116.358111 
L 325.633327 112.92984 
L 325.812051 118.422257 
L 326.051482 106.233726 
L 326.294583 108.862998 
L 326.530758 115.97239 
L 326.852363 111.148584 
L 327.242305 119.755389 
L 327.301953 115.259027 
L 327.540635 118.278278 
L 327.778986 117.381662 
L 328.256505 121.437903 
L 328.495475 106.468681 
L 328.794246 124.69502 
L 329.171816 117.006795 
L 329.275333 122.790771 
L 329.508337 128.131916 
L 329.745474 109.979374 
L 330.162941 117.688943 
L 330.282264 117.494591 
L 330.580948 117.354647 
L 330.761294 123.857951 
L 331.057073 118.7355 
L 331.312423 125.792967 
L 331.798258 113.924337 
L 332.018819 120.200889 
L 332.487919 118.67187 
L 332.725398 123.337715 
L 333.024265 117.33868 
L 333.267721 121.504409 
L 333.502737 122.919087 
L 333.741417 115.28203 
L 333.980504 118.251938 
L 334.226045 124.145239 
L 334.581092 111.56461 
L 335.022935 118.782081 
L 335.231468 118.34258 
L 335.709664 128.593959 
L 335.971918 125.324864 
L 336.184852 115.233181 
L 336.423478 114.352573 
L 336.663453 114.488535 
L 336.900926 120.759748 
L 337.317585 116.803125 
L 337.437428 113.802568 
L 337.736454 120.249972 
L 337.916816 117.559741 
L 338.161358 106.547298 
L 338.54477 123.889039 
L 338.658091 115.026417 
L 338.944233 117.652722 
L 338.991294 119.216412 
L 339.29103 106.519882 
L 339.410048 119.525906 
L 339.825811 117.959167 
L 339.945144 118.914746 
L 340.12328 117.585211 
L 340.421547 113.43132 
L 340.719728 126.400141 
L 340.898441 119.642471 
L 341.13678 116.837813 
L 341.375437 119.026442 
L 341.615004 114.330704 
L 341.917182 122.831491 
L 342.091832 123.118431 
L 342.390217 114.113328 
L 342.592547 116.621274 
L 342.865715 117.328523 
L 343.224194 126.862551 
L 343.364331 117.560516 
L 343.582206 117.558743 
L 343.819625 116.354921 
L 344.2367 118.410348 
L 344.355474 114.115665 
L 344.835051 121.153418 
L 345.073439 118.605656 
L 345.381281 120.11456 
L 345.609531 122.923377 
L 345.793405 111.326191 
L 346.084919 119.585717 
L 346.386542 119.510253 
L 346.623265 109.839676 
L 346.800697 122.624087 
L 347.046882 116.768288 
L 347.336523 114.469449 
L 347.633595 116.443395 
L 347.812551 119.260006 
L 348.051726 117.782028 
L 348.470912 116.317395 
L 348.531021 118.135447 
L 348.830156 117.8765 
L 349.025631 117.352831 
L 349.25029 122.961302 
L 349.603408 117.232279 
L 349.8421 117.484637 
L 350.139628 119.747217 
L 350.557034 103.378944 
L 350.855204 120.660078 
L 351.033535 119.546677 
L 351.272515 117.208255 
L 351.510253 105.965649 
L 351.86755 128.772292 
L 352.048182 115.964623 
L 352.34541 121.03497 
L 352.643325 116.233917 
L 352.763199 118.911488 
L 353.001631 127.607887 
L 353.358236 115.426607 
L 353.777296 116.749498 
L 354.192068 108.084196 
L 354.49016 123.344306 
L 354.729169 117.428401 
L 354.967142 118.632994 
L 355.26572 116.855081 
L 355.563366 117.560028 
L 355.691361 126.720266 
L 355.993376 117.604968 
L 356.230389 117.45704 
L 356.695564 127.481829 
L 357.11492 126.467436 
L 357.232346 114.790368 
L 357.414082 118.232703 
L 357.768024 116.774158 
L 358.067321 118.6685 
L 358.200121 121.539489 
L 358.619507 117.559469 
L 358.726755 122.533526 
L 358.964857 123.047261 
L 359.203431 116.186193 
L 359.448191 116.245603 
L 359.739861 117.725745 
L 359.918637 116.643173 
L 360.223373 120.284883 
L 360.464925 125.51094 
L 360.754514 107.989609 
L 360.876193 124.06622 
L 361.129106 118.613706 
L 361.415503 123.232252 
L 361.661674 117.162307 
L 361.887082 117.63985 
L 362.185637 119.554875 
L 362.424082 113.425392 
L 362.662654 116.917447 
L 362.950189 123.591706 
L 363.20353 106.306972 
L 363.423447 118.284012 
L 363.622003 116.150441 
L 363.916371 126.936004 
L 364.393153 117.914958 
L 364.630544 116.464535 
L 364.92917 119.167075 
L 365.107627 117.375579 
L 365.345698 119.109948 
L 365.643635 104.936562 
L 365.941582 116.821833 
L 366.120566 115.774841 
L 366.430486 126.659053 
L 366.661699 117.560111 
L 366.95586 117.559786 
L 367.137644 117.946299 
L 367.313284 119.194442 
L 367.613202 117.559253 
L 367.848153 122.511011 
L 368.164973 123.046955 
L 368.328014 115.349298 
L 368.629685 125.693014 
L 368.92628 117.510844 
L 369.113805 118.937718 
L 369.34484 118.175751 
L 369.529356 114.844934 
L 369.821758 115.286453 
L 370.240307 104.017671 
L 370.360723 121.009125 
L 370.778089 116.355709 
L 371.015218 118.372178 
L 371.312315 126.293551 
L 371.555098 119.126004 
L 371.789135 118.828007 
L 372.027824 116.890263 
L 372.325578 118.588169 
L 372.861574 124.726196 
L 373.397043 116.201558 
L 373.93445 127.257604 
L 373.993192 98.040496 
L 374.356468 115.983451 
L 374.64956 119.638889 
L 374.71244 118.687185 
L 375.080509 118.464947 
L 375.245909 116.589589 
L 375.486534 122.541259 
L 375.841426 116.750001 
L 376.021182 117.453974 
L 376.325316 122.090796 
L 376.501063 104.556592 
L 376.735908 116.054239 
L 377.275259 116.580319 
L 377.454122 128.613069 
L 377.691085 127.240997 
L 377.97089 115.707308 
L 378.467507 117.559699 
L 378.705786 117.410609 
L 379.003346 127.161023 
L 379.182787 117.31322 
L 379.541591 119.469919 
L 379.77876 111.701375 
L 379.957593 114.894397 
L 380.315476 116.124494 
L 380.43452 121.055876 
L 380.67377 120.482555 
L 380.971538 121.434244 
L 381.209422 117.061896 
L 381.566802 116.822476 
L 381.744983 118.353883 
L 382.170296 117.396798 
L 382.401177 113.463891 
L 382.640935 122.588139 
L 382.938268 115.438407 
L 383.116642 119.156086 
L 383.414778 116.869385 
L 383.653191 117.506427 
L 383.891272 125.009053 
L 384.130172 116.637303 
L 384.36784 115.140465 
L 385.141968 127.001626 
L 385.442062 117.954271 
L 385.737779 116.738436 
L 385.982328 110.263059 
L 386.154941 125.425515 
L 386.572481 117.304832 
L 386.633083 118.123504 
L 386.871953 118.797346 
L 387.288124 117.40466 
L 387.408358 128.84257 
L 387.704159 109.921096 
L 387.883735 118.358038 
L 388.12156 118.024888 
L 388.360572 126.403414 
L 388.83674 117.291714 
L 389.078696 115.968822 
L 389.373409 118.163085 
L 389.673069 117.463117 
L 389.731908 116.883805 
L 389.85151 117.56069 
L 390.209139 117.557832 
L 390.327434 122.192747 
L 390.566718 116.039086 
L 390.866233 104.033 
L 391.578394 117.150396 
L 391.956832 117.242101 
L 392.061414 118.36688 
L 392.294363 112.43466 
L 392.534085 125.214374 
L 392.832412 119.938878 
L 393.014287 116.553897 
L 393.427847 126.460259 
L 393.65145 110.615881 
L 393.785792 116.164074 
L 394.023607 116.185877 
L 394.261973 116.967549 
L 394.507191 116.697495 
L 394.798172 115.915016 
L 395.156539 119.832224 
L 395.275553 125.245042 
L 395.574048 120.596184 
L 395.817442 119.330111 
L 396.050757 122.315063 
L 396.289007 118.976552 
L 396.468688 118.466835 
L 396.709418 116.488939 
L 397.006497 115.685311 
L 397.24286 116.631393 
L 397.480824 124.128063 
L 397.839129 117.356414 
L 398.01748 120.243114 
L 398.255879 118.393436 
L 398.493969 126.319022 
L 398.732782 117.410934 
L 399.032184 116.82699 
L 399.38968 119.743657 
L 399.629341 120.068229 
L 399.867123 107.363319 
L 399.986143 124.064944 
L 400.464749 115.260623 
L 400.710246 121.828221 
L 401.000306 124.011419 
L 401.240795 116.149345 
L 401.476641 115.135481 
L 401.775515 118.660293 
L 401.955105 116.456035 
L 402.253688 105.001812 
L 402.431344 122.966649 
L 402.669635 116.775408 
L 402.908526 117.684328 
L 403.206332 120.212274 
L 403.397622 108.46376 
L 403.633589 117.076772 
L 403.922551 119.096056 
L 404.402506 115.539261 
L 404.641312 120.828338 
L 404.947887 106.643679 
L 405.175669 118.239919 
L 405.385104 115.86278 
L 405.65268 114.528927 
L 405.894417 105.184936 
L 406.132636 116.436479 
L 406.426561 116.098993 
L 406.667313 119.935553 
L 406.963223 118.29282 
L 407.144113 102.788926 
L 407.380891 104.888514 
L 407.619993 119.129879 
L 407.860801 117.985416 
L 408.217822 121.744971 
L 408.398363 103.229369 
L 408.636507 117.384696 
L 408.917998 117.74064 
L 409.234688 115.624301 
L 409.470635 123.998456 
L 409.589722 106.846327 
L 409.829013 105.545447 
L 410.126347 119.059057 
L 410.42592 118.438282 
L 410.606015 114.651047 
L 410.844374 121.078873 
L 411.143152 117.755624 
L 411.320402 118.851416 
L 411.619643 118.524223 
L 411.857209 114.218272 
L 412.096215 127.453197 
L 412.512689 117.559434 
L 412.58546 119.127219 
L 412.87158 117.172072 
L 413.062343 113.200142 
L 413.456757 124.42711 
L 413.584819 114.144069 
L 413.81476 117.451481 
L 414.11483 118.96407 
L 414.472681 118.557338 
L 414.533583 126.500732 
L 414.830286 115.404085 
L 415.068038 115.684123 
L 415.309724 116.969871 
L 415.559664 117.557875 
L 415.96323 115.438459 
L 416.023198 116.206931 
L 416.321581 115.140216 
L 416.563927 117.836327 
L 416.805148 112.359846 
L 417.002271 121.152664 
L 417.276707 112.373251 
L 417.756951 118.245126 
L 418.054464 119.377895 
L 418.471725 117.310955 
L 418.530943 118.365242 
L 418.770431 114.152797 
L 419.126668 116.810697 
L 419.305279 123.929517 
L 419.487583 123.660721 
L 419.724077 125.260911 
L 419.962564 118.138998 
L 420.281437 117.502876 
L 420.501517 118.471459 
L 420.738015 110.362706 
L 420.975057 118.037135 
L 421.214128 116.973791 
L 421.512226 118.071198 
L 421.693249 116.022292 
L 422.225812 113.921738 
L 422.234324 199.249016 
L 422.468961 116.324283 
L 422.825214 125.8417 
L 423.004989 122.527236 
L 423.252127 122.203035 
L 423.484338 116.454831 
L 423.840978 116.249525 
L 423.960579 123.163168 
L 424.145321 116.551381 
L 424.43705 114.736719 
L 424.675708 117.561326 
L 424.915208 116.924098 
L 425.155055 114.910937 
L 425.574673 104.002186 
L 425.629286 126.626181 
L 425.988437 117.999261 
L 426.172027 118.742055 
L 426.40654 117.477183 
L 426.64547 117.251851 
L 427.065099 117.757747 
L 427.190077 122.071376 
L 427.445399 116.586224 
L 427.659166 125.792589 
L 427.90644 124.675985 
L 427.958088 114.518457 
L 428.19698 110.296169 
L 428.436409 117.588129 
L 428.619145 114.686572 
L 428.8559 118.05348 
L 429.151322 117.677268 
L 429.628082 102.836558 
L 430.10485 128.407567 
L 430.344322 129.320285 
L 430.903823 117.28738 
L 431.121983 116.816162 
L 431.357652 36.490561 
L 431.597523 72.78318 
L 431.843497 88.686736 
L 432.328044 93.094354 
L 432.561897 91.50083 
L 432.821237 106.153136 
L 433.594031 116.875673 
L 433.87843 114.235808 
L 434.121676 120.130827 
L 434.414608 118.039442 
L 434.534949 122.687115 
L 434.776173 120.119619 
L 435.198864 126.786401 
L 435.318081 117.449594 
L 435.54992 117.857538 
L 435.793016 119.549646 
L 436.163582 112.858953 
L 436.324342 116.098814 
L 436.627299 114.488584 
L 436.862153 116.555732 
L 437.100266 120.933878 
L 437.400723 110.173475 
L 437.640155 125.741156 
L 438.242412 106.277512 
L 438.507695 114.627384 
L 438.778576 112.240861 
L 439.093849 117.798015 
L 439.259491 129.40434 
L 439.609454 118.12212 
L 439.813723 122.317805 
L 440.027646 114.424849 
L 440.326857 118.249079 
L 440.505242 115.137869 
L 440.743769 113.379568 
L 440.985603 115.754195 
L 441.360449 122.603519 
L 441.460589 119.914841 
L 441.817555 117.357364 
L 441.996582 113.758849 
L 442.476381 124.415118 
L 442.882088 112.33622 
L 443.119643 114.548788 
L 443.306995 111.529412 
L 443.537398 131.766876 
L 443.835364 111.867453 
L 444.01571 112.90473 
L 444.193965 115.133795 
L 444.670741 124.897579 
L 444.792607 116.930274 
L 445.029606 108.716554 
L 445.21114 112.336256 
L 445.566243 121.703903 
L 445.69185 105.171344 
L 446.223006 119.932147 
L 446.46149 115.418123 
L 446.703529 121.560708 
L 446.93948 121.145978 
L 447.182432 115.159157 
L 447.4174 118.370421 
L 447.656135 124.843764 
L 447.904892 114.446953 
L 448.138367 120.527583 
L 448.437338 114.463099 
L 448.625267 117.270324 
L 448.91479 115.525311 
L 449.152725 114.998325 
L 449.392189 124.125466 
L 449.808343 114.949525 
L 449.89612 117.115687 
L 450.16705 112.457331 
L 450.46407 111.40587 
L 450.761942 118.306466 
L 450.94209 113.481728 
L 451.180519 124.122565 
L 451.425902 116.753625 
L 451.658653 117.069149 
L 451.839194 113.68672 
L 452.077357 112.038713 
L 452.326715 122.585643 
L 452.613173 113.92162 
L 452.864845 115.079137 
L 453.098099 124.220642 
L 453.469682 116.921897 
L 453.632802 124.613664 
L 453.809319 112.172354 
L 454.134366 110.013952 
L 454.345201 123.934298 
L 454.765606 117.609743 
L 454.847127 118.487365 
L 455.071869 112.250369 
L 455.300727 121.525517 
L 455.539853 117.978637 
L 455.961335 114.105887 
L 456.150748 109.099177 
L 456.566905 126.171239 
L 456.984034 119.205076 
L 457.044693 121.105284 
L 457.462645 118.714437 
L 457.700957 114.320549 
L 458.176246 125.396973 
L 458.295734 109.163226 
L 458.535771 119.195472 
L 458.772737 116.332117 
L 459.18988 119.647919 
L 459.309275 116.333553 
L 459.548312 118.055017 
L 459.792529 118.849595 
L 459.846799 114.761777 
L 460.264394 130.694944 
L 460.505547 114.602389 
L 460.801349 111.214986 
L 460.981197 116.930186 
L 461.300883 116.532658 
L 461.461133 111.405797 
L 461.759676 127.511424 
L 461.997667 115.324941 
L 462.240011 119.98092 
L 462.535859 112.26823 
L 462.954361 118.826453 
L 463.252644 116.42453 
L 463.439137 119.529307 
L 463.848593 121.620723 
L 463.995751 116.737074 
L 464.210024 113.74901 
L 464.468285 117.231852 
L 464.68398 116.390905 
L 464.923343 111.432445 
L 465.469677 123.167131 
L 465.710789 115.466984 
L 466.009353 111.047062 
L 466.243917 116.788403 
L 466.483619 116.230311 
L 466.663185 112.187129 
L 466.961408 119.709015 
L 467.199234 115.808443 
L 467.597038 117.902716 
L 467.744427 114.578986 
L 467.921045 128.600195 
L 468.454257 112.130057 
L 468.761166 119.878625 
L 468.931187 110.999346 
L 469.179483 116.532599 
L 469.542461 113.410556 
L 469.64942 109.68515 
L 469.893371 108.855979 
L 470.128335 120.17474 
L 470.435389 121.327872 
L 470.683137 117.683719 
L 470.906718 116.563148 
L 471.389817 122.04298 
L 471.682015 114.242263 
L 471.865224 116.408692 
L 472.16172 113.187569 
L 472.456786 115.9261 
L 472.636186 112.612731 
L 473.054076 120.562707 
L 473.400235 117.995106 
L 473.634969 116.939364 
L 473.868197 114.73104 
L 474.170263 109.993988 
L 474.354868 122.222672 
L 474.645427 122.017868 
L 474.949827 117.607692 
L 475.125654 126.897565 
L 475.315542 118.705044 
L 475.601585 114.788478 
L 475.840459 122.692503 
L 476.079329 125.767827 
L 476.317061 124.503752 
L 476.555932 114.430707 
L 476.795462 126.1616 
L 477.212458 122.90904 
L 477.361592 108.850382 
L 477.749946 120.965168 
L 477.868828 115.85705 
L 478.107403 122.108741 
L 478.345862 116.483857 
L 478.643526 121.707257 
L 478.775738 116.587791 
L 479.035221 115.315451 
L 479.305237 124.605683 
L 479.600228 120.758626 
L 480.01865 123.030124 
L 480.259337 105.979111 
L 480.639147 114.024348 
L 480.797255 110.413432 
L 481.032858 125.630442 
L 481.30086 119.066413 
L 481.594462 116.929466 
L 481.817167 113.754837 
L 482.112202 121.596898 
L 482.54011 110.543544 
L 482.796157 120.880828 
L 483.087039 115.233881 
L 483.208624 125.983319 
L 483.799178 109.033548 
L 484.097273 117.611656 
L 484.216787 113.02241 
L 484.514676 118.05161 
L 484.761105 129.713558 
L 485.230884 112.462934 
L 485.470722 111.074342 
L 485.76882 113.645925 
L 486.007356 120.29155 
L 486.247979 118.927591 
L 486.483328 116.776613 
L 486.721699 121.909189 
L 486.961225 115.654318 
L 487.206514 115.523762 
L 487.440359 116.944286 
L 487.677248 115.411078 
L 488.037454 121.317685 
L 488.214516 126.412036 
L 488.455338 116.337471 
L 488.751713 123.66795 
L 489.288177 110.9429 
L 489.540319 114.293001 
L 489.706772 113.883369 
L 490.005091 114.598703 
L 490.242896 115.539465 
L 490.481391 115.34107 
L 490.683853 113.18255 
L 490.899752 118.098761 
L 491.201618 120.053672 
L 491.494573 110.575699 
L 491.913287 121.584791 
L 492.154206 110.486629 
L 492.390345 117.712229 
L 492.705805 112.901726 
L 492.884784 113.82302 
L 493.122928 111.713504 
L 493.601015 108.703862 
L 493.66099 115.956698 
L 493.95881 106.418459 
L 494.141209 113.77756 
L 494.380638 116.952846 
L 494.614303 116.959575 
L 494.912142 116.57697 
L 495.092642 121.81035 
L 495.391562 119.079676 
L 495.688062 117.58762 
L 495.866611 115.922043 
L 496.169394 121.731201 
L 496.407336 112.764647 
L 496.644163 125.133195 
L 497.122047 115.677806 
L 497.32743 119.744593 
L 497.602808 118.585786 
L 498.144884 114.48508 
L 498.384535 121.25778 
L 498.621652 121.220833 
L 498.860584 119.977119 
L 499.099563 121.324091 
L 499.337413 113.677606 
L 499.817608 124.000136 
L 500.113488 127.230753 
L 500.293182 110.754718 
L 500.609204 117.469845 
L 500.650281 112.050128 
L 500.829084 107.711901 
L 501.130331 122.772983 
L 501.604394 111.590988 
L 502.085048 121.082564 
L 502.142852 127.058393 
L 502.321119 113.223643 
L 502.758604 115.92388 
L 503.051282 116.958169 
L 503.27591 118.825833 
L 503.515493 124.535897 
L 503.872555 120.648448 
L 504.051407 112.054508 
L 504.229888 113.284286 
L 504.650095 112.62057 
L 504.707569 123.829369 
L 505.069486 121.651541 
L 505.311707 122.522777 
L 505.547959 119.156702 
L 505.78225 117.422119 
L 506.020268 117.86003 
L 506.266043 115.054473 
L 506.569872 121.669495 
L 506.746757 114.529985 
L 506.993307 116.408091 
L 507.231373 109.694139 
L 507.475334 118.182381 
L 507.708032 119.297995 
L 508.005894 122.118643 
L 508.190358 116.669436 
L 508.485193 126.288174 
L 508.787092 100.543455 
L 509.01986 123.914258 
L 509.275368 130.584623 
L 509.498512 111.898901 
L 509.921977 114.185889 
L 509.97473 117.242798 
L 510.21317 116.675792 
L 510.631246 114.293799 
L 510.932276 119.040611 
L 511.427141 118.916814 
L 511.731757 116.24284 
L 511.94593 120.696693 
L 512.202575 114.144215 
L 512.662927 125.914799 
L 512.902669 104.100464 
L 513.214663 124.431615 
L 513.619081 107.715039 
L 513.68035 116.83173 
L 513.915563 109.807633 
L 514.39837 117.794476 
L 514.571539 118.58213 
L 514.703169 108.16938 
L 514.890518 121.899748 
L 515.247869 101.741921 
L 515.468485 112.834534 
L 515.918439 120.564857 
L 516.15758 118.870864 
L 516.400242 123.787203 
L 516.762513 106.269351 
L 516.922212 116.974895 
L 517.159528 116.512714 
L 517.51651 113.421233 
L 517.702683 123.887998 
L 517.878201 112.66101 
L 518.173168 117.395462 
L 518.480489 114.098868 
L 518.653123 114.21936 
L 518.951708 109.716843 
L 519.130101 116.307524 
L 519.388449 119.501131 
L 519.86004 121.438625 
L 520.439599 167.234402 
L 520.621899 142.624864 
L 520.859464 145.811101 
L 521.115203 146.946524 
L 521.39507 151.706468 
L 521.637701 141.484688 
L 521.87368 137.523821 
L 522.117242 136.452674 
L 522.65075 116.264812 
L 522.827932 112.887747 
L 523.266623 113.144383 
L 523.497826 116.497716 
L 523.843711 113.816605 
L 524.131034 116.777229 
L 524.380779 116.746406 
L 524.857058 118.902057 
L 524.9168 118.285992 
L 525.275559 117.96248 
L 525.403427 118.970072 
L 525.814188 117.947401 
L 526.316015 117.628706 
L 526.428741 117.849367 
L 526.596989 117.627651 
L 526.890514 117.719614 
L 527.008656 117.583258 
L 527.911085 117.589611 
L 528.28225 117.354101 
L 528.686391 117.535281 
L 528.92995 117.210588 
L 529.166701 117.423224 
L 529.284939 111.723302 
L 529.533417 117.386847 
L 529.890641 118.375093 
L 530.664454 117.741705 
L 530.905653 117.194929 
L 531.262127 118.375471 
L 531.439707 117.260751 
L 531.621121 117.298243 
L 531.88268 117.980599 
L 532.001118 117.684748 
L 532.708292 117.585348 
L 532.939696 117.32296 
L 533.23581 113.904822 
L 533.470149 120.846389 
L 533.72434 117.583245 
L 533.946454 117.545544 
L 534.245028 119.364255 
L 534.451003 118.435299 
L 534.720395 118.296234 
L 535.028561 117.177794 
L 535.260177 117.859552 
L 535.979304 117.690343 
L 536.216386 117.667421 
L 536.526316 117.358041 
L 536.733933 117.620383 
L 536.938388 117.681883 
L 537.241818 117.445833 
L 537.57183 117.612762 
L 537.709664 117.879164 
L 537.923297 117.72714 
L 540.393637 117.598338 
L 540.636535 118.122658 
L 540.924843 117.585617 
L 567.348511 117.583258 
L 596.502813 117.583258 
L 596.502813 117.583258 
" clip-path="url(#p1882bd2881)" style="fill: none; stroke: #0000ff; stroke-opacity: 0.7; stroke-width: 1.5; stroke-linecap: square"/>
   </g>
   <g id="line2d_28">
    <path d="M 38.502813 102.032582 
L 38.622916 102.68996 
L 38.865804 100.916521 
L 38.937 102.971454 
L 39.111017 103.155133 
L 39.417061 101.09525 
L 39.707596 101.408659 
L 39.885883 100.435418 
L 40.541846 102.209222 
L 40.601545 100.647902 
L 41.018884 100.985968 
L 41.376814 100.81429 
L 41.559198 101.086699 
L 42.033407 100.570683 
L 42.091503 101.349642 
L 42.329583 101.957383 
L 42.628872 100.887517 
L 42.928055 100.392191 
L 43.164095 102.426737 
L 43.477718 100.507386 
L 43.581899 102.085825 
L 43.819883 99.96095 
L 44.300935 102.112943 
L 44.599353 101.786491 
L 44.834047 100.306282 
L 45.07223 100.939742 
L 45.371049 102.54023 
L 45.669985 101.985685 
L 45.857012 101.346932 
L 46.174796 99.654906 
L 46.328887 102.089201 
L 46.567049 101.033733 
L 46.805772 101.469404 
L 47.224756 99.19004 
L 47.405507 100.258766 
L 47.521373 99.411515 
L 47.766181 99.2948 
L 48.003493 99.604741 
L 48.244165 98.595198 
L 48.536913 99.137974 
L 49.14069 98.650809 
L 50.441813 98.591679 
L 51.746796 99.537632 
L 53.050949 101.082712 
L 54.356612 101.034952 
L 55.661121 100.547172 
L 57.085405 99.734194 
L 58.50861 100.487307 
L 59.813793 98.909994 
L 59.954398 99.652568 
L 60.191841 98.505059 
L 60.669155 98.776964 
L 60.966191 99.716244 
L 61.265892 102.909273 
L 61.681905 99.713048 
L 61.866132 102.07642 
L 62.104406 100.991859 
L 62.404 100.851883 
L 62.638974 104.017864 
L 62.936269 102.242835 
L 63.11617 99.20376 
L 63.356366 99.669373 
L 63.652931 99.980974 
L 63.846691 99.902053 
L 64.130974 101.417254 
L 64.426649 100.787383 
L 64.72558 99.000665 
L 64.844761 100.559051 
L 65.083776 98.251862 
L 65.323835 99.035192 
L 65.636208 102.002664 
L 66.108513 99.157014 
L 66.396826 101.102013 
L 66.578194 99.868579 
L 66.876601 99.793772 
L 66.934528 101.055303 
L 67.112748 102.24037 
L 67.414376 99.851529 
L 67.588886 100.016338 
L 67.829178 101.127541 
L 68.125305 101.325633 
L 68.783671 103.802275 
L 69.019997 105.19957 
L 69.616891 99.935808 
L 70.095651 103.893017 
L 70.338534 101.553938 
L 70.523348 101.114625 
L 70.817845 102.645233 
L 71.292681 100.362342 
L 71.413207 97.195684 
L 72.070236 101.708301 
L 72.364771 102.322834 
L 72.604817 99.355743 
L 72.782636 99.15754 
L 73.259107 100.066082 
L 73.442011 100.769641 
L 73.737273 101.22906 
L 73.796233 102.537532 
L 74.034856 102.289105 
L 74.273425 101.856053 
L 74.512377 99.657556 
L 74.809776 99.409526 
L 75.10756 102.192013 
L 75.350039 102.399901 
L 75.534701 101.320169 
L 75.716732 100.955314 
L 75.763801 100.556563 
L 76.299771 100.259804 
L 76.479259 99.9517 
L 76.779836 100.351432 
L 77.014868 103.326177 
L 77.211656 102.798338 
L 77.492991 100.052478 
L 78.028409 102.923186 
L 78.208334 101.236825 
L 78.445703 101.479936 
L 78.74416 102.340723 
L 78.984279 102.683022 
L 79.221395 102.201404 
L 79.46119 99.912405 
L 79.9365 102.950395 
L 80.296129 101.353155 
L 80.48719 99.919796 
L 80.712316 101.934778 
L 80.950854 102.980523 
L 81.192765 100.324706 
L 81.665653 99.016929 
L 81.913099 102.867171 
L 82.151222 100.449882 
L 82.441028 101.884089 
L 82.620686 103.543696 
L 83.215747 98.152321 
L 83.394399 98.509662 
L 83.632494 102.399791 
L 83.872614 103.420457 
L 84.109856 100.517918 
L 84.411018 100.975264 
L 84.706152 103.17508 
L 85.361288 99.310858 
L 85.600003 100.175951 
L 86.207889 100.687593 
L 86.732011 102.163567 
L 87.090643 98.159559 
L 87.329041 99.652765 
L 87.865826 105.172489 
L 88.103508 104.783357 
L 88.40325 102.311939 
L 88.586765 99.777354 
L 89.00022 99.748872 
L 89.118231 99.536871 
L 89.536432 100.576366 
L 89.908761 102.629783 
L 90.012432 102.293707 
L 90.081212 100.731495 
L 90.668047 98.42909 
L 90.905672 98.820121 
L 91.263784 99.685101 
L 91.681363 100.61825 
L 92.038568 99.770478 
L 92.336147 100.369339 
L 92.754169 103.208293 
L 92.991265 103.645076 
L 93.289814 102.923029 
L 93.489754 100.680345 
L 93.826284 99.215359 
L 94.305329 101.780341 
L 94.842115 96.97804 
L 95.019457 97.029659 
L 95.498953 99.244861 
L 95.89183 99.585322 
L 96.064357 100.573926 
L 96.573099 102.124896 
L 96.69475 99.071172 
L 97.286052 103.025627 
L 97.48986 101.465831 
L 97.779913 97.990949 
L 98.063483 96.686296 
L 98.47895 101.802281 
L 98.717529 100.849169 
L 99.025598 99.159567 
L 99.325453 101.115023 
L 99.58166 101.269497 
L 99.795665 99.160391 
L 100.391 97.681373 
L 100.526244 101.279047 
L 101.868401 102.287941 
L 103.165642 101.329419 
L 104.594361 102.623095 
L 104.673559 106.847833 
L 104.853311 108.624047 
L 105.454112 104.267222 
L 105.687883 100.72562 
L 106.066219 97.891379 
L 106.305417 97.944985 
L 106.688645 100.99519 
L 106.855494 101.261945 
L 107.089968 100.691785 
L 107.387998 98.846199 
L 107.688168 97.913526 
L 107.864974 98.090782 
L 108.164534 101.288811 
L 108.347806 105.256149 
L 108.640473 107.756613 
L 108.902733 106.792841 
L 109.117895 102.609018 
L 109.596272 97.085683 
L 110.192261 103.537483 
L 110.375788 105.792428 
L 110.554204 105.00733 
L 111.052094 100.125132 
L 111.29097 100.415197 
L 111.577019 103.434106 
L 111.812008 104.473746 
L 112.049728 102.724565 
L 112.530576 96.578028 
L 112.792567 96.483103 
L 113.325136 98.265105 
L 113.421862 99.868805 
L 113.541144 99.98791 
L 113.788285 98.965258 
L 114.093357 98.80205 
L 114.540544 105.958504 
L 114.883064 107.734005 
L 115.313819 102.806792 
L 115.937099 100.108359 
L 116.216076 103.959743 
L 116.30385 104.518254 
L 116.475791 102.678878 
L 116.782905 101.562077 
L 117.130896 101.626793 
L 117.249404 100.906842 
L 117.487743 100.80548 
L 118.024139 101.743501 
L 118.206256 101.290996 
L 118.450471 99.603295 
L 118.756347 98.293244 
L 118.928024 98.945662 
L 119.289499 99.123599 
L 119.821194 96.310136 
L 120.298612 101.029424 
L 120.606507 101.730568 
L 120.715903 98.629618 
L 120.9231 98.356181 
L 121.194101 101.53105 
L 121.433386 102.451335 
L 121.912267 98.69844 
L 122.149815 98.936988 
L 122.624796 98.691444 
L 122.690525 97.373593 
L 122.935962 98.365642 
L 123.160922 101.933071 
L 123.589311 103.43863 
L 123.69748 100.803644 
L 123.995428 100.421163 
L 124.35569 103.248095 
L 124.650229 103.012683 
L 124.949134 104.23081 
L 125.13009 105.757994 
L 125.427231 105.692588 
L 125.665306 104.080633 
L 125.857602 101.83459 
L 126.147722 102.952881 
L 126.390896 104.432859 
L 126.86069 103.538482 
L 127.101098 104.334456 
L 127.397474 104.894113 
L 127.755155 104.518048 
L 127.874394 102.951172 
L 128.11266 101.451838 
L 128.470607 101.127694 
L 128.590202 101.50678 
L 129.127471 101.088662 
L 129.721296 100.760658 
L 129.844012 99.882527 
L 130.080965 100.107891 
L 130.318908 101.497302 
L 130.556998 102.12222 
L 130.795082 102.021178 
L 131.094146 100.741825 
L 131.390373 100.702622 
L 131.809921 101.584386 
L 132.070999 100.993215 
L 132.288655 100.156021 
L 132.530023 99.807479 
L 132.778446 98.713328 
L 133.080422 98.044267 
L 133.599891 101.720742 
L 134.048442 97.023195 
L 134.27389 97.850848 
L 134.511673 102.08131 
L 134.752536 104.246135 
L 134.988169 101.900863 
L 135.299799 100.388331 
L 135.762344 103.56975 
L 136.299914 100.284139 
L 136.897409 103.004889 
L 137.144696 101.566435 
L 137.496099 98.270233 
L 137.729921 99.547646 
L 138.031643 100.285361 
L 138.462756 98.229949 
L 138.821519 98.327147 
L 139.04073 99.45336 
L 139.34128 99.586174 
L 139.518495 100.244794 
L 139.876343 100.515898 
L 139.996454 101.173505 
L 140.23413 101.189256 
L 140.475957 101.634619 
L 140.727123 102.762641 
L 141.192054 108.685269 
L 141.683584 107.689342 
L 141.74323 103.512258 
L 141.924188 99.921356 
L 142.220316 99.346926 
L 142.460347 100.252489 
L 142.698106 101.65687 
L 142.935384 101.106732 
L 143.657606 95.339515 
L 144.128735 97.879089 
L 144.426045 103.235649 
L 144.665021 102.285779 
L 145.147247 97.588315 
L 145.379375 97.488395 
L 146.042843 102.485023 
L 146.696415 97.15849 
L 147.407001 103.678901 
L 148.299554 99.496135 
L 148.41882 100.130896 
L 148.598417 101.712664 
L 149.076012 101.498785 
L 149.373331 100.851856 
L 149.613249 101.779744 
L 150.029772 103.991277 
L 150.089694 106.729745 
L 150.446581 106.611111 
L 150.565971 103.578916 
L 150.92311 100.076034 
L 151.353883 101.745299 
L 151.703 103.555248 
L 152.113476 99.453292 
L 152.351803 98.743966 
L 152.832111 100.696602 
L 152.888581 102.094787 
L 153.188565 103.826019 
L 153.309231 103.269816 
L 153.54568 100.106544 
L 153.920396 97.803321 
L 154.319251 102.504438 
L 154.617256 102.010709 
L 155.03402 97.612191 
L 155.333455 96.559826 
L 155.572779 97.657217 
L 155.93189 101.014647 
L 156.054561 104.394986 
L 156.288871 104.964772 
L 156.59785 101.85327 
L 156.824695 98.234511 
L 157.062934 97.078089 
L 157.244922 98.129146 
L 157.720275 102.575832 
L 158.075811 103.300682 
L 158.732951 98.257356 
L 159.028959 101.108639 
L 159.50687 106.917001 
L 159.80937 107.025363 
L 160.222772 100.230995 
L 160.639178 97.309739 
L 160.761288 98.250249 
L 161.002186 101.835226 
L 161.236001 102.374903 
L 161.716034 96.961359 
L 161.964836 96.560389 
L 162.194991 97.593795 
L 162.728429 103.589446 
L 162.970124 104.26821 
L 163.449507 97.755366 
L 163.682554 97.493471 
L 164.170702 103.428572 
L 164.397251 102.388183 
L 164.99298 101.36396 
L 165.232577 102.065196 
L 165.64954 106.633465 
L 165.889046 106.770679 
L 166.482576 102.731219 
L 166.661225 103.184748 
L 166.89949 105.266347 
L 167.197831 104.295088 
L 167.436563 101.068399 
L 167.735563 99.626545 
L 168.152508 99.609757 
L 168.391427 99.971794 
L 168.867709 99.059276 
L 169.165479 99.325492 
L 169.529336 100.001951 
L 169.881582 101.023572 
L 170.359222 99.319158 
L 171.25828 101.86892 
L 171.432118 101.081881 
L 171.900581 100.294899 
L 172.146868 100.42803 
L 172.386262 100.252592 
L 172.569875 101.82872 
L 172.835447 102.63772 
L 173.339268 99.309027 
L 173.707388 99.606051 
L 173.81777 102.540578 
L 174.158309 101.998244 
L 174.177757 100.412178 
L 174.314587 98.593563 
L 174.535783 99.258242 
L 174.91395 101.924695 
L 175.073934 101.986615 
L 175.54851 97.06282 
L 175.787124 98.028947 
L 176.085682 100.792036 
L 176.323655 99.984899 
L 176.579702 98.713233 
L 177.049623 102.614479 
L 177.336715 101.178084 
L 177.755713 97.19123 
L 178.11115 98.591375 
L 178.352257 100.549185 
L 178.528778 100.965176 
L 179.02236 101.147685 
L 179.243954 98.086368 
L 179.542117 95.910326 
L 179.959799 95.940659 
L 180.199819 99.22768 
L 180.334683 102.882429 
L 180.554724 103.187032 
L 181.004126 97.952058 
L 181.237254 99.025048 
L 181.475653 101.315378 
L 181.716775 101.744872 
L 181.952198 101.556524 
L 182.311857 102.478715 
L 182.668141 102.831585 
L 182.972183 100.5595 
L 183.210217 100.51863 
L 183.706024 100.023628 
L 184.008236 101.040907 
L 184.243069 102.542634 
L 184.480842 102.150877 
L 184.866663 101.042971 
L 184.96201 100.074129 
L 185.214305 101.442961 
L 185.456212 104.166694 
L 185.79372 106.338424 
L 186.450096 99.721643 
L 186.926212 103.693515 
L 188.237062 100.445209 
L 188.475599 99.969233 
L 188.892101 99.743883 
L 189.608368 100.557727 
L 189.845677 101.470419 
L 190.38336 96.606223 
L 190.679785 98.270055 
L 190.869436 101.389865 
L 191.157601 102.667086 
L 191.946866 93.452702 
L 192.117173 94.39545 
L 192.595026 100.883739 
L 192.83502 101.130335 
L 193.072666 99.176553 
L 193.31546 99.075435 
L 194.087116 105.168435 
L 194.919455 102.30769 
L 195.159734 100.180386 
L 195.454674 99.755566 
L 195.574242 101.812343 
L 195.812728 101.801905 
L 196.050762 98.536926 
L 196.348274 97.5912 
L 196.532194 101.101192 
L 196.824916 102.343842 
L 197.302744 99.881971 
L 197.540668 101.390173 
L 197.783126 101.100673 
L 198.021222 98.012285 
L 198.278285 96.912847 
L 198.614978 100.091292 
L 198.857745 99.323936 
L 199.035959 96.261567 
L 199.627167 100.231382 
L 200.037406 95.475324 
L 200.288499 95.000694 
L 200.523074 98.536879 
L 200.76342 99.797102 
L 201.023906 96.866952 
L 201.252764 97.47347 
L 201.602062 100.488255 
L 201.781853 100.656117 
L 202.258451 97.727661 
L 202.615346 97.523769 
L 202.734673 98.045165 
L 202.977069 98.485283 
L 203.271444 98.631172 
L 203.568616 98.621776 
L 203.986273 98.328109 
L 204.347506 98.469438 
L 204.462725 98.990446 
L 205.059555 100.378115 
L 205.723048 93.609882 
L 206.192034 96.167736 
L 206.452348 96.24598 
L 206.78839 93.388023 
L 207.086054 94.965145 
L 207.443269 101.687004 
L 207.682274 102.786469 
L 207.922916 102.694767 
L 208.578156 103.770136 
L 208.70586 102.767813 
L 208.935203 102.802221 
L 209.172823 103.562226 
L 209.600943 103.514445 
L 209.830821 102.336486 
L 209.950317 99.661101 
L 210.189594 99.08661 
L 210.663532 102.293111 
L 210.903374 102.428206 
L 211.140394 103.441066 
L 211.378598 103.504196 
L 211.874719 100.641535 
L 212.333313 101.382674 
L 212.393738 104.606468 
L 212.631154 108.481922 
L 212.870117 109.710942 
L 213.168289 107.852144 
L 213.644553 99.943459 
L 213.824739 99.930737 
L 214.121064 101.208239 
L 214.359272 102.763452 
L 214.60033 103.600555 
L 214.837813 103.04095 
L 215.37507 98.619745 
L 215.554742 97.97807 
L 215.851328 100.363941 
L 216.089667 104.697428 
L 216.389104 106.789133 
L 216.58001 105.806088 
L 217.102957 97.831308 
L 217.400525 95.535696 
L 217.639634 95.942531 
L 217.877773 97.610137 
L 218.294893 101.86024 
L 218.593264 102.46403 
L 218.776973 103.410639 
L 219.266031 104.479942 
L 219.30768 105.604982 
L 219.665863 106.589213 
L 220.04435 104.147328 
L 220.62314 101.394819 
L 220.8622 100.819295 
L 221.162767 99.304072 
L 221.515496 93.468391 
L 221.99322 92.131388 
L 222.055181 91.152326 
L 222.292144 91.429502 
L 222.530269 92.786558 
L 223.006647 97.062645 
L 223.248476 96.697899 
L 223.554257 95.372716 
L 224.048213 95.919545 
L 226.226817 47.335797 
L 226.525541 43.396928 
L 227.004147 57.081527 
L 227.479239 82.199328 
L 227.717393 86.721124 
L 228.194151 99.587092 
L 228.972776 116.164091 
L 229.211707 115.860053 
L 229.507621 114.511203 
L 229.86666 108.914354 
L 230.408796 92.053659 
L 230.705939 89.560168 
L 230.945101 86.341398 
L 231.242363 86.657126 
L 231.630147 85.030771 
L 231.663719 87.128073 
L 232.136825 89.366439 
L 232.316057 92.834482 
L 232.434509 97.947015 
L 232.915984 102.49592 
L 233.208451 103.213603 
L 233.626662 98.972337 
L 234.459871 95.788584 
L 234.638675 93.928535 
L 235.11598 87.629124 
L 235.432665 84.469377 
L 235.72695 85.919251 
L 235.906757 87.715105 
L 236.084479 92.86435 
L 236.919839 101.626893 
L 237.395703 102.877003 
L 237.695023 100.551679 
L 237.874902 100.517648 
L 238.35076 97.639191 
L 238.828455 88.32334 
L 239.305311 82.546103 
L 239.840779 85.573444 
L 240.023237 90.084108 
L 240.614551 91.418012 
L 240.793797 92.449811 
L 241.151839 92.917506 
L 241.389884 92.558364 
L 242.641746 78.405121 
L 242.939843 78.707862 
L 243.118815 79.62031 
L 243.41606 80.055625 
L 243.836562 84.737808 
L 244.253567 90.919731 
L 244.531837 94.773812 
L 244.998784 96.749191 
L 245.503869 94.297135 
L 245.741822 90.304126 
L 246.202726 87.659375 
L 246.460816 84.314875 
L 246.994239 85.761482 
L 247.232263 87.753853 
L 247.469526 86.62214 
L 247.708076 86.335073 
L 248.125328 86.182064 
L 248.363697 86.612798 
L 248.543255 90.323352 
L 248.848689 93.189055 
L 249.020847 96.000462 
L 249.218981 94.133814 
L 249.796994 85.256789 
L 249.91722 80.375454 
L 250.176782 77.601289 
L 250.454559 77.802183 
L 250.69308 80.445682 
L 250.990238 81.67144 
L 251.171156 81.663601 
L 251.705896 83.666118 
L 252.004037 84.523786 
L 252.243865 85.932665 
L 252.425758 87.986412 
L 252.66071 87.671813 
L 253.137428 83.109182 
L 253.437262 82.56693 
L 253.732822 81.394237 
L 254.151034 78.322761 
L 254.390353 77.590983 
L 254.629948 75.878139 
L 254.866171 75.612684 
L 255.283195 77.824258 
L 255.702331 79.181903 
L 256.357 72.519411 
L 256.596713 71.279886 
L 257.013573 73.119816 
L 257.430682 78.672351 
L 257.848051 84.02388 
L 258.20509 83.99754 
L 258.445132 83.018821 
L 258.577231 82.960558 
L 258.859825 82.025872 
L 259.487917 82.114924 
L 259.730147 82.146723 
L 260.173233 77.379997 
L 260.294447 76.441511 
L 260.591149 77.198374 
L 260.949329 80.193918 
L 261.490067 87.911664 
L 261.602805 87.547218 
L 262.086563 82.987187 
L 262.328785 84.056547 
L 263.151773 91.342476 
L 263.7477 83.926477 
L 263.866901 80.67557 
L 264.105397 81.888656 
L 264.285849 84.120238 
L 265.058864 89.829814 
L 265.714773 82.564703 
L 265.955612 82.602387 
L 266.191948 84.775126 
L 266.252174 88.323634 
L 266.48981 91.629926 
L 266.788459 94.208546 
L 267.09442 93.360674 
L 267.759853 83.58314 
L 268.099501 83.957292 
L 268.756773 87.206956 
L 269.233644 84.498229 
L 269.530633 84.227733 
L 269.887378 83.694268 
L 270.125731 85.243857 
L 270.245132 87.521706 
L 270.960397 90.957261 
L 271.561653 91.384096 
L 272.273994 93.667098 
L 272.689423 88.849639 
L 273.17533 85.738753 
L 273.464189 86.579984 
L 273.643316 88.498199 
L 273.969451 89.765796 
L 274.219372 89.922002 
L 274.658263 90.01413 
L 275.313574 98.112736 
L 275.437851 100.344741 
L 275.791628 100.530253 
L 275.91339 97.840868 
L 276.393789 94.359825 
L 276.812326 94.040401 
L 277.779075 90.734636 
L 278.12053 86.763332 
L 278.475781 86.007926 
L 278.624491 83.657761 
L 278.955747 82.88664 
L 279.193852 81.521033 
L 279.431173 81.423451 
L 279.612332 80.481213 
L 279.907556 82.501692 
L 280.623809 96.15606 
L 281.1601 100.321176 
L 281.457142 98.698542 
L 281.594071 97.153418 
L 281.873928 96.699316 
L 282.533731 92.618699 
L 283.306338 86.13713 
L 283.66432 86.960334 
L 283.961917 87.115764 
L 284.088847 87.008741 
L 284.319934 87.207935 
L 284.563335 86.36537 
L 285.034625 85.333774 
L 285.276257 88.15294 
L 286.292195 94.941236 
L 286.526687 94.400544 
L 286.769413 92.608841 
L 287.007247 92.824506 
L 287.262421 95.009967 
L 287.484106 95.410816 
L 287.84259 96.495963 
L 288.259375 86.187577 
L 288.497522 83.188263 
L 288.736219 85.491136 
L 289.455069 99.275237 
L 289.811148 98.370776 
L 290.227704 96.099769 
L 290.465879 91.645606 
L 290.883363 95.162943 
L 290.948755 96.881221 
L 291.225488 97.579946 
L 291.495528 96.634869 
L 291.679836 95.23172 
L 292.13465 93.030808 
L 292.194976 92.099377 
L 292.730948 93.881273 
L 293.504983 102.870345 
L 293.689059 101.842117 
L 293.924229 99.245982 
L 294.221147 98.181499 
L 294.466574 98.795111 
L 294.698997 97.803172 
L 294.878318 100.330844 
L 295.173661 100.921896 
L 295.948103 92.979719 
L 296.19442 93.572201 
L 296.426372 91.874805 
L 296.607631 92.770662 
L 296.961851 92.568959 
L 297.438974 89.669982 
L 297.620443 91.034328 
L 298.335465 103.768327 
L 298.632709 102.550134 
L 299.108436 98.627182 
L 299.60655 100.99788 
L 299.827215 105.394745 
L 300.182774 105.735126 
L 300.600166 95.39874 
L 300.854175 88.973684 
L 301.079765 88.151267 
L 301.494049 94.304943 
L 301.613328 100.594598 
L 302.09056 108.68468 
L 302.447614 109.060099 
L 302.80676 103.36543 
L 303.043886 104.986535 
L 303.341324 108.413569 
L 303.54503 108.904348 
L 303.826118 107.958976 
L 304.41641 97.145324 
L 304.595673 92.048244 
L 304.95287 91.750543 
L 305.548602 102.47167 
L 305.846457 102.262661 
L 306.02906 99.512377 
L 306.385283 96.029679 
L 306.562027 96.294652 
L 306.996024 104.156561 
L 307.281744 107.811614 
L 307.656728 108.693189 
L 307.900046 110.181156 
L 308.067971 110.437225 
L 308.299126 111.881632 
L 308.537897 117.480686 
L 309.086734 122.283226 
L 309.313549 119.863381 
L 309.455479 115.726277 
L 309.930311 107.568547 
L 310.001814 100.744376 
L 310.28921 99.664625 
L 310.527271 100.323021 
L 310.708003 101.595494 
L 311.242711 103.496282 
L 311.611583 102.143393 
L 311.781527 102.96395 
L 312.732977 126.679357 
L 313.090224 127.602869 
L 313.805492 172.238071 
L 314.235778 222.989892 
L 314.58015 241.513059 
L 314.938888 268.177808 
L 315.237717 276.610406 
L 315.594079 279.859713 
L 316.33419 241.392936 
L 316.695304 182.877205 
L 316.995565 151.714488 
L 317.110027 125.107075 
L 317.410895 100.019085 
L 317.763281 82.726855 
L 318.180102 76.310838 
L 318.359189 78.307212 
L 318.718927 86.481686 
L 319.194803 109.155427 
L 319.49789 124.834951 
L 319.614865 141.182624 
L 320.14826 162.08656 
L 320.328134 161.615238 
L 320.624731 153.005568 
L 321.340325 113.742754 
L 321.584298 106.431107 
L 321.878065 103.085857 
L 322.117615 101.776104 
L 322.357206 104.695186 
L 322.840479 121.139236 
L 323.548541 157.248316 
L 324.083748 166.148561 
L 324.50419 161.986657 
L 324.569671 154.392664 
L 325.098086 131.384877 
L 325.454334 119.743873 
L 325.812051 100.690649 
L 326.051482 95.393971 
L 326.294583 93.576608 
L 326.530758 97.018753 
L 327.242305 115.938025 
L 327.301953 127.637229 
L 327.778986 146.575837 
L 328.256505 155.012407 
L 328.495475 156.183919 
L 328.794246 154.390089 
L 329.171816 149.042655 
L 329.275333 141.286726 
L 329.745474 125.676822 
L 330.282264 118.073503 
L 330.580948 119.756797 
L 330.761294 123.464931 
L 331.057073 127.041735 
L 332.018819 142.823559 
L 332.248663 142.721061 
L 332.487919 140.033926 
L 333.741417 114.422347 
L 333.980504 112.881142 
L 334.226045 113.885057 
L 334.581092 117.9009 
L 335.709664 156.876128 
L 335.971918 161.732275 
L 336.184852 163.52422 
L 336.423478 163.004915 
L 336.663453 159.273777 
L 336.900926 152.769383 
L 337.317585 145.127792 
L 337.437428 137.725998 
L 338.161358 123.222521 
L 338.54477 123.37462 
L 338.658091 126.275674 
L 338.944233 129.279054 
L 338.991294 132.103749 
L 339.29103 135.841284 
L 339.410048 141.802748 
L 339.945144 147.286153 
L 340.421547 144.423681 
L 340.719728 141.280062 
L 341.615004 118.717762 
L 341.917182 115.434706 
L 342.091832 115.402981 
L 342.390217 117.73768 
L 342.865715 130.58463 
L 343.224194 137.800209 
L 343.582206 149.097934 
L 343.819625 152.758649 
L 344.2367 153.936497 
L 344.835051 141.59681 
L 345.609531 117.681091 
L 345.793405 113.653302 
L 346.084919 111.906232 
L 346.386542 112.083383 
L 346.623265 112.918395 
L 347.046882 119.665824 
L 347.633595 136.339723 
L 347.812551 143.275651 
L 348.051726 144.811086 
L 348.470912 141.647321 
L 348.531021 136.399484 
L 349.25029 126.084857 
L 349.603408 123.95359 
L 350.26536 110.066727 
L 350.557034 110.898637 
L 350.855204 117.078016 
L 351.033535 125.866297 
L 351.272515 130.825355 
L 351.510253 140.577826 
L 351.86755 143.572258 
L 352.048182 143.317643 
L 352.34541 141.905384 
L 352.763199 138.54569 
L 353.001631 136.087593 
L 353.358236 130.659831 
L 353.656081 122.906691 
L 353.777296 115.801116 
L 354.26785 109.763755 
L 354.49016 111.915412 
L 354.729169 116.876583 
L 355.26572 130.511611 
L 355.691361 136.161423 
L 355.993376 137.171131 
L 356.230389 137.088803 
L 356.695564 135.380288 
L 357.11492 131.960448 
L 357.768024 117.722414 
L 358.067321 114.346903 
L 358.200121 116.874066 
L 358.619507 121.951541 
L 358.726755 126.125991 
L 359.203431 129.636287 
L 359.739861 134.919473 
L 359.918637 135.248737 
L 360.223373 135.092908 
L 360.464925 134.158206 
L 360.754514 131.857076 
L 360.876193 129.729333 
L 361.129106 128.876059 
L 361.415503 128.89903 
L 361.661674 127.335654 
L 361.887082 123.279869 
L 362.185637 120.46326 
L 362.424082 121.922169 
L 362.662654 126.663262 
L 362.950189 129.794699 
L 363.20353 129.347526 
L 363.423447 128.071599 
L 363.622003 128.093588 
L 364.298259 132.80202 
L 364.393153 132.900863 
L 365.345698 124.169707 
L 365.643635 124.804227 
L 365.941582 124.07854 
L 366.120566 121.735032 
L 366.430486 119.952436 
L 366.661699 121.738586 
L 366.95586 127.044727 
L 367.313284 135.934978 
L 367.613202 134.116862 
L 367.848153 131.299058 
L 368.164973 130.978189 
L 368.328014 131.864871 
L 368.629685 131.449659 
L 368.92628 128.100707 
L 369.34484 119.74466 
L 369.529356 118.751156 
L 370.716213 126.127328 
L 370.778089 127.564647 
L 371.555098 131.106029 
L 371.789135 130.62264 
L 372.325578 127.512716 
L 372.572937 128.881653 
L 372.861574 129.535737 
L 373.223258 125.315816 
L 373.397043 121.902002 
L 373.93445 124.914741 
L 373.993192 127.788859 
L 374.356468 129.031704 
L 374.64956 128.500476 
L 374.71244 127.236196 
L 375.080509 125.611594 
L 375.245909 127.49125 
L 375.486534 132.301592 
L 376.021182 137.799383 
L 376.325316 135.0469 
L 376.501063 130.337332 
L 376.735908 127.533826 
L 377.154139 128.076827 
L 377.275259 129.605471 
L 377.454122 129.520902 
L 377.691085 126.039015 
L 377.97089 123.952798 
L 378.228234 124.06642 
L 378.467507 125.389004 
L 379.182787 131.440882 
L 379.541591 132.568605 
L 379.77876 132.22363 
L 379.957593 131.246649 
L 380.315476 130.067749 
L 380.67377 123.141636 
L 380.971538 121.286674 
L 381.209422 122.522243 
L 381.744983 127.197528 
L 382.401177 123.442696 
L 383.116642 134.374819 
L 383.414778 133.564513 
L 384.130172 123.938506 
L 384.36784 125.062236 
L 384.608478 128.326143 
L 385.024513 130.677416 
L 385.442062 124.534061 
L 385.737779 122.314752 
L 385.982328 123.687481 
L 386.154941 127.062734 
L 386.633083 131.290764 
L 387.408358 124.541424 
L 387.704159 126.042332 
L 388.12156 131.852931 
L 388.360572 130.920341 
L 388.657811 127.192777 
L 388.83674 123.013633 
L 389.078696 121.187856 
L 389.373409 122.547205 
L 390.209139 128.413939 
L 390.327434 127.692334 
L 390.566718 124.36926 
L 390.866233 122.73339 
L 391.283443 123.540686 
L 391.578394 124.901482 
L 391.956832 124.151663 
L 392.061414 122.819736 
L 392.294363 122.73486 
L 392.775135 123.469317 
L 392.832412 124.616474 
L 393.014287 125.692844 
L 393.427847 126.32335 
L 393.65145 126.303453 
L 394.023607 125.273565 
L 395.156539 123.083032 
L 395.817442 119.889915 
L 396.050757 119.89601 
L 396.289007 121.601197 
L 396.709418 126.304887 
L 397.480824 130.763528 
L 397.839129 131.583784 
L 398.493969 140.446004 
L 398.732782 140.848031 
L 399.032184 139.512725 
L 399.38968 136.123626 
L 399.867123 127.981879 
L 399.986143 123.624195 
L 400.464749 118.218065 
L 400.710246 116.346257 
L 401.000306 115.521671 
L 401.240795 116.097985 
L 401.775515 121.138692 
L 401.955105 124.318069 
L 402.431344 128.056233 
L 402.669635 127.748234 
L 402.908526 126.780579 
L 403.162416 126.377083 
L 403.206332 126.98852 
L 403.397622 126.886227 
L 403.922551 128.220804 
L 404.188901 129.520423 
L 404.402506 129.459964 
L 404.641312 128.357072 
L 404.947887 127.717248 
L 405.175669 127.631755 
L 405.65268 128.951771 
L 405.894417 129.294403 
L 406.132636 129.365887 
L 406.426561 129.287896 
L 406.667313 128.389232 
L 406.963223 128.425543 
L 407.619993 131.489369 
L 408.398363 125.387002 
L 408.917998 120.344608 
L 409.234688 118.246109 
L 409.470635 117.446199 
L 409.829013 121.704363 
L 410.606015 129.986834 
L 410.844374 130.142588 
L 411.143152 129.251217 
L 411.320402 127.716762 
L 411.619643 126.927681 
L 411.857209 125.500739 
L 412.096215 122.341575 
L 412.512689 120.248737 
L 412.58546 119.30451 
L 412.87158 120.601373 
L 413.062343 122.865704 
L 413.456757 125.161879 
L 413.81476 131.219359 
L 414.533583 136.510673 
L 414.830286 135.32161 
L 415.559664 125.310041 
L 415.96323 124.243146 
L 416.023198 123.040342 
L 416.321581 121.969748 
L 416.563927 122.47671 
L 416.805148 123.437526 
L 417.276707 129.011114 
L 417.756951 132.42386 
L 418.054464 132.282917 
L 418.471725 131.153598 
L 418.530943 130.131781 
L 418.770431 130.655527 
L 419.126668 130.414076 
L 419.487583 128.028514 
L 419.962564 124.117434 
L 420.281437 122.770229 
L 420.501517 123.147993 
L 421.214128 128.711382 
L 421.693249 131.017919 
L 422.225812 131.019506 
L 422.234324 130.154661 
L 422.468961 129.278569 
L 422.825214 129.561695 
L 423.252127 127.96821 
L 424.145321 124.07938 
L 424.43705 125.045018 
L 424.915208 127.688434 
L 425.155055 127.953494 
L 425.574673 129.220916 
L 425.629286 130.904648 
L 425.988437 132.920621 
L 426.172027 134.893012 
L 426.40654 135.946886 
L 426.64547 136.020321 
L 427.065099 135.061296 
L 427.190077 133.447068 
L 427.445399 133.043871 
L 427.659166 132.990185 
L 427.90644 131.730202 
L 427.958088 130.450762 
L 428.19698 128.26647 
L 428.8559 116.07744 
L 429.151322 114.482069 
L 429.39598 114.599468 
L 430.344322 123.613632 
L 430.774626 124.685536 
L 431.121983 126.415045 
L 431.357652 126.5065 
L 431.597523 125.020906 
L 431.843497 122.140406 
L 432.328044 107.235176 
L 432.821237 89.911182 
L 433.156978 85.089049 
L 433.463552 84.50887 
L 433.594031 85.452063 
L 433.87843 86.369157 
L 434.121676 86.163762 
L 434.414608 86.329306 
L 434.776173 95.266195 
L 435.198864 107.019642 
L 435.318081 119.354118 
L 435.54992 127.457305 
L 435.793016 131.196234 
L 436.163582 132.741808 
L 436.862153 140.032469 
L 437.100266 140.830398 
L 437.400723 137.654856 
L 437.640155 130.062283 
L 438.242412 119.329905 
L 438.507695 118.216248 
L 438.778576 116.58221 
L 439.093849 115.55753 
L 439.259491 115.51092 
L 439.609454 118.68121 
L 440.027646 133.157922 
L 440.326857 138.659596 
L 440.505242 139.691469 
L 440.985603 136.864778 
L 441.360449 134.211345 
L 441.460589 130.25181 
L 441.817555 125.916777 
L 442.261655 115.911318 
L 442.476381 113.351847 
L 442.882088 112.310468 
L 443.119643 112.203824 
L 443.306995 113.095317 
L 443.537398 115.58959 
L 443.835364 120.998513 
L 444.193965 134.409395 
L 444.792607 142.170604 
L 445.029606 140.479965 
L 445.21114 136.06414 
L 445.566243 132.286096 
L 445.69185 128.124655 
L 446.703529 110.748013 
L 446.93948 110.791273 
L 447.656135 117.98126 
L 448.437338 128.382569 
L 448.625267 130.481754 
L 448.91479 130.425808 
L 449.152725 128.758062 
L 449.392189 125.545535 
L 449.89612 121.901523 
L 450.46407 125.321141 
L 450.761942 128.904325 
L 451.658653 147.621335 
L 451.839194 151.311243 
L 452.077357 153.423621 
L 452.326715 152.462588 
L 452.864845 145.118944 
L 453.098099 140.235271 
L 453.469682 136.211969 
L 453.809319 129.565917 
L 454.345201 126.648442 
L 454.765606 126.014302 
L 455.071869 128.702273 
L 455.539853 132.167709 
L 455.961335 133.245491 
L 456.150748 134.28704 
L 456.984034 136.173184 
L 457.700957 131.432639 
L 457.762486 128.961985 
L 458.176246 126.366941 
L 458.535771 120.589549 
L 458.772737 117.920104 
L 459.18988 114.647196 
L 459.309275 110.743265 
L 459.548312 108.647772 
L 459.792529 108.545866 
L 460.505547 115.212971 
L 460.801349 116.305287 
L 461.300883 114.226579 
L 461.461133 112.89493 
L 461.759676 112.317476 
L 461.997667 112.730998 
L 462.240011 114.141875 
L 462.954361 119.958491 
L 463.252644 123.954751 
L 463.439137 128.476356 
L 463.848593 133.648284 
L 464.210024 142.062809 
L 464.468285 145.340066 
L 464.68398 146.528077 
L 464.923343 146.272814 
L 465.170704 144.873587 
L 466.009353 137.688938 
L 466.961408 124.626348 
L 467.199234 122.859057 
L 467.921045 119.364379 
L 468.311702 118.407458 
L 468.761166 119.157748 
L 468.931187 119.755302 
L 469.179483 121.287443 
L 469.542461 122.631296 
L 470.435389 129.748354 
L 471.389817 141.298128 
L 471.682015 142.510336 
L 471.865224 144.453641 
L 472.16172 146.14024 
L 472.456786 146.739188 
L 472.636186 146.128344 
L 473.054076 144.299035 
L 473.400235 138.277626 
L 473.868197 129.866888 
L 474.170263 126.408764 
L 474.354868 121.916819 
L 474.949827 116.162159 
L 475.315542 113.420587 
L 475.840459 113.174375 
L 476.795462 119.211663 
L 477.212458 118.808969 
L 477.361592 118.472687 
L 477.749946 118.661351 
L 477.868828 119.208703 
L 478.643526 127.017696 
L 478.775738 130.247925 
L 479.600228 141.932293 
L 480.01865 149.560274 
L 480.259337 152.983525 
L 480.797255 153.895386 
L 481.032858 153.193676 
L 482.301583 143.37086 
L 483.208624 133.194113 
L 483.500877 131.371769 
L 484.097273 130.267169 
L 484.216787 129.686876 
L 484.514676 129.736583 
L 484.761105 129.250835 
L 485.008903 128.325202 
L 486.007356 119.35031 
L 486.247979 117.772399 
L 486.961225 111.017196 
L 487.206514 109.842779 
L 487.440359 110.716112 
L 488.455338 125.414494 
L 488.931602 129.396289 
L 489.288177 129.833578 
L 489.540319 129.246662 
L 489.706772 130.175705 
L 490.005091 131.11876 
L 490.242896 131.073192 
L 490.481391 131.178656 
L 490.899752 130.686252 
L 491.494573 130.529624 
L 491.741352 131.498104 
L 491.913287 132.712864 
L 492.154206 132.848239 
L 492.390345 132.37914 
L 492.705805 130.905017 
L 493.122928 125.335087 
L 493.601015 122.156428 
L 493.66099 118.940493 
L 494.614303 114.513629 
L 495.391562 110.104288 
L 495.688062 110.439031 
L 496.407336 118.924611 
L 497.602808 136.443456 
L 497.947291 140.740944 
L 498.384535 149.28458 
L 498.860584 154.240649 
L 499.337413 155.956492 
L 499.576371 155.712486 
L 500.829084 142.816081 
L 501.425955 139.712373 
L 501.604394 138.742151 
L 502.085048 138.244617 
L 502.321119 143.682744 
L 503.051282 153.314064 
L 503.27591 153.657036 
L 503.515493 153.590045 
L 504.229888 152.535566 
L 504.707569 152.024399 
L 505.069486 151.676978 
L 506.020268 143.628805 
L 506.266043 142.904979 
L 506.569872 142.449894 
L 506.993307 138.610206 
L 507.475334 132.575696 
L 507.708032 130.511722 
L 508.005894 129.552979 
L 508.485193 131.522072 
L 509.921977 136.56738 
L 509.97473 137.255285 
L 510.21317 137.294662 
L 510.631246 138.729621 
L 510.691646 140.334233 
L 510.932276 142.321519 
L 511.427141 145.254807 
L 511.731757 146.99607 
L 512.42372 154.440208 
L 512.662927 158.42915 
L 512.902669 160.219346 
L 513.214663 160.18385 
L 513.619081 159.355195 
L 513.68035 158.034664 
L 513.915563 157.542528 
L 514.39837 157.897322 
L 514.571539 157.591782 
L 514.703169 157.690091 
L 515.247869 156.241653 
L 515.468485 155.776638 
L 515.918439 153.171684 
L 516.400242 148.270027 
L 516.762513 144.513941 
L 517.159528 135.95941 
L 517.51651 132.025401 
L 517.878201 124.392201 
L 518.173168 123.299642 
L 518.480489 122.743897 
L 518.653123 123.00792 
L 518.951708 124.209857 
L 519.725267 132.746295 
L 519.86004 136.602349 
L 520.439599 144.980707 
L 520.621899 146.640235 
L 520.859464 147.455984 
L 521.39507 155.163479 
L 522.363738 170.958341 
L 522.65075 173.335785 
L 522.827932 176.507213 
L 523.497826 180.673503 
L 523.843711 177.349495 
L 524.131034 165.755229 
L 524.380779 150.173415 
L 524.857058 139.712256 
L 524.9168 131.276695 
L 525.275559 124.956024 
L 525.403427 120.660973 
L 525.814188 117.683795 
L 526.316015 118.859123 
L 526.890514 135.880064 
L 527.008656 142.666767 
L 527.314102 146.947643 
L 527.785005 148.336041 
L 528.28225 145.771455 
L 528.686391 140.999164 
L 529.284939 133.512596 
L 529.533417 134.089483 
L 529.890641 136.703721 
L 530.247674 144.702036 
L 530.664454 149.095053 
L 530.905653 153.687737 
L 531.439707 160.634724 
L 531.621121 160.328326 
L 531.88268 157.562503 
L 532.275662 145.040991 
L 533.23581 116.993825 
L 533.470149 114.281527 
L 533.72434 114.80298 
L 534.245028 123.470323 
L 535.028561 143.342389 
L 535.504579 151.826693 
L 535.801994 153.918176 
L 535.979304 153.72359 
L 536.526316 148.31726 
L 536.938388 137.492382 
L 537.241818 132.97882 
L 537.709664 129.586398 
L 537.923297 128.505999 
L 538.187608 127.937289 
L 538.723835 128.186152 
L 538.905185 127.953687 
L 539.439601 128.963681 
L 539.680701 127.990708 
L 540.155601 122.343092 
L 540.924843 110.805781 
L 541.177946 108.146767 
L 541.483777 106.72438 
L 541.832702 106.393928 
L 541.907515 106.596306 
L 542.137411 108.222941 
L 542.613306 115.903788 
L 543.385554 131.449136 
L 543.625901 134.248016 
L 544.419445 136.182122 
L 544.699628 136.604363 
L 545.177199 136.97248 
L 545.613251 136.936901 
L 546.191021 145.39497 
L 546.311255 150.1995 
L 546.787321 156.066699 
L 547.086927 157.049851 
L 547.328605 155.762922 
L 547.800201 148.660296 
L 549.053617 125.622753 
L 549.551337 121.508786 
L 549.769221 120.908305 
L 550.187418 122.57889 
L 550.496407 126.943019 
L 551.101371 130.035899 
L 551.264901 130.110161 
L 551.737027 128.563577 
L 552.395465 125.212411 
L 552.516451 123.076256 
L 552.989968 121.10145 
L 553.231918 120.801812 
L 553.531832 121.196555 
L 554.122134 125.618227 
L 554.984158 137.430511 
L 555.281591 139.608463 
L 555.937535 141.453958 
L 556.47617 142.08581 
L 556.8397 142.191407 
L 557.459078 144.671565 
L 557.570223 146.677309 
L 557.743454 146.249288 
L 557.960614 146.135767 
L 558.202691 146.560799 
L 558.43799 146.353264 
L 558.695445 144.638304 
L 558.974965 141.583714 
L 559.92538 124.906007 
L 560.468553 123.335491 
L 560.652229 122.121269 
L 560.945158 120.940697 
L 561.186721 121.355205 
L 561.37958 123.657864 
L 562.153707 138.939886 
L 562.450932 140.258649 
L 562.693429 140.666321 
L 563.168071 139.518762 
L 563.541892 137.66321 
L 563.663332 134.35029 
L 564.063923 130.461508 
L 564.36587 125.4507 
L 564.602546 125.737544 
L 564.899658 127.878695 
L 565.913609 140.960017 
L 566.154132 143.363973 
L 566.41619 144.587681 
L 566.807687 144.301558 
L 568.067008 121.269052 
L 568.36386 119.497476 
L 568.666409 119.400139 
L 569.495961 128.175855 
L 569.556614 130.726871 
L 570.180186 135.224281 
L 570.296782 139.642886 
L 570.840372 146.810512 
L 571.090269 148.777817 
L 571.312124 148.864722 
L 571.551927 146.939919 
L 572.030259 140.421103 
L 572.327643 141.087639 
L 572.518413 142.434117 
L 572.804311 141.722782 
L 573.343047 136.410728 
L 573.705169 134.586983 
L 573.889969 134.709213 
L 574.30091 140.758986 
L 574.655476 142.309175 
L 574.970739 137.569001 
L 575.266685 137.42993 
L 575.509254 139.161538 
L 575.806683 139.868096 
L 575.982989 138.659272 
L 576.639918 131.541464 
L 576.819632 130.763229 
L 577.176708 133.8813 
L 577.534113 141.15084 
L 577.715511 141.042425 
L 577.951032 138.241658 
L 578.309387 136.600229 
L 578.55534 138.643035 
L 578.728967 142.021874 
L 579.051607 143.113677 
L 579.234913 141.694988 
L 579.707111 136.991503 
L 580.001437 137.26293 
L 580.432509 138.43965 
L 580.67193 138.150759 
L 580.954797 137.589409 
L 581.193618 138.224158 
L 581.503861 139.746387 
L 581.67021 141.476418 
L 582.031218 141.561452 
L 582.167232 140.50088 
L 582.446877 140.057789 
L 582.685641 141.229703 
L 583.282015 145.372245 
L 583.460499 143.931716 
L 583.519781 141.882861 
L 583.93793 139.121784 
L 584.119675 134.654144 
L 584.35554 132.705607 
L 584.712611 134.608654 
L 584.891392 136.280143 
L 585.63542 130.422765 
L 585.787329 130.58165 
L 586.619088 145.588185 
L 586.989148 145.183957 
L 587.158906 143.060444 
L 587.635596 139.109789 
L 588.351426 140.929123 
L 588.64969 138.811737 
L 588.888745 135.463833 
L 589.128115 134.272405 
L 589.546397 136.186955 
L 589.612081 138.365626 
L 589.849898 140.082498 
L 590.201208 140.513104 
L 590.339608 139.436379 
L 590.564453 139.661424 
L 591.098088 138.877108 
L 591.644742 139.360101 
L 591.94111 138.289215 
L 592.179709 135.231883 
L 592.35766 136.20052 
L 592.599352 138.984106 
L 592.95496 138.834846 
L 593.252524 137.126796 
L 593.612706 138.662703 
L 593.789061 138.507402 
L 594.038067 139.396418 
L 594.265573 138.921159 
L 594.510253 139.855829 
L 595.041953 140.147611 
L 595.520186 138.468352 
L 595.776521 137.68218 
L 595.995268 137.721334 
L 596.502813 136.427187 
L 596.502813 136.427187 
" clip-path="url(#p1882bd2881)" style="fill: none; stroke: #ff0000; stroke-opacity: 0.7; stroke-width: 1.5; stroke-linecap: square"/>
   </g>
   <g id="patch_3">
    <path d="M 38.502813 279.859713 
L 38.502813 2.659713 
" style="fill: none; stroke: #000000; stroke-width: 0.8; stroke-linejoin: miter; stroke-linecap: square"/>
   </g>
   <g id="patch_4">
    <path d="M 596.502813 279.859713 
L 596.502813 2.659713 
" style="fill: none; stroke: #000000; stroke-width: 0.8; stroke-linejoin: miter; stroke-linecap: square"/>
   </g>
   <g id="patch_5">
    <path d="M 38.502813 279.859713 
L 596.502813 279.859713 
" style="fill: none; stroke: #000000; stroke-width: 0.8; stroke-linejoin: miter; stroke-linecap: square"/>
   </g>
   <g id="patch_6">
    <path d="M 38.502813 2.659713 
L 596.502813 2.659713 
" style="fill: none; stroke: #000000; stroke-width: 0.8; stroke-linejoin: miter; stroke-linecap: square"/>
   </g>
   <g id="legend_1">
    <g id="patch_7">
     <path d="M 515.734062 40.015963 
L 589.502812 40.015963 
Q 591.502812 40.015963 591.502812 38.015963 
L 591.502812 9.659713 
Q 591.502812 7.659713 589.502812 7.659713 
L 515.734062 7.659713 
Q 513.734062 7.659713 513.734062 9.659713 
L 513.734062 38.015963 
Q 513.734062 40.015963 515.734062 40.015963 
z
" style="fill: #ffffff; opacity: 0.8; stroke: #cccccc; stroke-linejoin: miter"/>
    </g>
    <g id="line2d_29">
     <path d="M 517.734062 15.758151 
L 527.734062 15.758151 
L 537.734062 15.758151 
" style="fill: none; stroke: #0000ff; stroke-opacity: 0.7; stroke-width: 1.5; stroke-linecap: square"/>
    </g>
    <g id="text_16">
     <!-- RNEA -->
     <g transform="translate(545.734062 19.258151) scale(0.1 -0.1)">
      <defs>
       <path id="DejaVuSans-52" d="M 2841 2188 
Q 3044 2119 3236 1894 
Q 3428 1669 3622 1275 
L 4263 0 
L 3584 0 
L 2988 1197 
Q 2756 1666 2539 1819 
Q 2322 1972 1947 1972 
L 1259 1972 
L 1259 0 
L 628 0 
L 628 4666 
L 2053 4666 
Q 2853 4666 3247 4331 
Q 3641 3997 3641 3322 
Q 3641 2881 3436 2590 
Q 3231 2300 2841 2188 
z
M 1259 4147 
L 1259 2491 
L 2053 2491 
Q 2509 2491 2742 2702 
Q 2975 2913 2975 3322 
Q 2975 3731 2742 3939 
Q 2509 4147 2053 4147 
L 1259 4147 
z
" transform="scale(0.015625)"/>
       <path id="DejaVuSans-45" d="M 628 4666 
L 3578 4666 
L 3578 4134 
L 1259 4134 
L 1259 2753 
L 3481 2753 
L 3481 2222 
L 1259 2222 
L 1259 531 
L 3634 531 
L 3634 0 
L 628 0 
L 628 4666 
z
" transform="scale(0.015625)"/>
       <path id="DejaVuSans-41" d="M 2188 4044 
L 1331 1722 
L 3047 1722 
L 2188 4044 
z
M 1831 4666 
L 2547 4666 
L 4325 0 
L 3669 0 
L 3244 1197 
L 1141 1197 
L 716 0 
L 50 0 
L 1831 4666 
z
" transform="scale(0.015625)"/>
      </defs>
      <use xlink:href="#DejaVuSans-52"/>
      <use xlink:href="#DejaVuSans-4e" x="69.482422"/>
      <use xlink:href="#DejaVuSans-45" x="144.287109"/>
      <use xlink:href="#DejaVuSans-41" x="207.470703"/>
     </g>
    </g>
    <g id="line2d_30">
     <path d="M 517.734062 30.436276 
L 527.734062 30.436276 
L 537.734062 30.436276 
" style="fill: none; stroke: #ff0000; stroke-opacity: 0.7; stroke-width: 1.5; stroke-linecap: square"/>
    </g>
    <g id="text_17">
     <!-- BURNEA -->
     <g transform="translate(545.734062 33.936276) scale(0.1 -0.1)">
      <defs>
       <path id="DejaVuSans-42" d="M 1259 2228 
L 1259 519 
L 2272 519 
Q 2781 519 3026 730 
Q 3272 941 3272 1375 
Q 3272 1813 3026 2020 
Q 2781 2228 2272 2228 
L 1259 2228 
z
M 1259 4147 
L 1259 2741 
L 2194 2741 
Q 2656 2741 2882 2914 
Q 3109 3088 3109 3444 
Q 3109 3797 2882 3972 
Q 2656 4147 2194 4147 
L 1259 4147 
z
M 628 4666 
L 2241 4666 
Q 2963 4666 3353 4366 
Q 3744 4066 3744 3513 
Q 3744 3084 3544 2831 
Q 3344 2578 2956 2516 
Q 3422 2416 3680 2098 
Q 3938 1781 3938 1306 
Q 3938 681 3513 340 
Q 3088 0 2303 0 
L 628 0 
L 628 4666 
z
" transform="scale(0.015625)"/>
       <path id="DejaVuSans-55" d="M 556 4666 
L 1191 4666 
L 1191 1831 
Q 1191 1081 1462 751 
Q 1734 422 2344 422 
Q 2950 422 3222 751 
Q 3494 1081 3494 1831 
L 3494 4666 
L 4128 4666 
L 4128 1753 
Q 4128 841 3676 375 
Q 3225 -91 2344 -91 
Q 1459 -91 1007 375 
Q 556 841 556 1753 
L 556 4666 
z
" transform="scale(0.015625)"/>
      </defs>
      <use xlink:href="#DejaVuSans-42"/>
      <use xlink:href="#DejaVuSans-55" x="68.603516"/>
      <use xlink:href="#DejaVuSans-52" x="141.796875"/>
      <use xlink:href="#DejaVuSans-4e" x="211.279297"/>
      <use xlink:href="#DejaVuSans-45" x="286.083984"/>
      <use xlink:href="#DejaVuSans-41" x="349.267578"/>
     </g>
    </g>
   </g>
  </g>
 </g>
 <defs>
  <clipPath id="p1882bd2881">
   <rect x="38.502813" y="2.659713" width="558" height="277.2"/>
  </clipPath>
 </defs>
</svg>
