<?xml version="1.0" encoding="utf-8" standalone="no"?>
<!DOCTYPE svg PUBLIC "-//W3C//DTD SVG 1.1//EN"
  "http://www.w3.org/Graphics/SVG/1.1/DTD/svg11.dtd">
<svg xmlns:xlink="http://www.w3.org/1999/xlink" width="597.222813pt" height="304.99625pt" viewBox="0 0 597.222813 304.99625" xmlns="http://www.w3.org/2000/svg" version="1.1">
 <metadata>
  <rdf:RDF xmlns:dc="http://purl.org/dc/elements/1.1/" xmlns:cc="http://creativecommons.org/ns#" xmlns:rdf="http://www.w3.org/1999/02/22-rdf-syntax-ns#">
   <cc:Work>
    <dc:type rdf:resource="http://purl.org/dc/dcmitype/StillImage"/>
    <dc:date>2023-09-05T13:16:44.794473</dc:date>
    <dc:format>image/svg+xml</dc:format>
    <dc:creator>
     <cc:Agent>
      <dc:title>Matplotlib v3.7.2, https://matplotlib.org/</dc:title>
     </cc:Agent>
    </dc:creator>
   </cc:Work>
  </rdf:RDF>
 </metadata>
 <defs>
  <style type="text/css">*{stroke-linejoin: round; stroke-linecap: butt}</style>
 </defs>
 <g id="figure_1">
  <g id="patch_1">
   <path d="M -0 304.99625 
L 597.222813 304.99625 
L 597.222813 0 
L -0 0 
L -0 304.99625 
z
" style="fill: none"/>
  </g>
  <g id="axes_1">
   <g id="patch_2">
    <path d="M 38.502813 277.92 
L 596.502813 277.92 
L 596.502813 0.72 
L 38.502813 0.72 
L 38.502813 277.92 
z
" style="fill: none"/>
   </g>
   <g id="matplotlib.axis_1">
    <g id="xtick_1">
     <g id="line2d_1">
      <path d="M 38.502813 277.92 
L 38.502813 0.72 
" clip-path="url(#p04985c9e20)" style="fill: none; stroke-dasharray: 0.8,1.32; stroke-dashoffset: 0; stroke: #000000; stroke-opacity: 0.5; stroke-width: 0.8"/>
     </g>
     <g id="line2d_2">
      <defs>
       <path id="mb0d9dc7c62" d="M 0 0 
L 0 3.5 
" style="stroke: #000000; stroke-width: 0.8"/>
      </defs>
      <g>
       <use xlink:href="#mb0d9dc7c62" x="38.502813" y="277.92" style="stroke: #000000; stroke-width: 0.8"/>
      </g>
     </g>
     <g id="text_1">
      <!-- 0.0 -->
      <g transform="translate(30.55125 292.518438) scale(0.1 -0.1)">
       <defs>
        <path id="DejaVuSans-30" d="M 2034 4250 
Q 1547 4250 1301 3770 
Q 1056 3291 1056 2328 
Q 1056 1369 1301 889 
Q 1547 409 2034 409 
Q 2525 409 2770 889 
Q 3016 1369 3016 2328 
Q 3016 3291 2770 3770 
Q 2525 4250 2034 4250 
z
M 2034 4750 
Q 2819 4750 3233 4129 
Q 3647 3509 3647 2328 
Q 3647 1150 3233 529 
Q 2819 -91 2034 -91 
Q 1250 -91 836 529 
Q 422 1150 422 2328 
Q 422 3509 836 4129 
Q 1250 4750 2034 4750 
z
" transform="scale(0.015625)"/>
        <path id="DejaVuSans-2e" d="M 684 794 
L 1344 794 
L 1344 0 
L 684 0 
L 684 794 
z
" transform="scale(0.015625)"/>
       </defs>
       <use xlink:href="#DejaVuSans-30"/>
       <use xlink:href="#DejaVuSans-2e" x="63.623047"/>
       <use xlink:href="#DejaVuSans-30" x="95.410156"/>
      </g>
     </g>
    </g>
    <g id="xtick_2">
     <g id="line2d_3">
      <path d="M 112.654137 277.92 
L 112.654137 0.72 
" clip-path="url(#p04985c9e20)" style="fill: none; stroke-dasharray: 0.8,1.32; stroke-dashoffset: 0; stroke: #000000; stroke-opacity: 0.5; stroke-width: 0.8"/>
     </g>
     <g id="line2d_4">
      <g>
       <use xlink:href="#mb0d9dc7c62" x="112.654137" y="277.92" style="stroke: #000000; stroke-width: 0.8"/>
      </g>
     </g>
     <g id="text_2">
      <!-- 2.5 -->
      <g transform="translate(104.702575 292.518438) scale(0.1 -0.1)">
       <defs>
        <path id="DejaVuSans-32" d="M 1228 531 
L 3431 531 
L 3431 0 
L 469 0 
L 469 531 
Q 828 903 1448 1529 
Q 2069 2156 2228 2338 
Q 2531 2678 2651 2914 
Q 2772 3150 2772 3378 
Q 2772 3750 2511 3984 
Q 2250 4219 1831 4219 
Q 1534 4219 1204 4116 
Q 875 4013 500 3803 
L 500 4441 
Q 881 4594 1212 4672 
Q 1544 4750 1819 4750 
Q 2544 4750 2975 4387 
Q 3406 4025 3406 3419 
Q 3406 3131 3298 2873 
Q 3191 2616 2906 2266 
Q 2828 2175 2409 1742 
Q 1991 1309 1228 531 
z
" transform="scale(0.015625)"/>
        <path id="DejaVuSans-35" d="M 691 4666 
L 3169 4666 
L 3169 4134 
L 1269 4134 
L 1269 2991 
Q 1406 3038 1543 3061 
Q 1681 3084 1819 3084 
Q 2600 3084 3056 2656 
Q 3513 2228 3513 1497 
Q 3513 744 3044 326 
Q 2575 -91 1722 -91 
Q 1428 -91 1123 -41 
Q 819 9 494 109 
L 494 744 
Q 775 591 1075 516 
Q 1375 441 1709 441 
Q 2250 441 2565 725 
Q 2881 1009 2881 1497 
Q 2881 1984 2565 2268 
Q 2250 2553 1709 2553 
Q 1456 2553 1204 2497 
Q 953 2441 691 2322 
L 691 4666 
z
" transform="scale(0.015625)"/>
       </defs>
       <use xlink:href="#DejaVuSans-32"/>
       <use xlink:href="#DejaVuSans-2e" x="63.623047"/>
       <use xlink:href="#DejaVuSans-35" x="95.410156"/>
      </g>
     </g>
    </g>
    <g id="xtick_3">
     <g id="line2d_5">
      <path d="M 186.805462 277.92 
L 186.805462 0.72 
" clip-path="url(#p04985c9e20)" style="fill: none; stroke-dasharray: 0.8,1.32; stroke-dashoffset: 0; stroke: #000000; stroke-opacity: 0.5; stroke-width: 0.8"/>
     </g>
     <g id="line2d_6">
      <g>
       <use xlink:href="#mb0d9dc7c62" x="186.805462" y="277.92" style="stroke: #000000; stroke-width: 0.8"/>
      </g>
     </g>
     <g id="text_3">
      <!-- 5.0 -->
      <g transform="translate(178.8539 292.518438) scale(0.1 -0.1)">
       <use xlink:href="#DejaVuSans-35"/>
       <use xlink:href="#DejaVuSans-2e" x="63.623047"/>
       <use xlink:href="#DejaVuSans-30" x="95.410156"/>
      </g>
     </g>
    </g>
    <g id="xtick_4">
     <g id="line2d_7">
      <path d="M 260.956787 277.92 
L 260.956787 0.72 
" clip-path="url(#p04985c9e20)" style="fill: none; stroke-dasharray: 0.8,1.32; stroke-dashoffset: 0; stroke: #000000; stroke-opacity: 0.5; stroke-width: 0.8"/>
     </g>
     <g id="line2d_8">
      <g>
       <use xlink:href="#mb0d9dc7c62" x="260.956787" y="277.92" style="stroke: #000000; stroke-width: 0.8"/>
      </g>
     </g>
     <g id="text_4">
      <!-- 7.5 -->
      <g transform="translate(253.005225 292.518438) scale(0.1 -0.1)">
       <defs>
        <path id="DejaVuSans-37" d="M 525 4666 
L 3525 4666 
L 3525 4397 
L 1831 0 
L 1172 0 
L 2766 4134 
L 525 4134 
L 525 4666 
z
" transform="scale(0.015625)"/>
       </defs>
       <use xlink:href="#DejaVuSans-37"/>
       <use xlink:href="#DejaVuSans-2e" x="63.623047"/>
       <use xlink:href="#DejaVuSans-35" x="95.410156"/>
      </g>
     </g>
    </g>
    <g id="xtick_5">
     <g id="line2d_9">
      <path d="M 335.108112 277.92 
L 335.108112 0.72 
" clip-path="url(#p04985c9e20)" style="fill: none; stroke-dasharray: 0.8,1.32; stroke-dashoffset: 0; stroke: #000000; stroke-opacity: 0.5; stroke-width: 0.8"/>
     </g>
     <g id="line2d_10">
      <g>
       <use xlink:href="#mb0d9dc7c62" x="335.108112" y="277.92" style="stroke: #000000; stroke-width: 0.8"/>
      </g>
     </g>
     <g id="text_5">
      <!-- 10.0 -->
      <g transform="translate(323.9753 292.518438) scale(0.1 -0.1)">
       <defs>
        <path id="DejaVuSans-31" d="M 794 531 
L 1825 531 
L 1825 4091 
L 703 3866 
L 703 4441 
L 1819 4666 
L 2450 4666 
L 2450 531 
L 3481 531 
L 3481 0 
L 794 0 
L 794 531 
z
" transform="scale(0.015625)"/>
       </defs>
       <use xlink:href="#DejaVuSans-31"/>
       <use xlink:href="#DejaVuSans-30" x="63.623047"/>
       <use xlink:href="#DejaVuSans-2e" x="127.246094"/>
       <use xlink:href="#DejaVuSans-30" x="159.033203"/>
      </g>
     </g>
    </g>
    <g id="xtick_6">
     <g id="line2d_11">
      <path d="M 409.259437 277.92 
L 409.259437 0.72 
" clip-path="url(#p04985c9e20)" style="fill: none; stroke-dasharray: 0.8,1.32; stroke-dashoffset: 0; stroke: #000000; stroke-opacity: 0.5; stroke-width: 0.8"/>
     </g>
     <g id="line2d_12">
      <g>
       <use xlink:href="#mb0d9dc7c62" x="409.259437" y="277.92" style="stroke: #000000; stroke-width: 0.8"/>
      </g>
     </g>
     <g id="text_6">
      <!-- 12.5 -->
      <g transform="translate(398.126625 292.518438) scale(0.1 -0.1)">
       <use xlink:href="#DejaVuSans-31"/>
       <use xlink:href="#DejaVuSans-32" x="63.623047"/>
       <use xlink:href="#DejaVuSans-2e" x="127.246094"/>
       <use xlink:href="#DejaVuSans-35" x="159.033203"/>
      </g>
     </g>
    </g>
    <g id="xtick_7">
     <g id="line2d_13">
      <path d="M 483.410762 277.92 
L 483.410762 0.72 
" clip-path="url(#p04985c9e20)" style="fill: none; stroke-dasharray: 0.8,1.32; stroke-dashoffset: 0; stroke: #000000; stroke-opacity: 0.5; stroke-width: 0.8"/>
     </g>
     <g id="line2d_14">
      <g>
       <use xlink:href="#mb0d9dc7c62" x="483.410762" y="277.92" style="stroke: #000000; stroke-width: 0.8"/>
      </g>
     </g>
     <g id="text_7">
      <!-- 15.0 -->
      <g transform="translate(472.27795 292.518438) scale(0.1 -0.1)">
       <use xlink:href="#DejaVuSans-31"/>
       <use xlink:href="#DejaVuSans-35" x="63.623047"/>
       <use xlink:href="#DejaVuSans-2e" x="127.246094"/>
       <use xlink:href="#DejaVuSans-30" x="159.033203"/>
      </g>
     </g>
    </g>
    <g id="xtick_8">
     <g id="line2d_15">
      <path d="M 557.562087 277.92 
L 557.562087 0.72 
" clip-path="url(#p04985c9e20)" style="fill: none; stroke-dasharray: 0.8,1.32; stroke-dashoffset: 0; stroke: #000000; stroke-opacity: 0.5; stroke-width: 0.8"/>
     </g>
     <g id="line2d_16">
      <g>
       <use xlink:href="#mb0d9dc7c62" x="557.562087" y="277.92" style="stroke: #000000; stroke-width: 0.8"/>
      </g>
     </g>
     <g id="text_8">
      <!-- 17.5 -->
      <g transform="translate(546.429274 292.518438) scale(0.1 -0.1)">
       <use xlink:href="#DejaVuSans-31"/>
       <use xlink:href="#DejaVuSans-37" x="63.623047"/>
       <use xlink:href="#DejaVuSans-2e" x="127.246094"/>
       <use xlink:href="#DejaVuSans-35" x="159.033203"/>
      </g>
     </g>
    </g>
    <g id="text_9">
     <!-- Zeit [s] -->
     <g transform="translate(299.556719 302.196563) scale(0.1 -0.1)">
      <defs>
       <path id="DejaVuSans-5a" d="M 359 4666 
L 4025 4666 
L 4025 4184 
L 1075 531 
L 4097 531 
L 4097 0 
L 288 0 
L 288 481 
L 3238 4134 
L 359 4134 
L 359 4666 
z
" transform="scale(0.015625)"/>
       <path id="DejaVuSans-65" d="M 3597 1894 
L 3597 1613 
L 953 1613 
Q 991 1019 1311 708 
Q 1631 397 2203 397 
Q 2534 397 2845 478 
Q 3156 559 3463 722 
L 3463 178 
Q 3153 47 2828 -22 
Q 2503 -91 2169 -91 
Q 1331 -91 842 396 
Q 353 884 353 1716 
Q 353 2575 817 3079 
Q 1281 3584 2069 3584 
Q 2775 3584 3186 3129 
Q 3597 2675 3597 1894 
z
M 3022 2063 
Q 3016 2534 2758 2815 
Q 2500 3097 2075 3097 
Q 1594 3097 1305 2825 
Q 1016 2553 972 2059 
L 3022 2063 
z
" transform="scale(0.015625)"/>
       <path id="DejaVuSans-69" d="M 603 3500 
L 1178 3500 
L 1178 0 
L 603 0 
L 603 3500 
z
M 603 4863 
L 1178 4863 
L 1178 4134 
L 603 4134 
L 603 4863 
z
" transform="scale(0.015625)"/>
       <path id="DejaVuSans-74" d="M 1172 4494 
L 1172 3500 
L 2356 3500 
L 2356 3053 
L 1172 3053 
L 1172 1153 
Q 1172 725 1289 603 
Q 1406 481 1766 481 
L 2356 481 
L 2356 0 
L 1766 0 
Q 1100 0 847 248 
Q 594 497 594 1153 
L 594 3053 
L 172 3053 
L 172 3500 
L 594 3500 
L 594 4494 
L 1172 4494 
z
" transform="scale(0.015625)"/>
       <path id="DejaVuSans-20" transform="scale(0.015625)"/>
       <path id="DejaVuSans-5b" d="M 550 4863 
L 1875 4863 
L 1875 4416 
L 1125 4416 
L 1125 -397 
L 1875 -397 
L 1875 -844 
L 550 -844 
L 550 4863 
z
" transform="scale(0.015625)"/>
       <path id="DejaVuSans-73" d="M 2834 3397 
L 2834 2853 
Q 2591 2978 2328 3040 
Q 2066 3103 1784 3103 
Q 1356 3103 1142 2972 
Q 928 2841 928 2578 
Q 928 2378 1081 2264 
Q 1234 2150 1697 2047 
L 1894 2003 
Q 2506 1872 2764 1633 
Q 3022 1394 3022 966 
Q 3022 478 2636 193 
Q 2250 -91 1575 -91 
Q 1294 -91 989 -36 
Q 684 19 347 128 
L 347 722 
Q 666 556 975 473 
Q 1284 391 1588 391 
Q 1994 391 2212 530 
Q 2431 669 2431 922 
Q 2431 1156 2273 1281 
Q 2116 1406 1581 1522 
L 1381 1569 
Q 847 1681 609 1914 
Q 372 2147 372 2553 
Q 372 3047 722 3315 
Q 1072 3584 1716 3584 
Q 2034 3584 2315 3537 
Q 2597 3491 2834 3397 
z
" transform="scale(0.015625)"/>
       <path id="DejaVuSans-5d" d="M 1947 4863 
L 1947 -844 
L 622 -844 
L 622 -397 
L 1369 -397 
L 1369 4416 
L 622 4416 
L 622 4863 
L 1947 4863 
z
" transform="scale(0.015625)"/>
      </defs>
      <use xlink:href="#DejaVuSans-5a"/>
      <use xlink:href="#DejaVuSans-65" x="68.505859"/>
      <use xlink:href="#DejaVuSans-69" x="130.029297"/>
      <use xlink:href="#DejaVuSans-74" x="157.8125"/>
      <use xlink:href="#DejaVuSans-20" x="197.021484"/>
      <use xlink:href="#DejaVuSans-5b" x="228.808594"/>
      <use xlink:href="#DejaVuSans-73" x="267.822266"/>
      <use xlink:href="#DejaVuSans-5d" x="319.921875"/>
     </g>
    </g>
   </g>
   <g id="matplotlib.axis_2">
    <g id="ytick_1">
     <g id="line2d_17">
      <path d="M 38.502813 272.848986 
L 596.502813 272.848986 
" clip-path="url(#p04985c9e20)" style="fill: none; stroke-dasharray: 0.8,1.32; stroke-dashoffset: 0; stroke: #000000; stroke-opacity: 0.5; stroke-width: 0.8"/>
     </g>
     <g id="line2d_18">
      <defs>
       <path id="mc654c66b78" d="M 0 0 
L -3.5 0 
" style="stroke: #000000; stroke-width: 0.8"/>
      </defs>
      <g>
       <use xlink:href="#mc654c66b78" x="38.502813" y="272.848986" style="stroke: #000000; stroke-width: 0.8"/>
      </g>
     </g>
     <g id="text_10">
      <!-- −35 -->
      <g transform="translate(10.398125 276.648205) scale(0.1 -0.1)">
       <defs>
        <path id="DejaVuSans-2212" d="M 678 2272 
L 4684 2272 
L 4684 1741 
L 678 1741 
L 678 2272 
z
" transform="scale(0.015625)"/>
        <path id="DejaVuSans-33" d="M 2597 2516 
Q 3050 2419 3304 2112 
Q 3559 1806 3559 1356 
Q 3559 666 3084 287 
Q 2609 -91 1734 -91 
Q 1441 -91 1130 -33 
Q 819 25 488 141 
L 488 750 
Q 750 597 1062 519 
Q 1375 441 1716 441 
Q 2309 441 2620 675 
Q 2931 909 2931 1356 
Q 2931 1769 2642 2001 
Q 2353 2234 1838 2234 
L 1294 2234 
L 1294 2753 
L 1863 2753 
Q 2328 2753 2575 2939 
Q 2822 3125 2822 3475 
Q 2822 3834 2567 4026 
Q 2313 4219 1838 4219 
Q 1578 4219 1281 4162 
Q 984 4106 628 3988 
L 628 4550 
Q 988 4650 1302 4700 
Q 1616 4750 1894 4750 
Q 2613 4750 3031 4423 
Q 3450 4097 3450 3541 
Q 3450 3153 3228 2886 
Q 3006 2619 2597 2516 
z
" transform="scale(0.015625)"/>
       </defs>
       <use xlink:href="#DejaVuSans-2212"/>
       <use xlink:href="#DejaVuSans-33" x="83.789062"/>
       <use xlink:href="#DejaVuSans-35" x="147.412109"/>
      </g>
     </g>
    </g>
    <g id="ytick_2">
     <g id="line2d_19">
      <path d="M 38.502813 236.342589 
L 596.502813 236.342589 
" clip-path="url(#p04985c9e20)" style="fill: none; stroke-dasharray: 0.8,1.32; stroke-dashoffset: 0; stroke: #000000; stroke-opacity: 0.5; stroke-width: 0.8"/>
     </g>
     <g id="line2d_20">
      <g>
       <use xlink:href="#mc654c66b78" x="38.502813" y="236.342589" style="stroke: #000000; stroke-width: 0.8"/>
      </g>
     </g>
     <g id="text_11">
      <!-- −30 -->
      <g transform="translate(10.398125 240.141807) scale(0.1 -0.1)">
       <use xlink:href="#DejaVuSans-2212"/>
       <use xlink:href="#DejaVuSans-33" x="83.789062"/>
       <use xlink:href="#DejaVuSans-30" x="147.412109"/>
      </g>
     </g>
    </g>
    <g id="ytick_3">
     <g id="line2d_21">
      <path d="M 38.502813 199.836191 
L 596.502813 199.836191 
" clip-path="url(#p04985c9e20)" style="fill: none; stroke-dasharray: 0.8,1.32; stroke-dashoffset: 0; stroke: #000000; stroke-opacity: 0.5; stroke-width: 0.8"/>
     </g>
     <g id="line2d_22">
      <g>
       <use xlink:href="#mc654c66b78" x="38.502813" y="199.836191" style="stroke: #000000; stroke-width: 0.8"/>
      </g>
     </g>
     <g id="text_12">
      <!-- −25 -->
      <g transform="translate(10.398125 203.63541) scale(0.1 -0.1)">
       <use xlink:href="#DejaVuSans-2212"/>
       <use xlink:href="#DejaVuSans-32" x="83.789062"/>
       <use xlink:href="#DejaVuSans-35" x="147.412109"/>
      </g>
     </g>
    </g>
    <g id="ytick_4">
     <g id="line2d_23">
      <path d="M 38.502813 163.329794 
L 596.502813 163.329794 
" clip-path="url(#p04985c9e20)" style="fill: none; stroke-dasharray: 0.8,1.32; stroke-dashoffset: 0; stroke: #000000; stroke-opacity: 0.5; stroke-width: 0.8"/>
     </g>
     <g id="line2d_24">
      <g>
       <use xlink:href="#mc654c66b78" x="38.502813" y="163.329794" style="stroke: #000000; stroke-width: 0.8"/>
      </g>
     </g>
     <g id="text_13">
      <!-- −20 -->
      <g transform="translate(10.398125 167.129013) scale(0.1 -0.1)">
       <use xlink:href="#DejaVuSans-2212"/>
       <use xlink:href="#DejaVuSans-32" x="83.789062"/>
       <use xlink:href="#DejaVuSans-30" x="147.412109"/>
      </g>
     </g>
    </g>
    <g id="ytick_5">
     <g id="line2d_25">
      <path d="M 38.502813 126.823397 
L 596.502813 126.823397 
" clip-path="url(#p04985c9e20)" style="fill: none; stroke-dasharray: 0.8,1.32; stroke-dashoffset: 0; stroke: #000000; stroke-opacity: 0.5; stroke-width: 0.8"/>
     </g>
     <g id="line2d_26">
      <g>
       <use xlink:href="#mc654c66b78" x="38.502813" y="126.823397" style="stroke: #000000; stroke-width: 0.8"/>
      </g>
     </g>
     <g id="text_14">
      <!-- −15 -->
      <g transform="translate(10.398125 130.622616) scale(0.1 -0.1)">
       <use xlink:href="#DejaVuSans-2212"/>
       <use xlink:href="#DejaVuSans-31" x="83.789062"/>
       <use xlink:href="#DejaVuSans-35" x="147.412109"/>
      </g>
     </g>
    </g>
    <g id="ytick_6">
     <g id="line2d_27">
      <path d="M 38.502813 90.317 
L 596.502813 90.317 
" clip-path="url(#p04985c9e20)" style="fill: none; stroke-dasharray: 0.8,1.32; stroke-dashoffset: 0; stroke: #000000; stroke-opacity: 0.5; stroke-width: 0.8"/>
     </g>
     <g id="line2d_28">
      <g>
       <use xlink:href="#mc654c66b78" x="38.502813" y="90.317" style="stroke: #000000; stroke-width: 0.8"/>
      </g>
     </g>
     <g id="text_15">
      <!-- −10 -->
      <g transform="translate(10.398125 94.116219) scale(0.1 -0.1)">
       <use xlink:href="#DejaVuSans-2212"/>
       <use xlink:href="#DejaVuSans-31" x="83.789062"/>
       <use xlink:href="#DejaVuSans-30" x="147.412109"/>
      </g>
     </g>
    </g>
    <g id="ytick_7">
     <g id="line2d_29">
      <path d="M 38.502813 53.810603 
L 596.502813 53.810603 
" clip-path="url(#p04985c9e20)" style="fill: none; stroke-dasharray: 0.8,1.32; stroke-dashoffset: 0; stroke: #000000; stroke-opacity: 0.5; stroke-width: 0.8"/>
     </g>
     <g id="line2d_30">
      <g>
       <use xlink:href="#mc654c66b78" x="38.502813" y="53.810603" style="stroke: #000000; stroke-width: 0.8"/>
      </g>
     </g>
     <g id="text_16">
      <!-- −5 -->
      <g transform="translate(16.760625 57.609822) scale(0.1 -0.1)">
       <use xlink:href="#DejaVuSans-2212"/>
       <use xlink:href="#DejaVuSans-35" x="83.789062"/>
      </g>
     </g>
    </g>
    <g id="ytick_8">
     <g id="line2d_31">
      <path d="M 38.502813 17.304206 
L 596.502813 17.304206 
" clip-path="url(#p04985c9e20)" style="fill: none; stroke-dasharray: 0.8,1.32; stroke-dashoffset: 0; stroke: #000000; stroke-opacity: 0.5; stroke-width: 0.8"/>
     </g>
     <g id="line2d_32">
      <g>
       <use xlink:href="#mc654c66b78" x="38.502813" y="17.304206" style="stroke: #000000; stroke-width: 0.8"/>
      </g>
     </g>
     <g id="text_17">
      <!-- 0 -->
      <g transform="translate(25.140313 21.103424) scale(0.1 -0.1)">
       <use xlink:href="#DejaVuSans-30"/>
      </g>
     </g>
    </g>
    <g id="text_18">
     <!-- Drehmoment [Nm] -->
     <g transform="translate(8.318438 186.465313) rotate(-90) scale(0.1 -0.1)">
      <defs>
       <path id="DejaVuSans-44" d="M 1259 4147 
L 1259 519 
L 2022 519 
Q 2988 519 3436 956 
Q 3884 1394 3884 2338 
Q 3884 3275 3436 3711 
Q 2988 4147 2022 4147 
L 1259 4147 
z
M 628 4666 
L 1925 4666 
Q 3281 4666 3915 4102 
Q 4550 3538 4550 2338 
Q 4550 1131 3912 565 
Q 3275 0 1925 0 
L 628 0 
L 628 4666 
z
" transform="scale(0.015625)"/>
       <path id="DejaVuSans-72" d="M 2631 2963 
Q 2534 3019 2420 3045 
Q 2306 3072 2169 3072 
Q 1681 3072 1420 2755 
Q 1159 2438 1159 1844 
L 1159 0 
L 581 0 
L 581 3500 
L 1159 3500 
L 1159 2956 
Q 1341 3275 1631 3429 
Q 1922 3584 2338 3584 
Q 2397 3584 2469 3576 
Q 2541 3569 2628 3553 
L 2631 2963 
z
" transform="scale(0.015625)"/>
       <path id="DejaVuSans-68" d="M 3513 2113 
L 3513 0 
L 2938 0 
L 2938 2094 
Q 2938 2591 2744 2837 
Q 2550 3084 2163 3084 
Q 1697 3084 1428 2787 
Q 1159 2491 1159 1978 
L 1159 0 
L 581 0 
L 581 4863 
L 1159 4863 
L 1159 2956 
Q 1366 3272 1645 3428 
Q 1925 3584 2291 3584 
Q 2894 3584 3203 3211 
Q 3513 2838 3513 2113 
z
" transform="scale(0.015625)"/>
       <path id="DejaVuSans-6d" d="M 3328 2828 
Q 3544 3216 3844 3400 
Q 4144 3584 4550 3584 
Q 5097 3584 5394 3201 
Q 5691 2819 5691 2113 
L 5691 0 
L 5113 0 
L 5113 2094 
Q 5113 2597 4934 2840 
Q 4756 3084 4391 3084 
Q 3944 3084 3684 2787 
Q 3425 2491 3425 1978 
L 3425 0 
L 2847 0 
L 2847 2094 
Q 2847 2600 2669 2842 
Q 2491 3084 2119 3084 
Q 1678 3084 1418 2786 
Q 1159 2488 1159 1978 
L 1159 0 
L 581 0 
L 581 3500 
L 1159 3500 
L 1159 2956 
Q 1356 3278 1631 3431 
Q 1906 3584 2284 3584 
Q 2666 3584 2933 3390 
Q 3200 3197 3328 2828 
z
" transform="scale(0.015625)"/>
       <path id="DejaVuSans-6f" d="M 1959 3097 
Q 1497 3097 1228 2736 
Q 959 2375 959 1747 
Q 959 1119 1226 758 
Q 1494 397 1959 397 
Q 2419 397 2687 759 
Q 2956 1122 2956 1747 
Q 2956 2369 2687 2733 
Q 2419 3097 1959 3097 
z
M 1959 3584 
Q 2709 3584 3137 3096 
Q 3566 2609 3566 1747 
Q 3566 888 3137 398 
Q 2709 -91 1959 -91 
Q 1206 -91 779 398 
Q 353 888 353 1747 
Q 353 2609 779 3096 
Q 1206 3584 1959 3584 
z
" transform="scale(0.015625)"/>
       <path id="DejaVuSans-6e" d="M 3513 2113 
L 3513 0 
L 2938 0 
L 2938 2094 
Q 2938 2591 2744 2837 
Q 2550 3084 2163 3084 
Q 1697 3084 1428 2787 
Q 1159 2491 1159 1978 
L 1159 0 
L 581 0 
L 581 3500 
L 1159 3500 
L 1159 2956 
Q 1366 3272 1645 3428 
Q 1925 3584 2291 3584 
Q 2894 3584 3203 3211 
Q 3513 2838 3513 2113 
z
" transform="scale(0.015625)"/>
       <path id="DejaVuSans-4e" d="M 628 4666 
L 1478 4666 
L 3547 763 
L 3547 4666 
L 4159 4666 
L 4159 0 
L 3309 0 
L 1241 3903 
L 1241 0 
L 628 0 
L 628 4666 
z
" transform="scale(0.015625)"/>
      </defs>
      <use xlink:href="#DejaVuSans-44"/>
      <use xlink:href="#DejaVuSans-72" x="77.001953"/>
      <use xlink:href="#DejaVuSans-65" x="115.865234"/>
      <use xlink:href="#DejaVuSans-68" x="177.388672"/>
      <use xlink:href="#DejaVuSans-6d" x="240.767578"/>
      <use xlink:href="#DejaVuSans-6f" x="338.179688"/>
      <use xlink:href="#DejaVuSans-6d" x="399.361328"/>
      <use xlink:href="#DejaVuSans-65" x="496.773438"/>
      <use xlink:href="#DejaVuSans-6e" x="558.296875"/>
      <use xlink:href="#DejaVuSans-74" x="621.675781"/>
      <use xlink:href="#DejaVuSans-20" x="660.884766"/>
      <use xlink:href="#DejaVuSans-5b" x="692.671875"/>
      <use xlink:href="#DejaVuSans-4e" x="731.685547"/>
      <use xlink:href="#DejaVuSans-6d" x="806.490234"/>
      <use xlink:href="#DejaVuSans-5d" x="903.902344"/>
     </g>
    </g>
   </g>
   <g id="line2d_33">
    <path d="M 38.502813 116.588231 
L 223.732051 116.681841 
L 224.048213 117.32109 
L 225.274355 124.251847 
L 225.75103 124.868507 
L 226.226817 124.7037 
L 226.525541 124.444084 
L 226.707352 123.637268 
L 227.004147 123.139718 
L 227.184451 123.440648 
L 227.422827 123.068235 
L 227.479239 123.589489 
L 227.717393 122.760022 
L 227.956897 122.337507 
L 228.194151 123.137665 
L 228.730952 122.209394 
L 228.972776 122.83898 
L 229.211707 123.058785 
L 229.507621 123.554838 
L 229.998628 123.591902 
L 230.173069 125.08127 
L 230.705939 122.638101 
L 230.945101 124.556922 
L 231.242363 122.544606 
L 231.630147 122.062493 
L 231.663719 121.040744 
L 232.136825 122.988642 
L 232.316057 125.46716 
L 232.434509 121.967148 
L 232.915984 123.498855 
L 233.208451 125.608179 
L 233.387885 122.487432 
L 233.864567 124.988649 
L 234.163673 120.608285 
L 234.459871 124.16181 
L 234.638675 123.570727 
L 234.877477 121.805775 
L 235.11598 121.235316 
L 235.432665 122.755061 
L 235.72695 121.399206 
L 235.906757 124.084482 
L 236.084479 120.989821 
L 236.384217 120.239947 
L 236.621287 124.390805 
L 236.919839 124.779756 
L 237.157824 122.958658 
L 237.395703 125.881048 
L 237.695023 125.945989 
L 237.874902 120.872245 
L 238.290534 122.63916 
L 238.35076 122.122493 
L 238.589264 121.511471 
L 238.828455 119.599007 
L 239.065068 126.223595 
L 239.305311 125.877969 
L 239.549082 124.507272 
L 239.840779 126.837875 
L 240.023237 120.461245 
L 240.317181 123.487655 
L 240.614551 123.93155 
L 240.793797 127.05273 
L 241.151839 121.410809 
L 241.389884 122.432918 
L 241.569338 124.503045 
L 242.044896 121.09874 
L 242.344062 123.194372 
L 242.641746 123.334468 
L 242.939843 124.496654 
L 243.118815 120.454729 
L 243.41606 118.569277 
L 243.539421 122.095584 
L 243.836562 121.322938 
L 244.071675 121.202673 
L 244.531837 123.343092 
L 244.760099 121.113301 
L 245.503869 125.477463 
L 245.741822 126.133425 
L 246.202726 122.708002 
L 246.337942 114.827224 
L 246.460816 117.345814 
L 246.754794 125.770016 
L 246.994239 119.707349 
L 247.232263 117.582958 
L 247.469526 127.1962 
L 247.708076 122.273079 
L 248.125328 117.441951 
L 248.363697 119.359258 
L 248.543255 117.213224 
L 248.848689 128.833581 
L 249.020847 118.513425 
L 249.218981 122.413577 
L 249.530817 121.233739 
L 249.796994 122.72512 
L 249.91722 121.087205 
L 250.176782 120.58369 
L 250.454559 123.777392 
L 250.69308 123.217116 
L 250.990238 122.928018 
L 251.171156 125.107593 
L 251.466717 123.893657 
L 251.705896 126.292134 
L 252.243865 124.739435 
L 252.425758 128.150984 
L 253.137428 121.745964 
L 253.437262 126.118566 
L 253.732822 123.642468 
L 253.912799 125.046403 
L 254.151034 121.927963 
L 254.390353 114.000444 
L 254.866171 129.919367 
L 255.283195 110.960543 
L 255.702331 123.20817 
L 255.879236 123.432872 
L 256.118256 117.273655 
L 256.357 118.65813 
L 256.596713 125.061382 
L 257.013573 126.686826 
L 257.134596 119.177222 
L 257.430682 122.205824 
L 257.61066 126.638037 
L 257.848051 121.575093 
L 258.20509 116.978504 
L 258.445132 125.736799 
L 258.859825 113.090476 
L 259.730147 121.269906 
L 259.876027 129.13543 
L 260.173233 117.031644 
L 260.294447 121.080677 
L 260.591149 125.450285 
L 260.949329 138.900597 
L 261.322962 120.37207 
L 261.602805 115.78125 
L 261.975746 120.876593 
L 262.086563 120.421411 
L 262.328785 116.780172 
L 262.55622 120.07143 
L 262.794199 121.043683 
L 263.151773 111.529177 
L 263.330837 119.006839 
L 263.7477 128.20942 
L 263.866901 123.248221 
L 264.105397 125.3034 
L 264.285849 113.440921 
L 264.643203 125.806558 
L 264.881961 123.623293 
L 265.058864 124.965563 
L 265.299527 122.300844 
L 265.714773 111.802182 
L 265.955612 113.90197 
L 266.252174 122.64063 
L 266.48981 120.032836 
L 266.788459 120.565708 
L 267.09442 120.426299 
L 267.324829 117.726737 
L 267.563622 127.51319 
L 267.759853 121.235286 
L 268.099501 119.013413 
L 268.338011 115.850167 
L 268.756773 120.518129 
L 269.017167 118.737213 
L 269.233644 112.409586 
L 269.530633 111.340456 
L 269.887378 114.447087 
L 270.125731 114.21954 
L 270.245132 120.363364 
L 270.661966 120.818203 
L 270.723 118.873577 
L 270.960397 116.138099 
L 271.318588 113.780785 
L 271.561653 122.296721 
L 271.735812 113.020495 
L 271.975033 122.515688 
L 272.454512 112.852373 
L 272.689423 125.819852 
L 272.927961 109.955177 
L 273.17533 112.117622 
L 273.643316 119.15668 
L 273.969451 121.395513 
L 274.219372 121.684136 
L 274.658263 116.437069 
L 274.845561 118.892708 
L 275.037647 119.042083 
L 275.313574 122.604623 
L 275.437851 114.352498 
L 275.791628 115.007648 
L 275.91339 119.866022 
L 276.20821 122.538434 
L 276.393789 111.720661 
L 276.812326 118.684944 
L 277.049078 107.995643 
L 277.162083 116.610919 
L 277.590469 120.756517 
L 277.779075 112.448239 
L 277.939041 124.981326 
L 278.12053 126.644937 
L 278.475781 108.964081 
L 278.624491 116.688874 
L 278.955747 113.140165 
L 279.193852 114.065427 
L 279.431173 125.042007 
L 279.612332 108.06418 
L 279.907556 119.811316 
L 280.086959 118.434854 
L 280.384925 127.497032 
L 280.623809 116.448562 
L 280.980465 117.413291 
L 281.1601 119.605645 
L 281.457142 114.344751 
L 281.594071 108.300646 
L 281.873928 122.010306 
L 282.056615 110.583531 
L 282.113657 120.068481 
L 282.351481 116.279378 
L 282.533731 119.07729 
L 282.828435 118.266619 
L 283.068365 119.528758 
L 283.306338 117.437827 
L 283.66432 130.908595 
L 283.961917 117.449495 
L 284.088847 105.329223 
L 284.319934 116.564718 
L 284.563335 122.808633 
L 284.856401 123.486785 
L 285.034625 109.777702 
L 285.276257 116.801407 
L 285.690436 118.236708 
L 285.810779 119.549035 
L 286.048783 127.141461 
L 286.292195 121.922921 
L 286.526687 110.326904 
L 286.769413 112.047455 
L 287.007247 103.212382 
L 287.262421 119.202423 
L 287.484106 110.213456 
L 287.84259 117.457882 
L 288.024509 127.707959 
L 288.259375 118.927578 
L 288.497522 123.977573 
L 288.736219 123.595402 
L 289.035046 116.583801 
L 289.24077 115.256097 
L 289.455069 123.370467 
L 289.811148 121.704847 
L 290.227704 131.742785 
L 290.347633 114.206477 
L 290.465879 128.354981 
L 290.883363 105.494801 
L 290.948755 126.718173 
L 291.225488 119.463431 
L 291.495528 107.291519 
L 291.679836 120.091966 
L 292.13465 100.997186 
L 292.194976 120.170048 
L 292.432576 121.330811 
L 292.969282 112.590664 
L 293.207555 112.667491 
L 293.504983 117.49994 
L 293.689059 113.896497 
L 293.924229 103.749667 
L 294.221147 102.862451 
L 294.466574 110.650174 
L 294.698997 100.511204 
L 294.878318 114.475351 
L 295.173661 110.457432 
L 295.4127 121.423083 
L 295.717231 123.904468 
L 295.948103 105.015501 
L 296.426372 118.617472 
L 296.607631 118.674825 
L 296.961851 115.494349 
L 297.152314 109.593647 
L 297.438974 120.058527 
L 297.620443 107.709276 
L 297.929888 116.366512 
L 298.095365 116.101457 
L 298.335465 117.972907 
L 298.632709 109.199016 
L 298.870236 116.276284 
L 299.108436 118.173767 
L 299.60655 118.35539 
L 299.827215 120.021029 
L 300.182774 108.336848 
L 300.361705 119.929203 
L 300.600166 110.553575 
L 300.854175 118.431341 
L 301.079765 109.109214 
L 301.494049 129.723449 
L 301.613328 118.198127 
L 301.911255 128.956961 
L 302.09056 112.599219 
L 302.626399 119.895134 
L 302.80676 125.937388 
L 303.043886 115.129868 
L 303.341324 116.154726 
L 303.54503 113.185528 
L 303.826118 118.34435 
L 304.119111 115.267303 
L 304.41641 113.459374 
L 304.595673 118.961587 
L 304.95287 115.538192 
L 305.252232 109.346159 
L 305.31073 113.128744 
L 305.548602 114.235253 
L 305.846457 111.840697 
L 306.02906 114.271424 
L 306.385283 113.370988 
L 306.562027 106.644828 
L 306.801509 109.624886 
L 306.996024 117.0424 
L 307.281744 115.267286 
L 308.067971 113.060556 
L 308.299126 110.094902 
L 308.537897 123.6212 
L 308.839248 112.833758 
L 309.086734 113.893644 
L 309.313549 111.158654 
L 309.455479 113.221967 
L 309.930311 109.264554 
L 310.28921 117.691981 
L 310.527271 106.537266 
L 310.708003 121.255721 
L 311.063774 116.991875 
L 311.611583 124.553169 
L 311.781527 109.075376 
L 312.017687 111.493826 
L 312.375319 122.989242 
L 312.501747 113.37032 
L 312.732977 114.401077 
L 313.090224 115.335608 
L 313.212638 0.72 
L 313.805492 15.597942 
L 314.235778 88.802555 
L 314.58015 91.010153 
L 314.701814 105.231991 
L 314.938888 114.907678 
L 315.237717 116.777737 
L 315.682591 121.160346 
L 316.016983 120.88618 
L 316.33419 119.15205 
L 316.452034 134.765266 
L 316.695304 122.332427 
L 316.995565 128.846918 
L 317.110027 117.561624 
L 317.410895 121.163323 
L 317.763281 116.425652 
L 318.060545 116.497876 
L 318.180102 116.034638 
L 318.359189 113.615232 
L 318.718927 123.685092 
L 318.959086 123.28357 
L 319.49789 110.040775 
L 319.614865 115.791045 
L 319.910478 106.789894 
L 320.14826 115.192813 
L 320.624731 118.680366 
L 320.864807 116.578736 
L 321.102007 125.708639 
L 321.340325 119.259482 
L 321.584298 117.835248 
L 321.878065 128.147787 
L 322.357206 117.151927 
L 322.592008 115.671212 
L 322.840479 117.118702 
L 323.070052 116.287892 
L 323.310491 116.326917 
L 323.548541 109.257017 
L 323.963903 109.95404 
L 324.083748 117.868974 
L 324.50419 112.092928 
L 324.569671 122.039867 
L 324.802157 115.98549 
L 325.454334 116.693166 
L 325.633327 118.061274 
L 325.812051 115.861035 
L 326.051482 124.171043 
L 326.294583 122.435617 
L 326.530758 117.653241 
L 326.852363 120.910135 
L 327.242305 115.097833 
L 327.301953 118.134197 
L 327.540635 116.09548 
L 327.778986 116.700347 
L 328.020226 115.056939 
L 328.256505 116.329552 
L 328.495475 124.348682 
L 328.794246 111.7638 
L 329.171816 117.017789 
L 329.275333 112.845237 
L 329.508337 109.296094 
L 329.745474 121.596174 
L 330.162941 116.431182 
L 330.282264 116.573765 
L 330.580948 116.683488 
L 330.761294 112.296907 
L 331.057073 115.758646 
L 331.312423 111.001194 
L 331.798258 119.020965 
L 332.018819 114.574941 
L 332.487919 115.812983 
L 332.725398 114.653582 
L 333.024265 116.604414 
L 333.267721 113.831656 
L 333.502737 112.901078 
L 333.741417 118.074502 
L 333.980504 116.086021 
L 334.226045 112.114809 
L 334.581092 120.615232 
L 335.022935 115.747268 
L 335.231468 116.041151 
L 335.709664 109.119028 
L 335.971918 111.331703 
L 336.184852 118.268308 
L 336.423478 118.740307 
L 336.663453 118.649886 
L 336.900926 114.414566 
L 337.317585 117.087046 
L 337.437428 119.11394 
L 337.736454 114.883671 
L 337.916816 116.580351 
L 338.161358 124.007888 
L 338.54477 112.193169 
L 338.658091 118.288321 
L 338.944233 116.514961 
L 338.991294 115.457706 
L 339.29103 124.165195 
L 339.410048 115.248354 
L 339.825811 116.305281 
L 339.945144 115.659883 
L 340.12328 116.558264 
L 340.421547 119.364263 
L 340.719728 110.605037 
L 340.898441 115.171722 
L 341.13678 116.830452 
L 341.375437 115.589628 
L 341.615004 118.761445 
L 341.917182 112.999337 
L 342.091832 112.829488 
L 342.390217 118.909225 
L 342.592547 117.21549 
L 342.865715 116.737741 
L 343.224194 110.30006 
L 343.364331 116.580675 
L 343.582206 116.580087 
L 343.819625 117.393736 
L 344.2367 116.00595 
L 344.355474 118.904469 
L 344.835051 114.153581 
L 345.073439 115.87407 
L 345.381281 114.855884 
L 345.609531 112.959808 
L 345.793405 120.791776 
L 346.084919 115.213198 
L 346.386542 115.264016 
L 346.623265 121.794723 
L 346.800697 113.159931 
L 347.046882 117.114852 
L 347.336523 118.667862 
L 347.633595 117.334472 
L 347.812551 115.432251 
L 348.051726 116.430999 
L 348.470912 117.419203 
L 348.531021 116.191485 
L 348.830156 116.36692 
L 349.025631 116.719786 
L 349.25029 112.931543 
L 349.603408 116.802234 
L 349.8421 116.631539 
L 350.139628 115.103719 
L 350.557034 126.157375 
L 350.855204 114.488427 
L 351.033535 115.239054 
L 351.272515 116.817965 
L 351.510253 124.410262 
L 351.86755 109.008656 
L 352.048182 117.657687 
L 352.34541 114.233331 
L 352.643325 117.475469 
L 352.763199 115.667313 
L 353.001631 109.793991 
L 353.358236 118.022514 
L 353.777296 117.128328 
L 354.192068 122.979102 
L 354.49016 112.673912 
L 354.729169 116.669515 
L 354.967142 115.855844 
L 355.26572 117.056488 
L 355.563366 116.580513 
L 355.691361 110.393307 
L 355.993376 116.54928 
L 356.230389 116.649697 
L 356.695564 109.879407 
L 357.11492 110.564656 
L 357.232346 118.450236 
L 357.414082 116.125751 
L 357.768024 117.110541 
L 358.067321 115.832495 
L 358.200121 113.892133 
L 358.619507 116.580328 
L 358.726755 113.220217 
L 358.964857 112.873589 
L 359.203431 117.507545 
L 359.448191 117.467394 
L 359.739861 116.467873 
L 359.918637 117.198925 
L 360.223373 114.739604 
L 360.464925 111.209228 
L 360.754514 123.04215 
L 360.876193 112.186402 
L 361.129106 115.868579 
L 361.415503 112.748469 
L 361.661674 116.848676 
L 361.887082 116.526404 
L 362.185637 115.233306 
L 362.424082 119.373081 
L 362.662654 117.014765 
L 362.950189 112.505148 
L 363.20353 124.178699 
L 363.423447 116.091143 
L 363.622003 117.532345 
L 363.916371 110.247333 
L 364.393153 116.34019 
L 364.630544 117.320186 
L 364.92917 115.49497 
L 365.107627 116.704809 
L 365.345698 115.532885 
L 365.643635 125.105139 
L 365.941582 117.078957 
L 366.120566 117.786212 
L 366.430486 110.435053 
L 366.661699 116.580541 
L 366.95586 116.580433 
L 367.137644 116.319197 
L 367.313284 115.476391 
L 367.613202 116.580257 
L 367.848153 113.237647 
L 368.164973 112.875175 
L 368.328014 118.073023 
L 368.629685 111.087933 
L 368.92628 116.611828 
L 369.113805 115.649484 
L 369.34484 116.164275 
L 369.529356 118.413876 
L 369.821758 118.115396 
L 370.240307 125.725121 
L 370.360723 114.251305 
L 370.778089 117.393853 
L 371.015218 116.032289 
L 371.312315 110.68245 
L 371.555098 115.523424 
L 371.789135 115.723846 
L 372.027824 117.032476 
L 372.325578 115.885797 
L 372.861574 111.738972 
L 373.397043 117.497574 
L 373.93445 110.03086 
L 373.993192 129.761293 
L 374.356468 117.645019 
L 374.64956 115.176727 
L 374.71244 115.81905 
L 375.080509 115.968094 
L 375.245909 117.235069 
L 375.486534 113.215823 
L 375.841426 117.126569 
L 376.021182 116.651196 
L 376.325316 113.520966 
L 376.501063 125.361138 
L 376.735908 117.595989 
L 377.275259 117.241189 
L 377.454122 109.114841 
L 377.691085 110.041301 
L 377.97089 117.830877 
L 378.467507 116.580406 
L 378.705786 116.681825 
L 379.003346 110.096703 
L 379.182787 116.746756 
L 379.541591 115.289809 
L 379.77876 120.536136 
L 379.957593 118.38039 
L 380.315476 117.548748 
L 380.43452 114.219419 
L 380.67377 114.606596 
L 380.971538 113.964069 
L 381.209422 116.917509 
L 381.566802 117.078782 
L 381.744983 116.044973 
L 382.170296 116.69077 
L 382.401177 119.345776 
L 382.640935 113.18344 
L 382.938268 118.012942 
L 383.116642 115.501717 
L 383.414778 117.046562 
L 383.653191 116.616626 
L 383.891272 111.549517 
L 384.130172 117.203334 
L 384.36784 118.213982 
L 385.141968 110.204375 
L 385.442062 116.314854 
L 385.737779 117.135747 
L 385.982328 121.507506 
L 386.154941 111.268342 
L 386.572481 116.752877 
L 386.633083 116.199946 
L 386.871953 115.744898 
L 387.288124 116.685437 
L 387.408358 108.960465 
L 387.704159 121.73713 
L 387.883735 116.041438 
L 388.12156 116.266319 
L 388.360572 110.607646 
L 388.83674 116.76191 
L 389.078696 117.65567 
L 389.373409 116.17346 
L 389.673069 116.645959 
L 389.731908 117.03726 
L 389.85151 116.580733 
L 390.209139 116.579784 
L 390.327434 113.451769 
L 390.566718 117.607568 
L 390.866233 125.716151 
L 391.578394 116.856617 
L 391.956832 116.79477 
L 392.061414 116.035328 
L 392.294363 120.042127 
L 392.534085 111.412287 
L 392.832412 114.973552 
L 393.014287 117.259429 
L 393.427847 110.569225 
L 393.65145 121.271317 
L 393.785792 117.522669 
L 394.023607 117.507589 
L 394.261973 116.979778 
L 394.507191 117.162244 
L 394.798172 117.69117 
L 395.156539 115.04351 
L 395.275553 111.391154 
L 395.574048 114.529703 
L 395.817442 115.384022 
L 396.050757 113.36838 
L 396.289007 115.622617 
L 396.468688 115.96723 
L 396.709418 117.303058 
L 397.006497 117.846016 
L 397.24286 117.2073 
L 397.480824 112.145328 
L 397.839129 116.716825 
L 398.01748 114.768481 
L 398.255879 116.017147 
L 398.493969 110.665343 
L 398.732782 116.680541 
L 399.032184 117.074762 
L 399.38968 115.105221 
L 399.629341 114.886003 
L 399.867123 123.466777 
L 399.986143 112.187247 
L 400.464749 118.133322 
L 400.710246 113.698664 
L 401.000306 112.223449 
L 401.240795 117.532806 
L 401.476641 118.218073 
L 401.775515 115.837486 
L 401.955105 117.326039 
L 402.253688 125.061116 
L 402.431344 112.928146 
L 402.669635 117.109962 
L 402.908526 116.496483 
L 403.206332 114.789927 
L 403.397622 122.724551 
L 403.633589 116.906923 
L 403.922551 115.543141 
L 404.402506 117.944879 
L 404.641312 114.372505 
L 404.947887 123.952508 
L 405.175669 116.120986 
L 405.385104 117.726684 
L 405.65268 118.628013 
L 405.894417 124.937417 
L 406.132636 117.338713 
L 406.426561 117.566803 
L 406.667313 114.975957 
L 406.963223 116.085625 
L 407.144113 126.555128 
L 407.380891 125.1364 
L 407.619993 115.519952 
L 407.860801 116.293108 
L 408.217822 113.755089 
L 408.398363 126.258603 
L 408.636507 116.698911 
L 408.917998 116.458406 
L 409.234688 117.887388 
L 409.470635 112.232086 
L 409.589722 123.815049 
L 409.829013 124.693386 
L 410.126347 115.567805 
L 410.42592 115.986976 
L 410.606015 118.542782 
L 410.844374 114.202592 
L 411.143152 116.448228 
L 411.320402 115.708514 
L 411.619643 115.928874 
L 411.857209 118.837684 
L 412.096215 109.900126 
L 412.512689 116.580316 
L 412.58546 115.521278 
L 412.87158 116.841951 
L 413.062343 119.52292 
L 413.456757 111.942853 
L 413.584819 118.885877 
L 413.81476 116.65226 
L 414.11483 115.631508 
L 414.472681 115.907158 
L 414.533583 110.541355 
L 414.830286 118.035197 
L 415.068038 117.846769 
L 415.309724 116.978689 
L 415.559664 116.579799 
L 415.96323 118.012421 
L 416.023198 117.493893 
L 416.321581 118.21405 
L 416.563927 116.393392 
L 416.805148 120.090878 
L 417.002271 114.153392 
L 417.276707 120.082798 
L 417.756951 116.11781 
L 418.054464 115.353796 
L 418.471725 116.749231 
L 418.530943 116.037158 
L 418.770431 118.881308 
L 419.126668 117.086606 
L 419.305279 112.27787 
L 419.487583 112.460603 
L 419.724077 111.380127 
L 419.962564 116.188932 
L 420.281437 116.618406 
L 420.501517 115.965364 
L 420.738015 121.441566 
L 420.975057 116.25802 
L 421.214128 116.97622 
L 421.512226 116.235629 
L 421.693249 117.619374 
L 422.225812 119.039099 
L 422.234324 61.425824 
L 422.468961 117.415392 
L 422.825214 110.987808 
L 423.004989 113.227482 
L 423.252127 113.445809 
L 423.484338 117.326643 
L 423.840978 117.465115 
L 423.960579 112.796467 
L 424.145321 117.261467 
L 424.43705 118.487956 
L 424.675708 116.580945 
L 424.915208 117.009733 
L 425.155055 118.369606 
L 425.574673 125.735952 
L 425.629286 110.459079 
L 425.988437 116.284246 
L 426.172027 115.78223 
L 426.40654 116.636368 
L 426.64547 116.788316 
L 427.065099 116.445157 
L 427.190077 113.534451 
L 427.445399 117.237502 
L 427.659166 111.020054 
L 427.90644 111.773394 
L 427.958088 118.632461 
L 428.19698 121.485696 
L 428.436409 116.560824 
L 428.619145 118.52022 
L 428.8559 116.247223 
L 429.151322 116.50116 
L 429.628082 126.52308 
L 430.10485 109.254265 
L 430.344322 108.638393 
L 430.903823 116.763848 
L 431.121983 117.082179 
L 431.357652 145.690913 
L 431.597523 150.029422 
L 431.843497 137.647745 
L 432.095657 132.931391 
L 432.328044 132.677362 
L 432.561897 131.588416 
L 432.821237 122.816634 
L 433.156978 119.472636 
L 433.594031 116.383495 
L 433.87843 118.20384 
L 434.121676 116.836048 
L 434.414608 116.090655 
L 434.534949 112.823251 
L 434.776173 113.373074 
L 435.198864 110.810911 
L 435.318081 117.34839 
L 435.54992 116.503128 
L 435.793016 114.551464 
L 436.163582 119.672873 
L 436.324342 118.653038 
L 436.627299 117.916642 
L 436.862153 116.699655 
L 437.100266 114.226191 
L 437.400723 120.637931 
L 437.640155 110.570809 
L 438.242412 123.443657 
L 438.507695 118.525774 
L 438.778576 120.648829 
L 439.093849 116.22266 
L 439.259491 108.195333 
L 439.609454 115.02806 
L 439.813723 112.801623 
L 440.027646 116.394067 
L 440.326857 114.897645 
L 440.505242 119.647655 
L 440.743769 119.412841 
L 440.985603 119.475493 
L 441.360449 112.528185 
L 441.817555 116.792602 
L 441.996582 118.96555 
L 442.261655 114.404273 
L 442.476381 113.517535 
L 442.882088 118.339722 
L 443.119643 118.298532 
L 443.306995 120.959301 
L 443.537398 106.239124 
L 443.835364 120.994587 
L 444.01571 118.452174 
L 444.193965 117.585949 
L 444.670741 111.66636 
L 445.029606 121.982243 
L 445.21114 119.897144 
L 445.566243 112.541516 
L 445.69185 125.335181 
L 446.223006 115.135255 
L 446.46149 117.219111 
L 446.703529 113.338729 
L 447.182432 118.221813 
L 447.4174 117.261839 
L 447.656135 110.735578 
L 447.904892 117.51346 
L 448.138367 112.58402 
L 448.437338 119.353738 
L 448.625267 115.935712 
L 449.152725 116.532389 
L 449.392189 112.081125 
L 449.808343 118.2689 
L 449.89612 116.091183 
L 450.16705 120.939966 
L 450.46407 120.077813 
L 450.761942 115.491795 
L 450.94209 117.637004 
L 451.180519 110.448388 
L 451.425902 117.324706 
L 451.658653 116.756183 
L 452.077357 121.974055 
L 452.326715 114.303819 
L 452.613173 119.165627 
L 452.864845 117.027109 
L 453.098099 110.146347 
L 453.469682 116.364473 
L 453.632802 110.620197 
L 453.809319 120.093886 
L 454.134366 121.364985 
L 454.345201 109.305126 
L 454.765606 116.623372 
L 454.847127 113.79332 
L 455.071869 118.868618 
L 455.539853 113.909248 
L 455.961335 117.55446 
L 456.150748 122.696855 
L 456.566905 109.192337 
L 456.984034 117.035732 
L 457.044693 112.706007 
L 457.462645 118.704817 
L 457.700957 118.80048 
L 457.762486 118.221774 
L 458.176246 109.3443 
L 458.295734 120.156203 
L 458.535771 114.319402 
L 458.772737 117.877376 
L 459.18988 114.188811 
L 459.309275 117.117375 
L 459.548312 114.596721 
L 459.792529 115.340282 
L 459.846799 117.50539 
L 460.026983 113.848758 
L 460.264394 103.672931 
L 460.505547 118.474931 
L 460.801349 118.8945 
L 460.981197 116.353069 
L 461.300883 116.222849 
L 461.461133 119.585762 
L 461.759676 108.442102 
L 461.997667 118.452634 
L 462.240011 114.576423 
L 462.535859 119.815241 
L 462.954361 111.236762 
L 463.252644 118.756717 
L 463.439137 114.26521 
L 463.848593 114.073341 
L 463.995751 118.09465 
L 464.210024 116.090232 
L 464.468285 115.37137 
L 464.68398 115.87774 
L 464.923343 119.495008 
L 465.170704 118.149766 
L 465.469677 111.213894 
L 465.710789 116.937009 
L 466.009353 117.261472 
L 466.243917 117.281838 
L 466.483619 115.52775 
L 466.663185 119.823613 
L 466.961408 117.879866 
L 467.199234 118.16882 
L 467.597038 115.490135 
L 467.744427 118.944997 
L 467.921045 110.062842 
L 468.454257 118.858531 
L 468.761166 115.107411 
L 468.931187 118.916974 
L 469.179483 117.697765 
L 469.542461 119.054288 
L 469.64942 121.566929 
L 469.893371 122.039618 
L 470.128335 113.522126 
L 470.435389 112.499153 
L 470.683137 115.729948 
L 470.906718 112.612965 
L 471.143739 115.66878 
L 471.389817 111.363941 
L 471.682015 114.975248 
L 471.865224 120.360673 
L 472.16172 119.961669 
L 472.456786 116.793991 
L 472.636186 119.868007 
L 473.054076 113.44662 
L 473.400235 118.213033 
L 473.868197 114.165193 
L 474.170263 123.813276 
L 474.354868 111.099583 
L 474.645427 112.436485 
L 474.949827 117.75337 
L 475.125654 110.743167 
L 475.315542 112.549101 
L 475.601585 118.516764 
L 475.840459 115.998215 
L 476.079329 109.653091 
L 476.317061 109.773097 
L 476.555932 118.935298 
L 476.795462 106.718592 
L 477.212458 110.437111 
L 477.361592 123.748304 
L 477.749946 112.254073 
L 477.868828 119.683783 
L 478.107403 112.70546 
L 478.345862 120.631027 
L 478.643526 112.729999 
L 478.775738 116.92439 
L 479.035221 119.055998 
L 479.305237 109.604563 
L 479.600228 113.883281 
L 479.798874 111.441511 
L 480.01865 112.826862 
L 480.259337 121.461639 
L 480.639147 118.35356 
L 480.797255 119.769416 
L 481.032858 109.696087 
L 481.30086 117.418628 
L 481.594462 116.310794 
L 481.817167 116.483477 
L 482.112202 111.452291 
L 482.54011 121.303206 
L 482.796157 112.095756 
L 483.087039 117.323555 
L 483.208624 109.844187 
L 483.500877 117.22369 
L 483.799178 119.051804 
L 484.097273 116.132208 
L 484.216787 119.451526 
L 484.514676 115.39994 
L 484.761105 105.937015 
L 485.230884 118.815516 
L 485.470722 120.390423 
L 486.007356 113.440122 
L 486.247979 113.35046 
L 486.483328 115.77143 
L 486.721699 114.097657 
L 486.961225 117.327268 
L 487.206514 116.033669 
L 487.440359 116.303887 
L 487.677248 117.307619 
L 488.037454 113.840167 
L 488.214516 109.431019 
L 488.455338 117.511938 
L 488.751713 113.570069 
L 489.288177 116.552364 
L 489.540319 118.795409 
L 489.706772 117.313553 
L 490.005091 118.968539 
L 490.242896 114.28892 
L 490.683853 118.169243 
L 490.899752 119.166894 
L 491.201618 118.050683 
L 491.494573 122.471618 
L 491.741352 115.092697 
L 491.913287 115.361615 
L 492.154206 117.768182 
L 492.390345 114.131229 
L 492.705805 119.609093 
L 492.884784 118.304548 
L 493.122928 122.871776 
L 493.601015 123.075787 
L 493.66099 116.093063 
L 493.95881 122.073711 
L 494.141209 118.195524 
L 494.380638 116.291318 
L 494.614303 116.293924 
L 494.912142 112.470657 
L 495.092642 106.869653 
L 495.391562 116.428958 
L 495.688062 114.716262 
L 495.866611 117.3461 
L 496.169394 116.380806 
L 496.407336 118.967634 
L 496.644163 107.851891 
L 496.931081 114.419625 
L 497.122047 116.133425 
L 497.32743 112.63348 
L 497.602808 114.501277 
L 497.947291 120.345813 
L 498.144884 115.078315 
L 498.384535 112.867535 
L 498.621652 115.218301 
L 498.860584 107.070481 
L 499.099563 114.538454 
L 499.337413 118.269812 
L 499.576371 114.454817 
L 499.817608 114.376088 
L 500.113488 109.254885 
L 500.293182 116.653144 
L 500.609204 116.612981 
L 500.650281 120.256918 
L 500.829084 122.611577 
L 501.130331 107.997357 
L 501.425955 117.956828 
L 501.604394 117.529629 
L 502.085048 114.193732 
L 502.142852 109.01083 
L 502.321119 114.07766 
L 502.565805 117.798204 
L 503.051282 116.272137 
L 503.27591 120.397921 
L 503.515493 111.69234 
L 503.872555 111.837083 
L 504.051407 119.627524 
L 504.229888 112.338156 
L 504.650095 120.837732 
L 504.707569 112.067415 
L 505.069486 113.869148 
L 505.311707 110.662875 
L 505.547959 115.591346 
L 505.78225 115.509596 
L 506.020268 116.561028 
L 506.266043 122.178876 
L 506.569872 112.623823 
L 506.746757 116.677116 
L 506.993307 116.908446 
L 507.231373 119.586523 
L 507.475334 114.594208 
L 507.708032 116.036079 
L 508.005894 108.778791 
L 508.190358 120.146594 
L 508.485193 107.558659 
L 508.787092 124.90263 
L 509.01986 106.713748 
L 509.275368 106.299004 
L 509.498512 124.638924 
L 509.921977 112.633334 
L 509.97473 118.377737 
L 510.21317 111.663983 
L 510.932276 119.813357 
L 511.427141 113.843431 
L 511.731757 116.583215 
L 511.94593 110.799125 
L 512.202575 116.198247 
L 512.42372 115.614753 
L 512.662927 110.118132 
L 512.902669 124.395392 
L 513.214663 108.268951 
L 513.619081 122.918484 
L 513.68035 116.010134 
L 513.915563 121.066303 
L 514.39837 114.56166 
L 514.571539 114.672678 
L 514.703169 119.765764 
L 514.890518 116.2523 
L 515.247869 121.452179 
L 515.468485 117.259404 
L 515.690172 118.416351 
L 515.918439 113.311543 
L 516.15758 112.715965 
L 516.400242 109.118506 
L 516.762513 121.530597 
L 516.922212 116.243825 
L 517.159528 119.158573 
L 517.51651 119.306226 
L 517.702683 114.90547 
L 517.878201 120.679347 
L 518.173168 124.080645 
L 518.480489 115.168937 
L 518.653123 114.405834 
L 518.951708 121.325877 
L 519.130101 115.466192 
L 519.388449 114.617887 
L 519.725267 118.102205 
L 519.86004 111.16588 
L 520.141772 108.617173 
L 520.439599 84.742606 
L 520.621899 97.297895 
L 520.859464 86.424772 
L 521.115203 98.594432 
L 521.39507 93.361621 
L 521.87368 104.839563 
L 522.117242 98.718971 
L 522.363738 111.943392 
L 522.827932 119.35954 
L 523.266623 119.525866 
L 523.497826 117.278709 
L 523.843711 119.685191 
L 524.131034 117.237881 
L 524.380779 117.305631 
L 524.857058 115.40538 
L 524.9168 115.960934 
L 525.275559 116.20848 
L 525.403427 115.370901 
L 525.814188 116.216296 
L 526.316015 116.562112 
L 526.428741 116.391059 
L 526.596989 116.568033 
L 528.686391 116.639301 
L 528.92995 116.933278 
L 529.284939 116.442699 
L 529.533417 116.581638 
L 531.621121 116.58803 
L 533.23581 116.513463 
L 533.470149 116.658842 
L 533.946454 116.591194 
L 534.720395 116.605346 
L 536.216386 116.591973 
L 545.716345 116.588463 
L 596.502813 116.588231 
L 596.502813 116.588231 
" clip-path="url(#p04985c9e20)" style="fill: none; stroke: #0000ff; stroke-opacity: 0.7; stroke-width: 1.5; stroke-linecap: square"/>
   </g>
   <g id="line2d_34">
    <path d="M 38.502813 136.973778 
L 38.622916 137.754502 
L 38.865804 137.032269 
L 38.937 136.356613 
L 39.111017 137.314941 
L 39.417061 137.050906 
L 39.707596 137.210137 
L 39.885883 137.11733 
L 40.302791 136.745184 
L 40.541846 137.318021 
L 40.601545 137.241377 
L 41.018884 137.051414 
L 41.559198 137.136549 
L 42.091503 136.968833 
L 42.329583 137.173757 
L 42.628872 137.602701 
L 42.928055 137.210576 
L 43.164095 137.800594 
L 43.477718 137.373217 
L 43.819883 137.893685 
L 44.060446 137.105327 
L 44.300935 137.32775 
L 44.599353 137.037584 
L 44.834047 137.536373 
L 45.07223 136.929795 
L 45.371049 136.846506 
L 45.669985 136.631102 
L 45.857012 137.359806 
L 46.174796 136.941814 
L 46.328887 137.107706 
L 46.567049 136.989902 
L 46.805772 137.374567 
L 47.224756 137.791091 
L 47.405507 137.103713 
L 47.521373 137.368536 
L 47.766181 136.898925 
L 48.003493 137.508222 
L 48.244165 137.250475 
L 48.536913 137.142946 
L 50.441813 136.931311 
L 53.050949 137.201145 
L 57.085405 136.711416 
L 58.50861 137.204577 
L 59.813793 136.963155 
L 60.191841 137.388115 
L 60.430319 137.440213 
L 60.669155 137.276721 
L 60.966191 136.413295 
L 61.265892 136.580805 
L 61.445302 137.507727 
L 61.681905 136.695282 
L 62.104406 137.389716 
L 62.404 136.108078 
L 62.638974 136.265435 
L 62.936269 137.076041 
L 63.11617 136.542797 
L 63.356366 136.217247 
L 63.652931 136.773074 
L 63.846691 136.383396 
L 64.130974 136.277363 
L 64.426649 136.966293 
L 64.72558 136.628948 
L 64.844761 137.108202 
L 65.083776 137.074915 
L 65.323835 135.768009 
L 65.636208 136.15509 
L 65.860257 137.192769 
L 66.108513 136.344834 
L 66.396826 136.374695 
L 66.578194 136.803833 
L 66.934528 135.464808 
L 67.112748 136.287491 
L 67.414376 136.725842 
L 67.588886 136.200497 
L 67.829178 136.630874 
L 68.125305 136.731823 
L 68.423426 136.071363 
L 68.602529 136.116491 
L 68.783671 136.000046 
L 69.32384 137.857304 
L 69.855516 136.029779 
L 70.095651 136.980803 
L 70.338534 137.058491 
L 70.523348 136.010714 
L 71.292681 137.955733 
L 71.589579 136.591947 
L 71.829525 136.371567 
L 72.070236 136.409141 
L 72.364771 137.350768 
L 72.604817 137.454956 
L 72.782636 137.027832 
L 73.442011 137.268265 
L 73.796233 136.591655 
L 74.034856 136.974047 
L 74.273425 137.581065 
L 74.512377 137.798275 
L 74.809776 136.997536 
L 75.10756 137.036898 
L 75.350039 137.382722 
L 75.716732 136.987845 
L 75.763801 137.30103 
L 76.479259 137.116604 
L 76.779836 135.986981 
L 77.014868 136.277947 
L 77.211656 137.348783 
L 77.731123 136.441493 
L 78.028409 137.36093 
L 78.208334 137.162034 
L 78.445703 136.399488 
L 78.984279 136.639925 
L 79.221395 137.43542 
L 79.699016 136.473332 
L 79.9365 136.940378 
L 80.296129 137.288163 
L 80.48719 136.221732 
L 80.712316 136.053919 
L 80.950854 137.424177 
L 81.192765 137.893036 
L 81.785318 136.770894 
L 81.913099 137.559859 
L 82.441028 135.970489 
L 82.859406 138.36861 
L 83.215747 138.021963 
L 83.394399 136.650942 
L 83.632494 136.829945 
L 83.872614 137.773263 
L 84.411018 136.430846 
L 84.706152 137.262721 
L 84.884266 138.261512 
L 85.123897 138.006268 
L 85.361288 137.062118 
L 85.600003 136.741297 
L 85.838773 136.683405 
L 86.207889 136.34057 
L 86.434523 136.648339 
L 86.893125 137.931625 
L 87.329041 135.971278 
L 87.627622 136.090626 
L 88.103508 138.313602 
L 88.40325 138.477831 
L 88.586765 137.959068 
L 89.536432 136.424218 
L 89.908761 136.766135 
L 90.081212 137.605791 
L 90.548537 137.334278 
L 90.668047 136.67385 
L 90.905672 136.482941 
L 91.144508 136.492648 
L 91.263784 136.766107 
L 91.801828 137.051832 
L 92.514883 136.549269 
L 92.754169 136.964584 
L 93.289814 138.652565 
L 93.489754 138.714104 
L 93.826284 137.827113 
L 94.004867 137.716319 
L 94.305329 138.581333 
L 94.541287 138.820862 
L 94.842115 137.907883 
L 95.019457 136.783336 
L 95.257497 136.389302 
L 95.89183 136.530865 
L 96.064357 136.530358 
L 96.573099 137.222144 
L 96.628852 137.012199 
L 96.69475 136.147348 
L 96.989749 136.01527 
L 97.48986 138.394735 
L 97.779913 138.113394 
L 98.202731 135.667988 
L 98.717529 136.707439 
L 99.025598 136.210073 
L 99.325453 136.335637 
L 99.58166 137.364188 
L 99.795665 137.657441 
L 100.391 136.550496 
L 100.526244 135.714737 
L 101.868401 137.065183 
L 103.165642 136.876934 
L 104.594361 136.91609 
L 104.673559 135.8349 
L 105.09155 138.536127 
L 105.454112 139.367917 
L 105.687883 139.320127 
L 106.305417 138.222055 
L 106.688645 139.067092 
L 106.855494 139.786397 
L 107.089968 139.950323 
L 107.387998 139.395254 
L 107.688168 137.993413 
L 107.864974 136.412586 
L 108.164534 135.261243 
L 108.347806 135.127442 
L 109.117895 137.612453 
L 109.477366 136.85059 
L 109.596272 135.616194 
L 109.892792 135.252765 
L 110.192261 136.172995 
L 110.554204 138.516803 
L 110.795086 139.016224 
L 111.052094 138.291032 
L 111.29097 137.082307 
L 111.577019 137.215099 
L 112.049728 138.714518 
L 112.289519 138.318338 
L 112.792567 136.111117 
L 113.325136 135.700908 
L 113.541144 136.348502 
L 113.788285 136.127249 
L 114.33146 134.434881 
L 114.540544 134.996732 
L 114.883064 136.473377 
L 115.036051 137.683237 
L 115.313819 137.597508 
L 115.937099 136.813945 
L 116.002065 136.374915 
L 116.216076 137.108053 
L 116.30385 137.913014 
L 116.475791 137.925847 
L 116.782905 137.608682 
L 117.249404 137.575279 
L 117.726095 137.016191 
L 118.206256 137.014118 
L 118.450471 136.865714 
L 118.928024 136.250477 
L 119.289499 136.60363 
L 119.523478 137.008479 
L 119.821194 135.979326 
L 119.945178 135.144601 
L 120.298612 135.726481 
L 120.606507 136.668701 
L 120.715903 136.357699 
L 120.9231 135.318798 
L 121.194101 135.462996 
L 121.671188 138.059552 
L 122.149815 137.372329 
L 122.624796 137.347959 
L 122.690525 136.721606 
L 122.935962 136.341908 
L 123.589311 138.112468 
L 123.69748 137.998335 
L 124.174029 135.831781 
L 124.35569 136.101468 
L 124.949134 136.122944 
L 125.13009 137.007619 
L 125.427231 137.674026 
L 125.665306 137.567412 
L 125.857602 136.780616 
L 126.147722 136.287673 
L 126.627668 137.219583 
L 127.101098 136.786254 
L 127.755155 137.14274 
L 127.874394 137.025056 
L 128.11266 136.596949 
L 128.470607 136.407961 
L 128.828251 136.559215 
L 129.423624 136.54279 
L 129.721296 136.423123 
L 130.080965 135.835773 
L 130.318908 135.938169 
L 130.795082 136.99827 
L 131.094146 137.214351 
L 131.570561 136.970163 
L 132.288655 137.944485 
L 132.778446 137.674557 
L 133.269134 136.222717 
L 133.599891 136.771743 
L 133.781243 137.752649 
L 134.048442 137.256162 
L 134.27389 135.982781 
L 134.511673 136.071266 
L 134.752536 137.284737 
L 134.988169 137.415829 
L 135.299799 136.463504 
L 135.524563 136.260306 
L 135.762344 137.280036 
L 136.061597 137.975855 
L 136.299914 137.433765 
L 136.537647 136.579104 
L 136.897409 137.036295 
L 137.144696 137.625124 
L 137.729921 136.634318 
L 138.237846 137.929251 
L 138.462756 137.788692 
L 138.821519 137.036009 
L 139.04073 137.026132 
L 139.518495 137.306607 
L 139.876343 137.433268 
L 139.996454 137.213509 
L 140.23413 137.186918 
L 140.475957 136.471322 
L 140.727123 135.30607 
L 141.011902 134.767118 
L 141.192054 135.951533 
L 141.74323 137.605096 
L 142.220316 135.892178 
L 142.460347 135.7571 
L 142.698106 136.371838 
L 142.935384 137.50492 
L 143.173957 138.020879 
L 143.471179 137.378276 
L 143.657606 136.056742 
L 144.128735 135.136983 
L 144.365665 135.672659 
L 144.426045 136.703349 
L 144.665021 137.438614 
L 144.902659 137.600265 
L 145.147247 136.957605 
L 145.379375 135.821072 
L 145.679051 135.660221 
L 146.042843 136.670145 
L 146.15371 137.503378 
L 146.451965 137.100357 
L 146.884804 134.805372 
L 147.11376 135.412956 
L 147.644895 137.326585 
L 147.88237 137.097786 
L 148.299554 136.388044 
L 148.41882 135.757975 
L 148.598417 136.151811 
L 149.076012 136.720099 
L 149.613249 136.219235 
L 150.029772 136.094538 
L 150.089694 136.967575 
L 150.565971 139.255136 
L 151.353883 138.04724 
L 151.703 139.267994 
L 151.876006 139.30334 
L 152.532825 135.960137 
L 152.832111 135.341992 
L 152.888581 135.38256 
L 153.188565 136.030412 
L 153.309231 137.292346 
L 153.54568 137.297281 
L 154.082528 135.349174 
L 154.617256 137.288833 
L 154.797409 137.589564 
L 155.03402 137.129733 
L 155.93189 134.70711 
L 156.288871 137.018717 
L 156.59785 137.927974 
L 157.244922 135.985987 
L 157.482632 136.354676 
L 157.720275 137.232237 
L 158.075811 138.100185 
L 158.493969 138.083523 
L 158.732951 136.262821 
L 159.028959 135.234948 
L 159.268997 135.648525 
L 159.984424 139.850191 
L 160.222772 139.47427 
L 160.639178 138.238218 
L 160.761288 137.312694 
L 161.002186 138.034421 
L 161.236001 139.143427 
L 161.473201 139.205075 
L 161.716034 138.14923 
L 162.430118 133.883529 
L 162.728429 134.73964 
L 162.970124 136.244011 
L 163.21208 137.031668 
L 163.449507 136.17939 
L 163.682554 134.871819 
L 163.922713 135.055377 
L 164.397251 137.222641 
L 164.755999 137.18133 
L 164.99298 136.935874 
L 165.410163 135.986945 
L 165.64954 136.378209 
L 165.889046 137.486071 
L 166.126682 138.018954 
L 166.482576 137.427815 
L 166.661225 136.648068 
L 167.197831 137.92817 
L 167.436563 137.879112 
L 168.152508 136.233422 
L 170.203109 137.009545 
L 170.598518 136.486914 
L 170.837969 136.524596 
L 171.432118 137.402727 
L 172.146868 136.848339 
L 172.569875 136.81177 
L 173.106348 137.766385 
L 173.339268 137.46829 
L 173.707388 136.528379 
L 174.158309 137.555329 
L 174.314587 136.676289 
L 174.535783 135.687267 
L 174.91395 135.979355 
L 175.073934 137.450222 
L 175.310543 138.070959 
L 175.787124 136.24215 
L 176.085682 136.506096 
L 176.323655 137.172965 
L 176.579702 136.512164 
L 176.922167 136.623108 
L 177.049623 137.872823 
L 177.336715 138.827635 
L 177.648399 138.551074 
L 177.755713 137.395866 
L 178.11115 136.651364 
L 178.352257 136.696026 
L 178.528778 137.062538 
L 179.02236 137.278512 
L 179.243954 137.552506 
L 180.199819 133.858029 
L 180.554724 136.400544 
L 180.764952 136.930405 
L 181.004126 136.089552 
L 181.237254 135.709606 
L 181.716775 136.374701 
L 181.952198 136.368388 
L 182.311857 136.568651 
L 182.856642 137.310481 
L 182.972183 137.116659 
L 183.468223 137.187111 
L 183.706024 136.857081 
L 184.008236 136.881622 
L 184.480842 137.640387 
L 184.866663 137.515416 
L 184.96201 136.787826 
L 185.214305 136.168127 
L 185.456212 136.146974 
L 185.79372 137.015731 
L 185.914024 138.063667 
L 186.210739 137.893583 
L 186.450096 136.835097 
L 186.688066 136.672718 
L 187.183426 138.151611 
L 188.475599 137.370908 
L 188.892101 137.452875 
L 189.131074 137.445167 
L 189.608368 137.545786 
L 189.845677 137.984196 
L 189.964926 138.469276 
L 190.203386 138.049212 
L 190.38336 136.6799 
L 190.679785 135.523349 
L 190.869436 135.763046 
L 191.396627 137.501187 
L 191.639823 136.705383 
L 192.117173 134.371872 
L 192.356479 134.652635 
L 192.83502 137.024198 
L 193.072666 137.079968 
L 193.31546 135.9378 
L 193.608741 135.105714 
L 193.905827 135.635666 
L 194.087116 136.689089 
L 194.441225 136.885344 
L 194.621423 136.838758 
L 194.919455 137.25276 
L 195.159734 136.941548 
L 195.574242 135.731815 
L 195.812728 136.936031 
L 196.050762 137.195587 
L 196.532194 135.512478 
L 196.824916 136.458502 
L 197.066503 136.737182 
L 197.302744 135.708584 
L 197.540668 135.814485 
L 197.783126 137.136847 
L 198.021222 137.479277 
L 198.278285 136.222812 
L 198.614978 136.118206 
L 198.857745 136.895428 
L 199.035959 136.014053 
L 199.328922 135.319084 
L 199.627167 136.256808 
L 199.755281 137.717427 
L 200.037406 137.385868 
L 200.288499 136.086557 
L 200.523074 136.065633 
L 200.76342 137.359489 
L 201.023906 137.068359 
L 201.252764 136.132652 
L 201.602062 136.469018 
L 201.781853 137.339036 
L 202.020372 137.690512 
L 202.734673 136.668648 
L 202.977069 136.784986 
L 203.271444 136.686405 
L 203.747339 137.003733 
L 204.462725 137.009078 
L 204.819721 137.331657 
L 205.180009 138.543623 
L 205.475165 138.112891 
L 205.723048 136.74225 
L 206.192034 136.541607 
L 206.452348 137.972305 
L 207.266495 134.833308 
L 207.443269 135.225416 
L 207.682274 136.184162 
L 207.922916 136.689857 
L 208.578156 137.145584 
L 208.935203 136.60388 
L 209.172823 136.65432 
L 209.600943 136.942897 
L 209.830821 137.497711 
L 209.950317 137.452665 
L 210.425683 135.609114 
L 211.140394 136.45786 
L 211.378598 136.930748 
L 211.677486 136.973956 
L 212.393738 134.352459 
L 212.631154 135.033424 
L 213.168289 137.910532 
L 213.405839 137.776527 
L 213.824739 136.187328 
L 214.121064 135.992714 
L 214.359272 136.473868 
L 214.837813 138.190852 
L 215.076049 138.230328 
L 215.37507 137.281361 
L 215.554742 135.652066 
L 215.851328 134.5945 
L 216.089667 134.695776 
L 216.389104 136.108614 
L 216.58001 137.80715 
L 216.811423 138.59302 
L 217.102957 137.921678 
L 217.877773 134.624133 
L 218.056338 134.775128 
L 218.294893 135.542313 
L 218.593264 135.995944 
L 218.776973 135.906267 
L 219.266031 135.40857 
L 219.30768 135.040795 
L 219.551399 135.101032 
L 220.04435 136.579796 
L 220.32987 136.762246 
L 220.8622 136.383015 
L 221.515496 137.071022 
L 221.99322 136.752911 
L 222.055181 136.12804 
L 222.530269 134.965391 
L 222.771536 135.169791 
L 223.248476 137.012571 
L 223.554257 136.778653 
L 223.732051 136.04004 
L 224.048213 135.516342 
L 224.498476 135.588678 
L 224.976617 135.8158 
L 225.274355 135.652933 
L 226.226817 131.059316 
L 227.004147 126.041673 
L 227.184451 125.591624 
L 227.479239 125.629467 
L 227.717393 125.777579 
L 227.956897 126.372949 
L 228.491933 125.698977 
L 228.730952 125.773325 
L 229.507621 128.704116 
L 229.86666 129.262809 
L 229.998628 129.25728 
L 230.408796 128.011636 
L 230.705939 127.851021 
L 231.242363 128.901789 
L 231.663719 129.323089 
L 232.136825 128.705096 
L 232.434509 127.498696 
L 232.915984 127.166648 
L 233.208451 127.759555 
L 233.387885 127.638497 
L 233.864567 126.745628 
L 234.163673 126.679669 
L 234.459871 126.926763 
L 234.877477 128.958234 
L 235.11598 130.238096 
L 235.432665 130.818857 
L 235.72695 130.557939 
L 235.906757 130.568527 
L 236.084479 130.317563 
L 236.384217 130.751242 
L 236.919839 132.151481 
L 237.395703 132.440132 
L 237.695023 132.203761 
L 237.874902 131.60675 
L 238.35076 131.258373 
L 238.589264 131.550235 
L 238.828455 131.101946 
L 239.065068 130.339069 
L 239.305311 129.020506 
L 239.549082 128.480714 
L 239.840779 128.162918 
L 240.023237 128.150689 
L 240.317181 128.968197 
L 240.614551 129.366024 
L 240.793797 130.427436 
L 241.151839 130.334392 
L 241.389884 130.742059 
L 241.569338 130.651468 
L 241.806632 130.823297 
L 242.044896 130.451401 
L 242.641746 128.814281 
L 243.118815 126.591599 
L 243.41606 125.43861 
L 243.539421 125.738412 
L 243.836562 125.734852 
L 244.253567 128.166686 
L 244.998784 129.772946 
L 245.503869 130.440158 
L 245.741822 131.371133 
L 246.202726 130.752947 
L 246.337942 130.336326 
L 246.460816 129.41503 
L 246.754794 128.627372 
L 247.232263 128.442389 
L 247.469526 129.337741 
L 247.708076 129.303839 
L 248.125328 128.941545 
L 248.363697 127.955623 
L 248.848689 128.624504 
L 249.218981 131.790981 
L 249.530817 132.478111 
L 249.796994 132.255166 
L 249.91722 130.791435 
L 250.69308 126.899725 
L 250.990238 126.968694 
L 251.171156 128.166801 
L 251.466717 128.515081 
L 251.705896 128.403261 
L 252.004037 128.410132 
L 252.243865 128.184754 
L 252.425758 128.981054 
L 252.66071 129.463331 
L 252.958474 130.519905 
L 253.137428 130.626043 
L 253.912799 129.129093 
L 254.151034 128.577064 
L 254.390353 127.721518 
L 255.283195 128.817326 
L 255.64118 128.889884 
L 255.702331 130.027505 
L 255.879236 130.18753 
L 256.596713 128.879947 
L 257.013573 127.805303 
L 257.134596 126.938389 
L 257.430682 125.775489 
L 257.61066 124.6159 
L 257.848051 124.35787 
L 258.20509 124.648626 
L 258.577231 126.513504 
L 258.859825 125.912264 
L 259.730147 125.291434 
L 260.173233 125.896737 
L 260.294447 125.887449 
L 260.949329 123.483171 
L 261.322962 123.189293 
L 261.602805 124.965767 
L 262.086563 125.64636 
L 262.55622 125.273968 
L 263.151773 125.556912 
L 263.330837 126.422294 
L 263.7477 126.228478 
L 264.643203 124.467935 
L 264.881961 124.747256 
L 265.299527 127.06814 
L 265.714773 126.04186 
L 265.955612 124.706944 
L 266.191948 122.740997 
L 266.252174 122.792785 
L 266.48981 122.47225 
L 266.788459 122.840915 
L 267.563622 125.722517 
L 268.099501 123.595412 
L 268.338011 122.988883 
L 268.532791 123.602369 
L 269.233644 127.342308 
L 269.530633 126.372647 
L 269.887378 124.622785 
L 270.245132 122.447686 
L 270.661966 121.893236 
L 270.723 124.18861 
L 270.960397 125.250597 
L 271.318588 124.93926 
L 271.735812 124.225222 
L 271.975033 124.243206 
L 272.273994 124.798915 
L 272.454512 126.941917 
L 272.689423 128.05872 
L 272.927961 128.121108 
L 273.969451 123.291802 
L 274.219372 123.789541 
L 274.658263 122.735148 
L 274.845561 122.97085 
L 275.313574 121.826178 
L 275.437851 122.16673 
L 275.791628 122.33424 
L 275.91339 124.2253 
L 276.20821 124.562425 
L 276.393789 125.206555 
L 276.812326 123.726542 
L 277.049078 123.40051 
L 277.162083 123.705207 
L 277.590469 123.478474 
L 277.779075 124.455739 
L 277.939041 125.907984 
L 278.12053 126.294913 
L 278.624491 124.344451 
L 278.955747 122.232588 
L 279.193852 121.543939 
L 279.431173 121.719135 
L 279.612332 122.36445 
L 280.623809 118.080814 
L 280.980465 118.195689 
L 281.1601 120.502766 
L 281.594071 123.78602 
L 281.873928 122.991017 
L 282.351481 120.397176 
L 282.533731 119.890768 
L 282.828435 119.814729 
L 283.306338 121.840637 
L 283.66432 121.406375 
L 284.319934 118.871961 
L 284.563335 119.297842 
L 284.856401 120.224804 
L 285.034625 121.354569 
L 285.276257 121.794123 
L 285.810779 119.664282 
L 286.048783 118.020632 
L 286.292195 117.975547 
L 286.769413 120.872738 
L 287.007247 121.297147 
L 287.484106 120.754968 
L 287.84259 119.465456 
L 288.259375 121.522502 
L 288.497522 121.97235 
L 288.736219 121.541173 
L 289.035046 120.377528 
L 289.24077 120.119107 
L 289.455069 119.668182 
L 290.227704 119.827789 
L 290.465879 121.469615 
L 290.948755 119.268749 
L 291.225488 118.544628 
L 291.495528 118.41761 
L 291.679836 119.932145 
L 292.13465 120.61903 
L 292.194976 122.501516 
L 292.432576 122.544671 
L 293.207555 117.921974 
L 293.504983 118.778441 
L 293.689059 121.109389 
L 293.924229 122.155124 
L 294.221147 121.826597 
L 294.698997 117.240452 
L 294.878318 115.371804 
L 295.173661 115.53219 
L 295.4127 117.872 
L 295.948103 119.913249 
L 296.19442 119.226138 
L 296.607631 116.098688 
L 296.961851 115.829833 
L 297.152314 117.697191 
L 297.438974 118.424199 
L 297.620443 118.306674 
L 298.335465 114.8228 
L 298.632709 115.080277 
L 299.108436 116.857372 
L 299.60655 116.376387 
L 299.827215 116.960164 
L 300.182774 116.537633 
L 300.600166 120.127611 
L 300.854175 120.645517 
L 301.911255 114.804372 
L 302.09056 114.896248 
L 302.447614 116.150475 
L 302.626399 118.27067 
L 302.80676 118.246718 
L 303.043886 117.53393 
L 303.54503 114.489012 
L 303.826118 114.23382 
L 304.595673 118.255895 
L 304.95287 116.857089 
L 305.31073 114.294093 
L 305.548602 113.688563 
L 305.846457 114.868112 
L 306.02906 117.568259 
L 306.385283 117.523453 
L 306.562027 116.838179 
L 307.281744 109.970135 
L 307.656728 110.637561 
L 308.299126 114.692514 
L 308.537897 114.162789 
L 308.839248 112.659133 
L 309.086734 113.127557 
L 309.313549 116.195339 
L 309.455479 120.495074 
L 309.930311 120.969904 
L 310.001814 121.575595 
L 310.28921 119.438454 
L 310.708003 114.694435 
L 311.063774 115.267553 
L 311.242711 118.273127 
L 311.611583 118.950504 
L 311.781527 119.020612 
L 312.017687 118.099301 
L 312.501747 114.249313 
L 313.090224 118.911077 
L 313.568273 140.898268 
L 314.235778 240.074467 
L 314.701814 259.927053 
L 314.938888 262.644798 
L 315.682591 277.92 
L 316.016983 261.520524 
L 316.33419 221.058574 
L 316.452034 178.341717 
L 316.695304 150.968591 
L 317.110027 127.667647 
L 317.410895 122.218802 
L 318.180102 100.838961 
L 319.194803 117.263702 
L 319.49789 118.943735 
L 319.614865 124.063078 
L 320.14826 137.058699 
L 320.328134 137.229288 
L 320.624731 130.445982 
L 321.102007 111.125035 
L 321.340325 107.860915 
L 321.584298 108.319928 
L 321.878065 109.238815 
L 322.117615 107.763195 
L 322.357206 104.21953 
L 322.592008 102.453484 
L 322.840479 105.459734 
L 323.548541 130.015082 
L 323.963903 133.118877 
L 324.083748 133.001578 
L 324.50419 131.47769 
L 324.569671 130.048658 
L 325.098086 125.885394 
L 325.454334 121.868913 
L 325.812051 113.822443 
L 326.051482 112.323875 
L 326.294583 112.662696 
L 327.242305 117.281567 
L 327.301953 119.678802 
L 327.778986 125.003841 
L 328.020226 126.070132 
L 328.256505 125.31847 
L 329.275333 116.433858 
L 329.745474 114.989172 
L 330.162941 114.688743 
L 330.282264 114.955171 
L 330.580948 116.491834 
L 331.312423 125.785237 
L 331.533689 128.369703 
L 331.798258 129.417186 
L 332.018819 129.664514 
L 332.248663 128.943326 
L 332.725398 125.27471 
L 333.741417 115.532535 
L 333.980504 114.500085 
L 334.226045 114.62424 
L 334.581092 115.736335 
L 335.022935 119.574728 
L 335.709664 128.127944 
L 336.184852 130.586972 
L 336.423478 130.635666 
L 336.663453 129.871437 
L 336.900926 128.315669 
L 337.317585 126.667302 
L 337.437428 124.412026 
L 337.736454 122.250331 
L 337.916816 120.049019 
L 338.161358 118.619447 
L 338.54477 118.735277 
L 338.658091 120.06255 
L 339.29103 124.418598 
L 339.410048 126.831002 
L 339.825811 129.168458 
L 339.945144 130.988173 
L 340.12328 131.750846 
L 340.421547 131.175308 
L 340.719728 129.763169 
L 342.091832 111.544182 
L 342.390217 110.204315 
L 342.592547 109.879318 
L 343.224194 114.60402 
L 343.582206 121.172509 
L 343.819625 124.028017 
L 344.2367 126.281923 
L 344.355474 127.705555 
L 344.654162 128.872188 
L 344.835051 129.060296 
L 345.073439 128.108701 
L 345.381281 125.979964 
L 345.793405 121.902481 
L 346.084919 121.24374 
L 346.623265 121.605328 
L 346.800697 121.842595 
L 347.046882 121.645998 
L 347.336523 121.865404 
L 347.633595 123.440965 
L 348.051726 127.652224 
L 348.470912 127.659308 
L 348.531021 125.850108 
L 349.25029 120.0869 
L 349.603408 120.204017 
L 349.8421 120.884066 
L 350.139628 120.957886 
L 350.557034 119.155872 
L 350.855204 119.322385 
L 351.86755 127.193346 
L 352.048182 127.977656 
L 352.34541 127.643945 
L 352.643325 126.550155 
L 352.763199 125.455871 
L 353.358236 125.930332 
L 353.656081 125.219987 
L 353.777296 124.016394 
L 354.192068 122.228351 
L 354.26785 120.323789 
L 354.49016 118.922211 
L 354.729169 118.415798 
L 354.967142 119.390253 
L 355.26572 121.180682 
L 355.691361 122.536557 
L 355.993376 122.458321 
L 356.230389 122.159872 
L 357.11492 121.612168 
L 357.414082 122.3327 
L 357.768024 121.537031 
L 358.200121 118.976957 
L 358.619507 119.913392 
L 358.726755 121.464072 
L 359.203431 123.617237 
L 359.448191 124.597228 
L 359.739861 125.280003 
L 359.918637 125.304696 
L 360.464925 124.352498 
L 360.754514 123.526242 
L 360.876193 122.433681 
L 361.129106 121.752717 
L 361.415503 121.942002 
L 361.661674 122.380107 
L 361.887082 122.018323 
L 362.424082 119.899757 
L 362.662654 121.102031 
L 363.20353 125.092403 
L 363.423447 125.182943 
L 363.622003 124.139831 
L 363.916371 123.269096 
L 364.298259 123.114863 
L 364.393153 123.475663 
L 364.630544 123.797603 
L 364.92917 123.257091 
L 365.345698 121.022639 
L 365.643635 121.237925 
L 366.120566 122.812232 
L 366.430486 122.773164 
L 366.661699 122.143836 
L 366.95586 122.268125 
L 367.137644 123.328383 
L 367.313284 125.087285 
L 367.613202 125.757102 
L 368.328014 123.667371 
L 368.92628 124.630692 
L 369.113805 124.11113 
L 369.821758 120.392482 
L 370.240307 120.751014 
L 370.716213 121.781328 
L 370.778089 122.489541 
L 371.015218 122.562752 
L 371.312315 122.487958 
L 371.555098 122.858266 
L 371.789135 122.960435 
L 372.027824 122.64466 
L 372.572937 121.128511 
L 372.861574 121.889266 
L 373.223258 121.848321 
L 373.518933 119.192894 
L 373.93445 119.644174 
L 373.993192 120.698449 
L 374.71244 124.725515 
L 375.080509 124.357535 
L 375.245909 123.215234 
L 375.486534 122.887237 
L 375.841426 123.884619 
L 376.021182 125.02985 
L 376.325316 125.261401 
L 376.735908 122.896701 
L 377.154139 122.144437 
L 377.275259 122.342298 
L 377.454122 123.513811 
L 377.691085 123.928817 
L 378.228234 122.635652 
L 378.467507 122.693589 
L 378.705786 123.208633 
L 379.003346 123.523531 
L 379.182787 123.440422 
L 379.541591 123.669193 
L 379.77876 124.050004 
L 379.957593 123.836219 
L 380.315476 124.019687 
L 380.43452 124.358876 
L 380.67377 123.722463 
L 381.209422 120.551524 
L 381.566802 120.984668 
L 381.744983 122.374079 
L 382.170296 123.18076 
L 382.401177 122.125347 
L 382.640935 121.919153 
L 382.938268 122.712564 
L 383.414778 126.297015 
L 383.653191 127.002273 
L 383.891272 126.225942 
L 384.36784 122.633532 
L 384.608478 122.021785 
L 385.024513 122.825811 
L 385.141968 123.73875 
L 385.442062 123.260845 
L 386.154941 120.625705 
L 386.572481 121.826891 
L 386.633083 123.513732 
L 386.871953 124.810764 
L 387.288124 125.058358 
L 387.408358 123.946356 
L 387.883735 121.985451 
L 388.657811 123.954022 
L 389.078696 121.752511 
L 389.373409 121.087393 
L 389.673069 121.401296 
L 389.85151 122.44631 
L 390.209139 123.758761 
L 390.327434 125.223117 
L 390.566718 125.602519 
L 391.283443 123.626826 
L 391.956832 122.653718 
L 392.061414 121.540506 
L 392.294363 120.838588 
L 392.832412 120.084122 
L 393.014287 120.283927 
L 393.427847 120.997405 
L 393.785792 122.043283 
L 394.261973 122.346141 
L 394.507191 122.764179 
L 395.156539 123.400203 
L 395.275553 123.682075 
L 395.574048 123.70864 
L 395.817442 123.062888 
L 396.289007 121.474094 
L 396.468688 121.115455 
L 396.709418 121.204266 
L 397.24286 121.60545 
L 398.01748 121.867806 
L 398.255879 122.964154 
L 399.032184 127.819894 
L 399.38968 128.562155 
L 399.629341 128.715355 
L 399.867123 128.393005 
L 400.224723 125.874058 
L 401.240795 120.614523 
L 401.476641 120.526536 
L 401.775515 121.121438 
L 402.669635 125.534756 
L 402.908526 125.7447 
L 403.162416 125.495135 
L 403.206332 125.139425 
L 403.397622 125.17694 
L 403.922551 124.506072 
L 404.947887 123.755448 
L 405.385104 122.56877 
L 405.65268 123.008723 
L 405.894417 123.853636 
L 406.132636 124.162499 
L 406.667313 124.601782 
L 406.963223 124.559537 
L 407.144113 124.682128 
L 407.380891 125.19589 
L 407.860801 127.258363 
L 408.217822 127.508814 
L 408.917998 124.828462 
L 409.470635 121.596805 
L 409.589722 120.080639 
L 409.829013 119.326212 
L 410.126347 119.330101 
L 410.42592 120.007011 
L 411.143152 122.909478 
L 411.320402 123.382022 
L 412.096215 123.580304 
L 412.512689 123.074531 
L 412.58546 122.476314 
L 412.87158 121.937718 
L 413.062343 121.88728 
L 413.456757 122.312434 
L 414.11483 126.371123 
L 414.472681 127.991322 
L 414.533583 129.459796 
L 414.830286 130.689602 
L 415.068038 130.704197 
L 415.309724 130.143644 
L 415.96323 127.538569 
L 416.023198 125.614288 
L 417.002271 119.421206 
L 417.276707 119.060272 
L 417.709181 119.843036 
L 417.756951 120.633339 
L 418.054464 120.909745 
L 418.471725 120.98569 
L 418.530943 121.462408 
L 419.487583 124.184734 
L 419.724077 124.450313 
L 419.962564 124.281544 
L 421.214128 122.540696 
L 421.512226 122.758011 
L 421.693249 123.462868 
L 422.225812 124.246905 
L 422.234324 124.239412 
L 422.468961 123.892394 
L 422.825214 123.644067 
L 423.004989 123.798651 
L 423.252127 124.194608 
L 423.484338 124.781937 
L 423.960579 125.29848 
L 424.145321 125.022833 
L 424.43705 124.85274 
L 424.915208 125.621196 
L 425.155055 126.009373 
L 425.574673 125.751512 
L 425.629286 125.241851 
L 426.40654 125.157384 
L 426.64547 125.433052 
L 427.065099 125.516262 
L 427.190077 125.193362 
L 427.445399 125.061407 
L 427.659166 125.369192 
L 428.19698 127.162462 
L 428.436409 127.413593 
L 428.619145 127.094341 
L 429.151322 125.376946 
L 429.39598 124.42625 
L 429.628082 123.98035 
L 429.867272 124.083691 
L 430.10485 124.366351 
L 430.344322 125.062711 
L 430.774626 125.885607 
L 431.357652 129.2092 
L 431.843497 130.927719 
L 432.095657 127.498149 
L 432.821237 102.407853 
L 433.463552 94.841877 
L 434.121676 90.254694 
L 434.414608 89.435425 
L 435.198864 109.138824 
L 435.318081 116.721854 
L 435.793016 126.082449 
L 436.324342 127.7033 
L 436.627299 127.628195 
L 437.100266 125.517081 
L 437.400723 125.049708 
L 437.947846 121.922826 
L 438.242412 117.39511 
L 438.507695 116.333211 
L 438.778576 116.375193 
L 439.093849 118.071697 
L 439.259491 121.026604 
L 439.813723 124.346599 
L 440.027646 124.461727 
L 440.326857 124.485452 
L 440.985603 126.578279 
L 441.360449 126.380478 
L 441.460589 125.170877 
L 441.817555 122.535934 
L 441.996582 120.374886 
L 442.261655 119.298395 
L 443.119643 121.182702 
L 443.306995 121.144172 
L 443.537398 120.376719 
L 443.835364 120.23007 
L 444.01571 120.868764 
L 444.193965 122.391101 
L 444.670741 124.01191 
L 444.792607 125.356254 
L 445.029606 125.036082 
L 445.69185 120.876777 
L 446.223006 120.005272 
L 446.46149 119.338874 
L 446.93948 117.387309 
L 447.182432 117.674834 
L 448.138367 123.29392 
L 448.437338 123.706354 
L 448.625267 123.389102 
L 448.91479 122.631198 
L 449.152725 121.211992 
L 450.16705 111.958858 
L 450.46407 111.202477 
L 450.761942 111.100955 
L 450.94209 111.293189 
L 451.180519 112.131843 
L 451.425902 113.866728 
L 451.839194 120.596192 
L 452.326715 126.141725 
L 452.613173 126.28688 
L 453.098099 123.158987 
L 453.809319 120.799448 
L 454.345201 119.884978 
L 454.847127 118.850963 
L 455.071869 119.710091 
L 455.539853 122.918502 
L 456.150748 123.635668 
L 456.387019 123.515427 
L 457.762486 118.020027 
L 458.176246 117.903044 
L 458.295734 118.745317 
L 458.535771 119.205377 
L 458.772737 119.054405 
L 459.18988 118.532083 
L 459.309275 118.580328 
L 460.264394 119.929071 
L 460.505547 119.564685 
L 461.300883 115.582389 
L 461.461133 114.492233 
L 461.759676 113.902393 
L 461.997667 113.827631 
L 462.954361 114.619005 
L 463.252644 116.008956 
L 463.439137 117.964737 
L 463.848593 119.52208 
L 463.995751 121.221435 
L 464.210024 122.365079 
L 464.468285 122.557586 
L 464.68398 122.537144 
L 464.923343 122.342869 
L 465.170704 121.681877 
L 465.469677 121.376086 
L 466.243917 123.360772 
L 466.483619 123.687157 
L 466.961408 122.698997 
L 467.199234 121.999368 
L 467.597038 121.762324 
L 467.744427 121.92295 
L 467.921045 121.856371 
L 468.311702 121.524204 
L 468.761166 120.569832 
L 469.542461 120.539279 
L 469.893371 122.960629 
L 470.435389 125.236827 
L 470.683137 125.604041 
L 471.143739 124.538156 
L 471.682015 124.032156 
L 471.865224 124.470519 
L 472.16172 124.410061 
L 472.456786 123.446911 
L 472.636186 121.983093 
L 473.054076 120.235797 
L 473.172886 118.382184 
L 473.400235 116.668731 
L 473.868197 115.426432 
L 474.170263 115.663766 
L 474.354868 116.022666 
L 474.949827 115.768722 
L 475.125654 116.471405 
L 475.840459 121.621621 
L 476.317061 125.107896 
L 476.555932 125.331311 
L 476.795462 125.128822 
L 477.361592 124.273816 
L 477.749946 124.338852 
L 478.107403 125.548434 
L 478.345862 126.048084 
L 478.643526 126.011833 
L 479.035221 125.191033 
L 479.305237 125.213371 
L 479.600228 125.66285 
L 480.01865 127.064344 
L 480.259337 127.255779 
L 480.639147 126.862538 
L 480.797255 126.469784 
L 481.30086 124.749295 
L 481.594462 124.892024 
L 482.112202 126.05083 
L 482.301583 127.110578 
L 482.54011 127.533671 
L 482.796157 127.222967 
L 483.087039 126.480563 
L 483.500877 126.896005 
L 483.799178 127.599232 
L 484.216787 129.372677 
L 484.514676 128.977689 
L 484.761105 128.224571 
L 485.230884 125.562743 
L 485.76882 123.086828 
L 486.483328 121.215373 
L 487.440359 115.446734 
L 487.677248 115.427207 
L 488.037454 116.076971 
L 488.214516 116.920733 
L 488.455338 117.126519 
L 488.751713 116.412475 
L 489.288177 113.544139 
L 489.540319 112.782592 
L 489.706772 113.08273 
L 490.242896 114.803248 
L 490.481391 115.500027 
L 490.683853 115.205516 
L 490.899752 114.187563 
L 491.201618 113.825633 
L 491.494573 113.793769 
L 491.741352 114.378961 
L 491.913287 115.498757 
L 492.154206 116.025066 
L 492.390345 115.988177 
L 492.705805 115.140525 
L 493.122928 112.191175 
L 493.601015 111.568782 
L 493.66099 112.193202 
L 493.95881 113.176138 
L 494.380638 116.521191 
L 494.614303 117.079676 
L 494.912142 116.925145 
L 495.092642 117.170995 
L 495.391562 117.92574 
L 495.688062 119.327284 
L 495.866611 121.290717 
L 496.407336 124.031053 
L 496.644163 124.202285 
L 496.931081 123.863473 
L 497.122047 123.28783 
L 497.32743 123.064206 
L 497.947291 123.89737 
L 498.144884 124.757334 
L 498.384535 125.235678 
L 498.621652 124.57848 
L 499.099563 122.101394 
L 499.337413 121.774392 
L 499.576371 122.383487 
L 500.113488 124.50549 
L 500.293182 125.188721 
L 500.650281 125.169791 
L 501.130331 124.226805 
L 501.425955 123.905566 
L 501.604394 123.941402 
L 502.085048 123.680126 
L 502.142852 123.982922 
L 502.321119 124.039426 
L 502.758604 122.510334 
L 503.051282 121.074903 
L 503.515493 117.954469 
L 505.311707 114.458413 
L 505.547959 115.364998 
L 506.020268 119.756377 
L 506.266043 122.39095 
L 506.746757 124.852412 
L 508.190358 127.524318 
L 508.485193 127.390378 
L 509.275368 124.79238 
L 509.921977 124.989611 
L 509.97473 125.903156 
L 510.21317 126.786583 
L 510.691646 127.020992 
L 511.266656 125.514463 
L 511.427141 125.216523 
L 511.731757 125.219324 
L 512.42372 124.336569 
L 513.619081 120.086818 
L 513.68035 120.061072 
L 514.39837 121.82809 
L 514.571539 122.660884 
L 514.703169 122.4485 
L 515.247869 119.740629 
L 515.690172 118.109028 
L 515.918439 117.422416 
L 516.15758 117.15863 
L 516.400242 116.680088 
L 516.762513 115.05085 
L 517.159528 111.840628 
L 517.51651 110.915766 
L 517.702683 111.434535 
L 518.653123 117.907865 
L 519.130101 118.730649 
L 519.725267 121.130426 
L 519.86004 123.09769 
L 520.141772 124.263693 
L 520.439599 124.62301 
L 520.859464 122.024104 
L 521.115203 122.566313 
L 521.39507 127.239263 
L 522.117242 146.06901 
L 522.363738 148.459639 
L 522.65075 148.600684 
L 522.827932 147.987468 
L 523.266623 147.769522 
L 523.497826 148.326851 
L 523.843711 147.584305 
L 524.131034 139.997019 
L 524.380779 129.325371 
L 524.857058 122.637249 
L 524.9168 118.263606 
L 525.275559 116.356023 
L 525.403427 116.537076 
L 525.692727 117.758213 
L 525.814188 119.099232 
L 526.316015 120.116086 
L 526.596989 120.879392 
L 526.890514 121.583493 
L 527.008656 123.546181 
L 527.314102 126.616539 
L 527.785005 129.886001 
L 527.911085 132.195301 
L 528.28225 132.765829 
L 528.505796 131.284828 
L 528.92995 125.677217 
L 529.284939 123.98443 
L 529.533417 124.332262 
L 529.890641 123.774166 
L 530.664454 116.173675 
L 530.905653 115.31022 
L 531.262127 116.322167 
L 531.621121 119.943431 
L 531.88268 120.11451 
L 532.275662 116.33643 
L 532.524468 114.753327 
L 532.708292 114.67934 
L 533.946454 120.957931 
L 534.245028 121.605179 
L 534.720395 125.376779 
L 535.504579 131.471903 
L 535.801994 131.826843 
L 535.979304 131.086178 
L 537.241818 122.102852 
L 537.57183 121.073933 
L 537.923297 118.292831 
L 538.432501 116.239141 
L 538.723835 116.737382 
L 538.905185 118.362329 
L 539.439601 120.900703 
L 539.680701 120.717473 
L 540.393637 116.813607 
L 540.636535 116.32307 
L 540.924843 116.311108 
L 541.177946 116.438241 
L 541.907515 115.607386 
L 542.137411 115.893521 
L 542.376781 116.879592 
L 542.912553 119.902997 
L 543.147255 120.73274 
L 543.385554 120.598449 
L 544.419445 117.169535 
L 544.699628 116.813599 
L 545.177199 116.645068 
L 545.613251 116.775579 
L 546.013013 117.66444 
L 546.191021 118.944732 
L 546.562256 122.88092 
L 546.787321 124.954534 
L 547.328605 127.673854 
L 547.562717 127.849781 
L 548.874603 125.979711 
L 549.053617 125.18088 
L 549.769221 122.970214 
L 550.496407 122.824796 
L 550.901628 122.786818 
L 551.264901 122.13136 
L 551.737027 121.278118 
L 552.395465 119.219466 
L 552.516451 118.272909 
L 552.989968 116.429199 
L 553.764774 114.083822 
L 554.326986 113.204724 
L 554.565702 113.238834 
L 554.984158 113.994601 
L 555.281591 114.376278 
L 556.23672 114.447828 
L 556.966916 114.420951 
L 557.459078 115.72034 
L 557.743454 119.379581 
L 558.43799 124.753022 
L 558.695445 126.000122 
L 558.974965 126.715829 
L 559.210968 126.829801 
L 559.509203 126.289374 
L 559.92538 123.357562 
L 560.468553 121.654414 
L 560.945158 118.195474 
L 561.37958 115.903007 
L 561.675585 116.267087 
L 562.153707 119.230028 
L 563.168071 123.081456 
L 563.663332 123.81762 
L 564.063923 123.093743 
L 564.36587 119.590056 
L 564.602546 118.174164 
L 565.099238 117.301443 
L 565.376283 117.609154 
L 565.913609 119.367511 
L 566.807687 123.272659 
L 566.871061 124.54977 
L 567.109206 124.944227 
L 567.602314 123.84942 
L 567.889683 122.732651 
L 568.067008 121.030861 
L 568.666409 118.070373 
L 568.905048 117.304695 
L 569.317197 117.419908 
L 569.495961 117.958306 
L 569.556614 118.733688 
L 569.830097 119.341654 
L 570.180186 119.354194 
L 570.840372 120.813265 
L 571.312124 122.383844 
L 571.551927 122.627356 
L 571.854597 121.996149 
L 572.030259 120.946121 
L 572.327643 120.540542 
L 572.804311 122.298209 
L 573.047077 122.692644 
L 573.343047 121.954893 
L 573.889969 119.663411 
L 574.05876 119.724467 
L 574.789855 122.255857 
L 575.266685 120.978644 
L 575.509254 121.165985 
L 575.806683 122.366762 
L 575.982989 123.572409 
L 576.28069 123.748718 
L 576.639918 122.330416 
L 576.819632 120.500511 
L 577.176708 119.673913 
L 577.414148 120.274709 
L 577.715511 122.79261 
L 577.951032 122.859983 
L 578.55534 121.535907 
L 579.234913 124.119264 
L 579.471695 123.640938 
L 580.001437 121.525018 
L 580.238885 121.234356 
L 580.432509 121.326828 
L 580.67193 121.258884 
L 581.193618 120.371174 
L 581.503861 120.592602 
L 581.67021 121.241891 
L 582.167232 122.111995 
L 582.685641 121.551648 
L 582.987025 121.911971 
L 583.460499 124.049413 
L 583.519781 124.433213 
L 583.93793 124.249156 
L 584.35554 121.952849 
L 584.712611 121.784146 
L 585.071395 123.79417 
L 585.399086 123.352636 
L 585.63542 122.120618 
L 585.908154 119.517627 
L 586.150599 119.173049 
L 586.440302 119.916529 
L 586.619088 121.29932 
L 587.158906 122.515621 
L 587.635596 121.273633 
L 587.875755 121.1225 
L 588.119341 121.604499 
L 588.64969 123.131553 
L 588.888745 122.576749 
L 589.128115 121.203868 
L 589.546397 120.470724 
L 589.849898 121.572354 
L 590.858037 122.651471 
L 591.098088 122.569339 
L 591.336211 122.201012 
L 591.644742 122.253178 
L 591.94111 122.579782 
L 592.35766 120.862295 
L 592.599352 121.432471 
L 592.95496 121.893814 
L 593.492874 120.762174 
L 594.265573 122.220105 
L 594.863145 121.726178 
L 595.520186 121.969434 
L 595.776521 121.970979 
L 595.995268 121.837431 
L 596.26267 121.840802 
L 596.502813 121.268189 
L 596.502813 121.268189 
" clip-path="url(#p04985c9e20)" style="fill: none; stroke: #ff0000; stroke-opacity: 0.7; stroke-width: 1.5; stroke-linecap: square"/>
   </g>
   <g id="patch_3">
    <path d="M 38.502813 277.92 
L 38.502813 0.72 
" style="fill: none; stroke: #000000; stroke-width: 0.8; stroke-linejoin: miter; stroke-linecap: square"/>
   </g>
   <g id="patch_4">
    <path d="M 596.502813 277.92 
L 596.502813 0.72 
" style="fill: none; stroke: #000000; stroke-width: 0.8; stroke-linejoin: miter; stroke-linecap: square"/>
   </g>
   <g id="patch_5">
    <path d="M 38.502813 277.92 
L 596.502813 277.92 
" style="fill: none; stroke: #000000; stroke-width: 0.8; stroke-linejoin: miter; stroke-linecap: square"/>
   </g>
   <g id="patch_6">
    <path d="M 38.502813 0.72 
L 596.502813 0.72 
" style="fill: none; stroke: #000000; stroke-width: 0.8; stroke-linejoin: miter; stroke-linecap: square"/>
   </g>
   <g id="legend_1">
    <g id="patch_7">
     <path d="M 515.734063 38.07625 
L 589.502813 38.07625 
Q 591.502813 38.07625 591.502813 36.07625 
L 591.502813 7.72 
Q 591.502813 5.72 589.502813 5.72 
L 515.734063 5.72 
Q 513.734063 5.72 513.734063 7.72 
L 513.734063 36.07625 
Q 513.734063 38.07625 515.734063 38.07625 
z
" style="fill: #ffffff; opacity: 0.8; stroke: #cccccc; stroke-linejoin: miter"/>
    </g>
    <g id="line2d_35">
     <path d="M 517.734063 13.818438 
L 527.734063 13.818438 
L 537.734063 13.818438 
" style="fill: none; stroke: #0000ff; stroke-opacity: 0.7; stroke-width: 1.5; stroke-linecap: square"/>
    </g>
    <g id="text_19">
     <!-- RNEA -->
     <g transform="translate(545.734063 17.318438) scale(0.1 -0.1)">
      <defs>
       <path id="DejaVuSans-52" d="M 2841 2188 
Q 3044 2119 3236 1894 
Q 3428 1669 3622 1275 
L 4263 0 
L 3584 0 
L 2988 1197 
Q 2756 1666 2539 1819 
Q 2322 1972 1947 1972 
L 1259 1972 
L 1259 0 
L 628 0 
L 628 4666 
L 2053 4666 
Q 2853 4666 3247 4331 
Q 3641 3997 3641 3322 
Q 3641 2881 3436 2590 
Q 3231 2300 2841 2188 
z
M 1259 4147 
L 1259 2491 
L 2053 2491 
Q 2509 2491 2742 2702 
Q 2975 2913 2975 3322 
Q 2975 3731 2742 3939 
Q 2509 4147 2053 4147 
L 1259 4147 
z
" transform="scale(0.015625)"/>
       <path id="DejaVuSans-45" d="M 628 4666 
L 3578 4666 
L 3578 4134 
L 1259 4134 
L 1259 2753 
L 3481 2753 
L 3481 2222 
L 1259 2222 
L 1259 531 
L 3634 531 
L 3634 0 
L 628 0 
L 628 4666 
z
" transform="scale(0.015625)"/>
       <path id="DejaVuSans-41" d="M 2188 4044 
L 1331 1722 
L 3047 1722 
L 2188 4044 
z
M 1831 4666 
L 2547 4666 
L 4325 0 
L 3669 0 
L 3244 1197 
L 1141 1197 
L 716 0 
L 50 0 
L 1831 4666 
z
" transform="scale(0.015625)"/>
      </defs>
      <use xlink:href="#DejaVuSans-52"/>
      <use xlink:href="#DejaVuSans-4e" x="69.482422"/>
      <use xlink:href="#DejaVuSans-45" x="144.287109"/>
      <use xlink:href="#DejaVuSans-41" x="207.470703"/>
     </g>
    </g>
    <g id="line2d_36">
     <path d="M 517.734063 28.496563 
L 527.734063 28.496563 
L 537.734063 28.496563 
" style="fill: none; stroke: #ff0000; stroke-opacity: 0.7; stroke-width: 1.5; stroke-linecap: square"/>
    </g>
    <g id="text_20">
     <!-- BURNEA -->
     <g transform="translate(545.734063 31.996563) scale(0.1 -0.1)">
      <defs>
       <path id="DejaVuSans-42" d="M 1259 2228 
L 1259 519 
L 2272 519 
Q 2781 519 3026 730 
Q 3272 941 3272 1375 
Q 3272 1813 3026 2020 
Q 2781 2228 2272 2228 
L 1259 2228 
z
M 1259 4147 
L 1259 2741 
L 2194 2741 
Q 2656 2741 2882 2914 
Q 3109 3088 3109 3444 
Q 3109 3797 2882 3972 
Q 2656 4147 2194 4147 
L 1259 4147 
z
M 628 4666 
L 2241 4666 
Q 2963 4666 3353 4366 
Q 3744 4066 3744 3513 
Q 3744 3084 3544 2831 
Q 3344 2578 2956 2516 
Q 3422 2416 3680 2098 
Q 3938 1781 3938 1306 
Q 3938 681 3513 340 
Q 3088 0 2303 0 
L 628 0 
L 628 4666 
z
" transform="scale(0.015625)"/>
       <path id="DejaVuSans-55" d="M 556 4666 
L 1191 4666 
L 1191 1831 
Q 1191 1081 1462 751 
Q 1734 422 2344 422 
Q 2950 422 3222 751 
Q 3494 1081 3494 1831 
L 3494 4666 
L 4128 4666 
L 4128 1753 
Q 4128 841 3676 375 
Q 3225 -91 2344 -91 
Q 1459 -91 1007 375 
Q 556 841 556 1753 
L 556 4666 
z
" transform="scale(0.015625)"/>
      </defs>
      <use xlink:href="#DejaVuSans-42"/>
      <use xlink:href="#DejaVuSans-55" x="68.603516"/>
      <use xlink:href="#DejaVuSans-52" x="141.796875"/>
      <use xlink:href="#DejaVuSans-4e" x="211.279297"/>
      <use xlink:href="#DejaVuSans-45" x="286.083984"/>
      <use xlink:href="#DejaVuSans-41" x="349.267578"/>
     </g>
    </g>
   </g>
  </g>
 </g>
 <defs>
  <clipPath id="p04985c9e20">
   <rect x="38.502813" y="0.72" width="558" height="277.2"/>
  </clipPath>
 </defs>
</svg>
