<?xml version="1.0" encoding="utf-8" standalone="no"?>
<!DOCTYPE svg PUBLIC "-//W3C//DTD SVG 1.1//EN"
  "http://www.w3.org/Graphics/SVG/1.1/DTD/svg11.dtd">
<svg xmlns:xlink="http://www.w3.org/1999/xlink" width="597.222813pt" height="304.99625pt" viewBox="0 0 597.222813 304.99625" xmlns="http://www.w3.org/2000/svg" version="1.1">
 <metadata>
  <rdf:RDF xmlns:dc="http://purl.org/dc/elements/1.1/" xmlns:cc="http://creativecommons.org/ns#" xmlns:rdf="http://www.w3.org/1999/02/22-rdf-syntax-ns#">
   <cc:Work>
    <dc:type rdf:resource="http://purl.org/dc/dcmitype/StillImage"/>
    <dc:date>2023-09-05T22:08:33.154478</dc:date>
    <dc:format>image/svg+xml</dc:format>
    <dc:creator>
     <cc:Agent>
      <dc:title>Matplotlib v3.7.2, https://matplotlib.org/</dc:title>
     </cc:Agent>
    </dc:creator>
   </cc:Work>
  </rdf:RDF>
 </metadata>
 <defs>
  <style type="text/css">*{stroke-linejoin: round; stroke-linecap: butt}</style>
 </defs>
 <g id="figure_1">
  <g id="patch_1">
   <path d="M -0 304.99625 
L 597.222813 304.99625 
L 597.222813 0 
L -0 0 
L -0 304.99625 
z
" style="fill: none"/>
  </g>
  <g id="axes_1">
   <g id="patch_2">
    <path d="M 38.502813 277.92 
L 596.502813 277.92 
L 596.502813 0.72 
L 38.502813 0.72 
L 38.502813 277.92 
z
" style="fill: none"/>
   </g>
   <g id="matplotlib.axis_1">
    <g id="xtick_1">
     <g id="line2d_1">
      <path d="M 38.502813 277.92 
L 38.502813 0.72 
" clip-path="url(#p02840082de)" style="fill: none; stroke-dasharray: 0.8,1.32; stroke-dashoffset: 0; stroke: #000000; stroke-opacity: 0.5; stroke-width: 0.8"/>
     </g>
     <g id="line2d_2">
      <defs>
       <path id="m5c9be5e381" d="M 0 0 
L 0 3.5 
" style="stroke: #000000; stroke-width: 0.8"/>
      </defs>
      <g>
       <use xlink:href="#m5c9be5e381" x="38.502813" y="277.92" style="stroke: #000000; stroke-width: 0.8"/>
      </g>
     </g>
     <g id="text_1">
      <!-- 0.0 -->
      <g transform="translate(30.55125 292.518438) scale(0.1 -0.1)">
       <defs>
        <path id="DejaVuSans-30" d="M 2034 4250 
Q 1547 4250 1301 3770 
Q 1056 3291 1056 2328 
Q 1056 1369 1301 889 
Q 1547 409 2034 409 
Q 2525 409 2770 889 
Q 3016 1369 3016 2328 
Q 3016 3291 2770 3770 
Q 2525 4250 2034 4250 
z
M 2034 4750 
Q 2819 4750 3233 4129 
Q 3647 3509 3647 2328 
Q 3647 1150 3233 529 
Q 2819 -91 2034 -91 
Q 1250 -91 836 529 
Q 422 1150 422 2328 
Q 422 3509 836 4129 
Q 1250 4750 2034 4750 
z
" transform="scale(0.015625)"/>
        <path id="DejaVuSans-2e" d="M 684 794 
L 1344 794 
L 1344 0 
L 684 0 
L 684 794 
z
" transform="scale(0.015625)"/>
       </defs>
       <use xlink:href="#DejaVuSans-30"/>
       <use xlink:href="#DejaVuSans-2e" x="63.623047"/>
       <use xlink:href="#DejaVuSans-30" x="95.410156"/>
      </g>
     </g>
    </g>
    <g id="xtick_2">
     <g id="line2d_3">
      <path d="M 112.654137 277.92 
L 112.654137 0.72 
" clip-path="url(#p02840082de)" style="fill: none; stroke-dasharray: 0.8,1.32; stroke-dashoffset: 0; stroke: #000000; stroke-opacity: 0.5; stroke-width: 0.8"/>
     </g>
     <g id="line2d_4">
      <g>
       <use xlink:href="#m5c9be5e381" x="112.654137" y="277.92" style="stroke: #000000; stroke-width: 0.8"/>
      </g>
     </g>
     <g id="text_2">
      <!-- 2.5 -->
      <g transform="translate(104.702575 292.518438) scale(0.1 -0.1)">
       <defs>
        <path id="DejaVuSans-32" d="M 1228 531 
L 3431 531 
L 3431 0 
L 469 0 
L 469 531 
Q 828 903 1448 1529 
Q 2069 2156 2228 2338 
Q 2531 2678 2651 2914 
Q 2772 3150 2772 3378 
Q 2772 3750 2511 3984 
Q 2250 4219 1831 4219 
Q 1534 4219 1204 4116 
Q 875 4013 500 3803 
L 500 4441 
Q 881 4594 1212 4672 
Q 1544 4750 1819 4750 
Q 2544 4750 2975 4387 
Q 3406 4025 3406 3419 
Q 3406 3131 3298 2873 
Q 3191 2616 2906 2266 
Q 2828 2175 2409 1742 
Q 1991 1309 1228 531 
z
" transform="scale(0.015625)"/>
        <path id="DejaVuSans-35" d="M 691 4666 
L 3169 4666 
L 3169 4134 
L 1269 4134 
L 1269 2991 
Q 1406 3038 1543 3061 
Q 1681 3084 1819 3084 
Q 2600 3084 3056 2656 
Q 3513 2228 3513 1497 
Q 3513 744 3044 326 
Q 2575 -91 1722 -91 
Q 1428 -91 1123 -41 
Q 819 9 494 109 
L 494 744 
Q 775 591 1075 516 
Q 1375 441 1709 441 
Q 2250 441 2565 725 
Q 2881 1009 2881 1497 
Q 2881 1984 2565 2268 
Q 2250 2553 1709 2553 
Q 1456 2553 1204 2497 
Q 953 2441 691 2322 
L 691 4666 
z
" transform="scale(0.015625)"/>
       </defs>
       <use xlink:href="#DejaVuSans-32"/>
       <use xlink:href="#DejaVuSans-2e" x="63.623047"/>
       <use xlink:href="#DejaVuSans-35" x="95.410156"/>
      </g>
     </g>
    </g>
    <g id="xtick_3">
     <g id="line2d_5">
      <path d="M 186.805462 277.92 
L 186.805462 0.72 
" clip-path="url(#p02840082de)" style="fill: none; stroke-dasharray: 0.8,1.32; stroke-dashoffset: 0; stroke: #000000; stroke-opacity: 0.5; stroke-width: 0.8"/>
     </g>
     <g id="line2d_6">
      <g>
       <use xlink:href="#m5c9be5e381" x="186.805462" y="277.92" style="stroke: #000000; stroke-width: 0.8"/>
      </g>
     </g>
     <g id="text_3">
      <!-- 5.0 -->
      <g transform="translate(178.8539 292.518438) scale(0.1 -0.1)">
       <use xlink:href="#DejaVuSans-35"/>
       <use xlink:href="#DejaVuSans-2e" x="63.623047"/>
       <use xlink:href="#DejaVuSans-30" x="95.410156"/>
      </g>
     </g>
    </g>
    <g id="xtick_4">
     <g id="line2d_7">
      <path d="M 260.956787 277.92 
L 260.956787 0.72 
" clip-path="url(#p02840082de)" style="fill: none; stroke-dasharray: 0.8,1.32; stroke-dashoffset: 0; stroke: #000000; stroke-opacity: 0.5; stroke-width: 0.8"/>
     </g>
     <g id="line2d_8">
      <g>
       <use xlink:href="#m5c9be5e381" x="260.956787" y="277.92" style="stroke: #000000; stroke-width: 0.8"/>
      </g>
     </g>
     <g id="text_4">
      <!-- 7.5 -->
      <g transform="translate(253.005225 292.518438) scale(0.1 -0.1)">
       <defs>
        <path id="DejaVuSans-37" d="M 525 4666 
L 3525 4666 
L 3525 4397 
L 1831 0 
L 1172 0 
L 2766 4134 
L 525 4134 
L 525 4666 
z
" transform="scale(0.015625)"/>
       </defs>
       <use xlink:href="#DejaVuSans-37"/>
       <use xlink:href="#DejaVuSans-2e" x="63.623047"/>
       <use xlink:href="#DejaVuSans-35" x="95.410156"/>
      </g>
     </g>
    </g>
    <g id="xtick_5">
     <g id="line2d_9">
      <path d="M 335.108112 277.92 
L 335.108112 0.72 
" clip-path="url(#p02840082de)" style="fill: none; stroke-dasharray: 0.8,1.32; stroke-dashoffset: 0; stroke: #000000; stroke-opacity: 0.5; stroke-width: 0.8"/>
     </g>
     <g id="line2d_10">
      <g>
       <use xlink:href="#m5c9be5e381" x="335.108112" y="277.92" style="stroke: #000000; stroke-width: 0.8"/>
      </g>
     </g>
     <g id="text_5">
      <!-- 10.0 -->
      <g transform="translate(323.9753 292.518438) scale(0.1 -0.1)">
       <defs>
        <path id="DejaVuSans-31" d="M 794 531 
L 1825 531 
L 1825 4091 
L 703 3866 
L 703 4441 
L 1819 4666 
L 2450 4666 
L 2450 531 
L 3481 531 
L 3481 0 
L 794 0 
L 794 531 
z
" transform="scale(0.015625)"/>
       </defs>
       <use xlink:href="#DejaVuSans-31"/>
       <use xlink:href="#DejaVuSans-30" x="63.623047"/>
       <use xlink:href="#DejaVuSans-2e" x="127.246094"/>
       <use xlink:href="#DejaVuSans-30" x="159.033203"/>
      </g>
     </g>
    </g>
    <g id="xtick_6">
     <g id="line2d_11">
      <path d="M 409.259437 277.92 
L 409.259437 0.72 
" clip-path="url(#p02840082de)" style="fill: none; stroke-dasharray: 0.8,1.32; stroke-dashoffset: 0; stroke: #000000; stroke-opacity: 0.5; stroke-width: 0.8"/>
     </g>
     <g id="line2d_12">
      <g>
       <use xlink:href="#m5c9be5e381" x="409.259437" y="277.92" style="stroke: #000000; stroke-width: 0.8"/>
      </g>
     </g>
     <g id="text_6">
      <!-- 12.5 -->
      <g transform="translate(398.126625 292.518438) scale(0.1 -0.1)">
       <use xlink:href="#DejaVuSans-31"/>
       <use xlink:href="#DejaVuSans-32" x="63.623047"/>
       <use xlink:href="#DejaVuSans-2e" x="127.246094"/>
       <use xlink:href="#DejaVuSans-35" x="159.033203"/>
      </g>
     </g>
    </g>
    <g id="xtick_7">
     <g id="line2d_13">
      <path d="M 483.410762 277.92 
L 483.410762 0.72 
" clip-path="url(#p02840082de)" style="fill: none; stroke-dasharray: 0.8,1.32; stroke-dashoffset: 0; stroke: #000000; stroke-opacity: 0.5; stroke-width: 0.8"/>
     </g>
     <g id="line2d_14">
      <g>
       <use xlink:href="#m5c9be5e381" x="483.410762" y="277.92" style="stroke: #000000; stroke-width: 0.8"/>
      </g>
     </g>
     <g id="text_7">
      <!-- 15.0 -->
      <g transform="translate(472.27795 292.518438) scale(0.1 -0.1)">
       <use xlink:href="#DejaVuSans-31"/>
       <use xlink:href="#DejaVuSans-35" x="63.623047"/>
       <use xlink:href="#DejaVuSans-2e" x="127.246094"/>
       <use xlink:href="#DejaVuSans-30" x="159.033203"/>
      </g>
     </g>
    </g>
    <g id="xtick_8">
     <g id="line2d_15">
      <path d="M 557.562087 277.92 
L 557.562087 0.72 
" clip-path="url(#p02840082de)" style="fill: none; stroke-dasharray: 0.8,1.32; stroke-dashoffset: 0; stroke: #000000; stroke-opacity: 0.5; stroke-width: 0.8"/>
     </g>
     <g id="line2d_16">
      <g>
       <use xlink:href="#m5c9be5e381" x="557.562087" y="277.92" style="stroke: #000000; stroke-width: 0.8"/>
      </g>
     </g>
     <g id="text_8">
      <!-- 17.5 -->
      <g transform="translate(546.429274 292.518438) scale(0.1 -0.1)">
       <use xlink:href="#DejaVuSans-31"/>
       <use xlink:href="#DejaVuSans-37" x="63.623047"/>
       <use xlink:href="#DejaVuSans-2e" x="127.246094"/>
       <use xlink:href="#DejaVuSans-35" x="159.033203"/>
      </g>
     </g>
    </g>
    <g id="text_9">
     <!-- Zeit [s] -->
     <g transform="translate(299.556719 302.196563) scale(0.1 -0.1)">
      <defs>
       <path id="DejaVuSans-5a" d="M 359 4666 
L 4025 4666 
L 4025 4184 
L 1075 531 
L 4097 531 
L 4097 0 
L 288 0 
L 288 481 
L 3238 4134 
L 359 4134 
L 359 4666 
z
" transform="scale(0.015625)"/>
       <path id="DejaVuSans-65" d="M 3597 1894 
L 3597 1613 
L 953 1613 
Q 991 1019 1311 708 
Q 1631 397 2203 397 
Q 2534 397 2845 478 
Q 3156 559 3463 722 
L 3463 178 
Q 3153 47 2828 -22 
Q 2503 -91 2169 -91 
Q 1331 -91 842 396 
Q 353 884 353 1716 
Q 353 2575 817 3079 
Q 1281 3584 2069 3584 
Q 2775 3584 3186 3129 
Q 3597 2675 3597 1894 
z
M 3022 2063 
Q 3016 2534 2758 2815 
Q 2500 3097 2075 3097 
Q 1594 3097 1305 2825 
Q 1016 2553 972 2059 
L 3022 2063 
z
" transform="scale(0.015625)"/>
       <path id="DejaVuSans-69" d="M 603 3500 
L 1178 3500 
L 1178 0 
L 603 0 
L 603 3500 
z
M 603 4863 
L 1178 4863 
L 1178 4134 
L 603 4134 
L 603 4863 
z
" transform="scale(0.015625)"/>
       <path id="DejaVuSans-74" d="M 1172 4494 
L 1172 3500 
L 2356 3500 
L 2356 3053 
L 1172 3053 
L 1172 1153 
Q 1172 725 1289 603 
Q 1406 481 1766 481 
L 2356 481 
L 2356 0 
L 1766 0 
Q 1100 0 847 248 
Q 594 497 594 1153 
L 594 3053 
L 172 3053 
L 172 3500 
L 594 3500 
L 594 4494 
L 1172 4494 
z
" transform="scale(0.015625)"/>
       <path id="DejaVuSans-20" transform="scale(0.015625)"/>
       <path id="DejaVuSans-5b" d="M 550 4863 
L 1875 4863 
L 1875 4416 
L 1125 4416 
L 1125 -397 
L 1875 -397 
L 1875 -844 
L 550 -844 
L 550 4863 
z
" transform="scale(0.015625)"/>
       <path id="DejaVuSans-73" d="M 2834 3397 
L 2834 2853 
Q 2591 2978 2328 3040 
Q 2066 3103 1784 3103 
Q 1356 3103 1142 2972 
Q 928 2841 928 2578 
Q 928 2378 1081 2264 
Q 1234 2150 1697 2047 
L 1894 2003 
Q 2506 1872 2764 1633 
Q 3022 1394 3022 966 
Q 3022 478 2636 193 
Q 2250 -91 1575 -91 
Q 1294 -91 989 -36 
Q 684 19 347 128 
L 347 722 
Q 666 556 975 473 
Q 1284 391 1588 391 
Q 1994 391 2212 530 
Q 2431 669 2431 922 
Q 2431 1156 2273 1281 
Q 2116 1406 1581 1522 
L 1381 1569 
Q 847 1681 609 1914 
Q 372 2147 372 2553 
Q 372 3047 722 3315 
Q 1072 3584 1716 3584 
Q 2034 3584 2315 3537 
Q 2597 3491 2834 3397 
z
" transform="scale(0.015625)"/>
       <path id="DejaVuSans-5d" d="M 1947 4863 
L 1947 -844 
L 622 -844 
L 622 -397 
L 1369 -397 
L 1369 4416 
L 622 4416 
L 622 4863 
L 1947 4863 
z
" transform="scale(0.015625)"/>
      </defs>
      <use xlink:href="#DejaVuSans-5a"/>
      <use xlink:href="#DejaVuSans-65" x="68.505859"/>
      <use xlink:href="#DejaVuSans-69" x="130.029297"/>
      <use xlink:href="#DejaVuSans-74" x="157.8125"/>
      <use xlink:href="#DejaVuSans-20" x="197.021484"/>
      <use xlink:href="#DejaVuSans-5b" x="228.808594"/>
      <use xlink:href="#DejaVuSans-73" x="267.822266"/>
      <use xlink:href="#DejaVuSans-5d" x="319.921875"/>
     </g>
    </g>
   </g>
   <g id="matplotlib.axis_2">
    <g id="ytick_1">
     <g id="line2d_17">
      <path d="M 38.502813 249.471438 
L 596.502813 249.471438 
" clip-path="url(#p02840082de)" style="fill: none; stroke-dasharray: 0.8,1.32; stroke-dashoffset: 0; stroke: #000000; stroke-opacity: 0.5; stroke-width: 0.8"/>
     </g>
     <g id="line2d_18">
      <defs>
       <path id="md2a678bdd5" d="M 0 0 
L -3.5 0 
" style="stroke: #000000; stroke-width: 0.8"/>
      </defs>
      <g>
       <use xlink:href="#md2a678bdd5" x="38.502813" y="249.471438" style="stroke: #000000; stroke-width: 0.8"/>
      </g>
     </g>
     <g id="text_10">
      <!-- −10 -->
      <g transform="translate(10.398125 253.270657) scale(0.1 -0.1)">
       <defs>
        <path id="DejaVuSans-2212" d="M 678 2272 
L 4684 2272 
L 4684 1741 
L 678 1741 
L 678 2272 
z
" transform="scale(0.015625)"/>
       </defs>
       <use xlink:href="#DejaVuSans-2212"/>
       <use xlink:href="#DejaVuSans-31" x="83.789062"/>
       <use xlink:href="#DejaVuSans-30" x="147.412109"/>
      </g>
     </g>
    </g>
    <g id="ytick_2">
     <g id="line2d_19">
      <path d="M 38.502813 215.833456 
L 596.502813 215.833456 
" clip-path="url(#p02840082de)" style="fill: none; stroke-dasharray: 0.8,1.32; stroke-dashoffset: 0; stroke: #000000; stroke-opacity: 0.5; stroke-width: 0.8"/>
     </g>
     <g id="line2d_20">
      <g>
       <use xlink:href="#md2a678bdd5" x="38.502813" y="215.833456" style="stroke: #000000; stroke-width: 0.8"/>
      </g>
     </g>
     <g id="text_11">
      <!-- −5 -->
      <g transform="translate(16.760625 219.632675) scale(0.1 -0.1)">
       <use xlink:href="#DejaVuSans-2212"/>
       <use xlink:href="#DejaVuSans-35" x="83.789062"/>
      </g>
     </g>
    </g>
    <g id="ytick_3">
     <g id="line2d_21">
      <path d="M 38.502813 182.195474 
L 596.502813 182.195474 
" clip-path="url(#p02840082de)" style="fill: none; stroke-dasharray: 0.8,1.32; stroke-dashoffset: 0; stroke: #000000; stroke-opacity: 0.5; stroke-width: 0.8"/>
     </g>
     <g id="line2d_22">
      <g>
       <use xlink:href="#md2a678bdd5" x="38.502813" y="182.195474" style="stroke: #000000; stroke-width: 0.8"/>
      </g>
     </g>
     <g id="text_12">
      <!-- 0 -->
      <g transform="translate(25.140313 185.994692) scale(0.1 -0.1)">
       <use xlink:href="#DejaVuSans-30"/>
      </g>
     </g>
    </g>
    <g id="ytick_4">
     <g id="line2d_23">
      <path d="M 38.502813 148.557491 
L 596.502813 148.557491 
" clip-path="url(#p02840082de)" style="fill: none; stroke-dasharray: 0.8,1.32; stroke-dashoffset: 0; stroke: #000000; stroke-opacity: 0.5; stroke-width: 0.8"/>
     </g>
     <g id="line2d_24">
      <g>
       <use xlink:href="#md2a678bdd5" x="38.502813" y="148.557491" style="stroke: #000000; stroke-width: 0.8"/>
      </g>
     </g>
     <g id="text_13">
      <!-- 5 -->
      <g transform="translate(25.140313 152.35671) scale(0.1 -0.1)">
       <use xlink:href="#DejaVuSans-35"/>
      </g>
     </g>
    </g>
    <g id="ytick_5">
     <g id="line2d_25">
      <path d="M 38.502813 114.919509 
L 596.502813 114.919509 
" clip-path="url(#p02840082de)" style="fill: none; stroke-dasharray: 0.8,1.32; stroke-dashoffset: 0; stroke: #000000; stroke-opacity: 0.5; stroke-width: 0.8"/>
     </g>
     <g id="line2d_26">
      <g>
       <use xlink:href="#md2a678bdd5" x="38.502813" y="114.919509" style="stroke: #000000; stroke-width: 0.8"/>
      </g>
     </g>
     <g id="text_14">
      <!-- 10 -->
      <g transform="translate(18.777813 118.718728) scale(0.1 -0.1)">
       <use xlink:href="#DejaVuSans-31"/>
       <use xlink:href="#DejaVuSans-30" x="63.623047"/>
      </g>
     </g>
    </g>
    <g id="ytick_6">
     <g id="line2d_27">
      <path d="M 38.502813 81.281527 
L 596.502813 81.281527 
" clip-path="url(#p02840082de)" style="fill: none; stroke-dasharray: 0.8,1.32; stroke-dashoffset: 0; stroke: #000000; stroke-opacity: 0.5; stroke-width: 0.8"/>
     </g>
     <g id="line2d_28">
      <g>
       <use xlink:href="#md2a678bdd5" x="38.502813" y="81.281527" style="stroke: #000000; stroke-width: 0.8"/>
      </g>
     </g>
     <g id="text_15">
      <!-- 15 -->
      <g transform="translate(18.777813 85.080746) scale(0.1 -0.1)">
       <use xlink:href="#DejaVuSans-31"/>
       <use xlink:href="#DejaVuSans-35" x="63.623047"/>
      </g>
     </g>
    </g>
    <g id="ytick_7">
     <g id="line2d_29">
      <path d="M 38.502813 47.643545 
L 596.502813 47.643545 
" clip-path="url(#p02840082de)" style="fill: none; stroke-dasharray: 0.8,1.32; stroke-dashoffset: 0; stroke: #000000; stroke-opacity: 0.5; stroke-width: 0.8"/>
     </g>
     <g id="line2d_30">
      <g>
       <use xlink:href="#md2a678bdd5" x="38.502813" y="47.643545" style="stroke: #000000; stroke-width: 0.8"/>
      </g>
     </g>
     <g id="text_16">
      <!-- 20 -->
      <g transform="translate(18.777813 51.442764) scale(0.1 -0.1)">
       <use xlink:href="#DejaVuSans-32"/>
       <use xlink:href="#DejaVuSans-30" x="63.623047"/>
      </g>
     </g>
    </g>
    <g id="ytick_8">
     <g id="line2d_31">
      <path d="M 38.502813 14.005563 
L 596.502813 14.005563 
" clip-path="url(#p02840082de)" style="fill: none; stroke-dasharray: 0.8,1.32; stroke-dashoffset: 0; stroke: #000000; stroke-opacity: 0.5; stroke-width: 0.8"/>
     </g>
     <g id="line2d_32">
      <g>
       <use xlink:href="#md2a678bdd5" x="38.502813" y="14.005563" style="stroke: #000000; stroke-width: 0.8"/>
      </g>
     </g>
     <g id="text_17">
      <!-- 25 -->
      <g transform="translate(18.777813 17.804782) scale(0.1 -0.1)">
       <use xlink:href="#DejaVuSans-32"/>
       <use xlink:href="#DejaVuSans-35" x="63.623047"/>
      </g>
     </g>
    </g>
    <g id="text_18">
     <!-- Drehmoment [Nm] -->
     <g transform="translate(8.318438 186.465313) rotate(-90) scale(0.1 -0.1)">
      <defs>
       <path id="DejaVuSans-44" d="M 1259 4147 
L 1259 519 
L 2022 519 
Q 2988 519 3436 956 
Q 3884 1394 3884 2338 
Q 3884 3275 3436 3711 
Q 2988 4147 2022 4147 
L 1259 4147 
z
M 628 4666 
L 1925 4666 
Q 3281 4666 3915 4102 
Q 4550 3538 4550 2338 
Q 4550 1131 3912 565 
Q 3275 0 1925 0 
L 628 0 
L 628 4666 
z
" transform="scale(0.015625)"/>
       <path id="DejaVuSans-72" d="M 2631 2963 
Q 2534 3019 2420 3045 
Q 2306 3072 2169 3072 
Q 1681 3072 1420 2755 
Q 1159 2438 1159 1844 
L 1159 0 
L 581 0 
L 581 3500 
L 1159 3500 
L 1159 2956 
Q 1341 3275 1631 3429 
Q 1922 3584 2338 3584 
Q 2397 3584 2469 3576 
Q 2541 3569 2628 3553 
L 2631 2963 
z
" transform="scale(0.015625)"/>
       <path id="DejaVuSans-68" d="M 3513 2113 
L 3513 0 
L 2938 0 
L 2938 2094 
Q 2938 2591 2744 2837 
Q 2550 3084 2163 3084 
Q 1697 3084 1428 2787 
Q 1159 2491 1159 1978 
L 1159 0 
L 581 0 
L 581 4863 
L 1159 4863 
L 1159 2956 
Q 1366 3272 1645 3428 
Q 1925 3584 2291 3584 
Q 2894 3584 3203 3211 
Q 3513 2838 3513 2113 
z
" transform="scale(0.015625)"/>
       <path id="DejaVuSans-6d" d="M 3328 2828 
Q 3544 3216 3844 3400 
Q 4144 3584 4550 3584 
Q 5097 3584 5394 3201 
Q 5691 2819 5691 2113 
L 5691 0 
L 5113 0 
L 5113 2094 
Q 5113 2597 4934 2840 
Q 4756 3084 4391 3084 
Q 3944 3084 3684 2787 
Q 3425 2491 3425 1978 
L 3425 0 
L 2847 0 
L 2847 2094 
Q 2847 2600 2669 2842 
Q 2491 3084 2119 3084 
Q 1678 3084 1418 2786 
Q 1159 2488 1159 1978 
L 1159 0 
L 581 0 
L 581 3500 
L 1159 3500 
L 1159 2956 
Q 1356 3278 1631 3431 
Q 1906 3584 2284 3584 
Q 2666 3584 2933 3390 
Q 3200 3197 3328 2828 
z
" transform="scale(0.015625)"/>
       <path id="DejaVuSans-6f" d="M 1959 3097 
Q 1497 3097 1228 2736 
Q 959 2375 959 1747 
Q 959 1119 1226 758 
Q 1494 397 1959 397 
Q 2419 397 2687 759 
Q 2956 1122 2956 1747 
Q 2956 2369 2687 2733 
Q 2419 3097 1959 3097 
z
M 1959 3584 
Q 2709 3584 3137 3096 
Q 3566 2609 3566 1747 
Q 3566 888 3137 398 
Q 2709 -91 1959 -91 
Q 1206 -91 779 398 
Q 353 888 353 1747 
Q 353 2609 779 3096 
Q 1206 3584 1959 3584 
z
" transform="scale(0.015625)"/>
       <path id="DejaVuSans-6e" d="M 3513 2113 
L 3513 0 
L 2938 0 
L 2938 2094 
Q 2938 2591 2744 2837 
Q 2550 3084 2163 3084 
Q 1697 3084 1428 2787 
Q 1159 2491 1159 1978 
L 1159 0 
L 581 0 
L 581 3500 
L 1159 3500 
L 1159 2956 
Q 1366 3272 1645 3428 
Q 1925 3584 2291 3584 
Q 2894 3584 3203 3211 
Q 3513 2838 3513 2113 
z
" transform="scale(0.015625)"/>
       <path id="DejaVuSans-4e" d="M 628 4666 
L 1478 4666 
L 3547 763 
L 3547 4666 
L 4159 4666 
L 4159 0 
L 3309 0 
L 1241 3903 
L 1241 0 
L 628 0 
L 628 4666 
z
" transform="scale(0.015625)"/>
      </defs>
      <use xlink:href="#DejaVuSans-44"/>
      <use xlink:href="#DejaVuSans-72" x="77.001953"/>
      <use xlink:href="#DejaVuSans-65" x="115.865234"/>
      <use xlink:href="#DejaVuSans-68" x="177.388672"/>
      <use xlink:href="#DejaVuSans-6d" x="240.767578"/>
      <use xlink:href="#DejaVuSans-6f" x="338.179688"/>
      <use xlink:href="#DejaVuSans-6d" x="399.361328"/>
      <use xlink:href="#DejaVuSans-65" x="496.773438"/>
      <use xlink:href="#DejaVuSans-6e" x="558.296875"/>
      <use xlink:href="#DejaVuSans-74" x="621.675781"/>
      <use xlink:href="#DejaVuSans-20" x="660.884766"/>
      <use xlink:href="#DejaVuSans-5b" x="692.671875"/>
      <use xlink:href="#DejaVuSans-4e" x="731.685547"/>
      <use xlink:href="#DejaVuSans-6d" x="806.490234"/>
      <use xlink:href="#DejaVuSans-5d" x="903.902344"/>
     </g>
    </g>
   </g>
   <g id="line2d_33">
    <path d="M 38.502813 182.195474 
L 223.248476 182.195474 
L 223.554257 250.815247 
L 223.732051 240.252428 
L 224.048213 246.536604 
L 224.26118 277.92 
L 225.513956 201.953855 
L 225.75103 196.613935 
L 225.988789 187.856817 
L 226.226817 187.953721 
L 226.525541 184.465714 
L 226.707352 174.393508 
L 227.004147 174.975152 
L 227.184451 178.777642 
L 227.422827 178.564134 
L 227.479239 180.218209 
L 227.956897 173.33866 
L 228.194151 179.799952 
L 228.491933 174.068237 
L 228.730952 173.80751 
L 229.211707 181.583072 
L 229.507621 182.581716 
L 229.998628 182.697007 
L 230.173069 188.528108 
L 230.408796 184.678833 
L 230.705939 177.169504 
L 230.945101 186.798334 
L 231.242363 180.50774 
L 231.630147 177.861173 
L 231.663719 171.214112 
L 232.136825 181.599016 
L 232.316057 190.009987 
L 232.434509 176.685954 
L 232.915984 183.387774 
L 233.208451 189.850117 
L 233.387885 182.655507 
L 233.626662 182.712079 
L 233.864567 188.40613 
L 234.163673 174.662271 
L 234.459871 186.840213 
L 234.877477 179.415951 
L 235.11598 179.031345 
L 235.432665 181.583529 
L 235.72695 178.988261 
L 235.906757 185.454555 
L 236.084479 177.633501 
L 236.384217 176.667114 
L 236.621287 186.487303 
L 236.919839 187.449112 
L 237.157824 183.538259 
L 237.395703 188.907137 
L 237.695023 189.077992 
L 237.874902 177.463203 
L 238.290534 183.623177 
L 238.35076 181.009736 
L 238.589264 179.549965 
L 238.828455 176.886791 
L 239.065068 189.667224 
L 239.549082 186.139329 
L 239.840779 189.357895 
L 240.023237 176.753565 
L 240.317181 183.995262 
L 240.614551 185.447651 
L 240.793797 190.053445 
L 241.151839 180.720521 
L 241.569338 185.737836 
L 242.044896 180.769092 
L 242.344062 183.997134 
L 242.641746 183.840205 
L 242.939843 185.410588 
L 243.118815 179.906384 
L 243.41606 176.942349 
L 243.539421 182.283199 
L 243.836562 181.451452 
L 244.071675 182.008289 
L 244.253567 184.291176 
L 244.531837 184.62982 
L 244.760099 181.002528 
L 244.998784 182.594382 
L 245.503869 187.805396 
L 245.741822 187.86993 
L 246.202726 184.103396 
L 246.337942 173.65694 
L 246.460816 175.895108 
L 246.754794 187.905938 
L 247.232263 175.616901 
L 247.469526 189.237318 
L 247.708076 183.192969 
L 248.125328 177.921166 
L 248.363697 179.180978 
L 248.543255 175.360332 
L 248.848689 192.583574 
L 249.020847 179.662893 
L 249.218981 183.906071 
L 249.530817 182.1484 
L 249.796994 184.428828 
L 249.91722 182.425465 
L 250.176782 181.857302 
L 250.454559 185.292292 
L 250.69308 183.226169 
L 250.990238 185.238223 
L 251.171156 187.808714 
L 251.466717 188.259898 
L 251.705896 190.200431 
L 252.004037 186.979896 
L 252.243865 186.553481 
L 252.425758 191.993589 
L 252.66071 188.721305 
L 252.958474 182.549381 
L 253.137428 183.841555 
L 253.437262 189.776931 
L 253.732822 185.676507 
L 253.912799 187.581522 
L 254.151034 183.272539 
L 254.390353 175.736564 
L 254.629948 183.066197 
L 254.866171 194.456833 
L 255.283195 171.027599 
L 255.64118 186.333524 
L 255.702331 185.144766 
L 255.879236 186.814301 
L 256.118256 179.335264 
L 256.357 180.06273 
L 256.596713 188.798262 
L 257.013573 190.433302 
L 257.134596 180.757587 
L 257.61066 189.327987 
L 257.848051 184.073078 
L 258.20509 179.557133 
L 258.445132 189.712721 
L 258.859825 175.224313 
L 259.158214 180.046943 
L 259.487917 181.953345 
L 259.730147 184.059099 
L 259.876027 194.09153 
L 260.173233 180.691007 
L 260.294447 184.398155 
L 260.591149 189.839327 
L 260.949329 204.140374 
L 261.322962 183.288251 
L 261.602805 179.46536 
L 262.086563 185.044081 
L 262.328785 179.967689 
L 262.55622 183.502244 
L 262.794199 182.845089 
L 263.151773 173.135634 
L 263.330837 183.8659 
L 263.7477 193.20076 
L 263.866901 188.644317 
L 264.105397 189.361956 
L 264.285849 177.62777 
L 264.643203 190.155664 
L 264.881961 187.765966 
L 265.058864 189.221523 
L 265.714773 177.203719 
L 265.955612 177.086005 
L 266.191948 188.436236 
L 266.252174 186.300249 
L 266.48981 183.064801 
L 266.788459 184.391595 
L 267.09442 183.671487 
L 267.324829 182.089577 
L 267.563622 192.699036 
L 267.759853 185.720732 
L 268.338011 181.118088 
L 268.532791 183.73165 
L 268.756773 184.264842 
L 269.017167 183.268058 
L 269.233644 176.472034 
L 269.530633 173.62246 
L 269.887378 177.148211 
L 270.125731 177.327776 
L 270.245132 184.20707 
L 270.661966 185.815709 
L 270.960397 181.61025 
L 271.318588 177.686362 
L 271.561653 188.991036 
L 271.735812 177.309236 
L 271.975033 187.386247 
L 272.454512 177.384654 
L 272.689423 192.183652 
L 272.927961 174.606978 
L 273.643316 184.618709 
L 274.219372 187.576096 
L 274.658263 182.510512 
L 274.845561 184.598162 
L 275.037647 184.22221 
L 275.313574 188.083743 
L 275.437851 178.444306 
L 275.791628 179.065101 
L 275.91339 186.408617 
L 276.20821 188.360831 
L 276.393789 176.790487 
L 276.812326 184.07881 
L 277.049078 171.821527 
L 277.162083 180.606558 
L 277.590469 187.888126 
L 277.779075 178.487003 
L 277.939041 191.337742 
L 278.12053 193.844614 
L 278.475781 172.369713 
L 278.624491 183.226048 
L 278.955747 177.260117 
L 279.193852 178.676694 
L 279.431173 191.45917 
L 279.612332 173.071864 
L 279.907556 186.312833 
L 280.086959 184.362784 
L 280.384925 195.388474 
L 280.623809 182.939227 
L 280.980465 185.226065 
L 281.1601 185.518017 
L 281.457142 181.025211 
L 281.594071 174.095572 
L 281.873928 188.927533 
L 282.056615 176.074732 
L 282.113657 188.662016 
L 282.351481 183.308949 
L 282.533731 185.968855 
L 282.828435 186.209024 
L 283.068365 188.196496 
L 283.306338 185.039112 
L 283.66432 198.440063 
L 283.961917 184.419369 
L 284.088847 171.956443 
L 284.563335 189.806515 
L 284.856401 191.6372 
L 285.034625 176.872669 
L 285.276257 185.777779 
L 285.690436 185.425776 
L 286.048783 194.381141 
L 286.292195 190.646374 
L 286.526687 176.370684 
L 286.769413 179.563652 
L 287.007247 168.10622 
L 287.262421 187.369137 
L 287.484106 174.349388 
L 287.84259 184.431164 
L 288.024509 198.453578 
L 288.259375 186.768253 
L 288.497522 195.961446 
L 288.736219 191.582192 
L 289.035046 182.283729 
L 289.24077 181.249007 
L 289.455069 194.52441 
L 289.811148 190.937109 
L 290.227704 201.52275 
L 290.347633 182.55179 
L 290.465879 197.129377 
L 290.883363 172.499994 
L 290.948755 196.414534 
L 291.225488 187.675089 
L 291.495528 172.017192 
L 291.679836 187.885439 
L 292.13465 166.051228 
L 292.194976 191.841192 
L 292.432576 190.667169 
L 292.969282 179.169014 
L 293.207555 180.611954 
L 293.504983 186.42687 
L 293.689059 181.689588 
L 293.924229 169.204086 
L 294.221147 165.032368 
L 294.466574 177.474816 
L 294.698997 164.369058 
L 294.878318 182.252046 
L 295.173661 176.007802 
L 295.4127 191.042641 
L 295.717231 195.361532 
L 295.948103 171.510625 
L 296.426372 188.333258 
L 296.607631 187.724561 
L 296.961851 183.570126 
L 297.152314 176.602539 
L 297.438974 190.398471 
L 297.620443 174.428516 
L 297.929888 186.083188 
L 298.095365 183.113706 
L 298.335465 187.067773 
L 298.632709 175.292136 
L 298.870236 186.568517 
L 299.108436 185.400492 
L 299.60655 187.890226 
L 299.827215 189.636606 
L 300.182774 172.517342 
L 300.361705 188.378926 
L 300.600166 178.063396 
L 300.854175 188.954372 
L 301.079765 176.917468 
L 301.494049 204.49762 
L 301.613328 186.79515 
L 301.911255 204.278796 
L 302.09056 180.037226 
L 302.626399 188.94469 
L 302.80676 201.366451 
L 303.043886 184.011353 
L 303.341324 184.046184 
L 303.54503 180.455881 
L 303.826118 187.576894 
L 304.119111 183.249349 
L 304.41641 182.275413 
L 304.595673 189.822928 
L 304.95287 184.663442 
L 305.252232 175.53415 
L 305.31073 181.316799 
L 305.548602 184.138789 
L 305.846457 178.546379 
L 306.02906 185.145743 
L 306.385283 183.807569 
L 306.562027 167.89139 
L 306.996024 186.504235 
L 307.281744 183.847367 
L 307.656728 182.87601 
L 307.900046 181.866015 
L 308.067971 184.528463 
L 308.299126 173.90629 
L 308.537897 196.148607 
L 308.839248 180.569326 
L 309.086734 180.900727 
L 309.313549 179.098997 
L 309.455479 180.958651 
L 309.930311 177.205092 
L 310.001814 177.758796 
L 310.28921 189.539332 
L 310.527271 171.962181 
L 310.708003 193.782062 
L 311.063774 185.126764 
L 311.611583 201.092753 
L 311.781527 174.907917 
L 312.017687 177.220261 
L 312.375319 198.947326 
L 312.501747 183.808142 
L 312.732977 182.427878 
L 313.090224 182.296716 
L 313.212638 0.72 
L 313.805492 23.689984 
L 314.235778 138.257718 
L 314.58015 142.741625 
L 314.701814 163.366939 
L 314.938888 176.535491 
L 315.594079 188.727476 
L 315.682591 189.211393 
L 316.016983 188.063806 
L 316.33419 185.023491 
L 316.452034 211.63821 
L 316.695304 190.390116 
L 316.995565 202.972702 
L 317.110027 183.626136 
L 317.410895 189.884561 
L 317.763281 181.48818 
L 318.060545 181.690562 
L 318.180102 181.272539 
L 318.359189 176.976073 
L 318.718927 194.157192 
L 318.959086 193.425779 
L 319.49789 171.299454 
L 319.614865 180.877633 
L 319.910478 165.836515 
L 320.14826 179.866182 
L 320.624731 185.953712 
L 320.864807 182.195141 
L 321.102007 197.609093 
L 321.340325 186.687541 
L 321.584298 184.295691 
L 321.878065 201.53126 
L 322.357206 183.153405 
L 322.592008 180.67788 
L 322.840479 183.092484 
L 323.070052 181.704227 
L 323.310491 181.77051 
L 323.548541 169.956287 
L 323.963903 171.122737 
L 324.083748 182.876141 
L 324.50419 174.743973 
L 324.569671 191.354567 
L 324.802157 181.305415 
L 325.454334 182.541107 
L 325.633327 185.036166 
L 325.812051 181.024203 
L 326.051482 194.890441 
L 326.294583 191.997829 
L 326.530758 183.987817 
L 326.852363 189.431234 
L 327.242305 179.717748 
L 327.301953 184.7922 
L 327.540635 181.38489 
L 327.778986 182.396089 
L 328.020226 179.650397 
L 328.256505 181.252439 
L 328.495475 195.117087 
L 328.794246 174.145949 
L 329.171816 182.912918 
L 329.275333 175.998952 
L 329.508337 170.053852 
L 329.745474 190.60065 
L 330.162941 181.959645 
L 330.282264 182.195363 
L 330.580948 182.375304 
L 330.761294 175.04352 
L 331.057073 180.82798 
L 331.312423 172.87606 
L 331.798258 186.277805 
L 332.018819 178.893682 
L 332.487919 180.917185 
L 332.725398 178.5383 
L 333.024265 182.263944 
L 333.267721 177.620768 
L 333.502737 176.060314 
L 333.741417 184.702279 
L 333.980504 181.374975 
L 334.226045 174.736282 
L 334.581092 188.940939 
L 335.022935 180.804699 
L 335.231468 181.296661 
L 335.709664 169.729332 
L 335.971918 173.425939 
L 336.184852 184.991159 
L 336.423478 185.807136 
L 336.663453 185.65532 
L 336.900926 178.57707 
L 337.317585 183.04325 
L 337.437428 186.430524 
L 337.736454 179.333389 
L 337.916816 182.195449 
L 338.161358 194.610633 
L 338.54477 174.887782 
L 338.658091 185.050623 
L 338.944233 182.086802 
L 338.991294 180.320216 
L 339.29103 194.843102 
L 339.410048 179.970423 
L 339.825811 181.737556 
L 339.945144 180.659114 
L 340.12328 182.160218 
L 340.421547 186.849533 
L 340.719728 172.211393 
L 340.898441 179.841326 
L 341.13678 182.666058 
L 341.375437 180.539799 
L 341.615004 185.840306 
L 341.917182 176.215444 
L 342.091832 175.925811 
L 342.390217 186.087208 
L 342.592547 183.25635 
L 342.865715 182.458096 
L 343.224194 171.69943 
L 343.364331 182.195474 
L 343.582206 182.195474 
L 343.819625 183.554857 
L 344.2367 181.235388 
L 344.355474 186.080613 
L 344.835051 178.139696 
L 345.073439 181.015009 
L 345.381281 179.313051 
L 345.609531 176.143579 
L 345.793405 189.232748 
L 346.084919 179.910088 
L 346.386542 179.995043 
L 346.623265 190.908819 
L 346.800697 176.479373 
L 347.046882 183.088666 
L 347.336523 185.683739 
L 347.633595 183.455584 
L 347.812551 180.276667 
L 348.051726 181.945395 
L 348.470912 183.59736 
L 348.531021 181.545538 
L 348.830156 181.838439 
L 349.025631 182.428583 
L 349.25029 176.098187 
L 349.603408 182.565896 
L 349.8421 182.280685 
L 350.139628 179.727389 
L 350.557034 198.20058 
L 350.855204 178.698431 
L 351.033535 179.953516 
L 351.272515 182.592365 
L 351.510253 195.280416 
L 351.86755 169.541249 
L 352.048182 183.99587 
L 352.34541 178.273075 
L 352.643325 183.691443 
L 352.763199 180.669623 
L 353.001631 170.853884 
L 353.358236 184.604637 
L 353.777296 183.110737 
L 354.192068 192.88874 
L 354.49016 175.667127 
L 354.729169 182.344152 
L 354.967142 180.984467 
L 355.26572 182.990925 
L 355.563366 182.195474 
L 355.691361 171.856376 
L 355.993376 182.143766 
L 356.230389 182.311297 
L 356.695564 170.997221 
L 357.11492 172.142001 
L 357.232346 185.320503 
L 357.414082 181.435743 
L 357.768024 183.081634 
L 358.067321 180.945029 
L 358.200121 177.703142 
L 358.619507 182.195474 
L 358.726755 176.580579 
L 358.964857 176.001019 
L 359.203431 183.745135 
L 359.448191 183.678134 
L 359.739861 182.007626 
L 359.918637 183.229406 
L 360.223373 179.119284 
L 360.464925 173.219796 
L 360.754514 192.994911 
L 360.876193 174.851807 
L 361.129106 181.005909 
L 361.415503 175.792184 
L 361.661674 182.643887 
L 361.887082 182.105159 
L 362.185637 179.944161 
L 362.424082 186.86219 
L 362.662654 182.921041 
L 362.950189 175.385698 
L 363.20353 194.893921 
L 363.423447 181.377894 
L 363.622003 183.786193 
L 363.916371 171.612207 
L 364.393153 181.794187 
L 364.630544 183.431667 
L 364.92917 180.381426 
L 365.107627 182.403341 
L 365.345698 180.44516 
L 365.643635 196.441914 
L 365.941582 183.028482 
L 366.120566 184.210302 
L 366.430486 171.925349 
L 366.661699 182.195474 
L 366.95586 182.195474 
L 367.137644 181.759043 
L 367.313284 180.350374 
L 367.613202 182.195474 
L 367.848153 176.60859 
L 368.164973 176.002919 
L 368.328014 184.69009 
L 368.629685 173.016314 
L 368.92628 182.248854 
L 369.113805 180.639872 
L 369.34484 181.500098 
L 369.529356 185.259531 
L 369.821758 184.760983 
L 370.240307 197.479163 
L 370.360723 178.303019 
L 370.778089 183.554688 
L 371.015218 181.279158 
L 371.312315 172.338595 
L 371.555098 180.428661 
L 371.789135 180.763978 
L 372.027824 182.950971 
L 372.325578 181.034723 
L 372.861574 174.104961 
L 373.397043 183.728345 
L 373.93445 171.249527 
L 373.993192 204.223849 
L 374.356468 183.974592 
L 374.64956 179.849427 
L 374.71244 180.923074 
L 375.080509 181.17271 
L 375.245909 183.289841 
L 375.486534 176.572851 
L 375.841426 183.108591 
L 376.021182 182.314114 
L 376.325316 177.082236 
L 376.501063 196.870182 
L 376.735908 183.893331 
L 377.275259 183.300116 
L 377.454122 169.719374 
L 377.691085 171.267719 
L 377.97089 184.28552 
L 378.467507 182.195474 
L 378.705786 182.364555 
L 379.003346 171.359855 
L 379.182787 182.473536 
L 379.541591 180.038904 
L 379.77876 188.806714 
L 379.957593 185.203676 
L 380.315476 183.814306 
L 380.43452 178.249613 
L 380.67377 178.896909 
L 380.971538 177.822984 
L 381.209422 182.758319 
L 381.566802 183.02807 
L 381.744983 181.300155 
L 382.170296 182.379717 
L 382.401177 186.817411 
L 382.640935 176.519063 
L 382.938268 184.589473 
L 383.116642 180.393107 
L 383.414778 182.974545 
L 383.653191 182.255871 
L 383.891272 173.788132 
L 384.130172 183.236533 
L 384.36784 184.92562 
L 385.141968 171.539775 
L 385.442062 181.751182 
L 385.737779 183.123165 
L 385.982328 190.429993 
L 386.154941 173.318318 
L 386.572481 182.483521 
L 386.633083 181.559489 
L 386.871953 180.799001 
L 387.288124 182.370812 
L 387.408358 169.461279 
L 387.704159 190.814497 
L 387.883735 181.294649 
L 388.12156 181.670546 
L 388.360572 172.21407 
L 388.83674 182.498515 
L 389.078696 183.99194 
L 389.373409 181.51508 
L 389.673069 182.304844 
L 389.731908 182.95875 
L 389.85151 182.195474 
L 390.209139 182.195474 
L 390.327434 176.966624 
L 390.566718 183.911916 
L 390.866233 197.462714 
L 391.578394 182.657169 
L 391.956832 182.553782 
L 392.061414 181.284525 
L 392.294363 187.980594 
L 392.534085 173.55766 
L 392.832412 179.510197 
L 393.014287 183.33039 
L 393.427847 172.149894 
L 393.65145 190.034166 
L 393.785792 183.770398 
L 394.023607 183.745299 
L 394.261973 182.863194 
L 394.507191 183.168078 
L 394.798172 184.051693 
L 395.156539 179.628181 
L 395.275553 173.522517 
L 395.574048 178.768408 
L 395.817442 180.196632 
L 396.050757 176.827795 
L 396.289007 180.595346 
L 396.468688 181.171084 
L 396.709418 183.40345 
L 397.006497 184.310725 
L 397.24286 183.243192 
L 397.480824 174.783304 
L 397.839129 182.423931 
L 398.01748 179.167336 
L 398.255879 181.254276 
L 398.493969 172.310114 
L 398.732782 182.363002 
L 399.032184 183.021874 
L 399.38968 179.730311 
L 399.629341 179.363955 
L 399.867123 193.703565 
L 399.986143 174.853157 
L 400.464749 184.790648 
L 400.710246 177.37906 
L 401.000306 174.914034 
L 401.240795 183.787177 
L 401.476641 184.932086 
L 401.775515 180.953733 
L 401.955105 183.4414 
L 402.253688 196.368525 
L 402.431344 176.092047 
L 402.669635 183.080539 
L 402.908526 182.055093 
L 403.206332 179.202668 
L 403.397622 192.462844 
L 403.633589 182.740946 
L 403.922551 180.461902 
L 404.402506 184.475864 
L 404.641312 178.505969 
L 404.947887 194.516142 
L 405.175669 181.427717 
L 405.385104 184.110955 
L 405.65268 185.61701 
L 405.894417 196.161624 
L 406.132636 183.462915 
L 406.426561 183.84398 
L 406.667313 179.514077 
L 406.963223 181.368438 
L 407.144113 198.865497 
L 407.380891 196.495181 
L 407.619993 180.423227 
L 407.860801 181.715232 
L 408.217822 177.473371 
L 408.398363 198.369366 
L 408.636507 182.393344 
L 408.917998 181.991487 
L 409.234688 184.379717 
L 409.470635 174.928736 
L 409.589722 194.286466 
L 409.829013 195.753918 
L 410.126347 180.503198 
L 410.42592 181.203794 
L 410.606015 185.476199 
L 410.844374 178.222218 
L 411.143152 181.974507 
L 411.320402 180.738151 
L 411.619643 181.106704 
L 411.857209 185.967349 
L 412.096215 171.030596 
L 412.512689 182.195474 
L 412.58546 180.425754 
L 412.87158 182.632712 
L 413.062343 187.114012 
L 413.456757 174.444986 
L 413.584819 186.04904 
L 413.81476 182.316237 
L 414.11483 180.609949 
L 414.472681 181.070084 
L 414.533583 172.103672 
L 414.830286 184.627355 
L 415.068038 184.311997 
L 415.309724 182.861113 
L 415.559664 182.195474 
L 415.96323 184.589025 
L 416.023198 183.722174 
L 416.321581 184.925854 
L 416.563927 181.883045 
L 416.805148 188.062711 
L 417.002271 178.139983 
L 417.276707 188.048958 
L 417.756951 181.422211 
L 418.054464 180.144923 
L 418.471725 182.477145 
L 418.530943 181.287184 
L 418.770431 186.040783 
L 419.126668 183.041219 
L 419.305279 175.005426 
L 419.487583 175.310172 
L 419.724077 173.504652 
L 419.962564 181.541378 
L 420.281437 182.259187 
L 420.501517 181.167232 
L 420.738015 190.318628 
L 420.975057 181.656682 
L 421.214128 182.856884 
L 421.512226 181.618929 
L 421.693249 183.931321 
L 422.225812 186.30335 
L 422.234324 90.016811 
L 422.468961 183.590466 
L 422.825214 172.848854 
L 423.004989 176.590933 
L 423.252127 176.956463 
L 423.484338 183.442537 
L 423.840978 183.674033 
L 423.960579 175.871869 
L 424.145321 183.333578 
L 424.43705 185.382786 
L 424.675708 182.195474 
L 424.915208 182.91291 
L 425.155055 185.185435 
L 425.574673 197.496788 
L 425.629286 171.964605 
L 425.988437 181.700152 
L 426.172027 180.861415 
L 426.40654 182.28887 
L 426.64547 182.542913 
L 427.065099 181.970276 
L 427.190077 177.10454 
L 427.445399 183.29372 
L 427.659166 172.903238 
L 427.90644 174.162934 
L 427.958088 185.625938 
L 428.19698 190.393389 
L 428.436409 182.162961 
L 428.619145 185.437568 
L 428.8559 181.638518 
L 429.151322 182.06296 
L 429.628082 198.811955 
L 430.10485 169.952292 
L 430.344322 168.922516 
L 430.903823 182.502302 
L 431.121983 183.034264 
L 431.357652 238.963677 
L 431.597523 238.725411 
L 431.843497 219.253719 
L 432.095657 211.364468 
L 432.328044 209.390244 
L 432.561897 209.315583 
L 432.821237 194.045238 
L 433.594031 182.196768 
L 433.87843 185.418939 
L 434.121676 180.777124 
L 434.414608 180.956837 
L 434.534949 175.712828 
L 434.776173 178.196718 
L 435.198864 171.566408 
L 435.318081 182.137259 
L 435.54992 181.463073 
L 435.793016 179.231417 
L 436.163582 186.980738 
L 436.324342 183.844061 
L 436.627299 184.87905 
L 436.862153 182.634448 
L 437.100266 177.941342 
L 437.400723 189.603398 
L 437.640155 172.393391 
L 438.242412 194.019774 
L 438.507695 185.039129 
L 438.778576 187.953769 
L 439.093849 181.428448 
L 439.259491 168.396687 
L 439.609454 180.575033 
L 439.813723 176.220734 
L 440.027646 184.090883 
L 440.326857 180.402447 
L 440.505242 185.278517 
L 440.743769 186.470867 
L 440.985603 184.752211 
L 441.360449 175.871264 
L 441.460589 178.302337 
L 441.817555 182.103903 
L 441.996582 185.946219 
L 442.476381 175.185125 
L 442.882088 186.57138 
L 443.119643 184.989542 
L 443.306995 188.690737 
L 443.537398 165.711538 
L 443.835364 188.472148 
L 444.193965 184.289723 
L 444.670741 173.992141 
L 445.029606 191.16872 
L 445.21114 187.298349 
L 445.566243 176.485199 
L 445.69185 195.683226 
L 446.223006 179.38833 
L 446.46149 183.699944 
L 446.703529 177.161655 
L 446.93948 179.28621 
L 447.182432 184.540067 
L 447.4174 181.857672 
L 447.656135 173.343267 
L 447.904892 184.50661 
L 448.138367 177.318107 
L 448.437338 185.762671 
L 448.625267 181.660319 
L 449.152725 183.460189 
L 449.392189 174.769494 
L 449.808343 184.710699 
L 449.89612 181.856463 
L 450.16705 187.938707 
L 450.46407 188.123165 
L 450.761942 180.724457 
L 450.94209 185.117777 
L 451.180519 173.639744 
L 451.425902 182.972258 
L 451.658653 182.376603 
L 452.077357 189.138847 
L 452.326715 177.404539 
L 452.613173 185.970371 
L 452.864845 183.699125 
L 453.098099 173.38082 
L 453.469682 182.16934 
L 453.632802 173.525711 
L 453.809319 187.642297 
L 454.134366 189.801532 
L 454.345201 172.907373 
L 454.765606 181.998699 
L 454.847127 179.331989 
L 455.071869 186.63778 
L 455.300727 179.622168 
L 455.539853 179.688711 
L 455.961335 184.598986 
L 456.150748 191.289905 
L 456.566905 171.647861 
L 456.984034 181.517844 
L 457.044693 177.088799 
L 457.700957 185.457453 
L 457.762486 184.171778 
L 458.176246 172.204772 
L 458.295734 189.164112 
L 458.535771 179.3696 
L 458.772737 183.694939 
L 459.18988 179.040764 
L 459.309275 183.078992 
L 459.548312 180.16572 
L 459.792529 180.382975 
L 459.846799 184.172419 
L 460.026983 178.406763 
L 460.264394 164.99089 
L 460.505547 185.044219 
L 460.801349 187.027659 
L 460.981197 182.159625 
L 461.300883 182.243155 
L 461.461133 187.492917 
L 461.759676 170.527788 
L 461.997667 184.682264 
L 462.240011 179.234494 
L 462.535859 187.255896 
L 462.954361 176.969804 
L 463.252644 184.425728 
L 463.439137 179.1971 
L 463.848593 178.079426 
L 463.995751 183.72847 
L 464.210024 183.385614 
L 464.468285 181.186414 
L 464.68398 181.999121 
L 464.923343 187.31913 
L 465.170704 183.303593 
L 465.469677 174.974279 
L 465.710789 183.31044 
L 466.009353 185.540831 
L 466.243917 183.023361 
L 466.483619 181.753742 
L 466.663185 187.233448 
L 466.961408 182.271748 
L 467.199234 184.220056 
L 467.597038 180.992257 
L 467.744427 185.424052 
L 467.921045 171.690388 
L 468.454257 186.386703 
L 468.761166 179.829612 
L 468.931187 186.903305 
L 469.179483 183.507725 
L 469.542461 186.001573 
L 469.64942 189.754886 
L 469.893371 190.507546 
L 470.128335 178.332504 
L 470.435389 176.960598 
L 470.683137 181.306642 
L 470.906718 179.010639 
L 471.143739 180.580377 
L 471.389817 175.679813 
L 471.865224 185.928175 
L 472.16172 186.864852 
L 472.456786 182.956476 
L 472.636186 187.005806 
L 473.054076 178.141316 
L 473.400235 183.405455 
L 473.868197 181.065198 
L 474.170263 191.53043 
L 474.354868 175.415405 
L 474.645427 176.696481 
L 474.949827 183.161828 
L 475.125654 173.320471 
L 475.601585 184.954159 
L 476.079329 172.803534 
L 476.317061 173.394925 
L 476.555932 185.431026 
L 476.795462 170.032222 
L 477.212458 174.608858 
L 477.361592 191.840215 
L 477.749946 176.976914 
L 477.868828 185.5762 
L 478.107403 176.971203 
L 478.345862 186.206679 
L 478.643526 177.149337 
L 478.775738 182.811202 
L 479.035221 185.204874 
L 479.305237 173.28097 
L 479.600228 178.554001 
L 479.798874 175.974061 
L 480.01865 176.789709 
L 480.259337 190.703857 
L 480.639147 185.017097 
L 480.797255 187.574503 
L 481.032858 173.050996 
L 481.30086 182.395569 
L 481.594462 182.1322 
L 481.817167 183.391502 
L 482.112202 176.081432 
L 482.54011 188.890305 
L 482.796157 176.925472 
L 483.087039 183.638512 
L 483.208624 173.133732 
L 483.500877 183.232691 
L 483.799178 187.311588 
L 484.097273 181.741032 
L 484.216787 186.325584 
L 484.514676 180.924144 
L 484.761105 168.359103 
L 485.230884 185.914151 
L 485.470722 187.814119 
L 485.76882 183.834557 
L 486.007356 178.396653 
L 486.247979 178.763074 
L 486.483328 181.690652 
L 486.721699 178.484008 
L 486.961225 183.483933 
L 487.206514 182.335233 
L 487.440359 182.12556 
L 487.677248 183.540777 
L 488.037454 178.462047 
L 488.214516 172.78368 
L 488.455338 183.431149 
L 488.751713 177.4823 
L 489.288177 184.241512 
L 489.540319 185.25308 
L 489.706772 184.013822 
L 490.005091 185.313907 
L 490.242896 180.706429 
L 490.683853 185.010081 
L 490.899752 184.413648 
L 491.201618 182.787165 
L 491.494573 189.764635 
L 491.741352 180.508897 
L 491.913287 179.85008 
L 492.154206 185.438016 
L 492.390345 179.893385 
L 492.705805 186.397972 
L 492.884784 184.914988 
L 493.122928 189.759559 
L 493.601015 190.83677 
L 493.66099 182.23143 
L 493.95881 190.579407 
L 494.141209 184.814946 
L 494.380638 182.11753 
L 494.614303 182.118133 
L 494.912142 178.700946 
L 495.092642 171.999757 
L 495.391562 181.626224 
L 495.688062 180.480082 
L 495.866611 183.39156 
L 496.169394 180.824239 
L 496.407336 185.793765 
L 496.644163 171.979854 
L 497.122047 182.338546 
L 497.32743 177.947896 
L 497.602808 180.004452 
L 497.947291 186.038526 
L 498.384535 177.751011 
L 498.621652 179.934885 
L 498.860584 172.766268 
L 499.337413 184.86007 
L 499.576371 179.957236 
L 499.817608 178.407019 
L 500.113488 172.799719 
L 500.293182 184.163595 
L 500.609204 182.278936 
L 500.650281 187.125169 
L 500.829084 190.479904 
L 501.130331 172.8914 
L 501.425955 184.361052 
L 501.604394 184.720177 
L 502.085048 179.079403 
L 502.142852 172.692504 
L 502.321119 181.088765 
L 502.565805 184.096126 
L 503.051282 182.107129 
L 503.27591 185.410704 
L 503.515493 175.880228 
L 503.872555 177.050794 
L 504.051407 186.490042 
L 504.229888 179.454412 
L 504.650095 187.446835 
L 504.707569 176.442679 
L 505.069486 178.675149 
L 505.311707 175.501686 
L 505.547959 180.914528 
L 505.78225 181.290232 
L 506.020268 182.143423 
L 506.266043 188.029792 
L 506.569872 177.549742 
L 506.746757 183.105863 
L 506.993307 182.836802 
L 507.231373 187.003836 
L 507.475334 180.260919 
L 507.708032 181.302788 
L 508.005894 173.933032 
L 508.190358 185.74129 
L 508.485193 171.775293 
L 508.787092 194.142195 
L 509.01986 171.609722 
L 509.275368 169.571587 
L 509.498512 191.039437 
L 509.921977 179.467674 
L 509.97473 183.971821 
L 510.21317 177.964583 
L 510.631246 183.578587 
L 510.691646 182.712138 
L 510.932276 184.861921 
L 511.427141 179.417957 
L 511.731757 182.570747 
L 511.94593 176.20941 
L 512.202575 182.731407 
L 512.42372 180.887235 
L 512.662927 174.342391 
L 512.902669 192.60538 
L 513.214663 173.047549 
L 513.619081 190.358118 
L 513.68035 181.796984 
L 513.915563 188.184407 
L 514.39837 180.360207 
L 514.571539 180.275229 
L 514.703169 187.373031 
L 514.890518 180.935294 
L 515.247869 190.405822 
L 515.468485 183.985251 
L 515.690172 184.289718 
L 515.918439 178.587791 
L 516.15758 178.443627 
L 516.400242 174.034527 
L 516.762513 189.37255 
L 516.922212 182.093731 
L 517.159528 184.844461 
L 517.51651 185.687536 
L 517.702683 179.294861 
L 517.878201 187.102806 
L 518.173168 189.104444 
L 518.480489 181.724138 
L 518.653123 181.054626 
L 518.951708 188.341818 
L 519.130101 181.542452 
L 519.388449 180.054754 
L 519.725267 182.826418 
L 519.86004 176.502732 
L 520.141772 169.913835 
L 520.439599 142.775009 
L 520.621899 158.815948 
L 520.859464 146.782168 
L 521.115203 159.129171 
L 521.39507 153.686898 
L 521.637701 162.753338 
L 521.87368 167.163034 
L 522.117242 161.705217 
L 522.363738 176.303031 
L 522.827932 185.717057 
L 523.266623 185.825893 
L 523.497826 183.059744 
L 523.843711 185.827985 
L 524.131034 182.958392 
L 524.380779 183.02513 
L 524.857058 180.819162 
L 524.9168 181.471622 
L 525.275559 181.768412 
L 525.403427 180.787818 
L 525.814188 181.778617 
L 526.316015 182.161783 
L 526.428741 181.958254 
L 526.596989 182.167365 
L 527.911085 182.195024 
L 528.28225 182.396983 
L 528.686391 182.252261 
L 528.92995 182.591046 
L 529.166701 182.182814 
L 529.284939 182.793594 
L 529.533417 182.198091 
L 530.068147 182.118216 
L 530.905653 182.226417 
L 531.262127 182.10668 
L 531.621121 182.229902 
L 532.001118 182.125217 
L 532.524468 182.262526 
L 532.939696 182.16487 
L 533.23581 182.59106 
L 533.470149 181.85034 
L 533.72434 182.195475 
L 533.946454 182.203268 
L 534.245028 182.00838 
L 534.720395 182.121773 
L 535.028561 182.240275 
L 535.504579 182.176505 
L 540.393637 182.193865 
L 540.636535 182.137936 
L 541.483777 182.195474 
L 554.326986 182.195474 
L 596.502813 182.195474 
L 596.502813 182.195474 
" clip-path="url(#p02840082de)" style="fill: none; stroke: #0000ff; stroke-opacity: 0.7; stroke-width: 1.5; stroke-linecap: square"/>
   </g>
   <g id="line2d_34">
    <path d="M 38.502813 179.439617 
L 38.622916 179.283557 
L 38.937 179.649238 
L 39.111017 179.028908 
L 39.417061 179.409649 
L 40.302791 179.550793 
L 40.541846 179.128808 
L 40.601545 179.210179 
L 41.376814 179.427786 
L 41.559198 179.389001 
L 42.091503 179.555804 
L 42.329583 179.674675 
L 42.628872 179.471859 
L 42.928055 179.835174 
L 43.164095 179.408609 
L 43.819883 179.457207 
L 44.060446 179.811415 
L 44.300935 179.21744 
L 44.599353 179.355874 
L 44.834047 179.165118 
L 45.07223 179.536902 
L 45.371049 179.046687 
L 45.857012 179.030667 
L 46.174796 179.475954 
L 46.328887 179.154985 
L 46.567049 179.006094 
L 47.224756 179.014816 
L 47.405507 179.428913 
L 47.521373 179.164539 
L 47.766181 179.590506 
L 48.003493 179.412232 
L 48.244165 179.694441 
L 48.536913 179.719419 
L 49.14069 179.642853 
L 53.050949 179.836789 
L 54.356612 179.671025 
L 55.661121 179.243858 
L 57.085405 179.418354 
L 58.50861 179.20655 
L 59.813793 179.799462 
L 59.954398 179.680179 
L 60.430319 179.85175 
L 60.669155 179.756279 
L 60.966191 179.758295 
L 61.265892 179.378027 
L 61.445302 178.812915 
L 61.681905 179.660087 
L 61.866132 179.809299 
L 62.104406 179.469468 
L 62.404 179.874537 
L 62.936269 178.961664 
L 63.356366 180.218289 
L 64.130974 179.640351 
L 64.426649 179.158435 
L 64.72558 179.748923 
L 64.844761 179.610282 
L 65.083776 179.558841 
L 65.323835 179.988887 
L 65.860257 178.832322 
L 66.108513 179.419485 
L 66.396826 179.54304 
L 66.578194 179.144205 
L 66.876601 179.596835 
L 66.934528 179.323743 
L 67.112748 179.036105 
L 67.414376 178.977321 
L 67.588886 179.776094 
L 67.829178 179.900663 
L 68.423426 179.897856 
L 68.602529 179.729007 
L 68.783671 179.833403 
L 69.019997 179.601834 
L 69.32384 179.482827 
L 69.855516 180.675412 
L 70.095651 179.657078 
L 70.338534 179.288027 
L 70.523348 179.986827 
L 71.292681 179.417346 
L 71.589579 180.371766 
L 72.070236 179.869533 
L 72.364771 179.265024 
L 72.604817 179.602131 
L 72.782636 180.159163 
L 73.737273 179.799138 
L 73.796233 179.555327 
L 74.034856 179.273641 
L 74.273425 179.224495 
L 74.512377 179.291483 
L 74.809776 179.832557 
L 75.10756 179.542349 
L 75.350039 178.970513 
L 75.534701 178.983628 
L 76.779836 180.010754 
L 77.014868 179.641333 
L 77.211656 179.059362 
L 77.731123 180.283878 
L 78.208334 179.765765 
L 78.445703 179.856032 
L 78.984279 179.572538 
L 79.221395 179.332373 
L 79.46119 179.873556 
L 79.699016 180.029199 
L 79.9365 179.420144 
L 80.296129 178.90036 
L 80.48719 179.436183 
L 80.712316 179.693932 
L 80.950854 179.18102 
L 81.192765 179.100846 
L 81.665653 179.911631 
L 81.785318 179.870751 
L 81.913099 179.020342 
L 82.441028 179.840536 
L 82.859406 179.063974 
L 83.215747 179.574628 
L 83.394399 180.35339 
L 83.632494 180.145224 
L 83.872614 179.262421 
L 84.109856 179.463539 
L 84.411018 180.175589 
L 84.884266 179.380224 
L 85.123897 179.708149 
L 85.361288 180.225587 
L 85.838773 180.424148 
L 86.434523 180.637783 
L 86.893125 179.562343 
L 87.329041 180.332847 
L 87.627622 179.982615 
L 88.103508 178.520755 
L 88.40325 178.473054 
L 88.586765 178.83918 
L 89.536432 179.697969 
L 89.908761 179.567532 
L 90.081212 179.10943 
L 90.548537 179.489531 
L 90.668047 179.822237 
L 90.905672 179.964526 
L 91.263784 179.860492 
L 91.801828 179.705735 
L 92.514883 180.23325 
L 92.754169 179.893714 
L 93.289814 178.90212 
L 93.489754 178.8952 
L 94.004867 179.884074 
L 94.541287 178.987948 
L 94.842115 179.500706 
L 95.019457 180.072446 
L 95.257497 180.148077 
L 95.498953 179.99717 
L 96.064357 180.053908 
L 96.454062 179.574485 
L 96.573099 179.147762 
L 96.628852 179.225689 
L 96.69475 179.751132 
L 96.989749 179.909995 
L 97.48986 178.544835 
L 97.779913 178.98015 
L 98.202731 180.240513 
L 98.47895 179.864901 
L 98.717529 179.282409 
L 99.025598 179.718408 
L 99.325453 179.880379 
L 99.58166 179.343167 
L 99.795665 179.521534 
L 100.391 180.34348 
L 100.526244 180.72211 
L 101.868401 179.665848 
L 103.165642 179.732768 
L 104.594361 179.405881 
L 104.673559 179.622513 
L 105.09155 177.947197 
L 105.454112 177.685547 
L 105.687883 177.986999 
L 106.42681 179.524323 
L 106.688645 179.164501 
L 107.089968 178.323361 
L 107.387998 178.422429 
L 107.688168 178.955784 
L 107.864974 179.659699 
L 108.164534 179.991739 
L 108.347806 179.822353 
L 108.902733 178.167157 
L 109.117895 178.239072 
L 109.477366 179.067136 
L 109.596272 180.216421 
L 109.892792 180.804211 
L 110.192261 180.451486 
L 110.554204 178.883716 
L 110.795086 178.453444 
L 111.052094 178.875396 
L 111.29097 179.640705 
L 111.577019 179.383981 
L 112.049728 178.504448 
L 112.289519 178.834098 
L 112.792567 180.343825 
L 113.325136 180.70918 
L 113.788285 180.178276 
L 114.093357 180.749885 
L 114.33146 180.824928 
L 115.036051 178.673411 
L 115.313819 178.85108 
L 115.937099 179.507957 
L 116.002065 179.912533 
L 116.216076 179.712491 
L 116.30385 178.975062 
L 116.475791 178.795045 
L 116.782905 179.063465 
L 117.249404 179.162263 
L 117.726095 179.552525 
L 118.206256 179.661344 
L 118.450471 179.540739 
L 118.928024 180.086411 
L 119.289499 179.742528 
L 119.523478 179.75822 
L 119.945178 180.806153 
L 120.298612 180.270731 
L 120.606507 179.265326 
L 120.715903 179.292697 
L 120.9231 180.040975 
L 121.194101 180.070371 
L 121.433386 179.407602 
L 121.671188 179.210053 
L 121.912267 179.520635 
L 122.149815 179.637364 
L 122.624796 179.739961 
L 122.690525 180.137185 
L 122.935962 180.532069 
L 123.160922 180.269325 
L 123.69748 179.452427 
L 123.995428 180.144855 
L 124.174029 180.253316 
L 124.35569 179.993749 
L 124.650229 180.026434 
L 124.949134 179.805252 
L 125.13009 179.259761 
L 125.665306 178.599746 
L 126.147722 179.485625 
L 126.390896 179.12509 
L 126.627668 178.997493 
L 126.86069 179.264899 
L 127.397474 179.234043 
L 127.874394 178.943993 
L 128.470607 179.434535 
L 128.590202 179.267473 
L 129.127471 179.310622 
L 129.844012 179.494627 
L 130.080965 179.759707 
L 130.318908 179.794387 
L 130.556998 179.547747 
L 130.795082 179.128195 
L 131.390373 179.321404 
L 131.570561 179.316065 
L 132.070999 178.818997 
L 132.778446 179.070538 
L 133.080422 179.552834 
L 133.269134 180.070493 
L 133.781243 179.223726 
L 134.27389 180.607981 
L 134.511673 180.374082 
L 134.752536 179.320769 
L 134.988169 178.980086 
L 135.524563 179.904897 
L 135.762344 179.357224 
L 136.061597 179.085172 
L 136.537647 179.747166 
L 136.897409 179.327119 
L 137.144696 178.768064 
L 137.371933 178.920308 
L 137.496099 179.388538 
L 137.729921 179.507146 
L 138.237846 178.859834 
L 139.04073 179.428563 
L 139.518495 179.277378 
L 139.876343 179.29489 
L 139.996454 179.179488 
L 140.23413 179.319101 
L 140.475957 179.664606 
L 140.727123 180.2499 
L 141.011902 180.241789 
L 141.192054 179.437431 
L 141.683584 178.714723 
L 141.74323 178.871794 
L 142.220316 180.65926 
L 142.460347 181.220444 
L 142.698106 180.938632 
L 143.173957 179.615959 
L 143.471179 179.900606 
L 143.657606 180.577768 
L 144.128735 180.789942 
L 144.365665 180.300588 
L 144.426045 179.599656 
L 144.665021 179.120488 
L 144.902659 178.939516 
L 145.147247 179.360229 
L 145.379375 180.261111 
L 145.679051 180.823708 
L 146.042843 180.371055 
L 146.15371 179.678099 
L 146.451965 179.822653 
L 146.884804 180.808622 
L 147.644895 179.173498 
L 147.88237 179.323869 
L 148.299554 179.764756 
L 148.41882 180.279732 
L 148.598417 180.238576 
L 149.076012 179.7399 
L 149.613249 179.955388 
L 150.029772 179.910553 
L 150.089694 179.195492 
L 150.565971 178.149584 
L 151.353883 179.162196 
L 151.876006 178.438892 
L 152.532825 180.26263 
L 152.832111 180.448792 
L 153.309231 179.08682 
L 153.54568 179.383892 
L 154.082528 180.71972 
L 154.797409 178.863686 
L 155.03402 179.056154 
L 155.572779 180.145049 
L 155.93189 180.175836 
L 156.288871 178.393733 
L 156.59785 178.059545 
L 157.062934 179.745982 
L 157.244922 180.429732 
L 157.482632 180.388793 
L 158.075811 179.276211 
L 158.493969 178.901594 
L 158.732951 179.9557 
L 159.028959 180.319991 
L 159.268997 179.847311 
L 159.80937 177.905841 
L 159.984424 177.503009 
L 160.639178 179.067733 
L 160.761288 179.957032 
L 161.002186 179.709662 
L 161.236001 178.809356 
L 161.473201 178.561006 
L 161.716034 179.049845 
L 162.194991 180.568585 
L 162.430118 180.690192 
L 162.728429 179.955372 
L 162.970124 178.904994 
L 163.21208 178.524987 
L 163.922713 180.462088 
L 164.397251 179.094061 
L 164.755999 179.142214 
L 165.232577 179.549142 
L 165.410163 179.624608 
L 165.64954 179.421651 
L 165.889046 178.748041 
L 166.126682 178.598606 
L 166.482576 179.001529 
L 166.661225 179.524336 
L 166.89949 179.362541 
L 167.197831 178.689739 
L 167.436563 178.663693 
L 167.91455 179.548606 
L 168.391427 179.314734 
L 168.63296 179.255431 
L 169.165479 179.429701 
L 169.701188 179.366941 
L 169.881582 179.196061 
L 170.359222 179.315765 
L 170.598518 179.521704 
L 171.432118 178.858013 
L 172.569875 179.232901 
L 173.106348 178.803104 
L 173.707388 179.719842 
L 173.81777 179.275605 
L 174.177757 178.567724 
L 174.535783 179.728721 
L 174.91395 179.498081 
L 175.073934 178.794787 
L 175.310543 178.792797 
L 175.787124 180.054257 
L 176.085682 179.791386 
L 176.323655 179.262934 
L 176.579702 179.740773 
L 176.922167 179.747945 
L 177.049623 179.176441 
L 177.336715 178.930869 
L 177.648399 179.306085 
L 177.755713 179.984836 
L 178.11115 180.319753 
L 178.352257 180.059023 
L 178.528778 179.700765 
L 179.243954 179.249381 
L 179.959799 180.532817 
L 180.199819 180.76458 
L 180.554724 179.149226 
L 180.764952 179.093794 
L 181.237254 180.347753 
L 181.716775 179.830683 
L 182.668141 179.284732 
L 182.856642 179.066328 
L 182.972183 179.149784 
L 183.468223 178.983464 
L 184.008236 179.405787 
L 184.480842 179.068867 
L 184.866663 179.146911 
L 184.96201 179.56378 
L 185.214305 179.843399 
L 185.456212 179.639114 
L 185.79372 178.98113 
L 185.914024 178.479271 
L 186.210739 178.828782 
L 186.450096 179.559999 
L 186.688066 179.905254 
L 187.183426 178.711015 
L 187.521698 178.702871 
L 187.761895 178.952693 
L 187.93929 178.946483 
L 188.475599 179.296416 
L 189.608368 179.270593 
L 189.845677 178.956484 
L 189.964926 178.49156 
L 190.203386 178.669862 
L 190.38336 179.379727 
L 190.679785 179.764953 
L 191.396627 178.424107 
L 191.946866 180.268269 
L 192.117173 181.225604 
L 192.356479 181.458871 
L 192.83502 180.021434 
L 193.072666 180.00602 
L 193.31546 180.652257 
L 193.608741 180.843254 
L 193.905827 180.361878 
L 194.087116 179.830455 
L 194.621423 179.757205 
L 194.919455 179.523684 
L 195.159734 179.604507 
L 195.574242 180.551309 
L 195.812728 179.784919 
L 196.050762 179.927774 
L 196.348274 180.751798 
L 196.532194 180.519788 
L 196.824916 179.529803 
L 197.066503 179.20369 
L 197.302744 179.655956 
L 197.540668 179.772972 
L 197.783126 179.338401 
L 198.021222 179.265085 
L 198.278285 180.059636 
L 198.614978 179.769465 
L 198.857745 178.959154 
L 199.328922 179.987819 
L 199.627167 179.507225 
L 199.755281 178.935319 
L 200.037406 179.310051 
L 200.288499 180.007176 
L 200.523074 179.928865 
L 200.76342 178.997567 
L 201.023906 179.128093 
L 201.252764 179.833235 
L 201.602062 179.729317 
L 201.781853 179.329813 
L 202.020372 179.340661 
L 202.734673 180.119905 
L 203.271444 180.015356 
L 204.462725 179.712419 
L 205.059555 179.175212 
L 205.180009 178.931566 
L 205.475165 179.311778 
L 205.723048 180.384875 
L 206.192034 180.673608 
L 206.452348 179.743012 
L 207.266495 181.0007 
L 207.682274 179.897012 
L 207.922916 179.696908 
L 208.218785 179.620451 
L 208.578156 179.367913 
L 208.935203 179.818908 
L 209.830821 179.197509 
L 210.425683 180.530191 
L 211.378598 179.695717 
L 211.677486 179.74111 
L 211.874719 180.242075 
L 212.393738 180.933513 
L 213.168289 178.375513 
L 213.405839 178.689114 
L 213.824739 180.378011 
L 214.121064 180.553754 
L 214.60033 179.718048 
L 214.837813 179.19691 
L 215.076049 179.057233 
L 215.37507 179.320879 
L 215.554742 179.962687 
L 215.851328 180.16372 
L 216.089667 179.697535 
L 216.58001 177.94794 
L 216.811423 177.903365 
L 217.102957 178.550847 
L 217.877773 181.705347 
L 218.056338 181.789898 
L 218.294893 181.557589 
L 219.266031 181.198781 
L 219.30768 180.790125 
L 219.551399 180.475314 
L 220.04435 178.489752 
L 220.32987 178.101415 
L 220.8622 178.14517 
L 221.162767 177.906884 
L 221.338171 177.981056 
L 221.515496 178.520801 
L 221.99322 179.281444 
L 222.055181 180.140872 
L 222.530269 181.594768 
L 222.771536 181.718744 
L 223.248476 180.442129 
L 224.048213 180.267991 
L 224.498476 182.271605 
L 224.976617 184.428745 
L 225.274355 184.947099 
L 226.525541 189.609284 
L 226.707352 189.480627 
L 227.004147 188.297395 
L 227.479239 184.181216 
L 227.717393 183.56075 
L 227.956897 182.214124 
L 228.730952 180.366782 
L 228.972776 179.369761 
L 229.507621 178.449964 
L 229.86666 178.552949 
L 230.408796 179.625997 
L 230.705939 179.687842 
L 230.945101 180.293623 
L 231.242363 180.203793 
L 232.136825 181.509705 
L 232.316057 181.685849 
L 232.434509 181.462507 
L 233.387885 181.88384 
L 233.626662 182.416603 
L 234.459871 180.191438 
L 234.638675 179.263575 
L 234.877477 179.018669 
L 235.11598 178.543368 
L 235.432665 179.033172 
L 235.72695 178.969766 
L 235.906757 179.408402 
L 236.084479 179.053184 
L 236.919839 179.37927 
L 237.157824 179.962184 
L 237.395703 179.787365 
L 237.695023 179.934087 
L 237.874902 179.297673 
L 238.290534 179.120164 
L 238.35076 178.411001 
L 238.828455 178.933378 
L 239.305311 179.837794 
L 239.549082 179.555341 
L 239.840779 179.849554 
L 240.023237 179.457959 
L 240.317181 179.920685 
L 240.614551 180.097302 
L 240.793797 180.526076 
L 241.389884 180.203251 
L 241.569338 180.463605 
L 241.806632 180.577406 
L 242.044896 181.502706 
L 242.344062 181.872513 
L 242.641746 182.785507 
L 243.118815 182.466288 
L 243.539421 181.963052 
L 243.836562 181.667912 
L 244.531837 179.255533 
L 244.760099 178.873563 
L 244.998784 178.0657 
L 245.503869 178.204786 
L 245.741822 179.024242 
L 246.202726 179.551488 
L 246.460816 180.586388 
L 246.754794 180.579043 
L 246.994239 180.913067 
L 247.232263 180.571068 
L 247.469526 180.862495 
L 247.708076 180.675417 
L 248.125328 180.842316 
L 248.363697 180.705395 
L 249.020847 178.183563 
L 249.530817 178.291796 
L 249.91722 180.127729 
L 250.176782 181.26706 
L 250.454559 181.640131 
L 251.171156 181.10771 
L 251.466717 181.15655 
L 251.705896 180.614679 
L 252.004037 180.337491 
L 252.425758 179.514206 
L 252.66071 179.308415 
L 253.137428 179.520662 
L 253.437262 179.338265 
L 253.732822 179.433365 
L 253.912799 179.782344 
L 254.629948 181.898612 
L 254.866171 182.090953 
L 255.64118 181.91253 
L 256.118256 183.673506 
L 256.357 184.420282 
L 256.596713 184.743388 
L 257.013573 184.676462 
L 257.134596 184.060989 
L 257.430682 183.56302 
L 257.848051 181.931167 
L 258.445132 181.021198 
L 258.859825 180.692975 
L 259.876027 179.496057 
L 260.173233 179.740848 
L 260.294447 180.068213 
L 260.591149 179.939553 
L 261.322962 178.467685 
L 261.490067 178.128354 
L 261.602805 178.650816 
L 261.975746 179.604365 
L 262.086563 180.473601 
L 262.328785 180.762274 
L 262.55622 180.678701 
L 262.794199 180.203121 
L 263.151773 179.811009 
L 263.330837 180.087371 
L 263.866901 181.152301 
L 264.105397 180.466404 
L 264.285849 179.483319 
L 264.881961 177.842383 
L 265.058864 177.831552 
L 265.299527 178.865196 
L 265.955612 180.817498 
L 266.252174 180.408655 
L 266.788459 179.621062 
L 267.09442 179.749921 
L 267.324829 179.989751 
L 267.563622 180.420895 
L 267.759853 180.398801 
L 268.099501 179.989238 
L 268.756773 178.056122 
L 269.017167 178.473449 
L 269.530633 179.919356 
L 270.125731 181.123617 
L 270.245132 181.134768 
L 270.723 180.784347 
L 270.960397 180.595651 
L 271.318588 180.473777 
L 271.735812 179.715262 
L 272.273994 178.580665 
L 272.927961 178.776764 
L 273.464189 179.187989 
L 273.969451 179.107856 
L 274.219372 179.350677 
L 274.845561 179.673131 
L 275.037647 179.487293 
L 275.313574 179.799665 
L 275.437851 180.110106 
L 275.91339 180.940268 
L 276.393789 180.944043 
L 277.590469 179.855215 
L 277.779075 179.39984 
L 278.12053 179.483475 
L 278.475781 179.963403 
L 278.624491 180.646202 
L 279.193852 181.074609 
L 280.384925 179.697124 
L 280.623809 179.600093 
L 280.980465 179.836085 
L 281.873928 182.29406 
L 282.113657 183.500274 
L 282.533731 183.744247 
L 282.828435 183.128389 
L 283.306338 181.272855 
L 283.66432 180.853004 
L 283.961917 180.691574 
L 284.088847 180.76669 
L 284.319934 180.513551 
L 285.034625 178.722424 
L 285.276257 178.81059 
L 285.690436 179.594024 
L 285.810779 180.819924 
L 286.292195 181.484029 
L 287.262421 181.774778 
L 287.484106 182.150479 
L 288.024509 182.513921 
L 288.259375 181.775723 
L 288.736219 179.625898 
L 289.035046 179.524343 
L 289.811148 181.919542 
L 290.347633 182.71383 
L 290.465879 182.511011 
L 290.883363 182.477072 
L 290.948755 182.70161 
L 291.225488 182.411001 
L 291.495528 181.607045 
L 291.679836 180.562544 
L 292.13465 180.016163 
L 292.194976 179.522131 
L 292.432576 179.619773 
L 292.730948 179.433312 
L 293.207555 178.430724 
L 293.504983 178.397308 
L 294.466574 181.528113 
L 294.698997 181.722531 
L 294.878318 180.785082 
L 295.4127 179.767008 
L 295.717231 179.433893 
L 296.426372 180.418455 
L 297.152314 178.084075 
L 297.438974 177.780135 
L 297.620443 178.005786 
L 297.929888 178.960926 
L 298.095365 180.375121 
L 298.335465 180.973563 
L 298.632709 180.837926 
L 299.108436 178.780191 
L 299.60655 178.942425 
L 299.827215 180.673987 
L 300.182774 181.430005 
L 300.361705 181.342274 
L 300.854175 179.429651 
L 301.079765 178.534366 
L 301.494049 178.897347 
L 301.613328 179.906279 
L 301.911255 180.682021 
L 302.80676 179.5748 
L 303.54503 181.672961 
L 303.826118 181.269628 
L 304.41641 179.250779 
L 304.595673 178.609274 
L 304.95287 178.708169 
L 305.252232 178.928804 
L 305.31073 179.447578 
L 305.548602 178.923443 
L 306.02906 177.228233 
L 306.385283 176.974254 
L 306.562027 177.330891 
L 306.996024 178.835477 
L 307.281744 178.513226 
L 307.656728 177.844683 
L 307.900046 177.135649 
L 308.067971 177.24883 
L 308.839248 181.397676 
L 309.313549 182.230244 
L 309.455479 181.926886 
L 310.001814 181.725252 
L 310.28921 181.955316 
L 310.527271 181.527695 
L 310.708003 180.525187 
L 311.063774 179.640786 
L 311.242711 178.652632 
L 311.781527 177.311749 
L 312.017687 177.781232 
L 312.375319 177.809826 
L 313.090224 177.137465 
L 313.805492 142.954291 
L 314.235778 108.114982 
L 314.701814 95.965323 
L 314.938888 93.872951 
L 315.594079 92.64022 
L 316.016983 106.957283 
L 316.33419 122.991949 
L 316.452034 142.10575 
L 316.695304 160.845646 
L 317.110027 178.055533 
L 317.410895 181.87671 
L 317.763281 183.120955 
L 318.060545 182.966665 
L 318.180102 183.404567 
L 318.959086 179.887353 
L 319.49789 173.591829 
L 319.614865 169.749992 
L 320.14826 163.681757 
L 320.328134 164.058149 
L 320.864807 169.984635 
L 321.102007 172.710149 
L 321.340325 174.105267 
L 321.584298 174.298112 
L 321.878065 174.293588 
L 322.117615 175.022116 
L 322.840479 178.845584 
L 323.070052 178.226061 
L 323.548541 174.403291 
L 324.083748 172.107087 
L 324.50419 172.14949 
L 324.569671 172.632134 
L 325.098086 174.197289 
L 325.454334 175.046821 
L 325.812051 176.562218 
L 326.051482 177.026298 
L 326.294583 177.140546 
L 326.852363 176.617972 
L 327.242305 175.952285 
L 327.301953 174.807458 
L 328.020226 169.54094 
L 328.256505 168.952051 
L 328.495475 169.569068 
L 329.171816 172.484996 
L 329.275333 174.229534 
L 329.745474 177.410766 
L 330.162941 179.083653 
L 330.282264 180.461822 
L 330.580948 181.39372 
L 330.761294 181.428321 
L 331.057073 180.230523 
L 332.725398 170.514445 
L 333.024265 170.298365 
L 333.267721 170.677881 
L 333.741417 172.895724 
L 334.226045 173.948532 
L 334.581092 174.320148 
L 334.762633 174.316489 
L 335.022935 173.957726 
L 335.709664 172.617145 
L 336.184852 171.866982 
L 336.423478 172.197299 
L 337.916816 175.842226 
L 338.161358 175.712147 
L 338.944233 175.50003 
L 338.991294 175.433923 
L 340.12328 174.749434 
L 340.421547 174.47901 
L 340.719728 174.561881 
L 340.898441 174.745892 
L 341.13678 174.814376 
L 341.375437 174.715628 
L 341.917182 174.159796 
L 342.390217 173.14767 
L 342.592547 172.84034 
L 342.865715 173.031174 
L 343.224194 173.483941 
L 343.819625 174.914048 
L 344.2367 175.66248 
L 344.355474 176.468201 
L 345.073439 178.980315 
L 345.381281 178.809404 
L 345.793405 177.902509 
L 346.084919 177.807956 
L 346.386542 177.552878 
L 346.623265 176.985926 
L 347.046882 174.631454 
L 347.336523 173.637355 
L 347.633595 173.537539 
L 348.051726 175.15847 
L 348.470912 175.442754 
L 348.531021 175.006876 
L 349.025631 174.16497 
L 349.25029 174.470658 
L 349.603408 175.333592 
L 349.8421 176.307246 
L 350.139628 176.503655 
L 350.557034 174.576019 
L 350.855204 174.019397 
L 351.332358 174.753639 
L 351.510253 175.500887 
L 352.048182 176.480958 
L 352.34541 176.401085 
L 352.643325 176.193366 
L 352.763199 176.360028 
L 353.358236 177.959392 
L 353.656081 178.037655 
L 354.192068 176.945306 
L 354.26785 175.880884 
L 354.729169 174.023038 
L 354.967142 174.002027 
L 355.26572 174.560607 
L 355.563366 174.789906 
L 356.230389 173.749237 
L 356.695564 173.741097 
L 357.11492 174.094038 
L 357.414082 175.454024 
L 357.768024 175.191845 
L 358.200121 173.824795 
L 358.619507 174.490498 
L 358.726755 175.272324 
L 358.964857 175.59527 
L 359.203431 175.472212 
L 359.448191 175.142932 
L 359.739861 175.054583 
L 359.918637 174.679572 
L 360.223373 174.448518 
L 360.464925 174.720667 
L 360.876193 174.690125 
L 361.129106 174.947845 
L 361.415503 175.691027 
L 361.887082 177.20328 
L 362.185637 176.629824 
L 362.424082 175.798956 
L 362.662654 175.930939 
L 362.950189 176.355234 
L 363.20353 176.280949 
L 363.916371 173.627469 
L 364.298259 173.807357 
L 364.393153 174.36403 
L 364.630544 174.988502 
L 364.92917 175.188933 
L 365.345698 174.619134 
L 365.643635 175.19407 
L 366.120566 176.302433 
L 366.430486 175.848775 
L 366.661699 174.95241 
L 366.95586 174.51942 
L 367.137644 174.79426 
L 367.313284 175.679357 
L 367.613202 176.138125 
L 367.848153 175.83248 
L 368.164973 174.977478 
L 368.328014 174.858492 
L 368.92628 176.020321 
L 369.113805 175.990182 
L 369.529356 174.976148 
L 369.821758 174.813682 
L 370.240307 175.0765 
L 370.360723 174.93253 
L 370.778089 174.934279 
L 371.312315 174.303943 
L 371.789135 174.449105 
L 372.027824 174.222951 
L 372.325578 173.757486 
L 372.572937 173.655672 
L 372.861574 174.652533 
L 373.223258 175.436449 
L 373.518933 174.452822 
L 373.93445 174.353411 
L 373.993192 174.772903 
L 374.64956 175.8201 
L 374.71244 175.72733 
L 375.080509 174.988164 
L 375.245909 174.163178 
L 375.486534 173.969318 
L 375.841426 174.767873 
L 376.021182 175.81664 
L 376.325316 176.58971 
L 376.501063 176.365137 
L 376.735908 175.674512 
L 377.154139 175.28873 
L 377.275259 175.538672 
L 377.454122 176.409224 
L 377.691085 176.581923 
L 378.228234 175.432631 
L 378.705786 175.177886 
L 379.541591 174.710666 
L 379.77876 175.046995 
L 379.957593 174.884844 
L 380.315476 174.786189 
L 380.43452 174.946331 
L 380.67377 174.678152 
L 380.971538 174.089719 
L 381.209422 173.872739 
L 381.566802 174.593657 
L 381.744983 175.754722 
L 382.170296 176.53899 
L 382.401177 175.858723 
L 382.640935 175.583899 
L 382.938268 175.615008 
L 383.116642 176.105753 
L 383.414778 176.581751 
L 383.653191 176.484015 
L 384.36784 174.008486 
L 384.608478 174.189734 
L 385.024513 175.085234 
L 385.141968 176.066556 
L 385.442062 176.243059 
L 386.154941 174.355569 
L 386.572481 174.826269 
L 386.633083 175.579122 
L 386.871953 175.716674 
L 387.288124 175.135191 
L 387.408358 174.016295 
L 387.704159 173.046796 
L 387.883735 172.929096 
L 388.657811 175.810256 
L 388.83674 175.81713 
L 389.078696 175.089026 
L 389.373409 174.571316 
L 389.673069 174.497184 
L 389.85151 174.92706 
L 390.209139 175.459529 
L 390.327434 176.003283 
L 390.566718 175.848084 
L 391.283443 173.816744 
L 391.578394 173.386227 
L 392.294363 173.667339 
L 393.427847 175.28574 
L 393.785792 176.032254 
L 394.023607 176.052586 
L 394.261973 175.958474 
L 394.507191 175.728464 
L 395.275553 174.092681 
L 395.817442 173.341214 
L 396.289007 172.539299 
L 396.468688 172.546366 
L 397.006497 173.484323 
L 397.480824 174.964118 
L 398.01748 175.547012 
L 398.255879 176.095235 
L 399.032184 178.690463 
L 399.38968 179.109616 
L 399.629341 179.201177 
L 399.867123 179.000084 
L 400.224723 177.142246 
L 401.000306 173.787311 
L 401.476641 172.603117 
L 401.775515 172.50978 
L 403.206332 174.814399 
L 403.633589 175.061044 
L 404.947887 176.370222 
L 405.175669 176.279093 
L 405.385104 175.882677 
L 405.894417 175.321658 
L 406.667313 174.320095 
L 407.144113 173.786533 
L 407.380891 173.743224 
L 407.860801 174.827522 
L 408.398363 175.502065 
L 408.636507 175.623233 
L 408.917998 175.301005 
L 409.234688 174.715035 
L 409.829013 173.16012 
L 410.126347 173.323784 
L 410.42592 173.983435 
L 410.844374 175.563219 
L 411.320402 176.089695 
L 411.857209 175.962295 
L 412.096215 175.706232 
L 412.512689 175.035744 
L 412.58546 174.19046 
L 413.062343 172.790761 
L 413.456757 172.53971 
L 413.584819 172.685801 
L 414.472681 174.958074 
L 414.533583 175.88716 
L 415.068038 177.020243 
L 415.309724 177.080053 
L 415.96323 176.284369 
L 416.023198 175.669532 
L 417.276707 173.327894 
L 417.709181 173.799237 
L 417.756951 174.276763 
L 418.054464 174.525002 
L 418.530943 174.462229 
L 419.126668 174.080748 
L 419.305279 173.858291 
L 419.962564 173.917725 
L 420.738015 172.906863 
L 420.975057 172.9153 
L 421.214128 173.296894 
L 421.512226 174.119032 
L 421.693249 175.079265 
L 422.234324 175.957636 
L 422.468961 175.747405 
L 423.004989 175.681552 
L 423.484338 175.686301 
L 423.840978 175.425964 
L 424.145321 174.374737 
L 424.675708 173.542856 
L 425.155055 173.883511 
L 425.574673 173.892106 
L 425.629286 174.05114 
L 425.988437 174.352103 
L 426.64547 175.824963 
L 427.90644 177.527043 
L 427.958088 177.772673 
L 428.436409 178.071926 
L 428.619145 177.807905 
L 429.151322 176.127889 
L 429.628082 174.249827 
L 429.867272 173.989834 
L 430.10485 174.003489 
L 430.774626 174.695412 
L 431.597523 177.906176 
L 431.843497 179.951665 
L 432.328044 187.030324 
L 432.821237 194.611515 
L 433.156978 195.791635 
L 433.463552 195.640683 
L 433.594031 195.382022 
L 433.87843 195.377169 
L 434.121676 195.730753 
L 434.414608 195.387757 
L 434.776173 188.849315 
L 435.198864 183.998488 
L 435.318081 179.80021 
L 435.54992 177.585789 
L 435.793016 176.405951 
L 436.627299 174.056915 
L 436.862153 173.751412 
L 437.640155 175.151671 
L 437.947846 175.114901 
L 438.091135 175.380778 
L 438.507695 178.202839 
L 438.778576 179.216265 
L 439.093849 179.011783 
L 439.609454 175.678647 
L 439.813723 174.43489 
L 440.027646 174.209275 
L 440.326857 175.111695 
L 440.505242 176.263375 
L 440.743769 176.682104 
L 441.360449 177.176181 
L 441.460589 177.814031 
L 441.817555 178.944204 
L 441.996582 179.892796 
L 442.261655 180.160849 
L 443.119643 179.226682 
L 443.537398 177.117856 
L 444.193965 173.902118 
L 444.670741 174.449366 
L 445.029606 176.95716 
L 445.21114 178.042972 
L 445.566243 178.313495 
L 445.69185 178.582965 
L 445.950184 178.761041 
L 446.223006 178.758002 
L 446.46149 178.470751 
L 448.138367 173.727798 
L 448.625267 173.461839 
L 448.91479 173.807351 
L 449.152725 174.428807 
L 449.392189 174.698699 
L 449.808343 174.585993 
L 449.89612 174.095284 
L 450.16705 173.517932 
L 450.46407 173.391435 
L 450.761942 173.974096 
L 451.180519 175.694806 
L 452.077357 177.795723 
L 452.326715 178.123472 
L 452.613173 178.310522 
L 453.098099 178.154136 
L 453.689602 177.685348 
L 454.345201 176.405166 
L 454.765606 176.255322 
L 455.300727 176.973978 
L 455.961335 176.124127 
L 456.150748 175.273613 
L 456.566905 174.803461 
L 456.984034 175.219832 
L 457.044693 176.083327 
L 457.700957 177.131133 
L 457.762486 177.406108 
L 458.295734 177.456997 
L 458.772737 178.035732 
L 459.18988 178.225237 
L 459.309275 177.843961 
L 460.264394 173.006326 
L 460.505547 172.767963 
L 460.801349 172.74537 
L 460.981197 173.070832 
L 461.300883 173.054176 
L 461.759676 172.361438 
L 461.997667 171.974669 
L 462.240011 171.857885 
L 462.535859 172.098308 
L 463.439137 173.343006 
L 463.848593 172.992928 
L 463.995751 172.710241 
L 464.210024 172.602082 
L 464.468285 172.69535 
L 464.68398 173.269681 
L 465.170704 175.193642 
L 466.243917 177.541738 
L 466.663185 178.246084 
L 466.961408 178.518322 
L 467.199234 178.15239 
L 467.597038 177.218366 
L 467.921045 174.991362 
L 468.454257 173.753419 
L 468.761166 173.949063 
L 469.179483 175.799812 
L 469.542461 176.654565 
L 469.64942 177.597144 
L 470.435389 179.640291 
L 470.683137 180.086468 
L 470.906718 180.105275 
L 471.143739 179.761877 
L 471.682015 177.87476 
L 471.865224 176.751011 
L 472.636186 173.990052 
L 473.054076 173.652332 
L 473.400235 172.992618 
L 473.634969 172.995622 
L 473.868197 172.862572 
L 474.170263 172.861267 
L 474.645427 173.250016 
L 474.949827 173.967853 
L 475.315542 175.670317 
L 476.079329 177.009121 
L 476.555932 177.630306 
L 477.361592 180.068843 
L 477.868828 180.559867 
L 478.107403 180.571385 
L 478.643526 181.12562 
L 478.775738 181.676865 
L 479.035221 182.210336 
L 479.305237 182.467101 
L 479.600228 182.335925 
L 480.259337 181.495311 
L 480.639147 181.541008 
L 481.30086 182.730909 
L 481.594462 183.120474 
L 481.817167 183.174774 
L 482.112202 182.969354 
L 482.301583 182.687946 
L 482.796157 182.759594 
L 483.208624 182.976806 
L 483.500877 182.516381 
L 484.216787 180.664839 
L 484.514676 180.472411 
L 484.761105 180.606146 
L 485.008903 180.946722 
L 485.230884 180.878901 
L 485.470722 180.382444 
L 487.677248 173.057302 
L 488.455338 171.863508 
L 488.751713 171.806128 
L 489.288177 172.081738 
L 489.706772 172.198225 
L 490.242896 171.892402 
L 490.683853 172.27063 
L 491.201618 172.796966 
L 491.494573 172.700489 
L 491.913287 171.943606 
L 492.390345 171.370344 
L 492.884784 171.337564 
L 493.601015 171.853654 
L 493.66099 172.148572 
L 493.95881 172.444223 
L 494.912142 175.2811 
L 495.092642 176.157192 
L 495.866611 177.429901 
L 496.169394 177.553141 
L 496.931081 179.289761 
L 497.32743 180.860773 
L 497.602808 181.436188 
L 498.144884 181.652635 
L 498.860584 181.924659 
L 499.099563 182.214585 
L 499.337413 182.244817 
L 499.576371 182.056031 
L 500.293182 180.666461 
L 500.609204 180.786646 
L 500.650281 181.050134 
L 501.604394 182.244226 
L 502.085048 182.01685 
L 502.142852 181.673209 
L 502.321119 181.529834 
L 502.565805 181.574196 
L 502.758604 181.826277 
L 503.051282 181.8433 
L 503.872555 179.340434 
L 504.229888 177.671821 
L 504.650095 177.275964 
L 504.707569 177.430995 
L 505.311707 178.50975 
L 506.569872 180.893936 
L 506.993307 182.04905 
L 507.231373 182.268272 
L 507.475334 182.043066 
L 508.190358 180.446319 
L 508.485193 180.397554 
L 508.787092 180.662458 
L 509.498512 181.992222 
L 509.97473 182.034757 
L 510.21317 181.918305 
L 510.631246 182.145641 
L 510.691646 182.440209 
L 510.932276 182.915825 
L 511.266656 183.044947 
L 511.731757 182.581355 
L 512.202575 181.414395 
L 512.42372 181.257469 
L 513.214663 182.39333 
L 513.619081 182.581696 
L 513.915563 182.111276 
L 515.247869 181.393904 
L 515.468485 180.967327 
L 515.690172 180.160401 
L 516.400242 176.555297 
L 517.159528 175.055785 
L 517.51651 174.674038 
L 517.702683 174.241589 
L 517.878201 173.539927 
L 518.173168 173.182455 
L 518.480489 173.368477 
L 518.951708 174.911782 
L 519.388449 176.964083 
L 520.141772 178.16898 
L 520.439599 178.339713 
L 520.621899 178.158272 
L 520.859464 177.129742 
L 521.39507 171.315297 
L 522.117242 159.787219 
L 522.363738 158.75274 
L 522.65075 159.076002 
L 522.827932 160.133056 
L 523.266623 161.106824 
L 523.843711 163.365475 
L 524.131034 167.303738 
L 524.380779 173.14214 
L 524.857058 176.533082 
L 524.9168 178.702439 
L 525.275559 179.273968 
L 525.814188 176.575634 
L 526.316015 176.519878 
L 526.596989 178.059776 
L 526.890514 178.344006 
L 527.314102 176.531074 
L 527.911085 174.816099 
L 528.28225 175.984444 
L 528.92995 182.019678 
L 529.166701 182.526363 
L 529.533417 181.170699 
L 530.247674 179.902218 
L 530.664454 179.420039 
L 531.262127 177.006951 
L 531.621121 173.339173 
L 532.001118 172.017014 
L 532.275662 172.493076 
L 532.939696 174.393505 
L 533.470149 174.546708 
L 533.72434 175.088592 
L 534.451003 177.978018 
L 534.720395 178.254845 
L 535.028561 178.057561 
L 535.260177 177.516716 
L 535.504579 177.244563 
L 535.801994 177.431733 
L 536.216386 178.712356 
L 536.526316 178.92222 
L 536.733933 178.630708 
L 537.241818 177.140123 
L 538.187608 174.415062 
L 539.203163 170.799021 
L 539.439601 170.406655 
L 539.680701 170.362619 
L 540.924843 172.129893 
L 541.832702 172.970405 
L 541.907515 173.406341 
L 542.137411 173.563884 
L 542.376781 173.38395 
L 543.147255 171.977863 
L 543.385554 171.440609 
L 543.625901 171.192409 
L 543.867082 171.10478 
L 544.160754 171.265558 
L 544.419445 171.538968 
L 544.997465 172.595083 
L 545.177199 173.24746 
L 545.613251 174.014743 
L 545.716345 174.868505 
L 546.191021 176.322346 
L 546.311255 176.925987 
L 546.787321 177.462959 
L 547.328605 177.53182 
L 548.044159 177.499622 
L 548.278888 177.622175 
L 549.551337 177.062041 
L 549.769221 176.623538 
L 550.187418 176.197117 
L 550.496407 174.678984 
L 551.101371 173.128751 
L 551.264901 172.646878 
L 551.511124 172.349172 
L 552.395465 172.172405 
L 553.231918 173.037794 
L 553.531832 173.070133 
L 554.122134 172.456139 
L 554.326986 172.135032 
L 554.745389 171.868593 
L 554.984158 171.692667 
L 555.654441 172.299751 
L 556.23672 173.538875 
L 557.459078 177.433203 
L 557.570223 179.065302 
L 557.960614 179.923105 
L 558.202691 180.103514 
L 558.43799 179.981068 
L 558.974965 179.032803 
L 559.509203 177.369855 
L 559.92538 175.212685 
L 560.468553 174.430421 
L 560.945158 172.960461 
L 561.186721 172.34891 
L 561.37958 172.245185 
L 561.675585 172.831893 
L 562.153707 174.132038 
L 562.450932 174.238858 
L 562.879261 174.179784 
L 563.168071 174.280019 
L 563.663332 174.582995 
L 564.063923 174.207075 
L 564.36587 173.17432 
L 564.602546 173.284225 
L 564.899658 173.966667 
L 565.616165 176.707654 
L 566.41619 178.540463 
L 566.871061 178.733704 
L 567.109206 178.28828 
L 567.889683 175.647451 
L 568.067008 174.524364 
L 568.36386 173.5419 
L 568.666409 173.045126 
L 568.905048 172.952407 
L 569.317197 173.6984 
L 569.495961 174.056593 
L 569.556614 174.530719 
L 570.180186 174.575877 
L 571.312124 177.532319 
L 571.551927 177.697057 
L 571.854597 177.384959 
L 572.030259 176.878473 
L 572.327643 177.090091 
L 572.518413 177.797588 
L 572.804311 178.326011 
L 573.047077 178.204302 
L 574.05876 175.741867 
L 574.655476 176.792063 
L 574.789855 176.701212 
L 574.970739 175.935974 
L 575.266685 175.446169 
L 575.509254 175.856341 
L 575.982989 177.366033 
L 576.28069 177.041604 
L 576.819632 175.498462 
L 577.176708 175.582357 
L 577.414148 176.367826 
L 577.534113 177.338299 
L 577.715511 177.835626 
L 578.309387 176.515381 
L 578.55534 176.004431 
L 579.051607 177.229699 
L 579.234913 177.106525 
L 579.707111 176.119503 
L 580.001437 175.989289 
L 580.67193 176.715461 
L 581.193618 176.364848 
L 581.503861 176.376551 
L 581.67021 176.680832 
L 582.031218 176.520099 
L 582.167232 176.119297 
L 582.685641 175.65292 
L 582.987025 176.023313 
L 583.519781 177.950251 
L 583.93793 177.7505 
L 584.35554 176.644383 
L 584.712611 177.060817 
L 584.891392 177.775909 
L 585.071395 177.796925 
L 585.399086 176.968581 
L 585.908154 174.364352 
L 586.150599 174.570867 
L 586.440302 175.319165 
L 586.619088 176.421865 
L 586.989148 177.062514 
L 587.158906 177.090533 
L 587.635596 176.746643 
L 588.351426 177.612424 
L 588.64969 177.486947 
L 589.128115 175.894126 
L 589.546397 175.666115 
L 589.849898 176.187347 
L 590.201208 176.272988 
L 590.339608 176.188317 
L 590.564453 176.358143 
L 591.336211 176.375419 
L 591.94111 176.694789 
L 592.35766 175.648923 
L 592.599352 176.264035 
L 592.95496 176.498997 
L 593.252524 176.161843 
L 593.492874 176.160724 
L 593.612706 176.419809 
L 594.038067 176.358312 
L 594.510253 175.798243 
L 594.863145 175.91939 
L 595.294118 176.366361 
L 595.520186 176.328824 
L 595.995268 176.037203 
L 596.26267 176.238095 
L 596.502813 176.180841 
L 596.502813 176.180841 
" clip-path="url(#p02840082de)" style="fill: none; stroke: #ff0000; stroke-opacity: 0.7; stroke-width: 1.5; stroke-linecap: square"/>
   </g>
   <g id="patch_3">
    <path d="M 38.502813 277.92 
L 38.502813 0.72 
" style="fill: none; stroke: #000000; stroke-width: 0.8; stroke-linejoin: miter; stroke-linecap: square"/>
   </g>
   <g id="patch_4">
    <path d="M 596.502813 277.92 
L 596.502813 0.72 
" style="fill: none; stroke: #000000; stroke-width: 0.8; stroke-linejoin: miter; stroke-linecap: square"/>
   </g>
   <g id="patch_5">
    <path d="M 38.502813 277.92 
L 596.502813 277.92 
" style="fill: none; stroke: #000000; stroke-width: 0.8; stroke-linejoin: miter; stroke-linecap: square"/>
   </g>
   <g id="patch_6">
    <path d="M 38.502813 0.72 
L 596.502813 0.72 
" style="fill: none; stroke: #000000; stroke-width: 0.8; stroke-linejoin: miter; stroke-linecap: square"/>
   </g>
   <g id="legend_1">
    <g id="patch_7">
     <path d="M 515.734063 38.07625 
L 589.502813 38.07625 
Q 591.502813 38.07625 591.502813 36.07625 
L 591.502813 7.72 
Q 591.502813 5.72 589.502813 5.72 
L 515.734063 5.72 
Q 513.734063 5.72 513.734063 7.72 
L 513.734063 36.07625 
Q 513.734063 38.07625 515.734063 38.07625 
z
" style="fill: #ffffff; opacity: 0.8; stroke: #cccccc; stroke-linejoin: miter"/>
    </g>
    <g id="line2d_35">
     <path d="M 517.734063 13.818438 
L 527.734063 13.818438 
L 537.734063 13.818438 
" style="fill: none; stroke: #0000ff; stroke-opacity: 0.7; stroke-width: 1.5; stroke-linecap: square"/>
    </g>
    <g id="text_19">
     <!-- RNEA -->
     <g transform="translate(545.734063 17.318438) scale(0.1 -0.1)">
      <defs>
       <path id="DejaVuSans-52" d="M 2841 2188 
Q 3044 2119 3236 1894 
Q 3428 1669 3622 1275 
L 4263 0 
L 3584 0 
L 2988 1197 
Q 2756 1666 2539 1819 
Q 2322 1972 1947 1972 
L 1259 1972 
L 1259 0 
L 628 0 
L 628 4666 
L 2053 4666 
Q 2853 4666 3247 4331 
Q 3641 3997 3641 3322 
Q 3641 2881 3436 2590 
Q 3231 2300 2841 2188 
z
M 1259 4147 
L 1259 2491 
L 2053 2491 
Q 2509 2491 2742 2702 
Q 2975 2913 2975 3322 
Q 2975 3731 2742 3939 
Q 2509 4147 2053 4147 
L 1259 4147 
z
" transform="scale(0.015625)"/>
       <path id="DejaVuSans-45" d="M 628 4666 
L 3578 4666 
L 3578 4134 
L 1259 4134 
L 1259 2753 
L 3481 2753 
L 3481 2222 
L 1259 2222 
L 1259 531 
L 3634 531 
L 3634 0 
L 628 0 
L 628 4666 
z
" transform="scale(0.015625)"/>
       <path id="DejaVuSans-41" d="M 2188 4044 
L 1331 1722 
L 3047 1722 
L 2188 4044 
z
M 1831 4666 
L 2547 4666 
L 4325 0 
L 3669 0 
L 3244 1197 
L 1141 1197 
L 716 0 
L 50 0 
L 1831 4666 
z
" transform="scale(0.015625)"/>
      </defs>
      <use xlink:href="#DejaVuSans-52"/>
      <use xlink:href="#DejaVuSans-4e" x="69.482422"/>
      <use xlink:href="#DejaVuSans-45" x="144.287109"/>
      <use xlink:href="#DejaVuSans-41" x="207.470703"/>
     </g>
    </g>
    <g id="line2d_36">
     <path d="M 517.734063 28.496563 
L 527.734063 28.496563 
L 537.734063 28.496563 
" style="fill: none; stroke: #ff0000; stroke-opacity: 0.7; stroke-width: 1.5; stroke-linecap: square"/>
    </g>
    <g id="text_20">
     <!-- BURNEA -->
     <g transform="translate(545.734063 31.996563) scale(0.1 -0.1)">
      <defs>
       <path id="DejaVuSans-42" d="M 1259 2228 
L 1259 519 
L 2272 519 
Q 2781 519 3026 730 
Q 3272 941 3272 1375 
Q 3272 1813 3026 2020 
Q 2781 2228 2272 2228 
L 1259 2228 
z
M 1259 4147 
L 1259 2741 
L 2194 2741 
Q 2656 2741 2882 2914 
Q 3109 3088 3109 3444 
Q 3109 3797 2882 3972 
Q 2656 4147 2194 4147 
L 1259 4147 
z
M 628 4666 
L 2241 4666 
Q 2963 4666 3353 4366 
Q 3744 4066 3744 3513 
Q 3744 3084 3544 2831 
Q 3344 2578 2956 2516 
Q 3422 2416 3680 2098 
Q 3938 1781 3938 1306 
Q 3938 681 3513 340 
Q 3088 0 2303 0 
L 628 0 
L 628 4666 
z
" transform="scale(0.015625)"/>
       <path id="DejaVuSans-55" d="M 556 4666 
L 1191 4666 
L 1191 1831 
Q 1191 1081 1462 751 
Q 1734 422 2344 422 
Q 2950 422 3222 751 
Q 3494 1081 3494 1831 
L 3494 4666 
L 4128 4666 
L 4128 1753 
Q 4128 841 3676 375 
Q 3225 -91 2344 -91 
Q 1459 -91 1007 375 
Q 556 841 556 1753 
L 556 4666 
z
" transform="scale(0.015625)"/>
      </defs>
      <use xlink:href="#DejaVuSans-42"/>
      <use xlink:href="#DejaVuSans-55" x="68.603516"/>
      <use xlink:href="#DejaVuSans-52" x="141.796875"/>
      <use xlink:href="#DejaVuSans-4e" x="211.279297"/>
      <use xlink:href="#DejaVuSans-45" x="286.083984"/>
      <use xlink:href="#DejaVuSans-41" x="349.267578"/>
     </g>
    </g>
   </g>
  </g>
 </g>
 <defs>
  <clipPath id="p02840082de">
   <rect x="38.502813" y="0.72" width="558" height="277.2"/>
  </clipPath>
 </defs>
</svg>
