<?xml version="1.0" encoding="utf-8" standalone="no"?>
<!DOCTYPE svg PUBLIC "-//W3C//DTD SVG 1.1//EN"
  "http://www.w3.org/Graphics/SVG/1.1/DTD/svg11.dtd">
<svg xmlns:xlink="http://www.w3.org/1999/xlink" width="597.222813pt" height="304.99625pt" viewBox="0 0 597.222813 304.99625" xmlns="http://www.w3.org/2000/svg" version="1.1">
 <metadata>
  <rdf:RDF xmlns:dc="http://purl.org/dc/elements/1.1/" xmlns:cc="http://creativecommons.org/ns#" xmlns:rdf="http://www.w3.org/1999/02/22-rdf-syntax-ns#">
   <cc:Work>
    <dc:type rdf:resource="http://purl.org/dc/dcmitype/StillImage"/>
    <dc:date>2023-09-07T03:30:33.638459</dc:date>
    <dc:format>image/svg+xml</dc:format>
    <dc:creator>
     <cc:Agent>
      <dc:title>Matplotlib v3.7.2, https://matplotlib.org/</dc:title>
     </cc:Agent>
    </dc:creator>
   </cc:Work>
  </rdf:RDF>
 </metadata>
 <defs>
  <style type="text/css">*{stroke-linejoin: round; stroke-linecap: butt}</style>
 </defs>
 <g id="figure_1">
  <g id="patch_1">
   <path d="M 0 304.99625 
L 597.222813 304.99625 
L 597.222813 0 
L 0 0 
L 0 304.99625 
z
" style="fill: none"/>
  </g>
  <g id="axes_1">
   <g id="patch_2">
    <path d="M 38.502813 277.92 
L 596.502813 277.92 
L 596.502813 0.72 
L 38.502813 0.72 
L 38.502813 277.92 
z
" style="fill: none"/>
   </g>
   <g id="matplotlib.axis_1">
    <g id="xtick_1">
     <g id="line2d_1">
      <path d="M 38.502813 277.92 
L 38.502813 0.72 
" clip-path="url(#pf3730c8758)" style="fill: none; stroke-dasharray: 0.8,1.32; stroke-dashoffset: 0; stroke: #000000; stroke-opacity: 0.5; stroke-width: 0.8"/>
     </g>
     <g id="line2d_2">
      <defs>
       <path id="m2f91b4b52d" d="M 0 0 
L 0 3.5 
" style="stroke: #000000; stroke-width: 0.8"/>
      </defs>
      <g>
       <use xlink:href="#m2f91b4b52d" x="38.502813" y="277.92" style="stroke: #000000; stroke-width: 0.8"/>
      </g>
     </g>
     <g id="text_1">
      <!-- 0.0 -->
      <g transform="translate(30.55125 292.518438) scale(0.1 -0.1)">
       <defs>
        <path id="DejaVuSans-30" d="M 2034 4250 
Q 1547 4250 1301 3770 
Q 1056 3291 1056 2328 
Q 1056 1369 1301 889 
Q 1547 409 2034 409 
Q 2525 409 2770 889 
Q 3016 1369 3016 2328 
Q 3016 3291 2770 3770 
Q 2525 4250 2034 4250 
z
M 2034 4750 
Q 2819 4750 3233 4129 
Q 3647 3509 3647 2328 
Q 3647 1150 3233 529 
Q 2819 -91 2034 -91 
Q 1250 -91 836 529 
Q 422 1150 422 2328 
Q 422 3509 836 4129 
Q 1250 4750 2034 4750 
z
" transform="scale(0.015625)"/>
        <path id="DejaVuSans-2e" d="M 684 794 
L 1344 794 
L 1344 0 
L 684 0 
L 684 794 
z
" transform="scale(0.015625)"/>
       </defs>
       <use xlink:href="#DejaVuSans-30"/>
       <use xlink:href="#DejaVuSans-2e" x="63.623047"/>
       <use xlink:href="#DejaVuSans-30" x="95.410156"/>
      </g>
     </g>
    </g>
    <g id="xtick_2">
     <g id="line2d_3">
      <path d="M 112.654137 277.92 
L 112.654137 0.72 
" clip-path="url(#pf3730c8758)" style="fill: none; stroke-dasharray: 0.8,1.32; stroke-dashoffset: 0; stroke: #000000; stroke-opacity: 0.5; stroke-width: 0.8"/>
     </g>
     <g id="line2d_4">
      <g>
       <use xlink:href="#m2f91b4b52d" x="112.654137" y="277.92" style="stroke: #000000; stroke-width: 0.8"/>
      </g>
     </g>
     <g id="text_2">
      <!-- 2.5 -->
      <g transform="translate(104.702575 292.518438) scale(0.1 -0.1)">
       <defs>
        <path id="DejaVuSans-32" d="M 1228 531 
L 3431 531 
L 3431 0 
L 469 0 
L 469 531 
Q 828 903 1448 1529 
Q 2069 2156 2228 2338 
Q 2531 2678 2651 2914 
Q 2772 3150 2772 3378 
Q 2772 3750 2511 3984 
Q 2250 4219 1831 4219 
Q 1534 4219 1204 4116 
Q 875 4013 500 3803 
L 500 4441 
Q 881 4594 1212 4672 
Q 1544 4750 1819 4750 
Q 2544 4750 2975 4387 
Q 3406 4025 3406 3419 
Q 3406 3131 3298 2873 
Q 3191 2616 2906 2266 
Q 2828 2175 2409 1742 
Q 1991 1309 1228 531 
z
" transform="scale(0.015625)"/>
        <path id="DejaVuSans-35" d="M 691 4666 
L 3169 4666 
L 3169 4134 
L 1269 4134 
L 1269 2991 
Q 1406 3038 1543 3061 
Q 1681 3084 1819 3084 
Q 2600 3084 3056 2656 
Q 3513 2228 3513 1497 
Q 3513 744 3044 326 
Q 2575 -91 1722 -91 
Q 1428 -91 1123 -41 
Q 819 9 494 109 
L 494 744 
Q 775 591 1075 516 
Q 1375 441 1709 441 
Q 2250 441 2565 725 
Q 2881 1009 2881 1497 
Q 2881 1984 2565 2268 
Q 2250 2553 1709 2553 
Q 1456 2553 1204 2497 
Q 953 2441 691 2322 
L 691 4666 
z
" transform="scale(0.015625)"/>
       </defs>
       <use xlink:href="#DejaVuSans-32"/>
       <use xlink:href="#DejaVuSans-2e" x="63.623047"/>
       <use xlink:href="#DejaVuSans-35" x="95.410156"/>
      </g>
     </g>
    </g>
    <g id="xtick_3">
     <g id="line2d_5">
      <path d="M 186.805462 277.92 
L 186.805462 0.72 
" clip-path="url(#pf3730c8758)" style="fill: none; stroke-dasharray: 0.8,1.32; stroke-dashoffset: 0; stroke: #000000; stroke-opacity: 0.5; stroke-width: 0.8"/>
     </g>
     <g id="line2d_6">
      <g>
       <use xlink:href="#m2f91b4b52d" x="186.805462" y="277.92" style="stroke: #000000; stroke-width: 0.8"/>
      </g>
     </g>
     <g id="text_3">
      <!-- 5.0 -->
      <g transform="translate(178.8539 292.518438) scale(0.1 -0.1)">
       <use xlink:href="#DejaVuSans-35"/>
       <use xlink:href="#DejaVuSans-2e" x="63.623047"/>
       <use xlink:href="#DejaVuSans-30" x="95.410156"/>
      </g>
     </g>
    </g>
    <g id="xtick_4">
     <g id="line2d_7">
      <path d="M 260.956787 277.92 
L 260.956787 0.72 
" clip-path="url(#pf3730c8758)" style="fill: none; stroke-dasharray: 0.8,1.32; stroke-dashoffset: 0; stroke: #000000; stroke-opacity: 0.5; stroke-width: 0.8"/>
     </g>
     <g id="line2d_8">
      <g>
       <use xlink:href="#m2f91b4b52d" x="260.956787" y="277.92" style="stroke: #000000; stroke-width: 0.8"/>
      </g>
     </g>
     <g id="text_4">
      <!-- 7.5 -->
      <g transform="translate(253.005225 292.518438) scale(0.1 -0.1)">
       <defs>
        <path id="DejaVuSans-37" d="M 525 4666 
L 3525 4666 
L 3525 4397 
L 1831 0 
L 1172 0 
L 2766 4134 
L 525 4134 
L 525 4666 
z
" transform="scale(0.015625)"/>
       </defs>
       <use xlink:href="#DejaVuSans-37"/>
       <use xlink:href="#DejaVuSans-2e" x="63.623047"/>
       <use xlink:href="#DejaVuSans-35" x="95.410156"/>
      </g>
     </g>
    </g>
    <g id="xtick_5">
     <g id="line2d_9">
      <path d="M 335.108112 277.92 
L 335.108112 0.72 
" clip-path="url(#pf3730c8758)" style="fill: none; stroke-dasharray: 0.8,1.32; stroke-dashoffset: 0; stroke: #000000; stroke-opacity: 0.5; stroke-width: 0.8"/>
     </g>
     <g id="line2d_10">
      <g>
       <use xlink:href="#m2f91b4b52d" x="335.108112" y="277.92" style="stroke: #000000; stroke-width: 0.8"/>
      </g>
     </g>
     <g id="text_5">
      <!-- 10.0 -->
      <g transform="translate(323.9753 292.518438) scale(0.1 -0.1)">
       <defs>
        <path id="DejaVuSans-31" d="M 794 531 
L 1825 531 
L 1825 4091 
L 703 3866 
L 703 4441 
L 1819 4666 
L 2450 4666 
L 2450 531 
L 3481 531 
L 3481 0 
L 794 0 
L 794 531 
z
" transform="scale(0.015625)"/>
       </defs>
       <use xlink:href="#DejaVuSans-31"/>
       <use xlink:href="#DejaVuSans-30" x="63.623047"/>
       <use xlink:href="#DejaVuSans-2e" x="127.246094"/>
       <use xlink:href="#DejaVuSans-30" x="159.033203"/>
      </g>
     </g>
    </g>
    <g id="xtick_6">
     <g id="line2d_11">
      <path d="M 409.259437 277.92 
L 409.259437 0.72 
" clip-path="url(#pf3730c8758)" style="fill: none; stroke-dasharray: 0.8,1.32; stroke-dashoffset: 0; stroke: #000000; stroke-opacity: 0.5; stroke-width: 0.8"/>
     </g>
     <g id="line2d_12">
      <g>
       <use xlink:href="#m2f91b4b52d" x="409.259437" y="277.92" style="stroke: #000000; stroke-width: 0.8"/>
      </g>
     </g>
     <g id="text_6">
      <!-- 12.5 -->
      <g transform="translate(398.126625 292.518438) scale(0.1 -0.1)">
       <use xlink:href="#DejaVuSans-31"/>
       <use xlink:href="#DejaVuSans-32" x="63.623047"/>
       <use xlink:href="#DejaVuSans-2e" x="127.246094"/>
       <use xlink:href="#DejaVuSans-35" x="159.033203"/>
      </g>
     </g>
    </g>
    <g id="xtick_7">
     <g id="line2d_13">
      <path d="M 483.410762 277.92 
L 483.410762 0.72 
" clip-path="url(#pf3730c8758)" style="fill: none; stroke-dasharray: 0.8,1.32; stroke-dashoffset: 0; stroke: #000000; stroke-opacity: 0.5; stroke-width: 0.8"/>
     </g>
     <g id="line2d_14">
      <g>
       <use xlink:href="#m2f91b4b52d" x="483.410762" y="277.92" style="stroke: #000000; stroke-width: 0.8"/>
      </g>
     </g>
     <g id="text_7">
      <!-- 15.0 -->
      <g transform="translate(472.27795 292.518438) scale(0.1 -0.1)">
       <use xlink:href="#DejaVuSans-31"/>
       <use xlink:href="#DejaVuSans-35" x="63.623047"/>
       <use xlink:href="#DejaVuSans-2e" x="127.246094"/>
       <use xlink:href="#DejaVuSans-30" x="159.033203"/>
      </g>
     </g>
    </g>
    <g id="xtick_8">
     <g id="line2d_15">
      <path d="M 557.562087 277.92 
L 557.562087 0.72 
" clip-path="url(#pf3730c8758)" style="fill: none; stroke-dasharray: 0.8,1.32; stroke-dashoffset: 0; stroke: #000000; stroke-opacity: 0.5; stroke-width: 0.8"/>
     </g>
     <g id="line2d_16">
      <g>
       <use xlink:href="#m2f91b4b52d" x="557.562087" y="277.92" style="stroke: #000000; stroke-width: 0.8"/>
      </g>
     </g>
     <g id="text_8">
      <!-- 17.5 -->
      <g transform="translate(546.429274 292.518438) scale(0.1 -0.1)">
       <use xlink:href="#DejaVuSans-31"/>
       <use xlink:href="#DejaVuSans-37" x="63.623047"/>
       <use xlink:href="#DejaVuSans-2e" x="127.246094"/>
       <use xlink:href="#DejaVuSans-35" x="159.033203"/>
      </g>
     </g>
    </g>
    <g id="text_9">
     <!-- Zeit [s] -->
     <g transform="translate(299.556719 302.196563) scale(0.1 -0.1)">
      <defs>
       <path id="DejaVuSans-5a" d="M 359 4666 
L 4025 4666 
L 4025 4184 
L 1075 531 
L 4097 531 
L 4097 0 
L 288 0 
L 288 481 
L 3238 4134 
L 359 4134 
L 359 4666 
z
" transform="scale(0.015625)"/>
       <path id="DejaVuSans-65" d="M 3597 1894 
L 3597 1613 
L 953 1613 
Q 991 1019 1311 708 
Q 1631 397 2203 397 
Q 2534 397 2845 478 
Q 3156 559 3463 722 
L 3463 178 
Q 3153 47 2828 -22 
Q 2503 -91 2169 -91 
Q 1331 -91 842 396 
Q 353 884 353 1716 
Q 353 2575 817 3079 
Q 1281 3584 2069 3584 
Q 2775 3584 3186 3129 
Q 3597 2675 3597 1894 
z
M 3022 2063 
Q 3016 2534 2758 2815 
Q 2500 3097 2075 3097 
Q 1594 3097 1305 2825 
Q 1016 2553 972 2059 
L 3022 2063 
z
" transform="scale(0.015625)"/>
       <path id="DejaVuSans-69" d="M 603 3500 
L 1178 3500 
L 1178 0 
L 603 0 
L 603 3500 
z
M 603 4863 
L 1178 4863 
L 1178 4134 
L 603 4134 
L 603 4863 
z
" transform="scale(0.015625)"/>
       <path id="DejaVuSans-74" d="M 1172 4494 
L 1172 3500 
L 2356 3500 
L 2356 3053 
L 1172 3053 
L 1172 1153 
Q 1172 725 1289 603 
Q 1406 481 1766 481 
L 2356 481 
L 2356 0 
L 1766 0 
Q 1100 0 847 248 
Q 594 497 594 1153 
L 594 3053 
L 172 3053 
L 172 3500 
L 594 3500 
L 594 4494 
L 1172 4494 
z
" transform="scale(0.015625)"/>
       <path id="DejaVuSans-20" transform="scale(0.015625)"/>
       <path id="DejaVuSans-5b" d="M 550 4863 
L 1875 4863 
L 1875 4416 
L 1125 4416 
L 1125 -397 
L 1875 -397 
L 1875 -844 
L 550 -844 
L 550 4863 
z
" transform="scale(0.015625)"/>
       <path id="DejaVuSans-73" d="M 2834 3397 
L 2834 2853 
Q 2591 2978 2328 3040 
Q 2066 3103 1784 3103 
Q 1356 3103 1142 2972 
Q 928 2841 928 2578 
Q 928 2378 1081 2264 
Q 1234 2150 1697 2047 
L 1894 2003 
Q 2506 1872 2764 1633 
Q 3022 1394 3022 966 
Q 3022 478 2636 193 
Q 2250 -91 1575 -91 
Q 1294 -91 989 -36 
Q 684 19 347 128 
L 347 722 
Q 666 556 975 473 
Q 1284 391 1588 391 
Q 1994 391 2212 530 
Q 2431 669 2431 922 
Q 2431 1156 2273 1281 
Q 2116 1406 1581 1522 
L 1381 1569 
Q 847 1681 609 1914 
Q 372 2147 372 2553 
Q 372 3047 722 3315 
Q 1072 3584 1716 3584 
Q 2034 3584 2315 3537 
Q 2597 3491 2834 3397 
z
" transform="scale(0.015625)"/>
       <path id="DejaVuSans-5d" d="M 1947 4863 
L 1947 -844 
L 622 -844 
L 622 -397 
L 1369 -397 
L 1369 4416 
L 622 4416 
L 622 4863 
L 1947 4863 
z
" transform="scale(0.015625)"/>
      </defs>
      <use xlink:href="#DejaVuSans-5a"/>
      <use xlink:href="#DejaVuSans-65" x="68.505859"/>
      <use xlink:href="#DejaVuSans-69" x="130.029297"/>
      <use xlink:href="#DejaVuSans-74" x="157.8125"/>
      <use xlink:href="#DejaVuSans-20" x="197.021484"/>
      <use xlink:href="#DejaVuSans-5b" x="228.808594"/>
      <use xlink:href="#DejaVuSans-73" x="267.822266"/>
      <use xlink:href="#DejaVuSans-5d" x="319.921875"/>
     </g>
    </g>
   </g>
   <g id="matplotlib.axis_2">
    <g id="ytick_1">
     <g id="line2d_17">
      <path d="M 38.502813 242.100115 
L 596.502813 242.100115 
" clip-path="url(#pf3730c8758)" style="fill: none; stroke-dasharray: 0.8,1.32; stroke-dashoffset: 0; stroke: #000000; stroke-opacity: 0.5; stroke-width: 0.8"/>
     </g>
     <g id="line2d_18">
      <defs>
       <path id="mdc9205aea8" d="M 0 0 
L -3.5 0 
" style="stroke: #000000; stroke-width: 0.8"/>
      </defs>
      <g>
       <use xlink:href="#mdc9205aea8" x="38.502813" y="242.100115" style="stroke: #000000; stroke-width: 0.8"/>
      </g>
     </g>
     <g id="text_10">
      <!-- −20 -->
      <g transform="translate(10.398125 245.899333) scale(0.1 -0.1)">
       <defs>
        <path id="DejaVuSans-2212" d="M 678 2272 
L 4684 2272 
L 4684 1741 
L 678 1741 
L 678 2272 
z
" transform="scale(0.015625)"/>
       </defs>
       <use xlink:href="#DejaVuSans-2212"/>
       <use xlink:href="#DejaVuSans-32" x="83.789062"/>
       <use xlink:href="#DejaVuSans-30" x="147.412109"/>
      </g>
     </g>
    </g>
    <g id="ytick_2">
     <g id="line2d_19">
      <path d="M 38.502813 185.087207 
L 596.502813 185.087207 
" clip-path="url(#pf3730c8758)" style="fill: none; stroke-dasharray: 0.8,1.32; stroke-dashoffset: 0; stroke: #000000; stroke-opacity: 0.5; stroke-width: 0.8"/>
     </g>
     <g id="line2d_20">
      <g>
       <use xlink:href="#mdc9205aea8" x="38.502813" y="185.087207" style="stroke: #000000; stroke-width: 0.8"/>
      </g>
     </g>
     <g id="text_11">
      <!-- −10 -->
      <g transform="translate(10.398125 188.886425) scale(0.1 -0.1)">
       <use xlink:href="#DejaVuSans-2212"/>
       <use xlink:href="#DejaVuSans-31" x="83.789062"/>
       <use xlink:href="#DejaVuSans-30" x="147.412109"/>
      </g>
     </g>
    </g>
    <g id="ytick_3">
     <g id="line2d_21">
      <path d="M 38.502813 128.074299 
L 596.502813 128.074299 
" clip-path="url(#pf3730c8758)" style="fill: none; stroke-dasharray: 0.8,1.32; stroke-dashoffset: 0; stroke: #000000; stroke-opacity: 0.5; stroke-width: 0.8"/>
     </g>
     <g id="line2d_22">
      <g>
       <use xlink:href="#mdc9205aea8" x="38.502813" y="128.074299" style="stroke: #000000; stroke-width: 0.8"/>
      </g>
     </g>
     <g id="text_12">
      <!-- 0 -->
      <g transform="translate(25.140313 131.873517) scale(0.1 -0.1)">
       <use xlink:href="#DejaVuSans-30"/>
      </g>
     </g>
    </g>
    <g id="ytick_4">
     <g id="line2d_23">
      <path d="M 38.502813 71.061391 
L 596.502813 71.061391 
" clip-path="url(#pf3730c8758)" style="fill: none; stroke-dasharray: 0.8,1.32; stroke-dashoffset: 0; stroke: #000000; stroke-opacity: 0.5; stroke-width: 0.8"/>
     </g>
     <g id="line2d_24">
      <g>
       <use xlink:href="#mdc9205aea8" x="38.502813" y="71.061391" style="stroke: #000000; stroke-width: 0.8"/>
      </g>
     </g>
     <g id="text_13">
      <!-- 10 -->
      <g transform="translate(18.777813 74.860609) scale(0.1 -0.1)">
       <use xlink:href="#DejaVuSans-31"/>
       <use xlink:href="#DejaVuSans-30" x="63.623047"/>
      </g>
     </g>
    </g>
    <g id="ytick_5">
     <g id="line2d_25">
      <path d="M 38.502813 14.048483 
L 596.502813 14.048483 
" clip-path="url(#pf3730c8758)" style="fill: none; stroke-dasharray: 0.8,1.32; stroke-dashoffset: 0; stroke: #000000; stroke-opacity: 0.5; stroke-width: 0.8"/>
     </g>
     <g id="line2d_26">
      <g>
       <use xlink:href="#mdc9205aea8" x="38.502813" y="14.048483" style="stroke: #000000; stroke-width: 0.8"/>
      </g>
     </g>
     <g id="text_14">
      <!-- 20 -->
      <g transform="translate(18.777813 17.847702) scale(0.1 -0.1)">
       <use xlink:href="#DejaVuSans-32"/>
       <use xlink:href="#DejaVuSans-30" x="63.623047"/>
      </g>
     </g>
    </g>
    <g id="text_15">
     <!-- Kraft [N] -->
     <g transform="translate(8.318438 160.5825) rotate(-90) scale(0.1 -0.1)">
      <defs>
       <path id="DejaVuSans-4b" d="M 628 4666 
L 1259 4666 
L 1259 2694 
L 3353 4666 
L 4166 4666 
L 1850 2491 
L 4331 0 
L 3500 0 
L 1259 2247 
L 1259 0 
L 628 0 
L 628 4666 
z
" transform="scale(0.015625)"/>
       <path id="DejaVuSans-72" d="M 2631 2963 
Q 2534 3019 2420 3045 
Q 2306 3072 2169 3072 
Q 1681 3072 1420 2755 
Q 1159 2438 1159 1844 
L 1159 0 
L 581 0 
L 581 3500 
L 1159 3500 
L 1159 2956 
Q 1341 3275 1631 3429 
Q 1922 3584 2338 3584 
Q 2397 3584 2469 3576 
Q 2541 3569 2628 3553 
L 2631 2963 
z
" transform="scale(0.015625)"/>
       <path id="DejaVuSans-61" d="M 2194 1759 
Q 1497 1759 1228 1600 
Q 959 1441 959 1056 
Q 959 750 1161 570 
Q 1363 391 1709 391 
Q 2188 391 2477 730 
Q 2766 1069 2766 1631 
L 2766 1759 
L 2194 1759 
z
M 3341 1997 
L 3341 0 
L 2766 0 
L 2766 531 
Q 2569 213 2275 61 
Q 1981 -91 1556 -91 
Q 1019 -91 701 211 
Q 384 513 384 1019 
Q 384 1609 779 1909 
Q 1175 2209 1959 2209 
L 2766 2209 
L 2766 2266 
Q 2766 2663 2505 2880 
Q 2244 3097 1772 3097 
Q 1472 3097 1187 3025 
Q 903 2953 641 2809 
L 641 3341 
Q 956 3463 1253 3523 
Q 1550 3584 1831 3584 
Q 2591 3584 2966 3190 
Q 3341 2797 3341 1997 
z
" transform="scale(0.015625)"/>
       <path id="DejaVuSans-66" d="M 2375 4863 
L 2375 4384 
L 1825 4384 
Q 1516 4384 1395 4259 
Q 1275 4134 1275 3809 
L 1275 3500 
L 2222 3500 
L 2222 3053 
L 1275 3053 
L 1275 0 
L 697 0 
L 697 3053 
L 147 3053 
L 147 3500 
L 697 3500 
L 697 3744 
Q 697 4328 969 4595 
Q 1241 4863 1831 4863 
L 2375 4863 
z
" transform="scale(0.015625)"/>
       <path id="DejaVuSans-4e" d="M 628 4666 
L 1478 4666 
L 3547 763 
L 3547 4666 
L 4159 4666 
L 4159 0 
L 3309 0 
L 1241 3903 
L 1241 0 
L 628 0 
L 628 4666 
z
" transform="scale(0.015625)"/>
      </defs>
      <use xlink:href="#DejaVuSans-4b"/>
      <use xlink:href="#DejaVuSans-72" x="65.576172"/>
      <use xlink:href="#DejaVuSans-61" x="106.689453"/>
      <use xlink:href="#DejaVuSans-66" x="167.96875"/>
      <use xlink:href="#DejaVuSans-74" x="201.423828"/>
      <use xlink:href="#DejaVuSans-20" x="240.632812"/>
      <use xlink:href="#DejaVuSans-5b" x="272.419922"/>
      <use xlink:href="#DejaVuSans-4e" x="311.433594"/>
      <use xlink:href="#DejaVuSans-5d" x="386.238281"/>
     </g>
    </g>
   </g>
   <g id="line2d_27">
    <path d="M 38.502813 128.074299 
L 223.732051 128.034236 
L 224.048213 127.768104 
L 225.274355 124.974869 
L 225.75103 124.761792 
L 226.525541 124.97536 
L 226.707352 125.368615 
L 227.004147 125.554101 
L 227.184451 125.412735 
L 227.422827 125.551448 
L 227.479239 125.346907 
L 227.956897 125.881156 
L 228.194151 125.517373 
L 228.730952 125.969401 
L 229.211707 125.524839 
L 229.507621 125.333183 
L 229.998628 125.323542 
L 230.173069 124.662197 
L 230.408796 125.059261 
L 230.705939 125.812718 
L 230.945101 124.863804 
L 231.242363 125.739974 
L 231.630147 126.001157 
L 231.663719 126.5969 
L 232.136825 125.555605 
L 232.316057 124.421459 
L 232.434509 126.102302 
L 232.915984 125.327483 
L 233.208451 124.339376 
L 233.387885 125.687558 
L 233.626662 125.335918 
L 233.864567 124.602403 
L 234.163673 126.715871 
L 234.459871 124.950021 
L 235.11598 126.296069 
L 235.432665 125.675726 
L 235.72695 126.259903 
L 235.906757 125.039715 
L 236.084479 126.497468 
L 236.384217 126.820779 
L 236.621287 124.860095 
L 236.919839 124.666781 
L 237.157824 125.530517 
L 237.395703 124.17958 
L 237.695023 124.20981 
L 237.874902 126.618552 
L 238.290534 125.629183 
L 238.35076 126.036138 
L 238.589264 126.255973 
L 238.828455 127.148252 
L 239.065068 124.0005 
L 239.305311 124.208635 
L 239.549082 124.819442 
L 239.840779 123.821124 
L 240.023237 126.878894 
L 240.317181 125.316579 
L 240.614551 125.064985 
L 240.793797 123.679765 
L 241.151839 126.286321 
L 241.389884 125.680822 
L 241.569338 124.860374 
L 242.044896 126.367698 
L 242.344062 125.475885 
L 242.641746 125.416698 
L 242.939843 124.884249 
L 243.118815 126.701731 
L 243.41606 127.602213 
L 243.539421 125.962065 
L 243.836562 126.283907 
L 244.071675 126.294699 
L 244.253567 125.789516 
L 244.531837 125.347457 
L 244.760099 126.394338 
L 245.741822 124.128282 
L 246.202726 125.623984 
L 246.337942 129.409712 
L 246.754794 124.243508 
L 246.994239 127.026799 
L 247.232263 128.226394 
L 247.469526 123.568448 
L 247.708076 125.878413 
L 248.125328 127.998219 
L 248.363697 127.276671 
L 248.543255 128.436186 
L 248.848689 122.668589 
L 249.020847 127.495344 
L 249.218981 125.747736 
L 249.530817 126.364039 
L 249.796994 125.621728 
L 249.91722 126.320708 
L 250.176782 126.624718 
L 250.454559 125.17344 
L 250.69308 125.661382 
L 250.990238 125.442534 
L 251.171156 124.431571 
L 251.466717 124.823984 
L 251.705896 123.703024 
L 252.004037 124.49568 
L 252.243865 124.720858 
L 252.425758 122.898399 
L 252.66071 124.019374 
L 252.958474 126.087475 
L 253.137428 126.01319 
L 253.437262 123.82075 
L 253.732822 125.182529 
L 253.912799 124.469798 
L 254.151034 126.097875 
L 254.390353 129.646185 
L 254.866171 121.944321 
L 255.283195 131.368622 
L 255.702331 125.435656 
L 255.879236 125.061548 
L 256.118256 128.165248 
L 256.357 127.613649 
L 256.596713 124.293739 
L 257.013573 123.489318 
L 257.134596 127.346459 
L 257.61066 123.723259 
L 257.848051 126.137548 
L 258.20509 128.289066 
L 258.445132 123.948108 
L 258.859825 130.202561 
L 259.158214 128.440515 
L 259.730147 126.251372 
L 259.876027 122.116719 
L 260.173233 128.135379 
L 260.294447 126.278593 
L 260.591149 123.96877 
L 260.949329 117.372526 
L 261.322962 126.723124 
L 261.602805 128.74197 
L 261.975746 126.359424 
L 262.086563 126.525784 
L 262.328785 128.390202 
L 262.55622 126.753109 
L 262.794199 126.654296 
L 263.151773 131.340122 
L 263.330837 126.982346 
L 263.7477 122.518486 
L 263.866901 124.916481 
L 264.105397 124.038431 
L 264.285849 129.847509 
L 264.643203 123.790495 
L 264.881961 124.948091 
L 265.058864 124.269274 
L 265.299527 125.887503 
L 265.714773 130.855947 
L 265.955612 129.959594 
L 266.191948 125.165956 
L 266.252174 125.541725 
L 266.48981 126.987012 
L 266.788459 126.56102 
L 267.09442 126.748336 
L 267.324829 127.840379 
L 267.563622 122.798744 
L 267.759853 126.007223 
L 268.338011 128.566885 
L 268.532791 127.290539 
L 268.756773 126.64575 
L 269.017167 127.380988 
L 269.233644 130.73322 
L 269.530633 131.629544 
L 269.887378 130.010194 
L 270.125731 130.012646 
L 270.245132 126.748099 
L 270.661966 126.211429 
L 270.723 127.02304 
L 270.960397 128.570083 
L 271.318588 130.040028 
L 271.561653 125.031335 
L 271.735812 130.407936 
L 271.975033 125.424051 
L 272.454512 130.47627 
L 272.689423 123.430718 
L 272.927961 131.9318 
L 273.643316 127.034986 
L 274.219372 125.615039 
L 274.658263 128.386092 
L 274.845561 127.149034 
L 275.037647 127.222464 
L 275.313574 125.280555 
L 275.437851 129.935777 
L 275.791628 129.648406 
L 275.91339 126.417019 
L 276.20821 125.250343 
L 276.393789 131.117557 
L 276.812326 127.333328 
L 277.049078 133.408658 
L 277.162083 128.85234 
L 277.590469 125.837564 
L 277.779075 130.477451 
L 277.939041 123.871978 
L 278.12053 122.746642 
L 278.475781 133.064603 
L 278.624491 128.113977 
L 278.955747 130.75585 
L 279.193852 130.12224 
L 279.431173 123.784272 
L 279.612332 133.196375 
L 279.907556 126.582423 
L 280.086959 127.479694 
L 280.384925 122.043385 
L 280.623809 128.330192 
L 281.1601 126.839225 
L 281.457142 129.441842 
L 281.594071 132.915469 
L 281.873928 125.415997 
L 282.056615 131.778794 
L 282.113657 125.760291 
L 282.351481 128.329502 
L 282.533731 126.883133 
L 282.828435 126.999585 
L 283.068365 126.09009 
L 283.306338 127.587018 
L 283.66432 120.688093 
L 283.961917 127.780001 
L 284.088847 134.331724 
L 284.563335 124.929149 
L 284.856401 124.162714 
L 285.034625 131.882572 
L 285.276257 128.098915 
L 285.690436 127.288945 
L 285.810779 126.13355 
L 286.048783 122.533307 
L 286.292195 124.844739 
L 286.526687 131.917938 
L 286.769413 130.590363 
L 287.007247 136.262839 
L 287.262421 126.578229 
L 287.484106 132.630235 
L 287.84259 127.881823 
L 288.024509 121.066379 
L 288.259375 126.817441 
L 288.497522 123.485782 
L 288.736219 124.033995 
L 289.035046 128.712558 
L 289.24077 129.370542 
L 289.455069 123.250323 
L 289.811148 124.841765 
L 290.227704 119.244613 
L 290.347633 129.585361 
L 290.465879 121.354991 
L 290.883363 134.554555 
L 290.948755 121.964092 
L 291.225488 126.455922 
L 291.495528 134.283255 
L 291.679836 126.328588 
L 292.13465 137.681936 
L 292.194976 125.28955 
L 292.432576 125.086686 
L 292.969282 130.851791 
L 293.207555 130.304591 
L 293.504983 127.328925 
L 293.689059 129.718285 
L 293.924229 136.147297 
L 294.221147 137.840501 
L 294.466574 131.863775 
L 294.698997 138.477978 
L 294.878318 129.451978 
L 295.173661 132.498539 
L 295.4127 124.979006 
L 295.717231 122.95551 
L 295.948103 135.539704 
L 296.426372 126.446907 
L 296.607631 126.748732 
L 296.961851 128.852472 
L 297.152314 132.524894 
L 297.438974 125.521639 
L 297.620443 133.646447 
L 297.929888 127.722009 
L 298.095365 128.954559 
L 298.335465 127.122114 
L 298.632709 133.115459 
L 298.870236 127.656583 
L 299.108436 127.796208 
L 299.60655 126.775986 
L 299.827215 125.867463 
L 300.182774 134.368043 
L 300.361705 126.409889 
L 300.600166 131.943606 
L 300.854175 126.362747 
L 301.079765 133.011067 
L 301.494049 118.465023 
L 301.613328 127.343068 
L 301.911255 118.670069 
L 302.09056 130.872404 
L 302.626399 126.305618 
L 302.80676 120.608681 
L 303.043886 128.898761 
L 303.341324 128.824913 
L 303.54503 130.643979 
L 303.826118 127.069863 
L 304.119111 129.314512 
L 304.41641 129.883022 
L 304.595673 126.08971 
L 304.95287 129.113768 
L 305.252232 133.158192 
L 305.31073 130.276446 
L 305.548602 129.007868 
L 305.846457 131.743998 
L 306.02906 128.637753 
L 306.385283 129.410505 
L 306.562027 135.622175 
L 306.801509 132.70578 
L 306.996024 127.561902 
L 307.281744 128.884004 
L 307.900046 130.248411 
L 308.067971 129.82242 
L 308.299126 133.954177 
L 308.537897 122.774165 
L 308.839248 130.875299 
L 309.086734 130.518422 
L 309.313549 131.691152 
L 309.455479 130.812733 
L 309.930311 132.940727 
L 310.001814 132.523889 
L 310.28921 126.63983 
L 310.527271 135.007382 
L 310.708003 124.147624 
L 311.063774 128.601597 
L 311.611583 120.56809 
L 311.781527 133.689614 
L 312.017687 132.607342 
L 312.375319 121.72363 
L 312.501747 129.379046 
L 312.732977 129.579047 
L 313.090224 128.920525 
L 313.212638 219.930609 
L 313.805492 208.377477 
L 314.235778 150.193407 
L 314.58015 147.661441 
L 314.701814 137.468864 
L 314.938888 129.849807 
L 315.682591 124.495512 
L 316.016983 124.988444 
L 316.33419 126.224221 
L 316.452034 113.131272 
L 316.695304 123.475323 
L 316.995565 117.644251 
L 317.110027 127.382087 
L 317.410895 124.180489 
L 317.763281 128.160478 
L 318.060545 128.201574 
L 318.180102 128.500606 
L 318.359189 130.648805 
L 318.718927 122.017763 
L 318.959086 122.387375 
L 319.49789 133.604066 
L 319.614865 128.746232 
L 319.910478 136.370074 
L 320.14826 129.25523 
L 320.624731 126.263143 
L 320.864807 128.080039 
L 321.102007 120.324864 
L 321.340325 125.807655 
L 321.584298 127.01587 
L 321.878065 118.280277 
L 322.357206 127.594657 
L 322.592008 128.849001 
L 322.840479 127.623582 
L 323.070052 128.327284 
L 323.310491 128.294072 
L 323.548541 134.282449 
L 323.963903 133.691534 
L 324.083748 127.194588 
L 324.50419 131.923551 
L 324.569671 123.462793 
L 324.802157 128.565768 
L 325.454334 127.960661 
L 325.633327 126.772721 
L 325.812051 128.683759 
L 326.051482 121.646801 
L 326.294583 123.111626 
L 326.530758 127.170537 
L 326.852363 124.411621 
L 327.242305 129.334949 
L 327.301953 126.762949 
L 327.540635 128.489954 
L 327.778986 127.977533 
L 328.020226 129.36944 
L 328.256505 128.365229 
L 328.495475 121.50749 
L 328.794246 132.158907 
L 329.171816 127.710416 
L 329.275333 131.236555 
L 329.508337 134.245136 
L 329.745474 123.827443 
L 330.162941 128.203593 
L 330.282264 128.083183 
L 330.580948 127.990734 
L 330.761294 131.706548 
L 331.057073 128.774357 
L 331.312423 132.804055 
L 331.798258 126.011372 
L 332.018819 129.770901 
L 332.487919 128.728607 
L 332.725398 129.772739 
L 333.024265 128.05477 
L 333.267721 130.404892 
L 333.502737 131.193794 
L 333.741417 126.81211 
L 333.980504 128.497087 
L 334.226045 131.861141 
L 334.581092 124.661346 
L 335.022935 128.784635 
L 335.231468 128.535578 
L 335.709664 134.398795 
L 335.971918 132.524826 
L 336.184852 126.652918 
L 336.423478 126.249222 
L 336.663453 126.326046 
L 336.900926 129.913624 
L 337.317585 127.649848 
L 337.437428 125.93282 
L 337.736454 129.520001 
L 337.916816 128.079185 
L 338.161358 121.787218 
L 338.54477 131.792201 
L 338.658091 126.632232 
L 338.944233 128.134494 
L 338.991294 129.030033 
L 339.29103 121.658399 
L 339.410048 129.20728 
L 339.825811 128.311923 
L 339.945144 128.858565 
L 340.12328 128.097677 
L 340.421547 125.7207 
L 340.719728 133.140247 
L 340.898441 129.272441 
L 341.13678 127.859945 
L 341.375437 128.918404 
L 341.615004 126.231628 
L 341.917182 131.111708 
L 342.091832 131.256551 
L 342.390217 126.106399 
L 342.592547 127.541291 
L 342.865715 127.94593 
L 343.224194 133.399216 
L 343.364331 128.078991 
L 343.582206 128.079356 
L 343.819625 127.39022 
L 344.2367 128.56579 
L 344.355474 126.110257 
L 344.835051 130.134853 
L 345.073439 128.67749 
L 345.381281 129.539972 
L 345.609531 131.146344 
L 345.793405 124.511862 
L 346.084919 129.237335 
L 346.386542 129.194309 
L 346.623265 123.662702 
L 346.800697 130.976487 
L 347.046882 127.626443 
L 347.336523 126.311001 
L 347.633595 127.440414 
L 347.812551 129.051684 
L 348.051726 128.205765 
L 348.470912 127.368646 
L 348.531021 128.408619 
L 348.830156 128.260043 
L 349.025631 127.96108 
L 349.25029 131.169709 
L 349.603408 127.89129 
L 349.8421 128.035876 
L 350.139628 129.329977 
L 350.557034 119.966675 
L 350.855204 129.851249 
L 351.033535 129.215394 
L 351.272515 127.877949 
L 351.510253 121.44706 
L 351.86755 134.492902 
L 352.048182 127.166561 
L 352.34541 130.06729 
L 352.643325 127.320975 
L 352.763199 128.852603 
L 353.001631 133.827956 
L 353.358236 126.857753 
L 353.777296 127.615101 
L 354.192068 122.659497 
L 354.49016 131.387973 
L 354.729169 128.003716 
L 354.967142 128.692895 
L 355.26572 127.675952 
L 355.563366 128.079091 
L 355.691361 133.319706 
L 355.993376 128.105486 
L 356.230389 128.02046 
L 356.695564 133.755034 
L 357.11492 133.174735 
L 357.232346 126.495312 
L 357.414082 128.464247 
L 357.768024 127.630077 
L 358.067321 128.712785 
L 358.200121 130.356247 
L 358.619507 128.079208 
L 358.726755 130.925315 
L 358.964857 131.219066 
L 359.203431 127.293795 
L 359.448191 127.327737 
L 359.739861 128.174453 
L 359.918637 127.55518 
L 360.223373 129.638431 
L 360.464925 132.628919 
L 360.754514 122.605623 
L 360.876193 131.801484 
L 361.129106 128.68211 
L 361.415503 131.324974 
L 361.661674 127.851893 
L 361.887082 128.124916 
L 362.185637 129.220151 
L 362.424082 125.713662 
L 362.662654 127.711272 
L 362.950189 131.531183 
L 363.20353 121.643225 
L 363.423447 128.493592 
L 363.622003 127.272863 
L 363.916371 133.443592 
L 364.393153 128.282629 
L 364.630544 127.452564 
L 364.92917 128.998629 
L 365.107627 127.973793 
L 365.345698 128.966466 
L 365.643635 120.858265 
L 365.941582 127.656907 
L 366.120566 127.057863 
L 366.430486 133.284753 
L 366.661699 128.07907 
L 366.95586 128.07915 
L 367.137644 128.300383 
L 367.313284 129.014386 
L 367.613202 128.079256 
L 367.848153 130.910686 
L 368.164973 131.217827 
L 368.328014 126.814772 
L 368.629685 132.73168 
L 368.92628 128.052424 
L 369.113805 128.867707 
L 369.34484 128.431638 
L 369.529356 126.526071 
L 369.821758 126.778797 
L 370.240307 120.332366 
L 370.360723 130.051963 
L 370.778089 127.390168 
L 371.015218 128.543488 
L 371.312315 133.075053 
L 371.555098 128.974522 
L 371.789135 128.804753 
L 372.027824 127.696242 
L 372.325578 128.667494 
L 372.861574 132.180264 
L 373.397043 127.302201 
L 373.93445 133.627432 
L 373.993192 116.914141 
L 374.356468 127.177367 
L 374.64956 129.26816 
L 374.71244 128.724067 
L 375.080509 128.597768 
L 375.245909 127.524566 
L 375.486534 130.929108 
L 375.841426 127.616469 
L 376.021182 128.019154 
L 376.325316 130.670742 
L 376.501063 120.641407 
L 376.735908 127.218813 
L 377.275259 127.5194 
L 377.454122 134.402987 
L 377.691085 133.618307 
L 377.97089 127.019911 
L 378.467507 128.079158 
L 378.705786 127.993319 
L 379.003346 133.571075 
L 379.182787 127.938244 
L 379.541591 129.172386 
L 379.77876 124.728323 
L 379.957593 126.554402 
L 380.315476 127.258823 
L 380.43452 130.079185 
L 380.67377 129.751034 
L 380.971538 130.295246 
L 381.209422 127.793696 
L 381.566802 127.657056 
L 381.744983 128.532787 
L 382.170296 127.985708 
L 382.401177 125.736593 
L 382.640935 130.9565 
L 382.938268 126.865799 
L 383.116642 128.992848 
L 383.414778 127.684285 
L 383.653191 128.048499 
L 383.891272 132.340366 
L 384.130172 127.551484 
L 384.36784 126.695429 
L 385.141968 133.479907 
L 385.442062 128.304176 
L 385.737779 127.608811 
L 385.982328 123.905546 
L 386.154941 132.578514 
L 386.572481 127.933088 
L 386.633083 128.401441 
L 386.871953 128.786918 
L 387.288124 127.990224 
L 387.408358 134.533626 
L 387.704159 123.710893 
L 387.883735 128.535721 
L 388.12156 128.345202 
L 388.360572 133.138352 
L 388.83674 127.925458 
L 389.078696 127.168433 
L 389.373409 128.423921 
L 389.673069 128.023662 
L 389.731908 127.692206 
L 389.85151 128.078957 
L 390.209139 128.07956 
L 390.327434 130.72947 
L 390.566718 127.209123 
L 390.866233 120.340863 
L 391.578394 127.845201 
L 391.956832 127.897581 
L 392.061414 128.540885 
L 392.294363 125.146739 
L 392.534085 132.45713 
L 392.832412 129.440206 
L 393.014287 127.50397 
L 393.427847 133.170757 
L 393.65145 124.105705 
L 393.785792 127.28093 
L 394.023607 127.293761 
L 394.261973 127.740831 
L 394.507191 127.586284 
L 394.798172 127.138328 
L 395.156539 129.380872 
L 395.275553 132.474947 
L 395.574048 129.816226 
L 395.817442 129.092383 
L 396.050757 130.799962 
L 396.289007 128.890408 
L 396.468688 128.598488 
L 396.709418 127.466979 
L 397.006497 127.007064 
L 397.24286 127.548109 
L 397.480824 131.835882 
L 397.839129 127.963545 
L 398.01748 129.613963 
L 398.255879 128.556258 
L 398.493969 133.089512 
L 398.732782 127.994316 
L 399.032184 127.660404 
L 399.38968 129.328715 
L 399.629341 129.514381 
L 399.867123 122.246194 
L 399.986143 131.800792 
L 400.464749 126.76369 
L 400.710246 130.520144 
L 401.000306 131.769849 
L 401.240795 127.272397 
L 401.476641 126.692001 
L 401.775515 128.708469 
L 401.955105 127.447599 
L 402.253688 120.895426 
L 402.431344 131.172975 
L 402.669635 127.630582 
L 402.908526 128.150264 
L 403.206332 129.595921 
L 403.397622 122.874877 
L 403.633589 127.802609 
L 403.922551 128.957762 
L 404.402506 126.923304 
L 404.641312 129.949272 
L 404.947887 121.834099 
L 405.175669 128.468312 
L 405.385104 127.108225 
L 405.65268 126.344755 
L 405.894417 121.000292 
L 406.132636 127.436795 
L 406.426561 127.243617 
L 406.667313 129.438271 
L 406.963223 128.498291 
L 407.144113 119.629879 
L 407.380891 120.831349 
L 407.619993 128.977457 
L 407.860801 128.322521 
L 408.217822 130.472309 
L 408.398363 119.881325 
L 408.636507 127.978802 
L 408.917998 128.182515 
L 409.234688 126.972081 
L 409.470635 131.762294 
L 409.589722 121.950828 
L 409.829013 121.20719 
L 410.126347 128.936942 
L 410.42592 128.581836 
L 410.606015 126.416644 
L 410.844374 130.093311 
L 411.143152 128.191141 
L 411.320402 128.817695 
L 411.619643 128.631047 
L 411.857209 126.167246 
L 412.096215 133.73789 
L 412.512689 128.079219 
L 412.58546 128.976295 
L 412.87158 127.857588 
L 413.062343 125.586453 
L 413.456757 132.007552 
L 413.584819 126.12624 
L 413.81476 128.018208 
L 414.11483 128.882908 
L 414.472681 128.649473 
L 414.533583 133.19448 
L 414.830286 126.846688 
L 415.068038 127.006431 
L 415.309724 127.741784 
L 415.559664 128.079543 
L 415.96323 126.866065 
L 416.023198 127.305349 
L 416.321581 126.695291 
L 416.563927 128.237556 
L 416.805148 125.105606 
L 417.002271 130.134729 
L 417.276707 125.112239 
L 417.756951 128.471033 
L 418.054464 129.118232 
L 418.471725 127.936225 
L 418.530943 128.53937 
L 418.770431 126.130102 
L 419.126668 127.650415 
L 419.305279 131.723707 
L 419.487583 131.568928 
L 419.724077 132.483999 
L 419.962564 128.410757 
L 420.281437 128.046951 
L 420.501517 128.600202 
L 420.738015 123.96188 
L 420.975057 128.352243 
L 421.214128 127.7439 
L 421.512226 128.371242 
L 421.693249 127.199221 
L 422.225812 125.996676 
L 422.234324 174.797378 
L 422.468961 127.371987 
L 422.825214 132.816476 
L 423.004989 130.919619 
L 423.252127 130.734264 
L 423.484338 127.447063 
L 423.840978 127.329772 
L 423.960579 131.28417 
L 424.145321 127.502289 
L 424.43705 126.463428 
L 424.675708 128.078824 
L 424.915208 127.71551 
L 425.155055 126.563596 
L 425.574673 120.323487 
L 425.629286 133.264401 
L 425.988437 128.330087 
L 426.172027 128.755273 
L 426.40654 128.031774 
L 426.64547 127.903066 
L 427.065099 128.193622 
L 427.190077 130.659345 
L 427.445399 127.522594 
L 427.659166 132.789079 
L 427.90644 132.150656 
L 427.958088 126.340761 
L 428.19698 123.923921 
L 428.436409 128.095723 
L 428.619145 126.435961 
L 428.8559 128.361402 
L 429.151322 128.146296 
L 429.628082 119.657011 
L 430.10485 134.284716 
L 430.344322 134.80671 
L 430.903823 127.923736 
L 431.121983 127.65408 
L 431.357652 101.2651 
L 431.597523 99.104333 
L 431.843497 109.076915 
L 432.095657 113.353931 
L 432.328044 114.377311 
L 432.561897 114.560455 
L 432.821237 122.245136 
L 433.594031 128.261513 
L 433.87843 126.619716 
L 434.121676 128.845749 
L 434.414608 128.879761 
L 434.534949 131.529647 
L 434.776173 130.302852 
L 435.198864 133.588947 
L 435.318081 128.247443 
L 435.54992 128.60053 
L 435.793016 129.74576 
L 436.163582 125.820718 
L 436.324342 127.37026 
L 436.627299 126.89775 
L 436.862153 128.026185 
L 437.100266 130.379473 
L 437.400723 124.528518 
L 437.640155 133.181095 
L 438.242412 122.305693 
L 438.507695 126.804376 
L 438.778576 125.326453 
L 439.093849 128.624731 
L 439.259491 135.17922 
L 439.609454 129.079307 
L 439.813723 131.247369 
L 440.027646 127.346242 
L 440.326857 129.166955 
L 440.505242 126.645018 
L 440.743769 126.087822 
L 440.985603 126.901139 
L 441.360449 131.425048 
L 441.460589 130.232564 
L 441.817555 128.278074 
L 441.996582 126.359863 
L 442.476381 131.694997 
L 442.882088 126.096712 
L 443.119643 126.843899 
L 443.306995 124.976505 
L 443.537398 136.502732 
L 443.835364 125.079646 
L 444.193965 127.198985 
L 444.670741 132.321511 
L 445.029606 123.774814 
L 445.21114 125.703561 
L 445.566243 131.124437 
L 445.69185 121.494564 
L 446.223006 129.629306 
L 446.46149 127.508937 
L 446.703529 130.761312 
L 446.93948 129.62226 
L 447.182432 127.065402 
L 447.4174 128.362808 
L 447.656135 132.671309 
L 447.904892 127.121641 
L 448.138367 130.725549 
L 448.437338 126.438844 
L 448.625267 128.525594 
L 449.152725 127.663424 
L 449.392189 131.927168 
L 449.808343 126.988983 
L 449.89612 128.429684 
L 450.16705 125.36734 
L 450.46407 125.314208 
L 450.761942 128.982014 
L 450.94209 126.8411 
L 451.180519 132.533122 
L 451.425902 127.844069 
L 451.658653 128.149142 
L 452.077357 124.738768 
L 452.326715 130.570947 
L 452.613173 126.362001 
L 452.864845 127.531601 
L 453.098099 132.661872 
L 453.469682 128.271292 
L 453.632802 132.565929 
L 453.809319 125.547734 
L 454.134366 124.48648 
L 454.345201 132.923811 
L 454.765606 128.330202 
L 454.847127 129.723084 
L 455.071869 126.08509 
L 455.300727 129.426056 
L 455.539853 129.553288 
L 455.961335 127.096951 
L 456.150748 123.737027 
L 456.566905 133.489706 
L 456.984034 128.517247 
L 457.044693 130.802082 
L 457.700957 126.630474 
L 457.762486 127.246181 
L 458.176246 133.220516 
L 458.295734 124.881339 
L 458.535771 129.665765 
L 458.772737 127.482859 
L 459.18988 129.820388 
L 459.309275 127.812204 
L 459.548312 129.290889 
L 459.792529 129.138744 
L 459.846799 127.298315 
L 460.026983 130.126366 
L 460.264394 136.825579 
L 460.505547 126.840569 
L 460.801349 125.932994 
L 460.981197 128.277564 
L 461.300883 128.249463 
L 461.461133 125.68094 
L 461.759676 134.006641 
L 461.997667 127.005432 
L 462.240011 129.699015 
L 462.535859 125.767841 
L 462.954361 130.950966 
L 463.252644 127.094622 
L 463.439137 129.737674 
L 463.848593 130.23988 
L 463.995751 127.451905 
L 464.210024 127.765317 
L 464.468285 128.782909 
L 464.68398 128.386692 
L 464.923343 125.780014 
L 465.170704 127.633363 
L 465.469677 131.820011 
L 465.710789 127.733186 
L 466.009353 126.738979 
L 466.483619 128.52586 
L 466.663185 125.796227 
L 466.961408 128.102399 
L 467.199234 127.23835 
L 467.597038 128.85615 
L 467.744427 126.653697 
L 467.921045 133.321592 
L 468.454257 126.248598 
L 468.761166 129.386812 
L 468.931187 126.023426 
L 469.179483 127.585366 
L 469.542461 126.399631 
L 469.64942 124.578711 
L 469.893371 124.218446 
L 470.128335 130.161499 
L 470.435389 130.83637 
L 470.683137 128.69713 
L 470.906718 129.950942 
L 471.143739 129.011192 
L 471.389817 131.47809 
L 471.865224 126.318522 
L 472.16172 125.961473 
L 472.456786 127.90149 
L 472.636186 125.910062 
L 473.054076 130.243392 
L 473.400235 127.585484 
L 473.868197 128.947678 
L 474.170263 123.645879 
L 474.354868 131.603925 
L 474.645427 130.94043 
L 474.949827 127.729572 
L 475.125654 132.511621 
L 475.601585 126.925991 
L 476.079329 132.8276 
L 476.317061 132.56724 
L 476.555932 126.669001 
L 476.795462 134.258533 
L 477.212458 131.990792 
L 477.361592 123.544019 
L 477.749946 130.829019 
L 477.868828 126.538944 
L 478.107403 130.786211 
L 478.345862 126.187317 
L 478.643526 130.707646 
L 478.775738 127.955993 
L 479.035221 126.75724 
L 479.305237 132.611633 
L 479.600228 130.012351 
L 479.798874 131.321627 
L 480.01865 130.845351 
L 480.259337 124.262965 
L 480.639147 126.909544 
L 480.797255 125.72067 
L 481.032858 132.686995 
L 481.30086 128.076991 
L 481.594462 128.302084 
L 481.817167 127.770529 
L 482.112202 131.267261 
L 482.54011 125.035089 
L 482.796157 130.851408 
L 483.087039 127.582945 
L 483.208624 132.625483 
L 483.500877 127.757681 
L 483.799178 125.916522 
L 484.097273 128.477814 
L 484.216787 126.272909 
L 484.514676 128.880644 
L 484.761105 134.953744 
L 485.230884 126.510676 
L 485.470722 125.580352 
L 485.76882 127.545531 
L 486.007356 130.107423 
L 486.247979 129.967062 
L 486.483328 128.534748 
L 486.721699 129.996181 
L 486.961225 127.648154 
L 487.206514 128.24974 
L 487.440359 128.304286 
L 487.677248 127.629892 
L 488.037454 130.032277 
L 488.214516 132.777539 
L 488.455338 127.652401 
L 488.751713 130.44721 
L 489.288177 127.441996 
L 489.540319 126.791202 
L 489.706772 127.446909 
L 490.005091 126.748466 
L 490.242896 129.092678 
L 490.683853 126.958101 
L 490.899752 127.078872 
L 491.201618 127.842419 
L 491.494573 124.607903 
L 491.741352 129.077992 
L 491.913287 129.303301 
L 492.154206 126.844263 
L 492.390345 129.428197 
L 492.705805 126.255429 
L 492.884784 126.985897 
L 493.122928 124.567191 
L 493.601015 124.130661 
L 493.66099 128.290645 
L 493.95881 124.350939 
L 494.141209 127.043949 
L 494.380638 128.310241 
L 494.614303 128.308079 
L 494.912142 130.08235 
L 495.092642 133.334971 
L 495.391562 128.483699 
L 495.688062 129.129132 
L 495.866611 127.697646 
L 496.169394 128.79518 
L 496.407336 126.5781 
L 496.644163 133.215607 
L 497.122047 128.247288 
L 497.32743 130.34704 
L 497.602808 129.334083 
L 497.947291 126.321381 
L 498.384535 130.389238 
L 498.621652 129.269525 
L 498.860584 132.992716 
L 499.337413 127.028454 
L 499.576371 129.357352 
L 499.817608 129.950755 
L 500.113488 132.702877 
L 500.293182 127.49744 
L 500.609204 128.211204 
L 500.650281 125.931082 
L 500.829084 124.374479 
L 501.130331 132.818674 
L 501.425955 127.26034 
L 501.604394 127.180493 
L 502.085048 129.716058 
L 502.142852 132.760137 
L 502.321119 128.97694 
L 502.565805 127.383671 
L 503.051282 128.320051 
L 503.27591 126.562824 
L 503.515493 131.223241 
L 503.872555 130.765443 
L 504.051407 126.265201 
L 504.229888 129.812513 
L 504.650095 125.75584 
L 504.707569 130.956166 
L 505.069486 129.895707 
L 505.311707 131.483206 
L 505.547959 128.847907 
L 505.78225 128.721878 
L 506.020268 128.267331 
L 506.266043 125.371476 
L 506.569872 130.466717 
L 506.746757 127.900402 
L 506.993307 127.967569 
L 507.231373 126.095088 
L 507.475334 129.215963 
L 507.708032 128.643191 
L 508.005894 132.292949 
L 508.190358 126.483651 
L 508.485193 133.236144 
L 508.787092 122.800557 
L 509.01986 133.406184 
L 509.275368 134.193935 
L 509.498512 123.966287 
L 509.921977 129.764541 
L 509.97473 127.364018 
L 510.21317 130.437595 
L 510.631246 127.670756 
L 510.691646 128.061949 
L 510.932276 126.845101 
L 511.427141 129.616532 
L 511.731757 128.117684 
L 511.94593 131.181892 
L 512.202575 128.109422 
L 512.42372 128.84586 
L 512.662927 131.93525 
L 512.902669 123.476937 
L 513.214663 132.63925 
L 513.619081 124.482518 
L 513.68035 128.505322 
L 513.915563 125.50569 
L 514.39837 129.177217 
L 514.571539 129.190184 
L 514.703169 125.977286 
L 514.890518 128.7361 
L 515.247869 124.677105 
L 515.468485 127.52304 
L 515.690172 127.254706 
L 515.918439 129.976064 
L 516.15758 130.109396 
L 516.400242 132.160112 
L 516.762513 125.040271 
L 516.922212 128.330329 
L 517.159528 126.955478 
L 517.51651 126.642551 
L 517.702683 129.494301 
L 517.878201 125.954955 
L 518.173168 124.776153 
L 518.480489 128.630744 
L 518.653123 128.954107 
L 518.951708 125.439313 
L 519.130101 128.63179 
L 519.388449 129.268965 
L 519.725267 127.812259 
L 519.86004 130.992819 
L 520.141772 133.622391 
L 520.439599 146.18422 
L 520.621899 139.298971 
L 520.859464 145.367836 
L 521.115203 138.751787 
L 521.39507 141.231354 
L 521.637701 137.009551 
L 521.87368 134.939061 
L 522.117242 137.756388 
L 522.363738 130.798038 
L 522.827932 126.474272 
L 523.266623 126.405775 
L 523.497826 127.679689 
L 523.843711 126.378401 
L 524.131034 127.719161 
L 524.380779 127.686291 
L 524.857058 128.723591 
L 524.9168 128.414162 
L 525.275559 128.275572 
L 525.403427 128.735421 
L 525.814188 128.269296 
L 526.316015 128.089493 
L 526.428741 128.183634 
L 526.596989 128.085549 
L 528.686391 128.046923 
L 528.92995 127.886808 
L 529.284939 128.087583 
L 544.419445 128.073628 
L 596.502813 128.074602 
L 596.502813 128.074602 
" clip-path="url(#pf3730c8758)" style="fill: none; stroke: #0000ff; stroke-opacity: 0.5; stroke-width: 1.5; stroke-linecap: square"/>
   </g>
   <g id="line2d_28">
    <path d="M 38.502813 154.041302 
L 38.622916 150.374913 
L 38.865804 151.127733 
L 38.937 153.645791 
L 39.111017 151.335591 
L 39.417061 151.978955 
L 39.885883 151.757509 
L 40.302791 153.365441 
L 40.541846 152.52495 
L 40.601545 153.346659 
L 41.018884 153.983325 
L 41.257159 153.971544 
L 41.559198 154.942431 
L 42.033407 155.642532 
L 42.091503 155.444895 
L 42.329583 155.081055 
L 42.628872 153.834218 
L 42.928055 154.552851 
L 43.164095 153.028603 
L 43.581899 155.031593 
L 43.819883 152.78325 
L 44.060446 153.883838 
L 44.300935 153.041661 
L 44.599353 154.740243 
L 44.834047 152.829467 
L 45.371049 153.790113 
L 45.669985 155.331021 
L 45.857012 153.480336 
L 46.328887 152.902887 
L 46.567049 153.709958 
L 46.805772 154.078958 
L 47.224756 152.043745 
L 47.405507 153.689906 
L 47.521373 153.366469 
L 47.766181 154.694195 
L 48.003493 153.046255 
L 48.536913 153.768204 
L 49.14069 153.644104 
L 50.441813 153.997355 
L 53.050949 153.120646 
L 55.661121 153.02435 
L 57.085405 153.511396 
L 58.50861 152.852638 
L 59.813793 153.08821 
L 59.954398 154.274445 
L 60.669155 151.375868 
L 60.966191 154.145168 
L 61.265892 155.198718 
L 61.445302 153.492796 
L 61.681905 155.329798 
L 61.866132 154.174034 
L 62.104406 151.652707 
L 62.404 154.292465 
L 62.638974 154.733066 
L 62.936269 153.41038 
L 63.11617 154.339351 
L 63.356366 154.384426 
L 63.652931 151.983586 
L 64.130974 153.859738 
L 64.426649 153.420295 
L 64.72558 154.490409 
L 64.844761 153.168642 
L 65.083776 152.814565 
L 65.323835 156.261446 
L 65.636208 156.514766 
L 65.860257 154.313658 
L 66.108513 155.869012 
L 66.396826 154.849496 
L 66.578194 153.117913 
L 66.934528 156.702197 
L 67.112748 155.538206 
L 67.414376 154.538618 
L 67.588886 154.958676 
L 67.829178 152.972923 
L 68.125305 152.007207 
L 68.602529 155.133578 
L 68.783671 157.369923 
L 69.019997 155.802617 
L 69.32384 152.191159 
L 69.616891 153.388615 
L 69.855516 155.522527 
L 70.095651 153.750888 
L 70.338534 153.614482 
L 70.523348 156.897619 
L 70.817845 155.920772 
L 71.292681 152.206962 
L 71.413207 152.273227 
L 71.829525 154.370828 
L 72.070236 155.385821 
L 72.364771 154.074712 
L 72.604817 153.791565 
L 72.782636 154.980524 
L 73.259107 153.232127 
L 73.442011 151.812419 
L 73.737273 152.961061 
L 73.796233 153.693836 
L 74.034856 154.405118 
L 74.512377 151.444033 
L 74.809776 152.452312 
L 75.10756 152.762827 
L 75.350039 152.548306 
L 75.716732 155.856978 
L 75.763801 155.362193 
L 76.00305 155.356075 
L 76.299771 155.038047 
L 76.479259 154.028744 
L 76.779836 156.586791 
L 77.014868 157.251524 
L 77.211656 155.265788 
L 77.492991 156.089322 
L 77.731123 156.247429 
L 78.208334 152.498336 
L 78.445703 154.126161 
L 78.984279 155.051437 
L 79.221395 152.850145 
L 79.46119 152.914428 
L 79.699016 153.252209 
L 79.9365 152.057066 
L 80.296129 151.42755 
L 80.712316 156.560515 
L 81.192765 151.881524 
L 81.785318 153.486565 
L 81.913099 151.535424 
L 82.441028 157.080211 
L 82.620686 155.678609 
L 82.859406 151.565982 
L 83.215747 150.999232 
L 83.394399 153.679879 
L 83.632494 153.363585 
L 83.872614 150.888215 
L 84.109856 152.274553 
L 84.411018 155.15449 
L 84.706152 154.311766 
L 84.884266 151.311011 
L 85.123897 150.598315 
L 85.361288 152.668408 
L 85.600003 153.252521 
L 85.838773 153.41001 
L 86.207889 153.990473 
L 86.434523 154.080238 
L 86.732011 152.356318 
L 86.893125 150.298894 
L 87.090643 151.856268 
L 87.329041 155.168297 
L 87.627622 156.412361 
L 88.103508 152.175875 
L 88.40325 151.869377 
L 88.586765 153.330877 
L 89.00022 154.420043 
L 89.118231 155.276527 
L 89.536432 157.12047 
L 89.908761 157.142955 
L 90.081212 154.434231 
L 90.548537 154.535148 
L 90.668047 155.736127 
L 90.905672 156.322618 
L 91.144508 155.951355 
L 91.263784 155.450158 
L 91.681363 155.029982 
L 91.801828 154.29724 
L 92.038568 154.431831 
L 92.514883 155.123666 
L 92.754169 154.554091 
L 93.289814 150.536413 
L 93.489754 150.416555 
L 93.826284 151.860966 
L 94.004867 152.085304 
L 94.541287 147.746128 
L 94.842115 149.377995 
L 95.019457 152.87588 
L 95.257497 154.843518 
L 95.498953 155.193993 
L 95.89183 154.765031 
L 96.064357 155.033106 
L 96.454062 154.444596 
L 96.573099 153.645465 
L 96.628852 154.211886 
L 96.69475 156.697057 
L 96.989749 158.326179 
L 97.286052 155.984541 
L 97.48986 151.84716 
L 97.779913 150.834205 
L 98.202731 156.359689 
L 98.47895 155.342659 
L 98.717529 153.473369 
L 99.025598 154.789654 
L 99.325453 155.186902 
L 99.795665 151.011879 
L 100.391 153.300973 
L 100.526244 155.450735 
L 101.868401 152.719932 
L 103.165642 153.402618 
L 104.594361 153.174698 
L 104.673559 157.678224 
L 105.09155 152.653323 
L 105.454112 151.430085 
L 105.687883 151.086021 
L 106.305417 153.811986 
L 107.089968 144.763097 
L 107.387998 145.313528 
L 107.688168 147.980287 
L 108.164534 156.247296 
L 108.347806 157.784492 
L 108.640473 156.801583 
L 109.117895 153.522453 
L 109.477366 155.411827 
L 109.596272 158.494488 
L 109.892792 159.506648 
L 110.192261 157.616658 
L 110.795086 147.836107 
L 111.052094 148.34658 
L 111.29097 151.675627 
L 111.577019 153.221083 
L 112.049728 149.121072 
L 112.289519 149.76774 
L 112.792567 153.799442 
L 113.325136 154.95638 
L 113.541144 153.333182 
L 113.788285 152.965282 
L 114.093357 155.567074 
L 114.33146 158.741471 
L 114.540544 158.895783 
L 114.883064 156.285068 
L 115.036051 153.589655 
L 115.313819 154.282013 
L 115.937099 156.553608 
L 116.002065 157.383364 
L 116.216076 155.467176 
L 116.30385 152.890952 
L 116.475791 151.542204 
L 116.782905 151.818141 
L 117.130896 151.768006 
L 117.249404 151.360671 
L 117.487743 151.943946 
L 117.726095 152.202023 
L 118.024139 151.763685 
L 118.450471 152.563648 
L 118.928024 155.071409 
L 119.289499 154.205032 
L 119.523478 152.60655 
L 119.821194 154.325493 
L 119.945178 156.896746 
L 120.298612 155.749945 
L 120.606507 153.310103 
L 120.715903 154.117522 
L 120.9231 157.297557 
L 121.194101 158.628956 
L 121.671188 151.983108 
L 121.912267 152.511723 
L 122.149815 153.459214 
L 122.624796 153.237624 
L 122.690525 154.600576 
L 122.935962 155.584839 
L 123.160922 154.147294 
L 123.69748 149.465195 
L 124.174029 155.112175 
L 124.949134 154.35449 
L 125.13009 152.379966 
L 125.427231 150.712933 
L 125.665306 150.46906 
L 125.857602 152.625489 
L 126.147722 154.435312 
L 126.627668 152.917473 
L 127.101098 153.717812 
L 127.397474 153.641022 
L 127.755155 153.062033 
L 128.11266 155.035093 
L 128.470607 155.680256 
L 128.590202 155.465075 
L 128.828251 155.50678 
L 129.127471 154.975044 
L 129.721296 155.386603 
L 130.080965 156.648553 
L 130.318908 156.044082 
L 131.094146 152.458865 
L 131.390373 152.841441 
L 131.570561 153.300056 
L 132.288655 151.295204 
L 132.530023 151.653406 
L 132.778446 152.302306 
L 133.080422 154.21693 
L 133.269134 156.849328 
L 133.599891 156.279492 
L 133.781243 153.191229 
L 134.048442 153.264368 
L 134.27389 156.153638 
L 134.511673 155.895563 
L 134.752536 152.974755 
L 134.988169 152.267847 
L 135.524563 155.795579 
L 136.061597 150.89637 
L 136.299914 150.864727 
L 136.537647 152.42279 
L 137.144696 150.232512 
L 137.371933 151.411014 
L 137.496099 153.145478 
L 137.729921 153.987202 
L 138.031643 152.552411 
L 138.237846 150.911015 
L 138.462756 151.248166 
L 138.821519 153.339744 
L 139.04073 153.601579 
L 139.996454 151.841422 
L 140.23413 152.392082 
L 140.475957 154.694327 
L 140.727123 158.343133 
L 141.011902 160.751667 
L 141.192054 159.102532 
L 141.74323 155.247562 
L 142.220316 159.897646 
L 142.460347 160.480532 
L 142.698106 157.648766 
L 143.173957 150.781761 
L 143.471179 151.218385 
L 143.657606 154.448532 
L 144.128735 158.055376 
L 144.365665 158.349274 
L 144.426045 155.830339 
L 144.665021 153.84558 
L 144.902659 153.46176 
L 145.379375 157.367561 
L 145.679051 157.611619 
L 146.042843 154.981685 
L 146.15371 151.942797 
L 146.451965 151.425513 
L 146.696415 154.175195 
L 146.884804 157.790327 
L 147.11376 157.808581 
L 147.644895 153.74957 
L 148.299554 155.430041 
L 148.41882 156.728835 
L 149.076012 154.74688 
L 149.373331 154.743571 
L 150.029772 156.360414 
L 150.089694 154.977127 
L 150.565971 150.489653 
L 150.92311 151.84448 
L 151.353883 152.998814 
L 151.876006 149.077186 
L 152.351803 154.047957 
L 152.532825 157.406549 
L 152.888581 160.174827 
L 153.188565 159.077478 
L 153.309231 156.039145 
L 153.54568 155.700651 
L 154.082528 159.781606 
L 154.797409 151.977649 
L 155.03402 151.993007 
L 155.333455 153.814126 
L 155.572779 156.814658 
L 155.93189 159.599559 
L 156.054561 159.527695 
L 156.288871 156.362864 
L 156.59785 154.4725 
L 157.244922 159.125315 
L 157.482632 157.498739 
L 158.075811 151.031494 
L 158.493969 148.702071 
L 159.028959 156.172806 
L 159.268997 156.639415 
L 159.984424 148.30011 
L 160.222772 149.09097 
L 160.639178 152.23349 
L 160.761288 154.175513 
L 161.002186 152.204987 
L 161.236001 148.787279 
L 161.473201 147.016509 
L 161.716034 148.067301 
L 162.430118 159.475059 
L 162.728429 158.530361 
L 163.21208 153.424844 
L 163.682554 158.902435 
L 163.922713 158.843702 
L 164.397251 153.691681 
L 164.755999 153.24372 
L 164.99298 153.905752 
L 165.410163 157.189654 
L 165.64954 157.404781 
L 166.126682 153.288833 
L 166.482576 154.515788 
L 166.661225 155.966999 
L 166.89949 155.112221 
L 167.436563 151.758503 
L 167.735563 152.996067 
L 167.91455 154.769607 
L 168.391427 155.570383 
L 168.63296 155.159907 
L 168.867709 155.355298 
L 169.165479 155.017771 
L 169.529336 154.202726 
L 169.881582 152.255423 
L 170.203109 151.876688 
L 170.598518 153.733203 
L 170.837969 153.617204 
L 171.25828 152.471902 
L 171.432118 151.591125 
L 172.146868 153.497946 
L 172.569875 154.308008 
L 172.835447 152.999531 
L 173.106348 151.072629 
L 173.339268 151.350889 
L 173.707388 153.621654 
L 174.158309 151.061753 
L 174.177757 151.059742 
L 174.535783 156.591382 
L 174.91395 157.131589 
L 175.073934 154.006427 
L 175.310543 151.580823 
L 175.54851 152.657616 
L 175.787124 155.132051 
L 176.085682 154.395615 
L 176.323655 153.21602 
L 176.579702 155.303757 
L 176.922167 156.065843 
L 177.049623 153.265351 
L 177.336715 150.011262 
L 177.648399 149.539741 
L 177.755713 151.890321 
L 178.11115 153.973372 
L 178.352257 153.498162 
L 178.528778 152.360348 
L 179.02236 151.406043 
L 179.243954 148.906651 
L 179.542117 150.886705 
L 180.199819 158.838709 
L 180.334683 158.167426 
L 180.554724 154.578972 
L 180.764952 153.425842 
L 181.237254 156.921004 
L 181.716775 156.312958 
L 181.952198 156.633337 
L 182.311857 156.402614 
L 182.856642 153.882036 
L 182.972183 154.015197 
L 184.008236 154.750176 
L 184.480842 152.347208 
L 184.866663 152.391711 
L 184.96201 154.108856 
L 185.456212 157.70161 
L 185.79372 156.061918 
L 185.914024 153.071328 
L 186.210739 153.316742 
L 186.450096 155.319073 
L 186.688066 155.780226 
L 187.183426 151.114541 
L 187.521698 150.758362 
L 187.93929 150.900009 
L 188.237062 150.977919 
L 188.475599 151.246515 
L 188.65442 151.629758 
L 189.608368 152.244238 
L 189.845677 151.193571 
L 189.964926 149.385135 
L 190.203386 149.548176 
L 190.679785 156.246782 
L 190.869436 157.27107 
L 191.396627 153.187872 
L 191.946866 157.941238 
L 192.117173 159.898334 
L 192.356479 159.224373 
L 193.072666 151.318723 
L 193.608741 156.615527 
L 193.905827 156.253531 
L 194.087116 153.669051 
L 194.441225 153.331394 
L 194.621423 153.472347 
L 194.919455 152.912311 
L 195.159734 153.572857 
L 195.574242 157.948264 
L 196.050762 153.059029 
L 196.348274 155.322902 
L 196.532194 155.858641 
L 196.824916 153.472585 
L 197.066503 153.369255 
L 197.302744 156.788479 
L 197.540668 157.775458 
L 198.021222 152.011264 
L 198.278285 153.967729 
L 198.614978 154.39898 
L 198.857745 152.374771 
L 199.328922 157.959899 
L 199.627167 156.718714 
L 199.755281 152.369362 
L 200.037406 151.808026 
L 200.288499 154.681189 
L 200.523074 154.934673 
L 200.76342 151.909482 
L 201.023906 153.111991 
L 201.252764 156.502009 
L 201.602062 157.047506 
L 202.020372 152.646861 
L 202.258451 153.224286 
L 202.734673 154.996845 
L 203.271444 154.924386 
L 203.986273 153.228199 
L 204.347506 153.352868 
L 204.462725 153.642416 
L 204.819721 152.773207 
L 205.180009 150.087219 
L 205.475165 151.362938 
L 205.723048 154.617838 
L 206.192034 155.056828 
L 206.452348 150.765731 
L 206.78839 152.489486 
L 207.266495 159.26929 
L 207.443269 159.257147 
L 207.922916 155.363504 
L 208.578156 153.832539 
L 209.172823 156.197331 
L 209.600943 155.813615 
L 209.950317 153.45924 
L 210.425683 157.230374 
L 210.663532 156.679296 
L 210.903374 156.466122 
L 211.140394 155.91295 
L 211.378598 154.460732 
L 211.677486 153.504949 
L 212.333313 157.955179 
L 212.393738 160.592471 
L 212.631154 160.688968 
L 213.168289 155.499975 
L 213.405839 155.021278 
L 213.824739 158.07625 
L 214.121064 157.59854 
L 215.076049 147.424514 
L 215.37507 148.96964 
L 215.554742 152.861687 
L 215.851328 156.511996 
L 216.089667 157.763837 
L 216.389104 155.740944 
L 216.58001 152.312835 
L 216.811423 150.672175 
L 217.102957 152.221357 
L 217.877773 159.477248 
L 218.056338 158.658688 
L 218.294893 156.059598 
L 218.776973 153.383096 
L 219.266031 154.30957 
L 219.30768 155.283528 
L 219.551399 155.061836 
L 220.04435 151.288665 
L 220.32987 151.246112 
L 220.62314 152.384834 
L 220.8622 154.221472 
L 221.162767 154.304886 
L 221.338171 153.371985 
L 221.515496 153.198251 
L 221.99322 154.0579 
L 222.055181 155.862605 
L 222.530269 158.60986 
L 222.771536 157.483669 
L 223.248476 151.452105 
L 223.554257 150.704202 
L 223.732051 152.152081 
L 224.048213 153.306636 
L 224.738977 151.890923 
L 224.976617 152.387123 
L 225.513956 154.231092 
L 225.75103 153.690253 
L 226.226817 150.26367 
L 226.525541 150.045977 
L 226.707352 150.856443 
L 227.004147 150.190713 
L 227.184451 149.41521 
L 227.956897 142.724631 
L 228.194151 143.408719 
L 228.491933 145.850021 
L 228.972776 151.401697 
L 229.507621 154.790615 
L 229.86666 154.483715 
L 229.998628 153.404365 
L 230.173069 152.938978 
L 230.705939 147.407197 
L 231.242363 143.312786 
L 231.630147 142.041258 
L 231.663719 140.747117 
L 232.136825 141.312412 
L 232.316057 142.837806 
L 232.434509 142.208211 
L 232.915984 145.101927 
L 233.387885 149.699087 
L 233.626662 151.863143 
L 233.864567 152.999448 
L 234.163673 149.7946 
L 234.459871 148.879344 
L 235.11598 138.286397 
L 235.72695 134.846373 
L 235.906757 136.272835 
L 236.084479 134.924476 
L 236.384217 134.086001 
L 236.919839 136.867949 
L 237.157824 136.219639 
L 237.395703 138.081168 
L 237.695023 137.348082 
L 237.874902 135.168071 
L 238.290534 135.562916 
L 238.35076 134.020445 
L 238.828455 130.250323 
L 239.065068 135.451134 
L 239.305311 136.941006 
L 239.840779 143.103807 
L 240.023237 143.021161 
L 240.317181 145.374978 
L 240.614551 145.557132 
L 240.793797 146.256894 
L 241.151839 140.68676 
L 241.389884 139.727603 
L 242.044896 130.709609 
L 242.344062 129.857675 
L 242.641746 127.824349 
L 242.939843 127.754973 
L 243.118815 126.555652 
L 243.41606 126.489064 
L 243.539421 132.894577 
L 244.531837 141.294016 
L 244.760099 139.757226 
L 244.998784 139.279272 
L 245.503869 137.589087 
L 246.202726 128.217644 
L 246.460816 119.946065 
L 246.754794 123.790702 
L 246.994239 119.336996 
L 247.232263 117.89369 
L 247.469526 123.388935 
L 247.708076 122.284686 
L 248.125328 122.758392 
L 248.848689 139.617646 
L 249.020847 132.873754 
L 249.218981 130.702453 
L 249.91722 119.795256 
L 250.176782 119.612234 
L 250.454559 120.301449 
L 250.69308 119.832739 
L 250.990238 117.198239 
L 251.171156 118.251508 
L 251.466717 118.591204 
L 251.705896 121.651225 
L 252.243865 125.784453 
L 252.425758 132.217895 
L 252.66071 131.716389 
L 252.958474 132.010045 
L 253.137428 132.766106 
L 253.437262 134.773192 
L 254.151034 120.616271 
L 254.390353 112.945266 
L 254.629948 114.069556 
L 254.866171 114.615766 
L 255.283195 100.27381 
L 255.64118 102.366695 
L 255.702331 100.344657 
L 255.879236 100.484401 
L 256.118256 99.961666 
L 256.357 105.658586 
L 256.596713 114.096586 
L 257.013573 120.270701 
L 257.134596 119.210728 
L 257.61066 129.679656 
L 257.848051 128.410208 
L 258.20509 123.969908 
L 258.445132 126.524069 
L 258.859825 116.959105 
L 259.158214 120.079772 
L 259.487917 121.157143 
L 259.730147 123.799836 
L 259.876027 129.225287 
L 260.173233 124.389749 
L 260.294447 129.277823 
L 260.591149 134.995314 
L 260.949329 144.467054 
L 261.602805 119.748516 
L 261.975746 119.467646 
L 262.086563 116.490238 
L 262.328785 113.002625 
L 262.55622 113.895969 
L 262.794199 112.742934 
L 263.151773 105.685448 
L 264.105397 125.781745 
L 264.285849 121.354433 
L 264.643203 129.288644 
L 265.058864 122.723153 
L 265.714773 108.371462 
L 265.955612 110.571799 
L 266.191948 115.861066 
L 266.252174 115.595092 
L 266.48981 112.48708 
L 266.788459 112.916719 
L 267.09442 111.713745 
L 267.324829 109.851369 
L 267.563622 116.974072 
L 267.759853 116.183574 
L 268.099501 118.766023 
L 268.338011 118.792866 
L 268.532791 121.097382 
L 268.756773 120.116505 
L 269.017167 116.473016 
L 269.233644 108.344215 
L 269.530633 103.716907 
L 269.887378 103.754275 
L 270.125731 102.018964 
L 270.245132 105.820145 
L 270.661966 106.06487 
L 270.723 106.396013 
L 270.960397 104.020907 
L 271.318588 102.177737 
L 271.561653 109.229173 
L 271.735812 104.236892 
L 271.975033 111.566695 
L 272.273994 108.290537 
L 272.454512 108.98142 
L 272.689423 116.585709 
L 272.927961 105.733315 
L 273.17533 106.204077 
L 273.643316 107.875751 
L 273.969451 107.605933 
L 274.219372 108.049803 
L 274.658263 103.789089 
L 274.845561 104.864046 
L 275.037647 102.045187 
L 275.313574 103.484816 
L 275.437851 96.749552 
L 275.791628 98.125609 
L 275.91339 104.870142 
L 276.20821 109.277312 
L 276.393789 104.91248 
L 276.812326 109.702224 
L 277.049078 103.309673 
L 277.162083 107.838767 
L 277.590469 112.06129 
L 277.779075 106.248819 
L 277.939041 113.742669 
L 278.12053 111.950175 
L 278.475781 96.569015 
L 278.624491 100.743411 
L 278.955747 96.479933 
L 279.193852 99.395213 
L 279.431173 109.668247 
L 279.612332 103.191915 
L 279.907556 113.290509 
L 280.086959 113.364152 
L 280.384925 118.711202 
L 280.623809 108.947825 
L 280.980465 107.498095 
L 281.1601 105.848994 
L 281.457142 101.827668 
L 281.594071 95.973953 
L 281.873928 104.129351 
L 282.056615 95.991624 
L 282.113657 103.572284 
L 282.351481 99.755942 
L 283.068365 114.075565 
L 283.306338 114.502177 
L 283.66432 122.866954 
L 283.961917 113.795578 
L 284.088847 105.724584 
L 284.563335 115.052594 
L 284.856401 117.145961 
L 285.034625 108.51891 
L 285.276257 110.389049 
L 285.810779 106.180657 
L 286.048783 108.176825 
L 286.292195 106.610147 
L 286.526687 100.699949 
L 286.769413 105.085276 
L 287.007247 100.093159 
L 287.262421 110.791292 
L 287.484106 101.717306 
L 287.84259 104.581502 
L 288.024509 112.729723 
L 288.259375 109.591174 
L 288.497522 118.796095 
L 288.736219 118.954539 
L 289.24077 105.821511 
L 289.455069 106.930636 
L 289.811148 102.284623 
L 290.227704 109.410421 
L 290.347633 101.085037 
L 290.465879 112.445594 
L 290.883363 98.181255 
L 290.948755 113.260515 
L 291.225488 107.981435 
L 291.495528 99.363674 
L 291.679836 111.139651 
L 292.13465 100.391657 
L 292.194976 114.920497 
L 292.432576 113.515899 
L 292.969282 105.143397 
L 293.207555 104.062122 
L 293.504983 106.485589 
L 293.689059 103.046968 
L 293.924229 94.141767 
L 294.221147 90.528215 
L 294.466574 97.579514 
L 294.698997 92.244834 
L 294.878318 105.077427 
L 295.173661 105.627301 
L 295.4127 118.201032 
L 295.717231 121.665592 
L 295.948103 105.644424 
L 296.426372 112.006067 
L 296.607631 110.881531 
L 296.961851 109.952016 
L 297.152314 107.648625 
L 297.438974 117.015091 
L 297.620443 106.038695 
L 297.929888 108.682185 
L 298.095365 103.380504 
L 298.335465 102.321016 
L 298.632709 97.908514 
L 298.870236 110.2604 
L 299.108436 115.396021 
L 299.60655 115.884347 
L 299.827215 110.39583 
L 300.182774 95.244926 
L 300.361705 103.297558 
L 300.600166 98.871843 
L 300.854175 109.347382 
L 301.079765 103.402297 
L 301.494049 119.090139 
L 301.613328 105.544525 
L 301.911255 112.869014 
L 302.09056 98.509059 
L 302.626399 109.773571 
L 302.80676 118.312209 
L 303.043886 110.139912 
L 303.341324 109.465682 
L 303.54503 106.033348 
L 303.826118 110.26962 
L 304.119111 110.775011 
L 304.41641 113.057881 
L 304.595673 118.848142 
L 304.95287 115.218468 
L 305.252232 107.688921 
L 305.31073 107.90233 
L 305.548602 106.985121 
L 305.846457 105.00284 
L 306.02906 110.313574 
L 306.385283 109.995396 
L 306.562027 102.14768 
L 306.801509 104.446569 
L 306.996024 109.932737 
L 307.281744 109.345241 
L 307.656728 112.9383 
L 308.067971 118.724768 
L 308.299126 111.6669 
L 308.537897 121.478061 
L 308.839248 108.290416 
L 309.313549 103.499641 
L 309.455479 104.898316 
L 309.930311 102.215915 
L 310.001814 102.289228 
L 310.28921 109.352844 
L 310.527271 99.849434 
L 310.708003 113.516716 
L 311.063774 110.023468 
L 311.242711 115.288213 
L 311.611583 122.220412 
L 311.781527 107.368853 
L 312.017687 107.536953 
L 312.375319 119.197395 
L 312.501747 109.512921 
L 312.732977 110.354891 
L 313.090224 114.223701 
L 313.212638 6.050769 
L 313.568273 16.795212 
L 313.805492 48.536181 
L 314.235778 161.404939 
L 314.58015 184.275424 
L 314.701814 212.747985 
L 314.938888 232.640567 
L 315.682591 272.589231 
L 316.016983 271.498477 
L 316.33419 240.324399 
L 316.695304 169.913955 
L 316.995565 142.122529 
L 317.110027 98.603077 
L 318.060545 37.102418 
L 318.180102 35.512784 
L 318.359189 40.906309 
L 318.959086 91.00929 
L 319.49789 128.112951 
L 319.614865 157.854922 
L 319.910478 167.524467 
L 320.14826 184.43962 
L 320.328134 184.321214 
L 320.624731 175.658322 
L 320.864807 155.02498 
L 321.102007 144.766053 
L 321.584298 105.944614 
L 321.878065 107.109403 
L 322.357206 91.592648 
L 322.592008 96.230287 
L 323.070052 120.877102 
L 323.310491 137.256116 
L 323.963903 157.254606 
L 324.083748 169.55007 
L 324.50419 162.804638 
L 324.569671 166.478191 
L 325.098086 134.267388 
L 325.454334 118.038979 
L 325.812051 89.418424 
L 326.051482 90.057697 
L 326.294583 87.04885 
L 326.530758 87.056507 
L 326.852363 99.285781 
L 327.242305 105.416774 
L 327.301953 122.517313 
L 328.020226 162.08956 
L 328.495475 175.558785 
L 328.794246 155.547369 
L 329.171816 149.188066 
L 329.275333 130.73092 
L 329.508337 113.454991 
L 329.745474 113.076884 
L 330.282264 90.875377 
L 330.761294 88.180458 
L 331.533689 121.830561 
L 331.798258 138.281349 
L 332.487919 150.845453 
L 333.024265 144.292926 
L 333.502737 121.047029 
L 333.741417 116.623792 
L 334.226045 99.330212 
L 334.581092 106.740223 
L 334.762633 107.360508 
L 335.022935 110.383785 
L 335.231468 117.789308 
L 335.469651 121.805299 
L 335.709664 123.925246 
L 336.184852 139.174812 
L 336.423478 138.24685 
L 336.663453 134.197432 
L 336.900926 123.962135 
L 337.317585 118.757048 
L 337.736454 103.272047 
L 337.916816 100.889065 
L 338.161358 106.901049 
L 338.54477 96.093565 
L 338.658091 104.743077 
L 338.944233 105.868051 
L 338.991294 107.039533 
L 339.29103 118.700979 
L 339.410048 114.859862 
L 340.421547 126.013362 
L 340.719728 116.513133 
L 340.898441 118.91796 
L 341.13678 118.325154 
L 341.375437 115.027382 
L 341.615004 116.902857 
L 341.917182 111.318303 
L 342.091832 113.213447 
L 342.592547 127.183326 
L 342.865715 130.761519 
L 343.224194 127.016582 
L 343.364331 135.521973 
L 343.819625 137.936115 
L 344.355474 134.46596 
L 344.654162 127.079125 
L 344.835051 119.133771 
L 345.609531 105.239738 
L 345.793405 110.0767 
L 346.084919 102.473762 
L 346.386542 101.434653 
L 346.623265 109.169619 
L 346.800697 104.818354 
L 347.336523 122.983533 
L 347.633595 125.688105 
L 347.812551 124.488439 
L 348.051726 124.611321 
L 348.470912 126.109762 
L 348.531021 126.743922 
L 348.830156 128.363086 
L 349.025631 128.312048 
L 349.25029 121.461875 
L 349.603408 118.591332 
L 350.139628 104.748856 
L 350.26536 107.68555 
L 350.557034 119.690306 
L 350.855204 112.794701 
L 351.033535 116.19433 
L 351.332358 120.158645 
L 351.510253 126.971078 
L 351.86755 111.688832 
L 352.048182 122.230638 
L 352.34541 121.393616 
L 352.643325 126.567483 
L 352.763199 123.768067 
L 353.001631 112.731327 
L 353.358236 113.254309 
L 353.777296 104.296519 
L 354.192068 110.611931 
L 354.26785 110.590367 
L 354.49016 108.037146 
L 354.729169 116.673261 
L 354.967142 118.701853 
L 355.26572 122.464211 
L 355.563366 124.496043 
L 355.691361 122.019567 
L 355.993376 132.056552 
L 356.230389 134.352887 
L 356.695564 126.839815 
L 357.11492 122.769116 
L 357.232346 124.720526 
L 357.414082 116.021237 
L 357.768024 113.146218 
L 358.067321 112.965665 
L 358.200121 113.082728 
L 358.619507 114.743933 
L 358.726755 110.763978 
L 358.964857 112.11995 
L 359.203431 118.884088 
L 359.448191 121.129294 
L 359.739861 121.60453 
L 359.918637 123.800172 
L 360.223373 122.849686 
L 360.464925 119.35622 
L 360.754514 129.981031 
L 360.876193 118.711186 
L 361.129106 119.547757 
L 361.415503 111.441871 
L 361.661674 111.59614 
L 361.887082 110.352427 
L 362.185637 111.433689 
L 362.424082 120.246823 
L 362.662654 119.515424 
L 362.950189 113.256366 
L 363.20353 123.91158 
L 363.423447 117.317564 
L 363.622003 123.113289 
L 363.916371 120.009076 
L 364.298259 124.78225 
L 364.393153 123.286566 
L 364.630544 122.111291 
L 364.92917 118.330964 
L 365.107627 118.266896 
L 365.345698 116.860393 
L 365.643635 124.711189 
L 365.941582 113.695978 
L 366.120566 111.847802 
L 366.430486 104.641834 
L 366.661699 114.794765 
L 366.95586 117.715942 
L 367.137644 117.494441 
L 367.313284 115.161882 
L 367.613202 117.092716 
L 367.848153 115.895748 
L 368.164973 118.276934 
L 368.328014 123.486958 
L 368.629685 113.806848 
L 368.92628 115.41099 
L 369.113805 111.557242 
L 369.34484 112.266352 
L 369.529356 116.096971 
L 369.821758 116.471928 
L 370.240307 122.981504 
L 370.360723 112.235225 
L 370.716213 115.240374 
L 370.778089 116.922574 
L 371.015218 117.883112 
L 371.312315 114.893952 
L 371.555098 120.622495 
L 371.789135 121.477222 
L 372.027824 123.193287 
L 372.325578 123.721108 
L 372.572937 121.686235 
L 372.861574 115.831209 
L 373.223258 117.237343 
L 373.518933 121.166599 
L 373.93445 115.610572 
L 373.993192 133.432912 
L 374.356468 117.911078 
L 374.71244 111.806391 
L 375.080509 113.778094 
L 375.245909 119.564531 
L 375.486534 117.688124 
L 375.841426 119.88221 
L 376.325316 111.997378 
L 376.501063 124.933775 
L 376.735908 119.745081 
L 377.154139 120.31848 
L 377.275259 119.079051 
L 377.454122 107.248678 
L 377.691085 105.678691 
L 377.97089 114.640971 
L 378.228234 116.5977 
L 378.705786 117.869779 
L 379.003346 112.5437 
L 379.182787 120.178041 
L 379.541591 119.500898 
L 379.77876 124.231092 
L 379.957593 121.997553 
L 380.315476 120.180633 
L 380.43452 114.51296 
L 380.67377 113.760119 
L 380.971538 115.301736 
L 381.209422 119.639789 
L 381.566802 117.678121 
L 381.744983 113.278881 
L 382.170296 113.559784 
L 382.401177 121.342555 
L 382.640935 117.853716 
L 382.938268 123.036187 
L 383.116642 118.614376 
L 383.653191 113.941287 
L 383.891272 109.242551 
L 384.130172 117.326104 
L 384.36784 120.513698 
L 385.024513 111.325137 
L 385.141968 106.409887 
L 385.442062 113.369713 
L 385.737779 117.055714 
L 385.982328 124.760953 
L 386.154941 116.544771 
L 386.572481 121.240691 
L 386.633083 117.36779 
L 386.871953 114.367668 
L 387.288124 115.489246 
L 387.408358 110.110444 
L 387.704159 125.909116 
L 387.883735 121.08718 
L 388.12156 119.060638 
L 388.360572 110.240023 
L 388.657811 112.802888 
L 389.078696 120.213617 
L 389.373409 121.199431 
L 389.673069 121.684427 
L 389.85151 119.93968 
L 390.209139 117.187002 
L 390.327434 110.386612 
L 390.566718 113.176544 
L 390.866233 122.674998 
L 391.578394 115.17836 
L 391.956832 115.464271 
L 392.061414 116.131134 
L 392.294363 121.851957 
L 392.534085 113.99222 
L 393.014287 120.549722 
L 393.427847 113.440069 
L 393.65145 123.852571 
L 393.785792 120.958715 
L 394.023607 122.103734 
L 394.261973 122.086825 
L 394.798172 124.017949 
L 395.156539 121.616398 
L 395.275553 117.34609 
L 395.574048 119.903095 
L 395.817442 120.083117 
L 396.050757 118.298812 
L 396.289007 120.827161 
L 396.468688 121.242008 
L 396.709418 122.329424 
L 397.006497 121.787142 
L 397.24286 120.096693 
L 397.480824 114.021281 
L 397.839129 118.911759 
L 398.01748 117.715063 
L 398.255879 118.472886 
L 398.493969 111.267675 
L 398.732782 114.366776 
L 399.032184 112.540305 
L 399.38968 108.97561 
L 399.629341 107.725296 
L 399.867123 116.748913 
L 399.986143 107.80696 
L 400.464749 119.782777 
L 400.710246 119.243199 
L 401.000306 120.579597 
L 401.240795 127.266117 
L 401.476641 127.718196 
L 401.775515 123.768447 
L 401.955105 123.150029 
L 402.253688 127.407633 
L 402.431344 112.006963 
L 402.669635 113.685578 
L 403.206332 108.676824 
L 403.397622 117.765797 
L 403.633589 113.319102 
L 403.922551 112.71821 
L 404.402506 115.372564 
L 404.641312 112.110462 
L 404.947887 123.028222 
L 405.175669 117.405418 
L 405.385104 120.949685 
L 405.65268 122.330137 
L 405.894417 128.257914 
L 406.132636 120.348751 
L 406.426561 120.155515 
L 406.667313 117.257965 
L 406.963223 118.673401 
L 407.144113 129.012509 
L 407.380891 125.920055 
L 407.619993 112.76898 
L 408.217822 105.433709 
L 408.398363 116.97579 
L 408.636507 107.54543 
L 408.917998 109.028993 
L 409.234688 113.123936 
L 409.470635 110.642898 
L 409.589722 126.091731 
L 409.829013 129.721481 
L 410.126347 122.025161 
L 410.42592 122.43278 
L 410.606015 124.412151 
L 410.844374 119.059693 
L 411.143152 120.591758 
L 411.320402 120.044212 
L 411.619643 120.912843 
L 411.857209 124.313233 
L 412.096215 115.45426 
L 412.512689 122.726656 
L 412.58546 122.154818 
L 412.87158 124.307903 
L 413.062343 127.36665 
L 413.456757 118.333657 
L 413.584819 122.856147 
L 414.11483 112.514621 
L 414.472681 108.697559 
L 414.533583 99.254325 
L 414.830286 103.292348 
L 415.309724 101.412678 
L 415.559664 102.488691 
L 415.96323 107.856524 
L 416.023198 111.247124 
L 416.563927 117.228049 
L 416.805148 124.456384 
L 417.002271 121.68199 
L 417.276707 129.19901 
L 417.709181 126.101337 
L 417.756951 124.90576 
L 418.054464 124.473906 
L 418.471725 125.891475 
L 418.530943 125.231607 
L 418.770431 127.552923 
L 419.126668 124.838673 
L 419.305279 118.947758 
L 419.724077 115.324093 
L 419.962564 119.184723 
L 420.281437 119.318363 
L 420.501517 118.48695 
L 420.738015 123.795026 
L 420.975057 118.627262 
L 421.214128 119.520881 
L 421.693249 117.284588 
L 422.225812 117.231511 
L 422.234324 60.659638 
L 422.468961 118.619368 
L 422.825214 114.257264 
L 423.004989 117.288826 
L 423.252127 116.813009 
L 423.484338 119.828366 
L 423.840978 118.962212 
L 423.960579 114.162061 
L 424.145321 119.456535 
L 424.43705 121.600648 
L 424.915208 117.39638 
L 425.155055 116.65865 
L 425.574673 123.621057 
L 425.629286 108.944178 
L 425.988437 115.354449 
L 426.172027 115.321944 
L 426.40654 116.248003 
L 426.64547 115.283731 
L 427.065099 114.065522 
L 427.190077 110.906148 
L 427.445399 116.011679 
L 427.659166 110.627863 
L 427.90644 110.304551 
L 427.958088 116.029749 
L 428.19698 118.482862 
L 428.436409 112.695647 
L 428.619145 115.206077 
L 428.8559 114.979449 
L 429.151322 118.238554 
L 429.628082 132.305963 
L 430.10485 113.408031 
L 430.344322 110.50179 
L 430.774626 114.795604 
L 431.121983 108.302599 
L 431.357652 134.502162 
L 431.597523 132.829174 
L 431.843497 118.374447 
L 432.821237 88.130311 
L 433.463552 82.415393 
L 433.594031 81.729114 
L 433.87843 82.257342 
L 434.121676 78.553742 
L 434.414608 78.186052 
L 434.534949 78.60287 
L 434.776173 89.572834 
L 435.198864 95.653391 
L 435.318081 108.532285 
L 436.163582 126.867819 
L 436.324342 132.326172 
L 436.627299 138.121778 
L 436.862153 137.12663 
L 437.100266 130.009236 
L 437.400723 130.91295 
L 437.640155 116.459257 
L 437.947846 121.607599 
L 438.242412 120.08372 
L 438.507695 108.68592 
L 439.093849 99.979916 
L 439.259491 96.887918 
L 440.027646 128.353516 
L 440.326857 127.123041 
L 440.505242 129.75848 
L 440.743769 129.357981 
L 440.985603 127.54739 
L 441.460589 118.714052 
L 441.817555 116.183957 
L 441.996582 112.802454 
L 442.476381 99.840674 
L 442.882088 105.575063 
L 443.119643 105.308998 
L 443.306995 111.087794 
L 443.537398 104.185365 
L 444.01571 131.640675 
L 444.193965 134.203266 
L 444.670741 128.80465 
L 444.792607 130.315859 
L 445.029606 131.231562 
L 445.566243 116.275473 
L 445.69185 125.26892 
L 446.223006 109.538625 
L 446.46149 110.136264 
L 446.703529 107.142644 
L 446.93948 110.907459 
L 447.182432 117.341497 
L 447.4174 118.921644 
L 447.656135 117.51612 
L 447.904892 126.945059 
L 448.138367 124.678073 
L 448.437338 131.02032 
L 448.625267 127.877064 
L 448.91479 126.730868 
L 449.152725 124.65439 
L 449.392189 117.17213 
L 449.808343 122.309877 
L 449.89612 121.267408 
L 450.16705 126.616005 
L 450.46407 128.655967 
L 450.761942 125.304914 
L 450.94209 128.49711 
L 451.180519 122.775333 
L 451.425902 130.309559 
L 451.658653 131.231986 
L 451.839194 133.503464 
L 452.077357 134.575978 
L 452.326715 126.993657 
L 452.613173 131.476092 
L 452.864845 128.63975 
L 453.098099 120.773287 
L 453.469682 123.207474 
L 453.632802 114.870088 
L 453.809319 120.039491 
L 454.134366 119.32064 
L 454.345201 108.673558 
L 454.765606 113.062774 
L 454.847127 110.50971 
L 455.071869 113.498984 
L 455.300727 110.013948 
L 455.539853 112.415206 
L 455.961335 118.898019 
L 456.150748 127.169979 
L 456.566905 122.328123 
L 456.984034 127.541338 
L 457.044693 123.450763 
L 457.462645 125.032135 
L 457.700957 124.235882 
L 457.762486 122.065504 
L 458.176246 113.363401 
L 458.295734 122.460633 
L 458.535771 115.72399 
L 458.772737 116.951914 
L 459.18988 114.363136 
L 459.309275 120.25776 
L 459.548312 124.014558 
L 459.792529 130.172775 
L 459.846799 134.735788 
L 460.026983 134.559101 
L 460.264394 129.094825 
L 460.505547 142.17098 
L 460.801349 142.385366 
L 460.981197 138.396674 
L 461.300883 137.054787 
L 461.461133 138.28574 
L 461.759676 126.667382 
L 461.997667 133.684249 
L 462.240011 128.590038 
L 462.535859 131.760591 
L 462.954361 124.410486 
L 463.252644 129.27313 
L 463.439137 127.130922 
L 463.848593 128.2755 
L 463.995751 133.160953 
L 464.210024 133.718661 
L 464.68398 130.113721 
L 464.923343 130.417192 
L 465.469677 114.289775 
L 465.710789 115.150583 
L 466.009353 111.909327 
L 466.483619 103.600234 
L 466.663185 105.649021 
L 466.961408 102.853679 
L 467.199234 105.889491 
L 467.597038 107.432362 
L 467.744427 114.718286 
L 467.921045 110.898472 
L 468.454257 123.072446 
L 468.761166 117.746065 
L 468.931187 119.28756 
L 469.179483 114.387775 
L 469.64942 110.00768 
L 469.893371 106.891535 
L 470.128335 96.245489 
L 470.435389 93.853378 
L 470.683137 96.967253 
L 470.906718 97.409543 
L 471.143739 102.958848 
L 471.389817 105.796733 
L 472.16172 126.098546 
L 472.456786 126.848079 
L 472.636186 131.76081 
L 473.054076 127.8096 
L 473.400235 131.23257 
L 473.634969 130.284182 
L 473.868197 128.374904 
L 474.170263 134.032933 
L 474.354868 124.184199 
L 474.645427 124.951462 
L 474.949827 128.45262 
L 475.125654 121.91369 
L 475.601585 128.118183 
L 475.840459 124.884454 
L 476.079329 119.854436 
L 476.317061 119.062025 
L 476.555932 124.877479 
L 476.795462 113.47737 
L 477.212458 112.968216 
L 477.361592 120.130261 
L 477.749946 109.121505 
L 477.868828 112.286712 
L 478.107403 105.886173 
L 478.345862 111.046783 
L 478.643526 104.966775 
L 478.775738 108.429045 
L 479.035221 111.361197 
L 479.305237 106.115832 
L 479.600228 111.22362 
L 479.798874 111.528859 
L 480.01865 113.950206 
L 480.259337 123.524483 
L 480.639147 119.961478 
L 480.797255 120.330069 
L 481.032858 110.563214 
L 481.30086 113.388897 
L 481.817167 108.603464 
L 482.112202 102.970479 
L 482.54011 109.847445 
L 482.796157 102.333787 
L 483.087039 106.984272 
L 483.208624 101.990312 
L 483.500877 109.110674 
L 483.799178 113.442994 
L 484.097273 112.429766 
L 484.216787 115.847389 
L 484.514676 112.46411 
L 484.761105 104.641028 
L 485.230884 112.923945 
L 485.470722 115.085423 
L 485.76882 114.374167 
L 486.007356 112.611875 
L 486.247979 114.753443 
L 486.483328 118.504211 
L 486.721699 118.72188 
L 486.961225 124.292248 
L 487.206514 126.949724 
L 487.677248 134.756339 
L 488.037454 133.689079 
L 488.214516 131.094482 
L 488.455338 138.180946 
L 488.751713 134.27537 
L 489.540319 136.947071 
L 489.706772 135.405108 
L 490.005091 135.257508 
L 490.242896 132.427608 
L 490.683853 134.923401 
L 490.899752 134.738227 
L 491.201618 134.808271 
L 491.494573 139.7798 
L 491.741352 135.545349 
L 491.913287 136.629976 
L 492.154206 140.420772 
L 492.390345 137.647765 
L 492.705805 141.416617 
L 492.884784 139.809481 
L 493.122928 141.743815 
L 493.601015 141.082715 
L 493.66099 134.39959 
L 493.95881 137.621345 
L 494.141209 132.508114 
L 494.912142 123.441062 
L 495.092642 118.214492 
L 495.391562 123.230896 
L 495.688062 121.502679 
L 495.866611 122.463961 
L 496.169394 120.07606 
L 496.407336 121.628909 
L 496.644163 111.594566 
L 496.931081 114.313076 
L 497.122047 113.226294 
L 497.32743 109.009599 
L 497.602808 109.706739 
L 497.947291 113.879723 
L 498.144884 111.929307 
L 498.384535 111.573083 
L 498.621652 114.391046 
L 498.860584 111.20661 
L 499.337413 121.243569 
L 499.576371 119.518095 
L 499.817608 119.814597 
L 500.113488 116.480419 
L 500.293182 122.006497 
L 500.609204 119.465753 
L 500.650281 121.598562 
L 500.829084 121.485832 
L 501.130331 108.620123 
L 501.425955 113.924591 
L 501.604394 114.265484 
L 502.085048 111.965122 
L 502.142852 109.559136 
L 502.321119 116.451251 
L 502.565805 120.614862 
L 503.051282 123.836262 
L 503.27591 130.3377 
L 503.515493 128.792418 
L 503.872555 133.665973 
L 504.051407 142.142369 
L 504.229888 140.604316 
L 504.650095 146.975678 
L 504.707569 140.167481 
L 505.069486 138.767059 
L 505.311707 133.382933 
L 505.547959 133.865699 
L 506.020268 126.0555 
L 506.266043 126.022965 
L 506.569872 116.023245 
L 506.746757 115.469866 
L 506.993307 112.657 
L 507.231373 112.928579 
L 507.475334 109.373636 
L 507.708032 111.588204 
L 508.005894 107.73942 
L 508.190358 116.164803 
L 508.485193 108.100419 
L 508.787092 121.140358 
L 509.01986 106.7981 
L 509.275368 104.64275 
L 509.498512 116.729903 
L 509.921977 108.781316 
L 509.97473 110.961659 
L 510.21317 107.370473 
L 510.631246 111.222606 
L 510.691646 110.589625 
L 510.932276 112.654903 
L 511.266656 111.058722 
L 511.427141 111.631264 
L 511.731757 116.672833 
L 511.94593 116.297721 
L 512.202575 123.619488 
L 512.42372 125.124234 
L 512.662927 121.254915 
L 512.902669 132.420578 
L 513.214663 120.634174 
L 513.619081 130.810518 
L 513.68035 125.827966 
L 513.915563 129.57156 
L 514.39837 125.114093 
L 514.571539 124.900897 
L 514.703169 129.318594 
L 514.890518 126.714277 
L 515.247869 134.59298 
L 515.468485 133.766002 
L 515.690172 137.819681 
L 515.918439 137.679106 
L 516.15758 140.375397 
L 516.400242 139.003927 
L 516.762513 147.358252 
L 516.922212 142.508571 
L 517.159528 142.870735 
L 517.51651 142.102816 
L 517.702683 136.065778 
L 517.878201 137.497837 
L 518.173168 135.586997 
L 518.653123 122.258057 
L 518.951708 122.956537 
L 519.130101 115.879838 
L 519.388449 112.277153 
L 519.725267 112.515262 
L 519.86004 107.124 
L 520.141772 104.086856 
L 520.439599 89.690703 
L 520.621899 100.268571 
L 520.859464 94.458071 
L 521.115203 106.619644 
L 521.39507 109.658313 
L 521.87368 131.775825 
L 522.117242 133.418313 
L 522.363738 145.086657 
L 522.827932 151.970979 
L 523.843711 156.977875 
L 524.131034 146.297566 
L 524.380779 131.315254 
L 524.857058 118.144076 
L 524.9168 109.452486 
L 525.275559 103.410113 
L 525.403427 99.271834 
L 525.814188 97.841408 
L 526.316015 98.95028 
L 526.890514 113.309122 
L 527.008656 121.119742 
L 527.314102 128.120133 
L 527.911085 133.777 
L 528.28225 129.760947 
L 529.166701 103.609874 
L 529.284939 103.161386 
L 529.533417 105.144163 
L 529.890641 109.107455 
L 530.247674 120.182086 
L 530.664454 127.327721 
L 531.621121 158.846202 
L 531.88268 158.782868 
L 532.524468 139.403317 
L 532.939696 120.90618 
L 533.72434 100.300603 
L 533.946454 97.175182 
L 534.245028 96.836964 
L 534.451003 97.753926 
L 535.028561 103.247707 
L 535.504579 109.453781 
L 535.801994 110.198773 
L 536.733933 103.255371 
L 536.938388 102.917654 
L 537.241818 103.634999 
L 537.57183 105.756062 
L 537.923297 112.064232 
L 538.432501 121.632842 
L 539.203163 135.644572 
L 539.439601 137.603076 
L 539.680701 137.882002 
L 539.916955 136.159494 
L 540.924843 123.826714 
L 541.483777 118.033073 
L 541.907515 116.075319 
L 542.137411 117.394715 
L 543.147255 132.419414 
L 543.625901 138.285906 
L 543.867082 138.804303 
L 544.160754 138.174982 
L 544.419445 136.525508 
L 544.997465 130.13095 
L 545.177199 126.935529 
L 545.613251 123.301825 
L 545.716345 121.131549 
L 546.311255 118.501126 
L 546.562256 118.235626 
L 547.086927 116.817808 
L 547.328605 115.957481 
L 547.562717 114.497273 
L 548.044159 108.595601 
L 548.57849 101.018274 
L 549.053617 95.411447 
L 549.551337 94.549982 
L 550.187418 99.004977 
L 550.496407 109.742428 
L 550.901628 115.040139 
L 551.264901 122.097016 
L 551.511124 123.472404 
L 551.737027 123.953952 
L 552.035323 124.148348 
L 552.395465 124.518512 
L 552.516451 123.58039 
L 553.231918 121.694109 
L 553.531832 122.782142 
L 554.326986 136.109003 
L 554.745389 143.643079 
L 554.984158 146.304194 
L 555.281591 147.815685 
L 555.937535 149.341989 
L 556.23672 148.647743 
L 556.8397 144.813276 
L 556.966916 142.260076 
L 557.459078 136.551892 
L 557.570223 130.488185 
L 557.960614 124.388361 
L 558.43799 120.996734 
L 558.695445 120.263756 
L 558.974965 120.048005 
L 559.210968 120.238933 
L 559.509203 121.012432 
L 559.92538 123.789878 
L 560.468553 124.516931 
L 561.186721 126.926838 
L 561.37958 127.293229 
L 561.675585 126.517656 
L 561.924237 123.549784 
L 562.153707 122.166873 
L 562.693429 121.167372 
L 562.879261 120.912072 
L 563.168071 119.888326 
L 563.541892 117.783949 
L 563.663332 116.253201 
L 564.063923 115.947239 
L 564.36587 120.679857 
L 564.602546 123.482735 
L 565.099238 126.11514 
L 565.376283 126.102589 
L 565.616165 125.710683 
L 566.154132 127.001604 
L 566.807687 126.047692 
L 566.871061 124.927865 
L 567.109206 123.899004 
L 567.348511 123.803374 
L 567.602314 123.16463 
L 567.889683 123.507254 
L 568.067008 124.739693 
L 568.36386 125.790288 
L 568.666409 126.262635 
L 568.905048 126.163026 
L 569.258048 124.982261 
L 569.556614 120.376263 
L 569.830097 119.797009 
L 570.180186 122.085762 
L 570.296782 124.787083 
L 570.596187 126.854145 
L 570.840372 127.583974 
L 571.090269 127.437786 
L 571.551927 126.259443 
L 571.854597 127.233158 
L 572.030259 128.750349 
L 572.327643 129.000056 
L 573.047077 116.286754 
L 573.343047 116.332883 
L 573.705169 119.072908 
L 574.05876 124.528714 
L 574.30091 124.73091 
L 574.789855 123.903388 
L 575.266685 127.886251 
L 575.509254 127.939024 
L 575.806683 123.514093 
L 575.982989 117.840414 
L 576.28069 114.155592 
L 576.639918 115.101234 
L 576.819632 118.075824 
L 577.176708 120.22414 
L 577.414148 120.100301 
L 577.534113 118.310693 
L 577.715511 117.374041 
L 577.951032 119.027492 
L 578.728967 127.942322 
L 579.051607 124.623416 
L 579.234913 121.375136 
L 579.471695 121.248088 
L 580.001437 123.965787 
L 580.238885 123.407195 
L 580.67193 120.475029 
L 580.954797 120.175881 
L 581.193618 121.23172 
L 581.503861 122.041131 
L 581.67021 121.794074 
L 582.031218 120.502429 
L 582.167232 120.700389 
L 582.685641 124.087123 
L 582.987025 124.115034 
L 583.282015 122.849199 
L 583.519781 119.218843 
L 583.93793 119.329295 
L 584.35554 122.905072 
L 584.712611 122.561626 
L 585.071395 113.854833 
L 585.399086 113.761773 
L 585.63542 116.171588 
L 586.150599 127.428085 
L 586.440302 128.09218 
L 586.619088 126.921102 
L 586.989148 125.705474 
L 587.158906 126.242536 
L 587.635596 128.937822 
L 587.875755 128.294716 
L 588.351426 121.861055 
L 588.64969 117.05077 
L 588.888745 116.238721 
L 589.128115 119.010113 
L 589.612081 121.848153 
L 589.849898 121.666763 
L 590.201208 121.679049 
L 590.339608 122.807962 
L 590.564453 123.005117 
L 590.858037 122.245222 
L 591.098088 122.400549 
L 591.336211 123.367811 
L 591.644742 122.952853 
L 591.94111 121.212281 
L 592.179709 121.51612 
L 592.35766 122.312444 
L 592.95496 117.358293 
L 593.252524 119.175512 
L 593.612706 123.450745 
L 593.789061 123.313688 
L 594.265573 120.46431 
L 594.510253 120.734172 
L 594.863145 122.268446 
L 595.041953 123.864194 
L 595.294118 123.978809 
L 596.26267 118.255971 
L 596.502813 119.541986 
L 596.502813 119.541986 
" clip-path="url(#pf3730c8758)" style="fill: none; stroke: #ff0000; stroke-opacity: 0.5; stroke-width: 1.5; stroke-linecap: square"/>
   </g>
   <g id="patch_3">
    <path d="M 38.502813 277.92 
L 38.502813 0.72 
" style="fill: none; stroke: #000000; stroke-width: 0.8; stroke-linejoin: miter; stroke-linecap: square"/>
   </g>
   <g id="patch_4">
    <path d="M 596.502813 277.92 
L 596.502813 0.72 
" style="fill: none; stroke: #000000; stroke-width: 0.8; stroke-linejoin: miter; stroke-linecap: square"/>
   </g>
   <g id="patch_5">
    <path d="M 38.502813 277.92 
L 596.502813 277.92 
" style="fill: none; stroke: #000000; stroke-width: 0.8; stroke-linejoin: miter; stroke-linecap: square"/>
   </g>
   <g id="patch_6">
    <path d="M 38.502813 0.72 
L 596.502813 0.72 
" style="fill: none; stroke: #000000; stroke-width: 0.8; stroke-linejoin: miter; stroke-linecap: square"/>
   </g>
   <g id="legend_1">
    <g id="patch_7">
     <path d="M 515.734062 38.07625 
L 589.502812 38.07625 
Q 591.502812 38.07625 591.502812 36.07625 
L 591.502812 7.72 
Q 591.502812 5.72 589.502812 5.72 
L 515.734062 5.72 
Q 513.734062 5.72 513.734062 7.72 
L 513.734062 36.07625 
Q 513.734062 38.07625 515.734062 38.07625 
z
" style="fill: #ffffff; opacity: 0.8; stroke: #cccccc; stroke-linejoin: miter"/>
    </g>
    <g id="line2d_29">
     <path d="M 517.734062 13.818438 
L 527.734062 13.818438 
L 537.734062 13.818438 
" style="fill: none; stroke: #0000ff; stroke-opacity: 0.5; stroke-width: 1.5; stroke-linecap: square"/>
    </g>
    <g id="text_16">
     <!-- RNEA -->
     <g transform="translate(545.734062 17.318438) scale(0.1 -0.1)">
      <defs>
       <path id="DejaVuSans-52" d="M 2841 2188 
Q 3044 2119 3236 1894 
Q 3428 1669 3622 1275 
L 4263 0 
L 3584 0 
L 2988 1197 
Q 2756 1666 2539 1819 
Q 2322 1972 1947 1972 
L 1259 1972 
L 1259 0 
L 628 0 
L 628 4666 
L 2053 4666 
Q 2853 4666 3247 4331 
Q 3641 3997 3641 3322 
Q 3641 2881 3436 2590 
Q 3231 2300 2841 2188 
z
M 1259 4147 
L 1259 2491 
L 2053 2491 
Q 2509 2491 2742 2702 
Q 2975 2913 2975 3322 
Q 2975 3731 2742 3939 
Q 2509 4147 2053 4147 
L 1259 4147 
z
" transform="scale(0.015625)"/>
       <path id="DejaVuSans-45" d="M 628 4666 
L 3578 4666 
L 3578 4134 
L 1259 4134 
L 1259 2753 
L 3481 2753 
L 3481 2222 
L 1259 2222 
L 1259 531 
L 3634 531 
L 3634 0 
L 628 0 
L 628 4666 
z
" transform="scale(0.015625)"/>
       <path id="DejaVuSans-41" d="M 2188 4044 
L 1331 1722 
L 3047 1722 
L 2188 4044 
z
M 1831 4666 
L 2547 4666 
L 4325 0 
L 3669 0 
L 3244 1197 
L 1141 1197 
L 716 0 
L 50 0 
L 1831 4666 
z
" transform="scale(0.015625)"/>
      </defs>
      <use xlink:href="#DejaVuSans-52"/>
      <use xlink:href="#DejaVuSans-4e" x="69.482422"/>
      <use xlink:href="#DejaVuSans-45" x="144.287109"/>
      <use xlink:href="#DejaVuSans-41" x="207.470703"/>
     </g>
    </g>
    <g id="line2d_30">
     <path d="M 517.734062 28.496563 
L 527.734062 28.496563 
L 537.734062 28.496563 
" style="fill: none; stroke: #ff0000; stroke-opacity: 0.5; stroke-width: 1.5; stroke-linecap: square"/>
    </g>
    <g id="text_17">
     <!-- BURNEA -->
     <g transform="translate(545.734062 31.996563) scale(0.1 -0.1)">
      <defs>
       <path id="DejaVuSans-42" d="M 1259 2228 
L 1259 519 
L 2272 519 
Q 2781 519 3026 730 
Q 3272 941 3272 1375 
Q 3272 1813 3026 2020 
Q 2781 2228 2272 2228 
L 1259 2228 
z
M 1259 4147 
L 1259 2741 
L 2194 2741 
Q 2656 2741 2882 2914 
Q 3109 3088 3109 3444 
Q 3109 3797 2882 3972 
Q 2656 4147 2194 4147 
L 1259 4147 
z
M 628 4666 
L 2241 4666 
Q 2963 4666 3353 4366 
Q 3744 4066 3744 3513 
Q 3744 3084 3544 2831 
Q 3344 2578 2956 2516 
Q 3422 2416 3680 2098 
Q 3938 1781 3938 1306 
Q 3938 681 3513 340 
Q 3088 0 2303 0 
L 628 0 
L 628 4666 
z
" transform="scale(0.015625)"/>
       <path id="DejaVuSans-55" d="M 556 4666 
L 1191 4666 
L 1191 1831 
Q 1191 1081 1462 751 
Q 1734 422 2344 422 
Q 2950 422 3222 751 
Q 3494 1081 3494 1831 
L 3494 4666 
L 4128 4666 
L 4128 1753 
Q 4128 841 3676 375 
Q 3225 -91 2344 -91 
Q 1459 -91 1007 375 
Q 556 841 556 1753 
L 556 4666 
z
" transform="scale(0.015625)"/>
      </defs>
      <use xlink:href="#DejaVuSans-42"/>
      <use xlink:href="#DejaVuSans-55" x="68.603516"/>
      <use xlink:href="#DejaVuSans-52" x="141.796875"/>
      <use xlink:href="#DejaVuSans-4e" x="211.279297"/>
      <use xlink:href="#DejaVuSans-45" x="286.083984"/>
      <use xlink:href="#DejaVuSans-41" x="349.267578"/>
     </g>
    </g>
   </g>
  </g>
 </g>
 <defs>
  <clipPath id="pf3730c8758">
   <rect x="38.502813" y="0.72" width="558" height="277.2"/>
  </clipPath>
 </defs>
</svg>
