<?xml version="1.0" encoding="utf-8" standalone="no"?>
<!DOCTYPE svg PUBLIC "-//W3C//DTD SVG 1.1//EN"
  "http://www.w3.org/Graphics/SVG/1.1/DTD/svg11.dtd">
<svg xmlns:xlink="http://www.w3.org/1999/xlink" width="597.222813pt" height="304.99625pt" viewBox="0 0 597.222813 304.99625" xmlns="http://www.w3.org/2000/svg" version="1.1">
 <metadata>
  <rdf:RDF xmlns:dc="http://purl.org/dc/elements/1.1/" xmlns:cc="http://creativecommons.org/ns#" xmlns:rdf="http://www.w3.org/1999/02/22-rdf-syntax-ns#">
   <cc:Work>
    <dc:type rdf:resource="http://purl.org/dc/dcmitype/StillImage"/>
    <dc:date>2023-09-07T03:30:31.749116</dc:date>
    <dc:format>image/svg+xml</dc:format>
    <dc:creator>
     <cc:Agent>
      <dc:title>Matplotlib v3.7.2, https://matplotlib.org/</dc:title>
     </cc:Agent>
    </dc:creator>
   </cc:Work>
  </rdf:RDF>
 </metadata>
 <defs>
  <style type="text/css">*{stroke-linejoin: round; stroke-linecap: butt}</style>
 </defs>
 <g id="figure_1">
  <g id="patch_1">
   <path d="M -0 304.99625 
L 597.222813 304.99625 
L 597.222813 0 
L -0 0 
L -0 304.99625 
z
" style="fill: none"/>
  </g>
  <g id="axes_1">
   <g id="patch_2">
    <path d="M 38.502813 277.92 
L 596.502813 277.92 
L 596.502813 0.72 
L 38.502813 0.72 
L 38.502813 277.92 
z
" style="fill: none"/>
   </g>
   <g id="matplotlib.axis_1">
    <g id="xtick_1">
     <g id="line2d_1">
      <path d="M 38.502813 277.92 
L 38.502813 0.72 
" clip-path="url(#pb5930a5a4b)" style="fill: none; stroke-dasharray: 0.8,1.32; stroke-dashoffset: 0; stroke: #000000; stroke-opacity: 0.5; stroke-width: 0.8"/>
     </g>
     <g id="line2d_2">
      <defs>
       <path id="m770a0fcb37" d="M 0 0 
L 0 3.5 
" style="stroke: #000000; stroke-width: 0.8"/>
      </defs>
      <g>
       <use xlink:href="#m770a0fcb37" x="38.502813" y="277.92" style="stroke: #000000; stroke-width: 0.8"/>
      </g>
     </g>
     <g id="text_1">
      <!-- 0.0 -->
      <g transform="translate(30.55125 292.518438) scale(0.1 -0.1)">
       <defs>
        <path id="DejaVuSans-30" d="M 2034 4250 
Q 1547 4250 1301 3770 
Q 1056 3291 1056 2328 
Q 1056 1369 1301 889 
Q 1547 409 2034 409 
Q 2525 409 2770 889 
Q 3016 1369 3016 2328 
Q 3016 3291 2770 3770 
Q 2525 4250 2034 4250 
z
M 2034 4750 
Q 2819 4750 3233 4129 
Q 3647 3509 3647 2328 
Q 3647 1150 3233 529 
Q 2819 -91 2034 -91 
Q 1250 -91 836 529 
Q 422 1150 422 2328 
Q 422 3509 836 4129 
Q 1250 4750 2034 4750 
z
" transform="scale(0.015625)"/>
        <path id="DejaVuSans-2e" d="M 684 794 
L 1344 794 
L 1344 0 
L 684 0 
L 684 794 
z
" transform="scale(0.015625)"/>
       </defs>
       <use xlink:href="#DejaVuSans-30"/>
       <use xlink:href="#DejaVuSans-2e" x="63.623047"/>
       <use xlink:href="#DejaVuSans-30" x="95.410156"/>
      </g>
     </g>
    </g>
    <g id="xtick_2">
     <g id="line2d_3">
      <path d="M 112.654137 277.92 
L 112.654137 0.72 
" clip-path="url(#pb5930a5a4b)" style="fill: none; stroke-dasharray: 0.8,1.32; stroke-dashoffset: 0; stroke: #000000; stroke-opacity: 0.5; stroke-width: 0.8"/>
     </g>
     <g id="line2d_4">
      <g>
       <use xlink:href="#m770a0fcb37" x="112.654137" y="277.92" style="stroke: #000000; stroke-width: 0.8"/>
      </g>
     </g>
     <g id="text_2">
      <!-- 2.5 -->
      <g transform="translate(104.702575 292.518438) scale(0.1 -0.1)">
       <defs>
        <path id="DejaVuSans-32" d="M 1228 531 
L 3431 531 
L 3431 0 
L 469 0 
L 469 531 
Q 828 903 1448 1529 
Q 2069 2156 2228 2338 
Q 2531 2678 2651 2914 
Q 2772 3150 2772 3378 
Q 2772 3750 2511 3984 
Q 2250 4219 1831 4219 
Q 1534 4219 1204 4116 
Q 875 4013 500 3803 
L 500 4441 
Q 881 4594 1212 4672 
Q 1544 4750 1819 4750 
Q 2544 4750 2975 4387 
Q 3406 4025 3406 3419 
Q 3406 3131 3298 2873 
Q 3191 2616 2906 2266 
Q 2828 2175 2409 1742 
Q 1991 1309 1228 531 
z
" transform="scale(0.015625)"/>
        <path id="DejaVuSans-35" d="M 691 4666 
L 3169 4666 
L 3169 4134 
L 1269 4134 
L 1269 2991 
Q 1406 3038 1543 3061 
Q 1681 3084 1819 3084 
Q 2600 3084 3056 2656 
Q 3513 2228 3513 1497 
Q 3513 744 3044 326 
Q 2575 -91 1722 -91 
Q 1428 -91 1123 -41 
Q 819 9 494 109 
L 494 744 
Q 775 591 1075 516 
Q 1375 441 1709 441 
Q 2250 441 2565 725 
Q 2881 1009 2881 1497 
Q 2881 1984 2565 2268 
Q 2250 2553 1709 2553 
Q 1456 2553 1204 2497 
Q 953 2441 691 2322 
L 691 4666 
z
" transform="scale(0.015625)"/>
       </defs>
       <use xlink:href="#DejaVuSans-32"/>
       <use xlink:href="#DejaVuSans-2e" x="63.623047"/>
       <use xlink:href="#DejaVuSans-35" x="95.410156"/>
      </g>
     </g>
    </g>
    <g id="xtick_3">
     <g id="line2d_5">
      <path d="M 186.805462 277.92 
L 186.805462 0.72 
" clip-path="url(#pb5930a5a4b)" style="fill: none; stroke-dasharray: 0.8,1.32; stroke-dashoffset: 0; stroke: #000000; stroke-opacity: 0.5; stroke-width: 0.8"/>
     </g>
     <g id="line2d_6">
      <g>
       <use xlink:href="#m770a0fcb37" x="186.805462" y="277.92" style="stroke: #000000; stroke-width: 0.8"/>
      </g>
     </g>
     <g id="text_3">
      <!-- 5.0 -->
      <g transform="translate(178.8539 292.518438) scale(0.1 -0.1)">
       <use xlink:href="#DejaVuSans-35"/>
       <use xlink:href="#DejaVuSans-2e" x="63.623047"/>
       <use xlink:href="#DejaVuSans-30" x="95.410156"/>
      </g>
     </g>
    </g>
    <g id="xtick_4">
     <g id="line2d_7">
      <path d="M 260.956787 277.92 
L 260.956787 0.72 
" clip-path="url(#pb5930a5a4b)" style="fill: none; stroke-dasharray: 0.8,1.32; stroke-dashoffset: 0; stroke: #000000; stroke-opacity: 0.5; stroke-width: 0.8"/>
     </g>
     <g id="line2d_8">
      <g>
       <use xlink:href="#m770a0fcb37" x="260.956787" y="277.92" style="stroke: #000000; stroke-width: 0.8"/>
      </g>
     </g>
     <g id="text_4">
      <!-- 7.5 -->
      <g transform="translate(253.005225 292.518438) scale(0.1 -0.1)">
       <defs>
        <path id="DejaVuSans-37" d="M 525 4666 
L 3525 4666 
L 3525 4397 
L 1831 0 
L 1172 0 
L 2766 4134 
L 525 4134 
L 525 4666 
z
" transform="scale(0.015625)"/>
       </defs>
       <use xlink:href="#DejaVuSans-37"/>
       <use xlink:href="#DejaVuSans-2e" x="63.623047"/>
       <use xlink:href="#DejaVuSans-35" x="95.410156"/>
      </g>
     </g>
    </g>
    <g id="xtick_5">
     <g id="line2d_9">
      <path d="M 335.108112 277.92 
L 335.108112 0.72 
" clip-path="url(#pb5930a5a4b)" style="fill: none; stroke-dasharray: 0.8,1.32; stroke-dashoffset: 0; stroke: #000000; stroke-opacity: 0.5; stroke-width: 0.8"/>
     </g>
     <g id="line2d_10">
      <g>
       <use xlink:href="#m770a0fcb37" x="335.108112" y="277.92" style="stroke: #000000; stroke-width: 0.8"/>
      </g>
     </g>
     <g id="text_5">
      <!-- 10.0 -->
      <g transform="translate(323.9753 292.518438) scale(0.1 -0.1)">
       <defs>
        <path id="DejaVuSans-31" d="M 794 531 
L 1825 531 
L 1825 4091 
L 703 3866 
L 703 4441 
L 1819 4666 
L 2450 4666 
L 2450 531 
L 3481 531 
L 3481 0 
L 794 0 
L 794 531 
z
" transform="scale(0.015625)"/>
       </defs>
       <use xlink:href="#DejaVuSans-31"/>
       <use xlink:href="#DejaVuSans-30" x="63.623047"/>
       <use xlink:href="#DejaVuSans-2e" x="127.246094"/>
       <use xlink:href="#DejaVuSans-30" x="159.033203"/>
      </g>
     </g>
    </g>
    <g id="xtick_6">
     <g id="line2d_11">
      <path d="M 409.259437 277.92 
L 409.259437 0.72 
" clip-path="url(#pb5930a5a4b)" style="fill: none; stroke-dasharray: 0.8,1.32; stroke-dashoffset: 0; stroke: #000000; stroke-opacity: 0.5; stroke-width: 0.8"/>
     </g>
     <g id="line2d_12">
      <g>
       <use xlink:href="#m770a0fcb37" x="409.259437" y="277.92" style="stroke: #000000; stroke-width: 0.8"/>
      </g>
     </g>
     <g id="text_6">
      <!-- 12.5 -->
      <g transform="translate(398.126625 292.518438) scale(0.1 -0.1)">
       <use xlink:href="#DejaVuSans-31"/>
       <use xlink:href="#DejaVuSans-32" x="63.623047"/>
       <use xlink:href="#DejaVuSans-2e" x="127.246094"/>
       <use xlink:href="#DejaVuSans-35" x="159.033203"/>
      </g>
     </g>
    </g>
    <g id="xtick_7">
     <g id="line2d_13">
      <path d="M 483.410762 277.92 
L 483.410762 0.72 
" clip-path="url(#pb5930a5a4b)" style="fill: none; stroke-dasharray: 0.8,1.32; stroke-dashoffset: 0; stroke: #000000; stroke-opacity: 0.5; stroke-width: 0.8"/>
     </g>
     <g id="line2d_14">
      <g>
       <use xlink:href="#m770a0fcb37" x="483.410762" y="277.92" style="stroke: #000000; stroke-width: 0.8"/>
      </g>
     </g>
     <g id="text_7">
      <!-- 15.0 -->
      <g transform="translate(472.27795 292.518438) scale(0.1 -0.1)">
       <use xlink:href="#DejaVuSans-31"/>
       <use xlink:href="#DejaVuSans-35" x="63.623047"/>
       <use xlink:href="#DejaVuSans-2e" x="127.246094"/>
       <use xlink:href="#DejaVuSans-30" x="159.033203"/>
      </g>
     </g>
    </g>
    <g id="xtick_8">
     <g id="line2d_15">
      <path d="M 557.562087 277.92 
L 557.562087 0.72 
" clip-path="url(#pb5930a5a4b)" style="fill: none; stroke-dasharray: 0.8,1.32; stroke-dashoffset: 0; stroke: #000000; stroke-opacity: 0.5; stroke-width: 0.8"/>
     </g>
     <g id="line2d_16">
      <g>
       <use xlink:href="#m770a0fcb37" x="557.562087" y="277.92" style="stroke: #000000; stroke-width: 0.8"/>
      </g>
     </g>
     <g id="text_8">
      <!-- 17.5 -->
      <g transform="translate(546.429274 292.518438) scale(0.1 -0.1)">
       <use xlink:href="#DejaVuSans-31"/>
       <use xlink:href="#DejaVuSans-37" x="63.623047"/>
       <use xlink:href="#DejaVuSans-2e" x="127.246094"/>
       <use xlink:href="#DejaVuSans-35" x="159.033203"/>
      </g>
     </g>
    </g>
    <g id="text_9">
     <!-- Zeit [s] -->
     <g transform="translate(299.556719 302.196563) scale(0.1 -0.1)">
      <defs>
       <path id="DejaVuSans-5a" d="M 359 4666 
L 4025 4666 
L 4025 4184 
L 1075 531 
L 4097 531 
L 4097 0 
L 288 0 
L 288 481 
L 3238 4134 
L 359 4134 
L 359 4666 
z
" transform="scale(0.015625)"/>
       <path id="DejaVuSans-65" d="M 3597 1894 
L 3597 1613 
L 953 1613 
Q 991 1019 1311 708 
Q 1631 397 2203 397 
Q 2534 397 2845 478 
Q 3156 559 3463 722 
L 3463 178 
Q 3153 47 2828 -22 
Q 2503 -91 2169 -91 
Q 1331 -91 842 396 
Q 353 884 353 1716 
Q 353 2575 817 3079 
Q 1281 3584 2069 3584 
Q 2775 3584 3186 3129 
Q 3597 2675 3597 1894 
z
M 3022 2063 
Q 3016 2534 2758 2815 
Q 2500 3097 2075 3097 
Q 1594 3097 1305 2825 
Q 1016 2553 972 2059 
L 3022 2063 
z
" transform="scale(0.015625)"/>
       <path id="DejaVuSans-69" d="M 603 3500 
L 1178 3500 
L 1178 0 
L 603 0 
L 603 3500 
z
M 603 4863 
L 1178 4863 
L 1178 4134 
L 603 4134 
L 603 4863 
z
" transform="scale(0.015625)"/>
       <path id="DejaVuSans-74" d="M 1172 4494 
L 1172 3500 
L 2356 3500 
L 2356 3053 
L 1172 3053 
L 1172 1153 
Q 1172 725 1289 603 
Q 1406 481 1766 481 
L 2356 481 
L 2356 0 
L 1766 0 
Q 1100 0 847 248 
Q 594 497 594 1153 
L 594 3053 
L 172 3053 
L 172 3500 
L 594 3500 
L 594 4494 
L 1172 4494 
z
" transform="scale(0.015625)"/>
       <path id="DejaVuSans-20" transform="scale(0.015625)"/>
       <path id="DejaVuSans-5b" d="M 550 4863 
L 1875 4863 
L 1875 4416 
L 1125 4416 
L 1125 -397 
L 1875 -397 
L 1875 -844 
L 550 -844 
L 550 4863 
z
" transform="scale(0.015625)"/>
       <path id="DejaVuSans-73" d="M 2834 3397 
L 2834 2853 
Q 2591 2978 2328 3040 
Q 2066 3103 1784 3103 
Q 1356 3103 1142 2972 
Q 928 2841 928 2578 
Q 928 2378 1081 2264 
Q 1234 2150 1697 2047 
L 1894 2003 
Q 2506 1872 2764 1633 
Q 3022 1394 3022 966 
Q 3022 478 2636 193 
Q 2250 -91 1575 -91 
Q 1294 -91 989 -36 
Q 684 19 347 128 
L 347 722 
Q 666 556 975 473 
Q 1284 391 1588 391 
Q 1994 391 2212 530 
Q 2431 669 2431 922 
Q 2431 1156 2273 1281 
Q 2116 1406 1581 1522 
L 1381 1569 
Q 847 1681 609 1914 
Q 372 2147 372 2553 
Q 372 3047 722 3315 
Q 1072 3584 1716 3584 
Q 2034 3584 2315 3537 
Q 2597 3491 2834 3397 
z
" transform="scale(0.015625)"/>
       <path id="DejaVuSans-5d" d="M 1947 4863 
L 1947 -844 
L 622 -844 
L 622 -397 
L 1369 -397 
L 1369 4416 
L 622 4416 
L 622 4863 
L 1947 4863 
z
" transform="scale(0.015625)"/>
      </defs>
      <use xlink:href="#DejaVuSans-5a"/>
      <use xlink:href="#DejaVuSans-65" x="68.505859"/>
      <use xlink:href="#DejaVuSans-69" x="130.029297"/>
      <use xlink:href="#DejaVuSans-74" x="157.8125"/>
      <use xlink:href="#DejaVuSans-20" x="197.021484"/>
      <use xlink:href="#DejaVuSans-5b" x="228.808594"/>
      <use xlink:href="#DejaVuSans-73" x="267.822266"/>
      <use xlink:href="#DejaVuSans-5d" x="319.921875"/>
     </g>
    </g>
   </g>
   <g id="matplotlib.axis_2">
    <g id="ytick_1">
     <g id="line2d_17">
      <path d="M 38.502813 271.267905 
L 596.502813 271.267905 
" clip-path="url(#pb5930a5a4b)" style="fill: none; stroke-dasharray: 0.8,1.32; stroke-dashoffset: 0; stroke: #000000; stroke-opacity: 0.5; stroke-width: 0.8"/>
     </g>
     <g id="line2d_18">
      <defs>
       <path id="md8185ff150" d="M 0 0 
L -3.5 0 
" style="stroke: #000000; stroke-width: 0.8"/>
      </defs>
      <g>
       <use xlink:href="#md8185ff150" x="38.502813" y="271.267905" style="stroke: #000000; stroke-width: 0.8"/>
      </g>
     </g>
     <g id="text_10">
      <!-- −15 -->
      <g transform="translate(10.398125 275.067124) scale(0.1 -0.1)">
       <defs>
        <path id="DejaVuSans-2212" d="M 678 2272 
L 4684 2272 
L 4684 1741 
L 678 1741 
L 678 2272 
z
" transform="scale(0.015625)"/>
       </defs>
       <use xlink:href="#DejaVuSans-2212"/>
       <use xlink:href="#DejaVuSans-31" x="83.789062"/>
       <use xlink:href="#DejaVuSans-35" x="147.412109"/>
      </g>
     </g>
    </g>
    <g id="ytick_2">
     <g id="line2d_19">
      <path d="M 38.502813 233.894392 
L 596.502813 233.894392 
" clip-path="url(#pb5930a5a4b)" style="fill: none; stroke-dasharray: 0.8,1.32; stroke-dashoffset: 0; stroke: #000000; stroke-opacity: 0.5; stroke-width: 0.8"/>
     </g>
     <g id="line2d_20">
      <g>
       <use xlink:href="#md8185ff150" x="38.502813" y="233.894392" style="stroke: #000000; stroke-width: 0.8"/>
      </g>
     </g>
     <g id="text_11">
      <!-- −10 -->
      <g transform="translate(10.398125 237.693611) scale(0.1 -0.1)">
       <use xlink:href="#DejaVuSans-2212"/>
       <use xlink:href="#DejaVuSans-31" x="83.789062"/>
       <use xlink:href="#DejaVuSans-30" x="147.412109"/>
      </g>
     </g>
    </g>
    <g id="ytick_3">
     <g id="line2d_21">
      <path d="M 38.502813 196.520879 
L 596.502813 196.520879 
" clip-path="url(#pb5930a5a4b)" style="fill: none; stroke-dasharray: 0.8,1.32; stroke-dashoffset: 0; stroke: #000000; stroke-opacity: 0.5; stroke-width: 0.8"/>
     </g>
     <g id="line2d_22">
      <g>
       <use xlink:href="#md8185ff150" x="38.502813" y="196.520879" style="stroke: #000000; stroke-width: 0.8"/>
      </g>
     </g>
     <g id="text_12">
      <!-- −5 -->
      <g transform="translate(16.760625 200.320098) scale(0.1 -0.1)">
       <use xlink:href="#DejaVuSans-2212"/>
       <use xlink:href="#DejaVuSans-35" x="83.789062"/>
      </g>
     </g>
    </g>
    <g id="ytick_4">
     <g id="line2d_23">
      <path d="M 38.502813 159.147366 
L 596.502813 159.147366 
" clip-path="url(#pb5930a5a4b)" style="fill: none; stroke-dasharray: 0.8,1.32; stroke-dashoffset: 0; stroke: #000000; stroke-opacity: 0.5; stroke-width: 0.8"/>
     </g>
     <g id="line2d_24">
      <g>
       <use xlink:href="#md8185ff150" x="38.502813" y="159.147366" style="stroke: #000000; stroke-width: 0.8"/>
      </g>
     </g>
     <g id="text_13">
      <!-- 0 -->
      <g transform="translate(25.140313 162.946585) scale(0.1 -0.1)">
       <use xlink:href="#DejaVuSans-30"/>
      </g>
     </g>
    </g>
    <g id="ytick_5">
     <g id="line2d_25">
      <path d="M 38.502813 121.773853 
L 596.502813 121.773853 
" clip-path="url(#pb5930a5a4b)" style="fill: none; stroke-dasharray: 0.8,1.32; stroke-dashoffset: 0; stroke: #000000; stroke-opacity: 0.5; stroke-width: 0.8"/>
     </g>
     <g id="line2d_26">
      <g>
       <use xlink:href="#md8185ff150" x="38.502813" y="121.773853" style="stroke: #000000; stroke-width: 0.8"/>
      </g>
     </g>
     <g id="text_14">
      <!-- 5 -->
      <g transform="translate(25.140313 125.573072) scale(0.1 -0.1)">
       <use xlink:href="#DejaVuSans-35"/>
      </g>
     </g>
    </g>
    <g id="ytick_6">
     <g id="line2d_27">
      <path d="M 38.502813 84.40034 
L 596.502813 84.40034 
" clip-path="url(#pb5930a5a4b)" style="fill: none; stroke-dasharray: 0.8,1.32; stroke-dashoffset: 0; stroke: #000000; stroke-opacity: 0.5; stroke-width: 0.8"/>
     </g>
     <g id="line2d_28">
      <g>
       <use xlink:href="#md8185ff150" x="38.502813" y="84.40034" style="stroke: #000000; stroke-width: 0.8"/>
      </g>
     </g>
     <g id="text_15">
      <!-- 10 -->
      <g transform="translate(18.777813 88.199559) scale(0.1 -0.1)">
       <use xlink:href="#DejaVuSans-31"/>
       <use xlink:href="#DejaVuSans-30" x="63.623047"/>
      </g>
     </g>
    </g>
    <g id="ytick_7">
     <g id="line2d_29">
      <path d="M 38.502813 47.026827 
L 596.502813 47.026827 
" clip-path="url(#pb5930a5a4b)" style="fill: none; stroke-dasharray: 0.8,1.32; stroke-dashoffset: 0; stroke: #000000; stroke-opacity: 0.5; stroke-width: 0.8"/>
     </g>
     <g id="line2d_30">
      <g>
       <use xlink:href="#md8185ff150" x="38.502813" y="47.026827" style="stroke: #000000; stroke-width: 0.8"/>
      </g>
     </g>
     <g id="text_16">
      <!-- 15 -->
      <g transform="translate(18.777813 50.826046) scale(0.1 -0.1)">
       <use xlink:href="#DejaVuSans-31"/>
       <use xlink:href="#DejaVuSans-35" x="63.623047"/>
      </g>
     </g>
    </g>
    <g id="ytick_8">
     <g id="line2d_31">
      <path d="M 38.502813 9.653314 
L 596.502813 9.653314 
" clip-path="url(#pb5930a5a4b)" style="fill: none; stroke-dasharray: 0.8,1.32; stroke-dashoffset: 0; stroke: #000000; stroke-opacity: 0.5; stroke-width: 0.8"/>
     </g>
     <g id="line2d_32">
      <g>
       <use xlink:href="#md8185ff150" x="38.502813" y="9.653314" style="stroke: #000000; stroke-width: 0.8"/>
      </g>
     </g>
     <g id="text_17">
      <!-- 20 -->
      <g transform="translate(18.777813 13.452533) scale(0.1 -0.1)">
       <use xlink:href="#DejaVuSans-32"/>
       <use xlink:href="#DejaVuSans-30" x="63.623047"/>
      </g>
     </g>
    </g>
    <g id="text_18">
     <!-- Drehmoment [Nm] -->
     <g transform="translate(8.318438 186.465313) rotate(-90) scale(0.1 -0.1)">
      <defs>
       <path id="DejaVuSans-44" d="M 1259 4147 
L 1259 519 
L 2022 519 
Q 2988 519 3436 956 
Q 3884 1394 3884 2338 
Q 3884 3275 3436 3711 
Q 2988 4147 2022 4147 
L 1259 4147 
z
M 628 4666 
L 1925 4666 
Q 3281 4666 3915 4102 
Q 4550 3538 4550 2338 
Q 4550 1131 3912 565 
Q 3275 0 1925 0 
L 628 0 
L 628 4666 
z
" transform="scale(0.015625)"/>
       <path id="DejaVuSans-72" d="M 2631 2963 
Q 2534 3019 2420 3045 
Q 2306 3072 2169 3072 
Q 1681 3072 1420 2755 
Q 1159 2438 1159 1844 
L 1159 0 
L 581 0 
L 581 3500 
L 1159 3500 
L 1159 2956 
Q 1341 3275 1631 3429 
Q 1922 3584 2338 3584 
Q 2397 3584 2469 3576 
Q 2541 3569 2628 3553 
L 2631 2963 
z
" transform="scale(0.015625)"/>
       <path id="DejaVuSans-68" d="M 3513 2113 
L 3513 0 
L 2938 0 
L 2938 2094 
Q 2938 2591 2744 2837 
Q 2550 3084 2163 3084 
Q 1697 3084 1428 2787 
Q 1159 2491 1159 1978 
L 1159 0 
L 581 0 
L 581 4863 
L 1159 4863 
L 1159 2956 
Q 1366 3272 1645 3428 
Q 1925 3584 2291 3584 
Q 2894 3584 3203 3211 
Q 3513 2838 3513 2113 
z
" transform="scale(0.015625)"/>
       <path id="DejaVuSans-6d" d="M 3328 2828 
Q 3544 3216 3844 3400 
Q 4144 3584 4550 3584 
Q 5097 3584 5394 3201 
Q 5691 2819 5691 2113 
L 5691 0 
L 5113 0 
L 5113 2094 
Q 5113 2597 4934 2840 
Q 4756 3084 4391 3084 
Q 3944 3084 3684 2787 
Q 3425 2491 3425 1978 
L 3425 0 
L 2847 0 
L 2847 2094 
Q 2847 2600 2669 2842 
Q 2491 3084 2119 3084 
Q 1678 3084 1418 2786 
Q 1159 2488 1159 1978 
L 1159 0 
L 581 0 
L 581 3500 
L 1159 3500 
L 1159 2956 
Q 1356 3278 1631 3431 
Q 1906 3584 2284 3584 
Q 2666 3584 2933 3390 
Q 3200 3197 3328 2828 
z
" transform="scale(0.015625)"/>
       <path id="DejaVuSans-6f" d="M 1959 3097 
Q 1497 3097 1228 2736 
Q 959 2375 959 1747 
Q 959 1119 1226 758 
Q 1494 397 1959 397 
Q 2419 397 2687 759 
Q 2956 1122 2956 1747 
Q 2956 2369 2687 2733 
Q 2419 3097 1959 3097 
z
M 1959 3584 
Q 2709 3584 3137 3096 
Q 3566 2609 3566 1747 
Q 3566 888 3137 398 
Q 2709 -91 1959 -91 
Q 1206 -91 779 398 
Q 353 888 353 1747 
Q 353 2609 779 3096 
Q 1206 3584 1959 3584 
z
" transform="scale(0.015625)"/>
       <path id="DejaVuSans-6e" d="M 3513 2113 
L 3513 0 
L 2938 0 
L 2938 2094 
Q 2938 2591 2744 2837 
Q 2550 3084 2163 3084 
Q 1697 3084 1428 2787 
Q 1159 2491 1159 1978 
L 1159 0 
L 581 0 
L 581 3500 
L 1159 3500 
L 1159 2956 
Q 1366 3272 1645 3428 
Q 1925 3584 2291 3584 
Q 2894 3584 3203 3211 
Q 3513 2838 3513 2113 
z
" transform="scale(0.015625)"/>
       <path id="DejaVuSans-4e" d="M 628 4666 
L 1478 4666 
L 3547 763 
L 3547 4666 
L 4159 4666 
L 4159 0 
L 3309 0 
L 1241 3903 
L 1241 0 
L 628 0 
L 628 4666 
z
" transform="scale(0.015625)"/>
      </defs>
      <use xlink:href="#DejaVuSans-44"/>
      <use xlink:href="#DejaVuSans-72" x="77.001953"/>
      <use xlink:href="#DejaVuSans-65" x="115.865234"/>
      <use xlink:href="#DejaVuSans-68" x="177.388672"/>
      <use xlink:href="#DejaVuSans-6d" x="240.767578"/>
      <use xlink:href="#DejaVuSans-6f" x="338.179688"/>
      <use xlink:href="#DejaVuSans-6d" x="399.361328"/>
      <use xlink:href="#DejaVuSans-65" x="496.773438"/>
      <use xlink:href="#DejaVuSans-6e" x="558.296875"/>
      <use xlink:href="#DejaVuSans-74" x="621.675781"/>
      <use xlink:href="#DejaVuSans-20" x="660.884766"/>
      <use xlink:href="#DejaVuSans-5b" x="692.671875"/>
      <use xlink:href="#DejaVuSans-4e" x="731.685547"/>
      <use xlink:href="#DejaVuSans-6d" x="806.490234"/>
      <use xlink:href="#DejaVuSans-5d" x="903.902344"/>
     </g>
    </g>
   </g>
   <g id="line2d_33">
    <path d="M 38.502813 159.147366 
L 223.248476 159.147366 
L 223.732051 159.25076 
L 225.988789 159.191536 
L 226.226817 159.082079 
L 228.972776 159.177864 
L 229.211707 159.071598 
L 229.86666 159.147366 
L 231.242363 159.107771 
L 232.136825 159.187218 
L 232.316057 159.091171 
L 232.434509 159.197312 
L 233.864567 159.128983 
L 234.163673 159.199289 
L 234.459871 159.077911 
L 234.638675 159.153724 
L 236.384217 159.067432 
L 237.874902 159.192635 
L 239.549082 159.111342 
L 240.023237 159.195993 
L 240.614551 159.145871 
L 241.151839 159.150125 
L 241.806632 159.137476 
L 242.641746 159.212312 
L 243.539421 159.123642 
L 243.836562 159.189859 
L 244.253567 159.109295 
L 244.998784 159.169754 
L 248.848689 159.143848 
L 249.218981 159.147367 
L 253.137428 159.171725 
L 253.437262 159.09752 
L 253.912799 159.209691 
L 254.629948 159.13774 
L 254.866171 159.206397 
L 257.013573 159.09399 
L 257.134596 159.185244 
L 257.61066 159.189396 
L 258.859825 159.176585 
L 259.158214 159.067159 
L 259.730147 159.15922 
L 260.591149 159.10531 
L 260.949329 159.203999 
L 262.086563 159.131189 
L 265.299527 159.191182 
L 266.191948 159.095701 
L 266.252174 159.197962 
L 275.313574 159.163041 
L 275.437851 159.229331 
L 276.393789 159.160848 
L 277.162083 159.22076 
L 277.779075 159.143492 
L 280.623809 159.137047 
L 280.980465 159.076822 
L 281.1601 159.18555 
L 281.873928 159.120078 
L 283.66432 159.213462 
L 284.319934 159.167819 
L 285.810779 159.138593 
L 286.048783 159.205017 
L 286.292195 159.113664 
L 286.526687 159.159521 
L 286.769413 159.075753 
L 287.007247 159.196006 
L 287.262421 159.142309 
L 287.484106 159.221876 
L 289.035046 159.148167 
L 289.24077 159.162907 
L 289.455069 159.020778 
L 290.227704 159.229604 
L 290.465879 159.181961 
L 290.948755 159.158267 
L 291.679836 159.153059 
L 292.194976 159.078492 
L 292.730948 159.128155 
L 293.689059 159.162203 
L 293.924229 159.070796 
L 294.221147 159.222709 
L 294.466574 159.146167 
L 294.698997 159.201857 
L 294.878318 159.117079 
L 295.4127 159.165386 
L 295.717231 159.072689 
L 295.948103 159.174465 
L 296.607631 159.1371 
L 298.632709 159.193243 
L 298.870236 159.036876 
L 299.108436 159.270722 
L 299.827215 159.158993 
L 300.854175 159.155333 
L 301.079765 159.097519 
L 301.613328 159.164626 
L 301.911255 159.082932 
L 302.09056 159.184806 
L 302.447614 159.094001 
L 302.626399 159.292288 
L 302.80676 159.028138 
L 303.043886 159.173182 
L 304.119111 159.18256 
L 305.548602 159.052453 
L 305.846457 159.209854 
L 306.02906 159.044953 
L 306.385283 159.052004 
L 306.562027 159.211778 
L 307.281744 159.082314 
L 307.900046 159.142949 
L 308.067971 159.105072 
L 308.299126 159.207801 
L 310.001814 159.149892 
L 311.063774 159.244124 
L 311.242711 159.122692 
L 313.090224 159.147368 
L 313.212638 158.921584 
L 315.594079 159.175147 
L 315.682591 159.152065 
L 316.452034 159.149948 
L 337.736454 159.14755 
L 433.87843 159.141585 
L 434.414608 159.165965 
L 438.242412 159.137796 
L 439.259491 159.161297 
L 440.326857 159.132374 
L 440.505242 159.199834 
L 441.460589 159.123472 
L 442.476381 159.20742 
L 443.119643 159.153055 
L 444.670741 159.165789 
L 445.566243 159.139828 
L 446.223006 159.168547 
L 446.703529 159.154454 
L 447.182432 159.159984 
L 447.656135 159.149446 
L 449.152725 159.12125 
L 449.808343 159.156863 
L 450.46407 159.140391 
L 453.809319 159.15127 
L 457.044693 159.138196 
L 457.762486 159.166704 
L 459.548312 159.132115 
L 460.505547 159.15298 
L 461.461133 159.131421 
L 462.535859 159.145401 
L 462.954361 159.08969 
L 463.439137 159.145887 
L 465.469677 159.14431 
L 470.435389 159.142086 
L 473.634969 159.147392 
L 473.868197 159.096595 
L 474.354868 159.134233 
L 476.555932 159.154723 
L 477.212458 159.133928 
L 477.868828 159.177577 
L 479.305237 159.1413 
L 481.594462 159.147397 
L 482.301583 159.147397 
L 490.683853 159.134419 
L 491.201618 159.191049 
L 492.390345 159.132337 
L 494.614303 159.147403 
L 495.092642 159.096594 
L 495.688062 159.137572 
L 497.32743 159.135431 
L 500.113488 159.163223 
L 500.293182 159.10322 
L 500.829084 159.133313 
L 502.565805 159.144443 
L 508.485193 159.142552 
L 509.01986 159.118992 
L 509.498512 159.179663 
L 510.21317 159.108324 
L 511.94593 159.1304 
L 517.51651 159.146897 
L 518.173168 159.208327 
L 518.653123 159.115896 
L 521.115203 159.224376 
L 522.827932 159.138784 
L 550.187418 159.147366 
L 596.502813 159.147366 
L 596.502813 159.147366 
" clip-path="url(#pb5930a5a4b)" style="fill: none; stroke: #0000ff; stroke-opacity: 0.5; stroke-width: 1.5; stroke-linecap: square"/>
   </g>
   <g id="line2d_34">
    <path d="M 38.502813 190.022546 
L 38.622916 188.778787 
L 38.865804 192.371606 
L 38.937 188.884621 
L 39.111017 188.647566 
L 39.417061 191.785159 
L 39.707596 190.906593 
L 39.885883 192.686693 
L 40.541846 189.597019 
L 40.601545 192.189023 
L 41.018884 191.497792 
L 41.257159 191.600247 
L 41.376814 191.795194 
L 41.559198 191.247803 
L 42.033407 192.173017 
L 42.091503 190.928575 
L 42.329583 189.786749 
L 42.628872 191.415793 
L 42.928055 192.124771 
L 43.164095 188.8616 
L 43.477718 192.3085 
L 43.581899 189.299884 
L 43.819883 192.878677 
L 44.060446 190.76028 
L 44.300935 189.735182 
L 44.599353 190.049015 
L 44.834047 192.124482 
L 45.07223 191.266472 
L 45.371049 189.167041 
L 45.857012 190.684219 
L 46.174796 193.390648 
L 46.328887 189.503709 
L 46.567049 191.653777 
L 46.805772 190.407185 
L 47.224756 194.198907 
L 47.405507 192.446615 
L 47.521373 194.147568 
L 47.766181 194.07739 
L 48.003493 193.436305 
L 48.244165 195.281337 
L 48.536913 194.391713 
L 49.14069 195.214093 
L 50.441813 195.377138 
L 51.746796 193.757228 
L 53.050949 191.246582 
L 54.356612 191.708561 
L 57.085405 193.886995 
L 58.50861 192.505026 
L 59.813793 194.63128 
L 59.954398 193.434193 
L 60.191841 195.047557 
L 60.430319 194.932578 
L 60.669155 195.139375 
L 60.966191 193.882416 
L 61.265892 188.772461 
L 61.681905 193.920302 
L 61.866132 189.529607 
L 62.104406 191.729791 
L 62.404 192.165275 
L 62.638974 186.733748 
L 62.936269 189.777789 
L 63.11617 194.60709 
L 63.356366 193.340764 
L 63.652931 192.826818 
L 63.846691 193.483238 
L 64.130974 191.209579 
L 64.426649 192.376031 
L 64.72558 194.882695 
L 64.844761 192.18343 
L 65.083776 196.507114 
L 65.323835 195.338491 
L 65.636208 190.222411 
L 66.108513 194.999754 
L 66.396826 191.591292 
L 66.578194 193.763398 
L 66.876601 193.980984 
L 66.934528 191.598277 
L 67.112748 189.762758 
L 67.414376 193.743527 
L 67.588886 193.029014 
L 67.829178 190.965587 
L 68.125305 191.037619 
L 68.423426 189.878943 
L 68.783671 187.118078 
L 69.019997 184.351076 
L 69.616891 193.205998 
L 70.095651 186.693588 
L 70.338534 191.133097 
L 70.523348 191.751644 
L 70.817845 188.480476 
L 71.292681 192.199909 
L 71.413207 197.571301 
L 72.070236 190.711156 
L 72.364771 189.766247 
L 72.604817 194.400876 
L 72.782636 194.266497 
L 73.442011 192.020843 
L 73.737273 191.544524 
L 73.796233 189.574921 
L 74.034856 189.718493 
L 74.273425 190.0308 
L 74.512377 193.49343 
L 74.809776 194.009883 
L 75.10756 189.662815 
L 75.350039 189.688564 
L 75.534701 191.51486 
L 75.716732 191.662729 
L 75.763801 192.226855 
L 76.299771 192.301915 
L 76.479259 193.184406 
L 76.779836 192.986533 
L 77.014868 187.985627 
L 77.211656 188.886049 
L 77.492991 193.245015 
L 77.731123 190.323731 
L 78.028409 188.147837 
L 78.208334 191.499895 
L 78.445703 191.422211 
L 78.984279 189.116324 
L 79.221395 189.537725 
L 79.46119 193.348829 
L 79.9365 188.795467 
L 80.48719 194.557133 
L 80.950854 188.386821 
L 81.192765 192.90893 
L 81.665653 195.191768 
L 81.913099 189.441522 
L 82.151222 193.507537 
L 82.441028 190.542192 
L 82.620686 187.201812 
L 82.859406 190.124192 
L 83.215747 195.958285 
L 83.394399 195.259654 
L 83.632494 188.713044 
L 83.872614 187.528596 
L 84.109856 192.619759 
L 84.411018 191.555556 
L 84.706152 187.519895 
L 85.123897 193.676393 
L 85.361288 194.269463 
L 85.600003 192.744533 
L 86.207889 191.773466 
L 86.732011 188.975577 
L 87.090643 196.379594 
L 87.329041 193.910377 
L 87.865826 184.5851 
L 88.103508 185.573124 
L 88.586765 193.852619 
L 89.00022 193.676581 
L 89.118231 194.142173 
L 89.536432 192.43648 
L 89.908761 188.766837 
L 90.012432 189.121134 
L 90.081212 191.641254 
L 90.668047 195.209086 
L 90.905672 194.525215 
L 91.263784 193.374706 
L 91.681363 191.943419 
L 92.038568 193.46751 
L 92.336147 192.534767 
L 92.754169 187.924191 
L 92.991265 187.327719 
L 93.289814 188.698279 
L 93.489754 192.386296 
L 93.826284 194.476122 
L 94.004867 192.157157 
L 94.305329 189.75703 
L 94.842115 198.497182 
L 95.019457 198.532601 
L 95.498953 194.474144 
L 95.89183 193.845992 
L 96.064357 192.119231 
L 96.454062 189.903424 
L 96.573099 189.915414 
L 96.69475 194.993039 
L 97.286052 187.556436 
L 97.48986 190.162919 
L 97.779913 196.185692 
L 98.063483 198.312969 
L 98.202731 194.29582 
L 98.47895 189.810339 
L 99.025598 194.524083 
L 99.325453 191.084654 
L 99.58166 190.576748 
L 99.795665 194.335304 
L 100.391 196.805037 
L 100.526244 190.602861 
L 101.868401 189.521648 
L 103.165642 191.008691 
L 104.594361 189.28414 
L 104.673559 182.152103 
L 104.853311 179.167071 
L 105.454112 186.459375 
L 105.687883 192.08785 
L 106.066219 196.331533 
L 106.305417 195.654743 
L 106.42681 192.949468 
L 106.688645 190.010301 
L 106.855494 189.929997 
L 107.089968 191.700768 
L 107.387998 195.455477 
L 107.688168 197.559033 
L 107.864974 197.39624 
L 108.164534 192.02481 
L 108.347806 185.374023 
L 108.640473 181.156447 
L 108.902733 183.013261 
L 109.117895 189.96872 
L 109.596272 198.105673 
L 110.375788 183.008248 
L 110.554204 184.66158 
L 111.052094 193.993061 
L 111.29097 193.659032 
L 111.577019 188.441734 
L 111.812008 186.739506 
L 112.049728 189.92355 
L 112.530576 199.84324 
L 112.792567 199.418129 
L 113.325136 196.172996 
L 113.421862 193.304106 
L 113.541144 193.087763 
L 113.788285 194.944262 
L 114.093357 195.455212 
L 114.540544 183.070613 
L 114.883064 180.204554 
L 115.313819 188.90744 
L 115.937099 193.107305 
L 116.216076 186.310891 
L 116.30385 185.546151 
L 116.475791 188.837499 
L 116.782905 190.695896 
L 117.130896 190.681574 
L 117.249404 191.863344 
L 117.487743 191.868399 
L 118.024139 190.308193 
L 118.206256 191.191632 
L 118.450471 194.054562 
L 118.756347 196.216081 
L 118.928024 195.124108 
L 119.289499 194.774046 
L 119.821194 199.633824 
L 120.298612 191.548913 
L 120.606507 191.018125 
L 120.715903 196.453763 
L 120.9231 196.762193 
L 121.194101 191.005171 
L 121.433386 188.993768 
L 121.912267 195.691587 
L 122.149815 195.284668 
L 122.624796 195.739446 
L 122.690525 197.937386 
L 122.935962 195.806081 
L 123.160922 189.591602 
L 123.589311 187.241377 
L 123.69748 192.042706 
L 123.995428 192.978589 
L 124.35569 187.832236 
L 124.650229 188.212806 
L 124.949134 186.153382 
L 125.13009 183.775177 
L 125.427231 184.243604 
L 125.857602 191.114696 
L 126.147722 189.017812 
L 126.390896 186.350025 
L 126.627668 186.926414 
L 126.86069 187.858809 
L 127.101098 186.465764 
L 127.397474 185.606383 
L 127.755155 186.404354 
L 127.874394 189.017965 
L 128.11266 191.403383 
L 128.470607 191.727817 
L 128.590202 191.094183 
L 129.127471 191.805938 
L 129.423624 191.99256 
L 129.721296 192.472321 
L 129.844012 193.837654 
L 130.080965 193.162674 
L 130.318908 190.779616 
L 130.556998 189.710124 
L 130.795082 189.99687 
L 131.094146 192.228197 
L 131.390373 192.374968 
L 131.570561 191.944728 
L 131.809921 191.0584 
L 132.070999 192.04046 
L 132.288655 193.478428 
L 132.530023 194.08119 
L 132.778446 195.954296 
L 133.080422 197.143465 
L 133.599891 190.437967 
L 134.048442 198.329904 
L 134.27389 196.725336 
L 134.511673 189.793726 
L 134.752536 186.553763 
L 134.988169 190.830467 
L 135.299799 193.34631 
L 135.762344 187.15814 
L 136.299914 192.88737 
L 136.897409 188.188812 
L 137.144696 190.850301 
L 137.496099 196.391088 
L 137.729921 194.111507 
L 138.031643 192.689657 
L 138.462756 196.29515 
L 138.821519 195.884817 
L 139.04073 193.807307 
L 139.34128 193.583434 
L 139.518495 192.427936 
L 139.876343 192.06165 
L 139.996454 191.192715 
L 140.23413 191.232469 
L 140.475957 190.716933 
L 140.727123 188.882843 
L 141.192054 178.815139 
L 141.683584 180.866233 
L 141.74323 187.886383 
L 141.924188 193.533726 
L 142.220316 193.881129 
L 142.698106 189.147095 
L 142.935384 190.359263 
L 143.657606 201.436372 
L 144.128735 197.106782 
L 144.426045 188.193757 
L 144.665021 190.047836 
L 145.147247 197.839184 
L 145.379375 197.423672 
L 146.042843 188.643149 
L 146.696415 198.694807 
L 147.407001 187.394256 
L 147.88237 192.545715 
L 148.299554 194.288598 
L 148.598417 190.092143 
L 149.076012 190.481586 
L 149.373331 191.5757 
L 149.613249 190.088883 
L 150.029772 186.238133 
L 150.089694 181.609479 
L 150.446581 182.030428 
L 150.565971 187.289432 
L 150.92311 192.852509 
L 151.703 186.427511 
L 152.113476 194.016254 
L 152.351803 195.318173 
L 152.832111 191.935056 
L 152.888581 189.408413 
L 153.188565 186.455996 
L 153.309231 187.7059 
L 153.54568 193.128967 
L 153.920396 196.58553 
L 154.319251 188.136936 
L 154.617256 189.227626 
L 155.03402 197.5646 
L 155.333455 199.608651 
L 155.572779 197.812136 
L 155.93189 191.956916 
L 156.054561 186.189047 
L 156.288871 185.367772 
L 156.59785 190.644094 
L 156.824695 196.600467 
L 157.062934 197.94765 
L 157.482632 191.093333 
L 157.720275 187.648495 
L 158.075811 186.942406 
L 158.732951 196.68767 
L 159.028959 191.821292 
L 159.50687 181.597333 
L 159.80937 181.651052 
L 160.222772 193.247186 
L 160.639178 197.41313 
L 160.761288 195.261444 
L 161.002186 189.000571 
L 161.236001 188.230195 
L 161.716034 198.255917 
L 161.964836 199.360408 
L 162.194991 197.612637 
L 162.728429 187.096275 
L 162.970124 186.232668 
L 163.449507 197.077291 
L 163.682554 197.141963 
L 164.170702 186.902898 
L 164.397251 188.884366 
L 164.99298 190.996506 
L 165.232577 189.883257 
L 165.64954 182.012627 
L 165.889046 181.939612 
L 166.482576 188.732011 
L 166.661225 187.695279 
L 166.89949 184.208979 
L 167.197831 185.852398 
L 167.436563 191.545739 
L 167.735563 194.232163 
L 167.91455 194.3416 
L 168.152508 194.17179 
L 168.391427 193.575833 
L 168.867709 194.930321 
L 169.165479 194.42895 
L 169.529336 193.120484 
L 169.881582 191.512818 
L 170.359222 194.442305 
L 171.25828 190.296847 
L 171.432118 191.614262 
L 171.900581 192.793789 
L 172.146868 192.610479 
L 172.386262 192.745919 
L 172.569875 190.041712 
L 172.835447 188.693865 
L 173.339268 194.362602 
L 173.707388 193.597248 
L 173.81777 188.842233 
L 174.158309 190.251989 
L 174.177757 193.128257 
L 174.314587 196.095127 
L 174.535783 194.816948 
L 174.91395 189.856151 
L 175.073934 189.51835 
L 175.54851 198.255729 
L 175.787124 196.532256 
L 176.085682 191.926388 
L 176.579702 195.502055 
L 177.049623 188.387463 
L 177.336715 190.960617 
L 177.755713 197.675936 
L 178.11115 195.189821 
L 178.352257 191.864501 
L 178.528778 191.349206 
L 179.02236 191.315454 
L 179.243954 196.917935 
L 179.542117 200.957911 
L 179.959799 201.143852 
L 180.199819 195.519333 
L 180.334683 189.163608 
L 180.554724 188.723265 
L 180.764952 194.230067 
L 181.004126 197.306079 
L 181.237254 195.10976 
L 181.475653 191.341232 
L 181.716775 190.629681 
L 181.952198 190.96296 
L 182.311857 189.242042 
L 182.668141 188.407598 
L 182.972183 192.683931 
L 183.210217 192.896233 
L 183.468223 193.622096 
L 183.706024 193.817766 
L 184.008236 191.897727 
L 184.243069 189.365165 
L 184.480842 190.071602 
L 184.866663 192.216364 
L 184.96201 194.10042 
L 185.214305 191.688676 
L 185.456212 186.752955 
L 185.79372 182.797866 
L 186.450096 193.429224 
L 186.926212 186.484444 
L 188.475599 193.325993 
L 188.892101 193.604576 
L 189.608368 192.239176 
L 189.845677 190.715411 
L 190.38336 199.8508 
L 190.679785 196.949612 
L 190.869436 191.414839 
L 191.157601 189.495149 
L 191.946866 204.490008 
L 192.117173 202.301286 
L 192.595026 191.027574 
L 192.83502 190.874227 
L 193.072666 194.567709 
L 193.31546 195.196495 
L 193.905827 185.105706 
L 194.087116 184.978457 
L 194.621423 188.716234 
L 194.919455 189.675647 
L 195.159734 193.248956 
L 195.454674 193.844666 
L 195.574242 190.190142 
L 195.812728 189.898589 
L 196.050762 195.449954 
L 196.348274 197.037065 
L 196.532194 191.3804 
L 196.824916 189.664014 
L 197.302744 194.419104 
L 197.540668 191.326276 
L 197.783126 191.339971 
L 198.021222 196.324056 
L 198.278285 198.177189 
L 198.614978 192.897826 
L 198.857745 194.591896 
L 199.035959 199.649946 
L 199.627167 192.153434 
L 200.037406 200.5833 
L 200.288499 201.415173 
L 200.523074 195.578712 
L 200.76342 193.929792 
L 201.023906 199.111865 
L 201.252764 197.930142 
L 201.602062 192.619768 
L 201.781853 192.184195 
L 202.258451 197.149981 
L 202.615346 197.282108 
L 202.734673 196.232215 
L 202.977069 195.465307 
L 203.271444 195.314062 
L 203.568616 195.324617 
L 203.986273 196.106927 
L 204.347506 195.850005 
L 204.462725 195.062936 
L 205.059555 192.837385 
L 205.475165 201.660101 
L 205.723048 203.591342 
L 206.192034 198.887283 
L 206.452348 198.973778 
L 206.78839 204.311764 
L 207.086054 201.73799 
L 207.443269 190.165783 
L 207.682274 188.476319 
L 207.922916 188.691657 
L 208.578156 187.050152 
L 208.70586 188.72928 
L 208.935203 188.548345 
L 209.172823 187.153946 
L 209.600943 187.069566 
L 209.830821 189.007554 
L 209.950317 193.593185 
L 210.189594 194.479214 
L 210.663532 189.185982 
L 210.903374 189.103583 
L 211.140394 187.376081 
L 211.378598 187.410428 
L 211.874719 192.619669 
L 212.333313 191.668385 
L 212.393738 186.116824 
L 212.631154 179.604677 
L 212.870117 177.524544 
L 213.168289 180.757331 
L 213.644553 193.403195 
L 213.824739 192.762696 
L 214.60033 186.02702 
L 214.837813 187.41969 
L 215.37507 195.934146 
L 215.554742 197.223405 
L 215.851328 193.203102 
L 216.089667 186.02615 
L 216.389104 182.52375 
L 216.58001 184.28137 
L 217.102957 197.589096 
L 217.400525 200.958774 
L 217.639634 199.602151 
L 217.877773 196.138106 
L 218.294893 188.313163 
L 218.593264 187.544051 
L 218.776973 186.497864 
L 219.266031 185.196573 
L 219.30768 183.787897 
L 219.551399 182.549836 
L 219.799306 184.272782 
L 220.32987 191.072259 
L 220.62314 193.323139 
L 220.8622 194.200735 
L 221.162767 196.462595 
L 221.515496 205.690194 
L 221.99322 207.39793 
L 222.055181 208.475041 
L 222.292144 207.38582 
L 222.771536 200.238492 
L 223.006647 196.888586 
L 223.248476 198.154896 
L 223.554257 109.143372 
L 223.732051 126.282519 
L 224.048213 118.38834 
L 224.26118 83.148147 
L 225.513956 225.851071 
L 226.226817 262.237611 
L 226.707352 272.589231 
L 227.004147 255.439267 
L 227.184451 232.719881 
L 227.422827 218.811409 
L 227.479239 208.536469 
L 227.717393 205.446754 
L 227.956897 197.832562 
L 228.194151 181.637964 
L 228.491933 182.89731 
L 228.730952 177.606308 
L 228.972776 166.091837 
L 229.211707 162.777666 
L 229.507621 163.322531 
L 229.86666 167.885787 
L 229.998628 172.479178 
L 230.173069 171.442988 
L 230.705939 195.927176 
L 230.945101 186.151307 
L 231.242363 192.011247 
L 231.630147 195.501628 
L 231.663719 202.449115 
L 232.136825 184.738913 
L 232.316057 171.748912 
L 232.434509 183.766619 
L 233.208451 157.140167 
L 233.387885 166.573742 
L 233.626662 169.896171 
L 233.864567 161.578741 
L 234.163673 180.069431 
L 234.459871 164.002245 
L 234.877477 179.42582 
L 235.432665 183.807027 
L 235.72695 185.613403 
L 235.906757 175.142991 
L 236.084479 178.481092 
L 236.384217 174.513082 
L 236.621287 155.893963 
L 236.919839 150.650895 
L 237.157824 152.686951 
L 237.395703 146.296245 
L 237.695023 145.81066 
L 237.874902 161.945731 
L 238.290534 153.146121 
L 238.589264 166.834712 
L 238.828455 173.38731 
L 239.065068 166.989388 
L 239.305311 174.199388 
L 239.549082 175.769759 
L 239.840779 170.427621 
L 240.023237 180.05278 
L 240.317181 167.290946 
L 240.614551 163.83624 
L 240.793797 156.726447 
L 241.151839 166.511792 
L 241.389884 162.410552 
L 241.569338 163.506989 
L 241.806632 167.288214 
L 242.044896 174.924396 
L 242.344062 173.06948 
L 242.641746 174.726392 
L 242.939843 171.521904 
L 243.118815 175.341723 
L 243.41606 179.093738 
L 243.539421 170.854692 
L 243.836562 164.178138 
L 244.531837 141.042881 
L 244.760099 145.804856 
L 244.998784 144.564723 
L 245.503869 142.618956 
L 245.741822 146.120889 
L 246.202726 150.617894 
L 246.460816 166.726248 
L 246.754794 150.724452 
L 246.994239 156.980979 
L 247.232263 158.944044 
L 247.469526 143.811703 
L 248.125328 155.556106 
L 248.363697 155.183502 
L 248.543255 153.690461 
L 248.848689 128.313766 
L 249.020847 138.213831 
L 249.218981 138.135777 
L 249.796994 154.356242 
L 249.91722 166.7344 
L 250.176782 170.458928 
L 251.466717 138.348578 
L 251.705896 137.978115 
L 252.004037 142.364689 
L 252.243865 142.309959 
L 252.425758 134.22199 
L 252.66071 138.417456 
L 252.958474 149.057164 
L 253.137428 148.922593 
L 253.437262 143.347459 
L 254.390353 169.833945 
L 254.629948 161.833876 
L 254.866171 148.379081 
L 255.283195 169.267155 
L 255.64118 152.904125 
L 255.702331 159.253013 
L 255.879236 162.740633 
L 256.118256 172.367134 
L 256.357 171.229971 
L 256.596713 158.469325 
L 257.013573 149.827845 
L 257.134596 152.250319 
L 257.61066 126.678025 
L 257.848051 124.233021 
L 258.20509 126.216721 
L 258.445132 117.806145 
L 258.577231 122.14681 
L 258.859825 138.387599 
L 259.158214 134.347972 
L 259.487917 134.562852 
L 259.730147 133.225334 
L 259.876027 124.600621 
L 260.173233 137.982578 
L 260.591149 123.748147 
L 260.949329 103.592537 
L 261.322962 114.661026 
L 261.490067 111.86384 
L 261.602805 115.023155 
L 261.975746 115.156494 
L 262.086563 114.313889 
L 262.328785 119.485774 
L 262.55622 112.988593 
L 262.794199 111.479833 
L 263.151773 118.570103 
L 263.330837 113.109758 
L 263.7477 111.088167 
L 263.866901 114.289203 
L 264.105397 111.647004 
L 264.285849 115.212519 
L 264.643203 101.430051 
L 265.058864 105.016344 
L 265.299527 115.057131 
L 265.714773 119.752731 
L 265.955612 121.076812 
L 266.252174 99.316195 
L 266.48981 97.543261 
L 266.788459 90.839484 
L 267.09442 92.71431 
L 267.324829 100.223016 
L 267.563622 98.27967 
L 267.759853 108.160126 
L 268.099501 108.788193 
L 268.338011 106.340604 
L 268.532791 102.561499 
L 268.756773 104.253093 
L 269.017167 108.00308 
L 269.233644 119.034937 
L 269.530633 125.477835 
L 269.887378 121.583274 
L 270.125731 115.510421 
L 270.245132 103.601445 
L 270.723 91.886755 
L 270.960397 92.592989 
L 271.318588 97.482928 
L 271.561653 88.30172 
L 271.735812 98.440507 
L 271.975033 91.791892 
L 272.454512 102.568104 
L 272.689423 96.410087 
L 272.927961 113.988999 
L 273.17533 113.042718 
L 273.464189 110.99549 
L 273.643316 106.937068 
L 273.969451 102.884889 
L 274.219372 97.788435 
L 274.658263 96.286037 
L 275.037647 88.862341 
L 275.313574 84.175555 
L 275.437851 90.333096 
L 275.791628 88.964039 
L 275.91339 81.200167 
L 276.20821 77.484755 
L 276.393789 83.992385 
L 276.812326 78.916721 
L 277.049078 89.335372 
L 277.590469 82.701108 
L 277.779075 90.353136 
L 277.939041 87.308362 
L 278.12053 90.31062 
L 278.475781 110.471103 
L 278.624491 107.68882 
L 278.955747 113.162289 
L 279.193852 110.610686 
L 279.431173 97.533513 
L 279.612332 102.909216 
L 280.086959 82.67751 
L 280.384925 71.142502 
L 280.623809 75.85489 
L 280.980465 72.261063 
L 281.457142 76.235823 
L 281.594071 80.076776 
L 281.873928 69.552916 
L 282.056615 76.51246 
L 282.113657 68.94698 
L 282.351481 70.186224 
L 283.068365 53.717202 
L 283.306338 55.921477 
L 283.66432 51.126226 
L 283.961917 63.732164 
L 284.088847 73.908292 
L 284.856401 68.929239 
L 285.034625 77.565597 
L 285.276257 70.863857 
L 285.690436 75.921257 
L 286.292195 62.257972 
L 286.526687 66.763553 
L 286.769413 58.663811 
L 287.007247 62.707897 
L 287.262421 51.005393 
L 287.484106 64.251807 
L 287.84259 58.042741 
L 287.900764 58.626659 
L 288.024509 57.11742 
L 288.259375 63.885195 
L 288.497522 50.357473 
L 288.736219 58.389917 
L 289.24077 67.895777 
L 289.455069 61.412632 
L 289.811148 65.056853 
L 290.227704 56.512177 
L 290.347633 57.346109 
L 290.465879 48.497848 
L 290.883363 51.851838 
L 290.948755 41.322963 
L 291.225488 44.716416 
L 291.495528 53.348236 
L 291.679836 45.315474 
L 292.13465 56.320699 
L 292.194976 44.898364 
L 292.432576 53.823345 
L 292.969282 61.605037 
L 293.504983 59.151502 
L 293.924229 68.195881 
L 294.221147 70.16884 
L 294.466574 57.215711 
L 294.698997 57.882863 
L 294.878318 42.526478 
L 295.173661 42.077437 
L 295.4127 33.08056 
L 295.717231 30.241608 
L 295.948103 41.057333 
L 296.19442 42.056844 
L 296.426372 42.514752 
L 296.607631 44.526176 
L 296.961851 46.076328 
L 297.152314 49.657177 
L 297.438974 43.725869 
L 297.620443 52.814956 
L 297.929888 48.801924 
L 298.095365 54.697167 
L 298.335465 49.52821 
L 298.632709 48.621365 
L 298.870236 36.57982 
L 299.108436 35.772044 
L 299.60655 34.78864 
L 300.182774 54.326527 
L 300.361705 49.115964 
L 300.600166 49.776924 
L 300.854175 45.01307 
L 301.079765 48.598845 
L 301.494049 39.905952 
L 301.613328 50.652298 
L 301.911255 42.823989 
L 302.09056 51.904583 
L 302.626399 39.242275 
L 302.80676 27.744214 
L 303.043886 35.248369 
L 303.54503 32.9617 
L 303.826118 28.461403 
L 304.119111 28.267451 
L 304.41641 26.106242 
L 304.595673 22.102912 
L 304.95287 24.586956 
L 305.31073 36.51827 
L 305.548602 35.584759 
L 305.846457 40.472701 
L 306.02906 38.796538 
L 306.385283 39.240141 
L 306.562027 52.670193 
L 306.801509 41.93463 
L 306.996024 43.027679 
L 307.656728 39.455743 
L 307.900046 38.733045 
L 308.067971 35.476122 
L 308.299126 44.129259 
L 308.537897 33.000385 
L 308.839248 35.964432 
L 309.086734 33.881237 
L 309.313549 30.550361 
L 309.455479 26.333828 
L 309.930311 21.521094 
L 310.28921 9.582035 
L 310.527271 15.986965 
L 310.708003 11.828868 
L 311.242711 21.006114 
L 311.611583 22.720399 
L 311.781527 36.493822 
L 312.017687 40.353411 
L 312.375319 34.952513 
L 312.501747 43.218428 
L 312.732977 47.813937 
L 313.090224 50.036673 
L 313.212638 98.93826 
L 313.568273 92.17482 
L 313.805492 90.059769 
L 314.235778 49.827476 
L 314.58015 42.694564 
L 314.701814 32.210221 
L 315.237717 17.395691 
L 315.594079 14.261083 
L 316.016983 20.470344 
L 316.33419 24.132545 
L 316.452034 21.617545 
L 316.695304 40.90609 
L 316.995565 47.420974 
L 317.110027 66.790213 
L 317.763281 83.013766 
L 318.060545 82.686665 
L 318.359189 78.465174 
L 319.49789 30.869292 
L 319.614865 15.198297 
L 319.910478 13.754196 
L 320.14826 7.390445 
L 320.328134 9.32459 
L 320.624731 13.81132 
L 321.340325 45.046069 
L 321.584298 57.464666 
L 321.878065 61.273037 
L 322.117615 70.504764 
L 322.357206 75.191521 
L 322.592008 72.457683 
L 323.070052 54.04736 
L 323.548541 32.046889 
L 323.963903 20.49712 
L 324.083748 10.79305 
L 324.50419 9.298652 
L 324.569671 6.050769 
L 325.098086 24.820021 
L 325.454334 36.188832 
L 325.812051 59.879577 
L 326.051482 61.459891 
L 326.530758 67.457214 
L 326.852363 61.704653 
L 327.242305 57.796781 
L 327.301953 47.526739 
L 328.020226 26.84807 
L 328.256505 27.087103 
L 328.495475 26.579541 
L 328.794246 39.856013 
L 329.171816 44.656508 
L 329.275333 54.026542 
L 329.508337 62.74541 
L 329.745474 60.622572 
L 330.162941 65.10763 
L 330.282264 64.186673 
L 330.580948 60.266968 
L 331.312423 36.313169 
L 331.798258 14.835068 
L 332.248663 11.355261 
L 332.487919 12.996798 
L 333.267721 38.375813 
L 333.502737 49.478805 
L 333.980504 63.207532 
L 334.226045 70.972391 
L 334.581092 68.143893 
L 334.762633 68.561824 
L 335.022935 66.918675 
L 335.469651 58.706817 
L 335.709664 56.972923 
L 336.184852 48.5783 
L 336.423478 50.355738 
L 336.663453 53.175723 
L 336.900926 60.532148 
L 337.317585 65.099326 
L 337.736454 74.36438 
L 337.916816 76.044509 
L 338.161358 71.986485 
L 338.54477 77.011543 
L 338.658091 71.229271 
L 338.944233 68.998056 
L 338.991294 66.468588 
L 339.29103 59.151373 
L 339.410048 59.248111 
L 339.825811 53.634261 
L 340.12328 44.64137 
L 340.421547 41.782298 
L 340.719728 47.680672 
L 340.898441 47.758779 
L 341.13678 48.904727 
L 341.375437 52.617152 
L 341.615004 52.93008 
L 342.091832 56.62412 
L 342.390217 54.70535 
L 342.592547 56.36098 
L 342.865715 54.951332 
L 343.224194 54.603515 
L 343.364331 46.6157 
L 343.819625 35.428488 
L 344.2367 32.767979 
L 344.355474 29.959341 
L 344.654162 30.609023 
L 344.835051 31.852848 
L 345.073439 31.48102 
L 345.381281 33.347029 
L 345.609531 37.090411 
L 345.793405 37.268769 
L 346.084919 45.240919 
L 346.386542 49.283176 
L 346.623265 46.104544 
L 346.800697 49.859226 
L 347.046882 45.497919 
L 347.336523 43.929597 
L 347.812551 43.484932 
L 348.531021 31.69138 
L 348.830156 30.534743 
L 349.025631 33.243229 
L 349.25029 39.481513 
L 349.8421 47.557388 
L 350.139628 48.676708 
L 350.557034 42.675679 
L 350.855204 50.247522 
L 351.272515 47.731389 
L 351.510253 38.626414 
L 351.86755 42.824007 
L 352.048182 31.768146 
L 352.34541 28.766951 
L 352.643325 27.165664 
L 353.001631 40.711393 
L 353.358236 40.083892 
L 353.777296 43.91033 
L 354.192068 43.275231 
L 354.49016 50.352702 
L 354.729169 50.316788 
L 354.967142 51.528323 
L 355.26572 48.103299 
L 355.993376 32.136966 
L 356.230389 31.246971 
L 357.11492 40.213762 
L 357.232346 39.857322 
L 357.414082 44.294112 
L 357.768024 44.901853 
L 358.067321 46.562554 
L 358.200121 51.116775 
L 358.619507 51.12049 
L 358.726755 51.451815 
L 358.964857 48.007448 
L 359.203431 41.86996 
L 359.448191 39.736356 
L 359.739861 38.69286 
L 359.918637 36.546646 
L 360.223373 37.65775 
L 360.464925 41.895688 
L 360.754514 37.825642 
L 360.876193 46.963549 
L 361.129106 48.29389 
L 361.415503 53.349561 
L 362.185637 45.503291 
L 362.424082 41.099361 
L 362.662654 42.546024 
L 362.950189 45.455597 
L 363.20353 35.485263 
L 363.423447 35.918776 
L 363.622003 33.336283 
L 363.916371 38.79084 
L 364.298259 38.841592 
L 364.393153 39.527015 
L 364.630544 39.051675 
L 365.345698 42.97231 
L 365.643635 42.735115 
L 365.941582 49.894599 
L 366.120566 50.364546 
L 366.430486 52.621119 
L 366.661699 49.235328 
L 367.137644 51.029447 
L 367.848153 40.910545 
L 368.328014 37.935058 
L 368.629685 44.324139 
L 368.92628 42.378929 
L 369.34484 43.803221 
L 369.529356 44.624275 
L 369.821758 48.259752 
L 370.240307 45.068711 
L 370.360723 51.070465 
L 370.716213 48.886135 
L 370.778089 46.645075 
L 371.015218 44.763591 
L 371.312315 46.934474 
L 371.555098 42.864596 
L 371.789135 41.739532 
L 372.027824 41.287382 
L 372.325578 43.726304 
L 372.861574 50.895692 
L 373.223258 46.918768 
L 373.397043 42.948502 
L 373.518933 43.773304 
L 373.93445 49.086776 
L 373.993192 42.055252 
L 374.356468 50.48466 
L 374.64956 48.554119 
L 374.71244 43.974754 
L 375.245909 40.447657 
L 375.486534 44.594595 
L 375.841426 44.739492 
L 376.021182 44.410029 
L 376.325316 42.851635 
L 376.501063 32.359399 
L 377.154139 38.396264 
L 377.454122 51.716768 
L 377.691085 50.795686 
L 377.97089 46.100895 
L 378.228234 45.758895 
L 378.467507 45.808388 
L 378.705786 45.045871 
L 379.003346 47.761968 
L 379.182787 43.596887 
L 379.541591 44.248817 
L 379.77876 40.102992 
L 379.957593 40.023442 
L 380.315476 40.030545 
L 380.43452 41.806021 
L 380.67377 42.322718 
L 381.566802 49.424514 
L 381.744983 50.571484 
L 382.170296 43.780019 
L 382.401177 36.744825 
L 382.640935 40.912405 
L 382.938268 40.493043 
L 383.116642 43.381648 
L 383.414778 43.017895 
L 383.653191 41.045364 
L 383.891272 43.292154 
L 384.130172 40.249541 
L 384.36784 43.747516 
L 384.608478 49.009606 
L 385.024513 52.793541 
L 385.141968 52.237242 
L 385.442062 45.418024 
L 385.737779 42.663886 
L 385.982328 38.919161 
L 386.154941 46.344004 
L 386.572481 46.036207 
L 386.633083 46.873562 
L 387.288124 41.012643 
L 387.408358 45.300117 
L 387.704159 40.203787 
L 387.883735 45.968226 
L 388.12156 47.159335 
L 388.360572 50.180936 
L 388.657811 45.429756 
L 388.83674 39.506968 
L 389.078696 36.588615 
L 389.673069 40.629291 
L 389.731908 42.235758 
L 389.85151 42.391312 
L 390.209139 45.093053 
L 390.327434 48.100263 
L 390.866233 39.834476 
L 391.578394 49.52282 
L 392.061414 49.581446 
L 392.294363 46.841511 
L 392.534085 49.328463 
L 393.014287 42.887438 
L 393.427847 45.376917 
L 393.65145 37.439738 
L 393.785792 37.243048 
L 394.507191 32.175966 
L 394.798172 30.561046 
L 395.156539 33.142668 
L 395.275553 37.561343 
L 395.574048 38.034597 
L 395.817442 38.910106 
L 396.289007 45.020527 
L 396.468688 47.158538 
L 397.006497 50.392114 
L 397.480824 54.013497 
L 398.01748 47.797766 
L 398.255879 47.06845 
L 398.493969 48.403458 
L 398.732782 41.681754 
L 399.629341 32.224386 
L 399.867123 23.802794 
L 399.986143 27.772415 
L 400.464749 23.557054 
L 401.240795 28.844953 
L 401.775515 40.788698 
L 401.955105 45.713887 
L 402.253688 46.679956 
L 402.431344 55.54077 
L 402.669635 54.119991 
L 402.908526 53.674739 
L 403.162416 55.214591 
L 403.206332 54.972086 
L 403.397622 51.369508 
L 403.633589 53.939841 
L 403.922551 53.036868 
L 404.641312 42.850475 
L 404.947887 34.849894 
L 405.175669 37.512567 
L 405.385104 36.509871 
L 405.65268 36.069239 
L 405.894417 32.640156 
L 406.132636 36.98511 
L 406.426561 37.876551 
L 406.667313 42.572205 
L 406.963223 45.217061 
L 407.144113 44.122511 
L 407.619993 59.181814 
L 407.860801 60.215775 
L 408.217822 60.781257 
L 408.398363 53.66588 
L 408.636507 57.80464 
L 408.917998 55.857868 
L 409.234688 51.348853 
L 409.470635 51.239899 
L 409.589722 43.283612 
L 409.829013 40.24594 
L 410.126347 42.946008 
L 410.42592 41.479344 
L 410.606015 39.084818 
L 410.844374 38.90625 
L 411.320402 33.136033 
L 411.619643 31.964684 
L 411.857209 29.007367 
L 412.096215 31.694345 
L 412.512689 27.767745 
L 412.58546 30.769261 
L 412.87158 33.401785 
L 413.062343 36.697074 
L 414.11483 61.847752 
L 414.472681 66.190644 
L 414.533583 72.721423 
L 415.309724 64.760691 
L 415.96323 58.215984 
L 416.023198 55.950189 
L 416.321581 53.615499 
L 416.563927 52.831195 
L 416.805148 49.950507 
L 417.002271 51.747921 
L 417.276707 47.729018 
L 417.709181 48.778272 
L 417.756951 47.973765 
L 418.530943 41.663954 
L 418.770431 38.462577 
L 419.126668 39.486018 
L 419.724077 46.282579 
L 419.962564 45.751001 
L 420.281437 47.473273 
L 420.501517 49.69579 
L 420.738015 48.749879 
L 420.975057 52.073164 
L 421.214128 52.567613 
L 421.512226 52.838131 
L 421.693249 51.116697 
L 422.225812 47.502945 
L 422.234324 73.490071 
L 422.468961 39.591931 
L 422.825214 40.65147 
L 423.004989 38.932179 
L 423.252127 38.880756 
L 423.484338 37.256196 
L 423.840978 37.243398 
L 423.960579 40.207321 
L 424.145321 40.164655 
L 424.43705 42.869917 
L 424.915208 53.896407 
L 425.155055 55.824739 
L 425.574673 52.726448 
L 425.629286 60.95682 
L 425.988437 57.761116 
L 426.172027 58.221027 
L 426.40654 57.064023 
L 426.64547 54.478423 
L 427.065099 51.195733 
L 427.445399 41.502269 
L 427.659166 42.436332 
L 427.90644 40.422974 
L 427.958088 35.165352 
L 428.19698 32.05935 
L 428.436409 32.05824 
L 428.619145 27.294082 
L 428.8559 25.447925 
L 429.151322 25.309733 
L 429.39598 23.713548 
L 429.628082 24.727276 
L 430.10485 44.426291 
L 430.344322 49.872561 
L 430.774626 50.486109 
L 431.121983 60.214992 
L 431.357652 38.968538 
L 431.843497 56.098669 
L 432.095657 57.382379 
L 432.328044 54.84892 
L 432.561897 50.170585 
L 432.821237 53.227545 
L 433.156978 54.634968 
L 433.594031 60.273701 
L 433.87843 58.485728 
L 434.121676 58.857036 
L 434.776173 48.317438 
L 435.198864 51.545234 
L 435.318081 48.221428 
L 435.54992 45.254741 
L 436.163582 31.28225 
L 436.324342 30.489224 
L 436.627299 29.682028 
L 436.862153 32.463972 
L 437.100266 36.942514 
L 437.400723 33.399849 
L 437.640155 39.150211 
L 437.947846 34.422948 
L 438.242412 40.180938 
L 438.507695 47.607333 
L 438.778576 48.807356 
L 439.093849 49.478268 
L 439.259491 50.897092 
L 439.609454 44.839376 
L 439.813723 46.987015 
L 440.027646 44.288784 
L 440.326857 44.532929 
L 440.743769 36.616632 
L 440.985603 35.447495 
L 441.360449 35.716997 
L 441.460589 34.360643 
L 441.817555 34.588472 
L 441.996582 32.840154 
L 442.476381 36.853223 
L 442.882088 33.218928 
L 443.119643 36.537331 
L 443.306995 34.781286 
L 443.537398 40.158453 
L 443.835364 32.033199 
L 444.01571 31.557421 
L 444.193965 34.140285 
L 444.670741 38.174464 
L 445.029606 30.751154 
L 445.21114 31.018224 
L 445.566243 32.974169 
L 445.69185 27.932939 
L 446.223006 34.743553 
L 446.46149 33.368382 
L 446.93948 36.464862 
L 447.182432 35.988579 
L 447.4174 39.342783 
L 447.656135 40.549219 
L 447.904892 34.041547 
L 448.138367 34.721828 
L 448.437338 32.954868 
L 448.625267 34.226307 
L 448.91479 34.642055 
L 449.152725 35.922652 
L 449.392189 41.83333 
L 449.808343 38.749972 
L 449.89612 40.919722 
L 450.16705 42.166662 
L 450.46407 46.227555 
L 450.761942 51.923812 
L 450.94209 50.867606 
L 451.180519 55.063927 
L 451.425902 50.610317 
L 451.658653 48.74869 
L 452.077357 39.320691 
L 452.326715 39.116458 
L 452.613173 31.26514 
L 452.864845 28.815122 
L 453.098099 32.636247 
L 453.469682 31.339768 
L 453.632802 37.497018 
L 453.689602 36.726386 
L 453.809319 36.60126 
L 454.134366 39.323945 
L 454.345201 49.229203 
L 454.765606 51.695363 
L 454.847127 55.855748 
L 455.071869 55.001008 
L 455.300727 57.50658 
L 455.539853 53.538488 
L 455.961335 49.244996 
L 456.150748 44.500906 
L 456.387019 45.102611 
L 456.566905 46.655159 
L 457.700957 32.153039 
L 457.762486 33.471996 
L 458.176246 36.711517 
L 458.295734 29.326006 
L 458.535771 31.687361 
L 458.772737 27.136587 
L 459.18988 24.992927 
L 459.309275 20.764822 
L 459.548312 19.281315 
L 459.792529 19.029411 
L 459.846799 15.945561 
L 460.264394 25.365805 
L 460.505547 20.472911 
L 460.801349 20.085127 
L 460.981197 24.543113 
L 461.461133 27.951569 
L 461.759676 37.941966 
L 461.997667 36.80117 
L 462.240011 42.679813 
L 462.535859 42.013678 
L 462.954361 46.674082 
L 463.252644 48.05337 
L 463.439137 50.562348 
L 463.848593 51.367336 
L 463.995751 49.909095 
L 464.210024 50.008092 
L 464.468285 50.629802 
L 464.68398 50.814176 
L 464.923343 50.560405 
L 465.469677 59.406322 
L 465.710789 57.290308 
L 466.009353 55.80834 
L 466.243917 58.162328 
L 466.483619 55.620511 
L 466.663185 50.925114 
L 466.961408 51.675268 
L 467.199234 47.159413 
L 467.597038 44.254428 
L 467.744427 38.835684 
L 467.921045 41.217834 
L 468.454257 28.83343 
L 468.761166 32.181682 
L 468.931187 31.619699 
L 469.179483 38.20354 
L 469.542461 40.9961 
L 470.435389 58.720133 
L 470.683137 60.010297 
L 471.143739 64.749887 
L 471.389817 65.794758 
L 471.682015 60.832638 
L 471.865224 59.854079 
L 472.16172 57.008863 
L 472.456786 56.204565 
L 472.636186 52.724497 
L 473.054076 55.002666 
L 473.400235 50.95042 
L 473.634969 50.062243 
L 474.170263 42.837641 
L 474.354868 46.528472 
L 474.645427 42.962717 
L 474.949827 37.739074 
L 475.125654 38.599646 
L 475.315542 31.21719 
L 475.601585 25.061926 
L 475.840459 24.632768 
L 476.079329 23.741682 
L 476.317061 22.227345 
L 476.555932 15.985565 
L 476.795462 20.531953 
L 477.212458 19.623835 
L 477.361592 13.108004 
L 477.749946 20.131378 
L 477.868828 19.243058 
L 478.107403 24.663759 
L 478.345862 23.729658 
L 478.643526 27.067873 
L 478.775738 25.911227 
L 479.035221 26.923891 
L 479.305237 32.183692 
L 479.600228 30.049319 
L 479.798874 31.18452 
L 480.01865 30.925105 
L 480.259337 24.744803 
L 480.639147 26.94273 
L 480.797255 25.628377 
L 481.032858 32.434065 
L 481.30086 28.672655 
L 481.594462 27.731179 
L 481.817167 25.881735 
L 482.112202 28.357574 
L 482.54011 22.109423 
L 482.796157 25.26461 
L 483.087039 22.009204 
L 483.208624 25.51473 
L 483.799178 17.175812 
L 484.097273 18.651216 
L 484.216787 16.320443 
L 484.514676 18.282858 
L 484.761105 23.710648 
L 485.008903 18.876528 
L 485.230884 16.964633 
L 485.470722 16.861754 
L 485.76882 20.230974 
L 486.007356 24.667399 
L 486.483328 27.321412 
L 486.721699 30.721879 
L 486.961225 30.455492 
L 488.037454 43.264306 
L 488.214516 46.911572 
L 488.455338 43.974832 
L 488.751713 48.177073 
L 488.931602 48.487285 
L 489.288177 47.451678 
L 489.706772 50.519748 
L 490.005091 51.295703 
L 490.242896 53.977623 
L 490.481391 53.443865 
L 490.683853 53.895847 
L 490.899752 54.986834 
L 491.201618 55.414134 
L 491.494573 51.060819 
L 491.741352 53.712265 
L 491.913287 53.781469 
L 492.154206 48.951803 
L 492.390345 51.212609 
L 492.705805 48.016253 
L 492.884784 48.09278 
L 493.122928 44.742344 
L 493.601015 42.428344 
L 493.66099 44.883024 
L 493.95881 38.965668 
L 494.141209 40.419019 
L 494.380638 39.96655 
L 495.092642 35.439447 
L 495.391562 29.670359 
L 495.688062 27.6467 
L 495.866611 24.542308 
L 496.169394 25.340625 
L 496.407336 22.001991 
L 496.644163 27.731527 
L 496.931081 24.182717 
L 497.122047 23.491921 
L 497.32743 26.032014 
L 497.602808 26.460605 
L 497.947291 25.953227 
L 498.621652 32.981285 
L 498.860584 35.559542 
L 499.099563 34.632476 
L 499.337413 31.572395 
L 500.113488 33.486073 
L 500.293182 25.19132 
L 500.609204 24.835911 
L 500.650281 22.536357 
L 500.829084 18.846546 
L 501.130331 25.404159 
L 501.425955 19.953597 
L 501.604394 20.790339 
L 502.085048 26.221248 
L 502.142852 31.993723 
L 502.321119 29.66202 
L 503.27591 41.492188 
L 503.515493 49.039818 
L 503.872555 50.776244 
L 504.051407 48.473815 
L 504.229888 51.464997 
L 504.650095 49.550564 
L 504.707569 54.909417 
L 505.069486 51.84631 
L 505.311707 52.26669 
L 506.020268 41.42566 
L 506.266043 35.819331 
L 506.569872 36.046947 
L 506.746757 29.863948 
L 506.993307 26.921473 
L 507.231373 22.319888 
L 507.475334 24.462385 
L 507.708032 23.365989 
L 508.005894 25.796109 
L 508.190358 20.423269 
L 508.485193 25.67578 
L 508.787092 14.676426 
L 509.01986 25.831138 
L 509.275368 27.655787 
L 509.498512 19.207775 
L 509.921977 22.668261 
L 509.97473 22.130297 
L 510.21317 24.704562 
L 510.631246 21.962265 
L 510.691646 22.13749 
L 510.932276 22.081221 
L 511.266656 22.285237 
L 511.427141 23.941878 
L 511.731757 24.411975 
L 511.94593 28.787492 
L 512.202575 28.379176 
L 512.662927 35.54769 
L 512.902669 27.387952 
L 513.214663 38.993444 
L 513.619081 31.61443 
L 513.68035 38.069102 
L 513.915563 35.673284 
L 514.571539 39.043441 
L 514.703169 34.637517 
L 514.890518 39.39505 
L 515.247869 34.732523 
L 515.468485 40.803822 
L 515.690172 43.631815 
L 515.918439 49.220873 
L 516.15758 52.085502 
L 516.400242 56.612036 
L 516.762513 50.986444 
L 516.922212 57.55401 
L 517.159528 59.674183 
L 517.51651 61.201123 
L 517.702683 65.883713 
L 517.878201 60.581888 
L 518.173168 58.258311 
L 518.480489 57.699977 
L 518.951708 49.655431 
L 519.130101 51.389728 
L 519.388449 50.158625 
L 519.725267 47.80551 
L 519.86004 49.384068 
L 520.141772 54.120404 
L 520.439599 69.603821 
L 520.621899 62.521842 
L 520.859464 68.310041 
L 521.115203 66.343914 
L 521.39507 68.80682 
L 522.117242 54.016043 
L 522.65075 30.145768 
L 522.827932 23.209022 
L 523.266623 20.826692 
L 523.497826 22.632218 
L 523.843711 23.938512 
L 524.857058 48.797265 
L 524.9168 57.843079 
L 525.275559 67.462338 
L 525.403427 74.714876 
L 525.692727 76.934852 
L 526.316015 70.829104 
L 526.596989 56.803279 
L 526.890514 49.77035 
L 527.008656 42.558494 
L 527.314102 35.328802 
L 527.785005 29.68398 
L 527.911085 26.001032 
L 528.28225 23.852834 
L 528.505796 24.225756 
L 528.92995 32.720042 
L 529.533417 51.910133 
L 530.247674 60.430141 
L 530.664454 60.694208 
L 530.905653 59.974101 
L 531.262127 59.870608 
L 531.439707 59.54908 
L 531.621121 59.605156 
L 531.88268 60.400234 
L 532.275662 65.13864 
L 532.708292 69.150632 
L 532.939696 70.309248 
L 533.23581 69.914489 
L 533.470149 70.48227 
L 533.946454 63.975119 
L 534.245028 60.48443 
L 534.720395 48.214237 
L 535.260177 39.074902 
L 535.504579 36.778827 
L 535.801994 36.272596 
L 535.979304 38.694712 
L 537.241818 65.205956 
L 537.57183 69.302394 
L 537.709664 72.476714 
L 537.923297 73.781227 
L 538.187608 72.290091 
L 538.723835 63.167754 
L 538.905185 57.448979 
L 539.439601 50.591528 
L 539.680701 50.128412 
L 540.155601 53.149299 
L 541.177946 65.063283 
L 541.483777 66.086474 
L 541.832702 64.952447 
L 542.137411 60.335522 
L 542.912553 51.209522 
L 543.147255 49.943398 
L 543.385554 50.00505 
L 543.625901 51.466056 
L 544.160754 58.518567 
L 544.699628 67.048592 
L 544.997465 69.243579 
L 545.177199 71.399452 
L 545.716345 73.204024 
L 546.013013 73.007596 
L 546.191021 71.712476 
L 546.562256 64.541422 
L 547.086927 55.428666 
L 547.562717 51.157112 
L 547.800201 49.393915 
L 548.044159 48.809277 
L 548.278888 48.615847 
L 548.57849 48.777082 
L 549.053617 50.883542 
L 549.769221 53.191937 
L 550.306262 53.052312 
L 550.496407 52.518093 
L 550.901628 52.104223 
L 551.101371 52.315206 
L 551.264901 52.072833 
L 551.511124 52.752443 
L 551.737027 53.752028 
L 552.035323 56.113183 
L 552.395465 60.030178 
L 552.516451 63.266023 
L 553.764774 74.390147 
L 554.122134 75.283735 
L 554.326986 76.197065 
L 554.565702 75.682079 
L 554.745389 73.842829 
L 555.281591 72.241175 
L 555.654441 72.310854 
L 555.937535 73.325259 
L 556.23672 72.887375 
L 556.47617 73.718783 
L 556.8397 73.926552 
L 556.966916 73.678541 
L 557.459078 70.714808 
L 557.743454 59.305878 
L 558.43799 41.409398 
L 558.695445 37.005609 
L 559.210968 33.160897 
L 559.509203 33.869744 
L 559.92538 42.315108 
L 560.468553 47.901846 
L 560.652229 53.077438 
L 561.675585 69.700986 
L 561.924237 67.177364 
L 562.153707 63.052598 
L 563.168071 54.571388 
L 563.663332 53.215474 
L 564.063923 54.391092 
L 564.602546 67.413512 
L 564.899658 68.941484 
L 565.099238 69.360043 
L 565.376283 66.762684 
L 566.807687 44.830564 
L 566.871061 40.025702 
L 567.109206 37.766602 
L 567.348511 37.547437 
L 567.602314 39.383631 
L 567.889683 43.314282 
L 568.36386 53.873315 
L 568.905048 62.666336 
L 569.317197 65.77427 
L 569.495961 65.834571 
L 569.556614 64.302023 
L 570.180186 63.532448 
L 570.296782 63.727314 
L 570.596187 63.232992 
L 570.840372 61.393889 
L 571.551927 51.272984 
L 571.854597 51.500589 
L 572.030259 54.842518 
L 572.518413 57.035501 
L 572.804311 55.811087 
L 573.047077 54.122707 
L 573.343047 55.663878 
L 573.705169 59.067511 
L 573.889969 62.84679 
L 574.05876 63.347028 
L 574.970739 54.010884 
L 575.509254 56.622396 
L 575.806683 55.040407 
L 575.982989 52.317127 
L 576.28069 51.774819 
L 576.639918 55.364308 
L 576.819632 60.454375 
L 577.176708 62.147662 
L 577.414148 60.207508 
L 577.715511 51.982912 
L 577.951032 49.305917 
L 578.309387 50.181113 
L 578.55534 52.327015 
L 578.728967 51.940887 
L 579.051607 49.444464 
L 579.234913 47.100058 
L 579.471695 49.014803 
L 579.707111 53.084926 
L 580.001437 55.22977 
L 580.238885 55.778377 
L 580.432509 55.879448 
L 580.954797 54.702205 
L 581.193618 55.014175 
L 581.503861 56.025152 
L 581.67021 54.03182 
L 582.167232 52.31195 
L 582.446877 53.411895 
L 582.685641 53.713818 
L 582.987025 53.186998 
L 583.282015 50.685867 
L 583.519781 47.164041 
L 583.93793 46.248665 
L 584.119675 47.239438 
L 584.35554 51.005588 
L 584.712611 51.823695 
L 585.071395 49.196087 
L 585.399086 50.360177 
L 585.63542 53.706466 
L 585.908154 61.998598 
L 586.150599 62.901881 
L 586.440302 60.680872 
L 586.619088 56.407529 
L 587.158906 50.601904 
L 587.45692 50.170517 
L 587.635596 52.159911 
L 588.119341 51.933425 
L 588.351426 50.93566 
L 588.64969 50.712176 
L 588.888745 52.970682 
L 589.128115 57.333304 
L 589.546397 58.993522 
L 589.849898 56.838455 
L 590.201208 55.174973 
L 590.339608 55.646538 
L 591.098088 53.91314 
L 591.644742 54.415766 
L 591.94111 53.640093 
L 592.179709 55.471229 
L 592.35766 59.508795 
L 592.599352 60.009217 
L 592.95496 58.412424 
L 593.252524 59.861812 
L 593.492874 58.491152 
L 593.612706 56.662463 
L 594.038067 54.785288 
L 594.510253 58.148846 
L 594.863145 58.033668 
L 595.041953 56.699251 
L 595.294118 56.000785 
L 595.520186 54.116441 
L 595.995268 58.213112 
L 596.502813 59.41529 
L 596.502813 59.41529 
" clip-path="url(#pb5930a5a4b)" style="fill: none; stroke: #ff0000; stroke-opacity: 0.5; stroke-width: 1.5; stroke-linecap: square"/>
   </g>
   <g id="patch_3">
    <path d="M 38.502813 277.92 
L 38.502813 0.72 
" style="fill: none; stroke: #000000; stroke-width: 0.8; stroke-linejoin: miter; stroke-linecap: square"/>
   </g>
   <g id="patch_4">
    <path d="M 596.502813 277.92 
L 596.502813 0.72 
" style="fill: none; stroke: #000000; stroke-width: 0.8; stroke-linejoin: miter; stroke-linecap: square"/>
   </g>
   <g id="patch_5">
    <path d="M 38.502813 277.92 
L 596.502813 277.92 
" style="fill: none; stroke: #000000; stroke-width: 0.8; stroke-linejoin: miter; stroke-linecap: square"/>
   </g>
   <g id="patch_6">
    <path d="M 38.502813 0.72 
L 596.502813 0.72 
" style="fill: none; stroke: #000000; stroke-width: 0.8; stroke-linejoin: miter; stroke-linecap: square"/>
   </g>
   <g id="legend_1">
    <g id="patch_7">
     <path d="M 45.502813 38.07625 
L 119.271563 38.07625 
Q 121.271563 38.07625 121.271563 36.07625 
L 121.271563 7.72 
Q 121.271563 5.72 119.271563 5.72 
L 45.502813 5.72 
Q 43.502813 5.72 43.502813 7.72 
L 43.502813 36.07625 
Q 43.502813 38.07625 45.502813 38.07625 
z
" style="fill: #ffffff; opacity: 0.8; stroke: #cccccc; stroke-linejoin: miter"/>
    </g>
    <g id="line2d_35">
     <path d="M 47.502813 13.818438 
L 57.502813 13.818438 
L 67.502813 13.818438 
" style="fill: none; stroke: #0000ff; stroke-opacity: 0.5; stroke-width: 1.5; stroke-linecap: square"/>
    </g>
    <g id="text_19">
     <!-- RNEA -->
     <g transform="translate(75.502813 17.318438) scale(0.1 -0.1)">
      <defs>
       <path id="DejaVuSans-52" d="M 2841 2188 
Q 3044 2119 3236 1894 
Q 3428 1669 3622 1275 
L 4263 0 
L 3584 0 
L 2988 1197 
Q 2756 1666 2539 1819 
Q 2322 1972 1947 1972 
L 1259 1972 
L 1259 0 
L 628 0 
L 628 4666 
L 2053 4666 
Q 2853 4666 3247 4331 
Q 3641 3997 3641 3322 
Q 3641 2881 3436 2590 
Q 3231 2300 2841 2188 
z
M 1259 4147 
L 1259 2491 
L 2053 2491 
Q 2509 2491 2742 2702 
Q 2975 2913 2975 3322 
Q 2975 3731 2742 3939 
Q 2509 4147 2053 4147 
L 1259 4147 
z
" transform="scale(0.015625)"/>
       <path id="DejaVuSans-45" d="M 628 4666 
L 3578 4666 
L 3578 4134 
L 1259 4134 
L 1259 2753 
L 3481 2753 
L 3481 2222 
L 1259 2222 
L 1259 531 
L 3634 531 
L 3634 0 
L 628 0 
L 628 4666 
z
" transform="scale(0.015625)"/>
       <path id="DejaVuSans-41" d="M 2188 4044 
L 1331 1722 
L 3047 1722 
L 2188 4044 
z
M 1831 4666 
L 2547 4666 
L 4325 0 
L 3669 0 
L 3244 1197 
L 1141 1197 
L 716 0 
L 50 0 
L 1831 4666 
z
" transform="scale(0.015625)"/>
      </defs>
      <use xlink:href="#DejaVuSans-52"/>
      <use xlink:href="#DejaVuSans-4e" x="69.482422"/>
      <use xlink:href="#DejaVuSans-45" x="144.287109"/>
      <use xlink:href="#DejaVuSans-41" x="207.470703"/>
     </g>
    </g>
    <g id="line2d_36">
     <path d="M 47.502813 28.496563 
L 57.502813 28.496563 
L 67.502813 28.496563 
" style="fill: none; stroke: #ff0000; stroke-opacity: 0.5; stroke-width: 1.5; stroke-linecap: square"/>
    </g>
    <g id="text_20">
     <!-- BURNEA -->
     <g transform="translate(75.502813 31.996563) scale(0.1 -0.1)">
      <defs>
       <path id="DejaVuSans-42" d="M 1259 2228 
L 1259 519 
L 2272 519 
Q 2781 519 3026 730 
Q 3272 941 3272 1375 
Q 3272 1813 3026 2020 
Q 2781 2228 2272 2228 
L 1259 2228 
z
M 1259 4147 
L 1259 2741 
L 2194 2741 
Q 2656 2741 2882 2914 
Q 3109 3088 3109 3444 
Q 3109 3797 2882 3972 
Q 2656 4147 2194 4147 
L 1259 4147 
z
M 628 4666 
L 2241 4666 
Q 2963 4666 3353 4366 
Q 3744 4066 3744 3513 
Q 3744 3084 3544 2831 
Q 3344 2578 2956 2516 
Q 3422 2416 3680 2098 
Q 3938 1781 3938 1306 
Q 3938 681 3513 340 
Q 3088 0 2303 0 
L 628 0 
L 628 4666 
z
" transform="scale(0.015625)"/>
       <path id="DejaVuSans-55" d="M 556 4666 
L 1191 4666 
L 1191 1831 
Q 1191 1081 1462 751 
Q 1734 422 2344 422 
Q 2950 422 3222 751 
Q 3494 1081 3494 1831 
L 3494 4666 
L 4128 4666 
L 4128 1753 
Q 4128 841 3676 375 
Q 3225 -91 2344 -91 
Q 1459 -91 1007 375 
Q 556 841 556 1753 
L 556 4666 
z
" transform="scale(0.015625)"/>
      </defs>
      <use xlink:href="#DejaVuSans-42"/>
      <use xlink:href="#DejaVuSans-55" x="68.603516"/>
      <use xlink:href="#DejaVuSans-52" x="141.796875"/>
      <use xlink:href="#DejaVuSans-4e" x="211.279297"/>
      <use xlink:href="#DejaVuSans-45" x="286.083984"/>
      <use xlink:href="#DejaVuSans-41" x="349.267578"/>
     </g>
    </g>
   </g>
  </g>
 </g>
 <defs>
  <clipPath id="pb5930a5a4b">
   <rect x="38.502813" y="0.72" width="558" height="277.2"/>
  </clipPath>
 </defs>
</svg>
