<?xml version="1.0" encoding="utf-8" standalone="no"?>
<!DOCTYPE svg PUBLIC "-//W3C//DTD SVG 1.1//EN"
  "http://www.w3.org/Graphics/SVG/1.1/DTD/svg11.dtd">
<svg xmlns:xlink="http://www.w3.org/1999/xlink" width="590.860312pt" height="304.99625pt" viewBox="0 0 590.860312 304.99625" xmlns="http://www.w3.org/2000/svg" version="1.1">
 <metadata>
  <rdf:RDF xmlns:dc="http://purl.org/dc/elements/1.1/" xmlns:cc="http://creativecommons.org/ns#" xmlns:rdf="http://www.w3.org/1999/02/22-rdf-syntax-ns#">
   <cc:Work>
    <dc:type rdf:resource="http://purl.org/dc/dcmitype/StillImage"/>
    <dc:date>2023-09-07T03:30:32.371434</dc:date>
    <dc:format>image/svg+xml</dc:format>
    <dc:creator>
     <cc:Agent>
      <dc:title>Matplotlib v3.7.2, https://matplotlib.org/</dc:title>
     </cc:Agent>
    </dc:creator>
   </cc:Work>
  </rdf:RDF>
 </metadata>
 <defs>
  <style type="text/css">*{stroke-linejoin: round; stroke-linecap: butt}</style>
 </defs>
 <g id="figure_1">
  <g id="patch_1">
   <path d="M -0 304.99625 
L 590.860312 304.99625 
L 590.860312 0 
L -0 0 
L -0 304.99625 
z
" style="fill: none"/>
  </g>
  <g id="axes_1">
   <g id="patch_2">
    <path d="M 32.140313 277.92 
L 590.140313 277.92 
L 590.140313 0.72 
L 32.140313 0.72 
L 32.140313 277.92 
z
" style="fill: none"/>
   </g>
   <g id="matplotlib.axis_1">
    <g id="xtick_1">
     <g id="line2d_1">
      <path d="M 32.140313 277.92 
L 32.140313 0.72 
" clip-path="url(#p12b6ccb9a7)" style="fill: none; stroke-dasharray: 0.8,1.32; stroke-dashoffset: 0; stroke: #000000; stroke-opacity: 0.5; stroke-width: 0.8"/>
     </g>
     <g id="line2d_2">
      <defs>
       <path id="m052895e941" d="M 0 0 
L 0 3.5 
" style="stroke: #000000; stroke-width: 0.8"/>
      </defs>
      <g>
       <use xlink:href="#m052895e941" x="32.140313" y="277.92" style="stroke: #000000; stroke-width: 0.8"/>
      </g>
     </g>
     <g id="text_1">
      <!-- 0.0 -->
      <g transform="translate(24.18875 292.518438) scale(0.1 -0.1)">
       <defs>
        <path id="DejaVuSans-30" d="M 2034 4250 
Q 1547 4250 1301 3770 
Q 1056 3291 1056 2328 
Q 1056 1369 1301 889 
Q 1547 409 2034 409 
Q 2525 409 2770 889 
Q 3016 1369 3016 2328 
Q 3016 3291 2770 3770 
Q 2525 4250 2034 4250 
z
M 2034 4750 
Q 2819 4750 3233 4129 
Q 3647 3509 3647 2328 
Q 3647 1150 3233 529 
Q 2819 -91 2034 -91 
Q 1250 -91 836 529 
Q 422 1150 422 2328 
Q 422 3509 836 4129 
Q 1250 4750 2034 4750 
z
" transform="scale(0.015625)"/>
        <path id="DejaVuSans-2e" d="M 684 794 
L 1344 794 
L 1344 0 
L 684 0 
L 684 794 
z
" transform="scale(0.015625)"/>
       </defs>
       <use xlink:href="#DejaVuSans-30"/>
       <use xlink:href="#DejaVuSans-2e" x="63.623047"/>
       <use xlink:href="#DejaVuSans-30" x="95.410156"/>
      </g>
     </g>
    </g>
    <g id="xtick_2">
     <g id="line2d_3">
      <path d="M 106.291637 277.92 
L 106.291637 0.72 
" clip-path="url(#p12b6ccb9a7)" style="fill: none; stroke-dasharray: 0.8,1.32; stroke-dashoffset: 0; stroke: #000000; stroke-opacity: 0.5; stroke-width: 0.8"/>
     </g>
     <g id="line2d_4">
      <g>
       <use xlink:href="#m052895e941" x="106.291637" y="277.92" style="stroke: #000000; stroke-width: 0.8"/>
      </g>
     </g>
     <g id="text_2">
      <!-- 2.5 -->
      <g transform="translate(98.340075 292.518438) scale(0.1 -0.1)">
       <defs>
        <path id="DejaVuSans-32" d="M 1228 531 
L 3431 531 
L 3431 0 
L 469 0 
L 469 531 
Q 828 903 1448 1529 
Q 2069 2156 2228 2338 
Q 2531 2678 2651 2914 
Q 2772 3150 2772 3378 
Q 2772 3750 2511 3984 
Q 2250 4219 1831 4219 
Q 1534 4219 1204 4116 
Q 875 4013 500 3803 
L 500 4441 
Q 881 4594 1212 4672 
Q 1544 4750 1819 4750 
Q 2544 4750 2975 4387 
Q 3406 4025 3406 3419 
Q 3406 3131 3298 2873 
Q 3191 2616 2906 2266 
Q 2828 2175 2409 1742 
Q 1991 1309 1228 531 
z
" transform="scale(0.015625)"/>
        <path id="DejaVuSans-35" d="M 691 4666 
L 3169 4666 
L 3169 4134 
L 1269 4134 
L 1269 2991 
Q 1406 3038 1543 3061 
Q 1681 3084 1819 3084 
Q 2600 3084 3056 2656 
Q 3513 2228 3513 1497 
Q 3513 744 3044 326 
Q 2575 -91 1722 -91 
Q 1428 -91 1123 -41 
Q 819 9 494 109 
L 494 744 
Q 775 591 1075 516 
Q 1375 441 1709 441 
Q 2250 441 2565 725 
Q 2881 1009 2881 1497 
Q 2881 1984 2565 2268 
Q 2250 2553 1709 2553 
Q 1456 2553 1204 2497 
Q 953 2441 691 2322 
L 691 4666 
z
" transform="scale(0.015625)"/>
       </defs>
       <use xlink:href="#DejaVuSans-32"/>
       <use xlink:href="#DejaVuSans-2e" x="63.623047"/>
       <use xlink:href="#DejaVuSans-35" x="95.410156"/>
      </g>
     </g>
    </g>
    <g id="xtick_3">
     <g id="line2d_5">
      <path d="M 180.442962 277.92 
L 180.442962 0.72 
" clip-path="url(#p12b6ccb9a7)" style="fill: none; stroke-dasharray: 0.8,1.32; stroke-dashoffset: 0; stroke: #000000; stroke-opacity: 0.5; stroke-width: 0.8"/>
     </g>
     <g id="line2d_6">
      <g>
       <use xlink:href="#m052895e941" x="180.442962" y="277.92" style="stroke: #000000; stroke-width: 0.8"/>
      </g>
     </g>
     <g id="text_3">
      <!-- 5.0 -->
      <g transform="translate(172.4914 292.518438) scale(0.1 -0.1)">
       <use xlink:href="#DejaVuSans-35"/>
       <use xlink:href="#DejaVuSans-2e" x="63.623047"/>
       <use xlink:href="#DejaVuSans-30" x="95.410156"/>
      </g>
     </g>
    </g>
    <g id="xtick_4">
     <g id="line2d_7">
      <path d="M 254.594287 277.92 
L 254.594287 0.72 
" clip-path="url(#p12b6ccb9a7)" style="fill: none; stroke-dasharray: 0.8,1.32; stroke-dashoffset: 0; stroke: #000000; stroke-opacity: 0.5; stroke-width: 0.8"/>
     </g>
     <g id="line2d_8">
      <g>
       <use xlink:href="#m052895e941" x="254.594287" y="277.92" style="stroke: #000000; stroke-width: 0.8"/>
      </g>
     </g>
     <g id="text_4">
      <!-- 7.5 -->
      <g transform="translate(246.642725 292.518438) scale(0.1 -0.1)">
       <defs>
        <path id="DejaVuSans-37" d="M 525 4666 
L 3525 4666 
L 3525 4397 
L 1831 0 
L 1172 0 
L 2766 4134 
L 525 4134 
L 525 4666 
z
" transform="scale(0.015625)"/>
       </defs>
       <use xlink:href="#DejaVuSans-37"/>
       <use xlink:href="#DejaVuSans-2e" x="63.623047"/>
       <use xlink:href="#DejaVuSans-35" x="95.410156"/>
      </g>
     </g>
    </g>
    <g id="xtick_5">
     <g id="line2d_9">
      <path d="M 328.745612 277.92 
L 328.745612 0.72 
" clip-path="url(#p12b6ccb9a7)" style="fill: none; stroke-dasharray: 0.8,1.32; stroke-dashoffset: 0; stroke: #000000; stroke-opacity: 0.5; stroke-width: 0.8"/>
     </g>
     <g id="line2d_10">
      <g>
       <use xlink:href="#m052895e941" x="328.745612" y="277.92" style="stroke: #000000; stroke-width: 0.8"/>
      </g>
     </g>
     <g id="text_5">
      <!-- 10.0 -->
      <g transform="translate(317.6128 292.518438) scale(0.1 -0.1)">
       <defs>
        <path id="DejaVuSans-31" d="M 794 531 
L 1825 531 
L 1825 4091 
L 703 3866 
L 703 4441 
L 1819 4666 
L 2450 4666 
L 2450 531 
L 3481 531 
L 3481 0 
L 794 0 
L 794 531 
z
" transform="scale(0.015625)"/>
       </defs>
       <use xlink:href="#DejaVuSans-31"/>
       <use xlink:href="#DejaVuSans-30" x="63.623047"/>
       <use xlink:href="#DejaVuSans-2e" x="127.246094"/>
       <use xlink:href="#DejaVuSans-30" x="159.033203"/>
      </g>
     </g>
    </g>
    <g id="xtick_6">
     <g id="line2d_11">
      <path d="M 402.896937 277.92 
L 402.896937 0.72 
" clip-path="url(#p12b6ccb9a7)" style="fill: none; stroke-dasharray: 0.8,1.32; stroke-dashoffset: 0; stroke: #000000; stroke-opacity: 0.5; stroke-width: 0.8"/>
     </g>
     <g id="line2d_12">
      <g>
       <use xlink:href="#m052895e941" x="402.896937" y="277.92" style="stroke: #000000; stroke-width: 0.8"/>
      </g>
     </g>
     <g id="text_6">
      <!-- 12.5 -->
      <g transform="translate(391.764125 292.518438) scale(0.1 -0.1)">
       <use xlink:href="#DejaVuSans-31"/>
       <use xlink:href="#DejaVuSans-32" x="63.623047"/>
       <use xlink:href="#DejaVuSans-2e" x="127.246094"/>
       <use xlink:href="#DejaVuSans-35" x="159.033203"/>
      </g>
     </g>
    </g>
    <g id="xtick_7">
     <g id="line2d_13">
      <path d="M 477.048262 277.92 
L 477.048262 0.72 
" clip-path="url(#p12b6ccb9a7)" style="fill: none; stroke-dasharray: 0.8,1.32; stroke-dashoffset: 0; stroke: #000000; stroke-opacity: 0.5; stroke-width: 0.8"/>
     </g>
     <g id="line2d_14">
      <g>
       <use xlink:href="#m052895e941" x="477.048262" y="277.92" style="stroke: #000000; stroke-width: 0.8"/>
      </g>
     </g>
     <g id="text_7">
      <!-- 15.0 -->
      <g transform="translate(465.91545 292.518438) scale(0.1 -0.1)">
       <use xlink:href="#DejaVuSans-31"/>
       <use xlink:href="#DejaVuSans-35" x="63.623047"/>
       <use xlink:href="#DejaVuSans-2e" x="127.246094"/>
       <use xlink:href="#DejaVuSans-30" x="159.033203"/>
      </g>
     </g>
    </g>
    <g id="xtick_8">
     <g id="line2d_15">
      <path d="M 551.199587 277.92 
L 551.199587 0.72 
" clip-path="url(#p12b6ccb9a7)" style="fill: none; stroke-dasharray: 0.8,1.32; stroke-dashoffset: 0; stroke: #000000; stroke-opacity: 0.5; stroke-width: 0.8"/>
     </g>
     <g id="line2d_16">
      <g>
       <use xlink:href="#m052895e941" x="551.199587" y="277.92" style="stroke: #000000; stroke-width: 0.8"/>
      </g>
     </g>
     <g id="text_8">
      <!-- 17.5 -->
      <g transform="translate(540.066774 292.518438) scale(0.1 -0.1)">
       <use xlink:href="#DejaVuSans-31"/>
       <use xlink:href="#DejaVuSans-37" x="63.623047"/>
       <use xlink:href="#DejaVuSans-2e" x="127.246094"/>
       <use xlink:href="#DejaVuSans-35" x="159.033203"/>
      </g>
     </g>
    </g>
    <g id="text_9">
     <!-- Zeit [s] -->
     <g transform="translate(293.194219 302.196563) scale(0.1 -0.1)">
      <defs>
       <path id="DejaVuSans-5a" d="M 359 4666 
L 4025 4666 
L 4025 4184 
L 1075 531 
L 4097 531 
L 4097 0 
L 288 0 
L 288 481 
L 3238 4134 
L 359 4134 
L 359 4666 
z
" transform="scale(0.015625)"/>
       <path id="DejaVuSans-65" d="M 3597 1894 
L 3597 1613 
L 953 1613 
Q 991 1019 1311 708 
Q 1631 397 2203 397 
Q 2534 397 2845 478 
Q 3156 559 3463 722 
L 3463 178 
Q 3153 47 2828 -22 
Q 2503 -91 2169 -91 
Q 1331 -91 842 396 
Q 353 884 353 1716 
Q 353 2575 817 3079 
Q 1281 3584 2069 3584 
Q 2775 3584 3186 3129 
Q 3597 2675 3597 1894 
z
M 3022 2063 
Q 3016 2534 2758 2815 
Q 2500 3097 2075 3097 
Q 1594 3097 1305 2825 
Q 1016 2553 972 2059 
L 3022 2063 
z
" transform="scale(0.015625)"/>
       <path id="DejaVuSans-69" d="M 603 3500 
L 1178 3500 
L 1178 0 
L 603 0 
L 603 3500 
z
M 603 4863 
L 1178 4863 
L 1178 4134 
L 603 4134 
L 603 4863 
z
" transform="scale(0.015625)"/>
       <path id="DejaVuSans-74" d="M 1172 4494 
L 1172 3500 
L 2356 3500 
L 2356 3053 
L 1172 3053 
L 1172 1153 
Q 1172 725 1289 603 
Q 1406 481 1766 481 
L 2356 481 
L 2356 0 
L 1766 0 
Q 1100 0 847 248 
Q 594 497 594 1153 
L 594 3053 
L 172 3053 
L 172 3500 
L 594 3500 
L 594 4494 
L 1172 4494 
z
" transform="scale(0.015625)"/>
       <path id="DejaVuSans-20" transform="scale(0.015625)"/>
       <path id="DejaVuSans-5b" d="M 550 4863 
L 1875 4863 
L 1875 4416 
L 1125 4416 
L 1125 -397 
L 1875 -397 
L 1875 -844 
L 550 -844 
L 550 4863 
z
" transform="scale(0.015625)"/>
       <path id="DejaVuSans-73" d="M 2834 3397 
L 2834 2853 
Q 2591 2978 2328 3040 
Q 2066 3103 1784 3103 
Q 1356 3103 1142 2972 
Q 928 2841 928 2578 
Q 928 2378 1081 2264 
Q 1234 2150 1697 2047 
L 1894 2003 
Q 2506 1872 2764 1633 
Q 3022 1394 3022 966 
Q 3022 478 2636 193 
Q 2250 -91 1575 -91 
Q 1294 -91 989 -36 
Q 684 19 347 128 
L 347 722 
Q 666 556 975 473 
Q 1284 391 1588 391 
Q 1994 391 2212 530 
Q 2431 669 2431 922 
Q 2431 1156 2273 1281 
Q 2116 1406 1581 1522 
L 1381 1569 
Q 847 1681 609 1914 
Q 372 2147 372 2553 
Q 372 3047 722 3315 
Q 1072 3584 1716 3584 
Q 2034 3584 2315 3537 
Q 2597 3491 2834 3397 
z
" transform="scale(0.015625)"/>
       <path id="DejaVuSans-5d" d="M 1947 4863 
L 1947 -844 
L 622 -844 
L 622 -397 
L 1369 -397 
L 1369 4416 
L 622 4416 
L 622 4863 
L 1947 4863 
z
" transform="scale(0.015625)"/>
      </defs>
      <use xlink:href="#DejaVuSans-5a"/>
      <use xlink:href="#DejaVuSans-65" x="68.505859"/>
      <use xlink:href="#DejaVuSans-69" x="130.029297"/>
      <use xlink:href="#DejaVuSans-74" x="157.8125"/>
      <use xlink:href="#DejaVuSans-20" x="197.021484"/>
      <use xlink:href="#DejaVuSans-5b" x="228.808594"/>
      <use xlink:href="#DejaVuSans-73" x="267.822266"/>
      <use xlink:href="#DejaVuSans-5d" x="319.921875"/>
     </g>
    </g>
   </g>
   <g id="matplotlib.axis_2">
    <g id="ytick_1">
     <g id="line2d_17">
      <path d="M 32.140313 248.114648 
L 590.140313 248.114648 
" clip-path="url(#p12b6ccb9a7)" style="fill: none; stroke-dasharray: 0.8,1.32; stroke-dashoffset: 0; stroke: #000000; stroke-opacity: 0.5; stroke-width: 0.8"/>
     </g>
     <g id="line2d_18">
      <defs>
       <path id="m5278e41def" d="M 0 0 
L -3.5 0 
" style="stroke: #000000; stroke-width: 0.8"/>
      </defs>
      <g>
       <use xlink:href="#m5278e41def" x="32.140313" y="248.114648" style="stroke: #000000; stroke-width: 0.8"/>
      </g>
     </g>
     <g id="text_10">
      <!-- −2 -->
      <g transform="translate(10.398125 251.913867) scale(0.1 -0.1)">
       <defs>
        <path id="DejaVuSans-2212" d="M 678 2272 
L 4684 2272 
L 4684 1741 
L 678 1741 
L 678 2272 
z
" transform="scale(0.015625)"/>
       </defs>
       <use xlink:href="#DejaVuSans-2212"/>
       <use xlink:href="#DejaVuSans-32" x="83.789062"/>
      </g>
     </g>
    </g>
    <g id="ytick_2">
     <g id="line2d_19">
      <path d="M 32.140313 195.098252 
L 590.140313 195.098252 
" clip-path="url(#p12b6ccb9a7)" style="fill: none; stroke-dasharray: 0.8,1.32; stroke-dashoffset: 0; stroke: #000000; stroke-opacity: 0.5; stroke-width: 0.8"/>
     </g>
     <g id="line2d_20">
      <g>
       <use xlink:href="#m5278e41def" x="32.140313" y="195.098252" style="stroke: #000000; stroke-width: 0.8"/>
      </g>
     </g>
     <g id="text_11">
      <!-- 0 -->
      <g transform="translate(18.777813 198.89747) scale(0.1 -0.1)">
       <use xlink:href="#DejaVuSans-30"/>
      </g>
     </g>
    </g>
    <g id="ytick_3">
     <g id="line2d_21">
      <path d="M 32.140313 142.081855 
L 590.140313 142.081855 
" clip-path="url(#p12b6ccb9a7)" style="fill: none; stroke-dasharray: 0.8,1.32; stroke-dashoffset: 0; stroke: #000000; stroke-opacity: 0.5; stroke-width: 0.8"/>
     </g>
     <g id="line2d_22">
      <g>
       <use xlink:href="#m5278e41def" x="32.140313" y="142.081855" style="stroke: #000000; stroke-width: 0.8"/>
      </g>
     </g>
     <g id="text_12">
      <!-- 2 -->
      <g transform="translate(18.777813 145.881074) scale(0.1 -0.1)">
       <use xlink:href="#DejaVuSans-32"/>
      </g>
     </g>
    </g>
    <g id="ytick_4">
     <g id="line2d_23">
      <path d="M 32.140313 89.065458 
L 590.140313 89.065458 
" clip-path="url(#p12b6ccb9a7)" style="fill: none; stroke-dasharray: 0.8,1.32; stroke-dashoffset: 0; stroke: #000000; stroke-opacity: 0.5; stroke-width: 0.8"/>
     </g>
     <g id="line2d_24">
      <g>
       <use xlink:href="#m5278e41def" x="32.140313" y="89.065458" style="stroke: #000000; stroke-width: 0.8"/>
      </g>
     </g>
     <g id="text_13">
      <!-- 4 -->
      <g transform="translate(18.777813 92.864677) scale(0.1 -0.1)">
       <defs>
        <path id="DejaVuSans-34" d="M 2419 4116 
L 825 1625 
L 2419 1625 
L 2419 4116 
z
M 2253 4666 
L 3047 4666 
L 3047 1625 
L 3713 1625 
L 3713 1100 
L 3047 1100 
L 3047 0 
L 2419 0 
L 2419 1100 
L 313 1100 
L 313 1709 
L 2253 4666 
z
" transform="scale(0.015625)"/>
       </defs>
       <use xlink:href="#DejaVuSans-34"/>
      </g>
     </g>
    </g>
    <g id="ytick_5">
     <g id="line2d_25">
      <path d="M 32.140313 36.049061 
L 590.140313 36.049061 
" clip-path="url(#p12b6ccb9a7)" style="fill: none; stroke-dasharray: 0.8,1.32; stroke-dashoffset: 0; stroke: #000000; stroke-opacity: 0.5; stroke-width: 0.8"/>
     </g>
     <g id="line2d_26">
      <g>
       <use xlink:href="#m5278e41def" x="32.140313" y="36.049061" style="stroke: #000000; stroke-width: 0.8"/>
      </g>
     </g>
     <g id="text_14">
      <!-- 6 -->
      <g transform="translate(18.777813 39.84828) scale(0.1 -0.1)">
       <defs>
        <path id="DejaVuSans-36" d="M 2113 2584 
Q 1688 2584 1439 2293 
Q 1191 2003 1191 1497 
Q 1191 994 1439 701 
Q 1688 409 2113 409 
Q 2538 409 2786 701 
Q 3034 994 3034 1497 
Q 3034 2003 2786 2293 
Q 2538 2584 2113 2584 
z
M 3366 4563 
L 3366 3988 
Q 3128 4100 2886 4159 
Q 2644 4219 2406 4219 
Q 1781 4219 1451 3797 
Q 1122 3375 1075 2522 
Q 1259 2794 1537 2939 
Q 1816 3084 2150 3084 
Q 2853 3084 3261 2657 
Q 3669 2231 3669 1497 
Q 3669 778 3244 343 
Q 2819 -91 2113 -91 
Q 1303 -91 875 529 
Q 447 1150 447 2328 
Q 447 3434 972 4092 
Q 1497 4750 2381 4750 
Q 2619 4750 2861 4703 
Q 3103 4656 3366 4563 
z
" transform="scale(0.015625)"/>
       </defs>
       <use xlink:href="#DejaVuSans-36"/>
      </g>
     </g>
    </g>
    <g id="text_15">
     <!-- Drehmoment [Nm] -->
     <g transform="translate(8.318438 186.465313) rotate(-90) scale(0.1 -0.1)">
      <defs>
       <path id="DejaVuSans-44" d="M 1259 4147 
L 1259 519 
L 2022 519 
Q 2988 519 3436 956 
Q 3884 1394 3884 2338 
Q 3884 3275 3436 3711 
Q 2988 4147 2022 4147 
L 1259 4147 
z
M 628 4666 
L 1925 4666 
Q 3281 4666 3915 4102 
Q 4550 3538 4550 2338 
Q 4550 1131 3912 565 
Q 3275 0 1925 0 
L 628 0 
L 628 4666 
z
" transform="scale(0.015625)"/>
       <path id="DejaVuSans-72" d="M 2631 2963 
Q 2534 3019 2420 3045 
Q 2306 3072 2169 3072 
Q 1681 3072 1420 2755 
Q 1159 2438 1159 1844 
L 1159 0 
L 581 0 
L 581 3500 
L 1159 3500 
L 1159 2956 
Q 1341 3275 1631 3429 
Q 1922 3584 2338 3584 
Q 2397 3584 2469 3576 
Q 2541 3569 2628 3553 
L 2631 2963 
z
" transform="scale(0.015625)"/>
       <path id="DejaVuSans-68" d="M 3513 2113 
L 3513 0 
L 2938 0 
L 2938 2094 
Q 2938 2591 2744 2837 
Q 2550 3084 2163 3084 
Q 1697 3084 1428 2787 
Q 1159 2491 1159 1978 
L 1159 0 
L 581 0 
L 581 4863 
L 1159 4863 
L 1159 2956 
Q 1366 3272 1645 3428 
Q 1925 3584 2291 3584 
Q 2894 3584 3203 3211 
Q 3513 2838 3513 2113 
z
" transform="scale(0.015625)"/>
       <path id="DejaVuSans-6d" d="M 3328 2828 
Q 3544 3216 3844 3400 
Q 4144 3584 4550 3584 
Q 5097 3584 5394 3201 
Q 5691 2819 5691 2113 
L 5691 0 
L 5113 0 
L 5113 2094 
Q 5113 2597 4934 2840 
Q 4756 3084 4391 3084 
Q 3944 3084 3684 2787 
Q 3425 2491 3425 1978 
L 3425 0 
L 2847 0 
L 2847 2094 
Q 2847 2600 2669 2842 
Q 2491 3084 2119 3084 
Q 1678 3084 1418 2786 
Q 1159 2488 1159 1978 
L 1159 0 
L 581 0 
L 581 3500 
L 1159 3500 
L 1159 2956 
Q 1356 3278 1631 3431 
Q 1906 3584 2284 3584 
Q 2666 3584 2933 3390 
Q 3200 3197 3328 2828 
z
" transform="scale(0.015625)"/>
       <path id="DejaVuSans-6f" d="M 1959 3097 
Q 1497 3097 1228 2736 
Q 959 2375 959 1747 
Q 959 1119 1226 758 
Q 1494 397 1959 397 
Q 2419 397 2687 759 
Q 2956 1122 2956 1747 
Q 2956 2369 2687 2733 
Q 2419 3097 1959 3097 
z
M 1959 3584 
Q 2709 3584 3137 3096 
Q 3566 2609 3566 1747 
Q 3566 888 3137 398 
Q 2709 -91 1959 -91 
Q 1206 -91 779 398 
Q 353 888 353 1747 
Q 353 2609 779 3096 
Q 1206 3584 1959 3584 
z
" transform="scale(0.015625)"/>
       <path id="DejaVuSans-6e" d="M 3513 2113 
L 3513 0 
L 2938 0 
L 2938 2094 
Q 2938 2591 2744 2837 
Q 2550 3084 2163 3084 
Q 1697 3084 1428 2787 
Q 1159 2491 1159 1978 
L 1159 0 
L 581 0 
L 581 3500 
L 1159 3500 
L 1159 2956 
Q 1366 3272 1645 3428 
Q 1925 3584 2291 3584 
Q 2894 3584 3203 3211 
Q 3513 2838 3513 2113 
z
" transform="scale(0.015625)"/>
       <path id="DejaVuSans-4e" d="M 628 4666 
L 1478 4666 
L 3547 763 
L 3547 4666 
L 4159 4666 
L 4159 0 
L 3309 0 
L 1241 3903 
L 1241 0 
L 628 0 
L 628 4666 
z
" transform="scale(0.015625)"/>
      </defs>
      <use xlink:href="#DejaVuSans-44"/>
      <use xlink:href="#DejaVuSans-72" x="77.001953"/>
      <use xlink:href="#DejaVuSans-65" x="115.865234"/>
      <use xlink:href="#DejaVuSans-68" x="177.388672"/>
      <use xlink:href="#DejaVuSans-6d" x="240.767578"/>
      <use xlink:href="#DejaVuSans-6f" x="338.179688"/>
      <use xlink:href="#DejaVuSans-6d" x="399.361328"/>
      <use xlink:href="#DejaVuSans-65" x="496.773438"/>
      <use xlink:href="#DejaVuSans-6e" x="558.296875"/>
      <use xlink:href="#DejaVuSans-74" x="621.675781"/>
      <use xlink:href="#DejaVuSans-20" x="660.884766"/>
      <use xlink:href="#DejaVuSans-5b" x="692.671875"/>
      <use xlink:href="#DejaVuSans-4e" x="731.685547"/>
      <use xlink:href="#DejaVuSans-6d" x="806.490234"/>
      <use xlink:href="#DejaVuSans-5d" x="903.902344"/>
     </g>
    </g>
   </g>
   <g id="line2d_27">
    <path d="M 32.140313 195.099339 
L 187.543327 195.100128 
L 202.215656 195.099306 
L 210.448923 195.100484 
L 216.885976 195.100379 
L 217.191757 202.968669 
L 217.369551 197.536533 
L 217.685713 198.147728 
L 217.89868 199.351547 
L 218.135976 197.196351 
L 218.376477 196.581954 
L 218.614117 197.019632 
L 218.911855 196.901159 
L 219.151456 195.537384 
L 219.38853 196.562179 
L 219.626289 194.335848 
L 219.864317 197.094577 
L 220.163041 195.874941 
L 220.344852 192.816529 
L 220.641647 195.217465 
L 220.821951 195.164394 
L 221.060327 196.775496 
L 221.116739 194.10453 
L 221.354893 195.115182 
L 221.594397 195.311521 
L 221.831651 195.224481 
L 222.129433 193.139574 
L 222.368452 194.194102 
L 222.610276 194.731705 
L 222.849207 196.84798 
L 223.145121 195.196001 
L 223.636128 195.265976 
L 223.810569 194.652951 
L 224.046296 194.566501 
L 224.343439 193.764536 
L 224.582601 195.773385 
L 224.879863 196.481762 
L 225.267647 195.143216 
L 225.301219 192.368214 
L 225.953557 196.595546 
L 226.072009 193.819461 
L 227.025385 197.567266 
L 227.264162 194.938333 
L 227.502067 196.696444 
L 227.801173 193.991476 
L 228.097371 197.300913 
L 228.276175 194.671146 
L 228.75348 196.288666 
L 229.070165 195.447328 
L 229.36445 195.58925 
L 229.544257 196.18991 
L 229.721979 195.178478 
L 230.557339 196.704673 
L 231.033203 196.186938 
L 231.332523 195.434513 
L 231.512402 193.93806 
L 231.928034 196.277203 
L 231.98826 194.505985 
L 232.226764 195.11185 
L 232.465955 194.605922 
L 232.702568 196.277759 
L 232.942811 195.60255 
L 233.186582 196.073606 
L 233.478279 195.096866 
L 233.660737 193.402863 
L 233.954681 195.450984 
L 234.252051 196.031475 
L 234.431297 195.456943 
L 234.789339 195.303673 
L 235.027384 196.805347 
L 235.206838 195.377733 
L 235.444132 195.843548 
L 235.682396 195.467536 
L 235.981562 195.498769 
L 236.279246 194.857392 
L 236.577343 195.105135 
L 236.756315 195.669611 
L 237.05356 195.23166 
L 237.176921 195.481341 
L 237.474062 195.220788 
L 237.891067 196.783386 
L 238.169337 195.563711 
L 238.397599 195.2756 
L 238.636284 194.791325 
L 239.141369 195.829145 
L 239.379322 195.504215 
L 239.840226 195.775367 
L 240.098316 194.936964 
L 240.392294 195.688981 
L 240.631739 195.358948 
L 240.869763 193.713541 
L 241.107026 195.178622 
L 241.345576 195.215867 
L 241.762828 196.189777 
L 242.001197 195.128707 
L 242.180755 193.734815 
L 242.486189 196.393818 
L 242.658347 195.55212 
L 242.856481 195.541267 
L 243.168317 195.201532 
L 243.55472 195.811806 
L 244.092059 195.222721 
L 244.33058 193.65713 
L 244.627738 195.973846 
L 244.808656 195.980042 
L 245.104217 197.00243 
L 245.343396 196.967523 
L 245.641537 194.99253 
L 245.881365 195.14246 
L 246.063258 196.673389 
L 246.29821 195.791266 
L 246.595974 193.994854 
L 246.774928 195.537884 
L 247.074762 196.72787 
L 247.370322 195.222585 
L 247.550299 195.369919 
L 247.788534 194.779918 
L 248.027853 195.902991 
L 248.267448 195.26044 
L 248.503671 196.38455 
L 248.920695 194.195701 
L 249.27868 196.872044 
L 249.339831 194.815627 
L 249.516736 196.068848 
L 249.9945 194.779381 
L 250.234213 196.480393 
L 250.651073 196.611722 
L 250.772096 194.729519 
L 251.068182 196.84842 
L 251.24816 195.28268 
L 251.485551 195.134786 
L 252.082632 196.029213 
L 252.214731 197.076941 
L 252.497325 194.903069 
L 252.795714 196.740521 
L 253.125417 195.202847 
L 253.367647 195.392932 
L 253.513527 196.907612 
L 253.931947 195.713366 
L 254.228649 196.697699 
L 254.586829 196.901877 
L 254.960462 195.343914 
L 255.127567 196.118581 
L 255.240305 195.732371 
L 255.613246 195.735244 
L 255.724063 196.148294 
L 255.966285 195.469662 
L 256.19372 195.381777 
L 256.431699 194.099608 
L 256.789273 193.969015 
L 256.968337 196.815328 
L 257.742897 196.195396 
L 257.923349 195.912276 
L 258.280703 196.004266 
L 258.519461 195.950917 
L 258.696364 196.040468 
L 258.937027 194.747037 
L 259.352273 196.025857 
L 259.593112 195.239303 
L 259.829448 197.439266 
L 259.889674 195.195123 
L 260.12731 194.709221 
L 260.425959 195.274581 
L 260.73192 194.833257 
L 261.201122 196.49428 
L 261.737001 195.098131 
L 261.975511 196.395407 
L 262.170291 196.174686 
L 262.394273 194.952191 
L 262.654667 195.784456 
L 262.871144 195.203575 
L 263.168133 193.899367 
L 263.524878 194.313626 
L 263.763231 194.184525 
L 263.882632 195.056033 
L 264.299466 195.856759 
L 264.3605 196.647128 
L 264.597897 195.791296 
L 264.956088 194.96854 
L 265.199153 196.955391 
L 265.373312 195.083795 
L 265.612533 195.573903 
L 265.911494 194.763064 
L 266.326923 196.461381 
L 266.565461 195.13331 
L 266.81283 196.717632 
L 267.101689 195.685202 
L 267.280816 195.888389 
L 267.606951 195.608518 
L 267.856872 196.167189 
L 268.483061 195.906866 
L 268.675147 195.566032 
L 268.951074 195.77739 
L 269.075351 194.424694 
L 269.429128 194.675957 
L 269.55089 196.323423 
L 270.031289 195.269192 
L 270.449826 195.200423 
L 270.686578 194.32599 
L 270.799583 194.379334 
L 271.227969 196.656384 
L 271.416575 195.86524 
L 271.576541 196.058339 
L 271.75803 196.612914 
L 272.113281 194.566392 
L 272.261991 196.035163 
L 272.593247 194.545343 
L 272.831352 194.811839 
L 273.068673 195.694279 
L 273.249832 195.142045 
L 273.545056 196.034525 
L 273.724459 195.728607 
L 274.022425 196.625437 
L 274.261309 196.074445 
L 274.617965 197.010014 
L 274.7976 195.444596 
L 275.094642 196.161445 
L 275.231571 195.609208 
L 275.511428 196.147371 
L 275.694115 195.3871 
L 275.751157 197.024522 
L 276.171231 195.91312 
L 276.465935 196.768649 
L 276.705865 196.917938 
L 277.30182 195.741399 
L 277.726347 196.090354 
L 277.957434 195.603301 
L 278.493901 196.427544 
L 278.672125 196.489867 
L 279.327936 195.964691 
L 279.448279 196.658143 
L 279.686283 195.723136 
L 279.929695 196.826423 
L 280.164187 195.331207 
L 280.406913 196.494534 
L 280.644747 194.656959 
L 280.899921 196.33856 
L 281.121606 194.334218 
L 281.538264 196.152256 
L 281.662009 197.786502 
L 281.896875 196.198387 
L 282.135022 197.34992 
L 282.672546 195.423675 
L 282.87827 195.336262 
L 283.092569 198.078936 
L 283.448648 196.63356 
L 284.103379 196.201278 
L 284.520863 196.22718 
L 284.586255 196.55405 
L 284.862988 196.121602 
L 285.133028 194.735048 
L 285.317336 195.952892 
L 285.77215 195.723391 
L 285.832476 197.71678 
L 286.070076 196.489134 
L 286.368448 196.203494 
L 286.606782 195.59667 
L 286.845055 196.231143 
L 287.142483 196.480124 
L 287.326559 195.951578 
L 287.561729 195.819636 
L 287.858647 193.730413 
L 288.104074 195.756739 
L 288.336497 194.520561 
L 288.515818 196.186602 
L 288.811161 195.026295 
L 289.354731 197.420217 
L 289.585603 195.515749 
L 289.83192 196.088393 
L 290.245131 196.383922 
L 290.599351 196.008347 
L 290.789814 195.999903 
L 291.076474 197.044214 
L 291.257943 195.771961 
L 291.567388 196.622828 
L 291.732865 195.467806 
L 291.972965 196.287804 
L 292.270209 195.211465 
L 292.507736 197.231735 
L 292.745936 194.980914 
L 293.24405 196.296648 
L 293.464715 196.230281 
L 293.820274 194.889979 
L 294.237666 196.162999 
L 294.491675 196.459192 
L 294.717265 196.358018 
L 295.131549 197.417567 
L 295.250828 195.940075 
L 295.548755 198.006222 
L 295.72806 195.593701 
L 296.085114 196.725589 
L 296.263899 195.206457 
L 296.44426 198.260251 
L 296.681386 195.976675 
L 296.978824 195.946556 
L 297.18253 195.537036 
L 297.463618 196.271783 
L 297.756611 195.837758 
L 298.05391 195.912784 
L 298.233173 196.721705 
L 298.889732 195.433684 
L 299.186102 196.864376 
L 299.483957 195.371513 
L 299.66656 197.098019 
L 300.022783 196.998183 
L 300.199527 193.986731 
L 300.439009 195.792757 
L 300.633524 195.9389 
L 300.919244 196.367537 
L 301.537546 196.076629 
L 301.705471 197.008289 
L 301.936626 194.888055 
L 302.175397 196.447362 
L 302.476748 195.751956 
L 302.724234 195.707535 
L 303.092979 195.94779 
L 303.567811 196.346599 
L 303.639314 195.860527 
L 303.92671 196.440131 
L 304.164771 195.527368 
L 304.345503 196.306209 
L 304.701274 195.575889 
L 304.880211 196.668777 
L 305.249083 197.30448 
L 305.419027 196.038487 
L 305.655187 195.381275 
L 306.012819 197.415602 
L 306.139247 196.237311 
L 306.727724 195.513116 
L 306.850138 184.619776 
L 307.205773 185.053712 
L 307.442992 185.634626 
L 307.873278 192.215125 
L 308.21765 192.284669 
L 308.339314 193.954753 
L 308.875217 195.10661 
L 309.320091 195.487722 
L 309.97169 195.005981 
L 310.089534 196.833436 
L 310.332804 195.373879 
L 310.633065 196.401941 
L 310.747527 195.134065 
L 311.048395 195.542237 
L 311.400781 194.911477 
L 311.817602 195.002626 
L 311.996689 194.694744 
L 312.356427 195.806733 
L 312.596586 195.752853 
L 313.13539 194.410753 
L 313.252365 194.987583 
L 313.547978 194.073101 
L 313.78576 194.923991 
L 314.262231 195.349907 
L 314.502307 195.06934 
L 314.739507 196.036374 
L 314.977825 195.344678 
L 315.221798 195.193544 
L 315.515565 196.240746 
L 315.994706 195.125047 
L 316.229508 194.975431 
L 316.477979 195.122266 
L 316.947991 195.041371 
L 317.186041 194.324983 
L 317.601403 194.394464 
L 317.721248 194.793418 
L 318.14169 194.635025 
L 318.207171 195.634242 
L 318.439657 195.037403 
L 319.091834 195.122677 
L 319.270827 195.319192 
L 319.449551 195.003449 
L 319.688982 195.84284 
L 319.932083 195.663975 
L 320.168258 195.175046 
L 320.489863 195.506445 
L 320.879805 194.917095 
L 320.939453 195.227374 
L 321.178135 195.019645 
L 321.416486 195.082799 
L 321.657726 194.91361 
L 321.894005 194.901265 
L 322.132975 195.838746 
L 322.431746 194.581699 
L 322.809316 195.110811 
L 322.912833 194.703027 
L 323.145837 194.339758 
L 323.382974 195.58276 
L 323.919764 195.070639 
L 324.218448 195.081122 
L 324.398794 194.636123 
L 324.694573 194.987261 
L 324.949923 194.503444 
L 325.435758 195.316162 
L 325.656319 194.880487 
L 326.125419 194.99266 
L 326.362898 194.755355 
L 326.661765 195.078673 
L 326.905221 194.796177 
L 327.140237 194.699637 
L 327.378917 195.223926 
L 327.618004 195.020667 
L 327.863545 194.615511 
L 328.218592 195.474505 
L 328.660435 194.985118 
L 328.868968 195.015123 
L 329.347164 194.314391 
L 329.609418 194.53662 
L 329.822352 195.234193 
L 330.300953 195.279153 
L 330.538426 194.8509 
L 331.074928 195.326966 
L 331.373954 194.889402 
L 331.554316 195.069364 
L 331.798858 195.82237 
L 332.18227 194.632048 
L 332.295591 195.242813 
L 332.628794 194.957102 
L 332.92853 195.829284 
L 333.047548 194.932751 
L 333.76078 195.066406 
L 334.059047 195.352895 
L 334.357228 194.463523 
L 334.535941 194.926322 
L 334.77428 195.108554 
L 335.012937 194.968878 
L 335.252504 195.290852 
L 335.554682 194.706074 
L 335.729332 194.68805 
L 336.027717 195.306048 
L 336.230047 195.132836 
L 336.503215 195.085066 
L 336.861694 194.433579 
L 337.001831 195.067596 
L 337.8742 195.012768 
L 337.992974 195.306246 
L 338.472551 194.822604 
L 338.710939 194.998871 
L 339.247031 194.7042 
L 339.430905 195.496753 
L 339.722419 194.92899 
L 340.024042 194.935514 
L 340.260765 195.595778 
L 340.438197 194.721182 
L 340.684382 195.124297 
L 340.974023 195.28134 
L 341.689226 195.051822 
L 342.108412 195.154745 
L 342.168521 195.031959 
L 342.663131 195.081011 
L 342.88779 194.699664 
L 343.240908 195.090214 
L 343.4796 195.073507 
L 343.777128 194.918464 
L 344.194534 196.039262 
L 344.492704 194.857175 
L 344.910015 195.093194 
L 345.147753 195.861927 
L 345.50505 194.302311 
L 345.685682 195.180711 
L 345.98291 194.832022 
L 346.280825 195.159653 
L 346.400699 194.975543 
L 346.639131 194.382995 
L 346.995736 195.215116 
L 347.414796 195.124897 
L 347.829568 195.716214 
L 348.12766 194.671715 
L 348.366669 195.078181 
L 348.604642 194.99638 
L 348.90322 195.1157 
L 349.200866 195.068049 
L 349.328861 194.440743 
L 349.630876 195.065129 
L 349.867889 195.076345 
L 350.333064 194.388497 
L 350.75242 194.459991 
L 350.869846 195.258156 
L 351.051582 195.022732 
L 351.405524 195.122688 
L 351.704821 194.995303 
L 351.837621 194.79597 
L 352.257007 195.069589 
L 352.364255 194.728581 
L 352.602357 194.693555 
L 352.840931 195.162783 
L 353.556137 195.133303 
L 353.860873 194.883356 
L 354.102425 194.525404 
L 354.392014 195.724546 
L 354.513693 194.625477 
L 354.766606 194.996507 
L 355.053003 194.681627 
L 355.299174 195.098687 
L 355.823137 194.931061 
L 356.061582 195.352243 
L 356.300154 195.114393 
L 356.587689 194.657057 
L 356.84103 195.838269 
L 357.060947 195.019469 
L 357.259503 195.164118 
L 357.553871 194.427206 
L 358.030653 195.044837 
L 358.268044 195.142679 
L 358.56667 194.960521 
L 358.745127 195.081652 
L 358.983198 194.963434 
L 359.281135 195.933975 
L 359.579082 195.118189 
L 359.758066 195.18957 
L 360.067986 194.447315 
L 360.299199 195.067882 
L 361.250702 195.069407 
L 361.485653 194.729662 
L 361.802473 194.693825 
L 361.965514 195.220843 
L 362.267185 194.511786 
L 362.56378 195.071411 
L 362.751305 194.974986 
L 362.98234 195.026632 
L 363.166856 195.255107 
L 363.459258 195.225868 
L 363.877807 195.998056 
L 363.998223 194.831252 
L 364.415589 195.15067 
L 364.652718 195.012709 
L 364.949815 194.472499 
L 365.192598 194.961282 
L 365.963078 194.997481 
L 366.499074 194.580245 
L 367.034543 195.164083 
L 367.57195 194.406038 
L 367.630692 196.404513 
L 367.993968 195.176569 
L 368.34994 194.991059 
L 368.718009 195.006398 
L 368.883409 195.136108 
L 369.124034 194.726938 
L 369.478926 195.125257 
L 369.658682 195.07638 
L 369.962816 194.758699 
L 370.138563 195.959977 
L 370.373408 195.172208 
L 370.912759 195.137138 
L 371.091622 194.312393 
L 371.328585 194.406953 
L 371.60839 195.195461 
L 372.343286 195.07634 
L 372.640846 194.410706 
L 372.820287 195.086719 
L 373.179091 194.938305 
L 373.41626 195.471036 
L 373.595093 195.251088 
L 373.952976 195.168613 
L 374.07202 194.831167 
L 374.609038 194.803217 
L 374.846922 195.102546 
L 375.204302 195.118646 
L 375.382483 195.014445 
L 375.807796 195.079515 
L 376.038677 195.349997 
L 376.278435 194.724996 
L 376.575768 195.2132 
L 376.754142 194.959547 
L 377.052278 195.116694 
L 377.290691 195.071685 
L 377.528772 194.558716 
L 377.767672 195.132342 
L 378.00534 195.235257 
L 378.779468 194.421471 
L 379.079562 195.042388 
L 379.375279 195.125088 
L 379.619828 195.567697 
L 379.792441 194.528848 
L 380.209981 195.087862 
L 380.270583 195.03095 
L 380.509453 194.983687 
L 380.925624 195.078325 
L 381.045858 194.296245 
L 381.341659 195.59067 
L 381.521235 195.014401 
L 381.75906 195.036361 
L 381.998072 194.464306 
L 382.47424 195.087479 
L 382.716196 195.177083 
L 383.010909 195.02734 
L 383.846639 195.068476 
L 383.964934 194.753367 
L 384.204218 195.172696 
L 384.503733 195.995443 
L 385.215894 195.096182 
L 385.698914 195.013981 
L 385.931863 195.422188 
L 386.171585 194.545439 
L 386.651787 195.137616 
L 387.065347 194.458604 
L 387.28895 195.545116 
L 387.423292 195.166293 
L 388.435672 195.18102 
L 388.794039 194.914874 
L 388.913053 194.543081 
L 389.211548 194.859995 
L 389.454942 194.945864 
L 389.688257 194.745154 
L 390.106188 195.005895 
L 390.643997 195.197768 
L 390.88036 195.134299 
L 391.118324 194.618125 
L 391.476629 195.082522 
L 391.65498 194.884207 
L 391.893379 195.011606 
L 392.131469 194.468743 
L 392.370282 195.078291 
L 392.669684 195.117632 
L 393.266841 194.897094 
L 393.504623 195.766796 
L 393.623643 194.626151 
L 394.102249 195.228295 
L 394.347746 194.777165 
L 394.637806 194.628564 
L 394.878295 195.166069 
L 395.114141 195.235673 
L 395.413015 194.992549 
L 395.592605 195.143994 
L 395.891188 195.928128 
L 396.068844 194.699085 
L 396.307135 195.123613 
L 396.843832 194.888283 
L 397.035122 195.691656 
L 397.271089 195.102337 
L 397.560051 194.963477 
L 398.040006 195.208422 
L 398.278812 194.844072 
L 398.585387 195.818416 
L 398.813169 195.022832 
L 399.29018 195.276698 
L 399.531917 195.915163 
L 399.770136 195.146843 
L 400.064061 195.169134 
L 400.304813 194.906646 
L 400.600723 195.018629 
L 400.781613 196.079652 
L 401.018391 195.937042 
L 401.257493 194.963315 
L 401.498301 195.040167 
L 401.855322 194.78168 
L 402.035863 196.050891 
L 402.274007 195.080886 
L 402.555498 195.05525 
L 402.872188 195.200965 
L 403.108135 194.628228 
L 403.227222 195.802361 
L 403.466513 195.890858 
L 403.763847 194.967783 
L 404.06342 195.008602 
L 404.243515 195.269103 
L 404.481874 194.829258 
L 404.780652 195.055065 
L 404.957902 194.980973 
L 405.257143 195.003266 
L 405.494709 195.296978 
L 405.733715 194.391421 
L 406.150189 195.068638 
L 406.22296 194.961908 
L 406.50908 195.096557 
L 406.699843 195.36896 
L 407.094257 194.599921 
L 407.222319 195.302481 
L 407.45226 195.07717 
L 407.75233 194.972744 
L 408.110181 195.000991 
L 408.171083 194.457188 
L 408.467786 195.217445 
L 409.660698 195.162736 
L 409.959081 195.235176 
L 410.201427 195.050421 
L 410.442648 195.425325 
L 410.639771 194.821168 
L 410.914207 195.424831 
L 411.691964 194.943848 
L 412.407931 195.302314 
L 412.764168 195.119423 
L 412.942779 194.633476 
L 413.125083 194.651849 
L 413.361577 194.541137 
L 413.600064 195.030516 
L 414.139017 195.006875 
L 414.375515 195.559586 
L 414.612557 195.036771 
L 414.851628 195.1089 
L 415.149726 195.033823 
L 415.330749 195.172784 
L 415.863312 195.31695 
L 415.871824 189.475454 
L 416.106461 195.151718 
L 416.462714 194.502247 
L 416.642489 194.729346 
L 416.889627 194.749244 
L 417.121838 195.143795 
L 417.478478 195.157993 
L 417.598079 194.683943 
L 417.782821 195.138348 
L 418.07455 195.263162 
L 418.313208 195.0691 
L 418.792555 195.251038 
L 419.212173 195.997581 
L 419.266786 194.448146 
L 419.625937 195.039148 
L 419.809527 194.988029 
L 420.28297 195.088574 
L 420.702599 195.054798 
L 420.827577 194.760577 
L 421.082899 195.133538 
L 421.296666 194.505881 
L 421.54394 194.581511 
L 421.595588 195.277003 
L 421.83448 195.567195 
L 422.073909 195.068392 
L 422.256645 195.266177 
L 422.4934 195.034126 
L 422.788822 195.06025 
L 423.265582 196.077681 
L 423.74235 194.325952 
L 423.981822 194.263794 
L 424.541323 195.088802 
L 424.759483 195.121723 
L 424.995152 200.120928 
L 425.480997 197.627354 
L 425.965544 196.747344 
L 426.199397 197.032368 
L 426.458737 195.971753 
L 426.794478 195.622025 
L 427.101052 195.002591 
L 427.231531 194.995598 
L 427.51593 195.195349 
L 427.759176 194.480991 
L 428.052108 194.719848 
L 428.172449 194.417708 
L 428.413673 194.810633 
L 428.836364 193.964597 
L 428.955581 194.566252 
L 429.430516 194.637887 
L 429.801082 194.970548 
L 429.961842 194.518736 
L 430.264799 194.937921 
L 430.499653 194.738357 
L 430.737766 194.323394 
L 431.038223 195.213735 
L 431.277655 194.007508 
L 431.585346 195.055628 
L 431.728635 195.020139 
L 431.879912 195.396667 
L 432.145195 194.660541 
L 432.416076 194.726058 
L 432.731349 194.413896 
L 432.896991 193.592851 
L 433.246954 194.501887 
L 433.451223 194.092811 
L 433.665146 194.910112 
L 434.142742 194.25238 
L 434.381269 194.574978 
L 434.623103 194.141799 
L 434.997949 193.955133 
L 435.098089 194.286298 
L 435.455055 194.192444 
L 435.634082 194.478375 
L 435.899155 194.046882 
L 436.113881 193.425962 
L 436.519588 194.731341 
L 436.757143 194.355369 
L 436.944495 194.479185 
L 437.174898 193.114853 
L 437.472864 194.379297 
L 437.65321 194.519176 
L 437.831465 194.296584 
L 438.308241 193.460463 
L 438.430107 194.089338 
L 438.667106 194.644562 
L 439.203743 193.729712 
L 439.32935 194.746921 
L 439.860506 193.654468 
L 440.09899 194.079337 
L 440.57698 193.310904 
L 440.819932 193.950483 
L 441.293635 193.304416 
L 441.542392 194.076316 
L 441.775867 193.697492 
L 442.074838 193.836183 
L 442.262767 193.777324 
L 442.55229 193.976687 
L 442.790225 193.996842 
L 443.029689 193.131652 
L 443.445843 193.777612 
L 443.53362 193.682888 
L 443.80455 193.794831 
L 444.10157 194.046729 
L 444.399442 193.504161 
L 444.57959 193.954504 
L 444.818019 193.14736 
L 445.063402 193.493667 
L 445.296153 193.485431 
L 445.476694 193.709912 
L 445.714857 193.654543 
L 445.964215 192.909995 
L 446.250673 193.616574 
L 446.502345 193.625009 
L 446.735599 192.994948 
L 447.107182 193.395851 
L 447.270302 192.858474 
L 447.446819 193.670779 
L 447.771866 193.82067 
L 447.982701 192.996186 
L 448.484627 193.289283 
L 448.709369 193.660754 
L 448.938227 192.669543 
L 449.177353 193.285038 
L 449.598835 193.45567 
L 449.788248 193.674575 
L 450.024519 193.34282 
L 450.204405 192.533248 
L 450.682193 192.860881 
L 451.100145 192.69216 
L 451.338457 193.198673 
L 451.399986 193.040649 
L 451.813746 192.484565 
L 451.933234 193.678643 
L 452.173271 192.858681 
L 452.410237 192.937651 
L 452.82738 192.760347 
L 452.946775 192.947041 
L 453.430029 192.72824 
L 453.484299 193.063777 
L 453.901894 192.055235 
L 454.143047 192.968323 
L 454.438849 193.303633 
L 454.618697 192.791681 
L 454.938383 192.82214 
L 455.098633 193.185397 
L 455.397176 191.998038 
L 455.635167 192.76756 
L 455.877511 192.450755 
L 456.173359 192.987992 
L 457.486093 192.169934 
L 457.847524 192.894337 
L 458.105785 192.534019 
L 458.32148 192.580777 
L 458.560843 192.908051 
L 458.808204 192.274392 
L 459.107177 192.019945 
L 459.646853 192.971442 
L 459.881417 192.344531 
L 460.300685 192.672763 
L 460.598908 191.96052 
L 460.836734 192.332809 
L 461.234538 192.220806 
L 461.381927 192.38102 
L 461.558545 191.324552 
L 462.091757 192.579461 
L 462.398666 191.925116 
L 462.568687 192.647292 
L 462.816983 192.12241 
L 463.179961 192.35129 
L 463.28692 192.609271 
L 463.530871 192.653853 
L 463.765835 191.855609 
L 464.072889 191.757092 
L 464.544218 192.183004 
L 464.781239 191.774979 
L 465.027317 191.654902 
L 465.319515 192.252639 
L 465.502724 191.830376 
L 465.79922 192.132379 
L 466.094286 191.961157 
L 466.273686 192.155097 
L 466.691576 191.59013 
L 467.272469 191.792477 
L 467.505697 192.050536 
L 467.807763 192.148937 
L 467.992368 191.407992 
L 468.282927 191.360055 
L 468.587327 191.577408 
L 468.763154 190.92406 
L 468.953042 191.609453 
L 469.239085 191.767194 
L 469.477959 191.096032 
L 469.716829 190.98849 
L 469.954561 191.079807 
L 470.193432 191.708182 
L 470.432962 190.980111 
L 470.849958 191.134411 
L 470.999092 192.015007 
L 471.387446 191.212942 
L 471.506328 191.459653 
L 471.744903 191.072508 
L 471.983362 191.343771 
L 472.281026 191.069253 
L 472.413238 191.398434 
L 472.672721 191.438549 
L 472.942737 190.83913 
L 473.237728 191.045824 
L 473.65615 190.842854 
L 473.896837 192.091768 
L 474.276647 191.436773 
L 474.434755 191.69883 
L 474.670358 190.610094 
L 474.93836 190.978983 
L 475.454667 191.405205 
L 475.749702 190.831027 
L 476.17761 191.518767 
L 476.433657 190.823524 
L 476.724539 191.166329 
L 476.846124 190.41135 
L 477.436678 191.587767 
L 477.734773 190.911315 
L 477.854287 191.217765 
L 478.152176 190.857816 
L 478.398605 190.057317 
L 478.868384 191.192944 
L 479.108222 191.262121 
L 479.40632 191.083342 
L 479.644856 190.592492 
L 480.120828 190.79958 
L 480.359199 190.399653 
L 480.598725 190.825719 
L 480.844014 190.834289 
L 481.077859 190.703784 
L 481.314748 190.786084 
L 481.852016 189.996959 
L 482.092838 190.652177 
L 482.389213 190.113304 
L 482.925677 191.014735 
L 483.177819 190.710278 
L 483.344272 190.745789 
L 484.118891 190.575609 
L 484.321353 190.712992 
L 484.537252 190.313468 
L 484.839118 190.153793 
L 485.132073 190.796678 
L 485.550787 190.014823 
L 485.791706 190.798974 
L 486.027845 190.279008 
L 486.343305 190.560311 
L 486.522284 190.491414 
L 487.238515 190.770335 
L 487.29849 190.291848 
L 487.59631 190.916868 
L 487.778709 190.396994 
L 488.018138 190.162329 
L 488.549642 190.1715 
L 488.730142 189.821247 
L 489.504111 190.112203 
L 489.806894 189.673621 
L 490.044836 190.286652 
L 490.281663 189.454893 
L 490.759547 190.03698 
L 490.96493 189.755901 
L 491.584791 189.911924 
L 491.782384 190.045661 
L 492.022035 189.565818 
L 492.259152 189.540565 
L 492.498084 189.642076 
L 492.737063 189.499861 
L 492.974913 189.996333 
L 493.750988 189.037964 
L 493.930682 190.126367 
L 494.246704 189.646135 
L 494.287781 190.000487 
L 494.466584 190.272925 
L 494.767831 189.26317 
L 495.241894 189.966579 
L 495.722548 189.29297 
L 495.780352 188.89879 
L 495.958619 189.800602 
L 496.91341 189.35209 
L 497.152993 188.961357 
L 497.510055 189.185871 
L 497.688907 189.731545 
L 497.867388 189.636568 
L 498.287595 189.650213 
L 498.345069 188.91199 
L 498.706986 189.030675 
L 498.949207 188.95361 
L 499.41975 189.249831 
L 499.657768 189.204669 
L 499.903543 189.373235 
L 500.207372 188.913702 
L 500.384257 189.362356 
L 500.630807 189.22426 
L 500.868873 189.63752 
L 501.112834 189.072103 
L 501.643394 188.770004 
L 501.827858 189.128849 
L 502.122693 188.467487 
L 502.424592 190.104793 
L 502.65736 188.573 
L 502.912868 188.140014 
L 503.136012 189.343143 
L 503.559477 189.123237 
L 503.61223 188.953768 
L 503.85067 188.947477 
L 504.329146 188.990067 
L 504.569776 188.776381 
L 505.064641 188.722481 
L 505.369257 188.876906 
L 505.58343 188.556296 
L 505.840075 188.96199 
L 506.300427 188.187716 
L 506.540169 189.548117 
L 506.852163 188.231502 
L 507.256581 189.264408 
L 507.31785 188.661917 
L 507.553063 189.112965 
L 508.209039 188.511822 
L 508.340669 189.138506 
L 508.528018 188.300129 
L 508.885369 189.490981 
L 509.105985 188.798005 
L 509.555939 188.282945 
L 509.79508 188.359963 
L 510.037742 188.033273 
L 510.400013 189.10803 
L 510.559712 188.435121 
L 511.15401 188.613575 
L 511.340183 187.971133 
L 511.515701 188.644354 
L 511.810668 188.377528 
L 512.290623 188.445792 
L 512.589208 188.737573 
L 512.767601 188.300885 
L 513.025949 188.094243 
L 513.49754 187.920596 
L 513.779272 186.800074 
L 514.077099 184.925099 
L 514.259399 186.588349 
L 514.496964 185.850086 
L 514.752703 186.23851 
L 515.03257 185.994594 
L 515.275201 186.638471 
L 515.51118 186.876686 
L 515.754742 186.841888 
L 516.001238 187.629431 
L 516.465432 188.378161 
L 516.904123 188.368705 
L 517.135326 188.163833 
L 517.481211 188.334802 
L 517.768534 188.148124 
L 518.018279 188.150855 
L 518.5543 188.052595 
L 521.422505 188.097233 
L 522.804201 188.101376 
L 522.922439 188.289493 
L 523.170917 188.098822 
L 524.301954 188.092891 
L 525.638618 188.092391 
L 526.87331 188.21852 
L 527.107649 187.984693 
L 527.583954 188.097295 
L 528.088503 188.06701 
L 536.784755 188.096606 
L 548.382889 188.094452 
L 560.746706 188.095446 
L 590.140313 188.095107 
L 590.140313 188.095107 
" clip-path="url(#p12b6ccb9a7)" style="fill: none; stroke: #0000ff; stroke-opacity: 0.5; stroke-width: 1.5; stroke-linecap: square"/>
   </g>
   <g id="line2d_28">
    <path d="M 32.140313 174.516717 
L 32.503304 173.990711 
L 32.5745 175.930033 
L 32.748517 173.605658 
L 33.345096 174.106404 
L 33.523383 173.252119 
L 33.940291 174.704681 
L 34.239045 172.749142 
L 34.656384 173.672794 
L 35.196698 173.726979 
L 35.670907 173.680259 
L 35.729003 174.553479 
L 35.967083 175.398303 
L 36.266372 173.931504 
L 36.565555 175.056933 
L 36.801595 174.64121 
L 37.115218 173.644538 
L 37.219399 174.513818 
L 37.457383 173.298953 
L 37.697946 175.486618 
L 37.938435 173.695709 
L 38.236853 174.038814 
L 38.471547 172.356901 
L 38.70973 174.218113 
L 39.008549 173.28612 
L 39.494512 172.484123 
L 39.966387 173.434554 
L 40.204549 172.188148 
L 40.443272 172.610014 
L 40.862256 171.072103 
L 41.043007 173.369246 
L 41.158873 171.801524 
L 41.403681 173.3998 
L 41.640993 172.894402 
L 42.174413 173.811813 
L 42.77819 173.205351 
L 44.079313 173.324165 
L 45.384296 173.919118 
L 46.688449 175.491659 
L 47.994112 174.808332 
L 49.298621 172.81606 
L 50.722905 172.996408 
L 52.14611 172.633501 
L 53.591898 173.979904 
L 53.829341 173.51441 
L 54.067819 173.990606 
L 54.306655 173.732274 
L 54.903392 174.823123 
L 55.082802 171.804789 
L 55.503632 176.001267 
L 55.741906 173.982509 
L 56.0415 175.496649 
L 56.276474 175.773776 
L 56.573769 172.769977 
L 56.75367 173.77893 
L 56.993866 176.115671 
L 57.484191 174.787022 
L 57.768474 174.931355 
L 58.064149 172.641388 
L 58.482261 174.275368 
L 58.721276 172.626192 
L 58.961335 174.808794 
L 59.273708 174.066043 
L 59.497757 171.358006 
L 60.034326 174.345716 
L 60.215694 172.000043 
L 60.514101 173.739038 
L 60.572028 173.45238 
L 60.750248 173.060754 
L 61.051876 171.334148 
L 61.226386 174.584755 
L 61.466678 175.771992 
L 61.762805 175.966714 
L 62.060926 176.485065 
L 62.240029 176.40554 
L 62.421171 177.177391 
L 62.657497 177.133585 
L 62.96134 175.03055 
L 63.254391 176.404399 
L 63.493016 179.213111 
L 63.976034 173.621358 
L 64.160848 176.099827 
L 64.455345 176.249932 
L 64.930181 173.386497 
L 65.050707 173.674557 
L 65.227079 175.876103 
L 65.467025 175.595261 
L 65.707736 176.010428 
L 66.002271 174.013646 
L 66.242317 173.487938 
L 66.420136 175.557469 
L 67.433733 175.291103 
L 67.672356 174.023856 
L 67.910925 173.56445 
L 68.149877 172.449317 
L 68.447276 174.430766 
L 68.74506 175.023 
L 68.987539 172.897422 
L 69.172201 172.277997 
L 70.116759 174.054977 
L 70.417336 175.717862 
L 70.652368 176.119922 
L 70.849156 173.49979 
L 71.130491 174.191229 
L 71.368623 177.517648 
L 71.665909 176.881477 
L 71.845834 175.3069 
L 72.083203 175.812864 
L 72.38166 175.802831 
L 72.621779 175.449104 
L 72.858895 174.200918 
L 73.09869 174.903278 
L 73.336516 176.353879 
L 73.574 175.017933 
L 73.933629 171.972622 
L 74.12469 173.188792 
L 74.349816 175.462 
L 74.830265 172.118923 
L 75.303153 174.496109 
L 75.422818 176.196737 
L 75.550599 173.395181 
L 75.788722 173.372162 
L 76.078528 176.005158 
L 76.258186 175.867106 
L 76.496906 172.765794 
L 76.853247 172.627451 
L 77.031899 175.917471 
L 77.269994 177.531144 
L 77.510114 174.688542 
L 77.747356 173.668353 
L 78.048518 176.758826 
L 78.343652 176.607321 
L 78.521766 174.228225 
L 78.761397 174.106536 
L 79.237503 177.099545 
L 79.476273 177.406338 
L 80.072023 178.78706 
L 80.369511 177.096321 
L 80.530625 173.901998 
L 80.728143 174.212361 
L 80.966541 176.552283 
L 81.265122 177.223756 
L 82.04075 170.88902 
L 82.224265 170.741663 
L 82.755731 172.692588 
L 83.173932 174.627669 
L 83.546261 175.394503 
L 83.718712 172.406191 
L 84.186037 172.792336 
L 84.305547 173.774379 
L 84.543172 174.582782 
L 84.782008 174.974769 
L 84.901284 174.70864 
L 85.318863 174.933729 
L 85.439328 174.4641 
L 85.676068 174.904146 
L 85.973647 175.925908 
L 86.152383 177.361933 
L 86.391669 177.044554 
L 87.127254 171.527956 
L 87.463784 173.216774 
L 87.642367 175.253096 
L 87.942829 173.758484 
L 88.178787 171.064885 
L 88.479615 171.604584 
L 88.656957 173.884413 
L 88.894997 174.966699 
L 89.136453 174.975096 
L 89.52933 175.291369 
L 89.701857 176.027083 
L 90.091562 175.04205 
L 90.266352 172.643275 
L 90.33225 173.891417 
L 90.627249 175.889316 
L 90.923552 174.161192 
L 91.12736 170.643627 
L 91.417413 170.182583 
L 91.700983 172.757867 
L 91.840231 175.769137 
L 92.11645 176.049532 
L 92.355029 173.156127 
L 92.663098 173.823679 
L 92.962953 175.682492 
L 93.21916 173.664461 
L 93.433165 173.05205 
L 94.0285 175.364545 
L 94.163744 179.09825 
L 95.505901 175.573627 
L 98.231861 174.756748 
L 98.311059 178.252063 
L 98.72905 171.839557 
L 99.325383 167.983593 
L 99.703719 169.420904 
L 100.06431 173.091694 
L 100.326145 172.79753 
L 100.727468 169.292125 
L 101.025498 168.518384 
L 101.325668 170.041263 
L 101.802034 176.229632 
L 101.985306 178.039743 
L 102.277973 176.133352 
L 102.755395 170.15011 
L 103.114866 170.85413 
L 103.233772 174.484548 
L 103.530292 178.513485 
L 103.829761 179.442578 
L 104.013288 177.614878 
L 104.432586 171.002204 
L 104.689594 171.105268 
L 104.92847 174.303335 
L 105.214519 175.174522 
L 105.927019 170.409819 
L 106.168076 171.871108 
L 106.430067 174.616662 
L 107.059362 177.614232 
L 107.178644 176.41844 
L 107.425785 175.509268 
L 107.96896 180.089325 
L 108.178044 179.921645 
L 108.520564 177.182208 
L 108.673551 174.141805 
L 108.951319 172.681728 
L 109.574599 173.586348 
L 109.639565 175.98495 
L 109.853576 176.7981 
L 110.113291 172.386188 
L 110.420405 172.748545 
L 110.886904 172.725643 
L 111.661639 175.188134 
L 111.843756 174.932826 
L 112.087971 173.394967 
L 112.393847 174.227038 
L 112.565524 175.13848 
L 113.160978 173.032139 
L 113.458694 174.872341 
L 113.582678 177.175309 
L 113.936112 177.168549 
L 114.353403 171.809173 
L 114.5606 174.587059 
L 114.831601 176.688053 
L 115.308688 172.659697 
L 115.549767 172.752411 
L 115.787315 173.361109 
L 116.262296 173.614218 
L 116.573462 176.527261 
L 116.798422 177.731096 
L 117.226811 175.797839 
L 117.33498 173.80535 
L 117.811529 177.950631 
L 117.99319 177.464656 
L 118.586634 177.33496 
L 119.302806 172.493002 
L 119.495102 172.739434 
L 119.785222 175.275685 
L 120.028396 174.783967 
L 120.265168 174.047029 
L 120.738598 175.412901 
L 121.034974 175.495253 
L 121.392655 174.404522 
L 121.511894 173.134368 
L 121.75016 172.95718 
L 122.108107 173.9348 
L 122.227702 173.515714 
L 122.465751 173.633243 
L 122.764971 173.424019 
L 123.061124 173.566348 
L 123.481512 173.391367 
L 123.956408 175.581373 
L 124.194498 174.996372 
L 124.432582 173.282744 
L 124.731646 173.053795 
L 125.208061 173.383363 
L 125.447421 172.665629 
L 125.708499 171.429464 
L 125.926155 171.26336 
L 126.167523 171.571508 
L 126.415946 170.99084 
L 126.717922 172.469096 
L 126.906634 175.391117 
L 127.237391 174.976779 
L 127.418743 172.420692 
L 127.685942 172.929986 
L 127.91139 176.509659 
L 128.149173 178.229025 
L 128.625669 172.624829 
L 128.937299 174.139117 
L 129.162063 176.321672 
L 129.399844 175.156857 
L 129.699097 173.072206 
L 129.937414 173.376387 
L 130.175147 175.257728 
L 130.534909 174.68672 
L 130.782196 171.58266 
L 131.009433 170.561853 
L 131.133599 171.966693 
L 131.367421 173.231914 
L 131.669143 172.128494 
L 131.875346 170.545996 
L 132.100256 170.625669 
L 132.459019 172.428042 
L 132.67823 172.865926 
L 132.97878 172.27712 
L 133.155995 172.763304 
L 133.633954 172.956685 
L 133.87163 173.523202 
L 134.113457 175.157861 
L 134.364623 178.16745 
L 134.649402 180.097591 
L 135.321084 175.198568 
L 135.38073 173.208279 
L 135.561688 174.272046 
L 136.097847 180.4244 
L 136.335606 180.188579 
L 136.811457 173.378106 
L 137.108679 172.583491 
L 137.295106 174.822857 
L 137.766235 177.242953 
L 138.003165 177.643554 
L 138.063545 175.899638 
L 138.540159 171.307343 
L 138.784747 171.427445 
L 139.316551 178.553525 
L 139.680343 178.474494 
L 139.79121 175.25577 
L 140.089465 174.067618 
L 140.333915 175.604147 
L 140.522304 178.077368 
L 140.75126 178.155475 
L 141.282395 173.721421 
L 141.51987 173.209124 
L 141.937054 174.218583 
L 142.05632 176.643357 
L 142.235917 177.465254 
L 142.713512 175.368023 
L 143.010831 175.35444 
L 143.250749 176.395008 
L 143.667272 177.60237 
L 143.727194 176.494855 
L 144.084081 173.254525 
L 144.203471 170.40479 
L 144.56061 169.863446 
L 144.991383 173.247806 
L 145.3405 171.947461 
L 145.513506 170.283896 
L 145.750976 171.317176 
L 146.526081 178.01048 
L 146.826065 176.579631 
L 146.946731 173.899889 
L 147.18318 173.096869 
L 147.557896 174.712651 
L 147.720028 178.221766 
L 147.956751 177.681495 
L 148.67152 170.248176 
L 148.970955 171.601852 
L 149.210279 174.558748 
L 149.56939 176.783016 
L 150.23535 168.966935 
L 150.462195 169.322019 
L 151.120132 177.292385 
L 151.357775 176.539195 
L 151.713311 174.667819 
L 152.131469 171.300975 
L 152.666459 177.410061 
L 152.906497 177.741622 
L 153.44687 171.596201 
L 153.621924 168.403971 
L 153.860272 167.734619 
L 154.276678 170.103594 
L 154.398788 174.193432 
L 154.639686 175.463329 
L 155.110701 169.610991 
L 155.353534 169.814172 
L 156.067618 178.48433 
L 156.365929 177.523694 
L 156.84958 170.599657 
L 157.087007 171.094469 
L 157.560213 177.82062 
L 157.808202 176.736277 
L 158.034751 173.38038 
L 158.393499 173.147936 
L 158.870077 174.974006 
L 159.047663 176.4419 
L 159.28704 177.323617 
L 159.764182 173.032034 
L 160.120076 173.227505 
L 160.298725 175.570517 
L 160.53699 176.243086 
L 161.074063 170.858329 
L 161.373063 172.106879 
L 161.55205 173.444693 
L 161.790008 172.76215 
L 162.028927 172.738546 
L 162.27046 172.221107 
L 162.505209 172.315688 
L 163.166836 173.299573 
L 163.338688 173.346472 
L 163.840609 172.167944 
L 163.996722 172.335104 
L 164.236018 173.597491 
L 164.475469 173.321149 
L 164.89578 172.585345 
L 165.069618 171.63599 
L 165.784368 171.979494 
L 166.023762 172.479071 
L 166.207375 173.575032 
L 166.472947 172.985785 
L 166.743848 171.360231 
L 166.976768 172.014556 
L 167.45527 174.187413 
L 167.795809 171.217913 
L 167.815257 170.072931 
L 167.952087 170.621844 
L 168.173283 173.924377 
L 168.55145 174.680347 
L 168.711434 171.948041 
L 168.948043 170.140197 
L 169.18601 171.460002 
L 169.424624 174.439996 
L 169.723182 175.129152 
L 169.961155 172.545789 
L 170.559667 175.402849 
L 170.687123 173.848322 
L 170.974215 171.979788 
L 171.285899 171.681462 
L 171.393213 173.641505 
L 171.74865 175.833797 
L 171.989757 176.033704 
L 172.166278 174.884894 
L 172.65986 174.026518 
L 172.881454 171.30621 
L 173.179617 172.238707 
L 173.597299 175.019127 
L 173.837319 177.987563 
L 173.972183 177.511725 
L 174.402452 171.881708 
L 174.641626 173.437047 
L 174.874754 176.215944 
L 175.113153 176.5719 
L 175.589698 175.31428 
L 175.949357 175.590784 
L 176.305641 174.408223 
L 176.609683 172.455248 
L 177.105723 171.553749 
L 177.343524 172.116118 
L 177.645736 173.766359 
L 177.880569 173.836884 
L 178.118342 173.135602 
L 178.504163 172.745504 
L 178.851805 175.743375 
L 179.093712 176.633999 
L 179.43122 175.401717 
L 179.551524 172.603435 
L 179.848239 171.692992 
L 180.325566 175.921932 
L 180.563712 174.944015 
L 180.820926 172.268472 
L 181.159198 171.663338 
L 181.399395 172.222753 
L 181.57679 172.103042 
L 182.113099 172.668272 
L 182.29192 172.626083 
L 182.529601 172.388698 
L 182.768574 172.422982 
L 183.245868 172.934879 
L 183.483177 172.263647 
L 183.602426 169.758584 
L 183.840886 169.071051 
L 184.317285 173.448105 
L 184.506936 174.020664 
L 184.795101 171.901716 
L 185.034127 169.097482 
L 185.277323 169.451144 
L 185.584366 172.419184 
L 185.754673 176.777445 
L 185.993979 180.048276 
L 186.232526 179.135784 
L 186.47252 176.25127 
L 186.710166 174.967845 
L 187.246241 179.867562 
L 187.543327 179.973035 
L 187.724616 178.021676 
L 188.556955 175.030154 
L 188.797234 174.010166 
L 189.092174 176.57474 
L 189.211742 178.760963 
L 189.450228 175.739419 
L 189.688262 174.259978 
L 190.169694 178.1948 
L 190.704003 172.988744 
L 191.178168 175.428539 
L 191.658722 171.32042 
L 191.915785 173.763397 
L 192.252478 174.606895 
L 192.495245 170.934077 
L 192.673459 170.960584 
L 192.966422 174.186092 
L 193.264667 173.654769 
L 193.392781 170.608761 
L 193.674906 169.909958 
L 194.160574 174.263228 
L 194.40092 171.380629 
L 194.661406 170.06427 
L 194.890264 173.220401 
L 195.239562 174.694426 
L 195.419353 173.222058 
L 195.657872 172.410589 
L 195.895951 172.701307 
L 196.252846 173.767218 
L 196.372173 174.706524 
L 196.614569 174.594025 
L 196.908944 174.660567 
L 197.206116 174.326096 
L 197.384839 173.744803 
L 197.623773 173.462548 
L 197.985006 173.535897 
L 198.100225 173.694606 
L 198.457221 173.18113 
L 198.697055 172.446931 
L 198.817509 170.625361 
L 199.112665 169.710315 
L 199.360548 172.980084 
L 199.829534 175.715707 
L 200.089848 172.099491 
L 200.42589 172.671534 
L 200.903995 178.263825 
L 201.080769 178.315461 
L 201.560416 175.943345 
L 201.856285 175.942235 
L 202.34336 175.317459 
L 202.572703 176.494858 
L 202.810323 176.375112 
L 203.238443 175.500913 
L 203.587817 173.282796 
L 204.063183 178.133646 
L 204.301032 178.239491 
L 204.540874 177.763685 
L 204.777894 177.703249 
L 205.016098 176.449494 
L 205.314986 175.648069 
L 205.970813 179.897423 
L 206.031238 182.009135 
L 206.268654 181.254661 
L 206.805789 173.960822 
L 207.043339 172.444592 
L 207.282053 173.739871 
L 207.462239 176.902917 
L 207.758564 178.390735 
L 207.996772 178.03197 
L 208.23783 176.603852 
L 208.713549 172.239256 
L 209.01257 171.92472 
L 209.488828 176.331075 
L 209.727167 177.200451 
L 210.026604 174.728297 
L 210.448923 168.398395 
L 210.740457 168.392579 
L 211.038025 171.684424 
L 211.515273 180.686159 
L 211.693838 182.450694 
L 211.932393 182.754728 
L 212.230764 182.700516 
L 212.414473 183.252474 
L 212.903531 182.984416 
L 212.94518 182.079224 
L 213.188899 181.396454 
L 213.68185 172.102449 
L 213.96737 169.593018 
L 214.4997 168.660724 
L 214.975671 165.089291 
L 215.152996 165.544657 
L 215.63072 167.706546 
L 215.692681 170.480354 
L 216.167769 177.234044 
L 216.409036 179.099135 
L 216.644147 177.722102 
L 216.885976 175.137276 
L 217.191757 104.906201 
L 217.369551 102.451604 
L 217.685713 94.810505 
L 217.89868 56.057729 
L 218.614117 106.549888 
L 219.151456 151.791801 
L 219.864317 173.439592 
L 220.163041 177.974066 
L 220.344852 186.927452 
L 220.641647 192.673224 
L 220.821951 188.577993 
L 221.060327 191.612625 
L 221.116739 183.531551 
L 221.354893 191.361653 
L 221.594397 193.470279 
L 221.831651 187.095464 
L 222.129433 190.287502 
L 222.368452 194.566248 
L 222.610276 191.16895 
L 222.849207 189.568199 
L 223.145121 182.521254 
L 223.50416 179.660951 
L 223.636128 177.179903 
L 223.810569 166.146932 
L 224.343439 174.012413 
L 224.582601 167.086391 
L 224.879863 176.814553 
L 225.267647 178.709708 
L 225.301219 181.567632 
L 225.774325 179.976297 
L 225.953557 173.536333 
L 226.072009 187.724555 
L 226.553484 188.337405 
L 226.845951 183.648228 
L 227.025385 195.689232 
L 227.502067 185.045805 
L 227.801173 192.408776 
L 228.276175 172.54812 
L 228.514977 174.536967 
L 228.75348 172.81636 
L 229.070165 166.086795 
L 229.36445 170.231166 
L 229.544257 166.049572 
L 229.721979 175.563589 
L 230.021717 180.034585 
L 230.258787 172.736534 
L 230.557339 174.304214 
L 230.795324 181.043211 
L 231.033203 173.208059 
L 231.332523 172.0698 
L 231.512402 179.541692 
L 231.928034 175.935457 
L 231.98826 171.44267 
L 232.226764 169.306154 
L 232.465955 172.291067 
L 232.702568 159.279866 
L 232.942811 160.753365 
L 233.186582 165.787224 
L 233.478279 163.577594 
L 233.660737 177.628488 
L 233.954681 176.423673 
L 234.252051 177.381838 
L 234.431297 172.904851 
L 234.789339 181.260208 
L 235.027384 179.58048 
L 235.206838 172.360429 
L 235.444132 174.939168 
L 235.682396 176.229782 
L 235.981562 170.368356 
L 236.279246 170.591576 
L 236.577343 167.483697 
L 236.756315 175.156442 
L 237.05356 177.02233 
L 237.176921 175.012072 
L 237.474062 179.053215 
L 237.709175 180.019916 
L 237.891067 180.267481 
L 238.169337 175.489903 
L 238.397599 177.302184 
L 238.636284 171.521238 
L 239.379322 161.841649 
L 239.840226 164.934489 
L 239.975442 174.170347 
L 240.392294 158.445035 
L 240.631739 167.640259 
L 240.869763 168.482832 
L 241.107026 157.093105 
L 241.762828 173.598485 
L 242.001197 172.52792 
L 242.180755 178.018559 
L 242.486189 165.601216 
L 242.658347 175.320456 
L 242.856481 165.283474 
L 243.434494 157.326136 
L 243.55472 157.389238 
L 243.814282 160.874333 
L 244.092059 157.502241 
L 244.627738 157.632242 
L 244.808656 154.354198 
L 245.104217 159.018149 
L 245.343396 155.154624 
L 245.641537 156.052307 
L 246.29821 160.686646 
L 246.774928 166.047766 
L 247.074762 160.672306 
L 247.370322 158.239085 
L 247.550299 153.681582 
L 247.788534 154.960029 
L 248.027853 162.903571 
L 248.503671 143.080235 
L 248.920695 156.782988 
L 249.339831 140.082686 
L 249.516736 142.645795 
L 249.755756 152.166256 
L 249.9945 155.893299 
L 250.234213 156.300461 
L 250.651073 160.345609 
L 250.772096 168.133996 
L 251.068182 172.098227 
L 251.24816 166.87003 
L 251.485551 171.468821 
L 251.84259 171.408839 
L 252.082632 159.905598 
L 252.214731 164.641205 
L 252.497325 165.454128 
L 252.795714 163.55238 
L 253.125417 157.223794 
L 253.367647 156.406704 
L 253.513527 150.131421 
L 253.810733 161.166211 
L 253.931947 160.829375 
L 254.228649 161.061037 
L 254.586829 151.818039 
L 254.960462 161.981862 
L 255.127567 161.906715 
L 255.613246 152.884731 
L 255.966285 155.368789 
L 256.431699 149.034928 
L 256.789273 154.064501 
L 256.968337 149.003067 
L 257.3852 145.016825 
L 257.504401 153.2602 
L 257.742897 154.742747 
L 257.923349 164.340139 
L 258.280703 153.680246 
L 258.519461 151.496431 
L 258.696364 146.35055 
L 258.937027 144.924959 
L 259.352273 153.29111 
L 259.593112 153.528999 
L 259.889674 149.291736 
L 260.425959 149.429697 
L 260.73192 147.686 
L 260.962329 147.877101 
L 261.201122 142.7323 
L 261.397353 148.448414 
L 261.975511 155.859556 
L 262.170291 152.973998 
L 262.394273 147.100017 
L 262.654667 145.64977 
L 262.871144 146.102199 
L 263.168133 143.280467 
L 263.524878 142.037177 
L 263.763231 142.336197 
L 263.882632 140.119421 
L 264.299466 140.560614 
L 264.3605 143.684913 
L 264.597897 144.174064 
L 264.956088 143.56399 
L 265.199153 140.13926 
L 265.373312 144.918992 
L 265.612533 139.630652 
L 265.911494 142.837359 
L 266.092012 146.607698 
L 266.326923 137.236883 
L 266.565461 143.964013 
L 266.81283 141.650643 
L 267.280816 135.669619 
L 267.606951 132.454372 
L 268.295763 135.875283 
L 268.483061 135.504892 
L 268.675147 132.297137 
L 268.951074 131.891802 
L 269.075351 136.689582 
L 269.429128 139.538176 
L 269.55089 142.095598 
L 269.84571 142.748239 
L 270.031289 151.391608 
L 270.449826 146.267132 
L 270.686578 151.529138 
L 270.799583 144.122135 
L 271.227969 142.17943 
L 271.416575 143.364161 
L 271.75803 128.497811 
L 272.113281 132.422179 
L 272.261991 128.731732 
L 272.593247 128.233403 
L 272.831352 130.64933 
L 273.068673 128.381797 
L 273.249832 142.088116 
L 273.545056 139.257733 
L 273.724459 142.776687 
L 274.022425 139.560372 
L 274.261309 144.035377 
L 274.617965 143.169967 
L 274.7976 139.681048 
L 275.231571 144.559962 
L 275.511428 138.922213 
L 275.694115 145.323788 
L 275.751157 143.820773 
L 276.171231 144.234866 
L 276.705865 151.512582 
L 276.943838 150.409813 
L 277.30182 142.824957 
L 277.599417 147.428506 
L 277.726347 153.199258 
L 277.957434 143.272616 
L 278.200835 137.798413 
L 278.493901 136.646788 
L 278.672125 141.46106 
L 279.327936 132.427074 
L 279.448279 134.421237 
L 279.686283 129.094909 
L 280.644747 154.441239 
L 280.899921 147.693826 
L 281.121606 148.929196 
L 281.48009 143.684854 
L 281.662009 136.734285 
L 282.135022 143.222212 
L 282.373719 138.374918 
L 282.672546 140.220282 
L 282.87827 139.285634 
L 283.092569 131.437839 
L 283.448648 130.816315 
L 283.865204 127.628032 
L 283.985133 141.408631 
L 284.103379 135.025561 
L 284.520863 150.158709 
L 284.586255 142.691303 
L 285.133028 147.128172 
L 285.317336 140.949975 
L 285.77215 150.120441 
L 285.832476 140.889093 
L 286.070076 136.854958 
L 286.368448 136.088988 
L 286.606782 137.059225 
L 287.142483 132.112418 
L 287.561729 137.880471 
L 287.858647 138.08942 
L 288.104074 138.015738 
L 288.336497 146.530025 
L 288.515818 142.401124 
L 288.811161 148.639016 
L 289.0502 147.925789 
L 289.354731 145.126719 
L 289.585603 151.744849 
L 290.063872 139.486649 
L 290.245131 136.300246 
L 290.599351 136.807431 
L 290.789814 138.452801 
L 291.076474 133.734096 
L 291.257943 138.01806 
L 291.567388 134.420422 
L 291.732865 135.086162 
L 291.972965 133.063288 
L 292.270209 140.013021 
L 292.745936 145.343027 
L 293.24405 146.104954 
L 293.464715 143.289414 
L 293.820274 141.713949 
L 293.999205 132.218924 
L 294.237666 132.619455 
L 294.491675 127.833483 
L 294.717265 131.785433 
L 295.131549 125.044809 
L 295.250828 132.034651 
L 295.548755 128.840665 
L 295.72806 136.359554 
L 296.085114 137.785348 
L 296.263899 140.108298 
L 296.44426 138.496398 
L 296.681386 148.573962 
L 297.18253 153.649253 
L 297.463618 149.364012 
L 297.756611 150.1792 
L 298.05391 147.549322 
L 298.233173 141.94058 
L 298.59037 144.459725 
L 298.889732 144.639885 
L 298.94823 141.023151 
L 299.186102 136.052517 
L 299.483957 135.722729 
L 299.66656 132.735337 
L 300.022783 130.899091 
L 300.199527 131.156673 
L 300.439009 138.136288 
L 300.633524 137.352708 
L 300.919244 140.621272 
L 301.537546 155.006859 
L 301.705471 159.484398 
L 301.936626 160.943863 
L 302.175397 159.060369 
L 302.476748 163.855378 
L 302.724234 161.25305 
L 302.951049 160.247038 
L 303.092979 156.668816 
L 303.567811 151.745571 
L 303.639314 146.219809 
L 303.92671 143.743469 
L 304.164771 146.369011 
L 304.345503 139.595882 
L 304.701274 142.522448 
L 305.249083 135.379297 
L 305.419027 141.587276 
L 305.655187 144.836849 
L 306.012819 142.113866 
L 306.139247 148.207038 
L 306.727724 157.744939 
L 306.850138 188.602528 
L 307.205773 151.253567 
L 307.442992 143.885664 
L 307.873278 88.183354 
L 308.21765 100.043502 
L 308.339314 119.645849 
L 308.576388 133.907634 
L 308.875217 162.303526 
L 309.231579 181.838683 
L 309.320091 204.667531 
L 309.654483 240.313323 
L 309.97169 237.792155 
L 310.089534 217.744476 
L 310.332804 214.726354 
L 310.633065 175.425018 
L 310.747527 127.774864 
L 311.400781 37.927893 
L 311.698045 6.845091 
L 311.817602 6.050769 
L 312.356427 43.423158 
L 313.252365 216.831761 
L 313.547978 248.627838 
L 313.78576 255.821923 
L 313.965634 253.65926 
L 314.262231 238.717833 
L 315.515565 90.346317 
L 315.755115 86.059887 
L 315.994706 96.26822 
L 316.477979 146.969889 
L 317.186041 237.705446 
L 317.721248 257.796491 
L 318.14169 256.968149 
L 318.207171 238.083068 
L 319.091834 149.631524 
L 319.449551 93.330158 
L 319.688982 74.175091 
L 319.932083 71.886458 
L 320.489863 102.957685 
L 320.879805 131.393314 
L 320.939453 158.529664 
L 321.416486 213.290428 
L 321.657726 232.2197 
L 321.894005 241.636915 
L 322.431746 234.654887 
L 322.809316 214.034553 
L 322.912833 191.856728 
L 323.382974 142.533978 
L 323.800441 128.735089 
L 323.919764 120.640005 
L 324.218448 121.197345 
L 325.656319 207.433248 
L 325.886163 211.639237 
L 326.125419 209.113103 
L 326.661765 184.905813 
L 327.618004 121.935516 
L 327.863545 117.919162 
L 328.218592 116.134974 
L 329.107151 175.609311 
L 329.347164 191.226348 
L 329.609418 199.688623 
L 329.822352 199.493674 
L 330.060978 197.711392 
L 330.300953 190.501179 
L 330.955085 162.668111 
L 331.074928 146.396139 
L 331.798858 117.555254 
L 332.295591 128.182118 
L 332.581733 135.598406 
L 332.628794 141.637748 
L 332.92853 144.888818 
L 333.047548 161.219268 
L 333.463311 169.359412 
L 333.582644 174.521599 
L 333.76078 174.254376 
L 334.059047 171.274988 
L 334.357228 172.160111 
L 334.77428 155.66442 
L 335.252504 140.066683 
L 335.554682 139.573657 
L 336.027717 146.171997 
L 336.503215 171.670681 
L 337.219706 199.360615 
L 337.457125 204.487941 
L 337.8742 206.146391 
L 337.992974 200.245923 
L 338.291662 194.126059 
L 339.430905 133.183527 
L 340.260765 125.18273 
L 340.684382 141.692478 
L 341.689226 178.291683 
L 342.108412 177.922447 
L 342.168521 176.869899 
L 342.467656 174.371674 
L 343.240908 154.135902 
L 343.90286 123.956778 
L 344.194534 123.752597 
L 344.671035 150.194398 
L 344.910015 155.088081 
L 345.147753 163.217504 
L 345.50505 174.910443 
L 345.685682 175.436017 
L 345.98291 180.463339 
L 346.280825 180.419561 
L 346.400699 179.291375 
L 346.639131 173.971401 
L 347.414796 131.807848 
L 347.829568 123.788379 
L 349.328861 179.651946 
L 349.867889 185.217579 
L 350.333064 185.757834 
L 350.75242 176.036688 
L 351.051582 151.301131 
L 351.405524 139.022507 
L 351.704821 135.86175 
L 351.837621 140.313749 
L 352.257007 143.055616 
L 352.364255 149.094447 
L 352.602357 154.669152 
L 352.840931 157.152501 
L 353.377361 166.13332 
L 353.556137 167.210299 
L 354.102425 172.1702 
L 354.392014 163.431567 
L 354.513693 165.908184 
L 355.299174 148.663721 
L 355.524582 146.652883 
L 355.823137 147.531777 
L 356.061582 151.884542 
L 356.300154 159.392102 
L 356.587689 161.813934 
L 356.84103 154.181762 
L 357.259503 159.337526 
L 357.553871 168.921007 
L 357.935759 168.911872 
L 358.030653 165.51559 
L 358.56667 158.235906 
L 358.745127 152.396512 
L 358.983198 151.167575 
L 359.281135 146.457155 
L 359.579082 147.392841 
L 359.758066 142.00436 
L 360.067986 142.630268 
L 360.299199 144.806048 
L 360.950784 159.738903 
L 361.250702 161.405781 
L 361.485653 163.826383 
L 361.802473 165.433652 
L 361.965514 163.247328 
L 362.267185 163.336317 
L 362.98234 142.092504 
L 363.166856 141.249999 
L 363.459258 143.079288 
L 363.877807 139.906098 
L 363.998223 146.70892 
L 364.353713 147.360244 
L 364.415589 150.422232 
L 364.949815 161.231581 
L 365.192598 161.377764 
L 365.426635 162.529931 
L 365.665324 160.823517 
L 365.963078 161.585653 
L 366.210437 163.255867 
L 366.499074 161.399763 
L 367.034543 153.673229 
L 367.156433 156.742691 
L 367.57195 160.810724 
L 367.630692 152.033871 
L 367.993968 154.275621 
L 368.28706 151.757269 
L 368.34994 147.551509 
L 368.718009 146.87896 
L 369.124034 160.458554 
L 369.478926 161.535059 
L 369.658682 161.347267 
L 369.962816 161.403956 
L 370.138563 154.323219 
L 370.373408 157.990941 
L 370.791639 158.52409 
L 370.912759 158.374404 
L 371.091622 158.584834 
L 371.60839 147.005931 
L 372.640846 160.421168 
L 372.820287 159.903804 
L 373.179091 162.149949 
L 373.41626 159.991286 
L 373.595093 159.54581 
L 373.952976 156.993504 
L 374.31127 147.167222 
L 374.609038 147.977414 
L 374.846922 149.135379 
L 375.204302 150.012864 
L 375.382483 149.844132 
L 375.807796 150.220477 
L 376.038677 155.112028 
L 376.278435 163.720186 
L 376.575768 165.067853 
L 376.754142 166.675553 
L 377.528772 152.002393 
L 377.767672 148.562929 
L 378.00534 149.902256 
L 378.245978 152.735002 
L 378.662013 154.133569 
L 379.079562 149.635919 
L 379.375279 150.174489 
L 379.619828 152.252178 
L 379.792441 161.041631 
L 380.209981 161.157701 
L 380.509453 153.674602 
L 380.925624 149.408911 
L 381.045858 151.586659 
L 381.341659 148.573509 
L 381.521235 154.339194 
L 381.998072 156.01261 
L 382.47424 150.665152 
L 382.716196 152.431586 
L 383.010909 156.418399 
L 383.310569 157.437035 
L 383.369408 157.214209 
L 383.48901 157.42608 
L 383.846639 155.344913 
L 384.204218 144.674006 
L 384.503733 139.236835 
L 384.920943 140.421581 
L 385.215894 140.683914 
L 385.594332 141.265986 
L 385.698914 143.360762 
L 385.931863 145.416951 
L 386.171585 152.069825 
L 386.412635 152.948236 
L 386.469912 154.257786 
L 386.651787 155.316347 
L 387.065347 160.152202 
L 387.28895 156.920118 
L 387.423292 160.770831 
L 387.661107 162.576707 
L 388.144691 163.59245 
L 388.435672 160.810841 
L 388.794039 159.385769 
L 388.913053 158.28066 
L 389.454942 149.637379 
L 389.926507 148.400875 
L 390.346918 151.692248 
L 390.643997 153.049759 
L 390.88036 155.319749 
L 391.118324 159.172528 
L 391.476629 159.690104 
L 391.65498 164.447528 
L 392.131469 171.536752 
L 392.370282 167.4783 
L 393.02718 162.857773 
L 393.266841 158.961424 
L 393.504623 152.529037 
L 393.623643 156.071138 
L 394.102249 152.152286 
L 394.347746 155.781289 
L 394.637806 156.737632 
L 394.878295 154.162886 
L 395.114141 153.180564 
L 395.413015 152.874667 
L 395.592605 151.539441 
L 395.891188 145.062003 
L 396.068844 147.02567 
L 396.307135 141.867112 
L 396.546026 140.71893 
L 396.799916 140.246867 
L 396.843832 140.446178 
L 397.035122 139.221166 
L 397.271089 145.346698 
L 397.560051 149.001846 
L 397.826401 150.940839 
L 398.040006 151.382744 
L 398.278812 153.50762 
L 398.585387 152.430226 
L 398.813169 159.515358 
L 399.022604 161.177511 
L 399.29018 161.042019 
L 399.531917 156.588117 
L 399.770136 158.006839 
L 400.304813 154.604471 
L 400.600723 153.188515 
L 400.781613 148.302481 
L 401.018391 146.635037 
L 401.257493 147.038447 
L 401.498301 141.604432 
L 401.855322 139.292987 
L 402.035863 131.279998 
L 402.274007 134.719279 
L 402.555498 135.044731 
L 402.872188 135.660956 
L 404.06342 160.304582 
L 404.481874 165.650784 
L 404.780652 164.554667 
L 404.957902 164.565037 
L 405.257143 164.911452 
L 405.494709 163.357658 
L 405.733715 164.47081 
L 406.50908 154.661828 
L 406.699843 153.271726 
L 407.094257 154.437249 
L 407.222319 149.381109 
L 407.45226 148.399577 
L 408.171083 143.081154 
L 408.467786 135.862644 
L 408.947224 132.202062 
L 409.197164 131.905567 
L 409.60073 135.703497 
L 409.660698 139.897087 
L 409.959081 142.745063 
L 410.639771 159.552537 
L 410.914207 161.349302 
L 411.346681 166.413227 
L 411.394451 168.370462 
L 411.691964 170.197086 
L 412.168443 168.426538 
L 412.407931 165.998905 
L 412.942779 162.66281 
L 413.600064 151.119841 
L 414.375515 144.264269 
L 414.851628 150.3979 
L 415.149726 153.11089 
L 415.330749 153.309395 
L 415.863312 152.707458 
L 415.871824 180.319733 
L 416.106461 157.720543 
L 416.462714 164.144692 
L 416.642489 164.378777 
L 416.889627 162.352557 
L 417.121838 158.391522 
L 417.782821 150.940246 
L 418.07455 150.476217 
L 418.313208 150.836167 
L 418.792555 143.839255 
L 419.212173 140.667824 
L 419.266786 150.216417 
L 419.625937 151.155165 
L 419.809527 155.353636 
L 420.04404 157.506015 
L 420.702599 157.718808 
L 420.827577 158.782333 
L 421.082899 159.804385 
L 421.296666 165.290648 
L 421.54394 163.877991 
L 421.595588 158.928391 
L 422.256645 151.113743 
L 422.4934 150.7048 
L 422.788822 151.286676 
L 423.03348 149.238161 
L 423.265582 148.263689 
L 423.504772 153.155694 
L 423.74235 155.283473 
L 423.981822 153.541952 
L 424.541323 142.997265 
L 424.759483 138.804021 
L 425.235023 113.05435 
L 425.733157 126.929026 
L 425.965544 126.726389 
L 426.199397 128.861898 
L 426.458737 137.581709 
L 426.794478 140.265396 
L 427.231531 142.12231 
L 427.51593 139.119501 
L 427.759176 139.379894 
L 428.172449 136.815757 
L 428.836364 149.755529 
L 428.955581 149.965693 
L 429.430516 161.640575 
L 429.801082 166.803299 
L 429.961842 179.251232 
L 430.264799 188.925099 
L 430.499653 190.833224 
L 430.737766 186.136438 
L 431.277655 165.171023 
L 431.879912 140.999146 
L 432.145195 138.056625 
L 432.416076 130.278149 
L 432.731349 127.512349 
L 432.896991 134.04228 
L 433.246954 141.117922 
L 433.665146 169.547839 
L 434.142742 182.236566 
L 434.623103 178.421564 
L 434.997949 177.032778 
L 435.098089 170.120529 
L 435.455055 161.514632 
L 435.634082 150.195628 
L 436.113881 134.953 
L 436.519588 127.884005 
L 436.757143 127.96936 
L 436.944495 131.28302 
L 437.174898 147.07741 
L 437.472864 154.132563 
L 437.831465 178.817981 
L 438.308241 188.654804 
L 438.84864 173.112112 
L 439.203743 170.073886 
L 439.32935 158.44939 
L 440.09899 135.554405 
L 440.341029 134.40512 
L 440.57698 135.47932 
L 441.0549 147.089394 
L 441.293635 154.960917 
L 441.542392 156.378382 
L 441.775867 161.700795 
L 442.262767 164.056571 
L 442.55229 161.556887 
L 443.445843 149.355781 
L 443.80455 151.195859 
L 444.10157 156.778586 
L 444.57959 172.631519 
L 445.063402 191.815698 
L 445.296153 199.138803 
L 445.476694 201.191813 
L 445.714857 200.179597 
L 445.964215 201.393841 
L 446.735599 186.020055 
L 447.270302 167.968944 
L 447.446819 154.110985 
L 447.771866 146.145429 
L 447.982701 147.812471 
L 448.403106 142.73549 
L 448.484627 143.425178 
L 448.709369 141.001785 
L 449.177353 149.901148 
L 449.598835 153.512088 
L 449.788248 157.295933 
L 450.204405 175.591572 
L 450.621534 173.533712 
L 450.682193 174.980561 
L 451.100145 169.641723 
L 451.399986 161.588058 
L 451.813746 159.597753 
L 451.933234 150.658254 
L 452.173271 149.610057 
L 452.410237 143.794265 
L 452.82738 143.249969 
L 452.946775 144.443253 
L 453.484299 158.438704 
L 453.901894 172.615456 
L 454.143047 170.839452 
L 454.438849 169.961814 
L 454.618697 170.363631 
L 454.938383 167.420089 
L 455.098633 160.74346 
L 455.397176 160.954026 
L 455.635167 153.421362 
L 455.877511 152.212937 
L 456.173359 149.867884 
L 456.890144 159.021475 
L 457.076637 165.898659 
L 457.633251 175.522627 
L 457.847524 180.028562 
L 458.105785 181.87476 
L 458.32148 180.061376 
L 458.560843 176.604953 
L 459.107177 165.361449 
L 460.300685 121.063867 
L 460.598908 120.42931 
L 460.836734 120.945354 
L 461.234538 123.456924 
L 461.381927 126.589019 
L 461.558545 133.523234 
L 461.949202 130.647849 
L 462.398666 130.441706 
L 462.568687 127.392364 
L 462.816983 127.638987 
L 463.179961 122.691774 
L 463.28692 117.993219 
L 463.530871 113.903319 
L 463.765835 113.448398 
L 464.072889 115.605865 
L 464.320637 120.223086 
L 464.781239 140.778103 
L 465.027317 154.341492 
L 465.319515 159.573603 
L 465.79922 171.729939 
L 466.273686 178.3483 
L 466.691576 181.978836 
L 467.037735 175.009772 
L 467.272469 171.874383 
L 467.807763 156.439785 
L 467.992368 156.486948 
L 468.587327 150.150627 
L 468.763154 152.262015 
L 468.953042 150.648568 
L 469.239085 147.016795 
L 469.477959 146.757052 
L 469.716829 146.989868 
L 469.954561 145.405328 
L 470.193432 140.524164 
L 470.432962 143.823019 
L 470.849958 138.996312 
L 470.999092 129.14324 
L 471.387446 130.521555 
L 471.506328 123.815763 
L 471.744903 125.73129 
L 471.983362 124.955338 
L 472.413238 134.455056 
L 473.65615 174.618988 
L 473.896837 176.232863 
L 474.276647 177.844173 
L 474.434755 176.13453 
L 474.670358 179.345039 
L 475.454667 154.684801 
L 475.749702 150.049432 
L 476.17761 136.791441 
L 476.433657 136.458778 
L 476.724539 134.508099 
L 476.846124 138.756118 
L 477.138377 134.505601 
L 477.436678 133.961201 
L 477.734773 135.379121 
L 477.854287 132.410252 
L 478.152176 132.723745 
L 478.398605 136.174182 
L 478.646403 132.10137 
L 478.868384 126.551182 
L 479.108222 125.53904 
L 479.40632 126.096351 
L 479.644856 126.242027 
L 479.885479 127.279517 
L 480.120828 127.788361 
L 480.598725 133.295779 
L 481.077859 147.924557 
L 481.314748 156.587999 
L 481.852016 169.849085 
L 482.092838 171.200285 
L 482.569102 176.415791 
L 482.925677 177.113873 
L 483.177819 176.794608 
L 483.344272 176.364136 
L 483.642591 173.473045 
L 483.880396 173.838084 
L 484.118891 173.382031 
L 484.321353 173.582365 
L 484.537252 175.125371 
L 484.839118 179.56308 
L 485.132073 179.241532 
L 485.550787 185.342778 
L 485.791706 183.262863 
L 486.027845 184.334392 
L 486.522284 177.987281 
L 486.760428 172.153554 
L 487.238515 167.303851 
L 487.29849 162.816394 
L 487.778709 149.978403 
L 488.549642 138.495789 
L 488.730142 137.388732 
L 489.029062 131.285182 
L 489.325562 129.216546 
L 489.504111 126.20104 
L 490.044836 125.080113 
L 490.281663 129.806181 
L 490.568581 128.70776 
L 490.759547 128.968223 
L 491.240308 137.556391 
L 491.584791 142.21156 
L 492.498084 178.573516 
L 492.737063 183.802085 
L 493.213871 188.378519 
L 493.750988 180.034026 
L 493.930682 168.288715 
L 494.246704 160.862584 
L 494.287781 156.245774 
L 494.466584 149.966899 
L 494.767831 149.337466 
L 495.063455 142.107338 
L 495.241894 142.575114 
L 495.722548 146.15583 
L 495.780352 152.96335 
L 496.688782 195.150046 
L 497.152993 220.905191 
L 497.510055 229.415975 
L 497.688907 230.605248 
L 497.867388 238.185664 
L 498.287595 238.296725 
L 498.345069 241.735104 
L 498.706986 235.589134 
L 499.185459 215.875288 
L 499.903543 169.589582 
L 500.207372 161.007756 
L 500.384257 147.218516 
L 500.868873 126.458004 
L 501.345532 121.907715 
L 501.643394 121.271895 
L 501.827858 118.96104 
L 502.122693 124.850135 
L 502.424592 120.925924 
L 502.65736 129.459837 
L 502.912868 130.467273 
L 503.136012 125.031323 
L 503.559477 128.624072 
L 503.61223 124.389528 
L 503.85067 125.724981 
L 504.268746 126.353199 
L 504.329146 128.970658 
L 505.064641 147.86559 
L 505.369257 157.109313 
L 505.840075 178.627362 
L 506.300427 199.078244 
L 506.540169 201.06512 
L 506.852163 210.800936 
L 507.256581 206.689703 
L 507.31785 208.825088 
L 507.553063 204.314889 
L 508.03587 204.15752 
L 508.340669 199.980123 
L 508.528018 205.137316 
L 508.885369 211.320277 
L 509.327672 228.4852 
L 509.555939 234.378956 
L 509.79508 236.725962 
L 510.037742 235.494 
L 510.797028 213.874229 
L 511.15401 206.628993 
L 511.340183 194.549528 
L 511.515701 174.86425 
L 512.290623 132.644686 
L 512.589208 123.549073 
L 512.767601 123.106783 
L 513.362767 119.704238 
L 513.49754 121.32246 
L 513.779272 129.102919 
L 514.259399 153.114976 
L 514.496964 164.501697 
L 514.752703 161.729484 
L 515.03257 162.720003 
L 515.51118 147.549499 
L 515.754742 145.963149 
L 516.001238 139.88911 
L 516.28825 140.459572 
L 517.481211 174.914161 
L 517.768534 170.088333 
L 518.018279 155.722065 
L 518.494558 139.21597 
L 518.5543 124.237677 
L 518.913059 109.957857 
L 519.040927 96.691421 
L 519.451688 76.360164 
L 519.953515 75.807876 
L 520.646156 149.711983 
L 520.951602 160.819559 
L 521.422505 163.031466 
L 521.548585 156.953338 
L 521.91975 145.51676 
L 522.56745 113.725125 
L 522.922439 108.254959 
L 523.170917 113.726726 
L 523.528141 128.462481 
L 523.885174 174.836622 
L 524.301954 201.697939 
L 524.543153 228.709618 
L 525.258621 272.589231 
L 525.52018 264.392596 
L 527.107649 80.169294 
L 527.36184 63.872294 
L 527.583954 61.08659 
L 527.882528 67.294209 
L 528.666061 95.164143 
L 529.142079 110.828157 
L 529.439494 115.205915 
L 529.616804 115.776645 
L 529.853886 115.809555 
L 530.163816 113.829376 
L 530.575888 104.720365 
L 530.879318 102.811121 
L 531.20933 106.263779 
L 531.560797 123.408025 
L 532.542685 154.261997 
L 533.077101 157.987809 
L 533.318201 157.068085 
L 533.554455 153.066629 
L 534.031137 138.720279 
L 534.815446 108.085613 
L 535.121277 101.070429 
L 535.545015 97.003543 
L 535.774911 101.017508 
L 536.550053 134.453643 
L 537.263401 171.650546 
L 537.504582 176.715561 
L 537.798254 180.33568 
L 538.056945 182.098531 
L 538.337128 179.78331 
L 539.353845 162.183082 
L 539.828521 165.788534 
L 539.948755 169.207707 
L 540.199756 168.461812 
L 540.424821 164.919393 
L 540.966105 150.716674 
L 541.437701 128.260281 
L 542.691117 57.198104 
L 543.188837 50.525705 
L 543.824918 62.512416 
L 544.133907 91.113884 
L 544.539128 104.194785 
L 544.902401 120.988952 
L 545.374527 125.215749 
L 545.672823 126.573866 
L 546.032965 129.142327 
L 546.153951 127.819246 
L 546.448436 128.257684 
L 546.627468 128.970256 
L 546.869418 130.43668 
L 547.169332 136.441669 
L 548.621658 217.671285 
L 548.919091 224.721385 
L 549.575035 235.818406 
L 549.87422 237.560249 
L 550.11367 236.701652 
L 550.4772 234.601575 
L 551.096578 220.550304 
L 551.380954 193.325621 
L 552.07549 159.873998 
L 552.848468 132.572962 
L 553.327123 124.176909 
L 554.106053 128.18503 
L 554.824221 140.986936 
L 555.313085 156.893972 
L 555.561737 155.55651 
L 556.330929 144.778071 
L 557.179392 126.146137 
L 557.300832 117.249863 
L 557.701423 111.405678 
L 557.824513 112.8003 
L 558.240046 137.142631 
L 559.013783 166.532655 
L 559.791632 178.052278 
L 560.05369 175.925305 
L 560.445187 170.004314 
L 560.508561 161.378633 
L 561.239814 134.341134 
L 561.527183 128.413769 
L 561.704508 127.437623 
L 562.00136 130.035977 
L 562.303909 134.40629 
L 562.542548 140.094258 
L 562.954697 145.018193 
L 563.133461 142.591155 
L 563.194114 139.950374 
L 563.467597 139.073872 
L 563.817686 148.355322 
L 563.934282 162.118875 
L 564.477872 180.322162 
L 564.727769 181.793944 
L 564.949624 180.178616 
L 565.189427 174.255799 
L 565.492097 172.437419 
L 565.965143 179.080286 
L 566.155913 173.175049 
L 566.684577 141.798166 
L 566.980547 136.967575 
L 567.342669 142.216047 
L 567.69626 161.264673 
L 567.93841 165.142495 
L 568.292976 163.599219 
L 568.427355 157.862501 
L 568.608239 157.236866 
L 569.146754 168.035307 
L 569.444183 157.901855 
L 569.620489 139.7816 
L 569.91819 123.011648 
L 570.277418 121.736295 
L 570.457132 131.798937 
L 571.051648 150.890198 
L 571.588532 140.852193 
L 571.946887 150.255824 
L 572.366467 170.098511 
L 572.689107 161.802175 
L 572.872413 148.19592 
L 573.109195 143.812672 
L 573.638937 153.879574 
L 573.876385 155.039781 
L 574.070009 153.513432 
L 574.30943 148.450773 
L 574.592297 146.380929 
L 575.141361 154.917807 
L 575.30771 155.625832 
L 575.804732 146.560445 
L 576.624525 159.771317 
L 576.919515 159.422274 
L 577.097999 151.964564 
L 577.157281 144.779492 
L 577.757175 139.121832 
L 577.99304 144.383645 
L 578.350111 148.584151 
L 578.528892 140.567946 
L 578.708895 123.3539 
L 579.036586 117.138945 
L 579.27292 120.756342 
L 579.788099 165.221688 
L 580.077802 174.017435 
L 580.256588 174.639468 
L 580.796406 167.143028 
L 581.273096 171.456296 
L 581.513255 171.875599 
L 581.756841 165.826634 
L 581.988926 156.072011 
L 582.526245 130.583299 
L 583.249581 151.766048 
L 583.487398 152.56215 
L 583.838708 151.930964 
L 583.977108 153.327326 
L 584.201953 154.061132 
L 584.495537 150.731082 
L 584.735588 150.404562 
L 584.973711 154.168716 
L 585.282242 154.199188 
L 585.817209 144.685818 
L 585.99516 150.191047 
L 586.236852 149.057189 
L 586.59246 140.569154 
L 586.890024 143.527393 
L 587.250206 156.856278 
L 587.426561 155.14624 
L 587.903073 145.92237 
L 588.147753 147.639118 
L 588.500645 152.778496 
L 588.679453 157.330923 
L 588.931618 156.998804 
L 589.414021 146.907441 
L 589.90017 140.187222 
L 590.140313 143.564531 
L 590.140313 143.564531 
" clip-path="url(#p12b6ccb9a7)" style="fill: none; stroke: #ff0000; stroke-opacity: 0.5; stroke-width: 1.5; stroke-linecap: square"/>
   </g>
   <g id="patch_3">
    <path d="M 32.140313 277.92 
L 32.140313 0.72 
" style="fill: none; stroke: #000000; stroke-width: 0.8; stroke-linejoin: miter; stroke-linecap: square"/>
   </g>
   <g id="patch_4">
    <path d="M 590.140313 277.92 
L 590.140313 0.72 
" style="fill: none; stroke: #000000; stroke-width: 0.8; stroke-linejoin: miter; stroke-linecap: square"/>
   </g>
   <g id="patch_5">
    <path d="M 32.140313 277.92 
L 590.140313 277.92 
" style="fill: none; stroke: #000000; stroke-width: 0.8; stroke-linejoin: miter; stroke-linecap: square"/>
   </g>
   <g id="patch_6">
    <path d="M 32.140313 0.72 
L 590.140313 0.72 
" style="fill: none; stroke: #000000; stroke-width: 0.8; stroke-linejoin: miter; stroke-linecap: square"/>
   </g>
   <g id="legend_1">
    <g id="patch_7">
     <path d="M 509.371562 38.07625 
L 583.140312 38.07625 
Q 585.140312 38.07625 585.140312 36.07625 
L 585.140312 7.72 
Q 585.140312 5.72 583.140312 5.72 
L 509.371562 5.72 
Q 507.371562 5.72 507.371562 7.72 
L 507.371562 36.07625 
Q 507.371562 38.07625 509.371562 38.07625 
z
" style="fill: #ffffff; opacity: 0.8; stroke: #cccccc; stroke-linejoin: miter"/>
    </g>
    <g id="line2d_29">
     <path d="M 511.371562 13.818438 
L 521.371562 13.818438 
L 531.371562 13.818438 
" style="fill: none; stroke: #0000ff; stroke-opacity: 0.5; stroke-width: 1.5; stroke-linecap: square"/>
    </g>
    <g id="text_16">
     <!-- RNEA -->
     <g transform="translate(539.371562 17.318438) scale(0.1 -0.1)">
      <defs>
       <path id="DejaVuSans-52" d="M 2841 2188 
Q 3044 2119 3236 1894 
Q 3428 1669 3622 1275 
L 4263 0 
L 3584 0 
L 2988 1197 
Q 2756 1666 2539 1819 
Q 2322 1972 1947 1972 
L 1259 1972 
L 1259 0 
L 628 0 
L 628 4666 
L 2053 4666 
Q 2853 4666 3247 4331 
Q 3641 3997 3641 3322 
Q 3641 2881 3436 2590 
Q 3231 2300 2841 2188 
z
M 1259 4147 
L 1259 2491 
L 2053 2491 
Q 2509 2491 2742 2702 
Q 2975 2913 2975 3322 
Q 2975 3731 2742 3939 
Q 2509 4147 2053 4147 
L 1259 4147 
z
" transform="scale(0.015625)"/>
       <path id="DejaVuSans-45" d="M 628 4666 
L 3578 4666 
L 3578 4134 
L 1259 4134 
L 1259 2753 
L 3481 2753 
L 3481 2222 
L 1259 2222 
L 1259 531 
L 3634 531 
L 3634 0 
L 628 0 
L 628 4666 
z
" transform="scale(0.015625)"/>
       <path id="DejaVuSans-41" d="M 2188 4044 
L 1331 1722 
L 3047 1722 
L 2188 4044 
z
M 1831 4666 
L 2547 4666 
L 4325 0 
L 3669 0 
L 3244 1197 
L 1141 1197 
L 716 0 
L 50 0 
L 1831 4666 
z
" transform="scale(0.015625)"/>
      </defs>
      <use xlink:href="#DejaVuSans-52"/>
      <use xlink:href="#DejaVuSans-4e" x="69.482422"/>
      <use xlink:href="#DejaVuSans-45" x="144.287109"/>
      <use xlink:href="#DejaVuSans-41" x="207.470703"/>
     </g>
    </g>
    <g id="line2d_30">
     <path d="M 511.371562 28.496563 
L 521.371562 28.496563 
L 531.371562 28.496563 
" style="fill: none; stroke: #ff0000; stroke-opacity: 0.5; stroke-width: 1.5; stroke-linecap: square"/>
    </g>
    <g id="text_17">
     <!-- BURNEA -->
     <g transform="translate(539.371562 31.996563) scale(0.1 -0.1)">
      <defs>
       <path id="DejaVuSans-42" d="M 1259 2228 
L 1259 519 
L 2272 519 
Q 2781 519 3026 730 
Q 3272 941 3272 1375 
Q 3272 1813 3026 2020 
Q 2781 2228 2272 2228 
L 1259 2228 
z
M 1259 4147 
L 1259 2741 
L 2194 2741 
Q 2656 2741 2882 2914 
Q 3109 3088 3109 3444 
Q 3109 3797 2882 3972 
Q 2656 4147 2194 4147 
L 1259 4147 
z
M 628 4666 
L 2241 4666 
Q 2963 4666 3353 4366 
Q 3744 4066 3744 3513 
Q 3744 3084 3544 2831 
Q 3344 2578 2956 2516 
Q 3422 2416 3680 2098 
Q 3938 1781 3938 1306 
Q 3938 681 3513 340 
Q 3088 0 2303 0 
L 628 0 
L 628 4666 
z
" transform="scale(0.015625)"/>
       <path id="DejaVuSans-55" d="M 556 4666 
L 1191 4666 
L 1191 1831 
Q 1191 1081 1462 751 
Q 1734 422 2344 422 
Q 2950 422 3222 751 
Q 3494 1081 3494 1831 
L 3494 4666 
L 4128 4666 
L 4128 1753 
Q 4128 841 3676 375 
Q 3225 -91 2344 -91 
Q 1459 -91 1007 375 
Q 556 841 556 1753 
L 556 4666 
z
" transform="scale(0.015625)"/>
      </defs>
      <use xlink:href="#DejaVuSans-42"/>
      <use xlink:href="#DejaVuSans-55" x="68.603516"/>
      <use xlink:href="#DejaVuSans-52" x="141.796875"/>
      <use xlink:href="#DejaVuSans-4e" x="211.279297"/>
      <use xlink:href="#DejaVuSans-45" x="286.083984"/>
      <use xlink:href="#DejaVuSans-41" x="349.267578"/>
     </g>
    </g>
   </g>
  </g>
 </g>
 <defs>
  <clipPath id="p12b6ccb9a7">
   <rect x="32.140313" y="0.72" width="558" height="277.2"/>
  </clipPath>
 </defs>
</svg>
