<?xml version="1.0" encoding="utf-8" standalone="no"?>
<!DOCTYPE svg PUBLIC "-//W3C//DTD SVG 1.1//EN"
  "http://www.w3.org/Graphics/SVG/1.1/DTD/svg11.dtd">
<svg xmlns:xlink="http://www.w3.org/1999/xlink" width="588.843125pt" height="304.99625pt" viewBox="0 0 588.843125 304.99625" xmlns="http://www.w3.org/2000/svg" version="1.1">
 <metadata>
  <rdf:RDF xmlns:dc="http://purl.org/dc/elements/1.1/" xmlns:cc="http://creativecommons.org/ns#" xmlns:rdf="http://www.w3.org/1999/02/22-rdf-syntax-ns#">
   <cc:Work>
    <dc:type rdf:resource="http://purl.org/dc/dcmitype/StillImage"/>
    <dc:date>2023-09-07T03:30:45.293653</dc:date>
    <dc:format>image/svg+xml</dc:format>
    <dc:creator>
     <cc:Agent>
      <dc:title>Matplotlib v3.7.2, https://matplotlib.org/</dc:title>
     </cc:Agent>
    </dc:creator>
   </cc:Work>
  </rdf:RDF>
 </metadata>
 <defs>
  <style type="text/css">*{stroke-linejoin: round; stroke-linecap: butt}</style>
 </defs>
 <g id="figure_1">
  <g id="patch_1">
   <path d="M 0 304.99625 
L 588.843125 304.99625 
L 588.843125 0 
L 0 0 
L 0 304.99625 
z
" style="fill: none"/>
  </g>
  <g id="axes_1">
   <g id="patch_2">
    <path d="M 30.123125 277.92 
L 588.123125 277.92 
L 588.123125 0.72 
L 30.123125 0.72 
L 30.123125 277.92 
z
" style="fill: none"/>
   </g>
   <g id="matplotlib.axis_1">
    <g id="xtick_1">
     <g id="line2d_1">
      <path d="M 30.123125 277.92 
L 30.123125 0.72 
" clip-path="url(#p74abdd1852)" style="fill: none; stroke-dasharray: 0.8,1.32; stroke-dashoffset: 0; stroke: #000000; stroke-opacity: 0.5; stroke-width: 0.8"/>
     </g>
     <g id="line2d_2">
      <defs>
       <path id="ma40a26f372" d="M 0 0 
L 0 3.5 
" style="stroke: #000000; stroke-width: 0.8"/>
      </defs>
      <g>
       <use xlink:href="#ma40a26f372" x="30.123125" y="277.92" style="stroke: #000000; stroke-width: 0.8"/>
      </g>
     </g>
     <g id="text_1">
      <!-- 0.0 -->
      <g transform="translate(22.171563 292.518438) scale(0.1 -0.1)">
       <defs>
        <path id="DejaVuSans-30" d="M 2034 4250 
Q 1547 4250 1301 3770 
Q 1056 3291 1056 2328 
Q 1056 1369 1301 889 
Q 1547 409 2034 409 
Q 2525 409 2770 889 
Q 3016 1369 3016 2328 
Q 3016 3291 2770 3770 
Q 2525 4250 2034 4250 
z
M 2034 4750 
Q 2819 4750 3233 4129 
Q 3647 3509 3647 2328 
Q 3647 1150 3233 529 
Q 2819 -91 2034 -91 
Q 1250 -91 836 529 
Q 422 1150 422 2328 
Q 422 3509 836 4129 
Q 1250 4750 2034 4750 
z
" transform="scale(0.015625)"/>
        <path id="DejaVuSans-2e" d="M 684 794 
L 1344 794 
L 1344 0 
L 684 0 
L 684 794 
z
" transform="scale(0.015625)"/>
       </defs>
       <use xlink:href="#DejaVuSans-30"/>
       <use xlink:href="#DejaVuSans-2e" x="63.623047"/>
       <use xlink:href="#DejaVuSans-30" x="95.410156"/>
      </g>
     </g>
    </g>
    <g id="xtick_2">
     <g id="line2d_3">
      <path d="M 104.27445 277.92 
L 104.27445 0.72 
" clip-path="url(#p74abdd1852)" style="fill: none; stroke-dasharray: 0.8,1.32; stroke-dashoffset: 0; stroke: #000000; stroke-opacity: 0.5; stroke-width: 0.8"/>
     </g>
     <g id="line2d_4">
      <g>
       <use xlink:href="#ma40a26f372" x="104.27445" y="277.92" style="stroke: #000000; stroke-width: 0.8"/>
      </g>
     </g>
     <g id="text_2">
      <!-- 2.5 -->
      <g transform="translate(96.322887 292.518438) scale(0.1 -0.1)">
       <defs>
        <path id="DejaVuSans-32" d="M 1228 531 
L 3431 531 
L 3431 0 
L 469 0 
L 469 531 
Q 828 903 1448 1529 
Q 2069 2156 2228 2338 
Q 2531 2678 2651 2914 
Q 2772 3150 2772 3378 
Q 2772 3750 2511 3984 
Q 2250 4219 1831 4219 
Q 1534 4219 1204 4116 
Q 875 4013 500 3803 
L 500 4441 
Q 881 4594 1212 4672 
Q 1544 4750 1819 4750 
Q 2544 4750 2975 4387 
Q 3406 4025 3406 3419 
Q 3406 3131 3298 2873 
Q 3191 2616 2906 2266 
Q 2828 2175 2409 1742 
Q 1991 1309 1228 531 
z
" transform="scale(0.015625)"/>
        <path id="DejaVuSans-35" d="M 691 4666 
L 3169 4666 
L 3169 4134 
L 1269 4134 
L 1269 2991 
Q 1406 3038 1543 3061 
Q 1681 3084 1819 3084 
Q 2600 3084 3056 2656 
Q 3513 2228 3513 1497 
Q 3513 744 3044 326 
Q 2575 -91 1722 -91 
Q 1428 -91 1123 -41 
Q 819 9 494 109 
L 494 744 
Q 775 591 1075 516 
Q 1375 441 1709 441 
Q 2250 441 2565 725 
Q 2881 1009 2881 1497 
Q 2881 1984 2565 2268 
Q 2250 2553 1709 2553 
Q 1456 2553 1204 2497 
Q 953 2441 691 2322 
L 691 4666 
z
" transform="scale(0.015625)"/>
       </defs>
       <use xlink:href="#DejaVuSans-32"/>
       <use xlink:href="#DejaVuSans-2e" x="63.623047"/>
       <use xlink:href="#DejaVuSans-35" x="95.410156"/>
      </g>
     </g>
    </g>
    <g id="xtick_3">
     <g id="line2d_5">
      <path d="M 178.425775 277.92 
L 178.425775 0.72 
" clip-path="url(#p74abdd1852)" style="fill: none; stroke-dasharray: 0.8,1.32; stroke-dashoffset: 0; stroke: #000000; stroke-opacity: 0.5; stroke-width: 0.8"/>
     </g>
     <g id="line2d_6">
      <g>
       <use xlink:href="#ma40a26f372" x="178.425775" y="277.92" style="stroke: #000000; stroke-width: 0.8"/>
      </g>
     </g>
     <g id="text_3">
      <!-- 5.0 -->
      <g transform="translate(170.474212 292.518438) scale(0.1 -0.1)">
       <use xlink:href="#DejaVuSans-35"/>
       <use xlink:href="#DejaVuSans-2e" x="63.623047"/>
       <use xlink:href="#DejaVuSans-30" x="95.410156"/>
      </g>
     </g>
    </g>
    <g id="xtick_4">
     <g id="line2d_7">
      <path d="M 252.5771 277.92 
L 252.5771 0.72 
" clip-path="url(#p74abdd1852)" style="fill: none; stroke-dasharray: 0.8,1.32; stroke-dashoffset: 0; stroke: #000000; stroke-opacity: 0.5; stroke-width: 0.8"/>
     </g>
     <g id="line2d_8">
      <g>
       <use xlink:href="#ma40a26f372" x="252.5771" y="277.92" style="stroke: #000000; stroke-width: 0.8"/>
      </g>
     </g>
     <g id="text_4">
      <!-- 7.5 -->
      <g transform="translate(244.625537 292.518438) scale(0.1 -0.1)">
       <defs>
        <path id="DejaVuSans-37" d="M 525 4666 
L 3525 4666 
L 3525 4397 
L 1831 0 
L 1172 0 
L 2766 4134 
L 525 4134 
L 525 4666 
z
" transform="scale(0.015625)"/>
       </defs>
       <use xlink:href="#DejaVuSans-37"/>
       <use xlink:href="#DejaVuSans-2e" x="63.623047"/>
       <use xlink:href="#DejaVuSans-35" x="95.410156"/>
      </g>
     </g>
    </g>
    <g id="xtick_5">
     <g id="line2d_9">
      <path d="M 326.728425 277.92 
L 326.728425 0.72 
" clip-path="url(#p74abdd1852)" style="fill: none; stroke-dasharray: 0.8,1.32; stroke-dashoffset: 0; stroke: #000000; stroke-opacity: 0.5; stroke-width: 0.8"/>
     </g>
     <g id="line2d_10">
      <g>
       <use xlink:href="#ma40a26f372" x="326.728425" y="277.92" style="stroke: #000000; stroke-width: 0.8"/>
      </g>
     </g>
     <g id="text_5">
      <!-- 10.0 -->
      <g transform="translate(315.595612 292.518438) scale(0.1 -0.1)">
       <defs>
        <path id="DejaVuSans-31" d="M 794 531 
L 1825 531 
L 1825 4091 
L 703 3866 
L 703 4441 
L 1819 4666 
L 2450 4666 
L 2450 531 
L 3481 531 
L 3481 0 
L 794 0 
L 794 531 
z
" transform="scale(0.015625)"/>
       </defs>
       <use xlink:href="#DejaVuSans-31"/>
       <use xlink:href="#DejaVuSans-30" x="63.623047"/>
       <use xlink:href="#DejaVuSans-2e" x="127.246094"/>
       <use xlink:href="#DejaVuSans-30" x="159.033203"/>
      </g>
     </g>
    </g>
    <g id="xtick_6">
     <g id="line2d_11">
      <path d="M 400.87975 277.92 
L 400.87975 0.72 
" clip-path="url(#p74abdd1852)" style="fill: none; stroke-dasharray: 0.8,1.32; stroke-dashoffset: 0; stroke: #000000; stroke-opacity: 0.5; stroke-width: 0.8"/>
     </g>
     <g id="line2d_12">
      <g>
       <use xlink:href="#ma40a26f372" x="400.87975" y="277.92" style="stroke: #000000; stroke-width: 0.8"/>
      </g>
     </g>
     <g id="text_6">
      <!-- 12.5 -->
      <g transform="translate(389.746937 292.518438) scale(0.1 -0.1)">
       <use xlink:href="#DejaVuSans-31"/>
       <use xlink:href="#DejaVuSans-32" x="63.623047"/>
       <use xlink:href="#DejaVuSans-2e" x="127.246094"/>
       <use xlink:href="#DejaVuSans-35" x="159.033203"/>
      </g>
     </g>
    </g>
    <g id="xtick_7">
     <g id="line2d_13">
      <path d="M 475.031075 277.92 
L 475.031075 0.72 
" clip-path="url(#p74abdd1852)" style="fill: none; stroke-dasharray: 0.8,1.32; stroke-dashoffset: 0; stroke: #000000; stroke-opacity: 0.5; stroke-width: 0.8"/>
     </g>
     <g id="line2d_14">
      <g>
       <use xlink:href="#ma40a26f372" x="475.031075" y="277.92" style="stroke: #000000; stroke-width: 0.8"/>
      </g>
     </g>
     <g id="text_7">
      <!-- 15.0 -->
      <g transform="translate(463.898262 292.518438) scale(0.1 -0.1)">
       <use xlink:href="#DejaVuSans-31"/>
       <use xlink:href="#DejaVuSans-35" x="63.623047"/>
       <use xlink:href="#DejaVuSans-2e" x="127.246094"/>
       <use xlink:href="#DejaVuSans-30" x="159.033203"/>
      </g>
     </g>
    </g>
    <g id="xtick_8">
     <g id="line2d_15">
      <path d="M 549.182399 277.92 
L 549.182399 0.72 
" clip-path="url(#p74abdd1852)" style="fill: none; stroke-dasharray: 0.8,1.32; stroke-dashoffset: 0; stroke: #000000; stroke-opacity: 0.5; stroke-width: 0.8"/>
     </g>
     <g id="line2d_16">
      <g>
       <use xlink:href="#ma40a26f372" x="549.182399" y="277.92" style="stroke: #000000; stroke-width: 0.8"/>
      </g>
     </g>
     <g id="text_8">
      <!-- 17.5 -->
      <g transform="translate(538.049587 292.518438) scale(0.1 -0.1)">
       <use xlink:href="#DejaVuSans-31"/>
       <use xlink:href="#DejaVuSans-37" x="63.623047"/>
       <use xlink:href="#DejaVuSans-2e" x="127.246094"/>
       <use xlink:href="#DejaVuSans-35" x="159.033203"/>
      </g>
     </g>
    </g>
    <g id="text_9">
     <!-- Zeit [s] -->
     <g transform="translate(291.177031 302.196563) scale(0.1 -0.1)">
      <defs>
       <path id="DejaVuSans-5a" d="M 359 4666 
L 4025 4666 
L 4025 4184 
L 1075 531 
L 4097 531 
L 4097 0 
L 288 0 
L 288 481 
L 3238 4134 
L 359 4134 
L 359 4666 
z
" transform="scale(0.015625)"/>
       <path id="DejaVuSans-65" d="M 3597 1894 
L 3597 1613 
L 953 1613 
Q 991 1019 1311 708 
Q 1631 397 2203 397 
Q 2534 397 2845 478 
Q 3156 559 3463 722 
L 3463 178 
Q 3153 47 2828 -22 
Q 2503 -91 2169 -91 
Q 1331 -91 842 396 
Q 353 884 353 1716 
Q 353 2575 817 3079 
Q 1281 3584 2069 3584 
Q 2775 3584 3186 3129 
Q 3597 2675 3597 1894 
z
M 3022 2063 
Q 3016 2534 2758 2815 
Q 2500 3097 2075 3097 
Q 1594 3097 1305 2825 
Q 1016 2553 972 2059 
L 3022 2063 
z
" transform="scale(0.015625)"/>
       <path id="DejaVuSans-69" d="M 603 3500 
L 1178 3500 
L 1178 0 
L 603 0 
L 603 3500 
z
M 603 4863 
L 1178 4863 
L 1178 4134 
L 603 4134 
L 603 4863 
z
" transform="scale(0.015625)"/>
       <path id="DejaVuSans-74" d="M 1172 4494 
L 1172 3500 
L 2356 3500 
L 2356 3053 
L 1172 3053 
L 1172 1153 
Q 1172 725 1289 603 
Q 1406 481 1766 481 
L 2356 481 
L 2356 0 
L 1766 0 
Q 1100 0 847 248 
Q 594 497 594 1153 
L 594 3053 
L 172 3053 
L 172 3500 
L 594 3500 
L 594 4494 
L 1172 4494 
z
" transform="scale(0.015625)"/>
       <path id="DejaVuSans-20" transform="scale(0.015625)"/>
       <path id="DejaVuSans-5b" d="M 550 4863 
L 1875 4863 
L 1875 4416 
L 1125 4416 
L 1125 -397 
L 1875 -397 
L 1875 -844 
L 550 -844 
L 550 4863 
z
" transform="scale(0.015625)"/>
       <path id="DejaVuSans-73" d="M 2834 3397 
L 2834 2853 
Q 2591 2978 2328 3040 
Q 2066 3103 1784 3103 
Q 1356 3103 1142 2972 
Q 928 2841 928 2578 
Q 928 2378 1081 2264 
Q 1234 2150 1697 2047 
L 1894 2003 
Q 2506 1872 2764 1633 
Q 3022 1394 3022 966 
Q 3022 478 2636 193 
Q 2250 -91 1575 -91 
Q 1294 -91 989 -36 
Q 684 19 347 128 
L 347 722 
Q 666 556 975 473 
Q 1284 391 1588 391 
Q 1994 391 2212 530 
Q 2431 669 2431 922 
Q 2431 1156 2273 1281 
Q 2116 1406 1581 1522 
L 1381 1569 
Q 847 1681 609 1914 
Q 372 2147 372 2553 
Q 372 3047 722 3315 
Q 1072 3584 1716 3584 
Q 2034 3584 2315 3537 
Q 2597 3491 2834 3397 
z
" transform="scale(0.015625)"/>
       <path id="DejaVuSans-5d" d="M 1947 4863 
L 1947 -844 
L 622 -844 
L 622 -397 
L 1369 -397 
L 1369 4416 
L 622 4416 
L 622 4863 
L 1947 4863 
z
" transform="scale(0.015625)"/>
      </defs>
      <use xlink:href="#DejaVuSans-5a"/>
      <use xlink:href="#DejaVuSans-65" x="68.505859"/>
      <use xlink:href="#DejaVuSans-69" x="130.029297"/>
      <use xlink:href="#DejaVuSans-74" x="157.8125"/>
      <use xlink:href="#DejaVuSans-20" x="197.021484"/>
      <use xlink:href="#DejaVuSans-5b" x="228.808594"/>
      <use xlink:href="#DejaVuSans-73" x="267.822266"/>
      <use xlink:href="#DejaVuSans-5d" x="319.921875"/>
     </g>
    </g>
   </g>
   <g id="matplotlib.axis_2">
    <g id="ytick_1">
     <g id="line2d_17">
      <path d="M 30.123125 276.382476 
L 588.123125 276.382476 
" clip-path="url(#p74abdd1852)" style="fill: none; stroke-dasharray: 0.8,1.32; stroke-dashoffset: 0; stroke: #000000; stroke-opacity: 0.5; stroke-width: 0.8"/>
     </g>
     <g id="line2d_18">
      <defs>
       <path id="m1cd983bfd5" d="M 0 0 
L -3.5 0 
" style="stroke: #000000; stroke-width: 0.8"/>
      </defs>
      <g>
       <use xlink:href="#m1cd983bfd5" x="30.123125" y="276.382476" style="stroke: #000000; stroke-width: 0.8"/>
      </g>
     </g>
     <g id="text_10">
      <!-- 0 -->
      <g transform="translate(16.760625 280.181694) scale(0.1 -0.1)">
       <use xlink:href="#DejaVuSans-30"/>
      </g>
     </g>
    </g>
    <g id="ytick_2">
     <g id="line2d_19">
      <path d="M 30.123125 225.018644 
L 588.123125 225.018644 
" clip-path="url(#p74abdd1852)" style="fill: none; stroke-dasharray: 0.8,1.32; stroke-dashoffset: 0; stroke: #000000; stroke-opacity: 0.5; stroke-width: 0.8"/>
     </g>
     <g id="line2d_20">
      <g>
       <use xlink:href="#m1cd983bfd5" x="30.123125" y="225.018644" style="stroke: #000000; stroke-width: 0.8"/>
      </g>
     </g>
     <g id="text_11">
      <!-- 10 -->
      <g transform="translate(10.398125 228.817863) scale(0.1 -0.1)">
       <use xlink:href="#DejaVuSans-31"/>
       <use xlink:href="#DejaVuSans-30" x="63.623047"/>
      </g>
     </g>
    </g>
    <g id="ytick_3">
     <g id="line2d_21">
      <path d="M 30.123125 173.654812 
L 588.123125 173.654812 
" clip-path="url(#p74abdd1852)" style="fill: none; stroke-dasharray: 0.8,1.32; stroke-dashoffset: 0; stroke: #000000; stroke-opacity: 0.5; stroke-width: 0.8"/>
     </g>
     <g id="line2d_22">
      <g>
       <use xlink:href="#m1cd983bfd5" x="30.123125" y="173.654812" style="stroke: #000000; stroke-width: 0.8"/>
      </g>
     </g>
     <g id="text_12">
      <!-- 20 -->
      <g transform="translate(10.398125 177.454031) scale(0.1 -0.1)">
       <use xlink:href="#DejaVuSans-32"/>
       <use xlink:href="#DejaVuSans-30" x="63.623047"/>
      </g>
     </g>
    </g>
    <g id="ytick_4">
     <g id="line2d_23">
      <path d="M 30.123125 122.29098 
L 588.123125 122.29098 
" clip-path="url(#p74abdd1852)" style="fill: none; stroke-dasharray: 0.8,1.32; stroke-dashoffset: 0; stroke: #000000; stroke-opacity: 0.5; stroke-width: 0.8"/>
     </g>
     <g id="line2d_24">
      <g>
       <use xlink:href="#m1cd983bfd5" x="30.123125" y="122.29098" style="stroke: #000000; stroke-width: 0.8"/>
      </g>
     </g>
     <g id="text_13">
      <!-- 30 -->
      <g transform="translate(10.398125 126.090199) scale(0.1 -0.1)">
       <defs>
        <path id="DejaVuSans-33" d="M 2597 2516 
Q 3050 2419 3304 2112 
Q 3559 1806 3559 1356 
Q 3559 666 3084 287 
Q 2609 -91 1734 -91 
Q 1441 -91 1130 -33 
Q 819 25 488 141 
L 488 750 
Q 750 597 1062 519 
Q 1375 441 1716 441 
Q 2309 441 2620 675 
Q 2931 909 2931 1356 
Q 2931 1769 2642 2001 
Q 2353 2234 1838 2234 
L 1294 2234 
L 1294 2753 
L 1863 2753 
Q 2328 2753 2575 2939 
Q 2822 3125 2822 3475 
Q 2822 3834 2567 4026 
Q 2313 4219 1838 4219 
Q 1578 4219 1281 4162 
Q 984 4106 628 3988 
L 628 4550 
Q 988 4650 1302 4700 
Q 1616 4750 1894 4750 
Q 2613 4750 3031 4423 
Q 3450 4097 3450 3541 
Q 3450 3153 3228 2886 
Q 3006 2619 2597 2516 
z
" transform="scale(0.015625)"/>
       </defs>
       <use xlink:href="#DejaVuSans-33"/>
       <use xlink:href="#DejaVuSans-30" x="63.623047"/>
      </g>
     </g>
    </g>
    <g id="ytick_5">
     <g id="line2d_25">
      <path d="M 30.123125 70.927148 
L 588.123125 70.927148 
" clip-path="url(#p74abdd1852)" style="fill: none; stroke-dasharray: 0.8,1.32; stroke-dashoffset: 0; stroke: #000000; stroke-opacity: 0.5; stroke-width: 0.8"/>
     </g>
     <g id="line2d_26">
      <g>
       <use xlink:href="#m1cd983bfd5" x="30.123125" y="70.927148" style="stroke: #000000; stroke-width: 0.8"/>
      </g>
     </g>
     <g id="text_14">
      <!-- 40 -->
      <g transform="translate(10.398125 74.726367) scale(0.1 -0.1)">
       <defs>
        <path id="DejaVuSans-34" d="M 2419 4116 
L 825 1625 
L 2419 1625 
L 2419 4116 
z
M 2253 4666 
L 3047 4666 
L 3047 1625 
L 3713 1625 
L 3713 1100 
L 3047 1100 
L 3047 0 
L 2419 0 
L 2419 1100 
L 313 1100 
L 313 1709 
L 2253 4666 
z
" transform="scale(0.015625)"/>
       </defs>
       <use xlink:href="#DejaVuSans-34"/>
       <use xlink:href="#DejaVuSans-30" x="63.623047"/>
      </g>
     </g>
    </g>
    <g id="ytick_6">
     <g id="line2d_27">
      <path d="M 30.123125 19.563316 
L 588.123125 19.563316 
" clip-path="url(#p74abdd1852)" style="fill: none; stroke-dasharray: 0.8,1.32; stroke-dashoffset: 0; stroke: #000000; stroke-opacity: 0.5; stroke-width: 0.8"/>
     </g>
     <g id="line2d_28">
      <g>
       <use xlink:href="#m1cd983bfd5" x="30.123125" y="19.563316" style="stroke: #000000; stroke-width: 0.8"/>
      </g>
     </g>
     <g id="text_15">
      <!-- 50 -->
      <g transform="translate(10.398125 23.362535) scale(0.1 -0.1)">
       <use xlink:href="#DejaVuSans-35"/>
       <use xlink:href="#DejaVuSans-30" x="63.623047"/>
      </g>
     </g>
    </g>
    <g id="text_16">
     <!-- 2-Norm F [N] -->
     <g transform="translate(8.318437 171.639531) rotate(-90) scale(0.1 -0.1)">
      <defs>
       <path id="DejaVuSans-2d" d="M 313 2009 
L 1997 2009 
L 1997 1497 
L 313 1497 
L 313 2009 
z
" transform="scale(0.015625)"/>
       <path id="DejaVuSans-4e" d="M 628 4666 
L 1478 4666 
L 3547 763 
L 3547 4666 
L 4159 4666 
L 4159 0 
L 3309 0 
L 1241 3903 
L 1241 0 
L 628 0 
L 628 4666 
z
" transform="scale(0.015625)"/>
       <path id="DejaVuSans-6f" d="M 1959 3097 
Q 1497 3097 1228 2736 
Q 959 2375 959 1747 
Q 959 1119 1226 758 
Q 1494 397 1959 397 
Q 2419 397 2687 759 
Q 2956 1122 2956 1747 
Q 2956 2369 2687 2733 
Q 2419 3097 1959 3097 
z
M 1959 3584 
Q 2709 3584 3137 3096 
Q 3566 2609 3566 1747 
Q 3566 888 3137 398 
Q 2709 -91 1959 -91 
Q 1206 -91 779 398 
Q 353 888 353 1747 
Q 353 2609 779 3096 
Q 1206 3584 1959 3584 
z
" transform="scale(0.015625)"/>
       <path id="DejaVuSans-72" d="M 2631 2963 
Q 2534 3019 2420 3045 
Q 2306 3072 2169 3072 
Q 1681 3072 1420 2755 
Q 1159 2438 1159 1844 
L 1159 0 
L 581 0 
L 581 3500 
L 1159 3500 
L 1159 2956 
Q 1341 3275 1631 3429 
Q 1922 3584 2338 3584 
Q 2397 3584 2469 3576 
Q 2541 3569 2628 3553 
L 2631 2963 
z
" transform="scale(0.015625)"/>
       <path id="DejaVuSans-6d" d="M 3328 2828 
Q 3544 3216 3844 3400 
Q 4144 3584 4550 3584 
Q 5097 3584 5394 3201 
Q 5691 2819 5691 2113 
L 5691 0 
L 5113 0 
L 5113 2094 
Q 5113 2597 4934 2840 
Q 4756 3084 4391 3084 
Q 3944 3084 3684 2787 
Q 3425 2491 3425 1978 
L 3425 0 
L 2847 0 
L 2847 2094 
Q 2847 2600 2669 2842 
Q 2491 3084 2119 3084 
Q 1678 3084 1418 2786 
Q 1159 2488 1159 1978 
L 1159 0 
L 581 0 
L 581 3500 
L 1159 3500 
L 1159 2956 
Q 1356 3278 1631 3431 
Q 1906 3584 2284 3584 
Q 2666 3584 2933 3390 
Q 3200 3197 3328 2828 
z
" transform="scale(0.015625)"/>
       <path id="DejaVuSans-46" d="M 628 4666 
L 3309 4666 
L 3309 4134 
L 1259 4134 
L 1259 2759 
L 3109 2759 
L 3109 2228 
L 1259 2228 
L 1259 0 
L 628 0 
L 628 4666 
z
" transform="scale(0.015625)"/>
      </defs>
      <use xlink:href="#DejaVuSans-32"/>
      <use xlink:href="#DejaVuSans-2d" x="63.623047"/>
      <use xlink:href="#DejaVuSans-4e" x="99.707031"/>
      <use xlink:href="#DejaVuSans-6f" x="174.511719"/>
      <use xlink:href="#DejaVuSans-72" x="235.693359"/>
      <use xlink:href="#DejaVuSans-6d" x="275.056641"/>
      <use xlink:href="#DejaVuSans-20" x="372.46875"/>
      <use xlink:href="#DejaVuSans-46" x="404.255859"/>
      <use xlink:href="#DejaVuSans-20" x="461.775391"/>
      <use xlink:href="#DejaVuSans-5b" x="493.5625"/>
      <use xlink:href="#DejaVuSans-4e" x="532.576172"/>
      <use xlink:href="#DejaVuSans-5d" x="607.380859"/>
     </g>
    </g>
   </g>
   <g id="line2d_29">
    <path d="M 30.123125 113.836088 
L 214.868789 113.836088 
L 215.174569 109.462706 
L 215.352363 113.775504 
L 215.881492 114.195417 
L 216.118788 113.783028 
L 216.894668 115.743319 
L 217.134269 115.802969 
L 217.371343 115.656689 
L 217.609101 115.838253 
L 217.84713 114.933378 
L 218.145853 115.576897 
L 218.327664 115.399565 
L 218.62446 115.292755 
L 218.804764 115.397216 
L 219.04314 114.087829 
L 219.099552 115.659813 
L 219.337705 115.161598 
L 219.577209 115.042919 
L 220.112245 115.682755 
L 220.351264 115.628444 
L 220.593088 115.414384 
L 220.832019 113.893695 
L 221.127934 115.536732 
L 221.618941 115.582327 
L 221.793381 116.239812 
L 222.029109 115.989595 
L 222.326252 116.277765 
L 222.565413 115.501869 
L 222.862676 113.700209 
L 223.250459 114.92816 
L 223.284031 116.340435 
L 223.757138 114.979706 
L 223.93637 115.039106 
L 224.054822 116.020774 
L 224.536297 114.831462 
L 224.828764 114.967639 
L 225.008197 111.273971 
L 225.246975 116.123591 
L 225.48488 114.071067 
L 225.783985 115.546256 
L 226.080183 112.761047 
L 226.258988 116.427221 
L 226.736293 112.792837 
L 227.052978 115.264777 
L 227.347263 114.09018 
L 227.704792 114.923104 
L 228.004529 114.093325 
L 228.2416 113.991869 
L 228.540151 113.657215 
L 228.778137 113.833037 
L 229.315336 116.427065 
L 229.495215 116.536616 
L 229.910847 113.161507 
L 229.971073 116.951574 
L 230.209576 115.51579 
L 230.448768 115.332309 
L 230.685381 114.900313 
L 230.925624 115.878265 
L 231.169394 114.882052 
L 231.461092 117.273004 
L 231.64355 117.608765 
L 231.937494 115.514605 
L 232.234864 114.331918 
L 232.41411 116.573732 
L 232.772152 114.975668 
L 233.010197 111.912042 
L 233.189651 116.039787 
L 233.426944 114.234288 
L 233.665209 113.98281 
L 233.964375 116.020439 
L 234.560156 116.775076 
L 234.739127 114.377751 
L 235.036373 114.497813 
L 235.159733 115.271849 
L 235.456875 114.571205 
L 235.873879 111.641501 
L 236.152149 115.359615 
L 236.380411 114.816898 
L 236.619096 117.01581 
L 237.124182 115.250912 
L 237.362134 117.880139 
L 237.823038 114.753622 
L 237.958255 115.079013 
L 238.081129 114.833398 
L 238.375106 116.781701 
L 238.614552 114.202244 
L 238.852576 117.686685 
L 239.089839 117.604753 
L 239.328388 116.125474 
L 239.74564 111.674819 
L 240.163568 118.301707 
L 240.469002 115.25199 
L 240.641159 112.168756 
L 240.839294 115.370525 
L 241.15113 116.088668 
L 241.417307 115.976011 
L 241.537532 113.809297 
L 241.797094 115.062686 
L 242.074872 117.118962 
L 242.313392 121.122421 
L 242.61055 114.331284 
L 242.791468 115.264031 
L 243.087029 110.987273 
L 243.326209 112.144361 
L 243.624349 118.637012 
L 243.864177 118.008663 
L 244.046071 114.479075 
L 244.281023 116.2957 
L 244.578787 120.811041 
L 244.75774 114.736504 
L 245.057575 113.598433 
L 245.353135 116.944317 
L 245.533112 116.462882 
L 245.771346 118.433344 
L 246.010666 111.038998 
L 246.25026 117.241273 
L 246.486483 114.041561 
L 246.903507 115.565738 
L 247.261493 110.175577 
L 247.322644 118.25131 
L 247.499549 112.964019 
L 247.738568 114.136438 
L 247.977313 117.026513 
L 248.217025 113.803617 
L 248.633886 114.201116 
L 248.754909 116.955287 
L 249.050994 109.557533 
L 249.230972 118.81172 
L 249.825402 113.932452 
L 250.065445 114.678206 
L 250.197543 109.422047 
L 250.480138 113.402058 
L 250.778526 108.544434 
L 251.10823 116.402803 
L 251.35046 116.403734 
L 251.496339 112.691845 
L 251.793546 111.356064 
L 251.91476 115.146128 
L 252.211462 113.007426 
L 252.569641 116.697492 
L 252.943275 117.122583 
L 253.223118 111.288762 
L 253.596059 115.113473 
L 253.706875 113.886357 
L 253.949097 114.3824 
L 254.176532 115.193859 
L 254.414511 122.754108 
L 254.772085 119.360391 
L 254.951149 108.808729 
L 255.368012 113.97818 
L 255.487213 111.359063 
L 255.72571 115.096808 
L 255.906162 109.417831 
L 256.263516 115.504226 
L 256.679177 116.492677 
L 256.919839 121.503455 
L 257.335085 112.344477 
L 257.575925 116.149741 
L 257.812261 105.968424 
L 257.872486 118.614281 
L 258.110123 120.344659 
L 258.408772 117.786483 
L 258.714732 120.211683 
L 258.945141 113.714594 
L 259.183935 115.474787 
L 259.380165 114.265649 
L 259.719814 119.916083 
L 259.958324 108.95241 
L 260.153103 112.165478 
L 260.377085 119.501301 
L 260.63748 115.462443 
L 260.853957 115.742836 
L 261.150946 121.797811 
L 261.507691 122.302862 
L 261.746044 120.236405 
L 261.865445 120.407294 
L 262.282279 115.234598 
L 262.343313 110.662393 
L 262.58071 112.544451 
L 262.9389 116.567333 
L 263.181965 107.863114 
L 263.356124 115.563818 
L 263.894307 119.870696 
L 264.074825 115.174804 
L 264.548274 113.062313 
L 264.795642 104.675068 
L 265.084502 114.215072 
L 265.263629 114.836415 
L 265.589764 118.993867 
L 265.839685 114.4597 
L 266.278576 112.688431 
L 266.65796 117.628661 
L 266.933887 118.031632 
L 267.058163 120.12021 
L 267.411941 121.415824 
L 267.533703 111.62472 
L 267.828523 117.400783 
L 268.014101 115.102376 
L 268.432639 116.901118 
L 268.66939 118.589923 
L 268.782396 123.163383 
L 269.210781 110.677081 
L 269.399388 110.888079 
L 269.559354 118.190269 
L 269.740843 114.89666 
L 270.096093 121.463935 
L 270.244804 111.185263 
L 270.57606 122.264875 
L 271.051486 118.614961 
L 271.232644 114.471404 
L 271.527868 115.80083 
L 271.707272 117.936664 
L 272.005238 113.371675 
L 272.244122 112.965042 
L 272.600777 107.104832 
L 272.780413 118.902984 
L 273.077454 111.375177 
L 273.214384 111.010878 
L 273.49424 118.69746 
L 273.676928 114.158381 
L 273.733969 105.047657 
L 274.154043 114.876499 
L 274.688678 105.885651 
L 274.92665 110.6365 
L 275.284632 128.266122 
L 275.709159 103.966035 
L 275.940247 116.082261 
L 276.183647 120.281927 
L 276.476713 114.444393 
L 276.654938 106.783849 
L 276.89657 113.755933 
L 277.310749 114.845676 
L 277.431092 108.671305 
L 277.669096 124.675208 
L 277.912507 111.198473 
L 278.147 112.657684 
L 278.389726 107.736909 
L 278.62756 112.635849 
L 278.882733 113.559084 
L 279.104418 122.869806 
L 279.521077 116.05967 
L 279.644821 108.238408 
L 279.879687 115.080028 
L 280.117835 111.297501 
L 280.655358 122.94565 
L 280.861082 120.144111 
L 281.075381 101.963633 
L 281.848016 122.994768 
L 281.967945 113.199432 
L 282.086192 123.236322 
L 282.503676 104.502259 
L 282.569068 117.22061 
L 282.845801 116.276248 
L 283.11584 117.809109 
L 283.300149 120.833859 
L 283.815288 105.042594 
L 284.052888 114.22765 
L 284.35126 113.444009 
L 284.589595 116.786164 
L 284.827867 108.90741 
L 285.309372 112.147429 
L 285.544541 108.948336 
L 285.84146 125.152564 
L 286.086887 112.441107 
L 286.31931 111.254166 
L 286.793973 119.906396 
L 287.337543 110.132895 
L 287.568415 110.442559 
L 287.814733 112.255555 
L 288.046685 111.014579 
L 288.227943 115.804642 
L 288.582163 115.594467 
L 288.772627 110.551831 
L 289.059287 111.858593 
L 289.240755 107.968717 
L 289.5502 107.846157 
L 289.715678 123.161053 
L 289.955778 115.297383 
L 290.253021 114.674058 
L 290.490549 106.037476 
L 290.728749 127.536947 
L 291.226862 114.785366 
L 291.982018 125.72151 
L 292.220479 110.44238 
L 292.474488 110.375853 
L 292.700077 110.542473 
L 293.114361 112.293429 
L 293.23364 122.157867 
L 293.531567 108.097438 
L 293.710872 115.539865 
L 294.067926 111.709135 
L 294.246711 125.473213 
L 294.427073 106.461527 
L 294.961636 122.746799 
L 295.165343 118.097844 
L 295.446431 120.740791 
L 295.739424 120.697866 
L 296.036723 110.420412 
L 296.573182 120.901239 
L 297.168915 106.338121 
L 297.46677 118.697174 
L 297.649372 101.843303 
L 298.005595 103.944205 
L 298.182339 116.924876 
L 298.421822 108.905342 
L 298.616337 115.994757 
L 298.902056 115.304933 
L 299.27704 113.762726 
L 299.520358 111.605667 
L 299.688283 105.334358 
L 299.919438 128.094807 
L 300.15821 121.34063 
L 300.459561 116.456772 
L 300.707047 122.370149 
L 300.933861 109.83754 
L 301.075791 119.347055 
L 301.550623 106.392945 
L 301.622126 114.166359 
L 301.909523 112.688509 
L 302.147583 104.22339 
L 302.328316 117.514707 
L 302.684087 129.481135 
L 302.863023 113.174514 
L 303.231896 107.865872 
L 303.401839 112.285553 
L 303.637999 123.070923 
L 304.122059 103.350204 
L 304.35329 113.696572 
L 304.710537 113.794371 
L 304.83295 6.050769 
L 305.188585 22.071611 
L 305.425805 20.606567 
L 305.856091 93.887456 
L 306.200463 87.100974 
L 306.322127 110.567753 
L 306.5592 117.867018 
L 306.858029 113.082915 
L 307.214392 114.274488 
L 307.302903 117.180393 
L 307.637296 120.186108 
L 308.072346 117.353209 
L 308.315617 116.807064 
L 308.615877 112.468971 
L 308.730339 115.373633 
L 309.031207 113.517484 
L 309.383594 113.24736 
L 309.680858 114.4305 
L 309.800414 113.356788 
L 309.979502 114.449358 
L 310.339239 113.056537 
L 310.815115 113.754144 
L 311.118203 113.43889 
L 311.235178 113.812536 
L 311.53079 113.309541 
L 311.768573 113.840086 
L 311.948446 113.836095 
L 312.245044 113.386613 
L 312.485119 113.83609 
L 312.722319 113.121431 
L 312.960637 113.772974 
L 313.20461 113.821462 
L 313.498378 113.114022 
L 313.737928 113.680302 
L 313.977518 113.829446 
L 314.930803 113.838072 
L 315.168853 113.550444 
L 315.584216 113.600687 
L 315.70406 116.208569 
L 316.189983 113.777469 
L 316.42247 113.642272 
L 316.718399 113.869851 
L 317.074647 113.572987 
L 317.25364 113.217549 
L 317.432363 113.77792 
L 317.671794 113.496596 
L 317.914895 113.557568 
L 318.151071 113.829909 
L 318.472675 113.73552 
L 319.399299 113.836009 
L 319.640538 113.823641 
L 319.876818 114.684051 
L 320.115788 113.616845 
L 320.792128 113.85833 
L 321.128649 113.501439 
L 321.783254 113.813263 
L 322.677386 113.821988 
L 322.932735 113.662291 
L 323.154001 113.797612 
L 324.108231 113.82764 
L 324.34571 114.51807 
L 324.644577 113.791361 
L 325.361729 113.808026 
L 325.600816 113.824739 
L 325.846358 113.722145 
L 327.089964 113.763883 
L 327.329977 113.53533 
L 327.805164 113.863832 
L 328.521239 113.809367 
L 329.537129 113.836087 
L 329.78167 113.537002 
L 330.611606 113.828094 
L 330.911342 113.576653 
L 331.03036 113.825086 
L 332.04186 113.793557 
L 332.340041 113.643422 
L 332.518753 113.824264 
L 332.757093 113.750239 
L 333.235316 113.810563 
L 333.712145 113.761108 
L 334.486028 113.836347 
L 334.844506 113.625767 
L 334.984644 113.836087 
L 338.006855 113.826784 
L 338.243577 113.690277 
L 338.667195 113.834554 
L 340.091225 113.832311 
L 341.885672 113.822223 
L 342.177346 113.344639 
L 342.475516 113.812591 
L 342.95267 113.823218 
L 343.130565 113.507447 
L 343.487863 113.528705 
L 343.668495 113.829859 
L 344.383512 113.831613 
L 344.621943 113.589115 
L 344.978549 113.824935 
L 345.397608 113.834477 
L 345.81238 113.616534 
L 345.888162 113.787974 
L 346.110473 113.75422 
L 346.587455 113.833269 
L 347.183678 113.836087 
L 347.311673 113.630824 
L 347.613688 113.836082 
L 347.850702 113.836061 
L 348.315877 113.595326 
L 348.735232 113.642003 
L 348.852659 113.817324 
L 349.687634 113.833082 
L 349.820433 113.797316 
L 351.360174 113.836019 
L 351.843685 113.817906 
L 352.374827 113.612151 
L 352.749419 113.833368 
L 353.035816 113.757325 
L 353.507395 113.836071 
L 354.570502 113.74701 
L 354.823842 113.526556 
L 355.043759 113.834802 
L 355.242315 113.831225 
L 355.536683 113.621022 
L 356.013465 113.835777 
L 356.966011 113.8302 
L 357.263948 113.446584 
L 357.561894 113.834753 
L 357.740879 113.828287 
L 358.050798 113.633551 
L 358.282011 113.836087 
L 359.948326 113.82413 
L 360.249998 113.674276 
L 360.734118 113.831437 
L 361.442071 113.823441 
L 361.86062 113.387876 
L 361.981036 113.806978 
L 362.635531 113.834473 
L 362.932628 113.649516 
L 363.175411 113.830089 
L 364.193249 113.792232 
L 364.481886 113.710469 
L 365.139245 113.832987 
L 365.554762 113.606035 
L 365.613505 112.90639 
L 365.976781 113.830005 
L 367.945628 113.785859 
L 368.121376 113.422844 
L 368.35622 113.830548 
L 368.895572 113.833742 
L 369.074435 113.537289 
L 369.311398 113.606801 
L 369.591203 113.827694 
L 370.326098 113.836032 
L 370.623659 113.610653 
L 370.803099 113.835938 
L 375.511584 113.700335 
L 375.750485 113.834004 
L 376.644826 113.741415 
L 376.76228 113.618071 
L 377.062374 113.835708 
L 377.358092 113.834433 
L 377.775253 113.684747 
L 378.492265 113.83234 
L 378.908437 113.836028 
L 379.02867 113.524811 
L 379.741872 113.835557 
L 379.980884 113.644774 
L 380.457053 113.83591 
L 382.187031 113.830426 
L 382.486546 113.38885 
L 382.903756 113.767903 
L 383.681727 113.834492 
L 384.154398 113.69279 
L 384.634599 113.833612 
L 385.04816 113.64231 
L 385.882286 113.83523 
L 386.776852 113.823423 
L 386.895865 113.691622 
L 387.437755 113.82841 
L 387.90932 113.831167 
L 388.863173 113.833978 
L 389.101136 113.73056 
L 389.637792 113.818469 
L 389.876192 113.834385 
L 390.114282 113.648437 
L 390.353094 113.836033 
L 391.249654 113.820683 
L 391.487436 113.581824 
L 391.606455 113.732536 
L 392.085061 113.823147 
L 392.861108 113.831219 
L 393.575418 113.833104 
L 393.874001 113.450584 
L 394.051656 113.764526 
L 394.528838 113.836049 
L 394.826644 113.818878 
L 395.017934 113.633663 
L 395.253901 113.835515 
L 396.261625 113.809934 
L 396.568199 113.544678 
L 396.795982 113.834954 
L 397.272992 113.813595 
L 397.51473 113.461745 
L 397.752949 113.833 
L 398.583536 113.834773 
L 398.764426 113.303027 
L 399.001204 113.443661 
L 399.240305 113.830052 
L 399.838134 113.793249 
L 400.018676 113.334235 
L 400.25682 113.836012 
L 401.090948 113.734658 
L 401.210035 113.555435 
L 401.449325 113.483257 
L 401.746659 113.830584 
L 403.477521 113.808754 
L 403.716528 113.596754 
L 404.205773 113.830069 
L 404.682655 113.789611 
L 405.205132 113.807556 
L 406.092994 113.833653 
L 406.153896 113.640521 
L 406.450599 113.824724 
L 410.746981 113.834712 
L 411.107896 113.745025 
L 411.34439 113.691028 
L 411.582876 113.835265 
L 412.121829 113.834055 
L 412.358327 113.709354 
L 412.595369 113.835529 
L 413.846124 113.803667 
L 413.854636 98.256743 
L 414.089273 113.832348 
L 414.445526 113.668321 
L 414.625302 113.775744 
L 416.775368 113.818911 
L 417.194986 113.386847 
L 417.249598 113.635097 
L 417.792339 113.832667 
L 419.065712 113.833769 
L 419.279479 113.670267 
L 420.771635 113.836053 
L 421.016292 113.682313 
L 421.248394 113.306435 
L 421.487584 113.835071 
L 421.725162 113.54833 
L 421.964634 113.497941 
L 422.524135 113.835906 
L 422.742295 113.834735 
L 422.977964 82.851722 
L 423.217836 100.504235 
L 423.463809 97.781757 
L 423.71597 101.816503 
L 423.948356 111.174134 
L 424.182209 102.462699 
L 424.441549 106.730877 
L 424.77729 106.793744 
L 425.083864 116.791907 
L 425.214343 113.85273 
L 425.498742 112.463042 
L 425.741988 125.052762 
L 426.396486 108.371675 
L 426.938394 123.100913 
L 427.413328 113.462407 
L 427.783895 117.102273 
L 427.944655 125.452241 
L 428.247611 112.672766 
L 428.482465 114.166314 
L 428.720579 117.910254 
L 429.021035 110.894171 
L 429.260467 115.545811 
L 429.568158 105.799547 
L 429.711448 112.35033 
L 429.862725 111.338184 
L 430.128007 117.321051 
L 430.398889 120.252149 
L 430.714162 116.663887 
L 430.879803 116.728725 
L 431.229767 110.508664 
L 431.434036 114.852639 
L 431.647958 102.942758 
L 431.94717 110.338108 
L 432.125555 126.108648 
L 432.364081 117.05735 
L 432.605916 127.480145 
L 433.080902 108.240332 
L 433.437867 118.061091 
L 433.616895 115.831913 
L 433.881968 115.115568 
L 434.096693 127.720572 
L 434.502401 106.393796 
L 434.927308 118.061139 
L 435.157711 115.786792 
L 435.455677 119.553109 
L 435.636023 109.545981 
L 435.814278 112.481287 
L 436.291054 118.002878 
L 436.41292 113.856443 
L 436.649919 112.656797 
L 436.831453 116.322894 
L 437.186556 112.013683 
L 437.312162 116.567428 
L 437.570496 120.560816 
L 437.843319 118.768776 
L 438.081803 112.638692 
L 438.323842 115.457023 
L 438.559792 128.092902 
L 438.802744 116.785755 
L 439.037712 123.679622 
L 439.276447 114.190561 
L 439.758679 107.944109 
L 440.05765 119.762644 
L 440.245579 112.880873 
L 440.535103 107.969544 
L 440.773037 107.782579 
L 441.012501 118.374152 
L 441.428656 116.052852 
L 441.516433 113.198286 
L 441.787362 121.296967 
L 442.084382 112.196413 
L 442.382254 114.423988 
L 442.562402 107.932911 
L 442.800832 110.732413 
L 443.046215 117.688519 
L 443.278965 116.079297 
L 443.459506 115.678321 
L 443.69767 122.847533 
L 443.947028 123.291435 
L 444.485158 110.750077 
L 444.718411 110.059013 
L 445.089995 113.859797 
L 445.253115 113.546151 
L 445.309914 119.911413 
L 445.429631 114.711253 
L 445.754679 113.16025 
L 445.965514 105.692376 
L 446.385918 117.128242 
L 446.46744 107.817434 
L 446.692181 109.619287 
L 446.921039 127.853514 
L 447.160166 106.809734 
L 447.581647 110.01888 
L 447.77106 115.68928 
L 448.007332 102.100705 
L 448.187218 112.677183 
L 448.604346 123.55476 
L 448.665006 111.693246 
L 449.082957 128.703989 
L 449.321269 115.771559 
L 449.382798 118.301374 
L 449.796559 111.194541 
L 449.916047 105.58532 
L 450.39305 118.0407 
L 450.810193 113.387229 
L 450.929587 115.048431 
L 451.168624 110.347596 
L 451.412842 115.524716 
L 451.467111 111.93083 
L 451.647295 114.265294 
L 451.884706 104.966908 
L 452.125859 115.132759 
L 452.421661 106.968743 
L 452.60151 113.862133 
L 452.921195 112.227476 
L 453.081445 110.150687 
L 453.61798 116.992379 
L 453.860324 115.859362 
L 454.156172 113.360162 
L 454.574673 100.604554 
L 454.872956 121.024001 
L 455.059449 113.503218 
L 455.616064 119.440761 
L 455.830337 104.334448 
L 456.088598 111.277589 
L 456.543655 110.005458 
L 456.791016 122.364801 
L 457.08999 112.692821 
L 457.331101 112.027328 
L 457.629665 101.441524 
L 457.86423 116.634697 
L 458.103932 109.305812 
L 458.283498 113.107708 
L 458.581721 126.115927 
L 458.819546 117.006426 
L 459.21735 113.543659 
L 459.36474 116.356559 
L 459.541358 122.823661 
L 459.932015 117.461322 
L 460.074569 109.797426 
L 460.381478 117.287678 
L 460.5515 107.140016 
L 460.799795 117.189709 
L 461.269733 112.310587 
L 461.513684 111.73174 
L 461.748647 112.989442 
L 462.055702 112.617926 
L 462.30345 113.780427 
L 462.527031 101.382498 
L 462.764051 117.613157 
L 463.302327 103.209388 
L 463.485536 124.728421 
L 463.782033 115.826403 
L 464.077098 112.818139 
L 464.256499 114.116712 
L 464.674389 113.801159 
L 465.020548 121.89778 
L 465.488509 102.375073 
L 465.790576 119.375891 
L 465.97518 110.825212 
L 466.26574 114.268981 
L 466.57014 119.483234 
L 466.745966 120.446521 
L 466.935855 107.096397 
L 467.221898 115.176091 
L 467.460772 125.871088 
L 467.699642 114.844367 
L 467.937374 112.382798 
L 468.176245 115.498149 
L 468.415774 107.534031 
L 468.83277 110.749417 
L 468.981905 116.214245 
L 469.370258 111.542212 
L 469.48914 120.612323 
L 469.727716 115.296613 
L 469.966174 124.48352 
L 470.263839 114.496832 
L 470.396051 114.709817 
L 470.655533 117.65014 
L 470.92555 112.364134 
L 471.22054 115.5666 
L 471.419186 111.301306 
L 471.638963 117.633914 
L 471.879649 103.820743 
L 472.25946 112.991395 
L 472.417567 108.981794 
L 472.921173 121.136549 
L 473.43748 107.664489 
L 473.921895 113.87134 
L 474.160422 113.187135 
L 474.41647 111.307918 
L 474.707352 112.896283 
L 474.828936 116.030215 
L 475.121189 114.519777 
L 475.41949 104.482322 
L 475.717586 114.785054 
L 475.8371 113.641975 
L 476.134988 113.841976 
L 476.381417 113.81763 
L 476.629215 110.478137 
L 476.851197 110.977488 
L 477.091035 111.993395 
L 477.389133 108.93469 
L 477.627668 113.582929 
L 477.868291 110.67581 
L 478.10364 112.253425 
L 478.342011 118.274337 
L 478.826827 110.456621 
L 479.060672 113.873463 
L 479.297561 113.243556 
L 479.657767 116.539785 
L 480.07565 115.493306 
L 480.372025 120.320309 
L 480.908489 103.017745 
L 481.160632 114.513515 
L 481.327084 110.383585 
L 481.625403 115.463085 
L 481.863208 106.726088 
L 482.101703 112.479413 
L 482.304165 111.002087 
L 482.520064 122.317259 
L 482.821931 123.403618 
L 483.114886 115.634653 
L 483.361665 114.265737 
L 483.533599 120.272433 
L 483.774518 105.22237 
L 484.010657 110.56658 
L 484.326117 113.642254 
L 484.505097 112.519204 
L 484.74324 118.419158 
L 485.281302 111.684863 
L 485.579122 107.15478 
L 485.761522 112.254787 
L 486.00095 113.876157 
L 486.234616 113.875733 
L 486.712954 102.639213 
L 487.011874 117.892989 
L 487.308375 111.734763 
L 487.486924 114.279832 
L 487.789707 122.275992 
L 488.027649 112.079655 
L 488.264475 110.66223 
L 488.551393 112.211697 
L 488.74236 111.388219 
L 488.947743 111.25492 
L 489.223121 113.071132 
L 489.567603 120.89818 
L 489.765197 107.235338 
L 490.241965 118.918135 
L 490.480897 100.585006 
L 490.719876 117.722843 
L 490.957726 112.274569 
L 491.196684 113.133137 
L 491.437921 121.789312 
L 491.7338 117.090772 
L 491.913495 104.274296 
L 492.229516 115.362808 
L 492.270594 113.410399 
L 492.750643 107.420362 
L 493.046267 112.846622 
L 493.224707 107.479571 
L 493.705361 116.625793 
L 493.763164 116.331785 
L 493.941431 103.639763 
L 494.186117 113.235166 
L 494.378916 113.813048 
L 494.671594 113.879897 
L 494.896223 124.46848 
L 495.135806 117.395127 
L 495.492868 111.530051 
L 495.671719 112.255577 
L 495.8502 100.778991 
L 496.327882 116.93323 
L 496.689799 116.826803 
L 496.932019 112.35117 
L 497.168272 116.079946 
L 497.402562 113.24956 
L 497.640581 115.790981 
L 497.886356 121.424266 
L 498.36707 110.859059 
L 498.61362 114.156678 
L 498.851685 108.579747 
L 499.328344 117.011074 
L 499.626206 108.533953 
L 499.810671 120.1694 
L 500.407404 103.742139 
L 500.640172 107.685151 
L 500.895681 116.775525 
L 501.118825 120.560631 
L 501.54229 103.519269 
L 501.595042 117.900826 
L 501.833482 105.618418 
L 502.311959 112.504131 
L 502.552589 122.674008 
L 503.047454 112.69995 
L 503.35207 113.461782 
L 503.566242 110.206409 
L 503.822888 109.708446 
L 504.044032 116.554967 
L 504.28324 116.54188 
L 504.522981 108.755348 
L 504.834976 111.104761 
L 505.239393 111.69428 
L 505.300663 114.592877 
L 505.535876 111.507275 
L 506.018683 112.348521 
L 506.191851 113.624567 
L 506.323481 107.044441 
L 506.51083 120.782443 
L 506.868182 100.542256 
L 507.310485 116.030298 
L 507.538751 114.251001 
L 507.777893 110.975771 
L 508.020555 112.039159 
L 508.382825 107.250291 
L 508.542524 113.883392 
L 508.779841 117.762879 
L 509.136823 113.754253 
L 509.322995 121.169466 
L 509.498514 114.813076 
L 509.793481 126.360129 
L 510.100802 108.906604 
L 510.273436 107.321316 
L 510.57202 111.768599 
L 510.750414 111.808506 
L 511.008762 114.80561 
L 511.345579 122.314697 
L 511.480353 112.160346 
L 511.762084 132.869346 
L 512.059912 123.332604 
L 512.242212 124.245809 
L 512.479777 126.7269 
L 512.735515 128.126538 
L 513.015383 122.043021 
L 513.258013 120.166701 
L 513.493993 122.032072 
L 513.737555 113.39255 
L 513.98405 117.33175 
L 514.271062 111.896569 
L 514.886935 112.441601 
L 515.118139 113.459437 
L 515.464023 113.462872 
L 515.751347 113.773583 
L 516.47737 113.994558 
L 516.537113 113.844922 
L 517.02374 113.853929 
L 517.313039 113.989073 
L 517.434501 113.763681 
L 518.510826 114.016797 
L 518.628969 113.836088 
L 519.531398 113.846061 
L 520.126108 113.851725 
L 520.550263 113.843328 
L 520.787013 113.728242 
L 520.905252 112.708859 
L 521.153729 113.985977 
L 521.688459 114.160689 
L 521.867987 113.898451 
L 522.284766 113.890363 
L 522.525965 113.671438 
L 522.88244 114.055275 
L 523.060019 113.808826 
L 523.241434 113.802561 
L 523.502993 114.285614 
L 523.621431 113.835092 
L 524.560008 113.770737 
L 524.856122 113.094424 
L 525.090462 114.468516 
L 525.344652 113.836103 
L 525.566766 113.829362 
L 525.865341 114.182364 
L 526.071316 114.002073 
L 526.340708 113.97512 
L 526.648874 113.757213 
L 526.88049 113.890077 
L 528.86213 113.809194 
L 530.052813 113.857052 
L 532.013949 113.839026 
L 532.256848 113.941075 
L 532.798258 113.83675 
L 584.219664 113.836088 
L 588.123125 113.836088 
L 588.123125 113.836088 
" clip-path="url(#p74abdd1852)" style="fill: none; stroke: #0000ff; stroke-opacity: 0.5; stroke-width: 1.5; stroke-linecap: square"/>
   </g>
   <g id="line2d_30">
    <path d="M 30.123125 231.115782 
L 30.243229 237.625123 
L 30.486116 229.558407 
L 30.557313 234.215394 
L 30.731329 234.211213 
L 31.037373 229.440848 
L 31.327909 232.764562 
L 31.506195 229.558991 
L 31.923103 231.694826 
L 32.162159 231.223329 
L 32.221858 226.745714 
L 32.877472 228.30389 
L 32.997127 227.367345 
L 33.17951 227.544593 
L 33.653719 226.060985 
L 33.711815 227.933142 
L 33.949895 230.656861 
L 34.249184 229.000698 
L 34.548368 230.010251 
L 34.784407 235.478143 
L 35.09803 226.472003 
L 35.202211 231.449454 
L 35.440196 228.843687 
L 35.680758 234.38698 
L 35.921247 232.804322 
L 36.219665 229.3956 
L 36.45436 228.79361 
L 36.692543 232.346614 
L 36.991361 232.735484 
L 37.290297 227.417991 
L 37.477325 228.791517 
L 37.795109 227.897003 
L 37.9492 234.682631 
L 38.187362 227.570915 
L 38.426084 231.500903 
L 38.845069 226.68845 
L 39.025819 229.173744 
L 39.141686 225.121204 
L 39.386493 224.281215 
L 39.623805 227.152435 
L 39.864478 224.679757 
L 40.157225 226.377311 
L 40.761003 223.447336 
L 42.062125 223.253656 
L 43.367109 229.353718 
L 44.671261 233.460283 
L 45.976925 231.042475 
L 47.281433 225.657838 
L 48.705717 223.405691 
L 50.128922 229.142181 
L 51.434106 230.081706 
L 51.57471 228.052338 
L 51.812153 229.977168 
L 52.050631 233.07909 
L 52.289467 233.043034 
L 52.586503 230.639936 
L 52.886204 233.41129 
L 53.302218 224.018795 
L 53.486445 235.375357 
L 53.724718 233.863476 
L 54.024313 230.093602 
L 54.259287 235.83961 
L 54.556581 229.061138 
L 54.736482 221.38635 
L 55.273244 234.360741 
L 55.467003 232.786419 
L 55.751287 232.057393 
L 56.345893 224.450154 
L 56.465073 232.855741 
L 56.704089 225.755367 
L 56.944147 224.55439 
L 57.256521 230.707206 
L 57.728825 222.033556 
L 58.017138 229.315094 
L 58.496914 224.323239 
L 58.554841 228.672782 
L 58.73306 230.74638 
L 59.034689 222.41267 
L 59.209199 225.105072 
L 59.44949 234.306582 
L 59.745617 236.585121 
L 60.043738 234.554873 
L 60.222841 231.042883 
L 60.403984 230.424944 
L 60.64031 234.389166 
L 60.944152 231.59431 
L 61.237203 225.419672 
L 61.715964 238.297615 
L 62.143661 221.21906 
L 62.438157 229.552689 
L 62.912993 227.132776 
L 63.03352 221.121829 
L 63.209892 227.167063 
L 63.690549 229.668962 
L 63.985083 228.845848 
L 64.22513 220.526184 
L 64.879419 231.640824 
L 65.062323 233.619143 
L 65.357585 233.485337 
L 65.416545 230.679142 
L 65.655168 228.482552 
L 65.893737 229.165948 
L 66.13269 226.678907 
L 66.430089 227.103298 
L 66.727873 235.839572 
L 66.970351 232.482442 
L 67.155014 225.360755 
L 67.337045 223.671312 
L 67.384113 224.501098 
L 67.623363 224.447424 
L 67.920084 230.765342 
L 68.099572 230.992071 
L 68.400149 228.330944 
L 68.635181 234.338993 
L 68.831969 230.929695 
L 69.113303 221.722884 
L 69.648721 237.59745 
L 69.828646 232.26434 
L 70.364473 226.665281 
L 70.604592 225.771131 
L 70.841707 229.022983 
L 71.081502 224.540445 
L 71.556813 235.604595 
L 71.916442 225.628825 
L 72.107502 215.883636 
L 72.571167 228.387784 
L 72.813078 224.037476 
L 73.285966 223.952885 
L 73.405631 231.809097 
L 73.533411 232.362226 
L 73.771535 220.817599 
L 74.06134 223.088991 
L 74.240998 231.796706 
L 74.479719 230.736613 
L 74.836059 223.237447 
L 75.014712 227.429156 
L 75.252807 239.102212 
L 75.492926 238.901482 
L 75.730169 227.521114 
L 76.03133 227.749231 
L 76.326464 235.004747 
L 76.504579 232.387629 
L 76.74421 224.53424 
L 76.9816 223.229697 
L 77.220316 226.180733 
L 77.459085 226.014467 
L 77.828201 226.334115 
L 78.352324 235.324363 
L 78.710955 222.189341 
L 78.949354 224.526653 
L 79.486138 238.139199 
L 79.723821 236.039468 
L 80.207078 223.913352 
L 80.620533 224.265299 
L 80.738543 223.024726 
L 81.156745 222.736721 
L 81.632744 232.654843 
L 81.701524 229.728122 
L 82.28836 226.373168 
L 82.525984 226.821142 
L 82.76482 227.621876 
L 82.884097 228.426191 
L 83.301675 230.386516 
L 83.42214 229.81515 
L 83.65888 227.670548 
L 83.95646 228.225223 
L 84.374481 234.103002 
L 84.611577 234.944124 
L 84.910127 231.443181 
L 85.110066 226.163778 
L 85.446597 222.749172 
L 85.62518 230.233097 
L 85.925641 237.781654 
L 86.639769 219.200356 
L 86.877809 223.552935 
L 87.119265 225.880666 
L 87.68467 228.211179 
L 88.074374 230.946965 
L 88.193412 228.491214 
L 88.315062 216.740662 
L 88.906364 233.287811 
L 89.110173 230.754199 
L 89.400225 221.877853 
L 89.683795 220.6016 
L 89.823044 228.75222 
L 90.099263 236.4744 
L 90.337841 233.176904 
L 90.64591 226.179541 
L 90.945765 232.944575 
L 91.201973 234.618767 
L 91.415977 229.818727 
L 92.011313 226.335591 
L 92.146557 236.340668 
L 93.488713 237.500108 
L 94.785954 234.640219 
L 96.214674 233.328789 
L 96.293872 241.875913 
L 96.473623 245.699332 
L 96.711862 242.920923 
L 97.074424 233.323095 
L 97.308195 222.833992 
L 97.686532 216.879843 
L 97.92573 221.808259 
L 98.047122 234.104425 
L 98.475806 245.701695 
L 98.710281 242.122753 
L 99.485287 224.945915 
L 99.784846 230.86487 
L 99.968119 238.838784 
L 100.260785 243.135798 
L 100.523046 239.670688 
L 100.738207 228.427004 
L 101.216585 213.476534 
L 101.812573 238.056138 
L 101.996101 246.566879 
L 102.174517 248.151731 
L 102.415399 242.170751 
L 102.672407 231.001163 
L 102.911282 229.192575 
L 103.197331 235.765783 
L 103.43232 238.477432 
L 103.670041 234.048043 
L 104.150888 218.481806 
L 104.945448 228.429728 
L 105.161456 234.640533 
L 105.408597 230.067373 
L 105.713669 227.070727 
L 106.160856 239.474226 
L 106.503376 241.407111 
L 106.934132 223.665741 
L 107.557411 218.079993 
L 107.836389 235.721217 
L 107.924162 239.629212 
L 108.096103 235.196175 
L 108.403218 233.023861 
L 108.751208 232.554116 
L 108.869716 231.667973 
L 109.108055 231.904465 
L 109.346408 233.963856 
L 109.644451 234.363812 
L 109.826568 233.027837 
L 110.070783 226.2732 
L 110.376659 221.473217 
L 110.548337 221.264593 
L 110.909811 221.577159 
L 111.14379 217.702291 
L 111.441506 215.109625 
L 111.565491 220.101641 
L 111.918924 228.687301 
L 112.226819 226.837487 
L 112.336216 212.689537 
L 112.543413 207.404891 
L 113.053698 224.741755 
L 113.53258 215.080973 
L 113.770127 216.42311 
L 114.245108 216.563046 
L 114.310838 213.491315 
L 114.556275 221.651098 
L 114.781234 235.734708 
L 115.209623 244.365737 
L 115.317793 236.618628 
L 115.61574 232.847065 
L 115.976003 240.312925 
L 116.270541 239.653806 
L 116.569447 241.832269 
L 116.750403 245.870537 
L 117.047544 243.93492 
L 117.285619 236.907769 
L 117.477914 227.335765 
L 117.768034 230.099529 
L 118.011209 235.986526 
L 118.24798 235.444965 
L 118.481002 233.100432 
L 118.72141 236.005014 
L 119.017786 238.187773 
L 119.375468 235.953262 
L 119.494707 231.016139 
L 119.732972 226.318131 
L 120.09092 226.061625 
L 120.210514 226.993967 
L 120.448563 227.302267 
L 121.043937 227.406456 
L 121.341609 226.37227 
L 121.464325 224.305986 
L 121.701278 226.892553 
L 122.177311 235.988777 
L 122.415395 237.129485 
L 123.010685 231.580489 
L 123.190873 231.34431 
L 123.430234 231.44016 
L 123.691312 228.835849 
L 123.908968 225.380278 
L 124.150336 224.174264 
L 124.700735 215.595056 
L 124.889447 217.479307 
L 125.220204 224.552246 
L 125.401555 221.251171 
L 125.668755 213.739833 
L 125.894202 219.782484 
L 126.131985 231.383198 
L 126.372849 237.119145 
L 126.608482 227.277367 
L 126.920112 219.182902 
L 127.144875 224.159212 
L 127.382657 232.76177 
L 127.68191 231.352035 
L 127.920227 228.157782 
L 128.517721 237.202594 
L 128.765008 232.929288 
L 129.116412 218.149193 
L 129.651956 226.733747 
L 130.083068 219.676014 
L 130.441832 221.498483 
L 130.661043 225.390475 
L 130.961592 226.09545 
L 131.138807 228.178756 
L 131.616767 231.6009 
L 131.854443 231.27585 
L 132.096269 228.693515 
L 132.347436 230.127734 
L 132.812366 241.018411 
L 133.303897 238.086858 
L 133.363543 226.257916 
L 133.544501 216.543728 
L 133.840629 218.310441 
L 134.318419 236.397492 
L 134.555696 238.986101 
L 134.79427 233.407163 
L 135.277918 216.205775 
L 135.749047 222.182901 
L 136.046357 232.683694 
L 136.285333 229.605834 
L 136.767559 215.610919 
L 136.999688 217.708916 
L 137.663156 240.514882 
L 137.774022 241.277974 
L 138.316728 224.122742 
L 138.734072 235.028229 
L 139.027314 236.878857 
L 139.502682 227.783932 
L 139.919867 224.031983 
L 140.039132 225.907657 
L 140.218729 232.382831 
L 140.696325 233.32156 
L 140.993643 230.672976 
L 141.233561 232.270117 
L 141.650085 237.572816 
L 141.710006 242.082521 
L 142.066893 240.423166 
L 142.186284 229.835673 
L 142.543422 221.740562 
L 142.974196 228.733601 
L 143.323312 239.437112 
L 143.733788 224.189887 
L 143.972115 221.39195 
L 144.153138 222.745468 
L 144.452424 226.9564 
L 144.508894 230.92988 
L 144.808878 236.059319 
L 144.929544 233.469119 
L 145.165993 224.3726 
L 145.540709 218.326943 
L 145.939563 237.874465 
L 146.237569 240.002924 
L 146.953767 216.023767 
L 147.193091 215.846426 
L 147.552202 223.405372 
L 147.674874 230.632903 
L 147.909183 229.905837 
L 148.445008 204.724549 
L 148.683247 203.602539 
L 149.340587 236.809783 
L 149.696123 241.789307 
L 150.114281 233.887709 
L 150.353263 224.647803 
L 151.127183 245.407112 
L 151.429682 244.363255 
L 151.843085 219.958072 
L 152.25949 213.20111 
L 152.856313 238.292308 
L 153.093514 230.294045 
L 153.336347 217.748938 
L 153.585148 211.4924 
L 153.815303 212.80181 
L 154.348741 229.65694 
L 154.590437 229.59123 
L 155.069819 208.062673 
L 155.302867 209.558233 
L 155.791014 234.346719 
L 156.017564 234.88881 
L 156.376312 230.933449 
L 156.613293 229.603863 
L 156.852889 231.898849 
L 157.269852 241.981561 
L 157.509359 242.656936 
L 158.102889 233.727947 
L 158.281537 235.962917 
L 158.519803 242.725584 
L 158.818143 243.237338 
L 159.355875 225.573733 
L 159.772821 224.66974 
L 160.01174 225.103593 
L 160.253272 223.72524 
L 160.488021 221.408563 
L 160.785791 221.871665 
L 161.149648 224.405912 
L 161.321501 227.982631 
L 161.501895 228.950089 
L 161.823421 226.243331 
L 161.979535 223.976273 
L 162.458281 229.572975 
L 162.878592 229.669354 
L 163.05243 227.977116 
L 163.520893 226.170572 
L 164.006575 225.19827 
L 164.190188 230.190848 
L 164.455759 233.799478 
L 164.95958 225.300434 
L 165.327701 229.592186 
L 165.438082 237.370219 
L 165.778621 234.402932 
L 165.9349 221.150244 
L 166.156096 219.307516 
L 166.694247 232.637089 
L 167.168822 219.562099 
L 167.705995 231.175395 
L 167.943967 227.806174 
L 168.200014 221.083922 
L 168.542479 229.119622 
L 168.669936 235.733994 
L 168.957028 231.741445 
L 169.376025 222.359324 
L 169.731463 226.941637 
L 169.972569 233.060511 
L 170.14909 234.389703 
L 170.642672 234.18033 
L 171.162429 215.550769 
L 171.580111 210.745885 
L 171.820131 219.12548 
L 171.954995 227.85479 
L 172.175036 227.269025 
L 172.385265 216.006787 
L 172.624439 210.174006 
L 173.095965 223.536539 
L 173.337088 225.616084 
L 173.572511 224.669777 
L 173.93217 229.624962 
L 174.288453 230.62797 
L 174.476954 227.476477 
L 174.592496 223.5513 
L 174.830529 222.939738 
L 175.088536 221.582979 
L 175.326337 221.325893 
L 175.628548 225.4164 
L 175.863382 230.956238 
L 176.101154 231.640447 
L 176.486975 226.073971 
L 176.582323 221.945165 
L 176.834618 225.109292 
L 177.076525 233.179254 
L 177.414033 239.067293 
L 177.831051 223.955815 
L 178.070408 221.287445 
L 178.546525 239.178346 
L 178.803738 239.822196 
L 179.14201 235.392718 
L 179.559603 233.381765 
L 179.857375 230.704023 
L 180.095911 229.978721 
L 180.274733 230.601045 
L 180.512414 229.434663 
L 180.751387 229.676337 
L 181.228681 231.252395 
L 181.46599 235.1997 
L 181.585239 233.504003 
L 182.003672 213.178653 
L 182.300098 217.368548 
L 182.489748 226.071698 
L 182.777914 226.798195 
L 183.567179 199.471514 
L 183.737486 206.756605 
L 184.215338 235.941188 
L 184.455332 240.098997 
L 184.935773 228.227808 
L 185.526139 241.017545 
L 185.707429 240.130721 
L 186.241736 235.04277 
L 186.539767 233.30793 
L 186.780047 225.659328 
L 187.074987 220.588328 
L 187.194555 226.231962 
L 187.433041 229.353482 
L 187.671074 221.352315 
L 187.968586 221.592528 
L 188.152506 233.373652 
L 188.445228 235.936346 
L 188.923057 216.867713 
L 189.403438 226.753581 
L 189.641534 222.317881 
L 189.898598 221.643411 
L 190.235291 231.370129 
L 190.478058 226.996584 
L 190.656271 214.653531 
L 190.949235 218.613028 
L 191.247479 227.367322 
L 191.375593 226.326365 
L 191.657719 216.383073 
L 191.908811 217.165059 
L 192.143386 228.246451 
L 192.383733 231.101788 
L 192.644218 218.579557 
L 192.873076 215.932552 
L 193.402165 225.513531 
L 193.878764 220.370336 
L 194.235658 221.635204 
L 194.354985 223.668126 
L 194.597381 223.987047 
L 194.891756 221.984009 
L 195.188929 222.307705 
L 195.367652 221.693437 
L 195.606586 222.11224 
L 195.967819 222.315391 
L 196.440034 225.59531 
L 196.679868 225.583538 
L 197.095478 208.068811 
L 197.343361 207.220495 
L 198.07266 225.120708 
L 198.408702 213.693652 
L 198.706367 217.157226 
L 199.063582 231.271714 
L 199.302587 233.341501 
L 199.543229 232.816557 
L 199.839098 235.003441 
L 200.198469 235.275954 
L 200.326173 231.995474 
L 200.555516 230.03639 
L 200.793135 231.88011 
L 201.221256 232.766674 
L 201.451133 230.699185 
L 201.57063 225.195815 
L 201.809906 225.767135 
L 202.045995 230.727875 
L 202.99891 240.627438 
L 203.297799 235.345284 
L 203.495032 228.656947 
L 203.953625 228.290519 
L 204.01405 233.95715 
L 204.251466 239.885769 
L 204.49043 242.966678 
L 204.788601 237.418987 
L 205.264865 216.680964 
L 205.445051 221.137314 
L 206.220642 247.584126 
L 206.458125 248.884413 
L 206.696362 243.917843 
L 207.175054 230.563988 
L 207.47164 231.887543 
L 207.709979 238.964852 
L 208.009417 243.003692 
L 208.200322 238.985387 
L 208.723269 212.577703 
L 209.020837 206.616949 
L 209.259947 210.676249 
L 209.498086 219.889156 
L 209.915205 242.05077 
L 210.397286 247.77964 
L 210.927992 248.867347 
L 211.231538 249.662952 
L 211.286175 249.559008 
L 211.419618 247.730705 
L 211.950182 230.982956 
L 212.482513 217.37234 
L 212.783079 211.116363 
L 213.135808 194.066095 
L 213.613533 193.119661 
L 214.150582 210.38333 
L 214.62696 231.774183 
L 214.868789 230.997591 
L 215.174569 194.586121 
L 215.352363 211.120975 
L 215.668525 206.286531 
L 215.881492 179.092193 
L 216.359289 206.317517 
L 216.59693 207.796928 
L 216.894668 208.913775 
L 217.371343 199.709154 
L 217.609101 187.564777 
L 218.327664 182.528836 
L 218.62446 201.255611 
L 218.804764 220.418938 
L 219.099552 236.445761 
L 219.577209 241.819144 
L 219.814463 251.38486 
L 220.112245 246.659106 
L 220.351264 248.963194 
L 220.593088 250.003571 
L 221.127934 242.981483 
L 221.486972 242.300359 
L 222.326252 222.800958 
L 222.565413 231.260067 
L 222.862676 231.19416 
L 223.250459 231.817662 
L 223.284031 224.677439 
L 223.93637 248.858185 
L 224.054822 241.873367 
L 224.536297 255.017437 
L 224.828764 258.550942 
L 225.246975 248.311545 
L 225.48488 252.933266 
L 225.783985 241.725288 
L 226.080183 255.011966 
L 226.49779 242.675567 
L 227.347263 222.578116 
L 227.52707 231.39221 
L 228.004529 241.020028 
L 228.2416 252.216407 
L 228.540151 257.440949 
L 228.778137 259.074211 
L 229.016015 263.063041 
L 229.315336 265.943852 
L 229.495215 252.605189 
L 229.910847 261.162112 
L 230.209576 247.120653 
L 230.448768 239.153373 
L 230.685381 237.26446 
L 230.925624 228.426542 
L 231.169394 226.872663 
L 231.461092 229.072724 
L 231.64355 222.935472 
L 231.937494 231.265622 
L 232.234864 229.095778 
L 232.41411 230.276873 
L 232.772152 228.244745 
L 233.010197 233.633153 
L 233.189651 234.119987 
L 233.426944 233.94309 
L 233.665209 229.866223 
L 234.262058 231.67889 
L 234.560156 236.453427 
L 234.739127 236.195601 
L 235.036373 233.161007 
L 235.159733 240.249372 
L 235.691988 248.452006 
L 235.873879 254.908562 
L 236.152149 255.062107 
L 236.380411 250.489816 
L 236.619096 248.716475 
L 237.124182 242.618957 
L 237.362134 237.263397 
L 237.823038 236.951767 
L 238.081129 227.48135 
L 238.375106 241.511127 
L 238.614552 239.47588 
L 238.852576 234.922087 
L 239.089839 246.675749 
L 239.328388 243.373453 
L 239.74564 239.254248 
L 239.98401 239.400559 
L 240.163568 239.859985 
L 240.469002 261.993538 
L 241.15113 228.10959 
L 241.537532 210.688387 
L 241.797094 210.648046 
L 242.313392 228.512006 
L 242.61055 236.798926 
L 242.791468 238.300489 
L 243.087029 244.857689 
L 243.326209 246.479028 
L 243.624349 241.479711 
L 243.864177 241.758643 
L 244.046071 247.432817 
L 244.281023 240.639109 
L 244.578787 228.694398 
L 244.75774 229.570517 
L 245.057575 231.688258 
L 246.010666 203.558608 
L 246.25026 206.177407 
L 246.486483 210.707005 
L 246.903507 194.514601 
L 247.261493 201.112007 
L 247.322644 190.97796 
L 247.499549 189.451523 
L 247.738568 188.845613 
L 247.977313 197.557442 
L 248.217025 215.268267 
L 248.754909 229.20286 
L 249.050994 246.992816 
L 249.230972 247.079032 
L 249.468363 244.411796 
L 249.825402 241.749692 
L 250.065445 252.822719 
L 250.197543 251.653381 
L 250.480138 233.79506 
L 250.778526 239.213228 
L 251.10823 237.061414 
L 251.35046 237.211389 
L 251.496339 244.404801 
L 251.793546 233.126286 
L 252.211462 246.139959 
L 252.569641 260.176399 
L 252.943275 246.487543 
L 253.11038 249.209251 
L 253.223118 245.48999 
L 253.596059 243.853798 
L 253.706875 245.397764 
L 253.949097 238.708815 
L 254.176532 243.864972 
L 254.414511 242.319755 
L 254.772085 233.974538 
L 254.951149 240.985668 
L 255.368012 243.684451 
L 255.487213 246.554003 
L 255.72571 247.457599 
L 255.906162 241.823081 
L 256.263516 254.958552 
L 256.502274 250.74809 
L 256.679177 243.399659 
L 256.919839 228.53338 
L 257.335085 228.460295 
L 257.575925 229.201552 
L 257.812261 249.862621 
L 257.872486 248.623338 
L 258.110123 247.453524 
L 258.408772 251.671628 
L 258.714732 248.361655 
L 258.945141 243.200167 
L 259.183935 247.484223 
L 259.380165 242.312531 
L 259.719814 241.644193 
L 260.153103 247.814834 
L 260.63748 232.132319 
L 260.853957 217.148289 
L 261.150946 209.092074 
L 261.507691 215.348018 
L 261.746044 224.476556 
L 261.865445 236.269327 
L 262.343313 243.282508 
L 262.9389 235.240027 
L 263.181965 247.32625 
L 263.356124 238.495922 
L 263.595345 244.603175 
L 264.074825 228.568589 
L 264.309736 227.689563 
L 264.548274 215.791765 
L 264.795642 220.820775 
L 265.084502 219.81602 
L 265.263629 222.237095 
L 265.589764 221.497654 
L 265.839685 223.894718 
L 266.278576 223.793368 
L 266.465874 226.677991 
L 266.65796 226.094987 
L 266.933887 227.104247 
L 267.058163 221.779468 
L 267.411941 223.219154 
L 267.533703 235.162606 
L 267.828523 241.626372 
L 268.014101 239.407227 
L 268.432639 245.610283 
L 268.66939 236.779521 
L 268.782396 240.477445 
L 269.210781 247.700942 
L 269.399388 238.08649 
L 269.559354 236.338584 
L 269.740843 230.079365 
L 270.096093 211.271677 
L 270.244804 218.135803 
L 270.57606 214.024952 
L 270.814165 219.913642 
L 271.051486 232.354262 
L 271.232644 226.226273 
L 271.527868 240.935223 
L 271.707272 242.915963 
L 272.005238 252.900213 
L 272.244122 244.24249 
L 272.600777 242.855183 
L 272.780413 234.564479 
L 273.214384 229.053897 
L 273.49424 240.192521 
L 273.676928 237.951906 
L 273.733969 248.519733 
L 274.154043 242.536551 
L 274.448747 234.136327 
L 274.688678 230.866418 
L 274.92665 232.744519 
L 275.284632 252.006297 
L 275.58223 243.361818 
L 275.709159 234.973705 
L 275.940247 244.940644 
L 276.183647 250.024213 
L 276.476713 252.269996 
L 276.654938 240.103381 
L 276.89657 243.936994 
L 277.310749 236.242456 
L 277.431092 242.502441 
L 277.912507 251.233307 
L 278.147 242.693956 
L 278.389726 245.24701 
L 278.62756 237.673516 
L 278.882733 252.331987 
L 279.104418 241.416493 
L 279.644821 254.51982 
L 279.879687 244.731035 
L 280.117835 255.281532 
L 280.356532 249.09304 
L 280.655358 245.549015 
L 280.861082 239.652013 
L 281.075381 242.940644 
L 281.43146 239.015603 
L 282.086192 253.18769 
L 282.503676 238.903886 
L 282.569068 253.262533 
L 282.845801 246.802797 
L 283.11584 237.110448 
L 283.300149 248.188203 
L 283.754963 236.202531 
L 283.815288 259.833953 
L 284.35126 248.191349 
L 284.589595 245.289366 
L 284.827867 243.977719 
L 285.125296 238.387636 
L 285.309372 229.96377 
L 285.84146 224.068699 
L 286.086887 242.495939 
L 286.31931 236.414945 
L 286.498631 246.70833 
L 286.793973 246.30244 
L 287.033013 254.604286 
L 287.337543 253.243327 
L 287.568415 242.559389 
L 288.046685 245.851276 
L 288.227943 246.155365 
L 288.582163 245.629627 
L 288.772627 243.736052 
L 289.059287 254.196769 
L 289.240755 244.259067 
L 289.5502 251.659915 
L 289.715678 243.281288 
L 289.955778 248.304942 
L 290.253021 246.738695 
L 290.490549 253.758062 
L 290.728749 257.367548 
L 291.226862 261.154358 
L 291.803087 239.414862 
L 291.982018 247.969703 
L 292.220479 244.330242 
L 292.474488 249.078963 
L 292.700077 245.104641 
L 293.114361 259.313817 
L 293.23364 244.449609 
L 293.531567 246.804522 
L 293.710872 239.754616 
L 294.246711 248.588763 
L 294.427073 260.131537 
L 294.664199 256.854153 
L 294.961636 258.24403 
L 295.165343 255.221717 
L 295.446431 254.154624 
L 296.215985 238.375382 
L 296.573182 242.06676 
L 296.872544 240.142042 
L 296.931043 247.661803 
L 297.46677 252.464159 
L 297.649372 256.649119 
L 298.005595 254.354327 
L 298.182339 231.236922 
L 298.421822 252.130222 
L 298.616337 255.716728 
L 298.902056 257.064159 
L 299.27704 260.334119 
L 299.520358 256.497235 
L 299.919438 236.342262 
L 300.459561 245.904318 
L 300.707047 248.796999 
L 301.075791 256.731134 
L 301.550623 247.584359 
L 301.622126 233.825462 
L 301.909523 222.652595 
L 302.147583 207.440582 
L 302.328316 221.244065 
L 303.231896 264.346306 
L 303.401839 251.397216 
L 303.637999 245.542612 
L 303.995631 240.45376 
L 304.35329 213.394311 
L 304.710537 203.408396 
L 304.83295 143.169274 
L 305.188585 154.270672 
L 305.425805 165.493486 
L 305.604606 164.499809 
L 305.856091 120.640215 
L 306.200463 100.425378 
L 306.322127 70.942719 
L 306.858029 30.796524 
L 307.214392 20.157025 
L 307.302903 20.84994 
L 307.637296 38.661102 
L 308.072346 109.666593 
L 308.315617 167.968594 
L 308.730339 206.817144 
L 309.031207 206.110958 
L 309.680858 183.88202 
L 309.800414 184.505619 
L 309.979502 189.561601 
L 310.579398 237.50619 
L 310.815115 256.269967 
L 311.118203 259.491933 
L 311.235178 235.383584 
L 311.53079 224.682944 
L 311.768573 208.167251 
L 311.948446 209.266366 
L 312.245044 219.748871 
L 312.485119 243.353745 
L 312.960637 267.454838 
L 313.20461 249.395733 
L 313.498378 240.736969 
L 313.977518 217.184491 
L 314.21232 212.138153 
L 314.460792 211.200224 
L 314.930803 217.555796 
L 315.168853 226.440317 
L 315.584216 225.96827 
L 315.70406 221.513611 
L 316.124502 227.246264 
L 316.189983 224.497627 
L 316.42247 244.39956 
L 316.718399 259.954657 
L 317.074647 265.562407 
L 317.432363 237.230258 
L 317.671794 234.289352 
L 317.914895 229.77095 
L 318.151071 228.183436 
L 318.472675 235.870975 
L 318.862617 241.92183 
L 318.922266 247.857649 
L 319.160947 245.818802 
L 319.876818 222.354907 
L 320.115788 208.138451 
L 320.414559 215.827707 
L 320.792128 211.656871 
L 320.895645 214.67563 
L 321.365787 210.906587 
L 321.783254 211.980558 
L 322.20126 217.344568 
L 322.932735 257.654494 
L 323.154001 260.29946 
L 323.41857 246.839757 
L 323.868976 237.834958 
L 324.108231 237.312178 
L 324.888033 270.364895 
L 325.600816 229.789056 
L 325.846358 214.905285 
L 326.201405 206.43259 
L 326.382946 197.537148 
L 326.851781 186.573474 
L 327.329977 181.287292 
L 327.59223 179.259697 
L 327.805164 173.325676 
L 328.043791 170.073587 
L 328.283766 171.245683 
L 328.521239 174.594947 
L 328.937897 175.120025 
L 329.057741 178.474402 
L 329.537129 182.065155 
L 329.78167 185.358988 
L 330.165083 187.098039 
L 330.611606 195.430915 
L 330.911342 194.610964 
L 331.03036 197.683709 
L 331.446123 202.495479 
L 331.743592 220.367493 
L 332.04186 226.264576 
L 332.340041 234.537395 
L 332.518753 236.090134 
L 332.99575 245.018402 
L 333.235316 248.467109 
L 333.537494 250.36701 
L 333.712145 249.514127 
L 334.010529 245.971886 
L 334.486028 225.245207 
L 334.844506 221.415959 
L 334.984644 217.142741 
L 335.202518 217.278694 
L 335.857013 224.972243 
L 336.274475 239.311004 
L 336.455364 250.76722 
L 336.693752 258.519807 
L 337.001593 258.729153 
L 337.229844 253.661626 
L 337.413717 256.054355 
L 337.705231 252.903209 
L 338.006855 251.326798 
L 338.243577 255.565325 
L 338.421009 254.739619 
L 338.667195 261.198515 
L 338.956836 252.823919 
L 339.432863 229.335621 
L 339.672038 231.742151 
L 340.091225 244.722185 
L 340.151334 258.515341 
L 340.645943 266.848028 
L 340.870602 267.438781 
L 341.223721 255.449262 
L 341.462412 252.572129 
L 341.75994 253.898307 
L 342.177346 263.439684 
L 342.475516 257.942534 
L 342.653848 247.688245 
L 342.95267 235.475688 
L 343.130565 227.363232 
L 343.668495 243.994912 
L 343.965723 254.739305 
L 344.383512 254.287128 
L 344.621943 250.426843 
L 344.978549 247.937897 
L 345.397608 254.656632 
L 345.888162 258.120724 
L 346.110473 257.501781 
L 346.349482 259.644479 
L 346.587455 247.515247 
L 346.886033 242.551914 
L 347.183678 247.6978 
L 347.311673 259.438846 
L 347.613688 255.917736 
L 347.850702 255.802369 
L 348.315877 263.337859 
L 348.735232 259.042011 
L 348.852659 252.655618 
L 349.388337 259.891907 
L 349.687634 261.780767 
L 349.820433 255.517895 
L 350.347068 242.026774 
L 350.823744 251.011152 
L 351.068503 250.049808 
L 351.360174 249.67594 
L 351.843685 254.796726 
L 352.085238 254.224817 
L 352.374827 247.243048 
L 352.496506 250.258843 
L 353.035816 235.802667 
L 353.281986 237.671756 
L 353.507395 249.248084 
L 353.80595 258.833793 
L 354.044395 261.922904 
L 354.282966 254.164384 
L 354.570502 248.460149 
L 354.823842 251.022454 
L 355.043759 263.00572 
L 355.536683 267.593104 
L 356.013465 252.903798 
L 356.549483 260.450667 
L 356.72794 261.207593 
L 356.966011 260.52956 
L 357.263948 247.014746 
L 357.561894 244.547972 
L 358.282011 252.788569 
L 358.576173 242.146729 
L 358.757957 230.257614 
L 358.933597 231.697041 
L 359.785285 262.584547 
L 359.948326 254.388249 
L 360.249998 252.199299 
L 360.546592 253.319965 
L 360.734118 258.519366 
L 360.965153 261.19918 
L 361.149668 261.675716 
L 361.442071 254.313311 
L 361.86062 247.382166 
L 361.981036 247.381021 
L 362.336526 244.897437 
L 362.398402 246.996618 
L 362.635531 251.251476 
L 363.175411 252.577803 
L 363.648137 257.464063 
L 363.94589 258.047877 
L 364.193249 249.638379 
L 364.481886 244.122034 
L 364.843571 254.389702 
L 365.017356 264.667628 
L 365.139245 263.470927 
L 365.554762 253.971198 
L 365.613505 234.811201 
L 365.976781 234.13889 
L 366.269872 241.634914 
L 366.332753 251.277933 
L 366.700822 258.943127 
L 366.866221 258.607439 
L 367.461739 233.886149 
L 367.641495 233.054509 
L 368.35622 263.319402 
L 368.774451 259.188427 
L 368.895572 245.876697 
L 369.074435 239.207748 
L 369.591203 251.616283 
L 369.848547 253.84685 
L 370.08782 252.884252 
L 370.326098 250.548713 
L 370.623659 250.253299 
L 370.803099 246.855875 
L 371.161904 246.124867 
L 371.399072 246.787469 
L 371.577905 251.771821 
L 371.935788 254.533685 
L 372.054832 259.563463 
L 372.294083 262.987768 
L 372.59185 263.888256 
L 373.365295 240.976771 
L 374.021489 265.135093 
L 374.261248 263.626234 
L 374.736954 241.711256 
L 375.03509 241.968722 
L 375.511584 258.957621 
L 375.750485 263.591947 
L 375.988153 257.047839 
L 376.228791 243.627346 
L 376.644826 235.160232 
L 377.062374 254.514097 
L 377.358092 262.406567 
L 377.602641 260.939445 
L 378.253396 239.227047 
L 378.492265 248.033481 
L 379.02867 261.509093 
L 379.324471 256.746529 
L 379.741872 240.825276 
L 379.980884 243.502159 
L 380.278124 253.648121 
L 380.457053 264.213013 
L 380.699009 265.38726 
L 380.993722 269.068197 
L 381.293382 263.385064 
L 381.471822 255.144252 
L 381.947747 245.802214 
L 382.187031 252.752513 
L 382.486546 254.787486 
L 382.903756 254.616623 
L 383.198707 248.891035 
L 383.577145 250.988483 
L 383.681727 254.986457 
L 383.914675 256.204989 
L 384.395448 262.34499 
L 384.634599 259.030199 
L 385.04816 259.662694 
L 385.271762 259.001973 
L 385.406104 264.28237 
L 385.643919 266.437623 
L 385.882286 267.060903 
L 386.127503 265.801474 
L 386.418484 263.239041 
L 386.776852 264.918009 
L 386.895865 266.665073 
L 387.194361 268.047836 
L 387.437755 268.200973 
L 387.67107 268.897378 
L 387.90932 264.333369 
L 388.32973 246.829132 
L 388.863173 232.571421 
L 389.101136 233.809064 
L 389.459441 236.282002 
L 389.637792 235.603063 
L 389.876192 228.136016 
L 390.114282 227.031302 
L 390.353094 229.838973 
L 390.652496 237.093189 
L 391.249654 255.365118 
L 391.606455 247.08689 
L 391.845036 242.143835 
L 392.085061 240.841088 
L 392.330558 237.725487 
L 392.620619 240.715156 
L 393.096953 265.16895 
L 393.395828 268.531451 
L 393.575418 251.85914 
L 393.874001 235.352346 
L 394.051656 231.998717 
L 394.289948 231.372626 
L 394.528838 235.486024 
L 394.782729 235.469587 
L 395.017934 233.974743 
L 395.809213 240.643416 
L 396.022818 245.715939 
L 396.261625 254.901288 
L 396.568199 255.037708 
L 396.795982 261.787887 
L 397.272992 258.375247 
L 397.51473 252.55916 
L 397.752949 257.765061 
L 398.046873 256.197829 
L 398.287625 253.772994 
L 398.583536 247.882604 
L 399.001204 221.893523 
L 399.240305 216.893599 
L 399.481113 217.645203 
L 400.018676 227.145778 
L 401.090948 260.035306 
L 401.210035 263.368372 
L 401.449325 261.341001 
L 401.746659 264.517358 
L 402.226328 256.329123 
L 402.464686 261.543167 
L 402.940715 265.237546 
L 403.239956 264.956518 
L 403.477521 261.5964 
L 403.716528 255.358214 
L 404.133001 253.131696 
L 404.205773 257.056475 
L 404.491892 266.394801 
L 404.682655 266.553396 
L 405.07707 253.923318 
L 405.205132 235.076277 
L 405.435072 219.182899 
L 406.153896 186.275901 
L 406.450599 187.395175 
L 406.930037 210.860514 
L 407.179976 223.076153 
L 407.583542 231.86974 
L 407.643511 239.488427 
L 408.184239 248.927619 
L 408.425461 248.511597 
L 408.622583 247.688282 
L 408.897019 240.332673 
L 409.329493 237.548575 
L 409.674777 243.289681 
L 410.092038 248.358215 
L 410.151255 252.878402 
L 410.390744 252.104934 
L 410.746981 253.306326 
L 410.925592 257.690943 
L 411.107896 258.089629 
L 411.34439 255.771633 
L 411.90175 253.796959 
L 412.121829 250.107685 
L 412.358327 242.273631 
L 413.132538 232.913345 
L 413.313562 232.924379 
L 413.846124 237.875252 
L 413.854636 210.218524 
L 414.089273 256.672764 
L 414.625302 262.937705 
L 414.872439 263.418462 
L 415.104651 262.193929 
L 415.580891 264.51179 
L 415.765633 262.203536 
L 416.057363 254.977913 
L 416.775368 225.765609 
L 417.249598 220.125829 
L 417.60875 216.523446 
L 417.792339 213.063585 
L 418.026852 212.589191 
L 418.685412 225.513386 
L 418.81039 237.383655 
L 419.279479 250.662533 
L 419.817293 257.398014 
L 420.056721 258.122165 
L 420.476212 237.155227 
L 420.771635 235.53356 
L 421.016292 239.771093 
L 421.248394 249.253644 
L 421.487584 264.684675 
L 421.725162 264.357281 
L 421.964634 254.231406 
L 422.394938 244.761472 
L 422.977964 195.854379 
L 423.463809 213.55714 
L 423.948356 224.843219 
L 424.182209 232.449534 
L 425.083864 219.237681 
L 425.214343 215.931215 
L 425.498742 216.309562 
L 425.741988 212.766008 
L 426.155261 222.117064 
L 426.396486 234.752838 
L 426.938394 238.459899 
L 427.170233 240.809624 
L 427.413328 252.889893 
L 427.783895 256.948036 
L 427.944655 257.002453 
L 428.247611 251.534029 
L 428.482465 244.88904 
L 428.720579 241.309306 
L 429.021035 243.793797 
L 429.260467 262.762398 
L 429.568158 265.969161 
L 429.711448 264.120825 
L 430.128007 243.134035 
L 430.398889 239.286439 
L 430.714162 243.09796 
L 430.879803 247.198354 
L 431.229767 260.174243 
L 431.434036 252.433556 
L 431.647958 239.642992 
L 431.94717 231.033882 
L 432.125555 229.370939 
L 432.364081 240.716731 
L 432.605916 246.100018 
L 433.080902 264.059702 
L 433.437867 262.86235 
L 433.616895 259.818098 
L 434.096693 248.062487 
L 434.502401 248.583033 
L 434.927308 255.833813 
L 435.157711 251.079757 
L 435.455677 266.220135 
L 435.636023 263.878986 
L 435.814278 251.824017 
L 436.291054 243.07522 
L 436.41292 237.602172 
L 436.649919 239.089231 
L 436.831453 250.036655 
L 437.186556 262.084274 
L 437.312162 256.135183 
L 437.570496 261.804277 
L 437.843319 258.232712 
L 438.323842 245.74001 
L 439.037712 267.617498 
L 439.276447 266.349212 
L 439.758679 270.390401 
L 440.05765 263.381923 
L 440.245579 263.913935 
L 440.535103 262.731012 
L 440.773037 263.254506 
L 441.012501 264.959285 
L 441.428656 266.631606 
L 441.516433 267.524326 
L 443.278965 195.303772 
L 443.459506 194.037501 
L 443.69767 196.118951 
L 444.718411 252.250904 
L 445.089995 251.540943 
L 445.253115 253.888957 
L 445.309914 249.274584 
L 445.429631 249.440398 
L 445.965514 244.784749 
L 446.385918 232.680561 
L 446.46744 225.881939 
L 446.921039 213.670714 
L 447.160166 224.293432 
L 447.77106 231.138971 
L 448.007332 243.174755 
L 448.187218 244.720284 
L 448.604346 241.335814 
L 448.665006 251.120003 
L 449.082957 252.494577 
L 449.382798 261.882405 
L 449.796559 265.861047 
L 449.916047 260.805219 
L 450.156084 257.499219 
L 450.810193 233.091654 
L 450.929587 220.79067 
L 451.168624 209.842679 
L 451.412842 209.30645 
L 451.467111 206.330948 
L 451.647295 210.239898 
L 451.884706 212.850246 
L 452.125859 225.543153 
L 452.421661 227.757685 
L 452.60151 234.255948 
L 452.921195 237.621329 
L 453.379988 247.446969 
L 453.860324 268.907354 
L 454.156172 270.744754 
L 454.574673 264.974342 
L 455.059449 236.226224 
L 455.468905 223.676471 
L 455.616064 211.807329 
L 456.304292 196.509663 
L 456.791016 187.399654 
L 457.08999 191.163164 
L 457.331101 191.095715 
L 457.86423 203.993987 
L 458.283498 228.796887 
L 458.581721 235.763226 
L 458.819546 247.939253 
L 459.36474 261.091742 
L 459.541358 255.342687 
L 459.932015 247.084369 
L 460.074569 238.684603 
L 460.381478 242.230948 
L 460.5515 246.147956 
L 460.799795 259.163736 
L 461.162774 258.789629 
L 461.513684 241.739266 
L 462.764051 183.623073 
L 463.01013 181.909626 
L 463.302327 185.298653 
L 463.485536 177.314579 
L 463.782033 181.157667 
L 464.674389 197.820602 
L 465.488509 242.28024 
L 465.790576 246.965995 
L 465.97518 268.372502 
L 466.26574 269.84231 
L 466.57014 260.467905 
L 466.935855 233.833317 
L 467.460772 221.311708 
L 467.699642 212.300681 
L 467.937374 211.351006 
L 468.176245 211.47006 
L 468.415774 208.61921 
L 468.83277 211.64903 
L 468.981905 214.250868 
L 469.370258 215.999262 
L 469.48914 223.565864 
L 469.727716 229.492584 
L 469.966174 240.484194 
L 470.263839 242.910119 
L 470.396051 249.499305 
L 470.655533 253.234973 
L 470.92555 254.023761 
L 471.638963 233.105535 
L 471.879649 222.983174 
L 472.25946 222.874328 
L 472.417567 221.936874 
L 472.65317 226.037193 
L 472.921173 225.206206 
L 473.921895 243.303124 
L 474.160422 244.611843 
L 474.41647 249.459714 
L 474.707352 248.064783 
L 474.828936 248.740348 
L 475.121189 245.299918 
L 475.41949 238.688613 
L 475.717586 237.884096 
L 475.8371 233.117938 
L 476.134988 232.344752 
L 476.381417 232.403905 
L 476.851197 228.417084 
L 477.389133 224.081291 
L 477.627668 224.382997 
L 477.868291 224.052223 
L 478.342011 224.762383 
L 478.581538 224.292027 
L 478.826827 226.342597 
L 479.834829 270.459611 
L 480.07565 261.708653 
L 480.372025 255.819008 
L 480.551914 248.594131 
L 480.908489 244.77817 
L 481.327084 235.528641 
L 481.625403 230.017655 
L 481.863208 232.153785 
L 482.520064 224.346901 
L 482.821931 224.411834 
L 483.114886 227.016458 
L 483.361665 230.633478 
L 483.533599 229.079322 
L 484.010657 238.694942 
L 484.326117 240.524928 
L 484.505097 248.987 
L 484.74324 254.939497 
L 485.221327 261.923294 
L 485.281302 266.492279 
L 485.579122 256.905073 
L 485.761522 254.779505 
L 486.234616 241.926498 
L 486.712954 213.98263 
L 487.011874 212.674135 
L 487.308375 206.926631 
L 487.486924 207.405928 
L 487.789707 213.870151 
L 488.027649 216.506757 
L 488.74236 237.685415 
L 488.947743 246.02508 
L 489.223121 251.934373 
L 489.567603 248.064378 
L 489.765197 242.817209 
L 490.241965 222.055368 
L 490.480897 223.147911 
L 490.719876 213.045215 
L 490.957726 210.369605 
L 491.437921 223.058112 
L 491.913495 242.622792 
L 492.229516 249.206312 
L 492.270594 248.35872 
L 492.449396 245.359003 
L 492.750643 251.757064 
L 493.046267 247.536593 
L 493.224707 247.915254 
L 493.763164 256.593695 
L 494.896223 197.014471 
L 495.492868 193.318977 
L 495.671719 188.947974 
L 495.8502 194.855889 
L 496.270408 187.849874 
L 496.327882 191.599422 
L 496.689799 195.361375 
L 498.36707 250.034309 
L 498.61362 251.723605 
L 498.851685 244.746838 
L 499.095647 242.235573 
L 499.626206 231.887312 
L 499.810671 233.386695 
L 500.105505 231.70593 
L 500.407404 227.254234 
L 500.895681 241.808671 
L 501.118825 243.543809 
L 501.54229 243.414507 
L 501.595042 246.861617 
L 501.833482 245.649915 
L 502.251558 245.883053 
L 502.311959 246.844349 
L 502.552589 248.302372 
L 502.886968 248.439585 
L 503.047454 248.961782 
L 503.35207 244.99841 
L 503.566242 244.216848 
L 504.522981 201.09658 
L 504.834976 202.860873 
L 505.239393 194.824936 
L 505.300663 195.999823 
L 505.535876 195.551555 
L 506.323481 202.106535 
L 506.51083 201.059714 
L 506.868182 200.924371 
L 507.310485 195.564559 
L 507.777893 200.883616 
L 508.020555 206.976621 
L 508.382825 210.343364 
L 508.542524 218.299402 
L 508.779841 221.832792 
L 509.136823 229.234901 
L 509.498514 251.977629 
L 509.793481 257.613495 
L 510.100802 270.979565 
L 510.57202 262.834136 
L 510.750414 263.050178 
L 511.008762 258.334788 
L 511.480353 244.445307 
L 512.059912 216.001873 
L 512.479777 199.827577 
L 512.735515 199.731706 
L 513.493993 224.093495 
L 513.737555 235.318546 
L 514.448245 215.850901 
L 514.886935 212.865383 
L 515.118139 213.576019 
L 515.464023 213.972089 
L 516.001092 241.673305 
L 516.47737 246.908128 
L 516.537113 241.21028 
L 517.02374 225.960292 
L 517.313039 226.122919 
L 517.434501 230.068772 
L 517.936327 236.966351 
L 518.217301 246.766298 
L 518.628969 245.655734 
L 518.934415 247.87176 
L 519.405318 247.877661 
L 519.531398 244.241695 
L 519.902563 240.496517 
L 520.126108 240.967552 
L 520.550263 248.425395 
L 520.787013 248.9483 
L 521.688459 211.31968 
L 521.867987 201.486081 
L 522.284766 191.264133 
L 522.525965 181.824401 
L 523.060019 168.583163 
L 523.241434 172.815747 
L 523.502993 182.483443 
L 523.621431 194.44461 
L 524.144781 224.953627 
L 524.560008 250.684569 
L 524.856122 257.043415 
L 525.090462 255.440542 
L 525.566766 248.416342 
L 526.071316 245.004911 
L 526.648874 238.210833 
L 527.124891 233.674272 
L 527.422306 230.558651 
L 528.146629 216.01281 
L 528.354246 214.775092 
L 528.5587 215.917041 
L 528.86213 216.911045 
L 529.192142 215.16388 
L 529.329976 211.349216 
L 529.543609 213.397498 
L 529.807921 221.009535 
L 530.344148 246.416336 
L 530.525497 260.808083 
L 530.823476 264.338601 
L 531.301013 259.310538 
L 531.537267 258.763295 
L 531.775914 257.238265 
L 532.013949 257.686735 
L 532.256848 258.823695 
L 532.545156 257.987232 
L 532.798258 254.99472 
L 533.10409 252.781042 
L 533.453015 248.954527 
L 533.527827 244.928655 
L 533.757723 242.716165 
L 533.997093 244.708657 
L 534.233618 249.539115 
L 534.767567 263.429065 
L 535.005866 261.80736 
L 535.487395 249.076117 
L 536.039758 223.789006 
L 536.319941 210.482756 
L 536.797511 196.066233 
L 537.233563 192.449637 
L 537.336657 186.62108 
L 537.811333 170.539738 
L 537.931567 164.396246 
L 538.182569 165.395304 
L 538.407634 169.720164 
L 538.948918 191.253313 
L 539.8992 240.412896 
L 540.198802 246.550113 
L 540.494915 247.2125 
L 540.673929 245.172602 
L 541.17165 241.841722 
L 541.389533 242.851424 
L 541.80773 246.518172 
L 542.11672 256.135182 
L 542.721684 261.126221 
L 542.885214 261.002326 
L 543.131436 261.306403 
L 543.357339 262.726766 
L 544.136763 269.412971 
L 544.431249 267.033682 
L 545.152144 253.98322 
L 546.186015 221.426437 
L 546.604471 212.015901 
L 547.557848 196.37234 
L 547.857033 193.591508 
L 548.096482 189.467529 
L 548.460013 187.211643 
L 548.587229 184.649993 
L 549.079391 183.952132 
L 550.315758 248.458298 
L 550.595277 253.09782 
L 550.83128 250.041874 
L 551.309936 242.073216 
L 552.088866 255.261636 
L 552.272542 264.733514 
L 552.56547 272.589231 
L 552.807034 263.012095 
L 553.54455 212.210165 
L 553.77402 213.983932 
L 554.071244 218.424517 
L 554.788384 238.182174 
L 555.162205 245.387313 
L 555.283645 253.925656 
L 555.986182 263.854022 
L 556.996596 225.474485 
L 557.236478 222.034784 
L 557.533922 223.176169 
L 557.774444 224.857464 
L 558.428 239.758455 
L 558.491374 249.170584 
L 558.729519 255.517663 
L 558.968824 256.191548 
L 559.509995 249.498628 
L 559.68732 250.448801 
L 560.286721 271.441696 
L 560.525361 264.213056 
L 561.176926 234.613551 
L 561.45041 232.415378 
L 561.800499 227.445304 
L 561.917094 215.746339 
L 562.2165 205.602418 
L 562.460684 202.013668 
L 562.710581 203.879073 
L 562.932436 211.038569 
L 563.17224 222.586286 
L 563.47491 231.714729 
L 563.650571 232.464725 
L 564.138725 217.919719 
L 564.424624 220.832228 
L 564.667389 230.782876 
L 564.963359 236.917273 
L 565.325481 237.156551 
L 565.921222 218.778789 
L 566.275788 222.018844 
L 566.591052 242.940575 
L 566.886997 240.605246 
L 567.129567 231.534923 
L 567.426996 230.531815 
L 567.901003 247.031136 
L 568.260231 250.555352 
L 569.034461 223.466057 
L 569.154425 223.881494 
L 569.571345 247.536979 
L 569.9297 251.924949 
L 570.349279 232.982463 
L 570.67192 234.005786 
L 570.855226 241.728329 
L 571.092008 246.481883 
L 571.327424 244.156208 
L 572.052821 233.021741 
L 572.57511 237.796388 
L 572.813931 235.795737 
L 573.290523 228.073439 
L 573.651531 230.903658 
L 573.787544 236.046064 
L 574.067189 236.289675 
L 574.607337 228.012407 
L 574.902328 226.364167 
L 575.140094 241.648591 
L 575.558243 250.06064 
L 575.739988 258.593531 
L 575.975852 258.752998 
L 576.511705 247.047258 
L 577.019398 256.152696 
L 577.255733 257.207727 
L 577.407641 252.500196 
L 577.770911 225.572251 
L 578.060615 215.729085 
L 578.2394 215.200894 
L 578.60946 223.946761 
L 578.779219 233.754625 
L 579.077233 240.370497 
L 579.255909 240.227344 
L 579.739653 233.361819 
L 579.971738 232.880662 
L 580.509058 243.916992 
L 580.748428 240.641502 
L 581.16671 233.06634 
L 581.232393 228.572472 
L 581.470211 227.353 
L 581.82152 230.005931 
L 581.959921 232.810418 
L 582.184765 233.604823 
L 582.718401 237.867224 
L 583.265054 234.772932 
L 583.561423 238.453426 
L 583.800021 243.140281 
L 584.219664 222.521458 
L 584.872836 230.411523 
L 585.113187 231.430915 
L 585.409373 235.182116 
L 585.65838 234.139362 
L 585.885885 232.337317 
L 586.130566 227.79224 
L 586.483458 228.349164 
L 587.140498 237.783319 
L 587.396833 235.136009 
L 587.61558 230.402744 
L 587.882983 231.18717 
L 588.123125 233.007992 
L 588.123125 233.007992 
" clip-path="url(#p74abdd1852)" style="fill: none; stroke: #ff0000; stroke-opacity: 0.5; stroke-width: 1.5; stroke-linecap: square"/>
   </g>
   <g id="patch_3">
    <path d="M 30.123125 277.92 
L 30.123125 0.72 
" style="fill: none; stroke: #000000; stroke-width: 0.8; stroke-linejoin: miter; stroke-linecap: square"/>
   </g>
   <g id="patch_4">
    <path d="M 588.123125 277.92 
L 588.123125 0.72 
" style="fill: none; stroke: #000000; stroke-width: 0.8; stroke-linejoin: miter; stroke-linecap: square"/>
   </g>
   <g id="patch_5">
    <path d="M 30.123125 277.92 
L 588.123125 277.92 
" style="fill: none; stroke: #000000; stroke-width: 0.8; stroke-linejoin: miter; stroke-linecap: square"/>
   </g>
   <g id="patch_6">
    <path d="M 30.123125 0.72 
L 588.123125 0.72 
" style="fill: none; stroke: #000000; stroke-width: 0.8; stroke-linejoin: miter; stroke-linecap: square"/>
   </g>
   <g id="legend_1">
    <g id="patch_7">
     <path d="M 507.354375 38.07625 
L 581.123125 38.07625 
Q 583.123125 38.07625 583.123125 36.07625 
L 583.123125 7.72 
Q 583.123125 5.72 581.123125 5.72 
L 507.354375 5.72 
Q 505.354375 5.72 505.354375 7.72 
L 505.354375 36.07625 
Q 505.354375 38.07625 507.354375 38.07625 
z
" style="fill: #ffffff; opacity: 0.8; stroke: #cccccc; stroke-linejoin: miter"/>
    </g>
    <g id="line2d_31">
     <path d="M 509.354375 13.818438 
L 519.354375 13.818438 
L 529.354375 13.818438 
" style="fill: none; stroke: #0000ff; stroke-opacity: 0.5; stroke-width: 1.5; stroke-linecap: square"/>
    </g>
    <g id="text_17">
     <!-- RNEA -->
     <g transform="translate(537.354375 17.318438) scale(0.1 -0.1)">
      <defs>
       <path id="DejaVuSans-52" d="M 2841 2188 
Q 3044 2119 3236 1894 
Q 3428 1669 3622 1275 
L 4263 0 
L 3584 0 
L 2988 1197 
Q 2756 1666 2539 1819 
Q 2322 1972 1947 1972 
L 1259 1972 
L 1259 0 
L 628 0 
L 628 4666 
L 2053 4666 
Q 2853 4666 3247 4331 
Q 3641 3997 3641 3322 
Q 3641 2881 3436 2590 
Q 3231 2300 2841 2188 
z
M 1259 4147 
L 1259 2491 
L 2053 2491 
Q 2509 2491 2742 2702 
Q 2975 2913 2975 3322 
Q 2975 3731 2742 3939 
Q 2509 4147 2053 4147 
L 1259 4147 
z
" transform="scale(0.015625)"/>
       <path id="DejaVuSans-45" d="M 628 4666 
L 3578 4666 
L 3578 4134 
L 1259 4134 
L 1259 2753 
L 3481 2753 
L 3481 2222 
L 1259 2222 
L 1259 531 
L 3634 531 
L 3634 0 
L 628 0 
L 628 4666 
z
" transform="scale(0.015625)"/>
       <path id="DejaVuSans-41" d="M 2188 4044 
L 1331 1722 
L 3047 1722 
L 2188 4044 
z
M 1831 4666 
L 2547 4666 
L 4325 0 
L 3669 0 
L 3244 1197 
L 1141 1197 
L 716 0 
L 50 0 
L 1831 4666 
z
" transform="scale(0.015625)"/>
      </defs>
      <use xlink:href="#DejaVuSans-52"/>
      <use xlink:href="#DejaVuSans-4e" x="69.482422"/>
      <use xlink:href="#DejaVuSans-45" x="144.287109"/>
      <use xlink:href="#DejaVuSans-41" x="207.470703"/>
     </g>
    </g>
    <g id="line2d_32">
     <path d="M 509.354375 28.496563 
L 519.354375 28.496563 
L 529.354375 28.496563 
" style="fill: none; stroke: #ff0000; stroke-opacity: 0.5; stroke-width: 1.5; stroke-linecap: square"/>
    </g>
    <g id="text_18">
     <!-- BURNEA -->
     <g transform="translate(537.354375 31.996563) scale(0.1 -0.1)">
      <defs>
       <path id="DejaVuSans-42" d="M 1259 2228 
L 1259 519 
L 2272 519 
Q 2781 519 3026 730 
Q 3272 941 3272 1375 
Q 3272 1813 3026 2020 
Q 2781 2228 2272 2228 
L 1259 2228 
z
M 1259 4147 
L 1259 2741 
L 2194 2741 
Q 2656 2741 2882 2914 
Q 3109 3088 3109 3444 
Q 3109 3797 2882 3972 
Q 2656 4147 2194 4147 
L 1259 4147 
z
M 628 4666 
L 2241 4666 
Q 2963 4666 3353 4366 
Q 3744 4066 3744 3513 
Q 3744 3084 3544 2831 
Q 3344 2578 2956 2516 
Q 3422 2416 3680 2098 
Q 3938 1781 3938 1306 
Q 3938 681 3513 340 
Q 3088 0 2303 0 
L 628 0 
L 628 4666 
z
" transform="scale(0.015625)"/>
       <path id="DejaVuSans-55" d="M 556 4666 
L 1191 4666 
L 1191 1831 
Q 1191 1081 1462 751 
Q 1734 422 2344 422 
Q 2950 422 3222 751 
Q 3494 1081 3494 1831 
L 3494 4666 
L 4128 4666 
L 4128 1753 
Q 4128 841 3676 375 
Q 3225 -91 2344 -91 
Q 1459 -91 1007 375 
Q 556 841 556 1753 
L 556 4666 
z
" transform="scale(0.015625)"/>
      </defs>
      <use xlink:href="#DejaVuSans-42"/>
      <use xlink:href="#DejaVuSans-55" x="68.603516"/>
      <use xlink:href="#DejaVuSans-52" x="141.796875"/>
      <use xlink:href="#DejaVuSans-4e" x="211.279297"/>
      <use xlink:href="#DejaVuSans-45" x="286.083984"/>
      <use xlink:href="#DejaVuSans-41" x="349.267578"/>
     </g>
    </g>
   </g>
  </g>
 </g>
 <defs>
  <clipPath id="p74abdd1852">
   <rect x="30.123125" y="0.72" width="558" height="277.2"/>
  </clipPath>
 </defs>
</svg>
