<?xml version="1.0" encoding="utf-8" standalone="no"?>
<!DOCTYPE svg PUBLIC "-//W3C//DTD SVG 1.1//EN"
  "http://www.w3.org/Graphics/SVG/1.1/DTD/svg11.dtd">
<svg xmlns:xlink="http://www.w3.org/1999/xlink" width="598.38375pt" height="304.99625pt" viewBox="0 0 598.38375 304.99625" xmlns="http://www.w3.org/2000/svg" version="1.1">
 <metadata>
  <rdf:RDF xmlns:dc="http://purl.org/dc/elements/1.1/" xmlns:cc="http://creativecommons.org/ns#" xmlns:rdf="http://www.w3.org/1999/02/22-rdf-syntax-ns#">
   <cc:Work>
    <dc:type rdf:resource="http://purl.org/dc/dcmitype/StillImage"/>
    <dc:date>2023-09-07T03:30:41.312781</dc:date>
    <dc:format>image/svg+xml</dc:format>
    <dc:creator>
     <cc:Agent>
      <dc:title>Matplotlib v3.7.2, https://matplotlib.org/</dc:title>
     </cc:Agent>
    </dc:creator>
   </cc:Work>
  </rdf:RDF>
 </metadata>
 <defs>
  <style type="text/css">*{stroke-linejoin: round; stroke-linecap: butt}</style>
 </defs>
 <g id="figure_1">
  <g id="patch_1">
   <path d="M 0 304.99625 
L 598.38375 304.99625 
L 598.38375 0 
L 0 0 
L 0 304.99625 
z
" style="fill: none"/>
  </g>
  <g id="axes_1">
   <g id="patch_2">
    <path d="M 39.66375 277.92 
L 597.66375 277.92 
L 597.66375 0.72 
L 39.66375 0.72 
L 39.66375 277.92 
z
" style="fill: none"/>
   </g>
   <g id="matplotlib.axis_1">
    <g id="xtick_1">
     <g id="line2d_1">
      <path d="M 39.66375 277.92 
L 39.66375 0.72 
" clip-path="url(#pbf1a8bfadb)" style="fill: none; stroke-dasharray: 0.8,1.32; stroke-dashoffset: 0; stroke: #000000; stroke-opacity: 0.5; stroke-width: 0.8"/>
     </g>
     <g id="line2d_2">
      <defs>
       <path id="mc02bb49808" d="M 0 0 
L 0 3.5 
" style="stroke: #000000; stroke-width: 0.8"/>
      </defs>
      <g>
       <use xlink:href="#mc02bb49808" x="39.66375" y="277.92" style="stroke: #000000; stroke-width: 0.8"/>
      </g>
     </g>
     <g id="text_1">
      <!-- 0.0 -->
      <g transform="translate(31.712187 292.518438) scale(0.1 -0.1)">
       <defs>
        <path id="DejaVuSans-30" d="M 2034 4250 
Q 1547 4250 1301 3770 
Q 1056 3291 1056 2328 
Q 1056 1369 1301 889 
Q 1547 409 2034 409 
Q 2525 409 2770 889 
Q 3016 1369 3016 2328 
Q 3016 3291 2770 3770 
Q 2525 4250 2034 4250 
z
M 2034 4750 
Q 2819 4750 3233 4129 
Q 3647 3509 3647 2328 
Q 3647 1150 3233 529 
Q 2819 -91 2034 -91 
Q 1250 -91 836 529 
Q 422 1150 422 2328 
Q 422 3509 836 4129 
Q 1250 4750 2034 4750 
z
" transform="scale(0.015625)"/>
        <path id="DejaVuSans-2e" d="M 684 794 
L 1344 794 
L 1344 0 
L 684 0 
L 684 794 
z
" transform="scale(0.015625)"/>
       </defs>
       <use xlink:href="#DejaVuSans-30"/>
       <use xlink:href="#DejaVuSans-2e" x="63.623047"/>
       <use xlink:href="#DejaVuSans-30" x="95.410156"/>
      </g>
     </g>
    </g>
    <g id="xtick_2">
     <g id="line2d_3">
      <path d="M 113.815075 277.92 
L 113.815075 0.72 
" clip-path="url(#pbf1a8bfadb)" style="fill: none; stroke-dasharray: 0.8,1.32; stroke-dashoffset: 0; stroke: #000000; stroke-opacity: 0.5; stroke-width: 0.8"/>
     </g>
     <g id="line2d_4">
      <g>
       <use xlink:href="#mc02bb49808" x="113.815075" y="277.92" style="stroke: #000000; stroke-width: 0.8"/>
      </g>
     </g>
     <g id="text_2">
      <!-- 2.5 -->
      <g transform="translate(105.863512 292.518438) scale(0.1 -0.1)">
       <defs>
        <path id="DejaVuSans-32" d="M 1228 531 
L 3431 531 
L 3431 0 
L 469 0 
L 469 531 
Q 828 903 1448 1529 
Q 2069 2156 2228 2338 
Q 2531 2678 2651 2914 
Q 2772 3150 2772 3378 
Q 2772 3750 2511 3984 
Q 2250 4219 1831 4219 
Q 1534 4219 1204 4116 
Q 875 4013 500 3803 
L 500 4441 
Q 881 4594 1212 4672 
Q 1544 4750 1819 4750 
Q 2544 4750 2975 4387 
Q 3406 4025 3406 3419 
Q 3406 3131 3298 2873 
Q 3191 2616 2906 2266 
Q 2828 2175 2409 1742 
Q 1991 1309 1228 531 
z
" transform="scale(0.015625)"/>
        <path id="DejaVuSans-35" d="M 691 4666 
L 3169 4666 
L 3169 4134 
L 1269 4134 
L 1269 2991 
Q 1406 3038 1543 3061 
Q 1681 3084 1819 3084 
Q 2600 3084 3056 2656 
Q 3513 2228 3513 1497 
Q 3513 744 3044 326 
Q 2575 -91 1722 -91 
Q 1428 -91 1123 -41 
Q 819 9 494 109 
L 494 744 
Q 775 591 1075 516 
Q 1375 441 1709 441 
Q 2250 441 2565 725 
Q 2881 1009 2881 1497 
Q 2881 1984 2565 2268 
Q 2250 2553 1709 2553 
Q 1456 2553 1204 2497 
Q 953 2441 691 2322 
L 691 4666 
z
" transform="scale(0.015625)"/>
       </defs>
       <use xlink:href="#DejaVuSans-32"/>
       <use xlink:href="#DejaVuSans-2e" x="63.623047"/>
       <use xlink:href="#DejaVuSans-35" x="95.410156"/>
      </g>
     </g>
    </g>
    <g id="xtick_3">
     <g id="line2d_5">
      <path d="M 187.9664 277.92 
L 187.9664 0.72 
" clip-path="url(#pbf1a8bfadb)" style="fill: none; stroke-dasharray: 0.8,1.32; stroke-dashoffset: 0; stroke: #000000; stroke-opacity: 0.5; stroke-width: 0.8"/>
     </g>
     <g id="line2d_6">
      <g>
       <use xlink:href="#mc02bb49808" x="187.9664" y="277.92" style="stroke: #000000; stroke-width: 0.8"/>
      </g>
     </g>
     <g id="text_3">
      <!-- 5.0 -->
      <g transform="translate(180.014837 292.518438) scale(0.1 -0.1)">
       <use xlink:href="#DejaVuSans-35"/>
       <use xlink:href="#DejaVuSans-2e" x="63.623047"/>
       <use xlink:href="#DejaVuSans-30" x="95.410156"/>
      </g>
     </g>
    </g>
    <g id="xtick_4">
     <g id="line2d_7">
      <path d="M 262.117725 277.92 
L 262.117725 0.72 
" clip-path="url(#pbf1a8bfadb)" style="fill: none; stroke-dasharray: 0.8,1.32; stroke-dashoffset: 0; stroke: #000000; stroke-opacity: 0.5; stroke-width: 0.8"/>
     </g>
     <g id="line2d_8">
      <g>
       <use xlink:href="#mc02bb49808" x="262.117725" y="277.92" style="stroke: #000000; stroke-width: 0.8"/>
      </g>
     </g>
     <g id="text_4">
      <!-- 7.5 -->
      <g transform="translate(254.166162 292.518438) scale(0.1 -0.1)">
       <defs>
        <path id="DejaVuSans-37" d="M 525 4666 
L 3525 4666 
L 3525 4397 
L 1831 0 
L 1172 0 
L 2766 4134 
L 525 4134 
L 525 4666 
z
" transform="scale(0.015625)"/>
       </defs>
       <use xlink:href="#DejaVuSans-37"/>
       <use xlink:href="#DejaVuSans-2e" x="63.623047"/>
       <use xlink:href="#DejaVuSans-35" x="95.410156"/>
      </g>
     </g>
    </g>
    <g id="xtick_5">
     <g id="line2d_9">
      <path d="M 336.26905 277.92 
L 336.26905 0.72 
" clip-path="url(#pbf1a8bfadb)" style="fill: none; stroke-dasharray: 0.8,1.32; stroke-dashoffset: 0; stroke: #000000; stroke-opacity: 0.5; stroke-width: 0.8"/>
     </g>
     <g id="line2d_10">
      <g>
       <use xlink:href="#mc02bb49808" x="336.26905" y="277.92" style="stroke: #000000; stroke-width: 0.8"/>
      </g>
     </g>
     <g id="text_5">
      <!-- 10.0 -->
      <g transform="translate(325.136237 292.518438) scale(0.1 -0.1)">
       <defs>
        <path id="DejaVuSans-31" d="M 794 531 
L 1825 531 
L 1825 4091 
L 703 3866 
L 703 4441 
L 1819 4666 
L 2450 4666 
L 2450 531 
L 3481 531 
L 3481 0 
L 794 0 
L 794 531 
z
" transform="scale(0.015625)"/>
       </defs>
       <use xlink:href="#DejaVuSans-31"/>
       <use xlink:href="#DejaVuSans-30" x="63.623047"/>
       <use xlink:href="#DejaVuSans-2e" x="127.246094"/>
       <use xlink:href="#DejaVuSans-30" x="159.033203"/>
      </g>
     </g>
    </g>
    <g id="xtick_6">
     <g id="line2d_11">
      <path d="M 410.420375 277.92 
L 410.420375 0.72 
" clip-path="url(#pbf1a8bfadb)" style="fill: none; stroke-dasharray: 0.8,1.32; stroke-dashoffset: 0; stroke: #000000; stroke-opacity: 0.5; stroke-width: 0.8"/>
     </g>
     <g id="line2d_12">
      <g>
       <use xlink:href="#mc02bb49808" x="410.420375" y="277.92" style="stroke: #000000; stroke-width: 0.8"/>
      </g>
     </g>
     <g id="text_6">
      <!-- 12.5 -->
      <g transform="translate(399.287562 292.518438) scale(0.1 -0.1)">
       <use xlink:href="#DejaVuSans-31"/>
       <use xlink:href="#DejaVuSans-32" x="63.623047"/>
       <use xlink:href="#DejaVuSans-2e" x="127.246094"/>
       <use xlink:href="#DejaVuSans-35" x="159.033203"/>
      </g>
     </g>
    </g>
    <g id="xtick_7">
     <g id="line2d_13">
      <path d="M 484.5717 277.92 
L 484.5717 0.72 
" clip-path="url(#pbf1a8bfadb)" style="fill: none; stroke-dasharray: 0.8,1.32; stroke-dashoffset: 0; stroke: #000000; stroke-opacity: 0.5; stroke-width: 0.8"/>
     </g>
     <g id="line2d_14">
      <g>
       <use xlink:href="#mc02bb49808" x="484.5717" y="277.92" style="stroke: #000000; stroke-width: 0.8"/>
      </g>
     </g>
     <g id="text_7">
      <!-- 15.0 -->
      <g transform="translate(473.438887 292.518438) scale(0.1 -0.1)">
       <use xlink:href="#DejaVuSans-31"/>
       <use xlink:href="#DejaVuSans-35" x="63.623047"/>
       <use xlink:href="#DejaVuSans-2e" x="127.246094"/>
       <use xlink:href="#DejaVuSans-30" x="159.033203"/>
      </g>
     </g>
    </g>
    <g id="xtick_8">
     <g id="line2d_15">
      <path d="M 558.723024 277.92 
L 558.723024 0.72 
" clip-path="url(#pbf1a8bfadb)" style="fill: none; stroke-dasharray: 0.8,1.32; stroke-dashoffset: 0; stroke: #000000; stroke-opacity: 0.5; stroke-width: 0.8"/>
     </g>
     <g id="line2d_16">
      <g>
       <use xlink:href="#mc02bb49808" x="558.723024" y="277.92" style="stroke: #000000; stroke-width: 0.8"/>
      </g>
     </g>
     <g id="text_8">
      <!-- 17.5 -->
      <g transform="translate(547.590212 292.518438) scale(0.1 -0.1)">
       <use xlink:href="#DejaVuSans-31"/>
       <use xlink:href="#DejaVuSans-37" x="63.623047"/>
       <use xlink:href="#DejaVuSans-2e" x="127.246094"/>
       <use xlink:href="#DejaVuSans-35" x="159.033203"/>
      </g>
     </g>
    </g>
    <g id="text_9">
     <!-- Zeit [s] -->
     <g transform="translate(300.717656 302.196563) scale(0.1 -0.1)">
      <defs>
       <path id="DejaVuSans-5a" d="M 359 4666 
L 4025 4666 
L 4025 4184 
L 1075 531 
L 4097 531 
L 4097 0 
L 288 0 
L 288 481 
L 3238 4134 
L 359 4134 
L 359 4666 
z
" transform="scale(0.015625)"/>
       <path id="DejaVuSans-65" d="M 3597 1894 
L 3597 1613 
L 953 1613 
Q 991 1019 1311 708 
Q 1631 397 2203 397 
Q 2534 397 2845 478 
Q 3156 559 3463 722 
L 3463 178 
Q 3153 47 2828 -22 
Q 2503 -91 2169 -91 
Q 1331 -91 842 396 
Q 353 884 353 1716 
Q 353 2575 817 3079 
Q 1281 3584 2069 3584 
Q 2775 3584 3186 3129 
Q 3597 2675 3597 1894 
z
M 3022 2063 
Q 3016 2534 2758 2815 
Q 2500 3097 2075 3097 
Q 1594 3097 1305 2825 
Q 1016 2553 972 2059 
L 3022 2063 
z
" transform="scale(0.015625)"/>
       <path id="DejaVuSans-69" d="M 603 3500 
L 1178 3500 
L 1178 0 
L 603 0 
L 603 3500 
z
M 603 4863 
L 1178 4863 
L 1178 4134 
L 603 4134 
L 603 4863 
z
" transform="scale(0.015625)"/>
       <path id="DejaVuSans-74" d="M 1172 4494 
L 1172 3500 
L 2356 3500 
L 2356 3053 
L 1172 3053 
L 1172 1153 
Q 1172 725 1289 603 
Q 1406 481 1766 481 
L 2356 481 
L 2356 0 
L 1766 0 
Q 1100 0 847 248 
Q 594 497 594 1153 
L 594 3053 
L 172 3053 
L 172 3500 
L 594 3500 
L 594 4494 
L 1172 4494 
z
" transform="scale(0.015625)"/>
       <path id="DejaVuSans-20" transform="scale(0.015625)"/>
       <path id="DejaVuSans-5b" d="M 550 4863 
L 1875 4863 
L 1875 4416 
L 1125 4416 
L 1125 -397 
L 1875 -397 
L 1875 -844 
L 550 -844 
L 550 4863 
z
" transform="scale(0.015625)"/>
       <path id="DejaVuSans-73" d="M 2834 3397 
L 2834 2853 
Q 2591 2978 2328 3040 
Q 2066 3103 1784 3103 
Q 1356 3103 1142 2972 
Q 928 2841 928 2578 
Q 928 2378 1081 2264 
Q 1234 2150 1697 2047 
L 1894 2003 
Q 2506 1872 2764 1633 
Q 3022 1394 3022 966 
Q 3022 478 2636 193 
Q 2250 -91 1575 -91 
Q 1294 -91 989 -36 
Q 684 19 347 128 
L 347 722 
Q 666 556 975 473 
Q 1284 391 1588 391 
Q 1994 391 2212 530 
Q 2431 669 2431 922 
Q 2431 1156 2273 1281 
Q 2116 1406 1581 1522 
L 1381 1569 
Q 847 1681 609 1914 
Q 372 2147 372 2553 
Q 372 3047 722 3315 
Q 1072 3584 1716 3584 
Q 2034 3584 2315 3537 
Q 2597 3491 2834 3397 
z
" transform="scale(0.015625)"/>
       <path id="DejaVuSans-5d" d="M 1947 4863 
L 1947 -844 
L 622 -844 
L 622 -397 
L 1369 -397 
L 1369 4416 
L 622 4416 
L 622 4863 
L 1947 4863 
z
" transform="scale(0.015625)"/>
      </defs>
      <use xlink:href="#DejaVuSans-5a"/>
      <use xlink:href="#DejaVuSans-65" x="68.505859"/>
      <use xlink:href="#DejaVuSans-69" x="130.029297"/>
      <use xlink:href="#DejaVuSans-74" x="157.8125"/>
      <use xlink:href="#DejaVuSans-20" x="197.021484"/>
      <use xlink:href="#DejaVuSans-5b" x="228.808594"/>
      <use xlink:href="#DejaVuSans-73" x="267.822266"/>
      <use xlink:href="#DejaVuSans-5d" x="319.921875"/>
     </g>
    </g>
   </g>
   <g id="matplotlib.axis_2">
    <g id="ytick_1">
     <g id="line2d_17">
      <path d="M 39.66375 277.403802 
L 597.66375 277.403802 
" clip-path="url(#pbf1a8bfadb)" style="fill: none; stroke-dasharray: 0.8,1.32; stroke-dashoffset: 0; stroke: #000000; stroke-opacity: 0.5; stroke-width: 0.8"/>
     </g>
     <g id="line2d_18">
      <defs>
       <path id="m0616d4624e" d="M 0 0 
L -3.5 0 
" style="stroke: #000000; stroke-width: 0.8"/>
      </defs>
      <g>
       <use xlink:href="#m0616d4624e" x="39.66375" y="277.403802" style="stroke: #000000; stroke-width: 0.8"/>
      </g>
     </g>
     <g id="text_10">
      <!-- 0.0 -->
      <g transform="translate(16.760625 281.20302) scale(0.1 -0.1)">
       <use xlink:href="#DejaVuSans-30"/>
       <use xlink:href="#DejaVuSans-2e" x="63.623047"/>
       <use xlink:href="#DejaVuSans-30" x="95.410156"/>
      </g>
     </g>
    </g>
    <g id="ytick_2">
     <g id="line2d_19">
      <path d="M 39.66375 244.974379 
L 597.66375 244.974379 
" clip-path="url(#pbf1a8bfadb)" style="fill: none; stroke-dasharray: 0.8,1.32; stroke-dashoffset: 0; stroke: #000000; stroke-opacity: 0.5; stroke-width: 0.8"/>
     </g>
     <g id="line2d_20">
      <g>
       <use xlink:href="#m0616d4624e" x="39.66375" y="244.974379" style="stroke: #000000; stroke-width: 0.8"/>
      </g>
     </g>
     <g id="text_11">
      <!-- 2.5 -->
      <g transform="translate(16.760625 248.773597) scale(0.1 -0.1)">
       <use xlink:href="#DejaVuSans-32"/>
       <use xlink:href="#DejaVuSans-2e" x="63.623047"/>
       <use xlink:href="#DejaVuSans-35" x="95.410156"/>
      </g>
     </g>
    </g>
    <g id="ytick_3">
     <g id="line2d_21">
      <path d="M 39.66375 212.544956 
L 597.66375 212.544956 
" clip-path="url(#pbf1a8bfadb)" style="fill: none; stroke-dasharray: 0.8,1.32; stroke-dashoffset: 0; stroke: #000000; stroke-opacity: 0.5; stroke-width: 0.8"/>
     </g>
     <g id="line2d_22">
      <g>
       <use xlink:href="#m0616d4624e" x="39.66375" y="212.544956" style="stroke: #000000; stroke-width: 0.8"/>
      </g>
     </g>
     <g id="text_12">
      <!-- 5.0 -->
      <g transform="translate(16.760625 216.344174) scale(0.1 -0.1)">
       <use xlink:href="#DejaVuSans-35"/>
       <use xlink:href="#DejaVuSans-2e" x="63.623047"/>
       <use xlink:href="#DejaVuSans-30" x="95.410156"/>
      </g>
     </g>
    </g>
    <g id="ytick_4">
     <g id="line2d_23">
      <path d="M 39.66375 180.115533 
L 597.66375 180.115533 
" clip-path="url(#pbf1a8bfadb)" style="fill: none; stroke-dasharray: 0.8,1.32; stroke-dashoffset: 0; stroke: #000000; stroke-opacity: 0.5; stroke-width: 0.8"/>
     </g>
     <g id="line2d_24">
      <g>
       <use xlink:href="#m0616d4624e" x="39.66375" y="180.115533" style="stroke: #000000; stroke-width: 0.8"/>
      </g>
     </g>
     <g id="text_13">
      <!-- 7.5 -->
      <g transform="translate(16.760625 183.914751) scale(0.1 -0.1)">
       <use xlink:href="#DejaVuSans-37"/>
       <use xlink:href="#DejaVuSans-2e" x="63.623047"/>
       <use xlink:href="#DejaVuSans-35" x="95.410156"/>
      </g>
     </g>
    </g>
    <g id="ytick_5">
     <g id="line2d_25">
      <path d="M 39.66375 147.68611 
L 597.66375 147.68611 
" clip-path="url(#pbf1a8bfadb)" style="fill: none; stroke-dasharray: 0.8,1.32; stroke-dashoffset: 0; stroke: #000000; stroke-opacity: 0.5; stroke-width: 0.8"/>
     </g>
     <g id="line2d_26">
      <g>
       <use xlink:href="#m0616d4624e" x="39.66375" y="147.68611" style="stroke: #000000; stroke-width: 0.8"/>
      </g>
     </g>
     <g id="text_14">
      <!-- 10.0 -->
      <g transform="translate(10.398125 151.485328) scale(0.1 -0.1)">
       <use xlink:href="#DejaVuSans-31"/>
       <use xlink:href="#DejaVuSans-30" x="63.623047"/>
       <use xlink:href="#DejaVuSans-2e" x="127.246094"/>
       <use xlink:href="#DejaVuSans-30" x="159.033203"/>
      </g>
     </g>
    </g>
    <g id="ytick_6">
     <g id="line2d_27">
      <path d="M 39.66375 115.256687 
L 597.66375 115.256687 
" clip-path="url(#pbf1a8bfadb)" style="fill: none; stroke-dasharray: 0.8,1.32; stroke-dashoffset: 0; stroke: #000000; stroke-opacity: 0.5; stroke-width: 0.8"/>
     </g>
     <g id="line2d_28">
      <g>
       <use xlink:href="#m0616d4624e" x="39.66375" y="115.256687" style="stroke: #000000; stroke-width: 0.8"/>
      </g>
     </g>
     <g id="text_15">
      <!-- 12.5 -->
      <g transform="translate(10.398125 119.055905) scale(0.1 -0.1)">
       <use xlink:href="#DejaVuSans-31"/>
       <use xlink:href="#DejaVuSans-32" x="63.623047"/>
       <use xlink:href="#DejaVuSans-2e" x="127.246094"/>
       <use xlink:href="#DejaVuSans-35" x="159.033203"/>
      </g>
     </g>
    </g>
    <g id="ytick_7">
     <g id="line2d_29">
      <path d="M 39.66375 82.827264 
L 597.66375 82.827264 
" clip-path="url(#pbf1a8bfadb)" style="fill: none; stroke-dasharray: 0.8,1.32; stroke-dashoffset: 0; stroke: #000000; stroke-opacity: 0.5; stroke-width: 0.8"/>
     </g>
     <g id="line2d_30">
      <g>
       <use xlink:href="#m0616d4624e" x="39.66375" y="82.827264" style="stroke: #000000; stroke-width: 0.8"/>
      </g>
     </g>
     <g id="text_16">
      <!-- 15.0 -->
      <g transform="translate(10.398125 86.626482) scale(0.1 -0.1)">
       <use xlink:href="#DejaVuSans-31"/>
       <use xlink:href="#DejaVuSans-35" x="63.623047"/>
       <use xlink:href="#DejaVuSans-2e" x="127.246094"/>
       <use xlink:href="#DejaVuSans-30" x="159.033203"/>
      </g>
     </g>
    </g>
    <g id="ytick_8">
     <g id="line2d_31">
      <path d="M 39.66375 50.397841 
L 597.66375 50.397841 
" clip-path="url(#pbf1a8bfadb)" style="fill: none; stroke-dasharray: 0.8,1.32; stroke-dashoffset: 0; stroke: #000000; stroke-opacity: 0.5; stroke-width: 0.8"/>
     </g>
     <g id="line2d_32">
      <g>
       <use xlink:href="#m0616d4624e" x="39.66375" y="50.397841" style="stroke: #000000; stroke-width: 0.8"/>
      </g>
     </g>
     <g id="text_17">
      <!-- 17.5 -->
      <g transform="translate(10.398125 54.19706) scale(0.1 -0.1)">
       <use xlink:href="#DejaVuSans-31"/>
       <use xlink:href="#DejaVuSans-37" x="63.623047"/>
       <use xlink:href="#DejaVuSans-2e" x="127.246094"/>
       <use xlink:href="#DejaVuSans-35" x="159.033203"/>
      </g>
     </g>
    </g>
    <g id="ytick_9">
     <g id="line2d_33">
      <path d="M 39.66375 17.968418 
L 597.66375 17.968418 
" clip-path="url(#pbf1a8bfadb)" style="fill: none; stroke-dasharray: 0.8,1.32; stroke-dashoffset: 0; stroke: #000000; stroke-opacity: 0.5; stroke-width: 0.8"/>
     </g>
     <g id="line2d_34">
      <g>
       <use xlink:href="#m0616d4624e" x="39.66375" y="17.968418" style="stroke: #000000; stroke-width: 0.8"/>
      </g>
     </g>
     <g id="text_18">
      <!-- 20.0 -->
      <g transform="translate(10.398125 21.767637) scale(0.1 -0.1)">
       <use xlink:href="#DejaVuSans-32"/>
       <use xlink:href="#DejaVuSans-30" x="63.623047"/>
       <use xlink:href="#DejaVuSans-2e" x="127.246094"/>
       <use xlink:href="#DejaVuSans-30" x="159.033203"/>
      </g>
     </g>
    </g>
    <g id="text_19">
     <!-- 2-Norm M [Nm] -->
     <g transform="translate(8.318437 177.948125) rotate(-90) scale(0.1 -0.1)">
      <defs>
       <path id="DejaVuSans-2d" d="M 313 2009 
L 1997 2009 
L 1997 1497 
L 313 1497 
L 313 2009 
z
" transform="scale(0.015625)"/>
       <path id="DejaVuSans-4e" d="M 628 4666 
L 1478 4666 
L 3547 763 
L 3547 4666 
L 4159 4666 
L 4159 0 
L 3309 0 
L 1241 3903 
L 1241 0 
L 628 0 
L 628 4666 
z
" transform="scale(0.015625)"/>
       <path id="DejaVuSans-6f" d="M 1959 3097 
Q 1497 3097 1228 2736 
Q 959 2375 959 1747 
Q 959 1119 1226 758 
Q 1494 397 1959 397 
Q 2419 397 2687 759 
Q 2956 1122 2956 1747 
Q 2956 2369 2687 2733 
Q 2419 3097 1959 3097 
z
M 1959 3584 
Q 2709 3584 3137 3096 
Q 3566 2609 3566 1747 
Q 3566 888 3137 398 
Q 2709 -91 1959 -91 
Q 1206 -91 779 398 
Q 353 888 353 1747 
Q 353 2609 779 3096 
Q 1206 3584 1959 3584 
z
" transform="scale(0.015625)"/>
       <path id="DejaVuSans-72" d="M 2631 2963 
Q 2534 3019 2420 3045 
Q 2306 3072 2169 3072 
Q 1681 3072 1420 2755 
Q 1159 2438 1159 1844 
L 1159 0 
L 581 0 
L 581 3500 
L 1159 3500 
L 1159 2956 
Q 1341 3275 1631 3429 
Q 1922 3584 2338 3584 
Q 2397 3584 2469 3576 
Q 2541 3569 2628 3553 
L 2631 2963 
z
" transform="scale(0.015625)"/>
       <path id="DejaVuSans-6d" d="M 3328 2828 
Q 3544 3216 3844 3400 
Q 4144 3584 4550 3584 
Q 5097 3584 5394 3201 
Q 5691 2819 5691 2113 
L 5691 0 
L 5113 0 
L 5113 2094 
Q 5113 2597 4934 2840 
Q 4756 3084 4391 3084 
Q 3944 3084 3684 2787 
Q 3425 2491 3425 1978 
L 3425 0 
L 2847 0 
L 2847 2094 
Q 2847 2600 2669 2842 
Q 2491 3084 2119 3084 
Q 1678 3084 1418 2786 
Q 1159 2488 1159 1978 
L 1159 0 
L 581 0 
L 581 3500 
L 1159 3500 
L 1159 2956 
Q 1356 3278 1631 3431 
Q 1906 3584 2284 3584 
Q 2666 3584 2933 3390 
Q 3200 3197 3328 2828 
z
" transform="scale(0.015625)"/>
       <path id="DejaVuSans-4d" d="M 628 4666 
L 1569 4666 
L 2759 1491 
L 3956 4666 
L 4897 4666 
L 4897 0 
L 4281 0 
L 4281 4097 
L 3078 897 
L 2444 897 
L 1241 4097 
L 1241 0 
L 628 0 
L 628 4666 
z
" transform="scale(0.015625)"/>
      </defs>
      <use xlink:href="#DejaVuSans-32"/>
      <use xlink:href="#DejaVuSans-2d" x="63.623047"/>
      <use xlink:href="#DejaVuSans-4e" x="99.707031"/>
      <use xlink:href="#DejaVuSans-6f" x="174.511719"/>
      <use xlink:href="#DejaVuSans-72" x="235.693359"/>
      <use xlink:href="#DejaVuSans-6d" x="275.056641"/>
      <use xlink:href="#DejaVuSans-20" x="372.46875"/>
      <use xlink:href="#DejaVuSans-4d" x="404.255859"/>
      <use xlink:href="#DejaVuSans-20" x="490.535156"/>
      <use xlink:href="#DejaVuSans-5b" x="522.322266"/>
      <use xlink:href="#DejaVuSans-4e" x="561.335938"/>
      <use xlink:href="#DejaVuSans-6d" x="636.140625"/>
      <use xlink:href="#DejaVuSans-5d" x="733.552734"/>
     </g>
    </g>
   </g>
   <g id="line2d_35">
    <path d="M 39.66375 267.965197 
L 224.409414 267.965196 
L 224.715194 265.285138 
L 224.892988 267.824339 
L 225.659413 267.892347 
L 226.674894 268.793458 
L 227.149726 268.723606 
L 227.387755 268.386467 
L 227.686478 268.721857 
L 227.868289 268.241319 
L 228.345389 268.675022 
L 228.583765 268.164906 
L 228.640177 268.593816 
L 229.355088 268.644293 
L 229.65287 268.293773 
L 229.891889 268.532095 
L 230.133713 268.613882 
L 230.372644 268.17624 
L 230.668559 268.704046 
L 231.159566 268.705966 
L 231.334006 268.827085 
L 231.866877 268.51199 
L 232.106038 268.775608 
L 232.403301 268.257083 
L 232.791084 268.511961 
L 232.824656 267.917113 
L 233.297763 268.622623 
L 233.476995 268.688339 
L 233.595447 268.416865 
L 234.369389 268.781813 
L 234.548822 267.717758 
L 234.7876 268.736427 
L 235.620808 268.131698 
L 235.799613 268.729326 
L 236.276918 268.139604 
L 236.593603 268.589604 
L 236.887888 268.366235 
L 237.067695 268.595004 
L 237.545154 268.156788 
L 237.782225 268.519048 
L 238.080776 268.51063 
L 238.318762 268.344375 
L 238.55664 268.839302 
L 238.855961 269.01214 
L 239.03584 268.35346 
L 239.451472 268.36084 
L 239.511698 268.597071 
L 239.989393 268.265867 
L 240.226006 268.867992 
L 240.466249 268.971893 
L 240.710019 268.689664 
L 241.001717 269.141404 
L 241.184175 268.216726 
L 241.478119 268.696053 
L 241.775489 268.617105 
L 241.954735 269.142237 
L 242.550822 268.097543 
L 242.730276 268.839633 
L 242.967569 268.49236 
L 243.205834 268.362513 
L 243.505 268.680478 
L 243.802683 268.721201 
L 244.100781 268.878606 
L 244.279752 268.264264 
L 244.576998 268.108346 
L 244.700358 268.523068 
L 244.9975 268.431399 
L 245.414504 268.068323 
L 245.692774 268.672506 
L 245.921036 268.4144 
L 246.159721 268.669866 
L 246.902759 269.104357 
L 247.363663 268.545183 
L 247.49888 267.731201 
L 247.621754 268.006703 
L 247.915731 269.001127 
L 248.155177 268.227312 
L 248.393201 268.01994 
L 248.630464 269.224548 
L 249.286265 267.680167 
L 249.524635 268.280828 
L 249.704193 268.023462 
L 250.009627 269.181358 
L 250.181784 267.9938 
L 250.379919 268.581229 
L 250.691755 268.499217 
L 250.957932 268.631534 
L 251.078157 268.314567 
L 251.337719 268.35407 
L 251.615497 268.833328 
L 252.151175 268.533828 
L 252.332093 268.832298 
L 252.627654 268.223344 
L 253.164974 269.068055 
L 253.586696 268.983591 
L 253.821648 269.016271 
L 254.298365 268.487876 
L 255.073737 268.95627 
L 255.311971 268.684556 
L 255.551291 267.340123 
L 256.027108 269.311872 
L 256.444132 267.305758 
L 256.802118 268.04419 
L 256.863269 268.818586 
L 257.040174 268.548319 
L 257.279193 267.969674 
L 257.75765 268.660509 
L 258.174511 268.829254 
L 258.295534 268.31432 
L 258.591619 268.030723 
L 258.771597 269.263428 
L 259.366027 267.887495 
L 259.60607 268.921422 
L 259.738168 267.703288 
L 260.319151 267.252348 
L 260.648855 268.333459 
L 260.891085 268.53841 
L 261.036964 269.014179 
L 261.334171 267.680974 
L 261.455385 268.429004 
L 261.752087 268.624948 
L 262.110266 270.426978 
L 262.651005 267.822881 
L 262.763743 267.632359 
L 263.136684 268.40588 
L 263.489722 267.917339 
L 263.955136 268.688998 
L 264.31271 267.48632 
L 264.491774 267.616086 
L 264.908637 269.106003 
L 265.027838 268.365252 
L 265.266335 268.869487 
L 265.446787 267.234939 
L 265.804141 269.004102 
L 266.042899 268.767171 
L 266.219802 268.930895 
L 266.460464 268.900692 
L 266.87571 267.133119 
L 267.11655 267.673217 
L 267.352886 267.65933 
L 267.413111 268.835497 
L 267.650748 268.583977 
L 267.949397 268.554293 
L 268.255357 268.640468 
L 268.485766 267.97927 
L 268.72456 269.116225 
L 268.92079 268.412321 
L 269.260439 268.469142 
L 269.498949 267.391551 
L 269.91771 268.627689 
L 270.178105 268.179215 
L 270.394582 267.480008 
L 270.691571 267.545951 
L 271.048316 267.992701 
L 271.286669 267.838931 
L 271.40607 268.663635 
L 271.822904 268.437659 
L 271.883938 267.77219 
L 272.479525 267.695186 
L 272.72259 268.026358 
L 272.896749 267.552941 
L 273.13597 268.814365 
L 273.61545 267.495735 
L 273.850361 268.918915 
L 274.088899 267.061514 
L 274.336267 266.636645 
L 274.625127 267.932629 
L 275.130389 268.725343 
L 275.38031 268.476958 
L 275.819201 267.742993 
L 276.198585 268.375135 
L 276.474512 268.829559 
L 276.598788 267.876746 
L 277.074328 268.097332 
L 277.369148 268.827153 
L 277.554726 267.358287 
L 277.973264 268.328578 
L 278.210015 267.026619 
L 278.323021 268.282011 
L 278.751406 268.075449 
L 278.940013 267.194262 
L 279.099979 269.127087 
L 279.281468 269.072325 
L 279.636718 267.293963 
L 279.785429 267.739068 
L 280.35479 267.903004 
L 280.592111 269.230794 
L 280.773269 266.857669 
L 281.068493 268.355103 
L 281.247897 268.31245 
L 281.545863 269.167653 
L 281.784747 267.773225 
L 282.141402 267.352736 
L 282.321038 268.551774 
L 282.755009 266.675077 
L 283.034865 268.766336 
L 283.217553 267.143671 
L 283.274594 267.670061 
L 283.512418 267.630191 
L 283.694668 268.262919 
L 283.989372 267.648578 
L 284.467275 267.715106 
L 284.825257 270.508138 
L 285.122855 268.013028 
L 285.249784 265.856743 
L 285.480872 268.02205 
L 285.724272 269.014112 
L 286.017338 268.770976 
L 286.195563 266.461462 
L 286.437195 267.851247 
L 286.851374 268.155752 
L 286.971717 267.909852 
L 287.209721 269.868643 
L 287.687625 267.036482 
L 287.930351 266.828712 
L 288.168185 266.073543 
L 288.423358 268.169296 
L 288.645043 267.431902 
L 289.003527 268.222379 
L 289.061702 268.753786 
L 289.420312 268.229905 
L 289.65846 268.467234 
L 289.897157 268.965794 
L 290.616006 267.514734 
L 290.972085 268.406748 
L 291.388641 270.478426 
L 291.50857 267.495021 
L 291.626817 269.996814 
L 292.044301 265.806832 
L 292.109693 269.42124 
L 292.386426 268.408506 
L 292.656465 266.813238 
L 292.840774 268.727062 
L 293.295588 265.348712 
L 293.355913 267.456701 
L 293.593513 268.523521 
L 293.891885 267.740231 
L 294.13022 267.497316 
L 294.368492 267.054906 
L 294.665921 267.831119 
L 294.849997 267.444888 
L 295.085166 265.780196 
L 295.627512 266.993056 
L 295.859935 265.501845 
L 296.039256 267.550211 
L 296.334598 267.338369 
L 296.573638 268.704412 
L 296.878168 268.413509 
L 297.10904 266.081767 
L 297.58731 268.085992 
L 297.768568 268.248777 
L 298.122788 267.831138 
L 298.313252 266.685004 
L 298.599912 268.068785 
L 298.78138 266.329133 
L 299.256303 268.315932 
L 299.496403 268.163519 
L 299.793646 266.8948 
L 300.031174 267.146994 
L 300.269374 268.822154 
L 300.767487 268.215811 
L 300.988152 268.652143 
L 301.343712 267.084208 
L 301.522643 269.050517 
L 301.761104 266.781295 
L 302.015113 268.025468 
L 302.240702 266.492119 
L 302.654986 269.659994 
L 302.774265 268.578475 
L 303.072192 269.01034 
L 303.251497 267.430691 
L 303.608551 267.734332 
L 303.787336 269.049746 
L 304.204824 267.725762 
L 304.502261 268.26323 
L 304.705968 267.637162 
L 304.987056 268.488505 
L 305.280049 268.058765 
L 305.577348 267.322974 
L 305.75661 268.225271 
L 306.113807 268.120835 
L 306.413169 266.766021 
L 306.471668 267.349332 
L 306.70954 267.005877 
L 307.007395 267.43417 
L 307.189997 266.751834 
L 307.54622 266.731025 
L 307.722964 266.383425 
L 307.962447 266.604118 
L 308.156962 268.17956 
L 308.442681 267.709821 
L 309.060983 267.273682 
L 309.228908 266.755158 
L 309.460063 267.486253 
L 309.698835 269.515342 
L 310.000186 267.464963 
L 310.247672 267.892225 
L 310.474486 266.89235 
L 310.616416 267.617808 
L 311.091248 266.275078 
L 311.162751 266.938098 
L 311.450148 268.116275 
L 311.688208 265.829863 
L 311.868941 269.014333 
L 312.224712 268.76788 
L 312.403648 268.334563 
L 312.772521 268.967509 
L 312.942464 266.503218 
L 313.536256 268.570876 
L 313.662684 266.971911 
L 313.893915 267.575971 
L 314.251162 267.762981 
L 314.373575 241.862846 
L 314.96643 244.940457 
L 315.396716 261.716849 
L 315.741088 261.852792 
L 315.862752 265.63216 
L 316.099825 267.769003 
L 316.398654 267.974185 
L 316.843528 268.968334 
L 317.177921 269.035002 
L 317.495127 268.598281 
L 317.612971 271.411448 
L 317.856242 269.186497 
L 318.156502 270.177579 
L 318.270964 268.211594 
L 318.571832 268.825181 
L 318.924219 267.908626 
L 319.221483 267.968966 
L 319.341039 267.840185 
L 319.520127 267.410557 
L 319.879864 269.278766 
L 320.120023 269.220055 
L 320.658828 266.679386 
L 320.775803 267.810921 
L 321.071415 266.037024 
L 321.309198 267.69652 
L 321.785669 268.347394 
L 322.025744 267.963815 
L 322.262944 269.65053 
L 322.501262 268.474622 
L 322.745235 268.204444 
L 323.039003 270.098944 
L 323.518143 268.073654 
L 323.752945 267.788394 
L 324.001417 268.067572 
L 324.230989 267.907737 
L 324.471428 267.915265 
L 324.709478 266.529896 
L 325.124841 266.668174 
L 325.244685 268.290164 
L 325.665127 267.111096 
L 325.730608 269.000389 
L 325.963095 267.842402 
L 326.615272 267.975645 
L 326.794265 268.221946 
L 326.972988 267.823249 
L 327.212419 269.387577 
L 327.45552 269.066699 
L 327.691696 268.169885 
L 328.0133 268.786668 
L 328.403242 267.6775 
L 328.462891 268.261779 
L 328.701572 267.870544 
L 328.939924 267.987107 
L 329.181163 267.669615 
L 329.417443 267.944967 
L 329.656413 269.427784 
L 329.955184 267.025949 
L 330.332753 268.049055 
L 330.43627 267.236226 
L 330.669274 266.536499 
L 330.906412 268.912822 
L 331.323879 267.934442 
L 331.741885 267.98334 
L 331.922231 267.130325 
L 332.218011 267.80511 
L 332.47336 266.87528 
L 332.959195 268.430312 
L 333.179757 267.573431 
L 333.648856 267.815848 
L 333.886335 267.613178 
L 334.185202 267.96699 
L 334.428658 267.430252 
L 334.663675 267.248606 
L 334.902354 268.249735 
L 335.141441 267.868358 
L 335.386983 267.094575 
L 335.74203 268.731192 
L 336.183873 267.803186 
L 336.392406 267.859938 
L 336.870602 266.502599 
L 337.132855 266.940676 
L 337.345789 268.289156 
L 337.824391 268.359946 
L 338.061864 267.544753 
L 338.478522 268.061347 
L 338.598366 268.448065 
L 338.897392 267.63742 
L 339.077754 267.964011 
L 339.322295 269.359389 
L 339.705708 267.109098 
L 339.819028 268.291152 
L 340.152231 267.74726 
L 340.451967 269.39112 
L 340.570985 267.706649 
L 340.986748 267.911002 
L 341.106081 267.786394 
L 341.284217 267.959742 
L 341.582485 268.49551 
L 341.880666 266.797187 
L 342.059378 267.691782 
L 342.297718 268.008839 
L 342.536375 267.77281 
L 342.775941 268.381202 
L 343.078119 267.268206 
L 343.25277 267.23513 
L 343.551154 268.409304 
L 343.753484 268.086042 
L 344.026653 267.9943 
L 344.385131 266.736894 
L 344.525269 267.964046 
L 344.743143 267.963978 
L 344.980562 268.120211 
L 345.397638 267.853288 
L 345.516412 268.408395 
L 345.995989 267.493929 
L 346.234377 267.827815 
L 346.542218 267.630528 
L 346.770469 267.260724 
L 346.954342 268.764386 
L 347.245856 267.699853 
L 347.54748 267.709727 
L 347.784202 268.951709 
L 347.961634 267.299849 
L 348.20782 268.066735 
L 348.497461 268.363392 
L 348.794532 268.108852 
L 348.973488 267.742333 
L 349.212663 267.93522 
L 349.63185 268.125088 
L 349.691959 267.889095 
L 350.186568 267.990828 
L 350.411227 267.255246 
L 350.764346 268.006675 
L 351.003037 267.973846 
L 351.300565 267.678656 
L 351.717971 269.747807 
L 352.016141 267.559135 
L 352.433452 268.009707 
L 352.67119 269.432852 
L 353.028488 266.48057 
L 353.20912 268.170745 
L 353.506348 267.509509 
L 353.804262 268.135871 
L 353.924137 267.787818 
L 354.162568 266.636575 
L 354.519174 268.240434 
L 354.938233 268.069305 
L 355.353005 269.170929 
L 355.651098 267.20465 
L 355.890107 267.981155 
L 356.12808 267.824293 
L 356.426658 268.055517 
L 356.724303 267.964025 
L 356.852298 266.755252 
L 357.154313 267.958028 
L 357.391327 267.977353 
L 357.856502 266.65342 
L 358.275857 266.789238 
L 358.393284 268.322013 
L 358.575019 267.876401 
L 358.928962 268.065912 
L 359.228259 267.819773 
L 359.361058 267.442964 
L 359.780445 267.964007 
L 359.887693 267.311725 
L 360.125794 267.24382 
L 360.364369 268.142016 
L 360.609128 268.134333 
L 360.900799 267.942362 
L 361.079574 268.082874 
L 361.38431 267.608003 
L 361.625863 266.916543 
L 361.915452 269.182485 
L 362.037131 267.108958 
L 362.290044 267.826737 
L 362.576441 267.219345 
L 362.822611 268.015625 
L 363.04802 267.953615 
L 363.346575 267.703786 
L 363.58502 268.497183 
L 363.823591 268.047512 
L 364.111127 267.171595 
L 364.364467 269.390717 
L 364.584384 267.869718 
L 364.78294 268.146755 
L 365.077308 266.726383 
L 365.55409 267.917751 
L 365.791482 268.106111 
L 366.090108 267.754502 
L 366.268565 267.98795 
L 366.506636 267.761835 
L 366.804573 269.558616 
L 367.102519 268.059833 
L 367.281504 268.195319 
L 367.591423 266.763576 
L 367.822636 267.964029 
L 368.298582 267.913693 
L 368.474222 267.750904 
L 368.77414 267.963995 
L 369.009091 267.315076 
L 369.32591 267.244111 
L 369.488951 268.250111 
L 369.790623 266.89252 
L 370.087217 267.970086 
L 370.274743 267.784389 
L 370.505778 267.883828 
L 370.690293 268.315088 
L 370.982696 268.258205 
L 371.401245 269.670199 
L 371.521661 267.512953 
L 371.939027 268.120226 
L 372.176156 267.858339 
L 372.473253 266.812546 
L 372.716036 267.759974 
L 372.950073 267.798792 
L 373.188762 268.050918 
L 373.486515 267.830061 
L 374.022511 267.021044 
L 374.557981 268.140104 
L 375.095387 266.683444 
L 375.15413 270.377355 
L 375.517406 268.168326 
L 375.810497 267.692812 
L 375.873378 267.81716 
L 376.241447 267.845969 
L 376.406846 268.089807 
L 376.647471 267.3108 
L 377.002364 268.068994 
L 377.18212 267.977649 
L 377.486253 267.370481 
L 377.662001 269.604768 
L 377.896845 268.158959 
L 378.436197 268.090975 
L 378.61506 266.501631 
L 378.852023 266.685567 
L 379.131828 268.203871 
L 379.628445 267.964019 
L 379.866723 267.983503 
L 380.164284 266.696482 
L 380.343724 267.996024 
L 380.702529 267.714747 
L 380.939697 268.716441 
L 381.11853 268.308728 
L 381.476413 268.149911 
L 381.595457 267.506792 
L 381.834708 267.58212 
L 382.132475 267.457009 
L 382.37036 268.028821 
L 382.72774 268.0598 
L 382.90592 267.860783 
L 383.331233 267.985241 
L 383.562114 268.492043 
L 383.801873 267.304527 
L 384.099205 268.238631 
L 384.277579 267.755794 
L 384.575715 268.053628 
L 384.814129 267.970977 
L 385.052209 266.983641 
L 385.29111 268.083714 
L 385.528778 268.276984 
L 386.302905 266.717795 
L 386.602999 267.91285 
L 386.898717 268.07073 
L 387.143266 268.898261 
L 387.315878 266.928129 
L 387.733419 267.997196 
L 387.794021 267.890712 
L 388.03289 267.802818 
L 388.449062 267.984213 
L 388.569295 266.470917 
L 388.865096 268.941081 
L 389.044672 267.860118 
L 389.282497 267.903503 
L 389.521509 266.797732 
L 389.997678 267.998924 
L 390.239634 268.170348 
L 390.534347 267.885583 
L 391.012447 267.964058 
L 391.370077 267.963921 
L 391.488372 267.356995 
L 391.727656 268.161153 
L 392.027171 269.668606 
L 392.739332 268.017136 
L 393.11777 268.005254 
L 393.222352 267.858944 
L 393.4553 268.623493 
L 393.695023 266.95651 
L 394.175224 268.094472 
L 394.588785 266.790047 
L 394.812387 268.854097 
L 394.946729 268.144913 
L 395.959109 268.177144 
L 396.317477 267.667055 
L 396.43649 266.95235 
L 396.734986 267.567141 
L 396.97838 267.733007 
L 397.211695 267.340735 
L 397.449945 267.7792 
L 397.629625 267.845799 
L 397.870355 268.102843 
L 398.167434 268.206762 
L 398.403798 268.084474 
L 398.641761 267.100811 
L 399.000066 267.990275 
L 399.178417 267.613563 
L 399.416817 267.855434 
L 399.654907 266.809043 
L 399.893719 267.983285 
L 400.193121 268.059041 
L 400.550617 267.678958 
L 400.790279 267.636422 
L 401.028061 269.260519 
L 401.14708 267.109148 
L 401.625686 268.261599 
L 401.871183 267.405226 
L 402.161244 267.116262 
L 402.401733 268.146849 
L 402.637578 268.277755 
L 402.936453 267.820713 
L 403.116043 268.107232 
L 403.414626 269.55086 
L 403.592281 267.254483 
L 403.830573 268.065797 
L 404.323354 267.735857 
L 404.367269 267.617749 
L 404.558559 269.123948 
L 404.794526 268.026801 
L 405.083489 267.763806 
L 405.563443 268.225645 
L 405.80225 267.536577 
L 406.108824 269.349322 
L 406.336607 267.875481 
L 406.546042 268.18394 
L 406.813617 268.355827 
L 407.055355 269.528529 
L 407.293574 268.109671 
L 407.587498 268.153355 
L 407.82825 267.653875 
L 408.124161 267.868645 
L 408.305051 269.818635 
L 408.541829 269.56437 
L 408.78093 267.759344 
L 409.021738 267.908675 
L 409.378759 267.416208 
L 409.559301 269.765587 
L 409.797445 267.986812 
L 410.078936 267.940512 
L 410.395625 268.214663 
L 410.631573 267.117952 
L 410.75066 269.324348 
L 410.98995 269.484242 
L 411.287284 267.768594 
L 411.586858 267.849604 
L 411.766953 268.339662 
L 412.005311 267.503537 
L 412.304089 267.938556 
L 412.48134 267.795807 
L 412.780581 267.838391 
L 413.018146 268.395676 
L 413.257153 266.657492 
L 413.673626 267.964 
L 413.746398 267.759583 
L 414.032517 268.01433 
L 414.22328 268.525544 
L 414.617695 267.061077 
L 414.745757 268.404855 
L 414.975697 267.977867 
L 415.275767 267.780911 
L 415.633619 267.834189 
L 415.694521 266.784602 
L 415.991224 268.242915 
L 416.228976 268.206899 
L 416.720601 267.963935 
L 417.124167 268.238538 
L 417.184136 268.139397 
L 417.482519 268.277016 
L 417.724864 267.928007 
L 417.966086 268.632708 
L 418.163208 267.493912 
L 418.437644 268.631222 
L 419.215402 267.727115 
L 419.632663 267.996477 
L 419.69188 267.859287 
L 419.931369 268.403984 
L 420.287606 268.061305 
L 420.466217 267.126936 
L 420.648521 267.162812 
L 420.885015 266.950193 
L 421.123501 267.888597 
L 421.442375 267.971333 
L 421.662454 267.845423 
L 421.898952 268.885941 
L 422.135994 267.901911 
L 422.375066 268.040114 
L 422.673163 267.89758 
L 422.854187 268.163397 
L 423.386749 268.433911 
L 423.395261 256.607842 
L 423.629898 268.124344 
L 423.986151 266.87279 
L 424.165927 267.313043 
L 424.413064 267.355751 
L 424.645276 268.107354 
L 425.001915 268.133885 
L 425.121516 267.228672 
L 425.306258 268.094851 
L 425.597988 268.329159 
L 425.836645 267.964092 
L 426.076145 268.046551 
L 426.315993 268.306644 
L 426.735611 269.67228 
L 426.790223 266.768222 
L 427.149375 267.906952 
L 427.332964 267.810049 
L 427.567477 267.974783 
L 427.806408 268.004002 
L 428.226037 267.937992 
L 428.351015 267.373129 
L 428.606337 268.09026 
L 428.820104 266.8792 
L 429.067377 267.02776 
L 429.119026 268.356726 
L 429.357918 268.894117 
L 429.597346 267.960259 
L 429.780082 268.335334 
L 430.016837 267.899812 
L 430.31226 267.948752 
L 430.789019 269.812753 
L 431.265787 266.52934 
L 431.505259 266.406764 
L 432.06476 267.999319 
L 432.28292 268.060473 
L 432.518589 269.751701 
L 432.758461 272.589231 
L 433.004434 270.878424 
L 433.256595 270.338146 
L 433.488981 270.787789 
L 433.722834 270.126557 
L 433.982174 268.829563 
L 434.317915 268.218858 
L 434.624489 268.263883 
L 434.754968 267.920821 
L 435.282613 268.391402 
L 435.575546 268.020351 
L 435.695886 267.351994 
L 435.937111 267.140902 
L 436.359802 267.099548 
L 436.479019 268.423987 
L 436.710858 268.120235 
L 436.953953 267.550119 
L 437.32452 268.658105 
L 437.48528 268.743428 
L 437.788236 268.15865 
L 438.02309 267.980594 
L 438.261204 267.631986 
L 438.56166 268.598227 
L 438.801092 266.846613 
L 439.252073 268.490848 
L 439.40335 269.13135 
L 439.668632 268.425894 
L 439.939514 268.927863 
L 440.254787 267.958012 
L 440.420428 266.415131 
L 440.770392 267.518696 
L 440.974661 267.239368 
L 441.188583 267.494795 
L 441.487795 267.483718 
L 441.66618 268.889003 
L 441.904706 268.559394 
L 442.146541 268.884597 
L 442.621527 267.114082 
L 443.15752 268.417121 
L 443.422593 267.528305 
L 444.28058 268.25376 
L 444.467933 268.84583 
L 444.698336 265.983816 
L 444.996302 268.888975 
L 445.176648 268.085278 
L 445.354903 268.017973 
L 445.831679 267.058096 
L 446.190544 268.829834 
L 446.372078 268.557736 
L 446.727181 267.044477 
L 446.852787 269.569911 
L 447.111121 268.850961 
L 447.383944 267.712081 
L 447.622428 267.921874 
L 447.864467 267.276002 
L 448.100417 268.106099 
L 448.578337 268.213628 
L 448.817072 266.74019 
L 449.065829 267.888525 
L 449.299304 266.899055 
L 449.598275 268.482983 
L 449.786204 267.654142 
L 450.075728 267.551275 
L 450.313662 267.603524 
L 450.553126 267.068284 
L 450.969281 268.150816 
L 451.057058 267.668823 
L 451.327987 268.776707 
L 451.625007 268.361132 
L 451.922879 267.572574 
L 452.103027 267.779709 
L 452.341457 266.541751 
L 452.58684 267.979483 
L 452.81959 267.828339 
L 453.238295 268.941241 
L 453.487653 267.520864 
L 453.77411 268.255927 
L 454.025783 267.709486 
L 454.259036 266.436733 
L 454.63062 267.657703 
L 454.79374 266.598462 
L 454.970256 268.348581 
L 455.295304 268.530144 
L 455.506139 266.150837 
L 455.926543 267.747588 
L 456.008065 267.004677 
L 456.232806 267.960152 
L 456.461664 267.871707 
L 456.700791 266.98459 
L 457.122272 267.712575 
L 457.311685 268.774721 
L 457.547957 266.716778 
L 457.727843 266.258958 
L 458.144971 267.881695 
L 458.205631 266.856843 
L 458.623582 268.253158 
L 458.923423 267.971563 
L 459.337184 266.218374 
L 459.456672 267.99816 
L 459.696709 267.126861 
L 459.933675 267.870108 
L 460.350818 267.103271 
L 460.470212 267.656248 
L 460.709249 267.098824 
L 460.953467 267.333502 
L 461.007736 267.641582 
L 461.18792 267.036009 
L 461.425331 265.037858 
L 461.666484 267.860081 
L 461.962286 267.740734 
L 462.142135 267.442514 
L 462.46182 267.376668 
L 462.62207 267.916831 
L 462.920613 266.030926 
L 463.158605 267.836886 
L 463.400949 267.125281 
L 463.696797 267.98766 
L 464.115298 266.197394 
L 464.413581 267.907889 
L 464.600074 266.988962 
L 465.00953 267.024143 
L 465.156689 267.740771 
L 465.370962 267.092229 
L 465.844917 267.177016 
L 466.08428 267.780905 
L 466.331641 267.741306 
L 466.630615 266.373473 
L 466.871726 267.351244 
L 467.17029 267.174027 
L 467.404855 267.465777 
L 467.644557 267.030331 
L 467.824123 267.83018 
L 468.360171 267.586858 
L 468.757975 267.064199 
L 468.905365 267.687438 
L 469.081983 266.235847 
L 469.47264 267.488798 
L 469.615194 267.537221 
L 469.922103 266.998725 
L 470.092125 267.477721 
L 470.34042 267.422939 
L 470.703399 267.588881 
L 470.810358 267.989205 
L 471.054309 268.050004 
L 471.289272 266.617915 
L 471.596327 266.427943 
L 471.844075 266.979807 
L 472.067656 266.238021 
L 472.304676 266.999574 
L 472.550755 266.178025 
L 472.842952 266.642749 
L 473.026161 267.818884 
L 473.322658 267.654445 
L 473.617723 267.072866 
L 473.797124 267.595772 
L 474.215014 266.502875 
L 474.561173 267.360933 
L 475.029134 266.419279 
L 475.331201 268.23086 
L 475.515805 266.02526 
L 475.806365 266.275728 
L 476.110765 267.189671 
L 476.286591 266.032514 
L 476.47648 266.177027 
L 476.762523 267.243851 
L 477.001397 266.890878 
L 477.240267 265.766638 
L 477.477999 265.75076 
L 477.71687 267.269729 
L 477.956399 265.17777 
L 478.373395 265.805896 
L 478.52253 268.021354 
L 478.910883 266.086919 
L 479.029765 267.360701 
L 479.268341 266.181502 
L 479.506799 267.502073 
L 479.804464 266.157687 
L 479.936676 266.828004 
L 480.196158 267.182194 
L 480.466175 265.604949 
L 480.761165 266.305817 
L 480.959811 265.86994 
L 481.179588 266.131813 
L 481.420274 267.367796 
L 481.800085 266.949983 
L 481.958192 267.129478 
L 482.193795 265.565371 
L 482.461798 266.812136 
L 482.978105 266.545224 
L 483.27314 265.76976 
L 483.701047 267.320577 
L 483.957095 265.842016 
L 484.247977 266.663445 
L 484.369561 265.499544 
L 484.661814 266.634436 
L 484.960115 266.824351 
L 485.258211 266.434112 
L 485.377725 266.94138 
L 485.675613 266.294277 
L 485.922042 264.808159 
L 486.391822 266.771266 
L 486.63166 267.010829 
L 487.168293 265.912935 
L 487.408916 265.869987 
L 487.644265 266.242692 
L 487.882636 265.993304 
L 488.122163 266.463049 
L 488.367452 266.234046 
L 488.838186 266.41739 
L 489.198392 265.878854 
L 489.375454 265.196924 
L 489.616275 266.4132 
L 489.91265 265.801442 
L 490.701257 266.544717 
L 490.867709 266.297905 
L 491.166028 266.544075 
L 491.403833 265.793898 
L 491.84479 266.376663 
L 492.060689 266.50958 
L 492.362556 266.318476 
L 492.655511 266.976739 
L 492.90229 265.86388 
L 493.074224 265.888508 
L 493.315143 266.209329 
L 493.551282 265.678243 
L 493.866742 266.479262 
L 494.045722 266.275709 
L 494.283865 266.927174 
L 494.761952 266.937437 
L 494.821927 265.903446 
L 495.119747 266.759426 
L 495.302147 266.186868 
L 495.541575 265.892871 
L 495.775241 265.87978 
L 496.073079 265.281386 
L 496.253579 264.437248 
L 496.552499 265.843441 
L 496.849 265.587082 
L 497.027549 265.958048 
L 497.330332 265.757267 
L 497.568274 266.164845 
L 497.8051 264.537651 
L 498.092018 265.47751 
L 498.282985 265.709939 
L 498.488368 265.194825 
L 498.763746 265.447341 
L 499.108228 266.228813 
L 499.305822 265.498059 
L 499.545473 265.164524 
L 499.78259 265.467506 
L 500.021522 264.287714 
L 500.260501 265.347497 
L 500.498351 265.884914 
L 500.737309 265.326484 
L 500.978546 265.257136 
L 501.274425 264.544876 
L 501.45412 265.60168 
L 501.770141 265.562314 
L 501.811219 266.080317 
L 501.990021 266.408208 
L 502.291268 264.329605 
L 502.586892 265.710189 
L 502.765332 265.656595 
L 503.245986 265.124597 
L 503.303789 264.399921 
L 503.482056 265.12376 
L 503.726742 265.616342 
L 504.212219 265.370635 
L 504.436848 265.830826 
L 504.676431 264.687657 
L 505.033493 264.713954 
L 505.212344 265.773973 
L 505.390825 264.769193 
L 505.811033 265.881427 
L 505.868507 264.664489 
L 506.230424 264.89294 
L 506.472644 264.466249 
L 506.708897 265.103127 
L 506.943187 265.096109 
L 507.181206 265.205799 
L 507.426981 265.886984 
L 507.73081 264.645171 
L 507.907695 265.208225 
L 508.154245 265.202527 
L 508.39231 265.584914 
L 508.636272 264.870629 
L 508.868969 265.016089 
L 509.166831 264.07467 
L 509.351296 265.498203 
L 509.64613 263.861767 
L 509.948029 266.221947 
L 510.180797 263.74296 
L 510.436306 263.620549 
L 510.65945 265.986472 
L 511.082915 264.50059 
L 511.135667 265.166758 
L 511.374107 264.352329 
L 511.792183 265.023547 
L 511.852584 264.934825 
L 512.093214 265.211459 
L 512.588079 264.525196 
L 512.892695 264.863324 
L 513.106867 264.10672 
L 513.363513 264.80837 
L 513.584657 264.650887 
L 513.823865 263.92224 
L 514.063606 265.842294 
L 514.375601 263.690994 
L 514.780018 265.571263 
L 514.841288 264.668112 
L 515.076501 265.311863 
L 515.559308 264.4323 
L 515.732476 264.425749 
L 515.864106 265.125746 
L 516.051455 264.512111 
L 516.408807 265.354613 
L 516.629422 264.73913 
L 516.85111 264.800076 
L 517.079376 264.155277 
L 517.318518 264.09875 
L 517.56118 263.615126 
L 517.92345 265.219021 
L 518.083149 264.463593 
L 518.320466 264.759248 
L 518.677448 264.80673 
L 518.86362 264.138656 
L 519.039139 264.942061 
L 519.334106 265.126099 
L 519.641427 264.291663 
L 519.814061 264.18591 
L 520.112645 264.988367 
L 520.291039 264.243616 
L 520.549387 264.082597 
L 520.886204 264.365616 
L 521.020978 263.654716 
L 521.302709 262.950794 
L 521.600537 259.676992 
L 521.782837 261.992134 
L 522.020402 260.7833 
L 522.27614 261.828402 
L 522.556008 261.181589 
L 523.034618 262.612346 
L 523.27818 262.016771 
L 523.524675 263.583874 
L 523.98887 264.566997 
L 524.42756 264.577553 
L 524.658764 264.285068 
L 525.004648 264.579903 
L 525.291972 264.276227 
L 525.541717 264.284527 
L 526.077738 264.117451 
L 526.436497 264.147151 
L 526.564365 264.044264 
L 526.975126 264.149889 
L 528.47504 264.191745 
L 530.327638 264.193138 
L 530.445877 264.333502 
L 530.694354 264.198849 
L 532.423065 264.174147 
L 533.162056 264.186383 
L 534.396747 264.282767 
L 534.631087 264.108631 
L 535.107391 264.194152 
L 535.881333 264.174245 
L 537.140241 264.190251 
L 569.524798 264.191896 
L 597.66375 264.191944 
L 597.66375 264.191944 
" clip-path="url(#pbf1a8bfadb)" style="fill: none; stroke: #0000ff; stroke-opacity: 0.5; stroke-width: 1.5; stroke-linecap: square"/>
   </g>
   <g id="line2d_36">
    <path d="M 39.66375 225.919441 
L 39.783854 228.098782 
L 40.026741 222.561985 
L 40.097938 227.881176 
L 40.271954 228.364972 
L 40.577998 223.431755 
L 40.868534 224.962029 
L 41.04682 222.028585 
L 41.702784 226.852846 
L 41.762483 222.434477 
L 42.179821 223.43655 
L 42.418097 223.343165 
L 42.537752 222.786292 
L 42.720135 223.534526 
L 43.194344 221.6697 
L 43.25244 223.857241 
L 43.49052 226.121063 
L 43.789809 223.862949 
L 44.088993 222.664042 
L 44.325032 228.250839 
L 44.638655 222.04577 
L 44.742836 227.007665 
L 44.980821 221.76307 
L 45.221383 225.171357 
L 45.461872 226.645866 
L 45.76029 225.579379 
L 45.994985 222.821509 
L 46.233168 224.271381 
L 46.531986 227.240098 
L 46.830922 224.839842 
L 47.01795 224.870091 
L 47.335734 220.756587 
L 47.489825 227.059617 
L 47.727987 223.078322 
L 47.966709 225.314238 
L 48.385694 219.508026 
L 48.566444 222.156207 
L 48.682311 219.271292 
L 48.927118 218.970712 
L 49.16443 220.716362 
L 49.405103 217.618648 
L 49.69785 219.018341 
L 50.301628 217.54415 
L 51.60275 217.135939 
L 52.907734 220.195474 
L 54.211886 224.481594 
L 55.51755 223.552785 
L 56.822058 221.41761 
L 58.246342 219.449489 
L 59.669547 222.122391 
L 60.974731 218.962714 
L 61.115335 220.47374 
L 61.352778 218.355736 
L 61.591256 218.728449 
L 61.830092 218.311038 
L 62.127128 219.748775 
L 62.426829 227.518652 
L 62.842843 218.822407 
L 63.02707 227.062131 
L 63.265343 223.652458 
L 63.564938 222.308859 
L 63.799912 231.006853 
L 64.097206 226.185867 
L 64.277107 217.935146 
L 64.517304 220.53465 
L 64.813869 222.121868 
L 65.007628 220.809747 
L 65.291912 224.039268 
L 65.587586 222.064367 
L 65.886518 217.730764 
L 66.005698 222.86439 
L 66.244714 215.716339 
L 66.484772 215.915214 
L 66.797146 224.265691 
L 67.021194 221.588483 
L 67.26945 216.464961 
L 67.557763 222.935718 
L 67.739132 219.893023 
L 68.037539 218.256236 
L 68.273685 225.388912 
L 68.575314 219.059715 
L 68.749824 220.359794 
L 68.990115 224.950733 
L 69.286242 224.932702 
L 69.584363 226.310302 
L 69.944609 228.556539 
L 70.180935 234.509957 
L 70.777828 221.05049 
L 71.256589 231.696928 
L 71.684286 220.722491 
L 71.978782 227.629003 
L 72.453618 222.866267 
L 72.574145 214.231037 
L 73.231174 224.231775 
L 73.525708 226.186309 
L 73.765755 218.655919 
L 73.943573 218.781912 
L 74.602948 223.32531 
L 74.89821 223.894289 
L 74.95717 226.606803 
L 75.195793 226.043938 
L 75.434362 226.091371 
L 75.673315 220.781761 
L 75.970714 219.952418 
L 76.268498 226.956096 
L 76.510976 226.634223 
L 76.695639 222.99372 
L 76.924738 221.570463 
L 77.163988 221.602408 
L 77.460709 222.188242 
L 77.640197 221.054766 
L 77.940774 219.88761 
L 78.175806 227.904922 
L 78.372594 227.249885 
L 78.653928 219.348916 
L 79.189346 229.555002 
L 79.369271 224.037877 
L 79.60664 223.540158 
L 80.145217 226.483628 
L 80.382332 226.933471 
L 80.622127 220.783455 
L 81.097438 228.293538 
L 81.457067 222.720591 
L 81.648127 217.041611 
L 82.111792 228.355304 
L 82.353703 221.510555 
L 82.826591 217.743807 
L 83.074036 227.062124 
L 83.31216 219.567113 
L 83.601965 222.57863 
L 83.781623 229.891143 
L 84.020344 226.122493 
L 84.376684 216.94078 
L 84.555337 217.837132 
L 84.793432 228.750448 
L 85.033551 230.13676 
L 85.270794 222.06441 
L 85.571955 223.000316 
L 85.867089 230.277339 
L 86.522225 219.467212 
L 86.760941 221.869454 
L 86.99971 222.540189 
L 87.368826 223.13833 
L 87.892949 228.364925 
L 88.25158 216.127364 
L 88.489979 218.900208 
L 89.026763 234.726768 
L 89.264446 233.070806 
L 89.747703 219.652502 
L 90.161158 219.624149 
L 90.279168 218.384185 
L 90.69737 219.900978 
L 91.173369 227.078579 
L 91.242149 223.260796 
L 91.828985 216.9952 
L 92.066609 217.813905 
L 92.424722 220.156364 
L 92.8423 222.69983 
L 93.199505 220.336238 
L 93.497085 221.639351 
L 93.915106 229.445977 
L 94.152202 230.65128 
L 94.450752 228.149398 
L 94.650691 222.332592 
L 94.987222 219.170675 
L 95.165805 223.144304 
L 95.466266 226.23252 
L 96.003052 212.792837 
L 96.180394 212.290142 
L 96.65989 218.234436 
L 97.052768 219.529481 
L 97.225295 222.219345 
L 97.614999 226.075195 
L 97.734037 225.99266 
L 97.855687 215.436857 
L 98.446989 229.348268 
L 98.650798 225.856541 
L 98.94085 216.361681 
L 99.22442 212.331568 
L 99.639888 226.220985 
L 99.878466 223.442149 
L 100.186535 218.171085 
L 100.48639 224.050336 
L 100.742598 225.498707 
L 100.956602 219.535874 
L 101.551938 215.385371 
L 101.687182 225.086322 
L 103.029338 227.255015 
L 104.326579 224.760358 
L 105.755299 227.336729 
L 105.834497 237.377041 
L 106.014248 243.216416 
L 106.615049 231.124712 
L 106.84882 222.466823 
L 107.227157 215.81247 
L 107.466355 216.988945 
L 107.587747 221.886802 
L 107.849583 225.300978 
L 108.548935 214.673333 
L 108.849106 213.685784 
L 109.025912 214.287885 
L 109.325471 221.410673 
L 109.508744 231.600187 
L 109.80141 239.266959 
L 110.063671 236.687006 
L 110.278832 225.546815 
L 110.75721 208.942164 
L 111.053729 217.368733 
L 111.536726 237.751093 
L 112.213032 219.242517 
L 112.451907 220.470225 
L 112.737956 228.726686 
L 112.972945 231.125633 
L 113.210666 225.510791 
L 113.691513 210.229908 
L 113.953504 210.687606 
L 114.486073 215.823769 
L 114.702081 221.57343 
L 114.949222 218.425946 
L 115.254294 216.276424 
L 115.492397 223.661034 
L 115.701481 234.581 
L 116.044001 241.098065 
L 116.196988 237.148017 
L 116.474757 227.036264 
L 117.098036 218.833458 
L 117.377014 231.826846 
L 117.464787 233.376234 
L 117.636728 227.995403 
L 117.943843 225.158845 
L 118.291833 225.173473 
L 118.410341 223.32225 
L 118.64868 223.390734 
L 119.185076 226.013076 
L 119.367193 224.557254 
L 119.917284 215.62603 
L 120.088962 216.799424 
L 120.450436 217.775192 
L 120.982131 209.591726 
L 121.106116 212.319765 
L 121.459549 222.561864 
L 121.767444 224.119534 
L 121.876841 214.12215 
L 122.084038 210.630097 
L 122.594323 226.744348 
L 123.073205 216.698195 
L 123.310752 217.084244 
L 123.785733 216.47837 
L 123.851463 212.154106 
L 124.0969 215.737285 
L 124.321859 227.179937 
L 124.750248 230.254876 
L 124.858418 222.718764 
L 125.156365 221.687219 
L 125.516628 229.716522 
L 125.811166 229.117341 
L 126.110072 232.52823 
L 126.291028 236.204611 
L 126.588169 234.862937 
L 127.018539 224.071539 
L 127.308659 227.069064 
L 127.551834 231.87946 
L 127.788605 231.056886 
L 128.021627 229.518404 
L 128.262035 231.75046 
L 128.558411 233.212287 
L 128.916093 231.862055 
L 129.035332 227.333216 
L 129.273597 222.790165 
L 129.631545 222.027213 
L 129.751139 223.176018 
L 130.288409 222.371425 
L 130.584562 221.989106 
L 130.882234 221.014331 
L 131.00495 218.393441 
L 131.241903 219.297496 
L 131.717936 226.447988 
L 131.95602 226.251399 
L 132.255084 222.739843 
L 132.55131 222.412999 
L 132.731498 222.988249 
L 132.970859 224.445177 
L 133.231937 222.865512 
L 133.449593 220.579308 
L 133.690961 219.609845 
L 134.24136 213.589654 
L 134.430072 216.138279 
L 134.760829 223.798155 
L 134.94218 220.722809 
L 135.20938 212.237946 
L 135.434827 213.689702 
L 135.67261 225.654766 
L 135.913474 231.828426 
L 136.149107 224.695067 
L 136.460737 219.433956 
L 136.923282 230.68262 
L 137.460852 221.780312 
L 138.058346 229.271945 
L 138.305633 224.693897 
L 138.657037 215.308725 
L 139.192581 221.800148 
L 139.623693 216.066864 
L 139.982457 216.393913 
L 140.201668 219.810389 
L 140.502217 220.310697 
L 140.679432 222.347062 
L 141.037281 223.06133 
L 141.157392 224.400879 
L 141.395068 224.328899 
L 141.636894 224.38597 
L 141.888061 224.933651 
L 142.172839 231.652533 
L 142.352991 241.257453 
L 142.844522 239.999766 
L 142.904168 228.431243 
L 143.085126 217.40568 
L 143.381254 215.093836 
L 143.621284 219.306442 
L 143.859044 226.850315 
L 144.096321 226.237107 
L 144.818543 206.869821 
L 145.289672 211.786622 
L 145.586982 228.239418 
L 145.825958 225.785494 
L 146.308184 212.031434 
L 146.540313 211.462295 
L 147.203781 228.730975 
L 147.857353 211.717337 
L 148.045741 215.327522 
L 148.274697 225.306961 
L 148.567939 229.995588 
L 148.805833 226.73826 
L 149.043307 221.612099 
L 149.460492 218.121498 
L 149.579757 219.708812 
L 149.759354 225.238585 
L 150.23695 225.224016 
L 150.534268 223.282881 
L 150.774186 225.430008 
L 151.19071 231.489023 
L 151.250631 239.546759 
L 151.607518 238.453838 
L 151.726909 230.040744 
L 152.084047 221.465553 
L 152.863937 230.869881 
L 153.274413 219.835768 
L 153.51274 217.098175 
L 153.693763 217.242069 
L 153.993049 219.078131 
L 154.049519 223.069842 
L 154.349503 229.344023 
L 154.470169 229.042511 
L 154.706618 220.066109 
L 155.081334 211.882482 
L 155.480188 228.674377 
L 155.778194 227.655902 
L 156.194957 213.970268 
L 156.494392 209.709334 
L 156.733716 210.546441 
L 157.092827 217.870907 
L 157.215499 227.799751 
L 157.449808 231.662101 
L 157.758788 223.459842 
L 157.985633 212.311348 
L 158.223872 208.490643 
L 158.40586 212.389387 
L 158.881212 230.219011 
L 159.236748 230.976486 
L 159.893888 215.409419 
L 160.189897 222.059234 
L 160.667808 239.598154 
L 160.970307 238.038621 
L 161.38371 220.474373 
L 161.800115 214.002426 
L 161.922225 217.253376 
L 162.163124 228.249271 
L 162.396938 227.925532 
L 162.876972 212.97976 
L 163.125773 210.800127 
L 163.355928 210.827589 
L 163.591055 216.431063 
L 163.889366 226.878044 
L 164.131062 230.752552 
L 164.373017 223.512609 
L 164.610444 211.715532 
L 164.843492 208.929538 
L 165.331639 230.271356 
L 165.558189 227.942993 
L 166.153918 224.320289 
L 166.393514 225.43023 
L 166.810477 237.970665 
L 167.049984 238.916181 
L 167.643514 227.919894 
L 167.822162 229.277571 
L 168.060428 235.538653 
L 168.358768 232.691745 
L 168.597501 223.623379 
L 168.8965 219.153411 
L 169.075488 218.31154 
L 169.313446 218.243106 
L 169.552365 219.067528 
L 170.028646 216.833341 
L 170.326416 217.875831 
L 170.690273 220.511242 
L 171.04252 223.768585 
L 171.52016 218.891805 
L 171.759456 220.619261 
L 171.998906 223.527904 
L 172.419217 225.598734 
L 172.593055 223.549581 
L 173.061518 221.404929 
L 173.307806 221.510938 
L 173.5472 221.14958 
L 173.730813 225.668496 
L 173.996384 228.234136 
L 174.500205 219.308996 
L 174.868326 220.346612 
L 174.978707 228.198872 
L 175.319246 225.625637 
L 175.338695 221.013248 
L 175.475525 215.753938 
L 175.696721 215.808408 
L 176.234872 226.701763 
L 176.709447 212.730392 
L 176.948061 214.847409 
L 177.24662 222.846756 
L 177.484592 220.393527 
L 177.740639 216.08413 
L 178.210561 228.922589 
L 178.497653 224.473333 
L 178.91665 214.155716 
L 179.272088 217.819219 
L 179.513194 223.454493 
L 179.689715 224.361776 
L 180.183297 224.324259 
L 180.404891 215.135074 
L 180.703054 208.55897 
L 181.120736 205.632029 
L 181.360756 212.125684 
L 181.49562 223.820158 
L 181.715661 227.138755 
L 182.165064 211.78989 
L 182.398192 214.974156 
L 182.63659 221.953068 
L 182.877713 223.465347 
L 183.113136 222.619984 
L 183.472795 226.028276 
L 183.829078 228.137659 
L 184.017579 225.104805 
L 184.133121 221.17886 
L 184.371154 220.71988 
L 184.629161 219.383214 
L 184.866962 218.919591 
L 185.169173 222.288456 
L 185.404007 227.031313 
L 185.641779 226.089847 
L 186.0276 222.515149 
L 186.122948 218.792519 
L 186.375243 221.558993 
L 186.954658 236.999485 
L 187.611033 219.416977 
L 188.08715 232.034673 
L 188.922832 225.108883 
L 189.100228 224.699402 
L 189.636536 221.035725 
L 190.053039 220.563792 
L 190.292012 221.171562 
L 190.769306 222.748239 
L 191.006615 225.035846 
L 191.544297 209.721504 
L 191.840723 212.432911 
L 192.030373 221.272292 
L 192.318539 225.661421 
L 192.557565 217.66039 
L 192.80076 205.588896 
L 193.107804 197.72789 
L 193.278111 200.075357 
L 193.755963 224.206587 
L 193.995957 225.285121 
L 194.233603 219.303226 
L 194.476398 217.775131 
L 194.769678 224.009046 
L 195.066764 233.594944 
L 195.248054 234.488744 
L 195.782361 228.375224 
L 196.080392 226.854598 
L 196.320672 220.685679 
L 196.615612 217.970401 
L 196.73518 223.07357 
L 196.973666 225.696648 
L 197.211699 217.348915 
L 197.509211 213.814603 
L 197.693131 223.243952 
L 197.985853 226.764212 
L 198.463682 215.883282 
L 198.944063 223.469928 
L 199.182159 216.054571 
L 199.439223 212.550787 
L 199.775916 221.238853 
L 200.018683 218.655815 
L 200.196896 208.985224 
L 200.48986 212.490873 
L 200.788104 221.06084 
L 200.916218 219.090261 
L 201.198344 209.106285 
L 201.449436 206.797936 
L 201.684011 216.650191 
L 201.924358 219.905766 
L 202.184843 210.995053 
L 202.413701 211.003166 
L 202.94279 222.090307 
L 203.419389 214.475136 
L 203.776283 213.924769 
L 203.89561 215.526754 
L 204.138006 216.763292 
L 204.432381 216.819008 
L 204.729554 217.192372 
L 205.147211 216.165156 
L 205.508444 216.567971 
L 205.980659 220.515167 
L 206.220493 221.736453 
L 206.883986 202.987222 
L 207.352972 211.265948 
L 207.613285 212.190316 
L 207.949327 203.065552 
L 208.246992 205.530443 
L 208.843212 227.248091 
L 209.083854 227.739185 
L 209.739094 230.895967 
L 209.866798 227.9575 
L 210.096141 227.573241 
L 210.33376 229.660467 
L 210.761881 230.105439 
L 210.991758 227.546718 
L 211.111255 220.287333 
L 211.350531 218.095436 
L 211.82447 226.332186 
L 212.064312 226.813851 
L 212.301331 230.113752 
L 212.539535 230.538437 
L 213.035657 221.471097 
L 213.49425 220.722592 
L 213.554675 227.263215 
L 214.031055 244.41518 
L 214.329226 240.160194 
L 214.80549 218.401152 
L 214.985676 218.729155 
L 215.761267 232.55011 
L 215.99875 228.51249 
L 216.236987 221.482942 
L 216.715679 214.620852 
L 217.012265 219.379863 
L 217.250604 230.40782 
L 217.550042 237.453029 
L 217.740947 234.800733 
L 218.263894 213.32255 
L 218.561462 206.144633 
L 218.800572 206.612588 
L 219.038711 211.868908 
L 219.45583 229.341016 
L 220.426969 234.770358 
L 220.468617 236.768465 
L 220.712336 238.687959 
L 220.960243 235.391251 
L 221.490807 223.929445 
L 222.323704 213.384594 
L 222.676433 198.632745 
L 223.154158 195.639388 
L 223.216119 193.109685 
L 223.453081 194.469201 
L 223.691207 199.054302 
L 224.167585 215.442487 
L 224.409414 213.727811 
L 224.715194 197.851588 
L 224.892988 212.438236 
L 225.20915 200.723629 
L 225.422117 145.97996 
L 225.899914 222.771749 
L 226.137555 232.440313 
L 226.435293 206.106386 
L 226.911968 144.010336 
L 227.149726 119.610908 
L 227.686478 101.828299 
L 227.868289 99.440599 
L 228.165085 125.089317 
L 228.345389 161.216863 
L 228.583765 182.496056 
L 228.640177 200.738647 
L 228.87833 205.171427 
L 229.117834 216.990996 
L 229.355088 241.643098 
L 229.65287 242.994391 
L 229.891889 249.75104 
L 230.133713 262.324377 
L 230.372644 261.991849 
L 230.668559 258.722845 
L 231.027597 256.147233 
L 231.159566 251.655296 
L 231.334006 250.881639 
L 231.866877 221.735073 
L 232.106038 233.880693 
L 232.403301 225.337735 
L 232.791084 220.97051 
L 232.824656 213.407934 
L 233.297763 235.736906 
L 233.476995 252.590352 
L 233.595447 240.362924 
L 234.076922 262.000004 
L 234.369389 269.605883 
L 234.7876 261.345935 
L 235.025505 267.345229 
L 235.32461 247.984505 
L 235.620808 267.127025 
L 236.038415 243.305665 
L 236.276918 237.042307 
L 236.593603 233.071366 
L 236.887888 231.018303 
L 237.067695 241.348126 
L 237.245417 238.916181 
L 237.782225 241.593474 
L 238.080776 238.590587 
L 238.318762 239.135112 
L 238.55664 233.417626 
L 238.855961 230.843919 
L 239.03584 239.759471 
L 239.511698 233.544309 
L 239.750201 232.200311 
L 239.989393 232.865508 
L 240.226006 241.427702 
L 240.466249 243.648296 
L 240.710019 247.790925 
L 241.001717 255.452405 
L 241.184175 249.161156 
L 241.478119 264.725676 
L 241.775489 267.878726 
L 241.954735 263.422313 
L 242.312777 262.854834 
L 242.550822 259.487986 
L 242.730276 251.691211 
L 242.967569 246.413442 
L 243.205834 236.28043 
L 243.505 234.648133 
L 243.802683 229.816247 
L 244.100781 230.487599 
L 244.279752 229.537636 
L 244.576998 230.777786 
L 244.700358 244.166105 
L 244.9975 251.696237 
L 245.232613 250.528127 
L 245.414504 240.836753 
L 245.692774 234.811872 
L 245.921036 240.087361 
L 246.664807 233.63206 
L 246.902759 230.508418 
L 247.49888 225.993173 
L 247.621754 221.650092 
L 247.915731 216.270779 
L 248.155177 214.858408 
L 248.393201 214.911006 
L 248.630464 206.11977 
L 249.524635 232.328041 
L 249.704193 239.533053 
L 250.009627 212.248305 
L 250.181784 222.969974 
L 250.379919 217.223235 
L 250.691755 221.671988 
L 251.078157 222.166926 
L 251.337719 224.311971 
L 251.615497 223.019685 
L 251.854017 218.566373 
L 252.332093 202.379589 
L 252.627654 199.068205 
L 252.866834 200.703855 
L 253.404802 214.176428 
L 253.586696 213.20651 
L 253.821648 219.081444 
L 254.119412 232.775943 
L 254.298365 235.160945 
L 254.5982 229.879503 
L 254.89376 233.070484 
L 255.551291 222.462995 
L 255.790885 215.827028 
L 256.027108 201.989935 
L 256.444132 199.588949 
L 256.863269 186.561432 
L 257.040174 187.386858 
L 257.279193 192.853566 
L 257.75765 207.433031 
L 258.174511 211.982641 
L 258.295534 216.186533 
L 259.008988 195.327671 
L 259.366027 195.22898 
L 259.60607 182.908099 
L 260.020763 205.683629 
L 260.319151 204.69086 
L 260.648855 204.649276 
L 260.891085 206.355117 
L 261.036964 197.467872 
L 261.334171 214.92062 
L 261.455385 212.583342 
L 261.752087 201.120443 
L 262.110266 173.123651 
L 262.4839 185.461706 
L 262.763743 178.240459 
L 263.136684 175.227996 
L 263.2475 171.601952 
L 263.489722 174.813338 
L 263.717157 165.852892 
L 263.955136 161.769385 
L 264.31271 168.622884 
L 264.491774 162.659301 
L 264.908637 164.777164 
L 265.027838 172.786625 
L 265.266335 173.541788 
L 265.446787 179.709153 
L 265.804141 162.671457 
L 266.219802 164.710439 
L 266.460464 174.149598 
L 266.87571 177.911118 
L 267.11655 178.585131 
L 267.413111 148.943083 
L 267.650748 144.586862 
L 267.949397 135.227946 
L 268.255357 136.058926 
L 268.485766 145.6752 
L 268.72456 146.338513 
L 268.92079 161.95569 
L 269.260439 166.827851 
L 269.498949 165.577677 
L 269.693728 161.234288 
L 269.91771 162.166937 
L 270.178105 164.896522 
L 270.394582 175.989278 
L 270.691571 179.943156 
L 271.048316 174.012243 
L 271.286669 164.144096 
L 271.40607 148.431805 
L 271.883938 131.967346 
L 272.121335 131.658008 
L 272.479525 136.947003 
L 272.72259 128.473891 
L 272.896749 141.716258 
L 273.13597 136.072291 
L 273.434932 144.790908 
L 273.61545 153.611529 
L 273.850361 147.027368 
L 274.088899 167.776284 
L 274.625127 164.576742 
L 274.804254 159.033745 
L 275.130389 153.061464 
L 275.38031 145.862788 
L 275.819201 142.712352 
L 276.198585 129.295173 
L 276.474512 123.587799 
L 276.598788 130.068492 
L 276.952566 129.069741 
L 277.074328 119.45868 
L 277.369148 114.520588 
L 277.554726 123.03295 
L 277.973264 117.233672 
L 278.210015 131.10129 
L 278.323021 129.203434 
L 278.751406 124.729158 
L 278.940013 133.779594 
L 279.099979 130.331512 
L 279.281468 133.116289 
L 279.636718 155.471435 
L 279.785429 152.922458 
L 280.116685 158.567325 
L 280.35479 157.486499 
L 280.592111 143.509823 
L 280.773269 151.175855 
L 281.247897 126.67457 
L 281.545863 112.000084 
L 281.784747 117.668832 
L 282.141402 112.584872 
L 282.321038 112.142033 
L 282.755009 114.954128 
L 283.034865 100.523977 
L 283.217553 106.807819 
L 283.274594 98.36378 
L 283.512418 97.816172 
L 283.989372 81.781073 
L 284.229303 75.700378 
L 284.467275 79.287953 
L 284.825257 75.901838 
L 285.122855 94.114642 
L 285.249784 108.79408 
L 285.480872 107.806054 
L 285.724272 105.363032 
L 286.017338 104.937625 
L 286.195563 116.616326 
L 286.437195 109.689721 
L 286.851374 114.30722 
L 287.453132 91.794791 
L 287.687625 96.241419 
L 287.930351 84.112009 
L 288.168185 89.075658 
L 288.423358 74.290792 
L 288.645043 91.532342 
L 289.003527 83.549177 
L 289.061702 84.34873 
L 289.185446 82.765821 
L 289.420312 91.233638 
L 289.65846 76.446287 
L 290.401707 102.295785 
L 290.616006 93.087586 
L 290.972085 95.881254 
L 291.50857 81.161096 
L 291.626817 67.544777 
L 292.044301 71.846155 
L 292.109693 59.26466 
L 292.386426 63.300897 
L 292.656465 74.094254 
L 292.840774 64.416752 
L 293.295588 79.760695 
L 293.355913 67.393227 
L 293.593513 80.346555 
L 294.13022 93.193399 
L 294.368492 92.878904 
L 294.665921 92.208668 
L 294.849997 97.417519 
L 295.085166 100.455169 
L 295.382085 100.719674 
L 295.627512 82.201706 
L 295.859935 81.961986 
L 296.039256 61.723434 
L 296.334598 61.825831 
L 296.573638 49.936449 
L 296.878168 44.95669 
L 297.10904 58.667179 
L 297.355358 59.753249 
L 297.58731 61.553666 
L 297.768568 64.87745 
L 298.122788 67.64171 
L 298.313252 72.589718 
L 298.599912 65.311776 
L 298.78138 78.191724 
L 299.090825 74.657907 
L 299.256303 83.756698 
L 299.496403 75.311375 
L 299.793646 71.694814 
L 300.031174 54.884001 
L 300.269374 54.434993 
L 300.767487 54.582436 
L 300.988152 68.313742 
L 301.343712 81.540442 
L 301.522643 72.936484 
L 301.761104 69.207554 
L 302.015113 63.052027 
L 302.240702 69.655936 
L 302.654986 61.896642 
L 302.774265 78.039803 
L 303.072192 69.441321 
L 303.251497 81.216679 
L 303.787336 62.126396 
L 303.967698 44.953828 
L 304.204824 54.912526 
L 304.502261 53.024095 
L 304.705968 50.81355 
L 304.987056 43.690986 
L 305.280049 41.708388 
L 305.577348 36.328627 
L 305.75661 29.279662 
L 306.113807 34.553717 
L 306.413169 46.598007 
L 306.471668 54.083569 
L 306.70954 53.150392 
L 307.007395 61.137096 
L 307.189997 58.60758 
L 307.54622 58.742694 
L 307.722964 74.657741 
L 307.962447 64.623445 
L 308.156962 68.807884 
L 308.442681 67.049641 
L 308.817665 66.079421 
L 309.060983 66.182356 
L 309.228908 63.70997 
L 309.460063 73.879775 
L 309.698835 59.951692 
L 310.000186 62.697544 
L 310.247672 57.90543 
L 310.474486 50.014999 
L 310.616416 40.102157 
L 311.091248 27.804829 
L 311.162751 18.775461 
L 311.450148 6.050769 
L 311.688208 12.820527 
L 311.868941 12.490595 
L 312.403648 29.672982 
L 312.772521 35.247694 
L 312.942464 54.532335 
L 313.178624 64.688939 
L 313.536256 62.360614 
L 313.662684 75.943787 
L 313.893915 84.910249 
L 314.251162 88.784017 
L 314.373575 137.005919 
L 314.96643 111.409412 
L 315.396716 58.440062 
L 315.862752 56.137176 
L 316.099825 55.887765 
L 316.398654 52.36348 
L 316.755017 50.551666 
L 316.843528 54.7052 
L 317.177921 63.977426 
L 317.495127 68.629038 
L 317.612971 66.546123 
L 317.856242 87.014627 
L 318.156502 91.907145 
L 318.270964 102.978935 
L 319.341039 67.079101 
L 319.520127 68.376216 
L 319.879864 63.203796 
L 320.120023 64.642471 
L 320.35574 63.397099 
L 320.658828 52.417423 
L 320.775803 32.367384 
L 321.071415 28.846259 
L 321.309198 21.910313 
L 321.785669 33.24879 
L 322.745235 90.425626 
L 323.039003 93.92747 
L 323.518143 116.617208 
L 323.752945 118.846317 
L 324.001417 111.347021 
L 324.471428 79.65108 
L 324.709478 62.430741 
L 325.124841 43.505448 
L 325.244685 27.933397 
L 325.665127 24.383459 
L 325.730608 20.921604 
L 326.259024 44.121865 
L 326.615272 57.381854 
L 326.972988 81.370143 
L 327.212419 80.43411 
L 327.45552 84.587107 
L 327.691696 91.540541 
L 328.0133 91.27424 
L 328.403242 91.856336 
L 328.462891 82.791246 
L 328.701572 74.881661 
L 329.181163 54.239339 
L 329.417443 53.98753 
L 329.656413 56.030803 
L 329.955184 74.691225 
L 330.332753 85.06914 
L 330.43627 99.213374 
L 330.669274 110.318985 
L 330.906412 105.363684 
L 331.323879 105.598689 
L 331.443201 99.727024 
L 331.741885 91.341491 
L 332.959195 28.944818 
L 333.409601 24.454309 
L 333.648856 27.414849 
L 334.428658 66.626992 
L 334.663675 82.811127 
L 335.141441 102.252928 
L 335.386983 113.307776 
L 335.74203 112.012904 
L 335.923571 115.512776 
L 336.183873 116.110087 
L 336.630589 108.234705 
L 336.870602 106.194688 
L 337.345789 96.380948 
L 337.824391 103.270172 
L 338.061864 112.505404 
L 338.598366 119.443486 
L 338.897392 125.368688 
L 339.077754 126.047248 
L 339.322295 120.077662 
L 339.705708 125.567758 
L 339.819028 119.160055 
L 340.10517 116.158131 
L 340.152231 112.82873 
L 340.451967 104.577865 
L 340.570985 104.598713 
L 340.986748 96.401086 
L 341.284217 79.998388 
L 341.582485 75.292812 
L 341.880666 81.858028 
L 342.059378 82.389488 
L 342.297718 83.521293 
L 342.536375 88.131127 
L 342.775941 88.482234 
L 343.25277 94.132317 
L 343.551154 94.780177 
L 343.753484 99.631847 
L 344.026653 99.223554 
L 344.385131 98.481752 
L 344.525269 88.136633 
L 344.980562 70.552117 
L 345.397638 65.119018 
L 345.516412 59.682956 
L 345.8151 57.252528 
L 345.995989 54.817375 
L 346.234377 50.057645 
L 346.542218 48.855239 
L 346.770469 52.243916 
L 346.954342 53.275076 
L 347.245856 64.255759 
L 347.54748 70.963502 
L 347.784202 68.316985 
L 347.961634 74.577786 
L 348.20782 72.667551 
L 348.973488 79.264166 
L 349.63185 62.650613 
L 349.691959 56.068509 
L 349.991094 53.557471 
L 350.186568 58.03456 
L 350.411227 67.080015 
L 350.764346 73.84164 
L 351.003037 75.720072 
L 351.300565 72.493487 
L 351.426297 67.598376 
L 351.717971 66.47993 
L 352.016141 80.418031 
L 352.194473 82.722289 
L 352.433452 82.268349 
L 352.67119 71.276578 
L 353.028488 73.480285 
L 353.20912 56.710019 
L 353.506348 50.304856 
L 353.804262 48.94559 
L 354.162568 68.195525 
L 354.938233 62.285412 
L 355.353005 62.215966 
L 355.651098 76.760552 
L 356.12808 87.612874 
L 356.426658 84.294673 
L 357.154313 59.442585 
L 357.391327 58.350333 
L 357.856502 63.272731 
L 358.275857 69.98039 
L 358.393284 69.64753 
L 358.575019 72.759805 
L 358.928962 70.452396 
L 359.228259 72.594542 
L 359.361058 82.372533 
L 359.887693 84.940984 
L 360.125794 79.305986 
L 360.364369 70.873357 
L 360.609128 68.430535 
L 360.900799 67.164657 
L 361.079574 63.997425 
L 361.38431 65.641247 
L 361.625863 71.95957 
L 361.915452 68.109326 
L 362.037131 80.256851 
L 362.290044 83.167026 
L 362.576441 89.572429 
L 363.58502 68.677381 
L 364.111127 75.738232 
L 364.364467 60.488052 
L 364.78294 55.649419 
L 365.077308 65.362017 
L 365.55409 69.03183 
L 365.791482 66.928606 
L 366.268565 69.08605 
L 366.804573 73.762215 
L 367.102519 82.225435 
L 367.281504 80.921879 
L 367.591423 81.360964 
L 367.822636 80.118676 
L 368.298582 88.394881 
L 369.009091 67.836336 
L 369.32591 64.439026 
L 369.488951 65.914816 
L 369.790623 73.819332 
L 370.274743 67.198097 
L 370.505778 68.132088 
L 370.690293 71.433426 
L 370.982696 79.255245 
L 371.401245 76.432503 
L 371.521661 83.879808 
L 371.877151 81.585914 
L 371.939027 78.361002 
L 372.176156 75.563473 
L 372.473253 78.925635 
L 372.716036 73.717757 
L 372.950073 71.724975 
L 373.188762 71.043152 
L 373.486515 75.296687 
L 373.733874 82.725773 
L 374.022511 86.529144 
L 374.384196 78.388129 
L 374.557981 71.776582 
L 375.095387 82.32301 
L 375.15413 76.940431 
L 375.517406 86.638821 
L 375.810497 80.254665 
L 375.873378 70.468758 
L 376.241447 66.167484 
L 376.406846 67.540114 
L 376.647471 76.324144 
L 377.002364 78.876012 
L 377.18212 77.176727 
L 377.486253 71.433484 
L 377.662001 55.695412 
L 377.896845 57.075241 
L 378.315076 65.039521 
L 378.61506 84.86365 
L 379.131828 74.963496 
L 379.389172 75.38535 
L 379.628445 76.237032 
L 379.866723 75.593435 
L 380.164284 79.051199 
L 380.343724 75.08376 
L 380.702529 76.272852 
L 380.939697 70.235832 
L 381.11853 68.938366 
L 381.834708 66.783212 
L 382.72774 83.585361 
L 382.90592 84.233964 
L 383.562114 60.645275 
L 383.801873 68.250434 
L 384.099205 70.763016 
L 384.277579 75.160176 
L 384.575715 72.572939 
L 384.814129 66.172778 
L 385.052209 67.040077 
L 385.29111 64.303539 
L 385.769416 83.271733 
L 386.185451 88.643017 
L 386.602999 73.375715 
L 387.143266 66.351272 
L 387.315878 78.128916 
L 387.794021 80.291153 
L 388.03289 73.145849 
L 388.449062 65.873106 
L 388.569295 71.260355 
L 388.865096 68.923079 
L 389.044672 79.062377 
L 389.521509 83.07596 
L 389.818749 73.702945 
L 389.997678 62.812749 
L 390.239634 58.973988 
L 390.834007 68.528584 
L 390.892846 71.381635 
L 391.012447 71.718567 
L 391.488372 77.659022 
L 392.027171 64.992429 
L 392.444381 73.077579 
L 392.739332 81.015448 
L 393.11777 81.191355 
L 393.222352 81.378267 
L 393.4553 78.834363 
L 393.695023 80.826954 
L 394.175224 72.829358 
L 394.588785 74.844891 
L 394.946729 62.449467 
L 395.668128 53.210747 
L 395.959109 50.089746 
L 396.317477 53.359723 
L 396.43649 59.424504 
L 396.734986 60.578135 
L 396.97838 61.993788 
L 397.629625 79.580801 
L 398.403798 91.322418 
L 398.641761 92.273633 
L 399.178417 83.590434 
L 399.416817 83.584921 
L 399.654907 83.867053 
L 399.893719 72.345971 
L 400.790279 47.397546 
L 401.028061 33.858093 
L 401.14708 36.389743 
L 401.385661 33.265153 
L 401.625686 32.700341 
L 401.871183 35.681363 
L 402.401733 45.947603 
L 402.936453 68.118181 
L 403.116043 77.775129 
L 403.414626 81.584128 
L 403.592281 92.031858 
L 404.069463 87.110906 
L 404.323354 89.06029 
L 404.367269 88.545621 
L 404.558559 85.431554 
L 404.794526 88.997089 
L 405.083489 87.699447 
L 405.80225 69.334036 
L 406.108824 58.814944 
L 406.336607 61.88282 
L 406.546042 61.859484 
L 406.813617 61.666648 
L 407.055355 57.432842 
L 407.293574 62.237255 
L 407.587498 63.64179 
L 407.82825 70.624426 
L 408.305051 78.111397 
L 408.78093 99.561742 
L 409.021738 99.028021 
L 409.378759 96.910055 
L 409.559301 87.434718 
L 409.797445 90.737436 
L 410.078936 87.32805 
L 410.395625 80.674812 
L 410.631573 80.116419 
L 410.75066 72.697241 
L 410.98995 69.758705 
L 411.287284 73.071833 
L 411.586858 71.61102 
L 413.018146 47.834707 
L 413.257153 48.189183 
L 413.673626 43.157588 
L 413.746398 48.251784 
L 414.032517 54.488533 
L 415.275767 105.087807 
L 415.633619 111.414447 
L 415.694521 119.091956 
L 416.720601 95.195996 
L 417.124167 91.183412 
L 417.184136 89.399703 
L 417.482519 87.343992 
L 417.724864 87.776614 
L 417.966086 85.974535 
L 418.163208 89.175872 
L 418.437644 85.653359 
L 418.870118 87.201762 
L 418.917888 85.520792 
L 419.69188 73.300858 
L 419.931369 68.408567 
L 420.287606 68.945867 
L 420.648521 70.232853 
L 420.885015 75.765576 
L 421.123501 75.597189 
L 421.442375 78.325783 
L 421.662454 82.247776 
L 421.898952 83.161819 
L 422.135994 88.263248 
L 422.375066 90.260379 
L 422.673163 90.732319 
L 422.854187 87.61355 
L 423.386749 80.707682 
L 423.395261 105.978469 
L 423.629898 66.224368 
L 423.986151 66.719709 
L 424.165927 64.509369 
L 424.413064 63.755853 
L 424.645276 61.342555 
L 425.001915 60.096373 
L 425.306258 65.21884 
L 425.597988 71.384126 
L 426.076145 90.579553 
L 426.315993 93.645126 
L 426.735611 91.133732 
L 426.790223 101.647303 
L 427.149375 99.073153 
L 427.332964 100.742195 
L 427.567477 99.463904 
L 428.226037 87.5401 
L 428.606337 70.004624 
L 428.820104 69.540902 
L 429.067377 64.845894 
L 429.119026 56.685019 
L 429.597346 46.462022 
L 429.780082 37.044422 
L 430.016837 32.410038 
L 430.556917 34.165733 
L 430.789019 39.328892 
L 431.265787 70.125937 
L 431.505259 79.339777 
L 431.935563 82.036194 
L 432.28292 96.386055 
L 432.518589 72.597499 
L 433.004434 85.954586 
L 433.256595 86.942035 
L 433.488981 83.222432 
L 433.722834 75.981016 
L 433.982174 79.092748 
L 434.317915 81.499375 
L 434.754968 92.821702 
L 435.039367 90.664101 
L 435.282613 90.60834 
L 435.937111 72.903313 
L 436.359802 80.627691 
L 436.479019 79.604677 
L 436.710858 75.65837 
L 436.953953 65.011731 
L 437.32452 54.171945 
L 437.788236 55.449272 
L 438.261204 68.014601 
L 438.56166 61.763454 
L 438.801092 64.833048 
L 439.108783 56.576634 
L 439.40335 67.51322 
L 439.668632 77.306253 
L 439.939514 77.416145 
L 440.254787 74.742746 
L 440.420428 74.349001 
L 440.770392 69.811275 
L 440.974661 78.283587 
L 441.188583 79.131085 
L 441.487795 80.955308 
L 442.146541 63.60289 
L 442.521386 60.459582 
L 442.621527 56.462282 
L 442.978492 55.850418 
L 443.15752 50.417581 
L 443.422593 48.967005 
L 443.637318 49.45364 
L 444.043026 43.695166 
L 444.28058 49.402409 
L 444.467933 49.076059 
L 444.698336 57.701977 
L 444.996302 53.097162 
L 445.176648 55.786338 
L 445.354903 62.69221 
L 445.831679 69.426539 
L 446.190544 58.111686 
L 446.372078 55.443956 
L 446.727181 54.900534 
L 446.852787 48.369851 
L 447.111121 50.953855 
L 447.383944 51.245041 
L 447.622428 46.951082 
L 447.864467 48.5009 
L 448.817072 63.796042 
L 449.065829 56.039044 
L 449.299304 57.014789 
L 449.598275 57.132869 
L 449.786204 59.014696 
L 450.075728 59.718883 
L 450.313662 61.393033 
L 450.553126 69.21944 
L 450.969281 65.380622 
L 451.057058 69.154862 
L 451.327987 74.208814 
L 452.103027 93.177743 
L 452.341457 99.618634 
L 453.000131 86.527067 
L 453.238295 78.844419 
L 453.487653 74.926849 
L 453.77411 61.164968 
L 454.025783 54.692769 
L 454.259036 57.616704 
L 454.63062 55.711368 
L 454.79374 63.233584 
L 454.850539 63.10123 
L 454.970256 62.697225 
L 455.295304 66.882317 
L 455.506139 80.530403 
L 455.926543 87.203168 
L 456.008065 94.37447 
L 456.232806 94.541275 
L 456.461664 98.024491 
L 456.700791 91.170233 
L 457.122272 85.612471 
L 457.311685 79.902027 
L 457.547957 79.352343 
L 457.727843 81.455645 
L 458.144971 74.386002 
L 458.205631 69.17329 
L 458.623582 62.656171 
L 458.861894 56.341108 
L 458.923423 57.282218 
L 459.337184 58.900374 
L 459.456672 47.484088 
L 459.696709 47.700066 
L 459.933675 38.575705 
L 460.350818 31.983129 
L 460.470212 24.558808 
L 460.709249 21.705228 
L 460.953467 22.980646 
L 461.007736 18.914265 
L 461.425331 34.200539 
L 461.666484 31.449315 
L 461.962286 31.684882 
L 462.142135 38.6568 
L 462.62207 45.187271 
L 462.920613 59.264272 
L 463.158605 60.315891 
L 463.400949 70.003277 
L 463.696797 71.252241 
L 464.413581 84.285477 
L 464.600074 89.21675 
L 465.00953 92.338116 
L 465.156689 92.496335 
L 465.844917 96.19466 
L 466.08428 96.675042 
L 466.331641 103.106232 
L 466.630615 107.655646 
L 467.17029 98.2915 
L 467.404855 98.307359 
L 467.824123 80.14974 
L 468.122346 78.974858 
L 468.360171 70.994262 
L 468.757975 65.049508 
L 468.905365 57.279548 
L 469.081983 59.295562 
L 469.615194 40.248378 
L 469.922103 44.824505 
L 470.092125 44.95289 
L 470.34042 56.506536 
L 470.703399 61.483288 
L 471.289272 81.977466 
L 471.844075 94.016039 
L 472.550755 115.917263 
L 472.842952 110.280556 
L 473.026161 111.464308 
L 473.322658 107.744618 
L 473.617723 106.008876 
L 473.797124 100.68809 
L 474.215014 102.439214 
L 474.561173 94.389869 
L 474.795907 91.004275 
L 475.331201 76.551909 
L 475.515805 77.449592 
L 476.286591 58.302919 
L 476.47648 44.357321 
L 476.762523 33.514502 
L 477.477999 22.231992 
L 477.71687 13.577979 
L 477.956399 17.508115 
L 478.373395 15.970616 
L 478.52253 7.245999 
L 478.910883 15.414092 
L 479.029765 15.296986 
L 479.268341 23.318703 
L 479.506799 25.346454 
L 480.196158 38.169238 
L 480.466175 47.809344 
L 480.761165 48.250451 
L 480.959811 51.948283 
L 481.179588 53.808785 
L 481.420274 47.696569 
L 481.800085 50.836922 
L 481.958192 48.888517 
L 482.193795 57.567611 
L 482.978105 42.032111 
L 483.27314 42.539039 
L 483.701047 29.999242 
L 483.957095 30.559135 
L 484.247977 25.888103 
L 484.369561 29.052406 
L 484.960115 16.321078 
L 485.258211 17.340495 
L 485.377725 13.349904 
L 485.675613 15.408101 
L 485.922042 22.096375 
L 486.16984 15.955179 
L 486.391822 13.373659 
L 486.63166 13.704203 
L 486.929758 18.885649 
L 487.168293 25.608975 
L 487.644265 31.913682 
L 487.882636 37.944811 
L 488.122163 39.546223 
L 488.838186 60.370041 
L 489.375454 77.505614 
L 489.616275 75.981381 
L 490.092539 85.285634 
L 490.449114 84.668902 
L 490.867709 90.492161 
L 491.166028 92.51162 
L 491.403833 96.296912 
L 491.642328 95.946761 
L 492.060689 98.938383 
L 492.362556 99.387368 
L 492.655511 92.97707 
L 492.90229 95.944766 
L 493.074224 96.21929 
L 493.315143 88.63794 
L 493.551282 91.206626 
L 494.761952 73.472492 
L 494.821927 74.31869 
L 495.119747 64.199391 
L 495.302147 64.184673 
L 495.541575 61.256304 
L 496.073079 49.740782 
L 497.027549 24.482468 
L 497.330332 25.66456 
L 497.568274 21.286016 
L 497.8051 29.253335 
L 498.092018 26.233964 
L 498.282985 26.720404 
L 498.488368 32.170898 
L 499.108228 39.704784 
L 500.021522 64.143348 
L 500.260501 65.850382 
L 500.498351 62.323145 
L 500.737309 62.025297 
L 501.274425 58.943787 
L 501.45412 43.879209 
L 501.770141 40.433697 
L 501.811219 35.893951 
L 501.990021 28.782571 
L 502.291268 34.17988 
L 502.586892 26.256641 
L 502.765332 27.727272 
L 503.245986 37.153215 
L 503.303789 47.861323 
L 503.482056 48.785428 
L 503.919541 65.817867 
L 504.212219 72.944033 
L 504.676431 93.619317 
L 505.033493 96.43292 
L 505.212344 93.965883 
L 505.390825 96.93412 
L 505.811033 94.71565 
L 505.868507 101.48705 
L 506.230424 97.085289 
L 506.472644 97.163061 
L 506.943187 84.746502 
L 508.154245 37.338829 
L 508.39231 26.19086 
L 508.636272 26.17055 
L 508.868969 23.275203 
L 509.166831 24.444851 
L 509.351296 18.633671 
L 509.64613 24.734817 
L 509.948029 11.655919 
L 510.180797 26.919037 
L 510.436306 30.580278 
L 510.65945 21.944192 
L 511.374107 27.660263 
L 511.792183 25.106696 
L 512.093214 29.098699 
L 512.427593 30.164345 
L 512.588079 34.638266 
L 512.892695 39.137418 
L 513.106867 48.19001 
L 513.363513 51.821364 
L 513.823865 67.706757 
L 514.063606 58.911516 
L 514.375601 75.705899 
L 514.780018 66.796436 
L 514.841288 76.285074 
L 515.076501 73.099483 
L 515.732476 76.591462 
L 515.864106 70.194834 
L 516.051455 77.532184 
L 516.408807 71.387474 
L 516.629422 80.94503 
L 516.85111 85.573828 
L 517.079376 93.296668 
L 517.318518 97.201517 
L 517.56118 103.044528 
L 517.92345 95.383626 
L 518.083149 103.961247 
L 518.320466 107.009631 
L 518.677448 108.735144 
L 518.86362 114.407191 
L 519.039139 105.003803 
L 519.641427 94.548097 
L 520.112645 77.960888 
L 520.291039 79.505834 
L 520.886204 74.909727 
L 521.020978 76.877402 
L 521.302709 87.364372 
L 521.600537 111.134876 
L 521.782837 106.956109 
L 522.020402 118.804688 
L 522.27614 117.679229 
L 522.556008 120.602492 
L 523.27818 93.264505 
L 523.811687 53.860364 
L 523.98887 43.333801 
L 524.42756 41.052197 
L 524.658764 45.006034 
L 525.004648 48.00123 
L 525.541717 70.310098 
L 526.017995 80.858539 
L 526.077738 93.431218 
L 526.564365 115.778234 
L 526.853664 115.808996 
L 526.975126 111.347143 
L 527.476952 102.308332 
L 527.757926 86.442266 
L 528.051451 80.102452 
L 528.169594 71.672621 
L 528.47504 60.114876 
L 528.945943 49.181587 
L 529.072023 40.182742 
L 529.666733 30.242781 
L 530.090888 41.604534 
L 530.445877 63.120564 
L 530.694354 78.991407 
L 531.408612 111.366464 
L 531.825391 114.915148 
L 532.06659 114.133405 
L 532.423065 112.21557 
L 532.782059 107.889018 
L 533.043618 109.079344 
L 533.4366 117.453812 
L 533.685406 120.861337 
L 533.869229 120.813735 
L 534.100633 116.989178 
L 534.631087 100.410806 
L 534.885277 88.312918 
L 535.107391 83.301896 
L 535.405966 79.837151 
L 535.881333 66.274434 
L 536.421115 56.424333 
L 536.665516 54.92614 
L 536.962931 55.508753 
L 537.140241 60.217166 
L 538.099325 97.217098 
L 538.732767 112.829453 
L 538.870601 121.088577 
L 539.084234 125.222659 
L 539.348546 123.85976 
L 539.884773 108.24137 
L 540.066122 97.017401 
L 540.600538 83.778095 
L 540.841638 82.231164 
L 541.316539 84.754848 
L 542.085781 96.50488 
L 542.338883 96.77305 
L 542.644715 96.679737 
L 542.99364 93.507259 
L 543.068452 89.784761 
L 543.537718 82.58931 
L 543.774243 80.096777 
L 544.073491 79.404419 
L 544.308192 80.899912 
L 544.546491 84.075087 
L 545.02802 95.046863 
L 546.158403 126.041683 
L 546.338136 130.269535 
L 546.774188 132.692192 
L 546.877282 134.144279 
L 547.173951 135.238343 
L 547.351958 134.422307 
L 549.439825 70.446477 
L 549.739427 64.39577 
L 550.214554 58.350519 
L 550.712275 57.73543 
L 550.930158 60.699595 
L 551.348355 64.158782 
L 551.657345 73.27696 
L 552.062566 76.52663 
L 552.262309 79.752719 
L 552.425839 80.446562 
L 552.897964 84.141549 
L 553.19626 88.720858 
L 553.556402 96.27012 
L 553.677388 101.672949 
L 554.692769 121.016678 
L 554.925712 126.761055 
L 555.487924 133.8903 
L 555.72664 133.508287 
L 555.906326 130.698597 
L 556.442529 128.157083 
L 556.815378 128.241141 
L 557.098473 129.801751 
L 557.397658 129.423164 
L 557.637107 131.567482 
L 558.127854 133.515226 
L 558.620016 130.904019 
L 558.904391 110.751707 
L 559.856383 60.054063 
L 560.371905 46.626456 
L 560.67014 45.493871 
L 561.813167 82.490996 
L 562.347659 105.023661 
L 562.836522 122.719465 
L 563.085175 120.231756 
L 563.314645 112.956066 
L 563.854366 101.069878 
L 564.329009 92.528012 
L 564.70283 87.729244 
L 564.82427 83.633261 
L 565.22486 83.087475 
L 565.347951 87.745485 
L 565.763483 112.24965 
L 566.260176 121.15701 
L 566.537221 118.498184 
L 567.074547 105.53743 
L 567.968625 78.833689 
L 568.031999 67.595967 
L 568.270144 60.503568 
L 568.509449 57.495012 
L 568.763251 57.939335 
L 569.05062 62.761797 
L 569.524798 82.628362 
L 570.065986 103.12775 
L 570.656899 112.428804 
L 570.717551 109.936296 
L 570.991035 109.630022 
L 571.341124 111.08851 
L 571.457719 114.749067 
L 571.757125 116.407537 
L 572.001309 114.259969 
L 572.473061 100.913163 
L 572.712865 93.395865 
L 573.015535 92.213921 
L 573.191196 97.978182 
L 573.67935 103.428999 
L 573.965249 99.026021 
L 574.208014 92.155527 
L 574.503984 93.351618 
L 574.866106 100.461728 
L 575.219697 112.62907 
L 575.461847 109.39645 
L 575.816413 102.527339 
L 575.950792 96.079564 
L 576.131677 93.417508 
L 576.670192 100.713328 
L 576.967621 96.769335 
L 577.143927 88.003308 
L 577.441628 82.305302 
L 577.800856 88.146932 
L 577.980569 100.140856 
L 578.337646 106.906827 
L 578.575086 105.962159 
L 579.11197 81.589378 
L 579.470325 84.287465 
L 579.716277 91.389366 
L 579.889904 92.665958 
L 580.212545 87.141155 
L 580.395851 80.03407 
L 580.632633 82.043741 
L 580.868049 90.247776 
L 581.162375 95.638335 
L 581.399823 97.200742 
L 581.593446 97.40039 
L 581.832867 95.304745 
L 582.115735 93.816586 
L 582.354556 95.360514 
L 582.664798 98.642716 
L 582.831148 95.460411 
L 583.328169 90.22793 
L 583.846579 94.643577 
L 584.147962 94.803732 
L 584.442953 90.444576 
L 584.680719 79.14766 
L 585.098868 75.435721 
L 585.280613 75.568738 
L 585.516477 83.430531 
L 585.873549 86.685696 
L 586.05233 83.226431 
L 586.232332 76.872464 
L 586.560023 76.879141 
L 586.796358 84.217342 
L 587.069092 106.635056 
L 587.311536 112.212185 
L 587.60124 110.668589 
L 587.780025 103.520166 
L 588.319844 89.900666 
L 588.617858 88.480503 
L 588.796534 91.947323 
L 589.036693 92.163081 
L 589.280278 91.944361 
L 589.810627 84.934619 
L 590.049683 86.827422 
L 590.289053 96.508373 
L 590.773018 102.620827 
L 591.362145 96.644015 
L 591.500546 97.149871 
L 592.018974 94.375741 
L 592.259026 92.926937 
L 592.497148 94.145386 
L 592.805679 94.729885 
L 593.102048 91.825739 
L 593.340646 93.971087 
L 593.518598 103.468759 
L 593.760289 105.392285 
L 594.115898 100.681746 
L 594.413461 103.194075 
L 594.653812 102.10959 
L 594.949998 97.277731 
L 595.199005 95.090332 
L 595.671191 101.515931 
L 596.024083 101.951531 
L 596.681123 93.522077 
L 597.156205 100.40886 
L 597.423608 100.675966 
L 597.66375 102.018827 
L 597.66375 102.018827 
" clip-path="url(#pbf1a8bfadb)" style="fill: none; stroke: #ff0000; stroke-opacity: 0.5; stroke-width: 1.5; stroke-linecap: square"/>
   </g>
   <g id="patch_3">
    <path d="M 39.66375 277.92 
L 39.66375 0.72 
" style="fill: none; stroke: #000000; stroke-width: 0.8; stroke-linejoin: miter; stroke-linecap: square"/>
   </g>
   <g id="patch_4">
    <path d="M 597.66375 277.92 
L 597.66375 0.72 
" style="fill: none; stroke: #000000; stroke-width: 0.8; stroke-linejoin: miter; stroke-linecap: square"/>
   </g>
   <g id="patch_5">
    <path d="M 39.66375 277.92 
L 597.66375 277.92 
" style="fill: none; stroke: #000000; stroke-width: 0.8; stroke-linejoin: miter; stroke-linecap: square"/>
   </g>
   <g id="patch_6">
    <path d="M 39.66375 0.72 
L 597.66375 0.72 
" style="fill: none; stroke: #000000; stroke-width: 0.8; stroke-linejoin: miter; stroke-linecap: square"/>
   </g>
   <g id="legend_1">
    <g id="patch_7">
     <path d="M 46.66375 38.07625 
L 120.4325 38.07625 
Q 122.4325 38.07625 122.4325 36.07625 
L 122.4325 7.72 
Q 122.4325 5.72 120.4325 5.72 
L 46.66375 5.72 
Q 44.66375 5.72 44.66375 7.72 
L 44.66375 36.07625 
Q 44.66375 38.07625 46.66375 38.07625 
z
" style="fill: #ffffff; opacity: 0.8; stroke: #cccccc; stroke-linejoin: miter"/>
    </g>
    <g id="line2d_37">
     <path d="M 48.66375 13.818438 
L 58.66375 13.818438 
L 68.66375 13.818438 
" style="fill: none; stroke: #0000ff; stroke-opacity: 0.5; stroke-width: 1.5; stroke-linecap: square"/>
    </g>
    <g id="text_20">
     <!-- RNEA -->
     <g transform="translate(76.66375 17.318438) scale(0.1 -0.1)">
      <defs>
       <path id="DejaVuSans-52" d="M 2841 2188 
Q 3044 2119 3236 1894 
Q 3428 1669 3622 1275 
L 4263 0 
L 3584 0 
L 2988 1197 
Q 2756 1666 2539 1819 
Q 2322 1972 1947 1972 
L 1259 1972 
L 1259 0 
L 628 0 
L 628 4666 
L 2053 4666 
Q 2853 4666 3247 4331 
Q 3641 3997 3641 3322 
Q 3641 2881 3436 2590 
Q 3231 2300 2841 2188 
z
M 1259 4147 
L 1259 2491 
L 2053 2491 
Q 2509 2491 2742 2702 
Q 2975 2913 2975 3322 
Q 2975 3731 2742 3939 
Q 2509 4147 2053 4147 
L 1259 4147 
z
" transform="scale(0.015625)"/>
       <path id="DejaVuSans-45" d="M 628 4666 
L 3578 4666 
L 3578 4134 
L 1259 4134 
L 1259 2753 
L 3481 2753 
L 3481 2222 
L 1259 2222 
L 1259 531 
L 3634 531 
L 3634 0 
L 628 0 
L 628 4666 
z
" transform="scale(0.015625)"/>
       <path id="DejaVuSans-41" d="M 2188 4044 
L 1331 1722 
L 3047 1722 
L 2188 4044 
z
M 1831 4666 
L 2547 4666 
L 4325 0 
L 3669 0 
L 3244 1197 
L 1141 1197 
L 716 0 
L 50 0 
L 1831 4666 
z
" transform="scale(0.015625)"/>
      </defs>
      <use xlink:href="#DejaVuSans-52"/>
      <use xlink:href="#DejaVuSans-4e" x="69.482422"/>
      <use xlink:href="#DejaVuSans-45" x="144.287109"/>
      <use xlink:href="#DejaVuSans-41" x="207.470703"/>
     </g>
    </g>
    <g id="line2d_38">
     <path d="M 48.66375 28.496563 
L 58.66375 28.496563 
L 68.66375 28.496563 
" style="fill: none; stroke: #ff0000; stroke-opacity: 0.5; stroke-width: 1.5; stroke-linecap: square"/>
    </g>
    <g id="text_21">
     <!-- BURNEA -->
     <g transform="translate(76.66375 31.996563) scale(0.1 -0.1)">
      <defs>
       <path id="DejaVuSans-42" d="M 1259 2228 
L 1259 519 
L 2272 519 
Q 2781 519 3026 730 
Q 3272 941 3272 1375 
Q 3272 1813 3026 2020 
Q 2781 2228 2272 2228 
L 1259 2228 
z
M 1259 4147 
L 1259 2741 
L 2194 2741 
Q 2656 2741 2882 2914 
Q 3109 3088 3109 3444 
Q 3109 3797 2882 3972 
Q 2656 4147 2194 4147 
L 1259 4147 
z
M 628 4666 
L 2241 4666 
Q 2963 4666 3353 4366 
Q 3744 4066 3744 3513 
Q 3744 3084 3544 2831 
Q 3344 2578 2956 2516 
Q 3422 2416 3680 2098 
Q 3938 1781 3938 1306 
Q 3938 681 3513 340 
Q 3088 0 2303 0 
L 628 0 
L 628 4666 
z
" transform="scale(0.015625)"/>
       <path id="DejaVuSans-55" d="M 556 4666 
L 1191 4666 
L 1191 1831 
Q 1191 1081 1462 751 
Q 1734 422 2344 422 
Q 2950 422 3222 751 
Q 3494 1081 3494 1831 
L 3494 4666 
L 4128 4666 
L 4128 1753 
Q 4128 841 3676 375 
Q 3225 -91 2344 -91 
Q 1459 -91 1007 375 
Q 556 841 556 1753 
L 556 4666 
z
" transform="scale(0.015625)"/>
      </defs>
      <use xlink:href="#DejaVuSans-42"/>
      <use xlink:href="#DejaVuSans-55" x="68.603516"/>
      <use xlink:href="#DejaVuSans-52" x="141.796875"/>
      <use xlink:href="#DejaVuSans-4e" x="211.279297"/>
      <use xlink:href="#DejaVuSans-45" x="286.083984"/>
      <use xlink:href="#DejaVuSans-41" x="349.267578"/>
     </g>
    </g>
   </g>
  </g>
 </g>
 <defs>
  <clipPath id="pbf1a8bfadb">
   <rect x="39.66375" y="0.72" width="558" height="277.2"/>
  </clipPath>
 </defs>
</svg>
