<?xml version="1.0" encoding="utf-8" standalone="no"?>
<!DOCTYPE svg PUBLIC "-//W3C//DTD SVG 1.1//EN"
  "http://www.w3.org/Graphics/SVG/1.1/DTD/svg11.dtd">
<svg xmlns:xlink="http://www.w3.org/1999/xlink" width="590.860312pt" height="304.99625pt" viewBox="0 0 590.860312 304.99625" xmlns="http://www.w3.org/2000/svg" version="1.1">
 <metadata>
  <rdf:RDF xmlns:dc="http://purl.org/dc/elements/1.1/" xmlns:cc="http://creativecommons.org/ns#" xmlns:rdf="http://www.w3.org/1999/02/22-rdf-syntax-ns#">
   <cc:Work>
    <dc:type rdf:resource="http://purl.org/dc/dcmitype/StillImage"/>
    <dc:date>2023-09-07T03:30:35.811032</dc:date>
    <dc:format>image/svg+xml</dc:format>
    <dc:creator>
     <cc:Agent>
      <dc:title>Matplotlib v3.7.2, https://matplotlib.org/</dc:title>
     </cc:Agent>
    </dc:creator>
   </cc:Work>
  </rdf:RDF>
 </metadata>
 <defs>
  <style type="text/css">*{stroke-linejoin: round; stroke-linecap: butt}</style>
 </defs>
 <g id="figure_1">
  <g id="patch_1">
   <path d="M -0 304.99625 
L 590.860312 304.99625 
L 590.860312 0 
L -0 0 
L -0 304.99625 
z
" style="fill: none"/>
  </g>
  <g id="axes_1">
   <g id="patch_2">
    <path d="M 32.140313 277.92 
L 590.140313 277.92 
L 590.140313 0.72 
L 32.140313 0.72 
L 32.140313 277.92 
z
" style="fill: none"/>
   </g>
   <g id="matplotlib.axis_1">
    <g id="xtick_1">
     <g id="line2d_1">
      <path d="M 32.140313 277.92 
L 32.140313 0.72 
" clip-path="url(#p965172a7bb)" style="fill: none; stroke-dasharray: 0.8,1.32; stroke-dashoffset: 0; stroke: #000000; stroke-opacity: 0.5; stroke-width: 0.8"/>
     </g>
     <g id="line2d_2">
      <defs>
       <path id="m9639b2333e" d="M 0 0 
L 0 3.5 
" style="stroke: #000000; stroke-width: 0.8"/>
      </defs>
      <g>
       <use xlink:href="#m9639b2333e" x="32.140313" y="277.92" style="stroke: #000000; stroke-width: 0.8"/>
      </g>
     </g>
     <g id="text_1">
      <!-- 0.0 -->
      <g transform="translate(24.18875 292.518438) scale(0.1 -0.1)">
       <defs>
        <path id="DejaVuSans-30" d="M 2034 4250 
Q 1547 4250 1301 3770 
Q 1056 3291 1056 2328 
Q 1056 1369 1301 889 
Q 1547 409 2034 409 
Q 2525 409 2770 889 
Q 3016 1369 3016 2328 
Q 3016 3291 2770 3770 
Q 2525 4250 2034 4250 
z
M 2034 4750 
Q 2819 4750 3233 4129 
Q 3647 3509 3647 2328 
Q 3647 1150 3233 529 
Q 2819 -91 2034 -91 
Q 1250 -91 836 529 
Q 422 1150 422 2328 
Q 422 3509 836 4129 
Q 1250 4750 2034 4750 
z
" transform="scale(0.015625)"/>
        <path id="DejaVuSans-2e" d="M 684 794 
L 1344 794 
L 1344 0 
L 684 0 
L 684 794 
z
" transform="scale(0.015625)"/>
       </defs>
       <use xlink:href="#DejaVuSans-30"/>
       <use xlink:href="#DejaVuSans-2e" x="63.623047"/>
       <use xlink:href="#DejaVuSans-30" x="95.410156"/>
      </g>
     </g>
    </g>
    <g id="xtick_2">
     <g id="line2d_3">
      <path d="M 106.291637 277.92 
L 106.291637 0.72 
" clip-path="url(#p965172a7bb)" style="fill: none; stroke-dasharray: 0.8,1.32; stroke-dashoffset: 0; stroke: #000000; stroke-opacity: 0.5; stroke-width: 0.8"/>
     </g>
     <g id="line2d_4">
      <g>
       <use xlink:href="#m9639b2333e" x="106.291637" y="277.92" style="stroke: #000000; stroke-width: 0.8"/>
      </g>
     </g>
     <g id="text_2">
      <!-- 2.5 -->
      <g transform="translate(98.340075 292.518438) scale(0.1 -0.1)">
       <defs>
        <path id="DejaVuSans-32" d="M 1228 531 
L 3431 531 
L 3431 0 
L 469 0 
L 469 531 
Q 828 903 1448 1529 
Q 2069 2156 2228 2338 
Q 2531 2678 2651 2914 
Q 2772 3150 2772 3378 
Q 2772 3750 2511 3984 
Q 2250 4219 1831 4219 
Q 1534 4219 1204 4116 
Q 875 4013 500 3803 
L 500 4441 
Q 881 4594 1212 4672 
Q 1544 4750 1819 4750 
Q 2544 4750 2975 4387 
Q 3406 4025 3406 3419 
Q 3406 3131 3298 2873 
Q 3191 2616 2906 2266 
Q 2828 2175 2409 1742 
Q 1991 1309 1228 531 
z
" transform="scale(0.015625)"/>
        <path id="DejaVuSans-35" d="M 691 4666 
L 3169 4666 
L 3169 4134 
L 1269 4134 
L 1269 2991 
Q 1406 3038 1543 3061 
Q 1681 3084 1819 3084 
Q 2600 3084 3056 2656 
Q 3513 2228 3513 1497 
Q 3513 744 3044 326 
Q 2575 -91 1722 -91 
Q 1428 -91 1123 -41 
Q 819 9 494 109 
L 494 744 
Q 775 591 1075 516 
Q 1375 441 1709 441 
Q 2250 441 2565 725 
Q 2881 1009 2881 1497 
Q 2881 1984 2565 2268 
Q 2250 2553 1709 2553 
Q 1456 2553 1204 2497 
Q 953 2441 691 2322 
L 691 4666 
z
" transform="scale(0.015625)"/>
       </defs>
       <use xlink:href="#DejaVuSans-32"/>
       <use xlink:href="#DejaVuSans-2e" x="63.623047"/>
       <use xlink:href="#DejaVuSans-35" x="95.410156"/>
      </g>
     </g>
    </g>
    <g id="xtick_3">
     <g id="line2d_5">
      <path d="M 180.442962 277.92 
L 180.442962 0.72 
" clip-path="url(#p965172a7bb)" style="fill: none; stroke-dasharray: 0.8,1.32; stroke-dashoffset: 0; stroke: #000000; stroke-opacity: 0.5; stroke-width: 0.8"/>
     </g>
     <g id="line2d_6">
      <g>
       <use xlink:href="#m9639b2333e" x="180.442962" y="277.92" style="stroke: #000000; stroke-width: 0.8"/>
      </g>
     </g>
     <g id="text_3">
      <!-- 5.0 -->
      <g transform="translate(172.4914 292.518438) scale(0.1 -0.1)">
       <use xlink:href="#DejaVuSans-35"/>
       <use xlink:href="#DejaVuSans-2e" x="63.623047"/>
       <use xlink:href="#DejaVuSans-30" x="95.410156"/>
      </g>
     </g>
    </g>
    <g id="xtick_4">
     <g id="line2d_7">
      <path d="M 254.594287 277.92 
L 254.594287 0.72 
" clip-path="url(#p965172a7bb)" style="fill: none; stroke-dasharray: 0.8,1.32; stroke-dashoffset: 0; stroke: #000000; stroke-opacity: 0.5; stroke-width: 0.8"/>
     </g>
     <g id="line2d_8">
      <g>
       <use xlink:href="#m9639b2333e" x="254.594287" y="277.92" style="stroke: #000000; stroke-width: 0.8"/>
      </g>
     </g>
     <g id="text_4">
      <!-- 7.5 -->
      <g transform="translate(246.642725 292.518438) scale(0.1 -0.1)">
       <defs>
        <path id="DejaVuSans-37" d="M 525 4666 
L 3525 4666 
L 3525 4397 
L 1831 0 
L 1172 0 
L 2766 4134 
L 525 4134 
L 525 4666 
z
" transform="scale(0.015625)"/>
       </defs>
       <use xlink:href="#DejaVuSans-37"/>
       <use xlink:href="#DejaVuSans-2e" x="63.623047"/>
       <use xlink:href="#DejaVuSans-35" x="95.410156"/>
      </g>
     </g>
    </g>
    <g id="xtick_5">
     <g id="line2d_9">
      <path d="M 328.745612 277.92 
L 328.745612 0.72 
" clip-path="url(#p965172a7bb)" style="fill: none; stroke-dasharray: 0.8,1.32; stroke-dashoffset: 0; stroke: #000000; stroke-opacity: 0.5; stroke-width: 0.8"/>
     </g>
     <g id="line2d_10">
      <g>
       <use xlink:href="#m9639b2333e" x="328.745612" y="277.92" style="stroke: #000000; stroke-width: 0.8"/>
      </g>
     </g>
     <g id="text_5">
      <!-- 10.0 -->
      <g transform="translate(317.6128 292.518438) scale(0.1 -0.1)">
       <defs>
        <path id="DejaVuSans-31" d="M 794 531 
L 1825 531 
L 1825 4091 
L 703 3866 
L 703 4441 
L 1819 4666 
L 2450 4666 
L 2450 531 
L 3481 531 
L 3481 0 
L 794 0 
L 794 531 
z
" transform="scale(0.015625)"/>
       </defs>
       <use xlink:href="#DejaVuSans-31"/>
       <use xlink:href="#DejaVuSans-30" x="63.623047"/>
       <use xlink:href="#DejaVuSans-2e" x="127.246094"/>
       <use xlink:href="#DejaVuSans-30" x="159.033203"/>
      </g>
     </g>
    </g>
    <g id="xtick_6">
     <g id="line2d_11">
      <path d="M 402.896937 277.92 
L 402.896937 0.72 
" clip-path="url(#p965172a7bb)" style="fill: none; stroke-dasharray: 0.8,1.32; stroke-dashoffset: 0; stroke: #000000; stroke-opacity: 0.5; stroke-width: 0.8"/>
     </g>
     <g id="line2d_12">
      <g>
       <use xlink:href="#m9639b2333e" x="402.896937" y="277.92" style="stroke: #000000; stroke-width: 0.8"/>
      </g>
     </g>
     <g id="text_6">
      <!-- 12.5 -->
      <g transform="translate(391.764125 292.518438) scale(0.1 -0.1)">
       <use xlink:href="#DejaVuSans-31"/>
       <use xlink:href="#DejaVuSans-32" x="63.623047"/>
       <use xlink:href="#DejaVuSans-2e" x="127.246094"/>
       <use xlink:href="#DejaVuSans-35" x="159.033203"/>
      </g>
     </g>
    </g>
    <g id="xtick_7">
     <g id="line2d_13">
      <path d="M 477.048262 277.92 
L 477.048262 0.72 
" clip-path="url(#p965172a7bb)" style="fill: none; stroke-dasharray: 0.8,1.32; stroke-dashoffset: 0; stroke: #000000; stroke-opacity: 0.5; stroke-width: 0.8"/>
     </g>
     <g id="line2d_14">
      <g>
       <use xlink:href="#m9639b2333e" x="477.048262" y="277.92" style="stroke: #000000; stroke-width: 0.8"/>
      </g>
     </g>
     <g id="text_7">
      <!-- 15.0 -->
      <g transform="translate(465.91545 292.518438) scale(0.1 -0.1)">
       <use xlink:href="#DejaVuSans-31"/>
       <use xlink:href="#DejaVuSans-35" x="63.623047"/>
       <use xlink:href="#DejaVuSans-2e" x="127.246094"/>
       <use xlink:href="#DejaVuSans-30" x="159.033203"/>
      </g>
     </g>
    </g>
    <g id="xtick_8">
     <g id="line2d_15">
      <path d="M 551.199587 277.92 
L 551.199587 0.72 
" clip-path="url(#p965172a7bb)" style="fill: none; stroke-dasharray: 0.8,1.32; stroke-dashoffset: 0; stroke: #000000; stroke-opacity: 0.5; stroke-width: 0.8"/>
     </g>
     <g id="line2d_16">
      <g>
       <use xlink:href="#m9639b2333e" x="551.199587" y="277.92" style="stroke: #000000; stroke-width: 0.8"/>
      </g>
     </g>
     <g id="text_8">
      <!-- 17.5 -->
      <g transform="translate(540.066774 292.518438) scale(0.1 -0.1)">
       <use xlink:href="#DejaVuSans-31"/>
       <use xlink:href="#DejaVuSans-37" x="63.623047"/>
       <use xlink:href="#DejaVuSans-2e" x="127.246094"/>
       <use xlink:href="#DejaVuSans-35" x="159.033203"/>
      </g>
     </g>
    </g>
    <g id="text_9">
     <!-- Zeit [s] -->
     <g transform="translate(293.194219 302.196563) scale(0.1 -0.1)">
      <defs>
       <path id="DejaVuSans-5a" d="M 359 4666 
L 4025 4666 
L 4025 4184 
L 1075 531 
L 4097 531 
L 4097 0 
L 288 0 
L 288 481 
L 3238 4134 
L 359 4134 
L 359 4666 
z
" transform="scale(0.015625)"/>
       <path id="DejaVuSans-65" d="M 3597 1894 
L 3597 1613 
L 953 1613 
Q 991 1019 1311 708 
Q 1631 397 2203 397 
Q 2534 397 2845 478 
Q 3156 559 3463 722 
L 3463 178 
Q 3153 47 2828 -22 
Q 2503 -91 2169 -91 
Q 1331 -91 842 396 
Q 353 884 353 1716 
Q 353 2575 817 3079 
Q 1281 3584 2069 3584 
Q 2775 3584 3186 3129 
Q 3597 2675 3597 1894 
z
M 3022 2063 
Q 3016 2534 2758 2815 
Q 2500 3097 2075 3097 
Q 1594 3097 1305 2825 
Q 1016 2553 972 2059 
L 3022 2063 
z
" transform="scale(0.015625)"/>
       <path id="DejaVuSans-69" d="M 603 3500 
L 1178 3500 
L 1178 0 
L 603 0 
L 603 3500 
z
M 603 4863 
L 1178 4863 
L 1178 4134 
L 603 4134 
L 603 4863 
z
" transform="scale(0.015625)"/>
       <path id="DejaVuSans-74" d="M 1172 4494 
L 1172 3500 
L 2356 3500 
L 2356 3053 
L 1172 3053 
L 1172 1153 
Q 1172 725 1289 603 
Q 1406 481 1766 481 
L 2356 481 
L 2356 0 
L 1766 0 
Q 1100 0 847 248 
Q 594 497 594 1153 
L 594 3053 
L 172 3053 
L 172 3500 
L 594 3500 
L 594 4494 
L 1172 4494 
z
" transform="scale(0.015625)"/>
       <path id="DejaVuSans-20" transform="scale(0.015625)"/>
       <path id="DejaVuSans-5b" d="M 550 4863 
L 1875 4863 
L 1875 4416 
L 1125 4416 
L 1125 -397 
L 1875 -397 
L 1875 -844 
L 550 -844 
L 550 4863 
z
" transform="scale(0.015625)"/>
       <path id="DejaVuSans-73" d="M 2834 3397 
L 2834 2853 
Q 2591 2978 2328 3040 
Q 2066 3103 1784 3103 
Q 1356 3103 1142 2972 
Q 928 2841 928 2578 
Q 928 2378 1081 2264 
Q 1234 2150 1697 2047 
L 1894 2003 
Q 2506 1872 2764 1633 
Q 3022 1394 3022 966 
Q 3022 478 2636 193 
Q 2250 -91 1575 -91 
Q 1294 -91 989 -36 
Q 684 19 347 128 
L 347 722 
Q 666 556 975 473 
Q 1284 391 1588 391 
Q 1994 391 2212 530 
Q 2431 669 2431 922 
Q 2431 1156 2273 1281 
Q 2116 1406 1581 1522 
L 1381 1569 
Q 847 1681 609 1914 
Q 372 2147 372 2553 
Q 372 3047 722 3315 
Q 1072 3584 1716 3584 
Q 2034 3584 2315 3537 
Q 2597 3491 2834 3397 
z
" transform="scale(0.015625)"/>
       <path id="DejaVuSans-5d" d="M 1947 4863 
L 1947 -844 
L 622 -844 
L 622 -397 
L 1369 -397 
L 1369 4416 
L 622 4416 
L 622 4863 
L 1947 4863 
z
" transform="scale(0.015625)"/>
      </defs>
      <use xlink:href="#DejaVuSans-5a"/>
      <use xlink:href="#DejaVuSans-65" x="68.505859"/>
      <use xlink:href="#DejaVuSans-69" x="130.029297"/>
      <use xlink:href="#DejaVuSans-74" x="157.8125"/>
      <use xlink:href="#DejaVuSans-20" x="197.021484"/>
      <use xlink:href="#DejaVuSans-5b" x="228.808594"/>
      <use xlink:href="#DejaVuSans-73" x="267.822266"/>
      <use xlink:href="#DejaVuSans-5d" x="319.921875"/>
     </g>
    </g>
   </g>
   <g id="matplotlib.axis_2">
    <g id="ytick_1">
     <g id="line2d_17">
      <path d="M 32.140313 246.869027 
L 590.140313 246.869027 
" clip-path="url(#p965172a7bb)" style="fill: none; stroke-dasharray: 0.8,1.32; stroke-dashoffset: 0; stroke: #000000; stroke-opacity: 0.5; stroke-width: 0.8"/>
     </g>
     <g id="line2d_18">
      <defs>
       <path id="ma30b5b8fc2" d="M 0 0 
L -3.5 0 
" style="stroke: #000000; stroke-width: 0.8"/>
      </defs>
      <g>
       <use xlink:href="#ma30b5b8fc2" x="32.140313" y="246.869027" style="stroke: #000000; stroke-width: 0.8"/>
      </g>
     </g>
     <g id="text_10">
      <!-- −8 -->
      <g transform="translate(10.398125 250.668246) scale(0.1 -0.1)">
       <defs>
        <path id="DejaVuSans-2212" d="M 678 2272 
L 4684 2272 
L 4684 1741 
L 678 1741 
L 678 2272 
z
" transform="scale(0.015625)"/>
        <path id="DejaVuSans-38" d="M 2034 2216 
Q 1584 2216 1326 1975 
Q 1069 1734 1069 1313 
Q 1069 891 1326 650 
Q 1584 409 2034 409 
Q 2484 409 2743 651 
Q 3003 894 3003 1313 
Q 3003 1734 2745 1975 
Q 2488 2216 2034 2216 
z
M 1403 2484 
Q 997 2584 770 2862 
Q 544 3141 544 3541 
Q 544 4100 942 4425 
Q 1341 4750 2034 4750 
Q 2731 4750 3128 4425 
Q 3525 4100 3525 3541 
Q 3525 3141 3298 2862 
Q 3072 2584 2669 2484 
Q 3125 2378 3379 2068 
Q 3634 1759 3634 1313 
Q 3634 634 3220 271 
Q 2806 -91 2034 -91 
Q 1263 -91 848 271 
Q 434 634 434 1313 
Q 434 1759 690 2068 
Q 947 2378 1403 2484 
z
M 1172 3481 
Q 1172 3119 1398 2916 
Q 1625 2713 2034 2713 
Q 2441 2713 2670 2916 
Q 2900 3119 2900 3481 
Q 2900 3844 2670 4047 
Q 2441 4250 2034 4250 
Q 1625 4250 1398 4047 
Q 1172 3844 1172 3481 
z
" transform="scale(0.015625)"/>
       </defs>
       <use xlink:href="#DejaVuSans-2212"/>
       <use xlink:href="#DejaVuSans-38" x="83.789062"/>
      </g>
     </g>
    </g>
    <g id="ytick_2">
     <g id="line2d_19">
      <path d="M 32.140313 207.658064 
L 590.140313 207.658064 
" clip-path="url(#p965172a7bb)" style="fill: none; stroke-dasharray: 0.8,1.32; stroke-dashoffset: 0; stroke: #000000; stroke-opacity: 0.5; stroke-width: 0.8"/>
     </g>
     <g id="line2d_20">
      <g>
       <use xlink:href="#ma30b5b8fc2" x="32.140313" y="207.658064" style="stroke: #000000; stroke-width: 0.8"/>
      </g>
     </g>
     <g id="text_11">
      <!-- −6 -->
      <g transform="translate(10.398125 211.457283) scale(0.1 -0.1)">
       <defs>
        <path id="DejaVuSans-36" d="M 2113 2584 
Q 1688 2584 1439 2293 
Q 1191 2003 1191 1497 
Q 1191 994 1439 701 
Q 1688 409 2113 409 
Q 2538 409 2786 701 
Q 3034 994 3034 1497 
Q 3034 2003 2786 2293 
Q 2538 2584 2113 2584 
z
M 3366 4563 
L 3366 3988 
Q 3128 4100 2886 4159 
Q 2644 4219 2406 4219 
Q 1781 4219 1451 3797 
Q 1122 3375 1075 2522 
Q 1259 2794 1537 2939 
Q 1816 3084 2150 3084 
Q 2853 3084 3261 2657 
Q 3669 2231 3669 1497 
Q 3669 778 3244 343 
Q 2819 -91 2113 -91 
Q 1303 -91 875 529 
Q 447 1150 447 2328 
Q 447 3434 972 4092 
Q 1497 4750 2381 4750 
Q 2619 4750 2861 4703 
Q 3103 4656 3366 4563 
z
" transform="scale(0.015625)"/>
       </defs>
       <use xlink:href="#DejaVuSans-2212"/>
       <use xlink:href="#DejaVuSans-36" x="83.789062"/>
      </g>
     </g>
    </g>
    <g id="ytick_3">
     <g id="line2d_21">
      <path d="M 32.140313 168.447101 
L 590.140313 168.447101 
" clip-path="url(#p965172a7bb)" style="fill: none; stroke-dasharray: 0.8,1.32; stroke-dashoffset: 0; stroke: #000000; stroke-opacity: 0.5; stroke-width: 0.8"/>
     </g>
     <g id="line2d_22">
      <g>
       <use xlink:href="#ma30b5b8fc2" x="32.140313" y="168.447101" style="stroke: #000000; stroke-width: 0.8"/>
      </g>
     </g>
     <g id="text_12">
      <!-- −4 -->
      <g transform="translate(10.398125 172.24632) scale(0.1 -0.1)">
       <defs>
        <path id="DejaVuSans-34" d="M 2419 4116 
L 825 1625 
L 2419 1625 
L 2419 4116 
z
M 2253 4666 
L 3047 4666 
L 3047 1625 
L 3713 1625 
L 3713 1100 
L 3047 1100 
L 3047 0 
L 2419 0 
L 2419 1100 
L 313 1100 
L 313 1709 
L 2253 4666 
z
" transform="scale(0.015625)"/>
       </defs>
       <use xlink:href="#DejaVuSans-2212"/>
       <use xlink:href="#DejaVuSans-34" x="83.789062"/>
      </g>
     </g>
    </g>
    <g id="ytick_4">
     <g id="line2d_23">
      <path d="M 32.140313 129.236138 
L 590.140313 129.236138 
" clip-path="url(#p965172a7bb)" style="fill: none; stroke-dasharray: 0.8,1.32; stroke-dashoffset: 0; stroke: #000000; stroke-opacity: 0.5; stroke-width: 0.8"/>
     </g>
     <g id="line2d_24">
      <g>
       <use xlink:href="#ma30b5b8fc2" x="32.140313" y="129.236138" style="stroke: #000000; stroke-width: 0.8"/>
      </g>
     </g>
     <g id="text_13">
      <!-- −2 -->
      <g transform="translate(10.398125 133.035356) scale(0.1 -0.1)">
       <use xlink:href="#DejaVuSans-2212"/>
       <use xlink:href="#DejaVuSans-32" x="83.789062"/>
      </g>
     </g>
    </g>
    <g id="ytick_5">
     <g id="line2d_25">
      <path d="M 32.140313 90.025174 
L 590.140313 90.025174 
" clip-path="url(#p965172a7bb)" style="fill: none; stroke-dasharray: 0.8,1.32; stroke-dashoffset: 0; stroke: #000000; stroke-opacity: 0.5; stroke-width: 0.8"/>
     </g>
     <g id="line2d_26">
      <g>
       <use xlink:href="#ma30b5b8fc2" x="32.140313" y="90.025174" style="stroke: #000000; stroke-width: 0.8"/>
      </g>
     </g>
     <g id="text_14">
      <!-- 0 -->
      <g transform="translate(18.777813 93.824393) scale(0.1 -0.1)">
       <use xlink:href="#DejaVuSans-30"/>
      </g>
     </g>
    </g>
    <g id="ytick_6">
     <g id="line2d_27">
      <path d="M 32.140313 50.814211 
L 590.140313 50.814211 
" clip-path="url(#p965172a7bb)" style="fill: none; stroke-dasharray: 0.8,1.32; stroke-dashoffset: 0; stroke: #000000; stroke-opacity: 0.5; stroke-width: 0.8"/>
     </g>
     <g id="line2d_28">
      <g>
       <use xlink:href="#ma30b5b8fc2" x="32.140313" y="50.814211" style="stroke: #000000; stroke-width: 0.8"/>
      </g>
     </g>
     <g id="text_15">
      <!-- 2 -->
      <g transform="translate(18.777813 54.61343) scale(0.1 -0.1)">
       <use xlink:href="#DejaVuSans-32"/>
      </g>
     </g>
    </g>
    <g id="ytick_7">
     <g id="line2d_29">
      <path d="M 32.140313 11.603248 
L 590.140313 11.603248 
" clip-path="url(#p965172a7bb)" style="fill: none; stroke-dasharray: 0.8,1.32; stroke-dashoffset: 0; stroke: #000000; stroke-opacity: 0.5; stroke-width: 0.8"/>
     </g>
     <g id="line2d_30">
      <g>
       <use xlink:href="#ma30b5b8fc2" x="32.140313" y="11.603248" style="stroke: #000000; stroke-width: 0.8"/>
      </g>
     </g>
     <g id="text_16">
      <!-- 4 -->
      <g transform="translate(18.777813 15.402467) scale(0.1 -0.1)">
       <use xlink:href="#DejaVuSans-34"/>
      </g>
     </g>
    </g>
    <g id="text_17">
     <!-- Drehmoment [Nm] -->
     <g transform="translate(8.318438 186.465313) rotate(-90) scale(0.1 -0.1)">
      <defs>
       <path id="DejaVuSans-44" d="M 1259 4147 
L 1259 519 
L 2022 519 
Q 2988 519 3436 956 
Q 3884 1394 3884 2338 
Q 3884 3275 3436 3711 
Q 2988 4147 2022 4147 
L 1259 4147 
z
M 628 4666 
L 1925 4666 
Q 3281 4666 3915 4102 
Q 4550 3538 4550 2338 
Q 4550 1131 3912 565 
Q 3275 0 1925 0 
L 628 0 
L 628 4666 
z
" transform="scale(0.015625)"/>
       <path id="DejaVuSans-72" d="M 2631 2963 
Q 2534 3019 2420 3045 
Q 2306 3072 2169 3072 
Q 1681 3072 1420 2755 
Q 1159 2438 1159 1844 
L 1159 0 
L 581 0 
L 581 3500 
L 1159 3500 
L 1159 2956 
Q 1341 3275 1631 3429 
Q 1922 3584 2338 3584 
Q 2397 3584 2469 3576 
Q 2541 3569 2628 3553 
L 2631 2963 
z
" transform="scale(0.015625)"/>
       <path id="DejaVuSans-68" d="M 3513 2113 
L 3513 0 
L 2938 0 
L 2938 2094 
Q 2938 2591 2744 2837 
Q 2550 3084 2163 3084 
Q 1697 3084 1428 2787 
Q 1159 2491 1159 1978 
L 1159 0 
L 581 0 
L 581 4863 
L 1159 4863 
L 1159 2956 
Q 1366 3272 1645 3428 
Q 1925 3584 2291 3584 
Q 2894 3584 3203 3211 
Q 3513 2838 3513 2113 
z
" transform="scale(0.015625)"/>
       <path id="DejaVuSans-6d" d="M 3328 2828 
Q 3544 3216 3844 3400 
Q 4144 3584 4550 3584 
Q 5097 3584 5394 3201 
Q 5691 2819 5691 2113 
L 5691 0 
L 5113 0 
L 5113 2094 
Q 5113 2597 4934 2840 
Q 4756 3084 4391 3084 
Q 3944 3084 3684 2787 
Q 3425 2491 3425 1978 
L 3425 0 
L 2847 0 
L 2847 2094 
Q 2847 2600 2669 2842 
Q 2491 3084 2119 3084 
Q 1678 3084 1418 2786 
Q 1159 2488 1159 1978 
L 1159 0 
L 581 0 
L 581 3500 
L 1159 3500 
L 1159 2956 
Q 1356 3278 1631 3431 
Q 1906 3584 2284 3584 
Q 2666 3584 2933 3390 
Q 3200 3197 3328 2828 
z
" transform="scale(0.015625)"/>
       <path id="DejaVuSans-6f" d="M 1959 3097 
Q 1497 3097 1228 2736 
Q 959 2375 959 1747 
Q 959 1119 1226 758 
Q 1494 397 1959 397 
Q 2419 397 2687 759 
Q 2956 1122 2956 1747 
Q 2956 2369 2687 2733 
Q 2419 3097 1959 3097 
z
M 1959 3584 
Q 2709 3584 3137 3096 
Q 3566 2609 3566 1747 
Q 3566 888 3137 398 
Q 2709 -91 1959 -91 
Q 1206 -91 779 398 
Q 353 888 353 1747 
Q 353 2609 779 3096 
Q 1206 3584 1959 3584 
z
" transform="scale(0.015625)"/>
       <path id="DejaVuSans-6e" d="M 3513 2113 
L 3513 0 
L 2938 0 
L 2938 2094 
Q 2938 2591 2744 2837 
Q 2550 3084 2163 3084 
Q 1697 3084 1428 2787 
Q 1159 2491 1159 1978 
L 1159 0 
L 581 0 
L 581 3500 
L 1159 3500 
L 1159 2956 
Q 1366 3272 1645 3428 
Q 1925 3584 2291 3584 
Q 2894 3584 3203 3211 
Q 3513 2838 3513 2113 
z
" transform="scale(0.015625)"/>
       <path id="DejaVuSans-4e" d="M 628 4666 
L 1478 4666 
L 3547 763 
L 3547 4666 
L 4159 4666 
L 4159 0 
L 3309 0 
L 1241 3903 
L 1241 0 
L 628 0 
L 628 4666 
z
" transform="scale(0.015625)"/>
      </defs>
      <use xlink:href="#DejaVuSans-44"/>
      <use xlink:href="#DejaVuSans-72" x="77.001953"/>
      <use xlink:href="#DejaVuSans-65" x="115.865234"/>
      <use xlink:href="#DejaVuSans-68" x="177.388672"/>
      <use xlink:href="#DejaVuSans-6d" x="240.767578"/>
      <use xlink:href="#DejaVuSans-6f" x="338.179688"/>
      <use xlink:href="#DejaVuSans-6d" x="399.361328"/>
      <use xlink:href="#DejaVuSans-65" x="496.773438"/>
      <use xlink:href="#DejaVuSans-6e" x="558.296875"/>
      <use xlink:href="#DejaVuSans-74" x="621.675781"/>
      <use xlink:href="#DejaVuSans-20" x="660.884766"/>
      <use xlink:href="#DejaVuSans-5b" x="692.671875"/>
      <use xlink:href="#DejaVuSans-4e" x="731.685547"/>
      <use xlink:href="#DejaVuSans-6d" x="806.490234"/>
      <use xlink:href="#DejaVuSans-5d" x="903.902344"/>
     </g>
    </g>
   </g>
   <g id="line2d_31">
    <path d="M 32.140313 90.025081 
L 217.191757 90.081434 
L 217.369551 90.275183 
L 217.685713 90.286377 
L 217.89868 90.423253 
L 218.376477 90.349745 
L 219.38853 90.004694 
L 219.626289 90.046492 
L 219.864317 89.910325 
L 220.821951 89.913299 
L 221.060327 89.830034 
L 221.116739 89.962774 
L 221.594397 89.851066 
L 222.368452 89.883796 
L 226.845951 89.747418 
L 227.025385 89.642595 
L 227.264162 89.75996 
L 228.097371 89.651521 
L 228.276175 89.742974 
L 228.75348 89.632221 
L 229.544257 89.656061 
L 244.092059 89.360093 
L 244.33058 89.410041 
L 245.104217 89.279321 
L 247.788534 89.310554 
L 248.027853 89.231464 
L 248.503671 89.273378 
L 256.19372 89.197173 
L 256.789273 89.218519 
L 256.968337 89.151651 
L 258.937027 89.221066 
L 259.889674 89.201542 
L 261.737001 89.204422 
L 262.170291 89.165688 
L 262.871144 89.184079 
L 263.882632 89.207774 
L 265.612533 89.200863 
L 269.429128 89.23715 
L 269.84571 89.221865 
L 275.231571 89.27301 
L 276.465935 89.286928 
L 277.957434 89.322456 
L 279.686283 89.368049 
L 281.121606 89.388295 
L 287.326559 89.510836 
L 288.811161 89.554094 
L 292.270209 89.634225 
L 293.24405 89.665951 
L 307.621794 90.066261 
L 308.875217 90.023596 
L 315.994706 90.023412 
L 339.247031 90.02666 
L 342.663131 90.023737 
L 351.405524 90.023533 
L 384.204218 90.023154 
L 389.688257 90.026314 
L 405.494709 90.022226 
L 409.197164 90.023993 
L 564.727769 89.724678 
L 590.140313 89.7247 
L 590.140313 89.7247 
" clip-path="url(#p965172a7bb)" style="fill: none; stroke: #0000ff; stroke-opacity: 0.5; stroke-width: 1.5; stroke-linecap: square"/>
   </g>
   <g id="line2d_32">
    <path d="M 32.140313 69.434926 
L 32.260416 69.513669 
L 32.503304 68.657993 
L 32.5745 70.804932 
L 32.748517 69.149866 
L 33.054561 68.595934 
L 33.345096 68.913792 
L 33.523383 67.948955 
L 33.940291 69.432744 
L 34.179346 68.676024 
L 34.239045 67.646873 
L 34.656384 68.449148 
L 35.196698 68.522991 
L 35.670907 68.312378 
L 35.729003 69.224911 
L 35.967083 70.060016 
L 36.266372 68.606823 
L 36.801595 69.661639 
L 37.115218 68.26382 
L 37.219399 69.447364 
L 37.457383 67.819844 
L 37.697946 69.876049 
L 37.938435 68.854773 
L 38.236853 68.99695 
L 38.471547 67.240231 
L 38.70973 68.833554 
L 39.008549 68.69643 
L 39.494512 67.695092 
L 39.812296 67.624531 
L 39.966387 68.653853 
L 40.204549 67.368721 
L 40.443272 67.828521 
L 40.862256 65.906014 
L 41.043007 67.972881 
L 41.158873 66.522023 
L 41.403681 67.661191 
L 41.640993 67.394936 
L 41.881665 67.405262 
L 42.174413 67.914999 
L 42.77819 67.29499 
L 44.079313 67.362461 
L 45.384296 68.129762 
L 46.688449 69.827648 
L 47.994112 69.305439 
L 49.298621 67.659582 
L 50.722905 67.514123 
L 52.14611 67.507055 
L 53.451293 67.966473 
L 53.591898 68.215641 
L 53.829341 67.472581 
L 54.067819 67.857326 
L 54.306655 67.725978 
L 54.603691 68.491008 
L 54.903392 69.964092 
L 55.082802 67.290665 
L 55.319405 68.20338 
L 55.503632 70.546513 
L 55.741906 68.678184 
L 56.0415 69.750599 
L 56.276474 71.045837 
L 56.573769 68.218426 
L 56.75367 67.911169 
L 56.993866 69.80218 
L 57.290431 69.401298 
L 57.484191 68.901946 
L 57.768474 69.528767 
L 58.064149 67.617346 
L 58.36308 67.883933 
L 58.482261 68.74754 
L 58.721276 66.730172 
L 58.961335 68.613859 
L 59.273708 69.091775 
L 59.497757 66.673779 
L 59.746013 67.054823 
L 60.034326 68.986865 
L 60.215694 66.824341 
L 60.572028 68.310108 
L 60.750248 68.428109 
L 61.051876 66.327675 
L 61.226386 68.791363 
L 61.466678 70.05016 
L 61.762805 70.262816 
L 62.657497 72.460959 
L 62.96134 70.002573 
L 63.254391 70.106072 
L 63.493016 72.808831 
L 63.733151 71.573736 
L 63.976034 68.604882 
L 64.160848 70.284624 
L 64.455345 70.926336 
L 65.050707 67.141749 
L 65.227079 69.160879 
L 65.467025 69.373959 
L 65.707736 70.426333 
L 66.242317 67.74883 
L 66.420136 69.209867 
L 67.079511 69.601464 
L 67.374773 69.84193 
L 67.433733 70.179958 
L 67.672356 69.159545 
L 67.910925 68.669745 
L 68.149877 67.0851 
L 68.74506 69.862891 
L 69.172201 67.533667 
L 69.354232 67.674775 
L 69.401301 67.508708 
L 69.937271 68.365768 
L 70.116759 68.376551 
L 70.652368 71.067769 
L 70.849156 68.950391 
L 71.130491 68.508817 
L 71.368623 71.474047 
L 71.665909 71.493891 
L 71.845834 69.741681 
L 72.083203 70.202245 
L 72.38166 70.491309 
L 72.621779 70.347878 
L 72.858895 69.258678 
L 73.09869 68.987306 
L 73.336516 70.522993 
L 73.574 70.122662 
L 73.933629 67.318855 
L 74.12469 67.724661 
L 74.349816 70.101578 
L 74.588354 69.448372 
L 74.830265 67.07281 
L 75.303153 68.377996 
L 75.422818 70.66563 
L 75.550599 68.897458 
L 75.788722 68.042542 
L 76.078528 70.48188 
L 76.258186 70.955016 
L 76.496906 67.987295 
L 76.853247 66.696298 
L 77.269994 71.792966 
L 77.747356 68.284039 
L 78.048518 70.726572 
L 78.343652 71.371649 
L 78.521766 69.187785 
L 78.761397 68.317806 
L 79.237503 70.701204 
L 79.476273 71.024436 
L 80.072023 72.341712 
L 80.369511 71.386446 
L 80.530625 68.371003 
L 80.728143 67.872064 
L 80.966541 70.118745 
L 81.265122 71.748078 
L 81.503326 71.093472 
L 82.04075 66.850237 
L 82.224265 65.859865 
L 82.755731 67.224864 
L 83.546261 70.289766 
L 83.718712 67.424076 
L 84.186037 67.092858 
L 84.543172 68.375102 
L 84.782008 68.911002 
L 84.901284 68.765057 
L 85.318863 69.257987 
L 85.439328 68.783891 
L 85.676068 68.938777 
L 85.973647 69.901376 
L 86.152383 71.382313 
L 86.391669 71.710291 
L 86.927314 68.596155 
L 87.127254 66.754755 
L 87.463784 67.49839 
L 87.642367 69.418137 
L 87.942829 68.785324 
L 88.178787 65.956646 
L 88.479615 65.535252 
L 88.894997 68.471274 
L 89.136453 68.811818 
L 89.52933 69.160058 
L 89.701857 70.047641 
L 90.091562 69.819438 
L 90.266352 67.477323 
L 90.33225 67.944224 
L 90.627249 70.183274 
L 90.923552 69.513243 
L 91.12736 66.375484 
L 91.417413 64.831188 
L 91.700983 66.285704 
L 91.840231 69.30709 
L 92.11645 70.485363 
L 92.355029 68.017811 
L 92.663098 67.930612 
L 92.962953 69.981999 
L 93.433165 67.358405 
L 94.0285 68.561904 
L 94.163744 72.561599 
L 95.505901 70.307192 
L 96.803142 69.722537 
L 98.231861 69.813764 
L 98.311059 73.861506 
L 98.490811 72.479126 
L 98.72905 69.223144 
L 99.325383 64.154244 
L 99.703719 64.233838 
L 100.06431 67.407751 
L 100.326145 67.806692 
L 101.025498 63.891767 
L 101.325668 64.702241 
L 101.985306 73.155869 
L 102.277973 72.605438 
L 102.755395 66.403183 
L 103.114866 65.512399 
L 103.530292 71.627373 
L 103.829761 73.596641 
L 104.013288 73.02678 
L 104.432586 67.035471 
L 104.689594 66.251736 
L 104.92847 68.719148 
L 105.214519 70.403016 
L 105.449508 69.586045 
L 105.927019 65.444226 
L 106.168076 65.59193 
L 106.430067 67.590423 
L 107.059362 70.977654 
L 107.425785 69.105476 
L 107.730857 70.641766 
L 107.96896 73.617243 
L 108.178044 74.785362 
L 108.520564 73.375552 
L 108.673551 70.615326 
L 108.951319 68.342705 
L 109.574599 68.081886 
L 109.639565 70.299973 
L 109.853576 71.787441 
L 110.113291 68.081208 
L 110.420405 67.968411 
L 110.768396 68.030327 
L 110.886904 67.721271 
L 111.661639 69.828745 
L 111.843756 69.486971 
L 112.087971 67.762727 
L 112.393847 67.926589 
L 112.565524 68.826193 
L 112.926999 67.967291 
L 113.160978 66.821244 
L 113.458694 67.722292 
L 113.582678 69.896312 
L 113.936112 71.048026 
L 114.244007 68.683813 
L 114.353403 66.252969 
L 114.831601 70.865036 
L 115.070886 69.675394 
L 115.308688 67.532975 
L 115.549767 66.975416 
L 115.787315 67.509018 
L 116.328025 67.705411 
L 116.798422 71.780169 
L 117.226811 70.868256 
L 117.33498 68.4848 
L 117.632928 70.191631 
L 117.811529 72.098562 
L 118.287729 71.943106 
L 118.586634 72.279254 
L 118.76759 71.929743 
L 119.064731 70.606031 
L 119.302806 68.647434 
L 119.495102 68.051183 
L 119.785222 70.313127 
L 120.028396 70.463309 
L 120.265168 69.788761 
L 120.49819 70.142774 
L 120.738598 70.893281 
L 121.034974 71.148417 
L 121.392655 70.212461 
L 121.511894 68.725318 
L 121.75016 68.077563 
L 122.108107 68.691987 
L 122.227702 68.513862 
L 122.465751 68.530658 
L 122.764971 68.301763 
L 123.061124 68.365451 
L 123.358796 68.227602 
L 123.481512 67.860122 
L 123.956408 70.03705 
L 124.194498 69.817428 
L 124.432582 68.516071 
L 124.731646 67.904669 
L 125.027873 68.020133 
L 125.208061 68.23451 
L 125.447421 67.911499 
L 125.708499 66.793356 
L 125.926155 66.37855 
L 126.167523 66.486008 
L 126.415946 65.680467 
L 126.717922 66.542383 
L 126.906634 69.188355 
L 127.237391 69.669208 
L 127.418743 67.192406 
L 127.685942 66.527584 
L 128.149173 72.195285 
L 128.390036 70.878966 
L 128.625669 67.988005 
L 128.937299 68.585911 
L 129.162063 70.753704 
L 129.399844 70.439608 
L 129.699097 68.335263 
L 129.937414 67.985418 
L 130.175147 69.719462 
L 130.534909 69.89543 
L 131.009433 65.450547 
L 131.367421 67.626803 
L 131.669143 67.064932 
L 131.875346 65.563401 
L 132.100256 65.239882 
L 132.67823 67.322226 
L 132.97878 66.931228 
L 133.155995 67.521545 
L 133.633954 67.982012 
L 133.87163 68.412521 
L 134.113457 69.771034 
L 134.649402 74.896002 
L 134.829554 74.806049 
L 135.321084 71.890646 
L 135.38073 68.975447 
L 135.561688 68.523613 
L 136.097847 73.188578 
L 136.335606 73.496175 
L 137.108679 65.931535 
L 137.295106 67.349546 
L 138.003165 71.599698 
L 138.540159 66.374351 
L 138.784747 65.616451 
L 139.316551 71.636109 
L 139.680343 72.516801 
L 139.79121 69.866686 
L 140.089465 68.015784 
L 140.333915 68.552295 
L 140.522304 71.05459 
L 140.75126 72.27238 
L 141.044501 70.872082 
L 141.282395 68.985051 
L 141.51987 67.994199 
L 141.937054 68.339731 
L 142.235917 71.504752 
L 142.713512 69.880712 
L 143.010831 69.646891 
L 143.727194 72.520926 
L 144.084081 70.079841 
L 144.203471 66.927722 
L 144.56061 65.316313 
L 144.991383 68.396071 
L 145.3405 68.058202 
L 145.513506 66.142672 
L 145.750976 66.174461 
L 145.989303 67.676691 
L 146.170325 69.785613 
L 146.526081 72.038007 
L 146.826065 71.581967 
L 146.946731 69.404069 
L 147.18318 67.717369 
L 147.557896 68.117084 
L 147.720028 71.434508 
L 147.956751 71.940135 
L 148.254756 69.072409 
L 148.434909 66.075944 
L 148.67152 64.750708 
L 148.970955 65.386649 
L 149.56939 70.757104 
L 149.692061 70.969642 
L 150.462195 64.279975 
L 150.700434 66.325209 
L 150.882422 69.168133 
L 151.120132 70.951751 
L 151.357775 71.118917 
L 151.713311 69.982408 
L 152.131469 66.446097 
L 152.370451 67.893461 
L 152.906497 72.711274 
L 153.14437 71.583623 
L 153.44687 68.998459 
L 153.621924 65.746458 
L 153.860272 63.794838 
L 154.276678 64.539059 
L 154.398788 67.886415 
L 154.639686 70.068943 
L 155.353534 64.204139 
L 155.832491 69.138481 
L 156.067618 71.83914 
L 156.365929 72.198096 
L 157.087007 65.424177 
L 157.560213 71.475452 
L 157.808202 71.56057 
L 158.034751 68.717398 
L 158.393499 68.311375 
L 158.63048 68.739935 
L 158.870077 69.784948 
L 159.28704 73.100115 
L 159.764182 69.344887 
L 160.120076 68.721942 
L 160.298725 70.610356 
L 160.53699 71.830927 
L 161.074063 66.393562 
L 161.373063 66.820704 
L 161.55205 67.809279 
L 161.790008 67.298829 
L 162.028927 67.406625 
L 162.27046 66.867765 
L 162.505209 66.780113 
L 163.338688 68.080977 
L 163.519082 67.908608 
L 163.840609 66.906995 
L 163.996722 66.882733 
L 164.236018 68.06437 
L 164.475469 68.200816 
L 164.89578 67.949758 
L 165.069618 66.974425 
L 165.538081 66.919941 
L 165.784368 67.005538 
L 166.023762 67.310144 
L 166.207375 68.665935 
L 166.472947 68.511674 
L 166.743848 66.739117 
L 166.976768 66.641756 
L 167.344888 68.295026 
L 167.45527 69.363908 
L 167.795809 66.98187 
L 167.815257 65.587673 
L 167.952087 65.364059 
L 168.173283 68.040353 
L 168.55145 69.515748 
L 168.948043 65.187667 
L 169.18601 65.453344 
L 169.424624 67.995392 
L 169.723182 69.45552 
L 169.961155 67.271439 
L 170.217202 67.636256 
L 170.559667 69.901504 
L 171.285899 66.059011 
L 171.393213 67.114171 
L 171.989757 70.042653 
L 172.166278 69.339983 
L 172.65986 68.767766 
L 172.881454 65.697315 
L 173.179617 65.634201 
L 173.597299 67.704188 
L 173.972183 71.939484 
L 174.402452 66.781258 
L 174.641626 67.226967 
L 174.874754 69.650952 
L 175.113153 70.705834 
L 175.589698 69.858727 
L 175.949357 70.382471 
L 176.305641 69.630084 
L 176.609683 67.399932 
L 177.105723 66.598503 
L 177.343524 66.963084 
L 177.645736 68.537045 
L 177.880569 69.11062 
L 178.118342 68.45254 
L 178.504163 67.780493 
L 178.59951 68.216031 
L 179.093712 71.736569 
L 179.43122 71.575715 
L 179.551524 69.051605 
L 179.848239 67.113121 
L 180.087596 67.920046 
L 180.325566 70.231989 
L 180.563712 70.322042 
L 180.820926 68.115123 
L 181.159198 67.347728 
L 181.399395 67.529003 
L 181.57679 67.387262 
L 182.29192 67.295274 
L 182.529601 67.066714 
L 182.768574 67.192481 
L 183.245868 67.75764 
L 183.483177 67.572107 
L 183.602426 65.345955 
L 183.840886 64.070035 
L 184.02086 64.873481 
L 184.506936 68.845233 
L 184.795101 67.720462 
L 185.034127 64.639445 
L 185.277323 63.474735 
L 185.584366 64.920089 
L 185.993979 72.188102 
L 186.232526 72.454844 
L 186.710166 68.781748 
L 187.543327 74.478513 
L 187.724616 73.108169 
L 188.556955 69.910408 
L 188.797234 68.418709 
L 189.092174 70.167963 
L 189.211742 72.499778 
L 189.688262 68.0363 
L 189.985774 69.672515 
L 190.169694 71.831586 
L 190.704003 67.971347 
L 190.940244 68.327864 
L 191.178168 69.886952 
L 191.420626 68.390627 
L 191.658722 65.68234 
L 192.252478 68.829684 
L 192.673459 64.808238 
L 192.966422 67.813616 
L 193.264667 68.17154 
L 193.392781 65.480053 
L 193.674906 63.762818 
L 193.925999 65.413728 
L 194.160574 68.039307 
L 194.661406 64.358207 
L 194.890264 66.898604 
L 195.239562 69.031233 
L 195.657872 66.926823 
L 195.895951 66.604813 
L 196.252846 67.323284 
L 196.372173 68.1975 
L 196.908944 68.366099 
L 197.206116 68.116587 
L 197.384839 67.642161 
L 197.623773 67.376408 
L 197.985006 67.477195 
L 198.100225 67.776413 
L 198.457221 67.701494 
L 198.697055 67.333558 
L 198.817509 65.510269 
L 199.112665 63.499506 
L 199.829534 68.296335 
L 200.089848 65.649842 
L 200.42589 65.084436 
L 200.723554 67.967716 
L 201.080769 72.125643 
L 201.560416 70.715198 
L 201.856285 70.884636 
L 202.215656 70.630258 
L 202.34336 70.283062 
L 202.572703 71.16101 
L 202.810323 71.335764 
L 203.238443 70.67223 
L 203.587817 67.701927 
L 203.827094 69.039736 
L 204.063183 71.73287 
L 204.301032 72.274855 
L 204.540874 71.972154 
L 204.777894 72.277445 
L 205.314986 70.239898 
L 205.512219 70.649462 
L 205.970813 73.188926 
L 206.031238 75.865089 
L 206.268654 76.646449 
L 206.805789 71.033414 
L 207.043339 68.392166 
L 207.282053 68.138472 
L 207.462239 70.473312 
L 207.758564 72.013877 
L 207.996772 72.287183 
L 208.23783 71.527428 
L 208.713549 67.318607 
L 209.01257 66.343001 
L 209.727167 72.340747 
L 210.026604 71.235346 
L 210.448923 64.869116 
L 210.740457 63.454495 
L 211.038025 65.095889 
L 211.693838 74.568363 
L 211.932393 75.465833 
L 212.230764 75.640047 
L 212.414473 76.369732 
L 212.903531 76.542872 
L 212.94518 76.265974 
L 213.188899 76.065796 
L 213.68185 68.378866 
L 213.96737 65.983081 
L 214.4997 64.684301 
L 214.800267 62.764775 
L 214.975671 60.426411 
L 215.152996 59.8399 
L 215.63072 60.974757 
L 215.692681 62.690522 
L 216.409036 70.390458 
L 216.644147 70.087652 
L 216.885976 68.051667 
L 217.191757 57.959791 
L 217.369551 35.313244 
L 217.685713 32.38961 
L 217.89868 13.468622 
L 218.135976 13.127526 
L 219.38853 50.959184 
L 219.626289 45.484672 
L 219.864317 55.899315 
L 220.163041 53.304711 
L 220.344852 50.375502 
L 220.821951 69.397324 
L 221.060327 80.454523 
L 221.116739 70.574543 
L 221.354893 81.077445 
L 221.594397 85.484112 
L 221.831651 84.600076 
L 222.129433 79.984777 
L 222.368452 85.976908 
L 222.610276 87.464134 
L 222.849207 91.675115 
L 223.145121 80.718836 
L 223.50416 77.314922 
L 223.636128 74.058493 
L 223.810569 64.204936 
L 224.046296 64.277744 
L 224.343439 62.763134 
L 224.582601 68.613558 
L 224.879863 79.086605 
L 225.267647 78.956796 
L 225.301219 72.670358 
L 225.774325 85.916148 
L 225.953557 86.156848 
L 226.072009 87.114246 
L 226.553484 96.446418 
L 226.845951 95.985534 
L 227.025385 102.80921 
L 227.264162 87.192741 
L 227.502067 90.177492 
L 227.801173 86.598525 
L 228.097371 92.686902 
L 228.276175 82.945461 
L 228.514977 89.043907 
L 228.75348 91.790738 
L 229.070165 84.44213 
L 229.544257 90.311768 
L 230.021717 106.424426 
L 230.795324 120.137691 
L 231.033203 116.264076 
L 231.332523 117.616718 
L 231.512402 115.882421 
L 231.928034 126.34308 
L 231.98826 118.251328 
L 232.465955 113.189402 
L 232.942811 90.697985 
L 233.186582 87.773517 
L 233.660737 79.676395 
L 233.954681 87.210088 
L 234.252051 88.989443 
L 234.431297 88.660267 
L 235.027384 108.053709 
L 235.206838 106.664132 
L 235.682396 120.281812 
L 235.981562 119.747699 
L 236.279246 124.725128 
L 236.577343 126.561877 
L 236.756315 134.0527 
L 237.05356 130.674637 
L 237.176921 121.939981 
L 237.474062 122.102309 
L 237.709175 124.866827 
L 237.891067 129.194185 
L 238.169337 121.798638 
L 238.397599 122.505526 
L 238.636284 116.846456 
L 239.141369 119.171444 
L 239.379322 122.961172 
L 239.840226 138.636198 
L 240.098316 151.04095 
L 240.392294 151.025855 
L 240.631739 164.5307 
L 240.869763 162.304642 
L 241.107026 161.179049 
L 241.345576 163.110052 
L 241.762828 163.010467 
L 242.180755 138.412384 
L 242.486189 140.216246 
L 242.658347 148.901879 
L 242.856481 147.466388 
L 243.168317 147.185651 
L 243.434494 147.998595 
L 243.55472 149.872333 
L 243.814282 148.552864 
L 244.33058 158.702052 
L 244.627738 178.736695 
L 244.808656 180.090447 
L 245.104217 187.905394 
L 245.343396 182.127303 
L 246.063258 154.829042 
L 246.29821 149.461878 
L 246.595974 137.531063 
L 246.774928 139.971773 
L 247.074762 138.489559 
L 247.370322 140.362746 
L 247.788534 149.605165 
L 248.027853 167.265751 
L 248.267448 170.653137 
L 248.503671 183.098112 
L 249.27868 210.480264 
L 249.339831 206.967869 
L 249.516736 210.299931 
L 249.755756 206.002831 
L 249.9945 198.152588 
L 250.651073 189.873501 
L 250.772096 190.364802 
L 251.068182 194.855675 
L 251.24816 187.140161 
L 251.485551 189.199964 
L 251.84259 196.60688 
L 252.082632 196.372286 
L 252.214731 200.784048 
L 253.125417 185.005178 
L 253.513527 174.305936 
L 253.810733 174.769048 
L 253.931947 167.424494 
L 254.228649 164.754915 
L 254.586829 155.440204 
L 254.960462 171.708998 
L 255.240305 202.058517 
L 255.613246 205.385013 
L 255.724063 216.382189 
L 256.19372 226.638555 
L 256.431699 225.688559 
L 256.968337 238.464118 
L 257.504401 218.200433 
L 257.742897 202.24153 
L 257.923349 205.162476 
L 258.280703 191.311119 
L 258.519461 192.672017 
L 258.937027 201.267779 
L 259.352273 219.791415 
L 259.593112 219.309147 
L 259.829448 230.908476 
L 259.889674 228.920058 
L 260.12731 234.677264 
L 260.425959 238.95941 
L 260.73192 240.286105 
L 260.962329 244.012147 
L 261.737001 211.794636 
L 261.975511 214.160697 
L 262.394273 202.384297 
L 262.871144 217.481438 
L 263.524878 228.468584 
L 263.882632 246.854369 
L 264.299466 252.289944 
L 264.3605 257.120519 
L 264.597897 259.843255 
L 264.956088 259.25661 
L 265.373312 252.075711 
L 265.612533 240.231526 
L 266.092012 226.948074 
L 266.326923 220.294893 
L 266.81283 233.770008 
L 267.101689 226.634993 
L 267.280816 228.089754 
L 267.606951 227.287345 
L 268.295763 235.639475 
L 268.483061 237.99194 
L 268.675147 244.680008 
L 268.951074 243.226414 
L 269.075351 248.839384 
L 269.429128 245.734667 
L 269.55089 248.718218 
L 269.84571 244.453764 
L 270.031289 247.031579 
L 270.449826 242.805575 
L 270.686578 244.145663 
L 270.799583 241.535869 
L 271.227969 240.002684 
L 271.416575 243.21044 
L 271.576541 234.576438 
L 272.261991 250.473483 
L 272.593247 250.232996 
L 272.831352 247.179988 
L 273.068673 239.265164 
L 273.249832 238.713762 
L 273.724459 222.986286 
L 274.022425 218.323534 
L 274.261309 222.911268 
L 274.617965 225.548438 
L 275.094642 237.978103 
L 275.231571 251.610728 
L 275.511428 250.171674 
L 275.694115 264.380897 
L 275.751157 263.42708 
L 276.171231 272.589231 
L 276.465935 271.360285 
L 276.943838 256.754932 
L 277.30182 236.481867 
L 277.599417 241.154347 
L 277.726347 245.539818 
L 278.200835 233.231104 
L 278.493901 227.89077 
L 278.672125 229.849891 
L 278.913757 221.055984 
L 279.327936 228.513617 
L 279.448279 235.969293 
L 279.686283 237.405564 
L 279.929695 243.076612 
L 280.164187 245.694148 
L 280.406913 245.162953 
L 280.644747 244.022983 
L 280.899921 237.465341 
L 281.121606 241.295166 
L 281.48009 242.119426 
L 281.538264 244.84511 
L 281.662009 245.280095 
L 281.896875 245.235386 
L 282.135022 229.165252 
L 282.373719 227.195521 
L 282.672546 220.592252 
L 282.87827 219.607424 
L 283.092569 228.011187 
L 283.448648 234.086462 
L 283.865204 232.867088 
L 283.985133 240.918129 
L 284.103379 239.321063 
L 284.520863 241.055338 
L 284.586255 230.796221 
L 285.133028 238.204879 
L 285.317336 230.411205 
L 285.77215 229.138787 
L 285.832476 218.492611 
L 286.070076 217.226792 
L 286.368448 218.278494 
L 286.606782 212.536739 
L 286.845055 210.083503 
L 287.142483 205.029154 
L 287.326559 206.581613 
L 287.561729 216.476326 
L 287.858647 221.203423 
L 288.336497 224.780972 
L 288.811161 206.445932 
L 289.0502 198.31485 
L 289.354731 199.458166 
L 289.585603 207.025896 
L 289.83192 210.954936 
L 290.063872 211.384171 
L 290.245131 210.859833 
L 290.599351 207.530095 
L 290.789814 206.810732 
L 291.076474 199.992762 
L 291.257943 201.840043 
L 291.732865 194.550026 
L 291.972965 199.009017 
L 292.270209 201.526652 
L 292.745936 182.95824 
L 293.24405 176.438188 
L 293.464715 177.41341 
L 294.237666 206.493439 
L 294.491675 204.419388 
L 295.548755 176.38302 
L 295.72806 178.667634 
L 296.44426 167.240108 
L 296.681386 165.844033 
L 296.978824 160.438381 
L 297.18253 164.079042 
L 297.463618 164.813352 
L 297.756611 166.768783 
L 298.233173 173.496943 
L 298.59037 168.403482 
L 298.889732 170.670388 
L 298.94823 169.939849 
L 299.186102 170.372319 
L 299.66656 168.587976 
L 300.022783 168.80232 
L 300.199527 180.36048 
L 300.439009 161.696424 
L 301.537546 132.767004 
L 301.705471 122.88262 
L 301.936626 129.488476 
L 302.175397 121.922223 
L 302.476748 123.163046 
L 302.951049 129.67307 
L 303.092979 134.321872 
L 303.567811 141.078541 
L 303.639314 149.640482 
L 303.92671 146.637976 
L 304.164771 151.395778 
L 304.345503 145.284088 
L 305.249083 137.597748 
L 305.419027 140.39898 
L 306.139247 121.261058 
L 306.370477 116.991366 
L 306.727724 113.235268 
L 306.850138 146.481517 
L 307.205773 164.57568 
L 307.442992 160.84206 
L 307.621794 153.084297 
L 307.873278 147.497821 
L 308.21765 130.872179 
L 308.339314 104.431201 
L 308.576388 89.499589 
L 308.875217 58.803301 
L 309.231579 41.487026 
L 309.320091 26.010327 
L 309.654483 6.050769 
L 309.97169 16.653665 
L 310.633065 85.580754 
L 310.747527 136.674492 
L 311.400781 219.829295 
L 311.698045 244.018728 
L 311.817602 244.685309 
L 311.996689 235.339725 
L 312.356427 209.115163 
L 313.252365 66.318063 
L 313.78576 30.610597 
L 313.965634 31.584817 
L 314.262231 43.952639 
L 315.221798 153.441628 
L 315.755115 172.792508 
L 315.994706 167.29829 
L 316.477979 124.135907 
L 317.186041 48.853983 
L 317.721248 29.19241 
L 318.14169 31.138787 
L 318.439657 65.686279 
L 319.688982 183.025688 
L 319.932083 186.306171 
L 320.168258 178.646919 
L 320.879805 138.575893 
L 320.939453 112.803194 
L 321.416486 66.543678 
L 321.657726 51.56809 
L 321.894005 43.913071 
L 322.132975 40.552481 
L 322.809316 64.976308 
L 322.912833 86.213678 
L 323.382974 123.359274 
L 323.919764 144.94321 
L 324.218448 143.900292 
L 324.949923 111.17659 
L 325.435758 81.279473 
L 325.656319 73.264328 
L 325.886163 69.887088 
L 326.125419 72.397148 
L 326.905221 109.728317 
L 327.378917 136.899617 
L 327.618004 146.060934 
L 327.863545 150.847462 
L 328.218592 146.140928 
L 328.868968 109.556829 
L 329.347164 83.390193 
L 329.822352 70.048713 
L 330.060978 71.232993 
L 330.300953 77.903295 
L 330.538426 90.466056 
L 330.955085 104.225361 
L 331.074928 117.713382 
L 331.554316 138.478879 
L 331.798858 141.391153 
L 332.18227 142.588634 
L 332.295591 135.598373 
L 332.581733 130.047525 
L 332.628794 125.177277 
L 332.92853 116.792663 
L 333.047548 107.460526 
L 333.582644 95.517971 
L 333.76078 95.52884 
L 334.059047 96.892057 
L 334.535941 107.164003 
L 335.252504 129.198456 
L 335.554682 133.834022 
L 335.729332 132.468878 
L 336.027717 124.938236 
L 336.503215 102.813778 
L 336.861694 93.434461 
L 337.001831 83.030955 
L 337.457125 70.526255 
L 337.8742 69.648921 
L 338.291662 80.435514 
L 339.018781 117.074349 
L 339.430905 134.95818 
L 339.722419 140.587501 
L 340.024042 142.627758 
L 340.260765 140.573692 
L 340.438197 137.88414 
L 341.689226 93.181982 
L 342.108412 94.012878 
L 342.168521 97.276474 
L 342.467656 100.756869 
L 343.240908 118.05784 
L 343.90286 144.427891 
L 344.194534 139.954375 
L 344.492704 132.648727 
L 344.671035 121.158136 
L 344.910015 114.957233 
L 345.147753 101.441995 
L 345.50505 100.151301 
L 345.685682 95.145497 
L 346.280825 92.781822 
L 346.400699 95.035061 
L 347.293581 127.500648 
L 347.414796 137.223674 
L 347.90535 141.896547 
L 348.12766 138.929649 
L 349.200866 102.883319 
L 349.328861 98.468419 
L 349.630876 92.453715 
L 349.867889 90.614603 
L 350.333064 94.504387 
L 350.75242 102.492219 
L 351.051582 120.604642 
L 351.405524 131.224842 
L 351.704821 135.426251 
L 351.837621 132.31703 
L 352.257007 127.059118 
L 352.364255 122.984102 
L 353.377361 105.571654 
L 353.556137 104.265576 
L 353.860873 103.558175 
L 354.392014 105.050672 
L 354.513693 109.864244 
L 354.766606 112.842486 
L 355.299174 120.896852 
L 355.524582 123.970395 
L 355.823137 125.003706 
L 356.300154 113.115588 
L 356.587689 112.701077 
L 356.84103 112.140526 
L 357.060947 115.333234 
L 357.553871 108.448927 
L 357.935759 105.023968 
L 358.268044 109.614904 
L 358.983198 120.876723 
L 359.281135 118.913801 
L 359.579082 122.851294 
L 359.758066 127.256223 
L 360.067986 131.412053 
L 360.950784 110.480811 
L 361.250702 109.285675 
L 361.485653 110.303463 
L 361.802473 109.418956 
L 361.965514 107.88946 
L 362.56378 116.80303 
L 362.751305 124.81012 
L 362.98234 128.773151 
L 363.166856 128.507943 
L 363.877807 124.255882 
L 363.998223 124.954167 
L 364.353713 122.170347 
L 364.415589 119.231323 
L 365.192598 110.925446 
L 365.426635 110.123329 
L 365.665324 111.217052 
L 365.963078 111.822211 
L 366.210437 111.28684 
L 366.499074 113.504229 
L 367.034543 118.732253 
L 367.156433 117.13013 
L 367.57195 116.476067 
L 367.630692 111.219518 
L 368.28706 119.131435 
L 368.34994 122.334874 
L 368.718009 123.31066 
L 369.124034 112.441691 
L 369.478926 107.974577 
L 369.658682 108.006613 
L 369.962816 110.627961 
L 370.138563 111.050422 
L 370.373408 113.549392 
L 370.791639 113.117126 
L 370.912759 112.718918 
L 371.328585 122.513534 
L 371.60839 122.768786 
L 372.640846 115.247292 
L 372.820287 111.229418 
L 373.41626 108.828332 
L 373.952976 113.418606 
L 374.07202 119.216643 
L 374.31127 124.699295 
L 374.609038 125.084061 
L 374.846922 122.190989 
L 375.204302 120.35238 
L 375.807796 120.855695 
L 376.575768 106.843983 
L 376.754142 105.879248 
L 377.052278 109.922202 
L 377.528772 121.617575 
L 377.767672 121.973797 
L 378.245978 118.125067 
L 378.662013 118.136448 
L 378.779468 121.168303 
L 379.079562 121.44895 
L 379.375279 121.374464 
L 379.792441 114.896912 
L 380.209981 110.641083 
L 380.509453 117.111296 
L 380.925624 120.795328 
L 381.045858 124.016242 
L 381.521235 116.44222 
L 381.75906 114.775392 
L 381.998072 117.630813 
L 382.47424 120.979352 
L 382.716196 119.824576 
L 383.310569 115.371999 
L 383.48901 114.676851 
L 383.846639 115.737176 
L 383.964934 120.368897 
L 384.204218 124.474434 
L 384.503733 124.643354 
L 385.215894 127.643899 
L 385.594332 127.508101 
L 385.698914 126.835954 
L 385.931863 123.155725 
L 386.171585 122.847861 
L 386.412635 120.771172 
L 386.469912 118.738197 
L 386.651787 116.33301 
L 387.065347 116.192931 
L 387.423292 112.097599 
L 387.661107 110.980501 
L 387.899473 111.060116 
L 388.144691 110.677883 
L 388.794039 115.449619 
L 388.913053 118.475304 
L 389.211548 120.799318 
L 389.688257 125.085897 
L 389.926507 123.755841 
L 390.346918 118.770237 
L 390.88036 114.907202 
L 391.118324 114.506459 
L 391.476629 111.347692 
L 391.893379 103.844899 
L 392.131469 102.814347 
L 392.370282 102.404381 
L 392.669684 104.217863 
L 393.02718 108.330384 
L 393.266841 112.694448 
L 393.504623 114.244506 
L 393.623643 119.27031 
L 393.862223 120.366072 
L 394.637806 121.568089 
L 394.878295 120.381971 
L 395.114141 120.011661 
L 395.413015 120.497449 
L 395.592605 119.561583 
L 395.891188 119.279296 
L 396.068844 124.001848 
L 396.799916 128.241579 
L 396.843832 128.212397 
L 397.035122 124.838627 
L 397.560051 121.060897 
L 397.826401 118.349266 
L 398.040006 117.556275 
L 398.278812 118.33193 
L 398.585387 114.118017 
L 398.813169 113.18667 
L 399.022604 110.856353 
L 399.29018 110.231904 
L 399.531917 109.975375 
L 399.770136 113.042183 
L 400.064061 114.585168 
L 400.304813 117.178892 
L 400.600723 117.600923 
L 400.781613 115.182525 
L 401.018391 116.675276 
L 401.498301 125.558534 
L 401.855322 129.37372 
L 402.035863 129.294344 
L 402.274007 132.802664 
L 402.555498 133.607013 
L 403.108135 132.786504 
L 403.227222 125.673262 
L 403.466513 120.128594 
L 403.763847 117.061946 
L 404.243515 109.051118 
L 404.481874 108.817265 
L 404.780652 108.717411 
L 404.957902 109.650956 
L 405.257143 109.55274 
L 405.494709 109.616212 
L 405.733715 114.757001 
L 406.150189 116.146228 
L 406.22296 118.934666 
L 406.50908 118.822647 
L 406.699843 117.588647 
L 407.094257 120.06262 
L 407.222319 118.982241 
L 408.110181 122.391258 
L 408.171083 125.267059 
L 408.467786 126.926735 
L 409.197164 134.12773 
L 409.60073 130.918895 
L 409.660698 128.516869 
L 409.959081 126.394872 
L 410.442648 118.352787 
L 410.914207 109.172501 
L 411.346681 106.255978 
L 411.394451 104.965881 
L 411.691964 104.08856 
L 412.109225 104.738069 
L 412.168443 105.766074 
L 412.407931 105.834547 
L 412.764168 108.385201 
L 413.125083 115.361392 
L 413.600064 120.559474 
L 414.139017 124.52769 
L 414.375515 122.43111 
L 414.612557 121.834161 
L 414.851628 119.070088 
L 415.330749 115.773289 
L 415.863312 115.442496 
L 415.871824 126.741142 
L 416.106461 113.236883 
L 416.462714 111.893102 
L 416.642489 110.684161 
L 417.478478 117.081785 
L 417.598079 120.460465 
L 418.07455 119.468925 
L 418.313208 119.703478 
L 418.792555 123.415 
L 419.212173 121.307424 
L 419.266786 121.990888 
L 420.04404 111.484114 
L 420.28297 111.305805 
L 420.702599 111.753629 
L 420.827577 113.109227 
L 421.082899 110.48851 
L 421.296666 109.834021 
L 421.83448 112.437866 
L 422.256645 120.811461 
L 422.4934 123.65755 
L 422.788822 123.633235 
L 423.03348 122.151609 
L 423.265582 119.622055 
L 423.981822 123.064409 
L 424.412126 123.748737 
L 424.759483 128.369077 
L 424.995152 112.069305 
L 425.235023 131.031589 
L 425.480997 132.883687 
L 425.733157 131.297462 
L 425.965544 135.254597 
L 426.199397 136.148801 
L 426.458737 138.009914 
L 427.101052 140.646458 
L 427.231531 140.382228 
L 427.51593 141.313778 
L 427.759176 143.550096 
L 428.052108 144.093057 
L 428.172449 145.605673 
L 428.413673 138.671825 
L 428.836364 131.377246 
L 428.955581 123.507993 
L 429.430516 111.546325 
L 429.801082 104.925347 
L 429.961842 96.464625 
L 430.264799 87.556765 
L 430.499653 85.961057 
L 431.038223 98.277208 
L 431.277655 112.025904 
L 432.731349 142.082378 
L 432.896991 141.696096 
L 433.246954 131.234945 
L 433.665146 103.516838 
L 434.142742 92.337543 
L 434.381269 93.684245 
L 434.997949 101.278 
L 435.098089 106.847905 
L 435.455055 113.935422 
L 435.899155 133.218318 
L 436.113881 140.990521 
L 436.757143 142.91939 
L 437.174898 134.105874 
L 437.831465 97.509004 
L 438.430107 90.495171 
L 438.667106 93.299176 
L 438.84864 100.388572 
L 439.32935 111.677259 
L 440.09899 138.002792 
L 440.341029 142.292958 
L 440.57698 141.229117 
L 441.0549 129.689042 
L 442.074838 112.152953 
L 442.262767 111.67289 
L 442.55229 112.951835 
L 442.790225 115.807968 
L 443.029689 122.376387 
L 443.53362 125.316679 
L 443.80455 121.743668 
L 444.399442 110.230001 
L 445.063402 84.982232 
L 445.476694 74.04319 
L 445.714857 73.552434 
L 446.502345 86.612118 
L 446.735599 95.031958 
L 447.107182 102.350885 
L 447.446819 117.870968 
L 447.982701 127.791191 
L 448.403106 128.881658 
L 448.709369 126.89899 
L 448.938227 126.071428 
L 449.177353 121.53846 
L 449.598835 117.293053 
L 450.024519 107.916801 
L 450.204405 105.24068 
L 450.621534 103.75424 
L 450.682193 104.114663 
L 451.100145 107.780895 
L 451.338457 111.196591 
L 451.399986 115.094033 
L 451.933234 123.524672 
L 452.410237 133.769621 
L 452.82738 137.367762 
L 452.946775 137.196155 
L 453.185812 134.986578 
L 454.143047 115.584364 
L 454.438849 114.803473 
L 454.938383 118.895701 
L 455.397176 127.845291 
L 455.635167 128.333122 
L 455.877511 130.005669 
L 456.591861 124.819335 
L 457.486093 106.649413 
L 457.847524 94.669182 
L 458.105785 92.925821 
L 458.560843 94.137719 
L 459.646853 121.867712 
L 460.121119 138.95366 
L 460.300685 143.916375 
L 460.598908 148.247907 
L 460.836734 148.203157 
L 461.234538 148.775826 
L 461.381927 146.137355 
L 461.558545 146.629949 
L 461.949202 145.671789 
L 462.091757 144.861106 
L 462.398666 147.218751 
L 462.568687 146.174983 
L 462.816983 146.131197 
L 463.179961 147.702705 
L 463.765835 153.550796 
L 464.072889 150.693995 
L 464.544218 135.785391 
L 465.027317 115.870525 
L 465.79922 98.022479 
L 466.273686 93.681771 
L 466.691576 94.86032 
L 467.037735 101.609557 
L 467.272469 106.246751 
L 467.505697 113.485894 
L 467.807763 119.18922 
L 467.992368 126.720552 
L 468.282927 131.08904 
L 468.587327 133.014825 
L 468.763154 136.002424 
L 468.953042 136.443653 
L 469.239085 137.948557 
L 469.716829 142.605998 
L 469.954561 142.925068 
L 470.193432 142.367417 
L 470.432962 144.346296 
L 470.849958 146.627132 
L 471.506328 153.89791 
L 471.744903 153.662683 
L 471.983362 150.01415 
L 472.281026 147.408667 
L 472.672721 131.132519 
L 473.896837 95.061407 
L 474.434755 96.016645 
L 474.670358 98.887467 
L 475.231962 110.455989 
L 475.939083 128.193612 
L 476.433657 138.52516 
L 476.724539 139.094222 
L 476.846124 140.619108 
L 477.138377 141.499739 
L 477.436678 140.890152 
L 478.398605 147.68543 
L 478.646403 147.310148 
L 478.868384 150.3074 
L 479.40632 153.490043 
L 479.644856 156.190344 
L 480.120828 155.38084 
L 480.359199 155.610569 
L 480.844014 147.94377 
L 482.092838 114.759707 
L 482.389213 112.786849 
L 482.569102 109.121228 
L 482.925677 106.281475 
L 483.177819 106.420367 
L 483.344272 106.351277 
L 483.880396 108.468306 
L 484.118891 108.124294 
L 484.537252 106.772463 
L 485.132073 102.093052 
L 485.378852 101.602189 
L 485.550787 100.516856 
L 485.791706 100.09831 
L 486.343305 103.361191 
L 486.760428 112.455724 
L 487.238515 117.583943 
L 487.29849 125.787859 
L 487.59631 130.526131 
L 488.018138 141.477035 
L 489.029062 158.52642 
L 489.504111 161.397376 
L 489.806894 161.625352 
L 490.044836 158.306144 
L 490.281663 157.395983 
L 490.759547 150.892534 
L 491.584791 132.376213 
L 492.498084 100.439749 
L 492.974913 89.933617 
L 493.213871 90.545078 
L 493.750988 103.166793 
L 494.287781 121.64528 
L 494.767831 133.286211 
L 495.063455 135.716257 
L 495.241894 135.206789 
L 495.722548 134.479085 
L 495.958619 118.54707 
L 497.152993 66.456147 
L 497.867388 51.923352 
L 498.287595 49.748683 
L 498.345069 51.072723 
L 498.706986 55.489913 
L 499.185459 72.379352 
L 499.903543 109.420178 
L 500.384257 130.507223 
L 501.112834 155.616121 
L 501.643394 162.376299 
L 501.827858 160.454431 
L 502.122693 160.284769 
L 502.424592 154.888733 
L 502.65736 155.412465 
L 502.912868 154.986245 
L 503.136012 150.815102 
L 503.559477 150.750709 
L 503.61223 152.307542 
L 503.85067 152.928536 
L 504.268746 150.182278 
L 504.569776 141.81465 
L 504.904156 137.544896 
L 506.540169 75.748642 
L 506.852163 74.453922 
L 507.256581 71.667078 
L 507.31785 73.041327 
L 508.03587 77.647575 
L 508.209039 80.261039 
L 508.528018 77.730133 
L 509.327672 59.162836 
L 509.555939 57.137959 
L 509.79508 56.254745 
L 510.400013 65.36243 
L 510.797028 79.092105 
L 511.15401 86.106897 
L 511.810668 128.649354 
L 512.117989 140.459025 
L 512.290623 151.509916 
L 512.767601 156.920885 
L 513.025949 156.979562 
L 513.362767 155.505028 
L 513.49754 153.614134 
L 514.077099 141.138292 
L 514.259399 127.024243 
L 514.496964 118.794257 
L 514.752703 119.025779 
L 515.03257 120.103947 
L 515.754742 130.188146 
L 516.001238 131.337195 
L 516.28825 129.722289 
L 516.465432 124.012974 
L 516.904123 113.799647 
L 517.135326 105.466837 
L 517.481211 100.952833 
L 517.768534 108.212918 
L 518.018279 122.999684 
L 518.494558 138.761799 
L 518.5543 151.266731 
L 518.913059 162.44567 
L 519.040927 173.245866 
L 519.451688 189.715532 
L 519.953515 190.741533 
L 520.951602 121.498162 
L 521.422505 121.26177 
L 521.548585 127.744019 
L 521.91975 137.935608 
L 522.56745 161.576579 
L 522.804201 164.755659 
L 523.170917 157.667964 
L 523.528141 144.027059 
L 523.885174 103.596804 
L 524.301954 80.92552 
L 524.543153 58.218077 
L 525.258621 23.155199 
L 525.52018 31.607796 
L 525.913162 65.673102 
L 526.345792 117.313541 
L 526.87331 170.687518 
L 527.107649 193.225871 
L 527.36184 205.109224 
L 527.583954 205.510777 
L 527.882528 198.927785 
L 528.666061 169.739184 
L 529.142079 155.005411 
L 529.616804 149.448267 
L 529.853886 148.83705 
L 530.163816 150.35715 
L 530.575888 160.12145 
L 530.879318 162.875925 
L 531.20933 160.764962 
L 531.560797 148.175654 
L 532.361335 132.761841 
L 532.542685 132.233143 
L 533.077101 131.639387 
L 533.318201 133.301326 
L 533.554455 137.456855 
L 534.274035 159.511263 
L 535.121277 182.704214 
L 535.545015 186.903007 
L 535.774911 183.8815 
L 536.250806 166.239523 
L 537.504582 112.234053 
L 538.056945 103.816677 
L 538.337128 103.436734 
L 538.634965 106.035848 
L 538.814699 108.625627 
L 539.250751 113.094444 
L 539.353845 112.488403 
L 539.650513 109.029683 
L 539.828521 105.56886 
L 539.948755 100.7764 
L 540.199756 100.513668 
L 540.424821 103.066264 
L 540.724427 109.21545 
L 541.200217 127.088519 
L 542.691117 207.408611 
L 543.188837 214.904123 
L 543.406721 212.556718 
L 543.824918 205.321243 
L 544.133907 181.989954 
L 544.539128 171.544052 
L 544.902401 158.975092 
L 545.374527 156.317653 
L 545.672823 155.338912 
L 546.032965 153.372462 
L 546.153951 154.606068 
L 546.448436 154.065457 
L 546.869418 151.681396 
L 547.169332 146.215612 
L 548.621658 75.674033 
L 548.919091 69.173418 
L 549.575035 58.887805 
L 549.87422 57.04151 
L 550.11367 56.969703 
L 550.4772 58.113984 
L 551.096578 67.187299 
L 551.380954 89.358098 
L 552.07549 119.994281 
L 552.848468 149.162879 
L 553.327123 160.498901 
L 553.56288 160.309584 
L 554.106053 157.412625 
L 554.824221 144.016771 
L 555.313085 124.106758 
L 555.561737 121.817551 
L 555.791207 123.420085 
L 556.088432 126.402705 
L 556.805571 139.89063 
L 557.179392 148.304548 
L 557.300832 157.425248 
L 557.824513 164.586914 
L 558.736738 123.250981 
L 559.253665 111.379226 
L 559.791632 104.959895 
L 560.05369 107.129828 
L 560.445187 113.168986 
L 560.508561 121.775746 
L 561.239814 150.189289 
L 561.704508 159.367235 
L 562.00136 156.823875 
L 562.303909 151.885834 
L 562.542548 144.749272 
L 562.954697 136.704425 
L 563.133461 137.299466 
L 563.194114 138.097738 
L 563.467597 137.9536 
L 563.817686 129.537658 
L 563.934282 116.385479 
L 564.477872 98.914912 
L 564.727769 97.57186 
L 564.949624 99.830003 
L 565.189427 106.50777 
L 565.492097 110.200716 
L 565.667759 109.384592 
L 565.965143 104.819776 
L 566.155913 107.763289 
L 566.980547 139.226974 
L 567.342669 135.770033 
L 567.69626 118.751434 
L 567.93841 114.29011 
L 568.292976 115.506655 
L 568.427355 122.279816 
L 568.608239 124.694214 
L 569.146754 114.484821 
L 569.444183 121.667753 
L 569.620489 136.597856 
L 569.91819 151.750998 
L 570.277418 154.097653 
L 570.814208 133.980025 
L 571.051648 126.137489 
L 571.171613 127.330345 
L 571.588532 137.645825 
L 571.946887 131.703284 
L 572.366467 112.461282 
L 572.689107 118.513049 
L 572.872413 130.303158 
L 573.109195 135.055921 
L 573.876385 125.037957 
L 574.070009 125.695386 
L 574.30943 129.860074 
L 574.592297 131.98146 
L 575.30771 122.584273 
L 575.668718 127.465696 
L 575.804732 130.822616 
L 576.624525 119.015015 
L 576.919515 118.504995 
L 577.097999 125.807888 
L 577.157281 132.843127 
L 577.57543 138.235948 
L 577.757175 142.083318 
L 578.350111 133.252452 
L 578.528892 138.211865 
L 578.708895 152.345005 
L 579.036586 158.876383 
L 579.27292 156.34384 
L 580.077802 106.815808 
L 580.256588 105.418398 
L 580.796406 114.520666 
L 581.273096 113.344011 
L 581.513255 112.400467 
L 581.756841 116.071682 
L 581.988926 123.147031 
L 582.526245 145.348243 
L 583.249581 126.331279 
L 583.487398 125.107103 
L 583.838708 125.871836 
L 584.201953 125.048205 
L 584.495537 127.950417 
L 584.735588 128.639763 
L 584.973711 125.593016 
L 585.282242 125.212485 
L 585.817209 134.65757 
L 585.99516 128.597053 
L 586.236852 127.289144 
L 586.59246 134.296609 
L 586.890024 133.088123 
L 587.250206 123.206024 
L 587.675567 127.750356 
L 587.903073 131.113613 
L 588.500645 125.10442 
L 588.679453 122.044312 
L 588.931618 123.068284 
L 589.414021 131.122796 
L 589.90017 135.695954 
L 590.140313 133.633512 
L 590.140313 133.633512 
" clip-path="url(#p965172a7bb)" style="fill: none; stroke: #ff0000; stroke-opacity: 0.5; stroke-width: 1.5; stroke-linecap: square"/>
   </g>
   <g id="patch_3">
    <path d="M 32.140313 277.92 
L 32.140313 0.72 
" style="fill: none; stroke: #000000; stroke-width: 0.8; stroke-linejoin: miter; stroke-linecap: square"/>
   </g>
   <g id="patch_4">
    <path d="M 590.140313 277.92 
L 590.140313 0.72 
" style="fill: none; stroke: #000000; stroke-width: 0.8; stroke-linejoin: miter; stroke-linecap: square"/>
   </g>
   <g id="patch_5">
    <path d="M 32.140313 277.92 
L 590.140313 277.92 
" style="fill: none; stroke: #000000; stroke-width: 0.8; stroke-linejoin: miter; stroke-linecap: square"/>
   </g>
   <g id="patch_6">
    <path d="M 32.140313 0.72 
L 590.140313 0.72 
" style="fill: none; stroke: #000000; stroke-width: 0.8; stroke-linejoin: miter; stroke-linecap: square"/>
   </g>
   <g id="legend_1">
    <g id="patch_7">
     <path d="M 39.140313 38.07625 
L 112.909063 38.07625 
Q 114.909063 38.07625 114.909063 36.07625 
L 114.909063 7.72 
Q 114.909063 5.72 112.909063 5.72 
L 39.140313 5.72 
Q 37.140313 5.72 37.140313 7.72 
L 37.140313 36.07625 
Q 37.140313 38.07625 39.140313 38.07625 
z
" style="fill: #ffffff; opacity: 0.8; stroke: #cccccc; stroke-linejoin: miter"/>
    </g>
    <g id="line2d_33">
     <path d="M 41.140313 13.818438 
L 51.140313 13.818438 
L 61.140313 13.818438 
" style="fill: none; stroke: #0000ff; stroke-opacity: 0.5; stroke-width: 1.5; stroke-linecap: square"/>
    </g>
    <g id="text_18">
     <!-- RNEA -->
     <g transform="translate(69.140313 17.318438) scale(0.1 -0.1)">
      <defs>
       <path id="DejaVuSans-52" d="M 2841 2188 
Q 3044 2119 3236 1894 
Q 3428 1669 3622 1275 
L 4263 0 
L 3584 0 
L 2988 1197 
Q 2756 1666 2539 1819 
Q 2322 1972 1947 1972 
L 1259 1972 
L 1259 0 
L 628 0 
L 628 4666 
L 2053 4666 
Q 2853 4666 3247 4331 
Q 3641 3997 3641 3322 
Q 3641 2881 3436 2590 
Q 3231 2300 2841 2188 
z
M 1259 4147 
L 1259 2491 
L 2053 2491 
Q 2509 2491 2742 2702 
Q 2975 2913 2975 3322 
Q 2975 3731 2742 3939 
Q 2509 4147 2053 4147 
L 1259 4147 
z
" transform="scale(0.015625)"/>
       <path id="DejaVuSans-45" d="M 628 4666 
L 3578 4666 
L 3578 4134 
L 1259 4134 
L 1259 2753 
L 3481 2753 
L 3481 2222 
L 1259 2222 
L 1259 531 
L 3634 531 
L 3634 0 
L 628 0 
L 628 4666 
z
" transform="scale(0.015625)"/>
       <path id="DejaVuSans-41" d="M 2188 4044 
L 1331 1722 
L 3047 1722 
L 2188 4044 
z
M 1831 4666 
L 2547 4666 
L 4325 0 
L 3669 0 
L 3244 1197 
L 1141 1197 
L 716 0 
L 50 0 
L 1831 4666 
z
" transform="scale(0.015625)"/>
      </defs>
      <use xlink:href="#DejaVuSans-52"/>
      <use xlink:href="#DejaVuSans-4e" x="69.482422"/>
      <use xlink:href="#DejaVuSans-45" x="144.287109"/>
      <use xlink:href="#DejaVuSans-41" x="207.470703"/>
     </g>
    </g>
    <g id="line2d_34">
     <path d="M 41.140313 28.496563 
L 51.140313 28.496563 
L 61.140313 28.496563 
" style="fill: none; stroke: #ff0000; stroke-opacity: 0.5; stroke-width: 1.5; stroke-linecap: square"/>
    </g>
    <g id="text_19">
     <!-- BURNEA -->
     <g transform="translate(69.140313 31.996563) scale(0.1 -0.1)">
      <defs>
       <path id="DejaVuSans-42" d="M 1259 2228 
L 1259 519 
L 2272 519 
Q 2781 519 3026 730 
Q 3272 941 3272 1375 
Q 3272 1813 3026 2020 
Q 2781 2228 2272 2228 
L 1259 2228 
z
M 1259 4147 
L 1259 2741 
L 2194 2741 
Q 2656 2741 2882 2914 
Q 3109 3088 3109 3444 
Q 3109 3797 2882 3972 
Q 2656 4147 2194 4147 
L 1259 4147 
z
M 628 4666 
L 2241 4666 
Q 2963 4666 3353 4366 
Q 3744 4066 3744 3513 
Q 3744 3084 3544 2831 
Q 3344 2578 2956 2516 
Q 3422 2416 3680 2098 
Q 3938 1781 3938 1306 
Q 3938 681 3513 340 
Q 3088 0 2303 0 
L 628 0 
L 628 4666 
z
" transform="scale(0.015625)"/>
       <path id="DejaVuSans-55" d="M 556 4666 
L 1191 4666 
L 1191 1831 
Q 1191 1081 1462 751 
Q 1734 422 2344 422 
Q 2950 422 3222 751 
Q 3494 1081 3494 1831 
L 3494 4666 
L 4128 4666 
L 4128 1753 
Q 4128 841 3676 375 
Q 3225 -91 2344 -91 
Q 1459 -91 1007 375 
Q 556 841 556 1753 
L 556 4666 
z
" transform="scale(0.015625)"/>
      </defs>
      <use xlink:href="#DejaVuSans-42"/>
      <use xlink:href="#DejaVuSans-55" x="68.603516"/>
      <use xlink:href="#DejaVuSans-52" x="141.796875"/>
      <use xlink:href="#DejaVuSans-4e" x="211.279297"/>
      <use xlink:href="#DejaVuSans-45" x="286.083984"/>
      <use xlink:href="#DejaVuSans-41" x="349.267578"/>
     </g>
    </g>
   </g>
  </g>
 </g>
 <defs>
  <clipPath id="p965172a7bb">
   <rect x="32.140313" y="0.72" width="558" height="277.2"/>
  </clipPath>
 </defs>
</svg>
