<?xml version="1.0" encoding="utf-8" standalone="no"?>
<!DOCTYPE svg PUBLIC "-//W3C//DTD SVG 1.1//EN"
  "http://www.w3.org/Graphics/SVG/1.1/DTD/svg11.dtd">
<svg xmlns:xlink="http://www.w3.org/1999/xlink" width="597.222813pt" height="304.99625pt" viewBox="0 0 597.222813 304.99625" xmlns="http://www.w3.org/2000/svg" version="1.1">
 <metadata>
  <rdf:RDF xmlns:dc="http://purl.org/dc/elements/1.1/" xmlns:cc="http://creativecommons.org/ns#" xmlns:rdf="http://www.w3.org/1999/02/22-rdf-syntax-ns#">
   <cc:Work>
    <dc:type rdf:resource="http://purl.org/dc/dcmitype/StillImage"/>
    <dc:date>2023-09-07T03:30:36.463367</dc:date>
    <dc:format>image/svg+xml</dc:format>
    <dc:creator>
     <cc:Agent>
      <dc:title>Matplotlib v3.7.2, https://matplotlib.org/</dc:title>
     </cc:Agent>
    </dc:creator>
   </cc:Work>
  </rdf:RDF>
 </metadata>
 <defs>
  <style type="text/css">*{stroke-linejoin: round; stroke-linecap: butt}</style>
 </defs>
 <g id="figure_1">
  <g id="patch_1">
   <path d="M -0 304.99625 
L 597.222813 304.99625 
L 597.222813 0 
L -0 0 
L -0 304.99625 
z
" style="fill: none"/>
  </g>
  <g id="axes_1">
   <g id="patch_2">
    <path d="M 38.502813 277.92 
L 596.502813 277.92 
L 596.502813 0.72 
L 38.502813 0.72 
L 38.502813 277.92 
z
" style="fill: none"/>
   </g>
   <g id="matplotlib.axis_1">
    <g id="xtick_1">
     <g id="line2d_1">
      <path d="M 38.502813 277.92 
L 38.502813 0.72 
" clip-path="url(#p716889715e)" style="fill: none; stroke-dasharray: 0.8,1.32; stroke-dashoffset: 0; stroke: #000000; stroke-opacity: 0.5; stroke-width: 0.8"/>
     </g>
     <g id="line2d_2">
      <defs>
       <path id="m3538ec8bc9" d="M 0 0 
L 0 3.5 
" style="stroke: #000000; stroke-width: 0.8"/>
      </defs>
      <g>
       <use xlink:href="#m3538ec8bc9" x="38.502813" y="277.92" style="stroke: #000000; stroke-width: 0.8"/>
      </g>
     </g>
     <g id="text_1">
      <!-- 0.0 -->
      <g transform="translate(30.55125 292.518438) scale(0.1 -0.1)">
       <defs>
        <path id="DejaVuSans-30" d="M 2034 4250 
Q 1547 4250 1301 3770 
Q 1056 3291 1056 2328 
Q 1056 1369 1301 889 
Q 1547 409 2034 409 
Q 2525 409 2770 889 
Q 3016 1369 3016 2328 
Q 3016 3291 2770 3770 
Q 2525 4250 2034 4250 
z
M 2034 4750 
Q 2819 4750 3233 4129 
Q 3647 3509 3647 2328 
Q 3647 1150 3233 529 
Q 2819 -91 2034 -91 
Q 1250 -91 836 529 
Q 422 1150 422 2328 
Q 422 3509 836 4129 
Q 1250 4750 2034 4750 
z
" transform="scale(0.015625)"/>
        <path id="DejaVuSans-2e" d="M 684 794 
L 1344 794 
L 1344 0 
L 684 0 
L 684 794 
z
" transform="scale(0.015625)"/>
       </defs>
       <use xlink:href="#DejaVuSans-30"/>
       <use xlink:href="#DejaVuSans-2e" x="63.623047"/>
       <use xlink:href="#DejaVuSans-30" x="95.410156"/>
      </g>
     </g>
    </g>
    <g id="xtick_2">
     <g id="line2d_3">
      <path d="M 112.654137 277.92 
L 112.654137 0.72 
" clip-path="url(#p716889715e)" style="fill: none; stroke-dasharray: 0.8,1.32; stroke-dashoffset: 0; stroke: #000000; stroke-opacity: 0.5; stroke-width: 0.8"/>
     </g>
     <g id="line2d_4">
      <g>
       <use xlink:href="#m3538ec8bc9" x="112.654137" y="277.92" style="stroke: #000000; stroke-width: 0.8"/>
      </g>
     </g>
     <g id="text_2">
      <!-- 2.5 -->
      <g transform="translate(104.702575 292.518438) scale(0.1 -0.1)">
       <defs>
        <path id="DejaVuSans-32" d="M 1228 531 
L 3431 531 
L 3431 0 
L 469 0 
L 469 531 
Q 828 903 1448 1529 
Q 2069 2156 2228 2338 
Q 2531 2678 2651 2914 
Q 2772 3150 2772 3378 
Q 2772 3750 2511 3984 
Q 2250 4219 1831 4219 
Q 1534 4219 1204 4116 
Q 875 4013 500 3803 
L 500 4441 
Q 881 4594 1212 4672 
Q 1544 4750 1819 4750 
Q 2544 4750 2975 4387 
Q 3406 4025 3406 3419 
Q 3406 3131 3298 2873 
Q 3191 2616 2906 2266 
Q 2828 2175 2409 1742 
Q 1991 1309 1228 531 
z
" transform="scale(0.015625)"/>
        <path id="DejaVuSans-35" d="M 691 4666 
L 3169 4666 
L 3169 4134 
L 1269 4134 
L 1269 2991 
Q 1406 3038 1543 3061 
Q 1681 3084 1819 3084 
Q 2600 3084 3056 2656 
Q 3513 2228 3513 1497 
Q 3513 744 3044 326 
Q 2575 -91 1722 -91 
Q 1428 -91 1123 -41 
Q 819 9 494 109 
L 494 744 
Q 775 591 1075 516 
Q 1375 441 1709 441 
Q 2250 441 2565 725 
Q 2881 1009 2881 1497 
Q 2881 1984 2565 2268 
Q 2250 2553 1709 2553 
Q 1456 2553 1204 2497 
Q 953 2441 691 2322 
L 691 4666 
z
" transform="scale(0.015625)"/>
       </defs>
       <use xlink:href="#DejaVuSans-32"/>
       <use xlink:href="#DejaVuSans-2e" x="63.623047"/>
       <use xlink:href="#DejaVuSans-35" x="95.410156"/>
      </g>
     </g>
    </g>
    <g id="xtick_3">
     <g id="line2d_5">
      <path d="M 186.805462 277.92 
L 186.805462 0.72 
" clip-path="url(#p716889715e)" style="fill: none; stroke-dasharray: 0.8,1.32; stroke-dashoffset: 0; stroke: #000000; stroke-opacity: 0.5; stroke-width: 0.8"/>
     </g>
     <g id="line2d_6">
      <g>
       <use xlink:href="#m3538ec8bc9" x="186.805462" y="277.92" style="stroke: #000000; stroke-width: 0.8"/>
      </g>
     </g>
     <g id="text_3">
      <!-- 5.0 -->
      <g transform="translate(178.8539 292.518438) scale(0.1 -0.1)">
       <use xlink:href="#DejaVuSans-35"/>
       <use xlink:href="#DejaVuSans-2e" x="63.623047"/>
       <use xlink:href="#DejaVuSans-30" x="95.410156"/>
      </g>
     </g>
    </g>
    <g id="xtick_4">
     <g id="line2d_7">
      <path d="M 260.956787 277.92 
L 260.956787 0.72 
" clip-path="url(#p716889715e)" style="fill: none; stroke-dasharray: 0.8,1.32; stroke-dashoffset: 0; stroke: #000000; stroke-opacity: 0.5; stroke-width: 0.8"/>
     </g>
     <g id="line2d_8">
      <g>
       <use xlink:href="#m3538ec8bc9" x="260.956787" y="277.92" style="stroke: #000000; stroke-width: 0.8"/>
      </g>
     </g>
     <g id="text_4">
      <!-- 7.5 -->
      <g transform="translate(253.005225 292.518438) scale(0.1 -0.1)">
       <defs>
        <path id="DejaVuSans-37" d="M 525 4666 
L 3525 4666 
L 3525 4397 
L 1831 0 
L 1172 0 
L 2766 4134 
L 525 4134 
L 525 4666 
z
" transform="scale(0.015625)"/>
       </defs>
       <use xlink:href="#DejaVuSans-37"/>
       <use xlink:href="#DejaVuSans-2e" x="63.623047"/>
       <use xlink:href="#DejaVuSans-35" x="95.410156"/>
      </g>
     </g>
    </g>
    <g id="xtick_5">
     <g id="line2d_9">
      <path d="M 335.108112 277.92 
L 335.108112 0.72 
" clip-path="url(#p716889715e)" style="fill: none; stroke-dasharray: 0.8,1.32; stroke-dashoffset: 0; stroke: #000000; stroke-opacity: 0.5; stroke-width: 0.8"/>
     </g>
     <g id="line2d_10">
      <g>
       <use xlink:href="#m3538ec8bc9" x="335.108112" y="277.92" style="stroke: #000000; stroke-width: 0.8"/>
      </g>
     </g>
     <g id="text_5">
      <!-- 10.0 -->
      <g transform="translate(323.9753 292.518438) scale(0.1 -0.1)">
       <defs>
        <path id="DejaVuSans-31" d="M 794 531 
L 1825 531 
L 1825 4091 
L 703 3866 
L 703 4441 
L 1819 4666 
L 2450 4666 
L 2450 531 
L 3481 531 
L 3481 0 
L 794 0 
L 794 531 
z
" transform="scale(0.015625)"/>
       </defs>
       <use xlink:href="#DejaVuSans-31"/>
       <use xlink:href="#DejaVuSans-30" x="63.623047"/>
       <use xlink:href="#DejaVuSans-2e" x="127.246094"/>
       <use xlink:href="#DejaVuSans-30" x="159.033203"/>
      </g>
     </g>
    </g>
    <g id="xtick_6">
     <g id="line2d_11">
      <path d="M 409.259437 277.92 
L 409.259437 0.72 
" clip-path="url(#p716889715e)" style="fill: none; stroke-dasharray: 0.8,1.32; stroke-dashoffset: 0; stroke: #000000; stroke-opacity: 0.5; stroke-width: 0.8"/>
     </g>
     <g id="line2d_12">
      <g>
       <use xlink:href="#m3538ec8bc9" x="409.259437" y="277.92" style="stroke: #000000; stroke-width: 0.8"/>
      </g>
     </g>
     <g id="text_6">
      <!-- 12.5 -->
      <g transform="translate(398.126625 292.518438) scale(0.1 -0.1)">
       <use xlink:href="#DejaVuSans-31"/>
       <use xlink:href="#DejaVuSans-32" x="63.623047"/>
       <use xlink:href="#DejaVuSans-2e" x="127.246094"/>
       <use xlink:href="#DejaVuSans-35" x="159.033203"/>
      </g>
     </g>
    </g>
    <g id="xtick_7">
     <g id="line2d_13">
      <path d="M 483.410762 277.92 
L 483.410762 0.72 
" clip-path="url(#p716889715e)" style="fill: none; stroke-dasharray: 0.8,1.32; stroke-dashoffset: 0; stroke: #000000; stroke-opacity: 0.5; stroke-width: 0.8"/>
     </g>
     <g id="line2d_14">
      <g>
       <use xlink:href="#m3538ec8bc9" x="483.410762" y="277.92" style="stroke: #000000; stroke-width: 0.8"/>
      </g>
     </g>
     <g id="text_7">
      <!-- 15.0 -->
      <g transform="translate(472.27795 292.518438) scale(0.1 -0.1)">
       <use xlink:href="#DejaVuSans-31"/>
       <use xlink:href="#DejaVuSans-35" x="63.623047"/>
       <use xlink:href="#DejaVuSans-2e" x="127.246094"/>
       <use xlink:href="#DejaVuSans-30" x="159.033203"/>
      </g>
     </g>
    </g>
    <g id="xtick_8">
     <g id="line2d_15">
      <path d="M 557.562087 277.92 
L 557.562087 0.72 
" clip-path="url(#p716889715e)" style="fill: none; stroke-dasharray: 0.8,1.32; stroke-dashoffset: 0; stroke: #000000; stroke-opacity: 0.5; stroke-width: 0.8"/>
     </g>
     <g id="line2d_16">
      <g>
       <use xlink:href="#m3538ec8bc9" x="557.562087" y="277.92" style="stroke: #000000; stroke-width: 0.8"/>
      </g>
     </g>
     <g id="text_8">
      <!-- 17.5 -->
      <g transform="translate(546.429274 292.518438) scale(0.1 -0.1)">
       <use xlink:href="#DejaVuSans-31"/>
       <use xlink:href="#DejaVuSans-37" x="63.623047"/>
       <use xlink:href="#DejaVuSans-2e" x="127.246094"/>
       <use xlink:href="#DejaVuSans-35" x="159.033203"/>
      </g>
     </g>
    </g>
    <g id="text_9">
     <!-- Zeit [s] -->
     <g transform="translate(299.556719 302.196563) scale(0.1 -0.1)">
      <defs>
       <path id="DejaVuSans-5a" d="M 359 4666 
L 4025 4666 
L 4025 4184 
L 1075 531 
L 4097 531 
L 4097 0 
L 288 0 
L 288 481 
L 3238 4134 
L 359 4134 
L 359 4666 
z
" transform="scale(0.015625)"/>
       <path id="DejaVuSans-65" d="M 3597 1894 
L 3597 1613 
L 953 1613 
Q 991 1019 1311 708 
Q 1631 397 2203 397 
Q 2534 397 2845 478 
Q 3156 559 3463 722 
L 3463 178 
Q 3153 47 2828 -22 
Q 2503 -91 2169 -91 
Q 1331 -91 842 396 
Q 353 884 353 1716 
Q 353 2575 817 3079 
Q 1281 3584 2069 3584 
Q 2775 3584 3186 3129 
Q 3597 2675 3597 1894 
z
M 3022 2063 
Q 3016 2534 2758 2815 
Q 2500 3097 2075 3097 
Q 1594 3097 1305 2825 
Q 1016 2553 972 2059 
L 3022 2063 
z
" transform="scale(0.015625)"/>
       <path id="DejaVuSans-69" d="M 603 3500 
L 1178 3500 
L 1178 0 
L 603 0 
L 603 3500 
z
M 603 4863 
L 1178 4863 
L 1178 4134 
L 603 4134 
L 603 4863 
z
" transform="scale(0.015625)"/>
       <path id="DejaVuSans-74" d="M 1172 4494 
L 1172 3500 
L 2356 3500 
L 2356 3053 
L 1172 3053 
L 1172 1153 
Q 1172 725 1289 603 
Q 1406 481 1766 481 
L 2356 481 
L 2356 0 
L 1766 0 
Q 1100 0 847 248 
Q 594 497 594 1153 
L 594 3053 
L 172 3053 
L 172 3500 
L 594 3500 
L 594 4494 
L 1172 4494 
z
" transform="scale(0.015625)"/>
       <path id="DejaVuSans-20" transform="scale(0.015625)"/>
       <path id="DejaVuSans-5b" d="M 550 4863 
L 1875 4863 
L 1875 4416 
L 1125 4416 
L 1125 -397 
L 1875 -397 
L 1875 -844 
L 550 -844 
L 550 4863 
z
" transform="scale(0.015625)"/>
       <path id="DejaVuSans-73" d="M 2834 3397 
L 2834 2853 
Q 2591 2978 2328 3040 
Q 2066 3103 1784 3103 
Q 1356 3103 1142 2972 
Q 928 2841 928 2578 
Q 928 2378 1081 2264 
Q 1234 2150 1697 2047 
L 1894 2003 
Q 2506 1872 2764 1633 
Q 3022 1394 3022 966 
Q 3022 478 2636 193 
Q 2250 -91 1575 -91 
Q 1294 -91 989 -36 
Q 684 19 347 128 
L 347 722 
Q 666 556 975 473 
Q 1284 391 1588 391 
Q 1994 391 2212 530 
Q 2431 669 2431 922 
Q 2431 1156 2273 1281 
Q 2116 1406 1581 1522 
L 1381 1569 
Q 847 1681 609 1914 
Q 372 2147 372 2553 
Q 372 3047 722 3315 
Q 1072 3584 1716 3584 
Q 2034 3584 2315 3537 
Q 2597 3491 2834 3397 
z
" transform="scale(0.015625)"/>
       <path id="DejaVuSans-5d" d="M 1947 4863 
L 1947 -844 
L 622 -844 
L 622 -397 
L 1369 -397 
L 1369 4416 
L 622 4416 
L 622 4863 
L 1947 4863 
z
" transform="scale(0.015625)"/>
      </defs>
      <use xlink:href="#DejaVuSans-5a"/>
      <use xlink:href="#DejaVuSans-65" x="68.505859"/>
      <use xlink:href="#DejaVuSans-69" x="130.029297"/>
      <use xlink:href="#DejaVuSans-74" x="157.8125"/>
      <use xlink:href="#DejaVuSans-20" x="197.021484"/>
      <use xlink:href="#DejaVuSans-5b" x="228.808594"/>
      <use xlink:href="#DejaVuSans-73" x="267.822266"/>
      <use xlink:href="#DejaVuSans-5d" x="319.921875"/>
     </g>
    </g>
   </g>
   <g id="matplotlib.axis_2">
    <g id="ytick_1">
     <g id="line2d_17">
      <path d="M 38.502813 271.297968 
L 596.502813 271.297968 
" clip-path="url(#p716889715e)" style="fill: none; stroke-dasharray: 0.8,1.32; stroke-dashoffset: 0; stroke: #000000; stroke-opacity: 0.5; stroke-width: 0.8"/>
     </g>
     <g id="line2d_18">
      <defs>
       <path id="m5380656397" d="M 0 0 
L -3.5 0 
" style="stroke: #000000; stroke-width: 0.8"/>
      </defs>
      <g>
       <use xlink:href="#m5380656397" x="38.502813" y="271.297968" style="stroke: #000000; stroke-width: 0.8"/>
      </g>
     </g>
     <g id="text_10">
      <!-- −15 -->
      <g transform="translate(10.398125 275.097187) scale(0.1 -0.1)">
       <defs>
        <path id="DejaVuSans-2212" d="M 678 2272 
L 4684 2272 
L 4684 1741 
L 678 1741 
L 678 2272 
z
" transform="scale(0.015625)"/>
       </defs>
       <use xlink:href="#DejaVuSans-2212"/>
       <use xlink:href="#DejaVuSans-31" x="83.789062"/>
       <use xlink:href="#DejaVuSans-35" x="147.412109"/>
      </g>
     </g>
    </g>
    <g id="ytick_2">
     <g id="line2d_19">
      <path d="M 38.502813 233.920262 
L 596.502813 233.920262 
" clip-path="url(#p716889715e)" style="fill: none; stroke-dasharray: 0.8,1.32; stroke-dashoffset: 0; stroke: #000000; stroke-opacity: 0.5; stroke-width: 0.8"/>
     </g>
     <g id="line2d_20">
      <g>
       <use xlink:href="#m5380656397" x="38.502813" y="233.920262" style="stroke: #000000; stroke-width: 0.8"/>
      </g>
     </g>
     <g id="text_11">
      <!-- −10 -->
      <g transform="translate(10.398125 237.71948) scale(0.1 -0.1)">
       <use xlink:href="#DejaVuSans-2212"/>
       <use xlink:href="#DejaVuSans-31" x="83.789062"/>
       <use xlink:href="#DejaVuSans-30" x="147.412109"/>
      </g>
     </g>
    </g>
    <g id="ytick_3">
     <g id="line2d_21">
      <path d="M 38.502813 196.542555 
L 596.502813 196.542555 
" clip-path="url(#p716889715e)" style="fill: none; stroke-dasharray: 0.8,1.32; stroke-dashoffset: 0; stroke: #000000; stroke-opacity: 0.5; stroke-width: 0.8"/>
     </g>
     <g id="line2d_22">
      <g>
       <use xlink:href="#m5380656397" x="38.502813" y="196.542555" style="stroke: #000000; stroke-width: 0.8"/>
      </g>
     </g>
     <g id="text_12">
      <!-- −5 -->
      <g transform="translate(16.760625 200.341773) scale(0.1 -0.1)">
       <use xlink:href="#DejaVuSans-2212"/>
       <use xlink:href="#DejaVuSans-35" x="83.789062"/>
      </g>
     </g>
    </g>
    <g id="ytick_4">
     <g id="line2d_23">
      <path d="M 38.502813 159.164848 
L 596.502813 159.164848 
" clip-path="url(#p716889715e)" style="fill: none; stroke-dasharray: 0.8,1.32; stroke-dashoffset: 0; stroke: #000000; stroke-opacity: 0.5; stroke-width: 0.8"/>
     </g>
     <g id="line2d_24">
      <g>
       <use xlink:href="#m5380656397" x="38.502813" y="159.164848" style="stroke: #000000; stroke-width: 0.8"/>
      </g>
     </g>
     <g id="text_13">
      <!-- 0 -->
      <g transform="translate(25.140313 162.964067) scale(0.1 -0.1)">
       <use xlink:href="#DejaVuSans-30"/>
      </g>
     </g>
    </g>
    <g id="ytick_5">
     <g id="line2d_25">
      <path d="M 38.502813 121.787141 
L 596.502813 121.787141 
" clip-path="url(#p716889715e)" style="fill: none; stroke-dasharray: 0.8,1.32; stroke-dashoffset: 0; stroke: #000000; stroke-opacity: 0.5; stroke-width: 0.8"/>
     </g>
     <g id="line2d_26">
      <g>
       <use xlink:href="#m5380656397" x="38.502813" y="121.787141" style="stroke: #000000; stroke-width: 0.8"/>
      </g>
     </g>
     <g id="text_14">
      <!-- 5 -->
      <g transform="translate(25.140313 125.58636) scale(0.1 -0.1)">
       <use xlink:href="#DejaVuSans-35"/>
      </g>
     </g>
    </g>
    <g id="ytick_6">
     <g id="line2d_27">
      <path d="M 38.502813 84.409434 
L 596.502813 84.409434 
" clip-path="url(#p716889715e)" style="fill: none; stroke-dasharray: 0.8,1.32; stroke-dashoffset: 0; stroke: #000000; stroke-opacity: 0.5; stroke-width: 0.8"/>
     </g>
     <g id="line2d_28">
      <g>
       <use xlink:href="#m5380656397" x="38.502813" y="84.409434" style="stroke: #000000; stroke-width: 0.8"/>
      </g>
     </g>
     <g id="text_15">
      <!-- 10 -->
      <g transform="translate(18.777813 88.208653) scale(0.1 -0.1)">
       <use xlink:href="#DejaVuSans-31"/>
       <use xlink:href="#DejaVuSans-30" x="63.623047"/>
      </g>
     </g>
    </g>
    <g id="ytick_7">
     <g id="line2d_29">
      <path d="M 38.502813 47.031727 
L 596.502813 47.031727 
" clip-path="url(#p716889715e)" style="fill: none; stroke-dasharray: 0.8,1.32; stroke-dashoffset: 0; stroke: #000000; stroke-opacity: 0.5; stroke-width: 0.8"/>
     </g>
     <g id="line2d_30">
      <g>
       <use xlink:href="#m5380656397" x="38.502813" y="47.031727" style="stroke: #000000; stroke-width: 0.8"/>
      </g>
     </g>
     <g id="text_16">
      <!-- 15 -->
      <g transform="translate(18.777813 50.830946) scale(0.1 -0.1)">
       <use xlink:href="#DejaVuSans-31"/>
       <use xlink:href="#DejaVuSans-35" x="63.623047"/>
      </g>
     </g>
    </g>
    <g id="ytick_8">
     <g id="line2d_31">
      <path d="M 38.502813 9.654021 
L 596.502813 9.654021 
" clip-path="url(#p716889715e)" style="fill: none; stroke-dasharray: 0.8,1.32; stroke-dashoffset: 0; stroke: #000000; stroke-opacity: 0.5; stroke-width: 0.8"/>
     </g>
     <g id="line2d_32">
      <g>
       <use xlink:href="#m5380656397" x="38.502813" y="9.654021" style="stroke: #000000; stroke-width: 0.8"/>
      </g>
     </g>
     <g id="text_17">
      <!-- 20 -->
      <g transform="translate(18.777813 13.453239) scale(0.1 -0.1)">
       <use xlink:href="#DejaVuSans-32"/>
       <use xlink:href="#DejaVuSans-30" x="63.623047"/>
      </g>
     </g>
    </g>
    <g id="text_18">
     <!-- Drehmoment [Nm] -->
     <g transform="translate(8.318438 186.465313) rotate(-90) scale(0.1 -0.1)">
      <defs>
       <path id="DejaVuSans-44" d="M 1259 4147 
L 1259 519 
L 2022 519 
Q 2988 519 3436 956 
Q 3884 1394 3884 2338 
Q 3884 3275 3436 3711 
Q 2988 4147 2022 4147 
L 1259 4147 
z
M 628 4666 
L 1925 4666 
Q 3281 4666 3915 4102 
Q 4550 3538 4550 2338 
Q 4550 1131 3912 565 
Q 3275 0 1925 0 
L 628 0 
L 628 4666 
z
" transform="scale(0.015625)"/>
       <path id="DejaVuSans-72" d="M 2631 2963 
Q 2534 3019 2420 3045 
Q 2306 3072 2169 3072 
Q 1681 3072 1420 2755 
Q 1159 2438 1159 1844 
L 1159 0 
L 581 0 
L 581 3500 
L 1159 3500 
L 1159 2956 
Q 1341 3275 1631 3429 
Q 1922 3584 2338 3584 
Q 2397 3584 2469 3576 
Q 2541 3569 2628 3553 
L 2631 2963 
z
" transform="scale(0.015625)"/>
       <path id="DejaVuSans-68" d="M 3513 2113 
L 3513 0 
L 2938 0 
L 2938 2094 
Q 2938 2591 2744 2837 
Q 2550 3084 2163 3084 
Q 1697 3084 1428 2787 
Q 1159 2491 1159 1978 
L 1159 0 
L 581 0 
L 581 4863 
L 1159 4863 
L 1159 2956 
Q 1366 3272 1645 3428 
Q 1925 3584 2291 3584 
Q 2894 3584 3203 3211 
Q 3513 2838 3513 2113 
z
" transform="scale(0.015625)"/>
       <path id="DejaVuSans-6d" d="M 3328 2828 
Q 3544 3216 3844 3400 
Q 4144 3584 4550 3584 
Q 5097 3584 5394 3201 
Q 5691 2819 5691 2113 
L 5691 0 
L 5113 0 
L 5113 2094 
Q 5113 2597 4934 2840 
Q 4756 3084 4391 3084 
Q 3944 3084 3684 2787 
Q 3425 2491 3425 1978 
L 3425 0 
L 2847 0 
L 2847 2094 
Q 2847 2600 2669 2842 
Q 2491 3084 2119 3084 
Q 1678 3084 1418 2786 
Q 1159 2488 1159 1978 
L 1159 0 
L 581 0 
L 581 3500 
L 1159 3500 
L 1159 2956 
Q 1356 3278 1631 3431 
Q 1906 3584 2284 3584 
Q 2666 3584 2933 3390 
Q 3200 3197 3328 2828 
z
" transform="scale(0.015625)"/>
       <path id="DejaVuSans-6f" d="M 1959 3097 
Q 1497 3097 1228 2736 
Q 959 2375 959 1747 
Q 959 1119 1226 758 
Q 1494 397 1959 397 
Q 2419 397 2687 759 
Q 2956 1122 2956 1747 
Q 2956 2369 2687 2733 
Q 2419 3097 1959 3097 
z
M 1959 3584 
Q 2709 3584 3137 3096 
Q 3566 2609 3566 1747 
Q 3566 888 3137 398 
Q 2709 -91 1959 -91 
Q 1206 -91 779 398 
Q 353 888 353 1747 
Q 353 2609 779 3096 
Q 1206 3584 1959 3584 
z
" transform="scale(0.015625)"/>
       <path id="DejaVuSans-6e" d="M 3513 2113 
L 3513 0 
L 2938 0 
L 2938 2094 
Q 2938 2591 2744 2837 
Q 2550 3084 2163 3084 
Q 1697 3084 1428 2787 
Q 1159 2491 1159 1978 
L 1159 0 
L 581 0 
L 581 3500 
L 1159 3500 
L 1159 2956 
Q 1366 3272 1645 3428 
Q 1925 3584 2291 3584 
Q 2894 3584 3203 3211 
Q 3513 2838 3513 2113 
z
" transform="scale(0.015625)"/>
       <path id="DejaVuSans-4e" d="M 628 4666 
L 1478 4666 
L 3547 763 
L 3547 4666 
L 4159 4666 
L 4159 0 
L 3309 0 
L 1241 3903 
L 1241 0 
L 628 0 
L 628 4666 
z
" transform="scale(0.015625)"/>
      </defs>
      <use xlink:href="#DejaVuSans-44"/>
      <use xlink:href="#DejaVuSans-72" x="77.001953"/>
      <use xlink:href="#DejaVuSans-65" x="115.865234"/>
      <use xlink:href="#DejaVuSans-68" x="177.388672"/>
      <use xlink:href="#DejaVuSans-6d" x="240.767578"/>
      <use xlink:href="#DejaVuSans-6f" x="338.179688"/>
      <use xlink:href="#DejaVuSans-6d" x="399.361328"/>
      <use xlink:href="#DejaVuSans-65" x="496.773438"/>
      <use xlink:href="#DejaVuSans-6e" x="558.296875"/>
      <use xlink:href="#DejaVuSans-74" x="621.675781"/>
      <use xlink:href="#DejaVuSans-20" x="660.884766"/>
      <use xlink:href="#DejaVuSans-5b" x="692.671875"/>
      <use xlink:href="#DejaVuSans-4e" x="731.685547"/>
      <use xlink:href="#DejaVuSans-6d" x="806.490234"/>
      <use xlink:href="#DejaVuSans-5d" x="903.902344"/>
     </g>
    </g>
   </g>
   <g id="line2d_33">
    <path d="M 38.502813 159.164848 
L 223.248476 159.164848 
L 223.732051 159.276973 
L 224.976617 159.28459 
L 226.226817 159.149288 
L 232.316057 159.149749 
L 232.434509 159.189193 
L 235.432665 159.156947 
L 240.793797 159.173845 
L 248.848689 159.165401 
L 251.466717 159.164776 
L 253.732822 159.178861 
L 254.866171 159.184414 
L 258.20509 159.169931 
L 259.876027 159.16363 
L 264.285849 159.170325 
L 268.099501 159.160062 
L 269.530633 159.166771 
L 276.812326 159.192647 
L 278.624491 159.177117 
L 283.961917 159.164848 
L 284.563335 159.164563 
L 313.090224 159.164848 
L 313.212638 158.976186 
L 317.410895 159.165741 
L 331.312423 159.164839 
L 596.502813 159.164848 
L 596.502813 159.164848 
" clip-path="url(#p716889715e)" style="fill: none; stroke: #0000ff; stroke-opacity: 0.5; stroke-width: 1.5; stroke-linecap: square"/>
   </g>
   <g id="line2d_34">
    <path d="M 38.502813 190.043493 
L 38.622916 188.799594 
L 38.865804 192.392816 
L 38.937 188.90544 
L 39.111017 188.668358 
L 39.417061 191.806304 
L 39.707596 190.927639 
L 39.885883 192.707939 
L 40.541846 189.617917 
L 40.601545 192.210212 
L 41.018884 191.518904 
L 41.257159 191.62137 
L 41.376814 191.816339 
L 41.559198 191.268887 
L 42.033407 192.194205 
L 42.091503 190.949623 
L 42.329583 189.807669 
L 42.628872 191.436896 
L 42.928055 192.145953 
L 43.164095 188.882416 
L 43.477718 192.329703 
L 43.581899 189.320749 
L 43.819883 192.899944 
L 44.060446 190.781309 
L 44.300935 189.756096 
L 44.599353 190.069964 
L 44.834047 192.145664 
L 45.07223 191.287558 
L 45.371049 189.187891 
L 45.857012 190.70524 
L 46.174796 193.411973 
L 46.328887 189.524597 
L 46.567049 191.674906 
L 46.805772 190.428174 
L 47.224756 194.220322 
L 47.405507 192.467833 
L 47.521373 194.168977 
L 47.766181 194.098792 
L 48.003493 193.457635 
L 48.244165 195.302873 
L 48.536913 194.413149 
L 49.14069 195.235622 
L 50.441813 195.398686 
L 51.746796 193.778594 
L 53.050949 191.267665 
L 54.356612 191.729696 
L 57.085405 193.908376 
L 58.50861 192.526251 
L 59.813793 194.652744 
L 59.954398 193.455523 
L 60.191841 195.069067 
L 60.430319 194.954075 
L 60.669155 195.160895 
L 60.966191 193.903795 
L 61.265892 188.793267 
L 61.681905 193.941686 
L 61.866132 189.550498 
L 62.104406 191.750929 
L 62.404 192.186462 
L 62.638974 186.754326 
L 62.936269 189.798708 
L 63.11617 194.62855 
L 63.356366 193.362082 
L 63.652931 192.848079 
L 63.846691 193.504573 
L 64.130974 191.230658 
L 64.426649 192.397242 
L 64.72558 194.904187 
L 64.844761 192.204619 
L 65.083776 196.528788 
L 65.323835 195.360034 
L 65.636208 190.243379 
L 66.108513 195.021259 
L 66.396826 191.612414 
L 66.578194 193.784764 
L 66.876601 194.002375 
L 66.934528 191.6194 
L 67.112748 189.783675 
L 67.414376 193.764891 
L 67.588886 193.050297 
L 67.829178 190.986639 
L 68.125305 191.05868 
L 68.423426 189.899873 
L 68.783671 187.138698 
L 69.019997 184.371386 
L 69.616891 193.227301 
L 70.095651 186.714161 
L 70.338534 191.154168 
L 70.523348 191.772785 
L 70.817845 188.501249 
L 71.292681 192.2211 
L 71.413207 197.593094 
L 72.070236 190.732179 
L 72.364771 189.787165 
L 72.604817 194.422314 
L 72.782636 194.28792 
L 73.442011 192.042014 
L 73.737273 191.565641 
L 73.796233 189.595817 
L 74.034856 189.739406 
L 74.273425 190.051747 
L 74.512377 193.514766 
L 74.809776 194.031277 
L 75.10756 189.683721 
L 75.350039 189.709473 
L 75.534701 191.535974 
L 75.716732 191.68386 
L 75.763801 192.248049 
L 76.299771 192.323117 
L 76.479259 193.205707 
L 76.779836 193.007812 
L 77.014868 188.006345 
L 77.211656 188.906868 
L 77.492991 193.266323 
L 77.731123 190.344712 
L 78.028409 188.168573 
L 78.208334 191.521007 
L 78.445703 191.443314 
L 78.984279 189.137169 
L 79.221395 189.558617 
L 79.46119 193.370148 
L 79.9365 188.816276 
L 80.48719 194.578588 
L 80.950854 188.407584 
L 81.192765 192.9302 
L 81.665653 195.213294 
L 81.913099 189.462403 
L 82.151222 193.528874 
L 82.441028 190.563197 
L 82.620686 187.222442 
L 82.859406 190.14515 
L 83.215747 195.979897 
L 83.394399 195.281188 
L 83.632494 188.733843 
L 83.872614 187.549263 
L 84.109856 192.640997 
L 84.411018 191.576674 
L 84.706152 187.540561 
L 85.123897 193.697749 
L 85.361288 194.290886 
L 85.600003 192.765785 
L 86.207889 191.794609 
L 86.732011 188.996406 
L 87.090643 196.401254 
L 87.329041 193.93176 
L 87.865826 184.605436 
L 88.103508 185.593571 
L 88.586765 193.873995 
L 89.00022 193.697938 
L 89.118231 194.163582 
L 89.536432 192.457697 
L 89.908761 188.787642 
L 90.012432 189.14198 
L 90.081212 191.662382 
L 90.668047 195.230614 
L 90.905672 194.546667 
L 91.263784 193.396028 
L 91.681363 191.964581 
L 92.038568 193.488843 
L 92.336147 192.555995 
L 92.754169 187.944902 
L 92.991265 187.348363 
L 93.289814 188.719077 
L 93.489754 192.407507 
L 93.826284 194.497568 
L 94.004867 192.178343 
L 94.305329 189.777947 
L 94.842115 198.519079 
L 95.019457 198.554502 
L 95.498953 194.49559 
L 95.89183 193.867367 
L 96.064357 192.140413 
L 96.454062 189.924357 
L 96.573099 189.936348 
L 96.69475 195.014543 
L 97.286052 187.577106 
L 97.48986 190.183882 
L 97.779913 196.20733 
L 98.063483 198.334846 
L 98.202731 194.317246 
L 98.47895 189.831262 
L 99.025598 194.545535 
L 99.325453 191.10572 
L 99.58166 190.597757 
L 99.795665 194.356734 
L 100.391 196.826744 
L 100.526244 190.623872 
L 101.868401 189.542538 
L 103.165642 191.029748 
L 104.594361 189.305003 
L 104.673559 182.172166 
L 104.853311 179.186799 
L 105.454112 186.479922 
L 105.687883 192.109029 
L 106.066219 196.353187 
L 106.305417 195.676321 
L 106.42681 192.970743 
L 106.688645 190.031246 
L 106.855494 189.950933 
L 107.089968 191.721903 
L 107.387998 195.477033 
L 107.688168 197.580825 
L 107.864974 197.418014 
L 108.164534 192.045981 
L 108.347806 185.394447 
L 108.640473 181.176399 
L 108.902733 183.033421 
L 109.117895 189.98966 
L 109.596272 198.127526 
L 110.375788 183.028407 
L 110.554204 184.681925 
L 111.052094 194.014453 
L 111.29097 193.680387 
L 111.577019 188.462503 
L 111.812008 186.760084 
L 112.049728 189.944485 
L 112.530576 199.865289 
L 112.792567 199.44013 
L 113.325136 196.194633 
L 113.421862 193.325421 
L 113.541144 193.109054 
L 113.788285 194.96576 
L 114.093357 195.476768 
L 114.540544 183.090779 
L 114.883064 180.224398 
L 115.313819 188.928261 
L 115.937099 193.128597 
L 116.216076 186.331421 
L 116.30385 185.566595 
L 116.475791 188.858313 
L 116.782905 190.716918 
L 117.130896 190.702594 
L 117.249404 191.884497 
L 117.487743 191.889553 
L 118.024139 190.329172 
L 118.206256 191.212709 
L 118.450471 194.075961 
L 118.756347 196.237722 
L 118.928024 195.145627 
L 119.289499 194.795525 
L 119.821194 199.655849 
L 120.298612 191.57003 
L 120.606507 191.039183 
L 120.715903 196.475431 
L 120.9231 196.783895 
L 121.194101 191.026227 
L 121.433386 189.014598 
L 121.912267 195.713169 
L 122.149815 195.306205 
L 122.624796 195.761033 
L 122.690525 197.959221 
L 122.935962 195.827677 
L 123.160922 189.6125 
L 123.589311 187.262011 
L 123.69748 192.063879 
L 123.995428 192.999867 
L 124.35569 187.852936 
L 124.650229 188.23355 
L 124.949134 186.173894 
L 125.13009 183.795422 
L 125.427231 184.263902 
L 125.857602 191.135765 
L 126.147722 189.038645 
L 126.390896 186.370559 
L 126.627668 186.947013 
L 126.86069 187.879513 
L 127.101098 186.486311 
L 127.397474 185.626834 
L 127.755155 186.424894 
L 127.874394 189.038799 
L 128.11266 191.424484 
L 128.470607 191.748954 
L 128.590202 191.11525 
L 129.127471 191.827085 
L 129.423624 192.013728 
L 129.721296 192.493542 
L 129.844012 193.859029 
L 130.080965 193.183972 
L 130.318908 190.800648 
L 130.556998 189.731036 
L 130.795082 190.017813 
L 131.094146 192.24939 
L 131.390373 192.396178 
L 131.570561 191.96589 
L 131.809921 191.079462 
L 132.070999 192.061633 
L 132.288655 193.499762 
L 132.530023 194.102592 
L 132.778446 195.975908 
L 133.080422 197.16521 
L 133.599891 190.45896 
L 134.048442 198.351783 
L 134.27389 196.747035 
L 134.511673 189.814647 
L 134.752536 186.57432 
L 134.988169 190.851504 
L 135.299799 193.36763 
L 135.762344 187.178765 
L 136.299914 192.908638 
L 136.897409 188.209552 
L 137.144696 190.87134 
L 137.496099 196.412749 
L 137.729921 194.132912 
L 138.031643 192.710903 
L 138.462756 196.316801 
L 138.821519 195.906421 
L 139.04073 193.828678 
L 139.34128 193.60478 
L 139.518495 192.449153 
L 139.876343 192.082825 
L 139.996454 191.213792 
L 140.23413 191.253551 
L 140.475957 190.737957 
L 140.727123 188.903661 
L 141.192054 178.834828 
L 141.683584 180.886152 
L 141.74323 187.907089 
L 141.924188 193.555066 
L 142.220316 193.902508 
L 142.698106 189.167943 
L 142.935384 190.380247 
L 143.657606 201.458599 
L 144.128735 197.128523 
L 144.426045 188.214498 
L 144.665021 190.068785 
L 145.147247 197.861007 
L 145.379375 197.445449 
L 146.042843 188.66394 
L 146.696415 198.716726 
L 147.407001 187.414907 
L 147.88237 192.566945 
L 148.299554 194.310023 
L 148.598417 190.113097 
L 149.076012 190.502584 
L 149.373331 191.59682 
L 149.613249 190.109836 
L 150.029772 186.258655 
L 150.089694 181.629481 
L 150.446581 182.050478 
L 150.565971 187.310071 
L 150.92311 192.873773 
L 151.703 186.448054 
L 152.113476 194.037649 
L 152.351803 195.339714 
L 152.832111 191.956217 
L 152.888581 189.42929 
L 153.188565 186.476542 
L 153.309231 187.726587 
L 153.54568 193.150261 
L 153.920396 196.607213 
L 154.319251 188.157671 
L 154.617256 189.248483 
L 155.03402 197.586393 
L 155.333455 199.630673 
L 155.572779 197.833957 
L 155.93189 191.978079 
L 156.054561 186.209563 
L 156.288871 185.388196 
L 156.59785 190.66511 
L 156.824695 196.622151 
L 157.062934 197.969486 
L 157.482632 191.1144 
L 157.720275 187.669175 
L 158.075811 186.963007 
L 158.732951 196.709364 
L 159.028959 191.842441 
L 159.50687 181.617334 
L 159.80937 181.671059 
L 160.222772 193.268494 
L 160.639178 197.434906 
L 160.761288 195.282978 
L 161.002186 189.021403 
L 161.236001 188.250941 
L 161.716034 198.277787 
L 161.964836 199.382403 
L 162.194991 197.634435 
L 162.728429 187.116893 
L 162.970124 186.253189 
L 163.449507 197.099029 
L 163.682554 197.163708 
L 164.170702 186.923494 
L 164.397251 188.905185 
L 164.99298 191.017561 
L 165.232577 189.904188 
L 165.64954 182.032675 
L 165.889046 181.959651 
L 166.482576 188.752812 
L 166.661225 187.715964 
L 166.89949 184.229273 
L 167.197831 185.872877 
L 167.436563 191.566856 
L 167.735563 194.253582 
L 167.91455 194.363032 
L 168.152508 194.193202 
L 168.391427 193.597178 
L 168.867709 194.951818 
L 169.165479 194.450391 
L 169.529336 193.141778 
L 169.881582 191.533931 
L 170.359222 194.463747 
L 171.25828 190.317824 
L 171.432118 191.635387 
L 171.900581 192.815046 
L 172.146868 192.631715 
L 172.386262 192.767171 
L 172.569875 190.062661 
L 172.835447 188.714662 
L 173.339268 194.384035 
L 173.707388 193.618595 
L 173.81777 188.863047 
L 174.158309 190.272961 
L 174.177757 193.149552 
L 174.314587 196.116755 
L 174.535783 194.838432 
L 174.91395 189.877078 
L 175.073934 189.53924 
L 175.54851 198.277599 
L 175.787124 196.553933 
L 176.085682 191.947548 
L 176.579702 195.523616 
L 177.049623 188.408226 
L 177.336715 190.981669 
L 177.755713 197.697741 
L 178.11115 195.211348 
L 178.352257 191.885654 
L 178.528778 191.370301 
L 179.02236 191.336546 
L 179.243954 196.939655 
L 179.542117 200.980084 
L 179.959799 201.166046 
L 180.199819 195.540896 
L 180.334683 189.184458 
L 180.554724 188.744066 
L 180.764952 194.251486 
L 181.004126 197.327843 
L 181.237254 195.131278 
L 181.475653 191.362327 
L 181.716775 190.650696 
L 181.952198 190.984012 
L 182.311857 189.262901 
L 182.668141 188.428363 
L 182.972183 192.705176 
L 183.210217 192.917502 
L 183.468223 193.643446 
L 183.706024 193.839139 
L 184.008236 191.918884 
L 184.243069 189.386038 
L 184.480842 190.092554 
L 184.866663 192.237557 
L 184.96201 194.121824 
L 185.214305 191.709809 
L 185.456212 186.773534 
L 185.79372 182.818002 
L 186.450096 193.450553 
L 186.926212 186.504993 
L 188.475599 193.34731 
L 188.892101 193.625924 
L 189.608368 192.260372 
L 189.845677 190.736435 
L 190.38336 199.872849 
L 190.679785 196.971336 
L 190.869436 191.435942 
L 191.157601 189.516036 
L 191.946866 204.512578 
L 192.117173 202.32361 
L 192.595026 191.048633 
L 192.83502 190.895269 
L 193.072666 194.589166 
L 193.31546 195.218022 
L 193.905827 185.1261 
L 194.087116 184.998837 
L 194.621423 188.737034 
L 194.919455 189.696554 
L 195.159734 193.270264 
L 195.454674 193.866041 
L 195.574242 190.211107 
L 195.812728 189.919522 
L 196.050762 195.471509 
L 196.348274 197.058798 
L 196.532194 191.401499 
L 196.824916 189.68492 
L 197.302744 194.440544 
L 197.540668 191.347369 
L 197.783126 191.361065 
L 198.021222 196.34571 
L 198.278285 198.19905 
L 198.614978 192.919095 
L 198.857745 194.613355 
L 199.035959 199.671973 
L 199.627167 192.174619 
L 200.037406 200.605431 
L 200.288499 201.437398 
L 200.523074 195.600282 
L 200.76342 193.951177 
L 201.023906 199.133832 
L 201.252764 197.951976 
L 201.602062 192.641006 
L 201.781853 192.205384 
L 202.258451 197.171727 
L 202.615346 197.303869 
L 202.734673 196.253858 
L 202.977069 195.486864 
L 203.271444 195.335602 
L 203.568616 195.346159 
L 203.986273 196.128556 
L 204.347506 195.871605 
L 204.462725 195.084448 
L 205.059555 192.858647 
L 205.475165 201.682353 
L 205.723048 203.613811 
L 206.192034 198.909224 
L 206.452348 198.995729 
L 206.78839 204.334314 
L 207.086054 201.760251 
L 207.443269 190.186745 
L 207.682274 188.497092 
L 207.922916 188.712454 
L 208.578156 187.070765 
L 208.70586 188.750081 
L 208.935203 188.569126 
L 209.172823 187.174571 
L 209.600943 187.090181 
L 209.830821 189.028387 
L 209.950317 193.614532 
L 210.189594 194.50066 
L 210.663532 189.206835 
L 210.903374 189.124426 
L 211.140394 187.39673 
L 211.378598 187.431081 
L 211.874719 192.640906 
L 212.333313 191.689516 
L 212.393738 186.137332 
L 212.631154 179.624454 
L 212.870117 177.544088 
L 213.168289 180.777238 
L 213.644553 193.424521 
L 213.824739 192.78395 
L 214.60033 186.047518 
L 214.837813 187.440345 
L 215.37507 195.955755 
L 215.554742 197.245159 
L 215.851328 193.224405 
L 216.089667 186.046648 
L 216.389104 182.543855 
L 216.58001 184.301672 
L 217.102957 197.610891 
L 217.400525 200.980948 
L 217.639634 199.624173 
L 217.877773 196.159739 
L 218.294893 188.333918 
L 218.593264 187.564719 
L 218.776973 186.518415 
L 219.266031 185.216978 
L 219.30768 183.808144 
L 219.551399 182.569944 
L 219.799306 184.293084 
L 220.32987 191.093323 
L 220.62314 193.344456 
L 220.8622 194.22215 
L 221.162767 196.484264 
L 221.515496 205.712899 
L 221.99322 207.420826 
L 222.055181 208.498058 
L 222.292144 207.408715 
L 222.771536 200.260584 
L 223.006647 196.910303 
L 223.248476 198.176755 
L 223.554257 109.155321 
L 223.732051 126.305033 
L 224.048213 118.429036 
L 224.26118 83.2031 
L 225.513956 225.854608 
L 226.226817 262.316396 
L 226.707352 272.589231 
L 227.004147 255.489419 
L 227.184451 232.742659 
L 227.422827 218.881023 
L 227.479239 208.516459 
L 227.717393 205.47296 
L 227.956897 197.892935 
L 228.194151 181.660967 
L 228.491933 182.900452 
L 228.730952 177.644514 
L 228.972776 166.094082 
L 229.211707 162.842957 
L 229.507621 163.340482 
L 229.86666 167.90425 
L 229.998628 172.507929 
L 230.173069 171.422497 
L 230.705939 195.96004 
L 230.945101 186.182503 
L 231.242363 192.061286 
L 231.630147 195.519566 
L 231.663719 202.465525 
L 232.136825 184.725307 
L 232.316057 171.80891 
L 232.434509 183.761257 
L 233.208451 157.165518 
L 233.387885 166.625923 
L 233.626662 169.921053 
L 233.864567 161.609747 
L 234.163673 180.056657 
L 234.459871 164.062772 
L 234.877477 179.44873 
L 235.432665 183.844309 
L 235.72695 185.639577 
L 235.906757 175.192027 
L 236.084479 178.51651 
L 236.384217 174.586228 
L 236.621287 155.93539 
L 236.919839 150.688671 
L 237.157824 152.743731 
L 237.395703 146.324323 
L 237.695023 145.806302 
L 237.874902 161.936765 
L 238.290534 153.161059 
L 238.589264 166.873698 
L 238.828455 173.380225 
L 239.065068 167.019283 
L 239.305311 174.21179 
L 239.549082 175.811944 
L 239.840779 170.424963 
L 240.023237 180.038963 
L 240.317181 167.310513 
L 240.614551 163.859712 
L 240.793797 156.719725 
L 241.151839 166.531414 
L 241.389884 162.458616 
L 241.569338 163.5179 
L 241.806632 167.312373 
L 242.044896 174.929277 
L 242.344062 173.103027 
L 242.641746 174.712691 
L 242.939843 171.534272 
L 243.118815 175.39144 
L 243.41606 179.131825 
L 243.539421 170.886927 
L 243.836562 164.169404 
L 244.531837 141.056093 
L 244.760099 145.818661 
L 244.998784 144.56915 
L 245.503869 142.625157 
L 245.741822 146.164515 
L 246.202726 150.642713 
L 246.460816 166.76227 
L 246.754794 150.754503 
L 246.994239 156.99225 
L 247.232263 158.927027 
L 247.469526 143.803571 
L 248.125328 155.619471 
L 248.363697 155.226251 
L 248.543255 153.689038 
L 248.848689 128.331859 
L 249.020847 138.19695 
L 249.218981 138.1509 
L 249.796994 154.387134 
L 249.91722 166.76956 
L 250.176782 170.489817 
L 251.466717 138.373272 
L 251.705896 138.019697 
L 252.004037 142.362911 
L 252.243865 142.31237 
L 252.425758 134.260275 
L 252.66071 138.42923 
L 252.958474 149.039756 
L 253.137428 148.926576 
L 253.437262 143.396626 
L 254.390353 169.884136 
L 254.629948 161.860454 
L 254.866171 148.355883 
L 255.283195 169.271893 
L 255.64118 152.943252 
L 255.702331 159.232833 
L 255.879236 162.741189 
L 256.118256 172.376347 
L 256.357 171.23291 
L 256.596713 158.506653 
L 257.013573 149.875981 
L 257.134596 152.240113 
L 257.61066 126.667807 
L 257.848051 124.218069 
L 258.20509 126.249347 
L 258.445132 117.79521 
L 258.577231 122.18996 
L 258.859825 138.378543 
L 259.158214 134.412737 
L 259.487917 134.568131 
L 259.730147 133.231388 
L 259.876027 124.618023 
L 260.173233 138.019988 
L 260.591149 123.787828 
L 260.949329 103.585288 
L 261.322962 114.673308 
L 261.490067 111.900359 
L 261.602805 115.025974 
L 261.975746 115.169038 
L 262.086563 114.331009 
L 262.328785 119.503284 
L 262.55622 112.976658 
L 262.794199 111.448022 
L 263.151773 118.559807 
L 263.330837 113.158104 
L 263.7477 111.095057 
L 263.866901 114.296999 
L 264.105397 111.673024 
L 264.285849 115.231178 
L 264.643203 101.425483 
L 265.058864 105.033414 
L 265.299527 115.041042 
L 265.714773 119.787796 
L 265.955612 121.113159 
L 266.252174 99.296973 
L 266.48981 97.521384 
L 266.788459 90.828966 
L 267.09442 92.694692 
L 267.324829 100.238456 
L 267.563622 98.301874 
L 267.759853 108.173479 
L 268.099501 108.801773 
L 268.338011 106.375735 
L 268.532791 102.583137 
L 268.756773 104.228554 
L 269.017167 108.02591 
L 269.233644 119.053702 
L 269.530633 125.464292 
L 269.887378 121.583146 
L 270.125731 115.471603 
L 270.245132 103.594534 
L 270.723 91.934879 
L 270.960397 92.58867 
L 271.318588 97.479985 
L 271.561653 88.322668 
L 271.735812 98.437332 
L 271.975033 91.781569 
L 272.454512 102.587857 
L 272.689423 96.411517 
L 272.927961 113.987863 
L 273.17533 113.09858 
L 273.464189 111.002102 
L 273.643316 106.948688 
L 273.969451 102.891581 
L 274.219372 97.800856 
L 274.658263 96.304988 
L 275.037647 88.865737 
L 275.313574 84.175725 
L 275.437851 90.287811 
L 275.791628 88.948354 
L 275.91339 81.209732 
L 276.20821 77.450367 
L 276.393789 83.995906 
L 276.812326 78.876936 
L 277.049078 89.313601 
L 277.590469 82.726708 
L 277.779075 90.369446 
L 277.939041 87.308141 
L 278.12053 90.323398 
L 278.475781 110.49518 
L 278.624491 107.694929 
L 278.955747 113.146062 
L 279.193852 110.596115 
L 279.431173 97.500291 
L 279.612332 102.919658 
L 280.086959 82.689118 
L 280.384925 71.135284 
L 280.623809 75.87614 
L 280.980465 72.317281 
L 281.457142 76.265303 
L 281.594071 80.09864 
L 281.873928 69.568673 
L 282.056615 76.521683 
L 282.113657 68.970621 
L 282.351481 70.218641 
L 283.068365 53.734164 
L 283.306338 55.947062 
L 283.66432 51.081199 
L 283.961917 63.738936 
L 284.088847 73.948655 
L 284.856401 68.92991 
L 285.034625 77.628337 
L 285.276257 70.848678 
L 285.690436 75.922634 
L 286.292195 62.285707 
L 286.526687 66.749431 
L 286.769413 58.712206 
L 287.007247 62.676612 
L 287.262421 51.014368 
L 287.484106 64.21124 
L 287.84259 58.028513 
L 287.900764 58.613901 
L 288.024509 57.175949 
L 288.259375 63.895467 
L 288.497522 50.34853 
L 288.736219 58.401314 
L 289.24077 67.889024 
L 289.455069 61.499423 
L 289.811148 65.067446 
L 290.227704 56.473485 
L 290.347633 57.347045 
L 290.465879 48.483596 
L 290.883363 51.901592 
L 290.948755 41.314521 
L 291.225488 44.714778 
L 291.495528 53.320576 
L 291.679836 45.312684 
L 292.13465 56.381632 
L 292.194976 44.953586 
L 292.432576 53.828599 
L 292.969282 61.607254 
L 293.504983 59.17141 
L 293.924229 68.253128 
L 294.221147 70.11224 
L 294.466574 57.226246 
L 294.698997 57.850931 
L 294.878318 42.552349 
L 295.173661 42.04831 
L 295.4127 33.067187 
L 295.717231 30.292573 
L 295.948103 41.046954 
L 296.19442 42.074515 
L 296.426372 42.501588 
L 296.607631 44.541798 
L 296.961851 46.078901 
L 297.152314 49.686881 
L 297.438974 43.77682 
L 297.620443 52.828398 
L 297.929888 48.82737 
L 298.095365 54.675003 
L 298.335465 49.536704 
L 298.632709 48.592351 
L 298.870236 36.653629 
L 299.108436 35.69143 
L 299.60655 34.788617 
L 300.182774 54.30966 
L 300.361705 49.059772 
L 300.600166 49.810819 
L 300.854175 45.010345 
L 301.079765 48.639881 
L 301.494049 39.910211 
L 301.613328 50.640087 
L 301.911255 42.879186 
L 302.09056 51.882228 
L 302.626399 39.141966 
L 302.80676 27.820853 
L 303.043886 35.235242 
L 303.54503 32.934985 
L 303.826118 28.468031 
L 304.119111 28.253293 
L 304.41641 26.088226 
L 304.595673 22.12538 
L 304.95287 24.546125 
L 305.31073 36.512011 
L 305.548602 35.648287 
L 305.846457 40.43758 
L 306.02906 38.867754 
L 306.385283 39.311307 
L 306.562027 52.632918 
L 306.801509 41.933026 
L 306.996024 43.007034 
L 307.656728 39.459789 
L 307.900046 38.736676 
L 308.067971 35.5102 
L 308.299126 44.090714 
L 308.537897 32.971176 
L 308.839248 35.948381 
L 309.086734 33.871172 
L 309.313549 30.539869 
L 309.455479 26.329555 
L 309.930311 21.565711 
L 310.28921 9.563449 
L 310.527271 16.007223 
L 310.708003 11.78748 
L 311.242711 21.014971 
L 311.611583 22.731813 
L 311.781527 36.54901 
L 312.017687 40.323824 
L 312.375319 34.987967 
L 312.501747 43.227545 
L 312.732977 47.818922 
L 313.090224 50.041908 
L 313.212638 98.986132 
L 313.568273 92.193533 
L 313.805492 90.090685 
L 314.235778 49.821637 
L 314.58015 42.671923 
L 314.701814 32.219785 
L 315.237717 17.393182 
L 315.594079 14.2504 
L 316.016983 20.451774 
L 316.33419 24.13111 
L 316.452034 21.618891 
L 316.695304 40.91208 
L 316.995565 47.429082 
L 317.110027 66.793869 
L 317.763281 83.024428 
L 318.060545 82.693808 
L 318.359189 78.471635 
L 319.49789 30.872879 
L 319.614865 15.199685 
L 319.910478 13.755402 
L 320.14826 7.390854 
L 320.328134 9.32526 
L 320.624731 13.813733 
L 321.340325 45.050818 
L 321.584298 57.470755 
L 321.878065 61.279551 
L 322.117615 70.512128 
L 322.357206 75.199596 
L 322.592008 72.46545 
L 323.070052 54.053038 
L 323.548541 32.050103 
L 323.963903 20.499043 
L 324.083748 10.78682 
L 324.50419 9.297837 
L 324.569671 6.050769 
L 325.098086 24.822329 
L 325.454334 36.19329 
L 325.812051 59.886083 
L 326.051482 61.466499 
L 326.530758 67.464407 
L 326.852363 61.7112 
L 327.242305 57.80289 
L 327.301953 47.531695 
L 328.020226 26.850705 
L 328.256505 27.087251 
L 328.495475 26.581849 
L 328.794246 39.860106 
L 329.171816 44.661073 
L 329.275333 54.032441 
L 329.508337 62.752228 
L 329.745474 60.629108 
L 330.162941 65.114627 
L 330.282264 64.193554 
L 330.580948 60.273393 
L 331.312423 36.316888 
L 331.798258 14.83637 
L 332.248663 11.356157 
L 332.487919 12.997895 
L 333.267721 38.379831 
L 333.502737 49.484044 
L 333.980504 63.214278 
L 334.226045 70.979999 
L 334.581092 68.15105 
L 334.762633 68.56918 
L 335.022935 66.925816 
L 335.469651 58.713038 
L 335.709664 56.978947 
L 336.184852 48.583249 
L 336.423478 50.361016 
L 336.663453 53.181317 
L 336.900926 60.538568 
L 337.317585 65.106258 
L 337.736454 74.372221 
L 337.916816 76.052665 
L 338.161358 71.994195 
L 338.54477 77.019929 
L 338.658091 71.23689 
L 338.944233 69.005424 
L 338.991294 66.475673 
L 339.29103 59.157494 
L 339.410048 59.254387 
L 339.825811 53.639906 
L 340.12328 44.646005 
L 340.421547 41.786612 
L 340.719728 47.685649 
L 340.898441 47.763764 
L 341.13678 48.91009 
L 341.375437 52.622679 
L 341.615004 52.935642 
L 342.091832 56.630095 
L 342.390217 54.711111 
L 342.592547 56.366927 
L 342.865715 54.957121 
L 343.224194 54.609261 
L 343.364331 46.620554 
L 343.819625 35.432086 
L 344.2367 32.771279 
L 344.355474 29.962325 
L 344.654162 30.61208 
L 344.835051 31.856045 
L 345.073439 31.484175 
L 345.381281 33.350394 
L 345.609531 37.094197 
L 345.793405 37.272574 
L 346.084919 45.245619 
L 346.386542 49.28833 
L 346.623265 46.10934 
L 346.800697 49.864444 
L 347.046882 45.502648 
L 347.336523 43.934149 
L 347.812551 43.489435 
L 348.531021 31.694559 
L 348.830156 30.537793 
L 349.025631 33.246582 
L 349.25029 39.485567 
L 349.8421 47.562347 
L 350.139628 48.681793 
L 350.557034 42.68009 
L 350.855204 50.252783 
L 351.272515 47.736368 
L 351.510253 38.630372 
L 351.86755 42.828435 
L 352.048182 31.771334 
L 352.34541 28.769802 
L 352.643325 27.168335 
L 353.001631 40.715584 
L 353.358236 40.088013 
L 353.777296 43.91488 
L 354.192068 43.279711 
L 354.49016 50.357975 
L 354.729169 50.322057 
L 354.967142 51.533728 
L 355.26572 48.10832 
L 355.993376 32.140196 
L 356.230389 31.2501 
L 357.11492 40.217898 
L 357.232346 39.861418 
L 357.414082 44.298705 
L 357.768024 44.906514 
L 358.067321 46.567402 
L 358.200121 51.122134 
L 358.619507 51.125849 
L 358.726755 51.457211 
L 358.964857 48.012459 
L 359.203431 41.874281 
L 359.448191 39.740438 
L 359.739861 38.696825 
L 359.918637 36.55037 
L 360.223373 37.661598 
L 360.464925 41.900012 
L 360.754514 37.82951 
L 360.876193 46.968442 
L 361.129106 48.298932 
L 361.415503 53.35517 
L 362.185637 45.508021 
L 362.424082 41.103596 
L 362.662654 42.550421 
L 362.950189 45.460321 
L 363.20353 35.488868 
L 363.423447 35.922429 
L 363.622003 33.339647 
L 363.916371 38.794816 
L 364.298259 38.845573 
L 364.393153 39.531074 
L 364.630544 39.05568 
L 365.345698 42.976755 
L 365.643635 42.739534 
L 365.941582 49.899821 
L 366.120566 50.369821 
L 366.430486 52.626647 
L 366.661699 49.240476 
L 367.137644 51.034796 
L 367.848153 40.914759 
L 368.328014 37.938938 
L 368.629685 44.328736 
L 368.92628 42.383308 
L 369.34484 43.807759 
L 369.529356 44.628906 
L 369.821758 48.26479 
L 370.240307 45.073392 
L 370.360723 51.075819 
L 370.716213 48.891244 
L 370.778089 46.649933 
L 371.015218 44.768237 
L 371.312315 46.939363 
L 371.555098 42.86903 
L 371.789135 41.743839 
L 372.027824 41.291638 
L 372.325578 43.730833 
L 372.861574 50.901154 
L 373.223258 46.923652 
L 373.397043 42.952942 
L 373.518933 43.777579 
L 373.93445 49.091908 
L 373.993192 42.059594 
L 374.356468 50.489948 
L 374.64956 48.559191 
L 374.71244 43.979311 
L 375.245909 40.451819 
L 375.486534 44.599222 
L 375.841426 44.744136 
L 376.021182 44.414636 
L 376.325316 42.856067 
L 376.501063 32.362654 
L 377.154139 38.400196 
L 377.454122 51.722194 
L 377.691085 50.801009 
L 377.97089 46.105691 
L 378.228234 45.763652 
L 378.467507 45.813151 
L 378.705786 45.050549 
L 379.003346 47.76695 
L 379.182787 43.601402 
L 379.541591 44.253406 
L 379.77876 40.107115 
L 379.957593 40.027556 
L 380.315476 40.03466 
L 380.43452 41.810336 
L 380.67377 42.32709 
L 381.566802 49.429683 
L 381.744983 50.576782 
L 382.170296 43.784555 
L 382.401177 36.748571 
L 382.640935 40.916619 
L 382.938268 40.49721 
L 383.116642 43.386139 
L 383.414778 43.022346 
L 383.653191 41.049593 
L 383.891272 43.296635 
L 384.130172 40.253681 
L 384.36784 43.752048 
L 384.608478 49.014729 
L 385.024513 52.799088 
L 385.141968 52.242727 
L 385.442062 45.422744 
L 385.737779 42.668297 
L 385.982328 38.923152 
L 386.154941 46.348828 
L 386.572481 46.040996 
L 386.633083 46.878445 
L 387.288124 41.016868 
L 387.408358 45.304824 
L 387.704159 40.207922 
L 387.883735 45.973007 
L 388.12156 47.16425 
L 388.360572 50.18619 
L 388.657811 45.434477 
L 388.83674 39.511024 
L 389.078696 36.592344 
L 389.673069 40.633474 
L 389.731908 42.240121 
L 389.85151 42.395692 
L 390.209139 45.097736 
L 390.327434 48.105283 
L 390.866233 39.838569 
L 391.578394 49.528 
L 392.061414 49.586633 
L 392.294363 46.846391 
L 392.534085 49.333622 
L 393.014287 42.891873 
L 393.427847 45.381632 
L 393.65145 37.443562 
L 393.785792 37.246851 
L 394.507191 32.1792 
L 394.798172 30.564099 
L 395.156539 33.146011 
L 395.275553 37.565181 
L 395.574048 38.038488 
L 395.817442 38.914095 
L 396.289007 45.025202 
L 396.468688 47.163453 
L 397.006497 50.397392 
L 397.480824 54.019181 
L 398.01748 47.802753 
L 398.255879 47.073355 
L 398.493969 48.408513 
L 398.732782 41.686054 
L 399.629341 32.227625 
L 399.867123 23.805088 
L 399.986143 27.775154 
L 400.464749 23.55932 
L 401.240795 28.847813 
L 401.775515 40.792898 
L 401.955105 45.71864 
L 402.253688 46.684817 
L 402.431344 55.546626 
L 402.669635 54.125687 
L 402.908526 53.680385 
L 403.162416 55.22041 
L 403.206332 54.977878 
L 403.397622 51.374895 
L 403.633589 53.945517 
L 403.922551 53.042443 
L 404.641312 42.854906 
L 404.947887 34.853428 
L 405.175669 37.5164 
L 405.385104 36.513591 
L 405.65268 36.07291 
L 405.894417 32.643442 
L 406.132636 36.988883 
L 406.426561 37.880425 
L 406.667313 42.576605 
L 406.963223 45.221758 
L 407.144113 44.127085 
L 407.619993 59.188078 
L 407.860801 60.222155 
L 408.217822 60.787701 
L 408.398363 53.671525 
L 408.636507 57.81075 
L 408.917998 55.863759 
L 409.234688 51.354239 
L 409.470635 51.245272 
L 409.589722 43.288092 
L 409.829013 40.250079 
L 410.126347 42.950451 
L 410.42592 41.483622 
L 410.606015 39.088827 
L 410.844374 38.910239 
L 411.320402 33.139374 
L 411.619643 31.967894 
L 411.857209 29.010245 
L 412.096215 31.697524 
L 412.512689 27.770484 
L 412.58546 30.772336 
L 412.87158 33.405157 
L 413.062343 36.700815 
L 414.11483 61.854315 
L 414.472681 66.197695 
L 414.533583 72.729206 
L 415.309724 64.767581 
L 415.96323 58.222139 
L 416.023198 55.95609 
L 416.321581 53.621138 
L 416.563927 52.836746 
L 416.805148 49.955736 
L 417.002271 51.753351 
L 417.276707 47.733996 
L 417.709181 48.783369 
L 417.756951 47.978771 
L 418.530943 41.668253 
L 418.770431 38.466516 
L 419.126668 39.490071 
L 419.724077 46.287396 
L 419.962564 45.755758 
L 420.281437 47.478223 
L 420.501517 49.70099 
L 420.738015 48.754972 
L 420.975057 52.078631 
L 421.214128 52.573135 
L 421.512226 52.843683 
L 421.693249 51.122056 
L 422.225812 47.507898 
L 422.234324 73.497941 
L 422.468961 39.595997 
L 422.825214 40.655654 
L 423.004989 38.936171 
L 423.252127 38.884742 
L 423.484338 37.26 
L 423.840978 37.247201 
L 423.960579 40.211456 
L 424.145321 40.168785 
L 424.43705 42.87435 
L 424.915208 53.902078 
L 425.155055 55.830627 
L 425.574673 52.731988 
L 425.629286 60.963283 
L 425.988437 57.767221 
L 426.172027 58.227183 
L 426.40654 57.070049 
L 426.64547 54.484159 
L 427.065099 51.201101 
L 427.445399 41.506549 
L 427.659166 42.440717 
L 427.90644 40.427133 
L 427.958088 35.168922 
L 428.19698 32.062571 
L 428.436409 32.06146 
L 428.619145 27.296767 
L 428.8559 25.450404 
L 429.151322 25.312196 
L 429.39598 23.715832 
L 429.628082 24.729674 
L 430.10485 44.430899 
L 430.344322 49.877781 
L 430.774626 50.491397 
L 431.121983 60.221372 
L 431.357652 39.045803 
L 431.843497 56.148069 
L 432.095657 57.418866 
L 432.328044 54.85822 
L 432.561897 50.205112 
L 432.821237 53.253214 
L 433.156978 54.661194 
L 433.594031 60.280086 
L 433.87843 58.495922 
L 434.121676 58.830142 
L 434.776173 48.338558 
L 435.198864 51.526474 
L 435.318081 48.199132 
L 435.54992 45.244187 
L 436.163582 31.27566 
L 436.324342 30.457965 
L 436.627299 29.688418 
L 436.862153 32.466308 
L 437.100266 36.934164 
L 437.400723 33.411639 
L 437.640155 39.14865 
L 437.947846 34.450159 
L 438.242412 40.191706 
L 438.507695 47.601997 
L 438.778576 48.793348 
L 439.093849 49.475113 
L 439.259491 50.892765 
L 439.609454 44.853918 
L 439.813723 46.988736 
L 440.027646 44.325616 
L 440.326857 44.547944 
L 440.743769 36.610774 
L 440.985603 35.410632 
L 441.360449 35.718034 
L 441.460589 34.38069 
L 441.817555 34.579488 
L 441.996582 32.837519 
L 442.476381 36.815336 
L 442.882088 33.244272 
L 443.119643 36.537107 
L 443.306995 34.772114 
L 443.537398 40.155253 
L 443.835364 32.019297 
L 444.01571 31.573305 
L 444.193965 34.147807 
L 444.670741 38.165593 
L 445.029606 30.757272 
L 445.21114 31.013875 
L 445.566243 32.982717 
L 445.69185 27.926636 
L 446.223006 34.732384 
L 446.46149 33.375361 
L 446.93948 36.425964 
L 447.182432 35.983488 
L 447.4174 39.317494 
L 447.656135 40.551947 
L 447.904892 34.054823 
L 448.138367 34.742869 
L 448.437338 32.940509 
L 448.625267 34.232684 
L 448.91479 34.663023 
L 449.152725 35.944412 
L 449.392189 41.823786 
L 449.808343 38.747354 
L 449.89612 40.925904 
L 450.16705 42.148616 
L 450.46407 46.237199 
L 450.761942 51.927546 
L 450.94209 50.890567 
L 451.180519 55.078685 
L 451.425902 50.604143 
L 451.658653 48.747124 
L 452.077357 39.29707 
L 452.326715 39.091968 
L 452.613173 31.260481 
L 452.864845 28.827276 
L 453.098099 32.650515 
L 453.469682 31.342894 
L 453.632802 37.501357 
L 453.689602 36.712252 
L 453.809319 36.602279 
L 454.134366 39.329738 
L 454.345201 49.258434 
L 454.765606 51.690952 
L 454.847127 55.879726 
L 455.071869 55.019387 
L 455.300727 57.470379 
L 455.539853 53.565251 
L 455.961335 49.261629 
L 456.150748 44.499563 
L 456.387019 45.142582 
L 456.566905 46.662953 
L 457.700957 32.150448 
L 457.762486 33.461961 
L 458.176246 36.722751 
L 458.295734 29.353482 
L 458.535771 31.694461 
L 458.772737 27.126621 
L 459.18988 24.996716 
L 459.309275 20.763175 
L 459.548312 19.293672 
L 459.792529 19.026107 
L 459.846799 15.95276 
L 460.264394 25.393668 
L 460.505547 20.470934 
L 460.801349 20.107625 
L 460.981197 24.545472 
L 461.461133 27.96538 
L 461.759676 37.94383 
L 461.997667 36.795398 
L 462.240011 42.678096 
L 462.535859 42.019373 
L 462.954361 46.718931 
L 463.252644 48.036605 
L 463.439137 50.568665 
L 463.848593 51.358508 
L 463.995751 49.897347 
L 464.210024 50.042145 
L 464.468285 50.642933 
L 464.68398 50.828906 
L 464.923343 50.577172 
L 465.469677 59.414724 
L 465.710789 57.302085 
L 466.009353 55.851884 
L 466.243917 58.159951 
L 466.483619 55.640295 
L 466.663185 50.932401 
L 466.961408 51.643265 
L 467.199234 47.154758 
L 467.597038 44.259978 
L 467.744427 38.832022 
L 467.921045 41.193848 
L 468.454257 28.848564 
L 468.761166 32.174415 
L 468.931187 31.643198 
L 469.179483 38.197269 
L 469.542461 41.000843 
L 470.435389 58.729999 
L 470.683137 60.016894 
L 471.143739 64.745234 
L 471.389817 65.81062 
L 471.682015 60.871632 
L 471.865224 59.826951 
L 472.16172 57.008737 
L 472.456786 56.213686 
L 472.636186 52.72912 
L 473.054076 55.008546 
L 473.400235 50.931 
L 473.634969 50.067458 
L 473.868197 47.474402 
L 474.170263 42.824647 
L 474.354868 46.542415 
L 474.645427 42.965721 
L 474.949827 37.725585 
L 475.125654 38.582671 
L 475.315542 31.241059 
L 475.601585 25.060273 
L 475.840459 24.597839 
L 476.079329 23.740397 
L 476.317061 22.233591 
L 476.555932 15.981872 
L 476.795462 20.552674 
L 477.212458 19.634971 
L 477.361592 13.101319 
L 477.749946 20.140293 
L 477.868828 19.223883 
L 478.107403 24.661535 
L 478.345862 23.698909 
L 478.643526 27.068706 
L 478.775738 25.911141 
L 479.035221 26.914746 
L 479.305237 32.191124 
L 479.600228 30.04693 
L 479.798874 31.19538 
L 480.01865 30.916258 
L 480.259337 24.777718 
L 480.639147 26.948038 
L 480.797255 25.645818 
L 481.032858 32.433691 
L 481.30086 28.652812 
L 481.594462 27.733883 
L 481.817167 25.903486 
L 482.112202 28.368703 
L 482.54011 22.113372 
L 482.796157 25.274852 
L 483.087039 22.014291 
L 483.208624 25.509914 
L 483.799178 17.206299 
L 484.097273 18.650045 
L 484.216787 16.322482 
L 484.514676 18.284585 
L 484.761105 23.711935 
L 485.008903 18.888813 
L 485.230884 16.975074 
L 485.470722 16.868915 
L 485.76882 20.24779 
L 486.007356 24.670581 
L 486.483328 27.329141 
L 486.721699 30.710959 
L 486.961225 30.458885 
L 488.037454 43.260251 
L 488.214516 46.909224 
L 488.455338 43.974253 
L 488.751713 48.161498 
L 488.931602 48.494567 
L 489.288177 47.490556 
L 489.706772 50.535965 
L 490.005091 51.295988 
L 490.242896 54.005758 
L 490.481391 53.453838 
L 490.683853 53.910485 
L 490.899752 54.965809 
L 491.201618 55.389673 
L 491.494573 51.060258 
L 491.741352 53.716623 
L 491.913287 53.766696 
L 492.154206 48.984047 
L 492.390345 51.22839 
L 492.705805 48.021861 
L 492.884784 48.102008 
L 493.122928 44.732234 
L 493.601015 42.433738 
L 493.66099 44.894591 
L 493.95881 38.990397 
L 494.141209 40.428251 
L 494.380638 39.970621 
L 495.092642 35.478243 
L 495.391562 29.660373 
L 495.688062 27.656205 
L 495.866611 24.543362 
L 496.169394 25.315135 
L 496.407336 22.009708 
L 496.644163 27.743952 
L 496.931081 24.190324 
L 497.122047 23.502024 
L 497.32743 26.042823 
L 497.602808 26.465727 
L 497.947291 25.933134 
L 498.621652 32.96831 
L 498.860584 35.605208 
L 499.099563 34.623503 
L 499.337413 31.580622 
L 500.113488 33.478445 
L 500.293182 25.22437 
L 500.609204 24.833506 
L 500.650281 22.539837 
L 500.829084 18.858016 
L 501.130331 25.426953 
L 501.425955 19.958715 
L 501.604394 20.813004 
L 502.085048 26.214811 
L 502.142852 31.988343 
L 502.321119 29.697787 
L 503.27591 41.461936 
L 503.515493 49.033184 
L 503.872555 50.788989 
L 504.051407 48.48397 
L 504.229888 51.512499 
L 504.650095 49.550796 
L 504.707569 54.904843 
L 505.069486 51.842012 
L 505.311707 52.276849 
L 506.020268 41.423664 
L 506.266043 35.798145 
L 506.569872 36.048146 
L 506.746757 29.876687 
L 506.993307 26.923169 
L 507.231373 22.338991 
L 507.475334 24.468229 
L 507.708032 23.357931 
L 508.005894 25.81569 
L 508.190358 20.404475 
L 508.485193 25.681609 
L 508.787092 14.709489 
L 509.01986 25.853322 
L 509.275368 27.647855 
L 509.498512 19.187144 
L 509.921977 22.70415 
L 509.97473 22.119148 
L 510.21317 24.734016 
L 510.631246 21.97225 
L 510.691646 22.144073 
L 510.932276 22.05385 
L 511.266656 22.278436 
L 511.427141 23.948003 
L 511.731757 24.415683 
L 511.94593 28.802097 
L 512.202575 28.395654 
L 512.662927 35.542011 
L 512.902669 27.40669 
L 513.214663 39.006119 
L 513.619081 31.624248 
L 513.68035 38.070592 
L 513.915563 35.684455 
L 514.571539 39.048232 
L 514.703169 34.662954 
L 514.890518 39.375988 
L 515.247869 34.779137 
L 515.468485 40.821736 
L 515.690172 43.629134 
L 515.918439 49.224667 
L 516.15758 52.100521 
L 516.400242 56.62396 
L 516.762513 51.01327 
L 516.922212 57.560043 
L 517.159528 59.667466 
L 517.51651 61.207924 
L 517.702683 65.866061 
L 517.878201 60.585028 
L 518.173168 58.222184 
L 518.480489 57.722608 
L 518.951708 49.667394 
L 519.130101 51.40202 
L 519.388449 50.160713 
L 519.725267 47.781954 
L 520.141772 54.058828 
L 520.439599 69.539104 
L 520.621899 62.50148 
L 520.859464 68.264995 
L 521.115203 66.297578 
L 521.39507 68.780007 
L 522.117242 54.020664 
L 522.65075 30.15534 
L 522.827932 23.217201 
L 523.266623 20.833278 
L 523.497826 22.635653 
L 523.843711 23.941997 
L 524.857058 48.801821 
L 524.9168 57.849163 
L 525.275559 67.469749 
L 525.403427 74.722813 
L 525.692727 76.942593 
L 526.316015 70.836603 
L 526.596989 56.80918 
L 526.890514 49.77495 
L 527.008656 42.562892 
L 527.314102 35.332343 
L 527.785005 29.686893 
L 527.911085 26.003539 
L 528.28225 23.855318 
L 528.505796 24.228044 
L 528.92995 32.723312 
L 529.533417 51.915077 
L 530.247674 60.436334 
L 530.664454 60.700459 
L 530.905653 59.981009 
L 531.262127 59.87621 
L 531.439707 59.555477 
L 531.621121 59.611581 
L 531.88268 60.40512 
L 532.275662 65.145566 
L 532.708292 69.15802 
L 532.939696 70.316981 
L 533.23581 69.92444 
L 533.470149 70.487661 
L 533.946454 63.981933 
L 534.245028 60.489662 
L 534.720395 48.218791 
L 535.260177 39.078721 
L 535.504579 36.782443 
L 535.801994 36.276198 
L 535.979304 38.698606 
L 537.241818 65.212987 
L 537.57183 69.309774 
L 537.709664 72.484276 
L 537.923297 73.789034 
L 538.187608 72.297738 
L 538.723835 63.174061 
L 538.905185 57.455013 
L 539.439601 50.596805 
L 539.680701 50.133642 
L 540.155601 53.154872 
L 541.177946 65.070204 
L 541.483777 66.093513 
L 541.832702 64.959179 
L 542.137411 60.341824 
L 542.912553 51.214856 
L 543.147255 49.948597 
L 543.385554 50.010261 
L 543.625901 51.471435 
L 544.160754 58.524742 
L 544.699628 67.055732 
L 544.997465 69.250962 
L 545.177199 71.407078 
L 545.716345 73.211855 
L 546.013013 73.015404 
L 546.191021 71.720138 
L 546.562256 64.548288 
L 547.086927 55.434509 
L 547.562717 51.162476 
L 547.800201 49.399081 
L 548.044159 48.814377 
L 548.278888 48.620925 
L 548.57849 48.782179 
L 549.053617 50.888874 
L 549.769221 53.197528 
L 550.306262 53.057888 
L 550.496407 52.523609 
L 550.901628 52.109693 
L 551.101371 52.3207 
L 551.264901 52.078299 
L 551.511124 52.757986 
L 551.737027 53.757683 
L 552.035323 56.119103 
L 552.395465 60.036537 
L 552.516451 63.272746 
L 553.764774 74.398117 
L 554.122134 75.291806 
L 554.326986 76.205238 
L 554.565702 75.690194 
L 554.745389 73.850738 
L 555.281591 72.248905 
L 555.654441 72.318591 
L 555.937535 73.333111 
L 556.23672 72.895177 
L 556.47617 73.726678 
L 556.8397 73.93447 
L 556.966916 73.686432 
L 557.459078 70.722366 
L 557.743454 59.312156 
L 558.43799 41.413668 
L 558.695445 37.009385 
L 559.210968 33.164241 
L 559.509203 33.873168 
L 559.92538 42.319479 
L 560.468553 47.906844 
L 560.652229 53.083017 
L 561.675585 69.70843 
L 561.924237 67.184526 
L 562.153707 63.059297 
L 563.168071 54.577135 
L 563.663332 53.221068 
L 564.063923 54.396819 
L 564.602546 67.4207 
L 564.899658 68.948843 
L 565.099238 69.367449 
L 565.376283 66.769798 
L 566.807687 44.835218 
L 566.871061 40.029817 
L 567.109206 37.770463 
L 567.348511 37.551273 
L 567.602314 39.387673 
L 567.889683 43.318766 
L 568.36386 53.878984 
L 568.905048 62.672991 
L 569.317197 65.781274 
L 569.495961 65.841582 
L 569.556614 64.308862 
L 570.180186 63.5392 
L 570.296782 63.734088 
L 570.596187 63.239711 
L 570.840372 61.400401 
L 571.551927 51.27836 
L 571.854597 51.505992 
L 572.030259 54.848295 
L 572.518413 57.041524 
L 572.804311 55.816973 
L 573.047077 54.128403 
L 573.343047 55.669747 
L 573.705169 59.073762 
L 573.889969 62.853466 
L 574.05876 63.35376 
L 574.970739 54.016567 
L 575.509254 56.628372 
L 575.806683 55.046206 
L 575.982989 52.322621 
L 576.28069 51.780252 
L 576.639918 55.370144 
L 576.819632 60.460782 
L 577.176708 62.154259 
L 577.414148 60.213887 
L 577.715511 51.988368 
L 577.951032 49.311072 
L 578.309387 50.186367 
L 578.55534 52.33251 
L 578.728967 51.946339 
L 579.051607 49.449635 
L 579.234913 47.104967 
L 579.471695 49.019926 
L 579.707111 53.090506 
L 580.001437 55.235591 
L 580.238885 55.784259 
L 580.432509 55.885341 
L 580.954797 54.707967 
L 581.193618 55.019971 
L 581.503861 56.031062 
L 581.67021 54.037507 
L 582.167232 52.317443 
L 582.446877 53.417511 
L 582.685641 53.719469 
L 582.987025 53.192589 
L 583.282015 50.691178 
L 583.519781 47.168957 
L 583.93793 46.253478 
L 584.119675 47.244362 
L 584.35554 51.010935 
L 584.712611 51.829133 
L 585.071395 49.201231 
L 585.399086 50.365452 
L 585.63542 53.712116 
L 585.908154 62.005178 
L 586.150599 62.908563 
L 586.440302 60.687304 
L 586.619088 56.413482 
L 587.158906 50.607206 
L 587.45692 50.17577 
L 587.635596 52.165387 
L 588.119341 51.938876 
L 588.351426 50.940999 
L 588.64969 50.717489 
L 588.888745 52.976249 
L 589.128115 57.33936 
L 589.546397 58.999765 
L 589.849898 56.844457 
L 590.201208 55.180788 
L 590.339608 55.652405 
L 591.098088 53.918813 
L 591.644742 54.421496 
L 591.94111 53.645735 
L 592.179709 55.477076 
L 592.35766 59.515096 
L 592.599352 60.015574 
L 592.95496 58.418602 
L 593.252524 59.868152 
L 593.492874 58.497338 
L 593.612706 56.668445 
L 594.038067 54.791059 
L 594.510253 58.154994 
L 594.863145 58.039803 
L 595.041953 56.705237 
L 595.294118 56.006692 
L 595.520186 54.122137 
L 595.995268 58.219267 
L 596.502813 59.42158 
L 596.502813 59.42158 
" clip-path="url(#p716889715e)" style="fill: none; stroke: #ff0000; stroke-opacity: 0.5; stroke-width: 1.5; stroke-linecap: square"/>
   </g>
   <g id="patch_3">
    <path d="M 38.502813 277.92 
L 38.502813 0.72 
" style="fill: none; stroke: #000000; stroke-width: 0.8; stroke-linejoin: miter; stroke-linecap: square"/>
   </g>
   <g id="patch_4">
    <path d="M 596.502813 277.92 
L 596.502813 0.72 
" style="fill: none; stroke: #000000; stroke-width: 0.8; stroke-linejoin: miter; stroke-linecap: square"/>
   </g>
   <g id="patch_5">
    <path d="M 38.502813 277.92 
L 596.502813 277.92 
" style="fill: none; stroke: #000000; stroke-width: 0.8; stroke-linejoin: miter; stroke-linecap: square"/>
   </g>
   <g id="patch_6">
    <path d="M 38.502813 0.72 
L 596.502813 0.72 
" style="fill: none; stroke: #000000; stroke-width: 0.8; stroke-linejoin: miter; stroke-linecap: square"/>
   </g>
   <g id="legend_1">
    <g id="patch_7">
     <path d="M 45.502813 38.07625 
L 119.271563 38.07625 
Q 121.271563 38.07625 121.271563 36.07625 
L 121.271563 7.72 
Q 121.271563 5.72 119.271563 5.72 
L 45.502813 5.72 
Q 43.502813 5.72 43.502813 7.72 
L 43.502813 36.07625 
Q 43.502813 38.07625 45.502813 38.07625 
z
" style="fill: #ffffff; opacity: 0.8; stroke: #cccccc; stroke-linejoin: miter"/>
    </g>
    <g id="line2d_35">
     <path d="M 47.502813 13.818438 
L 57.502813 13.818438 
L 67.502813 13.818438 
" style="fill: none; stroke: #0000ff; stroke-opacity: 0.5; stroke-width: 1.5; stroke-linecap: square"/>
    </g>
    <g id="text_19">
     <!-- RNEA -->
     <g transform="translate(75.502813 17.318438) scale(0.1 -0.1)">
      <defs>
       <path id="DejaVuSans-52" d="M 2841 2188 
Q 3044 2119 3236 1894 
Q 3428 1669 3622 1275 
L 4263 0 
L 3584 0 
L 2988 1197 
Q 2756 1666 2539 1819 
Q 2322 1972 1947 1972 
L 1259 1972 
L 1259 0 
L 628 0 
L 628 4666 
L 2053 4666 
Q 2853 4666 3247 4331 
Q 3641 3997 3641 3322 
Q 3641 2881 3436 2590 
Q 3231 2300 2841 2188 
z
M 1259 4147 
L 1259 2491 
L 2053 2491 
Q 2509 2491 2742 2702 
Q 2975 2913 2975 3322 
Q 2975 3731 2742 3939 
Q 2509 4147 2053 4147 
L 1259 4147 
z
" transform="scale(0.015625)"/>
       <path id="DejaVuSans-45" d="M 628 4666 
L 3578 4666 
L 3578 4134 
L 1259 4134 
L 1259 2753 
L 3481 2753 
L 3481 2222 
L 1259 2222 
L 1259 531 
L 3634 531 
L 3634 0 
L 628 0 
L 628 4666 
z
" transform="scale(0.015625)"/>
       <path id="DejaVuSans-41" d="M 2188 4044 
L 1331 1722 
L 3047 1722 
L 2188 4044 
z
M 1831 4666 
L 2547 4666 
L 4325 0 
L 3669 0 
L 3244 1197 
L 1141 1197 
L 716 0 
L 50 0 
L 1831 4666 
z
" transform="scale(0.015625)"/>
      </defs>
      <use xlink:href="#DejaVuSans-52"/>
      <use xlink:href="#DejaVuSans-4e" x="69.482422"/>
      <use xlink:href="#DejaVuSans-45" x="144.287109"/>
      <use xlink:href="#DejaVuSans-41" x="207.470703"/>
     </g>
    </g>
    <g id="line2d_36">
     <path d="M 47.502813 28.496563 
L 57.502813 28.496563 
L 67.502813 28.496563 
" style="fill: none; stroke: #ff0000; stroke-opacity: 0.5; stroke-width: 1.5; stroke-linecap: square"/>
    </g>
    <g id="text_20">
     <!-- BURNEA -->
     <g transform="translate(75.502813 31.996563) scale(0.1 -0.1)">
      <defs>
       <path id="DejaVuSans-42" d="M 1259 2228 
L 1259 519 
L 2272 519 
Q 2781 519 3026 730 
Q 3272 941 3272 1375 
Q 3272 1813 3026 2020 
Q 2781 2228 2272 2228 
L 1259 2228 
z
M 1259 4147 
L 1259 2741 
L 2194 2741 
Q 2656 2741 2882 2914 
Q 3109 3088 3109 3444 
Q 3109 3797 2882 3972 
Q 2656 4147 2194 4147 
L 1259 4147 
z
M 628 4666 
L 2241 4666 
Q 2963 4666 3353 4366 
Q 3744 4066 3744 3513 
Q 3744 3084 3544 2831 
Q 3344 2578 2956 2516 
Q 3422 2416 3680 2098 
Q 3938 1781 3938 1306 
Q 3938 681 3513 340 
Q 3088 0 2303 0 
L 628 0 
L 628 4666 
z
" transform="scale(0.015625)"/>
       <path id="DejaVuSans-55" d="M 556 4666 
L 1191 4666 
L 1191 1831 
Q 1191 1081 1462 751 
Q 1734 422 2344 422 
Q 2950 422 3222 751 
Q 3494 1081 3494 1831 
L 3494 4666 
L 4128 4666 
L 4128 1753 
Q 4128 841 3676 375 
Q 3225 -91 2344 -91 
Q 1459 -91 1007 375 
Q 556 841 556 1753 
L 556 4666 
z
" transform="scale(0.015625)"/>
      </defs>
      <use xlink:href="#DejaVuSans-42"/>
      <use xlink:href="#DejaVuSans-55" x="68.603516"/>
      <use xlink:href="#DejaVuSans-52" x="141.796875"/>
      <use xlink:href="#DejaVuSans-4e" x="211.279297"/>
      <use xlink:href="#DejaVuSans-45" x="286.083984"/>
      <use xlink:href="#DejaVuSans-41" x="349.267578"/>
     </g>
    </g>
   </g>
  </g>
 </g>
 <defs>
  <clipPath id="p716889715e">
   <rect x="38.502813" y="0.72" width="558" height="277.2"/>
  </clipPath>
 </defs>
</svg>
