<?xml version="1.0" encoding="utf-8" standalone="no"?>
<!DOCTYPE svg PUBLIC "-//W3C//DTD SVG 1.1//EN"
  "http://www.w3.org/Graphics/SVG/1.1/DTD/svg11.dtd">
<svg xmlns:xlink="http://www.w3.org/1999/xlink" width="355.43952pt" height="175.43952pt" viewBox="0 0 355.43952 175.43952" xmlns="http://www.w3.org/2000/svg" version="1.1">
 <metadata>
  <rdf:RDF xmlns:dc="http://purl.org/dc/elements/1.1/" xmlns:cc="http://creativecommons.org/ns#" xmlns:rdf="http://www.w3.org/1999/02/22-rdf-syntax-ns#">
   <cc:Work>
    <dc:type rdf:resource="http://purl.org/dc/dcmitype/StillImage"/>
    <dc:date>2023-09-09T18:29:44.875024</dc:date>
    <dc:format>image/svg+xml</dc:format>
    <dc:creator>
     <cc:Agent>
      <dc:title>Matplotlib v3.7.2, https://matplotlib.org/</dc:title>
     </cc:Agent>
    </dc:creator>
   </cc:Work>
  </rdf:RDF>
 </metadata>
 <defs>
  <style type="text/css">*{stroke-linejoin: round; stroke-linecap: butt}</style>
 </defs>
 <g id="figure_1">
  <g id="patch_1">
   <path d="M 0 175.43952 
L 355.43952 175.43952 
L 355.43952 0 
L 0 0 
L 0 175.43952 
z
" style="fill: none"/>
  </g>
  <g id="axes_1">
   <g id="patch_2">
    <path d="M 30.123125 148.36327 
L 354.71952 148.36327 
L 354.71952 0.72 
L 30.123125 0.72 
L 30.123125 148.36327 
z
" style="fill: none"/>
   </g>
   <g id="matplotlib.axis_1">
    <g id="xtick_1">
     <g id="line2d_1">
      <path d="M 30.123125 148.36327 
L 30.123125 0.72 
" clip-path="url(#pb742f71f50)" style="fill: none; stroke-dasharray: 0.8,1.32; stroke-dashoffset: 0; stroke: #000000; stroke-opacity: 0.5; stroke-width: 0.8"/>
     </g>
     <g id="line2d_2">
      <defs>
       <path id="m5c23ab32b7" d="M 0 0 
L 0 3.5 
" style="stroke: #000000; stroke-width: 0.8"/>
      </defs>
      <g>
       <use xlink:href="#m5c23ab32b7" x="30.123125" y="148.36327" style="stroke: #000000; stroke-width: 0.8"/>
      </g>
     </g>
     <g id="text_1">
      <!-- 0 -->
      <g transform="translate(26.941875 162.961707) scale(0.1 -0.1)">
       <defs>
        <path id="DejaVuSans-30" d="M 2034 4250 
Q 1547 4250 1301 3770 
Q 1056 3291 1056 2328 
Q 1056 1369 1301 889 
Q 1547 409 2034 409 
Q 2525 409 2770 889 
Q 3016 1369 3016 2328 
Q 3016 3291 2770 3770 
Q 2525 4250 2034 4250 
z
M 2034 4750 
Q 2819 4750 3233 4129 
Q 3647 3509 3647 2328 
Q 3647 1150 3233 529 
Q 2819 -91 2034 -91 
Q 1250 -91 836 529 
Q 422 1150 422 2328 
Q 422 3509 836 4129 
Q 1250 4750 2034 4750 
z
" transform="scale(0.015625)"/>
       </defs>
       <use xlink:href="#DejaVuSans-30"/>
      </g>
     </g>
    </g>
    <g id="xtick_2">
     <g id="line2d_3">
      <path d="M 79.702491 148.36327 
L 79.702491 0.72 
" clip-path="url(#pb742f71f50)" style="fill: none; stroke-dasharray: 0.8,1.32; stroke-dashoffset: 0; stroke: #000000; stroke-opacity: 0.5; stroke-width: 0.8"/>
     </g>
     <g id="line2d_4">
      <g>
       <use xlink:href="#m5c23ab32b7" x="79.702491" y="148.36327" style="stroke: #000000; stroke-width: 0.8"/>
      </g>
     </g>
     <g id="text_2">
      <!-- 5 -->
      <g transform="translate(76.521241 162.961707) scale(0.1 -0.1)">
       <defs>
        <path id="DejaVuSans-35" d="M 691 4666 
L 3169 4666 
L 3169 4134 
L 1269 4134 
L 1269 2991 
Q 1406 3038 1543 3061 
Q 1681 3084 1819 3084 
Q 2600 3084 3056 2656 
Q 3513 2228 3513 1497 
Q 3513 744 3044 326 
Q 2575 -91 1722 -91 
Q 1428 -91 1123 -41 
Q 819 9 494 109 
L 494 744 
Q 775 591 1075 516 
Q 1375 441 1709 441 
Q 2250 441 2565 725 
Q 2881 1009 2881 1497 
Q 2881 1984 2565 2268 
Q 2250 2553 1709 2553 
Q 1456 2553 1204 2497 
Q 953 2441 691 2322 
L 691 4666 
z
" transform="scale(0.015625)"/>
       </defs>
       <use xlink:href="#DejaVuSans-35"/>
      </g>
     </g>
    </g>
    <g id="xtick_3">
     <g id="line2d_5">
      <path d="M 129.281857 148.36327 
L 129.281857 0.72 
" clip-path="url(#pb742f71f50)" style="fill: none; stroke-dasharray: 0.8,1.32; stroke-dashoffset: 0; stroke: #000000; stroke-opacity: 0.5; stroke-width: 0.8"/>
     </g>
     <g id="line2d_6">
      <g>
       <use xlink:href="#m5c23ab32b7" x="129.281857" y="148.36327" style="stroke: #000000; stroke-width: 0.8"/>
      </g>
     </g>
     <g id="text_3">
      <!-- 10 -->
      <g transform="translate(122.919357 162.961707) scale(0.1 -0.1)">
       <defs>
        <path id="DejaVuSans-31" d="M 794 531 
L 1825 531 
L 1825 4091 
L 703 3866 
L 703 4441 
L 1819 4666 
L 2450 4666 
L 2450 531 
L 3481 531 
L 3481 0 
L 794 0 
L 794 531 
z
" transform="scale(0.015625)"/>
       </defs>
       <use xlink:href="#DejaVuSans-31"/>
       <use xlink:href="#DejaVuSans-30" x="63.623047"/>
      </g>
     </g>
    </g>
    <g id="xtick_4">
     <g id="line2d_7">
      <path d="M 178.861223 148.36327 
L 178.861223 0.72 
" clip-path="url(#pb742f71f50)" style="fill: none; stroke-dasharray: 0.8,1.32; stroke-dashoffset: 0; stroke: #000000; stroke-opacity: 0.5; stroke-width: 0.8"/>
     </g>
     <g id="line2d_8">
      <g>
       <use xlink:href="#m5c23ab32b7" x="178.861223" y="148.36327" style="stroke: #000000; stroke-width: 0.8"/>
      </g>
     </g>
     <g id="text_4">
      <!-- 15 -->
      <g transform="translate(172.498723 162.961707) scale(0.1 -0.1)">
       <use xlink:href="#DejaVuSans-31"/>
       <use xlink:href="#DejaVuSans-35" x="63.623047"/>
      </g>
     </g>
    </g>
    <g id="xtick_5">
     <g id="line2d_9">
      <path d="M 228.440589 148.36327 
L 228.440589 0.72 
" clip-path="url(#pb742f71f50)" style="fill: none; stroke-dasharray: 0.8,1.32; stroke-dashoffset: 0; stroke: #000000; stroke-opacity: 0.5; stroke-width: 0.8"/>
     </g>
     <g id="line2d_10">
      <g>
       <use xlink:href="#m5c23ab32b7" x="228.440589" y="148.36327" style="stroke: #000000; stroke-width: 0.8"/>
      </g>
     </g>
     <g id="text_5">
      <!-- 20 -->
      <g transform="translate(222.078089 162.961707) scale(0.1 -0.1)">
       <defs>
        <path id="DejaVuSans-32" d="M 1228 531 
L 3431 531 
L 3431 0 
L 469 0 
L 469 531 
Q 828 903 1448 1529 
Q 2069 2156 2228 2338 
Q 2531 2678 2651 2914 
Q 2772 3150 2772 3378 
Q 2772 3750 2511 3984 
Q 2250 4219 1831 4219 
Q 1534 4219 1204 4116 
Q 875 4013 500 3803 
L 500 4441 
Q 881 4594 1212 4672 
Q 1544 4750 1819 4750 
Q 2544 4750 2975 4387 
Q 3406 4025 3406 3419 
Q 3406 3131 3298 2873 
Q 3191 2616 2906 2266 
Q 2828 2175 2409 1742 
Q 1991 1309 1228 531 
z
" transform="scale(0.015625)"/>
       </defs>
       <use xlink:href="#DejaVuSans-32"/>
       <use xlink:href="#DejaVuSans-30" x="63.623047"/>
      </g>
     </g>
    </g>
    <g id="xtick_6">
     <g id="line2d_11">
      <path d="M 278.019954 148.36327 
L 278.019954 0.72 
" clip-path="url(#pb742f71f50)" style="fill: none; stroke-dasharray: 0.8,1.32; stroke-dashoffset: 0; stroke: #000000; stroke-opacity: 0.5; stroke-width: 0.8"/>
     </g>
     <g id="line2d_12">
      <g>
       <use xlink:href="#m5c23ab32b7" x="278.019954" y="148.36327" style="stroke: #000000; stroke-width: 0.8"/>
      </g>
     </g>
     <g id="text_6">
      <!-- 25 -->
      <g transform="translate(271.657454 162.961707) scale(0.1 -0.1)">
       <use xlink:href="#DejaVuSans-32"/>
       <use xlink:href="#DejaVuSans-35" x="63.623047"/>
      </g>
     </g>
    </g>
    <g id="xtick_7">
     <g id="line2d_13">
      <path d="M 327.59932 148.36327 
L 327.59932 0.72 
" clip-path="url(#pb742f71f50)" style="fill: none; stroke-dasharray: 0.8,1.32; stroke-dashoffset: 0; stroke: #000000; stroke-opacity: 0.5; stroke-width: 0.8"/>
     </g>
     <g id="line2d_14">
      <g>
       <use xlink:href="#m5c23ab32b7" x="327.59932" y="148.36327" style="stroke: #000000; stroke-width: 0.8"/>
      </g>
     </g>
     <g id="text_7">
      <!-- 30 -->
      <g transform="translate(321.23682 162.961707) scale(0.1 -0.1)">
       <defs>
        <path id="DejaVuSans-33" d="M 2597 2516 
Q 3050 2419 3304 2112 
Q 3559 1806 3559 1356 
Q 3559 666 3084 287 
Q 2609 -91 1734 -91 
Q 1441 -91 1130 -33 
Q 819 25 488 141 
L 488 750 
Q 750 597 1062 519 
Q 1375 441 1716 441 
Q 2309 441 2620 675 
Q 2931 909 2931 1356 
Q 2931 1769 2642 2001 
Q 2353 2234 1838 2234 
L 1294 2234 
L 1294 2753 
L 1863 2753 
Q 2328 2753 2575 2939 
Q 2822 3125 2822 3475 
Q 2822 3834 2567 4026 
Q 2313 4219 1838 4219 
Q 1578 4219 1281 4162 
Q 984 4106 628 3988 
L 628 4550 
Q 988 4650 1302 4700 
Q 1616 4750 1894 4750 
Q 2613 4750 3031 4423 
Q 3450 4097 3450 3541 
Q 3450 3153 3228 2886 
Q 3006 2619 2597 2516 
z
" transform="scale(0.015625)"/>
       </defs>
       <use xlink:href="#DejaVuSans-33"/>
       <use xlink:href="#DejaVuSans-30" x="63.623047"/>
      </g>
     </g>
    </g>
    <g id="text_8">
     <!-- Zeit [s] -->
     <g transform="translate(174.475229 172.639832) scale(0.1 -0.1)">
      <defs>
       <path id="DejaVuSans-5a" d="M 359 4666 
L 4025 4666 
L 4025 4184 
L 1075 531 
L 4097 531 
L 4097 0 
L 288 0 
L 288 481 
L 3238 4134 
L 359 4134 
L 359 4666 
z
" transform="scale(0.015625)"/>
       <path id="DejaVuSans-65" d="M 3597 1894 
L 3597 1613 
L 953 1613 
Q 991 1019 1311 708 
Q 1631 397 2203 397 
Q 2534 397 2845 478 
Q 3156 559 3463 722 
L 3463 178 
Q 3153 47 2828 -22 
Q 2503 -91 2169 -91 
Q 1331 -91 842 396 
Q 353 884 353 1716 
Q 353 2575 817 3079 
Q 1281 3584 2069 3584 
Q 2775 3584 3186 3129 
Q 3597 2675 3597 1894 
z
M 3022 2063 
Q 3016 2534 2758 2815 
Q 2500 3097 2075 3097 
Q 1594 3097 1305 2825 
Q 1016 2553 972 2059 
L 3022 2063 
z
" transform="scale(0.015625)"/>
       <path id="DejaVuSans-69" d="M 603 3500 
L 1178 3500 
L 1178 0 
L 603 0 
L 603 3500 
z
M 603 4863 
L 1178 4863 
L 1178 4134 
L 603 4134 
L 603 4863 
z
" transform="scale(0.015625)"/>
       <path id="DejaVuSans-74" d="M 1172 4494 
L 1172 3500 
L 2356 3500 
L 2356 3053 
L 1172 3053 
L 1172 1153 
Q 1172 725 1289 603 
Q 1406 481 1766 481 
L 2356 481 
L 2356 0 
L 1766 0 
Q 1100 0 847 248 
Q 594 497 594 1153 
L 594 3053 
L 172 3053 
L 172 3500 
L 594 3500 
L 594 4494 
L 1172 4494 
z
" transform="scale(0.015625)"/>
       <path id="DejaVuSans-20" transform="scale(0.015625)"/>
       <path id="DejaVuSans-5b" d="M 550 4863 
L 1875 4863 
L 1875 4416 
L 1125 4416 
L 1125 -397 
L 1875 -397 
L 1875 -844 
L 550 -844 
L 550 4863 
z
" transform="scale(0.015625)"/>
       <path id="DejaVuSans-73" d="M 2834 3397 
L 2834 2853 
Q 2591 2978 2328 3040 
Q 2066 3103 1784 3103 
Q 1356 3103 1142 2972 
Q 928 2841 928 2578 
Q 928 2378 1081 2264 
Q 1234 2150 1697 2047 
L 1894 2003 
Q 2506 1872 2764 1633 
Q 3022 1394 3022 966 
Q 3022 478 2636 193 
Q 2250 -91 1575 -91 
Q 1294 -91 989 -36 
Q 684 19 347 128 
L 347 722 
Q 666 556 975 473 
Q 1284 391 1588 391 
Q 1994 391 2212 530 
Q 2431 669 2431 922 
Q 2431 1156 2273 1281 
Q 2116 1406 1581 1522 
L 1381 1569 
Q 847 1681 609 1914 
Q 372 2147 372 2553 
Q 372 3047 722 3315 
Q 1072 3584 1716 3584 
Q 2034 3584 2315 3537 
Q 2597 3491 2834 3397 
z
" transform="scale(0.015625)"/>
       <path id="DejaVuSans-5d" d="M 1947 4863 
L 1947 -844 
L 622 -844 
L 622 -397 
L 1369 -397 
L 1369 4416 
L 622 4416 
L 622 4863 
L 1947 4863 
z
" transform="scale(0.015625)"/>
      </defs>
      <use xlink:href="#DejaVuSans-5a"/>
      <use xlink:href="#DejaVuSans-65" x="68.505859"/>
      <use xlink:href="#DejaVuSans-69" x="130.029297"/>
      <use xlink:href="#DejaVuSans-74" x="157.8125"/>
      <use xlink:href="#DejaVuSans-20" x="197.021484"/>
      <use xlink:href="#DejaVuSans-5b" x="228.808594"/>
      <use xlink:href="#DejaVuSans-73" x="267.822266"/>
      <use xlink:href="#DejaVuSans-5d" x="319.921875"/>
     </g>
    </g>
   </g>
   <g id="matplotlib.axis_2">
    <g id="ytick_1">
     <g id="line2d_15">
      <path d="M 30.123125 147.861353 
L 354.71952 147.861353 
" clip-path="url(#pb742f71f50)" style="fill: none; stroke-dasharray: 0.8,1.32; stroke-dashoffset: 0; stroke: #000000; stroke-opacity: 0.5; stroke-width: 0.8"/>
     </g>
     <g id="line2d_16">
      <defs>
       <path id="ma03aee6100" d="M 0 0 
L -3.5 0 
" style="stroke: #000000; stroke-width: 0.8"/>
      </defs>
      <g>
       <use xlink:href="#ma03aee6100" x="30.123125" y="147.861353" style="stroke: #000000; stroke-width: 0.8"/>
      </g>
     </g>
     <g id="text_9">
      <!-- 0 -->
      <g transform="translate(16.760625 151.660571) scale(0.1 -0.1)">
       <use xlink:href="#DejaVuSans-30"/>
      </g>
     </g>
    </g>
    <g id="ytick_2">
     <g id="line2d_17">
      <path d="M 30.123125 108.291249 
L 354.71952 108.291249 
" clip-path="url(#pb742f71f50)" style="fill: none; stroke-dasharray: 0.8,1.32; stroke-dashoffset: 0; stroke: #000000; stroke-opacity: 0.5; stroke-width: 0.8"/>
     </g>
     <g id="line2d_18">
      <g>
       <use xlink:href="#ma03aee6100" x="30.123125" y="108.291249" style="stroke: #000000; stroke-width: 0.8"/>
      </g>
     </g>
     <g id="text_10">
      <!-- 10 -->
      <g transform="translate(10.398125 112.090467) scale(0.1 -0.1)">
       <use xlink:href="#DejaVuSans-31"/>
       <use xlink:href="#DejaVuSans-30" x="63.623047"/>
      </g>
     </g>
    </g>
    <g id="ytick_3">
     <g id="line2d_19">
      <path d="M 30.123125 68.721145 
L 354.71952 68.721145 
" clip-path="url(#pb742f71f50)" style="fill: none; stroke-dasharray: 0.8,1.32; stroke-dashoffset: 0; stroke: #000000; stroke-opacity: 0.5; stroke-width: 0.8"/>
     </g>
     <g id="line2d_20">
      <g>
       <use xlink:href="#ma03aee6100" x="30.123125" y="68.721145" style="stroke: #000000; stroke-width: 0.8"/>
      </g>
     </g>
     <g id="text_11">
      <!-- 20 -->
      <g transform="translate(10.398125 72.520363) scale(0.1 -0.1)">
       <use xlink:href="#DejaVuSans-32"/>
       <use xlink:href="#DejaVuSans-30" x="63.623047"/>
      </g>
     </g>
    </g>
    <g id="ytick_4">
     <g id="line2d_21">
      <path d="M 30.123125 29.151041 
L 354.71952 29.151041 
" clip-path="url(#pb742f71f50)" style="fill: none; stroke-dasharray: 0.8,1.32; stroke-dashoffset: 0; stroke: #000000; stroke-opacity: 0.5; stroke-width: 0.8"/>
     </g>
     <g id="line2d_22">
      <g>
       <use xlink:href="#ma03aee6100" x="30.123125" y="29.151041" style="stroke: #000000; stroke-width: 0.8"/>
      </g>
     </g>
     <g id="text_12">
      <!-- 30 -->
      <g transform="translate(10.398125 32.95026) scale(0.1 -0.1)">
       <use xlink:href="#DejaVuSans-33"/>
       <use xlink:href="#DejaVuSans-30" x="63.623047"/>
      </g>
     </g>
    </g>
    <g id="text_13">
     <!-- 2-Norm M [Nm] -->
     <g transform="translate(8.318438 113.16976) rotate(-90) scale(0.1 -0.1)">
      <defs>
       <path id="DejaVuSans-2d" d="M 313 2009 
L 1997 2009 
L 1997 1497 
L 313 1497 
L 313 2009 
z
" transform="scale(0.015625)"/>
       <path id="DejaVuSans-4e" d="M 628 4666 
L 1478 4666 
L 3547 763 
L 3547 4666 
L 4159 4666 
L 4159 0 
L 3309 0 
L 1241 3903 
L 1241 0 
L 628 0 
L 628 4666 
z
" transform="scale(0.015625)"/>
       <path id="DejaVuSans-6f" d="M 1959 3097 
Q 1497 3097 1228 2736 
Q 959 2375 959 1747 
Q 959 1119 1226 758 
Q 1494 397 1959 397 
Q 2419 397 2687 759 
Q 2956 1122 2956 1747 
Q 2956 2369 2687 2733 
Q 2419 3097 1959 3097 
z
M 1959 3584 
Q 2709 3584 3137 3096 
Q 3566 2609 3566 1747 
Q 3566 888 3137 398 
Q 2709 -91 1959 -91 
Q 1206 -91 779 398 
Q 353 888 353 1747 
Q 353 2609 779 3096 
Q 1206 3584 1959 3584 
z
" transform="scale(0.015625)"/>
       <path id="DejaVuSans-72" d="M 2631 2963 
Q 2534 3019 2420 3045 
Q 2306 3072 2169 3072 
Q 1681 3072 1420 2755 
Q 1159 2438 1159 1844 
L 1159 0 
L 581 0 
L 581 3500 
L 1159 3500 
L 1159 2956 
Q 1341 3275 1631 3429 
Q 1922 3584 2338 3584 
Q 2397 3584 2469 3576 
Q 2541 3569 2628 3553 
L 2631 2963 
z
" transform="scale(0.015625)"/>
       <path id="DejaVuSans-6d" d="M 3328 2828 
Q 3544 3216 3844 3400 
Q 4144 3584 4550 3584 
Q 5097 3584 5394 3201 
Q 5691 2819 5691 2113 
L 5691 0 
L 5113 0 
L 5113 2094 
Q 5113 2597 4934 2840 
Q 4756 3084 4391 3084 
Q 3944 3084 3684 2787 
Q 3425 2491 3425 1978 
L 3425 0 
L 2847 0 
L 2847 2094 
Q 2847 2600 2669 2842 
Q 2491 3084 2119 3084 
Q 1678 3084 1418 2786 
Q 1159 2488 1159 1978 
L 1159 0 
L 581 0 
L 581 3500 
L 1159 3500 
L 1159 2956 
Q 1356 3278 1631 3431 
Q 1906 3584 2284 3584 
Q 2666 3584 2933 3390 
Q 3200 3197 3328 2828 
z
" transform="scale(0.015625)"/>
       <path id="DejaVuSans-4d" d="M 628 4666 
L 1569 4666 
L 2759 1491 
L 3956 4666 
L 4897 4666 
L 4897 0 
L 4281 0 
L 4281 4097 
L 3078 897 
L 2444 897 
L 1241 4097 
L 1241 0 
L 628 0 
L 628 4666 
z
" transform="scale(0.015625)"/>
      </defs>
      <use xlink:href="#DejaVuSans-32"/>
      <use xlink:href="#DejaVuSans-2d" x="63.623047"/>
      <use xlink:href="#DejaVuSans-4e" x="99.707031"/>
      <use xlink:href="#DejaVuSans-6f" x="174.511719"/>
      <use xlink:href="#DejaVuSans-72" x="235.693359"/>
      <use xlink:href="#DejaVuSans-6d" x="275.056641"/>
      <use xlink:href="#DejaVuSans-20" x="372.46875"/>
      <use xlink:href="#DejaVuSans-4d" x="404.255859"/>
      <use xlink:href="#DejaVuSans-20" x="490.535156"/>
      <use xlink:href="#DejaVuSans-5b" x="522.322266"/>
      <use xlink:href="#DejaVuSans-4e" x="561.335938"/>
      <use xlink:href="#DejaVuSans-6d" x="636.140625"/>
      <use xlink:href="#DejaVuSans-5d" x="733.552734"/>
     </g>
    </g>
   </g>
   <g id="line2d_23">
    <path d="M 30.123125 144.982126 
L 354.71952 144.982126 
L 354.71952 144.982126 
" clip-path="url(#pb742f71f50)" style="fill: none; stroke: #0000ff; stroke-opacity: 0.5; stroke-width: 2.1; stroke-linecap: square"/>
   </g>
   <g id="line2d_24">
    <path d="M 30.123125 10.602034 
L 30.364361 7.663105 
L 30.47021 8.031249 
L 30.4878 9.795315 
L 30.546955 9.100139 
L 30.629382 9.310091 
L 30.687258 12.050317 
L 30.765061 11.700677 
L 30.845507 11.008908 
L 30.946396 11.280763 
L 31.032842 10.724633 
L 31.124924 12.74246 
L 31.18462 12.618112 
L 31.34463 11.048646 
L 31.425094 11.752354 
L 31.545135 10.996072 
L 31.684716 12.472716 
L 31.764146 11.17143 
L 31.864299 11.511641 
L 32.004006 10.853581 
L 32.203083 13.17314 
L 32.683954 10.086254 
L 32.82369 10.47149 
L 32.846649 11.408011 
L 32.923732 10.605976 
L 33.16442 9.151404 
L 33.2477 9.444647 
L 33.422846 11.180103 
L 33.50272 11.077594 
L 33.824002 7.339578 
L 33.989716 9.673433 
L 34.073328 9.649557 
L 34.165727 8.133851 
L 34.22968 8.473204 
L 34.326168 8.269732 
L 34.565858 9.881169 
L 34.653763 10.894898 
L 34.731021 9.857669 
L 34.825192 10.082133 
L 34.927347 10.066501 
L 34.986625 10.383034 
L 35.065763 9.768737 
L 35.224838 11.112646 
L 35.391987 9.560756 
L 35.567679 10.624797 
L 35.647645 9.851681 
L 35.888143 12.719389 
L 36.048044 11.528357 
L 36.129506 12.121082 
L 36.212465 12.094471 
L 36.308501 11.625543 
L 36.388445 12.0699 
L 36.469042 13.226576 
L 36.548546 13.002369 
L 36.62911 11.799221 
L 36.720695 11.806947 
L 36.792211 12.507651 
L 36.968114 11.908032 
L 37.143517 12.276676 
L 37.209434 11.438561 
L 37.290657 11.841029 
L 37.369237 11.775424 
L 37.529163 11.092458 
L 37.628435 11.589238 
L 37.789405 13.279089 
L 38.211319 9.998237 
L 38.288606 10.89698 
L 38.451804 8.982081 
L 38.531228 9.132153 
L 38.610803 9.147729 
L 38.770686 10.086415 
L 38.890739 11.644589 
L 38.97084 11.241253 
L 39.07042 11.506682 
L 39.190527 9.354932 
L 39.330234 10.841896 
L 39.609234 5.743377 
L 39.689589 6.887905 
L 39.769676 7.338458 
L 39.931841 10.783203 
L 40.095616 8.76271 
L 40.178818 9.066934 
L 40.43196 11.471656 
L 40.593994 11.549026 
L 40.772197 10.166053 
L 40.856948 10.006096 
L 40.938598 10.484187 
L 41.197826 9.401878 
L 41.259816 9.626604 
L 41.341655 9.542359 
L 41.523472 11.394377 
L 41.591273 10.893283 
L 41.673017 10.912579 
L 41.780429 10.861497 
L 41.853462 10.589497 
L 41.951695 9.692746 
L 42.094045 12.119136 
L 42.135316 12.991148 
L 42.207843 12.83858 
L 42.296647 11.257371 
L 42.435995 9.980051 
L 42.517122 9.872417 
L 42.616536 10.035245 
L 42.776221 11.426034 
L 43.016209 8.591015 
L 43.178247 10.651216 
L 43.256609 11.143224 
L 43.502907 9.052406 
L 43.615842 9.628316 
L 43.717391 9.572961 
L 43.817649 11.795562 
L 44.008058 8.914606 
L 44.076291 8.995635 
L 44.344617 11.082582 
L 44.754761 7.172475 
L 44.815002 7.387561 
L 45.056394 7.859774 
L 45.214632 9.43459 
L 45.294317 8.928588 
L 45.39497 9.940086 
L 45.634787 13.969362 
L 45.734198 13.697126 
L 45.939127 11.389697 
L 45.973727 10.085556 
L 46.05419 10.107228 
L 46.133987 10.467992 
L 46.234064 9.961245 
L 46.473833 7.555267 
L 46.55325 7.83077 
L 46.932848 11.770956 
L 47.040355 9.568236 
L 47.131889 10.644353 
L 47.6565 6.447846 
L 47.713254 6.935787 
L 47.793192 8.962918 
L 47.886452 8.870213 
L 47.953256 7.360212 
L 48.152362 7.884789 
L 48.212926 7.620152 
L 48.372108 9.187942 
L 48.652699 6.975231 
L 48.713324 7.437342 
L 48.792961 9.220473 
L 48.872789 8.863125 
L 48.992518 8.81296 
L 49.172432 7.845096 
L 49.587388 8.889476 
L 49.612499 8.721755 
L 49.693129 8.356417 
L 49.79343 8.482646 
L 49.995773 7.267505 
L 50.037361 7.277383 
L 50.217357 9.537933 
L 50.371543 8.359371 
L 50.512549 8.683312 
L 50.57818 9.140926 
L 50.623186 8.457565 
L 50.623271 9.149883 
L 50.702802 8.779733 
L 50.794027 8.560125 
L 50.936776 8.560217 
L 50.974062 8.87656 
L 50.995162 8.057965 
L 51.073616 8.173843 
L 51.166748 9.244172 
L 51.186028 8.807138 
L 51.266181 9.342381 
L 51.361616 8.611975 
L 51.45341 8.645625 
L 51.571304 9.14526 
L 51.686203 9.121377 
L 51.769749 9.459688 
L 51.928792 8.406822 
L 52.047938 9.731892 
L 52.088077 7.525697 
L 52.168563 7.979466 
L 52.428154 13.810272 
L 52.507604 12.360176 
L 52.667737 10.089147 
L 52.787469 10.715077 
L 52.851538 8.731669 
L 52.928647 9.458112 
L 53.112483 10.667698 
L 53.131576 10.774043 
L 53.273203 9.61076 
L 53.352984 8.83043 
L 53.410845 8.872912 
L 53.61095 9.196914 
L 53.690996 10.521292 
L 53.752098 10.419435 
L 53.832993 9.552647 
L 53.977958 9.262209 
L 54.07141 7.944931 
L 54.2506 9.010652 
L 54.432195 10.827327 
L 54.512472 10.37456 
L 54.655924 12.289972 
L 54.752032 12.360523 
L 54.991934 13.81971 
L 55.011056 13.502811 
L 55.870272 10.210981 
L 56.336477 9.917954 
L 56.772244 10.174752 
L 56.789902 11.119936 
L 56.869332 10.650216 
L 56.969798 9.607674 
L 57.130511 11.53172 
L 57.429782 5.96239 
L 57.451364 7.249432 
L 57.690662 7.989711 
L 57.709441 9.14638 
L 57.848991 9.931023 
L 57.99166 7.81924 
L 58.269322 10.565355 
L 58.452709 7.953741 
L 58.53759 7.514453 
L 58.689778 8.139107 
L 58.889759 12.819325 
L 58.950215 12.623742 
L 59.048542 11.151029 
L 59.237005 13.335746 
L 59.348709 13.292429 
L 59.44853 11.067277 
L 59.530715 10.330019 
L 59.649257 10.36952 
L 59.688755 10.577231 
L 59.908566 12.78087 
L 60.128665 11.382251 
L 60.234343 12.090493 
L 60.288458 11.725442 
L 60.369438 10.062663 
L 60.444464 10.861545 
L 60.564548 11.100548 
L 60.844359 9.778255 
L 60.924696 9.875049 
L 61.103846 10.625971 
L 61.184095 10.500624 
L 61.363537 9.739375 
L 61.444486 9.376509 
L 61.504065 9.824184 
L 61.683171 9.09771 
L 61.763453 9.25111 
L 61.865503 9.354973 
L 62.022692 10.792936 
L 62.183541 9.504593 
L 62.32258 10.317884 
L 62.50353 13.721591 
L 62.604185 13.447958 
L 62.825246 11.335333 
L 63.003818 12.651497 
L 63.163337 9.014457 
L 63.302242 8.432709 
L 63.322045 7.671656 
L 63.424058 8.497474 
L 63.594409 8.796808 
L 63.594743 8.416454 
L 63.69266 10.021843 
L 64.071416 6.770294 
L 64.269648 4.101144 
L 64.349724 4.179287 
L 64.569468 5.293549 
L 64.82922 8.42238 
L 64.928701 10.091235 
L 65.068505 13.555041 
L 65.309837 12.516021 
L 65.468758 13.071556 
L 65.56657 12.169431 
L 65.651381 12.208737 
L 65.727973 11.767977 
L 65.887125 8.84945 
L 66.127646 8.347674 
L 66.23176 7.207256 
L 66.307598 7.559304 
L 66.467151 6.042856 
L 66.547955 6.089183 
L 66.72842 9.655779 
L 66.849143 10.156312 
L 66.868142 9.24852 
L 66.986989 9.220612 
L 67.047333 9.725351 
L 67.128189 9.326701 
L 67.207233 10.587444 
L 67.366775 11.257999 
L 67.488197 8.317054 
L 67.807193 10.534174 
L 67.866389 9.964547 
L 68.007479 9.719934 
L 68.128343 8.804403 
L 68.246236 9.962979 
L 68.326964 9.710656 
L 68.386312 8.784679 
L 68.470277 9.087507 
L 68.543636 9.946015 
L 68.694943 6.939443 
L 68.87879 8.488575 
L 69.151844 11.89061 
L 69.271166 10.830075 
L 69.371441 11.027801 
L 69.489118 13.040791 
L 69.535408 15.885196 
L 69.61213 14.927125 
L 69.692481 13.673327 
L 69.773645 13.706991 
L 69.857788 14.763906 
L 69.935129 13.870395 
L 70.193092 15.747412 
L 70.413074 15.762705 
L 70.4327 12.754113 
L 70.513555 14.71377 
L 70.653449 13.357129 
L 70.773218 10.855473 
L 70.852815 10.831135 
L 71.004966 10.579017 
L 71.094003 7.781685 
L 71.171812 9.282302 
L 71.191647 9.102826 
L 71.32076 8.232823 
L 71.357219 6.765964 
L 71.512379 8.86769 
L 71.593747 10.044337 
L 71.757166 9.96283 
L 71.832279 9.794564 
L 72.053453 12.803534 
L 72.093395 12.880481 
L 72.255061 13.540709 
L 72.334463 13.51194 
L 72.515078 12.408001 
L 72.617661 12.626118 
L 72.662561 13.315525 
L 72.775183 12.448335 
L 72.83537 10.980658 
L 72.985944 11.422811 
L 73.154661 13.44019 
L 73.174398 12.836998 
L 73.304471 12.701635 
L 73.347959 12.855422 
L 73.755519 17.095584 
L 74.240079 10.54072 
L 74.338844 10.474506 
L 74.418887 10.178046 
L 74.483247 9.352323 
L 74.578274 9.386421 
L 74.738373 7.584648 
L 74.817956 7.964548 
L 75.063662 9.838824 
L 75.079296 7.510066 
L 75.159551 9.579739 
L 75.220434 9.645681 
L 75.341211 10.381704 
L 75.399945 9.278239 
L 75.501329 10.100078 
L 75.580244 11.796782 
L 75.643856 11.544645 
L 75.742222 9.418354 
L 75.759241 10.751751 
L 75.89978 11.946181 
L 76.141541 9.347361 
L 76.341916 11.311276 
L 76.483924 10.04436 
L 76.541153 11.524121 
L 76.722478 10.439934 
L 76.821932 11.538443 
L 76.90606 11.292059 
L 76.96226 11.229227 
L 77.122621 9.64068 
L 77.266637 9.755353 
L 77.286295 10.011901 
L 77.389333 9.068131 
L 77.466551 9.211362 
L 77.54861 9.620067 
L 77.785387 7.865087 
L 78.285716 11.336217 
L 78.370479 11.103525 
L 78.445807 10.497424 
L 78.545847 10.735336 
L 78.704721 12.370976 
L 78.791937 11.663132 
L 79.034353 8.630364 
L 79.190854 7.856357 
L 79.347364 10.586557 
L 79.427139 10.439124 
L 79.546651 8.549329 
L 79.606919 8.911717 
L 79.786098 7.04995 
L 80.436692 13.346186 
L 80.577824 14.143108 
L 80.627451 13.979062 
L 81.087084 9.553023 
L 81.269251 8.752347 
L 81.367773 8.782045 
L 81.528457 10.899108 
L 81.667391 10.151814 
L 81.926801 11.506312 
L 82.046845 11.279242 
L 82.106423 11.673393 
L 82.187753 11.497866 
L 82.24696 10.745885 
L 82.427646 12.267074 
L 82.630564 11.137404 
L 82.708521 11.338846 
L 82.928848 12.55784 
L 82.992096 14.029372 
L 83.069614 13.769475 
L 83.269716 12.584151 
L 83.444783 13.747455 
L 83.579388 10.687254 
L 83.590178 10.926268 
L 83.68548 11.725379 
L 83.771663 11.820328 
L 83.951801 9.545327 
L 83.997143 10.758125 
L 84.231088 8.61205 
L 84.391371 8.552286 
L 84.453575 9.247011 
L 84.558547 8.132319 
L 84.735049 8.486248 
L 84.81604 7.6146 
L 84.894205 8.666212 
L 84.973968 8.474791 
L 85.054889 8.11343 
L 85.137096 9.021845 
L 85.235891 9.231672 
L 85.321458 10.721008 
L 85.394409 9.367401 
L 85.473544 9.763596 
L 85.80633 11.64091 
L 85.97295 11.342211 
L 86.054644 11.763117 
L 86.132238 10.268048 
L 86.217556 10.533707 
L 86.294994 11.119041 
L 86.551719 8.569525 
L 86.632705 8.642291 
L 86.711779 8.867515 
L 86.87373 7.970481 
L 87.05163 11.047745 
L 87.29192 8.799281 
L 87.451837 9.666271 
L 87.531399 9.514986 
L 87.712323 10.146659 
L 87.872761 8.742374 
L 87.951673 8.9956 
L 88.114437 11.046785 
L 88.291745 9.103402 
L 88.701144 7.200385 
L 88.852753 8.443853 
L 88.933564 8.362303 
L 89.053088 10.751196 
L 89.110977 10.152167 
L 89.194534 8.767552 
L 89.370518 10.643583 
L 89.431994 9.905721 
L 89.519832 10.882877 
L 89.691008 8.795577 
L 89.771018 8.877566 
L 89.853248 8.690957 
L 90.011862 10.87039 
L 90.092481 10.650263 
L 90.193044 9.581963 
L 90.257785 9.772968 
L 90.35383 10.065955 
L 90.431932 11.214974 
L 90.513371 10.614696 
L 90.605811 10.784868 
L 90.612363 9.500065 
L 90.673219 9.592357 
L 90.853565 7.98095 
L 91.094088 9.932898 
L 91.154121 9.401296 
L 91.174724 9.674748 
L 91.25601 9.73844 
L 91.443354 10.933628 
L 91.535827 10.265101 
L 91.595361 10.313429 
L 91.675883 11.02779 
L 91.835323 9.273815 
L 91.914969 10.654348 
L 92.076192 9.311628 
L 92.19979 10.527062 
L 92.259192 10.065404 
L 92.34187 10.457784 
L 92.439987 12.855681 
L 92.499247 12.320245 
L 92.639404 12.230555 
L 92.739308 9.665768 
L 92.919665 9.738453 
L 92.999572 10.207982 
L 93.019695 9.553853 
L 93.261208 10.083437 
L 93.340886 9.525833 
L 93.361331 8.31909 
L 93.42229 8.98705 
L 93.800387 13.195003 
L 93.820891 12.773604 
L 93.901644 12.451177 
L 94.002153 12.59511 
L 94.062482 11.521682 
L 94.080592 12.83341 
L 94.161444 12.914614 
L 94.341752 13.987695 
L 94.361208 12.677535 
L 94.480383 12.758306 
L 94.559869 10.044364 
L 94.6407 10.554909 
L 94.720503 9.536152 
L 94.841444 9.489459 
L 94.921463 10.113029 
L 94.940317 8.610177 
L 95.022446 9.697043 
L 95.120948 8.372077 
L 95.180525 9.288124 
L 95.280848 9.047729 
L 95.382214 10.24005 
L 95.501087 9.644017 
L 95.58195 10.681271 
L 95.641183 8.960849 
L 96.056357 11.836829 
L 96.119899 11.433136 
L 96.160244 11.197208 
L 96.299719 11.502542 
L 96.349579 11.344266 
L 96.419382 12.740089 
L 96.499636 13.754232 
L 96.58111 12.082318 
L 96.720071 12.720477 
L 96.743306 13.538403 
L 96.800113 11.454392 
L 96.880105 12.006282 
L 97.108186 11.678914 
L 97.130212 12.392237 
L 97.204922 11.235706 
L 97.382111 12.641805 
L 97.548551 11.250718 
L 97.622847 12.040367 
L 98.224589 8.340655 
L 98.303194 9.494152 
L 98.364145 9.252307 
L 98.461884 8.16684 
L 98.522724 8.913447 
L 98.684382 9.369344 
L 98.722736 10.255337 
L 98.94094 9.021611 
L 99.061068 9.211256 
L 99.145608 9.565479 
L 99.209282 9.497546 
L 99.360608 11.267068 
L 99.442723 10.408192 
L 99.520642 10.497205 
L 99.642229 10.798363 
L 99.704028 11.253629 
L 99.783278 10.828309 
L 99.865232 11.973834 
L 100.063625 10.44718 
L 100.163636 9.902988 
L 100.184012 10.304599 
L 100.663699 14.649781 
L 100.706114 13.04915 
L 100.803523 13.538164 
L 100.865027 14.670412 
L 101.043085 13.548044 
L 101.18327 12.600596 
L 101.26966 13.048109 
L 101.342661 12.100381 
L 101.503423 12.400519 
L 101.682355 11.093426 
L 101.843873 11.620046 
L 101.922462 11.503379 
L 102.222143 8.965342 
L 102.342225 10.054228 
L 102.76566 8.511044 
L 102.963939 9.546538 
L 103.003314 9.217881 
L 103.166419 9.601349 
L 103.254085 9.177958 
L 103.324454 9.377487 
L 103.46433 9.949025 
L 103.54782 9.525868 
L 103.66332 8.463644 
L 103.850359 7.991563 
L 103.903207 7.954062 
L 104.067574 9.514377 
L 104.157515 11.4436 
L 104.243579 10.33842 
L 104.571889 13.665689 
L 104.803899 13.792299 
L 104.886842 11.157264 
L 104.984418 10.697267 
L 105.154391 12.202185 
L 105.30957 10.352591 
L 105.38448 10.415645 
L 105.563634 9.823344 
L 105.724446 11.510932 
L 105.804142 10.505248 
L 105.883668 10.515133 
L 106.382565 13.298889 
L 106.543398 12.675877 
L 106.623624 13.488088 
L 106.739918 13.390587 
L 107.042334 10.364631 
L 107.126303 11.000855 
L 107.208967 10.710658 
L 107.28512 11.642849 
L 107.542135 10.282312 
L 107.628242 9.87843 
L 107.70342 10.106588 
L 107.865291 11.563218 
L 108.025498 9.80087 
L 108.131172 9.729942 
L 108.284009 10.239045 
L 108.443591 10.061503 
L 108.544631 11.393281 
L 108.685405 8.90769 
L 108.787008 11.780896 
L 108.967823 10.723758 
L 109.025197 11.45454 
L 109.104875 11.064086 
L 109.185051 10.670936 
L 109.272174 11.794095 
L 109.364634 10.94597 
L 109.450868 11.883676 
L 109.649393 10.430079 
L 109.780268 13.571265 
L 109.869583 12.750379 
L 110.00916 14.204435 
L 110.089183 13.841631 
L 110.247942 14.205817 
L 110.28761 13.118091 
L 110.359825 13.197125 
L 110.428127 12.957912 
L 110.667242 9.913845 
L 110.707345 10.715426 
L 110.810527 10.997422 
L 110.928865 9.484764 
L 111.19621 10.373086 
L 111.348407 12.274777 
L 111.42793 12.244084 
L 111.507694 13.131065 
L 111.726801 11.336425 
L 111.771784 11.793266 
L 111.907972 10.328414 
L 112.007958 9.749811 
L 112.088637 8.060194 
L 112.248793 8.880265 
L 112.349885 7.478948 
L 112.489269 8.336916 
L 112.509001 9.593139 
L 112.730466 10.994613 
L 112.908418 13.011173 
L 112.998024 12.858094 
L 113.068118 12.973218 
L 113.150887 13.781983 
L 113.284855 13.201529 
L 113.333401 13.502126 
L 113.409713 12.638279 
L 113.488522 12.765523 
L 113.568825 12.955416 
L 113.768245 12.498079 
L 114.029087 10.048933 
L 114.149432 11.460809 
L 114.308966 8.783481 
L 114.410238 8.839342 
L 114.568227 9.622406 
L 114.828396 14.111465 
L 114.848257 12.605577 
L 114.948616 11.569279 
L 114.975224 9.808638 
L 115.14835 12.429029 
L 115.231923 12.326371 
L 115.628084 6.751976 
L 115.727113 7.074139 
L 115.806655 8.167043 
L 115.906785 8.065222 
L 115.986752 8.293895 
L 116.087061 7.835481 
L 116.168302 7.895284 
L 116.550843 11.607193 
L 116.668602 11.468041 
L 116.708116 12.303078 
L 116.888691 11.461518 
L 117.067912 12.759354 
L 117.328408 11.046916 
L 117.370509 11.457989 
L 117.548151 9.449933 
L 117.627831 9.738053 
L 117.789542 10.306837 
L 117.865064 10.146056 
L 117.880416 9.633254 
L 117.952999 9.988342 
L 117.998291 9.992981 
L 118.061222 10.275021 
L 118.226799 7.434697 
L 118.366422 9.25482 
L 118.485219 7.426183 
L 118.545526 7.944765 
L 118.706197 8.884452 
L 118.809882 8.425142 
L 118.957258 10.941479 
L 119.045834 12.368923 
L 119.126773 12.3433 
L 119.226303 11.55245 
L 119.350109 12.088254 
L 119.411584 13.050961 
L 119.450108 11.894264 
L 119.52734 13.092756 
L 119.706992 11.758536 
L 120.027843 13.413068 
L 120.214101 11.716815 
L 120.490924 13.135966 
L 120.689731 12.349215 
L 120.857684 11.71089 
L 121.170677 15.150763 
L 121.352531 15.597934 
L 121.432401 14.921497 
L 121.511493 15.105756 
L 121.591486 14.990982 
L 122.193425 12.140353 
L 122.286344 12.453331 
L 122.494949 13.19958 
L 122.594469 13.051711 
L 122.957027 8.372739 
L 122.996383 9.297339 
L 123.076087 9.091759 
L 123.161646 8.021368 
L 123.176755 8.034907 
L 123.255577 9.032924 
L 123.318417 7.89047 
L 123.456117 7.863466 
L 123.736494 12.686516 
L 123.815967 10.591641 
L 123.900514 11.235587 
L 123.997598 12.165469 
L 124.076617 11.184472 
L 124.244638 11.681635 
L 124.325428 11.1516 
L 124.476359 11.396632 
L 124.515989 11.259126 
L 124.576025 9.686995 
L 124.677594 11.139284 
L 124.73924 10.76601 
L 124.899538 9.314748 
L 125.000023 8.988239 
L 125.05923 9.191629 
L 125.183701 9.089244 
L 125.319099 7.833983 
L 125.458538 8.01565 
L 125.579278 6.23988 
L 125.71808 8.777514 
L 125.798133 9.26887 
L 125.878205 8.41426 
L 125.97817 9.591917 
L 126.077492 9.33977 
L 126.182207 8.690412 
L 126.376422 11.771418 
L 126.540265 10.827475 
L 126.637124 10.591051 
L 126.732111 11.357637 
L 126.796843 10.540858 
L 126.976415 12.56508 
L 127.056948 12.421242 
L 127.157617 12.483044 
L 127.302728 10.177211 
L 127.416123 10.33274 
L 127.495715 10.420027 
L 127.740693 9.055788 
L 127.909896 6.062623 
L 128.017593 5.864357 
L 128.036122 7.011461 
L 128.17603 8.351934 
L 128.216598 7.378146 
L 128.296586 7.895725 
L 128.396655 7.847811 
L 128.476236 7.561432 
L 128.555795 8.318231 
L 128.715837 11.23417 
L 128.779884 11.428605 
L 129.018176 10.591499 
L 129.117593 12.245544 
L 129.135587 11.850656 
L 129.276149 13.723845 
L 129.436849 12.292704 
L 129.699348 13.467179 
L 129.7763 13.363778 
L 129.858012 13.490463 
L 129.953023 13.143237 
L 130.032305 12.202554 
L 130.132721 12.321947 
L 130.176252 12.717633 
L 130.452122 9.516889 
L 130.593149 10.228676 
L 130.674678 9.132193 
L 130.691006 9.226238 
L 130.810396 9.375434 
L 130.935026 10.616889 
L 130.950242 9.600775 
L 131.011137 10.819846 
L 131.113674 12.369909 
L 131.213011 12.159789 
L 131.271588 12.354754 
L 131.350965 11.850735 
L 131.530843 12.513424 
L 131.59762 11.779712 
L 131.672521 12.443006 
L 131.855383 10.731175 
L 131.917429 10.619158 
L 132.196161 12.450625 
L 132.27731 11.415062 
L 132.413823 13.269034 
L 132.494766 12.353739 
L 132.594188 12.457813 
L 132.795223 10.946521 
L 132.873987 11.254597 
L 132.996648 11.032027 
L 133.114262 10.266005 
L 133.318812 6.290481 
L 133.575489 9.651205 
L 133.834889 7.440741 
L 134.177007 10.086041 
L 134.235797 9.31729 
L 134.39885 8.326209 
L 134.696356 10.600155 
L 134.715413 9.72674 
L 134.736659 10.624192 
L 134.976569 11.965776 
L 135.116384 11.518098 
L 135.179499 12.203587 
L 135.238201 11.90621 
L 135.438612 9.852784 
L 135.490644 10.388648 
L 135.557546 10.508471 
L 135.756761 9.932717 
L 135.975911 7.634374 
L 136.216497 9.641644 
L 136.296106 9.79453 
L 136.396092 10.497498 
L 136.555885 9.944773 
L 136.798197 12.472431 
L 136.876272 11.872705 
L 136.959399 12.090924 
L 137.215865 10.84814 
L 137.37562 11.809068 
L 137.555957 11.24026 
L 137.630274 10.343354 
L 137.735964 9.95175 
L 137.821628 8.51389 
L 138.039894 9.958919 
L 138.116195 9.791801 
L 138.199889 9.845991 
L 138.371022 10.69977 
L 138.536166 12.067953 
L 138.616328 12.673394 
L 138.752667 12.809984 
L 138.773585 11.808018 
L 138.972956 13.017243 
L 139.113316 11.775349 
L 139.194674 13.312796 
L 139.292728 12.460512 
L 139.522033 14.862599 
L 139.632769 14.977293 
L 139.804425 12.716734 
L 139.885274 13.739787 
L 139.924633 13.149139 
L 140.026818 11.50793 
L 140.123947 12.904252 
L 140.205019 12.674197 
L 140.363262 10.834976 
L 140.505409 11.790526 
L 140.684925 9.48999 
L 140.704231 10.117706 
L 140.766865 10.306307 
L 140.847706 10.015399 
L 141.009559 8.174399 
L 141.125232 9.406419 
L 141.250635 7.602265 
L 141.566615 11.838462 
L 141.708367 10.57334 
L 141.827182 10.634545 
L 141.926874 8.7453 
L 142.007237 9.64824 
L 142.166801 11.167387 
L 142.247009 11.268484 
L 142.407574 10.372355 
L 142.716042 11.024643 
L 142.827339 10.788154 
L 143.006978 6.560052 
L 143.167461 6.812575 
L 143.270531 8.197447 
L 143.393494 7.765256 
L 143.448218 8.024908 
L 143.766628 13.471639 
L 143.849843 13.538243 
L 144.075421 11.81154 
L 144.147153 11.732464 
L 144.308655 11.22433 
L 144.50225 12.256461 
L 144.767329 10.075502 
L 144.927637 11.727721 
L 145.026564 11.574083 
L 145.066939 10.880318 
L 145.156943 11.19752 
L 145.227211 11.202928 
L 145.366109 10.188826 
L 145.392047 9.120756 
L 145.505266 9.528507 
L 145.547788 10.537438 
L 145.727224 8.353136 
L 145.807981 8.706193 
L 145.887297 9.807653 
L 146.048371 8.710119 
L 146.219134 10.724456 
L 146.401251 7.314799 
L 146.497572 8.07518 
L 146.658526 9.818894 
L 146.957044 7.455585 
L 147.039071 7.620734 
L 147.216972 11.634227 
L 147.458086 10.511257 
L 147.538233 10.442738 
L 147.797509 12.057426 
L 148.038484 10.089079 
L 148.12239 10.235785 
L 148.237482 10.138163 
L 148.377946 9.272412 
L 148.458459 9.957495 
L 148.559164 8.384209 
L 148.617285 9.186886 
L 149.016571 11.573725 
L 149.139788 11.766247 
L 149.216869 12.875604 
L 149.27655 12.059771 
L 149.396214 13.347453 
L 149.538352 12.370993 
L 149.617695 11.361622 
L 149.721827 11.523237 
L 149.759948 11.484499 
L 149.856949 11.055348 
L 149.939332 11.512755 
L 150.11725 10.785805 
L 150.258672 11.820269 
L 150.357061 11.83088 
L 150.437363 12.006524 
L 150.516202 11.781975 
L 150.677785 13.083178 
L 150.776902 13.068245 
L 150.936212 13.867624 
L 151.015434 12.558939 
L 151.159523 12.329638 
L 151.275317 13.741982 
L 151.456681 12.05318 
L 151.51383 10.092408 
L 151.593845 10.766082 
L 151.674593 11.090743 
L 151.753767 10.610453 
L 151.838035 11.278064 
L 151.853137 9.180717 
L 151.933354 10.611982 
L 152.193266 10.165075 
L 152.274058 10.725068 
L 152.394183 12.349866 
L 152.49387 12.274757 
L 152.631378 13.088351 
L 152.673317 12.770245 
L 152.833044 13.013909 
L 152.896148 12.062202 
L 152.953188 12.136466 
L 153.013069 13.335484 
L 153.15788 11.144789 
L 153.250479 10.776911 
L 153.481074 8.904057 
L 153.659755 10.572744 
L 153.759765 10.407594 
L 153.979537 12.86824 
L 154.05912 12.453506 
L 154.158838 13.442488 
L 154.299579 13.593107 
L 154.342188 14.314253 
L 154.459157 14.22866 
L 154.481844 14.309342 
L 154.579721 14.769281 
L 154.658481 14.219433 
L 154.73858 14.993921 
L 154.820944 13.902168 
L 154.901596 13.940999 
L 155.387013 10.138673 
L 155.464537 8.47464 
L 155.642352 9.288859 
L 155.843239 10.137849 
L 156.002177 9.661649 
L 156.043467 8.697535 
L 156.124283 9.435352 
L 156.206667 9.263117 
L 156.303176 9.218549 
L 156.462402 8.623821 
L 156.542738 8.776662 
L 156.702216 9.417864 
L 156.882287 11.595923 
L 156.96281 11.158537 
L 157.043182 11.29201 
L 157.123187 12.883106 
L 157.204986 12.316837 
L 157.363318 12.079117 
L 157.445837 11.137066 
L 157.542492 12.064105 
L 157.621889 10.928708 
L 157.783324 12.557752 
L 157.949484 10.461993 
L 158.024936 10.89231 
L 158.043876 9.267719 
L 158.108373 10.941338 
L 158.204298 10.968968 
L 158.305934 11.437644 
L 158.365864 10.769926 
L 158.445112 11.221815 
L 158.533798 9.366135 
L 158.605474 9.450135 
L 158.780652 9.924016 
L 158.865274 9.097921 
L 158.946134 9.146863 
L 159.027118 9.517359 
L 159.108352 9.484269 
L 159.264742 7.838005 
L 159.345592 9.43957 
L 159.427678 8.912951 
L 159.686157 10.130334 
L 159.843228 8.849842 
L 160.088835 9.926795 
L 160.263906 8.829422 
L 160.442663 9.47206 
L 160.523699 9.560606 
L 160.643306 9.403039 
L 160.789945 8.633708 
L 160.913959 9.899261 
L 161.090154 11.075844 
L 161.27928 10.000195 
L 161.435889 11.114964 
L 161.494199 11.213527 
L 161.571129 10.936452 
L 161.66804 11.211935 
L 161.833341 12.412993 
L 161.92858 12.784429 
L 162.348303 15.921489 
L 162.567965 15.611619 
L 162.749326 11.895869 
L 163.149245 8.401335 
L 163.247741 8.754107 
L 163.308278 7.881409 
L 163.568 9.354161 
L 163.747213 9.366555 
L 163.826929 9.488605 
L 163.906802 10.098568 
L 164.154827 8.921433 
L 164.24619 9.164592 
L 164.325992 8.171211 
L 164.406323 8.778713 
L 164.545817 8.341874 
L 164.627117 8.394104 
L 164.806229 9.898579 
L 164.969361 9.403816 
L 164.986503 10.655899 
L 165.066449 9.993892 
L 165.165344 9.960156 
L 165.227323 9.540577 
L 165.386319 9.977881 
L 165.472173 9.23265 
L 165.545976 9.344089 
L 165.68175 9.400943 
L 165.707762 10.929631 
L 165.825282 11.153703 
L 165.985186 13.441887 
L 166.065504 12.745878 
L 166.144985 12.644938 
L 166.385591 13.519924 
L 166.572161 11.358135 
L 166.625483 9.923425 
L 166.726136 10.095448 
L 166.792419 9.599991 
L 166.88612 9.824488 
L 167.151687 11.975767 
L 167.311176 11.657694 
L 167.432153 11.851146 
L 167.451191 12.561369 
L 167.617464 10.949436 
L 167.716858 11.803881 
L 167.81727 11.778421 
L 168.03819 9.051005 
L 168.515691 12.241809 
L 168.656845 10.040904 
L 168.697657 10.132824 
L 168.776389 11.006395 
L 168.856225 10.487345 
L 168.955708 10.555304 
L 169.120346 10.084118 
L 169.196885 10.545844 
L 169.276846 9.669894 
L 169.381431 11.262225 
L 169.615027 9.942352 
L 169.693022 11.574207 
L 169.769932 11.549359 
L 169.949614 11.294002 
L 170.193168 10.003246 
L 170.349771 11.029529 
L 170.469115 10.951475 
L 170.609147 9.405044 
L 170.968344 11.652776 
L 171.087879 12.584683 
L 171.1705 13.15227 
L 171.268856 12.441698 
L 171.348984 12.604434 
L 171.671205 11.079394 
L 171.78894 11.405301 
L 172.008372 9.180995 
L 172.09085 9.588849 
L 172.168817 8.966448 
L 172.32877 10.907135 
L 172.426004 9.958693 
L 172.553284 10.365224 
L 172.649919 8.792959 
L 172.672908 9.894913 
L 172.807781 9.064471 
L 172.929011 11.06699 
L 173.010545 11.715012 
L 173.069276 10.602074 
L 173.14885 10.851903 
L 173.228221 11.449039 
L 173.327872 11.232804 
L 173.408617 12.623916 
L 173.491038 12.268151 
L 173.613125 12.505006 
L 173.74943 10.268458 
L 173.970806 11.08477 
L 173.988381 9.725779 
L 174.290438 8.869832 
L 174.372419 9.317298 
L 174.487496 12.484884 
L 174.571037 13.991475 
L 174.66886 13.222081 
L 174.730149 13.283428 
L 174.809041 13.114693 
L 174.950784 13.765365 
L 174.988035 12.865072 
L 175.048378 12.907366 
L 175.228279 11.20131 
L 175.388107 9.261918 
L 175.468162 8.977444 
L 175.63143 9.480262 
L 175.715461 9.434928 
L 175.88805 8.870323 
L 175.968158 9.362811 
L 176.047818 8.960181 
L 176.308324 11.021201 
L 176.371311 10.164882 
L 176.628962 11.660866 
L 176.790527 11.58008 
L 176.868602 12.164975 
L 177.029987 10.085895 
L 177.367939 7.691048 
L 177.452181 7.678304 
L 177.533158 7.846143 
L 177.700516 7.417243 
L 177.788331 8.382057 
L 177.877459 8.114706 
L 178.19022 10.051148 
L 178.330353 10.044123 
L 178.469686 9.33028 
L 178.531935 10.040923 
L 178.630024 9.874891 
L 178.771365 8.909935 
L 178.949736 8.502989 
L 179.030578 9.554126 
L 179.27025 11.31897 
L 179.4308 9.831364 
L 179.455928 11.047849 
L 179.562657 9.788751 
L 179.641854 10.241112 
L 180.148024 7.452366 
L 180.188057 8.491912 
L 180.28732 8.34698 
L 180.369282 9.450816 
L 180.471297 9.154774 
L 180.587995 8.486214 
L 180.749054 7.380519 
L 181.028222 10.465486 
L 181.269156 11.584189 
L 181.606735 15.20192 
L 181.755292 14.415536 
L 181.911115 13.856151 
L 181.989806 15.0893 
L 182.106291 14.494948 
L 182.32758 12.85493 
L 182.503272 12.748592 
L 182.509976 13.065512 
L 182.588373 13.009472 
L 182.668254 13.090895 
L 182.856807 11.313876 
L 182.931997 11.156321 
L 183.028655 12.614106 
L 183.16889 12.570601 
L 183.228747 13.154186 
L 183.270692 12.956838 
L 183.509309 11.416187 
L 183.731437 13.447341 
L 183.990003 12.519826 
L 184.149608 12.533039 
L 184.310767 14.732289 
L 184.489157 13.457909 
L 184.609995 13.118319 
L 184.751198 15.125878 
L 184.954799 13.966488 
L 184.989097 14.202623 
L 185.230934 15.758604 
L 185.548938 12.510224 
L 185.628942 12.08521 
L 185.809224 13.436427 
L 186.051366 11.157333 
L 186.068014 11.646874 
L 186.188275 11.726386 
L 186.688589 8.445366 
L 186.710072 7.80876 
L 186.84874 7.338691 
L 186.892148 8.109614 
L 186.968775 8.074849 
L 187.047825 8.082676 
L 187.147817 7.296562 
L 187.287056 9.089828 
L 187.367365 9.171782 
L 187.455819 8.969352 
L 187.530751 9.071628 
L 187.619327 9.02789 
L 187.780184 8.689619 
L 187.794784 9.863317 
L 187.873827 8.848594 
L 187.957432 9.716318 
L 188.117533 7.377994 
L 188.297159 8.011255 
L 188.436489 8.13249 
L 188.458009 8.34545 
L 188.657141 7.046674 
L 188.838481 7.600002 
L 188.860263 6.990361 
L 188.962997 7.425215 
L 189.02338 6.589177 
L 189.10154 7.208891 
L 189.179515 6.995453 
L 189.350309 7.787482 
L 189.46827 6.51461 
L 189.615932 7.98467 
L 189.869975 12.934419 
L 189.970769 11.398348 
L 190.016194 11.67436 
L 190.11241 11.252609 
L 190.267661 12.338087 
L 190.34753 12.238802 
L 190.432444 11.49141 
L 190.687184 7.733287 
L 190.768035 9.133125 
L 191.047458 6.142055 
L 191.246509 6.236113 
L 191.313108 7.613315 
L 191.340177 7.342941 
L 191.428523 7.452275 
L 191.58643 6.871525 
L 191.827122 10.382734 
L 191.926513 10.204586 
L 192.005899 10.112717 
L 192.085848 7.654897 
L 192.169594 8.810632 
L 192.245511 8.299187 
L 192.331052 8.991029 
L 192.572379 7.452838 
L 192.909697 11.725648 
L 192.946994 11.279506 
L 192.989005 11.329365 
L 193.070217 11.99369 
L 193.150911 11.402345 
L 193.408972 12.654653 
L 193.489916 11.988922 
L 193.570058 12.617131 
L 193.89848 10.826049 
L 194.07068 12.811117 
L 194.149425 12.765256 
L 194.228652 13.331861 
L 194.408505 10.401237 
L 194.473079 10.791338 
L 194.569224 10.89014 
L 194.676403 12.046156 
L 194.728116 11.778695 
L 195.230085 9.061511 
L 195.30817 9.88506 
L 195.467636 8.430105 
L 195.628084 8.71127 
L 195.747404 9.96288 
L 195.807368 8.776078 
L 195.872385 9.10109 
L 195.948506 9.871799 
L 196.128216 8.71866 
L 196.22621 8.991095 
L 196.368222 10.103876 
L 196.63993 9.774463 
L 196.712947 10.251534 
L 196.80621 9.69596 
L 197.026215 11.306684 
L 197.287236 9.316979 
L 197.407598 9.752204 
L 197.467373 9.370879 
L 197.830019 10.885858 
L 197.850253 10.671934 
L 198.047765 11.495293 
L 198.680793 8.600055 
L 198.86944 9.98599 
L 198.958889 9.167296 
L 199.028307 9.503425 
L 199.349167 8.359576 
L 199.50739 8.626295 
L 199.607038 9.447246 
L 199.844385 7.624742 
L 200.084897 8.837825 
L 200.204483 7.725118 
L 200.263779 8.760915 
L 200.485537 7.332958 
L 200.528194 7.506697 
L 200.604863 8.976647 
L 200.783816 9.10298 
L 200.944303 10.539681 
L 201.183948 12.833471 
L 201.319013 12.20235 
L 201.348682 12.307985 
L 201.427275 12.456584 
L 201.515879 12.933914 
L 201.590563 12.145371 
L 201.725492 12.718827 
L 201.771774 12.296932 
L 201.828081 12.816305 
L 201.8452 11.367172 
L 201.905184 11.679125 
L 202.328517 9.981288 
L 202.411171 10.073615 
L 202.495221 7.899233 
L 202.653047 8.275951 
L 202.992578 10.618737 
L 203.070908 10.689841 
L 203.150971 9.300167 
L 203.38999 11.684919 
L 203.470401 11.52575 
L 203.569951 9.085132 
L 203.711952 9.154885 
L 203.830634 7.395269 
L 203.894664 6.624662 
L 203.989572 8.844374 
L 204.069622 8.684424 
L 204.22999 9.037416 
L 204.470323 11.15223 
L 204.529567 9.930494 
L 204.598124 10.097685 
L 204.779185 12.007233 
L 204.874363 11.244845 
L 204.940399 11.945417 
L 204.974034 10.811506 
L 205.074453 11.354062 
L 205.265419 10.772707 
L 205.394658 11.672952 
L 205.493744 11.119798 
L 205.555835 9.705532 
L 205.634055 9.832144 
L 205.742023 8.230042 
L 205.83924 8.630217 
L 205.914472 7.621906 
L 205.973922 8.041726 
L 206.05537 7.850339 
L 206.375061 9.3344 
L 206.731427 6.051081 
L 206.875251 5.564953 
L 207.034224 4.995973 
L 207.201322 6.618036 
L 207.374152 8.102787 
L 207.538262 11.075098 
L 207.704428 9.927215 
L 207.785369 10.812753 
L 207.873065 10.702938 
L 207.938213 10.932172 
L 208.034028 10.873515 
L 208.253759 10.590747 
L 208.453956 12.199595 
L 208.554774 11.973658 
L 208.713782 10.277508 
L 208.773956 10.53013 
L 208.873574 10.626327 
L 209.013938 7.683319 
L 209.114092 8.459377 
L 209.255478 8.146849 
L 209.334329 8.43788 
L 209.414223 7.344073 
L 209.614489 8.50439 
L 209.715704 8.284639 
L 209.854942 11.352191 
L 209.933033 10.14631 
L 210.013076 10.116161 
L 210.093996 10.500149 
L 210.19332 11.626066 
L 210.432269 10.827408 
L 210.575097 10.764799 
L 210.67366 11.526589 
L 210.732988 11.014211 
L 210.832156 11.686825 
L 211.032553 10.270381 
L 211.094859 10.644729 
L 211.174445 10.218682 
L 211.334691 11.570026 
L 211.452134 10.359075 
L 211.532023 11.103866 
L 211.611557 10.469908 
L 211.714939 11.513316 
L 211.772285 10.648829 
L 211.911486 11.072484 
L 212.090664 10.285011 
L 212.190642 9.955147 
L 212.254699 8.613513 
L 212.40333 8.319933 
L 212.612616 6.615188 
L 212.833723 8.03993 
L 213.013591 7.762592 
L 213.236205 11.310674 
L 213.401863 12.809094 
L 213.515009 12.119197 
L 213.574815 13.205583 
L 213.664918 12.988891 
L 213.736057 12.917398 
L 213.815264 13.109984 
L 214.137374 10.76866 
L 214.234052 10.815271 
L 214.314337 11.18058 
L 214.393913 10.942072 
L 214.493927 12.005201 
L 214.553987 11.707961 
L 214.640383 11.241309 
L 214.735282 11.638547 
L 214.841492 11.258332 
L 214.912391 11.688958 
L 214.972702 11.422552 
L 215.152039 12.161874 
L 215.332816 8.560553 
L 215.453308 8.540421 
L 215.475275 8.749098 
L 215.551705 8.62701 
L 215.712154 8.4262 
L 215.853878 8.530581 
L 215.975141 7.391099 
L 216.157521 9.304815 
L 216.402311 10.407353 
L 216.460114 10.010344 
L 216.474481 10.775895 
L 216.553847 9.499814 
L 216.654081 9.58559 
L 216.793956 11.097208 
L 216.888044 10.727725 
L 216.973238 11.015408 
L 217.155504 10.038382 
L 217.218919 10.268605 
L 217.435486 12.437559 
L 217.45524 12.324308 
L 217.534265 10.834043 
L 217.674262 10.848679 
L 217.954454 13.35191 
L 218.036199 13.812173 
L 218.192838 12.557043 
L 218.297393 12.441039 
L 218.352881 12.106316 
L 218.536556 10.400668 
L 218.633546 10.153321 
L 218.693269 9.663638 
L 218.861381 6.730423 
L 218.973674 6.819183 
L 219.058181 6.720882 
L 219.272897 10.478727 
L 219.464063 10.148095 
L 219.693017 13.260282 
L 219.851962 12.738471 
L 220.091665 10.517626 
L 220.19232 11.512342 
L 220.271453 11.079015 
L 220.337871 11.603163 
L 220.431934 11.508218 
L 220.512177 11.325251 
L 220.591408 10.381648 
L 220.694896 11.012631 
L 221.012132 10.030133 
L 221.212055 7.985611 
L 221.271208 7.99777 
L 221.372051 7.806298 
L 221.432434 8.217529 
L 221.496163 7.674625 
L 221.590245 7.849326 
L 221.750548 6.589855 
L 221.892222 6.955355 
L 221.930353 8.720274 
L 222.010845 7.965155 
L 222.082314 7.147982 
L 222.250605 9.148714 
L 222.350757 8.257736 
L 222.4103 8.707386 
L 222.569495 10.430793 
L 222.738785 8.443958 
L 222.829882 8.926389 
L 222.90924 10.175345 
L 223.048985 9.676641 
L 223.230479 11.02084 
L 223.312921 9.214655 
L 223.590548 10.985683 
L 223.892345 7.946732 
L 223.989454 7.527806 
L 224.149662 9.620666 
L 224.250103 9.384966 
L 224.40926 10.312137 
L 224.615065 9.006501 
L 224.728998 9.123469 
L 224.80994 10.502324 
L 224.889341 9.329019 
L 224.968939 9.677479 
L 225.214935 7.057333 
L 225.389209 9.655362 
L 225.470179 9.785877 
L 225.649018 8.362272 
L 225.731424 9.256611 
L 225.889633 8.554252 
L 226.028243 8.874502 
L 226.052917 9.316157 
L 226.231085 8.074547 
L 226.36979 9.822274 
L 226.468754 8.953758 
L 226.549184 9.187164 
L 226.711644 9.969742 
L 226.789679 8.914459 
L 226.948686 9.335451 
L 227.070548 11.143914 
L 227.11401 10.633488 
L 227.713912 13.543351 
L 227.794583 12.635684 
L 227.893192 12.661372 
L 227.952736 12.636925 
L 228.130538 11.490617 
L 228.203984 10.709486 
L 228.292848 11.198152 
L 228.533109 9.844318 
L 228.623974 10.229916 
L 228.698636 9.71745 
L 228.778938 9.875089 
L 228.959946 10.804828 
L 229.020285 9.532736 
L 229.128007 9.734615 
L 229.279337 9.209572 
L 229.358197 9.027845 
L 229.498181 9.276 
L 229.597909 8.19845 
L 229.69809 8.308473 
L 229.778089 8.715232 
L 229.839766 9.857956 
L 230.105122 7.73985 
L 230.185681 8.34105 
L 230.25857 8.122683 
L 230.359437 8.355659 
L 230.428643 9.336647 
L 230.741288 6.91379 
L 230.941608 10.307186 
L 231.001351 9.852919 
L 231.425114 12.058773 
L 231.501487 12.861052 
L 231.841573 10.685721 
L 232.084377 8.472588 
L 232.344138 7.582397 
L 232.503555 8.888739 
L 232.583638 8.066437 
L 232.8251 11.133337 
L 233.030398 9.763208 
L 233.184893 11.155336 
L 233.265311 10.336906 
L 233.325681 10.621235 
L 233.534028 12.279072 
L 233.648339 11.451767 
L 233.731596 11.459956 
L 233.892264 13.234361 
L 233.97102 12.932212 
L 234.151019 13.644275 
L 234.230995 14.429238 
L 234.311138 14.142019 
L 234.391063 13.869994 
L 234.530777 14.154903 
L 234.570231 14.89799 
L 234.809803 13.251087 
L 234.991357 14.09121 
L 235.050114 12.853907 
L 235.152021 13.143923 
L 235.230733 13.8905 
L 235.431095 13.202299 
L 235.550605 13.763557 
L 235.629805 13.818017 
L 235.991281 9.59018 
L 236.120188 9.562616 
L 236.169835 9.776929 
L 236.455617 7.071187 
L 236.849463 8.91678 
L 236.912849 8.574269 
L 237.050955 7.449433 
L 237.111907 7.859724 
L 237.234996 7.477848 
L 237.490829 9.954743 
L 237.53326 7.450936 
L 237.673043 7.544801 
L 237.699781 7.190603 
L 237.956312 9.605546 
L 238.113318 8.697494 
L 238.192137 8.97432 
L 238.273564 8.342005 
L 238.396213 8.978031 
L 238.544469 11.235781 
L 238.691578 10.157317 
L 238.773742 10.228648 
L 238.930541 12.117368 
L 239.028477 10.745127 
L 239.108537 11.047636 
L 239.191612 11.262344 
L 239.289341 9.998876 
L 239.430138 9.337706 
L 239.507682 9.585302 
L 239.609697 10.692058 
L 239.69177 10.723006 
L 239.767957 9.382754 
L 239.867428 10.031057 
L 240.028171 9.016947 
L 240.147915 9.501729 
L 240.427855 6.924215 
L 240.527592 6.922464 
L 240.589122 6.802331 
L 240.873735 8.458601 
L 240.928584 8.723995 
L 241.007989 10.198669 
L 241.128806 10.04027 
L 241.251154 11.853273 
L 241.368362 10.900933 
L 241.471009 11.809254 
L 241.50799 11.143939 
L 241.628241 11.677673 
L 241.690825 12.677852 
L 241.752043 12.381633 
L 241.972408 13.51384 
L 241.992504 13.056711 
L 242.05939 12.12999 
L 242.094976 12.797162 
L 242.191588 12.91958 
L 242.251673 13.219338 
L 242.671275 11.173036 
L 242.751763 9.552138 
L 242.831385 9.99058 
L 242.913404 9.530885 
L 242.998907 11.185606 
L 243.072435 10.831991 
L 243.250929 11.22001 
L 243.490508 9.555488 
L 243.670556 8.984878 
L 243.733105 9.095925 
L 243.851974 7.241793 
L 244.099783 8.388467 
L 244.162003 9.513207 
L 244.248703 8.565092 
L 244.259828 8.929944 
L 244.540547 11.665857 
L 244.580395 10.879472 
L 244.66006 12.229072 
L 244.802731 10.164028 
L 244.887759 10.771308 
L 244.979766 9.611511 
L 245.069735 10.04338 
L 245.139162 9.811814 
L 245.248444 8.921158 
L 245.299514 9.008543 
L 245.406507 8.699866 
L 245.541982 7.830719 
L 245.559397 8.141969 
L 245.638703 8.449497 
L 245.72152 8.141191 
L 245.962483 8.670166 
L 246.041146 8.150638 
L 246.198692 8.154382 
L 246.381188 10.611909 
L 246.541078 10.199558 
L 246.640954 10.714825 
L 246.707094 10.03394 
L 246.724322 10.12622 
L 246.863319 11.874067 
L 246.880709 11.047034 
L 247.012893 11.049392 
L 247.042582 11.800469 
L 247.151322 10.908146 
L 247.243177 9.220923 
L 247.384257 10.999008 
L 247.905037 8.84405 
L 247.962703 9.164359 
L 248.24153 7.992093 
L 248.301592 8.518575 
L 248.501739 7.337985 
L 248.541052 7.759484 
L 248.603394 7.84846 
L 248.683512 7.486716 
L 248.781389 5.83818 
L 249.240981 8.982966 
L 249.280735 10.145456 
L 249.408504 10.54982 
L 249.601154 13.198746 
L 249.682367 12.555763 
L 249.78077 11.479585 
L 249.841294 12.243375 
L 250.101725 9.24021 
L 250.340345 8.394845 
L 250.441375 8.414604 
L 250.646973 10.226837 
L 250.680818 8.943965 
L 250.7804 9.348088 
L 250.922981 11.45105 
L 251.179235 9.050972 
L 251.259641 8.94653 
L 251.340576 9.253028 
L 251.440072 8.837412 
L 251.501324 8.977942 
L 251.578851 10.203938 
L 251.707337 9.036955 
L 251.828927 9.564729 
L 251.855971 10.636466 
L 251.923019 10.082145 
L 252.083069 11.226221 
L 252.164888 9.821461 
L 252.244634 9.917864 
L 252.325413 10.591387 
L 252.454636 9.273981 
L 252.491323 9.920199 
L 252.665219 9.673122 
L 252.744678 10.607116 
L 252.906685 9.748845 
L 252.987009 11.170878 
L 253.086304 10.37611 
L 253.305862 10.95979 
L 253.511671 9.866679 
L 253.608755 9.747609 
L 253.726611 10.628047 
L 253.806249 10.561528 
L 253.888647 11.628972 
L 253.986419 10.675195 
L 254.065824 10.798137 
L 254.165199 11.053703 
L 254.253723 10.619685 
L 254.306746 12.161575 
L 254.389926 11.641694 
L 254.487497 11.2953 
L 254.566747 11.756879 
L 254.666704 11.388823 
L 254.80517 9.714179 
L 255.491921 5.279008 
L 255.648258 7.603537 
L 255.793995 9.165233 
L 255.910421 9.629858 
L 256.007583 8.548358 
L 256.048253 8.738029 
L 256.367414 13.586925 
L 256.526386 12.180035 
L 256.586799 12.518617 
L 256.800492 13.966287 
L 256.966967 12.315293 
L 257.206442 8.947769 
L 257.287271 9.714345 
L 257.466219 7.78662 
L 257.567037 8.089158 
L 257.628098 6.762573 
L 257.688914 8.539385 
L 257.707234 7.677901 
L 257.866782 7.229347 
L 258.052943 8.190971 
L 258.210861 7.617147 
L 258.228173 9.144093 
L 258.292494 8.725349 
L 258.35341 7.910685 
L 258.448354 10.073677 
L 258.528938 9.324093 
L 258.739898 10.44009 
L 258.877715 9.253088 
L 258.939323 9.779613 
L 259.018953 9.673561 
L 259.097678 9.909864 
L 259.199871 10.753819 
L 259.277759 9.992012 
L 259.44641 10.349339 
L 259.52457 10.184642 
L 259.661243 11.34811 
L 259.757277 9.517298 
L 259.877574 9.408838 
L 260.07887 10.580341 
L 260.118931 10.677507 
L 260.17949 9.838729 
L 260.341208 10.961653 
L 260.478389 11.034807 
L 260.638307 13.479785 
L 260.757728 13.662031 
L 260.838613 12.930719 
L 260.918438 11.630424 
L 261.001974 12.537575 
L 261.113352 11.762007 
L 261.258482 12.667588 
L 261.340461 12.290389 
L 261.497762 11.112187 
L 261.583599 10.532478 
L 261.75894 12.365633 
L 262.083363 8.212917 
L 262.258558 9.426963 
L 262.325843 8.621768 
L 262.444587 8.663203 
L 262.498917 6.584216 
L 262.578134 6.99432 
L 262.823017 8.391958 
L 262.998558 8.253034 
L 263.498467 11.083203 
L 263.51679 10.827752 
L 263.577921 10.15454 
L 263.637401 10.249888 
L 263.917682 10.748356 
L 263.977395 10.592538 
L 264.057382 11.137263 
L 264.236923 10.576348 
L 264.318966 11.544277 
L 264.395912 11.525065 
L 264.476433 11.867943 
L 264.656826 13.01132 
L 264.716406 12.785318 
L 264.862118 12.874208 
L 264.977399 12.088528 
L 265.274835 10.707144 
L 265.297137 11.031384 
L 265.377053 10.75538 
L 265.475832 9.166876 
L 265.554908 9.494979 
L 265.636831 9.695766 
L 265.800212 8.504634 
L 266.079257 9.498582 
L 266.239439 8.781231 
L 266.298925 9.909913 
L 266.560452 7.759261 
L 266.65946 8.907991 
L 266.800954 7.630911 
L 267.120018 9.256062 
L 267.280834 10.3944 
L 267.320718 9.937205 
L 267.520239 10.655224 
L 267.599761 10.846977 
L 267.946449 8.759212 
L 268.022892 8.56636 
L 268.119704 9.333834 
L 268.1997 9.150572 
L 268.361152 8.253853 
L 268.441382 8.397668 
L 268.541084 9.184541 
L 268.600921 8.655178 
L 268.679608 9.749624 
L 268.797827 9.483348 
L 268.943497 8.535703 
L 269.077338 8.358148 
L 269.256951 11.906749 
L 269.336485 12.227828 
L 269.460716 11.005007 
L 269.596819 9.068145 
L 269.864023 10.383198 
L 270.096637 6.724845 
L 270.275469 7.203893 
L 270.355613 7.409463 
L 270.498835 9.409047 
L 270.756538 8.215721 
L 271.195421 10.853455 
L 271.296865 9.865717 
L 271.335226 10.363404 
L 271.450143 11.207006 
L 271.496725 10.979787 
L 271.581766 10.597204 
L 271.750752 12.610966 
L 271.836361 10.714057 
L 271.915234 11.243886 
L 272.073045 10.886028 
L 272.173624 9.391898 
L 272.23389 9.96142 
L 272.432684 11.774028 
L 272.613694 8.043664 
L 272.656209 10.328856 
L 272.873669 8.827025 
L 272.912427 9.587426 
L 272.99344 9.301846 
L 273.152548 8.054417 
L 273.233071 8.099496 
L 273.31935 8.121861 
L 273.39518 8.976075 
L 273.472096 8.660798 
L 273.574421 8.461899 
L 273.893224 11.034582 
L 273.972586 11.327929 
L 274.070898 10.743293 
L 274.15238 11.856905 
L 274.231572 11.769254 
L 274.391103 13.152079 
L 274.558317 11.149929 
L 274.631433 11.327781 
L 274.734135 11.429227 
L 275.130374 10.137804 
L 275.371227 11.230858 
L 275.62952 9.99586 
L 275.791572 10.360266 
L 276.0499 9.312156 
L 276.13158 9.969493 
L 276.212159 9.609343 
L 276.37007 8.387306 
L 276.532048 10.229595 
L 276.611194 9.299823 
L 276.873601 10.74823 
L 277.031547 8.5988 
L 277.134842 9.568349 
L 277.15148 9.528066 
L 277.231523 9.382989 
L 277.353359 7.73648 
L 277.450674 8.351899 
L 277.551975 7.736429 
L 277.612357 6.255693 
L 277.731026 6.612317 
L 277.856357 8.50731 
L 277.951764 8.037863 
L 278.19131 9.337318 
L 278.270753 8.369197 
L 278.364767 8.728597 
L 278.371995 11.402441 
L 278.45084 9.040597 
L 278.656416 10.045235 
L 278.732003 10.022902 
L 278.929955 10.315371 
L 279.029635 8.918326 
L 279.090707 9.268613 
L 279.270555 10.251167 
L 279.450237 9.24889 
L 279.591555 11.123101 
L 279.72943 10.74916 
L 280.008925 13.255523 
L 280.070458 12.210328 
L 280.109429 12.890134 
L 280.250466 13.435893 
L 280.44877 11.540042 
L 280.509158 11.980867 
L 280.67248 10.635297 
L 280.760373 11.276997 
L 281.008951 9.495821 
L 281.169209 9.712932 
L 281.236498 8.807299 
L 281.27428 9.851895 
L 281.330181 9.448783 
L 281.471423 10.304641 
L 281.510156 10.226166 
L 281.597724 9.844164 
L 281.751333 11.145638 
L 281.858732 11.760016 
L 281.930089 10.728134 
L 282.032274 10.817807 
L 282.070185 10.618952 
L 282.211201 11.076974 
L 282.232156 10.96417 
L 282.489668 12.240238 
L 282.570968 12.277035 
L 282.830213 13.12265 
L 282.990446 10.973886 
L 283.090529 10.794804 
L 283.230139 8.125239 
L 283.489754 5.692289 
L 283.630524 5.817767 
L 283.809678 8.696983 
L 283.831061 8.518545 
L 283.909904 7.981024 
L 284.149212 10.314404 
L 284.229289 10.068902 
L 284.321975 10.341091 
L 284.40886 11.711821 
L 284.429999 11.43227 
L 284.571493 8.108001 
L 284.631102 8.587283 
L 284.729319 10.218772 
L 284.809191 9.574916 
L 285.069578 11.138071 
L 285.12987 10.559794 
L 285.489801 13.827054 
L 285.549429 12.148355 
L 285.629446 13.074576 
L 285.900971 9.166397 
L 285.996011 9.882379 
L 286.291778 7.972981 
L 286.392449 9.120436 
L 286.51125 8.172301 
L 286.631067 10.132631 
L 286.711764 11.77134 
L 286.814473 11.763015 
L 286.954934 12.886309 
L 287.032825 12.476149 
L 287.292487 13.854574 
L 287.532109 9.859707 
L 287.694056 9.244948 
L 287.973786 11.853788 
L 288.112277 10.390211 
L 288.351504 12.110429 
L 288.432541 11.156419 
L 288.511338 11.691302 
L 288.608842 11.622285 
L 288.687912 11.716576 
L 288.853316 9.137282 
L 288.928483 8.877546 
L 289.107138 10.340961 
L 289.427281 7.998544 
L 289.50561 6.315928 
L 289.585761 6.728376 
L 289.765112 7.427756 
L 289.84502 7.275087 
L 290.007962 6.525282 
L 290.165341 8.698868 
L 290.24622 8.448621 
L 290.425866 9.82812 
L 290.584476 10.672176 
L 290.666592 9.892744 
L 290.744588 10.170512 
L 290.907465 11.902263 
L 291.004682 11.907711 
L 291.164965 11.283018 
L 291.333606 11.892486 
L 291.407137 12.239889 
L 291.492707 12.109543 
L 291.611413 12.236292 
L 291.824116 10.103646 
L 291.904095 11.036243 
L 292.264018 9.01973 
L 292.324487 9.382777 
L 292.404378 9.260597 
L 292.525946 8.790984 
L 292.647954 10.87124 
L 292.743617 10.227612 
L 293.024042 12.934628 
L 293.083382 12.154009 
L 293.18448 12.152572 
L 293.243428 10.410276 
L 293.323527 10.516609 
L 293.464792 10.407404 
L 293.663802 10.655478 
L 293.836647 8.623677 
L 293.88359 8.779192 
L 293.993432 8.736176 
L 294.114161 9.758365 
L 294.253572 8.449461 
L 294.472906 6.180627 
L 294.553145 6.022889 
L 294.63268 5.479542 
L 294.973484 9.706046 
L 295.052702 8.948414 
L 295.212695 9.323803 
L 295.471914 11.22004 
L 295.671461 9.700061 
L 295.711637 8.516306 
L 295.831814 8.32369 
L 295.89177 9.324218 
L 295.992103 8.610287 
L 296.052259 8.635395 
L 296.13226 9.201321 
L 296.213274 8.904142 
L 296.451793 9.341599 
L 296.631596 11.462079 
L 296.712588 10.545502 
L 296.95047 13.53064 
L 297.039034 12.741218 
L 297.120484 13.180573 
L 297.240996 12.167801 
L 297.282804 12.743924 
L 297.36497 12.255342 
L 297.539787 13.423094 
L 297.78029 11.651502 
L 297.901854 12.02539 
L 297.984558 11.797814 
L 298.040872 12.630284 
L 298.10055 12.430248 
L 298.374945 10.492326 
L 298.440497 10.20905 
L 298.600415 8.579958 
L 298.781002 8.972533 
L 298.862136 8.212343 
L 298.942092 6.304433 
L 299.201997 7.527185 
L 299.269729 9.404689 
L 299.343583 8.193913 
L 299.422433 9.264075 
L 299.56288 8.655176 
L 299.745218 9.56904 
L 299.795594 10.144948 
L 299.863825 9.732796 
L 299.925094 9.682227 
L 300.010294 8.98699 
L 300.162743 8.704554 
L 300.182659 8.954997 
L 300.504202 6.23796 
L 300.585239 6.698708 
L 300.683758 6.464059 
L 300.913979 6.934224 
L 301.007411 7.828781 
L 301.171159 8.144938 
L 301.203506 8.907962 
L 301.26425 8.421127 
L 301.427195 10.346639 
L 301.504303 10.15674 
L 301.592015 9.453103 
L 301.665483 9.823381 
L 301.856455 7.393143 
L 301.936681 7.966477 
L 302.168113 8.483018 
L 302.249559 8.309608 
L 302.426465 9.806204 
L 302.566303 10.202596 
L 302.65208 11.24902 
L 302.7674 11.042085 
L 302.826192 11.136808 
L 302.927216 10.484551 
L 303.086493 10.939837 
L 303.148327 10.025969 
L 303.289511 10.379667 
L 303.328276 10.181987 
L 303.432555 9.981769 
L 303.509412 8.612904 
L 303.587358 8.908524 
L 303.64644 8.241191 
L 303.731138 8.268162 
L 303.82643 8.49845 
L 304.069903 7.452911 
L 304.127104 7.601624 
L 304.166876 7.581108 
L 304.286451 7.257986 
L 304.386482 9.357723 
L 304.470685 8.538524 
L 304.548119 9.296673 
L 304.646551 7.672878 
L 304.830769 9.75957 
L 304.888264 9.644404 
L 305.067721 12.118978 
L 305.127152 11.589859 
L 305.247217 11.301676 
L 305.3268 12.655652 
L 305.390897 12.02803 
L 305.488399 11.915723 
L 305.573096 10.362711 
L 305.786742 12.033154 
L 305.986046 9.524336 
L 306.328732 7.992914 
L 306.43225 9.777895 
L 306.526569 9.353542 
L 306.645885 9.641602 
L 306.705493 8.819951 
L 306.786576 9.981182 
L 306.895067 9.737645 
L 306.952545 9.243227 
L 307.031281 10.311541 
L 307.44687 7.469312 
L 307.546021 9.107057 
L 307.700185 8.605492 
L 307.70897 8.170693 
L 307.7861 9.356787 
L 307.865684 8.949423 
L 307.992542 9.009916 
L 308.028551 9.957815 
L 308.106245 9.916787 
L 308.185633 9.968862 
L 308.285844 10.880627 
L 308.348291 10.503913 
L 308.448098 11.207829 
L 308.525287 12.966063 
L 308.605753 12.506179 
L 308.68545 11.753507 
L 308.768672 12.685888 
L 309.02869 9.956163 
L 309.250322 10.843472 
L 309.265298 10.776466 
L 309.445575 7.729151 
L 309.545641 7.600816 
L 309.604839 7.320273 
L 309.704904 8.161609 
L 309.847669 11.416769 
L 310.004125 10.997298 
L 310.104647 9.076419 
L 310.53424 13.818318 
L 310.631438 13.654258 
L 310.752568 14.559883 
L 310.912107 16.495331 
L 311.070395 15.835371 
L 311.172756 13.135832 
L 311.331628 12.431036 
L 311.393505 12.923796 
L 311.718517 8.02169 
L 312.011805 10.590818 
L 312.191418 9.201972 
L 312.318745 9.671456 
L 312.47766 11.939769 
L 312.697073 10.140779 
L 312.987943 8.460045 
L 313.05718 8.441866 
L 313.158665 7.310409 
L 313.250955 6.167533 
L 313.321316 6.40344 
L 313.401705 6.568656 
L 313.520088 7.071955 
L 313.678512 9.263717 
L 313.678665 12.931817 
L 313.746021 10.629243 
L 313.818661 10.431929 
L 313.918405 10.596212 
L 313.998781 10.32618 
L 314.239189 12.21672 
L 314.36832 12.5211 
L 314.482497 10.965989 
L 314.619457 11.026528 
L 314.660258 11.184714 
L 314.79899 11.220358 
L 314.879856 12.141471 
L 314.921714 11.492992 
L 315.006992 11.715948 
L 315.312378 10.291478 
L 315.439652 10.735862 
L 315.639453 9.61988 
L 315.878442 10.283149 
L 315.959499 10.409688 
L 316.137167 12.222273 
L 316.228731 11.658613 
L 316.237442 12.009041 
L 316.29824 11.979799 
L 316.491082 12.86973 
L 316.558481 14.055846 
L 316.623671 14.427208 
L 316.718676 14.244207 
L 316.843851 13.259211 
L 316.918483 13.525338 
L 317.121102 14.080589 
L 317.197895 13.939961 
L 317.277113 13.559868 
L 317.417529 13.591386 
L 317.616871 15.484507 
L 317.697 13.953466 
L 317.836828 13.599175 
L 317.857191 14.038154 
L 317.939967 13.728214 
L 318.14311 13.41286 
L 318.43784 10.057076 
L 318.637709 11.35068 
L 318.977195 9.402764 
L 319.281609 11.139651 
L 319.42768 8.841491 
L 319.536163 8.524554 
L 319.596645 9.195449 
L 319.776645 8.994663 
L 319.975796 7.971889 
L 320.016599 8.066622 
L 320.096055 6.660642 
L 320.175395 7.519483 
L 320.356293 6.646534 
L 320.425735 6.410707 
L 320.595954 7.831218 
L 320.755602 7.078827 
L 321.238487 13.443293 
L 321.332009 13.298245 
L 321.515557 11.580635 
L 321.646141 12.172375 
L 321.835736 9.304833 
L 321.935522 8.940344 
L 322.075825 6.363832 
L 322.19638 6.606066 
L 322.396141 8.209181 
L 322.496575 7.708652 
L 322.616137 7.833013 
L 322.697786 7.447787 
L 322.740084 7.622083 
L 322.995835 9.080928 
L 323.097948 9.106493 
L 323.175235 9.352737 
L 323.315681 9.066361 
L 323.556157 11.375749 
L 323.675503 10.209746 
L 323.73515 11.249853 
L 323.8371 10.275622 
L 323.894895 10.474097 
L 323.995245 10.482486 
L 324.057763 9.729219 
L 324.154619 10.649172 
L 324.240027 10.009843 
L 324.356618 10.139775 
L 324.434503 9.364843 
L 324.514422 10.496365 
L 324.594709 10.158009 
L 324.654624 10.512653 
L 324.734469 10.133979 
L 324.812683 10.685252 
L 324.914786 10.264236 
L 325.054279 8.384854 
L 325.200788 8.521288 
L 325.297236 9.219598 
L 325.474247 8.130244 
L 325.724556 9.761947 
L 325.873737 11.03938 
L 325.973153 10.563448 
L 326.074221 9.955572 
L 326.133624 7.952674 
L 326.317423 9.65448 
L 326.37464 9.404554 
L 326.453246 9.482814 
L 326.753721 11.162587 
L 326.973702 13.209435 
L 327.033232 13.084045 
L 327.551551 9.270918 
L 327.622399 8.560726 
L 327.70215 8.817984 
L 327.786731 8.771546 
L 328.045364 7.683346 
L 328.146872 8.036271 
L 328.19388 9.015549 
L 328.445564 7.104318 
L 328.526981 7.030402 
L 328.767353 7.882531 
L 328.846312 7.623978 
L 328.945555 6.352303 
L 329.007879 6.472031 
L 329.345218 8.875468 
L 329.425324 8.515114 
L 329.58563 9.570144 
L 329.766625 10.032823 
L 329.92768 9.889223 
L 330.09026 11.957064 
L 330.186272 11.503108 
L 330.265827 11.814333 
L 330.344962 10.983496 
L 330.424689 12.14226 
L 330.506112 11.781052 
L 330.605102 12.916079 
L 330.827119 11.006629 
L 330.925315 10.560813 
L 331.009537 11.870299 
L 331.196053 11.551826 
L 331.206037 11.632775 
L 331.246381 11.038835 
L 331.42769 11.374949 
L 331.587198 10.224687 
L 331.670755 9.734037 
L 331.750752 10.008894 
L 331.827145 9.037842 
L 331.90738 9.855879 
L 331.986793 9.459356 
L 332.15447 10.120502 
L 332.313913 9.497994 
L 332.487124 10.364266 
L 332.567319 9.928489 
L 332.587213 9.05684 
L 332.648204 10.274114 
L 332.824228 8.366405 
L 332.988102 6.650405 
L 333.168089 7.316498 
L 333.307329 7.792053 
L 333.567182 7.808859 
L 333.727739 8.146633 
L 333.866865 8.896761 
L 334.170738 5.557893 
L 334.28755 6.399128 
L 334.386585 5.85937 
L 334.48621 8.020206 
L 334.645894 6.963793 
L 334.709313 7.800915 
L 334.809269 7.432926 
L 334.967232 9.915909 
L 335.067501 9.474363 
L 335.287211 9.853953 
L 335.364869 11.677226 
L 335.465523 11.493777 
L 335.545771 10.963028 
L 335.626529 12.296399 
L 335.76434 12.232585 
L 335.805076 11.348568 
L 335.904109 11.439661 
L 335.968211 11.156387 
L 336.025216 10.1959 
L 336.157468 10.488046 
L 336.20479 9.804502 
L 336.405933 11.205041 
L 336.565175 10.858281 
L 336.645493 10.832172 
L 336.768164 10.46359 
L 336.923821 11.282441 
L 337.124385 9.382543 
L 337.208787 8.653967 
L 337.284508 8.751043 
L 337.364329 8.585422 
L 337.488033 9.730073 
L 337.687823 8.221041 
L 337.87185 9.75781 
L 338.028262 8.974129 
L 338.144898 9.438624 
L 338.323202 7.994666 
L 338.36948 8.701851 
L 338.453856 7.874808 
L 338.523823 8.687415 
L 338.643272 8.087769 
L 338.682908 7.226742 
L 338.944544 9.511736 
L 339.025092 8.093155 
L 339.143867 10.302177 
L 339.203112 9.376931 
L 339.423403 11.573237 
L 339.665055 9.547412 
L 339.765007 10.641163 
L 339.9219 9.83023 
L 340.082392 11.00499 
L 340.181617 10.89146 
L 340.247433 9.830993 
L 340.342102 10.60837 
L 340.422434 10.581566 
L 340.525029 10.690494 
L 340.782582 9.23451 
L 341.071859 10.853423 
L 341.268618 11.96688 
L 341.432965 11.809113 
L 341.577453 13.872588 
L 341.724315 13.625789 
L 341.743289 11.354969 
L 341.843755 12.28087 
L 341.905983 11.428125 
L 342.00233 11.606028 
L 342.122291 11.677815 
L 342.202372 11.943367 
L 342.486823 9.803866 
L 342.602199 10.290641 
L 342.902089 8.628517 
L 343.041495 9.703644 
L 343.083907 9.669384 
L 343.147966 9.565515 
L 343.421435 12.060402 
L 343.482031 11.245266 
L 343.822541 13.563699 
L 344.008592 13.098222 
L 344.222652 11.09425 
L 344.38353 12.435109 
L 344.483126 10.93591 
L 344.543631 11.382432 
L 344.723379 10.848563 
L 345.12159 15.04472 
L 345.244637 13.022919 
L 345.304506 13.423513 
L 345.465916 12.358643 
L 345.548539 12.505777 
L 345.711464 11.073301 
L 345.787576 9.499577 
L 345.887459 9.707003 
L 346.063468 11.161643 
L 346.187469 11.712988 
L 346.290654 11.562042 
L 346.329388 11.848965 
L 346.449275 13.442661 
L 346.566292 12.963047 
L 346.628613 14.393787 
L 346.788427 12.526833 
L 346.967692 11.459687 
L 347.088293 12.796122 
L 347.142402 12.31236 
L 347.274279 11.070224 
L 347.366805 11.879733 
L 347.534247 11.468924 
L 347.60717 12.703154 
L 347.73529 12.951314 
L 347.866607 14.317087 
L 348.036783 13.522002 
L 348.208235 12.615117 
L 348.360912 11.473928 
L 348.71823 9.619283 
L 348.779997 10.847429 
L 348.890963 10.668136 
L 349.177535 13.714709 
L 349.43713 11.941144 
L 349.516719 11.165095 
L 349.677275 12.124945 
L 349.756513 11.722283 
L 349.877564 11.999666 
L 349.936844 10.467885 
L 350.001327 10.621221 
L 350.17601 12.45535 
L 350.255721 12.095436 
L 350.383593 12.63866 
L 350.537712 10.387534 
L 350.757517 12.396665 
L 350.877481 12.158187 
L 350.949584 10.278357 
L 351.015859 10.368913 
L 351.097304 11.494376 
L 351.181596 10.164855 
L 351.277002 11.010429 
L 351.339442 10.945199 
L 351.51881 11.94172 
L 351.797934 11.321686 
L 351.837183 12.224682 
L 351.902659 11.150423 
L 351.957681 11.388862 
L 351.997285 12.506669 
L 352.107076 11.465983 
L 352.161304 11.949542 
L 352.319111 11.495272 
L 352.459655 10.509845 
L 352.565896 10.699168 
L 352.719725 10.454441 
L 352.759831 10.976949 
L 352.960614 9.861081 
L 353.038957 11.122297 
L 353.125336 10.818937 
L 353.143386 10.963789 
L 353.159171 12.170873 
L 353.242203 11.349327 
L 353.439725 12.118248 
L 353.499485 10.764952 
L 353.581428 12.295292 
L 353.638883 12.237042 
L 353.9138 9.364234 
L 354.005328 9.954562 
L 354.082547 9.193236 
L 354.480537 11.719572 
L 354.700363 14.415789 
L 354.71952 13.669888 
" clip-path="url(#pb742f71f50)" style="fill: none; stroke: #ff0000; stroke-opacity: 0.5; stroke-width: 2.1; stroke-linecap: square"/>
   </g>
   <g id="patch_3">
    <path d="M 30.123125 148.36327 
L 30.123125 0.72 
" style="fill: none; stroke: #000000; stroke-width: 0.8; stroke-linejoin: miter; stroke-linecap: square"/>
   </g>
   <g id="patch_4">
    <path d="M 354.71952 148.36327 
L 354.71952 0.72 
" style="fill: none; stroke: #000000; stroke-width: 0.8; stroke-linejoin: miter; stroke-linecap: square"/>
   </g>
   <g id="patch_5">
    <path d="M 30.123125 148.36327 
L 354.71952 148.36327 
" style="fill: none; stroke: #000000; stroke-width: 0.8; stroke-linejoin: miter; stroke-linecap: square"/>
   </g>
   <g id="patch_6">
    <path d="M 30.123125 0.72 
L 354.71952 0.72 
" style="fill: none; stroke: #000000; stroke-width: 0.8; stroke-linejoin: miter; stroke-linecap: square"/>
   </g>
   <g id="legend_1">
    <g id="patch_7">
     <path d="M 37.123125 143.36327 
L 110.891875 143.36327 
Q 112.891875 143.36327 112.891875 141.36327 
L 112.891875 113.00702 
Q 112.891875 111.00702 110.891875 111.00702 
L 37.123125 111.00702 
Q 35.123125 111.00702 35.123125 113.00702 
L 35.123125 141.36327 
Q 35.123125 143.36327 37.123125 143.36327 
z
" style="fill: #ffffff; opacity: 0.8; stroke: #cccccc; stroke-linejoin: miter"/>
    </g>
    <g id="line2d_25">
     <path d="M 39.123125 119.105457 
L 49.123125 119.105457 
L 59.123125 119.105457 
" style="fill: none; stroke: #0000ff; stroke-opacity: 0.5; stroke-width: 2.1; stroke-linecap: square"/>
    </g>
    <g id="text_14">
     <!-- RNEA -->
     <g transform="translate(67.123125 122.605457) scale(0.1 -0.1)">
      <defs>
       <path id="DejaVuSans-52" d="M 2841 2188 
Q 3044 2119 3236 1894 
Q 3428 1669 3622 1275 
L 4263 0 
L 3584 0 
L 2988 1197 
Q 2756 1666 2539 1819 
Q 2322 1972 1947 1972 
L 1259 1972 
L 1259 0 
L 628 0 
L 628 4666 
L 2053 4666 
Q 2853 4666 3247 4331 
Q 3641 3997 3641 3322 
Q 3641 2881 3436 2590 
Q 3231 2300 2841 2188 
z
M 1259 4147 
L 1259 2491 
L 2053 2491 
Q 2509 2491 2742 2702 
Q 2975 2913 2975 3322 
Q 2975 3731 2742 3939 
Q 2509 4147 2053 4147 
L 1259 4147 
z
" transform="scale(0.015625)"/>
       <path id="DejaVuSans-45" d="M 628 4666 
L 3578 4666 
L 3578 4134 
L 1259 4134 
L 1259 2753 
L 3481 2753 
L 3481 2222 
L 1259 2222 
L 1259 531 
L 3634 531 
L 3634 0 
L 628 0 
L 628 4666 
z
" transform="scale(0.015625)"/>
       <path id="DejaVuSans-41" d="M 2188 4044 
L 1331 1722 
L 3047 1722 
L 2188 4044 
z
M 1831 4666 
L 2547 4666 
L 4325 0 
L 3669 0 
L 3244 1197 
L 1141 1197 
L 716 0 
L 50 0 
L 1831 4666 
z
" transform="scale(0.015625)"/>
      </defs>
      <use xlink:href="#DejaVuSans-52"/>
      <use xlink:href="#DejaVuSans-4e" x="69.482422"/>
      <use xlink:href="#DejaVuSans-45" x="144.287109"/>
      <use xlink:href="#DejaVuSans-41" x="207.470703"/>
     </g>
    </g>
    <g id="line2d_26">
     <path d="M 39.123125 133.783582 
L 49.123125 133.783582 
L 59.123125 133.783582 
" style="fill: none; stroke: #ff0000; stroke-opacity: 0.5; stroke-width: 2.1; stroke-linecap: square"/>
    </g>
    <g id="text_15">
     <!-- BURNEA -->
     <g transform="translate(67.123125 137.283582) scale(0.1 -0.1)">
      <defs>
       <path id="DejaVuSans-42" d="M 1259 2228 
L 1259 519 
L 2272 519 
Q 2781 519 3026 730 
Q 3272 941 3272 1375 
Q 3272 1813 3026 2020 
Q 2781 2228 2272 2228 
L 1259 2228 
z
M 1259 4147 
L 1259 2741 
L 2194 2741 
Q 2656 2741 2882 2914 
Q 3109 3088 3109 3444 
Q 3109 3797 2882 3972 
Q 2656 4147 2194 4147 
L 1259 4147 
z
M 628 4666 
L 2241 4666 
Q 2963 4666 3353 4366 
Q 3744 4066 3744 3513 
Q 3744 3084 3544 2831 
Q 3344 2578 2956 2516 
Q 3422 2416 3680 2098 
Q 3938 1781 3938 1306 
Q 3938 681 3513 340 
Q 3088 0 2303 0 
L 628 0 
L 628 4666 
z
" transform="scale(0.015625)"/>
       <path id="DejaVuSans-55" d="M 556 4666 
L 1191 4666 
L 1191 1831 
Q 1191 1081 1462 751 
Q 1734 422 2344 422 
Q 2950 422 3222 751 
Q 3494 1081 3494 1831 
L 3494 4666 
L 4128 4666 
L 4128 1753 
Q 4128 841 3676 375 
Q 3225 -91 2344 -91 
Q 1459 -91 1007 375 
Q 556 841 556 1753 
L 556 4666 
z
" transform="scale(0.015625)"/>
      </defs>
      <use xlink:href="#DejaVuSans-42"/>
      <use xlink:href="#DejaVuSans-55" x="68.603516"/>
      <use xlink:href="#DejaVuSans-52" x="141.796875"/>
      <use xlink:href="#DejaVuSans-4e" x="211.279297"/>
      <use xlink:href="#DejaVuSans-45" x="286.083984"/>
      <use xlink:href="#DejaVuSans-41" x="349.267578"/>
     </g>
    </g>
   </g>
  </g>
 </g>
 <defs>
  <clipPath id="pb742f71f50">
   <rect x="30.123125" y="0.72" width="324.596395" height="147.64327"/>
  </clipPath>
 </defs>
</svg>
