<?xml version="1.0" encoding="utf-8" standalone="no"?>
<!DOCTYPE svg PUBLIC "-//W3C//DTD SVG 1.1//EN"
  "http://www.w3.org/Graphics/SVG/1.1/DTD/svg11.dtd">
<svg xmlns:xlink="http://www.w3.org/1999/xlink" width="355.43952pt" height="175.43952pt" viewBox="0 0 355.43952 175.43952" xmlns="http://www.w3.org/2000/svg" version="1.1">
 <metadata>
  <rdf:RDF xmlns:dc="http://purl.org/dc/elements/1.1/" xmlns:cc="http://creativecommons.org/ns#" xmlns:rdf="http://www.w3.org/1999/02/22-rdf-syntax-ns#">
   <cc:Work>
    <dc:type rdf:resource="http://purl.org/dc/dcmitype/StillImage"/>
    <dc:date>2023-09-09T18:29:46.941946</dc:date>
    <dc:format>image/svg+xml</dc:format>
    <dc:creator>
     <cc:Agent>
      <dc:title>Matplotlib v3.7.2, https://matplotlib.org/</dc:title>
     </cc:Agent>
    </dc:creator>
   </cc:Work>
  </rdf:RDF>
 </metadata>
 <defs>
  <style type="text/css">*{stroke-linejoin: round; stroke-linecap: butt}</style>
 </defs>
 <g id="figure_1">
  <g id="patch_1">
   <path d="M 0 175.43952 
L 355.43952 175.43952 
L 355.43952 0 
L 0 0 
L 0 175.43952 
z
" style="fill: none"/>
  </g>
  <g id="axes_1">
   <g id="patch_2">
    <path d="M 36.485625 148.36327 
L 354.71952 148.36327 
L 354.71952 0.72 
L 36.485625 0.72 
L 36.485625 148.36327 
z
" style="fill: none"/>
   </g>
   <g id="matplotlib.axis_1">
    <g id="xtick_1">
     <g id="line2d_1">
      <path d="M 36.485625 148.36327 
L 36.485625 0.72 
" clip-path="url(#p18fa5641e3)" style="fill: none; stroke-dasharray: 0.8,1.32; stroke-dashoffset: 0; stroke: #000000; stroke-opacity: 0.5; stroke-width: 0.8"/>
     </g>
     <g id="line2d_2">
      <defs>
       <path id="m9175b10077" d="M 0 0 
L 0 3.5 
" style="stroke: #000000; stroke-width: 0.8"/>
      </defs>
      <g>
       <use xlink:href="#m9175b10077" x="36.485625" y="148.36327" style="stroke: #000000; stroke-width: 0.8"/>
      </g>
     </g>
     <g id="text_1">
      <!-- 0 -->
      <g transform="translate(33.304375 162.961707) scale(0.1 -0.1)">
       <defs>
        <path id="DejaVuSans-30" d="M 2034 4250 
Q 1547 4250 1301 3770 
Q 1056 3291 1056 2328 
Q 1056 1369 1301 889 
Q 1547 409 2034 409 
Q 2525 409 2770 889 
Q 3016 1369 3016 2328 
Q 3016 3291 2770 3770 
Q 2525 4250 2034 4250 
z
M 2034 4750 
Q 2819 4750 3233 4129 
Q 3647 3509 3647 2328 
Q 3647 1150 3233 529 
Q 2819 -91 2034 -91 
Q 1250 -91 836 529 
Q 422 1150 422 2328 
Q 422 3509 836 4129 
Q 1250 4750 2034 4750 
z
" transform="scale(0.015625)"/>
       </defs>
       <use xlink:href="#DejaVuSans-30"/>
      </g>
     </g>
    </g>
    <g id="xtick_2">
     <g id="line2d_3">
      <path d="M 85.093173 148.36327 
L 85.093173 0.72 
" clip-path="url(#p18fa5641e3)" style="fill: none; stroke-dasharray: 0.8,1.32; stroke-dashoffset: 0; stroke: #000000; stroke-opacity: 0.5; stroke-width: 0.8"/>
     </g>
     <g id="line2d_4">
      <g>
       <use xlink:href="#m9175b10077" x="85.093173" y="148.36327" style="stroke: #000000; stroke-width: 0.8"/>
      </g>
     </g>
     <g id="text_2">
      <!-- 5 -->
      <g transform="translate(81.911923 162.961707) scale(0.1 -0.1)">
       <defs>
        <path id="DejaVuSans-35" d="M 691 4666 
L 3169 4666 
L 3169 4134 
L 1269 4134 
L 1269 2991 
Q 1406 3038 1543 3061 
Q 1681 3084 1819 3084 
Q 2600 3084 3056 2656 
Q 3513 2228 3513 1497 
Q 3513 744 3044 326 
Q 2575 -91 1722 -91 
Q 1428 -91 1123 -41 
Q 819 9 494 109 
L 494 744 
Q 775 591 1075 516 
Q 1375 441 1709 441 
Q 2250 441 2565 725 
Q 2881 1009 2881 1497 
Q 2881 1984 2565 2268 
Q 2250 2553 1709 2553 
Q 1456 2553 1204 2497 
Q 953 2441 691 2322 
L 691 4666 
z
" transform="scale(0.015625)"/>
       </defs>
       <use xlink:href="#DejaVuSans-35"/>
      </g>
     </g>
    </g>
    <g id="xtick_3">
     <g id="line2d_5">
      <path d="M 133.70072 148.36327 
L 133.70072 0.72 
" clip-path="url(#p18fa5641e3)" style="fill: none; stroke-dasharray: 0.8,1.32; stroke-dashoffset: 0; stroke: #000000; stroke-opacity: 0.5; stroke-width: 0.8"/>
     </g>
     <g id="line2d_6">
      <g>
       <use xlink:href="#m9175b10077" x="133.70072" y="148.36327" style="stroke: #000000; stroke-width: 0.8"/>
      </g>
     </g>
     <g id="text_3">
      <!-- 10 -->
      <g transform="translate(127.33822 162.961707) scale(0.1 -0.1)">
       <defs>
        <path id="DejaVuSans-31" d="M 794 531 
L 1825 531 
L 1825 4091 
L 703 3866 
L 703 4441 
L 1819 4666 
L 2450 4666 
L 2450 531 
L 3481 531 
L 3481 0 
L 794 0 
L 794 531 
z
" transform="scale(0.015625)"/>
       </defs>
       <use xlink:href="#DejaVuSans-31"/>
       <use xlink:href="#DejaVuSans-30" x="63.623047"/>
      </g>
     </g>
    </g>
    <g id="xtick_4">
     <g id="line2d_7">
      <path d="M 182.308268 148.36327 
L 182.308268 0.72 
" clip-path="url(#p18fa5641e3)" style="fill: none; stroke-dasharray: 0.8,1.32; stroke-dashoffset: 0; stroke: #000000; stroke-opacity: 0.5; stroke-width: 0.8"/>
     </g>
     <g id="line2d_8">
      <g>
       <use xlink:href="#m9175b10077" x="182.308268" y="148.36327" style="stroke: #000000; stroke-width: 0.8"/>
      </g>
     </g>
     <g id="text_4">
      <!-- 15 -->
      <g transform="translate(175.945768 162.961707) scale(0.1 -0.1)">
       <use xlink:href="#DejaVuSans-31"/>
       <use xlink:href="#DejaVuSans-35" x="63.623047"/>
      </g>
     </g>
    </g>
    <g id="xtick_5">
     <g id="line2d_9">
      <path d="M 230.915815 148.36327 
L 230.915815 0.72 
" clip-path="url(#p18fa5641e3)" style="fill: none; stroke-dasharray: 0.8,1.32; stroke-dashoffset: 0; stroke: #000000; stroke-opacity: 0.5; stroke-width: 0.8"/>
     </g>
     <g id="line2d_10">
      <g>
       <use xlink:href="#m9175b10077" x="230.915815" y="148.36327" style="stroke: #000000; stroke-width: 0.8"/>
      </g>
     </g>
     <g id="text_5">
      <!-- 20 -->
      <g transform="translate(224.553315 162.961707) scale(0.1 -0.1)">
       <defs>
        <path id="DejaVuSans-32" d="M 1228 531 
L 3431 531 
L 3431 0 
L 469 0 
L 469 531 
Q 828 903 1448 1529 
Q 2069 2156 2228 2338 
Q 2531 2678 2651 2914 
Q 2772 3150 2772 3378 
Q 2772 3750 2511 3984 
Q 2250 4219 1831 4219 
Q 1534 4219 1204 4116 
Q 875 4013 500 3803 
L 500 4441 
Q 881 4594 1212 4672 
Q 1544 4750 1819 4750 
Q 2544 4750 2975 4387 
Q 3406 4025 3406 3419 
Q 3406 3131 3298 2873 
Q 3191 2616 2906 2266 
Q 2828 2175 2409 1742 
Q 1991 1309 1228 531 
z
" transform="scale(0.015625)"/>
       </defs>
       <use xlink:href="#DejaVuSans-32"/>
       <use xlink:href="#DejaVuSans-30" x="63.623047"/>
      </g>
     </g>
    </g>
    <g id="xtick_6">
     <g id="line2d_11">
      <path d="M 279.523363 148.36327 
L 279.523363 0.72 
" clip-path="url(#p18fa5641e3)" style="fill: none; stroke-dasharray: 0.8,1.32; stroke-dashoffset: 0; stroke: #000000; stroke-opacity: 0.5; stroke-width: 0.8"/>
     </g>
     <g id="line2d_12">
      <g>
       <use xlink:href="#m9175b10077" x="279.523363" y="148.36327" style="stroke: #000000; stroke-width: 0.8"/>
      </g>
     </g>
     <g id="text_6">
      <!-- 25 -->
      <g transform="translate(273.160863 162.961707) scale(0.1 -0.1)">
       <use xlink:href="#DejaVuSans-32"/>
       <use xlink:href="#DejaVuSans-35" x="63.623047"/>
      </g>
     </g>
    </g>
    <g id="xtick_7">
     <g id="line2d_13">
      <path d="M 328.130911 148.36327 
L 328.130911 0.72 
" clip-path="url(#p18fa5641e3)" style="fill: none; stroke-dasharray: 0.8,1.32; stroke-dashoffset: 0; stroke: #000000; stroke-opacity: 0.5; stroke-width: 0.8"/>
     </g>
     <g id="line2d_14">
      <g>
       <use xlink:href="#m9175b10077" x="328.130911" y="148.36327" style="stroke: #000000; stroke-width: 0.8"/>
      </g>
     </g>
     <g id="text_7">
      <!-- 30 -->
      <g transform="translate(321.768411 162.961707) scale(0.1 -0.1)">
       <defs>
        <path id="DejaVuSans-33" d="M 2597 2516 
Q 3050 2419 3304 2112 
Q 3559 1806 3559 1356 
Q 3559 666 3084 287 
Q 2609 -91 1734 -91 
Q 1441 -91 1130 -33 
Q 819 25 488 141 
L 488 750 
Q 750 597 1062 519 
Q 1375 441 1716 441 
Q 2309 441 2620 675 
Q 2931 909 2931 1356 
Q 2931 1769 2642 2001 
Q 2353 2234 1838 2234 
L 1294 2234 
L 1294 2753 
L 1863 2753 
Q 2328 2753 2575 2939 
Q 2822 3125 2822 3475 
Q 2822 3834 2567 4026 
Q 2313 4219 1838 4219 
Q 1578 4219 1281 4162 
Q 984 4106 628 3988 
L 628 4550 
Q 988 4650 1302 4700 
Q 1616 4750 1894 4750 
Q 2613 4750 3031 4423 
Q 3450 4097 3450 3541 
Q 3450 3153 3228 2886 
Q 3006 2619 2597 2516 
z
" transform="scale(0.015625)"/>
       </defs>
       <use xlink:href="#DejaVuSans-33"/>
       <use xlink:href="#DejaVuSans-30" x="63.623047"/>
      </g>
     </g>
    </g>
    <g id="text_8">
     <!-- Zeit [s] -->
     <g transform="translate(177.656479 172.639832) scale(0.1 -0.1)">
      <defs>
       <path id="DejaVuSans-5a" d="M 359 4666 
L 4025 4666 
L 4025 4184 
L 1075 531 
L 4097 531 
L 4097 0 
L 288 0 
L 288 481 
L 3238 4134 
L 359 4134 
L 359 4666 
z
" transform="scale(0.015625)"/>
       <path id="DejaVuSans-65" d="M 3597 1894 
L 3597 1613 
L 953 1613 
Q 991 1019 1311 708 
Q 1631 397 2203 397 
Q 2534 397 2845 478 
Q 3156 559 3463 722 
L 3463 178 
Q 3153 47 2828 -22 
Q 2503 -91 2169 -91 
Q 1331 -91 842 396 
Q 353 884 353 1716 
Q 353 2575 817 3079 
Q 1281 3584 2069 3584 
Q 2775 3584 3186 3129 
Q 3597 2675 3597 1894 
z
M 3022 2063 
Q 3016 2534 2758 2815 
Q 2500 3097 2075 3097 
Q 1594 3097 1305 2825 
Q 1016 2553 972 2059 
L 3022 2063 
z
" transform="scale(0.015625)"/>
       <path id="DejaVuSans-69" d="M 603 3500 
L 1178 3500 
L 1178 0 
L 603 0 
L 603 3500 
z
M 603 4863 
L 1178 4863 
L 1178 4134 
L 603 4134 
L 603 4863 
z
" transform="scale(0.015625)"/>
       <path id="DejaVuSans-74" d="M 1172 4494 
L 1172 3500 
L 2356 3500 
L 2356 3053 
L 1172 3053 
L 1172 1153 
Q 1172 725 1289 603 
Q 1406 481 1766 481 
L 2356 481 
L 2356 0 
L 1766 0 
Q 1100 0 847 248 
Q 594 497 594 1153 
L 594 3053 
L 172 3053 
L 172 3500 
L 594 3500 
L 594 4494 
L 1172 4494 
z
" transform="scale(0.015625)"/>
       <path id="DejaVuSans-20" transform="scale(0.015625)"/>
       <path id="DejaVuSans-5b" d="M 550 4863 
L 1875 4863 
L 1875 4416 
L 1125 4416 
L 1125 -397 
L 1875 -397 
L 1875 -844 
L 550 -844 
L 550 4863 
z
" transform="scale(0.015625)"/>
       <path id="DejaVuSans-73" d="M 2834 3397 
L 2834 2853 
Q 2591 2978 2328 3040 
Q 2066 3103 1784 3103 
Q 1356 3103 1142 2972 
Q 928 2841 928 2578 
Q 928 2378 1081 2264 
Q 1234 2150 1697 2047 
L 1894 2003 
Q 2506 1872 2764 1633 
Q 3022 1394 3022 966 
Q 3022 478 2636 193 
Q 2250 -91 1575 -91 
Q 1294 -91 989 -36 
Q 684 19 347 128 
L 347 722 
Q 666 556 975 473 
Q 1284 391 1588 391 
Q 1994 391 2212 530 
Q 2431 669 2431 922 
Q 2431 1156 2273 1281 
Q 2116 1406 1581 1522 
L 1381 1569 
Q 847 1681 609 1914 
Q 372 2147 372 2553 
Q 372 3047 722 3315 
Q 1072 3584 1716 3584 
Q 2034 3584 2315 3537 
Q 2597 3491 2834 3397 
z
" transform="scale(0.015625)"/>
       <path id="DejaVuSans-5d" d="M 1947 4863 
L 1947 -844 
L 622 -844 
L 622 -397 
L 1369 -397 
L 1369 4416 
L 622 4416 
L 622 4863 
L 1947 4863 
z
" transform="scale(0.015625)"/>
      </defs>
      <use xlink:href="#DejaVuSans-5a"/>
      <use xlink:href="#DejaVuSans-65" x="68.505859"/>
      <use xlink:href="#DejaVuSans-69" x="130.029297"/>
      <use xlink:href="#DejaVuSans-74" x="157.8125"/>
      <use xlink:href="#DejaVuSans-20" x="197.021484"/>
      <use xlink:href="#DejaVuSans-5b" x="228.808594"/>
      <use xlink:href="#DejaVuSans-73" x="267.822266"/>
      <use xlink:href="#DejaVuSans-5d" x="319.921875"/>
     </g>
    </g>
   </g>
   <g id="matplotlib.axis_2">
    <g id="ytick_1">
     <g id="line2d_15">
      <path d="M 36.485625 137.743268 
L 354.71952 137.743268 
" clip-path="url(#p18fa5641e3)" style="fill: none; stroke-dasharray: 0.8,1.32; stroke-dashoffset: 0; stroke: #000000; stroke-opacity: 0.5; stroke-width: 0.8"/>
     </g>
     <g id="line2d_16">
      <defs>
       <path id="m5c4b6b34fb" d="M 0 0 
L -3.5 0 
" style="stroke: #000000; stroke-width: 0.8"/>
      </defs>
      <g>
       <use xlink:href="#m5c4b6b34fb" x="36.485625" y="137.743268" style="stroke: #000000; stroke-width: 0.8"/>
      </g>
     </g>
     <g id="text_9">
      <!-- 105 -->
      <g transform="translate(10.398125 141.542487) scale(0.1 -0.1)">
       <use xlink:href="#DejaVuSans-31"/>
       <use xlink:href="#DejaVuSans-30" x="63.623047"/>
       <use xlink:href="#DejaVuSans-35" x="127.246094"/>
      </g>
     </g>
    </g>
    <g id="ytick_2">
     <g id="line2d_17">
      <path d="M 36.485625 116.394112 
L 354.71952 116.394112 
" clip-path="url(#p18fa5641e3)" style="fill: none; stroke-dasharray: 0.8,1.32; stroke-dashoffset: 0; stroke: #000000; stroke-opacity: 0.5; stroke-width: 0.8"/>
     </g>
     <g id="line2d_18">
      <g>
       <use xlink:href="#m5c4b6b34fb" x="36.485625" y="116.394112" style="stroke: #000000; stroke-width: 0.8"/>
      </g>
     </g>
     <g id="text_10">
      <!-- 110 -->
      <g transform="translate(10.398125 120.193331) scale(0.1 -0.1)">
       <use xlink:href="#DejaVuSans-31"/>
       <use xlink:href="#DejaVuSans-31" x="63.623047"/>
       <use xlink:href="#DejaVuSans-30" x="127.246094"/>
      </g>
     </g>
    </g>
    <g id="ytick_3">
     <g id="line2d_19">
      <path d="M 36.485625 95.044956 
L 354.71952 95.044956 
" clip-path="url(#p18fa5641e3)" style="fill: none; stroke-dasharray: 0.8,1.32; stroke-dashoffset: 0; stroke: #000000; stroke-opacity: 0.5; stroke-width: 0.8"/>
     </g>
     <g id="line2d_20">
      <g>
       <use xlink:href="#m5c4b6b34fb" x="36.485625" y="95.044956" style="stroke: #000000; stroke-width: 0.8"/>
      </g>
     </g>
     <g id="text_11">
      <!-- 115 -->
      <g transform="translate(10.398125 98.844175) scale(0.1 -0.1)">
       <use xlink:href="#DejaVuSans-31"/>
       <use xlink:href="#DejaVuSans-31" x="63.623047"/>
       <use xlink:href="#DejaVuSans-35" x="127.246094"/>
      </g>
     </g>
    </g>
    <g id="ytick_4">
     <g id="line2d_21">
      <path d="M 36.485625 73.695801 
L 354.71952 73.695801 
" clip-path="url(#p18fa5641e3)" style="fill: none; stroke-dasharray: 0.8,1.32; stroke-dashoffset: 0; stroke: #000000; stroke-opacity: 0.5; stroke-width: 0.8"/>
     </g>
     <g id="line2d_22">
      <g>
       <use xlink:href="#m5c4b6b34fb" x="36.485625" y="73.695801" style="stroke: #000000; stroke-width: 0.8"/>
      </g>
     </g>
     <g id="text_12">
      <!-- 120 -->
      <g transform="translate(10.398125 77.495019) scale(0.1 -0.1)">
       <use xlink:href="#DejaVuSans-31"/>
       <use xlink:href="#DejaVuSans-32" x="63.623047"/>
       <use xlink:href="#DejaVuSans-30" x="127.246094"/>
      </g>
     </g>
    </g>
    <g id="ytick_5">
     <g id="line2d_23">
      <path d="M 36.485625 52.346645 
L 354.71952 52.346645 
" clip-path="url(#p18fa5641e3)" style="fill: none; stroke-dasharray: 0.8,1.32; stroke-dashoffset: 0; stroke: #000000; stroke-opacity: 0.5; stroke-width: 0.8"/>
     </g>
     <g id="line2d_24">
      <g>
       <use xlink:href="#m5c4b6b34fb" x="36.485625" y="52.346645" style="stroke: #000000; stroke-width: 0.8"/>
      </g>
     </g>
     <g id="text_13">
      <!-- 125 -->
      <g transform="translate(10.398125 56.145864) scale(0.1 -0.1)">
       <use xlink:href="#DejaVuSans-31"/>
       <use xlink:href="#DejaVuSans-32" x="63.623047"/>
       <use xlink:href="#DejaVuSans-35" x="127.246094"/>
      </g>
     </g>
    </g>
    <g id="ytick_6">
     <g id="line2d_25">
      <path d="M 36.485625 30.997489 
L 354.71952 30.997489 
" clip-path="url(#p18fa5641e3)" style="fill: none; stroke-dasharray: 0.8,1.32; stroke-dashoffset: 0; stroke: #000000; stroke-opacity: 0.5; stroke-width: 0.8"/>
     </g>
     <g id="line2d_26">
      <g>
       <use xlink:href="#m5c4b6b34fb" x="36.485625" y="30.997489" style="stroke: #000000; stroke-width: 0.8"/>
      </g>
     </g>
     <g id="text_14">
      <!-- 130 -->
      <g transform="translate(10.398125 34.796708) scale(0.1 -0.1)">
       <use xlink:href="#DejaVuSans-31"/>
       <use xlink:href="#DejaVuSans-33" x="63.623047"/>
       <use xlink:href="#DejaVuSans-30" x="127.246094"/>
      </g>
     </g>
    </g>
    <g id="ytick_7">
     <g id="line2d_27">
      <path d="M 36.485625 9.648333 
L 354.71952 9.648333 
" clip-path="url(#p18fa5641e3)" style="fill: none; stroke-dasharray: 0.8,1.32; stroke-dashoffset: 0; stroke: #000000; stroke-opacity: 0.5; stroke-width: 0.8"/>
     </g>
     <g id="line2d_28">
      <g>
       <use xlink:href="#m5c4b6b34fb" x="36.485625" y="9.648333" style="stroke: #000000; stroke-width: 0.8"/>
      </g>
     </g>
     <g id="text_15">
      <!-- 135 -->
      <g transform="translate(10.398125 13.447552) scale(0.1 -0.1)">
       <use xlink:href="#DejaVuSans-31"/>
       <use xlink:href="#DejaVuSans-33" x="63.623047"/>
       <use xlink:href="#DejaVuSans-35" x="127.246094"/>
      </g>
     </g>
    </g>
    <g id="text_16">
     <!-- 2-Norm F [N] -->
     <g transform="translate(8.318438 106.861166) rotate(-90) scale(0.1 -0.1)">
      <defs>
       <path id="DejaVuSans-2d" d="M 313 2009 
L 1997 2009 
L 1997 1497 
L 313 1497 
L 313 2009 
z
" transform="scale(0.015625)"/>
       <path id="DejaVuSans-4e" d="M 628 4666 
L 1478 4666 
L 3547 763 
L 3547 4666 
L 4159 4666 
L 4159 0 
L 3309 0 
L 1241 3903 
L 1241 0 
L 628 0 
L 628 4666 
z
" transform="scale(0.015625)"/>
       <path id="DejaVuSans-6f" d="M 1959 3097 
Q 1497 3097 1228 2736 
Q 959 2375 959 1747 
Q 959 1119 1226 758 
Q 1494 397 1959 397 
Q 2419 397 2687 759 
Q 2956 1122 2956 1747 
Q 2956 2369 2687 2733 
Q 2419 3097 1959 3097 
z
M 1959 3584 
Q 2709 3584 3137 3096 
Q 3566 2609 3566 1747 
Q 3566 888 3137 398 
Q 2709 -91 1959 -91 
Q 1206 -91 779 398 
Q 353 888 353 1747 
Q 353 2609 779 3096 
Q 1206 3584 1959 3584 
z
" transform="scale(0.015625)"/>
       <path id="DejaVuSans-72" d="M 2631 2963 
Q 2534 3019 2420 3045 
Q 2306 3072 2169 3072 
Q 1681 3072 1420 2755 
Q 1159 2438 1159 1844 
L 1159 0 
L 581 0 
L 581 3500 
L 1159 3500 
L 1159 2956 
Q 1341 3275 1631 3429 
Q 1922 3584 2338 3584 
Q 2397 3584 2469 3576 
Q 2541 3569 2628 3553 
L 2631 2963 
z
" transform="scale(0.015625)"/>
       <path id="DejaVuSans-6d" d="M 3328 2828 
Q 3544 3216 3844 3400 
Q 4144 3584 4550 3584 
Q 5097 3584 5394 3201 
Q 5691 2819 5691 2113 
L 5691 0 
L 5113 0 
L 5113 2094 
Q 5113 2597 4934 2840 
Q 4756 3084 4391 3084 
Q 3944 3084 3684 2787 
Q 3425 2491 3425 1978 
L 3425 0 
L 2847 0 
L 2847 2094 
Q 2847 2600 2669 2842 
Q 2491 3084 2119 3084 
Q 1678 3084 1418 2786 
Q 1159 2488 1159 1978 
L 1159 0 
L 581 0 
L 581 3500 
L 1159 3500 
L 1159 2956 
Q 1356 3278 1631 3431 
Q 1906 3584 2284 3584 
Q 2666 3584 2933 3390 
Q 3200 3197 3328 2828 
z
" transform="scale(0.015625)"/>
       <path id="DejaVuSans-46" d="M 628 4666 
L 3309 4666 
L 3309 4134 
L 1259 4134 
L 1259 2759 
L 3109 2759 
L 3109 2228 
L 1259 2228 
L 1259 0 
L 628 0 
L 628 4666 
z
" transform="scale(0.015625)"/>
      </defs>
      <use xlink:href="#DejaVuSans-32"/>
      <use xlink:href="#DejaVuSans-2d" x="63.623047"/>
      <use xlink:href="#DejaVuSans-4e" x="99.707031"/>
      <use xlink:href="#DejaVuSans-6f" x="174.511719"/>
      <use xlink:href="#DejaVuSans-72" x="235.693359"/>
      <use xlink:href="#DejaVuSans-6d" x="275.056641"/>
      <use xlink:href="#DejaVuSans-20" x="372.46875"/>
      <use xlink:href="#DejaVuSans-46" x="404.255859"/>
      <use xlink:href="#DejaVuSans-20" x="461.775391"/>
      <use xlink:href="#DejaVuSans-5b" x="493.5625"/>
      <use xlink:href="#DejaVuSans-4e" x="532.576172"/>
      <use xlink:href="#DejaVuSans-5d" x="607.380859"/>
     </g>
    </g>
   </g>
   <g id="line2d_29">
    <path d="M 36.485625 4.101144 
L 354.71952 4.101144 
L 354.71952 4.101144 
" clip-path="url(#p18fa5641e3)" style="fill: none; stroke: #0000ff; stroke-opacity: 0.5; stroke-width: 2.1; stroke-linecap: square"/>
   </g>
   <g id="line2d_30">
    <path d="M 36.485625 136.991415 
L 36.722133 140.440242 
L 36.825906 139.957116 
L 36.843152 137.944275 
L 36.901148 138.932804 
L 36.981959 138.762447 
L 37.0387 135.563769 
L 37.114979 135.981609 
L 37.193847 136.74222 
L 37.292759 136.317064 
L 37.37751 137.167531 
L 37.467787 134.959642 
L 37.526314 135.133073 
L 37.683187 137.046953 
L 37.762074 135.986959 
L 37.879762 136.817091 
L 38.016607 135.24297 
L 38.09448 136.710822 
L 38.19267 136.318405 
L 38.329638 137.383334 
L 38.524813 134.226074 
L 38.996259 137.70057 
L 39.133255 137.110599 
L 39.155764 135.974332 
L 39.231336 136.771281 
L 39.310606 136.902345 
L 39.548955 138.797507 
L 39.798975 137.12016 
L 40.11396 140.955857 
L 40.192664 140.508496 
L 40.276426 138.776267 
L 40.358399 139.008137 
L 40.448987 140.378154 
L 40.606283 138.868956 
L 40.684483 138.468505 
L 40.763127 138.698477 
L 40.927457 137.054974 
L 41.0032 138.617356 
L 41.409993 135.895762 
L 41.487338 136.098962 
L 41.651211 138.904069 
L 41.823458 137.372514 
L 41.901857 137.785214 
L 42.137641 134.705987 
L 42.294408 136.930482 
L 42.455606 136.087942 
L 42.54976 136.196622 
L 42.707154 133.843637 
L 42.7851 134.421546 
L 42.953874 136.140494 
L 43.023988 135.648816 
L 43.117857 136.272505 
L 43.196444 136.250401 
L 43.368409 134.870959 
L 43.433033 135.554389 
L 43.512664 135.164683 
L 43.669689 136.561919 
L 43.746495 137.226491 
L 43.931016 134.729852 
L 44.001636 133.525574 
L 44.078397 134.033194 
L 44.320587 137.280577 
L 44.41528 137.873714 
L 44.491052 136.944464 
L 44.651051 138.578941 
L 45.081382 135.395629 
L 45.375294 138.226683 
L 45.512263 136.426116 
L 45.785794 143.247296 
L 45.864575 141.993155 
L 45.943091 141.509789 
L 46.102078 136.831916 
L 46.201909 137.717748 
L 46.262643 138.814833 
L 46.344214 138.637748 
L 46.751251 136.20597 
L 47.009051 137.833033 
L 47.089101 137.650192 
L 47.343248 139.092463 
L 47.404023 138.791138 
L 47.484257 138.557417 
L 47.662511 136.212338 
L 47.728983 136.836013 
L 47.809125 136.811218 
L 47.914431 137.071513 
L 48.08234 138.806 
L 48.250485 134.691817 
L 48.262362 134.404674 
L 48.333467 134.53555 
L 48.420531 136.248963 
L 48.636684 138.577099 
L 48.73415 138.207401 
L 48.890705 136.095084 
L 49.125988 139.325878 
L 49.28485 137.350341 
L 49.361677 136.866084 
L 49.55674 138.596306 
L 49.603147 138.693828 
L 49.713868 138.031008 
L 49.813426 138.157854 
L 49.911719 135.750842 
L 50.098396 139.300683 
L 50.165291 139.033842 
L 50.428358 136.586557 
L 50.830462 141.24948 
L 50.889523 141.040058 
L 51.126183 140.189837 
L 51.281319 138.518481 
L 51.359442 139.170536 
L 51.458122 138.024395 
L 51.693239 132.908071 
L 51.790701 133.429201 
L 52.104421 137.855382 
L 52.182654 137.460934 
L 52.280769 137.938436 
L 52.515838 140.455064 
L 52.593699 140.192534 
L 52.965856 135.641699 
L 53.004745 138.208614 
L 53.071256 138.160512 
L 53.160996 136.947388 
L 53.675324 141.982903 
L 53.730965 141.439173 
L 53.809336 138.968976 
L 53.900768 139.078274 
L 53.966263 140.782491 
L 54.161466 140.261149 
L 54.220843 140.540014 
L 54.376905 138.632472 
L 54.651996 141.173549 
L 54.711432 140.680175 
L 54.789508 138.606694 
L 54.867772 138.997543 
L 54.985154 138.910999 
L 55.161542 139.800726 
L 55.338035 139.253118 
L 55.396735 139.360195 
L 55.455934 139.282852 
L 55.568364 138.829645 
L 55.592983 138.984141 
L 55.968744 141.012879 
L 56.009517 141.003216 
L 56.185984 138.645548 
L 56.337148 139.966004 
L 56.475391 139.76186 
L 56.539735 139.324874 
L 56.583858 140.104762 
L 56.583942 139.256684 
L 56.661914 139.67747 
L 56.891302 140.049709 
L 56.927858 139.65833 
L 56.948543 140.549892 
L 57.02546 140.34896 
L 57.116766 139.045304 
L 57.135669 139.443887 
L 57.214251 138.757784 
L 57.307814 139.572641 
L 57.397809 139.512656 
L 57.513393 138.815386 
L 57.626039 139.126727 
L 57.707948 138.911667 
L 57.863873 139.687772 
L 57.980683 138.225968 
L 58.020036 140.777883 
L 58.098944 140.213962 
L 58.353447 133.144512 
L 58.43134 134.620121 
L 58.588334 136.925056 
L 58.705719 136.39002 
L 58.768533 138.876352 
L 58.84413 138.144121 
L 59.024362 136.771022 
L 59.181932 138.21 
L 59.26015 139.148931 
L 59.316876 139.116859 
L 59.513059 138.886205 
L 59.591536 137.323914 
L 59.651441 137.340246 
L 59.73075 138.326529 
L 59.872873 138.55523 
L 59.964493 139.969701 
L 60.140171 138.715136 
L 60.318207 136.471933 
L 60.39691 136.839244 
L 60.53755 134.46365 
L 60.631774 134.429119 
L 60.866974 133.051843 
L 60.885721 133.490989 
L 61.728095 137.183492 
L 62.185162 137.896269 
L 62.612388 137.465723 
L 62.6297 136.297563 
L 62.707573 137.163222 
L 62.806069 138.297839 
L 62.963632 135.913551 
L 63.257037 142.678619 
L 63.278196 140.977363 
L 63.512803 139.845594 
L 63.531214 138.674331 
L 63.668029 137.963023 
L 63.807902 140.229471 
L 64.080121 136.907401 
L 64.259914 140.164916 
L 64.343131 140.518814 
L 64.492335 139.436223 
L 64.688396 134.264182 
L 64.747668 134.55965 
L 64.844067 136.188476 
L 65.028836 133.537573 
L 65.13835 133.607241 
L 65.236215 136.585039 
L 65.316789 137.552553 
L 65.471731 137.092358 
L 65.687233 134.65455 
L 65.849162 136.093279 
L 65.903019 136.052805 
L 66.006625 135.203724 
L 66.059679 135.634081 
L 66.139072 137.826039 
L 66.212628 136.519077 
L 66.330358 136.148809 
L 66.604684 137.769349 
L 66.780941 137.21909 
L 66.859085 136.71255 
L 66.93776 136.801719 
L 67.037715 137.161702 
L 67.193047 138.334231 
L 67.251459 137.891204 
L 67.427055 138.740079 
L 67.505762 138.62576 
L 67.605812 138.366469 
L 67.75992 136.592826 
L 67.917616 138.208983 
L 68.074582 135.963989 
L 68.231333 133.30755 
L 68.390057 134.499635 
L 68.546743 136.388723 
L 68.721815 134.773178 
L 68.878207 138.915034 
L 69.01439 139.365473 
L 69.033804 140.400971 
L 69.133818 139.586824 
L 69.30083 139.284274 
L 69.301157 139.625797 
L 69.397154 137.777892 
L 69.768486 142.222617 
L 69.962833 144.982126 
L 70.100055 144.585029 
L 70.256776 143.680453 
L 70.511437 139.738717 
L 70.608968 137.670778 
L 70.746031 133.635711 
L 70.96068 134.846062 
L 71.138439 134.163297 
L 71.234333 135.073103 
L 71.317482 134.89701 
L 71.392573 135.319038 
L 71.548605 138.760094 
L 71.630262 139.10015 
L 71.784412 139.231005 
L 71.843204 140.535393 
L 71.886485 140.483738 
L 71.960837 140.181916 
L 72.117262 142.027388 
L 72.196482 141.979863 
L 72.37341 137.423394 
L 72.491766 136.864472 
L 72.510393 138.088707 
L 72.626911 138.282593 
L 72.686071 137.674723 
L 72.765343 138.06149 
L 72.842837 136.776329 
L 72.999253 136.108911 
L 73.118294 139.500734 
L 73.351686 138.05024 
L 73.431038 137.169365 
L 73.489073 137.719068 
L 73.666899 138.430824 
L 73.745892 139.065514 
L 73.861474 137.738377 
L 73.94062 138.016124 
L 73.998806 139.037905 
L 74.081124 138.61834 
L 74.153045 137.522105 
L 74.301387 141.410979 
L 74.481629 139.33298 
L 74.749331 135.839969 
L 74.866315 136.989914 
L 74.964624 136.706563 
L 75.125378 130.809838 
L 75.200596 132.221692 
L 75.279372 133.884675 
L 75.358945 133.859067 
L 75.441438 132.521567 
L 75.517263 133.348117 
L 75.77017 131.424566 
L 75.98584 131.430443 
L 76.005081 134.662608 
L 76.084352 132.162889 
L 76.221503 133.73473 
L 76.338925 136.750275 
L 76.416961 136.770383 
L 76.56613 137.052977 
L 76.653422 140.213946 
L 76.729706 138.596368 
L 76.749152 138.891016 
L 76.875735 139.92749 
L 76.911479 141.67745 
L 77.063598 138.862926 
L 77.143371 137.627903 
L 77.377227 138.041152 
L 77.594066 134.348035 
L 77.633225 134.238921 
L 77.791722 133.281641 
L 77.837812 133.626574 
L 77.869567 133.663785 
L 78.046642 134.840241 
L 78.147214 134.469629 
L 78.191235 133.721734 
L 78.360656 136.672172 
L 78.508278 136.034098 
L 78.673689 133.800976 
L 78.693039 134.54464 
L 78.820562 134.635753 
L 78.863198 134.57409 
L 79.262769 129.789373 
L 79.401845 132.291526 
L 79.497574 132.240743 
L 79.654819 134.856144 
L 79.83466 137.158965 
L 79.913134 137.533705 
L 79.976233 138.666103 
L 80.069397 138.611324 
L 80.226358 140.596177 
L 80.304381 139.979759 
L 80.545271 137.830584 
L 80.560598 140.460455 
L 80.63928 138.10867 
L 80.69897 138.066491 
L 80.817379 137.117343 
L 80.874962 138.239531 
L 81.051727 135.20537 
L 81.114092 135.862349 
L 81.21053 138.416911 
L 81.227215 136.873435 
L 81.365 135.41605 
L 81.602022 138.268457 
L 81.798469 136.225853 
L 81.937694 137.637452 
L 81.993801 135.915544 
L 82.171572 137.114316 
L 82.269076 135.825511 
L 82.351555 136.205826 
L 82.406654 136.281333 
L 82.563871 138.236845 
L 82.705064 138.124191 
L 82.724337 137.905516 
L 82.825355 138.988754 
L 82.90106 138.779694 
L 82.981511 138.33467 
L 83.213647 140.189043 
L 83.704168 135.785343 
L 83.78727 136.146373 
L 83.861121 137.026697 
L 83.959201 136.773243 
L 84.11496 134.907366 
L 84.591565 140.370215 
L 84.745007 136.957776 
L 84.823218 137.148984 
L 84.940388 139.207342 
L 84.999474 138.926342 
L 85.175141 141.039569 
L 85.646502 135.492822 
L 85.951348 132.8185 
L 86.117073 135.161933 
L 86.220058 136.968785 
L 86.629222 139.40801 
L 86.725813 139.163473 
L 86.883347 136.755734 
L 87.019558 137.497363 
L 87.449985 135.710825 
L 87.529721 135.948839 
L 87.587767 136.728349 
L 87.764911 134.926565 
L 87.963851 136.501241 
L 88.256289 135.06148 
L 88.318297 133.491551 
L 88.394296 133.756247 
L 88.590475 134.955449 
L 88.762111 133.325635 
L 88.894077 136.766285 
L 88.904656 136.490457 
L 88.99809 135.375868 
L 89.082584 135.297809 
L 89.259191 137.740557 
L 89.303644 136.45 
L 89.474558 138.947693 
L 89.533003 138.895426 
L 89.690145 139.078247 
L 89.751129 138.307373 
L 89.791388 139.587396 
L 89.854044 139.569818 
L 90.027086 139.539248 
L 90.10649 140.391891 
L 90.183122 139.031465 
L 90.261322 139.499628 
L 90.340657 140.128099 
L 90.421253 138.85244 
L 90.518111 138.555328 
L 90.602001 136.916025 
L 90.673521 138.565581 
L 90.751106 138.078714 
L 90.915902 136.517765 
L 90.987474 136.665687 
L 91.077369 136.026099 
L 91.240723 136.338294 
L 91.320815 135.9521 
L 91.396889 137.693062 
L 91.480534 137.430443 
L 91.556454 136.632033 
L 91.808147 139.589601 
L 91.887546 139.364563 
L 91.96507 139.032707 
L 92.042939 140.128996 
L 92.123847 140.006014 
L 92.298259 136.235561 
L 92.455502 138.553288 
L 92.533839 138.488776 
L 92.690621 137.78577 
L 92.768624 138.0691 
L 92.946002 137.431358 
L 93.103295 139.277187 
L 93.18066 138.903046 
L 93.340234 136.676205 
L 93.514066 138.943611 
L 93.82744 140.051846 
L 93.915441 140.815378 
L 94.064078 139.691327 
L 94.143305 139.691144 
L 94.260486 136.90402 
L 94.31724 137.656572 
L 94.39916 139.40411 
L 94.571695 137.227179 
L 94.631965 138.044689 
L 94.718082 136.818884 
L 94.885902 139.028677 
L 94.964344 139.031237 
L 95.044962 139.330352 
L 95.200467 136.639785 
L 95.279506 136.93065 
L 95.378098 138.137463 
L 95.44157 137.873037 
L 95.535732 137.760098 
L 95.612303 136.504709 
L 95.692146 137.07699 
L 95.782774 136.685958 
L 95.789198 138.250826 
L 95.848861 138.002004 
L 96.025672 139.796157 
L 96.26148 137.651381 
L 96.320336 138.250311 
L 96.340535 137.739087 
L 96.420228 137.657138 
L 96.6039 136.420327 
L 96.694561 137.232479 
L 96.752928 136.98572 
L 96.831871 136.280298 
L 96.988185 138.13491 
L 97.06627 136.591123 
L 97.224333 138.065287 
L 97.345509 136.779192 
L 97.403746 137.342578 
L 97.565577 135.727101 
L 97.580998 134.28348 
L 97.639096 134.884798 
L 97.776506 134.922277 
L 97.874452 137.984997 
L 98.051273 137.906644 
L 98.129614 137.428739 
L 98.149342 138.200415 
L 98.386122 137.544942 
L 98.464238 138.296107 
L 98.484282 139.593797 
L 98.544046 138.849763 
L 98.914732 133.692641 
L 99.014004 134.466297 
L 99.112543 134.234273 
L 99.17169 135.660208 
L 99.189445 133.847478 
L 99.268712 133.603722 
L 99.445486 132.479932 
L 99.46456 134.0594 
L 99.5814 134.035085 
L 99.659328 137.311607 
L 99.738574 136.677677 
L 99.816813 138.068406 
L 99.935383 138.035479 
L 100.013833 137.306811 
L 100.032318 139.216065 
L 100.112838 138.074073 
L 100.209408 139.401684 
L 100.267818 138.157866 
L 100.366175 138.44888 
L 100.465553 137.230765 
L 100.582097 137.735801 
L 100.661374 136.439033 
L 100.719447 138.612113 
L 101.126482 135.366874 
L 101.188779 135.89135 
L 101.228333 136.075994 
L 101.365074 135.681176 
L 101.413957 135.915091 
L 101.482392 134.258676 
L 101.561072 133.023816 
L 101.640949 134.910944 
L 101.799966 133.314582 
L 101.85566 135.594181 
L 101.934084 134.771404 
L 102.014806 134.973858 
L 102.157694 135.027045 
L 102.179289 134.208668 
L 102.252534 135.575191 
L 102.426249 134.087261 
L 102.504819 135.680644 
L 102.589428 135.659863 
L 102.662267 134.957232 
L 102.900425 137.078249 
L 103.052527 137.560179 
L 103.252214 139.839417 
L 103.329278 138.320681 
L 103.389034 138.68018 
L 103.484858 139.888323 
L 103.544505 138.997724 
L 103.702994 138.577976 
L 103.740597 137.580158 
L 103.954524 139.260896 
L 104.15518 138.52434 
L 104.217606 138.551541 
L 104.365965 136.533005 
L 104.446472 137.5615 
L 104.522863 137.298208 
L 104.567379 137.351188 
L 104.860699 135.23414 
L 105.055203 136.999023 
L 105.153253 137.659425 
L 105.17323 137.206949 
L 105.643515 132.343055 
L 105.685098 134.285074 
L 105.840896 132.386905 
L 106.015464 133.540622 
L 106.152902 134.461242 
L 106.237597 133.765388 
L 106.309168 135.017552 
L 106.466778 134.716519 
L 106.642204 136.28672 
L 106.800556 135.697854 
L 106.877605 135.849671 
L 107.171411 138.991553 
L 107.289139 137.605358 
L 107.623517 138.643991 
L 107.704274 139.28522 
L 107.898667 137.910481 
L 107.93727 138.214728 
L 108.015877 137.706552 
L 108.097178 137.74834 
L 108.183126 138.334099 
L 108.389249 137.230833 
L 108.819524 140.045377 
L 109.068847 136.236017 
L 109.153224 137.638802 
L 109.475099 133.793429 
L 109.702561 133.540616 
L 109.783878 136.44609 
L 109.879542 136.891802 
L 110.046183 135.20774 
L 110.271762 137.157686 
L 110.447405 137.824071 
L 110.605065 136.029336 
L 110.683199 137.222594 
L 110.761166 137.026676 
L 111.173511 134.097418 
L 111.250284 134.12324 
L 111.407964 134.796703 
L 111.486617 133.921463 
L 111.600632 134.22436 
L 111.89712 137.431617 
L 111.979443 136.769385 
L 112.060487 137.033615 
L 112.135147 135.824548 
L 112.387124 137.31131 
L 112.471544 137.684286 
L 112.545248 137.450429 
L 112.62275 135.80128 
L 112.703947 135.976836 
L 112.861013 138.035967 
L 112.964616 138.166977 
L 113.114457 137.731048 
L 113.270911 137.988169 
L 113.36997 136.334594 
L 113.507985 139.260618 
L 113.607596 135.617154 
L 113.784867 136.921034 
L 113.841116 136.137748 
L 113.997838 136.848863 
L 114.083252 135.562466 
L 114.1739 136.600726 
L 114.258444 135.582625 
L 114.453077 137.29785 
L 114.581387 133.698523 
L 114.668952 134.600894 
L 114.805793 132.848628 
L 114.884247 133.311241 
L 115.039894 132.861478 
L 115.078785 134.078622 
L 115.149584 133.990686 
L 115.216547 134.336873 
L 115.450975 137.760207 
L 115.490292 136.734352 
L 115.591452 136.555384 
L 115.70747 138.422656 
L 115.969575 137.208728 
L 116.118789 134.995687 
L 116.196753 134.952401 
L 116.274954 133.872613 
L 116.489766 135.987901 
L 116.533867 135.348222 
L 116.667385 137.168839 
L 116.765412 137.98506 
L 116.844509 139.942662 
L 117.001526 139.089626 
L 117.100636 140.781035 
L 117.237289 139.704496 
L 117.256634 138.177809 
L 117.473758 136.370304 
L 117.648221 133.748141 
L 117.736071 134.117101 
L 117.804792 133.817816 
L 117.885938 132.859498 
L 118.01728 133.511474 
L 118.064875 133.113497 
L 118.139691 134.271754 
L 118.216955 134.22308 
L 118.295683 133.9112 
L 118.491195 134.686111 
L 118.746924 137.46964 
L 118.805394 135.860289 
L 118.86491 136.110391 
L 119.120604 139.221778 
L 119.374153 136.625626 
L 119.495192 135.233872 
L 119.530565 132.572666 
L 119.550037 134.438924 
L 119.648429 135.68849 
L 119.674516 137.614438 
L 119.844248 134.593993 
L 119.926182 134.818264 
L 120.314579 141.608342 
L 120.411666 141.041545 
L 120.489649 139.731606 
L 120.587817 140.074641 
L 120.666216 139.732369 
L 120.844207 140.30304 
L 121.139106 136.102497 
L 121.21925 136.15338 
L 121.334702 136.137181 
L 121.37344 135.039469 
L 121.550476 136.086281 
L 121.726184 134.581255 
L 121.981575 136.337309 
L 122.02285 135.882666 
L 122.19701 138.474036 
L 122.275128 137.980992 
L 122.433669 137.358364 
L 122.522762 138.166927 
L 122.593922 137.672285 
L 122.638326 137.695821 
L 122.700024 137.424641 
L 122.862355 140.75522 
L 122.999242 138.48979 
L 123.11571 140.724011 
L 123.174835 139.855219 
L 123.332357 138.646969 
L 123.43401 139.413003 
L 123.508381 138.569797 
L 123.665336 134.984349 
L 123.744689 135.187545 
L 123.842268 135.886246 
L 124.023917 134.400172 
L 124.061686 135.671184 
L 124.137404 134.276554 
L 124.313535 135.840754 
L 124.498211 134.427464 
L 124.589128 134.356836 
L 124.628097 133.774102 
L 124.810704 135.776509 
L 125.0821 134.053144 
L 125.213074 134.484189 
L 125.441672 136.143917 
L 125.480347 135.796078 
L 125.593858 132.921928 
L 125.74853 132.183095 
L 125.926819 131.803394 
L 126.005124 132.422456 
L 126.082665 132.132618 
L 126.515455 133.61175 
L 126.672369 134.613894 
L 126.751231 135.03304 
L 127.046844 133.707594 
L 127.144414 133.869525 
L 127.499865 139.494012 
L 127.53845 138.436418 
L 127.616591 138.715701 
L 127.715286 140.08583 
L 127.792563 138.773588 
L 127.854171 140.057513 
L 127.989172 140.01987 
L 128.264054 134.499379 
L 128.341969 137.033761 
L 128.424859 136.175546 
L 128.520039 135.21422 
L 128.59751 136.266685 
L 128.762237 135.581987 
L 128.841444 136.194641 
L 128.989416 135.866275 
L 129.028269 136.009676 
L 129.087129 137.709633 
L 129.186707 135.936244 
L 129.247144 136.483174 
L 129.4043 138.201954 
L 129.502815 138.544054 
L 129.560862 138.425804 
L 129.682894 138.652935 
L 129.815637 140.304652 
L 129.952344 140.253832 
L 130.070717 142.45428 
L 130.206798 139.659383 
L 130.285282 139.198844 
L 130.363785 140.004759 
L 130.46179 138.525 
L 130.559165 138.821058 
L 130.661827 139.585887 
L 130.852236 135.651344 
L 130.931757 136.724006 
L 131.012867 136.640011 
L 131.107828 136.859611 
L 131.200953 136.074194 
L 131.264416 136.881361 
L 131.440468 134.634295 
L 131.519422 134.846634 
L 131.618118 134.692163 
L 131.760385 137.487758 
L 131.871557 137.239886 
L 131.949589 137.243905 
L 132.087219 138.891592 
L 132.189765 138.831931 
L 132.355652 142.165524 
L 132.461237 142.537678 
L 132.479403 141.235284 
L 132.616569 139.696001 
L 132.656342 140.754307 
L 132.734762 140.087077 
L 132.832869 140.254519 
L 132.910891 140.760695 
L 132.98889 140.050367 
L 133.145795 136.704309 
L 133.208586 136.24327 
L 133.442208 137.149116 
L 133.539676 135.363505 
L 133.557317 135.746006 
L 133.695124 133.328838 
L 133.852675 134.728503 
L 134.110028 133.481029 
L 134.185472 133.59639 
L 134.265582 133.4673 
L 134.358731 133.806498 
L 134.436459 134.826364 
L 134.534906 134.748492 
L 134.577584 134.278911 
L 134.848047 138.126166 
L 134.98631 137.258627 
L 135.066241 138.468493 
L 135.082249 138.242645 
L 135.199298 138.111575 
L 135.321485 136.807469 
L 135.336403 137.870503 
L 135.396104 136.589593 
L 135.496632 134.724701 
L 135.594021 134.999913 
L 135.65145 134.816358 
L 135.729272 135.250597 
L 135.905623 134.799534 
L 135.971092 135.54545 
L 136.044524 134.72004 
L 136.223802 136.575042 
L 136.284631 136.778875 
L 136.557901 134.767494 
L 136.637458 136.055785 
L 136.771296 133.647963 
L 136.850653 134.673536 
L 136.948126 134.331946 
L 137.14522 136.171474 
L 137.22244 135.831163 
L 137.379229 136.151768 
L 137.458005 136.729126 
L 137.658546 141.829808 
L 137.910192 138.133837 
L 138.164507 140.876259 
L 138.49992 137.511644 
L 138.557557 138.471324 
L 138.717414 139.622525 
L 138.81797 138.620526 
L 138.831413 139.712752 
L 139.205483 136.143768 
L 139.283809 135.359469 
L 139.420883 135.948092 
L 139.482761 135.116561 
L 139.540313 135.332542 
L 139.736795 137.784948 
L 139.787807 137.28913 
L 139.853398 137.129914 
L 140.048708 137.757 
L 140.263563 140.706785 
L 140.499432 138.313377 
L 140.577481 138.111007 
L 140.675507 137.309643 
L 140.776038 137.884162 
L 140.832168 137.833233 
L 141.06973 135.055214 
L 141.146275 135.733788 
L 141.227773 135.406035 
L 141.479211 136.934692 
L 141.559543 136.077699 
L 141.635836 136.095463 
L 141.831726 136.89465 
L 141.989116 137.71025 
L 142.073101 139.362723 
L 142.539828 137.372479 
L 142.611726 137.027703 
L 142.773634 135.436894 
L 142.985891 134.54477 
L 143.006398 135.647075 
L 143.096547 134.267343 
L 143.201862 134.396079 
L 143.33947 135.769668 
L 143.419233 134.004672 
L 143.515366 135.058702 
L 143.740176 132.056211 
L 143.848741 131.998343 
L 144.017033 134.452829 
L 144.096297 133.418319 
L 144.134884 134.279133 
L 144.235066 136.09825 
L 144.330292 134.336736 
L 144.409775 134.807522 
L 144.564916 136.857118 
L 144.704276 135.790873 
L 144.880274 138.403176 
L 144.899202 137.659674 
L 144.960608 137.337449 
L 145.039864 137.820003 
L 145.198545 140.030104 
L 145.31195 138.556092 
L 145.434896 140.747484 
L 145.744682 135.887449 
L 145.883655 137.180116 
L 146.000141 137.097503 
L 146.09788 139.533883 
L 146.176667 138.326074 
L 146.333103 136.658168 
L 146.411739 136.713837 
L 146.569157 137.548655 
L 146.648226 137.404253 
L 146.871578 136.586107 
L 146.980694 136.756192 
L 147.156811 141.727648 
L 147.236767 141.346126 
L 147.314149 141.565927 
L 147.415199 140.073358 
L 147.535751 140.48751 
L 147.589402 140.232236 
L 147.901572 133.886957 
L 147.983155 133.811366 
L 148.353343 136.154644 
L 148.432974 136.291002 
L 148.622774 135.124091 
L 148.882658 137.7469 
L 149.039823 135.791005 
L 149.136812 135.827316 
L 149.176395 136.487818 
L 149.333525 135.905478 
L 149.469701 137.041264 
L 149.49513 138.209991 
L 149.606131 137.778367 
L 149.647819 136.736306 
L 149.823738 139.318419 
L 149.902911 138.759977 
L 149.980673 137.716746 
L 150.13859 139.119093 
L 150.306005 136.980594 
L 150.484552 141.027587 
L 150.578985 140.0623 
L 150.736784 138.015293 
L 151.029452 140.763986 
L 151.109871 140.456994 
L 151.284285 135.63968 
L 151.500912 136.856382 
L 151.520672 136.822655 
L 151.599249 136.964092 
L 151.853443 135.133107 
L 152.089693 137.62555 
L 152.171955 137.518931 
L 152.284791 137.868418 
L 152.344066 138.979474 
L 152.422502 138.842113 
L 152.501437 138.298185 
L 152.600168 140.288753 
L 152.814483 137.706778 
L 152.893647 137.499613 
L 153.048609 135.957945 
L 153.16941 135.675702 
L 153.244981 134.53258 
L 153.303492 135.498711 
L 153.42081 133.724525 
L 153.519227 134.09437 
L 153.637951 135.881679 
L 153.740041 135.839382 
L 153.777415 135.964677 
L 153.872515 136.720017 
L 153.953282 136.19469 
L 154.02922 136.852601 
L 154.127714 136.754861 
L 154.188209 135.553978 
L 154.266363 135.585839 
L 154.362824 135.655199 
L 154.441552 135.367803 
L 154.518845 135.778659 
L 154.838124 133.545316 
L 154.930622 132.865332 
L 155.008292 134.773374 
L 155.149557 134.994656 
L 155.263081 133.571537 
L 155.440889 135.374998 
L 155.496919 137.490846 
L 155.575365 136.431449 
L 155.654531 136.37913 
L 155.732153 137.039903 
L 155.814768 136.200355 
L 155.829575 138.627625 
L 155.908219 137.121725 
L 155.987363 137.089092 
L 156.065041 137.394294 
L 156.163037 137.312044 
L 156.592561 134.141855 
L 156.633678 134.231431 
L 156.790274 133.792739 
L 156.852141 135.082865 
L 156.908064 134.747563 
L 156.966771 133.661801 
L 157.199527 136.983006 
L 157.425602 139.231708 
L 157.600781 136.959988 
L 157.698831 137.187081 
L 157.914295 134.274012 
L 157.992318 134.690772 
L 158.090081 133.436029 
L 158.228063 133.396349 
L 158.269837 132.516489 
L 158.384513 132.814868 
L 158.406756 132.772446 
L 158.502714 132.324339 
L 158.579931 133.042462 
L 158.65846 132.077291 
L 158.739209 133.334307 
L 158.81828 133.176731 
L 159.055176 134.983148 
L 159.370187 139.663742 
L 159.544517 138.362878 
L 159.741466 137.311578 
L 159.937769 139.355317 
L 160.017001 138.293237 
L 160.09777 138.305533 
L 160.192388 138.208305 
L 160.271085 138.390496 
L 160.427254 139.02991 
L 160.583606 138.675211 
L 160.760147 136.008155 
L 160.839092 136.404665 
L 160.917888 136.007827 
L 160.996325 134.305124 
L 161.1593 135.456727 
L 161.23175 135.545842 
L 161.312651 136.504131 
L 161.407411 135.333268 
L 161.485252 136.50046 
L 161.643522 134.213967 
L 161.806426 136.682363 
L 161.880399 136.341009 
L 161.898968 137.96764 
L 161.9622 136.31831 
L 162.056245 136.186906 
L 162.155889 135.524342 
L 162.214644 136.122456 
L 162.292339 135.601925 
L 162.449557 138.180123 
L 162.621302 137.816944 
L 162.704265 138.849034 
L 162.78354 138.597342 
L 162.942579 137.959889 
L 163.095903 139.979645 
L 163.175168 138.119833 
L 163.255645 138.809583 
L 163.509058 137.530161 
L 163.66305 139.084059 
L 163.903843 137.989404 
L 164.075482 139.202335 
L 164.250735 138.250588 
L 164.330183 137.901233 
L 164.447445 137.932093 
L 164.59121 139.158003 
L 164.712793 137.672709 
L 164.885534 136.003382 
L 165.070953 137.156431 
L 165.224492 136.237594 
L 165.28166 136.143767 
L 165.357082 136.298152 
L 165.452093 135.981844 
L 165.550344 134.572889 
L 165.614154 134.636512 
L 165.707527 134.254193 
L 166.119022 130.678368 
L 166.334378 131.021408 
L 166.512185 135.01873 
L 166.904265 139.093682 
L 167.00083 138.686824 
L 167.060181 139.766433 
L 167.158145 138.913575 
L 167.254951 138.935661 
L 167.314812 138.664469 
L 167.413685 138.745914 
L 167.568665 138.370407 
L 167.646973 137.629629 
L 167.890136 138.887386 
L 167.979708 138.446691 
L 168.057946 139.354205 
L 168.136702 138.554513 
L 168.353168 139.087087 
L 168.52877 137.377999 
L 168.688705 137.915263 
L 168.70551 136.487935 
L 168.783889 137.184902 
L 168.880846 137.398167 
L 168.94161 138.039248 
L 169.017939 137.817121 
L 169.097489 137.666882 
L 169.254017 138.581732 
L 169.387129 138.463245 
L 169.412632 136.790512 
L 169.527848 136.549072 
L 169.684618 133.915435 
L 169.763362 134.737832 
L 169.841285 134.748449 
L 170.077174 133.534621 
L 170.260088 135.983616 
L 170.312364 137.741199 
L 170.411044 137.514279 
L 170.476028 138.190061 
L 170.567893 137.848405 
L 170.828254 135.274636 
L 170.984617 135.577986 
L 171.103222 135.310522 
L 171.121887 134.51183 
L 171.284901 136.307751 
L 171.480791 135.322546 
L 171.69738 138.616319 
L 172.165522 134.766962 
L 172.303909 137.343135 
L 172.343921 137.184926 
L 172.42111 136.218428 
L 172.596913 137.086265 
L 172.758325 137.790037 
L 172.833363 137.268431 
L 172.911757 138.25229 
L 173.014292 136.457489 
L 173.243309 137.863562 
L 173.319775 135.88963 
L 173.395178 135.897669 
L 173.492732 135.887696 
L 173.571338 136.058549 
L 173.810118 137.544934 
L 173.866484 136.31993 
L 173.963651 136.342141 
L 174.080656 136.579335 
L 174.217943 138.372875 
L 174.570099 135.593347 
L 174.687292 134.571129 
L 174.768293 133.79772 
L 174.864721 134.506777 
L 174.943278 134.221969 
L 175.259183 135.936368 
L 175.374611 135.577672 
L 175.589741 137.96858 
L 175.670603 137.550746 
L 175.747042 138.248862 
L 175.903859 136.082818 
L 175.999187 137.29107 
L 176.123973 136.9491 
L 176.218713 138.780619 
L 176.241252 137.559769 
L 176.373481 138.513088 
L 176.431169 136.407509 
L 176.492335 136.48266 
L 176.57227 135.764277 
L 176.629851 137.210301 
L 176.707865 136.906959 
L 176.78568 136.259865 
L 176.883378 136.402331 
L 176.96254 134.790105 
L 177.043345 135.244639 
L 177.163039 135.049092 
L 177.296673 137.491242 
L 177.51371 136.431937 
L 177.53094 137.882406 
L 177.827076 138.851807 
L 177.907451 138.204811 
L 178.020272 134.435691 
L 178.102175 132.67665 
L 178.198081 133.455798 
L 178.258168 133.375262 
L 178.335514 133.625219 
L 178.474479 132.903757 
L 178.57016 134.029895 
L 178.746534 136.192694 
L 178.981716 139.008582 
L 179.224167 138.528702 
L 179.393373 139.027333 
L 179.471911 138.484947 
L 179.55001 138.795678 
L 179.805409 136.216609 
L 179.867162 137.181689 
L 180.119763 135.342056 
L 180.278161 135.534684 
L 180.354705 134.944928 
L 180.512927 137.426706 
L 180.926845 140.194689 
L 181.006235 139.892958 
L 181.170312 140.276408 
L 181.256406 139.340173 
L 181.343787 139.855594 
L 181.650418 137.941772 
L 181.787804 137.973735 
L 181.924406 138.931575 
L 181.985434 138.057047 
L 182.081601 138.154578 
L 182.220171 139.132408 
L 182.395046 139.537584 
L 182.474303 138.007013 
L 182.709278 135.847892 
L 182.86668 137.456035 
L 182.891317 136.175785 
L 182.995953 137.419914 
L 183.073598 137.033354 
L 183.569846 140.439404 
L 183.609095 139.138996 
L 183.706411 139.283805 
L 183.786767 138.130042 
L 183.886783 138.473979 
L 184.001194 139.294195 
L 184.159095 140.556073 
L 184.432791 137.179675 
L 184.669003 135.942483 
L 184.999964 131.804639 
L 185.14561 132.857384 
L 185.298378 133.533689 
L 185.375527 132.045482 
L 185.489729 132.815862 
L 185.650293 134.710369 
L 185.70668 134.612282 
L 185.878929 134.642049 
L 185.885501 134.157372 
L 185.962361 134.297882 
L 186.040677 134.235291 
L 186.225533 136.007296 
L 186.29925 136.215968 
L 186.394013 134.39215 
L 186.531499 134.454488 
L 186.590183 133.849675 
L 186.631306 134.023838 
L 186.865246 135.801848 
L 187.08302 133.662177 
L 187.336518 134.662981 
L 187.492994 134.561341 
L 187.650994 131.863957 
L 187.825888 133.39628 
L 187.944357 133.751245 
L 188.082792 131.693377 
L 188.282402 132.991254 
L 188.316028 132.748823 
L 188.553125 130.984669 
L 188.864895 134.569118 
L 188.943332 135.022534 
L 189.12008 133.514645 
L 189.357475 136.380473 
L 189.373797 135.940484 
L 189.491701 135.839362 
L 189.982208 139.644012 
L 190.00327 140.365336 
L 190.13922 140.783288 
L 190.256902 139.848159 
L 190.334402 139.737786 
L 190.432434 140.668104 
L 190.568944 138.61121 
L 190.647679 138.585835 
L 190.734399 138.82582 
L 190.894702 138.607614 
L 191.052406 138.970897 
L 191.06672 137.587848 
L 191.144213 138.802415 
L 191.22618 137.820599 
L 191.383143 140.354356 
L 191.511562 139.619355 
L 191.559248 139.474413 
L 191.716945 139.364261 
L 191.912174 141.13151 
L 192.089959 140.635826 
L 192.111315 141.422286 
L 192.212034 140.921577 
L 192.271234 141.908097 
L 192.521268 140.786593 
L 192.591754 140.579301 
L 192.707403 142.055495 
L 192.852171 140.07271 
L 193.101235 134.306541 
L 193.200053 136.057999 
L 193.244588 135.711979 
L 193.338917 136.116447 
L 193.413366 135.720343 
L 193.491126 134.683734 
L 193.569429 134.883213 
L 193.652678 135.788877 
L 193.902426 140.157912 
L 193.981691 138.554811 
L 194.255638 141.895276 
L 194.317402 141.300038 
L 194.450787 141.681495 
L 194.629233 140.065182 
L 194.784045 140.826558 
L 195.02002 136.442182 
L 195.117462 136.682838 
L 195.195292 136.904033 
L 195.273673 139.762152 
L 195.355778 138.499048 
L 195.430207 139.184125 
L 195.514071 138.481833 
L 195.750668 140.479626 
L 196.081374 135.402385 
L 196.11794 136.000328 
L 196.159128 136.012655 
L 196.238748 135.214762 
L 196.317861 135.978945 
L 196.570863 134.514827 
L 196.65022 135.267246 
L 196.728792 134.641359 
L 197.050776 136.735171 
L 197.2196 134.329282 
L 197.296802 134.373138 
L 197.374476 133.806702 
L 197.550804 137.286731 
L 197.614112 136.786456 
L 197.708373 136.687734 
L 197.813451 135.313205 
L 197.86415 135.702975 
L 198.356279 138.729913 
L 198.432834 137.776508 
L 198.589175 139.524344 
L 198.746478 139.023904 
L 198.863459 137.482855 
L 198.922247 138.777134 
L 198.98599 138.470199 
L 199.060619 137.562624 
L 199.236807 138.85453 
L 199.33288 138.477896 
L 199.472108 136.984824 
L 199.64686 137.562609 
L 199.73849 137.488988 
L 199.810076 136.937046 
L 199.90151 137.525756 
L 199.999731 135.716475 
L 200.058407 135.953507 
L 200.117203 135.613596 
L 200.373108 137.897966 
L 200.491111 137.448658 
L 200.549714 138.038633 
L 200.785423 136.572356 
L 200.905252 136.616385 
L 200.925089 136.913855 
L 201.118729 136.084901 
L 201.73935 139.368143 
L 201.924298 137.840494 
L 202.011994 138.829386 
L 202.080052 138.383607 
L 202.394623 139.606092 
L 202.549744 139.274572 
L 202.647439 138.282806 
L 202.880134 140.280274 
L 203.115931 139.003329 
L 203.233174 140.30193 
L 203.291307 139.187043 
L 203.429164 140.662047 
L 203.508718 140.625157 
L 203.550539 140.448669 
L 203.625706 138.788333 
L 203.80115 138.763644 
L 204.055691 135.808056 
L 204.193439 134.09344 
L 204.325857 134.890875 
L 204.354945 134.783095 
L 204.518864 133.757689 
L 204.592084 134.688888 
L 204.724368 134.030423 
L 204.769743 134.382524 
L 204.824946 133.82603 
L 204.84173 135.589424 
L 204.900538 135.354256 
L 205.315574 137.689329 
L 205.396608 137.454455 
L 205.47901 139.984574 
L 205.633742 139.643604 
L 205.966618 136.803538 
L 206.043413 136.745906 
L 206.121907 138.313811 
L 206.35624 135.581316 
L 206.435075 135.665588 
L 206.532674 138.534649 
L 206.671891 138.408272 
L 206.851022 141.316543 
L 206.944069 138.581289 
L 207.02255 138.766498 
L 207.179775 138.594574 
L 207.415397 136.07312 
L 207.47348 137.440999 
L 207.540693 137.43791 
L 207.718205 135.433268 
L 207.811518 136.414473 
L 207.876259 135.590901 
L 207.909235 136.865033 
L 208.007686 136.176006 
L 208.194908 136.855172 
L 208.321614 135.853394 
L 208.418758 136.5334 
L 208.66217 139.588253 
L 208.757482 139.151484 
L 208.831239 140.303233 
L 208.889524 139.865002 
L 208.969375 140.102254 
L 209.2828 138.134648 
L 209.632181 141.987365 
L 209.850402 143.022977 
L 209.929043 143.395168 
L 210.092865 141.62183 
L 210.262308 139.932515 
L 210.423201 136.294057 
L 210.58611 137.603813 
L 210.665464 136.649441 
L 210.751441 136.831602 
L 210.815312 136.602598 
L 211.124673 137.126367 
L 211.320946 135.529671 
L 211.419788 135.781124 
L 211.575679 137.429146 
L 211.634674 137.067047 
L 211.73234 137.008502 
L 211.869951 140.354784 
L 211.968143 139.538353 
L 212.106757 139.939313 
L 212.184062 139.465458 
L 212.26239 140.614392 
L 212.458731 139.173894 
L 212.557962 139.476449 
L 212.694471 136.012666 
L 212.771032 137.260301 
L 212.849505 137.388911 
L 212.928839 137.062464 
L 213.026216 135.830045 
L 213.260482 136.959812 
L 213.40051 137.012699 
L 213.497141 136.033638 
L 213.555306 136.690596 
L 213.65253 136.028206 
L 213.849 137.528372 
L 213.910084 137.004538 
L 213.98811 137.361968 
L 214.145215 135.921427 
L 214.260356 137.288983 
L 214.338679 136.293917 
L 214.416654 136.989848 
L 214.518009 135.78558 
L 214.574232 136.684927 
L 214.710704 136.185697 
L 214.88637 137.000166 
L 214.984388 137.277125 
L 215.047189 138.798062 
L 215.192907 139.012004 
L 215.398091 140.787287 
L 215.614864 139.486423 
L 215.791207 140.069102 
L 216.009457 136.041843 
L 216.171868 134.548795 
L 216.282796 135.252971 
L 216.34143 133.884236 
L 216.429767 134.168854 
L 216.577166 133.858679 
L 216.892962 136.490253 
L 216.987745 136.397872 
L 217.066456 136.03358 
L 217.144472 136.442041 
L 217.242526 135.274678 
L 217.301409 135.663832 
L 217.386111 136.13542 
L 217.479151 135.657374 
L 217.583278 136.044948 
L 217.652788 135.657812 
L 217.711917 136.006718 
L 217.887738 135.093388 
L 218.064972 139.071969 
L 218.183102 139.102599 
L 218.204638 138.908681 
L 218.27957 138.980391 
L 218.436875 139.363618 
L 218.57582 139.281084 
L 218.694707 140.774895 
L 218.873512 138.655551 
L 219.113503 137.454955 
L 219.184259 137.132943 
L 219.262069 138.518394 
L 219.360338 138.433055 
L 219.497472 136.425295 
L 219.589715 136.77043 
L 219.67324 136.473275 
L 219.851932 137.37911 
L 219.914105 137.085216 
L 220.126426 134.574075 
L 220.145794 134.72607 
L 220.22327 136.654415 
L 220.360522 136.680315 
L 220.635222 133.554295 
L 220.715365 133.017636 
L 220.79206 134.516394 
L 220.868934 134.398036 
L 220.971439 134.486187 
L 221.02584 134.717797 
L 221.205914 136.64466 
L 221.301003 136.929359 
L 221.359556 137.508134 
L 221.524372 141.038482 
L 221.634465 141.00203 
L 221.717314 141.105897 
L 221.927822 136.833306 
L 222.115241 137.339924 
L 222.339707 133.834851 
L 222.495537 134.482258 
L 222.730541 137.384186 
L 222.829223 136.329425 
L 222.906805 136.815448 
L 222.971921 136.23614 
L 223.064141 136.277295 
L 223.142811 136.425357 
L 223.220489 137.435097 
L 223.321948 136.666937 
L 223.476807 137.066299 
L 223.51478 136.916835 
L 223.555778 136.831871 
L 223.632966 137.3186 
L 223.82897 139.659817 
L 223.886964 139.587476 
L 223.98583 139.710938 
L 224.045029 139.255729 
L 224.107509 139.805988 
L 224.199747 139.683114 
L 224.356908 141.200514 
L 224.495805 140.86012 
L 224.533189 138.779568 
L 224.612102 139.635721 
L 224.682171 140.554198 
L 224.847163 138.294237 
L 224.945352 139.347392 
L 225.003728 138.892467 
L 225.159803 136.932913 
L 225.325775 139.338028 
L 225.415085 138.781867 
L 225.492889 137.403177 
L 225.629894 138.050384 
L 225.807831 136.328088 
L 225.888657 138.40829 
L 226.160842 136.333592 
L 226.456723 140.123041 
L 226.551928 140.645579 
L 226.708997 138.292408 
L 226.807469 138.641386 
L 226.963506 137.353051 
L 227.165277 138.658342 
L 227.276977 138.41428 
L 227.356332 136.776782 
L 227.434176 138.216303 
L 227.512214 137.834286 
L 227.753388 141.070332 
L 227.924247 138.243885 
L 228.003629 138.242064 
L 228.178963 139.820551 
L 228.259753 138.74708 
L 228.414861 139.540199 
L 228.550754 139.151225 
L 228.574945 138.379316 
L 228.669426 138.859845 
L 228.749621 139.626841 
L 228.885607 137.701272 
L 228.982632 138.809208 
L 229.061484 138.50607 
L 229.22076 137.444342 
L 229.297265 138.780137 
L 229.453156 138.361073 
L 229.708799 135.998609 
L 229.905973 134.53564 
L 229.972319 135.002617 
L 230.203383 133.262521 
L 230.379149 134.500486 
L 230.437526 134.382285 
L 230.611842 135.606423 
L 230.683848 136.517015 
L 230.770971 135.856908 
L 231.006522 137.652713 
L 231.095606 137.210594 
L 231.247533 137.854255 
L 231.424992 137.003624 
L 231.484149 138.441081 
L 231.589759 138.329048 
L 231.660148 138.904834 
L 231.738123 138.870764 
L 231.815438 139.084133 
L 231.952677 138.840124 
L 232.050451 139.887298 
L 232.148668 139.744326 
L 232.227099 139.22208 
L 232.287567 137.977254 
L 232.547722 140.128875 
L 232.626702 139.336811 
L 232.698162 139.450175 
L 232.797052 139.179694 
L 232.864901 138.085956 
L 233.171418 140.78859 
L 233.367812 137.17549 
L 233.426383 137.729263 
L 233.602832 136.599574 
L 233.622828 137.652946 
L 233.68277 136.871284 
L 233.916716 134.293327 
L 234.250136 136.77829 
L 234.410494 139.392412 
L 234.488181 139.342405 
L 234.74285 140.716784 
L 234.899143 139.321543 
L 234.977655 140.24508 
L 235.214385 136.420699 
L 235.415659 137.906431 
L 235.567125 136.303248 
L 235.645968 137.22471 
L 235.705154 136.892066 
L 235.909417 134.835682 
L 235.924321 135.625493 
L 235.947274 135.640558 
L 236.103112 136.079863 
L 236.260631 133.967801 
L 236.337844 134.310664 
L 236.592722 132.462639 
L 236.671295 132.728603 
L 236.749653 133.030916 
L 236.886628 132.40932 
L 236.925309 131.364229 
L 237.160185 133.29707 
L 237.33818 132.519539 
L 237.395786 134.133995 
L 237.495696 133.886195 
L 237.572865 133.149861 
L 237.769299 134.090368 
L 237.886466 133.319431 
L 237.964114 133.272348 
L 238.318505 137.891158 
L 238.444885 137.851595 
L 238.493559 137.668872 
L 238.773739 140.735344 
L 239.159865 138.545426 
L 239.222009 138.830131 
L 239.357408 140.051312 
L 239.417165 139.580146 
L 239.537841 139.997486 
L 239.78866 136.905589 
L 239.830259 139.732768 
L 239.967302 139.902486 
L 239.993516 140.443144 
L 240.245019 137.605425 
L 240.318814 138.688303 
L 240.398947 138.621096 
L 240.476221 138.539478 
L 240.556052 139.249592 
L 240.676297 138.506749 
L 240.821647 135.814128 
L 241.046426 137.127947 
L 241.200152 135.03632 
L 241.296167 136.584778 
L 241.374658 136.31665 
L 241.456105 136.062679 
L 241.472047 137.586533 
L 241.551918 137.534102 
L 241.689956 138.256328 
L 241.76598 137.877498 
L 241.865995 136.364179 
L 241.94646 136.199481 
L 242.021153 137.815217 
L 242.118674 136.965216 
L 242.276267 138.383694 
L 242.393663 137.937277 
L 242.668116 141.204806 
L 242.826223 141.407432 
L 243.105256 139.494523 
L 243.15903 139.183527 
L 243.236878 137.464557 
L 243.355328 137.697709 
L 243.475278 135.688136 
L 243.590188 136.803677 
L 243.690823 135.758548 
L 243.727079 136.562688 
L 243.844973 135.75719 
L 243.906331 134.468432 
L 243.966348 134.72548 
L 244.182394 133.357457 
L 244.267672 134.866981 
L 244.30256 133.922918 
L 244.456185 133.445687 
L 244.867563 135.915484 
L 244.946472 137.88643 
L 245.024534 137.593797 
L 245.104946 138.084689 
L 245.188772 136.17572 
L 245.26086 136.49582 
L 245.435854 136.001593 
L 245.670737 138.106696 
L 245.908579 138.740574 
L 246.025118 140.976612 
L 246.26807 139.644151 
L 246.32907 138.243944 
L 246.414071 139.437584 
L 246.424978 138.813556 
L 246.700194 135.48725 
L 246.739261 136.262598 
L 246.817365 134.707724 
L 246.957239 137.188592 
L 247.0406 136.393473 
L 247.130804 137.760917 
L 247.21901 137.076268 
L 247.681999 139.92034 
L 247.776825 139.356052 
L 247.858018 139.900927 
L 247.936581 139.819427 
L 248.171379 140.426211 
L 248.325837 140.241353 
L 248.504756 137.060657 
L 248.661512 137.428194 
L 248.759431 136.77968 
L 248.824275 137.73284 
L 248.841164 137.35856 
L 248.977437 135.120879 
L 248.994486 136.070874 
L 249.124079 136.1284 
L 249.153186 135.317118 
L 249.349849 138.510066 
L 249.488163 136.575473 
L 249.998736 138.948908 
L 250.055272 138.55945 
L 250.328633 139.846418 
L 250.387518 139.292967 
L 250.583742 140.792777 
L 250.622285 140.234645 
L 250.683404 140.233196 
L 250.761952 140.638749 
L 250.85791 142.598035 
L 251.648707 135.391809 
L 251.661607 134.022655 
L 251.741228 134.948713 
L 251.837703 136.012563 
L 251.89704 135.036936 
L 252.249212 139.345442 
L 252.312335 139.071718 
L 252.386309 139.564623 
L 252.485358 139.543009 
L 252.686927 137.298404 
L 252.720109 138.882657 
L 252.817738 138.478631 
L 252.957524 136.089951 
L 253.287585 138.938617 
L 253.366934 138.576539 
L 253.46448 139.287862 
L 253.524531 139.091727 
L 253.600539 137.620186 
L 253.726506 138.848387 
L 253.845713 138.029347 
L 253.872227 136.824126 
L 253.937961 137.335665 
L 254.094873 135.72922 
L 254.175088 137.478673 
L 254.253271 137.170192 
L 254.332467 136.483206 
L 254.459157 137.96226 
L 254.495125 137.130275 
L 254.665612 137.61218 
L 254.743514 136.681422 
L 254.902346 137.854007 
L 254.981095 136.238843 
L 255.078443 137.217913 
L 255.156003 136.668209 
L 255.293698 136.629128 
L 255.495472 137.702115 
L 255.590654 137.665753 
L 255.7062 136.716295 
L 255.784276 136.644377 
L 255.865059 135.431432 
L 255.960915 136.59594 
L 256.038764 136.373888 
L 256.136191 136.364933 
L 256.22298 136.776316 
L 256.274963 134.94801 
L 256.356513 135.608646 
L 256.452172 135.839953 
L 256.529868 135.147359 
L 256.627866 135.700599 
L 256.763617 137.435859 
L 257.436908 143.313881 
L 257.59018 140.649507 
L 257.733061 138.758202 
L 257.847205 138.172607 
L 257.942462 139.384416 
L 257.982335 138.939314 
L 258.295239 133.021521 
L 258.451096 134.740483 
L 258.719829 132.617172 
L 258.883041 134.697867 
L 259.117822 138.924452 
L 259.197066 138.022977 
L 259.276614 140.414555 
L 259.372507 140.200663 
L 259.471348 140.071495 
L 259.531213 141.59467 
L 259.590837 139.536232 
L 259.608797 140.654339 
L 259.686484 141.178993 
L 259.94773 139.817456 
L 260.102553 140.450624 
L 260.119525 138.730688 
L 260.182586 139.491283 
L 260.242308 140.203918 
L 260.335391 137.636224 
L 260.414395 138.481005 
L 260.621221 137.200874 
L 260.756336 138.447175 
L 260.816736 137.810845 
L 260.894805 137.937808 
L 261.072177 136.617953 
L 261.148539 137.554322 
L 261.313883 137.063983 
L 261.390512 137.2204 
L 261.524506 135.913038 
L 261.618657 138.146175 
L 261.736596 138.113807 
L 261.933946 136.696944 
L 261.973223 136.649957 
L 262.032595 137.68334 
L 262.191142 136.422537 
L 262.325635 136.346395 
L 262.482417 133.403757 
L 262.599498 133.257123 
L 262.678798 134.241275 
L 262.757058 135.620657 
L 262.838957 134.529938 
L 262.948152 135.650248 
L 263.090436 134.506397 
L 263.170809 134.991773 
L 263.409181 136.967212 
L 263.581085 134.942078 
L 263.899148 139.390001 
L 264.01278 138.041836 
L 264.070909 138.054498 
L 264.136876 138.962364 
L 264.253293 138.989933 
L 264.306557 141.34996 
L 264.384222 140.886048 
L 264.624305 139.54274 
L 264.719963 139.765451 
L 264.796405 139.8468 
L 265.031699 137.985982 
L 265.286515 136.192422 
L 265.364412 137.160639 
L 265.422726 137.089586 
L 265.598803 136.633325 
L 265.697513 136.59616 
L 265.756055 136.793449 
L 265.834475 136.284512 
L 266.010497 136.93946 
L 266.090931 135.999989 
L 266.166369 136.053954 
L 266.422169 134.216407 
L 266.480581 134.543329 
L 266.623437 134.471633 
L 266.736458 135.427334 
L 267.028064 136.888838 
L 267.049929 136.552902 
L 267.128279 136.929296 
L 267.225121 138.752221 
L 267.382965 137.887779 
L 267.543143 139.113133 
L 267.816718 137.892161 
L 267.97376 138.650374 
L 268.03208 137.462032 
L 268.228351 140.019384 
L 268.288481 140.010696 
L 268.385548 138.713427 
L 268.52427 139.946034 
L 268.699197 139.391156 
L 268.994742 136.584066 
L 269.033845 137.025077 
L 269.092209 136.670365 
L 269.307419 136.094536 
L 269.562893 138.450975 
L 269.722255 139.346378 
L 269.81717 138.448117 
L 269.895597 138.715342 
L 270.053885 139.790508 
L 270.132543 139.573073 
L 270.23029 138.575414 
L 270.288954 139.127215 
L 270.366099 137.851276 
L 270.482001 138.307261 
L 270.624816 139.243864 
L 270.756033 139.363997 
L 270.932126 135.223786 
L 271.010101 134.995538 
L 271.049292 136.427537 
L 271.131897 136.418868 
L 271.265332 138.481909 
L 271.527298 136.920945 
L 271.755352 141.183717 
L 271.930679 140.473983 
L 272.009252 140.371171 
L 272.149667 138.223684 
L 272.402318 139.649163 
L 272.832599 136.223907 
L 272.932055 137.483492 
L 272.969664 136.865111 
L 273.082328 135.90302 
L 273.127997 136.12967 
L 273.211371 136.583602 
L 273.336415 135.497438 
L 273.377045 134.136323 
L 273.394621 136.39332 
L 273.460976 136.501288 
L 273.538303 135.948871 
L 273.623508 136.295297 
L 273.693021 136.170029 
L 273.791628 137.992648 
L 273.850713 137.388415 
L 274.04561 135.32336 
L 274.223072 139.770165 
L 274.264754 137.232551 
L 274.477952 138.995789 
L 274.515949 138.163684 
L 274.595375 138.595976 
L 274.751364 140.02805 
L 274.914896 139.859393 
L 274.98924 138.778464 
L 275.064649 139.262646 
L 275.164967 139.494455 
L 275.477522 136.167585 
L 275.555328 135.791325 
L 275.651713 136.478289 
L 275.731598 135.205174 
L 275.809237 135.326781 
L 275.965642 133.567733 
L 276.129578 135.914007 
L 276.201261 135.649907 
L 276.30195 135.510347 
L 276.456643 136.241567 
L 276.690422 137.308871 
L 276.926554 136.124376 
L 277.179784 137.505486 
L 277.33866 137.046093 
L 277.591924 138.2552 
L 277.672003 137.61564 
L 277.751003 137.929277 
L 277.905818 139.579981 
L 278.064621 137.306007 
L 278.142216 138.36183 
L 278.39948 136.625228 
L 278.55433 139.171522 
L 278.6556 138.026342 
L 278.671912 138.134539 
L 278.750386 138.230352 
L 278.869834 140.092369 
L 278.965241 139.41009 
L 279.064557 140.108547 
L 279.123755 141.863282 
L 279.240097 141.55498 
L 279.362972 139.395455 
L 279.456509 139.890293 
L 279.69136 138.342209 
L 279.769246 139.460893 
L 279.861417 139.083039 
L 279.868503 135.955065 
L 279.945803 138.325014 
L 280.259544 137.39863 
L 280.415526 137.179514 
L 280.513253 138.864058 
L 280.573128 138.520593 
L 280.74945 137.489712 
L 280.925611 138.547106 
L 281.064159 136.273444 
L 281.199331 136.673542 
L 281.473347 133.640694 
L 281.533674 134.768327 
L 281.571881 133.865048 
L 281.710154 133.285336 
L 281.904571 135.659567 
L 281.963775 135.188353 
L 282.123895 136.687579 
L 282.210066 135.946905 
L 282.278519 136.249809 
L 282.358754 136.447479 
L 282.453772 137.859551 
L 282.610888 137.626984 
L 282.676859 138.743004 
L 282.7139 137.400272 
L 282.768705 137.803099 
L 282.907179 136.625875 
L 282.945152 136.855449 
L 283.031004 137.214217 
L 283.181601 135.804329 
L 283.286896 135.069219 
L 283.356854 136.143353 
L 283.457036 136.071526 
L 283.494204 136.316047 
L 283.632455 135.879438 
L 283.653 136.055708 
L 283.905464 134.599432 
L 283.985171 134.588337 
L 284.239335 133.553112 
L 284.396427 136.04299 
L 284.494547 136.390688 
L 284.631422 139.451538 
L 284.885947 142.625029 
L 285.023959 142.460988 
L 285.199601 139.082739 
L 285.220564 139.296465 
L 285.297862 139.820266 
L 285.532479 137.049235 
L 285.610986 137.221468 
L 285.701856 136.782667 
L 285.787038 135.161702 
L 285.807762 135.404911 
L 285.946483 139.245178 
L 286.004923 138.749732 
L 286.101215 136.815876 
L 286.179522 137.633297 
L 286.434805 135.987488 
L 286.493915 136.743014 
L 286.846791 133.079716 
L 286.90525 135.138999 
L 286.983699 134.068097 
L 287.249902 138.568343 
L 287.343078 137.832045 
L 287.633048 140.042504 
L 287.731746 138.714428 
L 287.848219 139.895508 
L 287.965687 137.807643 
L 288.145497 135.755204 
L 288.283206 134.51254 
L 288.35957 135.055799 
L 288.614143 133.281695 
L 288.849067 137.613724 
L 288.9359 137.778084 
L 289.00784 138.169066 
L 289.282086 135.060468 
L 289.417863 136.650339 
L 289.652401 134.727774 
L 289.731849 135.946871 
L 289.809102 135.227951 
L 289.904695 135.433688 
L 289.982215 135.324346 
L 290.21807 138.815425 
L 290.393223 137.136958 
L 290.707092 140.008021 
L 290.783885 141.87219 
L 290.862466 141.256734 
L 291.0383 140.37368 
L 291.116642 140.533428 
L 291.27639 141.481127 
L 291.430685 138.654154 
L 291.509979 138.997569 
L 291.591297 137.410267 
L 291.686103 137.442406 
L 291.841604 136.49547 
L 291.92211 137.458513 
L 291.998577 137.094966 
L 292.158262 135.102078 
L 292.331651 135.422695 
L 292.410715 135.927932 
L 292.489004 135.135555 
L 292.57605 135.196802 
L 292.732033 134.817688 
L 292.848412 134.677988 
L 293.056945 137.041033 
L 293.135357 135.986188 
L 293.213953 136.425411 
L 293.488225 138.353365 
L 293.547508 137.919048 
L 293.625834 138.110469 
L 293.745019 138.644979 
L 293.864635 136.311504 
L 293.958423 137.067001 
L 294.233352 133.934943 
L 294.291528 134.697989 
L 294.390645 134.683396 
L 294.526966 136.657294 
L 294.665462 137.018727 
L 294.860571 136.697694 
L 295.030028 139.138583 
L 295.076051 139.044084 
L 295.18374 139.2069 
L 295.302103 138.105649 
L 295.340354 139.47036 
L 295.438781 139.328632 
L 295.653816 141.843208 
L 295.732482 142.014196 
L 295.810458 142.716896 
L 296.144582 137.81791 
L 296.222247 138.831335 
L 296.379104 138.316082 
L 296.633242 135.91851 
L 296.828878 137.54113 
L 296.986087 139.047838 
L 297.044868 137.740639 
L 297.202212 138.718266 
L 297.280644 138.10835 
L 297.36007 138.580151 
L 297.593914 138.163154 
L 297.770193 135.853791 
L 297.849597 137.043229 
L 298.082817 133.500644 
L 298.169644 134.402133 
L 298.249498 133.987223 
L 298.367648 135.029417 
L 298.408637 134.320359 
L 298.489191 134.820426 
L 298.569153 134.649468 
L 298.660582 133.193291 
L 298.896371 135.139739 
L 299.015552 134.649917 
L 299.096635 134.923982 
L 299.151846 133.990427 
L 299.210354 134.324125 
L 299.58698 138.24845 
L 299.62239 137.467853 
L 299.700421 139.274235 
L 299.877467 138.761535 
L 300.0354 141.902974 
L 300.155743 141.376789 
L 300.290211 140.22239 
L 300.356615 137.935321 
L 300.429021 139.256859 
L 300.506326 137.974277 
L 300.64402 138.740533 
L 300.822784 137.51436 
L 300.872172 136.878137 
L 300.939066 137.390443 
L 300.999134 137.539649 
L 301.232125 138.881871 
L 301.251651 138.476043 
L 301.566891 141.618794 
L 301.646339 141.048229 
L 301.742928 141.163396 
L 301.968636 140.668024 
L 302.060237 139.826329 
L 302.220775 139.497808 
L 302.252488 138.710432 
L 302.312041 139.234123 
L 302.471792 136.968791 
L 302.547389 137.308304 
L 302.633381 138.232912 
L 302.705409 137.873641 
L 302.892638 140.546219 
L 302.971292 139.95548 
L 303.120797 139.161029 
L 303.198187 139.256908 
L 303.278037 139.532873 
L 303.451475 137.672119 
L 303.588572 136.999943 
L 303.672668 135.884272 
L 303.843367 136.274961 
L 303.942411 137.015054 
L 304.098565 136.363641 
L 304.159188 137.428029 
L 304.297604 137.105442 
L 304.513195 139.097181 
L 304.589613 138.663169 
L 304.730575 139.319683 
L 304.823999 139.062316 
L 305.0627 140.206488 
L 305.157772 140.069078 
L 305.275003 140.366252 
L 305.373073 137.918144 
L 305.455626 138.919234 
L 305.531542 138.017536 
L 305.628044 139.995208 
L 305.808652 137.467967 
L 305.86502 137.528918 
L 306.040959 134.8756 
L 306.099225 135.537471 
L 306.216936 135.924711 
L 306.29496 134.300298 
L 306.3578 134.946099 
L 306.453391 135.098614 
L 306.536428 136.775775 
L 306.745886 134.784318 
L 306.941283 137.480283 
L 307.277252 139.181047 
L 307.378741 137.24774 
L 307.471212 137.768147 
L 307.588189 137.475094 
L 307.646629 138.529555 
L 307.726122 137.28965 
L 307.832486 137.570646 
L 307.888839 138.193471 
L 307.966031 136.926239 
L 308.373474 139.930865 
L 308.470681 137.959234 
L 308.621824 138.466304 
L 308.630436 138.968389 
L 308.706054 137.686505 
L 308.784078 138.306822 
L 308.90845 138.300845 
L 309.019924 137.18577 
L 309.097756 137.1938 
L 309.196003 136.307661 
L 309.257226 136.79993 
L 309.355077 135.928162 
L 309.430752 133.950886 
L 309.509641 134.478556 
L 309.587776 135.395635 
L 309.669367 134.352193 
L 309.924289 137.739556 
L 310.141576 136.621797 
L 310.156258 136.732943 
L 310.333001 140.425342 
L 310.431106 140.44433 
L 310.489144 140.730998 
L 310.587247 139.729094 
L 310.727214 135.907983 
L 310.880603 136.389757 
L 310.979155 138.707173 
L 311.400327 133.105595 
L 311.49562 133.241207 
L 311.614376 132.051899 
L 311.770788 129.653954 
L 311.925973 130.27176 
L 312.026327 133.529237 
L 312.182086 134.290271 
L 312.24275 133.652699 
L 312.561391 139.578895 
L 312.84893 136.52365 
L 313.025022 138.37899 
L 313.149854 137.782798 
L 313.305654 134.945423 
L 313.407568 136.899529 
L 313.520766 136.876609 
L 313.638554 138.908985 
L 313.805935 138.877908 
L 313.873815 138.887979 
L 313.97331 140.364373 
L 314.063792 141.816828 
L 314.132774 141.551093 
L 314.327649 140.808785 
L 314.482968 138.188683 
L 314.483118 134.026156 
L 314.549154 136.669001 
L 314.620369 136.801675 
L 314.718158 136.628766 
L 314.796959 136.860989 
L 315.032655 134.752344 
L 315.159255 134.243708 
L 315.190723 135.950303 
L 315.271193 135.886996 
L 315.581483 135.714473 
L 315.660764 134.616222 
L 315.701801 135.488222 
L 315.785408 135.307136 
L 315.933921 135.819677 
L 316.084807 137.061485 
L 316.306143 136.478272 
L 316.405472 137.80749 
L 316.639777 136.931361 
L 316.719244 136.76718 
L 316.89343 134.60479 
L 316.983199 135.437517 
L 317.051345 135.104407 
L 317.240407 134.029121 
L 317.306486 132.778815 
L 317.370398 132.325538 
L 317.463541 132.490653 
L 317.586262 133.730016 
L 317.659431 133.458281 
L 317.858078 132.671638 
L 318.011032 133.31293 
L 318.148695 133.117461 
L 318.34413 130.978291 
L 318.422688 132.805323 
L 318.559775 133.270461 
L 318.579739 132.749232 
L 318.660892 133.258927 
L 318.860054 133.486661 
L 319.149006 137.589627 
L 319.344958 136.025237 
L 319.559939 137.906575 
L 319.677789 138.321732 
L 319.976237 136.124115 
L 320.119444 138.710685 
L 320.225801 138.956043 
L 320.285098 138.200228 
L 320.402156 138.20803 
L 320.69682 139.552218 
L 320.774719 141.309729 
L 320.852503 140.464196 
L 321.029856 141.521137 
L 321.097936 141.745218 
L 321.264819 140.226931 
L 321.421338 141.115422 
L 321.894758 133.63188 
L 321.986446 133.781735 
L 322.166397 135.628397 
L 322.294421 134.922718 
L 322.4803 138.105898 
L 322.57813 138.581542 
L 322.715683 141.66927 
L 322.833875 141.405547 
L 323.02972 139.478955 
L 323.128186 140.126577 
L 323.245404 139.966876 
L 323.325452 140.440946 
L 323.366921 140.26765 
L 323.617659 138.233919 
L 323.717771 138.260793 
L 323.793543 137.906419 
L 323.931236 138.267576 
L 324.166999 135.597046 
L 324.284005 136.996218 
L 324.342483 135.740212 
L 324.442434 136.896555 
L 324.499097 136.562834 
L 324.59748 136.549522 
L 324.658772 137.435047 
L 324.75373 136.369916 
L 324.837463 137.160058 
L 324.951769 137.007216 
L 325.028128 137.870133 
L 325.106481 136.549056 
L 325.185193 137.036016 
L 325.243934 136.605408 
L 325.322214 137.141842 
L 325.398895 136.588683 
L 325.498996 137.091528 
L 325.635755 139.010126 
L 325.779393 138.768577 
L 325.87395 137.879381 
L 326.047492 139.116873 
L 326.292894 137.172017 
L 326.361403 136.814009 
L 326.43915 135.780738 
L 326.635705 137.156706 
L 326.693944 139.561266 
L 326.87414 137.621333 
L 326.930235 137.883426 
L 327.007301 137.79799 
L 327.301886 135.791617 
L 327.517555 133.458428 
L 327.575919 133.5769 
L 328.035662 136.932512 
L 328.153537 139.107658 
L 328.314647 138.735217 
L 328.568211 140.04523 
L 328.667729 139.551102 
L 328.713817 138.408562 
L 328.960567 140.651339 
L 329.040388 140.668327 
L 329.276048 139.820151 
L 329.35346 140.217959 
L 329.450757 141.61949 
L 329.51186 141.433072 
L 329.842587 138.750017 
L 329.921122 139.235277 
L 330.174819 137.33906 
L 330.255733 137.275945 
L 330.332451 137.377861 
L 330.413631 137.226552 
L 330.573024 134.928699 
L 330.667155 135.59021 
L 330.74515 135.21345 
L 330.822735 136.211039 
L 330.900898 134.909949 
L 330.980726 135.331336 
L 331.077775 134.151757 
L 331.29544 136.452261 
L 331.391712 136.925627 
L 331.474283 135.38526 
L 331.657143 135.756942 
L 331.666931 135.646173 
L 331.706485 136.133727 
L 331.884239 135.686853 
L 332.275865 138.268725 
L 332.354527 137.314364 
L 332.432383 137.723566 
L 332.512349 137.615535 
L 332.596774 137.120936 
L 332.753091 137.899139 
L 332.922907 136.842992 
L 333.00153 137.415215 
L 333.021034 138.554674 
L 333.08083 136.975407 
L 333.253404 139.267972 
L 333.414065 141.241798 
L 333.492386 140.4921 
L 333.590524 140.422927 
L 333.727035 139.82462 
L 334.041644 139.775224 
L 334.139204 139.542569 
L 334.275604 138.754395 
L 334.57352 142.883933 
L 334.688043 141.945881 
L 334.785136 142.535784 
L 334.882808 139.89666 
L 335.039362 141.034975 
L 335.101539 140.0566 
L 335.199535 140.428782 
L 335.354402 137.432647 
L 335.452705 137.856194 
L 335.586531 137.766245 
L 335.668109 137.429345 
L 335.744245 135.411864 
L 335.842926 135.572642 
L 335.921601 136.310764 
L 336.000776 134.752162 
L 336.135886 134.95938 
L 336.175823 136.013457 
L 336.272915 135.901809 
L 336.335761 136.253523 
L 336.391648 137.330665 
L 336.521308 137.003759 
L 336.567702 137.557458 
L 336.764903 135.868023 
L 336.921023 136.327204 
L 336.999767 136.343818 
L 337.120033 136.773478 
L 337.272639 135.856901 
L 337.469272 138.303402 
L 337.55202 139.257629 
L 337.626256 139.119894 
L 337.704513 139.204731 
L 337.825792 137.902461 
L 338.021666 139.570433 
L 338.202085 137.716463 
L 338.355432 138.643363 
L 338.469781 138.095543 
L 338.644591 139.72135 
L 338.689961 138.850829 
L 338.772683 139.883192 
L 338.841279 138.821852 
L 338.958386 139.451609 
L 338.997246 140.48415 
L 339.253753 137.928691 
L 339.332723 139.591393 
L 339.449169 137.043655 
L 339.507253 138.171944 
L 339.573095 136.506861 
L 339.645559 136.765185 
L 339.723226 135.662258 
L 339.822617 135.682564 
L 339.899762 136.258857 
L 339.960141 137.718749 
L 340.058134 136.502354 
L 340.137063 136.898657 
L 340.211952 137.460166 
L 340.29409 136.14281 
L 340.369298 136.150468 
L 340.466579 136.33497 
L 340.531104 137.570635 
L 340.623918 136.764792 
L 340.702675 136.853214 
L 340.803259 136.738793 
L 341.055764 138.374504 
L 341.212074 137.150575 
L 341.532272 134.937074 
L 341.693398 135.157092 
L 341.835054 132.752714 
L 341.979038 133.097125 
L 341.99764 135.798295 
L 342.096137 134.736153 
L 342.157144 135.622879 
L 342.251603 135.396223 
L 342.447724 135.037517 
L 342.726599 137.442286 
L 342.839714 136.932883 
L 343.133725 138.749595 
L 343.31198 137.495344 
L 343.374783 137.665527 
L 343.642892 134.594021 
L 343.7023 135.551722 
L 343.780998 135.109012 
L 344.036136 133.351366 
L 344.173005 133.487472 
L 344.349209 134.829602 
L 344.428404 136.422727 
L 344.586128 134.840342 
L 344.683773 136.708506 
L 344.743091 136.122392 
L 344.919316 136.71768 
L 345.309721 131.863492 
L 345.430356 134.167567 
L 345.489052 133.362775 
L 345.647298 134.203006 
L 345.728302 134.089428 
L 345.888033 135.708157 
L 345.962654 137.41483 
L 346.060578 137.150618 
L 346.233138 135.517715 
L 346.354708 135.136436 
L 346.45587 135.413232 
L 346.493845 135.100031 
L 346.611382 133.260273 
L 346.726105 133.891549 
L 346.787205 132.161096 
L 346.943886 134.201635 
L 347.119638 135.835456 
L 347.237874 134.154044 
L 347.290923 134.681497 
L 347.420215 136.162001 
L 347.510927 135.315407 
L 347.675087 136.033645 
L 347.903668 132.943088 
L 348.000933 132.471164 
L 348.167773 133.427745 
L 348.251496 133.677103 
L 348.265468 133.659089 
L 348.564463 136.497638 
L 348.65759 136.45274 
L 348.835863 137.869079 
L 348.89642 136.467784 
L 349.00521 136.719265 
L 349.286165 133.164241 
L 349.540672 135.036513 
L 349.6187 136.034112 
L 349.776109 134.977363 
L 349.853794 135.40497 
L 349.972472 134.99435 
L 350.030591 136.704318 
L 350.09381 136.477247 
L 350.265069 134.328564 
L 350.343217 134.770457 
L 350.468582 134.088585 
L 350.61968 136.596985 
L 350.835177 134.332326 
L 350.95279 134.610883 
L 351.02348 136.766625 
L 351.088456 136.736689 
L 351.168304 135.540762 
L 351.250944 137.19632 
L 351.502077 135.544851 
L 351.581548 134.999908 
L 351.717748 135.242969 
L 351.855201 135.777304 
L 351.89368 134.82817 
L 351.957873 136.025519 
L 352.011816 135.815872 
L 352.050644 134.441285 
L 352.158283 135.754046 
L 352.211448 135.152589 
L 352.366162 135.619038 
L 352.503951 136.824422 
L 352.60811 136.513892 
L 352.758923 136.67511 
L 352.798244 136.028458 
L 352.995091 137.048922 
L 353.071898 135.66498 
L 353.11164 136.413453 
L 353.156584 136.33927 
L 353.189756 134.83334 
L 353.27116 135.691728 
L 353.464811 134.744281 
L 353.523399 136.324906 
L 353.603736 134.536901 
L 353.660065 134.776046 
L 353.929594 137.964265 
L 354.019327 137.315509 
L 354.095032 138.205075 
L 354.485221 135.518351 
L 354.700738 132.126328 
L 354.71952 132.800121 
" clip-path="url(#p18fa5641e3)" style="fill: none; stroke: #ff0000; stroke-opacity: 0.5; stroke-width: 2.1; stroke-linecap: square"/>
   </g>
   <g id="patch_3">
    <path d="M 36.485625 148.36327 
L 36.485625 0.72 
" style="fill: none; stroke: #000000; stroke-width: 0.8; stroke-linejoin: miter; stroke-linecap: square"/>
   </g>
   <g id="patch_4">
    <path d="M 354.71952 148.36327 
L 354.71952 0.72 
" style="fill: none; stroke: #000000; stroke-width: 0.8; stroke-linejoin: miter; stroke-linecap: square"/>
   </g>
   <g id="patch_5">
    <path d="M 36.485625 148.36327 
L 354.71952 148.36327 
" style="fill: none; stroke: #000000; stroke-width: 0.8; stroke-linejoin: miter; stroke-linecap: square"/>
   </g>
   <g id="patch_6">
    <path d="M 36.485625 0.72 
L 354.71952 0.72 
" style="fill: none; stroke: #000000; stroke-width: 0.8; stroke-linejoin: miter; stroke-linecap: square"/>
   </g>
   <g id="legend_1">
    <g id="patch_7">
     <path d="M 273.95077 38.07625 
L 347.71952 38.07625 
Q 349.71952 38.07625 349.71952 36.07625 
L 349.71952 7.72 
Q 349.71952 5.72 347.71952 5.72 
L 273.95077 5.72 
Q 271.95077 5.72 271.95077 7.72 
L 271.95077 36.07625 
Q 271.95077 38.07625 273.95077 38.07625 
z
" style="fill: #ffffff; opacity: 0.8; stroke: #cccccc; stroke-linejoin: miter"/>
    </g>
    <g id="line2d_31">
     <path d="M 275.95077 13.818437 
L 285.95077 13.818437 
L 295.95077 13.818437 
" style="fill: none; stroke: #0000ff; stroke-opacity: 0.5; stroke-width: 2.1; stroke-linecap: square"/>
    </g>
    <g id="text_17">
     <!-- RNEA -->
     <g transform="translate(303.95077 17.318437) scale(0.1 -0.1)">
      <defs>
       <path id="DejaVuSans-52" d="M 2841 2188 
Q 3044 2119 3236 1894 
Q 3428 1669 3622 1275 
L 4263 0 
L 3584 0 
L 2988 1197 
Q 2756 1666 2539 1819 
Q 2322 1972 1947 1972 
L 1259 1972 
L 1259 0 
L 628 0 
L 628 4666 
L 2053 4666 
Q 2853 4666 3247 4331 
Q 3641 3997 3641 3322 
Q 3641 2881 3436 2590 
Q 3231 2300 2841 2188 
z
M 1259 4147 
L 1259 2491 
L 2053 2491 
Q 2509 2491 2742 2702 
Q 2975 2913 2975 3322 
Q 2975 3731 2742 3939 
Q 2509 4147 2053 4147 
L 1259 4147 
z
" transform="scale(0.015625)"/>
       <path id="DejaVuSans-45" d="M 628 4666 
L 3578 4666 
L 3578 4134 
L 1259 4134 
L 1259 2753 
L 3481 2753 
L 3481 2222 
L 1259 2222 
L 1259 531 
L 3634 531 
L 3634 0 
L 628 0 
L 628 4666 
z
" transform="scale(0.015625)"/>
       <path id="DejaVuSans-41" d="M 2188 4044 
L 1331 1722 
L 3047 1722 
L 2188 4044 
z
M 1831 4666 
L 2547 4666 
L 4325 0 
L 3669 0 
L 3244 1197 
L 1141 1197 
L 716 0 
L 50 0 
L 1831 4666 
z
" transform="scale(0.015625)"/>
      </defs>
      <use xlink:href="#DejaVuSans-52"/>
      <use xlink:href="#DejaVuSans-4e" x="69.482422"/>
      <use xlink:href="#DejaVuSans-45" x="144.287109"/>
      <use xlink:href="#DejaVuSans-41" x="207.470703"/>
     </g>
    </g>
    <g id="line2d_32">
     <path d="M 275.95077 28.496562 
L 285.95077 28.496562 
L 295.95077 28.496562 
" style="fill: none; stroke: #ff0000; stroke-opacity: 0.5; stroke-width: 2.1; stroke-linecap: square"/>
    </g>
    <g id="text_18">
     <!-- BURNEA -->
     <g transform="translate(303.95077 31.996562) scale(0.1 -0.1)">
      <defs>
       <path id="DejaVuSans-42" d="M 1259 2228 
L 1259 519 
L 2272 519 
Q 2781 519 3026 730 
Q 3272 941 3272 1375 
Q 3272 1813 3026 2020 
Q 2781 2228 2272 2228 
L 1259 2228 
z
M 1259 4147 
L 1259 2741 
L 2194 2741 
Q 2656 2741 2882 2914 
Q 3109 3088 3109 3444 
Q 3109 3797 2882 3972 
Q 2656 4147 2194 4147 
L 1259 4147 
z
M 628 4666 
L 2241 4666 
Q 2963 4666 3353 4366 
Q 3744 4066 3744 3513 
Q 3744 3084 3544 2831 
Q 3344 2578 2956 2516 
Q 3422 2416 3680 2098 
Q 3938 1781 3938 1306 
Q 3938 681 3513 340 
Q 3088 0 2303 0 
L 628 0 
L 628 4666 
z
" transform="scale(0.015625)"/>
       <path id="DejaVuSans-55" d="M 556 4666 
L 1191 4666 
L 1191 1831 
Q 1191 1081 1462 751 
Q 1734 422 2344 422 
Q 2950 422 3222 751 
Q 3494 1081 3494 1831 
L 3494 4666 
L 4128 4666 
L 4128 1753 
Q 4128 841 3676 375 
Q 3225 -91 2344 -91 
Q 1459 -91 1007 375 
Q 556 841 556 1753 
L 556 4666 
z
" transform="scale(0.015625)"/>
      </defs>
      <use xlink:href="#DejaVuSans-42"/>
      <use xlink:href="#DejaVuSans-55" x="68.603516"/>
      <use xlink:href="#DejaVuSans-52" x="141.796875"/>
      <use xlink:href="#DejaVuSans-4e" x="211.279297"/>
      <use xlink:href="#DejaVuSans-45" x="286.083984"/>
      <use xlink:href="#DejaVuSans-41" x="349.267578"/>
     </g>
    </g>
   </g>
  </g>
 </g>
 <defs>
  <clipPath id="p18fa5641e3">
   <rect x="36.485625" y="0.72" width="318.233895" height="147.64327"/>
  </clipPath>
 </defs>
</svg>
