<?xml version="1.0" encoding="utf-8" standalone="no"?>
<!DOCTYPE svg PUBLIC "-//W3C//DTD SVG 1.1//EN"
  "http://www.w3.org/Graphics/SVG/1.1/DTD/svg11.dtd">
<svg xmlns:xlink="http://www.w3.org/1999/xlink" width="595.205625pt" height="304.99625pt" viewBox="0 0 595.205625 304.99625" xmlns="http://www.w3.org/2000/svg" version="1.1">
 <metadata>
  <rdf:RDF xmlns:dc="http://purl.org/dc/elements/1.1/" xmlns:cc="http://creativecommons.org/ns#" xmlns:rdf="http://www.w3.org/1999/02/22-rdf-syntax-ns#">
   <cc:Work>
    <dc:type rdf:resource="http://purl.org/dc/dcmitype/StillImage"/>
    <dc:date>2023-09-07T03:30:43.866571</dc:date>
    <dc:format>image/svg+xml</dc:format>
    <dc:creator>
     <cc:Agent>
      <dc:title>Matplotlib v3.7.2, https://matplotlib.org/</dc:title>
     </cc:Agent>
    </dc:creator>
   </cc:Work>
  </rdf:RDF>
 </metadata>
 <defs>
  <style type="text/css">*{stroke-linejoin: round; stroke-linecap: butt}</style>
 </defs>
 <g id="figure_1">
  <g id="patch_1">
   <path d="M 0 304.99625 
L 595.205625 304.99625 
L 595.205625 0 
L 0 0 
L 0 304.99625 
z
" style="fill: none"/>
  </g>
  <g id="axes_1">
   <g id="patch_2">
    <path d="M 36.485625 277.92 
L 594.485625 277.92 
L 594.485625 0.72 
L 36.485625 0.72 
L 36.485625 277.92 
z
" style="fill: none"/>
   </g>
   <g id="matplotlib.axis_1">
    <g id="xtick_1">
     <g id="line2d_1">
      <path d="M 36.485625 277.92 
L 36.485625 0.72 
" clip-path="url(#pa675664fb9)" style="fill: none; stroke-dasharray: 0.8,1.32; stroke-dashoffset: 0; stroke: #000000; stroke-opacity: 0.5; stroke-width: 0.8"/>
     </g>
     <g id="line2d_2">
      <defs>
       <path id="ma0151b8376" d="M 0 0 
L 0 3.5 
" style="stroke: #000000; stroke-width: 0.8"/>
      </defs>
      <g>
       <use xlink:href="#ma0151b8376" x="36.485625" y="277.92" style="stroke: #000000; stroke-width: 0.8"/>
      </g>
     </g>
     <g id="text_1">
      <!-- 0.0 -->
      <g transform="translate(28.534063 292.518438) scale(0.1 -0.1)">
       <defs>
        <path id="DejaVuSans-30" d="M 2034 4250 
Q 1547 4250 1301 3770 
Q 1056 3291 1056 2328 
Q 1056 1369 1301 889 
Q 1547 409 2034 409 
Q 2525 409 2770 889 
Q 3016 1369 3016 2328 
Q 3016 3291 2770 3770 
Q 2525 4250 2034 4250 
z
M 2034 4750 
Q 2819 4750 3233 4129 
Q 3647 3509 3647 2328 
Q 3647 1150 3233 529 
Q 2819 -91 2034 -91 
Q 1250 -91 836 529 
Q 422 1150 422 2328 
Q 422 3509 836 4129 
Q 1250 4750 2034 4750 
z
" transform="scale(0.015625)"/>
        <path id="DejaVuSans-2e" d="M 684 794 
L 1344 794 
L 1344 0 
L 684 0 
L 684 794 
z
" transform="scale(0.015625)"/>
       </defs>
       <use xlink:href="#DejaVuSans-30"/>
       <use xlink:href="#DejaVuSans-2e" x="63.623047"/>
       <use xlink:href="#DejaVuSans-30" x="95.410156"/>
      </g>
     </g>
    </g>
    <g id="xtick_2">
     <g id="line2d_3">
      <path d="M 110.63695 277.92 
L 110.63695 0.72 
" clip-path="url(#pa675664fb9)" style="fill: none; stroke-dasharray: 0.8,1.32; stroke-dashoffset: 0; stroke: #000000; stroke-opacity: 0.5; stroke-width: 0.8"/>
     </g>
     <g id="line2d_4">
      <g>
       <use xlink:href="#ma0151b8376" x="110.63695" y="277.92" style="stroke: #000000; stroke-width: 0.8"/>
      </g>
     </g>
     <g id="text_2">
      <!-- 2.5 -->
      <g transform="translate(102.685387 292.518438) scale(0.1 -0.1)">
       <defs>
        <path id="DejaVuSans-32" d="M 1228 531 
L 3431 531 
L 3431 0 
L 469 0 
L 469 531 
Q 828 903 1448 1529 
Q 2069 2156 2228 2338 
Q 2531 2678 2651 2914 
Q 2772 3150 2772 3378 
Q 2772 3750 2511 3984 
Q 2250 4219 1831 4219 
Q 1534 4219 1204 4116 
Q 875 4013 500 3803 
L 500 4441 
Q 881 4594 1212 4672 
Q 1544 4750 1819 4750 
Q 2544 4750 2975 4387 
Q 3406 4025 3406 3419 
Q 3406 3131 3298 2873 
Q 3191 2616 2906 2266 
Q 2828 2175 2409 1742 
Q 1991 1309 1228 531 
z
" transform="scale(0.015625)"/>
        <path id="DejaVuSans-35" d="M 691 4666 
L 3169 4666 
L 3169 4134 
L 1269 4134 
L 1269 2991 
Q 1406 3038 1543 3061 
Q 1681 3084 1819 3084 
Q 2600 3084 3056 2656 
Q 3513 2228 3513 1497 
Q 3513 744 3044 326 
Q 2575 -91 1722 -91 
Q 1428 -91 1123 -41 
Q 819 9 494 109 
L 494 744 
Q 775 591 1075 516 
Q 1375 441 1709 441 
Q 2250 441 2565 725 
Q 2881 1009 2881 1497 
Q 2881 1984 2565 2268 
Q 2250 2553 1709 2553 
Q 1456 2553 1204 2497 
Q 953 2441 691 2322 
L 691 4666 
z
" transform="scale(0.015625)"/>
       </defs>
       <use xlink:href="#DejaVuSans-32"/>
       <use xlink:href="#DejaVuSans-2e" x="63.623047"/>
       <use xlink:href="#DejaVuSans-35" x="95.410156"/>
      </g>
     </g>
    </g>
    <g id="xtick_3">
     <g id="line2d_5">
      <path d="M 184.788275 277.92 
L 184.788275 0.72 
" clip-path="url(#pa675664fb9)" style="fill: none; stroke-dasharray: 0.8,1.32; stroke-dashoffset: 0; stroke: #000000; stroke-opacity: 0.5; stroke-width: 0.8"/>
     </g>
     <g id="line2d_6">
      <g>
       <use xlink:href="#ma0151b8376" x="184.788275" y="277.92" style="stroke: #000000; stroke-width: 0.8"/>
      </g>
     </g>
     <g id="text_3">
      <!-- 5.0 -->
      <g transform="translate(176.836712 292.518438) scale(0.1 -0.1)">
       <use xlink:href="#DejaVuSans-35"/>
       <use xlink:href="#DejaVuSans-2e" x="63.623047"/>
       <use xlink:href="#DejaVuSans-30" x="95.410156"/>
      </g>
     </g>
    </g>
    <g id="xtick_4">
     <g id="line2d_7">
      <path d="M 258.9396 277.92 
L 258.9396 0.72 
" clip-path="url(#pa675664fb9)" style="fill: none; stroke-dasharray: 0.8,1.32; stroke-dashoffset: 0; stroke: #000000; stroke-opacity: 0.5; stroke-width: 0.8"/>
     </g>
     <g id="line2d_8">
      <g>
       <use xlink:href="#ma0151b8376" x="258.9396" y="277.92" style="stroke: #000000; stroke-width: 0.8"/>
      </g>
     </g>
     <g id="text_4">
      <!-- 7.5 -->
      <g transform="translate(250.988037 292.518438) scale(0.1 -0.1)">
       <defs>
        <path id="DejaVuSans-37" d="M 525 4666 
L 3525 4666 
L 3525 4397 
L 1831 0 
L 1172 0 
L 2766 4134 
L 525 4134 
L 525 4666 
z
" transform="scale(0.015625)"/>
       </defs>
       <use xlink:href="#DejaVuSans-37"/>
       <use xlink:href="#DejaVuSans-2e" x="63.623047"/>
       <use xlink:href="#DejaVuSans-35" x="95.410156"/>
      </g>
     </g>
    </g>
    <g id="xtick_5">
     <g id="line2d_9">
      <path d="M 333.090925 277.92 
L 333.090925 0.72 
" clip-path="url(#pa675664fb9)" style="fill: none; stroke-dasharray: 0.8,1.32; stroke-dashoffset: 0; stroke: #000000; stroke-opacity: 0.5; stroke-width: 0.8"/>
     </g>
     <g id="line2d_10">
      <g>
       <use xlink:href="#ma0151b8376" x="333.090925" y="277.92" style="stroke: #000000; stroke-width: 0.8"/>
      </g>
     </g>
     <g id="text_5">
      <!-- 10.0 -->
      <g transform="translate(321.958112 292.518438) scale(0.1 -0.1)">
       <defs>
        <path id="DejaVuSans-31" d="M 794 531 
L 1825 531 
L 1825 4091 
L 703 3866 
L 703 4441 
L 1819 4666 
L 2450 4666 
L 2450 531 
L 3481 531 
L 3481 0 
L 794 0 
L 794 531 
z
" transform="scale(0.015625)"/>
       </defs>
       <use xlink:href="#DejaVuSans-31"/>
       <use xlink:href="#DejaVuSans-30" x="63.623047"/>
       <use xlink:href="#DejaVuSans-2e" x="127.246094"/>
       <use xlink:href="#DejaVuSans-30" x="159.033203"/>
      </g>
     </g>
    </g>
    <g id="xtick_6">
     <g id="line2d_11">
      <path d="M 407.24225 277.92 
L 407.24225 0.72 
" clip-path="url(#pa675664fb9)" style="fill: none; stroke-dasharray: 0.8,1.32; stroke-dashoffset: 0; stroke: #000000; stroke-opacity: 0.5; stroke-width: 0.8"/>
     </g>
     <g id="line2d_12">
      <g>
       <use xlink:href="#ma0151b8376" x="407.24225" y="277.92" style="stroke: #000000; stroke-width: 0.8"/>
      </g>
     </g>
     <g id="text_6">
      <!-- 12.5 -->
      <g transform="translate(396.109437 292.518438) scale(0.1 -0.1)">
       <use xlink:href="#DejaVuSans-31"/>
       <use xlink:href="#DejaVuSans-32" x="63.623047"/>
       <use xlink:href="#DejaVuSans-2e" x="127.246094"/>
       <use xlink:href="#DejaVuSans-35" x="159.033203"/>
      </g>
     </g>
    </g>
    <g id="xtick_7">
     <g id="line2d_13">
      <path d="M 481.393575 277.92 
L 481.393575 0.72 
" clip-path="url(#pa675664fb9)" style="fill: none; stroke-dasharray: 0.8,1.32; stroke-dashoffset: 0; stroke: #000000; stroke-opacity: 0.5; stroke-width: 0.8"/>
     </g>
     <g id="line2d_14">
      <g>
       <use xlink:href="#ma0151b8376" x="481.393575" y="277.92" style="stroke: #000000; stroke-width: 0.8"/>
      </g>
     </g>
     <g id="text_7">
      <!-- 15.0 -->
      <g transform="translate(470.260762 292.518438) scale(0.1 -0.1)">
       <use xlink:href="#DejaVuSans-31"/>
       <use xlink:href="#DejaVuSans-35" x="63.623047"/>
       <use xlink:href="#DejaVuSans-2e" x="127.246094"/>
       <use xlink:href="#DejaVuSans-30" x="159.033203"/>
      </g>
     </g>
    </g>
    <g id="xtick_8">
     <g id="line2d_15">
      <path d="M 555.544899 277.92 
L 555.544899 0.72 
" clip-path="url(#pa675664fb9)" style="fill: none; stroke-dasharray: 0.8,1.32; stroke-dashoffset: 0; stroke: #000000; stroke-opacity: 0.5; stroke-width: 0.8"/>
     </g>
     <g id="line2d_16">
      <g>
       <use xlink:href="#ma0151b8376" x="555.544899" y="277.92" style="stroke: #000000; stroke-width: 0.8"/>
      </g>
     </g>
     <g id="text_8">
      <!-- 17.5 -->
      <g transform="translate(544.412087 292.518438) scale(0.1 -0.1)">
       <use xlink:href="#DejaVuSans-31"/>
       <use xlink:href="#DejaVuSans-37" x="63.623047"/>
       <use xlink:href="#DejaVuSans-2e" x="127.246094"/>
       <use xlink:href="#DejaVuSans-35" x="159.033203"/>
      </g>
     </g>
    </g>
    <g id="text_9">
     <!-- Zeit [s] -->
     <g transform="translate(297.539531 302.196563) scale(0.1 -0.1)">
      <defs>
       <path id="DejaVuSans-5a" d="M 359 4666 
L 4025 4666 
L 4025 4184 
L 1075 531 
L 4097 531 
L 4097 0 
L 288 0 
L 288 481 
L 3238 4134 
L 359 4134 
L 359 4666 
z
" transform="scale(0.015625)"/>
       <path id="DejaVuSans-65" d="M 3597 1894 
L 3597 1613 
L 953 1613 
Q 991 1019 1311 708 
Q 1631 397 2203 397 
Q 2534 397 2845 478 
Q 3156 559 3463 722 
L 3463 178 
Q 3153 47 2828 -22 
Q 2503 -91 2169 -91 
Q 1331 -91 842 396 
Q 353 884 353 1716 
Q 353 2575 817 3079 
Q 1281 3584 2069 3584 
Q 2775 3584 3186 3129 
Q 3597 2675 3597 1894 
z
M 3022 2063 
Q 3016 2534 2758 2815 
Q 2500 3097 2075 3097 
Q 1594 3097 1305 2825 
Q 1016 2553 972 2059 
L 3022 2063 
z
" transform="scale(0.015625)"/>
       <path id="DejaVuSans-69" d="M 603 3500 
L 1178 3500 
L 1178 0 
L 603 0 
L 603 3500 
z
M 603 4863 
L 1178 4863 
L 1178 4134 
L 603 4134 
L 603 4863 
z
" transform="scale(0.015625)"/>
       <path id="DejaVuSans-74" d="M 1172 4494 
L 1172 3500 
L 2356 3500 
L 2356 3053 
L 1172 3053 
L 1172 1153 
Q 1172 725 1289 603 
Q 1406 481 1766 481 
L 2356 481 
L 2356 0 
L 1766 0 
Q 1100 0 847 248 
Q 594 497 594 1153 
L 594 3053 
L 172 3053 
L 172 3500 
L 594 3500 
L 594 4494 
L 1172 4494 
z
" transform="scale(0.015625)"/>
       <path id="DejaVuSans-20" transform="scale(0.015625)"/>
       <path id="DejaVuSans-5b" d="M 550 4863 
L 1875 4863 
L 1875 4416 
L 1125 4416 
L 1125 -397 
L 1875 -397 
L 1875 -844 
L 550 -844 
L 550 4863 
z
" transform="scale(0.015625)"/>
       <path id="DejaVuSans-73" d="M 2834 3397 
L 2834 2853 
Q 2591 2978 2328 3040 
Q 2066 3103 1784 3103 
Q 1356 3103 1142 2972 
Q 928 2841 928 2578 
Q 928 2378 1081 2264 
Q 1234 2150 1697 2047 
L 1894 2003 
Q 2506 1872 2764 1633 
Q 3022 1394 3022 966 
Q 3022 478 2636 193 
Q 2250 -91 1575 -91 
Q 1294 -91 989 -36 
Q 684 19 347 128 
L 347 722 
Q 666 556 975 473 
Q 1284 391 1588 391 
Q 1994 391 2212 530 
Q 2431 669 2431 922 
Q 2431 1156 2273 1281 
Q 2116 1406 1581 1522 
L 1381 1569 
Q 847 1681 609 1914 
Q 372 2147 372 2553 
Q 372 3047 722 3315 
Q 1072 3584 1716 3584 
Q 2034 3584 2315 3537 
Q 2597 3491 2834 3397 
z
" transform="scale(0.015625)"/>
       <path id="DejaVuSans-5d" d="M 1947 4863 
L 1947 -844 
L 622 -844 
L 622 -397 
L 1369 -397 
L 1369 4416 
L 622 4416 
L 622 4863 
L 1947 4863 
z
" transform="scale(0.015625)"/>
      </defs>
      <use xlink:href="#DejaVuSans-5a"/>
      <use xlink:href="#DejaVuSans-65" x="68.505859"/>
      <use xlink:href="#DejaVuSans-69" x="130.029297"/>
      <use xlink:href="#DejaVuSans-74" x="157.8125"/>
      <use xlink:href="#DejaVuSans-20" x="197.021484"/>
      <use xlink:href="#DejaVuSans-5b" x="228.808594"/>
      <use xlink:href="#DejaVuSans-73" x="267.822266"/>
      <use xlink:href="#DejaVuSans-5d" x="319.921875"/>
     </g>
    </g>
   </g>
   <g id="matplotlib.axis_2">
    <g id="ytick_1">
     <g id="line2d_17">
      <path d="M 36.485625 277.373488 
L 594.485625 277.373488 
" clip-path="url(#pa675664fb9)" style="fill: none; stroke-dasharray: 0.8,1.32; stroke-dashoffset: 0; stroke: #000000; stroke-opacity: 0.5; stroke-width: 0.8"/>
     </g>
     <g id="line2d_18">
      <defs>
       <path id="mde16cb37a9" d="M 0 0 
L -3.5 0 
" style="stroke: #000000; stroke-width: 0.8"/>
      </defs>
      <g>
       <use xlink:href="#mde16cb37a9" x="36.485625" y="277.373488" style="stroke: #000000; stroke-width: 0.8"/>
      </g>
     </g>
     <g id="text_10">
      <!-- 90 -->
      <g transform="translate(16.760625 281.172707) scale(0.1 -0.1)">
       <defs>
        <path id="DejaVuSans-39" d="M 703 97 
L 703 672 
Q 941 559 1184 500 
Q 1428 441 1663 441 
Q 2288 441 2617 861 
Q 2947 1281 2994 2138 
Q 2813 1869 2534 1725 
Q 2256 1581 1919 1581 
Q 1219 1581 811 2004 
Q 403 2428 403 3163 
Q 403 3881 828 4315 
Q 1253 4750 1959 4750 
Q 2769 4750 3195 4129 
Q 3622 3509 3622 2328 
Q 3622 1225 3098 567 
Q 2575 -91 1691 -91 
Q 1453 -91 1209 -44 
Q 966 3 703 97 
z
M 1959 2075 
Q 2384 2075 2632 2365 
Q 2881 2656 2881 3163 
Q 2881 3666 2632 3958 
Q 2384 4250 1959 4250 
Q 1534 4250 1286 3958 
Q 1038 3666 1038 3163 
Q 1038 2656 1286 2365 
Q 1534 2075 1959 2075 
z
" transform="scale(0.015625)"/>
       </defs>
       <use xlink:href="#DejaVuSans-39"/>
       <use xlink:href="#DejaVuSans-30" x="63.623047"/>
      </g>
     </g>
    </g>
    <g id="ytick_2">
     <g id="line2d_19">
      <path d="M 36.485625 239.46094 
L 594.485625 239.46094 
" clip-path="url(#pa675664fb9)" style="fill: none; stroke-dasharray: 0.8,1.32; stroke-dashoffset: 0; stroke: #000000; stroke-opacity: 0.5; stroke-width: 0.8"/>
     </g>
     <g id="line2d_20">
      <g>
       <use xlink:href="#mde16cb37a9" x="36.485625" y="239.46094" style="stroke: #000000; stroke-width: 0.8"/>
      </g>
     </g>
     <g id="text_11">
      <!-- 100 -->
      <g transform="translate(10.398125 243.260158) scale(0.1 -0.1)">
       <use xlink:href="#DejaVuSans-31"/>
       <use xlink:href="#DejaVuSans-30" x="63.623047"/>
       <use xlink:href="#DejaVuSans-30" x="127.246094"/>
      </g>
     </g>
    </g>
    <g id="ytick_3">
     <g id="line2d_21">
      <path d="M 36.485625 201.548391 
L 594.485625 201.548391 
" clip-path="url(#pa675664fb9)" style="fill: none; stroke-dasharray: 0.8,1.32; stroke-dashoffset: 0; stroke: #000000; stroke-opacity: 0.5; stroke-width: 0.8"/>
     </g>
     <g id="line2d_22">
      <g>
       <use xlink:href="#mde16cb37a9" x="36.485625" y="201.548391" style="stroke: #000000; stroke-width: 0.8"/>
      </g>
     </g>
     <g id="text_12">
      <!-- 110 -->
      <g transform="translate(10.398125 205.34761) scale(0.1 -0.1)">
       <use xlink:href="#DejaVuSans-31"/>
       <use xlink:href="#DejaVuSans-31" x="63.623047"/>
       <use xlink:href="#DejaVuSans-30" x="127.246094"/>
      </g>
     </g>
    </g>
    <g id="ytick_4">
     <g id="line2d_23">
      <path d="M 36.485625 163.635842 
L 594.485625 163.635842 
" clip-path="url(#pa675664fb9)" style="fill: none; stroke-dasharray: 0.8,1.32; stroke-dashoffset: 0; stroke: #000000; stroke-opacity: 0.5; stroke-width: 0.8"/>
     </g>
     <g id="line2d_24">
      <g>
       <use xlink:href="#mde16cb37a9" x="36.485625" y="163.635842" style="stroke: #000000; stroke-width: 0.8"/>
      </g>
     </g>
     <g id="text_13">
      <!-- 120 -->
      <g transform="translate(10.398125 167.435061) scale(0.1 -0.1)">
       <use xlink:href="#DejaVuSans-31"/>
       <use xlink:href="#DejaVuSans-32" x="63.623047"/>
       <use xlink:href="#DejaVuSans-30" x="127.246094"/>
      </g>
     </g>
    </g>
    <g id="ytick_5">
     <g id="line2d_25">
      <path d="M 36.485625 125.723293 
L 594.485625 125.723293 
" clip-path="url(#pa675664fb9)" style="fill: none; stroke-dasharray: 0.8,1.32; stroke-dashoffset: 0; stroke: #000000; stroke-opacity: 0.5; stroke-width: 0.8"/>
     </g>
     <g id="line2d_26">
      <g>
       <use xlink:href="#mde16cb37a9" x="36.485625" y="125.723293" style="stroke: #000000; stroke-width: 0.8"/>
      </g>
     </g>
     <g id="text_14">
      <!-- 130 -->
      <g transform="translate(10.398125 129.522512) scale(0.1 -0.1)">
       <defs>
        <path id="DejaVuSans-33" d="M 2597 2516 
Q 3050 2419 3304 2112 
Q 3559 1806 3559 1356 
Q 3559 666 3084 287 
Q 2609 -91 1734 -91 
Q 1441 -91 1130 -33 
Q 819 25 488 141 
L 488 750 
Q 750 597 1062 519 
Q 1375 441 1716 441 
Q 2309 441 2620 675 
Q 2931 909 2931 1356 
Q 2931 1769 2642 2001 
Q 2353 2234 1838 2234 
L 1294 2234 
L 1294 2753 
L 1863 2753 
Q 2328 2753 2575 2939 
Q 2822 3125 2822 3475 
Q 2822 3834 2567 4026 
Q 2313 4219 1838 4219 
Q 1578 4219 1281 4162 
Q 984 4106 628 3988 
L 628 4550 
Q 988 4650 1302 4700 
Q 1616 4750 1894 4750 
Q 2613 4750 3031 4423 
Q 3450 4097 3450 3541 
Q 3450 3153 3228 2886 
Q 3006 2619 2597 2516 
z
" transform="scale(0.015625)"/>
       </defs>
       <use xlink:href="#DejaVuSans-31"/>
       <use xlink:href="#DejaVuSans-33" x="63.623047"/>
       <use xlink:href="#DejaVuSans-30" x="127.246094"/>
      </g>
     </g>
    </g>
    <g id="ytick_6">
     <g id="line2d_27">
      <path d="M 36.485625 87.810745 
L 594.485625 87.810745 
" clip-path="url(#pa675664fb9)" style="fill: none; stroke-dasharray: 0.8,1.32; stroke-dashoffset: 0; stroke: #000000; stroke-opacity: 0.5; stroke-width: 0.8"/>
     </g>
     <g id="line2d_28">
      <g>
       <use xlink:href="#mde16cb37a9" x="36.485625" y="87.810745" style="stroke: #000000; stroke-width: 0.8"/>
      </g>
     </g>
     <g id="text_15">
      <!-- 140 -->
      <g transform="translate(10.398125 91.609963) scale(0.1 -0.1)">
       <defs>
        <path id="DejaVuSans-34" d="M 2419 4116 
L 825 1625 
L 2419 1625 
L 2419 4116 
z
M 2253 4666 
L 3047 4666 
L 3047 1625 
L 3713 1625 
L 3713 1100 
L 3047 1100 
L 3047 0 
L 2419 0 
L 2419 1100 
L 313 1100 
L 313 1709 
L 2253 4666 
z
" transform="scale(0.015625)"/>
       </defs>
       <use xlink:href="#DejaVuSans-31"/>
       <use xlink:href="#DejaVuSans-34" x="63.623047"/>
       <use xlink:href="#DejaVuSans-30" x="127.246094"/>
      </g>
     </g>
    </g>
    <g id="ytick_7">
     <g id="line2d_29">
      <path d="M 36.485625 49.898196 
L 594.485625 49.898196 
" clip-path="url(#pa675664fb9)" style="fill: none; stroke-dasharray: 0.8,1.32; stroke-dashoffset: 0; stroke: #000000; stroke-opacity: 0.5; stroke-width: 0.8"/>
     </g>
     <g id="line2d_30">
      <g>
       <use xlink:href="#mde16cb37a9" x="36.485625" y="49.898196" style="stroke: #000000; stroke-width: 0.8"/>
      </g>
     </g>
     <g id="text_16">
      <!-- 150 -->
      <g transform="translate(10.398125 53.697415) scale(0.1 -0.1)">
       <use xlink:href="#DejaVuSans-31"/>
       <use xlink:href="#DejaVuSans-35" x="63.623047"/>
       <use xlink:href="#DejaVuSans-30" x="127.246094"/>
      </g>
     </g>
    </g>
    <g id="ytick_8">
     <g id="line2d_31">
      <path d="M 36.485625 11.985647 
L 594.485625 11.985647 
" clip-path="url(#pa675664fb9)" style="fill: none; stroke-dasharray: 0.8,1.32; stroke-dashoffset: 0; stroke: #000000; stroke-opacity: 0.5; stroke-width: 0.8"/>
     </g>
     <g id="line2d_32">
      <g>
       <use xlink:href="#mde16cb37a9" x="36.485625" y="11.985647" style="stroke: #000000; stroke-width: 0.8"/>
      </g>
     </g>
     <g id="text_17">
      <!-- 160 -->
      <g transform="translate(10.398125 15.784866) scale(0.1 -0.1)">
       <defs>
        <path id="DejaVuSans-36" d="M 2113 2584 
Q 1688 2584 1439 2293 
Q 1191 2003 1191 1497 
Q 1191 994 1439 701 
Q 1688 409 2113 409 
Q 2538 409 2786 701 
Q 3034 994 3034 1497 
Q 3034 2003 2786 2293 
Q 2538 2584 2113 2584 
z
M 3366 4563 
L 3366 3988 
Q 3128 4100 2886 4159 
Q 2644 4219 2406 4219 
Q 1781 4219 1451 3797 
Q 1122 3375 1075 2522 
Q 1259 2794 1537 2939 
Q 1816 3084 2150 3084 
Q 2853 3084 3261 2657 
Q 3669 2231 3669 1497 
Q 3669 778 3244 343 
Q 2819 -91 2113 -91 
Q 1303 -91 875 529 
Q 447 1150 447 2328 
Q 447 3434 972 4092 
Q 1497 4750 2381 4750 
Q 2619 4750 2861 4703 
Q 3103 4656 3366 4563 
z
" transform="scale(0.015625)"/>
       </defs>
       <use xlink:href="#DejaVuSans-31"/>
       <use xlink:href="#DejaVuSans-36" x="63.623047"/>
       <use xlink:href="#DejaVuSans-30" x="127.246094"/>
      </g>
     </g>
    </g>
    <g id="text_18">
     <!-- 2-Norm F [N] -->
     <g transform="translate(8.318438 171.639531) rotate(-90) scale(0.1 -0.1)">
      <defs>
       <path id="DejaVuSans-2d" d="M 313 2009 
L 1997 2009 
L 1997 1497 
L 313 1497 
L 313 2009 
z
" transform="scale(0.015625)"/>
       <path id="DejaVuSans-4e" d="M 628 4666 
L 1478 4666 
L 3547 763 
L 3547 4666 
L 4159 4666 
L 4159 0 
L 3309 0 
L 1241 3903 
L 1241 0 
L 628 0 
L 628 4666 
z
" transform="scale(0.015625)"/>
       <path id="DejaVuSans-6f" d="M 1959 3097 
Q 1497 3097 1228 2736 
Q 959 2375 959 1747 
Q 959 1119 1226 758 
Q 1494 397 1959 397 
Q 2419 397 2687 759 
Q 2956 1122 2956 1747 
Q 2956 2369 2687 2733 
Q 2419 3097 1959 3097 
z
M 1959 3584 
Q 2709 3584 3137 3096 
Q 3566 2609 3566 1747 
Q 3566 888 3137 398 
Q 2709 -91 1959 -91 
Q 1206 -91 779 398 
Q 353 888 353 1747 
Q 353 2609 779 3096 
Q 1206 3584 1959 3584 
z
" transform="scale(0.015625)"/>
       <path id="DejaVuSans-72" d="M 2631 2963 
Q 2534 3019 2420 3045 
Q 2306 3072 2169 3072 
Q 1681 3072 1420 2755 
Q 1159 2438 1159 1844 
L 1159 0 
L 581 0 
L 581 3500 
L 1159 3500 
L 1159 2956 
Q 1341 3275 1631 3429 
Q 1922 3584 2338 3584 
Q 2397 3584 2469 3576 
Q 2541 3569 2628 3553 
L 2631 2963 
z
" transform="scale(0.015625)"/>
       <path id="DejaVuSans-6d" d="M 3328 2828 
Q 3544 3216 3844 3400 
Q 4144 3584 4550 3584 
Q 5097 3584 5394 3201 
Q 5691 2819 5691 2113 
L 5691 0 
L 5113 0 
L 5113 2094 
Q 5113 2597 4934 2840 
Q 4756 3084 4391 3084 
Q 3944 3084 3684 2787 
Q 3425 2491 3425 1978 
L 3425 0 
L 2847 0 
L 2847 2094 
Q 2847 2600 2669 2842 
Q 2491 3084 2119 3084 
Q 1678 3084 1418 2786 
Q 1159 2488 1159 1978 
L 1159 0 
L 581 0 
L 581 3500 
L 1159 3500 
L 1159 2956 
Q 1356 3278 1631 3431 
Q 1906 3584 2284 3584 
Q 2666 3584 2933 3390 
Q 3200 3197 3328 2828 
z
" transform="scale(0.015625)"/>
       <path id="DejaVuSans-46" d="M 628 4666 
L 3309 4666 
L 3309 4134 
L 1259 4134 
L 1259 2759 
L 3109 2759 
L 3109 2228 
L 1259 2228 
L 1259 0 
L 628 0 
L 628 4666 
z
" transform="scale(0.015625)"/>
      </defs>
      <use xlink:href="#DejaVuSans-32"/>
      <use xlink:href="#DejaVuSans-2d" x="63.623047"/>
      <use xlink:href="#DejaVuSans-4e" x="99.707031"/>
      <use xlink:href="#DejaVuSans-6f" x="174.511719"/>
      <use xlink:href="#DejaVuSans-72" x="235.693359"/>
      <use xlink:href="#DejaVuSans-6d" x="275.056641"/>
      <use xlink:href="#DejaVuSans-20" x="372.46875"/>
      <use xlink:href="#DejaVuSans-46" x="404.255859"/>
      <use xlink:href="#DejaVuSans-20" x="461.775391"/>
      <use xlink:href="#DejaVuSans-5b" x="493.5625"/>
      <use xlink:href="#DejaVuSans-4e" x="532.576172"/>
      <use xlink:href="#DejaVuSans-5d" x="607.380859"/>
     </g>
    </g>
   </g>
   <g id="line2d_33">
    <path d="M 36.485625 101.841576 
L 221.231289 101.841576 
L 221.537069 93.48109 
L 221.714863 99.950263 
L 222.031025 99.576446 
L 222.243992 97.120903 
L 222.481288 100.235815 
L 222.721789 101.715391 
L 222.95943 102.012673 
L 223.496769 103.78139 
L 223.733843 103.552254 
L 223.971601 104.13548 
L 224.20963 103.29032 
L 224.690164 103.782173 
L 224.98696 103.373979 
L 225.167264 103.469101 
L 225.40564 102.727795 
L 225.462052 103.787769 
L 225.700205 103.23056 
L 225.939709 103.13352 
L 226.176963 103.389594 
L 226.474745 103.897103 
L 226.955588 103.445975 
L 227.194519 102.426916 
L 227.490434 103.596215 
L 227.981441 103.643264 
L 228.155881 104.409001 
L 228.391609 104.113783 
L 228.688752 104.42976 
L 229.225176 102.116997 
L 229.612959 102.983947 
L 229.646531 104.760254 
L 230.119638 103.046133 
L 230.29887 103.194052 
L 230.417322 104.096685 
L 230.898797 102.940784 
L 231.191264 103.089746 
L 231.370697 100.275974 
L 231.609475 104.186698 
L 231.84738 102.32655 
L 232.146485 103.520889 
L 232.442683 101.325897 
L 232.621488 104.510569 
L 233.098793 101.186901 
L 233.415478 103.336814 
L 233.709763 102.218384 
L 233.88957 102.851224 
L 234.067292 102.956564 
L 234.367029 102.256543 
L 234.6041 102.245955 
L 234.902651 101.955732 
L 235.140637 102.111081 
L 235.857715 104.589781 
L 236.273347 101.427665 
L 236.333573 105.016248 
L 236.572076 103.536008 
L 237.047881 103.052371 
L 237.288124 103.969616 
L 237.531894 103.029707 
L 237.823592 105.397431 
L 238.00605 105.777513 
L 238.299994 103.586178 
L 238.597364 102.488398 
L 238.77661 104.663872 
L 239.134652 103.026912 
L 239.372697 100.369752 
L 239.552151 104.112158 
L 239.789444 102.372962 
L 240.027709 102.073545 
L 240.326875 104.083177 
L 240.922656 104.850566 
L 241.101627 102.478889 
L 241.398873 102.520014 
L 241.522233 103.338876 
L 241.819375 102.621331 
L 242.236379 100.069615 
L 242.514649 103.439564 
L 242.742911 102.860341 
L 242.981596 105.061263 
L 243.486682 103.3658 
L 243.724634 105.975841 
L 244.185538 102.862653 
L 244.320755 103.079091 
L 244.443629 102.784491 
L 244.737606 104.877213 
L 244.977052 102.257073 
L 245.215076 105.699875 
L 245.452339 105.735514 
L 245.690888 104.168556 
L 246.10814 99.963727 
L 246.526068 106.304566 
L 246.831502 103.44438 
L 247.003659 100.293099 
L 247.201794 103.444437 
L 247.51363 104.119251 
L 247.779807 104.051108 
L 247.900032 101.936078 
L 248.159594 103.127847 
L 248.437372 105.179642 
L 248.675892 109.433733 
L 248.97305 102.475581 
L 249.153968 103.400964 
L 249.449529 99.393973 
L 249.688709 100.537886 
L 249.986849 106.733709 
L 250.226677 106.085425 
L 250.408571 102.745437 
L 250.643523 104.413129 
L 250.941287 108.978166 
L 251.12024 102.813333 
L 251.420075 101.900302 
L 251.715635 105.004851 
L 251.895612 104.546406 
L 252.133846 106.469343 
L 252.373166 99.261025 
L 252.61276 105.270194 
L 252.848983 102.255528 
L 253.266007 103.457285 
L 253.623993 98.610802 
L 253.685144 106.310173 
L 253.862049 101.14468 
L 254.101068 102.171279 
L 254.339813 105.009521 
L 254.579525 102.049027 
L 254.996386 102.485177 
L 255.117409 104.944491 
L 255.413494 97.988786 
L 255.593472 106.922481 
L 256.187902 102.01768 
L 256.427945 102.828365 
L 256.560043 97.912032 
L 256.842638 101.389113 
L 257.141026 97.030433 
L 257.47073 104.417607 
L 257.71296 104.44869 
L 257.858839 101.055308 
L 258.156046 99.589681 
L 258.27726 103.232578 
L 258.573962 101.322219 
L 258.932141 105.160416 
L 259.305775 105.150129 
L 259.585618 99.428409 
L 259.958559 103.202285 
L 260.069375 102.036305 
L 260.311597 102.428803 
L 260.539032 103.23821 
L 260.777011 110.862096 
L 261.134585 107.310276 
L 261.313649 97.253201 
L 261.730512 102.256245 
L 261.849713 99.643407 
L 262.08821 103.300062 
L 262.268662 97.633395 
L 262.626016 103.665903 
L 263.041677 104.641843 
L 263.282339 109.550018 
L 263.697585 100.562045 
L 263.938425 104.144492 
L 264.174761 94.640191 
L 264.234986 106.658571 
L 264.472623 108.352035 
L 264.771272 105.810645 
L 265.077232 108.221108 
L 265.307641 101.815429 
L 265.546435 103.73613 
L 265.742665 102.398653 
L 266.082314 107.907113 
L 266.320824 97.267187 
L 266.515603 100.359169 
L 266.739585 107.511527 
L 266.99998 103.546144 
L 267.216457 103.758574 
L 267.513446 109.768891 
L 267.870191 110.264708 
L 268.108544 108.210184 
L 268.227945 108.413727 
L 268.644779 103.339249 
L 268.705813 98.993146 
L 268.94321 100.657785 
L 269.3014 104.541892 
L 269.544465 96.305979 
L 269.718624 103.562695 
L 269.957845 106.040669 
L 270.256807 107.837452 
L 270.437325 103.213517 
L 270.672236 102.418644 
L 270.910774 101.106977 
L 271.158142 93.179784 
L 271.447002 102.292735 
L 271.626129 102.942541 
L 271.952264 107.047024 
L 272.202185 102.627102 
L 272.641076 100.845633 
L 273.02046 105.66899 
L 273.296387 106.123284 
L 273.420663 108.088572 
L 273.774441 109.377781 
L 273.896203 99.842642 
L 274.191023 105.46945 
L 274.376601 103.138429 
L 274.795139 104.913555 
L 275.03189 106.58109 
L 275.144896 111.147067 
L 275.573281 98.982985 
L 275.761888 99.05316 
L 275.921854 106.344597 
L 276.103343 103.191897 
L 276.458593 109.425805 
L 276.607304 99.347868 
L 276.93856 110.226944 
L 277.413986 106.734416 
L 277.595144 102.54567 
L 277.890368 103.923289 
L 278.069772 105.993859 
L 278.367738 101.70466 
L 278.606622 101.120728 
L 278.963277 95.562494 
L 279.142913 106.93237 
L 279.439954 99.575948 
L 279.576884 99.181889 
L 279.85674 106.824709 
L 280.039428 102.227126 
L 280.096469 93.50653 
L 280.516543 102.981804 
L 281.051178 94.29293 
L 281.28915 98.895028 
L 281.647132 116.468707 
L 282.071659 92.373241 
L 282.302747 104.13216 
L 282.546147 108.395453 
L 282.839213 102.675685 
L 283.017438 95.175677 
L 283.25907 101.862826 
L 283.673249 102.959433 
L 283.793592 96.978437 
L 284.031596 112.839102 
L 284.275007 99.536421 
L 284.5095 100.733024 
L 284.752226 96.072312 
L 284.99006 100.798824 
L 285.245233 101.747005 
L 285.466918 110.85215 
L 285.883577 104.217455 
L 286.007321 96.947491 
L 286.242187 103.233115 
L 286.480335 99.537058 
L 287.017858 110.941421 
L 287.223582 108.145754 
L 287.437881 90.798368 
L 288.210516 111.379422 
L 288.330445 101.35275 
L 288.448692 111.517298 
L 288.866176 92.932152 
L 288.931568 105.530052 
L 289.208301 104.409585 
L 289.47834 105.872544 
L 289.662649 108.918316 
L 290.177788 93.600219 
L 290.415388 102.452271 
L 290.71376 101.612349 
L 290.952095 104.857742 
L 291.190367 97.135563 
L 291.671872 100.282766 
L 291.907041 97.316732 
L 292.20396 113.381812 
L 292.449387 100.585867 
L 292.68181 99.537346 
L 293.156473 107.938759 
L 293.700043 98.657549 
L 293.930915 98.722189 
L 294.177233 100.423389 
L 294.409185 99.196274 
L 294.590443 103.989992 
L 294.944663 103.711017 
L 295.135127 98.775932 
L 295.421787 100.234145 
L 295.603255 96.196652 
L 295.9127 96.122429 
L 296.078178 111.170449 
L 296.318278 103.462895 
L 296.615521 102.763463 
L 296.853049 94.501406 
L 297.091249 115.504855 
L 297.589362 102.951562 
L 298.344518 113.735999 
L 298.582979 98.67967 
L 298.836988 98.585479 
L 299.062577 98.865592 
L 299.476861 100.950448 
L 299.59614 110.233969 
L 299.894067 96.933205 
L 300.073372 103.614012 
L 300.430426 99.987151 
L 300.609211 113.460123 
L 300.789573 95.245963 
L 301.324136 110.829998 
L 301.527843 106.152609 
L 301.808931 108.886124 
L 302.101924 108.770313 
L 302.399223 98.539984 
L 302.935682 108.943688 
L 303.531415 94.685101 
L 303.82927 106.755296 
L 304.011872 90.254639 
L 304.368095 92.330813 
L 304.544839 104.790534 
L 304.784322 97.079236 
L 304.978837 104.092461 
L 305.264556 103.50327 
L 305.63954 101.90989 
L 305.882858 99.757587 
L 306.050783 93.643528 
L 306.281938 116.156092 
L 306.52071 109.604579 
L 306.822061 104.552772 
L 307.069547 110.443079 
L 307.296361 97.973088 
L 307.438291 107.473073 
L 307.913123 94.697549 
L 307.984626 102.336352 
L 308.272023 100.847576 
L 308.510083 92.419658 
L 308.690816 105.699309 
L 309.046587 117.493548 
L 309.225523 101.425675 
L 309.594396 96.375407 
L 309.764339 100.533322 
L 310.000499 111.153664 
L 310.484559 91.517095 
L 310.71579 101.788888 
L 311.073037 101.825731 
L 311.19545 6.050769 
L 311.551085 22.133083 
L 311.788305 18.757292 
L 312.218591 83.301111 
L 312.562963 76.173087 
L 312.684627 98.870304 
L 312.9217 105.788893 
L 313.220529 101.089767 
L 313.576892 102.314697 
L 313.665403 105.228082 
L 313.999796 108.219517 
L 314.317002 105.564814 
L 314.434846 106.176019 
L 314.678117 104.899734 
L 314.978377 100.844249 
L 315.092839 103.378059 
L 315.393707 101.576786 
L 315.746094 101.248557 
L 316.043358 102.433773 
L 316.162914 101.362979 
L 316.342002 102.474818 
L 316.701739 101.191618 
L 317.177615 101.760316 
L 317.480703 101.551229 
L 317.597678 101.819617 
L 317.89329 101.555545 
L 318.131073 101.850296 
L 318.310946 101.841594 
L 318.607544 101.402636 
L 318.847619 101.841583 
L 319.084819 101.332388 
L 319.323137 101.796487 
L 319.56711 101.830918 
L 319.860878 101.454987 
L 320.100428 101.787348 
L 320.823292 101.843972 
L 321.293303 101.843715 
L 321.531353 101.69072 
L 321.946716 101.716573 
L 322.06656 104.207865 
L 322.552483 101.85618 
L 322.78497 101.649219 
L 323.080899 101.875292 
L 323.437147 101.57906 
L 323.61614 101.228147 
L 323.794863 101.784908 
L 324.034294 101.646697 
L 324.277395 101.649712 
L 324.513571 101.838295 
L 325.225117 101.835316 
L 326.003038 101.834971 
L 326.239318 102.685962 
L 326.478288 101.775195 
L 327.258145 101.731353 
L 327.491149 101.641011 
L 328.265076 101.822961 
L 330.470731 101.83463 
L 330.70821 102.528101 
L 331.007077 101.796964 
L 333.95473 101.762501 
L 334.167664 101.876507 
L 334.883739 101.826676 
L 335.899629 101.841576 
L 336.14417 101.681153 
L 336.974106 101.836762 
L 337.273842 101.727307 
L 337.39286 101.835049 
L 338.40436 101.818566 
L 338.702541 101.738718 
L 338.881253 101.834759 
L 339.119593 101.756067 
L 339.597816 101.828029 
L 340.575359 101.840742 
L 340.848528 101.841897 
L 341.207006 101.730438 
L 341.347144 101.841576 
L 348.248172 101.834218 
L 348.539846 101.580433 
L 349.016348 101.83645 
L 349.31517 101.834746 
L 349.493065 101.667017 
L 349.850363 101.678314 
L 350.030995 101.83827 
L 352.472973 101.798119 
L 353.248533 101.84093 
L 354.213202 101.841562 
L 354.678377 101.71372 
L 358.206185 101.831926 
L 358.737327 101.722664 
L 359.111919 101.840133 
L 359.869895 101.841567 
L 360.933002 101.794291 
L 361.186342 101.677176 
L 361.406259 101.840894 
L 363.328511 101.838452 
L 363.626448 101.634655 
L 364.103379 101.837436 
L 364.413298 101.734032 
L 364.644511 101.841576 
L 367.804571 101.834864 
L 368.22312 101.603434 
L 368.343536 101.826126 
L 368.998031 101.84072 
L 369.295128 101.74251 
L 369.771948 101.839486 
L 371.501745 101.839925 
L 371.917262 101.719416 
L 371.976005 101.347007 
L 372.339281 101.838348 
L 374.308128 101.814916 
L 374.483876 101.622029 
L 374.71872 101.838636 
L 375.258072 101.840331 
L 375.436935 101.68288 
L 376.688598 101.841547 
L 376.986159 101.721866 
L 377.165599 101.841497 
L 385.686971 101.765831 
L 386.104372 101.841295 
L 386.343384 101.739993 
L 386.819553 101.841482 
L 388.549531 101.838572 
L 388.849046 101.603945 
L 389.561207 101.841358 
L 397.612154 101.8334 
L 397.849936 101.706548 
L 398.207536 101.832426 
L 399.937918 101.839993 
L 400.236501 101.636784 
L 400.414156 101.803592 
L 401.189144 101.832442 
L 401.380434 101.73409 
L 401.616401 101.841272 
L 402.624125 101.827695 
L 402.930699 101.686806 
L 403.158482 101.840975 
L 403.635492 101.829638 
L 403.87723 101.64272 
L 404.115449 101.839938 
L 404.946036 101.840878 
L 405.126926 101.55829 
L 405.363704 101.633109 
L 405.602805 101.838373 
L 406.200634 101.818839 
L 406.381176 101.574891 
L 406.61932 101.841536 
L 407.453448 101.787732 
L 407.572535 101.692525 
L 407.811825 101.654158 
L 408.109159 101.838655 
L 409.840021 101.827069 
L 410.079028 101.71448 
L 410.854392 101.841381 
L 411.567632 101.826433 
L 412.455494 101.840284 
L 412.516396 101.737734 
L 413.050851 101.837008 
L 417.109481 101.840846 
L 417.70689 101.764563 
L 418.26425 101.841572 
L 420.208624 101.824369 
L 420.217136 93.248819 
L 420.451773 101.839591 
L 420.987802 101.809547 
L 423.137868 101.83246 
L 423.557486 101.602887 
L 423.612098 101.734854 
L 424.154839 101.839761 
L 427.378792 101.759934 
L 427.610894 101.560103 
L 427.850084 101.841036 
L 428.327134 101.661966 
L 428.886635 101.84148 
L 429.104795 101.840858 
L 429.340464 72.17256 
L 429.580336 91.315136 
L 429.826309 87.015604 
L 430.07847 90.554923 
L 430.310856 99.831977 
L 430.544709 91.082623 
L 430.804049 94.870643 
L 431.13979 94.847209 
L 431.446364 104.790527 
L 431.576843 101.854331 
L 431.861242 100.476347 
L 432.104488 113.051045 
L 432.758986 96.395227 
L 433.300894 111.097204 
L 433.775828 101.472878 
L 434.146395 105.11952 
L 434.307155 113.451845 
L 434.610111 100.682214 
L 434.844965 102.167884 
L 435.083079 105.929089 
L 435.383535 98.948022 
L 435.622967 103.637777 
L 435.930658 93.822815 
L 436.073948 100.382662 
L 436.225225 99.464753 
L 436.490507 105.326843 
L 436.761389 108.278652 
L 437.076662 104.665458 
L 437.242303 104.913058 
L 437.592267 98.515403 
L 437.796536 102.888057 
L 438.010458 90.96502 
L 438.30967 98.345121 
L 438.488055 114.123523 
L 438.726581 105.073018 
L 438.968416 115.49711 
L 439.443402 96.257603 
L 439.800367 106.063726 
L 439.979395 103.844717 
L 440.244468 103.128747 
L 440.459193 115.809451 
L 440.864901 94.419769 
L 441.289808 106.09881 
L 441.520211 104.044327 
L 441.818177 107.589645 
L 441.998523 97.563786 
L 442.176778 100.486837 
L 442.653554 106.075121 
L 442.77542 101.858232 
L 443.012419 100.727484 
L 443.193953 104.346189 
L 443.549056 100.043738 
L 443.674662 104.728141 
L 443.932996 108.59674 
L 444.205819 106.785866 
L 444.444303 100.642013 
L 444.686342 103.485048 
L 444.922292 116.14639 
L 445.165244 104.794094 
L 445.400212 111.701437 
L 445.638947 102.264365 
L 446.121179 95.962349 
L 446.42015 107.782174 
L 446.608079 100.882218 
L 446.897603 95.970875 
L 447.135537 95.784896 
L 447.375001 106.440854 
L 447.791156 104.061942 
L 447.878933 101.199497 
L 448.149862 109.33726 
L 448.446882 100.226684 
L 448.744754 102.428812 
L 448.924902 95.940173 
L 449.163332 98.791681 
L 449.408715 105.697418 
L 449.641465 104.084801 
L 449.822006 103.694915 
L 450.06017 110.910742 
L 450.309528 111.351901 
L 450.847658 98.750372 
L 451.080911 98.119273 
L 451.452495 101.861624 
L 451.615615 101.614482 
L 451.672414 107.928768 
L 451.792131 102.738879 
L 452.117179 101.209827 
L 452.328014 93.749772 
L 452.748418 105.138251 
L 452.82994 95.817951 
L 453.054681 97.633324 
L 453.283539 115.93201 
L 453.522666 94.807849 
L 453.944147 98.02037 
L 454.13356 103.764441 
L 454.369832 90.099683 
L 454.549718 100.772944 
L 454.966846 111.597647 
L 455.027506 99.712626 
L 455.445457 116.780181 
L 455.683769 103.786291 
L 455.745298 106.319195 
L 456.159059 99.273529 
L 456.278547 93.621223 
L 456.75555 106.057237 
L 457.172693 101.396827 
L 457.292087 103.054004 
L 457.531124 98.344793 
L 457.775342 103.535446 
L 457.829611 99.931286 
L 458.009795 102.281899 
L 458.247206 93.173046 
L 458.488359 103.144505 
L 458.784161 94.980538 
L 458.96401 101.864065 
L 459.283695 100.224895 
L 459.443945 98.168412 
L 459.98048 105.009875 
L 460.222824 103.877873 
L 460.518672 101.381575 
L 460.937173 88.606732 
L 461.235456 109.062618 
L 461.421949 101.512234 
L 461.978564 107.469292 
L 462.192837 92.32226 
L 462.451098 99.272177 
L 462.906155 98.019373 
L 463.153516 110.413886 
L 463.45249 100.737539 
L 463.693601 100.023603 
L 463.992165 89.438649 
L 464.22673 104.649148 
L 464.466432 97.293832 
L 464.645998 101.127789 
L 464.944221 114.20377 
L 465.182046 105.025189 
L 465.57985 101.545578 
L 465.72724 104.377116 
L 465.903858 111.009522 
L 466.294515 105.482133 
L 466.437069 97.801336 
L 466.743978 105.314235 
L 466.914 95.143462 
L 467.162295 105.20943 
L 467.632233 100.353644 
L 467.876184 99.782868 
L 468.111147 101.000499 
L 468.418202 100.6377 
L 468.66595 101.782807 
L 468.889531 89.363542 
L 469.126551 105.640391 
L 469.664827 91.185887 
L 469.848036 112.821003 
L 470.144533 103.854994 
L 470.439598 100.815372 
L 470.618999 102.137935 
L 471.036889 101.817567 
L 471.383048 109.958537 
L 471.851009 90.34872 
L 472.153076 107.482244 
L 472.33768 98.849282 
L 472.62824 102.30062 
L 472.93264 107.52429 
L 473.108466 108.583933 
L 473.298355 95.083166 
L 473.584398 103.190214 
L 473.823272 113.999354 
L 474.062142 102.931999 
L 474.299874 100.441499 
L 474.538745 103.51731 
L 474.778274 95.617562 
L 475.19527 98.780778 
L 475.344405 104.305316 
L 475.732758 99.55348 
L 475.85164 108.673857 
L 476.090216 103.333926 
L 476.328674 112.59218 
L 476.626339 102.525431 
L 476.758551 102.717063 
L 477.018033 105.684812 
L 477.28805 100.423299 
L 477.58304 103.593607 
L 477.781686 99.319498 
L 478.001463 105.69555 
L 478.242149 91.851929 
L 478.62196 100.994005 
L 478.780067 96.984693 
L 479.283673 109.204322 
L 479.79998 95.638947 
L 480.284395 101.873197 
L 480.522922 101.220413 
L 480.77897 99.316013 
L 481.069852 100.893283 
L 481.191436 104.12614 
L 481.483689 102.526821 
L 481.78199 92.471828 
L 482.080086 102.794059 
L 482.1996 101.655465 
L 482.743917 101.983913 
L 482.991715 98.46409 
L 483.213697 98.973128 
L 483.453535 100.00855 
L 483.751633 96.912597 
L 483.990168 101.595572 
L 484.230791 98.665722 
L 484.46614 100.244267 
L 484.704511 106.33392 
L 485.189327 98.436508 
L 485.423172 101.87532 
L 485.660061 101.241858 
L 486.020267 104.58049 
L 486.43815 103.509471 
L 486.734525 108.419215 
L 487.270989 90.980475 
L 487.523132 102.527073 
L 487.689584 98.364826 
L 487.987903 103.485161 
L 488.225708 94.688597 
L 488.464203 100.471414 
L 488.666665 98.990287 
L 488.882564 110.420743 
L 489.184431 111.525552 
L 489.477386 103.695835 
L 489.724165 102.27406 
L 489.896099 108.356493 
L 490.137018 93.190643 
L 490.373157 98.547739 
L 490.688617 101.655561 
L 490.867597 100.515908 
L 491.10574 106.510175 
L 491.643802 99.669382 
L 491.941622 95.175583 
L 492.124022 100.24868 
L 492.36345 101.878034 
L 492.597116 101.877655 
L 493.075454 90.647097 
L 493.374374 105.940742 
L 493.670875 99.720832 
L 493.849424 102.286107 
L 494.152207 110.401307 
L 494.390149 100.076515 
L 494.626975 98.716969 
L 494.913893 100.202515 
L 495.10486 99.369315 
L 495.310243 99.247956 
L 495.585621 101.069615 
L 495.930103 108.998691 
L 496.127697 95.191966 
L 496.604465 106.990684 
L 496.843397 88.574874 
L 497.082376 105.781567 
L 497.320226 100.267412 
L 497.559184 101.132228 
L 497.800421 109.926828 
L 498.0963 105.216579 
L 498.275995 92.22678 
L 498.592016 103.380996 
L 498.633094 101.426024 
L 499.113143 95.431262 
L 499.408767 100.841826 
L 499.587207 95.440926 
L 500.067861 104.67191 
L 500.125664 104.447872 
L 500.303931 91.582835 
L 500.548617 101.232934 
L 500.741416 101.814765 
L 501.034094 101.881766 
L 501.258723 112.649283 
L 501.498306 105.483692 
L 501.855368 99.529106 
L 502.034219 100.255619 
L 502.2127 88.720656 
L 502.690382 105.009307 
L 503.052299 104.880807 
L 503.294519 100.372697 
L 503.530772 104.111899 
L 503.765062 101.245424 
L 504.003081 103.816701 
L 504.248856 109.562834 
L 504.72957 98.832415 
L 504.97612 102.161959 
L 505.214185 96.556901 
L 505.690844 105.057237 
L 505.988706 96.533467 
L 506.173171 108.273647 
L 506.769904 91.797647 
L 507.002672 95.707074 
L 507.258181 104.965841 
L 507.481325 108.72041 
L 507.90479 91.456157 
L 507.957542 105.961679 
L 508.195982 93.565239 
L 508.674459 100.490434 
L 508.915089 110.837465 
L 509.409954 100.694252 
L 509.71457 101.458497 
L 509.928742 98.195187 
L 510.185388 97.669071 
L 510.406532 104.598129 
L 510.64574 104.642065 
L 510.885481 96.795331 
L 511.197476 99.136072 
L 511.601893 99.723025 
L 511.663163 102.605109 
L 511.898376 99.510629 
L 512.381183 100.334686 
L 512.554351 101.626721 
L 512.685981 95.012502 
L 512.87333 108.914106 
L 513.230682 88.537319 
L 513.672985 104.065577 
L 513.901251 102.270068 
L 514.140393 98.953781 
L 514.383055 100.068062 
L 514.745325 95.236235 
L 514.905024 101.885455 
L 515.142341 105.830648 
L 515.499323 101.762814 
L 515.685495 109.327476 
L 515.861014 102.844376 
L 516.155981 114.67309 
L 516.463302 96.857116 
L 516.635936 95.260679 
L 516.93452 99.773585 
L 517.112914 99.784541 
L 517.371262 102.826093 
L 517.708079 110.491559 
L 517.842853 100.164275 
L 518.124584 121.741563 
L 518.422412 113.409723 
L 518.604712 113.05288 
L 518.842277 116.729641 
L 519.098015 117.219919 
L 519.377883 111.061334 
L 519.620513 108.671111 
L 519.856493 110.467 
L 520.100055 101.737741 
L 520.34655 105.436612 
L 520.633562 99.874785 
L 521.249435 100.438046 
L 521.480639 101.459753 
L 521.826523 101.473224 
L 522.113847 101.778549 
L 522.83987 102.004172 
L 522.899613 101.850945 
L 523.38624 101.861238 
L 523.675539 101.997229 
L 523.797001 101.768168 
L 524.873326 102.02511 
L 524.991469 101.841576 
L 525.893898 101.851704 
L 526.488608 101.857465 
L 526.912763 101.84905 
L 527.149513 101.732106 
L 527.267752 100.69794 
L 527.516229 101.993861 
L 528.050959 102.171215 
L 528.230487 101.904841 
L 528.647266 101.896664 
L 528.888465 101.674476 
L 529.24494 102.064038 
L 529.422519 101.813963 
L 529.603934 101.807585 
L 529.865493 102.298232 
L 529.983931 101.840559 
L 530.922508 101.775294 
L 531.218622 101.089234 
L 531.452962 102.483038 
L 531.707152 101.841604 
L 531.929266 101.83483 
L 532.227841 102.19283 
L 532.433816 102.009973 
L 532.703208 101.982642 
L 533.011374 101.761606 
L 533.24299 101.896369 
L 535.22463 101.814297 
L 536.415313 101.861695 
L 538.376449 101.844556 
L 538.619348 101.948064 
L 539.160758 101.842248 
L 589.923923 101.841576 
L 594.485625 101.841576 
L 594.485625 101.841576 
" clip-path="url(#pa675664fb9)" style="fill: none; stroke: #0000ff; stroke-opacity: 0.5; stroke-width: 1.5; stroke-linecap: square"/>
   </g>
   <g id="line2d_34">
    <path d="M 36.485625 194.703849 
L 36.605729 199.106731 
L 36.848616 192.508317 
L 36.919813 197.205981 
L 37.093829 196.206264 
L 37.399873 192.646716 
L 37.690409 195.492406 
L 37.868695 192.838991 
L 38.285603 195.070425 
L 38.524659 194.172637 
L 38.584358 190.827894 
L 39.239972 192.382485 
L 39.359627 191.760915 
L 39.54201 192.012752 
L 40.016219 191.052126 
L 40.074315 192.498087 
L 40.312395 194.723932 
L 40.611684 192.966649 
L 40.910868 194.304267 
L 41.146907 198.284764 
L 41.46053 191.009362 
L 41.564711 195.416168 
L 41.802696 192.67487 
L 42.043258 197.958222 
L 42.582165 193.457778 
L 42.81686 192.558477 
L 43.055043 195.813196 
L 43.353861 195.98176 
L 43.652797 191.84013 
L 43.839825 192.536313 
L 44.157609 191.964858 
L 44.3117 197.559931 
L 44.549862 191.598321 
L 44.788584 195.220153 
L 45.207569 190.698251 
L 45.388319 193.229295 
L 45.504186 189.689734 
L 45.748993 189.41766 
L 45.986305 191.338534 
L 46.226978 189.532686 
L 46.519725 191.010864 
L 47.123503 188.488679 
L 48.424625 188.445527 
L 49.729609 193.515095 
L 51.033761 196.771786 
L 52.339425 194.515059 
L 53.643933 189.786793 
L 55.068217 188.159838 
L 56.491422 192.835011 
L 57.796606 194.208258 
L 57.93721 192.580381 
L 58.413131 196.526281 
L 58.651967 196.363505 
L 58.949003 194.916627 
L 59.248704 197.156 
L 59.428114 191.776457 
L 59.664718 189.304646 
L 59.848945 198.819562 
L 60.386813 194.156255 
L 60.621787 199.019265 
L 61.098982 186.781424 
L 61.635744 197.4807 
L 61.829503 196.340215 
L 62.113787 195.664783 
L 62.708393 189.569465 
L 62.827573 196.367619 
L 63.066589 190.360454 
L 63.306647 190.28657 
L 63.619021 195.388086 
L 64.091325 187.854239 
L 64.379638 193.594281 
L 64.859414 189.633759 
L 64.917341 193.773677 
L 65.09556 194.933012 
L 65.397189 187.594451 
L 65.571699 190.07348 
L 65.81199 197.503874 
L 66.108117 199.223146 
L 66.406238 197.816861 
L 66.585341 194.80475 
L 66.766484 195.083155 
L 67.00281 197.842931 
L 67.599703 189.836718 
L 67.838329 197.593107 
L 68.078464 201.012438 
L 68.506161 187.068689 
L 68.800657 193.883228 
L 69.275493 190.857285 
L 69.39602 186.406003 
L 69.572392 191.824403 
L 70.053049 193.990008 
L 70.347583 192.579913 
L 70.58763 185.842062 
L 70.765448 189.327445 
L 71.424823 196.474301 
L 71.720085 196.686827 
L 71.779045 194.045487 
L 72.017668 192.384005 
L 72.256237 192.630166 
L 72.49519 190.386203 
L 72.792589 191.144008 
L 73.090373 198.580289 
L 73.332851 195.280031 
L 73.517514 189.770971 
L 73.699545 188.903321 
L 73.746613 189.553445 
L 73.985863 189.533652 
L 74.282584 195.256521 
L 74.462072 195.134219 
L 74.762649 193.582246 
L 74.997681 199.009128 
L 75.475803 187.456245 
L 75.713935 195.060288 
L 76.011221 200.327177 
L 76.191146 195.356396 
L 76.726973 190.867329 
L 76.967092 190.120379 
L 77.204207 192.322509 
L 77.444002 188.920042 
L 77.919313 197.83794 
L 78.470002 182.035846 
L 78.933667 192.018987 
L 79.175578 188.082928 
L 79.648466 188.694596 
L 79.768131 195.129559 
L 79.895911 194.679273 
L 80.134035 185.940612 
L 80.42384 188.631109 
L 80.603498 195.675859 
L 80.842219 193.539275 
L 81.198559 187.639711 
L 81.377212 192.097358 
L 81.615307 202.10176 
L 81.855426 200.341287 
L 82.092669 191.184574 
L 82.39383 192.306041 
L 82.688964 198.21613 
L 83.3441 187.844641 
L 83.582816 190.406532 
L 83.821585 190.251211 
L 84.190701 190.674497 
L 84.714824 197.914263 
L 85.073455 186.977795 
L 85.311854 189.715836 
L 85.848638 200.886378 
L 86.086321 197.843567 
L 86.569578 188.535385 
L 86.983033 189.204156 
L 87.101043 188.444641 
L 87.519245 188.603502 
L 87.995244 196.733202 
L 88.064024 193.905119 
L 88.65086 191.917439 
L 89.246597 193.376728 
L 89.664175 194.7947 
L 90.02138 192.259618 
L 90.31896 192.786291 
L 90.497696 195.653532 
L 90.736981 197.447539 
L 90.974077 197.203356 
L 91.272627 193.505828 
L 91.472566 189.401169 
L 91.809097 187.217939 
L 91.98768 193.566449 
L 92.288141 199.257216 
L 92.824927 184.983684 
L 93.002269 184.962649 
L 93.240309 189.066166 
L 93.481765 191.045561 
L 94.04717 192.781017 
L 94.436874 194.714349 
L 94.555912 192.14922 
L 94.677562 183.521987 
L 95.268864 197.380237 
L 95.762725 186.471972 
L 96.046295 186.588104 
L 96.185544 194.262482 
L 96.461763 200.630789 
L 97.00841 191.190869 
L 97.308265 197.185945 
L 97.564473 197.581967 
L 97.778477 193.153895 
L 98.373813 191.197701 
L 98.509057 200.723305 
L 99.851213 200.162726 
L 101.148454 197.957075 
L 102.577174 196.25836 
L 102.656372 206.817239 
L 102.836123 209.234671 
L 103.436924 195.188309 
L 103.670695 186.755697 
L 104.049032 182.706967 
L 104.28823 187.274903 
L 104.409622 197.684619 
L 104.838306 205.951934 
L 105.847787 189.423212 
L 106.147346 195.604022 
L 106.330619 203.680714 
L 106.623285 207.399813 
L 106.885546 202.182086 
L 107.100707 191.942792 
L 107.579085 181.666309 
L 108.175073 203.20239 
L 108.358601 210.498864 
L 108.537017 209.381953 
L 109.034907 193.103714 
L 109.273782 192.489475 
L 109.559831 198.377192 
L 109.79482 199.69438 
L 110.032541 195.370086 
L 110.272331 187.826449 
L 110.513388 184.262366 
L 110.775379 187.978082 
L 111.307948 193.580118 
L 111.523956 198.341374 
L 111.771097 194.131946 
L 112.076169 192.398238 
L 112.523356 205.073051 
L 112.865876 204.881804 
L 113.296632 188.004017 
L 113.919911 184.425186 
L 114.198889 199.290576 
L 114.286662 201.732642 
L 114.458603 197.313591 
L 114.765718 195.707321 
L 115.113708 195.24162 
L 115.232216 194.47395 
L 115.470555 194.9292 
L 115.708908 196.823192 
L 116.006951 196.878079 
L 116.189068 195.881376 
L 116.433283 190.398022 
L 116.739159 186.932833 
L 117.272311 186.923253 
L 117.50629 183.477935 
L 117.804006 182.030487 
L 117.927991 186.834739 
L 118.281424 193.393989 
L 118.589319 190.654385 
L 118.698716 179.476304 
L 118.905913 175.946873 
L 119.416198 189.268633 
L 119.89508 181.049379 
L 120.132627 182.36039 
L 120.607608 182.468024 
L 120.673338 180.510529 
L 120.918775 187.604363 
L 121.143734 199.206852 
L 121.572123 205.821904 
L 121.680293 198.352695 
L 121.97824 196.268673 
L 122.156841 201.871442 
L 122.338503 204.079931 
L 122.633041 203.313979 
L 122.931947 205.081564 
L 123.112903 207.893987 
L 123.410044 204.634901 
L 123.840414 190.840518 
L 124.130534 193.713183 
L 124.373709 198.507536 
L 124.61048 197.775309 
L 124.843502 195.84482 
L 125.08391 198.608768 
L 125.380286 200.570401 
L 125.737968 198.212811 
L 125.857207 194.287017 
L 126.095472 190.859066 
L 126.45342 190.937996 
L 126.573014 191.614315 
L 126.811063 191.954843 
L 127.110284 191.898435 
L 127.406437 192.007267 
L 127.704109 191.193764 
L 127.826825 189.725036 
L 128.063778 192.32091 
L 128.539811 199.713664 
L 128.777895 200.049525 
L 129.373185 195.00115 
L 129.553373 194.883667 
L 129.792734 194.5361 
L 131.063235 182.043499 
L 131.251947 184.129656 
L 131.582704 189.676244 
L 132.031255 180.450947 
L 132.256702 186.262565 
L 132.494485 195.735729 
L 132.735349 199.358052 
L 132.970982 190.658816 
L 133.282612 184.730725 
L 133.745157 195.723718 
L 134.04441 193.768839 
L 134.282727 191.347007 
L 134.520459 195.244824 
L 134.880221 199.005425 
L 135.127508 195.040974 
L 135.478912 183.865912 
L 136.014456 190.637176 
L 136.445568 184.663984 
L 136.804332 186.773049 
L 137.023543 189.995642 
L 137.324092 190.423007 
L 137.501307 191.942644 
L 137.979267 194.518165 
L 138.216943 194.422239 
L 138.458769 192.833908 
L 138.709936 195.500228 
L 139.174866 206.426672 
L 139.666397 200.994875 
L 139.726043 190.459072 
L 139.907001 183.433893 
L 140.203129 185.916225 
L 140.680919 201.977972 
L 140.918196 202.482691 
L 141.640418 183.22671 
L 142.111547 189.085578 
L 142.408857 196.666163 
L 142.647833 193.187829 
L 143.130059 182.415991 
L 143.362188 184.915962 
L 144.025656 204.628892 
L 144.136522 203.885036 
L 144.679228 189.641599 
L 145.096572 200.301463 
L 145.389814 200.433563 
L 145.865182 192.11506 
L 146.282367 189.402385 
L 146.401632 191.435203 
L 146.581229 196.887593 
L 147.058825 197.239808 
L 147.356143 194.881849 
L 147.596061 196.457764 
L 148.012585 201.707029 
L 148.072506 204.999512 
L 148.429393 201.325283 
L 148.548784 191.959892 
L 148.905922 186.172115 
L 149.336696 192.219999 
L 149.685812 200.283881 
L 150.096288 188.198946 
L 150.334615 186.799208 
L 150.814924 193.5579 
L 150.871394 197.443472 
L 151.171378 201.824388 
L 151.528493 189.660645 
L 151.903209 185.878376 
L 152.302063 202.823396 
L 152.600069 203.447657 
L 153.016832 189.413737 
L 153.316267 182.614544 
L 153.555591 183.080681 
L 153.914702 190.079765 
L 154.037374 196.216742 
L 154.271683 193.907524 
L 154.807508 173.43863 
L 155.045747 173.216586 
L 155.703087 200.324817 
L 156.058623 203.340255 
L 156.476781 195.730993 
L 156.715763 189.279962 
L 157.489683 208.23118 
L 157.792182 204.603828 
L 158.205585 183.971825 
L 158.62199 179.69866 
L 158.984999 196.358676 
L 159.218813 199.182236 
L 159.947648 178.297501 
L 160.177803 180.294094 
L 160.711241 194.939853 
L 160.952937 193.330739 
L 161.432319 176.217052 
L 161.665367 178.344585 
L 162.153514 198.409038 
L 162.380064 198.027449 
L 162.738812 194.30369 
L 162.975793 193.426124 
L 163.215389 196.170388 
L 163.632352 206.786226 
L 163.871859 205.514581 
L 164.109494 200.952688 
L 164.465389 197.191984 
L 164.644037 200.01723 
L 164.882303 206.322336 
L 165.180643 205.625259 
L 165.718375 189.916758 
L 165.897363 190.088867 
L 166.135321 189.880391 
L 166.37424 190.301921 
L 166.615772 189.030857 
L 166.850521 187.155224 
L 167.148291 187.391854 
L 167.512148 189.197823 
L 167.684001 191.895339 
L 167.864395 192.322498 
L 168.342035 188.438531 
L 168.820781 193.373803 
L 169.241092 192.839297 
L 169.41493 191.231673 
L 170.129681 189.979253 
L 170.369075 189.807962 
L 170.552688 194.007218 
L 170.818259 196.621518 
L 171.32208 189.243192 
L 171.690201 193.761827 
L 171.800582 199.998982 
L 172.141121 196.569439 
L 172.2974 186.355849 
L 172.518596 185.674879 
L 173.056747 196.122224 
L 173.293355 188.923093 
L 173.531322 185.204512 
L 174.068495 195.225995 
L 174.562514 186.931861 
L 175.032436 198.588139 
L 175.738525 187.367438 
L 176.093963 191.736678 
L 176.335069 196.705137 
L 176.51159 197.368909 
L 177.005172 196.7301 
L 177.524929 181.631722 
L 177.942611 178.688827 
L 178.317495 193.210226 
L 178.537536 191.175734 
L 178.747765 181.806177 
L 178.986939 177.890407 
L 179.458465 188.948925 
L 179.699588 190.637818 
L 179.935011 189.94672 
L 180.29467 194.194628 
L 180.650953 194.459055 
L 180.954996 188.26557 
L 181.193029 187.794583 
L 181.451036 186.745353 
L 181.688837 186.623203 
L 181.991048 190.044891 
L 182.225882 194.229163 
L 182.463654 194.49767 
L 182.849475 189.837529 
L 182.944823 187.006424 
L 183.197118 190.294151 
L 183.439025 197.856523 
L 183.776533 202.483438 
L 184.193551 188.2277 
L 184.432908 186.891979 
L 184.909025 201.808669 
L 185.166238 201.471069 
L 185.50451 197.336135 
L 185.922103 195.766563 
L 186.219875 193.593537 
L 186.458411 193.159636 
L 186.637233 193.874766 
L 186.874914 192.90336 
L 187.113887 193.128366 
L 187.591181 194.510686 
L 187.82849 197.506749 
L 187.947739 195.58051 
L 188.366172 179.842992 
L 188.662598 184.091832 
L 188.852248 191.505406 
L 189.140414 191.035057 
L 189.622635 173.559299 
L 189.929679 170.427154 
L 190.339292 190.043955 
L 190.577838 200.866058 
L 190.817832 203.324964 
L 191.055478 195.897423 
L 191.298273 192.692595 
L 191.888639 205.230884 
L 192.424037 198.671585 
L 192.604236 197.926653 
L 192.902267 196.21058 
L 193.142547 190.051825 
L 193.437487 186.576609 
L 193.557055 191.836116 
L 193.795541 193.684333 
L 194.033574 186.516379 
L 194.331086 187.65259 
L 194.515006 197.939424 
L 194.807728 198.959786 
L 195.285557 183.499405 
L 195.765938 191.124473 
L 196.004034 187.166848 
L 196.261098 187.432089 
L 196.597791 195.607484 
L 196.840558 191.04506 
L 197.018771 181.800154 
L 197.311735 185.786426 
L 197.609979 192.761938 
L 197.738093 190.541761 
L 198.020219 182.650178 
L 198.271311 184.207027 
L 198.505886 193.320247 
L 198.746233 194.456403 
L 199.006718 184.533875 
L 199.235576 183.100133 
L 199.584874 189.555363 
L 199.764665 190.136941 
L 200.003185 187.019456 
L 200.241264 185.903615 
L 200.598158 187.424057 
L 200.717485 189.281265 
L 200.959881 189.455649 
L 201.254256 187.618613 
L 201.551429 187.662594 
L 201.730152 186.940611 
L 201.969086 187.270925 
L 202.330319 187.452154 
L 202.445537 188.219899 
L 202.802534 189.806158 
L 203.042368 189.239001 
L 203.162821 183.830544 
L 203.457978 175.727903 
L 203.705861 176.053013 
L 204.174847 186.815078 
L 204.43516 189.705023 
L 204.771202 181.040371 
L 205.068867 184.672295 
L 205.426082 197.402778 
L 205.665087 198.017347 
L 205.905729 196.713066 
L 206.201598 198.413911 
L 206.560969 198.100468 
L 206.688673 195.471019 
L 206.918016 194.209106 
L 207.155635 195.986473 
L 207.583756 196.670205 
L 207.813633 194.296937 
L 207.93313 189.72711 
L 208.172406 191.102871 
L 208.408495 196.027417 
L 208.886187 199.172062 
L 209.123206 202.404206 
L 209.36141 204.035245 
L 209.857532 193.070521 
L 210.316125 193.880911 
L 210.37655 200.258414 
L 210.613966 206.436004 
L 210.85293 207.785239 
L 211.151101 200.112973 
L 211.627365 183.234009 
L 211.807551 187.659518 
L 212.583142 210.564308 
L 212.820625 210.2491 
L 213.537554 194.852646 
L 213.83414 196.995411 
L 214.072479 203.987009 
L 214.371917 206.643832 
L 214.562822 200.463399 
L 215.085769 179.080959 
L 215.383337 175.357017 
L 215.622447 179.400213 
L 215.860586 187.589412 
L 216.277705 207.674243 
L 216.759786 212.865392 
L 217.248844 215.153471 
L 217.290492 216.795672 
L 217.534211 217.644445 
L 217.648675 214.751789 
L 218.605953 186.281895 
L 219.145579 178.10399 
L 219.498308 165.089517 
L 219.976033 164.714586 
L 220.98946 197.081151 
L 221.231289 195.142141 
L 221.714863 190.803403 
L 222.031025 191.070023 
L 222.243992 188.741429 
L 222.95943 175.565916 
L 223.257168 173.487738 
L 223.496769 172.871292 
L 223.733843 172.636707 
L 223.971601 169.398333 
L 224.20963 168.03256 
L 224.508353 171.22476 
L 225.462052 214.311376 
L 225.700205 217.231377 
L 225.939709 216.068241 
L 226.176963 213.800172 
L 226.474745 213.796857 
L 226.713764 213.229798 
L 227.194519 206.18628 
L 227.490434 203.564202 
L 227.849472 203.428411 
L 228.155881 197.623804 
L 228.688752 193.803876 
L 228.927913 194.794544 
L 229.225176 196.642224 
L 229.612959 202.078912 
L 229.646531 204.744681 
L 230.119638 205.920564 
L 230.29887 206.062669 
L 230.417322 207.916976 
L 231.191264 217.099438 
L 231.370697 214.880317 
L 231.609475 214.485064 
L 231.84738 215.546136 
L 232.146485 217.548923 
L 232.442683 217.123157 
L 232.621488 214.645342 
L 232.86029 209.439921 
L 233.415478 193.332858 
L 233.709763 189.852911 
L 234.6041 205.743558 
L 235.857715 220.100297 
L 236.273347 224.645492 
L 237.288124 192.418458 
L 237.531894 191.119666 
L 238.299994 194.816207 
L 238.597364 191.378475 
L 238.77661 191.413049 
L 239.134652 191.95623 
L 239.789444 195.931256 
L 240.027709 196.000212 
L 240.326875 197.021605 
L 240.624558 200.51593 
L 241.101627 210.583248 
L 241.398873 209.993382 
L 241.522233 211.028715 
L 242.236379 220.376589 
L 242.514649 218.511584 
L 242.742911 215.761392 
L 243.486682 200.109816 
L 243.724634 197.963885 
L 244.185538 199.18906 
L 244.320755 199.017296 
L 244.443629 201.094876 
L 244.737606 204.158097 
L 244.977052 208.772723 
L 245.215076 209.696919 
L 245.452339 209.701993 
L 245.690888 210.268231 
L 246.10814 208.928763 
L 246.34651 210.252419 
L 246.526068 215.724281 
L 246.831502 217.965093 
L 247.003659 213.051085 
L 247.51363 192.075748 
L 247.900032 180.723233 
L 248.159594 181.765038 
L 248.675892 200.663599 
L 248.97305 203.727475 
L 249.153968 203.492412 
L 249.449529 205.015901 
L 249.688709 207.229778 
L 249.986849 207.107317 
L 250.408571 204.206362 
L 251.12024 195.143428 
L 251.420075 193.453923 
L 251.715635 188.817666 
L 251.895612 182.100635 
L 252.133846 178.668181 
L 252.373166 177.494933 
L 252.61276 179.56387 
L 252.848983 177.583669 
L 253.266007 175.984305 
L 253.623993 172.304114 
L 253.685144 167.431715 
L 253.862049 164.158209 
L 254.101068 166.966282 
L 254.579525 185.467336 
L 254.996386 196.383116 
L 255.117409 207.560605 
L 255.830863 231.24611 
L 256.187902 228.331943 
L 256.427945 222.366173 
L 256.560043 215.930375 
L 256.842638 210.924981 
L 257.858839 203.683429 
L 258.156046 203.958004 
L 258.573962 216.324799 
L 258.932141 221.45689 
L 259.305775 222.441713 
L 259.47288 219.434686 
L 259.585618 215.227229 
L 260.069375 211.364795 
L 260.539032 214.479589 
L 260.777011 214.299481 
L 261.134585 210.18655 
L 261.313649 205.177597 
L 261.730512 204.692434 
L 261.849713 210.80098 
L 262.268662 219.651459 
L 262.626016 217.933139 
L 262.864774 211.676133 
L 263.282339 195.499565 
L 263.697585 195.898481 
L 264.174761 214.455723 
L 264.234986 219.207182 
L 264.472623 220.622244 
L 264.771272 221.657777 
L 265.077232 217.969702 
L 265.546435 209.116677 
L 266.082314 215.292424 
L 266.320824 216.080939 
L 266.515603 213.489404 
L 267.216457 188.36207 
L 267.513446 186.477763 
L 267.870191 191.314689 
L 268.227945 207.308886 
L 268.705813 209.821058 
L 268.94321 207.963671 
L 269.3014 208.455338 
L 269.544465 209.094308 
L 269.718624 210.063096 
L 269.957845 207.970612 
L 270.256807 202.7813 
L 270.672236 189.0302 
L 270.910774 186.473789 
L 271.158142 187.838 
L 271.447002 187.815514 
L 271.626129 188.605872 
L 271.952264 188.583216 
L 272.202185 188.80151 
L 272.641076 190.11463 
L 272.828374 192.306793 
L 273.02046 192.866936 
L 273.296387 192.262397 
L 273.420663 191.327365 
L 273.774441 192.368154 
L 273.896203 197.15513 
L 274.376601 207.690504 
L 275.03189 211.938214 
L 275.144896 210.504256 
L 275.573281 208.631037 
L 275.761888 205.077352 
L 276.103343 192.876709 
L 276.607304 187.958254 
L 276.93856 191.655469 
L 277.890368 209.562714 
L 278.069772 211.267321 
L 278.367738 210.125224 
L 279.439954 195.24688 
L 279.85674 204.398308 
L 280.811247 243.541302 
L 281.051178 247.560575 
L 281.28915 245.312639 
L 282.302747 227.625583 
L 282.546147 225.099246 
L 282.839213 219.222304 
L 283.25907 203.839661 
L 283.673249 201.033759 
L 284.275007 217.814601 
L 284.5095 220.683826 
L 284.752226 226.254497 
L 284.99006 228.004505 
L 285.245233 228.151453 
L 285.466918 225.316585 
L 285.825402 224.455845 
L 285.883577 223.393371 
L 286.480335 232.214123 
L 286.719032 227.280747 
L 287.017858 217.2607 
L 287.437881 200.454804 
L 287.79396 201.824403 
L 288.210516 209.846876 
L 288.448692 228.098729 
L 288.866176 231.234955 
L 288.931568 232.579206 
L 289.208301 235.634435 
L 289.47834 236.400116 
L 289.662649 236.065678 
L 290.117463 230.27867 
L 290.177788 222.271921 
L 290.415388 214.960287 
L 290.71376 213.819527 
L 290.952095 211.96672 
L 291.671872 192.443885 
L 291.907041 194.911932 
L 292.20396 200.957245 
L 292.861131 233.838836 
L 293.156473 234.744295 
L 293.395513 234.386081 
L 293.700043 235.001102 
L 293.930915 234.134105 
L 294.177233 234.236524 
L 294.590443 235.848551 
L 294.944663 234.391324 
L 295.135127 229.79986 
L 295.421787 226.271767 
L 295.603255 219.215553 
L 296.078178 208.886007 
L 296.318278 212.715095 
L 296.853049 228.793921 
L 297.091249 229.377668 
L 297.589362 220.897657 
L 297.810027 209.714561 
L 298.165587 209.585496 
L 298.836988 226.343679 
L 299.476861 214.227215 
L 299.59614 207.757043 
L 300.073372 203.300903 
L 300.430426 205.01367 
L 301.026699 215.91656 
L 301.324136 220.533758 
L 301.808931 233.94913 
L 302.101924 239.371016 
L 302.399223 242.732246 
L 302.578485 246.26673 
L 302.935682 244.3877 
L 303.235044 238.927023 
L 303.293543 233.664616 
L 303.531415 231.055351 
L 303.82927 225.572938 
L 304.011872 219.843586 
L 304.544839 217.0417 
L 304.784322 217.084457 
L 304.978837 216.327773 
L 305.264556 218.256857 
L 305.63954 215.885921 
L 306.281938 198.418368 
L 306.52071 200.017096 
L 306.822061 203.833199 
L 307.296361 214.69379 
L 307.438291 222.987152 
L 307.913123 233.167612 
L 307.984626 246.754681 
L 308.510083 264.217464 
L 308.690816 261.505899 
L 309.046587 251.751428 
L 309.225523 239.10267 
L 309.764339 216.102041 
L 310.000499 206.168665 
L 310.358131 196.97534 
L 310.71579 177.311706 
L 311.073037 169.161152 
L 311.19545 162.540003 
L 311.551085 152.63298 
L 312.218591 111.093217 
L 313.220529 82.405548 
L 313.576892 80.120551 
L 313.999796 95.190849 
L 314.317002 117.719828 
L 314.434846 139.448769 
L 314.678117 159.115955 
L 315.092839 174.772165 
L 315.746094 192.560521 
L 316.043358 201.90737 
L 316.342002 218.219731 
L 316.941898 225.822613 
L 317.480703 233.96539 
L 317.597678 237.75722 
L 317.89329 237.267127 
L 318.131073 235.268359 
L 318.310946 232.382386 
L 318.847619 228.477141 
L 319.084819 224.437686 
L 319.860878 201.86286 
L 320.57482 179.023409 
L 320.823292 175.45547 
L 321.052864 176.975814 
L 321.293303 182.806675 
L 321.531353 193.456606 
L 321.946716 204.522875 
L 322.06656 215.459478 
L 322.487002 222.765183 
L 322.552483 226.644892 
L 322.78497 228.919335 
L 323.080899 228.656228 
L 323.437147 225.529621 
L 323.794863 214.029684 
L 324.513571 202.330343 
L 324.835175 200.00903 
L 325.225117 200.855585 
L 325.284766 202.74968 
L 325.523447 204.397384 
L 325.761799 207.637513 
L 326.003038 208.339765 
L 326.239318 203.425031 
L 326.777059 186.30002 
L 327.491149 175.209228 
L 327.728287 175.701325 
L 328.145754 178.41692 
L 328.265076 181.903775 
L 328.56376 186.226381 
L 329.039886 206.105164 
L 329.78107 233.086928 
L 330.231476 240.287549 
L 330.470731 240.846168 
L 331.007077 230.688679 
L 332.745446 165.460956 
L 333.214281 157.386174 
L 333.692477 153.810178 
L 333.95473 153.829368 
L 334.406291 149.53454 
L 334.646266 149.364822 
L 335.300397 149.378227 
L 335.420241 151.732868 
L 335.899629 154.441919 
L 336.14417 157.094693 
L 336.527583 158.558127 
L 336.927045 162.014223 
L 336.974106 164.008935 
L 337.273842 164.774776 
L 337.808623 170.395682 
L 338.106092 184.98648 
L 338.40436 190.622962 
L 338.881253 194.813764 
L 339.35825 200.432396 
L 339.899994 205.887823 
L 340.074645 204.485695 
L 340.373029 199.759536 
L 340.848528 185.078142 
L 341.207006 181.904043 
L 341.347144 181.751562 
L 341.565018 183.539854 
L 341.802437 187.944979 
L 342.219513 192.024952 
L 342.338287 196.930119 
L 342.636975 202.820731 
L 343.364093 227.418605 
L 343.592344 230.43939 
L 343.776217 228.206079 
L 344.369355 216.860471 
L 344.606077 216.15478 
L 344.783509 216.039999 
L 345.029695 214.993342 
L 345.616407 197.387145 
L 345.795363 190.854717 
L 346.034538 194.005526 
L 346.453725 205.384828 
L 346.513834 216.912525 
L 346.812969 223.744942 
L 347.008443 222.514087 
L 347.586221 208.40121 
L 347.824912 208.380014 
L 348.12244 215.479309 
L 348.248172 222.266303 
L 348.539846 221.286845 
L 348.838016 212.149649 
L 349.016348 202.394983 
L 349.493065 192.987186 
L 349.850363 196.008627 
L 350.030995 206.4901 
L 350.328223 215.45389 
L 350.626137 217.233656 
L 350.984443 205.468896 
L 351.341049 206.28759 
L 351.638894 213.281287 
L 351.760108 220.653574 
L 352.17488 223.865444 
L 352.250662 225.327113 
L 352.472973 221.03899 
L 352.949955 201.701172 
L 353.248533 198.775311 
L 353.546178 203.949829 
L 353.674173 211.624975 
L 353.976188 214.590153 
L 354.213202 215.20324 
L 354.678377 214.499166 
L 355.097732 209.846659 
L 355.215159 207.099382 
L 355.396894 208.764878 
L 355.750837 214.928229 
L 356.050134 218.163293 
L 356.182933 209.578388 
L 356.709568 198.715544 
L 357.186244 206.495134 
L 357.431003 206.307645 
L 357.722674 206.228602 
L 357.901449 209.067946 
L 358.206185 209.738498 
L 358.447738 207.233332 
L 358.737327 206.325243 
L 359.398316 193.683671 
L 359.644486 196.156664 
L 360.16845 214.290893 
L 360.406895 214.800365 
L 360.645466 207.83389 
L 360.933002 203.497198 
L 361.604815 222.620109 
L 362.375965 207.924777 
L 362.911983 213.460214 
L 363.09044 214.172112 
L 363.328511 213.136229 
L 363.626448 204.428488 
L 363.924394 200.833028 
L 364.103379 203.112714 
L 364.413298 208.71559 
L 364.644511 206.966634 
L 365.120457 189.923135 
L 365.296097 191.721341 
L 365.830966 211.336795 
L 366.147785 215.23782 
L 366.310826 210.136805 
L 366.612498 206.219074 
L 366.909092 208.69105 
L 367.096618 214.571151 
L 367.327653 217.577931 
L 367.512168 215.501445 
L 367.804571 208.050311 
L 368.699026 201.026341 
L 368.760902 202.801341 
L 368.998031 205.830239 
L 369.295128 205.326242 
L 369.537911 206.843295 
L 370.010637 210.865756 
L 370.30839 209.962758 
L 370.555749 202.977054 
L 370.844386 199.144376 
L 371.206071 207.713169 
L 371.379856 215.872415 
L 371.917262 206.384771 
L 371.976005 196.855867 
L 372.339281 192.566041 
L 372.632372 198.745627 
L 372.695253 207.573207 
L 373.063322 214.22981 
L 373.228721 212.462244 
L 373.469346 202.805205 
L 373.824239 193.752064 
L 374.003995 193.634175 
L 374.308128 202.584769 
L 374.483876 214.746025 
L 374.71872 220.450229 
L 375.136951 213.161687 
L 375.258072 201.839787 
L 375.436935 196.701638 
L 375.673898 202.687981 
L 375.953703 206.911352 
L 376.211047 207.879096 
L 376.986159 204.36058 
L 377.165599 202.767116 
L 377.524404 201.904269 
L 378.417332 213.505083 
L 378.656583 217.809067 
L 378.95435 216.534424 
L 379.549615 200.777978 
L 379.727795 198.131768 
L 380.383989 221.172726 
L 380.92108 205.605562 
L 381.099454 198.991588 
L 381.39759 200.186103 
L 381.874084 214.914948 
L 382.112985 218.257992 
L 382.591291 199.429464 
L 383.007326 193.289579 
L 383.424874 209.556618 
L 383.720592 215.680182 
L 383.965141 214.916781 
L 384.137753 206.859952 
L 384.615896 196.673826 
L 384.854765 204.097678 
L 385.39117 216.225927 
L 385.686971 211.777906 
L 385.866547 203.076423 
L 386.104372 197.848768 
L 386.343384 199.802566 
L 386.640624 208.825867 
L 386.819553 221.338467 
L 387.061509 226.617047 
L 387.356222 222.538558 
L 388.191952 202.55271 
L 388.310247 202.210242 
L 388.549531 208.633521 
L 388.849046 212.482324 
L 389.266256 209.332881 
L 389.561207 204.087479 
L 389.939645 205.623375 
L 390.044227 208.320875 
L 390.277175 209.38947 
L 390.757948 213.86645 
L 390.815224 212.565953 
L 390.997099 211.723427 
L 391.41066 212.104656 
L 391.634262 214.725979 
L 392.006419 221.308591 
L 392.780984 229.430711 
L 393.139352 228.975919 
L 393.258365 226.434021 
L 393.800255 225.274066 
L 394.03357 221.56036 
L 394.989309 195.647852 
L 395.225673 191.065465 
L 395.463636 191.678567 
L 395.821941 194.321492 
L 396.000292 193.827208 
L 396.238692 189.045791 
L 396.476782 187.783313 
L 397.014996 199.021986 
L 397.372492 209.445019 
L 398.207536 245.280946 
L 398.693058 249.721455 
L 398.983119 247.41357 
L 399.459453 229.864623 
L 400.414156 190.559895 
L 400.652448 190.733077 
L 400.891338 194.14454 
L 401.189144 194.197743 
L 401.380434 193.896461 
L 401.616401 194.286097 
L 401.905364 195.65382 
L 402.171713 198.368863 
L 402.385318 202.935127 
L 402.624125 210.457424 
L 402.930699 214.999757 
L 403.158482 216.458835 
L 403.635492 213.420204 
L 404.115449 212.391513 
L 404.409373 210.96927 
L 404.946036 202.78015 
L 405.363704 185.061341 
L 405.602805 179.659628 
L 405.843613 180.633878 
L 406.200634 185.185686 
L 407.572535 216.541357 
L 407.811825 216.458018 
L 408.109159 214.96459 
L 408.588828 211.231809 
L 409.125964 219.860292 
L 409.303215 224.071948 
L 409.602456 225.963395 
L 409.840021 229.272316 
L 410.079028 235.845943 
L 410.495501 238.49299 
L 411.045155 218.031484 
L 411.43957 205.978673 
L 411.567632 192.920071 
L 411.797572 181.087736 
L 412.516396 157.574297 
L 412.813099 159.255887 
L 413.292537 177.130098 
L 413.542476 186.357176 
L 413.946042 192.345172 
L 414.006011 197.356178 
L 414.304394 201.568747 
L 414.546739 203.04377 
L 414.787961 202.726974 
L 414.985083 201.151967 
L 415.259519 197.351362 
L 415.691993 194.77842 
L 416.753244 207.397451 
L 417.109481 207.47128 
L 417.288092 209.468952 
L 417.470396 209.946425 
L 417.70689 208.145534 
L 418.26425 206.548054 
L 418.484329 203.655742 
L 418.957869 195.617297 
L 419.196941 192.724742 
L 419.495038 191.370255 
L 419.676062 192.080682 
L 420.208624 196.72704 
L 420.217136 205.221927 
L 420.451773 211.921443 
L 420.987802 215.497008 
L 421.234939 216.095931 
L 421.467151 216.297908 
L 421.943391 218.282132 
L 422.419863 208.286263 
L 422.89802 190.143473 
L 423.137868 186.22173 
L 423.557486 183.699239 
L 423.612098 181.679854 
L 423.97125 179.414011 
L 424.154839 176.904885 
L 424.389352 176.832619 
L 425.047912 187.079614 
L 425.17289 195.974117 
L 425.641979 206.305917 
L 425.889252 210.319972 
L 425.940901 214.267616 
L 426.179793 219.670603 
L 426.838712 249.341409 
L 427.134135 251.118629 
L 427.378792 248.525518 
L 427.850084 229.39094 
L 428.327134 208.332743 
L 428.757438 200.500349 
L 429.104795 184.32496 
L 429.340464 178.268962 
L 429.826309 178.373445 
L 430.07847 182.283403 
L 430.804049 202.803156 
L 431.13979 204.162052 
L 431.446364 201.189544 
L 431.576843 195.98835 
L 431.861242 194.736269 
L 432.104488 197.623963 
L 432.397421 203.544571 
L 432.517761 210.805082 
L 432.758986 212.426646 
L 433.181677 206.37079 
L 433.300894 199.262416 
L 433.532733 199.484964 
L 433.775828 207.840478 
L 434.307155 217.776316 
L 434.610111 212.210152 
L 435.083079 200.642093 
L 435.383535 204.171318 
L 435.622967 214.712812 
L 435.930658 220.480457 
L 436.073948 217.326531 
L 436.225225 208.272576 
L 436.490507 202.067736 
L 436.761389 201.295524 
L 437.076662 206.066981 
L 437.242303 213.650887 
L 437.592267 213.91446 
L 438.010458 194.319983 
L 438.30967 189.982598 
L 439.443402 217.231953 
L 439.800367 220.359401 
L 440.244468 231.984115 
L 440.459193 234.971822 
L 440.864901 232.547959 
L 441.102455 230.08631 
L 441.520211 232.469817 
L 441.818177 227.509809 
L 442.176778 208.584114 
L 442.77542 198.22905 
L 443.012419 202.41892 
L 443.193953 210.520405 
L 444.686342 239.288005 
L 444.922292 238.136012 
L 445.400212 226.26912 
L 446.121179 223.387497 
L 446.897603 216.139968 
L 447.135537 215.889434 
L 447.791156 219.20003 
L 447.878933 217.738938 
L 448.149862 210.957244 
L 449.408715 169.178768 
L 449.641465 165.705844 
L 449.822006 166.27485 
L 450.06017 171.19305 
L 451.080911 206.817928 
L 451.452495 208.699645 
L 451.615615 207.851152 
L 451.792131 206.58889 
L 452.117179 203.832774 
L 452.328014 199.026473 
L 452.748418 192.363888 
L 452.82994 184.82378 
L 453.054681 179.970853 
L 453.283539 181.063335 
L 453.944147 188.314229 
L 454.369832 196.515639 
L 454.549718 199.054908 
L 454.966846 201.323019 
L 455.027506 205.334472 
L 455.745298 218.419839 
L 456.159059 221.645243 
L 456.75555 242.178188 
L 457.172693 252.248477 
L 457.292087 262.552484 
L 457.531124 269.426597 
L 457.775342 271.200069 
L 457.829611 272.589231 
L 458.009795 269.899673 
L 458.784161 254.721786 
L 458.96401 252.040472 
L 459.283695 249.226844 
L 460.937173 210.01231 
L 462.192837 170.444856 
L 462.906155 162.296058 
L 463.153516 160.843578 
L 463.45249 160.170748 
L 463.693601 160.810656 
L 463.992165 165.33242 
L 464.466432 181.526657 
L 464.645998 191.474686 
L 465.57985 218.446225 
L 465.903858 235.918819 
L 466.437069 248.059859 
L 466.743978 247.090017 
L 469.37263 153.402162 
L 469.664827 154.240261 
L 469.848036 154.135422 
L 470.144533 155.113943 
L 470.439598 158.038283 
L 470.618999 162.195398 
L 471.036889 165.716223 
L 471.383048 177.081948 
L 472.153076 204.497486 
L 472.62824 226.213572 
L 473.108466 242.375085 
L 473.298355 251.051762 
L 474.062142 268.808347 
L 474.299874 269.015845 
L 474.538745 270.043384 
L 474.778274 269.43255 
L 475.344405 267.317598 
L 475.732758 264.097718 
L 476.758551 233.614499 
L 477.28805 215.449671 
L 478.242149 191.892025 
L 478.62196 191.627767 
L 478.780067 191.137525 
L 479.01567 191.120643 
L 479.577275 197.74645 
L 480.284395 212.016305 
L 481.191436 234.090638 
L 482.080086 246.977457 
L 482.1996 250.388527 
L 482.497488 251.548671 
L 482.743917 251.570592 
L 482.991715 251.915995 
L 483.990168 258.847789 
L 484.230791 258.642187 
L 484.46614 259.186969 
L 484.704511 260.3699 
L 484.944038 259.939534 
L 485.189327 257.481938 
L 485.423172 251.318916 
L 486.197329 222.97898 
L 486.914414 202.905949 
L 487.987903 189.93722 
L 488.225708 188.515906 
L 488.464203 188.5732 
L 488.666665 186.929895 
L 489.184431 187.206588 
L 489.896099 190.157956 
L 490.688617 199.076517 
L 491.10574 212.461127 
L 491.583827 219.375838 
L 491.643802 227.011923 
L 492.597116 247.177698 
L 492.894954 255.099209 
L 493.075454 263.722231 
L 493.374374 269.486842 
L 493.670875 272.022195 
L 493.849424 272.58412 
L 494.152207 269.893407 
L 494.913893 253.300942 
L 496.127697 207.202076 
L 496.604465 190.077453 
L 497.082376 182.307759 
L 497.320226 180.637076 
L 497.559184 183.758 
L 498.0963 198.536155 
L 498.275995 207.946442 
L 499.113143 228.903819 
L 499.408767 230.83249 
L 499.587207 229.19003 
L 500.067861 225.974827 
L 500.303931 208.983112 
L 501.034094 179.242388 
L 501.498306 166.094849 
L 502.034219 162.281152 
L 502.2127 162.687642 
L 502.632908 162.726046 
L 503.294519 170.551402 
L 503.765062 183.865502 
L 505.690844 247.086641 
L 506.173171 252.089623 
L 506.468005 252.137188 
L 506.769904 249.979906 
L 507.258181 244.010667 
L 507.481325 238.678382 
L 507.90479 235.871222 
L 507.957542 234.359988 
L 508.614058 232.690233 
L 508.674459 230.428471 
L 508.915089 225.986942 
L 509.249468 223.289172 
L 511.197476 171.539856 
L 511.601893 169.955874 
L 511.663163 168.563134 
L 511.898376 169.078738 
L 512.381183 170.913897 
L 512.685981 173.554855 
L 512.87333 173.516901 
L 513.230682 171.713466 
L 513.451297 169.25672 
L 513.672985 168.348172 
L 513.901251 168.279082 
L 514.140393 169.462562 
L 514.745325 177.95001 
L 514.905024 182.605421 
L 515.499323 190.028911 
L 516.155981 213.740916 
L 516.635936 224.446027 
L 516.93452 224.639796 
L 517.708079 210.958635 
L 517.842853 203.78458 
L 518.842277 171.4189 
L 519.098015 170.640548 
L 519.377883 175.055924 
L 519.856493 192.013082 
L 520.633562 221.70813 
L 520.810745 224.296702 
L 521.249435 222.930214 
L 521.480639 219.688049 
L 521.826523 216.811645 
L 522.363592 208.833122 
L 522.83987 206.24529 
L 522.899613 200.399419 
L 523.38624 189.357561 
L 523.675539 190.111026 
L 523.797001 193.620507 
L 524.298827 199.676589 
L 524.579801 206.298842 
L 524.873326 205.383177 
L 524.991469 206.958233 
L 525.767818 223.791972 
L 525.893898 233.193054 
L 526.265063 239.734537 
L 526.488608 240.390746 
L 526.912763 227.672018 
L 527.149513 218.960906 
L 527.516229 199.431685 
L 527.873454 187.920307 
L 528.230487 169.45555 
L 528.647266 162.160763 
L 528.888465 155.913209 
L 529.422519 148.57528 
L 529.865493 160.099318 
L 529.983931 168.098714 
L 530.507281 186.708954 
L 530.922508 203.707796 
L 531.707152 222.303728 
L 533.011374 206.357088 
L 533.487391 203.224958 
L 533.784806 200.662749 
L 534.509129 184.763788 
L 534.716746 182.383715 
L 534.9212 182.124349 
L 535.22463 181.952347 
L 535.554642 179.672901 
L 535.692476 176.011815 
L 535.906109 176.971515 
L 536.170421 182.166701 
L 536.706648 200.814431 
L 536.887997 213.024142 
L 537.422413 226.325457 
L 537.899767 232.293997 
L 538.138414 235.081717 
L 538.376449 235.50394 
L 538.619348 234.587202 
L 538.907656 234.261265 
L 539.160758 235.312476 
L 539.46659 236.040199 
L 539.815515 238.863034 
L 539.890327 242.190877 
L 540.120223 244.676759 
L 540.359593 244.243835 
L 540.596118 241.428819 
L 541.130067 227.945988 
L 542.143566 196.643821 
L 542.682441 174.824595 
L 543.160011 163.799852 
L 543.596063 161.130967 
L 543.699157 157.008003 
L 544.173833 145.803059 
L 544.294067 141.818301 
L 544.545069 143.148505 
L 544.770134 147.005089 
L 545.311418 164.213011 
L 546.2617 205.12655 
L 547.036429 226.643696 
L 547.53415 233.251639 
L 547.752033 233.749891 
L 548.17023 231.372813 
L 548.289074 228.77958 
L 548.47922 227.523342 
L 549.084184 226.623063 
L 549.247714 228.228483 
L 549.493936 228.966772 
L 549.719839 228.054569 
L 550.018135 225.803241 
L 550.499263 219.800782 
L 550.972781 213.777928 
L 551.514644 205.826123 
L 551.747587 199.550161 
L 552.104946 193.028856 
L 552.548515 183.039711 
L 552.966971 177.48538 
L 554.458982 160.620818 
L 554.822513 158.652721 
L 554.949729 156.533216 
L 555.441891 155.909557 
L 557.492015 242.295775 
L 557.672436 245.74299 
L 557.908193 243.622242 
L 558.451366 236.711588 
L 558.635042 229.611701 
L 558.92797 222.693287 
L 559.362392 201.256556 
L 559.658397 183.246461 
L 559.90705 175.980064 
L 560.13652 177.972342 
L 560.433744 181.788703 
L 561.150884 198.096684 
L 561.524705 204.361915 
L 561.646145 212.286452 
L 562.169826 221.235809 
L 562.88247 198.658777 
L 563.082051 190.897359 
L 563.359096 185.899415 
L 563.598978 183.975295 
L 563.896422 185.544337 
L 564.136944 187.605607 
L 564.7905 201.236583 
L 564.853874 211.203964 
L 565.331324 229.357877 
L 565.872495 240.616651 
L 566.04982 240.65708 
L 566.346673 234.302173 
L 566.649221 225.035593 
L 566.887861 213.361842 
L 567.539426 192.601382 
L 567.81291 191.277712 
L 568.162999 187.743188 
L 568.279594 179.380995 
L 568.579 172.297 
L 568.823184 170.11816 
L 569.073081 172.073612 
L 569.83741 193.401545 
L 570.013071 192.977482 
L 570.501225 181.733638 
L 570.787124 184.170855 
L 571.029889 192.194878 
L 571.325859 196.495537 
L 571.687981 195.692482 
L 572.041572 184.616198 
L 572.283722 182.024322 
L 572.638288 185.053147 
L 572.953552 200.936174 
L 573.249497 198.800916 
L 573.492067 191.802558 
L 573.789496 191.33496 
L 574.263503 205.821976 
L 574.622731 207.432512 
L 575.159521 192.264601 
L 575.396961 185.551916 
L 575.516925 186.7003 
L 575.933845 206.536713 
L 576.2922 209.15842 
L 576.711779 193.979418 
L 577.03442 195.391234 
L 577.217726 202.169935 
L 577.454508 205.288765 
L 578.415321 193.055241 
L 578.93761 197.005945 
L 579.176431 195.393652 
L 579.486673 190.370364 
L 579.653023 189.920277 
L 580.014031 192.453617 
L 580.150044 196.488163 
L 580.429689 196.308295 
L 580.969837 190.305283 
L 581.264828 189.720282 
L 581.502594 202.563299 
L 581.920743 209.903908 
L 582.102488 217.305034 
L 582.338352 214.284822 
L 582.874205 205.078544 
L 583.054207 210.023325 
L 583.381898 215.110351 
L 583.618233 213.681029 
L 583.770141 207.302827 
L 583.890967 196.914697 
L 584.133411 186.523576 
L 584.423115 179.943762 
L 584.6019 180.355286 
L 584.97196 187.465501 
L 585.141719 195.08034 
L 585.439733 199.98655 
L 585.618409 199.133571 
L 586.102153 193.809704 
L 586.334238 193.783637 
L 586.871558 202.376232 
L 587.594893 189.418541 
L 587.832711 188.916995 
L 588.18402 191.236246 
L 588.322421 193.13993 
L 588.547265 193.864755 
L 589.080901 197.270422 
L 589.627554 194.751821 
L 590.162521 200.583424 
L 590.582164 184.865866 
L 591.235336 190.844158 
L 591.475687 191.648302 
L 591.771873 194.782462 
L 592.02088 194.331198 
L 592.248385 192.799548 
L 592.493066 189.292695 
L 592.845958 189.668161 
L 593.502998 197.025652 
L 593.759333 194.683823 
L 593.97808 190.960296 
L 594.245483 191.598469 
L 594.485625 192.731226 
L 594.485625 192.731226 
" clip-path="url(#pa675664fb9)" style="fill: none; stroke: #ff0000; stroke-opacity: 0.5; stroke-width: 1.5; stroke-linecap: square"/>
   </g>
   <g id="patch_3">
    <path d="M 36.485625 277.92 
L 36.485625 0.72 
" style="fill: none; stroke: #000000; stroke-width: 0.8; stroke-linejoin: miter; stroke-linecap: square"/>
   </g>
   <g id="patch_4">
    <path d="M 594.485625 277.92 
L 594.485625 0.72 
" style="fill: none; stroke: #000000; stroke-width: 0.8; stroke-linejoin: miter; stroke-linecap: square"/>
   </g>
   <g id="patch_5">
    <path d="M 36.485625 277.92 
L 594.485625 277.92 
" style="fill: none; stroke: #000000; stroke-width: 0.8; stroke-linejoin: miter; stroke-linecap: square"/>
   </g>
   <g id="patch_6">
    <path d="M 36.485625 0.72 
L 594.485625 0.72 
" style="fill: none; stroke: #000000; stroke-width: 0.8; stroke-linejoin: miter; stroke-linecap: square"/>
   </g>
   <g id="legend_1">
    <g id="patch_7">
     <path d="M 513.716875 38.07625 
L 587.485625 38.07625 
Q 589.485625 38.07625 589.485625 36.07625 
L 589.485625 7.72 
Q 589.485625 5.72 587.485625 5.72 
L 513.716875 5.72 
Q 511.716875 5.72 511.716875 7.72 
L 511.716875 36.07625 
Q 511.716875 38.07625 513.716875 38.07625 
z
" style="fill: #ffffff; opacity: 0.8; stroke: #cccccc; stroke-linejoin: miter"/>
    </g>
    <g id="line2d_35">
     <path d="M 515.716875 13.818438 
L 525.716875 13.818438 
L 535.716875 13.818438 
" style="fill: none; stroke: #0000ff; stroke-opacity: 0.5; stroke-width: 1.5; stroke-linecap: square"/>
    </g>
    <g id="text_19">
     <!-- RNEA -->
     <g transform="translate(543.716875 17.318438) scale(0.1 -0.1)">
      <defs>
       <path id="DejaVuSans-52" d="M 2841 2188 
Q 3044 2119 3236 1894 
Q 3428 1669 3622 1275 
L 4263 0 
L 3584 0 
L 2988 1197 
Q 2756 1666 2539 1819 
Q 2322 1972 1947 1972 
L 1259 1972 
L 1259 0 
L 628 0 
L 628 4666 
L 2053 4666 
Q 2853 4666 3247 4331 
Q 3641 3997 3641 3322 
Q 3641 2881 3436 2590 
Q 3231 2300 2841 2188 
z
M 1259 4147 
L 1259 2491 
L 2053 2491 
Q 2509 2491 2742 2702 
Q 2975 2913 2975 3322 
Q 2975 3731 2742 3939 
Q 2509 4147 2053 4147 
L 1259 4147 
z
" transform="scale(0.015625)"/>
       <path id="DejaVuSans-45" d="M 628 4666 
L 3578 4666 
L 3578 4134 
L 1259 4134 
L 1259 2753 
L 3481 2753 
L 3481 2222 
L 1259 2222 
L 1259 531 
L 3634 531 
L 3634 0 
L 628 0 
L 628 4666 
z
" transform="scale(0.015625)"/>
       <path id="DejaVuSans-41" d="M 2188 4044 
L 1331 1722 
L 3047 1722 
L 2188 4044 
z
M 1831 4666 
L 2547 4666 
L 4325 0 
L 3669 0 
L 3244 1197 
L 1141 1197 
L 716 0 
L 50 0 
L 1831 4666 
z
" transform="scale(0.015625)"/>
      </defs>
      <use xlink:href="#DejaVuSans-52"/>
      <use xlink:href="#DejaVuSans-4e" x="69.482422"/>
      <use xlink:href="#DejaVuSans-45" x="144.287109"/>
      <use xlink:href="#DejaVuSans-41" x="207.470703"/>
     </g>
    </g>
    <g id="line2d_36">
     <path d="M 515.716875 28.496563 
L 525.716875 28.496563 
L 535.716875 28.496563 
" style="fill: none; stroke: #ff0000; stroke-opacity: 0.5; stroke-width: 1.5; stroke-linecap: square"/>
    </g>
    <g id="text_20">
     <!-- BURNEA -->
     <g transform="translate(543.716875 31.996563) scale(0.1 -0.1)">
      <defs>
       <path id="DejaVuSans-42" d="M 1259 2228 
L 1259 519 
L 2272 519 
Q 2781 519 3026 730 
Q 3272 941 3272 1375 
Q 3272 1813 3026 2020 
Q 2781 2228 2272 2228 
L 1259 2228 
z
M 1259 4147 
L 1259 2741 
L 2194 2741 
Q 2656 2741 2882 2914 
Q 3109 3088 3109 3444 
Q 3109 3797 2882 3972 
Q 2656 4147 2194 4147 
L 1259 4147 
z
M 628 4666 
L 2241 4666 
Q 2963 4666 3353 4366 
Q 3744 4066 3744 3513 
Q 3744 3084 3544 2831 
Q 3344 2578 2956 2516 
Q 3422 2416 3680 2098 
Q 3938 1781 3938 1306 
Q 3938 681 3513 340 
Q 3088 0 2303 0 
L 628 0 
L 628 4666 
z
" transform="scale(0.015625)"/>
       <path id="DejaVuSans-55" d="M 556 4666 
L 1191 4666 
L 1191 1831 
Q 1191 1081 1462 751 
Q 1734 422 2344 422 
Q 2950 422 3222 751 
Q 3494 1081 3494 1831 
L 3494 4666 
L 4128 4666 
L 4128 1753 
Q 4128 841 3676 375 
Q 3225 -91 2344 -91 
Q 1459 -91 1007 375 
Q 556 841 556 1753 
L 556 4666 
z
" transform="scale(0.015625)"/>
      </defs>
      <use xlink:href="#DejaVuSans-42"/>
      <use xlink:href="#DejaVuSans-55" x="68.603516"/>
      <use xlink:href="#DejaVuSans-52" x="141.796875"/>
      <use xlink:href="#DejaVuSans-4e" x="211.279297"/>
      <use xlink:href="#DejaVuSans-45" x="286.083984"/>
      <use xlink:href="#DejaVuSans-41" x="349.267578"/>
     </g>
    </g>
   </g>
  </g>
 </g>
 <defs>
  <clipPath id="pa675664fb9">
   <rect x="36.485625" y="0.72" width="558" height="277.2"/>
  </clipPath>
 </defs>
</svg>
