<?xml version="1.0" encoding="utf-8" standalone="no"?>
<!DOCTYPE svg PUBLIC "-//W3C//DTD SVG 1.1//EN"
  "http://www.w3.org/Graphics/SVG/1.1/DTD/svg11.dtd">
<svg xmlns:xlink="http://www.w3.org/1999/xlink" width="588.843125pt" height="304.99625pt" viewBox="0 0 588.843125 304.99625" xmlns="http://www.w3.org/2000/svg" version="1.1">
 <metadata>
  <rdf:RDF xmlns:dc="http://purl.org/dc/elements/1.1/" xmlns:cc="http://creativecommons.org/ns#" xmlns:rdf="http://www.w3.org/1999/02/22-rdf-syntax-ns#">
   <cc:Work>
    <dc:type rdf:resource="http://purl.org/dc/dcmitype/StillImage"/>
    <dc:date>2023-09-07T03:30:40.068273</dc:date>
    <dc:format>image/svg+xml</dc:format>
    <dc:creator>
     <cc:Agent>
      <dc:title>Matplotlib v3.7.2, https://matplotlib.org/</dc:title>
     </cc:Agent>
    </dc:creator>
   </cc:Work>
  </rdf:RDF>
 </metadata>
 <defs>
  <style type="text/css">*{stroke-linejoin: round; stroke-linecap: butt}</style>
 </defs>
 <g id="figure_1">
  <g id="patch_1">
   <path d="M 0 304.99625 
L 588.843125 304.99625 
L 588.843125 0 
L 0 0 
L 0 304.99625 
z
" style="fill: none"/>
  </g>
  <g id="axes_1">
   <g id="patch_2">
    <path d="M 30.123125 277.92 
L 588.123125 277.92 
L 588.123125 0.72 
L 30.123125 0.72 
L 30.123125 277.92 
z
" style="fill: none"/>
   </g>
   <g id="matplotlib.axis_1">
    <g id="xtick_1">
     <g id="line2d_1">
      <path d="M 30.123125 277.92 
L 30.123125 0.72 
" clip-path="url(#p178ca28938)" style="fill: none; stroke-dasharray: 0.8,1.32; stroke-dashoffset: 0; stroke: #000000; stroke-opacity: 0.5; stroke-width: 0.8"/>
     </g>
     <g id="line2d_2">
      <defs>
       <path id="ma9020b26a5" d="M 0 0 
L 0 3.5 
" style="stroke: #000000; stroke-width: 0.8"/>
      </defs>
      <g>
       <use xlink:href="#ma9020b26a5" x="30.123125" y="277.92" style="stroke: #000000; stroke-width: 0.8"/>
      </g>
     </g>
     <g id="text_1">
      <!-- 0.0 -->
      <g transform="translate(22.171563 292.518438) scale(0.1 -0.1)">
       <defs>
        <path id="DejaVuSans-30" d="M 2034 4250 
Q 1547 4250 1301 3770 
Q 1056 3291 1056 2328 
Q 1056 1369 1301 889 
Q 1547 409 2034 409 
Q 2525 409 2770 889 
Q 3016 1369 3016 2328 
Q 3016 3291 2770 3770 
Q 2525 4250 2034 4250 
z
M 2034 4750 
Q 2819 4750 3233 4129 
Q 3647 3509 3647 2328 
Q 3647 1150 3233 529 
Q 2819 -91 2034 -91 
Q 1250 -91 836 529 
Q 422 1150 422 2328 
Q 422 3509 836 4129 
Q 1250 4750 2034 4750 
z
" transform="scale(0.015625)"/>
        <path id="DejaVuSans-2e" d="M 684 794 
L 1344 794 
L 1344 0 
L 684 0 
L 684 794 
z
" transform="scale(0.015625)"/>
       </defs>
       <use xlink:href="#DejaVuSans-30"/>
       <use xlink:href="#DejaVuSans-2e" x="63.623047"/>
       <use xlink:href="#DejaVuSans-30" x="95.410156"/>
      </g>
     </g>
    </g>
    <g id="xtick_2">
     <g id="line2d_3">
      <path d="M 104.27445 277.92 
L 104.27445 0.72 
" clip-path="url(#p178ca28938)" style="fill: none; stroke-dasharray: 0.8,1.32; stroke-dashoffset: 0; stroke: #000000; stroke-opacity: 0.5; stroke-width: 0.8"/>
     </g>
     <g id="line2d_4">
      <g>
       <use xlink:href="#ma9020b26a5" x="104.27445" y="277.92" style="stroke: #000000; stroke-width: 0.8"/>
      </g>
     </g>
     <g id="text_2">
      <!-- 2.5 -->
      <g transform="translate(96.322887 292.518438) scale(0.1 -0.1)">
       <defs>
        <path id="DejaVuSans-32" d="M 1228 531 
L 3431 531 
L 3431 0 
L 469 0 
L 469 531 
Q 828 903 1448 1529 
Q 2069 2156 2228 2338 
Q 2531 2678 2651 2914 
Q 2772 3150 2772 3378 
Q 2772 3750 2511 3984 
Q 2250 4219 1831 4219 
Q 1534 4219 1204 4116 
Q 875 4013 500 3803 
L 500 4441 
Q 881 4594 1212 4672 
Q 1544 4750 1819 4750 
Q 2544 4750 2975 4387 
Q 3406 4025 3406 3419 
Q 3406 3131 3298 2873 
Q 3191 2616 2906 2266 
Q 2828 2175 2409 1742 
Q 1991 1309 1228 531 
z
" transform="scale(0.015625)"/>
        <path id="DejaVuSans-35" d="M 691 4666 
L 3169 4666 
L 3169 4134 
L 1269 4134 
L 1269 2991 
Q 1406 3038 1543 3061 
Q 1681 3084 1819 3084 
Q 2600 3084 3056 2656 
Q 3513 2228 3513 1497 
Q 3513 744 3044 326 
Q 2575 -91 1722 -91 
Q 1428 -91 1123 -41 
Q 819 9 494 109 
L 494 744 
Q 775 591 1075 516 
Q 1375 441 1709 441 
Q 2250 441 2565 725 
Q 2881 1009 2881 1497 
Q 2881 1984 2565 2268 
Q 2250 2553 1709 2553 
Q 1456 2553 1204 2497 
Q 953 2441 691 2322 
L 691 4666 
z
" transform="scale(0.015625)"/>
       </defs>
       <use xlink:href="#DejaVuSans-32"/>
       <use xlink:href="#DejaVuSans-2e" x="63.623047"/>
       <use xlink:href="#DejaVuSans-35" x="95.410156"/>
      </g>
     </g>
    </g>
    <g id="xtick_3">
     <g id="line2d_5">
      <path d="M 178.425775 277.92 
L 178.425775 0.72 
" clip-path="url(#p178ca28938)" style="fill: none; stroke-dasharray: 0.8,1.32; stroke-dashoffset: 0; stroke: #000000; stroke-opacity: 0.5; stroke-width: 0.8"/>
     </g>
     <g id="line2d_6">
      <g>
       <use xlink:href="#ma9020b26a5" x="178.425775" y="277.92" style="stroke: #000000; stroke-width: 0.8"/>
      </g>
     </g>
     <g id="text_3">
      <!-- 5.0 -->
      <g transform="translate(170.474212 292.518438) scale(0.1 -0.1)">
       <use xlink:href="#DejaVuSans-35"/>
       <use xlink:href="#DejaVuSans-2e" x="63.623047"/>
       <use xlink:href="#DejaVuSans-30" x="95.410156"/>
      </g>
     </g>
    </g>
    <g id="xtick_4">
     <g id="line2d_7">
      <path d="M 252.5771 277.92 
L 252.5771 0.72 
" clip-path="url(#p178ca28938)" style="fill: none; stroke-dasharray: 0.8,1.32; stroke-dashoffset: 0; stroke: #000000; stroke-opacity: 0.5; stroke-width: 0.8"/>
     </g>
     <g id="line2d_8">
      <g>
       <use xlink:href="#ma9020b26a5" x="252.5771" y="277.92" style="stroke: #000000; stroke-width: 0.8"/>
      </g>
     </g>
     <g id="text_4">
      <!-- 7.5 -->
      <g transform="translate(244.625537 292.518438) scale(0.1 -0.1)">
       <defs>
        <path id="DejaVuSans-37" d="M 525 4666 
L 3525 4666 
L 3525 4397 
L 1831 0 
L 1172 0 
L 2766 4134 
L 525 4134 
L 525 4666 
z
" transform="scale(0.015625)"/>
       </defs>
       <use xlink:href="#DejaVuSans-37"/>
       <use xlink:href="#DejaVuSans-2e" x="63.623047"/>
       <use xlink:href="#DejaVuSans-35" x="95.410156"/>
      </g>
     </g>
    </g>
    <g id="xtick_5">
     <g id="line2d_9">
      <path d="M 326.728425 277.92 
L 326.728425 0.72 
" clip-path="url(#p178ca28938)" style="fill: none; stroke-dasharray: 0.8,1.32; stroke-dashoffset: 0; stroke: #000000; stroke-opacity: 0.5; stroke-width: 0.8"/>
     </g>
     <g id="line2d_10">
      <g>
       <use xlink:href="#ma9020b26a5" x="326.728425" y="277.92" style="stroke: #000000; stroke-width: 0.8"/>
      </g>
     </g>
     <g id="text_5">
      <!-- 10.0 -->
      <g transform="translate(315.595612 292.518438) scale(0.1 -0.1)">
       <defs>
        <path id="DejaVuSans-31" d="M 794 531 
L 1825 531 
L 1825 4091 
L 703 3866 
L 703 4441 
L 1819 4666 
L 2450 4666 
L 2450 531 
L 3481 531 
L 3481 0 
L 794 0 
L 794 531 
z
" transform="scale(0.015625)"/>
       </defs>
       <use xlink:href="#DejaVuSans-31"/>
       <use xlink:href="#DejaVuSans-30" x="63.623047"/>
       <use xlink:href="#DejaVuSans-2e" x="127.246094"/>
       <use xlink:href="#DejaVuSans-30" x="159.033203"/>
      </g>
     </g>
    </g>
    <g id="xtick_6">
     <g id="line2d_11">
      <path d="M 400.87975 277.92 
L 400.87975 0.72 
" clip-path="url(#p178ca28938)" style="fill: none; stroke-dasharray: 0.8,1.32; stroke-dashoffset: 0; stroke: #000000; stroke-opacity: 0.5; stroke-width: 0.8"/>
     </g>
     <g id="line2d_12">
      <g>
       <use xlink:href="#ma9020b26a5" x="400.87975" y="277.92" style="stroke: #000000; stroke-width: 0.8"/>
      </g>
     </g>
     <g id="text_6">
      <!-- 12.5 -->
      <g transform="translate(389.746937 292.518438) scale(0.1 -0.1)">
       <use xlink:href="#DejaVuSans-31"/>
       <use xlink:href="#DejaVuSans-32" x="63.623047"/>
       <use xlink:href="#DejaVuSans-2e" x="127.246094"/>
       <use xlink:href="#DejaVuSans-35" x="159.033203"/>
      </g>
     </g>
    </g>
    <g id="xtick_7">
     <g id="line2d_13">
      <path d="M 475.031075 277.92 
L 475.031075 0.72 
" clip-path="url(#p178ca28938)" style="fill: none; stroke-dasharray: 0.8,1.32; stroke-dashoffset: 0; stroke: #000000; stroke-opacity: 0.5; stroke-width: 0.8"/>
     </g>
     <g id="line2d_14">
      <g>
       <use xlink:href="#ma9020b26a5" x="475.031075" y="277.92" style="stroke: #000000; stroke-width: 0.8"/>
      </g>
     </g>
     <g id="text_7">
      <!-- 15.0 -->
      <g transform="translate(463.898262 292.518438) scale(0.1 -0.1)">
       <use xlink:href="#DejaVuSans-31"/>
       <use xlink:href="#DejaVuSans-35" x="63.623047"/>
       <use xlink:href="#DejaVuSans-2e" x="127.246094"/>
       <use xlink:href="#DejaVuSans-30" x="159.033203"/>
      </g>
     </g>
    </g>
    <g id="xtick_8">
     <g id="line2d_15">
      <path d="M 549.182399 277.92 
L 549.182399 0.72 
" clip-path="url(#p178ca28938)" style="fill: none; stroke-dasharray: 0.8,1.32; stroke-dashoffset: 0; stroke: #000000; stroke-opacity: 0.5; stroke-width: 0.8"/>
     </g>
     <g id="line2d_16">
      <g>
       <use xlink:href="#ma9020b26a5" x="549.182399" y="277.92" style="stroke: #000000; stroke-width: 0.8"/>
      </g>
     </g>
     <g id="text_8">
      <!-- 17.5 -->
      <g transform="translate(538.049587 292.518438) scale(0.1 -0.1)">
       <use xlink:href="#DejaVuSans-31"/>
       <use xlink:href="#DejaVuSans-37" x="63.623047"/>
       <use xlink:href="#DejaVuSans-2e" x="127.246094"/>
       <use xlink:href="#DejaVuSans-35" x="159.033203"/>
      </g>
     </g>
    </g>
    <g id="text_9">
     <!-- Zeit [s] -->
     <g transform="translate(291.177031 302.196563) scale(0.1 -0.1)">
      <defs>
       <path id="DejaVuSans-5a" d="M 359 4666 
L 4025 4666 
L 4025 4184 
L 1075 531 
L 4097 531 
L 4097 0 
L 288 0 
L 288 481 
L 3238 4134 
L 359 4134 
L 359 4666 
z
" transform="scale(0.015625)"/>
       <path id="DejaVuSans-65" d="M 3597 1894 
L 3597 1613 
L 953 1613 
Q 991 1019 1311 708 
Q 1631 397 2203 397 
Q 2534 397 2845 478 
Q 3156 559 3463 722 
L 3463 178 
Q 3153 47 2828 -22 
Q 2503 -91 2169 -91 
Q 1331 -91 842 396 
Q 353 884 353 1716 
Q 353 2575 817 3079 
Q 1281 3584 2069 3584 
Q 2775 3584 3186 3129 
Q 3597 2675 3597 1894 
z
M 3022 2063 
Q 3016 2534 2758 2815 
Q 2500 3097 2075 3097 
Q 1594 3097 1305 2825 
Q 1016 2553 972 2059 
L 3022 2063 
z
" transform="scale(0.015625)"/>
       <path id="DejaVuSans-69" d="M 603 3500 
L 1178 3500 
L 1178 0 
L 603 0 
L 603 3500 
z
M 603 4863 
L 1178 4863 
L 1178 4134 
L 603 4134 
L 603 4863 
z
" transform="scale(0.015625)"/>
       <path id="DejaVuSans-74" d="M 1172 4494 
L 1172 3500 
L 2356 3500 
L 2356 3053 
L 1172 3053 
L 1172 1153 
Q 1172 725 1289 603 
Q 1406 481 1766 481 
L 2356 481 
L 2356 0 
L 1766 0 
Q 1100 0 847 248 
Q 594 497 594 1153 
L 594 3053 
L 172 3053 
L 172 3500 
L 594 3500 
L 594 4494 
L 1172 4494 
z
" transform="scale(0.015625)"/>
       <path id="DejaVuSans-20" transform="scale(0.015625)"/>
       <path id="DejaVuSans-5b" d="M 550 4863 
L 1875 4863 
L 1875 4416 
L 1125 4416 
L 1125 -397 
L 1875 -397 
L 1875 -844 
L 550 -844 
L 550 4863 
z
" transform="scale(0.015625)"/>
       <path id="DejaVuSans-73" d="M 2834 3397 
L 2834 2853 
Q 2591 2978 2328 3040 
Q 2066 3103 1784 3103 
Q 1356 3103 1142 2972 
Q 928 2841 928 2578 
Q 928 2378 1081 2264 
Q 1234 2150 1697 2047 
L 1894 2003 
Q 2506 1872 2764 1633 
Q 3022 1394 3022 966 
Q 3022 478 2636 193 
Q 2250 -91 1575 -91 
Q 1294 -91 989 -36 
Q 684 19 347 128 
L 347 722 
Q 666 556 975 473 
Q 1284 391 1588 391 
Q 1994 391 2212 530 
Q 2431 669 2431 922 
Q 2431 1156 2273 1281 
Q 2116 1406 1581 1522 
L 1381 1569 
Q 847 1681 609 1914 
Q 372 2147 372 2553 
Q 372 3047 722 3315 
Q 1072 3584 1716 3584 
Q 2034 3584 2315 3537 
Q 2597 3491 2834 3397 
z
" transform="scale(0.015625)"/>
       <path id="DejaVuSans-5d" d="M 1947 4863 
L 1947 -844 
L 622 -844 
L 622 -397 
L 1369 -397 
L 1369 4416 
L 622 4416 
L 622 4863 
L 1947 4863 
z
" transform="scale(0.015625)"/>
      </defs>
      <use xlink:href="#DejaVuSans-5a"/>
      <use xlink:href="#DejaVuSans-65" x="68.505859"/>
      <use xlink:href="#DejaVuSans-69" x="130.029297"/>
      <use xlink:href="#DejaVuSans-74" x="157.8125"/>
      <use xlink:href="#DejaVuSans-20" x="197.021484"/>
      <use xlink:href="#DejaVuSans-5b" x="228.808594"/>
      <use xlink:href="#DejaVuSans-73" x="267.822266"/>
      <use xlink:href="#DejaVuSans-5d" x="319.921875"/>
     </g>
    </g>
   </g>
   <g id="matplotlib.axis_2">
    <g id="ytick_1">
     <g id="line2d_17">
      <path d="M 30.123125 264.949423 
L 588.123125 264.949423 
" clip-path="url(#p178ca28938)" style="fill: none; stroke-dasharray: 0.8,1.32; stroke-dashoffset: 0; stroke: #000000; stroke-opacity: 0.5; stroke-width: 0.8"/>
     </g>
     <g id="line2d_18">
      <defs>
       <path id="m80e0fc94ab" d="M 0 0 
L -3.5 0 
" style="stroke: #000000; stroke-width: 0.8"/>
      </defs>
      <g>
       <use xlink:href="#m80e0fc94ab" x="30.123125" y="264.949423" style="stroke: #000000; stroke-width: 0.8"/>
      </g>
     </g>
     <g id="text_10">
      <!-- 15 -->
      <g transform="translate(10.398125 268.748641) scale(0.1 -0.1)">
       <use xlink:href="#DejaVuSans-31"/>
       <use xlink:href="#DejaVuSans-35" x="63.623047"/>
      </g>
     </g>
    </g>
    <g id="ytick_2">
     <g id="line2d_19">
      <path d="M 30.123125 218.145645 
L 588.123125 218.145645 
" clip-path="url(#p178ca28938)" style="fill: none; stroke-dasharray: 0.8,1.32; stroke-dashoffset: 0; stroke: #000000; stroke-opacity: 0.5; stroke-width: 0.8"/>
     </g>
     <g id="line2d_20">
      <g>
       <use xlink:href="#m80e0fc94ab" x="30.123125" y="218.145645" style="stroke: #000000; stroke-width: 0.8"/>
      </g>
     </g>
     <g id="text_11">
      <!-- 20 -->
      <g transform="translate(10.398125 221.944864) scale(0.1 -0.1)">
       <use xlink:href="#DejaVuSans-32"/>
       <use xlink:href="#DejaVuSans-30" x="63.623047"/>
      </g>
     </g>
    </g>
    <g id="ytick_3">
     <g id="line2d_21">
      <path d="M 30.123125 171.341867 
L 588.123125 171.341867 
" clip-path="url(#p178ca28938)" style="fill: none; stroke-dasharray: 0.8,1.32; stroke-dashoffset: 0; stroke: #000000; stroke-opacity: 0.5; stroke-width: 0.8"/>
     </g>
     <g id="line2d_22">
      <g>
       <use xlink:href="#m80e0fc94ab" x="30.123125" y="171.341867" style="stroke: #000000; stroke-width: 0.8"/>
      </g>
     </g>
     <g id="text_12">
      <!-- 25 -->
      <g transform="translate(10.398125 175.141086) scale(0.1 -0.1)">
       <use xlink:href="#DejaVuSans-32"/>
       <use xlink:href="#DejaVuSans-35" x="63.623047"/>
      </g>
     </g>
    </g>
    <g id="ytick_4">
     <g id="line2d_23">
      <path d="M 30.123125 124.53809 
L 588.123125 124.53809 
" clip-path="url(#p178ca28938)" style="fill: none; stroke-dasharray: 0.8,1.32; stroke-dashoffset: 0; stroke: #000000; stroke-opacity: 0.5; stroke-width: 0.8"/>
     </g>
     <g id="line2d_24">
      <g>
       <use xlink:href="#m80e0fc94ab" x="30.123125" y="124.53809" style="stroke: #000000; stroke-width: 0.8"/>
      </g>
     </g>
     <g id="text_13">
      <!-- 30 -->
      <g transform="translate(10.398125 128.337309) scale(0.1 -0.1)">
       <defs>
        <path id="DejaVuSans-33" d="M 2597 2516 
Q 3050 2419 3304 2112 
Q 3559 1806 3559 1356 
Q 3559 666 3084 287 
Q 2609 -91 1734 -91 
Q 1441 -91 1130 -33 
Q 819 25 488 141 
L 488 750 
Q 750 597 1062 519 
Q 1375 441 1716 441 
Q 2309 441 2620 675 
Q 2931 909 2931 1356 
Q 2931 1769 2642 2001 
Q 2353 2234 1838 2234 
L 1294 2234 
L 1294 2753 
L 1863 2753 
Q 2328 2753 2575 2939 
Q 2822 3125 2822 3475 
Q 2822 3834 2567 4026 
Q 2313 4219 1838 4219 
Q 1578 4219 1281 4162 
Q 984 4106 628 3988 
L 628 4550 
Q 988 4650 1302 4700 
Q 1616 4750 1894 4750 
Q 2613 4750 3031 4423 
Q 3450 4097 3450 3541 
Q 3450 3153 3228 2886 
Q 3006 2619 2597 2516 
z
" transform="scale(0.015625)"/>
       </defs>
       <use xlink:href="#DejaVuSans-33"/>
       <use xlink:href="#DejaVuSans-30" x="63.623047"/>
      </g>
     </g>
    </g>
    <g id="ytick_5">
     <g id="line2d_25">
      <path d="M 30.123125 77.734312 
L 588.123125 77.734312 
" clip-path="url(#p178ca28938)" style="fill: none; stroke-dasharray: 0.8,1.32; stroke-dashoffset: 0; stroke: #000000; stroke-opacity: 0.5; stroke-width: 0.8"/>
     </g>
     <g id="line2d_26">
      <g>
       <use xlink:href="#m80e0fc94ab" x="30.123125" y="77.734312" style="stroke: #000000; stroke-width: 0.8"/>
      </g>
     </g>
     <g id="text_14">
      <!-- 35 -->
      <g transform="translate(10.398125 81.533531) scale(0.1 -0.1)">
       <use xlink:href="#DejaVuSans-33"/>
       <use xlink:href="#DejaVuSans-35" x="63.623047"/>
      </g>
     </g>
    </g>
    <g id="ytick_6">
     <g id="line2d_27">
      <path d="M 30.123125 30.930535 
L 588.123125 30.930535 
" clip-path="url(#p178ca28938)" style="fill: none; stroke-dasharray: 0.8,1.32; stroke-dashoffset: 0; stroke: #000000; stroke-opacity: 0.5; stroke-width: 0.8"/>
     </g>
     <g id="line2d_28">
      <g>
       <use xlink:href="#m80e0fc94ab" x="30.123125" y="30.930535" style="stroke: #000000; stroke-width: 0.8"/>
      </g>
     </g>
     <g id="text_15">
      <!-- 40 -->
      <g transform="translate(10.398125 34.729753) scale(0.1 -0.1)">
       <defs>
        <path id="DejaVuSans-34" d="M 2419 4116 
L 825 1625 
L 2419 1625 
L 2419 4116 
z
M 2253 4666 
L 3047 4666 
L 3047 1625 
L 3713 1625 
L 3713 1100 
L 3047 1100 
L 3047 0 
L 2419 0 
L 2419 1100 
L 313 1100 
L 313 1709 
L 2253 4666 
z
" transform="scale(0.015625)"/>
       </defs>
       <use xlink:href="#DejaVuSans-34"/>
       <use xlink:href="#DejaVuSans-30" x="63.623047"/>
      </g>
     </g>
    </g>
    <g id="text_16">
     <!-- 2-Norm M [Nm] -->
     <g transform="translate(8.318437 177.948125) rotate(-90) scale(0.1 -0.1)">
      <defs>
       <path id="DejaVuSans-2d" d="M 313 2009 
L 1997 2009 
L 1997 1497 
L 313 1497 
L 313 2009 
z
" transform="scale(0.015625)"/>
       <path id="DejaVuSans-4e" d="M 628 4666 
L 1478 4666 
L 3547 763 
L 3547 4666 
L 4159 4666 
L 4159 0 
L 3309 0 
L 1241 3903 
L 1241 0 
L 628 0 
L 628 4666 
z
" transform="scale(0.015625)"/>
       <path id="DejaVuSans-6f" d="M 1959 3097 
Q 1497 3097 1228 2736 
Q 959 2375 959 1747 
Q 959 1119 1226 758 
Q 1494 397 1959 397 
Q 2419 397 2687 759 
Q 2956 1122 2956 1747 
Q 2956 2369 2687 2733 
Q 2419 3097 1959 3097 
z
M 1959 3584 
Q 2709 3584 3137 3096 
Q 3566 2609 3566 1747 
Q 3566 888 3137 398 
Q 2709 -91 1959 -91 
Q 1206 -91 779 398 
Q 353 888 353 1747 
Q 353 2609 779 3096 
Q 1206 3584 1959 3584 
z
" transform="scale(0.015625)"/>
       <path id="DejaVuSans-72" d="M 2631 2963 
Q 2534 3019 2420 3045 
Q 2306 3072 2169 3072 
Q 1681 3072 1420 2755 
Q 1159 2438 1159 1844 
L 1159 0 
L 581 0 
L 581 3500 
L 1159 3500 
L 1159 2956 
Q 1341 3275 1631 3429 
Q 1922 3584 2338 3584 
Q 2397 3584 2469 3576 
Q 2541 3569 2628 3553 
L 2631 2963 
z
" transform="scale(0.015625)"/>
       <path id="DejaVuSans-6d" d="M 3328 2828 
Q 3544 3216 3844 3400 
Q 4144 3584 4550 3584 
Q 5097 3584 5394 3201 
Q 5691 2819 5691 2113 
L 5691 0 
L 5113 0 
L 5113 2094 
Q 5113 2597 4934 2840 
Q 4756 3084 4391 3084 
Q 3944 3084 3684 2787 
Q 3425 2491 3425 1978 
L 3425 0 
L 2847 0 
L 2847 2094 
Q 2847 2600 2669 2842 
Q 2491 3084 2119 3084 
Q 1678 3084 1418 2786 
Q 1159 2488 1159 1978 
L 1159 0 
L 581 0 
L 581 3500 
L 1159 3500 
L 1159 2956 
Q 1356 3278 1631 3431 
Q 1906 3584 2284 3584 
Q 2666 3584 2933 3390 
Q 3200 3197 3328 2828 
z
" transform="scale(0.015625)"/>
       <path id="DejaVuSans-4d" d="M 628 4666 
L 1569 4666 
L 2759 1491 
L 3956 4666 
L 4897 4666 
L 4897 0 
L 4281 0 
L 4281 4097 
L 3078 897 
L 2444 897 
L 1241 4097 
L 1241 0 
L 628 0 
L 628 4666 
z
" transform="scale(0.015625)"/>
      </defs>
      <use xlink:href="#DejaVuSans-32"/>
      <use xlink:href="#DejaVuSans-2d" x="63.623047"/>
      <use xlink:href="#DejaVuSans-4e" x="99.707031"/>
      <use xlink:href="#DejaVuSans-6f" x="174.511719"/>
      <use xlink:href="#DejaVuSans-72" x="235.693359"/>
      <use xlink:href="#DejaVuSans-6d" x="275.056641"/>
      <use xlink:href="#DejaVuSans-20" x="372.46875"/>
      <use xlink:href="#DejaVuSans-4d" x="404.255859"/>
      <use xlink:href="#DejaVuSans-20" x="490.535156"/>
      <use xlink:href="#DejaVuSans-5b" x="522.322266"/>
      <use xlink:href="#DejaVuSans-4e" x="561.335938"/>
      <use xlink:href="#DejaVuSans-6d" x="636.140625"/>
      <use xlink:href="#DejaVuSans-5d" x="733.552734"/>
     </g>
    </g>
   </g>
   <g id="line2d_29">
    <path d="M 30.123125 251.240139 
L 214.868789 251.240139 
L 215.174569 214.965634 
L 215.352363 246.093174 
L 215.668525 245.264784 
L 215.881492 239.23548 
L 216.359289 250.843706 
L 217.134269 259.646905 
L 217.371343 258.701728 
L 217.609101 259.940382 
L 217.84713 256.249389 
L 218.145853 258.810204 
L 218.327664 256.167223 
L 218.804764 257.937774 
L 219.04314 253.477268 
L 219.099552 258.638231 
L 219.337705 256.86715 
L 219.577209 256.04121 
L 219.814463 257.424491 
L 220.112245 256.257573 
L 220.593088 257.324524 
L 220.832019 252.38875 
L 221.127934 257.83978 
L 221.618941 257.693765 
L 221.793381 260.58576 
L 222.326252 257.442226 
L 222.565413 257.573252 
L 222.862676 251.252312 
L 223.250459 254.630177 
L 223.284031 253.79019 
L 224.054822 256.426245 
L 224.536297 254.638608 
L 224.828764 255.317594 
L 225.008197 243.025541 
L 225.246975 257.139833 
L 225.48488 251.989901 
L 225.783985 253.784086 
L 226.080183 247.111715 
L 226.258988 257.320033 
L 226.736293 246.607346 
L 227.052978 253.306937 
L 227.347263 250.044103 
L 227.52707 252.039458 
L 227.704792 251.041381 
L 228.004529 247.649925 
L 228.2416 249.760376 
L 228.540151 248.843592 
L 228.778137 247.67645 
L 229.016015 253.533049 
L 229.315336 255.994236 
L 229.495215 253.525368 
L 229.910847 245.728904 
L 229.971073 253.561144 
L 230.448768 248.468172 
L 230.925624 254.480338 
L 231.169394 249.975247 
L 231.461092 257.748057 
L 231.64355 253.476746 
L 232.234864 247.616869 
L 232.41411 255.226843 
L 232.772152 247.393273 
L 233.010197 239.546203 
L 233.189651 251.434501 
L 233.426944 245.542796 
L 233.665209 244.646124 
L 234.262058 250.850447 
L 234.560156 252.07759 
L 234.739127 242.909744 
L 235.036373 241.933775 
L 235.159733 245.854834 
L 235.456875 244.632107 
L 235.873879 235.455784 
L 236.152149 245.822138 
L 236.380411 244.253751 
L 236.619096 248.927464 
L 237.124182 245.976503 
L 237.362134 250.683892 
L 237.823038 241.994292 
L 237.958255 234.353088 
L 238.081129 239.699169 
L 238.375106 247.184007 
L 238.614552 238.964414 
L 239.089839 251.350553 
L 239.74564 229.916975 
L 240.163568 243.739597 
L 240.469002 243.056142 
L 240.641159 232.189819 
L 240.839294 239.914866 
L 241.15113 240.385878 
L 241.417307 239.603466 
L 241.537532 235.832737 
L 241.797094 236.485638 
L 242.074872 242.998759 
L 242.313392 251.310092 
L 242.61055 235.370879 
L 242.791468 238.25349 
L 243.087029 225.358815 
L 243.326209 230.839104 
L 243.624349 245.385775 
L 243.864177 243.191064 
L 244.046071 235.525653 
L 244.281023 239.271721 
L 244.578787 246.618054 
L 244.75774 234.095436 
L 245.057575 231.169255 
L 245.353135 238.943281 
L 245.533112 238.820751 
L 245.771346 239.755099 
L 246.010666 219.215964 
L 246.25026 235.473759 
L 246.486483 234.112124 
L 247.261493 220.102523 
L 247.322644 238.961853 
L 247.499549 227.888082 
L 247.738568 226.011361 
L 247.977313 232.657087 
L 248.217025 227.170678 
L 248.633886 228.687201 
L 248.754909 232.728689 
L 249.050994 216.967282 
L 249.230972 238.589724 
L 249.825402 221.575974 
L 250.065445 228.040452 
L 250.197543 210.645256 
L 250.480138 219.748436 
L 250.778526 209.492466 
L 251.10823 227.176324 
L 251.35046 227.82396 
L 251.793546 214.165914 
L 251.91476 223.890715 
L 252.211462 220.707907 
L 252.569641 233.765035 
L 252.943275 225.643693 
L 253.223118 213.240088 
L 253.596059 221.451711 
L 253.706875 215.609946 
L 253.949097 217.992491 
L 254.176532 221.936332 
L 254.414511 235.435619 
L 254.772085 222.23204 
L 254.951149 206.563994 
L 255.368012 220.003545 
L 255.487213 211.639573 
L 255.72571 221.543776 
L 255.906162 205.655158 
L 256.263516 221.41844 
L 256.502274 220.210324 
L 256.679177 220.93585 
L 256.919839 229.470737 
L 257.335085 200.581842 
L 257.575925 213.647534 
L 257.812261 199.222002 
L 257.872486 223.841181 
L 258.110123 224.970155 
L 258.408772 219.720939 
L 258.714732 223.831211 
L 258.945141 210.569492 
L 259.183935 216.503225 
L 259.380165 213.507426 
L 259.719814 219.899073 
L 259.958324 200.081766 
L 260.153103 205.913012 
L 260.377085 220.592416 
L 260.63748 210.804345 
L 260.853957 207.260846 
L 261.150946 217.745643 
L 261.507691 219.026368 
L 261.746044 217.145532 
L 261.865445 219.082564 
L 262.282279 210.039825 
L 262.343313 199.864073 
L 262.58071 202.37661 
L 262.9389 209.075507 
L 263.181965 197.328324 
L 263.595345 213.961911 
L 263.894307 212.922023 
L 264.074825 203.113814 
L 264.309736 206.721308 
L 264.548274 199.261257 
L 264.795642 186.147366 
L 265.084502 203.346534 
L 265.263629 204.507229 
L 265.589764 211.308076 
L 265.839685 204.150599 
L 266.278576 197.522963 
L 266.65796 207.115251 
L 267.058163 210.071354 
L 267.411941 210.272815 
L 267.533703 197.119246 
L 267.828523 208.286673 
L 268.014101 198.102948 
L 268.432639 206.119195 
L 268.66939 201.507169 
L 268.782396 213.420485 
L 269.210781 193.356311 
L 269.399388 190.709 
L 269.559354 206.518443 
L 269.740843 201.528344 
L 270.096093 203.060003 
L 270.244804 193.158184 
L 270.57606 206.543223 
L 270.814165 204.393305 
L 271.051486 207.456208 
L 271.232644 191.587219 
L 271.707272 200.591553 
L 272.005238 198.53685 
L 272.600777 182.441262 
L 272.780413 202.954852 
L 273.214384 184.932543 
L 273.49424 199.483245 
L 273.676928 190.674705 
L 273.733969 181.618808 
L 274.154043 194.955209 
L 274.448747 184.033584 
L 274.688678 181.19847 
L 274.92665 186.053062 
L 275.284632 213.739008 
L 275.58223 191.524401 
L 275.709159 171.967227 
L 275.940247 193.7633 
L 276.183647 200.42019 
L 276.476713 192.987772 
L 276.654938 175.276309 
L 276.89657 182.645688 
L 277.310749 191.41871 
L 277.431092 183.099844 
L 277.669096 207.804023 
L 277.912507 185.700218 
L 278.147 185.394143 
L 278.389726 176.478396 
L 278.882733 187.157989 
L 279.104418 198.030971 
L 279.521077 192.297088 
L 279.644821 180.471334 
L 279.879687 188.461468 
L 280.117835 175.64951 
L 280.356532 194.651977 
L 280.655358 197.943437 
L 280.861082 194.245975 
L 281.075381 169.75479 
L 281.848016 202.314416 
L 281.967945 179.312563 
L 282.086192 201.659291 
L 282.503676 166.39798 
L 282.569068 192.441249 
L 282.845801 188.255939 
L 283.11584 185.940206 
L 283.300149 192.814525 
L 283.815288 166.958613 
L 284.052888 184.964407 
L 284.35126 181.848231 
L 284.589595 184.57889 
L 284.827867 174.914025 
L 285.125296 179.178181 
L 285.309372 179.522731 
L 285.544541 169.321399 
L 285.84146 189.756464 
L 286.086887 177.862819 
L 286.31931 173.338989 
L 286.498631 179.907193 
L 286.793973 186.369826 
L 287.033013 185.606773 
L 287.568415 169.162481 
L 287.814733 177.489153 
L 288.046685 179.047772 
L 288.227943 182.60441 
L 288.582163 181.539437 
L 288.772627 172.864177 
L 289.059287 176.721413 
L 289.240755 170.060811 
L 289.5502 172.710684 
L 289.715678 190.428739 
L 289.955778 181.455619 
L 290.253021 178.473977 
L 290.490549 167.62678 
L 290.728749 196.74128 
L 291.226862 180.663092 
L 291.447527 184.967878 
L 291.803087 185.346753 
L 291.982018 193.72056 
L 292.220479 171.25115 
L 292.474488 175.625483 
L 292.700077 167.153676 
L 293.114361 179.820371 
L 293.23364 187.251992 
L 293.531567 172.952274 
L 293.710872 178.886224 
L 294.067926 174.084831 
L 294.246711 193.221129 
L 294.427073 166.511838 
L 294.664199 177.581566 
L 294.961636 185.673426 
L 295.165343 181.38731 
L 295.446431 184.138372 
L 295.739424 183.21479 
L 296.036723 173.488909 
L 296.215985 177.088758 
L 296.573182 180.873608 
L 297.168915 167.110623 
L 297.46677 180.612589 
L 297.649372 162.097355 
L 298.005595 163.408656 
L 298.182339 186.962764 
L 298.421822 169.278231 
L 298.616337 181.133506 
L 299.27704 175.190323 
L 299.520358 173.014328 
L 299.688283 160.195398 
L 299.919438 188.517394 
L 300.15821 187.110203 
L 300.459561 177.816479 
L 300.707047 184.028177 
L 300.933861 171.135901 
L 301.075791 178.892982 
L 301.550623 164.295623 
L 301.622126 173.284237 
L 301.909523 174.534129 
L 302.147583 166.329873 
L 302.328316 182.576542 
L 302.684087 191.010302 
L 302.863023 176.484535 
L 303.401839 171.964853 
L 303.637999 183.193873 
L 304.122059 166.607637 
L 304.35329 177.211198 
L 304.710537 180.949041 
L 304.83295 6.050769 
L 305.425805 34.522194 
L 305.856091 156.723163 
L 306.200463 154.302486 
L 306.322127 177.749615 
L 306.5592 194.293988 
L 306.858029 184.685577 
L 307.214392 187.365521 
L 307.302903 189.668552 
L 307.637296 193.320509 
L 307.954502 192.272565 
L 308.072346 192.356144 
L 308.315617 192.759001 
L 308.615877 186.639623 
L 308.730339 186.902601 
L 309.031207 186.675918 
L 309.680858 186.872243 
L 309.800414 185.192208 
L 309.979502 185.349721 
L 310.339239 186.943587 
L 310.579398 187.197444 
L 310.815115 185.589505 
L 311.118203 182.408483 
L 311.235178 185.178759 
L 311.53079 180.66018 
L 311.768573 184.988448 
L 311.948446 185.473792 
L 312.245044 185.164249 
L 312.485119 185.46359 
L 312.722319 187.03938 
L 312.960637 186.300822 
L 313.20461 185.922333 
L 313.498378 187.919155 
L 313.737928 187.412276 
L 313.977518 185.685689 
L 314.21232 185.13046 
L 314.460792 185.675091 
L 314.690364 185.40601 
L 314.930803 185.40033 
L 315.168853 182.098431 
L 315.584216 182.48556 
L 315.70406 191.671844 
L 316.124502 183.545034 
L 316.189983 186.972023 
L 316.42247 184.843819 
L 316.718399 185.512645 
L 317.25364 184.533755 
L 317.432363 185.092128 
L 317.671794 187.406851 
L 317.914895 187.077334 
L 318.151071 185.866941 
L 318.472675 186.822652 
L 318.862617 184.900679 
L 318.922266 186.003262 
L 319.160947 185.29573 
L 319.399299 185.502197 
L 319.640538 184.880536 
L 319.876818 187.397176 
L 320.115788 187.770508 
L 320.414559 183.384567 
L 320.792128 185.674809 
L 320.895645 183.746667 
L 321.128649 181.997762 
L 321.365787 186.871958 
L 321.783254 185.353332 
L 321.902576 185.42688 
L 322.20126 185.476264 
L 322.381606 183.632192 
L 322.677386 185.125509 
L 322.932735 182.997312 
L 323.41857 186.278637 
L 323.639132 184.478321 
L 323.868976 184.979255 
L 324.108231 185.153313 
L 324.34571 186.37425 
L 325.12305 183.888939 
L 325.361729 185.938288 
L 325.600816 185.257213 
L 325.846358 183.569725 
L 326.201405 186.727664 
L 326.643248 185.14491 
L 326.851781 185.247711 
L 327.089964 183.980903 
L 327.329977 181.992639 
L 327.59223 183.186235 
L 327.805164 186.134064 
L 328.283766 186.153915 
L 328.521239 184.603588 
L 328.937897 185.632633 
L 329.057741 186.304956 
L 329.356767 184.891784 
L 329.537129 185.461431 
L 329.78167 187.447061 
L 330.165083 183.514258 
L 330.278403 186.063263 
L 330.564545 185.439189 
L 330.611606 185.025336 
L 330.911342 187.605258 
L 331.03036 184.957168 
L 331.446123 185.358517 
L 331.565456 185.115044 
L 331.743592 185.466771 
L 332.04186 186.376091 
L 332.340041 182.805028 
L 332.518753 184.926847 
L 332.757093 185.35518 
L 332.99575 185.083314 
L 333.235316 186.204687 
L 333.537494 183.975632 
L 333.712145 183.911398 
L 334.010529 186.251691 
L 334.212859 185.69101 
L 334.486028 185.519643 
L 334.844506 182.644511 
L 334.984644 185.468493 
L 335.202518 185.459711 
L 335.439937 185.746488 
L 335.857013 185.238654 
L 335.975787 186.234103 
L 336.274475 185.384917 
L 336.455364 184.508295 
L 336.693752 185.195512 
L 337.001593 184.804927 
L 337.229844 183.954004 
L 337.413717 186.763705 
L 337.705231 184.956146 
L 338.006855 184.969735 
L 338.243577 187.019873 
L 338.421009 184.071081 
L 338.667195 185.644649 
L 338.956836 186.168696 
L 339.253907 185.731694 
L 339.432863 185.031101 
L 339.672038 185.421979 
L 340.091225 185.751813 
L 340.151334 185.308764 
L 340.645943 185.527864 
L 340.870602 183.942765 
L 341.223721 185.559873 
L 341.462412 185.478486 
L 341.75994 184.897912 
L 342.177346 187.752413 
L 342.475516 184.642472 
L 342.653848 184.936227 
L 342.95267 185.997828 
L 343.130565 187.518439 
L 343.487863 181.936245 
L 343.668495 185.83796 
L 343.965723 184.527899 
L 344.263637 185.784331 
L 344.383512 185.130254 
L 344.621943 182.377883 
L 344.978549 185.957538 
L 345.397608 185.652934 
L 345.81238 187.264708 
L 346.110473 183.834938 
L 346.349482 185.492047 
L 346.587455 185.182207 
L 346.886033 185.636201 
L 347.183678 185.465688 
L 347.311673 182.714419 
L 347.613688 185.462092 
L 347.850702 185.496642 
L 348.315877 182.423358 
L 348.735232 182.775823 
L 348.852659 186.104221 
L 349.034394 185.282236 
L 349.388337 185.662709 
L 349.687634 185.17163 
L 349.820433 184.382903 
L 350.23982 185.456215 
L 350.347068 184.080423 
L 350.585169 183.922941 
L 350.823744 185.798274 
L 351.068503 185.772009 
L 351.360174 185.415578 
L 351.538949 185.689243 
L 351.843685 184.737908 
L 352.085238 183.112306 
L 352.374827 187.274143 
L 352.496506 183.594037 
L 352.749419 185.201185 
L 353.035816 183.857928 
L 353.281986 185.554758 
L 353.507395 185.434158 
L 353.80595 184.944822 
L 354.044395 186.386341 
L 354.282966 185.609597 
L 354.570502 183.747555 
L 354.823842 187.484483 
L 355.043759 185.285015 
L 355.242315 185.805784 
L 355.536683 182.623486 
L 356.013465 185.384731 
L 356.250857 185.72966 
L 356.549483 185.046655 
L 356.72794 185.505831 
L 356.966011 185.067398 
L 357.263948 187.608007 
L 357.561894 185.64842 
L 357.740879 185.898235 
L 358.050798 182.713409 
L 358.282011 185.462548 
L 358.757957 185.376359 
L 358.933597 185.035526 
L 359.233515 185.456563 
L 359.468466 184.092896 
L 359.785285 183.924213 
L 359.948326 185.972315 
L 360.249998 183.065416 
L 360.546592 185.484436 
L 360.734118 185.116651 
L 360.965153 185.315909 
L 361.149668 186.097273 
L 361.442071 186.003639 
L 361.86062 187.688064 
L 361.981036 184.549001 
L 362.398402 185.755979 
L 362.635531 185.263323 
L 362.932628 182.830286 
L 363.175411 185.054578 
L 363.409448 185.11826 
L 363.648137 185.61718 
L 363.94589 185.208268 
L 364.481886 183.382628 
L 365.017356 185.776575 
L 365.139245 185.178887 
L 365.554762 182.514861 
L 365.613505 187.967719 
L 365.976781 185.847867 
L 366.269872 184.926749 
L 366.332753 185.184768 
L 366.700822 185.246443 
L 366.866221 185.695579 
L 367.106846 184.094906 
L 367.461739 185.660664 
L 367.641495 185.485724 
L 367.945628 184.2271 
L 368.121376 187.639399 
L 368.35622 185.822083 
L 368.895572 185.68372 
L 369.074435 182.008863 
L 369.311398 182.514335 
L 369.591203 185.904349 
L 370.08782 185.439615 
L 370.326098 185.51705 
L 370.623659 182.543972 
L 370.803099 185.513265 
L 371.161904 184.968352 
L 371.399072 186.694581 
L 371.577905 186.089054 
L 371.935788 185.796166 
L 372.054832 184.52403 
L 372.294083 184.686514 
L 372.59185 184.40795 
L 372.829735 185.587074 
L 373.187115 185.648272 
L 373.365295 185.276863 
L 373.790608 185.506692 
L 374.021489 186.375068 
L 374.261248 184.064497 
L 374.55858 185.958856 
L 374.736954 185.057789 
L 375.03509 185.635895 
L 375.273504 185.483412 
L 375.511584 183.27917 
L 375.750485 185.69218 
L 375.988153 186.01537 
L 376.644826 183.709135 
L 376.76228 182.607874 
L 377.062374 185.364908 
L 377.358092 185.661586 
L 377.602641 186.956616 
L 377.775253 183.153615 
L 378.192794 185.521235 
L 378.253396 185.308828 
L 378.492265 185.155047 
L 378.908437 185.506257 
L 379.02867 181.925498 
L 379.324471 187.01004 
L 379.504047 185.273918 
L 379.741872 185.34958 
L 379.980884 182.804043 
L 380.457053 185.522317 
L 380.699009 185.850198 
L 380.993722 185.325717 
L 381.471822 185.478245 
L 381.829452 185.467211 
L 381.947747 184.190272 
L 382.486546 187.680202 
L 383.198707 185.554008 
L 383.577145 185.530808 
L 383.681727 185.261433 
L 383.914675 186.554771 
L 384.154398 183.226964 
L 384.634599 185.706816 
L 385.04816 182.788681 
L 385.271762 186.886101 
L 385.406104 185.784945 
L 385.643919 185.778844 
L 385.882286 185.615343 
L 386.418484 185.855599 
L 386.776852 184.859739 
L 386.895865 183.215978 
L 387.194361 184.672959 
L 387.437755 185.000086 
L 387.67107 184.139337 
L 387.90932 185.104904 
L 388.089 185.243405 
L 388.32973 185.724024 
L 388.626809 185.903404 
L 388.863173 185.682123 
L 389.101136 183.587792 
L 389.459441 185.511672 
L 389.637792 184.768561 
L 389.876192 185.249035 
L 390.114282 182.843957 
L 390.353094 185.508182 
L 390.652496 185.640785 
L 391.009992 184.892054 
L 391.249654 184.79998 
L 391.487436 187.352045 
L 391.606455 183.590333 
L 392.085061 185.987009 
L 392.330558 184.290409 
L 392.620619 183.61367 
L 392.861108 185.801218 
L 393.096953 186.014736 
L 393.395828 185.194289 
L 393.575418 185.734384 
L 393.874001 187.614155 
L 394.051656 183.962224 
L 394.289948 185.63954 
L 394.528838 185.442343 
L 394.826644 184.76611 
L 395.017934 187.202249 
L 395.253901 185.570408 
L 395.542864 185.064807 
L 396.022818 185.936512 
L 396.261625 184.595094 
L 396.568199 187.427751 
L 396.795982 185.291126 
L 397.005417 185.869093 
L 397.272992 186.15943 
L 397.51473 187.601313 
L 397.752949 185.723968 
L 398.046873 185.810522 
L 398.287625 184.856706 
L 398.583536 185.278632 
L 398.764426 187.788931 
L 399.001204 187.631827 
L 399.240305 185.044894 
L 399.481113 185.344629 
L 399.838134 184.324011 
L 400.018676 187.741684 
L 400.25682 185.508265 
L 400.538311 185.426398 
L 400.855 185.923054 
L 401.090948 183.62165 
L 401.210035 187.41907 
L 401.449325 187.561414 
L 401.746659 185.080572 
L 402.046233 185.250909 
L 402.226328 186.136665 
L 402.464686 184.508614 
L 402.763464 185.422153 
L 402.940715 185.124345 
L 403.239956 185.214851 
L 403.477521 186.222379 
L 403.716528 182.434215 
L 404.133001 185.472612 
L 404.205773 185.058575 
L 404.491892 185.562218 
L 404.682655 186.414786 
L 405.07707 183.476803 
L 405.205132 186.23707 
L 405.435072 185.480442 
L 405.735142 185.105543 
L 406.092994 185.2178 
L 406.153896 182.774967 
L 406.450599 185.977263 
L 406.688351 185.903099 
L 407.179976 185.456862 
L 407.583542 185.94886 
L 407.643511 185.77627 
L 407.941894 186.032625 
L 408.184239 185.409862 
L 408.425461 186.569109 
L 408.622583 184.501192 
L 408.897019 186.585074 
L 409.674777 184.998865 
L 410.092038 185.527417 
L 410.151255 185.252577 
L 410.390744 186.239122 
L 410.746981 185.656668 
L 410.925592 183.645701 
L 411.107896 183.71965 
L 411.34439 183.213481 
L 411.582876 185.316597 
L 411.90175 185.477455 
L 412.121829 185.242757 
L 412.358327 186.936911 
L 412.595369 185.337552 
L 412.834441 185.599079 
L 413.132538 185.330785 
L 413.313562 185.831252 
L 413.846124 186.297376 
L 413.854636 131.011697 
L 414.089273 185.76631 
L 414.445526 183.009849 
L 414.625302 184.101955 
L 414.872439 184.203696 
L 415.104651 185.735881 
L 415.46129 185.778748 
L 415.580891 183.889173 
L 415.765633 185.703426 
L 416.057363 186.102639 
L 416.29602 185.463702 
L 416.53552 185.610363 
L 416.775368 186.06472 
L 417.194986 187.698165 
L 417.249598 182.73615 
L 417.60875 185.364537 
L 417.792339 185.16339 
L 418.026852 185.485089 
L 418.265783 185.533481 
L 418.685412 185.427785 
L 418.81039 184.223178 
L 419.065712 185.710791 
L 419.279479 183.020932 
L 419.526752 183.401696 
L 419.578401 186.160211 
L 419.817293 186.936693 
L 420.056721 185.446547 
L 420.239457 186.12665 
L 420.476212 185.351211 
L 420.771635 185.43727 
L 421.016292 187.041864 
L 421.248394 187.777984 
L 421.725162 182.094726 
L 421.964634 181.746049 
L 422.524135 185.520275 
L 422.742295 185.63704 
L 422.977964 141.84711 
L 423.217836 177.847639 
L 423.463809 175.58677 
L 423.71597 177.561834 
L 423.948356 186.385062 
L 424.182209 177.138516 
L 424.441549 180.381527 
L 424.77729 179.546013 
L 425.083864 188.004909 
L 425.214343 184.950739 
L 425.498742 184.465326 
L 425.741988 195.684135 
L 426.396486 178.999613 
L 426.938394 193.696073 
L 427.413328 184.094862 
L 427.783895 189.228341 
L 427.944655 196.383089 
L 428.247611 184.651808 
L 428.482465 185.592802 
L 428.720579 187.977441 
L 429.021035 183.879276 
L 429.260467 184.31737 
L 429.568158 178.229404 
L 429.711448 185.01528 
L 429.862725 185.081122 
L 430.398889 192.642432 
L 430.879803 184.302563 
L 431.229767 181.838717 
L 431.434036 184.878574 
L 431.647958 175.331658 
L 431.94717 181.667644 
L 432.125555 197.805389 
L 432.364081 189.458472 
L 432.605916 199.035813 
L 433.080902 179.225231 
L 433.437867 189.528074 
L 433.881968 185.946246 
L 434.096693 196.80313 
L 434.502401 179.270918 
L 434.927308 191.110826 
L 435.157711 182.80642 
L 435.455677 192.548747 
L 435.636023 182.334218 
L 435.814278 184.94548 
L 436.291054 187.66458 
L 436.41292 185.750239 
L 436.649919 186.382725 
L 436.831453 189.184223 
L 437.186556 182.584826 
L 437.312162 191.086298 
L 437.570496 193.668677 
L 437.843319 189.904282 
L 438.081803 185.030369 
L 438.323842 186.180032 
L 438.559792 198.900656 
L 438.802744 189.345529 
L 439.037712 195.417487 
L 439.276447 183.975651 
L 439.525204 183.263202 
L 439.758679 179.056138 
L 440.05765 192.679522 
L 440.245579 184.978139 
L 440.535103 180.433626 
L 440.773037 180.384036 
L 441.012501 188.545976 
L 441.428656 188.899335 
L 441.516433 185.434986 
L 441.787362 194.74102 
L 442.084382 185.839199 
L 442.382254 186.460217 
L 442.562402 180.979247 
L 442.800832 180.986312 
L 443.046215 190.29506 
L 443.278965 188.580352 
L 443.459506 189.069752 
L 443.69767 196.979688 
L 443.947028 194.409351 
L 444.233485 189.868865 
L 444.718411 180.371963 
L 445.089995 186.496857 
L 445.253115 183.870165 
L 445.309914 192.646139 
L 445.429631 188.61445 
L 445.754679 187.51867 
L 445.965514 176.027786 
L 446.385918 189.842738 
L 446.46744 179.847312 
L 446.692181 183.350189 
L 446.921039 199.910824 
L 447.160166 178.954871 
L 447.581647 183.377879 
L 447.77106 190.634121 
L 448.007332 174.208286 
L 448.187218 182.698804 
L 448.604346 196.417274 
L 448.665006 183.331187 
L 449.082957 202.078243 
L 449.321269 189.633329 
L 449.382798 191.912933 
L 449.916047 179.921127 
L 450.39305 191.659847 
L 450.810193 185.759986 
L 450.929587 188.517003 
L 451.168624 183.003271 
L 451.412842 188.382159 
L 451.467111 185.619496 
L 451.647295 186.580047 
L 451.884706 173.228302 
L 452.125859 189.211367 
L 452.421661 181.16575 
L 452.60151 187.245735 
L 453.081445 184.665919 
L 453.379988 184.393491 
L 453.61798 191.229941 
L 453.860324 188.673182 
L 454.156172 188.119426 
L 454.574673 172.417816 
L 454.872956 195.516005 
L 455.059449 186.371736 
L 455.616064 193.775098 
L 455.830337 177.896632 
L 456.088598 184.695353 
L 456.304292 184.376434 
L 456.543655 184.81897 
L 456.791016 196.879449 
L 457.08999 184.596142 
L 457.331101 186.122308 
L 457.629665 175.402254 
L 457.86423 190.981432 
L 458.103932 182.952531 
L 458.283498 188.309667 
L 458.581721 200.74715 
L 458.819546 191.792495 
L 459.21735 187.323996 
L 459.541358 194.106626 
L 459.932015 192.261496 
L 460.074569 184.764721 
L 460.381478 191.128357 
L 460.5515 182.074926 
L 460.799795 192.072895 
L 461.269733 188.363722 
L 461.513684 187.915202 
L 461.748647 186.339964 
L 462.055702 185.613143 
L 462.30345 188.093619 
L 462.527031 174.253759 
L 462.764051 191.993836 
L 463.302327 176.991352 
L 463.485536 201.186963 
L 463.782033 191.871413 
L 464.077098 187.689362 
L 464.256499 190.106895 
L 464.674389 187.505957 
L 465.020548 197.701694 
L 465.488509 176.021276 
L 465.790576 197.151694 
L 465.97518 183.67484 
L 466.26574 187.763048 
L 466.57014 195.272037 
L 466.745966 193.279519 
L 466.935855 180.530266 
L 467.460772 201.241447 
L 467.699642 187.330443 
L 467.937374 184.933634 
L 468.176245 191.779061 
L 468.415774 178.742104 
L 468.83277 183.678761 
L 468.981905 194.210372 
L 469.370258 185.333316 
L 469.48914 197.652646 
L 469.727716 189.423203 
L 469.966174 202.16878 
L 470.263839 188.672365 
L 470.655533 194.476447 
L 470.92555 185.244922 
L 471.22054 190.401387 
L 471.419186 184.982174 
L 471.638963 192.144869 
L 471.879649 180.307847 
L 472.25946 189.496791 
L 472.417567 185.620171 
L 472.65317 188.080027 
L 472.921173 197.92655 
L 473.43748 183.265028 
L 473.732515 185.118053 
L 473.921895 189.92881 
L 474.160422 190.92892 
L 474.41647 185.66852 
L 474.828936 189.671094 
L 475.121189 191.162059 
L 475.41949 180.777947 
L 475.717586 191.124356 
L 475.8371 191.069741 
L 476.134988 189.899242 
L 476.381417 185.799657 
L 476.629215 185.80641 
L 477.091035 189.739824 
L 477.389133 185.324473 
L 477.627668 189.086319 
L 477.868291 185.987525 
L 478.10364 188.623636 
L 478.342011 194.458087 
L 478.826827 186.85389 
L 479.060672 190.713669 
L 479.297561 190.437288 
L 479.657767 192.71856 
L 479.834829 190.226716 
L 480.372025 196.759475 
L 480.908489 179.02201 
L 481.160632 192.629833 
L 481.327084 187.574512 
L 481.625403 193.831769 
L 481.863208 182.537743 
L 482.101703 189.933612 
L 482.304165 188.702132 
L 482.520064 201.63272 
L 482.821931 202.452647 
L 483.361665 191.375436 
L 483.533599 198.070395 
L 483.774518 182.238366 
L 484.326117 192.457232 
L 484.505097 190.785304 
L 484.74324 199.015562 
L 485.221327 193.411213 
L 485.281302 189.18036 
L 485.579122 185.928186 
L 485.761522 190.631821 
L 486.00095 191.830741 
L 486.234616 191.871098 
L 486.712954 175.837947 
L 487.011874 196.518109 
L 487.308375 189.054336 
L 487.789707 201.560042 
L 488.264475 185.216903 
L 488.551393 189.672095 
L 488.74236 189.422617 
L 488.947743 187.987476 
L 489.223121 190.780371 
L 489.567603 201.905179 
L 489.765197 184.487293 
L 490.241965 197.798573 
L 490.480897 174.099125 
L 490.719876 196.279646 
L 490.957726 191.537104 
L 491.196684 191.162758 
L 491.437921 200.840606 
L 491.7338 193.432931 
L 491.913495 181.85475 
L 492.229516 194.711549 
L 492.270594 193.729648 
L 492.449396 191.305555 
L 492.750643 182.433776 
L 493.046267 192.445858 
L 493.224707 186.044215 
L 493.705361 195.451292 
L 493.941431 180.554373 
L 494.186117 193.028632 
L 494.378916 193.502315 
L 494.671594 193.32164 
L 494.896223 207.10795 
L 495.135806 195.515432 
L 495.492868 189.062079 
L 495.671719 192.78875 
L 495.8502 176.894877 
L 496.270408 196.940492 
L 496.327882 195.421912 
L 496.689799 196.119711 
L 496.932019 189.756914 
L 497.168272 196.055763 
L 497.402562 192.803211 
L 497.640581 196.207703 
L 497.886356 204.926477 
L 498.36707 190.597993 
L 498.61362 194.614733 
L 498.851685 188.894051 
L 499.095647 192.242778 
L 499.328344 197.753437 
L 499.626206 185.087744 
L 499.810671 203.100209 
L 500.105505 189.313832 
L 500.407404 184.607427 
L 500.640172 183.428024 
L 501.118825 205.429656 
L 501.54229 180.995501 
L 501.595042 200.142019 
L 501.833482 183.166405 
L 502.311959 193.213126 
L 502.552589 206.622492 
L 503.047454 192.545436 
L 503.35207 194.525727 
L 503.566242 188.527657 
L 503.822888 189.994363 
L 504.044032 198.025423 
L 504.28324 195.690736 
L 504.522981 191.349596 
L 504.834976 188.808558 
L 505.300663 195.673286 
L 505.535876 194.085396 
L 506.018683 192.968652 
L 506.191851 194.56973 
L 506.323481 188.325677 
L 506.51083 203.750335 
L 506.868182 180.64258 
L 507.310485 199.085737 
L 507.777893 190.931917 
L 508.020555 190.767436 
L 508.382825 189.405125 
L 508.779841 201.806198 
L 509.136823 197.020407 
L 509.322995 204.27365 
L 509.498514 198.854008 
L 509.793481 214.421885 
L 510.100802 189.601897 
L 510.273436 187.592581 
L 510.57202 195.458639 
L 510.750414 193.572655 
L 511.008762 196.941528 
L 511.345579 207.493504 
L 511.480353 192.457019 
L 511.762084 214.86021 
L 512.059912 191.059608 
L 512.242212 196.79678 
L 512.479777 188.717728 
L 512.735515 203.210568 
L 513.015383 194.661416 
L 513.493993 201.652702 
L 513.737555 188.210544 
L 513.98405 199.58291 
L 514.271062 194.847714 
L 514.448245 196.140923 
L 515.118139 197.272889 
L 515.464023 198.124073 
L 515.751347 197.621423 
L 516.001092 197.737364 
L 516.47737 197.178902 
L 516.537113 197.250663 
L 516.895872 197.27456 
L 517.02374 197.04038 
L 517.313039 197.468544 
L 517.434501 197.264435 
L 518.510826 197.718752 
L 518.628969 197.49539 
L 520.550263 197.639631 
L 520.787013 197.309669 
L 520.905252 193.838804 
L 521.153729 197.550632 
L 521.510954 198.071142 
L 521.688459 198.0717 
L 521.867987 197.683149 
L 522.284766 197.60739 
L 522.525965 197.153999 
L 522.88244 198.043038 
L 523.060019 197.335561 
L 523.241434 197.327874 
L 523.502993 198.054964 
L 523.621431 197.478481 
L 524.328604 197.487757 
L 524.560008 197.277661 
L 524.856122 195.183543 
L 525.090462 199.545372 
L 525.344652 197.508143 
L 525.566766 197.48624 
L 525.865341 198.622562 
L 526.071316 198.040909 
L 526.340708 197.963075 
L 526.648874 197.256467 
L 526.88049 197.698793 
L 527.599616 197.591643 
L 527.836698 197.565816 
L 528.146629 197.390394 
L 528.5587 197.58626 
L 528.86213 197.416922 
L 529.192142 197.539124 
L 529.329976 197.712562 
L 529.807921 197.60903 
L 530.823476 197.550365 
L 532.013949 197.538971 
L 532.256848 197.848302 
L 532.545156 197.524298 
L 534.532866 197.542091 
L 535.246214 197.524213 
L 537.931567 197.529839 
L 541.389533 197.523113 
L 553.54455 197.525144 
L 558.428 197.508788 
L 558.968824 197.511764 
L 563.17224 197.524898 
L 564.424624 197.520689 
L 566.886997 197.51558 
L 576.511705 197.522362 
L 579.077233 197.519045 
L 580.270002 197.52098 
L 582.184765 197.513417 
L 588.123125 197.515653 
L 588.123125 197.515653 
" clip-path="url(#p178ca28938)" style="fill: none; stroke: #0000ff; stroke-opacity: 0.5; stroke-width: 1.5; stroke-linecap: square"/>
   </g>
   <g id="line2d_30">
    <path d="M 30.123125 258.041183 
L 30.243229 256.123134 
L 30.486116 257.06261 
L 30.557313 258.730425 
L 30.731329 256.87621 
L 31.037373 257.314239 
L 31.327909 257.121693 
L 31.506195 257.156274 
L 31.923103 258.146927 
L 32.162159 257.217441 
L 32.221858 257.444317 
L 32.639196 257.900616 
L 32.877472 257.846187 
L 32.997127 258.054022 
L 33.17951 258.061289 
L 33.711815 258.416126 
L 33.949895 258.112489 
L 34.249184 257.186072 
L 34.548368 257.876168 
L 34.784407 256.80124 
L 35.202211 257.632564 
L 35.440196 256.493857 
L 35.680758 257.874814 
L 35.921247 257.341664 
L 36.219665 258.17899 
L 36.45436 256.990862 
L 36.692543 257.901185 
L 36.991361 258.152399 
L 37.290297 258.805831 
L 37.477325 257.408404 
L 37.795109 257.736462 
L 37.9492 257.61514 
L 38.187362 257.862736 
L 38.426084 257.564065 
L 38.845069 256.359349 
L 39.025819 257.747798 
L 39.141686 257.225691 
L 39.386493 258.21844 
L 39.623805 257.034946 
L 40.157225 257.649616 
L 40.761003 257.688776 
L 42.062125 257.932928 
L 44.671261 257.512528 
L 47.281433 257.708217 
L 48.705717 258.089723 
L 50.128922 257.343816 
L 51.434106 257.7079 
L 51.57471 257.870779 
L 52.050631 256.703992 
L 52.289467 256.80361 
L 52.586503 258.653691 
L 52.886204 258.871366 
L 53.065614 257.119492 
L 53.302218 258.600577 
L 53.486445 258.197016 
L 53.724718 256.820279 
L 54.024313 259.13291 
L 54.259287 259.237233 
L 54.556581 257.72537 
L 54.736482 258.52512 
L 54.976679 259.064739 
L 55.273244 257.728452 
L 55.467003 258.362157 
L 55.751287 258.833517 
L 56.046961 257.768528 
L 56.345893 258.450384 
L 56.465073 257.59793 
L 56.704089 257.330637 
L 56.944147 259.952455 
L 57.256521 259.718185 
L 57.480569 257.692921 
L 57.728825 259.123361 
L 58.017138 258.96693 
L 58.198507 257.851683 
L 58.554841 260.616288 
L 58.73306 259.300082 
L 59.034689 258.328082 
L 59.209199 259.209348 
L 59.44949 258.230763 
L 59.745617 257.80826 
L 60.403984 260.276121 
L 60.944152 256.499901 
L 61.237203 257.892348 
L 61.475829 259.733541 
L 61.715964 258.095057 
L 61.958846 257.745417 
L 62.143661 259.962232 
L 62.438157 258.894062 
L 62.912993 256.282379 
L 63.03352 256.804746 
L 63.209892 258.218815 
L 63.690549 259.094781 
L 63.985083 257.552039 
L 64.22513 257.218154 
L 64.402948 258.144681 
L 64.879419 257.539188 
L 65.062323 257.029402 
L 65.416545 258.419918 
L 65.655168 258.130849 
L 66.13269 256.218475 
L 66.430089 257.498066 
L 66.727873 257.646558 
L 66.970351 257.090974 
L 67.337045 258.452409 
L 67.384113 257.909503 
L 67.623363 258.044763 
L 67.920084 258.041232 
L 68.099572 257.780653 
L 68.400149 259.870041 
L 68.635181 259.847005 
L 68.831969 257.900681 
L 69.351435 259.373599 
L 69.648721 257.450661 
L 69.828646 257.336784 
L 70.066015 258.713245 
L 70.604592 258.755522 
L 70.841707 257.168134 
L 71.081502 257.675756 
L 71.319329 258.452504 
L 71.556813 257.572485 
L 71.916442 256.76469 
L 72.107502 258.886546 
L 72.332629 259.828567 
L 72.813078 256.177791 
L 73.405631 258.128158 
L 73.533411 256.560043 
L 74.06134 260.095683 
L 74.240998 258.612713 
L 74.479719 255.646998 
L 74.836059 255.740619 
L 75.014712 258.256874 
L 75.252807 258.174972 
L 75.492926 256.278565 
L 75.730169 257.144667 
L 76.03133 259.020421 
L 76.326464 257.891153 
L 76.504579 255.719644 
L 76.74421 255.719723 
L 76.9816 257.462736 
L 77.220316 258.094886 
L 77.459085 258.233176 
L 77.828201 258.853038 
L 78.054836 258.544693 
L 78.513437 255.801032 
L 78.949354 259.512211 
L 79.247934 259.905499 
L 79.723821 255.934235 
L 80.023563 255.484973 
L 80.207078 256.427263 
L 81.156745 259.482713 
L 81.529073 259.200581 
L 81.701524 257.323184 
L 82.16885 257.604596 
L 82.28836 258.777944 
L 82.525984 259.211666 
L 82.76482 259.12422 
L 82.884097 258.62799 
L 83.301675 258.366822 
L 83.42214 257.967831 
L 83.65888 258.189296 
L 84.135196 258.880631 
L 84.374481 258.289029 
L 84.910127 254.983164 
L 85.110066 254.746302 
L 85.62518 256.570414 
L 86.1616 253.895773 
L 86.462427 255.293136 
L 86.639769 257.651387 
L 86.877809 258.801188 
L 87.119265 258.860389 
L 87.512143 258.703216 
L 87.68467 258.848182 
L 88.193412 257.606625 
L 88.249164 257.914895 
L 88.315062 259.620142 
L 88.610062 260.410717 
L 88.906364 258.422447 
L 89.110173 255.679417 
L 89.400225 255.552375 
L 89.823044 260.269264 
L 90.099263 259.53538 
L 90.337841 258.194663 
L 90.64591 259.088563 
L 90.945765 259.181181 
L 91.415977 256.262533 
L 92.011313 258.209227 
L 92.146557 260.099032 
L 93.488713 257.607873 
L 94.785954 257.988388 
L 96.214674 257.887995 
L 96.293872 260.708217 
L 96.711862 255.859165 
L 97.074424 254.318704 
L 97.308195 254.141285 
L 97.686532 255.170699 
L 97.92573 256.301351 
L 98.047122 255.834475 
L 98.308958 254.345183 
L 98.475806 252.571269 
L 98.710281 251.73267 
L 99.00831 252.389777 
L 99.308481 254.76285 
L 99.485287 257.851325 
L 99.968119 261.495834 
L 100.260785 260.084131 
L 100.738207 256.954145 
L 101.097679 258.239327 
L 101.216585 260.682781 
L 101.513104 261.693882 
L 101.812573 260.248743 
L 102.174517 255.245586 
L 102.415399 253.772681 
L 102.672407 254.607816 
L 102.911282 257.055811 
L 103.197331 257.499168 
L 103.670041 254.383636 
L 103.909831 254.850847 
L 104.412879 258.725846 
L 104.945448 259.725722 
L 105.161456 258.596967 
L 105.408597 258.694522 
L 105.951772 262.585412 
L 106.160856 262.13588 
L 106.503376 259.596364 
L 106.656363 257.211252 
L 106.934132 257.309251 
L 107.557411 258.81625 
L 107.622378 259.71719 
L 107.836389 258.424817 
L 107.924162 256.695848 
L 108.096103 256.18991 
L 108.403218 256.616108 
L 108.751208 256.649388 
L 108.869716 256.493135 
L 109.346408 257.492096 
L 109.826568 257.441666 
L 110.070783 257.644699 
L 110.548337 259.073107 
L 110.909811 258.402771 
L 111.14379 257.342057 
L 111.441506 259.03441 
L 111.565491 260.916065 
L 111.918924 260.071554 
L 112.226819 258.14752 
L 112.336216 258.51488 
L 112.543413 260.706644 
L 112.814414 261.154983 
L 113.291501 256.018149 
L 113.770127 257.181689 
L 114.245108 257.134681 
L 114.310838 258.216504 
L 114.556275 259.105482 
L 115.317793 255.454661 
L 115.794341 259.832266 
L 115.976003 259.499986 
L 116.270541 259.496395 
L 116.569447 259.370274 
L 116.750403 257.757184 
L 117.047544 256.402189 
L 117.285619 256.328783 
L 117.477914 257.78416 
L 117.768034 259.009573 
L 118.24798 257.489394 
L 118.72141 258.285907 
L 119.375468 257.626528 
L 119.494707 257.868381 
L 119.732972 258.684657 
L 120.09092 259.118448 
L 120.210514 258.95597 
L 120.448563 258.888902 
L 120.747784 258.669527 
L 121.341609 258.976905 
L 121.701278 260.086907 
L 121.939221 259.891266 
L 122.415395 257.747381 
L 122.714459 257.226486 
L 123.190873 257.757485 
L 123.430234 257.13934 
L 123.691312 256.12326 
L 123.908968 255.897788 
L 124.398758 256.412745 
L 124.700735 257.849999 
L 124.889447 259.566511 
L 125.220204 258.89674 
L 125.401555 256.716982 
L 125.668755 257.177068 
L 125.894202 259.674825 
L 126.131985 259.734499 
L 126.372849 257.455642 
L 126.608482 256.905157 
L 127.144875 259.417192 
L 127.68191 255.929271 
L 127.920227 256.515364 
L 128.157959 258.121203 
L 128.517721 257.309202 
L 128.765008 256.140027 
L 128.992246 256.892187 
L 129.116412 257.785471 
L 129.350233 258.319695 
L 129.858159 255.829476 
L 130.083068 256.022716 
L 130.441832 257.593444 
L 130.661043 257.772908 
L 131.138807 257.198908 
L 131.496656 256.892342 
L 131.616767 257.125737 
L 131.854443 257.306223 
L 132.096269 258.837208 
L 132.347436 261.368671 
L 132.632214 262.894641 
L 132.812366 261.045003 
L 133.363543 257.578322 
L 133.840629 260.929336 
L 134.080659 261.399583 
L 134.318419 259.969585 
L 134.79427 255.756707 
L 135.091491 256.416805 
L 135.277918 258.870926 
L 135.749047 261.196794 
L 135.985978 260.839514 
L 136.046357 258.913895 
L 136.285333 257.342285 
L 136.522971 256.874173 
L 136.767559 258.020627 
L 136.999688 260.152834 
L 137.299363 260.651063 
L 137.663156 258.81102 
L 137.774022 256.837696 
L 138.072277 256.971346 
L 138.505116 261.594744 
L 138.734072 261.069299 
L 139.265208 257.499923 
L 139.502682 257.852888 
L 139.919867 259.00962 
L 140.039132 260.257679 
L 140.218729 259.695939 
L 140.696325 258.58691 
L 140.993643 258.874115 
L 141.233561 259.421091 
L 141.650085 259.967191 
L 141.710006 258.598619 
L 142.186284 254.238459 
L 142.974196 256.495703 
L 143.323312 254.123849 
L 143.496319 253.759871 
L 143.972115 257.886106 
L 144.153138 260.126149 
L 144.508894 261.794607 
L 144.808878 260.760473 
L 144.929544 258.252552 
L 145.165993 257.966494 
L 145.702841 261.664199 
L 146.237569 257.664898 
L 146.417721 256.606264 
L 146.654332 256.983373 
L 146.953767 258.501673 
L 147.193091 260.692593 
L 147.552202 262.334066 
L 147.674874 261.529612 
L 147.909183 258.691343 
L 148.218163 256.825309 
L 148.445008 257.862338 
L 148.865235 260.574979 
L 149.102945 259.878065 
L 149.696123 255.983762 
L 150.114281 255.099074 
L 150.649272 260.759511 
L 150.889309 260.598939 
L 151.604736 252.857487 
L 151.843085 253.342588 
L 152.25949 255.712282 
L 152.3816 257.57721 
L 152.622499 256.363932 
L 152.856313 254.019399 
L 153.093514 253.268597 
L 153.336347 254.659433 
L 154.05043 263.373131 
L 154.348741 262.229977 
L 154.832392 257.722285 
L 155.069819 259.249773 
L 155.302867 261.810383 
L 155.543026 261.829914 
L 156.017564 257.706065 
L 156.376312 257.56264 
L 156.613293 258.032354 
L 157.030476 260.28335 
L 157.269852 259.976164 
L 157.746994 256.639172 
L 158.102889 257.626797 
L 158.281537 259.085749 
L 158.519803 258.318202 
L 158.818143 256.637029 
L 159.056876 256.204473 
L 159.355875 257.471976 
L 159.534863 258.805263 
L 159.772821 259.138324 
L 160.01174 259.128721 
L 160.253272 258.736471 
L 160.488021 258.821221 
L 161.149648 258.402701 
L 161.501895 257.504536 
L 161.823421 257.288362 
L 161.979535 257.644765 
L 162.218831 258.48036 
L 162.458281 258.469489 
L 163.05243 256.766133 
L 163.767181 257.960052 
L 164.190188 258.33972 
L 164.455759 257.49729 
L 164.72666 256.196721 
L 164.95958 256.553445 
L 165.327701 258.425137 
L 165.778621 256.45268 
L 165.79807 256.53691 
L 166.156096 260.173701 
L 166.534262 260.169374 
L 166.694247 257.468244 
L 166.930855 255.827554 
L 167.168822 257.03305 
L 167.407436 259.056746 
L 167.705995 258.692072 
L 167.943967 257.429658 
L 168.200014 258.779138 
L 168.542479 259.05465 
L 168.669936 256.79428 
L 168.957028 254.600766 
L 169.268711 254.639224 
L 169.376025 256.707563 
L 169.731463 258.328095 
L 169.972569 258.266919 
L 170.14909 257.488719 
L 170.642672 256.926266 
L 170.864266 255.64622 
L 171.162429 257.364779 
L 171.820131 263.021497 
L 171.954995 261.928625 
L 172.175036 258.892446 
L 172.385265 257.687239 
L 172.857567 260.246542 
L 173.337088 259.389049 
L 173.572511 259.463991 
L 173.93217 259.223692 
L 174.476954 257.546652 
L 174.592496 257.725971 
L 175.088536 257.651798 
L 175.326337 258.13547 
L 175.628548 258.258106 
L 176.101154 256.704923 
L 176.486975 256.77075 
L 176.582323 258.068172 
L 176.834618 259.593395 
L 177.076525 260.159214 
L 177.414033 258.742256 
L 177.534336 256.509283 
L 177.831051 256.615694 
L 178.070408 258.482973 
L 178.308379 258.958615 
L 178.803738 255.871171 
L 179.14201 255.952215 
L 179.382207 256.278321 
L 179.559603 256.283138 
L 180.274733 256.711151 
L 181.228681 256.77525 
L 181.46599 255.977583 
L 181.585239 254.769555 
L 181.823698 255.152009 
L 182.300098 260.149733 
L 182.489748 260.360025 
L 183.01694 256.840697 
L 183.260135 258.093033 
L 183.737486 262.508183 
L 183.976792 262.291482 
L 184.455332 257.703316 
L 184.692978 257.058798 
L 185.229053 261.112786 
L 185.526139 260.531959 
L 185.707429 258.471639 
L 186.061537 258.040751 
L 186.241736 258.100917 
L 186.539767 257.394209 
L 186.780047 257.833497 
L 187.194555 260.70849 
L 187.671074 257.356723 
L 188.152506 260.389587 
L 188.445228 258.549412 
L 188.686815 257.993911 
L 188.923057 260.141902 
L 189.16098 260.451532 
L 189.403438 257.922032 
L 189.641534 256.661169 
L 189.898598 258.729733 
L 190.235291 259.170937 
L 190.478058 257.508438 
L 190.949235 261.007842 
L 191.247479 259.674228 
L 191.375593 256.54347 
L 191.657719 256.552787 
L 191.908811 258.949871 
L 192.143386 259.273592 
L 192.383733 256.807962 
L 192.644218 257.261196 
L 192.873076 259.442746 
L 193.222374 259.396737 
L 193.402165 257.633734 
L 193.640685 256.588921 
L 193.878764 257.063244 
L 194.354985 258.518942 
L 194.597381 258.401694 
L 194.891756 258.504477 
L 195.367652 257.678617 
L 195.967819 257.529954 
L 196.083037 257.720031 
L 196.440034 257.136447 
L 196.800321 254.760961 
L 197.095478 255.406157 
L 197.343361 258.029806 
L 197.812347 258.65617 
L 198.07266 255.646658 
L 198.408702 257.396108 
L 198.886808 261.992894 
L 199.063582 261.721632 
L 199.543229 258.82922 
L 200.198469 257.871828 
L 200.793135 259.154924 
L 201.221256 258.693004 
L 201.57063 257.187531 
L 202.045995 260.663098 
L 202.760706 259.332572 
L 202.99891 258.320192 
L 203.297799 257.891839 
L 203.953625 261.540849 
L 204.01405 263.261417 
L 204.251466 262.607322 
L 204.788601 257.443879 
L 205.026151 257.280858 
L 205.264865 258.509312 
L 205.445051 260.11933 
L 205.741376 260.381283 
L 205.979584 259.148228 
L 206.458125 255.268935 
L 206.696362 254.639521 
L 206.995383 256.060598 
L 207.175054 259.108059 
L 207.47164 261.595402 
L 207.709979 262.040378 
L 208.009417 259.775077 
L 208.200322 256.594247 
L 208.431735 254.925895 
L 208.723269 255.970414 
L 209.498086 262.428546 
L 209.67665 262.230474 
L 209.915205 260.679792 
L 210.213577 259.56716 
L 210.397286 259.495336 
L 210.886344 260.37653 
L 210.927992 261.103492 
L 211.171711 260.976201 
L 211.664663 257.726476 
L 211.950182 257.276039 
L 212.243453 257.669059 
L 212.482513 258.398172 
L 212.783079 257.886306 
L 213.135808 256.836589 
L 213.613533 257.480849 
L 213.675494 258.798532 
L 214.150582 261.383784 
L 214.391849 261.072398 
L 214.868789 257.109241 
L 215.174569 257.01361 
L 215.352363 258.296906 
L 215.668525 259.352979 
L 215.881492 259.278699 
L 216.894668 257.907236 
L 217.609101 260.836721 
L 218.145853 266.090006 
L 218.327664 269.683879 
L 218.804764 272.589231 
L 219.099552 272.258228 
L 219.337705 271.534836 
L 219.577209 270.219877 
L 219.814463 270.518694 
L 220.351264 272.584957 
L 220.593088 272.07926 
L 220.832019 270.988661 
L 221.618941 268.850189 
L 222.029109 269.300262 
L 222.326252 268.90391 
L 222.862676 266.235581 
L 223.284031 264.91968 
L 223.757138 265.484382 
L 224.054822 267.753515 
L 224.536297 268.654102 
L 224.828764 268.275287 
L 225.48488 270.012545 
L 225.783985 269.587635 
L 226.080183 268.171449 
L 226.736293 260.39465 
L 227.052978 258.783959 
L 227.347263 258.673506 
L 227.52707 258.745181 
L 227.704792 259.265632 
L 228.004529 258.53878 
L 228.540151 255.895302 
L 229.016015 254.984769 
L 229.315336 255.010825 
L 229.495215 255.975986 
L 229.910847 255.582954 
L 230.209576 253.584485 
L 230.448768 253.800844 
L 230.685381 255.458803 
L 231.169394 259.861074 
L 231.64355 261.473374 
L 232.41411 256.689082 
L 233.189651 254.352454 
L 233.665209 252.611424 
L 233.964375 252.321512 
L 234.262058 252.254068 
L 235.036373 256.455014 
L 235.159733 257.289606 
L 235.456875 256.68045 
L 235.873879 251.659195 
L 236.380411 249.186721 
L 236.619096 248.845608 
L 237.124182 246.503961 
L 237.362134 243.125663 
L 237.958255 241.620572 
L 238.081129 242.936815 
L 238.375106 243.861162 
L 238.614552 243.558327 
L 238.852576 242.899266 
L 239.089839 240.645606 
L 239.328388 240.649369 
L 239.74564 241.778837 
L 240.163568 245.491693 
L 240.469002 244.259864 
L 240.839294 237.196294 
L 241.15113 235.009295 
L 241.417307 234.747226 
L 241.537532 237.246375 
L 242.074872 241.629033 
L 242.313392 240.351006 
L 242.791468 234.798111 
L 243.087029 233.895504 
L 244.046071 237.148926 
L 244.75774 234.035888 
L 245.353135 233.895582 
L 245.533112 234.287076 
L 245.771346 234.211481 
L 246.010666 233.420077 
L 246.486483 227.397309 
L 247.261493 223.36719 
L 247.322644 223.148461 
L 247.738568 226.385069 
L 248.633886 229.209795 
L 248.754909 230.504544 
L 249.230972 232.714825 
L 249.468363 231.737489 
L 250.197543 224.246081 
L 251.10823 225.505194 
L 251.35046 225.414256 
L 251.496339 224.234123 
L 251.793546 222.905411 
L 252.211462 224.237283 
L 252.569641 223.844624 
L 252.943275 221.431148 
L 253.223118 216.002796 
L 253.706875 213.465833 
L 253.949097 213.383441 
L 254.414511 212.597901 
L 254.951149 210.942882 
L 255.368012 211.196 
L 255.487213 212.567804 
L 255.72571 213.325619 
L 255.906162 213.301293 
L 256.263516 212.547872 
L 256.502274 210.877305 
L 256.919839 205.284635 
L 257.335085 205.03393 
L 257.872486 208.037089 
L 258.110123 207.599049 
L 258.408772 205.735913 
L 258.945141 200.895776 
L 259.183935 202.152203 
L 259.380165 205.34499 
L 259.719814 207.318616 
L 259.958324 207.730837 
L 260.153103 205.933067 
L 260.63748 197.525264 
L 260.853957 196.012826 
L 261.150946 196.994935 
L 261.507691 199.143562 
L 261.865445 201.412611 
L 262.282279 198.830206 
L 262.343313 194.614904 
L 262.58071 192.554424 
L 262.9389 192.982365 
L 263.356124 196.782485 
L 263.595345 196.943201 
L 263.894307 194.564832 
L 264.074825 190.707531 
L 264.309736 188.687577 
L 264.548274 189.328052 
L 265.084502 193.547067 
L 265.263629 194.073031 
L 265.589764 192.681014 
L 265.839685 188.963684 
L 266.465874 185.395381 
L 266.65796 185.448037 
L 266.933887 185.791558 
L 267.058163 186.280494 
L 267.411941 185.84811 
L 267.533703 183.771336 
L 267.828523 182.295334 
L 268.014101 182.58536 
L 268.432639 184.508935 
L 268.782396 188.61724 
L 269.210781 188.288804 
L 269.740843 181.608167 
L 270.096093 183.585262 
L 270.244804 186.643269 
L 270.814165 191.104131 
L 271.051486 188.924155 
L 271.232644 185.712797 
L 271.527868 184.298021 
L 271.707272 184.254377 
L 272.005238 184.520332 
L 272.244122 184.349337 
L 272.600777 182.433146 
L 273.077454 174.584012 
L 273.214384 173.019167 
L 273.49424 175.576215 
L 273.971793 184.101225 
L 274.154043 186.993768 
L 274.448747 186.819801 
L 274.92665 180.073095 
L 275.284632 179.533805 
L 275.58223 181.504224 
L 275.709159 184.295755 
L 275.940247 185.614451 
L 276.183647 183.933209 
L 276.476713 179.467173 
L 276.654938 174.805732 
L 276.89657 172.611231 
L 277.310749 174.089106 
L 277.431092 177.457562 
L 277.669096 180.309993 
L 277.912507 180.131444 
L 278.389726 173.077549 
L 278.62756 171.898204 
L 278.882733 172.87671 
L 279.104418 174.998855 
L 279.462902 176.692415 
L 279.644821 178.774431 
L 279.879687 177.593256 
L 280.356532 171.287613 
L 280.655358 170.031172 
L 280.861082 170.401998 
L 281.075381 171.697321 
L 281.43146 172.278212 
L 281.848016 171.610475 
L 282.086192 169.023137 
L 282.503676 170.291249 
L 282.569068 172.280798 
L 282.845801 174.91252 
L 283.11584 175.205222 
L 283.754963 168.167177 
L 283.815288 164.394045 
L 284.052888 164.412714 
L 284.589595 170.015785 
L 284.827867 169.308023 
L 285.125296 166.144397 
L 285.309372 161.302071 
L 285.544541 158.88807 
L 285.84146 160.409387 
L 286.498631 173.81767 
L 286.793973 171.437793 
L 287.033013 166.38816 
L 287.337543 162.464105 
L 287.568415 161.736248 
L 288.046685 170.197114 
L 288.227943 173.28648 
L 288.582163 172.186905 
L 289.059287 163.096112 
L 289.240755 161.345174 
L 289.5502 162.922078 
L 289.955778 169.488345 
L 290.253021 170.044341 
L 290.490549 167.154865 
L 290.728749 162.262588 
L 291.226862 159.097571 
L 291.803087 164.966574 
L 291.982018 166.026357 
L 292.220479 164.516599 
L 292.700077 159.091252 
L 293.114361 159.501438 
L 293.23364 162.362835 
L 293.531567 165.568717 
L 293.710872 165.646721 
L 294.067926 161.757809 
L 294.427073 154.433004 
L 294.664199 156.247472 
L 294.961636 161.098418 
L 295.165343 166.389 
L 295.446431 168.613742 
L 295.739424 167.061273 
L 296.215985 159.092738 
L 296.573182 160.122269 
L 296.872544 164.378123 
L 296.931043 168.416724 
L 297.168915 169.67893 
L 297.46677 166.487306 
L 297.649372 160.534619 
L 298.005595 156.44633 
L 298.182339 157.052594 
L 298.902056 170.599357 
L 299.27704 168.49166 
L 299.919438 153.659321 
L 300.707047 163.194581 
L 300.933861 161.250125 
L 301.075791 157.37394 
L 301.550623 154.240469 
L 301.909523 161.213926 
L 302.328316 171.125295 
L 302.684087 168.10875 
L 302.863023 161.410755 
L 303.401839 152.030523 
L 303.637999 153.228996 
L 304.122059 158.270919 
L 304.710537 149.034606 
L 305.188585 130.515973 
L 305.856091 52.402159 
L 306.322127 38.033427 
L 306.5592 36.594672 
L 307.214392 27.529021 
L 307.302903 29.538411 
L 307.637296 51.784523 
L 307.954502 93.473795 
L 308.072346 132.988463 
L 308.315617 155.066071 
L 308.615877 161.126237 
L 308.730339 160.0005 
L 309.031207 159.854488 
L 309.383594 165.877844 
L 309.979502 183.498272 
L 310.339239 180.676882 
L 310.579398 176.914755 
L 310.815115 175.783151 
L 311.118203 177.575487 
L 311.235178 179.512248 
L 311.53079 179.843702 
L 311.948446 179.040163 
L 312.245044 180.335712 
L 312.485119 182.497069 
L 312.722319 183.385553 
L 312.960637 182.322144 
L 313.20461 180.625584 
L 313.498378 179.469558 
L 313.737928 179.452488 
L 313.977518 179.083491 
L 314.21232 176.553723 
L 314.930803 164.843928 
L 315.168853 164.922424 
L 315.584216 167.391393 
L 315.70406 170.155814 
L 316.124502 171.51759 
L 316.189983 170.895725 
L 316.42247 169.906484 
L 316.718399 170.200723 
L 317.074647 171.96911 
L 317.432363 175.402369 
L 317.671794 174.600139 
L 318.151071 171.854055 
L 318.472675 171.496859 
L 318.862617 172.660193 
L 318.922266 173.831051 
L 319.160947 174.605917 
L 319.399299 174.981968 
L 319.640538 175.08342 
L 319.876818 175.059452 
L 320.414559 174.505284 
L 320.792128 173.739875 
L 321.128649 169.795103 
L 321.365787 168.018196 
L 322.381606 165.394331 
L 323.154001 167.357819 
L 323.639132 171.269716 
L 324.108231 175.286604 
L 324.34571 175.93665 
L 324.644577 176.136778 
L 324.888033 175.264891 
L 327.329977 156.386893 
L 328.283766 154.854321 
L 328.521239 155.493682 
L 328.937897 156.137285 
L 329.057741 157.275862 
L 329.78167 160.643646 
L 330.165083 160.626638 
L 330.278403 160.188713 
L 330.611606 160.214726 
L 330.911342 160.02823 
L 331.03036 159.489783 
L 331.446123 159.356744 
L 331.565456 159.631579 
L 332.340041 164.75496 
L 333.235316 174.692863 
L 333.712145 178.043654 
L 334.010529 178.808225 
L 334.212859 178.127471 
L 335.439937 166.930316 
L 336.274475 164.546975 
L 336.455364 164.612796 
L 336.693752 165.945152 
L 337.413717 171.23213 
L 337.705231 171.05638 
L 338.006855 170.380831 
L 338.243577 170.717696 
L 338.667195 172.733165 
L 338.956836 171.919369 
L 339.253907 169.231764 
L 339.432863 166.344095 
L 339.672038 165.303187 
L 340.091225 167.237368 
L 340.151334 170.411383 
L 340.645943 174.073896 
L 341.462412 169.394372 
L 341.75994 170.670945 
L 341.885672 173.036458 
L 342.177346 174.810884 
L 342.475516 173.814428 
L 342.653848 171.018284 
L 342.892827 169.371466 
L 343.130565 165.429104 
L 343.487863 164.443914 
L 343.965723 167.402964 
L 344.263637 168.553436 
L 344.383512 168.045135 
L 344.621943 165.960631 
L 344.978549 165.251739 
L 345.276394 166.942289 
L 345.397608 169.615669 
L 345.81238 172.748001 
L 345.888162 175.137769 
L 346.110473 176.205311 
L 346.349482 175.753465 
L 346.587455 173.488472 
L 346.886033 171.784194 
L 347.183678 171.594209 
L 347.311673 172.558534 
L 347.613688 173.075356 
L 347.850702 173.182208 
L 348.315877 172.237675 
L 348.735232 170.600973 
L 348.852659 169.071367 
L 349.034394 168.776382 
L 349.388337 170.550984 
L 349.687634 173.023018 
L 349.820433 172.571197 
L 350.23982 170.245686 
L 350.347068 168.582197 
L 350.823744 168.769428 
L 351.068503 168.167652 
L 351.360174 167.836685 
L 351.538949 168.709459 
L 351.843685 169.462142 
L 352.085238 169.595679 
L 352.374827 169.999936 
L 352.496506 170.406989 
L 352.749419 169.693665 
L 353.035816 168.112193 
L 353.281986 167.752644 
L 353.80595 172.267762 
L 354.044395 172.743617 
L 354.570502 167.520313 
L 354.823842 167.800762 
L 355.242315 171.81307 
L 355.536683 172.044725 
L 355.918571 171.057411 
L 356.013465 170.094463 
L 356.250857 170.305997 
L 356.549483 171.092419 
L 356.72794 172.04988 
L 356.966011 172.004224 
L 357.561894 168.749033 
L 357.740879 168.851861 
L 358.282011 171.088011 
L 358.576173 169.627736 
L 358.933597 165.620189 
L 359.233515 166.993937 
L 359.468466 169.570132 
L 359.785285 170.924933 
L 360.249998 168.616781 
L 360.546592 168.299206 
L 361.149668 172.662036 
L 361.442071 172.239568 
L 361.981036 170.728593 
L 362.398402 169.71954 
L 362.635531 170.499027 
L 362.932628 170.981716 
L 363.175411 171.068619 
L 363.94589 173.25422 
L 364.481886 170.593984 
L 364.843571 172.101906 
L 365.017356 174.567717 
L 365.139245 174.276394 
L 365.554762 172.061822 
L 365.613505 169.219445 
L 365.976781 166.867097 
L 366.269872 166.489837 
L 366.332753 167.492383 
L 366.866221 170.67723 
L 367.641495 165.39776 
L 367.945628 166.78865 
L 368.121376 169.599125 
L 368.35622 171.394958 
L 368.774451 170.57841 
L 369.074435 166.073082 
L 369.311398 167.182389 
L 369.591203 169.16043 
L 369.848547 170.09011 
L 370.08782 170.038409 
L 370.326098 169.231015 
L 370.803099 168.865052 
L 371.161904 168.81062 
L 371.399072 169.035395 
L 371.577905 169.642295 
L 371.935788 169.552738 
L 372.054832 169.8492 
L 372.59185 173.099003 
L 372.829735 172.856572 
L 373.187115 170.701958 
L 373.365295 168.85305 
L 373.790608 170.482772 
L 374.021489 172.888208 
L 374.261248 171.778117 
L 374.55858 169.213498 
L 374.736954 166.462278 
L 375.03509 165.277646 
L 375.273504 166.376652 
L 375.750485 171.152948 
L 375.988153 171.527376 
L 376.228791 169.764466 
L 376.644826 167.670665 
L 376.76228 167.72306 
L 377.358092 172.328756 
L 377.602641 172.557218 
L 378.253396 166.653833 
L 378.492265 166.942057 
L 378.908437 168.924146 
L 379.02867 171.191705 
L 379.324471 172.075983 
L 379.741872 169.086565 
L 379.980884 168.870069 
L 380.278124 170.251922 
L 380.457053 172.948408 
L 380.699009 174.793544 
L 380.993722 174.354874 
L 381.293382 172.303509 
L 381.471822 169.638584 
L 381.947747 166.286777 
L 382.486546 169.385103 
L 382.903756 170.458698 
L 383.198707 170.616301 
L 383.577145 171.811786 
L 383.681727 173.600486 
L 383.914675 174.564183 
L 384.154398 174.864028 
L 384.395448 174.885583 
L 384.634599 173.679734 
L 385.406104 171.964845 
L 385.643919 172.238434 
L 386.127503 172.14804 
L 386.418484 172.3783 
L 386.776852 172.383106 
L 386.895865 172.124556 
L 387.194361 172.540763 
L 387.67107 173.748269 
L 387.90932 173.352588 
L 388.626809 170.004343 
L 388.863173 169.109983 
L 389.101136 168.829352 
L 389.459441 168.969846 
L 389.637792 168.216909 
L 390.353094 162.491983 
L 390.652496 162.229523 
L 391.009992 163.207943 
L 391.487436 166.91105 
L 391.606455 169.575203 
L 392.085061 173.549244 
L 392.330558 175.235874 
L 392.620619 176.154538 
L 392.861108 175.735666 
L 393.395828 171.536831 
L 393.575418 169.028252 
L 394.051656 165.309269 
L 394.289948 165.025307 
L 394.826644 166.747508 
L 395.253901 167.853248 
L 395.542864 168.203853 
L 395.809213 168.155946 
L 396.022818 168.504442 
L 396.261625 169.495485 
L 396.795982 170.357417 
L 397.005417 170.17281 
L 397.752949 167.94238 
L 398.583536 166.987599 
L 399.240305 162.790375 
L 399.481113 162.659012 
L 399.838134 163.439398 
L 401.210035 176.669055 
L 401.449325 176.805335 
L 401.746659 175.925477 
L 402.464686 172.3413 
L 402.763464 171.964174 
L 402.940715 171.961451 
L 403.239956 171.836444 
L 403.477521 171.979137 
L 403.716528 172.748299 
L 404.205773 173.456147 
L 404.491892 172.53459 
L 404.682655 170.906154 
L 405.07707 168.981152 
L 405.435072 163.654043 
L 406.153896 156.612164 
L 406.450599 156.21081 
L 406.688351 157.888264 
L 407.179976 163.55662 
L 407.583542 165.970986 
L 407.643511 168.504673 
L 408.184239 172.594743 
L 408.425461 173.61966 
L 408.622583 173.858773 
L 409.329493 171.533744 
L 409.377263 170.719286 
L 409.674777 170.620487 
L 410.092038 170.927674 
L 410.151255 170.741419 
L 410.390744 169.60027 
L 411.107896 168.026626 
L 411.582876 168.481271 
L 412.121829 169.151866 
L 412.358327 168.700942 
L 412.595369 168.640926 
L 412.834441 168.707364 
L 413.132538 168.259326 
L 413.313562 167.740289 
L 413.846124 167.727412 
L 413.854636 168.865139 
L 414.089273 170.176415 
L 414.445526 170.55048 
L 414.625302 170.343253 
L 415.104651 169.008196 
L 415.765633 168.359969 
L 416.057363 167.659658 
L 416.775368 163.940167 
L 417.194986 163.890722 
L 417.249598 164.014808 
L 417.60875 163.748895 
L 417.792339 163.473417 
L 418.265783 163.623547 
L 418.685412 164.397895 
L 418.81039 165.621988 
L 419.065712 166.441739 
L 419.279479 166.545297 
L 419.526752 166.342364 
L 419.578401 166.418268 
L 419.817293 167.053508 
L 420.056721 168.529523 
L 420.476212 172.800944 
L 420.771635 174.294799 
L 421.016292 174.786966 
L 421.248394 173.842347 
L 421.964634 168.109371 
L 422.394938 166.377725 
L 422.742295 162.692116 
L 422.977964 160.99333 
L 423.463809 159.097963 
L 423.71597 159.35974 
L 424.182209 162.954229 
L 424.441549 163.151616 
L 424.77729 163.150893 
L 425.083864 162.760305 
L 425.214343 162.041399 
L 425.498742 161.7403 
L 425.741988 162.226363 
L 426.034921 163.441973 
L 426.155261 165.855184 
L 426.396486 166.860581 
L 426.819177 165.735584 
L 426.938394 164.676398 
L 427.170233 164.392174 
L 427.413328 165.159861 
L 427.944655 167.558071 
L 428.720579 165.936058 
L 429.021035 166.773101 
L 429.260467 169.378037 
L 429.568158 170.850298 
L 429.711448 170.337334 
L 429.862725 168.671899 
L 430.128007 166.996298 
L 430.398889 166.48427 
L 430.714162 166.877235 
L 430.879803 168.129017 
L 431.229767 168.778048 
L 431.94717 165.519623 
L 432.605916 167.075311 
L 432.980761 167.482971 
L 433.080902 168.158777 
L 433.437867 169.327989 
L 433.881968 171.473371 
L 434.739955 169.311228 
L 435.455677 173.111693 
L 435.636023 172.28227 
L 435.814278 169.65873 
L 436.291054 166.813127 
L 436.41292 165.139024 
L 436.649919 165.594727 
L 436.831453 167.438529 
L 437.312162 170.157238 
L 437.570496 170.149375 
L 437.843319 170.871128 
L 438.559792 175.028572 
L 438.802744 174.361207 
L 439.276447 172.482031 
L 439.525204 171.635618 
L 439.758679 171.365602 
L 440.05765 171.503606 
L 440.535103 171.878397 
L 440.773037 172.678274 
L 441.516433 177.987314 
L 441.787362 178.074966 
L 442.084382 177.083623 
L 442.382254 174.946934 
L 443.459506 161.938693 
L 443.69767 160.51191 
L 443.947028 160.713721 
L 444.485158 164.634157 
L 444.718411 166.350684 
L 445.965514 167.716256 
L 446.385918 167.456695 
L 446.692181 164.95188 
L 446.921039 164.335361 
L 447.160166 164.73624 
L 447.581647 166.3871 
L 448.007332 169.695382 
L 448.187218 170.585887 
L 448.604346 170.949294 
L 448.665006 171.409407 
L 449.082957 172.43775 
L 449.382798 173.653892 
L 449.916047 173.374695 
L 450.156084 173.914186 
L 450.810193 177.215125 
L 450.929587 179.575701 
L 451.412842 182.673192 
L 451.647295 183.267943 
L 452.125859 182.499109 
L 452.421661 182.359999 
L 452.921195 182.652852 
L 453.081445 182.610268 
L 453.379988 182.26162 
L 453.860324 179.80363 
L 454.872956 173.369648 
L 455.059449 170.752123 
L 455.468905 168.153069 
L 455.830337 164.079656 
L 456.543655 162.191389 
L 457.08999 161.16366 
L 457.331101 160.347853 
L 457.629665 160.656703 
L 458.103932 163.69076 
L 458.819546 170.410285 
L 459.21735 172.936114 
L 459.541358 178.28133 
L 460.074569 181.981044 
L 460.381478 182.125255 
L 461.162774 175.859825 
L 461.269733 172.727587 
L 461.748647 167.043207 
L 462.527031 160.874706 
L 462.764051 159.846772 
L 463.01013 159.495377 
L 463.485536 160.510032 
L 463.782033 161.584912 
L 464.077098 163.287801 
L 464.256499 165.233874 
L 464.674389 166.631717 
L 465.020548 169.939777 
L 466.26574 180.755652 
L 466.745966 182.652241 
L 466.935855 182.832983 
L 467.221898 182.798469 
L 467.460772 182.425661 
L 467.937374 180.923831 
L 468.176245 180.621801 
L 468.83277 179.297471 
L 468.981905 178.252585 
L 469.370258 177.162881 
L 469.727716 174.946221 
L 470.263839 172.31722 
L 470.396051 170.633202 
L 471.419186 163.958049 
L 471.879649 162.551357 
L 472.417567 162.389947 
L 472.921173 162.99559 
L 473.43748 162.829993 
L 473.732515 163.139094 
L 474.828936 168.041301 
L 475.121189 168.75823 
L 475.717586 170.795996 
L 475.8371 171.876922 
L 476.134988 172.70969 
L 476.629215 173.467238 
L 477.091035 176.444318 
L 478.826827 188.012127 
L 479.060672 188.761435 
L 479.657767 185.634898 
L 479.834829 183.951706 
L 480.551914 181.472842 
L 480.908489 181.388657 
L 481.160632 180.924241 
L 481.327084 180.012345 
L 481.625403 179.10331 
L 482.101703 178.709757 
L 482.304165 178.911295 
L 482.520064 179.317948 
L 482.821931 179.487145 
L 483.114886 179.91221 
L 483.533599 180.060258 
L 484.010657 181.601174 
L 484.326117 182.936649 
L 484.74324 187.366664 
L 485.221327 188.503371 
L 485.281302 189.467408 
L 485.579122 189.502659 
L 485.761522 188.688459 
L 486.00095 188.18811 
L 486.234616 188.596312 
L 486.712954 190.305364 
L 487.011874 190.099167 
L 487.308375 188.901558 
L 487.486924 187.158933 
L 488.551393 180.585221 
L 490.004848 167.528016 
L 490.241965 166.902587 
L 490.719876 167.74155 
L 490.957726 167.603463 
L 491.196684 167.692873 
L 491.437921 168.344163 
L 491.7338 169.646169 
L 491.913495 171.20071 
L 492.229516 172.780964 
L 492.270594 173.989615 
L 492.449396 174.031458 
L 492.750643 174.331376 
L 493.046267 173.877443 
L 493.224707 173.393815 
L 493.705361 173.217099 
L 493.941431 171.999331 
L 494.378916 171.046215 
L 494.671594 170.89483 
L 495.492868 175.416981 
L 495.8502 178.785707 
L 496.270408 179.871658 
L 496.327882 180.704502 
L 496.932019 180.462012 
L 497.168272 179.792667 
L 498.190185 174.014201 
L 498.36707 173.802304 
L 498.61362 174.10512 
L 499.626206 177.289766 
L 499.810671 178.080405 
L 500.407404 178.89045 
L 500.640172 178.699979 
L 500.895681 177.741958 
L 501.118825 176.193876 
L 501.54229 174.856105 
L 501.595042 173.950567 
L 502.251558 173.479447 
L 502.311959 173.082218 
L 503.047454 171.833653 
L 503.35207 171.640748 
L 503.822888 172.345129 
L 504.044032 172.579803 
L 504.522981 171.173421 
L 505.239393 170.741883 
L 505.300663 170.950642 
L 505.535876 171.273995 
L 506.018683 171.081566 
L 506.191851 171.460627 
L 506.51083 173.075091 
L 506.868182 174.421691 
L 507.310485 177.682966 
L 508.020555 185.909111 
L 508.382825 189.186055 
L 508.779841 194.588192 
L 509.498514 198.702587 
L 509.793481 198.147007 
L 510.100802 196.919914 
L 510.750414 190.880199 
L 511.762084 177.23481 
L 512.059912 175.483261 
L 512.242212 175.23268 
L 512.479777 177.044869 
L 513.258013 185.938149 
L 513.493993 186.987719 
L 513.737555 186.99537 
L 513.98405 187.272734 
L 514.448245 188.24511 
L 514.886935 188.612991 
L 515.118139 188.211807 
L 515.464023 187.35472 
L 515.751347 186.980746 
L 516.001092 186.850836 
L 516.47737 187.155982 
L 516.537113 187.432482 
L 516.895872 187.625171 
L 517.02374 187.372687 
L 517.313039 187.048914 
L 517.434501 186.606756 
L 517.936327 186.102406 
L 518.628969 184.41391 
L 518.934415 184.114069 
L 519.405318 184.133664 
L 519.531398 184.015133 
L 519.902563 183.351812 
L 520.905252 178.757951 
L 521.153729 178.344894 
L 521.510954 179.01622 
L 521.688459 180.553959 
L 521.867987 183.2883 
L 522.525965 187.293718 
L 522.88244 187.921477 
L 523.241434 190.921901 
L 523.502993 193.723824 
L 523.621431 196.951134 
L 523.895975 199.589746 
L 524.144781 200.753648 
L 524.328604 199.915002 
L 525.090462 194.286132 
L 525.344652 192.584512 
L 526.071316 184.763066 
L 526.648874 178.167638 
L 527.124891 175.906675 
L 527.599616 175.395719 
L 527.836698 175.674381 
L 528.146629 176.649341 
L 528.86213 180.721171 
L 529.192142 182.090384 
L 530.525497 195.624925 
L 531.059913 197.009869 
L 531.537267 199.83419 
L 531.775914 201.084188 
L 532.013949 201.433212 
L 532.798258 200.001378 
L 533.10409 200.096483 
L 533.453015 200.649835 
L 533.527827 201.277889 
L 533.757723 201.378089 
L 533.997093 200.516572 
L 534.767567 195.588394 
L 535.246214 195.321986 
L 535.487395 195.189453 
L 535.781066 193.88991 
L 536.797511 186.233337 
L 537.233563 185.247071 
L 537.336657 183.987254 
L 537.633326 182.000038 
L 538.182569 174.867713 
L 538.407634 173.690633 
L 538.707239 173.543612 
L 538.948918 174.784893 
L 539.420513 178.416682 
L 540.494915 183.092046 
L 540.673929 184.728286 
L 541.389533 189.297879 
L 541.80773 189.67677 
L 542.11672 192.022362 
L 542.521941 193.662184 
L 542.885214 197.134795 
L 543.131436 198.102431 
L 543.655635 198.762825 
L 544.852231 201.3427 
L 545.152144 201.553758 
L 545.385087 201.87793 
L 545.742446 202.092032 
L 545.947299 202.600657 
L 546.186015 202.812578 
L 546.604471 202.205766 
L 547.557848 199.086383 
L 548.587229 193.263335 
L 549.079391 189.720201 
L 549.190535 185.695783 
L 549.580927 183.173211 
L 549.823004 182.132086 
L 550.058302 181.897691 
L 550.315758 182.554239 
L 550.595277 183.874656 
L 551.129515 187.735263 
L 551.545693 192.457551 
L 552.088866 193.660932 
L 552.56547 195.691045 
L 552.807034 195.972496 
L 552.999892 194.803465 
L 553.77402 186.188563 
L 554.071244 186.152005 
L 554.788384 187.778598 
L 555.162205 188.262931 
L 555.283645 189.739317 
L 555.684235 192.312811 
L 555.986182 197.734204 
L 556.222858 198.42899 
L 556.51997 197.366392 
L 557.774444 187.630035 
L 558.036502 186.253837 
L 558.428 185.488619 
L 558.491374 184.917648 
L 558.729519 185.726533 
L 559.509995 192.665847 
L 559.68732 195.353251 
L 559.984173 196.633309 
L 560.286721 196.82807 
L 560.87836 193.504915 
L 561.176926 189.762038 
L 561.45041 189.515129 
L 561.800499 189.604319 
L 561.917094 188.589149 
L 562.710581 185.000986 
L 562.932436 184.785127 
L 563.17224 185.51814 
L 563.650571 188.888508 
L 563.947956 187.646284 
L 564.138725 184.863768 
L 564.424624 182.979241 
L 564.667389 183.383984 
L 565.510282 189.940795 
L 565.679072 189.399605 
L 565.921222 187.563889 
L 566.275788 186.272852 
L 566.591052 189.544738 
L 566.886997 190.225773 
L 567.426996 185.565231 
L 567.603302 183.868007 
L 567.901003 184.724695 
L 568.260231 187.521298 
L 568.439944 189.807751 
L 568.797021 189.489104 
L 569.335823 184.937667 
L 569.9297 189.608163 
L 570.175652 189.498095 
L 570.349279 186.894686 
L 570.67192 184.839645 
L 570.855226 184.534715 
L 571.327424 187.71689 
L 571.62175 188.050987 
L 571.859198 187.552983 
L 572.052821 186.848941 
L 572.292242 186.859971 
L 572.813931 187.893427 
L 573.124173 186.952983 
L 573.290523 185.695849 
L 573.651531 185.337269 
L 573.787544 186.43984 
L 574.067189 187.657294 
L 574.305954 187.693176 
L 574.607337 186.483822 
L 574.902328 184.472805 
L 575.080812 184.125779 
L 575.140094 184.449877 
L 575.558243 185.94518 
L 575.739988 188.882299 
L 575.975852 190.216845 
L 576.332924 188.425486 
L 576.511705 185.524776 
L 576.691707 184.65045 
L 577.019398 186.672326 
L 577.528467 191.95576 
L 577.770911 191.020845 
L 578.2394 186.279892 
L 578.60946 185.783832 
L 579.255909 188.811402 
L 579.496068 187.637283 
L 579.971738 183.75687 
L 580.270002 183.353531 
L 580.748428 187.671677 
L 581.16671 188.094056 
L 581.232393 187.455006 
L 581.470211 186.291814 
L 581.82152 186.245182 
L 581.959921 187.033959 
L 582.478349 186.833266 
L 582.956523 187.228557 
L 583.561423 186.331419 
L 583.800021 187.954031 
L 583.977973 187.896523 
L 584.219664 185.701701 
L 584.575273 185.552511 
L 584.872836 187.759332 
L 585.113187 188.571426 
L 585.233019 188.433892 
L 585.409373 188.007244 
L 585.65838 186.771745 
L 585.885885 186.7607 
L 586.130566 187.075289 
L 586.662266 188.051272 
L 586.91443 187.85107 
L 587.396833 186.684184 
L 587.61558 186.317034 
L 587.882983 186.621182 
L 588.123125 187.956808 
L 588.123125 187.956808 
" clip-path="url(#p178ca28938)" style="fill: none; stroke: #ff0000; stroke-opacity: 0.5; stroke-width: 1.5; stroke-linecap: square"/>
   </g>
   <g id="patch_3">
    <path d="M 30.123125 277.92 
L 30.123125 0.72 
" style="fill: none; stroke: #000000; stroke-width: 0.8; stroke-linejoin: miter; stroke-linecap: square"/>
   </g>
   <g id="patch_4">
    <path d="M 588.123125 277.92 
L 588.123125 0.72 
" style="fill: none; stroke: #000000; stroke-width: 0.8; stroke-linejoin: miter; stroke-linecap: square"/>
   </g>
   <g id="patch_5">
    <path d="M 30.123125 277.92 
L 588.123125 277.92 
" style="fill: none; stroke: #000000; stroke-width: 0.8; stroke-linejoin: miter; stroke-linecap: square"/>
   </g>
   <g id="patch_6">
    <path d="M 30.123125 0.72 
L 588.123125 0.72 
" style="fill: none; stroke: #000000; stroke-width: 0.8; stroke-linejoin: miter; stroke-linecap: square"/>
   </g>
   <g id="legend_1">
    <g id="patch_7">
     <path d="M 507.354375 38.07625 
L 581.123125 38.07625 
Q 583.123125 38.07625 583.123125 36.07625 
L 583.123125 7.72 
Q 583.123125 5.72 581.123125 5.72 
L 507.354375 5.72 
Q 505.354375 5.72 505.354375 7.72 
L 505.354375 36.07625 
Q 505.354375 38.07625 507.354375 38.07625 
z
" style="fill: #ffffff; opacity: 0.8; stroke: #cccccc; stroke-linejoin: miter"/>
    </g>
    <g id="line2d_31">
     <path d="M 509.354375 13.818438 
L 519.354375 13.818438 
L 529.354375 13.818438 
" style="fill: none; stroke: #0000ff; stroke-opacity: 0.5; stroke-width: 1.5; stroke-linecap: square"/>
    </g>
    <g id="text_17">
     <!-- RNEA -->
     <g transform="translate(537.354375 17.318438) scale(0.1 -0.1)">
      <defs>
       <path id="DejaVuSans-52" d="M 2841 2188 
Q 3044 2119 3236 1894 
Q 3428 1669 3622 1275 
L 4263 0 
L 3584 0 
L 2988 1197 
Q 2756 1666 2539 1819 
Q 2322 1972 1947 1972 
L 1259 1972 
L 1259 0 
L 628 0 
L 628 4666 
L 2053 4666 
Q 2853 4666 3247 4331 
Q 3641 3997 3641 3322 
Q 3641 2881 3436 2590 
Q 3231 2300 2841 2188 
z
M 1259 4147 
L 1259 2491 
L 2053 2491 
Q 2509 2491 2742 2702 
Q 2975 2913 2975 3322 
Q 2975 3731 2742 3939 
Q 2509 4147 2053 4147 
L 1259 4147 
z
" transform="scale(0.015625)"/>
       <path id="DejaVuSans-45" d="M 628 4666 
L 3578 4666 
L 3578 4134 
L 1259 4134 
L 1259 2753 
L 3481 2753 
L 3481 2222 
L 1259 2222 
L 1259 531 
L 3634 531 
L 3634 0 
L 628 0 
L 628 4666 
z
" transform="scale(0.015625)"/>
       <path id="DejaVuSans-41" d="M 2188 4044 
L 1331 1722 
L 3047 1722 
L 2188 4044 
z
M 1831 4666 
L 2547 4666 
L 4325 0 
L 3669 0 
L 3244 1197 
L 1141 1197 
L 716 0 
L 50 0 
L 1831 4666 
z
" transform="scale(0.015625)"/>
      </defs>
      <use xlink:href="#DejaVuSans-52"/>
      <use xlink:href="#DejaVuSans-4e" x="69.482422"/>
      <use xlink:href="#DejaVuSans-45" x="144.287109"/>
      <use xlink:href="#DejaVuSans-41" x="207.470703"/>
     </g>
    </g>
    <g id="line2d_32">
     <path d="M 509.354375 28.496563 
L 519.354375 28.496563 
L 529.354375 28.496563 
" style="fill: none; stroke: #ff0000; stroke-opacity: 0.5; stroke-width: 1.5; stroke-linecap: square"/>
    </g>
    <g id="text_18">
     <!-- BURNEA -->
     <g transform="translate(537.354375 31.996563) scale(0.1 -0.1)">
      <defs>
       <path id="DejaVuSans-42" d="M 1259 2228 
L 1259 519 
L 2272 519 
Q 2781 519 3026 730 
Q 3272 941 3272 1375 
Q 3272 1813 3026 2020 
Q 2781 2228 2272 2228 
L 1259 2228 
z
M 1259 4147 
L 1259 2741 
L 2194 2741 
Q 2656 2741 2882 2914 
Q 3109 3088 3109 3444 
Q 3109 3797 2882 3972 
Q 2656 4147 2194 4147 
L 1259 4147 
z
M 628 4666 
L 2241 4666 
Q 2963 4666 3353 4366 
Q 3744 4066 3744 3513 
Q 3744 3084 3544 2831 
Q 3344 2578 2956 2516 
Q 3422 2416 3680 2098 
Q 3938 1781 3938 1306 
Q 3938 681 3513 340 
Q 3088 0 2303 0 
L 628 0 
L 628 4666 
z
" transform="scale(0.015625)"/>
       <path id="DejaVuSans-55" d="M 556 4666 
L 1191 4666 
L 1191 1831 
Q 1191 1081 1462 751 
Q 1734 422 2344 422 
Q 2950 422 3222 751 
Q 3494 1081 3494 1831 
L 3494 4666 
L 4128 4666 
L 4128 1753 
Q 4128 841 3676 375 
Q 3225 -91 2344 -91 
Q 1459 -91 1007 375 
Q 556 841 556 1753 
L 556 4666 
z
" transform="scale(0.015625)"/>
      </defs>
      <use xlink:href="#DejaVuSans-42"/>
      <use xlink:href="#DejaVuSans-55" x="68.603516"/>
      <use xlink:href="#DejaVuSans-52" x="141.796875"/>
      <use xlink:href="#DejaVuSans-4e" x="211.279297"/>
      <use xlink:href="#DejaVuSans-45" x="286.083984"/>
      <use xlink:href="#DejaVuSans-41" x="349.267578"/>
     </g>
    </g>
   </g>
  </g>
 </g>
 <defs>
  <clipPath id="p178ca28938">
   <rect x="30.123125" y="0.72" width="558" height="277.2"/>
  </clipPath>
 </defs>
</svg>
