<?xml version="1.0" encoding="utf-8" standalone="no"?>
<!DOCTYPE svg PUBLIC "-//W3C//DTD SVG 1.1//EN"
  "http://www.w3.org/Graphics/SVG/1.1/DTD/svg11.dtd">
<svg xmlns:xlink="http://www.w3.org/1999/xlink" width="603.585312pt" height="304.99625pt" viewBox="0 0 603.585312 304.99625" xmlns="http://www.w3.org/2000/svg" version="1.1">
 <metadata>
  <rdf:RDF xmlns:dc="http://purl.org/dc/elements/1.1/" xmlns:cc="http://creativecommons.org/ns#" xmlns:rdf="http://www.w3.org/1999/02/22-rdf-syntax-ns#">
   <cc:Work>
    <dc:type rdf:resource="http://purl.org/dc/dcmitype/StillImage"/>
    <dc:date>2023-09-05T22:09:02.161505</dc:date>
    <dc:format>image/svg+xml</dc:format>
    <dc:creator>
     <cc:Agent>
      <dc:title>Matplotlib v3.7.2, https://matplotlib.org/</dc:title>
     </cc:Agent>
    </dc:creator>
   </cc:Work>
  </rdf:RDF>
 </metadata>
 <defs>
  <style type="text/css">*{stroke-linejoin: round; stroke-linecap: butt}</style>
 </defs>
 <g id="figure_1">
  <g id="patch_1">
   <path d="M 0 304.99625 
L 603.585312 304.99625 
L 603.585312 0 
L 0 0 
L 0 304.99625 
z
" style="fill: none"/>
  </g>
  <g id="axes_1">
   <g id="patch_2">
    <path d="M 44.865313 277.92 
L 602.865312 277.92 
L 602.865312 0.72 
L 44.865313 0.72 
L 44.865313 277.92 
z
" style="fill: none"/>
   </g>
   <g id="matplotlib.axis_1">
    <g id="xtick_1">
     <g id="line2d_1">
      <path d="M 44.865313 277.92 
L 44.865313 0.72 
" clip-path="url(#pf99bdb11db)" style="fill: none; stroke-dasharray: 0.8,1.32; stroke-dashoffset: 0; stroke: #000000; stroke-opacity: 0.5; stroke-width: 0.8"/>
     </g>
     <g id="line2d_2">
      <defs>
       <path id="mc6097ed9a6" d="M 0 0 
L 0 3.5 
" style="stroke: #000000; stroke-width: 0.8"/>
      </defs>
      <g>
       <use xlink:href="#mc6097ed9a6" x="44.865313" y="277.92" style="stroke: #000000; stroke-width: 0.8"/>
      </g>
     </g>
     <g id="text_1">
      <!-- 0 -->
      <g transform="translate(41.684063 292.518438) scale(0.1 -0.1)">
       <defs>
        <path id="DejaVuSans-30" d="M 2034 4250 
Q 1547 4250 1301 3770 
Q 1056 3291 1056 2328 
Q 1056 1369 1301 889 
Q 1547 409 2034 409 
Q 2525 409 2770 889 
Q 3016 1369 3016 2328 
Q 3016 3291 2770 3770 
Q 2525 4250 2034 4250 
z
M 2034 4750 
Q 2819 4750 3233 4129 
Q 3647 3509 3647 2328 
Q 3647 1150 3233 529 
Q 2819 -91 2034 -91 
Q 1250 -91 836 529 
Q 422 1150 422 2328 
Q 422 3509 836 4129 
Q 1250 4750 2034 4750 
z
" transform="scale(0.015625)"/>
       </defs>
       <use xlink:href="#DejaVuSans-30"/>
      </g>
     </g>
    </g>
    <g id="xtick_2">
     <g id="line2d_3">
      <path d="M 130.095114 277.92 
L 130.095114 0.72 
" clip-path="url(#pf99bdb11db)" style="fill: none; stroke-dasharray: 0.8,1.32; stroke-dashoffset: 0; stroke: #000000; stroke-opacity: 0.5; stroke-width: 0.8"/>
     </g>
     <g id="line2d_4">
      <g>
       <use xlink:href="#mc6097ed9a6" x="130.095114" y="277.92" style="stroke: #000000; stroke-width: 0.8"/>
      </g>
     </g>
     <g id="text_2">
      <!-- 5 -->
      <g transform="translate(126.913864 292.518438) scale(0.1 -0.1)">
       <defs>
        <path id="DejaVuSans-35" d="M 691 4666 
L 3169 4666 
L 3169 4134 
L 1269 4134 
L 1269 2991 
Q 1406 3038 1543 3061 
Q 1681 3084 1819 3084 
Q 2600 3084 3056 2656 
Q 3513 2228 3513 1497 
Q 3513 744 3044 326 
Q 2575 -91 1722 -91 
Q 1428 -91 1123 -41 
Q 819 9 494 109 
L 494 744 
Q 775 591 1075 516 
Q 1375 441 1709 441 
Q 2250 441 2565 725 
Q 2881 1009 2881 1497 
Q 2881 1984 2565 2268 
Q 2250 2553 1709 2553 
Q 1456 2553 1204 2497 
Q 953 2441 691 2322 
L 691 4666 
z
" transform="scale(0.015625)"/>
       </defs>
       <use xlink:href="#DejaVuSans-35"/>
      </g>
     </g>
    </g>
    <g id="xtick_3">
     <g id="line2d_5">
      <path d="M 215.324915 277.92 
L 215.324915 0.72 
" clip-path="url(#pf99bdb11db)" style="fill: none; stroke-dasharray: 0.8,1.32; stroke-dashoffset: 0; stroke: #000000; stroke-opacity: 0.5; stroke-width: 0.8"/>
     </g>
     <g id="line2d_6">
      <g>
       <use xlink:href="#mc6097ed9a6" x="215.324915" y="277.92" style="stroke: #000000; stroke-width: 0.8"/>
      </g>
     </g>
     <g id="text_3">
      <!-- 10 -->
      <g transform="translate(208.962415 292.518438) scale(0.1 -0.1)">
       <defs>
        <path id="DejaVuSans-31" d="M 794 531 
L 1825 531 
L 1825 4091 
L 703 3866 
L 703 4441 
L 1819 4666 
L 2450 4666 
L 2450 531 
L 3481 531 
L 3481 0 
L 794 0 
L 794 531 
z
" transform="scale(0.015625)"/>
       </defs>
       <use xlink:href="#DejaVuSans-31"/>
       <use xlink:href="#DejaVuSans-30" x="63.623047"/>
      </g>
     </g>
    </g>
    <g id="xtick_4">
     <g id="line2d_7">
      <path d="M 300.554716 277.92 
L 300.554716 0.72 
" clip-path="url(#pf99bdb11db)" style="fill: none; stroke-dasharray: 0.8,1.32; stroke-dashoffset: 0; stroke: #000000; stroke-opacity: 0.5; stroke-width: 0.8"/>
     </g>
     <g id="line2d_8">
      <g>
       <use xlink:href="#mc6097ed9a6" x="300.554716" y="277.92" style="stroke: #000000; stroke-width: 0.8"/>
      </g>
     </g>
     <g id="text_4">
      <!-- 15 -->
      <g transform="translate(294.192216 292.518438) scale(0.1 -0.1)">
       <use xlink:href="#DejaVuSans-31"/>
       <use xlink:href="#DejaVuSans-35" x="63.623047"/>
      </g>
     </g>
    </g>
    <g id="xtick_5">
     <g id="line2d_9">
      <path d="M 385.784517 277.92 
L 385.784517 0.72 
" clip-path="url(#pf99bdb11db)" style="fill: none; stroke-dasharray: 0.8,1.32; stroke-dashoffset: 0; stroke: #000000; stroke-opacity: 0.5; stroke-width: 0.8"/>
     </g>
     <g id="line2d_10">
      <g>
       <use xlink:href="#mc6097ed9a6" x="385.784517" y="277.92" style="stroke: #000000; stroke-width: 0.8"/>
      </g>
     </g>
     <g id="text_5">
      <!-- 20 -->
      <g transform="translate(379.422017 292.518438) scale(0.1 -0.1)">
       <defs>
        <path id="DejaVuSans-32" d="M 1228 531 
L 3431 531 
L 3431 0 
L 469 0 
L 469 531 
Q 828 903 1448 1529 
Q 2069 2156 2228 2338 
Q 2531 2678 2651 2914 
Q 2772 3150 2772 3378 
Q 2772 3750 2511 3984 
Q 2250 4219 1831 4219 
Q 1534 4219 1204 4116 
Q 875 4013 500 3803 
L 500 4441 
Q 881 4594 1212 4672 
Q 1544 4750 1819 4750 
Q 2544 4750 2975 4387 
Q 3406 4025 3406 3419 
Q 3406 3131 3298 2873 
Q 3191 2616 2906 2266 
Q 2828 2175 2409 1742 
Q 1991 1309 1228 531 
z
" transform="scale(0.015625)"/>
       </defs>
       <use xlink:href="#DejaVuSans-32"/>
       <use xlink:href="#DejaVuSans-30" x="63.623047"/>
      </g>
     </g>
    </g>
    <g id="xtick_6">
     <g id="line2d_11">
      <path d="M 471.014318 277.92 
L 471.014318 0.72 
" clip-path="url(#pf99bdb11db)" style="fill: none; stroke-dasharray: 0.8,1.32; stroke-dashoffset: 0; stroke: #000000; stroke-opacity: 0.5; stroke-width: 0.8"/>
     </g>
     <g id="line2d_12">
      <g>
       <use xlink:href="#mc6097ed9a6" x="471.014318" y="277.92" style="stroke: #000000; stroke-width: 0.8"/>
      </g>
     </g>
     <g id="text_6">
      <!-- 25 -->
      <g transform="translate(464.651818 292.518438) scale(0.1 -0.1)">
       <use xlink:href="#DejaVuSans-32"/>
       <use xlink:href="#DejaVuSans-35" x="63.623047"/>
      </g>
     </g>
    </g>
    <g id="xtick_7">
     <g id="line2d_13">
      <path d="M 556.244119 277.92 
L 556.244119 0.72 
" clip-path="url(#pf99bdb11db)" style="fill: none; stroke-dasharray: 0.8,1.32; stroke-dashoffset: 0; stroke: #000000; stroke-opacity: 0.5; stroke-width: 0.8"/>
     </g>
     <g id="line2d_14">
      <g>
       <use xlink:href="#mc6097ed9a6" x="556.244119" y="277.92" style="stroke: #000000; stroke-width: 0.8"/>
      </g>
     </g>
     <g id="text_7">
      <!-- 30 -->
      <g transform="translate(549.881619 292.518438) scale(0.1 -0.1)">
       <defs>
        <path id="DejaVuSans-33" d="M 2597 2516 
Q 3050 2419 3304 2112 
Q 3559 1806 3559 1356 
Q 3559 666 3084 287 
Q 2609 -91 1734 -91 
Q 1441 -91 1130 -33 
Q 819 25 488 141 
L 488 750 
Q 750 597 1062 519 
Q 1375 441 1716 441 
Q 2309 441 2620 675 
Q 2931 909 2931 1356 
Q 2931 1769 2642 2001 
Q 2353 2234 1838 2234 
L 1294 2234 
L 1294 2753 
L 1863 2753 
Q 2328 2753 2575 2939 
Q 2822 3125 2822 3475 
Q 2822 3834 2567 4026 
Q 2313 4219 1838 4219 
Q 1578 4219 1281 4162 
Q 984 4106 628 3988 
L 628 4550 
Q 988 4650 1302 4700 
Q 1616 4750 1894 4750 
Q 2613 4750 3031 4423 
Q 3450 4097 3450 3541 
Q 3450 3153 3228 2886 
Q 3006 2619 2597 2516 
z
" transform="scale(0.015625)"/>
       </defs>
       <use xlink:href="#DejaVuSans-33"/>
       <use xlink:href="#DejaVuSans-30" x="63.623047"/>
      </g>
     </g>
    </g>
    <g id="text_8">
     <!-- Zeit [s] -->
     <g transform="translate(305.919219 302.196563) scale(0.1 -0.1)">
      <defs>
       <path id="DejaVuSans-5a" d="M 359 4666 
L 4025 4666 
L 4025 4184 
L 1075 531 
L 4097 531 
L 4097 0 
L 288 0 
L 288 481 
L 3238 4134 
L 359 4134 
L 359 4666 
z
" transform="scale(0.015625)"/>
       <path id="DejaVuSans-65" d="M 3597 1894 
L 3597 1613 
L 953 1613 
Q 991 1019 1311 708 
Q 1631 397 2203 397 
Q 2534 397 2845 478 
Q 3156 559 3463 722 
L 3463 178 
Q 3153 47 2828 -22 
Q 2503 -91 2169 -91 
Q 1331 -91 842 396 
Q 353 884 353 1716 
Q 353 2575 817 3079 
Q 1281 3584 2069 3584 
Q 2775 3584 3186 3129 
Q 3597 2675 3597 1894 
z
M 3022 2063 
Q 3016 2534 2758 2815 
Q 2500 3097 2075 3097 
Q 1594 3097 1305 2825 
Q 1016 2553 972 2059 
L 3022 2063 
z
" transform="scale(0.015625)"/>
       <path id="DejaVuSans-69" d="M 603 3500 
L 1178 3500 
L 1178 0 
L 603 0 
L 603 3500 
z
M 603 4863 
L 1178 4863 
L 1178 4134 
L 603 4134 
L 603 4863 
z
" transform="scale(0.015625)"/>
       <path id="DejaVuSans-74" d="M 1172 4494 
L 1172 3500 
L 2356 3500 
L 2356 3053 
L 1172 3053 
L 1172 1153 
Q 1172 725 1289 603 
Q 1406 481 1766 481 
L 2356 481 
L 2356 0 
L 1766 0 
Q 1100 0 847 248 
Q 594 497 594 1153 
L 594 3053 
L 172 3053 
L 172 3500 
L 594 3500 
L 594 4494 
L 1172 4494 
z
" transform="scale(0.015625)"/>
       <path id="DejaVuSans-20" transform="scale(0.015625)"/>
       <path id="DejaVuSans-5b" d="M 550 4863 
L 1875 4863 
L 1875 4416 
L 1125 4416 
L 1125 -397 
L 1875 -397 
L 1875 -844 
L 550 -844 
L 550 4863 
z
" transform="scale(0.015625)"/>
       <path id="DejaVuSans-73" d="M 2834 3397 
L 2834 2853 
Q 2591 2978 2328 3040 
Q 2066 3103 1784 3103 
Q 1356 3103 1142 2972 
Q 928 2841 928 2578 
Q 928 2378 1081 2264 
Q 1234 2150 1697 2047 
L 1894 2003 
Q 2506 1872 2764 1633 
Q 3022 1394 3022 966 
Q 3022 478 2636 193 
Q 2250 -91 1575 -91 
Q 1294 -91 989 -36 
Q 684 19 347 128 
L 347 722 
Q 666 556 975 473 
Q 1284 391 1588 391 
Q 1994 391 2212 530 
Q 2431 669 2431 922 
Q 2431 1156 2273 1281 
Q 2116 1406 1581 1522 
L 1381 1569 
Q 847 1681 609 1914 
Q 372 2147 372 2553 
Q 372 3047 722 3315 
Q 1072 3584 1716 3584 
Q 2034 3584 2315 3537 
Q 2597 3491 2834 3397 
z
" transform="scale(0.015625)"/>
       <path id="DejaVuSans-5d" d="M 1947 4863 
L 1947 -844 
L 622 -844 
L 622 -397 
L 1369 -397 
L 1369 4416 
L 622 4416 
L 622 4863 
L 1947 4863 
z
" transform="scale(0.015625)"/>
      </defs>
      <use xlink:href="#DejaVuSans-5a"/>
      <use xlink:href="#DejaVuSans-65" x="68.505859"/>
      <use xlink:href="#DejaVuSans-69" x="130.029297"/>
      <use xlink:href="#DejaVuSans-74" x="157.8125"/>
      <use xlink:href="#DejaVuSans-20" x="197.021484"/>
      <use xlink:href="#DejaVuSans-5b" x="228.808594"/>
      <use xlink:href="#DejaVuSans-73" x="267.822266"/>
      <use xlink:href="#DejaVuSans-5d" x="319.921875"/>
     </g>
    </g>
   </g>
   <g id="matplotlib.axis_2">
    <g id="ytick_1">
     <g id="line2d_15">
      <path d="M 44.865313 244.207959 
L 602.865312 244.207959 
" clip-path="url(#pf99bdb11db)" style="fill: none; stroke-dasharray: 0.8,1.32; stroke-dashoffset: 0; stroke: #000000; stroke-opacity: 0.5; stroke-width: 0.8"/>
     </g>
     <g id="line2d_16">
      <defs>
       <path id="ma3424b439a" d="M 0 0 
L -3.5 0 
" style="stroke: #000000; stroke-width: 0.8"/>
      </defs>
      <g>
       <use xlink:href="#ma3424b439a" x="44.865313" y="244.207959" style="stroke: #000000; stroke-width: 0.8"/>
      </g>
     </g>
     <g id="text_9">
      <!-- −165 -->
      <g transform="translate(10.398125 248.007178) scale(0.1 -0.1)">
       <defs>
        <path id="DejaVuSans-2212" d="M 678 2272 
L 4684 2272 
L 4684 1741 
L 678 1741 
L 678 2272 
z
" transform="scale(0.015625)"/>
        <path id="DejaVuSans-36" d="M 2113 2584 
Q 1688 2584 1439 2293 
Q 1191 2003 1191 1497 
Q 1191 994 1439 701 
Q 1688 409 2113 409 
Q 2538 409 2786 701 
Q 3034 994 3034 1497 
Q 3034 2003 2786 2293 
Q 2538 2584 2113 2584 
z
M 3366 4563 
L 3366 3988 
Q 3128 4100 2886 4159 
Q 2644 4219 2406 4219 
Q 1781 4219 1451 3797 
Q 1122 3375 1075 2522 
Q 1259 2794 1537 2939 
Q 1816 3084 2150 3084 
Q 2853 3084 3261 2657 
Q 3669 2231 3669 1497 
Q 3669 778 3244 343 
Q 2819 -91 2113 -91 
Q 1303 -91 875 529 
Q 447 1150 447 2328 
Q 447 3434 972 4092 
Q 1497 4750 2381 4750 
Q 2619 4750 2861 4703 
Q 3103 4656 3366 4563 
z
" transform="scale(0.015625)"/>
       </defs>
       <use xlink:href="#DejaVuSans-2212"/>
       <use xlink:href="#DejaVuSans-31" x="83.789062"/>
       <use xlink:href="#DejaVuSans-36" x="147.412109"/>
       <use xlink:href="#DejaVuSans-35" x="211.035156"/>
      </g>
     </g>
    </g>
    <g id="ytick_2">
     <g id="line2d_17">
      <path d="M 44.865313 196.772418 
L 602.865312 196.772418 
" clip-path="url(#pf99bdb11db)" style="fill: none; stroke-dasharray: 0.8,1.32; stroke-dashoffset: 0; stroke: #000000; stroke-opacity: 0.5; stroke-width: 0.8"/>
     </g>
     <g id="line2d_18">
      <g>
       <use xlink:href="#ma3424b439a" x="44.865313" y="196.772418" style="stroke: #000000; stroke-width: 0.8"/>
      </g>
     </g>
     <g id="text_10">
      <!-- −160 -->
      <g transform="translate(10.398125 200.571637) scale(0.1 -0.1)">
       <use xlink:href="#DejaVuSans-2212"/>
       <use xlink:href="#DejaVuSans-31" x="83.789062"/>
       <use xlink:href="#DejaVuSans-36" x="147.412109"/>
       <use xlink:href="#DejaVuSans-30" x="211.035156"/>
      </g>
     </g>
    </g>
    <g id="ytick_3">
     <g id="line2d_19">
      <path d="M 44.865313 149.336877 
L 602.865312 149.336877 
" clip-path="url(#pf99bdb11db)" style="fill: none; stroke-dasharray: 0.8,1.32; stroke-dashoffset: 0; stroke: #000000; stroke-opacity: 0.5; stroke-width: 0.8"/>
     </g>
     <g id="line2d_20">
      <g>
       <use xlink:href="#ma3424b439a" x="44.865313" y="149.336877" style="stroke: #000000; stroke-width: 0.8"/>
      </g>
     </g>
     <g id="text_11">
      <!-- −155 -->
      <g transform="translate(10.398125 153.136096) scale(0.1 -0.1)">
       <use xlink:href="#DejaVuSans-2212"/>
       <use xlink:href="#DejaVuSans-31" x="83.789062"/>
       <use xlink:href="#DejaVuSans-35" x="147.412109"/>
       <use xlink:href="#DejaVuSans-35" x="211.035156"/>
      </g>
     </g>
    </g>
    <g id="ytick_4">
     <g id="line2d_21">
      <path d="M 44.865313 101.901336 
L 602.865312 101.901336 
" clip-path="url(#pf99bdb11db)" style="fill: none; stroke-dasharray: 0.8,1.32; stroke-dashoffset: 0; stroke: #000000; stroke-opacity: 0.5; stroke-width: 0.8"/>
     </g>
     <g id="line2d_22">
      <g>
       <use xlink:href="#ma3424b439a" x="44.865313" y="101.901336" style="stroke: #000000; stroke-width: 0.8"/>
      </g>
     </g>
     <g id="text_12">
      <!-- −150 -->
      <g transform="translate(10.398125 105.700555) scale(0.1 -0.1)">
       <use xlink:href="#DejaVuSans-2212"/>
       <use xlink:href="#DejaVuSans-31" x="83.789062"/>
       <use xlink:href="#DejaVuSans-35" x="147.412109"/>
       <use xlink:href="#DejaVuSans-30" x="211.035156"/>
      </g>
     </g>
    </g>
    <g id="ytick_5">
     <g id="line2d_23">
      <path d="M 44.865313 54.465795 
L 602.865312 54.465795 
" clip-path="url(#pf99bdb11db)" style="fill: none; stroke-dasharray: 0.8,1.32; stroke-dashoffset: 0; stroke: #000000; stroke-opacity: 0.5; stroke-width: 0.8"/>
     </g>
     <g id="line2d_24">
      <g>
       <use xlink:href="#ma3424b439a" x="44.865313" y="54.465795" style="stroke: #000000; stroke-width: 0.8"/>
      </g>
     </g>
     <g id="text_13">
      <!-- −145 -->
      <g transform="translate(10.398125 58.265014) scale(0.1 -0.1)">
       <defs>
        <path id="DejaVuSans-34" d="M 2419 4116 
L 825 1625 
L 2419 1625 
L 2419 4116 
z
M 2253 4666 
L 3047 4666 
L 3047 1625 
L 3713 1625 
L 3713 1100 
L 3047 1100 
L 3047 0 
L 2419 0 
L 2419 1100 
L 313 1100 
L 313 1709 
L 2253 4666 
z
" transform="scale(0.015625)"/>
       </defs>
       <use xlink:href="#DejaVuSans-2212"/>
       <use xlink:href="#DejaVuSans-31" x="83.789062"/>
       <use xlink:href="#DejaVuSans-34" x="147.412109"/>
       <use xlink:href="#DejaVuSans-35" x="211.035156"/>
      </g>
     </g>
    </g>
    <g id="ytick_6">
     <g id="line2d_25">
      <path d="M 44.865313 7.030254 
L 602.865312 7.030254 
" clip-path="url(#pf99bdb11db)" style="fill: none; stroke-dasharray: 0.8,1.32; stroke-dashoffset: 0; stroke: #000000; stroke-opacity: 0.5; stroke-width: 0.8"/>
     </g>
     <g id="line2d_26">
      <g>
       <use xlink:href="#ma3424b439a" x="44.865313" y="7.030254" style="stroke: #000000; stroke-width: 0.8"/>
      </g>
     </g>
     <g id="text_14">
      <!-- −140 -->
      <g transform="translate(10.398125 10.829473) scale(0.1 -0.1)">
       <use xlink:href="#DejaVuSans-2212"/>
       <use xlink:href="#DejaVuSans-31" x="83.789062"/>
       <use xlink:href="#DejaVuSans-34" x="147.412109"/>
       <use xlink:href="#DejaVuSans-30" x="211.035156"/>
      </g>
     </g>
    </g>
    <g id="text_15">
     <!-- Kraft [N] -->
     <g transform="translate(8.318438 160.5825) rotate(-90) scale(0.1 -0.1)">
      <defs>
       <path id="DejaVuSans-4b" d="M 628 4666 
L 1259 4666 
L 1259 2694 
L 3353 4666 
L 4166 4666 
L 1850 2491 
L 4331 0 
L 3500 0 
L 1259 2247 
L 1259 0 
L 628 0 
L 628 4666 
z
" transform="scale(0.015625)"/>
       <path id="DejaVuSans-72" d="M 2631 2963 
Q 2534 3019 2420 3045 
Q 2306 3072 2169 3072 
Q 1681 3072 1420 2755 
Q 1159 2438 1159 1844 
L 1159 0 
L 581 0 
L 581 3500 
L 1159 3500 
L 1159 2956 
Q 1341 3275 1631 3429 
Q 1922 3584 2338 3584 
Q 2397 3584 2469 3576 
Q 2541 3569 2628 3553 
L 2631 2963 
z
" transform="scale(0.015625)"/>
       <path id="DejaVuSans-61" d="M 2194 1759 
Q 1497 1759 1228 1600 
Q 959 1441 959 1056 
Q 959 750 1161 570 
Q 1363 391 1709 391 
Q 2188 391 2477 730 
Q 2766 1069 2766 1631 
L 2766 1759 
L 2194 1759 
z
M 3341 1997 
L 3341 0 
L 2766 0 
L 2766 531 
Q 2569 213 2275 61 
Q 1981 -91 1556 -91 
Q 1019 -91 701 211 
Q 384 513 384 1019 
Q 384 1609 779 1909 
Q 1175 2209 1959 2209 
L 2766 2209 
L 2766 2266 
Q 2766 2663 2505 2880 
Q 2244 3097 1772 3097 
Q 1472 3097 1187 3025 
Q 903 2953 641 2809 
L 641 3341 
Q 956 3463 1253 3523 
Q 1550 3584 1831 3584 
Q 2591 3584 2966 3190 
Q 3341 2797 3341 1997 
z
" transform="scale(0.015625)"/>
       <path id="DejaVuSans-66" d="M 2375 4863 
L 2375 4384 
L 1825 4384 
Q 1516 4384 1395 4259 
Q 1275 4134 1275 3809 
L 1275 3500 
L 2222 3500 
L 2222 3053 
L 1275 3053 
L 1275 0 
L 697 0 
L 697 3053 
L 147 3053 
L 147 3500 
L 697 3500 
L 697 3744 
Q 697 4328 969 4595 
Q 1241 4863 1831 4863 
L 2375 4863 
z
" transform="scale(0.015625)"/>
       <path id="DejaVuSans-4e" d="M 628 4666 
L 1478 4666 
L 3547 763 
L 3547 4666 
L 4159 4666 
L 4159 0 
L 3309 0 
L 1241 3903 
L 1241 0 
L 628 0 
L 628 4666 
z
" transform="scale(0.015625)"/>
      </defs>
      <use xlink:href="#DejaVuSans-4b"/>
      <use xlink:href="#DejaVuSans-72" x="65.576172"/>
      <use xlink:href="#DejaVuSans-61" x="106.689453"/>
      <use xlink:href="#DejaVuSans-66" x="167.96875"/>
      <use xlink:href="#DejaVuSans-74" x="201.423828"/>
      <use xlink:href="#DejaVuSans-20" x="240.632812"/>
      <use xlink:href="#DejaVuSans-5b" x="272.419922"/>
      <use xlink:href="#DejaVuSans-4e" x="311.433594"/>
      <use xlink:href="#DejaVuSans-5d" x="386.238281"/>
     </g>
    </g>
   </g>
   <g id="line2d_27">
    <path d="M 44.865313 277.92 
L 602.865312 277.92 
L 602.865312 277.92 
" clip-path="url(#pf99bdb11db)" style="fill: none; stroke: #0000ff; stroke-opacity: 0.7; stroke-width: 1.5; stroke-linecap: square"/>
   </g>
   <g id="line2d_28">
    <path d="M 44.865313 18.427962 
L 45.280012 10.765486 
L 45.461971 11.808016 
L 45.492209 16.288985 
L 45.593901 14.110035 
L 45.735597 14.505898 
L 45.835089 21.621316 
L 46.107129 19.010976 
L 46.280563 19.91774 
L 46.429168 18.048378 
L 46.587462 23.003454 
L 46.690084 22.609281 
L 46.965151 18.4324 
L 47.103473 20.721309 
L 47.30983 18.870557 
L 47.549779 22.448569 
L 47.686323 19.168306 
L 47.858492 20.05139 
L 48.098656 17.710033 
L 48.440881 24.641054 
L 48.784637 21.606093 
L 48.995067 18.777518 
L 49.129571 19.454209 
L 49.267526 16.813419 
L 49.50774 18.085601 
L 49.547207 20.680716 
L 50.236639 14.519434 
L 50.675032 18.297069 
L 50.81293 16.043685 
L 50.95068 16.823572 
L 51.227334 9.750447 
L 51.365337 10.694431 
L 51.512207 14.485595 
L 51.65594 14.02883 
L 51.81478 11.0074 
L 51.924717 13.68879 
L 52.090586 14.309655 
L 52.227705 15.255333 
L 52.365601 14.725819 
L 52.653742 18.396876 
L 52.786552 14.930524 
L 53.124048 17.300636 
L 53.22595 19.197066 
L 53.361993 18.317366 
L 53.499834 20.875261 
L 53.635452 20.420187 
L 53.922791 14.184475 
L 54.224815 17.647438 
L 54.362282 16.745746 
L 54.637456 23.578645 
L 54.775712 23.631088 
L 55.050592 18.686161 
L 55.33324 20.499693 
L 55.498332 20.244242 
L 55.774312 25.512289 
L 55.910983 24.30778 
L 56.049477 21.052891 
L 56.206917 20.421876 
L 56.329857 21.521499 
L 56.494449 20.16304 
L 56.632246 20.225634 
L 56.933774 23.214924 
L 57.047088 21.643308 
L 57.186715 22.506092 
L 57.321799 21.557026 
L 57.59672 17.909656 
L 57.767376 19.719808 
L 58.044091 26.095941 
L 58.178687 25.01831 
L 58.603349 17.826759 
L 58.769386 16.449694 
L 58.902247 18.562668 
L 59.182793 14.900074 
L 59.319328 16.282213 
L 59.456122 16.473377 
L 59.730971 18.748752 
L 59.937348 21.868306 
L 60.075047 19.948195 
L 60.246231 20.0294 
L 60.452701 15.595375 
L 60.692866 19.741805 
L 61.004536 11.142751 
L 61.172483 4.658347 
L 61.585089 12.924137 
L 61.727064 18.916244 
L 61.90211 16.962296 
L 62.008602 14.453459 
L 62.151631 14.832405 
L 62.451783 16.574882 
L 62.586797 19.904207 
L 62.865342 20.259468 
L 63.000125 18.574503 
L 63.149127 18.73014 
L 63.171683 17.608524 
L 63.317375 16.691607 
L 63.457737 17.139918 
L 63.608475 16.11769 
L 63.630571 16.339727 
L 63.736925 16.047057 
L 63.903365 13.854578 
L 64.150615 14.994807 
L 64.463169 20.251017 
L 64.579723 18.828273 
L 64.720246 18.829966 
L 64.904893 18.261543 
L 65.19931 14.521131 
L 65.301052 20.503088 
L 65.49414 23.639555 
L 65.514964 24.269724 
L 65.639643 24.002338 
L 65.640626 21.86324 
L 65.792303 20.181661 
L 66.03185 16.021698 
L 66.17131 15.089556 
L 66.34221 15.830535 
L 66.616718 20.496325 
L 66.926133 14.622634 
L 67.029271 13.401203 
L 67.132584 17.256653 
L 67.307823 17.782783 
L 67.442533 18.846881 
L 67.546007 16.940298 
L 67.865933 14.708906 
L 68.060075 16.22977 
L 68.234643 15.952329 
L 68.406992 21.24744 
L 68.734317 13.330143 
L 68.851612 13.91379 
L 69.134748 17.984095 
L 69.312881 19.45759 
L 69.435368 17.706652 
L 69.539823 18.440864 
L 69.915298 9.579588 
L 70.017942 9.034851 
L 70.536466 11.371131 
L 70.619129 14.436545 
L 70.808487 15.099705 
L 70.94547 13.63805 
L 71.118498 16.187482 
L 71.394004 22.673576 
L 71.530757 27.486545 
L 71.701651 26.403838 
L 72.053935 20.11399 
L 72.113415 16.727145 
L 72.251736 16.583346 
L 72.388911 17.454585 
L 72.560949 16.331276 
L 72.973126 10.655521 
L 73.109649 11.269621 
L 73.7622 21.398007 
L 73.830388 15.713798 
L 73.94701 15.849139 
L 74.104364 18.582974 
L 74.38 13.507787 
L 74.577443 14.289363 
L 74.826802 9.547442 
L 75.0062 7.483532 
L 75.103762 8.684661 
L 75.241181 14.167558 
L 75.4015 13.903647 
L 75.51634 10.095563 
L 75.755918 11.298383 
L 75.858615 11.269623 
L 75.962727 10.596317 
L 76.236371 14.803651 
L 76.718724 9.178646 
L 76.822941 10.283344 
L 76.959841 14.888232 
L 77.09707 13.984849 
L 77.302892 14.130338 
L 77.407908 12.460599 
L 77.612175 12.166239 
L 77.921642 13.457026 
L 78.024568 13.215111 
L 78.12837 13.375827 
L 78.325507 14.38579 
L 78.507283 13.188045 
L 78.679705 13.078082 
L 78.816248 10.706277 
L 79.099038 9.640489 
L 79.40846 14.891619 
L 79.529979 12.543494 
L 79.673515 11.95308 
L 79.915913 12.497815 
L 80.028736 13.479016 
L 80.106104 11.729766 
L 80.10625 13.658337 
L 80.39979 12.052884 
L 80.645183 11.836345 
L 80.709281 12.699694 
L 80.745552 10.702647 
L 80.88042 11.126385 
L 81.040519 14.032216 
L 81.073663 13.122066 
L 81.211451 14.615865 
L 81.375508 12.776956 
L 81.533308 12.868312 
L 81.735975 14.389179 
L 81.933492 13.770004 
L 82.077113 14.33673 
L 82.212746 12.570563 
L 82.350517 12.487668 
L 82.555335 15.771316 
L 82.624336 10.076952 
L 82.762697 11.325448 
L 83.208949 26.938418 
L 83.620806 18.393492 
L 83.826632 19.623378 
L 83.936771 14.11003 
L 84.38535 18.851954 
L 84.627642 17.23974 
L 84.798786 13.636354 
L 84.898252 13.680339 
L 85.242245 14.236918 
L 85.379848 17.732034 
L 85.484886 17.691433 
L 85.623949 15.475269 
L 85.873152 14.952522 
L 86.033801 11.723008 
L 86.341839 14.502518 
L 86.480912 18.352896 
L 86.654012 19.50327 
L 86.792013 18.638796 
L 87.038615 23.884849 
L 87.20383 23.974514 
L 87.616235 27.185062 
L 87.649107 26.261733 
L 88.375798 22.553123 
L 89.126148 17.941124 
L 89.927582 16.477895 
L 90.676692 17.401295 
L 90.707047 19.946501 
L 91.016298 15.522625 
L 91.292573 20.851574 
L 91.807037 5.861163 
L 91.844139 9.611728 
L 92.255505 12.024132 
L 92.287787 14.6903 
L 92.527681 16.346505 
L 92.772939 11.200261 
L 93.250255 18.56774 
L 93.423599 11.476007 
L 93.565509 11.391422 
L 93.711424 10.57939 
L 93.973043 12.86999 
L 94.316822 24.399131 
L 94.42075 23.751199 
L 94.58978 20.100448 
L 94.913759 26.031654 
L 95.105784 25.892931 
L 95.277381 19.391614 
L 95.418662 17.27526 
L 95.622442 17.711727 
L 95.690342 18.25139 
L 96.06821 23.683538 
L 96.35214 20.411732 
L 96.446574 20.465866 
L 96.628239 22.370751 
L 96.833818 19.709097 
L 96.860477 16.601953 
L 96.98945 19.433908 
L 97.195881 20.254397 
L 97.676892 16.69161 
L 97.814996 17.055334 
L 98.122966 19.026203 
L 98.260918 18.806277 
L 98.436182 18.002707 
L 98.708545 15.405903 
L 98.810965 16.427708 
L 99.11886 14.497444 
L 99.432299 15.272256 
L 99.702516 19.203837 
L 99.805925 16.155337 
L 99.979024 15.663043 
L 100.21804 18.209095 
L 100.391221 24.620752 
L 100.529103 26.64068 
L 100.702136 25.688239 
L 101.082152 19.829775 
L 101.251144 23.307973 
L 101.389128 23.389177 
L 101.66335 14.12696 
L 101.902137 13.047632 
L 101.936178 10.811164 
L 102.111546 12.634847 
L 102.404388 13.29293 
L 102.404962 12.507968 
L 102.419667 15.545562 
L 102.573286 16.634099 
L 102.867671 12.788795 
L 103.025393 13.186351 
L 103.22439 6.945567 
L 103.362283 2.305152 
L 103.565162 0.72 
L 103.805773 1.614924 
L 104.08057 3.631468 
L 104.216807 5.53974 
L 104.938444 25.914925 
L 105.075101 23.966054 
L 105.314815 23.270753 
L 105.353308 23.421315 
L 105.531058 24.018494 
L 105.626502 24.774697 
L 105.794646 22.709094 
L 105.940442 23.077892 
L 106.072108 22.130523 
L 106.3457 14.465296 
L 106.488879 13.692176 
L 106.75917 13.365671 
L 106.862257 10.454206 
L 106.938146 10.57432 
L 107.068518 11.301764 
L 107.342798 7.246685 
L 107.481705 7.346498 
L 107.791934 17.393685 
L 107.999464 18.66079 
L 108.032125 15.989547 
L 108.23643 15.591989 
L 108.340164 16.908155 
L 108.47916 15.982779 
L 108.615041 18.889173 
L 108.889304 20.393121 
L 109.098035 12.787105 
L 109.342271 14.284288 
L 109.646408 18.029777 
L 109.748169 16.798198 
L 109.990711 16.021694 
L 110.198483 13.857975 
L 110.401147 16.830344 
L 110.539923 16.197633 
L 110.641948 13.925637 
L 110.786288 14.844246 
L 110.912395 17.275262 
L 111.172501 8.694807 
L 111.488544 13.238791 
L 111.95794 21.140864 
L 112.163062 18.522067 
L 112.33544 19.126017 
L 112.537734 24.864367 
L 112.61731 32.2623 
L 112.887327 25.522449 
L 113.026853 25.600268 
L 113.171499 28.516807 
L 113.304453 26.588232 
L 113.609496 30.002145 
L 113.747906 30.924138 
L 114.126068 30.913986 
L 114.159806 23.630244 
L 114.298801 29.174885 
L 114.539286 25.683152 
L 114.607677 20.110599 
L 114.745177 19.053269 
L 114.882008 19.007589 
L 115.143564 18.383339 
L 115.296624 11.308525 
L 115.430383 14.948282 
L 115.464481 14.343487 
L 115.686434 12.017358 
L 115.749109 8.097622 
L 115.953641 11.051383 
L 116.155714 17.018112 
L 116.565763 16.150258 
L 116.779937 22.341986 
L 117.014637 24.531088 
L 117.29255 26.662664 
L 117.739534 23.231833 
L 117.91588 24.033714 
L 117.993067 25.723754 
L 118.186671 23.108338 
L 118.290136 19.235967 
L 118.54898 20.601192 
L 118.635751 23.813788 
L 118.839015 25.581646 
L 118.872944 23.928826 
L 119.096547 23.690293 
L 119.171306 23.849319 
L 119.304243 26.373381 
L 119.42612 26.520561 
L 119.561688 28.351015 
L 119.871924 34.568125 
L 120.115784 28.980584 
L 120.1473 30.389554 
L 120.421805 26.782785 
L 120.704912 18.17188 
L 120.874694 18.116055 
L 121.012292 17.285418 
L 121.122931 14.788427 
L 121.286288 14.896698 
L 121.423317 13.341996 
L 121.561508 10.438985 
L 122.120699 16.539925 
L 122.147573 10.613231 
L 122.390198 16.008154 
L 122.597821 18.112663 
L 122.698788 15.568299 
L 122.873073 18.01285 
L 123.008732 22.353832 
L 123.118086 20.995375 
L 123.287182 15.310601 
L 123.316439 18.738368 
L 123.558034 21.951205 
L 123.697149 19.078646 
L 123.835787 19.406843 
L 123.973634 15.593683 
L 124.31809 20.254398 
L 124.418192 17.473194 
L 124.562211 17.023193 
L 124.66059 20.890486 
L 124.972299 18.205708 
L 125.143266 21.073189 
L 125.521421 18.405336 
L 125.660167 15.75947 
L 125.907739 16.035222 
L 125.941533 16.574884 
L 126.11866 14.143868 
L 126.251404 14.590488 
L 126.392468 15.59876 
L 126.697781 11.873573 
L 126.799502 11.418497 
L 127.521158 20.646883 
L 127.659595 21.073195 
L 127.805308 20.286539 
L 127.934801 18.368119 
L 128.106776 18.91793 
L 128.379889 23.072819 
L 128.529818 20.931093 
L 128.805483 14.519432 
L 128.946546 12.751571 
L 129.215581 10.995557 
L 129.484631 18.49838 
L 129.621768 18.1059 
L 129.654016 14.177702 
L 129.827216 13.526381 
L 129.930821 14.196306 
L 130.23884 9.435782 
L 130.411218 12.646687 
L 130.652663 18.662478 
L 130.857689 18.696313 
L 131.065336 21.809097 
L 131.357248 25.613798 
L 131.599862 27.709848 
L 131.685174 26.860598 
L 131.890448 22.638044 
L 131.925691 19.482966 
L 132.200094 17.25157 
L 132.475309 15.119992 
L 132.788464 13.152516 
L 132.957829 13.656655 
L 133.061376 17.386919 
L 133.234055 19.027895 
L 133.472891 17.342932 
L 133.783072 18.613425 
L 133.918831 20.814368 
L 134.125193 20.410043 
L 134.227612 21.337109 
L 134.367424 20.804213 
L 134.469204 19.036357 
L 134.779813 23.033917 
L 135.12864 19.623392 
L 135.481629 21.658537 
L 135.641409 22.837673 
L 135.750135 26.337862 
L 135.883394 25.735607 
L 136.22738 23.013613 
L 136.528331 26.622072 
L 136.759723 18.922444 
L 136.778273 19.537107 
L 136.942102 22.001958 
L 137.069919 19.94101 
L 137.090256 22.201584 
L 137.166242 17.058725 
L 137.399923 16.740681 
L 137.47787 19.658917 
L 137.777555 14.128646 
L 137.880034 14.165866 
L 138.15557 13.803838 
L 138.262502 15.549703 
L 138.333093 12.69237 
L 138.442956 12.699137 
L 138.746372 12.883532 
L 138.8856 10.960033 
L 139.01997 13.917176 
L 139.296197 11.6418 
L 139.437514 14.38748 
L 139.607349 15.030338 
L 139.754444 18.733535 
L 139.87985 15.111541 
L 140.154604 17.955339 
L 140.304845 19.604776 
L 140.430343 19.325642 
L 140.587967 20.709478 
L 140.874396 20.000638 
L 141.014832 20.890485 
L 141.148222 16.994433 
L 141.294887 17.564543 
L 141.428008 19.318866 
L 141.869333 12.782023 
L 142.144486 14.015292 
L 142.281024 11.582587 
L 142.422889 11.81774 
L 142.728709 20.159661 
L 143.004423 14.960978 
L 143.141782 15.033722 
L 143.27862 16.610414 
L 143.416688 16.667933 
L 143.55346 16.050452 
L 143.72548 17.332782 
L 143.864479 17.503648 
L 144.001797 16.096129 
L 144.140282 13.455339 
L 144.275935 14.265678 
L 144.555736 19.298576 
L 144.68765 15.495565 
L 144.997908 13.73786 
L 145.128182 13.824139 
L 145.56432 10.024515 
L 145.824943 12.579024 
L 145.963862 12.511355 
L 146.169331 18.713238 
L 146.412486 13.194814 
L 146.715013 18.033165 
L 146.820693 16.160419 
L 146.971692 18.880721 
L 147.265952 13.92395 
L 147.403495 13.95271 
L 147.544853 13.274327 
L 147.715707 15.482035 
L 147.817519 19.207222 
L 147.956109 18.56436 
L 148.128982 15.911723 
L 148.405382 16.762668 
L 148.539644 19.616618 
L 148.679642 18.295381 
L 148.838552 19.11841 
L 148.849816 15.646135 
L 148.954431 16.22809 
L 149.264457 12.228841 
L 149.677929 16.989372 
L 149.781128 15.668132 
L 149.816546 16.781286 
L 149.956281 16.9623 
L 150.278336 19.782411 
L 150.437304 17.951959 
L 150.539647 18.430717 
L 150.678068 20.063239 
L 150.952154 15.874512 
L 151.08907 19.345939 
L 151.366222 16.013231 
L 151.578695 18.902702 
L 151.680809 17.638977 
L 151.822938 18.692925 
L 151.964568 21.27488 
L 151.991607 24.502323 
L 152.093478 23.11172 
L 152.334417 23.027135 
L 152.440274 21.059656 
L 152.506158 16.241612 
L 152.816201 16.437853 
L 152.953566 17.498568 
L 152.988158 15.762857 
L 153.403334 17.232976 
L 153.540304 15.625593 
L 153.575451 12.74482 
L 154.330214 25.737304 
L 154.365461 24.627527 
L 154.50428 23.996511 
L 154.67706 24.522637 
L 154.78077 21.423389 
L 154.811902 25.36512 
L 154.950891 25.843876 
L 155.260851 28.396693 
L 155.294296 24.901577 
L 155.499166 24.979395 
L 155.635807 17.698188 
L 155.77476 19.097248 
L 155.911947 16.072436 
L 156.119851 16.104579 
L 156.257408 17.716372 
L 156.28982 13.472246 
L 156.431004 16.058901 
L 156.600333 13.022247 
L 156.702751 15.759467 
L 156.875212 15.10646 
L 157.049466 17.885973 
L 157.253816 16.700074 
L 157.392824 19.58109 
L 157.494649 14.773194 
L 158.208357 22.039174 
L 158.386944 20.460788 
L 158.626711 21.318497 
L 158.712423 20.810977 
L 158.832418 24.466801 
L 158.970378 27.220934 
L 159.110436 23.018679 
L 159.349319 24.932023 
L 159.389261 26.622063 
L 159.486917 21.511349 
L 159.624427 23.318119 
L 159.765968 22.891802 
L 160.016511 22.778453 
L 160.054376 24.597062 
L 160.182806 21.540106 
L 160.487404 24.886345 
L 160.625169 21.332019 
L 160.773525 21.337093 
L 160.901244 22.932393 
L 161.039387 21.255888 
L 161.242465 20.152882 
L 161.318835 18.291981 
L 161.585536 17.261718 
L 161.935672 12.237285 
L 162.070799 15.603833 
L 162.175577 14.825639 
L 162.343597 12.140865 
L 162.448183 14.137108 
L 162.726083 15.043877 
L 162.792016 17.251584 
L 162.938765 14.578653 
L 163.029593 15.889745 
L 163.167122 13.58392 
L 163.518958 15.201214 
L 163.628417 15.106478 
L 163.888555 19.618318 
L 164.029716 17.317562 
L 164.372679 18.755529 
L 164.478914 20.337298 
L 164.61515 19.516805 
L 164.756034 22.401204 
L 164.891347 19.596317 
L 165.269006 16.974136 
L 165.476052 21.761729 
L 165.648038 21.924137 
L 165.922042 25.779589 
L 166.128645 28.785794 
L 166.201557 24.470192 
L 166.36901 26.19068 
L 166.474739 28.684291 
L 166.60968 26.260044 
L 166.78083 26.104407 
L 167.021817 24.032042 
L 167.170325 25.539375 
L 167.295819 22.763245 
L 167.572178 23.438245 
L 167.879774 19.992187 
L 168.157432 21.298202 
L 168.292531 20.980159 
L 168.671033 14.541435 
L 168.8077 14.082976 
L 169.014128 17.153464 
L 169.42908 15.74425 
L 169.600435 14.790114 
L 169.742037 13.365674 
L 170.08289 16.370182 
L 170.150578 15.639356 
L 170.28841 16.772816 
L 170.430965 16.693306 
L 170.581668 15.400826 
L 170.943091 17.794626 
L 171.086616 16.524136 
L 171.148622 14.641241 
L 171.285166 14.074512 
L 171.421924 12.629775 
L 171.697546 11.655339 
L 171.980103 15.576769 
L 172.134715 20.174891 
L 172.282665 17.082411 
L 172.847048 25.661172 
L 173.245888 26.216057 
L 173.388471 19.768872 
L 173.556211 18.75383 
L 173.692594 21.753268 
L 173.848404 22.53485 
L 174.115166 18.190488 
L 174.24394 18.166804 
L 174.382241 16.962291 
L 174.551917 16.678082 
L 174.828362 20.706092 
L 174.965364 18.060228 
L 175.102074 18.449323 
L 175.82509 24.952335 
L 175.959706 24.921883 
L 176.099114 23.428085 
L 176.236188 23.404399 
L 176.3741 25.365115 
L 176.574016 24.735793 
L 176.680474 22.822447 
L 176.819356 22.404588 
L 176.95653 18.200636 
L 177.093887 17.593304 
L 177.238234 19.095561 
L 177.38034 18.498382 
L 177.51125 21.159474 
L 177.819176 18.369807 
L 178.101097 16.908152 
L 178.230333 17.427512 
L 178.366226 21.096875 
L 178.508599 20.780523 
L 178.784002 16.179018 
L 178.965663 15.882966 
L 179.228398 16.864172 
L 179.50273 16.317742 
L 179.676422 19.951577 
L 179.781844 18.094058 
L 179.918422 13.379208 
L 179.951062 20.103834 
L 180.093082 21.469059 
L 180.230787 19.471124 
L 180.403915 18.650635 
L 180.502543 20.421877 
L 180.777342 18.762292 
L 180.927111 21.697444 
L 181.086055 19.410227 
L 181.234297 21.695755 
L 181.575572 17.831843 
L 181.800554 25.853181 
L 181.954093 23.807035 
L 182.194033 27.72339 
L 182.331597 26.669442 
L 182.604513 27.660796 
L 182.672705 24.942184 
L 182.796846 25.173951 
L 182.914261 24.407596 
L 183.325313 16.762673 
L 183.394253 19.032973 
L 183.571629 19.464365 
L 183.775059 15.363611 
L 184.083676 16.738986 
L 184.23464 18.057691 
L 184.322702 22.451958 
L 184.632981 23.03222 
L 184.7701 25.4497 
L 185.146758 20.723002 
L 185.224086 22.132212 
L 185.327918 18.286912 
L 185.4582 18.063604 
L 185.630083 16.290671 
L 185.768773 11.9277 
L 186.044091 13.812285 
L 186.217875 10.017737 
L 186.457484 12.419996 
L 186.491404 15.808531 
L 186.872115 19.784095 
L 186.909642 21.299884 
L 187.075664 22.352139 
L 187.178025 25.596878 
L 187.332062 24.838985 
L 187.45256 25.493683 
L 187.594843 27.620189 
L 187.825142 26.139925 
L 187.908596 27.024697 
L 188.03978 24.490485 
L 188.175257 24.647816 
L 188.313302 25.321126 
L 188.656118 23.622632 
L 189.001314 17.884282 
L 189.104521 17.457963 
L 189.207043 21.029205 
L 189.3114 20.536914 
L 189.585648 13.641427 
L 189.759741 13.622819 
L 190.031332 15.871129 
L 190.416554 22.269252 
L 190.478578 28.190307 
L 190.51272 24.083633 
L 190.685243 21.34895 
L 190.730985 16.996131 
L 191.028598 23.729215 
L 191.172264 23.20647 
L 191.853289 8.305715 
L 192.023524 9.506845 
L 192.160262 12.401392 
L 192.332392 11.675638 
L 192.469859 12.426766 
L 192.781954 11.17996 
L 193.299038 20.501392 
L 193.642 20.425263 
L 193.709926 22.852893 
L 194.020345 20.523379 
L 194.156316 23.323193 
L 194.328436 23.87639 
L 194.604651 21.426766 
L 194.776245 19.895751 
L 194.848618 20.922635 
L 195.153995 15.251961 
L 195.56896 17.704972 
L 195.698786 16.855723 
L 195.725178 15.921887 
L 195.849952 16.981392 
L 195.927811 16.906472 
L 196.035993 17.576397 
L 196.32063 10.183533 
L 196.56065 15.191053 
L 196.743081 12.554963 
L 196.764868 10.207217 
L 196.86854 12.09688 
L 197.144743 14.75797 
L 197.322984 13.127145 
L 197.453388 14.984662 
L 197.728599 22.971325 
L 197.867737 22.568693 
L 198.038835 20.94294 
L 198.251666 22.435043 
L 198.357345 24.326396 
L 198.423569 21.450454 
L 198.556335 24.549703 
L 198.865168 21.108724 
L 199.188984 24.202892 
L 199.3484 24.314546 
L 199.416729 25.642554 
L 199.736917 21.211916 
L 199.899159 22.920563 
L 200.10601 23.340112 
L 200.212791 25.025076 
L 200.442444 24.048949 
L 200.693521 20.836357 
L 200.843273 20.465868 
L 200.911087 21.289741 
L 201.110122 27.621886 
L 201.381327 29.283163 
L 201.693944 30.173013 
L 201.831246 28.755342 
L 201.967209 29.376205 
L 202.277669 28.151392 
L 202.414212 27.342743 
L 202.51707 27.552519 
L 202.726074 26.070565 
L 202.865676 23.840866 
L 203.001212 23.77658 
L 203.13949 22.810602 
L 203.657827 25.735604 
L 203.828908 25.348199 
L 204.276251 13.529776 
L 204.452166 12.826014 
L 204.519822 15.179212 
L 204.656837 14.592183 
L 204.829891 11.594439 
L 204.965391 14.458535 
L 205.073416 11.607969 
L 205.31013 11.684095 
L 205.792115 24.018492 
L 205.928733 18.415481 
L 206.240967 22.463792 
L 206.376807 20.091989 
L 206.514862 21.293116 
L 206.665643 21.604395 
L 206.804527 20.229017 
L 207.063985 20.981838 
L 207.132112 20.65872 
L 207.235318 16.810038 
L 207.40992 20.729777 
L 207.964194 15.001573 
L 208.065975 15.265483 
L 208.279948 14.822251 
L 208.512704 11.179952 
L 208.752409 11.355891 
L 208.822501 7.201 
L 208.959968 6.487094 
L 209.198576 12.73804 
L 209.336192 13.764919 
L 209.473841 11.905709 
L 209.645686 15.169054 
L 209.816426 14.485594 
L 209.996437 12.790483 
L 210.330304 21.413231 
L 210.469739 19.039734 
L 210.61196 19.188606 
L 210.778466 18.696312 
L 210.941755 20.496313 
L 211.053032 18.642179 
L 211.361726 23.683539 
L 211.500167 23.209853 
L 211.673223 23.560038 
L 211.842598 20.941238 
L 211.922677 17.417364 
L 212.117611 17.907965 
L 212.254433 17.919809 
L 212.495757 14.321499 
L 212.675564 14.448375 
L 212.770166 8.244802 
L 213.151572 6.216422 
L 213.183424 9.097442 
L 213.423934 12.52827 
L 213.493673 10.158157 
L 213.631178 11.636726 
L 213.803201 11.27977 
L 213.940006 10.186913 
L 214.076772 11.799135 
L 214.18339 18.723385 
L 214.351893 19.269813 
L 214.461994 20.222256 
L 214.627723 18.833341 
L 214.871632 18.175257 
L 215.042536 22.188886 
L 215.073468 21.279581 
L 215.315103 26.630526 
L 215.45407 23.580335 
L 215.591356 23.443307 
L 215.900312 25.974137 
L 216.042606 26.239739 
L 216.174891 25.989365 
L 216.315358 26.273577 
L 216.478688 25.500455 
L 216.614979 23.221693 
L 216.787599 23.402707 
L 216.862432 24.432972 
L 217.166937 18.500073 
L 217.336669 15.888042 
L 217.579102 17.820004 
L 217.719255 15.103088 
L 217.747324 15.58354 
L 217.952562 15.904966 
L 218.166808 18.831282 
L 218.192965 16.398949 
L 218.473915 23.466999 
L 218.644681 22.861361 
L 218.745378 23.326585 
L 218.881832 22.326771 
L 219.191051 23.412858 
L 219.305846 21.705905 
L 219.434605 23.539742 
L 219.607121 19.740118 
L 219.855615 18.926392 
L 220.334773 23.419623 
L 220.474272 20.57244 
L 220.708946 25.88447 
L 220.848092 23.56511 
L 221.019004 24.262103 
L 221.364594 20.240864 
L 221.499995 21.008912 
L 221.710856 20.619816 
L 221.913041 18.968691 
L 222.002238 13.89181 
L 222.222774 11.56737 
L 222.264674 7.776202 
L 222.430989 12.406465 
L 222.705917 15.984473 
L 222.981144 11.213795 
L 223.151841 9.960223 
L 223.566377 13.071318 
L 223.739962 17.271884 
L 224.01266 12.878457 
L 224.121322 12.677141 
L 224.29764 14.985409 
L 224.321212 12.524883 
L 224.632752 18.400015 
L 224.665512 16.303077 
L 224.702036 18.285222 
L 225.114455 22.204954 
L 225.354804 20.905708 
L 225.463303 22.719244 
L 225.564216 22.216802 
L 225.908733 16.757591 
L 225.998179 17.894433 
L 226.113188 18.182026 
L 226.251116 17.774319 
L 226.455649 16.754205 
L 226.560406 13.294618 
L 226.697079 13.908715 
L 226.832382 10.266419 
L 227.108674 14.236909 
L 227.554697 17.880899 
L 227.730971 16.623945 
L 227.829391 16.688233 
L 228.107171 21.663609 
L 228.245938 22.900264 
L 228.380154 21.392932 
L 228.523055 22.122067 
L 228.963934 18.667556 
L 229.104789 20.577518 
L 229.238562 20.591053 
L 229.548571 19.433912 
L 229.676327 17.911355 
L 229.858014 16.869251 
L 230.005277 13.133913 
L 230.203273 14.54989 
L 230.380487 16.855715 
L 230.419822 16.535978 
L 230.823648 17.652517 
L 230.949716 18.461166 
L 231.075615 21.907222 
L 231.233609 21.979966 
L 231.371412 23.543122 
L 231.605786 23.966054 
L 231.641745 21.499514 
L 231.799813 24.564928 
L 231.984475 24.306096 
L 232.088158 21.536736 
L 232.225762 21.208543 
L 232.365621 25.146887 
L 232.534182 22.808914 
L 232.928371 29.415118 
L 233.118732 29.579215 
L 233.228251 25.089366 
L 233.41382 24.099701 
L 233.552803 26.454585 
L 233.796125 20.494622 
L 233.963095 24.380525 
L 234.102463 23.402706 
L 234.374492 18.848569 
L 234.61885 21.249131 
L 234.927449 15.430897 
L 235.06831 17.781085 
L 235.207279 16.742364 
L 235.485514 11.839734 
L 235.684362 15.118307 
L 235.899938 10.261347 
L 236.202495 18.033157 
L 236.443126 21.032594 
L 236.546628 18.54237 
L 236.686805 18.095752 
L 236.891055 18.302141 
L 237.062432 12.927514 
L 237.47488 19.246129 
L 237.612762 19.181844 
L 237.888783 17.309097 
L 238.027425 17.632217 
L 238.419057 19.373009 
L 238.610383 18.973759 
L 238.782036 14.262289 
L 238.919192 7.980893 
L 239.059388 8.796306 
L 239.195072 8.376759 
L 239.372256 11.712852 
L 239.583636 10.743489 
L 239.677709 11.305142 
L 240.225075 25.37526 
L 240.368126 25.53936 
L 240.467155 24.456652 
L 240.640965 24.130147 
L 240.87922 21.01567 
L 241.156851 20.031086 
L 241.332368 20.951387 
L 241.489652 22.646503 
L 241.739188 18.253079 
L 241.945339 16.804959 
L 242.0158 20.239171 
L 242.220916 21.145941 
L 242.390979 21.022445 
L 242.460385 19.54387 
L 242.735902 20.79406 
L 242.974676 18.263231 
L 243.019264 15.637666 
L 243.213895 16.635788 
L 243.286993 19.01774 
L 243.595454 13.279391 
L 243.734279 14.463599 
L 243.870628 16.815104 
L 244.147524 13.753074 
L 244.337413 15.965857 
L 244.441074 18.588036 
L 244.754144 9.591416 
L 245.196415 16.244997 
L 245.572881 13.035786 
L 245.709585 10.100633 
L 245.850594 10.755333 
L 246.156417 21.443685 
L 246.3131 19.460977 
L 246.536256 18.699696 
L 246.570905 18.804582 
L 246.708683 18.542361 
L 247.154394 22.585599 
L 247.568642 17.084097 
L 247.712882 17.356465 
L 247.910732 16.67639 
L 248.014667 14.201391 
L 248.152197 14.441618 
L 248.290605 15.747632 
L 248.463723 11.344057 
L 248.563635 13.795371 
L 249.250031 20.832965 
L 249.461848 21.441984 
L 249.594356 24.026946 
L 249.69695 21.831084 
L 249.902659 25.715297 
L 250.075225 24.882968 
L 250.283399 20.949696 
L 250.462406 21.051199 
L 250.527939 20.738229 
L 250.694689 19.087105 
L 250.83631 20.249325 
L 250.969462 18.753836 
L 251.142163 18.999137 
L 251.248237 21.660229 
L 251.385274 21.619626 
L 251.554412 21.443687 
L 251.692456 22.032408 
L 251.827984 21.157785 
L 252.105754 25.228089 
L 252.276142 25.206096 
L 252.550005 27.60497 
L 252.686192 23.443314 
L 252.933891 22.917186 
L 253.132947 26.163615 
L 253.30383 24.698576 
L 253.444721 22.162671 
L 253.542964 17.408908 
L 253.680514 19.680903 
L 253.819325 19.877142 
L 253.95543 18.396877 
L 254.10029 20.233532 
L 254.126253 14.774884 
L 254.26415 18.220938 
L 254.402922 18.200635 
L 254.539125 17.562855 
L 254.710954 17.711728 
L 254.84984 19.313797 
L 255.056342 23.235223 
L 255.090884 21.368395 
L 255.123803 22.489167 
L 255.227709 22.69894 
L 255.464094 24.793302 
L 255.536189 24.514167 
L 255.810769 25.481837 
L 255.919248 22.720935 
L 256.017304 23.419618 
L 256.120243 25.923378 
L 256.369181 19.677517 
L 256.528365 18.560975 
L 256.680795 15.037103 
L 256.819574 14.715672 
L 256.924771 13.599129 
L 257.231934 18.584652 
L 257.403857 18.082208 
L 257.781658 24.44988 
L 257.918465 23.507587 
L 258.089885 26.317548 
L 258.331828 26.483338 
L 258.405075 28.449128 
L 258.606152 27.840103 
L 258.645152 27.911158 
L 258.813408 28.895745 
L 258.948802 27.283529 
L 259.086497 29.426951 
L 259.228085 26.671121 
L 259.366729 27.043301 
L 259.505054 25.786349 
L 259.945753 18.9044 
L 260.100956 17.957031 
L 260.20119 16.490302 
L 260.334459 12.668683 
L 260.640133 15.571691 
L 260.776363 17.295566 
L 260.98547 17.867372 
L 261.329672 13.292929 
L 261.4686 15.600449 
L 261.610222 15.529394 
L 261.776128 15.723941 
L 261.914118 15.326383 
L 262.049845 14.072814 
L 262.187949 13.905335 
L 262.4621 14.702139 
L 262.771652 20.638422 
L 262.910076 19.785792 
L 263.048241 20.655343 
L 263.185773 24.510797 
L 263.471539 21.897075 
L 263.598573 21.702525 
L 263.740428 19.548953 
L 263.906583 22.193126 
L 264.043071 19.582787 
L 264.181869 23.844253 
L 264.320587 24.607223 
L 264.606227 18.983913 
L 264.735933 19.740119 
L 264.768492 15.97602 
L 264.879365 19.794253 
L 265.044266 20.078462 
L 265.218984 21.579023 
L 265.322008 20.198572 
L 265.45824 21.409851 
L 265.733911 15.754396 
L 266.035052 16.549507 
L 266.180522 14.270745 
L 266.319524 14.825634 
L 266.458741 16.140111 
L 266.598388 16.216241 
L 266.86723 11.717935 
L 267.006217 15.830529 
L 267.147327 14.319814 
L 267.446952 16.441245 
L 267.591667 17.312486 
L 267.861682 13.885037 
L 268.009587 15.262104 
L 268.141307 15.052328 
L 268.283894 16.280521 
L 268.584851 13.512852 
L 268.726437 15.248567 
L 268.892145 15.598755 
L 269.03145 16.329584 
L 269.237062 16.238231 
L 269.489143 13.546694 
L 269.561636 16.129968 
L 269.702329 16.842186 
L 270.005219 20.545387 
L 270.13774 18.188805 
L 270.330338 17.977334 
L 270.414363 19.435603 
L 270.699796 20.291615 
L 270.832043 19.897438 
L 270.998639 20.618114 
L 271.170915 23.741048 
L 271.282802 23.649691 
L 271.446523 24.522624 
L 272.16805 32.460228 
L 272.545662 31.737861 
L 272.71739 24.642745 
L 273.200201 17.019811 
L 273.405114 13.991612 
L 273.544916 13.805524 
L 273.714236 14.717368 
L 273.818304 12.315113 
L 273.990077 14.272447 
L 274.159819 14.236921 
L 274.264781 14.884855 
L 274.438148 14.697072 
L 274.709894 15.463421 
L 274.847201 17.101017 
L 275.27357 14.258908 
L 275.430628 15.18259 
L 275.567812 13.067927 
L 275.705906 14.829017 
L 276.085463 13.658343 
L 276.152793 15.23673 
L 276.256203 14.879775 
L 276.393368 17.468121 
L 276.673802 16.266992 
L 276.703268 19.445753 
L 276.840701 17.86568 
L 277.010707 17.466435 
L 277.117253 16.070758 
L 277.390576 16.920007 
L 277.538165 15.045566 
L 277.665036 14.925452 
L 277.898439 15.160603 
L 277.943155 18.924702 
L 278.14518 19.467748 
L 278.399873 22.888613 
L 278.420063 25.365116 
L 278.558135 23.526206 
L 278.694767 23.495754 
L 278.866891 24.798386 
L 279.073552 24.984476 
L 279.108382 26.160227 
L 279.261487 24.311167 
L 279.520771 16.826954 
L 279.693798 17.317554 
L 279.807743 15.854209 
L 279.968821 16.595186 
L 280.425347 22.333535 
L 280.699517 21.67376 
L 280.907483 22.233723 
L 280.94021 24.008348 
L 281.226044 19.968497 
L 281.396908 22.12207 
L 281.569522 22.128837 
L 281.949295 14.795188 
L 282.770148 23.397625 
L 283.0128 17.701572 
L 283.082958 18.023004 
L 283.218303 20.200261 
L 283.355545 18.525447 
L 283.526562 18.34274 
L 283.809585 16.750827 
L 283.941159 17.957031 
L 284.078617 15.703646 
L 284.258404 19.719811 
L 284.65997 16.549506 
L 284.794047 20.93447 
L 285.097314 20.900635 
L 285.235145 20.562289 
L 285.475355 18.714923 
L 285.543624 19.345941 
L 285.653828 17.229587 
L 285.752662 19.946506 
L 285.923036 19.902519 
L 286.128197 19.418685 
L 286.196045 15.822069 
L 286.36892 15.405903 
L 286.848277 20.037859 
L 286.9864 21.582403 
L 287.055888 23.713983 
L 287.191888 23.817178 
L 287.333919 25.473384 
L 287.502997 23.86624 
L 287.640742 24.488794 
L 287.777163 23.46868 
L 287.914019 21.458905 
L 288.052026 21.91736 
L 288.194658 20.658712 
L 288.397053 21.431837 
L 288.498361 18.958528 
L 288.603883 19.090483 
L 288.774268 16.136723 
L 288.916054 17.09255 
L 289.050083 15.527703 
L 289.325051 20.362665 
L 289.492202 17.682968 
L 289.711004 18.496693 
L 289.877125 14.40778 
L 289.916644 17.161918 
L 290.148499 15.025265 
L 290.249651 19.741806 
L 290.3569 19.603086 
L 290.497061 21.215302 
L 290.598024 18.056843 
L 290.734817 18.692932 
L 290.871259 20.166427 
L 291.042566 19.812854 
L 291.18137 23.429774 
L 291.323056 22.382593 
L 291.532932 22.844436 
L 291.594414 19.545562 
L 291.767248 17.378454 
L 291.86949 18.520373 
L 292.147806 19.691052 
L 292.178019 16.470001 
L 292.697272 14.316433 
L 292.838203 15.766246 
L 292.901237 19.599703 
L 293.179638 28.01606 
L 293.347801 26.253279 
L 293.453161 26.439367 
L 293.58878 25.882785 
L 293.832446 27.495002 
L 293.896481 25.004776 
L 294.000215 25.03184 
L 294.309474 20.267928 
L 294.584229 14.937288 
L 294.721848 14.01191 
L 295.002515 14.991422 
L 295.14697 15.103076 
L 295.44366 14.000071 
L 295.58137 15.197818 
L 295.71831 14.468681 
L 296.166135 20.223946 
L 296.274414 18.061915 
L 296.441938 20.09876 
L 296.581661 19.936356 
L 296.717331 22.027333 
L 296.995071 21.609473 
L 297.129285 22.949321 
L 297.200799 19.894059 
L 297.510759 16.272068 
L 297.577717 13.616054 
L 297.713666 14.37395 
L 297.987675 11.569059 
L 298.132491 11.406654 
L 298.271696 12.057973 
L 298.559393 11.196881 
L 298.710352 13.323383 
L 298.863569 12.211917 
L 299.401224 16.469996 
L 299.64212 16.431085 
L 299.714241 14.78165 
L 299.881642 14.367179 
L 299.988651 16.307593 
L 300.157271 16.055523 
L 300.400245 13.856274 
L 300.706875 12.968116 
L 300.845847 16.295748 
L 301.257858 20.991985 
L 301.533851 17.389936 
L 301.577049 20.357588 
L 301.760521 17.456271 
L 301.896666 18.356273 
L 302.260323 15.730712 
L 302.390259 15.213045 
L 302.52741 12.541802 
L 302.766801 10.799319 
L 302.835621 13.683719 
L 303.006259 13.338606 
L 303.147157 15.960788 
L 303.322527 15.185977 
L 303.385472 13.775074 
L 303.523138 13.326766 
L 303.800006 10.526952 
L 304.108105 15.360229 
L 304.279913 18.117747 
L 304.694093 20.829585 
L 304.862342 24.497257 
L 305.06821 25.630713 
L 305.102417 28.241052 
L 305.27441 30.101954 
L 305.529788 27.750445 
L 305.797657 26.244808 
L 305.932932 29.525073 
L 306.133176 27.838421 
L 306.414713 23.651394 
L 306.513585 23.810418 
L 306.81561 23.724139 
L 306.827135 24.762863 
L 306.961902 24.470195 
L 307.099224 24.607223 
L 307.237666 21.580719 
L 307.552613 20.125831 
L 307.718773 24.150454 
L 307.959845 24.010039 
L 308.062743 25.436163 
L 308.134849 24.994621 
L 308.545045 21.071502 
L 308.719433 23.514357 
L 308.861539 23.272435 
L 308.926897 25.940295 
L 309.371386 23.658157 
L 309.645756 23.871315 
L 309.922798 29.844811 
L 310.229461 26.388611 
L 310.437188 25.58842 
L 310.679924 30.220373 
L 311.029926 27.352891 
L 311.226814 29.951389 
L 311.504619 31.815674 
L 311.63969 29.271312 
L 311.776677 29.750073 
L 312.051285 23.837482 
L 312.188818 22.829209 
L 312.498732 26.194062 
L 312.914989 19.917741 
L 312.943607 20.941238 
L 313.150343 21.167929 
L 313.256192 20.276389 
L 313.357668 20.799134 
L 313.494021 17.513793 
L 313.641651 18.198944 
L 314.010411 12.65684 
L 314.047342 10.995564 
L 314.28572 10.019439 
L 314.360341 12.100267 
L 314.492068 12.076581 
L 314.627958 12.315113 
L 314.79985 10.234285 
L 314.904569 14.284286 
L 315.039212 14.808726 
L 315.177267 14.898386 
L 315.329324 14.375641 
L 315.610403 14.857782 
L 315.886926 14.003943 
L 315.912024 17.123791 
L 316.047904 14.433159 
L 316.191626 16.603648 
L 316.368299 14.392555 
L 316.466849 10.946499 
L 316.775636 12.85308 
L 317.015153 12.966426 
L 317.052147 13.152518 
L 317.227418 9.794433 
L 317.394467 9.276763 
L 317.7062 10.452519 
L 317.743646 8.711731 
L 317.92025 9.846881 
L 318.024053 7.618872 
L 318.158415 9.039924 
L 318.292458 8.525638 
L 318.586062 10.608156 
L 318.788844 7.300825 
L 319.042684 11.641804 
L 319.339552 22.729401 
L 319.479399 24.458349 
L 319.652669 20.540303 
L 319.730757 21.330343 
L 319.896158 20.369441 
L 320.026697 21.286358 
L 320.163044 23.546508 
L 320.300343 23.104967 
L 320.446315 21.100262 
L 320.718963 13.135601 
L 320.884229 11.350824 
L 321.023215 14.938981 
L 321.399461 10.956648 
L 321.50356 7.530895 
L 321.611859 8.899504 
L 321.845741 8.00796 
L 321.960228 11.511533 
L 322.006761 11.029389 
L 322.158633 11.596118 
L 322.29317 11.0277 
L 322.430084 9.936536 
L 322.843848 19.542176 
L 323.014707 18.972064 
L 323.151176 18.532217 
L 323.288612 12.151013 
L 323.432576 14.981277 
L 323.563082 13.467179 
L 323.710132 15.079395 
L 324.124987 10.665674 
L 324.262275 13.616051 
L 324.433161 13.851203 
L 324.566344 16.64763 
L 324.704856 21.9309 
L 324.768972 20.614171 
L 324.841192 20.543684 
L 324.9808 22.311543 
L 325.119518 20.614737 
L 325.563139 23.889922 
L 325.702287 22.198193 
L 325.840056 23.649694 
L 325.977187 22.626196 
L 326.171206 22.144053 
L 326.404632 19.031267 
L 326.700653 24.334842 
L 326.836021 24.235029 
L 326.972217 25.542737 
L 327.281394 17.819994 
L 327.3924 18.946688 
L 327.55768 19.190296 
L 327.741927 22.213417 
L 327.968771 20.007405 
L 328.106205 17.402141 
L 328.251401 18.921313 
L 328.381045 15.842362 
L 328.524171 15.548 
L 328.693737 14.617549 
L 328.827971 16.742361 
L 329.102102 12.888602 
L 329.377922 14.010217 
L 329.58304 17.386909 
L 329.68612 14.470367 
L 329.797889 15.157213 
L 329.928746 17.158531 
L 330.237678 14.307965 
L 330.406135 15.13353 
L 330.650262 18.376578 
L 330.956676 17.139927 
L 331.117343 17.285418 
L 331.242864 18.525453 
L 331.403187 17.183911 
L 331.57541 21.20177 
L 331.678294 20.650264 
L 331.781389 21.467368 
L 331.932458 19.412104 
L 331.96506 17.007966 
L 332.093566 16.417551 
L 332.2301 16.368491 
L 332.437009 17.397062 
L 332.539766 16.113038 
L 332.953064 19.464359 
L 333.163175 19.351015 
L 333.197958 18.691241 
L 333.537492 20.541994 
L 333.642013 19.750266 
L 333.777689 17.830154 
L 333.915689 18.420567 
L 334.365614 15.512482 
L 334.625705 13.206652 
L 334.678253 14.287666 
L 334.7874 13.631278 
L 334.949999 16.620564 
L 335.103768 14.438234 
L 335.223102 15.405902 
L 335.560242 13.763228 
L 335.663512 13.920557 
L 335.774679 12.638229 
L 335.972238 12.930901 
L 336.046673 13.407969 
L 336.217973 15.60891 
L 336.488463 12.30496 
L 336.625987 11.179959 
L 336.913508 14.027146 
L 337.03944 14.040681 
L 337.245017 11.163048 
L 337.34695 13.692182 
L 337.588673 10.361166 
L 337.728164 10.450826 
L 337.801494 10.801014 
L 337.933293 14.499136 
L 338.240923 14.531278 
L 338.363136 16.855715 
L 338.516809 18.246316 
L 338.928772 24.808541 
L 339.160957 23.050834 
L 339.211961 23.302901 
L 339.347066 24.010045 
L 339.499382 25.544444 
L 339.627767 23.483913 
L 339.859718 24.948952 
L 339.93928 24.099704 
L 340.036074 25.357867 
L 340.065504 21.485415 
L 340.168619 22.010419 
L 340.445369 19.956658 
L 340.513779 20.124139 
L 340.652248 19.523573 
L 340.896354 16.918307 
L 341.038441 17.38861 
L 341.182928 11.770376 
L 341.454239 12.558722 
L 341.903677 18.439173 
L 342.172567 19.019441 
L 342.3102 15.492185 
L 342.515135 17.6982 
L 342.721087 21.570569 
L 342.859318 21.367561 
L 343.03045 14.991434 
L 343.274558 15.248577 
L 343.339517 11.915868 
L 343.47858 10.878837 
L 343.588651 8.755714 
L 343.751803 14.817182 
L 343.889413 14.379025 
L 344.165095 14.881469 
L 344.303863 18.432409 
L 344.578242 20.484478 
L 344.680086 17.422448 
L 344.797939 17.490119 
L 345.109194 21.973205 
L 345.27281 19.779032 
L 345.386329 21.648394 
L 345.44415 18.789369 
L 345.616777 20.325459 
L 345.945058 18.793956 
L 345.994143 20.467557 
L 346.167228 21.042743 
L 346.337561 19.554019 
L 346.4443 16.559657 
L 346.578764 16.891235 
L 346.764367 12.72958 
L 346.93149 13.714169 
L 347.060818 11.132589 
L 347.163016 12.135786 
L 347.303029 11.614735 
L 347.43981 12.724513 
L 347.612796 15.165681 
L 347.749965 14.133727 
L 347.852598 16.023389 
L 347.988195 13.323389 
L 348.195649 11.538615 
L 348.465211 7.422631 
L 348.712453 6.070938 
L 348.985737 4.299695 
L 349.272987 8.207589 
L 349.570093 11.975917 
L 349.852207 20.022634 
L 350.137856 17.123011 
L 350.276998 19.317184 
L 350.427752 18.887485 
L 350.539746 19.389929 
L 351.082187 18.207412 
L 351.426338 21.809106 
L 351.599649 21.210235 
L 351.872994 17.496885 
L 351.976437 18.305531 
L 352.147686 18.45102 
L 352.388979 10.960037 
L 352.56115 12.790487 
L 352.804201 11.876952 
L 352.939749 12.912289 
L 353.077092 10.349317 
L 353.421361 13.546688 
L 353.595355 12.885222 
L 353.834714 20.619816 
L 353.968958 17.813239 
L 354.106555 17.574705 
L 354.245662 18.303843 
L 354.416405 21.032604 
L 354.827173 18.608354 
L 355.072702 18.498389 
L 355.242138 20.613048 
L 355.344125 19.159851 
L 355.514601 20.673947 
L 355.624716 19.347629 
L 355.790981 18.843493 
L 355.859096 17.331086 
L 355.966202 18.50007 
L 356.103017 17.649128 
L 356.378489 20.839731 
L 356.58038 17.831837 
L 356.717714 20.037854 
L 356.854437 18.481463 
L 357.032156 21.16793 
L 357.130738 19.117553 
L 357.370032 20.261163 
L 357.478454 19.14124 
L 357.540901 19.856843 
L 357.678049 18.388422 
L 357.849917 17.770941 
L 357.960035 14.363795 
L 358.21554 13.852893 
L 358.371287 10.241057 
L 358.575315 9.82151 
L 358.680637 11.381283 
L 358.818155 11.191809 
L 358.955412 12.74651 
L 359.264615 11.530154 
L 359.367716 15.206283 
L 359.509781 15.619064 
L 359.781992 22.397819 
L 359.932076 23.9559 
L 360.126581 22.392742 
L 360.229391 25.429396 
L 360.384283 24.818679 
L 360.506576 24.94556 
L 360.642737 25.491985 
L 361.196463 19.601384 
L 361.362657 19.784091 
L 361.500672 20.611346 
L 361.637468 19.714728 
L 361.809398 22.345371 
L 362.061163 20.408348 
L 362.224302 21.485981 
L 362.406881 20.575831 
L 362.528762 21.479216 
L 362.632441 20.707787 
L 362.94073 22.729407 
L 363.251497 13.844445 
L 363.458629 13.795384 
L 363.496392 14.221699 
L 363.627779 14.038991 
L 363.903601 13.186356 
L 364.147232 13.40459 
L 364.355691 10.131091 
L 364.521915 14.326579 
L 364.796662 15.823756 
L 365.09002 17.584848 
L 365.189387 16.470844 
L 365.214085 18.366992 
L 365.35052 15.28579 
L 365.522827 15.492179 
L 365.763281 19.910974 
L 365.925023 19.093869 
L 366.071478 19.753646 
L 366.243415 18.904397 
L 366.384802 17.640674 
L 366.493818 18.276765 
L 366.866108 23.851017 
L 366.900066 23.500831 
L 367.035915 19.234288 
L 367.276577 19.164928 
L 367.448896 22.783535 
L 367.619251 23.468685 
L 367.898768 27.307217 
L 368.033248 23.986351 
L 368.16804 24.211348 
L 368.347776 24.001574 
L 368.443163 23.482213 
L 368.587788 19.865294 
L 368.925642 18.571125 
L 369.02831 17.270185 
L 369.317304 9.457779 
L 369.510343 9.554208 
L 369.655614 9.317363 
L 370.024724 18.814735 
L 370.353349 17.701576 
L 370.746934 25.456461 
L 371.020171 24.021879 
L 371.296296 19.017742 
L 371.432234 17.713418 
L 371.605265 20.095372 
L 371.741299 18.98052 
L 371.855476 20.320372 
L 372.017177 20.203645 
L 372.155118 19.880526 
L 372.291321 17.6356 
L 372.469222 19.351011 
L 372.740757 18.407025 
L 372.879225 18.814728 
L 373.01457 17.703263 
L 373.358249 12.5215 
L 373.459936 12.658527 
L 373.633292 12.330331 
L 373.737093 13.341985 
L 373.846647 12.100257 
L 374.008379 12.391236 
L 374.28395 9.065298 
L 374.527495 9.838416 
L 374.593045 14.451759 
L 374.854275 10.477886 
L 375.143576 15.527701 
L 375.315743 13.159279 
L 375.572532 16.339731 
L 375.691767 18.5356 
L 375.982787 13.237108 
L 376.139387 14.466995 
L 376.275809 17.598389 
L 376.516037 16.165495 
L 376.655778 17.840307 
L 376.688713 19.599705 
L 376.828037 19.914369 
L 376.96976 15.275645 
L 377.136292 17.564553 
L 377.343486 18.677711 
L 377.447017 19.875455 
L 377.572462 17.109478 
L 377.755778 16.221317 
L 377.965822 11.536917 
L 378.132758 10.41699 
L 378.408166 15.676579 
L 378.58083 14.930522 
L 378.682874 17.2668 
L 378.854429 17.760786 
L 379.094755 16.251763 
L 379.20822 14.791803 
L 379.370545 15.49387 
L 379.404077 15.28917 
L 379.543222 18.929775 
L 379.679716 15.729021 
L 379.816549 16.622255 
L 380.239431 9.466242 
L 380.539019 15.776394 
L 380.67821 15.833912 
L 380.985645 12.284662 
L 381.127305 14.659852 
L 381.399276 12.898755 
L 381.637554 13.736161 
L 381.679971 15.360222 
L 381.845637 14.255522 
L 381.986253 12.565481 
L 382.224694 16.870936 
L 382.39482 14.451761 
L 382.704693 16.011539 
L 382.81236 17.432592 
L 382.946507 14.509283 
L 383.219851 15.482027 
L 383.429338 20.447258 
L 383.504052 19.283347 
L 384.013831 23.879771 
L 384.130164 22.85289 
L 384.535317 26.720184 
L 384.673995 24.235031 
L 384.843511 24.048942 
L 384.94587 24.258717 
L 385.251521 21.480898 
L 385.377779 19.46267 
L 385.530543 20.920942 
L 385.637162 19.740115 
L 385.808558 19.082032 
L 385.943564 16.963992 
L 386.099767 17.95873 
L 386.228115 16.618878 
L 386.36616 16.5935 
L 386.503854 17.99087 
L 386.677322 18.540683 
L 386.781048 15.329779 
L 386.966228 15.622446 
L 387.089649 14.316431 
L 387.226373 14.417934 
L 387.361939 13.935787 
L 387.602579 14.483905 
L 387.774017 12.081651 
L 387.946234 12.440296 
L 388.083757 13.577138 
L 388.189784 16.368492 
L 388.498583 12.443678 
L 388.645947 11.462476 
L 388.784432 13.230336 
L 388.909731 12.947818 
L 389.083129 13.597442 
L 389.202097 16.04199 
L 389.739551 10.024508 
L 389.980752 15.345001 
L 390.083915 18.139738 
L 390.186615 16.889549 
L 390.496006 19.366992 
L 390.531067 17.058721 
L 391.046378 24.41944 
L 391.224168 23.010227 
L 391.328248 20.865112 
L 391.631006 18.956278 
L 391.912181 13.176203 
L 392.048401 13.267557 
L 392.494945 10.300258 
L 392.768992 13.362291 
L 392.906658 11.298382 
L 393.321746 19.707963 
L 393.457986 17.363226 
L 393.674665 16.419243 
L 393.94025 20.034474 
L 394.078495 17.990865 
L 394.182274 18.72 
L 394.540435 23.256093 
L 394.566566 21.452991 
L 394.606813 21.45722 
L 394.880064 20.538618 
L 395.156262 25.180722 
L 395.291649 24.40591 
L 395.601076 26.632226 
L 395.73856 28.50328 
L 396.013727 27.202341 
L 396.253903 28.508356 
L 396.321727 30.802341 
L 396.733566 26.532415 
L 396.871214 28.036362 
L 397.045666 28.327343 
L 397.146674 24.791624 
L 397.321858 25.361734 
L 397.457169 27.016245 
L 397.594171 25.419251 
L 397.801602 24.96925 
L 397.877298 26.434288 
L 398.143195 26.742181 
L 398.764595 16.420941 
L 398.986194 16.530905 
L 399.07154 16.970757 
L 399.423239 10.92113 
L 399.562814 10.095565 
L 399.761729 11.506466 
L 399.862231 10.958344 
L 400.067542 14.741051 
L 400.239858 14.918683 
L 400.348824 14.252141 
L 400.586235 11.518304 
L 400.691015 12.54857 
L 400.902612 11.613045 
L 401.342404 18.456095 
L 401.415345 12.169626 
L 401.65564 11.915862 
L 401.701605 10.728268 
L 401.864549 14.307968 
L 402.064374 15.556466 
L 402.142596 17.046879 
L 402.271991 14.653081 
L 402.412498 14.741053 
L 402.547993 14.981281 
L 402.687972 13.380904 
L 402.898812 15.038799 
L 403.153672 20.971699 
L 403.547807 18.077141 
L 403.817353 22.761542 
L 403.985709 19.323945 
L 404.266148 20.506091 
L 404.294102 17.160225 
L 404.43415 17.280338 
L 404.676188 15.647818 
L 404.809491 16.48861 
L 404.847979 19.298577 
L 405.12595 20.151207 
L 405.25692 16.568122 
L 405.427915 18.457785 
L 405.704243 15.360227 
L 405.910089 16.376956 
L 406.084322 12.963043 
L 406.185432 13.470561 
L 406.253974 9.848567 
L 406.391322 9.11774 
L 406.562775 8.958716 
L 406.66855 8.693115 
L 406.830753 10.826384 
L 407.252103 13.619428 
L 407.388605 17.468116 
L 407.596298 16.980897 
L 407.667918 20.682401 
L 407.806621 21.426762 
L 408.008108 18.919621 
L 408.184564 21.276199 
L 408.248137 19.48804 
L 408.454855 21.262663 
L 408.562441 24.104771 
L 408.667677 23.51774 
L 409.046498 26.5176 
L 409.196026 23.115109 
L 409.2572 25.228077 
L 409.423281 25.649318 
L 409.52657 26.287102 
L 409.802812 23.786729 
L 410.007756 21.531651 
L 410.14578 22.177894 
L 410.247891 20.790677 
L 410.386254 16.42263 
L 410.523129 17.150073 
L 410.664125 16.003081 
L 410.811109 20.261166 
L 410.937509 19.533723 
L 411.244349 20.624889 
L 411.38181 17.75064 
L 411.523451 18.200639 
L 411.796375 15.509099 
L 412.073238 14.648012 
L 412.277581 9.672633 
L 412.703579 12.624699 
L 412.810539 15.739173 
L 412.959581 13.108532 
L 412.978705 14.449228 
L 413.220168 20.562291 
L 413.461277 21.782026 
L 413.529779 20.029392 
L 413.666728 23.522814 
L 413.911987 18.009468 
L 414.058154 19.787475 
L 414.216321 16.772814 
L 414.370983 18.231085 
L 415.182802 11.985232 
L 415.21274 12.729591 
L 415.349071 13.289552 
L 415.491438 12.100265 
L 415.629192 12.318497 
L 415.800834 11.788988 
L 415.905667 12.186543 
L 416.040893 11.071692 
L 416.311724 11.438797 
L 416.488148 15.593682 
L 416.625446 18.413796 
L 416.900306 17.556093 
L 417.071999 19.009289 
L 417.185698 16.898008 
L 417.215312 17.714267 
L 417.454257 22.573759 
L 417.484152 20.468496 
L 417.711383 20.357595 
L 417.76242 22.211731 
L 417.949352 19.530336 
L 418.107254 15.165673 
L 418.349779 19.508343 
L 419.24503 14.169238 
L 419.344162 15.030333 
L 419.624499 13.230331 
L 419.823481 12.076574 
L 419.926732 13.319997 
L 420.270796 10.031275 
L 420.445546 11.27639 
L 420.583274 10.352705 
L 420.75153 6.001574 
L 421.541596 14.020376 
L 421.609936 17.188987 
L 421.829578 18.168497 
L 422.160753 25.111355 
L 422.469525 20.668447 
L 422.573569 22.815676 
L 422.746235 19.153081 
L 422.882902 18.738606 
L 423.191077 13.286162 
L 423.301758 13.898568 
L 423.431467 12.787103 
L 423.605142 12.836165 
L 423.958578 17.850455 
L 424.01676 14.370564 
L 424.187946 15.295938 
L 424.433051 20.609662 
L 424.873566 14.578643 
L 425.011789 14.265675 
L 425.150922 15.042178 
L 425.321961 13.477326 
L 425.427257 13.886724 
L 425.56053 17.133153 
L 425.781404 14.384092 
L 425.990425 16.104582 
L 426.036916 18.808451 
L 426.049668 17.481651 
L 426.152175 17.642363 
L 426.427309 21.198375 
L 426.56796 17.344616 
L 426.705049 17.97394 
L 426.843912 19.538793 
L 427.066055 16.223004 
L 427.129123 18.05853 
L 427.26108 17.146687 
L 427.428058 17.08071 
L 427.564654 19.173384 
L 427.843154 16.5732 
L 427.981235 20.20365 
L 428.151928 18.043311 
L 428.287924 19.232595 
L 428.529361 19.357783 
L 428.66707 17.669436 
L 428.735672 19.124324 
L 428.883159 16.926766 
L 429.050053 16.962291 
L 429.252654 19.063423 
L 429.389555 19.164929 
L 429.531202 21.89538 
L 429.699278 19.329024 
L 429.83578 19.811166 
L 430.006612 19.885605 
L 430.15879 18.904403 
L 430.249939 22.986547 
L 430.39293 21.531658 
L 430.560661 20.973383 
L 430.696896 22.494245 
L 430.868728 21.282967 
L 430.971567 17.432594 
L 431.106758 17.381846 
L 432.03625 7.334663 
L 432.287324 4.504397 
L 432.487352 7.363419 
L 432.69315 13.438418 
L 433.00675 15.889738 
L 433.173776 13.20496 
L 433.24369 14.120185 
L 433.656455 25.818498 
L 433.792346 27.182031 
L 434.065629 23.360416 
L 434.237805 25.30252 
L 434.384886 25.160415 
L 434.536833 28.066807 
L 434.823013 23.492368 
L 435.234685 14.201389 
L 435.373634 16.243304 
L 435.513115 10.934655 
L 435.854568 11.714544 
L 435.959536 8.319242 
L 436.064082 12.921498 
L 436.095574 10.427137 
L 436.231793 9.281836 
L 436.369848 9.972061 
L 436.689868 12.240671 
L 436.961339 10.782401 
L 436.991099 14.644621 
L 437.20639 11.381275 
L 437.369604 17.077329 
L 437.508132 15.136916 
L 437.870785 18.024702 
L 438.1077 15.221507 
L 438.213608 16.652712 
L 438.350496 16.34651 
L 438.485829 17.28373 
L 438.661505 19.281664 
L 438.795399 17.219448 
L 439.085319 18.341062 
L 439.219682 18.002714 
L 439.45463 20.910797 
L 439.482386 18.153275 
L 439.619718 15.982786 
L 439.826515 15.99801 
L 439.928344 17.965489 
L 440.241422 19.259656 
L 440.345527 16.975824 
L 440.623529 19.743494 
L 440.859352 19.926201 
L 441.134259 26.457965 
L 441.33955 26.836913 
L 441.478597 24.656275 
L 441.615821 21.54011 
L 441.759425 23.988039 
L 441.95089 21.551948 
L 442.033882 23.392551 
L 442.200376 24.060787 
L 442.341302 22.99331 
L 442.611713 19.929587 
L 442.759271 18.559286 
L 443.060692 23.088047 
L 443.231116 19.482974 
L 443.34926 20.968313 
L 443.618393 13.113608 
L 443.919564 16.111352 
L 444.035232 14.08974 
L 444.239359 14.101583 
L 444.332755 8.843687 
L 444.60583 10.777335 
L 444.743989 10.447448 
L 444.889903 12.959665 
L 445.191668 12.288049 
L 445.502672 14.488988 
L 445.740849 18.508533 
L 446.05104 20.218492 
L 446.082539 19.799318 
L 446.187627 18.028078 
L 446.289876 18.197253 
L 446.598613 19.257964 
L 446.771695 19.356084 
L 446.874344 18.919618 
L 447.011847 20.102138 
L 447.149503 18.660784 
L 447.320489 18.630333 
L 447.461525 20.773757 
L 447.593799 20.685788 
L 447.73222 21.773571 
L 447.870204 24.067557 
L 448.042327 24.7341 
L 448.144748 23.984664 
L 448.395235 24.138611 
L 448.453098 22.546696 
L 448.593409 22.04256 
L 448.913265 19.636919 
L 449.104719 18.772444 
L 449.143058 19.540488 
L 449.280438 18.719995 
L 449.450245 14.634465 
L 449.727012 16.524127 
L 449.86127 14.306267 
L 450.007873 13.766607 
L 450.487567 16.409093 
L 450.592675 14.815485 
L 450.762929 14.671692 
L 450.865189 17.383536 
L 451.209335 11.744999 
L 451.314769 11.721315 
L 451.48497 14.624322 
L 451.558557 12.281277 
L 451.728207 11.851578 
L 452.03493 13.118681 
L 452.276696 16.371876 
L 452.553147 19.290109 
L 452.621711 18.259848 
L 452.724048 19.066804 
L 453.101402 20.367746 
L 453.170118 19.166618 
L 453.377191 18.029777 
L 453.549358 15.268879 
L 453.828788 13.272641 
L 453.995214 15.26719 
L 454.132731 14.686926 
L 454.410276 12.313427 
L 454.548197 12.743125 
L 454.71959 14.922072 
L 454.822453 13.673574 
L 454.957721 16.503837 
L 455.160947 15.539549 
L 455.263209 13.91887 
L 455.411362 13.423191 
L 455.641442 13.108528 
L 455.709164 17.089168 
L 456.086931 22.820746 
L 456.155651 19.636908 
L 456.300492 19.662284 
L 456.53446 15.025251 
L 456.849248 17.76924 
L 456.993799 18.51022 
L 457.393676 9.063603 
L 457.538412 10.433908 
L 457.838871 10.91267 
L 458.085079 15.757782 
L 458.252878 13.903645 
L 458.390118 13.786915 
L 458.528083 12.597633 
L 458.667195 13.918876 
L 458.904311 14.615866 
L 458.973883 17.016428 
L 459.10975 17.434288 
L 459.282549 20.151209 
L 459.456938 17.417376 
L 459.720431 20.912489 
L 459.946699 19.361175 
L 460.165954 21.814181 
L 460.237195 24.795572 
L 460.268014 19.792079 
L 460.384362 19.582787 
L 460.51995 20.819439 
L 460.669351 20.048009 
L 460.791237 20.273009 
L 460.964138 16.277144 
L 461.409476 22.252334 
L 461.515764 18.836731 
L 461.72031 17.786168 
L 461.720643 12.38955 
L 461.793729 18.082218 
L 462.167556 14.177702 
L 462.234182 16.03691 
L 462.373449 15.069239 
L 462.646964 11.848182 
L 462.785388 12.147619 
L 462.933706 12.169611 
L 463.064063 14.521116 
L 463.372187 12.951193 
L 463.779387 19.658905 
L 464.056656 21.157777 
L 464.225661 19.633528 
L 464.365733 22.467177 
L 464.501868 22.196499 
L 464.776113 26.011349 
L 464.912981 24.267177 
L 465.063563 20.838042 
L 465.365804 21.683909 
L 465.496932 21.205151 
L 465.773381 18.87733 
L 465.910455 19.310413 
L 466.046962 17.818309 
L 466.19475 18.833347 
L 466.329015 18.829965 
L 466.461002 20.454026 
L 466.633773 19.114178 
L 466.768841 19.031282 
L 466.905022 17.293876 
L 467.183599 18.305531 
L 467.62768 15.619068 
L 467.768093 17.075646 
L 467.906613 16.324518 
L 468.178071 12.712673 
L 468.45652 17.708355 
L 468.592577 15.370387 
L 469.04367 19.251209 
L 469.315188 13.599138 
L 469.492758 16.141434 
L 469.521361 15.959105 
L 469.658958 15.729029 
L 469.868401 11.663797 
L 470.035692 13.169434 
L 470.209834 11.611351 
L 470.313634 7.713605 
L 470.517632 8.427516 
L 470.733085 13.25402 
L 470.897095 12.145935 
L 471.034743 13.061162 
L 471.308888 15.563232 
L 471.445455 13.071315 
L 471.607071 13.938424 
L 471.619496 20.91587 
L 471.755035 15.417751 
L 472.238371 17.562863 
L 472.442503 17.750642 
L 472.578661 18.127897 
L 472.750018 14.406092 
L 473.164172 17.545942 
L 473.300102 15.891429 
L 473.473057 15.204584 
L 473.715991 20.213796 
L 473.953006 19.334098 
L 474.058583 20.699324 
L 474.193922 24.747636 
L 474.402831 24.798389 
L 474.433474 26.012204 
L 474.539253 23.443312 
L 474.708468 26.380152 
L 474.848697 26.67282 
L 475.189592 21.418308 
L 475.293402 22.45703 
L 475.574162 19.107403 
L 475.725256 20.741615 
L 475.985969 19.626764 
L 476.152576 16.464924 
L 476.428069 16.991054 
L 476.543743 14.494063 
L 476.608692 17.47658 
L 476.704788 16.566428 
L 476.947592 19.137858 
L 477.014175 18.684474 
L 477.164711 17.874131 
L 477.262267 19.932967 
L 477.613399 22.680337 
L 477.736065 20.271316 
L 477.911727 20.474323 
L 477.976899 19.90083 
L 478.219313 20.90572 
L 478.255337 20.51324 
L 478.561218 23.211551 
L 478.698014 23.757981 
L 478.837774 23.796892 
L 479.283431 26.019826 
L 479.387557 22.362305 
L 479.730928 19.757038 
L 479.970928 12.90215 
L 480.143551 10.594628 
L 480.291552 10.374703 
L 480.41722 5.884851 
L 480.659212 6.279021 
L 480.967188 13.77169 
L 481.139482 12.127329 
L 481.550866 18.319059 
L 481.688523 17.914735 
L 481.847857 18.853645 
L 481.997216 22.451954 
L 482.033555 21.886915 
L 482.276791 13.367365 
L 482.379263 14.497439 
L 482.548104 18.769055 
L 482.685409 16.987664 
L 483.133029 20.687478 
L 483.236674 19.026197 
L 483.372855 20.602892 
L 483.715503 25.881085 
L 483.855416 27.156648 
L 483.95792 22.583904 
L 484.095475 24.972626 
L 484.562242 14.966046 
L 484.72562 16.642556 
L 485.234061 11.739926 
L 485.407121 14.705529 
L 485.611347 12.098574 
L 485.817319 16.784663 
L 485.956042 21.123953 
L 486.132604 21.325266 
L 486.374066 24.099704 
L 486.507965 22.93241 
L 486.954339 26.820001 
L 487.366262 17.097627 
L 487.518517 16.720372 
L 487.644658 15.80007 
L 487.915359 20.389731 
L 488.12553 22.700634 
L 488.363604 19.185217 
L 488.774849 23.492357 
L 488.914157 20.794048 
L 489.049614 22.424877 
L 489.217229 22.010403 
L 489.353154 22.276006 
L 489.637494 15.258717 
L 489.76671 14.527892 
L 490.073828 18.231091 
L 490.624174 11.86342 
L 490.758824 7.681466 
L 491.042148 10.462666 
L 491.204923 10.970185 
L 491.34229 10.601389 
L 491.622397 8.486728 
L 491.89294 14.685225 
L 492.031977 13.942555 
L 492.174563 17.479962 
L 492.340799 17.42583 
L 492.613457 19.564174 
L 492.75462 17.435977 
L 492.888699 18.222629 
L 493.030907 22.594058 
L 493.168695 22.673569 
L 493.47272 22.02225 
L 493.611353 20.927699 
L 493.748627 22.64142 
L 493.901256 22.522998 
L 494.027659 23.362097 
L 494.17476 23.294429 
L 494.378822 23.580334 
L 494.611975 18.879018 
L 494.74447 18.234471 
L 494.881959 20.594432 
L 495.159711 18.233528 
L 495.192335 18.513604 
L 495.32972 15.960784 
L 495.500688 15.333151 
L 495.604637 16.295745 
L 495.741975 15.932023 
L 495.950958 14.77488 
L 496.160696 20.020936 
L 496.325147 18.310601 
L 496.705462 21.861544 
L 496.807213 25.258538 
L 496.909222 23.483912 
L 497.083016 23.52959 
L 497.184351 19.205525 
L 497.322045 19.127705 
L 497.564888 18.341051 
L 497.74278 19.03466 
L 497.906997 19.056654 
L 498.204128 13.698945 
L 498.284825 13.961163 
L 498.473651 13.585599 
L 498.681191 16.065676 
L 498.748261 12.976579 
L 498.920846 13.255714 
L 499.297894 7.657775 
L 499.43583 7.30082 
L 499.572555 5.746121 
L 499.886356 11.098754 
L 500.158416 16.65101 
L 500.294598 14.4433 
L 500.569634 15.593676 
L 501.015247 20.849878 
L 501.35828 17.253259 
L 501.427345 14.43822 
L 501.633936 13.901944 
L 501.737004 16.774502 
L 502.012894 14.62093 
L 502.150419 15.970929 
L 502.289687 14.954199 
L 502.457366 15.487092 
L 502.566362 15.370365 
L 502.699715 15.882961 
L 503.008807 21.015668 
L 503.148036 18.391799 
L 503.556971 26.229589 
L 503.709216 24.209665 
L 503.849235 25.189177 
L 504.056401 22.807221 
L 504.128272 24.402521 
L 504.269519 23.263987 
L 504.409727 23.749515 
L 504.570041 26.823383 
L 504.850266 23.165862 
L 504.983479 22.455335 
L 505.192454 23.538043 
L 505.334627 22.89857 
L 505.431435 24.998005 
L 505.534025 24.277328 
L 505.671891 22.013794 
L 506.118412 17.750637 
L 506.194412 15.62075 
L 506.2565 17.363232 
L 506.393321 13.350451 
L 506.70376 14.500827 
L 506.843235 12.414926 
L 506.980683 7.559661 
L 507.287424 9.872255 
L 507.427475 11.288233 
L 507.543911 16.388798 
L 507.670869 13.443496 
L 507.806418 16.324508 
L 508.047854 14.617552 
L 508.135142 16.493682 
L 508.361304 17.27357 
L 508.447903 18.689547 
L 508.816985 15.38729 
L 509.079054 14.260598 
L 509.113291 15.094623 
L 509.666042 8.082402 
L 509.805348 9.36981 
L 509.974709 9.100824 
L 510.370471 10.191995 
L 510.531087 12.159474 
L 510.81258 12.888612 
L 510.868186 14.671695 
L 510.972607 13.460417 
L 511.25272 18.498387 
L 511.385273 17.750643 
L 511.536055 15.720564 
L 511.66235 16.519061 
L 511.830078 14.527895 
L 511.990643 10.559096 
L 512.390702 13.639739 
L 512.526401 13.460417 
L 512.666411 12.86662 
L 512.803139 16.417561 
L 513.143368 17.935044 
L 513.210913 18.459478 
L 513.358368 20.970004 
L 513.657677 20.181654 
L 513.831343 18.508531 
L 514.105148 19.883906 
L 514.211446 17.53917 
L 514.454148 18.285222 
L 514.520788 17.554393 
L 514.700049 17.12977 
L 514.832172 13.832589 
L 514.966165 14.798568 
L 515.067731 13.401197 
L 515.213332 13.313224 
L 515.377143 13.874879 
L 515.795688 11.337282 
L 515.89402 11.641794 
L 515.962391 11.641794 
L 516.167946 10.91435 
L 516.339906 16.329579 
L 516.484656 14.104956 
L 516.617768 16.113042 
L 516.754514 14.3012 
L 516.786979 11.712854 
L 517.103661 17.278648 
L 517.202498 17.121318 
L 517.510995 23.091431 
L 517.61316 21.683911 
L 517.819558 20.822822 
L 517.956367 24.444817 
L 518.066553 22.976395 
L 518.234164 22.682033 
L 518.379763 18.880716 
L 518.747034 23.306279 
L 518.852372 19.048195 
L 519.678745 13.448568 
L 519.856699 17.760786 
L 520.018839 16.644243 
L 520.223951 17.331085 
L 520.32642 14.986346 
L 520.465805 17.754016 
L 520.652308 17.106085 
L 520.751117 15.761159 
L 520.886469 18.596499 
L 521.324407 14.710597 
L 521.462781 14.042363 
L 521.60089 11.863417 
L 521.771336 16.23823 
L 522.036354 15.10477 
L 522.051454 13.974694 
L 522.184045 16.862477 
L 522.320855 15.476949 
L 522.538931 15.519242 
L 522.600834 17.940111 
L 522.870866 17.9841 
L 523.043135 19.997259 
L 523.150484 18.931468 
L 523.322059 20.88034 
L 523.454751 25.312673 
L 523.73008 22.105155 
L 523.873144 24.42959 
L 524.320131 16.901389 
L 524.701129 19.342553 
L 524.726872 19.098193 
L 524.933986 12.443684 
L 525.036779 10.92451 
L 525.208798 10.858533 
L 525.310563 10.207217 
L 525.482581 12.441992 
L 525.728002 20.892179 
L 525.996959 19.824697 
L 526.032227 16.869244 
L 526.169763 14.700442 
L 526.448273 21.294803 
L 526.729633 26.728634 
L 526.908257 27.063598 
L 527.075346 26.759087 
L 527.283576 29.374503 
L 527.557833 34.68654 
L 527.829938 33.277327 
L 528.005903 26.119622 
L 528.279014 24.43466 
L 528.385384 25.832031 
L 528.944099 12.661918 
L 529.448277 19.477901 
L 529.757042 15.410981 
L 529.975925 16.711922 
L 530.249109 23.013615 
L 530.427808 18.647263 
L 530.626293 18.616812 
L 530.729273 17.222826 
L 530.832826 14.115117 
L 531.245337 14.113424 
L 531.419796 10.905903 
L 531.578448 7.68654 
L 532.041104 9.970374 
L 532.313444 15.782406 
L 532.313707 25.128273 
L 532.429495 19.17846 
L 532.554367 18.860412 
L 532.725833 19.254583 
L 532.864004 18.677703 
L 533.109732 21.611161 
L 533.27728 23.341802 
L 533.499264 24.422818 
L 533.554441 20.638419 
L 533.930983 20.880336 
L 534.001121 21.134096 
L 534.23961 21.206842 
L 534.378623 23.664926 
L 534.450579 21.734661 
L 534.597177 22.206651 
L 534.857584 21.079955 
L 535.122153 18.341046 
L 535.340944 19.579395 
L 535.408009 18.784284 
L 535.510249 19.54387 
L 535.684414 16.61718 
L 535.820537 17.764174 
L 535.957136 17.72019 
L 536.234591 18.94331 
L 536.540013 23.715674 
L 536.697418 21.91586 
L 536.712392 22.742928 
L 536.816907 22.646499 
L 537.148413 25.023942 
L 537.264277 27.831649 
L 537.376342 28.817925 
L 537.539661 28.438978 
L 537.754845 25.706837 
L 538.231454 28.029586 
L 538.363466 27.591428 
L 538.499647 26.637293 
L 538.741029 27.001019 
L 538.984711 30.768504 
L 539.08371 31.764933 
L 539.221457 27.687863 
L 539.461828 26.696508 
L 539.496834 27.865493 
L 539.63913 26.809855 
L 539.988345 26.248199 
L 540.495003 17.243119 
L 540.645463 20.492933 
L 540.83859 20.729778 
L 541.215543 16.513984 
L 541.422185 15.586916 
L 541.945491 20.428646 
L 542.196595 14.65139 
L 542.383085 14.055903 
L 542.487056 15.756092 
L 542.692309 15.705343 
L 542.96631 14.482224 
L 543.208981 12.793878 
L 543.345571 8.901209 
L 543.481961 10.863616 
L 543.620692 8.637301 
L 543.792935 8.534103 
L 543.91231 8.016432 
L 544.067743 11.152897 
L 544.204927 11.45402 
L 544.3429 9.6371 
L 544.479371 9.486535 
L 545.065187 22.328449 
L 545.309478 26.033337 
L 545.470247 25.686532 
L 545.586157 23.340105 
L 545.726728 22.92225 
L 545.785778 21.48259 
L 546.010258 23.059282 
L 546.16642 17.534098 
L 546.507722 14.900077 
L 546.610748 9.285225 
L 546.74891 8.055336 
L 546.956152 8.642365 
L 547.023792 10.227515 
L 547.195867 11.178268 
L 547.299553 12.900451 
L 547.472204 11.474323 
L 547.677738 11.832968 
L 547.818097 10.784094 
L 547.89081 11.168117 
L 548.124327 14.198006 
L 548.227024 13.649885 
L 548.33046 15.60214 
L 548.505999 15.556465 
L 548.63886 16.331277 
L 548.748307 15.647818 
L 548.880294 15.580146 
L 549.08912 17.852138 
L 549.293687 21.51304 
L 549.49885 18.3918 
L 549.601386 21.200075 
L 549.776644 18.625263 
L 549.875997 19.323947 
L 550.048505 19.334099 
L 550.155976 17.358158 
L 550.322478 19.726016 
L 550.469298 17.973947 
L 550.669726 18.330902 
L 550.803614 16.434474 
L 550.941001 19.405153 
L 551.079018 18.332596 
L 551.182015 19.315489 
L 551.319273 18.188797 
L 551.453728 19.447445 
L 551.629248 18.313985 
L 551.869045 13.979775 
L 552.120904 14.521127 
L 552.286703 16.458156 
L 552.590995 13.710786 
L 552.868064 16.590107 
L 553.27774 21.152701 
L 553.622384 18.100821 
L 553.724502 12.741423 
L 554.040462 17.021499 
L 554.138822 16.437852 
L 554.27395 16.595183 
L 554.601455 19.16154 
L 554.995935 22.397823 
L 555.168645 26.253273 
L 555.270981 25.958912 
L 555.442181 24.404212 
L 555.709049 21.23391 
L 556.077107 18.606652 
L 556.283793 13.790296 
L 556.420888 14.497436 
L 556.566288 14.58202 
L 556.90511 11.753449 
L 557.010893 11.743302 
L 557.185391 12.778642 
L 557.266202 15.339923 
L 557.69886 10.303643 
L 557.838821 10.242742 
L 558.043475 11.212105 
L 558.181731 11.210411 
L 558.252035 12.16793 
L 558.38777 11.342366 
L 558.558374 8.219433 
L 558.665513 8.600071 
L 558.833229 11.06323 
L 558.976741 11.289922 
L 559.245419 14.607407 
L 559.383125 13.563609 
L 559.6587 16.47339 
L 559.827963 17.613614 
L 559.969841 17.776017 
L 560.104361 17.551016 
L 560.246704 17.848758 
L 560.385282 22.521316 
L 560.526188 22.998384 
L 560.691238 21.585789 
L 560.827998 22.451956 
L 560.964036 20.213798 
L 561.101091 23.143871 
L 561.241062 22.216805 
L 561.411232 24.919625 
L 561.514138 22.65158 
L 561.656483 22.501017 
L 561.792892 19.768876 
L 561.961696 18.698009 
L 562.106479 22.123761 
L 562.42711 21.250825 
L 562.444273 21.48936 
L 562.513628 20.335598 
L 562.825308 21.276197 
L 562.94998 20.472624 
L 563.243151 17.28033 
L 563.38067 18.033149 
L 563.511995 15.495554 
L 563.649923 17.633905 
L 563.786438 16.710218 
L 563.926653 17.040104 
L 564.074685 18.119427 
L 564.202153 16.659465 
L 564.348777 16.402322 
L 564.646537 18.721681 
L 564.784397 17.451569 
L 564.818594 14.8933 
L 564.923443 18.393488 
L 565.061292 14.054201 
L 565.226038 13.308149 
L 565.507746 8.909658 
L 565.645076 10.586162 
L 565.817155 10.706276 
L 566.056516 12.063048 
L 566.503218 12.13241 
L 566.60816 12.267749 
L 566.779225 12.79895 
L 567.018392 14.578648 
L 567.540766 5.448379 
L 567.741573 7.585034 
L 567.911819 6.257023 
L 568.08308 12.101949 
L 568.357587 9.559283 
L 568.466608 11.728078 
L 568.638438 10.890673 
L 568.909986 17.552705 
L 569.082353 16.569812 
L 569.317007 16.815113 
L 569.460047 17.545939 
L 569.593547 22.074697 
L 569.766577 21.687289 
L 569.904528 20.058154 
L 570.043356 23.510975 
L 570.280261 23.088043 
L 570.350288 20.753457 
L 570.520532 20.949697 
L 570.630727 20.183344 
L 570.728722 17.716801 
L 570.95607 18.442552 
L 571.03742 17.109469 
L 571.383197 20.860035 
L 571.656941 19.851762 
L 571.795013 19.780708 
L 572.005891 18.865483 
L 572.273475 20.922626 
L 572.479803 15.903265 
L 572.618257 15.553077 
L 572.763349 13.467173 
L 572.893517 13.756461 
L 573.030734 13.538228 
L 573.243389 16.500446 
L 573.445522 12.851385 
L 573.586839 12.739732 
L 573.903192 16.847252 
L 574.02848 15.059094 
L 574.172073 14.801951 
L 574.372577 16.065671 
L 574.679093 12.411533 
L 574.758647 14.338416 
L 574.903694 12.046123 
L 575.023971 14.39086 
L 575.22931 12.979956 
L 575.297448 10.714729 
L 575.747215 16.356647 
L 575.885682 12.631459 
L 575.951387 17.655896 
L 576.089862 18.300448 
L 576.191708 15.818678 
L 576.307158 19.521874 
L 576.434217 18.992362 
L 576.570401 21.46661 
L 576.602691 21.169618 
L 576.744677 21.369244 
L 576.879944 20.107216 
L 576.985815 16.85402 
L 577.157639 19.586163 
L 577.427347 17.476576 
L 577.57137 20.401578 
L 577.703241 20.357593 
L 577.873816 19.980338 
L 577.986957 17.214359 
L 578.149699 19.05496 
L 578.287794 18.84011 
L 578.464161 19.100635 
L 578.906909 15.45834 
L 579.04402 16.290668 
L 579.581971 22.196495 
L 579.742432 22.978076 
L 580.024954 22.471404 
L 580.273338 27.813043 
L 580.525803 27.088985 
L 580.55842 21.101954 
L 580.591019 22.120752 
L 580.731127 23.529589 
L 580.8381 21.509666 
L 581.003726 22.07132 
L 581.209946 22.340303 
L 581.34761 22.842749 
L 581.836598 17.386917 
L 582.034936 18.528834 
L 582.550464 14.488981 
L 582.79011 17.298941 
L 582.86302 17.275255 
L 582.973141 16.947061 
L 583.44325 23.796878 
L 583.547418 21.651764 
L 583.857531 24.505714 
L 584.132775 26.559477 
L 584.372765 26.227902 
L 584.681726 23.343503 
L 584.820588 19.814554 
L 585.097146 23.309671 
L 585.268359 19.213993 
L 585.37237 20.509859 
L 585.681367 19.191997 
L 586.365915 29.868498 
L 586.577439 24.798381 
L 586.680358 26.527327 
L 586.823865 24.740858 
L 586.957832 24.556461 
L 587.099866 24.840674 
L 587.379943 21.291426 
L 587.510784 17.488418 
L 587.682487 18.097442 
L 587.985059 21.766807 
L 588.198223 22.671882 
L 588.375604 22.049326 
L 588.442189 22.714173 
L 588.519897 26.337856 
L 588.648283 26.819998 
L 588.849441 25.419245 
L 588.956575 29.252707 
L 589.231304 24.673193 
L 589.539472 21.101952 
L 589.746791 24.789923 
L 590.066512 20.295004 
L 590.225569 22.220193 
L 590.513412 20.658725 
L 590.638771 23.862861 
L 590.859017 24.712109 
L 590.914211 27.445944 
L 591.084758 28.49651 
L 591.216058 26.808165 
L 591.524102 25.82188 
L 591.548601 25.883911 
L 592.072867 19.596316 
L 592.236159 19.723196 
L 592.373929 16.90985 
L 592.548748 16.519055 
L 592.654929 19.660596 
L 592.845685 19.122628 
L 592.927452 20.782217 
L 593.11111 20.712854 
L 593.338319 26.945182 
L 593.682152 23.845931 
L 593.921396 20.614729 
L 594.197401 22.949319 
L 594.333615 21.998565 
L 594.54171 22.910409 
L 594.643616 19.134471 
L 594.754466 19.669055 
L 595.054756 24.412669 
L 595.191783 23.397632 
L 595.411603 24.877895 
L 595.506527 21.335409 
L 595.676542 19.249503 
L 595.915688 21.31849 
L 596.0544 24.309467 
L 596.260625 23.680144 
L 596.384575 18.841797 
L 596.498505 18.899317 
L 596.638513 21.61285 
L 596.783417 17.968865 
L 597.054763 20.43541 
L 597.363107 22.874883 
L 597.601923 22.31492 
L 597.842937 21.120559 
L 597.910408 23.282592 
L 598.022966 20.629959 
L 598.11755 21.152704 
L 598.185632 24.235034 
L 598.374369 21.330331 
L 598.467591 22.649883 
L 598.73887 21.595937 
L 598.846379 19.120936 
L 598.980474 18.904397 
L 599.163109 19.569248 
L 599.427549 19.175074 
L 599.496494 20.631654 
L 599.841652 18.232786 
L 599.976327 21.328654 
L 600.046011 19.692753 
L 600.124817 19.892373 
L 600.182983 23.351959 
L 600.325719 21.360793 
L 600.665271 23.49914 
L 600.768001 19.939742 
L 600.908866 23.939235 
L 600.93809 22.207225 
L 601.007635 23.455156 
L 601.25766 17.918124 
L 601.420012 17.782785 
L 601.480234 16.277148 
L 601.637576 17.726961 
L 601.770319 15.783161 
L 602.454487 21.751576 
L 602.83238 29.311913 
L 602.865312 27.774129 
L 602.865312 27.774129 
" clip-path="url(#pf99bdb11db)" style="fill: none; stroke: #ff0000; stroke-opacity: 0.7; stroke-width: 1.5; stroke-linecap: square"/>
   </g>
   <g id="patch_3">
    <path d="M 44.865313 277.92 
L 44.865313 0.72 
" style="fill: none; stroke: #000000; stroke-width: 0.8; stroke-linejoin: miter; stroke-linecap: square"/>
   </g>
   <g id="patch_4">
    <path d="M 602.865312 277.92 
L 602.865312 0.72 
" style="fill: none; stroke: #000000; stroke-width: 0.8; stroke-linejoin: miter; stroke-linecap: square"/>
   </g>
   <g id="patch_5">
    <path d="M 44.865313 277.92 
L 602.865312 277.92 
" style="fill: none; stroke: #000000; stroke-width: 0.8; stroke-linejoin: miter; stroke-linecap: square"/>
   </g>
   <g id="patch_6">
    <path d="M 44.865313 0.72 
L 602.865312 0.72 
" style="fill: none; stroke: #000000; stroke-width: 0.8; stroke-linejoin: miter; stroke-linecap: square"/>
   </g>
   <g id="legend_1">
    <g id="patch_7">
     <path d="M 51.865313 272.92 
L 125.634063 272.92 
Q 127.634063 272.92 127.634063 270.92 
L 127.634063 242.56375 
Q 127.634063 240.56375 125.634063 240.56375 
L 51.865313 240.56375 
Q 49.865313 240.56375 49.865313 242.56375 
L 49.865313 270.92 
Q 49.865313 272.92 51.865313 272.92 
z
" style="fill: #ffffff; opacity: 0.8; stroke: #cccccc; stroke-linejoin: miter"/>
    </g>
    <g id="line2d_29">
     <path d="M 53.865313 248.662188 
L 63.865313 248.662188 
L 73.865313 248.662188 
" style="fill: none; stroke: #0000ff; stroke-opacity: 0.7; stroke-width: 1.5; stroke-linecap: square"/>
    </g>
    <g id="text_16">
     <!-- RNEA -->
     <g transform="translate(81.865313 252.162188) scale(0.1 -0.1)">
      <defs>
       <path id="DejaVuSans-52" d="M 2841 2188 
Q 3044 2119 3236 1894 
Q 3428 1669 3622 1275 
L 4263 0 
L 3584 0 
L 2988 1197 
Q 2756 1666 2539 1819 
Q 2322 1972 1947 1972 
L 1259 1972 
L 1259 0 
L 628 0 
L 628 4666 
L 2053 4666 
Q 2853 4666 3247 4331 
Q 3641 3997 3641 3322 
Q 3641 2881 3436 2590 
Q 3231 2300 2841 2188 
z
M 1259 4147 
L 1259 2491 
L 2053 2491 
Q 2509 2491 2742 2702 
Q 2975 2913 2975 3322 
Q 2975 3731 2742 3939 
Q 2509 4147 2053 4147 
L 1259 4147 
z
" transform="scale(0.015625)"/>
       <path id="DejaVuSans-45" d="M 628 4666 
L 3578 4666 
L 3578 4134 
L 1259 4134 
L 1259 2753 
L 3481 2753 
L 3481 2222 
L 1259 2222 
L 1259 531 
L 3634 531 
L 3634 0 
L 628 0 
L 628 4666 
z
" transform="scale(0.015625)"/>
       <path id="DejaVuSans-41" d="M 2188 4044 
L 1331 1722 
L 3047 1722 
L 2188 4044 
z
M 1831 4666 
L 2547 4666 
L 4325 0 
L 3669 0 
L 3244 1197 
L 1141 1197 
L 716 0 
L 50 0 
L 1831 4666 
z
" transform="scale(0.015625)"/>
      </defs>
      <use xlink:href="#DejaVuSans-52"/>
      <use xlink:href="#DejaVuSans-4e" x="69.482422"/>
      <use xlink:href="#DejaVuSans-45" x="144.287109"/>
      <use xlink:href="#DejaVuSans-41" x="207.470703"/>
     </g>
    </g>
    <g id="line2d_30">
     <path d="M 53.865313 263.340313 
L 63.865313 263.340313 
L 73.865313 263.340313 
" style="fill: none; stroke: #ff0000; stroke-opacity: 0.7; stroke-width: 1.5; stroke-linecap: square"/>
    </g>
    <g id="text_17">
     <!-- BURNEA -->
     <g transform="translate(81.865313 266.840313) scale(0.1 -0.1)">
      <defs>
       <path id="DejaVuSans-42" d="M 1259 2228 
L 1259 519 
L 2272 519 
Q 2781 519 3026 730 
Q 3272 941 3272 1375 
Q 3272 1813 3026 2020 
Q 2781 2228 2272 2228 
L 1259 2228 
z
M 1259 4147 
L 1259 2741 
L 2194 2741 
Q 2656 2741 2882 2914 
Q 3109 3088 3109 3444 
Q 3109 3797 2882 3972 
Q 2656 4147 2194 4147 
L 1259 4147 
z
M 628 4666 
L 2241 4666 
Q 2963 4666 3353 4366 
Q 3744 4066 3744 3513 
Q 3744 3084 3544 2831 
Q 3344 2578 2956 2516 
Q 3422 2416 3680 2098 
Q 3938 1781 3938 1306 
Q 3938 681 3513 340 
Q 3088 0 2303 0 
L 628 0 
L 628 4666 
z
" transform="scale(0.015625)"/>
       <path id="DejaVuSans-55" d="M 556 4666 
L 1191 4666 
L 1191 1831 
Q 1191 1081 1462 751 
Q 1734 422 2344 422 
Q 2950 422 3222 751 
Q 3494 1081 3494 1831 
L 3494 4666 
L 4128 4666 
L 4128 1753 
Q 4128 841 3676 375 
Q 3225 -91 2344 -91 
Q 1459 -91 1007 375 
Q 556 841 556 1753 
L 556 4666 
z
" transform="scale(0.015625)"/>
      </defs>
      <use xlink:href="#DejaVuSans-42"/>
      <use xlink:href="#DejaVuSans-55" x="68.603516"/>
      <use xlink:href="#DejaVuSans-52" x="141.796875"/>
      <use xlink:href="#DejaVuSans-4e" x="211.279297"/>
      <use xlink:href="#DejaVuSans-45" x="286.083984"/>
      <use xlink:href="#DejaVuSans-41" x="349.267578"/>
     </g>
    </g>
   </g>
  </g>
 </g>
 <defs>
  <clipPath id="pf99bdb11db">
   <rect x="44.865313" y="0.72" width="558" height="277.2"/>
  </clipPath>
 </defs>
</svg>
