<?xml version="1.0" encoding="utf-8" standalone="no"?>
<!DOCTYPE svg PUBLIC "-//W3C//DTD SVG 1.1//EN"
  "http://www.w3.org/Graphics/SVG/1.1/DTD/svg11.dtd">
<svg xmlns:xlink="http://www.w3.org/1999/xlink" width="600.400938pt" height="304.99625pt" viewBox="0 0 600.400938 304.99625" xmlns="http://www.w3.org/2000/svg" version="1.1">
 <metadata>
  <rdf:RDF xmlns:dc="http://purl.org/dc/elements/1.1/" xmlns:cc="http://creativecommons.org/ns#" xmlns:rdf="http://www.w3.org/1999/02/22-rdf-syntax-ns#">
   <cc:Work>
    <dc:type rdf:resource="http://purl.org/dc/dcmitype/StillImage"/>
    <dc:date>2023-09-05T22:09:07.623741</dc:date>
    <dc:format>image/svg+xml</dc:format>
    <dc:creator>
     <cc:Agent>
      <dc:title>Matplotlib v3.7.2, https://matplotlib.org/</dc:title>
     </cc:Agent>
    </dc:creator>
   </cc:Work>
  </rdf:RDF>
 </metadata>
 <defs>
  <style type="text/css">*{stroke-linejoin: round; stroke-linecap: butt}</style>
 </defs>
 <g id="figure_1">
  <g id="patch_1">
   <path d="M 0 304.99625 
L 600.400938 304.99625 
L 600.400938 0 
L 0 0 
L 0 304.99625 
z
" style="fill: none"/>
  </g>
  <g id="axes_1">
   <g id="patch_2">
    <path d="M 41.680938 277.92 
L 599.680938 277.92 
L 599.680938 0.72 
L 41.680938 0.72 
L 41.680938 277.92 
z
" style="fill: none"/>
   </g>
   <g id="matplotlib.axis_1">
    <g id="xtick_1">
     <g id="line2d_1">
      <path d="M 41.680938 277.92 
L 41.680938 0.72 
" clip-path="url(#p798eb2c355)" style="fill: none; stroke-dasharray: 0.8,1.32; stroke-dashoffset: 0; stroke: #000000; stroke-opacity: 0.5; stroke-width: 0.8"/>
     </g>
     <g id="line2d_2">
      <defs>
       <path id="m74a9165749" d="M 0 0 
L 0 3.5 
" style="stroke: #000000; stroke-width: 0.8"/>
      </defs>
      <g>
       <use xlink:href="#m74a9165749" x="41.680938" y="277.92" style="stroke: #000000; stroke-width: 0.8"/>
      </g>
     </g>
     <g id="text_1">
      <!-- 0 -->
      <g transform="translate(38.499688 292.518438) scale(0.1 -0.1)">
       <defs>
        <path id="DejaVuSans-30" d="M 2034 4250 
Q 1547 4250 1301 3770 
Q 1056 3291 1056 2328 
Q 1056 1369 1301 889 
Q 1547 409 2034 409 
Q 2525 409 2770 889 
Q 3016 1369 3016 2328 
Q 3016 3291 2770 3770 
Q 2525 4250 2034 4250 
z
M 2034 4750 
Q 2819 4750 3233 4129 
Q 3647 3509 3647 2328 
Q 3647 1150 3233 529 
Q 2819 -91 2034 -91 
Q 1250 -91 836 529 
Q 422 1150 422 2328 
Q 422 3509 836 4129 
Q 1250 4750 2034 4750 
z
" transform="scale(0.015625)"/>
       </defs>
       <use xlink:href="#DejaVuSans-30"/>
      </g>
     </g>
    </g>
    <g id="xtick_2">
     <g id="line2d_3">
      <path d="M 126.910739 277.92 
L 126.910739 0.72 
" clip-path="url(#p798eb2c355)" style="fill: none; stroke-dasharray: 0.8,1.32; stroke-dashoffset: 0; stroke: #000000; stroke-opacity: 0.5; stroke-width: 0.8"/>
     </g>
     <g id="line2d_4">
      <g>
       <use xlink:href="#m74a9165749" x="126.910739" y="277.92" style="stroke: #000000; stroke-width: 0.8"/>
      </g>
     </g>
     <g id="text_2">
      <!-- 5 -->
      <g transform="translate(123.729489 292.518438) scale(0.1 -0.1)">
       <defs>
        <path id="DejaVuSans-35" d="M 691 4666 
L 3169 4666 
L 3169 4134 
L 1269 4134 
L 1269 2991 
Q 1406 3038 1543 3061 
Q 1681 3084 1819 3084 
Q 2600 3084 3056 2656 
Q 3513 2228 3513 1497 
Q 3513 744 3044 326 
Q 2575 -91 1722 -91 
Q 1428 -91 1123 -41 
Q 819 9 494 109 
L 494 744 
Q 775 591 1075 516 
Q 1375 441 1709 441 
Q 2250 441 2565 725 
Q 2881 1009 2881 1497 
Q 2881 1984 2565 2268 
Q 2250 2553 1709 2553 
Q 1456 2553 1204 2497 
Q 953 2441 691 2322 
L 691 4666 
z
" transform="scale(0.015625)"/>
       </defs>
       <use xlink:href="#DejaVuSans-35"/>
      </g>
     </g>
    </g>
    <g id="xtick_3">
     <g id="line2d_5">
      <path d="M 212.14054 277.92 
L 212.14054 0.72 
" clip-path="url(#p798eb2c355)" style="fill: none; stroke-dasharray: 0.8,1.32; stroke-dashoffset: 0; stroke: #000000; stroke-opacity: 0.5; stroke-width: 0.8"/>
     </g>
     <g id="line2d_6">
      <g>
       <use xlink:href="#m74a9165749" x="212.14054" y="277.92" style="stroke: #000000; stroke-width: 0.8"/>
      </g>
     </g>
     <g id="text_3">
      <!-- 10 -->
      <g transform="translate(205.77804 292.518438) scale(0.1 -0.1)">
       <defs>
        <path id="DejaVuSans-31" d="M 794 531 
L 1825 531 
L 1825 4091 
L 703 3866 
L 703 4441 
L 1819 4666 
L 2450 4666 
L 2450 531 
L 3481 531 
L 3481 0 
L 794 0 
L 794 531 
z
" transform="scale(0.015625)"/>
       </defs>
       <use xlink:href="#DejaVuSans-31"/>
       <use xlink:href="#DejaVuSans-30" x="63.623047"/>
      </g>
     </g>
    </g>
    <g id="xtick_4">
     <g id="line2d_7">
      <path d="M 297.370341 277.92 
L 297.370341 0.72 
" clip-path="url(#p798eb2c355)" style="fill: none; stroke-dasharray: 0.8,1.32; stroke-dashoffset: 0; stroke: #000000; stroke-opacity: 0.5; stroke-width: 0.8"/>
     </g>
     <g id="line2d_8">
      <g>
       <use xlink:href="#m74a9165749" x="297.370341" y="277.92" style="stroke: #000000; stroke-width: 0.8"/>
      </g>
     </g>
     <g id="text_4">
      <!-- 15 -->
      <g transform="translate(291.007841 292.518438) scale(0.1 -0.1)">
       <use xlink:href="#DejaVuSans-31"/>
       <use xlink:href="#DejaVuSans-35" x="63.623047"/>
      </g>
     </g>
    </g>
    <g id="xtick_5">
     <g id="line2d_9">
      <path d="M 382.600142 277.92 
L 382.600142 0.72 
" clip-path="url(#p798eb2c355)" style="fill: none; stroke-dasharray: 0.8,1.32; stroke-dashoffset: 0; stroke: #000000; stroke-opacity: 0.5; stroke-width: 0.8"/>
     </g>
     <g id="line2d_10">
      <g>
       <use xlink:href="#m74a9165749" x="382.600142" y="277.92" style="stroke: #000000; stroke-width: 0.8"/>
      </g>
     </g>
     <g id="text_5">
      <!-- 20 -->
      <g transform="translate(376.237642 292.518438) scale(0.1 -0.1)">
       <defs>
        <path id="DejaVuSans-32" d="M 1228 531 
L 3431 531 
L 3431 0 
L 469 0 
L 469 531 
Q 828 903 1448 1529 
Q 2069 2156 2228 2338 
Q 2531 2678 2651 2914 
Q 2772 3150 2772 3378 
Q 2772 3750 2511 3984 
Q 2250 4219 1831 4219 
Q 1534 4219 1204 4116 
Q 875 4013 500 3803 
L 500 4441 
Q 881 4594 1212 4672 
Q 1544 4750 1819 4750 
Q 2544 4750 2975 4387 
Q 3406 4025 3406 3419 
Q 3406 3131 3298 2873 
Q 3191 2616 2906 2266 
Q 2828 2175 2409 1742 
Q 1991 1309 1228 531 
z
" transform="scale(0.015625)"/>
       </defs>
       <use xlink:href="#DejaVuSans-32"/>
       <use xlink:href="#DejaVuSans-30" x="63.623047"/>
      </g>
     </g>
    </g>
    <g id="xtick_6">
     <g id="line2d_11">
      <path d="M 467.829943 277.92 
L 467.829943 0.72 
" clip-path="url(#p798eb2c355)" style="fill: none; stroke-dasharray: 0.8,1.32; stroke-dashoffset: 0; stroke: #000000; stroke-opacity: 0.5; stroke-width: 0.8"/>
     </g>
     <g id="line2d_12">
      <g>
       <use xlink:href="#m74a9165749" x="467.829943" y="277.92" style="stroke: #000000; stroke-width: 0.8"/>
      </g>
     </g>
     <g id="text_6">
      <!-- 25 -->
      <g transform="translate(461.467443 292.518438) scale(0.1 -0.1)">
       <use xlink:href="#DejaVuSans-32"/>
       <use xlink:href="#DejaVuSans-35" x="63.623047"/>
      </g>
     </g>
    </g>
    <g id="xtick_7">
     <g id="line2d_13">
      <path d="M 553.059744 277.92 
L 553.059744 0.72 
" clip-path="url(#p798eb2c355)" style="fill: none; stroke-dasharray: 0.8,1.32; stroke-dashoffset: 0; stroke: #000000; stroke-opacity: 0.5; stroke-width: 0.8"/>
     </g>
     <g id="line2d_14">
      <g>
       <use xlink:href="#m74a9165749" x="553.059744" y="277.92" style="stroke: #000000; stroke-width: 0.8"/>
      </g>
     </g>
     <g id="text_7">
      <!-- 30 -->
      <g transform="translate(546.697244 292.518438) scale(0.1 -0.1)">
       <defs>
        <path id="DejaVuSans-33" d="M 2597 2516 
Q 3050 2419 3304 2112 
Q 3559 1806 3559 1356 
Q 3559 666 3084 287 
Q 2609 -91 1734 -91 
Q 1441 -91 1130 -33 
Q 819 25 488 141 
L 488 750 
Q 750 597 1062 519 
Q 1375 441 1716 441 
Q 2309 441 2620 675 
Q 2931 909 2931 1356 
Q 2931 1769 2642 2001 
Q 2353 2234 1838 2234 
L 1294 2234 
L 1294 2753 
L 1863 2753 
Q 2328 2753 2575 2939 
Q 2822 3125 2822 3475 
Q 2822 3834 2567 4026 
Q 2313 4219 1838 4219 
Q 1578 4219 1281 4162 
Q 984 4106 628 3988 
L 628 4550 
Q 988 4650 1302 4700 
Q 1616 4750 1894 4750 
Q 2613 4750 3031 4423 
Q 3450 4097 3450 3541 
Q 3450 3153 3228 2886 
Q 3006 2619 2597 2516 
z
" transform="scale(0.015625)"/>
       </defs>
       <use xlink:href="#DejaVuSans-33"/>
       <use xlink:href="#DejaVuSans-30" x="63.623047"/>
      </g>
     </g>
    </g>
    <g id="text_8">
     <!-- Zeit [s] -->
     <g transform="translate(302.734844 302.196563) scale(0.1 -0.1)">
      <defs>
       <path id="DejaVuSans-5a" d="M 359 4666 
L 4025 4666 
L 4025 4184 
L 1075 531 
L 4097 531 
L 4097 0 
L 288 0 
L 288 481 
L 3238 4134 
L 359 4134 
L 359 4666 
z
" transform="scale(0.015625)"/>
       <path id="DejaVuSans-65" d="M 3597 1894 
L 3597 1613 
L 953 1613 
Q 991 1019 1311 708 
Q 1631 397 2203 397 
Q 2534 397 2845 478 
Q 3156 559 3463 722 
L 3463 178 
Q 3153 47 2828 -22 
Q 2503 -91 2169 -91 
Q 1331 -91 842 396 
Q 353 884 353 1716 
Q 353 2575 817 3079 
Q 1281 3584 2069 3584 
Q 2775 3584 3186 3129 
Q 3597 2675 3597 1894 
z
M 3022 2063 
Q 3016 2534 2758 2815 
Q 2500 3097 2075 3097 
Q 1594 3097 1305 2825 
Q 1016 2553 972 2059 
L 3022 2063 
z
" transform="scale(0.015625)"/>
       <path id="DejaVuSans-69" d="M 603 3500 
L 1178 3500 
L 1178 0 
L 603 0 
L 603 3500 
z
M 603 4863 
L 1178 4863 
L 1178 4134 
L 603 4134 
L 603 4863 
z
" transform="scale(0.015625)"/>
       <path id="DejaVuSans-74" d="M 1172 4494 
L 1172 3500 
L 2356 3500 
L 2356 3053 
L 1172 3053 
L 1172 1153 
Q 1172 725 1289 603 
Q 1406 481 1766 481 
L 2356 481 
L 2356 0 
L 1766 0 
Q 1100 0 847 248 
Q 594 497 594 1153 
L 594 3053 
L 172 3053 
L 172 3500 
L 594 3500 
L 594 4494 
L 1172 4494 
z
" transform="scale(0.015625)"/>
       <path id="DejaVuSans-20" transform="scale(0.015625)"/>
       <path id="DejaVuSans-5b" d="M 550 4863 
L 1875 4863 
L 1875 4416 
L 1125 4416 
L 1125 -397 
L 1875 -397 
L 1875 -844 
L 550 -844 
L 550 4863 
z
" transform="scale(0.015625)"/>
       <path id="DejaVuSans-73" d="M 2834 3397 
L 2834 2853 
Q 2591 2978 2328 3040 
Q 2066 3103 1784 3103 
Q 1356 3103 1142 2972 
Q 928 2841 928 2578 
Q 928 2378 1081 2264 
Q 1234 2150 1697 2047 
L 1894 2003 
Q 2506 1872 2764 1633 
Q 3022 1394 3022 966 
Q 3022 478 2636 193 
Q 2250 -91 1575 -91 
Q 1294 -91 989 -36 
Q 684 19 347 128 
L 347 722 
Q 666 556 975 473 
Q 1284 391 1588 391 
Q 1994 391 2212 530 
Q 2431 669 2431 922 
Q 2431 1156 2273 1281 
Q 2116 1406 1581 1522 
L 1381 1569 
Q 847 1681 609 1914 
Q 372 2147 372 2553 
Q 372 3047 722 3315 
Q 1072 3584 1716 3584 
Q 2034 3584 2315 3537 
Q 2597 3491 2834 3397 
z
" transform="scale(0.015625)"/>
       <path id="DejaVuSans-5d" d="M 1947 4863 
L 1947 -844 
L 622 -844 
L 622 -397 
L 1369 -397 
L 1369 4416 
L 622 4416 
L 622 4863 
L 1947 4863 
z
" transform="scale(0.015625)"/>
      </defs>
      <use xlink:href="#DejaVuSans-5a"/>
      <use xlink:href="#DejaVuSans-65" x="68.505859"/>
      <use xlink:href="#DejaVuSans-69" x="130.029297"/>
      <use xlink:href="#DejaVuSans-74" x="157.8125"/>
      <use xlink:href="#DejaVuSans-20" x="197.021484"/>
      <use xlink:href="#DejaVuSans-5b" x="228.808594"/>
      <use xlink:href="#DejaVuSans-73" x="267.822266"/>
      <use xlink:href="#DejaVuSans-5d" x="319.921875"/>
     </g>
    </g>
   </g>
   <g id="matplotlib.axis_2">
    <g id="ytick_1">
     <g id="line2d_15">
      <path d="M 41.680938 246.47143 
L 599.680938 246.47143 
" clip-path="url(#p798eb2c355)" style="fill: none; stroke-dasharray: 0.8,1.32; stroke-dashoffset: 0; stroke: #000000; stroke-opacity: 0.5; stroke-width: 0.8"/>
     </g>
     <g id="line2d_16">
      <defs>
       <path id="ma590057e0c" d="M 0 0 
L -3.5 0 
" style="stroke: #000000; stroke-width: 0.8"/>
      </defs>
      <g>
       <use xlink:href="#ma590057e0c" x="41.680938" y="246.47143" style="stroke: #000000; stroke-width: 0.8"/>
      </g>
     </g>
     <g id="text_9">
      <!-- −4.5 -->
      <g transform="translate(10.398125 250.270649) scale(0.1 -0.1)">
       <defs>
        <path id="DejaVuSans-2212" d="M 678 2272 
L 4684 2272 
L 4684 1741 
L 678 1741 
L 678 2272 
z
" transform="scale(0.015625)"/>
        <path id="DejaVuSans-34" d="M 2419 4116 
L 825 1625 
L 2419 1625 
L 2419 4116 
z
M 2253 4666 
L 3047 4666 
L 3047 1625 
L 3713 1625 
L 3713 1100 
L 3047 1100 
L 3047 0 
L 2419 0 
L 2419 1100 
L 313 1100 
L 313 1709 
L 2253 4666 
z
" transform="scale(0.015625)"/>
        <path id="DejaVuSans-2e" d="M 684 794 
L 1344 794 
L 1344 0 
L 684 0 
L 684 794 
z
" transform="scale(0.015625)"/>
       </defs>
       <use xlink:href="#DejaVuSans-2212"/>
       <use xlink:href="#DejaVuSans-34" x="83.789062"/>
       <use xlink:href="#DejaVuSans-2e" x="147.412109"/>
       <use xlink:href="#DejaVuSans-35" x="179.199219"/>
      </g>
     </g>
    </g>
    <g id="ytick_2">
     <g id="line2d_17">
      <path d="M 41.680938 204.002561 
L 599.680938 204.002561 
" clip-path="url(#p798eb2c355)" style="fill: none; stroke-dasharray: 0.8,1.32; stroke-dashoffset: 0; stroke: #000000; stroke-opacity: 0.5; stroke-width: 0.8"/>
     </g>
     <g id="line2d_18">
      <g>
       <use xlink:href="#ma590057e0c" x="41.680938" y="204.002561" style="stroke: #000000; stroke-width: 0.8"/>
      </g>
     </g>
     <g id="text_10">
      <!-- −4.0 -->
      <g transform="translate(10.398125 207.80178) scale(0.1 -0.1)">
       <use xlink:href="#DejaVuSans-2212"/>
       <use xlink:href="#DejaVuSans-34" x="83.789062"/>
       <use xlink:href="#DejaVuSans-2e" x="147.412109"/>
       <use xlink:href="#DejaVuSans-30" x="179.199219"/>
      </g>
     </g>
    </g>
    <g id="ytick_3">
     <g id="line2d_19">
      <path d="M 41.680938 161.533693 
L 599.680938 161.533693 
" clip-path="url(#p798eb2c355)" style="fill: none; stroke-dasharray: 0.8,1.32; stroke-dashoffset: 0; stroke: #000000; stroke-opacity: 0.5; stroke-width: 0.8"/>
     </g>
     <g id="line2d_20">
      <g>
       <use xlink:href="#ma590057e0c" x="41.680938" y="161.533693" style="stroke: #000000; stroke-width: 0.8"/>
      </g>
     </g>
     <g id="text_11">
      <!-- −3.5 -->
      <g transform="translate(10.398125 165.332912) scale(0.1 -0.1)">
       <use xlink:href="#DejaVuSans-2212"/>
       <use xlink:href="#DejaVuSans-33" x="83.789062"/>
       <use xlink:href="#DejaVuSans-2e" x="147.412109"/>
       <use xlink:href="#DejaVuSans-35" x="179.199219"/>
      </g>
     </g>
    </g>
    <g id="ytick_4">
     <g id="line2d_21">
      <path d="M 41.680938 119.064824 
L 599.680938 119.064824 
" clip-path="url(#p798eb2c355)" style="fill: none; stroke-dasharray: 0.8,1.32; stroke-dashoffset: 0; stroke: #000000; stroke-opacity: 0.5; stroke-width: 0.8"/>
     </g>
     <g id="line2d_22">
      <g>
       <use xlink:href="#ma590057e0c" x="41.680938" y="119.064824" style="stroke: #000000; stroke-width: 0.8"/>
      </g>
     </g>
     <g id="text_12">
      <!-- −3.0 -->
      <g transform="translate(10.398125 122.864043) scale(0.1 -0.1)">
       <use xlink:href="#DejaVuSans-2212"/>
       <use xlink:href="#DejaVuSans-33" x="83.789062"/>
       <use xlink:href="#DejaVuSans-2e" x="147.412109"/>
       <use xlink:href="#DejaVuSans-30" x="179.199219"/>
      </g>
     </g>
    </g>
    <g id="ytick_5">
     <g id="line2d_23">
      <path d="M 41.680938 76.595956 
L 599.680938 76.595956 
" clip-path="url(#p798eb2c355)" style="fill: none; stroke-dasharray: 0.8,1.32; stroke-dashoffset: 0; stroke: #000000; stroke-opacity: 0.5; stroke-width: 0.8"/>
     </g>
     <g id="line2d_24">
      <g>
       <use xlink:href="#ma590057e0c" x="41.680938" y="76.595956" style="stroke: #000000; stroke-width: 0.8"/>
      </g>
     </g>
     <g id="text_13">
      <!-- −2.5 -->
      <g transform="translate(10.398125 80.395174) scale(0.1 -0.1)">
       <use xlink:href="#DejaVuSans-2212"/>
       <use xlink:href="#DejaVuSans-32" x="83.789062"/>
       <use xlink:href="#DejaVuSans-2e" x="147.412109"/>
       <use xlink:href="#DejaVuSans-35" x="179.199219"/>
      </g>
     </g>
    </g>
    <g id="ytick_6">
     <g id="line2d_25">
      <path d="M 41.680938 34.127087 
L 599.680938 34.127087 
" clip-path="url(#p798eb2c355)" style="fill: none; stroke-dasharray: 0.8,1.32; stroke-dashoffset: 0; stroke: #000000; stroke-opacity: 0.5; stroke-width: 0.8"/>
     </g>
     <g id="line2d_26">
      <g>
       <use xlink:href="#ma590057e0c" x="41.680938" y="34.127087" style="stroke: #000000; stroke-width: 0.8"/>
      </g>
     </g>
     <g id="text_14">
      <!-- −2.0 -->
      <g transform="translate(10.398125 37.926306) scale(0.1 -0.1)">
       <use xlink:href="#DejaVuSans-2212"/>
       <use xlink:href="#DejaVuSans-32" x="83.789062"/>
       <use xlink:href="#DejaVuSans-2e" x="147.412109"/>
       <use xlink:href="#DejaVuSans-30" x="179.199219"/>
      </g>
     </g>
    </g>
    <g id="text_15">
     <!-- Drehmoment [Nm] -->
     <g transform="translate(8.318438 186.465313) rotate(-90) scale(0.1 -0.1)">
      <defs>
       <path id="DejaVuSans-44" d="M 1259 4147 
L 1259 519 
L 2022 519 
Q 2988 519 3436 956 
Q 3884 1394 3884 2338 
Q 3884 3275 3436 3711 
Q 2988 4147 2022 4147 
L 1259 4147 
z
M 628 4666 
L 1925 4666 
Q 3281 4666 3915 4102 
Q 4550 3538 4550 2338 
Q 4550 1131 3912 565 
Q 3275 0 1925 0 
L 628 0 
L 628 4666 
z
" transform="scale(0.015625)"/>
       <path id="DejaVuSans-72" d="M 2631 2963 
Q 2534 3019 2420 3045 
Q 2306 3072 2169 3072 
Q 1681 3072 1420 2755 
Q 1159 2438 1159 1844 
L 1159 0 
L 581 0 
L 581 3500 
L 1159 3500 
L 1159 2956 
Q 1341 3275 1631 3429 
Q 1922 3584 2338 3584 
Q 2397 3584 2469 3576 
Q 2541 3569 2628 3553 
L 2631 2963 
z
" transform="scale(0.015625)"/>
       <path id="DejaVuSans-68" d="M 3513 2113 
L 3513 0 
L 2938 0 
L 2938 2094 
Q 2938 2591 2744 2837 
Q 2550 3084 2163 3084 
Q 1697 3084 1428 2787 
Q 1159 2491 1159 1978 
L 1159 0 
L 581 0 
L 581 4863 
L 1159 4863 
L 1159 2956 
Q 1366 3272 1645 3428 
Q 1925 3584 2291 3584 
Q 2894 3584 3203 3211 
Q 3513 2838 3513 2113 
z
" transform="scale(0.015625)"/>
       <path id="DejaVuSans-6d" d="M 3328 2828 
Q 3544 3216 3844 3400 
Q 4144 3584 4550 3584 
Q 5097 3584 5394 3201 
Q 5691 2819 5691 2113 
L 5691 0 
L 5113 0 
L 5113 2094 
Q 5113 2597 4934 2840 
Q 4756 3084 4391 3084 
Q 3944 3084 3684 2787 
Q 3425 2491 3425 1978 
L 3425 0 
L 2847 0 
L 2847 2094 
Q 2847 2600 2669 2842 
Q 2491 3084 2119 3084 
Q 1678 3084 1418 2786 
Q 1159 2488 1159 1978 
L 1159 0 
L 581 0 
L 581 3500 
L 1159 3500 
L 1159 2956 
Q 1356 3278 1631 3431 
Q 1906 3584 2284 3584 
Q 2666 3584 2933 3390 
Q 3200 3197 3328 2828 
z
" transform="scale(0.015625)"/>
       <path id="DejaVuSans-6f" d="M 1959 3097 
Q 1497 3097 1228 2736 
Q 959 2375 959 1747 
Q 959 1119 1226 758 
Q 1494 397 1959 397 
Q 2419 397 2687 759 
Q 2956 1122 2956 1747 
Q 2956 2369 2687 2733 
Q 2419 3097 1959 3097 
z
M 1959 3584 
Q 2709 3584 3137 3096 
Q 3566 2609 3566 1747 
Q 3566 888 3137 398 
Q 2709 -91 1959 -91 
Q 1206 -91 779 398 
Q 353 888 353 1747 
Q 353 2609 779 3096 
Q 1206 3584 1959 3584 
z
" transform="scale(0.015625)"/>
       <path id="DejaVuSans-6e" d="M 3513 2113 
L 3513 0 
L 2938 0 
L 2938 2094 
Q 2938 2591 2744 2837 
Q 2550 3084 2163 3084 
Q 1697 3084 1428 2787 
Q 1159 2491 1159 1978 
L 1159 0 
L 581 0 
L 581 3500 
L 1159 3500 
L 1159 2956 
Q 1366 3272 1645 3428 
Q 1925 3584 2291 3584 
Q 2894 3584 3203 3211 
Q 3513 2838 3513 2113 
z
" transform="scale(0.015625)"/>
       <path id="DejaVuSans-4e" d="M 628 4666 
L 1478 4666 
L 3547 763 
L 3547 4666 
L 4159 4666 
L 4159 0 
L 3309 0 
L 1241 3903 
L 1241 0 
L 628 0 
L 628 4666 
z
" transform="scale(0.015625)"/>
      </defs>
      <use xlink:href="#DejaVuSans-44"/>
      <use xlink:href="#DejaVuSans-72" x="77.001953"/>
      <use xlink:href="#DejaVuSans-65" x="115.865234"/>
      <use xlink:href="#DejaVuSans-68" x="177.388672"/>
      <use xlink:href="#DejaVuSans-6d" x="240.767578"/>
      <use xlink:href="#DejaVuSans-6f" x="338.179688"/>
      <use xlink:href="#DejaVuSans-6d" x="399.361328"/>
      <use xlink:href="#DejaVuSans-65" x="496.773438"/>
      <use xlink:href="#DejaVuSans-6e" x="558.296875"/>
      <use xlink:href="#DejaVuSans-74" x="621.675781"/>
      <use xlink:href="#DejaVuSans-20" x="660.884766"/>
      <use xlink:href="#DejaVuSans-5b" x="692.671875"/>
      <use xlink:href="#DejaVuSans-4e" x="731.685547"/>
      <use xlink:href="#DejaVuSans-6d" x="806.490234"/>
      <use xlink:href="#DejaVuSans-5d" x="903.902344"/>
     </g>
    </g>
   </g>
   <g id="line2d_27">
    <path d="M 41.680938 0.720003 
L 599.680938 0.720003 
L 599.680938 0.720003 
" clip-path="url(#p798eb2c355)" style="fill: none; stroke: #0000ff; stroke-opacity: 0.7; stroke-width: 1.5; stroke-linecap: square"/>
   </g>
   <g id="line2d_28">
    <path d="M 41.680938 272.626828 
L 41.786411 272.020526 
L 42.095637 272.780814 
L 42.277596 272.005551 
L 42.307834 269.601347 
L 42.409526 270.916484 
L 42.551222 269.859311 
L 42.784463 271.267369 
L 43.244793 269.492515 
L 43.403087 267.85004 
L 43.644339 268.50979 
L 43.919098 270.638539 
L 44.267285 271.984131 
L 44.365404 270.853453 
L 44.811237 272.310155 
L 45.053451 269.59068 
L 45.360277 270.018141 
L 45.670672 268.571233 
L 45.810692 270.624679 
L 45.945196 269.74835 
L 46.083151 268.044232 
L 46.323365 267.702756 
L 46.495343 271.96286 
L 46.634336 271.725065 
L 46.77147 272.076451 
L 46.9091 272.804399 
L 47.28603 269.303769 
L 47.35335 270.957065 
L 47.490657 270.638547 
L 47.612474 270.93944 
L 47.628555 272.151066 
L 47.766305 271.825867 
L 47.904564 272.322813 
L 48.180962 269.3652 
L 48.327832 269.362911 
L 48.740342 270.986181 
L 49.04333 275.107248 
L 49.318252 273.706556 
L 49.602177 271.115124 
L 49.764062 270.237339 
L 49.939673 269.962384 
L 50.177618 271.575409 
L 50.451077 268.729672 
L 50.659319 268.132783 
L 50.738416 266.680741 
L 51.177907 269.544007 
L 51.323233 269.029412 
L 51.453081 270.188864 
L 51.591337 269.865726 
L 51.729619 269.236734 
L 52.006253 267.551232 
L 52.313957 266.229008 
L 52.451386 266.568828 
L 52.726608 268.852667 
L 52.865102 268.82278 
L 53.022542 268.496052 
L 53.145482 268.686407 
L 53.310074 267.992507 
L 53.586819 269.40727 
L 53.749399 270.797155 
L 53.862713 270.784428 
L 54.137424 271.21022 
L 54.412345 267.20075 
L 54.583001 266.703134 
L 54.859716 268.338549 
L 55.13185 273.311558 
L 55.271776 273.843782 
L 55.717872 271.795263 
L 55.998418 274.373002 
L 56.134953 274.234666 
L 56.271747 274.614006 
L 56.546596 273.692764 
L 56.890672 270.470105 
L 57.061856 270.488128 
L 57.165246 270.042568 
L 57.752509 271.658394 
L 57.820161 270.603532 
L 57.988108 270.410943 
L 58.263917 268.559569 
L 58.542689 270.729781 
L 58.717735 273.585186 
L 58.824227 273.051063 
L 58.967256 271.724263 
L 59.267408 271.122771 
L 59.402422 270.742016 
L 59.81575 272.049926 
L 60.133 269.563124 
L 60.273362 268.576045 
L 60.4241 268.45687 
L 60.446196 267.562366 
L 60.55255 268.34145 
L 60.825555 266.990596 
L 61.278794 269.56404 
L 61.535871 269.086994 
L 61.846065 270.569508 
L 62.014935 269.980009 
L 62.047079 269.399066 
L 62.116677 269.788715 
L 62.259642 271.377067 
L 62.309765 270.457292 
L 62.330589 271.960286 
L 62.455268 270.949394 
L 62.456251 272.149902 
L 62.607928 271.346597 
L 62.711126 272.033272 
L 62.847475 271.803018 
L 63.157835 269.023481 
L 63.571357 271.409758 
L 63.844896 270.071339 
L 63.948209 269.784151 
L 64.123448 269.636647 
L 64.258158 270.088182 
L 64.361632 271.172125 
L 64.600187 271.524934 
L 64.681558 272.295771 
L 64.8757 272.537639 
L 65.222617 271.480161 
L 65.447316 272.216353 
L 65.549942 271.108198 
L 65.667237 271.572872 
L 65.87268 271.05193 
L 66.355448 268.014914 
L 66.551424 268.587961 
L 66.730923 270.149737 
L 66.937126 268.263567 
L 67.144945 267.777462 
L 67.352091 268.30875 
L 67.434754 269.222843 
L 67.624112 269.8499 
L 67.898097 271.324919 
L 68.072101 268.420105 
L 68.346382 270.415288 
L 68.517276 271.38387 
L 68.655725 270.415688 
L 68.86956 268.037901 
L 69.067361 269.140356 
L 69.204536 267.69184 
L 69.376574 267.35724 
L 69.788751 267.963779 
L 69.925274 267.212165 
L 70.237884 268.528554 
L 70.484706 267.989916 
L 70.577825 268.072525 
L 70.762635 269.895805 
L 71.059449 271.213109 
L 71.195625 270.875924 
L 71.393068 271.503782 
L 71.472258 272.183109 
L 71.642427 272.141036 
L 71.821825 271.60064 
L 72.056806 270.143993 
L 72.217125 270.315308 
L 72.571543 269.093995 
L 72.67424 269.691092 
L 72.778352 268.527042 
L 72.916809 268.701713 
L 73.051996 269.522574 
L 73.259388 269.966489 
L 73.638566 272.894156 
L 73.775466 273.232599 
L 73.912695 274.132656 
L 74.118517 272.940851 
L 74.223533 273.359831 
L 74.4278 274.99503 
L 74.502088 274.834187 
L 74.737267 274.590815 
L 74.840193 273.934268 
L 74.943995 274.327886 
L 75.141132 273.862778 
L 75.184301 273.424327 
L 75.322908 273.872873 
L 75.49533 275.031997 
L 75.631873 274.807857 
L 75.84317 272.927731 
L 76.052806 274.197203 
L 76.224085 273.997186 
L 76.345604 273.64355 
L 76.731538 273.955482 
L 76.921729 272.310761 
L 76.921875 271.720601 
L 77.215415 272.372048 
L 77.460808 271.69318 
L 77.696045 273.367591 
L 77.856144 271.372223 
L 78.027076 270.753269 
L 78.191133 270.438405 
L 78.348933 271.728973 
L 78.749117 271.444602 
L 79.028371 270.582216 
L 79.37096 272.071947 
L 79.439961 273.34183 
L 79.715858 272.494802 
L 79.892301 272.369071 
L 79.994449 272.702216 
L 80.024574 273.650513 
L 80.161154 273.58366 
L 80.299833 275.224477 
L 80.436431 274.839868 
L 80.642257 274.731113 
L 81.200975 269.593618 
L 81.233797 269.913721 
L 81.443267 270.582788 
L 81.713877 266.709443 
L 81.992215 267.173792 
L 82.300511 268.970342 
L 82.439574 270.846993 
L 82.688777 271.172251 
L 82.750834 269.991829 
L 82.849426 271.260868 
L 83.021009 271.865853 
L 83.296537 273.49466 
L 83.469637 273.531406 
L 83.607638 273.31155 
L 83.742822 272.568087 
L 83.85424 272.599881 
L 84.258185 273.518712 
L 84.43186 272.496465 
L 84.464732 271.240475 
L 85.191423 271.992305 
L 85.941773 273.191379 
L 86.743207 272.677911 
L 87.492317 272.549032 
L 87.522672 273.138233 
L 87.659216 272.789295 
L 87.69299 271.569394 
L 87.968824 274.112949 
L 88.108198 273.786906 
L 88.277338 273.088807 
L 88.48367 273.374612 
L 88.659764 273.261131 
L 88.965699 273.662783 
L 89.07113 274.015922 
L 89.103412 274.631128 
L 89.457427 272.784128 
L 89.588564 273.073919 
L 89.721668 274.556512 
L 89.927799 274.604338 
L 90.202437 275.057245 
L 90.239224 273.702059 
L 90.527049 272.253312 
L 90.788668 272.751381 
L 90.961612 272.168163 
L 91.236375 268.760915 
L 91.405405 269.471414 
L 91.57684 268.723763 
L 91.956293 270.963356 
L 92.093006 270.756911 
L 92.438067 271.331499 
L 92.645436 273.200173 
L 92.883835 273.554448 
L 92.986603 273.214714 
L 93.536892 276.005798 
L 93.805075 274.564307 
L 94.011506 274.881166 
L 94.149079 274.800108 
L 94.221837 273.49044 
L 94.397556 273.098694 
L 94.630621 271.461117 
L 94.801572 271.501648 
L 94.938591 271.057085 
L 95.076543 271.157749 
L 95.52417 268.471546 
L 95.62659 269.284211 
L 95.798004 269.22628 
L 95.934485 268.728043 
L 96.072493 269.031767 
L 96.247924 269.110696 
L 96.518141 270.983493 
L 96.62155 272.288144 
L 96.794649 272.111032 
L 97.033665 271.02022 
L 97.069876 271.05269 
L 97.206846 271.189882 
L 97.344728 272.696496 
L 97.517761 272.675461 
L 97.623039 271.154813 
L 97.791375 270.910383 
L 97.897777 272.879423 
L 98.204753 273.552456 
L 98.340487 274.424819 
L 98.478975 274.164981 
L 98.751803 272.117878 
L 98.927171 270.660887 
L 99.220013 270.918122 
L 99.220587 270.428889 
L 99.235292 270.877134 
L 99.515953 270.620049 
L 99.683296 271.182606 
L 99.841018 270.976386 
L 99.904134 270.294206 
L 100.040015 271.19201 
L 100.177908 270.650133 
L 100.380787 271.006193 
L 100.621398 269.345089 
L 100.861946 269.373624 
L 101.032432 267.830387 
L 101.174086 267.885157 
L 101.342725 268.608584 
L 101.513738 268.468912 
L 101.616453 268.638724 
L 101.890726 270.109492 
L 102.13044 270.361028 
L 102.168933 267.987058 
L 102.346683 267.249575 
L 102.442127 268.05245 
L 102.610271 268.510214 
L 102.756067 267.974085 
L 103.023111 268.945758 
L 103.304504 267.945923 
L 103.574795 268.232865 
L 104.022028 272.486068 
L 104.29733 271.348443 
L 104.815089 273.819285 
L 104.84775 273.698838 
L 105.052055 272.844168 
L 105.294785 270.198735 
L 105.430666 269.91578 
L 105.704929 271.02309 
L 105.860586 270.206155 
L 105.91366 268.520096 
L 106.462033 270.153268 
L 106.563794 270.918114 
L 106.875598 271.64018 
L 107.014108 270.764727 
L 107.216772 271.260169 
L 107.457573 274.305534 
L 107.601913 273.177418 
L 107.843302 273.755903 
L 107.988126 273.271076 
L 108.153337 273.244541 
L 108.462604 274.942905 
L 108.672846 274.708008 
L 108.978687 270.697173 
L 109.151065 270.584027 
L 109.432935 271.914826 
L 109.564824 271.293715 
L 109.842478 268.604565 
L 109.987124 268.069584 
L 110.563531 271.55492 
L 110.941693 269.95332 
L 110.975431 269.282144 
L 111.114426 270.586 
L 111.354911 271.193869 
L 111.560802 270.360277 
L 111.697633 269.084514 
L 111.959189 269.73022 
L 112.042259 269.637056 
L 112.280106 271.472791 
L 112.564734 270.45016 
L 112.769266 269.514508 
L 112.971339 271.768094 
L 113.252265 272.797053 
L 113.42946 271.086293 
L 113.595562 271.767694 
L 113.7616 273.265988 
L 113.830262 273.161121 
L 114.108175 273.178118 
L 114.244671 273.941952 
L 114.555159 271.006356 
L 114.808692 271.862488 
L 115.002296 270.820548 
L 115.105761 269.305677 
L 115.364605 269.507209 
L 115.451376 268.966685 
L 115.688569 268.998937 
L 115.912172 269.249962 
L 116.119868 270.683517 
L 116.241745 270.636405 
L 116.377313 269.231243 
L 116.687549 270.447325 
L 116.858219 270.194338 
L 116.931409 270.510146 
L 116.962925 270.067787 
L 117.099262 271.489335 
L 117.23743 270.273724 
L 117.37498 270.318811 
L 117.520537 271.050594 
L 117.690319 270.367703 
L 117.827917 270.431893 
L 118.101913 268.716667 
L 118.238942 269.139911 
L 118.377133 268.520552 
L 118.51394 266.791341 
L 118.831667 269.009682 
L 118.936324 268.429564 
L 118.963198 269.632691 
L 119.101162 268.892079 
L 119.205823 270.423681 
L 119.933711 273.0731 
L 120.102807 272.821295 
L 120.305056 270.952256 
L 120.373659 271.21243 
L 120.512774 272.26412 
L 120.651412 271.841851 
L 120.789259 272.120506 
L 121.133715 271.589655 
L 121.377836 269.726775 
L 121.720777 273.110032 
L 121.787924 273.46092 
L 121.958891 272.69893 
L 122.200124 274.436274 
L 122.337046 274.577109 
L 122.370744 274.936299 
L 122.475792 274.814672 
L 122.723364 275.109143 
L 122.757158 275.366614 
L 123.067029 272.457304 
L 123.208093 272.07142 
L 123.345267 272.144887 
L 123.615127 271.544844 
L 123.82519 271.371238 
L 124.09778 272.119369 
L 124.198876 271.972609 
L 124.336783 273.395438 
L 124.620933 273.668056 
L 124.750426 273.566474 
L 124.922401 272.220289 
L 125.195514 271.06336 
L 125.345443 271.471093 
L 125.621108 273.584543 
L 125.762171 271.598081 
L 126.031206 271.262294 
L 126.09768 270.440364 
L 126.437393 270.608023 
L 126.469641 271.654815 
L 126.642841 270.733682 
L 126.953125 267.585105 
L 127.054465 267.919187 
L 127.329711 265.892849 
L 127.468288 266.534135 
L 127.673314 266.566748 
L 127.741331 267.600381 
L 127.880961 267.4076 
L 128.415487 269.338008 
L 128.500799 269.286021 
L 128.706073 270.581213 
L 128.741316 270.387491 
L 128.886649 270.754033 
L 129.152627 267.345191 
L 129.290934 268.521891 
L 129.462647 267.050579 
L 129.604089 266.977023 
L 129.877001 269.041218 
L 130.04968 269.085502 
L 130.219828 270.123961 
L 130.288516 269.812971 
L 130.494025 271.068183 
L 130.598697 272.469077 
L 130.734456 271.883591 
L 131.043237 272.81735 
L 131.284829 269.911758 
L 131.491448 269.671909 
L 131.595438 269.247992 
L 131.751241 269.963981 
L 132.078278 269.445346 
L 132.297254 268.409264 
L 132.56576 266.277125 
L 133.043005 268.882049 
L 133.297328 268.698402 
L 133.45397 269.530503 
L 133.593898 269.24351 
L 133.757727 269.406845 
L 133.981867 271.546403 
L 134.293495 273.406305 
L 134.59318 272.058624 
L 134.695659 272.087259 
L 135.078127 272.551618 
L 135.148718 271.256725 
L 135.258581 272.292174 
L 135.423568 271.446067 
L 135.561997 269.889092 
L 135.835595 270.227353 
L 135.972712 272.763612 
L 136.111822 273.001016 
L 136.253139 271.946112 
L 136.570069 272.667118 
L 136.695475 271.225852 
L 136.970229 271.862145 
L 137.12047 270.496237 
L 137.245968 271.554471 
L 137.403592 270.325443 
L 137.690021 270.077962 
L 137.963847 271.03904 
L 138.110512 271.047694 
L 138.243633 270.488954 
L 138.548773 271.611726 
L 138.824179 269.464985 
L 138.960111 270.559593 
L 139.096649 270.442972 
L 139.238514 269.319917 
L 139.379691 269.927543 
L 139.544334 269.983791 
L 139.68315 271.371014 
L 139.820048 271.07055 
L 139.957407 270.20885 
L 140.232313 271.72159 
L 140.369085 270.418656 
L 140.541105 270.316032 
L 140.817422 271.983923 
L 140.955907 272.233317 
L 141.09156 272.031844 
L 141.371361 273.726209 
L 141.676164 271.567091 
L 141.813533 271.231669 
L 142.087581 269.868352 
L 142.379945 270.011612 
L 142.640568 268.804601 
L 143.35904 271.225332 
L 143.530638 271.40912 
L 143.787317 268.315724 
L 143.912776 269.094763 
L 143.945167 268.824641 
L 144.081577 268.19431 
L 144.21912 268.521202 
L 144.360478 268.151302 
L 144.531332 266.905195 
L 144.771734 268.864775 
L 144.944607 268.107399 
L 145.055901 268.551188 
L 145.221007 269.780414 
L 145.355269 268.981974 
L 145.495267 269.65232 
L 145.654177 269.106978 
L 145.665441 271.664526 
L 145.770056 270.5052 
L 146.054215 271.643037 
L 146.080082 270.751627 
L 146.225956 270.207341 
L 146.493554 271.695927 
L 146.596753 273.009115 
L 146.632171 272.516612 
L 146.771906 272.553221 
L 147.093961 270.809988 
L 147.252929 270.9991 
L 147.355272 270.75857 
L 147.700156 272.714683 
L 147.904695 270.656548 
L 148.043089 270.121383 
L 148.181847 270.755819 
L 148.39432 272.445761 
L 148.496434 272.314624 
L 148.638563 271.328652 
L 148.780193 271.239142 
L 148.807232 269.718109 
L 148.909103 270.31611 
L 149.150042 269.561669 
L 149.321783 272.271675 
L 149.631826 272.329927 
L 149.769191 271.790134 
L 149.803783 270.246524 
L 150.146992 271.008358 
L 150.218959 270.703272 
L 150.355929 270.861697 
L 150.391076 270.174922 
L 150.495868 271.368386 
L 150.942379 267.401123 
L 151.145839 267.903795 
L 151.181086 268.956954 
L 151.319905 268.998123 
L 151.492685 268.552202 
L 151.596395 270.882936 
L 151.627527 269.825635 
L 151.766516 270.797521 
L 152.109921 271.606638 
L 152.314791 271.379257 
L 152.451432 273.342077 
L 152.727572 271.890891 
L 152.935476 271.972796 
L 153.246629 269.611939 
L 153.415958 268.997318 
L 153.518376 269.077903 
L 153.690837 270.404254 
L 153.865091 268.864909 
L 154.310274 270.550647 
L 154.515442 271.78848 
L 154.583661 272.994658 
L 154.790279 273.260177 
L 155.023982 273.244646 
L 155.133214 273.491741 
L 155.202569 272.966585 
L 155.442336 272.774084 
L 155.528048 272.932295 
L 155.648043 271.594292 
L 155.786003 272.59948 
L 156.164944 270.222885 
L 156.204886 271.164709 
L 156.302542 270.780486 
L 156.440052 270.845903 
L 156.581593 271.616695 
L 156.832136 270.428546 
L 156.870001 270.442189 
L 156.998431 270.577335 
L 157.138175 269.817564 
L 157.440794 269.593284 
L 157.716869 268.091996 
L 157.855012 267.342702 
L 158.05809 267.487813 
L 158.13446 267.893219 
L 158.401161 268.422887 
L 158.572785 267.840146 
L 158.751297 268.060269 
L 158.886424 267.938591 
L 158.991202 269.463764 
L 159.159222 268.9892 
L 159.263808 270.020687 
L 159.845218 266.080303 
L 159.982747 267.276859 
L 160.189253 266.600237 
L 160.334583 266.7774 
L 160.444042 265.672256 
L 160.845341 264.88956 
L 161.294539 268.034864 
L 161.430775 268.011302 
L 161.571659 268.654902 
L 161.912708 267.523484 
L 162.119659 268.57552 
L 162.25953 268.582969 
L 162.291677 268.910018 
L 162.463663 268.034751 
L 162.569176 269.098696 
L 162.737667 269.01971 
L 162.94427 268.307229 
L 163.017182 267.597602 
L 163.290364 268.877599 
L 163.425305 268.627687 
L 163.699834 270.662654 
L 163.98595 269.56411 
L 164.111444 268.561267 
L 164.387803 267.817794 
L 164.529667 268.79181 
L 164.695399 268.703858 
L 164.858639 269.432822 
L 164.973057 268.545563 
L 165.108156 268.411101 
L 165.247557 269.925682 
L 165.486658 269.73348 
L 165.623325 269.312413 
L 165.693089 270.760261 
L 165.829753 270.925963 
L 166.002529 270.736405 
L 166.139238 272.182075 
L 166.41606 271.84087 
L 166.557662 272.463461 
L 166.725811 271.748808 
L 166.898515 272.682702 
L 166.966203 274.380042 
L 167.104035 274.388731 
L 167.24659 273.373991 
L 167.397293 273.73555 
L 167.518261 272.598728 
L 167.758716 272.050992 
L 167.964247 272.903336 
L 168.100791 273.038679 
L 168.237549 272.994789 
L 168.513171 270.448646 
L 168.795728 271.043568 
L 168.95034 270.446925 
L 169.09829 272.354532 
L 169.662673 267.902209 
L 169.928194 268.231755 
L 170.204096 269.766573 
L 170.371836 271.182359 
L 170.508219 269.568725 
L 170.930791 270.894686 
L 171.197866 272.739363 
L 171.367542 272.598584 
L 171.505274 272.278666 
L 171.917699 272.216448 
L 172.198219 273.144231 
L 172.362699 273.38133 
L 172.501289 273.06691 
L 172.640715 272.359025 
L 172.914739 275.107813 
L 173.051813 273.824131 
L 173.389641 273.245373 
L 173.496099 272.088149 
L 173.634981 272.741947 
L 173.772155 272.820397 
L 173.909512 273.158322 
L 174.053859 272.638083 
L 174.326875 269.021806 
L 174.4956 269.403348 
L 174.634801 269.150992 
L 174.768698 267.897058 
L 174.916722 268.063736 
L 175.045958 266.885504 
L 175.181851 267.076475 
L 175.324224 265.488881 
L 175.470862 266.02162 
L 175.599627 267.146358 
L 175.781288 267.653237 
L 175.981886 268.713657 
L 176.186742 271.898619 
L 176.318355 271.850931 
L 176.45914 269.274303 
L 176.597469 271.561074 
L 176.734047 274.224509 
L 176.766687 272.781021 
L 176.908707 273.078995 
L 177.046412 274.179972 
L 177.318168 271.257136 
L 177.592967 269.532172 
L 177.90168 270.807865 
L 178.049922 270.752475 
L 178.391197 269.504221 
L 178.769718 270.914758 
L 179.420138 267.683207 
L 179.48833 268.177867 
L 179.612471 268.199234 
L 179.729886 268.56614 
L 180.00553 269.015562 
L 180.209878 268.868477 
L 180.387254 269.399179 
L 180.590684 271.846882 
L 180.899301 273.813663 
L 181.138327 271.730063 
L 181.311902 271.037586 
L 181.448606 271.378559 
L 181.759365 274.418306 
L 181.962383 273.798519 
L 182.143543 270.903359 
L 182.273825 270.00641 
L 182.445708 271.066627 
L 182.796842 269.404301 
L 182.859716 269.106697 
L 183.0335 267.39111 
L 183.273109 267.67249 
L 183.307029 268.011496 
L 183.547142 269.118398 
L 183.68774 268.541324 
L 183.725267 270.267822 
L 183.891289 269.934422 
L 183.99365 271.587322 
L 184.147687 271.871754 
L 184.268185 270.892971 
L 184.410468 271.419615 
L 184.640767 269.131143 
L 184.855405 270.452818 
L 185.471743 267.491783 
L 185.609038 270.039598 
L 185.920146 269.931504 
L 186.022668 271.545312 
L 186.127025 269.825235 
L 186.401273 271.733092 
L 186.575366 270.579063 
L 186.680693 272.123726 
L 186.846957 271.905036 
L 187.019946 269.094745 
L 187.232179 270.292234 
L 187.294203 269.688925 
L 187.328345 270.748221 
L 187.74124 268.800964 
L 187.844223 268.859172 
L 188.324084 270.649388 
L 188.39268 273.297035 
L 188.668914 271.528435 
L 188.839149 271.492684 
L 188.975887 270.94394 
L 189.285484 271.123718 
L 189.457921 273.2601 
L 189.701563 273.127062 
L 189.838571 270.884235 
L 190.255189 273.868357 
L 190.525551 274.84737 
L 190.732441 273.800364 
L 190.971941 269.973637 
L 191.144061 269.185318 
L 191.283622 270.477952 
L 191.420276 269.322538 
L 191.831771 269.644252 
L 191.96962 269.336642 
L 192.106595 269.868104 
L 192.384585 270.233421 
L 192.514411 271.408221 
L 192.540803 271.346027 
L 192.665577 269.975309 
L 192.743436 270.299533 
L 192.955488 270.335188 
L 193.240348 269.320283 
L 193.558706 271.694013 
L 193.684165 272.610814 
L 193.960368 272.864548 
L 194.06255 273.896107 
L 194.138609 273.540032 
L 194.544224 271.619821 
L 194.85446 271.049898 
L 195.17297 270.179838 
L 195.37196 268.214039 
L 195.508565 269.306254 
L 195.680793 269.559924 
L 196.004609 270.590668 
L 196.164025 269.564774 
L 196.232354 270.5158 
L 196.552542 270.479953 
L 196.714784 270.678281 
L 196.921635 269.804372 
L 197.028416 268.792395 
L 197.258069 269.020358 
L 197.509146 267.58649 
L 197.658898 267.624871 
L 197.726712 267.376918 
L 197.784713 267.446609 
L 197.925747 269.249835 
L 198.058019 268.122239 
L 198.196952 268.507329 
L 198.445014 268.866253 
L 198.509569 268.394763 
L 198.782834 269.705368 
L 198.920348 270.09033 
L 199.093294 268.841744 
L 199.229837 269.532508 
L 199.332695 267.68931 
L 199.541699 268.441892 
L 199.816837 268.310845 
L 199.955115 268.935908 
L 200.114848 268.840354 
L 200.202053 268.117826 
L 200.473452 268.794569 
L 200.77923 266.414096 
L 201.091876 267.570095 
L 201.267791 266.948748 
L 201.619543 268.261944 
L 201.645516 270.517408 
L 201.781016 268.450373 
L 201.889041 268.488364 
L 202.125755 268.18504 
L 202.343669 270.674467 
L 202.470482 270.877672 
L 202.60774 272.414149 
L 202.744358 272.144119 
L 202.8897 271.058346 
L 203.192432 272.363715 
L 203.330487 271.60949 
L 203.481268 273.442706 
L 204.050943 270.010761 
L 204.225545 268.354119 
L 204.331518 269.129716 
L 204.607079 267.839417 
L 204.779819 268.106524 
L 205.095573 269.983689 
L 205.190621 269.965417 
L 205.328329 269.43643 
L 205.568034 269.465553 
L 205.638126 270.678083 
L 205.87679 269.271321 
L 206.014201 270.672635 
L 206.289466 269.694093 
L 206.461311 270.060349 
L 206.632051 271.457477 
L 206.812062 271.793417 
L 206.906224 271.366738 
L 207.145929 272.71117 
L 207.285364 272.897492 
L 207.75738 271.629542 
L 208.177351 268.851724 
L 208.315792 269.32363 
L 208.658223 268.849977 
L 208.738302 269.928143 
L 209.070058 270.646427 
L 209.311382 273.018061 
L 209.491189 273.553064 
L 209.585791 274.360855 
L 209.78206 273.902445 
L 209.967197 273.159517 
L 209.999049 274.2349 
L 210.309298 271.804533 
L 210.446803 271.992486 
L 210.892397 270.354331 
L 210.999015 270.283363 
L 211.167518 270.851302 
L 211.277619 272.4962 
L 211.443348 272.241811 
L 211.687257 272.318528 
L 211.719308 273.037372 
L 211.858161 272.7052 
L 211.889093 271.392638 
L 212.030585 271.29609 
L 212.130728 272.426745 
L 212.544319 272.40191 
L 212.715937 271.407526 
L 212.858231 271.552414 
L 213.130983 269.600803 
L 213.294313 270.957512 
L 213.430604 271.043468 
L 213.678057 269.90678 
L 213.842886 269.579362 
L 213.982562 270.262287 
L 214.152294 270.002213 
L 214.264929 269.558474 
L 214.53488 271.42134 
L 214.562949 271.283961 
L 214.768187 271.407791 
L 215.113272 269.235832 
L 215.28954 269.030592 
L 215.561003 268.173673 
L 215.697457 268.534923 
L 216.006676 268.748141 
L 216.121471 268.2102 
L 216.25023 268.672858 
L 216.564581 270.470009 
L 216.891851 271.430767 
L 217.008266 271.053979 
L 217.124309 271.106783 
L 217.150398 270.239188 
L 217.289897 271.157654 
L 217.423104 270.316028 
L 217.524571 270.504908 
L 217.663717 271.554366 
L 217.834629 270.937673 
L 217.949207 272.587631 
L 218.180219 272.61188 
L 218.31562 271.803912 
L 218.526481 271.494231 
L 218.590538 270.650222 
L 218.728666 271.250754 
L 218.817863 272.93019 
L 219.246614 270.448831 
L 219.521542 267.633767 
L 219.657631 269.568492 
L 219.796769 269.765473 
L 220.105525 268.220475 
L 220.277252 266.522303 
L 220.936947 270.78296 
L 221.113265 267.992565 
L 221.136837 268.631913 
L 221.481137 268.814401 
L 221.654591 271.37364 
L 221.792742 271.487454 
L 221.93008 270.388357 
L 222.170429 269.855236 
L 222.278928 268.698001 
L 222.379841 268.720616 
L 222.553085 270.039033 
L 222.813804 268.859524 
L 222.928813 268.988935 
L 223.066741 266.575962 
L 223.271274 266.274571 
L 223.376031 267.780943 
L 223.512704 267.051494 
L 223.790209 268.242707 
L 223.924299 267.837089 
L 224.061587 268.249049 
L 224.19844 269.774926 
L 224.370322 269.935162 
L 224.645016 271.513509 
L 224.783862 269.082787 
L 224.922796 268.953802 
L 225.061563 269.950101 
L 225.195779 268.804614 
L 225.33868 269.03894 
L 225.473684 269.515802 
L 225.642307 267.42089 
L 225.779559 267.146395 
L 226.054187 268.78211 
L 226.364196 270.49444 
L 226.397666 272.187287 
L 226.491952 271.939029 
L 226.820902 273.390415 
L 227.018898 271.778685 
L 227.196112 272.36487 
L 227.235447 273.016242 
L 227.327279 270.900249 
L 227.471154 270.689997 
L 227.639273 270.87017 
L 227.89124 269.474102 
L 228.049234 269.851394 
L 228.187037 268.780698 
L 228.45737 269.893254 
L 228.615438 267.829483 
L 228.903783 269.282709 
L 229.041387 269.383384 
L 229.349807 270.460351 
L 229.593 268.682077 
L 229.743996 269.308252 
L 229.934357 269.375797 
L 230.043876 271.565824 
L 230.229445 271.44009 
L 230.368428 271.053752 
L 230.61175 269.203892 
L 230.77872 268.676489 
L 230.918088 269.796141 
L 231.088115 270.174811 
L 231.190117 270.119012 
L 231.434475 269.75832 
L 231.537596 269.835144 
L 231.743074 268.729732 
L 231.776263 266.706167 
L 232.022904 269.230728 
L 232.301139 267.716618 
L 232.499987 268.220426 
L 232.715563 268.968576 
L 232.881143 267.530229 
L 233.258751 268.259429 
L 233.50243 267.452682 
L 233.70668 268.830866 
L 233.810048 268.089616 
L 233.878057 268.391784 
L 234.15265 266.255537 
L 234.428387 268.737344 
L 234.598737 268.558575 
L 234.704408 269.042796 
L 234.84305 268.420854 
L 235.013965 268.561094 
L 235.234682 269.671897 
L 235.597661 268.220468 
L 235.639432 270.231888 
L 235.734817 268.576959 
L 235.875013 268.110101 
L 236.010697 269.512341 
L 236.399261 268.618638 
L 236.560934 269.199802 
L 236.698042 268.983919 
L 236.837381 268.972363 
L 237.0407 268.511109 
L 237.28278 269.718472 
L 237.45659 268.784863 
L 237.694845 271.318019 
L 237.832848 271.373295 
L 237.972476 270.570197 
L 238.305277 272.760128 
L 238.554813 273.147689 
L 238.831425 272.071286 
L 239.036541 272.831115 
L 239.206604 272.123578 
L 239.27601 272.16487 
L 239.430732 272.184984 
L 239.790301 271.729026 
L 239.834889 272.403353 
L 240.02952 272.163071 
L 240.102618 273.82988 
L 240.303899 273.690922 
L 240.411079 272.890958 
L 240.549904 272.693797 
L 240.686253 271.7832 
L 240.889533 271.639246 
L 240.963149 271.171091 
L 241.153038 272.492683 
L 241.256699 270.991459 
L 241.459916 271.557172 
L 241.569769 270.447184 
L 241.735351 270.532341 
L 241.945713 269.299308 
L 242.01204 269.87522 
L 242.666219 267.519285 
L 242.801228 266.779975 
L 243.661458 269.580445 
L 243.833313 268.662845 
L 243.970019 268.812345 
L 244.246362 270.751236 
L 244.384267 270.867216 
L 244.726357 269.661427 
L 244.830292 270.254695 
L 244.967822 270.077851 
L 245.279348 270.836672 
L 245.37926 269.162686 
L 245.655132 268.479292 
L 245.963299 269.315752 
L 246.065656 271.106153 
L 246.277473 270.190992 
L 246.512575 270.898602 
L 246.718284 270.613944 
L 246.962628 274.031918 
L 247.099024 273.68633 
L 247.343564 272.652941 
L 247.510314 270.944071 
L 247.651935 270.946123 
L 247.785087 271.130324 
L 247.957788 269.832232 
L 248.063862 270.622704 
L 248.200899 270.215024 
L 248.643609 267.058993 
L 248.784592 267.149276 
L 248.921379 267.881041 
L 249.20344 268.114101 
L 249.501817 267.428329 
L 249.844551 265.746441 
L 250.358589 269.820488 
L 250.771055 270.855443 
L 250.915915 271.598938 
L 250.941878 272.633511 
L 251.218547 270.674544 
L 251.35475 270.927768 
L 251.526579 270.775225 
L 251.665465 270.26609 
L 251.871967 270.085296 
L 251.939428 270.917142 
L 252.043334 270.479073 
L 252.279719 270.668753 
L 252.351814 270.113999 
L 252.734873 272.207588 
L 252.935868 270.332463 
L 253.08466 270.155047 
L 253.184806 270.401619 
L 253.34399 271.110837 
L 253.635199 269.142232 
L 253.740396 269.318469 
L 253.975675 268.562472 
L 254.047559 269.077986 
L 254.321462 269.259848 
L 254.468568 268.587802 
L 254.597283 268.546969 
L 254.73409 267.746078 
L 254.90551 267.835672 
L 255.147453 268.556068 
L 255.2207 269.324123 
L 255.629033 270.433147 
L 256.04371 270.973172 
L 256.182354 270.563016 
L 256.597734 272.037792 
L 256.761378 271.518635 
L 257.016815 269.530798 
L 257.150084 269.327518 
L 257.591988 271.377287 
L 258.074317 270.279668 
L 258.145297 270.279004 
L 258.425847 268.964371 
L 258.591753 269.031534 
L 258.729743 269.683382 
L 259.277725 267.015772 
L 259.421813 265.134432 
L 259.725701 266.643028 
L 259.863866 268.491545 
L 260.001398 268.383986 
L 260.287164 266.772684 
L 260.414198 267.204834 
L 260.556053 268.365003 
L 260.722208 267.356454 
L 260.858696 268.614636 
L 260.997494 267.937353 
L 261.136212 268.860643 
L 261.273938 268.685053 
L 261.421852 267.832097 
L 261.551558 267.886086 
L 261.584117 267.330203 
L 261.859891 268.847586 
L 262.137633 270.401192 
L 262.42632 271.456574 
L 262.549536 270.960629 
L 262.704061 269.708474 
L 262.850677 270.193722 
L 262.996147 269.957398 
L 263.274366 268.192794 
L 263.414013 267.040987 
L 263.682855 268.636491 
L 263.821842 267.575717 
L 263.962952 267.559188 
L 264.106056 267.836353 
L 264.262577 267.870476 
L 264.407292 267.4828 
L 264.53842 268.352041 
L 264.677307 268.290204 
L 264.825212 268.496129 
L 265.099519 266.327192 
L 265.295403 266.58337 
L 265.400476 267.227831 
L 265.70777 267.626663 
L 265.847075 267.870277 
L 266.052687 268.688709 
L 266.124961 269.730953 
L 266.304768 269.302301 
L 266.377261 270.638177 
L 266.517954 270.205444 
L 266.712822 270.682422 
L 266.820844 270.348924 
L 266.953365 271.903526 
L 267.415183 269.288785 
L 267.515421 270.57011 
L 267.647668 270.518949 
L 267.814264 269.618794 
L 268.098427 270.311399 
L 268.536559 268.62243 
L 268.640757 269.290522 
L 268.812597 268.245578 
L 268.983675 265.637615 
L 269.122109 266.428298 
L 269.361287 265.852171 
L 269.673058 267.842028 
L 269.876318 268.956333 
L 270.015826 268.0051 
L 270.084885 270.118476 
L 270.220739 270.132719 
L 270.360541 271.23312 
L 270.529861 270.795796 
L 270.633929 271.787755 
L 271.080406 269.551635 
L 271.253773 269.015082 
L 271.388483 270.654028 
L 271.525519 268.984895 
L 271.945216 271.685435 
L 272.089195 271.451017 
L 272.521531 273.750459 
L 272.761329 273.926119 
L 273.071828 272.237833 
L 273.208993 272.136686 
L 273.489427 272.119441 
L 273.518893 271.786908 
L 273.826332 271.891373 
L 274.066715 269.139675 
L 274.480661 270.200487 
L 274.75878 270.743933 
L 274.960805 270.507774 
L 275.215498 270.422423 
L 275.235688 269.974485 
L 275.510392 270.280785 
L 275.682516 271.413271 
L 275.924007 270.74218 
L 276.077112 269.314356 
L 276.623368 267.816204 
L 276.784446 269.057498 
L 276.932324 269.09675 
L 277.068337 268.859108 
L 277.240972 268.174466 
L 277.515142 271.218577 
L 277.723108 271.139076 
L 277.755835 271.624927 
L 278.029798 273.418207 
L 278.041669 274.875346 
L 278.212533 273.788228 
L 278.385147 273.596498 
L 278.524674 273.139889 
L 278.624581 273.444321 
L 278.76492 271.874182 
L 278.943027 272.007786 
L 279.037513 272.334836 
L 279.212077 271.946151 
L 279.345949 270.505223 
L 279.585773 270.475658 
L 279.723544 270.86838 
L 279.828425 271.653155 
L 279.898583 270.799256 
L 280.033928 271.035976 
L 280.17117 271.829294 
L 280.516081 270.012228 
L 280.894242 267.928787 
L 281.328455 269.106683 
L 281.475595 269.279011 
L 281.609672 268.292501 
L 281.741885 268.569696 
L 282.05077 271.310838 
L 282.29098 271.541214 
L 282.359249 271.266353 
L 282.469453 271.925126 
L 282.568287 271.250447 
L 282.738661 271.897502 
L 283.01167 271.667844 
L 283.184545 271.846007 
L 283.321496 270.291326 
L 283.663902 268.760941 
L 283.802025 268.99056 
L 284.007513 267.585206 
L 284.149544 266.097404 
L 284.456367 268.301894 
L 284.592788 267.905293 
L 284.729644 268.797402 
L 284.867651 268.884936 
L 285.010283 270.396106 
L 285.313986 269.464507 
L 285.589893 271.153561 
L 285.865708 268.743991 
L 286.140676 267.755822 
L 286.307827 268.612031 
L 286.526629 267.226821 
L 286.69275 268.327696 
L 286.732269 269.451836 
L 286.964124 269.524912 
L 287.065276 267.912165 
L 287.413649 271.898681 
L 287.550442 270.852517 
L 287.686884 271.24048 
L 287.858191 272.423084 
L 288.138681 270.374938 
L 288.348557 269.491183 
L 288.410039 271.330477 
L 288.582873 270.515481 
L 288.685115 269.237945 
L 288.963431 269.64918 
L 288.993644 270.438379 
L 289.312093 268.313503 
L 289.512897 268.672419 
L 289.653828 269.310783 
L 289.681158 269.162908 
L 289.716862 271.205586 
L 289.851652 268.508021 
L 289.995263 269.183913 
L 290.163426 269.339831 
L 290.268786 269.261159 
L 290.404405 268.712875 
L 290.648071 269.385112 
L 290.712106 270.045014 
L 290.987435 268.052421 
L 291.125099 267.412071 
L 291.262402 267.935788 
L 291.67844 266.498155 
L 291.962595 269.227484 
L 292.12054 268.787971 
L 292.259285 269.105224 
L 292.396995 269.782366 
L 292.671187 269.110121 
L 292.98176 269.460444 
L 293.090039 271.4919 
L 293.397286 268.886352 
L 293.532956 269.061006 
L 293.810696 269.032008 
L 293.94491 268.287857 
L 294.22234 269.87393 
L 294.393342 269.456488 
L 294.529291 268.286999 
L 294.666756 269.855274 
L 294.8033 269.795122 
L 294.948116 269.409549 
L 295.476519 271.594526 
L 295.525977 270.874513 
L 295.679194 272.374173 
L 296.008837 270.735895 
L 296.077442 269.344284 
L 296.216849 270.010529 
L 296.457745 269.448279 
L 296.529866 270.245341 
L 296.697267 270.222176 
L 296.804276 270.432961 
L 297.110022 269.826846 
L 297.21587 269.889889 
L 297.5225 269.742194 
L 297.661472 269.291614 
L 297.796968 270.068666 
L 297.935193 269.264029 
L 298.392674 271.836302 
L 298.576146 271.211112 
L 298.930274 272.687369 
L 299.075948 272.326868 
L 299.205884 272.647073 
L 299.343035 272.327278 
L 299.582426 272.377681 
L 299.651246 270.949776 
L 299.821884 271.565151 
L 299.962782 271.060593 
L 300.338763 273.754412 
L 300.615631 274.377616 
L 300.786589 274.478295 
L 301.095538 274.033357 
L 301.677967 271.169557 
L 301.883835 270.768847 
L 302.090035 268.540951 
L 302.197738 268.517888 
L 302.345413 267.401837 
L 302.613282 266.831957 
L 302.748557 267.366591 
L 302.948801 266.835942 
L 303.090819 267.292352 
L 303.230338 266.856745 
L 303.32921 267.525866 
L 303.64276 268.904123 
L 304.053291 272.137334 
L 304.238981 271.50953 
L 304.368238 271.904629 
L 304.534398 270.617804 
L 304.878368 272.433011 
L 304.950474 271.990728 
L 305.05359 273.633337 
L 305.535058 272.096918 
L 305.742522 271.02352 
L 305.911998 271.985111 
L 306.051411 271.400307 
L 306.461381 268.940596 
L 306.633494 268.994826 
L 306.738423 270.231047 
L 306.94339 270.785886 
L 307.045086 271.389298 
L 307.389335 272.082555 
L 307.495549 271.283181 
L 307.845551 271.510376 
L 307.904511 270.436456 
L 308.042439 270.18083 
L 308.213224 270.135638 
L 308.320244 269.841017 
L 308.455315 269.794633 
L 308.730887 268.612608 
L 309.004443 269.575016 
L 309.144693 269.079522 
L 309.314357 269.322482 
L 309.450469 269.1896 
L 309.622547 268.023937 
L 309.730614 268.219773 
L 309.759232 271.798036 
L 309.965968 268.805237 
L 310.071817 269.948379 
L 310.173293 269.89028 
L 310.309646 269.651983 
L 310.457276 268.887768 
L 310.585912 269.87041 
L 310.826036 270.456955 
L 310.862967 269.3296 
L 311.101345 271.642156 
L 311.175966 270.894151 
L 311.307693 270.97373 
L 311.443583 270.054663 
L 311.615475 271.548844 
L 311.720194 269.830081 
L 311.992892 270.531178 
L 312.144949 270.3258 
L 312.273762 271.804404 
L 312.426028 271.412671 
L 312.702551 271.10795 
L 312.727649 271.795023 
L 313.183924 273.680961 
L 313.282474 274.515018 
L 313.507647 273.726042 
L 313.591261 274.472351 
L 313.830778 273.866675 
L 313.867772 272.287441 
L 314.043043 273.709128 
L 314.521825 269.95737 
L 314.559271 270.367771 
L 315.108083 268.788836 
L 315.278094 269.286617 
L 315.401687 268.115892 
L 315.604469 268.899272 
L 315.812037 268.92141 
L 315.858309 269.915533 
L 316.003315 267.935141 
L 316.155177 268.317857 
L 316.295024 267.84702 
L 316.468294 270.170675 
L 316.711783 268.715195 
L 316.978669 268.843567 
L 317.26194 267.741692 
L 317.425719 269.560939 
L 317.534588 268.787361 
L 317.699854 269.379374 
L 317.83884 267.601678 
L 318.010022 268.507387 
L 318.319185 271.132324 
L 318.661366 272.201743 
L 319.108795 274.215825 
L 319.245709 276.190097 
L 319.830332 270.35203 
L 319.966801 270.36271 
L 320.104237 270.68824 
L 320.248201 270.092682 
L 320.378707 270.68825 
L 320.659639 269.238582 
L 320.808001 269.691185 
L 320.940612 269.15473 
L 321.0779 269.20943 
L 321.248786 268.883563 
L 321.381969 269.56632 
L 321.520481 267.262324 
L 321.584597 267.430836 
L 321.796425 266.620466 
L 321.935143 267.493391 
L 322.072441 267.423097 
L 322.24128 268.050726 
L 322.517912 268.117518 
L 322.792812 267.463786 
L 322.986831 268.688637 
L 323.076482 270.017689 
L 323.220257 269.780375 
L 323.375142 268.46416 
L 323.516278 268.260776 
L 323.651646 267.343079 
L 323.787842 268.018063 
L 323.926142 267.717103 
L 324.062858 269.594105 
L 324.097019 273.047219 
L 324.208025 269.715018 
L 324.373305 270.091445 
L 324.646448 269.809776 
L 324.92183 270.880026 
L 325.067026 271.341003 
L 325.19667 271.131125 
L 325.339796 272.356277 
L 325.643596 270.63811 
L 325.781071 270.780907 
L 325.917727 271.507592 
L 326.055671 271.006207 
L 326.398665 268.452846 
L 326.613514 268.885094 
L 326.744371 267.646069 
L 326.950742 267.507345 
L 327.053303 269.083407 
L 327.326361 265.586385 
L 327.465887 265.765902 
L 327.619832 267.008457 
L 327.772301 266.157825 
L 327.932968 266.754272 
L 328.058489 265.746157 
L 328.218812 266.695289 
L 328.391035 266.141476 
L 328.597014 267.047234 
L 328.780685 269.001222 
L 328.909191 268.916283 
L 329.045725 268.275423 
L 329.252634 268.346336 
L 329.355391 269.218003 
L 329.499505 268.722195 
L 329.768689 269.96657 
L 329.9788 270.198037 
L 330.181466 268.400399 
L 330.353117 268.95166 
L 330.457638 268.593085 
L 330.593314 269.772012 
L 330.731314 269.290619 
L 330.91096 271.5364 
L 331.181239 270.430766 
L 331.493878 271.202385 
L 331.603025 272.161858 
L 331.765624 271.126957 
L 331.919393 271.301117 
L 332.038727 270.732892 
L 332.209324 270.902594 
L 332.375867 270.142853 
L 332.479137 270.491814 
L 332.590304 270.432053 
L 332.787863 270.463323 
L 332.862298 269.56854 
L 333.033598 270.157433 
L 333.304088 271.984875 
L 333.441612 272.099931 
L 333.855065 269.058518 
L 334.060642 269.570424 
L 334.162575 268.376857 
L 334.404298 268.266869 
L 334.543789 266.784869 
L 334.617119 267.141878 
L 334.748918 265.941872 
L 335.056548 265.904404 
L 335.178761 268.559972 
L 335.502866 267.985786 
L 335.744397 270.14895 
L 336.027586 269.664402 
L 336.315007 273.075262 
L 336.675343 271.647246 
L 336.754905 272.660255 
L 336.851699 272.220504 
L 336.984244 270.555789 
L 337.260994 270.357982 
L 337.467873 273.21634 
L 337.606794 272.517764 
L 337.711979 270.733594 
L 337.854066 270.402814 
L 338.269864 270.893031 
L 338.423775 270.248883 
L 338.507097 271.669247 
L 338.719302 269.331554 
L 338.853537 268.494521 
L 339.125825 270.470356 
L 339.33076 269.710527 
L 339.536712 271.129261 
L 339.674943 270.684455 
L 339.778907 273.335955 
L 339.846075 272.164758 
L 340.404276 273.665707 
L 340.567428 272.161445 
L 340.705038 272.552239 
L 340.843397 271.009785 
L 340.98072 271.54177 
L 341.119488 270.150796 
L 341.393867 270.823842 
L 341.495711 270.744922 
L 341.703087 269.188654 
L 341.924819 268.082191 
L 342.088435 268.291402 
L 342.201954 267.368726 
L 342.259775 267.845956 
L 342.432402 266.699198 
L 342.982853 269.414973 
L 343.153186 269.230359 
L 343.259925 270.175714 
L 343.394389 269.471962 
L 343.579992 269.834657 
L 343.747115 270.563467 
L 343.876443 271.662657 
L 344.118654 269.751851 
L 344.255435 269.53057 
L 344.428421 268.836222 
L 344.56559 270.100871 
L 344.668223 268.801745 
L 344.80382 269.528257 
L 345.011274 269.30021 
L 345.118188 270.116055 
L 345.280836 269.458631 
L 345.389338 269.9775 
L 345.663471 269.724071 
L 345.801362 271.710717 
L 345.93873 269.844703 
L 346.088612 270.557476 
L 346.385718 270.35554 
L 346.667832 268.241227 
L 346.953481 268.319764 
L 347.092623 268.954211 
L 347.355371 266.74011 
L 347.520083 267.395274 
L 347.725484 266.148655 
L 347.897812 266.309071 
L 347.995389 265.891671 
L 348.034965 268.384177 
L 348.104224 268.099513 
L 348.241963 267.921237 
L 348.415274 268.389627 
L 348.516244 270.254381 
L 348.688619 269.776365 
L 348.792062 268.569047 
L 348.963311 267.877338 
L 349.204604 270.036046 
L 349.376775 268.750912 
L 349.755374 268.780094 
L 349.892717 268.50709 
L 350.078666 268.897622 
L 350.41098 272.952667 
L 350.650339 268.737135 
L 350.784583 269.530746 
L 350.92218 269.227363 
L 351.061287 269.278514 
L 351.23203 268.908224 
L 351.406865 268.877823 
L 351.506425 267.772648 
L 351.642798 268.6058 
L 351.888327 268.533206 
L 352.15975 269.101081 
L 352.330226 268.189855 
L 352.440341 268.503305 
L 352.606606 268.221533 
L 352.781827 267.185168 
L 352.918642 267.8484 
L 353.194114 266.51588 
L 353.533339 267.743433 
L 353.847781 269.098101 
L 353.946363 269.502081 
L 354.185657 269.614861 
L 354.294079 270.368029 
L 354.356526 268.768131 
L 354.493674 268.187764 
L 354.665542 269.157638 
L 354.77566 270.679349 
L 355.031165 270.524141 
L 355.186912 268.322741 
L 355.39094 268.553519 
L 355.63378 267.301763 
L 355.771037 268.776653 
L 355.943774 269.165807 
L 356.183341 266.811047 
L 356.325406 267.304699 
L 356.597617 266.616199 
L 356.747701 265.102685 
L 357.045016 267.002595 
L 357.199908 266.62467 
L 357.322201 267.120873 
L 357.595743 268.588419 
L 357.734507 267.575226 
L 358.178282 271.496149 
L 358.316297 270.089274 
L 358.453093 270.225649 
L 358.625023 268.184599 
L 358.72827 268.354243 
L 358.876788 267.322499 
L 359.039927 267.469454 
L 359.222506 268.479272 
L 359.344387 267.589228 
L 359.448066 268.793332 
L 359.724219 268.574366 
L 359.756355 270.1412 
L 359.894683 270.373692 
L 360.067122 271.928632 
L 360.274254 271.384518 
L 360.312017 272.105181 
L 361.33754 266.95603 
L 361.484838 267.616237 
L 361.612287 267.614727 
L 362.166145 269.699758 
L 362.338452 269.936282 
L 362.441417 269.777154 
L 362.578906 270.655084 
L 362.887103 270.40722 
L 363.05904 271.294414 
L 363.200427 270.428699 
L 363.309443 270.508376 
L 363.544695 270.012665 
L 363.715691 270.561286 
L 363.85154 271.659798 
L 364.22991 270.89988 
L 364.264521 270.063461 
L 364.434876 270.523272 
L 364.714393 269.992397 
L 364.848873 271.069679 
L 364.983665 269.849005 
L 365.163401 269.478418 
L 365.258788 268.739734 
L 365.403413 270.434891 
L 365.574536 270.410578 
L 365.741267 270.975315 
L 365.843935 270.466405 
L 366.014912 271.324859 
L 366.325968 269.973066 
L 366.570244 270.10626 
L 366.702941 270.853022 
L 366.840349 270.134493 
L 367.046039 269.858314 
L 367.290929 269.433943 
L 367.733131 269.133971 
L 367.835796 269.520112 
L 367.976048 270.794206 
L 368.111921 269.966979 
L 368.42089 269.745179 
L 368.556924 269.868913 
L 368.832802 268.262646 
L 369.284847 270.353529 
L 369.622964 270.243435 
L 369.830195 268.930035 
L 370.003616 270.38527 
L 370.173874 270.312053 
L 370.275561 269.851725 
L 370.552718 269.70541 
L 370.824004 268.135755 
L 371.099575 270.744815 
L 371.34312 271.026003 
L 371.40867 269.138105 
L 371.6699 271.808297 
L 371.959201 271.065977 
L 372.131368 272.892364 
L 372.233726 272.651507 
L 372.388157 271.485617 
L 372.507392 271.474974 
L 372.798412 270.915269 
L 372.955012 269.862105 
L 373.091434 270.078787 
L 373.331662 269.975387 
L 373.643662 268.757085 
L 373.785385 269.451969 
L 373.951917 269.626941 
L 374.262642 271.748684 
L 374.388087 271.778775 
L 374.675624 270.925479 
L 374.781447 271.894188 
L 374.948383 271.554544 
L 375.066088 270.974492 
L 375.223791 271.967051 
L 375.498499 269.394265 
L 375.670054 269.881547 
L 376.023845 271.586751 
L 376.18617 271.996091 
L 376.219702 270.50384 
L 376.358847 271.267578 
L 376.495341 271.077371 
L 376.632174 269.613831 
L 376.770415 270.744747 
L 376.907051 270.860888 
L 377.055056 270.377189 
L 377.217719 268.872714 
L 377.354644 269.119895 
L 377.493835 268.616634 
L 377.711143 271.020536 
L 377.80127 269.389489 
L 377.94293 270.096492 
L 378.154727 270.563504 
L 378.453179 269.569827 
L 378.495596 270.415808 
L 378.801878 271.291239 
L 379.040319 270.152015 
L 379.210445 271.956286 
L 379.348707 271.544389 
L 379.520318 271.77632 
L 379.627985 271.561578 
L 379.762132 272.049585 
L 380.104358 270.64277 
L 380.244963 271.393432 
L 380.623071 268.944098 
L 380.829456 268.74389 
L 381.034556 270.071633 
L 381.350942 271.596166 
L 381.48962 271.177865 
L 381.659136 269.772542 
L 381.761495 271.659926 
L 382.03316 272.47722 
L 382.067146 271.786159 
L 382.193404 271.767232 
L 382.452787 271.294259 
L 382.759189 267.554404 
L 383.04374 270.154515 
L 383.319479 267.255179 
L 383.492947 265.540502 
L 383.596673 266.67211 
L 383.781853 265.40985 
L 383.905274 265.920225 
L 384.177564 268.006852 
L 384.555704 265.374602 
L 384.589642 267.185779 
L 384.899382 270.918476 
L 385.005409 269.959944 
L 385.314208 271.588656 
L 385.461572 271.219019 
L 385.600057 270.229047 
L 385.725356 270.959731 
L 385.898754 271.260068 
L 386.173924 268.64101 
L 386.622594 270.938862 
L 386.796377 269.411377 
L 386.89954 269.632577 
L 387.311631 268.374549 
L 387.346692 271.26795 
L 387.451795 268.524361 
L 387.589188 268.809164 
L 387.730714 267.104314 
L 387.862003 267.024344 
L 388.039793 267.049567 
L 388.143873 268.287758 
L 388.307415 266.607065 
L 388.413599 266.85157 
L 388.446631 267.971623 
L 388.585188 267.71628 
L 388.864026 269.653845 
L 389.012405 269.65871 
L 389.138278 271.587588 
L 389.31057 271.005322 
L 389.567716 267.395835 
L 389.584617 269.143393 
L 389.860015 271.18512 
L 390.000294 270.69913 
L 390.137371 270.929509 
L 390.273611 270.127314 
L 390.49029 270.792454 
L 390.584804 269.09558 
L 390.755875 269.534932 
L 390.997899 271.769462 
L 391.35606 271.022522 
L 391.382191 269.971505 
L 391.422438 271.729684 
L 391.552567 270.098514 
L 391.695689 270.141506 
L 391.83293 269.377764 
L 391.971887 269.817826 
L 392.107274 269.541792 
L 392.278346 269.902216 
L 392.554185 268.314729 
L 392.691957 268.188723 
L 393.069528 269.971464 
L 393.137352 269.924348 
L 393.419098 270.064573 
L 393.686839 268.343759 
L 393.861291 269.026079 
L 393.962299 270.172175 
L 394.272794 268.332511 
L 394.409796 268.505812 
L 394.617227 268.893575 
L 394.692923 269.409074 
L 394.822671 268.559949 
L 394.95882 269.755412 
L 395.274594 269.646671 
L 395.406415 268.985115 
L 395.58022 269.544615 
L 395.801819 268.977779 
L 395.956055 267.281459 
L 396.238864 268.000632 
L 396.378439 267.670493 
L 396.577354 268.090809 
L 396.883167 266.521394 
L 397.40186 270.62541 
L 397.50664 270.720987 
L 397.838608 271.8149 
L 397.988689 271.773333 
L 398.158029 272.092523 
L 398.23097 273.323743 
L 398.471265 272.154553 
L 398.51723 271.12721 
L 398.680174 270.418926 
L 398.879999 270.857468 
L 399.087616 270.267598 
L 399.228123 269.88592 
L 399.363618 269.028358 
L 399.503597 269.697771 
L 399.969297 268.764193 
L 400.153499 269.256224 
L 400.222187 267.672525 
L 400.363432 268.255114 
L 400.529019 267.587643 
L 400.632978 267.750006 
L 400.801334 268.403914 
L 401.081773 267.106519 
L 401.109727 270.737566 
L 401.249775 267.606425 
L 401.491813 267.813195 
L 401.625116 267.021301 
L 401.663604 268.861777 
L 401.800486 268.557859 
L 401.941575 270.807219 
L 402.072545 270.968758 
L 402.24354 269.748086 
L 402.725714 271.215571 
L 403.001057 270.782226 
L 403.069599 271.416449 
L 403.206947 271.610899 
L 403.484175 269.512233 
L 404.067728 271.071256 
L 404.411923 273.184291 
L 404.483543 271.792459 
L 404.622246 272.032774 
L 404.823733 271.861519 
L 405.063762 272.058576 
L 405.27048 271.659915 
L 405.896668 268.528955 
L 406.011651 269.251248 
L 406.072825 268.992552 
L 406.238906 269.134259 
L 406.342195 269.033672 
L 406.479578 269.7718 
L 406.618437 268.503562 
L 406.823381 269.159666 
L 406.961405 268.443693 
L 407.338754 270.67419 
L 407.626734 269.326995 
L 407.753134 270.086342 
L 408.059974 270.354811 
L 408.168885 271.701133 
L 408.197435 270.480059 
L 408.339076 270.834074 
L 408.471824 271.874741 
L 408.888863 270.465907 
L 409.093206 268.433295 
L 409.299161 268.583248 
L 409.519204 266.887193 
L 409.775206 269.337392 
L 409.79433 268.983227 
L 409.902724 268.696381 
L 410.276902 269.717027 
L 410.345404 270.454529 
L 410.482353 270.316621 
L 410.586457 269.435173 
L 410.727612 270.514287 
L 411.031946 270.327649 
L 411.186608 269.170112 
L 411.305956 269.342478 
L 411.581611 268.863134 
L 412.028365 270.896907 
L 412.164696 270.827427 
L 412.307063 271.547169 
L 412.616459 270.498221 
L 412.721292 270.217448 
L 412.856518 269.255167 
L 413.303773 270.070541 
L 413.579402 269.183888 
L 413.715931 267.435804 
L 413.887624 268.620278 
L 414.001323 271.192303 
L 414.030937 269.97438 
L 414.1648 270.137382 
L 414.299777 271.647964 
L 414.578045 271.530725 
L 414.764977 271.708476 
L 414.922879 271.466642 
L 415.102644 270.730201 
L 415.126621 270.066954 
L 415.165404 271.2593 
L 415.43948 271.382986 
L 415.575664 272.010316 
L 415.850037 271.031194 
L 416.159787 271.621722 
L 416.29447 272.269505 
L 416.440124 273.598432 
L 416.639106 273.715459 
L 416.880907 271.685842 
L 417.086421 271.642963 
L 417.261171 270.089799 
L 417.398899 270.472356 
L 417.567155 271.50694 
L 417.842903 271.30773 
L 417.980487 270.413399 
L 418.150317 271.45499 
L 418.425561 270.908231 
L 418.645203 271.431838 
L 418.95376 270.074705 
L 418.976378 268.959946 
L 419.115989 268.749745 
L 419.28515 269.15158 
L 419.389194 270.837314 
L 419.56186 271.120682 
L 419.698527 270.58978 
L 419.83689 271.481779 
L 420.006702 271.075636 
L 420.247092 273.470004 
L 420.420767 272.323886 
L 420.693029 272.639839 
L 420.774203 274.397143 
L 420.832385 273.764467 
L 421.003571 273.032648 
L 421.112158 273.110599 
L 421.248676 272.558117 
L 421.416127 273.186407 
L 421.553064 272.76481 
L 421.689191 271.734852 
L 421.827414 272.438482 
L 421.966547 272.218012 
L 422.242882 269.500134 
L 422.376155 269.858736 
L 422.597029 271.241312 
L 422.852541 272.135076 
L 422.865293 270.622204 
L 423.110805 272.763175 
L 423.242934 272.824334 
L 423.383585 273.198611 
L 423.520674 274.280226 
L 423.659537 273.850858 
L 423.88168 273.846406 
L 424.076705 273.242587 
L 424.243683 273.052494 
L 424.380279 272.294986 
L 424.556409 272.715844 
L 424.658779 271.743079 
L 424.79686 271.538844 
L 424.967553 271.824476 
L 425.103549 271.606704 
L 425.344986 272.664698 
L 425.551297 271.768893 
L 425.698784 271.890326 
L 425.968749 270.098354 
L 426.068279 271.993617 
L 426.20518 272.329123 
L 426.346827 273.199175 
L 426.514903 272.934205 
L 426.651405 271.851047 
L 426.822237 272.025084 
L 426.974415 271.789182 
L 427.208555 273.315749 
L 427.376286 273.890629 
L 427.684353 273.532843 
L 427.787192 271.9441 
L 427.922383 272.728172 
L 428.094196 274.703577 
L 428.471627 273.871973 
L 428.685372 273.689672 
L 429.102949 271.986215 
L 429.302977 272.740591 
L 429.508775 271.727751 
L 429.989401 272.550046 
L 430.059315 273.123177 
L 430.229962 273.186785 
L 430.332851 273.976163 
L 430.47208 273.440412 
L 430.607971 273.69289 
L 430.881254 273.602846 
L 430.985107 272.445056 
L 431.05343 272.692765 
L 431.352458 270.577343 
L 431.470526 270.330655 
L 431.638638 270.405626 
L 431.764912 270.810614 
L 432.05031 272.942836 
L 432.189259 272.867869 
L 432.32874 273.959845 
L 432.670193 273.237247 
L 432.775161 273.150209 
L 432.879707 273.829317 
L 432.911199 273.214314 
L 433.047418 274.623208 
L 433.185473 274.283349 
L 433.327568 272.791786 
L 433.505493 272.395425 
L 433.776964 271.115913 
L 433.806724 270.215467 
L 434.022015 270.939287 
L 434.323757 270.770427 
L 434.504336 269.968501 
L 434.786703 271.477762 
L 434.923325 271.276983 
L 435.029233 272.507639 
L 435.301454 271.24779 
L 435.47713 271.301046 
L 435.611024 270.688647 
L 435.900944 270.750489 
L 436.035307 269.850428 
L 436.270255 270.449895 
L 436.298011 270.353616 
L 436.435343 270.022007 
L 436.64214 270.155624 
L 437.057047 272.231242 
L 437.161152 271.162812 
L 437.439154 271.831631 
L 437.674977 269.372132 
L 437.746309 269.895475 
L 438.155175 268.384588 
L 438.267877 268.462201 
L 438.294222 266.392857 
L 438.57505 267.851236 
L 438.849507 267.198023 
L 439.016001 268.120988 
L 439.156927 268.225466 
L 439.427338 271.624736 
L 439.739164 270.626426 
L 439.876317 269.938498 
L 440.164885 270.010047 
L 440.286717 270.427925 
L 440.434018 270.303214 
L 440.633263 268.622232 
L 440.850857 266.250738 
L 441.054984 267.061591 
L 441.284559 269.239461 
L 441.421455 268.024533 
L 441.559614 268.254978 
L 442.144513 270.74044 
L 442.318297 270.542858 
L 442.556474 268.799642 
L 442.734797 267.738212 
L 442.866665 268.987707 
L 442.898164 268.103331 
L 443.003252 268.83219 
L 443.105501 268.687038 
L 443.277105 267.917386 
L 443.58732 268.946815 
L 443.689969 268.873651 
L 443.965128 270.79322 
L 444.136114 271.997478 
L 444.409424 270.716928 
L 444.547845 271.113841 
L 444.685829 272.132743 
L 444.960373 270.728867 
L 445.21086 270.373354 
L 445.268723 270.570588 
L 445.409034 270.193514 
L 445.72889 268.336266 
L 445.920344 268.868607 
L 446.096063 267.287265 
L 446.26587 268.24516 
L 446.401806 268.138297 
L 446.676895 266.601796 
L 446.823498 267.77199 
L 446.989945 267.373586 
L 447.303192 267.958615 
L 447.4083 268.985054 
L 447.680814 267.704897 
L 447.922638 267.842448 
L 448.130394 268.802111 
L 448.374182 267.908248 
L 448.543832 267.915518 
L 448.691241 268.43254 
L 448.850555 267.345014 
L 448.954965 267.55089 
L 449.092321 268.470948 
L 449.368772 267.976542 
L 449.437336 268.504978 
L 449.539673 268.394219 
L 449.780325 268.848403 
L 449.985743 270.57507 
L 450.192816 271.079199 
L 450.231397 270.970316 
L 450.513003 272.554855 
L 450.644413 272.361067 
L 450.810839 271.827325 
L 450.948356 271.964471 
L 451.085681 271.541045 
L 451.225901 271.596806 
L 451.363822 272.016817 
L 451.535215 271.564019 
L 451.638078 272.85258 
L 451.976572 270.774241 
L 452.226987 272.114397 
L 452.765833 268.779223 
L 453.116117 265.792888 
L 453.245941 266.579282 
L 453.664873 265.105356 
L 453.932451 266.018495 
L 454.354037 268.528827 
L 454.516724 267.946673 
L 454.654496 267.944209 
L 454.900704 269.412887 
L 455.068503 270.239318 
L 455.205743 269.750471 
L 455.343708 271.187504 
L 455.48282 270.585396 
L 455.719936 270.651015 
L 455.789508 270.102088 
L 456.098174 271.036861 
L 456.338507 269.184241 
L 456.536056 269.488079 
L 456.616133 269.297995 
L 456.762324 269.383947 
L 456.981579 268.860038 
L 457.05282 268.94652 
L 457.083639 270.892561 
L 457.484976 271.966413 
L 457.606862 273.160706 
L 457.779763 273.450906 
L 458.225101 270.334748 
L 458.331389 270.810468 
L 458.536268 269.246644 
L 458.609354 268.566013 
L 458.983181 267.246437 
L 459.049807 266.57213 
L 459.189074 267.621927 
L 459.323915 266.713886 
L 459.462589 268.092219 
L 459.601013 268.185306 
L 459.879688 268.687119 
L 460.187812 270.625746 
L 460.321651 270.005249 
L 460.462312 270.446696 
L 460.595012 269.552119 
L 460.735854 269.569788 
L 460.872281 269.25347 
L 461.041286 269.721949 
L 461.181358 269.008758 
L 461.317493 268.904689 
L 461.453932 269.07794 
L 461.591738 268.955346 
L 461.879188 269.424771 
L 462.004878 268.576367 
L 462.181429 268.593491 
L 462.312557 269.902014 
L 462.452672 269.630477 
L 462.589006 269.868852 
L 462.72608 269.4 
L 462.862587 268.456181 
L 463.010375 269.134674 
L 463.276627 268.897458 
L 463.584466 270.719719 
L 463.720647 269.968368 
L 463.858676 270.491918 
L 463.999224 270.065635 
L 464.272785 270.331138 
L 464.443305 268.9203 
L 464.583718 269.223423 
L 464.722238 269.095784 
L 464.854979 269.346614 
L 464.993696 268.875584 
L 465.131078 269.007143 
L 465.272145 268.89889 
L 465.408202 269.421413 
L 465.58185 268.455475 
L 465.717145 268.443996 
L 465.859295 269.638566 
L 465.996733 269.822368 
L 466.308383 268.4603 
L 466.336986 271.340093 
L 466.474583 269.043618 
L 466.684026 268.754939 
L 467.025459 268.040486 
L 467.129259 269.022201 
L 467.487061 267.662036 
L 467.54871 268.731512 
L 467.71272 269.143394 
L 467.850368 268.924948 
L 467.989101 269.21296 
L 468.422696 268.581973 
L 468.435121 267.353287 
L 468.57066 269.745558 
L 468.750213 267.726125 
L 468.924057 267.38862 
L 469.053996 266.586227 
L 469.120782 266.867359 
L 469.258128 266.605429 
L 469.394286 266.804635 
L 469.565643 268.126579 
L 469.670629 268.015733 
L 469.979797 268.932852 
L 470.115727 272.0519 
L 470.288682 272.509637 
L 470.391743 271.712906 
L 470.531616 271.790603 
L 470.768631 272.395489 
L 471.009547 271.776556 
L 471.218456 273.349678 
L 471.354878 274.788111 
L 471.524093 273.153515 
L 471.664322 273.323897 
L 471.833477 273.712933 
L 472.005217 273.76422 
L 472.109027 272.82877 
L 472.35442 273.956207 
L 472.540881 270.308432 
L 472.660909 270.389202 
L 473.359368 267.890325 
L 473.520413 266.843558 
L 473.763217 265.087453 
L 473.8298 266.388514 
L 473.980336 266.846043 
L 474.244398 265.651203 
L 474.429024 265.842896 
L 474.55169 266.515431 
L 474.727352 266.714111 
L 474.792524 266.461067 
L 475.034938 267.670101 
L 475.070962 269.524055 
L 475.376843 268.565286 
L 475.513639 268.674166 
L 475.653399 270.313253 
L 475.831622 270.163485 
L 476.099056 269.439147 
L 476.203182 271.038879 
L 476.786553 268.009937 
L 476.959176 267.813144 
L 477.107177 265.893666 
L 477.474837 267.172102 
L 477.61433 267.304132 
L 477.782813 265.934212 
L 477.819571 266.220387 
L 478.229159 267.919329 
L 478.504148 269.056153 
L 478.663482 269.191673 
L 479.020731 271.651063 
L 479.092416 273.415737 
L 479.194888 273.258183 
L 479.501034 274.773927 
L 479.639121 273.980376 
L 479.879127 273.760907 
L 479.948654 274.359553 
L 480.18848 271.643156 
L 480.671041 268.491885 
L 480.773545 268.381491 
L 480.9111 267.601611 
L 481.776754 272.623003 
L 481.983164 272.415279 
L 482.049686 272.570925 
L 482.222746 271.137487 
L 482.426972 271.725515 
L 482.606383 270.749376 
L 482.632944 268.883577 
L 482.771667 267.351866 
L 482.948229 266.803555 
L 483.148744 266.694141 
L 483.189691 266.110297 
L 483.32359 268.810131 
L 483.460548 268.917862 
L 483.905983 270.437887 
L 484.181887 272.125279 
L 484.334142 273.619891 
L 484.730984 272.087144 
L 484.941155 272.244477 
L 485.179229 274.089982 
L 485.454339 273.711974 
L 485.486545 274.002812 
L 485.590474 272.956166 
L 485.729782 274.308649 
L 485.865239 274.254807 
L 486.032854 275.729103 
L 486.168779 274.695252 
L 486.309178 274.507924 
L 486.453119 273.88514 
L 486.582335 273.845323 
L 486.889453 271.032483 
L 487.025919 272.426846 
L 487.163737 271.797845 
L 487.300108 272.185249 
L 487.439799 270.29272 
L 487.574449 272.060366 
L 487.857773 271.358944 
L 488.020548 269.797503 
L 488.157915 270.219786 
L 488.295507 271.286519 
L 488.569553 267.528557 
L 488.708565 267.451067 
L 488.847602 268.080904 
L 488.990188 266.497732 
L 489.156424 266.349185 
L 489.429082 267.203241 
L 489.704324 266.892945 
L 489.846532 267.656961 
L 490.151441 267.088501 
L 490.288345 268.402099 
L 490.426978 268.093974 
L 490.843284 269.350496 
L 491.194447 268.539935 
L 491.697584 270.452597 
L 491.835397 269.928383 
L 491.975336 270.541903 
L 492.00796 266.883555 
L 492.145345 269.102305 
L 492.316313 269.460493 
L 492.420262 270.288623 
L 492.5576 270.484451 
L 492.766583 271.059371 
L 492.976321 269.474506 
L 493.140772 268.539174 
L 493.308623 268.293142 
L 493.521087 268.240895 
L 493.622838 268.941662 
L 493.898641 268.147084 
L 493.999976 268.867874 
L 494.13767 267.919205 
L 494.274146 267.888495 
L 494.380513 267.318617 
L 494.558405 267.700728 
L 494.826152 269.791612 
L 495.496816 271.47952 
L 495.563886 272.705471 
L 495.736471 272.315902 
L 495.977158 273.401594 
L 496.974041 267.786143 
L 497.660414 272.168664 
L 497.830872 271.524622 
L 498.725107 275.243746 
L 498.966044 271.807459 
L 499.105312 271.51358 
L 499.272991 272.045695 
L 499.381987 271.413284 
L 499.721835 271.037303 
L 499.824432 270.754432 
L 499.963661 271.510394 
L 500.137636 270.335984 
L 500.251679 270.820353 
L 500.372596 270.486838 
L 500.524841 270.655394 
L 500.66486 269.681319 
L 500.872026 270.947042 
L 501.385666 266.190277 
L 501.665891 267.998668 
L 501.799104 269.003303 
L 502.008079 268.382194 
L 502.150252 269.720255 
L 502.24706 268.504003 
L 502.934037 272.156821 
L 503.010037 271.928699 
L 503.208946 268.784627 
L 503.41887 268.692834 
L 503.519385 268.504893 
L 503.65886 270.215234 
L 503.796308 269.356812 
L 504.007322 270.524814 
L 504.103049 269.098654 
L 504.359536 268.857345 
L 504.622043 270.432933 
L 504.863479 271.175581 
L 504.950767 270.206706 
L 505.176929 270.460452 
L 505.263528 270.832288 
L 505.486146 270.529057 
L 505.63261 270.797552 
L 505.894679 269.947945 
L 505.928916 270.410814 
L 506.169015 270.133718 
L 506.256718 270.363195 
L 506.341303 271.254215 
L 506.481667 270.214657 
L 506.620973 270.58145 
L 506.790334 269.397358 
L 506.965438 272.017247 
L 507.066556 271.024396 
L 507.186096 271.546453 
L 507.346712 271.262572 
L 507.628205 272.654551 
L 507.788232 270.872085 
L 507.966788 271.861094 
L 508.068345 271.208253 
L 508.200898 271.868763 
L 508.35168 270.341842 
L 508.645703 271.215456 
L 508.806268 270.500962 
L 508.944181 269.371929 
L 509.206327 271.958483 
L 509.342026 270.125649 
L 509.618764 271.098055 
L 509.786147 271.596667 
L 510.372234 270.390001 
L 510.646968 268.706729 
L 510.852911 268.456092 
L 510.920773 268.756224 
L 511.027071 270.120834 
L 511.269773 268.504694 
L 511.336413 269.287117 
L 511.78179 271.24219 
L 511.883356 272.642287 
L 512.192768 273.421025 
L 512.434162 272.979279 
L 512.611313 271.351946 
L 512.709645 271.726492 
L 513.433393 266.541578 
L 513.570139 266.814532 
L 513.602604 267.803874 
L 513.919286 266.499313 
L 514.018123 266.964778 
L 514.188275 266.148513 
L 514.32662 266.075131 
L 514.635183 268.717133 
L 514.771992 269.34675 
L 514.882178 270.680978 
L 515.049789 271.093998 
L 515.195388 270.835593 
L 515.362131 270.889756 
L 515.562659 269.713138 
L 515.905273 271.610869 
L 516.215085 271.567157 
L 516.526831 269.041699 
L 516.672324 268.712162 
L 516.834464 269.013814 
L 517.142045 269.091458 
L 517.28143 268.790427 
L 517.467933 268.777414 
L 517.702094 270.29518 
L 517.86595 270.491904 
L 518.140032 272.061789 
L 518.278406 272.40714 
L 518.416515 273.366421 
L 518.851979 273.358292 
L 518.867079 274.392436 
L 519.13648 272.833925 
L 519.354556 272.564711 
L 519.416459 271.341823 
L 519.550019 271.751044 
L 519.686491 271.781823 
L 519.85876 270.447601 
L 519.966109 270.807588 
L 520.137684 270.276491 
L 520.270376 270.962303 
L 520.408702 270.420639 
L 520.545705 270.490205 
L 520.688769 269.714559 
L 520.823251 270.872258 
L 520.959947 270.578769 
L 521.135756 271.017914 
L 521.404477 270.780937 
L 521.516754 269.965226 
L 521.542497 270.10083 
L 521.611925 270.154719 
L 521.852404 268.250379 
L 522.024423 269.264359 
L 522.126188 269.244607 
L 522.298206 269.751211 
L 522.401892 268.470288 
L 522.543627 268.139889 
L 522.812584 268.415004 
L 522.847852 268.260346 
L 522.985388 268.646327 
L 523.156666 267.880647 
L 523.263898 268.531992 
L 523.408081 266.877796 
L 523.545258 266.718363 
L 523.723882 265.780204 
L 523.890971 266.162333 
L 523.99693 265.809737 
L 524.099201 266.864714 
L 524.269927 266.937866 
L 524.645563 268.023532 
L 524.752001 267.822321 
L 524.821528 269.057492 
L 525.441792 271.23638 
L 525.545188 270.31127 
L 525.759724 270.306786 
L 525.954989 270.526356 
L 526.145565 270.550071 
L 526.263902 270.13942 
L 526.402971 270.381607 
L 526.79155 268.533069 
L 527.064734 268.2244 
L 527.208462 268.551133 
L 527.243433 269.307275 
L 527.441918 269.199138 
L 527.648451 270.287993 
L 527.94194 269.898311 
L 528.060962 270.163164 
L 528.094249 271.231375 
L 528.235421 270.109457 
L 528.394073 270.993279 
L 528.65322 268.850334 
L 528.996594 268.567819 
L 529.24512 267.855507 
L 529.369992 268.310298 
L 529.541458 267.818546 
L 529.679629 268.786608 
L 529.819806 267.458351 
L 529.925357 268.743033 
L 530.092905 268.934214 
L 530.314889 268.152477 
L 530.370066 268.574493 
L 530.511164 268.562375 
L 530.816746 270.702749 
L 531.055235 271.154699 
L 531.194248 270.118164 
L 531.266204 271.244627 
L 531.502965 269.18283 
L 531.673209 269.506443 
L 531.937778 268.425606 
L 532.156569 267.266069 
L 532.223634 267.590817 
L 532.325874 267.331308 
L 532.500039 268.576293 
L 532.636162 268.691865 
L 533.050216 271.60881 
L 533.355638 270.632238 
L 533.528017 269.573599 
L 533.632532 269.6337 
L 533.816198 269.325412 
L 533.964038 270.016781 
L 533.976761 268.358001 
L 534.079902 268.544671 
L 534.191967 268.968581 
L 534.355286 268.323155 
L 534.57047 268.304633 
L 534.909544 270.563757 
L 535.047079 270.564254 
L 535.179091 270.409776 
L 535.315272 269.403441 
L 535.556654 270.151227 
L 535.663811 268.570804 
L 535.899335 269.806955 
L 536.037082 268.410862 
L 536.277453 268.487316 
L 536.312459 269.432895 
L 536.454755 268.993138 
L 536.656075 269.041308 
L 536.80397 270.214776 
L 536.914006 270.070418 
L 537.045558 270.560403 
L 537.196618 269.859944 
L 537.310628 269.92782 
L 537.461088 270.984394 
L 537.654215 271.089465 
L 537.759619 271.599879 
L 537.897726 271.506382 
L 538.031168 272.023044 
L 538.23781 271.559277 
L 538.384947 271.805813 
L 538.580866 273.259291 
L 538.761116 272.711162 
L 538.890908 272.962056 
L 539.01222 274.57278 
L 539.302681 273.300931 
L 539.507934 273.286409 
L 539.781935 273.842034 
L 539.954464 274.03439 
L 540.024606 272.629037 
L 540.161196 272.923866 
L 540.436317 270.363846 
L 540.60856 270.714314 
L 540.727935 269.786072 
L 540.883368 269.487212 
L 541.020552 268.568532 
L 541.158525 269.409915 
L 541.294996 269.042899 
L 541.432934 269.229168 
L 541.574619 268.594767 
L 541.776627 269.720817 
L 541.880812 269.28022 
L 542.285872 269.683435 
L 542.401782 269.397733 
L 542.601403 267.486785 
L 542.825883 267.446754 
L 542.982045 268.895784 
L 543.151809 268.651435 
L 543.323347 267.399537 
L 543.426373 268.888982 
L 543.564535 269.00815 
L 543.839417 270.745963 
L 544.011492 270.937286 
L 544.115178 269.551484 
L 544.287829 270.009774 
L 544.493363 271.167455 
L 544.633722 270.916375 
L 544.706435 271.462144 
L 544.939952 271.559471 
L 545.042649 272.702252 
L 545.146085 271.996473 
L 545.321624 272.231715 
L 545.454485 271.992587 
L 545.563932 272.544079 
L 545.904745 270.637866 
L 545.972595 270.751908 
L 546.314475 269.518723 
L 546.417011 269.079386 
L 546.691622 269.159321 
L 546.971601 270.487213 
L 547.284923 269.281974 
L 547.485351 269.516166 
L 547.619239 270.338772 
L 547.756626 270.372558 
L 547.894643 268.911217 
L 547.99764 268.934639 
L 548.134898 269.242308 
L 548.68467 274.641705 
L 548.936529 275.387493 
L 548.95976 276.024181 
L 549.102328 275.838494 
L 549.248454 277.92 
L 549.544214 277.287412 
L 549.683689 274.945969 
L 550.438009 271.939539 
L 550.540127 271.770918 
L 550.856087 270.274203 
L 550.954447 270.667172 
L 551.089575 270.572613 
L 551.41708 268.109706 
L 551.675479 268.181268 
L 551.81156 268.578779 
L 551.98427 268.650468 
L 552.086606 268.862132 
L 552.257806 268.655983 
L 553.099418 272.734349 
L 553.236513 271.752234 
L 553.381913 271.889283 
L 553.514247 271.717724 
L 553.720735 272.571758 
L 553.826518 271.234679 
L 554.001016 271.441242 
L 554.081827 270.130349 
L 554.376514 270.657656 
L 554.514485 269.689996 
L 555.373999 274.133167 
L 555.481138 274.248744 
L 555.648854 272.603043 
L 555.792366 272.719254 
L 556.643588 269.926597 
L 556.785466 269.997097 
L 556.919986 270.221631 
L 557.062329 270.717888 
L 557.200907 269.784103 
L 557.341813 269.944667 
L 557.506863 270.749103 
L 557.643623 270.174631 
L 557.916716 270.045068 
L 558.056687 270.4206 
L 558.226857 269.211096 
L 558.329763 269.811159 
L 558.472108 271.633365 
L 558.608517 270.735213 
L 558.777321 271.442622 
L 558.922104 270.294492 
L 559.242735 270.175845 
L 559.51634 268.085766 
L 559.640933 268.888235 
L 559.765605 268.952157 
L 559.915136 267.325586 
L 560.058776 268.49991 
L 560.32762 267.613767 
L 560.465548 266.96271 
L 560.602063 267.054596 
L 560.742278 268.427375 
L 560.89031 267.841163 
L 561.017778 268.168854 
L 561.164402 267.327663 
L 561.600022 269.692388 
L 561.634219 271.94636 
L 561.739068 270.128376 
L 562.041663 271.099787 
L 562.186612 270.790652 
L 562.323371 272.669826 
L 562.63278 271.32479 
L 562.768551 272.175215 
L 562.872141 271.497486 
L 563.318843 270.422283 
L 563.423785 271.125531 
L 563.59485 270.897663 
L 563.834017 270.07946 
L 563.95064 270.664747 
L 564.210771 270.16461 
L 564.356391 271.409332 
L 564.727444 272.292193 
L 564.796109 271.982695 
L 564.898705 270.994121 
L 565.173212 271.934524 
L 565.282233 271.505027 
L 565.454063 272.281346 
L 565.62065 271.597392 
L 565.897978 269.012071 
L 566.06384 268.585135 
L 566.275672 269.95949 
L 566.582202 270.507578 
L 566.858981 269.695306 
L 567.165913 271.736629 
L 567.336157 271.074959 
L 567.446352 272.684753 
L 567.544347 272.032904 
L 567.771695 271.943488 
L 568.039409 269.951958 
L 568.198822 270.440983 
L 568.33769 271.808357 
L 568.472566 270.627942 
L 568.610638 270.539138 
L 568.821516 271.583348 
L 568.986743 269.99507 
L 569.295428 271.90753 
L 569.433882 271.102435 
L 569.578974 271.736152 
L 569.709142 270.077895 
L 569.846359 270.436874 
L 570.032655 270.188352 
L 570.059014 267.761058 
L 570.261147 271.276872 
L 570.53615 270.64333 
L 570.718817 270.46076 
L 570.844105 271.53673 
L 571.188202 271.632672 
L 571.298614 272.180024 
L 571.494718 272.58791 
L 571.574272 271.389517 
L 571.719319 272.958161 
L 571.839596 271.465827 
L 572.044935 273.359866 
L 572.113073 272.623575 
L 572.252469 272.574572 
L 572.56284 272.121788 
L 572.701307 273.4334 
L 572.905487 272.050502 
L 573.007333 272.825528 
L 573.122783 271.567968 
L 573.249842 272.29988 
L 573.418316 270.813592 
L 573.560302 270.880664 
L 573.80144 270.720848 
L 574.11166 269.255345 
L 574.242972 270.338512 
L 574.518866 268.115522 
L 574.965324 265.781138 
L 575.279786 266.760784 
L 575.58456 266.163943 
L 575.722534 265.204077 
L 576.219818 268.762266 
L 576.558057 269.458861 
L 577.088963 267.39578 
L 577.341428 267.451279 
L 577.374045 270.814342 
L 577.406644 268.440691 
L 577.546752 267.805288 
L 577.653725 268.324288 
L 577.819351 269.933962 
L 578.025571 270.18201 
L 578.163235 270.829668 
L 578.373547 273.28403 
L 578.508637 274.772639 
L 579.090898 271.261985 
L 579.366089 268.851881 
L 579.605735 267.713535 
L 579.788766 265.712464 
L 579.919824 264.266928 
L 580.363043 267.578946 
L 580.673156 267.49899 
L 580.80946 267.984676 
L 580.9484 266.185466 
L 581.18839 267.068489 
L 581.37228 270.041522 
L 581.497351 270.3914 
L 581.912771 269.387893 
L 582.083984 269.343163 
L 582.187995 269.078261 
L 582.496992 270.8476 
L 582.812031 269.063194 
L 582.94089 267.894316 
L 583.18154 267.491631 
L 583.63949 269.371663 
L 583.773457 269.865836 
L 583.915491 269.776813 
L 584.053331 268.264642 
L 584.195568 268.065248 
L 584.326409 269.584147 
L 584.643636 269.424502 
L 585.013848 267.757548 
L 585.191229 267.635829 
L 585.257814 268.196061 
L 585.335522 267.678123 
L 585.665066 270.380011 
L 585.7722 269.965341 
L 586.046929 272.110868 
L 586.190986 270.74003 
L 586.32394 271.720447 
L 586.355097 273.005229 
L 586.562416 271.724893 
L 586.655433 272.106883 
L 586.882137 271.770507 
L 587.041194 270.463974 
L 587.178568 267.966666 
L 587.329037 267.36073 
L 587.454396 266.037772 
L 587.674642 267.223779 
L 587.900383 265.20138 
L 588.031683 265.595176 
L 588.339727 265.105981 
L 588.364226 265.958042 
L 588.487662 266.337787 
L 588.587941 267.976616 
L 589.051784 265.915683 
L 589.189554 266.947282 
L 589.364373 267.362359 
L 589.470554 266.316556 
L 589.66131 267.932627 
L 589.743077 267.521941 
L 589.926735 267.536523 
L 590.018795 266.823135 
L 590.153944 267.899133 
L 590.324946 271.073918 
L 590.497777 271.976887 
L 590.600204 271.283396 
L 590.737021 271.958139 
L 590.94326 272.096493 
L 591.013026 271.844327 
L 591.14924 272.82286 
L 591.357335 273.191115 
L 591.459241 274.637064 
L 591.570091 274.272252 
L 591.702498 272.230124 
L 591.870381 272.535807 
L 592.007408 273.718676 
L 592.227228 273.753486 
L 592.492167 273.25784 
L 592.599414 272.304507 
L 592.731313 272.830955 
L 593.07625 271.535106 
L 593.31413 272.493085 
L 593.454138 271.397828 
L 593.599042 271.435908 
L 593.76305 271.910058 
L 593.870388 273.025717 
L 594.039384 272.716899 
L 594.178732 271.907517 
L 594.417548 271.365927 
L 594.658562 272.071605 
L 594.838591 271.326574 
L 594.933175 272.213619 
L 595.001257 271.686625 
L 595.283216 273.552103 
L 595.554495 273.261549 
L 595.662004 272.980212 
L 595.796099 274.121258 
L 595.978734 273.190413 
L 596.243174 273.760048 
L 596.312119 272.560723 
L 596.528911 271.687422 
L 596.657277 272.792175 
L 596.940442 268.005221 
L 596.971472 268.22023 
L 596.998608 264.835129 
L 597.141344 266.547138 
L 597.307781 266.939481 
L 597.480896 264.960047 
L 597.583626 266.633286 
L 597.724491 266.0725 
L 597.753715 269.34438 
L 597.82326 265.498043 
L 598.235637 266.05485 
L 598.295859 267.090016 
L 598.453201 267.552589 
L 598.585944 269.473176 
L 598.752673 269.209175 
L 599.113709 267.97802 
L 599.270112 269.131446 
L 599.648005 270.328659 
L 599.680938 271.366938 
L 599.680938 271.366938 
" clip-path="url(#p798eb2c355)" style="fill: none; stroke: #ff0000; stroke-opacity: 0.7; stroke-width: 1.5; stroke-linecap: square"/>
   </g>
   <g id="patch_3">
    <path d="M 41.680938 277.92 
L 41.680938 0.72 
" style="fill: none; stroke: #000000; stroke-width: 0.8; stroke-linejoin: miter; stroke-linecap: square"/>
   </g>
   <g id="patch_4">
    <path d="M 599.680938 277.92 
L 599.680938 0.72 
" style="fill: none; stroke: #000000; stroke-width: 0.8; stroke-linejoin: miter; stroke-linecap: square"/>
   </g>
   <g id="patch_5">
    <path d="M 41.680938 277.92 
L 599.680938 277.92 
" style="fill: none; stroke: #000000; stroke-width: 0.8; stroke-linejoin: miter; stroke-linecap: square"/>
   </g>
   <g id="patch_6">
    <path d="M 41.680938 0.72 
L 599.680938 0.72 
" style="fill: none; stroke: #000000; stroke-width: 0.8; stroke-linejoin: miter; stroke-linecap: square"/>
   </g>
   <g id="legend_1">
    <g id="patch_7">
     <path d="M 518.912187 38.07625 
L 592.680938 38.07625 
Q 594.680938 38.07625 594.680938 36.07625 
L 594.680938 7.72 
Q 594.680938 5.72 592.680938 5.72 
L 518.912187 5.72 
Q 516.912187 5.72 516.912187 7.72 
L 516.912187 36.07625 
Q 516.912187 38.07625 518.912187 38.07625 
z
" style="fill: #ffffff; opacity: 0.8; stroke: #cccccc; stroke-linejoin: miter"/>
    </g>
    <g id="line2d_29">
     <path d="M 520.912187 13.818438 
L 530.912187 13.818438 
L 540.912187 13.818438 
" style="fill: none; stroke: #0000ff; stroke-opacity: 0.7; stroke-width: 1.5; stroke-linecap: square"/>
    </g>
    <g id="text_16">
     <!-- RNEA -->
     <g transform="translate(548.912187 17.318438) scale(0.1 -0.1)">
      <defs>
       <path id="DejaVuSans-52" d="M 2841 2188 
Q 3044 2119 3236 1894 
Q 3428 1669 3622 1275 
L 4263 0 
L 3584 0 
L 2988 1197 
Q 2756 1666 2539 1819 
Q 2322 1972 1947 1972 
L 1259 1972 
L 1259 0 
L 628 0 
L 628 4666 
L 2053 4666 
Q 2853 4666 3247 4331 
Q 3641 3997 3641 3322 
Q 3641 2881 3436 2590 
Q 3231 2300 2841 2188 
z
M 1259 4147 
L 1259 2491 
L 2053 2491 
Q 2509 2491 2742 2702 
Q 2975 2913 2975 3322 
Q 2975 3731 2742 3939 
Q 2509 4147 2053 4147 
L 1259 4147 
z
" transform="scale(0.015625)"/>
       <path id="DejaVuSans-45" d="M 628 4666 
L 3578 4666 
L 3578 4134 
L 1259 4134 
L 1259 2753 
L 3481 2753 
L 3481 2222 
L 1259 2222 
L 1259 531 
L 3634 531 
L 3634 0 
L 628 0 
L 628 4666 
z
" transform="scale(0.015625)"/>
       <path id="DejaVuSans-41" d="M 2188 4044 
L 1331 1722 
L 3047 1722 
L 2188 4044 
z
M 1831 4666 
L 2547 4666 
L 4325 0 
L 3669 0 
L 3244 1197 
L 1141 1197 
L 716 0 
L 50 0 
L 1831 4666 
z
" transform="scale(0.015625)"/>
      </defs>
      <use xlink:href="#DejaVuSans-52"/>
      <use xlink:href="#DejaVuSans-4e" x="69.482422"/>
      <use xlink:href="#DejaVuSans-45" x="144.287109"/>
      <use xlink:href="#DejaVuSans-41" x="207.470703"/>
     </g>
    </g>
    <g id="line2d_30">
     <path d="M 520.912187 28.496563 
L 530.912187 28.496563 
L 540.912187 28.496563 
" style="fill: none; stroke: #ff0000; stroke-opacity: 0.7; stroke-width: 1.5; stroke-linecap: square"/>
    </g>
    <g id="text_17">
     <!-- BURNEA -->
     <g transform="translate(548.912187 31.996563) scale(0.1 -0.1)">
      <defs>
       <path id="DejaVuSans-42" d="M 1259 2228 
L 1259 519 
L 2272 519 
Q 2781 519 3026 730 
Q 3272 941 3272 1375 
Q 3272 1813 3026 2020 
Q 2781 2228 2272 2228 
L 1259 2228 
z
M 1259 4147 
L 1259 2741 
L 2194 2741 
Q 2656 2741 2882 2914 
Q 3109 3088 3109 3444 
Q 3109 3797 2882 3972 
Q 2656 4147 2194 4147 
L 1259 4147 
z
M 628 4666 
L 2241 4666 
Q 2963 4666 3353 4366 
Q 3744 4066 3744 3513 
Q 3744 3084 3544 2831 
Q 3344 2578 2956 2516 
Q 3422 2416 3680 2098 
Q 3938 1781 3938 1306 
Q 3938 681 3513 340 
Q 3088 0 2303 0 
L 628 0 
L 628 4666 
z
" transform="scale(0.015625)"/>
       <path id="DejaVuSans-55" d="M 556 4666 
L 1191 4666 
L 1191 1831 
Q 1191 1081 1462 751 
Q 1734 422 2344 422 
Q 2950 422 3222 751 
Q 3494 1081 3494 1831 
L 3494 4666 
L 4128 4666 
L 4128 1753 
Q 4128 841 3676 375 
Q 3225 -91 2344 -91 
Q 1459 -91 1007 375 
Q 556 841 556 1753 
L 556 4666 
z
" transform="scale(0.015625)"/>
      </defs>
      <use xlink:href="#DejaVuSans-42"/>
      <use xlink:href="#DejaVuSans-55" x="68.603516"/>
      <use xlink:href="#DejaVuSans-52" x="141.796875"/>
      <use xlink:href="#DejaVuSans-4e" x="211.279297"/>
      <use xlink:href="#DejaVuSans-45" x="286.083984"/>
      <use xlink:href="#DejaVuSans-41" x="349.267578"/>
     </g>
    </g>
   </g>
  </g>
 </g>
 <defs>
  <clipPath id="p798eb2c355">
   <rect x="41.680938" y="0.72" width="558" height="277.2"/>
  </clipPath>
 </defs>
</svg>
