<?xml version="1.0" encoding="utf-8" standalone="no"?>
<!DOCTYPE svg PUBLIC "-//W3C//DTD SVG 1.1//EN"
  "http://www.w3.org/Graphics/SVG/1.1/DTD/svg11.dtd">
<svg xmlns:xlink="http://www.w3.org/1999/xlink" width="427.43952pt" height="211.43952pt" viewBox="0 0 427.43952 211.43952" xmlns="http://www.w3.org/2000/svg" version="1.1">
 <metadata>
  <rdf:RDF xmlns:dc="http://purl.org/dc/elements/1.1/" xmlns:cc="http://creativecommons.org/ns#" xmlns:rdf="http://www.w3.org/1999/02/22-rdf-syntax-ns#">
   <cc:Work>
    <dc:type rdf:resource="http://purl.org/dc/dcmitype/StillImage"/>
    <dc:date>2023-09-09T18:28:44.770177</dc:date>
    <dc:format>image/svg+xml</dc:format>
    <dc:creator>
     <cc:Agent>
      <dc:title>Matplotlib v3.7.2, https://matplotlib.org/</dc:title>
     </cc:Agent>
    </dc:creator>
   </cc:Work>
  </rdf:RDF>
 </metadata>
 <defs>
  <style type="text/css">*{stroke-linejoin: round; stroke-linecap: butt}</style>
 </defs>
 <g id="figure_1">
  <g id="patch_1">
   <path d="M 0 211.43952 
L 427.43952 211.43952 
L 427.43952 0 
L 0 0 
L 0 211.43952 
z
" style="fill: none"/>
  </g>
  <g id="axes_1">
   <g id="patch_2">
    <path d="M 38.502813 184.36327 
L 426.71952 184.36327 
L 426.71952 0.72 
L 38.502813 0.72 
L 38.502813 184.36327 
z
" style="fill: none"/>
   </g>
   <g id="matplotlib.axis_1">
    <g id="xtick_1">
     <g id="line2d_1">
      <path d="M 38.502813 184.36327 
L 38.502813 0.72 
" clip-path="url(#p9a9ab8756d)" style="fill: none; stroke-dasharray: 0.8,1.32; stroke-dashoffset: 0; stroke: #000000; stroke-opacity: 0.5; stroke-width: 0.8"/>
     </g>
     <g id="line2d_2">
      <defs>
       <path id="mbe45f776bd" d="M 0 0 
L 0 3.5 
" style="stroke: #000000; stroke-width: 0.8"/>
      </defs>
      <g>
       <use xlink:href="#mbe45f776bd" x="38.502813" y="184.36327" style="stroke: #000000; stroke-width: 0.8"/>
      </g>
     </g>
     <g id="text_1">
      <!-- 0.0 -->
      <g transform="translate(30.55125 198.961707) scale(0.1 -0.1)">
       <defs>
        <path id="DejaVuSans-30" d="M 2034 4250 
Q 1547 4250 1301 3770 
Q 1056 3291 1056 2328 
Q 1056 1369 1301 889 
Q 1547 409 2034 409 
Q 2525 409 2770 889 
Q 3016 1369 3016 2328 
Q 3016 3291 2770 3770 
Q 2525 4250 2034 4250 
z
M 2034 4750 
Q 2819 4750 3233 4129 
Q 3647 3509 3647 2328 
Q 3647 1150 3233 529 
Q 2819 -91 2034 -91 
Q 1250 -91 836 529 
Q 422 1150 422 2328 
Q 422 3509 836 4129 
Q 1250 4750 2034 4750 
z
" transform="scale(0.015625)"/>
        <path id="DejaVuSans-2e" d="M 684 794 
L 1344 794 
L 1344 0 
L 684 0 
L 684 794 
z
" transform="scale(0.015625)"/>
       </defs>
       <use xlink:href="#DejaVuSans-30"/>
       <use xlink:href="#DejaVuSans-2e" x="63.623047"/>
       <use xlink:href="#DejaVuSans-30" x="95.410156"/>
      </g>
     </g>
    </g>
    <g id="xtick_2">
     <g id="line2d_3">
      <path d="M 90.09203 184.36327 
L 90.09203 0.72 
" clip-path="url(#p9a9ab8756d)" style="fill: none; stroke-dasharray: 0.8,1.32; stroke-dashoffset: 0; stroke: #000000; stroke-opacity: 0.5; stroke-width: 0.8"/>
     </g>
     <g id="line2d_4">
      <g>
       <use xlink:href="#mbe45f776bd" x="90.09203" y="184.36327" style="stroke: #000000; stroke-width: 0.8"/>
      </g>
     </g>
     <g id="text_2">
      <!-- 2.5 -->
      <g transform="translate(82.140467 198.961707) scale(0.1 -0.1)">
       <defs>
        <path id="DejaVuSans-32" d="M 1228 531 
L 3431 531 
L 3431 0 
L 469 0 
L 469 531 
Q 828 903 1448 1529 
Q 2069 2156 2228 2338 
Q 2531 2678 2651 2914 
Q 2772 3150 2772 3378 
Q 2772 3750 2511 3984 
Q 2250 4219 1831 4219 
Q 1534 4219 1204 4116 
Q 875 4013 500 3803 
L 500 4441 
Q 881 4594 1212 4672 
Q 1544 4750 1819 4750 
Q 2544 4750 2975 4387 
Q 3406 4025 3406 3419 
Q 3406 3131 3298 2873 
Q 3191 2616 2906 2266 
Q 2828 2175 2409 1742 
Q 1991 1309 1228 531 
z
" transform="scale(0.015625)"/>
        <path id="DejaVuSans-35" d="M 691 4666 
L 3169 4666 
L 3169 4134 
L 1269 4134 
L 1269 2991 
Q 1406 3038 1543 3061 
Q 1681 3084 1819 3084 
Q 2600 3084 3056 2656 
Q 3513 2228 3513 1497 
Q 3513 744 3044 326 
Q 2575 -91 1722 -91 
Q 1428 -91 1123 -41 
Q 819 9 494 109 
L 494 744 
Q 775 591 1075 516 
Q 1375 441 1709 441 
Q 2250 441 2565 725 
Q 2881 1009 2881 1497 
Q 2881 1984 2565 2268 
Q 2250 2553 1709 2553 
Q 1456 2553 1204 2497 
Q 953 2441 691 2322 
L 691 4666 
z
" transform="scale(0.015625)"/>
       </defs>
       <use xlink:href="#DejaVuSans-32"/>
       <use xlink:href="#DejaVuSans-2e" x="63.623047"/>
       <use xlink:href="#DejaVuSans-35" x="95.410156"/>
      </g>
     </g>
    </g>
    <g id="xtick_3">
     <g id="line2d_5">
      <path d="M 141.681247 184.36327 
L 141.681247 0.72 
" clip-path="url(#p9a9ab8756d)" style="fill: none; stroke-dasharray: 0.8,1.32; stroke-dashoffset: 0; stroke: #000000; stroke-opacity: 0.5; stroke-width: 0.8"/>
     </g>
     <g id="line2d_6">
      <g>
       <use xlink:href="#mbe45f776bd" x="141.681247" y="184.36327" style="stroke: #000000; stroke-width: 0.8"/>
      </g>
     </g>
     <g id="text_3">
      <!-- 5.0 -->
      <g transform="translate(133.729684 198.961707) scale(0.1 -0.1)">
       <use xlink:href="#DejaVuSans-35"/>
       <use xlink:href="#DejaVuSans-2e" x="63.623047"/>
       <use xlink:href="#DejaVuSans-30" x="95.410156"/>
      </g>
     </g>
    </g>
    <g id="xtick_4">
     <g id="line2d_7">
      <path d="M 193.270464 184.36327 
L 193.270464 0.72 
" clip-path="url(#p9a9ab8756d)" style="fill: none; stroke-dasharray: 0.8,1.32; stroke-dashoffset: 0; stroke: #000000; stroke-opacity: 0.5; stroke-width: 0.8"/>
     </g>
     <g id="line2d_8">
      <g>
       <use xlink:href="#mbe45f776bd" x="193.270464" y="184.36327" style="stroke: #000000; stroke-width: 0.8"/>
      </g>
     </g>
     <g id="text_4">
      <!-- 7.5 -->
      <g transform="translate(185.318902 198.961707) scale(0.1 -0.1)">
       <defs>
        <path id="DejaVuSans-37" d="M 525 4666 
L 3525 4666 
L 3525 4397 
L 1831 0 
L 1172 0 
L 2766 4134 
L 525 4134 
L 525 4666 
z
" transform="scale(0.015625)"/>
       </defs>
       <use xlink:href="#DejaVuSans-37"/>
       <use xlink:href="#DejaVuSans-2e" x="63.623047"/>
       <use xlink:href="#DejaVuSans-35" x="95.410156"/>
      </g>
     </g>
    </g>
    <g id="xtick_5">
     <g id="line2d_9">
      <path d="M 244.859681 184.36327 
L 244.859681 0.72 
" clip-path="url(#p9a9ab8756d)" style="fill: none; stroke-dasharray: 0.8,1.32; stroke-dashoffset: 0; stroke: #000000; stroke-opacity: 0.5; stroke-width: 0.8"/>
     </g>
     <g id="line2d_10">
      <g>
       <use xlink:href="#mbe45f776bd" x="244.859681" y="184.36327" style="stroke: #000000; stroke-width: 0.8"/>
      </g>
     </g>
     <g id="text_5">
      <!-- 10.0 -->
      <g transform="translate(233.726869 198.961707) scale(0.1 -0.1)">
       <defs>
        <path id="DejaVuSans-31" d="M 794 531 
L 1825 531 
L 1825 4091 
L 703 3866 
L 703 4441 
L 1819 4666 
L 2450 4666 
L 2450 531 
L 3481 531 
L 3481 0 
L 794 0 
L 794 531 
z
" transform="scale(0.015625)"/>
       </defs>
       <use xlink:href="#DejaVuSans-31"/>
       <use xlink:href="#DejaVuSans-30" x="63.623047"/>
       <use xlink:href="#DejaVuSans-2e" x="127.246094"/>
       <use xlink:href="#DejaVuSans-30" x="159.033203"/>
      </g>
     </g>
    </g>
    <g id="xtick_6">
     <g id="line2d_11">
      <path d="M 296.448899 184.36327 
L 296.448899 0.72 
" clip-path="url(#p9a9ab8756d)" style="fill: none; stroke-dasharray: 0.8,1.32; stroke-dashoffset: 0; stroke: #000000; stroke-opacity: 0.5; stroke-width: 0.8"/>
     </g>
     <g id="line2d_12">
      <g>
       <use xlink:href="#mbe45f776bd" x="296.448899" y="184.36327" style="stroke: #000000; stroke-width: 0.8"/>
      </g>
     </g>
     <g id="text_6">
      <!-- 12.5 -->
      <g transform="translate(285.316086 198.961707) scale(0.1 -0.1)">
       <use xlink:href="#DejaVuSans-31"/>
       <use xlink:href="#DejaVuSans-32" x="63.623047"/>
       <use xlink:href="#DejaVuSans-2e" x="127.246094"/>
       <use xlink:href="#DejaVuSans-35" x="159.033203"/>
      </g>
     </g>
    </g>
    <g id="xtick_7">
     <g id="line2d_13">
      <path d="M 348.038116 184.36327 
L 348.038116 0.72 
" clip-path="url(#p9a9ab8756d)" style="fill: none; stroke-dasharray: 0.8,1.32; stroke-dashoffset: 0; stroke: #000000; stroke-opacity: 0.5; stroke-width: 0.8"/>
     </g>
     <g id="line2d_14">
      <g>
       <use xlink:href="#mbe45f776bd" x="348.038116" y="184.36327" style="stroke: #000000; stroke-width: 0.8"/>
      </g>
     </g>
     <g id="text_7">
      <!-- 15.0 -->
      <g transform="translate(336.905303 198.961707) scale(0.1 -0.1)">
       <use xlink:href="#DejaVuSans-31"/>
       <use xlink:href="#DejaVuSans-35" x="63.623047"/>
       <use xlink:href="#DejaVuSans-2e" x="127.246094"/>
       <use xlink:href="#DejaVuSans-30" x="159.033203"/>
      </g>
     </g>
    </g>
    <g id="xtick_8">
     <g id="line2d_15">
      <path d="M 399.627333 184.36327 
L 399.627333 0.72 
" clip-path="url(#p9a9ab8756d)" style="fill: none; stroke-dasharray: 0.8,1.32; stroke-dashoffset: 0; stroke: #000000; stroke-opacity: 0.5; stroke-width: 0.8"/>
     </g>
     <g id="line2d_16">
      <g>
       <use xlink:href="#mbe45f776bd" x="399.627333" y="184.36327" style="stroke: #000000; stroke-width: 0.8"/>
      </g>
     </g>
     <g id="text_8">
      <!-- 17.5 -->
      <g transform="translate(388.494521 198.961707) scale(0.1 -0.1)">
       <use xlink:href="#DejaVuSans-31"/>
       <use xlink:href="#DejaVuSans-37" x="63.623047"/>
       <use xlink:href="#DejaVuSans-2e" x="127.246094"/>
       <use xlink:href="#DejaVuSans-35" x="159.033203"/>
      </g>
     </g>
    </g>
    <g id="text_9">
     <!-- Zeit [s] -->
     <g transform="translate(214.665073 208.639832) scale(0.1 -0.1)">
      <defs>
       <path id="DejaVuSans-5a" d="M 359 4666 
L 4025 4666 
L 4025 4184 
L 1075 531 
L 4097 531 
L 4097 0 
L 288 0 
L 288 481 
L 3238 4134 
L 359 4134 
L 359 4666 
z
" transform="scale(0.015625)"/>
       <path id="DejaVuSans-65" d="M 3597 1894 
L 3597 1613 
L 953 1613 
Q 991 1019 1311 708 
Q 1631 397 2203 397 
Q 2534 397 2845 478 
Q 3156 559 3463 722 
L 3463 178 
Q 3153 47 2828 -22 
Q 2503 -91 2169 -91 
Q 1331 -91 842 396 
Q 353 884 353 1716 
Q 353 2575 817 3079 
Q 1281 3584 2069 3584 
Q 2775 3584 3186 3129 
Q 3597 2675 3597 1894 
z
M 3022 2063 
Q 3016 2534 2758 2815 
Q 2500 3097 2075 3097 
Q 1594 3097 1305 2825 
Q 1016 2553 972 2059 
L 3022 2063 
z
" transform="scale(0.015625)"/>
       <path id="DejaVuSans-69" d="M 603 3500 
L 1178 3500 
L 1178 0 
L 603 0 
L 603 3500 
z
M 603 4863 
L 1178 4863 
L 1178 4134 
L 603 4134 
L 603 4863 
z
" transform="scale(0.015625)"/>
       <path id="DejaVuSans-74" d="M 1172 4494 
L 1172 3500 
L 2356 3500 
L 2356 3053 
L 1172 3053 
L 1172 1153 
Q 1172 725 1289 603 
Q 1406 481 1766 481 
L 2356 481 
L 2356 0 
L 1766 0 
Q 1100 0 847 248 
Q 594 497 594 1153 
L 594 3053 
L 172 3053 
L 172 3500 
L 594 3500 
L 594 4494 
L 1172 4494 
z
" transform="scale(0.015625)"/>
       <path id="DejaVuSans-20" transform="scale(0.015625)"/>
       <path id="DejaVuSans-5b" d="M 550 4863 
L 1875 4863 
L 1875 4416 
L 1125 4416 
L 1125 -397 
L 1875 -397 
L 1875 -844 
L 550 -844 
L 550 4863 
z
" transform="scale(0.015625)"/>
       <path id="DejaVuSans-73" d="M 2834 3397 
L 2834 2853 
Q 2591 2978 2328 3040 
Q 2066 3103 1784 3103 
Q 1356 3103 1142 2972 
Q 928 2841 928 2578 
Q 928 2378 1081 2264 
Q 1234 2150 1697 2047 
L 1894 2003 
Q 2506 1872 2764 1633 
Q 3022 1394 3022 966 
Q 3022 478 2636 193 
Q 2250 -91 1575 -91 
Q 1294 -91 989 -36 
Q 684 19 347 128 
L 347 722 
Q 666 556 975 473 
Q 1284 391 1588 391 
Q 1994 391 2212 530 
Q 2431 669 2431 922 
Q 2431 1156 2273 1281 
Q 2116 1406 1581 1522 
L 1381 1569 
Q 847 1681 609 1914 
Q 372 2147 372 2553 
Q 372 3047 722 3315 
Q 1072 3584 1716 3584 
Q 2034 3584 2315 3537 
Q 2597 3491 2834 3397 
z
" transform="scale(0.015625)"/>
       <path id="DejaVuSans-5d" d="M 1947 4863 
L 1947 -844 
L 622 -844 
L 622 -397 
L 1369 -397 
L 1369 4416 
L 622 4416 
L 622 4863 
L 1947 4863 
z
" transform="scale(0.015625)"/>
      </defs>
      <use xlink:href="#DejaVuSans-5a"/>
      <use xlink:href="#DejaVuSans-65" x="68.505859"/>
      <use xlink:href="#DejaVuSans-69" x="130.029297"/>
      <use xlink:href="#DejaVuSans-74" x="157.8125"/>
      <use xlink:href="#DejaVuSans-20" x="197.021484"/>
      <use xlink:href="#DejaVuSans-5b" x="228.808594"/>
      <use xlink:href="#DejaVuSans-73" x="267.822266"/>
      <use xlink:href="#DejaVuSans-5d" x="319.921875"/>
     </g>
    </g>
   </g>
   <g id="matplotlib.axis_2">
    <g id="ytick_1">
     <g id="line2d_17">
      <path d="M 38.502813 171.388168 
L 426.71952 171.388168 
" clip-path="url(#p9a9ab8756d)" style="fill: none; stroke-dasharray: 0.8,1.32; stroke-dashoffset: 0; stroke: #000000; stroke-opacity: 0.5; stroke-width: 0.8"/>
     </g>
     <g id="line2d_18">
      <defs>
       <path id="m3822a767b0" d="M 0 0 
L -3.5 0 
" style="stroke: #000000; stroke-width: 0.8"/>
      </defs>
      <g>
       <use xlink:href="#m3822a767b0" x="38.502813" y="171.388168" style="stroke: #000000; stroke-width: 0.8"/>
      </g>
     </g>
     <g id="text_10">
      <!-- −50 -->
      <g transform="translate(10.398125 175.187386) scale(0.1 -0.1)">
       <defs>
        <path id="DejaVuSans-2212" d="M 678 2272 
L 4684 2272 
L 4684 1741 
L 678 1741 
L 678 2272 
z
" transform="scale(0.015625)"/>
       </defs>
       <use xlink:href="#DejaVuSans-2212"/>
       <use xlink:href="#DejaVuSans-35" x="83.789062"/>
       <use xlink:href="#DejaVuSans-30" x="147.412109"/>
      </g>
     </g>
    </g>
    <g id="ytick_2">
     <g id="line2d_19">
      <path d="M 38.502813 147.563979 
L 426.71952 147.563979 
" clip-path="url(#p9a9ab8756d)" style="fill: none; stroke-dasharray: 0.8,1.32; stroke-dashoffset: 0; stroke: #000000; stroke-opacity: 0.5; stroke-width: 0.8"/>
     </g>
     <g id="line2d_20">
      <g>
       <use xlink:href="#m3822a767b0" x="38.502813" y="147.563979" style="stroke: #000000; stroke-width: 0.8"/>
      </g>
     </g>
     <g id="text_11">
      <!-- −40 -->
      <g transform="translate(10.398125 151.363197) scale(0.1 -0.1)">
       <defs>
        <path id="DejaVuSans-34" d="M 2419 4116 
L 825 1625 
L 2419 1625 
L 2419 4116 
z
M 2253 4666 
L 3047 4666 
L 3047 1625 
L 3713 1625 
L 3713 1100 
L 3047 1100 
L 3047 0 
L 2419 0 
L 2419 1100 
L 313 1100 
L 313 1709 
L 2253 4666 
z
" transform="scale(0.015625)"/>
       </defs>
       <use xlink:href="#DejaVuSans-2212"/>
       <use xlink:href="#DejaVuSans-34" x="83.789062"/>
       <use xlink:href="#DejaVuSans-30" x="147.412109"/>
      </g>
     </g>
    </g>
    <g id="ytick_3">
     <g id="line2d_21">
      <path d="M 38.502813 123.73979 
L 426.71952 123.73979 
" clip-path="url(#p9a9ab8756d)" style="fill: none; stroke-dasharray: 0.8,1.32; stroke-dashoffset: 0; stroke: #000000; stroke-opacity: 0.5; stroke-width: 0.8"/>
     </g>
     <g id="line2d_22">
      <g>
       <use xlink:href="#m3822a767b0" x="38.502813" y="123.73979" style="stroke: #000000; stroke-width: 0.8"/>
      </g>
     </g>
     <g id="text_12">
      <!-- −30 -->
      <g transform="translate(10.398125 127.539009) scale(0.1 -0.1)">
       <defs>
        <path id="DejaVuSans-33" d="M 2597 2516 
Q 3050 2419 3304 2112 
Q 3559 1806 3559 1356 
Q 3559 666 3084 287 
Q 2609 -91 1734 -91 
Q 1441 -91 1130 -33 
Q 819 25 488 141 
L 488 750 
Q 750 597 1062 519 
Q 1375 441 1716 441 
Q 2309 441 2620 675 
Q 2931 909 2931 1356 
Q 2931 1769 2642 2001 
Q 2353 2234 1838 2234 
L 1294 2234 
L 1294 2753 
L 1863 2753 
Q 2328 2753 2575 2939 
Q 2822 3125 2822 3475 
Q 2822 3834 2567 4026 
Q 2313 4219 1838 4219 
Q 1578 4219 1281 4162 
Q 984 4106 628 3988 
L 628 4550 
Q 988 4650 1302 4700 
Q 1616 4750 1894 4750 
Q 2613 4750 3031 4423 
Q 3450 4097 3450 3541 
Q 3450 3153 3228 2886 
Q 3006 2619 2597 2516 
z
" transform="scale(0.015625)"/>
       </defs>
       <use xlink:href="#DejaVuSans-2212"/>
       <use xlink:href="#DejaVuSans-33" x="83.789062"/>
       <use xlink:href="#DejaVuSans-30" x="147.412109"/>
      </g>
     </g>
    </g>
    <g id="ytick_4">
     <g id="line2d_23">
      <path d="M 38.502813 99.915601 
L 426.71952 99.915601 
" clip-path="url(#p9a9ab8756d)" style="fill: none; stroke-dasharray: 0.8,1.32; stroke-dashoffset: 0; stroke: #000000; stroke-opacity: 0.5; stroke-width: 0.8"/>
     </g>
     <g id="line2d_24">
      <g>
       <use xlink:href="#m3822a767b0" x="38.502813" y="99.915601" style="stroke: #000000; stroke-width: 0.8"/>
      </g>
     </g>
     <g id="text_13">
      <!-- −20 -->
      <g transform="translate(10.398125 103.71482) scale(0.1 -0.1)">
       <use xlink:href="#DejaVuSans-2212"/>
       <use xlink:href="#DejaVuSans-32" x="83.789062"/>
       <use xlink:href="#DejaVuSans-30" x="147.412109"/>
      </g>
     </g>
    </g>
    <g id="ytick_5">
     <g id="line2d_25">
      <path d="M 38.502813 76.091412 
L 426.71952 76.091412 
" clip-path="url(#p9a9ab8756d)" style="fill: none; stroke-dasharray: 0.8,1.32; stroke-dashoffset: 0; stroke: #000000; stroke-opacity: 0.5; stroke-width: 0.8"/>
     </g>
     <g id="line2d_26">
      <g>
       <use xlink:href="#m3822a767b0" x="38.502813" y="76.091412" style="stroke: #000000; stroke-width: 0.8"/>
      </g>
     </g>
     <g id="text_14">
      <!-- −10 -->
      <g transform="translate(10.398125 79.890631) scale(0.1 -0.1)">
       <use xlink:href="#DejaVuSans-2212"/>
       <use xlink:href="#DejaVuSans-31" x="83.789062"/>
       <use xlink:href="#DejaVuSans-30" x="147.412109"/>
      </g>
     </g>
    </g>
    <g id="ytick_6">
     <g id="line2d_27">
      <path d="M 38.502813 52.267223 
L 426.71952 52.267223 
" clip-path="url(#p9a9ab8756d)" style="fill: none; stroke-dasharray: 0.8,1.32; stroke-dashoffset: 0; stroke: #000000; stroke-opacity: 0.5; stroke-width: 0.8"/>
     </g>
     <g id="line2d_28">
      <g>
       <use xlink:href="#m3822a767b0" x="38.502813" y="52.267223" style="stroke: #000000; stroke-width: 0.8"/>
      </g>
     </g>
     <g id="text_15">
      <!-- 0 -->
      <g transform="translate(25.140313 56.066442) scale(0.1 -0.1)">
       <use xlink:href="#DejaVuSans-30"/>
      </g>
     </g>
    </g>
    <g id="ytick_7">
     <g id="line2d_29">
      <path d="M 38.502813 28.443035 
L 426.71952 28.443035 
" clip-path="url(#p9a9ab8756d)" style="fill: none; stroke-dasharray: 0.8,1.32; stroke-dashoffset: 0; stroke: #000000; stroke-opacity: 0.5; stroke-width: 0.8"/>
     </g>
     <g id="line2d_30">
      <g>
       <use xlink:href="#m3822a767b0" x="38.502813" y="28.443035" style="stroke: #000000; stroke-width: 0.8"/>
      </g>
     </g>
     <g id="text_16">
      <!-- 10 -->
      <g transform="translate(18.777813 32.242253) scale(0.1 -0.1)">
       <use xlink:href="#DejaVuSans-31"/>
       <use xlink:href="#DejaVuSans-30" x="63.623047"/>
      </g>
     </g>
    </g>
    <g id="ytick_8">
     <g id="line2d_31">
      <path d="M 38.502813 4.618846 
L 426.71952 4.618846 
" clip-path="url(#p9a9ab8756d)" style="fill: none; stroke-dasharray: 0.8,1.32; stroke-dashoffset: 0; stroke: #000000; stroke-opacity: 0.5; stroke-width: 0.8"/>
     </g>
     <g id="line2d_32">
      <g>
       <use xlink:href="#m3822a767b0" x="38.502813" y="4.618846" style="stroke: #000000; stroke-width: 0.8"/>
      </g>
     </g>
     <g id="text_17">
      <!-- 20 -->
      <g transform="translate(18.777813 8.418064) scale(0.1 -0.1)">
       <use xlink:href="#DejaVuSans-32"/>
       <use xlink:href="#DejaVuSans-30" x="63.623047"/>
      </g>
     </g>
    </g>
    <g id="text_18">
     <!-- Kraft [N] -->
     <g transform="translate(8.318438 113.804135) rotate(-90) scale(0.1 -0.1)">
      <defs>
       <path id="DejaVuSans-4b" d="M 628 4666 
L 1259 4666 
L 1259 2694 
L 3353 4666 
L 4166 4666 
L 1850 2491 
L 4331 0 
L 3500 0 
L 1259 2247 
L 1259 0 
L 628 0 
L 628 4666 
z
" transform="scale(0.015625)"/>
       <path id="DejaVuSans-72" d="M 2631 2963 
Q 2534 3019 2420 3045 
Q 2306 3072 2169 3072 
Q 1681 3072 1420 2755 
Q 1159 2438 1159 1844 
L 1159 0 
L 581 0 
L 581 3500 
L 1159 3500 
L 1159 2956 
Q 1341 3275 1631 3429 
Q 1922 3584 2338 3584 
Q 2397 3584 2469 3576 
Q 2541 3569 2628 3553 
L 2631 2963 
z
" transform="scale(0.015625)"/>
       <path id="DejaVuSans-61" d="M 2194 1759 
Q 1497 1759 1228 1600 
Q 959 1441 959 1056 
Q 959 750 1161 570 
Q 1363 391 1709 391 
Q 2188 391 2477 730 
Q 2766 1069 2766 1631 
L 2766 1759 
L 2194 1759 
z
M 3341 1997 
L 3341 0 
L 2766 0 
L 2766 531 
Q 2569 213 2275 61 
Q 1981 -91 1556 -91 
Q 1019 -91 701 211 
Q 384 513 384 1019 
Q 384 1609 779 1909 
Q 1175 2209 1959 2209 
L 2766 2209 
L 2766 2266 
Q 2766 2663 2505 2880 
Q 2244 3097 1772 3097 
Q 1472 3097 1187 3025 
Q 903 2953 641 2809 
L 641 3341 
Q 956 3463 1253 3523 
Q 1550 3584 1831 3584 
Q 2591 3584 2966 3190 
Q 3341 2797 3341 1997 
z
" transform="scale(0.015625)"/>
       <path id="DejaVuSans-66" d="M 2375 4863 
L 2375 4384 
L 1825 4384 
Q 1516 4384 1395 4259 
Q 1275 4134 1275 3809 
L 1275 3500 
L 2222 3500 
L 2222 3053 
L 1275 3053 
L 1275 0 
L 697 0 
L 697 3053 
L 147 3053 
L 147 3500 
L 697 3500 
L 697 3744 
Q 697 4328 969 4595 
Q 1241 4863 1831 4863 
L 2375 4863 
z
" transform="scale(0.015625)"/>
       <path id="DejaVuSans-4e" d="M 628 4666 
L 1478 4666 
L 3547 763 
L 3547 4666 
L 4159 4666 
L 4159 0 
L 3309 0 
L 1241 3903 
L 1241 0 
L 628 0 
L 628 4666 
z
" transform="scale(0.015625)"/>
      </defs>
      <use xlink:href="#DejaVuSans-4b"/>
      <use xlink:href="#DejaVuSans-72" x="65.576172"/>
      <use xlink:href="#DejaVuSans-61" x="106.689453"/>
      <use xlink:href="#DejaVuSans-66" x="167.96875"/>
      <use xlink:href="#DejaVuSans-74" x="201.423828"/>
      <use xlink:href="#DejaVuSans-20" x="240.632812"/>
      <use xlink:href="#DejaVuSans-5b" x="272.419922"/>
      <use xlink:href="#DejaVuSans-4e" x="311.433594"/>
      <use xlink:href="#DejaVuSans-5d" x="386.238281"/>
     </g>
    </g>
   </g>
   <g id="line2d_33">
    <path d="M 38.502813 180.831669 
L 167.37214 180.817524 
L 167.592103 180.719332 
L 168.445166 179.638667 
L 169.107821 179.433107 
L 169.315652 179.450215 
L 169.442143 179.613132 
L 171.018264 179.378374 
L 171.184495 179.157211 
L 171.640165 179.064439 
L 172.017345 178.940238 
L 172.224076 178.929822 
L 172.390467 178.61154 
L 172.890431 178.893783 
L 173.219585 178.569596 
L 173.344281 178.008419 
L 173.426692 178.607864 
L 173.965146 177.698826 
L 174.089983 177.901294 
L 174.256107 177.803016 
L 174.421625 177.476448 
L 174.629721 178.143828 
L 174.835794 177.20852 
L 174.960194 177.43611 
L 175.126335 177.489861 
L 175.292269 177.414251 
L 175.512596 177.068912 
L 175.717338 177.224487 
L 175.842435 176.638504 
L 175.966082 176.998722 
L 176.174618 176.720544 
L 176.339554 176.207684 
L 176.712839 175.915052 
L 176.878337 175.857202 
L 177.086584 175.428488 
L 177.211731 176.262278 
L 177.542799 175.356209 
L 177.708732 175.589013 
L 177.875145 175.511789 
L 178.039763 174.706386 
L 178.206907 174.751258 
L 178.579448 174.269485 
L 178.706389 175.06889 
L 178.910895 174.196647 
L 179.24249 173.570998 
L 179.49159 173.879328 
L 179.782056 173.254093 
L 179.947148 173.178574 
L 180.112916 173.383928 
L 180.321054 172.462031 
L 180.528161 172.705402 
L 180.860072 172.321983 
L 181.066874 172.391366 
L 181.152699 171.918641 
L 181.35943 172.05987 
L 181.649551 170.96752 
L 181.843152 171.00003 
L 182.00196 171.390125 
L 182.684974 169.344549 
L 183.005638 169.523605 
L 183.099712 169.396685 
L 183.185199 170.265805 
L 183.389727 168.545142 
L 183.721917 169.691982 
L 183.886987 168.349288 
L 184.343248 168.133478 
L 184.509088 167.923898 
L 184.634012 168.404933 
L 184.846511 166.215964 
L 184.966286 167.608667 
L 185.104134 166.707639 
L 185.321087 166.577306 
L 185.506274 165.732132 
L 185.589918 166.280131 
L 185.963761 165.282353 
L 186.129707 165.576286 
L 186.667948 163.190631 
L 186.834352 163.183819 
L 187.041777 163.555098 
L 187.208633 163.256105 
L 187.335181 162.098659 
L 187.705807 163.022992 
L 187.83031 162.64717 
L 188.038914 161.054821 
L 188.244543 161.79497 
L 188.369759 161.484881 
L 188.535505 161.399514 
L 188.702007 161.47709 
L 189.033047 159.504672 
L 189.323182 161.479809 
L 189.572243 158.882482 
L 189.614787 159.611045 
L 189.737865 159.064672 
L 189.904158 159.379672 
L 190.070259 159.220577 
L 190.237035 157.300047 
L 190.527056 156.695167 
L 190.611255 158.457862 
L 190.942467 156.500413 
L 191.107627 156.811789 
L 191.356029 156.271419 
L 191.614938 154.193845 
L 191.811547 156.623846 
L 192.019145 154.760839 
L 192.248529 154.882237 
L 192.417055 154.24129 
L 192.518548 152.456013 
L 192.725323 153.413591 
L 192.809655 153.112084 
L 193.265275 149.957961 
L 193.525223 151.716435 
L 193.641482 151.369899 
L 193.719918 151.991915 
L 193.979383 150.713568 
L 194.056481 149.477219 
L 194.225003 150.786364 
L 194.548805 150.219596 
L 194.797579 150.536562 
L 194.922159 148.348658 
L 195.295114 146.875182 
L 195.461043 147.112606 
L 195.586589 148.24595 
L 195.83521 146.137963 
L 196.124398 145.18898 
L 196.291833 145.842161 
L 196.580732 143.699574 
L 196.748291 145.290645 
L 196.912717 143.306071 
L 196.954617 144.355321 
L 197.119948 144.387296 
L 197.327727 143.432079 
L 197.540592 143.247115 
L 197.700895 142.721516 
L 197.86703 140.684259 
L 198.003553 141.876045 
L 198.405795 140.96551 
L 198.541309 140.232871 
L 198.697139 140.538449 
L 198.878303 139.512777 
L 199.028913 139.854825 
L 199.235536 140.697715 
L 199.483734 139.269301 
L 199.649563 139.486817 
L 199.732634 137.784319 
L 200.022637 136.65178 
L 200.0651 135.972053 
L 200.479468 137.04401 
L 200.648575 134.559007 
L 200.769743 136.128161 
L 200.936176 134.39858 
L 201.144172 134.876426 
L 201.269763 134.358569 
L 201.433198 131.973734 
L 201.599156 134.418961 
L 201.771257 132.828934 
L 201.972225 132.218816 
L 202.32375 130.561099 
L 202.497627 129.920539 
L 202.933285 129.255911 
L 203.066925 129.096683 
L 203.258895 128.063625 
L 203.345358 129.955997 
L 203.591491 128.597973 
L 203.676205 126.910474 
L 203.881319 126.859456 
L 204.010432 127.39913 
L 204.30162 126.694738 
L 204.466335 127.499928 
L 204.842997 123.252569 
L 204.974216 124.406408 
L 205.211776 121.645412 
L 205.458934 124.223616 
L 205.562396 122.619183 
L 205.79286 122.991533 
L 205.958517 122.279563 
L 206.123628 120.488892 
L 206.249665 121.683899 
L 206.455061 119.218508 
L 206.579877 119.215142 
L 206.787181 117.642154 
L 206.953379 118.325713 
L 207.201515 116.461383 
L 207.326492 117.695766 
L 207.533153 116.609675 
L 207.628418 117.526168 
L 207.823123 114.475217 
L 207.950223 116.777654 
L 207.989909 114.622005 
L 208.282167 114.548958 
L 208.654127 112.577632 
L 208.819692 112.308595 
L 209.06875 109.842228 
L 209.364106 112.389848 
L 209.898115 108.701117 
L 210.022111 109.141382 
L 210.190221 106.143481 
L 210.478378 108.09045 
L 210.562104 107.108148 
L 210.72769 106.564467 
L 210.897039 105.336757 
L 211.060182 107.991561 
L 211.229053 105.402099 
L 211.394521 108.06822 
L 211.572053 103.951861 
L 211.726285 107.123726 
L 212.016167 102.861678 
L 212.102259 99.927707 
L 212.265662 102.076261 
L 212.431349 96.695737 
L 212.597417 101.529894 
L 212.805319 101.842221 
L 212.948447 101.79693 
L 213.097541 97.04181 
L 213.345276 98.264287 
L 213.635086 96.776447 
L 213.718524 96.837447 
L 214.091247 97.274581 
L 214.136742 95.580504 
L 214.329273 96.047648 
L 214.517147 98.362513 
L 214.645376 94.792162 
L 214.961804 95.607277 
L 215.003774 89.937669 
L 215.169079 92.682727 
L 215.376665 92.861021 
L 215.542481 93.317765 
L 215.915184 90.660342 
L 216.043251 91.391247 
L 216.206865 91.371505 
L 216.41344 94.056764 
L 216.58419 90.161303 
L 216.745894 92.452955 
L 216.870653 88.142181 
L 217.076131 89.425542 
L 217.454308 83.6652 
L 217.614932 86.129736 
L 217.786303 85.586566 
L 218.073785 83.623414 
L 218.452737 83.667764 
L 218.652175 80.537406 
L 218.778428 83.345367 
L 218.993718 80.863943 
L 219.108845 82.09411 
L 219.27589 80.17813 
L 219.48269 81.899027 
L 219.647945 77.206997 
L 219.813668 80.573747 
L 220.313743 76.777011 
L 220.561116 79.035876 
L 220.851507 75.493266 
L 221.185178 72.885998 
L 221.473407 70.706378 
L 221.556393 73.275668 
L 221.76367 68.600628 
L 221.888417 73.323945 
L 222.13683 70.069 
L 222.261216 72.347793 
L 222.386698 65.105018 
L 222.551674 70.512513 
L 222.75861 69.462358 
L 222.900334 70.269766 
L 223.095895 67.759927 
L 223.299739 67.931793 
L 223.506579 67.627368 
L 223.631297 65.135807 
L 223.879809 64.837827 
L 224.088084 67.167274 
L 224.294277 63.138835 
L 224.501503 65.373583 
L 224.628545 61.448513 
L 224.87638 60.703357 
L 224.999346 70.995875 
L 225.165961 62.371702 
L 225.30129 62.232841 
L 225.500074 60.638617 
L 225.930244 59.222425 
L 226.047075 54.624641 
L 226.207896 61.274163 
L 226.374016 57.155582 
L 226.583675 57.80149 
L 226.755858 57.686351 
L 227.342758 53.597859 
L 227.392505 54.69773 
L 227.592455 52.509359 
L 227.758081 55.637883 
L 227.883821 52.5853 
L 228.131341 53.128939 
L 228.255833 50.568361 
L 228.512468 48.315529 
L 228.630703 51.234229 
L 228.795006 51.762629 
L 229.043821 46.184515 
L 229.13178 48.623995 
L 229.541201 50.775662 
L 229.626368 75.704481 
L 229.873793 75.420476 
L 230.038834 74.436356 
L 230.338196 59.370822 
L 230.577786 59.070031 
L 230.662431 54.886832 
L 230.82737 56.595827 
L 231.035274 52.186591 
L 231.344786 51.490453 
L 231.798122 53.675406 
L 231.880109 48.45634 
L 232.04936 52.903755 
L 232.258259 49.154 
L 232.337894 52.230521 
L 232.547216 51.379911 
L 232.792382 53.531078 
L 233.082376 52.742254 
L 233.206972 53.53105 
L 233.457252 50.764537 
L 233.624338 50.897285 
L 233.999199 53.992069 
L 234.080582 52.662347 
L 234.286248 54.779684 
L 234.576824 52.468923 
L 234.783175 51.586486 
L 234.950203 52.466373 
L 235.11523 50.091257 
L 235.281034 51.817976 
L 235.450774 52.188341 
L 235.655156 49.759908 
L 235.988508 52.341523 
L 236.151866 52.681593 
L 236.324735 52.342122 
L 236.484455 52.554119 
L 236.651736 52.537918 
L 236.817354 54.183707 
L 237.106334 54.026519 
L 237.189713 54.458111 
L 237.482227 53.294663 
L 237.527784 51.095459 
L 237.689531 52.451116 
L 237.895417 52.561008 
L 238.14327 52.202644 
L 238.2678 51.554471 
L 238.392143 52.595797 
L 238.558722 50.666553 
L 238.727855 51.091306 
L 238.892169 52.230195 
L 239.115918 51.457701 
L 239.387212 52.817441 
L 239.428711 52.097728 
L 239.594769 52.586854 
L 239.760597 52.432026 
L 240.092821 53.332359 
L 240.259079 50.74273 
L 240.466943 53.589845 
L 240.729629 52.375154 
L 240.963756 54.114769 
L 241.128739 51.258871 
L 241.419183 52.47416 
L 241.502199 52.452587 
L 241.710003 52.427893 
L 241.835474 53.45744 
L 242.041257 52.650098 
L 242.218911 53.767874 
L 242.55692 51.895954 
L 242.710371 52.853261 
L 243.036737 52.630406 
L 243.201958 53.594222 
L 243.409889 52.417479 
L 243.742776 53.305133 
L 243.908832 52.094863 
L 244.075172 52.570808 
L 244.246002 53.509012 
L 244.493018 51.52943 
L 244.800421 52.657632 
L 244.945504 52.587705 
L 245.278198 54.208689 
L 245.460656 53.694754 
L 245.6088 52.100121 
L 245.774819 51.958341 
L 245.941777 51.977891 
L 246.106994 52.966945 
L 246.396875 52.339758 
L 246.480254 51.865513 
L 246.688295 52.902739 
L 246.813778 52.462612 
L 246.983913 50.725596 
L 247.250664 53.447341 
L 247.329504 52.06465 
L 247.561323 52.723631 
L 247.769858 50.74063 
L 247.852662 52.782393 
L 248.141921 52.532134 
L 248.224944 52.6853 
L 248.348878 52.475788 
L 248.556392 51.805263 
L 248.763845 53.864 
L 248.88818 52.788536 
L 249.054 52.326629 
L 249.22004 52.691124 
L 249.386714 51.952088 
L 249.596948 53.303218 
L 249.718457 53.345773 
L 249.926052 51.915969 
L 250.066819 52.317491 
L 250.25687 52.423503 
L 250.506274 53.928286 
L 250.603771 52.47163 
L 250.755353 52.460645 
L 250.920532 52.273353 
L 251.210704 52.587757 
L 251.293338 51.909191 
L 251.626994 53.035524 
L 251.792847 52.627947 
L 252.007021 52.874948 
L 252.165822 53.303267 
L 252.293748 51.472589 
L 252.496563 52.793719 
L 252.706411 52.777514 
L 252.871106 51.252873 
L 252.99455 53.267663 
L 253.165828 52.332449 
L 253.36734 51.977251 
L 253.574021 52.286738 
L 253.698526 52.73835 
L 254.156567 52.265546 
L 254.198387 52.547029 
L 254.542501 52.434996 
L 254.698803 53.318818 
L 254.944477 52.422486 
L 255.110542 52.447953 
L 255.317541 52.817022 
L 255.607942 50.220948 
L 255.815387 52.960125 
L 256.105723 52.413421 
L 256.271124 50.636225 
L 256.519706 54.232158 
L 256.645377 52.205585 
L 256.852167 53.011774 
L 257.059435 52.25769 
L 257.308719 54.047955 
L 257.55682 52.125764 
L 257.848371 52.333532 
L 258.13694 50.972681 
L 258.344332 53.381703 
L 258.510617 52.440417 
L 258.676182 52.636421 
L 258.883911 52.362757 
L 259.090992 52.470193 
L 259.180042 53.92434 
L 259.390162 52.480919 
L 259.555059 52.450928 
L 259.878695 54.032736 
L 260.170453 53.867257 
L 260.25215 52.028865 
L 260.378588 52.564129 
L 260.624836 52.344635 
L 260.833066 52.632167 
L 260.925458 53.088894 
L 261.217238 52.46384 
L 261.291853 53.246872 
L 261.457507 53.325579 
L 261.62349 52.251081 
L 261.793777 52.24727 
L 261.9967 52.486451 
L 262.121079 52.321214 
L 262.333093 52.889063 
L 262.501148 53.713841 
L 262.702624 50.954511 
L 262.787279 53.481586 
L 262.963238 52.636474 
L 263.162493 53.359108 
L 263.333761 52.39317 
L 263.490584 52.47824 
L 263.698297 52.786901 
L 263.86419 51.814361 
L 264.030171 52.3578 
L 264.230218 53.412342 
L 264.406474 50.69276 
L 264.559477 52.583339 
L 264.697618 52.245023 
L 264.902419 53.947078 
L 265.39929 52.293108 
L 265.607052 52.716715 
L 265.73121 52.43615 
L 265.896843 52.707882 
L 266.104126 50.469218 
L 266.311416 52.355546 
L 266.435941 52.191455 
L 266.651561 53.897823 
L 266.812423 52.467514 
L 267.143552 52.538588 
L 267.265749 52.713016 
L 267.474411 52.460264 
L 267.637873 53.248289 
L 267.858294 53.326781 
L 267.971726 52.10468 
L 268.181608 53.750458 
L 268.387957 52.461139 
L 268.518424 52.682832 
L 268.679162 52.566805 
L 268.807534 52.037236 
L 269.010967 52.102076 
L 269.302164 50.315534 
L 269.38594 53.017776 
L 269.676314 52.276513 
L 269.841292 52.595218 
L 270.047991 53.836515 
L 270.216902 52.712355 
L 270.379728 52.655225 
L 270.545791 52.359757 
L 270.752947 52.635009 
L 271.125855 53.591654 
L 271.498396 52.237778 
L 271.872285 53.993232 
L 271.913154 49.380318 
L 272.165896 52.217527 
L 272.369808 52.794864 
L 272.413556 52.645658 
L 272.669632 52.609509 
L 272.784705 52.305787 
L 272.952115 53.256132 
L 273.199024 52.33617 
L 273.324085 52.446104 
L 273.53568 53.182685 
L 273.657953 50.406171 
L 273.82134 52.225276 
L 274.196583 52.304775 
L 274.321023 54.210085 
L 274.485885 53.993183 
L 274.680553 52.173839 
L 275.191841 52.451474 
L 275.398863 53.982097 
L 275.523705 52.422369 
L 275.773336 52.761305 
L 275.93834 51.532245 
L 276.06276 52.039654 
L 276.311749 52.230089 
L 276.394572 53.011983 
L 276.561025 52.929264 
L 276.768191 53.074599 
L 276.933694 52.390046 
L 277.182333 52.350794 
L 277.306299 52.593012 
L 277.602201 52.443587 
L 277.762832 51.813817 
L 277.929639 53.256454 
L 278.136501 52.131726 
L 278.260601 52.718436 
L 278.468023 52.355188 
L 278.633894 52.462494 
L 278.799534 53.63971 
L 278.965744 52.316172 
L 279.131096 52.077712 
L 279.669679 53.959552 
L 279.878463 52.52711 
L 280.084202 52.332947 
L 280.254342 51.312248 
L 280.374434 53.71199 
L 280.664929 52.42025 
L 280.707091 52.54846 
L 280.87328 52.66046 
L 281.162822 52.450794 
L 281.246472 54.25094 
L 281.452269 51.256501 
L 281.577205 52.59367 
L 281.742667 52.540599 
L 281.908955 53.861627 
L 282.240239 52.418034 
L 282.408575 52.216542 
L 282.613615 52.560764 
L 282.946243 52.466072 
L 283.195056 52.467563 
L 283.277358 53.193678 
L 283.443835 52.227833 
L 283.652216 50.320107 
L 284.147687 52.402581 
L 284.410977 52.412883 
L 284.483738 52.593267 
L 284.645807 51.642649 
L 284.812589 53.673387 
L 285.146679 52.30315 
L 285.434405 53.86809 
L 285.589971 51.364106 
L 285.683437 52.230908 
L 285.848892 52.241705 
L 286.01473 52.373251 
L 286.387779 52.209863 
L 286.637106 52.818547 
L 286.719907 53.67593 
L 287.096915 52.749252 
L 287.259239 53.210933 
L 287.550005 52.617234 
L 287.717488 52.292428 
L 287.924174 52.162954 
L 288.088619 52.31038 
L 288.254177 53.504842 
L 288.503461 52.434795 
L 288.627545 52.897242 
L 288.793406 52.593177 
L 288.959052 53.849749 
L 289.125201 52.443775 
L 289.333503 52.349683 
L 289.582224 52.806811 
L 289.748963 52.856377 
L 289.914395 50.853784 
L 289.9972 53.479044 
L 290.33018 52.091081 
L 290.500979 53.137458 
L 290.702783 53.482191 
L 290.870098 52.239617 
L 291.034183 52.073851 
L 291.242118 52.64186 
L 291.367064 52.292809 
L 291.574797 50.478133 
L 291.698397 53.316484 
L 291.864183 52.331605 
L 292.207025 52.735831 
L 292.237578 52.880407 
L 292.370664 51.020672 
L 292.534833 52.379767 
L 292.735873 52.71075 
L 293.069791 52.138124 
L 293.235936 52.982856 
L 293.449229 50.729943 
L 293.607703 52.57106 
L 293.939573 51.983688 
L 294.107757 50.51097 
L 294.273493 52.278964 
L 294.477985 52.232011 
L 294.645483 52.844905 
L 294.851356 52.582803 
L 294.977207 50.128407 
L 295.14194 50.464534 
L 295.30829 52.70283 
L 295.475827 52.526442 
L 295.724217 53.131145 
L 295.849825 50.194902 
L 296.015508 52.437488 
L 296.21135 52.497973 
L 296.43168 52.159312 
L 296.595835 53.484764 
L 296.678688 50.767702 
L 296.845169 50.570414 
L 297.052033 52.699984 
L 297.260455 52.607219 
L 297.385752 51.999992 
L 297.551585 53.011611 
L 297.759453 52.498793 
L 297.882771 52.668241 
L 298.090962 52.610726 
L 298.256243 51.938727 
L 298.422527 54.021336 
L 298.71228 52.473402 
L 298.762909 52.710633 
L 298.96197 52.39946 
L 299.09469 51.768498 
L 299.369096 53.545461 
L 299.458192 51.92305 
L 299.618168 52.438985 
L 299.826935 52.686582 
L 300.075903 52.627156 
L 300.118274 53.879898 
L 300.324699 52.120424 
L 300.49011 52.16562 
L 300.832148 52.455771 
L 301.112921 52.12011 
L 301.154643 52.242305 
L 301.362236 52.08056 
L 301.530843 52.513173 
L 301.698668 51.63858 
L 301.835811 53.039932 
L 302.026745 51.639902 
L 302.567853 52.757273 
L 302.858153 52.428644 
L 302.899353 52.588415 
L 303.065972 51.920815 
L 303.313816 52.351195 
L 303.438081 53.468759 
L 303.564915 53.420368 
L 303.729451 53.687509 
L 303.895373 52.555242 
L 304.117223 52.45504 
L 304.270338 52.612662 
L 304.434877 51.33346 
L 304.599794 52.537478 
L 304.766122 52.36729 
L 304.973517 52.543445 
L 305.099461 52.228021 
L 305.46998 51.895476 
L 305.475902 65.390317 
L 305.639145 52.276854 
L 305.887001 53.774097 
L 306.012076 53.250711 
L 306.184017 53.208068 
L 306.345573 52.290051 
L 306.593697 52.258116 
L 306.676907 53.353229 
L 306.805438 52.308363 
L 307.008402 52.01275 
L 307.174443 52.466367 
L 307.34107 52.36306 
L 307.507939 52.035707 
L 307.799879 50.31659 
L 307.837875 53.895874 
L 308.087747 52.537784 
L 308.215475 52.653807 
L 308.544864 52.417397 
L 308.836812 52.499787 
L 308.923762 53.174953 
L 309.101398 52.324547 
L 309.250121 53.764233 
L 309.422157 53.595652 
L 309.45809 51.977411 
L 309.624294 51.311463 
L 309.790871 52.467371 
L 309.918006 52.012284 
L 310.082723 52.54913 
L 310.288257 52.48832 
L 310.619953 50.134914 
L 310.951654 54.185157 
L 311.118262 54.324771 
L 311.507522 52.416342 
L 311.659303 52.340561 
L 311.823265 35.946751 
L 311.99015 45.271271 
L 312.161281 47.226858 
L 312.336716 47.755531 
L 312.498394 48.646765 
L 312.661092 47.802162 
L 312.841523 50.48795 
L 313.075108 51.400175 
L 313.379178 53.028106 
L 313.577042 52.735632 
L 313.746276 54.717693 
L 313.950077 53.983858 
L 314.033802 54.724513 
L 314.201629 53.876974 
L 314.495707 56.061375 
L 314.578649 54.709356 
L 314.909075 54.667906 
L 315.166889 54.039162 
L 315.278734 55.172367 
L 315.48951 54.266276 
L 315.652905 54.813568 
L 315.818567 55.864277 
L 316.027603 53.886601 
L 316.194183 56.774456 
L 316.408253 54.427082 
L 316.507943 54.568895 
L 316.613191 53.758514 
L 316.797756 55.567144 
L 316.986216 55.528169 
L 317.20556 56.343741 
L 317.320802 58.302575 
L 317.564282 56.30871 
L 317.706398 57.325769 
L 317.85523 55.468965 
L 318.187507 57.242731 
L 318.353457 56.546445 
L 318.521708 57.672507 
L 318.782499 58.179569 
L 318.85217 57.425567 
L 319.100521 57.823449 
L 319.225076 57.215331 
L 319.409494 58.283275 
L 319.558885 59.860761 
L 319.841148 56.882198 
L 320.006421 57.863665 
L 320.136768 57.65468 
L 320.297066 60.876406 
L 320.629841 57.795109 
L 321.085565 60.549173 
L 321.335238 57.866007 
L 321.708592 60.16994 
L 321.79598 57.87129 
L 322.165521 60.60675 
L 322.331441 59.682339 
L 322.663992 61.684978 
L 322.833021 60.238351 
L 323.16259 61.887899 
L 323.335657 60.176513 
L 323.498092 61.131021 
L 323.706095 60.949233 
L 323.836843 61.126086 
L 324.038273 60.75575 
L 324.203811 60.782327 
L 324.370413 62.896494 
L 324.659943 61.538944 
L 324.721012 61.773066 
L 324.909506 61.594598 
L 325.116151 61.131478 
L 325.323389 62.502876 
L 325.448723 61.487159 
L 325.614606 63.462332 
L 325.785326 62.762316 
L 325.947257 62.861435 
L 326.072865 62.396053 
L 326.238562 62.645052 
L 326.412047 64.455905 
L 326.611344 62.888251 
L 326.78644 62.950477 
L 326.948721 64.490357 
L 327.207242 63.684025 
L 327.32073 65.002365 
L 327.360247 64.219601 
L 327.443537 63.196299 
L 327.669682 62.944974 
L 327.816366 64.908235 
L 328.108854 64.663127 
L 328.32193 63.628317 
L 328.481153 66.071275 
L 328.64752 64.653801 
L 328.940757 64.413066 
L 329.072537 63.997604 
L 329.236918 64.803438 
L 329.36207 66.764084 
L 329.694481 66.166076 
L 329.985262 66.757183 
L 330.151062 65.626667 
L 330.19387 66.025395 
L 330.481735 67.426518 
L 330.564866 64.683078 
L 330.731867 66.690538 
L 330.896731 66.613717 
L 331.186949 67.142694 
L 331.270016 66.768826 
L 331.436321 66.965422 
L 331.60623 67.441716 
L 331.643987 66.669837 
L 331.934519 69.124158 
L 332.102296 67.135857 
L 332.308094 66.446992 
L 332.43322 67.706497 
L 332.655635 67.73476 
L 332.767125 66.960908 
L 332.97483 69.825182 
L 333.140408 68.133513 
L 333.309014 68.944285 
L 333.514844 67.809613 
L 334.42815 70.163714 
L 334.679608 68.546337 
L 334.859288 69.49271 
L 335.009353 69.459801 
L 335.175884 68.77941 
L 335.347981 70.379245 
L 335.555985 71.027749 
L 335.931453 68.974302 
L 336.094646 70.559721 
L 336.261414 70.320998 
L 336.386343 69.926282 
L 336.593826 71.727994 
L 336.759288 70.917284 
L 337.036051 71.244146 
L 337.138595 70.994539 
L 337.261473 73.516798 
L 337.632443 70.752676 
L 337.845969 72.426989 
L 337.964258 70.774184 
L 338.137004 72.110809 
L 338.389539 71.682097 
L 338.463953 71.124706 
L 338.633677 71.100107 
L 338.797148 73.030437 
L 339.010774 73.371712 
L 339.338692 72.510693 
L 339.503594 73.587266 
L 339.674798 73.925602 
L 339.878088 72.611177 
L 340.005552 73.730377 
L 340.211833 73.104857 
L 340.417118 73.580573 
L 340.541933 73.201742 
L 340.832671 74.645234 
L 340.91533 74.614951 
L 341.073503 74.685103 
L 341.609234 73.763543 
L 341.737669 75.502477 
L 341.93982 75.735724 
L 342.151599 75.35317 
L 342.273927 76.92857 
L 342.406038 75.356173 
L 342.605046 75.139539 
L 342.771238 76.803043 
L 342.937427 77.089037 
L 343.102823 76.945664 
L 343.269013 75.587381 
L 343.435661 77.324122 
L 343.725777 77.119038 
L 343.829534 75.147709 
L 344.099723 77.135422 
L 344.182432 76.631474 
L 344.348416 77.596727 
L 344.514318 77.082362 
L 344.721412 77.777463 
L 344.813396 77.061331 
L 344.993925 77.047856 
L 345.181784 78.525889 
L 345.387017 78.162385 
L 345.525221 78.306741 
L 345.678126 78.783938 
L 345.845578 75.912734 
L 346.109824 77.608057 
L 346.219824 77.049592 
L 346.383739 79.669225 
L 346.774464 78.50743 
L 346.929406 78.069274 
L 347.13467 79.507216 
L 347.432378 78.069841 
L 347.610518 79.7481 
L 347.812893 79.067606 
L 347.897482 80.866122 
L 348.308348 78.300783 
L 348.515742 80.007419 
L 348.598891 79.337053 
L 348.806141 80.271215 
L 348.977588 82.202443 
L 349.304427 79.728565 
L 349.47129 79.64633 
L 349.678685 80.152595 
L 349.844641 81.394448 
L 350.175789 81.068117 
L 350.34163 82.097402 
L 350.508276 81.177917 
L 350.67893 81.238962 
L 350.841623 81.617971 
L 351.006434 81.524741 
L 351.380226 83.532989 
L 351.547773 82.097299 
L 351.75397 83.464313 
L 352.127203 81.493179 
L 352.302626 82.323138 
L 352.418432 82.289442 
L 352.791429 82.763643 
L 352.957356 82.957492 
L 353.098215 82.696474 
L 353.248422 83.73928 
L 353.45844 84.222119 
L 353.662257 82.801679 
L 353.953568 84.770724 
L 354.121182 82.976994 
L 354.285471 84.26912 
L 354.504945 83.736433 
L 354.629467 83.953352 
L 355.127769 83.555758 
L 355.169495 84.671939 
L 355.376697 83.312776 
L 355.670175 85.222209 
L 356.039958 85.366168 
L 356.165537 86.211879 
L 356.579788 85.983936 
L 356.70401 85.852901 
L 356.914665 87.003908 
L 357.080208 85.610692 
L 357.244975 87.606969 
L 357.577453 86.436288 
L 357.720344 87.142142 
L 358.151598 87.031001 
L 358.28907 86.747827 
L 358.455802 87.970444 
L 358.620771 88.120815 
L 358.787003 87.884947 
L 358.953268 88.365771 
L 359.118747 87.271836 
L 359.658684 89.766591 
L 359.783703 87.261244 
L 360.003568 88.514147 
L 360.156545 87.127541 
L 360.366132 89.548608 
L 360.695951 88.073157 
L 361.030356 89.83555 
L 361.070572 90.758707 
L 361.194597 88.685672 
L 361.858873 90.116822 
L 362.025558 91.070085 
L 362.273976 90.668872 
L 362.398408 89.477031 
L 362.522582 89.706082 
L 362.814933 89.872917 
L 362.854919 91.608708 
L 363.106715 91.444924 
L 363.275235 91.688446 
L 363.602606 91.171062 
L 363.768202 91.365044 
L 363.939195 91.079788 
L 364.150577 92.211356 
L 364.273641 91.216707 
L 364.445173 91.629148 
L 364.610802 90.718787 
L 364.780534 92.128343 
L 365.149659 92.986662 
L 365.277996 92.256622 
L 365.483121 93.863099 
L 365.693161 90.127389 
L 365.855104 93.770386 
L 366.032869 94.886146 
L 366.188117 92.198377 
L 366.482734 92.780506 
L 366.519435 93.247751 
L 366.685325 93.289269 
L 366.976192 93.138434 
L 367.185628 94.025024 
L 367.52992 94.241826 
L 367.74185 93.963481 
L 367.890856 94.793145 
L 368.069412 93.933663 
L 368.389692 95.913236 
L 368.556487 92.785006 
L 368.77355 95.992017 
L 369.054915 93.697121 
L 369.097542 95.018406 
L 369.261187 94.157004 
L 369.717568 95.758095 
L 369.809147 94.34575 
L 369.939491 96.388572 
L 370.18811 93.667472 
L 370.495833 95.928986 
L 370.654645 96.736935 
L 370.821023 96.623879 
L 370.98985 97.464908 
L 371.241892 95.073178 
L 371.352999 96.721528 
L 371.518107 96.761794 
L 371.766469 96.517215 
L 371.895995 98.080262 
L 372.018108 96.561579 
L 372.223325 97.32152 
L 372.437137 97.09305 
L 372.557244 97.244622 
L 372.764978 96.67602 
L 372.889091 97.752849 
L 373.068831 98.317173 
L 373.396931 98.866151 
L 373.59294 101.646428 
L 373.800147 106.589817 
L 373.926978 101.698884 
L 374.092259 101.783657 
L 374.464896 103.883462 
L 374.797878 101.815883 
L 374.967332 101.661547 
L 375.338508 98.759192 
L 375.461779 98.246364 
L 375.766989 98.291198 
L 375.927844 98.774692 
L 376.168486 98.38341 
L 376.368385 98.804411 
L 376.54214 98.799459 
L 376.8735 99.120985 
L 376.915065 99.034253 
L 377.164664 98.991884 
L 377.253625 99.135384 
L 377.539404 98.987241 
L 378.582937 98.942697 
L 379.871843 98.910874 
L 379.954105 97.800001 
L 380.126978 98.895972 
L 380.37551 99.093798 
L 381.081683 98.869169 
L 381.329692 99.085939 
L 381.579455 98.873152 
L 381.843829 98.949479 
L 382.496825 98.891922 
L 382.70284 98.229915 
L 382.865877 99.589196 
L 383.042724 98.940322 
L 383.197255 98.935371 
L 383.404982 99.290748 
L 383.548285 99.10989 
L 383.735709 99.085856 
L 383.950109 98.863769 
L 384.111251 99.007593 
L 385.136585 98.946517 
L 386.147949 98.975129 
L 387.351105 98.951443 
L 390.678549 98.951803 
L 396.446378 98.945869 
L 399.213256 98.946405 
L 406.103855 98.952674 
L 407.930074 98.945331 
L 408.695533 98.955553 
L 413.812511 98.946744 
L 416.745843 98.952679 
L 420.717427 98.94785 
L 422.431601 98.951213 
L 426.71952 98.945695 
L 426.71952 98.945695 
" clip-path="url(#p9a9ab8756d)" style="fill: none; stroke: #0000ff; stroke-opacity: 0.5; stroke-width: 1.75; stroke-linecap: square"/>
   </g>
   <g id="line2d_34">
    <path d="M 38.502813 122.175488 
L 38.586372 119.470777 
L 38.755356 123.591511 
L 38.804889 120.617367 
L 38.925958 121.285063 
L 39.138881 123.492901 
L 39.341015 121.70974 
L 39.465054 123.367894 
L 39.755109 121.951711 
L 39.921427 122.536181 
L 39.962962 124.610449 
L 40.419091 123.624533 
L 40.502338 124.005112 
L 40.629228 123.842739 
L 40.959149 124.428748 
L 41.165207 122.143745 
L 41.373431 123.259173 
L 41.581581 122.39934 
L 41.745801 119.943691 
L 41.963998 124.47557 
L 42.03648 121.710931 
L 42.202052 123.449256 
L 42.369418 120.121976 
L 42.744351 122.944232 
L 42.907635 123.526143 
L 43.073346 121.479078 
L 43.281243 121.381127 
L 43.489221 123.954105 
L 43.619341 123.540476 
L 43.840433 123.889409 
L 43.947639 120.397984 
L 44.113335 124.123532 
L 44.279421 121.843871 
L 44.570921 124.695267 
L 44.696674 123.089252 
L 44.777286 125.311293 
L 44.947605 125.459542 
L 45.11271 124.281895 
L 45.280153 125.398262 
L 45.483826 124.470289 
L 45.903891 126.053596 
L 46.80912 126.07449 
L 47.717034 122.904471 
L 48.624371 120.879509 
L 49.532758 122.299153 
L 50.440343 125.270003 
L 51.431258 126.275818 
L 52.421423 123.354123 
L 53.329477 122.466792 
L 53.427299 123.480423 
L 53.758412 121.029225 
L 53.924577 121.136977 
L 54.131233 122.014042 
L 54.339744 120.621093 
L 54.629176 125.524166 
L 54.757348 119.584332 
L 55.131559 122.502513 
L 55.295037 119.468178 
L 55.627036 127.122515 
L 56.000476 120.439804 
L 56.13528 121.142258 
L 56.333064 121.566807 
L 56.746749 125.363898 
L 56.829666 121.12664 
L 56.995956 124.884369 
L 57.162972 124.881454 
L 57.380299 121.699986 
L 57.708895 126.420329 
L 57.909483 122.849294 
L 58.243276 125.314366 
L 58.283578 122.702143 
L 58.40757 122.006982 
L 58.617422 126.61539 
L 58.738834 125.049946 
L 58.906011 120.421593 
L 59.112035 119.357901 
L 59.319447 120.22195 
L 59.444054 122.104602 
L 59.57008 121.893591 
L 59.734499 120.19919 
L 60.149775 125.224877 
L 60.482862 118.22976 
L 60.780423 126.918617 
L 60.985313 122.664708 
L 61.31567 124.606998 
L 61.399524 127.366817 
L 61.522231 123.953893 
L 61.856638 122.597605 
L 62.061554 123.513648 
L 62.228562 127.724552 
L 62.352275 125.509071 
L 62.811021 121.083833 
L 63.016444 120.936539 
L 63.057464 122.600494 
L 63.223481 123.631033 
L 63.38946 123.492704 
L 63.555706 124.906949 
L 63.762615 124.411137 
L 63.969792 119.759613 
L 64.138491 121.841644 
L 64.393611 125.780542 
L 64.426358 125.377639 
L 64.59281 125.387673 
L 64.799248 121.790493 
L 64.924123 121.881299 
L 65.133243 122.817025 
L 65.296761 119.421051 
L 65.629405 126.677277 
L 66.001911 118.659876 
L 66.12709 121.781954 
L 66.666937 125.047845 
L 66.831905 123.694843 
L 66.998738 125.809283 
L 67.329425 120.245568 
L 67.712556 130.111015 
L 68.035141 123.873537 
L 68.203445 126.356456 
L 68.532447 125.935738 
L 68.615701 121.916735 
L 68.704602 122.239234 
L 68.870271 127.671084 
L 69.071897 125.94016 
L 69.19689 121.54983 
L 69.362975 122.942833 
L 69.610891 126.622731 
L 69.900835 117.536238 
L 70.067893 118.693866 
L 70.232949 124.401383 
L 70.442476 123.653191 
L 70.647809 119.973021 
L 71.103606 126.483183 
L 71.269688 124.871902 
L 71.435806 124.969169 
L 71.692611 124.696491 
L 72.057258 120.185012 
L 72.306769 127.025755 
L 72.472629 125.267073 
L 72.846086 118.307711 
L 73.219987 123.570124 
L 73.347664 126.043108 
L 73.635317 125.603365 
L 73.71742 126.063473 
L 74.008375 125.942308 
L 74.339542 120.874949 
L 74.387394 122.656817 
L 74.795672 123.856664 
L 75.210143 122.959492 
L 75.500665 122.084984 
L 75.749183 123.681077 
L 75.956217 123.34902 
L 76.247047 120.451959 
L 76.412002 120.645385 
L 76.992949 126.888322 
L 77.326234 119.375549 
L 77.699691 128.300741 
L 77.823074 128.263144 
L 78.156673 124.425054 
L 78.550041 123.352041 
L 78.821169 122.161804 
L 78.942776 126.13452 
L 78.988623 129.131396 
L 79.400009 120.467079 
L 79.743602 127.357622 
L 79.94089 127.217553 
L 80.037769 122.377081 
L 80.229943 118.421254 
L 80.610261 124.339841 
L 80.818879 120.583538 
L 80.99713 120.38104 
L 81.146019 123.165814 
L 81.560211 124.341587 
L 81.654305 118.355421 
L 82.588081 118.765605 
L 83.490609 120.131858 
L 84.484611 121.217879 
L 84.539711 114.529278 
L 84.66477 113.064965 
L 85.082764 121.93433 
L 85.245405 127.207612 
L 85.508625 129.699976 
L 85.675042 126.804766 
L 85.759498 120.293693 
L 86.057746 115.201898 
L 86.760071 125.484666 
L 86.968483 121.561565 
L 87.095991 116.488376 
L 87.299607 114.186826 
L 87.48207 117.501712 
L 87.881858 129.934327 
L 87.964585 130.239518 
L 88.506917 112.268997 
L 88.631045 113.031837 
L 89.143635 123.588719 
L 89.342647 119.892357 
L 89.506136 119.108644 
L 89.671525 121.839179 
L 90.006064 128.709359 
L 90.709146 119.876544 
L 90.881089 122.518235 
L 91.093336 123.562563 
L 91.404457 115.595609 
L 91.642758 115.780757 
L 91.942447 126.394049 
L 92.376081 128.576715 
L 92.570173 119.283424 
L 92.63124 117.797088 
L 92.750864 120.580674 
L 92.964533 121.574687 
L 93.20664 121.869336 
L 93.289089 122.351 
L 93.454909 122.054166 
L 93.620737 120.863281 
L 93.828095 120.841859 
L 93.954799 121.45857 
L 94.337513 127.02379 
L 94.708442 127.035013 
L 94.871228 129.210038 
L 95.078358 130.073928 
L 95.164617 127.024269 
L 95.410511 122.95848 
L 95.624723 124.731897 
L 95.700833 131.716189 
L 95.844986 133.8779 
L 96.200006 125.581469 
L 96.533178 130.752856 
L 96.698446 129.91588 
L 97.028904 129.848215 
L 97.074634 131.040847 
L 97.245392 126.573394 
L 97.401903 119.338841 
L 97.699946 115.250803 
L 97.775202 119.937904 
L 97.982493 121.192881 
L 98.233138 116.272707 
L 98.438057 116.755382 
L 98.646014 115.662448 
L 98.77191 113.939937 
L 98.97864 116.016029 
L 99.278061 124.626633 
L 99.479906 122.801148 
L 99.649089 119.812974 
L 99.813818 120.282176 
L 99.975938 121.486274 
L 100.349394 118.518722 
L 100.598244 120.007855 
L 100.84697 124.57119 
L 101.096004 124.506126 
L 101.17921 124.088167 
L 101.344827 123.871601 
L 101.553004 123.9136 
L 101.759046 123.84048 
L 101.966145 124.346482 
L 102.051522 125.251252 
L 102.381921 120.991503 
L 102.547567 119.012408 
L 102.713209 118.828647 
L 103.12737 121.993504 
L 103.252732 122.063908 
L 103.419261 122.300379 
L 104.303186 130.091537 
L 104.664595 125.295165 
L 104.976665 131.096444 
L 105.466524 119.286741 
L 105.84727 128.42175 
L 106.169076 121.554328 
L 106.543079 124.318534 
L 106.958774 119.523703 
L 107.130818 122.01848 
L 107.3753 128.965178 
L 107.747893 124.73882 
L 108.04783 128.491953 
L 108.297433 127.134109 
L 108.449944 125.115588 
L 108.659045 124.857018 
L 108.782339 123.916405 
L 109.114869 122.318784 
L 109.280227 122.369964 
L 109.448473 123.336268 
L 109.623216 121.601744 
L 109.946682 114.758389 
L 110.288654 118.234453 
L 110.456049 129.180941 
L 110.662074 127.56448 
L 110.994486 117.528404 
L 111.159567 117.281451 
L 111.662038 129.305601 
L 111.989816 125.588327 
L 112.196663 120.921363 
L 112.362925 123.1352 
L 112.698424 129.834528 
L 112.859922 128.221352 
L 113.321516 115.919139 
L 113.398649 116.430571 
L 113.776225 125.300115 
L 114.066584 118.5883 
L 114.2706 118.565028 
L 114.601328 123.783402 
L 114.891575 125.45766 
L 115.099502 120.762021 
L 115.431779 120.561947 
L 115.638632 122.038324 
L 115.80555 121.044299 
L 116.095338 117.746449 
L 116.137027 115.723572 
L 116.385323 118.090981 
L 116.468387 123.972725 
L 116.716859 127.556402 
L 117.01656 123.752022 
L 117.25945 118.749043 
L 117.545031 126.284867 
L 117.710841 127.111137 
L 118.045006 122.775765 
L 118.084294 120.334766 
L 118.293001 117.617364 
L 118.541457 125.298128 
L 118.802157 127.591807 
L 119.079652 117.020387 
L 119.286983 116.678924 
L 119.785263 129.719454 
L 119.951768 129.388377 
L 120.201611 124.969649 
L 120.286958 121.142035 
L 120.449973 122.662236 
L 120.822762 135.478123 
L 120.988512 135.564384 
L 121.445842 118.63491 
L 121.693199 116.804387 
L 122.15039 125.568888 
L 122.688828 113.708916 
L 122.899286 116.048432 
L 123.186902 128.981766 
L 123.476608 131.588677 
L 123.891834 119.442163 
L 124.398906 132.470199 
L 124.559032 131.153346 
L 124.93016 121.958677 
L 125.098314 123.038015 
L 125.431834 133.727308 
L 125.593972 132.326835 
L 125.933591 119.820056 
L 126.091208 120.093741 
L 126.505673 122.974118 
L 126.672368 121.222444 
L 126.962461 114.552906 
L 127.129093 115.403526 
L 127.294422 118.284183 
L 127.542028 120.609 
L 127.832088 114.87714 
L 128.039652 115.347696 
L 128.413767 125.177351 
L 128.538294 125.039029 
L 128.703848 125.161774 
L 128.870071 124.895483 
L 129.201434 126.867909 
L 129.408601 126.727833 
L 129.661747 125.61369 
L 129.906815 123.691911 
L 130.239123 126.11167 
L 130.572201 123.007892 
L 130.864623 123.372056 
L 130.985567 124.388802 
L 131.48284 125.138766 
L 131.649393 125.235212 
L 131.961904 120.992776 
L 132.312427 125.623152 
L 132.568539 122.747501 
L 132.645334 118.870443 
L 132.882257 121.04925 
L 132.990985 127.403023 
L 133.144877 127.779592 
L 133.519284 121.283207 
L 133.84946 128.116036 
L 134.223187 121.827583 
L 134.56689 127.005114 
L 134.893828 119.750581 
L 135.385075 126.768047 
L 135.922919 120.514442 
L 136.266318 120.933908 
L 136.627928 130.373948 
L 136.918521 132.154599 
L 137.179339 123.048016 
L 137.332428 124.396807 
L 137.64509 132.679463 
L 138.1409 124.690097 
L 138.304691 125.117221 
L 138.554916 122.458052 
L 138.802793 122.320502 
L 139.179931 126.50316 
L 139.359433 127.15661 
L 139.524878 127.228077 
L 140.063941 122.333833 
L 140.398704 126.995146 
L 140.574233 124.900443 
L 140.742535 120.145759 
L 140.977349 117.283898 
L 141.26748 126.254652 
L 141.434008 127.042505 
L 141.765256 117.732447 
L 141.944207 117.975672 
L 142.179553 120.572697 
L 142.470084 121.548814 
L 142.677252 122.905218 
L 142.843209 123.168513 
L 142.96762 122.712089 
L 143.132982 123.320312 
L 143.299242 123.178011 
L 143.63131 122.309889 
L 143.796412 120.452192 
L 143.879377 121.678176 
L 144.170493 131.488009 
L 144.376725 128.770339 
L 144.508671 124.122644 
L 144.709156 124.472201 
L 145.044651 135.385921 
L 145.25827 137.271042 
L 145.876184 116.762221 
L 146.21044 123.411922 
L 146.621175 115.540397 
L 146.993667 119.708741 
L 147.326386 121.24848 
L 147.493555 125.089628 
L 147.698753 127.224913 
L 147.78194 123.905721 
L 147.947862 122.789791 
L 148.113469 127.302144 
L 148.320456 126.537166 
L 148.448415 120.097222 
L 148.65207 119.510792 
L 148.984509 129.152762 
L 149.318724 124.409627 
L 149.484374 126.902796 
L 149.663221 126.690208 
L 149.897468 121.579221 
L 150.066368 124.473802 
L 150.190357 130.210243 
L 150.394179 127.668846 
L 150.601677 123.330128 
L 150.887092 129.713332 
L 151.061785 128.679951 
L 151.224985 122.989727 
L 151.392201 122.340905 
L 151.573428 128.526825 
L 151.732652 129.379378 
L 152.100754 125.025924 
L 152.432337 127.674752 
L 152.680639 126.695275 
L 152.763658 125.523954 
L 152.932301 125.419867 
L 153.137106 126.578992 
L 153.343857 126.563683 
L 153.4682 127.028174 
L 153.634433 126.822101 
L 153.885753 126.707693 
L 154.214287 125.253203 
L 154.381146 125.637999 
L 154.670298 134.069867 
L 154.842757 133.791811 
L 155.350152 125.301131 
L 155.583946 130.684433 
L 155.79104 128.360976 
L 156.039565 120.37502 
L 156.205848 120.044155 
L 156.373269 120.895229 
L 156.579114 119.840355 
L 156.829139 120.05926 
L 156.917986 121.694318 
L 157.077547 122.465059 
L 157.242865 121.345027 
L 157.540721 120.921718 
L 157.700653 122.431888 
L 157.783791 125.289854 
L 157.950262 124.381568 
L 158.279995 120.182973 
L 158.44686 119.324729 
L 158.777487 116.312168 
L 159.122653 123.175404 
L 159.441709 122.614364 
L 159.483749 118.578131 
L 159.648926 114.717311 
L 159.81518 113.930802 
L 160.022626 118.796209 
L 160.353977 129.325945 
L 160.6855 120.129371 
L 161.018938 112.252331 
L 161.184162 112.488296 
L 161.68295 122.054052 
L 161.889294 120.670341 
L 162.055113 116.291287 
L 162.263441 114.675847 
L 162.967115 134.243636 
L 163.13347 131.656864 
L 163.423383 119.722658 
L 163.589353 113.976546 
L 163.92475 110.77513 
L 164.265002 109.329077 
L 164.293978 108.287606 
L 164.46354 107.765355 
L 164.636016 112.225927 
L 165.209182 127.494187 
L 165.584616 132.58387 
L 165.830019 140.711236 
L 166.162386 140.913778 
L 166.867456 120.609082 
L 167.37214 124.585421 
L 167.592103 124.429861 
L 167.740271 125.926264 
L 168.238021 133.858566 
L 168.445166 134.852733 
L 168.611864 134.817285 
L 168.776803 134.580143 
L 168.942218 136.181857 
L 169.107821 136.546453 
L 169.315652 134.060163 
L 169.93992 109.77006 
L 170.144858 106.71223 
L 170.311488 107.599717 
L 170.476552 109.471132 
L 170.683728 109.414007 
L 170.85002 109.818231 
L 171.184495 114.590808 
L 171.390371 116.228277 
L 171.640165 116.018049 
L 171.853342 119.453436 
L 172.224076 120.505204 
L 172.390467 120.210089 
L 172.597282 118.468711 
L 172.890431 112.786439 
L 173.219585 112.699634 
L 173.344281 113.472612 
L 173.426692 111.629681 
L 173.965146 107.129148 
L 174.256107 107.634234 
L 174.421625 107.293334 
L 174.629721 104.55789 
L 174.960194 106.849101 
L 175.126335 109.228325 
L 175.512596 118.671123 
L 175.717338 120.434273 
L 175.842435 119.126193 
L 175.966082 115.156579 
L 176.174618 112.414222 
L 176.339554 112.708874 
L 177.086584 105.227345 
L 177.211731 102.394988 
L 177.500898 99.931276 
L 178.206907 117.792703 
L 178.376506 118.293238 
L 178.579448 118.129064 
L 178.706389 116.130454 
L 178.910895 116.19961 
L 179.24249 119.272306 
L 180.112916 113.064873 
L 180.321054 112.473656 
L 180.735556 106.457994 
L 180.860072 102.775055 
L 181.066874 102.486325 
L 181.152699 103.0726 
L 181.523004 98.882922 
L 181.649551 98.880013 
L 182.00196 101.458757 
L 182.519423 111.456664 
L 182.684974 112.028327 
L 183.005638 109.736766 
L 183.185199 105.976556 
L 183.389727 106.855912 
L 183.556317 102.37525 
L 183.721917 101.346238 
L 183.886987 103.652523 
L 184.052953 101.92746 
L 184.509088 100.58063 
L 184.634012 97.372387 
L 184.966286 100.447763 
L 185.321087 111.575174 
L 185.506274 115.789981 
L 185.589918 115.416656 
L 185.770503 114.190961 
L 186.336448 102.707658 
L 186.462318 103.351914 
L 186.667948 102.815734 
L 186.834352 101.689526 
L 187.041777 101.26401 
L 187.208633 102.049502 
L 187.335181 104.376028 
L 187.498644 105.317951 
L 187.705807 104.845508 
L 188.244543 108.859568 
L 188.369759 112.499766 
L 188.535505 112.823298 
L 188.702007 110.8752 
L 188.868699 111.15767 
L 189.033047 114.724034 
L 189.323182 109.727476 
L 189.737865 119.101747 
L 190.527056 100.819433 
L 190.611255 92.947563 
L 191.107627 83.26602 
L 191.356029 83.225789 
L 191.614938 91.0399 
L 191.811547 90.016565 
L 192.417055 94.908693 
L 192.518548 97.446652 
L 193.016079 88.35976 
L 193.265275 90.364408 
L 193.525223 85.157243 
L 193.979383 90.096751 
L 194.056481 90.465864 
L 194.225003 87.673978 
L 194.548805 89.35099 
L 194.797579 88.828887 
L 194.922159 93.085716 
L 195.212183 94.336958 
L 195.295114 89.260144 
L 195.586589 82.047171 
L 196.291833 96.009226 
L 196.580732 92.693367 
L 196.748291 87.527106 
L 196.912717 86.137568 
L 196.954617 84.72226 
L 197.119948 83.989305 
L 197.327727 84.438285 
L 197.700895 85.902423 
L 197.86703 89.39939 
L 198.003553 85.056046 
L 198.405795 81.584377 
L 199.028913 91.926813 
L 199.235536 91.35957 
L 199.483734 89.773955 
L 199.732634 85.738966 
L 200.022637 85.340137 
L 200.0651 84.942384 
L 200.230265 85.215048 
L 200.479468 83.206565 
L 200.648575 86.039097 
L 200.769743 82.442491 
L 200.936176 86.414687 
L 201.144172 86.410639 
L 201.269763 87.594687 
L 201.433198 93.899174 
L 201.599156 88.58519 
L 201.771257 87.99169 
L 202.096849 90.408282 
L 202.32375 91.08111 
L 202.497627 90.995264 
L 202.802977 88.59239 
L 202.933285 88.809749 
L 203.066925 89.385027 
L 203.258895 91.292876 
L 203.345358 89.462839 
L 203.591491 88.957531 
L 203.881319 85.143632 
L 204.010432 79.639592 
L 204.30162 80.118822 
L 204.466335 75.529749 
L 204.544957 78.564937 
L 204.842997 80.462795 
L 204.974216 78.404303 
L 205.211776 85.877026 
L 205.458934 79.55904 
L 205.562396 82.518351 
L 205.958517 76.898236 
L 206.123628 79.214207 
L 206.249665 71.428989 
L 206.455061 74.167192 
L 206.579877 74.22287 
L 206.787181 79.181199 
L 206.953379 78.179892 
L 207.326492 82.948623 
L 207.533153 81.53212 
L 207.628418 77.900541 
L 207.823123 80.115622 
L 207.950223 72.272274 
L 207.989909 74.945709 
L 208.654127 61.02256 
L 208.819692 60.211138 
L 209.06875 67.553912 
L 209.364106 59.908264 
L 209.694221 67.169313 
L 209.898115 68.948693 
L 210.022111 65.875741 
L 210.190221 74.084606 
L 210.562104 73.326271 
L 210.72769 74.080598 
L 210.897039 71.088995 
L 211.060182 65.295268 
L 211.229053 63.906269 
L 211.394521 59.982333 
L 211.572053 66.537312 
L 211.726285 62.880874 
L 212.102259 68.189642 
L 212.265662 61.558391 
L 212.431349 64.940805 
L 212.597417 62.342148 
L 212.805319 64.614287 
L 213.097541 75.260736 
L 213.345276 73.309932 
L 213.635086 73.506877 
L 213.718524 64.190757 
L 213.800791 65.269765 
L 214.091247 58.185409 
L 214.136742 65.751722 
L 214.329273 62.442252 
L 214.517147 56.714136 
L 214.645376 61.311543 
L 214.961804 54.327542 
L 215.003774 65.081008 
L 215.169079 65.349439 
L 215.376665 63.408723 
L 215.542481 63.36889 
L 215.915184 70.507257 
L 216.043251 69.627487 
L 216.206865 63.805793 
L 216.41344 60.572079 
L 216.58419 61.934996 
L 216.745894 54.59539 
L 216.870653 59.375481 
L 217.076131 57.352143 
L 217.242437 60.974104 
L 217.454308 60.311314 
L 217.614932 53.337812 
L 217.947678 56.275154 
L 218.073785 56.289211 
L 218.320226 54.926196 
L 218.452737 52.954196 
L 218.652175 56.860308 
L 218.778428 53.480705 
L 219.108845 61.396896 
L 219.27589 62.956874 
L 219.48269 57.116106 
L 219.647945 58.598414 
L 219.813668 57.233475 
L 220.16022 59.644092 
L 220.313743 63.491759 
L 220.561116 57.702151 
L 220.685603 60.544635 
L 220.851507 53.070846 
L 221.028229 53.135554 
L 221.185178 50.398093 
L 221.473407 61.143997 
L 221.556393 59.019381 
L 221.76367 66.574861 
L 221.888417 60.328857 
L 222.13683 61.993352 
L 222.261216 61.230247 
L 222.386698 63.376848 
L 222.551674 57.473041 
L 222.75861 58.124906 
L 222.900334 56.234197 
L 223.095895 57.171935 
L 223.506579 49.745034 
L 223.879809 48.925842 
L 224.088084 46.944189 
L 224.128783 50.302816 
L 224.294277 52.541028 
L 224.501503 51.217864 
L 224.628545 52.306269 
L 224.87638 50.359221 
L 224.999346 41.735535 
L 225.30129 53.545167 
L 225.500074 53.518292 
L 225.930244 54.746174 
L 226.047075 57.937716 
L 226.207896 52.614564 
L 226.374016 61.629004 
L 226.583675 57.89876 
L 226.755858 57.761156 
L 227.012404 54.780946 
L 227.342758 49.507872 
L 227.392505 46.125306 
L 227.592455 48.959 
L 227.758081 42.022664 
L 227.883821 50.104838 
L 228.131341 48.281742 
L 228.512468 52.89018 
L 228.630703 44.606348 
L 228.795006 48.162678 
L 229.043821 57.988455 
L 229.13178 55.799912 
L 229.292654 57.026538 
L 229.541201 57.06522 
L 229.626368 4.251601 
L 230.038834 25.659413 
L 230.338196 82.695968 
L 230.577786 92.066993 
L 230.662431 104.078928 
L 231.035274 119.758837 
L 231.283205 123.030451 
L 231.577432 114.176398 
L 231.880109 103.127137 
L 232.04936 81.458502 
L 232.258259 73.503343 
L 232.337894 56.100941 
L 232.792382 36.836343 
L 233.206972 34.014735 
L 233.624338 47.103395 
L 233.999199 51.998971 
L 234.080582 61.874869 
L 234.286248 62.720208 
L 234.451681 70.353907 
L 234.576824 70.898279 
L 234.783175 68.664059 
L 234.950203 61.644317 
L 235.11523 60.596658 
L 235.450774 48.333954 
L 235.655156 52.304625 
L 235.988508 47.2678 
L 236.151866 49.287128 
L 236.817354 65.278175 
L 237.106334 68.77736 
L 237.189713 71.803711 
L 237.482227 68.893971 
L 237.527784 70.775511 
L 237.895417 58.022369 
L 238.2678 50.05961 
L 238.392143 44.905409 
L 238.558722 46.985856 
L 238.892169 44.272725 
L 239.115918 49.436071 
L 239.387212 50.910443 
L 239.428711 57.418028 
L 239.928434 66.081247 
L 240.092821 67.407075 
L 240.259079 72.62745 
L 240.466943 65.385292 
L 240.729629 65.858246 
L 240.963756 55.259312 
L 241.128739 58.455073 
L 241.502199 52.611209 
L 241.710003 53.366899 
L 241.835474 52.63226 
L 242.041257 55.934494 
L 242.218911 55.334403 
L 242.55692 63.300926 
L 242.710371 61.982584 
L 242.87028 62.264714 
L 243.036737 61.395781 
L 243.201958 58.299058 
L 243.409889 57.268446 
L 243.742776 50.590481 
L 243.908832 51.831272 
L 244.246002 48.515524 
L 244.619322 56.151212 
L 244.800421 58.298331 
L 245.111215 64.084802 
L 245.278198 65.092493 
L 245.774819 72.696372 
L 245.941777 71.075131 
L 246.106994 66.123802 
L 246.396875 64.295824 
L 246.813778 55.965604 
L 246.983913 58.672932 
L 247.250664 52.594248 
L 247.329504 56.971283 
L 247.528581 57.309206 
L 247.769858 64.032609 
L 247.852662 61.927577 
L 248.224944 64.441872 
L 248.348878 64.537041 
L 248.556392 65.144976 
L 248.763845 59.254868 
L 248.88818 59.710241 
L 249.054 58.024134 
L 249.22004 54.670945 
L 249.386714 53.986451 
L 249.596948 49.605134 
L 249.718457 49.495892 
L 250.066819 55.156781 
L 250.25687 57.948328 
L 250.506274 57.6332 
L 250.603771 63.507523 
L 250.920532 67.634384 
L 251.210704 67.396925 
L 251.293338 68.02847 
L 251.501144 65.028922 
L 251.792847 58.546563 
L 252.165822 50.49332 
L 252.293748 52.883335 
L 252.496563 49.249534 
L 252.706411 49.355124 
L 252.871106 53.1154 
L 252.99455 49.570978 
L 253.574021 60.674581 
L 253.864927 63.784095 
L 254.156567 62.946822 
L 254.198387 60.080962 
L 254.542501 56.746287 
L 254.698803 54.038724 
L 254.944477 55.170869 
L 255.405016 50.024163 
L 255.607942 54.529975 
L 255.815387 51.060834 
L 256.271124 66.158257 
L 256.519706 59.379905 
L 256.645377 63.771845 
L 256.852167 61.384237 
L 257.059435 62.189661 
L 257.308719 56.626101 
L 257.55682 58.630169 
L 257.848371 51.887122 
L 258.13694 52.938442 
L 258.344332 47.928985 
L 258.676182 54.895383 
L 258.883911 58.077895 
L 259.090992 59.510086 
L 259.180042 56.971496 
L 259.390162 60.603062 
L 259.555059 60.616986 
L 259.878695 56.365866 
L 260.170453 55.284344 
L 260.25215 58.121733 
L 260.378588 54.71759 
L 260.833066 50.59913 
L 260.925458 50.662462 
L 261.291853 54.222431 
L 261.457507 54.745212 
L 261.793777 59.174479 
L 262.121079 60.133932 
L 262.333093 58.781329 
L 262.501148 56.548478 
L 262.702624 61.755568 
L 262.787279 55.192817 
L 262.963238 56.766716 
L 263.162493 55.151029 
L 263.333761 56.624119 
L 263.698297 52.874794 
L 263.86419 55.64632 
L 264.030171 56.417501 
L 264.230218 55.390071 
L 264.406474 61.287954 
L 264.559477 56.522027 
L 264.697618 57.279181 
L 264.902419 54.485221 
L 265.234129 58.697529 
L 265.39929 58.203412 
L 265.73121 55.510127 
L 265.896843 54.590557 
L 266.104126 59.859363 
L 266.651561 50.157423 
L 266.812423 54.120511 
L 267.265749 59.535909 
L 267.474411 59.339043 
L 267.637873 56.400673 
L 267.858294 56.069828 
L 267.971726 59.156946 
L 268.181608 55.348025 
L 268.387957 56.817455 
L 268.679162 53.053193 
L 269.010967 54.391036 
L 269.302164 59.148101 
L 269.38594 53.82878 
L 269.676314 57.003882 
L 269.841292 56.758433 
L 270.047991 54.684109 
L 270.216902 57.515624 
L 270.379728 57.409417 
L 270.545791 57.439204 
L 270.925041 55.642389 
L 271.125855 54.886914 
L 271.377489 55.144871 
L 271.583198 54.084562 
L 271.872285 52.040484 
L 271.913154 63.554245 
L 272.165896 57.763622 
L 272.413556 56.039621 
L 272.669632 55.425736 
L 272.784705 56.876995 
L 272.952115 56.822388 
L 273.199024 60.745655 
L 273.324085 60.937119 
L 273.53568 58.137177 
L 273.657953 62.31296 
L 273.82134 57.077163 
L 274.112316 57.163417 
L 274.196583 57.781909 
L 274.321023 53.515127 
L 274.485885 52.524936 
L 274.680553 55.705619 
L 274.859595 55.415727 
L 275.026064 55.652799 
L 275.191841 56.579505 
L 275.398863 53.887652 
L 275.523705 58.297353 
L 275.773336 58.012774 
L 275.93834 60.600124 
L 276.06276 59.062306 
L 276.311749 58.128209 
L 276.394572 55.153117 
L 276.768191 52.553517 
L 276.933694 54.624724 
L 277.306299 56.150631 
L 277.602201 55.306717 
L 277.762832 56.263943 
L 277.929639 54.451972 
L 278.136501 58.812356 
L 278.260601 58.890862 
L 278.468023 59.352689 
L 278.633894 57.785494 
L 278.799534 53.508071 
L 279.131096 56.366398 
L 279.298515 56.494136 
L 279.587963 55.712681 
L 279.669679 53.686881 
L 279.878463 55.155914 
L 280.084202 54.641765 
L 280.254342 57.502723 
L 280.374434 53.594796 
L 280.707091 57.953803 
L 280.87328 56.888717 
L 281.162822 56.11439 
L 281.246472 51.31842 
L 281.452269 58.61769 
L 281.577205 57.06386 
L 281.742667 58.228337 
L 281.908955 54.880672 
L 282.115753 55.523512 
L 282.240239 54.734704 
L 282.613615 54.232161 
L 282.946243 56.358855 
L 283.195056 56.938726 
L 283.277358 54.999636 
L 283.443835 55.763395 
L 283.652216 59.293908 
L 284.147687 55.600458 
L 284.410977 55.248556 
L 284.483738 54.289694 
L 284.645807 56.336122 
L 284.812589 51.95973 
L 285.020143 54.487779 
L 285.146679 56.13387 
L 285.434405 52.909827 
L 285.589971 58.479704 
L 285.683437 56.3427 
L 286.185335 55.594865 
L 286.387779 55.550757 
L 286.637106 53.860627 
L 286.719907 51.699325 
L 286.927579 52.708214 
L 287.096915 52.69984 
L 287.259239 51.650833 
L 287.717488 56.42484 
L 288.088619 57.874046 
L 288.254177 55.625937 
L 288.503461 58.353698 
L 288.627545 58.471886 
L 288.793406 60.639452 
L 288.959052 58.937656 
L 289.125201 62.240875 
L 289.333503 61.875887 
L 289.748963 57.626621 
L 289.914395 60.317221 
L 289.9972 52.585003 
L 290.163188 52.616784 
L 290.33018 53.401593 
L 290.500979 50.299889 
L 290.702783 49.185459 
L 291.034183 53.437428 
L 291.242118 53.470235 
L 291.574797 60.680904 
L 291.698397 54.892109 
L 291.864183 56.939319 
L 292.237578 55.408534 
L 292.370664 59.502101 
L 292.534833 56.683621 
L 292.735873 56.323143 
L 293.069791 58.085208 
L 293.235936 55.754236 
L 293.449229 60.471066 
L 293.607703 56.353043 
L 293.939573 58.219249 
L 294.107757 61.657011 
L 294.273493 57.719841 
L 294.477985 57.81024 
L 294.645483 56.086825 
L 294.851356 56.68454 
L 294.977207 62.538777 
L 295.14194 62.427254 
L 295.30829 57.696856 
L 295.475827 57.392153 
L 295.724217 55.197788 
L 295.849825 60.71872 
L 296.015508 54.718022 
L 296.21135 53.47567 
L 296.43168 53.325778 
L 296.595835 50.034219 
L 296.678688 56.769149 
L 296.845169 58.328543 
L 297.052033 54.939942 
L 297.260455 56.510315 
L 297.385752 58.61267 
L 297.551585 56.40935 
L 297.759453 57.20452 
L 297.882771 56.166193 
L 298.090962 55.944545 
L 298.256243 56.859917 
L 298.422527 50.857506 
L 298.71228 53.46238 
L 298.762909 52.511624 
L 298.96197 53.753338 
L 299.09469 56.115027 
L 299.369096 53.142049 
L 299.458192 58.028976 
L 299.618168 58.173525 
L 299.826935 58.535926 
L 300.075903 59.47233 
L 300.118274 57.246663 
L 300.324699 60.648072 
L 300.658258 57.297575 
L 300.832148 55.640228 
L 301.112921 55.931211 
L 301.154643 55.14936 
L 301.362236 55.073332 
L 301.530843 54.339233 
L 301.698668 56.668481 
L 301.835811 54.526416 
L 302.026745 59.017857 
L 302.567853 57.933588 
L 302.858153 58.180152 
L 302.899353 57.371633 
L 303.065972 59.073997 
L 303.313816 58.041058 
L 303.564915 54.614292 
L 303.729451 53.168396 
L 303.895373 54.916668 
L 304.270338 54.397553 
L 304.434877 58.088077 
L 304.599794 56.247962 
L 304.766122 57.275924 
L 304.973517 57.473973 
L 305.099461 58.589971 
L 305.46998 59.325564 
L 305.475902 28.906166 
L 305.639145 57.730406 
L 305.887001 54.491695 
L 306.012076 55.428728 
L 306.184017 55.104354 
L 306.345573 56.671716 
L 306.593697 56.025646 
L 306.676907 53.163366 
L 306.805438 55.454392 
L 307.008402 56.503058 
L 307.174443 56.172504 
L 307.507939 57.686279 
L 307.799879 62.067938 
L 307.837875 54.81356 
L 308.215475 59.278293 
L 308.378633 60.166083 
L 308.544864 60.27387 
L 308.836812 59.685976 
L 308.923762 57.474177 
L 309.101398 59.237349 
L 309.250121 55.961001 
L 309.422157 55.822818 
L 309.45809 58.851044 
L 309.624294 59.413315 
L 309.918006 54.273524 
L 310.082723 51.518412 
L 310.288257 50.97636 
L 310.619953 57.15243 
L 310.951654 50.390095 
L 311.118262 50.766542 
L 311.507522 55.860746 
L 311.659303 56.37072 
L 311.823265 78.22382 
L 312.498394 56.63427 
L 312.661092 53.049702 
L 312.841523 44.636599 
L 313.2884 39.328113 
L 313.379178 39.293372 
L 313.577042 40.755686 
L 313.746276 39.112778 
L 313.950077 39.507092 
L 314.033802 38.868707 
L 314.201629 42.413469 
L 314.495707 45.473811 
L 314.578649 54.077281 
L 314.739947 57.339321 
L 314.909075 58.178111 
L 315.166889 61.252292 
L 315.278734 61.048813 
L 315.652905 63.278171 
L 315.818567 62.2843 
L 316.027603 64.602598 
L 316.194183 55.936759 
L 316.408253 57.294219 
L 316.507943 56.938717 
L 316.613191 58.416169 
L 316.797756 55.33129 
L 316.986216 55.653671 
L 317.20556 53.161718 
L 317.320802 48.968797 
L 318.187507 65.205 
L 318.353457 64.915502 
L 318.521708 63.654358 
L 318.85217 58.679216 
L 319.100521 58.083419 
L 319.225076 57.088651 
L 319.558885 50.382086 
L 319.841148 53.572656 
L 320.006421 53.179519 
L 320.136768 54.72951 
L 320.297066 48.606925 
L 320.629841 60.644377 
L 320.753858 63.20739 
L 321.085565 62.795593 
L 321.170351 66.34484 
L 321.335238 68.394261 
L 321.708592 59.961856 
L 321.79598 64.139056 
L 322.165521 54.660572 
L 322.331441 53.895831 
L 322.499834 50.489635 
L 322.663992 51.309775 
L 322.833021 54.245007 
L 322.996495 54.703255 
L 323.16259 53.094651 
L 323.335657 58.220136 
L 323.498092 57.552024 
L 323.706095 61.743414 
L 323.836843 61.469609 
L 324.038273 61.971313 
L 324.203811 61.507595 
L 324.370413 57.48022 
L 324.659943 59.380947 
L 324.721012 58.223821 
L 324.909506 61.242346 
L 325.116151 62.604283 
L 325.323389 62.409077 
L 325.448723 65.987461 
L 325.614606 64.626166 
L 325.947257 72.318334 
L 326.238562 76.749376 
L 326.412047 72.269201 
L 326.611344 73.010537 
L 326.78644 70.143021 
L 326.948721 64.606838 
L 327.207242 65.662564 
L 327.32073 61.757875 
L 327.360247 64.125697 
L 327.443537 64.820385 
L 327.669682 64.994865 
L 327.816366 59.52903 
L 328.32193 66.070356 
L 328.481153 64.711178 
L 328.64752 65.259599 
L 328.940757 67.098162 
L 329.072537 69.423344 
L 329.36207 63.395845 
L 329.652278 66.866355 
L 329.694481 65.013 
L 329.985262 65.765296 
L 330.151062 65.251137 
L 330.19387 63.700455 
L 330.481735 58.698965 
L 330.564866 62.537697 
L 330.731867 57.803173 
L 330.896731 57.469671 
L 331.436321 50.582964 
L 331.60623 50.528274 
L 331.643987 51.807768 
L 331.769346 50.602184 
L 331.934519 47.786322 
L 332.102296 55.797184 
L 332.308094 57.167849 
L 332.43322 55.577389 
L 332.655635 55.314521 
L 332.767125 56.712675 
L 332.97483 51.575243 
L 333.140408 56.772345 
L 333.309014 56.343389 
L 333.514844 60.602256 
L 333.806007 59.461318 
L 334.14328 65.349672 
L 334.42815 67.950883 
L 334.679608 74.373496 
L 335.009353 76.465017 
L 335.175884 78.341863 
L 335.347981 76.790932 
L 335.555985 73.309161 
L 335.723733 75.187174 
L 335.931453 74.277981 
L 336.261414 69.10743 
L 336.386343 68.647055 
L 336.593826 65.063956 
L 336.759288 64.190546 
L 337.036051 61.466495 
L 337.138595 61.753639 
L 337.261473 56.453326 
L 337.632443 59.619061 
L 337.845969 57.970925 
L 337.964258 61.008015 
L 338.137004 61.685012 
L 338.389539 64.019302 
L 338.463953 66.403174 
L 338.633677 68.190271 
L 338.797148 66.128381 
L 339.010774 67.910873 
L 339.503594 76.096449 
L 339.674798 75.903951 
L 340.211833 81.586166 
L 340.417118 80.374651 
L 340.541933 81.028885 
L 341.399078 69.213272 
L 341.609234 70.218466 
L 341.737669 62.076455 
L 341.93982 59.946491 
L 342.151599 60.094742 
L 342.273927 55.542354 
L 342.406038 55.512315 
L 342.605046 56.867695 
L 342.937427 52.452874 
L 343.102823 53.449518 
L 343.269013 57.72185 
L 343.435661 53.430773 
L 343.725777 54.944243 
L 343.829534 60.350001 
L 344.099723 56.136392 
L 344.182432 59.556101 
L 344.348416 58.728119 
L 344.514318 63.588408 
L 344.721412 62.507211 
L 344.993925 70.057278 
L 345.181784 68.902409 
L 345.845578 83.890745 
L 346.109824 82.627557 
L 346.219824 83.583469 
L 346.383739 78.82975 
L 346.570196 80.6371 
L 346.929406 78.329102 
L 347.13467 74.748828 
L 347.432378 75.40764 
L 347.610518 69.434146 
L 347.812893 70.116366 
L 347.897482 65.519573 
L 348.100811 67.485243 
L 348.308348 68.040367 
L 348.515742 65.4428 
L 348.598891 66.195133 
L 348.806141 64.392346 
L 348.977588 60.258504 
L 349.304427 64.300117 
L 349.47129 63.652815 
L 350.012049 58.018984 
L 350.175789 57.96222 
L 350.34163 55.923246 
L 350.508276 56.671421 
L 350.67893 56.184371 
L 350.841623 57.424376 
L 351.006434 60.867432 
L 351.380226 63.542656 
L 351.547773 69.237721 
L 351.75397 69.259049 
L 351.879123 71.807238 
L 352.302626 74.635979 
L 352.418432 75.112833 
L 352.625981 76.446159 
L 352.791429 75.169703 
L 353.098215 76.904269 
L 353.248422 76.751051 
L 353.45844 76.307378 
L 353.662257 78.252162 
L 353.833948 75.621249 
L 353.953568 75.926492 
L 354.121182 77.249152 
L 354.285471 75.015755 
L 354.504945 76.004312 
L 354.629467 73.590898 
L 355.127769 70.844654 
L 355.169495 65.58137 
L 355.376697 66.777151 
L 355.670175 61.971427 
L 355.832743 60.671144 
L 356.039958 57.47088 
L 356.165537 53.212532 
L 356.373504 55.19943 
L 356.579788 54.516728 
L 356.70401 56.177026 
L 356.914665 57.176535 
L 357.080208 60.873895 
L 357.244975 58.981826 
L 357.720344 68.623189 
L 358.620771 85.737617 
L 358.787003 84.919405 
L 359.118747 90.513491 
L 359.452832 85.771649 
L 359.658684 81.573425 
L 359.783703 82.391105 
L 360.032147 79.297042 
L 360.156545 79.606016 
L 360.366132 72.538399 
L 360.571805 75.445281 
L 360.695951 75.437533 
L 361.070572 74.130551 
L 361.364832 84.66448 
L 361.702593 89.958547 
L 361.858873 92.801539 
L 362.025558 90.705141 
L 362.273976 91.419158 
L 362.398408 94.512485 
L 362.522582 92.111308 
L 362.814933 94.81217 
L 362.854919 91.165813 
L 363.106715 91.263407 
L 363.275235 88.668428 
L 363.439603 88.418191 
L 363.768202 84.622638 
L 363.939195 84.944649 
L 364.273641 79.553632 
L 365.149659 65.323368 
L 365.277996 69.323616 
L 365.483121 65.229506 
L 365.693161 73.113333 
L 365.855104 67.038151 
L 366.032869 67.342341 
L 366.188117 75.71255 
L 366.482734 73.002508 
L 366.519435 75.19865 
L 366.685325 73.288808 
L 367.018215 76.860246 
L 367.185628 79.402495 
L 367.418265 79.533289 
L 367.52992 80.262102 
L 367.74185 83.305402 
L 367.890856 83.38286 
L 368.223268 90.256758 
L 368.389692 91.572299 
L 368.556487 99.484832 
L 368.77355 94.30131 
L 369.054915 100.032439 
L 369.097542 97.208433 
L 369.261187 98.883054 
L 369.717568 95.896042 
L 369.809147 97.911892 
L 369.939491 95.842021 
L 370.18811 98.778533 
L 370.341599 97.25098 
L 370.495833 97.244637 
L 370.98985 90.63554 
L 371.241892 93.055128 
L 371.352999 88.221379 
L 371.766469 84.691859 
L 372.018108 78.636662 
L 372.223325 77.477979 
L 372.557244 72.240114 
L 372.764978 75.110171 
L 372.889091 74.608043 
L 373.396931 81.021503 
L 373.59294 83.209487 
L 373.800147 77.769719 
L 373.926978 86.399654 
L 374.092259 85.600263 
L 374.270184 89.243604 
L 374.464896 87.819823 
L 374.797878 91.771554 
L 374.967332 89.197109 
L 375.138826 92.281098 
L 375.338508 93.009768 
L 375.461779 94.758193 
L 375.927844 96.498863 
L 376.168486 96.792714 
L 376.915065 81.535758 
L 377.164664 80.757237 
L 377.253625 79.635318 
L 377.454899 78.763772 
L 377.539404 77.796994 
L 377.888539 77.003413 
L 377.966966 77.286993 
L 378.370429 84.722145 
L 378.582937 84.793443 
L 378.910558 83.065573 
L 378.998275 80.653325 
L 379.412032 77.500936 
L 379.537678 77.546526 
L 379.871843 79.022664 
L 380.126978 83.105057 
L 380.37551 86.626006 
L 380.623908 94.028822 
L 381.453239 104.958683 
L 381.579455 103.858089 
L 381.761429 101.039076 
L 382.034838 92.379923 
L 382.865877 70.587259 
L 383.042724 70.268407 
L 383.548285 78.061527 
L 383.950109 85.110578 
L 384.281288 89.047636 
L 384.776513 92.071629 
L 384.99214 91.954217 
L 385.489935 86.634805 
L 385.719534 86.128408 
L 385.815429 86.638483 
L 385.96406 86.036039 
L 386.318328 82.871977 
L 386.521018 80.502462 
L 386.647188 77.630877 
L 388.228413 64.771935 
L 388.683946 63.255324 
L 388.735995 62.57321 
L 388.895941 62.655398 
L 389.062477 64.03164 
L 389.43523 70.497769 
L 389.931527 79.983555 
L 390.303639 84.241369 
L 390.678549 89.721648 
L 391.010809 92.38396 
L 391.314183 92.969879 
L 391.799805 102.514401 
L 391.974433 103.502524 
L 392.131017 103.579846 
L 392.339462 102.077059 
L 392.670483 95.931409 
L 393.377185 79.399842 
L 394.054023 70.358707 
L 394.205611 70.023648 
L 394.496563 71.241886 
L 394.711536 73.893486 
L 395.132427 75.338494 
L 395.417503 74.532459 
L 395.782204 74.398684 
L 396.032765 74.493369 
L 396.116938 74.186655 
L 396.321821 74.440099 
L 396.61471 75.393738 
L 396.823368 76.642432 
L 397.833794 89.392285 
L 398.300129 92.311947 
L 398.705237 94.19008 
L 398.871829 95.054209 
L 399.124748 95.556033 
L 399.213256 96.278438 
L 399.555667 97.161554 
L 399.632994 96.865667 
L 401.107522 70.269241 
L 401.271544 69.465373 
L 401.649446 70.429308 
L 402.149096 75.223461 
L 402.821856 89.908062 
L 403.028644 89.545561 
L 403.787656 83.376791 
L 403.872146 80.279842 
L 404.236486 75.558748 
L 404.360921 75.985393 
L 405.437728 88.970104 
L 405.605067 89.424538 
L 405.787388 88.702811 
L 406.059764 86.673283 
L 406.26954 80.575106 
L 406.93591 68.719211 
L 407.142439 69.47703 
L 407.352931 71.552442 
L 407.972272 83.374623 
L 408.162542 84.337103 
L 408.406109 86.23461 
L 408.487228 89.860177 
L 408.865419 94.75059 
L 409.03928 95.058801 
L 409.193631 93.765658 
L 409.693258 87.058854 
L 410.032881 90.40866 
L 410.231789 89.568782 
L 410.606602 84.686563 
L 410.858541 84.165178 
L 411.104545 87.753948 
L 411.273016 89.691994 
L 411.519697 89.594238 
L 411.739035 84.138174 
L 411.944933 84.568647 
L 412.113696 86.837171 
L 412.320625 87.218137 
L 412.650406 81.996702 
L 412.900331 80.291794 
L 413.025363 81.413966 
L 413.522448 88.766028 
L 413.812511 83.108163 
L 414.061829 81.885351 
L 414.353743 87.449843 
L 414.578213 87.545916 
L 414.87048 83.602299 
L 415.034266 83.669598 
L 415.538946 86.27241 
L 415.902317 85.035879 
L 416.068472 85.653412 
L 416.40005 88.16775 
L 416.651214 87.611714 
L 416.745843 86.283793 
L 416.9404 86.15401 
L 417.52143 89.717129 
L 418.104214 79.263086 
L 418.268312 79.203522 
L 418.64112 82.680947 
L 418.994337 78.620051 
L 419.158762 78.430802 
L 419.264449 79.965058 
L 419.517186 87.323478 
L 419.843127 91.93558 
L 420.100589 90.1616 
L 420.218695 87.598542 
L 420.550342 85.149977 
L 421.048365 87.06902 
L 421.422194 82.974136 
L 421.58873 83.399835 
L 421.879741 85.517881 
L 421.925439 87.072465 
L 422.090896 87.853065 
L 422.335312 87.491518 
L 422.431601 86.638537 
L 422.588032 86.559999 
L 422.959297 85.471746 
L 423.33962 86.241913 
L 423.545812 85.157878 
L 423.711812 83.30829 
L 424.00377 88.348275 
L 424.251177 87.456897 
L 424.4582 86.258553 
L 424.625419 86.444768 
L 424.831484 85.89879 
L 425.163008 86.514386 
L 425.333239 87.674274 
L 425.578756 87.654019 
L 425.703158 87.27666 
L 426.035878 85.37352 
L 426.214218 85.60323 
L 426.366406 86.46573 
L 426.71952 85.55675 
L 426.71952 85.55675 
" clip-path="url(#p9a9ab8756d)" style="fill: none; stroke: #ff0000; stroke-opacity: 0.5; stroke-width: 1.75; stroke-linecap: square"/>
   </g>
   <g id="patch_3">
    <path d="M 38.502813 184.36327 
L 38.502813 0.72 
" style="fill: none; stroke: #000000; stroke-width: 0.8; stroke-linejoin: miter; stroke-linecap: square"/>
   </g>
   <g id="patch_4">
    <path d="M 426.71952 184.36327 
L 426.71952 0.72 
" style="fill: none; stroke: #000000; stroke-width: 0.8; stroke-linejoin: miter; stroke-linecap: square"/>
   </g>
   <g id="patch_5">
    <path d="M 38.502813 184.36327 
L 426.71952 184.36327 
" style="fill: none; stroke: #000000; stroke-width: 0.8; stroke-linejoin: miter; stroke-linecap: square"/>
   </g>
   <g id="patch_6">
    <path d="M 38.502813 0.72 
L 426.71952 0.72 
" style="fill: none; stroke: #000000; stroke-width: 0.8; stroke-linejoin: miter; stroke-linecap: square"/>
   </g>
   <g id="legend_1">
    <g id="patch_7">
     <path d="M 345.95077 38.07625 
L 419.71952 38.07625 
Q 421.71952 38.07625 421.71952 36.07625 
L 421.71952 7.72 
Q 421.71952 5.72 419.71952 5.72 
L 345.95077 5.72 
Q 343.95077 5.72 343.95077 7.72 
L 343.95077 36.07625 
Q 343.95077 38.07625 345.95077 38.07625 
z
" style="fill: #ffffff; opacity: 0.8; stroke: #cccccc; stroke-linejoin: miter"/>
    </g>
    <g id="line2d_35">
     <path d="M 347.95077 13.818437 
L 357.95077 13.818437 
L 367.95077 13.818437 
" style="fill: none; stroke: #0000ff; stroke-opacity: 0.5; stroke-width: 1.75; stroke-linecap: square"/>
    </g>
    <g id="text_19">
     <!-- RNEA -->
     <g transform="translate(375.95077 17.318437) scale(0.1 -0.1)">
      <defs>
       <path id="DejaVuSans-52" d="M 2841 2188 
Q 3044 2119 3236 1894 
Q 3428 1669 3622 1275 
L 4263 0 
L 3584 0 
L 2988 1197 
Q 2756 1666 2539 1819 
Q 2322 1972 1947 1972 
L 1259 1972 
L 1259 0 
L 628 0 
L 628 4666 
L 2053 4666 
Q 2853 4666 3247 4331 
Q 3641 3997 3641 3322 
Q 3641 2881 3436 2590 
Q 3231 2300 2841 2188 
z
M 1259 4147 
L 1259 2491 
L 2053 2491 
Q 2509 2491 2742 2702 
Q 2975 2913 2975 3322 
Q 2975 3731 2742 3939 
Q 2509 4147 2053 4147 
L 1259 4147 
z
" transform="scale(0.015625)"/>
       <path id="DejaVuSans-45" d="M 628 4666 
L 3578 4666 
L 3578 4134 
L 1259 4134 
L 1259 2753 
L 3481 2753 
L 3481 2222 
L 1259 2222 
L 1259 531 
L 3634 531 
L 3634 0 
L 628 0 
L 628 4666 
z
" transform="scale(0.015625)"/>
       <path id="DejaVuSans-41" d="M 2188 4044 
L 1331 1722 
L 3047 1722 
L 2188 4044 
z
M 1831 4666 
L 2547 4666 
L 4325 0 
L 3669 0 
L 3244 1197 
L 1141 1197 
L 716 0 
L 50 0 
L 1831 4666 
z
" transform="scale(0.015625)"/>
      </defs>
      <use xlink:href="#DejaVuSans-52"/>
      <use xlink:href="#DejaVuSans-4e" x="69.482422"/>
      <use xlink:href="#DejaVuSans-45" x="144.287109"/>
      <use xlink:href="#DejaVuSans-41" x="207.470703"/>
     </g>
    </g>
    <g id="line2d_36">
     <path d="M 347.95077 28.496562 
L 357.95077 28.496562 
L 367.95077 28.496562 
" style="fill: none; stroke: #ff0000; stroke-opacity: 0.5; stroke-width: 1.75; stroke-linecap: square"/>
    </g>
    <g id="text_20">
     <!-- BURNEA -->
     <g transform="translate(375.95077 31.996562) scale(0.1 -0.1)">
      <defs>
       <path id="DejaVuSans-42" d="M 1259 2228 
L 1259 519 
L 2272 519 
Q 2781 519 3026 730 
Q 3272 941 3272 1375 
Q 3272 1813 3026 2020 
Q 2781 2228 2272 2228 
L 1259 2228 
z
M 1259 4147 
L 1259 2741 
L 2194 2741 
Q 2656 2741 2882 2914 
Q 3109 3088 3109 3444 
Q 3109 3797 2882 3972 
Q 2656 4147 2194 4147 
L 1259 4147 
z
M 628 4666 
L 2241 4666 
Q 2963 4666 3353 4366 
Q 3744 4066 3744 3513 
Q 3744 3084 3544 2831 
Q 3344 2578 2956 2516 
Q 3422 2416 3680 2098 
Q 3938 1781 3938 1306 
Q 3938 681 3513 340 
Q 3088 0 2303 0 
L 628 0 
L 628 4666 
z
" transform="scale(0.015625)"/>
       <path id="DejaVuSans-55" d="M 556 4666 
L 1191 4666 
L 1191 1831 
Q 1191 1081 1462 751 
Q 1734 422 2344 422 
Q 2950 422 3222 751 
Q 3494 1081 3494 1831 
L 3494 4666 
L 4128 4666 
L 4128 1753 
Q 4128 841 3676 375 
Q 3225 -91 2344 -91 
Q 1459 -91 1007 375 
Q 556 841 556 1753 
L 556 4666 
z
" transform="scale(0.015625)"/>
      </defs>
      <use xlink:href="#DejaVuSans-42"/>
      <use xlink:href="#DejaVuSans-55" x="68.603516"/>
      <use xlink:href="#DejaVuSans-52" x="141.796875"/>
      <use xlink:href="#DejaVuSans-4e" x="211.279297"/>
      <use xlink:href="#DejaVuSans-45" x="286.083984"/>
      <use xlink:href="#DejaVuSans-41" x="349.267578"/>
     </g>
    </g>
   </g>
  </g>
 </g>
 <defs>
  <clipPath id="p9a9ab8756d">
   <rect x="38.502813" y="0.72" width="388.216708" height="183.64327"/>
  </clipPath>
 </defs>
</svg>
