<?xml version="1.0" encoding="utf-8" standalone="no"?>
<!DOCTYPE svg PUBLIC "-//W3C//DTD SVG 1.1//EN"
  "http://www.w3.org/Graphics/SVG/1.1/DTD/svg11.dtd">
<svg xmlns:xlink="http://www.w3.org/1999/xlink" width="597.222813pt" height="304.99625pt" viewBox="0 0 597.222813 304.99625" xmlns="http://www.w3.org/2000/svg" version="1.1">
 <metadata>
  <rdf:RDF xmlns:dc="http://purl.org/dc/elements/1.1/" xmlns:cc="http://creativecommons.org/ns#" xmlns:rdf="http://www.w3.org/1999/02/22-rdf-syntax-ns#">
   <cc:Work>
    <dc:type rdf:resource="http://purl.org/dc/dcmitype/StillImage"/>
    <dc:date>2023-09-05T22:08:49.102181</dc:date>
    <dc:format>image/svg+xml</dc:format>
    <dc:creator>
     <cc:Agent>
      <dc:title>Matplotlib v3.7.2, https://matplotlib.org/</dc:title>
     </cc:Agent>
    </dc:creator>
   </cc:Work>
  </rdf:RDF>
 </metadata>
 <defs>
  <style type="text/css">*{stroke-linejoin: round; stroke-linecap: butt}</style>
 </defs>
 <g id="figure_1">
  <g id="patch_1">
   <path d="M 0 304.99625 
L 597.222813 304.99625 
L 597.222813 0 
L 0 0 
L 0 304.99625 
z
" style="fill: none"/>
  </g>
  <g id="axes_1">
   <g id="patch_2">
    <path d="M 38.502813 277.92 
L 596.502813 277.92 
L 596.502813 0.72 
L 38.502813 0.72 
L 38.502813 277.92 
z
" style="fill: none"/>
   </g>
   <g id="matplotlib.axis_1">
    <g id="xtick_1">
     <g id="line2d_1">
      <path d="M 38.502813 277.92 
L 38.502813 0.72 
" clip-path="url(#p1cb1c1c779)" style="fill: none; stroke-dasharray: 0.8,1.32; stroke-dashoffset: 0; stroke: #000000; stroke-opacity: 0.5; stroke-width: 0.8"/>
     </g>
     <g id="line2d_2">
      <defs>
       <path id="m9b39a99211" d="M 0 0 
L 0 3.5 
" style="stroke: #000000; stroke-width: 0.8"/>
      </defs>
      <g>
       <use xlink:href="#m9b39a99211" x="38.502813" y="277.92" style="stroke: #000000; stroke-width: 0.8"/>
      </g>
     </g>
     <g id="text_1">
      <!-- 0.0 -->
      <g transform="translate(30.55125 292.518438) scale(0.1 -0.1)">
       <defs>
        <path id="DejaVuSans-30" d="M 2034 4250 
Q 1547 4250 1301 3770 
Q 1056 3291 1056 2328 
Q 1056 1369 1301 889 
Q 1547 409 2034 409 
Q 2525 409 2770 889 
Q 3016 1369 3016 2328 
Q 3016 3291 2770 3770 
Q 2525 4250 2034 4250 
z
M 2034 4750 
Q 2819 4750 3233 4129 
Q 3647 3509 3647 2328 
Q 3647 1150 3233 529 
Q 2819 -91 2034 -91 
Q 1250 -91 836 529 
Q 422 1150 422 2328 
Q 422 3509 836 4129 
Q 1250 4750 2034 4750 
z
" transform="scale(0.015625)"/>
        <path id="DejaVuSans-2e" d="M 684 794 
L 1344 794 
L 1344 0 
L 684 0 
L 684 794 
z
" transform="scale(0.015625)"/>
       </defs>
       <use xlink:href="#DejaVuSans-30"/>
       <use xlink:href="#DejaVuSans-2e" x="63.623047"/>
       <use xlink:href="#DejaVuSans-30" x="95.410156"/>
      </g>
     </g>
    </g>
    <g id="xtick_2">
     <g id="line2d_3">
      <path d="M 112.654137 277.92 
L 112.654137 0.72 
" clip-path="url(#p1cb1c1c779)" style="fill: none; stroke-dasharray: 0.8,1.32; stroke-dashoffset: 0; stroke: #000000; stroke-opacity: 0.5; stroke-width: 0.8"/>
     </g>
     <g id="line2d_4">
      <g>
       <use xlink:href="#m9b39a99211" x="112.654137" y="277.92" style="stroke: #000000; stroke-width: 0.8"/>
      </g>
     </g>
     <g id="text_2">
      <!-- 2.5 -->
      <g transform="translate(104.702575 292.518438) scale(0.1 -0.1)">
       <defs>
        <path id="DejaVuSans-32" d="M 1228 531 
L 3431 531 
L 3431 0 
L 469 0 
L 469 531 
Q 828 903 1448 1529 
Q 2069 2156 2228 2338 
Q 2531 2678 2651 2914 
Q 2772 3150 2772 3378 
Q 2772 3750 2511 3984 
Q 2250 4219 1831 4219 
Q 1534 4219 1204 4116 
Q 875 4013 500 3803 
L 500 4441 
Q 881 4594 1212 4672 
Q 1544 4750 1819 4750 
Q 2544 4750 2975 4387 
Q 3406 4025 3406 3419 
Q 3406 3131 3298 2873 
Q 3191 2616 2906 2266 
Q 2828 2175 2409 1742 
Q 1991 1309 1228 531 
z
" transform="scale(0.015625)"/>
        <path id="DejaVuSans-35" d="M 691 4666 
L 3169 4666 
L 3169 4134 
L 1269 4134 
L 1269 2991 
Q 1406 3038 1543 3061 
Q 1681 3084 1819 3084 
Q 2600 3084 3056 2656 
Q 3513 2228 3513 1497 
Q 3513 744 3044 326 
Q 2575 -91 1722 -91 
Q 1428 -91 1123 -41 
Q 819 9 494 109 
L 494 744 
Q 775 591 1075 516 
Q 1375 441 1709 441 
Q 2250 441 2565 725 
Q 2881 1009 2881 1497 
Q 2881 1984 2565 2268 
Q 2250 2553 1709 2553 
Q 1456 2553 1204 2497 
Q 953 2441 691 2322 
L 691 4666 
z
" transform="scale(0.015625)"/>
       </defs>
       <use xlink:href="#DejaVuSans-32"/>
       <use xlink:href="#DejaVuSans-2e" x="63.623047"/>
       <use xlink:href="#DejaVuSans-35" x="95.410156"/>
      </g>
     </g>
    </g>
    <g id="xtick_3">
     <g id="line2d_5">
      <path d="M 186.805462 277.92 
L 186.805462 0.72 
" clip-path="url(#p1cb1c1c779)" style="fill: none; stroke-dasharray: 0.8,1.32; stroke-dashoffset: 0; stroke: #000000; stroke-opacity: 0.5; stroke-width: 0.8"/>
     </g>
     <g id="line2d_6">
      <g>
       <use xlink:href="#m9b39a99211" x="186.805462" y="277.92" style="stroke: #000000; stroke-width: 0.8"/>
      </g>
     </g>
     <g id="text_3">
      <!-- 5.0 -->
      <g transform="translate(178.8539 292.518438) scale(0.1 -0.1)">
       <use xlink:href="#DejaVuSans-35"/>
       <use xlink:href="#DejaVuSans-2e" x="63.623047"/>
       <use xlink:href="#DejaVuSans-30" x="95.410156"/>
      </g>
     </g>
    </g>
    <g id="xtick_4">
     <g id="line2d_7">
      <path d="M 260.956787 277.92 
L 260.956787 0.72 
" clip-path="url(#p1cb1c1c779)" style="fill: none; stroke-dasharray: 0.8,1.32; stroke-dashoffset: 0; stroke: #000000; stroke-opacity: 0.5; stroke-width: 0.8"/>
     </g>
     <g id="line2d_8">
      <g>
       <use xlink:href="#m9b39a99211" x="260.956787" y="277.92" style="stroke: #000000; stroke-width: 0.8"/>
      </g>
     </g>
     <g id="text_4">
      <!-- 7.5 -->
      <g transform="translate(253.005225 292.518438) scale(0.1 -0.1)">
       <defs>
        <path id="DejaVuSans-37" d="M 525 4666 
L 3525 4666 
L 3525 4397 
L 1831 0 
L 1172 0 
L 2766 4134 
L 525 4134 
L 525 4666 
z
" transform="scale(0.015625)"/>
       </defs>
       <use xlink:href="#DejaVuSans-37"/>
       <use xlink:href="#DejaVuSans-2e" x="63.623047"/>
       <use xlink:href="#DejaVuSans-35" x="95.410156"/>
      </g>
     </g>
    </g>
    <g id="xtick_5">
     <g id="line2d_9">
      <path d="M 335.108112 277.92 
L 335.108112 0.72 
" clip-path="url(#p1cb1c1c779)" style="fill: none; stroke-dasharray: 0.8,1.32; stroke-dashoffset: 0; stroke: #000000; stroke-opacity: 0.5; stroke-width: 0.8"/>
     </g>
     <g id="line2d_10">
      <g>
       <use xlink:href="#m9b39a99211" x="335.108112" y="277.92" style="stroke: #000000; stroke-width: 0.8"/>
      </g>
     </g>
     <g id="text_5">
      <!-- 10.0 -->
      <g transform="translate(323.9753 292.518438) scale(0.1 -0.1)">
       <defs>
        <path id="DejaVuSans-31" d="M 794 531 
L 1825 531 
L 1825 4091 
L 703 3866 
L 703 4441 
L 1819 4666 
L 2450 4666 
L 2450 531 
L 3481 531 
L 3481 0 
L 794 0 
L 794 531 
z
" transform="scale(0.015625)"/>
       </defs>
       <use xlink:href="#DejaVuSans-31"/>
       <use xlink:href="#DejaVuSans-30" x="63.623047"/>
       <use xlink:href="#DejaVuSans-2e" x="127.246094"/>
       <use xlink:href="#DejaVuSans-30" x="159.033203"/>
      </g>
     </g>
    </g>
    <g id="xtick_6">
     <g id="line2d_11">
      <path d="M 409.259437 277.92 
L 409.259437 0.72 
" clip-path="url(#p1cb1c1c779)" style="fill: none; stroke-dasharray: 0.8,1.32; stroke-dashoffset: 0; stroke: #000000; stroke-opacity: 0.5; stroke-width: 0.8"/>
     </g>
     <g id="line2d_12">
      <g>
       <use xlink:href="#m9b39a99211" x="409.259437" y="277.92" style="stroke: #000000; stroke-width: 0.8"/>
      </g>
     </g>
     <g id="text_6">
      <!-- 12.5 -->
      <g transform="translate(398.126625 292.518438) scale(0.1 -0.1)">
       <use xlink:href="#DejaVuSans-31"/>
       <use xlink:href="#DejaVuSans-32" x="63.623047"/>
       <use xlink:href="#DejaVuSans-2e" x="127.246094"/>
       <use xlink:href="#DejaVuSans-35" x="159.033203"/>
      </g>
     </g>
    </g>
    <g id="xtick_7">
     <g id="line2d_13">
      <path d="M 483.410762 277.92 
L 483.410762 0.72 
" clip-path="url(#p1cb1c1c779)" style="fill: none; stroke-dasharray: 0.8,1.32; stroke-dashoffset: 0; stroke: #000000; stroke-opacity: 0.5; stroke-width: 0.8"/>
     </g>
     <g id="line2d_14">
      <g>
       <use xlink:href="#m9b39a99211" x="483.410762" y="277.92" style="stroke: #000000; stroke-width: 0.8"/>
      </g>
     </g>
     <g id="text_7">
      <!-- 15.0 -->
      <g transform="translate(472.27795 292.518438) scale(0.1 -0.1)">
       <use xlink:href="#DejaVuSans-31"/>
       <use xlink:href="#DejaVuSans-35" x="63.623047"/>
       <use xlink:href="#DejaVuSans-2e" x="127.246094"/>
       <use xlink:href="#DejaVuSans-30" x="159.033203"/>
      </g>
     </g>
    </g>
    <g id="xtick_8">
     <g id="line2d_15">
      <path d="M 557.562087 277.92 
L 557.562087 0.72 
" clip-path="url(#p1cb1c1c779)" style="fill: none; stroke-dasharray: 0.8,1.32; stroke-dashoffset: 0; stroke: #000000; stroke-opacity: 0.5; stroke-width: 0.8"/>
     </g>
     <g id="line2d_16">
      <g>
       <use xlink:href="#m9b39a99211" x="557.562087" y="277.92" style="stroke: #000000; stroke-width: 0.8"/>
      </g>
     </g>
     <g id="text_8">
      <!-- 17.5 -->
      <g transform="translate(546.429274 292.518438) scale(0.1 -0.1)">
       <use xlink:href="#DejaVuSans-31"/>
       <use xlink:href="#DejaVuSans-37" x="63.623047"/>
       <use xlink:href="#DejaVuSans-2e" x="127.246094"/>
       <use xlink:href="#DejaVuSans-35" x="159.033203"/>
      </g>
     </g>
    </g>
    <g id="text_9">
     <!-- Zeit [s] -->
     <g transform="translate(299.556719 302.196563) scale(0.1 -0.1)">
      <defs>
       <path id="DejaVuSans-5a" d="M 359 4666 
L 4025 4666 
L 4025 4184 
L 1075 531 
L 4097 531 
L 4097 0 
L 288 0 
L 288 481 
L 3238 4134 
L 359 4134 
L 359 4666 
z
" transform="scale(0.015625)"/>
       <path id="DejaVuSans-65" d="M 3597 1894 
L 3597 1613 
L 953 1613 
Q 991 1019 1311 708 
Q 1631 397 2203 397 
Q 2534 397 2845 478 
Q 3156 559 3463 722 
L 3463 178 
Q 3153 47 2828 -22 
Q 2503 -91 2169 -91 
Q 1331 -91 842 396 
Q 353 884 353 1716 
Q 353 2575 817 3079 
Q 1281 3584 2069 3584 
Q 2775 3584 3186 3129 
Q 3597 2675 3597 1894 
z
M 3022 2063 
Q 3016 2534 2758 2815 
Q 2500 3097 2075 3097 
Q 1594 3097 1305 2825 
Q 1016 2553 972 2059 
L 3022 2063 
z
" transform="scale(0.015625)"/>
       <path id="DejaVuSans-69" d="M 603 3500 
L 1178 3500 
L 1178 0 
L 603 0 
L 603 3500 
z
M 603 4863 
L 1178 4863 
L 1178 4134 
L 603 4134 
L 603 4863 
z
" transform="scale(0.015625)"/>
       <path id="DejaVuSans-74" d="M 1172 4494 
L 1172 3500 
L 2356 3500 
L 2356 3053 
L 1172 3053 
L 1172 1153 
Q 1172 725 1289 603 
Q 1406 481 1766 481 
L 2356 481 
L 2356 0 
L 1766 0 
Q 1100 0 847 248 
Q 594 497 594 1153 
L 594 3053 
L 172 3053 
L 172 3500 
L 594 3500 
L 594 4494 
L 1172 4494 
z
" transform="scale(0.015625)"/>
       <path id="DejaVuSans-20" transform="scale(0.015625)"/>
       <path id="DejaVuSans-5b" d="M 550 4863 
L 1875 4863 
L 1875 4416 
L 1125 4416 
L 1125 -397 
L 1875 -397 
L 1875 -844 
L 550 -844 
L 550 4863 
z
" transform="scale(0.015625)"/>
       <path id="DejaVuSans-73" d="M 2834 3397 
L 2834 2853 
Q 2591 2978 2328 3040 
Q 2066 3103 1784 3103 
Q 1356 3103 1142 2972 
Q 928 2841 928 2578 
Q 928 2378 1081 2264 
Q 1234 2150 1697 2047 
L 1894 2003 
Q 2506 1872 2764 1633 
Q 3022 1394 3022 966 
Q 3022 478 2636 193 
Q 2250 -91 1575 -91 
Q 1294 -91 989 -36 
Q 684 19 347 128 
L 347 722 
Q 666 556 975 473 
Q 1284 391 1588 391 
Q 1994 391 2212 530 
Q 2431 669 2431 922 
Q 2431 1156 2273 1281 
Q 2116 1406 1581 1522 
L 1381 1569 
Q 847 1681 609 1914 
Q 372 2147 372 2553 
Q 372 3047 722 3315 
Q 1072 3584 1716 3584 
Q 2034 3584 2315 3537 
Q 2597 3491 2834 3397 
z
" transform="scale(0.015625)"/>
       <path id="DejaVuSans-5d" d="M 1947 4863 
L 1947 -844 
L 622 -844 
L 622 -397 
L 1369 -397 
L 1369 4416 
L 622 4416 
L 622 4863 
L 1947 4863 
z
" transform="scale(0.015625)"/>
      </defs>
      <use xlink:href="#DejaVuSans-5a"/>
      <use xlink:href="#DejaVuSans-65" x="68.505859"/>
      <use xlink:href="#DejaVuSans-69" x="130.029297"/>
      <use xlink:href="#DejaVuSans-74" x="157.8125"/>
      <use xlink:href="#DejaVuSans-20" x="197.021484"/>
      <use xlink:href="#DejaVuSans-5b" x="228.808594"/>
      <use xlink:href="#DejaVuSans-73" x="267.822266"/>
      <use xlink:href="#DejaVuSans-5d" x="319.921875"/>
     </g>
    </g>
   </g>
   <g id="matplotlib.axis_2">
    <g id="ytick_1">
     <g id="line2d_17">
      <path d="M 38.502813 247.290198 
L 596.502813 247.290198 
" clip-path="url(#p1cb1c1c779)" style="fill: none; stroke-dasharray: 0.8,1.32; stroke-dashoffset: 0; stroke: #000000; stroke-opacity: 0.5; stroke-width: 0.8"/>
     </g>
     <g id="line2d_18">
      <defs>
       <path id="m4c82989be9" d="M 0 0 
L -3.5 0 
" style="stroke: #000000; stroke-width: 0.8"/>
      </defs>
      <g>
       <use xlink:href="#m4c82989be9" x="38.502813" y="247.290198" style="stroke: #000000; stroke-width: 0.8"/>
      </g>
     </g>
     <g id="text_10">
      <!-- −20 -->
      <g transform="translate(10.398125 251.089417) scale(0.1 -0.1)">
       <defs>
        <path id="DejaVuSans-2212" d="M 678 2272 
L 4684 2272 
L 4684 1741 
L 678 1741 
L 678 2272 
z
" transform="scale(0.015625)"/>
       </defs>
       <use xlink:href="#DejaVuSans-2212"/>
       <use xlink:href="#DejaVuSans-32" x="83.789062"/>
       <use xlink:href="#DejaVuSans-30" x="147.412109"/>
      </g>
     </g>
    </g>
    <g id="ytick_2">
     <g id="line2d_19">
      <path d="M 38.502813 191.057057 
L 596.502813 191.057057 
" clip-path="url(#p1cb1c1c779)" style="fill: none; stroke-dasharray: 0.8,1.32; stroke-dashoffset: 0; stroke: #000000; stroke-opacity: 0.5; stroke-width: 0.8"/>
     </g>
     <g id="line2d_20">
      <g>
       <use xlink:href="#m4c82989be9" x="38.502813" y="191.057057" style="stroke: #000000; stroke-width: 0.8"/>
      </g>
     </g>
     <g id="text_11">
      <!-- −10 -->
      <g transform="translate(10.398125 194.856276) scale(0.1 -0.1)">
       <use xlink:href="#DejaVuSans-2212"/>
       <use xlink:href="#DejaVuSans-31" x="83.789062"/>
       <use xlink:href="#DejaVuSans-30" x="147.412109"/>
      </g>
     </g>
    </g>
    <g id="ytick_3">
     <g id="line2d_21">
      <path d="M 38.502813 134.823916 
L 596.502813 134.823916 
" clip-path="url(#p1cb1c1c779)" style="fill: none; stroke-dasharray: 0.8,1.32; stroke-dashoffset: 0; stroke: #000000; stroke-opacity: 0.5; stroke-width: 0.8"/>
     </g>
     <g id="line2d_22">
      <g>
       <use xlink:href="#m4c82989be9" x="38.502813" y="134.823916" style="stroke: #000000; stroke-width: 0.8"/>
      </g>
     </g>
     <g id="text_12">
      <!-- 0 -->
      <g transform="translate(25.140313 138.623135) scale(0.1 -0.1)">
       <use xlink:href="#DejaVuSans-30"/>
      </g>
     </g>
    </g>
    <g id="ytick_4">
     <g id="line2d_23">
      <path d="M 38.502813 78.590775 
L 596.502813 78.590775 
" clip-path="url(#p1cb1c1c779)" style="fill: none; stroke-dasharray: 0.8,1.32; stroke-dashoffset: 0; stroke: #000000; stroke-opacity: 0.5; stroke-width: 0.8"/>
     </g>
     <g id="line2d_24">
      <g>
       <use xlink:href="#m4c82989be9" x="38.502813" y="78.590775" style="stroke: #000000; stroke-width: 0.8"/>
      </g>
     </g>
     <g id="text_13">
      <!-- 10 -->
      <g transform="translate(18.777813 82.389994) scale(0.1 -0.1)">
       <use xlink:href="#DejaVuSans-31"/>
       <use xlink:href="#DejaVuSans-30" x="63.623047"/>
      </g>
     </g>
    </g>
    <g id="ytick_5">
     <g id="line2d_25">
      <path d="M 38.502813 22.357634 
L 596.502813 22.357634 
" clip-path="url(#p1cb1c1c779)" style="fill: none; stroke-dasharray: 0.8,1.32; stroke-dashoffset: 0; stroke: #000000; stroke-opacity: 0.5; stroke-width: 0.8"/>
     </g>
     <g id="line2d_26">
      <g>
       <use xlink:href="#m4c82989be9" x="38.502813" y="22.357634" style="stroke: #000000; stroke-width: 0.8"/>
      </g>
     </g>
     <g id="text_14">
      <!-- 20 -->
      <g transform="translate(18.777813 26.156853) scale(0.1 -0.1)">
       <use xlink:href="#DejaVuSans-32"/>
       <use xlink:href="#DejaVuSans-30" x="63.623047"/>
      </g>
     </g>
    </g>
    <g id="text_15">
     <!-- Kraft [N] -->
     <g transform="translate(8.318438 160.5825) rotate(-90) scale(0.1 -0.1)">
      <defs>
       <path id="DejaVuSans-4b" d="M 628 4666 
L 1259 4666 
L 1259 2694 
L 3353 4666 
L 4166 4666 
L 1850 2491 
L 4331 0 
L 3500 0 
L 1259 2247 
L 1259 0 
L 628 0 
L 628 4666 
z
" transform="scale(0.015625)"/>
       <path id="DejaVuSans-72" d="M 2631 2963 
Q 2534 3019 2420 3045 
Q 2306 3072 2169 3072 
Q 1681 3072 1420 2755 
Q 1159 2438 1159 1844 
L 1159 0 
L 581 0 
L 581 3500 
L 1159 3500 
L 1159 2956 
Q 1341 3275 1631 3429 
Q 1922 3584 2338 3584 
Q 2397 3584 2469 3576 
Q 2541 3569 2628 3553 
L 2631 2963 
z
" transform="scale(0.015625)"/>
       <path id="DejaVuSans-61" d="M 2194 1759 
Q 1497 1759 1228 1600 
Q 959 1441 959 1056 
Q 959 750 1161 570 
Q 1363 391 1709 391 
Q 2188 391 2477 730 
Q 2766 1069 2766 1631 
L 2766 1759 
L 2194 1759 
z
M 3341 1997 
L 3341 0 
L 2766 0 
L 2766 531 
Q 2569 213 2275 61 
Q 1981 -91 1556 -91 
Q 1019 -91 701 211 
Q 384 513 384 1019 
Q 384 1609 779 1909 
Q 1175 2209 1959 2209 
L 2766 2209 
L 2766 2266 
Q 2766 2663 2505 2880 
Q 2244 3097 1772 3097 
Q 1472 3097 1187 3025 
Q 903 2953 641 2809 
L 641 3341 
Q 956 3463 1253 3523 
Q 1550 3584 1831 3584 
Q 2591 3584 2966 3190 
Q 3341 2797 3341 1997 
z
" transform="scale(0.015625)"/>
       <path id="DejaVuSans-66" d="M 2375 4863 
L 2375 4384 
L 1825 4384 
Q 1516 4384 1395 4259 
Q 1275 4134 1275 3809 
L 1275 3500 
L 2222 3500 
L 2222 3053 
L 1275 3053 
L 1275 0 
L 697 0 
L 697 3053 
L 147 3053 
L 147 3500 
L 697 3500 
L 697 3744 
Q 697 4328 969 4595 
Q 1241 4863 1831 4863 
L 2375 4863 
z
" transform="scale(0.015625)"/>
       <path id="DejaVuSans-4e" d="M 628 4666 
L 1478 4666 
L 3547 763 
L 3547 4666 
L 4159 4666 
L 4159 0 
L 3309 0 
L 1241 3903 
L 1241 0 
L 628 0 
L 628 4666 
z
" transform="scale(0.015625)"/>
      </defs>
      <use xlink:href="#DejaVuSans-4b"/>
      <use xlink:href="#DejaVuSans-72" x="65.576172"/>
      <use xlink:href="#DejaVuSans-61" x="106.689453"/>
      <use xlink:href="#DejaVuSans-66" x="167.96875"/>
      <use xlink:href="#DejaVuSans-74" x="201.423828"/>
      <use xlink:href="#DejaVuSans-20" x="240.632812"/>
      <use xlink:href="#DejaVuSans-5b" x="272.419922"/>
      <use xlink:href="#DejaVuSans-4e" x="311.433594"/>
      <use xlink:href="#DejaVuSans-5d" x="386.238281"/>
     </g>
    </g>
   </g>
   <g id="line2d_27">
    <path d="M 38.502813 134.823916 
L 223.732051 134.788906 
L 224.048213 134.546527 
L 225.274355 131.939568 
L 225.75103 131.695917 
L 226.525541 131.841504 
L 226.707352 132.15469 
L 227.004147 132.308871 
L 227.184451 132.201431 
L 227.422827 132.317784 
L 227.479239 132.164485 
L 227.956897 132.601337 
L 228.194151 132.318556 
L 228.730952 132.673737 
L 229.211707 132.317442 
L 229.507621 132.171759 
L 229.998628 132.158565 
L 230.173069 131.636793 
L 230.408796 131.951744 
L 230.705939 132.5422 
L 230.945101 131.799806 
L 231.242363 132.485616 
L 231.630147 132.693509 
L 231.663719 133.163474 
L 232.136825 132.348604 
L 232.316057 131.447857 
L 232.434509 132.773149 
L 232.915984 132.160165 
L 233.208451 131.392115 
L 233.387885 132.442798 
L 233.626662 132.169019 
L 233.864567 131.591782 
L 234.163673 133.250485 
L 234.459871 131.859987 
L 235.11598 132.924441 
L 235.432665 132.44213 
L 235.72695 132.895923 
L 235.906757 131.929893 
L 236.084479 133.077695 
L 236.384217 133.329808 
L 236.621287 131.795499 
L 236.919839 131.641051 
L 237.157824 132.320001 
L 237.395703 131.258243 
L 237.695023 131.285503 
L 237.874902 133.172202 
L 238.290534 132.393718 
L 238.35076 132.715562 
L 238.589264 132.89146 
L 238.828455 133.589745 
L 239.065068 131.115121 
L 239.305311 131.286639 
L 239.549082 131.762681 
L 239.840779 130.985673 
L 240.023237 133.382007 
L 240.317181 132.162012 
L 240.614551 131.955854 
L 240.793797 130.872766 
L 241.151839 132.91069 
L 241.389884 132.432869 
L 241.569338 131.797437 
L 242.044896 132.988047 
L 242.344062 132.278433 
L 242.641746 132.2354 
L 242.939843 131.81418 
L 243.118815 133.238113 
L 243.41606 133.947408 
L 243.539421 132.656994 
L 243.836562 132.916922 
L 244.071675 132.915882 
L 244.531837 132.176823 
L 244.760099 132.994812 
L 245.741822 131.225875 
L 246.202726 132.393887 
L 246.337942 135.364047 
L 246.754794 131.308872 
L 246.994239 133.497694 
L 247.232263 134.439467 
L 247.469526 130.788841 
L 247.708076 132.593554 
L 248.125328 134.253935 
L 248.363697 133.68748 
L 248.543255 134.60014 
L 248.848689 130.076782 
L 249.020847 133.865396 
L 249.218981 132.500256 
L 249.530817 132.976375 
L 249.796994 132.395985 
L 249.91722 132.937196 
L 250.176782 133.179849 
L 250.454559 132.039683 
L 250.69308 132.421973 
L 250.990238 132.256934 
L 251.171156 131.459159 
L 251.466717 131.767033 
L 251.705896 130.884856 
L 252.004037 131.508383 
L 252.243865 131.689894 
L 252.425758 130.254379 
L 252.66071 131.138884 
L 252.958474 132.765829 
L 253.137428 132.703859 
L 253.437262 130.979196 
L 253.732822 132.050763 
L 253.912799 131.491831 
L 254.151034 132.770695 
L 254.390353 135.550367 
L 254.866171 129.505436 
L 255.283195 136.895422 
L 255.702331 132.24721 
L 255.879236 131.957562 
L 256.118256 134.389885 
L 256.357 133.964694 
L 256.596713 131.350186 
L 257.013573 130.716571 
L 257.134596 133.747302 
L 257.61066 130.9064 
L 257.848051 132.800353 
L 258.20509 134.491467 
L 258.445132 131.083186 
L 258.859825 135.988987 
L 259.158214 134.596636 
L 259.730147 132.888229 
L 259.876027 129.64965 
L 260.173233 134.363884 
L 260.294447 132.905188 
L 260.591149 131.090221 
L 260.949329 125.912905 
L 261.322962 133.25464 
L 261.602805 134.848804 
L 261.975746 132.967638 
L 262.086563 133.09927 
L 262.328785 134.561599 
L 262.55622 133.279525 
L 262.794199 133.204667 
L 263.151773 136.883535 
L 263.330837 133.461133 
L 263.7477 129.960315 
L 263.866901 131.845783 
L 264.105397 131.148957 
L 264.285849 135.707989 
L 264.643203 130.958755 
L 264.881961 131.862958 
L 265.058864 131.328937 
L 265.299527 132.608935 
L 265.714773 136.496606 
L 265.955612 135.790073 
L 266.191948 132.032 
L 266.252174 132.330706 
L 266.48981 133.465053 
L 266.788459 133.135926 
L 267.09442 133.292466 
L 267.324829 134.129491 
L 267.563622 130.179936 
L 267.759853 132.697395 
L 268.338011 134.70526 
L 268.532791 133.701697 
L 268.756773 133.199989 
L 269.017167 133.767278 
L 269.233644 136.399192 
L 269.530633 137.104774 
L 269.887378 135.834042 
L 270.125731 135.841935 
L 270.245132 133.281406 
L 270.661966 132.86919 
L 270.723 133.499623 
L 270.960397 134.710777 
L 271.318588 135.860888 
L 271.561653 131.930328 
L 271.735812 136.145971 
L 271.975033 132.243909 
L 272.454512 136.20602 
L 272.689423 130.671516 
L 272.927961 137.339576 
L 273.643316 133.504066 
L 274.219372 132.396867 
L 274.658263 134.553145 
L 274.845561 133.587167 
L 275.037647 133.646835 
L 275.313574 132.126263 
L 275.437851 135.781843 
L 275.791628 135.554144 
L 275.91339 133.022546 
L 276.20821 132.102222 
L 276.393789 136.701122 
L 276.812326 133.740894 
L 277.049078 138.502376 
L 277.162083 134.927604 
L 277.590469 132.561317 
L 277.779075 136.213114 
L 277.939041 131.019954 
L 278.12053 130.139122 
L 278.475781 138.228652 
L 278.624491 134.347584 
L 278.955747 136.41781 
L 279.193852 135.928839 
L 279.431173 130.955269 
L 279.612332 138.338754 
L 279.907556 133.141964 
L 280.086959 133.846656 
L 280.384925 129.58765 
L 280.623809 134.515489 
L 281.1601 133.350773 
L 281.457142 135.38952 
L 281.594071 138.116181 
L 281.873928 132.231927 
L 282.056615 137.219664 
L 282.113657 132.497493 
L 282.351481 134.513443 
L 282.533731 133.379507 
L 282.828435 133.470636 
L 283.068365 132.758821 
L 283.306338 133.926827 
L 283.66432 128.525204 
L 283.961917 134.084451 
L 284.088847 139.221893 
L 284.563335 131.856541 
L 284.856401 131.259628 
L 285.034625 137.303942 
L 285.276257 134.335725 
L 285.690436 133.698656 
L 285.810779 132.795313 
L 286.048783 129.970124 
L 286.292195 131.786398 
L 286.526687 137.33006 
L 286.769413 136.288955 
L 287.007247 140.736005 
L 287.262421 133.137152 
L 287.484106 137.893085 
L 287.84259 134.166261 
L 288.024509 128.824409 
L 288.259375 133.333072 
L 288.497522 130.724919 
L 288.736219 131.141674 
L 289.035046 134.814877 
L 289.24077 135.329963 
L 289.455069 130.524577 
L 289.811148 131.783693 
L 290.227704 127.401806 
L 290.347633 135.505626 
L 290.465879 129.042117 
L 290.883363 139.393174 
L 290.948755 129.519918 
L 291.225488 133.049604 
L 291.495528 139.1905 
L 291.679836 132.956059 
L 292.13465 141.856882 
L 292.194976 132.130714 
L 292.432576 131.973544 
L 292.969282 136.498492 
L 293.207555 136.063451 
L 293.504983 133.734393 
L 293.689059 135.602074 
L 293.924229 140.647097 
L 294.221147 141.973585 
L 294.466574 137.284985 
L 294.698997 142.485174 
L 294.878318 135.399445 
L 295.173661 137.793778 
L 295.4127 131.888649 
L 295.717231 130.297715 
L 295.948103 140.168633 
L 296.426372 133.047439 
L 296.607631 133.27382 
L 296.961851 134.934044 
L 297.152314 137.800697 
L 297.438974 132.313394 
L 297.620443 138.682169 
L 297.929888 134.037909 
L 298.095365 135.00224 
L 298.335465 133.568999 
L 298.632709 138.276362 
L 298.870236 133.987172 
L 299.108436 134.110173 
L 299.60655 133.29706 
L 299.827215 132.580722 
L 300.182774 139.257866 
L 300.361705 133.01922 
L 300.600166 137.35437 
L 300.854175 132.976258 
L 301.079765 138.178959 
L 301.494049 126.778073 
L 301.613328 133.741735 
L 301.911255 126.939734 
L 302.09056 136.511752 
L 302.626399 132.939641 
L 302.80676 128.458282 
L 303.043886 134.960492 
L 303.341324 134.901761 
L 303.54503 136.337321 
L 303.826118 133.528078 
L 304.119111 135.299268 
L 304.41641 135.736892 
L 304.595673 132.759382 
L 304.95287 135.131928 
L 305.252232 138.301204 
L 305.31073 136.043452 
L 305.548602 135.048743 
L 305.846457 137.203833 
L 306.02906 134.754176 
L 306.385283 135.34996 
L 306.562027 140.230574 
L 306.801509 137.948046 
L 306.996024 133.91144 
L 307.281744 134.949886 
L 307.900046 136.018353 
L 308.067971 135.688961 
L 308.299126 138.9236 
L 308.537897 130.162787 
L 308.839248 136.512169 
L 309.086734 136.234829 
L 309.313549 137.156952 
L 309.455479 136.474674 
L 309.930311 138.127714 
L 310.001814 137.80228 
L 310.28921 133.190142 
L 310.527271 139.750218 
L 310.708003 131.243729 
L 311.063774 134.735228 
L 311.611583 128.428732 
L 311.781527 138.712946 
L 312.017687 137.871792 
L 312.375319 129.330187 
L 312.501747 135.347983 
L 312.732977 135.632956 
L 313.090224 135.286709 
L 313.212638 206.711374 
L 313.805492 197.776688 
L 314.235778 152.168639 
L 314.58015 150.18142 
L 314.701814 142.187954 
L 314.938888 136.21312 
L 315.682591 132.013857 
L 316.016983 132.400908 
L 316.33419 133.37029 
L 316.452034 123.103262 
L 316.695304 131.215557 
L 316.995565 126.643594 
L 317.110027 134.279608 
L 317.410895 131.769495 
L 317.763281 134.890578 
L 318.060545 134.922833 
L 318.180102 135.157308 
L 318.359189 136.841653 
L 318.718927 130.073403 
L 318.959086 130.363304 
L 319.49789 139.158987 
L 319.614865 135.349765 
L 319.910478 141.327964 
L 320.14826 135.74848 
L 320.624731 133.402272 
L 320.864807 134.827105 
L 321.102007 128.746114 
L 321.340325 133.045456 
L 321.584298 133.992844 
L 321.878065 127.142794 
L 322.357206 134.446664 
L 322.592008 135.430314 
L 322.840479 134.469399 
L 323.070052 135.021175 
L 323.310491 134.995088 
L 323.548541 139.690746 
L 323.963903 139.227464 
L 324.083748 134.132764 
L 324.50419 137.840769 
L 324.569671 131.206541 
L 324.802157 135.207933 
L 325.454334 134.733649 
L 325.633327 133.802194 
L 325.812051 135.30071 
L 326.051482 129.782918 
L 326.294583 130.931306 
L 326.530758 134.114124 
L 326.852363 131.950744 
L 327.242305 135.811298 
L 327.301953 133.794517 
L 327.540635 135.148698 
L 327.778986 134.746883 
L 328.020226 135.838267 
L 328.256505 135.050792 
L 328.495475 129.673422 
L 328.794246 138.02561 
L 329.171816 134.537414 
L 329.275333 137.302305 
L 329.508337 139.661444 
L 329.745474 131.492653 
L 330.162941 134.924204 
L 330.282264 134.829794 
L 330.580948 134.757297 
L 330.761294 137.670953 
L 331.057073 135.371768 
L 331.312423 138.531603 
L 331.798258 133.205087 
L 332.018819 136.153029 
L 332.487919 135.335743 
L 332.725398 136.154478 
L 333.024265 134.807398 
L 333.267721 136.650205 
L 333.502737 137.268807 
L 333.741417 133.833066 
L 333.980504 135.154347 
L 334.226045 137.792261 
L 334.581092 132.146501 
L 335.022935 135.37979 
L 335.231468 135.184469 
L 335.709664 139.781822 
L 335.971918 138.312417 
L 336.184852 133.70814 
L 336.423478 133.391587 
L 336.663453 133.451854 
L 336.900926 136.265003 
L 337.317585 134.489931 
L 337.437428 133.143586 
L 337.736454 135.956408 
L 337.916816 134.826593 
L 338.161358 129.892861 
L 338.54477 137.738103 
L 338.658091 133.691992 
L 338.944233 134.869953 
L 338.991294 135.572149 
L 339.29103 129.791727 
L 339.410048 135.711173 
L 339.825811 135.009008 
L 339.945144 135.437636 
L 340.12328 134.840992 
L 340.421547 132.977198 
L 340.719728 138.795049 
L 340.898441 135.762309 
L 341.13678 134.654666 
L 341.375437 135.484637 
L 341.615004 133.377914 
L 341.917182 137.204557 
L 342.091832 137.318135 
L 342.390217 133.279703 
L 342.592547 134.404835 
L 342.865715 134.722125 
L 343.224194 138.998067 
L 343.364331 134.826489 
L 343.582206 134.82669 
L 343.819625 134.286351 
L 344.2367 135.208157 
L 344.355474 133.282636 
L 344.835051 136.438509 
L 345.073439 135.295741 
L 345.381281 135.972082 
L 345.609531 137.231665 
L 345.793405 132.029465 
L 346.084919 135.734779 
L 346.386542 135.70103 
L 346.623265 131.363475 
L 346.800697 137.09845 
L 347.046882 134.471587 
L 347.336523 133.44015 
L 347.633595 134.325726 
L 347.812551 135.589174 
L 348.051726 134.925885 
L 348.470912 134.269437 
L 348.531021 135.084901 
L 348.830156 134.968425 
L 349.025631 134.733964 
L 349.25029 137.249939 
L 349.603408 134.679281 
L 349.8421 134.792669 
L 350.139628 135.807419 
L 350.557034 128.46536 
L 350.855204 136.216225 
L 351.033535 135.717554 
L 351.272515 134.66881 
L 351.510253 129.626118 
L 351.86755 139.855775 
L 352.048182 134.111 
L 352.34541 136.385509 
L 352.643325 134.232041 
L 352.763199 135.433041 
L 353.001631 139.334259 
L 353.358236 133.868905 
L 353.777296 134.462728 
L 354.192068 130.576768 
L 354.49016 137.421165 
L 354.729169 134.767436 
L 354.967142 135.307845 
L 355.26572 134.51041 
L 355.563366 134.826544 
L 355.691361 138.935843 
L 355.993376 134.847191 
L 356.230389 134.780553 
L 356.695564 139.277234 
L 357.11492 138.822164 
L 357.232346 133.584612 
L 357.414082 135.128542 
L 357.768024 134.47442 
L 358.067321 135.323456 
L 358.200121 136.612082 
L 358.619507 134.826606 
L 358.726755 137.058281 
L 358.964857 137.288613 
L 359.203431 134.210734 
L 359.448191 134.237354 
L 359.739861 134.901283 
L 359.918637 134.415698 
L 360.223373 136.049222 
L 360.464925 138.394063 
L 360.754514 130.534577 
L 360.876193 137.745285 
L 361.129106 135.299361 
L 361.415503 137.371628 
L 361.661674 134.648369 
L 361.887082 134.862454 
L 362.185637 135.721291 
L 362.424082 132.971758 
L 362.662654 134.538141 
L 362.950189 137.533278 
L 363.20353 129.779873 
L 363.423447 135.151528 
L 363.622003 134.194333 
L 363.916371 139.032922 
L 364.393153 134.986099 
L 364.630544 134.335232 
L 364.92917 135.547549 
L 365.107627 134.743956 
L 365.345698 135.522296 
L 365.643635 129.164494 
L 365.941582 134.495481 
L 366.120566 134.025758 
L 366.430486 138.90837 
L 366.661699 134.826538 
L 366.95586 134.826564 
L 367.137644 135.000047 
L 367.313284 135.559902 
L 367.613202 134.826627 
L 367.848153 137.046912 
L 368.164973 137.287703 
L 368.328014 133.835136 
L 368.629685 138.474758 
L 368.92628 134.805544 
L 369.113805 135.444877 
L 369.34484 135.10296 
L 369.529356 133.608763 
L 369.821758 133.806936 
L 370.240307 128.752207 
L 370.360723 136.373548 
L 370.778089 134.286323 
L 371.015218 135.190693 
L 371.312315 138.743993 
L 371.555098 135.528683 
L 371.789135 135.39551 
L 372.027824 134.526311 
L 372.325578 135.28791 
L 372.861574 138.042295 
L 373.397043 134.217361 
L 373.93445 139.177049 
L 373.993192 126.071678 
L 374.356468 134.119453 
L 374.64956 135.758937 
L 374.71244 135.332275 
L 375.080509 135.233179 
L 375.245909 134.391683 
L 375.486534 137.061297 
L 375.841426 134.463736 
L 376.021182 134.779493 
L 376.325316 136.858734 
L 376.501063 128.994414 
L 376.735908 134.1519 
L 377.275259 134.387629 
L 377.454122 139.78521 
L 377.691085 139.169877 
L 377.97089 133.995957 
L 378.467507 134.826581 
L 378.705786 134.759293 
L 379.003346 139.133016 
L 379.182787 134.716082 
L 379.541591 135.683759 
L 379.77876 132.199085 
L 379.957593 133.630974 
L 380.315476 134.183301 
L 380.43452 136.394828 
L 380.67377 136.137544 
L 380.971538 136.564318 
L 381.209422 134.602779 
L 381.566802 134.495613 
L 381.744983 135.182318 
L 382.170296 134.753312 
L 382.401177 132.989685 
L 382.640935 137.082728 
L 382.938268 133.875139 
L 383.116642 135.542984 
L 383.414778 134.51695 
L 383.653191 134.802548 
L 383.891272 138.167942 
L 384.130172 134.412812 
L 384.36784 133.74155 
L 385.141968 139.061527 
L 385.442062 135.003052 
L 385.737779 134.457792 
L 385.982328 131.553893 
L 386.154941 138.354706 
L 386.572481 134.712058 
L 386.633083 135.07931 
L 386.871953 135.381561 
L 387.288124 134.756859 
L 387.408358 139.887705 
L 387.704159 131.401181 
L 387.883735 135.184589 
L 388.12156 135.035199 
L 388.360572 138.793601 
L 388.83674 134.706078 
L 389.078696 134.11249 
L 389.373409 135.096939 
L 389.673069 134.783073 
L 389.731908 134.523183 
L 389.85151 134.826469 
L 390.209139 134.826779 
L 390.327434 136.904732 
L 390.566718 134.144366 
L 390.866233 128.758784 
L 391.578394 134.643108 
L 391.956832 134.68418 
L 392.061414 135.188621 
L 392.294363 132.52726 
L 392.534085 138.259493 
L 392.832412 135.89382 
L 393.014287 134.375548 
L 393.427847 138.819089 
L 393.65145 131.710975 
L 393.785792 134.200656 
L 394.023607 134.210679 
L 394.261973 134.561254 
L 394.507191 134.440071 
L 394.798172 134.088839 
L 395.156539 135.847168 
L 395.275553 138.273472 
L 395.574048 136.188659 
L 395.817442 135.621063 
L 396.050757 136.959971 
L 396.289007 135.462643 
L 396.468688 135.233774 
L 396.709418 134.346529 
L 397.006497 133.985904 
L 397.24286 134.410181 
L 397.480824 137.772394 
L 397.839129 134.735879 
L 398.01748 136.030064 
L 398.255879 135.200669 
L 398.493969 138.755376 
L 398.732782 134.760034 
L 399.032184 134.49819 
L 399.38968 135.806367 
L 399.629341 135.951966 
L 399.867123 130.252783 
L 399.986143 137.744735 
L 400.464749 133.795105 
L 400.710246 136.740679 
L 401.000306 137.720514 
L 401.240795 134.193969 
L 401.476641 133.738898 
L 401.775515 135.32006 
L 401.955105 134.331362 
L 402.253688 129.19359 
L 402.431344 137.252462 
L 402.669635 134.474836 
L 402.908526 134.882345 
L 403.206332 136.015946 
L 403.397622 130.745802 
L 403.633589 134.609748 
L 403.922551 135.515528 
L 404.402506 133.920254 
L 404.641312 136.292984 
L 404.947887 129.929767 
L 405.175669 135.131722 
L 405.385104 134.065239 
L 405.65268 133.466628 
L 405.894417 129.275797 
L 406.132636 134.322866 
L 406.426561 134.171399 
L 406.667313 135.892287 
L 406.963223 135.155236 
L 407.144113 128.201215 
L 407.380891 129.143375 
L 407.619993 135.530944 
L 407.860801 135.017424 
L 408.217822 136.703187 
L 408.398363 128.398463 
L 408.636507 134.747905 
L 408.917998 134.907628 
L 409.234688 133.95848 
L 409.470635 137.714642 
L 409.589722 130.021171 
L 409.829013 129.438004 
L 410.126347 135.499169 
L 410.42592 135.220725 
L 410.606015 133.522882 
L 410.844374 136.40585 
L 411.143152 134.91438 
L 411.320402 135.405719 
L 411.619643 135.259318 
L 411.857209 133.327404 
L 412.096215 139.263818 
L 412.512689 134.826607 
L 412.58546 135.529998 
L 412.87158 134.652821 
L 413.062343 132.871918 
L 413.456757 137.906916 
L 413.584819 133.295182 
L 413.81476 134.778716 
L 414.11483 135.456785 
L 414.472681 135.273801 
L 414.533583 138.837582 
L 414.830286 133.860124 
L 415.068038 133.985416 
L 415.309724 134.562034 
L 415.559664 134.826781 
L 415.96323 133.875349 
L 416.023198 134.2198 
L 416.321581 133.741448 
L 416.563927 134.95078 
L 416.805148 132.49486 
L 417.002271 136.438428 
L 417.276707 132.500148 
L 417.756951 135.133877 
L 418.054464 135.641404 
L 418.471725 134.714538 
L 418.530943 135.187481 
L 418.770431 133.298283 
L 419.126668 134.490395 
L 419.305279 137.684305 
L 419.487583 137.563013 
L 419.724077 138.280589 
L 419.962564 135.086571 
L 420.281437 134.801292 
L 420.501517 135.235169 
L 420.738015 131.598064 
L 420.975057 135.04071 
L 421.214128 134.563691 
L 421.512226 135.055648 
L 421.693249 134.13661 
L 422.225812 133.193718 
L 422.234324 171.460609 
L 422.468961 134.272084 
L 422.825214 138.541254 
L 423.004989 137.053907 
L 423.252127 136.908628 
L 423.484338 134.330926 
L 423.840978 134.238951 
L 423.960579 137.339774 
L 424.145321 134.374242 
L 424.43705 133.559695 
L 424.675708 134.826398 
L 424.915208 134.541437 
L 425.155055 133.638206 
L 425.574673 128.745175 
L 425.629286 138.892557 
L 425.988437 135.023363 
L 426.172027 135.356751 
L 426.40654 134.789434 
L 426.64547 134.688491 
L 427.065099 134.916246 
L 427.190077 136.849812 
L 427.445399 134.390138 
L 427.659166 138.519725 
L 427.90644 138.019125 
L 427.958088 133.463364 
L 428.19698 131.568372 
L 428.436409 134.83954 
L 428.619145 133.538077 
L 428.8559 135.047903 
L 429.151322 134.879227 
L 429.628082 128.222561 
L 430.10485 139.692538 
L 430.344322 140.101828 
L 430.903823 134.704688 
L 431.121983 134.493241 
L 431.357652 113.801999 
L 431.597523 112.104483 
L 431.843497 119.918764 
L 432.095657 123.26203 
L 432.328044 124.052381 
L 432.561897 124.179928 
L 432.821237 130.197218 
L 433.594031 134.900693 
L 433.87843 133.610927 
L 434.121676 135.359866 
L 434.414608 135.387467 
L 434.534949 137.470296 
L 434.776173 136.506457 
L 435.198864 139.093683 
L 435.318081 134.893026 
L 435.54992 135.171466 
L 435.793016 136.073509 
L 436.163582 132.985419 
L 436.324342 134.205634 
L 436.627299 133.833028 
L 436.862153 134.720766 
L 437.100266 136.573523 
L 437.400723 131.964493 
L 437.640155 138.782572 
L 438.242412 130.210128 
L 438.507695 133.756544 
L 438.778576 132.590382 
L 439.093849 135.192287 
L 439.259491 140.364034 
L 439.609454 135.551731 
L 439.813723 137.264217 
L 440.027646 134.18311 
L 440.326857 135.621232 
L 440.505242 133.62933 
L 440.743769 133.188665 
L 440.985603 133.831847 
L 441.360449 137.405466 
L 441.460589 136.463961 
L 441.817555 134.918552 
L 441.996582 133.401556 
L 442.476381 137.62346 
L 442.882088 133.19181 
L 443.119643 133.784034 
L 443.306995 132.304538 
L 443.537398 141.431138 
L 443.835364 132.385499 
L 444.193965 134.062987 
L 444.670741 138.123429 
L 445.029606 131.348521 
L 445.21114 132.877644 
L 445.566243 137.177316 
L 445.69185 129.538023 
L 446.223006 135.991992 
L 446.46149 134.308729 
L 446.703529 136.890451 
L 446.93948 135.987132 
L 447.182432 133.956222 
L 447.4174 134.987372 
L 447.656135 138.409722 
L 447.904892 133.999101 
L 448.138367 136.863799 
L 448.437338 133.456129 
L 448.625267 135.11617 
L 449.152725 134.429219 
L 449.392189 137.822469 
L 449.808343 133.892285 
L 449.89612 135.039379 
L 450.16705 132.600841 
L 450.46407 132.557855 
L 450.761942 135.480249 
L 450.94209 133.773285 
L 451.180519 138.309901 
L 451.425902 134.572687 
L 451.658653 134.816427 
L 452.077357 132.096775 
L 452.326715 136.747961 
L 452.613173 133.390065 
L 452.864845 134.323705 
L 453.098099 138.418073 
L 453.469682 134.913214 
L 453.632802 138.34173 
L 453.809319 132.738108 
L 454.134366 131.889428 
L 454.345201 138.631372 
L 454.765606 134.960599 
L 454.847127 136.073108 
L 455.071869 133.165427 
L 455.300727 135.837588 
L 455.539853 135.938451 
L 455.961335 133.973074 
L 456.150748 131.285182 
L 456.566905 139.091439 
L 456.984034 135.110333 
L 457.044693 136.940857 
L 457.700957 133.597559 
L 457.762486 134.091397 
L 458.176246 138.880666 
L 458.295734 132.19332 
L 458.535771 136.03201 
L 458.772737 134.281465 
L 459.18988 136.15638 
L 459.309275 134.545084 
L 459.548312 135.731749 
L 459.792529 135.610786 
L 459.846799 134.132313 
L 460.026983 136.402187 
L 460.264394 141.783617 
L 460.505547 133.764419 
L 460.801349 133.035697 
L 460.981197 134.918572 
L 461.300883 134.896197 
L 461.461133 132.830295 
L 461.759676 139.525879 
L 461.997667 133.895313 
L 462.240011 136.063762 
L 462.535859 132.899884 
L 462.954361 137.071083 
L 463.252644 133.967199 
L 463.439137 136.095027 
L 463.848593 136.501446 
L 463.995751 134.254636 
L 464.210024 134.50466 
L 464.468285 135.325317 
L 464.68398 135.005325 
L 464.923343 132.902909 
L 465.170704 134.400269 
L 465.469677 137.775925 
L 465.710789 134.478038 
L 466.009353 133.676055 
L 466.483619 135.116459 
L 466.663185 132.91327 
L 466.961408 134.778459 
L 467.199234 134.077861 
L 467.597038 135.38546 
L 467.744427 133.605923 
L 467.921045 138.996959 
L 468.454257 133.276718 
L 468.761166 135.815749 
L 468.931187 133.09404 
L 469.179483 134.359358 
L 469.542461 133.399131 
L 469.64942 131.922691 
L 469.893371 131.629322 
L 470.128335 136.445554 
L 470.435389 136.992029 
L 470.683137 135.258847 
L 470.906718 136.275406 
L 471.143739 135.514547 
L 471.389817 137.515115 
L 471.865224 133.329711 
L 472.16172 133.038662 
L 472.456786 134.614603 
L 472.636186 132.996414 
L 473.054076 136.514952 
L 473.400235 134.355976 
L 473.868197 135.461421 
L 474.170263 131.153678 
L 474.354868 137.623584 
L 474.645427 137.084486 
L 474.949827 134.472644 
L 475.125654 138.364143 
L 475.601585 133.817168 
L 476.079329 138.622643 
L 476.317061 138.412343 
L 476.555932 133.609966 
L 476.795462 139.792659 
L 477.212458 137.946474 
L 477.361592 131.058002 
L 477.749946 137.001091 
L 477.868828 133.500781 
L 478.107403 136.966809 
L 478.345862 133.212077 
L 478.643526 136.903742 
L 478.775738 134.656359 
L 479.035221 133.677469 
L 479.305237 138.460734 
L 479.600228 136.336466 
L 479.798874 137.405143 
L 480.01865 137.016784 
L 480.259337 131.636448 
L 480.639147 133.800878 
L 480.797255 132.826209 
L 481.032858 138.526376 
L 481.30086 134.754368 
L 481.594462 134.937356 
L 481.817167 134.502285 
L 482.112202 137.366114 
L 482.54011 132.260224 
L 482.796157 137.02958 
L 483.087039 134.348786 
L 483.208624 138.481027 
L 483.500877 134.491766 
L 483.799178 132.98139 
L 484.097273 135.081185 
L 484.216787 133.274914 
L 484.514676 135.41586 
L 484.761105 140.399188 
L 485.230884 133.468276 
L 485.470722 132.701829 
L 485.76882 134.315474 
L 486.007356 136.421864 
L 486.247979 136.308949 
L 486.483328 135.129482 
L 486.721699 136.333585 
L 486.961225 134.40201 
L 487.206514 134.894709 
L 487.440359 134.940548 
L 487.677248 134.386067 
L 488.037454 136.364462 
L 488.214516 138.62255 
L 488.455338 134.403454 
L 488.751713 136.707745 
L 489.288177 134.227552 
L 489.540319 133.691421 
L 489.706772 134.232003 
L 490.005091 133.655808 
L 490.242896 135.590441 
L 490.683853 133.829384 
L 490.899752 133.928735 
L 491.201618 134.561378 
L 491.494573 131.884757 
L 491.741352 135.578857 
L 491.913287 135.765916 
L 492.154206 133.731845 
L 492.390345 135.869727 
L 492.705805 133.246079 
L 492.884784 133.849536 
L 493.122928 131.849863 
L 493.601015 131.486257 
L 493.66099 134.92868 
L 493.95881 131.668384 
L 494.141209 133.895172 
L 494.380638 134.945215 
L 494.614303 134.944014 
L 494.912142 136.414329 
L 495.092642 139.10892 
L 495.391562 135.08948 
L 495.688062 135.624519 
L 495.866611 134.434955 
L 496.169394 135.347601 
L 496.407336 133.507503 
L 496.644163 139.015275 
L 497.122047 134.892432 
L 497.32743 136.638372 
L 497.602808 135.797922 
L 497.947291 133.291803 
L 498.384535 136.675584 
L 498.621652 135.745574 
L 498.860584 138.842802 
L 499.337413 133.878259 
L 499.576371 135.815336 
L 499.817608 136.311335 
L 500.113488 138.606197 
L 500.293182 134.266461 
L 500.609204 134.861434 
L 500.650281 132.961906 
L 500.829084 131.664978 
L 501.130331 138.705151 
L 501.425955 134.069805 
L 501.604394 134.00442 
L 502.085048 136.11849 
L 502.142852 138.657817 
L 502.321119 135.503224 
L 502.565805 134.170238 
L 503.051282 134.952001 
L 503.27591 133.484002 
L 503.515493 137.377841 
L 503.872555 136.999274 
L 504.051407 133.232358 
L 504.229888 136.199682 
L 504.650095 132.806481 
L 504.707569 137.160686 
L 505.069486 136.274536 
L 505.311707 137.6008 
L 505.547959 135.395304 
L 505.78225 135.288355 
L 506.020268 134.910216 
L 506.266043 132.482686 
L 506.569872 136.753933 
L 506.746757 134.601627 
L 506.993307 134.658403 
L 507.231373 133.084368 
L 507.475334 135.704633 
L 507.708032 135.225131 
L 508.005894 138.289968 
L 508.190358 133.4087 
L 508.485193 139.082566 
L 508.787092 130.315592 
L 509.01986 139.227213 
L 509.275368 139.893826 
L 509.498512 131.291538 
L 509.921977 136.168484 
L 509.97473 134.149012 
L 510.21317 136.735466 
L 510.631246 134.40815 
L 510.691646 134.736754 
L 510.932276 133.712279 
L 511.427141 136.046031 
L 511.731757 134.780447 
L 511.94593 137.364143 
L 512.202575 134.776793 
L 512.42372 135.396107 
L 512.662927 138.003227 
L 512.902669 130.862909 
L 513.214663 138.597496 
L 513.619081 131.712241 
L 513.68035 135.107959 
L 513.915563 132.575689 
L 514.39837 135.677651 
L 514.571539 135.689286 
L 514.703169 132.972399 
L 514.890518 135.305726 
L 515.247869 131.871952 
L 515.468485 134.281257 
L 515.690172 134.052196 
L 515.918439 136.353646 
L 516.15758 136.46972 
L 516.400242 138.205768 
L 516.762513 132.174267 
L 516.922212 134.961903 
L 517.159528 133.797129 
L 517.51651 133.531949 
L 517.702683 135.949875 
L 517.878201 132.949243 
L 518.173168 131.948995 
L 518.480489 135.214946 
L 518.653123 135.492205 
L 518.951708 132.508399 
L 519.130101 135.220799 
L 519.388449 135.759712 
L 519.725267 134.520421 
L 519.86004 137.223229 
L 520.141772 139.464164 
L 520.439599 150.179681 
L 520.621899 144.338257 
L 520.859464 149.512901 
L 521.115203 143.893127 
L 521.39507 146.01561 
L 521.637701 142.426637 
L 521.87368 140.666403 
L 522.117242 143.062395 
L 522.363738 137.141402 
L 522.827932 133.463837 
L 523.266623 133.407094 
L 523.497826 134.488556 
L 523.843711 133.382846 
L 524.131034 134.522246 
L 524.380779 134.495371 
L 524.857058 135.376053 
L 524.9168 135.11306 
L 525.275559 134.995954 
L 525.403427 135.383947 
L 525.814188 134.99308 
L 526.596989 134.835654 
L 528.686391 134.801412 
L 528.92995 134.666553 
L 529.284939 134.837377 
L 542.613306 134.823251 
L 596.502813 134.823678 
L 596.502813 134.823678 
" clip-path="url(#p1cb1c1c779)" style="fill: none; stroke: #0000ff; stroke-opacity: 0.7; stroke-width: 1.5; stroke-linecap: square"/>
   </g>
   <g id="line2d_28">
    <path d="M 38.502813 160.435769 
L 38.622916 156.819525 
L 38.865804 157.562049 
L 38.937 160.045666 
L 39.111017 157.767064 
L 39.417061 158.401628 
L 39.885883 158.183211 
L 40.302791 159.769151 
L 40.541846 158.940155 
L 40.601545 159.750626 
L 41.018884 160.378584 
L 41.257159 160.366964 
L 41.559198 161.324572 
L 42.033407 162.015099 
L 42.091503 161.820164 
L 42.329583 161.461301 
L 42.628872 160.231517 
L 42.928055 160.940321 
L 43.164095 159.436921 
L 43.581899 161.412515 
L 43.819883 159.194923 
L 44.060446 160.280458 
L 44.300935 159.4498 
L 44.599353 161.125151 
L 44.834047 159.240507 
L 45.371049 160.188015 
L 45.669985 161.707847 
L 45.857012 159.882475 
L 46.328887 159.312924 
L 46.567049 160.108956 
L 46.805772 160.472909 
L 47.224756 158.465532 
L 47.405507 160.089178 
L 47.521373 159.770165 
L 47.766181 161.079732 
L 48.003493 159.454331 
L 48.536913 160.166405 
L 49.14069 160.044003 
L 50.441813 160.392423 
L 53.050949 159.527704 
L 55.661121 159.432725 
L 57.085405 159.91311 
L 58.50861 159.263362 
L 59.813793 159.495712 
L 59.954398 160.665722 
L 60.669155 157.80679 
L 60.966191 160.538214 
L 61.265892 161.577354 
L 61.445302 159.894764 
L 61.681905 161.706641 
L 61.866132 160.566685 
L 62.104406 158.079843 
L 62.404 160.683496 
L 62.638974 161.118071 
L 62.936269 159.813475 
L 63.11617 160.729741 
L 63.356366 160.774199 
L 63.652931 158.406196 
L 64.130974 160.256688 
L 64.426649 159.823255 
L 64.72558 160.878733 
L 64.844761 159.575044 
L 65.083776 159.225809 
L 65.323835 162.625547 
L 65.636208 162.875403 
L 65.860257 160.704399 
L 66.108513 162.238481 
L 66.396826 161.232908 
L 66.578194 159.525009 
L 66.934528 163.06027 
L 67.112748 161.9122 
L 67.414376 160.926283 
L 67.588886 161.340596 
L 67.829178 159.382002 
L 68.125305 158.429493 
L 68.602529 161.513105 
L 68.783671 163.718864 
L 69.019997 162.172994 
L 69.32384 158.610929 
L 69.616891 159.792008 
L 69.855516 161.896734 
L 70.095651 160.149326 
L 70.338534 160.014786 
L 70.523348 163.25302 
L 70.817845 162.289533 
L 71.292681 158.626517 
L 71.413207 158.691876 
L 71.829525 160.760788 
L 72.070236 161.761899 
L 72.364771 160.468722 
L 72.604817 160.189447 
L 72.782636 161.362145 
L 73.259107 159.637661 
L 73.442011 158.23737 
L 73.737273 159.370302 
L 73.796233 160.093055 
L 74.034856 160.794609 
L 74.512377 157.874022 
L 74.809776 158.868511 
L 75.10756 159.174779 
L 75.350039 158.963192 
L 75.716732 162.226612 
L 75.763801 161.738593 
L 76.00305 161.732559 
L 76.299771 161.41888 
L 76.479259 160.423382 
L 76.779836 162.946443 
L 77.014868 163.602084 
L 77.211656 161.643507 
L 77.492991 162.455777 
L 77.731123 162.611722 
L 78.208334 158.913906 
L 78.445703 160.519467 
L 78.984279 161.432088 
L 79.221395 159.260903 
L 79.46119 159.324307 
L 79.699016 159.657468 
L 79.9365 158.478671 
L 80.296129 157.857765 
L 80.712316 162.920526 
L 81.192765 158.30553 
L 81.785318 159.888619 
L 81.913099 157.964163 
L 82.441028 163.433114 
L 82.620686 162.050682 
L 82.859406 157.994303 
L 83.215747 157.435305 
L 83.394399 160.079288 
L 83.632494 159.76732 
L 83.872614 157.325806 
L 84.109856 158.693184 
L 84.411018 161.533731 
L 84.706152 160.702533 
L 84.884266 157.74282 
L 85.123897 157.039872 
L 85.361288 159.081651 
L 85.600003 159.657775 
L 85.838773 159.813111 
L 86.207889 160.385634 
L 86.434523 160.474172 
L 86.732011 158.77383 
L 86.893125 156.744546 
L 87.090643 158.280619 
L 87.329041 161.54735 
L 87.627622 162.774398 
L 88.103508 158.595854 
L 88.40325 158.293549 
L 88.586765 159.73506 
L 89.00022 160.80933 
L 89.118231 161.654099 
L 89.536432 163.472822 
L 89.908761 163.495 
L 90.081212 160.823323 
L 90.548537 160.92286 
L 90.668047 162.107414 
L 90.905672 162.685883 
L 91.144508 162.319698 
L 91.263784 161.825355 
L 91.681363 161.410926 
L 91.801828 160.688205 
L 92.038568 160.820956 
L 92.514883 161.503329 
L 92.754169 160.941544 
L 93.289814 156.978816 
L 93.489754 156.860597 
L 93.826284 158.285252 
L 94.004867 158.506523 
L 94.541287 154.226694 
L 94.842115 155.836242 
L 95.019457 159.286286 
L 95.257497 161.227012 
L 95.498953 161.572694 
L 95.89183 161.149599 
L 96.064357 161.414007 
L 96.454062 160.833547 
L 96.573099 160.045345 
L 96.628852 160.604019 
L 96.69475 163.055201 
L 96.989749 164.662041 
L 97.286052 162.35243 
L 97.48986 158.271635 
L 97.779913 157.272535 
L 98.202731 162.722447 
L 98.47895 161.719326 
L 98.717529 159.875603 
L 99.025598 161.173885 
L 99.325453 161.5657 
L 99.795665 157.447779 
L 100.391 159.705565 
L 100.526244 161.825924 
L 101.868401 159.132471 
L 103.165642 159.80582 
L 104.594361 159.581016 
L 104.673559 164.022948 
L 105.09155 159.066773 
L 105.454112 157.860265 
L 105.687883 157.520907 
L 106.305417 160.209588 
L 107.089968 151.284461 
L 107.387998 151.827365 
L 107.688168 154.45765 
L 108.164534 162.611591 
L 108.347806 164.127763 
L 108.640473 163.158297 
L 109.117895 159.924016 
L 109.477366 161.787548 
L 109.596272 164.828048 
L 109.892792 165.826365 
L 110.192261 163.962224 
L 110.795086 154.315442 
L 111.052094 154.818933 
L 111.29097 158.102448 
L 111.577019 159.626768 
L 112.049728 155.582833 
L 112.289519 156.220656 
L 112.792567 160.197217 
L 113.325136 161.338331 
L 113.541144 159.737334 
L 113.788285 159.374465 
L 114.093357 161.940673 
L 114.33146 165.071653 
L 114.540544 165.223855 
L 114.883064 162.648847 
L 115.036051 159.990298 
L 115.313819 160.673187 
L 115.937099 162.913713 
L 116.002065 163.732121 
L 116.216076 161.842141 
L 116.30385 159.301152 
L 116.475791 157.970851 
L 116.782905 158.243014 
L 117.130896 158.193564 
L 117.249404 157.7918 
L 117.487743 158.367098 
L 117.726095 158.621645 
L 118.024139 158.189302 
L 118.450471 158.978324 
L 118.928024 161.451786 
L 119.289499 160.597259 
L 119.523478 159.02064 
L 119.821194 160.716072 
L 119.945178 163.252159 
L 120.298612 162.121042 
L 120.606507 159.71457 
L 120.715903 160.510946 
L 120.9231 163.647487 
L 121.194101 164.960676 
L 121.671188 158.405724 
L 121.912267 158.927109 
L 122.149815 159.861641 
L 122.624796 159.643082 
L 122.690525 160.987393 
L 122.935962 161.958194 
L 123.160922 160.540312 
L 123.69748 155.922249 
L 124.174029 161.491996 
L 124.949134 160.744673 
L 125.13009 158.797155 
L 125.427231 157.152922 
L 125.665306 156.912384 
L 125.857602 159.039319 
L 126.147722 160.824389 
L 126.627668 159.32731 
L 127.101098 160.116703 
L 127.397474 160.040963 
L 127.755155 159.469893 
L 128.11266 161.415967 
L 128.470607 162.052306 
L 128.590202 161.840069 
L 128.828251 161.881203 
L 129.127471 161.356739 
L 129.721296 161.76267 
L 130.080965 163.00736 
L 130.318908 162.411157 
L 131.094146 158.874974 
L 131.390373 159.252318 
L 131.570561 159.704661 
L 132.288655 157.727229 
L 132.530023 158.080532 
L 132.778446 158.720557 
L 133.080422 160.608994 
L 133.269134 163.205389 
L 133.599891 162.643346 
L 133.781243 159.597322 
L 134.048442 159.66946 
L 134.27389 162.519214 
L 134.511673 162.264669 
L 134.752536 159.383808 
L 134.988169 158.686569 
L 135.524563 162.166052 
L 136.061597 157.33385 
L 136.299914 157.302639 
L 136.537647 158.839392 
L 137.144696 156.679072 
L 137.371933 157.841454 
L 137.496099 159.552197 
L 137.729921 160.382408 
L 138.031643 158.967241 
L 138.237846 157.348295 
L 138.462756 157.680834 
L 138.821519 159.743805 
L 139.04073 160.00206 
L 139.996454 158.265976 
L 140.23413 158.809105 
L 140.475957 161.079862 
L 140.727123 164.678763 
L 141.011902 167.054355 
L 141.192054 165.427776 
L 141.74323 161.62553 
L 142.220316 166.212015 
L 142.460347 166.786929 
L 142.698106 163.993893 
L 143.173957 157.220808 
L 143.471179 157.651461 
L 143.657606 160.837429 
L 144.128735 164.394941 
L 144.365665 164.68482 
L 144.426045 162.200337 
L 144.665021 160.242723 
L 144.902659 159.864152 
L 145.379375 163.716534 
L 145.679051 163.957255 
L 146.042843 161.36329 
L 146.15371 158.365965 
L 146.451965 157.855755 
L 146.696415 160.56783 
L 146.884804 164.133518 
L 147.11376 164.151522 
L 147.644895 160.148026 
L 148.299554 161.805514 
L 148.41882 163.086544 
L 149.076012 161.131696 
L 149.373331 161.128433 
L 150.029772 162.723162 
L 150.089694 161.358794 
L 150.565971 156.932695 
L 150.92311 158.268993 
L 151.353883 159.407538 
L 151.876006 155.539547 
L 152.351803 160.442333 
L 152.532825 163.754989 
L 152.888581 166.485405 
L 153.188565 165.403065 
L 153.309231 162.406287 
L 153.54568 162.072422 
L 154.082528 166.097562 
L 154.797409 158.40034 
L 155.03402 158.415488 
L 155.333455 160.2117 
L 155.572779 163.171194 
L 155.93189 165.918004 
L 156.054561 165.847123 
L 156.288871 162.725579 
L 156.59785 160.861068 
L 157.244922 165.450248 
L 157.482632 163.845918 
L 158.075811 157.467126 
L 158.493969 155.169562 
L 159.028959 162.53812 
L 159.268997 162.998347 
L 159.984424 154.773099 
L 160.222772 155.553142 
L 160.639178 158.652682 
L 160.761288 160.568144 
L 161.002186 158.624569 
L 161.236001 155.253606 
L 161.473201 153.507054 
L 161.716034 154.543474 
L 162.430118 165.795208 
L 162.728429 164.863431 
L 163.21208 159.827742 
L 163.682554 165.230415 
L 163.922713 165.172486 
L 164.397251 160.090929 
L 164.755999 159.649095 
L 164.99298 160.302072 
L 165.410163 163.541061 
L 165.64954 163.753245 
L 166.126682 159.693591 
L 166.482576 160.903765 
L 166.661225 162.335128 
L 166.89949 161.492041 
L 167.436563 158.184191 
L 167.735563 159.404829 
L 167.91455 161.154112 
L 168.391427 161.943936 
L 168.63296 161.539074 
L 168.867709 161.731793 
L 169.165479 161.398882 
L 169.529336 160.594985 
L 169.881582 158.674315 
L 170.203109 158.30076 
L 170.598518 160.131883 
L 170.837969 160.017471 
L 171.25828 158.887833 
L 171.432118 158.019103 
L 172.146868 159.899843 
L 172.569875 160.698827 
L 172.835447 159.408245 
L 173.106348 157.507698 
L 173.339268 157.782152 
L 173.707388 160.02186 
L 174.158309 157.49697 
L 174.177757 157.494987 
L 174.535783 162.950971 
L 174.91395 163.483789 
L 175.073934 160.40137 
L 175.310543 158.008942 
L 175.54851 159.071007 
L 175.787124 161.511599 
L 176.085682 160.785236 
L 176.323655 159.621774 
L 176.579702 161.680957 
L 176.922167 162.432619 
L 177.049623 159.67043 
L 177.336715 156.460847 
L 177.648399 155.995775 
L 177.755713 158.314207 
L 178.11115 160.368768 
L 178.352257 159.900057 
L 178.528778 158.777805 
L 179.02236 157.836552 
L 179.243954 155.371345 
L 179.542117 157.324317 
L 180.199819 165.167561 
L 180.334683 164.505459 
L 180.554724 160.966085 
L 180.764952 159.828726 
L 181.237254 163.276085 
L 181.716775 162.676355 
L 181.952198 162.992352 
L 182.311857 162.764785 
L 182.856642 160.27868 
L 182.972183 160.41002 
L 184.008236 161.134947 
L 184.480842 158.764845 
L 184.866663 158.808739 
L 184.96201 160.502398 
L 185.456212 164.046014 
L 185.79372 162.428749 
L 185.914024 159.47906 
L 186.210739 159.721119 
L 186.450096 161.696063 
L 186.688066 162.150908 
L 187.183426 157.549037 
L 187.521698 157.197729 
L 187.93929 157.337439 
L 188.237062 157.414283 
L 188.475599 157.679205 
L 188.65442 158.057207 
L 189.608368 158.663283 
L 189.845677 157.626986 
L 189.964926 155.843284 
L 190.203386 156.004095 
L 190.679785 162.611084 
L 190.869436 163.621363 
L 191.396627 159.59401 
L 191.946866 164.282365 
L 192.117173 166.212694 
L 192.356479 165.547951 
L 193.072666 157.750427 
L 193.608741 162.974785 
L 193.905827 162.617741 
L 194.087116 160.068609 
L 194.441225 159.73557 
L 194.621423 159.874594 
L 194.919455 159.322219 
L 195.159734 159.97373 
L 195.574242 164.289295 
L 196.050762 159.46693 
L 196.348274 161.69984 
L 196.532194 162.228251 
L 196.824916 159.874829 
L 197.066503 159.772913 
L 197.302744 163.145372 
L 197.540668 164.118852 
L 198.021222 158.433495 
L 198.278285 160.363202 
L 198.614978 160.788554 
L 198.857745 158.792031 
L 199.328922 164.300771 
L 199.627167 163.076562 
L 199.755281 158.786696 
L 200.037406 158.233037 
L 200.288499 161.066903 
L 200.523074 161.316921 
L 200.76342 158.333106 
L 201.023906 159.519168 
L 201.252764 162.86282 
L 201.602062 163.400856 
L 202.020372 159.060399 
L 202.258451 159.629927 
L 202.734673 161.378242 
L 203.271444 161.306775 
L 203.986273 159.633786 
L 204.347506 159.75675 
L 204.462725 160.042338 
L 204.819721 159.185018 
L 205.180009 156.535766 
L 205.475165 157.794036 
L 205.723048 161.004419 
L 206.192034 161.437405 
L 206.452348 157.204998 
L 206.78839 158.905176 
L 207.266495 165.592253 
L 207.443269 165.580276 
L 207.922916 161.739887 
L 208.578156 160.22986 
L 209.172823 162.562309 
L 209.600943 162.183842 
L 209.950317 159.861668 
L 210.425683 163.581224 
L 210.663532 163.037682 
L 210.903374 162.827424 
L 211.140394 162.281818 
L 211.378598 160.849462 
L 211.677486 159.906751 
L 212.333313 164.296115 
L 212.393738 166.897337 
L 212.631154 166.992514 
L 213.168289 161.874491 
L 213.405839 161.402341 
L 213.824739 164.415531 
L 214.121064 163.944354 
L 215.076049 153.909478 
L 215.37507 155.433472 
L 215.554742 159.272287 
L 215.851328 162.87267 
L 216.089667 164.10739 
L 216.389104 162.112165 
L 216.58001 158.730942 
L 216.811423 157.112721 
L 217.102957 158.640715 
L 217.877773 165.797367 
L 218.056338 164.990002 
L 218.294893 162.42646 
L 218.776973 159.786565 
L 219.266031 160.700368 
L 219.30768 161.661005 
L 219.551399 161.442344 
L 220.04435 157.720779 
L 220.32987 157.678808 
L 220.62314 158.801956 
L 220.8622 160.613474 
L 221.162767 160.695747 
L 221.338171 159.775606 
L 221.515496 159.604247 
L 221.99322 160.452139 
L 222.055181 162.232161 
L 222.530269 164.941842 
L 222.771536 163.831054 
L 223.248476 157.881984 
L 223.554257 157.146315 
L 223.732051 158.588999 
L 224.048213 159.853335 
L 224.26118 159.585276 
L 224.498476 159.043863 
L 224.738977 159.288685 
L 225.274355 161.235383 
L 225.513956 162.307102 
L 225.75103 161.852703 
L 226.226817 158.51918 
L 226.525541 158.265494 
L 226.707352 158.992286 
L 227.004147 158.281721 
L 227.184451 157.528055 
L 227.956897 150.807968 
L 228.194151 151.525921 
L 228.491933 153.885658 
L 228.972776 159.38632 
L 229.507621 162.783164 
L 229.86666 162.489271 
L 229.998628 161.423575 
L 230.173069 161.076956 
L 230.705939 155.437803 
L 231.242363 151.408862 
L 231.630147 150.110392 
L 231.663719 148.736291 
L 232.136825 149.451774 
L 232.316057 151.139674 
L 232.434509 150.254571 
L 232.915984 153.235125 
L 233.208451 156.984734 
L 233.387885 157.713024 
L 233.864567 161.139959 
L 234.163673 157.648207 
L 234.459871 157.018702 
L 235.11598 146.360725 
L 235.72695 142.970946 
L 235.906757 144.572671 
L 236.084479 143.017399 
L 236.384217 142.136035 
L 236.621287 143.922251 
L 236.919839 145.217833 
L 237.157824 144.433131 
L 237.395703 146.481947 
L 237.695023 145.749782 
L 237.874902 143.225943 
L 238.290534 143.768464 
L 238.35076 142.179018 
L 238.828455 138.286939 
L 239.065068 143.910042 
L 239.305311 145.349733 
L 239.840779 151.491979 
L 240.023237 150.940363 
L 240.317181 153.498516 
L 240.614551 153.720762 
L 240.793797 154.623732 
L 241.151839 148.730845 
L 241.389884 147.879681 
L 241.806632 142.95242 
L 242.044896 138.870085 
L 242.344062 138.169328 
L 242.641746 136.174915 
L 242.939843 136.18824 
L 243.118815 134.72869 
L 243.41606 134.522663 
L 243.539421 141.09794 
L 244.531837 149.472348 
L 244.760099 147.79527 
L 244.998784 147.41723 
L 245.503869 145.981371 
L 246.202726 136.530673 
L 246.337942 128.585424 
L 246.460816 127.970983 
L 246.754794 132.376114 
L 246.994239 127.551855 
L 247.232263 125.946661 
L 247.469526 132.081708 
L 247.708076 130.637963 
L 248.125328 130.777763 
L 248.848689 148.231431 
L 249.020847 140.838761 
L 249.218981 138.958328 
L 249.91722 128.118642 
L 250.176782 127.890451 
L 250.454559 128.801604 
L 250.69308 128.259814 
L 250.990238 125.689934 
L 251.171156 126.884983 
L 251.466717 127.155075 
L 251.705896 130.351101 
L 252.004037 132.114014 
L 252.243865 134.268411 
L 252.425758 140.896039 
L 252.66071 140.230747 
L 252.958474 140.198052 
L 253.137428 140.957886 
L 253.437262 143.271636 
L 254.151034 128.961622 
L 254.390353 120.850808 
L 254.866171 123.686327 
L 255.283195 108.083487 
L 255.64118 111.054483 
L 255.702331 109.069652 
L 255.879236 109.26227 
L 256.118256 108.272015 
L 256.357 113.969294 
L 256.596713 122.812614 
L 257.013573 129.02245 
L 257.134596 127.378826 
L 257.61066 138.269345 
L 257.848051 136.644596 
L 258.20509 131.931354 
L 258.445132 135.11801 
L 258.859825 124.715948 
L 259.158214 128.071042 
L 259.487917 129.324422 
L 259.730147 132.080301 
L 259.876027 138.066409 
L 260.173233 132.368294 
L 260.294447 137.480116 
L 260.591149 143.473104 
L 260.949329 153.845897 
L 261.602805 127.693162 
L 261.975746 127.791836 
L 262.328785 121.096427 
L 262.55622 122.231104 
L 262.794199 121.107932 
L 263.151773 113.424021 
L 263.7477 126.291803 
L 263.866901 127.680072 
L 264.105397 134.371604 
L 264.285849 129.10806 
L 264.643203 137.871745 
L 265.058864 131.33206 
L 265.714773 116.144673 
L 265.955612 118.461347 
L 266.191948 124.415024 
L 266.252174 124.09581 
L 266.48981 120.81041 
L 266.788459 121.297658 
L 267.09442 120.074333 
L 267.324829 118.077541 
L 267.563622 125.871065 
L 267.759853 124.598898 
L 268.099501 126.924977 
L 268.338011 126.780085 
L 268.532791 129.254111 
L 268.756773 128.386131 
L 269.017167 124.682606 
L 269.233644 116.141334 
L 269.530633 111.438005 
L 269.887378 111.729132 
L 270.125731 110.01444 
L 270.245132 114.263932 
L 270.661966 114.586307 
L 270.723 114.789631 
L 270.960397 112.21093 
L 271.318588 110.167305 
L 271.561653 117.896651 
L 271.735812 112.144661 
L 271.975033 120.140043 
L 272.273994 116.328891 
L 272.454512 116.811819 
L 272.689423 125.400068 
L 272.927961 113.380955 
L 273.17533 114.095851 
L 273.643316 116.248614 
L 273.969451 116.140129 
L 274.219372 116.643284 
L 274.658263 112.007798 
L 274.845561 113.262546 
L 275.037647 110.469823 
L 275.313574 112.190213 
L 275.437851 104.829089 
L 275.791628 106.231409 
L 275.91339 113.380804 
L 276.20821 117.910886 
L 276.393789 112.69708 
L 276.812326 118.002019 
L 277.049078 110.762345 
L 277.162083 115.936949 
L 277.590469 120.562068 
L 277.779075 114.111933 
L 277.939041 122.527622 
L 278.12053 120.927372 
L 278.475781 104.168112 
L 278.624491 109.046765 
L 278.955747 104.441144 
L 279.193852 107.411326 
L 279.431173 118.521585 
L 279.612332 110.683947 
L 279.907556 121.664485 
L 280.086959 121.593857 
L 280.384925 127.706164 
L 280.623809 117.110533 
L 280.980465 115.814893 
L 281.1601 114.283352 
L 281.457142 109.918211 
L 281.594071 103.604213 
L 281.873928 112.802467 
L 282.056615 103.796645 
L 282.113657 112.200522 
L 282.351481 108.045116 
L 283.068365 122.51306 
L 283.306338 122.70923 
L 283.66432 132.011645 
L 283.961917 121.980751 
L 284.088847 113.009809 
L 284.563335 123.655368 
L 284.856401 125.835148 
L 285.034625 116.140367 
L 285.276257 118.558175 
L 285.810779 114.717579 
L 286.048783 117.24326 
L 286.292195 115.342087 
L 286.526687 108.427463 
L 286.769413 112.958346 
L 287.007247 107.154266 
L 287.262421 119.193806 
L 287.484106 109.310928 
L 287.84259 112.870483 
L 288.024509 121.958123 
L 288.259375 117.97426 
L 288.497522 127.557826 
L 288.736219 127.636249 
L 289.24077 113.860949 
L 289.455069 115.907983 
L 289.811148 111.07805 
L 290.227704 118.962101 
L 290.347633 109.158759 
L 290.465879 121.631233 
L 290.883363 105.529956 
L 290.948755 122.342311 
L 291.225488 116.444296 
L 291.495528 106.741848 
L 291.679836 119.578437 
L 292.13465 107.232121 
L 292.194976 123.464469 
L 292.432576 122.111112 
L 292.969282 112.97086 
L 293.207555 111.987884 
L 293.504983 114.837817 
L 293.689059 111.078493 
L 293.924229 101.303937 
L 294.221147 97.477173 
L 294.466574 105.35131 
L 294.698997 99.067058 
L 294.878318 113.118382 
L 295.173661 113.192627 
L 295.4127 126.75192 
L 295.717231 130.482867 
L 295.948103 112.740855 
L 296.426372 120.416577 
L 296.607631 119.266204 
L 296.961851 118.020461 
L 297.152314 115.187647 
L 297.438974 125.503174 
L 297.620443 113.422891 
L 297.929888 116.941055 
L 298.095365 111.524948 
L 298.335465 110.764812 
L 298.632709 105.483351 
L 298.870236 118.511959 
L 299.108436 123.552756 
L 299.60655 124.190282 
L 299.827215 118.918201 
L 300.182774 102.664729 
L 300.361705 111.832705 
L 300.600166 106.617826 
L 300.854175 117.806411 
L 301.079765 110.921399 
L 301.494049 128.631393 
L 301.613328 113.90428 
L 301.911255 122.470776 
L 302.09056 106.427265 
L 302.626399 118.231888 
L 302.80676 127.533495 
L 303.043886 118.19815 
L 303.341324 117.548886 
L 303.54503 113.881028 
L 303.826118 118.611762 
L 304.119111 118.759896 
L 304.41641 120.926108 
L 304.595673 127.217216 
L 304.95287 123.167027 
L 305.252232 115.120229 
L 305.31073 115.772635 
L 305.548602 115.069023 
L 305.846457 112.69123 
L 306.02906 118.413454 
L 306.385283 117.94839 
L 306.562027 109.275875 
L 306.801509 111.98876 
L 306.996024 118.197509 
L 307.281744 117.4201 
L 307.656728 120.834079 
L 308.067971 126.516748 
L 308.299126 118.924105 
L 308.537897 130.322708 
L 308.839248 116.071652 
L 309.313549 111.217697 
L 309.455479 112.732792 
L 309.930311 109.754068 
L 310.001814 109.886307 
L 310.28921 117.756225 
L 310.527271 107.106172 
L 310.708003 122.257186 
L 311.063774 118.124901 
L 311.242711 123.808418 
L 311.611583 131.377234 
L 311.781527 114.719203 
L 312.017687 115.052409 
L 312.375319 128.237465 
L 312.501747 117.503179 
L 312.732977 118.040107 
L 313.090224 121.529875 
L 313.212638 0.72 
L 313.568273 12.066343 
L 313.805492 44.0952 
L 314.235778 164.308765 
L 314.58015 187.258151 
L 314.701814 216.905754 
L 314.938888 237.696047 
L 315.682591 277.92 
L 316.016983 276.766322 
L 316.33419 245.827362 
L 316.695304 176.799587 
L 316.995565 150.282493 
L 317.110027 105.8648 
L 318.180102 43.465264 
L 318.359189 48.455852 
L 319.49789 134.017042 
L 319.614865 164.096664 
L 319.910478 172.465606 
L 320.14826 190.240623 
L 320.328134 190.303756 
L 320.624731 182.037819 
L 320.864807 161.407929 
L 321.102007 152.478029 
L 321.584298 113.16171 
L 321.878065 115.649886 
L 322.357206 98.91739 
L 322.592008 103.299203 
L 323.548541 151.16722 
L 323.963903 162.746833 
L 324.083748 175.870154 
L 324.50419 168.49183 
L 324.569671 173.412521 
L 325.098086 140.908882 
L 325.454334 124.945786 
L 325.812051 96.605852 
L 326.051482 98.31537 
L 326.294583 95.123063 
L 326.530758 94.508273 
L 326.852363 106.993269 
L 327.242305 112.285679 
L 327.301953 129.546696 
L 328.020226 168.178246 
L 328.495475 182.668608 
L 328.794246 161.297338 
L 329.171816 155.707308 
L 329.275333 136.962023 
L 329.508337 119.461074 
L 329.745474 120.685452 
L 330.282264 98.134904 
L 330.761294 94.921336 
L 331.057073 107.767037 
L 331.312423 113.482994 
L 331.798258 145.210448 
L 332.018819 148.576269 
L 332.248663 154.708878 
L 332.487919 157.186145 
L 332.725398 153.458972 
L 333.024265 150.826454 
L 333.502737 127.417158 
L 333.741417 123.72619 
L 334.226045 105.89492 
L 334.581092 114.307551 
L 334.762633 114.599688 
L 335.022935 117.269056 
L 335.231468 124.61153 
L 335.469651 128.177228 
L 335.709664 129.764666 
L 335.971918 136.830397 
L 336.184852 145.993526 
L 336.423478 145.140022 
L 336.663453 141.134237 
L 336.900926 130.488698 
L 337.317585 125.701925 
L 337.736454 110.141805 
L 337.916816 108.012443 
L 338.161358 114.906908 
L 338.54477 102.713086 
L 338.658091 112.035587 
L 338.944233 112.914895 
L 338.991294 113.933037 
L 339.29103 126.565373 
L 339.410048 121.619207 
L 340.421547 133.154925 
L 340.719728 122.646921 
L 340.898441 125.611692 
L 341.13678 125.243717 
L 341.375437 121.828741 
L 341.615004 124.090444 
L 341.917182 117.833996 
L 342.091832 119.680925 
L 342.390217 130.765589 
L 342.865715 137.496768 
L 343.224194 132.966945 
L 343.364331 142.171626 
L 343.819625 144.658508 
L 344.355474 141.432239 
L 344.654162 133.822119 
L 344.835051 125.69246 
L 345.381281 116.940299 
L 345.609531 111.833058 
L 345.793405 117.621277 
L 346.084919 109.397838 
L 346.386542 108.379531 
L 346.623265 116.85685 
L 346.800697 111.443874 
L 347.336523 130.075817 
L 347.633595 132.570243 
L 347.812551 131.139933 
L 348.051726 131.390775 
L 348.531021 133.463193 
L 348.830156 135.082942 
L 349.025631 135.078524 
L 349.25029 127.829974 
L 349.603408 125.501374 
L 350.139628 111.62759 
L 350.26536 114.924693 
L 350.557034 127.800265 
L 350.855204 119.483298 
L 351.332358 127.219592 
L 351.510253 134.754658 
L 351.86755 117.680799 
L 352.048182 129.202066 
L 352.34541 127.93171 
L 352.643325 133.455961 
L 352.763199 130.460003 
L 353.001631 118.811318 
L 353.358236 120.395721 
L 353.777296 111.444394 
L 354.192068 118.433473 
L 354.26785 117.969912 
L 354.49016 114.555356 
L 354.729169 123.592299 
L 354.967142 125.487458 
L 355.26572 129.354332 
L 355.563366 131.296536 
L 355.691361 128.050629 
L 355.993376 138.749698 
L 356.230389 141.027597 
L 356.695564 132.737932 
L 357.11492 128.811688 
L 357.232346 131.760883 
L 357.414082 122.878614 
L 357.768024 120.170866 
L 358.200121 119.690253 
L 358.619507 121.677854 
L 358.726755 117.315978 
L 358.964857 118.608367 
L 359.203431 125.881829 
L 359.448191 128.091139 
L 359.739861 128.430031 
L 359.918637 130.690597 
L 360.223373 129.433648 
L 360.464925 125.529524 
L 360.754514 137.545948 
L 360.876193 125.020046 
L 361.129106 126.323516 
L 361.415503 117.923303 
L 361.661674 118.607956 
L 361.887082 117.339366 
L 362.185637 118.237853 
L 362.424082 127.46809 
L 362.662654 126.440415 
L 362.950189 119.68149 
L 363.20353 131.707021 
L 363.423447 124.152747 
L 363.622003 130.056332 
L 363.916371 126.048542 
L 364.298259 131.380552 
L 364.393153 130.072478 
L 364.630544 129.040497 
L 364.92917 125.074809 
L 365.107627 125.168768 
L 365.345698 123.629378 
L 365.643635 132.616116 
L 365.941582 120.708934 
L 366.120566 118.977849 
L 366.430486 110.915639 
L 366.661699 121.727933 
L 366.95586 124.609194 
L 367.137644 124.356818 
L 367.313284 121.946656 
L 367.613202 123.994533 
L 367.848153 122.37959 
L 368.164973 124.681171 
L 368.328014 130.495196 
L 368.629685 120.040227 
L 368.92628 122.340043 
L 369.113805 118.413868 
L 369.34484 119.18011 
L 369.529356 123.250468 
L 369.821758 123.581563 
L 370.240307 130.990675 
L 370.360723 118.900918 
L 370.716213 122.229028 
L 370.778089 123.932286 
L 371.015218 124.702824 
L 371.312315 121.059421 
L 371.555098 127.338607 
L 371.789135 128.207755 
L 372.027824 130.07036 
L 372.325578 130.442024 
L 372.572937 128.153877 
L 372.861574 122.121545 
L 373.223258 124.017116 
L 373.397043 127.777346 
L 373.518933 127.914798 
L 373.93445 121.682073 
L 373.993192 141.823126 
L 374.356468 124.939904 
L 374.71244 118.681583 
L 375.080509 120.645819 
L 375.245909 126.517597 
L 375.486534 124.14488 
L 375.841426 126.816856 
L 376.325316 118.571435 
L 376.501063 132.869066 
L 376.735908 126.74263 
L 377.154139 127.270938 
L 377.275259 126.039589 
L 377.454122 113.315581 
L 377.691085 111.887424 
L 377.97089 121.738754 
L 378.228234 123.585859 
L 378.705786 124.77401 
L 379.003346 118.665494 
L 379.182787 127.059243 
L 379.541591 126.202195 
L 379.77876 131.549182 
L 379.957593 129.066003 
L 380.315476 127.166081 
L 380.43452 121.143345 
L 380.67377 120.4511 
L 380.971538 121.88808 
L 381.209422 126.5504 
L 381.566802 124.636558 
L 381.744983 120.163179 
L 382.170296 120.524174 
L 382.401177 128.545464 
L 382.640935 124.303974 
L 382.938268 130.042758 
L 383.116642 125.355333 
L 383.414778 123.352208 
L 383.653191 120.890841 
L 383.891272 115.598121 
L 384.130172 124.305593 
L 384.36784 127.580931 
L 385.024513 117.760106 
L 385.141968 112.629645 
L 385.442062 120.287811 
L 385.737779 124.030044 
L 385.982328 132.197771 
L 386.154941 122.764125 
L 386.572481 128.108096 
L 386.633083 124.216337 
L 386.871953 121.198173 
L 387.288124 122.426552 
L 387.408358 116.118121 
L 387.704159 133.360188 
L 387.883735 127.864311 
L 388.12156 125.894695 
L 388.360572 116.459691 
L 388.657811 119.540917 
L 389.078696 127.212243 
L 389.673069 128.53188 
L 389.731908 128.190495 
L 389.85151 126.802436 
L 390.209139 124.087656 
L 390.327434 116.973721 
L 390.566718 120.265253 
L 390.866233 130.687217 
L 391.578394 122.142229 
L 391.956832 122.416188 
L 392.061414 122.975269 
L 392.294363 129.138312 
L 392.534085 120.26503 
L 393.014287 127.492441 
L 393.427847 119.611006 
L 393.65145 131.271013 
L 393.785792 127.930059 
L 394.023607 129.057509 
L 394.261973 128.972234 
L 394.798172 130.969274 
L 395.156539 128.256932 
L 395.275553 123.57029 
L 395.574048 126.500161 
L 395.817442 126.788674 
L 396.050757 124.766896 
L 396.289007 127.553598 
L 396.468688 128.007476 
L 396.709418 129.253496 
L 397.006497 128.789132 
L 397.24286 127.038821 
L 397.480824 120.388965 
L 397.839129 125.806487 
L 398.01748 124.373013 
L 398.255879 125.282653 
L 398.493969 117.480811 
L 398.732782 121.318884 
L 399.032184 119.568617 
L 399.38968 115.796839 
L 399.629341 114.535128 
L 399.867123 124.549806 
L 399.986143 114.265018 
L 400.464749 126.849475 
L 400.710246 125.741067 
L 401.000306 126.867725 
L 401.240795 134.152464 
L 401.476641 134.68734 
L 401.775515 130.482394 
L 401.955105 130.065765 
L 402.253688 135.269762 
L 402.431344 118.50411 
L 402.669635 120.702767 
L 403.206332 115.461032 
L 403.397622 125.456366 
L 403.633589 120.314862 
L 403.922551 119.545049 
L 404.402506 122.4751 
L 404.641312 118.793678 
L 404.947887 130.806459 
L 405.175669 124.243249 
L 405.385104 127.947555 
L 405.65268 129.426131 
L 405.894417 136.092261 
L 406.132636 127.304537 
L 406.426561 127.143534 
L 406.667313 123.949132 
L 406.963223 125.48926 
L 407.144113 137.046788 
L 407.380891 133.812342 
L 407.619993 119.59213 
L 407.860801 117.143595 
L 408.217822 112.12783 
L 408.398363 125.136447 
L 408.636507 114.593138 
L 408.917998 116.025192 
L 409.234688 120.249752 
L 409.470635 117.068065 
L 409.589722 133.810114 
L 409.829013 137.504289 
L 410.126347 128.72797 
L 410.42592 129.184476 
L 410.606015 131.468918 
L 410.844374 125.625834 
L 411.143152 127.428505 
L 411.320402 126.792286 
L 411.619643 127.677763 
L 411.857209 131.40936 
L 412.096215 121.510557 
L 412.512689 129.551403 
L 412.58546 128.849885 
L 412.87158 131.145002 
L 413.062343 134.51036 
L 413.456757 124.616016 
L 413.584819 129.97871 
L 414.11483 119.355834 
L 414.472681 115.626661 
L 414.533583 105.615803 
L 414.830286 110.571913 
L 415.309724 108.580639 
L 415.559664 109.590363 
L 415.96323 115.070726 
L 416.023198 118.347531 
L 416.321581 122.49852 
L 416.563927 124.103712 
L 416.805148 131.713663 
L 417.002271 128.205838 
L 417.276707 136.390121 
L 417.756951 131.640563 
L 418.054464 131.115265 
L 418.471725 132.694735 
L 418.530943 131.951401 
L 418.770431 134.610467 
L 419.126668 131.700202 
L 419.305279 125.265437 
L 419.724077 121.574605 
L 419.962564 126.007077 
L 420.281437 126.194689 
L 420.501517 125.289701 
L 420.738015 131.23638 
L 420.975057 125.46617 
L 421.214128 126.440851 
L 421.512226 124.685613 
L 421.693249 124.3186 
L 422.225812 124.450444 
L 422.234324 61.169088 
L 422.468961 125.608627 
L 422.825214 120.471375 
L 423.004989 123.75231 
L 423.252127 123.311397 
L 423.484338 126.789638 
L 423.840978 125.953342 
L 423.960579 120.612391 
L 424.145321 126.414434 
L 424.43705 128.688444 
L 424.915208 124.349766 
L 425.155055 123.798752 
L 425.574673 131.622706 
L 425.629286 115.162125 
L 425.988437 122.241457 
L 426.172027 122.144232 
L 426.40654 123.168574 
L 427.065099 120.991333 
L 427.190077 117.496766 
L 427.445399 123.013615 
L 427.659166 116.895856 
L 427.90644 116.674944 
L 427.958088 123.212815 
L 428.19698 126.00278 
L 428.436409 119.655073 
L 428.619145 122.385663 
L 428.8559 121.86683 
L 429.151322 125.11435 
L 429.628082 140.2912 
L 430.10485 119.40881 
L 430.344322 116.462288 
L 430.774626 121.67617 
L 431.121983 115.389825 
L 431.357652 145.275941 
L 431.597523 143.95804 
L 431.843497 128.178759 
L 432.821237 96.376951 
L 433.463552 89.951907 
L 433.594031 89.158622 
L 433.87843 89.932415 
L 434.121676 85.937426 
L 434.534949 85.571024 
L 434.776173 96.579539 
L 435.198864 102.068288 
L 435.318081 115.593854 
L 435.793016 122.978093 
L 436.627299 144.983511 
L 436.862153 143.828766 
L 437.100266 136.446326 
L 437.400723 138.241127 
L 437.640155 122.648228 
L 437.947846 128.715036 
L 438.091135 127.784245 
L 438.242412 127.903875 
L 438.507695 115.966567 
L 438.778576 112.818245 
L 439.259491 103.034762 
L 440.027646 135.280955 
L 440.326857 133.785318 
L 440.505242 136.775955 
L 440.743769 136.467182 
L 440.985603 134.554907 
L 441.460589 125.326068 
L 441.817555 123.134567 
L 441.996582 120.09661 
L 442.476381 106.482439 
L 442.882088 113.009034 
L 443.119643 112.629779 
L 443.306995 118.621159 
L 443.537398 110.02109 
L 444.01571 138.690944 
L 444.193965 141.075276 
L 444.670741 134.953403 
L 444.792607 137.075413 
L 445.029606 138.677364 
L 445.566243 122.780595 
L 445.69185 133.151982 
L 446.223006 116.368906 
L 446.46149 117.289041 
L 446.703529 113.829782 
L 446.93948 117.720155 
L 447.182432 124.464721 
L 447.4174 125.820675 
L 447.656135 123.762634 
L 447.904892 133.92889 
L 448.138367 131.130414 
L 448.437338 138.055357 
L 448.625267 134.627848 
L 448.91479 133.590128 
L 449.152725 131.584973 
L 449.392189 123.538346 
L 449.808343 129.378294 
L 449.89612 128.124414 
L 450.16705 133.879421 
L 450.46407 135.899658 
L 450.761942 132.019004 
L 450.94209 135.503982 
L 451.180519 128.968324 
L 451.425902 137.134649 
L 451.658653 137.995798 
L 451.839194 140.526736 
L 452.077357 141.828789 
L 452.326715 133.435841 
L 452.613173 138.517861 
L 452.864845 135.535971 
L 453.098099 126.972671 
L 453.469682 130.063336 
L 453.632802 121.165916 
L 453.809319 127.366612 
L 454.134366 126.82406 
L 454.345201 114.995645 
L 454.765606 120.047556 
L 454.847127 117.310268 
L 455.071869 120.830829 
L 455.300727 116.867608 
L 455.539853 119.21601 
L 455.961335 125.997723 
L 456.150748 134.685562 
L 456.566905 128.373 
L 456.984034 134.298919 
L 457.044693 129.903398 
L 457.462645 131.954948 
L 457.700957 131.336709 
L 457.762486 129.098933 
L 458.176246 119.572022 
L 458.295734 129.862453 
L 458.535771 122.460667 
L 458.772737 124.016632 
L 459.18988 121.094083 
L 459.309275 127.225761 
L 459.548312 130.697229 
L 459.792529 136.794111 
L 459.846799 141.586996 
L 460.026983 140.967178 
L 460.264394 134.515265 
L 460.505547 148.993239 
L 460.801349 149.346733 
L 460.981197 145.043605 
L 461.300883 143.72402 
L 461.461133 145.34608 
L 461.759676 132.566705 
L 461.997667 140.597339 
L 462.240011 135.143978 
L 462.535859 138.894949 
L 462.954361 130.823112 
L 463.252644 136.231833 
L 463.439137 133.699224 
L 463.848593 134.747907 
L 463.995751 140.009513 
L 464.210024 140.510907 
L 464.68398 136.855528 
L 464.923343 137.570682 
L 465.469677 120.702106 
L 465.710789 122.201977 
L 466.009353 119.1631 
L 466.483619 110.683513 
L 466.663185 113.139304 
L 466.961408 110.013453 
L 467.199234 113.146769 
L 467.597038 114.410243 
L 467.744427 121.947473 
L 467.921045 117.116203 
L 468.454257 130.253113 
L 468.761166 124.49861 
L 468.931187 126.55599 
L 469.179483 121.472659 
L 469.64942 117.634779 
L 469.893371 114.619806 
L 470.128335 103.166512 
L 470.435389 100.699281 
L 470.683137 104.112507 
L 470.906718 104.347038 
L 471.143739 109.972079 
L 471.389817 112.375477 
L 472.16172 133.285036 
L 472.456786 133.712119 
L 472.636186 138.877026 
L 473.054076 134.28457 
L 473.400235 138.088612 
L 473.634969 137.039433 
L 473.868197 135.051342 
L 474.170263 141.482578 
L 474.354868 130.489635 
L 474.645427 131.35306 
L 474.949827 135.323037 
L 475.125654 128.104432 
L 475.601585 135.123888 
L 475.840459 131.542715 
L 476.079329 126.023908 
L 476.317061 125.282883 
L 476.555932 131.964905 
L 476.795462 119.499847 
L 477.212458 119.36295 
L 477.361592 127.791883 
L 477.749946 115.754624 
L 477.868828 119.570572 
L 478.107403 112.570264 
L 478.345862 118.405751 
L 478.643526 111.676139 
L 478.775738 115.536835 
L 479.035221 118.622659 
L 479.305237 112.50152 
L 479.600228 117.96049 
L 479.798874 118.051278 
L 480.01865 120.516076 
L 480.259337 131.024079 
L 480.639147 127.081419 
L 480.797255 127.637577 
L 481.032858 116.875748 
L 481.30086 120.409743 
L 481.817167 115.740555 
L 482.112202 109.616943 
L 482.54011 117.411887 
L 482.796157 109.0532 
L 483.087039 114.173441 
L 483.208624 108.430335 
L 483.500877 116.242595 
L 483.799178 120.814387 
L 484.097273 119.400554 
L 484.216787 123.126935 
L 484.514676 119.363779 
L 484.761105 110.663114 
L 485.230884 120.205109 
L 485.470722 122.490745 
L 485.76882 121.470089 
L 486.007356 119.313518 
L 486.247979 121.44559 
L 486.483328 125.381568 
L 486.721699 125.355015 
L 486.961225 131.232096 
L 487.206514 133.758047 
L 487.677248 141.556886 
L 488.037454 140.111845 
L 488.214516 137.1073 
L 488.455338 144.93231 
L 488.751713 140.622591 
L 489.540319 143.857145 
L 489.706772 142.228422 
L 490.005091 142.197772 
L 490.242896 139.022246 
L 490.683853 141.833154 
L 490.899752 141.631062 
L 491.201618 141.574232 
L 491.494573 147.010289 
L 491.741352 142.100192 
L 491.913287 143.132526 
L 492.154206 147.275462 
L 492.390345 144.115649 
L 492.705805 148.353592 
L 492.884784 146.648817 
L 493.122928 148.953246 
L 493.601015 148.374132 
L 493.66099 141.099291 
L 493.95881 144.922774 
L 494.141209 139.439199 
L 494.380638 136.062785 
L 494.614303 134.416672 
L 494.912142 129.994094 
L 495.092642 124.305422 
L 495.391562 130.049863 
L 495.688062 128.239051 
L 495.866611 129.426368 
L 496.169394 126.888185 
L 496.407336 128.7847 
L 496.644163 117.795283 
L 496.931081 121.111773 
L 497.122047 120.222047 
L 497.32743 115.714306 
L 497.602808 116.568718 
L 497.947291 121.184977 
L 498.144884 118.880019 
L 498.384535 118.236221 
L 498.621652 121.200692 
L 498.860584 117.443093 
L 499.337413 128.331686 
L 499.576371 126.244498 
L 499.817608 126.438336 
L 500.113488 122.692917 
L 500.293182 129.007649 
L 500.609204 126.383134 
L 500.650281 128.864407 
L 500.829084 129.010256 
L 501.130331 114.919956 
L 501.425955 121.074325 
L 501.604394 121.422217 
L 502.085048 118.734134 
L 502.142852 115.856497 
L 502.321119 123.280416 
L 502.565805 127.653816 
L 503.051282 130.674934 
L 503.27591 137.380088 
L 503.515493 135.081242 
L 503.872555 139.963694 
L 504.051407 149.072949 
L 504.229888 146.965454 
L 504.650095 153.925572 
L 504.707569 146.343508 
L 505.069486 145.138279 
L 505.311707 139.563035 
L 505.547959 140.479562 
L 506.020268 132.87194 
L 506.266043 133.324155 
L 506.569872 122.609108 
L 506.746757 122.493041 
L 506.993307 119.706954 
L 507.231373 120.29108 
L 507.475334 116.261007 
L 507.708032 118.540152 
L 508.005894 114.131558 
L 508.190358 123.419716 
L 508.485193 114.331885 
L 508.787092 128.939788 
L 509.01986 113.018528 
L 509.275368 110.756191 
L 509.498512 124.396903 
L 509.921977 115.582782 
L 509.97473 118.136462 
L 510.21317 114.077988 
L 510.631246 118.341015 
L 510.691646 117.65163 
L 510.932276 119.893352 
L 511.266656 118.031501 
L 511.427141 118.418545 
L 511.731757 123.645209 
L 511.94593 122.75916 
L 512.202575 130.496207 
L 512.42372 131.857053 
L 512.662927 127.520217 
L 512.902669 139.960192 
L 513.214663 126.788742 
L 513.619081 138.201444 
L 513.68035 132.608979 
L 513.915563 136.806843 
L 514.39837 131.790136 
L 514.571539 131.576793 
L 514.703169 136.478101 
L 514.890518 133.442338 
L 515.247869 141.901238 
L 515.468485 140.604548 
L 515.690172 144.648059 
L 515.918439 144.049163 
L 516.15758 146.686303 
L 516.400242 144.985854 
L 516.762513 154.431421 
L 516.922212 149.090043 
L 517.159528 149.679101 
L 517.51651 148.975331 
L 517.702683 142.537193 
L 517.878201 144.548889 
L 518.173168 142.863992 
L 518.653123 129.009241 
L 518.951708 130.294764 
L 519.130101 122.771655 
L 519.388449 119.111952 
L 519.725267 119.596106 
L 519.86004 113.737855 
L 520.141772 110.293133 
L 520.439599 93.937483 
L 520.621899 105.52785 
L 520.859464 98.748633 
L 521.115203 111.858563 
L 521.39507 114.425159 
L 521.87368 137.306284 
L 522.117242 138.447144 
L 522.363738 151.139971 
L 522.827932 158.664858 
L 523.266623 161.010214 
L 523.497826 161.457031 
L 523.843711 163.61935 
L 524.131034 152.85805 
L 524.380779 138.085586 
L 524.857058 124.919201 
L 524.9168 116.398964 
L 525.275559 110.462519 
L 525.403427 106.303661 
L 525.814188 104.970073 
L 526.316015 106.095518 
L 526.890514 120.257926 
L 527.008656 127.965565 
L 527.314102 134.868674 
L 527.911085 140.447893 
L 528.28225 136.505104 
L 529.166701 110.690306 
L 529.284939 110.248036 
L 529.533417 112.204718 
L 529.890641 116.115638 
L 530.247674 127.03863 
L 530.664454 134.087958 
L 531.621121 165.175334 
L 531.88268 165.106852 
L 532.524468 146.003296 
L 532.939696 127.749297 
L 533.72434 107.430906 
L 533.946454 104.346431 
L 534.245028 104.014831 
L 534.451003 104.91905 
L 535.028561 110.336627 
L 535.504579 116.457608 
L 535.801994 117.192276 
L 536.733933 110.344477 
L 536.938388 110.011564 
L 537.241818 110.718622 
L 537.57183 112.810794 
L 537.923297 119.032808 
L 538.432501 128.470806 
L 539.203163 142.291311 
L 539.439601 144.224643 
L 539.680701 144.49584 
L 539.916955 142.79853 
L 540.924843 130.634248 
L 541.483777 124.92032 
L 541.907515 122.989373 
L 542.137411 124.287645 
L 543.147255 139.109191 
L 543.625901 144.894539 
L 543.867082 145.408006 
L 544.160754 144.786752 
L 544.419445 143.159379 
L 544.997465 136.852227 
L 545.177199 133.70066 
L 545.613251 130.116493 
L 545.716345 127.977305 
L 546.311255 125.381069 
L 546.562256 125.119909 
L 547.086927 123.721279 
L 547.328605 122.872912 
L 547.562717 121.432596 
L 548.044159 115.612513 
L 548.57849 108.13795 
L 549.053617 102.607812 
L 549.551337 101.756918 
L 550.187418 106.151462 
L 550.496407 116.740296 
L 550.901628 121.96584 
L 551.264901 128.928456 
L 551.511124 130.284028 
L 551.737027 130.759258 
L 552.395465 131.317785 
L 552.516451 130.391908 
L 553.231918 128.531158 
L 553.531832 129.605236 
L 554.326986 142.748592 
L 554.745389 150.179824 
L 554.984158 152.804526 
L 555.281591 154.29525 
L 555.937535 155.800901 
L 556.23672 155.116132 
L 556.8397 151.333609 
L 556.966916 148.815926 
L 557.459078 143.18634 
L 557.570223 137.204584 
L 557.960614 131.18838 
L 558.43799 127.842706 
L 558.695445 127.119428 
L 558.974965 126.90725 
L 559.210968 127.096483 
L 559.509203 127.860114 
L 559.92538 130.5969 
L 560.468553 131.315811 
L 561.186721 133.692161 
L 561.37958 134.053563 
L 561.675585 133.288475 
L 561.924237 130.361273 
L 562.153707 128.997383 
L 562.693429 128.011459 
L 562.879261 127.75913 
L 563.168071 126.750225 
L 563.541892 124.67336 
L 563.663332 123.16486 
L 564.063923 122.861201 
L 564.36587 127.529714 
L 564.602546 130.293532 
L 565.099238 132.891699 
L 565.376283 132.879511 
L 565.616165 132.492706 
L 566.154132 133.76584 
L 566.807687 132.824504 
L 566.871061 131.721213 
L 567.109206 130.70458 
L 567.348511 130.611422 
L 567.602314 129.982274 
L 567.889683 130.31706 
L 568.067008 131.531507 
L 568.36386 132.570116 
L 568.666409 133.038118 
L 568.905048 132.938127 
L 569.258048 131.773829 
L 569.556614 127.230878 
L 569.830097 126.660247 
L 570.180186 128.917289 
L 570.296782 131.581635 
L 570.596187 133.620325 
L 570.840372 134.340326 
L 571.090269 134.196267 
L 571.551927 133.033849 
L 571.854597 133.992966 
L 572.030259 135.490725 
L 572.327643 135.737027 
L 573.047077 123.197463 
L 573.343047 123.242994 
L 573.705169 125.944891 
L 574.05876 131.326909 
L 574.30091 131.526341 
L 574.789855 130.709727 
L 575.266685 134.639061 
L 575.509254 134.69084 
L 575.806683 130.326303 
L 575.982989 124.730105 
L 576.28069 121.094523 
L 576.639918 122.027179 
L 576.819632 124.962634 
L 577.176708 127.080841 
L 577.414148 126.959327 
L 577.534113 125.193442 
L 577.715511 124.269414 
L 577.951032 125.900303 
L 578.728967 134.694465 
L 579.051607 131.420514 
L 579.234913 128.215454 
L 579.471695 128.091496 
L 580.001437 130.77122 
L 580.238885 130.22083 
L 580.67193 127.329333 
L 580.954797 127.033532 
L 581.193618 128.074526 
L 581.503861 128.873727 
L 581.67021 128.629301 
L 582.031218 127.355772 
L 582.167232 127.550887 
L 582.685641 130.891813 
L 582.987025 130.918916 
L 583.282015 129.671071 
L 583.519781 126.090509 
L 583.93793 126.200209 
L 584.35554 129.72624 
L 584.712611 129.386955 
L 585.071395 120.798941 
L 585.399086 120.707336 
L 585.63542 123.083336 
L 586.150599 134.186228 
L 586.440302 134.841658 
L 586.619088 133.686403 
L 586.989148 132.487288 
L 587.158906 133.016872 
L 587.635596 135.676331 
L 587.875755 135.041326 
L 588.351426 128.695114 
L 588.64969 123.951875 
L 588.888745 123.150223 
L 589.128115 125.883309 
L 589.612081 128.683289 
L 589.849898 128.503791 
L 590.201208 128.516402 
L 590.339608 129.62863 
L 590.564453 129.823812 
L 590.858037 129.074222 
L 591.098088 129.2276 
L 591.336211 130.181542 
L 591.644742 129.772278 
L 591.94111 128.055857 
L 592.179709 128.35664 
L 592.35766 129.141337 
L 592.95496 124.254257 
L 593.252524 126.046956 
L 593.612706 130.26393 
L 593.789061 130.127853 
L 594.265573 127.317877 
L 594.510253 127.584013 
L 594.863145 129.097904 
L 595.041953 130.671345 
L 595.294118 130.7843 
L 596.26267 125.139677 
L 596.502813 126.408433 
L 596.502813 126.408433 
" clip-path="url(#p1cb1c1c779)" style="fill: none; stroke: #ff0000; stroke-opacity: 0.7; stroke-width: 1.5; stroke-linecap: square"/>
   </g>
   <g id="patch_3">
    <path d="M 38.502813 277.92 
L 38.502813 0.72 
" style="fill: none; stroke: #000000; stroke-width: 0.8; stroke-linejoin: miter; stroke-linecap: square"/>
   </g>
   <g id="patch_4">
    <path d="M 596.502813 277.92 
L 596.502813 0.72 
" style="fill: none; stroke: #000000; stroke-width: 0.8; stroke-linejoin: miter; stroke-linecap: square"/>
   </g>
   <g id="patch_5">
    <path d="M 38.502813 277.92 
L 596.502813 277.92 
" style="fill: none; stroke: #000000; stroke-width: 0.8; stroke-linejoin: miter; stroke-linecap: square"/>
   </g>
   <g id="patch_6">
    <path d="M 38.502813 0.72 
L 596.502813 0.72 
" style="fill: none; stroke: #000000; stroke-width: 0.8; stroke-linejoin: miter; stroke-linecap: square"/>
   </g>
   <g id="legend_1">
    <g id="patch_7">
     <path d="M 515.734062 38.07625 
L 589.502812 38.07625 
Q 591.502812 38.07625 591.502812 36.07625 
L 591.502812 7.72 
Q 591.502812 5.72 589.502812 5.72 
L 515.734062 5.72 
Q 513.734062 5.72 513.734062 7.72 
L 513.734062 36.07625 
Q 513.734062 38.07625 515.734062 38.07625 
z
" style="fill: #ffffff; opacity: 0.8; stroke: #cccccc; stroke-linejoin: miter"/>
    </g>
    <g id="line2d_29">
     <path d="M 517.734062 13.818438 
L 527.734062 13.818438 
L 537.734062 13.818438 
" style="fill: none; stroke: #0000ff; stroke-opacity: 0.7; stroke-width: 1.5; stroke-linecap: square"/>
    </g>
    <g id="text_16">
     <!-- RNEA -->
     <g transform="translate(545.734062 17.318438) scale(0.1 -0.1)">
      <defs>
       <path id="DejaVuSans-52" d="M 2841 2188 
Q 3044 2119 3236 1894 
Q 3428 1669 3622 1275 
L 4263 0 
L 3584 0 
L 2988 1197 
Q 2756 1666 2539 1819 
Q 2322 1972 1947 1972 
L 1259 1972 
L 1259 0 
L 628 0 
L 628 4666 
L 2053 4666 
Q 2853 4666 3247 4331 
Q 3641 3997 3641 3322 
Q 3641 2881 3436 2590 
Q 3231 2300 2841 2188 
z
M 1259 4147 
L 1259 2491 
L 2053 2491 
Q 2509 2491 2742 2702 
Q 2975 2913 2975 3322 
Q 2975 3731 2742 3939 
Q 2509 4147 2053 4147 
L 1259 4147 
z
" transform="scale(0.015625)"/>
       <path id="DejaVuSans-45" d="M 628 4666 
L 3578 4666 
L 3578 4134 
L 1259 4134 
L 1259 2753 
L 3481 2753 
L 3481 2222 
L 1259 2222 
L 1259 531 
L 3634 531 
L 3634 0 
L 628 0 
L 628 4666 
z
" transform="scale(0.015625)"/>
       <path id="DejaVuSans-41" d="M 2188 4044 
L 1331 1722 
L 3047 1722 
L 2188 4044 
z
M 1831 4666 
L 2547 4666 
L 4325 0 
L 3669 0 
L 3244 1197 
L 1141 1197 
L 716 0 
L 50 0 
L 1831 4666 
z
" transform="scale(0.015625)"/>
      </defs>
      <use xlink:href="#DejaVuSans-52"/>
      <use xlink:href="#DejaVuSans-4e" x="69.482422"/>
      <use xlink:href="#DejaVuSans-45" x="144.287109"/>
      <use xlink:href="#DejaVuSans-41" x="207.470703"/>
     </g>
    </g>
    <g id="line2d_30">
     <path d="M 517.734062 28.496563 
L 527.734062 28.496563 
L 537.734062 28.496563 
" style="fill: none; stroke: #ff0000; stroke-opacity: 0.7; stroke-width: 1.5; stroke-linecap: square"/>
    </g>
    <g id="text_17">
     <!-- BURNEA -->
     <g transform="translate(545.734062 31.996563) scale(0.1 -0.1)">
      <defs>
       <path id="DejaVuSans-42" d="M 1259 2228 
L 1259 519 
L 2272 519 
Q 2781 519 3026 730 
Q 3272 941 3272 1375 
Q 3272 1813 3026 2020 
Q 2781 2228 2272 2228 
L 1259 2228 
z
M 1259 4147 
L 1259 2741 
L 2194 2741 
Q 2656 2741 2882 2914 
Q 3109 3088 3109 3444 
Q 3109 3797 2882 3972 
Q 2656 4147 2194 4147 
L 1259 4147 
z
M 628 4666 
L 2241 4666 
Q 2963 4666 3353 4366 
Q 3744 4066 3744 3513 
Q 3744 3084 3544 2831 
Q 3344 2578 2956 2516 
Q 3422 2416 3680 2098 
Q 3938 1781 3938 1306 
Q 3938 681 3513 340 
Q 3088 0 2303 0 
L 628 0 
L 628 4666 
z
" transform="scale(0.015625)"/>
       <path id="DejaVuSans-55" d="M 556 4666 
L 1191 4666 
L 1191 1831 
Q 1191 1081 1462 751 
Q 1734 422 2344 422 
Q 2950 422 3222 751 
Q 3494 1081 3494 1831 
L 3494 4666 
L 4128 4666 
L 4128 1753 
Q 4128 841 3676 375 
Q 3225 -91 2344 -91 
Q 1459 -91 1007 375 
Q 556 841 556 1753 
L 556 4666 
z
" transform="scale(0.015625)"/>
      </defs>
      <use xlink:href="#DejaVuSans-42"/>
      <use xlink:href="#DejaVuSans-55" x="68.603516"/>
      <use xlink:href="#DejaVuSans-52" x="141.796875"/>
      <use xlink:href="#DejaVuSans-4e" x="211.279297"/>
      <use xlink:href="#DejaVuSans-45" x="286.083984"/>
      <use xlink:href="#DejaVuSans-41" x="349.267578"/>
     </g>
    </g>
   </g>
  </g>
 </g>
 <defs>
  <clipPath id="p1cb1c1c779">
   <rect x="38.502813" y="0.72" width="558" height="277.2"/>
  </clipPath>
 </defs>
</svg>
