<?xml version="1.0" encoding="utf-8" standalone="no"?>
<!DOCTYPE svg PUBLIC "-//W3C//DTD SVG 1.1//EN"
  "http://www.w3.org/Graphics/SVG/1.1/DTD/svg11.dtd">
<svg xmlns:xlink="http://www.w3.org/1999/xlink" width="355.43952pt" height="175.450225pt" viewBox="0 0 355.43952 175.450225" xmlns="http://www.w3.org/2000/svg" version="1.1">
 <metadata>
  <rdf:RDF xmlns:dc="http://purl.org/dc/elements/1.1/" xmlns:cc="http://creativecommons.org/ns#" xmlns:rdf="http://www.w3.org/1999/02/22-rdf-syntax-ns#">
   <cc:Work>
    <dc:type rdf:resource="http://purl.org/dc/dcmitype/StillImage"/>
    <dc:date>2023-09-09T18:29:44.120786</dc:date>
    <dc:format>image/svg+xml</dc:format>
    <dc:creator>
     <cc:Agent>
      <dc:title>Matplotlib v3.7.2, https://matplotlib.org/</dc:title>
     </cc:Agent>
    </dc:creator>
   </cc:Work>
  </rdf:RDF>
 </metadata>
 <defs>
  <style type="text/css">*{stroke-linejoin: round; stroke-linecap: butt}</style>
 </defs>
 <g id="figure_1">
  <g id="patch_1">
   <path d="M 0 175.450225 
L 355.43952 175.450225 
L 355.43952 0 
L 0 0 
L 0 175.450225 
z
" style="fill: none"/>
  </g>
  <g id="axes_1">
   <g id="patch_2">
    <path d="M 30.123125 148.373975 
L 354.71952 148.373975 
L 354.71952 1.206237 
L 30.123125 1.206237 
L 30.123125 148.373975 
z
" style="fill: none"/>
   </g>
   <g id="matplotlib.axis_1">
    <g id="xtick_1">
     <g id="line2d_1">
      <path d="M 30.123125 148.373975 
L 30.123125 1.206237 
" clip-path="url(#p6b55149d92)" style="fill: none; stroke-dasharray: 0.8,1.32; stroke-dashoffset: 0; stroke: #000000; stroke-opacity: 0.5; stroke-width: 0.8"/>
     </g>
     <g id="line2d_2">
      <defs>
       <path id="m851177eb55" d="M 0 0 
L 0 3.5 
" style="stroke: #000000; stroke-width: 0.8"/>
      </defs>
      <g>
       <use xlink:href="#m851177eb55" x="30.123125" y="148.373975" style="stroke: #000000; stroke-width: 0.8"/>
      </g>
     </g>
     <g id="text_1">
      <!-- 0 -->
      <g transform="translate(26.941875 162.972412) scale(0.1 -0.1)">
       <defs>
        <path id="DejaVuSans-30" d="M 2034 4250 
Q 1547 4250 1301 3770 
Q 1056 3291 1056 2328 
Q 1056 1369 1301 889 
Q 1547 409 2034 409 
Q 2525 409 2770 889 
Q 3016 1369 3016 2328 
Q 3016 3291 2770 3770 
Q 2525 4250 2034 4250 
z
M 2034 4750 
Q 2819 4750 3233 4129 
Q 3647 3509 3647 2328 
Q 3647 1150 3233 529 
Q 2819 -91 2034 -91 
Q 1250 -91 836 529 
Q 422 1150 422 2328 
Q 422 3509 836 4129 
Q 1250 4750 2034 4750 
z
" transform="scale(0.015625)"/>
       </defs>
       <use xlink:href="#DejaVuSans-30"/>
      </g>
     </g>
    </g>
    <g id="xtick_2">
     <g id="line2d_3">
      <path d="M 79.702491 148.373975 
L 79.702491 1.206237 
" clip-path="url(#p6b55149d92)" style="fill: none; stroke-dasharray: 0.8,1.32; stroke-dashoffset: 0; stroke: #000000; stroke-opacity: 0.5; stroke-width: 0.8"/>
     </g>
     <g id="line2d_4">
      <g>
       <use xlink:href="#m851177eb55" x="79.702491" y="148.373975" style="stroke: #000000; stroke-width: 0.8"/>
      </g>
     </g>
     <g id="text_2">
      <!-- 5 -->
      <g transform="translate(76.521241 162.972412) scale(0.1 -0.1)">
       <defs>
        <path id="DejaVuSans-35" d="M 691 4666 
L 3169 4666 
L 3169 4134 
L 1269 4134 
L 1269 2991 
Q 1406 3038 1543 3061 
Q 1681 3084 1819 3084 
Q 2600 3084 3056 2656 
Q 3513 2228 3513 1497 
Q 3513 744 3044 326 
Q 2575 -91 1722 -91 
Q 1428 -91 1123 -41 
Q 819 9 494 109 
L 494 744 
Q 775 591 1075 516 
Q 1375 441 1709 441 
Q 2250 441 2565 725 
Q 2881 1009 2881 1497 
Q 2881 1984 2565 2268 
Q 2250 2553 1709 2553 
Q 1456 2553 1204 2497 
Q 953 2441 691 2322 
L 691 4666 
z
" transform="scale(0.015625)"/>
       </defs>
       <use xlink:href="#DejaVuSans-35"/>
      </g>
     </g>
    </g>
    <g id="xtick_3">
     <g id="line2d_5">
      <path d="M 129.281857 148.373975 
L 129.281857 1.206237 
" clip-path="url(#p6b55149d92)" style="fill: none; stroke-dasharray: 0.8,1.32; stroke-dashoffset: 0; stroke: #000000; stroke-opacity: 0.5; stroke-width: 0.8"/>
     </g>
     <g id="line2d_6">
      <g>
       <use xlink:href="#m851177eb55" x="129.281857" y="148.373975" style="stroke: #000000; stroke-width: 0.8"/>
      </g>
     </g>
     <g id="text_3">
      <!-- 10 -->
      <g transform="translate(122.919357 162.972412) scale(0.1 -0.1)">
       <defs>
        <path id="DejaVuSans-31" d="M 794 531 
L 1825 531 
L 1825 4091 
L 703 3866 
L 703 4441 
L 1819 4666 
L 2450 4666 
L 2450 531 
L 3481 531 
L 3481 0 
L 794 0 
L 794 531 
z
" transform="scale(0.015625)"/>
       </defs>
       <use xlink:href="#DejaVuSans-31"/>
       <use xlink:href="#DejaVuSans-30" x="63.623047"/>
      </g>
     </g>
    </g>
    <g id="xtick_4">
     <g id="line2d_7">
      <path d="M 178.861223 148.373975 
L 178.861223 1.206237 
" clip-path="url(#p6b55149d92)" style="fill: none; stroke-dasharray: 0.8,1.32; stroke-dashoffset: 0; stroke: #000000; stroke-opacity: 0.5; stroke-width: 0.8"/>
     </g>
     <g id="line2d_8">
      <g>
       <use xlink:href="#m851177eb55" x="178.861223" y="148.373975" style="stroke: #000000; stroke-width: 0.8"/>
      </g>
     </g>
     <g id="text_4">
      <!-- 15 -->
      <g transform="translate(172.498723 162.972412) scale(0.1 -0.1)">
       <use xlink:href="#DejaVuSans-31"/>
       <use xlink:href="#DejaVuSans-35" x="63.623047"/>
      </g>
     </g>
    </g>
    <g id="xtick_5">
     <g id="line2d_9">
      <path d="M 228.440589 148.373975 
L 228.440589 1.206237 
" clip-path="url(#p6b55149d92)" style="fill: none; stroke-dasharray: 0.8,1.32; stroke-dashoffset: 0; stroke: #000000; stroke-opacity: 0.5; stroke-width: 0.8"/>
     </g>
     <g id="line2d_10">
      <g>
       <use xlink:href="#m851177eb55" x="228.440589" y="148.373975" style="stroke: #000000; stroke-width: 0.8"/>
      </g>
     </g>
     <g id="text_5">
      <!-- 20 -->
      <g transform="translate(222.078089 162.972412) scale(0.1 -0.1)">
       <defs>
        <path id="DejaVuSans-32" d="M 1228 531 
L 3431 531 
L 3431 0 
L 469 0 
L 469 531 
Q 828 903 1448 1529 
Q 2069 2156 2228 2338 
Q 2531 2678 2651 2914 
Q 2772 3150 2772 3378 
Q 2772 3750 2511 3984 
Q 2250 4219 1831 4219 
Q 1534 4219 1204 4116 
Q 875 4013 500 3803 
L 500 4441 
Q 881 4594 1212 4672 
Q 1544 4750 1819 4750 
Q 2544 4750 2975 4387 
Q 3406 4025 3406 3419 
Q 3406 3131 3298 2873 
Q 3191 2616 2906 2266 
Q 2828 2175 2409 1742 
Q 1991 1309 1228 531 
z
" transform="scale(0.015625)"/>
       </defs>
       <use xlink:href="#DejaVuSans-32"/>
       <use xlink:href="#DejaVuSans-30" x="63.623047"/>
      </g>
     </g>
    </g>
    <g id="xtick_6">
     <g id="line2d_11">
      <path d="M 278.019954 148.373975 
L 278.019954 1.206237 
" clip-path="url(#p6b55149d92)" style="fill: none; stroke-dasharray: 0.8,1.32; stroke-dashoffset: 0; stroke: #000000; stroke-opacity: 0.5; stroke-width: 0.8"/>
     </g>
     <g id="line2d_12">
      <g>
       <use xlink:href="#m851177eb55" x="278.019954" y="148.373975" style="stroke: #000000; stroke-width: 0.8"/>
      </g>
     </g>
     <g id="text_6">
      <!-- 25 -->
      <g transform="translate(271.657454 162.972412) scale(0.1 -0.1)">
       <use xlink:href="#DejaVuSans-32"/>
       <use xlink:href="#DejaVuSans-35" x="63.623047"/>
      </g>
     </g>
    </g>
    <g id="xtick_7">
     <g id="line2d_13">
      <path d="M 327.59932 148.373975 
L 327.59932 1.206237 
" clip-path="url(#p6b55149d92)" style="fill: none; stroke-dasharray: 0.8,1.32; stroke-dashoffset: 0; stroke: #000000; stroke-opacity: 0.5; stroke-width: 0.8"/>
     </g>
     <g id="line2d_14">
      <g>
       <use xlink:href="#m851177eb55" x="327.59932" y="148.373975" style="stroke: #000000; stroke-width: 0.8"/>
      </g>
     </g>
     <g id="text_7">
      <!-- 30 -->
      <g transform="translate(321.23682 162.972412) scale(0.1 -0.1)">
       <defs>
        <path id="DejaVuSans-33" d="M 2597 2516 
Q 3050 2419 3304 2112 
Q 3559 1806 3559 1356 
Q 3559 666 3084 287 
Q 2609 -91 1734 -91 
Q 1441 -91 1130 -33 
Q 819 25 488 141 
L 488 750 
Q 750 597 1062 519 
Q 1375 441 1716 441 
Q 2309 441 2620 675 
Q 2931 909 2931 1356 
Q 2931 1769 2642 2001 
Q 2353 2234 1838 2234 
L 1294 2234 
L 1294 2753 
L 1863 2753 
Q 2328 2753 2575 2939 
Q 2822 3125 2822 3475 
Q 2822 3834 2567 4026 
Q 2313 4219 1838 4219 
Q 1578 4219 1281 4162 
Q 984 4106 628 3988 
L 628 4550 
Q 988 4650 1302 4700 
Q 1616 4750 1894 4750 
Q 2613 4750 3031 4423 
Q 3450 4097 3450 3541 
Q 3450 3153 3228 2886 
Q 3006 2619 2597 2516 
z
" transform="scale(0.015625)"/>
       </defs>
       <use xlink:href="#DejaVuSans-33"/>
       <use xlink:href="#DejaVuSans-30" x="63.623047"/>
      </g>
     </g>
    </g>
    <g id="text_8">
     <!-- Zeit [s] -->
     <g transform="translate(174.475229 172.650537) scale(0.1 -0.1)">
      <defs>
       <path id="DejaVuSans-5a" d="M 359 4666 
L 4025 4666 
L 4025 4184 
L 1075 531 
L 4097 531 
L 4097 0 
L 288 0 
L 288 481 
L 3238 4134 
L 359 4134 
L 359 4666 
z
" transform="scale(0.015625)"/>
       <path id="DejaVuSans-65" d="M 3597 1894 
L 3597 1613 
L 953 1613 
Q 991 1019 1311 708 
Q 1631 397 2203 397 
Q 2534 397 2845 478 
Q 3156 559 3463 722 
L 3463 178 
Q 3153 47 2828 -22 
Q 2503 -91 2169 -91 
Q 1331 -91 842 396 
Q 353 884 353 1716 
Q 353 2575 817 3079 
Q 1281 3584 2069 3584 
Q 2775 3584 3186 3129 
Q 3597 2675 3597 1894 
z
M 3022 2063 
Q 3016 2534 2758 2815 
Q 2500 3097 2075 3097 
Q 1594 3097 1305 2825 
Q 1016 2553 972 2059 
L 3022 2063 
z
" transform="scale(0.015625)"/>
       <path id="DejaVuSans-69" d="M 603 3500 
L 1178 3500 
L 1178 0 
L 603 0 
L 603 3500 
z
M 603 4863 
L 1178 4863 
L 1178 4134 
L 603 4134 
L 603 4863 
z
" transform="scale(0.015625)"/>
       <path id="DejaVuSans-74" d="M 1172 4494 
L 1172 3500 
L 2356 3500 
L 2356 3053 
L 1172 3053 
L 1172 1153 
Q 1172 725 1289 603 
Q 1406 481 1766 481 
L 2356 481 
L 2356 0 
L 1766 0 
Q 1100 0 847 248 
Q 594 497 594 1153 
L 594 3053 
L 172 3053 
L 172 3500 
L 594 3500 
L 594 4494 
L 1172 4494 
z
" transform="scale(0.015625)"/>
       <path id="DejaVuSans-20" transform="scale(0.015625)"/>
       <path id="DejaVuSans-5b" d="M 550 4863 
L 1875 4863 
L 1875 4416 
L 1125 4416 
L 1125 -397 
L 1875 -397 
L 1875 -844 
L 550 -844 
L 550 4863 
z
" transform="scale(0.015625)"/>
       <path id="DejaVuSans-73" d="M 2834 3397 
L 2834 2853 
Q 2591 2978 2328 3040 
Q 2066 3103 1784 3103 
Q 1356 3103 1142 2972 
Q 928 2841 928 2578 
Q 928 2378 1081 2264 
Q 1234 2150 1697 2047 
L 1894 2003 
Q 2506 1872 2764 1633 
Q 3022 1394 3022 966 
Q 3022 478 2636 193 
Q 2250 -91 1575 -91 
Q 1294 -91 989 -36 
Q 684 19 347 128 
L 347 722 
Q 666 556 975 473 
Q 1284 391 1588 391 
Q 1994 391 2212 530 
Q 2431 669 2431 922 
Q 2431 1156 2273 1281 
Q 2116 1406 1581 1522 
L 1381 1569 
Q 847 1681 609 1914 
Q 372 2147 372 2553 
Q 372 3047 722 3315 
Q 1072 3584 1716 3584 
Q 2034 3584 2315 3537 
Q 2597 3491 2834 3397 
z
" transform="scale(0.015625)"/>
       <path id="DejaVuSans-5d" d="M 1947 4863 
L 1947 -844 
L 622 -844 
L 622 -397 
L 1369 -397 
L 1369 4416 
L 622 4416 
L 622 4863 
L 1947 4863 
z
" transform="scale(0.015625)"/>
      </defs>
      <use xlink:href="#DejaVuSans-5a"/>
      <use xlink:href="#DejaVuSans-65" x="68.505859"/>
      <use xlink:href="#DejaVuSans-69" x="130.029297"/>
      <use xlink:href="#DejaVuSans-74" x="157.8125"/>
      <use xlink:href="#DejaVuSans-20" x="197.021484"/>
      <use xlink:href="#DejaVuSans-5b" x="228.808594"/>
      <use xlink:href="#DejaVuSans-73" x="267.822266"/>
      <use xlink:href="#DejaVuSans-5d" x="319.921875"/>
     </g>
    </g>
   </g>
   <g id="matplotlib.axis_2">
    <g id="ytick_1">
     <g id="line2d_15">
      <path d="M 30.123125 132.594846 
L 354.71952 132.594846 
" clip-path="url(#p6b55149d92)" style="fill: none; stroke-dasharray: 0.8,1.32; stroke-dashoffset: 0; stroke: #000000; stroke-opacity: 0.5; stroke-width: 0.8"/>
     </g>
     <g id="line2d_16">
      <defs>
       <path id="mf504c4ccbf" d="M 0 0 
L -3.5 0 
" style="stroke: #000000; stroke-width: 0.8"/>
      </defs>
      <g>
       <use xlink:href="#mf504c4ccbf" x="30.123125" y="132.594846" style="stroke: #000000; stroke-width: 0.8"/>
      </g>
     </g>
     <g id="text_9">
      <!-- 5 -->
      <g transform="translate(16.760625 136.394065) scale(0.1 -0.1)">
       <use xlink:href="#DejaVuSans-35"/>
      </g>
     </g>
    </g>
    <g id="ytick_2">
     <g id="line2d_17">
      <path d="M 30.123125 111.248908 
L 354.71952 111.248908 
" clip-path="url(#p6b55149d92)" style="fill: none; stroke-dasharray: 0.8,1.32; stroke-dashoffset: 0; stroke: #000000; stroke-opacity: 0.5; stroke-width: 0.8"/>
     </g>
     <g id="line2d_18">
      <g>
       <use xlink:href="#mf504c4ccbf" x="30.123125" y="111.248908" style="stroke: #000000; stroke-width: 0.8"/>
      </g>
     </g>
     <g id="text_10">
      <!-- 10 -->
      <g transform="translate(10.398125 115.048127) scale(0.1 -0.1)">
       <use xlink:href="#DejaVuSans-31"/>
       <use xlink:href="#DejaVuSans-30" x="63.623047"/>
      </g>
     </g>
    </g>
    <g id="ytick_3">
     <g id="line2d_19">
      <path d="M 30.123125 89.90297 
L 354.71952 89.90297 
" clip-path="url(#p6b55149d92)" style="fill: none; stroke-dasharray: 0.8,1.32; stroke-dashoffset: 0; stroke: #000000; stroke-opacity: 0.5; stroke-width: 0.8"/>
     </g>
     <g id="line2d_20">
      <g>
       <use xlink:href="#mf504c4ccbf" x="30.123125" y="89.90297" style="stroke: #000000; stroke-width: 0.8"/>
      </g>
     </g>
     <g id="text_11">
      <!-- 15 -->
      <g transform="translate(10.398125 93.702189) scale(0.1 -0.1)">
       <use xlink:href="#DejaVuSans-31"/>
       <use xlink:href="#DejaVuSans-35" x="63.623047"/>
      </g>
     </g>
    </g>
    <g id="ytick_4">
     <g id="line2d_21">
      <path d="M 30.123125 68.557032 
L 354.71952 68.557032 
" clip-path="url(#p6b55149d92)" style="fill: none; stroke-dasharray: 0.8,1.32; stroke-dashoffset: 0; stroke: #000000; stroke-opacity: 0.5; stroke-width: 0.8"/>
     </g>
     <g id="line2d_22">
      <g>
       <use xlink:href="#mf504c4ccbf" x="30.123125" y="68.557032" style="stroke: #000000; stroke-width: 0.8"/>
      </g>
     </g>
     <g id="text_12">
      <!-- 20 -->
      <g transform="translate(10.398125 72.356251) scale(0.1 -0.1)">
       <use xlink:href="#DejaVuSans-32"/>
       <use xlink:href="#DejaVuSans-30" x="63.623047"/>
      </g>
     </g>
    </g>
    <g id="ytick_5">
     <g id="line2d_23">
      <path d="M 30.123125 47.211094 
L 354.71952 47.211094 
" clip-path="url(#p6b55149d92)" style="fill: none; stroke-dasharray: 0.8,1.32; stroke-dashoffset: 0; stroke: #000000; stroke-opacity: 0.5; stroke-width: 0.8"/>
     </g>
     <g id="line2d_24">
      <g>
       <use xlink:href="#mf504c4ccbf" x="30.123125" y="47.211094" style="stroke: #000000; stroke-width: 0.8"/>
      </g>
     </g>
     <g id="text_13">
      <!-- 25 -->
      <g transform="translate(10.398125 51.010313) scale(0.1 -0.1)">
       <use xlink:href="#DejaVuSans-32"/>
       <use xlink:href="#DejaVuSans-35" x="63.623047"/>
      </g>
     </g>
    </g>
    <g id="ytick_6">
     <g id="line2d_25">
      <path d="M 30.123125 25.865157 
L 354.71952 25.865157 
" clip-path="url(#p6b55149d92)" style="fill: none; stroke-dasharray: 0.8,1.32; stroke-dashoffset: 0; stroke: #000000; stroke-opacity: 0.5; stroke-width: 0.8"/>
     </g>
     <g id="line2d_26">
      <g>
       <use xlink:href="#mf504c4ccbf" x="30.123125" y="25.865157" style="stroke: #000000; stroke-width: 0.8"/>
      </g>
     </g>
     <g id="text_14">
      <!-- 30 -->
      <g transform="translate(10.398125 29.664375) scale(0.1 -0.1)">
       <use xlink:href="#DejaVuSans-33"/>
       <use xlink:href="#DejaVuSans-30" x="63.623047"/>
      </g>
     </g>
    </g>
    <g id="ytick_7">
     <g id="line2d_27">
      <path d="M 30.123125 4.519219 
L 354.71952 4.519219 
" clip-path="url(#p6b55149d92)" style="fill: none; stroke-dasharray: 0.8,1.32; stroke-dashoffset: 0; stroke: #000000; stroke-opacity: 0.5; stroke-width: 0.8"/>
     </g>
     <g id="line2d_28">
      <g>
       <use xlink:href="#mf504c4ccbf" x="30.123125" y="4.519219" style="stroke: #000000; stroke-width: 0.8"/>
      </g>
     </g>
     <g id="text_15">
      <!-- 35 -->
      <g transform="translate(10.398125 8.318437) scale(0.1 -0.1)">
       <use xlink:href="#DejaVuSans-33"/>
       <use xlink:href="#DejaVuSans-35" x="63.623047"/>
      </g>
     </g>
    </g>
    <g id="text_16">
     <!-- 2-Norm M [Nm] -->
     <g transform="translate(8.318438 113.418231) rotate(-90) scale(0.1 -0.1)">
      <defs>
       <path id="DejaVuSans-2d" d="M 313 2009 
L 1997 2009 
L 1997 1497 
L 313 1497 
L 313 2009 
z
" transform="scale(0.015625)"/>
       <path id="DejaVuSans-4e" d="M 628 4666 
L 1478 4666 
L 3547 763 
L 3547 4666 
L 4159 4666 
L 4159 0 
L 3309 0 
L 1241 3903 
L 1241 0 
L 628 0 
L 628 4666 
z
" transform="scale(0.015625)"/>
       <path id="DejaVuSans-6f" d="M 1959 3097 
Q 1497 3097 1228 2736 
Q 959 2375 959 1747 
Q 959 1119 1226 758 
Q 1494 397 1959 397 
Q 2419 397 2687 759 
Q 2956 1122 2956 1747 
Q 2956 2369 2687 2733 
Q 2419 3097 1959 3097 
z
M 1959 3584 
Q 2709 3584 3137 3096 
Q 3566 2609 3566 1747 
Q 3566 888 3137 398 
Q 2709 -91 1959 -91 
Q 1206 -91 779 398 
Q 353 888 353 1747 
Q 353 2609 779 3096 
Q 1206 3584 1959 3584 
z
" transform="scale(0.015625)"/>
       <path id="DejaVuSans-72" d="M 2631 2963 
Q 2534 3019 2420 3045 
Q 2306 3072 2169 3072 
Q 1681 3072 1420 2755 
Q 1159 2438 1159 1844 
L 1159 0 
L 581 0 
L 581 3500 
L 1159 3500 
L 1159 2956 
Q 1341 3275 1631 3429 
Q 1922 3584 2338 3584 
Q 2397 3584 2469 3576 
Q 2541 3569 2628 3553 
L 2631 2963 
z
" transform="scale(0.015625)"/>
       <path id="DejaVuSans-6d" d="M 3328 2828 
Q 3544 3216 3844 3400 
Q 4144 3584 4550 3584 
Q 5097 3584 5394 3201 
Q 5691 2819 5691 2113 
L 5691 0 
L 5113 0 
L 5113 2094 
Q 5113 2597 4934 2840 
Q 4756 3084 4391 3084 
Q 3944 3084 3684 2787 
Q 3425 2491 3425 1978 
L 3425 0 
L 2847 0 
L 2847 2094 
Q 2847 2600 2669 2842 
Q 2491 3084 2119 3084 
Q 1678 3084 1418 2786 
Q 1159 2488 1159 1978 
L 1159 0 
L 581 0 
L 581 3500 
L 1159 3500 
L 1159 2956 
Q 1356 3278 1631 3431 
Q 1906 3584 2284 3584 
Q 2666 3584 2933 3390 
Q 3200 3197 3328 2828 
z
" transform="scale(0.015625)"/>
       <path id="DejaVuSans-4d" d="M 628 4666 
L 1569 4666 
L 2759 1491 
L 3956 4666 
L 4897 4666 
L 4897 0 
L 4281 0 
L 4281 4097 
L 3078 897 
L 2444 897 
L 1241 4097 
L 1241 0 
L 628 0 
L 628 4666 
z
" transform="scale(0.015625)"/>
      </defs>
      <use xlink:href="#DejaVuSans-32"/>
      <use xlink:href="#DejaVuSans-2d" x="63.623047"/>
      <use xlink:href="#DejaVuSans-4e" x="99.707031"/>
      <use xlink:href="#DejaVuSans-6f" x="174.511719"/>
      <use xlink:href="#DejaVuSans-72" x="235.693359"/>
      <use xlink:href="#DejaVuSans-6d" x="275.056641"/>
      <use xlink:href="#DejaVuSans-20" x="372.46875"/>
      <use xlink:href="#DejaVuSans-4d" x="404.255859"/>
      <use xlink:href="#DejaVuSans-20" x="490.535156"/>
      <use xlink:href="#DejaVuSans-5b" x="522.322266"/>
      <use xlink:href="#DejaVuSans-4e" x="561.335938"/>
      <use xlink:href="#DejaVuSans-6d" x="636.140625"/>
      <use xlink:href="#DejaVuSans-5d" x="733.552734"/>
     </g>
    </g>
   </g>
   <g id="line2d_29">
    <path d="M 30.123125 145.003721 
L 354.71952 145.003721 
L 354.71952 145.003721 
" clip-path="url(#p6b55149d92)" style="fill: none; stroke: #0000ff; stroke-opacity: 0.5; stroke-width: 2.1; stroke-linecap: square"/>
   </g>
   <g id="line2d_30">
    <path d="M 30.123125 10.815804 
L 30.364361 7.98379 
L 30.47021 8.336747 
L 30.4878 10.044531 
L 30.546955 9.388419 
L 30.629382 9.596268 
L 30.687258 12.241849 
L 30.765061 11.906135 
L 30.845507 11.232759 
L 30.946396 11.489229 
L 31.032842 10.974079 
L 31.124924 12.928597 
L 31.18462 12.812833 
L 31.34463 11.298136 
L 31.425094 11.959057 
L 31.545135 11.222738 
L 31.684716 12.655187 
L 31.764146 11.391621 
L 31.864299 11.717543 
L 32.004006 11.113993 
L 32.203083 13.315778 
L 32.525461 10.541722 
L 32.603704 11.183198 
L 32.683954 10.327246 
L 32.82369 10.68587 
L 32.846649 11.578568 
L 32.923732 10.784107 
L 33.16442 9.403032 
L 33.2477 9.735296 
L 33.422846 11.459489 
L 33.50272 11.333296 
L 33.824002 7.678847 
L 33.989716 9.990536 
L 34.073328 9.976784 
L 34.165727 8.473522 
L 34.22968 8.721605 
L 34.326168 8.47418 
L 34.405932 8.835723 
L 34.486148 8.814319 
L 34.653763 11.128763 
L 34.731021 10.160758 
L 34.825192 10.358032 
L 34.927347 10.28968 
L 34.986625 10.547161 
L 35.065763 9.928268 
L 35.224838 11.291074 
L 35.391987 9.8861 
L 35.567679 10.882558 
L 35.647645 10.085703 
L 35.888143 12.873234 
L 36.048044 11.805322 
L 36.129506 12.389711 
L 36.212465 12.337681 
L 36.308501 11.841648 
L 36.388445 12.231414 
L 36.469042 13.34057 
L 36.548546 13.148185 
L 36.62911 11.991287 
L 36.720695 12.027756 
L 36.792211 12.737369 
L 36.968114 12.150895 
L 37.048943 12.465091 
L 37.143517 12.416881 
L 37.209434 11.579677 
L 37.290657 11.973586 
L 37.369237 11.944813 
L 37.529163 11.374294 
L 37.628435 11.831784 
L 37.789405 13.370761 
L 38.211319 10.25903 
L 38.288606 11.130974 
L 38.451804 9.223172 
L 38.531228 9.328475 
L 38.610803 9.338274 
L 38.770686 10.25565 
L 38.890739 11.797204 
L 38.97084 11.44545 
L 39.07042 11.725074 
L 39.190527 9.600777 
L 39.330234 11.019505 
L 39.609234 6.175944 
L 39.689589 7.290578 
L 39.769676 7.729128 
L 39.931841 10.989061 
L 40.095616 9.011367 
L 40.178818 9.325086 
L 40.43196 11.691462 
L 40.593994 11.758286 
L 40.772197 10.384996 
L 40.856948 10.250634 
L 40.938598 10.744427 
L 41.197826 9.724792 
L 41.039138 10.792369 
L 41.341655 9.828669 
L 41.523472 11.593208 
L 41.591273 11.114008 
L 41.673017 11.13513 
L 41.780429 11.1058 
L 41.853462 10.866082 
L 41.951695 10.008362 
L 42.094045 12.303838 
L 42.135316 13.142452 
L 42.207843 12.987209 
L 42.296647 11.44855 
L 42.435995 10.252412 
L 42.517122 10.177149 
L 42.616536 10.324549 
L 42.776221 11.620031 
L 43.016209 8.872783 
L 43.178247 10.906999 
L 43.256609 11.389075 
L 43.502907 9.306669 
L 43.615842 9.861953 
L 43.717391 9.813334 
L 43.817649 11.980235 
L 44.008058 9.219627 
L 44.076291 9.284846 
L 44.344617 11.29324 
L 44.754761 7.525524 
L 44.815002 7.732973 
L 44.935894 8.151826 
L 45.056394 8.165556 
L 45.214632 9.701061 
L 45.294317 9.218841 
L 45.39497 10.203453 
L 45.634787 14.065873 
L 45.734198 13.81588 
L 45.939127 11.597701 
L 45.973727 10.339203 
L 46.05419 10.367593 
L 46.133987 10.716853 
L 46.234064 10.220949 
L 46.473833 7.876984 
L 46.55325 8.146849 
L 46.932848 11.9571 
L 47.040355 9.823162 
L 47.131889 10.86247 
L 47.6565 6.816955 
L 47.713254 7.291228 
L 47.793192 9.234032 
L 47.886452 9.143297 
L 47.953256 7.685996 
L 48.152362 8.202921 
L 48.212926 7.948498 
L 48.372108 9.45428 
L 48.652699 7.311559 
L 48.713324 7.763428 
L 48.792961 9.48023 
L 48.872789 9.132005 
L 48.992518 9.07313 
L 49.172432 8.111535 
L 49.47271 8.742277 
L 49.587388 9.142293 
L 49.612499 8.977223 
L 49.693129 8.621487 
L 49.79343 8.763492 
L 49.995773 7.604751 
L 50.037361 7.616732 
L 50.217357 9.822492 
L 50.371543 8.681109 
L 50.512549 9.007863 
L 50.57818 9.456166 
L 50.623186 8.793697 
L 50.702802 9.09857 
L 50.794027 8.88969 
L 50.936776 8.900403 
L 50.974062 9.204449 
L 50.995162 8.410377 
L 51.073616 8.516707 
L 51.166748 9.542654 
L 51.186028 9.112332 
L 51.266181 9.6239 
L 51.361616 8.917358 
L 51.45341 8.950056 
L 51.571304 9.425054 
L 51.686203 9.424366 
L 51.769749 9.759761 
L 51.928792 8.704914 
L 52.047938 9.988101 
L 52.088077 7.858993 
L 52.168563 8.293122 
L 52.428154 13.89879 
L 52.507604 12.481504 
L 52.667737 10.259813 
L 52.787469 10.882236 
L 52.851538 8.985608 
L 52.928647 9.697543 
L 53.131576 10.992686 
L 53.273203 9.859462 
L 53.352984 9.110788 
L 53.410845 9.155854 
L 53.61095 9.483206 
L 53.690996 10.760005 
L 53.752098 10.647481 
L 53.832993 9.809049 
L 53.977958 9.52165 
L 54.07141 8.243912 
L 54.2506 9.274135 
L 54.432195 11.012388 
L 54.512472 10.558656 
L 54.655924 12.403062 
L 54.752032 12.47164 
L 54.991934 13.903198 
L 55.011056 13.598042 
L 55.870272 10.414056 
L 56.336477 10.159815 
L 56.772244 10.398294 
L 56.789902 11.311405 
L 56.888979 10.690176 
L 56.969798 9.875576 
L 57.130511 11.716762 
L 57.429782 6.361552 
L 57.451364 7.587073 
L 57.690662 8.282517 
L 57.709441 9.410366 
L 57.848991 10.182408 
L 57.99166 8.128712 
L 58.269322 10.769843 
L 58.452709 8.267891 
L 58.53759 7.831749 
L 58.689778 8.409446 
L 58.889759 12.957753 
L 58.950215 12.773166 
L 59.048542 11.343913 
L 59.237005 13.437632 
L 59.348709 13.396189 
L 59.44853 11.278422 
L 59.530715 10.572731 
L 59.649257 10.598638 
L 59.688755 10.80095 
L 59.908566 12.935596 
L 60.128665 11.568836 
L 60.234343 12.247157 
L 60.288458 11.893305 
L 60.369438 10.309395 
L 60.444464 11.046997 
L 60.564548 11.270959 
L 60.844359 10.003562 
L 60.924696 10.092526 
L 61.103846 10.818354 
L 61.184095 10.69387 
L 61.363537 9.974848 
L 61.444486 9.629417 
L 61.504065 10.066448 
L 61.683171 9.367905 
L 61.763453 9.521129 
L 61.865503 9.612868 
L 62.022692 10.995094 
L 62.183541 9.75217 
L 62.32258 10.522096 
L 62.50353 13.826665 
L 62.604185 13.570368 
L 62.825246 11.543668 
L 63.003818 12.808882 
L 63.163337 9.289338 
L 63.302242 8.713195 
L 63.322045 7.991222 
L 63.424058 8.802266 
L 63.594409 9.096742 
L 63.594743 8.723092 
L 63.69266 10.26987 
L 64.071416 7.181638 
L 64.269648 4.57649 
L 64.349724 4.643092 
L 64.569468 5.737924 
L 64.82922 8.731003 
L 64.928701 10.334242 
L 65.068505 13.676209 
L 65.309837 12.662046 
L 65.468758 13.202651 
L 65.56657 12.321328 
L 65.651381 12.349643 
L 65.727973 11.914533 
L 65.887125 9.099379 
L 66.127646 8.608264 
L 66.23176 7.500733 
L 66.307598 7.845244 
L 66.467151 6.385379 
L 66.547955 6.430012 
L 66.72842 9.837925 
L 66.849143 10.322222 
L 66.868142 9.457681 
L 66.986989 9.443083 
L 67.047333 9.935333 
L 67.128189 9.550309 
L 67.207233 10.782025 
L 67.366775 11.438033 
L 67.488197 8.60101 
L 67.807193 10.763656 
L 67.866389 10.200822 
L 68.007479 9.969444 
L 68.128343 9.078018 
L 68.246236 10.196759 
L 68.326964 9.954676 
L 68.386312 9.055935 
L 68.470277 9.345086 
L 68.543636 10.163551 
L 68.694943 7.294969 
L 68.87879 8.772122 
L 69.151844 12.091466 
L 69.271166 11.060759 
L 69.371441 11.243966 
L 69.489118 13.16402 
L 69.535408 15.907804 
L 69.61213 15.00873 
L 69.692481 13.81535 
L 69.773645 13.850662 
L 69.857788 14.867006 
L 69.935129 13.991818 
L 70.193092 15.825589 
L 70.413074 15.839055 
L 70.4327 12.914043 
L 70.513555 14.782721 
L 70.653449 13.470472 
L 70.773218 11.062292 
L 70.852815 11.036786 
L 71.004966 10.79212 
L 71.094003 8.089441 
L 71.171812 9.545825 
L 71.191647 9.375353 
L 71.32076 8.542375 
L 71.357219 7.132483 
L 71.512379 9.129363 
L 71.593747 10.275709 
L 71.757166 10.209029 
L 71.832279 10.043387 
L 72.053453 12.933231 
L 72.093395 13.009171 
L 72.334463 13.632749 
L 72.515078 12.56073 
L 72.617661 12.763495 
L 72.662561 13.437585 
L 72.775183 12.617196 
L 72.83537 11.202434 
L 72.985944 11.619373 
L 73.154661 13.576718 
L 73.174398 12.996108 
L 73.304471 12.860705 
L 73.347959 13.019839 
L 73.755519 17.125557 
L 74.240079 10.763091 
L 74.338844 10.694764 
L 74.418887 10.408726 
L 74.483247 9.625139 
L 74.578274 9.65748 
L 74.738373 7.910149 
L 74.817956 8.263086 
L 75.063662 10.078255 
L 75.079296 7.828019 
L 75.159551 9.82371 
L 75.220434 9.891598 
L 75.341211 10.593583 
L 75.399945 9.516951 
L 75.501329 10.295515 
L 75.580244 11.93601 
L 75.643856 11.721391 
L 75.742222 9.678282 
L 75.759241 10.966335 
L 75.89978 12.112204 
L 76.141541 9.586907 
L 76.341916 11.506244 
L 76.483924 10.27914 
L 76.541153 11.70255 
L 76.722478 10.651144 
L 76.821932 11.713504 
L 76.90606 11.485606 
L 76.96226 11.421759 
L 77.122621 9.889573 
L 77.266637 10.002003 
L 77.286295 10.254321 
L 77.389333 9.345278 
L 77.466551 9.480416 
L 77.54861 9.875536 
L 77.785387 8.166018 
L 78.205185 11.304873 
L 78.285716 11.494694 
L 78.370479 11.279124 
L 78.445807 10.709879 
L 78.545847 10.941764 
L 78.704721 12.523851 
L 78.791937 11.851284 
L 78.952295 9.574265 
L 79.190854 8.180651 
L 79.347364 10.802855 
L 79.427139 10.658112 
L 79.546651 8.818343 
L 79.606919 9.181765 
L 79.786098 7.378786 
L 80.436692 13.459299 
L 80.577824 14.228495 
L 80.627451 14.085307 
L 81.087084 9.828447 
L 81.367773 9.063628 
L 81.528457 11.116987 
L 81.667391 10.387205 
L 81.926801 11.693599 
L 82.046845 11.467845 
L 82.106423 11.855352 
L 82.187753 11.691274 
L 82.24696 10.959025 
L 82.427646 12.420213 
L 82.518279 11.959301 
L 82.630564 11.345889 
L 82.708521 11.536287 
L 82.928848 12.736164 
L 82.992096 14.166804 
L 83.069614 13.912346 
L 83.269716 12.75302 
L 83.444783 13.852413 
L 83.579388 10.888356 
L 83.590178 11.119017 
L 83.68548 11.874909 
L 83.771663 11.964869 
L 83.951801 9.747574 
L 83.997143 10.928709 
L 84.231088 8.855531 
L 84.391371 8.805596 
L 84.453575 9.478502 
L 84.558547 8.39979 
L 84.735049 8.773422 
L 84.81604 7.916374 
L 84.894205 8.922146 
L 84.973968 8.754788 
L 85.054889 8.421031 
L 85.137096 9.283152 
L 85.235891 9.482958 
L 85.321458 10.92835 
L 85.394409 9.625288 
L 85.473544 10.005369 
L 85.80633 11.837606 
L 85.97295 11.545756 
L 86.054644 11.959758 
L 86.132238 10.51907 
L 86.217556 10.782279 
L 86.294994 11.338836 
L 86.791205 8.305959 
L 86.87373 8.265235 
L 87.05163 11.216448 
L 87.29192 9.019576 
L 87.451837 9.885226 
L 87.531399 9.746944 
L 87.712323 10.366953 
L 87.872761 9.031783 
L 87.951673 9.266308 
L 88.114437 11.257267 
L 88.291745 9.379396 
L 88.701144 7.511235 
L 88.852753 8.747022 
L 88.933564 8.66005 
L 89.053088 10.964227 
L 89.110977 10.392609 
L 89.194534 9.066118 
L 89.370518 10.884991 
L 89.431994 10.166855 
L 89.519832 11.103643 
L 89.691008 9.066075 
L 89.771018 9.155432 
L 89.853248 8.982841 
L 90.011862 11.072666 
L 90.092481 10.860891 
L 90.193044 9.823407 
L 90.257785 10.011097 
L 90.35383 10.314416 
L 90.431932 11.427571 
L 90.513371 10.836968 
L 90.605811 10.983273 
L 90.612363 9.750221 
L 90.673219 9.825578 
L 90.853565 8.26516 
L 91.094088 10.160731 
L 91.154121 9.641381 
L 91.174724 9.887444 
L 91.25601 9.950185 
L 91.443354 11.116855 
L 91.535827 10.473763 
L 91.595361 10.506117 
L 91.675883 11.203183 
L 91.835323 9.497247 
L 91.914969 10.834504 
L 92.076192 9.53031 
L 92.19979 10.712515 
L 92.259192 10.273073 
L 92.34187 10.651965 
L 92.439987 12.978517 
L 92.499247 12.462142 
L 92.639404 12.369106 
L 92.739308 9.899341 
L 92.919665 9.97337 
L 92.999572 10.436143 
L 93.019695 9.80448 
L 93.261208 10.309481 
L 93.340886 9.778494 
L 93.361331 8.607346 
L 93.42229 9.256603 
L 93.800387 13.289169 
L 93.820891 12.884079 
L 93.901644 12.569336 
L 94.002153 12.701593 
L 94.062482 11.674796 
L 94.080592 12.917428 
L 94.161444 12.984966 
L 94.341752 14.026218 
L 94.361208 12.767147 
L 94.480383 12.852558 
L 94.559869 10.242041 
L 94.6407 10.733559 
L 94.720503 9.763392 
L 94.841444 9.714793 
L 94.921463 10.319706 
L 94.940317 8.885937 
L 95.022446 9.942489 
L 95.120948 8.648128 
L 95.180525 9.519185 
L 95.280848 9.288395 
L 95.382214 10.453555 
L 95.501087 9.862008 
L 95.58195 10.853757 
L 95.641183 9.209225 
L 96.056357 11.988871 
L 96.119899 11.602432 
L 96.160244 11.367225 
L 96.299719 11.655913 
L 96.349579 11.506192 
L 96.419382 12.854504 
L 96.499636 13.824538 
L 96.58111 12.206021 
L 96.720071 12.815198 
L 96.743306 13.624781 
L 96.800113 11.598882 
L 96.880105 12.114134 
L 97.108186 11.788754 
L 97.130212 12.480475 
L 97.204922 11.364805 
L 97.382111 12.730817 
L 97.548551 11.383227 
L 97.622847 12.16777 
L 98.224589 8.646071 
L 98.303194 9.745724 
L 98.364145 9.517347 
L 98.461884 8.461683 
L 98.522724 9.179944 
L 98.684382 9.634028 
L 98.722736 10.496239 
L 98.94094 9.326261 
L 99.061068 9.491184 
L 99.145608 9.841133 
L 99.209282 9.774426 
L 99.360608 11.487412 
L 99.442723 10.662456 
L 99.520642 10.732865 
L 99.642229 11.01728 
L 99.704028 11.440374 
L 99.783278 11.016334 
L 99.865232 12.122603 
L 100.063625 10.643721 
L 100.163636 10.122601 
L 100.184012 10.512493 
L 100.663699 14.73278 
L 100.706114 13.200019 
L 100.803523 13.656094 
L 100.865027 14.768189 
L 101.043085 13.66383 
L 101.342661 12.244951 
L 101.503423 12.535964 
L 101.682355 11.274898 
L 101.777315 11.730239 
L 101.843873 11.791167 
L 101.922462 11.677797 
L 102.222143 9.24233 
L 102.342225 10.280195 
L 102.76566 8.781206 
L 102.963939 9.763925 
L 103.003314 9.442114 
L 103.166419 9.813242 
L 103.254085 9.413484 
L 103.324454 9.599106 
L 103.46433 10.141653 
L 103.54782 9.741468 
L 103.66332 8.700868 
L 103.850359 8.283299 
L 103.903207 8.261717 
L 104.067574 9.776715 
L 104.157515 11.657021 
L 104.243579 10.598457 
L 104.571889 13.813281 
L 104.803899 13.920217 
L 104.886842 11.352127 
L 104.984418 10.899358 
L 105.154391 12.355709 
L 105.30957 10.551306 
L 105.38448 10.620319 
L 105.563634 10.042754 
L 105.724446 11.689371 
L 105.883668 10.709882 
L 106.382565 13.434638 
L 106.543398 12.827671 
L 106.623624 13.621385 
L 106.739918 13.545532 
L 107.042334 10.595 
L 107.126303 11.215533 
L 107.208967 10.927274 
L 107.28512 11.815467 
L 107.542135 10.498811 
L 107.628242 10.108204 
L 107.70342 10.331039 
L 107.865291 11.749816 
L 108.025498 10.052862 
L 108.131172 9.988998 
L 108.284009 10.490194 
L 108.443591 10.323321 
L 108.544631 11.602595 
L 108.685405 9.209622 
L 108.787008 11.954247 
L 108.967823 10.938671 
L 109.025197 11.65089 
L 109.104875 11.275378 
L 109.185051 10.877386 
L 109.272174 11.956666 
L 109.364634 11.140835 
L 109.450868 12.054214 
L 109.649393 10.654947 
L 109.780268 13.689721 
L 109.869583 12.896327 
L 110.00916 14.300015 
L 110.089183 13.953886 
L 110.247942 14.302666 
L 110.28761 13.246661 
L 110.359825 13.322133 
L 110.428127 13.100456 
L 110.667242 10.154152 
L 110.707345 10.918814 
L 110.810527 11.200591 
L 110.928865 9.741491 
L 111.19621 10.584883 
L 111.348407 12.417929 
L 111.42793 12.380278 
L 111.507694 13.231283 
L 111.726801 11.508688 
L 111.771784 11.942234 
L 111.907972 10.540591 
L 112.007958 9.992638 
L 112.088637 8.360154 
L 112.248793 9.166277 
L 112.349885 7.818053 
L 112.489269 8.636845 
L 112.509001 9.843707 
L 112.730466 11.183185 
L 112.908418 13.103795 
L 112.998024 12.970467 
L 113.068118 13.067448 
L 113.150887 13.846921 
L 113.284855 13.286678 
L 113.333401 13.571674 
L 113.409713 12.750991 
L 113.488522 12.880195 
L 113.568825 13.05693 
L 113.768245 12.637349 
L 114.029087 10.268343 
L 114.149432 11.65854 
L 114.308966 9.074531 
L 114.410238 9.133768 
L 114.568227 9.883135 
L 114.828396 14.185919 
L 114.848257 12.739165 
L 114.948616 11.73694 
L 114.975224 10.029087 
L 115.14835 12.560146 
L 115.231923 12.469657 
L 115.628084 7.105802 
L 115.727113 7.402825 
L 115.806655 8.455504 
L 115.906785 8.374784 
L 115.986752 8.588387 
L 116.087061 8.142105 
L 116.168302 8.214877 
L 116.550843 11.813666 
L 116.668602 11.661174 
L 116.708116 12.457083 
L 116.888691 11.655049 
L 117.067912 12.908091 
L 117.328408 11.230548 
L 117.370509 11.631487 
L 117.548151 9.710305 
L 117.627831 9.977185 
L 117.789542 10.528333 
L 117.865064 10.387638 
L 117.880416 9.876627 
L 117.952999 10.217666 
L 117.998291 10.228142 
L 118.061222 10.503921 
L 118.226799 7.761277 
L 118.366422 9.509213 
L 118.485219 7.75041 
L 118.545526 8.225185 
L 118.706197 9.124128 
L 118.809882 8.697278 
L 118.957258 11.132858 
L 119.045834 12.521721 
L 119.126773 12.509075 
L 119.226303 11.730908 
L 119.350109 12.246708 
L 119.411584 13.204913 
L 119.450108 12.083724 
L 119.52734 13.241224 
L 119.706992 11.948842 
L 120.027843 13.534689 
L 120.214101 11.897663 
L 120.490924 13.259917 
L 120.689731 12.524057 
L 120.857684 11.925961 
L 121.170677 15.246778 
L 121.352531 15.690953 
L 121.432401 15.023055 
L 121.511493 15.19554 
L 121.591486 15.089478 
L 122.193425 12.285467 
L 122.286344 12.589109 
L 122.494949 13.298433 
L 122.594469 13.157799 
L 122.957027 8.664884 
L 122.996383 9.562389 
L 123.076087 9.363796 
L 123.161646 8.321924 
L 123.176755 8.350165 
L 123.255577 9.30872 
L 123.318417 8.202956 
L 123.456117 8.174181 
L 123.736494 12.823286 
L 123.815967 10.806853 
L 123.900514 11.422472 
L 123.997598 12.330589 
L 124.076617 11.375044 
L 124.156926 11.747391 
L 124.244638 11.83699 
L 124.325428 11.327246 
L 124.476359 11.560009 
L 124.515989 11.430771 
L 124.576025 9.902211 
L 124.677594 11.298956 
L 124.73924 10.948422 
L 124.899538 9.546022 
L 125.000023 9.229744 
L 125.05923 9.438292 
L 125.183701 9.341024 
L 125.319099 8.145435 
L 125.458538 8.335667 
L 125.579278 6.632737 
L 125.71808 9.100818 
L 125.798133 9.581562 
L 125.878205 8.741682 
L 125.97817 9.87112 
L 126.077492 9.629805 
L 126.182207 9.003932 
L 126.376422 11.951099 
L 126.540265 11.022052 
L 126.637124 10.794481 
L 126.732111 11.541659 
L 126.796843 10.745343 
L 126.976415 12.7064 
L 127.056948 12.569099 
L 127.157617 12.620569 
L 127.302728 10.40746 
L 127.495715 10.6465 
L 127.740693 9.321322 
L 127.909896 6.423121 
L 128.017593 6.241975 
L 128.036122 7.351378 
L 128.17603 8.646791 
L 128.216598 7.697711 
L 128.296586 8.191983 
L 128.396655 8.159215 
L 128.476236 7.898703 
L 128.555795 8.644006 
L 128.715837 11.456807 
L 128.779884 11.625667 
L 129.018176 10.814899 
L 129.117593 12.424567 
L 129.135587 12.035653 
L 129.276149 13.822843 
L 129.436849 12.423687 
L 129.616573 13.504503 
L 129.699348 13.569996 
L 129.7763 13.470076 
L 129.858012 13.599106 
L 129.953023 13.261528 
L 130.032305 12.344174 
L 130.132721 12.462755 
L 130.176252 12.844143 
L 130.452122 9.767785 
L 130.593149 10.444384 
L 130.674678 9.375806 
L 130.691006 9.456547 
L 130.810396 9.602861 
L 130.935026 10.813405 
L 130.950242 9.829761 
L 131.011137 11.007925 
L 131.113674 12.498133 
L 131.213011 12.293959 
L 131.271588 12.48478 
L 131.350965 11.988309 
L 131.530843 12.656656 
L 131.59762 11.940393 
L 131.672521 12.57553 
L 131.855383 10.918051 
L 131.917429 10.814852 
L 132.196161 12.587254 
L 132.27731 11.600121 
L 132.413823 13.370558 
L 132.494766 12.482444 
L 132.594188 12.564065 
L 132.795223 11.106047 
L 132.873987 11.406127 
L 132.996648 11.184073 
L 133.114262 10.422621 
L 133.318812 6.625898 
L 133.575489 9.893115 
L 133.834889 7.77358 
L 134.177007 10.309382 
L 134.235797 9.570464 
L 134.39885 8.611088 
L 134.696356 10.811504 
L 134.715413 9.960159 
L 134.736659 10.837959 
L 134.976569 12.117585 
L 135.116384 11.692452 
L 135.179499 12.351369 
L 135.238201 12.052021 
L 135.438612 10.076534 
L 135.490644 10.606463 
L 135.557546 10.726484 
L 135.756761 10.167308 
L 135.975911 7.975214 
L 136.216497 9.908684 
L 136.296106 10.054367 
L 136.396092 10.72887 
L 136.555885 10.186303 
L 136.798197 12.638864 
L 136.876272 12.056666 
L 136.959399 12.260795 
L 137.215865 11.078562 
L 137.37562 12.026031 
L 137.555957 11.458529 
L 137.630274 10.56148 
L 137.735964 10.184887 
L 137.821628 8.79784 
L 138.039894 10.189422 
L 138.116195 10.010419 
L 138.199889 10.062058 
L 138.371022 10.919651 
L 138.536166 12.240211 
L 138.616328 12.825446 
L 138.752667 12.952929 
L 138.773585 11.98382 
L 138.972956 13.16808 
L 139.113316 11.957669 
L 139.194674 13.443098 
L 139.292728 12.626849 
L 139.522033 14.931799 
L 139.632769 15.045081 
L 139.804425 12.844503 
L 139.885274 13.847046 
L 139.924633 13.29135 
L 140.026818 11.704346 
L 140.123947 13.042808 
L 140.205019 12.834092 
L 140.363262 11.050353 
L 140.505409 11.975574 
L 140.684925 9.751201 
L 140.704231 10.362903 
L 140.766865 10.53119 
L 140.847706 10.257387 
L 141.009559 8.482113 
L 141.125232 9.66511 
L 141.250635 7.931603 
L 141.566615 12.035407 
L 141.708367 10.798805 
L 141.827182 10.85771 
L 141.926874 9.05994 
L 142.007237 9.923215 
L 142.166801 11.399169 
L 142.247009 11.503677 
L 142.407574 10.616465 
L 142.716042 11.232099 
L 142.827339 10.991785 
L 143.006978 6.908972 
L 143.167461 7.166749 
L 143.270531 8.513739 
L 143.393494 8.092743 
L 143.448218 8.350362 
L 143.766628 13.613859 
L 143.849843 13.673901 
L 144.075421 11.979699 
L 144.147153 11.923583 
L 144.308655 11.424262 
L 144.50225 12.424426 
L 144.767329 10.326265 
L 144.927637 11.915886 
L 145.026564 11.759225 
L 145.066939 11.073504 
L 145.156943 11.367234 
L 145.227211 11.360314 
L 145.366109 10.377189 
L 145.392047 9.338362 
L 145.505266 9.732835 
L 145.547788 10.719431 
L 145.727224 8.613946 
L 145.807981 8.945268 
L 145.887297 10.029117 
L 146.048371 8.97849 
L 146.219134 10.940275 
L 146.401251 7.656167 
L 146.497572 8.384685 
L 146.658526 10.070117 
L 146.957044 7.791842 
L 147.039071 7.942517 
L 147.216972 11.804524 
L 147.458086 10.70484 
L 147.538233 10.64069 
L 147.797509 12.208615 
L 148.038484 10.320607 
L 148.12239 10.470927 
L 148.237482 10.39502 
L 148.377946 9.5542 
L 148.458459 10.232154 
L 148.559164 8.727684 
L 148.617285 9.489879 
L 149.016571 11.75681 
L 149.139788 11.940331 
L 149.216869 13.023023 
L 149.27655 12.240886 
L 149.396214 13.460484 
L 149.538352 12.495457 
L 149.617695 11.521686 
L 149.721827 11.694517 
L 149.759948 11.670019 
L 149.856949 11.277394 
L 149.939332 11.722402 
L 150.11725 10.995118 
L 150.258672 12.001821 
L 150.357061 12.020687 
L 150.437363 12.184919 
L 150.516202 11.975396 
L 150.677785 13.200738 
L 150.776902 13.181815 
L 150.936212 13.939345 
L 151.015434 12.707069 
L 151.159523 12.48448 
L 151.275317 13.863541 
L 151.456681 12.214739 
L 151.51383 10.311116 
L 151.593845 10.943569 
L 151.674593 11.2839 
L 151.753767 10.829044 
L 151.838035 11.470879 
L 151.853137 9.447162 
L 151.933354 10.83835 
L 152.193266 10.380384 
L 152.274058 10.915942 
L 152.433426 12.503125 
L 152.49387 12.436488 
L 152.631378 13.222281 
L 152.673317 12.89071 
L 152.833044 13.111068 
L 152.896148 12.201692 
L 152.953188 12.257004 
L 153.013069 13.440232 
L 153.15788 11.349579 
L 153.250479 11.000582 
L 153.481074 9.196178 
L 153.659755 10.778752 
L 153.759765 10.621744 
L 153.979537 13.001795 
L 154.05912 12.595938 
L 154.158838 13.541089 
L 154.299579 13.697033 
L 154.342188 14.391674 
L 154.459157 14.325018 
L 154.481844 14.407322 
L 154.579721 14.855627 
L 154.658481 14.33153 
L 154.73858 15.072198 
L 154.820944 14.014764 
L 154.901596 14.043444 
L 155.387013 10.40304 
L 155.464537 8.776672 
L 155.642352 9.524607 
L 155.843239 10.335841 
L 156.002177 9.917161 
L 156.043467 8.987765 
L 156.124283 9.682783 
L 156.206667 9.497738 
L 156.303176 9.43993 
L 156.462402 8.869421 
L 156.542738 9.043089 
L 156.702216 9.697874 
L 156.882287 11.784884 
L 156.96281 11.351846 
L 157.043182 11.458858 
L 157.123187 13.006889 
L 157.204986 12.483546 
L 157.363318 12.264283 
L 157.445837 11.343289 
L 157.542492 12.228387 
L 157.621889 11.116423 
L 157.783324 12.651719 
L 157.949484 10.644768 
L 158.024936 11.075768 
L 158.043876 9.491573 
L 158.108373 11.124972 
L 158.204298 11.143681 
L 158.305934 11.583077 
L 158.365864 10.922277 
L 158.445112 11.358071 
L 158.533798 9.582237 
L 158.605474 9.696223 
L 158.780652 10.171007 
L 158.865274 9.380846 
L 158.946134 9.41006 
L 159.027118 9.749629 
L 159.108352 9.711001 
L 159.264742 8.132049 
L 159.345592 9.678671 
L 159.427678 9.175228 
L 159.601974 10.119865 
L 159.686157 10.352498 
L 159.843228 9.123227 
L 160.088835 10.183611 
L 160.263906 9.122771 
L 160.442663 9.72614 
L 160.523699 9.788555 
L 160.643306 9.622199 
L 160.789945 8.907333 
L 160.913959 10.123318 
L 161.090154 11.227946 
L 161.27928 10.178624 
L 161.435889 11.289995 
L 161.494199 11.386153 
L 161.571129 11.108632 
L 161.66804 11.377438 
L 161.833341 12.539142 
L 161.92858 12.904932 
L 162.348303 15.946677 
L 162.567965 15.635554 
L 162.749326 12.020486 
L 163.149245 8.643895 
L 163.247741 8.984493 
L 163.308278 8.153609 
L 163.568 9.626509 
L 163.747213 9.62789 
L 163.826929 9.746447 
L 163.906802 10.334412 
L 164.154827 9.189369 
L 164.24619 9.410485 
L 164.325992 8.435716 
L 164.406323 9.015938 
L 164.545817 8.588722 
L 164.627117 8.650471 
L 164.806229 10.104774 
L 164.969361 9.623497 
L 164.986503 10.837734 
L 165.066449 10.193328 
L 165.165344 10.171908 
L 165.227323 9.782295 
L 165.386319 10.220645 
L 165.472173 9.500054 
L 165.545976 9.625416 
L 165.68175 9.67539 
L 165.707762 11.157031 
L 165.825282 11.37314 
L 165.985186 13.576679 
L 166.065504 12.905201 
L 166.144985 12.796853 
L 166.385591 13.621522 
L 166.572161 11.531309 
L 166.625483 10.154394 
L 166.726136 10.320901 
L 166.792419 9.851672 
L 166.88612 10.064576 
L 167.151687 12.131136 
L 167.311176 11.811544 
L 167.432153 11.999148 
L 167.451191 12.685485 
L 167.617464 11.125035 
L 167.716858 11.951163 
L 167.81727 11.923849 
L 168.03819 9.307433 
L 168.515691 12.371295 
L 168.656845 10.24385 
L 168.697657 10.327296 
L 168.776389 11.171534 
L 168.856225 10.684807 
L 168.955708 10.764889 
L 169.120346 10.324782 
L 169.196885 10.770121 
L 169.276846 9.92771 
L 169.381431 11.469844 
L 169.615027 10.186546 
L 169.693022 11.755936 
L 169.769932 11.732838 
L 169.949614 11.472322 
L 170.089348 10.765952 
L 170.129061 11.140244 
L 170.193168 10.223267 
L 170.349771 11.213173 
L 170.469115 11.153727 
L 170.609147 9.66047 
L 170.887996 11.35782 
L 171.1705 13.264642 
L 171.268856 12.564249 
L 171.348984 12.713887 
L 171.671205 11.236829 
L 171.78894 11.555053 
L 172.008372 9.381622 
L 172.09085 9.777395 
L 172.168817 9.17362 
L 172.32877 11.056618 
L 172.426004 10.153817 
L 172.553284 10.556157 
L 172.649919 9.039782 
L 172.672908 10.107842 
L 172.807781 9.307834 
L 172.929011 11.27068 
L 173.010545 11.901877 
L 173.069276 10.83717 
L 173.14885 11.07862 
L 173.228221 11.655022 
L 173.327872 11.439092 
L 173.408617 12.780014 
L 173.491038 12.443522 
L 173.613125 12.676044 
L 173.74943 10.503773 
L 173.970806 11.28242 
L 173.988381 9.95648 
L 174.290438 9.129051 
L 174.372419 9.546652 
L 174.487496 12.601726 
L 174.571037 14.054533 
L 174.66886 13.298731 
L 174.730149 13.356398 
L 174.809041 13.200353 
L 174.950784 13.827788 
L 174.988035 12.966846 
L 175.048378 13.012501 
L 175.228279 11.379568 
L 175.388107 9.520838 
L 175.468162 9.258641 
L 175.63143 9.759771 
L 175.715461 9.707771 
L 175.88805 9.147034 
L 175.968158 9.624478 
L 176.047818 9.22558 
L 176.308324 11.188948 
L 176.371311 10.357465 
L 176.628962 11.796775 
L 176.790527 11.727049 
L 176.868602 12.298993 
L 177.029987 10.295145 
L 177.367939 7.97883 
L 177.452181 7.972655 
L 177.533158 8.125125 
L 177.700516 7.702233 
L 177.788331 8.650441 
L 177.877459 8.409501 
L 178.19022 10.313574 
L 178.330353 10.308164 
L 178.469686 9.626585 
L 178.531935 10.303373 
L 178.630024 10.136961 
L 178.771365 9.191467 
L 178.949736 8.78892 
L 179.030578 9.771078 
L 179.27025 11.467618 
L 179.4308 10.024274 
L 179.455928 11.204798 
L 179.562657 9.975231 
L 179.641854 10.422038 
L 180.148024 7.755359 
L 180.188057 8.75024 
L 180.28732 8.610095 
L 180.369282 9.686887 
L 180.471297 9.401439 
L 180.587995 8.763016 
L 180.749054 7.696326 
L 181.028222 10.690081 
L 181.269156 11.778479 
L 181.606735 15.268555 
L 181.755292 14.520513 
L 181.911115 13.982935 
L 181.989806 15.169938 
L 182.106291 14.602895 
L 182.32758 13.011109 
L 182.503272 12.898219 
L 182.509976 13.192712 
L 182.588373 13.145154 
L 182.668254 13.228405 
L 182.856807 11.485689 
L 182.931997 11.335758 
L 183.028655 12.733227 
L 183.16889 12.694462 
L 183.228747 13.263226 
L 183.270692 13.075201 
L 183.509309 11.583028 
L 183.731437 13.557784 
L 183.990003 12.65361 
L 184.090061 12.73473 
L 184.149608 12.65609 
L 184.310767 14.767829 
L 184.489157 13.543274 
L 184.609995 13.214061 
L 184.751198 15.175268 
L 184.954799 14.053562 
L 184.989097 14.289011 
L 185.230934 15.794173 
L 185.548938 12.645684 
L 185.628942 12.234467 
L 185.809224 13.539211 
L 186.051366 11.354886 
L 186.068014 11.838016 
L 186.188275 11.915286 
L 186.688589 8.747488 
L 186.710072 8.135087 
L 186.84874 7.66862 
L 186.892148 8.409607 
L 186.968775 8.370925 
L 187.047825 8.366486 
L 187.147817 7.609834 
L 187.287056 9.337929 
L 187.367365 9.423964 
L 187.455819 9.22966 
L 187.530751 9.324618 
L 187.619327 9.273541 
L 187.780184 8.94627 
L 187.794784 10.073925 
L 187.873827 9.100136 
L 187.957432 9.940154 
L 188.117533 7.670767 
L 188.297159 8.267575 
L 188.436489 8.39142 
L 188.458009 8.615716 
L 188.657141 7.383821 
L 188.838481 7.929163 
L 188.860263 7.349588 
L 188.962997 7.76609 
L 189.02338 6.963048 
L 189.10154 7.567652 
L 189.179515 7.360368 
L 189.350309 8.120243 
L 189.46827 6.892112 
L 189.615932 8.282658 
L 189.869975 13.059359 
L 189.970769 11.576807 
L 190.016194 11.83962 
L 190.11241 11.426454 
L 190.267661 12.460963 
L 190.34753 12.372017 
L 190.432444 11.655124 
L 190.687184 8.02649 
L 190.768035 9.378038 
L 191.047458 6.482839 
L 191.246509 6.56649 
L 191.313108 7.898614 
L 191.340177 7.629265 
L 191.428523 7.725091 
L 191.58643 7.167445 
L 191.827122 10.531886 
L 191.926513 10.364657 
L 192.005899 10.283054 
L 192.085848 7.914296 
L 192.169594 9.034596 
L 192.245511 8.546909 
L 192.331052 9.224087 
L 192.572379 7.762649 
L 192.751648 8.997768 
L 193.070217 12.144584 
L 193.150911 11.580307 
L 193.408972 12.782491 
L 193.489916 12.139262 
L 193.570058 12.752356 
L 193.89848 11.029265 
L 194.07068 12.940169 
L 194.149425 12.897274 
L 194.228652 13.451174 
L 194.408505 10.63061 
L 194.473079 11.003485 
L 194.569224 11.096272 
L 194.676403 12.210459 
L 194.728116 11.961805 
L 195.230085 9.321681 
L 195.30817 10.119 
L 195.467636 8.717178 
L 195.628084 8.96772 
L 195.747404 10.169653 
L 195.807368 9.017606 
L 195.872385 9.337888 
L 195.948506 10.079214 
L 196.128216 8.95986 
L 196.22621 9.21575 
L 196.368222 10.277467 
L 196.63993 9.969204 
L 196.712947 10.431819 
L 196.80621 9.894176 
L 197.026215 11.441978 
L 197.287236 9.520722 
L 197.407598 9.946285 
L 197.467373 9.592712 
L 197.830019 11.083789 
L 197.850253 10.881433 
L 198.047765 11.686344 
L 198.680793 8.885913 
L 198.86944 10.229696 
L 198.958889 9.442649 
L 199.028307 9.763705 
L 199.349167 8.650507 
L 199.50739 8.900651 
L 199.607038 9.693035 
L 199.844385 7.918716 
L 200.084897 9.100633 
L 200.204483 8.028347 
L 200.263779 9.035595 
L 200.485537 7.63874 
L 200.528194 7.814002 
L 200.604863 9.240267 
L 200.783816 9.378076 
L 200.944303 10.766229 
L 201.183948 12.954735 
L 201.319013 12.34975 
L 201.348682 12.451717 
L 201.427275 12.576567 
L 201.515879 13.019046 
L 201.590563 12.260582 
L 201.725492 12.815409 
L 201.8452 11.506778 
L 201.828081 12.89783 
L 201.905184 11.817719 
L 202.328517 10.210342 
L 202.411171 10.289385 
L 202.495221 8.189618 
L 202.653047 8.563005 
L 202.992578 10.822112 
L 203.070908 10.887842 
L 203.150971 9.545332 
L 203.38999 11.849129 
L 203.470401 11.684833 
L 203.569951 9.331306 
L 203.711952 9.394032 
L 203.830634 7.68318 
L 203.894664 6.946764 
L 203.989572 9.075772 
L 204.069622 8.921984 
L 204.22999 9.279783 
L 204.470323 11.315036 
L 204.529567 10.131393 
L 204.598124 10.312256 
L 204.779185 12.178031 
L 204.874363 11.450599 
L 204.940399 12.125192 
L 204.974034 11.030408 
L 205.074453 11.549933 
L 205.265419 10.989735 
L 205.394658 11.858456 
L 205.493744 11.323513 
L 205.555835 9.934764 
L 205.634055 10.058079 
L 205.742023 8.513155 
L 205.83924 8.896458 
L 205.914472 7.921429 
L 205.973922 8.330398 
L 206.05537 8.148879 
L 206.375061 9.555011 
L 206.731427 6.388408 
L 206.875251 5.920292 
L 207.034224 5.383815 
L 207.201322 6.963553 
L 207.374152 8.401145 
L 207.538262 11.252748 
L 207.704428 10.141085 
L 207.785369 11.001676 
L 207.873065 10.904914 
L 207.938213 11.129058 
L 208.034028 11.079789 
L 208.253759 10.806206 
L 208.453956 12.39092 
L 208.554774 12.171901 
L 208.713782 10.505153 
L 208.773956 10.743909 
L 208.873574 10.840038 
L 209.013938 7.993381 
L 209.114092 8.75105 
L 209.255478 8.451666 
L 209.334329 8.718609 
L 209.414223 7.654021 
L 209.614489 8.76144 
L 209.715704 8.552725 
L 209.854942 11.522358 
L 210.013076 10.322797 
L 210.093996 10.704492 
L 210.19332 11.798621 
L 210.432269 11.045388 
L 210.575097 10.986006 
L 210.67366 11.716749 
L 210.732988 11.2266 
L 210.832156 11.883742 
L 211.032553 10.503039 
L 211.094859 10.8552 
L 211.174445 10.435923 
L 211.334691 11.752793 
L 211.452134 10.575997 
L 211.532023 11.28377 
L 211.611557 10.670473 
L 211.714939 11.677043 
L 211.772285 10.837022 
L 211.911486 11.245344 
L 212.090664 10.482407 
L 212.190642 10.154085 
L 212.254699 8.859338 
L 212.40333 8.566368 
L 212.612616 6.899186 
L 212.833723 8.306678 
L 213.013591 8.056948 
L 213.236205 11.482738 
L 213.401863 12.954547 
L 213.515009 12.275892 
L 213.574815 13.314381 
L 213.664918 13.108042 
L 213.736057 13.029457 
L 213.815264 13.212448 
L 214.137374 10.94353 
L 214.234052 10.986621 
L 214.314337 11.346075 
L 214.393913 11.13165 
L 214.493927 12.161301 
L 214.553987 11.876974 
L 214.640383 11.421374 
L 214.735282 11.801959 
L 214.841492 11.43056 
L 214.912391 11.855919 
L 214.972702 11.60614 
L 215.152039 12.314074 
L 215.332816 8.816264 
L 215.453308 8.796916 
L 215.475275 9.003266 
L 215.551705 8.881506 
L 215.712154 8.703778 
L 215.853878 8.803143 
L 215.975141 7.720446 
L 216.157521 9.572404 
L 216.402311 10.64498 
L 216.460114 10.265954 
L 216.474481 11.00515 
L 216.553847 9.765883 
L 216.654081 9.849319 
L 216.793956 11.287023 
L 216.888044 10.927087 
L 216.973238 11.213731 
L 217.155504 10.249481 
L 217.218919 10.472538 
L 217.435486 12.565795 
L 217.45524 12.458716 
L 217.534265 11.038246 
L 217.674262 11.053466 
L 217.954454 13.445668 
L 218.036199 13.887493 
L 218.192838 12.672585 
L 218.297393 12.558657 
L 218.352881 12.21751 
L 218.536556 10.570438 
L 218.633546 10.331452 
L 218.693269 9.856076 
L 218.861381 7.034064 
L 218.973674 7.124271 
L 219.058181 7.026941 
L 219.272897 10.666848 
L 219.464063 10.357891 
L 219.693017 13.379841 
L 219.851962 12.883469 
L 220.012588 11.173944 
L 220.091665 10.760851 
L 220.19232 11.730731 
L 220.271453 11.312557 
L 220.337871 11.817027 
L 220.431934 11.719948 
L 220.512177 11.536141 
L 220.591408 10.615027 
L 220.694896 11.2199 
L 221.012132 10.232034 
L 221.212055 8.253312 
L 221.271208 8.259533 
L 221.372051 8.066965 
L 221.432434 8.467058 
L 221.496163 7.934745 
L 221.590245 8.110569 
L 221.750548 6.896295 
L 221.892222 7.258047 
L 221.930353 8.958065 
L 222.010845 8.229749 
L 222.082314 7.439202 
L 222.250605 9.375637 
L 222.350757 8.519712 
L 222.4103 8.954938 
L 222.569495 10.624956 
L 222.738785 8.717366 
L 222.829882 9.182093 
L 222.90924 10.390484 
L 223.048985 9.915951 
L 223.230479 11.207247 
L 223.312921 9.463429 
L 223.590548 11.173278 
L 223.892345 8.257861 
L 223.989454 7.855409 
L 224.149662 9.884255 
L 224.250103 9.659725 
L 224.40926 10.532279 
L 224.615065 9.251601 
L 224.728998 9.361435 
L 224.80994 10.688069 
L 224.889341 9.563648 
L 224.968939 9.899421 
L 225.214935 7.388449 
L 225.389209 9.916061 
L 225.470179 10.051642 
L 225.649018 8.672242 
L 225.731424 9.52949 
L 225.889633 8.851723 
L 226.028243 9.159265 
L 226.052917 9.564497 
L 226.231085 8.348412 
L 226.36979 10.043971 
L 226.468754 9.210741 
L 226.549184 9.430468 
L 226.711644 10.172515 
L 226.789679 9.162259 
L 226.948686 9.574804 
L 227.070548 11.30306 
L 227.11401 10.804577 
L 227.713912 13.628865 
L 227.794583 12.762188 
L 227.893192 12.799811 
L 227.952736 12.762488 
L 228.130538 11.646111 
L 228.203984 10.889593 
L 228.292848 11.348851 
L 228.533109 10.061244 
L 228.623974 10.431419 
L 228.698636 9.93726 
L 228.778938 10.11038 
L 228.959946 11.028732 
L 229.020285 9.799406 
L 229.128007 10.004076 
L 229.279337 9.487394 
L 229.358197 9.311164 
L 229.498181 9.555116 
L 229.597909 8.496709 
L 229.69809 8.598328 
L 229.778089 8.989095 
L 229.839766 10.097873 
L 230.105122 8.034719 
L 230.185681 8.603762 
L 230.25857 8.380846 
L 230.359437 8.604533 
L 230.428643 9.559087 
L 230.741288 7.210872 
L 230.941608 10.513716 
L 231.001351 10.080079 
L 231.425114 12.219315 
L 231.501487 12.996676 
L 231.841573 10.880205 
L 232.084377 8.745214 
L 232.344138 7.909865 
L 232.503555 9.187348 
L 232.583638 8.39099 
L 232.8251 11.333785 
L 233.030398 9.997792 
L 233.184893 11.338729 
L 233.265311 10.548844 
L 233.325681 10.826405 
L 233.534028 12.417003 
L 233.54923 11.614774 
L 233.648339 11.631174 
L 233.731596 11.655951 
L 233.892264 13.369199 
L 233.97102 13.077922 
L 234.151019 13.744141 
L 234.230995 14.508172 
L 234.311138 14.222061 
L 234.391063 13.959374 
L 234.530777 14.209813 
L 234.570231 14.910287 
L 234.809803 13.317401 
L 234.991357 14.143 
L 235.050114 12.961066 
L 235.152021 13.251559 
L 235.230733 13.984503 
L 235.431095 13.334603 
L 235.550605 13.867652 
L 235.629805 13.924599 
L 235.991281 9.815281 
L 236.120188 9.781161 
L 236.169835 9.993033 
L 236.455617 7.372709 
L 236.849463 9.152765 
L 237.050955 7.720206 
L 237.111907 8.115586 
L 237.234996 7.745254 
L 237.490829 10.120065 
L 237.53326 7.695569 
L 237.673043 7.807063 
L 237.699781 7.479738 
L 237.956312 9.809079 
L 238.113318 8.929156 
L 238.192137 9.214686 
L 238.273564 8.603495 
L 238.396213 9.217841 
L 238.544469 11.393406 
L 238.691578 10.353552 
L 238.773742 10.430697 
L 238.930541 12.262259 
L 239.028477 10.932721 
L 239.108537 11.228388 
L 239.191612 11.435461 
L 239.289341 10.210318 
L 239.430138 9.567964 
L 239.507682 9.799668 
L 239.609697 10.848056 
L 239.69177 10.866068 
L 239.767957 9.578445 
L 239.867428 10.19703 
L 240.028171 9.242039 
L 240.147915 9.72374 
L 240.427855 7.265376 
L 240.527592 7.269402 
L 240.589122 7.15346 
L 240.873735 8.75075 
L 240.928584 9.004472 
L 241.007989 10.423578 
L 241.128806 10.270236 
L 241.251154 12.031908 
L 241.368362 11.116002 
L 241.471009 11.988866 
L 241.50799 11.350862 
L 241.628241 11.84855 
L 241.690825 12.801097 
L 241.752043 12.507331 
L 241.972408 13.605184 
L 241.992504 13.178351 
L 242.05939 12.259654 
L 242.094976 12.886682 
L 242.191588 13.000785 
L 242.251673 13.297007 
L 242.671275 11.333155 
L 242.751763 9.774367 
L 242.831385 10.213857 
L 242.913404 9.770978 
L 242.998907 11.36971 
L 243.072435 11.018604 
L 243.250929 11.391865 
L 243.490508 9.793114 
L 243.670556 9.227679 
L 243.733105 9.354991 
L 243.851974 7.57189 
L 244.099783 8.681839 
L 244.162003 9.758722 
L 244.248703 8.852543 
L 244.259828 9.189575 
L 244.540547 11.820611 
L 244.580395 11.048641 
L 244.66006 12.353321 
L 244.802731 10.360496 
L 244.887759 10.936017 
L 244.979766 9.814829 
L 245.069735 10.217856 
L 245.139162 10.011142 
L 245.248444 9.160321 
L 245.299514 9.251321 
L 245.406507 8.95531 
L 245.541982 8.106513 
L 245.559397 8.410835 
L 245.638703 8.719492 
L 245.72152 8.439153 
L 245.962483 9.004774 
L 246.041146 8.492443 
L 246.198692 8.479775 
L 246.381188 10.824495 
L 246.541078 10.417288 
L 246.640954 10.91056 
L 246.707094 10.267794 
L 246.724322 10.333425 
L 246.863319 12.010743 
L 246.880709 11.213438 
L 247.012893 11.219441 
L 247.042582 11.949374 
L 247.151322 11.101868 
L 247.243177 9.471944 
L 247.384257 11.201117 
L 247.905037 9.100603 
L 247.962703 9.408344 
L 248.24153 8.281339 
L 248.301592 8.794589 
L 248.501739 7.664198 
L 248.541052 8.06574 
L 248.603394 8.162177 
L 248.683512 7.812942 
L 248.781389 6.22759 
L 249.240981 9.264651 
L 249.280735 10.381238 
L 249.408504 10.774198 
L 249.601154 13.331563 
L 249.682367 12.724108 
L 249.78077 11.665494 
L 249.841294 12.39505 
L 250.101725 9.49221 
L 250.340345 8.68459 
L 250.441375 8.703813 
L 250.646973 10.437857 
L 250.680818 9.20535 
L 250.7804 9.604347 
L 250.922981 11.63897 
L 251.179235 9.312284 
L 251.259641 9.213257 
L 251.340576 9.515057 
L 251.440072 9.135133 
L 251.501324 9.269683 
L 251.578851 10.446619 
L 251.707337 9.304269 
L 251.828927 9.801353 
L 251.855971 10.837424 
L 251.923019 10.286232 
L 252.083069 11.36087 
L 252.164888 10.010913 
L 252.244634 10.089413 
L 252.325413 10.746692 
L 252.454636 9.470594 
L 252.491323 10.090985 
L 252.665219 9.868004 
L 252.744678 10.786829 
L 252.906685 9.977935 
L 252.987009 11.354395 
L 253.086304 10.590501 
L 253.305862 11.162736 
L 253.511671 10.0865 
L 253.608755 9.955529 
L 253.726611 10.80942 
L 253.806249 10.731406 
L 253.888647 11.761532 
L 253.986419 10.847928 
L 254.065824 10.96225 
L 254.165199 11.238274 
L 254.253723 10.815219 
L 254.306746 12.297578 
L 254.389926 11.802253 
L 254.487497 11.45401 
L 254.566747 11.887947 
L 254.666704 11.542111 
L 254.80517 9.90422 
L 255.491921 5.68414 
L 255.910421 9.87718 
L 256.007583 8.826613 
L 256.048253 8.993383 
L 256.367414 13.649419 
L 256.526386 12.297951 
L 256.586799 12.605992 
L 256.800492 14.020499 
L 256.966967 12.440045 
L 257.206442 9.213546 
L 257.287271 9.95294 
L 257.466219 8.09303 
L 257.567037 8.401915 
L 257.628098 7.119201 
L 257.688914 8.834203 
L 257.707234 8.017253 
L 257.866782 7.55351 
L 258.052943 8.490475 
L 258.210861 7.934276 
L 258.228173 9.4109 
L 258.292494 9.025636 
L 258.35341 8.219521 
L 258.448354 10.304903 
L 258.528938 9.58192 
L 258.739898 10.655609 
L 258.877715 9.500737 
L 258.939323 10.006727 
L 259.018953 9.906253 
L 259.097678 10.120239 
L 259.199871 10.944177 
L 259.277759 10.212099 
L 259.44641 10.548749 
L 259.52457 10.384131 
L 259.661243 11.510551 
L 259.757277 9.748427 
L 259.877574 9.633563 
L 260.07887 10.756268 
L 260.118931 10.857244 
L 260.17949 10.051657 
L 260.341208 11.147949 
L 260.478389 11.21715 
L 260.638307 13.572934 
L 260.757728 13.748781 
L 260.838613 13.058975 
L 260.918438 11.789107 
L 261.001974 12.659468 
L 261.113352 11.924229 
L 261.258482 12.792571 
L 261.340461 12.428933 
L 261.497762 11.294116 
L 261.583599 10.729364 
L 261.75894 12.51213 
L 262.083363 8.471456 
L 262.258558 9.650211 
L 262.325843 8.870856 
L 262.444587 8.912727 
L 262.498917 6.899111 
L 262.578134 7.294773 
L 262.823017 8.66983 
L 262.998558 8.55234 
L 263.498467 11.262557 
L 263.51679 11.008396 
L 263.577921 10.356542 
L 263.637401 10.449165 
L 263.917682 10.930984 
L 263.977395 10.782796 
L 264.057382 11.319007 
L 264.236923 10.780703 
L 264.318966 11.729909 
L 264.395912 11.712269 
L 264.476433 12.036573 
L 264.656826 13.14085 
L 264.716406 12.929861 
L 264.862118 13.016948 
L 264.977399 12.257393 
L 265.274835 10.91155 
L 265.297137 11.225234 
L 265.377053 10.962839 
L 265.475832 9.429752 
L 265.554908 9.720199 
L 265.636831 9.920593 
L 265.800212 8.75664 
L 266.079257 9.714049 
L 266.239439 9.020114 
L 266.298925 10.116542 
L 266.560452 8.045311 
L 266.65946 9.157378 
L 266.800954 7.90235 
L 267.520239 10.812277 
L 267.599761 11.003856 
L 267.946449 9.027152 
L 268.022892 8.848795 
L 268.119704 9.588859 
L 268.1997 9.417164 
L 268.361152 8.554923 
L 268.441382 8.692933 
L 268.541084 9.444411 
L 268.600921 8.927208 
L 268.679608 9.98373 
L 268.797827 9.737866 
L 268.943497 8.812027 
L 269.077338 8.63398 
L 269.256951 12.059081 
L 269.336485 12.380312 
L 269.460716 11.199486 
L 269.596819 9.316712 
L 269.864023 10.576851 
L 270.096637 7.043578 
L 270.275469 7.490711 
L 270.355613 7.700903 
L 270.498835 9.64355 
L 270.756538 8.496287 
L 271.195421 11.018226 
L 271.296865 10.071904 
L 271.335226 10.551722 
L 271.450143 11.365249 
L 271.496725 11.14583 
L 271.581766 10.779045 
L 271.750752 12.707817 
L 271.836361 10.888618 
L 271.915234 11.408843 
L 272.073045 11.043969 
L 272.173624 9.605639 
L 272.23389 10.162721 
L 272.432684 11.912536 
L 272.613694 8.325395 
L 272.656209 10.538864 
L 272.873669 9.090816 
L 272.912427 9.829817 
L 272.99344 9.563274 
L 273.152548 8.358557 
L 273.233071 8.397486 
L 273.31935 8.421808 
L 273.39518 9.240086 
L 273.472096 8.94703 
L 273.574421 8.751434 
L 273.893224 11.20308 
L 273.972586 11.482499 
L 274.070898 10.916524 
L 274.15238 11.99101 
L 274.231572 11.90963 
L 274.391103 13.233309 
L 274.558317 11.301178 
L 274.631433 11.47281 
L 274.734135 11.56817 
L 275.130374 10.344634 
L 275.371227 11.406844 
L 275.62952 10.214743 
L 275.791572 10.565682 
L 276.0499 9.554122 
L 276.13158 10.201611 
L 276.212159 9.846907 
L 276.37007 8.683363 
L 276.532048 10.452948 
L 276.611194 9.549593 
L 276.873601 10.93865 
L 277.031547 8.872216 
L 277.134842 9.806242 
L 277.15148 9.763938 
L 277.231523 9.621219 
L 277.353359 8.021075 
L 277.450674 8.62079 
L 277.551975 8.023237 
L 277.612357 6.597424 
L 277.731026 6.950418 
L 277.856357 8.778817 
L 277.951764 8.321201 
L 278.19131 9.574281 
L 278.270753 8.640434 
L 278.364767 8.991075 
L 278.371995 11.566496 
L 278.45084 9.26802 
L 278.656416 10.25755 
L 278.85075 10.297331 
L 278.929955 10.522982 
L 279.029635 9.179741 
L 279.090707 9.52266 
L 279.270555 10.471987 
L 279.450237 9.492063 
L 279.591555 11.293117 
L 279.72943 10.926411 
L 279.790846 11.420498 
L 279.869575 12.956168 
L 279.9911 12.912965 
L 280.008925 13.341363 
L 280.070458 12.331649 
L 280.250466 13.51951 
L 280.44877 11.708308 
L 280.509158 12.137084 
L 280.67248 10.827592 
L 280.760373 11.44607 
L 281.008951 9.706989 
L 281.169209 9.916224 
L 281.236498 9.045514 
L 281.27428 10.042621 
L 281.330181 9.649485 
L 281.471423 10.464116 
L 281.510156 10.397999 
L 281.597724 10.023278 
L 281.751333 11.291507 
L 281.858732 11.876952 
L 281.930089 10.871299 
L 282.032274 10.961975 
L 282.070185 10.770964 
L 282.830213 13.20446 
L 282.990446 11.136032 
L 283.090529 10.973047 
L 283.230139 8.394112 
L 283.489754 6.0717 
L 283.630524 6.188168 
L 283.809678 8.963726 
L 283.831061 8.789234 
L 283.909904 8.261965 
L 284.149212 10.510039 
L 284.229289 10.266358 
L 284.321975 10.520628 
L 284.40886 11.840945 
L 284.429999 11.564907 
L 284.571493 8.356215 
L 284.631102 8.823371 
L 284.729319 10.395516 
L 284.809191 9.776682 
L 285.069578 11.301351 
L 285.12987 10.751507 
L 285.489801 13.916884 
L 285.549429 12.307627 
L 285.629446 13.201962 
L 285.900971 9.424911 
L 285.996011 10.121061 
L 286.291778 8.273129 
L 286.392449 9.381597 
L 286.51125 8.474029 
L 286.631067 10.382934 
L 286.711764 11.959942 
L 286.814473 11.942814 
L 286.954934 13.034518 
L 287.032825 12.640374 
L 287.292487 13.953593 
L 287.532109 10.069609 
L 287.694056 9.465945 
L 287.973786 11.979634 
L 288.112277 10.554632 
L 288.351504 12.22176 
L 288.432541 11.311434 
L 288.511338 11.81498 
L 288.608842 11.756262 
L 288.687912 11.844539 
L 288.853316 9.374077 
L 288.928483 9.126097 
L 289.107138 10.546061 
L 289.427281 8.297774 
L 289.50561 6.669407 
L 289.585761 7.052728 
L 289.765112 7.720289 
L 289.84502 7.571662 
L 290.007962 6.856459 
L 290.165341 8.931656 
L 290.24622 8.695547 
L 290.425866 10.031625 
L 290.584476 10.849332 
L 290.666592 10.101961 
L 290.744588 10.365861 
L 290.907465 12.036725 
L 291.004682 12.051559 
L 291.164965 11.443392 
L 291.333606 12.030403 
L 291.407137 12.369296 
L 291.492707 12.231051 
L 291.611413 12.355517 
L 291.824116 10.28789 
L 291.904095 11.189311 
L 292.264018 9.245903 
L 292.324487 9.595278 
L 292.404378 9.478871 
L 292.525946 9.024263 
L 292.647954 11.03904 
L 292.743617 10.420574 
L 293.024042 13.02771 
L 293.083382 12.267213 
L 293.18448 12.263597 
L 293.243428 10.574144 
L 293.323527 10.690859 
L 293.464792 10.60529 
L 293.663802 10.842019 
L 293.836647 8.886475 
L 293.88359 9.041092 
L 293.993432 9.014132 
L 294.114161 10.008053 
L 294.253572 8.724067 
L 294.472906 6.528805 
L 294.553145 6.373683 
L 294.63268 5.856261 
L 294.973484 9.933215 
L 295.052702 9.213466 
L 295.212695 9.567195 
L 295.471914 11.390724 
L 295.671461 9.904443 
L 295.711637 8.754999 
L 295.831814 8.569819 
L 295.89177 9.522753 
L 295.992103 8.835613 
L 296.052259 8.873994 
L 296.13226 9.421424 
L 296.213274 9.139525 
L 296.451793 9.575587 
L 296.631596 11.636172 
L 296.712588 10.760842 
L 296.95047 13.637784 
L 297.039034 12.878194 
L 297.120484 13.305156 
L 297.240996 12.317479 
L 297.282804 12.868415 
L 297.36497 12.391755 
L 297.539787 13.490077 
L 297.78029 11.77222 
L 297.901854 12.127844 
L 297.984558 11.913203 
L 298.040872 12.718686 
L 298.10055 12.533462 
L 298.374945 10.686347 
L 298.440497 10.42718 
L 298.600415 8.860769 
L 298.781002 9.229972 
L 298.862136 8.502718 
L 298.942092 6.658799 
L 299.201997 7.811843 
L 299.269729 9.612262 
L 299.343583 8.435492 
L 299.422433 9.463325 
L 299.56288 8.880333 
L 299.795594 10.309143 
L 300.010294 9.209122 
L 300.162743 8.952088 
L 300.182659 9.185909 
L 300.504202 6.566925 
L 300.585239 7.006126 
L 300.683758 6.764792 
L 300.913979 7.223621 
L 301.007411 8.101496 
L 301.171159 8.411069 
L 301.203506 9.152268 
L 301.26425 8.681626 
L 301.427195 10.535175 
L 301.504303 10.361038 
L 301.592015 9.690858 
L 301.665483 10.056338 
L 301.856455 7.694386 
L 301.936681 8.255033 
L 302.168113 8.742545 
L 302.249559 8.584963 
L 302.426465 10.021832 
L 302.566303 10.385689 
L 302.65208 11.405279 
L 302.7674 11.208009 
L 302.826192 11.318173 
L 302.927216 10.690845 
L 303.086493 11.122146 
L 303.148327 10.23885 
L 303.289511 10.584291 
L 303.328276 10.402593 
L 303.432555 10.206139 
L 303.509412 8.874897 
L 303.587358 9.148371 
L 303.64644 8.491235 
L 303.731138 8.523433 
L 303.82643 8.748826 
L 304.069903 7.731733 
L 304.127104 7.881353 
L 304.166876 7.857373 
L 304.286451 7.545106 
L 304.386482 9.572348 
L 304.470685 8.788957 
L 304.548119 9.515949 
L 304.646551 7.959046 
L 304.830769 9.96588 
L 304.888264 9.84805 
L 305.067721 12.252208 
L 305.127152 11.743028 
L 305.247217 11.469003 
L 305.3268 12.768173 
L 305.390897 12.157497 
L 305.488399 12.043557 
L 305.573096 10.537004 
L 305.786742 12.144274 
L 305.986046 9.703526 
L 306.328732 8.226175 
L 306.43225 9.965774 
L 306.526569 9.551119 
L 306.645885 9.829724 
L 306.705493 9.049573 
L 306.786576 10.179551 
L 306.895067 9.944694 
L 306.952545 9.471718 
L 307.031281 10.496899 
L 307.44687 7.731037 
L 307.546021 9.305238 
L 307.700185 8.813277 
L 307.70897 8.398587 
L 307.7861 9.549062 
L 307.865684 9.169414 
L 307.992542 9.23501 
L 308.028551 10.148019 
L 308.106245 10.103562 
L 308.185633 10.160543 
L 308.285844 11.052221 
L 308.348291 10.690508 
L 308.448098 11.364566 
L 308.525287 13.063242 
L 308.605753 12.619176 
L 308.68545 11.899099 
L 308.768672 12.800973 
L 309.02869 10.19124 
L 309.250322 11.044616 
L 309.265298 10.979446 
L 309.445575 8.046187 
L 309.545641 7.909171 
L 309.604839 7.63652 
L 309.704904 8.447869 
L 309.847669 11.58727 
L 310.004125 11.181526 
L 310.104647 9.339344 
L 310.53424 13.916794 
L 310.631438 13.755834 
L 310.752568 14.617121 
L 310.912107 16.470369 
L 311.070395 15.819982 
L 311.172756 13.218798 
L 311.331628 12.530292 
L 311.393505 12.99905 
L 311.718517 8.289209 
L 312.011805 10.757261 
L 312.191418 9.437901 
L 312.318745 9.883176 
L 312.47766 12.050662 
L 312.697073 10.303781 
L 313.250955 6.503922 
L 313.321316 6.731974 
L 313.401705 6.888213 
L 313.520088 7.379975 
L 313.678512 9.491247 
L 313.678665 13.036248 
L 313.746021 10.813463 
L 313.818661 10.614871 
L 313.918405 10.772747 
L 313.998781 10.504345 
L 314.239189 12.342044 
L 314.36832 12.624941 
L 314.482497 11.111554 
L 314.619457 11.169145 
L 314.660258 11.328656 
L 314.79899 11.363471 
L 314.879856 12.251476 
L 314.921714 11.638446 
L 315.006992 11.854891 
L 315.312378 10.489215 
L 315.439652 10.914604 
L 315.639453 9.844234 
L 315.959499 10.588553 
L 316.137167 12.331571 
L 316.228731 11.802778 
L 316.237442 12.141921 
L 316.29824 12.114602 
L 316.491082 12.969528 
L 316.558481 14.125651 
L 316.623671 14.484067 
L 316.718676 14.299024 
L 316.843851 13.357517 
L 316.918483 13.616332 
L 316.959787 13.860516 
L 317.041096 13.79757 
L 317.121102 14.145457 
L 317.197895 14.010462 
L 317.277113 13.6399 
L 317.417529 13.657116 
L 317.616871 15.496407 
L 317.697 14.024921 
L 317.836828 13.68507 
L 317.857191 14.1095 
L 317.939967 13.817326 
L 318.14311 13.504124 
L 318.43784 10.28207 
L 318.637709 11.524708 
L 318.977195 9.652791 
L 319.281609 11.30792 
L 319.42768 9.080251 
L 319.536163 8.767263 
L 319.596645 9.410995 
L 319.776645 9.216353 
L 319.975796 8.221299 
L 320.016599 8.323204 
L 320.096055 6.979495 
L 320.175395 7.818415 
L 320.356293 6.978138 
L 320.425735 6.749787 
L 320.595954 8.132643 
L 320.755602 7.410623 
L 321.238487 13.550209 
L 321.332009 13.407232 
L 321.515557 11.740623 
L 321.646141 12.308617 
L 321.835736 9.529263 
L 321.935522 9.17935 
L 322.075825 6.703096 
L 322.19638 6.937943 
L 322.396141 8.480635 
L 322.496575 8.003564 
L 322.616137 8.119926 
L 322.697786 7.748763 
L 322.740084 7.921392 
L 322.995835 9.296926 
L 323.097948 9.327046 
L 323.175235 9.55802 
L 323.315681 9.281869 
L 323.556157 11.515239 
L 323.675503 10.397646 
L 323.73515 11.398537 
L 323.8371 10.460013 
L 323.894895 10.643954 
L 323.995245 10.649733 
L 324.057763 9.921164 
L 324.154619 10.810187 
L 324.240027 10.197371 
L 324.356618 10.321713 
L 324.434503 9.570072 
L 324.514422 10.661364 
L 324.594709 10.343482 
L 324.654624 10.681231 
L 324.734469 10.32044 
L 324.812683 10.860975 
L 324.914786 10.457246 
L 325.054279 8.619827 
L 325.200788 8.741771 
L 325.297236 9.406776 
L 325.474247 8.352978 
L 325.724556 9.927671 
L 325.873737 11.16923 
L 325.973153 10.713082 
L 326.074221 10.135005 
L 326.133624 8.212736 
L 326.317423 9.861569 
L 326.37464 9.616057 
L 326.453246 9.696694 
L 326.753721 11.308544 
L 326.973702 13.287571 
L 327.033232 13.164924 
L 327.863711 8.500309 
L 328.045364 7.957921 
L 328.146872 8.294689 
L 328.19388 9.236808 
L 328.445564 7.398647 
L 328.526981 7.32219 
L 328.767353 8.157393 
L 328.846312 7.911688 
L 328.945555 6.676622 
L 329.007879 6.791134 
L 329.345218 9.116615 
L 329.425324 8.774334 
L 329.58563 9.786502 
L 329.766625 10.228144 
L 329.92768 10.069897 
L 330.09026 12.073391 
L 330.186272 11.645655 
L 330.265827 11.941985 
L 330.344962 11.14423 
L 330.424689 12.264122 
L 330.506112 11.919543 
L 330.605102 13.024351 
L 330.827119 11.190072 
L 330.925315 10.754528 
L 331.009537 12.016948 
L 331.196053 11.713753 
L 331.206037 11.788235 
L 331.246381 11.202626 
L 331.42769 11.529234 
L 331.587198 10.411316 
L 331.670755 9.935158 
L 331.750752 10.198236 
L 331.827145 9.262891 
L 331.90738 10.048062 
L 331.986793 9.662047 
L 332.15447 10.304387 
L 332.313913 9.707113 
L 332.487124 10.53991 
L 332.567319 10.130119 
L 332.587213 9.301424 
L 332.648204 10.464746 
L 332.824228 8.632226 
L 332.988102 6.979817 
L 333.168089 7.62271 
L 333.307329 8.07397 
L 333.567182 8.085898 
L 333.727739 8.413853 
L 333.866865 9.145683 
L 334.170738 5.938577 
L 334.28755 6.751526 
L 334.386585 6.229443 
L 334.48621 8.301086 
L 334.645894 7.275336 
L 334.709313 8.084535 
L 334.809269 7.726608 
L 334.967232 10.114508 
L 335.067501 9.682181 
L 335.287211 10.04813 
L 335.364869 11.814147 
L 335.465523 11.636477 
L 335.545771 11.135357 
L 335.626529 12.420462 
L 335.76434 12.368873 
L 335.805076 11.514571 
L 335.904109 11.602426 
L 335.968211 11.331045 
L 336.025216 10.407106 
L 336.157468 10.689743 
L 336.20479 10.011819 
L 336.405933 11.357763 
L 336.565175 11.034909 
L 336.645493 11.015643 
L 336.768164 10.658254 
L 336.923821 11.447531 
L 337.124385 9.632719 
L 337.208787 8.93761 
L 337.284508 9.027985 
L 337.364329 8.85844 
L 337.488033 9.961451 
L 337.687823 8.499885 
L 337.87185 9.980344 
L 338.028262 9.224341 
L 338.144898 9.670004 
L 338.323202 8.276255 
L 338.36948 8.952859 
L 338.453856 8.163041 
L 338.523823 8.935938 
L 338.643272 8.349177 
L 338.682908 7.519246 
L 338.944544 9.735942 
L 339.025092 8.370969 
L 339.143867 10.501599 
L 339.203112 9.612603 
L 339.423403 11.732865 
L 339.665055 9.749606 
L 339.765007 10.809208 
L 339.9219 10.026852 
L 340.082392 11.167068 
L 340.181617 11.060677 
L 340.247433 10.039378 
L 340.342102 10.797841 
L 340.422434 10.779537 
L 340.525029 10.883848 
L 340.782582 9.468774 
L 341.071859 11.021783 
L 341.268618 12.087236 
L 341.432965 11.941333 
L 341.577453 13.935595 
L 341.724315 13.698111 
L 341.743289 11.513609 
L 341.843755 12.404561 
L 341.905983 11.572641 
L 342.00233 11.739324 
L 342.122291 11.806265 
L 342.202372 12.068972 
L 342.486823 10.004721 
L 342.602199 10.480462 
L 342.902089 8.864211 
L 343.041495 9.898766 
L 343.083907 9.862744 
L 343.147966 9.761782 
L 343.421435 12.14789 
L 343.482031 11.361969 
L 343.822541 13.646431 
L 344.008592 13.192352 
L 344.222652 11.279186 
L 344.38353 12.571479 
L 344.483126 11.140414 
L 344.543631 11.56552 
L 344.723379 11.048428 
L 345.12159 15.110128 
L 345.244637 13.152783 
L 345.304506 13.504525 
L 345.465916 12.447941 
L 345.548539 12.592406 
L 345.711464 11.205804 
L 345.787576 9.672644 
L 345.887459 9.867728 
L 346.063468 11.272474 
L 346.187469 11.826485 
L 346.290654 11.687629 
L 346.329388 11.967135 
L 346.449275 13.502363 
L 346.566292 13.047733 
L 346.628613 14.423452 
L 346.788427 12.610183 
L 346.967692 11.616558 
L 347.088293 12.899835 
L 347.142402 12.432285 
L 347.274279 11.237534 
L 347.366805 12.024633 
L 347.534247 11.653876 
L 347.60717 12.845918 
L 347.73529 13.071711 
L 347.866607 14.376619 
L 348.036783 13.608557 
L 348.208235 12.725003 
L 348.360912 11.62752 
L 348.441404 11.075545 
L 348.536393 11.200857 
L 348.71823 9.836747 
L 348.779997 11.024675 
L 348.890963 10.858693 
L 349.177535 13.80309 
L 349.43713 12.06957 
L 349.516719 11.329526 
L 349.677275 12.261604 
L 349.756513 11.86879 
L 349.877564 12.129802 
L 349.936844 10.641826 
L 350.001327 10.781768 
L 350.17601 12.557768 
L 350.255721 12.214418 
L 350.383593 12.737942 
L 350.537712 10.554892 
L 350.757517 12.499838 
L 350.877481 12.270461 
L 350.949584 10.455127 
L 351.015859 10.547743 
L 351.097304 11.63932 
L 351.181596 10.364608 
L 351.277002 11.170642 
L 351.339442 11.096285 
L 351.51881 12.061135 
L 351.797934 11.473138 
L 351.837183 12.349669 
L 351.902659 11.310448 
L 351.957681 11.545875 
L 351.997285 12.617247 
L 352.107076 11.62797 
L 352.161304 12.090753 
L 352.319111 11.650875 
L 352.459655 10.706733 
L 352.565896 10.880229 
L 352.719725 10.633862 
L 352.759831 11.129906 
L 352.960614 10.031029 
L 353.038957 11.250554 
L 353.125336 10.985047 
L 353.143386 11.113183 
L 353.159171 12.289948 
L 353.242203 11.494932 
L 353.439725 12.229387 
L 353.499485 10.930574 
L 353.581428 12.400194 
L 353.638883 12.360154 
L 353.9138 9.581093 
L 354.005328 10.152281 
L 354.082547 9.415311 
L 354.480537 11.880336 
L 354.700363 14.454913 
L 354.71952 13.715937 
" clip-path="url(#p6b55149d92)" style="fill: none; stroke: #ff0000; stroke-opacity: 0.5; stroke-width: 2.1; stroke-linecap: square"/>
   </g>
   <g id="patch_3">
    <path d="M 30.123125 148.373975 
L 30.123125 1.206237 
" style="fill: none; stroke: #000000; stroke-width: 0.8; stroke-linejoin: miter; stroke-linecap: square"/>
   </g>
   <g id="patch_4">
    <path d="M 354.71952 148.373975 
L 354.71952 1.206237 
" style="fill: none; stroke: #000000; stroke-width: 0.8; stroke-linejoin: miter; stroke-linecap: square"/>
   </g>
   <g id="patch_5">
    <path d="M 30.123125 148.373975 
L 354.71952 148.373975 
" style="fill: none; stroke: #000000; stroke-width: 0.8; stroke-linejoin: miter; stroke-linecap: square"/>
   </g>
   <g id="patch_6">
    <path d="M 30.123125 1.206237 
L 354.71952 1.206237 
" style="fill: none; stroke: #000000; stroke-width: 0.8; stroke-linejoin: miter; stroke-linecap: square"/>
   </g>
   <g id="legend_1">
    <g id="patch_7">
     <path d="M 37.123125 143.373975 
L 110.891875 143.373975 
Q 112.891875 143.373975 112.891875 141.373975 
L 112.891875 113.017725 
Q 112.891875 111.017725 110.891875 111.017725 
L 37.123125 111.017725 
Q 35.123125 111.017725 35.123125 113.017725 
L 35.123125 141.373975 
Q 35.123125 143.373975 37.123125 143.373975 
z
" style="fill: #ffffff; opacity: 0.8; stroke: #cccccc; stroke-linejoin: miter"/>
    </g>
    <g id="line2d_31">
     <path d="M 39.123125 119.116162 
L 49.123125 119.116162 
L 59.123125 119.116162 
" style="fill: none; stroke: #0000ff; stroke-opacity: 0.5; stroke-width: 2.1; stroke-linecap: square"/>
    </g>
    <g id="text_17">
     <!-- RNEA -->
     <g transform="translate(67.123125 122.616162) scale(0.1 -0.1)">
      <defs>
       <path id="DejaVuSans-52" d="M 2841 2188 
Q 3044 2119 3236 1894 
Q 3428 1669 3622 1275 
L 4263 0 
L 3584 0 
L 2988 1197 
Q 2756 1666 2539 1819 
Q 2322 1972 1947 1972 
L 1259 1972 
L 1259 0 
L 628 0 
L 628 4666 
L 2053 4666 
Q 2853 4666 3247 4331 
Q 3641 3997 3641 3322 
Q 3641 2881 3436 2590 
Q 3231 2300 2841 2188 
z
M 1259 4147 
L 1259 2491 
L 2053 2491 
Q 2509 2491 2742 2702 
Q 2975 2913 2975 3322 
Q 2975 3731 2742 3939 
Q 2509 4147 2053 4147 
L 1259 4147 
z
" transform="scale(0.015625)"/>
       <path id="DejaVuSans-45" d="M 628 4666 
L 3578 4666 
L 3578 4134 
L 1259 4134 
L 1259 2753 
L 3481 2753 
L 3481 2222 
L 1259 2222 
L 1259 531 
L 3634 531 
L 3634 0 
L 628 0 
L 628 4666 
z
" transform="scale(0.015625)"/>
       <path id="DejaVuSans-41" d="M 2188 4044 
L 1331 1722 
L 3047 1722 
L 2188 4044 
z
M 1831 4666 
L 2547 4666 
L 4325 0 
L 3669 0 
L 3244 1197 
L 1141 1197 
L 716 0 
L 50 0 
L 1831 4666 
z
" transform="scale(0.015625)"/>
      </defs>
      <use xlink:href="#DejaVuSans-52"/>
      <use xlink:href="#DejaVuSans-4e" x="69.482422"/>
      <use xlink:href="#DejaVuSans-45" x="144.287109"/>
      <use xlink:href="#DejaVuSans-41" x="207.470703"/>
     </g>
    </g>
    <g id="line2d_32">
     <path d="M 39.123125 133.794287 
L 49.123125 133.794287 
L 59.123125 133.794287 
" style="fill: none; stroke: #ff0000; stroke-opacity: 0.5; stroke-width: 2.1; stroke-linecap: square"/>
    </g>
    <g id="text_18">
     <!-- BURNEA -->
     <g transform="translate(67.123125 137.294287) scale(0.1 -0.1)">
      <defs>
       <path id="DejaVuSans-42" d="M 1259 2228 
L 1259 519 
L 2272 519 
Q 2781 519 3026 730 
Q 3272 941 3272 1375 
Q 3272 1813 3026 2020 
Q 2781 2228 2272 2228 
L 1259 2228 
z
M 1259 4147 
L 1259 2741 
L 2194 2741 
Q 2656 2741 2882 2914 
Q 3109 3088 3109 3444 
Q 3109 3797 2882 3972 
Q 2656 4147 2194 4147 
L 1259 4147 
z
M 628 4666 
L 2241 4666 
Q 2963 4666 3353 4366 
Q 3744 4066 3744 3513 
Q 3744 3084 3544 2831 
Q 3344 2578 2956 2516 
Q 3422 2416 3680 2098 
Q 3938 1781 3938 1306 
Q 3938 681 3513 340 
Q 3088 0 2303 0 
L 628 0 
L 628 4666 
z
" transform="scale(0.015625)"/>
       <path id="DejaVuSans-55" d="M 556 4666 
L 1191 4666 
L 1191 1831 
Q 1191 1081 1462 751 
Q 1734 422 2344 422 
Q 2950 422 3222 751 
Q 3494 1081 3494 1831 
L 3494 4666 
L 4128 4666 
L 4128 1753 
Q 4128 841 3676 375 
Q 3225 -91 2344 -91 
Q 1459 -91 1007 375 
Q 556 841 556 1753 
L 556 4666 
z
" transform="scale(0.015625)"/>
      </defs>
      <use xlink:href="#DejaVuSans-42"/>
      <use xlink:href="#DejaVuSans-55" x="68.603516"/>
      <use xlink:href="#DejaVuSans-52" x="141.796875"/>
      <use xlink:href="#DejaVuSans-4e" x="211.279297"/>
      <use xlink:href="#DejaVuSans-45" x="286.083984"/>
      <use xlink:href="#DejaVuSans-41" x="349.267578"/>
     </g>
    </g>
   </g>
  </g>
 </g>
 <defs>
  <clipPath id="p6b55149d92">
   <rect x="30.123125" y="1.206237" width="324.596395" height="147.167738"/>
  </clipPath>
 </defs>
</svg>
