<?xml version="1.0" encoding="utf-8" standalone="no"?>
<!DOCTYPE svg PUBLIC "-//W3C//DTD SVG 1.1//EN"
  "http://www.w3.org/Graphics/SVG/1.1/DTD/svg11.dtd">
<svg xmlns:xlink="http://www.w3.org/1999/xlink" width="588.843125pt" height="304.99625pt" viewBox="0 0 588.843125 304.99625" xmlns="http://www.w3.org/2000/svg" version="1.1">
 <metadata>
  <rdf:RDF xmlns:dc="http://purl.org/dc/elements/1.1/" xmlns:cc="http://creativecommons.org/ns#" xmlns:rdf="http://www.w3.org/1999/02/22-rdf-syntax-ns#">
   <cc:Work>
    <dc:type rdf:resource="http://purl.org/dc/dcmitype/StillImage"/>
    <dc:date>2023-09-05T22:09:11.618786</dc:date>
    <dc:format>image/svg+xml</dc:format>
    <dc:creator>
     <cc:Agent>
      <dc:title>Matplotlib v3.7.2, https://matplotlib.org/</dc:title>
     </cc:Agent>
    </dc:creator>
   </cc:Work>
  </rdf:RDF>
 </metadata>
 <defs>
  <style type="text/css">*{stroke-linejoin: round; stroke-linecap: butt}</style>
 </defs>
 <g id="figure_1">
  <g id="patch_1">
   <path d="M 0 304.99625 
L 588.843125 304.99625 
L 588.843125 0 
L 0 0 
L 0 304.99625 
z
" style="fill: none"/>
  </g>
  <g id="axes_1">
   <g id="patch_2">
    <path d="M 30.123125 277.92 
L 588.123125 277.92 
L 588.123125 0.72 
L 30.123125 0.72 
L 30.123125 277.92 
z
" style="fill: none"/>
   </g>
   <g id="matplotlib.axis_1">
    <g id="xtick_1">
     <g id="line2d_1">
      <path d="M 30.123125 277.92 
L 30.123125 0.72 
" clip-path="url(#pbeae998529)" style="fill: none; stroke-dasharray: 0.8,1.32; stroke-dashoffset: 0; stroke: #000000; stroke-opacity: 0.5; stroke-width: 0.8"/>
     </g>
     <g id="line2d_2">
      <defs>
       <path id="m264ee82215" d="M 0 0 
L 0 3.5 
" style="stroke: #000000; stroke-width: 0.8"/>
      </defs>
      <g>
       <use xlink:href="#m264ee82215" x="30.123125" y="277.92" style="stroke: #000000; stroke-width: 0.8"/>
      </g>
     </g>
     <g id="text_1">
      <!-- 0 -->
      <g transform="translate(26.941875 292.518438) scale(0.1 -0.1)">
       <defs>
        <path id="DejaVuSans-30" d="M 2034 4250 
Q 1547 4250 1301 3770 
Q 1056 3291 1056 2328 
Q 1056 1369 1301 889 
Q 1547 409 2034 409 
Q 2525 409 2770 889 
Q 3016 1369 3016 2328 
Q 3016 3291 2770 3770 
Q 2525 4250 2034 4250 
z
M 2034 4750 
Q 2819 4750 3233 4129 
Q 3647 3509 3647 2328 
Q 3647 1150 3233 529 
Q 2819 -91 2034 -91 
Q 1250 -91 836 529 
Q 422 1150 422 2328 
Q 422 3509 836 4129 
Q 1250 4750 2034 4750 
z
" transform="scale(0.015625)"/>
       </defs>
       <use xlink:href="#DejaVuSans-30"/>
      </g>
     </g>
    </g>
    <g id="xtick_2">
     <g id="line2d_3">
      <path d="M 115.352926 277.92 
L 115.352926 0.72 
" clip-path="url(#pbeae998529)" style="fill: none; stroke-dasharray: 0.8,1.32; stroke-dashoffset: 0; stroke: #000000; stroke-opacity: 0.5; stroke-width: 0.8"/>
     </g>
     <g id="line2d_4">
      <g>
       <use xlink:href="#m264ee82215" x="115.352926" y="277.92" style="stroke: #000000; stroke-width: 0.8"/>
      </g>
     </g>
     <g id="text_2">
      <!-- 5 -->
      <g transform="translate(112.171676 292.518438) scale(0.1 -0.1)">
       <defs>
        <path id="DejaVuSans-35" d="M 691 4666 
L 3169 4666 
L 3169 4134 
L 1269 4134 
L 1269 2991 
Q 1406 3038 1543 3061 
Q 1681 3084 1819 3084 
Q 2600 3084 3056 2656 
Q 3513 2228 3513 1497 
Q 3513 744 3044 326 
Q 2575 -91 1722 -91 
Q 1428 -91 1123 -41 
Q 819 9 494 109 
L 494 744 
Q 775 591 1075 516 
Q 1375 441 1709 441 
Q 2250 441 2565 725 
Q 2881 1009 2881 1497 
Q 2881 1984 2565 2268 
Q 2250 2553 1709 2553 
Q 1456 2553 1204 2497 
Q 953 2441 691 2322 
L 691 4666 
z
" transform="scale(0.015625)"/>
       </defs>
       <use xlink:href="#DejaVuSans-35"/>
      </g>
     </g>
    </g>
    <g id="xtick_3">
     <g id="line2d_5">
      <path d="M 200.582727 277.92 
L 200.582727 0.72 
" clip-path="url(#pbeae998529)" style="fill: none; stroke-dasharray: 0.8,1.32; stroke-dashoffset: 0; stroke: #000000; stroke-opacity: 0.5; stroke-width: 0.8"/>
     </g>
     <g id="line2d_6">
      <g>
       <use xlink:href="#m264ee82215" x="200.582727" y="277.92" style="stroke: #000000; stroke-width: 0.8"/>
      </g>
     </g>
     <g id="text_3">
      <!-- 10 -->
      <g transform="translate(194.220227 292.518438) scale(0.1 -0.1)">
       <defs>
        <path id="DejaVuSans-31" d="M 794 531 
L 1825 531 
L 1825 4091 
L 703 3866 
L 703 4441 
L 1819 4666 
L 2450 4666 
L 2450 531 
L 3481 531 
L 3481 0 
L 794 0 
L 794 531 
z
" transform="scale(0.015625)"/>
       </defs>
       <use xlink:href="#DejaVuSans-31"/>
       <use xlink:href="#DejaVuSans-30" x="63.623047"/>
      </g>
     </g>
    </g>
    <g id="xtick_4">
     <g id="line2d_7">
      <path d="M 285.812528 277.92 
L 285.812528 0.72 
" clip-path="url(#pbeae998529)" style="fill: none; stroke-dasharray: 0.8,1.32; stroke-dashoffset: 0; stroke: #000000; stroke-opacity: 0.5; stroke-width: 0.8"/>
     </g>
     <g id="line2d_8">
      <g>
       <use xlink:href="#m264ee82215" x="285.812528" y="277.92" style="stroke: #000000; stroke-width: 0.8"/>
      </g>
     </g>
     <g id="text_4">
      <!-- 15 -->
      <g transform="translate(279.450028 292.518438) scale(0.1 -0.1)">
       <use xlink:href="#DejaVuSans-31"/>
       <use xlink:href="#DejaVuSans-35" x="63.623047"/>
      </g>
     </g>
    </g>
    <g id="xtick_5">
     <g id="line2d_9">
      <path d="M 371.042329 277.92 
L 371.042329 0.72 
" clip-path="url(#pbeae998529)" style="fill: none; stroke-dasharray: 0.8,1.32; stroke-dashoffset: 0; stroke: #000000; stroke-opacity: 0.5; stroke-width: 0.8"/>
     </g>
     <g id="line2d_10">
      <g>
       <use xlink:href="#m264ee82215" x="371.042329" y="277.92" style="stroke: #000000; stroke-width: 0.8"/>
      </g>
     </g>
     <g id="text_5">
      <!-- 20 -->
      <g transform="translate(364.679829 292.518438) scale(0.1 -0.1)">
       <defs>
        <path id="DejaVuSans-32" d="M 1228 531 
L 3431 531 
L 3431 0 
L 469 0 
L 469 531 
Q 828 903 1448 1529 
Q 2069 2156 2228 2338 
Q 2531 2678 2651 2914 
Q 2772 3150 2772 3378 
Q 2772 3750 2511 3984 
Q 2250 4219 1831 4219 
Q 1534 4219 1204 4116 
Q 875 4013 500 3803 
L 500 4441 
Q 881 4594 1212 4672 
Q 1544 4750 1819 4750 
Q 2544 4750 2975 4387 
Q 3406 4025 3406 3419 
Q 3406 3131 3298 2873 
Q 3191 2616 2906 2266 
Q 2828 2175 2409 1742 
Q 1991 1309 1228 531 
z
" transform="scale(0.015625)"/>
       </defs>
       <use xlink:href="#DejaVuSans-32"/>
       <use xlink:href="#DejaVuSans-30" x="63.623047"/>
      </g>
     </g>
    </g>
    <g id="xtick_6">
     <g id="line2d_11">
      <path d="M 456.27213 277.92 
L 456.27213 0.72 
" clip-path="url(#pbeae998529)" style="fill: none; stroke-dasharray: 0.8,1.32; stroke-dashoffset: 0; stroke: #000000; stroke-opacity: 0.5; stroke-width: 0.8"/>
     </g>
     <g id="line2d_12">
      <g>
       <use xlink:href="#m264ee82215" x="456.27213" y="277.92" style="stroke: #000000; stroke-width: 0.8"/>
      </g>
     </g>
     <g id="text_6">
      <!-- 25 -->
      <g transform="translate(449.90963 292.518438) scale(0.1 -0.1)">
       <use xlink:href="#DejaVuSans-32"/>
       <use xlink:href="#DejaVuSans-35" x="63.623047"/>
      </g>
     </g>
    </g>
    <g id="xtick_7">
     <g id="line2d_13">
      <path d="M 541.501931 277.92 
L 541.501931 0.72 
" clip-path="url(#pbeae998529)" style="fill: none; stroke-dasharray: 0.8,1.32; stroke-dashoffset: 0; stroke: #000000; stroke-opacity: 0.5; stroke-width: 0.8"/>
     </g>
     <g id="line2d_14">
      <g>
       <use xlink:href="#m264ee82215" x="541.501931" y="277.92" style="stroke: #000000; stroke-width: 0.8"/>
      </g>
     </g>
     <g id="text_7">
      <!-- 30 -->
      <g transform="translate(535.139431 292.518438) scale(0.1 -0.1)">
       <defs>
        <path id="DejaVuSans-33" d="M 2597 2516 
Q 3050 2419 3304 2112 
Q 3559 1806 3559 1356 
Q 3559 666 3084 287 
Q 2609 -91 1734 -91 
Q 1441 -91 1130 -33 
Q 819 25 488 141 
L 488 750 
Q 750 597 1062 519 
Q 1375 441 1716 441 
Q 2309 441 2620 675 
Q 2931 909 2931 1356 
Q 2931 1769 2642 2001 
Q 2353 2234 1838 2234 
L 1294 2234 
L 1294 2753 
L 1863 2753 
Q 2328 2753 2575 2939 
Q 2822 3125 2822 3475 
Q 2822 3834 2567 4026 
Q 2313 4219 1838 4219 
Q 1578 4219 1281 4162 
Q 984 4106 628 3988 
L 628 4550 
Q 988 4650 1302 4700 
Q 1616 4750 1894 4750 
Q 2613 4750 3031 4423 
Q 3450 4097 3450 3541 
Q 3450 3153 3228 2886 
Q 3006 2619 2597 2516 
z
" transform="scale(0.015625)"/>
       </defs>
       <use xlink:href="#DejaVuSans-33"/>
       <use xlink:href="#DejaVuSans-30" x="63.623047"/>
      </g>
     </g>
    </g>
    <g id="text_8">
     <!-- Zeit [s] -->
     <g transform="translate(291.177031 302.196563) scale(0.1 -0.1)">
      <defs>
       <path id="DejaVuSans-5a" d="M 359 4666 
L 4025 4666 
L 4025 4184 
L 1075 531 
L 4097 531 
L 4097 0 
L 288 0 
L 288 481 
L 3238 4134 
L 359 4134 
L 359 4666 
z
" transform="scale(0.015625)"/>
       <path id="DejaVuSans-65" d="M 3597 1894 
L 3597 1613 
L 953 1613 
Q 991 1019 1311 708 
Q 1631 397 2203 397 
Q 2534 397 2845 478 
Q 3156 559 3463 722 
L 3463 178 
Q 3153 47 2828 -22 
Q 2503 -91 2169 -91 
Q 1331 -91 842 396 
Q 353 884 353 1716 
Q 353 2575 817 3079 
Q 1281 3584 2069 3584 
Q 2775 3584 3186 3129 
Q 3597 2675 3597 1894 
z
M 3022 2063 
Q 3016 2534 2758 2815 
Q 2500 3097 2075 3097 
Q 1594 3097 1305 2825 
Q 1016 2553 972 2059 
L 3022 2063 
z
" transform="scale(0.015625)"/>
       <path id="DejaVuSans-69" d="M 603 3500 
L 1178 3500 
L 1178 0 
L 603 0 
L 603 3500 
z
M 603 4863 
L 1178 4863 
L 1178 4134 
L 603 4134 
L 603 4863 
z
" transform="scale(0.015625)"/>
       <path id="DejaVuSans-74" d="M 1172 4494 
L 1172 3500 
L 2356 3500 
L 2356 3053 
L 1172 3053 
L 1172 1153 
Q 1172 725 1289 603 
Q 1406 481 1766 481 
L 2356 481 
L 2356 0 
L 1766 0 
Q 1100 0 847 248 
Q 594 497 594 1153 
L 594 3053 
L 172 3053 
L 172 3500 
L 594 3500 
L 594 4494 
L 1172 4494 
z
" transform="scale(0.015625)"/>
       <path id="DejaVuSans-20" transform="scale(0.015625)"/>
       <path id="DejaVuSans-5b" d="M 550 4863 
L 1875 4863 
L 1875 4416 
L 1125 4416 
L 1125 -397 
L 1875 -397 
L 1875 -844 
L 550 -844 
L 550 4863 
z
" transform="scale(0.015625)"/>
       <path id="DejaVuSans-73" d="M 2834 3397 
L 2834 2853 
Q 2591 2978 2328 3040 
Q 2066 3103 1784 3103 
Q 1356 3103 1142 2972 
Q 928 2841 928 2578 
Q 928 2378 1081 2264 
Q 1234 2150 1697 2047 
L 1894 2003 
Q 2506 1872 2764 1633 
Q 3022 1394 3022 966 
Q 3022 478 2636 193 
Q 2250 -91 1575 -91 
Q 1294 -91 989 -36 
Q 684 19 347 128 
L 347 722 
Q 666 556 975 473 
Q 1284 391 1588 391 
Q 1994 391 2212 530 
Q 2431 669 2431 922 
Q 2431 1156 2273 1281 
Q 2116 1406 1581 1522 
L 1381 1569 
Q 847 1681 609 1914 
Q 372 2147 372 2553 
Q 372 3047 722 3315 
Q 1072 3584 1716 3584 
Q 2034 3584 2315 3537 
Q 2597 3491 2834 3397 
z
" transform="scale(0.015625)"/>
       <path id="DejaVuSans-5d" d="M 1947 4863 
L 1947 -844 
L 622 -844 
L 622 -397 
L 1369 -397 
L 1369 4416 
L 622 4416 
L 622 4863 
L 1947 4863 
z
" transform="scale(0.015625)"/>
      </defs>
      <use xlink:href="#DejaVuSans-5a"/>
      <use xlink:href="#DejaVuSans-65" x="68.505859"/>
      <use xlink:href="#DejaVuSans-69" x="130.029297"/>
      <use xlink:href="#DejaVuSans-74" x="157.8125"/>
      <use xlink:href="#DejaVuSans-20" x="197.021484"/>
      <use xlink:href="#DejaVuSans-5b" x="228.808594"/>
      <use xlink:href="#DejaVuSans-73" x="267.822266"/>
      <use xlink:href="#DejaVuSans-5d" x="319.921875"/>
     </g>
    </g>
   </g>
   <g id="matplotlib.axis_2">
    <g id="ytick_1">
     <g id="line2d_15">
      <path d="M 30.123125 262.597079 
L 588.123125 262.597079 
" clip-path="url(#pbeae998529)" style="fill: none; stroke-dasharray: 0.8,1.32; stroke-dashoffset: 0; stroke: #000000; stroke-opacity: 0.5; stroke-width: 0.8"/>
     </g>
     <g id="line2d_16">
      <defs>
       <path id="m1b1c060b52" d="M 0 0 
L -3.5 0 
" style="stroke: #000000; stroke-width: 0.8"/>
      </defs>
      <g>
       <use xlink:href="#m1b1c060b52" x="30.123125" y="262.597079" style="stroke: #000000; stroke-width: 0.8"/>
      </g>
     </g>
     <g id="text_9">
      <!-- 0 -->
      <g transform="translate(16.760625 266.396297) scale(0.1 -0.1)">
       <use xlink:href="#DejaVuSans-30"/>
      </g>
     </g>
    </g>
    <g id="ytick_2">
     <g id="line2d_17">
      <path d="M 30.123125 215.161385 
L 588.123125 215.161385 
" clip-path="url(#pbeae998529)" style="fill: none; stroke-dasharray: 0.8,1.32; stroke-dashoffset: 0; stroke: #000000; stroke-opacity: 0.5; stroke-width: 0.8"/>
     </g>
     <g id="line2d_18">
      <g>
       <use xlink:href="#m1b1c060b52" x="30.123125" y="215.161385" style="stroke: #000000; stroke-width: 0.8"/>
      </g>
     </g>
     <g id="text_10">
      <!-- 5 -->
      <g transform="translate(16.760625 218.960603) scale(0.1 -0.1)">
       <use xlink:href="#DejaVuSans-35"/>
      </g>
     </g>
    </g>
    <g id="ytick_3">
     <g id="line2d_19">
      <path d="M 30.123125 167.72569 
L 588.123125 167.72569 
" clip-path="url(#pbeae998529)" style="fill: none; stroke-dasharray: 0.8,1.32; stroke-dashoffset: 0; stroke: #000000; stroke-opacity: 0.5; stroke-width: 0.8"/>
     </g>
     <g id="line2d_20">
      <g>
       <use xlink:href="#m1b1c060b52" x="30.123125" y="167.72569" style="stroke: #000000; stroke-width: 0.8"/>
      </g>
     </g>
     <g id="text_11">
      <!-- 10 -->
      <g transform="translate(10.398125 171.524909) scale(0.1 -0.1)">
       <use xlink:href="#DejaVuSans-31"/>
       <use xlink:href="#DejaVuSans-30" x="63.623047"/>
      </g>
     </g>
    </g>
    <g id="ytick_4">
     <g id="line2d_21">
      <path d="M 30.123125 120.289996 
L 588.123125 120.289996 
" clip-path="url(#pbeae998529)" style="fill: none; stroke-dasharray: 0.8,1.32; stroke-dashoffset: 0; stroke: #000000; stroke-opacity: 0.5; stroke-width: 0.8"/>
     </g>
     <g id="line2d_22">
      <g>
       <use xlink:href="#m1b1c060b52" x="30.123125" y="120.289996" style="stroke: #000000; stroke-width: 0.8"/>
      </g>
     </g>
     <g id="text_12">
      <!-- 15 -->
      <g transform="translate(10.398125 124.089215) scale(0.1 -0.1)">
       <use xlink:href="#DejaVuSans-31"/>
       <use xlink:href="#DejaVuSans-35" x="63.623047"/>
      </g>
     </g>
    </g>
    <g id="ytick_5">
     <g id="line2d_23">
      <path d="M 30.123125 72.854302 
L 588.123125 72.854302 
" clip-path="url(#pbeae998529)" style="fill: none; stroke-dasharray: 0.8,1.32; stroke-dashoffset: 0; stroke: #000000; stroke-opacity: 0.5; stroke-width: 0.8"/>
     </g>
     <g id="line2d_24">
      <g>
       <use xlink:href="#m1b1c060b52" x="30.123125" y="72.854302" style="stroke: #000000; stroke-width: 0.8"/>
      </g>
     </g>
     <g id="text_13">
      <!-- 20 -->
      <g transform="translate(10.398125 76.653521) scale(0.1 -0.1)">
       <use xlink:href="#DejaVuSans-32"/>
       <use xlink:href="#DejaVuSans-30" x="63.623047"/>
      </g>
     </g>
    </g>
    <g id="ytick_6">
     <g id="line2d_25">
      <path d="M 30.123125 25.418608 
L 588.123125 25.418608 
" clip-path="url(#pbeae998529)" style="fill: none; stroke-dasharray: 0.8,1.32; stroke-dashoffset: 0; stroke: #000000; stroke-opacity: 0.5; stroke-width: 0.8"/>
     </g>
     <g id="line2d_26">
      <g>
       <use xlink:href="#m1b1c060b52" x="30.123125" y="25.418608" style="stroke: #000000; stroke-width: 0.8"/>
      </g>
     </g>
     <g id="text_14">
      <!-- 25 -->
      <g transform="translate(10.398125 29.217827) scale(0.1 -0.1)">
       <use xlink:href="#DejaVuSans-32"/>
       <use xlink:href="#DejaVuSans-35" x="63.623047"/>
      </g>
     </g>
    </g>
    <g id="text_15">
     <!-- Kraft [N] -->
     <g transform="translate(8.318437 160.5825) rotate(-90) scale(0.1 -0.1)">
      <defs>
       <path id="DejaVuSans-4b" d="M 628 4666 
L 1259 4666 
L 1259 2694 
L 3353 4666 
L 4166 4666 
L 1850 2491 
L 4331 0 
L 3500 0 
L 1259 2247 
L 1259 0 
L 628 0 
L 628 4666 
z
" transform="scale(0.015625)"/>
       <path id="DejaVuSans-72" d="M 2631 2963 
Q 2534 3019 2420 3045 
Q 2306 3072 2169 3072 
Q 1681 3072 1420 2755 
Q 1159 2438 1159 1844 
L 1159 0 
L 581 0 
L 581 3500 
L 1159 3500 
L 1159 2956 
Q 1341 3275 1631 3429 
Q 1922 3584 2338 3584 
Q 2397 3584 2469 3576 
Q 2541 3569 2628 3553 
L 2631 2963 
z
" transform="scale(0.015625)"/>
       <path id="DejaVuSans-61" d="M 2194 1759 
Q 1497 1759 1228 1600 
Q 959 1441 959 1056 
Q 959 750 1161 570 
Q 1363 391 1709 391 
Q 2188 391 2477 730 
Q 2766 1069 2766 1631 
L 2766 1759 
L 2194 1759 
z
M 3341 1997 
L 3341 0 
L 2766 0 
L 2766 531 
Q 2569 213 2275 61 
Q 1981 -91 1556 -91 
Q 1019 -91 701 211 
Q 384 513 384 1019 
Q 384 1609 779 1909 
Q 1175 2209 1959 2209 
L 2766 2209 
L 2766 2266 
Q 2766 2663 2505 2880 
Q 2244 3097 1772 3097 
Q 1472 3097 1187 3025 
Q 903 2953 641 2809 
L 641 3341 
Q 956 3463 1253 3523 
Q 1550 3584 1831 3584 
Q 2591 3584 2966 3190 
Q 3341 2797 3341 1997 
z
" transform="scale(0.015625)"/>
       <path id="DejaVuSans-66" d="M 2375 4863 
L 2375 4384 
L 1825 4384 
Q 1516 4384 1395 4259 
Q 1275 4134 1275 3809 
L 1275 3500 
L 2222 3500 
L 2222 3053 
L 1275 3053 
L 1275 0 
L 697 0 
L 697 3053 
L 147 3053 
L 147 3500 
L 697 3500 
L 697 3744 
Q 697 4328 969 4595 
Q 1241 4863 1831 4863 
L 2375 4863 
z
" transform="scale(0.015625)"/>
       <path id="DejaVuSans-4e" d="M 628 4666 
L 1478 4666 
L 3547 763 
L 3547 4666 
L 4159 4666 
L 4159 0 
L 3309 0 
L 1241 3903 
L 1241 0 
L 628 0 
L 628 4666 
z
" transform="scale(0.015625)"/>
      </defs>
      <use xlink:href="#DejaVuSans-4b"/>
      <use xlink:href="#DejaVuSans-72" x="65.576172"/>
      <use xlink:href="#DejaVuSans-61" x="106.689453"/>
      <use xlink:href="#DejaVuSans-66" x="167.96875"/>
      <use xlink:href="#DejaVuSans-74" x="201.423828"/>
      <use xlink:href="#DejaVuSans-20" x="240.632812"/>
      <use xlink:href="#DejaVuSans-5b" x="272.419922"/>
      <use xlink:href="#DejaVuSans-4e" x="311.433594"/>
      <use xlink:href="#DejaVuSans-5d" x="386.238281"/>
     </g>
    </g>
   </g>
   <g id="line2d_27">
    <path d="M 30.123125 0.720002 
L 588.123125 0.720002 
L 588.123125 0.720002 
" clip-path="url(#pbeae998529)" style="fill: none; stroke: #0000ff; stroke-opacity: 0.7; stroke-width: 1.5; stroke-linecap: square"/>
   </g>
   <g id="line2d_28">
    <path d="M 30.123125 260.219879 
L 30.537824 267.876485 
L 30.719783 266.836911 
L 30.750022 262.354622 
L 30.851714 264.539182 
L 30.99341 264.134288 
L 31.092902 257.015114 
L 31.364942 259.633444 
L 31.538375 258.724699 
L 31.686981 260.593254 
L 31.845275 255.642827 
L 31.947897 256.034043 
L 32.222964 260.21833 
L 32.361285 257.930745 
L 32.567642 259.778473 
L 32.807591 256.199125 
L 32.944135 259.473889 
L 33.116304 258.594011 
L 33.356468 260.937012 
L 33.698694 253.996306 
L 34.04245 257.035725 
L 34.252879 259.862011 
L 34.387384 259.191029 
L 34.525338 261.836179 
L 34.765553 260.558611 
L 34.80502 257.964707 
L 35.494451 264.119408 
L 35.932844 260.348578 
L 36.070743 262.60784 
L 36.208493 261.815408 
L 36.485146 268.896597 
L 36.623149 267.948345 
L 36.770019 264.158685 
L 36.913753 264.618708 
L 37.072593 267.635678 
L 37.18253 264.956691 
L 37.348399 264.340699 
L 37.485518 263.390082 
L 37.623414 263.91863 
L 37.911555 260.24571 
L 38.044365 263.712839 
L 38.38186 261.350048 
L 38.483763 259.453423 
L 38.619806 260.331426 
L 38.757647 257.768212 
L 38.893264 258.22461 
L 39.180604 264.463575 
L 39.482628 261.004096 
L 39.620094 261.903413 
L 39.895269 255.070664 
L 40.033524 255.017979 
L 40.308404 259.954511 
L 40.591053 258.147781 
L 40.756145 258.405867 
L 41.032125 253.129904 
L 41.168796 254.339137 
L 41.30729 257.589416 
L 41.464729 258.219567 
L 41.58767 257.12382 
L 41.752262 258.487993 
L 41.890058 258.420717 
L 42.191586 255.423986 
L 42.304901 256.999194 
L 42.444528 256.1416 
L 42.579611 257.088448 
L 42.854533 260.739131 
L 43.025188 258.926235 
L 43.301904 252.552421 
L 43.436499 253.631292 
L 43.861162 260.817779 
L 44.027198 262.19391 
L 44.16006 260.084042 
L 44.440606 263.74478 
L 44.577141 262.365907 
L 44.713934 262.17302 
L 44.988783 259.889918 
L 45.195161 256.773768 
L 45.33286 258.693292 
L 45.504043 258.619122 
L 45.710513 263.062029 
L 45.950678 258.904854 
L 46.262348 267.49815 
L 46.430296 273.99141 
L 46.842901 265.724304 
L 46.984876 259.730135 
L 47.159923 261.685922 
L 47.266415 264.191607 
L 47.409444 263.815266 
L 47.709595 262.066055 
L 47.844609 258.744571 
L 48.123155 258.391087 
L 48.257937 260.070117 
L 48.40694 259.915797 
L 48.429496 261.032824 
L 48.575188 261.951545 
L 48.715549 261.503329 
L 48.866288 262.529785 
L 48.888383 262.308393 
L 48.994737 262.595262 
L 49.161177 264.794783 
L 49.408427 263.651393 
L 49.720982 258.397982 
L 49.837535 259.8136 
L 49.978059 259.809839 
L 50.162706 260.38247 
L 50.457122 264.124662 
L 50.558865 258.143789 
L 50.751952 255.01035 
L 50.772777 254.375561 
L 50.897455 254.640379 
L 50.898439 256.781091 
L 51.050115 258.464713 
L 51.289662 262.626725 
L 51.429123 263.561297 
L 51.600023 262.817105 
L 51.87453 258.150129 
L 52.183946 264.022482 
L 52.287083 265.240043 
L 52.390397 261.389648 
L 52.565636 260.858568 
L 52.700345 259.796395 
L 52.803819 261.701804 
L 53.123746 263.937802 
L 53.317887 262.413829 
L 53.492455 262.692913 
L 53.664805 257.397828 
L 53.99213 265.309206 
L 54.109425 264.729106 
L 54.392561 260.661042 
L 54.570693 259.185466 
L 54.693181 260.935286 
L 54.797636 260.212074 
L 55.17311 269.062611 
L 55.275754 269.610562 
L 55.794279 267.276815 
L 55.876941 264.204976 
L 56.0663 263.547343 
L 56.203283 265.001237 
L 56.37631 262.459749 
L 56.651817 255.970573 
L 56.78857 251.161417 
L 56.959463 252.242099 
L 57.311748 258.525639 
L 57.371228 261.91703 
L 57.509548 262.053307 
L 57.646724 261.190118 
L 57.818762 262.314722 
L 58.230939 267.992903 
L 58.367462 267.37175 
L 59.020013 257.246789 
L 59.088201 262.93431 
L 59.204823 262.790149 
L 59.362176 260.064717 
L 59.637813 265.137502 
L 59.835255 264.355477 
L 60.084615 269.093938 
L 60.264012 271.160229 
L 60.361575 269.959705 
L 60.498994 264.473728 
L 60.659312 264.743721 
L 60.774153 268.549553 
L 61.013731 267.349603 
L 61.116428 267.375805 
L 61.22054 268.057134 
L 61.494184 263.838104 
L 61.976536 269.468107 
L 62.080753 268.362803 
L 62.217654 263.75534 
L 62.354883 264.662609 
L 62.560704 264.515737 
L 62.66572 266.184175 
L 62.869987 266.487797 
L 63.179455 265.188055 
L 63.282381 265.42924 
L 63.386182 265.266999 
L 63.58332 264.254355 
L 63.765095 265.46159 
L 63.937518 265.568294 
L 64.07406 267.939466 
L 64.35685 269.006677 
L 64.666273 263.750875 
L 64.787791 266.105071 
L 64.931328 266.691969 
L 65.173726 266.149053 
L 65.286549 265.16802 
L 65.363916 266.919336 
L 65.364063 264.978351 
L 65.657603 266.590608 
L 65.902996 266.806874 
L 65.967094 265.950683 
L 66.003365 267.94231 
L 66.138233 267.513285 
L 66.298331 264.611331 
L 66.331476 265.524972 
L 66.469263 264.026421 
L 66.63332 265.870881 
L 66.79112 265.776843 
L 66.993787 264.255517 
L 67.191305 264.867786 
L 67.334925 264.310104 
L 67.470558 266.071665 
L 67.608329 266.152471 
L 67.813147 262.875369 
L 67.882149 268.565511 
L 68.020509 267.314336 
L 68.466762 251.711722 
L 68.878619 260.253444 
L 69.084444 259.024551 
L 69.194584 264.541287 
L 69.643162 259.790882 
L 69.885454 261.405564 
L 70.056598 265.00423 
L 70.156064 264.968775 
L 70.500057 264.407204 
L 70.63766 260.909914 
L 70.742698 260.953539 
L 70.881761 263.171016 
L 71.130965 263.697018 
L 71.291614 266.922416 
L 71.599651 264.133747 
L 71.738725 260.290773 
L 71.911825 259.140108 
L 72.049825 260.010357 
L 72.296427 254.761901 
L 72.461643 254.666453 
L 72.874048 251.459282 
L 72.906919 252.382065 
L 73.633611 256.093261 
L 74.383961 260.70336 
L 75.185395 262.164322 
L 75.934504 261.240667 
L 75.964859 258.700809 
L 76.27411 263.120404 
L 76.550385 257.78827 
L 77.064849 272.78631 
L 77.101951 269.034799 
L 77.513317 266.62081 
L 77.5456 263.95107 
L 77.785494 262.298348 
L 78.030751 267.442938 
L 78.508068 260.07592 
L 78.681412 267.171298 
L 78.823321 267.259782 
L 78.969236 268.063143 
L 79.230855 265.773618 
L 79.574634 254.245541 
L 79.678562 254.89282 
L 79.847592 258.544768 
L 80.171571 252.613817 
L 80.363596 252.755705 
L 80.535194 259.248482 
L 80.676475 261.363221 
L 80.880255 260.934605 
L 80.948155 260.401652 
L 81.326023 254.955883 
L 81.609952 258.230803 
L 81.704387 258.182371 
L 81.886052 256.275329 
L 82.091631 258.936525 
L 82.118289 262.043718 
L 82.247263 259.210549 
L 82.453694 258.388287 
L 82.934705 261.952201 
L 83.072809 261.585366 
L 83.380778 259.623077 
L 83.518731 259.839187 
L 83.693994 260.64688 
L 83.966358 263.240596 
L 84.068778 262.218393 
L 84.376672 264.148263 
L 84.690111 263.374564 
L 84.960329 259.446046 
L 85.063737 262.488286 
L 85.236837 262.981592 
L 85.475853 260.436135 
L 85.649034 254.027091 
L 85.786916 252.000825 
L 85.959949 252.956642 
L 86.339965 258.814317 
L 86.508956 255.335018 
L 86.64694 255.25547 
L 86.921162 264.525159 
L 87.159949 265.596542 
L 87.193991 267.831905 
L 87.369358 266.011823 
L 87.662201 265.350349 
L 87.662774 266.134865 
L 87.677479 263.102468 
L 87.831099 262.010554 
L 88.125483 265.85641 
L 88.283205 265.459422 
L 88.482202 271.697907 
L 88.620095 276.34008 
L 88.822975 277.92 
L 89.063585 277.030519 
L 89.338383 275.013501 
L 89.47462 273.104893 
L 90.196257 252.732933 
L 90.332914 254.675165 
L 90.572628 255.374348 
L 90.61112 255.224106 
L 90.788871 254.619131 
L 90.884315 253.87032 
L 91.052459 255.932425 
L 91.198254 255.561298 
L 91.329921 256.513741 
L 91.603512 264.18154 
L 91.746691 264.953336 
L 92.016982 265.275833 
L 92.12007 268.191241 
L 92.195959 268.070949 
L 92.32633 267.342642 
L 92.600611 271.391333 
L 92.739517 271.301167 
L 93.049746 261.252793 
L 93.257276 259.984767 
L 93.289937 262.653514 
L 93.494243 263.055697 
L 93.597976 261.731832 
L 93.736972 262.666449 
L 93.872854 259.757374 
L 94.147117 258.250399 
L 94.355848 265.8599 
L 94.600084 264.3603 
L 94.904221 260.609524 
L 95.005981 261.846957 
L 95.248523 262.621956 
L 95.456295 264.782661 
L 95.65896 261.814231 
L 95.797736 262.446142 
L 95.89976 264.723581 
L 96.0441 263.800275 
L 96.170208 261.372516 
L 96.430314 269.952858 
L 96.746357 265.406785 
L 97.215752 257.511371 
L 97.420874 260.11998 
L 97.593253 259.517609 
L 97.795547 253.779013 
L 97.875122 246.384873 
L 98.14514 253.12567 
L 98.284665 253.041399 
L 98.429311 250.125855 
L 98.562265 252.053929 
L 98.867308 248.642253 
L 99.005719 247.72524 
L 99.383881 247.73079 
L 99.417619 255.014448 
L 99.556614 249.477086 
L 99.797098 252.962553 
L 99.86549 258.542719 
L 100.002989 259.589992 
L 100.13982 259.642144 
L 100.401376 260.256037 
L 100.554436 267.336333 
L 100.688195 263.691234 
L 100.722293 264.301053 
L 100.944246 266.617034 
L 101.006921 270.541469 
L 101.211453 267.593477 
L 101.413526 261.630243 
L 101.823576 262.487312 
L 102.037749 256.30406 
L 102.27245 254.113112 
L 102.550363 251.985718 
L 102.997347 255.410822 
L 103.173693 254.609362 
L 103.250879 252.924608 
L 103.444483 255.534344 
L 103.547948 259.407068 
L 103.806792 258.044894 
L 103.893564 254.83356 
L 104.096827 253.062852 
L 104.130756 254.715687 
L 104.354359 254.952967 
L 104.429118 254.795851 
L 104.562055 252.273689 
L 104.683933 252.122317 
L 104.8195 250.294729 
L 105.129737 244.073445 
L 105.373596 249.666233 
L 105.405113 248.25639 
L 105.679617 251.866091 
L 106.132506 260.525918 
L 106.270105 261.361789 
L 106.380744 263.853814 
L 106.5441 263.744956 
L 106.681129 265.297124 
L 106.81932 268.202955 
L 107.378511 262.113066 
L 107.405386 268.033425 
L 107.648011 262.64071 
L 107.855633 260.534186 
L 107.956601 263.072039 
L 108.130885 260.631626 
L 108.266544 256.294305 
L 108.375898 257.64502 
L 108.544995 263.333159 
L 108.574251 259.905481 
L 108.815846 256.692386 
L 108.954962 259.564961 
L 109.0936 259.236963 
L 109.231447 263.049097 
L 109.575903 258.393693 
L 109.676005 261.171649 
L 109.820024 261.625021 
L 109.918403 257.752798 
L 110.230111 260.433047 
L 110.401078 257.574015 
L 110.779233 260.23431 
L 110.91798 262.892561 
L 111.165552 262.599668 
L 111.199345 262.069405 
L 111.376473 264.500625 
L 111.509217 264.052289 
L 111.65028 263.046385 
L 111.955594 266.770482 
L 112.057314 267.229672 
L 112.778971 257.998961 
L 112.917407 257.566623 
L 113.06312 258.356279 
L 113.192613 260.278381 
L 113.364589 259.730471 
L 113.637702 255.576567 
L 113.787631 257.718118 
L 114.063295 264.12536 
L 114.204358 265.895394 
L 114.473393 267.64269 
L 114.742443 260.1458 
L 114.879581 260.542872 
L 114.911828 264.460804 
L 115.085029 265.1161 
L 115.188633 264.442951 
L 115.496652 269.210078 
L 115.669031 266.002694 
L 115.910475 259.984044 
L 116.115502 259.945047 
L 116.323148 256.837048 
L 116.61506 253.035939 
L 116.857675 250.937776 
L 116.942986 251.783796 
L 117.148261 256.005983 
L 117.183504 259.165812 
L 117.457907 261.394354 
L 117.733122 263.525638 
L 118.046277 265.497537 
L 118.215642 264.986659 
L 118.319189 261.250821 
L 118.491867 259.620352 
L 118.730703 261.302441 
L 119.040884 260.030603 
L 119.176644 257.838114 
L 119.383006 258.237791 
L 119.485424 257.309792 
L 119.625236 257.835131 
L 119.727016 259.611556 
L 120.037626 255.607935 
L 120.386453 259.024338 
L 120.739442 256.981047 
L 120.899221 255.810436 
L 121.007947 252.313398 
L 121.141206 252.912155 
L 121.485192 255.630625 
L 121.786143 252.021392 
L 122.017536 259.721535 
L 122.036085 259.108959 
L 122.199914 256.646497 
L 122.327731 258.702 
L 122.348068 256.449674 
L 122.424055 261.592451 
L 122.657736 261.907258 
L 122.735682 258.983345 
L 123.035367 264.518127 
L 123.137847 264.480032 
L 123.413383 264.842234 
L 123.520314 263.097206 
L 123.700768 265.952301 
L 124.004185 265.755158 
L 124.143413 267.687236 
L 124.277783 264.72939 
L 124.554009 267.005621 
L 124.695327 264.251284 
L 124.865162 263.613652 
L 125.012256 259.906958 
L 125.137662 263.53121 
L 125.412416 260.695425 
L 125.562658 259.04471 
L 125.688155 259.322452 
L 125.84578 257.939836 
L 126.132209 258.64726 
L 126.272644 257.754344 
L 126.406034 261.64788 
L 126.552699 261.082805 
L 126.68582 259.33195 
L 127.127146 265.861177 
L 127.402298 264.631956 
L 127.538837 267.064686 
L 127.680702 266.828499 
L 127.986521 258.487915 
L 128.262236 263.683216 
L 128.399594 263.606614 
L 128.536432 262.034829 
L 128.6745 261.982186 
L 128.811272 262.59844 
L 128.983292 261.309958 
L 129.122292 261.14307 
L 129.25961 262.54719 
L 129.398094 265.191016 
L 129.533747 264.381511 
L 129.813549 259.347611 
L 129.945462 263.151795 
L 130.25572 264.908185 
L 130.385994 264.819595 
L 130.822132 268.617715 
L 131.082756 266.066345 
L 131.221675 266.1352 
L 131.427144 259.932211 
L 131.670299 265.450386 
L 131.972825 260.612087 
L 132.078506 262.479545 
L 132.229504 259.765488 
L 132.523765 264.718376 
L 132.661308 264.688211 
L 132.802666 265.367718 
L 132.973519 263.161267 
L 133.075331 259.432603 
L 133.213921 260.078992 
L 133.386795 262.73452 
L 133.663195 261.881893 
L 133.797456 259.026076 
L 133.937455 260.350302 
L 134.096365 259.527491 
L 134.107628 262.998756 
L 134.212244 262.41534 
L 134.522269 266.415778 
L 134.935741 261.652887 
L 135.038941 262.979158 
L 135.074358 261.869478 
L 135.214094 261.68578 
L 135.536149 258.864489 
L 135.695117 260.695278 
L 135.797459 260.211017 
L 135.935881 258.58591 
L 136.209966 262.770226 
L 136.346882 259.295424 
L 136.624035 262.632574 
L 136.836508 259.741679 
L 136.938622 261.003464 
L 137.08075 259.951145 
L 137.222381 257.368122 
L 137.249419 254.144809 
L 137.35129 255.534542 
L 137.592229 255.618882 
L 137.698087 257.586115 
L 137.76397 262.403556 
L 138.074013 262.20325 
L 138.211378 261.144203 
L 138.245971 262.880225 
L 138.661146 261.413783 
L 138.798117 263.012379 
L 138.833263 265.909486 
L 139.588026 252.908943 
L 139.623274 254.020982 
L 139.762092 254.647117 
L 139.934873 254.120013 
L 140.038582 257.22394 
L 140.069714 253.281426 
L 140.208704 252.799142 
L 140.518664 250.250007 
L 140.552109 253.738537 
L 140.756979 253.666363 
L 140.89362 260.946231 
L 141.032573 259.545117 
L 141.169759 262.575691 
L 141.377664 262.53661 
L 141.51522 260.923614 
L 141.547632 265.172712 
L 141.688817 262.585913 
L 141.858146 265.625742 
L 141.960563 262.880647 
L 142.133025 263.543152 
L 142.307278 260.761951 
L 142.511628 261.939435 
L 142.650636 259.066019 
L 142.752462 263.871818 
L 143.466169 256.602847 
L 143.644756 258.179561 
L 143.884523 257.323148 
L 143.970235 257.834818 
L 144.090231 254.174938 
L 144.228191 251.426428 
L 144.368249 255.626857 
L 144.607131 253.713523 
L 144.647073 252.021457 
L 144.744729 257.140438 
L 144.882239 255.324843 
L 145.02378 255.750926 
L 145.274324 255.866485 
L 145.312189 254.045162 
L 145.440619 257.104272 
L 145.745216 253.765135 
L 145.882982 257.312113 
L 146.031338 257.301881 
L 146.159056 255.716908 
L 146.297199 257.390519 
L 146.500277 258.490206 
L 146.576648 260.353698 
L 146.843348 261.382129 
L 147.193485 266.404341 
L 147.328611 263.042 
L 147.43339 263.821501 
L 147.601409 266.503716 
L 147.705996 264.50315 
L 147.983896 263.599419 
L 148.049828 261.39096 
L 148.196578 264.063249 
L 148.287406 262.751769 
L 148.424935 265.056251 
L 148.776771 263.441027 
L 148.88623 263.540236 
L 149.146367 259.029362 
L 149.287529 261.328338 
L 149.630491 259.889876 
L 149.736727 258.305237 
L 149.872963 259.128618 
L 150.013846 256.24945 
L 150.14916 259.047745 
L 150.526819 261.666729 
L 150.733864 256.88267 
L 150.90585 256.71626 
L 151.179854 252.864188 
L 151.386457 249.856916 
L 151.45937 254.176191 
L 151.626822 252.451301 
L 151.732551 249.965961 
L 151.867493 252.38565 
L 152.038642 252.539558 
L 152.27963 254.616614 
L 152.428138 253.108457 
L 152.553631 255.887923 
L 152.82999 255.200816 
L 153.137586 258.646527 
L 153.415244 257.351497 
L 153.550344 257.660155 
L 153.928846 264.101072 
L 154.065513 264.562921 
L 154.27194 261.489039 
L 154.686892 262.896381 
L 154.858247 263.854753 
L 154.999849 265.285489 
L 155.340703 262.278558 
L 155.408391 263.008089 
L 155.546222 261.875006 
L 155.688778 261.95072 
L 155.839481 263.23986 
L 156.200903 260.84835 
L 156.344428 262.1206 
L 156.406434 264.003205 
L 156.542978 264.578717 
L 156.679736 266.017439 
L 156.955359 266.997484 
L 157.237915 263.069773 
L 157.392528 258.470889 
L 157.540478 261.567411 
L 158.104861 252.978571 
L 158.5037 252.434687 
L 158.646283 258.87867 
L 158.814023 259.89022 
L 158.950406 256.895378 
L 159.106216 256.112672 
L 159.372978 260.457368 
L 159.501753 260.474711 
L 159.640054 261.681493 
L 159.809729 261.9672 
L 160.086175 257.940926 
L 160.223176 260.588202 
L 160.359886 260.197192 
L 161.082903 253.699998 
L 161.217519 253.726266 
L 161.356926 255.217575 
L 161.494 255.240765 
L 161.631913 253.27519 
L 161.831829 253.912324 
L 161.938287 255.823644 
L 162.077169 256.232765 
L 162.214342 260.44348 
L 162.3517 261.053796 
L 162.496046 259.551791 
L 162.638152 260.147226 
L 162.769062 257.483789 
L 163.076989 260.27104 
L 163.358909 261.736135 
L 163.488145 261.219142 
L 163.624038 257.547547 
L 163.766411 257.864579 
L 164.041815 262.462572 
L 164.223475 262.75624 
L 164.486211 261.780944 
L 164.760542 262.325515 
L 164.901328 258.697123 
L 164.934234 258.700425 
L 165.039657 260.547876 
L 165.176234 265.270613 
L 165.208875 258.543373 
L 165.350895 257.180705 
L 165.4886 259.167325 
L 165.661727 259.992149 
L 165.760356 258.221533 
L 166.035155 259.880119 
L 166.184923 256.950984 
L 166.343867 259.234372 
L 166.492109 256.942268 
L 166.833385 260.815791 
L 167.058366 252.79151 
L 167.211905 254.838126 
L 167.451845 250.917432 
L 167.589409 251.973505 
L 167.862326 250.983646 
L 167.930517 253.700795 
L 168.054658 253.473279 
L 168.172073 254.234494 
L 168.583126 261.885181 
L 168.652065 259.612186 
L 168.829442 259.184717 
L 169.032871 263.283662 
L 169.341488 261.912022 
L 169.492452 260.586902 
L 169.580515 256.195307 
L 169.890794 255.613093 
L 170.027912 253.196501 
L 170.40457 257.919082 
L 170.481899 256.513684 
L 170.58573 260.355809 
L 170.716012 260.58229 
L 170.887896 262.356034 
L 171.026586 266.717733 
L 171.301904 264.830991 
L 171.475687 268.629552 
L 171.715297 266.222245 
L 171.749217 262.834276 
L 172.129928 258.859506 
L 172.167454 257.340805 
L 172.333477 256.28954 
L 172.435837 253.053989 
L 172.589875 253.811729 
L 172.710372 253.143901 
L 172.852656 251.022319 
L 173.082955 252.509572 
L 173.166408 251.615091 
L 173.297593 254.153822 
L 173.43307 253.992474 
L 173.571115 253.324641 
L 173.91393 255.020878 
L 174.259127 260.757672 
L 174.362333 261.18124 
L 174.464855 257.616432 
L 174.569213 258.105734 
L 174.843461 264.998022 
L 175.017553 265.022394 
L 175.289145 262.770079 
L 175.674367 256.377817 
L 175.73639 250.454731 
L 175.770533 254.562498 
L 175.943056 257.295685 
L 175.988798 261.650223 
L 176.28641 254.919773 
L 176.430076 255.435646 
L 177.111101 270.342701 
L 177.281337 269.135915 
L 177.418074 266.24435 
L 177.590204 266.968706 
L 177.727672 266.213854 
L 178.039767 267.466459 
L 178.55685 258.145869 
L 178.899813 258.219133 
L 178.967738 255.798154 
L 179.278157 258.12246 
L 179.414129 255.325128 
L 179.586248 254.775204 
L 179.862464 257.220821 
L 180.034057 258.749191 
L 180.10643 257.729205 
L 180.411808 263.398147 
L 180.826773 260.945694 
L 180.956598 261.794697 
L 180.982991 262.723253 
L 181.107764 261.661341 
L 181.185623 261.741072 
L 181.293806 261.068414 
L 181.578442 268.460099 
L 181.818463 263.454228 
L 182.000894 266.09059 
L 182.022681 268.439616 
L 182.126353 266.549138 
L 182.402555 263.874634 
L 182.580797 265.52421 
L 182.711201 263.655465 
L 182.986411 255.670629 
L 183.125549 256.075107 
L 183.296647 257.698333 
L 183.509478 256.209232 
L 183.615157 254.315576 
L 183.681381 257.192236 
L 183.814147 254.097739 
L 184.12298 257.535563 
L 184.446797 254.443278 
L 184.606212 254.327389 
L 184.674542 253.006433 
L 184.994729 257.437451 
L 185.156972 255.724784 
L 185.363822 255.306613 
L 185.470604 253.620866 
L 185.700257 254.591651 
L 185.951334 257.814158 
L 186.101086 258.182684 
L 186.1689 257.359064 
L 186.367934 251.02314 
L 186.63914 249.360011 
L 186.951756 248.476643 
L 187.089058 249.889101 
L 187.225022 249.264395 
L 187.535481 250.493712 
L 187.672024 251.29961 
L 187.774882 251.091749 
L 187.983887 252.575565 
L 188.123489 254.808538 
L 188.259025 254.8694 
L 188.397303 255.835095 
L 188.915639 252.906724 
L 189.08672 253.302574 
L 189.534063 265.108256 
L 189.709978 265.817852 
L 189.777635 263.461711 
L 189.91465 264.051399 
L 190.087703 267.051661 
L 190.223204 264.185072 
L 190.331229 267.031908 
L 190.567942 266.961825 
L 191.049928 254.621915 
L 191.186546 260.228331 
L 191.49878 256.183095 
L 191.634619 258.547854 
L 191.772674 257.351018 
L 191.923456 257.039187 
L 192.062339 258.420219 
L 192.321798 257.664909 
L 192.389924 257.988038 
L 192.493131 261.831158 
L 192.667733 257.915513 
L 193.222006 263.633937 
L 193.323787 263.37204 
L 193.537761 263.820264 
L 193.770517 267.46171 
L 194.010221 267.291293 
L 194.080314 271.439348 
L 194.21778 272.162909 
L 194.456389 265.904395 
L 194.594005 264.876165 
L 194.731653 266.736199 
L 194.903499 263.483412 
L 195.074239 264.161295 
L 195.25425 265.852966 
L 195.588116 257.233266 
L 195.727551 259.604907 
L 195.869772 259.460444 
L 196.036278 259.94768 
L 196.199567 258.147186 
L 196.310845 260.003396 
L 196.619539 254.962627 
L 196.757979 255.435575 
L 196.931035 255.086044 
L 197.10041 257.707169 
L 197.18049 261.227226 
L 197.375423 260.739128 
L 197.512245 260.727734 
L 197.753569 264.324699 
L 197.933377 264.195574 
L 198.027978 270.400318 
L 198.409384 272.422009 
L 198.441237 269.551162 
L 198.681747 266.117298 
L 198.751485 268.484382 
L 198.88899 267.002383 
L 199.061014 267.367467 
L 199.197819 268.457355 
L 199.334584 266.847499 
L 199.441203 259.92419 
L 199.609706 259.374404 
L 199.719806 258.423436 
L 199.885535 259.81376 
L 200.129444 260.469734 
L 200.300348 256.45469 
L 200.331281 257.365304 
L 200.572915 252.01273 
L 200.711883 255.063688 
L 200.849168 255.203181 
L 201.158124 252.671841 
L 201.300419 252.406017 
L 201.432704 252.65435 
L 201.573171 252.375784 
L 201.736501 253.147385 
L 201.872791 255.422808 
L 202.045411 255.244035 
L 202.120245 254.208651 
L 202.42475 260.148499 
L 202.594481 262.759872 
L 202.836915 260.825226 
L 202.977068 263.541508 
L 203.005137 263.055969 
L 203.210375 262.739484 
L 203.42462 259.819856 
L 203.450778 262.244334 
L 203.731728 255.175543 
L 203.902493 255.78163 
L 204.00319 255.31263 
L 204.139644 256.323051 
L 204.448864 255.230318 
L 204.563659 256.931593 
L 204.692417 255.106922 
L 204.864934 258.911377 
L 205.113428 259.721554 
L 205.592585 255.230804 
L 205.732084 258.074527 
L 205.966759 252.758034 
L 206.105905 255.080526 
L 206.276816 254.382202 
L 206.622407 258.403812 
L 206.757807 257.635684 
L 206.968668 258.023518 
L 207.170854 259.678555 
L 207.26005 264.752909 
L 207.480587 267.079215 
L 207.522486 270.86905 
L 207.688802 266.234826 
L 207.963729 262.658345 
L 208.238956 267.425586 
L 208.409653 268.688318 
L 208.82419 265.567185 
L 208.997774 261.372334 
L 209.270473 265.763552 
L 209.379134 265.968451 
L 209.555452 263.656813 
L 209.579024 266.120495 
L 209.890565 260.248489 
L 209.923325 262.341225 
L 209.959849 260.362709 
L 210.372268 256.436199 
L 210.612617 257.744857 
L 210.721116 255.924006 
L 210.822028 256.427524 
L 211.166545 261.888579 
L 211.255991 260.749588 
L 211.371001 260.46612 
L 211.508929 260.867092 
L 211.713462 261.88923 
L 211.818218 265.353046 
L 211.954891 264.728851 
L 212.090195 268.382853 
L 212.366486 264.407555 
L 212.812509 260.766407 
L 212.988783 262.021056 
L 213.087203 261.965602 
L 213.364984 256.979908 
L 213.50375 255.743282 
L 213.637967 257.24661 
L 213.780867 256.521263 
L 214.221746 259.979641 
L 214.362601 258.063565 
L 214.496375 258.05728 
L 214.806384 259.212779 
L 214.93414 260.737364 
L 215.115827 261.775205 
L 215.263089 265.511537 
L 215.461086 264.092871 
L 215.6383 261.791105 
L 215.677634 262.107658 
L 216.081461 260.997048 
L 216.207529 260.185029 
L 216.333428 256.739853 
L 216.491421 256.66595 
L 216.629224 255.098597 
L 216.863598 254.679324 
L 216.899557 257.148265 
L 217.057626 254.086279 
L 217.242288 254.335089 
L 217.34597 257.10436 
L 217.483574 257.444925 
L 217.623434 253.489984 
L 217.791995 255.837014 
L 218.186183 249.234971 
L 218.376545 249.065291 
L 218.486063 253.556841 
L 218.671632 254.544247 
L 218.810615 252.184575 
L 219.053937 258.158066 
L 219.220908 254.262411 
L 219.360276 255.244 
L 219.632304 259.796262 
L 219.876663 257.398749 
L 220.185262 263.213891 
L 220.326122 260.864137 
L 220.465092 261.903741 
L 220.743327 266.80382 
L 220.942174 263.521547 
L 221.157751 268.384702 
L 221.460307 260.615429 
L 221.700938 257.612552 
L 221.804441 260.105302 
L 221.944618 260.547016 
L 222.148868 260.342159 
L 222.320245 265.716519 
L 222.732693 259.396641 
L 222.870575 259.458549 
L 223.146595 261.333865 
L 223.285238 261.00922 
L 223.676869 259.269012 
L 223.868196 259.669085 
L 224.039848 264.384177 
L 224.177005 270.662709 
L 224.317201 269.848922 
L 224.452884 270.266503 
L 224.630069 266.931434 
L 224.841448 267.901623 
L 224.935522 267.340225 
L 225.482888 253.265125 
L 225.625938 253.105681 
L 225.724967 254.192229 
L 225.898777 254.518337 
L 226.137032 257.625901 
L 226.414663 258.611147 
L 226.590181 257.697024 
L 226.747464 255.998577 
L 226.997001 260.388355 
L 227.203151 261.840611 
L 227.273612 258.400445 
L 227.478729 257.500008 
L 227.648791 257.615298 
L 227.718197 259.099986 
L 227.993714 257.850019 
L 228.232489 260.378194 
L 228.277077 263.008494 
L 228.471708 262.012546 
L 228.544805 259.624478 
L 228.853266 265.368233 
L 228.992091 264.184145 
L 229.12844 261.831897 
L 229.405336 264.888106 
L 229.595226 262.669716 
L 229.698887 260.057811 
L 230.011957 269.054908 
L 230.454227 262.399882 
L 230.830694 265.610427 
L 230.967398 268.546858 
L 231.108407 267.880633 
L 231.414229 257.196581 
L 231.570913 259.181277 
L 231.794069 259.945082 
L 231.828718 259.833436 
L 231.966495 260.105601 
L 232.412206 256.063447 
L 232.826455 261.567205 
L 232.970694 261.288343 
L 233.168544 261.962518 
L 233.272479 264.44083 
L 233.41001 264.206419 
L 233.548417 262.894841 
L 233.721535 267.30275 
L 233.821448 264.847656 
L 234.507843 257.812944 
L 234.71966 257.20583 
L 234.852168 254.619014 
L 234.954763 256.814003 
L 235.160472 252.926362 
L 235.333038 253.760838 
L 235.541211 257.697851 
L 235.720219 257.598679 
L 235.785751 257.900266 
L 235.952502 259.55513 
L 236.094123 258.393675 
L 236.227274 259.892888 
L 236.399975 259.648886 
L 236.50605 256.988537 
L 236.643087 257.021474 
L 236.812224 257.199553 
L 236.950268 256.611706 
L 237.085796 257.487124 
L 237.363566 253.424168 
L 237.533955 253.441406 
L 237.807817 251.043981 
L 237.944005 255.197064 
L 238.191703 255.731156 
L 238.39076 252.477246 
L 238.561642 253.953835 
L 238.702533 256.484038 
L 238.800777 261.239309 
L 238.938327 258.966028 
L 239.077138 258.767438 
L 239.213242 260.248967 
L 239.358103 258.413929 
L 239.384065 263.862889 
L 239.521962 260.421558 
L 239.660735 260.445377 
L 239.796937 261.088401 
L 239.968767 260.933443 
L 240.107652 259.331227 
L 240.314154 255.408622 
L 240.348696 257.27377 
L 240.381615 256.160922 
L 240.485522 255.941932 
L 240.721906 253.848303 
L 240.794001 254.124935 
L 241.068581 253.164122 
L 241.177061 255.928226 
L 241.275117 255.229545 
L 241.378055 252.716678 
L 241.626993 258.9679 
L 241.786177 260.088778 
L 241.938607 263.60744 
L 242.077386 263.93543 
L 242.182583 265.04673 
L 242.489746 260.059684 
L 242.66167 260.559321 
L 243.03947 254.197957 
L 243.176278 255.137286 
L 243.347698 252.325447 
L 243.58964 252.161233 
L 243.662887 250.190492 
L 243.863964 250.805597 
L 243.902964 250.730934 
L 244.071221 249.756289 
L 244.206614 251.362587 
L 244.344309 249.215559 
L 244.485897 251.974466 
L 244.624542 251.603468 
L 244.762866 252.85897 
L 245.203566 259.737258 
L 245.358768 260.691674 
L 245.459003 262.150313 
L 245.592271 265.975946 
L 245.897945 263.071559 
L 246.034176 261.349017 
L 246.243282 260.777701 
L 246.587485 265.352141 
L 246.726413 263.044987 
L 246.868035 263.120119 
L 247.03394 262.920699 
L 247.17193 263.317502 
L 247.307658 264.566535 
L 247.445761 264.741431 
L 247.719913 263.945412 
L 248.029465 258.010915 
L 248.167888 258.856393 
L 248.306053 257.993738 
L 248.443585 254.13134 
L 248.729351 256.743128 
L 248.856386 256.93842 
L 248.99824 259.099071 
L 249.164396 256.453095 
L 249.300884 259.069252 
L 249.439682 254.801892 
L 249.578399 254.037783 
L 249.864039 259.661092 
L 249.993746 258.907362 
L 250.026304 262.672793 
L 250.137177 258.849728 
L 250.302079 258.567667 
L 250.476797 257.066343 
L 250.57982 258.448246 
L 250.716052 257.229053 
L 250.991723 262.884864 
L 251.146249 262.600793 
L 251.292865 262.091229 
L 251.438335 264.375577 
L 251.577337 263.81772 
L 251.716553 262.510711 
L 251.8562 262.42582 
L 252.125043 266.932206 
L 252.264029 262.819656 
L 252.40514 264.328464 
L 252.704764 262.206519 
L 252.84948 261.338988 
L 253.119495 264.764891 
L 253.267399 263.384331 
L 253.399119 263.590888 
L 253.541707 262.362401 
L 253.842664 265.128411 
L 253.984249 263.40128 
L 254.149957 263.04573 
L 254.289263 262.318438 
L 254.494875 262.404653 
L 254.746956 265.092938 
L 254.819449 262.517783 
L 254.960142 261.807171 
L 255.263032 258.106618 
L 255.395552 260.453819 
L 255.58815 260.668063 
L 255.672176 259.204461 
L 255.957609 258.350051 
L 256.089856 258.753862 
L 256.256451 258.025747 
L 256.428727 254.899127 
L 256.540614 254.998531 
L 256.704335 254.124536 
L 257.425863 246.180312 
L 257.803474 246.904934 
L 257.975203 254.001754 
L 258.458014 261.623939 
L 258.662926 264.655313 
L 258.802728 264.840075 
L 258.972048 263.930395 
L 259.076116 266.329144 
L 259.24789 264.371277 
L 259.417632 264.409303 
L 259.522593 263.764106 
L 259.695961 263.945992 
L 259.967706 263.186062 
L 260.105013 261.546587 
L 260.531382 264.390145 
L 260.688441 263.466844 
L 260.825625 265.578096 
L 260.963718 263.813653 
L 261.343276 264.978962 
L 261.410606 263.403264 
L 261.514016 263.766368 
L 261.65118 261.182394 
L 261.931614 262.380943 
L 261.961081 259.196776 
L 262.098514 260.779345 
L 262.26852 261.18044 
L 262.375066 262.576709 
L 262.648389 261.721434 
L 262.795977 263.600894 
L 262.922849 263.720617 
L 263.156251 263.485287 
L 263.200968 259.718041 
L 263.402992 259.178889 
L 263.657686 255.753328 
L 263.677876 253.280549 
L 263.815948 255.118788 
L 263.95258 255.146203 
L 264.124704 253.848505 
L 264.331365 253.657725 
L 264.366195 252.488486 
L 264.5193 254.339371 
L 264.778583 261.817221 
L 264.951611 261.328886 
L 265.065556 262.789594 
L 265.226634 262.049835 
L 265.683159 256.309133 
L 265.95733 256.970086 
L 266.165296 256.415692 
L 266.198023 254.636256 
L 266.483856 258.679047 
L 266.65472 256.523421 
L 266.827334 256.51252 
L 267.207108 263.847393 
L 268.02796 255.24321 
L 268.270612 260.937863 
L 268.340771 260.620067 
L 268.476115 258.442199 
L 268.613357 260.124453 
L 268.784374 260.301621 
L 269.067398 261.894815 
L 269.198971 260.688432 
L 269.33643 262.939708 
L 269.516217 258.918445 
L 269.917783 262.098337 
L 270.051859 257.707966 
L 270.355126 257.741911 
L 270.492957 258.08332 
L 270.733168 259.929213 
L 270.801436 259.30226 
L 270.911641 261.415736 
L 271.010475 258.70513 
L 271.180849 258.744072 
L 271.386009 259.229037 
L 271.453857 262.821198 
L 271.626733 263.244719 
L 272.10609 258.602014 
L 272.244212 257.055528 
L 272.3137 254.934745 
L 272.449701 254.826172 
L 272.591731 253.171375 
L 272.76081 254.77587 
L 272.898554 254.158541 
L 273.034975 255.179813 
L 273.171831 257.182111 
L 273.309838 256.729884 
L 273.452471 257.986478 
L 273.654865 257.217875 
L 273.756174 259.685888 
L 273.861695 259.555527 
L 274.03208 262.514116 
L 274.173866 261.56704 
L 274.307896 263.115681 
L 274.582863 258.282545 
L 274.750014 260.957417 
L 274.968816 260.14748 
L 275.134937 264.232178 
L 275.174456 261.484162 
L 275.406311 263.627217 
L 275.507463 258.903579 
L 275.614713 259.039099 
L 275.754874 257.42786 
L 275.855837 260.587764 
L 275.992629 259.950903 
L 276.129071 258.481342 
L 276.300378 258.836934 
L 276.439183 255.214103 
L 276.580869 256.264671 
L 276.790744 255.79747 
L 276.852227 259.096081 
L 277.02506 261.261018 
L 277.127303 260.125381 
L 277.405619 258.957449 
L 277.435832 262.173315 
L 277.955084 264.326897 
L 278.096015 262.873833 
L 278.159049 259.045699 
L 278.43745 250.629243 
L 278.605614 252.39162 
L 278.710973 252.20443 
L 278.846593 252.762766 
L 279.090258 251.14812 
L 279.154294 253.637781 
L 279.258028 253.611429 
L 279.567287 258.376413 
L 279.842041 263.70902 
L 279.979661 264.631278 
L 280.260327 263.654458 
L 280.404782 263.539724 
L 280.701473 264.64215 
L 280.839183 263.443858 
L 280.976123 264.179176 
L 281.423947 258.416753 
L 281.532227 260.582172 
L 281.699751 258.540279 
L 281.839474 258.705402 
L 281.975143 256.615535 
L 282.252883 257.032879 
L 282.387097 255.68908 
L 282.458611 258.750896 
L 282.768571 262.37501 
L 282.835529 265.024554 
L 282.971479 264.269141 
L 283.245487 267.075364 
L 283.390303 267.236634 
L 283.529509 266.590287 
L 283.817205 267.442704 
L 283.968165 265.325366 
L 284.121382 266.429827 
L 284.659036 262.170918 
L 284.899932 262.213443 
L 284.972053 263.862022 
L 285.139454 264.275797 
L 285.246463 262.338143 
L 285.415084 262.586662 
L 285.658057 264.787836 
L 285.964688 265.680648 
L 286.103659 262.348617 
L 286.51567 257.652682 
L 286.791664 261.24986 
L 286.834862 258.289476 
L 287.018334 261.190348 
L 287.154479 260.286582 
L 287.518136 262.92036 
L 287.648072 263.42681 
L 287.785222 266.108115 
L 288.024614 267.839487 
L 288.093433 264.963363 
L 288.264071 265.308453 
L 288.40497 262.687798 
L 288.58034 263.462371 
L 288.643284 264.875822 
L 288.780951 265.317599 
L 289.057819 268.114228 
L 289.365917 263.279372 
L 289.537726 260.527996 
L 289.951906 257.819715 
L 290.120154 254.145412 
L 290.326022 253.012849 
L 290.360229 250.404279 
L 290.532223 248.545388 
L 290.787601 250.895153 
L 291.05547 252.39714 
L 291.190745 249.124174 
L 291.390989 250.808699 
L 291.672526 254.995306 
L 291.771397 254.835792 
L 292.073422 254.920764 
L 292.084947 253.875374 
L 292.219715 254.172643 
L 292.357036 254.040007 
L 292.495478 257.06549 
L 292.810426 258.523836 
L 292.976586 254.496174 
L 293.217658 254.631408 
L 293.320555 253.207491 
L 293.392661 253.654763 
L 293.802858 257.57278 
L 293.977245 255.135358 
L 294.119351 255.375216 
L 294.184709 252.705583 
L 294.629199 254.989676 
L 294.903568 254.777895 
L 295.180611 248.800629 
L 295.487273 252.257719 
L 295.695 253.0563 
L 295.937736 248.421044 
L 296.287739 251.289878 
L 296.484627 248.694368 
L 296.762431 246.83066 
L 296.897502 249.374854 
L 297.034489 248.889217 
L 297.309097 254.809398 
L 297.44663 255.81444 
L 297.756545 252.449859 
L 298.172801 258.730789 
L 298.201419 257.704526 
L 298.408156 257.474439 
L 298.514005 258.372622 
L 298.615481 257.840985 
L 298.751834 261.128411 
L 298.899464 260.450489 
L 299.268224 265.992074 
L 299.305154 267.649793 
L 299.543533 268.622506 
L 299.618153 266.540666 
L 299.74988 266.571782 
L 299.885771 266.332198 
L 300.057663 268.411138 
L 300.162381 264.357983 
L 300.297024 263.836002 
L 300.43508 263.753132 
L 300.587137 264.275391 
L 300.868216 263.790593 
L 301.144738 264.641968 
L 301.169837 261.523814 
L 301.305717 264.207268 
L 301.449439 262.045268 
L 301.626111 264.249606 
L 301.724662 267.693721 
L 302.033449 265.789536 
L 302.272966 265.679691 
L 302.30996 265.497692 
L 302.48523 268.843893 
L 302.65228 269.368163 
L 302.964012 268.202603 
L 303.001458 269.932883 
L 303.178063 268.789913 
L 303.281865 271.027964 
L 303.416227 269.599376 
L 303.550271 270.116874 
L 303.843874 268.033321 
L 304.046657 271.339677 
L 304.300497 267.004133 
L 304.597365 255.914475 
L 304.737211 254.185199 
L 304.910481 258.114803 
L 304.98857 257.31739 
L 305.15397 258.276053 
L 305.28451 257.360994 
L 305.420857 255.099058 
L 305.558155 255.540007 
L 305.704127 257.544447 
L 305.976775 265.507649 
L 306.142041 267.297422 
L 306.281028 263.709073 
L 306.657273 267.681629 
L 306.761373 271.118568 
L 306.869671 269.744253 
L 307.103553 270.634813 
L 307.21804 267.126694 
L 307.264573 267.608923 
L 307.416445 267.053541 
L 307.550983 267.615304 
L 307.687897 268.70525 
L 308.101661 259.102342 
L 308.272519 259.670419 
L 308.408988 260.112272 
L 308.546424 266.497004 
L 308.690389 263.666289 
L 308.820894 265.182797 
L 308.967945 263.56456 
L 309.3828 267.9814 
L 309.520087 265.025818 
L 309.690974 264.791366 
L 309.824156 262.001445 
L 309.962669 256.715059 
L 310.026785 258.034297 
L 310.099005 258.099964 
L 310.238612 256.333713 
L 310.377331 258.03649 
L 310.820951 254.757836 
L 310.960099 256.446586 
L 311.097869 254.997777 
L 311.235 256.01656 
L 311.429018 256.501144 
L 311.662445 259.616382 
L 311.958466 254.306539 
L 312.093834 254.405331 
L 312.23003 253.100558 
L 312.539206 260.826398 
L 312.650213 259.703297 
L 312.815492 259.456082 
L 312.999739 256.435612 
L 313.226584 258.634124 
L 313.364018 261.236051 
L 313.509214 259.720913 
L 313.638858 262.805722 
L 313.781984 263.095445 
L 313.95155 264.031668 
L 314.085783 261.895927 
L 314.359915 265.756759 
L 314.635735 264.633007 
L 314.840852 261.256392 
L 314.943933 264.178181 
L 315.055702 263.48584 
L 315.186558 261.478465 
L 315.49549 264.340362 
L 315.663947 263.505955 
L 315.908074 260.268112 
L 316.214489 261.50373 
L 316.375155 261.364509 
L 316.500676 260.117627 
L 316.661 261.459431 
L 316.833222 257.449025 
L 316.936106 257.997028 
L 317.039201 257.179766 
L 317.19027 259.23917 
L 317.222872 261.640564 
L 317.351379 262.230162 
L 317.487912 262.279664 
L 317.694821 261.248605 
L 317.797578 262.531316 
L 318.210877 259.175755 
L 318.420987 259.297557 
L 318.455771 259.954458 
L 318.795305 258.100487 
L 318.899825 258.890373 
L 319.035501 260.816532 
L 319.173502 260.229865 
L 319.623426 263.1334 
L 319.883518 265.436599 
L 319.936066 264.356504 
L 320.045213 265.019362 
L 320.207812 262.024841 
L 320.36158 264.207405 
L 320.480915 263.234443 
L 320.818054 264.885365 
L 320.921324 264.725153 
L 321.032491 266.001865 
L 321.230051 265.714129 
L 321.304485 265.236167 
L 321.475786 263.03246 
L 321.746275 266.340392 
L 321.8838 267.466075 
L 322.171321 264.613765 
L 322.297253 264.60545 
L 322.502829 267.480448 
L 322.604762 264.948376 
L 322.846485 268.282613 
L 322.985976 268.197741 
L 323.059307 267.842578 
L 323.191105 264.142044 
L 323.498735 264.116766 
L 323.620949 261.789133 
L 323.774621 260.399759 
L 324.186585 253.835563 
L 324.41877 255.590153 
L 324.469773 255.341234 
L 324.604879 254.637134 
L 324.757194 253.095291 
L 324.88558 255.159694 
L 325.11753 253.699106 
L 325.197093 254.551987 
L 325.293887 253.293802 
L 325.323316 257.16201 
L 325.426431 256.635932 
L 325.703181 258.688551 
L 325.771591 258.518038 
L 325.91006 259.122763 
L 326.154166 261.726558 
L 326.296254 261.256028 
L 326.44074 266.873383 
L 326.712052 266.089948 
L 327.161489 260.207049 
L 327.43038 259.626142 
L 327.568013 263.152168 
L 327.772947 260.940103 
L 327.9789 257.078861 
L 328.11713 257.275365 
L 328.288263 263.648109 
L 328.53237 263.39775 
L 328.59733 266.731391 
L 328.736392 267.769546 
L 328.846463 269.890687 
L 329.009615 263.828681 
L 329.147226 264.267509 
L 329.422908 263.7651 
L 329.561675 260.214426 
L 329.836055 258.15407 
L 329.937899 261.224434 
L 330.055752 261.153239 
L 330.367006 256.670893 
L 330.530623 258.863114 
L 330.644142 256.997809 
L 330.701962 259.857998 
L 330.874589 258.323001 
L 331.20287 259.8554 
L 331.251955 258.182015 
L 331.42504 257.608414 
L 331.595374 259.091606 
L 331.702113 262.082385 
L 331.836577 261.757564 
L 332.02218 265.907603 
L 332.189303 264.927002 
L 332.31863 267.50761 
L 332.420829 266.506443 
L 332.560841 267.031949 
L 332.697623 265.917451 
L 332.870608 263.48193 
L 333.007777 264.510816 
L 333.11041 262.616429 
L 333.246007 265.325481 
L 333.453462 267.110479 
L 333.723023 271.22351 
L 333.970265 272.581465 
L 334.24355 274.346602 
L 334.5308 270.43442 
L 334.827905 266.6751 
L 335.11002 258.619021 
L 335.395668 261.523861 
L 335.534811 259.332972 
L 335.685565 259.759331 
L 335.797558 259.25615 
L 336.34 260.438686 
L 336.684151 256.83379 
L 336.857462 257.440472 
L 337.130806 261.146126 
L 337.23425 260.339406 
L 337.405499 260.191751 
L 337.646791 267.686034 
L 337.818963 265.857301 
L 338.062014 266.768824 
L 338.197562 265.737278 
L 338.334904 268.299268 
L 338.679174 265.098363 
L 338.853168 265.754673 
L 339.092526 258.025962 
L 339.22677 260.83081 
L 339.364367 261.063876 
L 339.503475 260.34223 
L 339.674217 257.611812 
L 340.084986 260.038569 
L 340.330515 260.148782 
L 340.49995 258.029951 
L 340.601938 259.484488 
L 340.772414 257.969115 
L 340.882528 259.295569 
L 341.048793 259.795263 
L 341.116908 261.313033 
L 341.224015 260.138178 
L 341.360829 260.990567 
L 341.636301 257.803499 
L 341.838193 260.814969 
L 341.975527 258.611256 
L 342.112249 260.158041 
L 342.289968 257.482786 
L 342.38855 259.52571 
L 342.627845 258.388726 
L 342.736267 259.508897 
L 342.798713 258.782857 
L 342.935862 260.25988 
L 343.10773 260.87231 
L 343.217847 264.285578 
L 343.473352 264.791678 
L 343.6291 268.405086 
L 343.833127 268.826341 
L 343.938449 267.261046 
L 344.075967 267.453263 
L 344.213224 265.898411 
L 344.522427 267.109634 
L 344.625529 263.441611 
L 344.767594 263.028875 
L 345.039805 256.247937 
L 345.189888 254.68786 
L 345.384394 256.257902 
L 345.487203 253.21787 
L 345.642096 253.827161 
L 345.764388 253.700682 
L 345.90055 253.155189 
L 346.454276 259.044405 
L 346.62047 258.860065 
L 346.758484 258.031961 
L 346.89528 258.928455 
L 347.067211 256.303745 
L 347.318976 258.232526 
L 347.482114 257.160389 
L 347.664694 258.072041 
L 347.786574 257.163793 
L 347.890253 257.938297 
L 348.198542 255.91838 
L 348.509309 264.802874 
L 348.716441 264.849194 
L 348.754204 264.428387 
L 348.885592 264.606171 
L 349.161414 265.457418 
L 349.405044 265.239581 
L 349.613504 268.513666 
L 349.779728 264.323827 
L 350.054475 262.825573 
L 350.347833 261.053967 
L 350.4472 262.179472 
L 350.471897 260.276256 
L 350.608333 263.355629 
L 350.78064 263.154202 
L 351.021093 258.730493 
L 351.182836 259.548045 
L 351.32929 258.890574 
L 351.501228 259.740631 
L 351.642615 261.00214 
L 351.75163 260.36948 
L 352.12392 254.791505 
L 352.157879 255.145776 
L 352.293728 259.414487 
L 352.53439 259.474991 
L 352.706709 255.862989 
L 352.877064 255.172249 
L 353.156581 251.334808 
L 353.291061 254.664629 
L 353.425853 254.427435 
L 353.605588 254.643059 
L 353.700975 255.156561 
L 353.845601 258.773794 
L 354.183455 260.073577 
L 354.286123 261.375302 
L 354.575116 269.191127 
L 354.768155 269.089784 
L 354.913427 269.331608 
L 355.282537 259.824697 
L 355.611162 260.945488 
L 356.004747 253.186496 
L 356.277983 254.624785 
L 356.554109 259.626818 
L 356.690046 260.922586 
L 356.863078 258.543001 
L 356.999111 259.665949 
L 357.113288 258.320048 
L 357.274989 258.44141 
L 357.412931 258.763942 
L 357.549133 261.008338 
L 357.727035 259.291996 
L 357.998569 260.240544 
L 358.137038 259.830117 
L 358.272382 260.942655 
L 358.616062 266.125108 
L 358.717749 265.986422 
L 358.891104 266.315438 
L 358.994905 265.299167 
L 359.104459 266.538063 
L 359.266192 266.251144 
L 359.541762 269.585953 
L 359.785307 268.808227 
L 359.850857 264.195081 
L 360.112087 268.175169 
L 360.401388 263.110577 
L 360.573556 265.482476 
L 360.830345 262.300374 
L 360.94958 260.108007 
L 361.240599 265.412634 
L 361.397199 264.18164 
L 361.533621 261.045125 
L 361.77385 262.477551 
L 361.913591 260.803584 
L 361.946525 259.048622 
L 362.08585 258.7307 
L 362.227572 263.378321 
L 362.394104 261.085201 
L 362.601299 259.964699 
L 362.704829 258.772196 
L 362.830274 261.539691 
L 363.013591 262.424086 
L 363.223634 267.103587 
L 363.39057 268.227508 
L 363.665978 262.966561 
L 363.838642 263.716649 
L 363.940687 261.379503 
L 364.112241 260.881999 
L 364.352567 262.395685 
L 364.466032 263.856648 
L 364.628358 263.15032 
L 364.66189 263.360118 
L 364.801034 259.717478 
L 364.937529 262.914735 
L 365.074362 262.025536 
L 365.497243 269.179488 
L 365.796831 262.865547 
L 365.936023 262.810838 
L 366.243457 266.35989 
L 366.385118 263.986501 
L 366.657088 265.750053 
L 366.895367 264.90654 
L 366.937783 263.281224 
L 367.103449 264.387194 
L 367.244065 266.079494 
L 367.482507 261.775072 
L 367.652632 264.195961 
L 367.962506 262.630801 
L 368.070173 261.212101 
L 368.20432 264.138809 
L 368.477663 263.165496 
L 368.687151 258.201564 
L 368.761865 259.362925 
L 369.271644 254.756471 
L 369.387977 255.79238 
L 369.79313 251.930382 
L 369.931808 254.412875 
L 370.101323 254.598146 
L 370.203683 254.388196 
L 370.509334 257.165335 
L 370.635592 259.180937 
L 370.788355 257.723461 
L 371.201376 261.681794 
L 371.357579 260.687546 
L 371.485928 262.027883 
L 371.623972 262.046054 
L 371.761667 260.648942 
L 371.935134 260.10485 
L 372.038861 263.318487 
L 372.224041 263.021548 
L 372.347462 264.324642 
L 372.484186 264.22475 
L 372.619751 264.711655 
L 372.860391 264.159273 
L 373.03183 266.564822 
L 373.204047 266.204314 
L 373.341569 265.071768 
L 373.447597 262.278117 
L 373.756396 266.202327 
L 373.903759 267.18562 
L 374.042245 265.419498 
L 374.167544 265.698281 
L 374.340941 265.051776 
L 374.45991 262.604748 
L 374.997364 268.615328 
L 375.238564 263.298839 
L 375.341727 260.503331 
L 375.444428 261.76495 
L 375.753818 259.276807 
L 375.78888 261.585281 
L 376.304191 254.224218 
L 376.481981 255.628764 
L 376.58606 257.77699 
L 376.888819 259.68923 
L 377.169993 265.465753 
L 377.306213 265.369957 
L 377.752757 268.343946 
L 378.026804 265.280648 
L 378.16447 267.346767 
L 378.579559 258.935258 
L 378.715799 261.28117 
L 378.932477 262.225874 
L 379.198063 258.609869 
L 379.336307 260.651069 
L 379.440087 259.928828 
L 379.798247 255.39159 
L 379.824379 257.193252 
L 379.864625 257.184737 
L 380.137877 258.108769 
L 380.414075 253.46806 
L 380.549461 254.241791 
L 380.858889 252.005744 
L 380.996373 250.140324 
L 381.271539 251.443574 
L 381.511715 250.137373 
L 381.57954 247.845196 
L 381.991378 252.10795 
L 382.129026 250.616421 
L 382.303479 250.322695 
L 382.404487 253.852163 
L 382.579671 253.283327 
L 382.714981 251.631317 
L 382.851983 253.226915 
L 383.059414 253.676752 
L 383.13511 252.214757 
L 383.401008 251.90527 
L 384.022407 262.22644 
L 384.244006 262.121742 
L 384.329352 261.673872 
L 384.398242 262.932546 
L 384.53769 267.518778 
L 384.681051 267.720045 
L 384.820627 268.550492 
L 385.019541 267.137922 
L 385.120044 267.686529 
L 385.325355 263.904408 
L 385.497671 263.725569 
L 385.606636 264.395594 
L 385.844048 267.12805 
L 385.948827 266.104977 
L 386.160425 267.032465 
L 386.600216 260.191682 
L 386.673158 266.474043 
L 386.913452 266.726093 
L 386.959417 267.913684 
L 387.122361 264.326072 
L 387.322187 263.095772 
L 387.400409 261.599079 
L 387.529804 263.990728 
L 387.670311 263.904709 
L 387.805806 263.663655 
L 387.945784 265.268292 
L 388.156625 263.603528 
L 388.411484 257.668446 
L 388.805619 260.561083 
L 389.075166 255.878494 
L 389.243522 259.329513 
L 389.523961 258.138854 
L 389.551915 261.486085 
L 389.691962 261.364037 
L 389.934001 263.00315 
L 390.067304 262.159685 
L 390.105791 259.34855 
L 390.383762 258.490447 
L 390.514732 262.07969 
L 390.685727 260.187926 
L 390.962055 263.283635 
L 391.167901 262.269244 
L 391.342134 265.679678 
L 391.443244 265.174036 
L 391.511787 268.796344 
L 391.649135 269.530861 
L 391.820587 269.685577 
L 391.926362 269.950763 
L 392.088565 267.814562 
L 392.509916 265.024747 
L 392.646418 261.177033 
L 392.85411 261.662351 
L 392.92573 257.963811 
L 393.064434 257.221739 
L 393.26592 259.724512 
L 393.442376 257.372301 
L 393.505949 259.159404 
L 393.712667 257.382719 
L 393.820253 254.542852 
L 393.925489 255.128264 
L 394.30431 252.121648 
L 394.453838 255.523297 
L 394.515012 253.417402 
L 394.681093 252.996057 
L 394.784383 252.358074 
L 395.060624 254.852974 
L 395.265568 257.110172 
L 395.403593 256.466235 
L 395.505704 257.851525 
L 395.644066 262.225727 
L 395.780942 261.491545 
L 395.921938 262.644483 
L 396.068922 258.381052 
L 396.195321 259.106085 
L 396.502161 258.017908 
L 396.639623 260.892865 
L 396.781263 260.449974 
L 397.054187 263.13738 
L 397.331051 263.993368 
L 397.535394 268.975161 
L 397.961392 266.017601 
L 398.068351 262.905447 
L 398.217393 265.524825 
L 398.236518 264.19566 
L 398.477981 258.082141 
L 398.71909 256.864908 
L 398.787591 258.618632 
L 398.924541 255.120123 
L 399.169799 260.63459 
L 399.315967 258.859108 
L 399.474133 261.874073 
L 399.628796 260.411203 
L 400.440614 266.661096 
L 400.470552 265.914973 
L 400.606883 265.356674 
L 400.749251 266.543631 
L 400.887004 266.326874 
L 401.058647 266.851934 
L 401.16348 266.458375 
L 401.298706 267.565719 
L 401.569537 267.203929 
L 401.74596 263.050736 
L 401.883258 260.228824 
L 402.158118 261.091448 
L 402.329812 259.630832 
L 402.443511 261.743792 
L 402.473125 260.931961 
L 402.712069 256.070635 
L 402.741964 258.170278 
L 402.969195 258.290216 
L 403.020233 256.44101 
L 403.207164 259.115253 
L 403.365067 263.476579 
L 403.607591 259.1344 
L 404.502843 264.484395 
L 404.601974 263.619578 
L 404.882312 265.415197 
L 405.081293 266.570731 
L 405.184544 265.322838 
L 405.528609 268.613345 
L 405.703359 267.366909 
L 405.841086 268.290592 
L 406.009342 272.638583 
L 406.799408 264.630137 
L 406.867748 261.454418 
L 407.08739 260.473503 
L 407.418566 253.535536 
L 407.727337 257.976453 
L 407.831382 255.832593 
L 408.004047 259.489966 
L 408.140715 259.908677 
L 408.44889 265.359493 
L 408.55957 264.750912 
L 408.689279 265.863432 
L 408.862955 265.809633 
L 409.21639 260.792078 
L 409.274572 264.267788 
L 409.445759 263.352344 
L 409.690864 258.031513 
L 410.131379 264.06966 
L 410.269601 264.388603 
L 410.408734 263.607272 
L 410.579774 265.168827 
L 410.685069 264.758104 
L 410.818342 261.511702 
L 411.039217 264.255718 
L 411.248237 262.539613 
L 411.294728 259.837304 
L 411.30748 261.158731 
L 411.409987 261.005877 
L 411.685122 257.441485 
L 411.825773 261.302766 
L 411.962862 260.671617 
L 412.101725 259.106586 
L 412.323867 262.424477 
L 412.386935 260.585056 
L 412.518892 261.497347 
L 412.685871 261.568797 
L 412.822466 259.468632 
L 413.100966 262.074594 
L 413.239048 258.442448 
L 413.409741 260.608024 
L 413.545736 259.414342 
L 413.787174 259.28551 
L 413.924882 260.969363 
L 413.993485 259.517147 
L 414.140971 261.715985 
L 414.307865 261.682896 
L 414.510467 259.577125 
L 414.647368 259.481284 
L 414.789015 256.74341 
L 414.957091 259.31683 
L 415.093593 258.834311 
L 415.264424 258.758147 
L 415.416602 259.744373 
L 415.507751 255.660785 
L 415.650743 257.115265 
L 415.818474 257.672287 
L 415.954709 256.149353 
L 416.126541 257.356279 
L 416.22938 261.211846 
L 416.364571 261.263065 
L 417.294062 271.31251 
L 417.545136 274.131827 
L 417.745164 271.282489 
L 417.950963 265.210223 
L 418.264563 262.754036 
L 418.431589 265.441773 
L 418.501503 264.52504 
L 418.914268 252.820504 
L 419.050159 251.468711 
L 419.323441 255.276695 
L 419.495617 253.349013 
L 419.642699 253.483798 
L 419.794646 250.577746 
L 420.080826 255.145856 
L 420.492498 264.448039 
L 420.631446 262.399746 
L 420.770927 267.711937 
L 421.11238 266.932652 
L 421.217349 270.321226 
L 421.321895 265.723596 
L 421.353387 268.217576 
L 421.489605 269.358451 
L 421.62766 268.669611 
L 421.94768 266.401064 
L 422.219152 267.865978 
L 422.248911 263.996561 
L 422.464202 267.26072 
L 422.627416 261.562994 
L 422.765945 263.507071 
L 423.128598 260.622882 
L 423.365512 263.420707 
L 423.47142 261.992805 
L 423.608309 262.291729 
L 423.919318 259.365444 
L 424.053211 261.419976 
L 424.343131 260.305957 
L 424.477494 260.643275 
L 424.712443 257.73365 
L 424.740199 260.489902 
L 424.877531 262.659428 
L 425.084328 262.646947 
L 425.186157 260.681636 
L 425.499235 259.387295 
L 425.603339 261.671974 
L 425.881342 258.903226 
L 426.117164 258.723005 
L 426.392071 252.186148 
L 426.597363 251.809189 
L 426.73641 253.98536 
L 426.873633 257.10839 
L 427.017237 254.655882 
L 427.208702 257.09244 
L 427.291694 255.253347 
L 427.458188 254.581925 
L 427.599115 255.655179 
L 427.869525 258.713874 
L 428.017084 260.085364 
L 428.318505 255.549626 
L 428.488928 259.161121 
L 428.607073 257.677912 
L 428.876206 265.530695 
L 429.177376 262.540199 
L 429.293045 264.555102 
L 429.497172 264.552429 
L 429.590568 269.795708 
L 429.863642 267.870306 
L 430.001802 268.19758 
L 430.147715 265.686706 
L 430.449481 266.357853 
L 430.760484 264.150706 
L 430.998661 260.136518 
L 431.308852 258.426306 
L 431.340351 258.844054 
L 431.445439 260.615228 
L 431.547688 260.444962 
L 431.856426 259.387463 
L 432.029507 259.286449 
L 432.132157 259.723413 
L 432.26966 258.542428 
L 432.407315 259.9808 
L 432.578302 260.011121 
L 432.719337 257.869738 
L 432.851612 257.961537 
L 432.990033 256.873294 
L 433.128016 254.576943 
L 433.300139 253.911564 
L 433.402561 254.66353 
L 433.653048 254.508017 
L 433.71091 256.096842 
L 433.851222 256.599839 
L 434.171078 259.004837 
L 434.362532 259.870638 
L 434.40087 259.105616 
L 434.538251 259.92278 
L 434.708058 264.014843 
L 434.984824 262.117625 
L 435.119083 264.343621 
L 435.265686 264.874779 
L 435.745379 262.235621 
L 435.850488 263.828137 
L 436.020742 263.973065 
L 436.123001 261.263119 
L 436.467147 266.903432 
L 436.572582 266.926115 
L 436.742782 264.025031 
L 436.816369 266.363758 
L 436.986019 266.792411 
L 437.292743 265.527614 
L 437.534508 262.278023 
L 437.810959 259.353456 
L 437.879523 260.380178 
L 437.981861 259.580828 
L 438.359214 258.283077 
L 438.427931 259.478093 
L 438.635003 260.613482 
L 438.80717 263.375832 
L 439.0866 265.375309 
L 439.253027 263.3738 
L 439.390543 263.961754 
L 439.668089 266.331462 
L 439.80601 265.901765 
L 439.977403 263.731891 
L 440.080266 264.971953 
L 440.215533 262.137177 
L 440.41876 263.103441 
L 440.521021 264.72079 
L 440.669175 265.226653 
L 440.899255 265.533458 
L 440.966976 261.551938 
L 441.344744 255.821144 
L 441.413463 259.005795 
L 441.558304 258.981879 
L 441.792273 263.61504 
L 442.107061 260.881269 
L 442.251612 260.127918 
L 442.651488 269.578396 
L 442.796224 268.207297 
L 443.096683 267.729714 
L 443.342891 262.89131 
L 443.510691 264.73599 
L 443.64793 264.85775 
L 443.785896 266.042405 
L 443.925008 264.727346 
L 444.162124 264.033141 
L 444.231695 261.624296 
L 444.367563 261.207359 
L 444.540362 258.49372 
L 444.714751 261.228614 
L 444.978243 257.734432 
L 445.204511 259.283527 
L 445.423767 256.829988 
L 445.495008 253.849599 
L 445.525826 258.853081 
L 445.642175 259.058644 
L 445.777762 257.82808 
L 445.927163 258.596247 
L 446.049049 258.371754 
L 446.22195 262.371948 
L 446.667288 256.389356 
L 446.773576 259.813919 
L 446.978122 260.855714 
L 446.978455 266.251839 
L 447.051542 260.562832 
L 447.425368 264.477109 
L 447.491995 262.60956 
L 447.631261 263.576085 
L 447.904777 266.797449 
L 448.0432 266.499256 
L 448.191518 266.469475 
L 448.321875 264.123913 
L 448.63 265.692677 
L 449.0372 258.988558 
L 449.314469 257.490429 
L 449.483473 259.014259 
L 449.623546 256.177478 
L 449.759681 256.447856 
L 450.033925 252.639334 
L 450.170794 254.380834 
L 450.321376 257.812531 
L 450.623616 256.96404 
L 450.754745 257.4413 
L 451.031193 259.773149 
L 451.168268 259.336048 
L 451.304775 260.826514 
L 451.452562 259.812079 
L 451.586827 259.814352 
L 451.718815 258.188238 
L 451.891586 259.533922 
L 452.026653 259.610199 
L 452.162834 261.350189 
L 452.441412 260.340916 
L 452.885492 263.029264 
L 453.025906 261.571011 
L 453.164425 262.323239 
L 453.435883 265.930853 
L 453.714332 260.938724 
L 453.85039 263.279042 
L 454.301482 259.391346 
L 454.573001 265.046564 
L 454.75057 262.50698 
L 454.779173 262.683305 
L 454.916771 262.913412 
L 455.126214 266.98936 
L 455.293505 265.47362 
L 455.467647 267.032242 
L 455.571447 270.935714 
L 455.775445 270.217089 
L 455.990897 265.387389 
L 456.154907 266.496843 
L 456.292556 265.589706 
L 456.566701 263.086415 
L 456.703268 265.578432 
L 456.864883 264.703422 
L 456.877309 257.73261 
L 457.012847 263.229979 
L 457.496184 261.083595 
L 457.700315 260.895755 
L 457.836473 260.519247 
L 458.00783 264.239468 
L 458.421985 261.098489 
L 458.557914 262.752057 
L 458.73087 263.439097 
L 458.973803 258.429177 
L 459.210818 259.309906 
L 459.316396 257.942779 
L 459.451734 253.898177 
L 459.660643 253.843994 
L 459.691286 252.630756 
L 459.797065 255.197356 
L 459.966281 252.263106 
L 460.106509 251.968304 
L 460.447405 257.22238 
L 460.551215 256.186292 
L 460.831975 259.54538 
L 460.983069 257.902837 
L 461.243781 259.022679 
L 461.410389 262.179198 
L 461.685881 261.651533 
L 461.801556 264.150699 
L 461.866505 261.16959 
L 461.962601 262.083506 
L 462.205405 259.509105 
L 462.271988 259.956519 
L 462.422524 260.769305 
L 462.520079 258.710087 
L 462.871212 255.962497 
L 462.993877 258.370369 
L 463.169539 258.172027 
L 463.234712 258.746875 
L 463.477125 257.734746 
L 463.513149 258.132798 
L 463.81903 255.427392 
L 463.955826 254.890082 
L 464.095587 254.847948 
L 464.541243 252.624271 
L 464.645369 256.280276 
L 464.988741 258.887142 
L 465.22874 265.7452 
L 465.401364 268.05188 
L 465.549365 268.272636 
L 465.675032 272.761255 
L 465.917025 272.36247 
L 466.225001 264.870572 
L 466.397294 266.517189 
L 466.808679 260.328454 
L 466.946335 260.728222 
L 467.105669 259.790262 
L 467.255029 256.195454 
L 467.291368 256.752114 
L 467.534604 265.278644 
L 467.637075 264.152434 
L 467.805916 259.879548 
L 467.943222 261.657272 
L 468.390842 257.950825 
L 468.494487 259.618888 
L 468.630668 258.036874 
L 468.973316 252.766384 
L 469.113229 251.493913 
L 469.215733 256.063316 
L 469.353287 253.672395 
L 469.820055 263.679316 
L 469.983433 262.004752 
L 470.491874 266.911488 
L 470.664934 263.933387 
L 470.869159 266.55126 
L 471.075132 261.860471 
L 471.213854 257.525899 
L 471.390416 257.321752 
L 471.631878 254.550005 
L 471.765777 255.714865 
L 472.212152 251.827594 
L 472.624075 261.542775 
L 472.77633 261.922656 
L 472.90247 262.843475 
L 473.173171 258.257654 
L 473.383342 255.94373 
L 473.621417 259.458106 
L 474.032662 255.147822 
L 474.171969 257.856591 
L 474.307426 256.224705 
L 474.475042 256.63384 
L 474.610967 256.36412 
L 474.895306 263.38939 
L 475.024522 264.120535 
L 475.33164 260.416836 
L 475.881986 266.780559 
L 476.016637 270.959753 
L 476.29996 268.184121 
L 476.462736 267.671787 
L 476.600103 268.047029 
L 476.88021 270.155882 
L 477.150753 263.957306 
L 477.289789 264.700365 
L 477.432375 261.164219 
L 477.598611 261.219331 
L 477.87127 259.07603 
L 478.012433 261.206627 
L 478.146511 260.417466 
L 478.288719 256.0434 
L 478.426507 255.97122 
L 478.730532 256.623939 
L 478.869165 257.714051 
L 479.00644 256.004958 
L 479.159069 256.118717 
L 479.285472 255.28034 
L 479.432572 255.354581 
L 479.636635 255.059233 
L 479.869788 259.769812 
L 480.002283 260.411653 
L 480.139772 258.047104 
L 480.417524 260.411976 
L 480.450147 260.130468 
L 480.587533 262.687484 
L 480.7585 263.31465 
L 480.86245 262.345416 
L 480.999788 262.716983 
L 481.20877 263.869249 
L 481.418508 258.627872 
L 481.582959 260.333969 
L 481.963275 256.784798 
L 482.065026 253.383085 
L 482.167035 255.161651 
L 482.340828 255.11564 
L 482.442163 259.441109 
L 482.579857 259.516154 
L 482.8227 260.303952 
L 483.000592 259.611096 
L 483.16481 259.584834 
L 483.46194 264.943058 
L 483.542638 264.685384 
L 483.731464 265.061318 
L 483.939004 262.580151 
L 484.006074 265.668647 
L 484.178659 265.391109 
L 484.555706 270.987123 
L 484.693643 271.342769 
L 484.830367 272.89454 
L 485.144168 267.553966 
L 485.416229 261.994962 
L 485.55241 264.202415 
L 485.827447 263.051935 
L 486.27306 257.794487 
L 486.616092 261.39494 
L 486.685158 264.210366 
L 486.891748 264.747465 
L 486.994816 261.869078 
L 487.270707 264.017328 
L 487.408232 262.673088 
L 487.5475 263.69038 
L 487.715178 263.154576 
L 487.824175 263.274194 
L 487.957528 262.761885 
L 488.266619 257.633901 
L 488.405849 260.249676 
L 488.814783 252.417862 
L 488.967029 254.430988 
L 489.107047 253.459338 
L 489.314213 255.839229 
L 489.386085 254.242281 
L 489.527332 255.383528 
L 489.667539 254.895935 
L 489.827853 251.821604 
L 490.108078 255.47995 
L 490.241292 256.196178 
L 490.450266 255.11468 
L 490.592439 255.750059 
L 490.689247 253.646675 
L 490.791837 254.363316 
L 490.929703 256.632204 
L 491.376225 260.892756 
L 491.452225 263.019335 
L 491.514313 261.286294 
L 491.651134 265.29533 
L 491.961573 264.149193 
L 492.101047 266.23266 
L 492.238496 271.084135 
L 492.545236 268.769529 
L 492.685288 267.348944 
L 492.801723 262.254196 
L 492.928682 265.203183 
L 493.06423 262.320337 
L 493.305667 264.031473 
L 493.392955 262.150178 
L 493.619116 261.360733 
L 493.705715 259.954623 
L 494.074797 263.253647 
L 494.336867 264.386045 
L 494.371104 263.549794 
L 494.923854 270.568554 
L 495.063161 269.274999 
L 495.232522 269.550394 
L 495.628284 268.449121 
L 495.7889 266.484949 
L 496.070392 265.759707 
L 496.125998 263.975932 
L 496.23042 265.183867 
L 496.510533 260.146001 
L 496.643086 260.890926 
L 496.793868 262.925401 
L 496.920163 262.121016 
L 497.08789 264.122172 
L 497.248455 268.087796 
L 497.648515 265.007384 
L 497.784213 265.186563 
L 497.924224 265.779351 
L 498.060952 262.227204 
L 498.40118 260.703226 
L 498.468725 260.186247 
L 498.616181 257.67554 
L 498.915489 258.461531 
L 499.089155 260.134669 
L 499.362961 258.761375 
L 499.469259 261.102278 
L 499.711961 260.358221 
L 499.7786 261.088888 
L 499.957862 261.512122 
L 500.089985 264.814579 
L 500.223978 263.849421 
L 500.325543 265.244532 
L 500.471144 265.332197 
L 500.634956 264.76627 
L 501.0535 267.307055 
L 501.151832 267.008412 
L 501.220203 266.999893 
L 501.425759 267.726821 
L 501.597718 262.315606 
L 501.742468 264.534267 
L 501.875581 262.528408 
L 502.012327 264.347729 
L 502.044791 266.929967 
L 502.361473 261.362523 
L 502.460311 261.522354 
L 502.768807 255.55269 
L 502.870972 256.959197 
L 503.07737 257.821838 
L 503.214179 254.20029 
L 503.324365 255.67119 
L 503.491977 255.962711 
L 503.637575 259.760679 
L 504.004846 255.334905 
L 504.110185 259.596335 
L 504.936558 265.200642 
L 505.114511 260.885705 
L 505.276652 262.000856 
L 505.481763 261.318223 
L 505.584232 263.654866 
L 505.723618 260.890101 
L 505.91012 261.537081 
L 506.00893 262.886941 
L 506.144281 260.04312 
L 506.58222 263.935943 
L 506.720594 264.603552 
L 506.858703 266.78606 
L 507.029149 262.408899 
L 507.294166 263.544499 
L 507.309267 264.668342 
L 507.441857 261.780133 
L 507.578667 263.177062 
L 507.796744 263.124123 
L 507.858646 260.706549 
L 508.128679 260.657565 
L 508.300947 258.647542 
L 508.408297 259.711036 
L 508.579871 257.763693 
L 508.712563 253.333173 
L 508.987892 256.543875 
L 509.130957 254.21438 
L 509.577943 261.745977 
L 509.958941 259.302067 
L 509.984684 259.550041 
L 510.191799 266.195327 
L 510.294591 267.7181 
L 510.466611 267.786859 
L 510.568376 268.440579 
L 510.740393 266.195473 
L 510.985815 257.75481 
L 511.254771 258.816963 
L 511.29004 261.776714 
L 511.427575 263.942906 
L 511.706085 257.345907 
L 511.987445 251.919126 
L 512.16607 251.582177 
L 512.333158 251.888954 
L 512.541388 249.266443 
L 512.815645 243.957995 
L 513.087751 245.367568 
L 513.263715 252.529021 
L 513.536827 254.210275 
L 513.643196 252.813011 
L 514.201911 265.988889 
L 514.70609 259.167029 
L 515.014855 263.231523 
L 515.233737 261.93325 
L 515.506921 255.61975 
L 515.68562 259.992242 
L 515.884105 260.029951 
L 515.987086 261.419467 
L 516.090638 264.528596 
L 516.50315 264.534956 
L 516.677608 267.741244 
L 516.836261 270.962231 
L 517.298916 268.677192 
L 517.571256 262.861664 
L 517.571519 253.525975 
L 517.687308 259.468626 
L 517.812179 259.785819 
L 517.983645 259.392 
L 518.121817 259.972978 
L 518.367544 257.035143 
L 518.535092 255.303383 
L 518.757076 254.22794 
L 518.812254 258.010298 
L 519.188795 257.769954 
L 519.258934 257.513007 
L 519.497423 257.44465 
L 519.636435 254.97916 
L 519.708392 256.913149 
L 519.854989 256.435699 
L 520.115396 257.56612 
L 520.379965 260.306692 
L 520.598757 259.064484 
L 520.665821 259.856007 
L 520.768061 259.103241 
L 520.942226 262.027949 
L 521.078349 260.884235 
L 521.214948 260.919943 
L 521.492404 259.702391 
L 521.797826 254.92959 
L 521.95523 256.731311 
L 521.970205 255.902781 
L 522.074719 255.995802 
L 522.406226 253.619102 
L 522.52209 250.816418 
L 522.634154 249.819813 
L 522.797474 250.204948 
L 523.012657 252.935915 
L 523.489267 250.612563 
L 523.621278 251.058882 
L 523.757459 252.006781 
L 523.998842 251.642631 
L 524.242523 247.872257 
L 524.341523 246.877233 
L 524.47927 250.953305 
L 524.719641 251.946804 
L 524.754646 250.782907 
L 524.896943 251.835246 
L 525.246157 252.396426 
L 525.752815 261.398859 
L 525.903275 258.15316 
L 526.096402 257.914416 
L 526.473356 262.135394 
L 526.679998 263.058422 
L 527.203304 258.212543 
L 527.454408 263.995399 
L 527.640897 264.594382 
L 527.744869 262.891725 
L 527.950122 262.935567 
L 528.224123 264.15927 
L 528.466794 265.854443 
L 528.603383 269.739402 
L 528.739773 267.778329 
L 528.878504 270.005199 
L 529.050748 270.106327 
L 529.170122 270.625506 
L 529.325555 267.492698 
L 529.462739 267.19155 
L 529.600712 269.006906 
L 529.737183 269.158898 
L 530.322999 256.317833 
L 530.56729 252.608652 
L 530.72806 252.969525 
L 530.843969 255.30418 
L 530.98454 255.720483 
L 531.04359 257.160728 
L 531.268071 255.583732 
L 531.424233 261.111572 
L 531.765535 263.742988 
L 531.86856 269.356026 
L 532.006723 270.58853 
L 532.213965 270.000669 
L 532.281605 268.422979 
L 532.45368 267.466232 
L 532.557365 265.747346 
L 532.730017 267.167125 
L 532.935551 266.811259 
L 533.07591 267.864074 
L 533.148622 267.477033 
L 533.382139 264.453481 
L 533.484836 264.996228 
L 533.588273 263.039329 
L 533.763811 263.091594 
L 533.896672 262.312629 
L 534.006119 263.00446 
L 534.138107 263.061628 
L 534.346932 260.789393 
L 534.5515 257.133003 
L 534.756663 260.252005 
L 534.859199 257.439687 
L 535.034457 260.021929 
L 535.13381 259.32397 
L 535.306317 259.317042 
L 535.413788 261.287965 
L 535.58029 258.91495 
L 535.727111 260.672191 
L 535.927538 260.309992 
L 536.061427 262.210215 
L 536.198813 259.243422 
L 536.33683 260.319546 
L 536.439827 259.330185 
L 536.577086 260.455824 
L 536.71154 259.193264 
L 536.887061 260.325877 
L 537.126858 264.668797 
L 537.378716 264.122868 
L 537.544516 262.182738 
L 537.848808 264.933395 
L 538.125877 262.048212 
L 538.535553 257.493709 
L 538.880197 260.539101 
L 538.982314 265.901737 
L 539.298275 261.625231 
L 539.396635 262.209762 
L 539.531763 262.042562 
L 539.859268 259.480948 
L 540.253748 256.244751 
L 540.426458 252.389763 
L 540.528793 252.686517 
L 540.699994 254.241357 
L 540.966862 257.41607 
L 541.33492 260.043059 
L 541.541606 264.852658 
L 541.678701 264.143539 
L 541.8241 264.069297 
L 542.162923 266.886165 
L 542.268706 266.900534 
L 542.443204 265.873101 
L 542.524014 263.302601 
L 542.956673 268.34434 
L 543.096633 268.399849 
L 543.301287 267.439264 
L 543.439543 267.442296 
L 543.509847 266.476715 
L 543.645583 267.303487 
L 543.816187 270.430395 
L 543.923326 270.044876 
L 544.091041 267.576701 
L 544.234554 267.354198 
L 544.503231 264.036393 
L 544.640937 265.081854 
L 544.916512 262.173126 
L 545.085775 261.022586 
L 545.227653 260.866522 
L 545.362173 261.096171 
L 545.504516 260.79709 
L 545.643094 256.12757 
L 545.784 255.652277 
L 545.949051 257.058804 
L 546.085811 256.192171 
L 546.221849 258.428759 
L 546.358904 255.505881 
L 546.498875 256.429348 
L 546.669044 253.725379 
L 546.771951 255.988979 
L 546.914295 256.140766 
L 547.050704 258.878071 
L 547.219509 259.948702 
L 547.364291 256.518453 
L 547.684923 257.39772 
L 547.702086 257.158495 
L 547.77144 258.318561 
L 548.08312 257.368264 
L 548.207793 258.170845 
L 548.500964 261.371927 
L 548.638482 260.610117 
L 548.769807 263.145623 
L 548.907736 261.012269 
L 549.04425 261.94089 
L 549.184465 261.606743 
L 549.332498 260.521832 
L 549.459965 261.988563 
L 549.606589 262.250035 
L 549.904349 259.919591 
L 550.042209 261.193042 
L 550.076407 263.749738 
L 550.181255 260.24899 
L 550.319105 264.589254 
L 550.483851 265.337705 
L 550.765559 269.741571 
L 550.902889 268.054474 
L 551.074967 267.937524 
L 551.314329 266.578059 
L 551.76103 266.514007 
L 551.865973 266.368967 
L 552.037038 265.842216 
L 552.276204 264.066517 
L 552.798578 273.195991 
L 552.999386 271.062437 
L 553.169631 272.388329 
L 553.340893 266.541354 
L 553.615399 269.082666 
L 553.724421 266.91972 
L 553.896251 267.751825 
L 554.167799 261.089994 
L 554.340165 262.07556 
L 554.574819 261.82477 
L 554.71786 261.097425 
L 554.85136 256.571158 
L 555.024389 256.960188 
L 555.162341 258.587437 
L 555.301168 255.13679 
L 555.538074 255.556321 
L 555.608101 257.89631 
L 555.778344 257.69813 
L 555.888539 258.46365 
L 555.986534 260.926465 
L 556.213883 260.204196 
L 556.295232 261.535855 
L 556.641009 257.78464 
L 556.914754 258.794096 
L 557.052826 258.866939 
L 557.263704 259.779603 
L 557.531287 257.719662 
L 557.737616 262.741235 
L 557.87607 263.09354 
L 558.021161 265.180387 
L 558.15133 264.888959 
L 558.288546 265.110622 
L 558.501201 262.141777 
L 558.703335 265.791947 
L 558.844652 265.905911 
L 559.161004 261.798126 
L 559.286293 263.579687 
L 559.429886 263.844735 
L 559.630389 262.57757 
L 559.936905 266.238252 
L 560.016459 264.308921 
L 560.161506 266.598569 
L 560.281783 264.25286 
L 560.487123 265.668347 
L 560.55526 267.927215 
L 561.005027 262.289143 
L 561.143494 266.018298 
L 561.209199 260.986308 
L 561.347675 260.345757 
L 561.449521 262.829846 
L 561.56497 259.124321 
L 561.69203 259.656406 
L 561.828214 257.178916 
L 561.860504 257.473165 
L 562.002489 257.272586 
L 562.137756 258.535402 
L 562.243627 261.790393 
L 562.415451 259.054259 
L 562.68516 261.171165 
L 562.829182 258.244451 
L 562.961054 258.287599 
L 563.131628 258.664463 
L 563.24477 261.434725 
L 563.407511 259.5857 
L 563.545607 259.804845 
L 563.721974 259.539196 
L 564.164721 263.190085 
L 564.301832 262.355303 
L 564.839784 256.449842 
L 565.000245 255.670146 
L 565.282767 256.175156 
L 565.531151 250.836266 
L 565.783616 251.556383 
L 565.816233 257.541326 
L 565.848831 256.523491 
L 565.98894 255.114135 
L 566.095912 257.131267 
L 566.261538 256.571692 
L 566.467758 256.305156 
L 566.605423 255.799469 
L 567.09441 261.252924 
L 567.292749 260.120385 
L 567.808276 264.151963 
L 568.047923 261.351852 
L 568.120832 261.370603 
L 568.230954 261.691609 
L 568.701062 254.843602 
L 568.80523 256.99125 
L 569.115344 254.147059 
L 569.390587 252.090598 
L 569.630577 252.420315 
L 569.939538 255.297472 
L 570.078401 258.83347 
L 570.354959 255.331031 
L 570.526172 259.423117 
L 570.630183 258.134438 
L 570.93918 259.453265 
L 571.623727 248.778313 
L 571.835252 253.852473 
L 571.938171 252.114641 
L 572.081677 253.90165 
L 572.215644 254.089795 
L 572.357678 253.808154 
L 572.637755 257.349155 
L 572.768596 261.153321 
L 572.9403 260.540233 
L 573.242871 256.876256 
L 573.456035 255.975585 
L 573.633416 256.595003 
L 573.700002 255.936594 
L 573.777709 252.305712 
L 573.906095 251.825512 
L 574.107253 253.222467 
L 574.214387 249.387466 
L 574.489116 253.972868 
L 574.797284 257.54321 
L 575.004603 253.857269 
L 575.324325 258.347153 
L 575.483382 256.425492 
L 575.771224 257.984801 
L 575.896584 254.778466 
L 576.11683 253.933247 
L 576.172024 251.19874 
L 576.342571 250.147693 
L 576.473871 251.841859 
L 576.781915 252.825752 
L 576.806413 252.763136 
L 577.330679 259.049903 
L 577.493972 258.921377 
L 577.631741 261.733992 
L 577.80656 262.130725 
L 577.912742 258.994175 
L 578.103497 259.520388 
L 578.185265 257.860742 
L 578.368922 257.934177 
L 578.596132 251.699745 
L 578.939964 254.799273 
L 579.179208 258.028521 
L 579.455213 255.69942 
L 579.591428 256.650799 
L 579.799522 255.736001 
L 579.901428 259.515294 
L 580.012278 258.978465 
L 580.312568 254.234164 
L 580.449596 255.246734 
L 580.669415 253.764947 
L 580.76434 257.307926 
L 580.934354 259.394623 
L 581.1735 257.328347 
L 581.312213 254.335806 
L 581.518437 254.963813 
L 581.642387 259.796401 
L 581.756317 259.741884 
L 581.896325 257.032585 
L 582.041229 260.676793 
L 582.312576 258.212758 
L 582.62092 255.769568 
L 582.859736 256.327511 
L 583.10075 257.521148 
L 583.16822 255.359205 
L 583.280779 258.015786 
L 583.375363 257.498333 
L 583.443445 254.40565 
L 583.632182 257.316372 
L 583.725404 255.990729 
L 583.996683 257.048091 
L 584.104191 259.526818 
L 584.238286 259.736558 
L 584.420921 259.074989 
L 584.685361 259.468458 
L 584.754307 258.013347 
L 585.099464 260.411875 
L 585.23414 257.316854 
L 585.303824 258.952434 
L 585.38263 258.757885 
L 585.440795 255.292892 
L 585.583532 257.281211 
L 585.923083 255.145714 
L 586.025814 258.706501 
L 586.166678 254.704842 
L 586.195902 256.436548 
L 586.265447 255.186657 
L 586.515472 260.728893 
L 586.677824 260.863278 
L 586.738046 262.377001 
L 586.895388 260.915844 
L 587.028131 262.867568 
L 587.712299 256.896639 
L 588.090193 249.326628 
L 588.123125 250.874311 
L 588.123125 250.874311 
" clip-path="url(#pbeae998529)" style="fill: none; stroke: #ff0000; stroke-opacity: 0.7; stroke-width: 1.5; stroke-linecap: square"/>
   </g>
   <g id="patch_3">
    <path d="M 30.123125 277.92 
L 30.123125 0.72 
" style="fill: none; stroke: #000000; stroke-width: 0.8; stroke-linejoin: miter; stroke-linecap: square"/>
   </g>
   <g id="patch_4">
    <path d="M 588.123125 277.92 
L 588.123125 0.72 
" style="fill: none; stroke: #000000; stroke-width: 0.8; stroke-linejoin: miter; stroke-linecap: square"/>
   </g>
   <g id="patch_5">
    <path d="M 30.123125 277.92 
L 588.123125 277.92 
" style="fill: none; stroke: #000000; stroke-width: 0.8; stroke-linejoin: miter; stroke-linecap: square"/>
   </g>
   <g id="patch_6">
    <path d="M 30.123125 0.72 
L 588.123125 0.72 
" style="fill: none; stroke: #000000; stroke-width: 0.8; stroke-linejoin: miter; stroke-linecap: square"/>
   </g>
   <g id="legend_1">
    <g id="patch_7">
     <path d="M 507.354375 38.07625 
L 581.123125 38.07625 
Q 583.123125 38.07625 583.123125 36.07625 
L 583.123125 7.72 
Q 583.123125 5.72 581.123125 5.72 
L 507.354375 5.72 
Q 505.354375 5.72 505.354375 7.72 
L 505.354375 36.07625 
Q 505.354375 38.07625 507.354375 38.07625 
z
" style="fill: #ffffff; opacity: 0.8; stroke: #cccccc; stroke-linejoin: miter"/>
    </g>
    <g id="line2d_29">
     <path d="M 509.354375 13.818438 
L 519.354375 13.818438 
L 529.354375 13.818438 
" style="fill: none; stroke: #0000ff; stroke-opacity: 0.7; stroke-width: 1.5; stroke-linecap: square"/>
    </g>
    <g id="text_16">
     <!-- RNEA -->
     <g transform="translate(537.354375 17.318438) scale(0.1 -0.1)">
      <defs>
       <path id="DejaVuSans-52" d="M 2841 2188 
Q 3044 2119 3236 1894 
Q 3428 1669 3622 1275 
L 4263 0 
L 3584 0 
L 2988 1197 
Q 2756 1666 2539 1819 
Q 2322 1972 1947 1972 
L 1259 1972 
L 1259 0 
L 628 0 
L 628 4666 
L 2053 4666 
Q 2853 4666 3247 4331 
Q 3641 3997 3641 3322 
Q 3641 2881 3436 2590 
Q 3231 2300 2841 2188 
z
M 1259 4147 
L 1259 2491 
L 2053 2491 
Q 2509 2491 2742 2702 
Q 2975 2913 2975 3322 
Q 2975 3731 2742 3939 
Q 2509 4147 2053 4147 
L 1259 4147 
z
" transform="scale(0.015625)"/>
       <path id="DejaVuSans-45" d="M 628 4666 
L 3578 4666 
L 3578 4134 
L 1259 4134 
L 1259 2753 
L 3481 2753 
L 3481 2222 
L 1259 2222 
L 1259 531 
L 3634 531 
L 3634 0 
L 628 0 
L 628 4666 
z
" transform="scale(0.015625)"/>
       <path id="DejaVuSans-41" d="M 2188 4044 
L 1331 1722 
L 3047 1722 
L 2188 4044 
z
M 1831 4666 
L 2547 4666 
L 4325 0 
L 3669 0 
L 3244 1197 
L 1141 1197 
L 716 0 
L 50 0 
L 1831 4666 
z
" transform="scale(0.015625)"/>
      </defs>
      <use xlink:href="#DejaVuSans-52"/>
      <use xlink:href="#DejaVuSans-4e" x="69.482422"/>
      <use xlink:href="#DejaVuSans-45" x="144.287109"/>
      <use xlink:href="#DejaVuSans-41" x="207.470703"/>
     </g>
    </g>
    <g id="line2d_30">
     <path d="M 509.354375 28.496563 
L 519.354375 28.496563 
L 529.354375 28.496563 
" style="fill: none; stroke: #ff0000; stroke-opacity: 0.7; stroke-width: 1.5; stroke-linecap: square"/>
    </g>
    <g id="text_17">
     <!-- BURNEA -->
     <g transform="translate(537.354375 31.996563) scale(0.1 -0.1)">
      <defs>
       <path id="DejaVuSans-42" d="M 1259 2228 
L 1259 519 
L 2272 519 
Q 2781 519 3026 730 
Q 3272 941 3272 1375 
Q 3272 1813 3026 2020 
Q 2781 2228 2272 2228 
L 1259 2228 
z
M 1259 4147 
L 1259 2741 
L 2194 2741 
Q 2656 2741 2882 2914 
Q 3109 3088 3109 3444 
Q 3109 3797 2882 3972 
Q 2656 4147 2194 4147 
L 1259 4147 
z
M 628 4666 
L 2241 4666 
Q 2963 4666 3353 4366 
Q 3744 4066 3744 3513 
Q 3744 3084 3544 2831 
Q 3344 2578 2956 2516 
Q 3422 2416 3680 2098 
Q 3938 1781 3938 1306 
Q 3938 681 3513 340 
Q 3088 0 2303 0 
L 628 0 
L 628 4666 
z
" transform="scale(0.015625)"/>
       <path id="DejaVuSans-55" d="M 556 4666 
L 1191 4666 
L 1191 1831 
Q 1191 1081 1462 751 
Q 1734 422 2344 422 
Q 2950 422 3222 751 
Q 3494 1081 3494 1831 
L 3494 4666 
L 4128 4666 
L 4128 1753 
Q 4128 841 3676 375 
Q 3225 -91 2344 -91 
Q 1459 -91 1007 375 
Q 556 841 556 1753 
L 556 4666 
z
" transform="scale(0.015625)"/>
      </defs>
      <use xlink:href="#DejaVuSans-42"/>
      <use xlink:href="#DejaVuSans-55" x="68.603516"/>
      <use xlink:href="#DejaVuSans-52" x="141.796875"/>
      <use xlink:href="#DejaVuSans-4e" x="211.279297"/>
      <use xlink:href="#DejaVuSans-45" x="286.083984"/>
      <use xlink:href="#DejaVuSans-41" x="349.267578"/>
     </g>
    </g>
   </g>
  </g>
 </g>
 <defs>
  <clipPath id="pbeae998529">
   <rect x="30.123125" y="0.72" width="558" height="277.2"/>
  </clipPath>
 </defs>
</svg>
