<?xml version="1.0" encoding="utf-8" standalone="no"?>
<!DOCTYPE svg PUBLIC "-//W3C//DTD SVG 1.1//EN"
  "http://www.w3.org/Graphics/SVG/1.1/DTD/svg11.dtd">
<svg xmlns:xlink="http://www.w3.org/1999/xlink" width="592.02125pt" height="304.99625pt" viewBox="0 0 592.02125 304.99625" xmlns="http://www.w3.org/2000/svg" version="1.1">
 <metadata>
  <rdf:RDF xmlns:dc="http://purl.org/dc/elements/1.1/" xmlns:cc="http://creativecommons.org/ns#" xmlns:rdf="http://www.w3.org/1999/02/22-rdf-syntax-ns#">
   <cc:Work>
    <dc:type rdf:resource="http://purl.org/dc/dcmitype/StillImage"/>
    <dc:date>2023-09-05T22:09:09.915234</dc:date>
    <dc:format>image/svg+xml</dc:format>
    <dc:creator>
     <cc:Agent>
      <dc:title>Matplotlib v3.7.2, https://matplotlib.org/</dc:title>
     </cc:Agent>
    </dc:creator>
   </cc:Work>
  </rdf:RDF>
 </metadata>
 <defs>
  <style type="text/css">*{stroke-linejoin: round; stroke-linecap: butt}</style>
 </defs>
 <g id="figure_1">
  <g id="patch_1">
   <path d="M 0 304.99625 
L 592.02125 304.99625 
L 592.02125 0 
L 0 0 
L 0 304.99625 
z
" style="fill: none"/>
  </g>
  <g id="axes_1">
   <g id="patch_2">
    <path d="M 33.30125 277.92 
L 591.30125 277.92 
L 591.30125 0.72 
L 33.30125 0.72 
L 33.30125 277.92 
z
" style="fill: none"/>
   </g>
   <g id="matplotlib.axis_1">
    <g id="xtick_1">
     <g id="line2d_1">
      <path d="M 33.30125 277.92 
L 33.30125 0.72 
" clip-path="url(#p94451f768b)" style="fill: none; stroke-dasharray: 0.8,1.32; stroke-dashoffset: 0; stroke: #000000; stroke-opacity: 0.5; stroke-width: 0.8"/>
     </g>
     <g id="line2d_2">
      <defs>
       <path id="m85157f12c9" d="M 0 0 
L 0 3.5 
" style="stroke: #000000; stroke-width: 0.8"/>
      </defs>
      <g>
       <use xlink:href="#m85157f12c9" x="33.30125" y="277.92" style="stroke: #000000; stroke-width: 0.8"/>
      </g>
     </g>
     <g id="text_1">
      <!-- 0 -->
      <g transform="translate(30.12 292.518438) scale(0.1 -0.1)">
       <defs>
        <path id="DejaVuSans-30" d="M 2034 4250 
Q 1547 4250 1301 3770 
Q 1056 3291 1056 2328 
Q 1056 1369 1301 889 
Q 1547 409 2034 409 
Q 2525 409 2770 889 
Q 3016 1369 3016 2328 
Q 3016 3291 2770 3770 
Q 2525 4250 2034 4250 
z
M 2034 4750 
Q 2819 4750 3233 4129 
Q 3647 3509 3647 2328 
Q 3647 1150 3233 529 
Q 2819 -91 2034 -91 
Q 1250 -91 836 529 
Q 422 1150 422 2328 
Q 422 3509 836 4129 
Q 1250 4750 2034 4750 
z
" transform="scale(0.015625)"/>
       </defs>
       <use xlink:href="#DejaVuSans-30"/>
      </g>
     </g>
    </g>
    <g id="xtick_2">
     <g id="line2d_3">
      <path d="M 118.531051 277.92 
L 118.531051 0.72 
" clip-path="url(#p94451f768b)" style="fill: none; stroke-dasharray: 0.8,1.32; stroke-dashoffset: 0; stroke: #000000; stroke-opacity: 0.5; stroke-width: 0.8"/>
     </g>
     <g id="line2d_4">
      <g>
       <use xlink:href="#m85157f12c9" x="118.531051" y="277.92" style="stroke: #000000; stroke-width: 0.8"/>
      </g>
     </g>
     <g id="text_2">
      <!-- 5 -->
      <g transform="translate(115.349801 292.518438) scale(0.1 -0.1)">
       <defs>
        <path id="DejaVuSans-35" d="M 691 4666 
L 3169 4666 
L 3169 4134 
L 1269 4134 
L 1269 2991 
Q 1406 3038 1543 3061 
Q 1681 3084 1819 3084 
Q 2600 3084 3056 2656 
Q 3513 2228 3513 1497 
Q 3513 744 3044 326 
Q 2575 -91 1722 -91 
Q 1428 -91 1123 -41 
Q 819 9 494 109 
L 494 744 
Q 775 591 1075 516 
Q 1375 441 1709 441 
Q 2250 441 2565 725 
Q 2881 1009 2881 1497 
Q 2881 1984 2565 2268 
Q 2250 2553 1709 2553 
Q 1456 2553 1204 2497 
Q 953 2441 691 2322 
L 691 4666 
z
" transform="scale(0.015625)"/>
       </defs>
       <use xlink:href="#DejaVuSans-35"/>
      </g>
     </g>
    </g>
    <g id="xtick_3">
     <g id="line2d_5">
      <path d="M 203.760852 277.92 
L 203.760852 0.72 
" clip-path="url(#p94451f768b)" style="fill: none; stroke-dasharray: 0.8,1.32; stroke-dashoffset: 0; stroke: #000000; stroke-opacity: 0.5; stroke-width: 0.8"/>
     </g>
     <g id="line2d_6">
      <g>
       <use xlink:href="#m85157f12c9" x="203.760852" y="277.92" style="stroke: #000000; stroke-width: 0.8"/>
      </g>
     </g>
     <g id="text_3">
      <!-- 10 -->
      <g transform="translate(197.398352 292.518438) scale(0.1 -0.1)">
       <defs>
        <path id="DejaVuSans-31" d="M 794 531 
L 1825 531 
L 1825 4091 
L 703 3866 
L 703 4441 
L 1819 4666 
L 2450 4666 
L 2450 531 
L 3481 531 
L 3481 0 
L 794 0 
L 794 531 
z
" transform="scale(0.015625)"/>
       </defs>
       <use xlink:href="#DejaVuSans-31"/>
       <use xlink:href="#DejaVuSans-30" x="63.623047"/>
      </g>
     </g>
    </g>
    <g id="xtick_4">
     <g id="line2d_7">
      <path d="M 288.990653 277.92 
L 288.990653 0.72 
" clip-path="url(#p94451f768b)" style="fill: none; stroke-dasharray: 0.8,1.32; stroke-dashoffset: 0; stroke: #000000; stroke-opacity: 0.5; stroke-width: 0.8"/>
     </g>
     <g id="line2d_8">
      <g>
       <use xlink:href="#m85157f12c9" x="288.990653" y="277.92" style="stroke: #000000; stroke-width: 0.8"/>
      </g>
     </g>
     <g id="text_4">
      <!-- 15 -->
      <g transform="translate(282.628153 292.518438) scale(0.1 -0.1)">
       <use xlink:href="#DejaVuSans-31"/>
       <use xlink:href="#DejaVuSans-35" x="63.623047"/>
      </g>
     </g>
    </g>
    <g id="xtick_5">
     <g id="line2d_9">
      <path d="M 374.220454 277.92 
L 374.220454 0.72 
" clip-path="url(#p94451f768b)" style="fill: none; stroke-dasharray: 0.8,1.32; stroke-dashoffset: 0; stroke: #000000; stroke-opacity: 0.5; stroke-width: 0.8"/>
     </g>
     <g id="line2d_10">
      <g>
       <use xlink:href="#m85157f12c9" x="374.220454" y="277.92" style="stroke: #000000; stroke-width: 0.8"/>
      </g>
     </g>
     <g id="text_5">
      <!-- 20 -->
      <g transform="translate(367.857954 292.518438) scale(0.1 -0.1)">
       <defs>
        <path id="DejaVuSans-32" d="M 1228 531 
L 3431 531 
L 3431 0 
L 469 0 
L 469 531 
Q 828 903 1448 1529 
Q 2069 2156 2228 2338 
Q 2531 2678 2651 2914 
Q 2772 3150 2772 3378 
Q 2772 3750 2511 3984 
Q 2250 4219 1831 4219 
Q 1534 4219 1204 4116 
Q 875 4013 500 3803 
L 500 4441 
Q 881 4594 1212 4672 
Q 1544 4750 1819 4750 
Q 2544 4750 2975 4387 
Q 3406 4025 3406 3419 
Q 3406 3131 3298 2873 
Q 3191 2616 2906 2266 
Q 2828 2175 2409 1742 
Q 1991 1309 1228 531 
z
" transform="scale(0.015625)"/>
       </defs>
       <use xlink:href="#DejaVuSans-32"/>
       <use xlink:href="#DejaVuSans-30" x="63.623047"/>
      </g>
     </g>
    </g>
    <g id="xtick_6">
     <g id="line2d_11">
      <path d="M 459.450255 277.92 
L 459.450255 0.72 
" clip-path="url(#p94451f768b)" style="fill: none; stroke-dasharray: 0.8,1.32; stroke-dashoffset: 0; stroke: #000000; stroke-opacity: 0.5; stroke-width: 0.8"/>
     </g>
     <g id="line2d_12">
      <g>
       <use xlink:href="#m85157f12c9" x="459.450255" y="277.92" style="stroke: #000000; stroke-width: 0.8"/>
      </g>
     </g>
     <g id="text_6">
      <!-- 25 -->
      <g transform="translate(453.087755 292.518438) scale(0.1 -0.1)">
       <use xlink:href="#DejaVuSans-32"/>
       <use xlink:href="#DejaVuSans-35" x="63.623047"/>
      </g>
     </g>
    </g>
    <g id="xtick_7">
     <g id="line2d_13">
      <path d="M 544.680056 277.92 
L 544.680056 0.72 
" clip-path="url(#p94451f768b)" style="fill: none; stroke-dasharray: 0.8,1.32; stroke-dashoffset: 0; stroke: #000000; stroke-opacity: 0.5; stroke-width: 0.8"/>
     </g>
     <g id="line2d_14">
      <g>
       <use xlink:href="#m85157f12c9" x="544.680056" y="277.92" style="stroke: #000000; stroke-width: 0.8"/>
      </g>
     </g>
     <g id="text_7">
      <!-- 30 -->
      <g transform="translate(538.317556 292.518438) scale(0.1 -0.1)">
       <defs>
        <path id="DejaVuSans-33" d="M 2597 2516 
Q 3050 2419 3304 2112 
Q 3559 1806 3559 1356 
Q 3559 666 3084 287 
Q 2609 -91 1734 -91 
Q 1441 -91 1130 -33 
Q 819 25 488 141 
L 488 750 
Q 750 597 1062 519 
Q 1375 441 1716 441 
Q 2309 441 2620 675 
Q 2931 909 2931 1356 
Q 2931 1769 2642 2001 
Q 2353 2234 1838 2234 
L 1294 2234 
L 1294 2753 
L 1863 2753 
Q 2328 2753 2575 2939 
Q 2822 3125 2822 3475 
Q 2822 3834 2567 4026 
Q 2313 4219 1838 4219 
Q 1578 4219 1281 4162 
Q 984 4106 628 3988 
L 628 4550 
Q 988 4650 1302 4700 
Q 1616 4750 1894 4750 
Q 2613 4750 3031 4423 
Q 3450 4097 3450 3541 
Q 3450 3153 3228 2886 
Q 3006 2619 2597 2516 
z
" transform="scale(0.015625)"/>
       </defs>
       <use xlink:href="#DejaVuSans-33"/>
       <use xlink:href="#DejaVuSans-30" x="63.623047"/>
      </g>
     </g>
    </g>
    <g id="text_8">
     <!-- Zeit [s] -->
     <g transform="translate(294.355156 302.196563) scale(0.1 -0.1)">
      <defs>
       <path id="DejaVuSans-5a" d="M 359 4666 
L 4025 4666 
L 4025 4184 
L 1075 531 
L 4097 531 
L 4097 0 
L 288 0 
L 288 481 
L 3238 4134 
L 359 4134 
L 359 4666 
z
" transform="scale(0.015625)"/>
       <path id="DejaVuSans-65" d="M 3597 1894 
L 3597 1613 
L 953 1613 
Q 991 1019 1311 708 
Q 1631 397 2203 397 
Q 2534 397 2845 478 
Q 3156 559 3463 722 
L 3463 178 
Q 3153 47 2828 -22 
Q 2503 -91 2169 -91 
Q 1331 -91 842 396 
Q 353 884 353 1716 
Q 353 2575 817 3079 
Q 1281 3584 2069 3584 
Q 2775 3584 3186 3129 
Q 3597 2675 3597 1894 
z
M 3022 2063 
Q 3016 2534 2758 2815 
Q 2500 3097 2075 3097 
Q 1594 3097 1305 2825 
Q 1016 2553 972 2059 
L 3022 2063 
z
" transform="scale(0.015625)"/>
       <path id="DejaVuSans-69" d="M 603 3500 
L 1178 3500 
L 1178 0 
L 603 0 
L 603 3500 
z
M 603 4863 
L 1178 4863 
L 1178 4134 
L 603 4134 
L 603 4863 
z
" transform="scale(0.015625)"/>
       <path id="DejaVuSans-74" d="M 1172 4494 
L 1172 3500 
L 2356 3500 
L 2356 3053 
L 1172 3053 
L 1172 1153 
Q 1172 725 1289 603 
Q 1406 481 1766 481 
L 2356 481 
L 2356 0 
L 1766 0 
Q 1100 0 847 248 
Q 594 497 594 1153 
L 594 3053 
L 172 3053 
L 172 3500 
L 594 3500 
L 594 4494 
L 1172 4494 
z
" transform="scale(0.015625)"/>
       <path id="DejaVuSans-20" transform="scale(0.015625)"/>
       <path id="DejaVuSans-5b" d="M 550 4863 
L 1875 4863 
L 1875 4416 
L 1125 4416 
L 1125 -397 
L 1875 -397 
L 1875 -844 
L 550 -844 
L 550 4863 
z
" transform="scale(0.015625)"/>
       <path id="DejaVuSans-73" d="M 2834 3397 
L 2834 2853 
Q 2591 2978 2328 3040 
Q 2066 3103 1784 3103 
Q 1356 3103 1142 2972 
Q 928 2841 928 2578 
Q 928 2378 1081 2264 
Q 1234 2150 1697 2047 
L 1894 2003 
Q 2506 1872 2764 1633 
Q 3022 1394 3022 966 
Q 3022 478 2636 193 
Q 2250 -91 1575 -91 
Q 1294 -91 989 -36 
Q 684 19 347 128 
L 347 722 
Q 666 556 975 473 
Q 1284 391 1588 391 
Q 1994 391 2212 530 
Q 2431 669 2431 922 
Q 2431 1156 2273 1281 
Q 2116 1406 1581 1522 
L 1381 1569 
Q 847 1681 609 1914 
Q 372 2147 372 2553 
Q 372 3047 722 3315 
Q 1072 3584 1716 3584 
Q 2034 3584 2315 3537 
Q 2597 3491 2834 3397 
z
" transform="scale(0.015625)"/>
       <path id="DejaVuSans-5d" d="M 1947 4863 
L 1947 -844 
L 622 -844 
L 622 -397 
L 1369 -397 
L 1369 4416 
L 622 4416 
L 622 4863 
L 1947 4863 
z
" transform="scale(0.015625)"/>
      </defs>
      <use xlink:href="#DejaVuSans-5a"/>
      <use xlink:href="#DejaVuSans-65" x="68.505859"/>
      <use xlink:href="#DejaVuSans-69" x="130.029297"/>
      <use xlink:href="#DejaVuSans-74" x="157.8125"/>
      <use xlink:href="#DejaVuSans-20" x="197.021484"/>
      <use xlink:href="#DejaVuSans-5b" x="228.808594"/>
      <use xlink:href="#DejaVuSans-73" x="267.822266"/>
      <use xlink:href="#DejaVuSans-5d" x="319.921875"/>
     </g>
    </g>
   </g>
   <g id="matplotlib.axis_2">
    <g id="ytick_1">
     <g id="line2d_15">
      <path d="M 33.30125 277.895567 
L 591.30125 277.895567 
" clip-path="url(#p94451f768b)" style="fill: none; stroke-dasharray: 0.8,1.32; stroke-dashoffset: 0; stroke: #000000; stroke-opacity: 0.5; stroke-width: 0.8"/>
     </g>
     <g id="line2d_16">
      <defs>
       <path id="m509d465d9b" d="M 0 0 
L -3.5 0 
" style="stroke: #000000; stroke-width: 0.8"/>
      </defs>
      <g>
       <use xlink:href="#m509d465d9b" x="33.30125" y="277.895567" style="stroke: #000000; stroke-width: 0.8"/>
      </g>
     </g>
     <g id="text_9">
      <!-- 0.0 -->
      <g transform="translate(10.398125 281.694786) scale(0.1 -0.1)">
       <defs>
        <path id="DejaVuSans-2e" d="M 684 794 
L 1344 794 
L 1344 0 
L 684 0 
L 684 794 
z
" transform="scale(0.015625)"/>
       </defs>
       <use xlink:href="#DejaVuSans-30"/>
       <use xlink:href="#DejaVuSans-2e" x="63.623047"/>
       <use xlink:href="#DejaVuSans-30" x="95.410156"/>
      </g>
     </g>
    </g>
    <g id="ytick_2">
     <g id="line2d_17">
      <path d="M 33.30125 217.855946 
L 591.30125 217.855946 
" clip-path="url(#p94451f768b)" style="fill: none; stroke-dasharray: 0.8,1.32; stroke-dashoffset: 0; stroke: #000000; stroke-opacity: 0.5; stroke-width: 0.8"/>
     </g>
     <g id="line2d_18">
      <g>
       <use xlink:href="#m509d465d9b" x="33.30125" y="217.855946" style="stroke: #000000; stroke-width: 0.8"/>
      </g>
     </g>
     <g id="text_10">
      <!-- 0.5 -->
      <g transform="translate(10.398125 221.655165) scale(0.1 -0.1)">
       <use xlink:href="#DejaVuSans-30"/>
       <use xlink:href="#DejaVuSans-2e" x="63.623047"/>
       <use xlink:href="#DejaVuSans-35" x="95.410156"/>
      </g>
     </g>
    </g>
    <g id="ytick_3">
     <g id="line2d_19">
      <path d="M 33.30125 157.816325 
L 591.30125 157.816325 
" clip-path="url(#p94451f768b)" style="fill: none; stroke-dasharray: 0.8,1.32; stroke-dashoffset: 0; stroke: #000000; stroke-opacity: 0.5; stroke-width: 0.8"/>
     </g>
     <g id="line2d_20">
      <g>
       <use xlink:href="#m509d465d9b" x="33.30125" y="157.816325" style="stroke: #000000; stroke-width: 0.8"/>
      </g>
     </g>
     <g id="text_11">
      <!-- 1.0 -->
      <g transform="translate(10.398125 161.615544) scale(0.1 -0.1)">
       <use xlink:href="#DejaVuSans-31"/>
       <use xlink:href="#DejaVuSans-2e" x="63.623047"/>
       <use xlink:href="#DejaVuSans-30" x="95.410156"/>
      </g>
     </g>
    </g>
    <g id="ytick_4">
     <g id="line2d_21">
      <path d="M 33.30125 97.776704 
L 591.30125 97.776704 
" clip-path="url(#p94451f768b)" style="fill: none; stroke-dasharray: 0.8,1.32; stroke-dashoffset: 0; stroke: #000000; stroke-opacity: 0.5; stroke-width: 0.8"/>
     </g>
     <g id="line2d_22">
      <g>
       <use xlink:href="#m509d465d9b" x="33.30125" y="97.776704" style="stroke: #000000; stroke-width: 0.8"/>
      </g>
     </g>
     <g id="text_12">
      <!-- 1.5 -->
      <g transform="translate(10.398125 101.575923) scale(0.1 -0.1)">
       <use xlink:href="#DejaVuSans-31"/>
       <use xlink:href="#DejaVuSans-2e" x="63.623047"/>
       <use xlink:href="#DejaVuSans-35" x="95.410156"/>
      </g>
     </g>
    </g>
    <g id="ytick_5">
     <g id="line2d_23">
      <path d="M 33.30125 37.737083 
L 591.30125 37.737083 
" clip-path="url(#p94451f768b)" style="fill: none; stroke-dasharray: 0.8,1.32; stroke-dashoffset: 0; stroke: #000000; stroke-opacity: 0.5; stroke-width: 0.8"/>
     </g>
     <g id="line2d_24">
      <g>
       <use xlink:href="#m509d465d9b" x="33.30125" y="37.737083" style="stroke: #000000; stroke-width: 0.8"/>
      </g>
     </g>
     <g id="text_13">
      <!-- 2.0 -->
      <g transform="translate(10.398125 41.536302) scale(0.1 -0.1)">
       <use xlink:href="#DejaVuSans-32"/>
       <use xlink:href="#DejaVuSans-2e" x="63.623047"/>
       <use xlink:href="#DejaVuSans-30" x="95.410156"/>
      </g>
     </g>
    </g>
    <g id="text_14">
     <!-- Drehmoment [Nm] -->
     <g transform="translate(8.318438 186.465313) rotate(-90) scale(0.1 -0.1)">
      <defs>
       <path id="DejaVuSans-44" d="M 1259 4147 
L 1259 519 
L 2022 519 
Q 2988 519 3436 956 
Q 3884 1394 3884 2338 
Q 3884 3275 3436 3711 
Q 2988 4147 2022 4147 
L 1259 4147 
z
M 628 4666 
L 1925 4666 
Q 3281 4666 3915 4102 
Q 4550 3538 4550 2338 
Q 4550 1131 3912 565 
Q 3275 0 1925 0 
L 628 0 
L 628 4666 
z
" transform="scale(0.015625)"/>
       <path id="DejaVuSans-72" d="M 2631 2963 
Q 2534 3019 2420 3045 
Q 2306 3072 2169 3072 
Q 1681 3072 1420 2755 
Q 1159 2438 1159 1844 
L 1159 0 
L 581 0 
L 581 3500 
L 1159 3500 
L 1159 2956 
Q 1341 3275 1631 3429 
Q 1922 3584 2338 3584 
Q 2397 3584 2469 3576 
Q 2541 3569 2628 3553 
L 2631 2963 
z
" transform="scale(0.015625)"/>
       <path id="DejaVuSans-68" d="M 3513 2113 
L 3513 0 
L 2938 0 
L 2938 2094 
Q 2938 2591 2744 2837 
Q 2550 3084 2163 3084 
Q 1697 3084 1428 2787 
Q 1159 2491 1159 1978 
L 1159 0 
L 581 0 
L 581 4863 
L 1159 4863 
L 1159 2956 
Q 1366 3272 1645 3428 
Q 1925 3584 2291 3584 
Q 2894 3584 3203 3211 
Q 3513 2838 3513 2113 
z
" transform="scale(0.015625)"/>
       <path id="DejaVuSans-6d" d="M 3328 2828 
Q 3544 3216 3844 3400 
Q 4144 3584 4550 3584 
Q 5097 3584 5394 3201 
Q 5691 2819 5691 2113 
L 5691 0 
L 5113 0 
L 5113 2094 
Q 5113 2597 4934 2840 
Q 4756 3084 4391 3084 
Q 3944 3084 3684 2787 
Q 3425 2491 3425 1978 
L 3425 0 
L 2847 0 
L 2847 2094 
Q 2847 2600 2669 2842 
Q 2491 3084 2119 3084 
Q 1678 3084 1418 2786 
Q 1159 2488 1159 1978 
L 1159 0 
L 581 0 
L 581 3500 
L 1159 3500 
L 1159 2956 
Q 1356 3278 1631 3431 
Q 1906 3584 2284 3584 
Q 2666 3584 2933 3390 
Q 3200 3197 3328 2828 
z
" transform="scale(0.015625)"/>
       <path id="DejaVuSans-6f" d="M 1959 3097 
Q 1497 3097 1228 2736 
Q 959 2375 959 1747 
Q 959 1119 1226 758 
Q 1494 397 1959 397 
Q 2419 397 2687 759 
Q 2956 1122 2956 1747 
Q 2956 2369 2687 2733 
Q 2419 3097 1959 3097 
z
M 1959 3584 
Q 2709 3584 3137 3096 
Q 3566 2609 3566 1747 
Q 3566 888 3137 398 
Q 2709 -91 1959 -91 
Q 1206 -91 779 398 
Q 353 888 353 1747 
Q 353 2609 779 3096 
Q 1206 3584 1959 3584 
z
" transform="scale(0.015625)"/>
       <path id="DejaVuSans-6e" d="M 3513 2113 
L 3513 0 
L 2938 0 
L 2938 2094 
Q 2938 2591 2744 2837 
Q 2550 3084 2163 3084 
Q 1697 3084 1428 2787 
Q 1159 2491 1159 1978 
L 1159 0 
L 581 0 
L 581 3500 
L 1159 3500 
L 1159 2956 
Q 1366 3272 1645 3428 
Q 1925 3584 2291 3584 
Q 2894 3584 3203 3211 
Q 3513 2838 3513 2113 
z
" transform="scale(0.015625)"/>
       <path id="DejaVuSans-4e" d="M 628 4666 
L 1478 4666 
L 3547 763 
L 3547 4666 
L 4159 4666 
L 4159 0 
L 3309 0 
L 1241 3903 
L 1241 0 
L 628 0 
L 628 4666 
z
" transform="scale(0.015625)"/>
      </defs>
      <use xlink:href="#DejaVuSans-44"/>
      <use xlink:href="#DejaVuSans-72" x="77.001953"/>
      <use xlink:href="#DejaVuSans-65" x="115.865234"/>
      <use xlink:href="#DejaVuSans-68" x="177.388672"/>
      <use xlink:href="#DejaVuSans-6d" x="240.767578"/>
      <use xlink:href="#DejaVuSans-6f" x="338.179688"/>
      <use xlink:href="#DejaVuSans-6d" x="399.361328"/>
      <use xlink:href="#DejaVuSans-65" x="496.773438"/>
      <use xlink:href="#DejaVuSans-6e" x="558.296875"/>
      <use xlink:href="#DejaVuSans-74" x="621.675781"/>
      <use xlink:href="#DejaVuSans-20" x="660.884766"/>
      <use xlink:href="#DejaVuSans-5b" x="692.671875"/>
      <use xlink:href="#DejaVuSans-4e" x="731.685547"/>
      <use xlink:href="#DejaVuSans-6d" x="806.490234"/>
      <use xlink:href="#DejaVuSans-5d" x="903.902344"/>
     </g>
    </g>
   </g>
   <g id="line2d_25">
    <path d="M 33.30125 277.874825 
L 33.715949 277.892273 
L 35.985716 277.87468 
L 36.876819 277.905931 
L 37.290984 277.887837 
L 38.391782 277.879939 
L 43.211649 277.870388 
L 43.769178 277.87553 
L 46.032658 277.871778 
L 48.510985 277.893654 
L 49.372821 277.882688 
L 49.884229 277.904198 
L 50.44454 277.882752 
L 52.445867 277.876475 
L 57.871306 277.892227 
L 58.171737 277.883675 
L 60.687673 277.90826 
L 61.409064 277.873331 
L 62.198138 277.883715 
L 62.815938 277.881915 
L 78.36352 277.891468 
L 159.584559 277.885072 
L 160.133484 277.859737 
L 161.992148 277.885937 
L 163.125587 277.86807 
L 164.810038 277.897107 
L 165.816277 277.880965 
L 167.664336 277.882743 
L 170.39003 277.882555 
L 171.83019 277.882532 
L 173.379678 277.888267 
L 179.166923 277.879247 
L 187.852667 277.87087 
L 188.541947 277.877657 
L 193.092775 277.88738 
L 194.090794 277.884214 
L 195.101581 277.887373 
L 195.95183 277.873899 
L 196.948642 277.893144 
L 198.671511 277.872042 
L 200.358615 277.884135 
L 203.06366 277.87649 
L 207.181315 277.900323 
L 207.626989 277.888465 
L 208.184893 277.904878 
L 208.628578 277.875857 
L 210.438175 277.88416 
L 214.549126 277.873611 
L 215.410522 277.891333 
L 217.399871 277.876013 
L 218.293952 277.88474 
L 223.921452 277.887358 
L 225.636518 277.883716 
L 228.181246 277.883511 
L 230.896322 277.886517 
L 232.170216 277.875293 
L 239.405399 277.877838 
L 243.55974 277.867332 
L 243.972126 277.900594 
L 245.360708 277.880248 
L 246.525823 277.88908 
L 251.762328 277.881005 
L 252.756524 277.883269 
L 253.757945 277.878431 
L 254.47099 277.895882 
L 255.583265 277.873899 
L 258.441157 277.86341 
L 259.135734 277.893137 
L 259.718739 277.87374 
L 266.100974 277.879647 
L 300.212614 277.900093 
L 300.765006 277.868635 
L 301.929959 277.891346 
L 302.483279 277.881898 
L 304.902787 277.897479 
L 306.142137 277.852122 
L 306.356188 277.908027 
L 306.728396 277.890525 
L 309.1549 277.888528 
L 310.281678 277.889895 
L 311.004873 277.881724 
L 312.560925 277.877132 
L 313.416737 277.882727 
L 314.275994 277.876206 
L 315.408155 277.888148 
L 321.224831 277.876166 
L 322.07795 277.896152 
L 322.801551 277.880481 
L 326.36923 277.894569 
L 328.375218 277.864295 
L 591.30125 277.872791 
L 591.30125 277.872791 
" clip-path="url(#p94451f768b)" style="fill: none; stroke: #0000ff; stroke-opacity: 0.7; stroke-width: 1.5; stroke-linecap: square"/>
   </g>
   <g id="line2d_26">
    <path d="M 33.30125 41.815336 
L 33.406723 40.202744 
L 33.596484 35.576223 
L 33.715949 40.745434 
L 33.897908 35.658312 
L 33.928147 31.501471 
L 34.171535 41.664797 
L 34.271027 33.575539 
L 34.404776 32.668557 
L 34.543067 35.240571 
L 34.865106 22.98875 
L 35.0234 32.229413 
L 35.126022 29.902143 
L 35.401089 42.399798 
L 35.53941 34.600252 
L 35.985716 47.40504 
L 36.12226 59.787974 
L 36.294429 64.213661 
L 36.673763 52.937607 
L 36.876819 45.146595 
L 36.980589 49.355962 
L 37.220575 53.26387 
L 37.431004 48.854964 
L 37.565509 52.526155 
L 37.703463 51.403114 
L 37.943678 53.834145 
L 38.115655 72.621077 
L 38.254649 72.822023 
L 38.529413 65.531588 
L 38.672576 54.305402 
L 38.973662 43.508395 
L 39.232787 55.088785 
L 39.248868 53.272966 
L 39.524876 47.791115 
L 39.663271 47.53317 
L 39.801274 44.862542 
L 39.948144 37.913963 
L 40.091878 58.495149 
L 40.250718 64.016386 
L 40.360655 61.914547 
L 40.526524 61.199685 
L 40.663643 64.951112 
L 40.938565 45.224778 
L 41.22249 60.373894 
L 41.797931 29.637149 
L 42.071389 17.213207 
L 42.279632 22.077977 
L 42.358729 30.482076 
L 42.490824 25.921325 
L 42.660753 26.891409 
L 42.798219 33.527178 
L 43.073394 26.253646 
L 43.349931 47.795735 
L 43.486529 43.762708 
L 43.626566 44.454376 
L 43.769178 39.20693 
L 43.93427 43.415356 
L 44.21025 35.198318 
L 44.485415 48.362372 
L 44.642854 46.582337 
L 44.765795 40.023083 
L 44.930387 38.336109 
L 45.068183 34.184096 
L 45.207132 34.402563 
L 45.369711 33.122778 
L 45.622653 40.969045 
L 45.757736 39.63373 
L 46.203313 26.981916 
L 46.356203 27.900126 
L 46.614624 38.75709 
L 46.752163 31.939328 
L 46.892089 33.684317 
L 47.205323 24.303986 
L 47.476503 39.404271 
L 47.618731 43.489354 
L 47.892059 29.419647 
L 48.166908 18.925803 
L 48.510985 26.171608 
L 48.785559 41.336004 
L 48.888638 29.019117 
L 49.128803 37.444591 
L 49.372821 56.475333 
L 49.440473 61.141285 
L 49.608421 60.249364 
L 49.746556 53.408463 
L 49.884229 53.946083 
L 50.163001 47.269508 
L 50.338048 41.727484 
L 50.587569 27.498925 
L 50.748926 28.793279 
L 51.022734 37.046473 
L 51.30128 38.841568 
L 51.436062 36.13155 
L 51.585065 36.919364 
L 51.607621 36.052974 
L 51.893674 48.681689 
L 52.044413 46.49986 
L 52.066508 57.647009 
L 52.172862 40.389157 
L 52.339302 40.930316 
L 52.586552 34.504856 
L 52.764669 37.993973 
L 52.899107 37.53541 
L 53.01566 42.164076 
L 53.156184 40.763721 
L 53.340831 37.810185 
L 53.635247 44.426483 
L 53.879954 24.377932 
L 53.930077 33.02369 
L 53.950902 30.19362 
L 54.07558 36.394154 
L 54.076564 35.058171 
L 54.22824 38.143735 
L 54.331439 35.792524 
L 54.607248 42.912252 
L 54.91937 22.95739 
L 55.191669 37.727405 
L 55.362071 40.021927 
L 55.465208 36.349719 
L 55.568522 22.512353 
L 55.743761 24.416236 
L 55.87847 27.591871 
L 56.301871 47.6736 
L 56.496012 45.320953 
L 56.67058 48.816413 
L 56.84293 39.878584 
L 57.067629 47.988098 
L 57.170255 47.331312 
L 57.492993 31.505308 
L 57.748818 37.784732 
L 57.871306 32.601688 
L 57.975761 33.350573 
L 58.557438 66.655585 
L 58.972404 54.048122 
L 59.055066 48.2284 
L 59.244425 49.109365 
L 59.381408 51.770819 
L 59.554435 36.66274 
L 59.692414 39.362467 
L 59.966695 6.650353 
L 60.137588 15.824893 
L 60.276037 29.433702 
L 60.549353 32.548247 
L 60.824849 39.562672 
L 60.996887 36.562987 
L 61.170907 29.298308 
L 61.271059 33.092614 
L 61.409064 32.103134 
L 61.545587 34.295395 
L 61.68246 27.902173 
L 61.858197 26.808995 
L 62.198138 20.099957 
L 62.266326 26.902932 
L 62.382948 25.089584 
L 62.540301 26.012202 
L 62.815938 51.765861 
L 63.01338 44.27777 
L 63.09257 46.234029 
L 63.26274 47.642523 
L 63.5397 43.985716 
L 63.837437 54.125735 
L 63.952278 45.595627 
L 64.191856 38.323412 
L 64.294553 38.841505 
L 64.537121 33.547885 
L 64.672309 35.006644 
L 64.949052 47.532104 
L 65.154661 42.027411 
L 65.258878 36.016021 
L 65.533008 49.784074 
L 65.738829 46.183326 
L 65.843845 55.404129 
L 66.048112 54.907834 
L 66.122401 53.000628 
L 66.35758 51.171818 
L 66.460506 48.367122 
L 66.564307 54.025942 
L 66.804613 55.297686 
L 66.94322 50.627295 
L 67.115643 49.25671 
L 67.252185 50.090678 
L 67.463482 49.137103 
L 67.673118 40.876307 
L 67.844398 47.848571 
L 67.965916 42.159479 
L 68.109453 46.786404 
L 68.351851 43.949693 
L 68.542041 55.778946 
L 68.542188 58.779882 
L 68.678906 58.568313 
L 69.081121 54.872162 
L 69.18149 50.167547 
L 69.316358 49.881725 
L 69.351766 48.563645 
L 69.385407 49.395418 
L 69.476456 51.798398 
L 69.509601 48.440825 
L 69.647388 48.531566 
L 69.811445 47.472468 
L 69.969245 44.845804 
L 70.171912 37.000512 
L 70.36943 45.209303 
L 70.51305 57.219272 
L 70.648683 56.753693 
L 70.991272 59.243357 
L 71.198634 61.443668 
L 71.512614 45.88286 
L 71.614761 44.536739 
L 71.644887 45.99604 
L 71.781466 44.290721 
L 71.920145 47.811346 
L 72.056744 48.274259 
L 72.262569 44.915977 
L 72.372709 46.91026 
L 72.505263 47.145996 
L 72.616035 42.490741 
L 72.854109 47.31525 
L 73.063579 55.677805 
L 73.097575 63.187346 
L 73.234723 60.894709 
L 73.334189 56.701044 
L 73.612527 55.359208 
L 73.815785 46.305657 
L 73.920823 56.339797 
L 74.059886 57.221589 
L 74.30909 48.898924 
L 74.371146 51.838214 
L 74.641322 42.329694 
L 74.91685 33.905978 
L 75.08995 38.264577 
L 75.22795 45.241073 
L 75.474552 22.032733 
L 75.639768 30.685312 
L 76.052173 34.896272 
L 76.085044 46.156916 
L 76.811736 42.762328 
L 77.562086 43.59725 
L 78.36352 53.43022 
L 79.112629 48.258989 
L 79.142984 32.606269 
L 79.279529 36.495189 
L 79.313302 33.611236 
L 79.72851 31.775688 
L 80.242974 52.075528 
L 80.280076 43.715656 
L 80.586011 31.318871 
L 80.691442 33.220878 
L 80.723725 39.454214 
L 81.208876 51.135634 
L 81.686193 39.382663 
L 81.859537 46.266855 
L 82.147361 40.831598 
L 82.40898 26.297982 
L 82.581925 10.3537 
L 82.752759 11.297491 
L 83.025717 20.624016 
L 83.197153 24.479568 
L 83.349696 24.935451 
L 83.541721 26.066601 
L 83.576605 25.342068 
L 83.8546 46.074219 
L 84.12628 31.572064 
L 84.606916 42.083206 
L 84.788077 42.733286 
L 84.882512 37.118258 
L 85.064177 40.048994 
L 85.296414 53.454916 
L 85.425388 51.631999 
L 85.769392 39.704078 
L 85.842149 36.150246 
L 86.017868 38.381964 
L 86.11283 43.675191 
L 86.250934 42.258736 
L 86.872119 29.463316 
L 87.246903 40.203269 
L 87.418317 38.698565 
L 87.692805 42.416604 
L 87.868236 36.452854 
L 88.036022 18.603624 
L 88.138454 25.491057 
L 88.241862 42.500839 
L 88.414962 47.795084 
L 88.827159 29.062187 
L 88.965041 25.792811 
L 89.243351 40.986821 
L 89.411688 55.917673 
L 89.687081 38.80189 
L 89.825065 40.096864 
L 89.960799 52.373912 
L 90.099287 50.221423 
L 90.338074 41.347984 
L 90.372116 41.584297 
L 90.547483 40.409171 
L 90.840326 39.289253 
L 90.840899 34.917916 
L 90.855604 36.995799 
L 91.136266 42.718064 
L 91.303608 42.875295 
L 91.524447 44.716382 
L 91.79822 71.116429 
L 92.138756 63.239434 
L 92.24171 55.982516 
L 92.482259 52.182133 
L 92.516508 57.802179 
L 92.794399 49.690703 
L 92.963038 54.941778 
L 93.236765 32.368247 
L 93.374382 34.451439 
L 93.511039 41.969856 
L 93.750753 43.542811 
L 93.966996 39.71727 
L 94.06244 40.071353 
L 94.230584 38.170292 
L 94.376379 33.030086 
L 94.508046 35.097505 
L 94.924816 46.381004 
L 95.298195 39.234318 
L 95.374084 40.899631 
L 95.778736 57.76661 
L 95.917642 59.663743 
L 96.090959 58.700204 
L 96.227871 45.916004 
L 96.435401 44.771692 
L 96.468062 55.183608 
L 96.672368 60.714305 
L 96.915097 35.095149 
L 97.050979 37.048015 
L 97.533973 40.67687 
L 97.778209 40.774638 
L 97.874802 44.654329 
L 98.082346 35.588978 
L 98.184106 40.563641 
L 98.426648 45.574711 
L 98.495911 45.379536 
L 98.63442 44.343796 
L 98.837085 43.725181 
L 99.222225 29.207164 
L 99.348333 29.232068 
L 99.608439 40.444849 
L 100.082917 17.804228 
L 100.293159 18.783519 
L 100.498355 37.808086 
L 100.598999 38.114728 
L 100.771378 45.61257 
L 101.053247 37.252139 
L 101.323265 49.963713 
L 101.46279 44.994662 
L 101.907931 14.824648 
L 102.562006 30.645097 
L 102.595744 30.560189 
L 102.734739 29.80995 
L 102.975223 37.591226 
L 103.043615 44.276252 
L 103.181114 45.299542 
L 103.317945 48.09175 
L 103.579501 49.684829 
L 103.732561 42.015256 
L 103.86632 46.970313 
L 103.900418 55.307633 
L 104.122371 49.997539 
L 104.185046 50.570243 
L 104.389578 46.995001 
L 104.451775 42.188207 
L 104.591651 44.424712 
L 104.872578 51.291719 
L 105.001701 49.994933 
L 105.049772 53.574965 
L 105.215874 48.976244 
L 105.450575 32.233159 
L 105.728488 28.516895 
L 105.809304 21.863508 
L 105.864984 27.605202 
L 106.004184 28.159922 
L 106.175472 25.197888 
L 106.351818 17.853576 
L 106.429004 6.565955 
L 106.622608 9.185821 
L 106.726073 14.819257 
L 106.984917 12.593928 
L 107.071689 7.681709 
L 107.274952 13.812482 
L 107.308881 19.863678 
L 107.532484 19.268123 
L 107.74018 17.081712 
L 107.862058 17.1868 
L 108.171251 0.72 
L 108.478531 18.832926 
L 108.551721 19.019556 
L 108.719575 14.366444 
L 108.995293 29.454686 
L 109.140849 36.701005 
L 109.310631 35.043596 
L 109.558869 51.163279 
L 109.722225 50.852092 
L 109.859254 53.782026 
L 110.134253 52.836871 
L 110.451979 37.263489 
L 110.556636 38.437404 
L 110.583511 35.977166 
L 110.721475 44.626864 
L 110.826136 41.676183 
L 111.033758 39.794691 
L 111.134726 36.327533 
L 111.30901 34.215741 
L 111.444669 30.056406 
L 111.554023 38.376761 
L 111.72312 38.955352 
L 111.752376 36.781638 
L 111.925368 34.572035 
L 112.271725 46.959003 
L 112.409572 43.628668 
L 112.579643 32.372261 
L 112.754028 30.141806 
L 112.85413 40.983373 
L 112.998149 36.992795 
L 113.096528 42.33261 
L 113.341089 47.013992 
L 113.579203 33.320208 
L 113.723825 30.599709 
L 113.957358 47.800142 
L 114.096105 58.720103 
L 114.343677 58.679335 
L 114.37747 59.415717 
L 114.554598 56.259069 
L 114.687342 56.662067 
L 114.828405 59.894589 
L 114.965579 68.800042 
L 115.133719 67.309189 
L 115.819188 37.446471 
L 115.957096 38.693085 
L 116.241245 31.747294 
L 116.370738 31.879986 
L 116.542714 32.809452 
L 116.815827 31.489369 
L 117.102509 43.269837 
L 117.24142 35.556914 
L 117.382483 43.011714 
L 117.651518 46.325781 
L 117.717993 33.194716 
L 117.920568 26.488898 
L 118.057706 34.26246 
L 118.089953 42.630549 
L 118.263154 42.473948 
L 118.366758 39.431531 
L 118.573437 51.812181 
L 118.674777 50.683208 
L 118.950023 29.42695 
L 119.0886 42.293759 
L 119.293627 45.704657 
L 119.501273 39.370505 
L 119.644294 44.035327 
L 119.793185 43.020946 
L 120.0358 39.117782 
L 120.361629 69.615693 
L 120.77294 52.656059 
L 121.08296 47.329178 
L 121.224402 47.174698 
L 121.393767 43.068511 
L 121.669992 27.123266 
L 121.908828 21.22765 
L 122.354769 24.431378 
L 122.561131 20.911203 
L 122.663549 15.369537 
L 122.803361 13.877233 
L 122.905141 10.360482 
L 123.111761 9.723469 
L 123.371553 25.131993 
L 123.698591 34.475455 
L 123.917567 33.155768 
L 124.077346 35.700253 
L 124.319331 42.925497 
L 124.663317 43.363779 
L 125.074282 32.663045 
L 125.195661 39.652394 
L 125.21421 38.906225 
L 125.378039 31.981831 
L 125.60218 42.017559 
L 125.835861 48.253997 
L 125.913807 45.106346 
L 126.077783 47.102552 
L 126.315972 45.90684 
L 126.591508 49.187711 
L 126.698439 48.11695 
L 126.76903 60.05394 
L 126.878893 52.21506 
L 127.04388 48.75239 
L 127.321538 60.516544 
L 127.455908 54.078897 
L 127.732134 69.164034 
L 127.873452 60.744296 
L 128.190381 50.602538 
L 128.315787 59.18149 
L 128.451825 58.934241 
L 128.740783 30.099057 
L 129.023905 41.472151 
L 129.174773 40.67557 
L 129.450769 45.128169 
L 129.584159 44.56462 
L 129.863945 32.647442 
L 130.169086 59.946691 
L 130.305271 60.118762 
L 130.444491 51.561617 
L 130.716962 52.997466 
L 130.858827 52.309411 
L 131.000004 45.230523 
L 131.303462 57.988269 
L 131.440361 56.346489 
L 131.714557 40.257983 
L 131.852625 37.204547 
L 131.989397 44.695795 
L 132.161417 43.256578 
L 132.300417 39.168798 
L 132.437735 41.547943 
L 132.576219 37.725274 
L 132.711872 44.751375 
L 132.851474 41.729383 
L 132.991674 42.915896 
L 133.296476 54.026738 
L 133.433845 39.069794 
L 133.707893 56.965331 
L 133.845954 53.200257 
L 134.000257 60.061297 
L 134.260881 42.450782 
L 134.3998 46.139899 
L 134.605269 43.613676 
L 134.704783 40.90542 
L 134.848424 49.149676 
L 135.15095 28.498951 
L 135.256631 40.961381 
L 135.407629 34.029045 
L 135.565479 44.3602 
L 135.70189 44.344691 
L 135.839433 38.983184 
L 135.980791 42.374751 
L 136.151644 41.465984 
L 136.253456 40.103999 
L 136.56492 51.843146 
L 136.676214 35.091471 
L 136.84132 35.552442 
L 137.27449 43.204774 
L 137.318999 43.427071 
L 137.390369 40.266795 
L 137.674528 44.485907 
L 137.700394 35.971862 
L 137.846268 32.447392 
L 138.113866 36.043394 
L 138.217066 45.321595 
L 138.252483 43.91471 
L 138.526966 30.596953 
L 138.873242 42.344045 
L 138.975584 39.681894 
L 139.320468 48.479318 
L 139.388091 38.576371 
L 139.525007 37.241806 
L 139.80216 43.159498 
L 140.014633 46.483229 
L 140.258875 35.272037 
L 140.400506 36.377227 
L 140.427544 46.144993 
L 140.529415 44.672539 
L 140.770354 45.762395 
L 140.876212 50.674466 
L 140.942095 50.257566 
L 141.389503 32.800444 
L 141.424096 39.472142 
L 141.767305 47.24002 
L 141.839271 43.227179 
L 141.976242 45.492027 
L 142.116181 32.729046 
L 142.562691 42.504223 
L 142.631507 46.872011 
L 142.766151 47.934807 
L 142.801399 46.582797 
L 142.940217 34.082552 
L 143.112998 34.176337 
L 143.216707 44.704733 
L 143.247839 42.303326 
L 143.386829 39.438066 
L 143.730234 49.321846 
L 143.935104 44.975353 
L 144.071745 53.895128 
L 144.210698 47.556188 
L 144.347884 59.995534 
L 144.725757 42.596387 
L 144.866942 47.706942 
L 145.036271 44.052464 
L 145.138688 35.237131 
L 145.31115 34.209392 
L 145.441928 28.50258 
L 145.485403 32.83504 
L 145.689753 35.269357 
L 145.828761 34.206022 
L 145.930587 37.180287 
L 146.203973 34.586555 
L 146.410591 40.361544 
L 146.644294 42.290725 
L 146.753527 46.217364 
L 146.822881 45.618798 
L 147.14836 54.589887 
L 147.268356 46.473367 
L 147.546374 52.506155 
L 147.825198 36.752094 
L 147.922854 43.295623 
L 148.201905 46.543654 
L 148.490314 30.42273 
L 148.758487 40.800551 
L 148.923341 44.283538 
L 149.061107 56.46032 
L 149.209463 54.977368 
L 149.337181 46.689846 
L 149.475324 47.618779 
L 149.678402 49.810861 
L 149.754773 56.84155 
L 150.090573 64.654274 
L 150.193098 60.275305 
L 150.37161 57.797675 
L 150.506736 46.868534 
L 150.779534 59.45063 
L 150.884121 56.839632 
L 151.162021 51.075776 
L 151.227953 41.584338 
L 151.374703 45.429348 
L 151.465531 44.613136 
L 151.60306 45.759834 
L 151.809566 45.631981 
L 151.954896 47.446007 
L 152.064355 42.272863 
L 152.324492 35.816174 
L 152.465654 35.708259 
L 152.599601 35.093844 
L 152.677657 45.567064 
L 152.914852 35.38634 
L 153.191971 40.813799 
L 153.327285 50.841402 
L 153.53302 55.76358 
L 153.704944 54.401976 
L 154.083975 39.567079 
L 154.189489 39.436449 
L 154.357979 37.863949 
L 154.564582 30.016922 
L 154.804947 13.076517 
L 154.910676 10.781556 
L 155.216767 26.392848 
L 155.320147 31.474039 
L 155.457755 32.210232 
L 155.606263 29.515257 
L 156.315711 51.084938 
L 156.593369 35.549136 
L 156.728469 40.409753 
L 156.86787 38.482493 
L 157.243638 45.865243 
L 157.313402 43.478838 
L 157.622842 51.734631 
L 157.75955 43.990919 
L 157.865017 51.735274 
L 158.177974 48.318731 
L 158.346124 55.036511 
L 158.724347 48.837725 
L 158.866903 40.861745 
L 159.017606 40.89901 
L 159.138574 43.006059 
L 159.379028 36.560599 
L 159.522553 36.118409 
L 159.584559 35.355366 
L 159.857861 45.313767 
L 160.042635 43.785096 
L 160.133484 33.893167 
L 160.570653 21.261634 
L 160.855585 28.767484 
L 160.993028 28.325933 
L 161.131298 19.829539 
L 161.282986 20.04082 
L 161.548507 24.979664 
L 161.681825 30.340827 
L 161.824408 53.007094 
L 161.992148 54.65002 
L 162.128531 53.950705 
L 162.491611 58.511785 
L 162.551103 58.026201 
L 162.679878 58.756526 
L 162.987854 69.013389 
L 163.125587 66.97728 
L 163.2643 59.531926 
L 163.538011 72.88663 
L 163.691408 69.434908 
L 163.818532 69.537232 
L 163.983011 66.400459 
L 164.261028 53.963296 
L 164.535051 48.783271 
L 164.672125 55.850447 
L 164.810038 46.752408 
L 165.009954 43.5593 
L 165.116412 50.456462 
L 165.255294 48.346505 
L 165.392467 50.990972 
L 165.529825 47.821435 
L 165.674171 47.117795 
L 165.816277 53.093677 
L 165.947187 53.638041 
L 166.115912 43.674664 
L 166.255114 50.277077 
L 166.389011 45.942644 
L 166.537034 33.065086 
L 166.802163 36.29619 
L 166.944536 46.30267 
L 167.091175 48.36319 
L 167.21994 42.644377 
L 167.4016 43.754649 
L 167.602199 54.346894 
L 167.664336 52.193868 
L 167.807054 52.485908 
L 167.938667 50.086307 
L 168.079453 39.951185 
L 168.112359 42.082148 
L 168.217782 47.767299 
L 168.354359 44.864826 
L 168.387 41.48707 
L 168.52902 40.378197 
L 168.666725 44.705199 
L 168.938481 37.617237 
L 169.075452 43.128477 
L 169.21328 41.244427 
L 169.521992 52.224282 
L 169.670234 46.309672 
L 169.803567 50.261757 
L 170.01151 49.135582 
L 170.236491 48.98359 
L 170.39003 43.553249 
L 170.62997 26.079352 
L 170.767534 28.801144 
L 171.040451 31.035401 
L 171.108642 36.405581 
L 171.232783 35.437055 
L 171.350198 30.833037 
L 171.625842 31.550801 
L 171.761251 28.302344 
L 171.83019 28.759812 
L 172.007567 36.821676 
L 172.069801 52.967606 
L 172.210996 56.148936 
L 172.519613 51.907357 
L 172.670577 44.71008 
L 172.932214 48.87982 
L 173.068919 53.089207 
L 173.379678 46.594927 
L 173.660024 31.614937 
L 173.763855 37.038776 
L 173.894137 35.159374 
L 174.204711 46.063403 
L 174.480029 35.254489 
L 174.653812 45.173915 
L 174.893422 46.911283 
L 174.927342 43.475954 
L 175.167454 41.738389 
L 175.308053 34.966849 
L 175.345579 36.699494 
L 175.511602 37.546019 
L 175.613962 29.350523 
L 175.768 33.736561 
L 176.030781 29.450635 
L 176.26108 28.492368 
L 176.475718 30.021371 
L 176.611195 34.013782 
L 176.74924 29.313183 
L 176.885772 28.490198 
L 177.092055 33.851846 
L 177.229351 30.485468 
L 177.437252 40.520432 
L 177.64298 17.439563 
L 177.883065 29.619579 
L 178.021586 23.32032 
L 178.195678 28.174833 
L 178.301005 19.616325 
L 178.46727 18.538537 
L 178.640258 23.522496 
L 178.852492 12.135663 
L 178.914515 13.178553 
L 179.121181 30.882702 
L 179.166923 30.31082 
L 179.361552 20.108145 
L 179.740106 46.37692 
L 179.944396 44.550275 
L 180.012993 42.845482 
L 180.289226 54.447679 
L 180.596199 42.777292 
L 180.768329 50.349423 
L 180.905797 50.338024 
L 181.078234 43.270846 
L 181.217892 44.95528 
L 181.458883 29.047947 
L 181.5997 29.760575 
L 181.734975 31.650187 
L 181.875502 40.671522 
L 182.077938 44.807723 
L 182.145863 38.240171 
L 182.352754 38.818492 
L 182.592254 22.459791 
L 183.040589 45.906286 
L 183.212182 46.081109 
L 183.284555 38.532487 
L 183.452084 40.899208 
L 183.589933 53.356084 
L 183.726907 46.345007 
L 184.004898 47.904323 
L 184.134723 59.957622 
L 184.161116 57.228154 
L 184.471931 37.876653 
L 184.756567 50.432018 
L 184.996588 35.32477 
L 185.304478 51.32817 
L 185.58068 45.609465 
L 185.682862 47.0319 
L 185.758922 52.831364 
L 185.889326 50.784902 
L 186.012269 42.967959 
L 186.164536 44.389809 
L 186.303674 51.305751 
L 186.793282 29.767778 
L 186.859506 30.114513 
L 186.992272 27.302236 
L 187.128877 28.836542 
L 187.301105 38.478452 
L 187.413342 33.968676 
L 187.624922 30.958513 
L 187.784337 30.516936 
L 187.852667 34.963288 
L 188.031051 35.372037 
L 188.172854 40.607404 
L 188.335097 33.390168 
L 188.541947 32.151179 
L 188.648729 42.17204 
L 188.99049 41.127809 
L 189.129459 42.822679 
L 189.279211 38.403574 
L 189.405025 46.114261 
L 189.546059 39.673448 
L 189.678332 43.492674 
L 189.817265 41.049878 
L 190.129881 38.649625 
L 190.267183 39.175471 
L 190.403147 36.812399 
L 190.54066 41.685273 
L 190.713606 37.593034 
L 190.850149 37.68774 
L 190.953007 35.916174 
L 191.162012 37.603339 
L 191.301614 34.920434 
L 191.43715 34.660134 
L 191.575428 37.227677 
L 191.735161 37.972946 
L 191.822366 43.170689 
L 191.952002 38.512201 
L 192.093764 39.368967 
L 192.264845 34.742272 
L 192.712188 44.416023 
L 192.95576 20.988227 
L 193.092775 26.879391 
L 193.239856 20.790639 
L 193.265828 39.057761 
L 193.509354 19.978277 
L 193.746067 10.891113 
L 193.818072 11.024253 
L 193.963981 12.180543 
L 194.364671 41.384553 
L 194.510013 32.861811 
L 194.676905 30.666249 
L 194.950799 40.431574 
L 195.101581 51.326921 
L 195.240464 47.853727 
L 195.499923 45.62368 
L 195.568049 33.28897 
L 195.671256 39.484092 
L 195.845858 32.337438 
L 195.95183 32.484458 
L 196.089566 35.232789 
L 196.227392 43.275728 
L 196.501912 35.501195 
L 196.810933 57.213739 
L 196.948642 57.445973 
L 197.188346 52.36641 
L 197.258439 61.166874 
L 197.395905 59.360894 
L 197.634514 43.123042 
L 197.77213 53.375641 
L 197.909778 52.68945 
L 198.081624 42.605365 
L 198.252364 40.682251 
L 198.432375 41.843441 
L 198.671511 19.614818 
L 199.047897 49.688903 
L 199.214403 36.823168 
L 199.377692 39.1055 
L 199.624908 27.470705 
L 199.936104 40.841527 
L 200.10916 39.851707 
L 200.278535 42.33495 
L 200.358615 32.837132 
L 200.553548 23.968805 
L 200.931694 48.588133 
L 201.111502 48.779939 
L 201.206103 48.489432 
L 201.402372 42.70255 
L 201.587509 48.942686 
L 201.619362 48.774111 
L 201.859872 48.954095 
L 201.92961 58.325077 
L 202.067115 54.932214 
L 202.239139 46.693618 
L 202.375944 48.048831 
L 202.512709 47.252962 
L 202.619328 47.728312 
L 202.787831 57.397483 
L 203.06366 46.53379 
L 203.307569 45.565958 
L 203.33962 40.269982 
L 203.478473 39.613073 
L 203.509406 47.114318 
L 203.650898 45.116752 
L 203.75104 39.958934 
L 203.890008 39.104389 
L 204.164631 25.919332 
L 204.336249 29.893541 
L 204.478544 23.844873 
L 204.610829 23.400517 
L 204.914626 6.230264 
L 205.223536 17.694124 
L 205.29837 18.082162 
L 205.463199 25.34034 
L 205.602875 18.58044 
L 205.772606 17.520911 
L 206.155193 45.67948 
L 206.183262 44.684961 
L 206.3885 45.363473 
L 206.492047 42.983668 
L 206.602745 44.677966 
L 206.628903 30.64715 
L 206.733585 49.066007 
L 206.909853 50.040468 
L 207.080618 62.0508 
L 207.181315 60.611252 
L 207.317769 50.785487 
L 207.560196 44.438469 
L 207.741784 49.221159 
L 207.870542 46.372232 
L 208.043059 47.308244 
L 208.184893 36.154932 
L 208.291553 38.078713 
L 208.512164 36.884704 
L 208.628578 39.401885 
L 208.744621 45.130528 
L 208.77071 52.944645 
L 209.144884 30.83921 
L 209.28403 36.312771 
L 209.454941 35.416075 
L 209.569519 45.148932 
L 209.800532 46.27483 
L 210.146793 40.255995 
L 210.21085 42.309947 
L 210.438175 64.397531 
L 210.658712 73.798714 
L 210.700611 68.348853 
L 211.141854 59.071795 
L 211.277943 52.635046 
L 211.417081 58.59539 
L 211.587778 60.131329 
L 211.725838 47.011929 
L 211.897564 49.17691 
L 212.002315 46.404371 
L 212.175899 46.413185 
L 212.448598 57.068337 
L 212.557259 53.155051 
L 212.757149 65.222564 
L 212.998945 60.551951 
L 213.06869 54.832291 
L 213.10145 59.758553 
L 213.137974 66.912695 
L 213.274904 65.196575 
L 213.550393 52.726805 
L 213.790742 50.094368 
L 214.173397 56.496865 
L 214.34467 57.641589 
L 214.687054 41.281956 
L 215.133016 55.395384 
L 215.410522 37.697266 
L 215.544611 39.478075 
L 215.6819 39.339214 
L 215.818753 36.892954 
L 216.166908 47.199949 
L 216.404175 31.684298 
L 216.543109 33.207183 
L 216.816092 46.770195 
L 217.093997 41.724099 
L 217.262619 41.236827 
L 217.540726 24.676495 
L 217.6745 38.882873 
L 217.984509 49.490669 
L 218.112265 38.00432 
L 218.293952 38.008102 
L 218.639211 38.870172 
L 218.816425 46.51821 
L 218.947592 57.71913 
L 219.259586 42.814261 
L 219.511553 46.047606 
L 219.807349 44.352003 
L 220.041723 45.500019 
L 220.077682 37.693906 
L 220.235751 28.389117 
L 220.420413 31.306038 
L 220.661699 46.937928 
L 220.801559 46.606767 
L 220.97012 45.288514 
L 221.364308 32.694974 
L 221.55467 41.208193 
L 221.664188 53.276586 
L 221.98874 43.489249 
L 222.0564 46.787249 
L 222.399033 31.758331 
L 222.708428 45.230784 
L 222.810429 42.063392 
L 223.054788 41.657819 
L 223.259108 51.697206 
L 223.396575 25.267494 
L 223.504247 32.679539 
L 223.776147 59.438928 
L 224.22376 70.186006 
L 224.335876 69.208351 
L 224.638432 38.358749 
L 225.122743 47.890214 
L 225.49837 36.872477 
L 225.772962 18.92371 
L 225.910818 25.074781 
L 226.0487 42.656638 
L 226.32472 49.049633 
L 226.463363 44.28733 
L 226.634277 44.750273 
L 226.854994 39.778302 
L 227.046321 46.650041 
L 227.259744 74.276109 
L 227.35513 67.012291 
L 227.495326 57.33175 
L 227.631009 58.917713 
L 227.808194 58.388919 
L 228.457694 37.311929 
L 228.661013 26.770864 
L 228.903092 37.612499 
L 229.191845 25.864677 
L 229.315157 39.613854 
L 229.45316 38.614836 
L 229.768306 22.24547 
L 229.925589 23.475746 
L 230.071964 28.02537 
L 230.175126 24.944261 
L 230.451737 34.308838 
L 230.656854 31.692135 
L 230.826916 24.343932 
L 231.171839 40.770774 
L 231.410614 42.814984 
L 231.455202 47.363338 
L 231.649833 50.778026 
L 231.72293 42.890568 
L 231.924211 43.332769 
L 232.031391 50.24595 
L 232.170216 42.201898 
L 232.306565 45.39464 
L 232.509845 56.49525 
L 232.583461 52.554337 
L 232.773351 49.948943 
L 232.877012 46.489161 
L 233.050568 47.835443 
L 233.080229 60.358925 
L 233.566026 33.482378 
L 233.632352 38.723596 
L 233.873391 38.142548 
L 233.911787 37.162814 
L 234.145523 39.163435 
L 234.286532 37.218269 
L 234.421541 24.80736 
L 234.592354 27.19189 
L 234.972194 41.406114 
L 235.006843 37.393298 
L 235.14462 40.292389 
L 235.281771 27.411195 
L 235.782786 31.541375 
L 236.00458 46.017653 
L 236.148819 36.859163 
L 236.346669 40.871265 
L 236.450604 56.371354 
L 236.588135 52.909196 
L 236.726542 63.672291 
L 236.89966 67.466662 
L 236.999573 56.328586 
L 237.414254 49.198677 
L 237.459911 41.073587 
L 237.583611 49.889265 
L 238.338597 32.622652 
L 238.58294 47.571733 
L 238.719336 47.240808 
L 238.963876 32.780449 
L 239.130627 39.659707 
L 239.405399 25.440922 
L 239.5781 30.148007 
L 239.821212 17.195399 
L 239.990349 18.219841 
L 240.128393 15.297266 
L 240.263921 29.779586 
L 240.404905 28.255136 
L 240.541691 25.304828 
L 240.823753 39.345819 
L 240.985942 32.632671 
L 241.12213 44.739432 
L 241.369828 40.057283 
L 241.568885 45.032707 
L 241.739767 42.943177 
L 241.880658 51.050247 
L 241.978902 45.664301 
L 242.116452 30.903223 
L 242.391367 38.922677 
L 242.536228 31.586542 
L 242.56219 36.102307 
L 242.700087 39.160418 
L 242.83886 33.27802 
L 242.975062 37.942485 
L 243.285777 28.280228 
L 243.492279 31.07557 
L 243.55974 43.183017 
L 243.663647 32.426087 
L 243.900031 31.192635 
L 243.972126 32.565301 
L 244.246706 30.866769 
L 244.355186 42.062946 
L 244.453242 28.154724 
L 244.55618 30.557438 
L 244.704973 37.711041 
L 244.805118 36.497709 
L 245.255511 43.048302 
L 245.360708 48.357599 
L 245.595987 48.509776 
L 245.667871 41.155444 
L 245.839795 44.159404 
L 246.217595 26.789622 
L 246.354403 27.815017 
L 246.525823 23.545614 
L 246.767765 22.488128 
L 246.841012 16.356096 
L 247.042089 19.005521 
L 247.249346 29.683272 
L 247.522434 36.044416 
L 247.664022 39.517161 
L 247.802667 33.006396 
L 248.081999 41.551673 
L 248.218047 43.452574 
L 248.381691 43.786234 
L 248.536893 40.148532 
L 248.637128 42.854713 
L 248.770396 42.333414 
L 249.07607 47.054227 
L 249.212301 52.409918 
L 249.421407 53.866261 
L 249.488076 49.396821 
L 249.694629 46.71825 
L 249.904538 40.770288 
L 250.212065 50.242711 
L 250.485783 56.123179 
L 250.623886 51.71123 
L 250.760409 51.477478 
L 250.898038 57.379053 
L 251.042126 58.111572 
L 251.20759 60.328594 
L 251.346013 58.720462 
L 251.62171 50.124967 
L 251.907476 41.952785 
L 252.034511 46.404353 
L 252.342521 41.603517 
L 252.479009 44.809185 
L 252.617807 41.63418 
L 252.756524 45.824336 
L 252.89425 41.70798 
L 253.042164 30.001529 
L 253.171871 29.785277 
L 253.204429 24.42773 
L 253.315302 33.071898 
L 253.480204 29.788899 
L 253.654922 29.959178 
L 253.757945 31.912503 
L 253.894177 29.75635 
L 254.046633 29.723045 
L 254.169848 30.803489 
L 254.324374 29.451048 
L 254.47099 34.76037 
L 254.61646 33.174776 
L 254.755462 33.16275 
L 255.034325 38.66815 
L 255.176901 35.373977 
L 255.303168 39.61179 
L 255.442154 38.955875 
L 256.027605 56.208439 
L 256.29762 53.147632 
L 256.445524 55.636156 
L 256.719832 43.776723 
L 256.915716 46.526459 
L 257.162374 31.151686 
L 257.328082 34.756966 
L 257.467388 35.2548 
L 257.673 36.436746 
L 257.925081 45.060309 
L 257.997574 53.723337 
L 258.138267 52.830376 
L 258.333135 46.884325 
L 258.573677 63.219047 
L 258.766275 62.762661 
L 258.850301 60.549204 
L 259.135734 62.191076 
L 259.434576 44.322814 
L 259.718739 44.534533 
L 259.88246 36.527343 
L 260.156872 34.998092 
L 260.603988 23.506693 
L 260.981599 41.748969 
L 261.120056 36.832045 
L 261.153328 43.736459 
L 261.29337 42.409616 
L 261.496631 39.126465 
L 261.636139 38.841048 
L 261.841051 52.026022 
L 261.980853 50.186035 
L 262.150173 49.46894 
L 262.254241 37.868362 
L 262.426015 42.437053 
L 262.595757 41.353073 
L 262.874086 53.338656 
L 263.454811 36.053354 
L 263.565528 33.060475 
L 263.709507 38.148977 
L 263.866566 37.318763 
L 264.141843 20.968756 
L 264.381641 20.555396 
L 264.521401 27.281152 
L 264.588731 26.556395 
L 264.692141 26.670856 
L 264.829305 27.154605 
L 265.109739 28.647044 
L 265.139206 21.526867 
L 265.276639 21.409289 
L 265.446645 28.677388 
L 265.974102 16.694265 
L 266.100974 17.442239 
L 266.334376 19.116022 
L 266.379093 23.238078 
L 266.835811 31.953482 
L 266.856001 38.566172 
L 267.302829 46.544828 
L 267.50949 48.358943 
L 267.54432 45.25929 
L 267.697425 46.746657 
L 267.865045 44.576053 
L 267.956708 45.267246 
L 268.404759 28.938935 
L 268.688649 22.823726 
L 269.135455 42.678653 
L 269.343421 32.780427 
L 269.376148 36.502835 
L 269.661981 33.998794 
L 269.832845 37.197194 
L 270.005459 36.857533 
L 270.144986 41.954493 
L 270.244893 32.742248 
L 270.385233 33.283609 
L 270.563339 24.28874 
L 270.657825 31.874605 
L 270.832389 24.421046 
L 270.966261 29.638641 
L 271.206085 33.122621 
L 271.65424 50.893169 
L 271.791482 51.612323 
L 272.245523 63.398774 
L 272.377096 62.724694 
L 272.514555 54.261049 
L 272.694342 50.528157 
L 272.948767 49.23065 
L 273.095908 46.852235 
L 273.533251 29.675842 
L 273.671082 34.133589 
L 273.911293 28.452795 
L 274.089766 43.407661 
L 274.1886 45.966267 
L 274.564134 33.497938 
L 274.631982 36.718294 
L 274.804858 37.174542 
L 274.941809 38.160053 
L 275.18135 34.473132 
L 275.284215 47.531117 
L 275.491825 37.745496 
L 275.769856 26.527729 
L 275.938935 35.888875 
L 276.076679 31.389337 
L 276.2131 32.298323 
L 276.487963 39.258063 
L 276.630596 31.504467 
L 276.83299 29.435875 
L 276.934299 33.313742 
L 277.03982 43.790318 
L 277.210205 46.576012 
L 277.486021 58.605765 
L 277.928139 46.40249 
L 278.146941 47.897589 
L 278.313062 49.978319 
L 278.352581 47.227785 
L 278.685588 40.037022 
L 278.932999 26.564622 
L 279.033962 34.029799 
L 279.170754 34.650882 
L 279.307196 41.099797 
L 279.478503 36.011971 
L 279.617308 38.452345 
L 279.758994 34.800552 
L 279.968869 42.363575 
L 280.030352 40.853085 
L 280.203185 41.402911 
L 280.305428 40.159351 
L 280.583744 39.943482 
L 280.613957 45.0418 
L 280.932406 42.232595 
L 281.133209 44.046152 
L 281.27414 47.195286 
L 281.30147 33.405393 
L 281.337174 42.133769 
L 281.471964 32.426769 
L 281.615575 32.337394 
L 281.889098 39.946585 
L 282.024718 36.624137 
L 282.268383 44.183573 
L 282.332419 43.137686 
L 282.436153 41.538175 
L 282.607748 43.246267 
L 282.882714 54.053498 
L 283.020166 54.246597 
L 283.298753 37.369257 
L 283.438452 40.911465 
L 283.582907 35.565122 
L 283.740852 38.120776 
L 283.879598 36.12638 
L 284.017308 38.420501 
L 284.154248 29.553867 
L 284.2915 32.650989 
L 284.469248 28.644669 
L 284.710352 50.056868 
L 285.017599 51.779064 
L 285.153268 49.91802 
L 285.565222 53.213395 
L 285.636736 63.636276 
L 285.842653 62.26855 
L 286.149604 46.068316 
L 286.287068 47.860494 
L 286.423612 42.669994 
L 286.568428 43.06788 
L 286.99533 37.469323 
L 287.096832 28.81397 
L 287.14629 34.555585 
L 287.299507 38.616763 
L 287.526529 37.683966 
L 287.629149 35.888712 
L 287.697754 29.000917 
L 287.837161 34.832392 
L 288.078057 33.693099 
L 288.424588 49.144558 
L 288.593209 45.422668 
L 288.730334 49.23193 
L 288.836182 48.940723 
L 289.142813 55.018403 
L 289.281784 66.444141 
L 289.41728 67.693597 
L 289.555506 63.731151 
L 289.693795 63.508114 
L 289.969789 56.507941 
L 290.012987 58.552849 
L 290.196459 56.447445 
L 290.332604 60.665069 
L 290.696261 48.557407 
L 290.826197 48.461304 
L 290.963347 44.600078 
L 291.271558 39.869306 
L 291.583095 34.595466 
L 291.758465 34.606832 
L 291.821409 37.052003 
L 292.235944 27.35636 
L 292.406902 27.131707 
L 292.544042 24.39299 
L 292.715851 27.285147 
L 292.887213 27.081043 
L 292.954752 29.670913 
L 293.130031 23.740291 
L 293.298279 28.343774 
L 293.504147 28.072192 
L 293.538354 33.446206 
L 293.710348 33.351006 
L 293.965726 40.796093 
L 294.233595 42.948026 
L 294.36887 38.219338 
L 294.569114 40.028825 
L 294.711132 35.70012 
L 294.850651 41.087323 
L 294.949522 39.610831 
L 295.251547 43.037064 
L 295.263072 47.443579 
L 295.39784 46.879142 
L 295.535161 43.407661 
L 295.673603 42.910847 
L 295.859293 48.77508 
L 295.988551 48.668943 
L 296.49868 35.888254 
L 296.570786 23.086537 
L 296.673903 24.555279 
L 296.811736 24.375348 
L 297.15537 32.193697 
L 297.297476 30.804868 
L 297.53231 39.874185 
L 297.671723 39.622588 
L 297.807324 42.498949 
L 297.979329 50.299454 
L 298.081693 48.956893 
L 298.253806 42.072775 
L 298.358736 42.322327 
L 298.563702 39.942271 
L 298.665398 45.873305 
L 299.009647 41.302108 
L 299.115861 44.178342 
L 299.318019 44.336967 
L 299.465864 39.700784 
L 299.524823 31.831015 
L 299.662752 35.385324 
L 299.833537 36.640484 
L 300.075627 26.968818 
L 300.212614 25.923045 
L 300.351199 20.294674 
L 300.487222 22.597606 
L 300.624755 16.828155 
L 300.765006 23.867122 
L 301.070781 28.832026 
L 301.242859 28.297441 
L 301.350926 33.468414 
L 301.379544 30.194212 
L 301.586281 31.453419 
L 301.69213 30.42293 
L 301.793606 36.340806 
L 301.929959 26.237438 
L 302.206225 30.434763 
L 302.446349 37.648913 
L 302.483279 35.450949 
L 302.721658 39.578618 
L 302.796278 37.444247 
L 302.928005 40.90558 
L 303.063896 47.499343 
L 303.235788 47.930058 
L 303.340506 58.108355 
L 303.475149 59.354927 
L 303.765262 52.411803 
L 303.894074 52.32578 
L 304.046341 47.405721 
L 304.322863 47.499433 
L 304.347962 49.410013 
L 304.483842 45.158542 
L 304.804236 42.972871 
L 304.902787 35.333085 
L 305.12796 41.959561 
L 305.211574 39.851603 
L 305.451091 43.830793 
L 305.488085 37.864952 
L 305.830405 43.18637 
L 305.938576 38.887125 
L 306.142137 42.690773 
L 306.179583 40.87363 
L 306.356188 49.643342 
L 306.45999 47.195113 
L 306.594352 52.0931 
L 306.728396 51.617456 
L 306.898407 59.544874 
L 307.021999 59.580297 
L 307.224782 61.635327 
L 307.43235 69.383985 
L 307.478622 69.156504 
L 307.623628 68.509826 
L 307.77549 60.914759 
L 307.915336 61.277622 
L 308.088606 54.423271 
L 308.332095 57.641546 
L 308.462635 58.625388 
L 308.598982 48.278655 
L 308.73628 52.033161 
L 308.882252 50.998159 
L 309.046032 51.633171 
L 309.1549 64.694682 
L 309.320166 62.434564 
L 309.459153 64.524135 
L 309.939498 51.067099 
L 310.047796 51.751798 
L 310.59457 27.880406 
L 310.729108 30.114165 
L 311.004873 40.258449 
L 311.141574 39.021677 
L 311.279786 35.315613 
L 311.450644 36.440392 
L 311.587113 41.689326 
L 311.724549 38.867581 
L 311.868514 42.528762 
L 311.999019 48.839317 
L 312.14607 45.506019 
L 312.279951 36.814677 
L 312.428313 37.693507 
L 312.560925 40.700853 
L 312.698212 46.510447 
L 312.869099 47.677251 
L 313.002281 45.649561 
L 313.140794 46.087953 
L 313.20491 51.319299 
L 313.27713 50.329202 
L 313.416737 47.32609 
L 313.555456 48.922852 
L 313.692753 61.325968 
L 313.861593 61.618513 
L 313.999076 59.262273 
L 314.138224 58.95437 
L 314.275994 61.044574 
L 314.413125 60.980378 
L 314.84057 48.86403 
L 314.995454 48.446889 
L 315.271959 36.829134 
L 315.408155 35.991531 
L 315.68317 27.1367 
L 315.717331 32.312834 
L 315.828338 31.090747 
L 315.993617 38.488101 
L 316.266761 34.881422 
L 316.404709 34.573602 
L 316.542143 35.049365 
L 316.960109 47.099863 
L 317.129675 44.934839 
L 317.401384 35.484702 
L 317.675983 51.402019 
L 317.81386 55.277158 
L 318.018977 53.127946 
L 318.233827 53.982767 
L 318.364683 59.798878 
L 318.673615 60.991636 
L 318.842072 67.391211 
L 318.946674 64.32109 
L 319.086199 54.611067 
L 319.240144 54.231911 
L 319.392614 56.348324 
L 319.55328 55.947 
L 319.839125 43.094867 
L 320.011347 48.375915 
L 320.217326 44.267969 
L 320.368395 45.425115 
L 320.400997 41.970898 
L 320.529504 46.952771 
L 320.666037 42.048544 
L 320.975703 36.52872 
L 321.224831 41.299033 
L 321.389002 38.983561 
L 321.599112 37.94959 
L 321.633896 39.864677 
L 321.801779 38.971205 
L 322.07795 47.14612 
L 322.351627 52.976095 
L 322.531273 47.125847 
L 322.663035 50.425935 
L 322.801551 51.047897 
L 323.114191 43.529493 
L 323.223338 47.948442 
L 323.385937 46.751167 
L 323.539705 47.307825 
L 323.65904 45.838044 
L 323.829637 47.84659 
L 323.996179 48.18155 
L 324.099449 44.567737 
L 324.48261 59.871403 
L 324.653911 49.333704 
L 324.9244 58.335731 
L 325.061925 57.65591 
L 325.237529 55.549567 
L 325.349446 62.672702 
L 325.782887 55.866947 
L 326.02461 52.628798 
L 326.164101 54.397313 
L 326.36923 37.620288 
L 326.746225 26.014674 
L 326.799074 20.36996 
L 326.952746 23.738644 
L 327.123179 17.681512 
L 327.196469 17.698042 
L 327.36471 13.769251 
L 327.647898 19.398757 
L 327.935319 37.059451 
L 328.063705 33.937656 
L 328.295655 32.12241 
L 328.375218 34.674396 
L 328.604556 45.814698 
L 328.881306 51.823844 
L 328.949716 47.276952 
L 329.088185 56.900237 
L 329.332291 49.364116 
L 329.474379 48.462451 
L 329.618865 54.596954 
L 330.12741 45.918461 
L 330.339614 34.865166 
L 330.47385 28.510993 
L 330.608505 37.191984 
L 330.746138 33.955786 
L 330.951072 38.985209 
L 331.157025 34.052016 
L 331.466388 43.008458 
L 331.710495 43.140272 
L 331.775455 55.049014 
L 331.914517 56.321079 
L 332.18774 48.733719 
L 332.463709 51.284079 
L 332.601033 53.831215 
L 332.7398 48.71174 
L 333.116024 54.417022 
L 333.323399 37.369451 
L 333.545131 40.429109 
L 333.708748 45.142688 
L 333.822267 42.615906 
L 333.880087 35.728741 
L 334.052714 31.9361 
L 334.257299 33.892693 
L 334.328269 30.455902 
L 334.380995 31.887451 
L 334.43008 35.259689 
L 334.603165 38.438058 
L 334.773499 48.844644 
L 335.014702 33.326843 
L 335.200305 34.66102 
L 335.496755 48.499386 
L 335.598954 48.89509 
L 335.875748 40.392988 
L 336.048733 42.088793 
L 336.185902 32.881939 
L 336.424132 54.330764 
L 336.631587 61.71437 
L 337.00965 51.178435 
L 337.283783 70.279344 
L 337.421675 66.17471 
L 337.559043 68.961839 
L 337.708925 59.892808 
L 338.00603 53.635032 
L 338.288145 55.263468 
L 338.573793 59.229227 
L 338.86369 46.867571 
L 339.140395 54.183346 
L 339.345797 59.420393 
L 339.518125 66.667173 
L 339.724537 49.321328 
L 339.862276 44.573614 
L 340.308931 49.399089 
L 340.412375 44.929788 
L 340.583624 48.859726 
L 340.692003 46.573614 
L 340.824916 52.604567 
L 340.997088 49.564187 
L 341.375687 59.809665 
L 341.513029 54.420224 
L 342.031293 62.571727 
L 342.270651 59.988749 
L 342.404895 64.094144 
L 342.542492 62.465585 
L 342.852342 62.346092 
L 343.027178 59.191718 
L 343.263111 60.085008 
L 343.678075 45.183324 
L 343.950539 54.737093 
L 344.060653 51.32331 
L 344.226918 49.657746 
L 344.40214 58.32809 
L 344.538954 49.676402 
L 344.672735 48.638443 
L 344.814426 50.055285 
L 345.016318 57.815917 
L 345.290374 48.609569 
L 345.468093 48.505118 
L 345.566675 43.141618 
L 346.285855 29.190115 
L 346.395972 22.224784 
L 346.651477 19.364648 
L 346.708291 19.935971 
L 346.807225 26.509104 
L 347.011252 30.986778 
L 347.116574 26.822954 
L 347.254092 31.910372 
L 347.391349 32.781828 
L 347.564087 43.72811 
L 347.700552 45.126339 
L 347.803654 52.598606 
L 347.945719 53.861809 
L 348.083238 50.40484 
L 348.21793 40.443135 
L 348.562519 49.755349 
L 348.665328 48.383443 
L 348.820221 48.043383 
L 348.942513 37.815746 
L 349.078675 38.36693 
L 349.216055 36.764846 
L 349.354819 43.419779 
L 349.526306 39.718678 
L 349.632401 44.882868 
L 349.936609 39.479174 
L 350.073405 32.026691 
L 350.497101 39.812149 
L 350.660239 39.96263 
L 350.964699 42.601381 
L 351.068378 32.98996 
L 351.376667 32.230862 
L 351.514996 42.52078 
L 351.687434 42.060649 
L 351.894566 42.649975 
L 352.277063 32.714925 
L 352.583169 45.184434 
L 352.649527 40.272396 
L 352.791629 41.497301 
L 352.957853 39.308484 
L 353.10515 47.746854 
L 353.440093 40.375262 
L 353.525958 43.528462 
L 353.625325 42.440748 
L 353.650022 50.840989 
L 353.786458 47.754432 
L 353.958765 47.445892 
L 354.06173 46.317447 
L 354.360961 34.547715 
L 354.507415 22.850261 
L 354.679353 22.276487 
L 354.82074 29.832804 
L 354.929755 22.503309 
L 355.165007 15.517073 
L 355.336004 24.323985 
L 355.471853 25.890219 
L 355.850222 44.236558 
L 355.884834 51.239011 
L 356.055189 47.20702 
L 356.194182 38.918826 
L 356.469186 46.539916 
L 356.783713 32.630964 
L 356.8791 40.564573 
L 357.36158 29.756796 
L 357.635224 49.422431 
L 357.753241 46.60722 
L 358.190557 58.812486 
L 358.323253 44.8677 
L 358.460662 42.255071 
L 358.666351 47.726533 
L 358.789287 45.238772 
L 359.044987 28.483529 
L 359.182872 30.141498 
L 359.456108 23.094188 
L 359.59636 23.355264 
L 359.732234 35.638974 
L 359.868171 35.862567 
L 360.177236 30.969836 
L 360.291413 36.750973 
L 360.453114 36.258649 
L 360.591056 37.637631 
L 360.727258 42.119173 
L 360.90516 41.981114 
L 361.176694 42.215061 
L 361.315163 39.01065 
L 361.450507 42.39908 
L 361.623929 41.872264 
L 361.895874 48.065522 
L 362.069229 48.68095 
L 362.17303 46.963013 
L 362.282584 50.774473 
L 362.444317 50.244984 
L 362.719887 54.421531 
L 362.963432 50.875868 
L 363.028982 52.722059 
L 363.441962 38.85285 
L 363.579513 44.988992 
L 363.751681 41.647298 
L 363.854038 49.775624 
L 364.00847 46.535794 
L 364.127705 46.608413 
L 364.418724 41.960407 
L 364.711746 48.834385 
L 364.951975 48.185776 
L 365.263975 31.134968 
L 365.405697 29.106829 
L 365.572229 21.221985 
L 365.779424 21.670292 
L 365.882954 23.38919 
L 366.008399 16.903827 
L 366.191716 18.383923 
L 366.568695 39.374711 
L 366.6864 32.493708 
L 366.844103 33.394 
L 367.016767 42.663685 
L 367.118812 41.464231 
L 367.530692 56.235613 
L 367.644157 54.577693 
L 367.806483 47.715483 
L 367.840015 40.52681 
L 367.979159 39.865749 
L 368.115654 39.780216 
L 368.252487 42.069723 
L 368.390728 42.153179 
L 368.527363 45.682089 
L 368.675368 43.094689 
L 368.838032 36.398152 
L 368.974956 35.482294 
L 369.331456 48.215392 
L 369.421582 42.016657 
L 369.563243 47.448609 
L 369.77504 46.128431 
L 369.835213 41.534508 
L 370.073492 44.764301 
L 370.115908 42.218847 
L 370.281574 39.158362 
L 370.521548 42.516735 
L 370.660632 41.864189 
L 370.96902 54.184475 
L 371.140631 54.030397 
L 371.382445 58.262557 
L 371.655788 55.363794 
L 371.724671 62.323321 
L 371.865276 62.784302 
L 371.93999 61.467245 
L 372.104038 56.560134 
L 372.243384 56.79508 
L 372.830151 28.239715 
L 372.971255 27.981631 
L 373.109933 22.889912 
L 373.279448 20.829677 
L 373.687459 25.914219 
L 374.0731 50.728981 
L 374.244496 49.564002 
L 374.379501 49.65982 
L 374.664053 53.835714 
L 374.802097 53.076112 
L 374.939792 49.347221 
L 375.113259 51.809505 
L 375.216986 47.058132 
L 375.402166 49.099514 
L 375.525587 46.815271 
L 375.797876 59.466989 
L 376.038516 60.226196 
L 376.382172 66.563602 
L 376.519694 58.241603 
L 376.625722 61.653223 
L 376.795258 59.50075 
L 377.081884 45.846335 
L 377.22037 49.933115 
L 377.345669 48.852629 
L 377.519066 45.816484 
L 377.638035 36.105685 
L 377.985311 40.598004 
L 378.175489 37.662465 
L 378.242907 31.62546 
L 378.519852 37.884702 
L 378.622553 33.97974 
L 378.82857 32.233373 
L 378.931943 34.861982 
L 378.967005 42.908467 
L 379.072108 41.232473 
L 379.351026 27.631419 
L 379.482316 27.518455 
L 380.205501 52.635847 
L 380.484338 47.678952 
L 380.75859 62.160426 
L 380.930882 64.009534 
L 381.034394 59.11164 
L 381.188028 58.656267 
L 381.204929 55.232399 
L 381.342595 55.173786 
L 381.480328 43.19927 
L 381.620606 41.219097 
L 381.757684 41.01632 
L 381.893924 54.62139 
L 382.110602 48.079799 
L 382.205116 51.875144 
L 382.376188 52.878201 
L 382.788359 31.676337 
L 382.976372 31.801839 
L 383.002504 30.370704 
L 383.04275 32.473265 
L 383.17288 34.688552 
L 383.316002 26.194003 
L 383.453242 26.910757 
L 383.5922 18.120379 
L 383.727586 17.232181 
L 383.898658 20.677223 
L 384.037014 26.363134 
L 384.174498 26.172256 
L 384.312269 32.951827 
L 384.757665 27.783016 
L 385.039411 33.43973 
L 385.307151 42.907982 
L 385.481604 44.328147 
L 385.582612 53.001146 
L 385.757796 47.007522 
L 385.893106 46.717254 
L 386.313235 37.705006 
L 386.442983 38.847003 
L 386.579133 31.182293 
L 386.725555 33.177041 
L 387.026727 32.508175 
L 387.200532 37.147482 
L 387.422131 35.739018 
L 387.507477 37.193576 
L 387.715815 45.765245 
L 387.859176 43.758246 
L 388.197666 54.111599 
L 388.298169 48.883429 
L 388.675796 45.116608 
L 388.784761 46.631328 
L 388.918581 46.765119 
L 389.022173 42.568649 
L 389.126952 45.636465 
L 389.33855 45.249099 
L 389.609002 31.390612 
L 389.778341 31.453697 
L 390.091577 37.695685 
L 390.137542 32.521643 
L 390.300486 30.268259 
L 390.500312 31.322815 
L 390.578534 26.26916 
L 390.707929 31.665679 
L 390.848436 31.489212 
L 390.983931 38.916682 
L 391.33475 35.0651 
L 391.44114 25.067218 
L 391.842499 37.941871 
L 391.983744 40.705052 
L 392.149332 36.190383 
L 392.253291 39.376424 
L 392.421647 39.624318 
L 392.870087 61.401124 
L 393.112126 62.641349 
L 393.283916 54.597957 
L 393.420799 55.701675 
L 393.561887 53.445918 
L 393.692857 53.503349 
L 393.863852 47.399359 
L 394.089395 44.168565 
L 394.520259 27.175009 
L 394.621369 24.575598 
L 394.998712 32.293876 
L 395.104487 27.425133 
L 395.26669 30.943684 
L 395.514781 32.360509 
L 395.688041 39.030802 
L 396.032235 54.748304 
L 396.103855 49.7473 
L 396.444045 47.183207 
L 396.620501 53.620096 
L 396.684074 51.462016 
L 396.890792 50.68956 
L 397.103614 53.82507 
L 397.482435 33.631751 
L 397.516981 42.586351 
L 397.859218 36.037716 
L 397.962508 34.725058 
L 398.09989 42.454062 
L 398.238749 40.136894 
L 398.581718 22.705388 
L 398.822191 37.401101 
L 398.959067 42.35468 
L 399.247047 33.102739 
L 399.373446 36.761892 
L 399.680286 28.979524 
L 400.092137 46.124844 
L 400.232312 48.162984 
L 400.401651 47.22743 
L 400.713519 61.198686 
L 400.919473 53.727032 
L 401.09328 56.855529 
L 401.246476 51.296976 
L 401.395518 51.1328 
L 401.414643 43.189376 
L 401.523037 43.192572 
L 401.656106 35.624721 
L 401.897215 33.901688 
L 401.965716 34.438994 
L 402.102666 29.057275 
L 402.206769 43.899927 
L 402.652258 58.789814 
L 402.806921 55.183853 
L 403.114131 66.970878 
L 403.201923 61.849844 
L 403.385851 60.293503 
L 403.785008 46.565583 
L 403.927376 47.742596 
L 404.065129 51.471655 
L 404.341605 53.567585 
L 404.476831 58.356075 
L 404.747662 57.693564 
L 404.924085 63.642355 
L 405.061383 53.305775 
L 405.199714 52.163323 
L 405.336243 53.953209 
L 405.507937 50.272968 
L 405.621636 50.855447 
L 405.785113 31.979563 
L 405.920089 26.44977 
L 406.14732 29.736656 
L 406.198358 26.548453 
L 406.543192 41.205841 
L 406.722956 44.799172 
L 406.785716 35.356862 
L 407.059792 34.835715 
L 407.344979 46.981685 
L 407.470349 57.794805 
L 407.680968 61.819056 
L 407.780099 61.339547 
L 408.060437 44.155405 
L 408.259418 40.93593 
L 408.50122 43.667272 
L 408.706734 47.477297 
L 408.881484 42.220826 
L 409.359301 38.615666 
L 409.463215 46.145422 
L 409.6008 47.869422 
L 409.77063 43.821723 
L 409.977533 43.113288 
L 410.045873 38.201609 
L 410.265515 39.057779 
L 410.389819 32.263858 
L 410.574072 30.396908 
L 410.596691 26.978037 
L 410.736301 36.379877 
L 410.875184 31.030487 
L 410.905462 43.205513 
L 411.009507 40.145632 
L 411.457202 54.995387 
L 411.627015 50.057289 
L 411.867404 40.359577 
L 412.04108 41.545413 
L 412.313342 42.611405 
L 412.394515 40.159633 
L 412.452697 47.560178 
L 412.732471 28.872234 
L 413.03644 43.043882 
L 413.173377 47.171357 
L 413.309504 47.631823 
L 413.447726 45.620399 
L 413.586859 32.680913 
L 413.757899 36.600785 
L 413.863194 33.962984 
L 414.217342 49.922823 
L 414.426362 38.819427 
L 414.472853 40.642239 
L 414.588112 51.484143 
L 414.731117 53.788305 
L 414.863247 59.203305 
L 415.003898 71.140727 
L 415.140987 63.194316 
L 415.27985 64.187656 
L 415.501992 67.198722 
L 415.56506 56.028376 
L 415.697017 59.940048 
L 415.863996 54.847004 
L 416.000591 46.887129 
L 416.176722 46.938997 
L 416.417173 35.6058 
L 416.587866 39.789867 
L 416.723861 36.753943 
L 416.965299 39.060466 
L 417.17161 49.366289 
L 417.319096 49.487913 
L 417.589062 53.309321 
L 417.825493 62.319262 
L 417.96714 65.217222 
L 418.271718 53.078457 
L 418.594727 40.344214 
L 418.685876 41.931502 
L 418.996599 36.187529 
L 419.132834 28.868917 
L 419.542696 40.969673 
L 419.714508 42.913269 
L 419.920524 56.249782 
L 420.091939 51.877462 
L 420.305685 54.678082 
L 420.472187 59.567271 
L 420.613475 59.286241 
L 420.723261 55.803514 
L 420.923289 54.636274 
L 420.992014 48.306505 
L 421.129088 49.784067 
L 421.242545 44.650793 
L 421.442688 47.631876 
L 421.609714 54.097954 
L 421.679628 45.953405 
L 421.850274 46.350114 
L 421.953164 55.525623 
L 422.228284 41.104307 
L 422.501566 48.133268 
L 422.673742 43.274725 
L 422.820824 46.240686 
L 422.972771 41.471362 
L 423.090838 49.061587 
L 423.385224 45.196149 
L 423.670623 52.916317 
L 423.809571 48.040208 
L 423.949052 52.011353 
L 424.117194 39.563217 
L 424.290505 42.432908 
L 424.395474 47.144307 
L 424.531512 37.884486 
L 424.66773 44.580122 
L 424.805785 36.516466 
L 424.94788 36.241125 
L 425.427036 45.199119 
L 425.537609 58.979558 
L 425.642327 57.084092 
L 425.805541 47.164233 
L 425.94407 46.664509 
L 426.124648 47.914149 
L 426.306723 52.47675 
L 426.649545 41.801607 
L 426.786434 41.981501 
L 426.921767 40.249647 
L 427.097443 35.728949 
L 427.231336 41.255924 
L 427.521256 38.929997 
L 427.655619 44.732107 
L 427.890568 45.259159 
L 427.918324 53.249994 
L 428.055656 58.624002 
L 428.364282 49.107134 
L 428.608491 55.160226 
L 428.67736 51.816009 
L 428.781464 56.047759 
L 429.059467 38.211592 
L 429.295289 43.856025 
L 429.366621 32.77274 
L 429.570196 30.725181 
L 429.775488 40.8389 
L 429.914535 35.809471 
L 430.051758 43.853453 
L 430.195362 45.364197 
L 430.386827 61.584155 
L 430.469819 57.716293 
L 430.636313 55.176733 
L 430.77724 64.296122 
L 430.913003 62.95847 
L 431.195209 59.134682 
L 431.359476 46.539497 
L 431.667053 51.129824 
L 431.785198 41.819967 
L 432.054331 47.937129 
L 432.253576 39.690926 
L 432.47117 47.323663 
L 432.675297 52.463557 
L 432.768693 61.343292 
L 433.041767 55.870715 
L 433.179927 59.61582 
L 434.355109 30.469319 
L 434.486977 30.711779 
L 434.518476 25.139234 
L 434.897417 45.273618 
L 435.207632 50.932741 
L 435.58544 46.989236 
L 435.756427 40.955316 
L 436.029737 45.784321 
L 436.306141 36.599941 
L 436.580686 36.517037 
L 436.831173 41.704462 
L 437.029347 53.499676 
L 437.198096 54.826219 
L 437.540657 53.38906 
L 437.578995 59.572481 
L 437.716376 63.032813 
L 437.886183 61.065655 
L 438.162949 51.803874 
L 438.297208 56.219147 
L 438.443811 53.069363 
L 438.610258 56.565567 
L 438.75202 55.019916 
L 439.198867 37.815999 
L 439.301126 41.948836 
L 439.645272 47.194728 
L 439.750707 43.91577 
L 439.920907 42.752974 
L 439.994494 47.80997 
L 440.164144 41.784006 
L 440.311554 44.609119 
L 440.470868 39.752387 
L 440.575278 44.667442 
L 440.712633 39.407293 
L 440.989084 34.720438 
L 441.159986 27.205036 
L 441.400637 29.734002 
L 441.537339 22.306108 
L 441.606056 27.97771 
L 441.813128 27.72297 
L 441.85171 33.987054 
L 441.985295 33.793564 
L 442.133316 35.228907 
L 442.264725 41.06454 
L 442.431152 41.552599 
L 442.568668 39.733052 
L 442.705994 35.834092 
L 442.846214 40.927274 
L 442.984135 35.049281 
L 443.155528 36.676703 
L 443.258391 39.210095 
L 443.393658 38.377074 
L 443.596885 42.117367 
L 443.699146 34.893068 
L 443.8473 32.531203 
L 444.07738 34.206709 
L 444.145101 36.423507 
L 444.386145 31.333004 
L 444.522869 33.65775 
L 444.591588 28.880315 
L 444.736429 37.380227 
L 444.970398 32.867026 
L 445.106904 35.729646 
L 445.429737 45.148347 
L 445.794978 51.640606 
L 445.974349 61.303074 
L 446.274808 53.79774 
L 446.377817 52.56355 
L 446.521016 53.86333 
L 446.688816 49.096264 
L 446.826055 52.874297 
L 447.103133 50.281836 
L 447.340249 41.19969 
L 447.40982 32.444343 
L 447.718487 26.839703 
L 447.892876 31.352056 
L 447.95882 26.683912 
L 448.156368 30.518212 
L 448.382636 23.402164 
L 448.8203 39.199903 
L 448.955887 31.058827 
L 449.105288 37.391024 
L 449.227174 35.897545 
L 449.400075 42.247254 
L 449.503675 36.447779 
L 449.708396 38.17814 
L 449.845413 42.827013 
L 449.951701 32.05978 
L 450.497796 43.515316 
L 450.603493 41.079131 
L 450.67012 41.368684 
L 450.944227 46.779868 
L 451.082902 45.872441 
L 451.221325 37.081184 
L 451.632224 29.837529 
L 451.808125 38.980429 
L 451.941963 37.918816 
L 452.082624 37.796745 
L 452.215325 34.639818 
L 452.356166 37.21585 
L 452.492594 36.345233 
L 452.801671 47.104943 
L 453.21205 41.343104 
L 453.348919 42.085743 
L 453.499501 42.236366 
L 453.62519 34.109019 
L 453.801741 34.973467 
L 453.93287 33.650109 
L 454.346393 41.319618 
L 454.630687 35.819161 
L 454.764952 36.983567 
L 454.89694 41.258345 
L 455.069711 42.554793 
L 455.204778 34.356386 
L 455.340959 37.63127 
L 455.619537 30.673181 
L 455.774698 35.509157 
L 455.893097 34.491706 
L 456.34255 22.450616 
L 456.614008 34.582621 
L 456.892457 27.609297 
L 457.028515 35.536101 
L 457.202162 32.094323 
L 457.337457 34.964506 
L 457.479607 40.870177 
L 457.928695 32.419184 
L 457.957298 48.185312 
L 458.094896 41.082619 
L 458.304339 49.070383 
L 458.47163 44.120399 
L 458.645772 50.937834 
L 458.749572 50.753759 
L 458.95357 53.995942 
L 459.169022 62.189416 
L 459.333032 61.408361 
L 459.609413 47.064063 
L 459.744826 54.608649 
L 459.881393 53.919943 
L 460.043008 52.282208 
L 460.055434 54.555888 
L 460.15875 47.557137 
L 460.190972 34.515347 
L 460.370526 40.9349 
L 460.741095 42.157408 
L 460.87844 37.135032 
L 461.014598 40.288012 
L 461.290941 42.453068 
L 461.453056 45.21505 
L 461.736039 62.733763 
L 461.908995 62.69859 
L 462.012055 60.312425 
L 462.151928 61.558038 
L 462.388943 66.897318 
L 462.494521 65.868687 
L 462.629859 54.473462 
L 462.838768 48.608083 
L 462.869411 49.23043 
L 463.144406 22.769185 
L 463.284634 21.794836 
L 463.45379 17.822061 
L 463.62553 17.000659 
L 463.72934 19.014803 
L 464.0101 29.958013 
L 464.281221 42.643795 
L 464.421906 53.464254 
L 464.588514 49.660724 
L 464.864006 53.898185 
L 464.979681 64.534376 
L 465.140726 55.053459 
L 465.38353 43.623263 
L 465.450113 48.109767 
L 465.86471 39.02489 
L 466.049337 49.162023 
L 466.347664 39.348003 
L 466.412837 42.758859 
L 466.65525 46.449786 
L 466.691274 49.426053 
L 466.895909 49.882159 
L 466.997155 51.515993 
L 467.133951 51.897645 
L 467.581646 30.884525 
L 467.719368 34.80801 
L 467.823494 34.171767 
L 467.994818 22.365641 
L 468.166866 27.538893 
L 468.269854 26.202728 
L 468.579489 32.716886 
L 468.853157 49.468431 
L 469.09515 54.36158 
L 469.234643 45.463845 
L 469.403126 52.930413 
L 469.439883 59.705978 
L 469.575419 56.658896 
L 469.849471 45.86081 
L 469.986804 45.508765 
L 470.283794 32.486275 
L 470.469493 29.691051 
L 470.641044 36.518293 
L 470.712729 23.583088 
L 470.8152 24.305107 
L 470.984041 22.788727 
L 471.121347 30.189509 
L 471.259433 28.372705 
L 471.499439 30.982715 
L 471.672612 26.44433 
L 471.808793 33.833253 
L 471.980491 28.364845 
L 472.151441 29.686219 
L 472.393858 29.874271 
L 472.531412 29.735575 
L 472.705228 24.139567 
L 472.81828 31.473624 
L 472.99818 33.880763 
L 473.161558 38.699592 
L 473.361021 32.295103 
L 473.397066 37.851291 
L 473.669999 47.742415 
L 473.843059 46.487682 
L 474.047284 43.937143 
L 474.226696 47.982081 
L 474.253257 43.987732 
L 474.568541 41.346149 
L 474.769057 40.770599 
L 474.810003 36.021021 
L 474.943902 42.685807 
L 475.08086 41.770826 
L 475.216802 41.893281 
L 475.663924 51.737804 
L 475.8022 53.69584 
L 475.954455 51.654936 
L 476.351296 37.993288 
L 476.561467 38.453938 
L 476.663984 41.835308 
L 477.074651 39.826346 
L 477.106858 42.014651 
L 477.350094 36.836325 
L 477.789092 52.07531 
L 477.92949 50.697112 
L 478.073431 46.517389 
L 478.202647 46.844811 
L 478.34551 47.858694 
L 478.509765 37.941684 
L 478.78405 49.327065 
L 478.92042 43.908962 
L 479.060111 45.509949 
L 479.194762 38.57541 
L 479.478085 46.885901 
L 479.640861 46.765729 
L 479.778228 46.109361 
L 479.915819 48.041117 
L 480.058335 47.393074 
L 480.328878 36.81268 
L 480.467914 33.833077 
L 480.6105 35.611868 
L 480.913238 26.707562 
L 481.324636 31.501114 
L 481.466844 28.432085 
L 481.771754 40.928907 
L 481.908657 39.832814 
L 482.04729 39.387113 
L 482.184565 35.969124 
L 482.337194 39.493986 
L 482.463597 36.316788 
L 482.610697 36.338152 
L 482.81476 36.98939 
L 482.905336 36.687456 
L 483.180408 40.847428 
L 483.317897 42.7022 
L 483.455709 36.108992 
L 483.595649 39.368219 
L 483.628272 48.868101 
L 483.765658 38.307936 
L 483.936625 42.116678 
L 484.040575 41.782473 
L 484.177913 42.85276 
L 484.386895 41.684562 
L 484.596633 37.02109 
L 484.761084 36.775286 
L 484.928935 47.959809 
L 485.1414 48.674578 
L 485.243151 51.292141 
L 485.34516 42.710005 
L 485.620288 44.741336 
L 485.757982 49.43197 
L 485.894459 49.96926 
L 486.000825 56.718581 
L 486.178717 55.651423 
L 486.342935 53.030423 
L 486.446464 55.902564 
L 486.640065 54.515979 
L 486.720763 58.63384 
L 486.909589 50.642003 
L 487.117129 49.179748 
L 487.184199 42.985966 
L 487.356784 37.830187 
L 487.597471 27.532117 
L 487.733831 25.97899 
L 487.871768 28.694266 
L 488.008492 29.128638 
L 488.322293 31.780852 
L 488.421787 32.652814 
L 488.594354 32.647993 
L 488.730535 32.396991 
L 488.901675 32.915907 
L 489.005572 33.848332 
L 489.17842 30.962247 
L 489.280727 12.48582 
L 489.451185 12.233492 
L 489.794217 21.966847 
L 489.863283 14.231739 
L 490.172941 15.453556 
L 490.345419 14.920804 
L 490.448832 17.624424 
L 490.586357 25.051375 
L 490.725625 40.491117 
L 491.0023 33.25041 
L 491.135653 30.057235 
L 491.342147 35.958637 
L 491.444744 32.16453 
L 491.583974 37.369905 
L 491.757949 39.370492 
L 491.871992 37.805585 
L 492.145154 25.787895 
L 492.285172 34.003256 
L 492.492338 32.383557 
L 492.56421 33.18414 
L 492.705457 32.450893 
L 492.845664 53.46202 
L 492.878366 44.093714 
L 493.005978 43.206396 
L 493.286203 35.389112 
L 493.419417 37.435286 
L 493.628391 37.392676 
L 493.770564 30.643773 
L 493.969962 34.822348 
L 494.107828 31.041568 
L 494.441662 27.282764 
L 494.55435 30.056805 
L 494.692438 39.795323 
L 494.829259 39.811057 
L 495.139698 48.381476 
L 495.279172 45.918161 
L 495.723361 51.584959 
L 496.242355 47.977711 
L 496.57108 50.820182 
L 496.797241 50.557511 
L 497.106459 40.048467 
L 497.252922 39.375001 
L 497.514992 45.145372 
L 497.549229 43.420752 
L 497.789328 47.039999 
L 497.87703 34.480019 
L 497.961616 38.766084 
L 498.101979 36.742642 
L 498.241286 39.275266 
L 498.410647 39.182136 
L 498.585751 41.717313 
L 498.686868 46.612528 
L 498.806409 39.465288 
L 498.967025 40.936828 
L 499.248517 37.674296 
L 499.304123 47.302635 
L 499.408545 45.429003 
L 499.587101 46.720745 
L 499.688658 48.427093 
L 499.971993 57.031328 
L 500.098288 54.231758 
L 500.42658 63.046988 
L 500.564494 60.689027 
L 500.75442 54.493348 
L 500.962338 61.401115 
L 501.239077 48.95507 
L 501.579305 36.393816 
L 501.64685 39.261411 
L 501.992547 34.869903 
L 502.093614 41.077553 
L 502.473224 30.035741 
L 502.890086 42.226841 
L 502.956725 43.771798 
L 503.26811 40.24638 
L 503.402103 46.101506 
L 503.503668 41.972079 
L 503.649269 44.313767 
L 503.813081 40.346831 
L 504.054474 42.301943 
L 504.231625 44.891225 
L 504.329957 37.467745 
L 504.398328 43.414447 
L 504.603884 32.942156 
L 504.672557 36.574207 
L 504.920593 26.631796 
L 505.053706 32.620463 
L 505.190452 32.466384 
L 505.222916 29.973672 
L 505.361018 30.787878 
L 505.638436 25.726406 
L 505.808588 23.559147 
L 506.049097 33.357394 
L 506.255495 35.007077 
L 506.392304 38.722982 
L 506.50249 32.711588 
L 506.670102 46.268065 
L 506.8157 44.226948 
L 506.982443 47.753097 
L 507.28831 42.291122 
L 507.525585 43.689924 
L 507.698007 33.175313 
L 507.835397 33.493221 
L 507.94039 32.728577 
L 508.114683 29.303579 
L 508.147143 16.533304 
L 508.431545 22.411805 
L 508.454777 34.055954 
L 508.659888 39.221751 
L 508.762357 33.546963 
L 508.901743 34.268625 
L 509.088245 36.19226 
L 509.187055 33.123862 
L 509.486263 44.69892 
L 509.760345 45.0802 
L 509.898719 41.506825 
L 510.036828 29.467658 
L 510.207274 28.402254 
L 510.472291 31.054659 
L 510.487392 20.066572 
L 510.756792 27.601813 
L 510.974869 24.050804 
L 511.036771 30.846215 
L 511.306804 25.10395 
L 511.586422 39.66545 
L 511.757996 37.877477 
L 511.890688 43.030503 
L 512.029014 43.006074 
L 512.166017 36.861801 
L 512.309082 41.186441 
L 512.443563 34.111213 
L 512.580259 34.798144 
L 512.756068 32.722422 
L 513.024789 34.030779 
L 513.137066 24.84003 
L 513.162809 31.153959 
L 513.369924 46.720259 
L 513.644736 52.940873 
L 514.022204 44.197312 
L 514.16394 41.976485 
L 514.432896 43.158828 
L 514.468165 48.125456 
L 514.6057 33.963502 
L 514.88421 25.547644 
L 515.16557 15.426543 
L 515.344195 19.029978 
L 515.511283 13.076665 
L 515.617242 17.138733 
L 515.89024 12.484338 
L 515.99377 16.330592 
L 516.265876 16.131876 
L 516.372314 18.421121 
L 516.44184 24.758045 
L 516.821321 30.910574 
L 516.921986 30.641164 
L 517.062104 30.6338 
L 517.165501 29.830701 
L 517.540434 38.743733 
L 517.575301 48.078537 
L 517.765878 46.911253 
L 518.023283 42.296028 
L 518.411862 57.396047 
L 518.505292 62.234995 
L 518.685046 61.414648 
L 518.828775 59.000258 
L 518.863745 62.66023 
L 519.06223 58.351351 
L 519.165211 64.83194 
L 519.268763 64.32277 
L 519.562253 65.525575 
L 519.681275 61.478876 
L 519.714562 54.867832 
L 519.855733 49.576995 
L 520.014386 48.96363 
L 520.135341 49.971849 
L 520.273533 47.698077 
L 520.477041 48.498929 
L 520.749644 38.39965 
L 520.865433 42.735097 
L 520.990304 40.81155 
L 521.440118 55.081622 
L 521.545669 39.916889 
L 521.713217 40.286491 
L 522.131477 30.659065 
L 522.36692 32.657117 
L 522.437059 34.457155 
L 522.675548 34.702479 
L 522.886517 26.197297 
L 523.123278 35.662583 
L 523.293521 36.796925 
L 523.469629 34.433391 
L 523.55809 34.567965 
L 523.776882 33.576622 
L 523.843946 33.653497 
L 523.946186 27.789603 
L 524.120351 24.782385 
L 524.393073 31.359772 
L 524.531188 29.647206 
L 524.873373 42.035603 
L 524.975951 38.58505 
L 525.133355 40.086363 
L 525.14833 47.842835 
L 525.252844 46.572148 
L 525.436511 49.027588 
L 525.584351 46.310562 
L 525.597074 48.407064 
L 525.812279 43.940345 
L 525.975599 53.057359 
L 526.190782 52.789755 
L 526.319079 53.404146 
L 526.390082 54.547297 
L 526.529857 53.386382 
L 526.667392 41.099651 
L 526.935584 54.922793 
L 527.176967 54.807117 
L 527.284124 51.269019 
L 527.420648 36.898885 
L 527.519648 38.028859 
L 527.657395 38.205407 
L 527.897766 41.39128 
L 527.932771 34.491608 
L 528.075068 46.30888 
L 528.534319 36.429956 
L 528.665871 36.96947 
L 528.81693 50.538277 
L 528.93094 41.294681 
L 529.0814 39.646588 
L 529.274527 39.110132 
L 529.379932 43.662115 
L 529.518038 30.318234 
L 529.651481 31.061512 
L 530.005259 36.303078 
L 530.063851 44.045889 
L 530.201178 37.001311 
L 530.511221 47.231395 
L 530.632533 50.43693 
L 530.819022 42.912858 
L 530.922994 55.447596 
L 531.128247 58.169944 
L 531.232424 57.166044 
L 531.402248 57.367671 
L 531.574777 54.536277 
L 531.644919 57.292528 
L 531.781508 54.415677 
L 531.917898 58.492754 
L 532.056629 57.010732 
L 532.228873 64.207201 
L 532.50368 52.499444 
L 532.640864 51.915817 
L 532.778837 49.205172 
L 533.053247 42.947115 
L 533.194932 43.449843 
L 533.501124 32.38861 
L 534.022094 38.547139 
L 534.162665 38.185403 
L 534.221715 36.730712 
L 534.446196 39.38803 
L 534.499838 38.705865 
L 534.602358 39.825753 
L 534.772122 38.364161 
L 535.046685 45.36938 
L 535.184848 42.077736 
L 535.39209 42.524005 
L 535.45973 45.458101 
L 535.631805 46.575961 
L 535.73549 38.887424 
L 535.908142 40.315062 
L 536.254035 48.717503 
L 536.326747 44.587756 
L 536.560264 45.76467 
L 536.662961 55.290119 
L 536.766398 49.836661 
L 536.941936 47.63031 
L 537.316232 51.38404 
L 537.525057 46.601332 
L 537.592907 40.007468 
L 537.729625 40.97054 
L 538.037324 30.331062 
L 538.212582 32.053424 
L 538.311935 29.640234 
L 538.484442 34.986811 
L 538.727402 46.049265 
L 538.758415 40.263676 
L 539.105663 42.701119 
L 539.239552 41.258617 
L 539.376938 37.197198 
L 539.514955 38.002531 
L 539.755211 48.995491 
L 539.889665 45.929805 
L 540.304983 44.067071 
L 540.556841 47.825684 
L 540.722641 54.579583 
L 540.868767 52.100824 
L 541.026933 52.728991 
L 541.164526 47.560925 
L 541.304002 47.74129 
L 541.577354 37.575601 
L 541.713678 39.423002 
L 541.884581 37.773486 
L 542.058322 40.442745 
L 542.160439 35.407663 
L 542.331401 36.242898 
L 542.4764 30.852026 
L 542.57476 34.181161 
L 542.709888 28.16184 
L 542.84738 34.717873 
L 543.037393 36.869964 
L 543.226422 36.063064 
L 543.431873 28.66774 
L 543.604583 34.575168 
L 543.706918 34.385167 
L 543.878119 39.844223 
L 544.007956 40.431423 
L 544.144987 46.669767 
L 544.416008 44.981488 
L 544.856826 54.51452 
L 545.002225 53.672192 
L 545.134559 63.570536 
L 545.621329 50.45128 
L 545.702139 55.796437 
L 545.996827 50.729833 
L 546.134798 51.035854 
L 546.274758 49.580398 
L 546.479412 48.83855 
L 546.617668 42.160349 
L 546.823708 54.633541 
L 546.994312 57.503372 
L 547.101451 51.312219 
L 547.269166 51.861849 
L 547.589249 54.058464 
L 547.681356 57.856785 
L 547.819062 57.34927 
L 548.094637 50.274761 
L 548.2639 48.139476 
L 548.405778 48.840304 
L 548.540298 46.269193 
L 548.682641 47.933392 
L 548.821219 51.451888 
L 548.962125 47.772834 
L 549.537029 56.170246 
L 549.677 46.296813 
L 549.950076 54.994578 
L 550.09242 56.672935 
L 550.228829 54.161094 
L 550.397634 58.0358 
L 550.542416 56.371361 
L 550.863048 50.595211 
L 550.880211 56.526609 
L 550.949565 45.258917 
L 551.261245 32.373497 
L 551.385918 35.507913 
L 551.679089 31.163642 
L 551.816607 34.020205 
L 551.947932 33.55824 
L 552.085861 39.400816 
L 552.222375 36.217059 
L 552.510623 59.597919 
L 552.63809 68.873895 
L 552.94614 58.159451 
L 553.082474 61.291608 
L 553.35938 40.955106 
L 553.49723 38.701534 
L 553.661976 38.102121 
L 553.806925 21.161968 
L 553.943684 25.181397 
L 554.253092 19.17177 
L 554.388864 23.553663 
L 554.492454 22.911313 
L 555.044098 33.668947 
L 555.215163 49.617713 
L 555.454329 46.552352 
L 555.570952 48.776334 
L 555.662002 59.755034 
L 555.976703 68.578191 
L 556.177511 68.764384 
L 556.347756 64.356781 
L 556.416422 73.232467 
L 556.692505 57.049303 
L 556.793524 62.793037 
L 557.074376 51.262104 
L 557.345924 44.477731 
L 557.51829 43.449716 
L 557.684153 49.302247 
L 557.752944 44.888305 
L 557.895985 45.542942 
L 558.029485 48.644752 
L 558.202514 41.022167 
L 558.716199 48.257114 
L 558.786226 55.712446 
L 558.956469 59.572117 
L 559.066664 57.53548 
L 559.164659 48.723623 
L 559.392008 48.992989 
L 559.473357 46.681162 
L 559.819134 45.564817 
L 560.092879 29.775845 
L 560.230951 17.746853 
L 560.441829 18.743246 
L 560.823269 28.95104 
L 560.915741 32.667791 
L 561.054195 32.406909 
L 561.199286 34.307824 
L 561.329455 38.815689 
L 561.466671 38.902942 
L 561.652968 46.719286 
L 561.679326 44.578028 
L 561.812835 43.705178 
L 561.88146 41.60327 
L 562.022777 41.396559 
L 562.156463 39.124979 
L 562.339129 32.156891 
L 562.464418 34.497693 
L 562.608011 33.112895 
L 562.808514 33.801346 
L 563.11503 26.422884 
L 563.194584 30.847332 
L 563.339631 26.987005 
L 563.665248 31.435748 
L 563.733385 35.806079 
L 563.872781 31.637523 
L 564.183152 33.910686 
L 564.321619 29.996699 
L 564.5258 35.808012 
L 564.627646 35.558625 
L 564.870155 37.770888 
L 565.006339 37.693267 
L 565.038629 41.293096 
L 565.180614 38.505274 
L 565.315881 45.11053 
L 565.421752 39.968278 
L 565.593576 39.9106 
L 565.863285 40.610025 
L 566.007307 39.887968 
L 566.139179 40.803403 
L 566.309753 43.152648 
L 566.422895 41.790353 
L 566.585636 41.299534 
L 566.723732 38.395812 
L 567.109171 48.677648 
L 567.204873 56.471464 
L 567.342846 56.195849 
L 567.479957 48.024817 
L 567.616925 47.077379 
L 567.840131 43.269835 
L 568.017909 42.136325 
L 568.17837 43.615479 
L 568.460892 39.66782 
L 568.635497 27.159441 
L 568.961741 39.780304 
L 568.994358 34.781601 
L 569.026956 40.30944 
L 569.167065 40.289567 
L 569.274037 42.647775 
L 569.439663 43.67613 
L 569.645883 39.197354 
L 569.892212 46.028874 
L 569.993859 46.003237 
L 570.470874 31.949378 
L 570.65196 35.270371 
L 570.71121 34.989054 
L 570.848107 35.274186 
L 570.986401 39.315044 
L 571.298957 42.988063 
L 571.540137 56.101327 
L 571.709519 53.603884 
L 571.983355 59.395909 
L 572.121348 56.399916 
L 572.293469 55.977481 
L 572.429773 60.593531 
L 572.888545 50.618398 
L 572.992592 48.388727 
L 573.117663 61.961982 
L 573.256526 62.093184 
L 573.427164 60.063042 
L 573.533084 62.95777 
L 573.808308 48.430031 
L 573.944384 47.570544 
L 574.117305 44.600535 
L 574.320454 45.947182 
L 574.561202 32.933655 
L 574.801852 31.509786 
L 574.907447 28.107234 
L 575.013377 31.166107 
L 575.116296 40.610467 
L 575.393769 27.116571 
L 575.535803 31.005425 
L 575.673644 25.730152 
L 575.81588 28.560169 
L 576.263949 42.136263 
L 576.420996 45.65774 
L 576.63416 47.661536 
L 576.955834 62.312773 
L 577.08422 65.164023 
L 577.285378 62.48691 
L 577.528277 54.255916 
L 577.667241 60.20342 
L 577.811299 50.957174 
L 577.944253 52.262513 
L 577.975409 61.158456 
L 578.275745 46.756339 
L 578.353493 47.682403 
L 578.50245 47.340276 
L 578.79888 52.63211 
L 579.074709 41.093131 
L 579.350149 51.654776 
L 579.520696 52.590674 
L 579.651996 57.606217 
L 579.813239 58.837706 
L 579.96004 57.897762 
L 579.984538 62.94375 
L 580.107974 64.74905 
L 580.208253 59.982818 
L 580.370435 67.859229 
L 580.508804 63.343277 
L 580.672097 53.613217 
L 580.809866 52.506889 
L 580.984685 53.994045 
L 581.281622 41.722783 
L 581.36339 34.228676 
L 581.547047 32.124075 
L 581.639107 38.21749 
L 581.774257 33.454898 
L 582.118089 45.287383 
L 582.220516 37.510745 
L 582.563573 40.110894 
L 582.633338 39.438739 
L 582.769553 39.915916 
L 582.977647 35.389235 
L 583.190403 44.739461 
L 583.490693 30.11363 
L 583.627721 28.253458 
L 583.84754 21.100417 
L 584.219727 28.160782 
L 584.351625 29.817662 
L 584.490338 24.82427 
L 584.696562 24.691969 
L 584.820512 25.539962 
L 585.383362 46.282905 
L 585.490701 44.603483 
L 585.659697 50.247412 
L 585.799045 51.147245 
L 586.037861 49.037332 
L 586.278875 41.793268 
L 586.346345 48.100206 
L 586.810307 24.885912 
L 586.903529 26.142496 
L 587.282316 13.873672 
L 587.599046 20.759691 
L 587.863486 19.606273 
L 587.932432 27.684987 
L 588.149223 22.281782 
L 588.277589 26.920467 
L 588.560755 43.986629 
L 588.591784 43.072507 
L 588.61892 52.486584 
L 588.761657 40.84795 
L 589.101208 43.537339 
L 589.203939 32.532316 
L 589.344803 44.532381 
L 589.374027 44.08341 
L 589.693597 34.305232 
L 589.855949 35.527827 
L 589.916171 32.348968 
L 590.372986 44.361845 
L 590.543018 38.612479 
L 590.611925 48.485377 
L 590.890424 33.102593 
L 591.162432 36.203046 
L 591.268318 35.570361 
L 591.30125 37.901321 
L 591.30125 37.901321 
" clip-path="url(#p94451f768b)" style="fill: none; stroke: #ff0000; stroke-opacity: 0.7; stroke-width: 1.5; stroke-linecap: square"/>
   </g>
   <g id="patch_3">
    <path d="M 33.30125 277.92 
L 33.30125 0.72 
" style="fill: none; stroke: #000000; stroke-width: 0.8; stroke-linejoin: miter; stroke-linecap: square"/>
   </g>
   <g id="patch_4">
    <path d="M 591.30125 277.92 
L 591.30125 0.72 
" style="fill: none; stroke: #000000; stroke-width: 0.8; stroke-linejoin: miter; stroke-linecap: square"/>
   </g>
   <g id="patch_5">
    <path d="M 33.30125 277.92 
L 591.30125 277.92 
" style="fill: none; stroke: #000000; stroke-width: 0.8; stroke-linejoin: miter; stroke-linecap: square"/>
   </g>
   <g id="patch_6">
    <path d="M 33.30125 0.72 
L 591.30125 0.72 
" style="fill: none; stroke: #000000; stroke-width: 0.8; stroke-linejoin: miter; stroke-linecap: square"/>
   </g>
   <g id="legend_1">
    <g id="patch_7">
     <path d="M 40.30125 272.92 
L 114.07 272.92 
Q 116.07 272.92 116.07 270.92 
L 116.07 242.56375 
Q 116.07 240.56375 114.07 240.56375 
L 40.30125 240.56375 
Q 38.30125 240.56375 38.30125 242.56375 
L 38.30125 270.92 
Q 38.30125 272.92 40.30125 272.92 
z
" style="fill: #ffffff; opacity: 0.8; stroke: #cccccc; stroke-linejoin: miter"/>
    </g>
    <g id="line2d_27">
     <path d="M 42.30125 248.662188 
L 52.30125 248.662188 
L 62.30125 248.662188 
" style="fill: none; stroke: #0000ff; stroke-opacity: 0.7; stroke-width: 1.5; stroke-linecap: square"/>
    </g>
    <g id="text_15">
     <!-- RNEA -->
     <g transform="translate(70.30125 252.162188) scale(0.1 -0.1)">
      <defs>
       <path id="DejaVuSans-52" d="M 2841 2188 
Q 3044 2119 3236 1894 
Q 3428 1669 3622 1275 
L 4263 0 
L 3584 0 
L 2988 1197 
Q 2756 1666 2539 1819 
Q 2322 1972 1947 1972 
L 1259 1972 
L 1259 0 
L 628 0 
L 628 4666 
L 2053 4666 
Q 2853 4666 3247 4331 
Q 3641 3997 3641 3322 
Q 3641 2881 3436 2590 
Q 3231 2300 2841 2188 
z
M 1259 4147 
L 1259 2491 
L 2053 2491 
Q 2509 2491 2742 2702 
Q 2975 2913 2975 3322 
Q 2975 3731 2742 3939 
Q 2509 4147 2053 4147 
L 1259 4147 
z
" transform="scale(0.015625)"/>
       <path id="DejaVuSans-45" d="M 628 4666 
L 3578 4666 
L 3578 4134 
L 1259 4134 
L 1259 2753 
L 3481 2753 
L 3481 2222 
L 1259 2222 
L 1259 531 
L 3634 531 
L 3634 0 
L 628 0 
L 628 4666 
z
" transform="scale(0.015625)"/>
       <path id="DejaVuSans-41" d="M 2188 4044 
L 1331 1722 
L 3047 1722 
L 2188 4044 
z
M 1831 4666 
L 2547 4666 
L 4325 0 
L 3669 0 
L 3244 1197 
L 1141 1197 
L 716 0 
L 50 0 
L 1831 4666 
z
" transform="scale(0.015625)"/>
      </defs>
      <use xlink:href="#DejaVuSans-52"/>
      <use xlink:href="#DejaVuSans-4e" x="69.482422"/>
      <use xlink:href="#DejaVuSans-45" x="144.287109"/>
      <use xlink:href="#DejaVuSans-41" x="207.470703"/>
     </g>
    </g>
    <g id="line2d_28">
     <path d="M 42.30125 263.340313 
L 52.30125 263.340313 
L 62.30125 263.340313 
" style="fill: none; stroke: #ff0000; stroke-opacity: 0.7; stroke-width: 1.5; stroke-linecap: square"/>
    </g>
    <g id="text_16">
     <!-- BURNEA -->
     <g transform="translate(70.30125 266.840313) scale(0.1 -0.1)">
      <defs>
       <path id="DejaVuSans-42" d="M 1259 2228 
L 1259 519 
L 2272 519 
Q 2781 519 3026 730 
Q 3272 941 3272 1375 
Q 3272 1813 3026 2020 
Q 2781 2228 2272 2228 
L 1259 2228 
z
M 1259 4147 
L 1259 2741 
L 2194 2741 
Q 2656 2741 2882 2914 
Q 3109 3088 3109 3444 
Q 3109 3797 2882 3972 
Q 2656 4147 2194 4147 
L 1259 4147 
z
M 628 4666 
L 2241 4666 
Q 2963 4666 3353 4366 
Q 3744 4066 3744 3513 
Q 3744 3084 3544 2831 
Q 3344 2578 2956 2516 
Q 3422 2416 3680 2098 
Q 3938 1781 3938 1306 
Q 3938 681 3513 340 
Q 3088 0 2303 0 
L 628 0 
L 628 4666 
z
" transform="scale(0.015625)"/>
       <path id="DejaVuSans-55" d="M 556 4666 
L 1191 4666 
L 1191 1831 
Q 1191 1081 1462 751 
Q 1734 422 2344 422 
Q 2950 422 3222 751 
Q 3494 1081 3494 1831 
L 3494 4666 
L 4128 4666 
L 4128 1753 
Q 4128 841 3676 375 
Q 3225 -91 2344 -91 
Q 1459 -91 1007 375 
Q 556 841 556 1753 
L 556 4666 
z
" transform="scale(0.015625)"/>
      </defs>
      <use xlink:href="#DejaVuSans-42"/>
      <use xlink:href="#DejaVuSans-55" x="68.603516"/>
      <use xlink:href="#DejaVuSans-52" x="141.796875"/>
      <use xlink:href="#DejaVuSans-4e" x="211.279297"/>
      <use xlink:href="#DejaVuSans-45" x="286.083984"/>
      <use xlink:href="#DejaVuSans-41" x="349.267578"/>
     </g>
    </g>
   </g>
  </g>
 </g>
 <defs>
  <clipPath id="p94451f768b">
   <rect x="33.30125" y="0.72" width="558" height="277.2"/>
  </clipPath>
 </defs>
</svg>
