<?xml version="1.0" encoding="utf-8" standalone="no"?>
<!DOCTYPE svg PUBLIC "-//W3C//DTD SVG 1.1//EN"
  "http://www.w3.org/Graphics/SVG/1.1/DTD/svg11.dtd">
<svg xmlns:xlink="http://www.w3.org/1999/xlink" width="600.400938pt" height="304.99625pt" viewBox="0 0 600.400938 304.99625" xmlns="http://www.w3.org/2000/svg" version="1.1">
 <metadata>
  <rdf:RDF xmlns:dc="http://purl.org/dc/elements/1.1/" xmlns:cc="http://creativecommons.org/ns#" xmlns:rdf="http://www.w3.org/1999/02/22-rdf-syntax-ns#">
   <cc:Work>
    <dc:type rdf:resource="http://purl.org/dc/dcmitype/StillImage"/>
    <dc:date>2023-09-05T22:09:11.070931</dc:date>
    <dc:format>image/svg+xml</dc:format>
    <dc:creator>
     <cc:Agent>
      <dc:title>Matplotlib v3.7.2, https://matplotlib.org/</dc:title>
     </cc:Agent>
    </dc:creator>
   </cc:Work>
  </rdf:RDF>
 </metadata>
 <defs>
  <style type="text/css">*{stroke-linejoin: round; stroke-linecap: butt}</style>
 </defs>
 <g id="figure_1">
  <g id="patch_1">
   <path d="M 0 304.99625 
L 600.400938 304.99625 
L 600.400938 0 
L 0 0 
L 0 304.99625 
z
" style="fill: none"/>
  </g>
  <g id="axes_1">
   <g id="patch_2">
    <path d="M 41.680938 277.92 
L 599.680938 277.92 
L 599.680938 0.72 
L 41.680938 0.72 
L 41.680938 277.92 
z
" style="fill: none"/>
   </g>
   <g id="matplotlib.axis_1">
    <g id="xtick_1">
     <g id="line2d_1">
      <path d="M 41.680938 277.92 
L 41.680938 0.72 
" clip-path="url(#p07d4330862)" style="fill: none; stroke-dasharray: 0.8,1.32; stroke-dashoffset: 0; stroke: #000000; stroke-opacity: 0.5; stroke-width: 0.8"/>
     </g>
     <g id="line2d_2">
      <defs>
       <path id="m803ef914f6" d="M 0 0 
L 0 3.5 
" style="stroke: #000000; stroke-width: 0.8"/>
      </defs>
      <g>
       <use xlink:href="#m803ef914f6" x="41.680938" y="277.92" style="stroke: #000000; stroke-width: 0.8"/>
      </g>
     </g>
     <g id="text_1">
      <!-- 0 -->
      <g transform="translate(38.499688 292.518438) scale(0.1 -0.1)">
       <defs>
        <path id="DejaVuSans-30" d="M 2034 4250 
Q 1547 4250 1301 3770 
Q 1056 3291 1056 2328 
Q 1056 1369 1301 889 
Q 1547 409 2034 409 
Q 2525 409 2770 889 
Q 3016 1369 3016 2328 
Q 3016 3291 2770 3770 
Q 2525 4250 2034 4250 
z
M 2034 4750 
Q 2819 4750 3233 4129 
Q 3647 3509 3647 2328 
Q 3647 1150 3233 529 
Q 2819 -91 2034 -91 
Q 1250 -91 836 529 
Q 422 1150 422 2328 
Q 422 3509 836 4129 
Q 1250 4750 2034 4750 
z
" transform="scale(0.015625)"/>
       </defs>
       <use xlink:href="#DejaVuSans-30"/>
      </g>
     </g>
    </g>
    <g id="xtick_2">
     <g id="line2d_3">
      <path d="M 126.910739 277.92 
L 126.910739 0.72 
" clip-path="url(#p07d4330862)" style="fill: none; stroke-dasharray: 0.8,1.32; stroke-dashoffset: 0; stroke: #000000; stroke-opacity: 0.5; stroke-width: 0.8"/>
     </g>
     <g id="line2d_4">
      <g>
       <use xlink:href="#m803ef914f6" x="126.910739" y="277.92" style="stroke: #000000; stroke-width: 0.8"/>
      </g>
     </g>
     <g id="text_2">
      <!-- 5 -->
      <g transform="translate(123.729489 292.518438) scale(0.1 -0.1)">
       <defs>
        <path id="DejaVuSans-35" d="M 691 4666 
L 3169 4666 
L 3169 4134 
L 1269 4134 
L 1269 2991 
Q 1406 3038 1543 3061 
Q 1681 3084 1819 3084 
Q 2600 3084 3056 2656 
Q 3513 2228 3513 1497 
Q 3513 744 3044 326 
Q 2575 -91 1722 -91 
Q 1428 -91 1123 -41 
Q 819 9 494 109 
L 494 744 
Q 775 591 1075 516 
Q 1375 441 1709 441 
Q 2250 441 2565 725 
Q 2881 1009 2881 1497 
Q 2881 1984 2565 2268 
Q 2250 2553 1709 2553 
Q 1456 2553 1204 2497 
Q 953 2441 691 2322 
L 691 4666 
z
" transform="scale(0.015625)"/>
       </defs>
       <use xlink:href="#DejaVuSans-35"/>
      </g>
     </g>
    </g>
    <g id="xtick_3">
     <g id="line2d_5">
      <path d="M 212.14054 277.92 
L 212.14054 0.72 
" clip-path="url(#p07d4330862)" style="fill: none; stroke-dasharray: 0.8,1.32; stroke-dashoffset: 0; stroke: #000000; stroke-opacity: 0.5; stroke-width: 0.8"/>
     </g>
     <g id="line2d_6">
      <g>
       <use xlink:href="#m803ef914f6" x="212.14054" y="277.92" style="stroke: #000000; stroke-width: 0.8"/>
      </g>
     </g>
     <g id="text_3">
      <!-- 10 -->
      <g transform="translate(205.77804 292.518438) scale(0.1 -0.1)">
       <defs>
        <path id="DejaVuSans-31" d="M 794 531 
L 1825 531 
L 1825 4091 
L 703 3866 
L 703 4441 
L 1819 4666 
L 2450 4666 
L 2450 531 
L 3481 531 
L 3481 0 
L 794 0 
L 794 531 
z
" transform="scale(0.015625)"/>
       </defs>
       <use xlink:href="#DejaVuSans-31"/>
       <use xlink:href="#DejaVuSans-30" x="63.623047"/>
      </g>
     </g>
    </g>
    <g id="xtick_4">
     <g id="line2d_7">
      <path d="M 297.370341 277.92 
L 297.370341 0.72 
" clip-path="url(#p07d4330862)" style="fill: none; stroke-dasharray: 0.8,1.32; stroke-dashoffset: 0; stroke: #000000; stroke-opacity: 0.5; stroke-width: 0.8"/>
     </g>
     <g id="line2d_8">
      <g>
       <use xlink:href="#m803ef914f6" x="297.370341" y="277.92" style="stroke: #000000; stroke-width: 0.8"/>
      </g>
     </g>
     <g id="text_4">
      <!-- 15 -->
      <g transform="translate(291.007841 292.518438) scale(0.1 -0.1)">
       <use xlink:href="#DejaVuSans-31"/>
       <use xlink:href="#DejaVuSans-35" x="63.623047"/>
      </g>
     </g>
    </g>
    <g id="xtick_5">
     <g id="line2d_9">
      <path d="M 382.600142 277.92 
L 382.600142 0.72 
" clip-path="url(#p07d4330862)" style="fill: none; stroke-dasharray: 0.8,1.32; stroke-dashoffset: 0; stroke: #000000; stroke-opacity: 0.5; stroke-width: 0.8"/>
     </g>
     <g id="line2d_10">
      <g>
       <use xlink:href="#m803ef914f6" x="382.600142" y="277.92" style="stroke: #000000; stroke-width: 0.8"/>
      </g>
     </g>
     <g id="text_5">
      <!-- 20 -->
      <g transform="translate(376.237642 292.518438) scale(0.1 -0.1)">
       <defs>
        <path id="DejaVuSans-32" d="M 1228 531 
L 3431 531 
L 3431 0 
L 469 0 
L 469 531 
Q 828 903 1448 1529 
Q 2069 2156 2228 2338 
Q 2531 2678 2651 2914 
Q 2772 3150 2772 3378 
Q 2772 3750 2511 3984 
Q 2250 4219 1831 4219 
Q 1534 4219 1204 4116 
Q 875 4013 500 3803 
L 500 4441 
Q 881 4594 1212 4672 
Q 1544 4750 1819 4750 
Q 2544 4750 2975 4387 
Q 3406 4025 3406 3419 
Q 3406 3131 3298 2873 
Q 3191 2616 2906 2266 
Q 2828 2175 2409 1742 
Q 1991 1309 1228 531 
z
" transform="scale(0.015625)"/>
       </defs>
       <use xlink:href="#DejaVuSans-32"/>
       <use xlink:href="#DejaVuSans-30" x="63.623047"/>
      </g>
     </g>
    </g>
    <g id="xtick_6">
     <g id="line2d_11">
      <path d="M 467.829943 277.92 
L 467.829943 0.72 
" clip-path="url(#p07d4330862)" style="fill: none; stroke-dasharray: 0.8,1.32; stroke-dashoffset: 0; stroke: #000000; stroke-opacity: 0.5; stroke-width: 0.8"/>
     </g>
     <g id="line2d_12">
      <g>
       <use xlink:href="#m803ef914f6" x="467.829943" y="277.92" style="stroke: #000000; stroke-width: 0.8"/>
      </g>
     </g>
     <g id="text_6">
      <!-- 25 -->
      <g transform="translate(461.467443 292.518438) scale(0.1 -0.1)">
       <use xlink:href="#DejaVuSans-32"/>
       <use xlink:href="#DejaVuSans-35" x="63.623047"/>
      </g>
     </g>
    </g>
    <g id="xtick_7">
     <g id="line2d_13">
      <path d="M 553.059744 277.92 
L 553.059744 0.72 
" clip-path="url(#p07d4330862)" style="fill: none; stroke-dasharray: 0.8,1.32; stroke-dashoffset: 0; stroke: #000000; stroke-opacity: 0.5; stroke-width: 0.8"/>
     </g>
     <g id="line2d_14">
      <g>
       <use xlink:href="#m803ef914f6" x="553.059744" y="277.92" style="stroke: #000000; stroke-width: 0.8"/>
      </g>
     </g>
     <g id="text_7">
      <!-- 30 -->
      <g transform="translate(546.697244 292.518438) scale(0.1 -0.1)">
       <defs>
        <path id="DejaVuSans-33" d="M 2597 2516 
Q 3050 2419 3304 2112 
Q 3559 1806 3559 1356 
Q 3559 666 3084 287 
Q 2609 -91 1734 -91 
Q 1441 -91 1130 -33 
Q 819 25 488 141 
L 488 750 
Q 750 597 1062 519 
Q 1375 441 1716 441 
Q 2309 441 2620 675 
Q 2931 909 2931 1356 
Q 2931 1769 2642 2001 
Q 2353 2234 1838 2234 
L 1294 2234 
L 1294 2753 
L 1863 2753 
Q 2328 2753 2575 2939 
Q 2822 3125 2822 3475 
Q 2822 3834 2567 4026 
Q 2313 4219 1838 4219 
Q 1578 4219 1281 4162 
Q 984 4106 628 3988 
L 628 4550 
Q 988 4650 1302 4700 
Q 1616 4750 1894 4750 
Q 2613 4750 3031 4423 
Q 3450 4097 3450 3541 
Q 3450 3153 3228 2886 
Q 3006 2619 2597 2516 
z
" transform="scale(0.015625)"/>
       </defs>
       <use xlink:href="#DejaVuSans-33"/>
       <use xlink:href="#DejaVuSans-30" x="63.623047"/>
      </g>
     </g>
    </g>
    <g id="text_8">
     <!-- Zeit [s] -->
     <g transform="translate(302.734844 302.196563) scale(0.1 -0.1)">
      <defs>
       <path id="DejaVuSans-5a" d="M 359 4666 
L 4025 4666 
L 4025 4184 
L 1075 531 
L 4097 531 
L 4097 0 
L 288 0 
L 288 481 
L 3238 4134 
L 359 4134 
L 359 4666 
z
" transform="scale(0.015625)"/>
       <path id="DejaVuSans-65" d="M 3597 1894 
L 3597 1613 
L 953 1613 
Q 991 1019 1311 708 
Q 1631 397 2203 397 
Q 2534 397 2845 478 
Q 3156 559 3463 722 
L 3463 178 
Q 3153 47 2828 -22 
Q 2503 -91 2169 -91 
Q 1331 -91 842 396 
Q 353 884 353 1716 
Q 353 2575 817 3079 
Q 1281 3584 2069 3584 
Q 2775 3584 3186 3129 
Q 3597 2675 3597 1894 
z
M 3022 2063 
Q 3016 2534 2758 2815 
Q 2500 3097 2075 3097 
Q 1594 3097 1305 2825 
Q 1016 2553 972 2059 
L 3022 2063 
z
" transform="scale(0.015625)"/>
       <path id="DejaVuSans-69" d="M 603 3500 
L 1178 3500 
L 1178 0 
L 603 0 
L 603 3500 
z
M 603 4863 
L 1178 4863 
L 1178 4134 
L 603 4134 
L 603 4863 
z
" transform="scale(0.015625)"/>
       <path id="DejaVuSans-74" d="M 1172 4494 
L 1172 3500 
L 2356 3500 
L 2356 3053 
L 1172 3053 
L 1172 1153 
Q 1172 725 1289 603 
Q 1406 481 1766 481 
L 2356 481 
L 2356 0 
L 1766 0 
Q 1100 0 847 248 
Q 594 497 594 1153 
L 594 3053 
L 172 3053 
L 172 3500 
L 594 3500 
L 594 4494 
L 1172 4494 
z
" transform="scale(0.015625)"/>
       <path id="DejaVuSans-20" transform="scale(0.015625)"/>
       <path id="DejaVuSans-5b" d="M 550 4863 
L 1875 4863 
L 1875 4416 
L 1125 4416 
L 1125 -397 
L 1875 -397 
L 1875 -844 
L 550 -844 
L 550 4863 
z
" transform="scale(0.015625)"/>
       <path id="DejaVuSans-73" d="M 2834 3397 
L 2834 2853 
Q 2591 2978 2328 3040 
Q 2066 3103 1784 3103 
Q 1356 3103 1142 2972 
Q 928 2841 928 2578 
Q 928 2378 1081 2264 
Q 1234 2150 1697 2047 
L 1894 2003 
Q 2506 1872 2764 1633 
Q 3022 1394 3022 966 
Q 3022 478 2636 193 
Q 2250 -91 1575 -91 
Q 1294 -91 989 -36 
Q 684 19 347 128 
L 347 722 
Q 666 556 975 473 
Q 1284 391 1588 391 
Q 1994 391 2212 530 
Q 2431 669 2431 922 
Q 2431 1156 2273 1281 
Q 2116 1406 1581 1522 
L 1381 1569 
Q 847 1681 609 1914 
Q 372 2147 372 2553 
Q 372 3047 722 3315 
Q 1072 3584 1716 3584 
Q 2034 3584 2315 3537 
Q 2597 3491 2834 3397 
z
" transform="scale(0.015625)"/>
       <path id="DejaVuSans-5d" d="M 1947 4863 
L 1947 -844 
L 622 -844 
L 622 -397 
L 1369 -397 
L 1369 4416 
L 622 4416 
L 622 4863 
L 1947 4863 
z
" transform="scale(0.015625)"/>
      </defs>
      <use xlink:href="#DejaVuSans-5a"/>
      <use xlink:href="#DejaVuSans-65" x="68.505859"/>
      <use xlink:href="#DejaVuSans-69" x="130.029297"/>
      <use xlink:href="#DejaVuSans-74" x="157.8125"/>
      <use xlink:href="#DejaVuSans-20" x="197.021484"/>
      <use xlink:href="#DejaVuSans-5b" x="228.808594"/>
      <use xlink:href="#DejaVuSans-73" x="267.822266"/>
      <use xlink:href="#DejaVuSans-5d" x="319.921875"/>
     </g>
    </g>
   </g>
   <g id="matplotlib.axis_2">
    <g id="ytick_1">
     <g id="line2d_15">
      <path d="M 41.680938 246.493744 
L 599.680938 246.493744 
" clip-path="url(#p07d4330862)" style="fill: none; stroke-dasharray: 0.8,1.32; stroke-dashoffset: 0; stroke: #000000; stroke-opacity: 0.5; stroke-width: 0.8"/>
     </g>
     <g id="line2d_16">
      <defs>
       <path id="m89fbde2479" d="M 0 0 
L -3.5 0 
" style="stroke: #000000; stroke-width: 0.8"/>
      </defs>
      <g>
       <use xlink:href="#m89fbde2479" x="41.680938" y="246.493744" style="stroke: #000000; stroke-width: 0.8"/>
      </g>
     </g>
     <g id="text_9">
      <!-- −4.5 -->
      <g transform="translate(10.398125 250.292962) scale(0.1 -0.1)">
       <defs>
        <path id="DejaVuSans-2212" d="M 678 2272 
L 4684 2272 
L 4684 1741 
L 678 1741 
L 678 2272 
z
" transform="scale(0.015625)"/>
        <path id="DejaVuSans-34" d="M 2419 4116 
L 825 1625 
L 2419 1625 
L 2419 4116 
z
M 2253 4666 
L 3047 4666 
L 3047 1625 
L 3713 1625 
L 3713 1100 
L 3047 1100 
L 3047 0 
L 2419 0 
L 2419 1100 
L 313 1100 
L 313 1709 
L 2253 4666 
z
" transform="scale(0.015625)"/>
        <path id="DejaVuSans-2e" d="M 684 794 
L 1344 794 
L 1344 0 
L 684 0 
L 684 794 
z
" transform="scale(0.015625)"/>
       </defs>
       <use xlink:href="#DejaVuSans-2212"/>
       <use xlink:href="#DejaVuSans-34" x="83.789062"/>
       <use xlink:href="#DejaVuSans-2e" x="147.412109"/>
       <use xlink:href="#DejaVuSans-35" x="179.199219"/>
      </g>
     </g>
    </g>
    <g id="ytick_2">
     <g id="line2d_17">
      <path d="M 41.680938 204.021019 
L 599.680938 204.021019 
" clip-path="url(#p07d4330862)" style="fill: none; stroke-dasharray: 0.8,1.32; stroke-dashoffset: 0; stroke: #000000; stroke-opacity: 0.5; stroke-width: 0.8"/>
     </g>
     <g id="line2d_18">
      <g>
       <use xlink:href="#m89fbde2479" x="41.680938" y="204.021019" style="stroke: #000000; stroke-width: 0.8"/>
      </g>
     </g>
     <g id="text_10">
      <!-- −4.0 -->
      <g transform="translate(10.398125 207.820238) scale(0.1 -0.1)">
       <use xlink:href="#DejaVuSans-2212"/>
       <use xlink:href="#DejaVuSans-34" x="83.789062"/>
       <use xlink:href="#DejaVuSans-2e" x="147.412109"/>
       <use xlink:href="#DejaVuSans-30" x="179.199219"/>
      </g>
     </g>
    </g>
    <g id="ytick_3">
     <g id="line2d_19">
      <path d="M 41.680938 161.548295 
L 599.680938 161.548295 
" clip-path="url(#p07d4330862)" style="fill: none; stroke-dasharray: 0.8,1.32; stroke-dashoffset: 0; stroke: #000000; stroke-opacity: 0.5; stroke-width: 0.8"/>
     </g>
     <g id="line2d_20">
      <g>
       <use xlink:href="#m89fbde2479" x="41.680938" y="161.548295" style="stroke: #000000; stroke-width: 0.8"/>
      </g>
     </g>
     <g id="text_11">
      <!-- −3.5 -->
      <g transform="translate(10.398125 165.347513) scale(0.1 -0.1)">
       <use xlink:href="#DejaVuSans-2212"/>
       <use xlink:href="#DejaVuSans-33" x="83.789062"/>
       <use xlink:href="#DejaVuSans-2e" x="147.412109"/>
       <use xlink:href="#DejaVuSans-35" x="179.199219"/>
      </g>
     </g>
    </g>
    <g id="ytick_4">
     <g id="line2d_21">
      <path d="M 41.680938 119.07557 
L 599.680938 119.07557 
" clip-path="url(#p07d4330862)" style="fill: none; stroke-dasharray: 0.8,1.32; stroke-dashoffset: 0; stroke: #000000; stroke-opacity: 0.5; stroke-width: 0.8"/>
     </g>
     <g id="line2d_22">
      <g>
       <use xlink:href="#m89fbde2479" x="41.680938" y="119.07557" style="stroke: #000000; stroke-width: 0.8"/>
      </g>
     </g>
     <g id="text_12">
      <!-- −3.0 -->
      <g transform="translate(10.398125 122.874789) scale(0.1 -0.1)">
       <use xlink:href="#DejaVuSans-2212"/>
       <use xlink:href="#DejaVuSans-33" x="83.789062"/>
       <use xlink:href="#DejaVuSans-2e" x="147.412109"/>
       <use xlink:href="#DejaVuSans-30" x="179.199219"/>
      </g>
     </g>
    </g>
    <g id="ytick_5">
     <g id="line2d_23">
      <path d="M 41.680938 76.602846 
L 599.680938 76.602846 
" clip-path="url(#p07d4330862)" style="fill: none; stroke-dasharray: 0.8,1.32; stroke-dashoffset: 0; stroke: #000000; stroke-opacity: 0.5; stroke-width: 0.8"/>
     </g>
     <g id="line2d_24">
      <g>
       <use xlink:href="#m89fbde2479" x="41.680938" y="76.602846" style="stroke: #000000; stroke-width: 0.8"/>
      </g>
     </g>
     <g id="text_13">
      <!-- −2.5 -->
      <g transform="translate(10.398125 80.402065) scale(0.1 -0.1)">
       <use xlink:href="#DejaVuSans-2212"/>
       <use xlink:href="#DejaVuSans-32" x="83.789062"/>
       <use xlink:href="#DejaVuSans-2e" x="147.412109"/>
       <use xlink:href="#DejaVuSans-35" x="179.199219"/>
      </g>
     </g>
    </g>
    <g id="ytick_6">
     <g id="line2d_25">
      <path d="M 41.680938 34.130121 
L 599.680938 34.130121 
" clip-path="url(#p07d4330862)" style="fill: none; stroke-dasharray: 0.8,1.32; stroke-dashoffset: 0; stroke: #000000; stroke-opacity: 0.5; stroke-width: 0.8"/>
     </g>
     <g id="line2d_26">
      <g>
       <use xlink:href="#m89fbde2479" x="41.680938" y="34.130121" style="stroke: #000000; stroke-width: 0.8"/>
      </g>
     </g>
     <g id="text_14">
      <!-- −2.0 -->
      <g transform="translate(10.398125 37.92934) scale(0.1 -0.1)">
       <use xlink:href="#DejaVuSans-2212"/>
       <use xlink:href="#DejaVuSans-32" x="83.789062"/>
       <use xlink:href="#DejaVuSans-2e" x="147.412109"/>
       <use xlink:href="#DejaVuSans-30" x="179.199219"/>
      </g>
     </g>
    </g>
    <g id="text_15">
     <!-- Drehmoment [Nm] -->
     <g transform="translate(8.318438 186.465313) rotate(-90) scale(0.1 -0.1)">
      <defs>
       <path id="DejaVuSans-44" d="M 1259 4147 
L 1259 519 
L 2022 519 
Q 2988 519 3436 956 
Q 3884 1394 3884 2338 
Q 3884 3275 3436 3711 
Q 2988 4147 2022 4147 
L 1259 4147 
z
M 628 4666 
L 1925 4666 
Q 3281 4666 3915 4102 
Q 4550 3538 4550 2338 
Q 4550 1131 3912 565 
Q 3275 0 1925 0 
L 628 0 
L 628 4666 
z
" transform="scale(0.015625)"/>
       <path id="DejaVuSans-72" d="M 2631 2963 
Q 2534 3019 2420 3045 
Q 2306 3072 2169 3072 
Q 1681 3072 1420 2755 
Q 1159 2438 1159 1844 
L 1159 0 
L 581 0 
L 581 3500 
L 1159 3500 
L 1159 2956 
Q 1341 3275 1631 3429 
Q 1922 3584 2338 3584 
Q 2397 3584 2469 3576 
Q 2541 3569 2628 3553 
L 2631 2963 
z
" transform="scale(0.015625)"/>
       <path id="DejaVuSans-68" d="M 3513 2113 
L 3513 0 
L 2938 0 
L 2938 2094 
Q 2938 2591 2744 2837 
Q 2550 3084 2163 3084 
Q 1697 3084 1428 2787 
Q 1159 2491 1159 1978 
L 1159 0 
L 581 0 
L 581 4863 
L 1159 4863 
L 1159 2956 
Q 1366 3272 1645 3428 
Q 1925 3584 2291 3584 
Q 2894 3584 3203 3211 
Q 3513 2838 3513 2113 
z
" transform="scale(0.015625)"/>
       <path id="DejaVuSans-6d" d="M 3328 2828 
Q 3544 3216 3844 3400 
Q 4144 3584 4550 3584 
Q 5097 3584 5394 3201 
Q 5691 2819 5691 2113 
L 5691 0 
L 5113 0 
L 5113 2094 
Q 5113 2597 4934 2840 
Q 4756 3084 4391 3084 
Q 3944 3084 3684 2787 
Q 3425 2491 3425 1978 
L 3425 0 
L 2847 0 
L 2847 2094 
Q 2847 2600 2669 2842 
Q 2491 3084 2119 3084 
Q 1678 3084 1418 2786 
Q 1159 2488 1159 1978 
L 1159 0 
L 581 0 
L 581 3500 
L 1159 3500 
L 1159 2956 
Q 1356 3278 1631 3431 
Q 1906 3584 2284 3584 
Q 2666 3584 2933 3390 
Q 3200 3197 3328 2828 
z
" transform="scale(0.015625)"/>
       <path id="DejaVuSans-6f" d="M 1959 3097 
Q 1497 3097 1228 2736 
Q 959 2375 959 1747 
Q 959 1119 1226 758 
Q 1494 397 1959 397 
Q 2419 397 2687 759 
Q 2956 1122 2956 1747 
Q 2956 2369 2687 2733 
Q 2419 3097 1959 3097 
z
M 1959 3584 
Q 2709 3584 3137 3096 
Q 3566 2609 3566 1747 
Q 3566 888 3137 398 
Q 2709 -91 1959 -91 
Q 1206 -91 779 398 
Q 353 888 353 1747 
Q 353 2609 779 3096 
Q 1206 3584 1959 3584 
z
" transform="scale(0.015625)"/>
       <path id="DejaVuSans-6e" d="M 3513 2113 
L 3513 0 
L 2938 0 
L 2938 2094 
Q 2938 2591 2744 2837 
Q 2550 3084 2163 3084 
Q 1697 3084 1428 2787 
Q 1159 2491 1159 1978 
L 1159 0 
L 581 0 
L 581 3500 
L 1159 3500 
L 1159 2956 
Q 1366 3272 1645 3428 
Q 1925 3584 2291 3584 
Q 2894 3584 3203 3211 
Q 3513 2838 3513 2113 
z
" transform="scale(0.015625)"/>
       <path id="DejaVuSans-4e" d="M 628 4666 
L 1478 4666 
L 3547 763 
L 3547 4666 
L 4159 4666 
L 4159 0 
L 3309 0 
L 1241 3903 
L 1241 0 
L 628 0 
L 628 4666 
z
" transform="scale(0.015625)"/>
      </defs>
      <use xlink:href="#DejaVuSans-44"/>
      <use xlink:href="#DejaVuSans-72" x="77.001953"/>
      <use xlink:href="#DejaVuSans-65" x="115.865234"/>
      <use xlink:href="#DejaVuSans-68" x="177.388672"/>
      <use xlink:href="#DejaVuSans-6d" x="240.767578"/>
      <use xlink:href="#DejaVuSans-6f" x="338.179688"/>
      <use xlink:href="#DejaVuSans-6d" x="399.361328"/>
      <use xlink:href="#DejaVuSans-65" x="496.773438"/>
      <use xlink:href="#DejaVuSans-6e" x="558.296875"/>
      <use xlink:href="#DejaVuSans-74" x="621.675781"/>
      <use xlink:href="#DejaVuSans-20" x="660.884766"/>
      <use xlink:href="#DejaVuSans-5b" x="692.671875"/>
      <use xlink:href="#DejaVuSans-4e" x="731.685547"/>
      <use xlink:href="#DejaVuSans-6d" x="806.490234"/>
      <use xlink:href="#DejaVuSans-5d" x="903.902344"/>
     </g>
    </g>
   </g>
   <g id="line2d_27">
    <path d="M 41.680938 0.720005 
L 599.680938 0.720004 
L 599.680938 0.720004 
" clip-path="url(#p07d4330862)" style="fill: none; stroke: #0000ff; stroke-opacity: 0.7; stroke-width: 1.5; stroke-linecap: square"/>
   </g>
   <g id="line2d_28">
    <path d="M 41.680938 272.619663 
L 41.786411 272.021428 
L 42.095637 272.775804 
L 42.277596 271.998274 
L 42.307834 269.594095 
L 42.409526 270.91203 
L 42.551222 269.861668 
L 42.784463 271.258846 
L 43.244793 269.487993 
L 43.403087 267.839574 
L 43.644339 268.514674 
L 43.919098 270.625861 
L 44.267285 271.979374 
L 44.365404 270.850347 
L 44.811237 272.301527 
L 45.053451 269.580962 
L 45.360277 270.011024 
L 45.670672 268.568001 
L 45.810692 270.625131 
L 45.945196 269.735966 
L 46.083151 268.034864 
L 46.323365 267.702736 
L 46.495343 271.965262 
L 46.634336 271.723321 
L 46.77147 272.07281 
L 46.9091 272.801129 
L 47.28603 269.305258 
L 47.35335 270.952979 
L 47.490657 270.635592 
L 47.612474 270.933469 
L 47.628555 272.148781 
L 47.766305 271.82462 
L 47.904564 272.319886 
L 48.180962 269.371264 
L 48.327832 269.35723 
L 48.740342 270.984342 
L 49.04333 275.109109 
L 49.318252 273.699214 
L 49.602177 271.116826 
L 49.764062 270.233392 
L 49.939673 269.960055 
L 50.177618 271.563622 
L 50.451077 268.720516 
L 50.659319 268.118769 
L 50.738416 266.673096 
L 51.177907 269.537013 
L 51.323233 269.015147 
L 51.453081 270.180997 
L 51.591337 269.857954 
L 51.729619 269.233239 
L 52.006253 267.543493 
L 52.313957 266.21754 
L 52.451386 266.566874 
L 52.726608 268.848139 
L 52.865102 268.815421 
L 53.022542 268.493385 
L 53.145482 268.684981 
L 53.310074 267.983688 
L 53.586819 269.398812 
L 53.749399 270.806174 
L 53.862713 270.788521 
L 54.137424 271.197105 
L 54.412345 267.195205 
L 54.583001 266.693442 
L 54.859716 268.334311 
L 55.13185 273.304699 
L 55.271776 273.836408 
L 55.717872 271.787343 
L 55.998418 274.370505 
L 56.134953 274.229361 
L 56.271747 274.60798 
L 56.546596 273.699494 
L 56.890672 270.466542 
L 57.061856 270.486904 
L 57.165246 270.035859 
L 57.752509 271.656448 
L 57.820161 270.610998 
L 57.988108 270.405636 
L 58.263917 268.565558 
L 58.542689 270.730073 
L 58.717735 273.576589 
L 58.824227 273.052866 
L 58.967256 271.727065 
L 59.267408 271.130862 
L 59.402422 270.729996 
L 59.81575 272.037598 
L 60.133 269.558017 
L 60.273362 268.578206 
L 60.4241 268.452923 
L 60.446196 267.559487 
L 60.55255 268.342031 
L 60.825555 266.988085 
L 61.278794 269.54996 
L 61.535871 269.089197 
L 61.846065 270.563483 
L 62.014935 269.985927 
L 62.047079 269.404112 
L 62.116677 269.78504 
L 62.259642 271.375007 
L 62.309765 270.450319 
L 62.330589 271.955216 
L 62.455268 270.947777 
L 62.456251 272.143345 
L 62.607928 271.336808 
L 62.711126 272.028883 
L 62.847475 271.794392 
L 63.157835 269.009855 
L 63.571357 271.402702 
L 63.844896 270.063217 
L 63.948209 269.772801 
L 64.123448 269.636549 
L 64.258158 270.085531 
L 64.361632 271.167523 
L 64.600187 271.519678 
L 64.681558 272.289369 
L 64.8757 272.540573 
L 65.222617 271.476207 
L 65.447316 272.214179 
L 65.549942 271.110446 
L 65.667237 271.569546 
L 65.87268 271.046941 
L 66.355448 268.003371 
L 66.551424 268.583105 
L 66.730923 270.149647 
L 66.937126 268.266094 
L 67.144945 267.77497 
L 67.352091 268.308096 
L 67.434754 269.2209 
L 67.624112 269.841564 
L 67.898097 271.327298 
L 68.072101 268.408745 
L 68.346382 270.392943 
L 68.517276 271.380056 
L 68.655725 270.407456 
L 68.86956 268.028458 
L 69.067361 269.147832 
L 69.204536 267.688772 
L 69.376574 267.351758 
L 69.788751 267.957247 
L 69.925274 267.21075 
L 70.237884 268.516905 
L 70.484706 267.986404 
L 70.577825 268.070489 
L 70.762635 269.902686 
L 71.059449 271.19799 
L 71.195625 270.872637 
L 71.393068 271.49963 
L 71.472258 272.184118 
L 71.642427 272.139525 
L 71.821825 271.591958 
L 72.056806 270.145584 
L 72.217125 270.308229 
L 72.571543 269.085329 
L 72.67424 269.69038 
L 72.778352 268.511752 
L 72.916809 268.704462 
L 73.051996 269.517857 
L 73.259388 269.959494 
L 73.638566 272.896219 
L 73.775466 273.230124 
L 73.912695 274.124106 
L 74.118517 272.941922 
L 74.223533 273.355291 
L 74.4278 274.985931 
L 74.502088 274.836813 
L 74.737267 274.591327 
L 74.840193 273.926936 
L 74.943995 274.332455 
L 75.141132 273.857509 
L 75.184301 273.424277 
L 75.322908 273.86847 
L 75.49533 275.029491 
L 75.631873 274.79822 
L 75.84317 272.928884 
L 76.052806 274.191579 
L 76.224085 274.00187 
L 76.345604 273.633338 
L 76.731538 273.958373 
L 76.921729 272.305493 
L 76.921875 271.725836 
L 77.215415 272.36958 
L 77.460808 271.688981 
L 77.696045 273.36643 
L 77.856144 271.362342 
L 78.027076 270.74958 
L 78.191133 270.445277 
L 78.348933 271.733697 
L 78.749117 271.444694 
L 79.028371 270.582071 
L 79.37096 272.071729 
L 79.439961 273.339298 
L 79.715858 272.48861 
L 79.892301 272.361961 
L 79.994449 272.704305 
L 80.024574 273.644062 
L 80.161154 273.586529 
L 80.299833 275.210476 
L 80.436431 274.836316 
L 80.642257 274.727135 
L 81.200975 269.590305 
L 81.233797 269.907108 
L 81.443267 270.583203 
L 81.713877 266.706396 
L 81.992215 267.16733 
L 82.300511 268.972551 
L 82.439574 270.843166 
L 82.688777 271.164558 
L 82.750834 269.991084 
L 82.849426 271.254205 
L 83.021009 271.867641 
L 83.296537 273.489426 
L 83.469637 273.532221 
L 83.607638 273.303004 
L 83.742822 272.570658 
L 83.85424 272.5901 
L 84.258185 273.507656 
L 84.43186 272.491262 
L 84.464732 271.237251 
L 85.191423 271.992189 
L 85.941773 273.194161 
L 86.743207 272.677585 
L 87.492317 272.549596 
L 87.522672 273.13145 
L 87.659216 272.797171 
L 87.69299 271.558188 
L 87.968824 274.106234 
L 88.108198 273.78998 
L 88.277338 273.097597 
L 88.622662 273.369813 
L 88.659764 273.255026 
L 88.965699 273.665803 
L 89.07113 274.007239 
L 89.103412 274.633714 
L 89.457427 272.779197 
L 89.588564 273.07002 
L 89.721668 274.559144 
L 89.927799 274.606545 
L 90.202437 275.057629 
L 90.239224 273.700557 
L 90.527049 272.252301 
L 90.788668 272.752573 
L 90.961612 272.163302 
L 91.236375 268.752584 
L 91.405405 269.462759 
L 91.57684 268.716339 
L 91.956293 270.951397 
L 92.093006 270.752599 
L 92.438067 271.319707 
L 92.645436 273.201933 
L 92.883835 273.557005 
L 92.986603 273.211671 
L 93.536892 276.005772 
L 93.805075 274.563956 
L 94.011506 274.878477 
L 94.149079 274.797208 
L 94.221837 273.483362 
L 94.397556 273.095969 
L 94.630621 271.455954 
L 94.801572 271.495466 
L 94.938591 271.048956 
L 95.076543 271.157053 
L 95.52417 268.469167 
L 95.62659 269.289138 
L 95.798004 269.233184 
L 95.934485 268.726665 
L 96.072493 269.027897 
L 96.247924 269.109188 
L 96.518141 270.976174 
L 96.62155 272.29079 
L 96.794649 272.11683 
L 97.033665 271.012839 
L 97.069876 271.045819 
L 97.206846 271.185417 
L 97.344728 272.696814 
L 97.517761 272.670018 
L 97.623039 271.146659 
L 97.791375 270.911595 
L 97.897777 272.865674 
L 98.204753 273.550718 
L 98.340487 274.41593 
L 98.478975 274.15936 
L 98.751803 272.120429 
L 98.927171 270.654114 
L 99.220013 270.916817 
L 99.220587 270.434865 
L 99.235292 270.865618 
L 99.515953 270.612095 
L 99.683296 271.173489 
L 99.841018 270.96865 
L 99.904134 270.293428 
L 100.040015 271.189308 
L 100.177908 270.65094 
L 100.380787 271.002946 
L 100.621398 269.346173 
L 100.861946 269.37169 
L 101.032432 267.830417 
L 101.174086 267.880099 
L 101.342725 268.60618 
L 101.513738 268.470444 
L 101.616453 268.633613 
L 101.890726 270.108405 
L 102.13044 270.355398 
L 102.168933 267.981051 
L 102.346683 267.25869 
L 102.442127 268.045148 
L 102.610271 268.507041 
L 102.756067 267.976246 
L 103.023111 268.940222 
L 103.304504 267.941913 
L 103.574795 268.232805 
L 104.022028 272.474388 
L 104.29733 271.343135 
L 104.815089 273.808716 
L 104.84775 273.700939 
L 105.052055 272.847192 
L 105.294785 270.190442 
L 105.430666 269.914138 
L 105.704929 271.023786 
L 105.860586 270.204055 
L 105.91366 268.510408 
L 106.462033 270.153049 
L 106.563794 270.914962 
L 106.875598 271.63914 
L 107.014108 270.756525 
L 107.216772 271.254642 
L 107.457573 274.300517 
L 107.601913 273.178919 
L 107.843302 273.748662 
L 107.988126 273.263311 
L 108.153337 273.244345 
L 108.462604 274.93687 
L 108.672846 274.710854 
L 108.978687 270.692936 
L 109.151065 270.58338 
L 109.432935 271.904956 
L 109.564824 271.286311 
L 109.842478 268.609081 
L 109.987124 268.062911 
L 110.563531 271.542852 
L 110.941693 269.950206 
L 110.975431 269.273156 
L 111.114426 270.575448 
L 111.354911 271.185234 
L 111.560802 270.354873 
L 111.697633 269.071823 
L 111.959189 269.729932 
L 112.042259 269.629044 
L 112.280106 271.47212 
L 112.564734 270.454133 
L 112.769266 269.513913 
L 112.971339 271.76696 
L 113.252265 272.797214 
L 113.42946 271.084407 
L 113.595562 271.766788 
L 113.7616 273.26728 
L 113.830262 273.153498 
L 114.108175 273.173475 
L 114.244671 273.941763 
L 114.555159 271.008104 
L 114.808692 271.855464 
L 115.002296 270.80882 
L 115.105761 269.29685 
L 115.364605 269.495289 
L 115.451376 268.962668 
L 115.688569 268.987965 
L 115.912172 269.249345 
L 116.119868 270.679785 
L 116.241745 270.631338 
L 116.377313 269.213879 
L 116.687549 270.446989 
L 116.858219 270.187745 
L 116.931409 270.504444 
L 116.962925 270.063226 
L 117.099262 271.478373 
L 117.23743 270.263575 
L 117.37498 270.323574 
L 117.520537 271.046718 
L 117.690319 270.365117 
L 117.827917 270.424782 
L 118.101913 268.717151 
L 118.238942 269.135487 
L 118.377133 268.522704 
L 118.51394 266.783968 
L 118.831667 269.003658 
L 118.936324 268.410397 
L 118.963198 269.628106 
L 119.101162 268.888464 
L 119.205823 270.418579 
L 119.933711 273.071132 
L 120.102807 272.817849 
L 120.305056 270.951233 
L 120.373659 271.21021 
L 120.512774 272.260602 
L 120.651412 271.841459 
L 120.789259 272.113547 
L 121.133715 271.581894 
L 121.377836 269.714383 
L 121.720777 273.10783 
L 121.787924 273.462482 
L 121.958891 272.689354 
L 122.200124 274.435841 
L 122.337046 274.579434 
L 122.370744 274.932617 
L 122.475792 274.802378 
L 122.723364 275.113563 
L 122.757158 275.369731 
L 123.067029 272.454754 
L 123.208093 272.073596 
L 123.345267 272.136479 
L 123.615127 271.545384 
L 123.82519 271.367908 
L 124.09778 272.107564 
L 124.198876 271.973221 
L 124.336783 273.387184 
L 124.620933 273.66385 
L 124.750426 273.559637 
L 124.922401 272.206205 
L 125.195514 271.050542 
L 125.345443 271.463634 
L 125.621108 273.577977 
L 125.762171 271.592492 
L 126.031206 271.263246 
L 126.09768 270.439132 
L 126.437393 270.603318 
L 126.469641 271.656659 
L 126.642841 270.723736 
L 126.953125 267.584845 
L 127.054465 267.918834 
L 127.329711 265.879782 
L 127.468288 266.526505 
L 127.673314 266.56379 
L 127.741331 267.594304 
L 127.880961 267.404724 
L 128.415487 269.332474 
L 128.500799 269.272892 
L 128.706073 270.575223 
L 128.741316 270.385051 
L 128.886649 270.757686 
L 129.152627 267.338326 
L 129.290934 268.512092 
L 129.462647 267.051005 
L 129.604089 266.966935 
L 129.877001 269.040117 
L 130.04968 269.076067 
L 130.219828 270.123759 
L 130.288516 269.804229 
L 130.494025 271.059422 
L 130.598697 272.472135 
L 130.734456 271.865261 
L 131.043237 272.809763 
L 131.284829 269.896222 
L 131.491448 269.662514 
L 131.595438 269.245153 
L 131.751241 269.966088 
L 132.078278 269.442613 
L 132.297254 268.402122 
L 132.56576 266.261119 
L 133.043005 268.881725 
L 133.297328 268.689685 
L 133.45397 269.529113 
L 133.593898 269.237183 
L 133.757727 269.399643 
L 133.981867 271.537966 
L 134.293495 273.406366 
L 134.59318 272.06084 
L 134.695659 272.08676 
L 135.078127 272.554037 
L 135.148718 271.250789 
L 135.258581 272.27792 
L 135.423568 271.443174 
L 135.561997 269.888348 
L 135.835595 270.220489 
L 135.972712 272.772557 
L 136.111822 272.994112 
L 136.253139 271.948558 
L 136.570069 272.667892 
L 136.695475 271.224192 
L 136.970229 271.853661 
L 137.12047 270.490258 
L 137.245968 271.545759 
L 137.403592 270.316612 
L 137.690021 270.070821 
L 137.963847 271.043664 
L 138.110512 271.041575 
L 138.243633 270.477592 
L 138.548773 271.620317 
L 138.824179 269.458211 
L 138.960111 270.553026 
L 139.096649 270.437171 
L 139.238514 269.315186 
L 139.379691 269.937576 
L 139.544334 269.973843 
L 139.68315 271.363442 
L 139.820048 271.069229 
L 139.957407 270.212223 
L 140.232313 271.713777 
L 140.369085 270.412452 
L 140.541105 270.313637 
L 140.817422 271.98911 
L 140.955907 272.22286 
L 141.09156 272.030492 
L 141.371361 273.722104 
L 141.676164 271.575227 
L 141.943807 270.602238 
L 142.087581 269.868843 
L 142.379945 270.013802 
L 142.640568 268.796508 
L 143.35904 271.222865 
L 143.530638 271.404577 
L 143.787317 268.310783 
L 143.912776 269.092669 
L 143.945167 268.818977 
L 144.081577 268.192564 
L 144.21912 268.520369 
L 144.360478 268.158286 
L 144.531332 266.896791 
L 144.771734 268.863959 
L 144.944607 268.110481 
L 145.055901 268.549188 
L 145.221007 269.783618 
L 145.355269 268.977028 
L 145.495267 269.644049 
L 145.654177 269.097025 
L 145.665441 271.669731 
L 145.770056 270.507424 
L 146.054215 271.634028 
L 146.080082 270.746556 
L 146.225956 270.20315 
L 146.493554 271.691534 
L 146.596753 272.998552 
L 146.632171 272.511944 
L 146.771906 272.543623 
L 147.093961 270.803452 
L 147.252929 270.991388 
L 147.355272 270.758545 
L 147.700156 272.711143 
L 147.904695 270.656549 
L 148.043089 270.122191 
L 148.181847 270.754164 
L 148.39432 272.443446 
L 148.496434 272.314325 
L 148.638563 271.322047 
L 148.780193 271.231121 
L 148.807232 269.709795 
L 148.909103 270.301737 
L 149.150042 269.556769 
L 149.321783 272.269252 
L 149.631826 272.328109 
L 149.769191 271.791835 
L 149.803783 270.243661 
L 150.146992 271.007922 
L 150.218959 270.696875 
L 150.355929 270.87223 
L 150.391076 270.158196 
L 150.495868 271.362787 
L 150.942379 267.395837 
L 151.145839 267.893901 
L 151.181086 268.94743 
L 151.319905 268.989099 
L 151.492685 268.551193 
L 151.596395 270.879508 
L 151.627527 269.814819 
L 151.766516 270.788638 
L 152.109921 271.60259 
L 152.314791 271.365534 
L 152.451432 273.34329 
L 152.727572 271.886805 
L 152.935476 271.976963 
L 153.246629 269.607506 
L 153.415958 268.988918 
L 153.518376 269.078037 
L 153.690837 270.389444 
L 153.865091 268.854935 
L 154.310274 270.549076 
L 154.515442 271.786749 
L 154.583661 272.987884 
L 154.790279 273.252885 
L 155.023982 273.250104 
L 155.133214 273.490215 
L 155.202569 272.96615 
L 155.442336 272.773125 
L 155.528048 272.931416 
L 155.648043 271.590409 
L 155.786003 272.59375 
L 156.164944 270.214633 
L 156.204886 271.157513 
L 156.302542 270.779599 
L 156.440052 270.837289 
L 156.581593 271.619669 
L 156.832136 270.422729 
L 156.870001 270.44355 
L 156.998431 270.573714 
L 157.138175 269.81406 
L 157.303029 269.595486 
L 157.440794 269.597707 
L 157.716869 268.088553 
L 157.855012 267.335128 
L 158.05809 267.484689 
L 158.13446 267.893538 
L 158.401161 268.4178 
L 158.572785 267.831842 
L 158.751297 268.056269 
L 158.886424 267.936638 
L 158.991202 269.458948 
L 159.159222 268.987369 
L 159.263808 270.019799 
L 159.845218 266.078394 
L 159.982747 267.281303 
L 160.189253 266.598749 
L 160.334583 266.778549 
L 160.444042 265.664797 
L 160.845341 264.883196 
L 161.294539 268.031333 
L 161.430775 268.003139 
L 161.571659 268.644488 
L 161.912708 267.520376 
L 162.119659 268.565983 
L 162.25953 268.573795 
L 162.291677 268.912407 
L 162.463663 268.03599 
L 162.569176 269.08129 
L 162.737667 269.012451 
L 162.94427 268.29232 
L 163.017182 267.592894 
L 163.290364 268.860565 
L 163.425305 268.617276 
L 163.699834 270.662852 
L 163.98595 269.556365 
L 164.111444 268.546938 
L 164.387803 267.824122 
L 164.529667 268.786834 
L 164.695399 268.707713 
L 164.858639 269.430121 
L 164.973057 268.540822 
L 165.108156 268.40565 
L 165.247557 269.915041 
L 165.486658 269.733448 
L 165.623325 269.315866 
L 165.693089 270.763623 
L 165.829753 270.921024 
L 166.002529 270.740511 
L 166.139238 272.182902 
L 166.41606 271.839499 
L 166.557662 272.454935 
L 166.725811 271.745989 
L 166.898515 272.669853 
L 166.966203 274.375617 
L 167.104035 274.385829 
L 167.24659 273.372784 
L 167.397293 273.731924 
L 167.518261 272.593981 
L 167.758716 272.053846 
L 167.964247 272.898971 
L 168.100791 273.03099 
L 168.237549 272.986169 
L 168.513171 270.437671 
L 168.795728 271.041077 
L 168.95034 270.445785 
L 169.09829 272.343338 
L 169.662673 267.900208 
L 169.928194 268.222725 
L 170.204096 269.758047 
L 170.371836 271.180872 
L 170.508219 269.56292 
L 170.930791 270.897264 
L 171.197866 272.730986 
L 171.367542 272.59509 
L 171.505274 272.27242 
L 171.917699 272.220629 
L 172.198219 273.144661 
L 172.362699 273.379584 
L 172.501289 273.061067 
L 172.640715 272.349457 
L 172.914739 275.103802 
L 173.051813 273.824886 
L 173.389641 273.240747 
L 173.496099 272.089355 
L 173.634981 272.744171 
L 173.772155 272.81377 
L 173.909512 273.160817 
L 174.053859 272.63312 
L 174.326875 269.023776 
L 174.4956 269.399662 
L 174.634801 269.155544 
L 174.768698 267.896957 
L 174.916722 268.067973 
L 175.045958 266.882546 
L 175.181851 267.074497 
L 175.324224 265.484419 
L 175.470862 266.018189 
L 175.599627 267.140321 
L 175.781288 267.658602 
L 175.981886 268.716382 
L 176.186742 271.893543 
L 176.318355 271.853521 
L 176.45914 269.261823 
L 176.597469 271.564169 
L 176.734047 274.220663 
L 176.766687 272.775122 
L 176.908707 273.072436 
L 177.046412 274.183013 
L 177.318168 271.262798 
L 177.592967 269.534476 
L 177.90168 270.804615 
L 178.049922 270.756091 
L 178.391197 269.497037 
L 178.769718 270.911962 
L 179.420138 267.671768 
L 179.48833 268.170346 
L 179.612471 268.192914 
L 179.729886 268.567369 
L 180.00553 269.001757 
L 180.209878 268.862165 
L 180.387254 269.389804 
L 180.590684 271.846784 
L 180.899301 273.806807 
L 181.138327 271.722672 
L 181.311902 271.026387 
L 181.448606 271.376911 
L 181.759365 274.418853 
L 181.962383 273.796778 
L 182.143543 270.901044 
L 182.273825 269.993262 
L 182.445708 271.057613 
L 182.796842 269.406335 
L 182.859716 269.105565 
L 183.0335 267.391599 
L 183.273109 267.6705 
L 183.307029 268.004151 
L 183.547142 269.117945 
L 183.68774 268.539329 
L 183.725267 270.266166 
L 183.891289 269.934355 
L 183.99365 271.576307 
L 184.147687 271.865769 
L 184.268185 270.898094 
L 184.410468 271.414406 
L 184.640767 269.117695 
L 184.855405 270.440495 
L 185.471743 267.491626 
L 185.609038 270.040903 
L 185.920146 269.925385 
L 186.022668 271.53014 
L 186.127025 269.821446 
L 186.401273 271.724985 
L 186.575366 270.569373 
L 186.680693 272.114979 
L 186.846957 271.899939 
L 187.019946 269.090222 
L 187.232179 270.277813 
L 187.294203 269.689387 
L 187.328345 270.74109 
L 187.74124 268.79279 
L 187.844223 268.846326 
L 188.324084 270.642444 
L 188.39268 273.300281 
L 188.668914 271.52078 
L 188.839149 271.487614 
L 188.975887 270.938826 
L 189.285484 271.121713 
L 189.457921 273.254699 
L 189.701563 273.128801 
L 189.838571 270.883907 
L 190.255189 273.872934 
L 190.525551 274.838702 
L 190.732441 273.790685 
L 190.971941 269.96287 
L 191.144061 269.171755 
L 191.283622 270.476363 
L 191.420276 269.321789 
L 191.831771 269.633273 
L 191.96962 269.330779 
L 192.106595 269.866018 
L 192.384585 270.226904 
L 192.514411 271.403435 
L 192.540803 271.336465 
L 192.665577 269.972681 
L 192.743436 270.296198 
L 192.955488 270.336311 
L 193.240348 269.312549 
L 193.558706 271.688763 
L 193.684165 272.610946 
L 193.960368 272.870781 
L 194.06255 273.899276 
L 194.683362 271.422816 
L 195.17297 270.175883 
L 195.37196 268.211952 
L 195.508565 269.304428 
L 195.680793 269.554893 
L 196.004609 270.592562 
L 196.164025 269.562367 
L 196.232354 270.506297 
L 196.552542 270.473811 
L 196.714784 270.675539 
L 196.921635 269.800659 
L 197.028416 268.795882 
L 197.258069 269.012829 
L 197.509146 267.578339 
L 197.658898 267.619069 
L 197.726712 267.365828 
L 197.784713 267.441045 
L 197.925747 269.251875 
L 198.058019 268.111729 
L 198.196952 268.506708 
L 198.445014 268.856464 
L 198.509569 268.382076 
L 198.782834 269.707172 
L 198.920348 270.081711 
L 199.093294 268.841532 
L 199.229837 269.527378 
L 199.332695 267.683796 
L 199.541699 268.433094 
L 199.816837 268.308029 
L 199.955115 268.931406 
L 200.114848 268.833126 
L 200.202053 268.106351 
L 200.473452 268.794333 
L 200.77923 266.409476 
L 201.091876 267.572432 
L 201.267791 266.940196 
L 201.619543 268.249435 
L 201.645516 270.509208 
L 201.781016 268.437335 
L 201.889041 268.485528 
L 202.125755 268.181215 
L 202.343669 270.667297 
L 202.470482 270.862483 
L 202.60774 272.410762 
L 202.744358 272.138952 
L 202.8897 271.056893 
L 203.192432 272.358476 
L 203.330487 271.603583 
L 203.481268 273.447425 
L 204.050943 270.01412 
L 204.225545 268.351802 
L 204.331518 269.126244 
L 204.607079 267.844309 
L 204.779819 268.111145 
L 205.095573 269.984721 
L 205.190621 269.963406 
L 205.328329 269.435115 
L 205.568034 269.458816 
L 205.638126 270.678005 
L 205.87679 269.26468 
L 206.014201 270.6675 
L 206.289466 269.697469 
L 206.461311 270.053336 
L 206.632051 271.44958 
L 206.812062 271.791244 
L 206.906224 271.359433 
L 207.145929 272.702345 
L 207.285364 272.896757 
L 207.75738 271.626282 
L 208.177351 268.848403 
L 208.315792 269.319062 
L 208.658223 268.838332 
L 208.738302 269.913068 
L 209.070058 270.640153 
L 209.311382 273.01258 
L 209.491189 273.559086 
L 209.585791 274.356223 
L 209.78206 273.897029 
L 209.967197 273.164771 
L 209.999049 274.229553 
L 210.309298 271.803527 
L 210.446803 271.996985 
L 210.892397 270.348432 
L 210.999015 270.272925 
L 211.167518 270.848199 
L 211.277619 272.489689 
L 211.443348 272.244835 
L 211.687257 272.307962 
L 211.719308 273.026068 
L 211.858161 272.706099 
L 211.889093 271.389545 
L 212.030585 271.291483 
L 212.130728 272.430675 
L 212.544319 272.401414 
L 212.715937 271.397868 
L 212.858231 271.546544 
L 213.130983 269.587289 
L 213.294313 270.949149 
L 213.430604 271.0362 
L 213.678057 269.907753 
L 213.842886 269.572919 
L 213.982562 270.264688 
L 214.152294 269.993789 
L 214.264929 269.563185 
L 214.53488 271.421029 
L 214.562949 271.290751 
L 214.768187 271.396083 
L 215.113272 269.238086 
L 215.28954 269.032918 
L 215.561003 268.174435 
L 215.697457 268.529862 
L 216.006676 268.742258 
L 216.121471 268.214312 
L 216.25023 268.669429 
L 216.564581 270.469597 
L 216.891851 271.423603 
L 217.008266 271.045123 
L 217.124309 271.101425 
L 217.150398 270.232146 
L 217.289897 271.152593 
L 217.423104 270.30751 
L 217.524571 270.506326 
L 217.663717 271.551545 
L 217.834629 270.937514 
L 217.949207 272.587117 
L 218.180219 272.609556 
L 218.31562 271.807046 
L 218.526481 271.490325 
L 218.590538 270.64922 
L 218.728666 271.247185 
L 218.817863 272.926103 
L 219.246614 270.445231 
L 219.521542 267.628481 
L 219.657631 269.565895 
L 219.796769 269.766152 
L 220.105525 268.215097 
L 220.277252 266.52845 
L 220.936947 270.784588 
L 221.113265 267.995941 
L 221.136837 268.63027 
L 221.481137 268.81141 
L 221.654591 271.370885 
L 221.792742 271.480911 
L 221.93008 270.39297 
L 222.170429 269.852364 
L 222.278928 268.698632 
L 222.379841 268.717406 
L 222.553085 270.031048 
L 222.813804 268.855542 
L 222.928813 268.97973 
L 223.066741 266.573727 
L 223.271274 266.269147 
L 223.376031 267.777305 
L 223.512704 267.049467 
L 223.790209 268.243005 
L 223.924299 267.830708 
L 224.061587 268.241912 
L 224.19844 269.768921 
L 224.370322 269.929277 
L 224.645016 271.501575 
L 224.783862 269.07266 
L 224.922796 268.948824 
L 225.061563 269.942528 
L 225.195779 268.803928 
L 225.33868 269.043632 
L 225.473684 269.506054 
L 225.642307 267.411949 
L 225.779559 267.144202 
L 226.054187 268.774489 
L 226.364196 270.493017 
L 226.397666 272.185271 
L 226.491952 271.931281 
L 226.820902 273.390006 
L 227.018898 271.775416 
L 227.196112 272.366435 
L 227.235447 273.010006 
L 227.327279 270.898378 
L 227.471154 270.694841 
L 227.639273 270.857968 
L 227.89124 269.466489 
L 228.049234 269.850605 
L 228.187037 268.780975 
L 228.45737 269.885293 
L 228.615438 267.817176 
L 228.903783 269.274629 
L 229.041387 269.373205 
L 229.349807 270.461148 
L 229.593 268.675103 
L 229.743996 269.297488 
L 229.934357 269.373332 
L 230.043876 271.561552 
L 230.229445 271.440999 
L 230.368428 271.057159 
L 230.61175 269.190524 
L 230.77872 268.669973 
L 230.918088 269.785014 
L 231.088115 270.180988 
L 231.190117 270.117934 
L 231.434475 269.755187 
L 231.537596 269.829849 
L 231.743074 268.729139 
L 231.776263 266.707516 
L 232.022904 269.227357 
L 232.301139 267.71386 
L 232.499987 268.224861 
L 232.715563 268.962762 
L 232.881143 267.527535 
L 233.01812 267.912287 
L 233.258751 268.251394 
L 233.50243 267.454664 
L 233.70668 268.826954 
L 233.810048 268.088889 
L 233.878057 268.382812 
L 234.15265 266.247191 
L 234.428387 268.742422 
L 234.598737 268.559901 
L 234.704408 269.049725 
L 234.84305 268.414391 
L 235.013965 268.560168 
L 235.234682 269.664954 
L 235.597661 268.216389 
L 235.639432 270.226121 
L 235.734817 268.580887 
L 235.875013 268.111202 
L 236.010697 269.512339 
L 236.399261 268.621794 
L 236.560934 269.196489 
L 236.698042 268.982881 
L 236.837381 268.974218 
L 237.0407 268.509823 
L 237.28278 269.708467 
L 237.45659 268.77279 
L 237.694845 271.315539 
L 237.832848 271.365594 
L 237.972476 270.562562 
L 238.305277 272.764774 
L 238.554813 273.145025 
L 238.831425 272.068017 
L 239.036541 272.822634 
L 239.206604 272.124505 
L 239.27601 272.152269 
L 239.430732 272.17623 
L 239.790301 271.725448 
L 239.834889 272.401843 
L 240.02952 272.153749 
L 240.102618 273.834156 
L 240.303899 273.682105 
L 240.549904 272.685973 
L 240.686253 271.784106 
L 240.889533 271.639859 
L 240.963149 271.171954 
L 241.153038 272.496739 
L 241.256699 270.989716 
L 241.459916 271.556381 
L 241.569769 270.450126 
L 241.735351 270.526195 
L 241.945713 269.291511 
L 242.01204 269.87098 
L 242.666219 267.524514 
L 242.801228 266.767878 
L 243.661458 269.578511 
L 243.833313 268.65075 
L 243.970019 268.799881 
L 244.246362 270.748977 
L 244.384267 270.852477 
L 244.726357 269.662901 
L 244.830292 270.256551 
L 244.967822 270.068698 
L 245.279348 270.838396 
L 245.37926 269.166099 
L 245.655132 268.468518 
L 245.963299 269.307508 
L 246.065656 271.103815 
L 246.277473 270.180786 
L 246.512575 270.89292 
L 246.718284 270.611106 
L 246.962628 274.030561 
L 247.099024 273.686118 
L 247.343564 272.653886 
L 247.510314 270.944796 
L 247.651935 270.947732 
L 247.785087 271.121643 
L 247.957788 269.828292 
L 248.063862 270.615036 
L 248.200899 270.215871 
L 248.643609 267.050516 
L 248.784592 267.148514 
L 248.921379 267.867589 
L 249.20344 268.109559 
L 249.501817 267.425842 
L 249.844551 265.744903 
L 250.358589 269.821707 
L 250.771055 270.851319 
L 250.915915 271.589808 
L 250.941878 272.63971 
L 251.218547 270.676118 
L 251.35475 270.917224 
L 251.526579 270.765281 
L 251.665465 270.259104 
L 251.871967 270.083772 
L 251.939428 270.915513 
L 252.043334 270.479779 
L 252.279719 270.670133 
L 252.351814 270.11469 
L 252.734873 272.201198 
L 252.935868 270.330907 
L 253.08466 270.146423 
L 253.34399 271.104686 
L 253.635199 269.136424 
L 253.740396 269.313364 
L 253.975675 268.565288 
L 254.047559 269.065023 
L 254.321462 269.248722 
L 254.468568 268.57822 
L 254.597283 268.537465 
L 254.73409 267.739725 
L 254.90551 267.829427 
L 255.147453 268.551352 
L 255.2207 269.333732 
L 255.629033 270.417943 
L 255.902122 271.044276 
L 256.04371 270.972621 
L 256.182354 270.559675 
L 256.597734 272.035056 
L 256.761378 271.523865 
L 257.016815 269.526305 
L 257.150084 269.320632 
L 257.591988 271.368829 
L 258.074317 270.271002 
L 258.145297 270.267874 
L 258.425847 268.960255 
L 258.591753 269.033891 
L 258.729743 269.684845 
L 259.277725 267.014235 
L 259.421813 265.134634 
L 259.725701 266.642743 
L 259.863866 268.495567 
L 260.001398 268.382901 
L 260.287164 266.772802 
L 260.414198 267.203226 
L 260.556053 268.356543 
L 260.722208 267.355075 
L 260.858696 268.615685 
L 260.997494 267.929276 
L 261.136212 268.850261 
L 261.273938 268.679032 
L 261.421852 267.821627 
L 261.551558 267.885565 
L 261.584117 267.31515 
L 261.859891 268.831153 
L 262.137633 270.390427 
L 262.42632 271.451914 
L 262.549536 270.957129 
L 262.704061 269.699383 
L 262.850677 270.193139 
L 262.996147 269.957403 
L 263.274366 268.181104 
L 263.414013 267.035731 
L 263.682855 268.627925 
L 263.821842 267.57207 
L 263.962952 267.55109 
L 264.106056 267.828062 
L 264.262577 267.865084 
L 264.407292 267.470121 
L 264.53842 268.343574 
L 264.677307 268.277283 
L 264.825212 268.496368 
L 265.099519 266.319731 
L 265.295403 266.577781 
L 265.400476 267.230397 
L 265.70777 267.623031 
L 265.847075 267.861032 
L 266.052687 268.68256 
L 266.124961 269.721839 
L 266.304768 269.306132 
L 266.377261 270.635808 
L 266.517954 270.203654 
L 266.712822 270.674316 
L 266.820844 270.339371 
L 266.953365 271.907388 
L 267.415183 269.281123 
L 267.515421 270.573743 
L 267.647668 270.51546 
L 267.814264 269.623328 
L 268.098427 270.30292 
L 268.536559 268.616102 
L 268.640757 269.2919 
L 268.812597 268.248418 
L 268.983675 265.642431 
L 269.122109 266.424724 
L 269.361287 265.849176 
L 269.673058 267.837305 
L 269.876318 268.953589 
L 270.015826 268.005777 
L 270.084885 270.119205 
L 270.220739 270.128159 
L 270.360541 271.230378 
L 270.529861 270.793671 
L 270.633929 271.791959 
L 271.080406 269.54872 
L 271.253773 269.011806 
L 271.388483 270.647862 
L 271.525519 268.980017 
L 271.945216 271.684811 
L 272.089195 271.444016 
L 272.521531 273.74712 
L 272.761329 273.917859 
L 273.071828 272.226993 
L 273.208993 272.127496 
L 273.489427 272.119194 
L 273.518893 271.784594 
L 273.826332 271.88901 
L 274.066715 269.138825 
L 274.480661 270.196238 
L 274.75878 270.745464 
L 274.960805 270.505143 
L 275.215498 270.412949 
L 275.235688 269.963098 
L 275.510392 270.2787 
L 275.682516 271.413066 
L 275.924007 270.735315 
L 276.077112 269.30146 
L 276.244733 268.827828 
L 276.336396 268.903547 
L 276.623368 267.811725 
L 276.784446 269.050667 
L 276.932324 269.08721 
L 277.068337 268.85149 
L 277.240972 268.163532 
L 277.515142 271.218902 
L 277.723108 271.119658 
L 277.755835 271.625419 
L 278.029798 273.410916 
L 278.041669 274.866837 
L 278.212533 273.782859 
L 278.385147 273.601562 
L 278.524674 273.135582 
L 278.624581 273.438133 
L 278.76492 271.865306 
L 278.943027 272.004956 
L 279.037513 272.339367 
L 279.212077 271.932319 
L 279.345949 270.502047 
L 279.585773 270.477291 
L 279.723544 270.870716 
L 279.828425 271.657275 
L 279.898583 270.794425 
L 280.033928 271.032799 
L 280.17117 271.820756 
L 280.516081 270.005997 
L 280.894242 267.922168 
L 281.328455 269.102392 
L 281.475595 269.268061 
L 281.609672 268.294256 
L 281.741885 268.562231 
L 282.05077 271.301256 
L 282.29098 271.537502 
L 282.359249 271.258739 
L 282.469453 271.923888 
L 282.568287 271.233649 
L 282.738661 271.894932 
L 283.01167 271.66633 
L 283.184545 271.836111 
L 283.321496 270.284223 
L 283.663902 268.763007 
L 283.802025 268.997042 
L 284.007513 267.581126 
L 284.149544 266.099318 
L 284.456367 268.291366 
L 284.592788 267.891498 
L 284.729644 268.806391 
L 284.867651 268.875074 
L 285.010283 270.389713 
L 285.313986 269.466841 
L 285.589893 271.153063 
L 285.865708 268.748532 
L 286.140676 267.750963 
L 286.307827 268.60735 
L 286.526629 267.222708 
L 286.69275 268.325861 
L 286.732269 269.44512 
L 286.964124 269.513297 
L 287.065276 267.908679 
L 287.413649 271.888853 
L 287.550442 270.845001 
L 287.686884 271.232344 
L 287.858191 272.412305 
L 288.138681 270.376992 
L 288.348557 269.485325 
L 288.410039 271.32938 
L 288.582873 270.515401 
L 288.685115 269.226743 
L 288.963431 269.645566 
L 288.993644 270.436914 
L 289.312093 268.310307 
L 289.512897 268.666701 
L 289.653828 269.30825 
L 289.681158 269.168042 
L 289.716862 271.197114 
L 289.851652 268.501576 
L 289.995263 269.175165 
L 290.163426 269.339218 
L 290.268786 269.252961 
L 290.404405 268.715418 
L 290.648071 269.377984 
L 290.712106 270.048744 
L 290.987435 268.047084 
L 291.125099 267.41153 
L 291.262402 267.939132 
L 291.67844 266.491382 
L 291.962595 269.223315 
L 292.12054 268.776711 
L 292.259285 269.098528 
L 292.396995 269.780105 
L 292.671187 269.103546 
L 292.98176 269.46422 
L 293.090039 271.49109 
L 293.397286 268.879031 
L 293.532956 269.061882 
L 293.810696 269.033823 
L 293.94491 268.290414 
L 294.22234 269.872525 
L 294.393342 269.460876 
L 294.529291 268.285447 
L 294.666756 269.852867 
L 294.8033 269.788584 
L 294.948116 269.409996 
L 295.476519 271.584775 
L 295.525977 270.865471 
L 295.679194 272.368842 
L 296.008837 270.72703 
L 296.077442 269.334595 
L 296.216849 270.001699 
L 296.457745 269.441109 
L 296.529866 270.247776 
L 296.697267 270.213829 
L 296.804276 270.424679 
L 297.110022 269.81904 
L 297.21587 269.884737 
L 297.5225 269.737091 
L 297.661472 269.291321 
L 297.796968 270.068382 
L 297.935193 269.264541 
L 298.392674 271.83204 
L 298.576146 271.213076 
L 298.930274 272.687171 
L 299.075948 272.317974 
L 299.205884 272.646903 
L 299.343035 272.319273 
L 299.582426 272.381467 
L 299.651246 270.942978 
L 299.821884 271.565891 
L 299.962782 271.049552 
L 300.338763 273.746173 
L 300.615631 274.375314 
L 300.786589 274.470137 
L 301.095538 274.031814 
L 301.677967 271.163591 
L 301.883835 270.761095 
L 302.090035 268.533075 
L 302.197738 268.517535 
L 302.345413 267.401839 
L 302.613282 266.831401 
L 302.748557 267.355019 
L 302.948801 266.825312 
L 303.090819 267.288273 
L 303.230338 266.850485 
L 303.32921 267.520052 
L 303.64276 268.915656 
L 304.053291 272.135786 
L 304.238981 271.502746 
L 304.368238 271.900363 
L 304.534398 270.612269 
L 304.878368 272.429208 
L 304.950474 271.981034 
L 305.05359 273.628538 
L 305.535058 272.089216 
L 305.742522 271.024504 
L 305.911998 271.976421 
L 306.051411 271.397793 
L 306.461381 268.939432 
L 306.633494 268.988884 
L 306.738423 270.223789 
L 306.94339 270.779085 
L 307.045086 271.382629 
L 307.389335 272.076794 
L 307.495549 271.282416 
L 307.845551 271.505674 
L 307.904511 270.426293 
L 308.042439 270.172633 
L 308.213224 270.126865 
L 308.320244 269.826013 
L 308.455315 269.780267 
L 308.730887 268.603838 
L 309.004443 269.569737 
L 309.144693 269.069106 
L 309.314357 269.324613 
L 309.450469 269.183351 
L 309.622547 268.02059 
L 309.730614 268.217568 
L 309.759232 271.788527 
L 309.965968 268.802109 
L 310.071817 269.937408 
L 310.173293 269.885759 
L 310.309646 269.649123 
L 310.457276 268.871968 
L 310.585912 269.864423 
L 310.826036 270.447814 
L 310.862967 269.322836 
L 311.101345 271.640923 
L 311.175966 270.89188 
L 311.307693 270.962368 
L 311.443583 270.046871 
L 311.615475 271.544594 
L 311.720194 269.824913 
L 311.992892 270.524165 
L 312.144949 270.318724 
L 312.273762 271.799329 
L 312.426028 271.411044 
L 312.702551 271.097598 
L 312.727649 271.790278 
L 312.863529 272.282056 
L 313.007251 272.379783 
L 313.282474 274.519931 
L 313.507647 273.72124 
L 313.591261 274.461678 
L 313.830778 273.863417 
L 313.867772 272.279033 
L 314.043043 273.712372 
L 314.521825 269.946141 
L 314.559271 270.377247 
L 315.108083 268.787226 
L 315.278094 269.288066 
L 315.401687 268.120909 
L 315.604469 268.903421 
L 315.812037 268.926701 
L 315.858309 269.916293 
L 316.003315 267.933167 
L 316.155177 268.31614 
L 316.295024 267.842049 
L 316.468294 270.162392 
L 316.711783 268.711226 
L 316.978669 268.843048 
L 317.26194 267.73415 
L 317.425719 269.558217 
L 317.534588 268.783189 
L 317.699854 269.374267 
L 317.83884 267.597126 
L 318.010022 268.504942 
L 318.319185 271.125819 
L 318.661366 272.204408 
L 319.108795 274.21095 
L 319.245709 276.193827 
L 319.830332 270.348341 
L 319.966801 270.361614 
L 320.104237 270.687638 
L 320.248201 270.081916 
L 320.378707 270.674621 
L 320.659639 269.233295 
L 320.808001 269.686812 
L 320.940612 269.14636 
L 321.0779 269.207541 
L 321.248786 268.87686 
L 321.381969 269.560889 
L 321.520481 267.257475 
L 321.584597 267.42594 
L 321.796425 266.608889 
L 321.935143 267.489644 
L 322.072441 267.425247 
L 322.24128 268.049769 
L 322.517912 268.111577 
L 322.792812 267.460134 
L 322.986831 268.688091 
L 323.076482 270.017431 
L 323.220257 269.775168 
L 323.375142 268.458983 
L 323.516278 268.256177 
L 323.651646 267.341684 
L 323.787842 268.012022 
L 323.926142 267.704961 
L 324.062858 269.595076 
L 324.097019 273.035481 
L 324.208025 269.705655 
L 324.373305 270.086661 
L 324.646448 269.802983 
L 324.92183 270.877764 
L 325.067026 271.340435 
L 325.19667 271.115772 
L 325.339796 272.357417 
L 325.643596 270.640461 
L 325.781071 270.781218 
L 325.917727 271.512435 
L 326.055671 271.00622 
L 326.398665 268.448276 
L 326.613514 268.879954 
L 326.744371 267.655073 
L 326.950742 267.508495 
L 327.053303 269.075319 
L 327.326361 265.581628 
L 327.465887 265.764623 
L 327.619832 267.003897 
L 327.772301 266.161232 
L 327.932968 266.750621 
L 328.058489 265.739121 
L 328.218812 266.684575 
L 328.391035 266.129283 
L 328.597014 267.038685 
L 328.780685 268.993003 
L 328.909191 268.909475 
L 329.045725 268.272211 
L 329.252634 268.348613 
L 329.355391 269.220595 
L 329.499505 268.708244 
L 329.768689 269.969941 
L 329.9788 270.193737 
L 330.181466 268.400846 
L 330.353117 268.951616 
L 330.457638 268.593908 
L 330.593314 269.767198 
L 330.731314 269.286602 
L 330.91096 271.529112 
L 331.181239 270.431427 
L 331.493878 271.198839 
L 331.603025 272.152813 
L 331.765624 271.121809 
L 331.919393 271.295313 
L 332.038727 270.736472 
L 332.209324 270.898298 
L 332.375867 270.135137 
L 332.479137 270.489094 
L 332.590304 270.432635 
L 332.787863 270.467219 
L 332.862298 269.56865 
L 333.033598 270.161995 
L 333.441612 272.094859 
L 333.855065 269.049574 
L 334.060642 269.570284 
L 334.162575 268.386396 
L 334.404298 268.268215 
L 334.543789 266.78031 
L 334.617119 267.138232 
L 334.748918 265.935844 
L 335.056548 265.898709 
L 335.178761 268.556407 
L 335.502866 267.971926 
L 335.744397 270.138619 
L 336.027586 269.656186 
L 336.315007 273.078266 
L 336.675343 271.643951 
L 336.754905 272.652131 
L 336.851699 272.212154 
L 336.984244 270.551727 
L 337.260994 270.356093 
L 337.467873 273.212687 
L 337.606794 272.511747 
L 337.711979 270.732183 
L 337.854066 270.399793 
L 338.269864 270.885534 
L 338.423775 270.243798 
L 338.507097 271.666514 
L 338.719302 269.323156 
L 338.853537 268.483595 
L 339.125825 270.463504 
L 339.33076 269.711853 
L 339.536712 271.128978 
L 339.674943 270.674235 
L 339.778907 273.336751 
L 339.846075 272.166691 
L 340.404276 273.660983 
L 340.567428 272.160088 
L 340.705038 272.545418 
L 340.843397 271.012419 
L 340.98072 271.539497 
L 341.119488 270.149717 
L 341.393867 270.820629 
L 341.495711 270.741933 
L 341.703087 269.189012 
L 341.924819 268.077242 
L 342.088435 268.290496 
L 342.201954 267.358922 
L 342.259775 267.836281 
L 342.432402 266.691747 
L 342.982853 269.400746 
L 343.153186 269.221906 
L 343.259925 270.170431 
L 343.394389 269.463369 
L 343.579992 269.839962 
L 343.747115 270.562145 
L 343.876443 271.665819 
L 344.118654 269.750926 
L 344.255435 269.52446 
L 344.428421 268.832294 
L 344.56559 270.087061 
L 344.668223 268.804386 
L 344.80382 269.533651 
L 345.011274 269.294992 
L 345.118188 270.111083 
L 345.280836 269.453718 
L 345.389338 269.984678 
L 345.663471 269.724035 
L 345.801362 271.708592 
L 345.93873 269.842762 
L 346.088612 270.558366 
L 346.385718 270.341959 
L 346.667832 268.244254 
L 346.953481 268.314562 
L 347.092623 268.944783 
L 347.355371 266.730465 
L 347.520083 267.395264 
L 347.725484 266.143976 
L 347.897812 266.305362 
L 347.995389 265.88441 
L 348.034965 268.387508 
L 348.104224 268.085004 
L 348.241963 267.912055 
L 348.415274 268.38352 
L 348.516244 270.248588 
L 348.688619 269.775328 
L 348.792062 268.570093 
L 348.963311 267.880903 
L 349.204604 270.036567 
L 349.376775 268.748609 
L 349.755374 268.777103 
L 349.892717 268.500562 
L 350.078666 268.907954 
L 350.41098 272.954756 
L 350.650339 268.732081 
L 350.784583 269.534706 
L 350.92218 269.22337 
L 351.061287 269.273849 
L 351.23203 268.910602 
L 351.406865 268.876652 
L 351.506425 267.77189 
L 351.642798 268.606537 
L 351.888327 268.528311 
L 352.15975 269.096788 
L 352.330226 268.19185 
L 352.440341 268.50784 
L 352.606606 268.224472 
L 352.781827 267.183738 
L 352.918642 267.845483 
L 353.194114 266.516056 
L 353.533339 267.734682 
L 353.847781 269.088885 
L 353.946363 269.497058 
L 354.185657 269.608471 
L 354.294079 270.349067 
L 354.356526 268.767358 
L 354.493674 268.183121 
L 354.665542 269.152193 
L 354.77566 270.676157 
L 355.031165 270.516221 
L 355.186912 268.319018 
L 355.39094 268.545328 
L 355.63378 267.293576 
L 355.771037 268.776747 
L 355.943774 269.14979 
L 356.183341 266.810798 
L 356.325406 267.303933 
L 356.597617 266.610392 
L 356.747701 265.094667 
L 357.045016 266.998542 
L 357.199908 266.623907 
L 357.322201 267.119044 
L 357.595743 268.581758 
L 357.734507 267.574051 
L 358.178282 271.494491 
L 358.316297 270.085904 
L 358.453093 270.227104 
L 358.625023 268.178521 
L 358.72827 268.354199 
L 358.876788 267.321663 
L 359.039927 267.463102 
L 359.222506 268.467671 
L 359.344387 267.590676 
L 359.448066 268.78603 
L 359.724219 268.568487 
L 359.756355 270.13904 
L 359.894683 270.373922 
L 360.067122 271.920013 
L 360.274254 271.384342 
L 360.312017 272.09597 
L 361.33754 266.942572 
L 361.484838 267.616266 
L 361.612287 267.605367 
L 362.166145 269.704033 
L 362.338452 269.932537 
L 362.441417 269.778438 
L 362.578906 270.655306 
L 362.887103 270.396556 
L 363.05904 271.286127 
L 363.200427 270.424006 
L 363.309443 270.506553 
L 363.544695 270.020294 
L 363.715691 270.553204 
L 363.85154 271.645195 
L 364.22991 270.903025 
L 364.264521 270.060045 
L 364.434876 270.520111 
L 364.714393 269.996116 
L 364.848873 271.057037 
L 364.983665 269.850958 
L 365.163401 269.47473 
L 365.258788 268.743802 
L 365.403413 270.435275 
L 365.574536 270.40972 
L 365.741267 270.973736 
L 365.843935 270.466624 
L 366.014912 271.318147 
L 366.325968 269.973498 
L 366.570244 270.103779 
L 366.702941 270.851575 
L 366.840349 270.136122 
L 367.046039 269.856579 
L 367.290929 269.43186 
L 367.733131 269.137441 
L 367.835796 269.510193 
L 367.976048 270.786651 
L 368.111921 269.962381 
L 368.42089 269.752874 
L 368.556924 269.862993 
L 368.832802 268.264082 
L 369.284847 270.352441 
L 369.622964 270.235884 
L 369.830195 268.922866 
L 370.003616 270.391055 
L 370.173874 270.30728 
L 370.275561 269.85796 
L 370.552718 269.711554 
L 370.824004 268.135359 
L 371.099575 270.735982 
L 371.34312 271.030463 
L 371.40867 269.134789 
L 371.6699 271.797625 
L 371.959201 271.067232 
L 372.131368 272.895649 
L 372.233726 272.649562 
L 372.388157 271.485122 
L 372.507392 271.467696 
L 372.798412 270.902599 
L 372.955012 269.851445 
L 373.091434 270.073812 
L 373.331662 269.9757 
L 373.643662 268.752637 
L 373.785385 269.430618 
L 373.951917 269.615908 
L 374.262642 271.738141 
L 374.388087 271.765971 
L 374.675624 270.918433 
L 374.781447 271.894433 
L 374.948383 271.552073 
L 375.066088 270.966707 
L 375.223791 271.965996 
L 375.498499 269.393824 
L 375.670054 269.873906 
L 376.023845 271.581209 
L 376.18617 271.992403 
L 376.219702 270.497838 
L 376.358847 271.268374 
L 376.495341 271.079666 
L 376.632174 269.598221 
L 376.770415 270.735004 
L 376.907051 270.848235 
L 377.055056 270.370741 
L 377.217719 268.880206 
L 377.354644 269.117244 
L 377.493835 268.615427 
L 377.711143 271.009977 
L 377.80127 269.385602 
L 377.94293 270.100145 
L 378.154727 270.560963 
L 378.453179 269.57318 
L 378.495596 270.416272 
L 378.801878 271.288202 
L 379.040319 270.147432 
L 379.210445 271.947569 
L 379.348707 271.546894 
L 379.520318 271.780467 
L 379.627985 271.560949 
L 379.762132 272.043458 
L 380.104358 270.634334 
L 380.244963 271.389674 
L 380.623071 268.940743 
L 380.829456 268.749873 
L 381.034556 270.070018 
L 381.350942 271.58336 
L 381.48962 271.164253 
L 381.659136 269.768604 
L 381.761495 271.644911 
L 382.03316 272.466117 
L 382.067146 271.782169 
L 382.193404 271.759576 
L 382.452787 271.298053 
L 382.759189 267.547848 
L 383.04374 270.153546 
L 383.319479 267.253437 
L 383.492947 265.532148 
L 383.596673 266.669798 
L 383.781853 265.40521 
L 383.905274 265.924168 
L 384.177564 268.000524 
L 384.555704 265.382975 
L 384.589642 267.183799 
L 384.899382 270.915286 
L 385.005409 269.958465 
L 385.314208 271.582934 
L 385.461572 271.206413 
L 385.600057 270.224746 
L 385.725356 270.956084 
L 385.898754 271.255546 
L 386.173924 268.64136 
L 386.622594 270.932538 
L 386.796377 269.408044 
L 386.89954 269.6315 
L 387.311631 268.370496 
L 387.346692 271.263595 
L 387.451795 268.522298 
L 387.589188 268.806016 
L 387.730714 267.097141 
L 387.862003 267.013943 
L 388.039793 267.048935 
L 388.143873 268.284529 
L 388.307415 266.602215 
L 388.413599 266.850054 
L 388.446631 267.966651 
L 388.585188 267.716132 
L 388.864026 269.66015 
L 389.012405 269.657011 
L 389.138278 271.588823 
L 389.31057 271.006024 
L 389.567716 267.400517 
L 389.584617 269.135845 
L 389.860015 271.185028 
L 390.000294 270.702758 
L 390.137371 270.92992 
L 390.273611 270.12618 
L 390.49029 270.782112 
L 390.584804 269.098097 
L 390.755875 269.529696 
L 390.997899 271.757351 
L 391.35606 271.017008 
L 391.382191 269.961261 
L 391.422438 271.725664 
L 391.552567 270.087339 
L 391.695689 270.140839 
L 391.83293 269.373676 
L 391.971887 269.807212 
L 392.107274 269.536621 
L 392.278346 269.889787 
L 392.554185 268.305868 
L 392.691957 268.185705 
L 393.069528 269.963091 
L 393.137352 269.912145 
L 393.419098 270.071365 
L 393.686839 268.330613 
L 393.861291 269.017716 
L 393.962299 270.167744 
L 394.272794 268.336412 
L 394.409796 268.500855 
L 394.617227 268.890437 
L 394.692923 269.405933 
L 394.822671 268.560677 
L 394.95882 269.744476 
L 395.274594 269.636745 
L 395.406415 268.984476 
L 395.58022 269.535293 
L 395.801819 268.973097 
L 395.956055 267.284471 
L 396.238864 268.000302 
L 396.378439 267.668093 
L 396.577354 268.088265 
L 396.883167 266.518542 
L 397.40186 270.623217 
L 397.50664 270.712957 
L 397.838608 271.808252 
L 397.988689 271.766823 
L 398.158029 272.091276 
L 398.23097 273.313372 
L 398.471265 272.157526 
L 398.51723 271.129623 
L 398.680174 270.428227 
L 398.879999 270.845863 
L 399.087616 270.27411 
L 399.228123 269.881617 
L 399.363618 269.024072 
L 399.503597 269.696934 
L 399.969297 268.765176 
L 400.153499 269.250061 
L 400.222187 267.679255 
L 400.363432 268.257991 
L 400.529019 267.572891 
L 400.632978 267.753968 
L 400.801334 268.394845 
L 401.081773 267.107887 
L 401.109727 270.738199 
L 401.249775 267.606527 
L 401.491813 267.809089 
L 401.625116 267.018937 
L 401.663604 268.857432 
L 401.800486 268.55291 
L 401.941575 270.810781 
L 402.072545 270.967573 
L 402.24354 269.746358 
L 402.725714 271.207003 
L 403.001057 270.778807 
L 403.069599 271.411627 
L 403.206947 271.610539 
L 403.484175 269.507125 
L 404.067728 271.07223 
L 404.411923 273.183 
L 404.483543 271.780992 
L 404.622246 272.029174 
L 404.823733 271.855012 
L 405.063762 272.057522 
L 405.27048 271.659191 
L 405.896668 268.533508 
L 406.011651 269.252603 
L 406.072825 268.98679 
L 406.238906 269.13042 
L 406.342195 269.028886 
L 406.479578 269.779794 
L 406.618437 268.511281 
L 406.823381 269.162106 
L 406.961405 268.435211 
L 407.338754 270.676195 
L 407.626734 269.319936 
L 407.753134 270.089031 
L 408.059974 270.348662 
L 408.168885 271.702948 
L 408.197435 270.473822 
L 408.339076 270.830012 
L 408.471824 271.871571 
L 408.888863 270.464967 
L 409.093206 268.432319 
L 409.299161 268.57591 
L 409.519204 266.894986 
L 409.775206 269.342474 
L 409.79433 268.979943 
L 409.902724 268.69333 
L 410.276902 269.710103 
L 410.345404 270.443855 
L 410.482353 270.322119 
L 410.586457 269.427531 
L 410.727612 270.517293 
L 411.031946 270.324482 
L 411.186608 269.174818 
L 411.305956 269.339643 
L 411.581611 268.859541 
L 412.028365 270.892916 
L 412.164696 270.820032 
L 412.307063 271.546106 
L 412.616459 270.502341 
L 412.721292 270.214319 
L 412.856518 269.259011 
L 413.303773 270.070669 
L 413.579402 269.18049 
L 413.715931 267.437646 
L 413.887624 268.631287 
L 414.001323 271.190373 
L 414.030937 269.966931 
L 414.1648 270.131015 
L 414.299777 271.64163 
L 414.578045 271.526512 
L 414.764977 271.70396 
L 414.922879 271.464099 
L 415.102644 270.736311 
L 415.126621 270.065403 
L 415.165404 271.25683 
L 415.43948 271.378164 
L 415.575664 271.999427 
L 415.850037 271.03306 
L 416.159787 271.619678 
L 416.29447 272.273032 
L 416.440124 273.601821 
L 416.639106 273.713327 
L 416.880907 271.682363 
L 417.086421 271.637226 
L 417.261171 270.083972 
L 417.398899 270.473177 
L 417.567155 271.512634 
L 417.842903 271.302351 
L 417.980487 270.40833 
L 418.150317 271.452252 
L 418.425561 270.908286 
L 418.645203 271.426298 
L 418.95376 270.068721 
L 418.976378 268.95344 
L 419.115989 268.745666 
L 419.28515 269.142347 
L 419.389194 270.827069 
L 419.56186 271.122211 
L 419.698527 270.58728 
L 419.83689 271.482705 
L 420.006702 271.072162 
L 420.247092 273.466293 
L 420.420767 272.326404 
L 420.693029 272.639766 
L 420.774203 274.390695 
L 420.832385 273.771758 
L 421.003571 273.032104 
L 421.112158 273.110447 
L 421.248676 272.558886 
L 421.416127 273.178059 
L 421.553064 272.763287 
L 421.689191 271.731142 
L 421.827414 272.433872 
L 421.966547 272.206804 
L 422.242882 269.500912 
L 422.376155 269.8553 
L 422.597029 271.244495 
L 422.852541 272.125024 
L 422.865293 270.62191 
L 422.9678 272.257964 
L 423.242934 272.823992 
L 423.383585 273.199848 
L 423.520674 274.276144 
L 423.659537 273.853346 
L 423.88168 273.845945 
L 424.076705 273.246699 
L 424.243683 273.038117 
L 424.380279 272.291232 
L 424.556409 272.712142 
L 424.658779 271.742732 
L 424.79686 271.533637 
L 424.967553 271.819814 
L 425.103549 271.595308 
L 425.344986 272.655756 
L 425.551297 271.76611 
L 425.698784 271.886992 
L 425.968749 270.095887 
L 426.068279 271.997254 
L 426.20518 272.325267 
L 426.346827 273.201997 
L 426.514903 272.928935 
L 426.651405 271.846773 
L 426.822237 272.0164 
L 426.974415 271.786587 
L 427.208555 273.304314 
L 427.376286 273.890725 
L 427.684353 273.52632 
L 427.787192 271.948818 
L 427.922383 272.716237 
L 428.094196 274.70372 
L 428.471627 273.863744 
L 428.685372 273.687009 
L 429.102949 271.986774 
L 429.302977 272.741788 
L 429.508775 271.723048 
L 429.989401 272.542706 
L 430.059315 273.124013 
L 430.229962 273.182486 
L 430.332851 273.967769 
L 430.47208 273.445672 
L 430.607971 273.682319 
L 430.881254 273.599371 
L 430.985107 272.445088 
L 431.05343 272.687313 
L 431.352458 270.576218 
L 431.470526 270.31835 
L 431.638638 270.3976 
L 431.764912 270.814728 
L 432.05031 272.936566 
L 432.189259 272.863605 
L 432.32874 273.951822 
L 432.670193 273.230276 
L 432.775161 273.153823 
L 432.879707 273.825732 
L 432.911199 273.208219 
L 433.047418 274.623323 
L 433.185473 274.285556 
L 433.327568 272.794395 
L 433.505493 272.394252 
L 433.776964 271.108805 
L 433.806724 270.213258 
L 434.022015 270.949133 
L 434.323757 270.763287 
L 434.504336 269.969985 
L 434.786703 271.479482 
L 434.923325 271.277987 
L 435.029233 272.507991 
L 435.301454 271.250626 
L 435.47713 271.292173 
L 435.611024 270.700154 
L 435.900944 270.737686 
L 436.035307 269.843408 
L 436.270255 270.443736 
L 436.298011 270.356642 
L 436.435343 270.020879 
L 436.64214 270.15131 
L 437.057047 272.231412 
L 437.161152 271.15487 
L 437.439154 271.827507 
L 437.674977 269.364959 
L 437.746309 269.893371 
L 438.155175 268.375684 
L 438.267877 268.461586 
L 438.294222 266.386639 
L 438.57505 267.844124 
L 438.849507 267.194425 
L 439.016001 268.129728 
L 439.156927 268.21488 
L 439.427338 271.626469 
L 439.739164 270.621729 
L 439.876317 269.940744 
L 440.164885 270.004164 
L 440.286717 270.42316 
L 440.434018 270.305718 
L 440.633263 268.615181 
L 440.850857 266.24915 
L 441.054984 267.056068 
L 441.284559 269.234761 
L 441.421455 268.029207 
L 441.559614 268.258867 
L 442.144513 270.732798 
L 442.318297 270.542967 
L 442.556474 268.790514 
L 442.734797 267.736457 
L 442.866665 268.992604 
L 442.898164 268.094901 
L 443.003252 268.834864 
L 443.105501 268.68627 
L 443.277105 267.921099 
L 443.58732 268.945152 
L 443.689969 268.879168 
L 443.965128 270.785396 
L 444.136114 272.000707 
L 444.409424 270.718993 
L 444.547845 271.112572 
L 444.685829 272.133557 
L 444.960373 270.72368 
L 445.21086 270.37275 
L 445.268723 270.570248 
L 445.409034 270.189858 
L 445.72889 268.331815 
L 445.920344 268.867222 
L 446.096063 267.289339 
L 446.26587 268.239073 
L 446.401806 268.135702 
L 446.676895 266.597449 
L 446.823498 267.768065 
L 446.989945 267.374552 
L 447.303192 267.953256 
L 447.4083 268.986523 
L 447.680814 267.693059 
L 447.922638 267.837014 
L 448.130394 268.792166 
L 448.374182 267.900736 
L 448.543832 267.910941 
L 448.691241 268.439819 
L 448.850555 267.3462 
L 448.954965 267.545883 
L 449.092321 268.461838 
L 449.368772 267.971656 
L 449.437336 268.504979 
L 449.539673 268.385498 
L 449.780325 268.862559 
L 449.985743 270.569605 
L 450.192816 271.079058 
L 450.231397 270.968442 
L 450.513003 272.548897 
L 450.644413 272.360861 
L 450.810839 271.824372 
L 450.948356 271.95903 
L 451.085681 271.522215 
L 451.225901 271.590463 
L 451.363822 272.013609 
L 451.535215 271.550468 
L 451.638078 272.841079 
L 451.976572 270.769217 
L 452.226987 272.104657 
L 452.765833 268.77973 
L 453.116117 265.794483 
L 453.245941 266.569408 
L 453.664873 265.096934 
L 453.932451 266.011415 
L 454.354037 268.539172 
L 454.516724 267.938267 
L 454.654496 267.944936 
L 454.900704 269.409212 
L 455.068503 270.245805 
L 455.205743 269.754327 
L 455.343708 271.183713 
L 455.48282 270.587174 
L 455.719936 270.640084 
L 455.789508 270.095008 
L 456.098174 271.033422 
L 456.338507 269.179314 
L 456.536056 269.474655 
L 456.616133 269.288453 
L 456.762324 269.3811 
L 456.981579 268.855165 
L 457.05282 268.941443 
L 457.083639 270.887831 
L 457.484976 271.960139 
L 457.606862 273.157213 
L 457.779763 273.440394 
L 458.225101 270.340008 
L 458.331389 270.79404 
L 458.536268 269.248679 
L 458.609354 268.561123 
L 458.983181 267.228155 
L 459.049807 266.565877 
L 459.189074 267.609106 
L 459.323915 266.713009 
L 459.462589 268.089432 
L 459.601013 268.184291 
L 459.879688 268.679846 
L 460.187812 270.61878 
L 460.321651 269.996833 
L 460.462312 270.440875 
L 460.595012 269.548152 
L 460.735854 269.556133 
L 460.872281 269.252481 
L 461.041286 269.71731 
L 461.181358 268.999308 
L 461.317493 268.900318 
L 461.453932 269.070671 
L 461.591738 268.947025 
L 461.879188 269.417881 
L 462.004878 268.565743 
L 462.181429 268.585812 
L 462.312557 269.897966 
L 462.452672 269.627293 
L 462.589006 269.861921 
L 462.72608 269.393997 
L 462.862587 268.453904 
L 463.010375 269.137208 
L 463.276627 268.889883 
L 463.584466 270.715037 
L 463.720647 269.969591 
L 463.858676 270.484826 
L 463.999224 270.059906 
L 464.272785 270.326432 
L 464.443305 268.911945 
L 464.583718 269.221997 
L 464.722238 269.089764 
L 464.854979 269.337325 
L 464.993696 268.877198 
L 465.131078 268.999756 
L 465.272145 268.892445 
L 465.408202 269.415447 
L 465.58185 268.457597 
L 465.717145 268.429125 
L 465.859295 269.640064 
L 465.996733 269.811638 
L 466.308383 268.450718 
L 466.336986 271.34936 
L 466.474583 269.043101 
L 466.684026 268.741164 
L 467.025459 268.03946 
L 467.129259 269.014012 
L 467.487061 267.663248 
L 467.54871 268.737727 
L 467.71272 269.147528 
L 467.850368 268.918333 
L 467.989101 269.215501 
L 468.422696 268.5814 
L 468.435121 267.3488 
L 468.57066 269.734335 
L 468.750213 267.720669 
L 468.924057 267.386011 
L 469.053996 266.580819 
L 469.120782 266.862518 
L 469.258128 266.604268 
L 469.394286 266.796757 
L 469.565643 268.121049 
L 469.670629 268.006266 
L 469.979797 268.932856 
L 470.115727 272.052548 
L 470.288682 272.502803 
L 470.391743 271.716456 
L 470.531616 271.793606 
L 470.768631 272.389927 
L 471.009547 271.772454 
L 471.218456 273.352979 
L 471.354878 274.789096 
L 471.524093 273.149811 
L 471.664322 273.324687 
L 471.833477 273.715018 
L 472.005217 273.764601 
L 472.109027 272.822153 
L 472.35442 273.939964 
L 472.540881 270.300233 
L 472.660909 270.379995 
L 473.359368 267.892147 
L 473.520413 266.840308 
L 473.763217 265.072483 
L 473.8298 266.378286 
L 473.980336 266.842175 
L 474.244398 265.639549 
L 474.429024 265.836858 
L 474.55169 266.518582 
L 474.727352 266.710179 
L 474.792524 266.450052 
L 475.034938 267.66977 
L 475.070962 269.52053 
L 475.376843 268.564373 
L 475.513639 268.667328 
L 475.653399 270.308692 
L 475.831622 270.154643 
L 476.099056 269.42875 
L 476.203182 271.032686 
L 476.786553 267.999992 
L 476.959176 267.805896 
L 477.107177 265.878759 
L 477.474837 267.16741 
L 477.61433 267.29869 
L 477.782813 265.93792 
L 477.819571 266.220174 
L 478.229159 267.917227 
L 478.504148 269.055251 
L 478.663482 269.182218 
L 479.020731 271.641114 
L 479.092416 273.404894 
L 479.194888 273.251129 
L 479.501034 274.7662 
L 479.639121 273.97025 
L 479.879127 273.753972 
L 479.948654 274.362269 
L 480.18848 271.641293 
L 480.671041 268.480672 
L 480.773545 268.377383 
L 480.9111 267.587225 
L 481.776754 272.615355 
L 481.983164 272.411137 
L 482.049686 272.566598 
L 482.222746 271.13891 
L 482.426972 271.719326 
L 482.606383 270.747757 
L 482.632944 268.884027 
L 482.771667 267.343114 
L 482.948229 266.799355 
L 483.148744 266.689286 
L 483.189691 266.105952 
L 483.32359 268.800807 
L 483.460548 268.915367 
L 483.905983 270.436286 
L 484.181887 272.122355 
L 484.334142 273.620855 
L 484.730984 272.075977 
L 484.941155 272.241173 
L 485.179229 274.091127 
L 485.454339 273.702688 
L 485.486545 274.000083 
L 485.590474 272.950305 
L 485.729782 274.29899 
L 485.865239 274.242967 
L 486.032854 275.729771 
L 486.168779 274.706132 
L 486.309178 274.49958 
L 486.453119 273.884858 
L 486.582335 273.847025 
L 486.889453 271.024707 
L 487.025919 272.422957 
L 487.163737 271.783779 
L 487.300108 272.184536 
L 487.439799 270.287908 
L 487.574449 272.059062 
L 487.857773 271.359716 
L 488.020548 269.80292 
L 488.157915 270.213037 
L 488.295507 271.278194 
L 488.569553 267.525563 
L 488.708565 267.446382 
L 488.847602 268.085765 
L 488.990188 266.489979 
L 489.156424 266.345839 
L 489.429082 267.202491 
L 489.704324 266.899018 
L 489.846532 267.654157 
L 490.151441 267.090475 
L 490.288345 268.394345 
L 490.426978 268.097778 
L 490.843284 269.344441 
L 491.194447 268.544434 
L 491.697584 270.443855 
L 491.835397 269.920204 
L 491.975336 270.539339 
L 492.00796 266.887053 
L 492.145345 269.09435 
L 492.316313 269.450356 
L 492.420262 270.290273 
L 492.5576 270.477232 
L 492.766583 271.061853 
L 492.976321 269.466407 
L 493.140772 268.530458 
L 493.308623 268.290616 
L 493.521087 268.235512 
L 493.622838 268.944844 
L 493.898641 268.138562 
L 493.999976 268.868939 
L 494.13767 267.916075 
L 494.274146 267.890718 
L 494.380513 267.321441 
L 494.558405 267.699491 
L 494.826152 269.77907 
L 495.496816 271.472064 
L 495.563886 272.704727 
L 495.736471 272.306665 
L 495.977158 273.400832 
L 496.974041 267.775755 
L 497.660414 272.162343 
L 497.830872 271.522666 
L 498.725107 275.241876 
L 498.966044 271.802575 
L 499.105312 271.510468 
L 499.272991 272.046248 
L 499.381987 271.407757 
L 499.721835 271.02845 
L 499.824432 270.748709 
L 499.963661 271.514515 
L 500.137636 270.328295 
L 500.251679 270.814028 
L 500.372596 270.476069 
L 500.524841 270.651802 
L 500.66486 269.672844 
L 500.872026 270.942939 
L 501.385666 266.19244 
L 501.665891 267.993861 
L 501.799104 268.992709 
L 502.008079 268.362071 
L 502.150252 269.708466 
L 502.24706 268.496733 
L 502.934037 272.143595 
L 503.010037 271.92706 
L 503.208946 268.77761 
L 503.41887 268.690192 
L 503.519385 268.496805 
L 503.65886 270.203027 
L 503.796308 269.362331 
L 504.007322 270.527613 
L 504.103049 269.101883 
L 504.359536 268.859546 
L 504.622043 270.427878 
L 504.863479 271.172108 
L 504.950767 270.209951 
L 505.176929 270.470528 
L 505.263528 270.827096 
L 505.486146 270.522221 
L 505.63261 270.798259 
L 505.894679 269.941729 
L 505.928916 270.40719 
L 506.169015 270.122895 
L 506.256718 270.357714 
L 506.341303 271.250881 
L 506.481667 270.20945 
L 506.620973 270.580887 
L 506.790334 269.38879 
L 506.965438 272.01905 
L 507.066556 271.01236 
L 507.186096 271.540183 
L 507.346712 271.25517 
L 507.628205 272.649677 
L 507.788232 270.86626 
L 507.966788 271.854795 
L 508.068345 271.203328 
L 508.200898 271.871315 
L 508.35168 270.341261 
L 508.645703 271.210759 
L 508.806268 270.495795 
L 508.944181 269.365628 
L 509.206327 271.954067 
L 509.342026 270.130578 
L 509.618764 271.098081 
L 509.786147 271.59644 
L 510.372234 270.381702 
L 510.646968 268.706394 
L 510.852911 268.442799 
L 510.920773 268.744913 
L 511.027071 270.117601 
L 511.269773 268.497962 
L 511.336413 269.279172 
L 511.78179 271.233518 
L 511.883356 272.636666 
L 512.192768 273.424342 
L 512.434162 272.982468 
L 512.611313 271.356697 
L 512.709645 271.708988 
L 513.052244 269.83808 
L 513.300281 267.477515 
L 513.433393 266.537886 
L 513.570139 266.806652 
L 513.602604 267.7984 
L 513.919286 266.499127 
L 514.018123 266.957917 
L 514.188275 266.142944 
L 514.32662 266.072496 
L 514.635183 268.703056 
L 514.771992 269.341703 
L 514.882178 270.673985 
L 515.049789 271.087294 
L 515.195388 270.83631 
L 515.362131 270.885963 
L 515.562659 269.717696 
L 515.905273 271.606641 
L 516.215085 271.56295 
L 516.526831 269.037764 
L 516.672324 268.701262 
L 516.834464 269.003222 
L 517.142045 269.087324 
L 517.28143 268.782671 
L 517.467933 268.764792 
L 517.702094 270.294315 
L 517.86595 270.489941 
L 518.140032 272.061216 
L 518.278406 272.404235 
L 518.416515 273.362986 
L 518.851979 273.34767 
L 518.867079 274.384159 
L 519.13648 272.822752 
L 519.354556 272.555964 
L 519.416459 271.335205 
L 519.550019 271.74406 
L 519.686491 271.781474 
L 519.85876 270.44926 
L 519.966109 270.799971 
L 520.137684 270.272189 
L 520.270376 270.957937 
L 520.408702 270.408001 
L 520.545705 270.487065 
L 520.688769 269.714121 
L 520.823251 270.865463 
L 520.959947 270.576943 
L 521.135756 271.008108 
L 521.404477 270.779841 
L 521.516754 269.963599 
L 521.542497 270.098572 
L 521.611925 270.156187 
L 521.852404 268.247855 
L 522.024423 269.26367 
L 522.126188 269.230976 
L 522.298206 269.757287 
L 522.401892 268.468556 
L 522.543627 268.132337 
L 522.812584 268.414657 
L 522.847852 268.252909 
L 522.985388 268.635689 
L 523.156666 267.882191 
L 523.263898 268.52147 
L 523.408081 266.873194 
L 523.545258 266.713252 
L 523.723882 265.774595 
L 523.890971 266.156077 
L 523.99693 265.79781 
L 524.099201 266.859584 
L 524.269927 266.929375 
L 524.645563 268.010291 
L 524.752001 267.807742 
L 524.821528 269.057893 
L 525.441792 271.231818 
L 525.545188 270.312559 
L 525.759724 270.299463 
L 525.954989 270.518666 
L 526.145565 270.544684 
L 526.263902 270.135879 
L 526.402971 270.382566 
L 526.79155 268.534209 
L 527.064734 268.230942 
L 527.208462 268.551743 
L 527.243433 269.309043 
L 527.441918 269.197662 
L 527.648451 270.278068 
L 527.94194 269.892335 
L 528.060962 270.156618 
L 528.094249 271.233655 
L 528.235421 270.109918 
L 528.394073 270.985754 
L 528.65322 268.845101 
L 528.996594 268.568523 
L 529.24512 267.851565 
L 529.369992 268.311648 
L 529.541458 267.809521 
L 529.679629 268.776387 
L 529.819806 267.461723 
L 529.925357 268.738837 
L 530.092905 268.930269 
L 530.314889 268.144726 
L 530.370066 268.569985 
L 530.511164 268.553359 
L 530.816746 270.691624 
L 531.055235 271.145711 
L 531.194248 270.111412 
L 531.266204 271.240603 
L 531.502965 269.185804 
L 531.673209 269.497085 
L 531.937778 268.42074 
L 532.156569 267.268672 
L 532.223634 267.592942 
L 532.325874 267.328418 
L 532.500039 268.572406 
L 532.636162 268.675213 
L 533.050216 271.605543 
L 533.355638 270.625038 
L 533.528017 269.567008 
L 533.632532 269.633768 
L 533.816198 269.323575 
L 533.964038 270.020753 
L 533.976761 268.352815 
L 534.079902 268.544608 
L 534.191967 268.972987 
L 534.355286 268.323089 
L 534.57047 268.299291 
L 534.909544 270.559415 
L 535.047079 270.56112 
L 535.179091 270.404573 
L 535.315272 269.401107 
L 535.556654 270.158059 
L 535.663811 268.568674 
L 535.899335 269.815313 
L 536.037082 268.41548 
L 536.277453 268.486223 
L 536.312459 269.422442 
L 536.454755 268.993848 
L 536.656075 269.046354 
L 536.80397 270.21265 
L 536.914006 270.062342 
L 537.045558 270.558793 
L 537.196618 269.866401 
L 537.310628 269.930612 
L 537.461088 270.978895 
L 537.654215 271.08889 
L 537.759619 271.597643 
L 537.897726 271.491913 
L 538.031168 272.013881 
L 538.23781 271.555917 
L 538.384947 271.799971 
L 538.580866 273.248809 
L 538.761116 272.710616 
L 538.890908 272.95162 
L 539.01222 274.5663 
L 539.302681 273.293356 
L 539.507934 273.289877 
L 539.781935 273.848006 
L 539.954464 274.032427 
L 540.024606 272.623527 
L 540.161196 272.920413 
L 540.436317 270.361852 
L 540.60856 270.717462 
L 540.727935 269.785802 
L 540.883368 269.481255 
L 541.020552 268.563674 
L 541.158525 269.408823 
L 541.294996 269.034553 
L 541.432934 269.231518 
L 541.574619 268.594934 
L 541.776627 269.715659 
L 541.880812 269.267961 
L 542.125103 269.634305 
L 542.285872 269.671971 
L 542.401782 269.395456 
L 542.601403 267.48838 
L 542.825883 267.438853 
L 542.982045 268.890275 
L 543.151809 268.6435 
L 543.323347 267.393134 
L 543.426373 268.885998 
L 543.564535 269.006225 
L 543.839417 270.744571 
L 544.011492 270.932104 
L 544.115178 269.547241 
L 544.287829 270.000223 
L 544.493363 271.162549 
L 544.633722 270.907905 
L 544.706435 271.454591 
L 544.939952 271.554095 
L 545.042649 272.704694 
L 545.146085 271.997096 
L 545.321624 272.222 
L 545.454485 271.987131 
L 545.563932 272.531071 
L 545.904745 270.631221 
L 545.972595 270.750637 
L 546.314475 269.516877 
L 546.417011 269.083386 
L 546.691622 269.150257 
L 546.971601 270.480735 
L 547.284923 269.27307 
L 547.485351 269.511653 
L 547.619239 270.334148 
L 547.756626 270.367591 
L 547.894643 268.899228 
L 547.99764 268.936196 
L 548.134898 269.236561 
L 548.68467 274.64465 
L 548.936529 275.386277 
L 548.95976 276.023255 
L 549.102328 275.842539 
L 549.248454 277.92 
L 549.544214 277.283495 
L 549.683689 274.944508 
L 550.438009 271.940443 
L 550.540127 271.762038 
L 550.856087 270.273518 
L 550.954447 270.66374 
L 551.089575 270.580204 
L 551.41708 268.103013 
L 551.675479 268.170618 
L 551.81156 268.575316 
L 551.98427 268.6469 
L 552.086606 268.8609 
L 552.257806 268.646682 
L 553.099418 272.731872 
L 553.236513 271.751945 
L 553.381913 271.878449 
L 553.514247 271.718443 
L 553.720735 272.568879 
L 553.826518 271.236803 
L 554.001016 271.426715 
L 554.081827 270.122979 
L 554.376514 270.654205 
L 554.514485 269.681191 
L 555.373999 274.127816 
L 555.481138 274.241114 
L 555.648854 272.608495 
L 555.792366 272.715044 
L 556.643588 269.935004 
L 556.785466 269.994825 
L 556.919986 270.216863 
L 557.062329 270.710665 
L 557.200907 269.780667 
L 557.341813 269.92884 
L 557.506863 270.748259 
L 557.643623 270.17932 
L 557.916716 270.038215 
L 558.056687 270.416589 
L 558.226857 269.198196 
L 558.329763 269.812873 
L 558.472108 271.635873 
L 558.608517 270.726957 
L 558.777321 271.438949 
L 558.922104 270.298259 
L 559.242735 270.17234 
L 559.51634 268.086963 
L 559.765605 268.954618 
L 559.915136 267.323286 
L 560.058776 268.495435 
L 560.32762 267.609494 
L 560.465548 266.962311 
L 560.602063 267.039816 
L 560.742278 268.423321 
L 560.89031 267.841085 
L 561.017778 268.170502 
L 561.164402 267.321064 
L 561.600022 269.692506 
L 561.634219 271.947121 
L 561.739068 270.127178 
L 562.041663 271.101919 
L 562.186612 270.782769 
L 562.323371 272.655075 
L 562.63278 271.319181 
L 562.768551 272.169371 
L 562.872141 271.49608 
L 563.318843 270.419181 
L 563.423785 271.123639 
L 563.59485 270.899399 
L 563.834017 270.068821 
L 563.95064 270.66519 
L 564.210771 270.164769 
L 564.356391 271.411924 
L 564.727444 272.291253 
L 564.796109 271.990579 
L 564.898705 270.997696 
L 565.173212 271.932677 
L 565.282233 271.501178 
L 565.454063 272.284097 
L 565.62065 271.589384 
L 565.897978 269.012557 
L 566.06384 268.580597 
L 566.275672 269.948679 
L 566.582202 270.502169 
L 566.858981 269.687875 
L 567.165913 271.732685 
L 567.336157 271.067514 
L 567.446352 272.681132 
L 567.544347 272.030811 
L 567.771695 271.939942 
L 568.039409 269.940484 
L 568.198822 270.441068 
L 568.33769 271.809829 
L 568.472566 270.627677 
L 568.610638 270.524688 
L 568.821516 271.579356 
L 568.986743 269.977783 
L 569.295428 271.903546 
L 569.433882 271.093372 
L 569.578974 271.735662 
L 569.709142 270.075703 
L 569.846359 270.434724 
L 570.032655 270.18586 
L 570.059014 267.755327 
L 570.261147 271.266058 
L 570.53615 270.641992 
L 570.718817 270.455011 
L 570.844105 271.539846 
L 571.188202 271.631633 
L 571.298614 272.18081 
L 571.494718 272.57444 
L 571.574272 271.386063 
L 571.719319 272.956228 
L 571.839596 271.462926 
L 572.044935 273.355077 
L 572.113073 272.617926 
L 572.252469 272.568948 
L 572.56284 272.115849 
L 572.701307 273.427096 
L 572.905487 272.05455 
L 573.007333 272.813467 
L 573.122783 271.556814 
L 573.249842 272.292426 
L 573.418316 270.808247 
L 573.560302 270.880806 
L 573.80144 270.720375 
L 574.11166 269.257534 
L 574.242972 270.335312 
L 574.518866 268.109868 
L 574.965324 265.778085 
L 575.279786 266.76577 
L 575.58456 266.165934 
L 575.722534 265.20223 
L 576.219818 268.755693 
L 576.558057 269.45986 
L 577.088963 267.383887 
L 577.341428 267.443373 
L 577.374045 270.81459 
L 577.406644 268.431714 
L 577.546752 267.805345 
L 577.653725 268.325839 
L 577.819351 269.927554 
L 578.025571 270.177861 
L 578.163235 270.832675 
L 578.373547 273.281728 
L 578.508637 274.771929 
L 579.090898 271.260243 
L 579.366089 268.858053 
L 579.605735 267.702003 
L 579.788766 265.719493 
L 579.919824 264.264266 
L 580.363043 267.580917 
L 580.673156 267.489987 
L 580.80946 267.978243 
L 580.9484 266.175521 
L 581.18839 267.063864 
L 581.37228 270.035738 
L 581.497351 270.393204 
L 581.912771 269.39332 
L 582.083984 269.344127 
L 582.187995 269.080437 
L 582.496992 270.844908 
L 582.812031 269.061888 
L 582.94089 267.884755 
L 583.18154 267.482617 
L 583.63949 269.372174 
L 583.773457 269.85725 
L 583.915491 269.771086 
L 584.053331 268.260024 
L 584.195568 268.063314 
L 584.326409 269.575635 
L 584.643636 269.428832 
L 585.013848 267.748073 
L 585.191229 267.635462 
L 585.257814 268.194558 
L 585.335522 267.673291 
L 585.665066 270.385471 
L 585.7722 269.971382 
L 586.046929 272.104059 
L 586.190986 270.744509 
L 586.32394 271.713914 
L 586.355097 273.004664 
L 586.562416 271.720322 
L 586.655433 272.10182 
L 586.882137 271.768222 
L 587.041194 270.463866 
L 587.178568 267.962705 
L 587.329037 267.357814 
L 587.454396 266.034976 
L 587.674642 267.213247 
L 587.900383 265.194305 
L 588.031683 265.585825 
L 588.339727 265.102411 
L 588.364226 265.958836 
L 588.487662 266.337036 
L 588.587941 267.985762 
L 589.051784 265.911648 
L 589.189554 266.948939 
L 589.364373 267.34721 
L 589.470554 266.306592 
L 589.66131 267.930075 
L 589.743077 267.519006 
L 589.926735 267.533355 
L 590.018795 266.816304 
L 590.153944 267.888108 
L 590.324946 271.074042 
L 590.497777 271.966252 
L 590.600204 271.274805 
L 590.737021 271.95275 
L 590.94326 272.08633 
L 591.013026 271.834797 
L 591.14924 272.807979 
L 591.357335 273.18393 
L 591.459241 274.63335 
L 591.570091 274.270364 
L 591.702498 272.223832 
L 591.870381 272.531563 
L 592.007408 273.716955 
L 592.227228 273.739096 
L 592.322152 273.636651 
L 592.492167 273.257382 
L 592.599414 272.297861 
L 592.731313 272.820132 
L 593.07625 271.52716 
L 593.31413 272.487274 
L 593.454138 271.392872 
L 593.599042 271.430199 
L 593.76305 271.900071 
L 593.870388 273.023716 
L 594.039384 272.718352 
L 594.178732 271.905667 
L 594.417548 271.363787 
L 594.658562 272.071405 
L 594.838591 271.322147 
L 594.933175 272.211101 
L 595.001257 271.689477 
L 595.283216 273.556986 
L 595.662004 272.968788 
L 595.796099 274.126308 
L 595.978734 273.185137 
L 596.243174 273.75525 
L 596.312119 272.560628 
L 596.528911 271.676793 
L 596.657277 272.792801 
L 596.940442 267.996743 
L 596.971472 268.211644 
L 596.998608 264.829995 
L 597.141344 266.546853 
L 597.307781 266.93882 
L 597.480896 264.958635 
L 597.583626 266.628012 
L 597.724491 266.070069 
L 597.753715 269.338728 
L 597.82326 265.4978 
L 598.235637 266.051179 
L 598.295859 267.081121 
L 598.453201 267.543658 
L 598.585944 269.461118 
L 598.752673 269.208968 
L 599.113709 267.976343 
L 599.270112 269.127231 
L 599.648005 270.324085 
L 599.680938 271.357706 
L 599.680938 271.357706 
" clip-path="url(#p07d4330862)" style="fill: none; stroke: #ff0000; stroke-opacity: 0.7; stroke-width: 1.5; stroke-linecap: square"/>
   </g>
   <g id="patch_3">
    <path d="M 41.680938 277.92 
L 41.680938 0.72 
" style="fill: none; stroke: #000000; stroke-width: 0.8; stroke-linejoin: miter; stroke-linecap: square"/>
   </g>
   <g id="patch_4">
    <path d="M 599.680938 277.92 
L 599.680938 0.72 
" style="fill: none; stroke: #000000; stroke-width: 0.8; stroke-linejoin: miter; stroke-linecap: square"/>
   </g>
   <g id="patch_5">
    <path d="M 41.680938 277.92 
L 599.680938 277.92 
" style="fill: none; stroke: #000000; stroke-width: 0.8; stroke-linejoin: miter; stroke-linecap: square"/>
   </g>
   <g id="patch_6">
    <path d="M 41.680938 0.72 
L 599.680938 0.72 
" style="fill: none; stroke: #000000; stroke-width: 0.8; stroke-linejoin: miter; stroke-linecap: square"/>
   </g>
   <g id="legend_1">
    <g id="patch_7">
     <path d="M 518.912187 38.07625 
L 592.680938 38.07625 
Q 594.680938 38.07625 594.680938 36.07625 
L 594.680938 7.72 
Q 594.680938 5.72 592.680938 5.72 
L 518.912187 5.72 
Q 516.912187 5.72 516.912187 7.72 
L 516.912187 36.07625 
Q 516.912187 38.07625 518.912187 38.07625 
z
" style="fill: #ffffff; opacity: 0.8; stroke: #cccccc; stroke-linejoin: miter"/>
    </g>
    <g id="line2d_29">
     <path d="M 520.912187 13.818438 
L 530.912187 13.818438 
L 540.912187 13.818438 
" style="fill: none; stroke: #0000ff; stroke-opacity: 0.7; stroke-width: 1.5; stroke-linecap: square"/>
    </g>
    <g id="text_16">
     <!-- RNEA -->
     <g transform="translate(548.912187 17.318438) scale(0.1 -0.1)">
      <defs>
       <path id="DejaVuSans-52" d="M 2841 2188 
Q 3044 2119 3236 1894 
Q 3428 1669 3622 1275 
L 4263 0 
L 3584 0 
L 2988 1197 
Q 2756 1666 2539 1819 
Q 2322 1972 1947 1972 
L 1259 1972 
L 1259 0 
L 628 0 
L 628 4666 
L 2053 4666 
Q 2853 4666 3247 4331 
Q 3641 3997 3641 3322 
Q 3641 2881 3436 2590 
Q 3231 2300 2841 2188 
z
M 1259 4147 
L 1259 2491 
L 2053 2491 
Q 2509 2491 2742 2702 
Q 2975 2913 2975 3322 
Q 2975 3731 2742 3939 
Q 2509 4147 2053 4147 
L 1259 4147 
z
" transform="scale(0.015625)"/>
       <path id="DejaVuSans-45" d="M 628 4666 
L 3578 4666 
L 3578 4134 
L 1259 4134 
L 1259 2753 
L 3481 2753 
L 3481 2222 
L 1259 2222 
L 1259 531 
L 3634 531 
L 3634 0 
L 628 0 
L 628 4666 
z
" transform="scale(0.015625)"/>
       <path id="DejaVuSans-41" d="M 2188 4044 
L 1331 1722 
L 3047 1722 
L 2188 4044 
z
M 1831 4666 
L 2547 4666 
L 4325 0 
L 3669 0 
L 3244 1197 
L 1141 1197 
L 716 0 
L 50 0 
L 1831 4666 
z
" transform="scale(0.015625)"/>
      </defs>
      <use xlink:href="#DejaVuSans-52"/>
      <use xlink:href="#DejaVuSans-4e" x="69.482422"/>
      <use xlink:href="#DejaVuSans-45" x="144.287109"/>
      <use xlink:href="#DejaVuSans-41" x="207.470703"/>
     </g>
    </g>
    <g id="line2d_30">
     <path d="M 520.912187 28.496563 
L 530.912187 28.496563 
L 540.912187 28.496563 
" style="fill: none; stroke: #ff0000; stroke-opacity: 0.7; stroke-width: 1.5; stroke-linecap: square"/>
    </g>
    <g id="text_17">
     <!-- BURNEA -->
     <g transform="translate(548.912187 31.996563) scale(0.1 -0.1)">
      <defs>
       <path id="DejaVuSans-42" d="M 1259 2228 
L 1259 519 
L 2272 519 
Q 2781 519 3026 730 
Q 3272 941 3272 1375 
Q 3272 1813 3026 2020 
Q 2781 2228 2272 2228 
L 1259 2228 
z
M 1259 4147 
L 1259 2741 
L 2194 2741 
Q 2656 2741 2882 2914 
Q 3109 3088 3109 3444 
Q 3109 3797 2882 3972 
Q 2656 4147 2194 4147 
L 1259 4147 
z
M 628 4666 
L 2241 4666 
Q 2963 4666 3353 4366 
Q 3744 4066 3744 3513 
Q 3744 3084 3544 2831 
Q 3344 2578 2956 2516 
Q 3422 2416 3680 2098 
Q 3938 1781 3938 1306 
Q 3938 681 3513 340 
Q 3088 0 2303 0 
L 628 0 
L 628 4666 
z
" transform="scale(0.015625)"/>
       <path id="DejaVuSans-55" d="M 556 4666 
L 1191 4666 
L 1191 1831 
Q 1191 1081 1462 751 
Q 1734 422 2344 422 
Q 2950 422 3222 751 
Q 3494 1081 3494 1831 
L 3494 4666 
L 4128 4666 
L 4128 1753 
Q 4128 841 3676 375 
Q 3225 -91 2344 -91 
Q 1459 -91 1007 375 
Q 556 841 556 1753 
L 556 4666 
z
" transform="scale(0.015625)"/>
      </defs>
      <use xlink:href="#DejaVuSans-42"/>
      <use xlink:href="#DejaVuSans-55" x="68.603516"/>
      <use xlink:href="#DejaVuSans-52" x="141.796875"/>
      <use xlink:href="#DejaVuSans-4e" x="211.279297"/>
      <use xlink:href="#DejaVuSans-45" x="286.083984"/>
      <use xlink:href="#DejaVuSans-41" x="349.267578"/>
     </g>
    </g>
   </g>
  </g>
 </g>
 <defs>
  <clipPath id="p07d4330862">
   <rect x="41.680938" y="0.72" width="558" height="277.2"/>
  </clipPath>
 </defs>
</svg>
