<?xml version="1.0" encoding="utf-8" standalone="no"?>
<!DOCTYPE svg PUBLIC "-//W3C//DTD SVG 1.1//EN"
  "http://www.w3.org/Graphics/SVG/1.1/DTD/svg11.dtd">
<svg xmlns:xlink="http://www.w3.org/1999/xlink" width="592.02125pt" height="304.99625pt" viewBox="0 0 592.02125 304.99625" xmlns="http://www.w3.org/2000/svg" version="1.1">
 <metadata>
  <rdf:RDF xmlns:dc="http://purl.org/dc/elements/1.1/" xmlns:cc="http://creativecommons.org/ns#" xmlns:rdf="http://www.w3.org/1999/02/22-rdf-syntax-ns#">
   <cc:Work>
    <dc:type rdf:resource="http://purl.org/dc/dcmitype/StillImage"/>
    <dc:date>2023-09-05T22:09:19.466689</dc:date>
    <dc:format>image/svg+xml</dc:format>
    <dc:creator>
     <cc:Agent>
      <dc:title>Matplotlib v3.7.2, https://matplotlib.org/</dc:title>
     </cc:Agent>
    </dc:creator>
   </cc:Work>
  </rdf:RDF>
 </metadata>
 <defs>
  <style type="text/css">*{stroke-linejoin: round; stroke-linecap: butt}</style>
 </defs>
 <g id="figure_1">
  <g id="patch_1">
   <path d="M -0 304.99625 
L 592.02125 304.99625 
L 592.02125 0 
L -0 0 
L -0 304.99625 
z
" style="fill: none"/>
  </g>
  <g id="axes_1">
   <g id="patch_2">
    <path d="M 33.30125 277.92 
L 591.30125 277.92 
L 591.30125 0.72 
L 33.30125 0.72 
L 33.30125 277.92 
z
" style="fill: none"/>
   </g>
   <g id="matplotlib.axis_1">
    <g id="xtick_1">
     <g id="line2d_1">
      <path d="M 33.30125 277.92 
L 33.30125 0.72 
" clip-path="url(#p32ce3971ae)" style="fill: none; stroke-dasharray: 0.8,1.32; stroke-dashoffset: 0; stroke: #000000; stroke-opacity: 0.5; stroke-width: 0.8"/>
     </g>
     <g id="line2d_2">
      <defs>
       <path id="ma34d8c24b8" d="M 0 0 
L 0 3.5 
" style="stroke: #000000; stroke-width: 0.8"/>
      </defs>
      <g>
       <use xlink:href="#ma34d8c24b8" x="33.30125" y="277.92" style="stroke: #000000; stroke-width: 0.8"/>
      </g>
     </g>
     <g id="text_1">
      <!-- 0 -->
      <g transform="translate(30.12 292.518438) scale(0.1 -0.1)">
       <defs>
        <path id="DejaVuSans-30" d="M 2034 4250 
Q 1547 4250 1301 3770 
Q 1056 3291 1056 2328 
Q 1056 1369 1301 889 
Q 1547 409 2034 409 
Q 2525 409 2770 889 
Q 3016 1369 3016 2328 
Q 3016 3291 2770 3770 
Q 2525 4250 2034 4250 
z
M 2034 4750 
Q 2819 4750 3233 4129 
Q 3647 3509 3647 2328 
Q 3647 1150 3233 529 
Q 2819 -91 2034 -91 
Q 1250 -91 836 529 
Q 422 1150 422 2328 
Q 422 3509 836 4129 
Q 1250 4750 2034 4750 
z
" transform="scale(0.015625)"/>
       </defs>
       <use xlink:href="#DejaVuSans-30"/>
      </g>
     </g>
    </g>
    <g id="xtick_2">
     <g id="line2d_3">
      <path d="M 118.531051 277.92 
L 118.531051 0.72 
" clip-path="url(#p32ce3971ae)" style="fill: none; stroke-dasharray: 0.8,1.32; stroke-dashoffset: 0; stroke: #000000; stroke-opacity: 0.5; stroke-width: 0.8"/>
     </g>
     <g id="line2d_4">
      <g>
       <use xlink:href="#ma34d8c24b8" x="118.531051" y="277.92" style="stroke: #000000; stroke-width: 0.8"/>
      </g>
     </g>
     <g id="text_2">
      <!-- 5 -->
      <g transform="translate(115.349801 292.518438) scale(0.1 -0.1)">
       <defs>
        <path id="DejaVuSans-35" d="M 691 4666 
L 3169 4666 
L 3169 4134 
L 1269 4134 
L 1269 2991 
Q 1406 3038 1543 3061 
Q 1681 3084 1819 3084 
Q 2600 3084 3056 2656 
Q 3513 2228 3513 1497 
Q 3513 744 3044 326 
Q 2575 -91 1722 -91 
Q 1428 -91 1123 -41 
Q 819 9 494 109 
L 494 744 
Q 775 591 1075 516 
Q 1375 441 1709 441 
Q 2250 441 2565 725 
Q 2881 1009 2881 1497 
Q 2881 1984 2565 2268 
Q 2250 2553 1709 2553 
Q 1456 2553 1204 2497 
Q 953 2441 691 2322 
L 691 4666 
z
" transform="scale(0.015625)"/>
       </defs>
       <use xlink:href="#DejaVuSans-35"/>
      </g>
     </g>
    </g>
    <g id="xtick_3">
     <g id="line2d_5">
      <path d="M 203.760852 277.92 
L 203.760852 0.72 
" clip-path="url(#p32ce3971ae)" style="fill: none; stroke-dasharray: 0.8,1.32; stroke-dashoffset: 0; stroke: #000000; stroke-opacity: 0.5; stroke-width: 0.8"/>
     </g>
     <g id="line2d_6">
      <g>
       <use xlink:href="#ma34d8c24b8" x="203.760852" y="277.92" style="stroke: #000000; stroke-width: 0.8"/>
      </g>
     </g>
     <g id="text_3">
      <!-- 10 -->
      <g transform="translate(197.398352 292.518438) scale(0.1 -0.1)">
       <defs>
        <path id="DejaVuSans-31" d="M 794 531 
L 1825 531 
L 1825 4091 
L 703 3866 
L 703 4441 
L 1819 4666 
L 2450 4666 
L 2450 531 
L 3481 531 
L 3481 0 
L 794 0 
L 794 531 
z
" transform="scale(0.015625)"/>
       </defs>
       <use xlink:href="#DejaVuSans-31"/>
       <use xlink:href="#DejaVuSans-30" x="63.623047"/>
      </g>
     </g>
    </g>
    <g id="xtick_4">
     <g id="line2d_7">
      <path d="M 288.990653 277.92 
L 288.990653 0.72 
" clip-path="url(#p32ce3971ae)" style="fill: none; stroke-dasharray: 0.8,1.32; stroke-dashoffset: 0; stroke: #000000; stroke-opacity: 0.5; stroke-width: 0.8"/>
     </g>
     <g id="line2d_8">
      <g>
       <use xlink:href="#ma34d8c24b8" x="288.990653" y="277.92" style="stroke: #000000; stroke-width: 0.8"/>
      </g>
     </g>
     <g id="text_4">
      <!-- 15 -->
      <g transform="translate(282.628153 292.518438) scale(0.1 -0.1)">
       <use xlink:href="#DejaVuSans-31"/>
       <use xlink:href="#DejaVuSans-35" x="63.623047"/>
      </g>
     </g>
    </g>
    <g id="xtick_5">
     <g id="line2d_9">
      <path d="M 374.220454 277.92 
L 374.220454 0.72 
" clip-path="url(#p32ce3971ae)" style="fill: none; stroke-dasharray: 0.8,1.32; stroke-dashoffset: 0; stroke: #000000; stroke-opacity: 0.5; stroke-width: 0.8"/>
     </g>
     <g id="line2d_10">
      <g>
       <use xlink:href="#ma34d8c24b8" x="374.220454" y="277.92" style="stroke: #000000; stroke-width: 0.8"/>
      </g>
     </g>
     <g id="text_5">
      <!-- 20 -->
      <g transform="translate(367.857954 292.518438) scale(0.1 -0.1)">
       <defs>
        <path id="DejaVuSans-32" d="M 1228 531 
L 3431 531 
L 3431 0 
L 469 0 
L 469 531 
Q 828 903 1448 1529 
Q 2069 2156 2228 2338 
Q 2531 2678 2651 2914 
Q 2772 3150 2772 3378 
Q 2772 3750 2511 3984 
Q 2250 4219 1831 4219 
Q 1534 4219 1204 4116 
Q 875 4013 500 3803 
L 500 4441 
Q 881 4594 1212 4672 
Q 1544 4750 1819 4750 
Q 2544 4750 2975 4387 
Q 3406 4025 3406 3419 
Q 3406 3131 3298 2873 
Q 3191 2616 2906 2266 
Q 2828 2175 2409 1742 
Q 1991 1309 1228 531 
z
" transform="scale(0.015625)"/>
       </defs>
       <use xlink:href="#DejaVuSans-32"/>
       <use xlink:href="#DejaVuSans-30" x="63.623047"/>
      </g>
     </g>
    </g>
    <g id="xtick_6">
     <g id="line2d_11">
      <path d="M 459.450255 277.92 
L 459.450255 0.72 
" clip-path="url(#p32ce3971ae)" style="fill: none; stroke-dasharray: 0.8,1.32; stroke-dashoffset: 0; stroke: #000000; stroke-opacity: 0.5; stroke-width: 0.8"/>
     </g>
     <g id="line2d_12">
      <g>
       <use xlink:href="#ma34d8c24b8" x="459.450255" y="277.92" style="stroke: #000000; stroke-width: 0.8"/>
      </g>
     </g>
     <g id="text_6">
      <!-- 25 -->
      <g transform="translate(453.087755 292.518438) scale(0.1 -0.1)">
       <use xlink:href="#DejaVuSans-32"/>
       <use xlink:href="#DejaVuSans-35" x="63.623047"/>
      </g>
     </g>
    </g>
    <g id="xtick_7">
     <g id="line2d_13">
      <path d="M 544.680056 277.92 
L 544.680056 0.72 
" clip-path="url(#p32ce3971ae)" style="fill: none; stroke-dasharray: 0.8,1.32; stroke-dashoffset: 0; stroke: #000000; stroke-opacity: 0.5; stroke-width: 0.8"/>
     </g>
     <g id="line2d_14">
      <g>
       <use xlink:href="#ma34d8c24b8" x="544.680056" y="277.92" style="stroke: #000000; stroke-width: 0.8"/>
      </g>
     </g>
     <g id="text_7">
      <!-- 30 -->
      <g transform="translate(538.317556 292.518438) scale(0.1 -0.1)">
       <defs>
        <path id="DejaVuSans-33" d="M 2597 2516 
Q 3050 2419 3304 2112 
Q 3559 1806 3559 1356 
Q 3559 666 3084 287 
Q 2609 -91 1734 -91 
Q 1441 -91 1130 -33 
Q 819 25 488 141 
L 488 750 
Q 750 597 1062 519 
Q 1375 441 1716 441 
Q 2309 441 2620 675 
Q 2931 909 2931 1356 
Q 2931 1769 2642 2001 
Q 2353 2234 1838 2234 
L 1294 2234 
L 1294 2753 
L 1863 2753 
Q 2328 2753 2575 2939 
Q 2822 3125 2822 3475 
Q 2822 3834 2567 4026 
Q 2313 4219 1838 4219 
Q 1578 4219 1281 4162 
Q 984 4106 628 3988 
L 628 4550 
Q 988 4650 1302 4700 
Q 1616 4750 1894 4750 
Q 2613 4750 3031 4423 
Q 3450 4097 3450 3541 
Q 3450 3153 3228 2886 
Q 3006 2619 2597 2516 
z
" transform="scale(0.015625)"/>
       </defs>
       <use xlink:href="#DejaVuSans-33"/>
       <use xlink:href="#DejaVuSans-30" x="63.623047"/>
      </g>
     </g>
    </g>
    <g id="text_8">
     <!-- Zeit [s] -->
     <g transform="translate(294.355156 302.196563) scale(0.1 -0.1)">
      <defs>
       <path id="DejaVuSans-5a" d="M 359 4666 
L 4025 4666 
L 4025 4184 
L 1075 531 
L 4097 531 
L 4097 0 
L 288 0 
L 288 481 
L 3238 4134 
L 359 4134 
L 359 4666 
z
" transform="scale(0.015625)"/>
       <path id="DejaVuSans-65" d="M 3597 1894 
L 3597 1613 
L 953 1613 
Q 991 1019 1311 708 
Q 1631 397 2203 397 
Q 2534 397 2845 478 
Q 3156 559 3463 722 
L 3463 178 
Q 3153 47 2828 -22 
Q 2503 -91 2169 -91 
Q 1331 -91 842 396 
Q 353 884 353 1716 
Q 353 2575 817 3079 
Q 1281 3584 2069 3584 
Q 2775 3584 3186 3129 
Q 3597 2675 3597 1894 
z
M 3022 2063 
Q 3016 2534 2758 2815 
Q 2500 3097 2075 3097 
Q 1594 3097 1305 2825 
Q 1016 2553 972 2059 
L 3022 2063 
z
" transform="scale(0.015625)"/>
       <path id="DejaVuSans-69" d="M 603 3500 
L 1178 3500 
L 1178 0 
L 603 0 
L 603 3500 
z
M 603 4863 
L 1178 4863 
L 1178 4134 
L 603 4134 
L 603 4863 
z
" transform="scale(0.015625)"/>
       <path id="DejaVuSans-74" d="M 1172 4494 
L 1172 3500 
L 2356 3500 
L 2356 3053 
L 1172 3053 
L 1172 1153 
Q 1172 725 1289 603 
Q 1406 481 1766 481 
L 2356 481 
L 2356 0 
L 1766 0 
Q 1100 0 847 248 
Q 594 497 594 1153 
L 594 3053 
L 172 3053 
L 172 3500 
L 594 3500 
L 594 4494 
L 1172 4494 
z
" transform="scale(0.015625)"/>
       <path id="DejaVuSans-20" transform="scale(0.015625)"/>
       <path id="DejaVuSans-5b" d="M 550 4863 
L 1875 4863 
L 1875 4416 
L 1125 4416 
L 1125 -397 
L 1875 -397 
L 1875 -844 
L 550 -844 
L 550 4863 
z
" transform="scale(0.015625)"/>
       <path id="DejaVuSans-73" d="M 2834 3397 
L 2834 2853 
Q 2591 2978 2328 3040 
Q 2066 3103 1784 3103 
Q 1356 3103 1142 2972 
Q 928 2841 928 2578 
Q 928 2378 1081 2264 
Q 1234 2150 1697 2047 
L 1894 2003 
Q 2506 1872 2764 1633 
Q 3022 1394 3022 966 
Q 3022 478 2636 193 
Q 2250 -91 1575 -91 
Q 1294 -91 989 -36 
Q 684 19 347 128 
L 347 722 
Q 666 556 975 473 
Q 1284 391 1588 391 
Q 1994 391 2212 530 
Q 2431 669 2431 922 
Q 2431 1156 2273 1281 
Q 2116 1406 1581 1522 
L 1381 1569 
Q 847 1681 609 1914 
Q 372 2147 372 2553 
Q 372 3047 722 3315 
Q 1072 3584 1716 3584 
Q 2034 3584 2315 3537 
Q 2597 3491 2834 3397 
z
" transform="scale(0.015625)"/>
       <path id="DejaVuSans-5d" d="M 1947 4863 
L 1947 -844 
L 622 -844 
L 622 -397 
L 1369 -397 
L 1369 4416 
L 622 4416 
L 622 4863 
L 1947 4863 
z
" transform="scale(0.015625)"/>
      </defs>
      <use xlink:href="#DejaVuSans-5a"/>
      <use xlink:href="#DejaVuSans-65" x="68.505859"/>
      <use xlink:href="#DejaVuSans-69" x="130.029297"/>
      <use xlink:href="#DejaVuSans-74" x="157.8125"/>
      <use xlink:href="#DejaVuSans-20" x="197.021484"/>
      <use xlink:href="#DejaVuSans-5b" x="228.808594"/>
      <use xlink:href="#DejaVuSans-73" x="267.822266"/>
      <use xlink:href="#DejaVuSans-5d" x="319.921875"/>
     </g>
    </g>
   </g>
   <g id="matplotlib.axis_2">
    <g id="ytick_1">
     <g id="line2d_15">
      <path d="M 33.30125 277.895214 
L 591.30125 277.895214 
" clip-path="url(#p32ce3971ae)" style="fill: none; stroke-dasharray: 0.8,1.32; stroke-dashoffset: 0; stroke: #000000; stroke-opacity: 0.5; stroke-width: 0.8"/>
     </g>
     <g id="line2d_16">
      <defs>
       <path id="mfd28b41197" d="M 0 0 
L -3.5 0 
" style="stroke: #000000; stroke-width: 0.8"/>
      </defs>
      <g>
       <use xlink:href="#mfd28b41197" x="33.30125" y="277.895214" style="stroke: #000000; stroke-width: 0.8"/>
      </g>
     </g>
     <g id="text_9">
      <!-- 0.0 -->
      <g transform="translate(10.398125 281.694433) scale(0.1 -0.1)">
       <defs>
        <path id="DejaVuSans-2e" d="M 684 794 
L 1344 794 
L 1344 0 
L 684 0 
L 684 794 
z
" transform="scale(0.015625)"/>
       </defs>
       <use xlink:href="#DejaVuSans-30"/>
       <use xlink:href="#DejaVuSans-2e" x="63.623047"/>
       <use xlink:href="#DejaVuSans-30" x="95.410156"/>
      </g>
     </g>
    </g>
    <g id="ytick_2">
     <g id="line2d_17">
      <path d="M 33.30125 239.23464 
L 591.30125 239.23464 
" clip-path="url(#p32ce3971ae)" style="fill: none; stroke-dasharray: 0.8,1.32; stroke-dashoffset: 0; stroke: #000000; stroke-opacity: 0.5; stroke-width: 0.8"/>
     </g>
     <g id="line2d_18">
      <g>
       <use xlink:href="#mfd28b41197" x="33.30125" y="239.23464" style="stroke: #000000; stroke-width: 0.8"/>
      </g>
     </g>
     <g id="text_10">
      <!-- 0.5 -->
      <g transform="translate(10.398125 243.033859) scale(0.1 -0.1)">
       <use xlink:href="#DejaVuSans-30"/>
       <use xlink:href="#DejaVuSans-2e" x="63.623047"/>
       <use xlink:href="#DejaVuSans-35" x="95.410156"/>
      </g>
     </g>
    </g>
    <g id="ytick_3">
     <g id="line2d_19">
      <path d="M 33.30125 200.574067 
L 591.30125 200.574067 
" clip-path="url(#p32ce3971ae)" style="fill: none; stroke-dasharray: 0.8,1.32; stroke-dashoffset: 0; stroke: #000000; stroke-opacity: 0.5; stroke-width: 0.8"/>
     </g>
     <g id="line2d_20">
      <g>
       <use xlink:href="#mfd28b41197" x="33.30125" y="200.574067" style="stroke: #000000; stroke-width: 0.8"/>
      </g>
     </g>
     <g id="text_11">
      <!-- 1.0 -->
      <g transform="translate(10.398125 204.373286) scale(0.1 -0.1)">
       <use xlink:href="#DejaVuSans-31"/>
       <use xlink:href="#DejaVuSans-2e" x="63.623047"/>
       <use xlink:href="#DejaVuSans-30" x="95.410156"/>
      </g>
     </g>
    </g>
    <g id="ytick_4">
     <g id="line2d_21">
      <path d="M 33.30125 161.913493 
L 591.30125 161.913493 
" clip-path="url(#p32ce3971ae)" style="fill: none; stroke-dasharray: 0.8,1.32; stroke-dashoffset: 0; stroke: #000000; stroke-opacity: 0.5; stroke-width: 0.8"/>
     </g>
     <g id="line2d_22">
      <g>
       <use xlink:href="#mfd28b41197" x="33.30125" y="161.913493" style="stroke: #000000; stroke-width: 0.8"/>
      </g>
     </g>
     <g id="text_12">
      <!-- 1.5 -->
      <g transform="translate(10.398125 165.712712) scale(0.1 -0.1)">
       <use xlink:href="#DejaVuSans-31"/>
       <use xlink:href="#DejaVuSans-2e" x="63.623047"/>
       <use xlink:href="#DejaVuSans-35" x="95.410156"/>
      </g>
     </g>
    </g>
    <g id="ytick_5">
     <g id="line2d_23">
      <path d="M 33.30125 123.25292 
L 591.30125 123.25292 
" clip-path="url(#p32ce3971ae)" style="fill: none; stroke-dasharray: 0.8,1.32; stroke-dashoffset: 0; stroke: #000000; stroke-opacity: 0.5; stroke-width: 0.8"/>
     </g>
     <g id="line2d_24">
      <g>
       <use xlink:href="#mfd28b41197" x="33.30125" y="123.25292" style="stroke: #000000; stroke-width: 0.8"/>
      </g>
     </g>
     <g id="text_13">
      <!-- 2.0 -->
      <g transform="translate(10.398125 127.052138) scale(0.1 -0.1)">
       <use xlink:href="#DejaVuSans-32"/>
       <use xlink:href="#DejaVuSans-2e" x="63.623047"/>
       <use xlink:href="#DejaVuSans-30" x="95.410156"/>
      </g>
     </g>
    </g>
    <g id="ytick_6">
     <g id="line2d_25">
      <path d="M 33.30125 84.592346 
L 591.30125 84.592346 
" clip-path="url(#p32ce3971ae)" style="fill: none; stroke-dasharray: 0.8,1.32; stroke-dashoffset: 0; stroke: #000000; stroke-opacity: 0.5; stroke-width: 0.8"/>
     </g>
     <g id="line2d_26">
      <g>
       <use xlink:href="#mfd28b41197" x="33.30125" y="84.592346" style="stroke: #000000; stroke-width: 0.8"/>
      </g>
     </g>
     <g id="text_14">
      <!-- 2.5 -->
      <g transform="translate(10.398125 88.391565) scale(0.1 -0.1)">
       <use xlink:href="#DejaVuSans-32"/>
       <use xlink:href="#DejaVuSans-2e" x="63.623047"/>
       <use xlink:href="#DejaVuSans-35" x="95.410156"/>
      </g>
     </g>
    </g>
    <g id="ytick_7">
     <g id="line2d_27">
      <path d="M 33.30125 45.931772 
L 591.30125 45.931772 
" clip-path="url(#p32ce3971ae)" style="fill: none; stroke-dasharray: 0.8,1.32; stroke-dashoffset: 0; stroke: #000000; stroke-opacity: 0.5; stroke-width: 0.8"/>
     </g>
     <g id="line2d_28">
      <g>
       <use xlink:href="#mfd28b41197" x="33.30125" y="45.931772" style="stroke: #000000; stroke-width: 0.8"/>
      </g>
     </g>
     <g id="text_15">
      <!-- 3.0 -->
      <g transform="translate(10.398125 49.730991) scale(0.1 -0.1)">
       <use xlink:href="#DejaVuSans-33"/>
       <use xlink:href="#DejaVuSans-2e" x="63.623047"/>
       <use xlink:href="#DejaVuSans-30" x="95.410156"/>
      </g>
     </g>
    </g>
    <g id="ytick_8">
     <g id="line2d_29">
      <path d="M 33.30125 7.271199 
L 591.30125 7.271199 
" clip-path="url(#p32ce3971ae)" style="fill: none; stroke-dasharray: 0.8,1.32; stroke-dashoffset: 0; stroke: #000000; stroke-opacity: 0.5; stroke-width: 0.8"/>
     </g>
     <g id="line2d_30">
      <g>
       <use xlink:href="#mfd28b41197" x="33.30125" y="7.271199" style="stroke: #000000; stroke-width: 0.8"/>
      </g>
     </g>
     <g id="text_16">
      <!-- 3.5 -->
      <g transform="translate(10.398125 11.070418) scale(0.1 -0.1)">
       <use xlink:href="#DejaVuSans-33"/>
       <use xlink:href="#DejaVuSans-2e" x="63.623047"/>
       <use xlink:href="#DejaVuSans-35" x="95.410156"/>
      </g>
     </g>
    </g>
    <g id="text_17">
     <!-- Kraft [N] -->
     <g transform="translate(8.318437 160.5825) rotate(-90) scale(0.1 -0.1)">
      <defs>
       <path id="DejaVuSans-4b" d="M 628 4666 
L 1259 4666 
L 1259 2694 
L 3353 4666 
L 4166 4666 
L 1850 2491 
L 4331 0 
L 3500 0 
L 1259 2247 
L 1259 0 
L 628 0 
L 628 4666 
z
" transform="scale(0.015625)"/>
       <path id="DejaVuSans-72" d="M 2631 2963 
Q 2534 3019 2420 3045 
Q 2306 3072 2169 3072 
Q 1681 3072 1420 2755 
Q 1159 2438 1159 1844 
L 1159 0 
L 581 0 
L 581 3500 
L 1159 3500 
L 1159 2956 
Q 1341 3275 1631 3429 
Q 1922 3584 2338 3584 
Q 2397 3584 2469 3576 
Q 2541 3569 2628 3553 
L 2631 2963 
z
" transform="scale(0.015625)"/>
       <path id="DejaVuSans-61" d="M 2194 1759 
Q 1497 1759 1228 1600 
Q 959 1441 959 1056 
Q 959 750 1161 570 
Q 1363 391 1709 391 
Q 2188 391 2477 730 
Q 2766 1069 2766 1631 
L 2766 1759 
L 2194 1759 
z
M 3341 1997 
L 3341 0 
L 2766 0 
L 2766 531 
Q 2569 213 2275 61 
Q 1981 -91 1556 -91 
Q 1019 -91 701 211 
Q 384 513 384 1019 
Q 384 1609 779 1909 
Q 1175 2209 1959 2209 
L 2766 2209 
L 2766 2266 
Q 2766 2663 2505 2880 
Q 2244 3097 1772 3097 
Q 1472 3097 1187 3025 
Q 903 2953 641 2809 
L 641 3341 
Q 956 3463 1253 3523 
Q 1550 3584 1831 3584 
Q 2591 3584 2966 3190 
Q 3341 2797 3341 1997 
z
" transform="scale(0.015625)"/>
       <path id="DejaVuSans-66" d="M 2375 4863 
L 2375 4384 
L 1825 4384 
Q 1516 4384 1395 4259 
Q 1275 4134 1275 3809 
L 1275 3500 
L 2222 3500 
L 2222 3053 
L 1275 3053 
L 1275 0 
L 697 0 
L 697 3053 
L 147 3053 
L 147 3500 
L 697 3500 
L 697 3744 
Q 697 4328 969 4595 
Q 1241 4863 1831 4863 
L 2375 4863 
z
" transform="scale(0.015625)"/>
       <path id="DejaVuSans-4e" d="M 628 4666 
L 1478 4666 
L 3547 763 
L 3547 4666 
L 4159 4666 
L 4159 0 
L 3309 0 
L 1241 3903 
L 1241 0 
L 628 0 
L 628 4666 
z
" transform="scale(0.015625)"/>
      </defs>
      <use xlink:href="#DejaVuSans-4b"/>
      <use xlink:href="#DejaVuSans-72" x="65.576172"/>
      <use xlink:href="#DejaVuSans-61" x="106.689453"/>
      <use xlink:href="#DejaVuSans-66" x="167.96875"/>
      <use xlink:href="#DejaVuSans-74" x="201.423828"/>
      <use xlink:href="#DejaVuSans-20" x="240.632812"/>
      <use xlink:href="#DejaVuSans-5b" x="272.419922"/>
      <use xlink:href="#DejaVuSans-4e" x="311.433594"/>
      <use xlink:href="#DejaVuSans-5d" x="386.238281"/>
     </g>
    </g>
   </g>
   <g id="line2d_31">
    <path d="M 33.30125 277.892681 
L 41.935772 277.903307 
L 591.30125 277.886701 
L 591.30125 277.886701 
" clip-path="url(#p32ce3971ae)" style="fill: none; stroke: #0000ff; stroke-opacity: 0.7; stroke-width: 1.5; stroke-linecap: square"/>
   </g>
   <g id="line2d_32">
    <path d="M 33.30125 34.372815 
L 33.406723 34.332808 
L 33.596484 32.069563 
L 33.715949 36.528747 
L 33.897908 33.42158 
L 33.928147 30.167218 
L 34.171535 35.225205 
L 34.404776 25.401294 
L 34.543067 28.460843 
L 34.865106 20.248582 
L 35.0234 27.476989 
L 35.126022 25.896456 
L 35.401089 35.766775 
L 35.53941 29.637857 
L 35.745767 32.806282 
L 36.294429 50.54647 
L 36.876819 34.919898 
L 37.220575 40.781928 
L 37.431004 40.021126 
L 37.703463 44.593511 
L 37.943678 46.596651 
L 38.115655 59.577046 
L 38.254649 60.209557 
L 38.529413 58.672051 
L 38.672576 48.617478 
L 38.973662 37.685864 
L 39.110969 38.60891 
L 39.232787 41.710431 
L 39.248868 39.253911 
L 39.801274 35.973512 
L 39.948144 31.91196 
L 40.091878 47.326045 
L 40.250718 51.732741 
L 40.360655 50.146392 
L 40.526524 50.125876 
L 40.663643 52.999102 
L 40.938565 41.024385 
L 41.22249 49.569107 
L 41.935772 16.961526 
L 42.071389 15.495809 
L 42.279632 19.306489 
L 42.358729 25.277279 
L 42.490824 21.458208 
L 42.660753 22.012862 
L 42.798219 26.936012 
L 43.073394 22.457701 
L 43.349931 37.309378 
L 43.486529 33.478678 
L 43.626566 34.05569 
L 43.769178 29.641971 
L 43.93427 31.64418 
L 44.21025 24.427561 
L 44.485415 35.730475 
L 44.642854 36.842006 
L 44.765795 32.815424 
L 44.930387 32.27596 
L 45.068183 26.477439 
L 45.369711 25.265923 
L 45.757736 33.730655 
L 46.203313 21.000172 
L 46.356203 19.772174 
L 46.614624 30.067818 
L 46.752163 26.101847 
L 46.892089 29.076273 
L 47.039287 27.492223 
L 47.205323 22.571784 
L 47.338185 31.147961 
L 47.618731 35.082947 
L 47.892059 24.75839 
L 48.166908 16.004678 
L 48.510985 21.704976 
L 48.682168 26.366368 
L 48.785559 32.713803 
L 48.888638 23.825321 
L 49.128803 30.638922 
L 49.440473 53.753377 
L 49.608421 52.507529 
L 50.021026 39.988486 
L 50.338048 35.001444 
L 50.587569 24.565013 
L 50.748926 26.370892 
L 51.022734 31.607335 
L 51.30128 32.593958 
L 51.436062 30.007447 
L 51.585065 31.279398 
L 51.607621 34.158615 
L 51.893674 43.006323 
L 52.044413 41.35536 
L 52.066508 48.667892 
L 52.172862 34.717542 
L 52.339302 35.093468 
L 52.586552 29.634541 
L 52.764669 32.263869 
L 52.899107 31.458978 
L 53.01566 32.808834 
L 53.156184 31.931641 
L 53.340831 29.865505 
L 53.635247 31.948472 
L 53.667392 31.104087 
L 53.879954 16.987572 
L 53.930077 23.272443 
L 53.950902 19.861264 
L 54.22824 28.75939 
L 54.331439 29.470348 
L 54.607248 34.49572 
L 54.91937 18.465641 
L 55.191669 30.870348 
L 55.362071 32.640562 
L 55.465208 29.592827 
L 55.568522 20.749614 
L 55.743761 20.624269 
L 55.87847 22.969122 
L 56.301871 38.027414 
L 56.496012 37.312692 
L 56.67058 38.883953 
L 56.84293 34.375538 
L 57.067629 37.711699 
L 57.170255 35.948734 
L 57.28755 27.714495 
L 57.492993 22.057915 
L 57.748818 27.448526 
L 57.871306 23.230332 
L 57.975761 24.97205 
L 58.453879 45.870125 
L 58.557438 52.54688 
L 58.765257 50.102152 
L 59.055066 42.144397 
L 59.244425 42.959942 
L 59.381408 44.440134 
L 59.554435 30.961953 
L 59.692414 31.572285 
L 59.966695 6.596114 
L 60.137588 12.724222 
L 60.276037 23.742174 
L 60.549353 26.774587 
L 60.824849 33.483849 
L 61.170907 24.939463 
L 61.271059 27.446709 
L 61.409064 27.332811 
L 61.545587 29.300898 
L 61.68246 23.342422 
L 62.198138 15.342845 
L 62.382948 20.329676 
L 62.540301 21.853904 
L 62.815938 41.874128 
L 63.01338 36.599797 
L 63.26274 39.976225 
L 63.442137 40.324994 
L 63.5397 37.985527 
L 63.837437 46.92066 
L 63.952278 40.334108 
L 64.191856 34.380949 
L 64.294553 34.662324 
L 64.537121 28.757953 
L 64.672309 30.299953 
L 64.949052 40.359848 
L 65.258878 33.556874 
L 65.533008 43.855283 
L 65.738829 40.715076 
L 65.843845 47.621676 
L 66.048112 48.220996 
L 66.122401 45.062381 
L 66.35758 44.185448 
L 66.460506 42.399186 
L 66.564307 44.582 
L 66.804613 41.62315 
L 67.115643 35.878376 
L 67.463482 38.936932 
L 67.673118 33.606285 
L 67.844398 36.768739 
L 67.965916 32.43973 
L 68.109453 36.305098 
L 68.351851 35.18878 
L 68.542041 45.346989 
L 68.542188 50.012129 
L 69.081121 44.759139 
L 69.316358 38.63811 
L 69.351766 38.720407 
L 69.385407 38.496627 
L 69.476456 40.771031 
L 69.509601 39.305896 
L 69.647388 39.464311 
L 69.969245 36.51519 
L 70.171912 30.590933 
L 70.36943 34.518412 
L 70.51305 43.745799 
L 70.648683 43.900339 
L 71.198634 50.784555 
L 71.614761 35.231584 
L 71.644887 37.532026 
L 71.781466 35.464201 
L 72.056744 40.384463 
L 72.262569 37.834964 
L 72.372709 37.890959 
L 72.505263 37.401452 
L 72.616035 33.029746 
L 72.821287 34.831978 
L 72.854109 34.192322 
L 73.063579 41.759091 
L 73.097575 48.144554 
L 73.234723 46.674437 
L 73.334189 44.383567 
L 73.612527 42.627713 
L 73.815785 33.947505 
L 73.920823 41.668406 
L 74.059886 43.360287 
L 74.30909 37.887691 
L 74.371146 40.474548 
L 74.641322 33.90761 
L 74.91685 28.295521 
L 75.08995 31.923666 
L 75.22795 37.943649 
L 75.474552 23.106549 
L 75.639768 29.313073 
L 75.878498 30.002711 
L 76.052173 32.16817 
L 76.085044 40.280838 
L 76.811736 37.862361 
L 77.562086 38.01496 
L 78.36352 43.472256 
L 79.112629 37.941129 
L 79.142984 26.192735 
L 79.279529 29.01094 
L 79.313302 25.78012 
L 79.589136 24.687611 
L 79.72851 24.477776 
L 80.242974 42.899682 
L 80.280076 39.322423 
L 80.586011 30.670152 
L 80.691442 32.404752 
L 80.723725 37.334528 
L 81.077739 40.808935 
L 81.208876 44.010183 
L 81.686193 35.673523 
L 81.859537 40.441983 
L 82.147361 36.42626 
L 82.40898 26.917893 
L 82.581925 15.100395 
L 82.752759 14.18833 
L 82.856687 17.601882 
L 83.025717 17.991304 
L 83.349696 20.17769 
L 83.541721 20.879368 
L 83.576605 19.863943 
L 83.8546 38.582272 
L 84.05838 33.873154 
L 84.12628 28.41297 
L 84.265748 29.10864 
L 84.606916 32.944562 
L 84.788077 32.443699 
L 84.882512 29.675389 
L 85.269756 38.537291 
L 85.296414 42.375816 
L 85.425388 40.490628 
L 85.769392 30.39753 
L 85.842149 27.743616 
L 86.017868 30.311139 
L 86.11283 35.023372 
L 86.250934 34.649178 
L 86.872119 25.039464 
L 87.246903 34.430582 
L 87.418317 33.116789 
L 87.692805 34.067109 
L 87.868236 28.157217 
L 88.036022 14.504773 
L 88.138454 17.806132 
L 88.241862 29.077402 
L 88.414962 34.931032 
L 88.965041 20.576005 
L 89.138074 24.912125 
L 89.411688 42.801408 
L 89.687081 30.38363 
L 89.825065 31.071028 
L 89.960799 39.351834 
L 90.099287 37.460305 
L 90.338074 31.94133 
L 90.372116 33.249777 
L 90.547483 32.80068 
L 90.840326 30.942788 
L 90.840899 26.766579 
L 90.855604 29.22319 
L 91.136266 34.130651 
L 91.303608 33.979359 
L 91.524447 34.675675 
L 91.79822 55.410725 
L 92.138756 52.694467 
L 92.24171 46.71162 
L 92.482259 42.882646 
L 92.516508 46.449163 
L 92.794399 38.914422 
L 92.963038 42.910648 
L 93.374382 24.104289 
L 93.511039 29.897511 
L 93.789245 32.406075 
L 93.966996 30.206297 
L 94.06244 31.141457 
L 94.376379 26.633197 
L 94.643424 32.151898 
L 94.781637 38.829411 
L 94.924816 38.947474 
L 95.195107 36.642102 
L 95.298195 34.153575 
L 95.374084 36.285186 
L 95.64234 47.339289 
L 95.778736 51.132636 
L 96.090959 52.039454 
L 96.227871 43.933985 
L 96.435401 42.702275 
L 96.468062 47.794917 
L 96.672368 52.836605 
L 96.915097 33.81019 
L 97.050979 33.594477 
L 97.325242 35.275619 
L 97.480898 35.250305 
L 97.533973 34.67409 
L 97.778209 33.664123 
L 97.874802 36.551846 
L 98.082346 30.756426 
L 98.184106 35.079578 
L 98.495911 39.25504 
L 98.63442 38.844212 
L 98.837085 37.772339 
L 99.077885 32.454636 
L 99.222225 28.182938 
L 99.348333 29.120143 
L 99.463615 30.890962 
L 99.608439 34.890204 
L 99.77365 30.549475 
L 100.082917 17.866037 
L 100.293159 18.260812 
L 100.498355 31.212912 
L 100.598999 30.370019 
L 100.771378 36.557969 
L 100.973672 33.805988 
L 101.053247 29.964512 
L 101.323265 35.918513 
L 101.46279 33.785342 
L 101.907931 13.25596 
L 102.183844 17.298206 
L 103.043615 31.843567 
L 103.181114 33.078364 
L 103.317945 35.971449 
L 103.579501 37.067722 
L 103.732561 30.347665 
L 103.86632 34.782513 
L 103.900418 40.874892 
L 104.122371 35.539476 
L 104.185046 36.168973 
L 104.389578 37.737808 
L 104.451775 35.361946 
L 104.591651 35.724106 
L 104.872578 39.691934 
L 105.001701 39.029345 
L 105.049772 41.328508 
L 105.215874 38.234073 
L 105.450575 23.855393 
L 105.728488 21.523756 
L 105.809304 15.669895 
L 105.864984 20.173221 
L 106.004184 21.276535 
L 106.175472 19.343452 
L 106.351818 15.463535 
L 106.429004 8.674101 
L 106.622608 10.208442 
L 106.726073 13.607213 
L 106.984917 13.528914 
L 107.071689 8.679255 
L 107.274952 10.870999 
L 107.308881 14.653455 
L 107.532484 13.974772 
L 107.997625 4.827543 
L 108.171251 0.72 
L 108.583238 17.945856 
L 108.719575 15.879073 
L 109.140849 36.488544 
L 109.310631 36.649181 
L 109.558869 47.559101 
L 109.722225 47.391855 
L 109.859254 48.869444 
L 109.997445 45.687342 
L 110.134253 45.098155 
L 110.451979 32.892581 
L 110.583511 29.704047 
L 110.721475 35.807881 
L 110.826136 33.099221 
L 111.033758 30.665658 
L 111.134726 28.131247 
L 111.30901 28.579171 
L 111.444669 26.805628 
L 111.554023 32.048018 
L 111.72312 31.273344 
L 111.752376 30.13627 
L 111.925368 29.792661 
L 112.133087 37.027847 
L 112.271725 39.173192 
L 112.409572 37.384262 
L 112.754028 26.406725 
L 112.85413 33.493677 
L 112.998149 31.158945 
L 113.096528 36.023254 
L 113.341089 38.607057 
L 113.579203 26.740876 
L 113.723825 25.620216 
L 113.957358 38.498949 
L 114.096105 47.151469 
L 114.343677 47.279613 
L 114.37747 48.48881 
L 114.687342 44.24138 
L 114.828405 47.484442 
L 114.965579 54.003232 
L 115.133719 52.708859 
L 115.445503 39.769109 
L 115.718093 33.58737 
L 115.819188 28.518317 
L 115.957096 28.448505 
L 116.095532 26.22104 
L 116.241245 26.138613 
L 116.370738 26.288347 
L 116.542714 28.522873 
L 116.815827 27.374816 
L 117.102509 36.66206 
L 117.24142 31.069839 
L 117.382483 38.39347 
L 117.651518 42.564083 
L 117.717993 31.184067 
L 117.920568 25.279016 
L 118.057706 29.130998 
L 118.089953 35.799998 
L 118.263154 36.167549 
L 118.366758 33.347018 
L 118.674777 42.629506 
L 118.950023 25.425841 
L 119.0886 33.539181 
L 119.293627 36.895635 
L 119.501273 32.31354 
L 119.644294 37.079339 
L 119.793185 35.876897 
L 120.0358 31.529875 
L 120.361629 54.252245 
L 120.77294 44.644631 
L 120.911247 43.538793 
L 121.08296 39.555992 
L 121.224402 40.522729 
L 121.393767 40.034701 
L 121.669992 26.155041 
L 121.908828 23.053325 
L 122.114337 22.780411 
L 122.219009 22.407418 
L 122.561131 20.212703 
L 122.803361 12.028455 
L 122.905141 11.088346 
L 123.111761 12.820005 
L 123.371553 20.262015 
L 123.698591 29.425143 
L 123.917567 26.161646 
L 124.319331 32.938217 
L 124.663317 32.792011 
L 124.964268 27.042228 
L 125.074282 24.469223 
L 125.21421 31.585293 
L 125.378039 27.505724 
L 125.60218 34.94918 
L 125.835861 40.279841 
L 125.913807 38.082247 
L 126.077783 41.252063 
L 126.315972 39.2634 
L 126.591508 43.232474 
L 126.698439 42.436132 
L 126.76903 51.091999 
L 127.04388 42.582025 
L 127.321538 52.377619 
L 127.455908 47.953612 
L 127.732134 57.562213 
L 127.873452 50.107032 
L 128.190381 40.770882 
L 128.315787 47.250472 
L 128.451825 48.128023 
L 128.740783 23.92519 
L 129.023905 32.711897 
L 129.174773 31.919343 
L 129.450769 37.165205 
L 129.584159 36.427224 
L 129.863945 28.678183 
L 129.996333 37.661571 
L 130.029778 47.970415 
L 130.305271 50.036612 
L 130.444491 44.411571 
L 130.716962 47.866872 
L 130.858827 49.040998 
L 131.000004 46.299965 
L 131.164646 48.859315 
L 131.303462 53.330133 
L 131.440361 51.490824 
L 131.714557 38.968091 
L 131.852625 36.489863 
L 131.989397 40.962708 
L 132.161417 38.304556 
L 132.300417 33.980602 
L 132.437735 33.694733 
L 132.576219 30.703977 
L 132.711872 35.464993 
L 132.851474 33.833849 
L 133.123587 40.020091 
L 133.296476 45.030506 
L 133.433845 35.501018 
L 133.707893 48.173526 
L 133.845954 46.845256 
L 134.000257 53.009958 
L 134.260881 38.625464 
L 134.3998 41.087213 
L 134.605269 38.768784 
L 134.704783 34.928638 
L 134.848424 40.534558 
L 135.15095 24.19579 
L 135.256631 33.32459 
L 135.407629 29.217538 
L 135.70189 39.415842 
L 135.839433 36.035222 
L 135.980791 37.433401 
L 136.253456 36.411885 
L 136.56492 45.919421 
L 136.676214 33.792652 
L 136.84132 31.696016 
L 137.11558 34.111665 
L 137.27449 35.01856 
L 137.318999 34.87271 
L 137.390369 32.982755 
L 137.674528 37.355625 
L 137.700394 31.015993 
L 137.846268 27.608479 
L 138.113866 29.602528 
L 138.252483 36.025453 
L 138.392219 33.210179 
L 138.526966 27.747884 
L 138.873242 36.633095 
L 138.975584 32.993148 
L 139.114006 34.805648 
L 139.320468 39.778681 
L 139.388091 33.221135 
L 139.525007 32.898086 
L 139.80216 36.33674 
L 140.014633 37.464327 
L 140.258875 28.539618 
L 140.400506 31.99945 
L 140.529415 36.949593 
L 140.770354 36.662868 
L 140.876212 41.334668 
L 140.942095 40.667164 
L 141.389503 28.43447 
L 141.424096 34.006875 
L 141.767305 39.69049 
L 141.839271 34.821556 
L 141.976242 38.016511 
L 142.116181 30.217799 
L 142.291226 30.657345 
L 142.631507 39.913081 
L 142.766151 39.062184 
L 142.940217 28.133416 
L 143.112998 28.242468 
L 143.216707 39.762012 
L 143.247839 34.062568 
L 143.386829 30.392969 
L 143.730234 36.605741 
L 143.935104 33.449412 
L 144.071745 40.647493 
L 144.210698 37.389722 
L 144.347884 47.639456 
L 144.725757 37.673902 
L 144.866942 41.681077 
L 145.036271 39.884265 
L 145.138688 33.881478 
L 145.31115 32.139349 
L 145.441928 28.108863 
L 145.485403 30.480858 
L 145.689753 30.943854 
L 145.828761 29.858618 
L 145.930587 30.291254 
L 146.135754 26.897654 
L 146.410591 31.826426 
L 146.644294 32.626178 
L 146.753527 35.914517 
L 146.822881 35.566929 
L 147.14836 44.081998 
L 147.268356 36.507319 
L 147.546374 42.22153 
L 147.825198 31.268253 
L 148.060364 37.479102 
L 148.201905 38.426102 
L 148.490314 27.36953 
L 149.061107 45.496086 
L 149.209463 45.562285 
L 149.337181 38.39588 
L 149.475324 38.207424 
L 149.678402 39.45353 
L 149.754773 44.735544 
L 150.090573 51.551017 
L 150.506736 37.196877 
L 150.611515 39.805013 
L 150.779534 47.466772 
L 151.162021 41.294426 
L 151.227953 33.781511 
L 151.465531 36.058544 
L 151.60306 36.817202 
L 151.809566 36.129304 
L 151.954896 36.346717 
L 152.064355 30.311183 
L 152.324492 24.599259 
L 152.465654 24.761523 
L 152.599601 24.19209 
L 152.677657 31.785722 
L 152.914852 23.512768 
L 153.191971 31.545114 
L 153.327285 40.126145 
L 153.53302 43.958836 
L 153.704944 44.05523 
L 153.879842 40.980228 
L 153.911989 35.343946 
L 154.189489 31.18091 
L 154.357979 29.529286 
L 154.564582 22.508991 
L 154.804947 8.889776 
L 154.910676 8.144348 
L 155.216767 18.822548 
L 155.457755 24.843934 
L 155.731756 29.134389 
L 156.315711 40.046841 
L 156.593369 29.04778 
L 156.728469 33.250836 
L 156.86787 31.704047 
L 157.106971 33.365001 
L 157.243638 35.585313 
L 157.313402 33.73488 
L 157.622842 39.360416 
L 157.75955 34.498128 
L 157.865017 40.762196 
L 158.177974 39.081683 
L 158.346124 43.065645 
L 158.518828 41.144559 
L 158.586516 37.837692 
L 158.724347 37.876309 
L 158.866903 32.807466 
L 159.017606 33.475094 
L 159.138574 34.671566 
L 159.584559 27.436899 
L 159.857861 35.845143 
L 160.042635 35.981389 
L 160.133484 29.751548 
L 160.570653 17.267089 
L 160.993028 24.953192 
L 161.131298 20.197629 
L 161.282986 20.421113 
L 161.681825 26.253841 
L 161.824408 45.923266 
L 161.992148 49.72245 
L 162.128531 48.5254 
L 162.491611 51.423589 
L 162.551103 49.047315 
L 162.679878 49.535482 
L 162.987854 59.261731 
L 163.125587 57.487814 
L 163.2643 49.34998 
L 163.401301 51.937294 
L 163.538011 58.764766 
L 163.983011 54.592131 
L 164.395644 41.35155 
L 164.535051 39.413625 
L 164.672125 46.763896 
L 164.810038 39.841292 
L 165.009954 35.859467 
L 165.116412 39.334523 
L 165.255294 39.104176 
L 165.392467 39.188095 
L 165.529825 37.97061 
L 165.674171 37.992604 
L 165.816277 42.080009 
L 165.947187 42.48637 
L 166.115912 33.732046 
L 166.255114 37.541841 
L 166.389011 35.58367 
L 166.537034 24.841146 
L 166.66627 25.698561 
L 166.802163 29.549621 
L 166.944536 37.277592 
L 167.091175 38.176043 
L 167.21994 34.507968 
L 167.4016 34.603395 
L 167.602199 42.716649 
L 167.664336 42.243032 
L 167.807054 41.443849 
L 167.938667 41.392053 
L 168.079453 31.636485 
L 168.112359 33.751931 
L 168.217782 35.71944 
L 168.52902 29.743088 
L 168.666725 33.012913 
L 168.839852 31.595595 
L 168.938481 28.817813 
L 169.075452 32.404456 
L 169.21328 31.328563 
L 169.521992 41.206729 
L 169.670234 37.658255 
L 169.803567 40.950775 
L 170.01151 40.427192 
L 170.236491 39.240633 
L 170.39003 35.233321 
L 170.62997 24.837208 
L 170.767534 25.999351 
L 171.040451 26.116097 
L 171.108642 30.080303 
L 171.232783 29.476858 
L 171.350198 24.267232 
L 171.625842 24.93617 
L 171.83019 22.875442 
L 172.007567 27.471508 
L 172.069801 38.45389 
L 172.210996 42.363649 
L 172.519613 41.207106 
L 172.670577 37.235536 
L 172.75864 40.674285 
L 173.068919 43.242652 
L 173.379678 40.027543 
L 173.660024 28.626089 
L 173.763855 31.988612 
L 173.894137 29.438997 
L 174.066021 32.067273 
L 174.204711 37.295495 
L 174.480029 29.932961 
L 174.653812 38.018823 
L 174.893422 40.911148 
L 174.927342 37.718641 
L 175.167454 34.958214 
L 175.308053 31.488565 
L 175.345579 32.110604 
L 175.511602 32.114625 
L 175.613962 25.245484 
L 175.768 28.242391 
L 175.888497 27.577133 
L 176.030781 24.966804 
L 176.26108 23.470878 
L 176.611195 29.206377 
L 176.885772 25.399247 
L 177.092055 29.256479 
L 177.229351 26.930049 
L 177.437252 34.993976 
L 177.64298 18.414118 
L 177.747338 22.124503 
L 177.883065 26.253751 
L 178.021586 20.240935 
L 178.195678 23.99323 
L 178.301005 18.378776 
L 178.46727 16.149278 
L 178.640258 19.466652 
L 178.914515 7.717906 
L 178.948658 13.428911 
L 179.166923 23.041325 
L 179.361552 13.89518 
L 179.740106 33.278521 
L 179.944396 33.902554 
L 180.012993 32.616823 
L 180.289226 42.520191 
L 180.596199 36.25957 
L 180.768329 42.625414 
L 180.905797 43.055781 
L 181.078234 38.064783 
L 181.217892 37.934113 
L 181.458883 27.321789 
L 181.5997 26.403914 
L 181.734975 26.980681 
L 181.875502 32.37671 
L 182.077938 34.968454 
L 182.145863 30.573824 
L 182.352754 31.417391 
L 182.592254 20.835917 
L 183.040589 36.632551 
L 183.212182 36.555861 
L 183.284555 31.125587 
L 183.452084 32.115303 
L 183.589933 41.757401 
L 183.726907 36.175276 
L 184.004898 36.555773 
L 184.134723 45.425779 
L 184.161116 44.455367 
L 184.471931 30.658242 
L 184.756567 41.663118 
L 184.996588 31.298618 
L 185.304478 42.802424 
L 185.58068 38.35652 
L 185.682862 38.550365 
L 185.758922 42.367143 
L 185.889326 40.655292 
L 186.012269 34.919668 
L 186.164536 34.378558 
L 186.303674 40.308839 
L 186.793282 22.883054 
L 186.859506 22.989062 
L 186.992272 21.166293 
L 187.128877 21.864686 
L 187.301105 28.869755 
L 187.624922 23.208994 
L 187.784337 20.808272 
L 187.852667 24.763024 
L 188.031051 24.427613 
L 188.172854 30.391488 
L 188.335097 26.050061 
L 188.541947 24.649813 
L 188.648729 33.058206 
L 188.878382 31.449912 
L 188.99049 29.602151 
L 189.129459 31.96799 
L 189.279211 30.500316 
L 189.405025 35.79612 
L 189.546059 29.943584 
L 189.678332 32.420531 
L 189.817265 32.14219 
L 190.065327 30.452892 
L 190.129881 30.498834 
L 190.267183 32.260207 
L 190.403147 29.981095 
L 190.54066 33.84872 
L 190.713606 31.398709 
L 190.850149 31.984842 
L 190.953007 30.546949 
L 191.162012 30.18394 
L 191.301614 27.613512 
L 191.43715 27.882248 
L 191.575428 29.70065 
L 191.735161 29.309994 
L 191.822366 35.081377 
L 192.093764 30.223123 
L 192.264845 26.695595 
L 192.712188 36.482795 
L 192.95576 18.339816 
L 193.092775 22.950669 
L 193.239856 16.443326 
L 193.265828 32.303463 
L 193.401329 15.922569 
L 193.509354 15.985694 
L 193.818072 9.467688 
L 193.963981 10.182114 
L 194.228053 23.387728 
L 194.364671 30.352924 
L 194.510013 24.33929 
L 194.676905 22.72769 
L 194.950799 31.398693 
L 195.101581 39.733885 
L 195.240464 36.676378 
L 195.499923 35.575311 
L 195.568049 27.831833 
L 195.671256 32.346474 
L 195.845858 27.71014 
L 195.95183 28.614135 
L 196.089566 32.062915 
L 196.227392 38.38699 
L 196.501912 29.9201 
L 196.810933 46.858087 
L 196.948642 46.909821 
L 197.188346 42.550855 
L 197.258439 48.447361 
L 197.395905 45.606485 
L 197.634514 32.739164 
L 197.77213 40.498298 
L 197.909778 40.716016 
L 198.081624 34.122191 
L 198.252364 32.546185 
L 198.432375 32.303702 
L 198.671511 16.222043 
L 199.047897 40.671638 
L 199.214403 30.138652 
L 199.377692 31.41613 
L 199.624908 22.643497 
L 200.10916 32.993339 
L 200.278535 34.235586 
L 200.553548 18.830143 
L 200.931694 39.124466 
L 201.111502 39.229668 
L 201.206103 40.816718 
L 201.402372 37.714506 
L 201.587509 41.917059 
L 201.619362 41.421004 
L 201.859872 39.996025 
L 201.92961 47.333535 
L 202.067115 45.652081 
L 202.239139 38.566835 
L 202.375944 38.394895 
L 202.512709 39.48409 
L 202.619328 37.296043 
L 202.787831 41.6869 
L 203.06366 34.995539 
L 203.307569 37.01729 
L 203.33962 34.879075 
L 203.478473 33.635378 
L 203.509406 38.449075 
L 203.650898 37.649133 
L 204.027293 25.296578 
L 204.164631 23.811431 
L 204.336249 27.182538 
L 204.478544 22.875775 
L 204.610829 22.75821 
L 204.914626 9.604948 
L 205.223536 18.199971 
L 205.29837 18.808431 
L 205.463199 24.634939 
L 205.772606 19.310869 
L 206.155193 36.906557 
L 206.183262 36.862419 
L 206.3885 37.696422 
L 206.492047 35.476482 
L 206.602745 37.678815 
L 206.628903 30.08591 
L 206.733585 42.822883 
L 206.909853 42.636056 
L 207.181315 49.332293 
L 207.317769 41.959976 
L 207.560196 37.465875 
L 207.741784 41.840721 
L 208.043059 38.598813 
L 208.184893 29.034823 
L 208.291553 30.067671 
L 208.512164 29.574218 
L 208.628578 30.564766 
L 208.77071 35.300266 
L 209.144884 22.145977 
L 209.28403 25.60632 
L 209.454941 25.991325 
L 209.569519 34.886941 
L 209.800532 36.618245 
L 209.935932 34.317673 
L 210.146793 32.839703 
L 210.21085 34.77316 
L 210.438175 54.299669 
L 210.658712 60.416298 
L 210.700611 57.953091 
L 210.866927 55.666139 
L 211.277943 45.501904 
L 211.587778 52.895325 
L 211.725838 41.518428 
L 211.897564 42.442746 
L 212.002315 40.645802 
L 212.175899 39.700783 
L 212.757149 52.637691 
L 212.998945 49.507903 
L 213.06869 43.961508 
L 213.10145 45.774794 
L 213.137974 52.884837 
L 213.274904 51.522717 
L 213.550393 43.523337 
L 213.790742 43.459199 
L 214.000153 46.210302 
L 214.173397 47.061077 
L 214.34467 47.18177 
L 214.687054 33.223582 
L 214.996343 41.313077 
L 215.133016 41.634955 
L 215.410522 29.849076 
L 215.544611 29.698457 
L 215.6819 31.237217 
L 215.818753 30.256072 
L 216.166908 38.792759 
L 216.404175 26.753427 
L 216.543109 28.725642 
L 216.816092 35.26483 
L 216.958992 34.349586 
L 217.262619 31.531367 
L 217.540726 20.386014 
L 217.6745 30.304463 
L 217.984509 36.577693 
L 218.112265 31.48288 
L 218.441214 33.069622 
L 218.639211 33.499084 
L 218.816425 39.6398 
L 218.855759 47.372719 
L 218.947592 46.968793 
L 219.385654 38.460756 
L 219.669546 38.529445 
L 219.807349 37.700969 
L 220.041723 38.762111 
L 220.235751 26.327435 
L 220.420413 28.123135 
L 220.661699 38.363001 
L 220.801559 39.258335 
L 220.97012 37.971488 
L 221.213313 29.886907 
L 221.364308 28.809394 
L 221.55467 34.684578 
L 221.664188 44.441862 
L 221.849757 41.152451 
L 222.232062 31.376977 
L 222.399033 26.359001 
L 222.708428 34.357294 
L 222.810429 32.866132 
L 223.054788 32.319438 
L 223.157908 34.669041 
L 223.259108 39.547554 
L 223.363387 32.902812 
L 223.396575 21.22062 
L 223.921452 52.272201 
L 224.335876 59.171934 
L 224.638432 37.161868 
L 225.122743 41.6163 
L 225.43036 34.512004 
L 225.772962 18.697223 
L 225.910818 19.768004 
L 226.0487 32.831361 
L 226.32472 39.437833 
L 226.463363 34.285194 
L 226.634277 35.326394 
L 226.854994 33.526717 
L 227.046321 39.453523 
L 227.259744 58.34144 
L 227.35513 54.817019 
L 227.495326 47.574026 
L 227.631009 48.007101 
L 227.808194 46.772478 
L 228.019573 41.984459 
L 228.113647 36.153292 
L 228.181246 36.504255 
L 228.318355 33.932937 
L 228.661013 20.230164 
L 228.903092 27.805826 
L 229.191845 20.175168 
L 229.315157 30.199839 
L 229.45316 30.033212 
L 229.768306 14.520763 
L 229.925589 13.929089 
L 230.071964 16.044095 
L 230.175126 13.30916 
L 230.451737 22.466107 
L 230.656854 21.733556 
L 230.826916 16.457434 
L 231.171839 33.241353 
L 231.410614 35.943439 
L 231.455202 40.304617 
L 231.649833 43.949612 
L 231.72293 37.713212 
L 231.924211 36.503189 
L 232.031391 40.528999 
L 232.170216 35.691388 
L 232.306565 36.201125 
L 232.509845 43.639349 
L 232.583461 40.06373 
L 232.773351 39.227706 
L 232.877012 37.836449 
L 233.050568 38.27586 
L 233.080229 48.482441 
L 233.566026 28.637665 
L 233.632352 32.006854 
L 233.873391 32.181451 
L 233.911787 31.594516 
L 234.008819 33.095761 
L 234.145523 32.864827 
L 234.286532 30.948142 
L 234.421541 22.218634 
L 234.592354 23.507425 
L 234.972194 33.562127 
L 235.006843 31.315498 
L 235.14462 34.855091 
L 235.281771 25.710561 
L 235.453626 25.202341 
L 235.782786 26.759137 
L 236.00458 38.56827 
L 236.148819 33.459203 
L 236.346669 36.49801 
L 236.450604 47.443492 
L 236.588135 44.026456 
L 236.89966 56.074093 
L 236.999573 48.018507 
L 237.414254 41.956165 
L 237.459911 35.22874 
L 237.583611 40.940362 
L 237.897785 33.833676 
L 238.030293 35.816944 
L 238.338597 29.762872 
L 238.58294 41.522765 
L 238.719336 39.492877 
L 238.898344 34.78507 
L 238.963876 29.134683 
L 239.130627 34.053991 
L 239.405399 20.332628 
L 239.5781 24.572189 
L 239.821212 14.685182 
L 239.990349 15.313942 
L 240.128393 15.110707 
L 240.263921 24.636281 
L 240.541691 22.792671 
L 240.823753 32.686872 
L 240.985942 26.464671 
L 241.12213 34.23511 
L 241.369828 31.851789 
L 241.464864 32.358152 
L 241.568885 34.317261 
L 241.739767 33.193505 
L 241.880658 39.191506 
L 241.978902 35.8279 
L 242.116452 23.784238 
L 242.391367 29.510694 
L 242.536228 24.1868 
L 242.56219 26.737369 
L 242.700087 30.187959 
L 242.83886 26.997811 
L 242.975062 31.289886 
L 243.285777 23.885969 
L 243.492279 26.902163 
L 243.55974 39.621526 
L 243.663647 30.162186 
L 243.900031 28.622434 
L 243.972126 29.486113 
L 244.246706 27.765815 
L 244.355186 35.722647 
L 244.453242 25.630671 
L 244.55618 27.104541 
L 244.704973 32.749824 
L 244.805118 31.344022 
L 245.255511 37.343053 
L 245.360708 41.353721 
L 245.595987 42.069214 
L 245.667871 37.115203 
L 245.839795 38.873811 
L 246.217595 25.909839 
L 246.354403 26.016526 
L 246.525823 22.705398 
L 246.767765 21.645668 
L 246.841012 15.751584 
L 247.042089 16.671257 
L 247.249346 25.975635 
L 247.384739 29.270705 
L 247.522434 28.892034 
L 247.664022 30.713626 
L 247.802667 25.638414 
L 248.081999 32.890354 
L 248.381691 38.188513 
L 248.536893 35.045318 
L 248.637128 37.000613 
L 248.770396 36.978414 
L 249.421407 48.699075 
L 249.488076 46.269549 
L 249.694629 44.561216 
L 249.904538 40.102443 
L 250.212065 45.601573 
L 250.350055 46.565783 
L 250.485783 49.975843 
L 250.760409 45.602313 
L 250.898038 48.979352 
L 251.042126 47.956855 
L 251.20759 48.641743 
L 251.346013 46.342373 
L 251.62171 40.305933 
L 251.762328 40.331522 
L 251.907476 37.235025 
L 252.034511 41.543741 
L 252.342521 37.586355 
L 252.479009 42.142961 
L 252.617807 37.360005 
L 252.756524 42.340261 
L 252.89425 39.892293 
L 253.204429 22.952071 
L 253.315302 32.756399 
L 253.480204 28.712779 
L 253.654922 28.655313 
L 253.757945 30.218429 
L 253.894177 27.050252 
L 254.046633 28.929737 
L 254.324374 27.048341 
L 254.47099 28.808234 
L 254.61646 28.198873 
L 254.755462 26.597906 
L 254.894678 29.679457 
L 255.034325 29.689383 
L 255.176901 28.379457 
L 255.303168 31.761176 
L 255.442154 31.069738 
L 255.726369 38.185436 
L 256.027605 43.683921 
L 256.158732 43.784952 
L 256.29762 44.412398 
L 256.445524 46.919838 
L 256.719832 36.742437 
L 256.915716 38.023511 
L 257.162374 26.058402 
L 257.467388 30.273739 
L 257.673 30.322125 
L 257.997574 45.325446 
L 258.138267 43.802701 
L 258.333135 39.406881 
L 258.573677 51.496006 
L 258.766275 50.377694 
L 258.850301 49.200644 
L 259.035495 50.057164 
L 259.135734 48.224934 
L 259.434576 33.02527 
L 259.718739 32.600967 
L 259.88246 27.736745 
L 260.156872 26.592835 
L 260.294606 23.799789 
L 260.603988 16.534135 
L 260.981599 31.765082 
L 261.120056 28.605662 
L 261.153328 34.171319 
L 261.29337 31.490231 
L 261.496631 31.052681 
L 261.636139 29.833339 
L 261.841051 38.459496 
L 261.980853 38.498421 
L 262.150173 38.208572 
L 262.254241 29.694278 
L 262.426015 33.26504 
L 262.595757 31.650995 
L 262.874086 40.420311 
L 263.565528 24.548361 
L 263.709507 29.373047 
L 263.866566 29.995623 
L 264.141843 18.802636 
L 264.381641 18.086773 
L 264.588731 23.446047 
L 264.692141 23.275395 
L 264.829305 24.798244 
L 265.109739 26.007811 
L 265.139206 19.500744 
L 265.276639 17.791375 
L 265.446645 21.920485 
L 265.974102 11.731647 
L 266.100974 13.308523 
L 266.334376 14.0146 
L 266.379093 17.302047 
L 266.581117 19.020381 
L 266.835811 23.732603 
L 266.856001 28.595183 
L 267.130705 34.200562 
L 267.302829 38.419517 
L 267.50949 38.684775 
L 267.54432 37.655147 
L 267.697425 38.569982 
L 267.865045 37.091932 
L 267.956708 38.729987 
L 268.688649 22.152402 
L 269.135455 39.497422 
L 269.343421 32.583067 
L 269.376148 35.459842 
L 269.650111 32.529638 
L 269.661981 31.106258 
L 269.832845 31.189241 
L 270.005459 30.097225 
L 270.144986 32.426042 
L 270.244893 25.528229 
L 270.385233 25.153397 
L 270.563339 16.880852 
L 270.657825 21.479357 
L 270.832389 15.928105 
L 270.966261 19.984998 
L 271.206085 23.453903 
L 271.65424 39.820829 
L 271.791482 40.453297 
L 272.136394 45.55356 
L 272.377096 47.901226 
L 272.694342 39.664489 
L 273.095908 36.860099 
L 273.533251 25.553567 
L 273.671082 28.424939 
L 273.911293 22.702716 
L 274.089766 32.278286 
L 274.1886 35.421834 
L 274.564134 26.159557 
L 274.631982 28.859989 
L 274.941809 29.787337 
L 275.18135 27.917417 
L 275.284215 37.811671 
L 275.422337 36.076277 
L 275.627826 26.577978 
L 275.769856 21.863486 
L 275.938935 29.501193 
L 276.076679 25.777733 
L 276.2131 26.534751 
L 276.487963 32.45926 
L 276.630596 27.098017 
L 276.83299 25.474461 
L 277.210205 39.563455 
L 277.486021 48.532951 
L 277.928139 39.032046 
L 278.146941 41.142162 
L 278.313062 41.645537 
L 278.352581 37.978256 
L 278.685588 31.72293 
L 278.932999 18.743573 
L 279.033962 25.377111 
L 279.170754 24.817063 
L 279.307196 29.066233 
L 279.478503 24.279408 
L 279.617308 26.262088 
L 279.758994 24.993732 
L 280.203185 34.336635 
L 280.305428 34.90158 
L 280.583744 33.533476 
L 280.613957 38.005869 
L 280.932406 36.707399 
L 281.133209 37.804453 
L 281.27414 39.857544 
L 281.30147 29.143978 
L 281.337174 35.235366 
L 281.471964 26.890831 
L 281.615575 26.963591 
L 281.889098 35.138196 
L 282.024718 32.872454 
L 282.268383 39.018206 
L 282.436153 36.238958 
L 282.607748 38.318278 
L 282.882714 45.562756 
L 283.020166 46.120969 
L 283.298753 31.073556 
L 283.438452 33.317641 
L 283.582907 30.257138 
L 283.740852 33.689883 
L 283.879598 32.196312 
L 284.017308 32.681731 
L 284.154248 26.379363 
L 284.2915 30.443998 
L 284.469248 27.726973 
L 284.710352 44.228867 
L 284.877876 44.45065 
L 285.153268 40.812782 
L 285.565222 44.303558 
L 285.636736 51.705709 
L 285.842653 50.435955 
L 286.149604 39.216862 
L 286.287068 42.044965 
L 286.568428 38.079881 
L 286.99533 33.582263 
L 287.096832 27.337381 
L 287.14629 29.926172 
L 287.299507 32.566195 
L 287.526529 32.137327 
L 287.629149 29.047808 
L 287.697754 21.766695 
L 287.837161 25.369828 
L 288.078057 25.733723 
L 288.424588 39.43983 
L 288.593209 36.626592 
L 288.730334 40.603352 
L 288.836182 39.775368 
L 289.142813 46.578296 
L 289.281784 59.20297 
L 289.41728 60.555629 
L 289.555506 57.580859 
L 289.693795 57.358217 
L 289.969789 52.089931 
L 290.012987 54.712002 
L 290.196459 51.356929 
L 290.332604 54.7611 
L 290.696261 42.587009 
L 290.826197 42.193792 
L 290.963347 38.519133 
L 291.271558 34.638579 
L 292.544042 15.571088 
L 292.887213 18.164138 
L 292.954752 21.841052 
L 293.130031 18.18344 
L 293.298279 23.501523 
L 293.504147 23.742721 
L 293.538354 29.282073 
L 293.710348 28.777444 
L 293.965726 36.396851 
L 294.233595 37.789778 
L 294.36887 33.742135 
L 294.569114 34.586477 
L 294.711132 31.152029 
L 294.850651 36.59513 
L 294.949522 35.151193 
L 295.251547 38.705868 
L 295.263072 40.869685 
L 295.39784 39.115542 
L 295.535161 34.784008 
L 295.673603 36.125583 
L 295.859293 40.72633 
L 295.988551 41.028027 
L 296.49868 27.593915 
L 296.570786 17.59311 
L 296.811736 20.328969 
L 296.980983 26.239031 
L 297.15537 28.138534 
L 297.297476 26.464284 
L 297.53231 35.337006 
L 297.671723 36.509192 
L 297.979329 46.168785 
L 298.081693 45.076007 
L 298.358736 37.657483 
L 298.563702 35.576419 
L 298.665398 41.027755 
L 298.873125 36.850888 
L 299.009647 36.366684 
L 299.115861 36.843662 
L 299.318019 34.158738 
L 299.465864 30.68294 
L 299.524823 23.531842 
L 299.833537 28.168073 
L 300.075627 21.174561 
L 300.212614 20.337874 
L 300.351199 16.607926 
L 300.487222 18.510655 
L 300.624755 13.772349 
L 300.93467 22.045303 
L 301.070781 24.217383 
L 301.242859 22.974753 
L 301.379544 27.993568 
L 301.69213 22.163131 
L 301.793606 26.648663 
L 301.929959 18.651273 
L 302.721658 30.286222 
L 302.796278 28.45225 
L 303.063896 38.266431 
L 303.235788 37.929544 
L 303.340506 47.788689 
L 303.475149 49.189126 
L 303.765262 43.807118 
L 303.894074 42.930817 
L 304.046341 38.903896 
L 304.322863 38.658881 
L 304.347962 39.983673 
L 304.483842 36.229982 
L 304.627564 35.797522 
L 304.804236 33.560819 
L 304.902787 28.931238 
L 305.12796 33.704698 
L 305.211574 32.169451 
L 305.451091 37.764514 
L 305.488085 33.245971 
L 305.830405 38.595668 
L 305.938576 37.597983 
L 306.142137 40.941289 
L 306.179583 39.024208 
L 306.356188 44.399665 
L 306.45999 41.398179 
L 306.594352 46.133714 
L 306.728396 44.071727 
L 306.898407 49.296742 
L 307.021999 48.713303 
L 307.224782 50.557082 
L 307.478622 56.097446 
L 307.623628 56.758767 
L 307.77549 52.120598 
L 307.915336 51.65721 
L 308.088606 45.487266 
L 308.166695 47.387034 
L 308.462635 50.540113 
L 308.598982 40.686172 
L 308.73628 43.585931 
L 308.882252 41.231138 
L 309.046032 42.067702 
L 309.1549 50.329959 
L 309.320166 49.529898 
L 309.459153 50.25437 
L 309.630334 45.37615 
L 309.835398 43.023845 
L 309.939498 39.534659 
L 310.047796 41.393809 
L 310.59457 24.019285 
L 310.729108 25.878433 
L 311.004873 38.340509 
L 311.141574 38.066638 
L 311.279786 35.048542 
L 311.450644 35.713455 
L 311.587113 39.286896 
L 311.724549 35.969562 
L 311.999019 46.041424 
L 312.14607 43.227482 
L 312.279951 33.749102 
L 312.428313 31.904694 
L 312.560925 34.109766 
L 312.698212 39.751338 
L 313.002281 40.443413 
L 313.20491 43.344165 
L 313.27713 43.023092 
L 313.416737 39.868587 
L 313.555456 41.582799 
L 313.692753 52.003593 
L 313.861593 52.734615 
L 314.138224 49.992701 
L 314.275994 51.564519 
L 314.413125 50.354683 
L 314.607143 44.657252 
L 314.696794 38.675677 
L 314.995454 37.526613 
L 315.271959 29.570344 
L 315.408155 28.743554 
L 315.68317 19.52819 
L 315.717331 25.494107 
L 315.828338 22.932626 
L 315.993617 28.870805 
L 316.177864 28.61263 
L 316.266761 28.246654 
L 316.404709 26.85552 
L 316.542143 26.884692 
L 316.960109 36.760761 
L 317.129675 35.562683 
L 317.401384 27.463464 
L 317.81386 44.093424 
L 318.122058 41.706447 
L 318.233827 42.558788 
L 318.364683 47.01649 
L 318.571054 46.748902 
L 318.673615 48.413972 
L 318.842072 54.055365 
L 318.946674 52.438715 
L 319.086199 44.281571 
L 319.240144 43.40034 
L 319.55328 46.352802 
L 319.839125 37.444873 
L 320.011347 43.124558 
L 320.217326 39.077361 
L 320.368395 40.083727 
L 320.400997 37.445687 
L 320.529504 41.67043 
L 320.975703 34.45426 
L 321.119818 37.76155 
L 321.389002 34.42718 
L 321.599112 33.385426 
L 321.633896 35.321427 
L 321.801779 33.086998 
L 322.213626 42.589377 
L 322.351627 43.703263 
L 322.531273 39.832886 
L 322.663035 43.165139 
L 322.801551 43.119003 
L 323.114191 37.430365 
L 323.223338 41.257641 
L 323.385937 39.943286 
L 323.539705 40.532193 
L 323.65904 37.696476 
L 323.829637 39.295117 
L 323.996179 36.929806 
L 324.099449 33.62951 
L 324.48261 46.553921 
L 324.653911 38.911206 
L 324.9244 45.340544 
L 325.061925 45.210766 
L 325.237529 44.357793 
L 325.349446 50.927157 
L 326.02461 43.306632 
L 326.164101 44.819672 
L 326.36923 31.284043 
L 326.67686 24.851972 
L 326.799074 17.300803 
L 326.952746 20.183966 
L 327.36471 13.115539 
L 327.596895 15.846067 
L 327.935319 32.515632 
L 328.063705 30.505688 
L 328.295655 29.133454 
L 328.472012 35.264348 
L 328.501441 35.248004 
L 328.604556 41.439188 
L 328.881306 46.163052 
L 328.949716 42.35004 
L 329.088185 49.240522 
L 329.332291 42.353123 
L 329.474379 41.532646 
L 329.618865 45.594827 
L 330.12741 36.886758 
L 330.195213 29.526758 
L 330.339614 27.228735 
L 330.47385 22.48158 
L 330.608505 29.835504 
L 330.746138 27.471796 
L 330.951072 32.57197 
L 331.157025 28.151703 
L 331.710495 37.539269 
L 331.775455 46.538408 
L 331.914517 48.499219 
L 332.18774 42.893912 
L 332.325351 42.819026 
L 332.463709 43.489075 
L 332.601033 46.964807 
L 332.7398 41.514671 
L 333.01418 44.802858 
L 333.116024 44.017481 
L 333.233877 38.876204 
L 333.323399 29.753967 
L 333.708748 34.1648 
L 333.822267 32.449972 
L 333.880087 28.981391 
L 334.052714 25.970871 
L 334.257299 29.197464 
L 334.380995 26.414896 
L 334.43008 29.810641 
L 334.603165 31.311161 
L 334.773499 39.448827 
L 334.880238 29.444381 
L 335.014702 27.855961 
L 335.200305 30.075102 
L 335.496755 39.835545 
L 335.598954 38.917332 
L 335.875748 33.067277 
L 336.048733 35.137014 
L 336.185902 28.378541 
L 336.424132 47.980947 
L 336.631587 52.295922 
L 336.901148 47.730906 
L 337.00965 46.571443 
L 337.283783 59.886121 
L 337.421675 54.480898 
L 337.559043 56.362883 
L 337.708925 48.87849 
L 338.00603 41.801685 
L 338.184511 40.899288 
L 338.288145 41.137888 
L 338.573793 42.17393 
L 338.86369 34.959742 
L 339.140395 42.905012 
L 339.345797 45.435833 
L 339.518125 51.460088 
L 339.724537 38.756438 
L 339.862276 37.390108 
L 340.136557 39.243548 
L 340.308931 39.318415 
L 340.412375 37.009641 
L 340.583624 40.060329 
L 340.692003 39.615337 
L 340.824916 43.732973 
L 340.997088 42.599024 
L 341.375687 48.284296 
L 341.513029 44.185533 
L 342.031293 51.054212 
L 342.200604 48.074606 
L 342.270651 48.209463 
L 342.404895 51.432667 
L 342.6816 50.108635 
L 342.852342 50.294586 
L 343.027178 48.358539 
L 343.126738 48.855062 
L 343.263111 48.733259 
L 343.678075 37.823317 
L 343.950539 43.719302 
L 344.226918 38.213096 
L 344.40214 43.756575 
L 344.538954 37.957586 
L 344.672735 37.23778 
L 344.814426 37.886524 
L 345.016318 44.264281 
L 345.290374 37.247413 
L 345.468093 36.16713 
L 345.566675 32.926316 
L 345.914392 28.139424 
L 346.113987 22.795086 
L 346.285855 22.372032 
L 346.395972 16.803034 
L 346.651477 15.552606 
L 346.708291 16.324048 
L 346.807225 23.714324 
L 347.011252 29.662077 
L 347.116574 25.06174 
L 347.945719 46.276015 
L 348.083238 44.211432 
L 348.21793 37.218928 
L 348.368013 36.817001 
L 348.562519 43.147873 
L 348.665328 42.245186 
L 348.820221 41.99897 
L 348.942513 33.043315 
L 349.078675 34.73367 
L 349.216055 33.984582 
L 349.354819 38.604 
L 349.526306 35.178369 
L 349.632401 37.606396 
L 349.936609 32.117638 
L 350.073405 25.853955 
L 350.497101 32.364891 
L 350.842819 33.328703 
L 350.964699 33.283556 
L 351.068378 26.465177 
L 351.376667 27.362466 
L 351.514996 35.713096 
L 351.687434 35.249415 
L 351.894566 35.579459 
L 352.063717 30.236998 
L 352.277063 27.955495 
L 352.339539 29.274285 
L 352.583169 37.687542 
L 352.649527 34.988236 
L 352.791629 35.11697 
L 352.957853 32.250418 
L 353.10515 39.495143 
L 353.440093 32.720783 
L 353.525958 35.725402 
L 353.625325 33.31387 
L 353.650022 39.981688 
L 353.786458 38.156502 
L 353.958765 37.36878 
L 354.199218 33.416994 
L 354.360961 29.387249 
L 354.507415 19.105525 
L 354.679353 19.015528 
L 354.82074 23.433165 
L 354.929755 18.922479 
L 355.165007 14.324732 
L 355.302045 21.186579 
L 355.336004 20.487039 
L 355.471853 21.23057 
L 355.850222 34.431631 
L 355.884834 40.669459 
L 356.055189 39.957618 
L 356.194182 34.141446 
L 356.469186 38.797413 
L 356.603978 31.857799 
L 356.783713 28.578463 
L 356.8791 35.018883 
L 357.36158 25.48395 
L 357.635224 41.092122 
L 357.753241 39.038505 
L 358.190557 48.748535 
L 358.323253 37.526276 
L 358.460662 35.70478 
L 358.666351 39.902876 
L 358.789287 38.229374 
L 359.044987 23.660777 
L 359.182872 24.684089 
L 359.456108 18.120748 
L 359.59636 18.927838 
L 359.732234 30.122126 
L 359.868171 31.047807 
L 360.177236 25.379291 
L 360.291413 31.131949 
L 360.453114 29.695216 
L 360.591056 30.484696 
L 360.727258 34.66756 
L 360.90516 35.658992 
L 361.176694 34.408379 
L 361.315163 30.493343 
L 361.450507 34.221372 
L 361.623929 35.675578 
L 361.895874 40.749455 
L 362.069229 41.050496 
L 362.17303 38.115436 
L 362.282584 42.686521 
L 362.444317 43.04018 
L 362.719887 46.359865 
L 362.963432 43.021475 
L 363.028982 43.908735 
L 363.441962 33.064667 
L 363.579513 37.84564 
L 363.751681 34.116707 
L 363.854038 40.908461 
L 364.127705 37.484664 
L 364.418724 35.136598 
L 364.711746 41.571062 
L 364.951975 41.848709 
L 365.263975 29.806663 
L 365.405697 29.269367 
L 365.572229 24.41637 
L 365.882954 24.14943 
L 366.008399 18.746816 
L 366.191716 18.566023 
L 366.401759 31.840557 
L 366.568695 31.369428 
L 366.6864 24.12541 
L 366.844103 23.601672 
L 367.290366 35.446364 
L 367.530692 40.581913 
L 367.644157 39.241177 
L 367.840015 29.184781 
L 367.979159 30.547659 
L 368.115654 31.469187 
L 368.252487 34.690331 
L 368.390728 34.670384 
L 368.527363 36.841024 
L 368.675368 35.422568 
L 368.974956 31.156017 
L 369.331456 42.485443 
L 369.421582 36.831816 
L 369.563243 41.901002 
L 369.835213 37.701864 
L 370.073492 40.242999 
L 370.281574 34.00889 
L 370.521548 36.957594 
L 370.660632 36.639097 
L 370.96902 46.437856 
L 371.140631 45.62556 
L 371.382445 48.078649 
L 371.655788 47.418926 
L 371.724671 53.508903 
L 371.865276 53.524118 
L 371.93999 52.6768 
L 372.243384 48.605569 
L 372.566102 36.338266 
L 373.109933 22.262256 
L 373.279448 19.936933 
L 373.381808 22.007977 
L 373.653472 22.999483 
L 373.813717 31.31525 
L 374.0731 43.438757 
L 374.244496 42.972663 
L 374.379501 42.176895 
L 374.535704 45.542642 
L 374.664053 45.097201 
L 374.939792 39.381888 
L 375.113259 40.333322 
L 375.216986 37.806839 
L 375.402166 40.336388 
L 375.525587 39.541699 
L 375.797876 48.35172 
L 376.038516 48.460471 
L 376.382172 54.264701 
L 376.519694 47.35284 
L 376.625722 49.134868 
L 376.795258 46.521292 
L 377.081884 36.683522 
L 377.22037 40.602493 
L 377.345669 40.494382 
L 377.519066 39.428813 
L 377.638035 33.083363 
L 377.794237 33.414751 
L 377.985311 35.997455 
L 378.175489 33.203218 
L 378.242907 29.193748 
L 378.416689 30.864507 
L 378.519852 33.216248 
L 378.622553 29.283584 
L 378.931943 25.370085 
L 378.967005 32.034357 
L 379.351026 20.014886 
L 379.660106 26.44165 
L 379.927727 33.549 
L 380.033912 35.164115 
L 380.066944 43.736698 
L 380.348118 44.800772 
L 380.484338 43.245084 
L 380.75859 53.032773 
L 380.930882 53.368705 
L 381.034394 50.602397 
L 381.188028 50.390231 
L 381.204929 46.662025 
L 381.342595 45.823133 
L 381.620606 32.584809 
L 381.757684 32.482335 
L 381.893924 42.325919 
L 382.110602 39.665058 
L 382.205116 43.006634 
L 382.376188 43.454235 
L 382.788359 26.255036 
L 382.976372 26.743162 
L 383.002504 26.430047 
L 383.17288 31.333892 
L 383.316002 23.671155 
L 383.453242 22.615101 
L 383.5922 16.052365 
L 383.727586 15.11079 
L 383.898658 17.320637 
L 384.037014 22.82551 
L 384.174498 23.410127 
L 384.312269 28.17421 
L 384.68984 24.385814 
L 384.757665 24.634662 
L 385.039411 27.8583 
L 385.307151 35.396498 
L 385.481604 34.294621 
L 385.582612 40.216906 
L 386.030108 30.387068 
L 386.237539 29.981373 
L 386.313235 27.598678 
L 386.442983 28.627002 
L 386.579133 23.465615 
L 386.725555 27.22675 
L 387.026727 29.957019 
L 387.200532 33.532785 
L 387.422131 33.519491 
L 387.507477 35.080075 
L 387.715815 41.865526 
L 387.859176 40.62055 
L 387.998752 44.217177 
L 388.197666 46.221133 
L 388.298169 41.088573 
L 388.50348 37.41027 
L 388.675796 36.602445 
L 388.784761 37.296824 
L 388.918581 36.869396 
L 389.022173 32.997492 
L 389.126952 35.42876 
L 389.33855 34.887275 
L 389.45892 32.971133 
L 389.609002 25.237213 
L 389.778341 26.914048 
L 390.091577 33.086585 
L 390.137542 29.715536 
L 390.300486 26.918045 
L 390.500312 27.744882 
L 390.578534 23.426125 
L 390.707929 27.635333 
L 390.848436 25.918877 
L 390.983931 31.238237 
L 391.123909 29.024031 
L 391.33475 27.883447 
L 391.44114 20.049514 
L 391.983744 32.512936 
L 392.149332 28.511919 
L 392.253291 31.250778 
L 392.421647 31.581584 
L 392.559275 37.307788 
L 392.702086 38.296267 
L 392.73004 45.554378 
L 393.112126 50.57235 
L 393.283916 46.244421 
L 393.420799 46.997498 
L 393.692857 43.504055 
L 394.346026 30.157858 
L 394.621369 23.847887 
L 394.689912 23.847062 
L 394.82726 25.163441 
L 394.998712 29.387297 
L 395.104487 26.893046 
L 395.26669 28.310157 
L 395.514781 28.069349 
L 395.593753 28.535773 
L 396.032235 38.471989 
L 396.242559 35.548861 
L 396.444045 33.621676 
L 396.620501 40.273643 
L 396.684074 39.299564 
L 396.890792 40.151257 
L 397.103614 42.15713 
L 397.482435 28.392052 
L 397.516981 35.11683 
L 397.693137 31.491278 
L 397.859218 29.958082 
L 397.962508 27.467118 
L 398.09989 33.075365 
L 398.238749 30.153214 
L 398.581718 18.221774 
L 398.822191 30.230388 
L 398.959067 33.904261 
L 399.247047 26.942058 
L 399.373446 29.815648 
L 399.680286 25.405607 
L 399.959388 39.433397 
L 400.092137 38.475437 
L 400.232312 39.460724 
L 400.401651 38.69698 
L 400.713519 48.784756 
L 400.919473 43.924504 
L 401.09328 44.535449 
L 401.395518 37.52688 
L 401.414643 31.026204 
L 401.523037 31.875775 
L 401.656106 27.270446 
L 401.897215 24.440132 
L 401.965716 26.545774 
L 402.102666 22.767844 
L 402.347924 37.793271 
L 402.494092 39.699307 
L 402.652258 47.460852 
L 402.806921 45.103515 
L 402.926269 51.73374 
L 403.114131 55.774166 
L 403.201923 53.215912 
L 403.385851 52.928722 
L 403.648677 44.831628 
L 403.785008 41.28084 
L 403.927376 40.735474 
L 404.065129 43.42866 
L 404.341605 44.558135 
L 404.476831 48.021751 
L 404.747662 48.441269 
L 404.785937 48.250348 
L 404.924085 51.078106 
L 405.061383 42.790882 
L 405.199714 41.587929 
L 405.336243 44.130198 
L 405.507937 41.302852 
L 405.621636 44.190627 
L 405.785113 28.647636 
L 405.890194 26.58361 
L 405.920089 22.164884 
L 406.14732 22.960559 
L 406.198358 20.72071 
L 406.722956 36.265698 
L 406.785716 27.686615 
L 407.059792 27.091322 
L 407.344979 35.239584 
L 407.470349 44.692594 
L 407.680968 47.253709 
L 407.780099 47.141132 
L 408.060437 32.602574 
L 408.259418 30.377126 
L 408.50122 32.320063 
L 408.706734 36.551186 
L 408.881484 34.561537 
L 409.019211 33.776374 
L 409.187467 31.167111 
L 409.359301 32.909195 
L 409.463215 37.68026 
L 409.6008 38.135767 
L 409.77063 34.309083 
L 409.977533 32.763248 
L 410.045873 28.626635 
L 410.265515 27.472872 
L 410.389819 21.544165 
L 410.574072 19.724949 
L 410.596691 17.288521 
L 410.736301 23.881977 
L 410.875184 18.945774 
L 410.905462 30.212402 
L 411.009507 28.997853 
L 411.457202 43.290871 
L 411.627015 39.892498 
L 411.867404 32.622741 
L 412.313342 34.537778 
L 412.394515 32.479083 
L 412.452697 36.83382 
L 412.732471 20.176586 
L 412.868989 28.20524 
L 413.309504 34.672987 
L 413.447726 35.109493 
L 413.586859 25.80927 
L 413.757899 28.084823 
L 413.863194 26.443103 
L 413.996467 29.850465 
L 414.217342 38.977513 
L 414.426362 29.941958 
L 414.472853 31.126677 
L 414.588112 39.114719 
L 414.863247 43.562599 
L 415.003898 52.525244 
L 415.140987 47.583598 
L 415.501992 51.930275 
L 415.56506 43.948181 
L 415.697017 47.619306 
L 415.863996 45.554136 
L 416.000591 40.304413 
L 416.176722 40.153778 
L 416.417173 32.030071 
L 416.587866 34.154074 
L 416.723861 31.737071 
L 416.965299 32.993668 
L 417.17161 42.475232 
L 417.319096 41.609777 
L 417.589062 44.694388 
L 417.825493 51.273568 
L 417.96714 53.644708 
L 418.828868 29.311778 
L 418.996599 27.620789 
L 419.132834 23.094421 
L 419.542696 35.590164 
L 419.714508 36.514724 
L 419.920524 47.051089 
L 420.091939 45.909286 
L 420.305685 47.565963 
L 420.472187 51.342877 
L 420.613475 50.191261 
L 420.723261 46.924561 
L 420.923289 46.295493 
L 420.992014 41.462997 
L 421.129088 42.555423 
L 421.242545 39.824355 
L 421.442688 41.118477 
L 421.609714 44.68205 
L 421.679628 39.343623 
L 421.850274 38.57637 
L 421.953164 44.837962 
L 422.228284 32.130759 
L 422.501566 38.00574 
L 422.673742 34.549801 
L 422.820824 35.753904 
L 422.972771 32.394732 
L 423.090838 38.53115 
L 423.258951 36.441302 
L 423.385224 36.616197 
L 423.670623 43.554896 
L 423.809571 39.326006 
L 423.949052 40.754588 
L 424.117194 31.344241 
L 424.290505 33.618638 
L 424.395474 37.194356 
L 424.531512 29.276376 
L 424.66773 34.844988 
L 424.805785 27.931183 
L 424.94788 27.594905 
L 425.125805 29.396904 
L 425.397277 30.448981 
L 425.537609 42.234585 
L 425.642327 42.060927 
L 425.94407 34.71417 
L 426.124648 36.028167 
L 426.306723 41.89822 
L 426.407016 40.271765 
L 426.543637 40.447306 
L 426.786434 38.145425 
L 426.921767 38.335298 
L 427.097443 34.542208 
L 427.231336 36.948243 
L 427.521256 35.860915 
L 427.655619 39.584263 
L 427.890568 39.930229 
L 428.055656 49.385227 
L 428.364282 41.328015 
L 428.608491 45.076632 
L 428.67736 41.593507 
L 428.781464 46.522567 
L 429.059467 31.395509 
L 429.295289 35.262396 
L 429.366621 27.291497 
L 429.570196 23.366936 
L 429.775488 30.711345 
L 429.914535 27.329436 
L 430.051758 34.763285 
L 430.195362 35.116884 
L 430.386827 46.778311 
L 430.636313 42.24159 
L 430.77724 49.153588 
L 430.913003 49.000621 
L 431.04765 45.886213 
L 431.195209 46.194791 
L 431.359476 36.937738 
L 431.49663 37.879133 
L 431.667053 40.317466 
L 431.785198 33.75131 
L 432.054331 41.201526 
L 432.253576 35.115613 
L 432.47117 41.054031 
L 432.675297 45.231354 
L 432.768693 53.042756 
L 432.904872 51.824315 
L 433.041767 49.094058 
L 433.179927 50.41827 
L 433.627606 39.865648 
L 434.355109 22.895936 
L 434.486977 23.145381 
L 434.518476 17.619308 
L 434.897417 35.621262 
L 435.207632 39.649705 
L 435.447785 35.962839 
L 435.58544 37.250446 
L 435.756427 33.360414 
L 435.897462 33.852312 
L 436.029737 35.277009 
L 436.306141 27.401508 
L 436.580686 27.876644 
L 436.831173 31.162634 
L 437.029347 39.973311 
L 437.349203 41.851371 
L 437.540657 41.990461 
L 437.578995 46.428131 
L 437.716376 49.025109 
L 437.886183 46.879327 
L 438.022119 42.138161 
L 438.162949 41.826861 
L 438.297208 45.844898 
L 438.443811 43.540663 
L 438.610258 44.687426 
L 438.75202 43.580422 
L 439.028613 33.844514 
L 439.198867 32.707264 
L 439.301126 36.172303 
L 439.645272 40.251023 
L 439.920907 34.874926 
L 439.994494 40.50997 
L 440.164144 36.633127 
L 440.311554 39.524538 
L 440.470868 33.753767 
L 440.575278 35.450551 
L 440.712633 31.286269 
L 440.989084 28.02023 
L 441.159986 21.467849 
L 441.400637 23.300896 
L 441.537339 17.612467 
L 441.606056 21.070007 
L 441.813128 20.667823 
L 441.85171 26.083539 
L 441.985295 25.874187 
L 442.133316 27.311731 
L 442.264725 30.620144 
L 442.431152 31.616155 
L 442.705994 28.189859 
L 442.846214 28.706341 
L 442.984135 25.234031 
L 443.155528 26.454244 
L 443.258391 28.811928 
L 443.393658 28.846079 
L 443.596885 31.865745 
L 443.8473 25.086783 
L 444.07738 27.224222 
L 444.145101 29.651296 
L 444.386145 27.919713 
L 444.522869 30.179841 
L 444.591588 26.263574 
L 444.736429 32.776081 
L 444.970398 28.247221 
L 445.106904 30.152678 
L 445.429737 37.017382 
L 445.552763 35.798517 
L 445.829613 41.136885 
L 445.974349 47.07915 
L 446.137036 41.477214 
L 446.274808 41.848608 
L 446.377817 40.568907 
L 446.521016 41.910665 
L 446.688816 38.033475 
L 446.826055 41.54239 
L 446.964021 42.218249 
L 447.103133 40.633186 
L 447.340249 34.173874 
L 447.40982 27.951283 
L 447.545688 26.660395 
L 447.718487 23.691059 
L 447.892876 27.356387 
L 447.95882 23.54101 
L 448.156368 25.526458 
L 448.236445 20.574441 
L 448.382636 19.438355 
L 448.8203 29.631489 
L 448.955887 23.387715 
L 449.105288 27.985948 
L 449.227174 27.932576 
L 449.400075 33.838682 
L 449.503675 31.098982 
L 449.708396 32.96223 
L 449.845413 36.378229 
L 449.951701 29.476954 
L 450.229667 36.784285 
L 450.497796 38.84946 
L 450.67012 36.286018 
L 450.944227 39.273307 
L 451.082902 39.195133 
L 451.221325 31.13617 
L 451.632224 24.861103 
L 451.808125 31.773387 
L 451.941963 30.870733 
L 452.082624 30.703613 
L 452.215325 27.621731 
L 452.356166 29.70755 
L 452.492594 28.884731 
L 452.801671 37.197122 
L 452.937806 34.625708 
L 453.074244 34.193675 
L 453.21205 33.024546 
L 453.348919 33.743805 
L 453.499501 35.737731 
L 453.62519 29.768546 
L 453.801741 30.788196 
L 453.93287 29.807604 
L 454.209318 34.813979 
L 454.346393 36.943744 
L 454.630687 31.318996 
L 454.764952 32.139441 
L 454.89694 34.814176 
L 455.069711 35.736615 
L 455.204778 29.144131 
L 455.340959 31.385457 
L 455.619537 27.712585 
L 455.774698 31.492171 
L 455.893097 30.79626 
L 456.063617 27.665014 
L 456.34255 20.487037 
L 456.614008 29.393937 
L 456.892457 23.204195 
L 457.028515 28.68997 
L 457.202162 26.895328 
L 457.337457 28.544513 
L 457.479607 34.6614 
L 457.617045 33.764105 
L 457.751126 30.766405 
L 457.928695 30.782962 
L 457.957298 44.348724 
L 458.094896 37.722093 
L 458.304339 45.926294 
L 458.47163 43.130029 
L 458.749572 47.935917 
L 458.95357 47.721002 
L 459.333032 53.004418 
L 459.609413 41.739657 
L 459.744826 46.799312 
L 460.043008 44.095407 
L 460.055434 46.750891 
L 460.15875 40.091604 
L 460.190972 28.913437 
L 460.370526 36.426119 
L 460.544369 36.688817 
L 460.674309 37.812182 
L 460.87844 31.623752 
L 461.014598 33.193738 
L 461.185955 32.5924 
L 461.290941 33.072867 
L 461.453056 35.522028 
L 461.60011 46.927177 
L 461.736039 47.695745 
L 461.908995 49.490736 
L 462.012055 46.067886 
L 462.494521 53.12183 
L 462.629859 43.993801 
L 462.869411 38.985441 
L 463.144406 18.041551 
L 463.45379 12.291029 
L 463.62553 10.299092 
L 463.974733 16.3632 
L 464.0101 20.977568 
L 464.281221 32.263021 
L 464.421906 41.840734 
L 464.588514 40.739193 
L 464.864006 46.820944 
L 464.979681 55.510385 
L 465.140726 48.261429 
L 465.38353 39.275987 
L 465.450113 42.133583 
L 465.86471 30.307535 
L 466.049337 37.427538 
L 466.347664 29.016728 
L 466.412837 32.561474 
L 466.65525 34.15675 
L 466.691274 36.541836 
L 466.895909 36.70169 
L 466.997155 39.482342 
L 467.133951 39.661137 
L 467.273712 36.113611 
L 467.581646 23.568869 
L 467.719368 26.311657 
L 467.823494 25.472099 
L 467.994818 16.649466 
L 468.166866 21.954297 
L 468.269854 21.539727 
L 468.579489 29.632555 
L 468.853157 42.261521 
L 469.09515 44.935876 
L 469.234643 39.356079 
L 469.403126 44.96825 
L 469.439883 52.124451 
L 469.575419 49.72059 
L 470.433154 25.404354 
L 470.469493 25.859165 
L 470.641044 30.302352 
L 470.8152 19.774524 
L 470.984041 17.025683 
L 471.121347 21.875873 
L 471.259433 21.837623 
L 471.499439 22.751452 
L 471.672612 20.069195 
L 471.808793 25.796393 
L 471.980491 21.865648 
L 472.151441 22.938445 
L 472.291354 22.384967 
L 472.393858 23.283979 
L 472.531412 22.711308 
L 472.705228 18.259679 
L 472.81828 23.539046 
L 472.99818 24.039297 
L 473.161558 28.730499 
L 473.361021 23.736176 
L 473.397066 29.006234 
L 473.603476 33.298086 
L 473.669999 37.9834 
L 474.047284 36.786234 
L 474.226696 39.703189 
L 474.253257 37.980738 
L 474.568541 36.043296 
L 474.769057 36.485402 
L 474.810003 32.088173 
L 474.943902 36.910071 
L 475.08086 36.064707 
L 475.216802 37.024317 
L 475.8022 45.388252 
L 475.954455 44.798109 
L 476.351296 30.814942 
L 476.561467 30.500737 
L 476.799542 31.711935 
L 477.074651 31.718579 
L 477.106858 34.490199 
L 477.210787 31.338595 
L 477.350094 30.498111 
L 477.789092 44.799884 
L 478.202647 39.437566 
L 478.34551 39.040988 
L 478.509765 30.252674 
L 478.78405 38.894905 
L 478.92042 33.95693 
L 479.060111 34.583891 
L 479.194762 29.568302 
L 479.478085 38.481149 
L 479.640861 38.905757 
L 479.778228 38.080332 
L 479.915819 39.762 
L 480.058335 38.70813 
L 480.328878 30.974609 
L 480.467914 29.164476 
L 480.6105 29.526688 
L 480.913238 22.829355 
L 481.324636 27.699351 
L 481.466844 25.564618 
L 481.771754 34.919624 
L 481.908657 34.033742 
L 482.04729 34.231448 
L 482.184565 30.119653 
L 482.337194 32.108204 
L 482.463597 28.961578 
L 482.610697 30.068926 
L 482.81476 29.338991 
L 483.317897 32.911909 
L 483.455709 27.927166 
L 483.595649 30.648593 
L 483.628272 36.354869 
L 483.765658 31.036431 
L 483.936625 35.480867 
L 484.040575 35.200462 
L 484.177913 36.894261 
L 484.596633 33.113413 
L 484.761084 32.934194 
L 484.928935 41.560941 
L 485.243151 45.805402 
L 485.34516 37.710013 
L 485.620288 37.477002 
L 485.757982 41.666716 
L 485.894459 40.400115 
L 486.000825 45.766485 
L 486.178717 46.117863 
L 486.342935 45.69794 
L 486.446464 46.303093 
L 486.640065 45.365665 
L 486.720763 48.361977 
L 486.909589 41.453704 
L 487.117129 40.073553 
L 487.184199 33.883943 
L 487.356784 30.836611 
L 487.597471 22.777341 
L 487.733831 20.641058 
L 487.871768 23.673149 
L 488.008492 23.946999 
L 488.148232 27.234703 
L 488.594354 28.951186 
L 488.730535 28.71701 
L 489.005572 27.541255 
L 489.17842 23.302716 
L 489.280727 8.89783 
L 489.451185 7.859688 
L 489.794217 15.183881 
L 489.863283 10.694735 
L 490.069873 12.188913 
L 490.172941 10.562283 
L 490.345419 10.433389 
L 490.586357 20.459482 
L 490.725625 30.927666 
L 491.135653 19.66078 
L 491.342147 23.07381 
L 491.444744 18.41495 
L 491.583974 23.671667 
L 491.757949 25.398002 
L 491.992908 18.793575 
L 492.145154 14.591455 
L 492.285172 21.888168 
L 492.492338 22.009935 
L 492.56421 23.757872 
L 492.705457 23.43625 
L 492.845664 40.533536 
L 492.878366 33.872294 
L 493.005978 33.714001 
L 493.286203 29.869843 
L 493.419417 32.951844 
L 493.628391 33.125794 
L 493.770564 27.564445 
L 493.867372 28.430223 
L 493.969962 31.423147 
L 494.107828 28.532661 
L 494.441662 25.279669 
L 494.55435 26.217301 
L 494.692438 33.064768 
L 494.829259 32.022194 
L 495.039182 38.778386 
L 495.139698 38.698927 
L 495.279172 38.061304 
L 495.416621 38.743091 
L 495.723361 44.401224 
L 495.863413 45.613296 
L 495.979848 45.640474 
L 496.106807 46.363309 
L 496.242355 45.482544 
L 496.57108 50.426615 
L 496.797241 48.42121 
L 497.106459 37.748208 
L 497.252922 36.262559 
L 497.514992 40.458736 
L 497.549229 38.020797 
L 497.789328 40.726762 
L 497.87703 29.381534 
L 497.961616 32.834623 
L 498.101979 31.771797 
L 498.241286 35.548782 
L 498.410647 36.361023 
L 498.686868 41.68074 
L 498.806409 35.656052 
L 498.967025 37.523196 
L 499.248517 34.860391 
L 499.304123 42.342348 
L 499.408545 38.705964 
L 499.688658 40.434483 
L 499.971993 46.788715 
L 500.098288 44.270531 
L 500.42658 50.691648 
L 500.564494 50.007477 
L 500.75442 43.71802 
L 500.962338 51.575806 
L 501.40646 32.358742 
L 501.579305 29.962983 
L 501.64685 32.478926 
L 501.992547 26.677569 
L 502.093614 32.149012 
L 502.473224 23.439076 
L 502.647384 27.132485 
L 502.956725 34.617215 
L 503.135987 32.769703 
L 503.26811 32.706979 
L 503.402103 38.2453 
L 503.503668 34.847839 
L 503.649269 36.2373 
L 503.813081 32.575288 
L 504.054474 34.984891 
L 504.231625 35.612475 
L 504.329957 28.876554 
L 504.398328 34.139217 
L 504.603884 25.960761 
L 504.672557 29.926088 
L 504.920593 22.364025 
L 505.053706 26.275159 
L 505.190452 25.484595 
L 505.222916 24.473997 
L 505.361018 25.334063 
L 505.539598 23.502739 
L 505.638436 25.006635 
L 505.808588 23.163565 
L 506.049097 30.109124 
L 506.255495 30.700194 
L 506.392304 33.113793 
L 506.50249 30.267996 
L 506.670102 42.604578 
L 506.8157 39.244114 
L 506.982443 41.366687 
L 507.28831 37.388756 
L 507.525585 37.645291 
L 507.698007 30.24781 
L 507.835397 30.506421 
L 507.94039 30.029943 
L 508.114683 27.299051 
L 508.147143 16.470606 
L 508.431545 22.269822 
L 508.454777 33.560552 
L 508.659888 35.54771 
L 508.762357 31.166428 
L 508.901743 33.04775 
L 509.088245 33.566127 
L 509.187055 30.785305 
L 509.486263 39.242987 
L 509.658639 39.786386 
L 509.760345 38.412671 
L 509.898719 33.810456 
L 510.036828 25.100678 
L 510.207274 24.639996 
L 510.472291 24.782719 
L 510.487392 17.479042 
L 510.619982 21.730473 
L 510.756792 21.510055 
L 510.974869 19.553809 
L 511.036771 23.701654 
L 511.170331 23.096778 
L 511.306804 20.744581 
L 511.586422 30.363752 
L 511.757996 30.236723 
L 511.890688 35.281356 
L 512.029014 35.270918 
L 512.166017 31.820084 
L 512.309082 35.146131 
L 512.443563 29.921013 
L 512.580259 30.490728 
L 512.756068 29.680072 
L 513.024789 31.880069 
L 513.137066 22.628257 
L 513.232238 37.250856 
L 513.644736 46.708571 
L 513.918518 39.213038 
L 514.16394 36.390399 
L 514.432896 37.795782 
L 514.468165 40.26965 
L 514.6057 30.786275 
L 514.88421 23.924735 
L 515.16557 15.372552 
L 515.344195 16.728117 
L 515.511283 12.498812 
L 515.617242 14.871291 
L 515.719513 11.644871 
L 515.89024 10.439716 
L 515.99377 10.863473 
L 516.265876 11.393379 
L 516.372314 13.172845 
L 516.44184 19.966661 
L 516.821321 28.15874 
L 516.921986 27.549988 
L 517.062104 27.826755 
L 517.165501 27.180091 
L 517.540434 34.315777 
L 517.575301 42.2989 
L 517.765878 40.46991 
L 518.023283 34.381944 
L 518.411862 46.418735 
L 518.505292 51.10696 
L 518.685046 51.348223 
L 518.828775 50.998564 
L 518.863745 54.957607 
L 519.06223 49.815975 
L 519.165211 55.29151 
L 519.268763 53.694142 
L 519.562253 54.802256 
L 520.014386 40.032794 
L 520.135341 40.032185 
L 520.273533 37.498078 
L 520.477041 39.006755 
L 520.616906 33.343113 
L 520.749381 33.113564 
L 520.749644 33.855584 
L 520.990304 35.335661 
L 521.440118 47.633063 
L 521.545669 35.006846 
L 521.713217 34.972044 
L 522.131477 26.986422 
L 522.36692 28.793841 
L 522.437059 27.528315 
L 522.675548 28.090715 
L 522.886517 21.132103 
L 523.123278 29.453086 
L 523.293521 30.941153 
L 523.469629 28.272484 
L 523.55809 30.190916 
L 523.776882 29.660684 
L 523.843946 31.395926 
L 523.946186 26.779915 
L 524.120351 25.121624 
L 524.393073 29.839374 
L 524.531188 28.139547 
L 524.873373 39.725608 
L 524.975951 36.719035 
L 525.133355 37.115492 
L 525.252844 41.986263 
L 525.436511 43.87813 
L 525.584351 42.132252 
L 525.597074 43.365937 
L 525.812279 38.662914 
L 525.975599 47.614732 
L 526.190782 46.507566 
L 526.319079 46.738432 
L 526.390082 46.133034 
L 526.529857 46.117837 
L 526.667392 36.171305 
L 526.935584 46.394598 
L 527.176967 47.563815 
L 527.284124 44.896418 
L 527.420648 32.693 
L 527.519648 34.437069 
L 527.657395 34.338916 
L 527.897766 37.59307 
L 527.932771 32.938371 
L 528.075068 42.266716 
L 528.534319 34.218013 
L 528.665871 34.688642 
L 528.81693 44.967018 
L 528.93094 36.157296 
L 529.274527 32.035237 
L 529.379932 34.477276 
L 529.518038 23.279545 
L 529.651481 23.50893 
L 529.858123 24.20695 
L 530.005259 26.501441 
L 530.063851 31.847054 
L 530.201178 25.637769 
L 530.632533 37.980402 
L 530.819022 34.052664 
L 530.922994 45.237275 
L 531.232424 48.341196 
L 531.574777 46.732362 
L 531.644919 50.796886 
L 531.781508 50.86172 
L 531.917898 55.328124 
L 532.056629 54.608602 
L 532.228873 58.644411 
L 532.348247 50.853359 
L 533.396939 31.577452 
L 533.501124 25.665204 
L 534.022094 32.377063 
L 534.162665 32.433437 
L 534.221715 31.301167 
L 534.446196 31.753864 
L 534.602358 33.390473 
L 534.772122 32.352582 
L 534.94366 37.973094 
L 535.046685 37.44899 
L 535.184848 34.843616 
L 535.39209 34.770166 
L 535.631805 38.352766 
L 535.73549 32.638072 
L 535.908142 32.205782 
L 536.113676 34.822213 
L 536.254035 38.322262 
L 536.326747 35.454795 
L 536.560264 37.042187 
L 536.662961 43.625762 
L 536.766398 39.385924 
L 536.941936 37.779138 
L 537.074797 39.055716 
L 537.184244 41.482771 
L 537.316232 41.437051 
L 537.525057 38.127456 
L 537.592907 33.213502 
L 537.729625 35.140062 
L 538.037324 27.0061 
L 538.212582 28.233462 
L 538.311935 26.94239 
L 538.484442 30.963449 
L 538.727402 42.159856 
L 538.758415 37.356585 
L 538.905236 37.056786 
L 539.105663 37.455286 
L 539.376938 31.262524 
L 539.514955 32.691386 
L 539.755211 39.796036 
L 540.065186 33.02456 
L 540.168976 32.216913 
L 540.556841 35.348049 
L 540.722641 40.006179 
L 540.868767 38.296163 
L 541.026933 38.982036 
L 541.164526 36.513338 
L 541.304002 37.293873 
L 541.577354 29.395762 
L 541.713678 29.608382 
L 541.884581 28.357608 
L 542.058322 30.895012 
L 542.160439 27.185966 
L 542.331401 27.517347 
L 542.4764 24.317085 
L 542.57476 27.227555 
L 542.709888 21.335986 
L 542.84738 27.717289 
L 543.037393 29.68842 
L 543.226422 30.332773 
L 543.295791 29.506596 
L 543.431873 25.857723 
L 543.706918 30.073195 
L 543.878119 33.232611 
L 544.007956 31.247817 
L 544.144987 35.378441 
L 544.416008 32.535938 
L 544.856826 38.910743 
L 545.002225 39.505544 
L 545.134559 46.657707 
L 545.341048 43.390598 
L 545.446831 44.033906 
L 545.621329 39.884922 
L 545.702139 44.367258 
L 545.996827 41.167549 
L 546.134798 42.069378 
L 546.479412 37.294511 
L 546.617668 31.91367 
L 546.994312 42.750894 
L 547.101451 39.284465 
L 547.269166 40.212009 
L 547.412679 41.912019 
L 547.589249 41.979351 
L 547.681356 47.174172 
L 547.819062 47.503866 
L 548.2639 40.067328 
L 548.405778 43.349834 
L 548.540298 41.944946 
L 548.682641 42.616106 
L 548.821219 45.770689 
L 548.962125 43.016385 
L 549.127176 43.438215 
L 549.263936 47.014853 
L 549.537029 48.579558 
L 549.677 40.868445 
L 550.09242 45.747764 
L 550.228829 40.9001 
L 550.397634 44.389534 
L 550.542416 44.024399 
L 550.863048 39.159833 
L 550.880211 43.42991 
L 550.949565 35.6756 
L 551.136653 31.398842 
L 551.261245 25.960087 
L 551.385918 28.445676 
L 551.535448 27.132331 
L 551.679089 27.001066 
L 551.816607 27.967086 
L 551.947932 27.080327 
L 552.085861 34.327971 
L 552.222375 32.048379 
L 552.510623 49.695057 
L 552.63809 56.962489 
L 552.94614 48.513777 
L 553.082474 50.092194 
L 553.49723 28.989224 
L 553.661976 29.809473 
L 553.806925 17.029062 
L 553.943684 20.073031 
L 554.253092 13.798258 
L 554.492454 19.368934 
L 555.044098 27.160513 
L 555.215163 38.922485 
L 555.454329 37.640293 
L 555.570952 40.124469 
L 555.662002 50.07431 
L 555.976703 56.417546 
L 556.177511 56.79902 
L 556.347756 52.915988 
L 556.416422 61.907053 
L 556.692505 49.996673 
L 556.793524 54.22835 
L 557.074376 45.584792 
L 557.51829 37.051768 
L 557.684153 42.205775 
L 557.752944 36.458156 
L 557.895985 36.334167 
L 558.029485 37.298717 
L 558.202514 29.974544 
L 558.716199 34.139242 
L 558.786226 41.651824 
L 558.956469 45.67015 
L 559.066664 44.915395 
L 559.164659 38.946124 
L 559.392008 40.341097 
L 559.473357 38.8858 
L 559.659722 39.89981 
L 559.819134 38.35983 
L 560.092879 25.818462 
L 560.230951 13.707097 
L 560.441829 13.412282 
L 560.607055 15.913086 
L 560.915741 24.856946 
L 561.054195 23.01652 
L 561.652968 37.904596 
L 561.679326 36.577276 
L 561.812835 35.69109 
L 561.88146 33.098186 
L 562.156463 31.070858 
L 562.339129 25.240733 
L 562.464418 27.806021 
L 562.608011 26.722503 
L 562.808514 26.246707 
L 563.11503 18.700273 
L 563.194584 21.090726 
L 563.339631 18.656512 
L 563.665248 22.469254 
L 563.733385 25.312481 
L 563.872781 22.321802 
L 564.183152 22.614809 
L 564.321619 19.153053 
L 564.5258 25.520773 
L 564.743095 27.183358 
L 564.870155 26.977703 
L 565.006339 28.021034 
L 565.038629 29.565394 
L 565.180614 28.050796 
L 565.315881 34.043567 
L 565.421752 32.832491 
L 565.593576 34.826266 
L 565.731972 34.159274 
L 566.309753 39.398474 
L 566.422895 37.345033 
L 566.585636 36.940528 
L 566.723732 32.485509 
L 567.109171 37.91707 
L 567.204873 46.321244 
L 567.342846 45.605837 
L 567.479957 39.230908 
L 567.840131 36.654014 
L 568.17837 37.404905 
L 568.460892 34.115721 
L 568.635497 23.410616 
L 568.709276 26.818154 
L 569.026956 34.456207 
L 569.167065 33.627265 
L 569.274037 34.701514 
L 569.439663 34.726514 
L 569.645883 32.208453 
L 569.892212 38.069166 
L 570.128949 31.154579 
L 570.272535 23.969789 
L 570.470874 22.664193 
L 570.65196 24.233626 
L 570.71121 24.126754 
L 570.848107 23.241175 
L 570.986401 26.985925 
L 571.298957 31.120259 
L 571.540137 45.968926 
L 571.709519 45.588943 
L 571.983355 50.76159 
L 572.121348 50.21225 
L 572.293469 50.652566 
L 572.429773 54.405285 
L 572.888545 41.190738 
L 572.992592 38.222405 
L 573.117663 48.953097 
L 573.256526 48.706859 
L 573.427164 47.088405 
L 573.533084 48.503424 
L 573.808308 37.594281 
L 573.944384 38.110188 
L 574.117305 36.956636 
L 574.320454 39.242854 
L 574.432343 35.343897 
L 574.561202 26.90141 
L 574.801852 25.522047 
L 574.907447 22.585966 
L 575.013377 24.462501 
L 575.116296 31.553515 
L 575.393769 20.879931 
L 575.535803 24.099395 
L 575.673644 21.296615 
L 575.81588 23.191994 
L 576.118425 34.102007 
L 576.878127 47.771189 
L 576.955834 52.456644 
L 577.08422 51.841681 
L 577.392512 45.838052 
L 577.528277 41.785302 
L 577.667241 46.268147 
L 577.944253 36.841363 
L 577.975409 45.505595 
L 578.275745 32.929612 
L 578.50245 35.395851 
L 578.79888 40.734187 
L 579.074709 31.143132 
L 579.651996 49.078949 
L 579.813239 49.976146 
L 579.96004 49.75573 
L 580.107974 53.051312 
L 580.208253 49.523436 
L 580.370435 57.854744 
L 580.508804 55.869214 
L 580.809866 43.868239 
L 580.984685 44.202487 
L 581.281622 34.524986 
L 581.36339 29.906725 
L 581.547047 29.251522 
L 581.639107 33.735997 
L 581.774257 27.815737 
L 581.945258 29.094372 
L 582.118089 34.368427 
L 582.220516 27.750571 
L 582.357333 29.398806 
L 582.563573 29.930171 
L 582.633338 27.812452 
L 582.769553 27.627992 
L 582.977647 24.586493 
L 583.190403 31.912198 
L 583.490693 21.10969 
L 583.627721 20.859576 
L 583.84754 17.178992 
L 584.112479 22.896145 
L 584.351625 26.469734 
L 584.490338 22.422612 
L 584.696562 22.757662 
L 584.820512 24.324273 
L 585.07445 34.699624 
L 585.219354 36.220402 
L 585.383362 39.989461 
L 585.490701 37.662018 
L 585.799045 44.161504 
L 586.037861 43.445099 
L 586.278875 38.61901 
L 586.346345 43.054024 
L 586.810307 22.966336 
L 586.903529 24.412526 
L 587.282316 14.029751 
L 587.599046 18.062505 
L 587.863486 16.911427 
L 587.932432 23.659538 
L 588.149223 19.41876 
L 588.61892 41.300276 
L 588.761657 36.119404 
L 589.101208 38.402059 
L 589.203939 29.433471 
L 589.374027 40.437319 
L 589.693597 30.073525 
L 589.855949 30.712946 
L 589.916171 26.635486 
L 590.372986 35.113166 
L 590.543018 30.704714 
L 590.611925 38.654053 
L 590.890424 25.053737 
L 591.162432 26.888842 
L 591.268318 26.016116 
L 591.30125 28.457681 
L 591.30125 28.457681 
" clip-path="url(#p32ce3971ae)" style="fill: none; stroke: #ff0000; stroke-opacity: 0.7; stroke-width: 1.5; stroke-linecap: square"/>
   </g>
   <g id="patch_3">
    <path d="M 33.30125 277.92 
L 33.30125 0.72 
" style="fill: none; stroke: #000000; stroke-width: 0.8; stroke-linejoin: miter; stroke-linecap: square"/>
   </g>
   <g id="patch_4">
    <path d="M 591.30125 277.92 
L 591.30125 0.72 
" style="fill: none; stroke: #000000; stroke-width: 0.8; stroke-linejoin: miter; stroke-linecap: square"/>
   </g>
   <g id="patch_5">
    <path d="M 33.30125 277.92 
L 591.30125 277.92 
" style="fill: none; stroke: #000000; stroke-width: 0.8; stroke-linejoin: miter; stroke-linecap: square"/>
   </g>
   <g id="patch_6">
    <path d="M 33.30125 0.72 
L 591.30125 0.72 
" style="fill: none; stroke: #000000; stroke-width: 0.8; stroke-linejoin: miter; stroke-linecap: square"/>
   </g>
   <g id="legend_1">
    <g id="patch_7">
     <path d="M 40.30125 272.92 
L 114.07 272.92 
Q 116.07 272.92 116.07 270.92 
L 116.07 242.56375 
Q 116.07 240.56375 114.07 240.56375 
L 40.30125 240.56375 
Q 38.30125 240.56375 38.30125 242.56375 
L 38.30125 270.92 
Q 38.30125 272.92 40.30125 272.92 
z
" style="fill: #ffffff; opacity: 0.8; stroke: #cccccc; stroke-linejoin: miter"/>
    </g>
    <g id="line2d_33">
     <path d="M 42.30125 248.662188 
L 52.30125 248.662188 
L 62.30125 248.662188 
" style="fill: none; stroke: #0000ff; stroke-opacity: 0.7; stroke-width: 1.5; stroke-linecap: square"/>
    </g>
    <g id="text_18">
     <!-- RNEA -->
     <g transform="translate(70.30125 252.162188) scale(0.1 -0.1)">
      <defs>
       <path id="DejaVuSans-52" d="M 2841 2188 
Q 3044 2119 3236 1894 
Q 3428 1669 3622 1275 
L 4263 0 
L 3584 0 
L 2988 1197 
Q 2756 1666 2539 1819 
Q 2322 1972 1947 1972 
L 1259 1972 
L 1259 0 
L 628 0 
L 628 4666 
L 2053 4666 
Q 2853 4666 3247 4331 
Q 3641 3997 3641 3322 
Q 3641 2881 3436 2590 
Q 3231 2300 2841 2188 
z
M 1259 4147 
L 1259 2491 
L 2053 2491 
Q 2509 2491 2742 2702 
Q 2975 2913 2975 3322 
Q 2975 3731 2742 3939 
Q 2509 4147 2053 4147 
L 1259 4147 
z
" transform="scale(0.015625)"/>
       <path id="DejaVuSans-45" d="M 628 4666 
L 3578 4666 
L 3578 4134 
L 1259 4134 
L 1259 2753 
L 3481 2753 
L 3481 2222 
L 1259 2222 
L 1259 531 
L 3634 531 
L 3634 0 
L 628 0 
L 628 4666 
z
" transform="scale(0.015625)"/>
       <path id="DejaVuSans-41" d="M 2188 4044 
L 1331 1722 
L 3047 1722 
L 2188 4044 
z
M 1831 4666 
L 2547 4666 
L 4325 0 
L 3669 0 
L 3244 1197 
L 1141 1197 
L 716 0 
L 50 0 
L 1831 4666 
z
" transform="scale(0.015625)"/>
      </defs>
      <use xlink:href="#DejaVuSans-52"/>
      <use xlink:href="#DejaVuSans-4e" x="69.482422"/>
      <use xlink:href="#DejaVuSans-45" x="144.287109"/>
      <use xlink:href="#DejaVuSans-41" x="207.470703"/>
     </g>
    </g>
    <g id="line2d_34">
     <path d="M 42.30125 263.340313 
L 52.30125 263.340313 
L 62.30125 263.340313 
" style="fill: none; stroke: #ff0000; stroke-opacity: 0.7; stroke-width: 1.5; stroke-linecap: square"/>
    </g>
    <g id="text_19">
     <!-- BURNEA -->
     <g transform="translate(70.30125 266.840313) scale(0.1 -0.1)">
      <defs>
       <path id="DejaVuSans-42" d="M 1259 2228 
L 1259 519 
L 2272 519 
Q 2781 519 3026 730 
Q 3272 941 3272 1375 
Q 3272 1813 3026 2020 
Q 2781 2228 2272 2228 
L 1259 2228 
z
M 1259 4147 
L 1259 2741 
L 2194 2741 
Q 2656 2741 2882 2914 
Q 3109 3088 3109 3444 
Q 3109 3797 2882 3972 
Q 2656 4147 2194 4147 
L 1259 4147 
z
M 628 4666 
L 2241 4666 
Q 2963 4666 3353 4366 
Q 3744 4066 3744 3513 
Q 3744 3084 3544 2831 
Q 3344 2578 2956 2516 
Q 3422 2416 3680 2098 
Q 3938 1781 3938 1306 
Q 3938 681 3513 340 
Q 3088 0 2303 0 
L 628 0 
L 628 4666 
z
" transform="scale(0.015625)"/>
       <path id="DejaVuSans-55" d="M 556 4666 
L 1191 4666 
L 1191 1831 
Q 1191 1081 1462 751 
Q 1734 422 2344 422 
Q 2950 422 3222 751 
Q 3494 1081 3494 1831 
L 3494 4666 
L 4128 4666 
L 4128 1753 
Q 4128 841 3676 375 
Q 3225 -91 2344 -91 
Q 1459 -91 1007 375 
Q 556 841 556 1753 
L 556 4666 
z
" transform="scale(0.015625)"/>
      </defs>
      <use xlink:href="#DejaVuSans-42"/>
      <use xlink:href="#DejaVuSans-55" x="68.603516"/>
      <use xlink:href="#DejaVuSans-52" x="141.796875"/>
      <use xlink:href="#DejaVuSans-4e" x="211.279297"/>
      <use xlink:href="#DejaVuSans-45" x="286.083984"/>
      <use xlink:href="#DejaVuSans-41" x="349.267578"/>
     </g>
    </g>
   </g>
  </g>
 </g>
 <defs>
  <clipPath id="p32ce3971ae">
   <rect x="33.30125" y="0.72" width="558" height="277.2"/>
  </clipPath>
 </defs>
</svg>
