<?xml version="1.0" encoding="utf-8" standalone="no"?>
<!DOCTYPE svg PUBLIC "-//W3C//DTD SVG 1.1//EN"
  "http://www.w3.org/Graphics/SVG/1.1/DTD/svg11.dtd">
<svg xmlns:xlink="http://www.w3.org/1999/xlink" width="588.843125pt" height="304.99625pt" viewBox="0 0 588.843125 304.99625" xmlns="http://www.w3.org/2000/svg" version="1.1">
 <metadata>
  <rdf:RDF xmlns:dc="http://purl.org/dc/elements/1.1/" xmlns:cc="http://creativecommons.org/ns#" xmlns:rdf="http://www.w3.org/1999/02/22-rdf-syntax-ns#">
   <cc:Work>
    <dc:type rdf:resource="http://purl.org/dc/dcmitype/StillImage"/>
    <dc:date>2023-09-05T22:09:17.755507</dc:date>
    <dc:format>image/svg+xml</dc:format>
    <dc:creator>
     <cc:Agent>
      <dc:title>Matplotlib v3.7.2, https://matplotlib.org/</dc:title>
     </cc:Agent>
    </dc:creator>
   </cc:Work>
  </rdf:RDF>
 </metadata>
 <defs>
  <style type="text/css">*{stroke-linejoin: round; stroke-linecap: butt}</style>
 </defs>
 <g id="figure_1">
  <g id="patch_1">
   <path d="M 0 304.99625 
L 588.843125 304.99625 
L 588.843125 0 
L 0 0 
L 0 304.99625 
z
" style="fill: none"/>
  </g>
  <g id="axes_1">
   <g id="patch_2">
    <path d="M 30.123125 277.92 
L 588.123125 277.92 
L 588.123125 0.72 
L 30.123125 0.72 
L 30.123125 277.92 
z
" style="fill: none"/>
   </g>
   <g id="matplotlib.axis_1">
    <g id="xtick_1">
     <g id="line2d_1">
      <path d="M 30.123125 277.92 
L 30.123125 0.72 
" clip-path="url(#p738be468de)" style="fill: none; stroke-dasharray: 0.8,1.32; stroke-dashoffset: 0; stroke: #000000; stroke-opacity: 0.5; stroke-width: 0.8"/>
     </g>
     <g id="line2d_2">
      <defs>
       <path id="mb1e34678df" d="M 0 0 
L 0 3.5 
" style="stroke: #000000; stroke-width: 0.8"/>
      </defs>
      <g>
       <use xlink:href="#mb1e34678df" x="30.123125" y="277.92" style="stroke: #000000; stroke-width: 0.8"/>
      </g>
     </g>
     <g id="text_1">
      <!-- 0 -->
      <g transform="translate(26.941875 292.518438) scale(0.1 -0.1)">
       <defs>
        <path id="DejaVuSans-30" d="M 2034 4250 
Q 1547 4250 1301 3770 
Q 1056 3291 1056 2328 
Q 1056 1369 1301 889 
Q 1547 409 2034 409 
Q 2525 409 2770 889 
Q 3016 1369 3016 2328 
Q 3016 3291 2770 3770 
Q 2525 4250 2034 4250 
z
M 2034 4750 
Q 2819 4750 3233 4129 
Q 3647 3509 3647 2328 
Q 3647 1150 3233 529 
Q 2819 -91 2034 -91 
Q 1250 -91 836 529 
Q 422 1150 422 2328 
Q 422 3509 836 4129 
Q 1250 4750 2034 4750 
z
" transform="scale(0.015625)"/>
       </defs>
       <use xlink:href="#DejaVuSans-30"/>
      </g>
     </g>
    </g>
    <g id="xtick_2">
     <g id="line2d_3">
      <path d="M 115.352926 277.92 
L 115.352926 0.72 
" clip-path="url(#p738be468de)" style="fill: none; stroke-dasharray: 0.8,1.32; stroke-dashoffset: 0; stroke: #000000; stroke-opacity: 0.5; stroke-width: 0.8"/>
     </g>
     <g id="line2d_4">
      <g>
       <use xlink:href="#mb1e34678df" x="115.352926" y="277.92" style="stroke: #000000; stroke-width: 0.8"/>
      </g>
     </g>
     <g id="text_2">
      <!-- 5 -->
      <g transform="translate(112.171676 292.518438) scale(0.1 -0.1)">
       <defs>
        <path id="DejaVuSans-35" d="M 691 4666 
L 3169 4666 
L 3169 4134 
L 1269 4134 
L 1269 2991 
Q 1406 3038 1543 3061 
Q 1681 3084 1819 3084 
Q 2600 3084 3056 2656 
Q 3513 2228 3513 1497 
Q 3513 744 3044 326 
Q 2575 -91 1722 -91 
Q 1428 -91 1123 -41 
Q 819 9 494 109 
L 494 744 
Q 775 591 1075 516 
Q 1375 441 1709 441 
Q 2250 441 2565 725 
Q 2881 1009 2881 1497 
Q 2881 1984 2565 2268 
Q 2250 2553 1709 2553 
Q 1456 2553 1204 2497 
Q 953 2441 691 2322 
L 691 4666 
z
" transform="scale(0.015625)"/>
       </defs>
       <use xlink:href="#DejaVuSans-35"/>
      </g>
     </g>
    </g>
    <g id="xtick_3">
     <g id="line2d_5">
      <path d="M 200.582727 277.92 
L 200.582727 0.72 
" clip-path="url(#p738be468de)" style="fill: none; stroke-dasharray: 0.8,1.32; stroke-dashoffset: 0; stroke: #000000; stroke-opacity: 0.5; stroke-width: 0.8"/>
     </g>
     <g id="line2d_6">
      <g>
       <use xlink:href="#mb1e34678df" x="200.582727" y="277.92" style="stroke: #000000; stroke-width: 0.8"/>
      </g>
     </g>
     <g id="text_3">
      <!-- 10 -->
      <g transform="translate(194.220227 292.518438) scale(0.1 -0.1)">
       <defs>
        <path id="DejaVuSans-31" d="M 794 531 
L 1825 531 
L 1825 4091 
L 703 3866 
L 703 4441 
L 1819 4666 
L 2450 4666 
L 2450 531 
L 3481 531 
L 3481 0 
L 794 0 
L 794 531 
z
" transform="scale(0.015625)"/>
       </defs>
       <use xlink:href="#DejaVuSans-31"/>
       <use xlink:href="#DejaVuSans-30" x="63.623047"/>
      </g>
     </g>
    </g>
    <g id="xtick_4">
     <g id="line2d_7">
      <path d="M 285.812528 277.92 
L 285.812528 0.72 
" clip-path="url(#p738be468de)" style="fill: none; stroke-dasharray: 0.8,1.32; stroke-dashoffset: 0; stroke: #000000; stroke-opacity: 0.5; stroke-width: 0.8"/>
     </g>
     <g id="line2d_8">
      <g>
       <use xlink:href="#mb1e34678df" x="285.812528" y="277.92" style="stroke: #000000; stroke-width: 0.8"/>
      </g>
     </g>
     <g id="text_4">
      <!-- 15 -->
      <g transform="translate(279.450028 292.518438) scale(0.1 -0.1)">
       <use xlink:href="#DejaVuSans-31"/>
       <use xlink:href="#DejaVuSans-35" x="63.623047"/>
      </g>
     </g>
    </g>
    <g id="xtick_5">
     <g id="line2d_9">
      <path d="M 371.042329 277.92 
L 371.042329 0.72 
" clip-path="url(#p738be468de)" style="fill: none; stroke-dasharray: 0.8,1.32; stroke-dashoffset: 0; stroke: #000000; stroke-opacity: 0.5; stroke-width: 0.8"/>
     </g>
     <g id="line2d_10">
      <g>
       <use xlink:href="#mb1e34678df" x="371.042329" y="277.92" style="stroke: #000000; stroke-width: 0.8"/>
      </g>
     </g>
     <g id="text_5">
      <!-- 20 -->
      <g transform="translate(364.679829 292.518438) scale(0.1 -0.1)">
       <defs>
        <path id="DejaVuSans-32" d="M 1228 531 
L 3431 531 
L 3431 0 
L 469 0 
L 469 531 
Q 828 903 1448 1529 
Q 2069 2156 2228 2338 
Q 2531 2678 2651 2914 
Q 2772 3150 2772 3378 
Q 2772 3750 2511 3984 
Q 2250 4219 1831 4219 
Q 1534 4219 1204 4116 
Q 875 4013 500 3803 
L 500 4441 
Q 881 4594 1212 4672 
Q 1544 4750 1819 4750 
Q 2544 4750 2975 4387 
Q 3406 4025 3406 3419 
Q 3406 3131 3298 2873 
Q 3191 2616 2906 2266 
Q 2828 2175 2409 1742 
Q 1991 1309 1228 531 
z
" transform="scale(0.015625)"/>
       </defs>
       <use xlink:href="#DejaVuSans-32"/>
       <use xlink:href="#DejaVuSans-30" x="63.623047"/>
      </g>
     </g>
    </g>
    <g id="xtick_6">
     <g id="line2d_11">
      <path d="M 456.27213 277.92 
L 456.27213 0.72 
" clip-path="url(#p738be468de)" style="fill: none; stroke-dasharray: 0.8,1.32; stroke-dashoffset: 0; stroke: #000000; stroke-opacity: 0.5; stroke-width: 0.8"/>
     </g>
     <g id="line2d_12">
      <g>
       <use xlink:href="#mb1e34678df" x="456.27213" y="277.92" style="stroke: #000000; stroke-width: 0.8"/>
      </g>
     </g>
     <g id="text_6">
      <!-- 25 -->
      <g transform="translate(449.90963 292.518438) scale(0.1 -0.1)">
       <use xlink:href="#DejaVuSans-32"/>
       <use xlink:href="#DejaVuSans-35" x="63.623047"/>
      </g>
     </g>
    </g>
    <g id="xtick_7">
     <g id="line2d_13">
      <path d="M 541.501931 277.92 
L 541.501931 0.72 
" clip-path="url(#p738be468de)" style="fill: none; stroke-dasharray: 0.8,1.32; stroke-dashoffset: 0; stroke: #000000; stroke-opacity: 0.5; stroke-width: 0.8"/>
     </g>
     <g id="line2d_14">
      <g>
       <use xlink:href="#mb1e34678df" x="541.501931" y="277.92" style="stroke: #000000; stroke-width: 0.8"/>
      </g>
     </g>
     <g id="text_7">
      <!-- 30 -->
      <g transform="translate(535.139431 292.518438) scale(0.1 -0.1)">
       <defs>
        <path id="DejaVuSans-33" d="M 2597 2516 
Q 3050 2419 3304 2112 
Q 3559 1806 3559 1356 
Q 3559 666 3084 287 
Q 2609 -91 1734 -91 
Q 1441 -91 1130 -33 
Q 819 25 488 141 
L 488 750 
Q 750 597 1062 519 
Q 1375 441 1716 441 
Q 2309 441 2620 675 
Q 2931 909 2931 1356 
Q 2931 1769 2642 2001 
Q 2353 2234 1838 2234 
L 1294 2234 
L 1294 2753 
L 1863 2753 
Q 2328 2753 2575 2939 
Q 2822 3125 2822 3475 
Q 2822 3834 2567 4026 
Q 2313 4219 1838 4219 
Q 1578 4219 1281 4162 
Q 984 4106 628 3988 
L 628 4550 
Q 988 4650 1302 4700 
Q 1616 4750 1894 4750 
Q 2613 4750 3031 4423 
Q 3450 4097 3450 3541 
Q 3450 3153 3228 2886 
Q 3006 2619 2597 2516 
z
" transform="scale(0.015625)"/>
       </defs>
       <use xlink:href="#DejaVuSans-33"/>
       <use xlink:href="#DejaVuSans-30" x="63.623047"/>
      </g>
     </g>
    </g>
    <g id="text_8">
     <!-- Zeit [s] -->
     <g transform="translate(291.177031 302.196563) scale(0.1 -0.1)">
      <defs>
       <path id="DejaVuSans-5a" d="M 359 4666 
L 4025 4666 
L 4025 4184 
L 1075 531 
L 4097 531 
L 4097 0 
L 288 0 
L 288 481 
L 3238 4134 
L 359 4134 
L 359 4666 
z
" transform="scale(0.015625)"/>
       <path id="DejaVuSans-65" d="M 3597 1894 
L 3597 1613 
L 953 1613 
Q 991 1019 1311 708 
Q 1631 397 2203 397 
Q 2534 397 2845 478 
Q 3156 559 3463 722 
L 3463 178 
Q 3153 47 2828 -22 
Q 2503 -91 2169 -91 
Q 1331 -91 842 396 
Q 353 884 353 1716 
Q 353 2575 817 3079 
Q 1281 3584 2069 3584 
Q 2775 3584 3186 3129 
Q 3597 2675 3597 1894 
z
M 3022 2063 
Q 3016 2534 2758 2815 
Q 2500 3097 2075 3097 
Q 1594 3097 1305 2825 
Q 1016 2553 972 2059 
L 3022 2063 
z
" transform="scale(0.015625)"/>
       <path id="DejaVuSans-69" d="M 603 3500 
L 1178 3500 
L 1178 0 
L 603 0 
L 603 3500 
z
M 603 4863 
L 1178 4863 
L 1178 4134 
L 603 4134 
L 603 4863 
z
" transform="scale(0.015625)"/>
       <path id="DejaVuSans-74" d="M 1172 4494 
L 1172 3500 
L 2356 3500 
L 2356 3053 
L 1172 3053 
L 1172 1153 
Q 1172 725 1289 603 
Q 1406 481 1766 481 
L 2356 481 
L 2356 0 
L 1766 0 
Q 1100 0 847 248 
Q 594 497 594 1153 
L 594 3053 
L 172 3053 
L 172 3500 
L 594 3500 
L 594 4494 
L 1172 4494 
z
" transform="scale(0.015625)"/>
       <path id="DejaVuSans-20" transform="scale(0.015625)"/>
       <path id="DejaVuSans-5b" d="M 550 4863 
L 1875 4863 
L 1875 4416 
L 1125 4416 
L 1125 -397 
L 1875 -397 
L 1875 -844 
L 550 -844 
L 550 4863 
z
" transform="scale(0.015625)"/>
       <path id="DejaVuSans-73" d="M 2834 3397 
L 2834 2853 
Q 2591 2978 2328 3040 
Q 2066 3103 1784 3103 
Q 1356 3103 1142 2972 
Q 928 2841 928 2578 
Q 928 2378 1081 2264 
Q 1234 2150 1697 2047 
L 1894 2003 
Q 2506 1872 2764 1633 
Q 3022 1394 3022 966 
Q 3022 478 2636 193 
Q 2250 -91 1575 -91 
Q 1294 -91 989 -36 
Q 684 19 347 128 
L 347 722 
Q 666 556 975 473 
Q 1284 391 1588 391 
Q 1994 391 2212 530 
Q 2431 669 2431 922 
Q 2431 1156 2273 1281 
Q 2116 1406 1581 1522 
L 1381 1569 
Q 847 1681 609 1914 
Q 372 2147 372 2553 
Q 372 3047 722 3315 
Q 1072 3584 1716 3584 
Q 2034 3584 2315 3537 
Q 2597 3491 2834 3397 
z
" transform="scale(0.015625)"/>
       <path id="DejaVuSans-5d" d="M 1947 4863 
L 1947 -844 
L 622 -844 
L 622 -397 
L 1369 -397 
L 1369 4416 
L 622 4416 
L 622 4863 
L 1947 4863 
z
" transform="scale(0.015625)"/>
      </defs>
      <use xlink:href="#DejaVuSans-5a"/>
      <use xlink:href="#DejaVuSans-65" x="68.505859"/>
      <use xlink:href="#DejaVuSans-69" x="130.029297"/>
      <use xlink:href="#DejaVuSans-74" x="157.8125"/>
      <use xlink:href="#DejaVuSans-20" x="197.021484"/>
      <use xlink:href="#DejaVuSans-5b" x="228.808594"/>
      <use xlink:href="#DejaVuSans-73" x="267.822266"/>
      <use xlink:href="#DejaVuSans-5d" x="319.921875"/>
     </g>
    </g>
   </g>
   <g id="matplotlib.axis_2">
    <g id="ytick_1">
     <g id="line2d_15">
      <path d="M 30.123125 277.92 
L 588.123125 277.92 
" clip-path="url(#p738be468de)" style="fill: none; stroke-dasharray: 0.8,1.32; stroke-dashoffset: 0; stroke: #000000; stroke-opacity: 0.5; stroke-width: 0.8"/>
     </g>
     <g id="line2d_16">
      <defs>
       <path id="m3119d98a7e" d="M 0 0 
L -3.5 0 
" style="stroke: #000000; stroke-width: 0.8"/>
      </defs>
      <g>
       <use xlink:href="#m3119d98a7e" x="30.123125" y="277.92" style="stroke: #000000; stroke-width: 0.8"/>
      </g>
     </g>
     <g id="text_9">
      <!-- 0 -->
      <g transform="translate(16.760625 281.719219) scale(0.1 -0.1)">
       <use xlink:href="#DejaVuSans-30"/>
      </g>
     </g>
    </g>
    <g id="ytick_2">
     <g id="line2d_17">
      <path d="M 30.123125 229.177992 
L 588.123125 229.177992 
" clip-path="url(#p738be468de)" style="fill: none; stroke-dasharray: 0.8,1.32; stroke-dashoffset: 0; stroke: #000000; stroke-opacity: 0.5; stroke-width: 0.8"/>
     </g>
     <g id="line2d_18">
      <g>
       <use xlink:href="#m3119d98a7e" x="30.123125" y="229.177992" style="stroke: #000000; stroke-width: 0.8"/>
      </g>
     </g>
     <g id="text_10">
      <!-- 5 -->
      <g transform="translate(16.760625 232.977211) scale(0.1 -0.1)">
       <use xlink:href="#DejaVuSans-35"/>
      </g>
     </g>
    </g>
    <g id="ytick_3">
     <g id="line2d_19">
      <path d="M 30.123125 180.435984 
L 588.123125 180.435984 
" clip-path="url(#p738be468de)" style="fill: none; stroke-dasharray: 0.8,1.32; stroke-dashoffset: 0; stroke: #000000; stroke-opacity: 0.5; stroke-width: 0.8"/>
     </g>
     <g id="line2d_20">
      <g>
       <use xlink:href="#m3119d98a7e" x="30.123125" y="180.435984" style="stroke: #000000; stroke-width: 0.8"/>
      </g>
     </g>
     <g id="text_11">
      <!-- 10 -->
      <g transform="translate(10.398125 184.235202) scale(0.1 -0.1)">
       <use xlink:href="#DejaVuSans-31"/>
       <use xlink:href="#DejaVuSans-30" x="63.623047"/>
      </g>
     </g>
    </g>
    <g id="ytick_4">
     <g id="line2d_21">
      <path d="M 30.123125 131.693975 
L 588.123125 131.693975 
" clip-path="url(#p738be468de)" style="fill: none; stroke-dasharray: 0.8,1.32; stroke-dashoffset: 0; stroke: #000000; stroke-opacity: 0.5; stroke-width: 0.8"/>
     </g>
     <g id="line2d_22">
      <g>
       <use xlink:href="#m3119d98a7e" x="30.123125" y="131.693975" style="stroke: #000000; stroke-width: 0.8"/>
      </g>
     </g>
     <g id="text_12">
      <!-- 15 -->
      <g transform="translate(10.398125 135.493194) scale(0.1 -0.1)">
       <use xlink:href="#DejaVuSans-31"/>
       <use xlink:href="#DejaVuSans-35" x="63.623047"/>
      </g>
     </g>
    </g>
    <g id="ytick_5">
     <g id="line2d_23">
      <path d="M 30.123125 82.951967 
L 588.123125 82.951967 
" clip-path="url(#p738be468de)" style="fill: none; stroke-dasharray: 0.8,1.32; stroke-dashoffset: 0; stroke: #000000; stroke-opacity: 0.5; stroke-width: 0.8"/>
     </g>
     <g id="line2d_24">
      <g>
       <use xlink:href="#m3119d98a7e" x="30.123125" y="82.951967" style="stroke: #000000; stroke-width: 0.8"/>
      </g>
     </g>
     <g id="text_13">
      <!-- 20 -->
      <g transform="translate(10.398125 86.751186) scale(0.1 -0.1)">
       <use xlink:href="#DejaVuSans-32"/>
       <use xlink:href="#DejaVuSans-30" x="63.623047"/>
      </g>
     </g>
    </g>
    <g id="ytick_6">
     <g id="line2d_25">
      <path d="M 30.123125 34.209959 
L 588.123125 34.209959 
" clip-path="url(#p738be468de)" style="fill: none; stroke-dasharray: 0.8,1.32; stroke-dashoffset: 0; stroke: #000000; stroke-opacity: 0.5; stroke-width: 0.8"/>
     </g>
     <g id="line2d_26">
      <g>
       <use xlink:href="#m3119d98a7e" x="30.123125" y="34.209959" style="stroke: #000000; stroke-width: 0.8"/>
      </g>
     </g>
     <g id="text_14">
      <!-- 25 -->
      <g transform="translate(10.398125 38.009178) scale(0.1 -0.1)">
       <use xlink:href="#DejaVuSans-32"/>
       <use xlink:href="#DejaVuSans-35" x="63.623047"/>
      </g>
     </g>
    </g>
    <g id="text_15">
     <!-- Drehmoment [Nm] -->
     <g transform="translate(8.318438 186.465313) rotate(-90) scale(0.1 -0.1)">
      <defs>
       <path id="DejaVuSans-44" d="M 1259 4147 
L 1259 519 
L 2022 519 
Q 2988 519 3436 956 
Q 3884 1394 3884 2338 
Q 3884 3275 3436 3711 
Q 2988 4147 2022 4147 
L 1259 4147 
z
M 628 4666 
L 1925 4666 
Q 3281 4666 3915 4102 
Q 4550 3538 4550 2338 
Q 4550 1131 3912 565 
Q 3275 0 1925 0 
L 628 0 
L 628 4666 
z
" transform="scale(0.015625)"/>
       <path id="DejaVuSans-72" d="M 2631 2963 
Q 2534 3019 2420 3045 
Q 2306 3072 2169 3072 
Q 1681 3072 1420 2755 
Q 1159 2438 1159 1844 
L 1159 0 
L 581 0 
L 581 3500 
L 1159 3500 
L 1159 2956 
Q 1341 3275 1631 3429 
Q 1922 3584 2338 3584 
Q 2397 3584 2469 3576 
Q 2541 3569 2628 3553 
L 2631 2963 
z
" transform="scale(0.015625)"/>
       <path id="DejaVuSans-68" d="M 3513 2113 
L 3513 0 
L 2938 0 
L 2938 2094 
Q 2938 2591 2744 2837 
Q 2550 3084 2163 3084 
Q 1697 3084 1428 2787 
Q 1159 2491 1159 1978 
L 1159 0 
L 581 0 
L 581 4863 
L 1159 4863 
L 1159 2956 
Q 1366 3272 1645 3428 
Q 1925 3584 2291 3584 
Q 2894 3584 3203 3211 
Q 3513 2838 3513 2113 
z
" transform="scale(0.015625)"/>
       <path id="DejaVuSans-6d" d="M 3328 2828 
Q 3544 3216 3844 3400 
Q 4144 3584 4550 3584 
Q 5097 3584 5394 3201 
Q 5691 2819 5691 2113 
L 5691 0 
L 5113 0 
L 5113 2094 
Q 5113 2597 4934 2840 
Q 4756 3084 4391 3084 
Q 3944 3084 3684 2787 
Q 3425 2491 3425 1978 
L 3425 0 
L 2847 0 
L 2847 2094 
Q 2847 2600 2669 2842 
Q 2491 3084 2119 3084 
Q 1678 3084 1418 2786 
Q 1159 2488 1159 1978 
L 1159 0 
L 581 0 
L 581 3500 
L 1159 3500 
L 1159 2956 
Q 1356 3278 1631 3431 
Q 1906 3584 2284 3584 
Q 2666 3584 2933 3390 
Q 3200 3197 3328 2828 
z
" transform="scale(0.015625)"/>
       <path id="DejaVuSans-6f" d="M 1959 3097 
Q 1497 3097 1228 2736 
Q 959 2375 959 1747 
Q 959 1119 1226 758 
Q 1494 397 1959 397 
Q 2419 397 2687 759 
Q 2956 1122 2956 1747 
Q 2956 2369 2687 2733 
Q 2419 3097 1959 3097 
z
M 1959 3584 
Q 2709 3584 3137 3096 
Q 3566 2609 3566 1747 
Q 3566 888 3137 398 
Q 2709 -91 1959 -91 
Q 1206 -91 779 398 
Q 353 888 353 1747 
Q 353 2609 779 3096 
Q 1206 3584 1959 3584 
z
" transform="scale(0.015625)"/>
       <path id="DejaVuSans-6e" d="M 3513 2113 
L 3513 0 
L 2938 0 
L 2938 2094 
Q 2938 2591 2744 2837 
Q 2550 3084 2163 3084 
Q 1697 3084 1428 2787 
Q 1159 2491 1159 1978 
L 1159 0 
L 581 0 
L 581 3500 
L 1159 3500 
L 1159 2956 
Q 1366 3272 1645 3428 
Q 1925 3584 2291 3584 
Q 2894 3584 3203 3211 
Q 3513 2838 3513 2113 
z
" transform="scale(0.015625)"/>
       <path id="DejaVuSans-4e" d="M 628 4666 
L 1478 4666 
L 3547 763 
L 3547 4666 
L 4159 4666 
L 4159 0 
L 3309 0 
L 1241 3903 
L 1241 0 
L 628 0 
L 628 4666 
z
" transform="scale(0.015625)"/>
      </defs>
      <use xlink:href="#DejaVuSans-44"/>
      <use xlink:href="#DejaVuSans-72" x="77.001953"/>
      <use xlink:href="#DejaVuSans-65" x="115.865234"/>
      <use xlink:href="#DejaVuSans-68" x="177.388672"/>
      <use xlink:href="#DejaVuSans-6d" x="240.767578"/>
      <use xlink:href="#DejaVuSans-6f" x="338.179688"/>
      <use xlink:href="#DejaVuSans-6d" x="399.361328"/>
      <use xlink:href="#DejaVuSans-65" x="496.773438"/>
      <use xlink:href="#DejaVuSans-6e" x="558.296875"/>
      <use xlink:href="#DejaVuSans-74" x="621.675781"/>
      <use xlink:href="#DejaVuSans-20" x="660.884766"/>
      <use xlink:href="#DejaVuSans-5b" x="692.671875"/>
      <use xlink:href="#DejaVuSans-4e" x="731.685547"/>
      <use xlink:href="#DejaVuSans-6d" x="806.490234"/>
      <use xlink:href="#DejaVuSans-5d" x="903.902344"/>
     </g>
    </g>
   </g>
   <g id="line2d_27">
    <path d="M 30.123125 277.92 
L 588.123125 277.92 
L 588.123125 277.92 
" clip-path="url(#p738be468de)" style="fill: none; stroke: #0000ff; stroke-opacity: 0.7; stroke-width: 1.5; stroke-linecap: square"/>
   </g>
   <g id="line2d_28">
    <path d="M 30.123125 16.813986 
L 30.537824 9.615339 
L 30.719783 10.6113 
L 30.750022 14.864367 
L 30.851714 13.11043 
L 30.99341 13.553021 
L 31.092902 20.254403 
L 31.226651 19.405248 
L 31.364942 17.642729 
L 31.538375 18.444587 
L 31.686981 16.967828 
L 31.845275 21.742648 
L 31.947897 21.472248 
L 32.222964 17.387436 
L 32.361285 19.354993 
L 32.567642 17.541186 
L 32.807591 20.878349 
L 32.944135 17.788043 
L 33.116304 18.613487 
L 33.356468 16.860267 
L 33.698694 22.831233 
L 34.252879 16.476545 
L 34.387384 17.833277 
L 34.525338 15.666336 
L 34.765553 16.759576 
L 34.80502 18.836194 
L 35.213657 14.328541 
L 35.351288 12.942907 
L 35.494451 13.633384 
L 35.795537 17.653484 
L 35.932844 17.365648 
L 36.070743 13.816664 
L 36.208493 14.016003 
L 36.485146 8.240771 
L 36.623149 10.113266 
L 36.770019 14.396698 
L 36.913753 14.178777 
L 37.072593 10.377787 
L 37.18253 11.478571 
L 37.348399 10.926378 
L 37.485518 11.669151 
L 37.623414 11.611817 
L 37.911555 17.178012 
L 38.044365 14.595151 
L 38.20625 15.084211 
L 38.38186 14.979733 
L 38.483763 15.816475 
L 38.619806 14.423264 
L 38.893264 17.87728 
L 39.180604 14.096266 
L 39.312699 16.127658 
L 39.482628 16.488705 
L 39.620094 14.545046 
L 40.033524 21.456745 
L 40.308404 18.545905 
L 40.448441 20.049013 
L 40.591053 20.116864 
L 40.756145 18.996158 
L 40.893574 20.078155 
L 41.032125 22.755691 
L 41.168796 21.93681 
L 41.30729 19.259041 
L 41.464729 19.324484 
L 41.58767 21.013835 
L 41.890058 19.33255 
L 42.029007 20.288217 
L 42.191586 20.55157 
L 42.304901 18.698643 
L 42.444528 19.736581 
L 42.579611 19.665499 
L 42.854533 17.875525 
L 43.025188 19.277151 
L 43.301904 23.381585 
L 44.027198 15.359771 
L 44.16006 17.413008 
L 44.440606 12.857996 
L 44.713934 13.26371 
L 44.988783 15.736096 
L 45.195161 19.686129 
L 45.33286 18.684692 
L 45.504043 19.186737 
L 45.710513 13.973001 
L 45.950678 17.122937 
L 46.262348 10.133354 
L 46.430296 4.421336 
L 46.984876 16.702455 
L 47.266415 11.962555 
L 47.409444 12.729122 
L 47.844609 18.617409 
L 48.123155 18.785248 
L 48.257937 16.703438 
L 48.40694 16.41486 
L 48.429496 15.292761 
L 48.575188 14.805495 
L 48.715549 15.821933 
L 48.866288 15.364105 
L 48.888383 15.793414 
L 48.994737 15.623211 
L 49.161177 13.419735 
L 49.267742 13.923801 
L 49.408427 13.936076 
L 49.720982 18.336706 
L 49.837535 17.249237 
L 49.978059 17.501269 
L 50.162706 17.350764 
L 50.288253 16.397443 
L 50.457122 14.025494 
L 50.558865 19.209871 
L 50.701829 20.167094 
L 50.772777 22.224345 
L 50.897455 21.767588 
L 50.898439 19.736866 
L 51.429123 14.258432 
L 51.600023 14.921998 
L 51.87453 18.44588 
L 52.183946 12.273329 
L 52.287083 11.168802 
L 52.390397 15.260776 
L 52.700345 17.507823 
L 52.803819 15.552839 
L 53.123746 12.75832 
L 53.317887 13.98635 
L 53.492455 13.823427 
L 53.664805 19.497059 
L 53.99213 12.518565 
L 54.109425 12.711323 
L 54.392561 16.10879 
L 54.570693 17.37606 
L 54.693181 15.840899 
L 54.797636 16.808567 
L 55.17311 8.71632 
L 55.275754 8.085912 
L 55.379313 8.444052 
L 55.587132 9.672969 
L 55.794279 9.844954 
L 55.876941 12.764074 
L 56.0663 13.692727 
L 56.203283 12.522768 
L 56.37631 14.930478 
L 56.651817 20.678065 
L 56.78857 24.995728 
L 56.959463 24.066318 
L 57.311748 18.376961 
L 57.371228 15.29026 
L 57.509548 15.240326 
L 57.646724 16.127536 
L 57.818762 15.094474 
L 58.230939 9.493472 
L 58.367462 10.061005 
L 59.020013 19.628708 
L 59.088201 14.213902 
L 59.204823 14.083899 
L 59.362176 16.60417 
L 59.501636 14.957803 
L 59.637813 11.918121 
L 59.835255 12.602328 
L 60.084615 8.175777 
L 60.264012 6.051547 
L 60.361575 7.244096 
L 60.498994 12.271798 
L 60.659312 12.135469 
L 60.774153 8.47596 
L 61.116428 9.668943 
L 61.22054 9.181208 
L 61.494184 13.186554 
L 61.976536 7.742327 
L 62.080753 8.842151 
L 62.217654 13.276881 
L 62.354883 12.561483 
L 62.560704 12.573892 
L 62.66572 10.775388 
L 62.869987 10.200402 
L 63.386182 11.507499 
L 63.58332 12.491309 
L 63.626488 12.142469 
L 63.765095 11.147491 
L 63.937518 11.158308 
L 64.07406 8.966454 
L 64.285357 8.02359 
L 64.35685 8.17408 
L 64.666273 13.687491 
L 64.787791 11.35792 
L 64.931328 10.799824 
L 65.173726 11.230454 
L 65.286549 12.331808 
L 65.363916 10.723989 
L 65.364063 12.278851 
L 65.657603 11.05301 
L 65.902996 11.036724 
L 65.967094 11.830121 
L 66.003365 9.87099 
L 66.138233 10.26572 
L 66.298331 12.832242 
L 66.331476 11.832845 
L 66.469263 13.274274 
L 66.63332 11.561618 
L 66.79112 11.834939 
L 66.993787 13.146575 
L 67.191305 12.825463 
L 67.334925 13.323651 
L 67.470558 11.556837 
L 67.608329 11.246558 
L 67.813147 14.386914 
L 67.882149 9.091177 
L 68.020509 10.222874 
L 68.466762 24.872991 
L 68.878619 16.291128 
L 69.084444 17.671941 
L 69.194584 12.719695 
L 69.643162 17.160837 
L 69.675984 17.481385 
L 69.885454 15.832331 
L 70.056598 12.407323 
L 70.500057 13.204761 
L 70.63766 16.355251 
L 70.742698 16.161592 
L 70.881761 14.173564 
L 71.130965 13.496766 
L 71.291614 10.590354 
L 71.599651 13.257512 
L 71.738725 16.834704 
L 71.911825 17.676969 
L 72.049825 16.75926 
L 72.296427 21.538012 
L 72.461643 21.701722 
L 72.874048 24.716479 
L 72.906919 23.737298 
L 73.633611 20.28465 
L 74.383961 16.109607 
L 75.185395 14.941466 
L 75.934504 15.667358 
L 75.964859 18.145741 
L 76.27411 14.346864 
L 76.550385 18.967186 
L 77.064849 5.183401 
L 77.101951 8.46234 
L 77.513317 10.664742 
L 77.5456 13.299772 
L 77.785494 14.925241 
L 78.030751 10.160307 
L 78.508068 16.963149 
L 78.681412 10.429108 
L 78.823321 10.273047 
L 78.969236 9.277336 
L 79.230855 11.221632 
L 79.574634 22.498468 
L 79.678562 21.973109 
L 79.847592 18.47073 
L 80.171571 23.694142 
L 80.363596 23.540113 
L 80.535194 17.676943 
L 80.676475 15.785946 
L 80.880255 15.914895 
L 80.948155 16.541171 
L 81.326023 21.946859 
L 81.609952 19.042551 
L 81.704387 18.932037 
L 81.886052 20.647687 
L 82.091631 18.105631 
L 82.118289 15.46464 
L 82.247263 17.670755 
L 82.453694 18.253499 
L 82.934705 14.804962 
L 83.072809 15.15214 
L 83.380778 16.889193 
L 83.518731 16.667036 
L 83.693994 15.974337 
L 83.966358 13.864665 
L 84.068778 14.845707 
L 84.376672 13.214539 
L 84.690111 14.029576 
L 84.960329 17.583179 
L 85.063737 14.879585 
L 85.236837 14.315671 
L 85.475853 16.313194 
L 85.649034 22.339787 
L 85.786916 24.323655 
L 85.959949 23.56432 
L 86.339965 18.389181 
L 86.508956 21.71929 
L 86.64694 21.73116 
L 86.921162 13.035248 
L 87.159949 11.861421 
L 87.193991 9.749158 
L 87.369358 11.695947 
L 87.662201 12.4837 
L 87.662774 11.614062 
L 87.677479 14.602537 
L 87.831099 15.525984 
L 88.125483 11.740262 
L 88.283205 12.28585 
L 88.346322 11.269255 
L 88.620095 2.568635 
L 88.822975 0.72 
L 88.960631 0.904792 
L 89.304134 2.894995 
L 89.955926 15.650512 
L 90.05864 23.249661 
L 90.196257 23.83751 
L 90.332914 22.140908 
L 90.61112 21.283868 
L 90.884315 22.538188 
L 91.052459 20.492883 
L 91.198254 20.657781 
L 91.329921 19.624158 
L 91.603512 12.562124 
L 91.746691 11.82902 
L 92.016982 11.530815 
L 92.195959 8.782323 
L 92.32633 9.494601 
L 92.600611 5.635325 
L 92.739517 5.755858 
L 93.049746 14.809622 
L 93.257276 15.972505 
L 93.289937 13.555619 
L 93.494243 13.365998 
L 93.597976 14.695712 
L 93.736972 13.894905 
L 93.872854 16.791618 
L 94.147117 18.397309 
L 94.355848 11.371406 
L 94.765083 14.85319 
L 94.904221 16.614651 
L 95.005981 15.27518 
L 95.248523 14.5438 
L 95.456295 12.245079 
L 95.65896 15.000516 
L 95.797736 14.463221 
L 95.89976 12.196887 
L 96.0441 12.963515 
L 96.170208 15.100339 
L 96.430314 7.489083 
L 96.595525 8.996698 
L 97.215752 19.353774 
L 97.420874 16.970999 
L 97.593253 17.582013 
L 97.795547 22.566232 
L 97.875122 29.380968 
L 98.284665 23.526295 
L 98.429311 26.322806 
L 98.562265 24.471642 
L 98.867308 27.960335 
L 99.005719 28.874635 
L 99.383881 28.908096 
L 99.417619 21.906905 
L 99.556614 26.789227 
L 99.797098 23.468555 
L 99.86549 18.190947 
L 100.002989 17.026605 
L 100.13982 16.95687 
L 100.401376 16.346429 
L 100.554436 9.632011 
L 100.688195 13.179659 
L 100.722293 12.584361 
L 100.944246 10.509459 
L 101.006921 7.016791 
L 101.211453 9.763902 
L 101.413526 15.405497 
L 101.823576 14.61526 
L 102.037749 20.431544 
L 102.27245 22.423016 
L 102.550363 24.012464 
L 102.997347 21.059381 
L 103.173693 21.679399 
L 103.250879 23.25188 
L 103.444483 20.827927 
L 103.547948 17.212537 
L 103.806792 18.515762 
L 103.893564 21.591093 
L 104.096827 23.368706 
L 104.130756 21.899703 
L 104.354359 21.70827 
L 104.429118 22.014129 
L 104.562055 24.388851 
L 104.683933 24.514508 
L 104.8195 26.127331 
L 105.129737 32.089184 
L 105.373596 26.961635 
L 105.405113 28.180632 
L 105.679617 24.485588 
L 105.962724 16.252582 
L 106.132506 16.272729 
L 106.270105 15.546389 
L 106.380744 13.4571 
L 106.5441 13.574569 
L 106.81932 9.298283 
L 107.378511 14.926874 
L 107.405386 9.537486 
L 107.648011 14.527872 
L 107.855633 16.350042 
L 107.956601 13.833921 
L 108.130885 16.05918 
L 108.266544 19.889503 
L 108.375898 18.910381 
L 108.544995 13.699773 
L 108.574251 16.976501 
L 108.815846 20.026592 
L 108.954962 17.284587 
L 109.0936 17.425746 
L 109.231447 13.723699 
L 109.575903 18.015017 
L 109.676005 15.825954 
L 109.820024 15.26085 
L 109.918403 18.785191 
L 110.230111 16.22813 
L 110.401078 18.86554 
L 110.642311 18.097843 
L 110.91798 14.155851 
L 111.165552 14.359285 
L 111.199345 14.779139 
L 111.376473 12.502169 
L 111.509217 12.900968 
L 111.65028 13.831299 
L 111.955594 10.1536 
L 112.057314 9.738246 
L 112.778971 18.386018 
L 112.917407 18.727087 
L 113.06312 18.102097 
L 113.192613 16.4644 
L 113.364589 17.091841 
L 113.637702 21.055758 
L 113.787631 19.168901 
L 114.063295 13.11514 
L 114.204358 11.520913 
L 114.473393 9.809502 
L 114.742443 16.732273 
L 114.879581 16.241256 
L 114.911828 12.545213 
L 115.085029 11.659922 
L 115.188633 12.337566 
L 115.496652 8.013568 
L 115.669031 10.810396 
L 115.910475 16.65382 
L 116.115502 16.594707 
L 116.183519 18.828266 
L 116.323148 19.74781 
L 116.61506 23.474688 
L 116.857675 25.405946 
L 116.942986 24.710725 
L 117.148261 20.907674 
L 117.183504 17.97044 
L 117.457907 15.798335 
L 117.733122 13.726111 
L 118.046277 11.829458 
L 118.215642 12.087915 
L 118.319189 15.492996 
L 118.491867 17.159132 
L 118.730703 15.479574 
L 119.176644 18.909783 
L 119.383006 18.349503 
L 119.485424 19.11905 
L 119.625236 18.661638 
L 119.727016 16.926357 
L 120.037626 20.710444 
L 120.386453 17.628629 
L 120.520466 18.154878 
L 120.899221 21.012457 
L 121.007947 24.598878 
L 121.141206 24.022998 
L 121.485192 21.368519 
L 121.786143 24.253677 
L 122.017536 16.958233 
L 122.036085 17.547811 
L 122.199914 19.541518 
L 122.327731 17.693646 
L 122.348068 19.693126 
L 122.424055 14.68921 
L 122.657736 14.318664 
L 122.735682 17.114721 
L 123.035367 11.898243 
L 123.137847 12.043882 
L 123.413383 11.761634 
L 123.520314 13.334509 
L 123.700768 10.783413 
L 124.004185 11.181083 
L 124.143413 9.162193 
L 124.277783 11.986709 
L 124.554009 10.089461 
L 124.695327 12.624278 
L 124.865162 13.181157 
L 125.012256 16.595437 
L 125.137662 13.092785 
L 125.412416 15.744753 
L 125.562658 17.585762 
L 125.688155 17.450361 
L 125.84578 18.774027 
L 125.996648 18.180326 
L 126.132209 18.112544 
L 126.272644 19.053388 
L 126.406034 15.48769 
L 126.552699 16.177508 
L 126.68582 17.668737 
L 127.127146 11.360044 
L 127.266366 11.565642 
L 127.402298 12.0953 
L 127.538837 9.955116 
L 127.680702 10.021653 
L 127.986521 17.738685 
L 128.262236 12.586381 
L 128.399594 12.629943 
L 128.536432 14.326294 
L 128.6745 14.49717 
L 128.811272 14.067415 
L 129.122292 15.466323 
L 129.25961 14.347289 
L 129.398094 11.799541 
L 129.533747 12.514142 
L 129.813549 17.276388 
L 129.945462 13.59518 
L 130.25572 11.844183 
L 130.385994 12.106314 
L 130.822132 8.126697 
L 131.082756 10.885297 
L 131.221675 10.964659 
L 131.427144 16.808748 
L 131.670299 11.803561 
L 131.972825 16.347006 
L 132.078506 14.763204 
L 132.229504 17.138573 
L 132.523765 12.235186 
L 132.661308 12.302281 
L 132.802666 11.888571 
L 132.973519 13.989854 
L 133.075331 17.42962 
L 133.213921 16.898452 
L 133.386795 14.161541 
L 133.663195 15.2797 
L 133.797456 17.848148 
L 133.937455 16.572247 
L 134.096365 17.153246 
L 134.107628 14.022087 
L 134.212244 14.099345 
L 134.522269 10.185836 
L 134.935741 15.019483 
L 135.038941 13.715241 
L 135.074358 14.463522 
L 135.214094 14.626027 
L 135.348841 15.415796 
L 135.536149 17.258325 
L 135.695117 15.732552 
L 135.797459 16.098562 
L 135.935881 17.607346 
L 136.209966 13.574032 
L 136.346882 16.790335 
L 136.624035 13.709947 
L 136.836508 16.616846 
L 136.938622 15.498372 
L 137.08075 16.483303 
L 137.222381 19.048982 
L 137.249419 22.080047 
L 137.35129 21.001164 
L 137.592229 20.756287 
L 137.698087 18.910815 
L 137.76397 14.44193 
L 138.074013 14.515967 
L 138.211378 15.64572 
L 138.245971 14.117169 
L 138.661146 15.3654 
L 138.798117 13.77917 
L 138.833263 10.747995 
L 139.588026 23.195512 
L 139.623274 22.065885 
L 139.762092 21.426602 
L 139.934873 21.729933 
L 140.038582 18.920106 
L 140.069714 22.421029 
L 140.208704 22.857329 
L 140.518664 25.303766 
L 140.552109 22.045037 
L 140.756979 22.136147 
L 140.89362 15.528461 
L 141.032573 16.801968 
L 141.169759 14.074432 
L 141.377664 14.111485 
L 141.51522 15.640792 
L 141.547632 11.938451 
L 141.688817 14.433897 
L 141.858146 11.486965 
L 141.960563 13.824987 
L 142.133025 13.262974 
L 142.307278 15.884421 
L 142.511628 14.679373 
L 142.650636 17.232503 
L 142.752462 12.917688 
L 143.466169 19.834647 
L 143.644756 18.287258 
L 143.884523 19.134294 
L 143.970235 18.706512 
L 144.090231 22.18495 
L 144.228191 24.67419 
L 144.368249 20.585997 
L 144.607131 22.091456 
L 144.647073 23.902851 
L 144.744729 18.942881 
L 144.882239 20.40499 
L 145.274324 19.448824 
L 145.312189 21.192167 
L 145.440619 18.443084 
L 145.745216 21.751231 
L 145.882982 18.72854 
L 146.031338 18.558838 
L 146.159056 20.327044 
L 146.576648 16.259198 
L 146.843348 15.334903 
L 147.193485 10.675702 
L 147.328611 13.497046 
L 147.43339 12.861495 
L 147.601409 10.225144 
L 147.705996 12.004326 
L 147.983896 13.181943 
L 148.049828 15.363772 
L 148.196578 12.873053 
L 148.287406 14.131463 
L 148.424935 12.063437 
L 148.631441 12.643175 
L 148.776771 13.45503 
L 148.88623 13.364756 
L 149.146367 17.56262 
L 149.287529 15.516504 
L 149.499532 15.855789 
L 149.736727 18.009893 
L 149.872963 17.070671 
L 150.013846 19.813913 
L 150.14916 17.424059 
L 150.526819 14.937709 
L 150.733864 19.723663 
L 150.90585 19.872519 
L 151.179854 23.619832 
L 151.386457 26.525971 
L 151.45937 22.531939 
L 151.626822 23.900207 
L 151.732551 26.537961 
L 151.867493 24.203742 
L 152.038642 23.894111 
L 152.27963 21.696325 
L 152.428138 22.95769 
L 152.553631 20.592029 
L 152.82999 21.32939 
L 153.137586 17.975982 
L 153.415244 19.226276 
L 153.550344 18.895904 
L 153.928846 13.108366 
L 154.065513 12.332946 
L 154.27194 15.084028 
L 154.858247 12.864087 
L 154.999849 11.540269 
L 155.340703 14.291823 
L 155.408391 13.703122 
L 155.546222 14.589425 
L 155.688778 14.54866 
L 155.839481 13.494777 
L 155.960449 13.996965 
L 156.200903 15.548157 
L 156.344428 14.448198 
L 156.406434 12.612949 
L 156.955359 10.189286 
L 157.237915 14.048663 
L 157.392528 18.497057 
L 157.540478 15.739841 
L 157.67746 17.535537 
L 157.953173 21.928801 
L 158.104861 23.728255 
L 158.5037 24.086882 
L 158.646283 17.680214 
L 158.814023 16.696586 
L 158.950406 19.522799 
L 159.106216 20.215643 
L 159.372978 15.998924 
L 159.501753 15.994043 
L 159.640054 15.013965 
L 159.809729 14.619883 
L 160.086175 18.552752 
L 160.223176 16.069088 
L 160.359886 16.294998 
L 161.082903 22.837212 
L 161.217519 23.029747 
L 161.356926 21.735657 
L 161.494 21.605757 
L 161.631913 23.517631 
L 161.831829 23.073006 
L 161.938287 21.238193 
L 162.077169 20.800078 
L 162.3517 15.683382 
L 162.496046 17.121364 
L 162.638152 16.418171 
L 162.769062 18.790262 
L 163.076989 15.967562 
L 163.358909 14.810594 
L 163.488145 15.35836 
L 163.624038 18.924919 
L 163.766411 18.673508 
L 164.041815 14.46705 
L 164.223475 14.319306 
L 164.486211 15.61161 
L 164.760542 15.104687 
L 164.934234 18.484135 
L 165.039657 16.768116 
L 165.176234 12.677493 
L 165.208875 18.536468 
L 165.350895 19.731854 
L 165.661727 16.847487 
L 165.760356 18.468985 
L 166.035155 16.833635 
L 166.184923 19.322051 
L 166.343867 17.201075 
L 166.492109 19.409567 
L 166.833385 16.029692 
L 167.058366 23.67094 
L 167.211905 21.807731 
L 167.451845 25.249601 
L 167.589409 24.453822 
L 167.862326 25.338077 
L 167.930517 22.744117 
L 168.054658 22.787022 
L 168.172073 22.168343 
L 168.583126 14.832544 
L 168.652065 16.833563 
L 168.829442 17.414957 
L 169.032871 13.616435 
L 169.341488 14.778366 
L 169.492452 15.814931 
L 169.580515 19.934335 
L 169.754089 20.535473 
L 169.890794 20.574766 
L 170.027912 22.709045 
L 170.40457 18.390448 
L 170.481899 19.499184 
L 170.58573 16.049498 
L 170.716012 15.95712 
L 170.887896 14.400383 
L 171.026586 10.309956 
L 171.301904 12.320553 
L 171.475687 9.016823 
L 171.715297 11.11465 
L 171.749217 14.211987 
L 172.129928 17.793776 
L 172.167454 19.132848 
L 172.333477 20.012452 
L 172.435837 22.815021 
L 172.589875 22.217313 
L 172.710372 22.532315 
L 172.852656 24.523038 
L 173.082955 23.16126 
L 173.166408 23.934319 
L 173.297593 21.668038 
L 173.43307 21.794728 
L 173.571115 22.317038 
L 173.91393 21.082784 
L 174.259127 15.615578 
L 174.362333 15.038195 
L 174.464855 18.471737 
L 174.569213 18.229688 
L 174.843461 11.850398 
L 175.017553 11.804469 
L 175.289145 14.003388 
L 175.674367 20.020181 
L 175.73639 25.46741 
L 175.770533 21.660065 
L 175.943056 18.970076 
L 175.988798 14.934123 
L 176.28641 21.251255 
L 176.430076 21.127376 
L 177.111101 6.816724 
L 177.281337 7.832772 
L 177.418074 10.561621 
L 177.590204 10.205673 
L 177.727672 10.813427 
L 177.900109 9.648236 
L 178.039767 9.759112 
L 178.55685 18.672808 
L 178.697377 18.800954 
L 178.899813 18.587325 
L 178.967738 20.669908 
L 179.278157 18.543414 
L 179.414129 20.943348 
L 179.586248 21.652618 
L 179.862464 19.345444 
L 180.034057 17.793659 
L 180.10643 18.716077 
L 180.411808 13.476583 
L 180.826773 15.672153 
L 180.956598 15.096073 
L 180.982991 14.033095 
L 181.185623 15.074087 
L 181.293806 15.511015 
L 181.578442 8.538375 
L 181.818463 13.086378 
L 182.000894 10.719096 
L 182.022681 8.755678 
L 182.402555 12.586816 
L 182.580797 11.186987 
L 182.711201 13.094102 
L 182.986411 20.807582 
L 183.125549 20.577957 
L 183.296647 18.88338 
L 183.509478 20.066704 
L 183.615157 22.187549 
L 183.681381 19.53132 
L 183.814147 22.439765 
L 184.12298 19.083452 
L 184.446797 21.904657 
L 184.606212 22.101378 
L 184.674542 23.366193 
L 184.994729 19.149875 
L 185.156972 20.722069 
L 185.363822 21.183285 
L 185.470604 22.692153 
L 185.700257 21.932279 
L 185.951334 19.104859 
L 186.101086 18.822532 
L 186.1689 19.72562 
L 186.367934 25.87103 
L 186.63914 27.24559 
L 186.951756 28.148503 
L 187.089058 26.686123 
L 187.225022 27.22974 
L 187.535481 26.085279 
L 188.397303 20.375887 
L 188.915639 23.058036 
L 189.08672 22.756187 
L 189.534063 12.06881 
L 189.709978 11.35614 
L 189.777635 13.588167 
L 189.91465 12.982796 
L 190.087703 10.292006 
L 190.223204 12.819606 
L 190.331229 10.009463 
L 190.567942 9.931661 
L 191.049928 21.666972 
L 191.186546 16.430667 
L 191.49878 20.242104 
L 191.634619 17.995493 
L 191.772674 19.065704 
L 191.923456 19.316295 
L 192.062339 18.036039 
L 192.321798 18.512169 
L 192.389924 18.176813 
L 192.493131 14.583636 
L 192.667733 18.184575 
L 192.773705 17.201652 
L 193.049267 13.51301 
L 193.222006 12.674126 
L 193.323787 13.165567 
L 193.537761 12.737763 
L 193.770517 9.561751 
L 194.010221 9.740191 
L 194.080314 5.966455 
L 194.21778 5.291956 
L 194.456389 11.339107 
L 194.594005 12.56454 
L 194.731653 10.7261 
L 194.903499 13.690796 
L 195.074239 13.199129 
L 195.25425 11.590883 
L 195.588116 19.625338 
L 195.727551 17.535495 
L 195.869772 17.46448 
L 196.036278 16.853998 
L 196.199567 18.523321 
L 196.310845 16.706301 
L 196.619539 21.463657 
L 196.757979 21.149774 
L 196.931035 21.27517 
L 197.10041 18.781247 
L 197.18049 15.333377 
L 197.512245 16.079953 
L 197.753569 12.769752 
L 197.933377 12.612941 
L 198.027978 6.745177 
L 198.409384 4.779881 
L 198.441237 7.659808 
L 198.681747 10.876129 
L 198.751485 8.573351 
L 198.88899 9.864581 
L 199.061014 9.631977 
L 199.197819 8.788685 
L 199.334584 10.529002 
L 199.441203 17.123822 
L 199.609706 17.553383 
L 199.719806 18.330901 
L 199.885535 16.898818 
L 200.129444 16.41428 
L 200.300348 20.300826 
L 200.331281 19.556102 
L 200.572915 24.24048 
L 200.711883 21.252994 
L 200.849168 20.969647 
L 201.158124 23.551165 
L 201.300419 23.759189 
L 201.432704 23.461819 
L 201.573171 23.727421 
L 201.736501 22.953645 
L 201.872791 20.710795 
L 202.045411 20.968955 
L 202.120245 22.000969 
L 202.42475 16.393714 
L 202.594481 14.118555 
L 202.836915 15.894925 
L 202.977068 13.342778 
L 203.005137 13.657555 
L 203.210375 13.917514 
L 203.42462 16.822661 
L 203.450778 14.590994 
L 203.731728 21.121605 
L 203.902493 20.593738 
L 204.00319 20.848829 
L 204.139644 19.709238 
L 204.448864 21.033921 
L 204.563659 19.418151 
L 204.692417 21.04075 
L 204.864934 17.508925 
L 205.113428 16.691884 
L 205.334039 18.335466 
L 205.592585 21.083703 
L 205.732084 18.485602 
L 205.966759 23.158146 
L 206.105905 21.089861 
L 206.276816 21.573317 
L 206.622407 17.689208 
L 206.757807 18.376889 
L 206.968668 18.032397 
L 207.170854 16.176965 
L 207.26005 11.600138 
L 207.480587 9.483385 
L 207.522486 5.895108 
L 207.897505 13.053245 
L 207.963729 14.084228 
L 208.238956 9.467991 
L 208.409653 8.424075 
L 208.82419 11.639051 
L 208.997774 15.500591 
L 209.270473 11.039485 
L 209.379134 10.854441 
L 209.555452 13.149236 
L 209.579024 10.828576 
L 209.890565 16.386243 
L 209.923325 14.480585 
L 209.959849 16.285798 
L 210.372268 19.571851 
L 210.612617 18.427456 
L 210.721116 20.246839 
L 210.822028 19.600099 
L 211.166545 14.59591 
L 211.255991 15.757974 
L 211.371001 16.274072 
L 211.508929 15.966199 
L 211.713462 14.966226 
L 211.818218 11.907074 
L 211.954891 12.596412 
L 212.090195 9.057906 
L 212.366486 12.971777 
L 212.812509 15.881564 
L 212.988783 14.500942 
L 213.087203 14.640173 
L 213.50375 20.685849 
L 213.637967 19.197099 
L 213.780867 19.725102 
L 213.915872 19.017451 
L 214.221746 16.819136 
L 214.362601 18.919038 
L 214.496375 19.012867 
L 214.806384 17.953182 
L 214.93414 16.053657 
L 215.115827 15.067751 
L 215.263089 11.78774 
L 215.461086 13.106431 
L 215.6383 15.216556 
L 215.677634 14.921659 
L 215.769467 14.825697 
L 215.913341 14.922903 
L 216.207529 16.585087 
L 216.333428 19.887317 
L 216.491421 20.012714 
L 216.629224 21.322198 
L 216.863598 21.81915 
L 216.899557 19.406803 
L 217.057626 22.262994 
L 217.242288 22.24132 
L 217.34597 19.729276 
L 217.483574 19.393405 
L 217.623434 23.144653 
L 217.791995 21.029202 
L 218.186183 27.132009 
L 218.376545 27.302154 
L 218.486063 23.05664 
L 218.671632 21.907241 
L 218.810615 24.177619 
L 219.053937 18.638157 
L 219.220908 22.1667 
L 219.360276 21.36595 
L 219.632304 16.847093 
L 219.876663 19.058627 
L 220.185262 13.447393 
L 220.326122 15.50694 
L 220.465092 14.715404 
L 220.743327 10.199646 
L 220.942174 13.24486 
L 221.157751 8.790884 
L 221.460307 16.18392 
L 221.700938 19.223156 
L 221.804441 16.965703 
L 221.944618 16.352158 
L 222.148868 16.42029 
L 222.320245 11.57721 
L 222.732693 17.756984 
L 222.870575 17.842319 
L 223.146595 15.739336 
L 223.285238 16.045906 
L 223.676869 17.633709 
L 223.868196 17.135687 
L 224.039848 12.74933 
L 224.177005 6.587712 
L 224.317201 7.233312 
L 224.452884 7.060888 
L 224.630069 10.371825 
L 224.841448 9.470746 
L 224.935522 10.118588 
L 225.279569 17.884606 
L 225.482888 23.543525 
L 225.625938 23.752117 
L 225.724967 22.552855 
L 225.898777 22.039253 
L 226.137032 19.24092 
L 226.414663 18.05448 
L 226.590181 18.902756 
L 226.747464 20.491674 
L 226.997001 16.463829 
L 227.203151 15.202787 
L 227.273612 18.484592 
L 227.478729 19.314185 
L 227.648791 19.076571 
L 227.718197 17.428647 
L 227.993714 18.450588 
L 228.232489 15.994117 
L 228.277077 13.498269 
L 228.471708 14.367165 
L 228.544805 16.604033 
L 228.853266 11.215903 
L 228.992091 12.28267 
L 229.12844 14.841693 
L 229.405336 11.944448 
L 229.595226 14.036318 
L 229.698887 16.567395 
L 230.011957 8.20692 
L 230.454227 14.468019 
L 230.830694 11.447744 
L 230.967398 8.764564 
L 231.108407 9.273597 
L 231.414229 19.166481 
L 231.570913 17.448138 
L 231.966495 16.150105 
L 232.412206 20.174034 
L 232.826455 15.285373 
L 232.970694 15.492773 
L 233.168544 14.875671 
L 233.272479 12.834532 
L 233.41001 13.054482 
L 233.548417 14.403347 
L 233.721535 10.482442 
L 233.821448 12.517485 
L 234.507843 18.764557 
L 234.71966 19.276233 
L 234.852168 21.856078 
L 234.954763 20.043201 
L 235.160472 23.418053 
L 235.333038 22.433343 
L 235.541211 18.498134 
L 235.785751 18.864765 
L 235.952502 17.694923 
L 236.094123 18.810616 
L 236.227274 17.145611 
L 236.399975 16.986659 
L 236.50605 19.277315 
L 236.812224 19.50572 
L 236.950268 20.12781 
L 237.085796 19.442188 
L 237.363566 22.680028 
L 237.533955 22.551178 
L 237.807817 24.668347 
L 237.944005 21.183384 
L 238.191703 20.713051 
L 238.39076 23.888795 
L 238.561642 22.394248 
L 238.702533 19.778424 
L 238.800777 15.143222 
L 239.077138 17.580953 
L 239.213242 16.470259 
L 239.358103 18.217305 
L 239.384065 13.345019 
L 239.521962 16.471349 
L 239.660735 16.305579 
L 239.796937 15.792375 
L 239.968767 15.692749 
L 240.107652 17.176392 
L 240.314154 20.90503 
L 240.348696 19.499065 
L 240.381615 20.495054 
L 240.485522 20.72203 
L 240.721906 22.757557 
L 240.794001 22.274301 
L 241.068581 22.904626 
L 241.177061 20.194931 
L 241.275117 20.492817 
L 241.378055 23.090364 
L 241.626993 17.704936 
L 241.786177 16.765555 
L 241.938607 13.650136 
L 242.077386 13.179902 
L 242.182583 12.034061 
L 242.489746 16.367326 
L 242.66167 15.955072 
L 243.03947 22.353761 
L 243.176278 21.378451 
L 243.347698 23.71471 
L 243.58964 23.788982 
L 243.662887 25.50237 
L 243.863964 25.08539 
L 244.071221 26.609374 
L 244.206614 25.341749 
L 244.344309 27.258191 
L 244.485897 24.417151 
L 244.624542 24.387809 
L 245.039922 20.231973 
L 245.203566 16.709916 
L 245.358768 16.130184 
L 245.459003 14.897317 
L 245.592271 10.840976 
L 245.760243 11.597413 
L 246.243282 15.116361 
L 246.516504 13.918941 
L 246.587485 11.694387 
L 246.726413 13.688345 
L 246.868035 13.419916 
L 247.03394 13.396816 
L 247.307658 11.901715 
L 247.445761 12.275124 
L 247.719913 13.811829 
L 248.029465 19.089638 
L 248.167888 17.909937 
L 248.306053 18.280749 
L 248.443585 21.921641 
L 248.584203 20.483775 
L 248.856386 20.160872 
L 248.99824 17.941008 
L 249.164396 20.023084 
L 249.300884 17.332414 
L 249.439682 20.986321 
L 249.578399 21.565632 
L 249.864039 16.89548 
L 249.993746 17.949093 
L 250.026304 14.45032 
L 250.137177 18.080485 
L 250.302079 18.159774 
L 250.476797 19.218641 
L 250.57982 17.78044 
L 250.716052 18.685155 
L 250.868508 14.050382 
L 250.991723 14.063828 
L 251.292865 15.260855 
L 251.438335 13.158895 
L 251.577337 13.258749 
L 251.716553 14.24564 
L 251.8562 14.159173 
L 252.125043 10.187855 
L 252.264029 14.175457 
L 252.40514 12.836882 
L 252.704764 14.763404 
L 252.84948 15.265294 
L 253.119495 12.051148 
L 253.267399 13.486374 
L 253.399119 13.374826 
L 253.541707 14.788569 
L 253.842664 12.359239 
L 253.984249 13.904586 
L 254.149957 14.0389 
L 254.289263 14.436063 
L 254.494875 14.151362 
L 254.746956 12.194355 
L 254.819449 14.854124 
L 254.960142 15.345869 
L 255.263032 18.268764 
L 255.395552 15.768023 
L 255.58815 15.657834 
L 255.672176 17.34865 
L 255.957609 18.401106 
L 256.089856 17.863152 
L 256.256451 18.433243 
L 256.428727 21.35783 
L 256.540614 21.236172 
L 256.704335 22.031575 
L 257.425863 29.661508 
L 257.803474 28.813185 
L 257.975203 21.730554 
L 258.458014 14.514717 
L 258.662926 11.297415 
L 258.802728 11.17872 
L 258.972048 12.003992 
L 259.076116 9.855609 
L 259.24789 11.84941 
L 259.417632 12.218171 
L 259.522593 12.996263 
L 259.695961 12.913695 
L 259.967706 13.601758 
L 260.105013 15.136626 
L 260.531382 12.449801 
L 260.688441 13.283833 
L 260.825625 11.199296 
L 260.963718 12.759821 
L 261.203516 11.840791 
L 261.343276 11.780841 
L 261.410606 13.307362 
L 261.514016 13.086191 
L 261.65118 15.414519 
L 261.931614 14.230024 
L 261.961081 17.256485 
L 262.098514 15.727828 
L 262.26852 15.37141 
L 262.375066 14.203271 
L 262.648389 15.149513 
L 262.795977 13.447024 
L 262.922849 13.449016 
L 263.156251 13.715201 
L 263.200968 17.306978 
L 263.402992 17.825269 
L 263.657686 21.104166 
L 263.677876 23.314916 
L 263.815948 21.679815 
L 263.95258 21.464272 
L 264.124704 22.721983 
L 264.331365 22.864553 
L 264.366195 23.766748 
L 264.5193 22.032904 
L 264.778583 14.845375 
L 264.951611 15.294239 
L 265.065556 13.920908 
L 265.226634 14.533479 
L 265.510524 17.465674 
L 265.683159 19.751571 
L 265.95733 19.007214 
L 266.165296 19.592143 
L 266.198023 21.358947 
L 266.483856 17.617257 
L 266.65472 19.72795 
L 266.827334 19.730031 
L 267.207108 13.02187 
L 268.02796 20.631023 
L 268.270612 15.178239 
L 268.340771 15.524674 
L 268.476115 17.573302 
L 268.613357 16.165704 
L 268.784374 16.198499 
L 269.067398 15.137702 
L 269.198971 16.084502 
L 269.33643 14.169312 
L 269.516217 17.977649 
L 269.917783 14.905293 
L 270.051859 18.888082 
L 270.184073 18.91339 
L 270.492957 18.223238 
L 270.733168 16.644522 
L 270.801436 17.309391 
L 270.911641 15.177226 
L 271.010475 17.65369 
L 271.180849 17.702104 
L 271.386009 17.314596 
L 271.453857 14.097548 
L 271.626733 13.641212 
L 272.003225 16.037004 
L 272.3137 21.240663 
L 272.449701 21.523467 
L 272.591731 23.100898 
L 272.76081 21.539547 
L 272.898554 21.968241 
L 273.452471 18.346851 
L 273.654865 19.215152 
L 273.861695 16.713008 
L 274.03208 13.749447 
L 274.173866 14.623515 
L 274.307896 13.163767 
L 274.582863 17.821921 
L 274.750014 15.479603 
L 274.968816 16.260158 
L 275.134937 12.485781 
L 275.174456 15.034147 
L 275.406311 13.044924 
L 275.507463 17.726314 
L 275.614713 17.676455 
L 275.754874 19.209385 
L 275.855837 16.300681 
L 276.129071 18.386924 
L 276.300378 17.994716 
L 276.439183 21.2703 
L 276.580869 20.524501 
L 276.790744 21.020071 
L 276.852227 17.849854 
L 277.02506 15.726442 
L 277.127303 16.781988 
L 277.405619 17.86382 
L 277.435832 14.552446 
L 277.955084 12.414352 
L 278.096015 13.484187 
L 278.159049 17.227081 
L 278.43745 25.045615 
L 278.605614 23.295862 
L 278.710973 23.441407 
L 278.846593 23.007407 
L 279.090258 24.618797 
L 279.258028 22.332377 
L 279.567287 17.980354 
L 279.842041 13.25051 
L 279.979661 12.493185 
L 280.260327 13.511455 
L 280.404782 13.517877 
L 280.701473 12.11912 
L 280.839183 13.370955 
L 280.976123 12.489312 
L 281.423947 17.525319 
L 281.532227 15.543184 
L 281.699751 17.552183 
L 281.839474 17.558978 
L 281.975143 19.620952 
L 282.252883 19.399669 
L 282.387097 20.721483 
L 282.458611 17.893149 
L 282.768571 14.240905 
L 282.835529 11.822461 
L 282.971479 12.415517 
L 283.245487 9.390508 
L 283.390303 9.209252 
L 283.529509 9.69579 
L 283.817205 8.685835 
L 283.968165 10.842768 
L 284.121382 10.106701 
L 284.659036 14.762464 
L 284.899932 14.605139 
L 284.972053 13.139296 
L 285.139454 12.634391 
L 285.246463 14.436912 
L 285.415084 14.158089 
L 285.658057 11.897716 
L 285.964688 10.871316 
L 286.103659 13.804815 
L 286.51567 18.538523 
L 286.791664 15.006025 
L 286.834862 17.535311 
L 287.018334 14.931134 
L 287.154479 15.923083 
L 287.518136 13.601562 
L 287.648072 13.249959 
L 287.785222 10.704484 
L 288.024614 8.948356 
L 288.093433 11.485802 
L 288.264071 11.210198 
L 288.40497 13.67092 
L 288.58034 13.001761 
L 288.643284 11.715032 
L 288.780951 11.504058 
L 289.057819 8.749589 
L 289.537726 15.971146 
L 289.951906 18.844455 
L 290.120154 22.288105 
L 290.326022 23.23855 
L 290.360229 25.69875 
L 290.532223 27.445422 
L 290.787601 25.583884 
L 291.05547 24.22296 
L 291.190745 27.344522 
L 291.390989 25.778335 
L 291.672526 21.738431 
L 291.771397 21.905113 
L 292.073422 21.762431 
L 292.084947 22.696666 
L 292.219715 22.495134 
L 292.357036 22.678422 
L 292.495478 19.747188 
L 292.810426 18.283518 
L 292.976586 21.9296 
L 293.217658 21.843037 
L 293.320555 22.943356 
L 293.392661 22.610712 
L 293.802858 18.790698 
L 293.977245 21.018853 
L 294.119351 20.747721 
L 294.184709 23.319665 
L 294.629199 21.311823 
L 294.801204 21.478476 
L 294.903568 21.374967 
L 295.180611 26.854527 
L 295.487273 23.957178 
L 295.695 23.153065 
L 295.937736 27.853007 
L 296.287739 24.904367 
L 296.762431 29.236771 
L 296.897502 26.625737 
L 297.034489 27.052623 
L 297.309097 21.253247 
L 297.44663 20.203755 
L 297.756545 23.505963 
L 298.064734 17.599712 
L 298.172801 17.537296 
L 298.201419 18.651523 
L 298.408156 18.739749 
L 298.514005 17.917322 
L 298.615481 18.225794 
L 298.751834 15.449362 
L 298.899464 16.116288 
L 299.268224 10.951636 
L 299.305154 9.59283 
L 299.543533 8.679803 
L 299.618153 10.559658 
L 299.885771 10.617847 
L 300.057663 8.762575 
L 300.162381 12.505013 
L 300.297024 13.195519 
L 300.43508 13.253611 
L 300.587137 12.698729 
L 300.715949 12.885854 
L 300.868216 12.844413 
L 301.144738 12.195327 
L 301.169837 14.911018 
L 301.305717 12.3814 
L 301.449439 14.557272 
L 301.626111 12.361494 
L 301.724662 8.920411 
L 302.033449 10.680025 
L 302.272966 10.909218 
L 302.30996 11.262938 
L 302.48523 8.239469 
L 302.65228 7.908702 
L 302.964012 8.948989 
L 303.001458 7.428064 
L 303.178063 8.427564 
L 303.281865 6.483722 
L 303.416227 7.792103 
L 303.550271 7.31773 
L 303.843874 9.282108 
L 304.046657 6.289096 
L 304.300497 10.183155 
L 304.597365 20.672467 
L 304.737211 22.292009 
L 304.910481 18.619674 
L 304.98857 19.222372 
L 305.15397 18.414573 
L 305.28451 19.132246 
L 305.420857 21.06887 
L 305.558155 20.821929 
L 305.704127 18.933728 
L 305.976775 11.616737 
L 306.142041 9.905842 
L 306.281028 13.215356 
L 306.657273 9.08125 
L 306.761373 5.81997 
L 306.869671 7.021283 
L 307.103553 6.040878 
L 307.21804 9.34318 
L 307.264573 8.699373 
L 307.416445 9.034933 
L 307.550983 8.535716 
L 307.687897 7.585857 
L 307.963449 12.509195 
L 308.101661 16.670168 
L 308.408988 15.935845 
L 308.546424 9.9888 
L 308.690389 12.765476 
L 308.820894 11.510493 
L 308.967945 12.995103 
L 309.3828 9.044469 
L 309.520087 11.919289 
L 309.690974 12.147795 
L 309.962669 19.627601 
L 310.099005 18.763746 
L 310.238612 20.400754 
L 310.377331 18.95517 
L 310.514628 19.732293 
L 310.820951 22.002213 
L 310.960099 20.446013 
L 311.097869 21.751279 
L 311.235 20.949456 
L 311.429018 20.662161 
L 311.662445 17.186898 
L 311.958466 22.186608 
L 312.093834 22.058167 
L 312.23003 23.270371 
L 312.539206 16.099078 
L 312.650213 16.910589 
L 312.815492 17.092912 
L 312.999739 20.059943 
L 313.226584 18.232071 
L 313.364018 15.668383 
L 313.509214 17.0112 
L 313.638858 14.133111 
L 313.781984 13.770945 
L 313.95155 12.793359 
L 314.085783 14.766172 
L 314.359915 11.08814 
L 314.635735 11.748976 
L 314.840852 14.991292 
L 314.943933 12.216165 
L 315.055702 13.021543 
L 315.186558 14.971079 
L 315.49549 12.081067 
L 315.663947 12.787133 
L 315.908074 15.735965 
L 316.062019 15.35981 
L 316.214489 14.640738 
L 316.375155 14.842927 
L 316.500676 15.941166 
L 316.661 14.705015 
L 316.833222 18.359913 
L 316.936106 17.828078 
L 317.039201 18.542177 
L 317.19027 16.659497 
L 317.222872 14.448561 
L 317.351379 13.778654 
L 317.487912 13.767344 
L 317.694821 14.712619 
L 317.797578 13.681758 
L 318.210877 17.071754 
L 318.420987 17.110809 
L 318.455771 16.594332 
L 318.795305 18.574948 
L 318.899825 17.878654 
L 319.035501 16.082596 
L 319.173502 16.435157 
L 319.623426 13.723187 
L 319.883518 11.656558 
L 319.936066 12.748104 
L 320.045213 12.217436 
L 320.207812 14.996177 
L 320.36158 12.929061 
L 320.480915 13.818512 
L 321.032491 11.190315 
L 321.230051 11.387339 
L 321.304485 11.733336 
L 321.475786 13.748395 
L 321.746275 10.418314 
L 321.8838 9.283788 
L 322.171321 12.223248 
L 322.297253 12.154787 
L 322.502829 9.3898 
L 322.604762 11.696592 
L 322.846485 8.455246 
L 322.985976 8.324934 
L 323.059307 8.900153 
L 323.191105 12.431258 
L 323.498735 12.795284 
L 323.620949 14.935963 
L 323.774621 16.27972 
L 324.186585 22.397246 
L 324.41877 20.790648 
L 324.469773 21.015345 
L 324.757194 22.816754 
L 324.88558 20.828166 
L 325.11753 22.201793 
L 325.197093 21.436069 
L 325.293887 22.632072 
L 325.323316 18.883274 
L 325.426431 19.669695 
L 325.703181 17.976352 
L 325.771591 18.145923 
L 325.91006 17.630627 
L 326.154166 15.13274 
L 326.296254 15.548368 
L 326.44074 10.206529 
L 326.712052 11.002235 
L 327.161489 16.339119 
L 327.43038 16.771994 
L 327.568013 13.526311 
L 327.772947 15.579936 
L 327.9789 19.375122 
L 328.11713 19.057153 
L 328.288263 13.101717 
L 328.53237 13.397127 
L 328.59733 10.222725 
L 328.736392 9.244732 
L 328.846463 7.33088 
L 329.009615 12.812503 
L 329.147226 12.528758 
L 329.422908 12.939451 
L 329.561675 16.129501 
L 329.836055 18.122127 
L 329.937899 15.179393 
L 330.055752 15.319521 
L 330.367006 19.84715 
L 330.530623 18.040594 
L 330.644142 19.579398 
L 330.701962 16.899972 
L 330.874589 18.174455 
L 331.079174 17.623749 
L 331.20287 16.86012 
L 331.251955 18.487782 
L 331.42504 19.033935 
L 331.595374 17.624331 
L 331.702113 14.51033 
L 331.836577 14.554688 
L 332.02218 10.635821 
L 332.189303 11.607008 
L 332.31863 9.24418 
L 332.420829 10.12973 
L 332.560841 9.606505 
L 332.697623 10.564757 
L 332.870608 12.675505 
L 333.007777 11.488587 
L 333.11041 13.119536 
L 333.246007 10.712116 
L 333.453462 9.074628 
L 333.560376 6.457638 
L 333.831525 4.968201 
L 334.24355 2.703414 
L 334.5308 6.780596 
L 334.827905 10.322328 
L 335.11002 17.732253 
L 335.395668 14.858341 
L 335.534811 16.746042 
L 335.685565 16.55162 
L 335.797558 17.148919 
L 335.96227 17.06315 
L 336.167672 16.532366 
L 336.34 16.424509 
L 336.684151 20.165024 
L 336.857462 19.769826 
L 337.130806 15.821865 
L 337.23425 16.393709 
L 337.405499 16.572436 
L 337.646791 9.604101 
L 337.818963 11.42591 
L 338.062014 10.768764 
L 338.197562 11.540503 
L 338.334904 8.867901 
L 338.679174 11.799254 
L 338.853168 11.270129 
L 339.092526 18.568439 
L 339.22677 15.760486 
L 339.364367 15.510362 
L 339.503475 16.430718 
L 339.674217 19.232343 
L 340.084986 16.923629 
L 340.330515 16.712602 
L 340.49995 18.822382 
L 340.601938 17.545254 
L 340.772414 19.030522 
L 340.882528 17.66995 
L 341.048793 17.060195 
L 341.116908 15.559927 
L 341.224015 16.457087 
L 341.360829 15.618413 
L 341.636301 18.955919 
L 341.838193 15.890186 
L 341.975527 17.736654 
L 342.112249 16.225606 
L 342.289968 18.732483 
L 342.38855 16.817339 
L 342.627845 17.710858 
L 342.736267 16.825492 
L 342.798713 17.445586 
L 343.217847 11.970381 
L 343.473352 11.385489 
L 343.6291 8.03742 
L 343.833127 7.558496 
L 343.938449 9.238225 
L 344.075967 9.199141 
L 344.213224 10.940269 
L 344.522427 10.003361 
L 344.625529 13.367822 
L 344.767594 13.793359 
L 345.039805 20.156907 
L 345.189888 21.72859 
L 345.384394 20.074111 
L 345.487203 22.770246 
L 345.642096 22.143032 
L 345.764388 22.112943 
L 345.90055 22.504442 
L 346.176694 20.653414 
L 346.454276 16.965337 
L 346.62047 17.164569 
L 346.758484 17.955865 
L 346.89528 17.302282 
L 347.067211 19.742054 
L 347.318976 17.969997 
L 347.482114 18.890572 
L 347.664694 18.158698 
L 347.786574 19.033549 
L 347.890253 18.359979 
L 348.198542 20.237549 
L 348.509309 11.621895 
L 348.716441 11.487922 
L 348.754204 12.022309 
L 349.161414 11.283182 
L 349.405044 11.417897 
L 349.613504 8.405108 
L 349.779728 12.438563 
L 349.927025 12.904006 
L 350.347833 15.537701 
L 350.4472 14.476263 
L 350.471897 16.203784 
L 350.608333 13.067953 
L 350.78064 13.203631 
L 351.021093 17.086834 
L 351.182836 16.370772 
L 351.32929 17.025767 
L 351.501228 16.296909 
L 351.642615 15.033458 
L 351.75163 15.645528 
L 352.12392 21.025488 
L 352.157879 20.791126 
L 352.293728 17.077188 
L 352.53439 17.184687 
L 352.706709 20.415093 
L 352.877064 20.778949 
L 353.156581 24.4716 
L 353.291061 21.392541 
L 353.425853 21.477512 
L 353.605588 21.225192 
L 353.700975 20.431178 
L 353.845601 16.950451 
L 354.183455 15.60113 
L 354.286123 14.481424 
L 354.575116 7.176019 
L 354.768155 7.337257 
L 354.913427 7.12612 
L 355.282537 16.332634 
L 355.611162 15.462726 
L 355.866862 22.898366 
L 356.004747 23.195981 
L 356.277983 21.863055 
L 356.554109 17.083016 
L 356.690046 15.943012 
L 356.863078 18.206263 
L 356.999111 17.262443 
L 357.113288 18.355226 
L 357.274989 18.192725 
L 357.412931 17.739436 
L 357.549133 15.463965 
L 357.727035 16.991853 
L 357.998569 16.111488 
L 358.137038 16.450799 
L 358.272382 15.316326 
L 358.616062 10.255157 
L 358.717749 10.372475 
L 358.891104 10.113293 
L 358.994905 11.105685 
L 359.104459 9.859554 
L 359.266192 10.205887 
L 359.405521 9.062577 
L 359.541762 6.988848 
L 359.785307 7.815877 
L 359.850857 12.162199 
L 360.112087 8.429204 
L 360.401388 13.247566 
L 360.573556 11.170993 
L 360.830345 14.367852 
L 360.94958 16.465838 
L 361.240599 11.380894 
L 361.397199 12.585518 
L 361.533621 15.422452 
L 361.77385 14.177917 
L 361.913591 15.799775 
L 361.946525 17.514005 
L 362.08585 17.720085 
L 362.227572 13.350416 
L 362.704829 17.76831 
L 362.830274 15.201019 
L 363.013591 14.503033 
L 363.39057 8.790001 
L 363.665978 13.770858 
L 363.838642 13.057736 
L 363.940687 15.144881 
L 364.112241 15.503155 
L 364.352567 14.140121 
L 364.466032 12.59573 
L 364.628358 13.257111 
L 364.66189 12.993387 
L 364.801034 16.403532 
L 364.937529 13.538582 
L 365.074362 14.216573 
L 365.497243 7.659554 
L 365.796831 13.902954 
L 365.936023 14.031436 
L 366.243457 10.713204 
L 366.385118 12.980962 
L 366.657088 11.239363 
L 366.895367 12.133453 
L 366.937783 13.57436 
L 367.103449 12.425708 
L 367.244065 10.612198 
L 367.482507 14.781541 
L 367.652632 12.540828 
L 367.962506 13.961598 
L 368.070173 15.242309 
L 368.20432 12.487589 
L 368.477663 13.347025 
L 368.687151 18.066344 
L 368.761865 16.830133 
L 369.271644 21.198047 
L 369.387977 20.335975 
L 369.79313 23.967556 
L 369.931808 21.511428 
L 370.101323 21.425564 
L 370.203683 21.630502 
L 370.509334 19.053414 
L 370.635592 17.135436 
L 370.788355 18.379955 
L 371.201376 14.867497 
L 371.357579 15.807526 
L 371.485928 14.593955 
L 371.623972 14.655767 
L 371.761667 16.222645 
L 371.935134 16.6543 
L 372.038861 13.603602 
L 372.224041 13.925557 
L 372.347462 12.729842 
L 372.484186 12.69341 
L 372.619751 12.301935 
L 372.860391 12.86254 
L 372.997891 11.805882 
L 373.03183 10.532945 
L 373.204047 10.682992 
L 373.341569 11.778328 
L 373.447597 14.481582 
L 373.756396 10.493639 
L 373.903759 9.725862 
L 374.042245 11.166579 
L 374.167544 10.763454 
L 374.340941 11.149949 
L 374.45991 13.472703 
L 374.997364 7.564585 
L 375.238564 12.860457 
L 375.341727 15.558923 
L 375.444428 14.482206 
L 375.753818 17.160157 
L 375.78888 15.650169 
L 376.172901 20.124244 
L 376.304191 22.227048 
L 376.481981 20.904965 
L 376.58606 18.698757 
L 376.888819 16.759105 
L 377.169993 11.230593 
L 377.306213 11.332063 
L 377.752757 8.862148 
L 378.026804 12.175294 
L 378.16447 10.218226 
L 378.579559 18.03678 
L 378.715799 15.710608 
L 378.932477 14.649083 
L 379.026991 15.419046 
L 379.198063 17.854345 
L 379.336307 15.819707 
L 379.440087 16.534525 
L 379.798247 20.721629 
L 379.824379 18.882045 
L 379.864625 18.928734 
L 379.994755 18.497476 
L 380.137877 18.504998 
L 380.414075 23.024248 
L 380.549461 22.32058 
L 380.858889 24.140124 
L 380.996373 26.066216 
L 381.271539 24.848981 
L 381.511715 25.844214 
L 381.57954 27.780242 
L 381.991378 23.656468 
L 382.129026 25.131924 
L 382.303479 25.449818 
L 382.404487 22.256652 
L 382.579671 22.857511 
L 382.714981 24.589807 
L 382.851983 23.200034 
L 383.059414 22.728054 
L 383.13511 24.173753 
L 383.401008 24.416106 
L 384.022407 14.297561 
L 384.244006 14.124414 
L 384.329352 14.530138 
L 384.398242 13.37485 
L 384.53769 9.107915 
L 384.681051 8.869728 
L 384.820627 8.133869 
L 385.019541 9.351615 
L 385.120044 8.919761 
L 385.325355 12.601203 
L 385.497671 12.800806 
L 385.606636 12.10396 
L 385.844048 9.412233 
L 385.948827 10.489106 
L 386.160425 9.599914 
L 386.430877 12.170716 
L 386.600216 15.777847 
L 386.673158 9.674719 
L 386.913452 9.43654 
L 386.959417 8.486199 
L 387.122361 11.876416 
L 387.400409 14.334544 
L 387.529804 12.108164 
L 387.670311 12.278722 
L 387.805806 12.743107 
L 387.945784 11.264122 
L 388.156625 12.801476 
L 388.411484 18.524682 
L 388.664374 15.867889 
L 388.805619 15.982487 
L 389.075166 20.473006 
L 389.243522 17.082819 
L 389.523961 18.281652 
L 389.551915 15.664572 
L 389.934001 13.546795 
L 390.067304 14.140645 
L 390.105791 16.84813 
L 390.383762 17.252905 
L 390.514732 13.911248 
L 390.685727 15.474184 
L 390.962055 12.786475 
L 391.167901 13.870203 
L 391.342134 10.798642 
L 391.443244 11.494073 
L 391.511787 8.184543 
L 391.649135 7.501448 
L 391.820587 7.35857 
L 391.926362 7.092457 
L 392.088565 9.228836 
L 392.509916 11.903199 
L 392.646418 15.421129 
L 392.85411 14.956137 
L 392.92573 18.291531 
L 393.064434 19.460927 
L 393.26592 17.225417 
L 393.442376 19.354015 
L 393.505949 17.724498 
L 393.712667 19.098352 
L 393.820253 21.637917 
L 393.925489 20.957427 
L 394.30431 23.821341 
L 394.453838 20.621292 
L 394.515012 22.191175 
L 394.681093 22.551112 
L 394.784383 23.211422 
L 395.060624 20.809997 
L 395.265568 18.750125 
L 395.403593 19.4679 
L 395.505704 18.218127 
L 395.644066 14.223299 
L 395.780942 15.029044 
L 395.921938 14.07839 
L 396.068922 18.076082 
L 396.195321 17.289342 
L 396.502161 18.267238 
L 396.639623 15.82421 
L 396.781263 16.292216 
L 397.054187 13.478449 
L 397.331051 12.680154 
L 397.535394 8.138271 
L 397.961392 10.942005 
L 398.068351 13.682028 
L 398.217393 11.301158 
L 398.236518 12.319012 
L 398.477981 18.061043 
L 398.71909 19.26052 
L 398.787591 17.469993 
L 398.924541 20.622917 
L 399.169799 15.619655 
L 399.315967 17.066013 
L 399.474133 14.159784 
L 399.628796 15.433659 
L 399.748144 14.647658 
L 399.936006 12.494441 
L 400.023798 12.664147 
L 400.207726 11.784499 
L 400.440614 9.771088 
L 400.470552 10.462535 
L 400.606883 11.072924 
L 400.749251 10.238741 
L 400.887004 10.779048 
L 401.058647 10.533576 
L 401.16348 10.963692 
L 401.298706 9.711579 
L 401.569537 9.90177 
L 401.74596 13.813284 
L 401.883258 16.265912 
L 402.158118 15.377172 
L 402.329812 16.609274 
L 402.443511 14.985791 
L 402.473125 15.213951 
L 402.606988 16.902854 
L 402.712069 19.91989 
L 402.741964 17.855609 
L 402.969195 17.773136 
L 403.020233 19.405524 
L 403.207164 17.094096 
L 403.365067 12.93182 
L 403.607591 17.112096 
L 404.502843 12.145698 
L 404.601974 12.953737 
L 404.882312 11.428578 
L 405.081293 10.402608 
L 405.184544 11.63058 
L 405.528609 8.576711 
L 405.703359 9.800806 
L 405.841086 8.999914 
L 406.009342 4.939096 
L 406.799408 12.339388 
L 406.867748 15.304372 
L 407.08739 16.248797 
L 407.418566 22.688071 
L 407.727337 18.613664 
L 407.831382 20.599689 
L 408.279077 13.095932 
L 408.44889 11.540374 
L 408.55957 12.001491 
L 408.689279 11.082105 
L 408.862955 11.11677 
L 409.21639 15.501806 
L 409.274572 12.18846 
L 409.445759 13.017693 
L 409.690864 18.151984 
L 410.131379 12.224613 
L 410.269601 12.069343 
L 410.408734 12.901659 
L 410.579774 11.782393 
L 410.685069 12.223361 
L 410.818342 15.355657 
L 411.039217 12.635142 
L 411.248237 14.287039 
L 411.294728 16.831597 
L 411.30748 15.493632 
L 411.409987 15.601705 
L 411.685122 18.493785 
L 411.825773 14.945764 
L 411.962862 15.400889 
L 412.101725 16.912322 
L 412.323867 13.791597 
L 412.386935 15.401759 
L 412.518892 14.58846 
L 412.685871 14.448565 
L 412.822466 16.629328 
L 413.100966 14.467752 
L 413.239048 17.781827 
L 413.409741 15.774272 
L 413.545736 16.934198 
L 413.787174 17.208018 
L 413.924882 15.489316 
L 413.993485 16.725128 
L 414.140971 14.721569 
L 414.307865 14.585361 
L 414.510467 16.836856 
L 414.647368 16.898106 
L 414.789015 19.419149 
L 414.957091 16.957441 
L 415.264424 17.665057 
L 415.416602 16.810708 
L 415.507751 20.548473 
L 415.818474 18.543497 
L 415.954709 19.735088 
L 416.126541 18.789863 
L 416.22938 15.087723 
L 416.364571 14.860382 
L 417.545136 3.298017 
L 417.745164 6.04276 
L 417.950963 11.763561 
L 418.264563 14.119809 
L 418.431589 11.439834 
L 418.501503 12.17676 
L 418.914268 23.065194 
L 419.050159 24.402855 
L 419.323441 20.991068 
L 419.495617 22.579925 
L 419.642699 22.663851 
L 419.794646 25.338553 
L 419.912713 24.103127 
L 420.492498 12.519588 
L 420.631446 14.235898 
L 420.770927 9.555388 
L 420.939069 9.721581 
L 421.11238 10.126824 
L 421.217349 6.924828 
L 421.321895 11.176931 
L 421.353387 9.063776 
L 421.489605 7.977745 
L 421.62766 8.307317 
L 421.94768 10.485966 
L 422.219152 9.244538 
L 422.248911 12.845585 
L 422.464202 9.822259 
L 422.627416 15.169615 
L 422.765945 13.554255 
L 423.128598 16.167292 
L 423.365512 13.393774 
L 423.47142 14.641648 
L 423.608309 14.474237 
L 423.743642 15.163557 
L 423.919318 17.087725 
L 424.053211 15.133426 
L 424.343131 15.880099 
L 424.477494 15.437995 
L 424.712443 18.301838 
L 424.740199 15.770848 
L 424.877531 13.694887 
L 425.084328 13.625145 
L 425.186157 15.480877 
L 425.499235 16.723548 
L 425.603339 14.621064 
L 425.881342 17.462886 
L 426.117164 17.555123 
L 426.392071 23.53642 
L 426.597363 23.789979 
L 426.73641 21.925139 
L 426.873633 18.976247 
L 427.017237 21.118348 
L 427.208702 19.046099 
L 427.291694 20.705818 
L 427.458188 21.389742 
L 427.599115 20.452179 
L 427.734878 18.027604 
L 427.869525 17.636587 
L 428.017084 16.355132 
L 428.318505 20.698731 
L 428.488928 17.376572 
L 428.607073 18.516892 
L 428.876206 10.857999 
L 429.177376 13.650196 
L 429.293045 11.690694 
L 429.497172 11.530857 
L 429.590568 6.553394 
L 429.863642 8.379491 
L 430.001802 8.236003 
L 430.147715 10.566313 
L 430.315445 10.200252 
L 430.449481 10.207543 
L 430.86205 14.090414 
L 430.998661 16.24053 
L 431.308852 17.80111 
L 431.340351 17.26295 
L 431.445439 15.670666 
L 431.547688 15.888207 
L 431.856426 16.905532 
L 432.029507 16.918864 
L 432.132157 16.511182 
L 432.26966 17.677971 
L 432.407315 16.388786 
L 432.578302 16.390173 
L 432.719337 18.540095 
L 432.851612 18.347728 
L 432.990033 19.296764 
L 433.128016 21.543037 
L 433.300139 22.119227 
L 433.402561 21.646964 
L 433.653048 21.893352 
L 433.71091 20.434161 
L 433.851222 19.891626 
L 434.171078 17.329364 
L 434.362532 16.571117 
L 434.40087 17.278957 
L 434.538251 16.542586 
L 434.708058 12.776945 
L 434.984824 14.176194 
L 435.119083 11.943293 
L 435.265686 11.394941 
L 435.573895 12.92381 
L 435.745379 14.079863 
L 435.850488 12.659662 
L 436.020742 12.501881 
L 436.123001 15.022631 
L 436.467147 9.622845 
L 436.572582 9.755969 
L 436.742782 12.463005 
L 436.816369 10.228346 
L 436.986019 9.469463 
L 437.292743 10.733247 
L 437.534508 13.683085 
L 437.810959 16.337344 
L 437.879523 15.402613 
L 437.981861 16.168469 
L 438.359214 17.470531 
L 438.427931 16.468774 
L 438.635003 15.574656 
L 438.80717 13.143558 
L 439.0866 11.464365 
L 439.253027 13.36545 
L 439.390543 12.850457 
L 439.668089 10.562367 
L 439.80601 11.120295 
L 439.977403 13.190714 
L 440.080266 12.0271 
L 440.215533 14.717194 
L 440.41876 13.87378 
L 440.521021 12.147517 
L 440.669175 11.666554 
L 440.899255 11.411254 
L 440.966976 15.250855 
L 441.344744 20.876259 
L 441.413463 17.885655 
L 441.558304 17.8222 
L 441.792273 13.245119 
L 442.107061 15.874305 
L 442.251612 16.445594 
L 442.651488 7.398169 
L 442.796224 8.502652 
L 442.958911 8.567588 
L 443.096683 8.909989 
L 443.342891 13.566862 
L 443.510691 11.943725 
L 443.64793 11.750927 
L 443.785896 10.664274 
L 443.925008 11.568968 
L 444.162124 12.142975 
L 444.231695 14.329329 
L 444.367563 14.795715 
L 444.540362 17.278287 
L 444.714751 14.589774 
L 444.978243 17.932597 
L 445.204511 16.555978 
L 445.423767 18.799957 
L 445.495008 21.538316 
L 445.525826 16.949548 
L 445.642175 16.765313 
L 445.777762 18.005085 
L 445.927163 17.328527 
L 446.049049 17.394486 
L 446.22195 13.54076 
L 446.667288 19.193273 
L 446.773576 16.028038 
L 446.978122 15.064389 
L 446.978455 9.939353 
L 447.051542 15.333342 
L 447.425368 11.558994 
L 447.491995 13.373854 
L 447.631261 12.731467 
L 447.904777 9.831831 
L 448.191518 10.172524 
L 448.321875 12.459717 
L 448.454099 11.577188 
L 448.63 11.168689 
L 449.0372 17.081893 
L 449.314469 18.241041 
L 449.483473 16.830286 
L 449.623546 19.557307 
L 449.759681 19.327327 
L 450.033925 23.08161 
L 450.170794 21.381041 
L 450.321376 18.03102 
L 450.447065 18.621799 
L 450.623616 18.885701 
L 450.754745 18.399161 
L 451.031193 16.376204 
L 451.168268 16.737337 
L 451.304775 15.220885 
L 451.452562 16.154571 
L 451.586827 16.268917 
L 451.718815 17.910343 
L 451.891586 16.586582 
L 452.026653 16.640634 
L 452.162834 15.225379 
L 452.441412 16.148774 
L 452.885492 13.550558 
L 453.025906 15.006144 
L 453.164425 14.318603 
L 453.435883 11.134956 
L 453.714332 15.857703 
L 453.85039 13.563261 
L 454.301482 17.081799 
L 454.573001 11.756649 
L 454.75057 14.137959 
L 454.779173 13.930665 
L 454.916771 13.568003 
L 455.126214 9.260704 
L 455.293505 10.807122 
L 455.467647 9.32296 
L 455.571447 5.698909 
L 455.775445 6.440241 
L 455.990897 11.008172 
L 456.154907 9.905721 
L 456.292556 10.71415 
L 456.566701 13.155238 
L 456.703268 10.785981 
L 456.864883 11.556208 
L 456.877309 18.00796 
L 456.980625 13.018822 
L 457.012847 13.067238 
L 457.496184 14.971615 
L 457.700315 15.10019 
L 457.836473 15.524791 
L 458.00783 12.019665 
L 458.421985 15.038717 
L 458.557914 13.353587 
L 458.73087 12.619341 
L 458.973803 17.374408 
L 459.210818 16.445602 
L 459.316396 17.705481 
L 459.451734 21.763467 
L 459.660643 21.743511 
L 459.691286 22.833911 
L 459.797065 20.476382 
L 459.966281 23.287342 
L 460.106509 23.644234 
L 460.447405 18.887727 
L 460.551215 19.999937 
L 460.831975 16.784549 
L 460.983069 18.403676 
L 461.243781 17.039901 
L 461.410389 14.178378 
L 461.685881 14.70017 
L 461.801556 12.556107 
L 461.866505 15.09828 
L 461.962601 14.138271 
L 462.205405 16.353215 
L 462.271988 15.987166 
L 462.422524 15.071464 
L 462.520079 17.105363 
L 462.871212 19.593624 
L 462.993877 17.137839 
L 463.169539 17.164356 
L 463.234712 16.808172 
L 463.477125 17.83309 
L 463.513149 17.598858 
L 463.81903 20.248941 
L 463.955826 20.702467 
L 464.095587 20.76211 
L 464.541243 23.083603 
L 464.645369 19.506929 
L 464.816693 17.763858 
L 464.988741 17.167764 
L 465.22874 10.813305 
L 465.401364 8.879665 
L 465.549365 8.856118 
L 465.675032 4.760144 
L 465.917025 4.980076 
L 466.225001 12.089538 
L 466.397294 10.389076 
L 466.808679 15.965264 
L 466.946335 15.426934 
L 467.105669 16.21514 
L 467.255029 19.601404 
L 467.291368 19.017885 
L 467.534604 10.823234 
L 467.637075 11.870965 
L 467.805916 15.989139 
L 467.943222 14.297037 
L 468.390842 17.975797 
L 468.494487 16.452511 
L 469.113229 24.455459 
L 469.215733 20.319637 
L 469.353287 22.555038 
L 469.820055 13.024517 
L 469.983433 14.65746 
L 470.425351 10.554956 
L 470.491874 9.99056 
L 470.664934 12.743423 
L 470.869159 10.345638 
L 471.048571 12.879842 
L 471.213854 18.904752 
L 471.390416 18.981286 
L 471.631878 21.661386 
L 471.765777 20.567957 
L 472.212152 24.191989 
L 472.624075 14.826511 
L 472.90247 13.544764 
L 473.173171 17.781488 
L 473.383342 19.919576 
L 473.621417 16.284153 
L 474.032662 20.372382 
L 474.171969 18.000495 
L 474.307426 19.199775 
L 474.475042 18.917333 
L 474.610967 19.070063 
L 474.895306 12.649539 
L 475.024522 12.007861 
L 475.33164 15.611765 
L 475.881986 9.813592 
L 476.016637 5.842781 
L 476.462736 8.74409 
L 476.600103 8.420101 
L 476.88021 6.583951 
L 477.150753 12.198365 
L 477.289789 11.506562 
L 477.432375 14.795239 
L 477.598611 14.748166 
L 477.87127 16.707104 
L 478.012433 14.738267 
L 478.146511 15.520213 
L 478.288719 19.459074 
L 478.426507 19.702598 
L 478.593629 19.44954 
L 478.730532 18.992571 
L 478.869165 17.868315 
L 479.00644 19.498185 
L 479.159069 19.480172 
L 479.285472 20.465847 
L 479.432572 20.276044 
L 479.636635 20.675272 
L 479.869788 16.145713 
L 480.002283 15.83296 
L 480.139772 18.077555 
L 480.417524 16.068695 
L 480.450147 16.302225 
L 480.587533 13.836018 
L 480.7585 13.123118 
L 480.86245 14.041409 
L 480.999788 13.511544 
L 481.20877 12.238228 
L 481.418508 17.084734 
L 481.582959 15.614173 
L 481.963275 19.254319 
L 482.065026 22.383577 
L 482.167035 20.720952 
L 482.340828 20.655996 
L 482.442163 16.57703 
L 482.579857 16.704824 
L 482.8227 16.374121 
L 483.000592 16.928479 
L 483.16481 17.023276 
L 483.46194 11.789742 
L 483.542638 11.985234 
L 483.731464 11.909664 
L 483.939004 14.302543 
L 484.006074 11.410322 
L 484.178659 11.41142 
L 484.555706 5.818802 
L 484.693643 5.338195 
L 484.830367 3.971637 
L 485.243662 11.475365 
L 485.416229 14.265321 
L 485.55241 12.241771 
L 485.827447 13.146958 
L 486.27306 18.014399 
L 486.616092 14.297556 
L 486.685158 11.307568 
L 486.891748 10.934125 
L 486.994816 13.517098 
L 487.270707 11.760973 
L 487.408232 13.177826 
L 487.5475 12.360316 
L 487.957528 13.357166 
L 488.266619 18.537166 
L 488.405849 16.263805 
L 488.814783 23.692751 
L 488.967029 21.809674 
L 489.107047 22.675923 
L 489.314213 20.474905 
L 489.386085 21.816288 
L 489.527332 20.704742 
L 489.667539 21.192717 
L 489.827853 23.773905 
L 490.108078 20.270125 
L 490.241292 19.641274 
L 490.450266 20.575948 
L 490.592439 20.135231 
L 490.689247 22.071817 
L 490.791837 21.535271 
L 490.929703 19.535655 
L 491.376225 15.714536 
L 491.452225 13.715751 
L 491.514313 15.493984 
L 491.651134 11.775073 
L 491.961573 12.71368 
L 492.101047 10.67895 
L 492.238496 6.023126 
L 492.545236 7.798947 
L 492.685288 9.090482 
L 492.801723 13.630436 
L 492.928682 10.707852 
L 493.06423 13.221911 
L 493.305667 11.772237 
L 493.392955 13.457898 
L 493.619116 14.275126 
L 493.705715 15.669714 
L 494.074797 12.878359 
L 494.336867 11.995929 
L 494.371104 12.868548 
L 494.923854 6.254467 
L 495.063161 7.348795 
L 495.232522 6.796672 
L 495.628284 8.038559 
L 495.7889 9.867142 
L 496.070392 10.661121 
L 496.125998 12.409858 
L 496.23042 11.37335 
L 496.510533 16.099995 
L 496.643086 15.640937 
L 496.793868 13.79672 
L 496.920163 14.707878 
L 497.08789 12.689214 
L 497.248455 8.827261 
L 497.576295 10.997078 
L 497.648515 11.566892 
L 497.784213 11.36214 
L 497.924224 10.847613 
L 498.060952 14.009362 
L 498.40118 15.172065 
L 498.468725 15.582825 
L 498.616181 18.011414 
L 498.915489 17.40658 
L 499.089155 15.879663 
L 499.362961 17.274728 
L 499.469259 14.994861 
L 499.711961 15.753012 
L 499.957862 14.695675 
L 500.089985 11.536279 
L 500.223978 12.296857 
L 500.325543 10.929765 
L 500.471144 10.850946 
L 500.634956 11.446235 
L 501.0535 8.820938 
L 501.151832 9.250824 
L 501.220203 9.134521 
L 501.425759 8.551087 
L 501.597718 13.761673 
L 501.742468 11.735579 
L 501.875581 13.577043 
L 502.012327 11.876743 
L 502.044791 9.621454 
L 502.361473 14.925615 
L 502.460311 14.752038 
L 502.768807 20.562599 
L 502.870972 19.031427 
L 503.07737 18.356913 
L 503.214179 21.648575 
L 503.324365 20.254132 
L 503.491977 19.87219 
L 503.637575 16.318625 
L 504.004846 20.386253 
L 504.110185 16.235779 
L 504.936558 10.735141 
L 505.114511 15.023629 
L 505.276652 13.901984 
L 505.481763 14.469509 
L 505.584232 12.45186 
L 505.723618 15.263228 
L 505.91012 14.757825 
L 506.00893 13.395244 
L 506.144281 15.975057 
L 506.58222 12.100311 
L 506.720594 11.304254 
L 506.858703 9.182769 
L 507.029149 13.239745 
L 507.294166 12.020894 
L 507.309267 11.008429 
L 507.441857 13.776439 
L 507.578667 12.771375 
L 507.796744 12.811968 
L 507.858646 15.208798 
L 508.128679 15.145935 
L 508.300947 17.208171 
L 508.408297 16.199888 
L 508.579871 17.877399 
L 508.712563 22.079546 
L 508.987892 19.06612 
L 509.130957 21.344388 
L 509.402134 16.526283 
L 509.577943 14.649813 
L 509.958941 16.942867 
L 509.984684 16.815624 
L 510.294591 9.237986 
L 510.466611 9.033955 
L 510.568376 8.379879 
L 510.740393 10.413452 
L 510.985815 18.524049 
L 511.254771 17.497688 
L 511.29004 14.683439 
L 511.427575 12.652955 
L 511.706085 19.09675 
L 511.987445 24.2754 
L 512.16607 24.517847 
L 512.333158 24.109554 
L 512.541388 26.448911 
L 512.815645 31.260093 
L 513.087751 29.800533 
L 513.263715 22.896547 
L 513.536827 21.192771 
L 513.643196 22.500484 
L 514.201911 10.470142 
L 514.70609 16.700628 
L 515.014855 13.070684 
L 515.233737 14.32251 
L 515.506921 19.941322 
L 515.68562 15.841676 
L 515.884105 15.919389 
L 515.987086 14.913042 
L 516.090638 12.055576 
L 516.50315 11.88162 
L 516.677608 8.781851 
L 516.836261 5.961167 
L 517.298916 7.969003 
L 517.571256 13.369389 
L 517.571519 22.006655 
L 517.687308 16.644828 
L 517.812179 16.270196 
L 517.983645 16.651514 
L 518.121817 16.247963 
L 518.367544 19.063217 
L 518.535092 20.953912 
L 518.757076 21.842042 
L 518.812254 18.217013 
L 518.953352 18.154268 
L 519.188795 18.275498 
L 519.258934 18.449717 
L 519.497423 18.481376 
L 519.636435 20.651416 
L 519.708392 19.03662 
L 519.854989 19.33227 
L 520.379965 15.678898 
L 520.598757 16.919955 
L 520.665821 16.1525 
L 520.768061 16.919789 
L 520.942226 14.280109 
L 521.078349 15.067823 
L 521.214948 15.087219 
L 521.492404 16.253289 
L 521.797826 20.840489 
L 521.95523 19.241818 
L 521.970205 20.033168 
L 522.074719 20.086463 
L 522.406226 22.326517 
L 522.52209 25.092611 
L 522.634154 26.0957 
L 522.797474 25.714225 
L 523.012657 23.206696 
L 523.489267 25.335238 
L 523.621278 24.880662 
L 523.757459 23.938648 
L 523.998842 24.302917 
L 524.242523 27.969595 
L 524.341523 28.868179 
L 524.47927 25.148366 
L 524.719641 24.1315 
L 524.754646 25.166502 
L 524.896943 24.135619 
L 525.246157 23.585922 
L 525.752815 14.870902 
L 525.903275 17.802285 
L 526.096402 17.999135 
L 526.473356 14.248457 
L 526.679998 13.323678 
L 527.203304 17.812086 
L 527.454408 12.341914 
L 527.640897 11.718575 
L 527.744869 13.342379 
L 527.950122 13.191415 
L 528.224123 11.983703 
L 528.466794 10.432331 
L 528.603383 6.953715 
L 528.739773 8.726457 
L 528.878504 6.665856 
L 529.050748 6.508939 
L 529.170122 5.949308 
L 529.325555 8.865991 
L 529.462739 9.139314 
L 529.600712 7.333958 
L 529.737183 7.253052 
L 530.322999 19.53152 
L 530.56729 23.168656 
L 530.72806 22.862863 
L 530.843969 20.712189 
L 530.98454 20.291009 
L 531.04359 19.007002 
L 531.268071 20.430028 
L 531.424233 15.036151 
L 531.765535 12.622012 
L 531.86856 7.420785 
L 532.006723 6.235709 
L 532.213965 6.861731 
L 532.281605 8.263963 
L 532.45368 9.175989 
L 532.557365 10.855064 
L 532.730017 9.584785 
L 532.935551 9.903808 
L 533.07591 8.945327 
L 533.148622 9.38148 
L 533.382139 12.057348 
L 533.484836 11.542981 
L 533.588273 13.313879 
L 533.763811 13.31952 
L 533.896672 13.976709 
L 534.006119 13.132206 
L 534.138107 13.07992 
L 534.414782 17.16434 
L 534.5515 18.723731 
L 534.756663 15.87077 
L 534.859199 18.339609 
L 535.034457 15.963575 
L 535.13381 16.612811 
L 535.306317 16.738399 
L 535.413788 14.956428 
L 535.58029 17.211632 
L 535.727111 15.608639 
L 535.927538 15.871271 
L 536.061427 13.877296 
L 536.198813 16.502445 
L 536.33683 15.613164 
L 536.439827 16.402786 
L 536.577086 15.237546 
L 536.71154 16.486544 
L 536.887061 15.512295 
L 537.126858 11.207403 
L 537.378716 11.553699 
L 537.544516 13.446843 
L 537.848808 10.786001 
L 537.986401 13.072721 
L 538.125877 13.430925 
L 538.535553 17.716779 
L 538.880197 15.016242 
L 538.982314 10.134686 
L 539.298275 14.397568 
L 539.396635 13.80889 
L 539.531763 14.104733 
L 539.859268 16.51434 
L 540.253748 19.562662 
L 540.426458 23.227408 
L 540.528793 23.039908 
L 540.699994 21.463396 
L 540.966862 18.531905 
L 541.33492 16.075328 
L 541.541606 11.524222 
L 541.678701 12.110567 
L 541.8241 12.173496 
L 542.162923 9.331525 
L 542.268706 9.233078 
L 542.443204 10.333521 
L 542.524014 12.662049 
L 542.956673 8.147641 
L 543.096633 8.064578 
L 543.509847 10.00524 
L 543.645583 9.200164 
L 543.816187 6.10546 
L 543.923326 6.530664 
L 544.091041 8.965272 
L 544.234554 9.112711 
L 544.503231 12.26206 
L 544.640937 11.231321 
L 544.916512 14.097255 
L 545.227653 15.485082 
L 545.362173 15.074863 
L 545.504516 15.271929 
L 545.643094 19.667565 
L 545.784 20.181367 
L 545.949051 18.858278 
L 546.085811 19.511239 
L 546.221849 17.565553 
L 546.358904 20.25268 
L 546.498875 19.307735 
L 546.669044 21.760918 
L 546.771951 19.892913 
L 546.914295 19.726737 
L 547.050704 17.223487 
L 547.219509 16.229077 
L 547.364291 19.421614 
L 547.684923 18.795057 
L 547.702086 19.03278 
L 547.77144 17.787639 
L 548.08312 18.797702 
L 548.769807 13.193137 
L 548.907736 15.155443 
L 549.04425 14.228261 
L 549.184465 14.578855 
L 549.332498 15.680397 
L 549.459965 14.360918 
L 549.606589 14.092518 
L 549.904349 16.351601 
L 550.042209 15.259151 
L 550.076407 13.262149 
L 550.181255 16.215841 
L 550.319105 12.261231 
L 550.483851 11.483006 
L 550.765559 7.296603 
L 550.902889 8.695655 
L 551.074967 8.96831 
L 551.314329 10.073811 
L 551.560096 10.079977 
L 551.76103 9.966361 
L 551.865973 10.06992 
L 552.037038 10.595126 
L 552.276204 12.318522 
L 552.798578 4.040894 
L 552.999386 5.914052 
L 553.169631 4.643339 
L 553.340893 10.030663 
L 553.615399 7.493613 
L 553.724421 9.544282 
L 553.896251 8.675011 
L 554.167799 14.692301 
L 554.340165 13.726884 
L 554.71786 14.564202 
L 554.85136 18.858695 
L 555.024389 18.495918 
L 555.162341 17.148122 
L 555.301168 20.456934 
L 555.538074 20.202642 
L 555.608101 18.038556 
L 555.778344 18.481841 
L 555.888539 17.755111 
L 555.986534 15.65219 
L 556.213883 16.377886 
L 556.295232 15.072653 
L 556.641009 18.511325 
L 556.914754 17.565926 
L 557.052826 17.56992 
L 557.263704 16.520752 
L 557.531287 18.483073 
L 557.737616 14.024812 
L 557.87607 13.558102 
L 558.021161 11.659527 
L 558.15133 11.959508 
L 558.288546 11.674637 
L 558.501201 14.208344 
L 558.703335 10.848186 
L 558.844652 10.734823 
L 559.161004 14.524145 
L 559.286293 12.856532 
L 559.429886 12.565284 
L 559.630389 13.525757 
L 559.936905 10.106505 
L 560.016459 11.854682 
L 560.161506 9.839595 
L 560.281783 11.868889 
L 560.487123 10.479276 
L 560.55526 8.255362 
L 561.005027 13.99166 
L 561.143494 10.622983 
L 561.209199 15.377119 
L 561.347675 16.040515 
L 561.449521 13.69735 
L 561.56497 16.940946 
L 561.69203 16.381965 
L 561.828214 18.798792 
L 561.860504 18.428908 
L 562.002489 18.756763 
L 562.137756 17.251742 
L 562.243627 13.997213 
L 562.415451 16.575133 
L 562.68516 14.511326 
L 562.829182 17.224901 
L 562.961054 17.498829 
L 563.131628 17.084341 
L 563.24477 14.529306 
L 563.407511 16.240305 
L 563.545607 16.22677 
L 563.721974 16.478949 
L 564.164721 12.944124 
L 564.301832 13.826734 
L 564.839784 19.626325 
L 565.000245 20.167963 
L 565.282767 19.826498 
L 565.531151 24.847632 
L 565.783616 24.110439 
L 565.816233 18.532517 
L 565.848831 19.319254 
L 565.98894 20.487694 
L 566.095912 18.598132 
L 566.467758 19.122928 
L 566.605423 19.789538 
L 567.09441 14.95393 
L 567.292749 16.066011 
L 567.808276 11.944004 
L 568.120832 14.483823 
L 568.230954 14.082781 
L 568.701062 20.163355 
L 568.80523 18.261518 
L 569.115344 21.581195 
L 569.390587 23.878671 
L 569.630577 23.447256 
L 569.939538 20.706911 
L 570.078401 17.539041 
L 570.354959 20.90954 
L 570.526172 16.979346 
L 570.630183 18.074163 
L 570.93918 16.786199 
L 571.623727 27.426808 
L 571.835252 22.26836 
L 571.938171 23.52089 
L 572.081677 21.535251 
L 572.215644 21.260543 
L 572.357678 21.504566 
L 572.637755 17.773114 
L 572.768596 14.007302 
L 572.9403 14.451352 
L 573.242871 17.862565 
L 573.456035 18.993535 
L 573.633416 18.674419 
L 573.700002 19.510046 
L 573.777709 22.861378 
L 573.906095 23.378648 
L 574.107253 22.213669 
L 574.214387 25.756108 
L 574.489116 21.37766 
L 574.797284 18.539759 
L 575.004603 21.945247 
L 575.324325 17.841474 
L 575.483382 19.650396 
L 575.771224 18.435886 
L 575.896584 21.594888 
L 576.11683 22.44428 
L 576.172024 24.896953 
L 576.342571 25.762052 
L 576.635114 23.683582 
L 576.781915 23.136232 
L 576.806413 23.193355 
L 577.330679 17.255347 
L 577.493972 17.385674 
L 577.631741 14.661153 
L 577.80656 14.171093 
L 577.912742 17.041731 
L 578.103497 16.535384 
L 578.185265 18.116195 
L 578.368922 18.198134 
L 578.596132 24.302183 
L 578.767133 23.135846 
L 579.179208 17.912089 
L 579.455213 20.307697 
L 579.591428 19.333432 
L 579.799522 20.008605 
L 579.901428 16.177207 
L 580.012278 16.453059 
L 580.312568 21.008958 
L 580.449596 20.287876 
L 580.669415 21.75848 
L 580.76434 18.414645 
L 580.934354 16.447271 
L 581.1735 18.416827 
L 581.312213 21.267117 
L 581.518437 20.71702 
L 581.642387 16.309436 
L 581.756317 16.593623 
L 581.896325 19.141839 
L 582.041229 15.737533 
L 582.205237 17.788387 
L 582.312576 17.569396 
L 582.62092 20.04711 
L 582.859736 19.566092 
L 583.10075 18.622901 
L 583.16822 20.652293 
L 583.280779 17.938613 
L 583.375363 18.299188 
L 583.443445 20.922923 
L 583.632182 18.28725 
L 583.725404 19.567225 
L 583.996683 18.476565 
L 584.104191 16.327151 
L 584.238286 16.10916 
L 584.420921 16.667269 
L 584.685361 16.208618 
L 584.754307 17.421638 
L 585.099464 15.20473 
L 585.23414 18.233299 
L 585.303824 17.010412 
L 585.38263 17.225358 
L 585.413659 17.55479 
L 585.440795 20.03401 
L 585.583532 18.373961 
L 585.923083 20.106504 
L 586.025814 16.956101 
L 586.166678 20.644821 
L 586.195902 19.087394 
L 586.265447 20.307501 
L 586.515472 15.13357 
L 586.677824 15.062103 
L 586.738046 13.56228 
L 586.895388 15.026534 
L 587.028131 13.063126 
L 587.4338 16.805582 
L 587.555896 16.580838 
L 588.090193 25.808832 
L 588.123125 24.146733 
L 588.123125 24.146733 
" clip-path="url(#p738be468de)" style="fill: none; stroke: #ff0000; stroke-opacity: 0.7; stroke-width: 1.5; stroke-linecap: square"/>
   </g>
   <g id="patch_3">
    <path d="M 30.123125 277.92 
L 30.123125 0.72 
" style="fill: none; stroke: #000000; stroke-width: 0.8; stroke-linejoin: miter; stroke-linecap: square"/>
   </g>
   <g id="patch_4">
    <path d="M 588.123125 277.92 
L 588.123125 0.72 
" style="fill: none; stroke: #000000; stroke-width: 0.8; stroke-linejoin: miter; stroke-linecap: square"/>
   </g>
   <g id="patch_5">
    <path d="M 30.123125 277.92 
L 588.123125 277.92 
" style="fill: none; stroke: #000000; stroke-width: 0.8; stroke-linejoin: miter; stroke-linecap: square"/>
   </g>
   <g id="patch_6">
    <path d="M 30.123125 0.72 
L 588.123125 0.72 
" style="fill: none; stroke: #000000; stroke-width: 0.8; stroke-linejoin: miter; stroke-linecap: square"/>
   </g>
   <g id="legend_1">
    <g id="patch_7">
     <path d="M 37.123125 272.92 
L 110.891875 272.92 
Q 112.891875 272.92 112.891875 270.92 
L 112.891875 242.56375 
Q 112.891875 240.56375 110.891875 240.56375 
L 37.123125 240.56375 
Q 35.123125 240.56375 35.123125 242.56375 
L 35.123125 270.92 
Q 35.123125 272.92 37.123125 272.92 
z
" style="fill: #ffffff; opacity: 0.8; stroke: #cccccc; stroke-linejoin: miter"/>
    </g>
    <g id="line2d_29">
     <path d="M 39.123125 248.662188 
L 49.123125 248.662188 
L 59.123125 248.662188 
" style="fill: none; stroke: #0000ff; stroke-opacity: 0.7; stroke-width: 1.5; stroke-linecap: square"/>
    </g>
    <g id="text_16">
     <!-- RNEA -->
     <g transform="translate(67.123125 252.162188) scale(0.1 -0.1)">
      <defs>
       <path id="DejaVuSans-52" d="M 2841 2188 
Q 3044 2119 3236 1894 
Q 3428 1669 3622 1275 
L 4263 0 
L 3584 0 
L 2988 1197 
Q 2756 1666 2539 1819 
Q 2322 1972 1947 1972 
L 1259 1972 
L 1259 0 
L 628 0 
L 628 4666 
L 2053 4666 
Q 2853 4666 3247 4331 
Q 3641 3997 3641 3322 
Q 3641 2881 3436 2590 
Q 3231 2300 2841 2188 
z
M 1259 4147 
L 1259 2491 
L 2053 2491 
Q 2509 2491 2742 2702 
Q 2975 2913 2975 3322 
Q 2975 3731 2742 3939 
Q 2509 4147 2053 4147 
L 1259 4147 
z
" transform="scale(0.015625)"/>
       <path id="DejaVuSans-45" d="M 628 4666 
L 3578 4666 
L 3578 4134 
L 1259 4134 
L 1259 2753 
L 3481 2753 
L 3481 2222 
L 1259 2222 
L 1259 531 
L 3634 531 
L 3634 0 
L 628 0 
L 628 4666 
z
" transform="scale(0.015625)"/>
       <path id="DejaVuSans-41" d="M 2188 4044 
L 1331 1722 
L 3047 1722 
L 2188 4044 
z
M 1831 4666 
L 2547 4666 
L 4325 0 
L 3669 0 
L 3244 1197 
L 1141 1197 
L 716 0 
L 50 0 
L 1831 4666 
z
" transform="scale(0.015625)"/>
      </defs>
      <use xlink:href="#DejaVuSans-52"/>
      <use xlink:href="#DejaVuSans-4e" x="69.482422"/>
      <use xlink:href="#DejaVuSans-45" x="144.287109"/>
      <use xlink:href="#DejaVuSans-41" x="207.470703"/>
     </g>
    </g>
    <g id="line2d_30">
     <path d="M 39.123125 263.340313 
L 49.123125 263.340313 
L 59.123125 263.340313 
" style="fill: none; stroke: #ff0000; stroke-opacity: 0.7; stroke-width: 1.5; stroke-linecap: square"/>
    </g>
    <g id="text_17">
     <!-- BURNEA -->
     <g transform="translate(67.123125 266.840313) scale(0.1 -0.1)">
      <defs>
       <path id="DejaVuSans-42" d="M 1259 2228 
L 1259 519 
L 2272 519 
Q 2781 519 3026 730 
Q 3272 941 3272 1375 
Q 3272 1813 3026 2020 
Q 2781 2228 2272 2228 
L 1259 2228 
z
M 1259 4147 
L 1259 2741 
L 2194 2741 
Q 2656 2741 2882 2914 
Q 3109 3088 3109 3444 
Q 3109 3797 2882 3972 
Q 2656 4147 2194 4147 
L 1259 4147 
z
M 628 4666 
L 2241 4666 
Q 2963 4666 3353 4366 
Q 3744 4066 3744 3513 
Q 3744 3084 3544 2831 
Q 3344 2578 2956 2516 
Q 3422 2416 3680 2098 
Q 3938 1781 3938 1306 
Q 3938 681 3513 340 
Q 3088 0 2303 0 
L 628 0 
L 628 4666 
z
" transform="scale(0.015625)"/>
       <path id="DejaVuSans-55" d="M 556 4666 
L 1191 4666 
L 1191 1831 
Q 1191 1081 1462 751 
Q 1734 422 2344 422 
Q 2950 422 3222 751 
Q 3494 1081 3494 1831 
L 3494 4666 
L 4128 4666 
L 4128 1753 
Q 4128 841 3676 375 
Q 3225 -91 2344 -91 
Q 1459 -91 1007 375 
Q 556 841 556 1753 
L 556 4666 
z
" transform="scale(0.015625)"/>
      </defs>
      <use xlink:href="#DejaVuSans-42"/>
      <use xlink:href="#DejaVuSans-55" x="68.603516"/>
      <use xlink:href="#DejaVuSans-52" x="141.796875"/>
      <use xlink:href="#DejaVuSans-4e" x="211.279297"/>
      <use xlink:href="#DejaVuSans-45" x="286.083984"/>
      <use xlink:href="#DejaVuSans-41" x="349.267578"/>
     </g>
    </g>
   </g>
  </g>
 </g>
 <defs>
  <clipPath id="p738be468de">
   <rect x="30.123125" y="0.72" width="558" height="277.2"/>
  </clipPath>
 </defs>
</svg>
