<?xml version="1.0" encoding="utf-8" standalone="no"?>
<!DOCTYPE svg PUBLIC "-//W3C//DTD SVG 1.1//EN"
  "http://www.w3.org/Graphics/SVG/1.1/DTD/svg11.dtd">
<svg xmlns:xlink="http://www.w3.org/1999/xlink" width="309.843125pt" height="166.39625pt" viewBox="0 0 309.843125 166.39625" xmlns="http://www.w3.org/2000/svg" version="1.1">
 <metadata>
  <rdf:RDF xmlns:dc="http://purl.org/dc/elements/1.1/" xmlns:cc="http://creativecommons.org/ns#" xmlns:rdf="http://www.w3.org/1999/02/22-rdf-syntax-ns#">
   <cc:Work>
    <dc:type rdf:resource="http://purl.org/dc/dcmitype/StillImage"/>
    <dc:date>2023-09-07T03:31:17.636423</dc:date>
    <dc:format>image/svg+xml</dc:format>
    <dc:creator>
     <cc:Agent>
      <dc:title>Matplotlib v3.7.2, https://matplotlib.org/</dc:title>
     </cc:Agent>
    </dc:creator>
   </cc:Work>
  </rdf:RDF>
 </metadata>
 <defs>
  <style type="text/css">*{stroke-linejoin: round; stroke-linecap: butt}</style>
 </defs>
 <g id="figure_1">
  <g id="patch_1">
   <path d="M -0 166.39625 
L 309.843125 166.39625 
L 309.843125 0 
L -0 0 
L -0 166.39625 
z
" style="fill: none"/>
  </g>
  <g id="axes_1">
   <g id="patch_2">
    <path d="M 30.123125 139.32 
L 309.123125 139.32 
L 309.123125 0.72 
L 30.123125 0.72 
L 30.123125 139.32 
z
" style="fill: none"/>
   </g>
   <g id="matplotlib.axis_1">
    <g id="xtick_1">
     <g id="line2d_1">
      <path d="M 30.123125 139.32 
L 30.123125 0.72 
" clip-path="url(#p912450a785)" style="fill: none; stroke-dasharray: 0.8,1.32; stroke-dashoffset: 0; stroke: #000000; stroke-opacity: 0.5; stroke-width: 0.8"/>
     </g>
     <g id="line2d_2">
      <defs>
       <path id="m9347db48b6" d="M 0 0 
L 0 3.5 
" style="stroke: #000000; stroke-width: 0.8"/>
      </defs>
      <g>
       <use xlink:href="#m9347db48b6" x="30.123125" y="139.32" style="stroke: #000000; stroke-width: 0.8"/>
      </g>
     </g>
     <g id="text_1">
      <!-- 0 -->
      <g transform="translate(26.941875 153.918437) scale(0.1 -0.1)">
       <defs>
        <path id="DejaVuSans-30" d="M 2034 4250 
Q 1547 4250 1301 3770 
Q 1056 3291 1056 2328 
Q 1056 1369 1301 889 
Q 1547 409 2034 409 
Q 2525 409 2770 889 
Q 3016 1369 3016 2328 
Q 3016 3291 2770 3770 
Q 2525 4250 2034 4250 
z
M 2034 4750 
Q 2819 4750 3233 4129 
Q 3647 3509 3647 2328 
Q 3647 1150 3233 529 
Q 2819 -91 2034 -91 
Q 1250 -91 836 529 
Q 422 1150 422 2328 
Q 422 3509 836 4129 
Q 1250 4750 2034 4750 
z
" transform="scale(0.015625)"/>
       </defs>
       <use xlink:href="#DejaVuSans-30"/>
      </g>
     </g>
    </g>
    <g id="xtick_2">
     <g id="line2d_3">
      <path d="M 72.738026 139.32 
L 72.738026 0.72 
" clip-path="url(#p912450a785)" style="fill: none; stroke-dasharray: 0.8,1.32; stroke-dashoffset: 0; stroke: #000000; stroke-opacity: 0.5; stroke-width: 0.8"/>
     </g>
     <g id="line2d_4">
      <g>
       <use xlink:href="#m9347db48b6" x="72.738026" y="139.32" style="stroke: #000000; stroke-width: 0.8"/>
      </g>
     </g>
     <g id="text_2">
      <!-- 5 -->
      <g transform="translate(69.556776 153.918437) scale(0.1 -0.1)">
       <defs>
        <path id="DejaVuSans-35" d="M 691 4666 
L 3169 4666 
L 3169 4134 
L 1269 4134 
L 1269 2991 
Q 1406 3038 1543 3061 
Q 1681 3084 1819 3084 
Q 2600 3084 3056 2656 
Q 3513 2228 3513 1497 
Q 3513 744 3044 326 
Q 2575 -91 1722 -91 
Q 1428 -91 1123 -41 
Q 819 9 494 109 
L 494 744 
Q 775 591 1075 516 
Q 1375 441 1709 441 
Q 2250 441 2565 725 
Q 2881 1009 2881 1497 
Q 2881 1984 2565 2268 
Q 2250 2553 1709 2553 
Q 1456 2553 1204 2497 
Q 953 2441 691 2322 
L 691 4666 
z
" transform="scale(0.015625)"/>
       </defs>
       <use xlink:href="#DejaVuSans-35"/>
      </g>
     </g>
    </g>
    <g id="xtick_3">
     <g id="line2d_5">
      <path d="M 115.352926 139.32 
L 115.352926 0.72 
" clip-path="url(#p912450a785)" style="fill: none; stroke-dasharray: 0.8,1.32; stroke-dashoffset: 0; stroke: #000000; stroke-opacity: 0.5; stroke-width: 0.8"/>
     </g>
     <g id="line2d_6">
      <g>
       <use xlink:href="#m9347db48b6" x="115.352926" y="139.32" style="stroke: #000000; stroke-width: 0.8"/>
      </g>
     </g>
     <g id="text_3">
      <!-- 10 -->
      <g transform="translate(108.990426 153.918437) scale(0.1 -0.1)">
       <defs>
        <path id="DejaVuSans-31" d="M 794 531 
L 1825 531 
L 1825 4091 
L 703 3866 
L 703 4441 
L 1819 4666 
L 2450 4666 
L 2450 531 
L 3481 531 
L 3481 0 
L 794 0 
L 794 531 
z
" transform="scale(0.015625)"/>
       </defs>
       <use xlink:href="#DejaVuSans-31"/>
       <use xlink:href="#DejaVuSans-30" x="63.623047"/>
      </g>
     </g>
    </g>
    <g id="xtick_4">
     <g id="line2d_7">
      <path d="M 157.967827 139.32 
L 157.967827 0.72 
" clip-path="url(#p912450a785)" style="fill: none; stroke-dasharray: 0.8,1.32; stroke-dashoffset: 0; stroke: #000000; stroke-opacity: 0.5; stroke-width: 0.8"/>
     </g>
     <g id="line2d_8">
      <g>
       <use xlink:href="#m9347db48b6" x="157.967827" y="139.32" style="stroke: #000000; stroke-width: 0.8"/>
      </g>
     </g>
     <g id="text_4">
      <!-- 15 -->
      <g transform="translate(151.605327 153.918437) scale(0.1 -0.1)">
       <use xlink:href="#DejaVuSans-31"/>
       <use xlink:href="#DejaVuSans-35" x="63.623047"/>
      </g>
     </g>
    </g>
    <g id="xtick_5">
     <g id="line2d_9">
      <path d="M 200.582727 139.32 
L 200.582727 0.72 
" clip-path="url(#p912450a785)" style="fill: none; stroke-dasharray: 0.8,1.32; stroke-dashoffset: 0; stroke: #000000; stroke-opacity: 0.5; stroke-width: 0.8"/>
     </g>
     <g id="line2d_10">
      <g>
       <use xlink:href="#m9347db48b6" x="200.582727" y="139.32" style="stroke: #000000; stroke-width: 0.8"/>
      </g>
     </g>
     <g id="text_5">
      <!-- 20 -->
      <g transform="translate(194.220227 153.918437) scale(0.1 -0.1)">
       <defs>
        <path id="DejaVuSans-32" d="M 1228 531 
L 3431 531 
L 3431 0 
L 469 0 
L 469 531 
Q 828 903 1448 1529 
Q 2069 2156 2228 2338 
Q 2531 2678 2651 2914 
Q 2772 3150 2772 3378 
Q 2772 3750 2511 3984 
Q 2250 4219 1831 4219 
Q 1534 4219 1204 4116 
Q 875 4013 500 3803 
L 500 4441 
Q 881 4594 1212 4672 
Q 1544 4750 1819 4750 
Q 2544 4750 2975 4387 
Q 3406 4025 3406 3419 
Q 3406 3131 3298 2873 
Q 3191 2616 2906 2266 
Q 2828 2175 2409 1742 
Q 1991 1309 1228 531 
z
" transform="scale(0.015625)"/>
       </defs>
       <use xlink:href="#DejaVuSans-32"/>
       <use xlink:href="#DejaVuSans-30" x="63.623047"/>
      </g>
     </g>
    </g>
    <g id="xtick_6">
     <g id="line2d_11">
      <path d="M 243.197628 139.32 
L 243.197628 0.72 
" clip-path="url(#p912450a785)" style="fill: none; stroke-dasharray: 0.8,1.32; stroke-dashoffset: 0; stroke: #000000; stroke-opacity: 0.5; stroke-width: 0.8"/>
     </g>
     <g id="line2d_12">
      <g>
       <use xlink:href="#m9347db48b6" x="243.197628" y="139.32" style="stroke: #000000; stroke-width: 0.8"/>
      </g>
     </g>
     <g id="text_6">
      <!-- 25 -->
      <g transform="translate(236.835128 153.918437) scale(0.1 -0.1)">
       <use xlink:href="#DejaVuSans-32"/>
       <use xlink:href="#DejaVuSans-35" x="63.623047"/>
      </g>
     </g>
    </g>
    <g id="xtick_7">
     <g id="line2d_13">
      <path d="M 285.812528 139.32 
L 285.812528 0.72 
" clip-path="url(#p912450a785)" style="fill: none; stroke-dasharray: 0.8,1.32; stroke-dashoffset: 0; stroke: #000000; stroke-opacity: 0.5; stroke-width: 0.8"/>
     </g>
     <g id="line2d_14">
      <g>
       <use xlink:href="#m9347db48b6" x="285.812528" y="139.32" style="stroke: #000000; stroke-width: 0.8"/>
      </g>
     </g>
     <g id="text_7">
      <!-- 30 -->
      <g transform="translate(279.450028 153.918437) scale(0.1 -0.1)">
       <defs>
        <path id="DejaVuSans-33" d="M 2597 2516 
Q 3050 2419 3304 2112 
Q 3559 1806 3559 1356 
Q 3559 666 3084 287 
Q 2609 -91 1734 -91 
Q 1441 -91 1130 -33 
Q 819 25 488 141 
L 488 750 
Q 750 597 1062 519 
Q 1375 441 1716 441 
Q 2309 441 2620 675 
Q 2931 909 2931 1356 
Q 2931 1769 2642 2001 
Q 2353 2234 1838 2234 
L 1294 2234 
L 1294 2753 
L 1863 2753 
Q 2328 2753 2575 2939 
Q 2822 3125 2822 3475 
Q 2822 3834 2567 4026 
Q 2313 4219 1838 4219 
Q 1578 4219 1281 4162 
Q 984 4106 628 3988 
L 628 4550 
Q 988 4650 1302 4700 
Q 1616 4750 1894 4750 
Q 2613 4750 3031 4423 
Q 3450 4097 3450 3541 
Q 3450 3153 3228 2886 
Q 3006 2619 2597 2516 
z
" transform="scale(0.015625)"/>
       </defs>
       <use xlink:href="#DejaVuSans-33"/>
       <use xlink:href="#DejaVuSans-30" x="63.623047"/>
      </g>
     </g>
    </g>
    <g id="text_8">
     <!-- Zeit [s] -->
     <g transform="translate(151.677031 163.596562) scale(0.1 -0.1)">
      <defs>
       <path id="DejaVuSans-5a" d="M 359 4666 
L 4025 4666 
L 4025 4184 
L 1075 531 
L 4097 531 
L 4097 0 
L 288 0 
L 288 481 
L 3238 4134 
L 359 4134 
L 359 4666 
z
" transform="scale(0.015625)"/>
       <path id="DejaVuSans-65" d="M 3597 1894 
L 3597 1613 
L 953 1613 
Q 991 1019 1311 708 
Q 1631 397 2203 397 
Q 2534 397 2845 478 
Q 3156 559 3463 722 
L 3463 178 
Q 3153 47 2828 -22 
Q 2503 -91 2169 -91 
Q 1331 -91 842 396 
Q 353 884 353 1716 
Q 353 2575 817 3079 
Q 1281 3584 2069 3584 
Q 2775 3584 3186 3129 
Q 3597 2675 3597 1894 
z
M 3022 2063 
Q 3016 2534 2758 2815 
Q 2500 3097 2075 3097 
Q 1594 3097 1305 2825 
Q 1016 2553 972 2059 
L 3022 2063 
z
" transform="scale(0.015625)"/>
       <path id="DejaVuSans-69" d="M 603 3500 
L 1178 3500 
L 1178 0 
L 603 0 
L 603 3500 
z
M 603 4863 
L 1178 4863 
L 1178 4134 
L 603 4134 
L 603 4863 
z
" transform="scale(0.015625)"/>
       <path id="DejaVuSans-74" d="M 1172 4494 
L 1172 3500 
L 2356 3500 
L 2356 3053 
L 1172 3053 
L 1172 1153 
Q 1172 725 1289 603 
Q 1406 481 1766 481 
L 2356 481 
L 2356 0 
L 1766 0 
Q 1100 0 847 248 
Q 594 497 594 1153 
L 594 3053 
L 172 3053 
L 172 3500 
L 594 3500 
L 594 4494 
L 1172 4494 
z
" transform="scale(0.015625)"/>
       <path id="DejaVuSans-20" transform="scale(0.015625)"/>
       <path id="DejaVuSans-5b" d="M 550 4863 
L 1875 4863 
L 1875 4416 
L 1125 4416 
L 1125 -397 
L 1875 -397 
L 1875 -844 
L 550 -844 
L 550 4863 
z
" transform="scale(0.015625)"/>
       <path id="DejaVuSans-73" d="M 2834 3397 
L 2834 2853 
Q 2591 2978 2328 3040 
Q 2066 3103 1784 3103 
Q 1356 3103 1142 2972 
Q 928 2841 928 2578 
Q 928 2378 1081 2264 
Q 1234 2150 1697 2047 
L 1894 2003 
Q 2506 1872 2764 1633 
Q 3022 1394 3022 966 
Q 3022 478 2636 193 
Q 2250 -91 1575 -91 
Q 1294 -91 989 -36 
Q 684 19 347 128 
L 347 722 
Q 666 556 975 473 
Q 1284 391 1588 391 
Q 1994 391 2212 530 
Q 2431 669 2431 922 
Q 2431 1156 2273 1281 
Q 2116 1406 1581 1522 
L 1381 1569 
Q 847 1681 609 1914 
Q 372 2147 372 2553 
Q 372 3047 722 3315 
Q 1072 3584 1716 3584 
Q 2034 3584 2315 3537 
Q 2597 3491 2834 3397 
z
" transform="scale(0.015625)"/>
       <path id="DejaVuSans-5d" d="M 1947 4863 
L 1947 -844 
L 622 -844 
L 622 -397 
L 1369 -397 
L 1369 4416 
L 622 4416 
L 622 4863 
L 1947 4863 
z
" transform="scale(0.015625)"/>
      </defs>
      <use xlink:href="#DejaVuSans-5a"/>
      <use xlink:href="#DejaVuSans-65" x="68.505859"/>
      <use xlink:href="#DejaVuSans-69" x="130.029297"/>
      <use xlink:href="#DejaVuSans-74" x="157.8125"/>
      <use xlink:href="#DejaVuSans-20" x="197.021484"/>
      <use xlink:href="#DejaVuSans-5b" x="228.808594"/>
      <use xlink:href="#DejaVuSans-73" x="267.822266"/>
      <use xlink:href="#DejaVuSans-5d" x="319.921875"/>
     </g>
    </g>
   </g>
   <g id="matplotlib.axis_2">
    <g id="ytick_1">
     <g id="line2d_15">
      <path d="M 30.123125 102.042732 
L 309.123125 102.042732 
" clip-path="url(#p912450a785)" style="fill: none; stroke-dasharray: 0.8,1.32; stroke-dashoffset: 0; stroke: #000000; stroke-opacity: 0.5; stroke-width: 0.8"/>
     </g>
     <g id="line2d_16">
      <defs>
       <path id="m3924d87803" d="M 0 0 
L -3.5 0 
" style="stroke: #000000; stroke-width: 0.8"/>
      </defs>
      <g>
       <use xlink:href="#m3924d87803" x="30.123125" y="102.042732" style="stroke: #000000; stroke-width: 0.8"/>
      </g>
     </g>
     <g id="text_9">
      <!-- 30 -->
      <g transform="translate(10.398125 105.841951) scale(0.1 -0.1)">
       <use xlink:href="#DejaVuSans-33"/>
       <use xlink:href="#DejaVuSans-30" x="63.623047"/>
      </g>
     </g>
    </g>
    <g id="ytick_2">
     <g id="line2d_17">
      <path d="M 30.123125 61.903321 
L 309.123125 61.903321 
" clip-path="url(#p912450a785)" style="fill: none; stroke-dasharray: 0.8,1.32; stroke-dashoffset: 0; stroke: #000000; stroke-opacity: 0.5; stroke-width: 0.8"/>
     </g>
     <g id="line2d_18">
      <g>
       <use xlink:href="#m3924d87803" x="30.123125" y="61.903321" style="stroke: #000000; stroke-width: 0.8"/>
      </g>
     </g>
     <g id="text_10">
      <!-- 40 -->
      <g transform="translate(10.398125 65.70254) scale(0.1 -0.1)">
       <defs>
        <path id="DejaVuSans-34" d="M 2419 4116 
L 825 1625 
L 2419 1625 
L 2419 4116 
z
M 2253 4666 
L 3047 4666 
L 3047 1625 
L 3713 1625 
L 3713 1100 
L 3047 1100 
L 3047 0 
L 2419 0 
L 2419 1100 
L 313 1100 
L 313 1709 
L 2253 4666 
z
" transform="scale(0.015625)"/>
       </defs>
       <use xlink:href="#DejaVuSans-34"/>
       <use xlink:href="#DejaVuSans-30" x="63.623047"/>
      </g>
     </g>
    </g>
    <g id="ytick_3">
     <g id="line2d_19">
      <path d="M 30.123125 21.76391 
L 309.123125 21.76391 
" clip-path="url(#p912450a785)" style="fill: none; stroke-dasharray: 0.8,1.32; stroke-dashoffset: 0; stroke: #000000; stroke-opacity: 0.5; stroke-width: 0.8"/>
     </g>
     <g id="line2d_20">
      <g>
       <use xlink:href="#m3924d87803" x="30.123125" y="21.76391" style="stroke: #000000; stroke-width: 0.8"/>
      </g>
     </g>
     <g id="text_11">
      <!-- 50 -->
      <g transform="translate(10.398125 25.563128) scale(0.1 -0.1)">
       <use xlink:href="#DejaVuSans-35"/>
       <use xlink:href="#DejaVuSans-30" x="63.623047"/>
      </g>
     </g>
    </g>
    <g id="text_12">
     <!-- 2-Norm F [N] -->
     <g transform="translate(8.318438 102.339531) rotate(-90) scale(0.1 -0.1)">
      <defs>
       <path id="DejaVuSans-2d" d="M 313 2009 
L 1997 2009 
L 1997 1497 
L 313 1497 
L 313 2009 
z
" transform="scale(0.015625)"/>
       <path id="DejaVuSans-4e" d="M 628 4666 
L 1478 4666 
L 3547 763 
L 3547 4666 
L 4159 4666 
L 4159 0 
L 3309 0 
L 1241 3903 
L 1241 0 
L 628 0 
L 628 4666 
z
" transform="scale(0.015625)"/>
       <path id="DejaVuSans-6f" d="M 1959 3097 
Q 1497 3097 1228 2736 
Q 959 2375 959 1747 
Q 959 1119 1226 758 
Q 1494 397 1959 397 
Q 2419 397 2687 759 
Q 2956 1122 2956 1747 
Q 2956 2369 2687 2733 
Q 2419 3097 1959 3097 
z
M 1959 3584 
Q 2709 3584 3137 3096 
Q 3566 2609 3566 1747 
Q 3566 888 3137 398 
Q 2709 -91 1959 -91 
Q 1206 -91 779 398 
Q 353 888 353 1747 
Q 353 2609 779 3096 
Q 1206 3584 1959 3584 
z
" transform="scale(0.015625)"/>
       <path id="DejaVuSans-72" d="M 2631 2963 
Q 2534 3019 2420 3045 
Q 2306 3072 2169 3072 
Q 1681 3072 1420 2755 
Q 1159 2438 1159 1844 
L 1159 0 
L 581 0 
L 581 3500 
L 1159 3500 
L 1159 2956 
Q 1341 3275 1631 3429 
Q 1922 3584 2338 3584 
Q 2397 3584 2469 3576 
Q 2541 3569 2628 3553 
L 2631 2963 
z
" transform="scale(0.015625)"/>
       <path id="DejaVuSans-6d" d="M 3328 2828 
Q 3544 3216 3844 3400 
Q 4144 3584 4550 3584 
Q 5097 3584 5394 3201 
Q 5691 2819 5691 2113 
L 5691 0 
L 5113 0 
L 5113 2094 
Q 5113 2597 4934 2840 
Q 4756 3084 4391 3084 
Q 3944 3084 3684 2787 
Q 3425 2491 3425 1978 
L 3425 0 
L 2847 0 
L 2847 2094 
Q 2847 2600 2669 2842 
Q 2491 3084 2119 3084 
Q 1678 3084 1418 2786 
Q 1159 2488 1159 1978 
L 1159 0 
L 581 0 
L 581 3500 
L 1159 3500 
L 1159 2956 
Q 1356 3278 1631 3431 
Q 1906 3584 2284 3584 
Q 2666 3584 2933 3390 
Q 3200 3197 3328 2828 
z
" transform="scale(0.015625)"/>
       <path id="DejaVuSans-46" d="M 628 4666 
L 3309 4666 
L 3309 4134 
L 1259 4134 
L 1259 2759 
L 3109 2759 
L 3109 2228 
L 1259 2228 
L 1259 0 
L 628 0 
L 628 4666 
z
" transform="scale(0.015625)"/>
      </defs>
      <use xlink:href="#DejaVuSans-32"/>
      <use xlink:href="#DejaVuSans-2d" x="63.623047"/>
      <use xlink:href="#DejaVuSans-4e" x="99.707031"/>
      <use xlink:href="#DejaVuSans-6f" x="174.511719"/>
      <use xlink:href="#DejaVuSans-72" x="235.693359"/>
      <use xlink:href="#DejaVuSans-6d" x="275.056641"/>
      <use xlink:href="#DejaVuSans-20" x="372.46875"/>
      <use xlink:href="#DejaVuSans-46" x="404.255859"/>
      <use xlink:href="#DejaVuSans-20" x="461.775391"/>
      <use xlink:href="#DejaVuSans-5b" x="493.5625"/>
      <use xlink:href="#DejaVuSans-4e" x="532.576172"/>
      <use xlink:href="#DejaVuSans-5d" x="607.380859"/>
     </g>
    </g>
   </g>
   <g id="line2d_21">
    <path d="M 30.123125 5.853333 
L 309.123125 5.853333 
L 309.123125 5.853333 
" clip-path="url(#p912450a785)" style="fill: none; stroke: #0000ff; stroke-opacity: 0.5; stroke-width: 3; stroke-linecap: square"/>
   </g>
   <g id="line2d_22">
    <path d="M 30.123125 126.929129 
L 30.330475 130.036782 
L 30.421454 129.555544 
L 30.436573 127.756221 
L 30.487419 128.672699 
L 30.558267 128.545079 
L 30.608013 125.671134 
L 30.674888 126.038248 
L 30.744033 126.747126 
L 30.83075 126.308135 
L 30.905053 127.105202 
L 30.9842 125.182422 
L 31.035511 125.326561 
L 31.173044 127.166629 
L 31.242205 126.111852 
L 31.345384 126.852641 
L 31.465358 125.546278 
L 31.53363 126.846758 
L 31.619715 126.50824 
L 31.739797 127.50751 
L 31.910909 124.529756 
L 32.324232 127.511463 
L 32.444339 126.923085 
L 32.464072 126.000876 
L 32.530328 126.833134 
L 32.599824 126.835521 
L 32.808788 128.712952 
L 33.027985 127.272934 
L 33.304136 130.699292 
L 33.373137 130.220278 
L 33.446572 128.573026 
L 33.518439 128.869208 
L 33.597859 130.138252 
L 33.735762 128.701287 
L 34.01734 127.147908 
L 34.083745 128.566488 
L 34.164687 128.11739 
L 34.440386 125.958875 
L 34.508195 126.137172 
L 34.651864 128.66261 
L 34.802876 127.370249 
L 34.87161 127.765346 
L 35.009197 124.978683 
L 35.078325 125.044866 
L 35.215765 127.053979 
L 35.357089 126.207117 
L 35.439635 126.285008 
L 35.577625 124.214185 
L 35.64596 124.851293 
L 35.793927 126.311233 
L 35.855397 125.876949 
L 36.006592 126.480451 
L 36.157356 125.122935 
L 36.214013 125.664323 
L 36.283826 125.307701 
L 36.421492 126.572489 
L 36.488829 127.147072 
L 36.650601 124.78355 
L 36.712514 123.751663 
L 36.779812 124.282088 
L 36.992143 127.250591 
L 37.075162 127.698429 
L 37.141592 126.931238 
L 37.281865 128.359577 
L 37.659143 125.336778 
L 37.916819 127.912835 
L 38.036902 126.503213 
L 38.27671 132.760736 
L 38.345778 131.631919 
L 38.414615 131.228193 
L 38.554001 126.981104 
L 38.641524 127.802843 
L 38.69477 128.687601 
L 38.766284 128.506265 
L 39.12314 126.345807 
L 39.349156 127.885525 
L 39.419337 127.782423 
L 39.642151 128.964859 
L 39.695434 128.706276 
L 39.765776 128.4099 
L 39.922053 126.359852 
L 39.98033 126.869375 
L 40.050592 126.768921 
L 40.142915 127.018311 
L 40.290124 128.751296 
L 40.306196 127.577727 
L 40.447951 124.727861 
L 40.51029 124.879862 
L 40.58662 126.41046 
L 40.776124 128.633791 
L 40.861574 128.180279 
L 40.998828 126.231733 
L 41.205104 129.273225 
L 41.34438 127.476863 
L 41.411735 127.0216 
L 41.623435 128.558484 
L 41.720506 128.031848 
L 41.80779 128.152904 
L 41.893965 125.900623 
L 42.057627 129.060097 
L 42.116275 128.805867 
L 42.346909 126.753668 
L 42.69944 130.867303 
L 42.751219 130.758633 
L 43.094712 128.402121 
L 43.163204 128.970856 
L 43.318707 126.887965 
L 43.455847 123.219385 
L 43.541294 123.797322 
L 43.816337 127.819091 
L 43.884924 127.455379 
L 43.970943 127.794254 
L 44.177032 129.93363 
L 44.245293 129.744164 
L 44.571569 125.669058 
L 44.605663 128.012389 
L 44.663974 128.011168 
L 44.742651 126.973118 
L 45.193569 131.647515 
L 45.24235 131.147086 
L 45.311059 128.911157 
L 45.391219 128.978301 
L 45.448639 130.482107 
L 45.619776 130.036215 
L 45.671832 130.206087 
L 45.808654 128.44129 
L 46.049831 130.760969 
L 46.101939 130.329905 
L 46.170389 128.458662 
L 46.239004 128.758842 
L 46.341915 128.611118 
L 46.496556 129.431009 
L 46.65129 129.048971 
L 46.702753 129.139476 
L 46.754654 129.053114 
L 46.853222 128.649137 
L 46.874807 128.750299 
L 47.204241 130.791677 
L 47.239988 130.734751 
L 47.394699 128.627293 
L 47.527226 129.811944 
L 47.648425 129.765211 
L 47.704837 129.385796 
L 47.743521 130.065613 
L 47.743594 129.365924 
L 47.811953 129.663884 
L 48.01306 129.99209 
L 48.045109 129.629265 
L 48.063245 130.409632 
L 48.130679 130.193923 
L 48.210728 129.031298 
L 48.2273 129.354317 
L 48.296194 128.689289 
L 48.378223 129.381776 
L 48.457123 129.264779 
L 48.558456 128.594127 
L 48.796842 129.496164 
L 48.865727 129.435218 
L 48.968136 128.170395 
L 49.002637 130.434111 
L 49.071817 129.919591 
L 49.294943 123.401138 
L 49.363233 124.698702 
L 49.500872 126.603534 
L 49.603785 126.181699 
L 49.658854 128.435129 
L 49.725131 127.794941 
L 49.883144 126.634366 
L 50.00429 127.393115 
L 50.089862 128.877093 
L 50.139595 128.807479 
L 50.311591 128.665526 
L 50.380393 127.292001 
L 50.432912 127.300403 
L 50.707369 129.481039 
L 51.411749 123.754036 
L 51.498586 123.374808 
L 51.515022 123.846433 
L 51.878368 125.177242 
L 52.253543 127.014373 
L 52.65426 127.834413 
L 53.028815 127.396953 
L 53.043992 126.269353 
L 53.129151 127.342879 
L 53.198618 128.103273 
L 53.336755 125.997894 
L 53.593987 132.155175 
L 53.612538 130.580175 
L 53.818221 129.407621 
L 53.954309 127.919686 
L 54.076938 129.796553 
L 54.315596 126.784777 
L 54.473223 129.810501 
L 54.546181 130.090024 
L 54.67699 128.944161 
L 54.84888 124.339897 
L 54.900844 124.618897 
L 54.985359 126.04258 
L 55.147348 123.709223 
L 55.243361 123.794951 
L 55.3998 127.573809 
L 55.53564 127.090125 
L 55.724574 124.909609 
L 55.866539 126.101443 
L 55.913756 126.013002 
L 56.004588 125.273042 
L 56.051102 125.645058 
L 56.120707 127.723819 
L 56.185194 126.439491 
L 56.288409 126.102283 
L 56.528915 127.61915 
L 56.597967 127.415276 
L 56.751952 126.64633 
L 56.820928 126.694927 
L 56.975164 127.660176 
L 57.044741 128.08292 
L 57.095951 127.7391 
L 57.249899 128.4384 
L 57.318903 128.352714 
L 57.406618 128.020086 
L 57.541727 126.409575 
L 57.679981 127.938822 
L 57.817594 125.865126 
L 57.95502 123.639821 
L 58.094176 124.761074 
L 58.231545 126.476552 
L 58.385033 124.972766 
L 58.522144 128.623076 
L 58.641537 128.91114 
L 58.658558 129.938601 
L 58.746242 129.228542 
L 58.892663 128.935105 
L 58.89295 129.203192 
L 58.977112 127.570058 
L 59.302664 131.855099 
L 59.47305 134.186667 
L 59.713629 133.291884 
L 60.039525 127.47932 
L 60.159691 123.941603 
L 60.347876 125.101143 
L 60.50372 124.464605 
L 60.587792 125.224247 
L 60.66069 125.032842 
L 60.726523 125.400203 
L 60.934908 128.754692 
L 61.070054 128.819026 
L 61.121597 129.971272 
L 61.159542 129.932957 
L 61.224728 129.747515 
L 61.361868 131.475236 
L 61.431321 131.423658 
L 61.690201 126.742662 
L 61.808684 128.142131 
L 61.997989 126.710695 
L 62.135121 126.138953 
L 62.239486 129.092612 
L 62.444104 127.87465 
L 62.513673 127.08556 
L 62.564553 127.566258 
L 62.720455 128.277509 
L 62.78971 128.856144 
L 62.891042 127.694334 
L 62.96043 127.921915 
L 63.011443 128.840699 
L 63.083613 128.442225 
L 63.146666 127.446703 
L 63.276719 131.041356 
L 63.669439 126.113819 
L 63.772 127.060725 
L 63.858189 126.767256 
L 63.999124 121.476769 
L 64.065068 122.803339 
L 64.203895 124.402348 
L 64.276218 123.110687 
L 64.342695 123.729899 
L 64.564422 122.073132 
L 64.753503 122.082515 
L 64.770372 124.866183 
L 64.839869 122.590615 
L 64.960112 124.014498 
L 65.063057 126.842379 
L 65.131473 126.85908 
L 65.262251 127.11974 
L 65.338781 129.893956 
L 65.40566 128.504559 
L 65.565023 131.273321 
L 65.768326 127.509627 
L 65.908789 127.866365 
L 65.97335 127.956673 
L 66.163456 124.522137 
L 66.197787 124.425181 
L 66.336744 123.566048 
L 66.377152 123.870927 
L 66.560236 125.021436 
L 66.648409 124.655492 
L 66.687002 124.019397 
L 66.835537 126.785192 
L 66.964959 126.132126 
L 67.109976 124.139379 
L 67.238742 124.842444 
L 67.276122 124.818213 
L 67.626431 120.603105 
L 68.042925 127.232052 
L 68.127816 127.168827 
L 68.196615 127.510065 
L 68.251934 128.560161 
L 68.333613 128.490738 
L 68.471223 130.207307 
L 68.539626 129.528782 
L 68.750818 127.651298 
L 68.764255 129.892674 
L 68.833237 127.896636 
L 68.885568 127.852636 
L 68.989379 126.990727 
L 69.039863 127.926578 
L 69.194835 125.255451 
L 69.249512 125.99517 
L 69.33406 128.288553 
L 69.348688 126.893283 
L 69.469486 125.540079 
L 69.677286 128.08535 
L 69.849514 126.420701 
L 69.971574 127.556979 
L 70.020764 126.062539 
L 70.176618 127.114503 
L 70.262102 125.956026 
L 70.334412 126.29354 
L 70.382718 126.391718 
L 70.749799 128.959294 
L 70.886703 128.370931 
L 71.09022 129.954088 
L 71.520266 125.790552 
L 71.657869 126.988126 
L 71.743857 126.739898 
L 71.880413 125.067946 
L 72.298259 130.086462 
L 72.432784 126.892453 
L 72.501353 127.112387 
L 72.604077 128.95932 
L 72.655879 128.77415 
L 72.759219 130.619572 
L 72.809889 130.578702 
L 73.223137 125.650562 
L 73.4904 123.172531 
L 73.635693 125.486497 
L 73.725981 127.141465 
L 74.084701 129.248009 
L 74.169383 128.968844 
L 74.307496 126.827942 
L 74.426914 127.443061 
L 74.804275 125.865546 
L 74.874181 126.074798 
L 74.925071 126.726661 
L 75.080375 125.090692 
L 75.254789 126.641837 
L 75.511173 125.361601 
L 75.565536 123.956721 
L 75.632166 124.176502 
L 75.804159 125.179843 
L 75.954634 123.686728 
L 76.07033 126.717633 
L 76.079605 126.471359 
L 76.16152 125.448221 
L 76.235597 125.415448 
L 76.39043 127.571231 
L 76.429404 126.481337 
L 76.579246 128.763218 
L 76.630486 128.598479 
L 76.768254 128.829012 
L 76.82172 128.183419 
L 76.857015 129.317279 
L 76.911947 129.252993 
L 77.063655 129.400315 
L 77.133269 130.12512 
L 77.200454 128.800894 
L 77.269012 129.346699 
L 77.338567 130.03204 
L 77.35529 129.144015 
L 77.567691 127.063268 
L 77.630394 128.618012 
L 77.698413 128.151795 
L 77.842891 126.683195 
L 77.90564 126.889387 
L 77.984452 126.256365 
L 78.059886 126.409837 
L 78.127667 126.516668 
L 78.197885 126.213512 
L 78.26458 127.746994 
L 78.337912 127.489979 
L 78.404473 126.739734 
L 78.625135 129.461318 
L 78.694746 129.228961 
L 78.762712 128.952738 
L 78.830981 129.946324 
L 78.901913 129.777937 
L 79.054823 126.323003 
L 79.19268 128.342267 
L 79.26136 128.179377 
L 79.329779 127.633861 
L 79.398813 127.65284 
L 79.467199 127.926096 
L 79.622708 127.404181 
L 79.76061 129.14824 
L 79.828436 128.779424 
L 79.968337 126.893497 
L 80.120738 128.953219 
L 80.189423 129.090637 
L 80.25456 129.04738 
L 80.472629 130.514802 
L 80.775134 126.983596 
L 80.824892 127.68926 
L 80.896712 129.294958 
L 81.047975 127.331305 
L 81.100815 127.98653 
L 81.176315 126.874951 
L 81.323445 128.799246 
L 81.392216 128.852996 
L 81.462895 129.101959 
L 81.599228 126.608899 
L 81.668523 126.876335 
L 81.75496 128.007223 
L 81.810607 127.735548 
L 81.89316 127.685289 
L 81.960291 126.646333 
L 82.03029 127.090685 
L 82.109745 126.670676 
L 82.115377 128.089131 
L 82.167684 127.907824 
L 82.322697 129.505764 
L 82.529433 127.56531 
L 82.581033 128.119568 
L 82.598742 127.624941 
L 82.668609 127.549461 
L 82.829637 126.538418 
L 82.909121 127.23409 
L 82.960292 126.909508 
L 83.029503 126.367754 
L 83.166546 127.941461 
L 83.235004 126.609607 
L 83.304201 127.367597 
L 83.37358 127.8551 
L 83.479816 126.742331 
L 83.530873 127.233066 
L 83.672753 125.842529 
L 83.686272 124.565736 
L 83.737208 125.031413 
L 83.857677 125.063399 
L 83.943548 127.85661 
L 84.098569 127.818669 
L 84.167252 127.385788 
L 84.184548 128.050665 
L 84.392136 127.479752 
L 84.478194 129.423192 
L 84.53059 128.728902 
L 84.855576 123.920545 
L 84.942609 124.588727 
L 85.028999 124.394202 
L 85.080854 125.781908 
L 85.09642 124.020545 
L 85.320894 122.774224 
L 85.458534 125.86931 
L 85.646442 127.955713 
L 85.750394 127.865365 
L 85.819173 127.197763 
L 85.835379 128.915211 
L 85.905971 127.959429 
L 85.990635 129.02607 
L 86.041844 127.867435 
L 86.128075 128.11989 
L 86.215202 127.130117 
L 86.317377 127.491568 
L 86.386881 126.322681 
L 86.437793 128.310459 
L 86.794647 125.464938 
L 86.849263 125.9652 
L 86.883941 126.101296 
L 87.003824 125.716551 
L 87.04668 125.945412 
L 87.175658 123.312204 
L 87.245687 125.004884 
L 87.385099 123.641951 
L 87.433927 125.637368 
L 87.502682 124.863649 
L 87.698724 125.13523 
L 87.717657 124.396059 
L 87.781872 125.600821 
L 87.934171 124.314126 
L 88.003053 125.733905 
L 88.077231 125.655759 
L 88.141091 125.070467 
L 88.517786 128.046905 
L 88.658305 129.702209 
L 88.725868 128.319656 
L 88.778257 128.674915 
L 88.862267 129.76479 
L 89.086477 127.654267 
L 89.27403 129.272063 
L 89.504677 128.551321 
L 89.634746 126.766218 
L 89.705327 127.673574 
L 89.7723 127.431053 
L 89.811329 127.507804 
L 90.068486 125.441697 
L 90.23901 127.001934 
L 90.324972 127.576452 
L 90.342486 127.140209 
L 90.754791 122.769517 
L 90.791247 124.52635 
L 90.874974 123.744651 
L 90.927838 122.80352 
L 91.132573 124.184154 
L 91.201377 124.618883 
L 91.275631 123.9348 
L 91.338378 125.074516 
L 91.476558 124.811466 
L 91.630356 126.290961 
L 91.769185 125.755842 
L 91.836734 125.920851 
L 92.094319 128.880094 
L 92.197533 127.61491 
L 92.490686 128.469606 
L 92.561487 129.047926 
L 92.834674 127.47664 
L 92.905951 127.533924 
L 92.981303 128.074844 
L 93.041787 127.790002 
L 93.162014 126.996508 
L 93.539242 129.700371 
L 93.757826 126.347044 
L 93.831801 127.649908 
L 94.113993 124.221833 
L 94.313413 123.983029 
L 94.384704 126.625446 
L 94.468574 126.992248 
L 94.614671 125.52593 
L 94.881589 127.744345 
L 94.966427 127.82801 
L 95.10465 126.264829 
L 95.173151 127.351967 
L 95.241506 127.107042 
L 95.603014 124.449572 
L 95.670322 124.511377 
L 95.808563 125.090908 
L 95.877519 124.321338 
L 95.977477 124.658122 
L 96.237412 127.53724 
L 96.446094 126.077152 
L 96.667005 127.361282 
L 96.741017 127.58304 
L 96.805635 127.371736 
L 96.873582 125.890457 
L 96.944768 126.156007 
L 97.1733 128.088375 
L 97.304668 127.713606 
L 97.441834 127.982493 
L 97.52868 126.429878 
L 97.581391 127.183666 
L 97.64968 128.964227 
L 97.73701 125.670757 
L 97.892426 126.962649 
L 97.94174 126.299879 
L 98.010226 126.726796 
L 98.07914 126.826237 
L 98.154024 125.775811 
L 98.233496 126.743279 
L 98.307617 125.856409 
L 98.478255 127.330038 
L 98.590746 124.109018 
L 98.667515 124.867201 
L 98.787485 123.313241 
L 98.856267 123.695479 
L 98.992725 123.276884 
L 99.026821 124.358533 
L 99.088892 124.330793 
L 99.147599 124.648218 
L 99.353125 127.685751 
L 99.387595 126.746619 
L 99.476283 126.634255 
L 99.577998 128.391453 
L 99.807789 127.290427 
L 99.938607 125.27426 
L 100.006959 125.194098 
L 100.075519 124.242976 
L 100.574855 129.674413 
L 100.681077 128.852739 
L 100.712514 128.889655 
L 100.799406 130.357648 
L 100.919211 129.404424 
L 101.056227 127.181189 
L 101.48789 123.211663 
L 101.60304 123.756842 
L 101.644767 123.397601 
L 101.778097 124.527204 
L 101.84712 124.216931 
L 102.018528 124.951382 
L 102.242729 127.496692 
L 102.29399 126.035714 
L 102.346169 126.354045 
L 102.570339 129.164732 
L 102.898746 125.25061 
L 102.929758 122.857627 
L 102.946829 124.601577 
L 103.055961 127.421099 
L 103.204768 124.727589 
L 103.276601 124.89518 
L 103.617113 131.294754 
L 103.702231 130.695378 
L 103.7706 129.491426 
L 103.856665 129.855451 
L 103.925398 129.532836 
L 104.081446 130.079136 
L 104.339988 126.269737 
L 104.410251 126.362081 
L 104.511469 126.302458 
L 104.545432 125.293186 
L 104.700641 126.234669 
L 104.854687 124.886283 
L 105.078591 126.359854 
L 105.114778 125.973529 
L 105.267466 128.441569 
L 105.335954 127.939917 
L 105.474949 127.395847 
L 105.553058 128.145851 
L 105.615445 127.640876 
L 105.654374 127.628752 
L 105.708465 127.48321 
L 105.850784 130.499164 
L 105.970794 128.417269 
L 106.072903 130.401666 
L 106.124739 129.557846 
L 106.26284 128.434323 
L 106.351961 129.231096 
L 106.478634 126.564852 
L 106.554768 125.237509 
L 106.624337 125.491743 
L 106.709886 126.017726 
L 106.869141 124.790573 
L 106.902253 125.866278 
L 106.968636 124.60517 
L 107.123053 126.070429 
L 107.398833 124.116751 
L 107.558927 125.954981 
L 107.796864 124.372937 
L 107.911691 124.736714 
L 108.112105 126.389398 
L 108.146012 126.148627 
L 108.311666 122.980283 
L 108.537441 122.543589 
L 108.606092 123.046528 
L 108.674073 122.751023 
L 109.053506 124.065334 
L 109.123307 124.953246 
L 109.191075 124.876712 
L 109.260214 125.205994 
L 109.519382 123.978812 
L 109.604923 124.086037 
L 109.916552 129.122474 
L 109.95038 128.17548 
L 110.018887 128.476799 
L 110.105414 129.780499 
L 110.173164 128.521456 
L 110.227177 129.68054 
L 110.345534 129.635352 
L 110.586526 124.755169 
L 110.654835 127.086905 
L 110.727506 126.27413 
L 110.810952 125.450096 
L 110.878872 126.353277 
L 110.9479 125.82146 
L 111.02329 125.721639 
L 111.092732 126.25469 
L 111.222461 125.991739 
L 111.256525 126.1148 
L 111.308128 127.544312 
L 111.395429 125.914967 
L 111.448415 126.441213 
L 111.672566 128.363777 
L 111.723456 128.258928 
L 111.830443 128.555079 
L 111.946821 130.086001 
L 112.066673 130.13559 
L 112.170453 132.150683 
L 112.358565 129.2807 
L 112.427389 129.905401 
L 112.513312 128.532718 
L 112.598682 128.761785 
L 112.688687 129.458279 
L 112.855621 125.730733 
L 112.925338 126.713578 
L 112.996449 126.582681 
L 113.079702 126.774397 
L 113.161346 126.145426 
L 113.216985 126.785528 
L 113.371332 124.826813 
L 113.440552 125.016058 
L 113.52708 124.886403 
L 113.651807 127.512551 
L 113.749274 127.200349 
L 113.817685 127.234476 
L 114.266255 132.093621 
L 114.402436 129.531192 
L 114.437305 130.456682 
L 114.506058 129.849625 
L 114.592069 130.023306 
L 114.660472 130.527738 
L 114.728855 129.938641 
L 114.866415 126.968228 
L 114.921466 126.445999 
L 115.126285 127.214706 
L 115.211737 125.667138 
L 115.227203 125.927239 
L 115.34802 123.711673 
L 115.417504 124.878443 
L 115.486147 124.867683 
L 115.711772 123.774877 
L 115.777914 123.887682 
L 115.848148 123.767177 
L 115.929813 124.046404 
L 115.997958 124.95012 
L 116.084268 124.891211 
L 116.121685 124.448115 
L 116.358803 127.924853 
L 116.48002 127.149283 
L 116.550096 128.197162 
L 116.564131 127.962163 
L 116.66675 127.888794 
L 116.927426 124.88609 
L 117.131385 125.402013 
L 117.252598 124.987858 
L 117.285994 125.114656 
L 117.343392 125.717995 
L 117.407771 124.971318 
L 117.494029 126.559676 
L 117.564947 126.555325 
L 117.618276 126.775626 
L 117.857855 124.993182 
L 117.927605 126.179942 
L 118.044942 123.948105 
L 118.114515 124.817543 
L 118.199971 124.420387 
L 118.372766 126.176198 
L 118.440466 125.886224 
L 118.577925 126.043333 
L 118.646989 126.631098 
L 118.822806 131.436665 
L 119.043427 128.099769 
L 119.266389 130.677701 
L 119.56045 127.398101 
L 119.610981 128.339632 
L 119.75113 129.443311 
L 119.839289 128.66162 
L 119.851075 129.597224 
L 120.179027 126.408465 
L 120.247696 125.67374 
L 120.367871 126.219061 
L 120.42212 125.417158 
L 120.472577 125.580086 
L 120.644835 127.781724 
L 120.747063 127.144683 
L 120.816027 127.241915 
L 120.918293 127.659856 
L 121.10666 130.417942 
L 121.31345 128.248772 
L 121.381876 128.064159 
L 121.467817 127.451384 
L 121.555954 127.999695 
L 121.605164 127.881374 
L 121.813438 125.426036 
L 121.880546 126.041123 
L 121.951996 125.745646 
L 122.172436 127.044228 
L 122.242863 126.277882 
L 122.30975 126.371048 
L 122.481489 126.897603 
L 122.619476 127.634159 
L 122.693107 129.028571 
L 123.493362 124.865577 
L 123.511341 125.837952 
L 123.590375 124.589345 
L 123.682706 124.744796 
L 123.80335 125.921889 
L 123.873279 124.349174 
L 123.95756 125.308796 
L 124.154654 122.498476 
L 124.249835 122.495732 
L 124.397379 124.681279 
L 124.46687 123.825124 
L 124.5007 124.666469 
L 124.588531 126.242346 
L 124.672016 124.608968 
L 124.7417 125.1328 
L 124.877715 126.986785 
L 124.999894 126.068196 
L 125.154193 128.409547 
L 125.170788 127.727186 
L 125.224624 127.420558 
L 125.294108 127.905994 
L 125.433226 129.913676 
L 125.53265 128.588106 
L 125.640438 130.584413 
L 125.912032 126.152767 
L 126.033871 127.227109 
L 126.135996 127.185984 
L 126.221685 129.44366 
L 126.290759 128.249381 
L 126.427909 126.74192 
L 126.49685 126.879081 
L 126.63486 127.607398 
L 126.704181 127.480278 
L 126.899997 126.628313 
L 126.99566 126.75072 
L 127.150065 131.310515 
L 127.288005 131.220998 
L 127.376597 129.906195 
L 127.482287 130.20506 
L 127.529323 129.966725 
L 127.874532 124.121481 
L 128.268894 126.365246 
L 128.435295 125.343295 
L 128.663138 127.692513 
L 128.800927 125.919165 
L 128.885958 125.889966 
L 128.920661 126.47029 
L 128.998022 126.028919 
L 129.05842 125.881301 
L 129.200101 127.905507 
L 129.297416 127.574528 
L 129.333965 126.732473 
L 129.488196 129.059091 
L 129.557608 128.471734 
L 129.625783 127.581475 
L 129.764231 128.925573 
L 129.911006 127.118663 
L 130.067541 130.76445 
L 130.150332 129.871883 
L 130.288676 127.988514 
L 130.476909 129.247142 
L 130.545261 130.410671 
L 130.615766 130.092822 
L 130.768677 125.726757 
L 130.975921 126.779286 
L 131.04481 126.983076 
L 131.267666 125.292617 
L 131.697802 129.006114 
L 131.835771 128.43876 
L 131.92233 130.266779 
L 131.972286 129.209537 
L 132.487647 124.902982 
L 132.538944 125.706559 
L 132.641798 124.018718 
L 132.728081 124.33825 
L 132.832168 126.008682 
L 132.921672 125.981359 
L 132.954438 126.044444 
L 133.037813 126.766228 
L 133.108624 126.284412 
L 133.1752 126.829391 
L 133.26155 126.782282 
L 133.314587 125.687077 
L 133.383106 125.759512 
L 133.467675 125.790643 
L 133.536697 125.458999 
L 133.604461 125.885438 
L 133.965471 123.213765 
L 134.033565 125.051247 
L 134.157414 125.201911 
L 134.256942 124.034147 
L 134.412829 125.67656 
L 134.461951 127.512988 
L 134.530726 126.436576 
L 134.600131 126.505841 
L 134.668184 127.085183 
L 134.740614 126.284868 
L 134.753595 128.378142 
L 134.822544 127.167681 
L 134.89193 127.002163 
L 134.960031 127.336697 
L 135.045946 127.212733 
L 135.422516 124.403783 
L 135.458563 124.370558 
L 135.595853 123.964106 
L 135.650093 125.281305 
L 135.699121 124.91165 
L 135.75059 124.059556 
L 135.954651 127.089021 
L 136.152854 129.171258 
L 136.443387 126.436606 
L 136.735411 123.702758 
L 136.856383 123.776794 
L 136.893006 122.995013 
L 136.993545 123.34146 
L 137.013045 123.270279 
L 137.097173 122.848489 
L 137.16487 123.475913 
L 137.233717 122.599689 
L 137.304511 123.791344 
L 137.373833 123.679762 
L 137.740947 127.293187 
L 137.857698 129.605554 
L 137.941684 129.149485 
L 138.183204 127.439558 
L 138.355305 129.235486 
L 138.49558 128.145581 
L 138.578533 128.026109 
L 138.647528 128.201056 
L 138.784443 128.77666 
L 138.921519 128.470064 
L 139.076295 126.079069 
L 139.145507 126.478479 
L 139.214589 126.102266 
L 139.283355 124.666164 
L 139.353664 125.488433 
L 139.489755 125.714722 
L 139.560683 126.545241 
L 139.64376 125.548903 
L 139.712004 126.579365 
L 139.850762 124.432131 
L 139.993582 126.459677 
L 140.058435 126.148942 
L 140.074715 127.392542 
L 140.130151 126.133863 
L 140.212602 126.004229 
L 140.299961 125.44811 
L 140.557424 127.953114 
L 140.634687 127.749595 
L 140.707995 127.608452 
L 140.78073 128.559392 
L 140.850231 128.326298 
L 140.989663 127.714117 
L 141.124084 129.515576 
L 141.193577 127.813334 
L 141.264132 128.466451 
L 141.486302 127.535133 
L 141.62131 128.974907 
L 141.832416 127.932595 
L 141.982894 128.917947 
L 142.136541 128.017957 
L 142.309 127.630424 
L 142.43504 128.781465 
L 142.541633 127.437583 
L 142.693078 125.924525 
L 142.855638 126.954964 
L 142.990248 126.176515 
L 143.189788 125.941122 
L 143.275926 124.658389 
L 143.33187 124.787405 
L 143.41373 124.475327 
L 143.774494 121.227272 
L 143.9633 121.593393 
L 144.119185 125.130347 
L 144.462927 128.896672 
L 144.547587 128.541596 
L 144.599621 129.50942 
L 144.685507 128.83396 
L 144.770378 128.874126 
L 145.114069 127.639009 
L 145.327254 128.703291 
L 145.405783 128.223602 
L 145.474375 128.893927 
L 145.543422 128.151558 
L 145.7332 128.6492 
L 145.887153 127.129746 
L 146.02737 127.602551 
L 146.042103 126.327951 
L 146.110819 126.909764 
L 146.195822 127.211193 
L 146.249095 127.831153 
L 146.316014 127.70402 
L 146.385757 127.527841 
L 146.522987 128.409032 
L 146.639688 128.260475 
L 146.763059 126.613027 
L 146.9005 124.296799 
L 146.969536 125.024715 
L 147.037852 125.024474 
L 147.24466 123.879466 
L 147.405023 126.066158 
L 147.450854 127.70113 
L 147.537368 127.476297 
L 147.59434 128.142603 
L 147.674879 127.807386 
L 147.903142 125.510488 
L 148.040227 125.805472 
L 148.14421 125.51399 
L 148.160574 124.791516 
L 148.303491 126.343455 
L 148.47523 125.412172 
L 148.665116 128.360803 
L 149.075543 124.959453 
L 149.196869 127.327344 
L 149.231948 127.14037 
L 149.29962 126.311209 
L 149.45375 127.198767 
L 149.595261 127.793031 
L 149.661048 127.391415 
L 149.729777 128.180527 
L 149.819671 126.601128 
L 150.020454 127.803332 
L 150.153599 125.993705 
L 150.239126 125.962386 
L 150.428146 126.807395 
L 150.462281 126.686264 
L 150.517383 127.474732 
L 150.5668 126.361826 
L 150.651987 126.389691 
L 150.754567 126.666892 
L 150.874929 128.245068 
L 151.183669 125.736602 
L 151.357428 123.972322 
L 151.647478 125.550281 
L 151.716482 125.374459 
L 151.787798 125.812606 
L 151.888995 125.454832 
L 152.077603 127.633125 
L 152.148496 127.297418 
L 152.21551 127.905595 
L 152.352994 125.98714 
L 152.43657 127.083272 
L 152.545971 126.853963 
L 152.629031 128.475506 
L 152.648791 127.437027 
L 152.764718 128.268874 
L 152.938999 125.909457 
L 152.989481 127.295736 
L 153.057877 126.966077 
L 153.281154 125.100326 
L 153.351997 125.45799 
L 153.456935 125.320497 
L 153.574093 127.469803 
L 153.764372 126.453377 
L 153.779478 127.764748 
L 154.039105 128.63913 
L 154.10957 128.07412 
L 154.208482 124.628277 
L 154.280288 123.031515 
L 154.484859 123.853448 
L 154.606692 123.21389 
L 154.776374 125.213469 
L 155.051393 128.84581 
L 155.263954 128.450126 
L 155.412299 128.907282 
L 155.773536 126.338135 
L 155.827676 127.183986 
L 156.049134 125.346025 
L 156.188004 125.534482 
L 156.255111 125.04441 
L 156.393826 127.295251 
L 156.756714 129.96024 
L 156.826317 129.659525 
L 156.970165 129.991221 
L 157.045645 129.217037 
L 157.122253 129.732745 
L 157.391081 128.013357 
L 157.511529 128.089802 
L 157.63129 129.051662 
L 157.684794 128.256536 
L 157.769104 128.292257 
L 157.890591 129.136311 
L 158.043906 129.520424 
L 158.18114 127.223991 
L 158.319398 125.930647 
L 158.457394 127.339861 
L 158.478993 126.363694 
L 158.747793 127.998394 
L 158.885598 128.41032 
L 159.073869 130.08441 
L 159.108279 128.905937 
L 159.193598 129.001438 
L 159.264047 128.048764 
L 159.351732 128.343251 
L 159.452038 129.027621 
L 159.590472 130.169498 
L 159.830425 127.257566 
L 160.037515 126.085377 
L 160.327674 122.449194 
L 160.455363 123.386796 
L 160.589297 123.995723 
L 160.656935 122.60928 
L 160.897825 125.091964 
L 160.947261 124.918618 
L 161.098274 124.916687 
L 161.104036 124.42358 
L 161.17142 124.578587 
L 161.240081 124.519032 
L 161.402147 125.997028 
L 161.466775 126.192868 
L 161.549855 124.506319 
L 161.670391 124.559905 
L 161.72184 124.130436 
L 161.757893 124.210304 
L 161.962991 125.856066 
L 162.153917 124.085124 
L 162.376162 124.907711 
L 162.513347 124.797617 
L 162.651868 122.327844 
L 162.805199 123.642386 
L 162.909063 123.947027 
L 163.030431 122.168486 
L 163.205432 123.366825 
L 163.234912 123.1249 
L 163.442778 121.55479 
L 163.784878 125.189692 
L 163.939835 123.846422 
L 164.147963 126.570588 
L 164.162272 126.239242 
L 164.26564 126.150602 
L 164.695674 129.503949 
L 164.833329 130.369858 
L 164.936503 129.497349 
L 165.004448 129.387939 
L 165.090394 130.203963 
L 165.210075 128.359449 
L 165.279102 128.386043 
L 165.355131 128.617897 
L 165.419537 128.518624 
L 165.49567 128.417246 
L 165.633932 128.675017 
L 165.646481 127.498065 
L 165.714421 128.605022 
L 165.786282 127.703572 
L 165.874618 128.489867 
L 165.923893 129.944686 
L 166.078287 129.080159 
L 166.216542 129.06292 
L 166.387702 130.730333 
L 166.543569 130.397209 
L 166.562292 131.115877 
L 166.650594 130.69928 
L 166.702495 131.532665 
L 166.769676 131.074083 
L 166.836698 131.246814 
L 166.9835 130.391886 
L 167.084891 131.679888 
L 167.211811 129.796166 
L 167.430168 124.596984 
L 167.516803 126.14242 
L 167.555847 125.860504 
L 167.638548 126.13569 
L 167.703817 125.831301 
L 167.771991 124.832569 
L 167.84064 125.015236 
L 167.913626 125.844267 
L 168.132583 129.719488 
L 168.202076 128.315992 
L 168.442249 131.342228 
L 168.613339 131.153332 
L 168.769785 129.695258 
L 168.905511 130.42889 
L 169.112393 126.279109 
L 169.197822 126.444382 
L 169.266057 126.718909 
L 169.334775 129.244775 
L 169.406757 128.1447 
L 169.47201 128.772909 
L 169.545535 128.217993 
L 169.752962 130.053588 
L 170.042897 125.454668 
L 170.111065 125.960268 
L 170.180869 125.233117 
L 170.250228 125.924287 
L 170.318877 125.544859 
L 170.472038 124.634341 
L 170.541612 125.285185 
L 170.610497 124.807208 
L 170.892785 126.747526 
L 171.040795 124.513325 
L 171.108479 124.549581 
L 171.176577 124.107329 
L 171.331166 127.266289 
L 171.386669 126.836765 
L 171.469309 126.78304 
L 171.561432 125.49573 
L 171.60588 125.80627 
L 171.952554 128.278329 
L 172.037337 128.574373 
L 172.104454 127.723934 
L 172.24152 129.344748 
L 172.310492 129.111622 
L 172.37943 128.907964 
L 172.481989 127.447248 
L 172.533529 128.553995 
L 172.589413 128.284646 
L 172.654842 127.443954 
L 172.809308 128.63798 
L 172.893536 128.281811 
L 173.0156 126.826594 
L 173.168807 127.416516 
L 173.24914 127.323561 
L 173.311901 126.845981 
L 173.392062 127.327573 
L 173.581163 125.653682 
L 173.737252 127.715866 
L 173.805519 127.679977 
L 173.908973 127.319588 
L 173.960352 127.891075 
L 174.032409 127.507339 
L 174.272056 126.721764 
L 174.289448 126.992272 
L 174.459215 126.256016 
L 175.003321 129.160426 
L 175.165468 127.811767 
L 175.242353 128.726245 
L 175.30202 128.290146 
L 175.577808 129.315199 
L 175.676588 129.221886 
L 175.713805 129.066228 
L 175.799455 128.168117 
L 176.003462 129.982105 
L 176.147223 128.816839 
L 176.210189 128.866617 
L 176.312977 130.048813 
L 176.363944 129.12167 
L 176.484805 130.370574 
L 176.554551 130.349027 
L 176.591216 130.126485 
L 176.657115 128.64402 
L 176.81093 128.587916 
L 177.154855 124.228467 
L 177.270947 124.968919 
L 177.296449 124.889624 
L 177.44016 123.910764 
L 177.504352 124.764002 
L 177.708506 123.923213 
L 177.723221 125.580372 
L 177.774778 125.371715 
L 178.138646 127.619078 
L 178.209689 127.331325 
L 178.281933 129.615432 
L 178.417588 129.354748 
L 178.709425 126.786499 
L 178.776752 126.77479 
L 178.845569 128.125148 
L 179.051012 125.669999 
L 179.120128 125.723331 
L 179.205694 128.309196 
L 179.327748 128.160255 
L 179.484794 130.729077 
L 179.56637 128.246341 
L 179.635175 128.373391 
L 179.773016 128.397636 
L 179.97959 126.123812 
L 180.089438 127.411607 
L 180.245066 125.642623 
L 180.326874 126.509247 
L 180.383633 125.821972 
L 180.412544 126.933009 
L 180.498857 126.31787 
L 180.662998 126.898748 
L 180.774083 126.026899 
L 180.912619 127.701795 
L 180.979851 127.682903 
L 181.072652 129.376785 
L 181.156214 129.00422 
L 181.220878 130.008289 
L 181.271977 129.657982 
L 181.341983 129.881017 
L 181.616768 128.160858 
L 181.923074 131.573058 
L 182.046695 131.99097 
L 182.183337 132.846717 
L 182.616572 126.365585 
L 182.759397 127.56357 
L 182.828968 126.809529 
L 182.904345 126.937692 
L 182.960342 126.721398 
L 183.231562 127.167165 
L 183.403638 125.802252 
L 183.490293 125.971574 
L 183.626966 127.38501 
L 183.678687 127.064199 
L 183.764312 127.033921 
L 183.884958 129.966972 
L 183.971044 129.256824 
L 184.092569 129.583754 
L 184.160343 129.130983 
L 184.229015 130.149147 
L 184.401149 128.848477 
L 184.488146 129.136911 
L 184.607826 126.070691 
L 184.674948 127.146324 
L 184.743746 127.331678 
L 184.8133 127.042665 
L 184.898671 125.915923 
L 185.104055 127.061968 
L 185.22682 127.120825 
L 185.311538 126.147441 
L 185.362531 126.750433 
L 185.447769 126.213444 
L 185.620017 127.555065 
L 185.879713 126.013209 
L 185.980659 127.29307 
L 186.049326 126.387153 
L 186.117687 127.000959 
L 186.206547 125.928654 
L 186.255838 126.665153 
L 186.375485 126.26445 
L 186.826645 128.947799 
L 186.978126 130.086852 
L 187.168175 128.971404 
L 187.322776 129.612524 
L 187.581465 125.450026 
L 187.656507 124.867486 
L 187.753759 125.506856 
L 187.805164 124.261364 
L 187.88261 124.550046 
L 188.011837 124.24648 
L 188.235653 126.599153 
L 188.371797 126.447886 
L 188.440805 126.14473 
L 188.509203 126.529705 
L 188.595168 125.527733 
L 188.646791 125.889854 
L 188.72105 126.270586 
L 188.80262 125.860798 
L 188.893909 126.140112 
L 188.95485 125.852812 
L 189.006689 126.173816 
L 189.160834 125.336667 
L 189.316217 128.863174 
L 189.419783 128.919167 
L 189.438665 128.737562 
L 189.504358 128.767311 
L 189.642269 129.110877 
L 189.764085 129.088702 
L 189.868314 130.50362 
L 190.0888 128.264619 
L 190.235479 127.622295 
L 190.297511 127.429058 
L 190.365729 128.678797 
L 190.451882 128.626587 
L 190.572109 126.746632 
L 190.65298 126.985554 
L 190.726208 126.715982 
L 190.812176 126.91975 
L 190.88287 127.387809 
L 190.937378 127.097613 
L 191.123523 124.820583 
L 191.140502 124.940185 
L 191.208426 126.709055 
L 191.328757 126.715196 
L 191.569591 123.877691 
L 191.639853 123.408982 
L 191.707093 124.778671 
L 191.774489 124.617293 
L 191.864357 124.677107 
L 191.91205 124.87967 
L 192.069924 126.626618 
L 192.204624 127.380964 
L 192.349121 130.60753 
L 192.518276 130.682438 
L 192.702831 126.838337 
L 192.867143 127.313965 
L 193.063936 124.099057 
L 193.200554 124.690107 
L 193.406586 127.516055 
L 193.493101 126.618048 
L 193.561118 127.006765 
L 193.699057 126.559833 
L 193.768028 126.702418 
L 193.836129 127.614109 
L 193.92508 126.931706 
L 194.060847 127.209964 
L 194.094138 127.029435 
L 194.130081 126.832367 
L 194.197754 127.227605 
L 194.369593 129.367544 
L 194.420437 129.266823 
L 194.507115 129.29706 
L 194.559015 128.887941 
L 194.832444 130.703762 
L 194.954216 130.423303 
L 194.986991 128.53654 
L 195.056176 129.280708 
L 195.117606 130.087198 
L 195.262257 128.095689 
L 195.34834 129.00176 
L 195.399519 128.649025 
L 195.536352 126.843664 
L 195.681862 129.078678 
L 196.104487 126.348808 
L 196.175349 128.200476 
L 196.413977 126.314963 
L 196.67338 129.85198 
L 196.756848 130.384948 
L 196.894552 128.308866 
L 196.980884 128.667735 
L 197.117683 127.455797 
L 197.294579 128.532509 
L 197.392507 128.245689 
L 197.46208 126.771887 
L 197.736182 129.86817 
L 197.810184 130.756903 
L 197.959978 128.253165 
L 198.029574 128.330918 
L 198.183291 129.693418 
L 198.254121 128.709757 
L 198.390107 129.427225 
L 198.509246 129.036038 
L 198.530454 128.20433 
L 198.613287 128.582226 
L 198.683595 129.293885 
L 198.802816 127.599134 
L 198.887879 128.661364 
L 198.95701 128.402729 
L 199.096649 127.353827 
L 199.163722 128.62461 
L 199.300394 128.308504 
L 199.524519 126.017606 
L 199.697384 124.704758 
L 199.755551 125.142123 
L 199.799934 124.812259 
L 199.958127 123.570009 
L 200.112224 124.803281 
L 200.163404 124.620729 
L 200.316229 125.643726 
L 200.379358 126.472849 
L 200.45574 125.864923 
L 200.662251 127.53348 
L 200.740352 127.152907 
L 200.873549 127.829377 
L 201.02913 127.145082 
L 201.080993 128.418651 
L 201.173583 128.382488 
L 201.371438 129.051157 
L 201.491758 128.839724 
L 201.577477 129.671154 
L 201.663586 129.603976 
L 201.785361 128.011859 
L 202.013442 129.764448 
L 202.082685 129.063395 
L 202.145334 129.119582 
L 202.232033 128.948809 
L 202.291517 127.984189 
L 202.560244 130.400216 
L 202.593953 129.418443 
L 202.732426 127.27243 
L 202.783776 127.743598 
L 202.938472 126.675364 
L 202.956002 127.674094 
L 203.008554 126.954025 
L 203.213658 124.487542 
L 203.505972 126.816881 
L 203.788859 129.784349 
L 203.937941 130.512154 
L 204.074965 129.196502 
L 204.143798 130.011228 
L 204.351342 126.431497 
L 204.527801 127.790289 
L 204.660594 126.420846 
L 204.729716 127.25886 
L 204.781606 126.943809 
L 204.960686 125.037596 
L 204.973752 125.681841 
L 205.130501 126.230287 
L 205.2686 124.247302 
L 205.336293 124.538898 
L 205.559749 122.854226 
L 205.628635 123.067201 
L 205.697332 123.314656 
L 205.81742 122.646967 
L 205.851332 121.662819 
L 206.057252 123.444389 
L 206.213302 122.836226 
L 206.263806 124.369384 
L 206.351398 124.173032 
L 206.419053 123.532698 
L 206.59127 124.444973 
L 206.693992 123.680753 
L 206.762066 123.640906 
L 207.072766 127.728919 
L 207.183566 127.72581 
L 207.226239 127.610934 
L 207.471876 130.280608 
L 207.571333 129.781117 
L 207.621584 129.98784 
L 207.810398 128.246443 
L 207.864881 128.452185 
L 207.983586 129.519201 
L 208.035976 129.071015 
L 208.141775 129.433486 
L 208.361671 126.614244 
L 208.398141 129.148411 
L 208.518289 129.486046 
L 208.541271 129.992852 
L 208.761767 127.458183 
L 208.826464 128.452152 
L 208.896718 128.30045 
L 208.964465 128.314404 
L 209.034455 128.920211 
L 209.139875 128.262347 
L 209.267305 125.762234 
L 209.464372 126.982768 
L 209.599145 125.14892 
L 209.683323 126.551245 
L 209.752137 126.390105 
L 209.823543 126.112083 
L 209.83752 127.546236 
L 209.907544 127.504242 
L 210.028563 128.1147 
L 210.095214 127.771697 
L 210.182899 126.328227 
L 210.253444 126.161643 
L 210.318929 127.628682 
L 210.404426 126.86396 
L 211.024744 131.023525 
L 211.384771 127.49042 
L 211.488618 127.746453 
L 211.593779 125.901841 
L 211.694523 126.868693 
L 211.782751 125.974057 
L 211.814537 126.699101 
L 212.213718 123.667733 
L 212.23099 124.390165 
L 212.288482 124.963383 
L 212.402109 123.930229 
L 212.453754 123.698768 
L 212.814414 125.917629 
L 212.883596 127.711648 
L 212.952033 127.561614 
L 213.022531 127.921315 
L 213.096023 126.223228 
L 213.159223 126.488629 
L 213.312643 126.032367 
L 213.518568 128.003504 
L 213.727088 128.664674 
L 213.829259 130.669691 
L 214.042258 129.456203 
L 214.095738 128.198183 
L 214.170259 129.307284 
L 214.179821 128.67591 
L 214.421107 125.588562 
L 214.455358 126.245364 
L 214.523833 124.896677 
L 214.646462 127.135768 
L 214.719546 126.434605 
L 214.798629 127.703684 
L 214.87596 126.993459 
L 215.165425 128.931814 
L 215.28187 129.666264 
L 215.296839 129.396357 
L 215.365004 129.233535 
L 215.436188 129.757161 
L 215.505065 129.739649 
L 215.710915 130.441138 
L 215.846331 130.207932 
L 216.003192 127.1964 
L 216.072357 127.492286 
L 216.140622 127.468153 
L 216.226468 126.90019 
L 216.283318 127.771051 
L 216.298125 127.410335 
L 216.417597 125.225449 
L 216.432545 126.09135 
L 216.54616 126.167844 
L 216.571679 125.509373 
L 216.744096 128.464821 
L 216.865358 126.781819 
L 217.602209 129.489955 
L 217.653835 129.0123 
L 217.825867 130.428396 
L 217.859658 129.928415 
L 217.913242 129.92736 
L 217.982106 130.258212 
L 218.066234 132.022988 
L 218.759536 125.608893 
L 218.770845 124.371761 
L 218.840651 125.230054 
L 218.925231 126.140838 
L 218.977253 125.22926 
L 219.286007 129.183535 
L 219.341348 128.943003 
L 219.406202 129.363031 
L 219.49304 129.345106 
L 219.669758 127.359708 
L 219.698849 128.849993 
L 219.784442 128.526346 
L 219.906994 126.375317 
L 220.196363 128.929584 
L 220.26593 128.560855 
L 220.351449 129.226393 
L 220.404097 129.009839 
L 220.470734 127.646929 
L 220.581171 128.725599 
L 220.904123 125.740591 
L 220.974449 127.367593 
L 221.042993 127.007168 
L 221.112425 126.443805 
L 221.223496 127.734009 
L 221.25503 126.965186 
L 221.404498 127.536189 
L 221.472796 126.73214 
L 221.612046 127.79835 
L 221.681086 126.400585 
L 221.766433 127.307583 
L 221.834431 126.763815 
L 221.955149 126.784537 
L 222.132048 127.68499 
L 222.215495 127.585424 
L 222.45607 125.522745 
L 222.540108 126.604895 
L 222.608359 126.388061 
L 222.693775 126.459387 
L 222.769864 126.732887 
L 222.815438 125.110478 
L 222.886934 125.726213 
L 222.970799 125.870997 
L 223.038917 125.219632 
L 223.124833 125.745111 
L 223.176252 127.262365 
L 223.243848 127.243918 
L 223.834131 132.81124 
L 223.968507 130.44029 
L 224.193844 128.12203 
L 224.277357 129.226767 
L 224.312314 128.715271 
L 224.586642 123.248096 
L 224.723283 124.797905 
L 224.77521 124.19381 
L 224.809371 124.044608 
L 224.882912 124.075725 
L 224.958885 122.863321 
L 225.017919 123.52331 
L 225.447026 130.183379 
L 225.531097 129.883419 
L 225.617753 129.900815 
L 225.670237 131.256605 
L 225.72251 129.444579 
L 225.738256 130.437823 
L 225.806365 130.941839 
L 226.035403 129.613985 
L 226.171138 130.106637 
L 226.186018 128.617965 
L 226.241305 129.407886 
L 226.293664 129.961189 
L 226.375271 127.63164 
L 226.444535 128.299899 
L 226.625861 127.209254 
L 226.744319 128.283398 
L 226.933383 127.373295 
L 227.021221 126.627027 
L 227.088168 127.498982 
L 227.233128 127.103541 
L 227.30031 127.258304 
L 227.417784 126.081663 
L 227.500328 128.149042 
L 227.603726 128.035818 
L 227.776746 126.761935 
L 227.81118 126.727612 
L 227.863232 127.67887 
L 228.002233 126.490854 
L 228.120145 126.441773 
L 228.257598 123.770871 
L 228.360244 123.713321 
L 228.665914 125.926947 
L 228.790657 124.844404 
L 229.070104 127.02084 
L 229.220815 125.23205 
L 229.499665 129.113477 
L 229.599288 127.894489 
L 229.650251 127.955024 
L 229.856846 131.006774 
L 229.924936 130.652662 
L 230.13542 129.529604 
L 230.219285 129.721817 
L 230.286303 129.810181 
L 230.492588 128.005884 
L 230.715989 126.230224 
L 230.731738 126.336633 
L 230.784282 127.046779 
L 230.835407 126.999261 
L 230.989775 126.656164 
L 231.076316 126.645288 
L 231.127641 126.826218 
L 231.196392 126.441818 
L 231.26522 127.021259 
L 231.350713 127.009521 
L 231.625571 124.906796 
L 231.711632 124.623234 
L 231.762843 124.886348 
L 231.888086 124.813762 
L 231.987173 125.718406 
L 232.242828 127.007189 
L 232.261998 126.735094 
L 232.330688 127.098642 
L 232.415591 128.693574 
L 232.483559 127.968075 
L 232.553975 127.867199 
L 232.694405 128.920634 
L 232.934252 127.715628 
L 233.071933 128.320403 
L 233.123063 127.355447 
L 233.295136 129.725075 
L 233.347853 129.652462 
L 233.432954 128.51506 
L 233.469747 129.432311 
L 233.554572 129.574081 
L 233.707934 129.12596 
L 233.967042 126.498981 
L 234.001324 126.822961 
L 234.052493 126.530799 
L 234.24117 126.042819 
L 234.465148 128.369735 
L 234.604863 129.167228 
L 234.688076 128.355209 
L 234.756834 128.616351 
L 234.895607 129.609091 
L 234.964567 129.332798 
L 235.169329 127.684531 
L 235.51119 128.995973 
L 235.665573 125.199542 
L 235.733934 125.066972 
L 235.905627 127.723055 
L 235.957699 128.138016 
L 236.187368 126.756908 
L 236.387307 130.629238 
L 236.541018 129.991168 
L 236.609904 129.965149 
L 236.733008 128.140742 
L 236.95451 129.436772 
L 237.331743 126.262541 
L 237.418938 127.494755 
L 237.45191 126.886297 
L 237.550684 126.042774 
L 237.590723 126.209956 
L 237.663818 126.600664 
L 237.773446 125.676895 
L 237.809066 124.38449 
L 237.824476 126.440679 
L 237.88265 126.582798 
L 237.950444 126.097021 
L 238.025144 126.407647 
L 238.086087 126.216924 
L 238.172538 127.941188 
L 238.224338 127.421655 
L 238.395207 125.593616 
L 238.55079 129.637321 
L 238.587333 127.425849 
L 238.774247 129.039654 
L 238.80756 128.302897 
L 239.013951 129.917693 
L 239.157322 129.685117 
L 239.2225 128.635194 
L 239.288612 129.114586 
L 239.376562 129.312067 
L 239.650583 126.253522 
L 239.718797 125.937632 
L 239.803299 126.561491 
L 240.078525 123.80265 
L 240.22225 125.98016 
L 240.285095 125.671036 
L 240.373371 125.54189 
L 240.508992 126.283874 
L 240.71395 127.356097 
L 240.92097 126.291332 
L 241.14298 127.404768 
L 241.282268 126.977077 
L 241.504309 128.067373 
L 241.574515 127.543176 
L 241.643775 127.745968 
L 241.779504 129.316344 
L 241.918729 127.182653 
L 241.986757 128.146026 
L 242.212304 126.612746 
L 242.348063 128.91684 
L 242.436848 127.881599 
L 242.519948 128.126099 
L 242.624669 129.913042 
L 242.708315 129.282203 
L 242.795386 129.902698 
L 242.847286 131.484886 
L 242.949285 131.251658 
L 243.057011 129.347161 
L 243.139016 129.78082 
L 243.344913 128.349841 
L 243.413196 129.35019 
L 243.494004 129.050477 
L 243.500217 126.262656 
L 243.567986 128.061831 
L 243.657763 127.932958 
L 243.843047 127.43939 
L 243.979799 127.271807 
L 244.065478 128.824545 
L 244.117971 128.551949 
L 244.272555 127.710265 
L 244.426997 128.678805 
L 244.548464 126.55867 
L 244.666972 126.934412 
L 244.907206 124.100023 
L 244.960095 125.030585 
L 244.993591 124.154436 
L 245.114817 123.595361 
L 245.285265 125.771921 
L 245.33717 125.334176 
L 245.47755 126.661332 
L 245.553097 125.976058 
L 245.613111 126.212203 
L 245.683453 126.424076 
L 245.766757 127.661707 
L 245.904503 127.465956 
L 245.96234 128.445671 
L 245.994815 127.23485 
L 246.042863 127.575575 
L 246.164265 126.450202 
L 246.197556 126.739838 
L 246.272824 127.043931 
L 246.497168 125.166988 
L 246.678918 126.279342 
L 246.800125 125.935714 
L 246.818137 126.093687 
L 247.039476 124.790971 
L 247.109356 124.801354 
L 247.332184 123.755412 
L 247.469909 126.004426 
L 247.555933 126.378778 
L 247.675933 129.056956 
L 247.899079 131.959515 
L 248.020075 131.858117 
L 248.174063 128.79996 
L 248.192442 128.986588 
L 248.26021 129.455363 
L 248.465902 127.009952 
L 248.53473 127.133618 
L 248.614397 126.6851 
L 248.689077 125.217599 
L 248.707246 125.401652 
L 248.828864 128.881345 
L 248.8801 128.478988 
L 248.964521 126.699273 
L 249.033173 127.487304 
L 249.256983 126.06495 
L 249.308806 126.772662 
L 249.376896 126.187494 
L 249.618177 123.447355 
L 249.669429 125.314343 
L 249.738206 124.359067 
L 250.171033 129.24311 
L 250.307499 129.815743 
L 250.394029 128.640221 
L 250.496142 129.731564 
L 250.599128 127.916762 
L 250.756771 126.031389 
L 250.877502 124.925297 
L 250.944451 125.474773 
L 251.167638 123.788976 
L 251.3736 127.567559 
L 251.512798 127.97438 
L 251.753234 125.160311 
L 251.872271 126.620529 
L 252.077893 124.935003 
L 252.147547 126.051935 
L 252.215276 125.450402 
L 252.299083 125.698088 
L 252.367046 125.631847 
L 252.573824 128.801155 
L 252.727383 127.246036 
L 253.069881 131.473929 
L 253.138774 130.906183 
L 253.29293 130.062833 
L 253.361614 130.18567 
L 253.501667 131.024601 
L 253.636939 128.356386 
L 253.706457 128.695862 
L 253.77775 127.281447 
L 253.860868 127.335816 
L 253.997197 126.531555 
L 254.067779 127.4179 
L 254.134818 127.058809 
L 254.205922 125.268068 
L 254.274816 125.291945 
L 254.496145 126.167697 
L 254.704298 125.056434 
L 254.87988 124.857541 
L 255.062704 126.85207 
L 255.131448 125.92472 
L 255.200355 126.251636 
L 255.440813 128.055357 
L 255.492787 127.660752 
L 255.561456 127.924176 
L 255.665948 128.451102 
L 255.770817 126.435303 
L 255.853042 127.071441 
L 256.0432 125.605693 
L 256.094075 124.22442 
L 256.14508 124.801166 
L 256.231977 124.806959 
L 256.351491 126.565462 
L 256.472913 126.915383 
L 256.643967 126.629196 
L 256.792533 128.926953 
L 256.832881 128.919867 
L 256.927294 129.046048 
L 257.031064 128.101844 
L 257.064599 129.248108 
L 257.150892 129.066818 
L 257.408384 131.501536 
L 257.476746 132.143124 
L 257.769677 127.76224 
L 257.837768 128.742024 
L 257.923338 128.580387 
L 258.06171 127.405117 
L 258.198092 126.015891 
L 258.369609 127.493705 
L 258.507437 128.847227 
L 258.558971 127.621423 
L 258.696916 128.530375 
L 258.765678 127.97286 
L 258.835312 128.445127 
L 259.040326 128.072334 
L 259.194872 125.989286 
L 259.264487 127.091576 
L 259.468954 123.840016 
L 259.545077 124.631602 
L 259.615086 124.338391 
L 259.718669 125.186287 
L 259.754605 124.573589 
L 259.895332 124.983425 
L 259.975489 123.435858 
L 260.182208 125.132494 
L 260.286696 124.682379 
L 260.357782 124.885969 
L 260.406186 124.079354 
L 260.457481 124.410252 
L 260.787675 128.041565 
L 260.818719 127.349858 
L 260.887129 128.978729 
L 261.042349 128.533693 
L 261.18081 131.419566 
L 261.286317 130.990144 
L 261.404206 129.899246 
L 261.462424 127.866212 
L 261.525903 129.044532 
L 261.593678 127.934294 
L 261.714396 128.619105 
L 261.91442 126.841393 
L 262.229996 128.682568 
L 262.247114 128.216287 
L 262.52349 130.99776 
L 262.593143 130.515395 
L 262.677823 130.598914 
L 262.875704 130.139549 
L 263.124562 128.572982 
L 263.176772 128.973779 
L 263.316829 126.93822 
L 263.383105 127.254301 
L 263.68579 130.176159 
L 263.88582 128.933227 
L 264.023674 129.347884 
L 264.17573 127.671903 
L 264.295925 127.010722 
L 264.369653 126.048827 
L 264.519307 126.518105 
L 264.60614 127.145504 
L 264.743043 126.451561 
L 264.796192 127.442557 
L 264.917543 127.194218 
L 265.224334 129.000775 
L 265.297135 129.1151 
L 265.37904 128.867899 
L 265.588313 129.90565 
L 265.671664 129.780702 
L 265.774442 129.946742 
L 265.860422 127.706894 
L 265.932797 128.607976 
L 265.999353 127.802792 
L 266.083958 129.573961 
L 266.242299 127.226062 
L 266.291718 127.24878 
L 266.445966 124.964675 
L 266.497049 125.653387 
L 266.600248 126.002244 
L 266.668652 124.55219 
L 266.723745 125.088074 
L 266.807551 125.289916 
L 266.88035 126.696047 
L 267.063986 124.899467 
L 267.235293 127.259951 
L 267.529841 128.732167 
L 267.618818 127.017193 
L 267.699888 127.544323 
L 267.802444 127.332781 
L 267.853679 128.280247 
L 267.923371 127.181576 
L 268.016623 127.400247 
L 268.066027 128.019047 
L 268.133703 126.905037 
L 268.490914 129.527529 
L 268.576137 127.743836 
L 268.708646 128.190467 
L 268.716196 128.620856 
L 268.782491 127.525011 
L 268.959934 128.110867 
L 269.057666 127.05211 
L 269.125902 127.120232 
L 269.417844 124.366424 
L 269.487007 124.837217 
L 269.555509 125.67839 
L 269.627041 124.742232 
L 269.850534 127.804151 
L 270.041033 126.731857 
L 270.053905 126.836096 
L 270.208858 130.21405 
L 270.294868 130.195109 
L 270.34575 130.431541 
L 270.431759 129.541847 
L 270.55447 126.033796 
L 270.688948 126.473435 
L 270.77535 128.602078 
L 271.144597 123.420582 
L 271.228142 123.538772 
L 271.332257 122.424382 
L 271.469385 120.23017 
L 271.605438 120.739884 
L 271.829976 124.496811 
L 271.883161 123.892909 
L 272.162518 129.235585 
L 272.414607 126.522513 
L 272.56899 128.278291 
L 272.678431 127.705314 
L 272.815023 125.138766 
L 272.904373 126.868374 
L 273.003615 126.728755 
L 273.106882 128.579965 
L 273.253626 128.514678 
L 273.313137 128.489062 
L 273.479693 131.243151 
L 273.711021 130.404318 
L 273.847191 128.030436 
L 273.847322 124.410144 
L 273.905216 126.68803 
L 273.967652 126.773818 
L 274.053385 126.632332 
L 274.122471 126.752926 
L 274.329109 124.8197 
L 274.440101 124.290346 
L 274.467689 125.840607 
L 274.538238 125.717131 
L 274.810274 125.692162 
L 274.87978 124.726359 
L 274.915758 125.524212 
L 274.989057 125.461045 
L 275.119261 125.941777 
L 275.251545 127.093125 
L 275.445593 126.430783 
L 275.532676 127.668747 
L 275.600737 127.192986 
L 275.669037 127.183963 
L 275.807764 126.751824 
L 275.960475 124.752296 
L 276.039178 125.577301 
L 276.098922 125.262548 
L 276.264675 124.273534 
L 276.37864 122.74413 
L 276.460299 122.8767 
L 276.567891 124.029 
L 276.632039 123.81931 
L 276.806196 123.030343 
L 276.940292 123.656815 
L 277.060983 123.3802 
L 277.232324 121.459099 
L 277.421383 123.568662 
L 277.438886 123.112277 
L 277.510034 123.68232 
L 277.684641 123.809697 
L 277.93797 127.68137 
L 278.109764 126.282313 
L 278.29824 127.930928 
L 278.401561 128.29895 
L 278.663214 126.253359 
L 278.788766 128.543809 
L 278.882011 128.689906 
L 279.036623 127.997422 
L 279.294959 129.320636 
L 279.363254 130.921863 
L 279.431449 130.287652 
L 279.586936 131.269295 
L 279.646624 131.440821 
L 279.792932 130.169416 
L 279.930154 130.981478 
L 280.345208 124.09424 
L 280.425592 124.210351 
L 280.583358 125.736565 
L 280.695598 125.111371 
L 280.858561 127.900044 
L 280.94433 128.370514 
L 281.064924 131.173301 
L 281.168545 130.937854 
L 281.340245 129.170333 
L 281.426571 129.772552 
L 281.529338 129.634548 
L 281.599517 130.067939 
L 281.635874 129.910449 
L 281.855699 127.95314 
L 281.943468 127.998111 
L 282.009899 127.660403 
L 282.130616 128.061603 
L 282.337312 125.651589 
L 282.439894 126.89616 
L 282.491162 125.788289 
L 282.578791 126.823854 
L 282.628467 126.460402 
L 282.714721 126.420115 
L 282.768457 127.205761 
L 282.851708 126.247804 
L 282.925118 126.965071 
L 283.025332 126.852737 
L 283.092276 127.661011 
L 283.160969 126.52169 
L 283.229978 126.974833 
L 283.281476 126.624387 
L 283.350105 127.204285 
L 283.417333 126.74767 
L 283.505093 127.178486 
L 283.624991 128.804336 
L 283.750921 128.593568 
L 283.83382 127.734611 
L 283.985966 128.853005 
L 284.201114 127.079216 
L 284.261177 126.792851 
L 284.329339 125.886644 
L 284.501661 127.137073 
L 284.55272 129.280229 
L 284.638201 128.372865 
L 284.7107 127.487194 
L 284.75988 127.721552 
L 284.89619 127.247799 
L 285.274791 123.702476 
L 285.325959 123.765495 
L 285.729022 126.945961 
L 285.832365 128.932926 
L 285.973613 128.543798 
L 286.195915 129.832439 
L 286.283164 129.29304 
L 286.32357 128.297019 
L 286.539899 130.237559 
L 286.609879 130.217734 
L 286.816486 129.515935 
L 286.969656 131.21049 
L 287.023225 130.991436 
L 287.313178 128.643946 
L 287.382031 129.133134 
L 287.60445 127.18119 
L 287.813821 127.058027 
L 287.953563 125.048415 
L 288.172487 126.300343 
L 288.241014 125.180596 
L 288.311 125.575132 
L 288.396085 124.624496 
L 288.586915 126.65104 
L 288.671317 127.051149 
L 288.743708 125.662578 
L 288.947283 126.157898 
L 289.103123 125.678777 
L 289.446466 127.941194 
L 289.51543 127.108203 
L 289.583688 127.455464 
L 289.653795 127.490391 
L 289.727811 127.015566 
L 289.864857 127.734805 
L 290.013737 126.742526 
L 290.082667 127.260351 
L 290.099766 128.247593 
L 290.15219 126.812239 
L 290.303488 128.889043 
L 290.444342 130.643484 
L 290.513007 129.986454 
L 290.599046 129.873567 
L 290.666932 129.342218 
L 290.718727 129.377215 
L 290.994549 129.475479 
L 291.080081 129.287374 
L 291.199665 128.619531 
L 291.460852 132.407045 
L 291.561255 131.6438 
L 291.646378 132.148246 
L 291.732009 129.741552 
L 291.869262 130.747138 
L 292.145462 127.481753 
L 292.231645 127.802498 
L 292.314576 127.765046 
L 292.348972 127.788416 
L 292.420492 127.458011 
L 292.487242 125.701173 
L 292.573757 125.803031 
L 292.642733 126.48645 
L 292.712147 125.061524 
L 292.830599 125.303012 
L 292.865613 126.268025 
L 292.950735 126.091751 
L 293.209179 127.35025 
L 293.382067 125.822548 
L 293.451501 126.138005 
L 293.693414 126.664289 
L 293.827206 125.867331 
L 294.072143 129.083235 
L 294.137227 128.934017 
L 294.205836 128.966009 
L 294.312163 127.893674 
L 294.483888 129.316516 
L 294.642065 127.627684 
L 294.776505 128.484576 
L 294.876757 128.059445 
L 295.030015 129.46317 
L 295.069792 128.667777 
L 295.142316 129.600193 
L 295.202454 128.623865 
L 295.305124 129.173807 
L 295.339193 130.147144 
L 295.408891 129.343469 
L 295.564076 127.79096 
L 295.63331 129.242798 
L 295.7354 126.959506 
L 295.786323 128.013985 
L 295.975669 125.852887 
L 296.062807 125.79564 
L 296.183376 127.647214 
L 296.269288 126.592138 
L 296.338486 126.929096 
L 296.404142 127.484547 
L 296.542089 126.25901 
L 296.627377 126.473325 
L 296.683947 127.559598 
L 296.765318 126.905158 
L 296.834366 126.958168 
L 296.922549 126.863965 
L 297.143923 128.32977 
L 297.280963 127.138847 
L 297.561685 125.053538 
L 297.702946 125.226677 
L 297.827138 123.052514 
L 297.95337 123.422187 
L 297.969679 125.885511 
L 298.056032 125.022695 
L 298.109519 125.752999 
L 298.192332 125.631938 
L 298.364274 125.270586 
L 298.608768 127.278134 
L 298.707937 126.833647 
L 298.965701 128.46583 
L 299.412094 124.824558 
L 299.464178 125.665568 
L 299.533174 125.310649 
L 299.756856 123.702344 
L 299.876851 123.784219 
L 300.031332 125.138216 
L 300.100763 126.595232 
L 300.239042 125.133615 
L 300.324648 126.903965 
L 300.376654 126.364338 
L 300.531152 126.909904 
L 300.873426 122.359062 
L 300.979188 124.515814 
L 301.030648 123.703045 
L 301.102401 124.316335 
L 301.240402 124.257894 
L 301.38044 125.788454 
L 301.445861 127.312884 
L 301.531712 127.106784 
L 301.682998 125.691873 
L 301.78958 125.430532 
L 301.878271 125.670146 
L 302.168756 122.692426 
L 302.378149 124.92021 
L 302.460205 126.03874 
L 302.563864 124.448621 
L 302.610373 124.886436 
L 302.723725 126.215711 
L 302.803253 125.514548 
L 302.947175 126.213803 
L 303.147574 123.303514 
L 303.232848 122.879035 
L 303.379119 123.796215 
L 303.464769 123.992475 
L 303.877433 127.655948 
L 303.964843 127.781439 
L 304.017933 126.557436 
L 304.113311 126.815026 
L 304.359628 123.490445 
L 304.582758 125.256712 
L 304.651167 126.151838 
L 304.789169 125.177232 
L 304.857276 125.56288 
L 304.961324 125.190917 
L 305.012277 126.770291 
L 305.067702 126.608987 
L 305.217847 124.62156 
L 305.28636 124.973759 
L 305.39627 124.30748 
L 305.52874 126.493288 
L 305.717669 124.48951 
L 305.820781 124.726333 
L 305.882756 126.601334 
L 305.939721 126.561239 
L 306.009725 125.564325 
L 306.082177 127.108374 
L 306.302348 125.647079 
L 306.372022 125.162627 
L 306.49143 125.353637 
L 306.611937 125.825976 
L 306.645673 125.044879 
L 306.701952 126.138465 
L 306.749244 126.031524 
L 306.783285 124.827798 
L 306.877653 126.033954 
L 306.924264 125.465174 
L 307.059904 125.861986 
L 307.180706 126.932607 
L 307.272023 126.615287 
L 307.404243 126.708424 
L 307.438716 126.153059 
L 307.611295 126.882353 
L 307.678632 125.66461 
L 307.713474 126.379375 
L 307.752877 126.363052 
L 307.78196 125.165685 
L 307.853328 125.821153 
L 308.023104 125.012269 
L 308.074469 126.372567 
L 308.144902 124.795001 
L 308.194286 125.07919 
L 308.430586 127.822359 
L 308.509257 127.249532 
L 308.575628 128.10029 
L 308.917712 125.672485 
L 309.106659 122.635623 
L 309.123125 123.188913 
" clip-path="url(#p912450a785)" style="fill: none; stroke: #ff0000; stroke-opacity: 0.5; stroke-width: 3; stroke-linecap: square"/>
   </g>
   <g id="patch_3">
    <path d="M 30.123125 139.32 
L 30.123125 0.72 
" style="fill: none; stroke: #000000; stroke-width: 0.8; stroke-linejoin: miter; stroke-linecap: square"/>
   </g>
   <g id="patch_4">
    <path d="M 309.123125 139.32 
L 309.123125 0.72 
" style="fill: none; stroke: #000000; stroke-width: 0.8; stroke-linejoin: miter; stroke-linecap: square"/>
   </g>
   <g id="patch_5">
    <path d="M 30.123125 139.32 
L 309.123125 139.32 
" style="fill: none; stroke: #000000; stroke-width: 0.8; stroke-linejoin: miter; stroke-linecap: square"/>
   </g>
   <g id="patch_6">
    <path d="M 30.123125 0.72 
L 309.123125 0.72 
" style="fill: none; stroke: #000000; stroke-width: 0.8; stroke-linejoin: miter; stroke-linecap: square"/>
   </g>
   <g id="legend_1">
    <g id="patch_7">
     <path d="M 228.354375 86.198125 
L 302.123125 86.198125 
Q 304.123125 86.198125 304.123125 84.198125 
L 304.123125 55.841875 
Q 304.123125 53.841875 302.123125 53.841875 
L 228.354375 53.841875 
Q 226.354375 53.841875 226.354375 55.841875 
L 226.354375 84.198125 
Q 226.354375 86.198125 228.354375 86.198125 
z
" style="fill: #ffffff; opacity: 0.8; stroke: #cccccc; stroke-linejoin: miter"/>
    </g>
    <g id="line2d_23">
     <path d="M 230.354375 61.940312 
L 240.354375 61.940312 
L 250.354375 61.940312 
" style="fill: none; stroke: #0000ff; stroke-opacity: 0.5; stroke-width: 3; stroke-linecap: square"/>
    </g>
    <g id="text_13">
     <!-- RNEA -->
     <g transform="translate(258.354375 65.440312) scale(0.1 -0.1)">
      <defs>
       <path id="DejaVuSans-52" d="M 2841 2188 
Q 3044 2119 3236 1894 
Q 3428 1669 3622 1275 
L 4263 0 
L 3584 0 
L 2988 1197 
Q 2756 1666 2539 1819 
Q 2322 1972 1947 1972 
L 1259 1972 
L 1259 0 
L 628 0 
L 628 4666 
L 2053 4666 
Q 2853 4666 3247 4331 
Q 3641 3997 3641 3322 
Q 3641 2881 3436 2590 
Q 3231 2300 2841 2188 
z
M 1259 4147 
L 1259 2491 
L 2053 2491 
Q 2509 2491 2742 2702 
Q 2975 2913 2975 3322 
Q 2975 3731 2742 3939 
Q 2509 4147 2053 4147 
L 1259 4147 
z
" transform="scale(0.015625)"/>
       <path id="DejaVuSans-45" d="M 628 4666 
L 3578 4666 
L 3578 4134 
L 1259 4134 
L 1259 2753 
L 3481 2753 
L 3481 2222 
L 1259 2222 
L 1259 531 
L 3634 531 
L 3634 0 
L 628 0 
L 628 4666 
z
" transform="scale(0.015625)"/>
       <path id="DejaVuSans-41" d="M 2188 4044 
L 1331 1722 
L 3047 1722 
L 2188 4044 
z
M 1831 4666 
L 2547 4666 
L 4325 0 
L 3669 0 
L 3244 1197 
L 1141 1197 
L 716 0 
L 50 0 
L 1831 4666 
z
" transform="scale(0.015625)"/>
      </defs>
      <use xlink:href="#DejaVuSans-52"/>
      <use xlink:href="#DejaVuSans-4e" x="69.482422"/>
      <use xlink:href="#DejaVuSans-45" x="144.287109"/>
      <use xlink:href="#DejaVuSans-41" x="207.470703"/>
     </g>
    </g>
    <g id="line2d_24">
     <path d="M 230.354375 76.618437 
L 240.354375 76.618437 
L 250.354375 76.618437 
" style="fill: none; stroke: #ff0000; stroke-opacity: 0.5; stroke-width: 3; stroke-linecap: square"/>
    </g>
    <g id="text_14">
     <!-- BURNEA -->
     <g transform="translate(258.354375 80.118437) scale(0.1 -0.1)">
      <defs>
       <path id="DejaVuSans-42" d="M 1259 2228 
L 1259 519 
L 2272 519 
Q 2781 519 3026 730 
Q 3272 941 3272 1375 
Q 3272 1813 3026 2020 
Q 2781 2228 2272 2228 
L 1259 2228 
z
M 1259 4147 
L 1259 2741 
L 2194 2741 
Q 2656 2741 2882 2914 
Q 3109 3088 3109 3444 
Q 3109 3797 2882 3972 
Q 2656 4147 2194 4147 
L 1259 4147 
z
M 628 4666 
L 2241 4666 
Q 2963 4666 3353 4366 
Q 3744 4066 3744 3513 
Q 3744 3084 3544 2831 
Q 3344 2578 2956 2516 
Q 3422 2416 3680 2098 
Q 3938 1781 3938 1306 
Q 3938 681 3513 340 
Q 3088 0 2303 0 
L 628 0 
L 628 4666 
z
" transform="scale(0.015625)"/>
       <path id="DejaVuSans-55" d="M 556 4666 
L 1191 4666 
L 1191 1831 
Q 1191 1081 1462 751 
Q 1734 422 2344 422 
Q 2950 422 3222 751 
Q 3494 1081 3494 1831 
L 3494 4666 
L 4128 4666 
L 4128 1753 
Q 4128 841 3676 375 
Q 3225 -91 2344 -91 
Q 1459 -91 1007 375 
Q 556 841 556 1753 
L 556 4666 
z
" transform="scale(0.015625)"/>
      </defs>
      <use xlink:href="#DejaVuSans-42"/>
      <use xlink:href="#DejaVuSans-55" x="68.603516"/>
      <use xlink:href="#DejaVuSans-52" x="141.796875"/>
      <use xlink:href="#DejaVuSans-4e" x="211.279297"/>
      <use xlink:href="#DejaVuSans-45" x="286.083984"/>
      <use xlink:href="#DejaVuSans-41" x="349.267578"/>
     </g>
    </g>
   </g>
  </g>
 </g>
 <defs>
  <clipPath id="p912450a785">
   <rect x="30.123125" y="0.72" width="279" height="138.6"/>
  </clipPath>
 </defs>
</svg>
