<?xml version="1.0" encoding="utf-8" standalone="no"?>
<!DOCTYPE svg PUBLIC "-//W3C//DTD SVG 1.1//EN"
  "http://www.w3.org/Graphics/SVG/1.1/DTD/svg11.dtd">
<svg xmlns:xlink="http://www.w3.org/1999/xlink" width="303.480625pt" height="166.39625pt" viewBox="0 0 303.480625 166.39625" xmlns="http://www.w3.org/2000/svg" version="1.1">
 <metadata>
  <rdf:RDF xmlns:dc="http://purl.org/dc/elements/1.1/" xmlns:cc="http://creativecommons.org/ns#" xmlns:rdf="http://www.w3.org/1999/02/22-rdf-syntax-ns#">
   <cc:Work>
    <dc:type rdf:resource="http://purl.org/dc/dcmitype/StillImage"/>
    <dc:date>2023-09-07T03:31:12.934324</dc:date>
    <dc:format>image/svg+xml</dc:format>
    <dc:creator>
     <cc:Agent>
      <dc:title>Matplotlib v3.7.2, https://matplotlib.org/</dc:title>
     </cc:Agent>
    </dc:creator>
   </cc:Work>
  </rdf:RDF>
 </metadata>
 <defs>
  <style type="text/css">*{stroke-linejoin: round; stroke-linecap: butt}</style>
 </defs>
 <g id="figure_1">
  <g id="patch_1">
   <path d="M 0 166.39625 
L 303.480625 166.39625 
L 303.480625 0 
L 0 0 
L 0 166.39625 
z
" style="fill: none"/>
  </g>
  <g id="axes_1">
   <g id="patch_2">
    <path d="M 23.760625 139.32 
L 302.760625 139.32 
L 302.760625 0.72 
L 23.760625 0.72 
L 23.760625 139.32 
z
" style="fill: none"/>
   </g>
   <g id="matplotlib.axis_1">
    <g id="xtick_1">
     <g id="line2d_1">
      <path d="M 23.760625 139.32 
L 23.760625 0.72 
" clip-path="url(#pe661e4b1ef)" style="fill: none; stroke-dasharray: 0.8,1.32; stroke-dashoffset: 0; stroke: #000000; stroke-opacity: 0.5; stroke-width: 0.8"/>
     </g>
     <g id="line2d_2">
      <defs>
       <path id="m014b0bc757" d="M 0 0 
L 0 3.5 
" style="stroke: #000000; stroke-width: 0.8"/>
      </defs>
      <g>
       <use xlink:href="#m014b0bc757" x="23.760625" y="139.32" style="stroke: #000000; stroke-width: 0.8"/>
      </g>
     </g>
     <g id="text_1">
      <!-- 0 -->
      <g transform="translate(20.579375 153.918437) scale(0.1 -0.1)">
       <defs>
        <path id="DejaVuSans-30" d="M 2034 4250 
Q 1547 4250 1301 3770 
Q 1056 3291 1056 2328 
Q 1056 1369 1301 889 
Q 1547 409 2034 409 
Q 2525 409 2770 889 
Q 3016 1369 3016 2328 
Q 3016 3291 2770 3770 
Q 2525 4250 2034 4250 
z
M 2034 4750 
Q 2819 4750 3233 4129 
Q 3647 3509 3647 2328 
Q 3647 1150 3233 529 
Q 2819 -91 2034 -91 
Q 1250 -91 836 529 
Q 422 1150 422 2328 
Q 422 3509 836 4129 
Q 1250 4750 2034 4750 
z
" transform="scale(0.015625)"/>
       </defs>
       <use xlink:href="#DejaVuSans-30"/>
      </g>
     </g>
    </g>
    <g id="xtick_2">
     <g id="line2d_3">
      <path d="M 66.375526 139.32 
L 66.375526 0.72 
" clip-path="url(#pe661e4b1ef)" style="fill: none; stroke-dasharray: 0.8,1.32; stroke-dashoffset: 0; stroke: #000000; stroke-opacity: 0.5; stroke-width: 0.8"/>
     </g>
     <g id="line2d_4">
      <g>
       <use xlink:href="#m014b0bc757" x="66.375526" y="139.32" style="stroke: #000000; stroke-width: 0.8"/>
      </g>
     </g>
     <g id="text_2">
      <!-- 5 -->
      <g transform="translate(63.194276 153.918437) scale(0.1 -0.1)">
       <defs>
        <path id="DejaVuSans-35" d="M 691 4666 
L 3169 4666 
L 3169 4134 
L 1269 4134 
L 1269 2991 
Q 1406 3038 1543 3061 
Q 1681 3084 1819 3084 
Q 2600 3084 3056 2656 
Q 3513 2228 3513 1497 
Q 3513 744 3044 326 
Q 2575 -91 1722 -91 
Q 1428 -91 1123 -41 
Q 819 9 494 109 
L 494 744 
Q 775 591 1075 516 
Q 1375 441 1709 441 
Q 2250 441 2565 725 
Q 2881 1009 2881 1497 
Q 2881 1984 2565 2268 
Q 2250 2553 1709 2553 
Q 1456 2553 1204 2497 
Q 953 2441 691 2322 
L 691 4666 
z
" transform="scale(0.015625)"/>
       </defs>
       <use xlink:href="#DejaVuSans-35"/>
      </g>
     </g>
    </g>
    <g id="xtick_3">
     <g id="line2d_5">
      <path d="M 108.990426 139.32 
L 108.990426 0.72 
" clip-path="url(#pe661e4b1ef)" style="fill: none; stroke-dasharray: 0.8,1.32; stroke-dashoffset: 0; stroke: #000000; stroke-opacity: 0.5; stroke-width: 0.8"/>
     </g>
     <g id="line2d_6">
      <g>
       <use xlink:href="#m014b0bc757" x="108.990426" y="139.32" style="stroke: #000000; stroke-width: 0.8"/>
      </g>
     </g>
     <g id="text_3">
      <!-- 10 -->
      <g transform="translate(102.627926 153.918437) scale(0.1 -0.1)">
       <defs>
        <path id="DejaVuSans-31" d="M 794 531 
L 1825 531 
L 1825 4091 
L 703 3866 
L 703 4441 
L 1819 4666 
L 2450 4666 
L 2450 531 
L 3481 531 
L 3481 0 
L 794 0 
L 794 531 
z
" transform="scale(0.015625)"/>
       </defs>
       <use xlink:href="#DejaVuSans-31"/>
       <use xlink:href="#DejaVuSans-30" x="63.623047"/>
      </g>
     </g>
    </g>
    <g id="xtick_4">
     <g id="line2d_7">
      <path d="M 151.605327 139.32 
L 151.605327 0.72 
" clip-path="url(#pe661e4b1ef)" style="fill: none; stroke-dasharray: 0.8,1.32; stroke-dashoffset: 0; stroke: #000000; stroke-opacity: 0.5; stroke-width: 0.8"/>
     </g>
     <g id="line2d_8">
      <g>
       <use xlink:href="#m014b0bc757" x="151.605327" y="139.32" style="stroke: #000000; stroke-width: 0.8"/>
      </g>
     </g>
     <g id="text_4">
      <!-- 15 -->
      <g transform="translate(145.242827 153.918437) scale(0.1 -0.1)">
       <use xlink:href="#DejaVuSans-31"/>
       <use xlink:href="#DejaVuSans-35" x="63.623047"/>
      </g>
     </g>
    </g>
    <g id="xtick_5">
     <g id="line2d_9">
      <path d="M 194.220227 139.32 
L 194.220227 0.72 
" clip-path="url(#pe661e4b1ef)" style="fill: none; stroke-dasharray: 0.8,1.32; stroke-dashoffset: 0; stroke: #000000; stroke-opacity: 0.5; stroke-width: 0.8"/>
     </g>
     <g id="line2d_10">
      <g>
       <use xlink:href="#m014b0bc757" x="194.220227" y="139.32" style="stroke: #000000; stroke-width: 0.8"/>
      </g>
     </g>
     <g id="text_5">
      <!-- 20 -->
      <g transform="translate(187.857727 153.918437) scale(0.1 -0.1)">
       <defs>
        <path id="DejaVuSans-32" d="M 1228 531 
L 3431 531 
L 3431 0 
L 469 0 
L 469 531 
Q 828 903 1448 1529 
Q 2069 2156 2228 2338 
Q 2531 2678 2651 2914 
Q 2772 3150 2772 3378 
Q 2772 3750 2511 3984 
Q 2250 4219 1831 4219 
Q 1534 4219 1204 4116 
Q 875 4013 500 3803 
L 500 4441 
Q 881 4594 1212 4672 
Q 1544 4750 1819 4750 
Q 2544 4750 2975 4387 
Q 3406 4025 3406 3419 
Q 3406 3131 3298 2873 
Q 3191 2616 2906 2266 
Q 2828 2175 2409 1742 
Q 1991 1309 1228 531 
z
" transform="scale(0.015625)"/>
       </defs>
       <use xlink:href="#DejaVuSans-32"/>
       <use xlink:href="#DejaVuSans-30" x="63.623047"/>
      </g>
     </g>
    </g>
    <g id="xtick_6">
     <g id="line2d_11">
      <path d="M 236.835128 139.32 
L 236.835128 0.72 
" clip-path="url(#pe661e4b1ef)" style="fill: none; stroke-dasharray: 0.8,1.32; stroke-dashoffset: 0; stroke: #000000; stroke-opacity: 0.5; stroke-width: 0.8"/>
     </g>
     <g id="line2d_12">
      <g>
       <use xlink:href="#m014b0bc757" x="236.835128" y="139.32" style="stroke: #000000; stroke-width: 0.8"/>
      </g>
     </g>
     <g id="text_6">
      <!-- 25 -->
      <g transform="translate(230.472628 153.918437) scale(0.1 -0.1)">
       <use xlink:href="#DejaVuSans-32"/>
       <use xlink:href="#DejaVuSans-35" x="63.623047"/>
      </g>
     </g>
    </g>
    <g id="xtick_7">
     <g id="line2d_13">
      <path d="M 279.450028 139.32 
L 279.450028 0.72 
" clip-path="url(#pe661e4b1ef)" style="fill: none; stroke-dasharray: 0.8,1.32; stroke-dashoffset: 0; stroke: #000000; stroke-opacity: 0.5; stroke-width: 0.8"/>
     </g>
     <g id="line2d_14">
      <g>
       <use xlink:href="#m014b0bc757" x="279.450028" y="139.32" style="stroke: #000000; stroke-width: 0.8"/>
      </g>
     </g>
     <g id="text_7">
      <!-- 30 -->
      <g transform="translate(273.087528 153.918437) scale(0.1 -0.1)">
       <defs>
        <path id="DejaVuSans-33" d="M 2597 2516 
Q 3050 2419 3304 2112 
Q 3559 1806 3559 1356 
Q 3559 666 3084 287 
Q 2609 -91 1734 -91 
Q 1441 -91 1130 -33 
Q 819 25 488 141 
L 488 750 
Q 750 597 1062 519 
Q 1375 441 1716 441 
Q 2309 441 2620 675 
Q 2931 909 2931 1356 
Q 2931 1769 2642 2001 
Q 2353 2234 1838 2234 
L 1294 2234 
L 1294 2753 
L 1863 2753 
Q 2328 2753 2575 2939 
Q 2822 3125 2822 3475 
Q 2822 3834 2567 4026 
Q 2313 4219 1838 4219 
Q 1578 4219 1281 4162 
Q 984 4106 628 3988 
L 628 4550 
Q 988 4650 1302 4700 
Q 1616 4750 1894 4750 
Q 2613 4750 3031 4423 
Q 3450 4097 3450 3541 
Q 3450 3153 3228 2886 
Q 3006 2619 2597 2516 
z
" transform="scale(0.015625)"/>
       </defs>
       <use xlink:href="#DejaVuSans-33"/>
       <use xlink:href="#DejaVuSans-30" x="63.623047"/>
      </g>
     </g>
    </g>
    <g id="text_8">
     <!-- Zeit [s] -->
     <g transform="translate(145.314531 163.596562) scale(0.1 -0.1)">
      <defs>
       <path id="DejaVuSans-5a" d="M 359 4666 
L 4025 4666 
L 4025 4184 
L 1075 531 
L 4097 531 
L 4097 0 
L 288 0 
L 288 481 
L 3238 4134 
L 359 4134 
L 359 4666 
z
" transform="scale(0.015625)"/>
       <path id="DejaVuSans-65" d="M 3597 1894 
L 3597 1613 
L 953 1613 
Q 991 1019 1311 708 
Q 1631 397 2203 397 
Q 2534 397 2845 478 
Q 3156 559 3463 722 
L 3463 178 
Q 3153 47 2828 -22 
Q 2503 -91 2169 -91 
Q 1331 -91 842 396 
Q 353 884 353 1716 
Q 353 2575 817 3079 
Q 1281 3584 2069 3584 
Q 2775 3584 3186 3129 
Q 3597 2675 3597 1894 
z
M 3022 2063 
Q 3016 2534 2758 2815 
Q 2500 3097 2075 3097 
Q 1594 3097 1305 2825 
Q 1016 2553 972 2059 
L 3022 2063 
z
" transform="scale(0.015625)"/>
       <path id="DejaVuSans-69" d="M 603 3500 
L 1178 3500 
L 1178 0 
L 603 0 
L 603 3500 
z
M 603 4863 
L 1178 4863 
L 1178 4134 
L 603 4134 
L 603 4863 
z
" transform="scale(0.015625)"/>
       <path id="DejaVuSans-74" d="M 1172 4494 
L 1172 3500 
L 2356 3500 
L 2356 3053 
L 1172 3053 
L 1172 1153 
Q 1172 725 1289 603 
Q 1406 481 1766 481 
L 2356 481 
L 2356 0 
L 1766 0 
Q 1100 0 847 248 
Q 594 497 594 1153 
L 594 3053 
L 172 3053 
L 172 3500 
L 594 3500 
L 594 4494 
L 1172 4494 
z
" transform="scale(0.015625)"/>
       <path id="DejaVuSans-20" transform="scale(0.015625)"/>
       <path id="DejaVuSans-5b" d="M 550 4863 
L 1875 4863 
L 1875 4416 
L 1125 4416 
L 1125 -397 
L 1875 -397 
L 1875 -844 
L 550 -844 
L 550 4863 
z
" transform="scale(0.015625)"/>
       <path id="DejaVuSans-73" d="M 2834 3397 
L 2834 2853 
Q 2591 2978 2328 3040 
Q 2066 3103 1784 3103 
Q 1356 3103 1142 2972 
Q 928 2841 928 2578 
Q 928 2378 1081 2264 
Q 1234 2150 1697 2047 
L 1894 2003 
Q 2506 1872 2764 1633 
Q 3022 1394 3022 966 
Q 3022 478 2636 193 
Q 2250 -91 1575 -91 
Q 1294 -91 989 -36 
Q 684 19 347 128 
L 347 722 
Q 666 556 975 473 
Q 1284 391 1588 391 
Q 1994 391 2212 530 
Q 2431 669 2431 922 
Q 2431 1156 2273 1281 
Q 2116 1406 1581 1522 
L 1381 1569 
Q 847 1681 609 1914 
Q 372 2147 372 2553 
Q 372 3047 722 3315 
Q 1072 3584 1716 3584 
Q 2034 3584 2315 3537 
Q 2597 3491 2834 3397 
z
" transform="scale(0.015625)"/>
       <path id="DejaVuSans-5d" d="M 1947 4863 
L 1947 -844 
L 622 -844 
L 622 -397 
L 1369 -397 
L 1369 4416 
L 622 4416 
L 622 4863 
L 1947 4863 
z
" transform="scale(0.015625)"/>
      </defs>
      <use xlink:href="#DejaVuSans-5a"/>
      <use xlink:href="#DejaVuSans-65" x="68.505859"/>
      <use xlink:href="#DejaVuSans-69" x="130.029297"/>
      <use xlink:href="#DejaVuSans-74" x="157.8125"/>
      <use xlink:href="#DejaVuSans-20" x="197.021484"/>
      <use xlink:href="#DejaVuSans-5b" x="228.808594"/>
      <use xlink:href="#DejaVuSans-73" x="267.822266"/>
      <use xlink:href="#DejaVuSans-5d" x="319.921875"/>
     </g>
    </g>
   </g>
   <g id="matplotlib.axis_2">
    <g id="ytick_1">
     <g id="line2d_15">
      <path d="M 23.760625 134.133603 
L 302.760625 134.133603 
" clip-path="url(#pe661e4b1ef)" style="fill: none; stroke-dasharray: 0.8,1.32; stroke-dashoffset: 0; stroke: #000000; stroke-opacity: 0.5; stroke-width: 0.8"/>
     </g>
     <g id="line2d_16">
      <defs>
       <path id="mf6c95ac9a6" d="M 0 0 
L -3.5 0 
" style="stroke: #000000; stroke-width: 0.8"/>
      </defs>
      <g>
       <use xlink:href="#mf6c95ac9a6" x="23.760625" y="134.133603" style="stroke: #000000; stroke-width: 0.8"/>
      </g>
     </g>
     <g id="text_9">
      <!-- 0 -->
      <g transform="translate(10.398125 137.932821) scale(0.1 -0.1)">
       <use xlink:href="#DejaVuSans-30"/>
      </g>
     </g>
    </g>
    <g id="ytick_2">
     <g id="line2d_17">
      <path d="M 23.760625 98.692119 
L 302.760625 98.692119 
" clip-path="url(#pe661e4b1ef)" style="fill: none; stroke-dasharray: 0.8,1.32; stroke-dashoffset: 0; stroke: #000000; stroke-opacity: 0.5; stroke-width: 0.8"/>
     </g>
     <g id="line2d_18">
      <g>
       <use xlink:href="#mf6c95ac9a6" x="23.760625" y="98.692119" style="stroke: #000000; stroke-width: 0.8"/>
      </g>
     </g>
     <g id="text_10">
      <!-- 2 -->
      <g transform="translate(10.398125 102.491338) scale(0.1 -0.1)">
       <use xlink:href="#DejaVuSans-32"/>
      </g>
     </g>
    </g>
    <g id="ytick_3">
     <g id="line2d_19">
      <path d="M 23.760625 63.250635 
L 302.760625 63.250635 
" clip-path="url(#pe661e4b1ef)" style="fill: none; stroke-dasharray: 0.8,1.32; stroke-dashoffset: 0; stroke: #000000; stroke-opacity: 0.5; stroke-width: 0.8"/>
     </g>
     <g id="line2d_20">
      <g>
       <use xlink:href="#mf6c95ac9a6" x="23.760625" y="63.250635" style="stroke: #000000; stroke-width: 0.8"/>
      </g>
     </g>
     <g id="text_11">
      <!-- 4 -->
      <g transform="translate(10.398125 67.049854) scale(0.1 -0.1)">
       <defs>
        <path id="DejaVuSans-34" d="M 2419 4116 
L 825 1625 
L 2419 1625 
L 2419 4116 
z
M 2253 4666 
L 3047 4666 
L 3047 1625 
L 3713 1625 
L 3713 1100 
L 3047 1100 
L 3047 0 
L 2419 0 
L 2419 1100 
L 313 1100 
L 313 1709 
L 2253 4666 
z
" transform="scale(0.015625)"/>
       </defs>
       <use xlink:href="#DejaVuSans-34"/>
      </g>
     </g>
    </g>
    <g id="ytick_4">
     <g id="line2d_21">
      <path d="M 23.760625 27.809151 
L 302.760625 27.809151 
" clip-path="url(#pe661e4b1ef)" style="fill: none; stroke-dasharray: 0.8,1.32; stroke-dashoffset: 0; stroke: #000000; stroke-opacity: 0.5; stroke-width: 0.8"/>
     </g>
     <g id="line2d_22">
      <g>
       <use xlink:href="#mf6c95ac9a6" x="23.760625" y="27.809151" style="stroke: #000000; stroke-width: 0.8"/>
      </g>
     </g>
     <g id="text_12">
      <!-- 6 -->
      <g transform="translate(10.398125 31.60837) scale(0.1 -0.1)">
       <defs>
        <path id="DejaVuSans-36" d="M 2113 2584 
Q 1688 2584 1439 2293 
Q 1191 2003 1191 1497 
Q 1191 994 1439 701 
Q 1688 409 2113 409 
Q 2538 409 2786 701 
Q 3034 994 3034 1497 
Q 3034 2003 2786 2293 
Q 2538 2584 2113 2584 
z
M 3366 4563 
L 3366 3988 
Q 3128 4100 2886 4159 
Q 2644 4219 2406 4219 
Q 1781 4219 1451 3797 
Q 1122 3375 1075 2522 
Q 1259 2794 1537 2939 
Q 1816 3084 2150 3084 
Q 2853 3084 3261 2657 
Q 3669 2231 3669 1497 
Q 3669 778 3244 343 
Q 2819 -91 2113 -91 
Q 1303 -91 875 529 
Q 447 1150 447 2328 
Q 447 3434 972 4092 
Q 1497 4750 2381 4750 
Q 2619 4750 2861 4703 
Q 3103 4656 3366 4563 
z
" transform="scale(0.015625)"/>
       </defs>
       <use xlink:href="#DejaVuSans-36"/>
      </g>
     </g>
    </g>
    <g id="text_13">
     <!-- Kraft [N] -->
     <g transform="translate(8.318438 91.2825) rotate(-90) scale(0.1 -0.1)">
      <defs>
       <path id="DejaVuSans-4b" d="M 628 4666 
L 1259 4666 
L 1259 2694 
L 3353 4666 
L 4166 4666 
L 1850 2491 
L 4331 0 
L 3500 0 
L 1259 2247 
L 1259 0 
L 628 0 
L 628 4666 
z
" transform="scale(0.015625)"/>
       <path id="DejaVuSans-72" d="M 2631 2963 
Q 2534 3019 2420 3045 
Q 2306 3072 2169 3072 
Q 1681 3072 1420 2755 
Q 1159 2438 1159 1844 
L 1159 0 
L 581 0 
L 581 3500 
L 1159 3500 
L 1159 2956 
Q 1341 3275 1631 3429 
Q 1922 3584 2338 3584 
Q 2397 3584 2469 3576 
Q 2541 3569 2628 3553 
L 2631 2963 
z
" transform="scale(0.015625)"/>
       <path id="DejaVuSans-61" d="M 2194 1759 
Q 1497 1759 1228 1600 
Q 959 1441 959 1056 
Q 959 750 1161 570 
Q 1363 391 1709 391 
Q 2188 391 2477 730 
Q 2766 1069 2766 1631 
L 2766 1759 
L 2194 1759 
z
M 3341 1997 
L 3341 0 
L 2766 0 
L 2766 531 
Q 2569 213 2275 61 
Q 1981 -91 1556 -91 
Q 1019 -91 701 211 
Q 384 513 384 1019 
Q 384 1609 779 1909 
Q 1175 2209 1959 2209 
L 2766 2209 
L 2766 2266 
Q 2766 2663 2505 2880 
Q 2244 3097 1772 3097 
Q 1472 3097 1187 3025 
Q 903 2953 641 2809 
L 641 3341 
Q 956 3463 1253 3523 
Q 1550 3584 1831 3584 
Q 2591 3584 2966 3190 
Q 3341 2797 3341 1997 
z
" transform="scale(0.015625)"/>
       <path id="DejaVuSans-66" d="M 2375 4863 
L 2375 4384 
L 1825 4384 
Q 1516 4384 1395 4259 
Q 1275 4134 1275 3809 
L 1275 3500 
L 2222 3500 
L 2222 3053 
L 1275 3053 
L 1275 0 
L 697 0 
L 697 3053 
L 147 3053 
L 147 3500 
L 697 3500 
L 697 3744 
Q 697 4328 969 4595 
Q 1241 4863 1831 4863 
L 2375 4863 
z
" transform="scale(0.015625)"/>
       <path id="DejaVuSans-4e" d="M 628 4666 
L 1478 4666 
L 3547 763 
L 3547 4666 
L 4159 4666 
L 4159 0 
L 3309 0 
L 1241 3903 
L 1241 0 
L 628 0 
L 628 4666 
z
" transform="scale(0.015625)"/>
      </defs>
      <use xlink:href="#DejaVuSans-4b"/>
      <use xlink:href="#DejaVuSans-72" x="65.576172"/>
      <use xlink:href="#DejaVuSans-61" x="106.689453"/>
      <use xlink:href="#DejaVuSans-66" x="167.96875"/>
      <use xlink:href="#DejaVuSans-74" x="201.423828"/>
      <use xlink:href="#DejaVuSans-20" x="240.632812"/>
      <use xlink:href="#DejaVuSans-5b" x="272.419922"/>
      <use xlink:href="#DejaVuSans-4e" x="311.433594"/>
      <use xlink:href="#DejaVuSans-5d" x="386.238281"/>
     </g>
    </g>
   </g>
   <g id="line2d_23">
    <path d="M 23.760625 134.163166 
L 24.245513 134.136897 
L 24.6217 134.162869 
L 25.17113 134.153082 
L 26.101572 134.1545 
L 26.446288 134.146312 
L 27.084072 134.155138 
L 29.145849 134.164287 
L 29.644092 134.16611 
L 31.983278 134.1531 
L 32.55386 134.155501 
L 33.927624 134.155121 
L 34.085451 134.147923 
L 35.260935 134.158092 
L 37.024971 134.15427 
L 37.608443 134.160008 
L 38.948559 134.148172 
L 39.54985 134.166001 
L 39.687331 134.162224 
L 41.933694 134.154902 
L 42.866307 134.175795 
L 43.138372 134.160591 
L 45.891043 134.156501 
L 53.230855 134.160885 
L 56.914219 134.163142 
L 57.596836 134.151048 
L 58.201922 134.167696 
L 60.285909 134.153907 
L 60.747476 134.158309 
L 302.760625 134.165851 
L 302.760625 134.165851 
" clip-path="url(#pe661e4b1ef)" style="fill: none; stroke: #0000ff; stroke-opacity: 0.5; stroke-width: 3; stroke-linecap: square"/>
   </g>
   <g id="line2d_24">
    <path d="M 23.760625 12.352539 
L 23.908242 12.726056 
L 23.967975 12.753079 
L 24.058954 12.104944 
L 24.074073 12.333256 
L 24.312388 13.554583 
L 24.381533 13.803934 
L 24.46825 13.090021 
L 24.6217 14.527002 
L 24.673011 14.496414 
L 24.810544 15.90454 
L 24.982884 14.078543 
L 25.053799 15.592216 
L 25.102858 15.528012 
L 25.257215 14.270122 
L 25.377297 15.832381 
L 25.446882 13.809816 
L 25.548409 13.886303 
L 25.600295 14.337316 
L 25.720287 12.626617 
L 25.825502 9.828558 
L 25.892754 10.808943 
L 25.961732 10.310847 
L 26.081839 8.978312 
L 26.167828 11.840041 
L 26.237324 9.557979 
L 26.665485 16.471921 
L 26.726393 16.21631 
L 26.734434 12.816651 
L 26.803309 14.926722 
L 26.941636 16.554862 
L 27.084072 13.59898 
L 27.155939 13.708023 
L 27.235359 14.155341 
L 27.290327 12.031128 
L 27.373262 12.574947 
L 27.510769 13.872617 
L 27.579282 13.631594 
L 27.889993 15.873311 
L 28.077886 14.488953 
L 28.145695 14.571374 
L 28.249816 13.61545 
L 28.289364 13.829213 
L 28.440376 15.662815 
L 28.50911 15.631347 
L 28.581773 14.307553 
L 28.784966 16.653782 
L 29.077135 13.942202 
L 29.145849 14.161356 
L 29.28346 17.334243 
L 29.431427 14.996854 
L 29.644092 17.489873 
L 29.713566 16.993988 
L 29.988868 12.323669 
L 30.126329 13.629221 
L 30.288101 11.520438 
L 30.350014 11.876219 
L 30.556044 15.567018 
L 30.629643 14.313777 
L 30.712662 13.269896 
L 30.779092 13.565171 
L 30.919365 12.555396 
L 30.987633 13.405082 
L 31.05603 13.123757 
L 31.193454 12.436817 
L 31.296643 10.761721 
L 31.365492 10.801127 
L 31.502779 11.579928 
L 31.554319 11.123366 
L 31.674402 14.325133 
L 31.742748 13.760378 
L 31.796411 13.419949 
L 31.91421 15.22289 
L 32.052115 16.412412 
L 32.120513 16.330772 
L 32.191501 15.839315 
L 32.279024 16.679616 
L 32.403784 15.47852 
L 32.484463 16.307489 
L 32.621367 14.802846 
L 32.902532 15.093727 
L 32.986656 15.971698 
L 33.056837 16.673855 
L 33.196431 14.20767 
L 33.332934 15.744444 
L 33.492335 13.919903 
L 33.559553 15.167531 
L 33.688092 12.692214 
L 33.780415 13.201899 
L 33.927624 16.543513 
L 33.943696 15.486898 
L 33.978495 14.814568 
L 34.148282 16.592601 
L 34.275719 14.864659 
L 34.413624 17.963925 
L 34.636328 15.545217 
L 34.705835 16.015495 
L 34.791035 15.873632 
L 34.842604 17.957162 
L 34.894261 17.551432 
L 34.98188 18.435704 
L 35.22025 15.539865 
L 35.260935 14.08312 
L 35.358006 15.46521 
L 35.44529 15.441412 
L 35.478652 13.879866 
L 35.531465 13.987872 
L 35.643814 16.069822 
L 35.695127 13.564305 
L 35.753775 14.114852 
L 35.856496 13.489973 
L 35.984409 16.854864 
L 36.045653 15.574091 
L 36.09788 15.63632 
L 36.195868 15.960595 
L 36.492629 13.627264 
L 36.596202 13.119887 
L 36.637533 13.620016 
L 36.732212 13.600706 
L 36.869205 13.192255 
L 36.887218 14.448519 
L 36.956207 14.422863 
L 37.024971 13.733058 
L 37.248019 16.386433 
L 37.608443 13.213697 
L 37.74553 12.038907 
L 37.814532 11.505626 
L 37.95123 12.488164 
L 38.039098 12.530022 
L 38.380151 15.353278 
L 38.517969 16.988946 
L 38.61669 15.987743 
L 38.656285 16.635119 
L 38.74137 17.350748 
L 38.948559 15.612331 
L 39.028719 14.613843 
L 39.086139 14.979874 
L 39.205928 16.088613 
L 39.257276 15.951336 
L 39.446154 13.710565 
L 39.54985 12.799028 
L 39.584526 12.917476 
L 39.739439 14.522632 
L 39.979415 11.093822 
L 40.031923 11.101381 
L 40.134056 10.80778 
L 40.340253 13.354126 
L 40.392154 12.831885 
L 40.490722 13.052335 
L 40.512307 12.39782 
L 40.58161 13.474558 
L 40.736093 17.400669 
L 40.841741 17.144325 
L 40.946559 15.496026 
L 41.092958 16.88372 
L 41.164726 16.518463 
L 41.285925 19.317289 
L 41.342337 19.044486 
L 41.449453 17.32658 
L 41.682609 17.691553 
L 41.700745 17.65112 
L 41.785883 17.741443 
L 42.195956 13.471739 
L 42.366525 16.757259 
L 42.503227 13.110679 
L 42.605636 13.618177 
L 42.640137 13.287369 
L 42.917381 11.958676 
L 43.000733 10.142204 
L 43.138372 6.663804 
L 43.520644 10.423226 
L 43.537055 10.11893 
L 43.727362 11.559636 
L 43.777095 10.945356 
L 44.017893 13.724256 
L 44.070412 12.758022 
L 44.139943 12.04497 
L 44.264545 12.213327 
L 44.430661 8.390266 
L 44.568425 11.527801 
L 44.791567 8.225453 
L 44.847276 8.653015 
L 44.929884 8.394321 
L 45.152522 12.807936 
L 45.515868 10.552233 
L 45.891043 10.32856 
L 46.29176 13.319497 
L 46.666315 12.877322 
L 46.681492 12.474807 
L 46.766651 14.449478 
L 46.836118 13.527893 
L 46.904568 13.414781 
L 47.161991 15.256351 
L 47.455721 11.272275 
L 47.471862 12.416437 
L 47.591809 14.207505 
L 47.78099 9.588063 
L 47.884056 9.903733 
L 48.110723 12.806797 
L 48.183681 12.442629 
L 48.400962 9.790979 
L 48.48638 11.586534 
L 48.538344 11.534782 
L 48.708576 10.548203 
L 48.898303 12.882025 
L 49.0373 14.772169 
L 49.13919 14.784035 
L 49.242874 14.305577 
L 49.413458 13.820985 
L 49.688602 10.589364 
L 49.744878 10.564493 
L 49.758207 12.49147 
L 49.822694 10.444915 
L 49.994696 11.219961 
L 50.118934 12.059292 
L 50.166415 12.204657 
L 50.235467 11.38954 
L 50.389452 12.249904 
L 50.458428 11.808451 
L 50.612664 12.194962 
L 50.682241 11.654092 
L 50.733451 12.469481 
L 50.819158 12.392656 
L 51.044118 10.399504 
L 51.128011 10.218865 
L 51.230931 11.843331 
L 51.317481 10.832675 
L 51.436989 11.119525 
L 51.455094 10.2623 
L 51.523579 11.886853 
L 51.679037 14.345207 
L 51.731676 13.892146 
L 51.815844 13.910259 
L 51.869045 13.895819 
L 51.953541 12.824821 
L 52.022533 13.310523 
L 52.0904 13.329857 
L 52.279037 10.022305 
L 52.383742 12.199358 
L 52.530163 11.969283 
L 52.614612 11.359132 
L 52.761804 13.020939 
L 52.840665 12.513565 
L 52.940164 15.639317 
L 53.00911 12.982205 
L 53.11055 13.009574 
L 53.179378 12.938889 
L 53.351129 14.926399 
L 53.507199 12.763245 
L 53.677025 11.247502 
L 53.865519 14.910664 
L 53.985376 14.422093 
L 54.004623 13.209986 
L 54.093498 13.665277 
L 54.14122 14.050076 
L 54.431712 11.060562 
L 54.500819 11.260619 
L 54.707554 10.074912 
L 54.759097 10.153835 
L 54.797042 10.087255 
L 54.999368 11.756534 
L 55.068821 11.489753 
L 55.223936 9.353868 
L 55.327701 10.123101 
L 55.446184 11.638038 
L 55.498051 11.594583 
L 55.567549 10.670629 
L 55.635489 11.922301 
L 55.772621 12.245445 
L 55.876986 10.870672 
L 56.151173 12.736412 
L 56.202053 12.049702 
L 56.59793 14.076501 
L 56.721113 14.170809 
L 56.784166 13.752629 
L 56.914219 15.504928 
L 56.996825 15.20327 
L 57.151458 14.193272 
L 57.306939 17.474242 
L 57.359178 16.415265 
L 57.596836 13.690497 
L 57.841395 18.18404 
L 57.980195 15.342622 
L 58.063965 15.439521 
L 58.132717 15.881127 
L 58.201922 17.056044 
L 58.391003 16.394254 
L 58.477369 12.8836 
L 58.597612 12.885914 
L 58.700557 15.036352 
L 58.768973 14.6981 
L 58.899751 14.802872 
L 58.976281 14.492972 
L 59.171186 16.045906 
L 59.335887 12.24188 
L 59.405826 12.425951 
L 59.546289 14.289645 
L 59.717937 11.798255 
L 59.800956 11.943714 
L 59.835287 12.699588 
L 59.974244 12.906475 
L 60.014652 13.486638 
L 60.112092 15.77414 
L 60.285909 14.122217 
L 60.421304 17.750274 
L 60.473037 17.532783 
L 60.645844 15.185926 
L 60.747476 16.355114 
L 60.764441 16.016502 
L 60.876242 15.06838 
L 61.041029 17.903741 
L 61.108813 16.868889 
L 61.263931 18.217588 
L 61.385861 16.718301 
L 61.401619 14.758933 
L 61.469787 16.533613 
L 61.538871 16.702114 
L 61.971113 13.234503 
L 62.039627 13.705146 
L 62.177126 9.978919 
L 62.263269 10.526189 
L 62.388318 12.152527 
L 62.401755 10.389232 
L 62.470737 11.623227 
L 62.626879 11.75439 
L 62.764505 9.111008 
L 62.97156 14.391457 
L 62.986188 14.200071 
L 63.106986 12.727515 
L 63.176543 12.860835 
L 63.245862 12.902084 
L 63.314786 12.376274 
L 63.487014 16.762136 
L 63.537065 15.637469 
L 63.609074 13.655213 
L 63.658264 14.090321 
L 63.780545 14.551526 
L 63.814118 13.942849 
L 64.020218 14.710245 
L 64.088679 13.664848 
L 64.105528 14.716689 
L 64.158052 14.03655 
L 64.281838 14.846826 
L 64.298735 16.212704 
L 64.387299 15.980646 
L 64.969046 12.952416 
L 65.019594 10.551211 
L 65.088548 10.848203 
L 65.295369 13.7811 
L 65.381357 13.08029 
L 65.517913 13.168812 
L 65.73071 16.623637 
L 65.801242 15.756719 
L 65.968996 12.982969 
L 66.070284 13.231197 
L 66.138853 13.74049 
L 66.154977 13.103405 
L 66.241577 13.188749 
L 66.293379 14.773621 
L 66.396719 14.402922 
L 66.533578 11.915177 
L 66.585012 12.020873 
L 66.790822 13.642939 
L 66.860637 13.808189 
L 67.006593 11.848926 
L 67.1279 12.255753 
L 67.290814 15.246721 
L 67.363481 15.318844 
L 67.428016 13.981612 
L 67.49647 14.001417 
L 67.65148 16.126954 
L 67.806883 13.717756 
L 68.03007 15.544413 
L 68.064414 14.80659 
L 68.219505 15.333375 
L 68.287384 13.989621 
L 68.390565 14.32796 
L 68.511681 16.468527 
L 68.66588 14.15905 
L 68.717875 14.41945 
L 68.795777 16.286052 
L 68.892289 16.061162 
L 68.959295 15.73557 
L 69.068783 16.807509 
L 69.56882 12.074883 
L 69.647141 14.134553 
L 69.79902 12.380598 
L 69.862928 12.726256 
L 69.873097 12.589335 
L 69.91109 11.330104 
L 70.02793 11.222411 
L 70.148892 13.566966 
L 70.216746 13.493754 
L 70.267986 11.283207 
L 70.45922 13.023392 
L 70.549447 11.505828 
L 70.701155 14.704149 
L 70.837954 11.94005 
L 70.976067 15.777826 
L 70.99279 15.344625 
L 71.131643 13.71506 
L 71.267894 16.560867 
L 71.335913 15.86877 
L 71.405271 16.060514 
L 71.54314 18.137609 
L 71.697386 15.250074 
L 71.835385 16.340394 
L 71.90208 15.913311 
L 71.975412 15.8493 
L 72.041973 15.576815 
L 72.124889 16.812487 
L 72.194543 16.39115 
L 72.332246 14.768599 
L 72.468481 15.085931 
L 72.692323 12.240861 
L 72.761731 12.369038 
L 72.89886 9.958039 
L 73.036313 12.40927 
L 73.104699 12.327364 
L 73.39811 16.187474 
L 73.535737 14.830882 
L 73.671794 17.251481 
L 73.963947 14.826496 
L 74.032977 16.516722 
L 74.110129 13.762942 
L 74.171591 14.78886 
L 74.24044 16.674683 
L 74.3099 14.47121 
L 74.412634 14.519523 
L 74.599676 16.218092 
L 74.685475 17.285951 
L 74.738315 14.800594 
L 74.813815 14.891681 
L 74.89274 14.063705 
L 74.960945 12.825028 
L 75.029716 14.18173 
L 75.100395 13.686483 
L 75.306023 11.740149 
L 75.448107 12.805787 
L 75.597791 15.506144 
L 75.747245 12.603575 
L 75.769499 12.927995 
L 75.805184 13.970596 
L 75.947264 14.634056 
L 76.033134 13.477352 
L 76.166933 13.774337 
L 76.218533 13.541288 
L 76.236242 12.703092 
L 76.306109 12.957666 
L 76.467137 14.934272 
L 76.597792 12.274097 
L 76.667003 13.784251 
L 76.770234 13.667341 
L 76.804046 12.323734 
L 76.872504 13.295857 
L 76.941701 13.696238 
L 77.01108 11.512623 
L 77.310253 13.529106 
L 77.323772 13.340364 
L 77.374708 11.849373 
L 77.548106 11.788003 
L 77.736069 13.883778 
L 77.804752 14.305472 
L 77.822048 13.242885 
L 77.993652 12.962476 
L 78.098121 15.016504 
L 78.115694 15.890087 
L 78.16809 15.522918 
L 78.255613 16.068973 
L 78.391346 13.455858 
L 78.425754 9.940771 
L 78.510699 11.746309 
L 78.580109 11.432783 
L 78.666499 11.662567 
L 78.718354 12.659226 
L 78.803414 9.113817 
L 78.975117 10.532961 
L 79.077552 11.514884 
L 79.096034 12.825393 
L 79.145872 11.27079 
L 79.215349 11.229418 
L 79.283942 12.24541 
L 79.387894 11.607083 
L 79.456673 11.756227 
L 79.543471 12.849323 
L 79.679344 10.487931 
L 79.765575 10.469688 
L 79.830964 10.936222 
L 79.852702 12.504881 
L 80.024381 10.646914 
L 80.075293 11.546677 
L 80.177877 11.482445 
L 80.211987 11.091876 
L 80.486763 12.640733 
L 80.641324 10.881996 
L 80.692564 11.047914 
L 80.883187 10.328312 
L 81.002628 11.045737 
L 81.022599 12.811147 
L 81.071427 11.326983 
L 81.140182 10.488589 
L 81.355157 12.295018 
L 81.489244 11.391493 
L 81.571671 11.679296 
L 81.714731 9.641121 
L 81.949201 12.832544 
L 81.987386 12.924648 
L 82.155286 13.87722 
L 82.295805 15.779579 
L 82.415757 16.404584 
L 82.499767 15.803774 
L 82.55206 16.408684 
L 82.69101 15.969111 
L 82.842765 18.762596 
L 82.91153 18.286773 
L 83.014783 17.264292 
L 83.087448 17.642448 
L 83.142177 17.244556 
L 83.272246 18.370547 
L 83.342827 18.090044 
L 83.448829 17.763773 
L 83.635544 14.275699 
L 83.705986 14.328818 
L 84.065995 11.036942 
L 84.151988 11.896538 
L 84.204744 13.710676 
L 84.28899 13.329463 
L 84.392291 13.771577 
L 84.428747 14.799416 
L 84.512474 14.219447 
L 84.565338 15.258628 
L 84.632809 13.567121 
L 84.718384 13.760717 
L 84.770073 13.919407 
L 84.913131 11.05173 
L 84.975878 11.14905 
L 85.114058 10.683142 
L 85.18499 11.776122 
L 85.267856 11.653558 
L 85.731819 15.440121 
L 85.835033 14.841256 
L 85.989775 13.217422 
L 86.042509 13.641435 
L 86.128186 13.034094 
L 86.198987 13.184715 
L 86.283062 13.137848 
L 86.403258 10.211405 
L 86.472174 10.252597 
L 86.618803 11.476242 
L 86.799514 10.067101 
L 86.871277 10.838756 
L 86.90228 10.565839 
L 86.970552 9.499737 
L 87.395326 16.133603 
L 87.469301 16.635388 
L 87.537792 16.500016 
L 87.606514 16.479576 
L 87.675649 17.18641 
L 87.751493 17.165317 
L 87.950913 16.17662 
L 87.970697 16.274731 
L 88.106074 13.785345 
L 88.252171 14.626976 
L 88.385552 12.548297 
L 88.449939 13.971359 
L 88.519089 13.815852 
L 88.603927 12.846826 
L 88.810651 14.796667 
L 88.955704 11.634501 
L 89.101506 15.388354 
L 89.240514 13.554855 
L 89.307822 14.656603 
L 89.377526 14.381255 
L 89.446063 13.633917 
L 89.737647 17.737408 
L 89.874912 16.199297 
L 89.947086 17.023554 
L 90.083594 15.358565 
L 90.167956 15.661693 
L 90.237557 15.809437 
L 90.511082 13.402746 
L 90.655587 15.410553 
L 90.8108 14.504723 
L 90.911099 14.448504 
L 90.942168 13.963146 
L 91.013527 15.01622 
L 91.079334 14.802941 
L 91.149726 15.025329 
L 91.3035 12.500665 
L 91.37451 12.271336 
L 91.57924 15.665686 
L 91.647726 15.116325 
L 91.71664 13.192782 
L 91.945117 15.847827 
L 92.011783 15.666894 
L 92.115755 14.18525 
L 92.228246 14.465114 
L 92.305015 13.845425 
L 92.424985 15.395809 
L 92.664321 13.58265 
L 92.785099 15.435957 
L 92.922921 15.696527 
L 93.025095 14.555554 
L 93.1449 15.237912 
L 93.215498 15.076267 
L 93.445289 15.367758 
L 93.644459 13.208789 
L 93.713019 13.772045 
L 93.799839 13.311674 
L 93.940012 14.266246 
L 93.991928 13.727231 
L 94.057069 13.806099 
L 94.14301 14.78627 
L 94.318577 12.850191 
L 94.350014 14.519321 
L 94.436906 12.879506 
L 94.573671 12.708558 
L 94.764026 11.906465 
L 94.865801 10.768993 
L 94.994 13.209077 
L 95.054249 13.029176 
L 95.12539 13.053324 
L 95.282267 12.21847 
L 95.415597 14.472529 
L 95.48462 14.144848 
L 95.724675 15.382919 
L 95.828626 15.125723 
L 95.983669 18.046975 
L 96.120793 17.438119 
L 96.207839 18.285193 
L 96.567258 12.985475 
L 96.584329 13.796882 
L 96.67059 14.202041 
L 96.693461 12.323093 
L 96.790776 12.339013 
L 96.842268 12.753779 
L 96.914101 11.647975 
L 96.980053 11.71956 
L 97.082198 11.966845 
L 97.186479 16.204114 
L 97.254613 16.188196 
L 97.4081 14.38054 
L 97.494165 14.825467 
L 97.562898 14.50708 
L 97.770938 16.132349 
L 97.90985 15.781568 
L 97.977488 15.856379 
L 98.047751 16.270465 
L 98.182932 14.985405 
L 98.286377 15.60779 
L 98.338141 15.358994 
L 98.406127 15.585491 
L 98.492187 15.489905 
L 98.561967 15.426654 
L 98.716091 12.463233 
L 98.836042 15.820131 
L 98.904966 15.211295 
L 98.973454 14.621898 
L 99.112449 14.813116 
L 99.177362 15.746609 
L 99.190558 14.545695 
L 99.291874 14.10326 
L 99.3979 17.166059 
L 99.54033 14.634601 
L 99.608294 15.612756 
L 99.90034 12.568273 
L 99.989461 14.192405 
L 100.054663 13.833722 
L 100.116134 13.630491 
L 100.261837 15.309399 
L 100.347386 13.96229 
L 100.453802 15.216706 
L 100.506641 17.333588 
L 100.539753 16.000614 
L 100.606136 15.957977 
L 100.674439 16.811314 
L 100.922461 15.437793 
L 101.002169 14.374218 
L 101.036333 14.773636 
L 101.277548 15.806269 
L 101.380974 15.270226 
L 101.549191 13.734077 
L 101.783512 18.410476 
L 101.812513 17.309367 
L 101.88303 16.63656 
L 101.949166 17.031461 
L 102.018632 16.865426 
L 102.174941 18.346954 
L 102.311573 16.540606 
L 102.38033 17.007627 
L 102.466803 14.994288 
L 102.535075 15.846704 
L 102.586504 15.584482 
L 102.760807 16.21043 
L 103.021183 12.386272 
L 103.086001 11.203383 
L 103.156882 12.607673 
L 103.242423 12.177562 
L 103.309771 12.172242 
L 103.466094 13.453964 
L 103.554052 12.525254 
L 103.58788 13.294285 
L 103.656387 13.787344 
L 103.729928 12.803776 
L 103.810664 14.451399 
L 104.019036 15.398073 
L 104.155397 11.513441 
L 104.292335 15.178045 
L 104.365006 14.961081 
L 104.448452 15.879092 
L 104.730232 12.85668 
L 104.894025 14.327768 
L 105.032929 11.714336 
L 105.223696 12.676887 
L 105.515467 14.703014 
L 105.584321 14.891385 
L 105.927257 19.987398 
L 106.236182 16.403373 
L 106.326187 16.719738 
L 106.493121 13.418269 
L 106.633949 11.05668 
L 106.798846 13.413126 
L 106.854485 12.34889 
L 106.922454 13.308953 
L 107.008832 13.271603 
L 107.078052 12.713748 
L 107.16458 12.80648 
L 107.289307 15.851943 
L 107.455185 14.794887 
L 107.575847 15.506538 
L 107.665751 15.322102 
L 107.713052 14.108903 
L 107.811186 14.39751 
L 107.903755 15.697816 
L 107.919681 15.132161 
L 108.039936 15.351433 
L 108.143558 14.232336 
L 108.419664 17.840772 
L 108.503915 17.495784 
L 108.558966 15.637607 
L 108.64183 15.700421 
L 108.763785 14.942644 
L 108.77981 15.472446 
L 108.849237 16.369721 
L 108.935449 13.957452 
L 109.123647 12.608453 
L 109.192316 13.346518 
L 109.278125 13.310655 
L 109.349272 13.366488 
L 109.415414 13.571333 
L 109.567313 14.477873 
L 109.759185 12.991385 
L 109.841599 14.196798 
L 109.911437 14.107707 
L 110.11752 12.672044 
L 110.201631 10.53821 
L 110.30425 11.240713 
L 110.356024 12.448231 
L 110.411373 11.82027 
L 110.424451 10.835211 
L 110.476792 12.394821 
L 110.650309 10.800111 
L 110.700658 12.413867 
L 110.768885 12.152796 
L 110.890098 11.999216 
L 110.923494 14.618492 
L 110.980892 13.311035 
L 111.045271 13.264141 
L 111.131529 14.315965 
L 111.202447 12.964565 
L 111.255776 13.520522 
L 111.424289 12.568169 
L 111.565105 14.65126 
L 111.631708 12.523668 
L 111.682442 13.933029 
L 111.837471 10.685411 
L 111.89476 11.566671 
L 112.010266 11.747642 
L 112.077966 12.267527 
L 112.284489 9.509709 
L 112.460306 13.601996 
L 112.543463 14.262409 
L 112.647815 14.230801 
L 112.680927 13.742304 
L 112.748972 14.154986 
L 112.818541 15.825264 
L 112.903889 15.789318 
L 113.111157 13.837273 
L 113.19795 11.909933 
L 113.38863 14.440014 
L 113.476789 16.004637 
L 113.488575 15.070101 
L 113.609472 15.15313 
L 113.660725 12.43748 
L 113.678987 14.896019 
L 113.816527 15.952422 
L 113.885196 15.554217 
L 114.005371 15.826733 
L 114.196699 13.019564 
L 114.327058 15.146772 
L 114.384563 14.083761 
L 114.555793 12.786069 
L 114.74416 15.529054 
L 114.882306 16.945003 
L 114.95095 15.399045 
L 115.019376 15.422667 
L 115.193454 17.251239 
L 115.242664 16.572588 
L 115.381554 17.610509 
L 115.518046 17.065875 
L 115.589496 17.112405 
L 115.74131 17.870039 
L 115.809936 16.829133 
L 115.880363 17.253571 
L 115.94725 17.660471 
L 116.330607 12.173271 
L 116.429605 12.997613 
L 116.583796 11.37168 
L 116.655733 11.798598 
L 116.802827 15.236981 
L 116.865776 14.950598 
L 116.944773 14.50401 
L 117.013675 15.642857 
L 117.130862 14.454397 
L 117.148841 14.650708 
L 117.320206 15.896943 
L 117.44085 13.619003 
L 117.510779 13.821865 
L 117.59506 14.188149 
L 117.66405 13.983726 
L 117.716656 12.305274 
L 117.792154 12.75845 
L 117.887335 13.1904 
L 118.034879 12.162923 
L 118.1382 15.377982 
L 118.226031 14.887696 
L 118.309516 14.362646 
L 118.464214 16.93436 
L 118.515215 16.017668 
L 118.637394 16.855913 
L 118.739554 18.19327 
L 118.862124 16.620303 
L 118.931608 16.56305 
L 119.17015 15.27388 
L 119.22188 15.725951 
L 119.277938 15.613698 
L 119.360728 15.445203 
L 119.549532 16.04897 
L 119.671371 14.174991 
L 119.82518 16.291543 
L 119.859185 17.524751 
L 119.928259 16.069522 
L 119.996481 15.340521 
L 120.13435 16.493886 
L 120.27236 15.394442 
L 120.341681 16.012357 
L 120.63316 12.476636 
L 120.739872 15.013168 
L 120.857663 12.963535 
L 121.014097 15.381532 
L 121.119787 14.520466 
L 121.166823 14.958384 
L 121.200623 15.324582 
L 121.269177 15.136639 
L 121.338847 15.259927 
L 121.440506 14.880911 
L 121.648451 11.21631 
L 121.705922 12.776901 
L 121.83658 15.632891 
L 121.906394 15.154325 
L 121.994153 16.532154 
L 122.072795 16.349325 
L 122.197563 16.761226 
L 122.635522 12.396654 
L 122.837601 9.626186 
L 122.934916 10.264892 
L 123.072106 12.656488 
L 123.125696 12.712878 
L 123.195108 11.518394 
L 123.263283 12.248899 
L 123.364923 14.539027 
L 123.401731 13.662229 
L 123.496675 14.149958 
L 123.635284 16.614441 
L 123.650114 15.573627 
L 123.705041 15.838946 
L 123.787832 15.67845 
L 123.893013 14.49225 
L 123.926176 15.442152 
L 124.046695 14.437508 
L 124.065894 12.412807 
L 124.114409 14.87786 
L 124.253266 14.161481 
L 124.32077 12.900541 
L 124.406177 13.714123 
L 124.596097 11.622176 
L 124.68231 13.818317 
L 124.750885 13.723109 
L 124.836813 13.207045 
L 124.905166 13.774302 
L 125.001393 12.640548 
L 125.18441 15.468384 
L 125.283335 18.070839 
L 125.335302 16.865332 
L 125.404067 15.257057 
L 125.55983 17.718097 
L 125.609786 17.435708 
L 125.747722 17.568334 
L 125.817127 17.126008 
L 125.952984 14.934073 
L 126.058893 14.788502 
L 126.125147 15.728733 
L 126.365581 11.840758 
L 126.559172 13.92391 
L 126.591938 13.651064 
L 126.952087 14.820783 
L 127.020606 16.332824 
L 127.380846 13.787711 
L 127.46604 13.961275 
L 127.602971 12.787133 
L 127.671065 14.592733 
L 127.794914 13.787503 
L 127.894442 15.819239 
L 127.979884 15.250055 
L 128.050329 15.749067 
L 128.168226 13.693989 
L 128.237631 15.681263 
L 128.305684 15.081962 
L 128.378114 14.703523 
L 128.391095 12.987482 
L 128.460044 15.24538 
L 128.52943 12.891324 
L 128.597531 13.601872 
L 128.752889 12.304255 
L 128.88987 15.777758 
L 128.941823 13.773822 
L 129.060016 13.507237 
L 129.096063 11.159496 
L 129.233353 11.035395 
L 129.38809 15.480159 
L 129.462486 15.424091 
L 129.512559 15.514095 
L 129.668366 15.947994 
L 129.737756 15.684266 
L 129.790354 16.308991 
L 130.287201 11.977672 
L 130.372911 12.758903 
L 130.631045 17.529755 
L 130.650545 16.536873 
L 130.871217 14.508055 
L 131.080496 16.903481 
L 131.219023 14.28165 
L 131.300845 14.092332 
L 131.378447 14.978195 
L 131.428564 17.857098 
L 131.495198 17.727811 
L 131.579184 17.95614 
L 131.854038 14.985113 
L 131.957315 15.91001 
L 131.992805 15.315968 
L 132.216033 11.413337 
L 132.285028 11.565972 
L 132.352891 11.520312 
L 132.631063 11.794251 
L 132.713795 11.475965 
L 132.991164 15.107602 
L 133.198183 12.780337 
L 133.28126 14.071828 
L 133.631082 8.859604 
L 133.695935 8.91329 
L 133.712215 5.853333 
L 133.767651 8.780695 
L 133.850102 8.960599 
L 133.937461 9.668874 
L 133.988973 8.134375 
L 134.194924 12.374274 
L 134.272187 11.098944 
L 134.41823 12.507722 
L 134.487731 12.489269 
L 134.557339 11.353359 
L 134.627163 11.364763 
L 134.69845 11.977977 
L 134.831077 10.282326 
L 134.901632 10.490193 
L 135.051445 13.226647 
L 135.189366 14.813307 
L 135.25881 14.721826 
L 135.332762 13.826766 
L 135.398622 14.548225 
L 135.469916 14.298453 
L 136.108787 9.283809 
L 136.179133 9.444396 
L 136.276567 9.797911 
L 136.330578 8.781716 
L 136.396839 9.063355 
L 136.493138 8.435186 
L 136.677867 10.28668 
L 136.74399 9.737256 
L 136.827288 10.845796 
L 136.913426 10.467933 
L 137.05123 12.964503 
L 137.188436 13.21134 
L 137.240535 13.018303 
L 137.257303 12.075899 
L 137.326455 12.509221 
L 137.481211 13.912263 
L 137.756685 11.98585 
L 137.928069 13.591804 
L 138.030526 14.857958 
L 138.100427 13.658968 
L 138.185087 13.829983 
L 138.460359 17.516944 
L 138.682916 15.485976 
L 138.751569 15.608818 
L 138.837405 16.770911 
L 138.892764 16.518952 
L 139.111875 10.739091 
L 139.180922 10.786033 
L 139.300821 9.643839 
L 139.404365 11.920956 
L 139.45607 10.603875 
L 139.66487 10.352968 
L 139.679603 11.069698 
L 139.748319 10.434105 
L 139.953514 15.123025 
L 140.023257 14.57287 
L 140.097051 13.874508 
L 140.160487 15.863257 
L 140.277188 14.926886 
L 140.299546 15.670845 
L 140.400559 15.592225 
L 140.527905 16.200302 
L 140.607036 14.767101 
L 140.761414 13.678678 
L 140.864745 14.042744 
L 140.88216 12.925819 
L 140.958712 13.255388 
L 141.042523 12.83781 
L 141.23184 15.206525 
L 141.312379 15.362763 
L 141.386318 15.153052 
L 141.454325 16.147111 
L 141.627429 14.553054 
L 141.677727 14.645953 
L 141.798074 13.912335 
L 142.11273 12.374246 
L 142.232447 13.390605 
L 142.302616 12.987069 
L 142.39167 12.302683 
L 142.438913 12.476801 
L 142.526195 13.822425 
L 142.593131 13.763994 
L 142.834369 14.234093 
L 142.869448 12.975933 
L 142.93712 13.240336 
L 143.09125 15.015144 
L 143.178197 15.280379 
L 143.232761 13.981348 
L 143.298548 15.159131 
L 143.367277 13.92141 
L 143.584384 15.290102 
L 143.657954 13.950855 
L 143.724992 13.980067 
L 143.876626 13.730185 
L 143.945541 14.624821 
L 144.065646 13.543955 
L 144.099781 14.813735 
L 144.154883 13.587656 
L 144.2043 12.869428 
L 144.289487 13.394284 
L 144.392067 15.354903 
L 144.425991 14.924145 
L 144.512429 14.40535 
L 144.580904 14.692134 
L 144.821169 13.389983 
L 144.855913 13.738638 
L 144.994928 11.743785 
L 145.079467 10.147518 
L 145.14834 10.159399 
L 145.21655 12.046988 
L 145.425298 9.734933 
L 145.526495 9.176398 
L 145.577149 7.806129 
L 145.62991 8.637628 
L 145.715103 8.589242 
L 145.785996 8.808939 
L 145.921274 6.898925 
L 146.07407 9.720577 
L 146.286291 11.9826 
L 146.402218 11.924727 
L 146.626981 16.730059 
L 146.695377 15.652081 
L 146.763598 16.092767 
L 146.849252 15.542579 
L 146.918654 16.122061 
L 146.989497 15.202763 
L 147.094435 15.423478 
L 147.125176 15.320905 
L 147.416978 12.771272 
L 147.576203 13.389419 
L 147.760735 12.303228 
L 147.778587 13.337599 
L 147.845982 12.899893 
L 147.917788 12.481743 
L 148.054549 11.040702 
L 148.122359 11.286486 
L 148.276209 10.703924 
L 148.413874 13.042339 
L 148.482706 13.209538 
L 148.551357 12.094984 
L 148.829226 16.174797 
L 148.901454 15.687264 
L 148.980426 16.462706 
L 149.187124 14.965973 
L 149.25575 15.825827 
L 149.548938 12.000977 
L 149.686634 9.621688 
L 149.825504 9.640567 
L 149.892611 10.338106 
L 149.928368 9.787425 
L 150.031326 10.302957 
L 150.394214 15.268779 
L 150.463817 14.759974 
L 150.607665 14.964792 
L 150.759753 17.344153 
L 150.873264 17.788382 
L 150.958877 16.540058 
L 151.185089 20.55434 
L 151.26879 20.379951 
L 151.475167 18.101262 
L 151.528091 17.534998 
L 151.681406 17.225026 
L 151.887753 10.099965 
L 151.956898 10.567604 
L 152.094894 10.538843 
L 152.116493 13.520912 
L 152.208229 10.171254 
L 152.276302 10.950487 
L 152.523098 14.516528 
L 152.711369 13.695016 
L 152.831098 13.114176 
L 152.901547 15.019593 
L 152.989232 14.914855 
L 153.020705 14.882705 
L 153.089538 14.343159 
L 153.313451 16.283983 
L 153.382021 16.317388 
L 153.553606 17.461288 
L 153.862074 15.044269 
L 153.879177 15.229743 
L 154.019025 16.790324 
L 154.092863 15.461072 
L 154.226797 15.379681 
L 154.294435 14.711779 
L 154.465566 16.346478 
L 154.535325 16.264038 
L 154.584761 14.673498 
L 154.735774 13.734565 
L 154.741536 12.351724 
L 154.80892 13.083895 
L 154.877581 13.459999 
L 154.946802 12.931167 
L 155.039647 10.67312 
L 155.104275 10.825678 
L 155.187355 10.277932 
L 155.307891 10.802196 
L 155.446951 13.954743 
L 155.515868 14.559452 
L 155.600491 13.059292 
L 155.687685 13.479702 
L 155.758738 15.967155 
L 155.791417 15.554356 
L 155.876155 15.281941 
L 156.236903 11.132255 
L 156.289368 11.878679 
L 156.442699 10.313736 
L 156.546563 10.484127 
L 156.614824 10.835292 
L 156.842932 13.204095 
L 156.872412 13.43849 
L 156.941376 12.793886 
L 157.216307 13.8194 
L 157.2856 13.697343 
L 157.422378 15.089013 
L 157.492503 14.950853 
L 157.577335 14.34003 
L 157.73143 17.343291 
L 157.785463 16.839642 
L 157.90314 18.630591 
L 158.148794 17.076191 
L 158.213112 15.950789 
L 158.333174 16.944127 
L 158.470829 13.921339 
L 158.508139 13.946133 
L 158.727894 11.900977 
L 158.780253 11.977535 
L 158.847575 10.585221 
L 159.057037 12.981725 
L 159.13317 12.71255 
L 159.271432 11.488717 
L 159.351921 13.331894 
L 159.512118 11.60297 
L 159.561393 13.267436 
L 159.67398 13.302508 
L 159.715787 11.382143 
L 159.835545 11.407557 
L 159.941678 13.771164 
L 160.079288 14.191446 
L 160.288094 16.375309 
L 160.339995 15.736516 
L 160.407176 16.974397 
L 160.474198 16.646134 
L 160.559203 16.389786 
L 160.826175 14.588543 
L 160.921814 12.188874 
L 160.997745 11.611554 
L 161.193347 12.495856 
L 161.276048 10.709878 
L 161.341317 11.49202 
L 161.47814 10.867221 
L 161.551126 11.487067 
L 161.633016 11.229447 
L 161.68745 11.405311 
L 161.770083 10.185273 
L 161.839576 10.573074 
L 161.925167 10.612639 
L 162.133898 13.640757 
L 162.250839 13.26836 
L 162.331349 13.955527 
L 162.407285 13.883287 
L 162.543011 13.897205 
L 162.612437 12.922768 
L 162.749893 9.202841 
L 162.835322 8.233223 
L 162.903557 9.328009 
L 162.972275 9.247593 
L 163.044257 9.24863 
L 163.10951 9.027303 
L 163.183035 10.65344 
L 163.249976 10.6279 
L 163.390462 12.61063 
L 163.459106 13.242594 
L 163.956377 9.008547 
L 164.040796 9.389967 
L 164.109538 9.19061 
L 164.179112 8.8156 
L 164.247997 10.261422 
L 164.316562 10.229934 
L 164.413572 10.092794 
L 164.530285 12.888206 
L 164.607727 11.860453 
L 164.678295 11.91997 
L 164.745979 12.17712 
L 164.968666 14.779907 
L 165.106809 15.437923 
L 165.24338 13.618449 
L 165.453669 16.066519 
L 165.518491 14.80339 
L 165.590054 15.08394 
L 165.674837 14.005412 
L 165.741954 14.547311 
L 165.810692 13.877245 
L 165.947992 15.712928 
L 166.292342 11.223168 
L 166.446808 11.765883 
L 166.6531 9.50554 
L 166.806307 10.834996 
L 166.88664 10.136227 
L 166.949401 10.87235 
L 167.029562 10.548101 
L 167.167116 9.221697 
L 167.310499 11.359949 
L 167.374752 11.2946 
L 167.443019 10.692898 
L 167.804501 15.390307 
L 167.926948 14.879803 
L 168.010889 14.499389 
L 168.096715 14.75334 
L 168.148975 14.708161 
L 168.285813 13.976078 
L 168.375636 14.348665 
L 168.510776 13.756655 
L 168.640821 14.00882 
L 168.667095 13.849137 
L 168.721669 13.546489 
L 168.879853 14.707942 
L 169.10809 12.744541 
L 169.215308 13.032645 
L 169.314088 12.693919 
L 169.436955 13.557569 
L 169.5722 13.136379 
L 169.640962 13.469987 
L 169.728764 12.010906 
L 169.784723 12.596036 
L 170.001444 15.722845 
L 170.228716 14.147132 
L 170.294615 14.847682 
L 170.44843 14.870976 
L 170.483113 17.047641 
L 170.509537 15.873024 
L 170.586373 15.682794 
L 170.708235 12.264572 
L 170.792355 12.533776 
L 170.933949 12.877876 
L 171.07766 10.135888 
L 171.257828 10.762438 
L 171.297609 8.745384 
L 171.360721 10.393295 
L 171.412278 9.825546 
L 171.723553 11.520953 
L 171.776146 12.83932 
L 171.847189 11.417918 
L 171.919433 11.515967 
L 172.055088 12.690083 
L 172.132044 12.103509 
L 172.279807 14.726353 
L 172.483069 13.373931 
L 172.585536 14.093676 
L 173.067259 9.666061 
L 173.122294 10.172934 
L 173.272675 8.859434 
L 173.4799 12.019787 
L 173.668012 11.260014 
L 173.7717 13.894458 
L 173.882566 14.752559 
L 173.964374 14.287938 
L 174.136357 15.617611 
L 174.23865 14.598953 
L 174.300498 15.026644 
L 174.32504 15.689927 
L 174.550119 13.277155 
L 174.710152 15.349298 
L 174.858378 14.183435 
L 174.979483 15.504614 
L 175.134367 13.556641 
L 175.202951 14.184367 
L 175.254268 15.931857 
L 175.425793 14.176816 
L 175.560574 14.541182 
L 175.614825 14.183637 
L 175.684195 12.096333 
L 175.751892 12.654531 
L 175.820837 14.199534 
L 175.889521 13.883495 
L 175.964462 13.570865 
L 176.113015 14.403904 
L 176.254072 12.869247 
L 176.396897 13.256686 
L 176.466468 15.537747 
L 176.541845 15.297118 
L 176.782898 12.911975 
L 176.917851 12.968089 
L 177.041138 15.705887 
L 177.264466 13.131648 
L 177.401812 13.547405 
L 177.522458 12.099045 
L 177.608544 12.528934 
L 177.797843 10.825544 
L 177.866515 11.122305 
L 178.038649 10.302471 
L 178.125646 10.539228 
L 178.210302 12.166606 
L 178.245326 11.290555 
L 178.312448 10.225587 
L 178.4508 11.751143 
L 178.536171 11.251761 
L 178.673369 14.494394 
L 178.741555 14.072356 
L 178.86432 14.943802 
L 178.949038 13.510269 
L 179.000031 13.538551 
L 179.223459 14.967213 
L 179.379477 13.359155 
L 179.446367 14.027022 
L 179.517213 12.829783 
L 179.755187 13.552653 
L 179.844047 13.717661 
L 179.893338 12.727673 
L 180.012985 13.871498 
L 180.067196 12.007043 
L 180.098419 12.763673 
L 180.252927 13.088999 
L 180.307986 13.125829 
L 180.435739 12.330654 
L 180.513612 8.867864 
L 180.668287 8.625009 
L 180.737046 9.498524 
L 180.805675 9.422868 
L 181.082859 11.201395 
L 181.294007 14.633673 
L 181.442664 13.84958 
L 181.649337 14.797103 
L 181.718028 14.613633 
L 181.78741 15.719723 
L 181.873153 15.045397 
L 182.009297 13.294714 
L 182.232668 15.665253 
L 182.284291 15.571606 
L 182.531409 13.577026 
L 182.782266 16.431625 
L 182.867498 14.707103 
L 182.953717 13.737261 
L 183.057283 14.284313 
L 183.076165 14.246338 
L 183.141858 14.00404 
L 183.248531 14.802609 
L 183.279769 14.14961 
L 183.401585 14.249391 
L 183.434763 14.170584 
L 183.588926 17.087733 
L 183.7263 16.668515 
L 184.003229 19.602837 
L 184.089382 20.156892 
L 184.140865 18.791933 
L 184.209609 19.004971 
L 184.29048 17.982388 
L 184.363708 19.106112 
L 184.574878 15.735189 
L 184.778002 14.65507 
L 184.845926 15.398847 
L 185.035111 13.101256 
L 185.052417 11.484559 
L 185.137594 13.041681 
L 185.277353 12.975521 
L 185.344593 13.168361 
L 185.54955 12.036046 
L 185.621863 12.164649 
L 185.79079 13.487245 
L 185.842124 12.247998 
L 186.08314 13.25691 
L 186.155776 12.722392 
L 186.205278 12.980718 
L 186.271627 12.740041 
L 186.340331 13.262315 
L 186.443176 12.549252 
L 186.565621 13.50138 
L 186.632493 12.928419 
L 186.90818 14.678859 
L 187.130601 18.842726 
L 187.198618 18.064721 
L 187.255707 18.923603 
L 187.336557 18.272578 
L 187.405528 18.410712 
L 187.698347 16.570391 
L 187.731638 16.061032 
L 187.835254 12.473508 
L 187.921964 12.623463 
L 188.007093 12.994271 
L 188.251292 9.940435 
L 188.469944 11.506696 
L 188.591716 12.284584 
L 188.624491 11.587924 
L 188.693676 11.644732 
L 188.755106 11.579976 
L 188.830981 12.390209 
L 188.899757 12.114619 
L 188.98584 11.838311 
L 189.037019 12.090108 
L 189.173852 11.402524 
L 189.249154 11.387294 
L 189.319362 13.28238 
L 189.397662 12.736183 
L 189.585987 14.36382 
L 189.655858 14.209907 
L 189.741987 13.084924 
L 189.812849 12.942292 
L 189.999712 13.753606 
L 190.051477 12.944879 
L 190.1142 13.450476 
L 190.4532 17.419368 
L 190.618384 18.101904 
L 190.755183 16.266254 
L 190.875346 15.386028 
L 191.030007 13.785834 
L 191.09958 13.437706 
L 191.167827 13.512722 
L 191.236243 14.381797 
L 191.305364 12.873078 
L 191.667074 17.654557 
L 191.820791 16.689561 
L 191.99752 15.329111 
L 192.027607 16.295453 
L 192.146746 15.195535 
L 192.250787 12.137897 
L 192.321095 12.37709 
L 192.370774 11.774783 
L 192.525379 13.630217 
L 192.59451 13.435307 
L 192.734149 11.489541 
L 192.937894 14.012252 
L 193.079995 11.154328 
L 193.162019 10.353996 
L 193.393051 11.988771 
L 193.437434 13.553911 
L 193.525076 12.458558 
L 193.595627 12.83683 
L 193.749724 16.053768 
L 193.800904 14.249815 
L 193.936736 14.129047 
L 194.016858 12.069193 
L 194.14655 10.680635 
L 194.232248 11.900867 
L 194.299751 11.804285 
L 194.442026 11.664327 
L 194.66663 15.791669 
L 194.718493 15.780337 
L 194.811083 16.797289 
L 195.008938 15.786146 
L 195.129258 15.950328 
L 195.214977 13.568741 
L 195.301086 14.48653 
L 195.369847 14.380153 
L 195.422861 14.770443 
L 195.650942 12.759719 
L 195.782834 11.63465 
L 195.929017 13.989128 
L 196.007118 13.59853 
L 196.102655 13.686974 
L 196.197744 14.122094 
L 196.231453 15.495623 
L 196.318345 15.391029 
L 196.524285 16.578632 
L 196.575972 15.260822 
L 196.646054 15.526314 
L 197.126956 11.628941 
L 197.143472 12.961967 
L 197.21275 12.790483 
L 197.284059 14.090352 
L 197.352169 13.693593 
L 197.575441 15.339442 
L 197.704014 14.276871 
L 197.781298 14.550083 
L 197.850164 14.87127 
L 197.988842 12.828308 
L 198.056962 12.964712 
L 198.165301 12.646686 
L 198.212558 12.154563 
L 198.419106 14.920076 
L 198.504179 13.417013 
L 198.598186 13.930174 
L 198.611252 12.709548 
L 198.631375 13.528644 
L 198.768001 15.844028 
L 198.836621 15.71838 
L 199.128507 13.384303 
L 199.197249 13.209026 
L 199.488832 8.80592 
L 199.694752 9.026473 
L 200.22877 15.119279 
L 200.331492 13.789249 
L 200.399566 14.388485 
L 200.710266 12.347185 
L 201.039588 14.054239 
L 201.109376 11.571082 
L 201.259084 12.67339 
L 201.36174 12.209441 
L 201.56929 9.263691 
L 201.621086 9.893493 
L 201.779275 9.006311 
L 201.83946 10.638196 
L 201.999171 8.551778 
L 202.035641 8.702716 
L 202.260243 13.72778 
L 202.360156 12.413013 
L 202.399267 13.174337 
L 202.463964 13.257673 
L 202.534218 11.63808 
L 202.601965 12.744165 
L 202.671955 12.422601 
L 202.777375 12.680192 
L 202.83057 10.702286 
L 202.904805 11.252488 
L 202.996906 9.976478 
L 203.03125 10.814763 
L 203.389637 13.330049 
L 203.461043 12.216612 
L 203.47502 12.864553 
L 203.545044 12.729911 
L 203.890944 10.106686 
L 204.041926 10.93321 
L 204.154698 11.463079 
L 204.283013 14.422248 
L 204.37013 14.71356 
L 204.420685 14.076693 
L 204.454956 14.661987 
L 204.609356 16.15364 
L 204.662244 16.1338 
L 204.86739 15.928693 
L 204.95402 14.868277 
L 205.126118 15.597683 
L 205.231279 15.011484 
L 205.332023 14.561237 
L 205.452037 14.896206 
L 205.609189 13.166695 
L 205.731554 12.371545 
L 205.86849 13.420566 
L 206.039609 11.306814 
L 206.091254 11.966365 
L 206.229375 10.330109 
L 206.331847 12.21926 
L 206.400859 11.779288 
L 206.589533 14.291312 
L 206.660031 13.229972 
L 206.733523 13.651015 
L 206.796723 12.9612 
L 206.950143 13.104928 
L 207.004599 14.322476 
L 207.018874 13.073105 
L 207.156068 13.452925 
L 207.226156 13.394404 
L 207.310825 13.252731 
L 207.364588 14.943019 
L 207.569737 14.060608 
L 207.807759 15.843941 
L 207.938053 13.450388 
L 208.058607 13.527936 
L 208.092858 12.537562 
L 208.213385 14.885425 
L 208.357046 12.591493 
L 208.436129 12.702695 
L 208.51346 11.05975 
L 208.573134 12.362528 
L 208.667066 12.029356 
L 208.802925 13.629459 
L 208.91937 13.330716 
L 209.073688 16.145963 
L 209.228386 18.368236 
L 209.280802 19.994191 
L 209.348415 19.605526 
L 209.778122 14.250002 
L 209.863968 14.842708 
L 209.935625 14.848752 
L 210.055097 12.610914 
L 210.070045 13.452221 
L 210.18366 13.796963 
L 210.302645 16.111587 
L 210.381596 16.155538 
L 210.471478 16.594497 
L 210.483467 16.515863 
L 210.502858 17.581448 
L 211.140218 13.080528 
L 211.239709 12.990512 
L 211.550742 14.355743 
L 211.619606 13.866582 
L 211.995315 16.562138 
L 212.098767 16.108788 
L 212.132937 15.424579 
L 212.408345 16.304642 
L 212.478151 16.121212 
L 212.614753 13.889328 
L 212.701086 12.305626 
L 212.76942 12.602501 
L 212.978848 15.296078 
L 213.266671 14.577743 
L 213.476235 18.593606 
L 213.544494 18.161946 
L 213.62822 16.622464 
L 213.696688 16.934168 
L 213.764752 17.984136 
L 213.833863 17.308922 
L 213.90343 17.468481 
L 213.988949 17.827601 
L 214.218671 14.576372 
L 214.475559 10.190293 
L 214.541623 10.290729 
L 214.611949 10.575097 
L 214.680493 9.445315 
L 214.749925 10.280503 
L 214.860996 9.415759 
L 214.89253 9.714505 
L 215.110296 13.325169 
L 215.403933 15.807044 
L 215.471931 15.073549 
L 215.592649 16.08331 
L 215.852995 12.481516 
L 216.022746 9.621894 
L 216.09357 10.292106 
L 216.331275 13.955489 
L 216.407364 12.714814 
L 216.452938 12.732898 
L 216.524434 13.571041 
L 216.676417 12.391978 
L 216.762333 12.489089 
L 216.881348 10.665673 
L 216.967254 10.824557 
L 217.070262 10.520069 
L 217.416738 14.040806 
L 217.571645 16.447219 
L 217.674544 16.202091 
L 217.831344 14.345574 
L 217.914857 14.381368 
L 217.949814 12.749165 
L 218.035137 13.475882 
L 218.224142 10.045961 
L 218.360783 9.739831 
L 218.41271 8.811587 
L 218.446871 10.410737 
L 218.520412 9.928202 
L 218.596385 9.592965 
L 219.014786 15.129149 
L 219.084526 15.482922 
L 219.168597 14.43518 
L 219.375756 17.4939 
L 219.443865 17.604223 
L 219.58394 14.690435 
L 219.672903 16.043258 
L 219.808638 14.477173 
L 219.823518 15.168648 
L 219.878805 16.322612 
L 220.082035 13.095387 
L 220.172324 12.286502 
L 220.313508 14.207928 
L 220.381819 12.782039 
L 220.434773 13.365058 
L 220.570883 11.762869 
L 220.870628 14.378681 
L 221.055284 14.106935 
L 221.069162 14.636426 
L 221.137828 14.521391 
L 221.241226 13.455591 
L 221.292141 13.473707 
L 221.414246 13.203732 
L 221.500732 13.665111 
L 221.588457 13.026181 
L 221.639733 14.066191 
L 221.757645 14.033777 
L 221.793311 13.404822 
L 222.067267 16.136051 
L 222.135879 13.991254 
L 222.207681 14.503816 
L 222.303414 15.038041 
L 222.34491 14.053181 
L 222.428157 14.39046 
L 222.566502 13.168327 
L 222.633825 14.404933 
L 222.789738 13.071351 
L 222.858315 14.790494 
L 223.002599 12.744325 
L 223.063515 13.421752 
L 223.137165 12.495118 
L 223.287751 13.202399 
L 223.345585 13.175893 
L 223.630884 16.629431 
L 223.699963 16.681987 
L 223.992413 18.86466 
L 224.472907 12.519869 
L 224.558709 12.449475 
L 225.124868 17.197058 
L 225.263071 16.995648 
L 225.349132 16.716663 
L 225.554518 14.693903 
L 225.624673 15.593121 
L 225.784601 14.526476 
L 225.968188 15.310145 
L 226.053091 14.740904 
L 226.121059 13.253987 
L 226.191475 14.27592 
L 226.258604 14.160729 
L 226.331905 13.291493 
L 226.415129 13.535975 
L 226.48601 13.261321 
L 226.709433 10.810301 
L 226.881475 12.674817 
L 226.932636 13.505511 
L 226.985353 12.519527 
L 227.070454 13.220786 
L 227.192072 12.29126 
L 227.265777 13.914317 
L 227.345434 13.456542 
L 227.466317 10.592704 
L 227.604542 11.765635 
L 227.638824 10.723923 
L 227.689993 11.555771 
L 227.810319 11.562309 
L 228.102648 15.94239 
L 228.176658 15.52864 
L 228.325576 15.088752 
L 228.394334 15.649676 
L 228.462997 14.951689 
L 228.533107 16.493311 
L 228.806829 12.746701 
L 228.908442 13.868318 
L 228.959573 12.514859 
L 229.03365 13.689794 
L 229.303073 10.107591 
L 229.405794 11.929684 
L 229.478215 11.371647 
L 229.663452 10.498799 
L 229.752593 9.875284 
L 229.824868 10.008163 
L 229.886382 10.967807 
L 230.007489 11.060418 
L 230.024807 10.981802 
L 230.097175 10.502174 
L 230.178518 10.813812 
L 230.370508 13.721144 
L 230.454408 12.96543 
L 230.661566 14.701371 
L 230.780124 13.471124 
L 230.81491 14.563186 
L 230.882844 14.508616 
L 230.969243 13.909986 
L 231.056438 15.606846 
L 231.08941 14.876504 
L 231.188184 15.03191 
L 231.228223 14.913085 
L 231.301318 14.712281 
L 231.410946 15.218812 
L 231.446566 13.500514 
L 231.52015 14.707985 
L 231.587944 15.555301 
L 231.662644 15.044096 
L 231.723587 13.490497 
L 231.861838 15.442596 
L 231.964198 15.260444 
L 232.032707 15.316526 
L 232.085851 15.556543 
L 232.188124 18.230578 
L 232.224833 17.682613 
L 232.358898 17.462471 
L 232.44506 18.594138 
L 232.514693 18.278215 
L 232.582114 18.069024 
L 232.86 15.308382 
L 232.926112 16.452277 
L 233.217662 13.407648 
L 233.356297 14.581812 
L 233.510835 13.798746 
L 233.578903 14.094563 
L 233.716025 11.252525 
L 233.784459 11.369207 
L 233.85975 12.472996 
L 234.010871 11.483312 
L 234.076435 11.715795 
L 234.35145 15.158114 
L 234.425344 15.904211 
L 234.55847 15.067024 
L 234.644855 14.868101 
L 234.849494 12.847529 
L 234.919768 13.054492 
L 234.997349 12.292612 
L 235.056549 12.593514 
L 235.141809 13.253228 
L 235.212015 14.750687 
L 235.281275 13.467027 
L 235.347646 13.692628 
L 235.485695 15.079947 
L 235.624257 12.80535 
L 235.711081 13.075273 
L 235.918523 12.413706 
L 236.088649 13.570382 
L 236.225508 13.822778 
L 236.262169 15.224299 
L 236.345815 15.16959 
L 236.432886 14.716773 
L 236.484786 14.889828 
L 236.586785 15.747087 
L 236.663687 14.999732 
L 236.694511 15.798108 
L 236.776516 15.536445 
L 236.84534 15.916057 
L 236.914707 14.901486 
L 236.982413 15.209358 
L 237.050696 15.389664 
L 237.131504 16.278911 
L 237.189375 15.932577 
L 237.205486 11.815204 
L 237.295263 15.217652 
L 237.382185 15.323702 
L 237.447154 14.459763 
L 237.480547 15.113316 
L 237.54922 15.062451 
L 237.836528 17.66254 
L 238.064497 17.855794 
L 238.116028 18.225884 
L 238.185964 16.342668 
L 238.35726 16.123083 
L 238.42493 15.254123 
L 238.529384 15.269636 
L 238.544706 15.405802 
L 238.682203 13.70928 
L 238.922765 15.77834 
L 238.97467 15.216085 
L 239.097366 15.122304 
L 239.250611 11.545608 
L 239.542003 10.548928 
L 239.59984 9.382333 
L 239.680363 9.461102 
L 239.801765 8.925487 
L 239.959102 11.376735 
L 240.042355 11.025816 
L 240.134668 11.213115 
L 240.196001 11.05965 
L 240.283832 12.821394 
L 240.316418 11.646436 
L 240.437625 12.423041 
L 240.455637 12.19381 
L 240.557955 11.586736 
L 240.746856 12.652425 
L 240.900823 13.177088 
L 240.969684 11.302748 
L 241.021747 13.353007 
L 241.107409 12.815313 
L 241.193433 13.469695 
L 241.244927 12.003694 
L 241.313433 12.084974 
L 241.473745 11.890536 
L 241.536579 11.73026 
L 241.657575 12.322602 
L 241.727321 12.242004 
L 241.829942 10.567305 
L 241.89771 10.863225 
L 242.17223 12.621375 
L 242.344746 11.174441 
L 242.5176 13.544193 
L 242.670673 13.410362 
L 242.85972 12.986069 
L 243.014396 15.384231 
L 243.255677 14.065952 
L 243.375706 14.563743 
L 243.462614 13.919273 
L 243.51914 15.382628 
L 243.60909 14.95929 
L 243.690779 15.46958 
L 243.790511 14.913306 
L 243.808533 15.836318 
L 243.911738 15.563774 
L 243.944999 15.08031 
L 244.031529 15.417606 
L 244.223348 17.264435 
L 244.30599 17.088906 
L 244.394271 16.336756 
L 244.65043 17.884087 
L 245.285648 11.104937 
L 245.509771 12.580866 
L 245.647326 11.446945 
L 245.663429 11.584288 
L 245.852776 14.352805 
L 246.004546 15.213178 
L 246.074745 15.248152 
L 246.282755 16.852742 
L 246.364883 16.48224 
L 246.57021 17.624212 
L 246.999114 13.773015 
L 247.06791 14.561169 
L 247.274439 11.665271 
L 247.343957 12.479863 
L 247.41525 12.46612 
L 247.705279 14.779875 
L 247.843422 13.559002 
L 247.912316 14.007074 
L 248.133645 16.180184 
L 248.415349 13.50056 
L 248.633956 12.171765 
L 248.700204 10.27565 
L 248.768948 10.49969 
L 248.837855 9.67769 
L 248.924136 11.91973 
L 248.992829 9.483619 
L 249.408317 14.742116 
L 249.490542 14.02576 
L 249.574468 14.482322 
L 249.78258 10.507222 
L 249.869477 10.909155 
L 249.920144 9.686308 
L 249.988991 10.354469 
L 250.057229 10.863627 
L 250.110413 10.473857 
L 250.199359 10.997475 
L 250.281467 10.506927 
L 250.470381 13.976929 
L 250.564794 14.269522 
L 250.668564 15.210344 
L 250.788392 13.69865 
L 250.857042 13.673597 
L 251.045884 15.312628 
L 251.184116 15.802864 
L 251.320894 14.282207 
L 251.407177 14.78274 
L 251.560838 17.431662 
L 251.612786 16.476361 
L 251.69921 16.721763 
L 251.750363 16.99389 
L 251.904266 15.109437 
L 252.007109 15.893912 
L 252.041641 17.051941 
L 252.196471 15.510526 
L 252.28271 14.759657 
L 252.334416 15.819347 
L 252.472812 14.58644 
L 252.61115 16.275306 
L 252.677826 15.850971 
L 252.832372 15.655896 
L 252.901987 15.849719 
L 252.988974 15.867204 
L 253.106454 14.817225 
L 253.182577 14.978629 
L 253.252586 15.7217 
L 253.462728 13.514148 
L 253.532832 14.75229 
L 253.612989 10.57783 
L 253.682314 10.60698 
L 253.753102 10.385232 
L 253.924196 9.46129 
L 253.995282 9.243293 
L 254.387175 14.025247 
L 254.425175 12.736462 
L 254.456219 12.369775 
L 254.524629 12.823723 
L 254.679849 12.351803 
L 254.749586 14.094508 
L 254.81831 13.983662 
L 254.923817 14.305203 
L 255.041706 12.902798 
L 255.099924 13.050945 
L 255.163403 12.89479 
L 255.231178 13.689401 
L 255.351896 13.377182 
L 255.508621 11.318992 
L 255.55192 11.576123 
L 255.610567 10.739088 
L 255.736461 11.986781 
L 255.867496 12.970786 
L 255.884614 11.248074 
L 256.004664 10.986613 
L 256.048515 11.186652 
L 256.090808 12.203219 
L 256.16099 11.559062 
L 256.230643 11.640236 
L 256.402875 10.763902 
L 256.453434 11.002043 
L 256.513204 10.945864 
L 256.593512 13.374334 
L 256.762062 13.613237 
L 256.814272 12.728583 
L 256.90355 13.323183 
L 257.020605 12.164925 
L 257.159144 12.999074 
L 257.32329 12.120552 
L 257.392247 12.541119 
L 257.48721 11.728594 
L 257.52332 12.221176 
L 257.81323 15.238376 
L 257.933425 13.996779 
L 258.007153 15.098007 
L 258.106273 14.745869 
L 258.156807 17.207708 
L 258.24364 17.012837 
L 258.346612 16.334107 
L 258.380543 15.068091 
L 258.433692 15.576847 
L 258.555043 15.56945 
L 258.677993 16.544685 
L 258.861834 13.175706 
L 259.01654 14.29185 
L 259.137237 14.384682 
L 259.274979 14.276433 
L 259.309164 14.393654 
L 259.446278 12.232205 
L 259.570297 12.887651 
L 259.705226 11.619298 
L 259.721458 12.801458 
L 259.790509 12.582072 
L 259.929218 10.290837 
L 260.083466 11.397033 
L 260.134549 13.340612 
L 260.237748 13.30495 
L 260.306152 13.161939 
L 260.51785 11.095149 
L 260.601222 11.448782 
L 260.959003 9.735874 
L 261.027699 10.803659 
L 261.080195 9.29629 
L 261.325773 11.323047 
L 261.337388 10.940585 
L 261.491179 12.300079 
L 261.560871 12.245096 
L 261.654123 11.550972 
L 261.703527 13.047727 
L 261.771203 12.952985 
L 261.853131 12.907742 
L 261.93932 14.458485 
L 261.990172 13.983174 
L 262.346146 12.308744 
L 262.419991 13.264414 
L 262.488396 13.113535 
L 262.597434 14.229479 
L 262.695166 12.563454 
L 262.903211 15.024048 
L 263.055344 15.516646 
L 263.124507 15.449203 
L 263.193009 16.168828 
L 263.264541 15.878506 
L 263.331782 15.060981 
L 263.40013 17.650722 
L 263.488034 16.929516 
L 263.622395 16.792521 
L 263.98325 14.580434 
L 264.069259 15.134104 
L 264.121102 13.016929 
L 264.19197 13.579199 
L 264.326448 13.645709 
L 264.41285 15.493925 
L 264.692785 12.764439 
L 264.918621 14.179128 
L 265.106885 12.482378 
L 265.242938 11.440363 
L 265.33092 13.313722 
L 265.467476 13.013962 
L 265.570993 11.643236 
L 265.69275 12.63789 
L 265.800018 12.493433 
L 265.880217 11.710148 
L 265.897651 13.627539 
L 265.992939 13.476467 
L 266.052107 12.263533 
L 266.20649 14.003639 
L 266.692605 8.755989 
L 266.744382 9.279987 
L 266.950637 8.290807 
L 267.037867 11.500654 
L 267.17767 12.800487 
L 267.246766 11.860625 
L 267.418453 13.235313 
L 267.484691 13.108415 
L 267.484822 15.132256 
L 267.542716 13.252314 
L 267.830059 9.952296 
L 267.882835 10.357365 
L 267.966609 10.22035 
L 268.175738 8.730616 
L 268.29346 9.030526 
L 268.328529 10.777806 
L 268.447774 11.104824 
L 268.756761 13.949942 
L 268.844815 13.851193 
L 268.889045 14.785694 
L 269.083093 12.388118 
L 269.170176 13.579143 
L 269.238237 13.0557 
L 269.306537 12.424066 
L 269.375594 13.654323 
L 269.445264 12.987055 
L 269.597975 11.302855 
L 269.684165 12.978038 
L 269.736422 12.010083 
L 269.828255 12.537786 
L 269.902175 11.50244 
L 269.960107 12.240184 
L 270.097799 10.596871 
L 270.269539 12.188399 
L 270.305041 11.748539 
L 270.443696 11.610223 
L 270.509702 11.928408 
L 270.577792 11.569144 
L 270.698483 9.448473 
L 270.752062 9.987358 
L 270.820324 10.987393 
L 270.869824 10.746875 
L 270.938697 10.53768 
L 271.076386 12.155688 
L 271.147534 13.504919 
L 271.248194 12.376163 
L 271.322141 12.390062 
L 271.442935 14.931983 
L 271.6507 17.043379 
L 271.799966 16.892369 
L 271.869019 16.613036 
L 271.93574 17.138082 
L 272.039061 17.011594 
L 272.674123 10.740139 
L 272.811124 12.335535 
L 272.897388 11.331633 
L 273.068949 15.185053 
L 273.138315 14.65044 
L 273.567654 18.781323 
L 273.707466 16.327841 
L 273.80847 17.079634 
L 273.860562 16.67039 
L 273.982708 16.534271 
L 274.191333 13.692007 
L 274.220858 13.239392 
L 274.333098 13.33919 
L 274.496061 12.088611 
L 274.633343 12.679212 
L 274.702424 13.697138 
L 274.806045 13.683027 
L 274.839865 13.54153 
L 274.925902 13.711777 
L 274.977745 12.937679 
L 275.064071 13.515085 
L 275.237017 13.09783 
L 275.273374 13.36149 
L 275.493199 10.243352 
L 275.580968 10.765243 
L 275.647399 10.260572 
L 275.872529 12.53242 
L 275.906454 12.447197 
L 275.974812 11.692224 
L 276.077394 12.001042 
L 276.128662 12.761675 
L 276.216291 12.611322 
L 276.473701 9.250688 
L 276.562618 9.877168 
L 276.662832 10.320658 
L 277.054833 15.738909 
L 277.142593 15.693767 
L 277.544383 11.474108 
L 277.623466 12.415953 
L 277.762001 11.535093 
L 277.966839 13.67004 
L 278.05229 12.852736 
L 278.275701 15.030732 
L 278.464944 12.793746 
L 278.757896 10.994887 
L 278.912291 11.585546 
L 279.049059 10.51551 
L 279.408969 14.186242 
L 279.469865 14.377103 
L 279.538413 14.352038 
L 279.611113 12.881496 
L 279.67728 13.6732 
L 279.780524 14.841476 
L 279.833415 14.755076 
L 280.057336 12.77584 
L 280.349706 11.772125 
L 280.521854 14.549433 
L 280.607156 14.34132 
L 280.660725 13.760326 
L 280.744583 14.02115 
L 280.904625 14.741363 
L 280.950678 13.859352 
L 281.019531 14.84398 
L 281.157319 12.879575 
L 281.24195 10.729369 
L 281.312889 10.951586 
L 281.380149 11.117872 
L 281.451321 9.949257 
L 281.52061 10.001375 
L 282.033585 16.392148 
L 282.085038 14.003283 
L 282.15621 15.842149 
L 282.224415 15.71859 
L 282.381208 14.778314 
L 282.541524 13.960668 
L 282.584783 12.070868 
L 282.678326 12.000262 
L 282.740623 11.626885 
L 282.802959 12.505379 
L 282.949544 11.059444 
L 283.018304 11.459183 
L 283.221188 10.125458 
L 283.291295 11.259861 
L 283.429045 9.688029 
L 283.502357 10.415742 
L 283.651237 9.782922 
L 283.720167 10.769795 
L 283.78969 10.522859 
L 283.858615 10.424289 
L 284.150507 13.138651 
L 284.304432 11.432662 
L 284.356227 12.522102 
L 284.479111 12.116517 
L 284.579578 12.889077 
L 284.632049 14.361766 
L 284.717581 13.456322 
L 284.837165 14.254826 
L 284.895476 13.868165 
L 285.025542 16.113073 
L 285.098352 14.320759 
L 285.283878 15.62796 
L 285.369509 14.204876 
L 285.456252 14.712325 
L 285.506762 14.356828 
L 285.647188 14.666525 
L 285.730481 12.951345 
L 285.782962 15.018838 
L 285.869145 14.031534 
L 285.952076 14.28316 
L 285.986472 15.431789 
L 286.057992 14.858936 
L 286.124742 15.776832 
L 286.211257 15.708342 
L 286.280233 16.031422 
L 286.349647 15.377958 
L 286.468099 16.281215 
L 286.503113 15.822087 
L 286.69233 13.152989 
L 286.806004 12.923366 
L 286.939861 9.772119 
L 287.089001 10.188016 
L 287.330914 13.302987 
L 287.521634 12.667704 
L 287.56787 15.127292 
L 287.637097 14.96564 
L 287.709643 15.728781 
L 287.936484 13.235117 
L 287.949663 15.077293 
L 288.05073 14.331578 
L 288.121388 14.240454 
L 288.188231 14.849541 
L 288.279565 14.358051 
L 288.342209 14.56736 
L 288.414005 14.746476 
L 288.514257 16.069467 
L 288.569463 15.652284 
L 288.667515 15.95703 
L 288.707292 15.345124 
L 288.779816 15.837135 
L 288.942624 14.561673 
L 289.046391 15.419801 
L 289.27081 13.876711 
L 289.303662 15.059319 
L 289.3729 12.978947 
L 289.423823 13.715485 
L 289.481548 13.532491 
L 289.613169 15.296521 
L 289.629314 14.96473 
L 289.767941 13.804554 
L 289.820876 13.829904 
L 289.906788 14.342547 
L 289.975986 14.067673 
L 290.041642 14.955969 
L 290.113654 14.634757 
L 290.179589 13.682254 
L 290.402818 15.680177 
L 290.471866 15.584438 
L 290.560049 15.532481 
L 290.712436 13.788949 
L 290.781423 14.409847 
L 290.849979 14.357941 
L 291.118954 9.997998 
L 291.199185 11.288667 
L 291.340446 11.190839 
L 291.59087 12.131908 
L 291.693532 14.706192 
L 291.747019 13.322059 
L 291.829832 14.933851 
L 292.001774 14.070214 
L 292.056106 15.025439 
L 292.10693 13.97963 
L 292.174475 13.885416 
L 292.246268 12.482187 
L 292.43598 13.030112 
L 292.465605 13.68776 
L 292.534053 13.182847 
L 292.603201 12.531995 
L 292.723024 12.938383 
L 292.759479 11.849432 
L 292.814539 12.292849 
L 292.880068 11.973206 
L 292.96476 12.043191 
L 293.049594 11.796444 
L 293.101678 11.193775 
L 293.170674 12.076842 
L 293.256734 10.29003 
L 293.324886 11.35045 
L 293.394356 11.300295 
L 293.514351 11.071359 
L 293.668832 13.794883 
L 293.738263 14.338136 
L 293.823582 13.377743 
L 293.876542 13.530183 
L 294.082192 17.066345 
L 294.168652 16.572935 
L 294.326172 14.277536 
L 294.390601 14.888055 
L 294.510926 13.817095 
L 294.563724 15.79784 
L 294.616688 15.754378 
L 294.806885 11.433232 
L 294.877902 11.965471 
L 294.946822 13.939188 
L 295.01794 13.741466 
L 295.083361 12.976628 
L 295.169212 13.152929 
L 295.241974 12.691619 
L 295.42708 14.869559 
L 295.65211 12.915999 
L 295.752689 13.384032 
L 295.806256 13.104388 
L 295.874139 11.490257 
L 295.943621 12.016329 
L 296.015649 11.467613 
L 296.082126 11.688519 
L 296.097705 14.069528 
L 296.201364 13.352475 
L 296.286746 12.703297 
L 296.361225 12.860629 
L 296.584675 15.208992 
L 296.870348 11.303798 
L 296.935998 11.380676 
L 297.016619 11.928988 
L 297.163987 10.837958 
L 297.446048 13.762346 
L 297.602343 12.656125 
L 297.791695 14.934972 
L 297.929554 12.597218 
L 297.997128 12.85315 
L 298.082629 12.498854 
L 298.391786 15.102015 
L 298.426669 14.064523 
L 298.494776 14.107857 
L 298.598824 14.40938 
L 298.771405 15.595512 
L 298.855347 15.351315 
L 299.16624 11.994007 
L 299.219863 12.236018 
L 299.355169 12.451499 
L 299.458281 12.190284 
L 299.577221 10.217066 
L 299.85535 12.563828 
L 300.009522 11.657471 
L 300.12893 11.218235 
L 300.249437 11.602657 
L 300.515153 17.881057 
L 300.561764 17.167201 
L 300.751158 17.780524 
L 300.818206 17.513245 
L 301.316132 10.75222 
L 301.350974 11.369106 
L 301.405892 12.344725 
L 301.41946 15.030539 
L 301.490828 13.27511 
L 301.574047 13.969963 
L 301.660604 13.835589 
L 301.782402 13.170371 
L 301.797014 14.845356 
L 301.831786 14.756897 
L 301.956799 14.540227 
L 302.146757 13.43305 
L 302.213128 14.219334 
L 302.296493 13.979901 
L 302.477011 14.675088 
L 302.555212 14.581992 
L 302.691216 15.474717 
L 302.760625 13.263518 
L 302.760625 13.263518 
" clip-path="url(#pe661e4b1ef)" style="fill: none; stroke: #ff0000; stroke-opacity: 0.5; stroke-width: 3; stroke-linecap: square"/>
   </g>
   <g id="patch_3">
    <path d="M 23.760625 139.32 
L 23.760625 0.72 
" style="fill: none; stroke: #000000; stroke-width: 0.8; stroke-linejoin: miter; stroke-linecap: square"/>
   </g>
   <g id="patch_4">
    <path d="M 302.760625 139.32 
L 302.760625 0.72 
" style="fill: none; stroke: #000000; stroke-width: 0.8; stroke-linejoin: miter; stroke-linecap: square"/>
   </g>
   <g id="patch_5">
    <path d="M 23.760625 139.32 
L 302.760625 139.32 
" style="fill: none; stroke: #000000; stroke-width: 0.8; stroke-linejoin: miter; stroke-linecap: square"/>
   </g>
   <g id="patch_6">
    <path d="M 23.760625 0.72 
L 302.760625 0.72 
" style="fill: none; stroke: #000000; stroke-width: 0.8; stroke-linejoin: miter; stroke-linecap: square"/>
   </g>
   <g id="legend_1">
    <g id="patch_7">
     <path d="M 221.991875 86.198125 
L 295.760625 86.198125 
Q 297.760625 86.198125 297.760625 84.198125 
L 297.760625 55.841875 
Q 297.760625 53.841875 295.760625 53.841875 
L 221.991875 53.841875 
Q 219.991875 53.841875 219.991875 55.841875 
L 219.991875 84.198125 
Q 219.991875 86.198125 221.991875 86.198125 
z
" style="fill: #ffffff; opacity: 0.8; stroke: #cccccc; stroke-linejoin: miter"/>
    </g>
    <g id="line2d_25">
     <path d="M 223.991875 61.940312 
L 233.991875 61.940312 
L 243.991875 61.940312 
" style="fill: none; stroke: #0000ff; stroke-opacity: 0.5; stroke-width: 3; stroke-linecap: square"/>
    </g>
    <g id="text_14">
     <!-- RNEA -->
     <g transform="translate(251.991875 65.440312) scale(0.1 -0.1)">
      <defs>
       <path id="DejaVuSans-52" d="M 2841 2188 
Q 3044 2119 3236 1894 
Q 3428 1669 3622 1275 
L 4263 0 
L 3584 0 
L 2988 1197 
Q 2756 1666 2539 1819 
Q 2322 1972 1947 1972 
L 1259 1972 
L 1259 0 
L 628 0 
L 628 4666 
L 2053 4666 
Q 2853 4666 3247 4331 
Q 3641 3997 3641 3322 
Q 3641 2881 3436 2590 
Q 3231 2300 2841 2188 
z
M 1259 4147 
L 1259 2491 
L 2053 2491 
Q 2509 2491 2742 2702 
Q 2975 2913 2975 3322 
Q 2975 3731 2742 3939 
Q 2509 4147 2053 4147 
L 1259 4147 
z
" transform="scale(0.015625)"/>
       <path id="DejaVuSans-45" d="M 628 4666 
L 3578 4666 
L 3578 4134 
L 1259 4134 
L 1259 2753 
L 3481 2753 
L 3481 2222 
L 1259 2222 
L 1259 531 
L 3634 531 
L 3634 0 
L 628 0 
L 628 4666 
z
" transform="scale(0.015625)"/>
       <path id="DejaVuSans-41" d="M 2188 4044 
L 1331 1722 
L 3047 1722 
L 2188 4044 
z
M 1831 4666 
L 2547 4666 
L 4325 0 
L 3669 0 
L 3244 1197 
L 1141 1197 
L 716 0 
L 50 0 
L 1831 4666 
z
" transform="scale(0.015625)"/>
      </defs>
      <use xlink:href="#DejaVuSans-52"/>
      <use xlink:href="#DejaVuSans-4e" x="69.482422"/>
      <use xlink:href="#DejaVuSans-45" x="144.287109"/>
      <use xlink:href="#DejaVuSans-41" x="207.470703"/>
     </g>
    </g>
    <g id="line2d_26">
     <path d="M 223.991875 76.618437 
L 233.991875 76.618437 
L 243.991875 76.618437 
" style="fill: none; stroke: #ff0000; stroke-opacity: 0.5; stroke-width: 3; stroke-linecap: square"/>
    </g>
    <g id="text_15">
     <!-- BURNEA -->
     <g transform="translate(251.991875 80.118437) scale(0.1 -0.1)">
      <defs>
       <path id="DejaVuSans-42" d="M 1259 2228 
L 1259 519 
L 2272 519 
Q 2781 519 3026 730 
Q 3272 941 3272 1375 
Q 3272 1813 3026 2020 
Q 2781 2228 2272 2228 
L 1259 2228 
z
M 1259 4147 
L 1259 2741 
L 2194 2741 
Q 2656 2741 2882 2914 
Q 3109 3088 3109 3444 
Q 3109 3797 2882 3972 
Q 2656 4147 2194 4147 
L 1259 4147 
z
M 628 4666 
L 2241 4666 
Q 2963 4666 3353 4366 
Q 3744 4066 3744 3513 
Q 3744 3084 3544 2831 
Q 3344 2578 2956 2516 
Q 3422 2416 3680 2098 
Q 3938 1781 3938 1306 
Q 3938 681 3513 340 
Q 3088 0 2303 0 
L 628 0 
L 628 4666 
z
" transform="scale(0.015625)"/>
       <path id="DejaVuSans-55" d="M 556 4666 
L 1191 4666 
L 1191 1831 
Q 1191 1081 1462 751 
Q 1734 422 2344 422 
Q 2950 422 3222 751 
Q 3494 1081 3494 1831 
L 3494 4666 
L 4128 4666 
L 4128 1753 
Q 4128 841 3676 375 
Q 3225 -91 2344 -91 
Q 1459 -91 1007 375 
Q 556 841 556 1753 
L 556 4666 
z
" transform="scale(0.015625)"/>
      </defs>
      <use xlink:href="#DejaVuSans-42"/>
      <use xlink:href="#DejaVuSans-55" x="68.603516"/>
      <use xlink:href="#DejaVuSans-52" x="141.796875"/>
      <use xlink:href="#DejaVuSans-4e" x="211.279297"/>
      <use xlink:href="#DejaVuSans-45" x="286.083984"/>
      <use xlink:href="#DejaVuSans-41" x="349.267578"/>
     </g>
    </g>
   </g>
  </g>
 </g>
 <defs>
  <clipPath id="pe661e4b1ef">
   <rect x="23.760625" y="0.72" width="279" height="138.6"/>
  </clipPath>
 </defs>
</svg>
