<?xml version="1.0" encoding="utf-8" standalone="no"?>
<!DOCTYPE svg PUBLIC "-//W3C//DTD SVG 1.1//EN"
  "http://www.w3.org/Graphics/SVG/1.1/DTD/svg11.dtd">
<svg xmlns:xlink="http://www.w3.org/1999/xlink" width="303.480625pt" height="166.39625pt" viewBox="0 0 303.480625 166.39625" xmlns="http://www.w3.org/2000/svg" version="1.1">
 <metadata>
  <rdf:RDF xmlns:dc="http://purl.org/dc/elements/1.1/" xmlns:cc="http://creativecommons.org/ns#" xmlns:rdf="http://www.w3.org/1999/02/22-rdf-syntax-ns#">
   <cc:Work>
    <dc:type rdf:resource="http://purl.org/dc/dcmitype/StillImage"/>
    <dc:date>2023-09-07T03:31:13.372870</dc:date>
    <dc:format>image/svg+xml</dc:format>
    <dc:creator>
     <cc:Agent>
      <dc:title>Matplotlib v3.7.2, https://matplotlib.org/</dc:title>
     </cc:Agent>
    </dc:creator>
   </cc:Work>
  </rdf:RDF>
 </metadata>
 <defs>
  <style type="text/css">*{stroke-linejoin: round; stroke-linecap: butt}</style>
 </defs>
 <g id="figure_1">
  <g id="patch_1">
   <path d="M 0 166.39625 
L 303.480625 166.39625 
L 303.480625 0 
L 0 0 
L 0 166.39625 
z
" style="fill: none"/>
  </g>
  <g id="axes_1">
   <g id="patch_2">
    <path d="M 23.760625 139.32 
L 302.760625 139.32 
L 302.760625 0.72 
L 23.760625 0.72 
L 23.760625 139.32 
z
" style="fill: none"/>
   </g>
   <g id="matplotlib.axis_1">
    <g id="xtick_1">
     <g id="line2d_1">
      <path d="M 23.760625 139.32 
L 23.760625 0.72 
" clip-path="url(#p7e8a97212a)" style="fill: none; stroke-dasharray: 0.8,1.32; stroke-dashoffset: 0; stroke: #000000; stroke-opacity: 0.5; stroke-width: 0.8"/>
     </g>
     <g id="line2d_2">
      <defs>
       <path id="m15746a69f7" d="M 0 0 
L 0 3.5 
" style="stroke: #000000; stroke-width: 0.8"/>
      </defs>
      <g>
       <use xlink:href="#m15746a69f7" x="23.760625" y="139.32" style="stroke: #000000; stroke-width: 0.8"/>
      </g>
     </g>
     <g id="text_1">
      <!-- 0 -->
      <g transform="translate(20.579375 153.918437) scale(0.1 -0.1)">
       <defs>
        <path id="DejaVuSans-30" d="M 2034 4250 
Q 1547 4250 1301 3770 
Q 1056 3291 1056 2328 
Q 1056 1369 1301 889 
Q 1547 409 2034 409 
Q 2525 409 2770 889 
Q 3016 1369 3016 2328 
Q 3016 3291 2770 3770 
Q 2525 4250 2034 4250 
z
M 2034 4750 
Q 2819 4750 3233 4129 
Q 3647 3509 3647 2328 
Q 3647 1150 3233 529 
Q 2819 -91 2034 -91 
Q 1250 -91 836 529 
Q 422 1150 422 2328 
Q 422 3509 836 4129 
Q 1250 4750 2034 4750 
z
" transform="scale(0.015625)"/>
       </defs>
       <use xlink:href="#DejaVuSans-30"/>
      </g>
     </g>
    </g>
    <g id="xtick_2">
     <g id="line2d_3">
      <path d="M 66.375526 139.32 
L 66.375526 0.72 
" clip-path="url(#p7e8a97212a)" style="fill: none; stroke-dasharray: 0.8,1.32; stroke-dashoffset: 0; stroke: #000000; stroke-opacity: 0.5; stroke-width: 0.8"/>
     </g>
     <g id="line2d_4">
      <g>
       <use xlink:href="#m15746a69f7" x="66.375526" y="139.32" style="stroke: #000000; stroke-width: 0.8"/>
      </g>
     </g>
     <g id="text_2">
      <!-- 5 -->
      <g transform="translate(63.194276 153.918437) scale(0.1 -0.1)">
       <defs>
        <path id="DejaVuSans-35" d="M 691 4666 
L 3169 4666 
L 3169 4134 
L 1269 4134 
L 1269 2991 
Q 1406 3038 1543 3061 
Q 1681 3084 1819 3084 
Q 2600 3084 3056 2656 
Q 3513 2228 3513 1497 
Q 3513 744 3044 326 
Q 2575 -91 1722 -91 
Q 1428 -91 1123 -41 
Q 819 9 494 109 
L 494 744 
Q 775 591 1075 516 
Q 1375 441 1709 441 
Q 2250 441 2565 725 
Q 2881 1009 2881 1497 
Q 2881 1984 2565 2268 
Q 2250 2553 1709 2553 
Q 1456 2553 1204 2497 
Q 953 2441 691 2322 
L 691 4666 
z
" transform="scale(0.015625)"/>
       </defs>
       <use xlink:href="#DejaVuSans-35"/>
      </g>
     </g>
    </g>
    <g id="xtick_3">
     <g id="line2d_5">
      <path d="M 108.990426 139.32 
L 108.990426 0.72 
" clip-path="url(#p7e8a97212a)" style="fill: none; stroke-dasharray: 0.8,1.32; stroke-dashoffset: 0; stroke: #000000; stroke-opacity: 0.5; stroke-width: 0.8"/>
     </g>
     <g id="line2d_6">
      <g>
       <use xlink:href="#m15746a69f7" x="108.990426" y="139.32" style="stroke: #000000; stroke-width: 0.8"/>
      </g>
     </g>
     <g id="text_3">
      <!-- 10 -->
      <g transform="translate(102.627926 153.918437) scale(0.1 -0.1)">
       <defs>
        <path id="DejaVuSans-31" d="M 794 531 
L 1825 531 
L 1825 4091 
L 703 3866 
L 703 4441 
L 1819 4666 
L 2450 4666 
L 2450 531 
L 3481 531 
L 3481 0 
L 794 0 
L 794 531 
z
" transform="scale(0.015625)"/>
       </defs>
       <use xlink:href="#DejaVuSans-31"/>
       <use xlink:href="#DejaVuSans-30" x="63.623047"/>
      </g>
     </g>
    </g>
    <g id="xtick_4">
     <g id="line2d_7">
      <path d="M 151.605327 139.32 
L 151.605327 0.72 
" clip-path="url(#p7e8a97212a)" style="fill: none; stroke-dasharray: 0.8,1.32; stroke-dashoffset: 0; stroke: #000000; stroke-opacity: 0.5; stroke-width: 0.8"/>
     </g>
     <g id="line2d_8">
      <g>
       <use xlink:href="#m15746a69f7" x="151.605327" y="139.32" style="stroke: #000000; stroke-width: 0.8"/>
      </g>
     </g>
     <g id="text_4">
      <!-- 15 -->
      <g transform="translate(145.242827 153.918437) scale(0.1 -0.1)">
       <use xlink:href="#DejaVuSans-31"/>
       <use xlink:href="#DejaVuSans-35" x="63.623047"/>
      </g>
     </g>
    </g>
    <g id="xtick_5">
     <g id="line2d_9">
      <path d="M 194.220227 139.32 
L 194.220227 0.72 
" clip-path="url(#p7e8a97212a)" style="fill: none; stroke-dasharray: 0.8,1.32; stroke-dashoffset: 0; stroke: #000000; stroke-opacity: 0.5; stroke-width: 0.8"/>
     </g>
     <g id="line2d_10">
      <g>
       <use xlink:href="#m15746a69f7" x="194.220227" y="139.32" style="stroke: #000000; stroke-width: 0.8"/>
      </g>
     </g>
     <g id="text_5">
      <!-- 20 -->
      <g transform="translate(187.857727 153.918437) scale(0.1 -0.1)">
       <defs>
        <path id="DejaVuSans-32" d="M 1228 531 
L 3431 531 
L 3431 0 
L 469 0 
L 469 531 
Q 828 903 1448 1529 
Q 2069 2156 2228 2338 
Q 2531 2678 2651 2914 
Q 2772 3150 2772 3378 
Q 2772 3750 2511 3984 
Q 2250 4219 1831 4219 
Q 1534 4219 1204 4116 
Q 875 4013 500 3803 
L 500 4441 
Q 881 4594 1212 4672 
Q 1544 4750 1819 4750 
Q 2544 4750 2975 4387 
Q 3406 4025 3406 3419 
Q 3406 3131 3298 2873 
Q 3191 2616 2906 2266 
Q 2828 2175 2409 1742 
Q 1991 1309 1228 531 
z
" transform="scale(0.015625)"/>
       </defs>
       <use xlink:href="#DejaVuSans-32"/>
       <use xlink:href="#DejaVuSans-30" x="63.623047"/>
      </g>
     </g>
    </g>
    <g id="xtick_6">
     <g id="line2d_11">
      <path d="M 236.835128 139.32 
L 236.835128 0.72 
" clip-path="url(#p7e8a97212a)" style="fill: none; stroke-dasharray: 0.8,1.32; stroke-dashoffset: 0; stroke: #000000; stroke-opacity: 0.5; stroke-width: 0.8"/>
     </g>
     <g id="line2d_12">
      <g>
       <use xlink:href="#m15746a69f7" x="236.835128" y="139.32" style="stroke: #000000; stroke-width: 0.8"/>
      </g>
     </g>
     <g id="text_6">
      <!-- 25 -->
      <g transform="translate(230.472628 153.918437) scale(0.1 -0.1)">
       <use xlink:href="#DejaVuSans-32"/>
       <use xlink:href="#DejaVuSans-35" x="63.623047"/>
      </g>
     </g>
    </g>
    <g id="xtick_7">
     <g id="line2d_13">
      <path d="M 279.450028 139.32 
L 279.450028 0.72 
" clip-path="url(#p7e8a97212a)" style="fill: none; stroke-dasharray: 0.8,1.32; stroke-dashoffset: 0; stroke: #000000; stroke-opacity: 0.5; stroke-width: 0.8"/>
     </g>
     <g id="line2d_14">
      <g>
       <use xlink:href="#m15746a69f7" x="279.450028" y="139.32" style="stroke: #000000; stroke-width: 0.8"/>
      </g>
     </g>
     <g id="text_7">
      <!-- 30 -->
      <g transform="translate(273.087528 153.918437) scale(0.1 -0.1)">
       <defs>
        <path id="DejaVuSans-33" d="M 2597 2516 
Q 3050 2419 3304 2112 
Q 3559 1806 3559 1356 
Q 3559 666 3084 287 
Q 2609 -91 1734 -91 
Q 1441 -91 1130 -33 
Q 819 25 488 141 
L 488 750 
Q 750 597 1062 519 
Q 1375 441 1716 441 
Q 2309 441 2620 675 
Q 2931 909 2931 1356 
Q 2931 1769 2642 2001 
Q 2353 2234 1838 2234 
L 1294 2234 
L 1294 2753 
L 1863 2753 
Q 2328 2753 2575 2939 
Q 2822 3125 2822 3475 
Q 2822 3834 2567 4026 
Q 2313 4219 1838 4219 
Q 1578 4219 1281 4162 
Q 984 4106 628 3988 
L 628 4550 
Q 988 4650 1302 4700 
Q 1616 4750 1894 4750 
Q 2613 4750 3031 4423 
Q 3450 4097 3450 3541 
Q 3450 3153 3228 2886 
Q 3006 2619 2597 2516 
z
" transform="scale(0.015625)"/>
       </defs>
       <use xlink:href="#DejaVuSans-33"/>
       <use xlink:href="#DejaVuSans-30" x="63.623047"/>
      </g>
     </g>
    </g>
    <g id="text_8">
     <!-- Zeit [s] -->
     <g transform="translate(145.314531 163.596562) scale(0.1 -0.1)">
      <defs>
       <path id="DejaVuSans-5a" d="M 359 4666 
L 4025 4666 
L 4025 4184 
L 1075 531 
L 4097 531 
L 4097 0 
L 288 0 
L 288 481 
L 3238 4134 
L 359 4134 
L 359 4666 
z
" transform="scale(0.015625)"/>
       <path id="DejaVuSans-65" d="M 3597 1894 
L 3597 1613 
L 953 1613 
Q 991 1019 1311 708 
Q 1631 397 2203 397 
Q 2534 397 2845 478 
Q 3156 559 3463 722 
L 3463 178 
Q 3153 47 2828 -22 
Q 2503 -91 2169 -91 
Q 1331 -91 842 396 
Q 353 884 353 1716 
Q 353 2575 817 3079 
Q 1281 3584 2069 3584 
Q 2775 3584 3186 3129 
Q 3597 2675 3597 1894 
z
M 3022 2063 
Q 3016 2534 2758 2815 
Q 2500 3097 2075 3097 
Q 1594 3097 1305 2825 
Q 1016 2553 972 2059 
L 3022 2063 
z
" transform="scale(0.015625)"/>
       <path id="DejaVuSans-69" d="M 603 3500 
L 1178 3500 
L 1178 0 
L 603 0 
L 603 3500 
z
M 603 4863 
L 1178 4863 
L 1178 4134 
L 603 4134 
L 603 4863 
z
" transform="scale(0.015625)"/>
       <path id="DejaVuSans-74" d="M 1172 4494 
L 1172 3500 
L 2356 3500 
L 2356 3053 
L 1172 3053 
L 1172 1153 
Q 1172 725 1289 603 
Q 1406 481 1766 481 
L 2356 481 
L 2356 0 
L 1766 0 
Q 1100 0 847 248 
Q 594 497 594 1153 
L 594 3053 
L 172 3053 
L 172 3500 
L 594 3500 
L 594 4494 
L 1172 4494 
z
" transform="scale(0.015625)"/>
       <path id="DejaVuSans-20" transform="scale(0.015625)"/>
       <path id="DejaVuSans-5b" d="M 550 4863 
L 1875 4863 
L 1875 4416 
L 1125 4416 
L 1125 -397 
L 1875 -397 
L 1875 -844 
L 550 -844 
L 550 4863 
z
" transform="scale(0.015625)"/>
       <path id="DejaVuSans-73" d="M 2834 3397 
L 2834 2853 
Q 2591 2978 2328 3040 
Q 2066 3103 1784 3103 
Q 1356 3103 1142 2972 
Q 928 2841 928 2578 
Q 928 2378 1081 2264 
Q 1234 2150 1697 2047 
L 1894 2003 
Q 2506 1872 2764 1633 
Q 3022 1394 3022 966 
Q 3022 478 2636 193 
Q 2250 -91 1575 -91 
Q 1294 -91 989 -36 
Q 684 19 347 128 
L 347 722 
Q 666 556 975 473 
Q 1284 391 1588 391 
Q 1994 391 2212 530 
Q 2431 669 2431 922 
Q 2431 1156 2273 1281 
Q 2116 1406 1581 1522 
L 1381 1569 
Q 847 1681 609 1914 
Q 372 2147 372 2553 
Q 372 3047 722 3315 
Q 1072 3584 1716 3584 
Q 2034 3584 2315 3537 
Q 2597 3491 2834 3397 
z
" transform="scale(0.015625)"/>
       <path id="DejaVuSans-5d" d="M 1947 4863 
L 1947 -844 
L 622 -844 
L 622 -397 
L 1369 -397 
L 1369 4416 
L 622 4416 
L 622 4863 
L 1947 4863 
z
" transform="scale(0.015625)"/>
      </defs>
      <use xlink:href="#DejaVuSans-5a"/>
      <use xlink:href="#DejaVuSans-65" x="68.505859"/>
      <use xlink:href="#DejaVuSans-69" x="130.029297"/>
      <use xlink:href="#DejaVuSans-74" x="157.8125"/>
      <use xlink:href="#DejaVuSans-20" x="197.021484"/>
      <use xlink:href="#DejaVuSans-5b" x="228.808594"/>
      <use xlink:href="#DejaVuSans-73" x="267.822266"/>
      <use xlink:href="#DejaVuSans-5d" x="319.921875"/>
     </g>
    </g>
   </g>
   <g id="matplotlib.axis_2">
    <g id="ytick_1">
     <g id="line2d_15">
      <path d="M 23.760625 134.167061 
L 302.760625 134.167061 
" clip-path="url(#p7e8a97212a)" style="fill: none; stroke-dasharray: 0.8,1.32; stroke-dashoffset: 0; stroke: #000000; stroke-opacity: 0.5; stroke-width: 0.8"/>
     </g>
     <g id="line2d_16">
      <defs>
       <path id="mb7455f7de7" d="M 0 0 
L -3.5 0 
" style="stroke: #000000; stroke-width: 0.8"/>
      </defs>
      <g>
       <use xlink:href="#mb7455f7de7" x="23.760625" y="134.167061" style="stroke: #000000; stroke-width: 0.8"/>
      </g>
     </g>
     <g id="text_9">
      <!-- 0 -->
      <g transform="translate(10.398125 137.96628) scale(0.1 -0.1)">
       <use xlink:href="#DejaVuSans-30"/>
      </g>
     </g>
    </g>
    <g id="ytick_2">
     <g id="line2d_17">
      <path d="M 23.760625 98.378316 
L 302.760625 98.378316 
" clip-path="url(#p7e8a97212a)" style="fill: none; stroke-dasharray: 0.8,1.32; stroke-dashoffset: 0; stroke: #000000; stroke-opacity: 0.5; stroke-width: 0.8"/>
     </g>
     <g id="line2d_18">
      <g>
       <use xlink:href="#mb7455f7de7" x="23.760625" y="98.378316" style="stroke: #000000; stroke-width: 0.8"/>
      </g>
     </g>
     <g id="text_10">
      <!-- 1 -->
      <g transform="translate(10.398125 102.177534) scale(0.1 -0.1)">
       <use xlink:href="#DejaVuSans-31"/>
      </g>
     </g>
    </g>
    <g id="ytick_3">
     <g id="line2d_19">
      <path d="M 23.760625 62.58957 
L 302.760625 62.58957 
" clip-path="url(#p7e8a97212a)" style="fill: none; stroke-dasharray: 0.8,1.32; stroke-dashoffset: 0; stroke: #000000; stroke-opacity: 0.5; stroke-width: 0.8"/>
     </g>
     <g id="line2d_20">
      <g>
       <use xlink:href="#mb7455f7de7" x="23.760625" y="62.58957" style="stroke: #000000; stroke-width: 0.8"/>
      </g>
     </g>
     <g id="text_11">
      <!-- 2 -->
      <g transform="translate(10.398125 66.388789) scale(0.1 -0.1)">
       <use xlink:href="#DejaVuSans-32"/>
      </g>
     </g>
    </g>
    <g id="ytick_4">
     <g id="line2d_21">
      <path d="M 23.760625 26.800824 
L 302.760625 26.800824 
" clip-path="url(#p7e8a97212a)" style="fill: none; stroke-dasharray: 0.8,1.32; stroke-dashoffset: 0; stroke: #000000; stroke-opacity: 0.5; stroke-width: 0.8"/>
     </g>
     <g id="line2d_22">
      <g>
       <use xlink:href="#mb7455f7de7" x="23.760625" y="26.800824" style="stroke: #000000; stroke-width: 0.8"/>
      </g>
     </g>
     <g id="text_12">
      <!-- 3 -->
      <g transform="translate(10.398125 30.600043) scale(0.1 -0.1)">
       <use xlink:href="#DejaVuSans-33"/>
      </g>
     </g>
    </g>
    <g id="text_13">
     <!-- Kraft [N] -->
     <g transform="translate(8.318438 91.2825) rotate(-90) scale(0.1 -0.1)">
      <defs>
       <path id="DejaVuSans-4b" d="M 628 4666 
L 1259 4666 
L 1259 2694 
L 3353 4666 
L 4166 4666 
L 1850 2491 
L 4331 0 
L 3500 0 
L 1259 2247 
L 1259 0 
L 628 0 
L 628 4666 
z
" transform="scale(0.015625)"/>
       <path id="DejaVuSans-72" d="M 2631 2963 
Q 2534 3019 2420 3045 
Q 2306 3072 2169 3072 
Q 1681 3072 1420 2755 
Q 1159 2438 1159 1844 
L 1159 0 
L 581 0 
L 581 3500 
L 1159 3500 
L 1159 2956 
Q 1341 3275 1631 3429 
Q 1922 3584 2338 3584 
Q 2397 3584 2469 3576 
Q 2541 3569 2628 3553 
L 2631 2963 
z
" transform="scale(0.015625)"/>
       <path id="DejaVuSans-61" d="M 2194 1759 
Q 1497 1759 1228 1600 
Q 959 1441 959 1056 
Q 959 750 1161 570 
Q 1363 391 1709 391 
Q 2188 391 2477 730 
Q 2766 1069 2766 1631 
L 2766 1759 
L 2194 1759 
z
M 3341 1997 
L 3341 0 
L 2766 0 
L 2766 531 
Q 2569 213 2275 61 
Q 1981 -91 1556 -91 
Q 1019 -91 701 211 
Q 384 513 384 1019 
Q 384 1609 779 1909 
Q 1175 2209 1959 2209 
L 2766 2209 
L 2766 2266 
Q 2766 2663 2505 2880 
Q 2244 3097 1772 3097 
Q 1472 3097 1187 3025 
Q 903 2953 641 2809 
L 641 3341 
Q 956 3463 1253 3523 
Q 1550 3584 1831 3584 
Q 2591 3584 2966 3190 
Q 3341 2797 3341 1997 
z
" transform="scale(0.015625)"/>
       <path id="DejaVuSans-66" d="M 2375 4863 
L 2375 4384 
L 1825 4384 
Q 1516 4384 1395 4259 
Q 1275 4134 1275 3809 
L 1275 3500 
L 2222 3500 
L 2222 3053 
L 1275 3053 
L 1275 0 
L 697 0 
L 697 3053 
L 147 3053 
L 147 3500 
L 697 3500 
L 697 3744 
Q 697 4328 969 4595 
Q 1241 4863 1831 4863 
L 2375 4863 
z
" transform="scale(0.015625)"/>
       <path id="DejaVuSans-4e" d="M 628 4666 
L 1478 4666 
L 3547 763 
L 3547 4666 
L 4159 4666 
L 4159 0 
L 3309 0 
L 1241 3903 
L 1241 0 
L 628 0 
L 628 4666 
z
" transform="scale(0.015625)"/>
      </defs>
      <use xlink:href="#DejaVuSans-4b"/>
      <use xlink:href="#DejaVuSans-72" x="65.576172"/>
      <use xlink:href="#DejaVuSans-61" x="106.689453"/>
      <use xlink:href="#DejaVuSans-66" x="167.96875"/>
      <use xlink:href="#DejaVuSans-74" x="201.423828"/>
      <use xlink:href="#DejaVuSans-20" x="240.632812"/>
      <use xlink:href="#DejaVuSans-5b" x="272.419922"/>
      <use xlink:href="#DejaVuSans-4e" x="311.433594"/>
      <use xlink:href="#DejaVuSans-5d" x="386.238281"/>
     </g>
    </g>
   </g>
   <g id="line2d_23">
    <path d="M 23.760625 134.169519 
L 28.440376 134.163755 
L 30.712662 134.166256 
L 33.403276 134.157183 
L 34.049977 134.175455 
L 34.275719 134.172817 
L 35.100972 134.174136 
L 36.732212 134.167409 
L 37.522424 134.17651 
L 39.378561 134.155981 
L 40.392154 134.167145 
L 48.708576 134.172949 
L 49.17314 134.165019 
L 49.642088 134.16047 
L 50.166415 134.174136 
L 50.819158 134.158422 
L 51.317481 134.169651 
L 55.223936 134.154687 
L 55.635489 134.172817 
L 57.072241 134.161719 
L 59.171186 134.178884 
L 59.405826 134.168596 
L 67.170556 134.165017 
L 68.064414 134.153398 
L 68.959295 134.169651 
L 69.862928 134.161719 
L 70.066904 134.181918 
L 70.494515 134.166266 
L 72.83018 134.160473 
L 73.671794 134.174136 
L 74.24044 134.155935 
L 74.876544 134.175323 
L 75.236728 134.165017 
L 81.210953 134.168332 
L 83.014783 134.165017 
L 86.042509 134.165019 
L 87.395326 134.17994 
L 87.751493 134.168332 
L 302.760625 134.175323 
L 302.760625 134.175323 
" clip-path="url(#p7e8a97212a)" style="fill: none; stroke: #0000ff; stroke-opacity: 0.5; stroke-width: 3; stroke-linecap: square"/>
   </g>
   <g id="line2d_24">
    <path d="M 23.760625 21.435613 
L 23.813362 21.409629 
L 23.908242 20.453458 
L 23.967975 22.510873 
L 24.074073 19.524296 
L 24.124919 20.575545 
L 24.195767 21.801943 
L 24.312388 17.352538 
L 24.381533 18.691995 
L 24.542553 14.898067 
L 24.810544 22.156427 
L 24.879705 19.278881 
L 25.102858 23.600335 
L 25.257215 28.9846 
L 25.548409 21.676685 
L 25.720287 24.374468 
L 25.755492 24.310358 
L 25.825502 24.04194 
L 26.237324 33.393572 
L 26.305891 32.836593 
L 26.374706 32.767052 
L 26.596831 23.012075 
L 26.665485 23.340551 
L 26.726393 24.867399 
L 26.734434 23.786545 
L 27.084072 20.303718 
L 27.235359 29.361829 
L 27.373262 28.711145 
L 27.441821 30.100289 
L 27.579282 24.541936 
L 27.721245 28.46829 
L 28.145695 12.760945 
L 28.249816 14.48205 
L 28.289364 17.245717 
L 28.355412 15.417094 
L 28.440376 15.750074 
L 28.50911 18.049053 
L 28.581773 16.946971 
L 28.646697 15.90832 
L 28.784966 22.807774 
L 28.994589 19.328535 
L 29.077135 20.215444 
L 29.215125 16.845359 
L 29.431427 22.558619 
L 29.644092 17.844008 
L 29.794856 17.30507 
L 29.988868 21.102752 
L 30.288101 14.704862 
L 30.417312 19.501835 
L 30.486081 17.654561 
L 30.556044 19.031405 
L 30.629643 18.342222 
L 30.712662 15.993432 
L 30.919365 21.807731 
L 31.193454 12.925721 
L 31.451084 17.784869 
L 31.502779 20.731363 
L 31.554319 16.552608 
L 31.674402 19.706634 
L 31.830237 30.355545 
L 31.91421 29.903588 
L 32.191501 22.986157 
L 32.279024 21.689896 
L 32.403784 16.931722 
L 32.76064 20.576326 
L 32.828031 19.42799 
L 32.902532 19.983653 
L 33.056837 25.502901 
L 33.132206 24.695273 
L 33.143254 28.100293 
L 33.196431 21.638499 
L 33.279651 21.724361 
L 33.403276 19.318931 
L 33.61783 20.695612 
L 33.780415 19.397154 
L 33.843189 19.821969 
L 33.927624 20.400905 
L 33.943696 19.929883 
L 34.049977 13.353179 
L 34.085451 14.726291 
L 34.275719 19.146108 
L 34.413624 21.605369 
L 34.569685 14.156134 
L 34.791035 20.67436 
L 34.98188 15.135302 
L 35.049235 16.164601 
L 35.260935 23.126104 
L 35.358006 22.816314 
L 35.44529 23.559195 
L 35.478652 22.928191 
L 35.531465 21.506988 
L 35.643814 22.97276 
L 35.695127 22.144047 
L 35.856496 15.791107 
L 35.984409 18.222676 
L 36.045653 16.285465 
L 36.09788 17.071467 
L 36.388719 29.794139 
L 36.492629 28.809469 
L 36.637533 25.088822 
L 36.732212 25.423129 
L 36.800704 26.045538 
L 37.093347 8.620612 
L 37.522424 20.981087 
L 37.695453 17.146107 
L 37.74553 18.265668 
L 37.814532 18.241682 
L 37.882793 19.160248 
L 38.039098 15.33044 
L 38.209069 12.619659 
L 38.301474 15.019346 
L 38.380151 15.703993 
L 38.517969 24.935488 
L 38.61669 22.466113 
L 38.656285 23.239659 
L 38.831069 24.197519 
L 38.87985 23.172654 
L 39.028719 27.279019 
L 39.205928 21.418066 
L 39.257276 21.553299 
L 39.378561 18.921437 
L 39.446154 19.585925 
L 39.584526 24.227073 
L 39.739439 21.085972 
L 39.876504 25.865476 
L 39.979415 24.434942 
L 40.134056 27.836638 
L 40.28879 25.96393 
L 40.340253 25.235037 
L 40.392154 26.175547 
L 40.512307 24.726956 
L 40.667821 22.168061 
L 40.841741 23.576212 
L 40.946559 21.108648 
L 41.032199 22.495943 
L 41.092958 20.48328 
L 41.164726 22.407072 
L 41.285925 21.833604 
L 41.381094 28.650985 
L 41.527864 26.967578 
L 41.65056 26.221783 
L 41.802703 23.413548 
L 41.848228 24.424896 
L 41.8648 23.718575 
L 41.933694 23.820052 
L 42.094623 22.519305 
L 42.195956 19.699666 
L 42.294715 21.566643 
L 42.434342 25.909473 
L 42.709317 29.080723 
L 42.917381 21.894492 
L 42.932443 22.910884 
L 43.000733 21.987775 
L 43.138372 24.253201 
L 43.418018 20.797808 
L 43.520644 21.695811 
L 43.537055 21.448306 
L 43.658787 27.850392 
L 43.777095 26.16185 
L 43.916264 25.356782 
L 44.017893 21.222503 
L 44.139943 25.589614 
L 44.568425 18.685925 
L 44.723975 23.102943 
L 44.847276 16.185828 
L 45.049249 19.501299 
L 45.136086 20.461661 
L 45.152522 24.109133 
L 45.515868 23.038369 
L 45.891043 23.120568 
L 46.29176 25.690628 
L 46.666315 23.038483 
L 46.766651 17.486029 
L 46.904568 16.893509 
L 46.974255 16.910516 
L 47.231487 25.396855 
L 47.250038 23.770709 
L 47.403006 19.786483 
L 47.455721 20.605018 
L 47.471862 22.785687 
L 47.714438 25.981767 
L 47.953096 22.065219 
L 48.039768 24.314373 
L 48.110723 23.479948 
L 48.183681 22.450963 
L 48.48638 12.147431 
L 48.538344 13.75469 
L 48.622859 13.833362 
L 48.880861 15.229279 
L 48.898303 14.733024 
L 49.0373 23.447465 
L 49.17314 18.704612 
L 49.242874 18.928103 
L 49.413458 20.836943 
L 49.504039 20.570165 
L 49.551256 19.344013 
L 49.758207 25.131604 
L 49.822694 24.281835 
L 50.031075 18.380149 
L 50.118934 19.554729 
L 50.166415 21.708123 
L 50.235467 21.611508 
L 50.54606 17.122847 
L 50.733451 21.546236 
L 50.819158 20.922932 
L 50.887399 21.152904 
L 50.956403 21.334633 
L 51.044118 18.622529 
L 51.128011 12.267126 
L 51.179227 13.79511 
L 51.317481 21.692985 
L 51.59252 15.049415 
L 51.731676 20.096393 
L 51.815844 25.371987 
L 51.869045 22.264974 
L 51.953541 19.576869 
L 52.022533 19.942325 
L 52.0904 23.747451 
L 52.159644 22.879213 
L 52.279037 20.366563 
L 52.296058 20.993469 
L 52.530163 19.806342 
L 52.53045 17.89388 
L 52.614612 20.785205 
L 52.678133 21.423495 
L 52.761804 21.266368 
L 52.872223 21.611728 
L 53.00911 31.17124 
L 53.179378 29.966226 
L 53.351129 25.37257 
L 53.368254 27.045528 
L 53.436372 25.005829 
L 53.507199 23.507765 
L 53.591519 25.472544 
L 53.797191 16.644202 
L 53.985376 20.47149 
L 54.004623 20.47587 
L 54.29819 17.860696 
L 54.431712 20.414847 
L 54.572408 23.666611 
L 54.759097 21.435661 
L 54.797042 22.306868 
L 54.999368 29.25844 
L 55.155479 29.640596 
L 55.327701 25.227246 
L 55.446184 30.009462 
L 55.635489 21.055232 
L 55.772621 21.903612 
L 55.850449 21.884926 
L 55.999104 21.143214 
L 56.047401 22.423586 
L 56.081604 20.514039 
L 56.151173 19.733389 
L 56.357955 23.723139 
L 56.528542 23.057168 
L 56.721113 18.590714 
L 56.841807 19.895976 
L 56.914219 21.711219 
L 57.151458 13.815467 
L 57.256579 14.0535 
L 57.359178 19.924951 
L 57.4095 19.562707 
L 57.495689 22.474576 
L 57.636624 19.429176 
L 57.702568 21.111589 
L 57.771632 22.131973 
L 57.841395 21.190866 
L 58.063965 11.66914 
L 58.899751 22.68297 
L 58.976281 19.551228 
L 59.060209 24.459684 
L 59.171186 21.916196 
L 59.202523 22.273891 
L 59.304789 23.02111 
L 59.335887 21.977446 
L 59.405826 22.066664 
L 59.634886 24.66237 
L 59.717937 23.270021 
L 60.014652 12.786336 
L 60.112092 15.339698 
L 60.197736 14.548051 
L 60.324502 9.648505 
L 60.421304 10.251242 
L 60.473037 11.906572 
L 60.602459 11.88458 
L 60.645844 9.563208 
L 60.747476 10.638209 
L 60.764441 12.389448 
L 60.876242 11.994559 
L 61.195625 5.853333 
L 61.401619 13.911321 
L 61.469787 12.888652 
L 61.680425 22.477602 
L 61.765316 22.557278 
L 62.039627 28.124508 
L 62.401755 19.286648 
L 62.470737 22.127555 
L 62.523068 20.860653 
L 62.832335 18.030225 
L 62.887012 20.3947 
L 62.97156 20.041475 
L 63.072684 19.320595 
L 63.245862 23.672049 
L 63.314786 22.81621 
L 63.487014 17.791304 
L 63.658264 22.246937 
L 63.780545 23.430788 
L 63.971912 17.411884 
L 64.298735 27.961052 
L 64.453671 26.087666 
L 64.59279 30.492471 
L 64.676859 29.913853 
L 65.019594 18.77351 
L 65.088548 18.72863 
L 65.230623 17.671805 
L 65.295369 17.692836 
L 65.381357 18.735204 
L 65.517913 18.238871 
L 65.661255 22.530737 
L 65.73071 19.978526 
L 65.935759 25.239863 
L 66.070284 17.211134 
L 66.447389 25.219726 
L 66.585012 17.322075 
L 66.756813 22.646317 
L 66.860637 20.552495 
L 66.932147 22.672962 
L 67.006593 22.178476 
L 67.1279 20.13945 
L 67.290814 30.616947 
L 67.65148 23.847572 
L 67.722201 24.292546 
L 67.806883 24.112539 
L 68.03007 16.577369 
L 68.219505 15.896533 
L 68.390565 14.861603 
L 68.562571 10.693557 
L 68.66588 11.440004 
L 68.959295 19.14486 
L 69.068783 17.717285 
L 69.269666 20.744737 
L 69.441659 20.731224 
L 69.647141 16.94819 
L 69.717105 20.205312 
L 69.79902 18.276961 
L 70.02793 24.205259 
L 70.066904 23.077127 
L 70.148892 24.695694 
L 70.267986 23.734987 
L 70.405754 25.576986 
L 70.45922 25.244173 
L 70.494515 29.194274 
L 70.549447 27.043624 
L 70.63194 25.205956 
L 70.770769 29.731231 
L 70.837954 27.692459 
L 70.976067 32.139442 
L 70.99279 29.809016 
L 71.205191 24.404292 
L 71.335913 27.822277 
L 71.480391 16.635091 
L 71.835385 22.783048 
L 71.90208 22.401049 
L 72.041973 18.842723 
L 72.262635 28.762782 
L 72.332246 26.122786 
L 72.400212 27.134283 
L 72.539413 28.302298 
L 72.610002 26.996602 
L 72.761731 30.201953 
L 72.83018 29.414847 
L 73.036313 22.475979 
L 73.104699 24.500334 
L 73.39811 19.70823 
L 73.465936 21.989506 
L 73.535737 21.206152 
L 73.758238 26.46103 
L 73.826923 21.933583 
L 73.963947 27.859311 
L 74.032977 27.179038 
L 74.110129 30.134858 
L 74.24044 23.488944 
L 74.3099 24.542203 
L 74.412634 23.455016 
L 74.462392 21.735957 
L 74.534212 24.242643 
L 74.685475 16.745097 
L 74.738315 20.937227 
L 74.813815 19.062377 
L 74.960945 23.753864 
L 75.029716 22.212186 
L 75.100395 22.843623 
L 75.236728 22.40694 
L 75.39246 26.779071 
L 75.53066 20.295486 
L 75.747245 21.754524 
L 75.752877 21.718755 
L 75.769499 21.679896 
L 75.805184 20.883564 
L 75.947264 22.836385 
L 76.033134 18.26826 
L 76.166933 19.247756 
L 76.236242 22.171962 
L 76.306109 20.960696 
L 76.373483 18.437296 
L 76.546621 22.42592 
L 76.597792 20.824592 
L 76.667003 21.69095 
L 76.770234 23.957919 
L 76.872504 20.747453 
L 77.01108 22.315896 
L 77.117316 22.89412 
L 77.239438 18.79085 
L 77.548106 24.754904 
L 77.581048 24.348859 
L 77.804752 18.734898 
L 77.822048 21.293953 
L 77.993652 24.008639 
L 78.16809 19.53266 
L 78.255613 19.799128 
L 78.425754 24.068915 
L 78.493076 23.693925 
L 78.580109 18.56775 
L 78.666499 18.713815 
L 78.718354 23.922279 
L 78.73392 21.326501 
L 78.803414 19.633044 
L 78.975117 22.489217 
L 79.077552 21.035413 
L 79.145872 24.339851 
L 79.215349 22.867042 
L 79.283942 27.603891 
L 79.472879 22.999125 
L 79.543471 24.802636 
L 79.628135 23.973037 
L 79.830964 18.528895 
L 79.954877 19.903976 
L 80.177877 17.995942 
L 80.211987 18.541356 
L 80.68418 25.916964 
L 80.744178 22.443604 
L 80.883187 25.095785 
L 81.022599 20.045209 
L 81.071427 22.181469 
L 81.210953 23.319135 
L 81.355157 18.221309 
L 81.419372 20.122898 
L 81.571671 22.970492 
L 81.640553 26.666468 
L 81.714731 26.627705 
L 81.847662 23.202708 
L 81.949201 23.822485 
L 82.120737 29.035121 
L 82.155286 29.401222 
L 82.363368 22.741746 
L 82.415757 23.990448 
L 82.499767 27.524182 
L 82.55206 26.575442 
L 82.69101 24.715841 
L 82.723977 21.237829 
L 82.797351 22.156835 
L 82.91153 22.565868 
L 83.014783 22.276409 
L 83.087448 22.392599 
L 83.272246 16.891834 
L 83.342827 16.958461 
L 83.4098 16.743347 
L 83.448829 20.26576 
L 83.514308 17.99369 
L 83.567426 16.381047 
L 83.705986 20.141336 
L 83.87651 25.864509 
L 83.962472 25.881333 
L 84.392291 15.971334 
L 84.565338 9.356489 
L 84.770073 15.70055 
L 85.267856 24.104678 
L 85.406685 19.025822 
L 85.474234 20.936081 
L 85.543935 20.248124 
L 85.835033 22.549813 
L 85.921421 23.820285 
L 85.989775 21.529204 
L 86.042509 24.420696 
L 86.128186 23.994572 
L 86.198987 23.565257 
L 86.283062 25.502607 
L 86.369414 24.646276 
L 86.543451 20.694682 
L 86.679287 21.553326 
L 86.90228 18.253062 
L 87.131318 22.200211 
L 87.31802 15.093058 
L 87.395326 13.454886 
L 87.606514 17.075159 
L 87.675649 14.847253 
L 87.751493 14.98547 
L 87.950913 17.670402 
L 88.106074 28.496789 
L 88.174266 27.999211 
L 88.355806 29.311637 
L 88.385552 28.263227 
L 88.449939 28.524706 
L 88.603927 32.998781 
L 88.672793 32.154515 
L 88.74215 28.465763 
L 88.810651 29.64124 
L 88.879006 32.724827 
L 88.955704 31.916393 
L 89.101506 30.793803 
L 89.377526 23.796071 
L 89.446063 27.143619 
L 89.614977 22.12336 
L 89.668206 23.74673 
L 89.737647 23.680215 
L 89.806234 23.663582 
L 89.947086 23.039434 
L 90.083594 25.218458 
L 90.167956 21.158916 
L 90.237557 22.993557 
L 90.304505 22.04392 
L 90.378517 17.115244 
L 90.443135 17.488838 
L 90.655587 23.203221 
L 90.71997 21.497203 
L 90.8108 21.618634 
L 90.911099 25.35332 
L 90.942168 25.080744 
L 91.013527 24.692091 
L 91.079334 24.727829 
L 91.149726 20.176401 
L 91.218891 22.122204 
L 91.37451 19.327806 
L 91.443362 20.853752 
L 91.529926 20.233354 
L 91.57924 18.863766 
L 91.870996 24.575492 
L 91.945117 22.928667 
L 92.011783 24.452239 
L 92.115755 24.293395 
L 92.228246 23.735405 
L 92.424985 17.007888 
L 92.493767 17.59445 
L 92.630225 17.648383 
L 92.664321 19.510454 
L 92.726392 19.208894 
L 92.785099 16.765635 
L 92.922921 17.095289 
L 93.025095 16.217526 
L 93.113783 18.24055 
L 93.215498 25.195107 
L 93.369807 24.654555 
L 93.445289 22.767904 
L 93.48932 24.41931 
L 93.644459 25.610464 
L 93.799839 24.080268 
L 93.940012 18.756081 
L 94.057069 19.19977 
L 94.212355 22.808603 
L 94.350014 19.472723 
L 94.556711 24.440799 
L 94.693727 21.749349 
L 94.764026 20.155605 
L 94.78279 20.435845 
L 94.865801 20.42525 
L 94.916981 17.25276 
L 94.994 18.666843 
L 95.054249 18.31735 
L 95.24054 16.424029 
L 95.415597 19.017213 
L 95.552886 17.282544 
L 95.656028 19.15607 
L 95.724675 18.003609 
L 95.828626 21.659931 
L 95.93149 14.111216 
L 95.983669 15.758518 
L 96.051532 17.712917 
L 96.120793 14.881033 
L 96.207839 16.664507 
L 96.343635 13.007875 
L 96.430129 14.508063 
L 96.567258 9.132454 
L 96.584329 11.714371 
L 96.693461 16.205273 
L 96.790776 12.059908 
L 96.980053 21.02609 
L 97.082198 21.225197 
L 97.116496 20.643011 
L 97.254613 25.163809 
L 97.4081 22.37829 
L 97.562898 25.454194 
L 97.90985 17.779974 
L 97.977488 18.054343 
L 98.148969 21.746269 
L 98.182932 19.642675 
L 98.286377 20.129743 
L 98.406127 15.197242 
L 98.630294 22.516371 
L 98.716091 22.493603 
L 98.752278 20.014453 
L 98.836042 20.466164 
L 98.904966 24.832939 
L 98.973454 22.353232 
L 99.112449 22.481455 
L 99.177362 26.551465 
L 99.190558 26.16565 
L 99.345965 19.743909 
L 99.488284 24.824511 
L 99.608294 20.040445 
L 99.762239 25.401999 
L 99.90034 23.271049 
L 99.951431 23.425526 
L 99.989461 25.106562 
L 100.054663 24.427819 
L 100.192268 21.473221 
L 100.261837 24.15568 
L 100.606136 15.276131 
L 100.674439 15.643242 
L 100.760553 18.963331 
L 100.816671 17.829236 
L 101.002169 15.149679 
L 101.036333 16.987342 
L 101.125526 16.906526 
L 101.196427 19.585032 
L 101.380974 16.927668 
L 101.434364 20.866548 
L 101.605245 19.282097 
L 101.674729 20.377428 
L 101.749605 19.698204 
L 101.812513 22.156064 
L 101.88303 19.352038 
L 101.949166 20.491108 
L 102.018632 20.456542 
L 102.174941 19.662219 
L 102.243592 20.484769 
L 102.311573 19.362112 
L 102.38033 21.239266 
L 102.586504 19.684536 
L 102.691006 19.531381 
L 102.760807 18.252986 
L 102.828575 18.430969 
L 103.021183 21.810494 
L 103.242423 17.874782 
L 103.466094 22.411081 
L 103.729928 13.185484 
L 103.742914 20.555248 
L 103.810664 12.944102 
L 103.864677 12.932012 
L 104.019036 9.935842 
L 104.091991 10.294477 
L 104.292335 19.61035 
L 104.365006 16.818977 
L 104.448452 16.065398 
L 104.66079 23.929983 
L 104.730232 22.556929 
L 104.859961 21.971607 
L 104.894025 18.372227 
L 104.945628 20.561201 
L 105.032929 18.394419 
L 105.085915 18.881409 
L 105.223696 23.292611 
L 105.360956 19.430574 
L 105.584321 27.323937 
L 105.704173 25.32213 
L 105.739219 27.895103 
L 105.807953 26.609742 
L 105.927257 20.707367 
L 105.996065 24.371221 
L 106.064889 24.354556 
L 106.236182 20.552892 
L 106.326187 20.469248 
L 106.445756 13.041726 
L 106.633949 24.370977 
L 106.854485 17.537155 
L 106.922454 16.013971 
L 107.249268 21.434723 
L 107.386774 14.213185 
L 107.665751 23.69078 
L 107.713052 24.520761 
L 107.811186 22.973087 
L 107.903755 24.964012 
L 107.919681 24.768081 
L 108.039936 24.09484 
L 108.074805 27.478704 
L 108.143558 26.770731 
L 108.297972 23.341313 
L 108.366355 23.858018 
L 108.419664 22.795933 
L 108.503915 24.911782 
L 108.64183 21.695654 
L 108.763785 22.611095 
L 108.849237 21.129289 
L 108.864703 23.357442 
L 108.935449 22.959557 
L 109.192316 16.574402 
L 109.278125 18.201139 
L 109.567313 9.971288 
L 109.841599 16.955817 
L 109.996303 14.515197 
L 110.187596 22.656624 
L 110.201631 22.574669 
L 110.30425 22.981154 
L 110.424451 19.494598 
L 110.476792 25.374302 
L 110.564926 25.248028 
L 110.650309 28.404079 
L 110.700658 28.352161 
L 110.890098 22.894593 
L 110.980892 24.869334 
L 111.131529 23.446752 
L 111.202447 18.992396 
L 111.255776 19.569411 
L 111.366082 19.186706 
L 111.424289 19.769854 
L 111.495355 21.872334 
L 111.682442 15.864611 
L 112.010266 22.545051 
L 112.183397 20.740543 
L 112.215425 21.592988 
L 112.329088 30.679085 
L 112.439356 33.554491 
L 112.460306 32.319617 
L 112.680927 28.381511 
L 112.748972 26.607029 
L 112.903889 30.015889 
L 112.972919 24.750045 
L 113.058782 25.198768 
L 113.19795 23.916244 
L 113.488575 29.925364 
L 113.609472 28.509383 
L 113.644345 25.790612 
L 113.678987 30.044431 
L 113.747452 29.345554 
L 113.885196 25.710867 
L 114.005371 25.66138 
L 114.196699 27.350865 
L 114.282335 27.384523 
L 114.453527 20.895536 
L 114.676508 24.903928 
L 114.882306 19.35618 
L 115.105317 21.626894 
L 115.193454 23.516691 
L 115.312087 17.936403 
L 115.518046 21.883386 
L 115.589496 21.425108 
L 115.74131 20.140583 
L 115.880363 15.036439 
L 115.94725 19.587437 
L 116.102254 22.456227 
L 116.118989 21.070967 
L 116.166132 20.133137 
L 116.429605 21.05897 
L 116.53788 27.472951 
L 116.655733 25.850625 
L 116.802827 23.347875 
L 116.944773 23.455824 
L 117.013675 23.010729 
L 117.130862 23.481787 
L 117.227875 17.68544 
L 117.320206 18.570138 
L 117.510779 23.669943 
L 117.59506 23.135971 
L 117.792154 18.909475 
L 117.942094 26.115929 
L 118.034879 24.647704 
L 118.309516 17.768639 
L 118.464214 21.435754 
L 118.637394 20.524985 
L 118.739554 23.794679 
L 118.808288 15.275598 
L 118.862124 18.672067 
L 119.070726 29.704256 
L 119.277938 32.936679 
L 119.429216 22.725714 
L 119.549532 23.790553 
L 119.671371 24.768076 
L 119.859185 19.594726 
L 119.996481 14.159923 
L 120.065409 14.674903 
L 120.27236 23.764501 
L 120.341681 21.430443 
L 120.427139 21.89694 
L 120.537497 21.02877 
L 120.718987 28.764975 
L 120.739872 32.61585 
L 120.787565 30.926538 
L 120.857663 27.611109 
L 120.925505 27.787652 
L 121.014097 27.216007 
L 121.338847 18.749427 
L 121.440506 14.882206 
L 121.561546 18.465462 
L 121.705922 14.961577 
L 121.767579 19.566799 
L 121.83658 19.434328 
L 121.994153 12.28205 
L 122.072795 12.042904 
L 122.145982 12.994835 
L 122.197563 11.713702 
L 122.335869 15.916602 
L 122.438427 15.570446 
L 122.523458 13.233458 
L 122.558161 15.122673 
L 122.934916 25.916339 
L 123.072106 22.392824 
L 123.125696 24.357258 
L 123.195108 22.102034 
L 123.263283 22.25328 
L 123.364923 25.70805 
L 123.401731 24.097532 
L 123.496675 23.76675 
L 123.548506 23.142734 
L 123.635284 23.213157 
L 123.650114 28.030784 
L 123.705041 25.684485 
L 123.787832 23.828491 
L 123.893013 18.844867 
L 123.926176 20.360488 
L 124.046695 20.420209 
L 124.065894 20.205935 
L 124.114409 20.806936 
L 124.182761 20.786669 
L 124.253266 19.90727 
L 124.32077 15.781472 
L 124.406177 16.449119 
L 124.596097 21.115726 
L 124.613421 20.096062 
L 124.68231 21.701854 
L 124.836813 17.148249 
L 125.001393 17.946773 
L 125.11229 23.420609 
L 125.18441 21.03268 
L 125.283335 22.459526 
L 125.335302 27.513261 
L 125.404067 25.883063 
L 125.55983 31.458927 
L 125.747722 25.763718 
L 125.817127 24.92529 
L 125.839955 21.867077 
L 125.901806 24.495326 
L 126.058893 21.233392 
L 126.125147 22.109141 
L 126.279298 19.363422 
L 126.40147 24.717746 
L 126.469668 23.832906 
L 126.8127 14.992332 
L 126.89905 16.934635 
L 127.020606 12.342828 
L 127.105175 12.676588 
L 127.174197 12.559711 
L 127.241961 16.991573 
L 127.312452 16.687034 
L 127.380846 16.021273 
L 127.521876 20.682401 
L 127.602971 17.795029 
L 127.671065 21.329568 
L 127.794914 20.26112 
L 127.842432 20.619618 
L 127.894442 21.437038 
L 127.979884 20.882328 
L 128.050329 23.640818 
L 128.099451 22.144539 
L 128.168226 16.533881 
L 128.237631 17.933738 
L 128.305684 19.232907 
L 128.378114 16.783588 
L 128.391095 17.829001 
L 128.460044 19.485667 
L 128.52943 18.069826 
L 128.597531 19.980216 
L 128.752889 16.6521 
L 128.85614 17.990727 
L 128.88987 23.877985 
L 128.941823 19.486182 
L 129.233353 18.363115 
L 129.287593 22.045628 
L 129.336621 17.388782 
L 129.38809 18.030553 
L 129.462486 20.746875 
L 129.512559 20.108862 
L 129.737756 22.774036 
L 129.907994 25.053421 
L 129.943936 22.767895 
L 130.029897 23.581989 
L 130.287201 17.568175 
L 130.530506 12.862922 
L 130.631045 13.208878 
L 130.80237 19.101135 
L 130.871217 18.906438 
L 130.942011 19.734698 
L 131.011333 17.385632 
L 131.219023 22.206013 
L 131.300845 23.25687 
L 131.378447 21.782099 
L 131.428564 22.608602 
L 131.495198 22.669497 
L 131.820704 28.114488 
L 131.992805 25.053083 
L 132.062269 24.123002 
L 132.352891 28.613674 
L 132.490205 26.568911 
L 132.559019 28.196122 
L 132.631063 27.715875 
L 132.713795 28.005065 
L 133.063738 22.780531 
L 133.127255 24.782124 
L 133.198183 24.022347 
L 133.28126 22.977439 
L 133.349504 25.099922 
L 133.418903 22.845512 
L 133.488262 25.163108 
L 133.557125 24.04497 
L 133.712215 16.149261 
L 133.767651 20.734961 
L 133.850102 18.828756 
L 133.937461 18.863714 
L 133.988973 19.512839 
L 134.057089 18.026578 
L 134.133316 18.956874 
L 134.194924 18.434911 
L 134.272187 18.001996 
L 134.345495 18.979336 
L 134.41823 18.618778 
L 134.487731 17.864702 
L 134.627163 19.267698 
L 134.69845 18.640594 
L 135.051445 25.270855 
L 135.332762 27.334338 
L 135.469916 22.608601 
L 135.567858 23.158032 
L 135.691187 17.578812 
L 135.843694 19.501493 
L 135.9465 19.573619 
L 136.108787 26.532829 
L 136.179133 25.88406 
L 136.276567 23.836323 
L 136.396839 29.439823 
L 136.677867 27.839298 
L 136.827288 20.839338 
L 136.913426 20.615205 
L 136.96937 20.657797 
L 137.05123 18.398851 
L 137.188436 17.907538 
L 137.326455 14.863219 
L 137.411994 13.246102 
L 137.686664 21.404148 
L 137.756685 20.183201 
L 137.858315 19.918802 
L 137.928069 19.354466 
L 138.100427 23.373012 
L 138.185087 23.24669 
L 138.237121 19.27717 
L 138.323007 20.935754 
L 138.407878 20.224169 
L 138.547043 24.311286 
L 138.892764 16.802652 
L 139.043283 19.373321 
L 139.180922 14.199859 
L 139.300821 13.888929 
L 139.404365 16.491121 
L 139.45607 16.311968 
L 139.66487 17.547345 
L 139.748319 13.796181 
L 139.833322 15.715096 
L 139.886595 14.726736 
L 140.097051 11.040216 
L 140.527905 16.525751 
L 140.607036 20.820498 
L 140.675352 21.402909 
L 140.864745 23.540284 
L 140.88216 23.028421 
L 140.958712 23.405549 
L 141.042523 22.686336 
L 141.088354 23.472287 
L 141.454325 15.778579 
L 141.677727 23.882314 
L 141.78171 20.579677 
L 141.798074 21.953304 
L 142.11273 19.511336 
L 142.182493 20.549072 
L 142.39167 13.382528 
L 142.438913 15.475039 
L 142.526195 12.878353 
L 143.09125 25.85225 
L 143.298548 27.640661 
L 143.457171 23.975586 
L 143.724992 21.029646 
L 143.876626 17.380951 
L 143.945541 18.73001 
L 144.065646 16.021121 
L 144.2043 21.901205 
L 144.392067 17.641341 
L 144.425991 18.947679 
L 144.580904 19.304909 
L 144.700675 18.503154 
L 144.752107 23.097792 
L 144.821169 22.259129 
L 144.994928 15.618653 
L 145.079467 19.262352 
L 145.14834 17.504187 
L 145.21655 17.780401 
L 145.353982 20.54219 
L 145.526495 17.289244 
L 145.85301 28.037937 
L 146.07407 23.635218 
L 146.266531 24.800762 
L 146.402218 21.518887 
L 146.576499 14.186517 
L 146.626981 17.251624 
L 146.695377 17.019931 
L 146.763598 18.964305 
L 146.849252 16.776731 
L 146.918654 17.750888 
L 146.989497 17.051841 
L 147.262714 21.715621 
L 147.401872 21.137471 
L 147.416978 23.208626 
L 147.576203 22.49546 
L 147.676605 23.022877 
L 147.74707 24.001984 
L 147.845982 18.034317 
L 147.917788 18.052557 
L 148.054549 21.789634 
L 148.122359 20.754152 
L 148.244192 23.605608 
L 148.276209 22.777553 
L 148.328076 22.299815 
L 148.413874 23.336077 
L 148.620083 26.993907 
L 148.759376 19.923053 
L 148.829226 21.003087 
L 148.901454 19.517299 
L 148.980426 21.090507 
L 149.049799 20.412254 
L 149.118654 20.680646 
L 149.187124 17.671397 
L 149.25575 19.581088 
L 149.344624 18.339265 
L 149.548938 26.175227 
L 149.686634 24.463644 
L 149.892611 26.059459 
L 149.928368 29.535516 
L 150.031326 28.925958 
L 150.184802 23.656891 
L 150.253534 25.071276 
L 150.463817 22.556802 
L 150.607665 21.055874 
L 150.658416 18.199485 
L 150.683145 19.356452 
L 150.759753 20.642747 
L 150.873264 20.464502 
L 150.958877 15.62848 
L 151.028581 17.316553 
L 151.149029 17.492447 
L 151.322294 23.757951 
L 151.406604 22.554842 
L 151.81864 33.511612 
L 152.094894 29.663773 
L 152.116493 30.931893 
L 152.208229 29.344758 
L 152.276302 30.845026 
L 152.523098 25.090993 
L 152.745779 21.578897 
L 153.382021 12.705031 
L 153.587376 15.627993 
L 153.675015 13.949576 
L 153.879177 19.052943 
L 153.965174 18.91818 
L 154.226797 23.005233 
L 154.294435 21.197119 
L 154.394557 21.549068 
L 154.465566 20.033727 
L 154.535325 22.463791 
L 154.584761 21.830756 
L 154.741536 24.430609 
L 154.80892 23.665579 
L 154.877581 21.625566 
L 154.946802 22.321655 
L 155.104275 24.563565 
L 155.395393 13.641981 
L 155.515868 14.90772 
L 155.687685 18.562205 
L 155.758738 17.732731 
L 155.876155 21.867433 
L 155.945862 22.409074 
L 156.099664 26.841432 
L 156.150847 26.389252 
L 156.391851 21.97848 
L 156.442699 24.577305 
L 156.614824 22.371503 
L 156.667931 22.57929 
L 156.842932 19.727545 
L 156.872412 16.442155 
L 156.941376 17.584574 
L 157.026768 18.614194 
L 157.216307 14.959132 
L 157.422378 11.940142 
L 157.645391 16.797097 
L 157.73143 16.195166 
L 157.799772 18.545512 
L 157.956065 15.831751 
L 158.006803 17.87337 
L 158.074979 14.171679 
L 158.148794 15.367486 
L 158.213112 15.996708 
L 158.470829 19.601027 
L 158.508139 18.772566 
L 158.847575 28.329172 
L 159.13317 23.519494 
L 159.271432 23.40598 
L 159.283981 24.088261 
L 159.351921 22.257956 
L 159.423782 22.130556 
L 159.512118 21.0876 
L 159.561393 18.944904 
L 159.835545 23.041344 
L 159.854042 20.934095 
L 159.941678 22.0595 
L 160.181069 24.553647 
L 160.199792 23.624805 
L 160.407176 26.8702 
L 160.474198 25.952958 
L 160.559203 28.429051 
L 160.621 28.122131 
L 160.722391 29.029506 
L 160.921814 31.796391 
L 161.154303 26.622797 
L 161.341317 28.973686 
L 161.409491 24.432047 
L 161.47814 25.747063 
L 161.551126 24.657419 
L 161.633016 24.99618 
L 161.68745 28.783952 
L 161.770083 28.434059 
L 161.839576 28.78547 
L 162.079749 23.866142 
L 162.133898 24.745395 
L 162.407285 16.744662 
L 162.474554 17.531899 
L 162.612437 23.226936 
L 162.680787 23.158222 
L 162.749893 21.775825 
L 162.835322 22.012665 
L 162.903557 23.750224 
L 162.972275 22.145199 
L 163.10951 26.892819 
L 163.183035 25.61061 
L 163.324157 20.239526 
L 163.712455 25.615496 
L 163.748565 25.438808 
L 163.818369 24.053919 
L 163.887728 24.80496 
L 164.040796 29.94197 
L 164.179112 28.645808 
L 164.247997 29.392499 
L 164.316562 28.852781 
L 164.745979 19.20527 
L 164.814077 18.864794 
L 164.951585 14.536825 
L 164.968666 17.353632 
L 165.024169 16.231272 
L 165.106809 18.931783 
L 165.198932 18.749864 
L 165.312354 18.011261 
L 165.381071 18.053205 
L 165.590054 22.520248 
L 165.674837 21.965562 
L 165.810692 18.180481 
L 166.01693 25.905756 
L 166.171029 24.844576 
L 166.226913 25.246985 
L 166.292342 27.335792 
L 166.395527 27.227617 
L 166.531036 30.525137 
L 166.583337 29.868435 
L 166.730072 25.657001 
L 166.88664 27.09244 
L 167.029562 22.892905 
L 167.115674 25.513846 
L 167.167116 24.216064 
L 167.218663 23.613355 
L 167.294198 24.036401 
L 167.310499 22.918472 
L 167.374752 24.88936 
L 167.597852 21.536741 
L 167.669909 23.059606 
L 167.722415 22.431526 
L 167.909556 20.93602 
L 167.926948 21.881964 
L 168.010889 20.860484 
L 168.285813 25.837231 
L 168.375636 24.018272 
L 168.441517 25.496911 
L 168.510776 25.483664 
L 168.667095 22.801191 
L 168.721669 24.606316 
L 168.802968 24.041623 
L 168.879853 24.293664 
L 168.93952 23.01699 
L 169.024818 23.741728 
L 169.159725 21.11942 
L 169.351305 27.179283 
L 169.436955 23.591944 
L 169.5722 26.560789 
L 169.640962 26.523941 
L 169.728764 26.070117 
L 169.784723 29.097635 
L 169.847689 28.585871 
L 170.122305 25.619644 
L 170.192051 26.356171 
L 170.294615 20.018835 
L 170.483113 15.205018 
L 170.509537 13.533583 
L 170.586373 14.875447 
L 170.792355 11.596931 
L 170.933949 13.91504 
L 171.07766 20.59607 
L 171.141852 19.638124 
L 171.257828 19.0645 
L 171.346006 21.841686 
L 171.360721 21.80585 
L 171.550653 26.900146 
L 171.584858 25.20283 
L 171.654093 28.384999 
L 171.847189 24.797516 
L 171.919433 26.629369 
L 172.173705 22.585857 
L 172.346925 15.974059 
L 172.414252 19.41794 
L 172.483069 18.304733 
L 172.585536 20.672264 
L 172.688512 18.651056 
L 172.965248 22.892828 
L 173.067259 27.99449 
L 173.20387 25.350707 
L 173.272675 25.380756 
L 173.341855 25.731787 
L 173.410516 27.29166 
L 173.4799 24.748551 
L 173.61709 26.18015 
L 173.668012 25.955325 
L 173.7717 19.277558 
L 173.882566 20.369338 
L 173.964374 21.374509 
L 174.136357 17.559643 
L 174.300498 17.715959 
L 174.496749 23.820393 
L 174.617351 18.482743 
L 174.710152 19.482251 
L 174.858378 24.028877 
L 174.909477 23.530355 
L 175.047874 20.810245 
L 175.134367 21.84526 
L 175.202951 18.673995 
L 175.322066 27.762106 
L 175.425793 29.824797 
L 175.614825 27.168511 
L 175.751892 33.281202 
L 175.964462 28.215017 
L 176.202256 24.45553 
L 176.396897 25.002466 
L 176.541845 21.727239 
L 176.869062 29.35914 
L 177.041138 22.81969 
L 177.264466 23.800495 
L 177.316187 22.691493 
L 177.522458 25.759194 
L 177.608544 25.177393 
L 177.797843 27.915369 
L 177.866515 26.084684 
L 178.125646 29.176796 
L 178.210302 27.845895 
L 178.245326 27.852966 
L 178.312448 29.30352 
L 178.381246 28.990213 
L 178.623589 27.901071 
L 178.673369 28.174115 
L 178.741555 28.140609 
L 178.949038 23.020056 
L 179.000031 24.15882 
L 179.085269 25.824454 
L 179.223459 23.276252 
L 179.31107 25.806547 
L 179.446367 22.781541 
L 179.517213 23.11693 
L 179.618159 26.049386 
L 180.012985 19.505068 
L 180.435739 12.723389 
L 180.464145 13.101629 
L 180.615626 19.312188 
L 180.668287 17.1171 
L 180.737046 18.783763 
L 180.805675 19.17853 
L 181.011827 26.482238 
L 181.082859 27.037129 
L 181.151619 26.00942 
L 181.294007 22.621328 
L 181.391259 25.539718 
L 181.442664 25.114104 
L 181.52011 24.918788 
L 181.581257 20.874487 
L 181.649337 21.649372 
L 181.718028 21.270467 
L 181.78741 23.401497 
L 181.873153 21.843712 
L 181.9262 22.931578 
L 182.078305 20.335941 
L 182.146703 17.540177 
L 182.44012 20.840513 
L 182.531409 21.015098 
L 182.59235 20.938815 
L 182.644189 17.853285 
L 182.798334 18.175257 
L 182.867498 22.039665 
L 182.953717 21.854234 
L 183.057283 21.973198 
L 183.248531 18.472399 
L 183.401585 23.005672 
L 183.505814 21.85299 
L 183.588926 20.460371 
L 183.662575 23.870506 
L 183.7263 22.163275 
L 183.830047 20.706454 
L 183.935011 24.122755 
L 184.003229 23.20693 
L 184.140865 22.16951 
L 184.29048 19.168042 
L 184.449676 14.291931 
L 184.52037 16.351787 
L 184.692504 12.155643 
L 184.845926 15.380139 
L 185.035111 21.415381 
L 185.052417 24.342439 
L 185.137594 24.033557 
L 185.207091 21.282229 
L 185.277353 22.356952 
L 185.344593 23.518368 
L 185.501857 18.78844 
L 185.54955 21.7342 
L 185.621863 20.118344 
L 185.79079 17.334251 
L 185.927612 24.639025 
L 185.986621 23.565166 
L 186.205278 28.130461 
L 186.340331 22.079657 
L 186.443176 24.030512 
L 186.504643 23.20764 
L 186.632493 16.484957 
L 186.701436 16.950793 
L 186.838054 13.898617 
L 186.90818 14.314232 
L 187.044086 19.974765 
L 187.198618 17.230218 
L 187.255707 19.955567 
L 187.336557 19.313042 
L 187.405528 19.656005 
L 187.56258 21.982729 
L 187.698347 21.487288 
L 187.767581 19.70278 
L 188.057937 24.342798 
L 188.144615 24.59063 
L 188.196515 23.17501 
L 188.332158 25.496019 
L 188.469944 27.006543 
L 188.755106 23.152576 
L 188.830981 20.821485 
L 188.899757 23.098787 
L 188.98584 21.365602 
L 189.037019 24.460409 
L 189.114235 23.201365 
L 189.249154 22.16815 
L 189.319362 21.724329 
L 189.585987 24.971868 
L 189.741987 19.397098 
L 189.812849 19.151954 
L 189.999712 16.747203 
L 190.051477 16.688482 
L 190.205858 14.048195 
L 190.31088 20.270566 
L 190.394348 20.073456 
L 190.532052 16.441737 
L 190.875346 24.31674 
L 190.932079 23.709238 
L 191.030007 19.110466 
L 191.09958 19.692649 
L 191.167827 20.167695 
L 191.373682 22.577574 
L 191.447684 21.957388 
L 191.597478 19.953868 
L 191.775728 25.210871 
L 191.820791 22.673626 
L 191.891621 24.975924 
L 192.027607 22.983569 
L 192.146746 24.165556 
L 192.250787 21.32297 
L 192.370774 22.695464 
L 192.440316 22.491796 
L 192.59451 27.055421 
L 192.680315 26.658574 
L 192.801222 27.758665 
L 192.937894 27.552326 
L 193.042638 30.312898 
L 193.231692 28.015687 
L 193.525076 17.824743 
L 193.595627 17.568881 
L 193.749724 14.726657 
L 193.800904 15.759357 
L 193.936736 16.218538 
L 194.14655 25.611874 
L 194.299751 25.055016 
L 194.377852 26.620199 
L 194.442026 26.504174 
L 194.718493 23.052823 
L 195.301086 30.670676 
L 195.369847 27.60905 
L 195.422861 28.288356 
L 195.57726 25.077327 
L 195.650942 22.541107 
L 195.720185 24.388175 
L 195.782834 24.252943 
L 195.869533 23.767249 
L 195.929017 20.894584 
L 196.007118 21.048193 
L 196.102655 22.228374 
L 196.231453 19.082105 
L 196.318345 19.782898 
L 196.369926 20.971111 
L 196.575972 17.323811 
L 196.593502 20.436779 
L 196.646054 19.074999 
L 196.785513 14.789399 
L 196.940053 17.811702 
L 197.21275 25.929494 
L 197.284059 26.232997 
L 197.352169 25.505515 
L 197.489295 30.10055 
L 197.575441 30.300917 
L 197.988842 20.608165 
L 198.056962 25.264719 
L 198.165301 23.905133 
L 198.298094 25.631113 
L 198.504179 17.725619 
L 198.598186 17.9116 
L 198.611252 17.794338 
L 198.69644 20.028383 
L 198.9061 12.948456 
L 198.973793 12.554877 
L 199.059329 13.589461 
L 199.266135 18.52075 
L 199.334832 18.147869 
L 199.45492 16.832763 
L 199.488832 17.015048 
L 199.629705 18.42792 
L 199.763576 21.982554 
L 199.850802 21.412437 
L 199.901306 24.133178 
L 200.125054 19.652499 
L 200.22877 19.484272 
L 200.399566 16.475421 
L 200.623364 19.426935 
L 200.821066 21.060603 
L 201.208833 27.021008 
L 201.36174 22.856055 
L 201.447898 22.46656 
L 201.502381 22.759939 
L 201.56929 22.604036 
L 201.621086 20.835003 
L 201.673476 21.96029 
L 201.779275 21.743266 
L 201.83946 20.827577 
L 201.914501 17.263255 
L 201.999171 18.023382 
L 202.155789 20.868172 
L 202.260243 17.997994 
L 202.360156 18.42375 
L 202.399267 16.404346 
L 202.463964 18.344893 
L 202.534218 17.607113 
L 202.601965 20.040798 
L 202.671955 18.966977 
L 202.777375 18.451945 
L 202.83057 14.797877 
L 202.904805 16.73956 
L 203.101872 20.546414 
L 203.184666 18.722301 
L 203.236645 20.025536 
L 203.320823 20.171188 
L 203.545044 27.717814 
L 203.666063 28.940877 
L 204.041926 24.21222 
L 204.18009 22.49508 
L 204.420685 16.522451 
L 204.454956 16.599832 
L 204.52363 17.235012 
L 204.609356 19.14813 
L 204.662244 18.009813 
L 204.743345 18.623105 
L 204.86739 18.480224 
L 205.022271 20.466389 
L 205.126118 23.340169 
L 205.161928 22.735975 
L 205.332023 21.024304 
L 205.420251 24.209455 
L 205.452037 23.679895 
L 205.555396 24.123164 
L 205.661807 25.065935 
L 205.851218 18.635985 
L 205.86849 21.814699 
L 206.091254 18.246795 
L 206.159945 20.904007 
L 206.229375 19.50238 
L 206.400859 13.999738 
L 206.589533 21.182911 
L 206.733523 18.058907 
L 206.796723 19.270905 
L 206.950143 17.29241 
L 207.226156 23.761761 
L 207.310825 23.513538 
L 207.466759 28.084734 
L 208.058607 16.852733 
L 208.092858 17.820126 
L 208.161333 16.010027 
L 208.283962 22.983166 
L 208.357046 23.913961 
L 208.573134 29.511749 
L 208.667066 31.412786 
L 208.710962 30.205656 
L 208.802925 30.024071 
L 209.073688 24.444826 
L 209.348415 27.778733 
L 209.483831 27.960173 
L 209.502968 27.858596 
L 209.572043 29.124258 
L 209.709857 24.762175 
L 209.778122 25.959139 
L 209.863968 24.66333 
L 209.920818 25.979767 
L 210.070045 15.785205 
L 210.18366 16.166295 
L 210.209179 15.104169 
L 210.471478 22.352074 
L 210.502858 18.415975 
L 210.639896 18.113148 
L 210.782489 21.828442 
L 210.950484 27.404765 
L 211.00005 27.309231 
L 211.239709 19.614099 
L 211.463367 22.53698 
L 211.550742 21.594737 
L 211.619606 21.244618 
L 211.703734 19.958664 
L 211.78965 20.823053 
L 211.9104 23.163358 
L 212.408345 13.581958 
L 212.478151 16.565121 
L 212.547592 14.327644 
L 212.562731 19.537376 
L 212.614753 18.987664 
L 212.838601 25.576302 
L 213.043702 20.61195 
L 213.13054 21.130053 
L 213.266671 21.587827 
L 213.336349 22.566214 
L 213.476235 14.907239 
L 213.696688 21.123012 
L 213.833863 21.832792 
L 213.90343 17.543621 
L 213.988949 18.545187 
L 214.041597 17.779807 
L 214.218671 23.62308 
L 214.323181 19.404725 
L 214.352803 20.54393 
L 214.611949 29.809139 
L 214.680493 27.601044 
L 214.749925 28.326955 
L 214.860996 29.549033 
L 214.89253 25.93868 
L 214.958509 27.579774 
L 215.041998 26.682131 
L 215.318586 20.358585 
L 215.403933 21.469044 
L 215.471931 20.228567 
L 215.592649 20.852507 
L 215.695805 25.190763 
L 215.769548 24.720965 
L 215.904531 26.220322 
L 216.09357 30.363161 
L 216.676417 16.289831 
L 217.070262 27.339548 
L 217.15597 26.795461 
L 217.262842 27.562298 
L 217.346094 29.326681 
L 217.416738 28.852853 
L 217.606007 24.737575 
L 217.674544 25.299916 
L 217.731272 24.022823 
L 217.831344 24.570799 
L 217.914857 26.190449 
L 218.035137 23.436575 
L 218.086582 26.319065 
L 218.224142 20.432442 
L 218.360783 23.186732 
L 218.41271 22.303284 
L 218.596385 20.573798 
L 218.655419 23.421716 
L 218.739475 22.406001 
L 218.802612 22.481297 
L 218.945311 25.726214 
L 219.168597 20.025004 
L 219.307737 22.711366 
L 219.36001 21.312696 
L 219.375756 19.125612 
L 219.443865 21.674218 
L 219.58394 18.312922 
L 219.823518 20.733695 
L 219.878805 25.118171 
L 219.931164 25.022083 
L 220.082035 21.641854 
L 220.172324 22.244954 
L 220.263361 24.93173 
L 220.313508 24.17889 
L 220.381819 24.218353 
L 220.503217 23.237552 
L 220.570883 23.289623 
L 220.658721 21.604798 
L 220.725668 22.619469 
L 220.870628 22.104186 
L 221.137828 28.432354 
L 221.292141 24.654045 
L 221.414246 26.417495 
L 221.500732 27.066447 
L 221.639733 20.021495 
L 221.757645 21.869634 
L 221.895098 16.368571 
L 221.997744 19.760605 
L 222.054095 18.227968 
L 222.067267 18.217779 
L 222.303414 27.161881 
L 222.428157 25.104998 
L 222.49862 28.319439 
L 222.566502 28.261279 
L 222.789738 22.595058 
L 222.858315 23.073091 
L 222.943527 24.242372 
L 223.002599 21.175372 
L 223.063515 23.518463 
L 223.137165 24.575312 
L 223.236788 21.82283 
L 223.494346 30.105257 
L 223.630884 28.235588 
L 223.699963 28.919138 
L 223.992413 22.589368 
L 224.079305 21.535546 
L 224.287555 16.171081 
L 224.353489 16.258799 
L 224.369238 13.653105 
L 224.421782 16.833053 
L 224.627275 22.985775 
L 224.713816 23.834691 
L 224.833892 22.234351 
L 224.90272 22.766757 
L 224.988213 20.958958 
L 225.058731 21.242115 
L 225.124868 21.94425 
L 225.263071 18.31787 
L 225.400343 18.463638 
L 225.525586 19.93518 
L 225.624673 23.993124 
L 225.784601 24.884352 
L 225.880328 24.926042 
L 225.968188 28.265271 
L 226.053091 27.275378 
L 226.191475 24.87262 
L 226.258604 26.739529 
L 226.331905 25.699098 
L 226.415129 26.173479 
L 226.48601 25.740621 
L 226.709433 20.736058 
L 226.932636 24.155943 
L 227.070454 21.695801 
L 227.107247 24.296442 
L 227.192072 22.475557 
L 227.265777 23.827199 
L 227.466317 20.047497 
L 227.638824 17.342508 
L 227.689993 15.434293 
L 227.810319 16.385836 
L 227.87867 13.75289 
L 227.913028 15.305855 
L 228.016564 15.139963 
L 228.035855 17.674745 
L 228.102648 17.622148 
L 228.176658 18.202919 
L 228.325576 20.243422 
L 228.602067 17.227325 
L 228.687764 17.749692 
L 228.739195 18.95378 
L 228.806829 18.920303 
L 228.908442 20.246367 
L 229.03365 17.152022 
L 229.371434 19.529596 
L 229.405794 17.702314 
L 229.478215 20.724052 
L 229.543127 19.731615 
L 229.595199 18.600102 
L 229.663452 19.474023 
L 229.824868 22.659679 
L 229.886382 22.095258 
L 230.097175 27.394341 
L 230.298909 24.295801 
L 230.370508 24.908862 
L 230.454408 23.137093 
L 230.59201 25.11015 
L 230.661566 24.268709 
L 230.969243 16.53372 
L 231.056438 18.243279 
L 231.08941 16.477116 
L 231.188184 17.301229 
L 231.301318 14.570743 
L 231.52015 19.24836 
L 231.587944 16.425771 
L 231.810038 21.229 
L 231.861838 19.927533 
L 232.032707 22.391193 
L 232.085851 19.252136 
L 232.358898 23.514838 
L 232.44506 22.376761 
L 232.514693 23.0109 
L 232.582114 23.716722 
L 232.651451 23.650594 
L 232.86 18.062514 
L 232.926112 17.089343 
L 233.014062 20.223804 
L 233.080982 19.878595 
L 233.151312 19.764986 
L 233.217662 18.302866 
L 233.510835 22.797542 
L 233.716025 20.831327 
L 233.85975 22.110105 
L 233.922595 19.31744 
L 234.010871 19.823776 
L 234.076435 19.294832 
L 234.283196 22.660865 
L 234.425344 20.014092 
L 234.492476 20.40916 
L 234.644855 22.144986 
L 234.712389 19.035417 
L 234.78048 20.080523 
L 234.919768 18.372768 
L 234.997349 20.165733 
L 235.056549 19.751557 
L 235.281275 15.043989 
L 235.417004 19.110007 
L 235.485695 17.643861 
L 235.556229 16.341932 
L 235.624257 18.869014 
L 235.711081 18.042916 
L 235.778729 18.757913 
L 235.849804 21.61683 
L 235.918523 21.194406 
L 236.074348 19.745307 
L 236.088649 26.096332 
L 236.157448 23.013575 
L 236.262169 26.884314 
L 236.345815 25.565965 
L 236.484786 27.741576 
L 236.586785 27.61242 
L 236.776516 30.050683 
L 236.914707 24.844349 
L 236.982413 27.200218 
L 237.050696 26.403211 
L 237.131504 25.914899 
L 237.137717 27.200041 
L 237.205486 18.992839 
L 237.382185 22.484013 
L 237.447154 23.047504 
L 237.54922 20.218724 
L 237.617299 20.932934 
L 237.702978 20.67565 
L 237.755471 20.853908 
L 237.836528 21.90316 
L 237.97802 27.650345 
L 238.064497 28.432035 
L 238.116028 26.835725 
L 238.185964 27.911356 
L 238.35726 30.153629 
L 238.752317 12.170817 
L 238.922765 10.230127 
L 239.11505 15.303306 
L 239.250611 20.423099 
L 239.320953 24.939806 
L 239.404257 24.422689 
L 239.542003 27.217283 
L 239.59984 31.226449 
L 239.632315 29.530504 
L 239.959102 21.369404 
L 240.042355 19.581405 
L 240.134668 22.837123 
L 240.196001 21.561684 
L 240.283832 19.019326 
L 240.316418 20.577256 
L 240.437625 21.327783 
L 240.557955 22.486189 
L 240.608578 23.877777 
L 240.676976 23.821419 
L 240.746856 22.288321 
L 240.900823 16.469633 
L 240.969684 17.662804 
L 241.021747 17.260555 
L 241.107409 13.267401 
L 241.657575 26.345016 
L 241.727321 23.798871 
L 241.829942 29.672156 
L 241.89771 28.518278 
L 242.326577 17.26889 
L 242.344746 17.502387 
L 242.430522 19.530821 
L 242.5176 14.698724 
L 242.602021 13.441692 
L 242.739717 15.688949 
L 242.85972 16.111621 
L 242.946306 14.842537 
L 243.014396 17.473288 
L 243.100245 15.708466 
L 243.18572 16.197175 
L 243.255677 15.948247 
L 243.306929 16.302537 
L 243.375706 16.119137 
L 243.462614 13.934798 
L 243.60909 16.752587 
L 243.690779 18.788077 
L 243.790511 16.547982 
L 243.944999 23.11384 
L 244.133642 22.567209 
L 244.223348 23.943364 
L 244.236628 23.097324 
L 244.30599 22.964699 
L 244.394271 22.181098 
L 244.494528 22.440724 
L 244.515002 20.427751 
L 244.581951 22.60239 
L 244.65043 22.211224 
L 244.805138 24.005944 
L 245.0111 26.582158 
L 245.087227 26.331949 
L 245.285648 19.858862 
L 245.390734 19.62862 
L 245.509771 20.168633 
L 245.647326 20.192177 
L 245.663429 21.504494 
L 245.715393 20.023643 
L 245.785047 19.587186 
L 246.004546 26.323986 
L 246.074745 25.346993 
L 246.211324 23.807663 
L 246.282755 23.560329 
L 246.364883 19.596573 
L 246.502025 23.515524 
L 246.707381 19.284872 
L 246.93043 23.546576 
L 246.999114 23.221453 
L 247.06791 23.966038 
L 247.139167 23.40447 
L 247.343957 19.045109 
L 247.41525 19.220165 
L 247.566619 16.057114 
L 247.634697 16.89474 
L 247.705279 17.243767 
L 247.772318 18.409561 
L 247.843422 17.373213 
L 247.995877 21.68104 
L 248.064329 21.306069 
L 248.133645 21.487602 
L 248.202282 19.467283 
L 248.278597 20.407484 
L 248.341798 18.938417 
L 248.415349 19.497806 
L 248.51738 19.167275 
L 248.562668 19.357376 
L 248.633956 19.510343 
L 248.768948 20.786869 
L 248.837855 18.494479 
L 248.907824 19.759661 
L 248.924136 22.421018 
L 248.992829 19.883824 
L 249.198956 22.615585 
L 249.490542 20.74225 
L 249.6807 25.78618 
L 249.731575 26.701113 
L 249.869477 22.908941 
L 249.920144 22.907386 
L 250.110413 26.661589 
L 250.199359 26.926933 
L 250.281467 26.71255 
L 250.333232 26.985324 
L 250.430033 26.536625 
L 250.470381 27.959043 
L 250.908735 16.088891 
L 250.976916 15.071413 
L 251.184116 18.101652 
L 251.407177 18.961724 
L 251.612786 18.313994 
L 251.69921 16.339332 
L 251.835592 9.127995 
L 252.007109 12.652931 
L 252.041641 10.455194 
L 252.144937 11.187637 
L 252.28271 10.369578 
L 252.403178 15.059418 
L 252.472812 19.897037 
L 252.677826 14.669272 
L 252.781074 16.220314 
L 252.832372 14.076806 
L 252.988974 17.280994 
L 253.182577 12.249341 
L 253.356169 15.740645 
L 253.392105 16.564602 
L 253.462728 16.40843 
L 253.532832 24.353886 
L 253.612989 21.165252 
L 253.753102 19.386296 
L 253.924196 20.857972 
L 253.995282 18.297267 
L 254.043686 18.704862 
L 254.094981 20.179364 
L 254.330831 17.171162 
L 254.425175 19.109574 
L 254.456219 20.893541 
L 254.524629 20.448056 
L 254.629591 23.494807 
L 254.679849 23.429508 
L 254.749586 23.097673 
L 254.81831 23.582702 
L 255.041706 26.694944 
L 255.099924 26.686386 
L 255.163403 26.948025 
L 255.231178 26.549169 
L 255.39554 28.893928 
L 255.508621 27.909538 
L 255.736461 22.386726 
L 255.867496 24.293187 
L 255.884614 23.151931 
L 256.004664 24.483245 
L 256.048515 19.17406 
L 256.090808 20.780544 
L 256.16099 20.297168 
L 256.453434 24.846183 
L 256.513204 22.107401 
L 256.593512 22.880089 
L 256.734259 21.704969 
L 256.762062 25.095383 
L 256.814272 23.403763 
L 256.954329 24.21305 
L 257.095996 27.210138 
L 257.159144 26.064864 
L 257.32329 29.029991 
L 257.392247 28.692291 
L 257.48721 25.752467 
L 257.52332 27.948464 
L 257.591169 29.389573 
L 257.899653 19.393642 
L 257.933425 20.622216 
L 258.106273 17.896059 
L 258.156807 20.469067 
L 258.346612 16.417716 
L 258.380543 16.930062 
L 258.588363 21.59661 
L 258.744055 20.647773 
L 258.811051 23.211366 
L 258.861834 21.617983 
L 258.934635 22.334424 
L 259.01654 20.659847 
L 259.225813 22.008091 
L 259.274979 18.877853 
L 259.309164 21.342013 
L 259.497922 17.065321 
L 259.570297 15.941393 
L 259.636853 17.658827 
L 259.705226 17.377763 
L 259.721458 16.824295 
L 259.790509 17.279691 
L 259.879799 16.417219 
L 259.929218 17.199524 
L 260.014294 16.25466 
L 260.083466 19.456082 
L 260.134549 19.442446 
L 260.237748 19.719888 
L 260.306152 20.860342 
L 260.361245 19.578125 
L 260.445051 25.265579 
L 260.51785 23.738032 
L 260.601222 24.625001 
L 260.754155 22.767975 
L 260.872793 22.998238 
L 260.959003 19.517997 
L 261.027699 19.658908 
L 261.080195 19.453306 
L 261.167341 18.173512 
L 261.183572 13.205611 
L 261.256318 15.008218 
L 261.325773 15.904881 
L 261.439944 22.062988 
L 261.491179 20.043697 
L 261.560871 20.801996 
L 261.654123 21.069454 
L 261.703527 19.789636 
L 261.93932 23.95638 
L 262.059359 21.21113 
L 262.213637 16.945229 
L 262.346146 17.011287 
L 262.353696 13.680335 
L 262.419991 15.598533 
L 262.488396 15.553493 
L 262.597434 14.604228 
L 262.628386 16.559652 
L 262.695166 16.279604 
L 262.763402 15.21092 
L 263.055344 21.829197 
L 263.124507 21.850903 
L 263.193009 20.301257 
L 263.264541 21.801026 
L 263.331782 19.479823 
L 263.40013 19.65876 
L 263.488034 19.285907 
L 263.622395 20.309371 
L 263.678533 15.991562 
L 263.691405 19.7139 
L 263.846358 26.302565 
L 263.932368 27.215062 
L 264.121102 23.285849 
L 264.19197 22.41202 
L 264.326448 22.984737 
L 264.344082 24.136442 
L 264.552105 16.619645 
L 264.692785 12.654183 
L 264.782097 13.269194 
L 264.969757 10.882719 
L 265.05512 10.379028 
L 265.106885 10.54097 
L 265.242938 10.844987 
L 265.296157 11.676282 
L 265.467476 17.346219 
L 265.520661 18.573931 
L 265.570993 18.319733 
L 265.641052 18.496002 
L 265.69275 18.190566 
L 265.880217 21.449924 
L 265.897651 25.124466 
L 265.992939 24.300463 
L 266.121642 21.447082 
L 266.452523 29.409284 
L 266.524387 29.233969 
L 266.541873 31.046169 
L 266.641115 28.63875 
L 266.692605 31.173397 
L 266.744382 30.334731 
L 266.891126 30.906081 
L 267.117193 24.054662 
L 267.17767 24.062018 
L 267.246766 22.873942 
L 267.348521 23.514528 
L 267.484691 20.809267 
L 267.484822 21.223375 
L 267.605152 21.914074 
L 267.830059 27.608066 
L 267.966609 21.658787 
L 268.175738 18.056974 
L 268.29346 18.860692 
L 268.328529 18.274941 
L 268.447774 18.555305 
L 268.553258 15.347037 
L 268.671639 19.240124 
L 268.756761 19.867403 
L 268.844815 18.612077 
L 268.889045 19.555134 
L 268.998441 19.227319 
L 269.031973 20.044855 
L 269.170176 17.133144 
L 269.546686 23.955032 
L 269.597975 22.509316 
L 269.676678 22.759566 
L 269.736422 25.064205 
L 269.828255 25.780381 
L 270.01614 23.421247 
L 270.097799 27.625879 
L 270.305041 26.905993 
L 270.374928 26.906501 
L 270.443696 22.309862 
L 270.509702 24.390581 
L 270.698483 27.548745 
L 270.752062 26.340842 
L 270.820324 20.718633 
L 270.869824 21.518372 
L 270.938697 21.434482 
L 271.058883 22.980031 
L 271.076386 20.786229 
L 271.147534 25.143261 
L 271.377159 21.406167 
L 271.442935 21.554105 
L 271.518465 26.409974 
L 271.6507 21.306003 
L 271.747264 20.451238 
L 271.799966 21.483215 
L 271.869019 16.320948 
L 271.93574 16.429554 
L 272.039061 16.843068 
L 272.11263 17.819883 
L 272.141926 20.246143 
L 272.210589 17.336569 
L 272.426266 23.141107 
L 272.519511 21.286312 
L 272.674123 27.299584 
L 272.726212 27.949224 
L 272.811124 27.654494 
L 272.897388 27.135258 
L 273.068949 31.136952 
L 273.138315 30.808848 
L 273.224436 32.711182 
L 273.36184 27.797808 
L 273.707466 22.522154 
L 273.860562 17.447694 
L 274.191333 20.592564 
L 274.220858 20.006112 
L 274.359919 20.492198 
L 274.411179 20.940321 
L 274.496061 20.592555 
L 274.58183 23.052571 
L 274.633343 22.895629 
L 274.806045 21.705708 
L 274.925902 23.276447 
L 275.064071 20.423789 
L 275.237017 23.336408 
L 275.273374 21.906745 
L 275.390132 22.727378 
L 275.441481 25.731296 
L 275.493199 23.763144 
L 275.580968 23.039989 
L 275.702122 24.774653 
L 275.768116 24.704345 
L 275.872529 23.195819 
L 275.906454 20.939047 
L 275.974812 21.880824 
L 276.265967 18.016276 
L 276.405957 22.880131 
L 276.473701 25.082815 
L 276.489208 22.927707 
L 276.562618 22.705507 
L 276.662832 22.834071 
L 276.798469 20.059062 
L 276.867478 20.62906 
L 276.987605 23.985923 
L 277.194488 20.521708 
L 277.388421 21.955932 
L 277.47132 24.055968 
L 277.692263 22.440905 
L 277.762001 22.786711 
L 277.898677 19.103751 
L 277.966839 19.265434 
L 278.05229 18.698976 
L 278.139161 19.833141 
L 278.19022 18.10791 
L 278.275701 18.282537 
L 278.3482 16.808851 
L 278.39738 18.120087 
L 278.464944 15.449437 
L 278.628696 19.302711 
L 278.723211 19.557837 
L 278.825936 17.521649 
L 279.049059 20.907474 
L 279.113978 20.002137 
L 279.182493 21.925666 
L 279.318004 20.620706 
L 279.67728 27.141796 
L 279.920664 23.985731 
L 279.96107 26.089367 
L 280.108413 24.673845 
L 280.177399 25.062923 
L 280.349706 22.852673 
L 280.418834 20.267714 
L 280.453986 21.365378 
L 280.607156 25.349687 
L 280.660725 23.782299 
L 280.744583 24.203094 
L 280.904625 24.992121 
L 281.019531 27.526308 
L 281.24195 24.142261 
L 281.312889 25.626024 
L 281.380149 24.939568 
L 281.451321 25.264007 
L 281.52061 26.793075 
L 281.591063 25.435877 
L 281.673588 25.666619 
L 281.878514 28.100557 
L 281.9485 24.422572 
L 282.033585 25.128445 
L 282.15621 26.770168 
L 282.224415 24.499481 
L 282.308817 26.086475 
L 282.381208 25.915888 
L 282.541524 23.650716 
L 282.550105 25.697519 
L 282.584783 22.081167 
L 282.740623 17.561705 
L 282.877724 18.056035 
L 282.949544 18.071467 
L 283.018304 18.47064 
L 283.083966 18.108429 
L 283.429045 31.904341 
L 283.58307 28.008452 
L 283.651237 28.675987 
L 283.858615 18.992173 
L 283.940988 19.337959 
L 284.013462 13.422434 
L 284.081842 14.779152 
L 284.236546 11.977036 
L 284.479111 16.270455 
L 284.632049 18.133085 
L 284.717581 23.56938 
L 284.837165 23.003875 
L 284.895476 24.110682 
L 285.025542 30.810139 
L 285.198755 31.843946 
L 285.283878 30.025324 
L 285.318211 34.158648 
L 285.369509 32.16092 
L 285.456252 28.689 
L 285.561273 28.73028 
L 285.869145 22.781289 
L 285.952076 25.124164 
L 285.986472 22.377944 
L 286.057992 22.398752 
L 286.124742 22.763119 
L 286.211257 19.41279 
L 286.280233 19.980016 
L 286.349647 20.204191 
L 286.468099 21.367426 
L 286.588235 26.712135 
L 286.643332 26.30263 
L 286.69233 23.579988 
L 286.806004 24.301533 
L 286.846679 23.57987 
L 286.939861 24.021366 
L 287.019567 23.268416 
L 287.330914 11.816418 
L 287.413528 12.878624 
L 287.56787 17.003172 
L 287.637097 16.242618 
L 287.936484 23.153909 
L 288.016418 22.038008 
L 288.188231 19.991028 
L 288.279565 17.207832 
L 288.342209 18.452139 
L 288.569463 15.779889 
L 288.779816 14.139995 
L 288.976693 17.196328 
L 289.046391 15.872226 
L 289.201576 15.980139 
L 289.27081 14.46335 
L 289.423823 17.966007 
L 289.613169 18.456002 
L 289.767941 21.232023 
L 289.820876 20.750319 
L 289.906788 21.673002 
L 289.975986 21.37973 
L 290.264877 23.753864 
L 290.471866 20.632755 
L 290.664585 23.119195 
L 290.712436 26.978946 
L 290.781423 26.606069 
L 290.918463 23.251384 
L 291.030065 22.594812 
L 291.118954 22.698187 
L 291.199185 22.908591 
L 291.340446 21.291504 
L 291.427749 16.457559 
L 291.464638 17.973342 
L 291.623478 21.466514 
L 291.693532 21.132843 
L 291.747019 21.657743 
L 291.829832 21.646588 
L 291.932942 20.41424 
L 292.056106 23.173906 
L 292.10693 22.031641 
L 292.345437 15.996001 
L 292.465605 16.777208 
L 292.534053 16.318823 
L 293.101678 29.035842 
L 293.170674 28.71184 
L 293.256734 28.935877 
L 293.324886 30.781372 
L 293.606296 23.244675 
L 293.668832 28.156897 
L 293.738263 28.014148 
L 293.823582 27.391018 
L 293.876542 27.96851 
L 294.014154 22.946542 
L 294.082192 23.164795 
L 294.168652 22.758122 
L 294.270227 23.77183 
L 294.563724 15.953208 
L 294.616688 16.88334 
L 294.668148 20.172696 
L 294.806885 15.217546 
L 294.877902 16.707686 
L 294.946822 15.355898 
L 295.01794 16.315377 
L 295.241974 22.552464 
L 295.42708 24.67167 
L 295.587917 29.840526 
L 295.65211 29.594571 
L 296.082126 22.648152 
L 296.097705 26.552778 
L 296.247873 20.782165 
L 296.286746 21.114344 
L 296.50944 24.352306 
L 296.647354 19.967994 
L 297.016619 28.67749 
L 297.09002 28.570775 
L 297.163987 30.155098 
L 297.214127 28.5456 
L 297.295217 32.291837 
L 297.364402 31.399944 
L 297.514933 25.829735 
L 297.602343 26.013004 
L 297.883524 19.140152 
L 297.929554 21.13336 
L 297.997128 18.442582 
L 298.082629 19.054119 
L 298.169045 21.441039 
L 298.220258 18.335113 
L 298.288667 19.160799 
L 298.391786 19.386692 
L 298.598824 16.898316 
L 298.705202 20.364359 
L 298.92386 15.20074 
L 299.03377 13.484799 
L 299.219863 17.332259 
L 299.285813 17.79215 
L 299.355169 15.946568 
L 299.458281 16.106439 
L 299.520256 16.83501 
L 299.801681 23.952159 
L 299.85535 23.000756 
L 300.009522 26.001283 
L 300.12893 25.66974 
L 300.249437 23.415545 
L 300.283173 25.488634 
L 300.339452 23.086511 
L 300.751158 12.014064 
L 300.818206 12.860449 
L 300.909523 13.921383 
L 301.041743 13.41628 
L 301.076216 16.602303 
L 301.184612 14.478628 
L 301.41946 24.684183 
L 301.490828 22.279005 
L 301.574047 22.822052 
L 301.660604 23.308028 
L 301.711969 19.114196 
L 301.797014 24.242873 
L 301.831786 22.84773 
L 302.068086 17.889729 
L 302.296493 21.889995 
L 302.381509 19.785617 
L 302.415963 23.417295 
L 302.477011 19.693689 
L 302.555212 17.149583 
L 302.691216 18.013036 
L 302.744159 17.587531 
L 302.760625 18.664309 
L 302.760625 18.664309 
" clip-path="url(#p7e8a97212a)" style="fill: none; stroke: #ff0000; stroke-opacity: 0.5; stroke-width: 3; stroke-linecap: square"/>
   </g>
   <g id="patch_3">
    <path d="M 23.760625 139.32 
L 23.760625 0.72 
" style="fill: none; stroke: #000000; stroke-width: 0.8; stroke-linejoin: miter; stroke-linecap: square"/>
   </g>
   <g id="patch_4">
    <path d="M 302.760625 139.32 
L 302.760625 0.72 
" style="fill: none; stroke: #000000; stroke-width: 0.8; stroke-linejoin: miter; stroke-linecap: square"/>
   </g>
   <g id="patch_5">
    <path d="M 23.760625 139.32 
L 302.760625 139.32 
" style="fill: none; stroke: #000000; stroke-width: 0.8; stroke-linejoin: miter; stroke-linecap: square"/>
   </g>
   <g id="patch_6">
    <path d="M 23.760625 0.72 
L 302.760625 0.72 
" style="fill: none; stroke: #000000; stroke-width: 0.8; stroke-linejoin: miter; stroke-linecap: square"/>
   </g>
   <g id="legend_1">
    <g id="patch_7">
     <path d="M 221.991875 86.198125 
L 295.760625 86.198125 
Q 297.760625 86.198125 297.760625 84.198125 
L 297.760625 55.841875 
Q 297.760625 53.841875 295.760625 53.841875 
L 221.991875 53.841875 
Q 219.991875 53.841875 219.991875 55.841875 
L 219.991875 84.198125 
Q 219.991875 86.198125 221.991875 86.198125 
z
" style="fill: #ffffff; opacity: 0.8; stroke: #cccccc; stroke-linejoin: miter"/>
    </g>
    <g id="line2d_25">
     <path d="M 223.991875 61.940312 
L 233.991875 61.940312 
L 243.991875 61.940312 
" style="fill: none; stroke: #0000ff; stroke-opacity: 0.5; stroke-width: 3; stroke-linecap: square"/>
    </g>
    <g id="text_14">
     <!-- RNEA -->
     <g transform="translate(251.991875 65.440312) scale(0.1 -0.1)">
      <defs>
       <path id="DejaVuSans-52" d="M 2841 2188 
Q 3044 2119 3236 1894 
Q 3428 1669 3622 1275 
L 4263 0 
L 3584 0 
L 2988 1197 
Q 2756 1666 2539 1819 
Q 2322 1972 1947 1972 
L 1259 1972 
L 1259 0 
L 628 0 
L 628 4666 
L 2053 4666 
Q 2853 4666 3247 4331 
Q 3641 3997 3641 3322 
Q 3641 2881 3436 2590 
Q 3231 2300 2841 2188 
z
M 1259 4147 
L 1259 2491 
L 2053 2491 
Q 2509 2491 2742 2702 
Q 2975 2913 2975 3322 
Q 2975 3731 2742 3939 
Q 2509 4147 2053 4147 
L 1259 4147 
z
" transform="scale(0.015625)"/>
       <path id="DejaVuSans-45" d="M 628 4666 
L 3578 4666 
L 3578 4134 
L 1259 4134 
L 1259 2753 
L 3481 2753 
L 3481 2222 
L 1259 2222 
L 1259 531 
L 3634 531 
L 3634 0 
L 628 0 
L 628 4666 
z
" transform="scale(0.015625)"/>
       <path id="DejaVuSans-41" d="M 2188 4044 
L 1331 1722 
L 3047 1722 
L 2188 4044 
z
M 1831 4666 
L 2547 4666 
L 4325 0 
L 3669 0 
L 3244 1197 
L 1141 1197 
L 716 0 
L 50 0 
L 1831 4666 
z
" transform="scale(0.015625)"/>
      </defs>
      <use xlink:href="#DejaVuSans-52"/>
      <use xlink:href="#DejaVuSans-4e" x="69.482422"/>
      <use xlink:href="#DejaVuSans-45" x="144.287109"/>
      <use xlink:href="#DejaVuSans-41" x="207.470703"/>
     </g>
    </g>
    <g id="line2d_26">
     <path d="M 223.991875 76.618437 
L 233.991875 76.618437 
L 243.991875 76.618437 
" style="fill: none; stroke: #ff0000; stroke-opacity: 0.5; stroke-width: 3; stroke-linecap: square"/>
    </g>
    <g id="text_15">
     <!-- BURNEA -->
     <g transform="translate(251.991875 80.118437) scale(0.1 -0.1)">
      <defs>
       <path id="DejaVuSans-42" d="M 1259 2228 
L 1259 519 
L 2272 519 
Q 2781 519 3026 730 
Q 3272 941 3272 1375 
Q 3272 1813 3026 2020 
Q 2781 2228 2272 2228 
L 1259 2228 
z
M 1259 4147 
L 1259 2741 
L 2194 2741 
Q 2656 2741 2882 2914 
Q 3109 3088 3109 3444 
Q 3109 3797 2882 3972 
Q 2656 4147 2194 4147 
L 1259 4147 
z
M 628 4666 
L 2241 4666 
Q 2963 4666 3353 4366 
Q 3744 4066 3744 3513 
Q 3744 3084 3544 2831 
Q 3344 2578 2956 2516 
Q 3422 2416 3680 2098 
Q 3938 1781 3938 1306 
Q 3938 681 3513 340 
Q 3088 0 2303 0 
L 628 0 
L 628 4666 
z
" transform="scale(0.015625)"/>
       <path id="DejaVuSans-55" d="M 556 4666 
L 1191 4666 
L 1191 1831 
Q 1191 1081 1462 751 
Q 1734 422 2344 422 
Q 2950 422 3222 751 
Q 3494 1081 3494 1831 
L 3494 4666 
L 4128 4666 
L 4128 1753 
Q 4128 841 3676 375 
Q 3225 -91 2344 -91 
Q 1459 -91 1007 375 
Q 556 841 556 1753 
L 556 4666 
z
" transform="scale(0.015625)"/>
      </defs>
      <use xlink:href="#DejaVuSans-42"/>
      <use xlink:href="#DejaVuSans-55" x="68.603516"/>
      <use xlink:href="#DejaVuSans-52" x="141.796875"/>
      <use xlink:href="#DejaVuSans-4e" x="211.279297"/>
      <use xlink:href="#DejaVuSans-45" x="286.083984"/>
      <use xlink:href="#DejaVuSans-41" x="349.267578"/>
     </g>
    </g>
   </g>
  </g>
 </g>
 <defs>
  <clipPath id="p7e8a97212a">
   <rect x="23.760625" y="0.72" width="279" height="138.6"/>
  </clipPath>
 </defs>
</svg>
