<?xml version="1.0" encoding="utf-8" standalone="no"?>
<!DOCTYPE svg PUBLIC "-//W3C//DTD SVG 1.1//EN"
  "http://www.w3.org/Graphics/SVG/1.1/DTD/svg11.dtd">
<svg xmlns:xlink="http://www.w3.org/1999/xlink" width="595.205625pt" height="304.99625pt" viewBox="0 0 595.205625 304.99625" xmlns="http://www.w3.org/2000/svg" version="1.1">
 <metadata>
  <rdf:RDF xmlns:dc="http://purl.org/dc/elements/1.1/" xmlns:cc="http://creativecommons.org/ns#" xmlns:rdf="http://www.w3.org/1999/02/22-rdf-syntax-ns#">
   <cc:Work>
    <dc:type rdf:resource="http://purl.org/dc/dcmitype/StillImage"/>
    <dc:date>2023-09-07T03:30:18.227800</dc:date>
    <dc:format>image/svg+xml</dc:format>
    <dc:creator>
     <cc:Agent>
      <dc:title>Matplotlib v3.7.2, https://matplotlib.org/</dc:title>
     </cc:Agent>
    </dc:creator>
   </cc:Work>
  </rdf:RDF>
 </metadata>
 <defs>
  <style type="text/css">*{stroke-linejoin: round; stroke-linecap: butt}</style>
 </defs>
 <g id="figure_1">
  <g id="patch_1">
   <path d="M 0 304.99625 
L 595.205625 304.99625 
L 595.205625 0 
L 0 0 
L 0 304.99625 
z
" style="fill: none"/>
  </g>
  <g id="axes_1">
   <g id="patch_2">
    <path d="M 36.485625 277.92 
L 594.485625 277.92 
L 594.485625 0.72 
L 36.485625 0.72 
L 36.485625 277.92 
z
" style="fill: none"/>
   </g>
   <g id="matplotlib.axis_1">
    <g id="xtick_1">
     <g id="line2d_1">
      <path d="M 36.485625 277.92 
L 36.485625 0.72 
" clip-path="url(#pb868b4daff)" style="fill: none; stroke-dasharray: 0.8,1.32; stroke-dashoffset: 0; stroke: #000000; stroke-opacity: 0.5; stroke-width: 0.8"/>
     </g>
     <g id="line2d_2">
      <defs>
       <path id="m7cfb81fa67" d="M 0 0 
L 0 3.5 
" style="stroke: #000000; stroke-width: 0.8"/>
      </defs>
      <g>
       <use xlink:href="#m7cfb81fa67" x="36.485625" y="277.92" style="stroke: #000000; stroke-width: 0.8"/>
      </g>
     </g>
     <g id="text_1">
      <!-- 0.0 -->
      <g transform="translate(28.534063 292.518438) scale(0.1 -0.1)">
       <defs>
        <path id="DejaVuSans-30" d="M 2034 4250 
Q 1547 4250 1301 3770 
Q 1056 3291 1056 2328 
Q 1056 1369 1301 889 
Q 1547 409 2034 409 
Q 2525 409 2770 889 
Q 3016 1369 3016 2328 
Q 3016 3291 2770 3770 
Q 2525 4250 2034 4250 
z
M 2034 4750 
Q 2819 4750 3233 4129 
Q 3647 3509 3647 2328 
Q 3647 1150 3233 529 
Q 2819 -91 2034 -91 
Q 1250 -91 836 529 
Q 422 1150 422 2328 
Q 422 3509 836 4129 
Q 1250 4750 2034 4750 
z
" transform="scale(0.015625)"/>
        <path id="DejaVuSans-2e" d="M 684 794 
L 1344 794 
L 1344 0 
L 684 0 
L 684 794 
z
" transform="scale(0.015625)"/>
       </defs>
       <use xlink:href="#DejaVuSans-30"/>
       <use xlink:href="#DejaVuSans-2e" x="63.623047"/>
       <use xlink:href="#DejaVuSans-30" x="95.410156"/>
      </g>
     </g>
    </g>
    <g id="xtick_2">
     <g id="line2d_3">
      <path d="M 110.63695 277.92 
L 110.63695 0.72 
" clip-path="url(#pb868b4daff)" style="fill: none; stroke-dasharray: 0.8,1.32; stroke-dashoffset: 0; stroke: #000000; stroke-opacity: 0.5; stroke-width: 0.8"/>
     </g>
     <g id="line2d_4">
      <g>
       <use xlink:href="#m7cfb81fa67" x="110.63695" y="277.92" style="stroke: #000000; stroke-width: 0.8"/>
      </g>
     </g>
     <g id="text_2">
      <!-- 2.5 -->
      <g transform="translate(102.685387 292.518438) scale(0.1 -0.1)">
       <defs>
        <path id="DejaVuSans-32" d="M 1228 531 
L 3431 531 
L 3431 0 
L 469 0 
L 469 531 
Q 828 903 1448 1529 
Q 2069 2156 2228 2338 
Q 2531 2678 2651 2914 
Q 2772 3150 2772 3378 
Q 2772 3750 2511 3984 
Q 2250 4219 1831 4219 
Q 1534 4219 1204 4116 
Q 875 4013 500 3803 
L 500 4441 
Q 881 4594 1212 4672 
Q 1544 4750 1819 4750 
Q 2544 4750 2975 4387 
Q 3406 4025 3406 3419 
Q 3406 3131 3298 2873 
Q 3191 2616 2906 2266 
Q 2828 2175 2409 1742 
Q 1991 1309 1228 531 
z
" transform="scale(0.015625)"/>
        <path id="DejaVuSans-35" d="M 691 4666 
L 3169 4666 
L 3169 4134 
L 1269 4134 
L 1269 2991 
Q 1406 3038 1543 3061 
Q 1681 3084 1819 3084 
Q 2600 3084 3056 2656 
Q 3513 2228 3513 1497 
Q 3513 744 3044 326 
Q 2575 -91 1722 -91 
Q 1428 -91 1123 -41 
Q 819 9 494 109 
L 494 744 
Q 775 591 1075 516 
Q 1375 441 1709 441 
Q 2250 441 2565 725 
Q 2881 1009 2881 1497 
Q 2881 1984 2565 2268 
Q 2250 2553 1709 2553 
Q 1456 2553 1204 2497 
Q 953 2441 691 2322 
L 691 4666 
z
" transform="scale(0.015625)"/>
       </defs>
       <use xlink:href="#DejaVuSans-32"/>
       <use xlink:href="#DejaVuSans-2e" x="63.623047"/>
       <use xlink:href="#DejaVuSans-35" x="95.410156"/>
      </g>
     </g>
    </g>
    <g id="xtick_3">
     <g id="line2d_5">
      <path d="M 184.788275 277.92 
L 184.788275 0.72 
" clip-path="url(#pb868b4daff)" style="fill: none; stroke-dasharray: 0.8,1.32; stroke-dashoffset: 0; stroke: #000000; stroke-opacity: 0.5; stroke-width: 0.8"/>
     </g>
     <g id="line2d_6">
      <g>
       <use xlink:href="#m7cfb81fa67" x="184.788275" y="277.92" style="stroke: #000000; stroke-width: 0.8"/>
      </g>
     </g>
     <g id="text_3">
      <!-- 5.0 -->
      <g transform="translate(176.836712 292.518438) scale(0.1 -0.1)">
       <use xlink:href="#DejaVuSans-35"/>
       <use xlink:href="#DejaVuSans-2e" x="63.623047"/>
       <use xlink:href="#DejaVuSans-30" x="95.410156"/>
      </g>
     </g>
    </g>
    <g id="xtick_4">
     <g id="line2d_7">
      <path d="M 258.9396 277.92 
L 258.9396 0.72 
" clip-path="url(#pb868b4daff)" style="fill: none; stroke-dasharray: 0.8,1.32; stroke-dashoffset: 0; stroke: #000000; stroke-opacity: 0.5; stroke-width: 0.8"/>
     </g>
     <g id="line2d_8">
      <g>
       <use xlink:href="#m7cfb81fa67" x="258.9396" y="277.92" style="stroke: #000000; stroke-width: 0.8"/>
      </g>
     </g>
     <g id="text_4">
      <!-- 7.5 -->
      <g transform="translate(250.988037 292.518438) scale(0.1 -0.1)">
       <defs>
        <path id="DejaVuSans-37" d="M 525 4666 
L 3525 4666 
L 3525 4397 
L 1831 0 
L 1172 0 
L 2766 4134 
L 525 4134 
L 525 4666 
z
" transform="scale(0.015625)"/>
       </defs>
       <use xlink:href="#DejaVuSans-37"/>
       <use xlink:href="#DejaVuSans-2e" x="63.623047"/>
       <use xlink:href="#DejaVuSans-35" x="95.410156"/>
      </g>
     </g>
    </g>
    <g id="xtick_5">
     <g id="line2d_9">
      <path d="M 333.090925 277.92 
L 333.090925 0.72 
" clip-path="url(#pb868b4daff)" style="fill: none; stroke-dasharray: 0.8,1.32; stroke-dashoffset: 0; stroke: #000000; stroke-opacity: 0.5; stroke-width: 0.8"/>
     </g>
     <g id="line2d_10">
      <g>
       <use xlink:href="#m7cfb81fa67" x="333.090925" y="277.92" style="stroke: #000000; stroke-width: 0.8"/>
      </g>
     </g>
     <g id="text_5">
      <!-- 10.0 -->
      <g transform="translate(321.958112 292.518438) scale(0.1 -0.1)">
       <defs>
        <path id="DejaVuSans-31" d="M 794 531 
L 1825 531 
L 1825 4091 
L 703 3866 
L 703 4441 
L 1819 4666 
L 2450 4666 
L 2450 531 
L 3481 531 
L 3481 0 
L 794 0 
L 794 531 
z
" transform="scale(0.015625)"/>
       </defs>
       <use xlink:href="#DejaVuSans-31"/>
       <use xlink:href="#DejaVuSans-30" x="63.623047"/>
       <use xlink:href="#DejaVuSans-2e" x="127.246094"/>
       <use xlink:href="#DejaVuSans-30" x="159.033203"/>
      </g>
     </g>
    </g>
    <g id="xtick_6">
     <g id="line2d_11">
      <path d="M 407.24225 277.92 
L 407.24225 0.72 
" clip-path="url(#pb868b4daff)" style="fill: none; stroke-dasharray: 0.8,1.32; stroke-dashoffset: 0; stroke: #000000; stroke-opacity: 0.5; stroke-width: 0.8"/>
     </g>
     <g id="line2d_12">
      <g>
       <use xlink:href="#m7cfb81fa67" x="407.24225" y="277.92" style="stroke: #000000; stroke-width: 0.8"/>
      </g>
     </g>
     <g id="text_6">
      <!-- 12.5 -->
      <g transform="translate(396.109437 292.518438) scale(0.1 -0.1)">
       <use xlink:href="#DejaVuSans-31"/>
       <use xlink:href="#DejaVuSans-32" x="63.623047"/>
       <use xlink:href="#DejaVuSans-2e" x="127.246094"/>
       <use xlink:href="#DejaVuSans-35" x="159.033203"/>
      </g>
     </g>
    </g>
    <g id="xtick_7">
     <g id="line2d_13">
      <path d="M 481.393575 277.92 
L 481.393575 0.72 
" clip-path="url(#pb868b4daff)" style="fill: none; stroke-dasharray: 0.8,1.32; stroke-dashoffset: 0; stroke: #000000; stroke-opacity: 0.5; stroke-width: 0.8"/>
     </g>
     <g id="line2d_14">
      <g>
       <use xlink:href="#m7cfb81fa67" x="481.393575" y="277.92" style="stroke: #000000; stroke-width: 0.8"/>
      </g>
     </g>
     <g id="text_7">
      <!-- 15.0 -->
      <g transform="translate(470.260762 292.518438) scale(0.1 -0.1)">
       <use xlink:href="#DejaVuSans-31"/>
       <use xlink:href="#DejaVuSans-35" x="63.623047"/>
       <use xlink:href="#DejaVuSans-2e" x="127.246094"/>
       <use xlink:href="#DejaVuSans-30" x="159.033203"/>
      </g>
     </g>
    </g>
    <g id="xtick_8">
     <g id="line2d_15">
      <path d="M 555.544899 277.92 
L 555.544899 0.72 
" clip-path="url(#pb868b4daff)" style="fill: none; stroke-dasharray: 0.8,1.32; stroke-dashoffset: 0; stroke: #000000; stroke-opacity: 0.5; stroke-width: 0.8"/>
     </g>
     <g id="line2d_16">
      <g>
       <use xlink:href="#m7cfb81fa67" x="555.544899" y="277.92" style="stroke: #000000; stroke-width: 0.8"/>
      </g>
     </g>
     <g id="text_8">
      <!-- 17.5 -->
      <g transform="translate(544.412087 292.518438) scale(0.1 -0.1)">
       <use xlink:href="#DejaVuSans-31"/>
       <use xlink:href="#DejaVuSans-37" x="63.623047"/>
       <use xlink:href="#DejaVuSans-2e" x="127.246094"/>
       <use xlink:href="#DejaVuSans-35" x="159.033203"/>
      </g>
     </g>
    </g>
    <g id="text_9">
     <!-- Zeit [s] -->
     <g transform="translate(297.539531 302.196563) scale(0.1 -0.1)">
      <defs>
       <path id="DejaVuSans-5a" d="M 359 4666 
L 4025 4666 
L 4025 4184 
L 1075 531 
L 4097 531 
L 4097 0 
L 288 0 
L 288 481 
L 3238 4134 
L 359 4134 
L 359 4666 
z
" transform="scale(0.015625)"/>
       <path id="DejaVuSans-65" d="M 3597 1894 
L 3597 1613 
L 953 1613 
Q 991 1019 1311 708 
Q 1631 397 2203 397 
Q 2534 397 2845 478 
Q 3156 559 3463 722 
L 3463 178 
Q 3153 47 2828 -22 
Q 2503 -91 2169 -91 
Q 1331 -91 842 396 
Q 353 884 353 1716 
Q 353 2575 817 3079 
Q 1281 3584 2069 3584 
Q 2775 3584 3186 3129 
Q 3597 2675 3597 1894 
z
M 3022 2063 
Q 3016 2534 2758 2815 
Q 2500 3097 2075 3097 
Q 1594 3097 1305 2825 
Q 1016 2553 972 2059 
L 3022 2063 
z
" transform="scale(0.015625)"/>
       <path id="DejaVuSans-69" d="M 603 3500 
L 1178 3500 
L 1178 0 
L 603 0 
L 603 3500 
z
M 603 4863 
L 1178 4863 
L 1178 4134 
L 603 4134 
L 603 4863 
z
" transform="scale(0.015625)"/>
       <path id="DejaVuSans-74" d="M 1172 4494 
L 1172 3500 
L 2356 3500 
L 2356 3053 
L 1172 3053 
L 1172 1153 
Q 1172 725 1289 603 
Q 1406 481 1766 481 
L 2356 481 
L 2356 0 
L 1766 0 
Q 1100 0 847 248 
Q 594 497 594 1153 
L 594 3053 
L 172 3053 
L 172 3500 
L 594 3500 
L 594 4494 
L 1172 4494 
z
" transform="scale(0.015625)"/>
       <path id="DejaVuSans-20" transform="scale(0.015625)"/>
       <path id="DejaVuSans-5b" d="M 550 4863 
L 1875 4863 
L 1875 4416 
L 1125 4416 
L 1125 -397 
L 1875 -397 
L 1875 -844 
L 550 -844 
L 550 4863 
z
" transform="scale(0.015625)"/>
       <path id="DejaVuSans-73" d="M 2834 3397 
L 2834 2853 
Q 2591 2978 2328 3040 
Q 2066 3103 1784 3103 
Q 1356 3103 1142 2972 
Q 928 2841 928 2578 
Q 928 2378 1081 2264 
Q 1234 2150 1697 2047 
L 1894 2003 
Q 2506 1872 2764 1633 
Q 3022 1394 3022 966 
Q 3022 478 2636 193 
Q 2250 -91 1575 -91 
Q 1294 -91 989 -36 
Q 684 19 347 128 
L 347 722 
Q 666 556 975 473 
Q 1284 391 1588 391 
Q 1994 391 2212 530 
Q 2431 669 2431 922 
Q 2431 1156 2273 1281 
Q 2116 1406 1581 1522 
L 1381 1569 
Q 847 1681 609 1914 
Q 372 2147 372 2553 
Q 372 3047 722 3315 
Q 1072 3584 1716 3584 
Q 2034 3584 2315 3537 
Q 2597 3491 2834 3397 
z
" transform="scale(0.015625)"/>
       <path id="DejaVuSans-5d" d="M 1947 4863 
L 1947 -844 
L 622 -844 
L 622 -397 
L 1369 -397 
L 1369 4416 
L 622 4416 
L 622 4863 
L 1947 4863 
z
" transform="scale(0.015625)"/>
      </defs>
      <use xlink:href="#DejaVuSans-5a"/>
      <use xlink:href="#DejaVuSans-65" x="68.505859"/>
      <use xlink:href="#DejaVuSans-69" x="130.029297"/>
      <use xlink:href="#DejaVuSans-74" x="157.8125"/>
      <use xlink:href="#DejaVuSans-20" x="197.021484"/>
      <use xlink:href="#DejaVuSans-5b" x="228.808594"/>
      <use xlink:href="#DejaVuSans-73" x="267.822266"/>
      <use xlink:href="#DejaVuSans-5d" x="319.921875"/>
     </g>
    </g>
   </g>
   <g id="matplotlib.axis_2">
    <g id="ytick_1">
     <g id="line2d_17">
      <path d="M 36.485625 262.170866 
L 594.485625 262.170866 
" clip-path="url(#pb868b4daff)" style="fill: none; stroke-dasharray: 0.8,1.32; stroke-dashoffset: 0; stroke: #000000; stroke-opacity: 0.5; stroke-width: 0.8"/>
     </g>
     <g id="line2d_18">
      <defs>
       <path id="m002000cc67" d="M 0 0 
L -3.5 0 
" style="stroke: #000000; stroke-width: 0.8"/>
      </defs>
      <g>
       <use xlink:href="#m002000cc67" x="36.485625" y="262.170866" style="stroke: #000000; stroke-width: 0.8"/>
      </g>
     </g>
     <g id="text_10">
      <!-- 130 -->
      <g transform="translate(10.398125 265.970085) scale(0.1 -0.1)">
       <defs>
        <path id="DejaVuSans-33" d="M 2597 2516 
Q 3050 2419 3304 2112 
Q 3559 1806 3559 1356 
Q 3559 666 3084 287 
Q 2609 -91 1734 -91 
Q 1441 -91 1130 -33 
Q 819 25 488 141 
L 488 750 
Q 750 597 1062 519 
Q 1375 441 1716 441 
Q 2309 441 2620 675 
Q 2931 909 2931 1356 
Q 2931 1769 2642 2001 
Q 2353 2234 1838 2234 
L 1294 2234 
L 1294 2753 
L 1863 2753 
Q 2328 2753 2575 2939 
Q 2822 3125 2822 3475 
Q 2822 3834 2567 4026 
Q 2313 4219 1838 4219 
Q 1578 4219 1281 4162 
Q 984 4106 628 3988 
L 628 4550 
Q 988 4650 1302 4700 
Q 1616 4750 1894 4750 
Q 2613 4750 3031 4423 
Q 3450 4097 3450 3541 
Q 3450 3153 3228 2886 
Q 3006 2619 2597 2516 
z
" transform="scale(0.015625)"/>
       </defs>
       <use xlink:href="#DejaVuSans-31"/>
       <use xlink:href="#DejaVuSans-33" x="63.623047"/>
       <use xlink:href="#DejaVuSans-30" x="127.246094"/>
      </g>
     </g>
    </g>
    <g id="ytick_2">
     <g id="line2d_19">
      <path d="M 36.485625 219.811215 
L 594.485625 219.811215 
" clip-path="url(#pb868b4daff)" style="fill: none; stroke-dasharray: 0.8,1.32; stroke-dashoffset: 0; stroke: #000000; stroke-opacity: 0.5; stroke-width: 0.8"/>
     </g>
     <g id="line2d_20">
      <g>
       <use xlink:href="#m002000cc67" x="36.485625" y="219.811215" style="stroke: #000000; stroke-width: 0.8"/>
      </g>
     </g>
     <g id="text_11">
      <!-- 140 -->
      <g transform="translate(10.398125 223.610434) scale(0.1 -0.1)">
       <defs>
        <path id="DejaVuSans-34" d="M 2419 4116 
L 825 1625 
L 2419 1625 
L 2419 4116 
z
M 2253 4666 
L 3047 4666 
L 3047 1625 
L 3713 1625 
L 3713 1100 
L 3047 1100 
L 3047 0 
L 2419 0 
L 2419 1100 
L 313 1100 
L 313 1709 
L 2253 4666 
z
" transform="scale(0.015625)"/>
       </defs>
       <use xlink:href="#DejaVuSans-31"/>
       <use xlink:href="#DejaVuSans-34" x="63.623047"/>
       <use xlink:href="#DejaVuSans-30" x="127.246094"/>
      </g>
     </g>
    </g>
    <g id="ytick_3">
     <g id="line2d_21">
      <path d="M 36.485625 177.451565 
L 594.485625 177.451565 
" clip-path="url(#pb868b4daff)" style="fill: none; stroke-dasharray: 0.8,1.32; stroke-dashoffset: 0; stroke: #000000; stroke-opacity: 0.5; stroke-width: 0.8"/>
     </g>
     <g id="line2d_22">
      <g>
       <use xlink:href="#m002000cc67" x="36.485625" y="177.451565" style="stroke: #000000; stroke-width: 0.8"/>
      </g>
     </g>
     <g id="text_12">
      <!-- 150 -->
      <g transform="translate(10.398125 181.250783) scale(0.1 -0.1)">
       <use xlink:href="#DejaVuSans-31"/>
       <use xlink:href="#DejaVuSans-35" x="63.623047"/>
       <use xlink:href="#DejaVuSans-30" x="127.246094"/>
      </g>
     </g>
    </g>
    <g id="ytick_4">
     <g id="line2d_23">
      <path d="M 36.485625 135.091914 
L 594.485625 135.091914 
" clip-path="url(#pb868b4daff)" style="fill: none; stroke-dasharray: 0.8,1.32; stroke-dashoffset: 0; stroke: #000000; stroke-opacity: 0.5; stroke-width: 0.8"/>
     </g>
     <g id="line2d_24">
      <g>
       <use xlink:href="#m002000cc67" x="36.485625" y="135.091914" style="stroke: #000000; stroke-width: 0.8"/>
      </g>
     </g>
     <g id="text_13">
      <!-- 160 -->
      <g transform="translate(10.398125 138.891133) scale(0.1 -0.1)">
       <defs>
        <path id="DejaVuSans-36" d="M 2113 2584 
Q 1688 2584 1439 2293 
Q 1191 2003 1191 1497 
Q 1191 994 1439 701 
Q 1688 409 2113 409 
Q 2538 409 2786 701 
Q 3034 994 3034 1497 
Q 3034 2003 2786 2293 
Q 2538 2584 2113 2584 
z
M 3366 4563 
L 3366 3988 
Q 3128 4100 2886 4159 
Q 2644 4219 2406 4219 
Q 1781 4219 1451 3797 
Q 1122 3375 1075 2522 
Q 1259 2794 1537 2939 
Q 1816 3084 2150 3084 
Q 2853 3084 3261 2657 
Q 3669 2231 3669 1497 
Q 3669 778 3244 343 
Q 2819 -91 2113 -91 
Q 1303 -91 875 529 
Q 447 1150 447 2328 
Q 447 3434 972 4092 
Q 1497 4750 2381 4750 
Q 2619 4750 2861 4703 
Q 3103 4656 3366 4563 
z
" transform="scale(0.015625)"/>
       </defs>
       <use xlink:href="#DejaVuSans-31"/>
       <use xlink:href="#DejaVuSans-36" x="63.623047"/>
       <use xlink:href="#DejaVuSans-30" x="127.246094"/>
      </g>
     </g>
    </g>
    <g id="ytick_5">
     <g id="line2d_25">
      <path d="M 36.485625 92.732263 
L 594.485625 92.732263 
" clip-path="url(#pb868b4daff)" style="fill: none; stroke-dasharray: 0.8,1.32; stroke-dashoffset: 0; stroke: #000000; stroke-opacity: 0.5; stroke-width: 0.8"/>
     </g>
     <g id="line2d_26">
      <g>
       <use xlink:href="#m002000cc67" x="36.485625" y="92.732263" style="stroke: #000000; stroke-width: 0.8"/>
      </g>
     </g>
     <g id="text_14">
      <!-- 170 -->
      <g transform="translate(10.398125 96.531482) scale(0.1 -0.1)">
       <use xlink:href="#DejaVuSans-31"/>
       <use xlink:href="#DejaVuSans-37" x="63.623047"/>
       <use xlink:href="#DejaVuSans-30" x="127.246094"/>
      </g>
     </g>
    </g>
    <g id="ytick_6">
     <g id="line2d_27">
      <path d="M 36.485625 50.372613 
L 594.485625 50.372613 
" clip-path="url(#pb868b4daff)" style="fill: none; stroke-dasharray: 0.8,1.32; stroke-dashoffset: 0; stroke: #000000; stroke-opacity: 0.5; stroke-width: 0.8"/>
     </g>
     <g id="line2d_28">
      <g>
       <use xlink:href="#m002000cc67" x="36.485625" y="50.372613" style="stroke: #000000; stroke-width: 0.8"/>
      </g>
     </g>
     <g id="text_15">
      <!-- 180 -->
      <g transform="translate(10.398125 54.171832) scale(0.1 -0.1)">
       <defs>
        <path id="DejaVuSans-38" d="M 2034 2216 
Q 1584 2216 1326 1975 
Q 1069 1734 1069 1313 
Q 1069 891 1326 650 
Q 1584 409 2034 409 
Q 2484 409 2743 651 
Q 3003 894 3003 1313 
Q 3003 1734 2745 1975 
Q 2488 2216 2034 2216 
z
M 1403 2484 
Q 997 2584 770 2862 
Q 544 3141 544 3541 
Q 544 4100 942 4425 
Q 1341 4750 2034 4750 
Q 2731 4750 3128 4425 
Q 3525 4100 3525 3541 
Q 3525 3141 3298 2862 
Q 3072 2584 2669 2484 
Q 3125 2378 3379 2068 
Q 3634 1759 3634 1313 
Q 3634 634 3220 271 
Q 2806 -91 2034 -91 
Q 1263 -91 848 271 
Q 434 634 434 1313 
Q 434 1759 690 2068 
Q 947 2378 1403 2484 
z
M 1172 3481 
Q 1172 3119 1398 2916 
Q 1625 2713 2034 2713 
Q 2441 2713 2670 2916 
Q 2900 3119 2900 3481 
Q 2900 3844 2670 4047 
Q 2441 4250 2034 4250 
Q 1625 4250 1398 4047 
Q 1172 3844 1172 3481 
z
" transform="scale(0.015625)"/>
       </defs>
       <use xlink:href="#DejaVuSans-31"/>
       <use xlink:href="#DejaVuSans-38" x="63.623047"/>
       <use xlink:href="#DejaVuSans-30" x="127.246094"/>
      </g>
     </g>
    </g>
    <g id="ytick_7">
     <g id="line2d_29">
      <path d="M 36.485625 8.012962 
L 594.485625 8.012962 
" clip-path="url(#pb868b4daff)" style="fill: none; stroke-dasharray: 0.8,1.32; stroke-dashoffset: 0; stroke: #000000; stroke-opacity: 0.5; stroke-width: 0.8"/>
     </g>
     <g id="line2d_30">
      <g>
       <use xlink:href="#m002000cc67" x="36.485625" y="8.012962" style="stroke: #000000; stroke-width: 0.8"/>
      </g>
     </g>
     <g id="text_16">
      <!-- 190 -->
      <g transform="translate(10.398125 11.812181) scale(0.1 -0.1)">
       <defs>
        <path id="DejaVuSans-39" d="M 703 97 
L 703 672 
Q 941 559 1184 500 
Q 1428 441 1663 441 
Q 2288 441 2617 861 
Q 2947 1281 2994 2138 
Q 2813 1869 2534 1725 
Q 2256 1581 1919 1581 
Q 1219 1581 811 2004 
Q 403 2428 403 3163 
Q 403 3881 828 4315 
Q 1253 4750 1959 4750 
Q 2769 4750 3195 4129 
Q 3622 3509 3622 2328 
Q 3622 1225 3098 567 
Q 2575 -91 1691 -91 
Q 1453 -91 1209 -44 
Q 966 3 703 97 
z
M 1959 2075 
Q 2384 2075 2632 2365 
Q 2881 2656 2881 3163 
Q 2881 3666 2632 3958 
Q 2384 4250 1959 4250 
Q 1534 4250 1286 3958 
Q 1038 3666 1038 3163 
Q 1038 2656 1286 2365 
Q 1534 2075 1959 2075 
z
" transform="scale(0.015625)"/>
       </defs>
       <use xlink:href="#DejaVuSans-31"/>
       <use xlink:href="#DejaVuSans-39" x="63.623047"/>
       <use xlink:href="#DejaVuSans-30" x="127.246094"/>
      </g>
     </g>
    </g>
    <g id="text_17">
     <!-- Kraft [N] -->
     <g transform="translate(8.318438 160.5825) rotate(-90) scale(0.1 -0.1)">
      <defs>
       <path id="DejaVuSans-4b" d="M 628 4666 
L 1259 4666 
L 1259 2694 
L 3353 4666 
L 4166 4666 
L 1850 2491 
L 4331 0 
L 3500 0 
L 1259 2247 
L 1259 0 
L 628 0 
L 628 4666 
z
" transform="scale(0.015625)"/>
       <path id="DejaVuSans-72" d="M 2631 2963 
Q 2534 3019 2420 3045 
Q 2306 3072 2169 3072 
Q 1681 3072 1420 2755 
Q 1159 2438 1159 1844 
L 1159 0 
L 581 0 
L 581 3500 
L 1159 3500 
L 1159 2956 
Q 1341 3275 1631 3429 
Q 1922 3584 2338 3584 
Q 2397 3584 2469 3576 
Q 2541 3569 2628 3553 
L 2631 2963 
z
" transform="scale(0.015625)"/>
       <path id="DejaVuSans-61" d="M 2194 1759 
Q 1497 1759 1228 1600 
Q 959 1441 959 1056 
Q 959 750 1161 570 
Q 1363 391 1709 391 
Q 2188 391 2477 730 
Q 2766 1069 2766 1631 
L 2766 1759 
L 2194 1759 
z
M 3341 1997 
L 3341 0 
L 2766 0 
L 2766 531 
Q 2569 213 2275 61 
Q 1981 -91 1556 -91 
Q 1019 -91 701 211 
Q 384 513 384 1019 
Q 384 1609 779 1909 
Q 1175 2209 1959 2209 
L 2766 2209 
L 2766 2266 
Q 2766 2663 2505 2880 
Q 2244 3097 1772 3097 
Q 1472 3097 1187 3025 
Q 903 2953 641 2809 
L 641 3341 
Q 956 3463 1253 3523 
Q 1550 3584 1831 3584 
Q 2591 3584 2966 3190 
Q 3341 2797 3341 1997 
z
" transform="scale(0.015625)"/>
       <path id="DejaVuSans-66" d="M 2375 4863 
L 2375 4384 
L 1825 4384 
Q 1516 4384 1395 4259 
Q 1275 4134 1275 3809 
L 1275 3500 
L 2222 3500 
L 2222 3053 
L 1275 3053 
L 1275 0 
L 697 0 
L 697 3053 
L 147 3053 
L 147 3500 
L 697 3500 
L 697 3744 
Q 697 4328 969 4595 
Q 1241 4863 1831 4863 
L 2375 4863 
z
" transform="scale(0.015625)"/>
       <path id="DejaVuSans-4e" d="M 628 4666 
L 1478 4666 
L 3547 763 
L 3547 4666 
L 4159 4666 
L 4159 0 
L 3309 0 
L 1241 3903 
L 1241 0 
L 628 0 
L 628 4666 
z
" transform="scale(0.015625)"/>
      </defs>
      <use xlink:href="#DejaVuSans-4b"/>
      <use xlink:href="#DejaVuSans-72" x="65.576172"/>
      <use xlink:href="#DejaVuSans-61" x="106.689453"/>
      <use xlink:href="#DejaVuSans-66" x="167.96875"/>
      <use xlink:href="#DejaVuSans-74" x="201.423828"/>
      <use xlink:href="#DejaVuSans-20" x="240.632812"/>
      <use xlink:href="#DejaVuSans-5b" x="272.419922"/>
      <use xlink:href="#DejaVuSans-4e" x="311.433594"/>
      <use xlink:href="#DejaVuSans-5d" x="386.238281"/>
     </g>
    </g>
   </g>
   <g id="line2d_31">
    <path d="M 36.485625 81.735025 
L 221.714863 81.763024 
L 222.031025 81.950623 
L 222.95943 83.689849 
L 223.496769 84.080545 
L 223.733843 83.961582 
L 223.971601 84.305855 
L 224.20963 83.646861 
L 224.508353 83.835817 
L 224.690164 84.363896 
L 224.98696 83.458793 
L 225.167264 83.554115 
L 225.40564 82.829682 
L 225.462052 83.964474 
L 225.700205 83.294876 
L 225.939709 83.19592 
L 226.176963 83.464741 
L 226.474745 84.41028 
L 227.194519 82.535832 
L 227.490434 83.696202 
L 227.981441 83.74911 
L 228.155881 84.605248 
L 228.391609 84.277944 
L 228.688752 84.829112 
L 229.225176 82.13057 
L 229.612959 83.01472 
L 229.646531 85.759048 
L 230.119638 83.084393 
L 230.29887 83.423357 
L 230.417322 84.410406 
L 230.898797 82.992765 
L 231.191264 83.312396 
L 231.370697 80.350896 
L 231.609475 84.357702 
L 231.84738 82.515285 
L 232.146485 83.745748 
L 232.442683 81.492765 
L 232.621488 84.730292 
L 233.098793 81.064452 
L 233.415478 83.408435 
L 233.709763 82.160363 
L 233.88957 82.938055 
L 234.067292 82.990018 
L 234.367029 82.20371 
L 234.6041 82.340173 
L 234.902651 82.07258 
L 235.140637 82.136775 
L 235.857715 84.930433 
L 236.273347 81.389799 
L 236.333573 85.29322 
L 236.572076 83.639894 
L 237.047881 83.225008 
L 237.288124 84.152129 
L 237.531894 83.130112 
L 238.00605 86.378565 
L 238.299994 83.694907 
L 238.597364 82.531539 
L 238.77661 84.946065 
L 239.134652 83.061655 
L 239.372697 80.26683 
L 239.552151 84.286832 
L 239.789444 82.367223 
L 240.027709 82.003903 
L 240.326875 84.255664 
L 240.922656 85.098007 
L 241.101627 82.454354 
L 241.398873 82.510102 
L 241.522233 83.412783 
L 241.819375 82.610398 
L 242.236379 79.955594 
L 242.514649 83.543333 
L 242.742911 82.875811 
L 242.981596 85.338904 
L 243.486682 83.511194 
L 243.724634 86.373692 
L 244.185538 82.909043 
L 244.320755 83.159978 
L 244.443629 82.849764 
L 244.737606 85.168939 
L 244.977052 82.206213 
L 245.215076 86.239048 
L 245.452339 86.102581 
L 245.690888 84.336981 
L 246.10814 79.670668 
L 246.526068 86.944525 
L 246.831502 83.746825 
L 247.003659 80.032736 
L 247.201794 83.541705 
L 247.51363 84.28227 
L 247.779807 84.224419 
L 247.900032 81.85474 
L 248.159594 83.182708 
L 248.437372 85.468615 
L 248.675892 90.314678 
L 248.97305 82.500873 
L 249.153968 83.558967 
L 249.449529 79.381074 
L 249.688709 80.565123 
L 249.986849 87.203624 
L 250.226677 86.48169 
L 250.408571 82.995207 
L 250.643523 84.675198 
L 250.941287 89.777704 
L 251.12024 82.838272 
L 251.420075 82.012337 
L 251.715635 85.275351 
L 251.895612 84.786021 
L 252.133846 86.910842 
L 252.373166 78.898562 
L 252.61276 85.568376 
L 252.848983 82.51662 
L 253.266007 83.760423 
L 253.623993 78.347997 
L 253.685144 86.727833 
L 253.862049 81.055426 
L 254.101068 82.121576 
L 254.339813 85.299251 
L 254.579525 82.132759 
L 254.996386 82.6308 
L 255.117409 85.225439 
L 255.413494 77.669895 
L 255.593472 87.438762 
L 256.187902 81.957157 
L 256.427945 82.979045 
L 256.560043 77.686704 
L 256.842638 81.295434 
L 257.141026 76.477775 
L 257.47073 84.620928 
L 257.71296 84.657845 
L 257.858839 81.235555 
L 258.156046 79.286586 
L 258.27726 83.321156 
L 258.573962 81.356237 
L 258.932141 86.113256 
L 259.305775 85.439393 
L 259.585618 79.082927 
L 259.958559 83.289929 
L 260.069375 82.085817 
L 260.311597 82.41329 
L 260.539032 83.309413 
L 260.777011 91.865726 
L 261.134585 88.068752 
L 261.313649 76.770044 
L 261.730512 82.467121 
L 261.849713 79.528457 
L 262.08821 83.451943 
L 262.268662 77.093884 
L 262.626016 83.889826 
L 263.041677 84.95726 
L 263.282339 90.349786 
L 263.697585 80.457763 
L 263.938425 84.362138 
L 264.174761 74.063682 
L 264.234986 87.124979 
L 264.472623 89.020018 
L 264.771272 86.180986 
L 265.077232 88.868025 
L 265.307641 81.741378 
L 265.546435 84.065122 
L 265.742665 82.402118 
L 266.082314 88.522585 
L 266.320824 76.720758 
L 266.515603 80.164711 
L 266.739585 88.074039 
L 266.99998 83.675355 
L 267.216457 83.942703 
L 267.513446 90.841189 
L 267.870191 91.264927 
L 268.108544 88.955761 
L 268.227945 89.082669 
L 268.644779 83.463378 
L 268.705813 78.69446 
L 268.94321 80.484103 
L 269.3014 84.810959 
L 269.544465 75.822567 
L 269.718624 83.717556 
L 269.957845 86.463611 
L 270.256807 88.47512 
L 270.437325 83.326634 
L 270.672236 82.621361 
L 270.910774 81.014756 
L 271.158142 72.197432 
L 271.447002 82.278683 
L 271.626129 83.021116 
L 271.952264 87.582035 
L 272.202185 82.715869 
L 272.641076 80.709575 
L 273.02046 86.039296 
L 273.296387 86.572353 
L 273.420663 88.784637 
L 273.774441 90.210984 
L 273.896203 79.630843 
L 274.191023 85.843483 
L 274.376601 83.258589 
L 274.795139 85.18479 
L 275.03189 87.250487 
L 275.144896 92.183411 
L 275.573281 78.73286 
L 275.761888 78.702217 
L 275.921854 86.892183 
L 276.103343 83.508348 
L 276.458593 90.429151 
L 276.607304 79.02747 
L 276.93856 91.197519 
L 277.413986 87.292305 
L 277.595144 82.664631 
L 277.890368 84.14098 
L 278.069772 86.414454 
L 278.367738 81.885105 
L 278.606622 81.002404 
L 278.963277 74.938297 
L 279.142913 87.448021 
L 279.439954 79.2963 
L 279.576884 78.891969 
L 279.85674 87.421127 
L 280.039428 82.258181 
L 280.096469 72.697579 
L 280.516543 83.082994 
L 281.051178 73.568308 
L 281.28915 78.586994 
L 281.647132 98.337843 
L 282.071659 71.347948 
L 282.302747 84.342832 
L 282.546147 89.148564 
L 282.839213 82.86398 
L 283.017438 74.440407 
L 283.25907 82.08476 
L 283.673249 83.054905 
L 283.793592 76.497476 
L 284.031596 94.135794 
L 284.275007 79.405169 
L 284.5095 80.593343 
L 284.752226 75.432568 
L 284.99006 80.865596 
L 285.245233 81.774418 
L 285.466918 91.982327 
L 285.883577 84.528604 
L 286.007321 76.900499 
L 286.242187 83.400506 
L 286.480335 80.097759 
L 287.017858 91.928882 
L 287.223582 88.816829 
L 287.437881 69.986295 
L 288.210516 92.784744 
L 288.330445 81.378495 
L 288.448692 92.756369 
L 288.866176 72.000245 
L 288.931568 86.144564 
L 289.208301 84.711183 
L 289.47834 86.439622 
L 289.662649 89.730386 
L 290.177788 73.189986 
L 290.415388 82.61478 
L 290.71376 81.580872 
L 290.952095 85.185859 
L 291.190367 76.601431 
L 291.671872 80.090558 
L 291.907041 76.938381 
L 292.20396 95.166265 
L 292.449387 80.443158 
L 292.68181 79.60279 
L 292.861131 82.167547 
L 293.156473 88.663341 
L 293.700043 78.621547 
L 293.930915 78.504372 
L 294.177233 80.25322 
L 294.409185 78.934538 
L 294.590443 84.278954 
L 294.944663 83.919305 
L 295.135127 78.451373 
L 295.421787 80.210077 
L 295.603255 75.592606 
L 295.9127 75.519226 
L 296.078178 92.205911 
L 296.318278 83.673497 
L 296.615521 82.900968 
L 296.853049 73.807778 
L 297.091249 97.029191 
L 297.589362 83.114963 
L 298.344518 95.089482 
L 298.582979 78.349347 
L 298.836988 78.285928 
L 299.062577 78.655547 
L 299.476861 81.47036 
L 299.59614 91.204359 
L 299.894067 77.102195 
L 300.073372 83.810457 
L 300.430426 79.856993 
L 300.609211 94.786249 
L 300.789573 75.318048 
L 301.324136 91.865569 
L 301.527843 86.636701 
L 301.808931 89.735732 
L 302.101924 89.572496 
L 302.399223 78.157981 
L 302.935682 89.860461 
L 303.531415 73.923118 
L 303.82927 87.330242 
L 304.011872 69.029782 
L 304.368095 71.338953 
L 304.544839 85.665373 
L 304.784322 76.566787 
L 304.978837 84.327026 
L 305.264556 83.67952 
L 305.63954 81.937974 
L 305.882858 79.533582 
L 306.050783 73.044845 
L 306.281938 97.90762 
L 306.822061 84.872079 
L 307.069547 91.427686 
L 307.296361 77.54112 
L 307.438291 88.162359 
L 307.913123 73.960017 
L 307.984626 82.446074 
L 308.272023 80.868463 
L 308.510083 71.416067 
L 308.690816 86.264672 
L 309.046587 99.311761 
L 309.225523 81.491657 
L 309.594396 76.182422 
L 309.764339 80.436153 
L 310.000499 92.266406 
L 310.484559 70.332489 
L 310.71579 81.754226 
L 311.073037 81.741113 
L 311.19545 6.050769 
L 311.551085 21.11618 
L 311.788305 14.060578 
L 312.218591 63.263473 
L 312.562963 54.846738 
L 312.684627 78.803837 
L 312.9217 86.350221 
L 313.220529 80.895963 
L 313.576892 82.311981 
L 313.665403 85.575026 
L 313.999796 88.890267 
L 314.317002 85.907022 
L 314.434846 87.565431 
L 314.678117 85.203042 
L 314.978377 81.141182 
L 315.092839 83.454442 
L 315.393707 81.507024 
L 315.746094 81.082338 
L 316.043358 82.399619 
L 316.162914 81.201842 
L 316.342002 82.479478 
L 316.701739 81.172723 
L 316.941898 81.554347 
L 317.177615 81.644941 
L 317.480703 81.545595 
L 317.597678 81.712462 
L 318.310946 81.735045 
L 318.607544 81.266257 
L 318.847619 81.735032 
L 319.084819 81.448498 
L 319.323137 81.707958 
L 320.823292 81.738614 
L 321.946716 81.735025 
L 322.06656 84.405389 
L 322.552483 81.849668 
L 322.78497 81.52075 
L 323.080899 81.772906 
L 323.437147 81.442467 
L 323.61614 81.06566 
L 323.794863 81.67312 
L 325.225117 81.735025 
L 326.003038 81.735025 
L 326.239318 82.685655 
L 326.478288 81.847333 
L 326.777059 81.735944 
L 327.154628 81.760905 
L 327.258145 81.654343 
L 329.039886 81.72331 
L 330.470731 81.729107 
L 330.70821 82.527588 
L 331.007077 81.68521 
L 333.214281 81.730755 
L 382.112985 81.735025 
L 429.104795 81.735025 
L 429.340464 54.005071 
L 429.580336 73.391919 
L 429.826309 66.661664 
L 430.07847 70.122221 
L 430.310856 80.338171 
L 430.544709 70.615504 
L 430.804049 74.122458 
L 431.13979 73.976221 
L 431.446364 85.031983 
L 431.576843 81.749725 
L 431.861242 80.222276 
L 432.104488 94.269957 
L 432.758986 75.665006 
L 433.300894 92.077188 
L 433.775828 81.333079 
L 434.146395 85.421124 
L 434.307155 94.708035 
L 434.610111 80.449235 
L 434.844965 82.10018 
L 435.083079 86.32611 
L 435.383535 78.569953 
L 435.622967 83.854847 
L 435.930658 72.793602 
L 436.073948 80.145398 
L 436.225225 79.245002 
L 436.490507 85.636672 
L 436.761389 88.958245 
L 437.076662 84.891379 
L 437.242303 85.393456 
L 437.592267 78.021495 
L 437.796536 82.946113 
L 438.010458 69.595882 
L 438.30967 77.831748 
L 438.488055 95.462576 
L 438.726581 85.363843 
L 438.968416 96.995114 
L 439.443402 75.509943 
L 439.800367 86.452708 
L 439.979395 83.987958 
L 440.244468 83.187211 
L 440.459193 97.425161 
L 440.864901 73.475102 
L 441.289808 86.534173 
L 441.520211 84.514521 
L 441.818177 88.194898 
L 441.998523 76.979699 
L 442.176778 80.227363 
L 442.653554 86.552268 
L 442.77542 81.754028 
L 443.012419 80.58615 
L 443.193953 84.561893 
L 443.549056 79.760698 
L 443.674662 85.159964 
L 443.932996 89.313231 
L 444.205819 87.271871 
L 444.444303 80.398624 
L 444.686342 83.602045 
L 444.922292 97.74315 
L 445.165244 85.038734 
L 445.400212 92.754315 
L 445.638947 82.297276 
L 446.121179 75.18763 
L 446.42015 88.38223 
L 446.608079 80.663883 
L 446.897603 75.180181 
L 447.135537 74.974763 
L 447.375001 86.94624 
L 447.791156 84.221932 
L 447.878933 81.018227 
L 448.149862 90.13867 
L 448.446882 79.974587 
L 448.744754 82.39401 
L 448.924902 75.159006 
L 449.163332 78.403549 
L 449.408715 86.043287 
L 449.641465 84.241471 
L 449.822006 83.82169 
L 450.06017 91.907787 
L 450.309528 92.402883 
L 450.847658 78.286795 
L 451.080911 77.65542 
L 451.452495 81.757843 
L 451.615615 81.566088 
L 451.672414 88.536489 
L 451.792131 82.770708 
L 452.117179 81.097596 
L 452.328014 72.772652 
L 452.748418 85.418818 
L 452.82994 75.011932 
L 453.054681 77.06367 
L 453.283539 97.50413 
L 453.522666 73.88192 
L 453.944147 77.477173 
L 454.13356 83.973377 
L 454.369832 68.623546 
L 454.549718 80.664071 
L 454.966846 92.641104 
L 455.027506 79.383166 
L 455.445457 98.430933 
L 455.683769 83.918463 
L 455.745298 86.740077 
L 456.159059 78.971311 
L 456.278547 72.629753 
L 456.75555 86.446187 
L 457.172693 81.2492 
L 457.292087 83.090505 
L 457.531124 77.832094 
L 457.775342 83.632369 
L 457.829611 79.607646 
L 458.009795 82.243919 
L 458.247206 72.33842 
L 458.488359 83.199283 
L 458.784161 74.111888 
L 458.96401 81.760571 
L 459.283695 79.929713 
L 459.443945 77.672102 
L 459.98048 85.279743 
L 460.222824 84.022238 
L 460.518672 81.25213 
L 460.937173 66.96787 
L 461.235456 89.80509 
L 461.421949 81.377185 
L 461.978564 88.023582 
L 462.192837 71.113514 
L 462.451098 78.865888 
L 462.906155 77.504332 
L 463.153516 91.313931 
L 463.45249 80.558643 
L 463.693601 79.707277 
L 463.992165 67.919377 
L 464.22673 84.872128 
L 464.466432 76.65637 
L 464.645998 80.969004 
L 464.944221 95.554949 
L 465.182046 85.294813 
L 465.57985 81.406215 
L 465.72724 84.57735 
L 465.903858 92.148941 
L 466.294515 85.803513 
L 466.437069 77.250608 
L 466.743978 85.624844 
L 466.914 74.294683 
L 467.162295 85.498624 
L 467.632233 80.14414 
L 467.876184 79.52272 
L 468.111147 80.811411 
L 468.418202 80.419154 
L 468.66595 81.670594 
L 468.889531 67.804689 
L 469.126551 85.98529 
L 469.664827 69.841407 
L 469.848036 94.009073 
L 470.144533 84.006538 
L 470.439598 80.590352 
L 470.618999 82.093049 
L 471.036889 81.727063 
L 471.383048 90.805395 
L 471.851009 68.905248 
L 472.153076 88.118367 
L 472.33768 78.437162 
L 472.62824 82.28362 
L 473.108466 89.388683 
L 473.298355 74.197406 
L 473.584398 83.249329 
L 473.823272 95.350637 
L 474.062142 83.059387 
L 474.299874 80.254741 
L 474.538745 83.617557 
L 474.778274 74.921476 
L 475.19527 78.372477 
L 475.344405 84.585991 
L 475.732758 79.205589 
L 475.85164 89.374703 
L 476.090216 83.437248 
L 476.328674 93.754562 
L 476.626339 82.529805 
L 476.758551 82.713696 
L 477.018033 86.035259 
L 477.28805 80.236606 
L 477.58304 83.710706 
L 477.781686 78.955705 
L 478.001463 86.085137 
L 478.242149 70.709638 
L 478.62196 80.799537 
L 478.780067 76.359128 
L 479.283673 89.964579 
L 479.79998 74.816966 
L 480.284395 81.770796 
L 480.522922 81.09641 
L 480.77897 78.940283 
L 481.069852 80.679656 
L 481.191436 84.393194 
L 481.483689 82.501935 
L 481.78199 71.33359 
L 482.080086 82.799845 
L 482.1996 81.548299 
L 482.497488 81.741378 
L 482.743917 82.118075 
L 482.991715 77.967711 
L 483.213697 78.554406 
L 483.453535 79.730988 
L 483.751633 76.240338 
L 483.990168 81.476588 
L 484.230791 78.197143 
L 484.46614 79.951527 
L 484.704511 86.780106 
L 485.189327 77.934016 
L 485.423172 81.773171 
L 485.660061 81.068404 
L 486.020267 84.816917 
L 486.43815 83.599598 
L 486.734525 89.130413 
L 487.270989 69.636566 
L 487.523132 82.511425 
L 487.689584 77.861357 
L 487.987903 83.580639 
L 488.225708 73.749819 
L 488.464203 80.207749 
L 488.666665 78.565914 
L 488.882564 91.323458 
L 489.184431 92.562109 
L 489.477386 83.867527 
L 489.724165 82.222076 
L 489.896099 89.032897 
L 490.137018 72.111624 
L 490.373157 78.059844 
L 490.688617 81.549437 
L 490.867597 80.266153 
L 491.10574 87.001701 
L 491.583827 81.402939 
L 491.643802 79.310159 
L 491.941622 74.410525 
L 492.124022 79.9676 
L 492.36345 81.776205 
L 492.597116 81.775771 
L 493.075454 69.305424 
L 493.374374 86.318025 
L 493.670875 79.368682 
L 493.849424 82.233567 
L 494.152207 91.316709 
L 494.390149 79.784127 
L 494.626975 78.350119 
L 494.913893 79.908389 
L 495.10486 78.975548 
L 495.310243 78.853943 
L 495.585621 80.877758 
L 495.930103 89.738998 
L 496.127697 74.314156 
L 496.604465 87.503727 
L 496.843397 66.974318 
L 497.082376 86.155327 
L 497.320226 79.989122 
L 497.559184 80.94799 
L 497.800421 90.812973 
L 498.0963 85.631592 
L 498.275995 71.029085 
L 498.592016 83.455141 
L 498.633094 81.302213 
L 499.113143 74.647019 
L 499.408767 80.626353 
L 499.587207 74.612153 
L 500.067861 84.914791 
L 500.125664 84.770892 
L 500.303931 70.29089 
L 500.548617 81.061142 
L 500.741416 81.706864 
L 501.034094 81.780384 
L 501.258723 93.818057 
L 501.498306 85.867886 
L 501.855368 79.176966 
L 502.034219 79.991751 
L 502.2127 67.098811 
L 502.690382 85.326537 
L 503.052299 85.153117 
L 503.294519 80.141604 
L 503.530772 84.275761 
L 503.765062 81.070275 
L 504.003081 83.942179 
L 504.248856 90.382361 
L 504.72957 78.379579 
L 504.97612 82.093779 
L 505.214185 75.884298 
L 505.690844 85.331685 
L 505.988706 75.863675 
L 506.173171 88.927499 
L 506.769904 70.788243 
L 507.002672 74.980109 
L 507.258181 85.447753 
L 507.481325 89.481888 
L 507.90479 70.148542 
L 507.957542 86.339403 
L 508.195982 72.503419 
L 508.674459 80.22787 
L 508.915089 91.792033 
L 509.409954 80.461102 
L 509.71457 81.308131 
L 509.928742 77.692955 
L 510.185388 77.081665 
L 510.406532 84.820245 
L 510.64574 84.955413 
L 510.885481 76.275971 
L 511.197476 78.798831 
L 511.601893 79.466415 
L 511.663163 82.58889 
L 511.898376 79.188427 
L 512.381183 80.054935 
L 512.554351 81.49942 
L 512.685981 74.178537 
L 512.87333 89.654281 
L 513.230682 67.078265 
L 513.672985 84.222603 
L 513.901251 82.230578 
L 514.140393 78.520939 
L 514.383055 79.824801 
L 514.745325 74.46796 
L 514.905024 81.784512 
L 515.142341 86.195254 
L 515.499323 81.663306 
L 515.685495 90.136655 
L 515.861014 82.882254 
L 516.155981 96.098442 
L 516.463302 76.175112 
L 516.635936 74.392822 
L 516.93452 79.484174 
L 517.112914 79.438788 
L 517.371262 82.84215 
L 517.708079 91.411234 
L 517.842853 79.894544 
L 518.124584 104.468884 
L 518.604712 95.088486 
L 518.842277 99.949177 
L 519.098015 99.898981 
L 519.620513 89.98424 
L 519.856493 91.788645 
L 520.100055 82.120404 
L 520.34655 85.812804 
L 520.633562 79.538763 
L 521.249435 80.187966 
L 521.480639 81.309654 
L 521.826523 81.340865 
L 522.113847 81.665381 
L 522.83987 81.919071 
L 522.899613 81.746139 
L 523.258372 81.662578 
L 523.675539 81.909442 
L 523.797001 81.653198 
L 524.873326 81.940101 
L 524.991469 81.735025 
L 525.893898 81.746341 
L 526.265063 81.672905 
L 526.669203 81.749298 
L 526.912763 81.743563 
L 527.149513 81.612727 
L 527.267752 80.472402 
L 527.516229 81.905182 
L 528.050959 82.103531 
L 528.230487 81.805755 
L 528.647266 81.796587 
L 528.888465 81.548397 
L 529.24494 81.983872 
L 529.422519 81.704216 
L 529.603934 81.697082 
L 529.865493 82.245363 
L 529.983931 81.733896 
L 530.922508 81.660996 
L 531.218622 80.900463 
L 531.452962 82.456469 
L 531.707152 81.735056 
L 531.929266 81.727487 
L 532.227841 82.128891 
L 532.433816 81.923497 
L 532.703208 81.892864 
L 533.011374 81.645747 
L 533.24299 81.796279 
L 535.22463 81.704554 
L 536.415313 81.757505 
L 538.376449 81.738354 
L 538.619348 81.854132 
L 539.160758 81.735775 
L 584.6019 81.735025 
L 594.485625 81.735025 
L 594.485625 81.735025 
" clip-path="url(#pb868b4daff)" style="fill: none; stroke: #0000ff; stroke-opacity: 0.5; stroke-width: 1.5; stroke-linecap: square"/>
   </g>
   <g id="line2d_32">
    <path d="M 36.485625 186.02652 
L 36.605729 190.8352 
L 36.848616 183.509037 
L 36.919813 188.796502 
L 37.093829 187.609088 
L 37.399873 183.683523 
L 37.690409 186.854491 
L 37.868695 183.905597 
L 38.285603 186.423941 
L 38.524659 185.384578 
L 38.584358 181.696948 
L 39.239972 183.449366 
L 39.359627 182.772571 
L 39.54201 183.061871 
L 40.016219 182.019485 
L 40.074315 183.615545 
L 40.312395 186.082525 
L 40.611684 184.098969 
L 40.910868 185.627046 
L 41.146907 189.994492 
L 41.46053 181.936395 
L 41.564711 186.852983 
L 41.802696 183.760571 
L 42.043258 189.677245 
L 42.582165 184.658685 
L 42.81686 183.624608 
L 43.055043 187.26465 
L 43.353861 187.439136 
L 43.652797 182.863967 
L 43.839825 183.59817 
L 44.157609 182.978026 
L 44.3117 189.186267 
L 44.549862 182.561828 
L 44.788584 186.615803 
L 45.207569 181.545123 
L 45.388319 184.40111 
L 45.504186 180.449863 
L 45.748993 180.187757 
L 45.986305 182.280838 
L 46.226978 180.295017 
L 46.519725 181.945461 
L 47.123503 179.131017 
L 48.424625 179.094509 
L 49.729609 184.730319 
L 51.033761 188.330303 
L 52.339425 185.806215 
L 53.643933 180.525093 
L 55.068217 178.735968 
L 56.491422 183.930901 
L 57.796606 185.507244 
L 57.93721 183.705428 
L 58.413131 188.063812 
L 58.651967 187.872708 
L 58.949003 186.313661 
L 59.248704 188.789705 
L 59.428114 182.743111 
L 59.664718 180.072186 
L 59.848945 190.633521 
L 60.386813 185.444249 
L 60.621787 190.840484 
L 61.098982 177.229793 
L 61.635744 189.112993 
L 61.829503 187.862129 
L 62.113787 187.107533 
L 62.708393 180.357705 
L 62.827573 187.890079 
L 63.066589 181.209745 
L 63.306647 181.215031 
L 63.619021 186.871109 
L 63.843069 181.644828 
L 64.091325 178.478393 
L 64.379638 184.827884 
L 64.859414 180.445499 
L 64.917341 185.089236 
L 65.09556 186.325747 
L 65.397189 178.131687 
L 65.571699 180.914405 
L 65.81199 189.143967 
L 66.108117 191.035367 
L 66.406238 189.49898 
L 66.585341 186.152014 
L 66.766484 186.527423 
L 67.00281 189.540524 
L 67.599703 180.603952 
L 67.838329 189.31014 
L 68.078464 193.04158 
L 68.506161 177.593117 
L 68.800657 185.15646 
L 69.275493 181.702989 
L 69.39602 176.795467 
L 69.572392 182.863967 
L 70.053049 185.275806 
L 70.347583 183.646512 
L 70.58763 176.159461 
L 70.765448 180.098624 
L 71.424823 187.966374 
L 71.720085 188.227726 
L 71.779045 185.270521 
L 72.017668 183.438036 
L 72.256237 183.683527 
L 72.49519 181.169715 
L 72.792589 182.050456 
L 73.090373 190.321563 
L 73.332851 186.620337 
L 73.517514 180.529175 
L 73.699545 179.614821 
L 73.746613 180.334294 
L 73.985863 180.314655 
L 74.282584 186.710223 
L 74.462072 186.548577 
L 74.762649 184.885291 
L 74.997681 190.923575 
L 75.475803 178.021403 
L 75.713935 186.504764 
L 76.011221 192.276412 
L 76.191146 186.726084 
L 76.967092 180.918936 
L 77.204207 183.324732 
L 77.444002 179.565346 
L 77.919313 189.457438 
L 78.470002 171.915137 
L 78.933667 183.006729 
L 79.175578 178.591695 
L 79.648466 179.339494 
L 79.768131 186.486636 
L 79.895911 185.911811 
L 80.134035 176.254633 
L 80.42384 179.332694 
L 80.603498 187.138504 
L 80.842219 184.66095 
L 81.198559 178.118845 
L 81.377212 183.172152 
L 81.615307 194.274319 
L 81.855426 192.216739 
L 82.092669 182.067828 
L 82.39383 183.398759 
L 82.688964 189.943131 
L 83.10671 178.797909 
L 83.3441 178.368112 
L 83.582816 181.232407 
L 83.821585 181.05792 
L 84.190701 181.543611 
L 84.714824 189.565452 
L 85.073455 177.401261 
L 85.311854 180.528418 
L 85.848638 192.9026 
L 86.386063 183.546051 
L 86.569578 179.149902 
L 86.983033 179.930937 
L 87.101043 179.112135 
L 87.519245 179.328166 
L 87.995244 188.338006 
L 88.064024 185.17006 
L 88.65086 183.03619 
L 89.246597 184.63225 
L 89.664175 186.186009 
L 90.02138 183.348904 
L 90.31896 183.93959 
L 90.497696 187.130952 
L 90.736981 189.090336 
L 90.974077 188.746649 
L 91.272627 184.571817 
L 91.472566 180.020064 
L 91.809097 177.646748 
L 91.98768 184.728931 
L 92.288141 191.003641 
L 92.824927 175.134447 
L 93.002269 175.201673 
L 93.240309 179.821409 
L 93.481765 182.025527 
L 94.04717 183.934303 
L 94.436874 186.0508 
L 94.555912 183.155534 
L 94.677562 173.660003 
L 95.268864 189.063901 
L 95.762725 176.812088 
L 96.046295 177.061355 
L 96.185544 185.667837 
L 96.461763 192.701677 
L 97.00841 182.177355 
L 97.308265 188.856178 
L 97.564473 189.216481 
L 97.778477 184.264392 
L 98.373813 182.173577 
L 98.509057 192.818755 
L 99.851213 192.088479 
L 101.148454 189.659619 
L 102.577174 187.728739 
L 102.656372 199.620702 
L 102.836123 202.2244 
L 103.436924 186.454912 
L 103.670695 177.077969 
L 104.049032 172.647829 
L 104.28823 177.794042 
L 104.409622 189.371325 
L 104.838306 198.424976 
L 105.847787 180.141674 
L 106.147346 187.117352 
L 106.330619 196.137767 
L 106.623285 200.230265 
L 106.885546 194.336252 
L 107.100707 182.912306 
L 107.579085 171.688529 
L 108.175073 195.624131 
L 108.358601 203.639172 
L 108.537017 202.283315 
L 109.034907 184.120872 
L 109.273782 183.512812 
L 109.559831 190.085887 
L 109.79482 191.478757 
L 110.032541 186.624109 
L 110.272331 178.271424 
L 110.513388 174.409309 
L 110.775379 178.61511 
L 111.307948 184.875469 
L 111.523956 190.114592 
L 111.771097 185.417057 
L 112.076169 183.5604 
L 112.523356 197.725522 
L 112.865876 197.396188 
L 113.296632 178.525981 
L 113.919911 174.644228 
L 114.198889 191.168311 
L 114.286662 193.811287 
L 114.458603 188.861464 
L 114.765718 187.093184 
L 115.113708 186.569724 
L 115.232216 185.71391 
L 115.470555 186.241144 
L 115.708908 188.358395 
L 116.006951 188.397673 
L 116.189068 187.300147 
L 116.433283 181.21503 
L 116.739159 177.406545 
L 116.910837 177.460931 
L 117.272311 177.386152 
L 117.50629 173.518748 
L 117.804006 171.980851 
L 117.927991 177.404282 
L 118.281424 184.633759 
L 118.589319 181.480919 
L 118.698716 169.063684 
L 118.905913 165.219696 
L 119.416198 179.97097 
L 119.89508 170.776068 
L 120.132627 172.264112 
L 120.607608 172.383456 
L 120.673338 170.263183 
L 120.918775 178.207222 
L 121.143734 191.068604 
L 121.572123 198.338113 
L 121.680293 190.004312 
L 121.97824 187.773001 
L 122.156841 194.071128 
L 122.338503 196.520735 
L 122.633041 195.662655 
L 122.931947 197.606177 
L 123.112903 200.668373 
L 123.410044 196.977721 
L 123.840414 181.667487 
L 124.130534 184.913992 
L 124.373709 190.226383 
L 124.61048 189.393231 
L 124.843502 187.251807 
L 125.08391 190.344975 
L 125.380286 192.527943 
L 125.737968 189.879679 
L 125.857207 185.535649 
L 126.095472 181.767198 
L 126.45342 181.882011 
L 126.573014 182.624521 
L 126.811063 183.010506 
L 127.110284 182.93497 
L 127.406437 183.065647 
L 127.704109 182.166022 
L 127.826825 180.557122 
L 128.063778 183.48109 
L 128.539811 191.65098 
L 128.777895 191.977292 
L 129.373185 186.349164 
L 129.553373 186.225285 
L 129.792734 185.803798 
L 131.063235 171.951394 
L 131.251947 174.336797 
L 131.582704 180.478565 
L 132.031255 170.165744 
L 132.256702 176.735799 
L 132.494485 187.238216 
L 132.735349 191.162269 
L 132.970982 181.452971 
L 133.282612 174.91993 
L 133.745157 187.130197 
L 134.04441 184.892843 
L 134.282727 182.215874 
L 134.520459 186.598427 
L 134.880221 190.740777 
L 135.127508 186.305349 
L 135.478912 173.953832 
L 136.014456 181.468074 
L 136.445568 174.795295 
L 136.804332 177.210157 
L 137.023543 180.798079 
L 137.324092 181.258846 
L 137.501307 182.93044 
L 137.979267 185.771318 
L 138.216943 185.679166 
L 138.458769 183.962251 
L 138.709936 187.045599 
L 139.174866 199.213567 
L 139.666397 193.033276 
L 139.726043 181.289814 
L 139.907001 173.570114 
L 140.203129 176.443474 
L 140.680919 194.289426 
L 140.918196 194.727531 
L 141.640418 173.347286 
L 142.111547 179.957372 
L 142.408857 188.256427 
L 142.647833 184.320288 
L 143.130059 172.407628 
L 143.362188 175.277211 
L 144.025656 197.149943 
L 144.136522 196.2405 
L 144.679228 180.471013 
L 145.096572 192.404067 
L 145.389814 192.444855 
L 145.865182 183.166863 
L 146.282367 180.189266 
L 146.401632 182.492336 
L 146.581229 188.539686 
L 147.058825 188.895077 
L 147.356143 186.269849 
L 147.596061 188.036618 
L 148.012585 193.900418 
L 148.072506 197.497406 
L 148.429393 193.288584 
L 148.548784 182.830731 
L 148.905922 176.458579 
L 149.336696 183.222759 
L 149.685812 192.118542 
L 150.096288 178.720104 
L 150.334615 177.250944 
L 150.814924 184.958935 
L 150.871394 189.299063 
L 151.171378 194.130046 
L 151.528493 180.474033 
L 151.903209 176.395887 
L 152.302063 195.191317 
L 152.600069 195.799376 
L 153.016832 180.142438 
L 153.316267 172.613086 
L 153.555591 173.201504 
L 153.914702 181.057922 
L 154.037374 187.862889 
L 154.271683 185.16024 
L 154.807508 162.37353 
L 155.045747 162.219438 
L 155.703087 192.320978 
L 156.058623 195.576545 
L 156.715763 179.992117 
L 157.489683 201.080041 
L 157.792182 196.920316 
L 158.205585 173.924372 
L 158.62199 169.288777 
L 158.984999 187.827386 
L 159.218813 190.885052 
L 159.947648 167.722174 
L 160.177803 170.063009 
L 160.41293 179.185398 
L 160.711241 186.411097 
L 160.952937 184.492503 
L 161.432319 165.487087 
L 161.665367 167.975973 
L 162.153514 190.213543 
L 162.380064 189.727097 
L 162.738812 185.56133 
L 162.975793 184.60581 
L 163.215389 187.720126 
L 163.632352 199.579155 
L 163.871859 198.06694 
L 164.109494 192.944142 
L 164.465389 188.811609 
L 164.644037 192.010526 
L 164.882303 199.002067 
L 165.180643 198.165892 
L 165.718375 180.688554 
L 165.897363 180.934043 
L 166.135321 180.715746 
L 166.37424 181.190107 
L 166.615772 179.764757 
L 166.850521 177.682251 
L 167.148291 177.930763 
L 167.512148 179.912051 
L 167.684001 182.888138 
L 167.864395 183.330019 
L 168.342035 179.027534 
L 168.820781 184.545382 
L 169.241092 183.898045 
L 169.41493 182.090488 
L 170.129681 180.756535 
L 170.369075 180.586581 
L 170.552688 185.25919 
L 170.818259 188.129529 
L 171.32208 179.896188 
L 171.690201 185.008412 
L 171.800582 191.903265 
L 172.141121 188.028497 
L 172.2974 176.732016 
L 172.518596 176.061264 
L 173.056747 187.612865 
L 173.293355 179.548726 
L 173.531322 175.465292 
L 174.068495 186.645263 
L 174.562514 177.438275 
L 175.032436 190.337423 
L 175.738525 177.860514 
L 176.093963 182.775591 
L 176.335069 188.277577 
L 176.51159 188.978543 
L 177.005172 188.233766 
L 177.524929 171.449085 
L 177.942611 168.281894 
L 178.317495 184.475133 
L 178.537536 182.076134 
L 178.747765 171.621304 
L 178.986939 167.349787 
L 179.458465 179.680911 
L 179.699588 181.55494 
L 179.935011 180.795812 
L 180.29467 185.52356 
L 180.650953 185.768296 
L 180.954996 178.852291 
L 181.193029 178.331098 
L 181.451036 177.169368 
L 181.688837 177.04247 
L 181.991048 180.855488 
L 182.225882 185.47069 
L 182.463654 185.744127 
L 182.849475 180.554102 
L 182.944823 177.456403 
L 183.197118 181.180288 
L 183.439025 189.635702 
L 183.776533 194.723754 
L 184.193551 178.773736 
L 184.432908 177.372559 
L 184.909025 193.926103 
L 185.166238 193.493286 
L 185.50451 188.875818 
L 185.922103 187.140017 
L 186.219875 184.728178 
L 186.458411 184.259859 
L 186.637233 185.071862 
L 186.874914 183.991706 
L 187.113887 184.243994 
L 187.591181 185.786424 
L 187.82849 189.090335 
L 187.947739 186.910388 
L 188.366172 169.469306 
L 188.662598 174.300538 
L 188.852248 182.564091 
L 189.140414 181.942437 
L 189.622635 162.538193 
L 189.929679 159.18443 
L 190.339292 181.064719 
L 190.577838 193.011368 
L 190.817832 195.650567 
L 191.055478 187.340937 
L 191.298273 183.827039 
L 191.888639 197.823714 
L 192.424037 190.412954 
L 192.604236 189.597928 
L 192.902267 187.673289 
L 193.142547 180.844906 
L 193.437487 177.048507 
L 193.557055 182.949319 
L 193.795541 184.932875 
L 194.033574 176.91028 
L 194.331086 178.27067 
L 194.515006 189.721054 
L 194.807728 190.764195 
L 195.285557 173.620723 
L 195.765938 182.053476 
L 196.004034 177.620313 
L 196.261098 177.998745 
L 196.597791 187.086387 
L 196.840558 181.939417 
L 197.018771 171.740652 
L 197.311735 176.258414 
L 197.609979 183.974337 
L 197.738093 181.384234 
L 198.020219 172.623658 
L 198.271311 174.45992 
L 198.505886 184.577864 
L 198.746233 185.73204 
L 199.006718 174.732601 
L 199.235576 173.217365 
L 199.584874 180.392456 
L 199.764665 180.958972 
L 200.003185 177.445073 
L 200.241264 176.247839 
L 200.598158 177.989682 
L 200.717485 180.072187 
L 200.959881 180.257247 
L 201.254256 178.196647 
L 201.551429 178.223085 
L 201.730152 177.397484 
L 201.969086 177.763829 
L 202.330319 177.967018 
L 202.445537 178.822833 
L 202.802534 180.553345 
L 203.042368 179.868996 
L 203.162821 173.816358 
L 203.457978 164.876766 
L 203.705861 165.371522 
L 204.174847 177.359716 
L 204.43516 180.468368 
L 204.771202 170.896922 
L 205.068867 175.029452 
L 205.426082 189.227052 
L 205.665087 189.815472 
L 205.905729 188.303257 
L 206.201598 190.177286 
L 206.560969 189.789036 
L 206.688673 186.88093 
L 206.918016 185.511477 
L 207.155635 187.502585 
L 207.583756 188.255671 
L 207.813633 185.569638 
L 207.93313 180.48914 
L 208.172406 182.103328 
L 208.408495 187.630996 
L 208.886187 191.095041 
L 209.123206 194.674655 
L 209.36141 196.451244 
L 209.857532 184.248529 
L 210.316125 185.245594 
L 210.37655 192.422194 
L 210.613966 199.286835 
L 210.85293 200.684991 
L 211.151101 192.034697 
L 211.627365 173.312537 
L 211.807551 178.317501 
L 212.342084 199.235471 
L 212.583142 203.668634 
L 212.820625 203.25017 
L 213.537554 186.242657 
L 213.83414 188.701328 
L 214.072479 196.488253 
L 214.371917 199.360858 
L 214.562822 192.355721 
L 215.085769 168.585542 
L 215.383337 164.567825 
L 215.622447 169.169431 
L 215.860586 178.339406 
L 216.277705 200.604171 
L 216.759786 206.296504 
L 217.248844 208.866967 
L 217.290492 210.718334 
L 217.534211 211.647416 
L 217.648675 208.371076 
L 218.605953 176.57037 
L 219.145579 167.51974 
L 219.498308 153.068343 
L 219.976033 152.709552 
L 220.98946 188.810857 
L 221.714863 181.750578 
L 222.031025 182.077645 
L 222.243992 179.594801 
L 222.95943 165.585283 
L 223.257168 163.518639 
L 223.496769 163.147763 
L 223.733843 163.213481 
L 223.971601 159.873313 
L 224.20963 158.789383 
L 224.508353 162.69531 
L 225.167264 198.140212 
L 225.462052 208.467388 
L 225.700205 211.497106 
L 225.939709 209.91313 
L 226.176963 207.228607 
L 226.474745 207.181019 
L 226.713764 206.57296 
L 227.194519 198.784521 
L 227.490434 195.907384 
L 227.849472 195.786527 
L 228.155881 189.402291 
L 228.688752 185.245589 
L 228.927913 186.395992 
L 229.225176 188.423358 
L 229.612959 194.549265 
L 229.646531 197.439999 
L 230.119638 198.663672 
L 230.29887 198.714281 
L 230.417322 200.676686 
L 231.191264 210.944187 
L 231.370697 208.570115 
L 231.609475 208.233983 
L 231.84738 209.4501 
L 232.146485 211.700294 
L 232.442683 211.161726 
L 232.621488 208.364656 
L 232.86029 202.586968 
L 233.415478 184.682099 
L 233.709763 180.721788 
L 234.6041 198.058631 
L 235.857715 214.127992 
L 236.273347 219.250791 
L 237.047881 189.619079 
L 237.288124 183.721287 
L 237.531894 182.256659 
L 238.299994 186.272113 
L 238.597364 182.403955 
L 238.77661 182.391113 
L 239.134652 182.933457 
L 239.789444 187.396836 
L 240.027709 187.621178 
L 240.326875 188.898479 
L 240.624558 192.910911 
L 241.101627 204.124868 
L 241.398873 203.448073 
L 241.522233 204.556175 
L 242.236379 214.765513 
L 242.514649 212.574236 
L 242.742911 209.46143 
L 242.981596 202.830949 
L 243.486682 191.927062 
L 243.724634 189.61002 
L 244.185538 191.043679 
L 244.320755 190.899407 
L 244.443629 193.299917 
L 244.737606 196.697491 
L 244.977052 201.840684 
L 245.215076 202.799225 
L 245.452339 202.846809 
L 245.690888 203.485083 
L 246.10814 201.988731 
L 246.34651 203.465444 
L 246.526068 209.502974 
L 246.831502 211.928409 
L 247.003659 206.338803 
L 247.51363 183.00295 
L 247.900032 170.675603 
L 248.159594 171.964234 
L 248.675892 192.994751 
L 248.97305 196.393081 
L 249.153968 196.131728 
L 249.449529 197.778394 
L 249.688709 200.207608 
L 249.986849 200.021036 
L 250.408571 196.647632 
L 251.12024 186.725325 
L 251.420075 184.852052 
L 251.715635 179.68771 
L 251.895612 172.228607 
L 252.133846 168.463176 
L 252.373166 167.205516 
L 252.61276 169.629441 
L 252.848983 167.488773 
L 253.266007 165.655533 
L 253.623993 161.598536 
L 253.685144 156.182662 
L 253.862049 152.60909 
L 254.101068 155.759664 
L 254.579525 176.505414 
L 254.996386 188.575187 
L 255.117409 200.962208 
L 255.830863 227.059626 
L 256.187902 223.791971 
L 256.427945 217.155447 
L 256.560043 209.956184 
L 256.842638 204.398301 
L 257.858839 196.374193 
L 258.156046 196.813054 
L 258.573962 210.706248 
L 258.932141 216.326069 
L 259.305775 217.199255 
L 259.958559 205.360621 
L 260.069375 204.878706 
L 260.539032 208.2506 
L 260.777011 207.954501 
L 261.134585 203.310595 
L 261.313649 197.794257 
L 261.730512 197.415826 
L 261.849713 204.34316 
L 262.268662 214.070586 
L 262.626016 212.036423 
L 262.864774 204.946686 
L 263.282339 186.978369 
L 263.697585 187.619664 
L 264.174761 208.286857 
L 264.234986 213.463286 
L 264.472623 214.949064 
L 264.771272 216.027707 
L 265.077232 211.942761 
L 265.546435 202.274251 
L 266.082314 209.209139 
L 266.320824 210.037004 
L 266.515603 207.07678 
L 267.216457 179.110623 
L 267.513446 177.063619 
L 267.870191 182.530858 
L 268.227945 200.320159 
L 268.705813 203.01752 
L 268.94321 200.925947 
L 269.3014 201.467534 
L 269.544465 202.154903 
L 269.718624 203.192756 
L 269.957845 200.806599 
L 270.256807 194.954886 
L 270.672236 179.704325 
L 270.910774 176.914054 
L 271.158142 178.513136 
L 271.447002 178.47537 
L 271.626129 179.310791 
L 271.952264 179.270003 
L 272.202185 179.509449 
L 272.641076 180.995982 
L 272.828374 183.388938 
L 273.02046 183.990954 
L 273.296387 183.266572 
L 273.420663 182.206057 
L 273.774441 183.339085 
L 273.896203 188.679425 
L 274.376601 200.443278 
L 275.03189 205.20804 
L 275.144896 203.624822 
L 275.573281 201.561955 
L 275.761888 197.622038 
L 276.103343 184.167703 
L 276.607304 178.889301 
L 276.93856 183.08906 
L 277.890368 202.917057 
L 278.069772 204.649835 
L 278.367738 203.225996 
L 279.439954 186.514586 
L 279.85674 196.853847 
L 280.516543 228.846031 
L 280.811247 240.725454 
L 281.051178 245.235662 
L 281.28915 242.746776 
L 282.302747 222.944463 
L 282.546147 220.147395 
L 282.839213 213.578853 
L 283.25907 196.305463 
L 283.673249 193.137516 
L 284.275007 211.864962 
L 284.5095 215.036686 
L 284.752226 221.267586 
L 284.99006 223.190712 
L 285.245233 223.297969 
L 285.466918 220.151926 
L 285.825402 219.216044 
L 285.883577 218.107833 
L 286.480335 228.219086 
L 286.719032 222.590201 
L 287.017858 211.173053 
L 287.437881 192.37536 
L 287.79396 194.001635 
L 288.210516 203.016765 
L 288.448692 223.43167 
L 288.866176 226.805074 
L 288.931568 228.253084 
L 289.208301 231.652169 
L 289.47834 232.523089 
L 289.662649 232.143147 
L 290.117463 225.699236 
L 290.177788 216.773239 
L 290.415388 208.591263 
L 290.71376 207.312451 
L 290.952095 205.161209 
L 291.671872 183.283945 
L 291.907041 186.124825 
L 292.20396 192.946412 
L 292.861131 229.565131 
L 293.156473 230.492702 
L 293.395513 230.099161 
L 293.700043 230.883216 
L 293.930915 229.980569 
L 294.177233 230.107466 
L 294.590443 231.97243 
L 294.944663 230.325006 
L 295.135127 225.196166 
L 295.421787 221.302326 
L 295.603255 213.378683 
L 296.078178 201.700183 
L 296.318278 206.000403 
L 296.853049 223.859197 
L 297.091249 224.495203 
L 297.589362 214.968323 
L 297.810027 202.478196 
L 298.165587 202.435896 
L 298.836988 221.505518 
L 299.476861 207.766418 
L 299.59614 200.435725 
L 300.073372 195.391484 
L 300.430426 197.239831 
L 301.026699 209.3655 
L 301.324136 214.48981 
L 301.808931 229.509988 
L 302.578485 243.562557 
L 302.935682 241.471741 
L 303.235044 235.22951 
L 303.293543 229.324168 
L 303.531415 226.381316 
L 303.82927 220.235015 
L 304.011872 213.862864 
L 304.544839 210.808974 
L 304.784322 210.742506 
L 304.978837 209.864788 
L 305.264556 211.953337 
L 305.63954 209.239356 
L 306.281938 189.667424 
L 306.52071 191.454587 
L 306.822061 195.763116 
L 307.296361 207.956766 
L 307.438291 217.217385 
L 307.913123 228.660971 
L 307.984626 243.981025 
L 308.510083 263.5099 
L 308.690816 260.429574 
L 309.046587 249.467902 
L 309.225523 235.292963 
L 309.764339 209.57322 
L 310.000499 198.400049 
L 310.358131 188.092513 
L 310.71579 166.180501 
L 311.073037 157.067176 
L 311.19545 149.82335 
L 311.551085 139.258239 
L 312.218591 99.32806 
L 313.220529 78.771907 
L 313.576892 78.092091 
L 313.999796 93.595693 
L 314.317002 113.316427 
L 314.434846 131.41542 
L 314.678117 148.783232 
L 316.043358 199.446214 
L 316.342002 217.132786 
L 317.177615 224.100914 
L 317.480703 229.418594 
L 317.597678 234.568586 
L 317.89329 235.509756 
L 318.131073 234.275511 
L 318.607544 227.060387 
L 318.847619 223.9997 
L 319.323137 211.949564 
L 320.57482 168.530405 
L 320.823292 164.218854 
L 321.052864 165.848149 
L 321.293303 172.721854 
L 321.531353 185.38609 
L 321.946716 198.576804 
L 322.06656 211.160216 
L 322.487002 219.061955 
L 322.552483 222.735988 
L 322.78497 224.450639 
L 323.080899 223.573675 
L 323.437147 219.999347 
L 323.794863 208.139561 
L 324.513571 195.318214 
L 324.835175 192.1548 
L 325.225117 192.629917 
L 325.284766 194.570415 
L 325.523447 196.627994 
L 325.761799 200.800561 
L 326.003038 202.214581 
L 326.239318 197.108401 
L 326.777059 177.485108 
L 327.491149 163.878945 
L 327.728287 164.517974 
L 328.145754 167.819618 
L 328.265076 171.971034 
L 328.56376 176.909526 
L 329.039886 198.703702 
L 329.78107 228.758408 
L 330.231476 237.145838 
L 330.470731 237.743321 
L 331.007077 225.950006 
L 332.208858 169.565991 
L 332.563905 160.930806 
L 332.745446 153.113667 
L 333.214281 144.152924 
L 333.692477 140.640536 
L 333.95473 140.909442 
L 334.167664 139.155512 
L 334.406291 136.162806 
L 334.883739 135.478455 
L 335.300397 135.304725 
L 335.420241 137.852528 
L 335.899629 140.936631 
L 336.14417 143.922537 
L 336.640903 146.469584 
L 336.927045 149.306039 
L 336.974106 151.526415 
L 337.273842 152.390035 
L 337.808623 158.805239 
L 338.106092 175.12991 
L 338.40436 181.366854 
L 338.881253 185.864977 
L 339.35825 192.002971 
L 339.899994 198.092622 
L 340.074645 196.495809 
L 340.373029 191.165287 
L 340.848528 174.83684 
L 341.207006 171.439267 
L 341.347144 171.449841 
L 341.565018 173.632809 
L 341.802437 178.70802 
L 342.219513 183.309626 
L 342.338287 188.687733 
L 342.636975 195.112758 
L 343.364093 222.234432 
L 343.592344 225.652401 
L 343.776217 223.242828 
L 344.369355 210.658659 
L 345.029695 208.272503 
L 345.795363 181.580625 
L 346.034538 185.154953 
L 346.453725 197.780665 
L 346.513834 210.525721 
L 346.812969 218.059603 
L 347.008443 216.628966 
L 347.586221 200.875339 
L 347.824912 200.950874 
L 348.12244 209.002928 
L 348.248172 216.622165 
L 348.539846 215.418132 
L 348.838016 205.087935 
L 349.016348 194.19047 
L 349.493065 183.929766 
L 349.850363 187.395322 
L 350.030995 199.091196 
L 350.328223 209.054292 
L 350.626137 210.975152 
L 350.984443 197.770087 
L 351.341049 198.694637 
L 351.638894 206.557854 
L 351.760108 214.852377 
L 352.250662 220.006904 
L 352.472973 215.096359 
L 352.949955 193.380738 
L 353.248533 190.160672 
L 353.546178 196.001812 
L 353.674173 204.60905 
L 353.976188 207.957526 
L 354.213202 208.654714 
L 354.678377 207.822312 
L 355.097732 202.536357 
L 355.215159 199.434125 
L 355.396894 201.304376 
L 355.750837 208.232465 
L 356.050134 211.83474 
L 356.182933 202.200978 
L 356.709568 190.130453 
L 357.186244 198.813982 
L 357.431003 198.629675 
L 357.722674 198.573779 
L 357.901449 201.744749 
L 358.206185 202.483484 
L 358.447738 199.663755 
L 358.737327 198.610795 
L 359.398316 184.52121 
L 359.644486 187.333388 
L 360.16845 207.522441 
L 360.406895 208.023995 
L 360.645466 200.258975 
L 360.933002 195.473817 
L 361.604815 216.772483 
L 362.375965 200.417599 
L 362.911983 206.55257 
L 363.09044 207.335114 
L 363.328511 206.174138 
L 363.626448 196.470128 
L 363.924394 192.493953 
L 364.103379 195.075745 
L 364.413298 201.329306 
L 364.644511 199.307229 
L 365.120457 180.35242 
L 365.296097 182.436439 
L 365.830966 204.237415 
L 366.147785 208.567093 
L 366.310826 202.880803 
L 366.612498 198.5194 
L 366.909092 201.282478 
L 367.096618 207.857063 
L 367.327653 211.195719 
L 367.512168 208.844307 
L 367.804571 200.510505 
L 368.699026 192.702431 
L 368.760902 194.682209 
L 368.998031 198.051835 
L 369.295128 197.489852 
L 369.537911 199.189395 
L 370.010637 203.645975 
L 370.30839 202.607365 
L 370.555749 194.818172 
L 370.844386 190.569316 
L 371.206071 200.120744 
L 371.379856 209.194034 
L 371.917262 198.594932 
L 371.976005 187.991297 
L 372.339281 183.251461 
L 372.632372 190.192392 
L 372.695253 200.070132 
L 373.063322 207.460498 
L 373.228721 205.442951 
L 373.469346 194.701843 
L 373.824239 184.68814 
L 374.003995 184.614117 
L 374.308128 194.580234 
L 374.483876 208.070069 
L 374.71872 214.372726 
L 375.136951 206.224743 
L 375.258072 193.605075 
L 375.436935 187.911986 
L 375.673898 194.603652 
L 375.953703 199.283058 
L 376.211047 200.323933 
L 376.986159 196.410456 
L 377.165599 194.653507 
L 377.524404 193.701763 
L 378.417332 206.629616 
L 378.656583 211.418548 
L 378.95435 209.953164 
L 379.549615 192.385937 
L 379.727795 189.494449 
L 380.383989 215.140923 
L 380.92108 197.806345 
L 381.099454 190.490758 
L 381.39759 191.855679 
L 381.874084 208.238512 
L 382.112985 211.911789 
L 382.591291 190.894869 
L 383.007326 184.102742 
L 383.424874 202.240257 
L 383.720592 209.022565 
L 383.965141 208.138049 
L 384.137753 199.150114 
L 384.615896 187.865152 
L 384.854765 196.167983 
L 385.39117 209.632894 
L 385.686971 204.643039 
L 385.866547 194.953381 
L 386.104372 189.169649 
L 386.343384 191.376788 
L 386.640624 201.435814 
L 386.819553 215.361488 
L 387.061509 221.204891 
L 387.356222 216.631234 
L 388.191952 194.40046 
L 388.310247 194.064328 
L 388.549531 201.234131 
L 388.849046 205.497339 
L 389.266256 201.957759 
L 389.561207 196.109824 
L 389.939645 197.814656 
L 390.044227 200.799054 
L 390.277175 201.970604 
L 390.757948 206.965315 
L 390.815224 205.516478 
L 390.997099 204.587143 
L 391.41066 205.024492 
L 391.634262 207.956014 
L 392.006419 215.282171 
L 392.780984 224.332042 
L 393.139352 223.816893 
L 393.258365 220.976769 
L 393.800255 219.678319 
L 394.03357 215.526904 
L 394.989309 186.646016 
L 395.225673 181.555697 
L 395.463636 182.265728 
L 395.821941 185.228975 
L 396.000292 184.717602 
L 396.238692 179.455819 
L 396.476782 178.13093 
L 397.014996 190.753621 
L 397.372492 202.358853 
L 398.207536 242.114548 
L 398.693058 246.985813 
L 398.983119 244.391932 
L 399.459453 224.777703 
L 400.414156 181.013353 
L 400.652448 181.242225 
L 400.891338 185.069596 
L 401.189144 185.157218 
L 401.380434 184.795404 
L 401.616401 185.212358 
L 401.905364 186.738169 
L 402.171713 189.784503 
L 402.385318 194.889172 
L 402.624125 203.277359 
L 402.930699 208.323869 
L 403.158482 209.923705 
L 403.635492 206.518576 
L 404.115449 205.381772 
L 404.409373 203.795531 
L 404.946036 194.631598 
L 405.363704 174.882158 
L 405.602805 168.905811 
L 405.843613 170.029777 
L 406.200634 175.138979 
L 407.572535 209.941836 
L 407.811825 209.831555 
L 408.109159 208.176577 
L 408.588828 204.070482 
L 409.125964 213.716328 
L 409.303215 218.400266 
L 409.602456 220.498632 
L 409.840021 224.176441 
L 410.079028 231.495803 
L 410.495501 234.438655 
L 411.045155 211.579431 
L 411.43957 198.137938 
L 411.567632 183.59514 
L 411.797572 170.448991 
L 412.516396 144.479233 
L 412.813099 146.425776 
L 413.292537 166.334595 
L 413.542476 176.57264 
L 413.946042 183.151757 
L 414.006011 188.655255 
L 414.304394 193.293117 
L 414.546739 194.889932 
L 414.787961 194.504702 
L 414.985083 192.743219 
L 415.259519 188.529109 
L 415.691993 185.693517 
L 416.753244 199.78159 
L 417.109481 199.863923 
L 417.288092 202.08768 
L 417.470396 202.611895 
L 417.70689 200.585284 
L 418.26425 198.786034 
L 418.484329 195.558414 
L 418.957869 186.613534 
L 419.196941 183.398002 
L 419.495038 181.913736 
L 419.676062 182.746135 
L 420.208624 187.961087 
L 420.217136 197.433204 
L 420.451773 204.87569 
L 420.987802 208.83751 
L 421.234939 209.499197 
L 421.467151 209.720513 
L 421.943391 211.92463 
L 422.419863 200.74164 
L 422.89802 180.525393 
L 423.137868 176.174564 
L 423.557486 173.376741 
L 423.612098 171.136368 
L 423.97125 168.627845 
L 424.154839 165.853437 
L 424.389352 165.793009 
L 425.047912 177.259256 
L 425.17289 187.17552 
L 425.641979 198.682557 
L 425.889252 203.162929 
L 425.940901 207.572298 
L 426.179793 213.586411 
L 426.838712 246.646665 
L 427.134135 248.592451 
L 427.378792 245.663949 
L 427.850084 224.269354 
L 428.327134 200.796028 
L 428.757438 192.094369 
L 429.104795 174.172128 
L 429.340464 167.523519 
L 429.826309 167.829438 
L 430.07847 172.29357 
L 430.804049 196.296396 
L 431.13979 198.005758 
L 431.446364 194.657281 
L 431.576843 188.773842 
L 431.861242 187.411186 
L 432.104488 190.71963 
L 432.397421 197.375793 
L 432.517761 205.231455 
L 432.758986 206.374304 
L 433.181677 198.98998 
L 433.300894 190.800452 
L 433.532733 191.008173 
L 433.775828 200.336773 
L 434.307155 211.456314 
L 434.610111 205.338716 
L 435.083079 192.463738 
L 435.383535 196.313013 
L 435.622967 207.960544 
L 435.930658 214.35309 
L 436.073948 210.842214 
L 436.225225 200.780167 
L 436.490507 193.971422 
L 436.761389 193.250817 
L 437.076662 198.632702 
L 437.242303 206.973301 
L 437.592267 207.071498 
L 438.010458 185.204806 
L 438.30967 180.475546 
L 439.443402 210.78783 
L 439.800367 214.279825 
L 440.244468 227.43126 
L 440.459193 230.856027 
L 440.864901 228.179813 
L 441.102455 225.408426 
L 441.520211 227.808181 
L 441.818177 222.171743 
L 442.176778 201.188812 
L 442.77542 189.794322 
L 443.012419 194.428409 
L 443.193953 203.391419 
L 444.686342 235.534672 
L 444.922292 234.195433 
L 445.400212 220.806814 
L 446.121179 217.575416 
L 446.897603 209.544515 
L 447.135537 209.246908 
L 447.791156 212.905079 
L 447.878933 211.262189 
L 448.149862 203.682985 
L 449.408715 157.33684 
L 449.641465 153.597846 
L 449.822006 154.365285 
L 450.06017 159.947338 
L 451.080911 199.339711 
L 451.452495 201.35197 
L 451.615615 200.361619 
L 451.792131 198.927288 
L 452.117179 195.851493 
L 452.328014 190.47414 
L 452.748418 183.039206 
L 452.82994 174.636668 
L 453.054681 169.257804 
L 453.283539 170.493562 
L 453.944147 178.553171 
L 454.369832 187.692932 
L 454.549718 190.539856 
L 454.966846 193.093703 
L 455.027506 197.569922 
L 455.745298 212.097611 
L 456.159059 215.683267 
L 456.75555 238.6218 
L 457.172693 249.878058 
L 457.292087 261.373762 
L 457.531124 269.039076 
L 457.775342 271.02733 
L 457.829611 272.589231 
L 458.009795 269.607855 
L 458.784161 252.645664 
L 458.96401 249.633321 
L 459.283695 246.475194 
L 460.937173 202.597541 
L 462.192837 158.73802 
L 462.906155 149.73422 
L 463.153516 148.077733 
L 463.45249 147.29141 
L 463.693601 148.007484 
L 463.992165 153.066077 
L 464.466432 171.191507 
L 464.645998 182.306514 
L 465.57985 212.258497 
L 465.903858 231.613644 
L 466.437069 245.138224 
L 466.743978 244.070911 
L 469.37263 139.817954 
L 469.664827 140.710779 
L 469.848036 140.594454 
L 470.144533 141.708598 
L 470.439598 144.988337 
L 470.618999 149.617891 
L 471.036889 153.501911 
L 471.383048 166.049067 
L 472.153076 196.479942 
L 472.62824 220.696535 
L 473.108466 238.759274 
L 473.298355 248.459507 
L 474.062142 268.29657 
L 474.299874 268.526954 
L 474.538745 269.682643 
L 474.778274 269.018688 
L 475.344405 266.746589 
L 475.732758 263.18888 
L 476.758551 229.315866 
L 477.28805 209.074693 
L 478.242149 183.134386 
L 478.62196 182.873034 
L 478.780067 182.344287 
L 479.01567 182.310296 
L 479.577275 189.665915 
L 480.284395 205.520757 
L 481.191436 229.91939 
L 482.080086 244.152493 
L 482.1996 247.94285 
L 482.497488 249.243566 
L 482.743917 249.265471 
L 482.991715 249.658254 
L 483.990168 257.271446 
L 484.230791 257.007827 
L 484.46614 257.593224 
L 484.704511 258.90376 
L 484.944038 258.419578 
L 485.189327 255.673872 
L 485.423172 248.785059 
L 486.197329 217.147886 
L 486.914414 194.782665 
L 487.987903 180.290481 
L 488.225708 178.701975 
L 488.464203 178.768447 
L 488.666665 176.926899 
L 489.184431 177.238102 
L 489.896099 180.606214 
L 490.688617 190.556467 
L 491.10574 205.421796 
L 491.583827 213.111283 
L 491.643802 221.61806 
L 492.597116 244.125295 
L 492.894954 252.989354 
L 493.075454 262.642756 
L 493.374374 269.097242 
L 493.670875 271.932835 
L 493.849424 272.549957 
L 494.152207 269.536102 
L 494.913893 251.107775 
L 496.127697 200.058052 
L 496.604465 181.113061 
L 497.082376 172.499023 
L 497.320226 170.654453 
L 497.559184 174.126806 
L 498.0963 190.432595 
L 498.275995 200.870808 
L 499.113143 224.165118 
L 499.408767 226.317117 
L 499.587207 224.448375 
L 500.067861 220.822683 
L 500.303931 201.926035 
L 501.034094 168.953397 
L 501.498306 154.258774 
L 502.034219 150.015205 
L 502.2127 150.512983 
L 502.632908 150.562836 
L 503.294519 159.130042 
L 503.765062 173.819377 
L 505.690844 244.291477 
L 506.173171 249.848604 
L 506.468005 249.910543 
L 506.769904 247.524385 
L 507.258181 240.92185 
L 507.481325 235.002155 
L 507.90479 231.908233 
L 507.957542 230.255522 
L 508.614058 228.412463 
L 508.674459 225.931131 
L 508.915089 221.012277 
L 509.249468 218.036944 
L 511.197476 160.630927 
L 511.601893 158.818836 
L 511.663163 157.198606 
L 511.898376 157.75379 
L 512.381183 159.823456 
L 512.685981 162.770086 
L 512.87333 162.698328 
L 513.230682 160.646791 
L 513.451297 157.889001 
L 513.672985 156.851902 
L 513.901251 156.755218 
L 514.140393 158.043094 
L 514.745325 167.320332 
L 514.905024 172.397055 
L 515.499323 180.477058 
L 516.155981 206.787486 
L 516.635936 218.752263 
L 516.93452 219.009082 
L 517.708079 203.942825 
L 517.842853 196.026733 
L 518.842277 160.043266 
L 519.098015 159.247124 
L 519.377883 164.338952 
L 519.856493 183.865562 
L 520.633562 217.923638 
L 520.810745 221.071946 
L 521.249435 219.825614 
L 521.480639 216.354016 
L 521.826523 212.871088 
L 522.363592 201.932834 
L 522.83987 198.733162 
L 522.899613 192.161596 
L 523.38624 179.971722 
L 523.675539 180.870591 
L 523.797001 184.802198 
L 524.298827 191.546737 
L 524.579801 198.778481 
L 524.873326 197.755735 
L 524.991469 199.595018 
L 525.767818 218.607991 
L 525.893898 229.104366 
L 526.265063 236.331577 
L 526.488608 237.009884 
L 526.912763 222.871203 
L 527.149513 213.156618 
L 527.516229 191.245359 
L 527.873454 178.330346 
L 528.230487 157.725846 
L 529.422519 135.302459 
L 529.865493 148.213694 
L 529.983931 156.854924 
L 530.507281 176.8491 
L 530.922508 195.594676 
L 531.707152 216.813274 
L 533.011374 199.284566 
L 533.487391 195.927023 
L 533.784806 193.131465 
L 534.509129 175.24246 
L 534.716746 172.446902 
L 534.9212 172.021639 
L 535.22463 171.717231 
L 535.554642 169.06972 
L 535.692476 164.895643 
L 535.906109 165.888931 
L 536.170421 171.620544 
L 536.706648 192.385176 
L 536.887997 206.036656 
L 537.422413 220.960903 
L 537.899767 227.573257 
L 538.138414 230.637721 
L 538.376449 231.080357 
L 538.619348 230.058366 
L 538.907656 229.729032 
L 539.160758 230.956481 
L 539.46659 231.817582 
L 539.815515 234.997615 
L 539.890327 238.722257 
L 540.120223 241.458897 
L 540.359593 240.902958 
L 540.596118 237.707064 
L 541.130067 222.70728 
L 542.143566 187.905184 
L 542.682441 163.50051 
L 543.160011 151.169385 
L 543.596063 148.197074 
L 543.699157 143.638524 
L 544.173833 131.310424 
L 544.294067 127.009449 
L 544.545069 128.622127 
L 544.770134 133.042448 
L 545.311418 152.309216 
L 546.2617 197.735339 
L 547.036429 221.890743 
L 547.53415 229.290552 
L 547.752033 229.778134 
L 548.17023 227.015812 
L 548.289074 223.958147 
L 548.47922 222.427805 
L 549.084184 221.299312 
L 549.247714 223.070614 
L 549.493936 223.874309 
L 549.719839 222.840987 
L 550.018135 220.305271 
L 550.499263 213.562241 
L 550.972781 206.829786 
L 551.514644 197.941556 
L 551.747587 190.923579 
L 552.104946 183.661624 
L 552.548515 172.656897 
L 552.966971 166.662422 
L 554.949729 143.295599 
L 555.441891 142.582168 
L 557.492015 238.858984 
L 557.672436 242.613083 
L 557.908193 240.194443 
L 558.451366 232.455103 
L 558.635042 224.511062 
L 558.92797 216.772477 
L 559.362392 192.833854 
L 559.658397 172.776234 
L 559.90705 164.770256 
L 560.13652 167.075591 
L 560.433744 171.380344 
L 561.150884 189.60775 
L 561.524705 196.588715 
L 561.646145 205.393856 
L 562.169826 215.267065 
L 563.359096 175.824083 
L 563.598978 173.752153 
L 563.896422 175.574819 
L 564.136944 177.947381 
L 564.7905 193.22136 
L 564.853874 204.334857 
L 565.331324 224.441578 
L 565.872495 236.845216 
L 566.04982 236.849748 
L 566.346673 229.738861 
L 566.649221 219.383736 
L 566.887861 206.349377 
L 567.539426 183.277139 
L 567.81291 181.831396 
L 568.162999 177.914896 
L 568.279594 168.65428 
L 568.579 160.844694 
L 568.823184 158.499327 
L 569.073081 160.753299 
L 569.83741 184.428305 
L 570.013071 183.869345 
L 570.501225 171.357689 
L 570.787124 174.092819 
L 571.029889 183.046008 
L 571.325859 187.783576 
L 571.687981 186.813703 
L 572.041572 174.450852 
L 572.283722 171.638677 
L 572.638288 175.070998 
L 572.953552 192.69714 
L 573.249497 190.303429 
L 573.492067 182.522545 
L 573.789496 182.030055 
L 574.263503 198.212722 
L 574.622731 199.931902 
L 575.159521 182.956871 
L 575.396961 175.560463 
L 575.516925 176.925385 
L 575.933845 199.020194 
L 576.2922 201.873159 
L 576.711779 185.034093 
L 577.03442 186.652058 
L 577.217726 194.209357 
L 577.454508 197.617508 
L 578.415321 183.925239 
L 578.93761 188.33725 
L 579.176431 186.541023 
L 579.486673 180.957461 
L 579.653023 180.502739 
L 580.014031 183.348149 
L 580.150044 187.828143 
L 580.429689 187.59927 
L 580.969837 180.971809 
L 581.264828 180.390189 
L 581.502594 194.674656 
L 581.920743 202.80451 
L 582.102488 210.956271 
L 582.338352 207.526216 
L 582.874205 197.347089 
L 583.054207 202.911014 
L 583.381898 208.540654 
L 583.618233 206.881901 
L 583.770141 199.707566 
L 583.890967 188.107623 
L 584.133411 176.576416 
L 584.423115 169.351473 
L 584.6019 169.908924 
L 584.97196 177.849941 
L 585.141719 186.2978 
L 585.439733 191.715941 
L 585.618409 190.717365 
L 586.102153 184.805976 
L 586.334238 184.80673 
L 586.871558 194.338518 
L 587.594893 179.85993 
L 587.832711 179.344025 
L 588.18402 181.94848 
L 588.322421 184.040805 
L 588.547265 184.855829 
L 589.080901 188.646943 
L 589.627554 185.840055 
L 590.162521 192.271878 
L 590.582164 174.800581 
L 591.235336 181.447684 
L 591.475687 182.344287 
L 591.771873 185.850632 
L 592.02088 185.378536 
L 592.248385 183.664641 
L 592.493066 179.765514 
L 592.845958 180.177936 
L 593.502998 188.361419 
L 593.759333 185.735814 
L 593.97808 181.588175 
L 594.245483 182.301227 
L 594.485625 183.537739 
L 594.485625 183.537739 
" clip-path="url(#pb868b4daff)" style="fill: none; stroke: #ff0000; stroke-opacity: 0.5; stroke-width: 1.5; stroke-linecap: square"/>
   </g>
   <g id="patch_3">
    <path d="M 36.485625 277.92 
L 36.485625 0.72 
" style="fill: none; stroke: #000000; stroke-width: 0.8; stroke-linejoin: miter; stroke-linecap: square"/>
   </g>
   <g id="patch_4">
    <path d="M 594.485625 277.92 
L 594.485625 0.72 
" style="fill: none; stroke: #000000; stroke-width: 0.8; stroke-linejoin: miter; stroke-linecap: square"/>
   </g>
   <g id="patch_5">
    <path d="M 36.485625 277.92 
L 594.485625 277.92 
" style="fill: none; stroke: #000000; stroke-width: 0.8; stroke-linejoin: miter; stroke-linecap: square"/>
   </g>
   <g id="patch_6">
    <path d="M 36.485625 0.72 
L 594.485625 0.72 
" style="fill: none; stroke: #000000; stroke-width: 0.8; stroke-linejoin: miter; stroke-linecap: square"/>
   </g>
   <g id="legend_1">
    <g id="patch_7">
     <path d="M 513.716875 38.07625 
L 587.485625 38.07625 
Q 589.485625 38.07625 589.485625 36.07625 
L 589.485625 7.72 
Q 589.485625 5.72 587.485625 5.72 
L 513.716875 5.72 
Q 511.716875 5.72 511.716875 7.72 
L 511.716875 36.07625 
Q 511.716875 38.07625 513.716875 38.07625 
z
" style="fill: #ffffff; opacity: 0.8; stroke: #cccccc; stroke-linejoin: miter"/>
    </g>
    <g id="line2d_33">
     <path d="M 515.716875 13.818438 
L 525.716875 13.818438 
L 535.716875 13.818438 
" style="fill: none; stroke: #0000ff; stroke-opacity: 0.5; stroke-width: 1.5; stroke-linecap: square"/>
    </g>
    <g id="text_18">
     <!-- RNEA -->
     <g transform="translate(543.716875 17.318438) scale(0.1 -0.1)">
      <defs>
       <path id="DejaVuSans-52" d="M 2841 2188 
Q 3044 2119 3236 1894 
Q 3428 1669 3622 1275 
L 4263 0 
L 3584 0 
L 2988 1197 
Q 2756 1666 2539 1819 
Q 2322 1972 1947 1972 
L 1259 1972 
L 1259 0 
L 628 0 
L 628 4666 
L 2053 4666 
Q 2853 4666 3247 4331 
Q 3641 3997 3641 3322 
Q 3641 2881 3436 2590 
Q 3231 2300 2841 2188 
z
M 1259 4147 
L 1259 2491 
L 2053 2491 
Q 2509 2491 2742 2702 
Q 2975 2913 2975 3322 
Q 2975 3731 2742 3939 
Q 2509 4147 2053 4147 
L 1259 4147 
z
" transform="scale(0.015625)"/>
       <path id="DejaVuSans-45" d="M 628 4666 
L 3578 4666 
L 3578 4134 
L 1259 4134 
L 1259 2753 
L 3481 2753 
L 3481 2222 
L 1259 2222 
L 1259 531 
L 3634 531 
L 3634 0 
L 628 0 
L 628 4666 
z
" transform="scale(0.015625)"/>
       <path id="DejaVuSans-41" d="M 2188 4044 
L 1331 1722 
L 3047 1722 
L 2188 4044 
z
M 1831 4666 
L 2547 4666 
L 4325 0 
L 3669 0 
L 3244 1197 
L 1141 1197 
L 716 0 
L 50 0 
L 1831 4666 
z
" transform="scale(0.015625)"/>
      </defs>
      <use xlink:href="#DejaVuSans-52"/>
      <use xlink:href="#DejaVuSans-4e" x="69.482422"/>
      <use xlink:href="#DejaVuSans-45" x="144.287109"/>
      <use xlink:href="#DejaVuSans-41" x="207.470703"/>
     </g>
    </g>
    <g id="line2d_34">
     <path d="M 515.716875 28.496563 
L 525.716875 28.496563 
L 535.716875 28.496563 
" style="fill: none; stroke: #ff0000; stroke-opacity: 0.5; stroke-width: 1.5; stroke-linecap: square"/>
    </g>
    <g id="text_19">
     <!-- BURNEA -->
     <g transform="translate(543.716875 31.996563) scale(0.1 -0.1)">
      <defs>
       <path id="DejaVuSans-42" d="M 1259 2228 
L 1259 519 
L 2272 519 
Q 2781 519 3026 730 
Q 3272 941 3272 1375 
Q 3272 1813 3026 2020 
Q 2781 2228 2272 2228 
L 1259 2228 
z
M 1259 4147 
L 1259 2741 
L 2194 2741 
Q 2656 2741 2882 2914 
Q 3109 3088 3109 3444 
Q 3109 3797 2882 3972 
Q 2656 4147 2194 4147 
L 1259 4147 
z
M 628 4666 
L 2241 4666 
Q 2963 4666 3353 4366 
Q 3744 4066 3744 3513 
Q 3744 3084 3544 2831 
Q 3344 2578 2956 2516 
Q 3422 2416 3680 2098 
Q 3938 1781 3938 1306 
Q 3938 681 3513 340 
Q 3088 0 2303 0 
L 628 0 
L 628 4666 
z
" transform="scale(0.015625)"/>
       <path id="DejaVuSans-55" d="M 556 4666 
L 1191 4666 
L 1191 1831 
Q 1191 1081 1462 751 
Q 1734 422 2344 422 
Q 2950 422 3222 751 
Q 3494 1081 3494 1831 
L 3494 4666 
L 4128 4666 
L 4128 1753 
Q 4128 841 3676 375 
Q 3225 -91 2344 -91 
Q 1459 -91 1007 375 
Q 556 841 556 1753 
L 556 4666 
z
" transform="scale(0.015625)"/>
      </defs>
      <use xlink:href="#DejaVuSans-42"/>
      <use xlink:href="#DejaVuSans-55" x="68.603516"/>
      <use xlink:href="#DejaVuSans-52" x="141.796875"/>
      <use xlink:href="#DejaVuSans-4e" x="211.279297"/>
      <use xlink:href="#DejaVuSans-45" x="286.083984"/>
      <use xlink:href="#DejaVuSans-41" x="349.267578"/>
     </g>
    </g>
   </g>
  </g>
 </g>
 <defs>
  <clipPath id="pb868b4daff">
   <rect x="36.485625" y="0.72" width="558" height="277.2"/>
  </clipPath>
 </defs>
</svg>
