<?xml version="1.0" encoding="utf-8" standalone="no"?>
<!DOCTYPE svg PUBLIC "-//W3C//DTD SVG 1.1//EN"
  "http://www.w3.org/Graphics/SVG/1.1/DTD/svg11.dtd">
<svg xmlns:xlink="http://www.w3.org/1999/xlink" width="597.222813pt" height="304.99625pt" viewBox="0 0 597.222813 304.99625" xmlns="http://www.w3.org/2000/svg" version="1.1">
 <metadata>
  <rdf:RDF xmlns:dc="http://purl.org/dc/elements/1.1/" xmlns:cc="http://creativecommons.org/ns#" xmlns:rdf="http://www.w3.org/1999/02/22-rdf-syntax-ns#">
   <cc:Work>
    <dc:type rdf:resource="http://purl.org/dc/dcmitype/StillImage"/>
    <dc:date>2023-09-07T03:30:14.765850</dc:date>
    <dc:format>image/svg+xml</dc:format>
    <dc:creator>
     <cc:Agent>
      <dc:title>Matplotlib v3.7.2, https://matplotlib.org/</dc:title>
     </cc:Agent>
    </dc:creator>
   </cc:Work>
  </rdf:RDF>
 </metadata>
 <defs>
  <style type="text/css">*{stroke-linejoin: round; stroke-linecap: butt}</style>
 </defs>
 <g id="figure_1">
  <g id="patch_1">
   <path d="M -0 304.99625 
L 597.222813 304.99625 
L 597.222813 0 
L -0 0 
L -0 304.99625 
z
" style="fill: none"/>
  </g>
  <g id="axes_1">
   <g id="patch_2">
    <path d="M 38.502813 277.92 
L 596.502813 277.92 
L 596.502813 0.72 
L 38.502813 0.72 
L 38.502813 277.92 
z
" style="fill: none"/>
   </g>
   <g id="matplotlib.axis_1">
    <g id="xtick_1">
     <g id="line2d_1">
      <path d="M 38.502813 277.92 
L 38.502813 0.72 
" clip-path="url(#p383feee485)" style="fill: none; stroke-dasharray: 0.8,1.32; stroke-dashoffset: 0; stroke: #000000; stroke-opacity: 0.5; stroke-width: 0.8"/>
     </g>
     <g id="line2d_2">
      <defs>
       <path id="mc10f5f199d" d="M 0 0 
L 0 3.5 
" style="stroke: #000000; stroke-width: 0.8"/>
      </defs>
      <g>
       <use xlink:href="#mc10f5f199d" x="38.502813" y="277.92" style="stroke: #000000; stroke-width: 0.8"/>
      </g>
     </g>
     <g id="text_1">
      <!-- 0.0 -->
      <g transform="translate(30.55125 292.518438) scale(0.1 -0.1)">
       <defs>
        <path id="DejaVuSans-30" d="M 2034 4250 
Q 1547 4250 1301 3770 
Q 1056 3291 1056 2328 
Q 1056 1369 1301 889 
Q 1547 409 2034 409 
Q 2525 409 2770 889 
Q 3016 1369 3016 2328 
Q 3016 3291 2770 3770 
Q 2525 4250 2034 4250 
z
M 2034 4750 
Q 2819 4750 3233 4129 
Q 3647 3509 3647 2328 
Q 3647 1150 3233 529 
Q 2819 -91 2034 -91 
Q 1250 -91 836 529 
Q 422 1150 422 2328 
Q 422 3509 836 4129 
Q 1250 4750 2034 4750 
z
" transform="scale(0.015625)"/>
        <path id="DejaVuSans-2e" d="M 684 794 
L 1344 794 
L 1344 0 
L 684 0 
L 684 794 
z
" transform="scale(0.015625)"/>
       </defs>
       <use xlink:href="#DejaVuSans-30"/>
       <use xlink:href="#DejaVuSans-2e" x="63.623047"/>
       <use xlink:href="#DejaVuSans-30" x="95.410156"/>
      </g>
     </g>
    </g>
    <g id="xtick_2">
     <g id="line2d_3">
      <path d="M 112.654137 277.92 
L 112.654137 0.72 
" clip-path="url(#p383feee485)" style="fill: none; stroke-dasharray: 0.8,1.32; stroke-dashoffset: 0; stroke: #000000; stroke-opacity: 0.5; stroke-width: 0.8"/>
     </g>
     <g id="line2d_4">
      <g>
       <use xlink:href="#mc10f5f199d" x="112.654137" y="277.92" style="stroke: #000000; stroke-width: 0.8"/>
      </g>
     </g>
     <g id="text_2">
      <!-- 2.5 -->
      <g transform="translate(104.702575 292.518438) scale(0.1 -0.1)">
       <defs>
        <path id="DejaVuSans-32" d="M 1228 531 
L 3431 531 
L 3431 0 
L 469 0 
L 469 531 
Q 828 903 1448 1529 
Q 2069 2156 2228 2338 
Q 2531 2678 2651 2914 
Q 2772 3150 2772 3378 
Q 2772 3750 2511 3984 
Q 2250 4219 1831 4219 
Q 1534 4219 1204 4116 
Q 875 4013 500 3803 
L 500 4441 
Q 881 4594 1212 4672 
Q 1544 4750 1819 4750 
Q 2544 4750 2975 4387 
Q 3406 4025 3406 3419 
Q 3406 3131 3298 2873 
Q 3191 2616 2906 2266 
Q 2828 2175 2409 1742 
Q 1991 1309 1228 531 
z
" transform="scale(0.015625)"/>
        <path id="DejaVuSans-35" d="M 691 4666 
L 3169 4666 
L 3169 4134 
L 1269 4134 
L 1269 2991 
Q 1406 3038 1543 3061 
Q 1681 3084 1819 3084 
Q 2600 3084 3056 2656 
Q 3513 2228 3513 1497 
Q 3513 744 3044 326 
Q 2575 -91 1722 -91 
Q 1428 -91 1123 -41 
Q 819 9 494 109 
L 494 744 
Q 775 591 1075 516 
Q 1375 441 1709 441 
Q 2250 441 2565 725 
Q 2881 1009 2881 1497 
Q 2881 1984 2565 2268 
Q 2250 2553 1709 2553 
Q 1456 2553 1204 2497 
Q 953 2441 691 2322 
L 691 4666 
z
" transform="scale(0.015625)"/>
       </defs>
       <use xlink:href="#DejaVuSans-32"/>
       <use xlink:href="#DejaVuSans-2e" x="63.623047"/>
       <use xlink:href="#DejaVuSans-35" x="95.410156"/>
      </g>
     </g>
    </g>
    <g id="xtick_3">
     <g id="line2d_5">
      <path d="M 186.805462 277.92 
L 186.805462 0.72 
" clip-path="url(#p383feee485)" style="fill: none; stroke-dasharray: 0.8,1.32; stroke-dashoffset: 0; stroke: #000000; stroke-opacity: 0.5; stroke-width: 0.8"/>
     </g>
     <g id="line2d_6">
      <g>
       <use xlink:href="#mc10f5f199d" x="186.805462" y="277.92" style="stroke: #000000; stroke-width: 0.8"/>
      </g>
     </g>
     <g id="text_3">
      <!-- 5.0 -->
      <g transform="translate(178.8539 292.518438) scale(0.1 -0.1)">
       <use xlink:href="#DejaVuSans-35"/>
       <use xlink:href="#DejaVuSans-2e" x="63.623047"/>
       <use xlink:href="#DejaVuSans-30" x="95.410156"/>
      </g>
     </g>
    </g>
    <g id="xtick_4">
     <g id="line2d_7">
      <path d="M 260.956787 277.92 
L 260.956787 0.72 
" clip-path="url(#p383feee485)" style="fill: none; stroke-dasharray: 0.8,1.32; stroke-dashoffset: 0; stroke: #000000; stroke-opacity: 0.5; stroke-width: 0.8"/>
     </g>
     <g id="line2d_8">
      <g>
       <use xlink:href="#mc10f5f199d" x="260.956787" y="277.92" style="stroke: #000000; stroke-width: 0.8"/>
      </g>
     </g>
     <g id="text_4">
      <!-- 7.5 -->
      <g transform="translate(253.005225 292.518438) scale(0.1 -0.1)">
       <defs>
        <path id="DejaVuSans-37" d="M 525 4666 
L 3525 4666 
L 3525 4397 
L 1831 0 
L 1172 0 
L 2766 4134 
L 525 4134 
L 525 4666 
z
" transform="scale(0.015625)"/>
       </defs>
       <use xlink:href="#DejaVuSans-37"/>
       <use xlink:href="#DejaVuSans-2e" x="63.623047"/>
       <use xlink:href="#DejaVuSans-35" x="95.410156"/>
      </g>
     </g>
    </g>
    <g id="xtick_5">
     <g id="line2d_9">
      <path d="M 335.108112 277.92 
L 335.108112 0.72 
" clip-path="url(#p383feee485)" style="fill: none; stroke-dasharray: 0.8,1.32; stroke-dashoffset: 0; stroke: #000000; stroke-opacity: 0.5; stroke-width: 0.8"/>
     </g>
     <g id="line2d_10">
      <g>
       <use xlink:href="#mc10f5f199d" x="335.108112" y="277.92" style="stroke: #000000; stroke-width: 0.8"/>
      </g>
     </g>
     <g id="text_5">
      <!-- 10.0 -->
      <g transform="translate(323.9753 292.518438) scale(0.1 -0.1)">
       <defs>
        <path id="DejaVuSans-31" d="M 794 531 
L 1825 531 
L 1825 4091 
L 703 3866 
L 703 4441 
L 1819 4666 
L 2450 4666 
L 2450 531 
L 3481 531 
L 3481 0 
L 794 0 
L 794 531 
z
" transform="scale(0.015625)"/>
       </defs>
       <use xlink:href="#DejaVuSans-31"/>
       <use xlink:href="#DejaVuSans-30" x="63.623047"/>
       <use xlink:href="#DejaVuSans-2e" x="127.246094"/>
       <use xlink:href="#DejaVuSans-30" x="159.033203"/>
      </g>
     </g>
    </g>
    <g id="xtick_6">
     <g id="line2d_11">
      <path d="M 409.259437 277.92 
L 409.259437 0.72 
" clip-path="url(#p383feee485)" style="fill: none; stroke-dasharray: 0.8,1.32; stroke-dashoffset: 0; stroke: #000000; stroke-opacity: 0.5; stroke-width: 0.8"/>
     </g>
     <g id="line2d_12">
      <g>
       <use xlink:href="#mc10f5f199d" x="409.259437" y="277.92" style="stroke: #000000; stroke-width: 0.8"/>
      </g>
     </g>
     <g id="text_6">
      <!-- 12.5 -->
      <g transform="translate(398.126625 292.518438) scale(0.1 -0.1)">
       <use xlink:href="#DejaVuSans-31"/>
       <use xlink:href="#DejaVuSans-32" x="63.623047"/>
       <use xlink:href="#DejaVuSans-2e" x="127.246094"/>
       <use xlink:href="#DejaVuSans-35" x="159.033203"/>
      </g>
     </g>
    </g>
    <g id="xtick_7">
     <g id="line2d_13">
      <path d="M 483.410762 277.92 
L 483.410762 0.72 
" clip-path="url(#p383feee485)" style="fill: none; stroke-dasharray: 0.8,1.32; stroke-dashoffset: 0; stroke: #000000; stroke-opacity: 0.5; stroke-width: 0.8"/>
     </g>
     <g id="line2d_14">
      <g>
       <use xlink:href="#mc10f5f199d" x="483.410762" y="277.92" style="stroke: #000000; stroke-width: 0.8"/>
      </g>
     </g>
     <g id="text_7">
      <!-- 15.0 -->
      <g transform="translate(472.27795 292.518438) scale(0.1 -0.1)">
       <use xlink:href="#DejaVuSans-31"/>
       <use xlink:href="#DejaVuSans-35" x="63.623047"/>
       <use xlink:href="#DejaVuSans-2e" x="127.246094"/>
       <use xlink:href="#DejaVuSans-30" x="159.033203"/>
      </g>
     </g>
    </g>
    <g id="xtick_8">
     <g id="line2d_15">
      <path d="M 557.562087 277.92 
L 557.562087 0.72 
" clip-path="url(#p383feee485)" style="fill: none; stroke-dasharray: 0.8,1.32; stroke-dashoffset: 0; stroke: #000000; stroke-opacity: 0.5; stroke-width: 0.8"/>
     </g>
     <g id="line2d_16">
      <g>
       <use xlink:href="#mc10f5f199d" x="557.562087" y="277.92" style="stroke: #000000; stroke-width: 0.8"/>
      </g>
     </g>
     <g id="text_8">
      <!-- 17.5 -->
      <g transform="translate(546.429274 292.518438) scale(0.1 -0.1)">
       <use xlink:href="#DejaVuSans-31"/>
       <use xlink:href="#DejaVuSans-37" x="63.623047"/>
       <use xlink:href="#DejaVuSans-2e" x="127.246094"/>
       <use xlink:href="#DejaVuSans-35" x="159.033203"/>
      </g>
     </g>
    </g>
    <g id="text_9">
     <!-- Zeit [s] -->
     <g transform="translate(299.556719 302.196563) scale(0.1 -0.1)">
      <defs>
       <path id="DejaVuSans-5a" d="M 359 4666 
L 4025 4666 
L 4025 4184 
L 1075 531 
L 4097 531 
L 4097 0 
L 288 0 
L 288 481 
L 3238 4134 
L 359 4134 
L 359 4666 
z
" transform="scale(0.015625)"/>
       <path id="DejaVuSans-65" d="M 3597 1894 
L 3597 1613 
L 953 1613 
Q 991 1019 1311 708 
Q 1631 397 2203 397 
Q 2534 397 2845 478 
Q 3156 559 3463 722 
L 3463 178 
Q 3153 47 2828 -22 
Q 2503 -91 2169 -91 
Q 1331 -91 842 396 
Q 353 884 353 1716 
Q 353 2575 817 3079 
Q 1281 3584 2069 3584 
Q 2775 3584 3186 3129 
Q 3597 2675 3597 1894 
z
M 3022 2063 
Q 3016 2534 2758 2815 
Q 2500 3097 2075 3097 
Q 1594 3097 1305 2825 
Q 1016 2553 972 2059 
L 3022 2063 
z
" transform="scale(0.015625)"/>
       <path id="DejaVuSans-69" d="M 603 3500 
L 1178 3500 
L 1178 0 
L 603 0 
L 603 3500 
z
M 603 4863 
L 1178 4863 
L 1178 4134 
L 603 4134 
L 603 4863 
z
" transform="scale(0.015625)"/>
       <path id="DejaVuSans-74" d="M 1172 4494 
L 1172 3500 
L 2356 3500 
L 2356 3053 
L 1172 3053 
L 1172 1153 
Q 1172 725 1289 603 
Q 1406 481 1766 481 
L 2356 481 
L 2356 0 
L 1766 0 
Q 1100 0 847 248 
Q 594 497 594 1153 
L 594 3053 
L 172 3053 
L 172 3500 
L 594 3500 
L 594 4494 
L 1172 4494 
z
" transform="scale(0.015625)"/>
       <path id="DejaVuSans-20" transform="scale(0.015625)"/>
       <path id="DejaVuSans-5b" d="M 550 4863 
L 1875 4863 
L 1875 4416 
L 1125 4416 
L 1125 -397 
L 1875 -397 
L 1875 -844 
L 550 -844 
L 550 4863 
z
" transform="scale(0.015625)"/>
       <path id="DejaVuSans-73" d="M 2834 3397 
L 2834 2853 
Q 2591 2978 2328 3040 
Q 2066 3103 1784 3103 
Q 1356 3103 1142 2972 
Q 928 2841 928 2578 
Q 928 2378 1081 2264 
Q 1234 2150 1697 2047 
L 1894 2003 
Q 2506 1872 2764 1633 
Q 3022 1394 3022 966 
Q 3022 478 2636 193 
Q 2250 -91 1575 -91 
Q 1294 -91 989 -36 
Q 684 19 347 128 
L 347 722 
Q 666 556 975 473 
Q 1284 391 1588 391 
Q 1994 391 2212 530 
Q 2431 669 2431 922 
Q 2431 1156 2273 1281 
Q 2116 1406 1581 1522 
L 1381 1569 
Q 847 1681 609 1914 
Q 372 2147 372 2553 
Q 372 3047 722 3315 
Q 1072 3584 1716 3584 
Q 2034 3584 2315 3537 
Q 2597 3491 2834 3397 
z
" transform="scale(0.015625)"/>
       <path id="DejaVuSans-5d" d="M 1947 4863 
L 1947 -844 
L 622 -844 
L 622 -397 
L 1369 -397 
L 1369 4416 
L 622 4416 
L 622 4863 
L 1947 4863 
z
" transform="scale(0.015625)"/>
      </defs>
      <use xlink:href="#DejaVuSans-5a"/>
      <use xlink:href="#DejaVuSans-65" x="68.505859"/>
      <use xlink:href="#DejaVuSans-69" x="130.029297"/>
      <use xlink:href="#DejaVuSans-74" x="157.8125"/>
      <use xlink:href="#DejaVuSans-20" x="197.021484"/>
      <use xlink:href="#DejaVuSans-5b" x="228.808594"/>
      <use xlink:href="#DejaVuSans-73" x="267.822266"/>
      <use xlink:href="#DejaVuSans-5d" x="319.921875"/>
     </g>
    </g>
   </g>
   <g id="matplotlib.axis_2">
    <g id="ytick_1">
     <g id="line2d_17">
      <path d="M 38.502813 270.899121 
L 596.502813 270.899121 
" clip-path="url(#p383feee485)" style="fill: none; stroke-dasharray: 0.8,1.32; stroke-dashoffset: 0; stroke: #000000; stroke-opacity: 0.5; stroke-width: 0.8"/>
     </g>
     <g id="line2d_18">
      <defs>
       <path id="mf4a1495027" d="M 0 0 
L -3.5 0 
" style="stroke: #000000; stroke-width: 0.8"/>
      </defs>
      <g>
       <use xlink:href="#mf4a1495027" x="38.502813" y="270.899121" style="stroke: #000000; stroke-width: 0.8"/>
      </g>
     </g>
     <g id="text_10">
      <!-- −35 -->
      <g transform="translate(10.398125 274.698339) scale(0.1 -0.1)">
       <defs>
        <path id="DejaVuSans-2212" d="M 678 2272 
L 4684 2272 
L 4684 1741 
L 678 1741 
L 678 2272 
z
" transform="scale(0.015625)"/>
        <path id="DejaVuSans-33" d="M 2597 2516 
Q 3050 2419 3304 2112 
Q 3559 1806 3559 1356 
Q 3559 666 3084 287 
Q 2609 -91 1734 -91 
Q 1441 -91 1130 -33 
Q 819 25 488 141 
L 488 750 
Q 750 597 1062 519 
Q 1375 441 1716 441 
Q 2309 441 2620 675 
Q 2931 909 2931 1356 
Q 2931 1769 2642 2001 
Q 2353 2234 1838 2234 
L 1294 2234 
L 1294 2753 
L 1863 2753 
Q 2328 2753 2575 2939 
Q 2822 3125 2822 3475 
Q 2822 3834 2567 4026 
Q 2313 4219 1838 4219 
Q 1578 4219 1281 4162 
Q 984 4106 628 3988 
L 628 4550 
Q 988 4650 1302 4700 
Q 1616 4750 1894 4750 
Q 2613 4750 3031 4423 
Q 3450 4097 3450 3541 
Q 3450 3153 3228 2886 
Q 3006 2619 2597 2516 
z
" transform="scale(0.015625)"/>
       </defs>
       <use xlink:href="#DejaVuSans-2212"/>
       <use xlink:href="#DejaVuSans-33" x="83.789062"/>
       <use xlink:href="#DejaVuSans-35" x="147.412109"/>
      </g>
     </g>
    </g>
    <g id="ytick_2">
     <g id="line2d_19">
      <path d="M 38.502813 215.099965 
L 596.502813 215.099965 
" clip-path="url(#p383feee485)" style="fill: none; stroke-dasharray: 0.8,1.32; stroke-dashoffset: 0; stroke: #000000; stroke-opacity: 0.5; stroke-width: 0.8"/>
     </g>
     <g id="line2d_20">
      <g>
       <use xlink:href="#mf4a1495027" x="38.502813" y="215.099965" style="stroke: #000000; stroke-width: 0.8"/>
      </g>
     </g>
     <g id="text_11">
      <!-- −30 -->
      <g transform="translate(10.398125 218.899184) scale(0.1 -0.1)">
       <use xlink:href="#DejaVuSans-2212"/>
       <use xlink:href="#DejaVuSans-33" x="83.789062"/>
       <use xlink:href="#DejaVuSans-30" x="147.412109"/>
      </g>
     </g>
    </g>
    <g id="ytick_3">
     <g id="line2d_21">
      <path d="M 38.502813 159.300809 
L 596.502813 159.300809 
" clip-path="url(#p383feee485)" style="fill: none; stroke-dasharray: 0.8,1.32; stroke-dashoffset: 0; stroke: #000000; stroke-opacity: 0.5; stroke-width: 0.8"/>
     </g>
     <g id="line2d_22">
      <g>
       <use xlink:href="#mf4a1495027" x="38.502813" y="159.300809" style="stroke: #000000; stroke-width: 0.8"/>
      </g>
     </g>
     <g id="text_12">
      <!-- −25 -->
      <g transform="translate(10.398125 163.100028) scale(0.1 -0.1)">
       <use xlink:href="#DejaVuSans-2212"/>
       <use xlink:href="#DejaVuSans-32" x="83.789062"/>
       <use xlink:href="#DejaVuSans-35" x="147.412109"/>
      </g>
     </g>
    </g>
    <g id="ytick_4">
     <g id="line2d_23">
      <path d="M 38.502813 103.501653 
L 596.502813 103.501653 
" clip-path="url(#p383feee485)" style="fill: none; stroke-dasharray: 0.8,1.32; stroke-dashoffset: 0; stroke: #000000; stroke-opacity: 0.5; stroke-width: 0.8"/>
     </g>
     <g id="line2d_24">
      <g>
       <use xlink:href="#mf4a1495027" x="38.502813" y="103.501653" style="stroke: #000000; stroke-width: 0.8"/>
      </g>
     </g>
     <g id="text_13">
      <!-- −20 -->
      <g transform="translate(10.398125 107.300872) scale(0.1 -0.1)">
       <use xlink:href="#DejaVuSans-2212"/>
       <use xlink:href="#DejaVuSans-32" x="83.789062"/>
       <use xlink:href="#DejaVuSans-30" x="147.412109"/>
      </g>
     </g>
    </g>
    <g id="ytick_5">
     <g id="line2d_25">
      <path d="M 38.502813 47.702497 
L 596.502813 47.702497 
" clip-path="url(#p383feee485)" style="fill: none; stroke-dasharray: 0.8,1.32; stroke-dashoffset: 0; stroke: #000000; stroke-opacity: 0.5; stroke-width: 0.8"/>
     </g>
     <g id="line2d_26">
      <g>
       <use xlink:href="#mf4a1495027" x="38.502813" y="47.702497" style="stroke: #000000; stroke-width: 0.8"/>
      </g>
     </g>
     <g id="text_14">
      <!-- −15 -->
      <g transform="translate(10.398125 51.501716) scale(0.1 -0.1)">
       <use xlink:href="#DejaVuSans-2212"/>
       <use xlink:href="#DejaVuSans-31" x="83.789062"/>
       <use xlink:href="#DejaVuSans-35" x="147.412109"/>
      </g>
     </g>
    </g>
    <g id="text_15">
     <!-- Drehmoment [Nm] -->
     <g transform="translate(8.318438 186.465313) rotate(-90) scale(0.1 -0.1)">
      <defs>
       <path id="DejaVuSans-44" d="M 1259 4147 
L 1259 519 
L 2022 519 
Q 2988 519 3436 956 
Q 3884 1394 3884 2338 
Q 3884 3275 3436 3711 
Q 2988 4147 2022 4147 
L 1259 4147 
z
M 628 4666 
L 1925 4666 
Q 3281 4666 3915 4102 
Q 4550 3538 4550 2338 
Q 4550 1131 3912 565 
Q 3275 0 1925 0 
L 628 0 
L 628 4666 
z
" transform="scale(0.015625)"/>
       <path id="DejaVuSans-72" d="M 2631 2963 
Q 2534 3019 2420 3045 
Q 2306 3072 2169 3072 
Q 1681 3072 1420 2755 
Q 1159 2438 1159 1844 
L 1159 0 
L 581 0 
L 581 3500 
L 1159 3500 
L 1159 2956 
Q 1341 3275 1631 3429 
Q 1922 3584 2338 3584 
Q 2397 3584 2469 3576 
Q 2541 3569 2628 3553 
L 2631 2963 
z
" transform="scale(0.015625)"/>
       <path id="DejaVuSans-68" d="M 3513 2113 
L 3513 0 
L 2938 0 
L 2938 2094 
Q 2938 2591 2744 2837 
Q 2550 3084 2163 3084 
Q 1697 3084 1428 2787 
Q 1159 2491 1159 1978 
L 1159 0 
L 581 0 
L 581 4863 
L 1159 4863 
L 1159 2956 
Q 1366 3272 1645 3428 
Q 1925 3584 2291 3584 
Q 2894 3584 3203 3211 
Q 3513 2838 3513 2113 
z
" transform="scale(0.015625)"/>
       <path id="DejaVuSans-6d" d="M 3328 2828 
Q 3544 3216 3844 3400 
Q 4144 3584 4550 3584 
Q 5097 3584 5394 3201 
Q 5691 2819 5691 2113 
L 5691 0 
L 5113 0 
L 5113 2094 
Q 5113 2597 4934 2840 
Q 4756 3084 4391 3084 
Q 3944 3084 3684 2787 
Q 3425 2491 3425 1978 
L 3425 0 
L 2847 0 
L 2847 2094 
Q 2847 2600 2669 2842 
Q 2491 3084 2119 3084 
Q 1678 3084 1418 2786 
Q 1159 2488 1159 1978 
L 1159 0 
L 581 0 
L 581 3500 
L 1159 3500 
L 1159 2956 
Q 1356 3278 1631 3431 
Q 1906 3584 2284 3584 
Q 2666 3584 2933 3390 
Q 3200 3197 3328 2828 
z
" transform="scale(0.015625)"/>
       <path id="DejaVuSans-6f" d="M 1959 3097 
Q 1497 3097 1228 2736 
Q 959 2375 959 1747 
Q 959 1119 1226 758 
Q 1494 397 1959 397 
Q 2419 397 2687 759 
Q 2956 1122 2956 1747 
Q 2956 2369 2687 2733 
Q 2419 3097 1959 3097 
z
M 1959 3584 
Q 2709 3584 3137 3096 
Q 3566 2609 3566 1747 
Q 3566 888 3137 398 
Q 2709 -91 1959 -91 
Q 1206 -91 779 398 
Q 353 888 353 1747 
Q 353 2609 779 3096 
Q 1206 3584 1959 3584 
z
" transform="scale(0.015625)"/>
       <path id="DejaVuSans-6e" d="M 3513 2113 
L 3513 0 
L 2938 0 
L 2938 2094 
Q 2938 2591 2744 2837 
Q 2550 3084 2163 3084 
Q 1697 3084 1428 2787 
Q 1159 2491 1159 1978 
L 1159 0 
L 581 0 
L 581 3500 
L 1159 3500 
L 1159 2956 
Q 1366 3272 1645 3428 
Q 1925 3584 2291 3584 
Q 2894 3584 3203 3211 
Q 3513 2838 3513 2113 
z
" transform="scale(0.015625)"/>
       <path id="DejaVuSans-4e" d="M 628 4666 
L 1478 4666 
L 3547 763 
L 3547 4666 
L 4159 4666 
L 4159 0 
L 3309 0 
L 1241 3903 
L 1241 0 
L 628 0 
L 628 4666 
z
" transform="scale(0.015625)"/>
      </defs>
      <use xlink:href="#DejaVuSans-44"/>
      <use xlink:href="#DejaVuSans-72" x="77.001953"/>
      <use xlink:href="#DejaVuSans-65" x="115.865234"/>
      <use xlink:href="#DejaVuSans-68" x="177.388672"/>
      <use xlink:href="#DejaVuSans-6d" x="240.767578"/>
      <use xlink:href="#DejaVuSans-6f" x="338.179688"/>
      <use xlink:href="#DejaVuSans-6d" x="399.361328"/>
      <use xlink:href="#DejaVuSans-65" x="496.773438"/>
      <use xlink:href="#DejaVuSans-6e" x="558.296875"/>
      <use xlink:href="#DejaVuSans-74" x="621.675781"/>
      <use xlink:href="#DejaVuSans-20" x="660.884766"/>
      <use xlink:href="#DejaVuSans-5b" x="692.671875"/>
      <use xlink:href="#DejaVuSans-4e" x="731.685547"/>
      <use xlink:href="#DejaVuSans-6d" x="806.490234"/>
      <use xlink:href="#DejaVuSans-5d" x="903.902344"/>
     </g>
    </g>
   </g>
   <g id="line2d_27">
    <path d="M 38.502813 64.046614 
L 223.554257 64.017819 
L 223.732051 63.909152 
L 224.048213 63.027826 
L 224.976617 55.118476 
L 225.274355 53.719914 
L 225.75103 53.139513 
L 225.988789 53.237663 
L 226.525541 53.946222 
L 226.707352 55.138346 
L 227.004147 56.030421 
L 227.184451 55.505807 
L 227.422827 56.180384 
L 227.479239 55.139068 
L 227.717393 56.54847 
L 227.956897 57.21999 
L 228.194151 55.859192 
L 228.730952 57.291241 
L 228.972776 56.336092 
L 229.211707 56.149566 
L 229.507621 55.155217 
L 229.86666 55.201756 
L 229.998628 55.105671 
L 230.173069 52.57815 
L 230.705939 56.48275 
L 230.945101 53.54791 
L 231.242363 57.063005 
L 231.630147 57.691398 
L 231.663719 58.89266 
L 232.136825 56.161448 
L 232.316057 52.127986 
L 232.434509 57.616761 
L 232.915984 55.386689 
L 233.208451 51.913321 
L 233.387885 57.444363 
L 233.864567 53.061397 
L 234.163673 59.936548 
L 234.459871 54.563396 
L 234.638675 54.993657 
L 234.877477 58.166817 
L 235.11598 59.346816 
L 235.432665 56.502112 
L 235.72695 58.900589 
L 235.906757 54.459615 
L 236.084479 59.448372 
L 236.384217 60.783555 
L 236.621287 54.05173 
L 236.919839 53.476277 
L 237.157824 56.391395 
L 237.395703 51.503169 
L 237.695023 51.136179 
L 237.874902 59.303194 
L 238.290534 57.022888 
L 238.35076 57.216242 
L 238.589264 58.473821 
L 238.828455 61.588675 
L 239.065068 50.941649 
L 239.305311 51.349309 
L 239.549082 53.741645 
L 239.840779 49.55511 
L 240.023237 59.748422 
L 240.317181 55.279541 
L 240.614551 54.770537 
L 240.793797 49.339798 
L 241.151839 58.759365 
L 241.389884 57.568403 
L 241.569338 53.565841 
L 242.044896 59.403194 
L 242.344062 55.676909 
L 242.641746 55.384957 
L 242.939843 53.442293 
L 243.118815 60.39572 
L 243.41606 63.420421 
L 243.539421 57.603804 
L 243.836562 58.9589 
L 244.071675 59.369551 
L 244.531837 55.556762 
L 244.760099 59.263244 
L 244.998784 56.558031 
L 245.741822 50.602747 
L 246.202726 56.685811 
L 246.337942 69.311658 
L 246.460816 65.323174 
L 246.754794 51.391464 
L 246.994239 61.620267 
L 247.232263 64.391445 
L 247.469526 48.924209 
L 247.708076 57.149535 
L 248.125328 65.674476 
L 248.363697 61.86963 
L 248.543255 64.871414 
L 248.848689 46.695297 
L 249.020847 63.893937 
L 249.218981 57.030068 
L 249.530817 58.825003 
L 249.796994 56.430467 
L 249.91722 59.458915 
L 250.176782 60.050459 
L 250.454559 54.562265 
L 250.69308 54.670716 
L 250.990238 56.37906 
L 251.171156 52.713643 
L 251.466717 55.328983 
L 251.705896 51.290949 
L 252.004037 51.850957 
L 252.243865 52.823779 
L 252.425758 47.915552 
L 253.137428 58.219489 
L 253.437262 51.326009 
L 253.732822 54.775697 
L 253.912799 52.606234 
L 254.151034 57.265571 
L 254.390353 71.292499 
L 254.866171 45.153046 
L 255.283195 75.373079 
L 255.702331 55.231519 
L 255.879236 55.781818 
L 256.118256 65.497119 
L 256.357 62.7377 
L 256.596713 53.001523 
L 257.013573 50.302574 
L 257.134596 61.917157 
L 257.430682 58.29433 
L 257.61066 49.602661 
L 257.848051 58.105413 
L 258.20509 65.962974 
L 258.445132 51.755175 
L 258.577231 61.194242 
L 258.859825 72.286774 
L 259.158214 68.115805 
L 259.730147 58.640468 
L 259.876027 46.574876 
L 260.173233 66.290522 
L 260.294447 59.15907 
L 260.591149 52.465574 
L 260.949329 30.174439 
L 261.490067 64.832237 
L 261.602805 68.285311 
L 261.975746 59.467649 
L 262.086563 60.384911 
L 262.328785 66.15006 
L 262.55622 60.732927 
L 262.794199 57.783242 
L 263.151773 73.620788 
L 263.330837 63.481769 
L 263.7477 47.824935 
L 263.866901 56.231861 
L 264.105397 52.302437 
L 264.285849 72.318443 
L 264.643203 51.424985 
L 264.881961 54.815547 
L 265.058864 52.608564 
L 265.299527 55.970096 
L 265.714773 74.367095 
L 265.955612 70.382857 
L 266.252174 55.939492 
L 266.48981 59.806003 
L 267.09442 59.155848 
L 267.324829 64.663725 
L 267.563622 48.595636 
L 267.759853 58.907799 
L 268.099501 61.481974 
L 268.338011 68.441773 
L 268.756773 59.124653 
L 269.017167 62.699172 
L 269.233644 72.761209 
L 269.530633 73.336089 
L 269.887378 68.299646 
L 270.125731 69.021815 
L 270.245132 59.166034 
L 270.661966 59.326687 
L 270.723 63.218873 
L 270.960397 67.30621 
L 271.318588 70.365159 
L 271.561653 58.202083 
L 271.735812 71.762592 
L 271.975033 56.108282 
L 272.454512 72.066472 
L 272.689423 51.435556 
L 272.927961 77.066253 
L 273.17533 75.041839 
L 273.643316 61.99459 
L 273.969451 57.666234 
L 274.219372 57.976202 
L 274.658263 66.693535 
L 274.845561 62.391605 
L 275.037647 61.649781 
L 275.313574 55.851246 
L 275.437851 68.694658 
L 275.791628 67.405745 
L 275.91339 61.334163 
L 276.20821 56.050484 
L 276.393789 73.781632 
L 276.812326 62.292608 
L 277.049078 79.081117 
L 277.162083 64.486117 
L 277.590469 60.005134 
L 277.779075 73.299974 
L 277.939041 51.907638 
L 278.12053 49.77297 
L 278.475781 76.978902 
L 278.624491 66.439406 
L 278.955747 70.156956 
L 279.193852 68.966004 
L 279.431173 51.68488 
L 279.612332 79.648814 
L 279.907556 60.571979 
L 280.086959 62.395382 
L 280.384925 48.580224 
L 280.623809 66.44795 
L 280.980465 65.855105 
L 281.1601 60.3131 
L 281.457142 70.071218 
L 281.594071 79.824669 
L 281.873928 56.422137 
L 282.056615 75.602787 
L 282.113657 61.92077 
L 282.351481 66.882956 
L 282.533731 61.827049 
L 282.828435 64.164755 
L 283.068365 62.610327 
L 283.306338 65.165367 
L 283.66432 40.280379 
L 283.961917 64.443901 
L 284.088847 85.763421 
L 284.319934 65.579926 
L 284.563335 54.749803 
L 284.856401 54.651085 
L 285.034625 78.075437 
L 285.276257 65.519918 
L 285.810779 61.986333 
L 286.048783 46.910308 
L 286.292195 57.672729 
L 286.526687 76.161681 
L 286.769413 74.215925 
L 287.007247 87.567261 
L 287.262421 61.627873 
L 287.484106 74.464923 
L 287.84259 63.738466 
L 288.024509 48.657541 
L 288.259375 61.768237 
L 288.497522 54.116633 
L 288.736219 53.879005 
L 289.035046 64.13611 
L 289.24077 66.785648 
L 289.455069 56.708826 
L 289.811148 57.743792 
L 290.227704 39.442051 
L 290.347633 69.633226 
L 290.465879 44.921026 
L 290.883363 85.230593 
L 290.948755 48.602714 
L 291.225488 60.566165 
L 291.495528 79.993843 
L 291.679836 58.714989 
L 292.13465 91.972031 
L 292.194976 61.218566 
L 292.432576 57.812839 
L 292.969282 71.563589 
L 293.207555 72.81076 
L 293.504983 64.500605 
L 293.689059 70.243655 
L 293.924229 87.227335 
L 294.221147 85.750778 
L 294.466574 75.433601 
L 294.698997 92.043601 
L 294.878318 68.918271 
L 295.173661 74.407007 
L 295.4127 57.215874 
L 295.717231 54.093221 
L 295.948103 84.887785 
L 296.426372 62.610291 
L 296.607631 61.674536 
L 296.961851 66.894795 
L 297.152314 77.416603 
L 297.438974 60.017411 
L 297.620443 80.938757 
L 297.929888 66.770868 
L 298.095365 64.552292 
L 298.335465 62.83475 
L 298.632709 77.30757 
L 299.108436 60.339661 
L 299.60655 62.233572 
L 299.827215 58.853973 
L 300.182774 77.266608 
L 300.361705 57.713367 
L 300.600166 75.768727 
L 300.854175 62.813884 
L 301.079765 78.094046 
L 301.494049 43.677362 
L 301.613328 61.119974 
L 301.911255 45.601485 
L 302.09056 71.504394 
L 302.447614 64.951111 
L 302.80676 50.780472 
L 303.043886 67.615663 
L 303.341324 64.322443 
L 303.54503 70.043494 
L 303.826118 61.019816 
L 304.41641 70.902638 
L 304.595673 61.025676 
L 304.95287 65.584263 
L 305.252232 77.271127 
L 305.31073 71.07467 
L 305.548602 70.239845 
L 305.846457 72.110677 
L 306.02906 70.934872 
L 306.385283 71.990148 
L 306.562027 81.011896 
L 306.801509 77.457667 
L 306.996024 63.883535 
L 307.281744 66.93974 
L 308.299126 73.346508 
L 308.537897 51.804215 
L 308.839248 70.779277 
L 309.086734 67.983868 
L 309.313549 74.720848 
L 309.455479 69.599628 
L 309.930311 78.427895 
L 310.28921 63.156045 
L 310.527271 83.421169 
L 310.708003 56.320723 
L 311.063774 61.490486 
L 311.242711 60.530165 
L 311.611583 52.222348 
L 311.781527 77.738601 
L 312.017687 71.835996 
L 312.375319 55.016182 
L 312.501747 72.026623 
L 312.732977 68.403499 
L 313.090224 66.499636 
L 313.212638 272.589231 
L 313.805492 246.014221 
L 314.235778 114.08659 
L 314.58015 111.622746 
L 314.701814 83.791798 
L 314.938888 66.194869 
L 315.237717 63.856456 
L 315.682591 55.69598 
L 316.016983 55.654271 
L 316.33419 59.053799 
L 316.452034 32.278917 
L 316.695304 53.75714 
L 316.995565 43.314966 
L 317.110027 62.130856 
L 317.410895 56.310584 
L 317.763281 64.423446 
L 318.060545 64.099085 
L 318.180102 65.069381 
L 318.359189 68.983562 
L 318.718927 52.077813 
L 318.959086 52.701127 
L 319.49789 75.199196 
L 319.614865 65.404935 
L 319.910478 80.694136 
L 320.14826 66.415422 
L 320.624731 60.564727 
L 320.864807 64.063122 
L 321.102007 48.597586 
L 321.340325 59.513404 
L 321.584298 61.929938 
L 321.878065 44.410951 
L 322.357206 63.090497 
L 322.592008 65.605739 
L 322.840479 63.14557 
L 323.070052 64.556972 
L 323.310491 64.490833 
L 323.548541 76.500909 
L 323.963903 75.317001 
L 324.083748 61.461738 
L 324.50419 71.597778 
L 324.569671 54.768037 
L 324.802157 65.103628 
L 325.098086 64.380674 
L 325.454334 63.913587 
L 325.633327 61.647424 
L 325.812051 65.292052 
L 326.051482 51.170644 
L 326.294583 54.130232 
L 326.530758 62.238086 
L 326.852363 56.705226 
L 327.242305 66.579078 
L 327.301953 61.420958 
L 327.540635 64.884373 
L 327.778986 63.856836 
L 328.020226 66.64863 
L 328.256505 64.340879 
L 328.495475 50.846666 
L 328.794246 72.242531 
L 329.171816 63.313335 
L 329.275333 70.418025 
L 329.508337 76.444084 
L 329.745474 55.546372 
L 330.162941 64.317818 
L 330.282264 64.074922 
L 330.580948 63.887607 
L 330.761294 71.339018 
L 331.057073 65.458219 
L 331.312423 73.539167 
L 331.798258 59.915414 
L 332.018819 67.48097 
L 332.487919 65.365157 
L 332.725398 67.212267 
L 333.024265 64.027333 
L 333.267721 68.735355 
L 333.502737 70.314469 
L 333.741417 61.52506 
L 333.980504 64.902076 
L 334.226045 71.647726 
L 334.581092 57.207602 
L 335.022935 65.476365 
L 335.231468 64.977265 
L 335.709664 76.736243 
L 335.971918 72.977087 
L 336.184852 61.185951 
L 336.423478 60.391562 
L 336.663453 60.545293 
L 336.900926 67.740229 
L 337.317585 63.200162 
L 337.437428 59.75676 
L 337.736454 66.935421 
L 337.916816 64.060655 
L 338.161358 51.443338 
L 338.54477 71.52075 
L 338.658091 61.159232 
L 338.944233 64.171909 
L 338.991294 65.968061 
L 339.29103 51.167642 
L 339.410048 66.323637 
L 339.825811 64.528196 
L 339.945144 65.62456 
L 340.12328 64.098429 
L 340.421547 59.331436 
L 340.719728 74.2115 
L 340.898441 66.45384 
L 341.13678 63.650406 
L 341.375437 65.743706 
L 341.615004 60.355349 
L 341.917182 70.145255 
L 342.091832 70.432379 
L 342.390217 60.104198 
L 342.592547 62.98168 
L 342.865715 63.793247 
L 343.224194 74.729493 
L 343.364331 64.060108 
L 343.582206 64.061159 
L 343.819625 62.678947 
L 344.2367 65.036496 
L 344.355474 60.112478 
L 344.835051 68.18328 
L 345.073439 65.260532 
L 345.381281 66.990122 
L 345.609531 70.211321 
L 345.793405 56.906286 
L 346.084919 66.383143 
L 346.386542 66.296867 
L 346.623265 55.202878 
L 346.800697 69.871252 
L 347.046882 63.15268 
L 347.336523 60.514405 
L 347.633595 62.77956 
L 347.812551 66.01102 
L 348.051726 64.31437 
L 348.470912 62.635673 
L 348.531021 64.721308 
L 348.830156 64.423251 
L 349.025631 63.823829 
L 349.25029 70.259118 
L 349.603408 63.683741 
L 349.8421 63.973715 
L 350.139628 66.569089 
L 350.557034 47.791322 
L 350.855204 67.614376 
L 351.033535 66.339223 
L 351.272515 63.657014 
L 351.510253 50.759538 
L 351.86755 76.923244 
L 352.048182 62.23043 
L 352.34541 68.047805 
L 352.643325 62.540081 
L 352.763199 65.611745 
L 353.001631 75.589778 
L 353.358236 61.610766 
L 353.777296 63.129778 
L 354.192068 53.190997 
L 354.49016 70.696641 
L 354.729169 63.909201 
L 354.967142 65.291445 
L 355.26572 63.251863 
L 355.563366 64.060397 
L 355.691361 74.571096 
L 355.993376 64.113482 
L 356.230389 63.942878 
L 356.695564 75.443617 
L 357.11492 74.279885 
L 357.232346 60.884198 
L 357.414082 64.832929 
L 357.768024 63.160004 
L 358.067321 65.331137 
L 358.200121 68.627312 
L 358.619507 64.060728 
L 358.726755 69.768798 
L 358.964857 70.357686 
L 359.203431 62.485585 
L 359.448191 62.553752 
L 359.739861 64.251772 
L 359.918637 63.009826 
L 360.223373 67.18775 
L 360.464925 73.18507 
L 360.754514 53.083465 
L 360.876193 71.525268 
L 361.129106 65.269823 
L 361.415503 70.570187 
L 361.661674 63.604838 
L 361.887082 64.15232 
L 362.185637 66.348898 
L 362.424082 59.316401 
L 362.662654 63.322684 
L 362.950189 70.983652 
L 363.20353 51.152927 
L 363.423447 64.891745 
L 363.622003 62.443491 
L 363.916371 74.819133 
L 364.393153 64.468682 
L 364.630544 62.8039 
L 364.92917 65.904552 
L 365.107627 63.849257 
L 365.345698 65.840143 
L 365.643635 49.578945 
L 365.941582 63.213679 
L 366.120566 62.012216 
L 366.430486 74.50031 
L 366.661699 64.060347 
L 366.95586 64.060542 
L 367.137644 64.504312 
L 367.313284 65.936124 
L 367.613202 64.060856 
L 367.848153 69.739068 
L 368.164973 70.354979 
L 368.328014 61.52496 
L 368.629685 73.391117 
L 368.92628 64.007256 
L 369.113805 65.642059 
L 369.34484 64.767511 
L 369.529356 60.945865 
L 369.821758 61.452836 
L 370.240307 48.52513 
L 370.360723 68.0171 
L 370.778089 62.678735 
L 371.015218 64.991693 
L 371.312315 74.079744 
L 371.555098 65.856077 
L 371.789135 65.515704 
L 372.027824 63.29263 
L 372.325578 65.24055 
L 372.861574 72.285327 
L 373.397043 62.502471 
L 373.93445 75.187363 
L 373.993192 41.669232 
L 374.356468 62.252026 
L 374.64956 66.445084 
L 374.71244 65.353957 
L 375.080509 65.100814 
L 375.245909 62.948457 
L 375.486534 69.776289 
L 375.841426 63.132778 
L 376.021182 63.940352 
L 376.325316 69.257941 
L 376.501063 49.144107 
L 376.735908 62.335361 
L 377.275259 62.938093 
L 377.454122 76.743097 
L 377.691085 75.169346 
L 377.97089 61.936336 
L 378.467507 64.060589 
L 378.705786 63.888288 
L 379.003346 75.074705 
L 379.182787 63.778001 
L 379.541591 66.253049 
L 379.77876 57.340656 
L 379.957593 61.002762 
L 380.315476 62.415586 
L 380.43452 68.071519 
L 380.67377 67.413538 
L 380.971538 68.505017 
L 381.209422 63.487909 
L 381.566802 63.213954 
L 381.744983 64.970168 
L 382.170296 63.873098 
L 382.401177 59.362771 
L 382.640935 69.831293 
L 382.938268 61.627108 
L 383.116642 65.893068 
L 383.414778 63.268677 
L 383.653191 63.999054 
L 383.891272 72.606598 
L 384.130172 63.002351 
L 384.36784 61.285538 
L 385.141968 74.891918 
L 385.442062 64.511678 
L 385.737779 63.117174 
L 385.982328 55.690473 
L 386.154941 73.08423 
L 386.572481 63.767583 
L 386.633083 64.706886 
L 386.871953 65.479923 
L 387.288124 63.882162 
L 387.408358 77.005236 
L 387.704159 55.300481 
L 387.883735 64.976197 
L 388.12156 64.594143 
L 388.360572 74.206933 
L 388.83674 63.752243 
L 389.078696 62.233937 
L 389.373409 64.751902 
L 389.673069 63.949224 
L 389.731908 63.284478 
L 389.85151 64.060006 
L 390.209139 64.061701 
L 390.327434 69.375661 
L 390.566718 62.315657 
L 390.866233 48.541251 
L 391.578394 63.591397 
L 391.956832 63.696439 
L 392.061414 64.98656 
L 392.294363 58.179745 
L 392.534085 72.840201 
L 392.832412 66.790229 
L 393.014287 62.907087 
L 393.427847 74.271928 
L 393.65145 56.091647 
L 393.785792 62.459864 
L 394.023607 62.485583 
L 394.261973 63.382156 
L 394.507191 63.0722 
L 394.798172 62.173678 
L 395.156539 66.671535 
L 395.275553 72.876097 
L 395.574048 67.544297 
L 395.817442 66.092862 
L 396.050757 69.517174 
L 396.289007 65.687698 
L 396.468688 65.102245 
L 396.709418 62.832958 
L 397.006497 61.910589 
L 397.24286 62.995598 
L 397.480824 71.594612 
L 397.839129 63.828872 
L 398.01748 67.138611 
L 398.255879 65.01743 
L 398.493969 74.108836 
L 398.732782 63.890492 
L 399.032184 63.220837 
L 399.38968 66.566572 
L 399.629341 66.938972 
L 399.867123 52.362291 
L 399.986143 71.523889 
L 400.464749 61.422469 
L 400.710246 68.95592 
L 401.000306 71.462171 
L 401.240795 62.442651 
L 401.476641 61.278568 
L 401.775515 65.322629 
L 401.955105 62.793922 
L 402.253688 49.653744 
L 402.431344 70.26521 
L 402.669635 63.160997 
L 402.908526 64.203146 
L 403.206332 67.102265 
L 403.397622 53.623208 
L 403.633589 63.505907 
L 403.922551 65.822613 
L 404.402506 61.742583 
L 404.641312 67.811259 
L 404.947887 51.536603 
L 405.175669 64.841048 
L 405.385104 62.113321 
L 405.65268 60.582102 
L 405.894417 49.863939 
L 406.132636 62.772398 
L 406.426561 62.38492 
L 406.667313 66.786295 
L 406.963223 64.901093 
L 407.144113 47.115823 
L 407.380891 49.525251 
L 407.619993 65.862087 
L 407.860801 64.548629 
L 408.217822 68.859992 
L 408.398363 47.619625 
L 408.636507 63.859266 
L 408.917998 64.267831 
L 409.234688 61.840331 
L 409.470635 71.447332 
L 409.589722 51.770396 
L 409.829013 50.278532 
L 410.126347 65.78084 
L 410.42592 65.06871 
L 410.606015 60.726852 
L 410.844374 68.100049 
L 411.143152 64.285127 
L 411.320402 65.541704 
L 411.619643 65.167403 
L 411.857209 60.226052 
L 412.096215 75.408755 
L 412.512689 64.060751 
L 412.58546 65.859823 
L 412.87158 63.616273 
L 413.062343 59.061878 
L 413.456757 71.938795 
L 413.584819 60.144157 
L 413.81476 63.938561 
L 414.11483 65.672568 
L 414.472681 65.204295 
L 414.533583 74.319556 
L 414.830286 61.58913 
L 415.068038 61.90929 
L 415.309724 63.383986 
L 415.559664 64.061674 
L 415.96323 61.627878 
L 416.023198 62.508773 
L 416.321581 61.285313 
L 416.563927 64.378305 
L 416.805148 58.097283 
L 417.002271 68.183385 
L 417.276707 58.110635 
L 417.756951 64.84644 
L 418.054464 66.144255 
L 418.471725 63.773775 
L 418.530943 64.98341 
L 418.770431 60.151801 
L 419.126668 63.200657 
L 419.305279 71.369759 
L 419.487583 71.059072 
L 419.724077 72.894628 
L 419.962564 64.725639 
L 420.281437 63.996047 
L 420.501517 65.105415 
L 420.738015 55.802879 
L 420.975057 64.608247 
L 421.214128 63.3882 
L 421.512226 64.64626 
L 421.693249 62.295667 
L 422.225812 59.883767 
L 422.234324 157.755387 
L 422.468961 62.64217 
L 422.825214 73.561219 
L 423.004989 69.756634 
L 423.252127 69.385472 
L 423.484338 62.792904 
L 423.840978 62.55769 
L 423.960579 70.488358 
L 424.145321 62.903621 
L 424.43705 60.820069 
L 424.675708 64.059627 
L 424.915208 63.331263 
L 425.155055 61.021133 
L 425.574673 48.507031 
L 425.629286 74.459318 
L 425.988437 64.563693 
L 426.172027 65.416499 
L 426.40654 63.965514 
L 426.64547 63.707415 
L 427.065099 64.290394 
L 427.190077 69.234971 
L 427.445399 62.944376 
L 427.659166 73.506428 
L 427.90644 72.226539 
L 427.958088 60.574634 
L 428.19698 55.727419 
L 428.436409 64.093865 
L 428.619145 60.765235 
L 428.8559 64.626582 
L 429.151322 64.195204 
L 429.628082 47.170032 
L 430.10485 76.50626 
L 430.344322 77.552544 
L 430.903823 63.748972 
L 431.121983 63.208173 
L 431.357652 18.854754 
L 431.597523 8.518763 
L 431.843497 30.594098 
L 432.095657 38.092088 
L 432.328044 36.97884 
L 432.561897 40.340299 
L 432.821237 54.697967 
L 433.156978 60.404064 
L 433.463552 61.890963 
L 433.594031 64.450943 
L 433.87843 61.607823 
L 434.121676 61.76341 
L 434.414608 64.196975 
L 434.534949 69.86551 
L 434.776173 70.46626 
L 435.198864 72.437445 
L 435.318081 61.232534 
L 435.54992 63.359188 
L 435.793016 67.59575 
L 436.163582 58.347792 
L 436.324342 58.632144 
L 437.100266 67.363065 
L 437.400723 57.802843 
L 437.640155 73.867441 
L 438.242412 53.015306 
L 438.507695 60.262319 
L 438.778576 56.200413 
L 439.093849 64.230753 
L 439.259491 77.561676 
L 439.609454 67.288456 
L 439.813723 70.238704 
L 440.027646 66.315659 
L 440.326857 67.532447 
L 440.505242 56.883136 
L 440.743769 58.8441 
L 440.985603 56.935466 
L 441.360449 70.708901 
L 441.460589 70.46545 
L 441.996582 59.814499 
L 442.261655 67.51071 
L 442.476381 66.762274 
L 443.119643 61.051377 
L 443.306995 56.12857 
L 443.537398 80.806619 
L 443.835364 55.819669 
L 444.01571 61.775543 
L 444.193965 62.701915 
L 444.670741 71.487212 
L 445.029606 55.399674 
L 445.21114 58.21842 
L 445.566243 71.090933 
L 445.69185 49.174728 
L 446.223006 65.640105 
L 446.46149 63.288394 
L 446.703529 69.165555 
L 446.93948 62.405946 
L 447.182432 60.918053 
L 447.4174 61.284786 
L 447.656135 73.628791 
L 447.904892 63.177359 
L 448.138367 71.707062 
L 448.437338 58.547771 
L 448.625267 65.354723 
L 448.91479 65.793 
L 449.152725 65.273789 
L 449.392189 70.666296 
L 449.808343 60.98622 
L 449.89612 65.045729 
L 450.16705 55.699867 
L 450.46407 58.708997 
L 450.761942 65.803847 
L 450.94209 63.449884 
L 451.180519 74.642637 
L 451.425902 62.245588 
L 451.658653 63.453898 
L 452.077357 53.766871 
L 452.326715 66.149796 
L 452.613173 59.478013 
L 452.864845 63.956713 
L 453.098099 75.212977 
L 453.469682 64.484489 
L 453.632802 73.818313 
L 453.809319 58.287008 
L 454.134366 56.498452 
L 454.345201 77.320724 
L 454.765606 63.486143 
L 454.847127 69.705976 
L 455.071869 61.183763 
L 455.300727 62.150366 
L 455.539853 69.692741 
L 455.961335 63.245557 
L 456.150748 53.930902 
L 456.387019 71.629698 
L 456.566905 76.204011 
L 456.984034 61.677742 
L 457.044693 70.745161 
L 457.462645 58.075621 
L 457.762486 60.711425 
L 458.176246 76.192891 
L 458.295734 59.855134 
L 458.535771 67.996509 
L 458.772737 61.315171 
L 459.18988 68.049862 
L 459.309275 63.068125 
L 459.548312 67.939357 
L 459.792529 65.824843 
L 459.846799 63.003575 
L 460.026983 68.429627 
L 460.264394 86.266301 
L 460.505547 60.884958 
L 460.801349 61.667751 
L 460.981197 64.504102 
L 461.300883 65.00335 
L 461.461133 60.005388 
L 461.759676 76.987092 
L 461.997667 60.599704 
L 462.240011 66.969583 
L 462.535859 59.078113 
L 462.954361 74.998459 
L 463.252644 59.39985 
L 463.439137 67.879622 
L 463.848593 67.280351 
L 463.995751 60.739183 
L 464.210024 66.627018 
L 464.468285 66.524915 
L 464.68398 65.81445 
L 464.923343 60.214475 
L 465.170704 60.130486 
L 465.469677 72.826873 
L 465.710789 63.912337 
L 466.009353 65.291774 
L 466.243917 62.539886 
L 466.483619 66.628376 
L 466.663185 59.157924 
L 466.961408 59.883056 
L 467.199234 61.076799 
L 467.597038 65.92253 
L 467.744427 59.972989 
L 467.921045 72.735733 
L 468.311702 61.543892 
L 468.454257 61.292592 
L 468.761166 65.841412 
L 468.931187 61.680871 
L 469.179483 61.7941 
L 469.542461 60.299695 
L 469.64942 56.591174 
L 469.893371 55.954724 
L 470.128335 69.095217 
L 470.435389 70.757802 
L 470.683137 65.495795 
L 470.906718 72.608186 
L 471.143739 64.89505 
L 471.389817 72.828997 
L 471.682015 68.583928 
L 471.865224 56.269596 
L 472.16172 58.512864 
L 472.456786 64.008024 
L 472.636186 58.971822 
L 473.054076 69.041899 
L 473.400235 60.150078 
L 473.868197 69.993197 
L 474.170263 51.878639 
L 474.354868 73.211547 
L 474.645427 70.507974 
L 474.949827 61.310266 
L 475.125654 71.979618 
L 475.315542 71.636825 
L 475.601585 60.924032 
L 475.840459 62.85557 
L 476.079329 74.679528 
L 476.317061 74.943406 
L 476.555932 60.210144 
L 476.795462 80.526203 
L 477.212458 74.204375 
L 477.361592 52.619085 
L 477.749946 71.254248 
L 477.868828 58.128719 
L 478.107403 69.866553 
L 478.345862 55.960595 
L 478.643526 69.969499 
L 478.775738 63.473577 
L 479.035221 59.649418 
L 479.305237 75.151069 
L 479.600228 67.993916 
L 479.798874 72.525918 
L 480.01865 69.231589 
L 480.259337 58.456473 
L 480.639147 61.594473 
L 480.797255 60.144609 
L 481.032858 74.514857 
L 481.30086 61.538516 
L 481.594462 64.576249 
L 481.817167 65.444626 
L 482.112202 72.510763 
L 482.54011 57.042022 
L 482.796157 71.485947 
L 483.087039 63.203864 
L 483.208624 74.034095 
L 483.500877 63.059722 
L 483.799178 62.092579 
L 484.097273 64.679521 
L 484.216787 59.817634 
L 484.514676 65.967617 
L 484.761105 80.334818 
L 485.230884 61.285531 
L 485.470722 58.696667 
L 486.007356 68.989824 
L 486.247979 69.659588 
L 486.483328 65.691968 
L 486.721699 67.11587 
L 486.961225 63.053365 
L 487.206514 65.623869 
L 487.677248 63.179012 
L 488.037454 67.821498 
L 488.214516 74.57771 
L 488.455338 62.457105 
L 488.751713 67.517255 
L 488.931602 67.282714 
L 489.288177 66.202058 
L 489.540319 60.699623 
L 489.706772 63.702654 
L 490.005091 60.265656 
L 490.242896 68.946347 
L 490.481391 63.752493 
L 490.683853 62.298445 
L 490.899752 58.699138 
L 491.201618 60.179348 
L 491.494573 54.952717 
L 491.741352 66.337159 
L 491.913287 64.811362 
L 492.154206 63.973238 
L 492.390345 68.465804 
L 492.705805 59.654258 
L 492.884784 61.82763 
L 493.122928 53.858991 
L 493.601015 54.484762 
L 493.66099 65.31027 
L 493.95881 57.14651 
L 494.141209 62.0498 
L 494.380638 64.605389 
L 494.614303 64.600348 
L 494.912142 71.931752 
L 495.092642 80.765553 
L 495.391562 63.651682 
L 495.688062 67.358236 
L 495.866611 62.955242 
L 496.169394 62.899838 
L 496.407336 60.936662 
L 496.644163 77.77144 
L 496.931081 67.706419 
L 497.122047 65.305417 
L 497.32743 70.542627 
L 497.602808 67.422362 
L 497.947291 57.250161 
L 498.144884 67.643839 
L 498.384535 69.611902 
L 498.621652 65.254955 
L 498.860584 80.765298 
L 499.099563 66.486508 
L 499.337413 61.962225 
L 499.576371 67.471519 
L 499.817608 65.954721 
L 500.113488 74.411057 
L 500.293182 65.849921 
L 500.609204 63.851593 
L 500.650281 58.806091 
L 500.829084 55.806053 
L 501.130331 78.073271 
L 501.425955 62.331364 
L 501.604394 63.961121 
L 502.085048 67.191054 
L 502.142852 74.877205 
L 502.565805 62.499748 
L 503.051282 64.635408 
L 503.27591 56.549388 
L 503.515493 70.715873 
L 503.872555 71.607162 
L 504.051407 59.988139 
L 504.229888 72.870471 
L 504.650095 57.63043 
L 504.707569 70.237179 
L 505.069486 67.610265 
L 505.311707 73.155901 
L 505.547959 65.222602 
L 505.78225 65.875731 
L 506.020268 63.851595 
L 506.266043 54.533422 
L 506.569872 69.847807 
L 506.746757 64.607034 
L 506.993307 63.649643 
L 507.231373 60.757831 
L 507.475334 67.29735 
L 507.708032 64.390033 
L 508.005894 76.59332 
L 508.190358 57.775665 
L 508.485193 77.579851 
L 508.787092 53.846899 
L 509.01986 79.739782 
L 509.275368 78.595042 
L 509.498512 51.134008 
L 509.921977 71.885391 
L 509.97473 60.804135 
L 510.21317 72.90519 
L 510.932276 57.809827 
L 511.427141 68.393247 
L 511.731757 64.265294 
L 511.94593 73.281429 
L 512.202575 65.53038 
L 512.42372 65.08561 
L 512.662927 73.047699 
L 512.902669 53.764682 
L 513.214663 76.750513 
L 513.619081 55.385089 
L 513.68035 64.883654 
L 513.915563 58.12091 
L 514.39837 67.402675 
L 514.571539 66.99878 
L 514.703169 60.851903 
L 514.890518 63.348022 
L 515.247869 59.604434 
L 515.468485 63.994914 
L 515.690172 61.131049 
L 515.918439 68.842023 
L 516.15758 70.322501 
L 516.400242 75.294704 
L 516.762513 58.27572 
L 516.922212 64.677871 
L 517.159528 59.734645 
L 517.51651 60.284784 
L 517.702683 65.206808 
L 517.878201 58.1049 
L 518.173168 50.999662 
L 518.480489 67.164027 
L 518.653123 68.560218 
L 518.951708 57.756815 
L 519.130101 66.189021 
L 519.388449 66.836929 
L 519.725267 60.397287 
L 519.86004 72.287034 
L 520.141772 71.819162 
L 520.439599 107.291321 
L 520.621899 89.676198 
L 520.859464 104.333235 
L 521.115203 86.835785 
L 521.39507 95.411823 
L 521.87368 79.205456 
L 522.117242 89.59751 
L 522.363738 70.032538 
L 522.827932 60.410075 
L 523.266623 60.096681 
L 523.497826 63.13011 
L 523.843711 59.673665 
L 524.131034 63.127174 
L 524.380779 63.015566 
L 524.857058 65.7114 
L 524.9168 64.944032 
L 525.275559 64.603289 
L 525.403427 65.787519 
L 525.814188 64.593493 
L 526.316015 64.080024 
L 526.428741 64.318169 
L 526.596989 64.070127 
L 527.008656 64.046615 
L 527.911085 64.04319 
L 528.28225 63.818039 
L 528.686391 63.971015 
L 528.92995 63.550575 
L 529.284939 64.467287 
L 529.533417 64.027552 
L 530.247674 64.042363 
L 531.88268 63.981781 
L 532.001118 64.129107 
L 532.524468 63.958162 
L 533.23581 64.293944 
L 533.470149 63.824224 
L 533.72434 64.046602 
L 533.946454 64.043673 
L 534.245028 63.923442 
L 535.028561 64.071486 
L 535.504579 64.032251 
L 549.769221 64.046614 
L 596.502813 64.046614 
L 596.502813 64.046614 
" clip-path="url(#p383feee485)" style="fill: none; stroke: #0000ff; stroke-opacity: 0.5; stroke-width: 1.5; stroke-linecap: square"/>
   </g>
   <g id="line2d_28">
    <path d="M 38.502813 54.95788 
L 38.622916 57.317098 
L 38.865804 55.973844 
L 38.937 54.140052 
L 39.111017 56.33963 
L 39.417061 55.73166 
L 39.707596 56.040714 
L 39.885883 55.903246 
L 40.302791 54.823385 
L 40.541846 55.965985 
L 40.601545 55.587616 
L 41.018884 55.094814 
L 41.257159 55.160077 
L 41.376814 54.898091 
L 41.559198 54.919825 
L 42.091503 54.503548 
L 42.329583 54.9327 
L 42.628872 55.984878 
L 42.928055 55.157082 
L 43.164095 56.543476 
L 43.477718 55.430978 
L 43.581899 55.544391 
L 43.819883 56.763913 
L 44.060446 55.208686 
L 44.300935 55.816622 
L 44.599353 54.832995 
L 44.834047 56.202869 
L 45.07223 55.142475 
L 45.371049 54.842995 
L 45.669985 54.023463 
L 45.857012 55.726045 
L 46.174796 55.251126 
L 46.328887 55.524469 
L 46.567049 55.087571 
L 46.805772 55.558257 
L 47.224756 56.842358 
L 47.405507 55.268007 
L 47.521373 55.775957 
L 47.766181 54.635599 
L 48.003493 56.091002 
L 48.244165 55.562366 
L 48.536913 55.303149 
L 49.14069 55.214813 
L 50.441813 54.906704 
L 53.050949 55.597972 
L 55.661121 55.194725 
L 57.085405 54.725192 
L 58.50861 55.688509 
L 59.954398 55.09061 
L 60.430319 56.463341 
L 60.669155 56.268455 
L 60.966191 54.067956 
L 61.265892 53.988781 
L 61.445302 55.948003 
L 61.681905 54.122255 
L 61.866132 54.852234 
L 62.104406 56.353145 
L 62.404 53.554576 
L 62.638974 53.654893 
L 62.936269 55.314565 
L 63.11617 54.204182 
L 63.356366 53.692173 
L 63.652931 55.305613 
L 63.846691 54.451502 
L 64.130974 53.950875 
L 64.426649 55.143759 
L 64.72558 54.287824 
L 64.844761 55.440736 
L 65.083776 55.502658 
L 65.323835 52.408611 
L 65.636208 52.919571 
L 65.860257 55.205784 
L 66.108513 53.415248 
L 66.396826 53.784738 
L 66.578194 54.991514 
L 66.934528 51.804798 
L 67.112748 53.432626 
L 67.414376 54.420501 
L 67.588886 53.483986 
L 67.829178 54.773352 
L 68.125305 55.234848 
L 68.423426 53.631187 
L 68.602529 53.299988 
L 68.783671 52.410489 
L 69.32384 56.896594 
L 69.855516 53.043737 
L 70.095651 55.060823 
L 70.338534 55.222929 
L 70.523348 52.577057 
L 71.292681 57.042179 
L 71.829525 53.932471 
L 72.070236 53.667174 
L 72.364771 55.523329 
L 72.604817 55.77252 
L 72.782636 54.741486 
L 73.259107 55.54897 
L 73.442011 56.116687 
L 73.796233 54.484166 
L 74.034856 54.842274 
L 74.512377 57.044097 
L 74.809776 55.499135 
L 75.10756 55.460709 
L 75.350039 56.057608 
L 75.716732 54.401749 
L 75.763801 55.037718 
L 76.00305 54.910279 
L 76.299771 54.943953 
L 76.479259 55.179952 
L 76.779836 52.63964 
L 77.014868 52.872971 
L 77.211656 55.141292 
L 77.731123 53.44235 
L 78.028409 55.803045 
L 78.208334 55.736504 
L 78.445703 54.053137 
L 78.984279 54.126002 
L 79.221395 56.042066 
L 79.699016 54.443569 
L 79.9365 55.537843 
L 80.296129 56.269712 
L 80.48719 53.619025 
L 80.712316 52.750361 
L 80.950854 55.643798 
L 81.192765 57.04997 
L 81.785318 54.824027 
L 81.913099 56.650509 
L 82.441028 52.457603 
L 82.859406 57.87685 
L 83.215747 57.527549 
L 83.394399 54.579309 
L 83.632494 54.953376 
L 83.872614 57.182669 
L 84.411018 53.7739 
L 84.706152 55.313182 
L 84.884266 57.79451 
L 85.123897 57.630779 
L 85.361288 55.529305 
L 85.600003 54.85323 
L 85.838773 54.714645 
L 86.207889 54.006085 
L 86.434523 54.447658 
L 86.893125 57.61211 
L 87.329041 53.066839 
L 87.627622 52.853639 
L 88.103508 57.598862 
L 88.40325 57.94741 
L 88.586765 56.689508 
L 89.00022 55.250707 
L 89.118231 54.384981 
L 89.536432 53.138437 
L 89.908761 53.653854 
L 90.081212 55.798654 
L 90.548537 55.351592 
L 90.668047 53.960297 
L 90.905672 53.481687 
L 91.144508 53.61464 
L 91.263784 54.192036 
L 91.681363 54.551427 
L 91.801828 54.995452 
L 92.038568 54.688119 
L 92.514883 53.964569 
L 92.754169 54.78056 
L 93.289814 58.63855 
L 93.489754 58.770504 
L 93.826284 56.955484 
L 94.004867 56.71509 
L 94.541287 59.783257 
L 94.842115 57.868883 
L 95.019457 55.037319 
L 95.257497 53.808939 
L 95.498953 53.826743 
L 95.89183 54.050469 
L 96.064357 53.964239 
L 96.573099 55.463023 
L 96.628852 54.962097 
L 96.69475 52.849691 
L 96.989749 52.129779 
L 97.286052 54.674916 
L 97.48986 57.827453 
L 97.779913 57.719588 
L 98.202731 52.224356 
L 98.47895 53.258918 
L 98.717529 54.7314 
L 99.025598 53.552195 
L 99.325453 53.617865 
L 99.58166 56.02642 
L 99.795665 56.96625 
L 100.391 54.546236 
L 100.526244 52.585023 
L 101.868401 55.517731 
L 103.165642 55.012941 
L 104.594361 55.145005 
L 104.673559 52.059998 
L 105.09155 57.787122 
L 105.454112 59.447527 
L 105.687883 59.48407 
L 106.305417 56.938395 
L 106.688645 59.559166 
L 106.855494 61.627172 
L 107.089968 62.458419 
L 107.387998 61.434897 
L 107.688168 58.444004 
L 107.864974 54.754729 
L 108.164534 51.638583 
L 108.347806 50.944875 
L 108.640473 52.761629 
L 108.902733 55.287629 
L 109.117895 56.09885 
L 109.477366 54.333464 
L 109.596272 51.466118 
L 109.892792 50.588824 
L 110.192261 52.59658 
L 110.554204 58.52918 
L 110.795086 60.053235 
L 111.052094 58.7825 
L 111.29097 55.876032 
L 111.577019 55.587223 
L 112.049728 59.183462 
L 112.289519 58.372442 
L 112.792567 53.715913 
L 113.325136 52.721149 
L 113.541144 54.227409 
L 113.788285 54.006022 
L 114.33146 49.581895 
L 114.540544 50.391518 
L 114.883064 53.479167 
L 115.036051 56.185665 
L 115.313819 55.834269 
L 115.937099 53.914232 
L 116.002065 52.979291 
L 116.216076 54.70935 
L 116.30385 56.759155 
L 116.475791 57.207724 
L 116.782905 56.635435 
L 117.130896 56.587087 
L 117.249404 56.729753 
L 117.487743 55.975572 
L 117.726095 55.607706 
L 118.024139 55.756255 
L 118.206256 55.646012 
L 118.450471 55.262521 
L 118.928024 53.524509 
L 119.289499 54.339772 
L 119.523478 55.467157 
L 119.821194 53.34721 
L 119.945178 51.253642 
L 120.298612 52.507629 
L 120.606507 54.724106 
L 120.715903 53.991783 
L 120.9231 51.392446 
L 121.194101 51.189284 
L 121.671188 57.271924 
L 122.149815 55.751888 
L 122.624796 55.785325 
L 122.690525 54.394507 
L 122.935962 53.501 
L 123.69748 57.979237 
L 124.174029 52.871651 
L 124.35569 53.339776 
L 124.650229 53.331997 
L 124.949134 53.557497 
L 125.13009 55.537784 
L 125.427231 57.08664 
L 125.665306 57.001254 
L 125.857602 55.112757 
L 126.147722 53.783473 
L 126.627668 55.690779 
L 127.101098 54.773803 
L 127.755155 55.527354 
L 128.11266 54.065342 
L 128.470607 53.571817 
L 128.590202 53.788071 
L 128.828251 53.858007 
L 129.127471 54.10061 
L 129.721296 53.68814 
L 130.080965 52.389116 
L 130.318908 52.737799 
L 130.795082 55.301814 
L 131.094146 55.828772 
L 131.570561 55.187917 
L 132.288655 57.315004 
L 132.778446 56.58191 
L 133.080422 54.807961 
L 133.269134 52.916182 
L 133.599891 53.936951 
L 133.781243 56.418649 
L 134.048442 55.636294 
L 134.27389 52.770928 
L 134.511673 52.9883 
L 134.752536 55.772248 
L 134.988169 56.197342 
L 135.299799 53.991981 
L 135.524563 53.309093 
L 136.061597 57.489591 
L 136.299914 56.671345 
L 136.537647 54.868949 
L 136.897409 55.929567 
L 137.144696 57.16484 
L 137.729921 54.456033 
L 138.237846 57.413759 
L 138.462756 57.091658 
L 138.821519 55.275817 
L 139.04073 55.177598 
L 139.518495 55.924992 
L 139.876343 56.298732 
L 139.996454 56.023892 
L 140.23413 55.808029 
L 140.475957 53.981977 
L 140.727123 51.04021 
L 141.011902 49.450536 
L 141.192054 51.785197 
L 141.74323 55.538854 
L 142.220316 51.441745 
L 142.460347 51.049957 
L 142.698106 52.889867 
L 142.935384 55.959965 
L 143.173957 57.595106 
L 143.471179 56.474014 
L 143.657606 53.426227 
L 144.128735 50.873088 
L 144.365665 51.598502 
L 144.426045 53.97524 
L 144.665021 55.730261 
L 144.902659 56.099639 
L 145.147247 54.570202 
L 145.379375 52.137907 
L 145.679051 51.81434 
L 146.042843 54.194438 
L 146.15371 56.434382 
L 146.451965 55.98322 
L 146.884804 50.450765 
L 147.11376 51.373833 
L 147.644895 55.589703 
L 147.88237 55.04455 
L 148.299554 53.62067 
L 148.41882 52.244521 
L 148.598417 53.053461 
L 149.076012 54.345535 
L 149.373331 53.956933 
L 149.613249 53.361763 
L 150.029772 52.876053 
L 150.089694 54.650475 
L 150.565971 59.574314 
L 151.353883 56.929992 
L 151.703 59.851549 
L 151.876006 60.097394 
L 152.888581 50.574536 
L 153.188565 51.913867 
L 153.309231 54.809091 
L 153.54568 54.924428 
L 154.082528 50.648704 
L 154.617256 55.525407 
L 154.797409 56.5553 
L 155.03402 55.847492 
L 155.333455 53.899985 
L 155.572779 51.376656 
L 155.93189 49.725142 
L 156.054561 50.918458 
L 156.288871 54.287804 
L 156.59785 56.278783 
L 157.244922 51.830753 
L 157.482632 52.911554 
L 158.075811 57.636789 
L 158.493969 58.3522 
L 158.732951 54.360537 
L 159.028959 51.622002 
L 159.268997 52.10533 
L 159.984424 61.180375 
L 160.222772 60.354199 
L 160.639178 57.465616 
L 160.761288 55.432828 
L 161.002186 57.162863 
L 161.236001 59.945218 
L 161.473201 60.602335 
L 161.716034 58.654603 
L 162.430118 48.505948 
L 162.728429 50.114909 
L 163.21208 55.24206 
L 163.449507 53.189899 
L 163.682554 50.19854 
L 163.922713 50.49826 
L 164.397251 55.449241 
L 164.755999 55.528867 
L 164.99298 54.942843 
L 165.410163 52.448108 
L 165.64954 52.977512 
L 165.889046 55.502838 
L 166.126682 56.794434 
L 166.482576 55.500824 
L 166.661225 53.847463 
L 166.89949 54.893129 
L 167.197831 56.810296 
L 167.436563 57.067563 
L 168.152508 53.443854 
L 168.391427 53.479609 
L 168.63296 53.926122 
L 168.867709 53.808672 
L 169.529336 54.42695 
L 169.881582 55.549231 
L 170.203109 55.700845 
L 170.598518 54.311702 
L 170.837969 54.405976 
L 171.432118 56.392723 
L 172.146868 54.938594 
L 172.569875 54.625365 
L 173.106348 57.113578 
L 173.339268 56.569207 
L 173.707388 54.410432 
L 174.158309 56.794365 
L 174.535783 52.180201 
L 174.91395 52.45464 
L 175.073934 55.697212 
L 175.310543 57.417306 
L 175.787124 53.492419 
L 176.085682 54.130079 
L 176.323655 55.524729 
L 176.579702 53.850786 
L 176.922167 53.777788 
L 177.049623 56.578533 
L 177.336715 59.07312 
L 177.648399 58.800267 
L 177.755713 56.287182 
L 178.11115 54.48657 
L 178.352257 54.705963 
L 178.528778 55.627726 
L 179.02236 56.261693 
L 179.243954 57.475944 
L 179.959799 51.103146 
L 180.199819 48.669276 
L 180.764952 55.087192 
L 181.004126 53.103735 
L 181.237254 52.109478 
L 181.716775 53.319391 
L 181.952198 53.207907 
L 182.311857 53.5873 
L 182.856642 55.523069 
L 182.972183 55.184365 
L 183.210217 55.254912 
L 183.468223 55.189575 
L 183.706024 54.612597 
L 184.008236 54.59113 
L 184.480842 56.51525 
L 184.866663 56.310187 
L 184.96201 54.651756 
L 185.214305 52.963333 
L 185.456212 52.529721 
L 185.79372 54.379137 
L 185.914024 56.931911 
L 186.210739 56.594095 
L 186.450096 54.339396 
L 186.688066 53.944492 
L 187.183426 57.688961 
L 187.521698 57.500245 
L 187.761895 57.059044 
L 187.93929 57.043086 
L 188.475599 56.453769 
L 189.131074 56.331182 
L 189.608368 56.403649 
L 189.845677 57.407856 
L 189.964926 58.724544 
L 190.203386 58.0309 
L 190.38336 55.055282 
L 190.679785 52.039255 
L 190.869436 52.079846 
L 191.396627 56.03522 
L 191.639823 54.263767 
L 192.117173 49.117928 
L 192.356479 49.761247 
L 192.83502 55.424214 
L 193.072666 55.986245 
L 193.608741 51.283532 
L 193.905827 52.208649 
L 194.087116 54.640788 
L 194.441225 55.048425 
L 194.621423 54.932247 
L 194.919455 55.743218 
L 195.159734 55.057575 
L 195.574242 51.816725 
L 195.812728 54.464776 
L 196.050762 55.609035 
L 196.348274 52.817381 
L 196.532194 52.146067 
L 196.824916 54.350839 
L 197.066503 54.809825 
L 197.302744 52.150128 
L 197.540668 51.99801 
L 197.783126 55.069381 
L 198.021222 56.376161 
L 198.278285 53.833387 
L 198.614978 53.536345 
L 198.857745 55.367853 
L 199.035959 53.227661 
L 199.328922 51.181944 
L 199.627167 53.010168 
L 199.755281 56.626168 
L 200.037406 56.297838 
L 200.288499 53.398095 
L 200.523074 53.285651 
L 200.76342 56.225389 
L 201.023906 55.397999 
L 201.252764 52.889147 
L 201.602062 53.230099 
L 201.781853 55.363376 
L 202.020372 56.496838 
L 202.734673 54.187581 
L 202.977069 54.366122 
L 203.271444 54.237583 
L 203.747339 55.187185 
L 204.347506 55.342171 
L 204.462725 55.13852 
L 204.819721 55.908139 
L 205.180009 58.615047 
L 205.475165 57.550618 
L 205.723048 54.420252 
L 206.192034 53.974248 
L 206.452348 57.525959 
L 206.78839 55.090279 
L 207.266495 50.02332 
L 207.443269 50.626269 
L 207.922916 54.103137 
L 208.578156 55.286791 
L 208.935203 53.861024 
L 209.172823 53.78345 
L 209.600943 54.346797 
L 209.950317 55.874604 
L 210.425683 51.857692 
L 211.140394 53.573704 
L 211.378598 54.758384 
L 211.677486 55.128782 
L 212.393738 48.867166 
L 212.631154 49.877359 
L 213.168289 55.925362 
L 213.405839 55.872744 
L 213.824739 52.472167 
L 214.121064 52.326617 
L 214.359272 53.91373 
L 214.837813 58.467604 
L 215.076049 58.982861 
L 215.37507 57.040825 
L 215.554742 53.312659 
L 215.851328 50.534966 
L 216.089667 50.29174 
L 216.389104 53.094602 
L 216.58001 56.781297 
L 216.811423 58.504143 
L 217.102957 56.985727 
L 217.877773 49.637369 
L 218.056338 50.128271 
L 218.294893 52.127552 
L 218.593264 53.464333 
L 218.776973 53.535244 
L 219.266031 52.480007 
L 219.30768 51.608072 
L 219.551399 51.770509 
L 220.04435 55.230915 
L 220.32987 55.523608 
L 220.62314 54.904016 
L 220.8622 53.997571 
L 221.162767 54.516607 
L 221.338171 55.194628 
L 221.515496 55.374409 
L 221.99322 54.614885 
L 222.055181 53.086073 
L 222.530269 50.434675 
L 222.771536 51.105305 
L 223.248476 55.84063 
L 223.554257 55.723159 
L 223.732051 54.131308 
L 224.048213 52.92418 
L 224.26118 53.04225 
L 224.498476 53.345244 
L 224.976617 53.334052 
L 225.274355 52.657397 
L 225.75103 49.414344 
L 226.226817 46.281684 
L 226.525541 43.137263 
L 226.707352 39.828485 
L 227.184451 38.081741 
L 227.479239 38.941296 
L 227.717393 39.821271 
L 227.956897 41.297047 
L 228.194151 40.871963 
L 228.730952 38.424837 
L 228.972776 39.043197 
L 229.211707 40.358883 
L 229.998628 42.534281 
L 230.408796 41.735519 
L 230.705939 42.096161 
L 230.945101 43.760485 
L 231.242363 45.036867 
L 231.630147 45.851058 
L 231.663719 46.191157 
L 232.136825 45.44239 
L 232.434509 43.117075 
L 232.915984 41.973789 
L 233.208451 42.083641 
L 233.864567 39.083191 
L 234.163673 39.221427 
L 234.459871 40.550426 
L 234.877477 45.65221 
L 235.11598 48.473498 
L 235.432665 50.182276 
L 235.906757 50.08472 
L 236.084479 49.584881 
L 236.384217 50.406108 
L 236.621287 51.590873 
L 236.919839 52.453859 
L 237.695023 52.539898 
L 237.874902 51.424983 
L 238.290534 51.261508 
L 238.589264 52.521143 
L 238.828455 52.024395 
L 239.065068 50.358125 
L 239.549082 45.855204 
L 240.023237 43.561206 
L 240.317181 44.648162 
L 240.614551 45.29522 
L 240.793797 47.206701 
L 241.151839 47.867458 
L 241.806632 50.733538 
L 242.044896 51.18943 
L 242.641746 49.945245 
L 243.539421 43.439017 
L 243.836562 42.41471 
L 244.760099 46.980362 
L 244.998784 47.618612 
L 245.503869 49.734845 
L 245.741822 52.273469 
L 246.202726 52.723381 
L 246.337942 53.032375 
L 246.460816 52.345317 
L 246.754794 51.393498 
L 246.994239 51.538549 
L 247.232263 51.499081 
L 247.469526 52.840747 
L 247.708076 52.292889 
L 248.125328 50.786806 
L 248.543255 46.541128 
L 248.848689 46.9413 
L 249.218981 53.457832 
L 249.530817 55.820583 
L 249.796994 56.622665 
L 250.454559 49.684447 
L 250.69308 49.476183 
L 250.990238 50.507038 
L 251.171156 52.384134 
L 251.466717 52.652244 
L 252.004037 51.032584 
L 252.243865 49.903838 
L 252.425758 49.758646 
L 252.958474 50.98294 
L 253.137428 50.932004 
L 253.437262 50.310906 
L 253.732822 50.553472 
L 253.912799 51.40313 
L 254.151034 51.635741 
L 254.390353 51.446633 
L 254.629948 52.840441 
L 254.866171 55.060226 
L 255.283195 56.499664 
L 255.64118 58.139766 
L 255.702331 60.540393 
L 255.879236 60.884638 
L 256.357 57.177765 
L 257.430682 46.016372 
L 257.61066 43.570313 
L 257.848051 42.682955 
L 258.20509 43.740286 
L 258.577231 47.680369 
L 259.730147 45.53522 
L 259.876027 45.693949 
L 260.173233 45.576694 
L 260.949329 39.485868 
L 261.322962 39.900025 
L 261.602805 45.406513 
L 261.975746 47.129394 
L 262.086563 48.29754 
L 262.55622 48.472755 
L 263.151773 49.813731 
L 263.330837 51.586698 
L 263.7477 50.414322 
L 264.105397 45.816745 
L 264.285849 44.444634 
L 264.643203 43.448883 
L 264.881961 44.600267 
L 265.299527 50.471806 
L 265.714773 49.871388 
L 266.191948 44.571018 
L 266.252174 44.589722 
L 266.48981 44.547712 
L 266.788459 45.132889 
L 267.324829 49.59004 
L 267.563622 49.644851 
L 268.099501 44.091349 
L 268.338011 42.758474 
L 268.532791 43.432167 
L 269.233644 51.920075 
L 269.530633 51.566524 
L 269.887378 49.488691 
L 270.245132 46.729767 
L 270.661966 46.000955 
L 270.723 49.105904 
L 270.960397 50.900449 
L 271.318588 50.452719 
L 271.735812 48.581268 
L 271.975033 48.132602 
L 272.273994 48.612882 
L 272.689423 53.107499 
L 272.927961 53.48538 
L 273.17533 52.123347 
L 273.643316 48.984389 
L 273.969451 47.71291 
L 274.219372 48.478645 
L 274.658263 47.189101 
L 274.845561 47.666468 
L 275.037647 47.640717 
L 275.313574 47.06604 
L 275.437851 47.993357 
L 275.791628 47.920981 
L 275.91339 49.866545 
L 276.20821 49.413824 
L 276.393789 49.5988 
L 277.049078 46.503862 
L 277.162083 47.217318 
L 277.590469 46.662526 
L 277.939041 50.564699 
L 278.12053 52.144328 
L 278.624491 50.733964 
L 279.193852 46.129721 
L 279.612332 45.031672 
L 280.384925 38.738596 
L 280.623809 38.468266 
L 280.980465 39.435884 
L 281.1601 43.710557 
L 281.594071 49.614622 
L 281.873928 48.580004 
L 282.533731 43.633969 
L 282.828435 42.009992 
L 283.306338 42.722792 
L 283.66432 41.949061 
L 284.319934 39.074479 
L 284.563335 39.650025 
L 284.856401 40.687473 
L 285.276257 43.769563 
L 285.810779 42.582308 
L 286.048783 40.777893 
L 286.292195 40.34511 
L 286.769413 43.113386 
L 287.007247 43.242682 
L 287.262421 42.819888 
L 287.484106 43.2443 
L 287.84259 42.144812 
L 288.024509 43.942019 
L 288.259375 44.092542 
L 288.736219 42.168938 
L 289.035046 41.26099 
L 289.811148 44.481779 
L 290.227704 44.36792 
L 290.347633 45.374223 
L 290.465879 45.122746 
L 290.948755 41.275925 
L 291.225488 40.178395 
L 291.495528 39.815229 
L 291.679836 41.345036 
L 292.13465 41.586134 
L 292.194976 44.456047 
L 292.432576 45.043566 
L 293.207555 39.046989 
L 293.504983 40.68864 
L 293.689059 44.461356 
L 293.924229 46.499343 
L 294.221147 46.510018 
L 294.466574 43.54202 
L 294.878318 35.144143 
L 295.173661 34.074055 
L 295.4127 36.459161 
L 295.717231 37.871888 
L 295.948103 39.63153 
L 296.19442 39.42361 
L 296.607631 35.407053 
L 296.961851 34.508637 
L 297.152314 36.734465 
L 297.620443 37.768052 
L 298.095365 36.578944 
L 298.632709 35.615298 
L 298.870236 35.468928 
L 299.108436 34.734805 
L 299.60655 34.229677 
L 299.827215 37.210301 
L 300.182774 38.219701 
L 300.361705 41.29122 
L 300.600166 43.453786 
L 300.854175 42.995665 
L 301.079765 40.674067 
L 301.613328 37.672496 
L 301.911255 35.803344 
L 302.09056 35.967576 
L 302.447614 37.010339 
L 302.626399 39.243013 
L 302.80676 38.609743 
L 303.54503 33.031716 
L 303.826118 32.637346 
L 304.41641 35.236286 
L 304.595673 36.404602 
L 305.252232 31.923836 
L 305.31073 32.285197 
L 305.548602 32.128806 
L 305.846457 33.538998 
L 306.02906 37.135741 
L 306.385283 36.824249 
L 306.562027 36.004566 
L 306.996024 29.470364 
L 307.281744 25.734459 
L 307.656728 25.309437 
L 307.900046 26.298416 
L 308.067971 28.734174 
L 308.299126 30.320112 
L 308.537897 30.54785 
L 308.839248 29.435765 
L 309.086734 31.062831 
L 309.313549 36.07411 
L 309.455479 42.517985 
L 309.930311 43.286931 
L 310.001814 44.348038 
L 310.28921 41.012028 
L 310.708003 33.384171 
L 311.063774 33.725612 
L 311.242711 37.807848 
L 311.611583 38.441917 
L 311.781527 38.396206 
L 312.017687 37.346369 
L 312.501747 32.039479 
L 313.090224 38.929789 
L 313.568273 72.562509 
L 314.235778 201.956918 
L 314.701814 220.699744 
L 314.938888 221.363037 
L 315.237717 226.438011 
L 315.594079 234.453832 
L 315.682591 234.002138 
L 316.016983 209.10442 
L 316.33419 156.714675 
L 316.452034 104.24218 
L 316.695304 73.006895 
L 317.110027 58.620908 
L 317.410895 57.941516 
L 317.763281 50.250908 
L 318.180102 37.265941 
L 318.359189 39.389225 
L 318.718927 42.081823 
L 318.959086 42.729724 
L 319.49789 33.580544 
L 319.614865 33.756529 
L 320.328134 45.707792 
L 320.624731 38.774151 
L 321.102007 21.284119 
L 321.340325 21.810352 
L 321.878065 31.14104 
L 322.117615 30.402853 
L 322.592008 20.28979 
L 322.840479 21.479614 
L 323.548541 44.684742 
L 323.963903 45.943797 
L 324.083748 44.276051 
L 324.569671 42.130883 
L 324.802157 43.42168 
L 325.098086 44.230826 
L 325.454334 43.359755 
L 325.812051 39.895061 
L 326.051482 40.025804 
L 326.294583 40.954074 
L 326.530758 41.107284 
L 326.852363 40.803957 
L 327.242305 39.850609 
L 327.301953 39.034531 
L 327.540635 38.347439 
L 327.778986 37.29996 
L 328.020226 35.243622 
L 328.495475 29.384875 
L 328.794246 27.256047 
L 329.171816 27.367213 
L 329.508337 32.840778 
L 329.745474 35.964158 
L 330.162941 38.864842 
L 330.282264 41.387115 
L 331.312423 50.996634 
L 331.533689 51.287775 
L 332.018819 46.889747 
L 333.024265 35.669169 
L 333.267721 33.844692 
L 333.502737 34.021427 
L 333.980504 35.201794 
L 335.231468 43.738275 
L 335.709664 48.652596 
L 336.184852 50.44937 
L 336.423478 50.970332 
L 336.663453 51.06121 
L 336.900926 50.60074 
L 337.317585 50.58142 
L 337.437428 49.469898 
L 337.736454 48.058291 
L 338.161358 44.238212 
L 338.54477 44.121866 
L 338.658091 45.323479 
L 339.29103 49.396532 
L 339.410048 51.490663 
L 339.825811 53.82522 
L 339.945144 55.966911 
L 340.12328 56.868451 
L 340.421547 55.882949 
L 340.719728 53.979408 
L 342.390217 24.437308 
L 342.592547 22.281924 
L 342.865715 23.685814 
L 343.224194 27.371398 
L 343.582206 36.316726 
L 343.819625 40.543434 
L 344.2367 44.448973 
L 344.355474 47.746164 
L 344.835051 53.192626 
L 345.073439 53.540762 
L 345.381281 51.55838 
L 345.793405 47.230461 
L 346.084919 46.879315 
L 346.386542 47.443548 
L 346.623265 47.381176 
L 346.800697 46.400109 
L 347.046882 44.061102 
L 347.336523 42.397023 
L 347.633595 43.523904 
L 348.051726 50.017794 
L 348.470912 49.863911 
L 348.531021 46.509093 
L 349.025631 39.180616 
L 349.25029 38.350229 
L 349.603408 40.665334 
L 349.8421 44.09697 
L 350.139628 45.684167 
L 350.855204 40.430953 
L 351.332358 45.121302 
L 351.510253 48.216106 
L 352.048182 51.660067 
L 352.34541 50.334025 
L 352.763199 46.687599 
L 353.358236 51.501283 
L 353.656081 52.233874 
L 354.192068 48.248642 
L 354.26785 44.269624 
L 354.729169 38.5003 
L 354.967142 39.087333 
L 355.26572 41.006611 
L 355.563366 41.799831 
L 356.230389 38.592963 
L 356.695564 38.331279 
L 357.11492 39.518014 
L 357.414082 44.522623 
L 357.768024 44.532117 
L 358.200121 39.622486 
L 358.619507 41.374722 
L 358.726755 43.949141 
L 358.964857 45.309614 
L 359.739861 47.359595 
L 359.918637 46.929932 
L 360.754514 44.091462 
L 360.876193 42.576798 
L 361.129106 42.433349 
L 361.661674 46.23112 
L 361.887082 45.971992 
L 362.424082 40.485924 
L 362.662654 41.811179 
L 363.20353 48.774516 
L 363.423447 48.45608 
L 363.622003 45.473491 
L 363.916371 42.828328 
L 364.298259 42.592845 
L 364.393153 44.026567 
L 364.630544 45.202257 
L 364.92917 45.001688 
L 365.345698 42.066062 
L 365.643635 42.922075 
L 366.120566 47.107755 
L 366.430486 47.017579 
L 366.661699 44.767862 
L 366.95586 44.028716 
L 367.137644 45.637025 
L 367.313284 48.801121 
L 367.613202 49.559581 
L 368.328014 44.803168 
L 369.113805 48.510438 
L 369.821758 42.042375 
L 370.360723 43.182139 
L 370.716213 44.221686 
L 370.778089 44.876533 
L 371.312315 43.398812 
L 371.555098 43.672515 
L 371.789135 43.619908 
L 372.027824 43.004832 
L 372.572937 40.120644 
L 372.861574 42.51938 
L 373.223258 43.247193 
L 373.518933 37.99259 
L 373.93445 38.61838 
L 373.993192 40.793862 
L 374.71244 49.42386 
L 375.080509 48.281233 
L 375.245909 45.095011 
L 375.486534 43.920843 
L 375.841426 45.982845 
L 376.021182 48.635391 
L 376.325316 49.456275 
L 376.735908 44.664643 
L 377.154139 43.242104 
L 377.275259 43.916983 
L 377.454122 46.903386 
L 377.691085 48.329736 
L 378.467507 44.784753 
L 378.705786 45.449427 
L 379.003346 45.544444 
L 379.182787 45.089711 
L 379.541591 45.194734 
L 379.77876 45.92942 
L 379.957593 45.632178 
L 380.315476 46.227479 
L 380.43452 47.497158 
L 380.67377 46.886328 
L 381.209422 40.89952 
L 381.566802 42.236429 
L 381.744983 45.432911 
L 382.170296 46.780481 
L 382.401177 43.53042 
L 382.640935 42.37803 
L 382.938268 43.467975 
L 383.414778 50.75871 
L 383.653191 52.476725 
L 383.891272 51.183899 
L 384.36784 44.213213 
L 384.608478 43.458472 
L 385.024513 45.587311 
L 385.141968 47.858526 
L 385.442062 46.844728 
L 386.154941 40.212715 
L 386.572481 42.28754 
L 386.633083 45.922928 
L 386.871953 48.716149 
L 387.288124 49.034851 
L 387.408358 46.605704 
L 387.883735 42.353934 
L 388.657811 47.626941 
L 389.373409 40.987382 
L 389.673069 41.46215 
L 389.85151 43.593843 
L 390.209139 46.475001 
L 390.327434 49.888128 
L 390.566718 50.893556 
L 391.283443 46.931235 
L 391.956832 45.401973 
L 392.061414 43.248404 
L 392.294363 41.621931 
L 392.832412 39.935494 
L 393.014287 40.308848 
L 393.427847 41.547331 
L 393.785792 42.951237 
L 394.023607 42.741416 
L 394.261973 42.883675 
L 395.156539 44.032407 
L 395.275553 44.668173 
L 395.574048 44.886903 
L 395.817442 44.112401 
L 396.289007 41.522643 
L 396.468688 40.951426 
L 396.709418 41.163284 
L 397.480824 42.933887 
L 398.01748 42.844931 
L 398.255879 44.673819 
L 399.032184 54.316679 
L 399.38968 55.963095 
L 399.629341 56.525481 
L 399.867123 55.873408 
L 400.224723 50.337093 
L 401.240795 38.764275 
L 401.476641 38.702579 
L 401.775515 40.116097 
L 402.669635 50.470782 
L 402.908526 51.235267 
L 403.162416 51.061771 
L 403.206332 50.726921 
L 403.397622 50.400074 
L 403.633589 49.387309 
L 404.188901 48.309663 
L 404.402506 48.21483 
L 404.947887 46.941643 
L 405.385104 43.821873 
L 405.65268 44.339861 
L 405.894417 45.738975 
L 406.426561 46.757554 
L 406.667313 47.23435 
L 406.963223 47.070263 
L 407.144113 47.276419 
L 407.380891 48.59658 
L 407.860801 53.960738 
L 408.217822 55.053314 
L 408.636507 53.035524 
L 409.234688 47.457329 
L 409.470635 43.878688 
L 409.589722 40.306351 
L 409.829013 38.275904 
L 410.126347 37.847336 
L 410.42592 38.884819 
L 411.143152 44.052552 
L 411.320402 44.715097 
L 412.096215 44.64329 
L 412.512689 43.667311 
L 412.58546 42.600226 
L 412.87158 41.509436 
L 413.062343 41.306289 
L 413.456757 42.434723 
L 413.81476 47.750229 
L 414.472681 55.432253 
L 414.533583 58.985378 
L 414.830286 61.94815 
L 415.068038 62.250145 
L 415.309724 61.377622 
L 415.96323 55.672773 
L 416.023198 51.489459 
L 416.805148 40.400239 
L 417.002271 37.648865 
L 417.276707 36.579502 
L 417.709181 37.756159 
L 417.756951 39.096713 
L 418.054464 39.415566 
L 418.471725 39.52139 
L 418.530943 40.23495 
L 419.305279 44.583798 
L 419.724077 46.482185 
L 419.962564 46.51519 
L 420.975057 44.63693 
L 421.214128 43.996222 
L 421.512226 44.629333 
L 421.693249 46.320282 
L 422.225812 47.984215 
L 422.234324 47.770105 
L 422.468961 46.487737 
L 422.825214 45.465124 
L 423.004989 45.444929 
L 423.252127 46.270358 
L 423.484338 47.434821 
L 423.960579 48.595572 
L 424.145321 47.900625 
L 424.43705 47.346325 
L 424.675708 47.903878 
L 425.155055 50.648661 
L 425.574673 50.367106 
L 425.629286 49.430361 
L 426.40654 48.929349 
L 426.64547 49.705481 
L 427.065099 50.111663 
L 427.445399 49.047527 
L 427.659166 49.266376 
L 428.19698 52.815321 
L 428.436409 53.483992 
L 428.619145 52.816485 
L 429.151322 48.589133 
L 429.39598 46.277114 
L 429.628082 45.145983 
L 429.867272 45.375658 
L 430.10485 46.291708 
L 430.344322 48.085808 
L 430.774626 50.358626 
L 431.357652 59.301302 
L 431.843497 64.142002 
L 432.095657 59.745048 
L 432.821237 25.211247 
L 433.463552 13.486711 
L 433.87843 9.799498 
L 434.121676 7.197772 
L 434.414608 6.050769 
L 435.198864 28.851903 
L 435.318081 38.343201 
L 435.793016 49.636507 
L 436.163582 49.315833 
L 436.862153 44.021484 
L 437.100266 44.158489 
L 437.400723 45.34956 
L 437.640155 44.775269 
L 437.947846 42.690908 
L 438.242412 37.92971 
L 438.507695 38.24459 
L 438.778576 39.951361 
L 439.093849 42.987074 
L 439.259491 46.024904 
L 439.609454 46.40317 
L 439.813723 45.616288 
L 440.027646 44.211389 
L 440.326857 43.953974 
L 440.985603 47.869617 
L 441.360449 48.08757 
L 441.996582 43.282709 
L 442.261655 42.932448 
L 442.476381 44.440496 
L 443.119643 46.720494 
L 443.306995 45.526047 
L 443.835364 39.425228 
L 444.01571 38.078478 
L 444.193965 39.242096 
L 444.670741 41.500533 
L 444.792607 44.610902 
L 445.029606 45.524577 
L 445.21114 45.121257 
L 445.69185 41.927293 
L 445.950184 42.314595 
L 446.223006 42.521037 
L 446.46149 42.115448 
L 446.93948 38.086319 
L 447.182432 37.448355 
L 448.138367 42.315587 
L 448.437338 42.554788 
L 448.91479 41.708151 
L 449.152725 40.3033 
L 449.808343 33.384315 
L 449.89612 29.65466 
L 450.16705 26.407832 
L 450.46407 24.624694 
L 450.761942 24.141644 
L 450.94209 24.23373 
L 451.180519 25.169857 
L 451.425902 27.208633 
L 451.658653 31.398746 
L 452.077357 42.448302 
L 452.326715 45.987619 
L 452.613173 46.386206 
L 453.098099 42.607376 
L 453.469682 41.58166 
L 453.632802 41.543148 
L 453.689602 41.911225 
L 453.809319 41.946753 
L 454.134366 41.890958 
L 454.765606 40.261855 
L 454.847127 40.408237 
L 455.539853 46.08366 
L 455.961335 45.785747 
L 456.387019 43.165508 
L 456.566905 41.269318 
L 457.044693 39.035392 
L 457.700957 36.300555 
L 457.762486 36.408288 
L 458.176246 36.708412 
L 458.295734 38.300113 
L 458.535771 39.310968 
L 458.772737 39.526516 
L 459.18988 38.655585 
L 459.548312 36.432807 
L 460.026983 33.868408 
L 460.264394 33.410885 
L 460.505547 32.53277 
L 461.461133 26.460015 
L 461.759676 26.049913 
L 461.997667 26.399127 
L 462.535859 28.047896 
L 462.954361 29.040629 
L 463.252644 31.102922 
L 463.439137 33.755071 
L 463.848593 35.57684 
L 463.995751 37.696654 
L 464.210024 39.146592 
L 464.468285 39.643247 
L 464.923343 40.929591 
L 465.170704 41.270726 
L 465.469677 42.248136 
L 466.243917 49.235353 
L 466.483619 50.454743 
L 466.663185 50.39394 
L 466.961408 49.344025 
L 467.199234 47.644303 
L 467.597038 46.164807 
L 467.921045 43.473621 
L 468.761166 40.854314 
L 469.179483 42.69252 
L 469.542461 43.947682 
L 469.64942 46.756074 
L 470.128335 52.874842 
L 470.435389 55.024255 
L 470.683137 55.426826 
L 471.143739 51.768696 
L 471.682015 47.67246 
L 472.16172 45.399793 
L 472.456786 42.93484 
L 472.636186 39.911708 
L 473.054076 36.808669 
L 473.172886 33.890904 
L 473.400235 31.302025 
L 473.634969 30.098161 
L 473.868197 29.78205 
L 474.354868 30.98925 
L 474.645427 30.781131 
L 474.949827 30.755714 
L 475.315542 34.073929 
L 475.840459 40.200689 
L 476.317061 46.123324 
L 476.555932 46.924647 
L 476.795462 47.269364 
L 477.212458 47.355555 
L 477.361592 48.04269 
L 477.749946 48.790167 
L 477.868828 50.340493 
L 478.345862 52.609292 
L 478.643526 52.71546 
L 479.305237 50.379476 
L 479.600228 50.463492 
L 480.01865 51.409353 
L 480.259337 51.245001 
L 480.797255 50.488175 
L 481.032858 49.440409 
L 481.30086 49.138594 
L 481.817167 51.643411 
L 482.112202 53.184272 
L 482.301583 54.922408 
L 482.54011 55.720116 
L 482.796157 55.342273 
L 483.208624 53.808441 
L 483.500877 53.906739 
L 483.799178 54.331254 
L 484.097273 55.216625 
L 484.216787 56.134946 
L 484.514676 55.579216 
L 485.008903 53.088224 
L 486.007356 45.033372 
L 486.247979 43.8031 
L 486.483328 41.929426 
L 487.677248 28.271544 
L 488.037454 28.650511 
L 488.214516 29.675695 
L 488.455338 29.77058 
L 488.751713 28.811136 
L 489.288177 24.860428 
L 489.540319 23.866368 
L 490.005091 26.093805 
L 490.481391 28.50629 
L 490.683853 28.147917 
L 490.899752 26.602609 
L 491.201618 25.722585 
L 491.494573 25.381224 
L 491.741352 25.84164 
L 491.913287 27.118556 
L 492.154206 27.698268 
L 492.390345 27.492856 
L 492.705805 26.264899 
L 493.122928 22.327248 
L 493.601015 21.759909 
L 493.66099 23.178193 
L 493.95881 25.230368 
L 494.380638 31.410336 
L 494.614303 32.796229 
L 494.912142 33.181894 
L 495.391562 35.416727 
L 495.688062 37.851121 
L 495.866611 41.11861 
L 496.407336 46.022265 
L 496.644163 46.814705 
L 496.931081 46.990346 
L 497.122047 46.889699 
L 497.32743 47.047875 
L 497.947291 48.387544 
L 498.144884 49.401189 
L 498.384535 49.532781 
L 498.621652 48.080716 
L 499.099563 43.340394 
L 499.337413 42.516226 
L 499.576371 43.060005 
L 500.293182 47.304247 
L 500.829084 48.156946 
L 501.130331 47.947267 
L 501.604394 47.988283 
L 502.142852 47.297701 
L 502.321119 46.718414 
L 502.758604 43.159878 
L 503.051282 40.104321 
L 503.515493 32.582572 
L 504.229888 27.408615 
L 504.650095 25.698505 
L 504.707569 24.979546 
L 505.069486 24.955732 
L 505.311707 25.672423 
L 505.547959 27.970806 
L 506.746757 48.70853 
L 507.231373 51.328326 
L 508.005894 52.895361 
L 508.190358 53.148003 
L 508.485193 52.761297 
L 509.275368 49.499232 
L 509.498512 49.935925 
L 509.921977 50.287686 
L 509.97473 51.968885 
L 510.21317 53.207801 
L 510.691646 53.511075 
L 511.427141 49.785996 
L 511.731757 48.798946 
L 512.42372 44.464229 
L 513.214663 38.998876 
L 513.68035 37.84397 
L 514.39837 40.497403 
L 514.571539 41.833875 
L 514.703169 41.420135 
L 515.918439 29.436542 
L 516.762513 24.762039 
L 517.159528 20.49775 
L 517.51651 19.456022 
L 517.702683 20.995724 
L 518.653123 35.504594 
L 519.130101 38.922831 
L 519.725267 43.998705 
L 519.86004 47.407568 
L 520.141772 49.067636 
L 520.439599 49.03267 
L 520.859464 43.891522 
L 521.115203 43.594864 
L 521.39507 48.748303 
L 522.117242 71.41259 
L 522.363738 74.234198 
L 522.65075 74.143716 
L 522.827932 73.111486 
L 523.266623 72.053112 
L 523.497826 72.165565 
L 523.843711 70.942358 
L 524.131034 62.188372 
L 524.380779 50.655893 
L 524.857058 44.194101 
L 524.9168 40.40167 
L 525.275559 39.465097 
L 525.814188 45.431449 
L 526.316015 46.707992 
L 526.428741 46.458802 
L 526.596989 45.294959 
L 526.890514 44.385721 
L 527.008656 44.905533 
L 527.785005 50.795467 
L 527.911085 54.099414 
L 528.28225 56.287429 
L 528.505796 56.400816 
L 528.92995 52.560931 
L 529.166701 51.301962 
L 529.533417 51.183415 
L 529.890641 49.072193 
L 530.664454 31.662336 
L 530.905653 27.571804 
L 531.262127 26.090753 
L 531.439707 26.134552 
L 531.621121 27.399375 
L 531.88268 27.666217 
L 532.001118 26.334613 
L 532.275662 25.204263 
L 532.524468 25.663703 
L 532.939696 33.376533 
L 533.72434 46.739111 
L 533.946454 48.566721 
L 534.245028 49.663109 
L 535.504579 60.730622 
L 535.801994 61.036217 
L 535.979304 60.360607 
L 536.526316 55.387616 
L 536.938388 50.351543 
L 537.57183 46.013459 
L 537.923297 39.756179 
L 538.432501 33.573632 
L 538.723835 32.5006 
L 539.439601 35.618654 
L 539.680701 35.25027 
L 540.393637 31.605929 
L 540.636535 31.959458 
L 541.483777 34.578734 
L 541.907515 34.375673 
L 542.137411 34.393965 
L 542.376781 34.876052 
L 542.912553 37.046528 
L 543.147255 37.011019 
L 543.625901 33.726583 
L 543.867082 32.059801 
L 544.419445 30.258565 
L 544.699628 30.658763 
L 545.613251 33.862796 
L 545.716345 34.911001 
L 546.013013 36.348045 
L 546.562256 44.805963 
L 547.086927 51.054964 
L 547.328605 52.856432 
L 547.562717 53.589768 
L 547.800201 53.802705 
L 548.57849 55.73255 
L 548.874603 56.03055 
L 549.053617 55.581381 
L 549.551337 53.815621 
L 549.769221 51.968586 
L 550.187418 50.873793 
L 550.496407 47.422026 
L 550.901628 45.678818 
L 551.264901 42.432084 
L 552.035323 39.090113 
L 553.531832 31.1371 
L 553.764774 28.77419 
L 554.745389 22.550786 
L 554.984158 22.295578 
L 555.281591 22.398188 
L 555.937535 21.977547 
L 556.23672 22.2426 
L 556.8397 23.307915 
L 557.459078 28.034763 
L 557.743454 36.617444 
L 558.43799 46.789148 
L 558.695445 48.928495 
L 558.974965 50.091097 
L 559.210968 50.204517 
L 559.509203 49.132361 
L 559.92538 43.768001 
L 560.468553 40.93328 
L 560.945158 35.189858 
L 561.37958 31.259383 
L 561.675585 32.062539 
L 562.153707 37.975566 
L 563.168071 44.58687 
L 563.663332 46.868295 
L 564.063923 45.859316 
L 564.602546 35.942981 
L 565.099238 33.771602 
L 565.376283 34.246023 
L 566.154132 38.397589 
L 566.41619 40.671319 
L 566.807687 42.919835 
L 566.871061 45.228163 
L 567.109206 46.158337 
L 567.602314 44.718431 
L 567.889683 42.902867 
L 568.067008 39.909915 
L 568.666409 34.899801 
L 568.905048 33.761414 
L 569.258048 34.190946 
L 569.495961 35.985155 
L 569.556614 37.786151 
L 569.830097 38.899728 
L 570.180186 38.19084 
L 570.296782 37.666894 
L 570.596187 37.780482 
L 570.840372 38.672075 
L 571.312124 41.262041 
L 571.551927 41.8662 
L 571.854597 40.591383 
L 572.030259 38.504183 
L 572.327643 37.804844 
L 573.047077 45.138107 
L 573.343047 43.995818 
L 573.705169 41.106031 
L 573.889969 38.502219 
L 574.05876 37.979778 
L 574.789855 42.047751 
L 575.266685 38.828798 
L 575.509254 39.098385 
L 575.806683 42.341207 
L 575.982989 45.988657 
L 576.28069 47.430198 
L 576.639918 44.96161 
L 576.819632 41.218435 
L 577.176708 39.271634 
L 577.414148 40.229525 
L 577.715511 44.944981 
L 577.951032 44.522117 
L 578.55534 39.675514 
L 578.728967 40.757791 
L 579.234913 45.700083 
L 579.471695 45.009491 
L 580.001437 40.910854 
L 580.238885 40.644325 
L 580.67193 41.614566 
L 580.954797 41.111849 
L 581.193618 40.016869 
L 581.503861 40.098038 
L 581.67021 41.168827 
L 582.167232 42.846737 
L 582.685641 40.913114 
L 582.987025 41.454906 
L 583.282015 43.536579 
L 583.519781 46.865998 
L 583.93793 46.549479 
L 584.35554 41.902171 
L 584.712611 41.753595 
L 585.071395 47.595338 
L 585.399086 46.950054 
L 585.63542 44.300482 
L 585.908154 37.868345 
L 586.150599 36.214555 
L 586.440302 37.139999 
L 586.619088 39.62574 
L 586.989148 41.623018 
L 587.158906 41.700742 
L 587.635596 38.945214 
L 587.875755 38.918703 
L 588.119341 40.535552 
L 588.64969 45.566051 
L 588.888745 44.97627 
L 589.128115 41.996308 
L 589.546397 40.106562 
L 589.612081 40.353475 
L 589.849898 41.714445 
L 590.201208 42.219282 
L 590.339608 42.108137 
L 590.564453 42.427683 
L 590.858037 43.179875 
L 591.098088 43.004964 
L 591.336211 42.134301 
L 591.644742 42.346023 
L 591.94111 43.398923 
L 592.179709 42.076588 
L 592.35766 40.423915 
L 592.599352 42.032942 
L 592.95496 43.576236 
L 593.612706 40.299489 
L 594.265573 43.087043 
L 594.510253 42.722152 
L 595.041953 41.381841 
L 595.294118 41.522543 
L 595.995268 42.810991 
L 596.26267 43.209706 
L 596.502813 41.925482 
L 596.502813 41.925482 
" clip-path="url(#p383feee485)" style="fill: none; stroke: #ff0000; stroke-opacity: 0.5; stroke-width: 1.5; stroke-linecap: square"/>
   </g>
   <g id="patch_3">
    <path d="M 38.502813 277.92 
L 38.502813 0.72 
" style="fill: none; stroke: #000000; stroke-width: 0.8; stroke-linejoin: miter; stroke-linecap: square"/>
   </g>
   <g id="patch_4">
    <path d="M 596.502813 277.92 
L 596.502813 0.72 
" style="fill: none; stroke: #000000; stroke-width: 0.8; stroke-linejoin: miter; stroke-linecap: square"/>
   </g>
   <g id="patch_5">
    <path d="M 38.502813 277.92 
L 596.502813 277.92 
" style="fill: none; stroke: #000000; stroke-width: 0.8; stroke-linejoin: miter; stroke-linecap: square"/>
   </g>
   <g id="patch_6">
    <path d="M 38.502813 0.72 
L 596.502813 0.72 
" style="fill: none; stroke: #000000; stroke-width: 0.8; stroke-linejoin: miter; stroke-linecap: square"/>
   </g>
   <g id="legend_1">
    <g id="patch_7">
     <path d="M 45.502813 38.07625 
L 119.271563 38.07625 
Q 121.271563 38.07625 121.271563 36.07625 
L 121.271563 7.72 
Q 121.271563 5.72 119.271563 5.72 
L 45.502813 5.72 
Q 43.502813 5.72 43.502813 7.72 
L 43.502813 36.07625 
Q 43.502813 38.07625 45.502813 38.07625 
z
" style="fill: #ffffff; opacity: 0.8; stroke: #cccccc; stroke-linejoin: miter"/>
    </g>
    <g id="line2d_29">
     <path d="M 47.502813 13.818438 
L 57.502813 13.818438 
L 67.502813 13.818438 
" style="fill: none; stroke: #0000ff; stroke-opacity: 0.5; stroke-width: 1.5; stroke-linecap: square"/>
    </g>
    <g id="text_16">
     <!-- RNEA -->
     <g transform="translate(75.502813 17.318438) scale(0.1 -0.1)">
      <defs>
       <path id="DejaVuSans-52" d="M 2841 2188 
Q 3044 2119 3236 1894 
Q 3428 1669 3622 1275 
L 4263 0 
L 3584 0 
L 2988 1197 
Q 2756 1666 2539 1819 
Q 2322 1972 1947 1972 
L 1259 1972 
L 1259 0 
L 628 0 
L 628 4666 
L 2053 4666 
Q 2853 4666 3247 4331 
Q 3641 3997 3641 3322 
Q 3641 2881 3436 2590 
Q 3231 2300 2841 2188 
z
M 1259 4147 
L 1259 2491 
L 2053 2491 
Q 2509 2491 2742 2702 
Q 2975 2913 2975 3322 
Q 2975 3731 2742 3939 
Q 2509 4147 2053 4147 
L 1259 4147 
z
" transform="scale(0.015625)"/>
       <path id="DejaVuSans-45" d="M 628 4666 
L 3578 4666 
L 3578 4134 
L 1259 4134 
L 1259 2753 
L 3481 2753 
L 3481 2222 
L 1259 2222 
L 1259 531 
L 3634 531 
L 3634 0 
L 628 0 
L 628 4666 
z
" transform="scale(0.015625)"/>
       <path id="DejaVuSans-41" d="M 2188 4044 
L 1331 1722 
L 3047 1722 
L 2188 4044 
z
M 1831 4666 
L 2547 4666 
L 4325 0 
L 3669 0 
L 3244 1197 
L 1141 1197 
L 716 0 
L 50 0 
L 1831 4666 
z
" transform="scale(0.015625)"/>
      </defs>
      <use xlink:href="#DejaVuSans-52"/>
      <use xlink:href="#DejaVuSans-4e" x="69.482422"/>
      <use xlink:href="#DejaVuSans-45" x="144.287109"/>
      <use xlink:href="#DejaVuSans-41" x="207.470703"/>
     </g>
    </g>
    <g id="line2d_30">
     <path d="M 47.502813 28.496563 
L 57.502813 28.496563 
L 67.502813 28.496563 
" style="fill: none; stroke: #ff0000; stroke-opacity: 0.5; stroke-width: 1.5; stroke-linecap: square"/>
    </g>
    <g id="text_17">
     <!-- BURNEA -->
     <g transform="translate(75.502813 31.996563) scale(0.1 -0.1)">
      <defs>
       <path id="DejaVuSans-42" d="M 1259 2228 
L 1259 519 
L 2272 519 
Q 2781 519 3026 730 
Q 3272 941 3272 1375 
Q 3272 1813 3026 2020 
Q 2781 2228 2272 2228 
L 1259 2228 
z
M 1259 4147 
L 1259 2741 
L 2194 2741 
Q 2656 2741 2882 2914 
Q 3109 3088 3109 3444 
Q 3109 3797 2882 3972 
Q 2656 4147 2194 4147 
L 1259 4147 
z
M 628 4666 
L 2241 4666 
Q 2963 4666 3353 4366 
Q 3744 4066 3744 3513 
Q 3744 3084 3544 2831 
Q 3344 2578 2956 2516 
Q 3422 2416 3680 2098 
Q 3938 1781 3938 1306 
Q 3938 681 3513 340 
Q 3088 0 2303 0 
L 628 0 
L 628 4666 
z
" transform="scale(0.015625)"/>
       <path id="DejaVuSans-55" d="M 556 4666 
L 1191 4666 
L 1191 1831 
Q 1191 1081 1462 751 
Q 1734 422 2344 422 
Q 2950 422 3222 751 
Q 3494 1081 3494 1831 
L 3494 4666 
L 4128 4666 
L 4128 1753 
Q 4128 841 3676 375 
Q 3225 -91 2344 -91 
Q 1459 -91 1007 375 
Q 556 841 556 1753 
L 556 4666 
z
" transform="scale(0.015625)"/>
      </defs>
      <use xlink:href="#DejaVuSans-42"/>
      <use xlink:href="#DejaVuSans-55" x="68.603516"/>
      <use xlink:href="#DejaVuSans-52" x="141.796875"/>
      <use xlink:href="#DejaVuSans-4e" x="211.279297"/>
      <use xlink:href="#DejaVuSans-45" x="286.083984"/>
      <use xlink:href="#DejaVuSans-41" x="349.267578"/>
     </g>
    </g>
   </g>
  </g>
 </g>
 <defs>
  <clipPath id="p383feee485">
   <rect x="38.502813" y="0.72" width="558" height="277.2"/>
  </clipPath>
 </defs>
</svg>
