<?xml version="1.0" encoding="utf-8" standalone="no"?>
<!DOCTYPE svg PUBLIC "-//W3C//DTD SVG 1.1//EN"
  "http://www.w3.org/Graphics/SVG/1.1/DTD/svg11.dtd">
<svg xmlns:xlink="http://www.w3.org/1999/xlink" width="597.222813pt" height="304.99625pt" viewBox="0 0 597.222813 304.99625" xmlns="http://www.w3.org/2000/svg" version="1.1">
 <metadata>
  <rdf:RDF xmlns:dc="http://purl.org/dc/elements/1.1/" xmlns:cc="http://creativecommons.org/ns#" xmlns:rdf="http://www.w3.org/1999/02/22-rdf-syntax-ns#">
   <cc:Work>
    <dc:type rdf:resource="http://purl.org/dc/dcmitype/StillImage"/>
    <dc:date>2023-09-07T03:30:15.559852</dc:date>
    <dc:format>image/svg+xml</dc:format>
    <dc:creator>
     <cc:Agent>
      <dc:title>Matplotlib v3.7.2, https://matplotlib.org/</dc:title>
     </cc:Agent>
    </dc:creator>
   </cc:Work>
  </rdf:RDF>
 </metadata>
 <defs>
  <style type="text/css">*{stroke-linejoin: round; stroke-linecap: butt}</style>
 </defs>
 <g id="figure_1">
  <g id="patch_1">
   <path d="M -0 304.99625 
L 597.222813 304.99625 
L 597.222813 0 
L -0 0 
L -0 304.99625 
z
" style="fill: none"/>
  </g>
  <g id="axes_1">
   <g id="patch_2">
    <path d="M 38.502813 277.92 
L 596.502813 277.92 
L 596.502813 0.72 
L 38.502813 0.72 
L 38.502813 277.92 
z
" style="fill: none"/>
   </g>
   <g id="matplotlib.axis_1">
    <g id="xtick_1">
     <g id="line2d_1">
      <path d="M 38.502813 277.92 
L 38.502813 0.72 
" clip-path="url(#p4f97d32dd7)" style="fill: none; stroke-dasharray: 0.8,1.32; stroke-dashoffset: 0; stroke: #000000; stroke-opacity: 0.5; stroke-width: 0.8"/>
     </g>
     <g id="line2d_2">
      <defs>
       <path id="m1323c579a4" d="M 0 0 
L 0 3.5 
" style="stroke: #000000; stroke-width: 0.8"/>
      </defs>
      <g>
       <use xlink:href="#m1323c579a4" x="38.502813" y="277.92" style="stroke: #000000; stroke-width: 0.8"/>
      </g>
     </g>
     <g id="text_1">
      <!-- 0.0 -->
      <g transform="translate(30.55125 292.518438) scale(0.1 -0.1)">
       <defs>
        <path id="DejaVuSans-30" d="M 2034 4250 
Q 1547 4250 1301 3770 
Q 1056 3291 1056 2328 
Q 1056 1369 1301 889 
Q 1547 409 2034 409 
Q 2525 409 2770 889 
Q 3016 1369 3016 2328 
Q 3016 3291 2770 3770 
Q 2525 4250 2034 4250 
z
M 2034 4750 
Q 2819 4750 3233 4129 
Q 3647 3509 3647 2328 
Q 3647 1150 3233 529 
Q 2819 -91 2034 -91 
Q 1250 -91 836 529 
Q 422 1150 422 2328 
Q 422 3509 836 4129 
Q 1250 4750 2034 4750 
z
" transform="scale(0.015625)"/>
        <path id="DejaVuSans-2e" d="M 684 794 
L 1344 794 
L 1344 0 
L 684 0 
L 684 794 
z
" transform="scale(0.015625)"/>
       </defs>
       <use xlink:href="#DejaVuSans-30"/>
       <use xlink:href="#DejaVuSans-2e" x="63.623047"/>
       <use xlink:href="#DejaVuSans-30" x="95.410156"/>
      </g>
     </g>
    </g>
    <g id="xtick_2">
     <g id="line2d_3">
      <path d="M 112.654137 277.92 
L 112.654137 0.72 
" clip-path="url(#p4f97d32dd7)" style="fill: none; stroke-dasharray: 0.8,1.32; stroke-dashoffset: 0; stroke: #000000; stroke-opacity: 0.5; stroke-width: 0.8"/>
     </g>
     <g id="line2d_4">
      <g>
       <use xlink:href="#m1323c579a4" x="112.654137" y="277.92" style="stroke: #000000; stroke-width: 0.8"/>
      </g>
     </g>
     <g id="text_2">
      <!-- 2.5 -->
      <g transform="translate(104.702575 292.518438) scale(0.1 -0.1)">
       <defs>
        <path id="DejaVuSans-32" d="M 1228 531 
L 3431 531 
L 3431 0 
L 469 0 
L 469 531 
Q 828 903 1448 1529 
Q 2069 2156 2228 2338 
Q 2531 2678 2651 2914 
Q 2772 3150 2772 3378 
Q 2772 3750 2511 3984 
Q 2250 4219 1831 4219 
Q 1534 4219 1204 4116 
Q 875 4013 500 3803 
L 500 4441 
Q 881 4594 1212 4672 
Q 1544 4750 1819 4750 
Q 2544 4750 2975 4387 
Q 3406 4025 3406 3419 
Q 3406 3131 3298 2873 
Q 3191 2616 2906 2266 
Q 2828 2175 2409 1742 
Q 1991 1309 1228 531 
z
" transform="scale(0.015625)"/>
        <path id="DejaVuSans-35" d="M 691 4666 
L 3169 4666 
L 3169 4134 
L 1269 4134 
L 1269 2991 
Q 1406 3038 1543 3061 
Q 1681 3084 1819 3084 
Q 2600 3084 3056 2656 
Q 3513 2228 3513 1497 
Q 3513 744 3044 326 
Q 2575 -91 1722 -91 
Q 1428 -91 1123 -41 
Q 819 9 494 109 
L 494 744 
Q 775 591 1075 516 
Q 1375 441 1709 441 
Q 2250 441 2565 725 
Q 2881 1009 2881 1497 
Q 2881 1984 2565 2268 
Q 2250 2553 1709 2553 
Q 1456 2553 1204 2497 
Q 953 2441 691 2322 
L 691 4666 
z
" transform="scale(0.015625)"/>
       </defs>
       <use xlink:href="#DejaVuSans-32"/>
       <use xlink:href="#DejaVuSans-2e" x="63.623047"/>
       <use xlink:href="#DejaVuSans-35" x="95.410156"/>
      </g>
     </g>
    </g>
    <g id="xtick_3">
     <g id="line2d_5">
      <path d="M 186.805462 277.92 
L 186.805462 0.72 
" clip-path="url(#p4f97d32dd7)" style="fill: none; stroke-dasharray: 0.8,1.32; stroke-dashoffset: 0; stroke: #000000; stroke-opacity: 0.5; stroke-width: 0.8"/>
     </g>
     <g id="line2d_6">
      <g>
       <use xlink:href="#m1323c579a4" x="186.805462" y="277.92" style="stroke: #000000; stroke-width: 0.8"/>
      </g>
     </g>
     <g id="text_3">
      <!-- 5.0 -->
      <g transform="translate(178.8539 292.518438) scale(0.1 -0.1)">
       <use xlink:href="#DejaVuSans-35"/>
       <use xlink:href="#DejaVuSans-2e" x="63.623047"/>
       <use xlink:href="#DejaVuSans-30" x="95.410156"/>
      </g>
     </g>
    </g>
    <g id="xtick_4">
     <g id="line2d_7">
      <path d="M 260.956787 277.92 
L 260.956787 0.72 
" clip-path="url(#p4f97d32dd7)" style="fill: none; stroke-dasharray: 0.8,1.32; stroke-dashoffset: 0; stroke: #000000; stroke-opacity: 0.5; stroke-width: 0.8"/>
     </g>
     <g id="line2d_8">
      <g>
       <use xlink:href="#m1323c579a4" x="260.956787" y="277.92" style="stroke: #000000; stroke-width: 0.8"/>
      </g>
     </g>
     <g id="text_4">
      <!-- 7.5 -->
      <g transform="translate(253.005225 292.518438) scale(0.1 -0.1)">
       <defs>
        <path id="DejaVuSans-37" d="M 525 4666 
L 3525 4666 
L 3525 4397 
L 1831 0 
L 1172 0 
L 2766 4134 
L 525 4134 
L 525 4666 
z
" transform="scale(0.015625)"/>
       </defs>
       <use xlink:href="#DejaVuSans-37"/>
       <use xlink:href="#DejaVuSans-2e" x="63.623047"/>
       <use xlink:href="#DejaVuSans-35" x="95.410156"/>
      </g>
     </g>
    </g>
    <g id="xtick_5">
     <g id="line2d_9">
      <path d="M 335.108112 277.92 
L 335.108112 0.72 
" clip-path="url(#p4f97d32dd7)" style="fill: none; stroke-dasharray: 0.8,1.32; stroke-dashoffset: 0; stroke: #000000; stroke-opacity: 0.5; stroke-width: 0.8"/>
     </g>
     <g id="line2d_10">
      <g>
       <use xlink:href="#m1323c579a4" x="335.108112" y="277.92" style="stroke: #000000; stroke-width: 0.8"/>
      </g>
     </g>
     <g id="text_5">
      <!-- 10.0 -->
      <g transform="translate(323.9753 292.518438) scale(0.1 -0.1)">
       <defs>
        <path id="DejaVuSans-31" d="M 794 531 
L 1825 531 
L 1825 4091 
L 703 3866 
L 703 4441 
L 1819 4666 
L 2450 4666 
L 2450 531 
L 3481 531 
L 3481 0 
L 794 0 
L 794 531 
z
" transform="scale(0.015625)"/>
       </defs>
       <use xlink:href="#DejaVuSans-31"/>
       <use xlink:href="#DejaVuSans-30" x="63.623047"/>
       <use xlink:href="#DejaVuSans-2e" x="127.246094"/>
       <use xlink:href="#DejaVuSans-30" x="159.033203"/>
      </g>
     </g>
    </g>
    <g id="xtick_6">
     <g id="line2d_11">
      <path d="M 409.259437 277.92 
L 409.259437 0.72 
" clip-path="url(#p4f97d32dd7)" style="fill: none; stroke-dasharray: 0.8,1.32; stroke-dashoffset: 0; stroke: #000000; stroke-opacity: 0.5; stroke-width: 0.8"/>
     </g>
     <g id="line2d_12">
      <g>
       <use xlink:href="#m1323c579a4" x="409.259437" y="277.92" style="stroke: #000000; stroke-width: 0.8"/>
      </g>
     </g>
     <g id="text_6">
      <!-- 12.5 -->
      <g transform="translate(398.126625 292.518438) scale(0.1 -0.1)">
       <use xlink:href="#DejaVuSans-31"/>
       <use xlink:href="#DejaVuSans-32" x="63.623047"/>
       <use xlink:href="#DejaVuSans-2e" x="127.246094"/>
       <use xlink:href="#DejaVuSans-35" x="159.033203"/>
      </g>
     </g>
    </g>
    <g id="xtick_7">
     <g id="line2d_13">
      <path d="M 483.410762 277.92 
L 483.410762 0.72 
" clip-path="url(#p4f97d32dd7)" style="fill: none; stroke-dasharray: 0.8,1.32; stroke-dashoffset: 0; stroke: #000000; stroke-opacity: 0.5; stroke-width: 0.8"/>
     </g>
     <g id="line2d_14">
      <g>
       <use xlink:href="#m1323c579a4" x="483.410762" y="277.92" style="stroke: #000000; stroke-width: 0.8"/>
      </g>
     </g>
     <g id="text_7">
      <!-- 15.0 -->
      <g transform="translate(472.27795 292.518438) scale(0.1 -0.1)">
       <use xlink:href="#DejaVuSans-31"/>
       <use xlink:href="#DejaVuSans-35" x="63.623047"/>
       <use xlink:href="#DejaVuSans-2e" x="127.246094"/>
       <use xlink:href="#DejaVuSans-30" x="159.033203"/>
      </g>
     </g>
    </g>
    <g id="xtick_8">
     <g id="line2d_15">
      <path d="M 557.562087 277.92 
L 557.562087 0.72 
" clip-path="url(#p4f97d32dd7)" style="fill: none; stroke-dasharray: 0.8,1.32; stroke-dashoffset: 0; stroke: #000000; stroke-opacity: 0.5; stroke-width: 0.8"/>
     </g>
     <g id="line2d_16">
      <g>
       <use xlink:href="#m1323c579a4" x="557.562087" y="277.92" style="stroke: #000000; stroke-width: 0.8"/>
      </g>
     </g>
     <g id="text_8">
      <!-- 17.5 -->
      <g transform="translate(546.429274 292.518438) scale(0.1 -0.1)">
       <use xlink:href="#DejaVuSans-31"/>
       <use xlink:href="#DejaVuSans-37" x="63.623047"/>
       <use xlink:href="#DejaVuSans-2e" x="127.246094"/>
       <use xlink:href="#DejaVuSans-35" x="159.033203"/>
      </g>
     </g>
    </g>
    <g id="text_9">
     <!-- Zeit [s] -->
     <g transform="translate(299.556719 302.196563) scale(0.1 -0.1)">
      <defs>
       <path id="DejaVuSans-5a" d="M 359 4666 
L 4025 4666 
L 4025 4184 
L 1075 531 
L 4097 531 
L 4097 0 
L 288 0 
L 288 481 
L 3238 4134 
L 359 4134 
L 359 4666 
z
" transform="scale(0.015625)"/>
       <path id="DejaVuSans-65" d="M 3597 1894 
L 3597 1613 
L 953 1613 
Q 991 1019 1311 708 
Q 1631 397 2203 397 
Q 2534 397 2845 478 
Q 3156 559 3463 722 
L 3463 178 
Q 3153 47 2828 -22 
Q 2503 -91 2169 -91 
Q 1331 -91 842 396 
Q 353 884 353 1716 
Q 353 2575 817 3079 
Q 1281 3584 2069 3584 
Q 2775 3584 3186 3129 
Q 3597 2675 3597 1894 
z
M 3022 2063 
Q 3016 2534 2758 2815 
Q 2500 3097 2075 3097 
Q 1594 3097 1305 2825 
Q 1016 2553 972 2059 
L 3022 2063 
z
" transform="scale(0.015625)"/>
       <path id="DejaVuSans-69" d="M 603 3500 
L 1178 3500 
L 1178 0 
L 603 0 
L 603 3500 
z
M 603 4863 
L 1178 4863 
L 1178 4134 
L 603 4134 
L 603 4863 
z
" transform="scale(0.015625)"/>
       <path id="DejaVuSans-74" d="M 1172 4494 
L 1172 3500 
L 2356 3500 
L 2356 3053 
L 1172 3053 
L 1172 1153 
Q 1172 725 1289 603 
Q 1406 481 1766 481 
L 2356 481 
L 2356 0 
L 1766 0 
Q 1100 0 847 248 
Q 594 497 594 1153 
L 594 3053 
L 172 3053 
L 172 3500 
L 594 3500 
L 594 4494 
L 1172 4494 
z
" transform="scale(0.015625)"/>
       <path id="DejaVuSans-20" transform="scale(0.015625)"/>
       <path id="DejaVuSans-5b" d="M 550 4863 
L 1875 4863 
L 1875 4416 
L 1125 4416 
L 1125 -397 
L 1875 -397 
L 1875 -844 
L 550 -844 
L 550 4863 
z
" transform="scale(0.015625)"/>
       <path id="DejaVuSans-73" d="M 2834 3397 
L 2834 2853 
Q 2591 2978 2328 3040 
Q 2066 3103 1784 3103 
Q 1356 3103 1142 2972 
Q 928 2841 928 2578 
Q 928 2378 1081 2264 
Q 1234 2150 1697 2047 
L 1894 2003 
Q 2506 1872 2764 1633 
Q 3022 1394 3022 966 
Q 3022 478 2636 193 
Q 2250 -91 1575 -91 
Q 1294 -91 989 -36 
Q 684 19 347 128 
L 347 722 
Q 666 556 975 473 
Q 1284 391 1588 391 
Q 1994 391 2212 530 
Q 2431 669 2431 922 
Q 2431 1156 2273 1281 
Q 2116 1406 1581 1522 
L 1381 1569 
Q 847 1681 609 1914 
Q 372 2147 372 2553 
Q 372 3047 722 3315 
Q 1072 3584 1716 3584 
Q 2034 3584 2315 3537 
Q 2597 3491 2834 3397 
z
" transform="scale(0.015625)"/>
       <path id="DejaVuSans-5d" d="M 1947 4863 
L 1947 -844 
L 622 -844 
L 622 -397 
L 1369 -397 
L 1369 4416 
L 622 4416 
L 622 4863 
L 1947 4863 
z
" transform="scale(0.015625)"/>
      </defs>
      <use xlink:href="#DejaVuSans-5a"/>
      <use xlink:href="#DejaVuSans-65" x="68.505859"/>
      <use xlink:href="#DejaVuSans-69" x="130.029297"/>
      <use xlink:href="#DejaVuSans-74" x="157.8125"/>
      <use xlink:href="#DejaVuSans-20" x="197.021484"/>
      <use xlink:href="#DejaVuSans-5b" x="228.808594"/>
      <use xlink:href="#DejaVuSans-73" x="267.822266"/>
      <use xlink:href="#DejaVuSans-5d" x="319.921875"/>
     </g>
    </g>
   </g>
   <g id="matplotlib.axis_2">
    <g id="ytick_1">
     <g id="line2d_17">
      <path d="M 38.502813 230.955399 
L 596.502813 230.955399 
" clip-path="url(#p4f97d32dd7)" style="fill: none; stroke-dasharray: 0.8,1.32; stroke-dashoffset: 0; stroke: #000000; stroke-opacity: 0.5; stroke-width: 0.8"/>
     </g>
     <g id="line2d_18">
      <defs>
       <path id="m1bb8f9a56a" d="M 0 0 
L -3.5 0 
" style="stroke: #000000; stroke-width: 0.8"/>
      </defs>
      <g>
       <use xlink:href="#m1bb8f9a56a" x="38.502813" y="230.955399" style="stroke: #000000; stroke-width: 0.8"/>
      </g>
     </g>
     <g id="text_10">
      <!-- −20 -->
      <g transform="translate(10.398125 234.754617) scale(0.1 -0.1)">
       <defs>
        <path id="DejaVuSans-2212" d="M 678 2272 
L 4684 2272 
L 4684 1741 
L 678 1741 
L 678 2272 
z
" transform="scale(0.015625)"/>
       </defs>
       <use xlink:href="#DejaVuSans-2212"/>
       <use xlink:href="#DejaVuSans-32" x="83.789062"/>
       <use xlink:href="#DejaVuSans-30" x="147.412109"/>
      </g>
     </g>
    </g>
    <g id="ytick_2">
     <g id="line2d_19">
      <path d="M 38.502813 183.192094 
L 596.502813 183.192094 
" clip-path="url(#p4f97d32dd7)" style="fill: none; stroke-dasharray: 0.8,1.32; stroke-dashoffset: 0; stroke: #000000; stroke-opacity: 0.5; stroke-width: 0.8"/>
     </g>
     <g id="line2d_20">
      <g>
       <use xlink:href="#m1bb8f9a56a" x="38.502813" y="183.192094" style="stroke: #000000; stroke-width: 0.8"/>
      </g>
     </g>
     <g id="text_11">
      <!-- −15 -->
      <g transform="translate(10.398125 186.991313) scale(0.1 -0.1)">
       <use xlink:href="#DejaVuSans-2212"/>
       <use xlink:href="#DejaVuSans-31" x="83.789062"/>
       <use xlink:href="#DejaVuSans-35" x="147.412109"/>
      </g>
     </g>
    </g>
    <g id="ytick_3">
     <g id="line2d_21">
      <path d="M 38.502813 135.428789 
L 596.502813 135.428789 
" clip-path="url(#p4f97d32dd7)" style="fill: none; stroke-dasharray: 0.8,1.32; stroke-dashoffset: 0; stroke: #000000; stroke-opacity: 0.5; stroke-width: 0.8"/>
     </g>
     <g id="line2d_22">
      <g>
       <use xlink:href="#m1bb8f9a56a" x="38.502813" y="135.428789" style="stroke: #000000; stroke-width: 0.8"/>
      </g>
     </g>
     <g id="text_12">
      <!-- −10 -->
      <g transform="translate(10.398125 139.228008) scale(0.1 -0.1)">
       <use xlink:href="#DejaVuSans-2212"/>
       <use xlink:href="#DejaVuSans-31" x="83.789062"/>
       <use xlink:href="#DejaVuSans-30" x="147.412109"/>
      </g>
     </g>
    </g>
    <g id="ytick_4">
     <g id="line2d_23">
      <path d="M 38.502813 87.665485 
L 596.502813 87.665485 
" clip-path="url(#p4f97d32dd7)" style="fill: none; stroke-dasharray: 0.8,1.32; stroke-dashoffset: 0; stroke: #000000; stroke-opacity: 0.5; stroke-width: 0.8"/>
     </g>
     <g id="line2d_24">
      <g>
       <use xlink:href="#m1bb8f9a56a" x="38.502813" y="87.665485" style="stroke: #000000; stroke-width: 0.8"/>
      </g>
     </g>
     <g id="text_13">
      <!-- −5 -->
      <g transform="translate(16.760625 91.464704) scale(0.1 -0.1)">
       <use xlink:href="#DejaVuSans-2212"/>
       <use xlink:href="#DejaVuSans-35" x="83.789062"/>
      </g>
     </g>
    </g>
    <g id="ytick_5">
     <g id="line2d_25">
      <path d="M 38.502813 39.90218 
L 596.502813 39.90218 
" clip-path="url(#p4f97d32dd7)" style="fill: none; stroke-dasharray: 0.8,1.32; stroke-dashoffset: 0; stroke: #000000; stroke-opacity: 0.5; stroke-width: 0.8"/>
     </g>
     <g id="line2d_26">
      <g>
       <use xlink:href="#m1bb8f9a56a" x="38.502813" y="39.90218" style="stroke: #000000; stroke-width: 0.8"/>
      </g>
     </g>
     <g id="text_14">
      <!-- 0 -->
      <g transform="translate(25.140313 43.701399) scale(0.1 -0.1)">
       <use xlink:href="#DejaVuSans-30"/>
      </g>
     </g>
    </g>
    <g id="text_15">
     <!-- Drehmoment [Nm] -->
     <g transform="translate(8.318438 186.465313) rotate(-90) scale(0.1 -0.1)">
      <defs>
       <path id="DejaVuSans-44" d="M 1259 4147 
L 1259 519 
L 2022 519 
Q 2988 519 3436 956 
Q 3884 1394 3884 2338 
Q 3884 3275 3436 3711 
Q 2988 4147 2022 4147 
L 1259 4147 
z
M 628 4666 
L 1925 4666 
Q 3281 4666 3915 4102 
Q 4550 3538 4550 2338 
Q 4550 1131 3912 565 
Q 3275 0 1925 0 
L 628 0 
L 628 4666 
z
" transform="scale(0.015625)"/>
       <path id="DejaVuSans-72" d="M 2631 2963 
Q 2534 3019 2420 3045 
Q 2306 3072 2169 3072 
Q 1681 3072 1420 2755 
Q 1159 2438 1159 1844 
L 1159 0 
L 581 0 
L 581 3500 
L 1159 3500 
L 1159 2956 
Q 1341 3275 1631 3429 
Q 1922 3584 2338 3584 
Q 2397 3584 2469 3576 
Q 2541 3569 2628 3553 
L 2631 2963 
z
" transform="scale(0.015625)"/>
       <path id="DejaVuSans-68" d="M 3513 2113 
L 3513 0 
L 2938 0 
L 2938 2094 
Q 2938 2591 2744 2837 
Q 2550 3084 2163 3084 
Q 1697 3084 1428 2787 
Q 1159 2491 1159 1978 
L 1159 0 
L 581 0 
L 581 4863 
L 1159 4863 
L 1159 2956 
Q 1366 3272 1645 3428 
Q 1925 3584 2291 3584 
Q 2894 3584 3203 3211 
Q 3513 2838 3513 2113 
z
" transform="scale(0.015625)"/>
       <path id="DejaVuSans-6d" d="M 3328 2828 
Q 3544 3216 3844 3400 
Q 4144 3584 4550 3584 
Q 5097 3584 5394 3201 
Q 5691 2819 5691 2113 
L 5691 0 
L 5113 0 
L 5113 2094 
Q 5113 2597 4934 2840 
Q 4756 3084 4391 3084 
Q 3944 3084 3684 2787 
Q 3425 2491 3425 1978 
L 3425 0 
L 2847 0 
L 2847 2094 
Q 2847 2600 2669 2842 
Q 2491 3084 2119 3084 
Q 1678 3084 1418 2786 
Q 1159 2488 1159 1978 
L 1159 0 
L 581 0 
L 581 3500 
L 1159 3500 
L 1159 2956 
Q 1356 3278 1631 3431 
Q 1906 3584 2284 3584 
Q 2666 3584 2933 3390 
Q 3200 3197 3328 2828 
z
" transform="scale(0.015625)"/>
       <path id="DejaVuSans-6f" d="M 1959 3097 
Q 1497 3097 1228 2736 
Q 959 2375 959 1747 
Q 959 1119 1226 758 
Q 1494 397 1959 397 
Q 2419 397 2687 759 
Q 2956 1122 2956 1747 
Q 2956 2369 2687 2733 
Q 2419 3097 1959 3097 
z
M 1959 3584 
Q 2709 3584 3137 3096 
Q 3566 2609 3566 1747 
Q 3566 888 3137 398 
Q 2709 -91 1959 -91 
Q 1206 -91 779 398 
Q 353 888 353 1747 
Q 353 2609 779 3096 
Q 1206 3584 1959 3584 
z
" transform="scale(0.015625)"/>
       <path id="DejaVuSans-6e" d="M 3513 2113 
L 3513 0 
L 2938 0 
L 2938 2094 
Q 2938 2591 2744 2837 
Q 2550 3084 2163 3084 
Q 1697 3084 1428 2787 
Q 1159 2491 1159 1978 
L 1159 0 
L 581 0 
L 581 3500 
L 1159 3500 
L 1159 2956 
Q 1366 3272 1645 3428 
Q 1925 3584 2291 3584 
Q 2894 3584 3203 3211 
Q 3513 2838 3513 2113 
z
" transform="scale(0.015625)"/>
       <path id="DejaVuSans-4e" d="M 628 4666 
L 1478 4666 
L 3547 763 
L 3547 4666 
L 4159 4666 
L 4159 0 
L 3309 0 
L 1241 3903 
L 1241 0 
L 628 0 
L 628 4666 
z
" transform="scale(0.015625)"/>
      </defs>
      <use xlink:href="#DejaVuSans-44"/>
      <use xlink:href="#DejaVuSans-72" x="77.001953"/>
      <use xlink:href="#DejaVuSans-65" x="115.865234"/>
      <use xlink:href="#DejaVuSans-68" x="177.388672"/>
      <use xlink:href="#DejaVuSans-6d" x="240.767578"/>
      <use xlink:href="#DejaVuSans-6f" x="338.179688"/>
      <use xlink:href="#DejaVuSans-6d" x="399.361328"/>
      <use xlink:href="#DejaVuSans-65" x="496.773438"/>
      <use xlink:href="#DejaVuSans-6e" x="558.296875"/>
      <use xlink:href="#DejaVuSans-74" x="621.675781"/>
      <use xlink:href="#DejaVuSans-20" x="660.884766"/>
      <use xlink:href="#DejaVuSans-5b" x="692.671875"/>
      <use xlink:href="#DejaVuSans-4e" x="731.685547"/>
      <use xlink:href="#DejaVuSans-6d" x="806.490234"/>
      <use xlink:href="#DejaVuSans-5d" x="903.902344"/>
     </g>
    </g>
   </g>
   <g id="line2d_27">
    <path d="M 38.502813 39.891496 
L 42.091503 39.920897 
L 43.581899 39.873788 
L 44.060446 39.90931 
L 61.866132 39.889392 
L 63.11617 39.917903 
L 64.426649 39.958343 
L 64.844761 39.926145 
L 66.578194 39.884778 
L 68.783671 39.910943 
L 69.32384 39.895787 
L 70.817845 39.891874 
L 113.421862 39.899633 
L 113.788285 39.873233 
L 116.002065 39.935482 
L 116.475791 39.913528 
L 118.206256 39.919453 
L 118.928024 39.902849 
L 210.189594 39.918167 
L 210.903374 39.898462 
L 212.870117 39.919155 
L 214.121064 39.889881 
L 218.593264 39.927719 
L 218.776973 39.88596 
L 220.32987 39.912308 
L 221.338171 39.884467 
L 221.515496 39.918708 
L 223.248476 39.914436 
L 223.554257 138.080426 
L 223.732051 47.378325 
L 224.26118 54.046965 
L 224.498476 28.882344 
L 224.738977 28.925873 
L 224.976617 42.737344 
L 225.274355 50.842692 
L 225.513956 40.634892 
L 225.75103 59.225566 
L 225.988789 29.601943 
L 226.226817 73.04428 
L 226.525541 56.210187 
L 226.707352 13.445773 
L 227.004147 52.109297 
L 227.184451 51.713236 
L 227.422827 76.764534 
L 227.479239 36.159554 
L 227.717393 53.710663 
L 227.956897 56.03516 
L 228.194151 54.350149 
L 228.491933 23.379926 
L 228.972776 50.347066 
L 229.211707 81.182528 
L 229.507621 56.107657 
L 229.998628 57.789187 
L 230.173069 48.30511 
L 230.408796 49.370617 
L 230.705939 36.4606 
L 230.945101 67.024599 
L 231.242363 82.769461 
L 231.630147 64.38911 
L 231.663719 19.628026 
L 232.316057 80.277743 
L 232.434509 45.555212 
L 232.915984 74.44433 
L 233.208451 82.437728 
L 233.387885 106.421621 
L 233.626662 62.654935 
L 233.864567 90.644988 
L 234.163673 55.431152 
L 234.459871 101.344243 
L 234.638675 61.448727 
L 235.11598 92.423377 
L 235.432665 76.376895 
L 235.72695 81.74573 
L 235.906757 87.214179 
L 236.084479 75.678477 
L 236.919839 98.998922 
L 237.157824 96.129073 
L 237.695023 82.536604 
L 237.874902 62.450486 
L 238.290534 100.251496 
L 238.35076 72.519932 
L 238.589264 79.247308 
L 238.828455 79.157834 
L 239.065068 96.262077 
L 239.305311 87.257869 
L 239.549082 95.411222 
L 239.840779 80.827845 
L 240.023237 59.650526 
L 240.317181 89.839169 
L 240.614551 99.833998 
L 240.793797 89.852901 
L 241.151839 91.413541 
L 241.389884 114.648159 
L 241.569338 91.54895 
L 241.806632 101.090809 
L 242.344062 95.763158 
L 242.641746 88.900235 
L 242.939843 89.880001 
L 243.118815 100.891078 
L 243.41606 96.79386 
L 243.539421 98.740087 
L 243.836562 99.211363 
L 244.253567 122.807979 
L 244.531837 103.094997 
L 244.760099 99.607381 
L 244.998784 92.086506 
L 245.503869 109.098124 
L 245.741822 100.230467 
L 246.202726 110.539542 
L 246.460816 98.872766 
L 246.754794 107.558406 
L 246.994239 108.794707 
L 247.232263 84.767194 
L 247.469526 101.839011 
L 247.708076 106.097873 
L 248.125328 122.833049 
L 248.543255 86.737285 
L 248.848689 123.789599 
L 249.020847 120.736817 
L 249.218981 114.839844 
L 249.530817 110.560493 
L 249.91722 119.963574 
L 250.176782 117.531645 
L 250.454559 111.97844 
L 250.69308 89.258267 
L 250.990238 125.686771 
L 251.171156 125.118896 
L 251.466717 145.829518 
L 251.705896 140.897109 
L 252.004037 111.138184 
L 252.243865 114.506854 
L 252.425758 136.53838 
L 252.66071 125.386024 
L 252.958474 99.412053 
L 253.137428 125.619321 
L 253.437262 140.326924 
L 253.732822 120.690774 
L 253.912799 124.192973 
L 254.151034 114.840992 
L 254.390353 136.588933 
L 254.629948 122.491457 
L 254.866171 142.237737 
L 255.283195 113.937375 
L 255.64118 151.96264 
L 255.702331 119.963215 
L 255.879236 140.92196 
L 256.357 121.588443 
L 256.596713 145.489736 
L 257.013573 145.925175 
L 257.134596 122.770492 
L 257.430682 156.947258 
L 257.61066 128.908369 
L 257.848051 130.822904 
L 258.445132 145.444048 
L 258.577231 164.257652 
L 258.859825 133.934158 
L 259.158214 158.673973 
L 259.487917 134.714376 
L 259.730147 137.454295 
L 259.876027 159.410856 
L 260.173233 152.702092 
L 260.294447 144.049228 
L 260.591149 156.969388 
L 260.949329 157.115252 
L 261.322962 139.862112 
L 261.490067 153.924852 
L 261.602805 151.915772 
L 261.975746 148.03787 
L 262.086563 157.00993 
L 262.328785 145.984139 
L 262.55622 145.646041 
L 262.794199 123.510692 
L 263.151773 126.248635 
L 263.330837 168.552905 
L 263.7477 162.670488 
L 263.866901 167.705546 
L 264.105397 155.865532 
L 264.285849 160.379177 
L 264.881961 155.426504 
L 265.058864 156.553755 
L 265.299527 137.903484 
L 265.714773 166.678846 
L 265.955612 148.469728 
L 266.191948 184.180977 
L 266.252174 148.054734 
L 266.48981 141.293532 
L 266.788459 151.184484 
L 267.09442 144.206105 
L 267.324829 160.776084 
L 267.563622 167.411718 
L 267.759853 162.127993 
L 268.099501 148.389119 
L 268.338011 173.874413 
L 268.532791 169.612312 
L 268.756773 149.998459 
L 269.017167 162.539838 
L 269.233644 156.978814 
L 269.530633 136.149983 
L 270.125731 143.651855 
L 270.245132 152.568055 
L 270.661966 167.290015 
L 270.723 179.332182 
L 271.318588 156.68273 
L 271.561653 187.541815 
L 271.735812 160.490965 
L 271.975033 164.304493 
L 272.273994 154.325588 
L 272.689423 179.572243 
L 272.927961 165.69198 
L 273.17533 189.093915 
L 273.464189 171.449791 
L 273.643316 173.371021 
L 273.969451 166.972868 
L 274.219372 177.707313 
L 274.658263 179.644112 
L 275.037647 169.622309 
L 275.313574 171.977667 
L 275.437851 156.913186 
L 275.791628 158.104936 
L 275.91339 185.215247 
L 276.20821 173.232598 
L 276.393789 171.369902 
L 276.812326 170.560267 
L 277.162083 156.105535 
L 277.590469 191.854177 
L 277.939041 179.561752 
L 278.12053 188.420185 
L 278.475781 158.947055 
L 278.624491 186.546837 
L 278.955747 161.238359 
L 279.193852 166.255712 
L 279.431173 178.400651 
L 279.612332 175.549496 
L 279.907556 184.239805 
L 280.086959 179.062911 
L 280.384925 193.497791 
L 280.623809 187.643455 
L 280.980465 202.671772 
L 281.1601 177.424236 
L 281.457142 191.301723 
L 281.594071 186.131212 
L 281.873928 186.04196 
L 282.056615 181.395392 
L 282.113657 206.900641 
L 282.533731 188.028531 
L 282.828435 201.794902 
L 283.068365 206.967727 
L 283.306338 198.107015 
L 283.66432 178.587575 
L 284.088847 200.297415 
L 284.319934 186.445501 
L 284.563335 186.113826 
L 285.034625 202.573982 
L 285.276257 202.674685 
L 285.690436 192.161089 
L 285.810779 204.835231 
L 286.048783 181.901035 
L 286.292195 204.503811 
L 286.526687 189.067786 
L 286.769413 204.235464 
L 287.007247 183.746609 
L 287.262421 199.446621 
L 287.484106 170.504519 
L 287.900764 196.373885 
L 288.024509 217.483045 
L 288.259375 197.497298 
L 288.497522 220.303436 
L 288.736219 195.015169 
L 289.035046 181.474781 
L 289.24077 184.588011 
L 289.455069 226.33423 
L 289.811148 206.285143 
L 290.227704 194.780789 
L 290.347633 204.060308 
L 290.465879 191.964525 
L 290.883363 209.112102 
L 290.948755 201.848204 
L 291.225488 198.772861 
L 291.495528 184.123144 
L 291.679836 193.809671 
L 292.13465 201.354316 
L 292.194976 227.098276 
L 292.432576 205.451868 
L 292.730948 202.832723 
L 292.969282 194.669262 
L 293.207555 207.687891 
L 293.504983 208.388945 
L 293.689059 203.247314 
L 293.924229 202.692628 
L 294.221147 170.674312 
L 294.466574 201.092404 
L 294.698997 191.085496 
L 294.878318 203.815835 
L 295.173661 189.201671 
L 295.717231 218.930096 
L 295.948103 205.20734 
L 296.19442 205.514198 
L 296.426372 210.014296 
L 296.607631 205.826642 
L 296.961851 203.173546 
L 297.152314 206.639685 
L 297.438974 215.044287 
L 297.620443 207.565015 
L 297.929888 215.584259 
L 298.095365 192.334473 
L 298.335465 206.533629 
L 298.632709 198.389942 
L 298.870236 222.199879 
L 299.108436 186.775197 
L 299.60655 208.08997 
L 299.827215 204.708696 
L 300.182774 187.789648 
L 300.361705 193.37251 
L 300.600166 210.40869 
L 300.854175 214.537635 
L 301.079765 214.293805 
L 301.494049 221.071658 
L 301.613328 199.788216 
L 301.911255 228.585061 
L 302.09056 203.070849 
L 302.447614 215.073288 
L 302.626399 194.096399 
L 302.80676 233.813613 
L 303.043886 208.189257 
L 303.341324 199.420219 
L 303.54503 200.711661 
L 303.826118 204.22311 
L 304.119111 201.437354 
L 304.595673 213.845945 
L 304.95287 205.194984 
L 305.252232 203.766317 
L 305.548602 220.648188 
L 305.846457 199.997048 
L 306.02906 226.925636 
L 306.385283 224.380099 
L 306.562027 180.827437 
L 306.801509 211.770445 
L 306.996024 206.179504 
L 307.900046 211.77714 
L 308.067971 228.539029 
L 308.299126 186.772684 
L 308.537897 206.761426 
L 308.839248 205.235166 
L 309.086734 198.667397 
L 309.313549 211.452944 
L 309.455479 204.693592 
L 309.930311 218.064097 
L 310.001814 208.184602 
L 310.28921 215.752397 
L 310.527271 210.66388 
L 310.708003 209.732139 
L 311.063774 194.140967 
L 311.242711 214.975425 
L 311.611583 224.759116 
L 311.781527 207.591166 
L 312.017687 196.400284 
L 312.375319 225.762175 
L 312.732977 208.080384 
L 313.090224 204.354644 
L 313.212638 166.281732 
L 313.568273 157.303645 
L 314.58015 196.810592 
L 314.938888 184.917036 
L 315.237717 201.235328 
L 315.594079 202.710277 
L 315.682591 200.689959 
L 316.016983 195.655368 
L 316.33419 194.400394 
L 316.452034 211.141285 
L 316.695304 197.878866 
L 316.995565 212.653948 
L 317.110027 199.509653 
L 317.410895 204.33191 
L 317.763281 197.723253 
L 318.060545 197.898803 
L 318.180102 199.488654 
L 318.359189 195.764024 
L 318.718927 206.923594 
L 318.959086 206.165967 
L 319.49789 194.167752 
L 319.614865 199.219768 
L 319.910478 191.059657 
L 320.14826 198.616562 
L 320.328134 199.934731 
L 320.624731 203.209062 
L 320.864807 199.952834 
L 321.102007 209.042531 
L 321.340325 202.444463 
L 321.584298 201.061393 
L 321.878065 210.409786 
L 322.357206 200.447159 
L 322.592008 199.116155 
L 322.840479 200.416724 
L 323.070052 199.617997 
L 323.310491 199.682248 
L 323.548541 193.306084 
L 323.963903 193.927606 
L 324.083748 193.226793 
L 324.50419 195.993304 
L 324.569671 205.03742 
L 324.802157 199.960442 
L 325.098086 199.614443 
L 325.454334 200.879044 
L 325.633327 203.238916 
L 325.812051 199.441806 
L 326.051482 206.913257 
L 326.294583 205.34298 
L 326.530758 200.889524 
L 326.852363 203.843001 
L 327.242305 198.600295 
L 327.301953 201.35771 
L 327.540635 199.497658 
L 327.778986 200.070848 
L 328.256505 196.931218 
L 328.495475 206.6447 
L 328.794246 195.613793 
L 329.171816 200.27806 
L 329.275333 196.81129 
L 329.508337 193.521955 
L 329.745474 204.618068 
L 330.162941 199.896021 
L 330.282264 199.995432 
L 330.580948 200.082107 
L 330.761294 196.110719 
L 331.057073 199.250572 
L 331.312423 194.930605 
L 331.798258 202.162935 
L 332.018819 198.417314 
L 332.487919 199.290606 
L 332.725398 195.87555 
L 333.024265 200.127087 
L 333.267721 197.554565 
L 333.502737 196.696197 
L 333.741417 201.365647 
L 333.980504 199.537921 
L 334.226045 195.909383 
L 334.581092 203.602371 
L 335.022935 199.206942 
L 335.231468 199.48734 
L 335.709664 193.224616 
L 335.971918 195.198024 
L 336.184852 201.362077 
L 336.423478 201.901042 
L 336.663453 201.843094 
L 336.900926 198.002104 
L 337.317585 200.431985 
L 337.437428 202.250004 
L 337.736454 198.298393 
L 337.916816 199.957998 
L 338.161358 206.679068 
L 338.54477 196.114204 
L 338.658091 201.482676 
L 338.944233 199.896153 
L 338.991294 198.953834 
L 339.29103 206.651803 
L 339.410048 198.742406 
L 339.825811 199.710532 
L 339.945144 199.122095 
L 340.12328 199.918569 
L 340.421547 202.480647 
L 340.719728 194.554268 
L 340.898441 198.672283 
L 341.13678 200.453138 
L 341.375437 199.064764 
L 341.615004 201.921628 
L 341.917182 196.725688 
L 342.091832 196.551955 
L 342.390217 202.053063 
L 342.592547 200.529564 
L 342.865715 200.099189 
L 343.224194 194.278754 
L 343.364331 199.948354 
L 343.582206 199.960034 
L 343.819625 200.699914 
L 344.2367 199.449696 
L 344.355474 202.071265 
L 344.835051 197.742845 
L 345.073439 199.319741 
L 345.381281 198.37686 
L 345.609531 196.695577 
L 345.793405 203.776234 
L 346.084919 198.691806 
L 346.386542 198.747608 
L 346.623265 204.663251 
L 346.800697 196.839555 
L 347.046882 200.454203 
L 347.336523 201.846746 
L 347.633595 200.638249 
L 347.812551 198.908157 
L 348.051726 199.800573 
L 348.470912 200.727872 
L 348.531021 199.617872 
L 348.830156 199.755049 
L 349.025631 200.061821 
L 349.25029 196.667645 
L 349.603408 200.133325 
L 349.8421 200.00668 
L 350.139628 198.613063 
L 350.557034 208.614202 
L 350.855204 198.058004 
L 351.033535 198.75901 
L 351.272515 200.155347 
L 351.510253 207.03531 
L 351.86755 193.11658 
L 352.048182 200.936904 
L 352.34541 197.836273 
L 352.643325 200.760031 
L 352.763199 199.111227 
L 353.001631 193.813872 
L 353.358236 201.269671 
L 353.777296 200.461362 
L 354.192068 205.742484 
L 354.49016 196.417051 
L 354.729169 200.041445 
L 354.967142 199.31233 
L 355.26572 200.384038 
L 355.563366 199.952123 
L 355.691361 194.332193 
L 355.993376 199.912591 
L 356.230389 200.006609 
L 356.695564 193.893279 
L 357.11492 194.529944 
L 357.232346 201.644303 
L 357.414082 199.560902 
L 357.768024 200.422397 
L 358.067321 199.293437 
L 358.200121 197.52402 
L 358.619507 199.9654 
L 358.726755 196.9207 
L 358.964857 196.60484 
L 359.203431 200.784849 
L 359.448191 200.766343 
L 359.739861 199.862603 
L 359.918637 200.508826 
L 360.223373 198.299091 
L 360.464925 195.105293 
L 360.754514 205.803666 
L 360.876193 195.98963 
L 361.129106 199.303604 
L 361.415503 196.501803 
L 361.661674 200.206533 
L 361.887082 199.91986 
L 362.185637 198.738134 
L 362.424082 202.477988 
L 362.662654 200.363191 
L 362.950189 196.275882 
L 363.20353 206.821572 
L 363.423447 199.506756 
L 363.622003 200.80863 
L 363.916371 194.220723 
L 364.393153 199.723387 
L 364.630544 200.62111 
L 364.92917 198.978207 
L 365.107627 200.072007 
L 365.345698 199.00417 
L 365.643635 207.681404 
L 365.941582 200.398286 
L 366.120566 201.028892 
L 366.430486 194.404228 
L 366.661699 199.956659 
L 366.95586 199.939603 
L 367.137644 199.705195 
L 367.313284 198.966852 
L 367.613202 199.964795 
L 367.848153 196.92984 
L 368.164973 196.60546 
L 368.328014 201.317856 
L 368.629685 194.973649 
L 368.92628 199.969987 
L 369.113805 199.104635 
L 369.34484 199.568296 
L 369.529356 201.605008 
L 369.821758 201.33155 
L 370.240307 208.242903 
L 370.360723 197.833153 
L 370.778089 200.686593 
L 371.015218 199.452557 
L 371.312315 194.646813 
L 371.555098 199.008828 
L 371.789135 199.211375 
L 372.027824 200.37733 
L 372.325578 199.318547 
L 372.861574 195.575683 
L 373.397043 200.801865 
L 373.93445 194.014135 
L 373.993192 211.877276 
L 374.356468 200.905233 
L 374.64956 198.68008 
L 374.71244 199.25492 
L 375.080509 199.383464 
L 375.245909 200.550475 
L 375.486534 196.892506 
L 375.841426 200.447857 
L 376.021182 200.024343 
L 376.325316 197.176239 
L 376.501063 207.916995 
L 376.735908 200.873841 
L 377.275259 200.575912 
L 377.454122 193.192598 
L 377.691085 194.033112 
L 377.97089 201.081786 
L 378.467507 199.989266 
L 378.705786 200.02324 
L 379.003346 194.083689 
L 379.182787 200.121067 
L 379.541591 198.787887 
L 379.77876 203.549304 
L 379.957593 201.571249 
L 380.315476 200.845111 
L 380.43452 197.820572 
L 380.67377 198.173098 
L 380.971538 197.59837 
L 381.209422 200.257896 
L 381.566802 200.39827 
L 381.744983 199.451498 
L 382.170296 200.05079 
L 382.401177 202.457869 
L 382.640935 196.886241 
L 382.938268 201.254614 
L 383.116642 198.97212 
L 383.414778 200.370524 
L 383.653191 199.978345 
L 383.891272 195.419127 
L 384.130172 200.510819 
L 384.36784 201.449262 
L 385.141968 194.171176 
L 385.442062 199.715366 
L 385.737779 200.459465 
L 385.982328 204.399162 
L 386.154941 195.142083 
L 386.572481 200.118399 
L 386.633083 199.630046 
L 386.871953 199.189253 
L 387.288124 200.04381 
L 387.408358 193.048123 
L 387.704159 204.606638 
L 387.883735 199.450581 
L 388.12156 199.667387 
L 388.360572 194.560108 
L 388.83674 200.12969 
L 389.078696 200.916677 
L 389.373409 199.567508 
L 389.673069 200.026188 
L 389.731908 200.368555 
L 389.85151 199.934486 
L 390.209139 199.948847 
L 390.327434 197.122084 
L 390.566718 200.874892 
L 390.866233 208.243417 
L 391.578394 200.21882 
L 391.956832 200.164228 
L 392.061414 199.459661 
L 392.294363 203.112969 
L 392.534085 195.270275 
L 392.832412 198.504474 
L 393.014287 200.568604 
L 393.427847 194.518598 
L 393.65145 204.205237 
L 393.785792 200.824842 
L 394.023607 200.812463 
L 394.261973 200.305568 
L 394.507191 200.478472 
L 394.798172 200.958095 
L 395.156539 198.578338 
L 395.275553 195.251762 
L 395.574048 198.07628 
L 395.817442 198.881719 
L 396.050757 197.066528 
L 396.289007 199.082111 
L 396.468688 199.386604 
L 396.709418 200.605201 
L 397.006497 201.104 
L 397.24286 200.530722 
L 397.480824 195.932858 
L 397.839129 200.08074 
L 398.01748 198.298183 
L 398.255879 199.451085 
L 398.493969 194.597562 
L 398.732782 200.034069 
L 399.032184 200.403233 
L 399.38968 198.623753 
L 399.629341 198.42923 
L 399.867123 206.190449 
L 399.986143 195.996417 
L 400.464749 201.379491 
L 400.710246 197.359971 
L 401.000306 196.020593 
L 401.240795 200.815803 
L 401.476641 201.455752 
L 401.775515 199.268154 
L 401.955105 200.622602 
L 402.253688 207.625026 
L 402.431344 196.633342 
L 402.669635 200.454597 
L 402.908526 199.865302 
L 403.206332 198.33392 
L 403.397622 205.528567 
L 403.633589 200.266689 
L 403.922551 199.023096 
L 404.402506 201.193042 
L 404.641312 197.950819 
L 404.947887 206.643356 
L 405.175669 199.541219 
L 405.385104 200.988067 
L 405.65268 201.806246 
L 405.894417 207.506905 
L 406.132636 200.655132 
L 406.426561 200.849787 
L 406.667313 198.48172 
L 406.963223 199.507944 
L 407.144113 208.980366 
L 407.380891 207.683674 
L 407.619993 199.017587 
L 407.860801 199.713108 
L 408.217822 197.398349 
L 408.398363 208.734645 
L 408.636507 200.060137 
L 408.917998 199.833552 
L 409.234688 201.133054 
L 409.470635 196.0229 
L 409.589722 206.498622 
L 409.829013 207.29191 
L 410.126347 199.036563 
L 410.42592 199.404527 
L 410.606015 201.723567 
L 410.844374 197.817369 
L 411.143152 199.825027 
L 411.320402 199.180191 
L 411.619643 199.371824 
L 411.857209 201.998556 
L 412.096215 193.912081 
L 412.512689 199.94192 
L 412.58546 198.999827 
L 412.87158 200.186335 
L 413.062343 202.634593 
L 413.456757 195.768553 
L 413.584819 202.042225 
L 413.81476 200.0334 
L 414.11483 199.09427 
L 414.472681 199.335946 
L 414.533583 194.491875 
L 414.830286 201.259159 
L 415.068038 201.105484 
L 415.309724 200.292182 
L 415.559664 199.963678 
L 415.96323 201.26814 
L 416.023198 200.797137 
L 416.321581 201.425044 
L 416.563927 199.76388 
L 416.805148 203.15538 
L 417.002271 197.753112 
L 417.276707 203.123019 
L 417.756951 199.52271 
L 418.054464 198.838698 
L 418.471725 200.104381 
L 418.530943 199.475072 
L 418.770431 202.033352 
L 419.126668 200.397323 
L 419.305279 196.061022 
L 419.487583 196.245826 
L 419.724077 195.237495 
L 419.962564 199.602949 
L 420.281437 199.989393 
L 420.501517 199.384816 
L 420.738015 204.344986 
L 420.975057 199.672663 
L 421.214128 200.323747 
L 421.512226 199.650081 
L 421.693249 200.893233 
L 422.225812 202.161537 
L 422.234324 149.98982 
L 422.468961 200.701928 
L 422.825214 194.889715 
L 423.004989 196.900288 
L 423.252127 197.093386 
L 423.484338 200.621308 
L 423.840978 200.753537 
L 423.960579 196.532376 
L 424.145321 200.576291 
L 424.43705 201.697567 
L 424.675708 199.955613 
L 424.915208 200.354971 
L 425.155055 201.590966 
L 425.574673 208.240726 
L 425.629286 194.410888 
L 425.988437 199.671782 
L 426.172027 199.231871 
L 426.40654 200.004123 
L 426.64547 200.151233 
L 427.065099 199.812514 
L 427.190077 197.203035 
L 427.445399 200.532181 
L 427.659166 194.926994 
L 427.90644 195.603855 
L 427.958088 201.81102 
L 428.19698 204.399951 
L 428.436409 199.951352 
L 428.619145 201.70724 
L 428.8559 199.6375 
L 429.151322 199.879262 
L 429.628082 208.961924 
L 430.10485 193.30635 
L 430.344322 192.751721 
L 430.903823 200.135343 
L 431.121983 200.419071 
L 431.357652 272.589231 
L 431.597523 235.228831 
L 431.843497 231.75695 
L 432.095657 226.407523 
L 432.328044 216.225019 
L 432.561897 225.895886 
L 432.821237 213.849535 
L 433.156978 211.038434 
L 433.463552 198.137253 
L 433.87843 203.361653 
L 434.121676 187.057235 
L 434.414608 195.145413 
L 434.534949 193.17639 
L 434.776173 203.760417 
L 435.198864 185.808797 
L 435.318081 190.475446 
L 435.793016 198.881673 
L 436.163582 199.266853 
L 436.324342 188.826857 
L 436.627299 202.732329 
L 436.862153 199.936182 
L 437.100266 193.368477 
L 437.400723 207.043602 
L 437.640155 192.607285 
L 437.947846 210.027844 
L 438.091135 204.610053 
L 438.242412 208.761746 
L 438.507695 197.757203 
L 438.778576 196.170543 
L 439.093849 196.415396 
L 439.259491 188.752126 
L 439.609454 202.41823 
L 439.813723 195.310014 
L 440.027646 212.374631 
L 440.326857 202.455746 
L 440.505242 188.262503 
L 440.743769 198.550264 
L 440.985603 186.428263 
L 441.360449 195.1634 
L 441.460589 203.440347 
L 441.817555 194.972255 
L 441.996582 199.441904 
L 442.261655 196.249615 
L 442.476381 180.457709 
L 442.882088 209.863082 
L 443.119643 199.558062 
L 443.306995 198.358636 
L 443.537398 187.583653 
L 443.835364 196.594902 
L 444.01571 206.190021 
L 444.670741 189.874832 
L 444.792607 199.215777 
L 445.029606 205.374229 
L 445.21114 199.423552 
L 445.566243 197.948033 
L 445.69185 203.358193 
L 445.950184 194.985204 
L 446.223006 192.104463 
L 446.46149 201.210095 
L 446.703529 194.386518 
L 446.93948 181.601214 
L 447.182432 197.026999 
L 447.4174 187.895461 
L 447.656135 193.417228 
L 447.904892 203.792411 
L 448.138367 202.594012 
L 448.437338 194.228059 
L 448.91479 205.664459 
L 449.152725 206.15386 
L 449.392189 189.357121 
L 449.89612 199.162635 
L 450.16705 193.607159 
L 450.46407 203.682744 
L 450.761942 197.023768 
L 450.94209 206.76718 
L 451.180519 196.990227 
L 451.425902 194.544761 
L 451.658653 195.987398 
L 451.839194 198.483378 
L 452.326715 184.831863 
L 452.613173 197.456146 
L 452.864845 202.589314 
L 453.098099 197.374432 
L 453.469682 198.112408 
L 453.689602 191.449958 
L 453.809319 200.156901 
L 454.134366 203.023392 
L 454.345201 201.901058 
L 454.765606 194.127411 
L 454.847127 203.215889 
L 455.071869 205.230002 
L 455.300727 180.314368 
L 455.539853 204.514639 
L 455.961335 203.572269 
L 456.150748 200.645179 
L 456.387019 209.664194 
L 456.566905 192.835109 
L 456.984034 186.054602 
L 457.044693 197.183512 
L 457.462645 180.898833 
L 457.700957 197.175499 
L 457.762486 193.514601 
L 458.176246 194.645218 
L 458.295734 210.910611 
L 458.535771 197.328988 
L 458.772737 193.365536 
L 459.309275 196.407518 
L 459.548312 200.185788 
L 459.792529 194.198839 
L 459.846799 200.601931 
L 460.026983 194.497923 
L 460.264394 197.137026 
L 460.505547 197.236871 
L 460.801349 207.870965 
L 460.981197 197.014823 
L 461.300883 198.922455 
L 461.461133 204.305591 
L 461.759676 189.40248 
L 461.997667 194.588533 
L 462.240011 192.732811 
L 462.954361 209.35718 
L 463.252644 189.413916 
L 463.439137 195.313624 
L 463.848593 188.576272 
L 463.995751 190.789268 
L 464.210024 208.551567 
L 464.468285 198.96358 
L 464.68398 200.031882 
L 464.923343 203.929721 
L 465.170704 186.771881 
L 465.710789 199.131085 
L 466.009353 213.044098 
L 466.243917 193.292967 
L 466.483619 201.386702 
L 466.663185 199.888261 
L 466.961408 181.222817 
L 467.199234 193.372891 
L 467.597038 195.667708 
L 467.744427 194.745775 
L 467.921045 178.48484 
L 468.311702 192.293111 
L 468.454257 203.165475 
L 468.761166 190.122742 
L 468.931187 206.598245 
L 469.179483 192.350699 
L 469.542461 198.034531 
L 469.64942 201.77385 
L 469.893371 202.859954 
L 470.128335 194.258274 
L 470.435389 193.793286 
L 470.683137 194.920381 
L 470.906718 208.783863 
L 471.143739 189.705758 
L 471.389817 194.974504 
L 471.682015 208.242812 
L 471.865224 183.836091 
L 472.16172 195.380473 
L 472.636186 197.504743 
L 473.172886 190.653053 
L 473.400235 185.535671 
L 473.634969 194.802954 
L 473.868197 208.457929 
L 474.170263 193.165616 
L 474.354868 194.388869 
L 474.949827 188.089453 
L 475.125654 180.699466 
L 475.315542 200.541992 
L 475.601585 194.413452 
L 475.840459 177.596029 
L 476.079329 187.290775 
L 476.555932 194.113814 
L 476.795462 194.68746 
L 477.212458 193.430093 
L 477.361592 196.672163 
L 477.749946 193.763704 
L 477.868828 187.386414 
L 478.107403 188.898143 
L 478.345862 182.65562 
L 478.775738 193.092387 
L 479.035221 190.696971 
L 479.600228 189.214949 
L 479.798874 193.086523 
L 480.01865 185.349423 
L 480.259337 211.354964 
L 480.639147 196.225565 
L 480.797255 202.848886 
L 481.032858 186.312257 
L 481.30086 183.932593 
L 481.817167 201.925537 
L 482.112202 192.902614 
L 482.301583 193.052281 
L 482.54011 197.853394 
L 482.796157 193.052076 
L 483.087039 195.058513 
L 483.208624 184.314513 
L 483.500877 192.573335 
L 483.799178 208.052259 
L 484.097273 191.197581 
L 484.216787 195.44129 
L 484.514676 191.848943 
L 484.761105 183.689416 
L 485.008903 195.315057 
L 485.230884 198.46124 
L 485.470722 198.218422 
L 485.76882 199.805418 
L 486.007356 190.26978 
L 486.247979 194.289918 
L 486.483328 193.975405 
L 486.721699 183.893051 
L 486.961225 192.975312 
L 487.206514 196.61584 
L 487.440359 191.886753 
L 487.677248 193.522911 
L 488.214516 182.88499 
L 488.455338 190.293402 
L 488.751713 179.921975 
L 489.288177 207.294997 
L 489.540319 192.463985 
L 489.706772 197.210838 
L 490.005091 191.093494 
L 490.242896 200.002112 
L 490.481391 193.758123 
L 490.683853 196.766489 
L 490.899752 180.983609 
L 491.201618 178.358989 
L 491.494573 193.135102 
L 491.741352 189.319333 
L 491.913287 180.601066 
L 492.154206 204.55487 
L 492.390345 193.842582 
L 492.705805 193.582135 
L 492.884784 194.167501 
L 493.122928 188.954654 
L 493.601015 196.336915 
L 493.66099 193.496566 
L 493.95881 204.651812 
L 494.141209 194.199706 
L 494.380638 190.221691 
L 494.614303 190.166513 
L 494.912142 199.901765 
L 495.092642 199.050958 
L 495.391562 184.089632 
L 495.688062 191.847123 
L 495.866611 190.09065 
L 496.169394 177.090171 
L 496.407336 194.532369 
L 496.644163 187.525991 
L 497.122047 193.145232 
L 497.32743 190.480712 
L 497.602808 189.209798 
L 497.947291 181.878317 
L 498.144884 198.302648 
L 498.384535 185.743438 
L 498.621652 180.595863 
L 498.860584 201.711244 
L 499.099563 181.73084 
L 499.337413 192.960102 
L 499.576371 188.590774 
L 499.817608 175.122251 
L 500.113488 177.97416 
L 500.293182 203.577964 
L 500.609204 186.621396 
L 500.650281 192.447093 
L 500.829084 198.235083 
L 501.130331 191.610778 
L 501.425955 191.320714 
L 501.604394 199.172608 
L 502.142852 178.391937 
L 502.321119 202.153097 
L 502.565805 190.321423 
L 502.758604 188.852784 
L 503.051282 187.980145 
L 503.27591 174.690783 
L 503.515493 178.628186 
L 504.051407 192.809562 
L 504.229888 204.786191 
L 504.650095 188.800421 
L 504.707569 179.285355 
L 505.069486 180.875237 
L 505.311707 185.207231 
L 505.547959 183.310634 
L 505.78225 187.616099 
L 506.266043 179.79151 
L 506.569872 182.93111 
L 506.746757 192.032756 
L 506.993307 186.949493 
L 507.231373 197.724892 
L 507.708032 181.517272 
L 508.005894 189.017443 
L 508.190358 179.608208 
L 508.485193 181.251303 
L 508.787092 208.722039 
L 509.275368 173.227794 
L 509.921977 199.681815 
L 509.97473 181.272712 
L 510.21317 195.541968 
L 510.631246 190.462133 
L 510.691646 188.306398 
L 510.932276 174.229275 
L 511.427141 185.633255 
L 511.94593 187.022798 
L 512.202575 192.101559 
L 512.42372 180.430248 
L 512.662927 175.881171 
L 512.902669 199.657921 
L 513.214663 182.999551 
L 513.619081 193.702474 
L 513.68035 184.217657 
L 513.915563 192.469532 
L 514.571539 183.885366 
L 514.703169 198.435213 
L 514.890518 173.23054 
L 515.247869 209.997014 
L 515.690172 182.555553 
L 515.918439 181.358364 
L 516.15758 186.244376 
L 516.400242 181.434317 
L 516.762513 198.939938 
L 516.922212 183.981708 
L 517.159528 179.744964 
L 517.51651 186.380599 
L 517.702683 170.458867 
L 517.878201 185.585927 
L 518.173168 168.696657 
L 518.480489 191.218269 
L 518.653123 192.937763 
L 518.951708 190.79126 
L 519.725267 170.319932 
L 519.86004 181.914959 
L 520.141772 143.273459 
L 520.439599 130.506985 
L 520.621899 151.838739 
L 520.859464 143.235265 
L 521.115203 143.039253 
L 521.39507 146.560355 
L 521.637701 157.140056 
L 521.87368 158.008294 
L 522.117242 168.601021 
L 522.363738 172.870031 
L 522.65075 185.398918 
L 522.827932 187.561977 
L 523.266623 186.92496 
L 523.497826 183.437438 
L 523.843711 185.290888 
L 524.131034 182.91432 
L 524.380779 182.843119 
L 524.857058 181.130651 
L 524.9168 181.761048 
L 525.275559 182.050224 
L 525.403427 181.269839 
L 525.692727 181.646454 
L 525.814188 182.075 
L 526.316015 182.216765 
L 526.428741 181.999669 
L 526.596989 182.197304 
L 526.890514 181.935588 
L 527.008656 182.24231 
L 527.911085 182.247397 
L 528.28225 182.497299 
L 528.686391 182.277855 
L 528.92995 182.490754 
L 529.166701 182.453125 
L 529.284939 187.35799 
L 529.533417 182.176322 
L 529.890641 181.425771 
L 530.068147 181.448163 
L 530.247674 181.960613 
L 530.664454 182.092005 
L 530.905653 182.696998 
L 531.262127 181.47166 
L 531.439707 182.469354 
L 531.621121 182.490643 
L 531.88268 181.451459 
L 532.001118 182.189956 
L 532.708292 182.258285 
L 532.939696 182.475694 
L 533.23581 185.504627 
L 533.470149 179.318895 
L 533.72434 182.222927 
L 533.946454 182.259006 
L 534.245028 180.639772 
L 534.451003 181.467801 
L 534.720395 181.578471 
L 535.028561 182.581929 
L 535.260177 181.952331 
L 535.801994 182.090325 
L 536.216386 182.143288 
L 536.526316 182.394283 
L 536.938388 182.112095 
L 537.241818 182.352239 
L 537.57183 182.177499 
L 537.709664 181.930544 
L 537.923297 182.053849 
L 540.393637 182.176976 
L 540.636535 181.739205 
L 540.924843 182.198491 
L 542.376781 182.153712 
L 543.147255 182.234031 
L 543.625901 182.200308 
L 545.716345 182.214028 
L 551.264901 182.213389 
L 552.989968 182.212283 
L 556.23672 182.192693 
L 557.960614 182.195265 
L 568.905048 182.217244 
L 570.840372 182.207725 
L 572.327643 182.226022 
L 572.804311 182.203832 
L 574.30091 182.205202 
L 576.819632 182.211957 
L 578.309387 182.187962 
L 579.234913 182.208676 
L 582.031218 182.206706 
L 589.546397 182.225128 
L 589.612081 182.187754 
L 594.863145 182.212503 
L 596.26267 182.199069 
L 596.502813 182.211492 
L 596.502813 182.211492 
" clip-path="url(#p4f97d32dd7)" style="fill: none; stroke: #0000ff; stroke-opacity: 0.5; stroke-width: 1.5; stroke-linecap: square"/>
   </g>
   <g id="line2d_28">
    <path d="M 38.502813 24.528136 
L 38.622916 25.101755 
L 38.865804 23.249055 
L 38.937 24.525821 
L 39.111017 24.562996 
L 39.417061 23.741903 
L 39.707596 24.36773 
L 39.885883 23.613579 
L 40.541846 24.821736 
L 40.601545 23.909824 
L 41.018884 24.284921 
L 41.376814 24.167193 
L 41.559198 24.430809 
L 42.033407 24.058244 
L 42.091503 24.447298 
L 42.329583 24.954554 
L 42.628872 24.532051 
L 42.928055 24.407319 
L 43.164095 25.396177 
L 43.477718 23.986947 
L 43.581899 25.360581 
L 43.819883 24.115796 
L 44.060446 24.833842 
L 44.300935 24.782063 
L 44.599353 24.898755 
L 44.834047 24.513434 
L 45.371049 24.836846 
L 45.669985 24.539599 
L 45.857012 24.768646 
L 46.174796 23.92581 
L 46.328887 25.11353 
L 46.567049 24.004139 
L 46.805772 24.923417 
L 47.224756 23.612108 
L 47.405507 24.188794 
L 47.521373 23.343093 
L 48.003493 23.936137 
L 48.244165 23.145875 
L 48.536913 23.435038 
L 49.14069 23.139376 
L 50.441813 23.012094 
L 51.746796 23.615785 
L 53.050949 24.447837 
L 55.661121 23.296964 
L 57.085405 23.146672 
L 58.50861 23.754051 
L 59.813793 23.497598 
L 59.954398 23.863117 
L 60.191841 23.563156 
L 60.430319 23.598797 
L 60.669155 23.040185 
L 60.966191 23.188966 
L 61.265892 24.769636 
L 61.681905 23.146545 
L 61.866132 25.088887 
L 62.104406 23.954171 
L 62.404 23.629998 
L 62.638974 25.649344 
L 62.936269 24.532893 
L 63.11617 23.069036 
L 63.356366 23.977891 
L 63.652931 24.125304 
L 63.846691 23.422958 
L 64.130974 23.9952 
L 64.72558 23.008848 
L 64.844761 24.069943 
L 65.083776 22.110005 
L 65.323835 22.383659 
L 65.636208 24.342749 
L 66.108513 22.628644 
L 66.396826 23.978367 
L 66.578194 23.095116 
L 66.876601 22.943614 
L 66.934528 24.042977 
L 67.112748 24.553442 
L 67.414376 23.163873 
L 67.829178 24.7323 
L 68.125305 24.352304 
L 68.423426 24.339899 
L 68.602529 24.642569 
L 69.019997 26.857823 
L 69.616891 23.72507 
L 70.095651 25.90935 
L 70.338534 23.852654 
L 70.523348 23.733821 
L 70.817845 25.550003 
L 71.292681 24.333864 
L 71.413207 22.386818 
L 72.070236 24.161929 
L 72.364771 24.418512 
L 72.604817 23.098164 
L 72.782636 23.564604 
L 73.259107 24.26165 
L 73.442011 23.949344 
L 73.737273 23.854827 
L 73.796233 24.325427 
L 74.273425 24.809287 
L 74.512377 23.768964 
L 74.809776 23.512181 
L 75.10756 24.741302 
L 75.350039 24.382526 
L 75.534701 23.740146 
L 75.716732 24.12719 
L 75.763801 23.98193 
L 76.299771 24.369619 
L 76.479259 23.723002 
L 76.779836 23.356673 
L 77.014868 25.129257 
L 77.211656 24.802195 
L 77.492991 23.486635 
L 77.731123 24.951789 
L 78.028409 25.558244 
L 78.208334 23.880242 
L 78.445703 23.597212 
L 78.74416 23.967814 
L 78.984279 24.68548 
L 79.221395 24.886149 
L 79.46119 23.569884 
L 79.9365 24.686815 
L 80.48719 22.040863 
L 80.950854 25.156465 
L 81.192765 23.498103 
L 81.665653 22.605901 
L 81.785318 24.143281 
L 81.913099 24.002528 
L 82.151222 22.534837 
L 82.441028 24.096504 
L 82.620686 25.80398 
L 82.859406 25.097224 
L 83.215747 22.969092 
L 83.394399 23.304477 
L 83.632494 25.643229 
L 83.872614 25.57136 
L 84.109856 23.564336 
L 84.411018 24.218605 
L 84.706152 25.936547 
L 85.123897 23.537584 
L 85.361288 23.312995 
L 85.600003 23.920899 
L 86.207889 24.376079 
L 86.732011 25.664095 
L 87.090643 22.425725 
L 87.329041 23.260959 
L 87.865826 26.625939 
L 88.103508 25.95478 
L 88.586765 23.124068 
L 89.00022 23.406017 
L 89.118231 23.149493 
L 89.536432 23.710182 
L 90.012432 25.29052 
L 90.081212 24.487372 
L 90.548537 23.464631 
L 90.668047 23.488605 
L 91.144508 23.999923 
L 91.263784 23.884617 
L 91.681363 24.285039 
L 92.038568 23.636305 
L 92.336147 23.889578 
L 92.514883 24.391841 
L 92.754169 25.39819 
L 92.991265 25.48119 
L 93.289814 24.871552 
L 93.489754 23.605632 
L 93.826284 23.204862 
L 94.004867 24.331462 
L 94.305329 25.274408 
L 94.842115 21.548276 
L 95.019457 21.40854 
L 95.498953 23.174144 
L 95.89183 23.436382 
L 96.064357 24.120166 
L 96.454062 24.702381 
L 96.573099 24.507033 
L 96.69475 22.754458 
L 97.286052 26.154424 
L 97.48986 25.245019 
L 97.779913 22.91588 
L 98.063483 22.22069 
L 98.202731 23.789772 
L 98.47895 25.161732 
L 99.025598 23.247246 
L 99.325453 24.60289 
L 99.58166 25.01671 
L 99.795665 23.490556 
L 100.391 22.62628 
L 100.526244 24.953819 
L 101.868401 24.789022 
L 103.165642 24.360175 
L 104.594361 24.569379 
L 104.673559 27.138811 
L 104.853311 28.199036 
L 105.454112 25.638097 
L 105.687883 23.932927 
L 106.066219 22.882362 
L 106.305417 23.675414 
L 106.42681 25.172186 
L 106.688645 26.179803 
L 106.855494 25.853092 
L 107.688168 21.287776 
L 107.864974 21.221496 
L 108.164534 23.13557 
L 108.347806 25.479953 
L 108.640473 27.003488 
L 108.902733 26.122745 
L 109.117895 23.718202 
L 109.477366 21.716704 
L 109.596272 21.867876 
L 110.375788 27.697909 
L 110.554204 26.782513 
L 111.052094 22.419629 
L 111.29097 22.401587 
L 111.577019 24.37826 
L 111.812008 24.946029 
L 112.049728 23.597197 
L 112.530576 20.434758 
L 113.325136 22.52147 
L 113.421862 23.690903 
L 113.541144 23.766171 
L 113.788285 22.978927 
L 114.093357 22.594237 
L 114.540544 27.331597 
L 114.883064 28.244426 
L 115.313819 24.756128 
L 115.937099 23.585746 
L 116.216076 26.291721 
L 116.30385 26.409234 
L 116.475791 25.054747 
L 116.782905 24.414446 
L 117.130896 24.342597 
L 117.249404 23.938652 
L 117.487743 24.08163 
L 117.726095 24.417933 
L 118.024139 24.617213 
L 118.206256 24.198985 
L 118.450471 23.131703 
L 118.756347 22.398866 
L 118.928024 22.798756 
L 119.289499 22.971543 
L 119.523478 21.896792 
L 119.821194 21.139701 
L 119.945178 22.231283 
L 120.298612 24.147478 
L 120.606507 23.730033 
L 120.715903 21.567866 
L 120.9231 21.597584 
L 121.194101 24.048287 
L 121.433386 25.187258 
L 121.912267 22.448306 
L 122.149815 22.601931 
L 122.624796 22.402213 
L 122.690525 21.644988 
L 122.935962 22.81357 
L 123.160922 25.251386 
L 123.589311 25.909849 
L 123.69748 23.86621 
L 123.995428 23.259819 
L 124.35569 25.455323 
L 124.650229 25.339798 
L 125.13009 26.754657 
L 125.427231 26.251707 
L 125.857602 23.452103 
L 126.390896 25.525806 
L 126.86069 24.973567 
L 127.101098 25.520334 
L 127.397474 25.731456 
L 127.755155 25.317678 
L 127.874394 24.371186 
L 128.11266 23.665219 
L 128.470607 23.76827 
L 128.590202 23.997403 
L 129.721296 23.371766 
L 129.844012 22.997064 
L 130.080965 23.501925 
L 130.318908 24.393301 
L 130.556998 24.778885 
L 130.795082 24.577923 
L 131.094146 23.72618 
L 131.390373 23.603272 
L 131.570561 23.679432 
L 131.809921 23.910801 
L 132.070999 23.583859 
L 132.288655 23.018849 
L 132.530023 22.796786 
L 132.778446 22.102318 
L 133.080422 21.608768 
L 133.599891 24.510244 
L 134.048442 21.671333 
L 134.27389 22.457288 
L 134.511673 24.748284 
L 134.752536 25.545204 
L 134.988169 23.70338 
L 135.299799 22.845713 
L 135.762344 25.817748 
L 136.299914 23.588608 
L 136.537647 24.481528 
L 136.897409 25.381115 
L 137.144696 24.195754 
L 137.496099 22.229467 
L 137.729921 23.169516 
L 138.031643 23.838286 
L 138.462756 22.411537 
L 138.821519 22.780823 
L 139.04073 23.704611 
L 139.34128 23.764902 
L 139.518495 24.234297 
L 140.475957 24.274025 
L 140.727123 24.868937 
L 141.192054 28.558771 
L 141.683584 27.467249 
L 141.74323 24.978769 
L 141.924188 23.319988 
L 142.220316 23.769805 
L 142.698106 26.234773 
L 142.935384 25.548543 
L 143.657606 20.336756 
L 144.128735 21.929441 
L 144.426045 25.006384 
L 144.665021 24.1082 
L 145.147247 21.439067 
L 145.379375 22.104847 
L 145.679051 24.044486 
L 146.042843 25.60781 
L 146.696415 20.996111 
L 147.407001 25.358816 
L 147.88237 23.450007 
L 148.299554 23.034604 
L 148.598417 24.941792 
L 149.076012 24.775292 
L 149.373331 24.3757 
L 149.613249 24.843369 
L 150.029772 26.349492 
L 150.089694 28.010414 
L 150.446581 27.663347 
L 150.565971 25.639487 
L 150.92311 23.966289 
L 151.703 26.757932 
L 152.113476 23.413174 
L 152.351803 22.855677 
L 152.832111 24.164621 
L 152.888581 25.228956 
L 153.188565 26.319204 
L 153.54568 23.555313 
L 153.920396 22.698473 
L 154.319251 26.22393 
L 154.617256 25.579386 
L 155.03402 21.756012 
L 155.333455 20.755011 
L 155.572779 21.351358 
L 155.93189 23.635506 
L 156.054561 25.793582 
L 156.288871 25.950599 
L 156.824695 22.015396 
L 157.062934 22.094414 
L 157.720275 26.72665 
L 158.075811 26.511634 
L 158.732951 21.883546 
L 159.028959 23.660018 
L 159.50687 27.733889 
L 159.80937 27.495945 
L 160.222772 23.214285 
L 160.639178 22.415958 
L 161.002186 26.158382 
L 161.236001 26.309041 
L 161.716034 21.870317 
L 161.964836 21.082935 
L 162.194991 21.701274 
L 162.728429 25.871813 
L 162.970124 25.916261 
L 163.449507 22.15247 
L 163.682554 22.473686 
L 164.170702 26.366544 
L 164.397251 25.435318 
L 164.99298 24.335839 
L 165.232577 24.677212 
L 165.64954 27.642244 
L 165.889046 27.522094 
L 166.126682 26.289141 
L 166.482576 25.094777 
L 166.661225 25.717578 
L 166.89949 26.973902 
L 167.197831 26.36775 
L 167.436563 24.077939 
L 167.735563 22.889408 
L 167.91455 22.775953 
L 168.391427 23.192367 
L 168.867709 22.878231 
L 169.165479 23.111843 
L 169.881582 24.189293 
L 170.359222 23.091285 
L 170.598518 23.538222 
L 170.837969 24.264941 
L 171.25828 24.450291 
L 171.432118 23.983407 
L 171.900581 23.691819 
L 172.386262 23.799764 
L 172.569875 24.819419 
L 172.835447 25.293055 
L 173.339268 23.213465 
L 173.707388 23.729641 
L 173.81777 25.248044 
L 174.158309 24.305648 
L 174.177757 23.083736 
L 174.314587 22.098992 
L 174.535783 22.724899 
L 175.073934 25.243523 
L 175.54851 21.692592 
L 175.787124 22.426999 
L 176.085682 24.024322 
L 176.579702 22.694407 
L 177.049623 25.731604 
L 177.336715 24.653653 
L 177.755713 22.256533 
L 178.11115 23.256072 
L 178.352257 24.48506 
L 178.528778 24.50107 
L 179.02236 24.250113 
L 179.243954 21.849297 
L 179.542117 20.038363 
L 179.959799 19.786648 
L 180.199819 21.854168 
L 180.334683 24.312338 
L 180.554724 24.416382 
L 180.764952 22.354968 
L 181.004126 21.560906 
L 181.475653 23.966758 
L 181.716775 24.214762 
L 181.952198 24.076216 
L 182.668141 25.36258 
L 183.210217 23.209823 
L 183.468223 22.838429 
L 183.706024 22.805024 
L 184.243069 24.607575 
L 184.480842 24.298477 
L 184.866663 23.259129 
L 184.96201 22.360514 
L 185.214305 23.339793 
L 185.456212 25.39668 
L 185.79372 27.091533 
L 186.210739 24.166737 
L 186.450096 23.767516 
L 186.926212 26.478246 
L 187.521698 25.165125 
L 187.761895 24.617418 
L 187.93929 24.53402 
L 188.237062 23.763733 
L 188.475599 23.516418 
L 189.131074 23.56824 
L 189.608368 23.996978 
L 189.845677 24.516698 
L 190.38336 20.368827 
L 190.679785 21.513303 
L 190.869436 23.755877 
L 191.157601 24.2215 
L 191.639823 20.037497 
L 191.946866 19.352591 
L 192.595026 25.036815 
L 192.83502 24.854846 
L 193.072666 23.154723 
L 193.31546 22.512479 
L 193.905827 26.294152 
L 194.087116 26.133031 
L 194.621423 24.805095 
L 194.919455 24.579476 
L 195.159734 23.277276 
L 195.454674 23.17405 
L 195.574242 24.673743 
L 195.812728 25.066245 
L 196.050762 23.024741 
L 196.348274 22.451062 
L 196.532194 24.248859 
L 196.824916 24.514996 
L 197.066503 22.990293 
L 197.302744 22.252382 
L 197.540668 23.857771 
L 197.783126 24.305877 
L 198.021222 22.717222 
L 198.278285 22.053663 
L 198.614978 23.87637 
L 198.857745 22.894251 
L 199.035959 21.163909 
L 199.627167 24.588466 
L 200.037406 21.203658 
L 200.288499 20.889474 
L 200.523074 22.85277 
L 200.76342 23.006593 
L 201.023906 20.931537 
L 201.252764 21.49716 
L 201.602062 23.610972 
L 201.781853 23.889396 
L 202.258451 22.106187 
L 202.615346 22.244364 
L 202.734673 22.774887 
L 202.977069 23.083882 
L 203.568616 23.050614 
L 203.986273 22.51886 
L 204.347506 22.629908 
L 204.819721 23.440596 
L 205.059555 23.511574 
L 205.475165 20.353075 
L 205.723048 20.256724 
L 206.192034 22.302877 
L 206.452348 22.06526 
L 206.78839 19.672992 
L 207.086054 20.503894 
L 207.443269 24.89355 
L 207.682274 25.347152 
L 207.922916 25.199882 
L 208.578156 25.644257 
L 208.70586 25.068466 
L 208.935203 25.23242 
L 209.172823 25.834058 
L 209.600943 26.006681 
L 209.830821 25.362913 
L 209.950317 23.638462 
L 210.189594 23.414403 
L 210.663532 25.188652 
L 210.903374 25.094657 
L 211.140394 25.741885 
L 211.378598 25.599256 
L 211.874719 23.377842 
L 212.333313 23.448261 
L 212.393738 25.524223 
L 212.631154 27.858007 
L 212.870117 28.617633 
L 213.168289 27.348293 
L 213.644553 23.445123 
L 214.359272 26.794994 
L 214.60033 27.218684 
L 214.837813 26.304765 
L 215.37507 22.280048 
L 215.554742 21.611778 
L 215.851328 23.062165 
L 216.089667 25.517382 
L 216.389104 26.748454 
L 216.58001 26.03352 
L 217.102957 21.388966 
L 217.400525 20.637902 
L 217.639634 21.711085 
L 218.294893 26.979751 
L 218.593264 27.043167 
L 218.776973 26.896466 
L 219.30768 26.981772 
L 219.551399 27.157746 
L 219.799306 25.861479 
L 220.32987 22.345355 
L 220.62314 21.287752 
L 220.8622 21.079386 
L 221.162767 20.538893 
L 221.515496 17.792264 
L 221.99322 17.664488 
L 222.055181 17.814262 
L 222.292144 18.78685 
L 223.006647 23.466431 
L 223.732051 20.617678 
L 224.048213 21.061976 
L 224.26118 21.145112 
L 224.498476 20.043842 
L 224.976617 14.298729 
L 225.513956 7.193726 
L 225.75103 6.050769 
L 225.988789 7.048054 
L 226.525541 14.170873 
L 227.184451 31.076937 
L 227.956897 45.266817 
L 228.194151 46.567219 
L 228.491933 46.632182 
L 228.972776 44.530522 
L 229.211707 43.351209 
L 229.507621 44.555246 
L 229.998628 49.896873 
L 230.408796 52.993592 
L 231.242363 56.227831 
L 231.663719 59.286187 
L 232.136825 59.741967 
L 232.316057 58.61486 
L 232.434509 57.124877 
L 232.915984 57.550693 
L 234.163673 66.201934 
L 234.638675 68.719421 
L 235.11598 73.635055 
L 235.72695 75.575217 
L 235.906757 75.259254 
L 236.084479 74.720121 
L 236.384217 74.987105 
L 236.621287 76.365559 
L 237.157824 81.082981 
L 237.395703 81.937287 
L 237.695023 82.267888 
L 237.874902 81.95567 
L 238.290534 83.82587 
L 238.589264 87.166672 
L 238.828455 87.812437 
L 239.305311 85.253921 
L 239.549082 84.076983 
L 239.840779 84.009403 
L 240.023237 84.823796 
L 240.614551 89.834023 
L 240.793797 90.914212 
L 241.151839 92.172776 
L 241.389884 92.03934 
L 241.569338 91.592645 
L 241.806632 92.113184 
L 242.641746 97.574765 
L 242.939843 98.7918 
L 243.118815 98.553923 
L 243.539421 97.640426 
L 243.836562 101.267015 
L 244.253567 108.72905 
L 244.531837 110.509715 
L 244.760099 110.778334 
L 244.998784 110.37197 
L 245.503869 112.113905 
L 245.741822 115.539912 
L 246.202726 118.010908 
L 246.337942 117.694507 
L 246.460816 115.946877 
L 246.754794 115.463881 
L 246.994239 115.912223 
L 247.232263 117.414935 
L 247.469526 120.147039 
L 247.708076 120.991571 
L 248.125328 120.94842 
L 248.363697 119.789036 
L 248.543255 119.650244 
L 248.848689 121.536421 
L 249.218981 126.216738 
L 249.530817 127.191656 
L 249.796994 126.614843 
L 249.91722 123.673282 
L 250.176782 122.060816 
L 250.454559 122.949229 
L 251.466717 133.985791 
L 252.243865 131.516837 
L 252.425758 131.62241 
L 253.137428 135.932263 
L 253.437262 136.832532 
L 253.732822 136.676438 
L 253.912799 134.858058 
L 254.151034 134.727664 
L 254.390353 136.471918 
L 254.866171 142.888737 
L 255.283195 145.647724 
L 255.64118 146.303754 
L 255.879236 140.685049 
L 256.118256 139.293839 
L 257.134596 144.579757 
L 257.61066 147.18505 
L 258.577231 156.656713 
L 258.859825 156.543399 
L 259.158214 156.575254 
L 259.487917 156.101626 
L 259.730147 156.970218 
L 260.173233 160.91141 
L 260.294447 161.158587 
L 260.591149 162.591546 
L 261.322962 168.51365 
L 261.602805 171.59989 
L 261.975746 173.286996 
L 262.086563 172.811161 
L 262.328785 172.896365 
L 263.151773 174.21435 
L 263.330837 173.540645 
L 263.7477 174.27387 
L 263.866901 173.947054 
L 265.058864 181.006434 
L 265.299527 182.902791 
L 265.714773 183.837765 
L 265.955612 183.680267 
L 266.191948 184.346007 
L 266.252174 184.011233 
L 266.48981 184.659657 
L 267.324829 190.003254 
L 267.563622 188.179636 
L 267.759853 185.590936 
L 268.099501 185.435264 
L 268.338011 185.916742 
L 268.532791 187.864671 
L 269.017167 194.783378 
L 269.233644 194.965103 
L 269.887378 192.581318 
L 270.125731 191.303843 
L 270.245132 191.630418 
L 270.661966 195.792189 
L 270.723 199.187555 
L 270.960397 200.629974 
L 271.318588 200.385958 
L 271.561653 198.646543 
L 271.735812 196.57668 
L 271.975033 196.686179 
L 272.273994 199.569601 
L 272.454512 202.875734 
L 272.689423 204.17704 
L 272.927961 203.014249 
L 273.17533 200.957444 
L 273.643316 199.980275 
L 273.969451 202.851183 
L 274.219372 207.317952 
L 274.845561 212.682358 
L 275.313574 212.585876 
L 275.437851 211.28594 
L 275.791628 211.923322 
L 276.20821 215.578721 
L 276.812326 214.188794 
L 277.049078 211.60574 
L 277.162083 208.72974 
L 277.590469 209.558217 
L 278.12053 214.508919 
L 278.475781 212.755831 
L 278.624491 208.815514 
L 278.955747 206.609534 
L 279.193852 206.206273 
L 279.431173 209.570975 
L 279.612332 214.131882 
L 280.086959 218.973019 
L 280.623809 220.253618 
L 280.980465 222.082968 
L 281.594071 227.557301 
L 281.873928 224.943374 
L 282.351481 216.315784 
L 282.533731 213.420107 
L 282.828435 214.766246 
L 283.306338 223.004819 
L 283.66432 224.188066 
L 283.961917 222.619363 
L 284.088847 219.545478 
L 284.319934 218.264128 
L 284.563335 220.03201 
L 285.276257 231.773669 
L 285.690436 230.553721 
L 285.810779 226.428928 
L 286.048783 223.954137 
L 286.292195 224.459955 
L 287.007247 233.059334 
L 287.262421 232.088435 
L 287.484106 229.142299 
L 287.84259 227.688679 
L 288.024509 223.880561 
L 288.259375 225.2952 
L 288.736219 234.450331 
L 289.035046 236.567926 
L 289.24077 235.563514 
L 289.455069 233.194787 
L 289.811148 231.808718 
L 290.227704 232.724018 
L 290.465879 235.516548 
L 290.883363 236.078976 
L 290.948755 233.784715 
L 291.225488 231.15686 
L 291.495528 231.010677 
L 292.13465 238.707403 
L 292.194976 241.674403 
L 292.432576 241.302533 
L 292.969282 237.707619 
L 293.207555 238.741504 
L 293.504983 241.689382 
L 293.689059 245.492706 
L 293.924229 247.308309 
L 294.221147 245.434271 
L 294.698997 236.537221 
L 294.878318 235.509178 
L 295.173661 239.033305 
L 295.717231 247.833222 
L 295.948103 247.748073 
L 296.607631 235.993184 
L 296.961851 237.838472 
L 297.438974 247.230067 
L 297.620443 249.206205 
L 297.929888 247.822908 
L 298.335465 240.319793 
L 298.632709 239.877407 
L 298.870236 243.469091 
L 299.108436 249.775557 
L 299.60655 253.855432 
L 299.827215 248.976565 
L 300.361705 241.552197 
L 300.600166 242.140603 
L 301.079765 250.354959 
L 301.494049 251.451873 
L 301.613328 248.079724 
L 301.911255 245.231033 
L 302.09056 245.043162 
L 302.447614 249.180714 
L 302.80676 257.148671 
L 303.043886 255.823484 
L 303.341324 251.33263 
L 303.54503 245.770269 
L 303.826118 243.289336 
L 304.119111 244.516735 
L 304.595673 252.692304 
L 304.95287 252.584855 
L 305.252232 248.740205 
L 305.31073 243.688154 
L 305.548602 242.228051 
L 305.846457 245.289892 
L 306.02906 250.49908 
L 306.385283 255.586322 
L 306.562027 255.312763 
L 306.996024 246.140463 
L 307.281744 244.527952 
L 307.656728 247.234466 
L 308.299126 262.303607 
L 309.086734 250.663979 
L 309.313549 250.329887 
L 309.930311 254.867416 
L 310.001814 252.702538 
L 310.708003 239.809928 
L 311.063774 243.274565 
L 311.242711 249.125166 
L 311.781527 260.071681 
L 312.017687 259.207185 
L 312.501747 255.937555 
L 313.090224 263.367443 
L 313.212638 266.0003 
L 313.568273 264.755222 
L 313.805492 260.102127 
L 314.235778 247.110162 
L 314.701814 241.548355 
L 314.938888 241.570751 
L 315.237717 241.981862 
L 315.594079 241.372497 
L 315.682591 240.342842 
L 316.016983 238.797255 
L 316.33419 235.47983 
L 316.452034 232.907686 
L 316.695304 232.54412 
L 316.995565 234.930789 
L 317.110027 238.303179 
L 317.410895 239.023258 
L 317.763281 236.279601 
L 318.060545 230.213455 
L 318.180102 223.882407 
L 318.359189 220.78364 
L 318.718927 222.645172 
L 319.194803 230.811486 
L 319.49789 231.407151 
L 319.614865 228.462545 
L 320.14826 220.593068 
L 320.328134 220.550636 
L 320.624731 223.902083 
L 321.102007 231.126886 
L 321.340325 232.262453 
L 321.878065 230.535733 
L 322.117615 231.045265 
L 322.357206 234.653493 
L 322.840479 244.929081 
L 323.070052 246.225765 
L 323.310491 244.478336 
L 323.548541 240.616843 
L 323.963903 236.614313 
L 324.083748 234.085818 
L 324.50419 233.579556 
L 324.569671 234.521911 
L 324.802157 235.050149 
L 325.098086 234.254402 
L 325.454334 232.631092 
L 325.812051 230.548542 
L 326.294583 232.857789 
L 326.530758 234.278761 
L 326.852363 234.888494 
L 327.242305 233.972395 
L 327.301953 232.91857 
L 327.540635 232.212767 
L 327.778986 232.172053 
L 328.020226 233.066643 
L 328.794246 238.45645 
L 329.171816 239.485838 
L 329.508337 241.549019 
L 329.745474 242.051752 
L 330.162941 241.869185 
L 330.282264 241.122244 
L 330.580948 240.208968 
L 331.312423 234.924627 
L 332.018819 231.18164 
L 332.248663 230.088224 
L 332.487919 229.503408 
L 332.725398 230.113982 
L 333.024265 231.601192 
L 333.980504 239.694022 
L 335.231468 248.425206 
L 335.469651 248.773268 
L 336.184852 248.646574 
L 336.423478 249.071173 
L 336.663453 249.209016 
L 337.317585 248.018237 
L 337.437428 247.313602 
L 337.916816 246.376996 
L 338.161358 246.274977 
L 338.54477 246.366428 
L 338.658091 246.201564 
L 339.825811 242.032544 
L 340.12328 238.169154 
L 340.421547 236.179953 
L 341.13678 233.611713 
L 341.615004 233.247035 
L 341.917182 233.416603 
L 342.390217 235.004408 
L 342.865715 239.209306 
L 343.364331 241.093585 
L 343.582206 240.999916 
L 344.2367 239.856853 
L 344.355474 238.547614 
L 344.654162 237.331354 
L 345.381281 232.010823 
L 345.609531 231.202541 
L 345.793405 231.298857 
L 346.386542 232.232503 
L 346.623265 231.811202 
L 346.800697 231.131718 
L 347.046882 231.195807 
L 347.633595 235.849575 
L 347.812551 237.528519 
L 348.051726 236.907304 
L 348.470912 234.565343 
L 348.531021 232.628388 
L 348.830156 231.735492 
L 349.025631 232.475969 
L 349.25029 234.523343 
L 349.603408 236.192283 
L 349.8421 235.502711 
L 350.139628 232.920114 
L 350.26536 230.551877 
L 350.557034 230.05149 
L 350.855204 232.03064 
L 351.033535 234.645613 
L 351.272515 235.761276 
L 351.332358 236.959822 
L 351.510253 237.895679 
L 351.86755 237.399273 
L 352.048182 235.477649 
L 352.34541 234.117449 
L 352.643325 234.099614 
L 352.763199 235.604237 
L 353.001631 237.028581 
L 353.358236 236.191773 
L 353.656081 233.562584 
L 353.777296 230.831402 
L 354.26785 228.100369 
L 354.49016 228.884147 
L 355.26572 234.267793 
L 355.563366 234.042011 
L 355.691361 233.238928 
L 355.993376 233.37866 
L 356.230389 233.906873 
L 357.232346 237.069056 
L 358.067321 232.29036 
L 358.200121 234.060506 
L 358.726755 236.546429 
L 359.203431 235.051829 
L 359.448191 235.30805 
L 359.739861 235.360334 
L 359.918637 234.495808 
L 360.223373 234.262691 
L 360.464925 234.589105 
L 360.754514 234.633683 
L 361.415503 236.941554 
L 361.661674 236.274356 
L 361.887082 233.979481 
L 362.185637 232.429375 
L 362.424082 233.471686 
L 362.662654 235.905332 
L 362.950189 236.721762 
L 363.622003 231.448995 
L 364.393153 234.52801 
L 364.92917 232.727109 
L 365.107627 232.415322 
L 365.345698 233.352089 
L 365.643635 235.103741 
L 365.941582 235.608617 
L 366.430486 232.553185 
L 366.661699 232.860578 
L 367.313284 237.30676 
L 367.848153 232.949566 
L 368.164973 232.785925 
L 368.328014 234.136929 
L 368.629685 234.971823 
L 368.92628 234.195795 
L 369.34484 231.34626 
L 369.529356 231.710997 
L 369.821758 233.084376 
L 370.240307 233.809705 
L 370.360723 234.295549 
L 370.716213 234.908344 
L 370.778089 234.519016 
L 371.015218 233.895712 
L 371.312315 233.796989 
L 371.555098 233.520023 
L 372.027824 232.37455 
L 372.325578 232.328518 
L 372.572937 234.22571 
L 372.861574 234.850278 
L 373.397043 231.393348 
L 373.518933 232.962042 
L 373.93445 235.341815 
L 373.993192 237.603655 
L 374.356468 238.227267 
L 374.64956 236.737836 
L 374.71244 234.541543 
L 375.080509 232.403974 
L 375.245909 233.112301 
L 375.486534 235.776363 
L 375.841426 237.807927 
L 376.021182 237.699799 
L 376.325316 235.470663 
L 376.501063 233.033054 
L 376.735908 232.588315 
L 377.154139 234.471735 
L 377.275259 237.169225 
L 377.454122 237.962537 
L 377.97089 234.055415 
L 378.228234 233.92439 
L 378.467507 234.197272 
L 378.705786 234.798354 
L 379.182787 235.457546 
L 379.541591 235.452031 
L 379.957593 234.142433 
L 380.315476 233.87652 
L 380.67377 231.104252 
L 380.971538 231.138216 
L 381.566802 234.879121 
L 381.744983 235.325693 
L 382.401177 231.420407 
L 383.116642 237.642413 
L 383.414778 236.562543 
L 383.891272 231.769874 
L 384.130172 230.82014 
L 384.36784 232.573874 
L 384.608478 235.27792 
L 385.024513 236.674861 
L 385.442062 232.844918 
L 385.737779 231.782102 
L 385.982328 233.118327 
L 386.154941 235.608176 
L 386.633083 237.779249 
L 387.408358 231.500613 
L 387.704159 232.313677 
L 387.883735 234.452705 
L 388.12156 235.700522 
L 388.360572 234.609211 
L 389.078696 229.421596 
L 389.673069 233.335218 
L 389.85151 235.410698 
L 390.209139 236.551905 
L 390.327434 235.799148 
L 390.566718 233.474469 
L 390.866233 232.264633 
L 391.283443 232.20096 
L 391.578394 232.326685 
L 391.956832 231.422003 
L 392.061414 230.508567 
L 392.294363 230.318532 
L 392.534085 230.459049 
L 392.775135 230.818655 
L 393.014287 232.329135 
L 393.65145 233.023273 
L 394.507191 232.532291 
L 394.798172 232.014591 
L 395.275553 231.545407 
L 395.817442 230.528298 
L 396.050757 230.680227 
L 396.289007 231.802618 
L 396.709418 234.738135 
L 397.24286 236.709206 
L 397.480824 236.831987 
L 397.839129 236.718116 
L 398.493969 240.077186 
L 398.732782 239.693117 
L 399.032184 238.270511 
L 399.38968 235.962058 
L 400.224723 228.249507 
L 400.464749 228.046581 
L 400.710246 228.105312 
L 401.000306 228.920882 
L 401.476641 232.773561 
L 402.253688 237.903935 
L 402.431344 237.843885 
L 402.669635 236.88882 
L 402.908526 235.333267 
L 403.162416 234.418352 
L 403.206332 234.593502 
L 403.397622 234.173025 
L 403.633589 234.0577 
L 403.922551 234.063814 
L 404.188901 234.399108 
L 404.402506 234.033623 
L 404.641312 233.146999 
L 404.947887 232.917845 
L 405.175669 233.545778 
L 405.65268 235.503953 
L 405.894417 235.88646 
L 406.132636 235.863311 
L 406.426561 236.030947 
L 406.667313 235.940082 
L 406.963223 236.525915 
L 407.380891 238.960297 
L 407.619993 239.088681 
L 408.398363 234.407602 
L 409.234688 228.949961 
L 409.470635 227.897728 
L 410.606015 232.94463 
L 410.844374 232.785673 
L 411.320402 231.868438 
L 411.619643 232.054234 
L 411.857209 231.852334 
L 412.096215 230.894395 
L 412.512689 230.573735 
L 413.062343 235.027012 
L 413.456757 236.735242 
L 413.584819 238.600607 
L 413.81476 240.240604 
L 414.533583 242.305021 
L 414.830286 240.925427 
L 415.559664 233.190518 
L 415.96323 232.455595 
L 416.023198 231.910215 
L 416.321581 231.238681 
L 416.563927 231.620966 
L 416.805148 232.282098 
L 417.276707 235.44026 
L 417.756951 236.716058 
L 418.054464 236.670384 
L 418.530943 236.026997 
L 418.770431 236.708276 
L 419.126668 236.765057 
L 419.487583 236.071209 
L 419.962564 234.982583 
L 420.281437 234.625723 
L 420.501517 234.74115 
L 421.214128 236.197947 
L 421.512226 236.445485 
L 422.225812 235.155324 
L 422.234324 233.889834 
L 422.468961 232.992095 
L 422.825214 233.157947 
L 423.252127 233.696327 
L 423.484338 233.872576 
L 423.960579 233.684433 
L 424.43705 235.491846 
L 424.915208 237.923065 
L 425.574673 238.372726 
L 425.629286 238.82566 
L 425.988437 239.326087 
L 426.172027 239.794267 
L 426.40654 239.803798 
L 427.065099 238.075472 
L 427.190077 236.800665 
L 427.90644 235.142146 
L 427.958088 234.393029 
L 428.19698 233.035094 
L 428.8559 226.686557 
L 429.151322 226.392918 
L 429.39598 227.187538 
L 430.344322 234.503914 
L 430.774626 235.290499 
L 431.121983 236.536558 
L 431.357652 236.499341 
L 431.597523 235.598567 
L 431.843497 235.817285 
L 432.095657 238.468989 
L 432.821237 252.979964 
L 433.594031 260.369123 
L 433.87843 261.652525 
L 434.121676 262.152797 
L 434.414608 261.288884 
L 434.776173 252.512135 
L 435.198864 248.764817 
L 435.318081 244.881888 
L 435.793016 237.411669 
L 436.163582 235.301275 
L 436.324342 235.3347 
L 437.100266 239.645252 
L 437.400723 237.923381 
L 437.640155 235.032228 
L 437.947846 234.454651 
L 438.507695 242.044019 
L 438.778576 241.725783 
L 439.093849 239.447457 
L 439.259491 235.983416 
L 439.609454 234.812262 
L 440.326857 240.358865 
L 440.985603 236.119099 
L 441.460589 235.171047 
L 441.817555 235.286164 
L 441.996582 234.842488 
L 442.261655 233.764262 
L 442.476381 233.592112 
L 442.882088 234.120826 
L 443.119643 234.11252 
L 443.537398 232.831667 
L 443.835364 233.638733 
L 444.193965 237.913831 
L 444.792607 240.46817 
L 445.029606 239.43044 
L 445.21114 237.419016 
L 445.69185 235.976545 
L 445.950184 235.760009 
L 446.223006 234.732277 
L 446.703529 231.921161 
L 446.93948 232.137264 
L 447.4174 233.978084 
L 447.656135 233.890099 
L 447.904892 234.130827 
L 448.625267 233.486544 
L 448.91479 233.660475 
L 449.152725 233.564137 
L 449.392189 233.109788 
L 449.808343 232.859916 
L 449.89612 233.201317 
L 450.46407 237.007702 
L 450.94209 242.620857 
L 451.425902 247.424279 
L 451.658653 248.812834 
L 451.839194 248.840729 
L 452.077357 247.582868 
L 452.864845 241.275853 
L 453.098099 240.298689 
L 453.469682 240.398721 
L 453.632802 240.270592 
L 453.809319 239.653324 
L 454.134366 239.291748 
L 454.345201 239.261879 
L 454.765606 240.212794 
L 454.847127 241.344036 
L 455.071869 242.225112 
L 455.300727 241.611141 
L 456.387019 235.599064 
L 456.566905 235.630645 
L 456.984034 236.154687 
L 457.044693 236.026659 
L 457.462645 235.74761 
L 457.700957 235.251523 
L 457.762486 234.865273 
L 458.176246 234.951622 
L 458.772737 231.132253 
L 459.18988 229.117064 
L 459.309275 226.766213 
L 459.548312 225.015424 
L 459.846799 224.204704 
L 460.026983 224.156835 
L 460.505547 225.820286 
L 460.981197 227.775552 
L 461.759676 229.845245 
L 462.240011 232.116156 
L 463.848593 241.800749 
L 464.210024 244.732534 
L 464.68398 245.755329 
L 465.170704 246.582693 
L 465.469677 246.803702 
L 465.710789 246.536121 
L 466.009353 244.784653 
L 466.663185 236.409197 
L 467.597038 229.777286 
L 467.921045 224.537459 
L 468.454257 221.018922 
L 468.761166 221.217295 
L 469.542461 227.435741 
L 469.64942 229.681121 
L 470.683137 237.519951 
L 471.143739 242.930472 
L 471.389817 244.769164 
L 471.682015 245.063045 
L 471.865224 244.942053 
L 472.456786 243.703367 
L 472.636186 242.996896 
L 473.054076 243.025879 
L 473.400235 241.99585 
L 473.868197 237.433051 
L 474.170263 234.500248 
L 474.354868 231.565962 
L 474.949827 227.242713 
L 476.079329 220.342789 
L 476.317061 219.523239 
L 476.555932 219.389718 
L 477.212458 220.897463 
L 477.361592 221.807418 
L 478.107403 223.653329 
L 478.643526 226.386978 
L 479.035221 232.144631 
L 479.600228 236.970502 
L 480.01865 239.074152 
L 480.259337 239.870191 
L 481.032858 240.865838 
L 481.30086 240.620122 
L 481.817167 239.265308 
L 482.112202 237.896093 
L 482.54011 233.79644 
L 482.796157 232.413524 
L 483.087039 231.836463 
L 484.097273 226.665755 
L 484.216787 224.605511 
L 484.514676 223.893874 
L 485.008903 224.630596 
L 485.230884 224.38973 
L 485.76882 222.548798 
L 486.247979 220.587792 
L 486.721699 219.186214 
L 486.961225 218.947066 
L 487.206514 219.173643 
L 487.440359 220.048397 
L 487.677248 222.109215 
L 488.751713 228.386691 
L 488.931602 230.073334 
L 489.706772 233.388592 
L 490.005091 233.635721 
L 490.481391 232.76872 
L 490.683853 232.746695 
L 490.899752 233.136148 
L 491.201618 233.447522 
L 491.741352 232.783533 
L 492.390345 229.725552 
L 492.705805 228.773701 
L 493.122928 225.583106 
L 493.601015 224.554111 
L 493.66099 222.60534 
L 494.380638 219.459022 
L 495.092642 215.409117 
L 495.391562 214.738974 
L 495.866611 214.801127 
L 496.169394 215.285715 
L 496.644163 217.477074 
L 496.931081 219.463604 
L 497.602808 227.475956 
L 498.621652 236.352278 
L 499.337413 238.876057 
L 499.576371 238.438897 
L 500.113488 234.229205 
L 500.293182 231.377933 
L 500.609204 229.023043 
L 500.650281 227.340776 
L 501.130331 226.966666 
L 501.425955 227.509705 
L 501.604394 228.145052 
L 502.085048 228.820865 
L 502.758604 234.181543 
L 503.27591 237.188675 
L 503.872555 236.396467 
L 504.229888 233.722386 
L 504.650095 233.326832 
L 504.707569 232.722444 
L 505.069486 232.960289 
L 505.311707 232.68255 
L 505.78225 231.63705 
L 506.020268 230.850291 
L 506.993307 225.712716 
L 507.708032 221.276847 
L 508.190358 218.508493 
L 508.485193 218.190054 
L 508.787092 218.605004 
L 509.275368 221.508287 
L 509.498512 223.230291 
L 509.97473 224.772127 
L 510.21317 224.18391 
L 510.631246 224.304365 
L 510.932276 226.33788 
L 511.94593 230.418589 
L 512.202575 230.832366 
L 512.42372 231.434075 
L 513.214663 236.787969 
L 513.619081 237.683439 
L 513.915563 236.582119 
L 514.39837 235.752684 
L 514.703169 233.780092 
L 515.247869 234.190027 
L 515.468485 233.929628 
L 515.690172 232.80967 
L 518.173168 209.026402 
L 518.653123 207.461435 
L 518.951708 208.751128 
L 519.388449 214.205542 
L 519.725267 217.412179 
L 519.86004 219.898844 
L 520.621899 226.253186 
L 520.859464 225.99894 
L 521.115203 222.073693 
L 521.637701 203.806214 
L 522.117242 187.876571 
L 522.363738 184.3714 
L 522.65075 183.633032 
L 522.827932 184.369008 
L 523.266623 185.117137 
L 523.497826 185.860498 
L 523.843711 188.731712 
L 524.380779 208.116509 
L 524.857058 212.646889 
L 524.9168 214.98888 
L 525.275559 215.385445 
L 525.814188 212.509299 
L 526.316015 212.273491 
L 527.008656 215.825509 
L 527.785005 211.869111 
L 527.911085 209.555764 
L 528.28225 208.898734 
L 528.505796 210.355605 
L 528.92995 215.890863 
L 529.284939 218.945262 
L 529.533417 219.552014 
L 529.890641 220.121065 
L 530.247674 221.884167 
L 530.664454 222.573581 
L 530.905653 223.217797 
L 531.262127 223.236096 
L 531.439707 221.630487 
L 532.275662 208.786561 
L 532.708292 206.451186 
L 532.939696 205.802095 
L 533.470149 203.647257 
L 533.72434 203.459177 
L 534.245028 207.893172 
L 534.720395 213.596282 
L 535.028561 215.346439 
L 535.801994 216.131244 
L 536.526316 218.769652 
L 536.733933 219.030295 
L 536.938388 218.813151 
L 537.241818 218.318973 
L 537.709664 217.992548 
L 538.432501 213.228116 
L 538.723835 211.003851 
L 538.905185 208.425363 
L 539.680701 203.687354 
L 539.916955 202.506028 
L 540.155601 201.931606 
L 540.924843 202.398562 
L 541.177946 202.2884 
L 541.832702 201.398915 
L 541.907515 200.607979 
L 542.137411 200.479811 
L 542.376781 201.260848 
L 544.160754 212.237276 
L 544.699628 218.025587 
L 545.177199 221.20489 
L 545.613251 221.684118 
L 545.716345 222.696927 
L 546.013013 224.370727 
L 546.311255 227.953355 
L 546.562256 228.188251 
L 546.787321 227.537448 
L 547.086927 225.802437 
L 548.044159 215.66076 
L 549.053617 207.649432 
L 549.769221 204.104674 
L 550.187418 204.391323 
L 550.306262 204.295984 
L 551.101371 201.32846 
L 551.264901 200.24788 
L 551.511124 199.659321 
L 552.035323 200.451005 
L 552.516451 200.82749 
L 552.989968 201.454088 
L 553.231918 201.704824 
L 553.531832 202.446149 
L 554.122134 204.825108 
L 555.654441 209.851647 
L 557.459078 219.875883 
L 557.570223 221.884834 
L 557.960614 220.609173 
L 558.202691 219.611648 
L 558.695445 215.548485 
L 559.689623 206.502988 
L 559.92538 205.82046 
L 560.468553 206.174968 
L 560.652229 206.793479 
L 560.945158 207.333245 
L 561.186721 208.649119 
L 561.924237 217.797047 
L 562.153707 217.890718 
L 562.450932 216.620283 
L 563.168071 211.371915 
L 563.541892 209.567436 
L 563.663332 207.155673 
L 564.063923 204.397055 
L 564.187013 202.605926 
L 564.36587 202.007079 
L 564.602546 203.259988 
L 564.899658 205.727583 
L 565.376283 211.447729 
L 565.616165 213.682357 
L 566.154132 216.034034 
L 566.41619 216.328063 
L 566.807687 215.815858 
L 567.109206 213.256283 
L 568.067008 204.664008 
L 568.36386 204.836698 
L 568.666409 206.055331 
L 568.905048 208.469054 
L 569.556614 213.448435 
L 569.830097 213.027209 
L 570.180186 213.387143 
L 570.296782 215.071069 
L 570.840372 217.591121 
L 571.090269 218.183755 
L 571.312124 217.785912 
L 572.030259 214.277435 
L 572.327643 216.352297 
L 572.518413 218.481368 
L 572.804311 218.834765 
L 573.343047 214.796346 
L 573.889969 212.840745 
L 574.30091 215.333392 
L 574.655476 215.682001 
L 574.970739 211.96726 
L 575.266685 212.225919 
L 575.509254 214.404519 
L 575.806683 216.009742 
L 575.982989 215.772658 
L 576.639918 211.601926 
L 576.819632 211.147838 
L 577.176708 212.895778 
L 577.534113 216.209369 
L 577.715511 215.114759 
L 577.951032 212.552884 
L 578.309387 211.131945 
L 578.55534 212.643124 
L 578.728967 215.334858 
L 579.051607 216.112382 
L 579.707111 212.901516 
L 580.432509 215.111625 
L 580.954797 214.289548 
L 581.193618 214.523245 
L 581.67021 216.621123 
L 582.031218 216.045954 
L 582.167232 214.48465 
L 582.446877 213.735141 
L 582.685641 214.129476 
L 583.282015 216.632275 
L 583.460499 215.597261 
L 583.519781 214.428538 
L 583.93793 212.666293 
L 584.119675 210.340452 
L 584.35554 210.220434 
L 584.891392 214.564645 
L 585.071395 213.643719 
L 585.63542 209.82643 
L 585.787329 209.47055 
L 586.619088 216.873485 
L 586.989148 216.226632 
L 587.158906 214.952752 
L 587.45692 214.004745 
L 587.635596 214.075236 
L 588.351426 218.003853 
L 588.64969 216.743487 
L 588.888745 214.447137 
L 589.128115 213.439913 
L 589.546397 214.152781 
L 589.612081 214.82945 
L 589.849898 215.449838 
L 590.201208 215.175461 
L 590.339608 214.21716 
L 590.564453 214.088413 
L 591.098088 213.654853 
L 591.336211 213.958255 
L 591.644742 214.538072 
L 591.94111 214.287304 
L 592.179709 213.028609 
L 592.599352 216.007377 
L 592.95496 215.171467 
L 593.252524 213.332488 
L 593.492874 213.378627 
L 593.612706 213.635014 
L 593.789061 213.714734 
L 594.038067 214.365837 
L 594.265573 213.897737 
L 595.041953 213.379314 
L 595.294118 213.561852 
L 595.776521 214.39241 
L 595.995268 214.66356 
L 596.502813 213.136257 
L 596.502813 213.136257 
" clip-path="url(#p4f97d32dd7)" style="fill: none; stroke: #ff0000; stroke-opacity: 0.5; stroke-width: 1.5; stroke-linecap: square"/>
   </g>
   <g id="patch_3">
    <path d="M 38.502813 277.92 
L 38.502813 0.72 
" style="fill: none; stroke: #000000; stroke-width: 0.8; stroke-linejoin: miter; stroke-linecap: square"/>
   </g>
   <g id="patch_4">
    <path d="M 596.502813 277.92 
L 596.502813 0.72 
" style="fill: none; stroke: #000000; stroke-width: 0.8; stroke-linejoin: miter; stroke-linecap: square"/>
   </g>
   <g id="patch_5">
    <path d="M 38.502813 277.92 
L 596.502813 277.92 
" style="fill: none; stroke: #000000; stroke-width: 0.8; stroke-linejoin: miter; stroke-linecap: square"/>
   </g>
   <g id="patch_6">
    <path d="M 38.502813 0.72 
L 596.502813 0.72 
" style="fill: none; stroke: #000000; stroke-width: 0.8; stroke-linejoin: miter; stroke-linecap: square"/>
   </g>
   <g id="legend_1">
    <g id="patch_7">
     <path d="M 515.734063 38.07625 
L 589.502813 38.07625 
Q 591.502813 38.07625 591.502813 36.07625 
L 591.502813 7.72 
Q 591.502813 5.72 589.502813 5.72 
L 515.734063 5.72 
Q 513.734063 5.72 513.734063 7.72 
L 513.734063 36.07625 
Q 513.734063 38.07625 515.734063 38.07625 
z
" style="fill: #ffffff; opacity: 0.8; stroke: #cccccc; stroke-linejoin: miter"/>
    </g>
    <g id="line2d_29">
     <path d="M 517.734063 13.818438 
L 527.734063 13.818438 
L 537.734063 13.818438 
" style="fill: none; stroke: #0000ff; stroke-opacity: 0.5; stroke-width: 1.5; stroke-linecap: square"/>
    </g>
    <g id="text_16">
     <!-- RNEA -->
     <g transform="translate(545.734063 17.318438) scale(0.1 -0.1)">
      <defs>
       <path id="DejaVuSans-52" d="M 2841 2188 
Q 3044 2119 3236 1894 
Q 3428 1669 3622 1275 
L 4263 0 
L 3584 0 
L 2988 1197 
Q 2756 1666 2539 1819 
Q 2322 1972 1947 1972 
L 1259 1972 
L 1259 0 
L 628 0 
L 628 4666 
L 2053 4666 
Q 2853 4666 3247 4331 
Q 3641 3997 3641 3322 
Q 3641 2881 3436 2590 
Q 3231 2300 2841 2188 
z
M 1259 4147 
L 1259 2491 
L 2053 2491 
Q 2509 2491 2742 2702 
Q 2975 2913 2975 3322 
Q 2975 3731 2742 3939 
Q 2509 4147 2053 4147 
L 1259 4147 
z
" transform="scale(0.015625)"/>
       <path id="DejaVuSans-45" d="M 628 4666 
L 3578 4666 
L 3578 4134 
L 1259 4134 
L 1259 2753 
L 3481 2753 
L 3481 2222 
L 1259 2222 
L 1259 531 
L 3634 531 
L 3634 0 
L 628 0 
L 628 4666 
z
" transform="scale(0.015625)"/>
       <path id="DejaVuSans-41" d="M 2188 4044 
L 1331 1722 
L 3047 1722 
L 2188 4044 
z
M 1831 4666 
L 2547 4666 
L 4325 0 
L 3669 0 
L 3244 1197 
L 1141 1197 
L 716 0 
L 50 0 
L 1831 4666 
z
" transform="scale(0.015625)"/>
      </defs>
      <use xlink:href="#DejaVuSans-52"/>
      <use xlink:href="#DejaVuSans-4e" x="69.482422"/>
      <use xlink:href="#DejaVuSans-45" x="144.287109"/>
      <use xlink:href="#DejaVuSans-41" x="207.470703"/>
     </g>
    </g>
    <g id="line2d_30">
     <path d="M 517.734063 28.496563 
L 527.734063 28.496563 
L 537.734063 28.496563 
" style="fill: none; stroke: #ff0000; stroke-opacity: 0.5; stroke-width: 1.5; stroke-linecap: square"/>
    </g>
    <g id="text_17">
     <!-- BURNEA -->
     <g transform="translate(545.734063 31.996563) scale(0.1 -0.1)">
      <defs>
       <path id="DejaVuSans-42" d="M 1259 2228 
L 1259 519 
L 2272 519 
Q 2781 519 3026 730 
Q 3272 941 3272 1375 
Q 3272 1813 3026 2020 
Q 2781 2228 2272 2228 
L 1259 2228 
z
M 1259 4147 
L 1259 2741 
L 2194 2741 
Q 2656 2741 2882 2914 
Q 3109 3088 3109 3444 
Q 3109 3797 2882 3972 
Q 2656 4147 2194 4147 
L 1259 4147 
z
M 628 4666 
L 2241 4666 
Q 2963 4666 3353 4366 
Q 3744 4066 3744 3513 
Q 3744 3084 3544 2831 
Q 3344 2578 2956 2516 
Q 3422 2416 3680 2098 
Q 3938 1781 3938 1306 
Q 3938 681 3513 340 
Q 3088 0 2303 0 
L 628 0 
L 628 4666 
z
" transform="scale(0.015625)"/>
       <path id="DejaVuSans-55" d="M 556 4666 
L 1191 4666 
L 1191 1831 
Q 1191 1081 1462 751 
Q 1734 422 2344 422 
Q 2950 422 3222 751 
Q 3494 1081 3494 1831 
L 3494 4666 
L 4128 4666 
L 4128 1753 
Q 4128 841 3676 375 
Q 3225 -91 2344 -91 
Q 1459 -91 1007 375 
Q 556 841 556 1753 
L 556 4666 
z
" transform="scale(0.015625)"/>
      </defs>
      <use xlink:href="#DejaVuSans-42"/>
      <use xlink:href="#DejaVuSans-55" x="68.603516"/>
      <use xlink:href="#DejaVuSans-52" x="141.796875"/>
      <use xlink:href="#DejaVuSans-4e" x="211.279297"/>
      <use xlink:href="#DejaVuSans-45" x="286.083984"/>
      <use xlink:href="#DejaVuSans-41" x="349.267578"/>
     </g>
    </g>
   </g>
  </g>
 </g>
 <defs>
  <clipPath id="p4f97d32dd7">
   <rect x="38.502813" y="0.72" width="558" height="277.2"/>
  </clipPath>
 </defs>
</svg>
