<?xml version="1.0" encoding="utf-8" standalone="no"?>
<!DOCTYPE svg PUBLIC "-//W3C//DTD SVG 1.1//EN"
  "http://www.w3.org/Graphics/SVG/1.1/DTD/svg11.dtd">
<svg xmlns:xlink="http://www.w3.org/1999/xlink" width="590.860312pt" height="304.99625pt" viewBox="0 0 590.860312 304.99625" xmlns="http://www.w3.org/2000/svg" version="1.1">
 <metadata>
  <rdf:RDF xmlns:dc="http://purl.org/dc/elements/1.1/" xmlns:cc="http://creativecommons.org/ns#" xmlns:rdf="http://www.w3.org/1999/02/22-rdf-syntax-ns#">
   <cc:Work>
    <dc:type rdf:resource="http://purl.org/dc/dcmitype/StillImage"/>
    <dc:date>2023-09-07T03:30:16.187651</dc:date>
    <dc:format>image/svg+xml</dc:format>
    <dc:creator>
     <cc:Agent>
      <dc:title>Matplotlib v3.7.2, https://matplotlib.org/</dc:title>
     </cc:Agent>
    </dc:creator>
   </cc:Work>
  </rdf:RDF>
 </metadata>
 <defs>
  <style type="text/css">*{stroke-linejoin: round; stroke-linecap: butt}</style>
 </defs>
 <g id="figure_1">
  <g id="patch_1">
   <path d="M -0 304.99625 
L 590.860312 304.99625 
L 590.860312 0 
L -0 0 
L -0 304.99625 
z
" style="fill: none"/>
  </g>
  <g id="axes_1">
   <g id="patch_2">
    <path d="M 32.140313 277.92 
L 590.140313 277.92 
L 590.140313 0.72 
L 32.140313 0.72 
L 32.140313 277.92 
z
" style="fill: none"/>
   </g>
   <g id="matplotlib.axis_1">
    <g id="xtick_1">
     <g id="line2d_1">
      <path d="M 32.140313 277.92 
L 32.140313 0.72 
" clip-path="url(#p4233673bf8)" style="fill: none; stroke-dasharray: 0.8,1.32; stroke-dashoffset: 0; stroke: #000000; stroke-opacity: 0.5; stroke-width: 0.8"/>
     </g>
     <g id="line2d_2">
      <defs>
       <path id="mf2770a5077" d="M 0 0 
L 0 3.5 
" style="stroke: #000000; stroke-width: 0.8"/>
      </defs>
      <g>
       <use xlink:href="#mf2770a5077" x="32.140313" y="277.92" style="stroke: #000000; stroke-width: 0.8"/>
      </g>
     </g>
     <g id="text_1">
      <!-- 0.0 -->
      <g transform="translate(24.18875 292.518438) scale(0.1 -0.1)">
       <defs>
        <path id="DejaVuSans-30" d="M 2034 4250 
Q 1547 4250 1301 3770 
Q 1056 3291 1056 2328 
Q 1056 1369 1301 889 
Q 1547 409 2034 409 
Q 2525 409 2770 889 
Q 3016 1369 3016 2328 
Q 3016 3291 2770 3770 
Q 2525 4250 2034 4250 
z
M 2034 4750 
Q 2819 4750 3233 4129 
Q 3647 3509 3647 2328 
Q 3647 1150 3233 529 
Q 2819 -91 2034 -91 
Q 1250 -91 836 529 
Q 422 1150 422 2328 
Q 422 3509 836 4129 
Q 1250 4750 2034 4750 
z
" transform="scale(0.015625)"/>
        <path id="DejaVuSans-2e" d="M 684 794 
L 1344 794 
L 1344 0 
L 684 0 
L 684 794 
z
" transform="scale(0.015625)"/>
       </defs>
       <use xlink:href="#DejaVuSans-30"/>
       <use xlink:href="#DejaVuSans-2e" x="63.623047"/>
       <use xlink:href="#DejaVuSans-30" x="95.410156"/>
      </g>
     </g>
    </g>
    <g id="xtick_2">
     <g id="line2d_3">
      <path d="M 106.291637 277.92 
L 106.291637 0.72 
" clip-path="url(#p4233673bf8)" style="fill: none; stroke-dasharray: 0.8,1.32; stroke-dashoffset: 0; stroke: #000000; stroke-opacity: 0.5; stroke-width: 0.8"/>
     </g>
     <g id="line2d_4">
      <g>
       <use xlink:href="#mf2770a5077" x="106.291637" y="277.92" style="stroke: #000000; stroke-width: 0.8"/>
      </g>
     </g>
     <g id="text_2">
      <!-- 2.5 -->
      <g transform="translate(98.340075 292.518438) scale(0.1 -0.1)">
       <defs>
        <path id="DejaVuSans-32" d="M 1228 531 
L 3431 531 
L 3431 0 
L 469 0 
L 469 531 
Q 828 903 1448 1529 
Q 2069 2156 2228 2338 
Q 2531 2678 2651 2914 
Q 2772 3150 2772 3378 
Q 2772 3750 2511 3984 
Q 2250 4219 1831 4219 
Q 1534 4219 1204 4116 
Q 875 4013 500 3803 
L 500 4441 
Q 881 4594 1212 4672 
Q 1544 4750 1819 4750 
Q 2544 4750 2975 4387 
Q 3406 4025 3406 3419 
Q 3406 3131 3298 2873 
Q 3191 2616 2906 2266 
Q 2828 2175 2409 1742 
Q 1991 1309 1228 531 
z
" transform="scale(0.015625)"/>
        <path id="DejaVuSans-35" d="M 691 4666 
L 3169 4666 
L 3169 4134 
L 1269 4134 
L 1269 2991 
Q 1406 3038 1543 3061 
Q 1681 3084 1819 3084 
Q 2600 3084 3056 2656 
Q 3513 2228 3513 1497 
Q 3513 744 3044 326 
Q 2575 -91 1722 -91 
Q 1428 -91 1123 -41 
Q 819 9 494 109 
L 494 744 
Q 775 591 1075 516 
Q 1375 441 1709 441 
Q 2250 441 2565 725 
Q 2881 1009 2881 1497 
Q 2881 1984 2565 2268 
Q 2250 2553 1709 2553 
Q 1456 2553 1204 2497 
Q 953 2441 691 2322 
L 691 4666 
z
" transform="scale(0.015625)"/>
       </defs>
       <use xlink:href="#DejaVuSans-32"/>
       <use xlink:href="#DejaVuSans-2e" x="63.623047"/>
       <use xlink:href="#DejaVuSans-35" x="95.410156"/>
      </g>
     </g>
    </g>
    <g id="xtick_3">
     <g id="line2d_5">
      <path d="M 180.442962 277.92 
L 180.442962 0.72 
" clip-path="url(#p4233673bf8)" style="fill: none; stroke-dasharray: 0.8,1.32; stroke-dashoffset: 0; stroke: #000000; stroke-opacity: 0.5; stroke-width: 0.8"/>
     </g>
     <g id="line2d_6">
      <g>
       <use xlink:href="#mf2770a5077" x="180.442962" y="277.92" style="stroke: #000000; stroke-width: 0.8"/>
      </g>
     </g>
     <g id="text_3">
      <!-- 5.0 -->
      <g transform="translate(172.4914 292.518438) scale(0.1 -0.1)">
       <use xlink:href="#DejaVuSans-35"/>
       <use xlink:href="#DejaVuSans-2e" x="63.623047"/>
       <use xlink:href="#DejaVuSans-30" x="95.410156"/>
      </g>
     </g>
    </g>
    <g id="xtick_4">
     <g id="line2d_7">
      <path d="M 254.594287 277.92 
L 254.594287 0.72 
" clip-path="url(#p4233673bf8)" style="fill: none; stroke-dasharray: 0.8,1.32; stroke-dashoffset: 0; stroke: #000000; stroke-opacity: 0.5; stroke-width: 0.8"/>
     </g>
     <g id="line2d_8">
      <g>
       <use xlink:href="#mf2770a5077" x="254.594287" y="277.92" style="stroke: #000000; stroke-width: 0.8"/>
      </g>
     </g>
     <g id="text_4">
      <!-- 7.5 -->
      <g transform="translate(246.642725 292.518438) scale(0.1 -0.1)">
       <defs>
        <path id="DejaVuSans-37" d="M 525 4666 
L 3525 4666 
L 3525 4397 
L 1831 0 
L 1172 0 
L 2766 4134 
L 525 4134 
L 525 4666 
z
" transform="scale(0.015625)"/>
       </defs>
       <use xlink:href="#DejaVuSans-37"/>
       <use xlink:href="#DejaVuSans-2e" x="63.623047"/>
       <use xlink:href="#DejaVuSans-35" x="95.410156"/>
      </g>
     </g>
    </g>
    <g id="xtick_5">
     <g id="line2d_9">
      <path d="M 328.745612 277.92 
L 328.745612 0.72 
" clip-path="url(#p4233673bf8)" style="fill: none; stroke-dasharray: 0.8,1.32; stroke-dashoffset: 0; stroke: #000000; stroke-opacity: 0.5; stroke-width: 0.8"/>
     </g>
     <g id="line2d_10">
      <g>
       <use xlink:href="#mf2770a5077" x="328.745612" y="277.92" style="stroke: #000000; stroke-width: 0.8"/>
      </g>
     </g>
     <g id="text_5">
      <!-- 10.0 -->
      <g transform="translate(317.6128 292.518438) scale(0.1 -0.1)">
       <defs>
        <path id="DejaVuSans-31" d="M 794 531 
L 1825 531 
L 1825 4091 
L 703 3866 
L 703 4441 
L 1819 4666 
L 2450 4666 
L 2450 531 
L 3481 531 
L 3481 0 
L 794 0 
L 794 531 
z
" transform="scale(0.015625)"/>
       </defs>
       <use xlink:href="#DejaVuSans-31"/>
       <use xlink:href="#DejaVuSans-30" x="63.623047"/>
       <use xlink:href="#DejaVuSans-2e" x="127.246094"/>
       <use xlink:href="#DejaVuSans-30" x="159.033203"/>
      </g>
     </g>
    </g>
    <g id="xtick_6">
     <g id="line2d_11">
      <path d="M 402.896937 277.92 
L 402.896937 0.72 
" clip-path="url(#p4233673bf8)" style="fill: none; stroke-dasharray: 0.8,1.32; stroke-dashoffset: 0; stroke: #000000; stroke-opacity: 0.5; stroke-width: 0.8"/>
     </g>
     <g id="line2d_12">
      <g>
       <use xlink:href="#mf2770a5077" x="402.896937" y="277.92" style="stroke: #000000; stroke-width: 0.8"/>
      </g>
     </g>
     <g id="text_6">
      <!-- 12.5 -->
      <g transform="translate(391.764125 292.518438) scale(0.1 -0.1)">
       <use xlink:href="#DejaVuSans-31"/>
       <use xlink:href="#DejaVuSans-32" x="63.623047"/>
       <use xlink:href="#DejaVuSans-2e" x="127.246094"/>
       <use xlink:href="#DejaVuSans-35" x="159.033203"/>
      </g>
     </g>
    </g>
    <g id="xtick_7">
     <g id="line2d_13">
      <path d="M 477.048262 277.92 
L 477.048262 0.72 
" clip-path="url(#p4233673bf8)" style="fill: none; stroke-dasharray: 0.8,1.32; stroke-dashoffset: 0; stroke: #000000; stroke-opacity: 0.5; stroke-width: 0.8"/>
     </g>
     <g id="line2d_14">
      <g>
       <use xlink:href="#mf2770a5077" x="477.048262" y="277.92" style="stroke: #000000; stroke-width: 0.8"/>
      </g>
     </g>
     <g id="text_7">
      <!-- 15.0 -->
      <g transform="translate(465.91545 292.518438) scale(0.1 -0.1)">
       <use xlink:href="#DejaVuSans-31"/>
       <use xlink:href="#DejaVuSans-35" x="63.623047"/>
       <use xlink:href="#DejaVuSans-2e" x="127.246094"/>
       <use xlink:href="#DejaVuSans-30" x="159.033203"/>
      </g>
     </g>
    </g>
    <g id="xtick_8">
     <g id="line2d_15">
      <path d="M 551.199587 277.92 
L 551.199587 0.72 
" clip-path="url(#p4233673bf8)" style="fill: none; stroke-dasharray: 0.8,1.32; stroke-dashoffset: 0; stroke: #000000; stroke-opacity: 0.5; stroke-width: 0.8"/>
     </g>
     <g id="line2d_16">
      <g>
       <use xlink:href="#mf2770a5077" x="551.199587" y="277.92" style="stroke: #000000; stroke-width: 0.8"/>
      </g>
     </g>
     <g id="text_8">
      <!-- 17.5 -->
      <g transform="translate(540.066774 292.518438) scale(0.1 -0.1)">
       <use xlink:href="#DejaVuSans-31"/>
       <use xlink:href="#DejaVuSans-37" x="63.623047"/>
       <use xlink:href="#DejaVuSans-2e" x="127.246094"/>
       <use xlink:href="#DejaVuSans-35" x="159.033203"/>
      </g>
     </g>
    </g>
    <g id="text_9">
     <!-- Zeit [s] -->
     <g transform="translate(293.194219 302.196563) scale(0.1 -0.1)">
      <defs>
       <path id="DejaVuSans-5a" d="M 359 4666 
L 4025 4666 
L 4025 4184 
L 1075 531 
L 4097 531 
L 4097 0 
L 288 0 
L 288 481 
L 3238 4134 
L 359 4134 
L 359 4666 
z
" transform="scale(0.015625)"/>
       <path id="DejaVuSans-65" d="M 3597 1894 
L 3597 1613 
L 953 1613 
Q 991 1019 1311 708 
Q 1631 397 2203 397 
Q 2534 397 2845 478 
Q 3156 559 3463 722 
L 3463 178 
Q 3153 47 2828 -22 
Q 2503 -91 2169 -91 
Q 1331 -91 842 396 
Q 353 884 353 1716 
Q 353 2575 817 3079 
Q 1281 3584 2069 3584 
Q 2775 3584 3186 3129 
Q 3597 2675 3597 1894 
z
M 3022 2063 
Q 3016 2534 2758 2815 
Q 2500 3097 2075 3097 
Q 1594 3097 1305 2825 
Q 1016 2553 972 2059 
L 3022 2063 
z
" transform="scale(0.015625)"/>
       <path id="DejaVuSans-69" d="M 603 3500 
L 1178 3500 
L 1178 0 
L 603 0 
L 603 3500 
z
M 603 4863 
L 1178 4863 
L 1178 4134 
L 603 4134 
L 603 4863 
z
" transform="scale(0.015625)"/>
       <path id="DejaVuSans-74" d="M 1172 4494 
L 1172 3500 
L 2356 3500 
L 2356 3053 
L 1172 3053 
L 1172 1153 
Q 1172 725 1289 603 
Q 1406 481 1766 481 
L 2356 481 
L 2356 0 
L 1766 0 
Q 1100 0 847 248 
Q 594 497 594 1153 
L 594 3053 
L 172 3053 
L 172 3500 
L 594 3500 
L 594 4494 
L 1172 4494 
z
" transform="scale(0.015625)"/>
       <path id="DejaVuSans-20" transform="scale(0.015625)"/>
       <path id="DejaVuSans-5b" d="M 550 4863 
L 1875 4863 
L 1875 4416 
L 1125 4416 
L 1125 -397 
L 1875 -397 
L 1875 -844 
L 550 -844 
L 550 4863 
z
" transform="scale(0.015625)"/>
       <path id="DejaVuSans-73" d="M 2834 3397 
L 2834 2853 
Q 2591 2978 2328 3040 
Q 2066 3103 1784 3103 
Q 1356 3103 1142 2972 
Q 928 2841 928 2578 
Q 928 2378 1081 2264 
Q 1234 2150 1697 2047 
L 1894 2003 
Q 2506 1872 2764 1633 
Q 3022 1394 3022 966 
Q 3022 478 2636 193 
Q 2250 -91 1575 -91 
Q 1294 -91 989 -36 
Q 684 19 347 128 
L 347 722 
Q 666 556 975 473 
Q 1284 391 1588 391 
Q 1994 391 2212 530 
Q 2431 669 2431 922 
Q 2431 1156 2273 1281 
Q 2116 1406 1581 1522 
L 1381 1569 
Q 847 1681 609 1914 
Q 372 2147 372 2553 
Q 372 3047 722 3315 
Q 1072 3584 1716 3584 
Q 2034 3584 2315 3537 
Q 2597 3491 2834 3397 
z
" transform="scale(0.015625)"/>
       <path id="DejaVuSans-5d" d="M 1947 4863 
L 1947 -844 
L 622 -844 
L 622 -397 
L 1369 -397 
L 1369 4416 
L 622 4416 
L 622 4863 
L 1947 4863 
z
" transform="scale(0.015625)"/>
      </defs>
      <use xlink:href="#DejaVuSans-5a"/>
      <use xlink:href="#DejaVuSans-65" x="68.505859"/>
      <use xlink:href="#DejaVuSans-69" x="130.029297"/>
      <use xlink:href="#DejaVuSans-74" x="157.8125"/>
      <use xlink:href="#DejaVuSans-20" x="197.021484"/>
      <use xlink:href="#DejaVuSans-5b" x="228.808594"/>
      <use xlink:href="#DejaVuSans-73" x="267.822266"/>
      <use xlink:href="#DejaVuSans-5d" x="319.921875"/>
     </g>
    </g>
   </g>
   <g id="matplotlib.axis_2">
    <g id="ytick_1">
     <g id="line2d_17">
      <path d="M 32.140313 251.194326 
L 590.140313 251.194326 
" clip-path="url(#p4233673bf8)" style="fill: none; stroke-dasharray: 0.8,1.32; stroke-dashoffset: 0; stroke: #000000; stroke-opacity: 0.5; stroke-width: 0.8"/>
     </g>
     <g id="line2d_18">
      <defs>
       <path id="mf24e877758" d="M 0 0 
L -3.5 0 
" style="stroke: #000000; stroke-width: 0.8"/>
      </defs>
      <g>
       <use xlink:href="#mf24e877758" x="32.140313" y="251.194326" style="stroke: #000000; stroke-width: 0.8"/>
      </g>
     </g>
     <g id="text_10">
      <!-- −5 -->
      <g transform="translate(10.398125 254.993545) scale(0.1 -0.1)">
       <defs>
        <path id="DejaVuSans-2212" d="M 678 2272 
L 4684 2272 
L 4684 1741 
L 678 1741 
L 678 2272 
z
" transform="scale(0.015625)"/>
       </defs>
       <use xlink:href="#DejaVuSans-2212"/>
       <use xlink:href="#DejaVuSans-35" x="83.789062"/>
      </g>
     </g>
    </g>
    <g id="ytick_2">
     <g id="line2d_19">
      <path d="M 32.140313 202.862518 
L 590.140313 202.862518 
" clip-path="url(#p4233673bf8)" style="fill: none; stroke-dasharray: 0.8,1.32; stroke-dashoffset: 0; stroke: #000000; stroke-opacity: 0.5; stroke-width: 0.8"/>
     </g>
     <g id="line2d_20">
      <g>
       <use xlink:href="#mf24e877758" x="32.140313" y="202.862518" style="stroke: #000000; stroke-width: 0.8"/>
      </g>
     </g>
     <g id="text_11">
      <!-- 0 -->
      <g transform="translate(18.777813 206.661737) scale(0.1 -0.1)">
       <use xlink:href="#DejaVuSans-30"/>
      </g>
     </g>
    </g>
    <g id="ytick_3">
     <g id="line2d_21">
      <path d="M 32.140313 154.53071 
L 590.140313 154.53071 
" clip-path="url(#p4233673bf8)" style="fill: none; stroke-dasharray: 0.8,1.32; stroke-dashoffset: 0; stroke: #000000; stroke-opacity: 0.5; stroke-width: 0.8"/>
     </g>
     <g id="line2d_22">
      <g>
       <use xlink:href="#mf24e877758" x="32.140313" y="154.53071" style="stroke: #000000; stroke-width: 0.8"/>
      </g>
     </g>
     <g id="text_12">
      <!-- 5 -->
      <g transform="translate(18.777813 158.329928) scale(0.1 -0.1)">
       <use xlink:href="#DejaVuSans-35"/>
      </g>
     </g>
    </g>
    <g id="ytick_4">
     <g id="line2d_23">
      <path d="M 32.140313 106.198901 
L 590.140313 106.198901 
" clip-path="url(#p4233673bf8)" style="fill: none; stroke-dasharray: 0.8,1.32; stroke-dashoffset: 0; stroke: #000000; stroke-opacity: 0.5; stroke-width: 0.8"/>
     </g>
     <g id="line2d_24">
      <g>
       <use xlink:href="#mf24e877758" x="32.140313" y="106.198901" style="stroke: #000000; stroke-width: 0.8"/>
      </g>
     </g>
     <g id="text_13">
      <!-- 10 -->
      <g transform="translate(12.415313 109.99812) scale(0.1 -0.1)">
       <use xlink:href="#DejaVuSans-31"/>
       <use xlink:href="#DejaVuSans-30" x="63.623047"/>
      </g>
     </g>
    </g>
    <g id="ytick_5">
     <g id="line2d_25">
      <path d="M 32.140313 57.867093 
L 590.140313 57.867093 
" clip-path="url(#p4233673bf8)" style="fill: none; stroke-dasharray: 0.8,1.32; stroke-dashoffset: 0; stroke: #000000; stroke-opacity: 0.5; stroke-width: 0.8"/>
     </g>
     <g id="line2d_26">
      <g>
       <use xlink:href="#mf24e877758" x="32.140313" y="57.867093" style="stroke: #000000; stroke-width: 0.8"/>
      </g>
     </g>
     <g id="text_14">
      <!-- 15 -->
      <g transform="translate(12.415313 61.666311) scale(0.1 -0.1)">
       <use xlink:href="#DejaVuSans-31"/>
       <use xlink:href="#DejaVuSans-35" x="63.623047"/>
      </g>
     </g>
    </g>
    <g id="ytick_6">
     <g id="line2d_27">
      <path d="M 32.140313 9.535284 
L 590.140313 9.535284 
" clip-path="url(#p4233673bf8)" style="fill: none; stroke-dasharray: 0.8,1.32; stroke-dashoffset: 0; stroke: #000000; stroke-opacity: 0.5; stroke-width: 0.8"/>
     </g>
     <g id="line2d_28">
      <g>
       <use xlink:href="#mf24e877758" x="32.140313" y="9.535284" style="stroke: #000000; stroke-width: 0.8"/>
      </g>
     </g>
     <g id="text_15">
      <!-- 20 -->
      <g transform="translate(12.415313 13.334503) scale(0.1 -0.1)">
       <use xlink:href="#DejaVuSans-32"/>
       <use xlink:href="#DejaVuSans-30" x="63.623047"/>
      </g>
     </g>
    </g>
    <g id="text_16">
     <!-- Drehmoment [Nm] -->
     <g transform="translate(8.318438 186.465313) rotate(-90) scale(0.1 -0.1)">
      <defs>
       <path id="DejaVuSans-44" d="M 1259 4147 
L 1259 519 
L 2022 519 
Q 2988 519 3436 956 
Q 3884 1394 3884 2338 
Q 3884 3275 3436 3711 
Q 2988 4147 2022 4147 
L 1259 4147 
z
M 628 4666 
L 1925 4666 
Q 3281 4666 3915 4102 
Q 4550 3538 4550 2338 
Q 4550 1131 3912 565 
Q 3275 0 1925 0 
L 628 0 
L 628 4666 
z
" transform="scale(0.015625)"/>
       <path id="DejaVuSans-72" d="M 2631 2963 
Q 2534 3019 2420 3045 
Q 2306 3072 2169 3072 
Q 1681 3072 1420 2755 
Q 1159 2438 1159 1844 
L 1159 0 
L 581 0 
L 581 3500 
L 1159 3500 
L 1159 2956 
Q 1341 3275 1631 3429 
Q 1922 3584 2338 3584 
Q 2397 3584 2469 3576 
Q 2541 3569 2628 3553 
L 2631 2963 
z
" transform="scale(0.015625)"/>
       <path id="DejaVuSans-68" d="M 3513 2113 
L 3513 0 
L 2938 0 
L 2938 2094 
Q 2938 2591 2744 2837 
Q 2550 3084 2163 3084 
Q 1697 3084 1428 2787 
Q 1159 2491 1159 1978 
L 1159 0 
L 581 0 
L 581 4863 
L 1159 4863 
L 1159 2956 
Q 1366 3272 1645 3428 
Q 1925 3584 2291 3584 
Q 2894 3584 3203 3211 
Q 3513 2838 3513 2113 
z
" transform="scale(0.015625)"/>
       <path id="DejaVuSans-6d" d="M 3328 2828 
Q 3544 3216 3844 3400 
Q 4144 3584 4550 3584 
Q 5097 3584 5394 3201 
Q 5691 2819 5691 2113 
L 5691 0 
L 5113 0 
L 5113 2094 
Q 5113 2597 4934 2840 
Q 4756 3084 4391 3084 
Q 3944 3084 3684 2787 
Q 3425 2491 3425 1978 
L 3425 0 
L 2847 0 
L 2847 2094 
Q 2847 2600 2669 2842 
Q 2491 3084 2119 3084 
Q 1678 3084 1418 2786 
Q 1159 2488 1159 1978 
L 1159 0 
L 581 0 
L 581 3500 
L 1159 3500 
L 1159 2956 
Q 1356 3278 1631 3431 
Q 1906 3584 2284 3584 
Q 2666 3584 2933 3390 
Q 3200 3197 3328 2828 
z
" transform="scale(0.015625)"/>
       <path id="DejaVuSans-6f" d="M 1959 3097 
Q 1497 3097 1228 2736 
Q 959 2375 959 1747 
Q 959 1119 1226 758 
Q 1494 397 1959 397 
Q 2419 397 2687 759 
Q 2956 1122 2956 1747 
Q 2956 2369 2687 2733 
Q 2419 3097 1959 3097 
z
M 1959 3584 
Q 2709 3584 3137 3096 
Q 3566 2609 3566 1747 
Q 3566 888 3137 398 
Q 2709 -91 1959 -91 
Q 1206 -91 779 398 
Q 353 888 353 1747 
Q 353 2609 779 3096 
Q 1206 3584 1959 3584 
z
" transform="scale(0.015625)"/>
       <path id="DejaVuSans-6e" d="M 3513 2113 
L 3513 0 
L 2938 0 
L 2938 2094 
Q 2938 2591 2744 2837 
Q 2550 3084 2163 3084 
Q 1697 3084 1428 2787 
Q 1159 2491 1159 1978 
L 1159 0 
L 581 0 
L 581 3500 
L 1159 3500 
L 1159 2956 
Q 1366 3272 1645 3428 
Q 1925 3584 2291 3584 
Q 2894 3584 3203 3211 
Q 3513 2838 3513 2113 
z
" transform="scale(0.015625)"/>
       <path id="DejaVuSans-4e" d="M 628 4666 
L 1478 4666 
L 3547 763 
L 3547 4666 
L 4159 4666 
L 4159 0 
L 3309 0 
L 1241 3903 
L 1241 0 
L 628 0 
L 628 4666 
z
" transform="scale(0.015625)"/>
      </defs>
      <use xlink:href="#DejaVuSans-44"/>
      <use xlink:href="#DejaVuSans-72" x="77.001953"/>
      <use xlink:href="#DejaVuSans-65" x="115.865234"/>
      <use xlink:href="#DejaVuSans-68" x="177.388672"/>
      <use xlink:href="#DejaVuSans-6d" x="240.767578"/>
      <use xlink:href="#DejaVuSans-6f" x="338.179688"/>
      <use xlink:href="#DejaVuSans-6d" x="399.361328"/>
      <use xlink:href="#DejaVuSans-65" x="496.773438"/>
      <use xlink:href="#DejaVuSans-6e" x="558.296875"/>
      <use xlink:href="#DejaVuSans-74" x="621.675781"/>
      <use xlink:href="#DejaVuSans-20" x="660.884766"/>
      <use xlink:href="#DejaVuSans-5b" x="692.671875"/>
      <use xlink:href="#DejaVuSans-4e" x="731.685547"/>
      <use xlink:href="#DejaVuSans-6d" x="806.490234"/>
      <use xlink:href="#DejaVuSans-5d" x="903.902344"/>
     </g>
    </g>
   </g>
   <g id="line2d_29">
    <path d="M 32.140313 202.862518 
L 216.885976 202.862518 
L 217.191757 262.668167 
L 217.369551 244.952973 
L 217.685713 250.001237 
L 217.89868 272.589231 
L 218.376477 247.197334 
L 218.614117 242.878902 
L 219.151456 216.521396 
L 219.38853 214.995129 
L 219.626289 205.142586 
L 219.864317 210.41364 
L 220.163041 205.844948 
L 220.344852 193.482215 
L 221.060327 203.779841 
L 221.116739 199.898267 
L 221.354893 199.016081 
L 221.594397 197.514374 
L 221.831651 201.678531 
L 222.129433 193.903803 
L 222.368452 195.679502 
L 222.610276 199.7857 
L 222.849207 205.910403 
L 223.145121 203.471853 
L 223.50416 203.515267 
L 223.636128 203.65774 
L 223.810569 206.450364 
L 224.046296 203.756542 
L 224.343439 197.073556 
L 224.582601 207.360908 
L 225.267647 200.367386 
L 225.301219 190.519981 
L 225.774325 203.049395 
L 225.953557 210.95055 
L 226.072009 197.0384 
L 226.845951 210.678777 
L 227.025385 208.207272 
L 227.264162 203.152539 
L 227.502067 210.400054 
L 227.801173 196.097492 
L 228.097371 210.434823 
L 228.276175 202.570499 
L 228.514977 202.056367 
L 228.75348 203.37244 
L 229.070165 203.400667 
L 229.36445 201.921673 
L 229.544257 207.382545 
L 229.721979 200.201412 
L 230.021717 200.626012 
L 230.258787 208.819479 
L 230.557339 209.8611 
L 230.795324 206.64971 
L 231.033203 209.712734 
L 231.332523 208.828186 
L 231.512402 197.820572 
L 231.928034 206.615785 
L 231.98826 201.556533 
L 232.226764 201.282751 
L 232.465955 198.954677 
L 232.702568 210.597594 
L 232.942811 208.380525 
L 233.186582 207.788715 
L 233.478279 208.323397 
L 233.660737 196.306635 
L 233.954681 205.221204 
L 234.252051 207.362618 
L 234.431297 209.602827 
L 234.789339 202.650561 
L 235.027384 207.696748 
L 235.206838 206.373545 
L 235.444132 205.530014 
L 235.682396 203.079609 
L 235.981562 205.394083 
L 236.279246 204.190604 
L 236.577343 205.578366 
L 236.756315 202.636628 
L 237.05356 199.691831 
L 237.176921 204.047813 
L 237.474062 203.127845 
L 237.709175 205.238241 
L 237.891067 208.066388 
L 238.169337 206.014332 
L 238.397599 202.692539 
L 238.636284 203.053625 
L 239.141369 208.884378 
L 239.379322 208.163433 
L 239.840226 206.009931 
L 239.975442 197.118469 
L 240.098316 198.130726 
L 240.392294 208.640923 
L 240.869763 195.906051 
L 241.107026 208.725215 
L 241.345576 204.322088 
L 242.001197 200.941765 
L 242.180755 195.598162 
L 242.486189 213.638858 
L 242.658347 202.435031 
L 242.856481 205.469669 
L 243.168317 203.489125 
L 243.434494 206.001852 
L 243.55472 204.649467 
L 243.814282 203.855019 
L 244.092059 205.943173 
L 244.33058 201.56209 
L 244.808656 209.306106 
L 245.343396 212.93491 
L 245.641537 206.856384 
L 245.881365 206.81816 
L 246.063258 213.847203 
L 246.29821 209.72711 
L 246.595974 201.60213 
L 247.074762 212.194856 
L 247.370322 206.300313 
L 247.550299 208.159716 
L 248.027853 199.516138 
L 248.267448 204.23033 
L 248.503671 215.652475 
L 248.920695 192.593471 
L 249.27868 209.811886 
L 249.339831 205.206085 
L 249.516736 208.829639 
L 249.755756 201.349134 
L 249.9945 200.926403 
L 250.234213 211.11431 
L 250.651073 212.576174 
L 250.772096 201.359309 
L 251.068182 210.052797 
L 251.24816 209.46407 
L 251.485551 204.911162 
L 251.84259 201.988447 
L 252.082632 211.240995 
L 252.214731 209.670597 
L 252.497325 197.089026 
L 252.795714 204.208433 
L 253.125417 203.181745 
L 253.367647 205.270791 
L 253.513527 216.419766 
L 253.810733 203.778425 
L 254.228649 212.371619 
L 254.586829 224.978725 
L 254.960462 204.471637 
L 255.127567 204.400098 
L 255.240305 201.977161 
L 255.724063 207.564241 
L 255.966285 201.802691 
L 256.19372 204.750521 
L 256.431699 201.911122 
L 256.789273 193.291374 
L 256.968337 207.480809 
L 257.3852 215.192301 
L 257.504401 211.427029 
L 257.742897 211.068049 
L 257.923349 200.489807 
L 258.280703 211.68672 
L 258.519461 209.363357 
L 258.696364 210.795208 
L 258.937027 204.98542 
L 259.593112 198.630989 
L 259.829448 212.546402 
L 259.889674 206.791836 
L 260.12731 203.081579 
L 260.425959 205.263703 
L 260.73192 203.84016 
L 260.962329 204.00644 
L 261.201122 214.666832 
L 261.397353 207.453914 
L 261.737001 203.057353 
L 261.975511 204.164281 
L 262.170291 206.15251 
L 262.394273 204.538646 
L 262.654667 205.004907 
L 262.871144 197.931012 
L 263.168133 193.046326 
L 263.524878 196.907152 
L 263.763231 196.939479 
L 263.882632 204.592055 
L 264.3605 207.678039 
L 264.956088 198.453324 
L 265.199153 212.188902 
L 265.373312 198.326859 
L 265.612533 208.364146 
L 265.911494 199.828911 
L 266.092012 198.838206 
L 266.326923 214.305885 
L 266.565461 195.869983 
L 266.81283 201.988947 
L 267.101689 203.689118 
L 267.280816 206.314944 
L 267.606951 207.449294 
L 267.856872 209.503049 
L 268.295763 204.629415 
L 268.483061 206.27284 
L 268.675147 205.340914 
L 268.951074 209.266702 
L 269.075351 198.097499 
L 269.429128 199.018164 
L 269.55089 208.670738 
L 269.84571 209.223532 
L 270.031289 197.876285 
L 270.449826 204.604733 
L 270.686578 191.609898 
L 270.799583 199.913152 
L 271.227969 210.555643 
L 271.416575 200.420211 
L 271.576541 212.772675 
L 271.75803 216.06034 
L 272.113281 192.276419 
L 272.261991 205.105962 
L 272.593247 196.938133 
L 272.831352 198.734322 
L 273.068673 212.321382 
L 273.249832 193.974902 
L 273.545056 207.950802 
L 273.724459 205.561693 
L 274.022425 217.569234 
L 274.261309 204.78483 
L 274.617965 208.511233 
L 275.094642 203.088656 
L 275.231571 195.584952 
L 275.511428 210.587566 
L 275.694115 197.033129 
L 275.751157 211.809376 
L 275.988981 205.490253 
L 276.171231 207.380844 
L 276.465935 209.002042 
L 276.705865 211.197317 
L 276.943838 207.403191 
L 277.30182 219.125375 
L 277.599417 205.985325 
L 277.726347 194.156656 
L 278.200835 211.093423 
L 278.493901 213.642679 
L 278.672125 199.453167 
L 278.913757 208.056565 
L 279.327936 206.826627 
L 279.686283 215.072682 
L 279.929695 213.286655 
L 280.164187 197.034415 
L 280.406913 201.989969 
L 280.644747 187.942606 
L 280.899921 209.298007 
L 281.121606 193.329099 
L 281.48009 205.328638 
L 281.662009 222.3936 
L 281.896875 208.462525 
L 282.135022 219.649791 
L 282.87827 201.584428 
L 283.092569 219.000277 
L 283.448648 213.217526 
L 283.865204 223.051907 
L 283.985133 204.3747 
L 284.103379 218.475751 
L 284.520863 194.502359 
L 284.586255 218.396249 
L 284.862988 209.148003 
L 285.133028 191.56481 
L 285.317336 209.079183 
L 285.77215 187.244609 
L 285.832476 215.948973 
L 286.070076 212.666383 
L 286.606782 199.892192 
L 286.845055 202.349185 
L 287.142483 208.460692 
L 287.326559 202.954496 
L 287.561729 190.384376 
L 287.858647 182.915738 
L 288.104074 198.435527 
L 288.336497 183.572246 
L 288.515818 203.803918 
L 288.811161 195.806309 
L 289.0502 212.690129 
L 289.354731 218.704193 
L 289.585603 192.256195 
L 290.063872 209.99107 
L 290.245131 209.479357 
L 290.599351 204.786729 
L 290.789814 197.820484 
L 291.076474 213.157875 
L 291.257943 195.347646 
L 291.567388 208.220137 
L 291.732865 203.401958 
L 291.972965 208.638082 
L 292.270209 195.295811 
L 292.507736 209.637147 
L 292.745936 204.948325 
L 293.464715 211.079174 
L 293.820274 191.894299 
L 293.999205 208.681658 
L 294.237666 199.458374 
L 294.491675 210.78645 
L 294.717265 198.693058 
L 295.131549 227.738653 
L 295.250828 207.751596 
L 295.548755 228.416267 
L 295.72806 200.492285 
L 296.085114 209.129835 
L 296.263899 208.822007 
L 296.44426 225.981875 
L 296.681386 205.02545 
L 296.978824 204.960171 
L 297.18253 200.772685 
L 297.463618 208.998352 
L 297.756611 204.03572 
L 298.05391 203.192591 
L 298.233173 211.94923 
L 298.59037 205.619566 
L 298.889732 195.612739 
L 298.94823 202.090997 
L 299.186102 206.448432 
L 299.483957 198.580635 
L 299.66656 207.832979 
L 300.022783 206.288679 
L 300.199527 185.323264 
L 300.633524 207.321753 
L 300.919244 205.265916 
L 301.537546 202.937379 
L 301.705471 207.251941 
L 301.936626 193.028826 
L 302.175397 217.762228 
L 302.476748 201.100201 
L 302.724234 201.303813 
L 302.951049 199.73286 
L 303.092979 201.822412 
L 303.639314 198.448854 
L 303.92671 211.18063 
L 304.164771 191.985804 
L 304.345503 215.171495 
L 304.701274 205.383801 
L 304.880211 213.260963 
L 305.249083 224.011756 
L 305.419027 195.702798 
L 305.655187 197.093329 
L 306.012819 222.014023 
L 306.139247 205.038335 
L 306.370477 203.436934 
L 306.727724 203.143791 
L 306.850138 6.050769 
L 307.442992 29.1267 
L 307.873278 154.290972 
L 308.21765 159.471527 
L 308.339314 182.561515 
L 308.576388 195.95114 
L 309.231579 209.979965 
L 309.320091 210.609424 
L 309.654483 208.931068 
L 309.97169 205.517998 
L 310.089534 235.152251 
L 310.332804 211.457032 
L 310.633065 225.809641 
L 310.747527 204.417463 
L 311.048395 211.320365 
L 311.400781 201.849912 
L 311.698045 202.159163 
L 311.817602 201.829067 
L 311.996689 197.036407 
L 312.356427 216.01369 
L 312.596586 215.195417 
L 313.13539 190.908361 
L 313.252365 201.418011 
L 313.547978 184.911118 
L 313.78576 200.301287 
L 314.262231 207.105016 
L 314.502307 202.861986 
L 314.739507 219.844866 
L 314.977825 207.798747 
L 315.221798 205.168931 
L 315.515565 224.083884 
L 315.994706 203.915037 
L 316.229508 201.198091 
L 316.477979 203.847249 
L 316.707552 202.322623 
L 316.947991 202.395543 
L 317.186041 189.429819 
L 317.601403 190.710735 
L 317.721248 202.989568 
L 318.14169 194.72661 
L 318.207171 212.934047 
L 318.439657 201.926766 
L 319.091834 203.307106 
L 319.270827 206.133612 
L 319.449551 201.59013 
L 319.688982 216.805524 
L 319.932083 213.624931 
L 320.168258 204.829518 
L 320.489863 210.803464 
L 320.879805 200.143273 
L 320.939453 205.712432 
L 321.178135 201.97292 
L 321.416486 203.082697 
L 321.657726 200.069335 
L 321.894005 201.606874 
L 322.132975 217.01762 
L 322.431746 194.027621 
L 322.809316 203.64381 
L 322.912833 196.080454 
L 323.145837 189.550549 
L 323.382974 212.096738 
L 323.800441 202.609515 
L 323.919764 202.86718 
L 324.218448 203.063262 
L 324.398794 195.016129 
L 324.694573 201.364368 
L 324.949923 192.636261 
L 325.435758 207.343968 
L 325.656319 199.259192 
L 326.125419 201.460925 
L 326.362898 198.664716 
L 326.661765 202.949165 
L 326.905221 197.84962 
L 327.140237 196.134659 
L 327.378917 205.617859 
L 327.618004 201.964595 
L 327.863545 194.678137 
L 328.218592 210.264859 
L 328.660435 201.336893 
L 328.868968 201.877038 
L 329.347164 189.18128 
L 329.609418 193.238278 
L 329.822352 205.919808 
L 330.060978 206.826634 
L 330.300953 206.660057 
L 330.538426 198.891673 
L 330.955085 203.793335 
L 331.074928 207.510835 
L 331.373954 199.710145 
L 331.554316 202.862479 
L 331.798858 216.4888 
L 332.18227 194.852935 
L 332.295591 205.996214 
L 332.581733 202.743463 
L 332.628794 200.804696 
L 332.92853 216.730723 
L 333.047548 200.420952 
L 333.463311 202.360271 
L 333.582644 201.176676 
L 333.76078 202.824099 
L 334.059047 207.970626 
L 334.357228 191.905288 
L 334.535941 200.279161 
L 334.77428 203.401053 
L 335.012937 201.045401 
L 335.252504 206.862716 
L 335.554682 196.30153 
L 335.729332 195.981477 
L 336.027717 207.133567 
L 336.230047 204.026749 
L 336.503215 203.150649 
L 336.861694 191.342571 
L 337.001831 202.862518 
L 337.219706 202.862518 
L 337.457125 204.354456 
L 337.8742 201.808795 
L 337.992974 207.126533 
L 338.472551 198.411373 
L 338.710939 201.56694 
L 339.018781 199.699132 
L 339.247031 196.220338 
L 339.430905 210.586048 
L 339.722419 200.354388 
L 340.024042 200.447579 
L 340.260765 212.425211 
L 340.438197 196.589252 
L 340.684382 203.842818 
L 340.974023 206.69092 
L 341.271095 204.245499 
L 341.450051 200.75665 
L 341.689226 202.588064 
L 342.108412 204.401115 
L 342.168521 202.149193 
L 342.467656 202.470674 
L 342.663131 203.118347 
L 342.88779 196.170617 
L 343.240908 203.268301 
L 343.4796 202.956038 
L 343.777128 200.153817 
L 344.194534 220.427884 
L 344.492704 199.024497 
L 344.671035 200.401906 
L 344.910015 203.2981 
L 345.147753 217.223074 
L 345.50505 188.974193 
L 345.685682 204.838494 
L 345.98291 198.557633 
L 346.280825 204.504334 
L 346.400699 201.187935 
L 346.639131 190.41493 
L 346.995736 205.506602 
L 347.414796 203.867032 
L 347.829568 214.598224 
L 348.12766 195.69771 
L 348.366669 203.025694 
L 348.604642 201.533412 
L 348.90322 203.735516 
L 349.200866 202.862518 
L 349.328861 191.51567 
L 349.630876 202.80577 
L 349.867889 202.989633 
L 350.333064 190.572491 
L 350.75242 191.828537 
L 350.869846 206.292218 
L 351.051582 202.028698 
L 351.405524 203.835067 
L 351.704821 201.490114 
L 351.837621 197.932193 
L 352.257007 202.862518 
L 352.364255 196.700121 
L 352.602357 196.064064 
L 352.840931 204.563256 
L 353.085691 204.489768 
L 353.377361 202.656352 
L 353.556137 203.997264 
L 353.860873 199.486344 
L 354.102425 193.011575 
L 354.392014 214.7149 
L 354.513693 194.802661 
L 354.766606 201.556983 
L 355.053003 195.83478 
L 355.299174 203.354663 
L 355.524582 202.763397 
L 355.823137 200.391715 
L 356.061582 207.984225 
L 356.300154 203.658847 
L 356.587689 195.388699 
L 356.84103 216.798814 
L 357.060947 201.965229 
L 357.259503 204.608304 
L 357.553871 191.2474 
L 358.030653 202.422111 
L 358.268044 204.219223 
L 358.56667 200.87157 
L 358.745127 203.090653 
L 358.983198 200.941549 
L 359.281135 218.498193 
L 359.579082 203.776731 
L 359.758066 205.073735 
L 360.067986 191.590836 
L 360.299199 202.862518 
L 360.59336 202.862518 
L 360.775144 202.383547 
L 360.950784 200.837477 
L 361.250702 202.862518 
L 361.485653 196.730916 
L 361.802473 196.066133 
L 361.965514 205.600401 
L 362.267185 192.788501 
L 362.56378 202.921102 
L 362.751305 201.155255 
L 362.98234 202.099351 
L 363.166856 206.225293 
L 363.459258 205.678151 
L 363.877807 219.636704 
L 363.998223 198.590643 
L 364.415589 204.354242 
L 364.652718 201.856871 
L 364.949815 192.044166 
L 365.192598 200.923429 
L 365.426635 201.291384 
L 365.665324 203.69169 
L 365.963078 201.588612 
L 366.499074 193.985118 
L 367.034543 204.544849 
L 367.57195 190.849397 
L 367.630692 227.03829 
L 367.993968 204.815069 
L 368.28706 200.287749 
L 368.34994 201.466079 
L 368.718009 201.740059 
L 368.883409 204.063594 
L 369.124034 196.691826 
L 369.478926 203.864667 
L 369.658682 202.992727 
L 369.962816 197.250784 
L 370.138563 218.968288 
L 370.373408 204.725915 
L 370.912759 204.074898 
L 371.091622 189.170045 
L 371.328585 190.869296 
L 371.60839 205.156325 
L 372.105007 202.862518 
L 372.343286 203.048077 
L 372.640846 190.970498 
L 372.820287 203.167698 
L 373.179091 200.495684 
L 373.41626 210.11849 
L 373.595093 206.163972 
L 373.952976 204.639226 
L 374.07202 198.531881 
L 374.31127 199.242346 
L 374.609038 198.06366 
L 374.846922 203.480239 
L 375.204302 203.776282 
L 375.382483 201.879923 
L 375.807796 203.064724 
L 376.038677 207.935106 
L 376.278435 196.632612 
L 376.575768 205.489928 
L 376.754142 200.884439 
L 377.052278 203.717546 
L 377.290691 202.928803 
L 377.528772 193.63531 
L 377.767672 204.005073 
L 378.00534 205.858912 
L 378.779468 191.168076 
L 379.079562 202.374906 
L 379.375279 203.880661 
L 379.619828 211.899723 
L 379.792441 193.119979 
L 380.209981 203.178655 
L 380.270583 202.164508 
L 380.509453 201.329909 
L 380.925624 203.05495 
L 381.045858 188.886875 
L 381.341659 212.321653 
L 381.521235 201.873877 
L 381.75906 202.286414 
L 381.998072 191.907752 
L 382.47424 203.19511 
L 382.716196 204.834112 
L 383.010909 202.1158 
L 383.310569 202.982553 
L 383.369408 203.700217 
L 383.48901 202.862518 
L 383.846639 202.862518 
L 383.964934 197.123799 
L 384.204218 204.746292 
L 384.503733 219.61867 
L 385.215894 203.369233 
L 385.594332 203.255769 
L 385.698914 201.862752 
L 385.931863 209.211927 
L 386.171585 193.382536 
L 386.469912 199.915421 
L 386.651787 204.108087 
L 387.065347 191.837498 
L 387.28895 211.465565 
L 387.423292 204.591042 
L 387.661107 204.563475 
L 387.899473 203.595331 
L 388.144691 203.929943 
L 388.435672 204.899707 
L 388.794039 200.044856 
L 388.913053 193.343961 
L 389.211548 199.101419 
L 389.454942 200.668794 
L 389.688257 196.971327 
L 389.926507 201.106392 
L 390.106188 201.738271 
L 390.346918 204.188268 
L 390.643997 205.184019 
L 390.88036 204.012412 
L 391.118324 194.727771 
L 391.476629 203.11325 
L 391.65498 199.539216 
L 391.893379 201.829551 
L 392.131469 192.013395 
L 392.370282 203.046378 
L 392.669684 203.769485 
L 393.02718 200.157 
L 393.266841 199.754904 
L 393.504623 215.492658 
L 393.623643 194.80406 
L 394.102249 205.710803 
L 394.347746 197.576408 
L 394.637806 194.871006 
L 394.878295 204.609415 
L 395.114141 205.86602 
L 395.413015 201.499733 
L 395.592605 204.229908 
L 395.891188 218.417277 
L 396.068844 196.164097 
L 396.307135 203.833902 
L 396.546026 202.708454 
L 396.843832 199.57789 
L 397.035122 214.131101 
L 397.271089 203.461185 
L 397.560051 200.959915 
L 398.040006 205.365272 
L 398.278812 198.813334 
L 398.585387 216.384808 
L 398.813169 202.019901 
L 399.022604 204.964742 
L 399.29018 206.617658 
L 399.531917 218.190067 
L 399.770136 204.25356 
L 400.064061 204.671759 
L 400.304813 199.919735 
L 400.600723 201.954847 
L 400.781613 221.157709 
L 401.018391 218.556246 
L 401.257493 200.917414 
L 401.498301 202.335442 
L 401.855322 197.680023 
L 402.035863 220.613779 
L 402.274007 203.079681 
L 402.555498 202.638647 
L 402.872188 205.259708 
L 403.108135 194.887228 
L 403.227222 216.132314 
L 403.466513 217.742745 
L 403.763847 201.005233 
L 404.06342 201.774165 
L 404.243515 206.463104 
L 404.481874 198.501782 
L 404.780652 202.620011 
L 404.957902 201.263076 
L 405.257143 201.667583 
L 405.494709 207.002133 
L 405.733715 190.609004 
L 406.150189 202.862518 
L 406.22296 200.920247 
L 406.50908 203.342387 
L 406.699843 208.260731 
L 407.094257 194.356208 
L 407.222319 207.091803 
L 407.45226 202.995058 
L 407.75233 201.122411 
L 408.110181 201.62741 
L 408.171083 191.786727 
L 408.467786 205.531485 
L 408.705538 205.185426 
L 408.947224 203.593038 
L 409.197164 202.862518 
L 409.60073 205.489512 
L 409.660698 204.538104 
L 409.959081 205.859099 
L 410.201427 202.519633 
L 410.442648 209.301951 
L 410.639771 198.411681 
L 410.914207 209.286729 
L 411.394451 202.013874 
L 411.691964 200.612058 
L 412.109225 203.171651 
L 412.168443 201.865657 
L 412.407931 207.082735 
L 412.764168 203.790704 
L 412.942779 194.971415 
L 413.125083 195.305728 
L 413.361577 193.324451 
L 413.600064 202.144642 
L 413.918937 202.932444 
L 414.139017 201.734034 
L 414.375515 211.777489 
L 414.612557 202.271187 
L 414.851628 203.588423 
L 415.149726 202.229755 
L 415.330749 204.767591 
L 415.863312 207.37081 
L 415.871824 101.698554 
L 416.106461 204.393494 
L 416.462714 192.6046 
L 416.642489 196.711627 
L 416.889627 197.112878 
L 417.121838 204.231151 
L 417.478478 204.485227 
L 417.598079 195.922401 
L 417.782821 204.111596 
L 418.07455 206.36067 
L 418.313208 202.862518 
L 418.552708 203.649916 
L 418.792555 206.144069 
L 419.212173 219.655712 
L 419.266786 191.634143 
L 419.625937 202.318909 
L 419.809527 201.398388 
L 420.04404 202.96502 
L 420.28297 203.243832 
L 420.702599 202.61537 
L 420.827577 197.275165 
L 421.082899 204.067809 
L 421.296666 192.6642 
L 421.54394 194.046817 
L 421.595588 206.627437 
L 421.83448 211.85982 
L 422.073909 202.826834 
L 422.256645 206.420709 
L 422.4934 202.251272 
L 422.788822 202.717086 
L 423.265582 221.099291 
L 423.74235 189.425841 
L 423.981822 188.295634 
L 424.541323 203.19927 
L 424.759483 203.783108 
L 424.995152 268.099136 
L 425.235023 264.904803 
L 425.480997 243.928562 
L 425.733157 235.320099 
L 425.965544 232.755405 
L 426.199397 233.136352 
L 426.458737 216.168672 
L 427.231531 202.844424 
L 427.51593 206.423735 
L 427.759176 200.670026 
L 428.052108 201.287974 
L 428.172449 195.582481 
L 428.413673 198.725334 
L 428.836364 190.807111 
L 428.955581 202.335217 
L 429.18742 201.792473 
L 429.430516 199.61646 
L 429.801082 207.924994 
L 429.961842 204.085438 
L 430.264799 205.840019 
L 430.499653 203.310471 
L 430.737766 197.987744 
L 431.038223 211.092154 
L 431.277655 192.027969 
L 431.879912 215.889534 
L 432.145195 205.779062 
L 432.416076 208.812949 
L 432.731349 201.863439 
L 432.896991 187.596274 
L 433.246954 201.246914 
L 433.451223 196.261968 
L 433.665146 205.480765 
L 433.964357 201.069974 
L 434.142742 205.57212 
L 434.381269 207.345675 
L 434.623103 204.919613 
L 434.997949 195.894692 
L 435.098089 198.892018 
L 435.455055 202.521324 
L 435.634082 206.832594 
L 436.113881 194.440571 
L 436.519588 208.023018 
L 436.757143 205.82317 
L 436.944495 209.697708 
L 437.174898 184.737367 
L 437.472864 209.374949 
L 437.831465 205.191913 
L 438.308241 193.650733 
L 438.667106 212.688985 
L 438.84864 208.284776 
L 439.203743 196.732853 
L 439.32935 217.371162 
L 439.860506 199.509852 
L 440.09899 204.556431 
L 440.341029 197.272535 
L 440.57698 198.854288 
L 440.819932 205.22955 
L 441.0549 201.907542 
L 441.293635 193.186584 
L 441.542392 205.555782 
L 441.775867 197.887442 
L 442.074838 206.377808 
L 442.262767 202.323837 
L 442.55229 203.970829 
L 442.790225 204.58542 
L 443.029689 194.496105 
L 443.445843 205.449175 
L 443.53362 202.519149 
L 443.80455 208.655599 
L 444.10157 209.387297 
L 444.399442 201.215071 
L 444.57959 206.383963 
L 444.818019 193.738863 
L 445.063402 203.455258 
L 445.296153 202.907364 
L 445.476694 206.982626 
L 445.714857 209.814819 
L 445.964215 197.052741 
L 446.250673 206.782621 
L 446.502345 204.677085 
L 446.735599 193.51456 
L 447.107182 202.819665 
L 447.270302 193.453572 
L 447.446819 208.699089 
L 447.771866 211.135615 
L 447.982701 193.292229 
L 448.403106 202.423578 
L 448.484627 200.134242 
L 448.709369 207.936781 
L 448.938227 199.142744 
L 449.177353 200.591752 
L 449.598835 205.704529 
L 449.788248 212.571956 
L 450.204405 191.487528 
L 450.621534 201.466341 
L 450.682193 197.45938 
L 451.338457 206.251089 
L 451.813746 192.203697 
L 451.933234 210.944775 
L 452.173271 199.879851 
L 452.410237 204.186473 
L 452.82738 199.467826 
L 452.946775 203.723669 
L 453.185812 200.89576 
L 453.430029 200.773771 
L 453.484299 205.12083 
L 453.664483 198.722382 
L 453.901894 184.830958 
L 454.143047 205.840235 
L 454.438849 208.55212 
L 454.618697 202.810771 
L 454.938383 203.016576 
L 455.098633 208.832263 
L 455.397176 190.195622 
L 455.635167 205.311942 
L 455.877511 199.507216 
L 456.173359 208.348603 
L 456.591861 198.158059 
L 456.890144 204.739272 
L 457.076637 199.637731 
L 457.486093 198.066435 
L 457.633251 204.097734 
L 457.847524 204.829903 
L 458.105785 201.951092 
L 458.32148 202.867114 
L 458.560843 208.65808 
L 459.107177 195.124238 
L 459.348289 204.192518 
L 459.646853 207.383807 
L 459.881417 203.53474 
L 460.121119 202.718536 
L 460.300685 208.332783 
L 460.598908 202.004111 
L 460.836734 204.795026 
L 461.234538 201.578933 
L 461.381927 206.138862 
L 461.558545 190.824474 
L 462.091757 207.676206 
L 462.398666 200.037493 
L 462.568687 208.437592 
L 462.816983 204.005652 
L 463.179961 206.962855 
L 463.28692 211.102374 
L 463.530871 211.955416 
L 463.765835 198.760753 
L 464.072889 197.31298 
L 464.320637 201.902154 
L 464.544218 200.412743 
L 464.781239 200.815167 
L 465.027317 196.074206 
L 465.502724 205.991978 
L 465.79922 207.712515 
L 466.094286 203.755196 
L 466.273686 208.000622 
L 466.691576 198.497544 
L 467.037735 203.495527 
L 467.272469 202.796199 
L 467.505697 202.578237 
L 467.807763 212.416045 
L 467.992368 195.81353 
L 468.282927 196.907899 
L 468.587327 203.423297 
L 468.763154 192.756739 
L 469.239085 205.667147 
L 469.716829 192.674129 
L 469.954561 193.520167 
L 470.193432 206.186313 
L 470.432962 190.317059 
L 470.849958 194.970549 
L 470.999092 212.986712 
L 471.387446 197.451284 
L 471.506328 205.898669 
L 471.744903 197.122583 
L 471.983362 206.234606 
L 472.281026 197.388548 
L 472.413238 203.441006 
L 472.672721 205.750089 
L 472.942737 193.416165 
L 473.237728 198.799505 
L 473.436374 196.405106 
L 473.65615 196.723158 
L 473.896837 212.838196 
L 474.276647 205.953291 
L 474.434755 209.043736 
L 474.670358 192.955065 
L 474.93836 202.418789 
L 475.231962 202.785931 
L 475.454667 204.689258 
L 475.749702 196.548914 
L 476.17761 210.075371 
L 476.433657 197.440836 
L 476.724539 204.486889 
L 476.846124 192.944134 
L 477.138377 203.904995 
L 477.436678 209.178096 
L 477.734773 202.284439 
L 477.854287 207.29088 
L 478.152176 201.497408 
L 478.398605 188.027276 
L 478.868384 207.096746 
L 479.108222 209.03151 
L 479.40632 205.059897 
L 479.644856 198.818702 
L 479.885479 199.484836 
L 480.120828 202.467822 
L 480.359199 198.46888 
L 480.598725 204.243703 
L 481.077859 202.780593 
L 481.314748 204.352308 
L 481.674954 198.609046 
L 481.852016 192.583737 
L 482.092838 204.019359 
L 482.389213 197.192877 
L 482.925677 206.084966 
L 483.177819 206.056249 
L 483.344272 205.135274 
L 483.642591 206.027513 
L 483.880396 201.964353 
L 484.321353 206.139249 
L 484.839118 202.540721 
L 485.132073 210.745334 
L 485.378852 201.017806 
L 485.550787 199.713563 
L 485.791706 207.16998 
L 486.027845 200.73138 
L 486.343305 207.357013 
L 486.522284 205.890212 
L 486.760428 210.452723 
L 487.238515 212.099789 
L 487.29849 203.116196 
L 487.59631 212.454846 
L 487.778709 205.811459 
L 488.018138 202.773873 
L 488.251803 202.774605 
L 488.549642 200.021071 
L 488.730142 193.133107 
L 489.029062 201.834712 
L 489.325562 201.251356 
L 489.504111 204.089097 
L 489.806894 200.504676 
L 490.044836 206.875941 
L 490.281663 192.299378 
L 490.759547 203.269341 
L 490.96493 198.60945 
L 491.240308 200.610314 
L 491.584791 206.20158 
L 492.022035 198.079008 
L 492.259152 199.913343 
L 492.498084 194.226168 
L 492.974913 205.861514 
L 493.213871 200.556728 
L 493.455108 197.968417 
L 493.750988 192.499854 
L 493.930682 205.979655 
L 494.246704 202.786049 
L 494.287781 208.144633 
L 494.466584 211.993811 
L 494.767831 193.657708 
L 495.063455 205.27147 
L 495.241894 206.24017 
L 495.722548 199.242588 
L 495.780352 192.470538 
L 495.958619 202.803542 
L 496.203305 204.948058 
L 496.688782 202.765091 
L 496.91341 205.089127 
L 497.152993 195.748914 
L 497.510055 197.653817 
L 497.688907 207.596354 
L 497.867388 201.407727 
L 498.287595 208.263303 
L 498.345069 196.396532 
L 498.706986 198.785155 
L 498.949207 195.922222 
L 499.185459 201.248979 
L 499.657768 202.586061 
L 499.903543 208.179043 
L 500.207372 197.845847 
L 500.384257 204.170818 
L 500.630807 203.507963 
L 500.868873 208.562582 
L 501.112834 200.932687 
L 501.345532 201.549195 
L 501.643394 194.706759 
L 501.827858 205.884148 
L 502.122693 191.933745 
L 502.424592 216.663222 
L 502.65736 192.34526 
L 502.912868 189.099473 
L 503.136012 211.432033 
L 503.559477 201.186522 
L 503.61223 204.267095 
L 503.85067 199.352629 
L 504.268746 204.613729 
L 504.329146 203.572023 
L 504.569776 204.616647 
L 505.064641 200.059236 
L 505.369257 203.311442 
L 505.58343 196.955401 
L 505.840075 203.930362 
L 506.06122 201.148993 
L 506.300427 194.206737 
L 506.540169 214.48246 
L 506.852163 193.487378 
L 507.256581 211.762825 
L 507.31785 202.405259 
L 507.553063 209.48416 
L 508.03587 201.108584 
L 508.209039 200.861772 
L 508.340669 209.166378 
L 508.528018 200.670175 
L 508.885369 213.160237 
L 509.105985 205.270106 
L 509.327672 204.809654 
L 509.555939 198.997294 
L 509.79508 199.254768 
L 510.037742 194.45185 
L 510.400013 211.264094 
L 510.559712 202.754327 
L 510.797028 205.172371 
L 511.15401 206.568125 
L 511.340183 198.86193 
L 511.515701 207.927813 
L 511.810668 208.557994 
L 512.117989 203.022196 
L 512.290623 202.491414 
L 512.589208 209.618835 
L 512.767601 202.43875 
L 513.025949 200.481196 
L 513.362767 202.433722 
L 513.779272 187.296303 
L 514.077099 158.835919 
L 514.259399 176.842541 
L 514.496964 164.34581 
L 514.752703 176.559617 
L 515.03257 171.385103 
L 515.275201 181.328509 
L 515.51118 185.82139 
L 515.754742 181.259425 
L 516.001238 196.181473 
L 516.465432 206.823117 
L 516.904123 206.878886 
L 517.135326 203.822894 
L 517.481211 206.745427 
L 517.768534 203.677885 
L 518.018279 203.739057 
L 518.494558 201.395538 
L 518.5543 202.097207 
L 518.913059 202.419507 
L 519.040927 201.372852 
L 519.451688 202.43164 
L 519.953515 202.824168 
L 520.066241 202.604352 
L 520.234489 202.829099 
L 520.951602 202.855739 
L 521.548585 202.860742 
L 521.91975 203.082511 
L 522.323891 202.920862 
L 522.56745 203.278769 
L 522.804201 202.870387 
L 522.922439 203.945154 
L 523.170917 202.864459 
L 523.705647 202.71541 
L 523.885174 202.791349 
L 524.543153 202.93391 
L 524.899627 202.702016 
L 525.077207 202.916042 
L 525.258621 202.918581 
L 525.52018 202.699139 
L 525.913162 202.865033 
L 526.345792 202.86588 
L 526.577196 202.855358 
L 526.87331 203.565455 
L 527.107649 202.246277 
L 527.36184 202.862521 
L 527.583954 202.873208 
L 527.882528 202.527304 
L 528.088503 202.702478 
L 528.357895 202.729399 
L 528.666061 202.940876 
L 528.897677 202.811484 
L 531.20933 202.85681 
L 531.560797 202.835217 
L 552.07549 202.862518 
L 590.140313 202.862518 
L 590.140313 202.862518 
" clip-path="url(#p4233673bf8)" style="fill: none; stroke: #0000ff; stroke-opacity: 0.5; stroke-width: 1.5; stroke-linecap: square"/>
   </g>
   <g id="line2d_30">
    <path d="M 32.140313 198.902841 
L 32.260416 198.67861 
L 32.5745 199.204029 
L 32.748517 198.312725 
L 33.054561 198.859782 
L 33.345096 198.894831 
L 33.523383 198.803924 
L 33.940291 199.062581 
L 34.179346 198.456264 
L 34.239045 198.57318 
L 34.894659 198.871803 
L 35.729003 199.069782 
L 35.967083 199.240578 
L 36.266372 198.949167 
L 36.565555 199.471186 
L 36.801595 198.858289 
L 37.457383 198.928115 
L 37.697946 199.43705 
L 37.938435 198.583613 
L 38.236853 198.782517 
L 38.471547 198.508434 
L 38.70973 199.042622 
L 39.008549 198.33827 
L 39.494512 198.315253 
L 39.812296 198.955052 
L 39.966387 198.493876 
L 40.204549 198.279946 
L 40.443272 198.334563 
L 40.862256 198.292478 
L 41.043007 198.887461 
L 41.158873 198.507604 
L 41.403681 199.119641 
L 41.640993 198.863494 
L 41.881665 199.268978 
L 42.174413 199.304868 
L 42.77819 199.194855 
L 46.688449 199.473507 
L 47.994112 199.235334 
L 49.298621 198.621571 
L 50.722905 198.87229 
L 52.14611 198.567965 
L 53.451293 199.419875 
L 53.591898 199.248486 
L 54.067819 199.495004 
L 54.306655 199.357828 
L 54.603691 199.360725 
L 54.903392 198.814347 
L 55.082802 198.002382 
L 55.319405 199.219618 
L 55.503632 199.434008 
L 55.741906 198.945732 
L 56.0415 199.527743 
L 56.573769 198.216108 
L 56.75367 199.276974 
L 56.993866 200.021655 
L 57.768474 199.19126 
L 58.064149 198.498832 
L 58.36308 199.347259 
L 58.482261 199.148056 
L 58.721276 199.074145 
L 58.961335 199.692045 
L 59.497757 198.030266 
L 59.746013 198.873916 
L 60.034326 199.051441 
L 60.215694 198.478386 
L 60.514101 199.128735 
L 60.572028 198.736351 
L 60.750248 198.323067 
L 61.051876 198.238604 
L 61.226386 199.386298 
L 61.466678 199.565283 
L 62.060926 199.561249 
L 62.240029 199.318643 
L 62.421171 199.468642 
L 62.657497 199.135918 
L 62.96134 198.964926 
L 63.493016 200.678459 
L 63.733151 199.215295 
L 63.976034 198.685034 
L 64.160848 199.689085 
L 64.930181 198.870842 
L 65.227079 200.242174 
L 65.707736 199.520554 
L 66.002271 198.651982 
L 66.242317 199.136345 
L 66.420136 199.936701 
L 67.374773 199.41941 
L 67.433733 199.069096 
L 67.672356 198.664363 
L 67.910925 198.593748 
L 68.149877 198.689999 
L 68.447276 199.467426 
L 68.74506 199.050449 
L 68.987539 198.228822 
L 69.172201 198.247666 
L 70.417336 199.723463 
L 70.652368 199.192672 
L 70.849156 198.356483 
L 71.368623 200.115894 
L 71.845834 199.371458 
L 72.083203 199.501155 
L 72.621779 199.093826 
L 72.858895 198.748751 
L 73.09869 199.526334 
L 73.336516 199.749966 
L 73.574 198.874862 
L 73.933629 198.128025 
L 74.12469 198.897907 
L 74.349816 199.268246 
L 74.588354 198.531283 
L 74.830265 198.416088 
L 75.303153 199.581042 
L 75.422818 199.522304 
L 75.550599 198.300418 
L 76.078528 199.478891 
L 76.496906 198.363108 
L 76.853247 199.096828 
L 77.031899 200.21577 
L 77.269994 199.916673 
L 77.510114 198.648243 
L 77.747356 198.937212 
L 78.048518 199.960303 
L 78.343652 199.406472 
L 78.521766 198.817504 
L 78.761397 199.288675 
L 78.998788 200.032141 
L 79.237503 200.268241 
L 79.476273 200.317437 
L 80.072023 200.624393 
L 80.530625 199.079177 
L 80.966541 200.186254 
L 81.265122 199.683033 
L 81.741008 197.582599 
L 82.04075 197.514062 
L 82.224265 198.04012 
L 83.173932 199.274047 
L 83.546261 199.086633 
L 83.718712 198.428421 
L 84.186037 198.97456 
L 84.305547 199.452598 
L 84.543172 199.657042 
L 84.782008 199.637472 
L 84.901284 199.507564 
L 85.439328 199.285205 
L 86.152383 200.04315 
L 86.391669 199.555299 
L 86.927314 198.130553 
L 87.127254 198.120611 
L 87.642367 199.541447 
L 88.178787 198.253873 
L 88.479615 198.990615 
L 88.656957 199.812105 
L 88.894997 199.920772 
L 89.136453 199.703946 
L 89.701857 199.785469 
L 90.091562 199.096622 
L 90.210599 198.483497 
L 90.266352 198.595465 
L 90.33225 199.350433 
L 90.627249 199.578691 
L 91.12736 197.617198 
L 91.417413 198.242669 
L 91.840231 200.053587 
L 92.11645 199.513898 
L 92.355029 198.676961 
L 92.663098 199.303415 
L 92.962953 199.536138 
L 93.21916 198.76426 
L 93.433165 199.020541 
L 94.0285 200.201532 
L 94.163744 200.745556 
L 95.505901 199.227895 
L 96.803142 199.324048 
L 98.231861 198.854368 
L 98.311059 199.16563 
L 98.72905 196.758499 
L 99.091612 196.382554 
L 99.325383 196.815688 
L 100.06431 199.024549 
L 100.326145 198.507548 
L 100.727468 197.298979 
L 101.025498 197.441322 
L 101.325668 198.20766 
L 101.502474 199.21906 
L 101.802034 199.696143 
L 101.985306 199.452766 
L 102.540233 197.074542 
L 102.755395 197.177871 
L 103.114866 198.367653 
L 103.233772 200.018971 
L 103.530292 200.86352 
L 103.829761 200.356718 
L 104.191704 198.104111 
L 104.432586 197.485885 
L 104.689594 198.092157 
L 104.92847 199.191769 
L 105.214519 198.822903 
L 105.687228 197.559169 
L 105.927019 198.032818 
L 106.430067 200.202028 
L 106.962636 200.726978 
L 107.425785 199.964163 
L 107.730857 200.785464 
L 107.96896 200.893287 
L 108.673551 197.801939 
L 108.951319 198.057218 
L 109.574599 199.001034 
L 109.639565 199.582338 
L 109.853576 199.294913 
L 109.94135 198.235358 
L 110.113291 197.976705 
L 110.420405 198.362378 
L 110.768396 198.367916 
L 111.363595 199.065071 
L 111.843756 199.221423 
L 112.087971 199.048135 
L 112.565524 199.83217 
L 112.926999 199.33807 
L 113.160978 199.360618 
L 113.582678 200.86631 
L 113.936112 200.097005 
L 114.244007 198.652416 
L 114.353403 198.691744 
L 114.5606 199.766886 
L 114.831601 199.809123 
L 115.070886 198.856841 
L 115.308688 198.572999 
L 115.549767 199.01925 
L 115.787315 199.186969 
L 116.262296 199.334383 
L 116.328025 199.905123 
L 116.573462 200.4725 
L 116.798422 200.094984 
L 117.33498 198.921248 
L 117.632928 199.916143 
L 117.811529 200.071982 
L 117.99319 199.699031 
L 118.287729 199.745993 
L 118.586634 199.428193 
L 118.76759 198.64442 
L 119.302806 197.696095 
L 119.785222 198.968946 
L 120.028396 198.450922 
L 120.265168 198.267587 
L 120.49819 198.651803 
L 120.738598 198.703307 
L 121.034974 198.607469 
L 121.511894 198.190718 
L 122.108107 198.895539 
L 122.227702 198.6555 
L 122.465751 198.743421 
L 123.061124 198.796187 
L 123.358796 198.814016 
L 123.718465 199.362754 
L 123.956408 199.412582 
L 124.194498 199.058205 
L 124.432582 198.455383 
L 125.027873 198.73299 
L 125.208061 198.725319 
L 125.708499 198.011121 
L 126.415946 198.372541 
L 126.717922 199.065514 
L 126.906634 199.809298 
L 127.418743 198.592644 
L 127.91139 200.581573 
L 128.149173 200.245501 
L 128.390036 198.732078 
L 128.625669 198.242576 
L 129.162063 199.571366 
L 129.399844 198.784458 
L 129.699097 198.393566 
L 130.175147 199.344735 
L 130.534909 198.741201 
L 130.782196 197.937939 
L 131.009433 198.156686 
L 131.133599 198.82945 
L 131.367421 198.999868 
L 131.875346 198.069796 
L 132.100256 198.349432 
L 132.459019 198.985429 
L 133.155995 198.669733 
L 133.513843 198.694894 
L 133.633954 198.529082 
L 133.87163 198.729682 
L 134.113457 199.226111 
L 134.364623 200.067074 
L 134.649402 200.055421 
L 134.829554 198.8997 
L 135.321084 197.861297 
L 135.38073 198.086981 
L 135.857816 200.655252 
L 136.097847 201.461574 
L 136.335606 201.056659 
L 136.811457 199.156213 
L 137.108679 199.565201 
L 137.295106 200.538162 
L 137.766235 200.843019 
L 138.003165 200.139903 
L 138.063545 199.132789 
L 138.302521 198.444309 
L 138.540159 198.184285 
L 138.784747 198.788775 
L 139.016875 200.083183 
L 139.316551 200.891535 
L 139.680343 200.241153 
L 139.79121 199.245498 
L 140.089465 199.453197 
L 140.522304 200.869858 
L 141.282395 198.520475 
L 141.51987 198.736533 
L 141.937054 199.370008 
L 142.05632 200.109937 
L 142.235917 200.050804 
L 142.713512 199.334295 
L 143.250749 199.643912 
L 143.667272 199.579493 
L 143.727194 198.552077 
L 144.203471 197.049293 
L 144.991383 198.504236 
L 145.513506 197.464978 
L 146.170325 200.085365 
L 146.469611 200.352847 
L 146.946731 198.395935 
L 147.18318 198.822775 
L 147.720028 200.742122 
L 148.434909 198.07533 
L 148.67152 198.351873 
L 149.210279 199.916422 
L 149.56939 199.960657 
L 149.926371 197.400092 
L 150.23535 196.919923 
L 150.700434 199.343034 
L 150.882422 200.325461 
L 151.120132 200.266638 
L 151.713311 198.668056 
L 152.131469 198.129798 
L 152.370451 199.64436 
L 152.666459 200.167783 
L 152.906497 199.488625 
L 153.44687 196.699078 
L 153.621924 196.120279 
L 154.276678 198.36851 
L 154.398788 199.646275 
L 154.639686 199.290848 
L 154.873501 197.997269 
L 155.110701 197.640433 
L 155.353534 198.342808 
L 155.832491 200.524967 
L 156.067618 200.699695 
L 156.365929 199.64389 
L 156.607624 198.134683 
L 156.84958 197.588681 
L 157.560213 200.371951 
L 158.034751 198.406339 
L 158.393499 198.475527 
L 158.870077 199.060209 
L 159.047663 199.168641 
L 159.28704 198.877027 
L 159.526546 197.909169 
L 159.764182 197.694458 
L 160.120076 198.273386 
L 160.298725 199.024568 
L 160.53699 198.792097 
L 160.835331 197.8254 
L 161.074063 197.787977 
L 161.55205 199.059438 
L 162.028927 198.723407 
L 162.27046 198.638198 
L 162.802979 198.888594 
L 163.166836 198.920081 
L 163.840609 198.567287 
L 164.236018 199.020785 
L 165.069618 198.06718 
L 165.538081 198.352584 
L 165.784368 198.341262 
L 166.207375 198.605827 
L 166.743848 197.988284 
L 167.344888 199.305475 
L 167.45527 198.667185 
L 167.815257 197.650086 
L 168.173283 199.318232 
L 168.55145 198.986844 
L 168.711434 197.976335 
L 168.948043 197.973475 
L 169.424624 199.78597 
L 169.723182 199.40827 
L 169.961155 198.648979 
L 170.217202 199.335549 
L 170.559667 199.345854 
L 170.687123 198.524704 
L 170.974215 198.171861 
L 171.285899 198.710979 
L 171.393213 199.686224 
L 171.74865 200.16744 
L 171.989757 199.792818 
L 172.166278 199.278064 
L 172.65986 198.924925 
L 172.881454 198.629505 
L 173.597299 200.473576 
L 173.837319 200.806577 
L 174.192224 198.485601 
L 174.402452 198.405955 
L 174.874754 200.207671 
L 175.354275 199.464734 
L 175.589698 199.301243 
L 175.949357 199.191299 
L 176.494142 198.366491 
L 176.609683 198.486402 
L 177.105723 198.247431 
L 177.645736 198.854234 
L 178.118342 198.370139 
L 178.504163 198.482275 
L 178.59951 199.081241 
L 178.851805 199.483004 
L 179.093712 199.189483 
L 179.43122 198.244077 
L 179.551524 197.522994 
L 179.848239 198.02518 
L 180.087596 199.075809 
L 180.325566 199.571879 
L 180.820926 197.85597 
L 181.159198 197.844269 
L 181.399395 198.203218 
L 181.57679 198.194295 
L 182.113099 198.697086 
L 182.529601 198.649301 
L 182.768574 198.596312 
L 183.245868 198.659984 
L 183.483177 198.208665 
L 183.602426 197.540652 
L 183.840886 197.796841 
L 184.02086 198.81679 
L 184.317285 199.370291 
L 185.034127 197.443734 
L 185.584366 200.093467 
L 185.754673 201.468987 
L 185.993979 201.80415 
L 186.47252 199.738808 
L 186.710166 199.716662 
L 186.95296 200.645189 
L 187.246241 200.919618 
L 187.543327 200.227967 
L 187.724616 199.464406 
L 188.258923 199.359158 
L 188.556955 199.023631 
L 188.797234 199.139759 
L 189.211742 200.500145 
L 189.450228 199.398978 
L 189.688262 199.604237 
L 189.985774 200.788212 
L 190.169694 200.454855 
L 190.462416 199.032422 
L 190.704003 198.563856 
L 190.940244 199.213683 
L 191.178168 199.381814 
L 191.420626 198.757412 
L 191.658722 198.65207 
L 191.915785 199.793698 
L 192.252478 199.376774 
L 192.495245 198.212501 
L 192.966422 199.69051 
L 193.264667 198.999982 
L 193.392781 198.178255 
L 193.674906 198.716678 
L 193.925999 199.718323 
L 194.160574 199.605804 
L 194.40092 198.267694 
L 194.661406 198.455237 
L 194.890264 199.468401 
L 195.239562 199.319088 
L 195.419353 198.745073 
L 195.657872 198.760659 
L 195.895951 199.220338 
L 196.372173 199.880294 
L 196.614569 199.738466 
L 196.908944 199.730076 
L 198.100225 199.294809 
L 198.697055 198.522938 
L 198.817509 198.172863 
L 199.112665 198.71916 
L 199.360548 200.26101 
L 199.829534 200.675868 
L 200.089848 199.338766 
L 200.903995 201.145841 
L 201.319774 199.560037 
L 201.560416 199.272523 
L 201.856285 199.162668 
L 202.215656 198.799816 
L 202.572703 199.447815 
L 203.468321 198.554975 
L 204.063183 200.469803 
L 205.016098 199.270812 
L 205.314986 199.336034 
L 205.512219 200.055831 
L 206.031238 201.049305 
L 206.805789 197.373913 
L 207.043339 197.824502 
L 207.462239 200.251148 
L 207.758564 200.503658 
L 208.23783 199.302897 
L 208.475313 198.554115 
L 208.713549 198.353424 
L 209.01257 198.732235 
L 209.192242 199.6544 
L 209.488828 199.943249 
L 209.727167 199.273424 
L 210.21751 196.759567 
L 210.448923 196.69552 
L 210.740457 197.625837 
L 211.515273 202.158294 
L 211.693838 202.279777 
L 211.932393 201.94599 
L 212.903531 201.430447 
L 212.94518 200.843282 
L 213.188899 200.390954 
L 213.68185 197.538054 
L 213.96737 196.980083 
L 214.4997 197.042951 
L 214.800267 196.700576 
L 214.975671 196.807149 
L 215.152996 197.582666 
L 215.63072 198.675574 
L 215.692681 199.91042 
L 216.167769 201.99941 
L 216.409036 202.177542 
L 216.885976 200.343272 
L 217.685713 200.093067 
L 217.89868 201.177384 
L 218.614117 206.071333 
L 218.911855 206.816115 
L 220.163041 213.514848 
L 220.344852 213.32999 
L 220.641647 211.629895 
L 221.116739 205.715677 
L 221.354893 204.824178 
L 221.594397 202.889315 
L 222.368452 200.235013 
L 222.610276 198.802471 
L 223.145121 197.480885 
L 223.50416 197.628857 
L 224.046296 199.170637 
L 224.343439 199.259496 
L 224.582601 200.129897 
L 224.879863 200.000826 
L 225.774325 201.877191 
L 225.953557 202.130277 
L 226.072009 201.809375 
L 226.553484 202.065204 
L 227.025385 202.414756 
L 227.264162 203.180242 
L 228.097371 199.983074 
L 228.276175 198.6499 
L 228.514977 198.298014 
L 228.75348 197.615091 
L 229.070165 198.318852 
L 229.36445 198.227749 
L 229.544257 198.857991 
L 229.721979 198.347606 
L 230.258787 198.473662 
L 230.557339 198.816133 
L 230.795324 199.653677 
L 231.033203 199.402494 
L 231.332523 199.613307 
L 231.512402 198.698893 
L 231.928034 198.443845 
L 231.98826 197.424903 
L 232.465955 198.175465 
L 232.942811 199.474951 
L 233.186582 199.069116 
L 233.478279 199.491848 
L 233.660737 198.929195 
L 233.954681 199.59405 
L 234.252051 199.847818 
L 234.431297 200.463889 
L 235.027384 200.000047 
L 235.206838 200.37413 
L 235.444132 200.537643 
L 235.682396 201.867133 
L 235.981562 202.398481 
L 236.279246 203.710292 
L 236.577343 203.525201 
L 237.474062 202.104506 
L 238.169337 198.638345 
L 238.397599 198.089522 
L 238.636284 196.928767 
L 239.141369 197.128608 
L 239.379322 198.306022 
L 239.840226 199.06358 
L 240.098316 200.550548 
L 240.392294 200.539995 
L 240.631739 201.019928 
L 240.869763 200.528535 
L 241.107026 200.947264 
L 241.345576 200.678467 
L 241.762828 200.918271 
L 242.001197 200.721539 
L 242.658347 197.098115 
L 242.856481 197.104615 
L 243.168317 197.253627 
L 243.55472 199.891536 
L 243.814282 201.528552 
L 244.092059 202.06459 
L 244.808656 201.299594 
L 245.104217 201.369769 
L 245.343396 200.591197 
L 245.641537 200.192927 
L 246.063258 199.010013 
L 246.29821 198.714328 
L 246.774928 199.019289 
L 247.074762 198.757217 
L 247.370322 198.893859 
L 247.550299 199.395279 
L 248.267448 202.43598 
L 248.503671 202.712341 
L 249.27868 202.455978 
L 249.755756 204.986188 
L 249.9945 206.059172 
L 250.234213 206.523419 
L 250.651073 206.427258 
L 250.772096 205.542933 
L 251.068182 204.82744 
L 251.485551 202.482757 
L 252.082632 201.175293 
L 252.214731 201.078522 
L 252.795714 200.16921 
L 253.513527 198.983936 
L 253.810733 199.335657 
L 253.931947 199.806022 
L 254.228649 199.621161 
L 254.586829 198.737366 
L 255.127567 197.018789 
L 255.240305 197.769475 
L 255.613246 199.139554 
L 255.724063 200.388492 
L 255.966285 200.803265 
L 256.19372 200.683185 
L 256.431699 199.999861 
L 256.789273 199.436465 
L 256.968337 199.833549 
L 257.504401 201.363664 
L 257.742897 200.378152 
L 257.923349 198.965633 
L 258.519461 196.6079 
L 258.696364 196.592338 
L 258.937027 198.077501 
L 259.593112 200.882611 
L 259.889674 200.295177 
L 260.425959 199.163545 
L 260.73192 199.348692 
L 260.962329 199.693286 
L 261.201122 200.312764 
L 261.397353 200.281018 
L 261.737001 199.69255 
L 262.394273 196.915005 
L 262.654667 197.51463 
L 263.168133 199.592142 
L 263.763231 201.322451 
L 263.882632 201.338472 
L 264.299466 201.029866 
L 264.3605 200.834979 
L 264.597897 200.563857 
L 264.956088 200.388746 
L 265.373312 199.298894 
L 265.911494 197.668679 
L 266.565461 197.950439 
L 266.81283 198.319508 
L 267.101689 198.541296 
L 267.280816 198.446626 
L 267.606951 198.42616 
L 267.856872 198.77505 
L 268.483061 199.238359 
L 268.675147 198.971343 
L 268.951074 199.420166 
L 269.075351 199.866215 
L 269.55089 201.05901 
L 270.031289 201.064435 
L 271.227969 199.499982 
L 271.416575 198.845688 
L 271.576541 198.833725 
L 271.75803 198.965858 
L 272.113281 199.655429 
L 272.261991 200.636489 
L 272.593247 201.114695 
L 272.831352 201.252035 
L 274.022425 199.272832 
L 274.261309 199.133416 
L 274.617965 199.472496 
L 275.511428 203.00417 
L 275.751157 204.737285 
L 276.171231 205.08783 
L 276.465935 204.202952 
L 276.943838 201.536879 
L 277.30182 200.933628 
L 277.599417 200.701681 
L 277.726347 200.80961 
L 277.957434 200.445894 
L 278.672125 197.872362 
L 278.913757 197.999042 
L 279.327936 199.124696 
L 279.448279 200.886098 
L 279.929695 201.840298 
L 280.899921 202.258053 
L 281.121606 202.797869 
L 281.662009 203.32007 
L 281.896875 202.259411 
L 282.373719 199.170494 
L 282.672546 199.024578 
L 283.448648 202.466054 
L 283.985133 203.607305 
L 284.103379 203.31589 
L 284.520863 203.267125 
L 284.586255 203.589746 
L 284.862988 203.172192 
L 285.133028 202.01705 
L 285.317336 200.516288 
L 285.77215 199.731236 
L 285.832476 199.021399 
L 286.070076 199.161693 
L 286.368448 198.893782 
L 286.845055 197.453242 
L 287.142483 197.405228 
L 288.104074 201.903639 
L 288.336497 202.182983 
L 288.515818 200.836035 
L 289.0502 199.373244 
L 289.354731 198.894617 
L 290.063872 200.309258 
L 290.789814 196.955167 
L 291.076474 196.51846 
L 291.257943 196.842681 
L 291.567388 198.215048 
L 291.732865 200.246995 
L 291.972965 201.106849 
L 292.270209 200.911963 
L 292.745936 197.955363 
L 293.24405 198.188465 
L 293.464715 200.676412 
L 293.820274 201.762675 
L 293.999205 201.636622 
L 294.491675 198.888521 
L 294.717265 197.602156 
L 295.131549 198.123695 
L 295.250828 199.573351 
L 295.548755 200.687955 
L 296.44426 199.097075 
L 297.18253 202.11176 
L 297.463618 201.532242 
L 298.05391 198.631514 
L 298.233173 197.709786 
L 298.59037 197.851881 
L 298.889732 198.168893 
L 298.94823 198.914279 
L 299.186102 198.161191 
L 299.66656 195.725475 
L 300.022783 195.360553 
L 300.199527 195.872976 
L 300.633524 198.034799 
L 300.919244 197.571781 
L 301.294228 196.611204 
L 301.537546 195.592449 
L 301.705471 195.75507 
L 302.476748 201.716225 
L 302.724234 202.544619 
L 302.951049 202.912477 
L 303.092979 202.476606 
L 303.639314 202.186893 
L 303.92671 202.517454 
L 304.164771 201.903038 
L 304.345503 200.462613 
L 304.701274 199.191885 
L 304.880211 197.772084 
L 305.419027 195.845473 
L 305.655187 196.520036 
L 306.012819 196.561121 
L 306.370477 195.94285 
L 306.727724 195.595057 
L 307.442992 146.479906 
L 307.873278 96.422003 
L 308.339314 78.965101 
L 308.576388 75.958733 
L 309.231579 74.187517 
L 309.654483 94.758595 
L 309.97169 117.797563 
L 310.089534 145.260703 
L 310.332804 172.186606 
L 310.747527 196.914158 
L 311.048395 202.404512 
L 311.400781 204.19227 
L 311.698045 203.970583 
L 311.817602 204.59977 
L 312.596586 199.546158 
L 313.13539 190.500607 
L 313.252365 184.98057 
L 313.78576 176.261595 
L 313.965634 176.802402 
L 314.502307 185.31771 
L 314.739507 189.23379 
L 314.977825 191.238327 
L 315.221798 191.515412 
L 315.515565 191.508912 
L 315.755115 192.555676 
L 316.477979 198.049321 
L 316.707552 197.159177 
L 317.186041 191.666536 
L 317.721248 188.367298 
L 318.14169 188.428223 
L 318.207171 189.121697 
L 318.735586 191.370546 
L 319.091834 192.591173 
L 319.449551 194.76853 
L 319.688982 195.43533 
L 319.932083 195.599484 
L 320.489863 194.848638 
L 320.879805 193.892164 
L 320.939453 192.247251 
L 321.657726 184.6802 
L 321.894005 183.834071 
L 322.132975 184.720615 
L 322.809316 188.910285 
L 322.912833 191.416878 
L 323.382974 195.987742 
L 323.800441 198.391384 
L 323.919764 200.371568 
L 324.218448 201.710541 
L 324.398794 201.760256 
L 324.694573 200.039232 
L 326.362898 186.078954 
L 326.661765 185.768486 
L 326.905221 186.313782 
L 327.378917 189.500429 
L 327.863545 191.013127 
L 328.218592 191.547073 
L 328.400133 191.541816 
L 328.660435 191.026337 
L 329.347164 189.100161 
L 329.822352 188.02231 
L 330.060978 188.496916 
L 331.554316 193.734029 
L 331.798858 193.547128 
L 332.295591 193.433274 
L 332.92853 192.932053 
L 333.047548 192.709344 
L 333.463311 192.408248 
L 333.582644 192.46236 
L 334.059047 191.775329 
L 334.357228 191.894401 
L 334.535941 192.158792 
L 334.77428 192.25719 
L 335.012937 192.115308 
L 335.554682 191.316675 
L 336.027717 189.86243 
L 336.230047 189.420852 
L 336.503215 189.695047 
L 336.861694 190.345593 
L 337.457125 192.400402 
L 337.8742 193.475767 
L 337.992974 194.633443 
L 338.710939 198.242905 
L 339.018781 197.997337 
L 339.430905 196.69429 
L 339.722419 196.558434 
L 340.024042 196.191932 
L 340.260765 195.377323 
L 340.684382 191.994365 
L 340.974023 190.566021 
L 341.271095 190.422602 
L 341.689226 192.751593 
L 342.108412 193.160059 
L 342.168521 192.53378 
L 342.663131 191.32411 
L 342.88779 191.763329 
L 343.240908 193.003213 
L 343.4796 194.402181 
L 343.777128 194.684385 
L 344.194534 191.914714 
L 344.492704 191.114948 
L 344.969858 192.169923 
L 345.147753 193.243585 
L 345.685682 194.651774 
L 345.98291 194.53701 
L 346.280825 194.238555 
L 346.400699 194.478018 
L 346.995736 196.776021 
L 347.293581 196.888471 
L 347.829568 195.318959 
L 347.90535 193.789574 
L 348.366669 191.120179 
L 348.604642 191.08999 
L 348.90322 191.89257 
L 349.200866 192.222032 
L 349.867889 190.726776 
L 350.333064 190.715079 
L 350.75242 191.222193 
L 351.051582 193.176252 
L 351.405524 192.799547 
L 351.837621 190.83534 
L 352.257007 191.791836 
L 352.364255 192.915182 
L 352.602357 193.379197 
L 352.840931 193.202384 
L 353.085691 192.729267 
L 353.377361 192.602327 
L 353.556137 192.063501 
L 353.860873 191.731518 
L 354.102425 192.122548 
L 354.392014 192.174797 
L 354.513693 192.078665 
L 354.766606 192.448962 
L 355.053003 193.516783 
L 355.524582 195.689623 
L 355.823137 194.865668 
L 356.061582 193.671857 
L 356.300154 193.861494 
L 356.587689 194.47113 
L 356.84103 194.364396 
L 357.553871 190.551816 
L 357.935759 190.810284 
L 358.030653 191.610123 
L 358.268044 192.507379 
L 358.56667 192.795363 
L 358.745127 192.294639 
L 358.983198 191.976662 
L 359.281135 192.802745 
L 359.758066 194.395265 
L 360.067986 193.743439 
L 360.299199 192.455521 
L 360.59336 191.833391 
L 360.775144 192.228289 
L 360.950784 193.500015 
L 361.250702 194.159184 
L 361.485653 193.720026 
L 361.802473 192.491539 
L 361.965514 192.320578 
L 362.56378 193.989919 
L 362.751305 193.946616 
L 363.166856 192.489629 
L 363.459258 192.256194 
L 363.877807 192.633817 
L 363.998223 192.426957 
L 364.415589 192.429471 
L 364.949815 191.523789 
L 365.426635 191.732362 
L 365.665324 191.407418 
L 365.963078 190.738628 
L 366.210437 190.592339 
L 366.499074 192.024651 
L 366.860758 193.150999 
L 367.156433 191.737702 
L 367.57195 191.594866 
L 367.630692 192.197602 
L 368.28706 193.702238 
L 368.34994 193.568944 
L 368.718009 192.506894 
L 368.883409 191.321535 
L 369.124034 191.042993 
L 369.478926 192.190375 
L 369.658682 193.697266 
L 369.962816 194.808031 
L 370.138563 194.485359 
L 370.373408 193.493053 
L 370.791639 192.938753 
L 370.912759 193.297876 
L 371.091622 194.548705 
L 371.328585 194.796843 
L 371.865734 193.145514 
L 372.105007 192.87761 
L 372.640846 192.582086 
L 372.820287 192.299081 
L 373.179091 192.108178 
L 373.41626 192.591423 
L 373.595093 192.358441 
L 373.952976 192.216691 
L 374.07202 192.446788 
L 374.31127 192.061461 
L 374.609038 191.215988 
L 374.846922 190.904226 
L 375.204302 191.940058 
L 375.382483 193.608302 
L 375.807796 194.735155 
L 376.038677 193.757733 
L 376.278435 193.362859 
L 376.575768 193.407557 
L 376.754142 194.112671 
L 377.052278 194.796595 
L 377.290691 194.656166 
L 378.00534 191.09927 
L 378.245978 191.359691 
L 378.662013 192.646366 
L 378.779468 194.056352 
L 379.079562 194.309955 
L 379.792441 191.597967 
L 380.209981 192.27428 
L 380.270583 193.355996 
L 380.509453 193.553633 
L 380.925624 192.718145 
L 381.045858 191.110491 
L 381.341659 189.717493 
L 381.521235 189.548378 
L 382.295311 193.688094 
L 382.47424 193.69797 
L 382.716196 192.651814 
L 383.010909 191.907958 
L 383.310569 191.801442 
L 383.48901 192.419097 
L 383.846639 193.184161 
L 383.964934 193.965439 
L 384.204218 193.742446 
L 384.920943 190.823771 
L 385.215894 190.205195 
L 385.698914 190.337996 
L 385.931863 190.609103 
L 387.065347 192.934458 
L 387.423292 194.007066 
L 387.661107 194.036279 
L 387.899473 193.901057 
L 388.144691 193.570573 
L 388.913053 191.220244 
L 389.454942 190.140519 
L 389.926507 188.98831 
L 390.106188 188.998463 
L 390.643997 190.346141 
L 391.118324 192.472344 
L 391.65498 193.309859 
L 391.893379 194.097558 
L 392.669684 197.826441 
L 393.02718 198.428688 
L 393.266841 198.560245 
L 393.504623 198.271311 
L 393.862223 195.601928 
L 394.637806 190.781481 
L 394.878295 189.647504 
L 395.114141 189.080005 
L 395.413015 188.945895 
L 396.843832 192.257224 
L 397.035122 192.349054 
L 397.560051 193.030453 
L 398.585387 194.492666 
L 398.813169 194.361729 
L 399.022604 193.79215 
L 399.531917 192.986065 
L 400.304813 191.546997 
L 400.781613 190.780364 
L 401.018391 190.718136 
L 401.498301 192.27608 
L 402.035863 193.245277 
L 402.274007 193.419374 
L 402.555498 192.95639 
L 402.872188 192.114456 
L 403.466513 189.880319 
L 403.763847 190.115475 
L 404.06342 191.063277 
L 404.481874 193.333145 
L 404.780652 193.982214 
L 404.957902 194.089599 
L 405.494709 193.906547 
L 405.733715 193.538629 
L 406.150189 192.575257 
L 406.22296 191.360735 
L 406.699843 189.349615 
L 407.094257 188.9889 
L 407.222319 189.198806 
L 408.110181 192.463659 
L 408.171083 193.798591 
L 408.467786 194.951027 
L 408.705538 195.426631 
L 408.947224 195.512567 
L 409.60073 194.36931 
L 409.660698 193.485899 
L 410.914207 190.12138 
L 411.346681 190.798617 
L 411.394451 191.484736 
L 411.691964 191.841412 
L 412.168443 191.751219 
L 412.764168 191.203098 
L 412.942779 190.883467 
L 413.361577 191.115276 
L 413.600064 190.968863 
L 414.375515 189.516434 
L 414.612557 189.528555 
L 414.851628 190.076839 
L 415.149726 191.258105 
L 415.330749 192.63779 
L 415.863312 193.631546 
L 415.871824 193.899853 
L 416.106461 193.597788 
L 416.642489 193.503169 
L 417.121838 193.509992 
L 417.478478 193.135935 
L 417.782821 191.625508 
L 418.313208 190.430243 
L 418.792555 190.919704 
L 419.212173 190.932053 
L 419.266786 191.160557 
L 419.625937 191.592986 
L 420.28297 193.709226 
L 421.54394 196.154812 
L 421.595588 196.507739 
L 422.073909 196.937713 
L 422.256645 196.558361 
L 422.788822 194.144476 
L 423.265582 191.446035 
L 423.504772 191.072471 
L 423.74235 191.092091 
L 424.412126 192.086261 
L 425.235023 196.699559 
L 425.480997 199.638564 
L 425.965544 209.809339 
L 426.458737 220.702166 
L 426.794478 222.397788 
L 427.101052 222.180897 
L 427.231531 221.809247 
L 427.51593 221.802274 
L 427.759176 222.310312 
L 428.052108 221.817487 
L 428.413673 212.422907 
L 428.836364 205.45313 
L 428.955581 199.42095 
L 429.18742 196.239219 
L 429.430516 194.544002 
L 430.264799 191.168855 
L 430.499653 190.729901 
L 431.277655 192.741824 
L 431.585346 192.688993 
L 431.728635 193.071011 
L 432.145195 197.125811 
L 432.416076 198.581924 
L 432.731349 198.28812 
L 433.246954 193.498995 
L 433.451223 191.711937 
L 433.665146 191.387768 
L 433.964357 192.684386 
L 434.142742 194.339146 
L 434.381269 194.940785 
L 434.997949 195.650686 
L 435.098089 196.567162 
L 435.455055 198.191021 
L 435.634082 199.553979 
L 435.899155 199.939123 
L 436.757143 198.596891 
L 437.174898 195.566883 
L 437.831465 190.946438 
L 438.308241 191.732737 
L 438.667106 195.335992 
L 438.84864 196.89611 
L 439.203743 197.284804 
L 439.32935 197.671984 
L 439.587684 197.927848 
L 439.860506 197.923482 
L 440.09899 197.510753 
L 441.775867 190.695972 
L 442.262767 190.313836 
L 442.55229 190.810275 
L 442.790225 191.703197 
L 443.029689 192.090984 
L 443.445843 191.929045 
L 443.53362 191.223983 
L 443.80455 190.394432 
L 444.10157 190.212677 
L 444.399442 191.049858 
L 444.818019 193.522213 
L 445.714857 196.540858 
L 445.964215 197.011775 
L 446.250673 197.280533 
L 446.735599 197.055834 
L 447.327102 196.382268 
L 447.982701 194.542874 
L 448.403106 194.327575 
L 448.938227 195.360155 
L 449.177353 194.994306 
L 449.598835 194.13907 
L 449.788248 192.917033 
L 450.024519 192.359458 
L 450.204405 192.241508 
L 450.621534 192.839759 
L 450.682193 194.080449 
L 451.338457 195.585959 
L 451.399986 195.98105 
L 451.813746 195.947402 
L 451.933234 196.054168 
L 452.410237 196.885708 
L 452.82738 197.157993 
L 452.946775 196.610166 
L 453.901894 189.659344 
L 454.143047 189.316858 
L 454.438849 189.284397 
L 454.618697 189.752028 
L 454.938383 189.728096 
L 455.397176 188.732755 
L 455.635167 188.177036 
L 455.877511 188.009238 
L 456.173359 188.354684 
L 457.076637 190.143094 
L 457.486093 189.640094 
L 457.633251 189.233922 
L 457.847524 189.078518 
L 458.105785 189.212527 
L 458.32148 190.037739 
L 458.808204 192.802129 
L 459.646853 195.604934 
L 460.300685 197.187947 
L 460.598908 197.579104 
L 460.836734 197.053325 
L 461.234538 195.711298 
L 461.558545 192.511489 
L 462.091757 190.732785 
L 462.398666 191.013889 
L 462.816983 193.673088 
L 463.179961 194.901216 
L 463.28692 196.255534 
L 464.072889 199.191174 
L 464.320637 199.832252 
L 464.544218 199.859273 
L 464.781239 199.365872 
L 465.319515 196.65442 
L 465.502724 195.039792 
L 466.273686 191.072784 
L 466.691576 190.58754 
L 466.810386 190.100662 
L 467.037735 189.639648 
L 467.272469 189.643964 
L 467.505697 189.452795 
L 467.807763 189.45092 
L 468.282927 190.009483 
L 468.587327 191.040888 
L 468.953042 193.487027 
L 469.716829 195.41065 
L 470.193432 196.303182 
L 470.999092 199.806927 
L 471.506328 200.512442 
L 471.744903 200.52899 
L 472.281026 201.325328 
L 472.413238 202.117369 
L 472.672721 202.883873 
L 472.942737 203.252798 
L 473.237728 203.064322 
L 473.896837 201.856509 
L 474.276647 201.922166 
L 474.93836 203.631843 
L 475.231962 204.191579 
L 475.454667 204.269599 
L 475.749702 203.974446 
L 475.939083 203.570114 
L 476.17761 203.565754 
L 476.724539 203.800127 
L 476.846124 203.985154 
L 477.138377 203.323605 
L 477.854287 200.663268 
L 478.152176 200.386782 
L 478.398605 200.578937 
L 478.646403 201.068284 
L 478.868384 200.970837 
L 479.108222 200.257517 
L 481.314748 189.732587 
L 481.674954 188.923558 
L 481.852016 188.242109 
L 482.092838 188.017318 
L 482.389213 187.934873 
L 482.925677 188.330876 
L 483.344272 188.498246 
L 483.642591 188.331046 
L 483.880396 188.058833 
L 484.321353 188.602279 
L 484.839118 189.358531 
L 485.132073 189.21991 
L 485.550787 188.132405 
L 486.027845 187.308728 
L 486.522284 187.26163 
L 487.238515 188.003159 
L 487.29849 188.426904 
L 487.59631 188.851701 
L 488.549642 192.927791 
L 488.730142 194.18658 
L 489.504111 196.015236 
L 489.806894 196.19231 
L 490.568581 198.687525 
L 490.96493 200.94479 
L 491.240308 201.77156 
L 491.584791 202.089133 
L 491.782384 202.082555 
L 492.022035 202.198846 
L 492.259152 202.460126 
L 492.498084 202.473405 
L 492.737063 202.889978 
L 492.974913 202.933416 
L 493.213871 202.662164 
L 493.930682 200.665599 
L 494.246704 200.838283 
L 494.287781 201.216868 
L 495.241894 202.932567 
L 495.722548 202.605868 
L 495.780352 202.112116 
L 495.958619 201.906112 
L 496.203305 201.969852 
L 496.396104 202.332048 
L 496.688782 202.356507 
L 497.510055 198.760333 
L 497.867388 196.362832 
L 498.287595 195.794056 
L 498.345069 196.016808 
L 498.949207 197.566788 
L 500.207372 200.992439 
L 500.630807 202.652133 
L 500.868873 202.967116 
L 501.112834 202.643536 
L 501.827858 200.349293 
L 502.122693 200.279226 
L 502.424592 200.659847 
L 503.136012 202.570481 
L 503.61223 202.631597 
L 503.85067 202.464276 
L 504.268746 202.790918 
L 504.329146 203.214159 
L 504.569776 203.897535 
L 504.904156 204.083061 
L 505.369257 203.416961 
L 505.840075 201.740247 
L 506.06122 201.514772 
L 506.852163 203.146803 
L 507.256581 203.417451 
L 507.553063 202.741541 
L 508.528018 201.980207 
L 508.885369 201.710805 
L 509.105985 201.09789 
L 509.327672 199.93848 
L 510.037742 194.758586 
L 510.797028 192.604053 
L 511.15401 192.055551 
L 511.340183 191.434198 
L 511.515701 190.426034 
L 511.810668 189.912411 
L 512.117989 190.179691 
L 512.589208 192.397147 
L 513.025949 195.345938 
L 513.779272 197.077161 
L 514.077099 197.322474 
L 514.259399 197.061776 
L 514.496964 195.583961 
L 515.03257 187.229635 
L 515.754742 170.665834 
L 516.001238 169.179471 
L 516.28825 169.643942 
L 516.465432 171.16274 
L 516.904123 172.561872 
L 517.481211 175.807153 
L 517.768534 181.465737 
L 518.018279 189.854485 
L 518.494558 194.726667 
L 518.5543 197.843647 
L 518.913059 198.664833 
L 519.451688 194.787806 
L 519.953515 194.707695 
L 520.234489 196.920255 
L 520.528014 197.328643 
L 520.951602 194.723782 
L 521.548585 192.259667 
L 521.91975 193.938371 
L 522.56745 202.60993 
L 522.804201 203.337948 
L 523.170917 201.390099 
L 523.885174 199.567517 
L 524.301954 198.874711 
L 524.899627 195.407531 
L 525.258621 190.137586 
L 525.638618 188.237879 
L 525.913162 188.921895 
L 526.577196 191.652474 
L 527.107649 191.8726 
L 527.36184 192.651191 
L 528.088503 196.802783 
L 528.357895 197.200534 
L 528.666061 196.917072 
L 528.897677 196.139974 
L 529.142079 195.748938 
L 529.439494 196.017868 
L 529.853886 197.857896 
L 530.163816 198.159434 
L 530.371433 197.740582 
L 530.879318 195.598876 
L 531.825108 191.683448 
L 532.840663 186.487839 
L 533.077101 185.924079 
L 533.318201 185.860807 
L 534.274035 188.093458 
L 535.121277 189.102807 
L 535.470202 189.607732 
L 535.545015 190.234095 
L 535.774911 190.460456 
L 536.014281 190.201922 
L 536.550053 189.025051 
L 537.023054 187.409687 
L 537.263401 187.053068 
L 537.504582 186.927161 
L 537.798254 187.15817 
L 538.056945 187.551011 
L 538.634965 189.068461 
L 538.814699 190.005811 
L 539.250751 191.108261 
L 539.353845 192.334964 
L 539.828521 194.423877 
L 539.948755 195.291201 
L 540.424821 196.062735 
L 540.966105 196.161676 
L 541.681659 196.115414 
L 541.916388 196.2915 
L 542.512103 196.05037 
L 542.691117 196.02225 
L 543.188837 195.486687 
L 543.406721 194.856635 
L 543.824918 194.243945 
L 544.133907 192.062657 
L 544.738871 189.835248 
L 544.902401 189.142882 
L 545.148624 188.71513 
L 546.032965 188.461148 
L 546.869418 189.704558 
L 547.169332 189.751023 
L 547.759634 188.868823 
L 547.964486 188.407449 
L 548.382889 188.024625 
L 548.621658 187.77185 
L 549.291941 188.644122 
L 549.575035 189.358193 
L 550.4772 192.64896 
L 550.604416 193.830564 
L 551.096578 196.019981 
L 551.207723 198.365017 
L 551.598114 199.597528 
L 551.840191 199.856744 
L 552.07549 199.68081 
L 552.612465 198.318322 
L 553.146703 195.928961 
L 553.56288 192.829491 
L 554.106053 191.705515 
L 554.582658 189.593444 
L 554.824221 188.714754 
L 555.01708 188.565719 
L 555.313085 189.408715 
L 555.791207 191.276793 
L 556.088432 191.430274 
L 556.516761 191.345396 
L 556.805571 191.489416 
L 557.300832 191.924737 
L 557.701423 191.384607 
L 558.00337 189.900721 
L 558.240046 190.058635 
L 558.537158 191.039184 
L 559.253665 194.977495 
L 560.05369 197.610916 
L 560.508561 197.888569 
L 560.746706 197.248574 
L 561.527183 193.454172 
L 561.704508 191.840495 
L 562.00136 190.428869 
L 562.303909 189.715093 
L 562.542548 189.581872 
L 562.954697 190.653732 
L 563.133461 191.168392 
L 563.194114 191.849626 
L 563.817686 191.914511 
L 564.949624 196.162393 
L 565.189427 196.399092 
L 565.492097 195.950663 
L 565.667759 195.222932 
L 565.965143 195.526989 
L 566.155913 196.543537 
L 566.441811 197.302786 
L 566.684577 197.127912 
L 567.69626 193.589831 
L 568.292976 195.098776 
L 568.427355 194.968239 
L 568.608239 193.868728 
L 568.904185 193.164966 
L 569.146754 193.75431 
L 569.620489 195.923469 
L 569.91819 195.457322 
L 570.457132 193.240101 
L 570.814208 193.360644 
L 571.051648 194.489223 
L 571.171613 195.88362 
L 571.353011 196.598191 
L 571.946887 194.701233 
L 572.19284 193.967089 
L 572.689107 195.727581 
L 572.872413 195.550602 
L 573.344611 194.132427 
L 573.638937 193.945332 
L 574.30943 194.988713 
L 574.831118 194.484945 
L 575.141361 194.501759 
L 575.30771 194.938957 
L 575.668718 194.708013 
L 575.804732 194.132131 
L 576.084377 193.6505 
L 576.323141 193.462029 
L 576.624525 193.994219 
L 577.157281 196.762887 
L 577.57543 196.47588 
L 577.99304 194.886587 
L 578.350111 195.484929 
L 578.528892 196.512388 
L 578.708895 196.542585 
L 579.036586 195.352401 
L 579.545654 191.610587 
L 579.788099 191.907312 
L 580.077802 192.982483 
L 580.256588 194.566868 
L 580.626648 195.487366 
L 580.796406 195.527624 
L 581.273096 195.033516 
L 581.756841 195.734163 
L 581.988926 196.277489 
L 582.28719 196.097201 
L 582.765615 193.808601 
L 583.183897 193.480989 
L 583.487398 194.229907 
L 583.838708 194.352958 
L 583.977108 194.2313 
L 584.201953 194.47531 
L 584.973711 194.500133 
L 585.57861 194.959011 
L 585.99516 193.456287 
L 586.236852 194.340093 
L 586.59246 194.677693 
L 586.890024 194.193263 
L 587.130374 194.191655 
L 587.250206 194.563913 
L 587.675567 194.475553 
L 588.147753 193.670833 
L 588.500645 193.8449 
L 588.931618 194.487118 
L 589.157686 194.433185 
L 589.632768 194.014176 
L 589.90017 194.302823 
L 590.140313 194.220558 
L 590.140313 194.220558 
" clip-path="url(#p4233673bf8)" style="fill: none; stroke: #ff0000; stroke-opacity: 0.5; stroke-width: 1.5; stroke-linecap: square"/>
   </g>
   <g id="patch_3">
    <path d="M 32.140313 277.92 
L 32.140313 0.72 
" style="fill: none; stroke: #000000; stroke-width: 0.8; stroke-linejoin: miter; stroke-linecap: square"/>
   </g>
   <g id="patch_4">
    <path d="M 590.140313 277.92 
L 590.140313 0.72 
" style="fill: none; stroke: #000000; stroke-width: 0.8; stroke-linejoin: miter; stroke-linecap: square"/>
   </g>
   <g id="patch_5">
    <path d="M 32.140313 277.92 
L 590.140313 277.92 
" style="fill: none; stroke: #000000; stroke-width: 0.8; stroke-linejoin: miter; stroke-linecap: square"/>
   </g>
   <g id="patch_6">
    <path d="M 32.140313 0.72 
L 590.140313 0.72 
" style="fill: none; stroke: #000000; stroke-width: 0.8; stroke-linejoin: miter; stroke-linecap: square"/>
   </g>
   <g id="legend_1">
    <g id="patch_7">
     <path d="M 509.371562 38.07625 
L 583.140312 38.07625 
Q 585.140312 38.07625 585.140312 36.07625 
L 585.140312 7.72 
Q 585.140312 5.72 583.140312 5.72 
L 509.371562 5.72 
Q 507.371562 5.72 507.371562 7.72 
L 507.371562 36.07625 
Q 507.371562 38.07625 509.371562 38.07625 
z
" style="fill: #ffffff; opacity: 0.8; stroke: #cccccc; stroke-linejoin: miter"/>
    </g>
    <g id="line2d_31">
     <path d="M 511.371562 13.818438 
L 521.371562 13.818438 
L 531.371562 13.818438 
" style="fill: none; stroke: #0000ff; stroke-opacity: 0.5; stroke-width: 1.5; stroke-linecap: square"/>
    </g>
    <g id="text_17">
     <!-- RNEA -->
     <g transform="translate(539.371562 17.318438) scale(0.1 -0.1)">
      <defs>
       <path id="DejaVuSans-52" d="M 2841 2188 
Q 3044 2119 3236 1894 
Q 3428 1669 3622 1275 
L 4263 0 
L 3584 0 
L 2988 1197 
Q 2756 1666 2539 1819 
Q 2322 1972 1947 1972 
L 1259 1972 
L 1259 0 
L 628 0 
L 628 4666 
L 2053 4666 
Q 2853 4666 3247 4331 
Q 3641 3997 3641 3322 
Q 3641 2881 3436 2590 
Q 3231 2300 2841 2188 
z
M 1259 4147 
L 1259 2491 
L 2053 2491 
Q 2509 2491 2742 2702 
Q 2975 2913 2975 3322 
Q 2975 3731 2742 3939 
Q 2509 4147 2053 4147 
L 1259 4147 
z
" transform="scale(0.015625)"/>
       <path id="DejaVuSans-45" d="M 628 4666 
L 3578 4666 
L 3578 4134 
L 1259 4134 
L 1259 2753 
L 3481 2753 
L 3481 2222 
L 1259 2222 
L 1259 531 
L 3634 531 
L 3634 0 
L 628 0 
L 628 4666 
z
" transform="scale(0.015625)"/>
       <path id="DejaVuSans-41" d="M 2188 4044 
L 1331 1722 
L 3047 1722 
L 2188 4044 
z
M 1831 4666 
L 2547 4666 
L 4325 0 
L 3669 0 
L 3244 1197 
L 1141 1197 
L 716 0 
L 50 0 
L 1831 4666 
z
" transform="scale(0.015625)"/>
      </defs>
      <use xlink:href="#DejaVuSans-52"/>
      <use xlink:href="#DejaVuSans-4e" x="69.482422"/>
      <use xlink:href="#DejaVuSans-45" x="144.287109"/>
      <use xlink:href="#DejaVuSans-41" x="207.470703"/>
     </g>
    </g>
    <g id="line2d_32">
     <path d="M 511.371562 28.496563 
L 521.371562 28.496563 
L 531.371562 28.496563 
" style="fill: none; stroke: #ff0000; stroke-opacity: 0.5; stroke-width: 1.5; stroke-linecap: square"/>
    </g>
    <g id="text_18">
     <!-- BURNEA -->
     <g transform="translate(539.371562 31.996563) scale(0.1 -0.1)">
      <defs>
       <path id="DejaVuSans-42" d="M 1259 2228 
L 1259 519 
L 2272 519 
Q 2781 519 3026 730 
Q 3272 941 3272 1375 
Q 3272 1813 3026 2020 
Q 2781 2228 2272 2228 
L 1259 2228 
z
M 1259 4147 
L 1259 2741 
L 2194 2741 
Q 2656 2741 2882 2914 
Q 3109 3088 3109 3444 
Q 3109 3797 2882 3972 
Q 2656 4147 2194 4147 
L 1259 4147 
z
M 628 4666 
L 2241 4666 
Q 2963 4666 3353 4366 
Q 3744 4066 3744 3513 
Q 3744 3084 3544 2831 
Q 3344 2578 2956 2516 
Q 3422 2416 3680 2098 
Q 3938 1781 3938 1306 
Q 3938 681 3513 340 
Q 3088 0 2303 0 
L 628 0 
L 628 4666 
z
" transform="scale(0.015625)"/>
       <path id="DejaVuSans-55" d="M 556 4666 
L 1191 4666 
L 1191 1831 
Q 1191 1081 1462 751 
Q 1734 422 2344 422 
Q 2950 422 3222 751 
Q 3494 1081 3494 1831 
L 3494 4666 
L 4128 4666 
L 4128 1753 
Q 4128 841 3676 375 
Q 3225 -91 2344 -91 
Q 1459 -91 1007 375 
Q 556 841 556 1753 
L 556 4666 
z
" transform="scale(0.015625)"/>
      </defs>
      <use xlink:href="#DejaVuSans-42"/>
      <use xlink:href="#DejaVuSans-55" x="68.603516"/>
      <use xlink:href="#DejaVuSans-52" x="141.796875"/>
      <use xlink:href="#DejaVuSans-4e" x="211.279297"/>
      <use xlink:href="#DejaVuSans-45" x="286.083984"/>
      <use xlink:href="#DejaVuSans-41" x="349.267578"/>
     </g>
    </g>
   </g>
  </g>
 </g>
 <defs>
  <clipPath id="p4233673bf8">
   <rect x="32.140313" y="0.72" width="558" height="277.2"/>
  </clipPath>
 </defs>
</svg>
