<?xml version="1.0" encoding="utf-8" standalone="no"?>
<!DOCTYPE svg PUBLIC "-//W3C//DTD SVG 1.1//EN"
  "http://www.w3.org/Graphics/SVG/1.1/DTD/svg11.dtd">
<svg xmlns:xlink="http://www.w3.org/1999/xlink" width="588.843125pt" height="304.99625pt" viewBox="0 0 588.843125 304.99625" xmlns="http://www.w3.org/2000/svg" version="1.1">
 <metadata>
  <rdf:RDF xmlns:dc="http://purl.org/dc/elements/1.1/" xmlns:cc="http://creativecommons.org/ns#" xmlns:rdf="http://www.w3.org/1999/02/22-rdf-syntax-ns#">
   <cc:Work>
    <dc:type rdf:resource="http://purl.org/dc/dcmitype/StillImage"/>
    <dc:date>2023-09-07T03:30:45.988228</dc:date>
    <dc:format>image/svg+xml</dc:format>
    <dc:creator>
     <cc:Agent>
      <dc:title>Matplotlib v3.7.2, https://matplotlib.org/</dc:title>
     </cc:Agent>
    </dc:creator>
   </cc:Work>
  </rdf:RDF>
 </metadata>
 <defs>
  <style type="text/css">*{stroke-linejoin: round; stroke-linecap: butt}</style>
 </defs>
 <g id="figure_1">
  <g id="patch_1">
   <path d="M 0 304.99625 
L 588.843125 304.99625 
L 588.843125 0 
L 0 0 
L 0 304.99625 
z
" style="fill: none"/>
  </g>
  <g id="axes_1">
   <g id="patch_2">
    <path d="M 30.123125 277.92 
L 588.123125 277.92 
L 588.123125 0.72 
L 30.123125 0.72 
L 30.123125 277.92 
z
" style="fill: none"/>
   </g>
   <g id="matplotlib.axis_1">
    <g id="xtick_1">
     <g id="line2d_1">
      <path d="M 30.123125 277.92 
L 30.123125 0.72 
" clip-path="url(#pc0e4ffea47)" style="fill: none; stroke-dasharray: 0.8,1.32; stroke-dashoffset: 0; stroke: #000000; stroke-opacity: 0.5; stroke-width: 0.8"/>
     </g>
     <g id="line2d_2">
      <defs>
       <path id="m5876766246" d="M 0 0 
L 0 3.5 
" style="stroke: #000000; stroke-width: 0.8"/>
      </defs>
      <g>
       <use xlink:href="#m5876766246" x="30.123125" y="277.92" style="stroke: #000000; stroke-width: 0.8"/>
      </g>
     </g>
     <g id="text_1">
      <!-- 0.0 -->
      <g transform="translate(22.171563 292.518438) scale(0.1 -0.1)">
       <defs>
        <path id="DejaVuSans-30" d="M 2034 4250 
Q 1547 4250 1301 3770 
Q 1056 3291 1056 2328 
Q 1056 1369 1301 889 
Q 1547 409 2034 409 
Q 2525 409 2770 889 
Q 3016 1369 3016 2328 
Q 3016 3291 2770 3770 
Q 2525 4250 2034 4250 
z
M 2034 4750 
Q 2819 4750 3233 4129 
Q 3647 3509 3647 2328 
Q 3647 1150 3233 529 
Q 2819 -91 2034 -91 
Q 1250 -91 836 529 
Q 422 1150 422 2328 
Q 422 3509 836 4129 
Q 1250 4750 2034 4750 
z
" transform="scale(0.015625)"/>
        <path id="DejaVuSans-2e" d="M 684 794 
L 1344 794 
L 1344 0 
L 684 0 
L 684 794 
z
" transform="scale(0.015625)"/>
       </defs>
       <use xlink:href="#DejaVuSans-30"/>
       <use xlink:href="#DejaVuSans-2e" x="63.623047"/>
       <use xlink:href="#DejaVuSans-30" x="95.410156"/>
      </g>
     </g>
    </g>
    <g id="xtick_2">
     <g id="line2d_3">
      <path d="M 104.27445 277.92 
L 104.27445 0.72 
" clip-path="url(#pc0e4ffea47)" style="fill: none; stroke-dasharray: 0.8,1.32; stroke-dashoffset: 0; stroke: #000000; stroke-opacity: 0.5; stroke-width: 0.8"/>
     </g>
     <g id="line2d_4">
      <g>
       <use xlink:href="#m5876766246" x="104.27445" y="277.92" style="stroke: #000000; stroke-width: 0.8"/>
      </g>
     </g>
     <g id="text_2">
      <!-- 2.5 -->
      <g transform="translate(96.322887 292.518438) scale(0.1 -0.1)">
       <defs>
        <path id="DejaVuSans-32" d="M 1228 531 
L 3431 531 
L 3431 0 
L 469 0 
L 469 531 
Q 828 903 1448 1529 
Q 2069 2156 2228 2338 
Q 2531 2678 2651 2914 
Q 2772 3150 2772 3378 
Q 2772 3750 2511 3984 
Q 2250 4219 1831 4219 
Q 1534 4219 1204 4116 
Q 875 4013 500 3803 
L 500 4441 
Q 881 4594 1212 4672 
Q 1544 4750 1819 4750 
Q 2544 4750 2975 4387 
Q 3406 4025 3406 3419 
Q 3406 3131 3298 2873 
Q 3191 2616 2906 2266 
Q 2828 2175 2409 1742 
Q 1991 1309 1228 531 
z
" transform="scale(0.015625)"/>
        <path id="DejaVuSans-35" d="M 691 4666 
L 3169 4666 
L 3169 4134 
L 1269 4134 
L 1269 2991 
Q 1406 3038 1543 3061 
Q 1681 3084 1819 3084 
Q 2600 3084 3056 2656 
Q 3513 2228 3513 1497 
Q 3513 744 3044 326 
Q 2575 -91 1722 -91 
Q 1428 -91 1123 -41 
Q 819 9 494 109 
L 494 744 
Q 775 591 1075 516 
Q 1375 441 1709 441 
Q 2250 441 2565 725 
Q 2881 1009 2881 1497 
Q 2881 1984 2565 2268 
Q 2250 2553 1709 2553 
Q 1456 2553 1204 2497 
Q 953 2441 691 2322 
L 691 4666 
z
" transform="scale(0.015625)"/>
       </defs>
       <use xlink:href="#DejaVuSans-32"/>
       <use xlink:href="#DejaVuSans-2e" x="63.623047"/>
       <use xlink:href="#DejaVuSans-35" x="95.410156"/>
      </g>
     </g>
    </g>
    <g id="xtick_3">
     <g id="line2d_5">
      <path d="M 178.425775 277.92 
L 178.425775 0.72 
" clip-path="url(#pc0e4ffea47)" style="fill: none; stroke-dasharray: 0.8,1.32; stroke-dashoffset: 0; stroke: #000000; stroke-opacity: 0.5; stroke-width: 0.8"/>
     </g>
     <g id="line2d_6">
      <g>
       <use xlink:href="#m5876766246" x="178.425775" y="277.92" style="stroke: #000000; stroke-width: 0.8"/>
      </g>
     </g>
     <g id="text_3">
      <!-- 5.0 -->
      <g transform="translate(170.474212 292.518438) scale(0.1 -0.1)">
       <use xlink:href="#DejaVuSans-35"/>
       <use xlink:href="#DejaVuSans-2e" x="63.623047"/>
       <use xlink:href="#DejaVuSans-30" x="95.410156"/>
      </g>
     </g>
    </g>
    <g id="xtick_4">
     <g id="line2d_7">
      <path d="M 252.5771 277.92 
L 252.5771 0.72 
" clip-path="url(#pc0e4ffea47)" style="fill: none; stroke-dasharray: 0.8,1.32; stroke-dashoffset: 0; stroke: #000000; stroke-opacity: 0.5; stroke-width: 0.8"/>
     </g>
     <g id="line2d_8">
      <g>
       <use xlink:href="#m5876766246" x="252.5771" y="277.92" style="stroke: #000000; stroke-width: 0.8"/>
      </g>
     </g>
     <g id="text_4">
      <!-- 7.5 -->
      <g transform="translate(244.625537 292.518438) scale(0.1 -0.1)">
       <defs>
        <path id="DejaVuSans-37" d="M 525 4666 
L 3525 4666 
L 3525 4397 
L 1831 0 
L 1172 0 
L 2766 4134 
L 525 4134 
L 525 4666 
z
" transform="scale(0.015625)"/>
       </defs>
       <use xlink:href="#DejaVuSans-37"/>
       <use xlink:href="#DejaVuSans-2e" x="63.623047"/>
       <use xlink:href="#DejaVuSans-35" x="95.410156"/>
      </g>
     </g>
    </g>
    <g id="xtick_5">
     <g id="line2d_9">
      <path d="M 326.728425 277.92 
L 326.728425 0.72 
" clip-path="url(#pc0e4ffea47)" style="fill: none; stroke-dasharray: 0.8,1.32; stroke-dashoffset: 0; stroke: #000000; stroke-opacity: 0.5; stroke-width: 0.8"/>
     </g>
     <g id="line2d_10">
      <g>
       <use xlink:href="#m5876766246" x="326.728425" y="277.92" style="stroke: #000000; stroke-width: 0.8"/>
      </g>
     </g>
     <g id="text_5">
      <!-- 10.0 -->
      <g transform="translate(315.595612 292.518438) scale(0.1 -0.1)">
       <defs>
        <path id="DejaVuSans-31" d="M 794 531 
L 1825 531 
L 1825 4091 
L 703 3866 
L 703 4441 
L 1819 4666 
L 2450 4666 
L 2450 531 
L 3481 531 
L 3481 0 
L 794 0 
L 794 531 
z
" transform="scale(0.015625)"/>
       </defs>
       <use xlink:href="#DejaVuSans-31"/>
       <use xlink:href="#DejaVuSans-30" x="63.623047"/>
       <use xlink:href="#DejaVuSans-2e" x="127.246094"/>
       <use xlink:href="#DejaVuSans-30" x="159.033203"/>
      </g>
     </g>
    </g>
    <g id="xtick_6">
     <g id="line2d_11">
      <path d="M 400.87975 277.92 
L 400.87975 0.72 
" clip-path="url(#pc0e4ffea47)" style="fill: none; stroke-dasharray: 0.8,1.32; stroke-dashoffset: 0; stroke: #000000; stroke-opacity: 0.5; stroke-width: 0.8"/>
     </g>
     <g id="line2d_12">
      <g>
       <use xlink:href="#m5876766246" x="400.87975" y="277.92" style="stroke: #000000; stroke-width: 0.8"/>
      </g>
     </g>
     <g id="text_6">
      <!-- 12.5 -->
      <g transform="translate(389.746937 292.518438) scale(0.1 -0.1)">
       <use xlink:href="#DejaVuSans-31"/>
       <use xlink:href="#DejaVuSans-32" x="63.623047"/>
       <use xlink:href="#DejaVuSans-2e" x="127.246094"/>
       <use xlink:href="#DejaVuSans-35" x="159.033203"/>
      </g>
     </g>
    </g>
    <g id="xtick_7">
     <g id="line2d_13">
      <path d="M 475.031075 277.92 
L 475.031075 0.72 
" clip-path="url(#pc0e4ffea47)" style="fill: none; stroke-dasharray: 0.8,1.32; stroke-dashoffset: 0; stroke: #000000; stroke-opacity: 0.5; stroke-width: 0.8"/>
     </g>
     <g id="line2d_14">
      <g>
       <use xlink:href="#m5876766246" x="475.031075" y="277.92" style="stroke: #000000; stroke-width: 0.8"/>
      </g>
     </g>
     <g id="text_7">
      <!-- 15.0 -->
      <g transform="translate(463.898262 292.518438) scale(0.1 -0.1)">
       <use xlink:href="#DejaVuSans-31"/>
       <use xlink:href="#DejaVuSans-35" x="63.623047"/>
       <use xlink:href="#DejaVuSans-2e" x="127.246094"/>
       <use xlink:href="#DejaVuSans-30" x="159.033203"/>
      </g>
     </g>
    </g>
    <g id="xtick_8">
     <g id="line2d_15">
      <path d="M 549.182399 277.92 
L 549.182399 0.72 
" clip-path="url(#pc0e4ffea47)" style="fill: none; stroke-dasharray: 0.8,1.32; stroke-dashoffset: 0; stroke: #000000; stroke-opacity: 0.5; stroke-width: 0.8"/>
     </g>
     <g id="line2d_16">
      <g>
       <use xlink:href="#m5876766246" x="549.182399" y="277.92" style="stroke: #000000; stroke-width: 0.8"/>
      </g>
     </g>
     <g id="text_8">
      <!-- 17.5 -->
      <g transform="translate(538.049587 292.518438) scale(0.1 -0.1)">
       <use xlink:href="#DejaVuSans-31"/>
       <use xlink:href="#DejaVuSans-37" x="63.623047"/>
       <use xlink:href="#DejaVuSans-2e" x="127.246094"/>
       <use xlink:href="#DejaVuSans-35" x="159.033203"/>
      </g>
     </g>
    </g>
    <g id="text_9">
     <!-- Zeit [s] -->
     <g transform="translate(291.177031 302.196563) scale(0.1 -0.1)">
      <defs>
       <path id="DejaVuSans-5a" d="M 359 4666 
L 4025 4666 
L 4025 4184 
L 1075 531 
L 4097 531 
L 4097 0 
L 288 0 
L 288 481 
L 3238 4134 
L 359 4134 
L 359 4666 
z
" transform="scale(0.015625)"/>
       <path id="DejaVuSans-65" d="M 3597 1894 
L 3597 1613 
L 953 1613 
Q 991 1019 1311 708 
Q 1631 397 2203 397 
Q 2534 397 2845 478 
Q 3156 559 3463 722 
L 3463 178 
Q 3153 47 2828 -22 
Q 2503 -91 2169 -91 
Q 1331 -91 842 396 
Q 353 884 353 1716 
Q 353 2575 817 3079 
Q 1281 3584 2069 3584 
Q 2775 3584 3186 3129 
Q 3597 2675 3597 1894 
z
M 3022 2063 
Q 3016 2534 2758 2815 
Q 2500 3097 2075 3097 
Q 1594 3097 1305 2825 
Q 1016 2553 972 2059 
L 3022 2063 
z
" transform="scale(0.015625)"/>
       <path id="DejaVuSans-69" d="M 603 3500 
L 1178 3500 
L 1178 0 
L 603 0 
L 603 3500 
z
M 603 4863 
L 1178 4863 
L 1178 4134 
L 603 4134 
L 603 4863 
z
" transform="scale(0.015625)"/>
       <path id="DejaVuSans-74" d="M 1172 4494 
L 1172 3500 
L 2356 3500 
L 2356 3053 
L 1172 3053 
L 1172 1153 
Q 1172 725 1289 603 
Q 1406 481 1766 481 
L 2356 481 
L 2356 0 
L 1766 0 
Q 1100 0 847 248 
Q 594 497 594 1153 
L 594 3053 
L 172 3053 
L 172 3500 
L 594 3500 
L 594 4494 
L 1172 4494 
z
" transform="scale(0.015625)"/>
       <path id="DejaVuSans-20" transform="scale(0.015625)"/>
       <path id="DejaVuSans-5b" d="M 550 4863 
L 1875 4863 
L 1875 4416 
L 1125 4416 
L 1125 -397 
L 1875 -397 
L 1875 -844 
L 550 -844 
L 550 4863 
z
" transform="scale(0.015625)"/>
       <path id="DejaVuSans-73" d="M 2834 3397 
L 2834 2853 
Q 2591 2978 2328 3040 
Q 2066 3103 1784 3103 
Q 1356 3103 1142 2972 
Q 928 2841 928 2578 
Q 928 2378 1081 2264 
Q 1234 2150 1697 2047 
L 1894 2003 
Q 2506 1872 2764 1633 
Q 3022 1394 3022 966 
Q 3022 478 2636 193 
Q 2250 -91 1575 -91 
Q 1294 -91 989 -36 
Q 684 19 347 128 
L 347 722 
Q 666 556 975 473 
Q 1284 391 1588 391 
Q 1994 391 2212 530 
Q 2431 669 2431 922 
Q 2431 1156 2273 1281 
Q 2116 1406 1581 1522 
L 1381 1569 
Q 847 1681 609 1914 
Q 372 2147 372 2553 
Q 372 3047 722 3315 
Q 1072 3584 1716 3584 
Q 2034 3584 2315 3537 
Q 2597 3491 2834 3397 
z
" transform="scale(0.015625)"/>
       <path id="DejaVuSans-5d" d="M 1947 4863 
L 1947 -844 
L 622 -844 
L 622 -397 
L 1369 -397 
L 1369 4416 
L 622 4416 
L 622 4863 
L 1947 4863 
z
" transform="scale(0.015625)"/>
      </defs>
      <use xlink:href="#DejaVuSans-5a"/>
      <use xlink:href="#DejaVuSans-65" x="68.505859"/>
      <use xlink:href="#DejaVuSans-69" x="130.029297"/>
      <use xlink:href="#DejaVuSans-74" x="157.8125"/>
      <use xlink:href="#DejaVuSans-20" x="197.021484"/>
      <use xlink:href="#DejaVuSans-5b" x="228.808594"/>
      <use xlink:href="#DejaVuSans-73" x="267.822266"/>
      <use xlink:href="#DejaVuSans-5d" x="319.921875"/>
     </g>
    </g>
   </g>
   <g id="matplotlib.axis_2">
    <g id="ytick_1">
     <g id="line2d_17">
      <path d="M 30.123125 256.193186 
L 588.123125 256.193186 
" clip-path="url(#pc0e4ffea47)" style="fill: none; stroke-dasharray: 0.8,1.32; stroke-dashoffset: 0; stroke: #000000; stroke-opacity: 0.5; stroke-width: 0.8"/>
     </g>
     <g id="line2d_18">
      <defs>
       <path id="m43c74d0f29" d="M 0 0 
L -3.5 0 
" style="stroke: #000000; stroke-width: 0.8"/>
      </defs>
      <g>
       <use xlink:href="#m43c74d0f29" x="30.123125" y="256.193186" style="stroke: #000000; stroke-width: 0.8"/>
      </g>
     </g>
     <g id="text_10">
      <!-- 5 -->
      <g transform="translate(16.760625 259.992405) scale(0.1 -0.1)">
       <use xlink:href="#DejaVuSans-35"/>
      </g>
     </g>
    </g>
    <g id="ytick_2">
     <g id="line2d_19">
      <path d="M 30.123125 223.703545 
L 588.123125 223.703545 
" clip-path="url(#pc0e4ffea47)" style="fill: none; stroke-dasharray: 0.8,1.32; stroke-dashoffset: 0; stroke: #000000; stroke-opacity: 0.5; stroke-width: 0.8"/>
     </g>
     <g id="line2d_20">
      <g>
       <use xlink:href="#m43c74d0f29" x="30.123125" y="223.703545" style="stroke: #000000; stroke-width: 0.8"/>
      </g>
     </g>
     <g id="text_11">
      <!-- 10 -->
      <g transform="translate(10.398125 227.502764) scale(0.1 -0.1)">
       <use xlink:href="#DejaVuSans-31"/>
       <use xlink:href="#DejaVuSans-30" x="63.623047"/>
      </g>
     </g>
    </g>
    <g id="ytick_3">
     <g id="line2d_21">
      <path d="M 30.123125 191.213904 
L 588.123125 191.213904 
" clip-path="url(#pc0e4ffea47)" style="fill: none; stroke-dasharray: 0.8,1.32; stroke-dashoffset: 0; stroke: #000000; stroke-opacity: 0.5; stroke-width: 0.8"/>
     </g>
     <g id="line2d_22">
      <g>
       <use xlink:href="#m43c74d0f29" x="30.123125" y="191.213904" style="stroke: #000000; stroke-width: 0.8"/>
      </g>
     </g>
     <g id="text_12">
      <!-- 15 -->
      <g transform="translate(10.398125 195.013123) scale(0.1 -0.1)">
       <use xlink:href="#DejaVuSans-31"/>
       <use xlink:href="#DejaVuSans-35" x="63.623047"/>
      </g>
     </g>
    </g>
    <g id="ytick_4">
     <g id="line2d_23">
      <path d="M 30.123125 158.724263 
L 588.123125 158.724263 
" clip-path="url(#pc0e4ffea47)" style="fill: none; stroke-dasharray: 0.8,1.32; stroke-dashoffset: 0; stroke: #000000; stroke-opacity: 0.5; stroke-width: 0.8"/>
     </g>
     <g id="line2d_24">
      <g>
       <use xlink:href="#m43c74d0f29" x="30.123125" y="158.724263" style="stroke: #000000; stroke-width: 0.8"/>
      </g>
     </g>
     <g id="text_13">
      <!-- 20 -->
      <g transform="translate(10.398125 162.523481) scale(0.1 -0.1)">
       <use xlink:href="#DejaVuSans-32"/>
       <use xlink:href="#DejaVuSans-30" x="63.623047"/>
      </g>
     </g>
    </g>
    <g id="ytick_5">
     <g id="line2d_25">
      <path d="M 30.123125 126.234622 
L 588.123125 126.234622 
" clip-path="url(#pc0e4ffea47)" style="fill: none; stroke-dasharray: 0.8,1.32; stroke-dashoffset: 0; stroke: #000000; stroke-opacity: 0.5; stroke-width: 0.8"/>
     </g>
     <g id="line2d_26">
      <g>
       <use xlink:href="#m43c74d0f29" x="30.123125" y="126.234622" style="stroke: #000000; stroke-width: 0.8"/>
      </g>
     </g>
     <g id="text_14">
      <!-- 25 -->
      <g transform="translate(10.398125 130.03384) scale(0.1 -0.1)">
       <use xlink:href="#DejaVuSans-32"/>
       <use xlink:href="#DejaVuSans-35" x="63.623047"/>
      </g>
     </g>
    </g>
    <g id="ytick_6">
     <g id="line2d_27">
      <path d="M 30.123125 93.74498 
L 588.123125 93.74498 
" clip-path="url(#pc0e4ffea47)" style="fill: none; stroke-dasharray: 0.8,1.32; stroke-dashoffset: 0; stroke: #000000; stroke-opacity: 0.5; stroke-width: 0.8"/>
     </g>
     <g id="line2d_28">
      <g>
       <use xlink:href="#m43c74d0f29" x="30.123125" y="93.74498" style="stroke: #000000; stroke-width: 0.8"/>
      </g>
     </g>
     <g id="text_15">
      <!-- 30 -->
      <g transform="translate(10.398125 97.544199) scale(0.1 -0.1)">
       <defs>
        <path id="DejaVuSans-33" d="M 2597 2516 
Q 3050 2419 3304 2112 
Q 3559 1806 3559 1356 
Q 3559 666 3084 287 
Q 2609 -91 1734 -91 
Q 1441 -91 1130 -33 
Q 819 25 488 141 
L 488 750 
Q 750 597 1062 519 
Q 1375 441 1716 441 
Q 2309 441 2620 675 
Q 2931 909 2931 1356 
Q 2931 1769 2642 2001 
Q 2353 2234 1838 2234 
L 1294 2234 
L 1294 2753 
L 1863 2753 
Q 2328 2753 2575 2939 
Q 2822 3125 2822 3475 
Q 2822 3834 2567 4026 
Q 2313 4219 1838 4219 
Q 1578 4219 1281 4162 
Q 984 4106 628 3988 
L 628 4550 
Q 988 4650 1302 4700 
Q 1616 4750 1894 4750 
Q 2613 4750 3031 4423 
Q 3450 4097 3450 3541 
Q 3450 3153 3228 2886 
Q 3006 2619 2597 2516 
z
" transform="scale(0.015625)"/>
       </defs>
       <use xlink:href="#DejaVuSans-33"/>
       <use xlink:href="#DejaVuSans-30" x="63.623047"/>
      </g>
     </g>
    </g>
    <g id="ytick_7">
     <g id="line2d_29">
      <path d="M 30.123125 61.255339 
L 588.123125 61.255339 
" clip-path="url(#pc0e4ffea47)" style="fill: none; stroke-dasharray: 0.8,1.32; stroke-dashoffset: 0; stroke: #000000; stroke-opacity: 0.5; stroke-width: 0.8"/>
     </g>
     <g id="line2d_30">
      <g>
       <use xlink:href="#m43c74d0f29" x="30.123125" y="61.255339" style="stroke: #000000; stroke-width: 0.8"/>
      </g>
     </g>
     <g id="text_16">
      <!-- 35 -->
      <g transform="translate(10.398125 65.054558) scale(0.1 -0.1)">
       <use xlink:href="#DejaVuSans-33"/>
       <use xlink:href="#DejaVuSans-35" x="63.623047"/>
      </g>
     </g>
    </g>
    <g id="ytick_8">
     <g id="line2d_31">
      <path d="M 30.123125 28.765698 
L 588.123125 28.765698 
" clip-path="url(#pc0e4ffea47)" style="fill: none; stroke-dasharray: 0.8,1.32; stroke-dashoffset: 0; stroke: #000000; stroke-opacity: 0.5; stroke-width: 0.8"/>
     </g>
     <g id="line2d_32">
      <g>
       <use xlink:href="#m43c74d0f29" x="30.123125" y="28.765698" style="stroke: #000000; stroke-width: 0.8"/>
      </g>
     </g>
     <g id="text_17">
      <!-- 40 -->
      <g transform="translate(10.398125 32.564917) scale(0.1 -0.1)">
       <defs>
        <path id="DejaVuSans-34" d="M 2419 4116 
L 825 1625 
L 2419 1625 
L 2419 4116 
z
M 2253 4666 
L 3047 4666 
L 3047 1625 
L 3713 1625 
L 3713 1100 
L 3047 1100 
L 3047 0 
L 2419 0 
L 2419 1100 
L 313 1100 
L 313 1709 
L 2253 4666 
z
" transform="scale(0.015625)"/>
       </defs>
       <use xlink:href="#DejaVuSans-34"/>
       <use xlink:href="#DejaVuSans-30" x="63.623047"/>
      </g>
     </g>
    </g>
    <g id="text_18">
     <!-- 2-Norm F [N] -->
     <g transform="translate(8.318437 171.639531) rotate(-90) scale(0.1 -0.1)">
      <defs>
       <path id="DejaVuSans-2d" d="M 313 2009 
L 1997 2009 
L 1997 1497 
L 313 1497 
L 313 2009 
z
" transform="scale(0.015625)"/>
       <path id="DejaVuSans-4e" d="M 628 4666 
L 1478 4666 
L 3547 763 
L 3547 4666 
L 4159 4666 
L 4159 0 
L 3309 0 
L 1241 3903 
L 1241 0 
L 628 0 
L 628 4666 
z
" transform="scale(0.015625)"/>
       <path id="DejaVuSans-6f" d="M 1959 3097 
Q 1497 3097 1228 2736 
Q 959 2375 959 1747 
Q 959 1119 1226 758 
Q 1494 397 1959 397 
Q 2419 397 2687 759 
Q 2956 1122 2956 1747 
Q 2956 2369 2687 2733 
Q 2419 3097 1959 3097 
z
M 1959 3584 
Q 2709 3584 3137 3096 
Q 3566 2609 3566 1747 
Q 3566 888 3137 398 
Q 2709 -91 1959 -91 
Q 1206 -91 779 398 
Q 353 888 353 1747 
Q 353 2609 779 3096 
Q 1206 3584 1959 3584 
z
" transform="scale(0.015625)"/>
       <path id="DejaVuSans-72" d="M 2631 2963 
Q 2534 3019 2420 3045 
Q 2306 3072 2169 3072 
Q 1681 3072 1420 2755 
Q 1159 2438 1159 1844 
L 1159 0 
L 581 0 
L 581 3500 
L 1159 3500 
L 1159 2956 
Q 1341 3275 1631 3429 
Q 1922 3584 2338 3584 
Q 2397 3584 2469 3576 
Q 2541 3569 2628 3553 
L 2631 2963 
z
" transform="scale(0.015625)"/>
       <path id="DejaVuSans-6d" d="M 3328 2828 
Q 3544 3216 3844 3400 
Q 4144 3584 4550 3584 
Q 5097 3584 5394 3201 
Q 5691 2819 5691 2113 
L 5691 0 
L 5113 0 
L 5113 2094 
Q 5113 2597 4934 2840 
Q 4756 3084 4391 3084 
Q 3944 3084 3684 2787 
Q 3425 2491 3425 1978 
L 3425 0 
L 2847 0 
L 2847 2094 
Q 2847 2600 2669 2842 
Q 2491 3084 2119 3084 
Q 1678 3084 1418 2786 
Q 1159 2488 1159 1978 
L 1159 0 
L 581 0 
L 581 3500 
L 1159 3500 
L 1159 2956 
Q 1356 3278 1631 3431 
Q 1906 3584 2284 3584 
Q 2666 3584 2933 3390 
Q 3200 3197 3328 2828 
z
" transform="scale(0.015625)"/>
       <path id="DejaVuSans-46" d="M 628 4666 
L 3309 4666 
L 3309 4134 
L 1259 4134 
L 1259 2759 
L 3109 2759 
L 3109 2228 
L 1259 2228 
L 1259 0 
L 628 0 
L 628 4666 
z
" transform="scale(0.015625)"/>
      </defs>
      <use xlink:href="#DejaVuSans-32"/>
      <use xlink:href="#DejaVuSans-2d" x="63.623047"/>
      <use xlink:href="#DejaVuSans-4e" x="99.707031"/>
      <use xlink:href="#DejaVuSans-6f" x="174.511719"/>
      <use xlink:href="#DejaVuSans-72" x="235.693359"/>
      <use xlink:href="#DejaVuSans-6d" x="275.056641"/>
      <use xlink:href="#DejaVuSans-20" x="372.46875"/>
      <use xlink:href="#DejaVuSans-46" x="404.255859"/>
      <use xlink:href="#DejaVuSans-20" x="461.775391"/>
      <use xlink:href="#DejaVuSans-5b" x="493.5625"/>
      <use xlink:href="#DejaVuSans-4e" x="532.576172"/>
      <use xlink:href="#DejaVuSans-5d" x="607.380859"/>
     </g>
    </g>
   </g>
   <g id="line2d_33">
    <path d="M 30.123125 160.753637 
L 214.868789 160.753637 
L 215.174569 156.677731 
L 215.352363 160.764298 
L 215.668525 160.903849 
L 215.881492 161.179361 
L 216.118788 161.058004 
L 216.359289 161.430132 
L 216.59693 162.01738 
L 217.134269 162.314879 
L 217.371343 162.148529 
L 217.609101 162.320628 
L 217.84713 161.495608 
L 218.145853 162.102222 
L 218.327664 161.88542 
L 218.804764 161.990786 
L 219.04314 160.865388 
L 219.099552 162.143248 
L 219.337705 161.805085 
L 219.577209 161.688816 
L 220.112245 162.150603 
L 220.351264 162.17227 
L 220.593088 161.996219 
L 220.832019 160.70052 
L 221.127934 162.097158 
L 221.618941 162.131216 
L 221.793381 162.625168 
L 222.029109 162.429142 
L 222.326252 162.68608 
L 222.565413 162.060024 
L 222.862676 160.604045 
L 223.250459 161.621573 
L 223.284031 162.662623 
L 223.757138 161.669194 
L 223.93637 161.631518 
L 224.054822 162.43209 
L 224.536297 161.550069 
L 224.828764 161.627906 
L 225.008197 158.640669 
L 225.246975 162.560645 
L 225.48488 160.908069 
L 225.783985 162.061542 
L 226.080183 159.790417 
L 226.258988 162.796753 
L 226.736293 159.925727 
L 227.052978 161.874822 
L 227.347263 160.957765 
L 227.704792 161.609133 
L 228.004529 160.905544 
L 228.2416 160.834692 
L 228.540151 160.569535 
L 228.778137 160.688838 
L 229.315336 162.801906 
L 229.495215 162.841091 
L 229.910847 160.23155 
L 229.971073 163.200082 
L 230.209576 162.076482 
L 230.448768 161.926606 
L 230.685381 161.5744 
L 230.925624 162.367602 
L 231.169394 161.553785 
L 231.461092 163.462371 
L 231.64355 163.64649 
L 231.937494 162.078789 
L 232.234864 161.140455 
L 232.41411 162.918236 
L 232.772152 161.655168 
L 233.010197 159.179057 
L 233.189651 162.494866 
L 233.426944 161.06651 
L 233.665209 160.885469 
L 233.964375 162.470462 
L 234.560156 163.072365 
L 234.739127 161.160019 
L 235.036373 161.270898 
L 235.159733 161.881224 
L 235.456875 161.346444 
L 235.873879 158.977494 
L 236.152149 161.958329 
L 236.380411 161.530905 
L 236.619096 163.256196 
L 237.124182 161.87695 
L 237.362134 163.936437 
L 237.823038 161.472899 
L 237.958255 161.72444 
L 238.081129 161.537384 
L 238.375106 163.069065 
L 238.614552 161.050474 
L 238.852576 163.722786 
L 239.089839 163.725127 
L 239.328388 162.560925 
L 239.74564 158.990537 
L 240.163568 164.228104 
L 240.469002 161.858138 
L 240.641159 159.47894 
L 240.839294 161.965545 
L 241.15113 162.53063 
L 241.417307 162.432998 
L 241.537532 160.721184 
L 241.797094 161.715507 
L 242.074872 163.343432 
L 242.313392 166.396622 
L 242.61055 161.136409 
L 242.791468 161.874825 
L 243.087029 158.486765 
L 243.326209 159.359019 
L 243.624349 164.535169 
L 243.864177 164.043217 
L 244.046071 161.214169 
L 244.281023 162.694923 
L 244.578787 166.19823 
L 244.75774 161.4741 
L 245.057575 160.501703 
L 245.353135 163.207452 
L 245.533112 162.835314 
L 245.771346 164.369097 
L 246.010666 158.521127 
L 246.25026 163.43513 
L 246.486483 160.961811 
L 246.903507 162.093647 
L 247.261493 157.824917 
L 247.322644 164.220556 
L 247.499549 160.090184 
L 247.738568 160.999042 
L 247.977313 163.261522 
L 248.217025 160.695327 
L 248.633886 160.985352 
L 248.754909 163.201432 
L 249.050994 157.364643 
L 249.230972 164.678255 
L 249.825402 160.817399 
L 250.065445 161.442432 
L 250.197543 157.209247 
L 250.480138 160.417356 
L 250.778526 156.490477 
L 251.10823 162.778888 
L 251.35046 162.78159 
L 251.496339 159.834622 
L 251.793546 158.775371 
L 251.91476 161.788132 
L 252.211462 160.050743 
L 252.569641 163.018282 
L 252.943275 163.343363 
L 253.223118 158.765532 
L 253.596059 161.762306 
L 253.706875 160.790167 
L 253.949097 161.183702 
L 254.176532 161.836869 
L 254.414511 167.719151 
L 254.772085 165.0611 
L 254.951149 156.723458 
L 255.368012 160.868427 
L 255.487213 158.811333 
L 255.72571 161.729628 
L 255.906162 157.276352 
L 256.263516 162.083774 
L 256.679177 162.840075 
L 256.919839 166.779352 
L 257.335085 159.556369 
L 257.575925 162.564476 
L 257.812261 154.46063 
L 257.872486 164.522042 
L 258.110123 165.864481 
L 258.408772 163.871503 
L 258.714732 165.765791 
L 258.945141 160.656814 
L 259.183935 162.02259 
L 259.380165 161.092272 
L 259.719814 165.540119 
L 259.958324 156.87487 
L 260.153103 159.427067 
L 260.377085 165.21107 
L 260.63748 162.025893 
L 260.853957 162.251245 
L 261.150946 166.969842 
L 261.507691 167.39828 
L 261.746044 165.738976 
L 261.865445 165.927687 
L 262.282279 161.86185 
L 262.343313 158.184466 
L 262.58071 159.756272 
L 262.9389 162.902754 
L 263.181965 156.024076 
L 263.356124 162.116303 
L 263.595345 164.024451 
L 263.894307 165.495392 
L 264.074825 161.802535 
L 264.548274 160.149897 
L 264.795642 153.459266 
L 265.084502 161.058964 
L 265.263629 161.542963 
L 265.589764 164.818341 
L 265.839685 161.24262 
L 266.278576 159.841856 
L 266.65796 163.744459 
L 266.933887 164.064934 
L 267.058163 165.662976 
L 267.411941 166.70707 
L 267.533703 159.012557 
L 267.828523 163.586518 
L 268.014101 161.752424 
L 268.432639 163.180549 
L 268.66939 164.46525 
L 268.782396 168.051483 
L 269.210781 158.234678 
L 269.399388 158.429311 
L 269.559354 164.191364 
L 269.740843 161.57809 
L 270.096093 166.748348 
L 270.244804 158.67652 
L 270.57606 167.367759 
L 271.051486 164.546313 
L 271.232644 161.251079 
L 271.527868 162.297428 
L 271.707272 163.979843 
L 272.005238 160.406154 
L 272.244122 160.05253 
L 272.600777 155.34447 
L 272.780413 164.756322 
L 273.077454 158.788326 
L 273.214384 158.518745 
L 273.49424 164.569172 
L 273.676928 161.005604 
L 273.733969 153.796254 
L 274.154043 161.589516 
L 274.688678 154.468939 
L 274.92665 158.201611 
L 275.284632 172.143972 
L 275.709159 152.942241 
L 275.940247 162.538229 
L 276.183647 165.831379 
L 276.476713 161.23933 
L 276.654938 155.106588 
L 276.89657 160.729808 
L 277.310749 161.556158 
L 277.431092 156.670926 
L 277.669096 169.309544 
L 277.912507 158.63041 
L 278.147 159.837943 
L 278.389726 155.879289 
L 278.62756 159.800199 
L 278.882733 160.528877 
L 279.104418 167.821939 
L 279.521077 162.526068 
L 279.644821 156.175614 
L 279.879687 161.72715 
L 280.117835 158.779772 
L 280.655358 167.919651 
L 280.861082 165.723303 
L 281.075381 151.135521 
L 281.848016 168.012168 
L 281.967945 160.261355 
L 282.086192 168.172883 
L 282.503676 153.339172 
L 282.569068 163.431415 
L 282.845801 162.680987 
L 283.11584 163.87041 
L 283.300149 166.268657 
L 283.815288 153.671319 
L 284.052888 161.058596 
L 284.35126 160.425683 
L 284.589595 163.077854 
L 284.827867 156.849597 
L 285.309372 159.430987 
L 285.544541 156.844792 
L 285.84146 169.553999 
L 286.086887 159.650348 
L 286.31931 158.704479 
L 286.793973 165.533914 
L 287.337543 157.703127 
L 287.568415 158.096831 
L 287.814733 159.491249 
L 288.046685 158.555789 
L 288.227943 162.282927 
L 288.582163 162.139201 
L 288.772627 158.136266 
L 289.059287 159.086556 
L 289.240755 156.126504 
L 289.5502 155.999321 
L 289.715678 168.108009 
L 289.955778 161.896324 
L 290.253021 161.425894 
L 290.490549 154.439573 
L 290.728749 171.535802 
L 291.226862 161.502954 
L 291.982018 170.142167 
L 292.220479 158.040263 
L 292.700077 158.099511 
L 293.114361 159.515042 
L 293.23364 167.320585 
L 293.531567 156.053536 
L 293.710872 162.115562 
L 294.067926 159.009126 
L 294.246711 169.939296 
L 294.427073 154.672389 
L 294.961636 167.767048 
L 295.165343 164.127987 
L 295.446431 166.178785 
L 295.739424 166.170019 
L 296.036723 158.086779 
L 296.573182 166.362805 
L 297.168915 154.725536 
L 297.46677 164.600048 
L 297.649372 151.158813 
L 298.005595 152.817457 
L 298.182339 163.11871 
L 298.421822 156.877199 
L 298.616337 162.476677 
L 298.902056 161.849432 
L 299.27704 160.693295 
L 299.520358 158.99609 
L 299.688283 153.988538 
L 299.919438 171.969897 
L 300.15821 166.701598 
L 300.459561 162.832819 
L 300.707047 167.479553 
L 300.933861 157.618209 
L 301.075791 165.096834 
L 301.550623 154.824561 
L 301.622126 161.011163 
L 301.909523 159.875535 
L 302.147583 153.168208 
L 302.328316 163.70126 
L 302.684087 173.112363 
L 302.863023 160.212419 
L 303.231896 156.013508 
L 303.401839 159.462516 
L 303.637999 168.038496 
L 304.122059 152.490961 
L 304.35329 160.642086 
L 304.710537 160.720309 
L 304.83295 75.366538 
L 305.188585 87.894736 
L 305.425805 86.881856 
L 305.856091 144.957647 
L 306.200463 139.593356 
L 306.322127 158.173658 
L 306.5592 163.937269 
L 306.858029 160.160822 
L 307.214392 161.099617 
L 307.302903 163.38361 
L 307.637296 165.750297 
L 308.072346 163.489469 
L 308.315617 163.091009 
L 308.615877 159.656513 
L 308.730339 161.963731 
L 309.031207 160.500213 
L 309.383594 160.290686 
L 309.680858 161.221124 
L 309.800414 160.376518 
L 309.979502 161.234266 
L 310.339239 160.133681 
L 310.815115 160.689121 
L 311.118203 160.436825 
L 311.235178 160.735041 
L 311.53079 160.329043 
L 311.768573 160.756562 
L 311.948446 160.753644 
L 312.245044 160.398895 
L 312.485119 160.753639 
L 312.722319 160.181036 
L 312.960637 160.703164 
L 313.20461 160.741954 
L 313.498378 160.171051 
L 313.737928 160.626919 
L 314.21232 160.74678 
L 314.930803 160.755191 
L 315.168853 160.523086 
L 315.584216 160.563677 
L 315.70406 162.618249 
L 316.189983 160.704331 
L 316.42247 160.601118 
L 316.718399 160.780197 
L 317.074647 160.546539 
L 317.25364 160.265961 
L 317.432363 160.707827 
L 317.671794 160.480194 
L 317.914895 160.530611 
L 318.151071 160.748651 
L 318.472675 160.672481 
L 319.399299 160.753574 
L 319.640538 160.743593 
L 319.876818 161.42032 
L 320.115788 160.575029 
L 320.792128 160.771125 
L 321.128649 160.484789 
L 321.783254 160.735675 
L 322.677386 160.742473 
L 322.932735 160.613546 
L 323.154001 160.722749 
L 324.108231 160.746928 
L 324.34571 161.288836 
L 324.644577 160.718439 
L 326.201405 160.678844 
L 326.643248 160.74831 
L 327.089964 160.695441 
L 327.329977 160.510988 
L 328.043791 160.73225 
L 329.537129 160.753636 
L 329.78167 160.512335 
L 330.611606 160.747212 
L 330.911342 160.543485 
L 331.03036 160.74479 
L 332.04186 160.719332 
L 332.340041 160.598188 
L 332.518753 160.74412 
L 332.757093 160.686059 
L 333.235316 160.733039 
L 334.010529 160.730523 
L 334.486028 160.753839 
L 334.844506 160.583882 
L 334.984644 160.753637 
L 338.006855 160.746129 
L 338.243577 160.635972 
L 338.667195 160.752399 
L 340.450469 160.753439 
L 341.885672 160.742449 
L 342.177346 160.357056 
L 342.475516 160.734675 
L 342.95267 160.743251 
L 343.130565 160.488433 
L 343.487863 160.505585 
L 343.668495 160.74861 
L 344.383512 160.750026 
L 344.621943 160.554332 
L 344.978549 160.744637 
L 345.397608 160.752338 
L 345.81238 160.576463 
L 345.888162 160.714809 
L 346.349482 160.753602 
L 347.183678 160.753636 
L 347.311673 160.587994 
L 347.613688 160.753632 
L 347.850702 160.753616 
L 348.315877 160.559349 
L 348.735232 160.597013 
L 348.852659 160.738495 
L 350.23982 160.753636 
L 350.585169 160.694153 
L 351.068503 160.750228 
L 351.843685 160.738964 
L 352.374827 160.572924 
L 352.749419 160.751442 
L 353.035816 160.690076 
L 353.507395 160.753624 
L 354.570502 160.681752 
L 354.823842 160.503853 
L 355.043759 160.7526 
L 355.242315 160.749713 
L 355.536683 160.580083 
L 356.013465 160.753387 
L 356.966011 160.748886 
L 357.263948 160.439317 
L 357.561894 160.752561 
L 357.740879 160.747342 
L 358.050798 160.590192 
L 358.282011 160.753636 
L 359.948326 160.743987 
L 360.249998 160.623058 
L 360.734118 160.749884 
L 361.442071 160.743431 
L 361.86062 160.391939 
L 361.981036 160.730146 
L 362.635531 160.752335 
L 362.932628 160.603075 
L 363.175411 160.748796 
L 365.139245 160.751107 
L 365.554762 160.567987 
L 365.613505 160.003432 
L 365.976781 160.748729 
L 367.945628 160.713103 
L 368.121376 160.42016 
L 368.35622 160.749167 
L 368.895572 160.751744 
L 369.074435 160.512513 
L 370.326098 160.753592 
L 370.623659 160.571717 
L 370.803099 160.753517 
L 376.76228 160.577703 
L 377.062374 160.75333 
L 377.602641 160.64854 
L 377.775253 160.631509 
L 378.492265 160.750613 
L 378.908437 160.753589 
L 379.02867 160.502444 
L 379.741872 160.753209 
L 379.980884 160.599249 
L 380.457053 160.753494 
L 382.187031 160.749068 
L 382.486546 160.39273 
L 382.903756 160.698613 
L 383.681727 160.75235 
L 384.154398 160.637997 
L 384.634599 160.751639 
L 385.04816 160.597263 
L 385.882286 160.752945 
L 386.776852 160.743417 
L 386.895865 160.637055 
L 387.437755 160.747442 
L 388.089 160.752009 
L 389.876192 160.752263 
L 390.114282 160.602207 
L 390.353094 160.753593 
L 391.249654 160.741206 
L 391.487436 160.548452 
L 391.606455 160.670071 
L 392.085061 160.743194 
L 393.096953 160.742025 
L 393.575418 160.75123 
L 393.874001 160.442547 
L 394.051656 160.695887 
L 394.528838 160.753606 
L 394.826644 160.739749 
L 395.017934 160.590284 
L 395.253901 160.753175 
L 396.261625 160.732532 
L 396.568199 160.518473 
L 396.795982 160.752722 
L 397.272992 160.735485 
L 397.51473 160.451555 
L 397.752949 160.751146 
L 398.583536 160.752576 
L 398.764426 160.323479 
L 399.001204 160.436958 
L 399.240305 160.748766 
L 399.838134 160.719067 
L 400.018676 160.348658 
L 400.25682 160.753576 
L 401.090948 160.671785 
L 401.210035 160.527156 
L 401.449325 160.468913 
L 401.746659 160.749196 
L 403.477521 160.731579 
L 403.716528 160.5605 
L 404.205773 160.74878 
L 406.092994 160.751673 
L 406.153896 160.595818 
L 406.688351 160.746691 
L 410.151255 160.752357 
L 411.34439 160.636576 
L 411.582876 160.752973 
L 413.846124 160.727474 
L 413.854636 148.195137 
L 414.089273 160.750619 
L 414.445526 160.618251 
L 414.872439 160.711086 
L 415.46129 160.750247 
L 415.580891 160.69165 
L 416.057363 160.737885 
L 416.775368 160.739775 
L 417.194986 160.391113 
L 417.249598 160.591441 
L 417.792339 160.750877 
L 419.065712 160.751766 
L 419.279479 160.619821 
L 420.771635 160.753609 
L 421.016292 160.629543 
L 421.248394 160.326225 
L 421.487584 160.752817 
L 421.725162 160.521423 
L 421.964634 160.480761 
L 422.524135 160.75349 
L 422.742295 160.752545 
L 422.977964 135.903428 
L 423.217836 150.092241 
L 423.463809 147.983047 
L 423.71597 151.212005 
L 423.948356 158.630483 
L 424.182209 151.731349 
L 424.441549 155.147649 
L 424.77729 155.207903 
L 425.083864 163.086634 
L 425.214343 160.774633 
L 425.498742 159.680798 
L 425.741988 169.56372 
L 426.396486 156.464963 
L 426.938394 168.034286 
L 427.413328 160.466943 
L 427.783895 163.328784 
L 427.944655 169.876521 
L 428.247611 159.846467 
L 428.482465 161.020501 
L 428.720579 163.955214 
L 429.021035 158.444975 
L 429.260467 162.095405 
L 429.568158 154.440311 
L 429.711448 159.592218 
L 429.862725 158.791264 
L 430.128007 163.497313 
L 430.398889 165.798602 
L 430.714162 162.978937 
L 430.879803 163.013499 
L 431.229767 158.14956 
L 431.434036 161.555318 
L 431.647958 152.199175 
L 431.94717 158.016445 
L 432.125555 170.376365 
L 432.364081 163.28864 
L 432.605916 171.444933 
L 433.080902 156.372826 
L 433.437867 164.071144 
L 433.616895 162.326489 
L 433.881968 161.762429 
L 434.096693 171.596488 
L 434.502401 154.917476 
L 434.927308 164.073772 
L 435.157711 162.270541 
L 435.455677 165.241639 
L 435.636023 157.39575 
L 435.814278 159.699657 
L 436.291054 164.011849 
L 436.41292 160.777088 
L 436.649919 159.834236 
L 436.831453 162.709207 
L 437.186556 159.334141 
L 437.312162 162.900731 
L 437.570496 166.025056 
L 437.843319 164.614792 
L 438.081803 159.823581 
L 438.323842 162.025994 
L 438.559792 171.877339 
L 438.802744 163.068681 
L 439.037712 168.446595 
L 439.276447 161.033968 
L 439.758679 156.153485 
L 440.05765 165.394091 
L 440.245579 160.014265 
L 440.535103 156.170209 
L 440.773037 156.023887 
L 441.012501 164.295862 
L 441.428656 162.494001 
L 441.516433 160.262882 
L 441.787362 166.590751 
L 442.084382 159.478007 
L 442.382254 161.220053 
L 442.562402 156.143212 
L 442.800832 158.337708 
L 443.046215 163.768296 
L 443.278965 162.512153 
L 443.459506 162.200486 
L 443.69767 167.794923 
L 443.947028 168.118558 
L 444.485158 158.350956 
L 444.718411 157.814556 
L 445.089995 160.779665 
L 445.253115 160.532206 
L 445.309914 165.496646 
L 445.429631 161.444463 
L 445.754679 160.232323 
L 445.965514 154.410848 
L 446.385918 163.32659 
L 446.46744 156.065789 
L 446.692181 157.467385 
L 446.921039 171.650143 
L 447.160166 155.279844 
L 447.581647 157.782357 
L 447.77106 162.206834 
L 448.007332 151.60288 
L 448.187218 159.855679 
L 448.604346 168.31612 
L 448.665006 159.091743 
L 449.082957 172.310367 
L 449.321269 162.269449 
L 449.382798 164.237598 
L 449.796559 158.704419 
L 449.916047 154.316779 
L 450.39305 164.033098 
L 450.810193 160.41162 
L 450.929587 161.704872 
L 451.168624 158.045682 
L 451.412842 162.073908 
L 451.467111 159.277573 
L 451.647295 161.094004 
L 451.884706 153.86778 
L 452.125859 161.770361 
L 452.421661 155.406596 
L 452.60151 160.781292 
L 452.921195 159.509753 
L 453.081445 157.889608 
L 453.61798 163.214792 
L 453.860324 162.331386 
L 454.156172 160.390521 
L 454.574673 150.464594 
L 454.872956 166.340378 
L 455.059449 160.502 
L 455.616064 165.111031 
L 455.830337 153.365789 
L 456.088598 158.773755 
L 456.543655 157.780735 
L 456.791016 167.37187 
L 457.08999 159.868788 
L 457.331101 159.357231 
L 457.629665 151.111415 
L 457.86423 162.932024 
L 458.103932 157.243688 
L 458.283498 160.194703 
L 458.581721 170.26023 
L 458.819546 163.22041 
L 459.21735 160.534551 
L 459.36474 162.716687 
L 459.541358 167.690306 
L 459.932015 163.570857 
L 460.074569 157.624313 
L 460.381478 163.432505 
L 460.5515 155.557661 
L 460.799795 163.35922 
L 461.269733 159.576194 
L 461.513684 159.126236 
L 461.748647 160.10519 
L 462.055702 159.817534 
L 462.30345 160.717987 
L 462.527031 151.098463 
L 462.764051 163.68175 
L 463.302327 152.51596 
L 463.485536 169.178678 
L 463.782033 162.303101 
L 464.077098 159.973369 
L 464.256499 160.978894 
L 464.674389 160.733712 
L 465.020548 166.987198 
L 465.488509 151.877029 
L 465.790576 165.049556 
L 465.97518 158.434113 
L 466.26574 161.094361 
L 466.57014 165.121908 
L 466.745966 165.845873 
L 466.935855 155.548915 
L 467.221898 161.798304 
L 467.460772 170.023183 
L 467.699642 161.535014 
L 467.937374 159.638105 
L 468.176245 162.045939 
L 468.415774 155.897648 
L 468.83277 158.378633 
L 468.981905 162.600718 
L 469.370258 158.990795 
L 469.48914 165.988458 
L 469.727716 161.885642 
L 469.966174 168.965376 
L 470.263839 161.270966 
L 470.396051 161.435734 
L 470.655533 163.704107 
L 470.92555 159.625374 
L 471.22054 162.093736 
L 471.419186 158.806993 
L 471.638963 163.68196 
L 471.879649 153.001473 
L 472.25946 160.109676 
L 472.417567 157.009165 
L 472.921173 166.377633 
L 473.43748 155.996431 
L 473.921895 160.788654 
L 474.160422 160.260477 
L 474.41647 158.814464 
L 474.707352 160.037225 
L 474.828936 162.442789 
L 475.121189 161.288021 
L 475.41949 153.532283 
L 475.717586 161.491735 
L 475.8371 160.611758 
L 476.134988 160.765852 
L 476.381417 160.741063 
L 476.629215 158.176591 
L 476.851197 158.557909 
L 477.091035 159.340903 
L 477.389133 156.9821 
L 477.627668 160.566308 
L 477.868291 158.330703 
L 478.10364 159.543923 
L 478.342011 164.165012 
L 478.826827 158.161104 
L 479.060672 160.790312 
L 479.297561 160.306084 
L 479.657767 162.83459 
L 480.07565 162.034795 
L 480.372025 165.724125 
L 480.908489 152.423863 
L 481.160632 161.282458 
L 481.327084 158.106886 
L 481.625403 162.011457 
L 481.863208 155.294775 
L 482.101703 159.719547 
L 482.304165 158.582966 
L 482.520064 167.256948 
L 482.821931 168.081036 
L 483.114886 162.14366 
L 483.361665 161.090708 
L 483.533599 165.684163 
L 483.774518 154.132793 
L 484.010657 158.253294 
L 484.326117 160.612738 
L 484.505097 159.750735 
L 484.74324 164.277716 
L 485.281302 159.111675 
L 485.579122 155.618858 
L 485.761522 159.548745 
L 486.00095 160.792378 
L 486.234616 160.791951 
L 486.712954 152.180994 
L 487.011874 163.86307 
L 487.308375 159.152545 
L 487.486924 161.101784 
L 487.789707 167.192919 
L 488.027649 159.415313 
L 488.264475 158.335552 
L 488.551393 159.518883 
L 488.74236 158.886966 
L 488.947743 158.787561 
L 489.223121 160.176783 
L 489.567603 166.156697 
L 489.765197 155.704002 
L 490.241965 164.637128 
L 490.480897 150.616631 
L 490.719876 163.725215 
L 490.957726 159.566647 
L 491.196684 160.224503 
L 491.437921 166.812842 
L 491.7338 163.234866 
L 491.913495 153.430333 
L 492.229516 161.927303 
L 492.270594 160.43617 
L 492.750643 155.864377 
L 493.046267 160.005612 
L 493.224707 155.89669 
L 493.705361 162.886417 
L 493.763164 162.656063 
L 493.941431 152.956573 
L 494.186117 160.302995 
L 494.378916 160.744139 
L 494.671594 160.795328 
L 494.896223 168.849001 
L 495.135806 163.465592 
L 495.492868 159.003962 
L 495.671719 159.554657 
L 495.8502 150.772083 
L 496.327882 163.112875 
L 496.689799 163.035212 
L 496.932019 159.630776 
L 497.168272 162.469095 
L 497.402562 160.314928 
L 497.640581 162.249856 
L 497.886356 166.5365 
L 498.36707 158.491665 
L 498.61362 161.005857 
L 498.851685 156.746374 
L 499.328344 163.17443 
L 499.626206 156.728691 
L 499.810671 165.57532 
L 500.407404 153.027702 
L 500.640172 156.087117 
L 500.895681 162.980063 
L 501.118825 165.877686 
L 501.54229 152.896272 
L 501.595042 163.849483 
L 501.833482 154.506044 
L 502.311959 159.749152 
L 502.552589 167.456636 
L 503.047454 159.899094 
L 503.35207 160.477792 
L 503.566242 158.005469 
L 503.822888 157.622268 
L 504.044032 162.823038 
L 504.28324 162.806143 
L 504.522981 156.884592 
L 504.834976 158.691412 
L 505.239393 159.130069 
L 505.300663 161.335803 
L 505.535876 158.989924 
L 506.018683 159.633373 
L 506.191851 160.601354 
L 506.323481 155.586645 
L 506.51083 166.010793 
L 506.868182 150.606519 
L 507.310485 162.425011 
L 507.538751 161.075461 
L 507.777893 158.594588 
L 508.020555 159.404073 
L 508.382825 155.747786 
L 508.542524 160.797694 
L 508.779841 163.734089 
L 509.136823 160.700057 
L 509.322995 166.28965 
L 509.498514 161.503043 
L 509.793481 170.213983 
L 510.100802 157.024105 
L 510.273436 155.8209 
L 510.57202 159.193218 
L 510.750414 159.227168 
L 511.008762 161.49457 
L 511.345579 167.151521 
L 511.480353 159.495867 
L 511.762084 174.926103 
L 512.059912 167.315464 
L 512.479777 170.323437 
L 512.735515 171.360647 
L 513.015383 166.827834 
L 513.258013 165.474343 
L 513.493993 166.878716 
L 513.737555 160.414843 
L 513.98405 163.385977 
L 514.271062 159.287395 
L 514.886935 159.698078 
L 515.118139 160.469085 
L 515.464023 160.47114 
L 515.751347 160.70642 
L 516.47737 160.873345 
L 516.537113 160.760344 
L 517.02374 160.767112 
L 517.313039 160.869228 
L 517.434501 160.69895 
L 518.510826 160.890178 
L 518.628969 160.753637 
L 520.550263 160.759108 
L 520.787013 160.672141 
L 520.905252 159.900323 
L 521.153729 160.866902 
L 521.688459 160.998856 
L 521.867987 160.800755 
L 522.284766 160.794647 
L 522.525965 160.629205 
L 522.88244 160.919217 
L 523.060019 160.733037 
L 523.241434 160.728302 
L 523.502993 161.093233 
L 523.621431 160.752884 
L 524.560008 160.704255 
L 524.856122 160.192571 
L 525.090462 161.231043 
L 525.344652 160.75365 
L 525.566766 160.748459 
L 525.865341 161.015071 
L 526.071316 160.878959 
L 526.340708 160.858576 
L 526.648874 160.693968 
L 527.124891 160.781449 
L 532.013949 160.755857 
L 532.256848 160.832953 
L 532.798258 160.754138 
L 588.123125 160.753637 
L 588.123125 160.753637 
" clip-path="url(#pc0e4ffea47)" style="fill: none; stroke: #0000ff; stroke-opacity: 0.5; stroke-width: 1.5; stroke-linecap: square"/>
   </g>
   <g id="line2d_34">
    <path d="M 30.123125 241.537457 
L 30.243229 238.745652 
L 30.486116 245.647272 
L 30.557313 239.19234 
L 30.731329 242.133958 
L 31.037373 244.96444 
L 31.327909 241.9332 
L 31.506195 244.563556 
L 31.923103 241.416901 
L 32.162159 243.360814 
L 32.221858 245.621457 
L 32.877472 243.645339 
L 32.997127 243.82126 
L 33.17951 243.364285 
L 33.653719 243.508572 
L 33.711815 242.58221 
L 33.949895 240.694618 
L 34.249184 243.111101 
L 34.548368 240.833156 
L 34.784407 238.017027 
L 35.09803 244.467763 
L 35.202211 239.984326 
L 35.440196 243.738847 
L 35.680758 237.339252 
L 35.921247 240.939971 
L 36.219665 242.308538 
L 36.45436 244.015478 
L 36.692543 240.28924 
L 36.991361 240.423464 
L 37.290297 243.667194 
L 37.477325 244.082512 
L 37.795109 244.1981 
L 37.9492 238.888116 
L 38.187362 244.745961 
L 38.426084 240.645283 
L 38.845069 245.937179 
L 39.025819 242.61098 
L 39.141686 246.029503 
L 39.386493 245.142331 
L 39.623805 244.761033 
L 39.864478 245.611546 
L 40.157225 244.272523 
L 40.761003 246.44506 
L 42.062125 246.159866 
L 43.367109 242.05715 
L 44.671261 239.276367 
L 45.976925 241.983832 
L 47.281433 246.854001 
L 48.705717 247.489263 
L 50.128922 243.790848 
L 51.434106 241.244101 
L 51.57471 242.550054 
L 52.050631 239.387072 
L 52.586503 240.098384 
L 52.886204 238.113537 
L 53.065614 245.035369 
L 53.302218 244.955301 
L 53.486445 236.406253 
L 53.724718 240.473544 
L 54.024313 241.421298 
L 54.259287 236.513988 
L 54.736482 247.612284 
L 54.976679 242.268689 
L 55.273244 238.631104 
L 55.751287 240.253671 
L 56.046961 244.390049 
L 56.345893 245.000312 
L 56.465073 239.492464 
L 56.704089 245.127692 
L 56.944147 242.909076 
L 57.256521 238.848103 
L 57.480569 245.003322 
L 57.728825 245.425554 
L 58.017138 241.746386 
L 58.198507 244.448685 
L 58.496914 244.521596 
L 58.554841 240.074567 
L 58.73306 240.229112 
L 59.034689 247.176003 
L 59.209199 244.72036 
L 59.44949 238.484734 
L 59.745617 236.98959 
L 60.043738 237.976402 
L 60.222841 241.109996 
L 60.64031 237.660529 
L 60.944152 243.628943 
L 61.237203 246.17153 
L 61.475829 236.861748 
L 61.715964 234.48862 
L 61.958846 246.120841 
L 62.143661 246.222275 
L 62.438157 241.294473 
L 63.03352 248.310506 
L 63.209892 243.231367 
L 63.449837 241.81007 
L 63.690549 241.178081 
L 63.985083 244.046056 
L 64.22513 248.880456 
L 64.402948 244.91002 
L 64.879419 240.380707 
L 65.062323 240.387342 
L 65.357585 239.559482 
L 65.416545 242.791336 
L 65.655168 243.981254 
L 65.893737 244.493193 
L 66.13269 246.978961 
L 66.430089 245.301396 
L 66.727873 237.713388 
L 67.155014 246.268206 
L 67.384113 245.161377 
L 67.623363 245.112736 
L 67.920084 239.320383 
L 68.099572 240.050616 
L 68.400149 240.035806 
L 68.635181 234.463478 
L 68.831969 240.769905 
L 69.113303 246.063037 
L 69.351435 239.213822 
L 69.648721 235.384273 
L 69.828646 241.511285 
L 70.066015 242.630769 
L 70.364473 245.325517 
L 70.604592 245.960847 
L 70.841707 245.222181 
L 71.081502 247.400017 
L 71.556813 239.464326 
L 71.916442 249.248146 
L 72.107502 250.776103 
L 72.332629 246.308644 
L 72.571167 244.979821 
L 72.813078 249.236381 
L 73.285966 246.868005 
L 73.405631 241.431479 
L 73.771535 249.249948 
L 74.06134 245.173855 
L 74.240998 239.796623 
L 74.479719 244.497906 
L 74.836059 248.954195 
L 75.252807 232.702067 
L 75.492926 237.036504 
L 75.730169 246.015921 
L 76.03133 242.8335 
L 76.326464 237.525043 
L 76.74421 249.665579 
L 76.9816 248.196942 
L 77.220316 245.859803 
L 77.459085 246.033379 
L 77.828201 245.284757 
L 78.054836 241.575464 
L 78.352324 238.833919 
L 78.710955 248.841329 
L 78.949354 244.681093 
L 79.247934 236.813696 
L 79.486138 234.615912 
L 80.023563 245.769868 
L 80.207078 247.331669 
L 80.738543 245.654705 
L 81.156745 244.498651 
L 81.632744 238.140465 
L 81.701524 241.537827 
L 82.16885 242.502357 
L 82.28836 241.428573 
L 82.525984 240.63017 
L 82.76482 240.883261 
L 82.884097 240.812444 
L 83.301675 240.028707 
L 83.65888 242.82943 
L 83.95646 242.235446 
L 84.135196 239.410306 
L 84.374481 238.338541 
L 84.611577 240.310143 
L 85.110066 249.344324 
L 85.446597 249.322197 
L 85.62518 243.488958 
L 85.925641 238.538058 
L 86.1616 246.195592 
L 86.462427 251.455416 
L 86.877809 244.742623 
L 87.119265 243.17184 
L 87.512143 242.664897 
L 88.074374 241.217259 
L 88.315062 247.596277 
L 88.906364 237.305509 
L 89.110173 244.066509 
L 89.400225 249.939112 
L 89.683795 246.42454 
L 89.823044 238.797172 
L 90.099263 233.15304 
L 90.337841 238.989055 
L 90.64591 243.303587 
L 90.945765 237.324843 
L 91.201973 238.73038 
L 91.415977 244.037271 
L 92.011313 243.590281 
L 92.146557 232.749119 
L 93.488713 235.691949 
L 94.785954 237.712025 
L 96.214674 240.561308 
L 96.293872 224.731778 
L 96.473623 223.020448 
L 97.308195 251.278085 
L 97.686532 250.996406 
L 97.92573 246.881882 
L 98.047122 237.679478 
L 98.475806 230.325772 
L 99.00831 242.803911 
L 99.308481 247.719723 
L 99.485287 246.556291 
L 99.784846 238.491269 
L 99.968119 228.602624 
L 100.260785 224.663766 
L 100.523046 233.17344 
L 100.738207 245.30749 
L 101.097679 249.066983 
L 101.996101 221.119333 
L 102.174517 224.695616 
L 102.672407 246.433398 
L 102.911282 245.002134 
L 103.197331 238.172591 
L 103.43232 238.258908 
L 103.909831 250.467965 
L 104.150888 249.450233 
L 104.412879 245.373822 
L 104.945448 240.216207 
L 105.161456 236.659326 
L 105.408597 241.448761 
L 105.713669 241.279731 
L 106.160856 226.133402 
L 106.503376 228.586645 
L 106.656363 239.535301 
L 106.934132 248.647082 
L 107.557411 247.818085 
L 107.836389 235.625055 
L 107.924162 234.267584 
L 108.096103 240.37177 
L 108.403218 241.711166 
L 108.751208 242.3461 
L 108.869716 243.200514 
L 109.108055 242.200858 
L 109.346408 239.908689 
L 109.644451 240.368936 
L 109.826568 241.194677 
L 110.070783 246.082073 
L 110.376659 247.286604 
L 110.548337 246.690576 
L 110.909811 247.56672 
L 111.14379 250.311867 
L 111.441506 248.639974 
L 111.565491 244.442786 
L 111.918924 241.227988 
L 112.226819 246.395553 
L 112.336216 251.373306 
L 112.543413 248.711705 
L 112.814414 246.677902 
L 113.053698 246.63964 
L 113.291501 252.288004 
L 113.53258 252.325787 
L 113.770127 251.051562 
L 114.245108 251.029963 
L 114.556275 245.401043 
L 114.781234 235.866147 
L 115.209623 229.362582 
L 115.317793 239.467748 
L 115.61574 239.764634 
L 115.794341 231.891956 
L 115.976003 229.292111 
L 116.270541 230.377712 
L 116.569447 228.563744 
L 116.750403 226.042355 
L 117.047544 231.770385 
L 117.477914 246.801231 
L 118.011209 238.124373 
L 118.24798 239.407779 
L 118.481002 241.42254 
L 118.72141 237.869059 
L 119.017786 235.504144 
L 119.375468 238.905252 
L 119.494707 242.638095 
L 119.732972 244.645847 
L 120.448563 243.08129 
L 120.747784 243.457864 
L 121.043937 243.116446 
L 121.341609 243.675459 
L 121.464325 244.189005 
L 122.177311 234.873113 
L 122.415395 235.50508 
L 122.714459 239.322288 
L 123.010685 241.432254 
L 123.190873 241.38544 
L 123.430234 242.609422 
L 123.908968 248.654922 
L 124.150336 248.959133 
L 124.398758 250.170426 
L 124.700735 249.932609 
L 124.889447 247.338994 
L 125.220204 244.864785 
L 125.401555 249.586002 
L 125.668755 250.704306 
L 126.131985 238.954381 
L 126.372849 237.35181 
L 126.608482 247.305278 
L 126.920112 249.544886 
L 127.382657 241.231328 
L 127.920227 246.768224 
L 128.157959 241.716346 
L 128.517721 238.44425 
L 129.116412 250.050807 
L 129.350233 247.94588 
L 129.651956 246.237327 
L 129.858159 250.087904 
L 130.083068 251.10394 
L 130.661043 245.575361 
L 130.961592 245.626703 
L 131.616767 242.945164 
L 131.854443 242.67493 
L 132.096269 242.95616 
L 132.347436 237.591209 
L 132.812366 224.740937 
L 133.303897 234.269635 
L 133.363543 245.844712 
L 133.544501 247.399259 
L 133.840629 243.340341 
L 134.318419 229.759953 
L 134.555696 231.6235 
L 135.091491 248.183083 
L 135.277918 247.2567 
L 135.749047 241.801802 
L 135.985978 236.945332 
L 136.522971 248.732009 
L 136.767559 248.592206 
L 136.999688 245.205268 
L 137.663156 228.234445 
L 137.774022 230.799128 
L 138.072277 241.569808 
L 138.316728 244.075981 
L 138.734072 232.108198 
L 139.027314 234.176604 
L 139.502682 243.500112 
L 139.919867 244.662401 
L 140.218729 237.294106 
L 140.696325 237.744353 
L 140.993643 240.255896 
L 141.233561 238.316512 
L 141.650085 231.841357 
L 141.710006 229.010402 
L 142.066893 236.299483 
L 142.186284 248.075926 
L 142.543422 250.725192 
L 142.974196 244.996225 
L 143.323312 237.887828 
L 143.496319 245.209336 
L 143.733788 249.171624 
L 143.972115 247.562929 
L 144.808878 229.713568 
L 144.929544 237.185775 
L 145.165993 244.537664 
L 145.540709 243.499541 
L 145.939563 229.510432 
L 146.237569 230.448542 
L 146.654332 246.252746 
L 146.953767 248.981393 
L 147.193091 246.840346 
L 147.552202 241.24329 
L 147.674874 236.425687 
L 147.909183 241.844577 
L 148.218163 252.001274 
L 148.865235 246.051423 
L 149.102945 241.416868 
L 149.340587 234.367652 
L 149.696123 232.689961 
L 150.353263 246.395538 
L 151.127183 224.905302 
L 151.429682 232.281162 
L 151.604736 246.894998 
L 151.843085 254.719921 
L 152.25949 252.052435 
L 152.622499 240.764848 
L 152.856313 239.453264 
L 153.336347 253.943974 
L 153.585148 252.37106 
L 153.815303 248.590844 
L 154.05043 242.521504 
L 154.348741 238.39219 
L 154.590437 243.058312 
L 154.832392 251.708651 
L 155.069819 249.735446 
L 155.543026 242.143501 
L 155.791014 236.057464 
L 156.017564 237.879347 
L 156.376312 242.441525 
L 156.613293 242.783846 
L 156.852889 238.543447 
L 157.269852 224.900532 
L 157.509359 228.399852 
L 157.746994 235.231051 
L 158.102889 238.492379 
L 158.519803 226.637963 
L 158.818143 228.720243 
L 159.056876 239.705943 
L 159.355875 246.229489 
L 159.534863 244.641791 
L 159.772821 244.443776 
L 160.01174 243.976364 
L 160.488021 246.365637 
L 160.785791 246.625209 
L 161.149648 246.147232 
L 161.321501 244.589916 
L 161.501895 245.080687 
L 161.979535 247.81493 
L 162.458281 242.890503 
L 162.878592 244.771683 
L 163.05243 246.791514 
L 163.520893 246.195276 
L 163.767181 246.221746 
L 164.006575 245.796191 
L 164.190188 242.044414 
L 164.455759 240.239898 
L 164.72666 245.600728 
L 164.95958 247.964831 
L 165.327701 241.731319 
L 165.438082 235.956446 
L 165.778621 241.34402 
L 165.79807 245.139431 
L 165.9349 248.560847 
L 166.156096 246.480005 
L 166.534262 239.115935 
L 166.694247 239.855125 
L 166.930855 247.965101 
L 167.168822 248.775494 
L 167.407436 243.661765 
L 167.705995 240.086938 
L 167.943967 244.270301 
L 168.200014 246.375913 
L 168.669936 237.542006 
L 168.957028 244.823738 
L 169.268711 249.816993 
L 169.972569 238.847018 
L 170.14909 238.991497 
L 170.642672 240.517606 
L 170.864266 248.874879 
L 171.162429 251.394079 
L 171.580111 248.583884 
L 171.954995 240.284991 
L 172.385265 252.035215 
L 173.337088 243.939727 
L 173.572511 244.228637 
L 173.93217 240.492095 
L 174.288453 241.4368 
L 174.592496 247.451971 
L 174.830529 247.698081 
L 175.088536 248.21268 
L 175.326337 248.028423 
L 175.863382 242.711801 
L 176.101154 243.078164 
L 176.582323 248.149608 
L 176.834618 244.013021 
L 177.076525 235.853507 
L 177.414033 231.716538 
L 177.534336 240.537133 
L 177.831051 248.519252 
L 178.070408 246.990492 
L 178.546525 233.530707 
L 178.803738 235.179884 
L 179.14201 240.60444 
L 179.559603 242.120662 
L 179.857375 244.263267 
L 180.095911 244.316851 
L 180.274733 243.184433 
L 180.512414 244.12167 
L 180.751387 243.854067 
L 181.228681 242.361303 
L 181.46599 239.815092 
L 182.003672 251.408632 
L 182.300098 247.19101 
L 182.489748 242.112234 
L 182.777914 245.042576 
L 183.01694 251.560715 
L 183.260135 248.811651 
L 183.567179 243.836244 
L 183.737486 243.629597 
L 183.976792 240.139363 
L 184.215338 231.885346 
L 184.455332 230.85045 
L 184.692978 240.619347 
L 184.935773 242.529507 
L 185.526139 227.385788 
L 185.707429 232.927951 
L 186.061537 237.83908 
L 186.241736 238.38581 
L 186.539767 240.668903 
L 186.780047 245.955188 
L 187.074987 246.432739 
L 187.194555 241.408205 
L 187.433041 241.541785 
L 187.671074 248.475714 
L 187.968586 245.108696 
L 188.152506 235.914819 
L 188.445228 236.809306 
L 188.686815 246.464207 
L 188.923057 248.007141 
L 189.16098 244.992159 
L 189.403438 244.659802 
L 189.641534 248.467212 
L 189.898598 245.963284 
L 190.235291 239.300588 
L 190.656271 248.235928 
L 191.247479 240.734302 
L 191.375593 245.710287 
L 191.657719 249.830371 
L 191.908811 246.279158 
L 192.143386 240.659393 
L 192.383733 242.266117 
L 192.644218 248.705743 
L 193.222374 243.68847 
L 193.402165 245.363671 
L 193.640685 248.888852 
L 193.878764 248.269954 
L 194.235658 245.971742 
L 194.354985 244.286105 
L 194.597381 244.39358 
L 194.891756 246.107628 
L 195.188929 246.697645 
L 195.367652 247.782221 
L 195.967819 247.447164 
L 196.083037 246.886044 
L 196.440034 246.652547 
L 196.679868 248.616486 
L 196.800321 253.14157 
L 197.095478 251.668535 
L 197.343361 247.760318 
L 197.812347 245.054254 
L 198.07266 245.976869 
L 198.408702 248.359862 
L 198.706367 244.690437 
L 199.063582 234.248207 
L 199.302587 235.660198 
L 199.543229 238.446848 
L 199.839098 236.980666 
L 200.198469 238.238987 
L 200.326173 240.722919 
L 200.555516 241.162713 
L 200.793135 239.036426 
L 201.221256 238.490504 
L 201.451133 242.052299 
L 201.57063 246.063158 
L 201.809906 242.768013 
L 202.045995 237.091809 
L 202.523687 234.490716 
L 202.760706 231.022346 
L 202.99891 229.737621 
L 203.495032 242.155847 
L 203.953625 239.098072 
L 204.01405 230.815537 
L 204.251466 223.596004 
L 204.49043 223.683685 
L 205.026151 247.210546 
L 205.264865 248.474966 
L 205.741376 234.805193 
L 205.979584 225.728377 
L 206.220642 221.776741 
L 206.458125 223.417903 
L 206.995383 239.845036 
L 207.175054 240.158092 
L 207.47164 236.247318 
L 207.709979 228.035805 
L 208.009417 226.190725 
L 208.431735 250.528224 
L 208.723269 252.615769 
L 209.498086 241.582269 
L 209.915205 223.070875 
L 210.397286 217.374071 
L 210.886344 213.703287 
L 210.927992 210.956394 
L 211.171711 209.944097 
L 211.286175 215.050838 
L 211.950182 245.35875 
L 212.243453 250.975972 
L 212.482513 251.213842 
L 212.783079 251.959329 
L 212.958483 249.719161 
L 213.135808 244.743885 
L 213.613533 242.901849 
L 213.675494 242.057772 
L 213.912456 243.31861 
L 214.150582 243.100303 
L 214.62696 235.845724 
L 214.868789 240.036651 
L 215.174569 180.187015 
L 215.352363 224.103178 
L 215.668525 216.47598 
L 215.881492 185.043023 
L 216.359289 245.312825 
L 216.59693 252.850006 
L 216.894668 258.727689 
L 217.134269 241.477232 
L 217.371343 235.814402 
L 217.609101 212.202268 
L 217.84713 218.558037 
L 218.145853 205.181597 
L 218.327664 183.622666 
L 218.804764 207.491469 
L 219.04314 210.155529 
L 219.099552 205.989658 
L 219.337705 204.870596 
L 219.577209 209.272784 
L 219.814463 219.29806 
L 220.112245 214.450799 
L 220.351264 218.009239 
L 220.593088 226.479735 
L 221.127934 233.792841 
L 221.486972 233.443605 
L 221.793381 240.84098 
L 222.029109 238.966092 
L 222.326252 228.721834 
L 222.565413 242.492979 
L 222.862676 238.979109 
L 223.250459 225.884462 
L 223.284031 207.538412 
L 223.93637 233.851254 
L 224.054822 223.110478 
L 224.536297 222.297853 
L 224.828764 215.792865 
L 225.008197 216.444505 
L 225.246975 215.55512 
L 225.48488 215.33668 
L 225.783985 205.663453 
L 226.258988 215.288599 
L 226.49779 221.583206 
L 226.736293 232.794351 
L 227.052978 240.038206 
L 227.347263 243.085104 
L 227.52707 248.176346 
L 227.704792 236.321777 
L 228.004529 232.73085 
L 228.2416 237.321086 
L 229.016015 221.788282 
L 229.315336 217.956782 
L 229.495215 209.230107 
L 229.910847 204.040124 
L 229.971073 208.032954 
L 230.209576 213.664111 
L 230.448768 224.986245 
L 230.685381 243.915753 
L 231.169394 246.733707 
L 231.461092 246.484846 
L 231.64355 231.894429 
L 231.937494 242.871758 
L 232.41411 252.517801 
L 232.772152 246.740371 
L 233.010197 250.084383 
L 233.189651 246.645743 
L 233.426944 244.507463 
L 233.665209 238.139505 
L 233.964375 237.199214 
L 234.560156 223.193369 
L 234.739127 213.995905 
L 235.036373 212.079311 
L 235.159733 216.77519 
L 235.691988 207.913818 
L 235.873879 207.707771 
L 236.380411 215.005788 
L 236.619096 226.593755 
L 237.124182 244.311289 
L 237.362134 245.321254 
L 237.823038 240.02354 
L 238.081129 222.588649 
L 238.375106 233.993974 
L 238.614552 220.47399 
L 238.852576 214.951362 
L 239.089839 226.725185 
L 239.328388 221.805582 
L 239.98401 217.832727 
L 240.163568 209.008438 
L 240.641159 220.148828 
L 240.839294 238.166843 
L 241.417307 253.39327 
L 241.537532 244.681427 
L 242.074872 238.830119 
L 242.313392 227.238701 
L 242.61055 228.894631 
L 242.791468 231.736592 
L 243.087029 232.004433 
L 243.326209 229.051814 
L 243.624349 228.297982 
L 243.864177 231.226189 
L 244.046071 238.083875 
L 244.281023 241.357767 
L 244.578787 234.56006 
L 245.057575 248.159862 
L 245.353135 246.002084 
L 245.533112 251.866823 
L 245.771346 241.437112 
L 246.010666 236.032432 
L 246.25026 237.981226 
L 246.486483 258.112786 
L 246.903507 218.877446 
L 247.261493 245.693851 
L 247.322644 232.926707 
L 247.499549 237.444973 
L 247.738568 227.647521 
L 247.977313 226.521526 
L 248.217025 241.98518 
L 248.633886 235.849967 
L 248.754909 213.507208 
L 249.050994 205.108926 
L 249.468363 189.726607 
L 249.825402 190.519844 
L 250.197543 212.868623 
L 250.480138 210.506059 
L 251.35046 227.584573 
L 251.496339 235.566779 
L 251.91476 219.460925 
L 252.211462 210.791261 
L 252.569641 210.411868 
L 252.943275 203.563147 
L 253.706875 220.528944 
L 253.949097 211.778328 
L 254.176532 214.2044 
L 254.414511 218.087442 
L 254.772085 214.594552 
L 254.951149 225.893858 
L 255.368012 234.245969 
L 255.487213 220.824622 
L 255.72571 212.766842 
L 255.906162 200.392261 
L 256.502274 225.170897 
L 256.679177 239.614892 
L 256.919839 243.17414 
L 257.335085 235.106289 
L 257.812261 211.988695 
L 257.872486 211.777301 
L 258.110123 209.698151 
L 258.408772 208.792161 
L 258.714732 214.784434 
L 258.945141 216.57833 
L 259.183935 228.597395 
L 259.380165 218.167322 
L 259.719814 214.023407 
L 259.958324 208.045192 
L 260.153103 216.677691 
L 260.377085 231.805452 
L 260.63748 237.74981 
L 260.853957 237.083085 
L 261.150946 227.779667 
L 261.507691 229.48905 
L 261.746044 224.223088 
L 261.865445 225.029768 
L 262.282279 221.93262 
L 262.343313 219.39983 
L 262.58071 221.747685 
L 262.9389 218.12988 
L 263.181965 221.78374 
L 263.356124 217.527686 
L 263.595345 230.46379 
L 263.894307 233.324976 
L 264.074825 237.46718 
L 264.309736 258.976307 
L 264.548274 237.488988 
L 264.795642 238.290755 
L 265.263629 247.509481 
L 265.589764 249.843154 
L 265.839685 250.695836 
L 266.278576 243.586974 
L 266.465874 244.548084 
L 266.65796 244.132082 
L 266.933887 249.232734 
L 267.058163 240.954651 
L 267.411941 242.018541 
L 267.533703 240.95589 
L 267.828523 237.071738 
L 268.014101 222.638043 
L 268.432639 224.20696 
L 268.66939 214.007202 
L 268.782396 224.654028 
L 269.210781 225.246137 
L 269.399388 223.842976 
L 269.559354 244.096556 
L 269.740843 250.902837 
L 270.096093 224.890334 
L 270.244804 237.923872 
L 270.57606 226.974577 
L 270.814165 225.856923 
L 271.051486 237.033806 
L 271.232644 214.05482 
L 271.527868 222.088361 
L 271.707272 221.84753 
L 272.005238 228.30169 
L 272.244122 228.290608 
L 272.600777 233.086715 
L 272.780413 244.764271 
L 273.077454 239.654148 
L 273.214384 228.666494 
L 273.49424 235.473818 
L 273.733969 208.220186 
L 273.971793 199.553704 
L 274.448747 164.630475 
L 274.688678 156.659908 
L 274.92665 163.235036 
L 275.284632 193.389276 
L 275.58223 184.677815 
L 275.709159 174.909572 
L 275.940247 195.047776 
L 276.183647 205.122786 
L 276.476713 211.25542 
L 276.654938 208.14834 
L 276.89657 235.418451 
L 277.310749 235.171557 
L 277.431092 226.899171 
L 277.669096 230.97503 
L 277.912507 210.369588 
L 278.389726 190.702422 
L 278.62756 186.361842 
L 278.882733 196.244548 
L 279.104418 200.022977 
L 279.462902 202.97344 
L 279.521077 205.075498 
L 279.644821 198.04843 
L 279.879687 191.618281 
L 280.117835 189.948546 
L 280.356532 198.862573 
L 280.861082 230.762157 
L 281.848016 235.28425 
L 281.967945 204.172187 
L 282.086192 205.329529 
L 282.503676 177.455929 
L 282.569068 193.86207 
L 283.11584 179.403328 
L 283.300149 189.354279 
L 283.754963 178.844353 
L 283.815288 201.039038 
L 284.052888 219.367892 
L 284.35126 217.058749 
L 284.589595 220.8135 
L 284.827867 226.780791 
L 285.309372 246.118125 
L 285.544541 229.068881 
L 285.84146 223.270192 
L 286.086887 213.454884 
L 286.31931 186.772678 
L 286.498631 185.818932 
L 287.033013 190.383969 
L 287.568415 180.370628 
L 287.814733 183.088848 
L 288.046685 181.645571 
L 288.227943 184.931746 
L 288.772627 186.924783 
L 289.059287 198.735945 
L 289.240755 200.197572 
L 289.5502 216.623832 
L 289.715678 231.556564 
L 289.955778 220.70115 
L 290.490549 189.711362 
L 290.728749 207.646796 
L 291.226862 211.757366 
L 291.447527 232.160773 
L 291.803087 223.999517 
L 291.982018 226.679713 
L 292.220479 195.684642 
L 292.474488 194.962235 
L 292.700077 197.85239 
L 293.23364 234.839722 
L 293.531567 231.265913 
L 293.710872 232.420905 
L 294.067926 231.559578 
L 294.246711 238.866135 
L 294.427073 215.427544 
L 294.664199 217.570847 
L 294.961636 218.012589 
L 295.165343 200.754432 
L 295.446431 194.34607 
L 295.739424 184.832377 
L 296.036723 169.40574 
L 296.215985 167.928617 
L 296.573182 176.417926 
L 296.872544 175.17676 
L 296.931043 185.190066 
L 297.168915 185.068832 
L 297.46677 203.356356 
L 297.649372 200.530811 
L 298.005595 204.332312 
L 298.182339 199.118633 
L 298.616337 218.700412 
L 298.902056 214.974825 
L 299.27704 218.990187 
L 299.688283 237.733881 
L 299.919438 256.078576 
L 300.15821 250.214679 
L 300.459561 238.096568 
L 300.707047 233.090985 
L 301.075791 209.394321 
L 301.550623 180.511245 
L 301.622126 163.916144 
L 302.147583 123.785309 
L 302.328316 145.285892 
L 302.863023 179.868758 
L 303.401839 212.827326 
L 303.637999 239.547761 
L 303.995631 241.221311 
L 304.35329 262.380178 
L 304.710537 263.64902 
L 304.83295 78.234537 
L 305.188585 111.917216 
L 305.425805 157.748689 
L 305.604606 232.033268 
L 305.856091 168.070999 
L 306.200463 138.301959 
L 306.322127 85.133944 
L 306.858029 24.142298 
L 307.302903 6.050769 
L 307.637296 26.995119 
L 308.072346 106.340256 
L 308.315617 193.595332 
L 308.615877 225.18792 
L 308.730339 253.31238 
L 309.031207 229.127404 
L 309.383594 185.622557 
L 309.800414 153.152694 
L 309.979502 151.734408 
L 310.579398 191.13324 
L 310.815115 195.583673 
L 311.118203 189.881769 
L 311.235178 173.923756 
L 311.53079 168.829989 
L 311.768573 155.425433 
L 311.948446 158.883642 
L 312.245044 169.856163 
L 312.485119 189.980677 
L 312.722319 200.395265 
L 312.960637 216.390647 
L 313.20461 224.134147 
L 313.498378 237.980676 
L 313.737928 240.658383 
L 313.977518 241.592265 
L 314.21232 251.00476 
L 314.460792 265.640866 
L 314.690364 269.325597 
L 315.70406 191.812402 
L 316.124502 187.077028 
L 316.189983 177.44113 
L 316.42247 189.927264 
L 316.718399 197.482357 
L 317.074647 203.428452 
L 317.25364 209.186677 
L 317.432363 206.725459 
L 317.671794 214.180562 
L 317.914895 215.455965 
L 318.151071 219.345114 
L 318.472675 235.345812 
L 318.862617 239.036252 
L 318.922266 240.945234 
L 319.160947 234.312872 
L 319.399299 218.893323 
L 319.640538 210.488199 
L 319.876818 210.584242 
L 320.115788 203.335256 
L 320.414559 238.444452 
L 320.792128 243.888676 
L 320.895645 266.875412 
L 321.128649 270.769258 
L 321.783254 253.347687 
L 321.902576 244.998509 
L 322.20126 240.266395 
L 322.381606 232.423523 
L 322.677386 227.73368 
L 323.154001 201.403335 
L 323.639132 178.548705 
L 323.868976 172.667841 
L 324.108231 171.696959 
L 324.644577 192.578118 
L 325.361729 246.705071 
L 325.600816 254.842251 
L 325.846358 253.286877 
L 326.201405 262.56821 
L 326.851781 245.421062 
L 327.59223 232.407469 
L 327.805164 219.218477 
L 328.043791 216.433707 
L 328.283766 220.036563 
L 328.521239 229.918503 
L 328.937897 231.559402 
L 329.057741 235.989822 
L 329.537129 239.374451 
L 329.78167 244.069784 
L 330.165083 241.456458 
L 330.278403 247.564142 
L 330.564545 251.157354 
L 330.611606 253.593099 
L 330.911342 248.606531 
L 331.03036 254.229682 
L 331.446123 254.168448 
L 331.565456 255.078519 
L 332.04186 245.302667 
L 332.340041 252.275318 
L 333.235316 241.09084 
L 333.537494 233.993019 
L 333.712145 236.947957 
L 334.010529 248.230994 
L 334.212859 261.329095 
L 334.844506 272.479287 
L 334.984644 255.741669 
L 335.439937 240.663952 
L 335.857013 238.570602 
L 335.975787 231.872724 
L 336.274475 231.17378 
L 336.455364 225.316133 
L 337.001593 198.621533 
L 337.229844 192.090062 
L 338.006855 212.060642 
L 338.243577 216.743786 
L 338.421009 215.063122 
L 338.667195 220.806937 
L 339.432863 251.01882 
L 339.672038 244.818311 
L 340.091225 230.739864 
L 340.151334 215.933613 
L 340.450469 206.010968 
L 340.645943 208.775369 
L 341.223721 232.268839 
L 341.462412 230.308519 
L 341.885672 206.131785 
L 342.177346 210.538077 
L 342.475516 224.838375 
L 342.653848 241.521856 
L 342.95267 248.376317 
L 343.130565 239.92459 
L 343.487863 246.021637 
L 343.668495 227.51274 
L 343.965723 216.714722 
L 344.263637 213.325394 
L 344.621943 234.687796 
L 344.978549 231.768741 
L 345.276394 220.307765 
L 345.397608 207.731903 
L 345.81238 204.446275 
L 345.888162 202.082735 
L 346.110473 207.671556 
L 346.587455 243.546662 
L 346.886033 246.728642 
L 347.183678 237.316099 
L 347.311673 226.709417 
L 347.613688 219.100255 
L 347.850702 217.85101 
L 348.315877 222.498769 
L 348.852659 233.517826 
L 349.034394 231.16849 
L 349.388337 220.404161 
L 349.687634 214.834958 
L 349.820433 229.078612 
L 350.347068 245.341259 
L 350.823744 233.762383 
L 351.068503 233.40132 
L 351.360174 233.217146 
L 351.538949 228.405143 
L 351.843685 228.586391 
L 352.085238 233.820148 
L 352.374827 230.606707 
L 352.496506 240.415492 
L 353.035816 252.774731 
L 353.281986 248.078528 
L 353.80595 220.936889 
L 354.044395 221.595672 
L 354.282966 232.795265 
L 354.570502 238.623888 
L 355.043759 212.880695 
L 355.242315 208.098497 
L 356.013465 231.617245 
L 356.250857 226.819746 
L 356.72794 222.420305 
L 356.966011 224.172128 
L 357.561894 242.865527 
L 357.740879 238.705245 
L 358.050798 226.630312 
L 358.282011 233.906558 
L 358.757957 257.096455 
L 358.933597 252.715946 
L 359.785285 220.482589 
L 359.948326 227.55135 
L 360.249998 234.500469 
L 360.546592 230.104696 
L 360.734118 220.295739 
L 360.965153 215.737274 
L 361.149668 220.113047 
L 361.442071 232.515625 
L 361.86062 236.005143 
L 361.981036 239.828063 
L 362.336526 242.689839 
L 362.398402 239.888987 
L 362.635531 235.523908 
L 362.932628 236.576912 
L 363.175411 233.977149 
L 363.648137 227.721736 
L 363.94589 230.071349 
L 364.193249 241.822697 
L 364.481886 246.836444 
L 364.843571 233.113665 
L 365.017356 220.277582 
L 365.613505 239.884335 
L 365.976781 255.075558 
L 366.269872 245.192207 
L 366.332753 231.11988 
L 366.700822 221.23215 
L 366.866221 224.857579 
L 367.106846 240.434245 
L 367.461739 249.775005 
L 367.641495 248.544389 
L 367.945628 237.658993 
L 368.121376 216.589717 
L 368.35622 211.43055 
L 368.774451 223.659888 
L 368.895572 241.402073 
L 369.074435 246.412906 
L 369.311398 236.755234 
L 369.591203 233.301358 
L 369.848547 232.493312 
L 370.326098 236.621375 
L 370.623659 237.467266 
L 370.803099 239.745769 
L 371.161904 241.302023 
L 371.577905 231.296237 
L 371.935788 228.712876 
L 372.294083 215.759947 
L 372.59185 218.402503 
L 372.829735 231.383155 
L 373.187115 244.059624 
L 373.365295 246.435626 
L 374.021489 210.763763 
L 374.736954 244.666884 
L 375.03509 241.513982 
L 375.511584 219.13074 
L 375.750485 215.40765 
L 376.228791 245.921193 
L 376.644826 252.932808 
L 376.76228 242.789486 
L 377.358092 219.89797 
L 377.602641 220.895489 
L 377.775253 234.824764 
L 378.253396 248.752409 
L 378.492265 237.122575 
L 379.02867 217.272256 
L 379.324471 225.34944 
L 379.504047 240.545514 
L 379.741872 247.232795 
L 379.980884 243.243245 
L 380.278124 229.755438 
L 380.457053 210.124799 
L 380.699009 201.998806 
L 380.993722 209.134367 
L 381.829452 240.462032 
L 381.947747 239.504939 
L 382.187031 229.983236 
L 382.486546 223.031779 
L 382.903756 229.792756 
L 383.198707 238.154659 
L 383.577145 235.930225 
L 383.681727 232.067415 
L 383.914675 230.555805 
L 384.395448 223.204509 
L 384.452724 225.540805 
L 384.634599 226.666609 
L 385.04816 225.254651 
L 386.418484 197.308143 
L 386.776852 198.278866 
L 386.895865 202.100173 
L 387.194361 203.788632 
L 387.437755 204.511216 
L 387.67107 210.534691 
L 388.32973 244.066173 
L 388.863173 257.916482 
L 389.101136 256.909515 
L 389.459441 252.265052 
L 389.637792 252.556277 
L 389.876192 255.445958 
L 390.114282 256.439571 
L 391.249654 209.07545 
L 391.845036 169.41708 
L 392.085061 166.914271 
L 392.330558 162.566739 
L 392.620619 166.428137 
L 393.096953 197.123369 
L 393.874001 248.813315 
L 394.051656 257.608738 
L 394.289948 256.470129 
L 394.528838 251.351086 
L 394.782729 250.777092 
L 394.826644 250.02252 
L 395.017934 250.209713 
L 395.253901 251.645694 
L 395.542864 249.747543 
L 395.809213 245.351067 
L 396.568199 218.058935 
L 396.795982 218.071736 
L 397.272992 222.774818 
L 397.51473 220.641791 
L 397.752949 224.581743 
L 398.046873 226.821546 
L 398.764426 245.084915 
L 399.240305 265.420943 
L 399.481113 263.05279 
L 399.838134 257.841659 
L 400.855 227.834645 
L 401.090948 217.091161 
L 401.210035 218.56869 
L 401.449325 217.747682 
L 402.046233 225.757291 
L 402.226328 226.301466 
L 402.464686 221.679917 
L 402.940715 205.823942 
L 403.239956 202.810664 
L 403.477521 197.105196 
L 403.716528 185.723361 
L 404.133001 182.147111 
L 404.682655 216.595791 
L 405.07707 236.836322 
L 405.205132 255.650631 
L 405.435072 267.103537 
L 405.735142 263.523352 
L 406.092994 252.66859 
L 406.153896 241.531631 
L 406.450599 242.415456 
L 406.930037 255.397987 
L 407.179976 253.504036 
L 407.583542 251.326162 
L 407.643511 247.082157 
L 407.941894 242.465293 
L 408.184239 241.089686 
L 408.425461 241.739393 
L 408.622583 245.373597 
L 409.329493 252.919908 
L 409.377263 252.061845 
L 410.092038 239.861119 
L 410.151255 235.382261 
L 410.390744 232.294167 
L 410.746981 233.046083 
L 410.925592 230.669006 
L 411.107896 229.730863 
L 411.582876 234.027169 
L 411.90175 235.755482 
L 412.834441 256.10599 
L 413.132538 257.219002 
L 413.846124 246.741126 
L 413.854636 169.742244 
L 414.089273 225.019683 
L 414.625302 220.092414 
L 414.872439 219.089937 
L 415.104651 218.615683 
L 415.580891 215.158992 
L 416.057363 232.328581 
L 416.53552 259.393297 
L 416.775368 262.65613 
L 417.194986 257.16453 
L 417.249598 264.432409 
L 417.60875 265.589337 
L 417.792339 265.051103 
L 418.265783 261.636808 
L 418.685412 257.116412 
L 418.81039 247.428969 
L 419.279479 232.842185 
L 419.526752 226.360514 
L 419.578401 219.709574 
L 419.817293 210.847559 
L 420.476212 162.73136 
L 420.771635 160.111878 
L 421.016292 165.014008 
L 421.487584 197.67349 
L 421.964634 230.105558 
L 422.394938 244.003792 
L 422.524135 253.676819 
L 422.742295 260.030892 
L 422.977964 194.495544 
L 423.217836 227.843124 
L 423.463809 245.697856 
L 423.71597 249.746597 
L 423.948356 248.149688 
L 424.441549 215.264669 
L 424.77729 207.29639 
L 425.498742 217.70509 
L 425.741988 214.600607 
L 426.034921 207.217836 
L 426.155261 198.702546 
L 426.396486 202.448209 
L 426.819177 226.804264 
L 426.938394 250.601662 
L 427.170233 248.303142 
L 427.413328 231.167003 
L 427.783895 219.822732 
L 427.944655 224.53386 
L 428.247611 219.884405 
L 428.720579 244.153253 
L 429.021035 229.454478 
L 429.260467 223.180091 
L 429.568158 204.715192 
L 430.128007 241.938826 
L 430.398889 243.0913 
L 430.714162 230.272042 
L 430.879803 216.249477 
L 431.229767 219.049631 
L 431.434036 238.969042 
L 431.647958 242.951939 
L 431.94717 253.372183 
L 432.125555 254.091016 
L 432.364081 239.003098 
L 432.605916 240.214472 
L 432.980761 224.313235 
L 433.080902 211.86266 
L 433.437867 215.278124 
L 433.881968 190.437882 
L 434.096693 194.463439 
L 434.502401 181.943729 
L 434.739955 193.764515 
L 434.927308 196.513788 
L 435.157711 189.299287 
L 435.455677 205.865403 
L 435.636023 208.766198 
L 435.814278 227.678892 
L 436.291054 246.593866 
L 436.831453 226.176739 
L 437.312162 212.110028 
L 437.570496 211.986665 
L 438.323842 178.883811 
L 438.559792 193.417732 
L 438.802744 196.049075 
L 439.037712 211.710768 
L 439.276447 204.187095 
L 439.525204 202.929652 
L 439.758679 202.537349 
L 440.05765 216.695762 
L 440.535103 213.282435 
L 440.773037 213.754724 
L 441.012501 222.287778 
L 441.428656 216.637394 
L 441.516433 216.706364 
L 441.787362 235.024322 
L 442.084382 243.446012 
L 442.382254 262.71273 
L 442.562402 262.668443 
L 442.800832 272.589231 
L 443.046215 254.56198 
L 443.69767 237.499663 
L 443.947028 253.493866 
L 444.485158 231.736831 
L 444.718411 229.363663 
L 445.089995 228.73572 
L 445.253115 231.602978 
L 445.309914 237.907503 
L 445.429631 233.315955 
L 445.965514 237.238453 
L 446.46744 258.879156 
L 446.921039 264.531984 
L 447.160166 258.333138 
L 447.581647 254.912149 
L 447.77106 249.685462 
L 448.007332 239.252081 
L 448.187218 246.940137 
L 448.604346 249.276366 
L 448.665006 234.120427 
L 449.082957 237.713598 
L 449.382798 218.829545 
L 449.796559 207.060709 
L 449.916047 194.248417 
L 450.156084 189.341168 
L 450.810193 157.192445 
L 450.929587 141.754474 
L 451.168624 125.527774 
L 451.412842 127.365198 
L 451.467111 121.716466 
L 451.647295 128.202667 
L 451.884706 128.011153 
L 452.125859 148.173708 
L 452.421661 147.006186 
L 452.60151 158.521059 
L 452.921195 161.919416 
L 453.379988 177.147393 
L 453.860324 204.945927 
L 454.156172 216.131189 
L 454.574673 218.64665 
L 454.872956 252.554957 
L 455.468905 270.976007 
L 455.616064 262.785849 
L 455.830337 257.176475 
L 456.304292 251.108129 
L 456.543655 244.772201 
L 456.791016 241.625497 
L 457.08999 250.887383 
L 457.331101 248.393701 
L 457.629665 254.180906 
L 457.86423 255.737873 
L 458.103932 253.689871 
L 458.283498 247.600213 
L 458.581721 246.639895 
L 458.819546 229.818311 
L 459.36474 201.965753 
L 460.074569 161.869516 
L 460.381478 170.274216 
L 460.5515 171.249881 
L 460.799795 197.38847 
L 461.162774 209.088815 
L 461.269733 220.39946 
L 461.748647 239.548785 
L 462.30345 249.371621 
L 462.527031 247.801037 
L 462.764051 237.433293 
L 463.01013 239.560608 
L 463.302327 244.753947 
L 463.485536 229.590871 
L 464.256499 243.442527 
L 464.793199 260.841831 
L 465.020548 263.325091 
L 465.255282 264.546996 
L 465.488509 243.520071 
L 465.790576 241.389079 
L 465.97518 219.30885 
L 466.26574 203.728631 
L 466.57014 193.632853 
L 466.745966 181.188422 
L 466.935855 154.195183 
L 467.221898 149.081719 
L 467.460772 147.432411 
L 467.699642 130.755227 
L 467.937374 128.208887 
L 468.176245 129.796755 
L 468.415774 122.457596 
L 468.83277 128.021219 
L 468.981905 134.563837 
L 469.370258 134.553233 
L 469.48914 149.242852 
L 469.727716 154.792402 
L 469.966174 175.204222 
L 470.263839 174.16317 
L 470.655533 205.4447 
L 471.638963 240.124327 
L 471.879649 225.098604 
L 472.25946 234.849946 
L 472.417567 230.462038 
L 472.65317 243.36315 
L 472.921173 240.351748 
L 473.214775 232.248023 
L 473.43748 222.294586 
L 473.732515 220.903926 
L 474.160422 205.618815 
L 474.41647 194.783295 
L 474.828936 186.721393 
L 475.121189 179.850128 
L 475.41949 164.394709 
L 475.717586 166.193595 
L 475.8371 159.371342 
L 476.134988 157.766971 
L 476.381417 157.195695 
L 477.389133 143.662407 
L 477.627668 146.010985 
L 477.868291 143.906322 
L 478.10364 144.886755 
L 478.342011 148.4102 
L 478.581538 145.30331 
L 478.826827 146.332674 
L 480.372025 236.914613 
L 480.551914 240.361818 
L 480.908489 236.07278 
L 481.160632 250.606617 
L 481.327084 251.988231 
L 481.625403 258.766331 
L 481.863208 256.387289 
L 482.101703 259.527072 
L 482.304165 259.201778 
L 482.520064 268.259427 
L 482.821931 270.128674 
L 483.114886 256.038088 
L 483.533599 264.188623 
L 483.774518 243.132697 
L 484.010657 248.020256 
L 484.326117 242.07668 
L 484.74324 227.129025 
L 485.221327 211.889629 
L 485.281302 199.619218 
L 485.579122 184.927308 
L 485.761522 183.08906 
L 486.234616 167.48899 
L 486.712954 127.336811 
L 487.011874 132.716065 
L 487.308375 122.400313 
L 487.486924 124.136849 
L 487.789707 136.359888 
L 488.027649 134.727565 
L 488.551393 154.035743 
L 489.223121 193.6965 
L 489.567603 216.035933 
L 489.765197 217.7218 
L 490.004848 236.3182 
L 490.241965 244.11699 
L 490.480897 238.632429 
L 490.719876 246.350181 
L 490.957726 239.280249 
L 491.437921 248.136087 
L 491.7338 241.874611 
L 491.913495 213.07175 
L 492.229516 212.262539 
L 492.270594 202.877049 
L 492.449396 193.717782 
L 492.750643 187.672104 
L 493.046267 188.382238 
L 493.224707 186.092516 
L 493.705361 201.565473 
L 493.763164 212.972768 
L 493.941431 213.920715 
L 494.378916 243.294638 
L 494.671594 246.527211 
L 494.896223 242.359875 
L 495.135806 248.838807 
L 495.492868 247.000096 
L 495.671719 235.701975 
L 495.8502 243.94824 
L 496.270408 233.082513 
L 496.327882 245.291455 
L 496.689799 246.940945 
L 496.932019 256.568866 
L 497.402562 254.434514 
L 497.640581 249.487242 
L 498.190185 229.479572 
L 498.36707 211.549876 
L 498.61362 199.825986 
L 498.851685 179.314866 
L 499.328344 168.095043 
L 499.626206 154.035712 
L 499.810671 162.977046 
L 500.407404 148.652212 
L 501.118825 183.517041 
L 501.54229 171.943653 
L 501.595042 187.920912 
L 501.833482 177.129257 
L 502.251558 183.910546 
L 502.552589 204.470027 
L 502.886968 202.674297 
L 503.047454 206.185497 
L 503.822888 228.237307 
L 504.044032 241.126018 
L 504.28324 248.419524 
L 504.522981 226.014129 
L 504.834976 247.203639 
L 505.239393 230.09142 
L 505.300663 239.878498 
L 505.535876 234.324572 
L 506.018683 242.71263 
L 506.191851 243.673897 
L 506.323481 234.356557 
L 506.51083 244.971412 
L 506.868182 230.137505 
L 507.088797 240.103826 
L 507.310485 240.340709 
L 507.538751 247.491183 
L 507.777893 249.270279 
L 508.020555 258.26072 
L 508.382825 240.981088 
L 508.542524 255.556182 
L 508.779841 257.268614 
L 509.136823 253.330559 
L 509.322995 257.589076 
L 509.498514 235.359567 
L 509.793481 235.478308 
L 510.273436 199.47715 
L 510.57202 202.481868 
L 511.008762 217.262444 
L 511.345579 232.278998 
L 511.480353 231.651417 
L 511.762084 257.62255 
L 512.059912 241.382102 
L 512.242212 254.169654 
L 512.479777 243.574581 
L 513.015383 263.305762 
L 513.258013 263.010567 
L 513.737555 228.518971 
L 514.271062 180.653779 
L 514.448245 171.925487 
L 514.886935 170.935464 
L 515.118139 176.475473 
L 515.464023 180.093051 
L 516.001092 220.330547 
L 516.47737 230.855746 
L 516.537113 239.767099 
L 517.02374 248.696521 
L 517.313039 246.77767 
L 517.434501 242.832478 
L 517.936327 236.298788 
L 518.049053 232.336245 
L 518.217301 230.513189 
L 518.510826 232.040555 
L 519.405318 199.190349 
L 519.531398 184.450734 
L 519.902563 174.622697 
L 520.126108 174.218478 
L 520.787013 207.235924 
L 521.153729 237.276329 
L 521.688459 258.001113 
L 522.284766 245.459173 
L 522.88244 222.224536 
L 523.060019 214.831507 
L 523.241434 216.933962 
L 523.502993 225.379527 
L 523.621431 236.420618 
L 524.144781 257.233104 
L 524.328604 253.19241 
L 525.344652 203.25789 
L 525.566766 206.333798 
L 526.340708 220.866448 
L 527.124891 223.753049 
L 527.422306 225.494775 
L 528.5587 250.558371 
L 529.192142 258.7128 
L 529.543609 266.570106 
L 529.807921 268.349591 
L 530.052813 261.108054 
L 530.344148 245.157018 
L 530.525497 224.649955 
L 531.059913 201.380439 
L 531.537267 192.020012 
L 531.775914 187.864925 
L 532.013949 187.475821 
L 532.256848 189.103526 
L 532.545156 189.167413 
L 532.798258 186.768949 
L 533.10409 184.994755 
L 533.453015 179.998245 
L 533.527827 174.303711 
L 533.757723 170.500764 
L 533.997093 171.953176 
L 534.233618 177.251324 
L 535.005866 209.752573 
L 536.039758 260.610521 
L 536.319941 265.807307 
L 536.617778 262.833776 
L 536.797511 257.744919 
L 537.233563 254.05156 
L 537.336657 247.055641 
L 537.811333 226.810903 
L 537.931567 218.365453 
L 538.182569 218.166531 
L 538.407634 221.452972 
L 539.183029 245.408468 
L 539.420513 244.943924 
L 539.664472 238.245478 
L 540.673929 193.540231 
L 541.17165 183.010182 
L 541.389533 182.980674 
L 541.80773 187.97339 
L 541.926574 194.060736 
L 542.11672 197.702922 
L 542.721684 200.792444 
L 542.885214 198.388493 
L 543.131436 197.414852 
L 543.357339 199.138479 
L 543.655635 203.220922 
L 544.136763 213.946873 
L 544.852231 229.6047 
L 545.152144 237.822429 
L 545.385087 248.596284 
L 545.947299 264.761643 
L 546.186015 264.401716 
L 546.604471 257.737568 
L 547.557848 248.45863 
L 547.857033 246.850874 
L 548.096482 244.509802 
L 548.460013 243.369982 
L 548.587229 241.526549 
L 549.079391 241.150507 
L 549.363766 253.832372 
L 549.580927 255.001705 
L 549.823004 246.97037 
L 551.309936 169.02813 
L 551.545693 173.126384 
L 552.088866 185.118104 
L 552.272542 197.386272 
L 552.56547 209.335102 
L 553.295897 270.296014 
L 554.071244 259.912636 
L 555.162205 233.921351 
L 555.283645 222.595642 
L 555.807326 209.989695 
L 556.719551 259.512627 
L 556.996596 263.01633 
L 557.236478 261.401734 
L 557.774444 253.100412 
L 558.428 235.718647 
L 558.491374 221.652689 
L 558.968824 195.121233 
L 559.509995 178.161338 
L 559.68732 178.520395 
L 559.984173 189.516998 
L 560.286721 205.408478 
L 560.525361 225.238241 
L 561.176926 255.819091 
L 561.45041 256.480578 
L 561.800499 259.660666 
L 561.917094 262.488176 
L 562.460684 253.577213 
L 562.710581 252.196313 
L 562.932436 252.556749 
L 563.47491 246.784514 
L 564.138725 258.411084 
L 564.424624 256.480634 
L 564.667389 249.17897 
L 564.963359 245.614976 
L 565.325481 248.764274 
L 565.679072 261.603857 
L 565.921222 259.981119 
L 566.275788 256.103084 
L 566.591052 240.481119 
L 566.886997 243.833529 
L 567.129567 252.256172 
L 567.426996 251.871145 
L 567.901003 231.874231 
L 568.260231 231.012698 
L 568.439944 241.990075 
L 568.797021 254.350814 
L 569.034461 258.192674 
L 569.154425 254.259685 
L 569.571345 230.608725 
L 569.9297 228.032912 
L 570.349279 247.195424 
L 570.67192 244.338253 
L 570.855226 235.616588 
L 571.092008 232.670289 
L 571.62175 245.717959 
L 572.052821 250.585535 
L 572.57511 245.358247 
L 572.813931 247.423799 
L 573.124173 252.827141 
L 573.290523 251.784875 
L 573.651531 248.496034 
L 573.787544 244.222372 
L 574.067189 245.199362 
L 574.607337 250.176634 
L 574.902328 248.637755 
L 575.739988 215.246339 
L 576.511705 233.734319 
L 576.691707 225.335704 
L 577.019398 218.216111 
L 577.255733 221.574091 
L 577.770911 260.008672 
L 578.060615 259.430176 
L 578.2394 255.643416 
L 578.60946 251.341126 
L 578.779219 244.908906 
L 579.077233 239.947125 
L 579.739653 248.503806 
L 579.971738 247.680868 
L 580.509058 237.57792 
L 580.748428 244.805773 
L 581.232393 255.045816 
L 581.470211 254.078531 
L 582.184765 248.772042 
L 582.718401 244.613471 
L 583.265054 247.820282 
L 583.800021 241.771097 
L 583.977973 254.152813 
L 584.219664 258.517981 
L 584.575273 254.171982 
L 584.872836 253.555317 
L 585.113187 252.636291 
L 585.409373 248.457964 
L 585.65838 248.127335 
L 585.885885 250.146875 
L 586.130566 253.621237 
L 586.483458 253.447714 
L 587.140498 245.273205 
L 587.61558 253.06364 
L 588.123125 251.791996 
L 588.123125 251.791996 
" clip-path="url(#pc0e4ffea47)" style="fill: none; stroke: #ff0000; stroke-opacity: 0.5; stroke-width: 1.5; stroke-linecap: square"/>
   </g>
   <g id="patch_3">
    <path d="M 30.123125 277.92 
L 30.123125 0.72 
" style="fill: none; stroke: #000000; stroke-width: 0.8; stroke-linejoin: miter; stroke-linecap: square"/>
   </g>
   <g id="patch_4">
    <path d="M 588.123125 277.92 
L 588.123125 0.72 
" style="fill: none; stroke: #000000; stroke-width: 0.8; stroke-linejoin: miter; stroke-linecap: square"/>
   </g>
   <g id="patch_5">
    <path d="M 30.123125 277.92 
L 588.123125 277.92 
" style="fill: none; stroke: #000000; stroke-width: 0.8; stroke-linejoin: miter; stroke-linecap: square"/>
   </g>
   <g id="patch_6">
    <path d="M 30.123125 0.72 
L 588.123125 0.72 
" style="fill: none; stroke: #000000; stroke-width: 0.8; stroke-linejoin: miter; stroke-linecap: square"/>
   </g>
   <g id="legend_1">
    <g id="patch_7">
     <path d="M 507.354375 38.07625 
L 581.123125 38.07625 
Q 583.123125 38.07625 583.123125 36.07625 
L 583.123125 7.72 
Q 583.123125 5.72 581.123125 5.72 
L 507.354375 5.72 
Q 505.354375 5.72 505.354375 7.72 
L 505.354375 36.07625 
Q 505.354375 38.07625 507.354375 38.07625 
z
" style="fill: #ffffff; opacity: 0.8; stroke: #cccccc; stroke-linejoin: miter"/>
    </g>
    <g id="line2d_35">
     <path d="M 509.354375 13.818438 
L 519.354375 13.818438 
L 529.354375 13.818438 
" style="fill: none; stroke: #0000ff; stroke-opacity: 0.5; stroke-width: 1.5; stroke-linecap: square"/>
    </g>
    <g id="text_19">
     <!-- RNEA -->
     <g transform="translate(537.354375 17.318438) scale(0.1 -0.1)">
      <defs>
       <path id="DejaVuSans-52" d="M 2841 2188 
Q 3044 2119 3236 1894 
Q 3428 1669 3622 1275 
L 4263 0 
L 3584 0 
L 2988 1197 
Q 2756 1666 2539 1819 
Q 2322 1972 1947 1972 
L 1259 1972 
L 1259 0 
L 628 0 
L 628 4666 
L 2053 4666 
Q 2853 4666 3247 4331 
Q 3641 3997 3641 3322 
Q 3641 2881 3436 2590 
Q 3231 2300 2841 2188 
z
M 1259 4147 
L 1259 2491 
L 2053 2491 
Q 2509 2491 2742 2702 
Q 2975 2913 2975 3322 
Q 2975 3731 2742 3939 
Q 2509 4147 2053 4147 
L 1259 4147 
z
" transform="scale(0.015625)"/>
       <path id="DejaVuSans-45" d="M 628 4666 
L 3578 4666 
L 3578 4134 
L 1259 4134 
L 1259 2753 
L 3481 2753 
L 3481 2222 
L 1259 2222 
L 1259 531 
L 3634 531 
L 3634 0 
L 628 0 
L 628 4666 
z
" transform="scale(0.015625)"/>
       <path id="DejaVuSans-41" d="M 2188 4044 
L 1331 1722 
L 3047 1722 
L 2188 4044 
z
M 1831 4666 
L 2547 4666 
L 4325 0 
L 3669 0 
L 3244 1197 
L 1141 1197 
L 716 0 
L 50 0 
L 1831 4666 
z
" transform="scale(0.015625)"/>
      </defs>
      <use xlink:href="#DejaVuSans-52"/>
      <use xlink:href="#DejaVuSans-4e" x="69.482422"/>
      <use xlink:href="#DejaVuSans-45" x="144.287109"/>
      <use xlink:href="#DejaVuSans-41" x="207.470703"/>
     </g>
    </g>
    <g id="line2d_36">
     <path d="M 509.354375 28.496563 
L 519.354375 28.496563 
L 529.354375 28.496563 
" style="fill: none; stroke: #ff0000; stroke-opacity: 0.5; stroke-width: 1.5; stroke-linecap: square"/>
    </g>
    <g id="text_20">
     <!-- BURNEA -->
     <g transform="translate(537.354375 31.996563) scale(0.1 -0.1)">
      <defs>
       <path id="DejaVuSans-42" d="M 1259 2228 
L 1259 519 
L 2272 519 
Q 2781 519 3026 730 
Q 3272 941 3272 1375 
Q 3272 1813 3026 2020 
Q 2781 2228 2272 2228 
L 1259 2228 
z
M 1259 4147 
L 1259 2741 
L 2194 2741 
Q 2656 2741 2882 2914 
Q 3109 3088 3109 3444 
Q 3109 3797 2882 3972 
Q 2656 4147 2194 4147 
L 1259 4147 
z
M 628 4666 
L 2241 4666 
Q 2963 4666 3353 4366 
Q 3744 4066 3744 3513 
Q 3744 3084 3544 2831 
Q 3344 2578 2956 2516 
Q 3422 2416 3680 2098 
Q 3938 1781 3938 1306 
Q 3938 681 3513 340 
Q 3088 0 2303 0 
L 628 0 
L 628 4666 
z
" transform="scale(0.015625)"/>
       <path id="DejaVuSans-55" d="M 556 4666 
L 1191 4666 
L 1191 1831 
Q 1191 1081 1462 751 
Q 1734 422 2344 422 
Q 2950 422 3222 751 
Q 3494 1081 3494 1831 
L 3494 4666 
L 4128 4666 
L 4128 1753 
Q 4128 841 3676 375 
Q 3225 -91 2344 -91 
Q 1459 -91 1007 375 
Q 556 841 556 1753 
L 556 4666 
z
" transform="scale(0.015625)"/>
      </defs>
      <use xlink:href="#DejaVuSans-42"/>
      <use xlink:href="#DejaVuSans-55" x="68.603516"/>
      <use xlink:href="#DejaVuSans-52" x="141.796875"/>
      <use xlink:href="#DejaVuSans-4e" x="211.279297"/>
      <use xlink:href="#DejaVuSans-45" x="286.083984"/>
      <use xlink:href="#DejaVuSans-41" x="349.267578"/>
     </g>
    </g>
   </g>
  </g>
 </g>
 <defs>
  <clipPath id="pc0e4ffea47">
   <rect x="30.123125" y="0.72" width="558" height="277.2"/>
  </clipPath>
 </defs>
</svg>
