<?xml version="1.0" encoding="utf-8" standalone="no"?>
<!DOCTYPE svg PUBLIC "-//W3C//DTD SVG 1.1//EN"
  "http://www.w3.org/Graphics/SVG/1.1/DTD/svg11.dtd">
<svg xmlns:xlink="http://www.w3.org/1999/xlink" width="355.43952pt" height="175.435105pt" viewBox="0 0 355.43952 175.435105" xmlns="http://www.w3.org/2000/svg" version="1.1">
 <metadata>
  <rdf:RDF xmlns:dc="http://purl.org/dc/elements/1.1/" xmlns:cc="http://creativecommons.org/ns#" xmlns:rdf="http://www.w3.org/1999/02/22-rdf-syntax-ns#">
   <cc:Work>
    <dc:type rdf:resource="http://purl.org/dc/dcmitype/StillImage"/>
    <dc:date>2023-09-09T18:29:19.801600</dc:date>
    <dc:format>image/svg+xml</dc:format>
    <dc:creator>
     <cc:Agent>
      <dc:title>Matplotlib v3.7.2, https://matplotlib.org/</dc:title>
     </cc:Agent>
    </dc:creator>
   </cc:Work>
  </rdf:RDF>
 </metadata>
 <defs>
  <style type="text/css">*{stroke-linejoin: round; stroke-linecap: butt}</style>
 </defs>
 <g id="figure_1">
  <g id="patch_1">
   <path d="M 0 175.435105 
L 355.43952 175.435105 
L 355.43952 0 
L 0 0 
L 0 175.435105 
z
" style="fill: none"/>
  </g>
  <g id="axes_1">
   <g id="patch_2">
    <path d="M 32.140313 148.358855 
L 354.71952 148.358855 
L 354.71952 1.147977 
L 32.140313 1.147977 
L 32.140313 148.358855 
z
" style="fill: none"/>
   </g>
   <g id="matplotlib.axis_1">
    <g id="xtick_1">
     <g id="line2d_1">
      <path d="M 32.140313 148.358855 
L 32.140313 1.147977 
" clip-path="url(#pa3f13e3261)" style="fill: none; stroke-dasharray: 0.8,1.32; stroke-dashoffset: 0; stroke: #000000; stroke-opacity: 0.5; stroke-width: 0.8"/>
     </g>
     <g id="line2d_2">
      <defs>
       <path id="mc86ffb2b67" d="M 0 0 
L 0 3.5 
" style="stroke: #000000; stroke-width: 0.8"/>
      </defs>
      <g>
       <use xlink:href="#mc86ffb2b67" x="32.140313" y="148.358855" style="stroke: #000000; stroke-width: 0.8"/>
      </g>
     </g>
     <g id="text_1">
      <!-- 0 -->
      <g transform="translate(28.959063 162.957293) scale(0.1 -0.1)">
       <defs>
        <path id="DejaVuSans-30" d="M 2034 4250 
Q 1547 4250 1301 3770 
Q 1056 3291 1056 2328 
Q 1056 1369 1301 889 
Q 1547 409 2034 409 
Q 2525 409 2770 889 
Q 3016 1369 3016 2328 
Q 3016 3291 2770 3770 
Q 2525 4250 2034 4250 
z
M 2034 4750 
Q 2819 4750 3233 4129 
Q 3647 3509 3647 2328 
Q 3647 1150 3233 529 
Q 2819 -91 2034 -91 
Q 1250 -91 836 529 
Q 422 1150 422 2328 
Q 422 3509 836 4129 
Q 1250 4750 2034 4750 
z
" transform="scale(0.015625)"/>
       </defs>
       <use xlink:href="#DejaVuSans-30"/>
      </g>
     </g>
    </g>
    <g id="xtick_2">
     <g id="line2d_3">
      <path d="M 81.41157 148.358855 
L 81.41157 1.147977 
" clip-path="url(#pa3f13e3261)" style="fill: none; stroke-dasharray: 0.8,1.32; stroke-dashoffset: 0; stroke: #000000; stroke-opacity: 0.5; stroke-width: 0.8"/>
     </g>
     <g id="line2d_4">
      <g>
       <use xlink:href="#mc86ffb2b67" x="81.41157" y="148.358855" style="stroke: #000000; stroke-width: 0.8"/>
      </g>
     </g>
     <g id="text_2">
      <!-- 5 -->
      <g transform="translate(78.23032 162.957293) scale(0.1 -0.1)">
       <defs>
        <path id="DejaVuSans-35" d="M 691 4666 
L 3169 4666 
L 3169 4134 
L 1269 4134 
L 1269 2991 
Q 1406 3038 1543 3061 
Q 1681 3084 1819 3084 
Q 2600 3084 3056 2656 
Q 3513 2228 3513 1497 
Q 3513 744 3044 326 
Q 2575 -91 1722 -91 
Q 1428 -91 1123 -41 
Q 819 9 494 109 
L 494 744 
Q 775 591 1075 516 
Q 1375 441 1709 441 
Q 2250 441 2565 725 
Q 2881 1009 2881 1497 
Q 2881 1984 2565 2268 
Q 2250 2553 1709 2553 
Q 1456 2553 1204 2497 
Q 953 2441 691 2322 
L 691 4666 
z
" transform="scale(0.015625)"/>
       </defs>
       <use xlink:href="#DejaVuSans-35"/>
      </g>
     </g>
    </g>
    <g id="xtick_3">
     <g id="line2d_5">
      <path d="M 130.682827 148.358855 
L 130.682827 1.147977 
" clip-path="url(#pa3f13e3261)" style="fill: none; stroke-dasharray: 0.8,1.32; stroke-dashoffset: 0; stroke: #000000; stroke-opacity: 0.5; stroke-width: 0.8"/>
     </g>
     <g id="line2d_6">
      <g>
       <use xlink:href="#mc86ffb2b67" x="130.682827" y="148.358855" style="stroke: #000000; stroke-width: 0.8"/>
      </g>
     </g>
     <g id="text_3">
      <!-- 10 -->
      <g transform="translate(124.320327 162.957293) scale(0.1 -0.1)">
       <defs>
        <path id="DejaVuSans-31" d="M 794 531 
L 1825 531 
L 1825 4091 
L 703 3866 
L 703 4441 
L 1819 4666 
L 2450 4666 
L 2450 531 
L 3481 531 
L 3481 0 
L 794 0 
L 794 531 
z
" transform="scale(0.015625)"/>
       </defs>
       <use xlink:href="#DejaVuSans-31"/>
       <use xlink:href="#DejaVuSans-30" x="63.623047"/>
      </g>
     </g>
    </g>
    <g id="xtick_4">
     <g id="line2d_7">
      <path d="M 179.954085 148.358855 
L 179.954085 1.147977 
" clip-path="url(#pa3f13e3261)" style="fill: none; stroke-dasharray: 0.8,1.32; stroke-dashoffset: 0; stroke: #000000; stroke-opacity: 0.5; stroke-width: 0.8"/>
     </g>
     <g id="line2d_8">
      <g>
       <use xlink:href="#mc86ffb2b67" x="179.954085" y="148.358855" style="stroke: #000000; stroke-width: 0.8"/>
      </g>
     </g>
     <g id="text_4">
      <!-- 15 -->
      <g transform="translate(173.591585 162.957293) scale(0.1 -0.1)">
       <use xlink:href="#DejaVuSans-31"/>
       <use xlink:href="#DejaVuSans-35" x="63.623047"/>
      </g>
     </g>
    </g>
    <g id="xtick_5">
     <g id="line2d_9">
      <path d="M 229.225342 148.358855 
L 229.225342 1.147977 
" clip-path="url(#pa3f13e3261)" style="fill: none; stroke-dasharray: 0.8,1.32; stroke-dashoffset: 0; stroke: #000000; stroke-opacity: 0.5; stroke-width: 0.8"/>
     </g>
     <g id="line2d_10">
      <g>
       <use xlink:href="#mc86ffb2b67" x="229.225342" y="148.358855" style="stroke: #000000; stroke-width: 0.8"/>
      </g>
     </g>
     <g id="text_5">
      <!-- 20 -->
      <g transform="translate(222.862842 162.957293) scale(0.1 -0.1)">
       <defs>
        <path id="DejaVuSans-32" d="M 1228 531 
L 3431 531 
L 3431 0 
L 469 0 
L 469 531 
Q 828 903 1448 1529 
Q 2069 2156 2228 2338 
Q 2531 2678 2651 2914 
Q 2772 3150 2772 3378 
Q 2772 3750 2511 3984 
Q 2250 4219 1831 4219 
Q 1534 4219 1204 4116 
Q 875 4013 500 3803 
L 500 4441 
Q 881 4594 1212 4672 
Q 1544 4750 1819 4750 
Q 2544 4750 2975 4387 
Q 3406 4025 3406 3419 
Q 3406 3131 3298 2873 
Q 3191 2616 2906 2266 
Q 2828 2175 2409 1742 
Q 1991 1309 1228 531 
z
" transform="scale(0.015625)"/>
       </defs>
       <use xlink:href="#DejaVuSans-32"/>
       <use xlink:href="#DejaVuSans-30" x="63.623047"/>
      </g>
     </g>
    </g>
    <g id="xtick_6">
     <g id="line2d_11">
      <path d="M 278.4966 148.358855 
L 278.4966 1.147977 
" clip-path="url(#pa3f13e3261)" style="fill: none; stroke-dasharray: 0.8,1.32; stroke-dashoffset: 0; stroke: #000000; stroke-opacity: 0.5; stroke-width: 0.8"/>
     </g>
     <g id="line2d_12">
      <g>
       <use xlink:href="#mc86ffb2b67" x="278.4966" y="148.358855" style="stroke: #000000; stroke-width: 0.8"/>
      </g>
     </g>
     <g id="text_6">
      <!-- 25 -->
      <g transform="translate(272.1341 162.957293) scale(0.1 -0.1)">
       <use xlink:href="#DejaVuSans-32"/>
       <use xlink:href="#DejaVuSans-35" x="63.623047"/>
      </g>
     </g>
    </g>
    <g id="xtick_7">
     <g id="line2d_13">
      <path d="M 327.767857 148.358855 
L 327.767857 1.147977 
" clip-path="url(#pa3f13e3261)" style="fill: none; stroke-dasharray: 0.8,1.32; stroke-dashoffset: 0; stroke: #000000; stroke-opacity: 0.5; stroke-width: 0.8"/>
     </g>
     <g id="line2d_14">
      <g>
       <use xlink:href="#mc86ffb2b67" x="327.767857" y="148.358855" style="stroke: #000000; stroke-width: 0.8"/>
      </g>
     </g>
     <g id="text_7">
      <!-- 30 -->
      <g transform="translate(321.405357 162.957293) scale(0.1 -0.1)">
       <defs>
        <path id="DejaVuSans-33" d="M 2597 2516 
Q 3050 2419 3304 2112 
Q 3559 1806 3559 1356 
Q 3559 666 3084 287 
Q 2609 -91 1734 -91 
Q 1441 -91 1130 -33 
Q 819 25 488 141 
L 488 750 
Q 750 597 1062 519 
Q 1375 441 1716 441 
Q 2309 441 2620 675 
Q 2931 909 2931 1356 
Q 2931 1769 2642 2001 
Q 2353 2234 1838 2234 
L 1294 2234 
L 1294 2753 
L 1863 2753 
Q 2328 2753 2575 2939 
Q 2822 3125 2822 3475 
Q 2822 3834 2567 4026 
Q 2313 4219 1838 4219 
Q 1578 4219 1281 4162 
Q 984 4106 628 3988 
L 628 4550 
Q 988 4650 1302 4700 
Q 1616 4750 1894 4750 
Q 2613 4750 3031 4423 
Q 3450 4097 3450 3541 
Q 3450 3153 3228 2886 
Q 3006 2619 2597 2516 
z
" transform="scale(0.015625)"/>
       </defs>
       <use xlink:href="#DejaVuSans-33"/>
       <use xlink:href="#DejaVuSans-30" x="63.623047"/>
      </g>
     </g>
    </g>
    <g id="text_8">
     <!-- Zeit [s] -->
     <g transform="translate(175.483823 172.635418) scale(0.1 -0.1)">
      <defs>
       <path id="DejaVuSans-5a" d="M 359 4666 
L 4025 4666 
L 4025 4184 
L 1075 531 
L 4097 531 
L 4097 0 
L 288 0 
L 288 481 
L 3238 4134 
L 359 4134 
L 359 4666 
z
" transform="scale(0.015625)"/>
       <path id="DejaVuSans-65" d="M 3597 1894 
L 3597 1613 
L 953 1613 
Q 991 1019 1311 708 
Q 1631 397 2203 397 
Q 2534 397 2845 478 
Q 3156 559 3463 722 
L 3463 178 
Q 3153 47 2828 -22 
Q 2503 -91 2169 -91 
Q 1331 -91 842 396 
Q 353 884 353 1716 
Q 353 2575 817 3079 
Q 1281 3584 2069 3584 
Q 2775 3584 3186 3129 
Q 3597 2675 3597 1894 
z
M 3022 2063 
Q 3016 2534 2758 2815 
Q 2500 3097 2075 3097 
Q 1594 3097 1305 2825 
Q 1016 2553 972 2059 
L 3022 2063 
z
" transform="scale(0.015625)"/>
       <path id="DejaVuSans-69" d="M 603 3500 
L 1178 3500 
L 1178 0 
L 603 0 
L 603 3500 
z
M 603 4863 
L 1178 4863 
L 1178 4134 
L 603 4134 
L 603 4863 
z
" transform="scale(0.015625)"/>
       <path id="DejaVuSans-74" d="M 1172 4494 
L 1172 3500 
L 2356 3500 
L 2356 3053 
L 1172 3053 
L 1172 1153 
Q 1172 725 1289 603 
Q 1406 481 1766 481 
L 2356 481 
L 2356 0 
L 1766 0 
Q 1100 0 847 248 
Q 594 497 594 1153 
L 594 3053 
L 172 3053 
L 172 3500 
L 594 3500 
L 594 4494 
L 1172 4494 
z
" transform="scale(0.015625)"/>
       <path id="DejaVuSans-20" transform="scale(0.015625)"/>
       <path id="DejaVuSans-5b" d="M 550 4863 
L 1875 4863 
L 1875 4416 
L 1125 4416 
L 1125 -397 
L 1875 -397 
L 1875 -844 
L 550 -844 
L 550 4863 
z
" transform="scale(0.015625)"/>
       <path id="DejaVuSans-73" d="M 2834 3397 
L 2834 2853 
Q 2591 2978 2328 3040 
Q 2066 3103 1784 3103 
Q 1356 3103 1142 2972 
Q 928 2841 928 2578 
Q 928 2378 1081 2264 
Q 1234 2150 1697 2047 
L 1894 2003 
Q 2506 1872 2764 1633 
Q 3022 1394 3022 966 
Q 3022 478 2636 193 
Q 2250 -91 1575 -91 
Q 1294 -91 989 -36 
Q 684 19 347 128 
L 347 722 
Q 666 556 975 473 
Q 1284 391 1588 391 
Q 1994 391 2212 530 
Q 2431 669 2431 922 
Q 2431 1156 2273 1281 
Q 2116 1406 1581 1522 
L 1381 1569 
Q 847 1681 609 1914 
Q 372 2147 372 2553 
Q 372 3047 722 3315 
Q 1072 3584 1716 3584 
Q 2034 3584 2315 3537 
Q 2597 3491 2834 3397 
z
" transform="scale(0.015625)"/>
       <path id="DejaVuSans-5d" d="M 1947 4863 
L 1947 -844 
L 622 -844 
L 622 -397 
L 1369 -397 
L 1369 4416 
L 622 4416 
L 622 4863 
L 1947 4863 
z
" transform="scale(0.015625)"/>
      </defs>
      <use xlink:href="#DejaVuSans-5a"/>
      <use xlink:href="#DejaVuSans-65" x="68.505859"/>
      <use xlink:href="#DejaVuSans-69" x="130.029297"/>
      <use xlink:href="#DejaVuSans-74" x="157.8125"/>
      <use xlink:href="#DejaVuSans-20" x="197.021484"/>
      <use xlink:href="#DejaVuSans-5b" x="228.808594"/>
      <use xlink:href="#DejaVuSans-73" x="267.822266"/>
      <use xlink:href="#DejaVuSans-5d" x="319.921875"/>
     </g>
    </g>
   </g>
   <g id="matplotlib.axis_2">
    <g id="ytick_1">
     <g id="line2d_15">
      <path d="M 32.140313 121.035647 
L 354.71952 121.035647 
" clip-path="url(#pa3f13e3261)" style="fill: none; stroke-dasharray: 0.8,1.32; stroke-dashoffset: 0; stroke: #000000; stroke-opacity: 0.5; stroke-width: 0.8"/>
     </g>
     <g id="line2d_16">
      <defs>
       <path id="m64c9c59520" d="M 0 0 
L -3.5 0 
" style="stroke: #000000; stroke-width: 0.8"/>
      </defs>
      <g>
       <use xlink:href="#m64c9c59520" x="32.140313" y="121.035647" style="stroke: #000000; stroke-width: 0.8"/>
      </g>
     </g>
     <g id="text_9">
      <!-- −6 -->
      <g transform="translate(10.398125 124.834866) scale(0.1 -0.1)">
       <defs>
        <path id="DejaVuSans-2212" d="M 678 2272 
L 4684 2272 
L 4684 1741 
L 678 1741 
L 678 2272 
z
" transform="scale(0.015625)"/>
        <path id="DejaVuSans-36" d="M 2113 2584 
Q 1688 2584 1439 2293 
Q 1191 2003 1191 1497 
Q 1191 994 1439 701 
Q 1688 409 2113 409 
Q 2538 409 2786 701 
Q 3034 994 3034 1497 
Q 3034 2003 2786 2293 
Q 2538 2584 2113 2584 
z
M 3366 4563 
L 3366 3988 
Q 3128 4100 2886 4159 
Q 2644 4219 2406 4219 
Q 1781 4219 1451 3797 
Q 1122 3375 1075 2522 
Q 1259 2794 1537 2939 
Q 1816 3084 2150 3084 
Q 2853 3084 3261 2657 
Q 3669 2231 3669 1497 
Q 3669 778 3244 343 
Q 2819 -91 2113 -91 
Q 1303 -91 875 529 
Q 447 1150 447 2328 
Q 447 3434 972 4092 
Q 1497 4750 2381 4750 
Q 2619 4750 2861 4703 
Q 3103 4656 3366 4563 
z
" transform="scale(0.015625)"/>
       </defs>
       <use xlink:href="#DejaVuSans-2212"/>
       <use xlink:href="#DejaVuSans-36" x="83.789062"/>
      </g>
     </g>
    </g>
    <g id="ytick_2">
     <g id="line2d_17">
      <path d="M 32.140313 82.196838 
L 354.71952 82.196838 
" clip-path="url(#pa3f13e3261)" style="fill: none; stroke-dasharray: 0.8,1.32; stroke-dashoffset: 0; stroke: #000000; stroke-opacity: 0.5; stroke-width: 0.8"/>
     </g>
     <g id="line2d_18">
      <g>
       <use xlink:href="#m64c9c59520" x="32.140313" y="82.196838" style="stroke: #000000; stroke-width: 0.8"/>
      </g>
     </g>
     <g id="text_10">
      <!-- −4 -->
      <g transform="translate(10.398125 85.996057) scale(0.1 -0.1)">
       <defs>
        <path id="DejaVuSans-34" d="M 2419 4116 
L 825 1625 
L 2419 1625 
L 2419 4116 
z
M 2253 4666 
L 3047 4666 
L 3047 1625 
L 3713 1625 
L 3713 1100 
L 3047 1100 
L 3047 0 
L 2419 0 
L 2419 1100 
L 313 1100 
L 313 1709 
L 2253 4666 
z
" transform="scale(0.015625)"/>
       </defs>
       <use xlink:href="#DejaVuSans-2212"/>
       <use xlink:href="#DejaVuSans-34" x="83.789062"/>
      </g>
     </g>
    </g>
    <g id="ytick_3">
     <g id="line2d_19">
      <path d="M 32.140313 43.358028 
L 354.71952 43.358028 
" clip-path="url(#pa3f13e3261)" style="fill: none; stroke-dasharray: 0.8,1.32; stroke-dashoffset: 0; stroke: #000000; stroke-opacity: 0.5; stroke-width: 0.8"/>
     </g>
     <g id="line2d_20">
      <g>
       <use xlink:href="#m64c9c59520" x="32.140313" y="43.358028" style="stroke: #000000; stroke-width: 0.8"/>
      </g>
     </g>
     <g id="text_11">
      <!-- −2 -->
      <g transform="translate(10.398125 47.157247) scale(0.1 -0.1)">
       <use xlink:href="#DejaVuSans-2212"/>
       <use xlink:href="#DejaVuSans-32" x="83.789062"/>
      </g>
     </g>
    </g>
    <g id="ytick_4">
     <g id="line2d_21">
      <path d="M 32.140313 4.519219 
L 354.71952 4.519219 
" clip-path="url(#pa3f13e3261)" style="fill: none; stroke-dasharray: 0.8,1.32; stroke-dashoffset: 0; stroke: #000000; stroke-opacity: 0.5; stroke-width: 0.8"/>
     </g>
     <g id="line2d_22">
      <g>
       <use xlink:href="#m64c9c59520" x="32.140313" y="4.519219" style="stroke: #000000; stroke-width: 0.8"/>
      </g>
     </g>
     <g id="text_12">
      <!-- 0 -->
      <g transform="translate(18.777813 8.318437) scale(0.1 -0.1)">
       <use xlink:href="#DejaVuSans-30"/>
      </g>
     </g>
    </g>
    <g id="text_13">
     <!-- Kraft [N] -->
     <g transform="translate(8.318438 96.015916) rotate(-90) scale(0.1 -0.1)">
      <defs>
       <path id="DejaVuSans-4b" d="M 628 4666 
L 1259 4666 
L 1259 2694 
L 3353 4666 
L 4166 4666 
L 1850 2491 
L 4331 0 
L 3500 0 
L 1259 2247 
L 1259 0 
L 628 0 
L 628 4666 
z
" transform="scale(0.015625)"/>
       <path id="DejaVuSans-72" d="M 2631 2963 
Q 2534 3019 2420 3045 
Q 2306 3072 2169 3072 
Q 1681 3072 1420 2755 
Q 1159 2438 1159 1844 
L 1159 0 
L 581 0 
L 581 3500 
L 1159 3500 
L 1159 2956 
Q 1341 3275 1631 3429 
Q 1922 3584 2338 3584 
Q 2397 3584 2469 3576 
Q 2541 3569 2628 3553 
L 2631 2963 
z
" transform="scale(0.015625)"/>
       <path id="DejaVuSans-61" d="M 2194 1759 
Q 1497 1759 1228 1600 
Q 959 1441 959 1056 
Q 959 750 1161 570 
Q 1363 391 1709 391 
Q 2188 391 2477 730 
Q 2766 1069 2766 1631 
L 2766 1759 
L 2194 1759 
z
M 3341 1997 
L 3341 0 
L 2766 0 
L 2766 531 
Q 2569 213 2275 61 
Q 1981 -91 1556 -91 
Q 1019 -91 701 211 
Q 384 513 384 1019 
Q 384 1609 779 1909 
Q 1175 2209 1959 2209 
L 2766 2209 
L 2766 2266 
Q 2766 2663 2505 2880 
Q 2244 3097 1772 3097 
Q 1472 3097 1187 3025 
Q 903 2953 641 2809 
L 641 3341 
Q 956 3463 1253 3523 
Q 1550 3584 1831 3584 
Q 2591 3584 2966 3190 
Q 3341 2797 3341 1997 
z
" transform="scale(0.015625)"/>
       <path id="DejaVuSans-66" d="M 2375 4863 
L 2375 4384 
L 1825 4384 
Q 1516 4384 1395 4259 
Q 1275 4134 1275 3809 
L 1275 3500 
L 2222 3500 
L 2222 3053 
L 1275 3053 
L 1275 0 
L 697 0 
L 697 3053 
L 147 3053 
L 147 3500 
L 697 3500 
L 697 3744 
Q 697 4328 969 4595 
Q 1241 4863 1831 4863 
L 2375 4863 
z
" transform="scale(0.015625)"/>
       <path id="DejaVuSans-4e" d="M 628 4666 
L 1478 4666 
L 3547 763 
L 3547 4666 
L 4159 4666 
L 4159 0 
L 3309 0 
L 1241 3903 
L 1241 0 
L 628 0 
L 628 4666 
z
" transform="scale(0.015625)"/>
      </defs>
      <use xlink:href="#DejaVuSans-4b"/>
      <use xlink:href="#DejaVuSans-72" x="65.576172"/>
      <use xlink:href="#DejaVuSans-61" x="106.689453"/>
      <use xlink:href="#DejaVuSans-66" x="167.96875"/>
      <use xlink:href="#DejaVuSans-74" x="201.423828"/>
      <use xlink:href="#DejaVuSans-20" x="240.632812"/>
      <use xlink:href="#DejaVuSans-5b" x="272.419922"/>
      <use xlink:href="#DejaVuSans-4e" x="311.433594"/>
      <use xlink:href="#DejaVuSans-5d" x="386.238281"/>
     </g>
    </g>
   </g>
   <g id="line2d_23">
    <path d="M 32.140313 4.519219 
L 354.71952 4.519219 
L 354.71952 4.519219 
" clip-path="url(#pa3f13e3261)" style="fill: none; stroke: #0000ff; stroke-opacity: 0.5; stroke-width: 2.1; stroke-linecap: square"/>
   </g>
   <g id="line2d_24">
    <path d="M 32.140313 137.874699 
L 32.310987 137.50527 
L 32.38005 137.496432 
L 32.48524 138.18197 
L 32.502721 137.899984 
L 32.77826 136.562992 
L 32.858205 136.302398 
L 32.958467 137.093832 
L 33.135885 135.494796 
L 33.195211 135.558356 
L 33.354227 133.980119 
L 33.553485 135.98363 
L 33.635477 134.345254 
L 33.6922 134.412948 
L 33.870666 135.776856 
L 34.009505 134.082918 
L 34.089959 136.24772 
L 34.207345 136.259218 
L 34.267335 135.705354 
L 34.40607 137.617555 
L 34.527719 140.689927 
L 34.605476 139.589399 
L 34.824095 141.604549 
L 34.923515 138.473128 
L 35.003867 140.956743 
L 35.419528 133.378871 
L 35.498905 133.402545 
L 35.569328 133.656912 
L 35.578624 137.325127 
L 35.658257 135.12581 
L 35.81819 133.258527 
L 35.982875 136.534443 
L 36.065967 136.40081 
L 36.157792 135.926601 
L 36.221347 138.259254 
L 36.317236 137.62825 
L 36.476221 136.248519 
L 36.555436 136.482963 
L 36.914679 133.987876 
L 37.13192 135.579407 
L 37.210321 135.472163 
L 37.330705 136.490857 
L 37.376431 136.262162 
L 37.551031 134.231493 
L 37.6305 134.275956 
L 37.714513 135.700515 
L 37.949444 133.200989 
L 38.28725 136.118637 
L 38.366697 135.890525 
L 38.525803 132.427826 
L 38.696882 135.043122 
L 38.942764 132.235909 
L 39.02309 132.771536 
L 39.341394 137.922499 
L 39.500326 136.46396 
L 39.687367 138.818523 
L 39.83676 137.36237 
L 39.997162 134.363849 
L 40.178242 136.880895 
L 40.255049 136.556835 
L 40.417233 137.693867 
L 40.496164 136.716265 
L 40.575244 137.038651 
L 40.734134 137.864912 
L 40.85344 139.661567 
L 40.933044 139.624068 
L 41.091775 138.711796 
L 41.151365 139.14745 
L 41.290204 135.715415 
L 41.369226 136.390944 
L 41.431271 136.71625 
L 41.567471 134.714007 
L 41.805997 133.485177 
L 41.888073 134.042153 
L 41.989267 133.100252 
L 42.133515 134.441591 
L 42.226796 133.56322 
L 42.385084 135.198098 
L 42.710166 134.881818 
L 42.80743 133.955852 
L 42.888573 133.172565 
L 42.988488 133.166523 
L 43.049971 135.876183 
L 43.207795 134.159821 
L 43.392094 136.174978 
L 43.469813 134.75432 
L 43.618429 137.578373 
L 43.725173 136.978178 
L 43.895375 133.307725 
L 43.954192 135.200237 
L 44.150499 133.243326 
L 44.297842 135.132413 
L 44.457287 131.716229 
L 44.714777 134.406556 
L 44.795141 133.853803 
L 44.89365 134.041486 
L 44.953273 131.780167 
L 45.012999 132.174037 
L 45.114304 131.266839 
L 45.389907 134.396055 
L 45.436947 135.993891 
L 45.54918 134.499967 
L 45.650097 134.521599 
L 45.688671 136.235654 
L 45.749733 136.118063 
L 45.879631 133.871033 
L 45.938959 136.600855 
L 46.006767 135.968888 
L 46.125533 136.66582 
L 46.273426 132.976194 
L 46.344236 134.383402 
L 46.404621 134.234076 
L 46.517914 133.925063 
L 46.681021 136.302769 
L 46.740888 135.407325 
L 46.980779 137.031783 
L 47.028566 136.511533 
L 47.138034 136.54964 
L 47.217224 136.995576 
L 47.296424 136.970409 
L 47.317251 135.572448 
L 47.397016 135.612644 
L 47.476521 136.393006 
L 47.734408 133.496609 
L 47.892412 135.591085 
L 47.972375 134.889981 
L 48.251731 137.455117 
L 48.38941 138.809847 
L 48.54746 137.813146 
L 48.649053 137.635739 
L 48.952411 135.4022 
L 49.202722 132.822153 
L 49.316863 133.906194 
L 49.461018 132.446464 
L 49.70057 134.35181 
L 49.79325 135.387862 
L 49.859639 135.017652 
L 49.998139 133.782503 
L 50.057508 133.948789 
L 50.275888 136.419175 
L 50.395781 137.372677 
L 50.435873 137.340461 
L 50.614983 135.504752 
L 50.953152 139.267817 
L 51.071239 139.52105 
L 51.114185 139.131876 
L 51.309643 136.798225 
L 51.369651 137.395285 
L 51.483616 137.155514 
L 51.508571 137.812576 
L 51.688377 133.813485 
L 51.767312 132.34153 
L 51.889463 132.679315 
L 52.010653 134.452118 
L 52.179919 132.923264 
L 52.262897 133.319828 
L 52.403028 130.246268 
L 52.46825 130.554295 
L 52.592098 132.391772 
L 52.861673 131.978514 
L 52.882641 132.082963 
L 52.981077 132.004409 
L 53.455203 136.671421 
L 53.652415 133.049433 
L 53.810469 137.101468 
L 53.928874 136.496439 
L 54.128259 137.483355 
L 54.230261 137.713412 
L 54.289313 138.352401 
L 54.385685 140.366284 
L 54.544822 144.117366 
L 54.986804 140.011243 
L 55.005779 140.345154 
L 55.225811 138.801479 
L 55.283312 139.405513 
L 55.482174 137.489582 
L 55.561722 136.416879 
L 55.702837 138.219632 
L 55.846901 138.021265 
L 56.038964 142.206214 
L 56.198246 138.789295 
L 56.456244 142.439162 
L 56.520654 141.951185 
L 56.616165 142.281977 
L 56.873578 137.397504 
L 57.293678 139.882661 
L 57.727455 140.114887 
L 58.190763 136.856164 
L 58.623822 137.340807 
L 58.641371 137.763969 
L 58.739831 135.566517 
L 58.89929 136.672383 
L 59.196922 134.696808 
L 59.536532 139.069126 
L 59.555195 137.858655 
L 59.693877 135.88312 
L 59.912608 140.934306 
L 60.031772 140.585905 
L 60.293844 137.354845 
L 60.378197 137.826855 
L 60.629418 140.681133 
L 60.728177 138.730994 
L 60.788258 138.832608 
L 60.985081 139.845243 
L 61.204442 137.309751 
L 61.36515 135.298809 
L 61.482955 135.215974 
L 61.602835 135.77289 
L 61.800063 136.309146 
L 62.064406 139.054179 
L 62.183251 139.85814 
L 62.198662 137.742604 
L 62.273221 140.00318 
L 62.472089 139.150095 
L 62.615734 138.223876 
L 62.670631 138.051341 
L 62.750469 138.981652 
L 62.928505 137.945207 
L 63.008256 138.487988 
L 63.186583 138.067328 
L 63.267028 138.658209 
L 63.326237 137.761602 
L 63.425331 137.887427 
L 63.685429 140.025162 
L 63.782426 140.204426 
L 63.901422 138.475521 
L 64.001491 139.567876 
L 64.139666 139.268912 
L 64.160599 140.162617 
L 64.419521 135.710212 
L 64.577697 136.176766 
L 64.639208 136.210278 
L 64.736902 137.375781 
L 64.895138 136.859415 
L 65.11324 140.427627 
L 65.234299 138.042709 
L 65.403591 138.319467 
L 65.501231 139.002708 
L 65.671414 137.142922 
L 65.762593 137.71429 
L 65.877633 134.301983 
L 65.957349 137.218063 
L 66.154212 137.251322 
L 66.352791 135.043614 
L 66.451348 137.031705 
L 66.533239 137.435696 
L 66.729591 139.116015 
L 66.868526 136.281224 
L 66.947528 135.139915 
L 67.086106 135.612078 
L 67.108358 136.960914 
L 67.211116 136.499999 
L 67.266292 136.019134 
L 67.602158 139.301404 
L 67.682059 139.079234 
L 67.921086 140.38867 
L 67.98068 140.286429 
L 68.024552 140.359377 
L 68.258481 138.587395 
L 68.338782 138.831595 
L 68.518125 141.172988 
L 68.638098 140.349639 
L 68.775088 138.664106 
L 68.835057 138.758757 
L 68.91541 139.711937 
L 68.993963 138.342287 
L 69.152514 138.007804 
L 69.273181 139.489129 
L 69.590195 137.506334 
L 69.649023 138.224937 
L 70.026509 136.187187 
L 70.249158 135.877312 
L 70.322061 136.33814 
L 70.472428 134.415915 
L 70.567936 134.795125 
L 70.746723 135.915811 
L 70.926489 132.251254 
L 70.986888 133.44576 
L 71.144722 136.130088 
L 71.261668 136.450824 
L 71.544426 131.528977 
L 71.704907 134.619636 
L 71.801762 134.541279 
L 71.881252 134.025486 
L 71.961267 132.711496 
L 72.179882 133.472184 
L 72.279739 137.259668 
L 72.418763 137.318179 
L 72.537788 134.940698 
L 72.61689 135.318747 
L 72.768095 135.265173 
L 72.856579 135.541196 
L 73.081927 133.902104 
L 73.272355 137.99718 
L 73.353218 137.779941 
L 73.515621 135.802235 
L 73.590267 136.510427 
L 73.714081 138.499601 
L 73.810067 138.345444 
L 73.849761 137.538498 
L 74.010422 137.276398 
L 74.057142 136.649189 
L 74.169801 134.162467 
L 74.370768 135.96815 
L 74.527312 131.996454 
L 74.587125 132.242139 
L 74.786925 134.766168 
L 74.904431 133.507385 
L 74.924046 133.877846 
L 75.05331 134.928273 
L 75.243836 131.839051 
L 75.322208 132.934804 
L 75.501555 131.496857 
L 75.64253 133.098696 
L 75.66075 135.263671 
L 75.739566 133.332941 
L 75.81944 133.09377 
L 76.160801 136.605298 
L 76.224761 136.511101 
L 76.319197 136.925514 
L 76.398414 136.431949 
L 76.55739 140.442135 
L 76.656987 139.936453 
L 76.801569 138.021645 
L 76.817105 140.008445 
L 76.896862 138.683014 
L 76.957367 138.504691 
L 77.077393 138.531452 
L 77.236516 141.441237 
L 77.475912 135.689427 
L 77.492825 135.876356 
L 77.632491 137.481551 
L 77.712914 137.342622 
L 77.79306 137.331896 
L 77.872749 137.889089 
L 78.071879 133.0693 
L 78.129748 134.312876 
L 78.213005 136.431216 
L 78.269878 135.991759 
L 78.411259 135.495825 
L 78.450076 136.178653 
L 78.632517 135.388611 
L 78.688368 135.321985 
L 78.767523 136.513661 
L 78.787004 135.275539 
L 78.847732 136.001316 
L 78.990853 135.22974 
L 79.010389 133.668092 
L 79.112787 133.887786 
L 79.50638 135.914503 
L 79.785402 137.232662 
L 79.843845 139.910117 
L 79.923569 139.542667 
L 80.162696 136.332524 
L 80.262114 137.067329 
L 80.420001 136.98447 
L 80.506674 136.074355 
L 80.585731 136.085051 
L 80.666036 133.219652 
L 80.747584 134.153183 
L 80.941542 137.225485 
L 81.05865 136.94363 
L 81.13793 136.346236 
L 81.156572 137.110012 
L 81.256699 136.995174 
L 81.316592 135.285928 
L 81.436073 135.70438 
L 81.59431 138.334685 
L 81.653777 138.257921 
L 81.891735 136.429805 
L 81.972454 136.292161 
L 82.141208 138.424121 
L 82.281464 137.979335 
L 82.469825 134.691879 
L 82.553842 134.64839 
L 82.628457 136.124004 
L 82.707603 136.104256 
L 82.886826 133.777929 
L 83.066503 136.422911 
L 83.324551 134.347329 
L 83.36426 135.213463 
L 83.543575 134.606161 
L 83.622057 136.038419 
L 83.741355 135.71195 
L 83.881388 133.426769 
L 84.059674 135.907187 
L 84.11979 135.643834 
L 84.209859 133.607458 
L 84.321446 133.810341 
L 84.398919 134.22074 
L 84.525509 133.04972 
L 84.956626 136.1039 
L 85.10365 138.194887 
L 85.194205 135.979517 
L 85.369807 137.854552 
L 85.443697 137.512444 
L 85.455454 137.602212 
L 85.499382 138.977009 
L 85.634473 139.121276 
L 85.774328 136.580094 
L 85.852781 136.619518 
L 85.912024 139.072214 
L 86.133128 137.134872 
L 86.237449 138.761067 
L 86.412853 135.377061 
L 86.57102 138.33975 
L 86.730706 134.108384 
L 86.750041 134.573801 
L 86.910583 136.401582 
L 87.068116 133.307096 
L 87.146759 134.064942 
L 87.226951 133.792272 
L 87.386355 131.497083 
L 87.564694 134.720536 
L 87.724248 133.512571 
L 87.963104 134.342705 
L 88.058972 132.973423 
L 88.139505 133.524113 
L 88.298717 135.218116 
L 88.456232 134.883664 
L 88.715038 137.990026 
L 88.795287 137.914893 
L 88.953835 140.55098 
L 89.112758 137.827708 
L 89.191826 137.901342 
L 89.371626 136.078984 
L 89.451009 135.879067 
L 89.531067 133.665949 
L 89.690191 135.139583 
L 89.8475 132.510524 
L 90.185286 135.152422 
L 90.265099 133.327953 
L 90.354302 136.368123 
L 90.425364 135.179836 
L 90.504968 133.138883 
L 90.585277 135.586153 
L 90.704058 135.520436 
L 90.844626 134.114015 
L 91.019516 132.496176 
L 91.08061 135.268424 
L 91.167902 135.107091 
L 91.259155 136.020039 
L 91.338014 137.377692 
L 91.417527 135.910142 
L 91.499246 136.450663 
L 91.736992 138.583061 
L 91.901269 137.411452 
L 92.074333 134.470434 
L 92.247132 137.638372 
L 92.272863 137.266121 
L 92.314121 136.110884 
L 92.478393 135.358614 
L 92.577677 136.663327 
L 92.732375 136.327062 
L 92.792034 136.605171 
L 92.812509 137.470856 
L 92.89329 137.205246 
L 93.07947 135.081585 
L 93.230533 138.029164 
L 93.310554 136.319754 
L 93.42991 136.427332 
L 93.469003 137.932776 
L 93.548154 136.877655 
L 93.628159 136.460187 
L 93.708375 138.795367 
L 94.054278 136.643038 
L 94.069909 136.786234 
L 94.128801 138.45254 
L 94.329284 138.508938 
L 94.546606 136.235817 
L 94.626017 135.771845 
L 94.646015 136.95525 
L 94.844423 137.21623 
L 94.96521 135.020915 
L 94.985528 133.926745 
L 95.046108 134.414793 
L 95.147302 133.875985 
L 95.304236 136.688243 
L 95.344018 140.577635 
L 95.421856 139.637963 
L 95.442232 138.528372 
L 95.522483 138.920075 
L 95.622367 138.656061 
L 95.682322 137.546679 
L 95.780669 141.480831 
L 95.979191 139.935555 
L 96.097626 138.841818 
L 96.118994 137.315528 
L 96.176618 139.098019 
L 96.256947 139.144811 
L 96.336254 138.002965 
L 96.456443 138.74426 
L 96.535964 138.592984 
L 96.636321 137.367929 
L 96.793417 139.987964 
L 96.893117 139.924808 
L 96.96872 139.432201 
L 96.993852 137.697647 
L 97.192347 139.761607 
L 97.251212 138.782993 
L 97.36982 138.841425 
L 97.409257 139.288407 
L 97.726953 137.631345 
L 97.905656 139.5421 
L 97.955206 139.419285 
L 97.9649 139.321876 
L 98.024575 139.640596 
L 98.185297 140.124019 
L 98.323395 139.336844 
L 98.346485 137.40677 
L 98.40294 138.963185 
L 98.482435 139.949627 
L 98.730988 137.996768 
L 98.886019 138.966013 
L 98.981321 138.594702 
L 99.146727 140.891397 
L 99.300421 137.878396 
L 99.656096 136.283313 
L 99.818563 134.18678 
L 99.957252 133.450117 
L 100.054384 134.126151 
L 100.114845 133.488855 
L 100.275499 133.929811 
L 100.450958 130.918928 
L 100.530463 131.413589 
L 100.649844 132.535283 
L 100.733859 132.120201 
L 100.797137 132.505099 
L 100.947522 131.263579 
L 101.151687 131.983867 
L 101.367566 135.793593 
L 101.449011 135.688412 
L 101.865253 139.353435 
L 101.964678 138.429502 
L 102.025675 136.395819 
L 102.123079 136.819837 
L 102.242516 136.368711 
L 102.284667 135.190743 
L 102.381471 135.892404 
L 102.442593 134.68053 
L 102.520602 136.555552 
L 102.619544 136.352028 
L 102.679307 136.187019 
L 102.844711 139.30779 
L 102.917258 139.191864 
L 103.077021 139.777961 
L 103.159033 138.494062 
L 103.254842 138.698108 
L 103.415356 137.61677 
L 103.493457 137.470776 
L 103.791275 134.533873 
L 103.910611 135.207981 
L 104.089524 136.966091 
L 104.150494 136.499084 
L 104.249554 137.147344 
L 104.331414 136.922474 
L 104.428621 137.04434 
L 104.567592 140.231103 
L 104.647272 140.197642 
L 104.816804 138.90008 
L 105.025742 140.415621 
L 105.108714 139.553568 
L 105.14456 139.881659 
L 105.223495 140.966659 
L 105.461892 136.380635 
L 105.625238 135.980577 
L 105.800149 133.180236 
L 105.958794 133.372156 
L 106.038727 132.610545 
L 106.126418 132.677008 
L 106.356987 133.671278 
L 106.379862 133.66095 
L 106.536384 136.321165 
L 106.705301 135.404117 
L 106.859515 137.669435 
L 106.93396 136.149377 
L 107.013911 136.269168 
L 107.112001 137.321754 
L 107.351014 135.204589 
L 107.518725 138.699932 
L 107.6873 134.592967 
L 107.848021 136.505311 
L 107.925842 135.356658 
L 108.006434 135.640238 
L 108.085676 136.507344 
L 108.422805 132.055108 
L 108.581511 133.66298 
L 108.664958 132.769403 
L 108.822788 134.613469 
L 108.920328 134.267113 
L 109.0008 134.143976 
L 109.317049 136.754622 
L 109.484126 134.555093 
L 109.663582 135.590695 
L 109.779548 135.606 
L 109.81547 136.137603 
L 109.897975 134.950167 
L 109.97406 135.21152 
L 110.055448 134.914375 
L 110.214371 137.433892 
L 110.315343 137.975732 
L 110.552052 134.28874 
L 110.631235 134.854491 
L 110.710913 136.992556 
L 110.889379 135.115641 
L 110.975078 134.13128 
L 111.052157 134.25965 
L 111.172369 135.851408 
L 111.30243 135.582059 
L 111.391191 136.268254 
L 111.5299 134.598847 
L 111.609425 135.504743 
L 111.767198 135.854859 
L 111.80662 136.569792 
L 111.946263 134.559346 
L 112.105612 134.232478 
L 112.223746 135.498642 
L 112.362264 134.725142 
L 112.443889 134.8895 
L 112.709573 134.605527 
L 112.939853 136.931827 
L 113.019122 136.3492 
L 113.119503 136.8643 
L 113.281571 135.810789 
L 113.341596 136.417101 
L 113.416911 136.332413 
L 113.516277 135.204067 
L 113.719267 137.370996 
L 113.755614 135.530275 
L 113.856079 137.307313 
L 114.153015 137.89012 
L 114.351966 139.644894 
L 114.500189 136.907707 
L 114.569849 137.202751 
L 114.652103 137.146614 
L 114.833483 138.076269 
L 114.987639 135.579957 
L 115.067443 135.947444 
L 115.344995 134.58488 
L 115.465182 134.890416 
L 115.644442 131.698532 
L 115.722906 132.067382 
L 115.802985 132.368685 
L 115.903628 131.417664 
L 116.319187 137.191278 
L 116.43866 135.860017 
L 116.465103 137.913186 
L 116.577618 137.902254 
L 116.637152 137.438334 
L 116.720206 138.697605 
L 116.79646 138.56406 
L 116.91456 138.300772 
L 117.035129 133.656155 
L 117.113906 133.684451 
L 117.291366 135.66641 
L 117.390874 135.182948 
L 117.470344 135.58077 
L 117.710879 133.725495 
L 117.871489 134.146869 
L 117.949692 134.038582 
L 118.03093 133.662603 
L 118.187225 134.988093 
L 118.306829 134.296443 
L 118.366678 134.590349 
L 118.445283 134.320169 
L 118.625466 134.493733 
L 118.803663 137.796511 
L 118.94235 134.084624 
L 119.02204 134.721093 
L 119.101225 135.39246 
L 119.261931 135.150577 
L 119.336983 134.118778 
L 119.424372 135.850918 
L 119.469382 135.970732 
L 119.59197 132.639682 
L 119.756647 135.363743 
L 119.835226 134.32773 
L 119.953284 135.759974 
L 120.013217 137.326503 
L 120.172889 137.766852 
L 120.275931 135.847204 
L 120.42239 136.514701 
L 120.590852 134.665545 
L 120.689763 136.151618 
L 120.812801 134.791287 
L 120.873893 132.458524 
L 120.912177 133.917646 
L 120.988929 133.916594 
L 121.0679 133.025691 
L 121.354663 134.526622 
L 121.446821 135.691147 
L 121.486322 135.2175 
L 121.765215 134.114138 
L 121.884795 134.702707 
L 121.946525 136.085581 
L 122.079287 136.403933 
L 122.350209 131.211079 
L 122.383739 132.455381 
L 122.465271 133.211031 
L 122.541737 132.757977 
L 122.622054 132.973571 
L 122.802778 131.308391 
L 122.960752 133.334864 
L 123.040248 132.77166 
L 123.140229 134.990838 
L 123.219164 134.09536 
L 123.278626 134.340986 
L 123.480155 133.608759 
L 123.638447 136.699277 
L 123.730788 136.879125 
L 123.856144 139.136098 
L 123.938096 137.633762 
L 124.114866 138.079259 
L 124.295607 136.713127 
L 124.397303 137.70584 
L 124.515623 136.356038 
L 124.600651 137.357652 
L 124.693998 135.635716 
L 124.934917 134.55586 
L 125.092577 138.82117 
L 125.250905 134.817882 
L 125.334927 135.06299 
L 125.431407 134.033938 
L 125.676912 137.333118 
L 125.7572 137.32581 
L 125.946577 135.716323 
L 126.107178 138.62697 
L 126.248065 137.903238 
L 126.427603 136.726821 
L 126.744696 135.139867 
L 127.141198 129.55023 
L 127.498376 133.427767 
L 127.60244 133.129489 
L 127.795448 136.703879 
L 127.958273 139.279337 
L 128.148927 136.739813 
L 128.213257 137.866298 
L 128.391712 136.889037 
L 128.471745 137.491649 
L 128.571788 137.389781 
L 128.715998 134.061568 
L 128.907785 135.208715 
L 129.047294 134.432899 
L 129.151241 134.638173 
L 129.20593 135.969568 
L 129.319393 135.620842 
L 129.42642 134.238446 
L 129.444834 134.82121 
L 129.583873 134.587742 
L 129.70368 135.883982 
L 130.022913 131.858489 
L 130.120325 132.267689 
L 130.183974 134.266757 
L 130.279782 134.219549 
L 130.420785 135.059758 
L 130.519585 133.499292 
L 130.619263 136.105959 
L 130.836857 137.616221 
L 130.916252 136.799566 
L 131.015464 136.85156 
L 131.097724 136.777154 
L 131.174198 136.543916 
L 131.349823 135.556994 
L 131.571665 137.210091 
L 131.666952 135.865841 
L 131.747699 135.962459 
L 131.985971 137.544685 
L 132.08322 139.92312 
L 132.201868 139.112703 
L 132.261729 137.78902 
L 132.325723 138.452317 
L 132.340844 139.577582 
L 132.401361 137.854125 
L 132.601981 139.629037 
L 132.660194 137.865422 
L 132.739078 138.081485 
L 132.879224 138.258203 
L 132.917837 135.442969 
L 132.9842 136.931546 
L 133.058635 136.865209 
L 133.158367 135.698711 
L 133.240361 137.289343 
L 133.302021 136.603258 
L 133.496855 137.658079 
L 133.659665 135.371253 
L 133.736672 137.715819 
L 133.79533 136.159839 
L 133.974574 139.719735 
L 134.040812 138.778548 
L 134.17436 138.565945 
L 134.252635 137.989964 
L 134.491416 140.99953 
L 134.542981 138.40643 
L 134.670473 138.098876 
L 134.790842 135.811551 
L 134.911493 135.835855 
L 134.949777 136.37915 
L 135.02845 135.943728 
L 135.207565 134.092145 
L 135.447208 136.287468 
L 135.547557 138.394614 
L 135.705204 135.900336 
L 135.768021 135.610169 
L 135.86995 133.929707 
L 135.883577 134.923173 
L 136.023359 134.891037 
L 136.082617 137.803809 
L 136.103731 135.091015 
L 136.262755 133.957992 
L 136.34215 134.424038 
L 136.481096 134.034285 
L 136.702309 137.140775 
L 136.85303 134.824158 
L 136.919517 135.978581 
L 137.117493 137.448708 
L 137.178053 135.397651 
L 137.257063 135.837325 
L 137.495006 132.865517 
L 137.574372 134.54597 
L 137.653487 134.51767 
L 137.854755 132.510595 
L 137.911652 133.185982 
L 138.072236 132.182174 
L 138.230048 132.757889 
L 138.312658 132.671737 
L 138.488185 131.863333 
L 138.56753 132.9682 
L 138.726293 132.038496 
L 139.169529 138.078288 
L 139.283991 137.194635 
L 139.462265 139.004134 
L 139.545439 138.523526 
L 139.715509 134.741346 
L 139.788291 135.014984 
L 139.879627 135.544593 
L 139.959291 134.288959 
L 140.094782 135.594039 
L 140.11557 135.357027 
L 140.313702 134.05188 
L 140.453189 136.471999 
L 140.534042 136.353887 
L 140.631487 135.901631 
L 140.711253 136.141297 
L 140.772076 137.969318 
L 140.859367 137.435263 
L 140.969415 137.006618 
L 141.140004 138.126844 
L 141.259465 134.590885 
L 141.361014 135.080528 
L 141.45754 135.698358 
L 141.636401 132.920047 
L 141.695368 133.839145 
L 141.836631 132.947974 
L 141.954749 131.505889 
L 142.096463 133.219039 
L 142.176801 133.265019 
L 142.337649 134.185486 
L 142.452602 134.71383 
L 142.512413 134.241033 
L 142.577227 134.315256 
L 142.672948 134.472142 
L 142.891243 133.831831 
L 143.032114 135.924562 
L 143.209947 133.585687 
L 143.249263 132.205628 
L 143.408005 134.647572 
L 143.567409 133.38326 
L 143.726976 134.584416 
L 143.807125 133.9395 
L 144.144132 137.774084 
L 144.267512 134.964411 
L 144.403702 137.21263 
L 144.58457 134.556412 
L 144.706768 135.4973 
L 144.761152 135.057125 
L 144.800231 134.609351 
L 144.879494 134.858639 
L 144.960045 134.694995 
L 145.077584 135.169062 
L 145.21753 137.795418 
L 145.318009 139.124185 
L 145.535524 134.314296 
L 145.616242 134.851461 
L 145.717709 133.292996 
L 145.808634 133.511024 
L 145.952891 133.105514 
L 146.459258 137.816183 
L 146.52909 139.40067 
L 146.667125 139.72404 
L 146.692902 140.887939 
L 146.805418 140.163189 
L 146.847675 137.59164 
L 147.025996 137.486715 
L 147.106251 138.795767 
L 147.185074 137.98941 
L 147.30259 135.501872 
L 147.345147 136.499432 
L 147.454922 135.998176 
L 147.615181 133.2132 
L 147.632328 134.354316 
L 147.695834 134.054304 
L 147.791556 134.244719 
L 147.913167 135.537722 
L 147.95151 134.506699 
L 148.090854 135.623282 
L 148.113051 137.829186 
L 148.169145 135.116332 
L 148.248173 135.299905 
L 148.407739 137.303953 
L 148.506486 136.450132 
L 148.726071 138.694857 
L 148.825751 136.25155 
L 148.905037 136.411628 
L 149.004386 136.941153 
L 149.083415 136.324116 
L 149.194674 137.585957 
L 149.243169 135.85172 
L 149.322892 136.201172 
L 149.520654 131.671588 
L 149.580738 132.958187 
L 149.660245 134.675929 
L 149.840337 132.012872 
L 149.898097 132.341793 
L 150.057578 132.106369 
L 150.137823 132.613949 
L 150.294901 135.048268 
L 150.417352 135.185034 
L 150.493955 134.164679 
L 150.771945 138.464389 
L 150.995774 136.137147 
L 151.033658 136.534893 
L 151.450062 135.188705 
L 151.529283 133.547842 
L 151.627061 134.327219 
L 151.706864 135.947191 
L 151.785213 135.837455 
L 151.866715 135.829924 
L 151.945791 136.286204 
L 152.044293 136.096003 
L 152.202613 137.399742 
L 152.281342 135.494172 
L 152.424537 136.278177 
L 152.539611 134.115567 
L 152.638398 134.672826 
L 152.719847 134.166118 
L 152.856159 136.447283 
L 152.936405 134.261159 
L 153.015087 134.875971 
L 153.098831 135.30129 
L 153.11384 137.224142 
L 153.193558 134.7473 
L 153.273782 137.321612 
L 153.352521 136.495365 
L 153.532145 137.951069 
L 153.671492 135.265394 
L 153.690522 134.09638 
L 153.750591 136.350742 
L 153.887244 136.644987 
L 153.928922 139.247704 
L 154.087657 139.345549 
L 154.266563 134.508821 
L 154.410474 134.432866 
L 154.590618 133.962223 
L 154.670846 134.202818 
L 154.73166 133.566168 
L 155.306114 138.319536 
L 155.405212 137.462033 
L 155.703665 132.212495 
L 155.726211 133.32821 
L 155.981352 135.561808 
L 156.223319 132.898994 
L 156.383485 135.799649 
L 156.478087 136.011659 
L 156.567809 134.997296 
L 156.625755 131.904108 
L 156.702797 132.023412 
L 156.799901 131.747598 
L 156.879507 132.405991 
L 157.117687 134.995737 
L 157.237095 133.94165 
L 157.536225 138.927856 
L 157.615996 138.773467 
L 157.69446 138.822408 
L 157.853222 138.65043 
L 157.932784 138.721576 
L 158.016082 138.50915 
L 158.111736 138.832278 
L 158.43243 134.885255 
L 158.589778 136.983454 
L 158.671784 137.399887 
L 158.767839 135.99383 
L 159.086793 139.859778 
L 159.266107 144.987614 
L 159.425532 141.601771 
L 159.526536 140.855796 
L 159.586094 142.484986 
L 159.824214 137.912998 
L 159.913546 139.2245 
L 160.162757 137.742693 
L 160.323968 139.01895 
L 160.406391 138.290654 
L 160.559733 140.091615 
L 160.641309 139.90425 
L 160.814522 136.903999 
L 160.973986 135.119464 
L 161.054277 135.289373 
L 161.13978 136.276401 
L 161.215928 135.501937 
L 161.298357 135.77604 
L 161.891164 140.598641 
L 161.99511 140.046681 
L 162.037019 141.24601 
L 162.118353 141.038116 
L 162.231006 140.689158 
L 162.293453 141.763766 
L 162.370064 141.527111 
L 162.481404 142.191034 
L 162.529979 141.101706 
L 162.63704 141.28114 
L 162.694988 140.174841 
L 162.77144 140.706714 
L 162.867748 139.55475 
L 162.967341 139.992879 
L 163.12667 137.190832 
L 163.285307 136.951629 
L 163.345543 137.189859 
L 163.36493 138.204299 
L 163.444884 137.776234 
L 163.623812 136.22828 
L 163.942315 138.291521 
L 164.140469 136.546869 
L 164.258929 135.157296 
L 164.339748 136.451624 
L 164.437632 136.244666 
L 164.755902 132.199371 
L 165.013221 134.440058 
L 165.092598 134.313586 
L 165.191842 133.066438 
L 165.255847 133.308239 
L 165.589014 139.649912 
L 165.727641 140.831059 
L 165.847359 138.421769 
L 165.907141 139.787292 
L 165.986436 139.82891 
L 166.148554 140.08643 
L 166.165589 139.348686 
L 166.245038 139.989918 
L 166.482284 134.890916 
L 166.562921 135.482523 
L 166.648241 136.216803 
L 166.721586 134.039573 
L 166.856515 135.055395 
L 166.882366 134.257407 
L 166.999156 134.308135 
L 167.146394 133.68956 
L 167.237885 135.238947 
L 167.416377 136.437408 
L 167.535847 136.084033 
L 167.555982 137.252618 
L 167.644492 136.878459 
L 167.741393 137.358211 
L 167.960282 134.776362 
L 168.053401 134.588605 
L 168.138889 134.827903 
L 168.217518 133.74164 
L 168.417661 135.470057 
L 168.475816 135.39558 
L 168.596041 135.720927 
L 168.61496 136.204192 
L 168.978765 137.910168 
L 169.117181 136.745411 
L 169.301274 137.988054 
L 169.355897 137.796778 
L 169.456812 136.274331 
L 169.534203 136.360429 
L 169.813122 135.870359 
L 169.85368 137.247405 
L 169.931923 136.912182 
L 170.110127 134.971625 
L 170.210655 134.643405 
L 170.273743 136.106207 
L 170.349805 134.779227 
L 170.42927 136.165144 
L 170.680288 134.683791 
L 170.765349 136.14425 
L 170.842859 136.127812 
L 171.018177 136.397089 
L 171.097857 135.40187 
L 171.236723 136.601092 
L 171.276189 135.193249 
L 171.339898 136.549787 
L 171.397034 137.280019 
L 171.495527 136.717521 
L 171.61413 134.596022 
L 171.653353 135.076452 
L 171.753292 135.583872 
L 171.832463 135.313441 
L 172.110256 136.813614 
L 172.150427 136.353352 
L 172.311156 138.560334 
L 172.408901 140.33105 
L 172.48853 140.262807 
L 172.567395 138.218541 
L 172.726293 140.245828 
L 172.925753 141.343488 
L 172.984319 142.884119 
L 173.045321 141.942465 
L 173.143821 141.984742 
L 173.225787 141.691539 
L 173.382195 143.847867 
L 173.558858 140.800012 
L 173.685347 139.434677 
L 173.781381 139.758633 
L 173.804227 138.290526 
L 173.938262 138.299788 
L 174.198132 133.090052 
L 174.277212 134.30239 
L 174.356089 133.783035 
L 174.455121 134.369443 
L 174.535364 133.787288 
L 174.617273 134.738621 
L 174.738601 134.564767 
L 174.774144 134.639458 
L 175.111526 137.462284 
L 175.295621 136.784445 
L 175.508977 137.993771 
L 175.529617 136.820738 
L 175.607539 137.307686 
L 175.69056 137.754146 
L 175.848684 139.339786 
L 175.927085 139.075218 
L 176.104967 139.729701 
L 176.264134 137.178399 
L 176.343718 136.970093 
L 176.423092 138.204075 
L 176.744364 133.707167 
L 176.827873 134.238935 
L 176.919181 133.341906 
L 177.158164 135.030731 
L 177.23751 134.101006 
L 177.576493 138.335074 
L 177.657267 139.076184 
L 177.735697 140.924583 
L 177.896258 140.886263 
L 177.973847 140.155104 
L 178.015189 140.704958 
L 178.134229 140.136745 
L 178.553799 134.70652 
L 178.634274 135.208173 
L 178.800591 135.05553 
L 178.976435 132.451443 
L 179.107676 131.940638 
L 179.206661 133.303723 
L 179.468207 128.905577 
L 179.564982 129.09212 
L 179.724323 131.151575 
L 180.061953 133.086312 
L 180.280626 140.361353 
L 180.360571 139.85845 
L 180.520122 139.922895 
L 180.545095 136.592329 
L 180.65116 140.282304 
L 180.729865 139.433095 
L 181.015211 135.567531 
L 181.232889 136.458246 
L 181.37132 137.053039 
L 181.452773 134.959589 
L 181.554154 135.075855 
L 181.590542 135.076397 
L 181.670127 135.688889 
L 181.929015 133.633915 
L 182.008295 133.597383 
L 182.206682 132.294701 
L 182.563331 134.921872 
L 182.583106 134.747149 
L 182.744798 133.063772 
L 182.830169 134.480751 
L 182.985024 134.6191 
L 183.063226 135.265501 
L 183.261088 133.49015 
L 183.341743 133.59333 
L 183.398901 135.345952 
L 183.573501 136.395708 
L 183.580164 137.927044 
L 183.658073 137.093716 
L 183.737458 136.667892 
L 183.817491 137.247264 
L 183.924839 139.713575 
L 183.999562 139.55152 
L 184.095619 140.17496 
L 184.234982 139.626017 
L 184.395763 136.130268 
L 184.475445 135.51727 
L 184.573286 137.112773 
L 184.674099 136.617096 
L 184.756251 133.915931 
L 184.794034 134.38878 
L 184.892008 134.682299 
L 185.309104 139.174729 
L 185.369764 138.416852 
L 185.488254 139.090021 
L 185.547045 140.128363 
L 185.667131 139.958182 
L 185.746055 139.558837 
L 185.924324 138.002314 
L 186.043878 136.693795 
L 186.123614 137.409616 
L 186.441489 136.331256 
L 186.521605 136.374872 
L 186.679747 134.89191 
L 186.760826 135.007851 
L 186.858908 135.732224 
L 187.037072 132.436432 
L 187.099546 132.927575 
L 187.11609 131.592876 
L 187.235604 131.045021 
L 187.434284 132.225392 
L 187.519628 132.697401 
L 187.593993 133.942224 
L 187.732808 132.838154 
L 187.754158 134.404936 
L 188.089812 138.146237 
L 188.189182 138.376543 
L 188.24972 138.331564 
L 188.327557 139.85757 
L 188.569737 137.156125 
L 188.657762 137.449309 
L 188.817619 138.8068 
L 188.910681 136.848803 
L 188.993766 137.329218 
L 189.095901 138.717544 
L 189.152872 136.926592 
L 189.283045 136.844327 
L 189.331382 138.975676 
L 189.469847 138.948126 
L 189.592556 136.378192 
L 189.751661 135.836998 
L 189.993082 133.539288 
L 190.05309 134.167885 
L 190.130765 132.88119 
L 190.208255 133.206259 
L 190.306538 133.489835 
L 190.61521 135.477686 
L 190.725788 138.067594 
L 190.813579 138.714469 
L 191.039734 137.693593 
L 191.135352 139.699873 
L 191.210817 138.834099 
L 191.369011 139.516788 
L 191.453397 138.859809 
L 191.548078 139.144582 
L 191.611015 138.945813 
L 191.706555 140.26227 
L 191.885863 139.749893 
L 192.127197 136.508007 
L 192.262404 136.925371 
L 192.443287 136.176142 
L 192.521062 136.296589 
L 192.600212 136.195477 
L 192.680482 137.279359 
L 192.839409 141.332121 
L 192.938182 142.429159 
L 193.017075 141.225067 
L 193.096526 141.262388 
L 193.179752 141.295107 
L 193.255197 141.512593 
L 193.340207 139.757508 
L 193.417603 139.798649 
L 193.503371 139.150876 
L 193.6594 136.959766 
L 193.758189 137.963701 
L 193.835182 139.97883 
L 193.915255 139.871045 
L 193.952321 139.557762 
L 193.994071 140.844611 
L 194.074778 140.804806 
L 194.154971 140.815457 
L 194.234343 141.544821 
L 194.331949 141.11383 
L 194.491869 141.772235 
L 194.571513 140.183021 
L 194.650789 140.262588 
L 194.762951 140.358475 
L 194.897894 137.279896 
L 194.987433 138.428634 
L 195.069024 138.380659 
L 195.14728 138.115109 
L 195.385001 135.556681 
L 195.468922 134.551942 
L 195.56447 134.510575 
L 195.722374 136.514506 
L 195.881572 134.387064 
L 195.96551 133.821385 
L 196.040456 135.166193 
L 196.123198 134.89372 
L 196.221224 136.053092 
L 196.298824 135.540583 
L 196.378298 136.205754 
L 196.537044 134.223344 
L 196.935181 139.197933 
L 197.113774 138.502694 
L 197.352288 141.01744 
L 197.529426 139.563131 
L 197.622307 140.2781 
L 197.694871 139.507906 
L 197.787554 139.893234 
L 197.946592 141.315573 
L 198.112372 138.991475 
L 198.186661 139.030781 
L 198.265591 139.687273 
L 198.588629 136.306401 
L 198.683536 134.622801 
L 198.922162 135.561218 
L 199.021393 135.277859 
L 199.081816 135.344357 
L 199.160251 136.119532 
L 199.240028 136.087842 
L 199.343881 135.709018 
L 199.500129 136.342463 
L 199.650488 136.088341 
L 199.743964 136.547563 
L 199.926855 135.291478 
L 200.190742 137.424031 
L 200.314708 137.213635 
L 200.428917 137.530322 
L 200.570976 136.593059 
L 200.727346 137.021535 
L 200.806849 136.659916 
L 200.908365 138.239841 
L 200.973064 137.678648 
L 201.223636 134.24562 
L 201.486408 135.919831 
L 201.562601 135.182702 
L 201.740441 135.13442 
L 201.780541 132.751034 
L 201.811093 134.04401 
L 201.899931 134.239854 
L 201.998457 135.61332 
L 202.040827 138.021602 
L 202.138086 137.678693 
L 202.301797 137.318813 
L 202.467955 140.3785 
L 202.542175 139.712658 
L 202.676265 139.619011 
L 202.72226 141.814975 
L 202.79523 140.013466 
L 202.85484 140.674133 
L 203.214736 138.799091 
L 203.275543 137.372017 
L 203.357684 138.93437 
L 203.441211 138.816332 
L 203.598056 137.496069 
L 203.687032 138.175369 
L 203.857875 135.274037 
L 204.092886 136.757688 
L 204.211359 136.042346 
L 204.410331 137.91696 
L 204.509262 137.894655 
L 204.65038 138.951726 
L 204.768325 140.819115 
L 204.831957 140.252212 
L 205.005828 141.726761 
L 205.24542 138.233195 
L 205.462915 139.089606 
L 205.582798 136.249981 
L 205.710981 135.243596 
L 205.805568 135.776702 
L 205.871193 134.459511 
L 205.904619 134.715436 
L 206.004415 134.304464 
L 206.122685 135.418975 
L 206.163712 134.930873 
L 206.194194 134.951546 
L 206.22257 134.210506 
L 206.482805 136.910143 
L 206.667836 134.650202 
L 206.839213 135.935119 
L 206.979235 134.418926 
L 207.158311 136.541402 
L 207.237608 135.896379 
L 207.29694 134.018317 
L 207.495258 135.864676 
L 207.651091 135.509279 
L 207.713816 135.914301 
L 207.794022 138.114308 
L 207.872292 137.574423 
L 207.952007 135.849537 
L 208.03142 136.229676 
L 208.118066 136.562089 
L 208.289822 135.597413 
L 208.452913 137.352325 
L 208.618046 136.89948 
L 208.698484 134.358645 
L 208.785635 134.667902 
L 209.06434 137.272206 
L 209.220372 137.184529 
L 209.362916 134.250068 
L 209.621127 137.069704 
L 209.779927 136.60422 
L 209.919418 138.16665 
L 210.01895 137.669905 
L 210.237817 139.559216 
L 210.317215 139.228802 
L 210.516237 140.108614 
L 210.616822 139.930871 
L 210.714701 138.103294 
L 210.755195 139.057366 
L 210.832802 140.238648 
L 210.992764 138.560058 
L 211.09147 139.095149 
L 211.250098 135.540267 
L 211.328935 136.034397 
L 211.470875 135.035108 
L 211.568826 136.647966 
L 211.627784 136.597506 
L 211.726336 135.778239 
L 211.789993 136.188348 
L 211.886111 135.056349 
L 211.925489 135.738656 
L 211.987407 135.752227 
L 212.066499 136.829428 
L 212.143837 136.052921 
L 212.225749 137.397628 
L 212.500894 136.637617 
L 212.603633 136.387528 
L 212.660623 137.491783 
L 212.798959 136.185878 
L 212.861638 138.223552 
L 212.897738 137.49882 
L 213.07638 137.109302 
L 213.140039 137.010393 
L 213.287746 137.921649 
L 213.377784 141.703361 
L 213.556618 142.025382 
L 213.636117 141.020018 
L 213.715465 141.108907 
L 214.035946 139.121255 
L 214.280074 135.412187 
L 214.451951 136.246531 
L 214.541494 135.466082 
L 214.612192 135.925921 
L 214.850545 134.202038 
L 214.949682 134.983482 
L 215.107092 136.872574 
L 215.365352 134.25373 
L 215.425039 134.347686 
L 215.510897 135.313647 
L 215.605207 134.985118 
L 215.710756 136.517711 
L 215.841152 134.204504 
L 216.000796 133.385976 
L 216.099341 135.333677 
L 216.199027 136.37252 
L 216.340601 135.802082 
L 216.416556 136.083911 
L 216.539891 135.234963 
L 216.576008 135.92997 
L 216.755212 135.87492 
L 216.933455 132.686454 
L 217.092286 133.146256 
L 217.412471 129.99099 
L 217.512081 129.3515 
L 217.571605 130.825396 
L 217.651087 130.61764 
L 217.74459 131.725261 
L 217.829256 130.498199 
L 218.07341 134.183288 
L 218.308262 135.38007 
L 218.386796 134.541601 
L 218.605531 137.07836 
L 218.62554 138.823993 
L 218.724022 137.174481 
L 218.804373 137.267254 
L 218.88561 137.240985 
L 218.963353 136.966167 
L 219.200324 138.278414 
L 219.283932 138.157327 
L 219.479245 136.674296 
L 219.538597 137.994155 
L 219.705664 136.991454 
L 219.81726 136.907863 
L 219.901241 137.437595 
L 219.958476 137.229743 
L 220.035188 137.480033 
L 220.114623 136.946676 
L 220.233532 137.738857 
L 220.375103 136.620322 
L 220.452421 137.288715 
L 220.771169 135.350435 
L 221.028332 130.860128 
L 221.106973 131.645309 
L 221.172979 130.734 
L 221.266458 131.387323 
L 221.346202 131.262757 
L 221.684759 133.241563 
L 221.72325 133.827919 
L 221.84305 137.729128 
L 221.943305 137.679714 
L 222.04173 137.183315 
L 222.324072 140.589693 
L 222.71767 137.968487 
L 222.755564 138.725979 
L 222.906581 138.705763 
L 222.994308 137.864264 
L 223.173356 138.481997 
L 223.232528 138.146642 
L 223.390735 138.942108 
L 223.477798 138.951467 
L 223.558973 136.8104 
L 223.649503 137.468161 
L 223.728369 135.943182 
L 223.867244 135.70181 
L 223.948028 135.872144 
L 224.047611 137.076741 
L 224.129541 137.163782 
L 224.345592 136.383047 
L 224.405443 137.22925 
L 224.801869 133.443283 
L 224.961082 131.894119 
L 225.060899 131.58844 
L 225.219066 133.609652 
L 225.357998 134.553103 
L 225.536817 136.308744 
L 225.617257 136.687703 
L 225.696164 136.615725 
L 225.775267 135.64968 
L 225.855184 137.263534 
L 226.273392 132.097779 
L 226.45112 133.140193 
L 226.655453 134.641038 
L 226.690239 133.564043 
L 226.827988 134.78799 
L 226.94828 138.156739 
L 227.02957 137.88902 
L 227.087008 138.552347 
L 227.265762 136.473208 
L 227.345692 136.692012 
L 227.507142 138.816307 
L 227.742712 136.054273 
L 227.907008 139.193741 
L 228.001844 140.043399 
L 228.268963 138.271364 
L 228.320279 136.601181 
L 228.42161 137.762343 
L 228.503182 137.346415 
L 228.681348 133.828825 
L 228.740522 135.818771 
L 228.897571 135.921028 
L 228.990208 138.205713 
L 229.140157 139.753638 
L 229.239241 138.391666 
L 229.317287 138.472329 
L 229.481786 138.64013 
L 229.641191 135.669391 
L 229.908489 133.036882 
L 230.058878 133.710401 
L 230.137248 134.103635 
L 230.276362 133.976503 
L 230.375471 136.574468 
L 230.475029 135.550601 
L 230.554531 135.64763 
L 230.615825 135.236192 
L 230.713834 136.452165 
L 230.794342 135.966521 
L 231.032026 138.654299 
L 231.201042 136.089517 
L 231.291342 136.607324 
L 231.511744 136.008309 
L 231.550718 134.449201 
L 231.651181 134.591167 
L 231.71082 133.881943 
L 231.770191 133.943318 
L 231.889289 133.251307 
L 231.949049 134.717878 
L 232.030078 134.401893 
L 232.369999 138.085233 
L 232.430167 137.989343 
L 232.524711 137.658499 
L 232.586096 138.692894 
L 232.605192 137.254051 
L 232.685292 137.449518 
L 232.767739 136.020232 
L 232.846487 136.476027 
L 233.104634 134.634728 
L 233.25329 135.825055 
L 233.342645 135.470105 
L 233.422268 135.126007 
L 233.582607 137.390236 
L 233.661367 137.203913 
L 233.786629 137.555246 
L 233.841267 138.117592 
L 234.080077 135.066682 
L 234.178439 136.741723 
L 234.287129 136.155618 
L 234.302236 137.505158 
L 234.325502 136.618164 
L 234.483469 134.062744 
L 234.562807 134.251307 
L 234.900285 136.797834 
L 234.979765 136.994195 
L 235.316893 141.769688 
L 235.554976 141.594237 
L 236.172407 134.857581 
L 236.291174 136.314743 
L 236.369881 135.648862 
L 236.729112 137.861879 
L 237.109873 136.09074 
L 237.190562 138.734731 
L 237.363654 137.555682 
L 237.482344 138.042856 
L 237.722314 141.280323 
L 237.7822 140.585858 
L 237.842773 141.450583 
L 237.965097 141.566509 
L 238.034684 139.736257 
L 238.219341 142.041629 
L 238.261508 141.900359 
L 238.521192 136.482963 
L 238.636711 137.76776 
L 238.756734 136.925248 
L 238.837961 138.653394 
L 238.916291 137.458792 
L 238.997212 137.768064 
L 239.119099 137.540107 
L 239.180603 139.703972 
L 239.266433 139.142257 
L 239.37292 140.495645 
L 239.412628 139.589785 
L 239.826995 136.825016 
L 239.909554 138.035677 
L 239.925714 137.327965 
L 240.006675 137.477247 
L 240.406604 140.372141 
L 240.58117 139.439606 
L 240.711556 138.843736 
L 240.859914 135.622957 
L 240.960638 135.31451 
L 241.01909 136.027928 
L 241.058714 135.356737 
L 241.29838 133.760055 
L 241.53557 133.964036 
L 241.635731 135.153571 
L 241.83471 134.353443 
L 241.956298 134.97938 
L 242.072777 135.460588 
L 242.211537 135.116064 
L 242.331041 135.843696 
L 242.534714 137.89954 
L 242.673069 137.341513 
L 242.69304 136.72487 
L 242.759511 138.977269 
L 242.794876 138.656507 
L 242.890887 139.031897 
L 242.950599 138.3078 
L 243.110293 140.14145 
L 243.228771 138.086187 
L 243.308563 138.543797 
L 243.526708 135.801098 
L 243.608218 136.917973 
L 243.693189 136.501217 
L 243.76626 137.281579 
L 243.943644 137.073022 
L 244.006606 135.786232 
L 244.023111 137.149757 
L 244.181735 136.694716 
L 244.360664 136.940317 
L 244.422824 135.090268 
L 244.660017 136.025086 
L 244.935218 134.156798 
L 245.008936 136.606953 
L 245.085863 136.700227 
L 245.225248 136.598032 
L 245.264849 137.651779 
L 245.404201 135.145467 
L 245.570302 137.621392 
L 245.661738 137.493186 
L 245.751148 139.326915 
L 245.820143 137.864705 
L 245.928747 138.276465 
L 246.085827 136.50983 
L 246.22046 136.828311 
L 246.31658 134.6102 
L 246.577744 131.340401 
L 246.638348 129.499131 
L 246.716522 130.006485 
L 246.975079 132.517225 
L 247.213347 135.801754 
L 247.395452 135.145785 
L 247.533586 137.626475 
L 247.550868 136.744706 
L 247.68223 136.297576 
L 247.819799 133.772486 
L 247.911083 133.743802 
L 248.028866 133.294605 
L 248.051286 132.166899 
L 248.626138 136.319811 
L 248.703998 136.176839 
L 248.903231 137.143084 
L 248.962921 136.927791 
L 249.200893 135.742062 
L 249.262847 135.711281 
L 249.342467 136.259325 
L 249.776861 133.301512 
L 249.896472 133.746943 
L 249.935979 134.515634 
L 250.254406 133.566877 
L 250.335115 133.766116 
L 250.493055 136.179151 
L 250.592872 137.958056 
L 250.67188 137.568959 
L 250.850035 135.301408 
L 250.91402 134.614639 
L 250.989004 134.792445 
L 251.089406 134.885047 
L 251.2468 135.417418 
L 251.489098 131.062329 
L 251.568019 131.569234 
L 251.664823 133.172334 
L 251.743986 132.895843 
L 251.82268 131.669102 
L 251.902587 132.391085 
L 251.983019 132.231564 
L 252.081897 131.871683 
L 252.347501 135.494138 
L 252.644514 140.258194 
L 252.720898 140.18712 
L 252.802208 139.805069 
L 252.881459 141.066132 
L 252.961736 140.173013 
L 253.090156 141.101834 
L 253.126615 140.810865 
L 253.29943 138.029844 
L 253.619221 134.452277 
L 253.717898 134.064002 
L 253.796517 134.888738 
L 253.936092 133.818103 
L 254.140622 136.11647 
L 254.433369 140.861003 
L 254.691331 138.65327 
L 254.790089 136.161896 
L 254.878063 137.499586 
L 254.930756 137.44288 
L 255.013419 136.539524 
L 255.189141 137.860634 
L 255.288477 137.78612 
L 255.426082 139.75896 
L 255.525407 139.553094 
L 255.644504 139.86675 
L 256.045099 136.033299 
L 256.224202 133.379917 
L 256.343174 133.642631 
L 256.524465 135.722324 
L 256.621023 135.66265 
L 256.66144 137.468684 
L 256.760091 136.674549 
L 256.978618 140.411024 
L 257.136602 140.835255 
L 257.19664 141.794649 
L 257.236137 139.992578 
L 257.321164 140.572614 
L 257.409005 140.938512 
L 257.737596 136.263731 
L 257.812432 136.431118 
L 257.973392 134.451153 
L 258.070595 135.633942 
L 258.310111 132.235271 
L 258.388859 132.153518 
L 258.550814 135.344525 
L 258.653672 133.873242 
L 258.810609 135.530256 
L 258.827813 134.826854 
L 258.891735 133.574044 
L 259.046627 135.489595 
L 259.231102 137.96101 
L 259.394338 135.91584 
L 259.473319 137.424017 
L 259.534544 136.794327 
L 259.691915 138.57485 
L 259.870877 136.744603 
L 260.03848 135.687875 
L 260.116155 135.801377 
L 260.251978 135.968792 
L 260.268024 135.389145 
L 260.347415 135.567664 
L 260.466964 136.687187 
L 260.525832 136.633822 
L 260.667009 137.023538 
L 260.767004 136.446497 
L 260.868432 137.18653 
L 260.927717 136.000357 
L 261.064046 136.045407 
L 261.105283 136.751281 
L 261.422031 133.782773 
L 261.50136 136.069056 
L 261.584377 135.529025 
L 261.695063 134.956435 
L 261.743041 136.02593 
L 261.839291 135.696796 
L 261.92076 136.034354 
L 261.999245 137.00749 
L 262.077084 135.678891 
L 262.257351 137.119315 
L 262.336639 135.269551 
L 262.50346 137.446521 
L 262.57389 136.737794 
L 262.659045 137.748035 
L 262.833151 136.904005 
L 262.900019 137.00516 
L 263.229881 133.196304 
L 263.309751 133.152692 
L 263.64788 130.727993 
L 264.203426 137.727215 
L 264.30263 137.810697 
L 264.957223 132.572485 
L 265.037244 133.065732 
L 265.117012 132.807226 
L 265.216516 133.110497 
L 265.453983 135.338447 
L 265.535097 134.369802 
L 265.720005 135.508538 
L 265.932267 134.673213 
L 266.030433 135.240269 
L 266.109017 136.838723 
L 266.190431 135.80141 
L 266.268046 135.885475 
L 266.352797 136.882183 
L 266.44902 136.609653 
L 266.530972 136.902178 
L 266.789294 139.569966 
L 266.84841 137.959495 
L 266.988208 137.513378 
L 267.04736 136.599309 
L 267.108312 137.685727 
L 267.206704 136.922156 
L 267.34732 137.959758 
L 267.432537 136.201544 
L 267.584995 137.521101 
L 267.664401 139.786415 
L 267.824217 138.555785 
L 267.863853 139.73364 
L 267.923015 138.731098 
L 268.062135 138.837226 
L 268.400125 133.958745 
L 268.657874 134.906083 
L 268.737372 134.267624 
L 268.81676 135.013677 
L 268.897821 133.384417 
L 269.214298 137.505656 
L 269.331783 136.234673 
L 269.390901 137.771235 
L 269.476548 136.374842 
L 269.788054 140.349818 
L 269.90682 138.403353 
L 270.307788 140.581185 
L 270.391353 140.488888 
L 270.462474 139.406978 
L 270.602499 139.33549 
L 270.622521 139.420281 
L 270.706193 139.96531 
L 270.800242 139.586588 
L 271.022221 136.383595 
L 271.119225 137.252989 
L 271.358742 135.315197 
L 271.495818 136.643849 
L 271.536037 135.486536 
L 271.614582 135.572484 
L 271.714477 136.18859 
L 271.815291 134.341498 
L 271.853413 135.078606 
L 271.967616 134.918982 
L 272.098421 135.308489 
L 272.225173 134.774831 
L 272.266357 136.651963 
L 272.284173 135.824321 
L 272.429817 134.379712 
L 272.516185 134.928297 
L 272.586648 136.640582 
L 272.746492 134.526003 
L 272.864841 134.712183 
L 272.944051 134.661649 
L 273.005496 134.361236 
L 273.123744 131.45582 
L 273.166188 132.044008 
L 273.321192 132.296786 
L 273.420813 131.05315 
L 273.579274 131.668712 
L 273.739464 132.838316 
L 273.825207 133.123836 
L 273.900566 134.674174 
L 273.977004 133.406258 
L 274.314094 136.726553 
L 274.474383 135.4388 
L 274.65306 136.307504 
L 274.73176 135.997129 
L 274.8903 139.077809 
L 274.969424 138.95589 
L 275.056475 137.722943 
L 275.2312 138.820442 
L 275.307005 138.592955 
L 275.624977 134.818419 
L 275.710413 134.000747 
L 275.864333 134.937991 
L 275.964212 135.092447 
L 276.12102 137.183868 
L 276.200815 137.382978 
L 276.282066 137.116996 
L 276.371764 137.939435 
L 276.440211 137.663583 
L 276.538788 136.890134 
L 276.619961 135.25566 
L 276.700039 136.672001 
L 276.776777 136.417376 
L 276.936389 134.903729 
L 277.096594 137.367617 
L 277.19698 137.126596 
L 277.436823 137.812737 
L 277.514335 136.592648 
L 277.616988 136.859754 
L 277.713068 136.350235 
L 277.791759 136.261024 
L 277.834147 134.682318 
L 277.930858 134.811523 
L 278.031529 135.336766 
L 278.091535 135.075735 
L 278.209467 134.185771 
L 278.29838 135.027166 
L 278.334019 134.135698 
L 278.428834 134.432597 
L 278.508408 133.921846 
L 278.588609 135.097577 
L 278.666891 134.732521 
L 278.74584 134.540679 
L 278.846453 133.579223 
L 278.90618 133.954031 
L 278.924808 138.476399 
L 279.129106 134.617758 
L 279.204224 135.583787 
L 279.242833 134.863508 
L 279.322232 134.904827 
L 279.654417 132.016545 
L 279.818009 131.999261 
L 279.917995 131.87971 
L 279.977574 131.482091 
L 280.058434 133.526614 
L 280.256487 133.773694 
L 280.334726 134.697177 
L 280.455496 134.7178 
L 280.47321 134.572036 
L 280.632184 136.437356 
L 280.71325 135.792886 
L 280.811039 136.017786 
L 280.910322 134.167905 
L 280.970334 134.765264 
L 281.112196 134.802517 
L 281.219988 137.300049 
L 281.370706 139.125211 
L 281.626284 139.916859 
L 281.693155 141.159003 
L 281.786255 141.053781 
L 281.92662 141.654847 
L 282.052136 140.028858 
L 282.108533 138.983783 
L 282.20479 139.334029 
L 282.311522 139.144862 
L 282.382435 139.335426 
L 282.483985 137.346084 
L 282.521661 138.650332 
L 282.6618 137.827387 
L 282.682625 138.095174 
L 282.800924 138.741214 
L 283.019332 137.58347 
L 283.197348 137.012937 
L 283.276966 139.041206 
L 283.337161 136.818273 
L 283.436203 137.418388 
L 283.535663 136.684418 
L 283.5952 138.27208 
L 283.674407 138.174864 
L 283.859759 138.385669 
L 283.932407 138.553985 
L 284.072303 137.963856 
L 284.152944 138.057318 
L 284.271593 139.83672 
L 284.349946 139.53825 
L 284.667347 137.61844 
L 284.86681 139.230195 
L 285.066663 136.561536 
L 285.164269 137.371268 
L 285.243646 136.717931 
L 285.323473 137.105001 
L 285.46222 137.17681 
L 285.562331 134.740981 
L 285.641057 134.608168 
L 285.920025 135.981313 
L 286.058803 135.460192 
L 286.159285 136.212233 
L 286.224641 134.567967 
L 286.328641 135.054379 
L 286.423089 134.445902 
L 286.538399 135.061046 
L 286.559237 134.094591 
L 286.678562 134.385293 
L 286.717018 134.874449 
L 286.817064 134.56313 
L 287.038845 132.483422 
L 287.134395 132.676244 
L 287.236465 133.491657 
L 287.453461 131.984384 
L 287.532636 131.832173 
L 287.869704 135.262223 
L 288.03766 137.658464 
L 288.267074 139.229313 
L 288.526204 137.641357 
L 288.685244 138.88034 
L 288.703863 138.723677 
L 288.844478 136.177572 
L 289.419927 132.979758 
L 289.514883 133.346689 
L 289.752282 132.093104 
L 290.168768 135.994823 
L 290.248179 136.314115 
L 290.327721 135.408418 
L 290.56651 138.681809 
L 290.825416 136.901131 
L 291.064646 135.273791 
L 291.224367 136.632457 
L 291.304022 136.093452 
L 291.400635 134.424742 
L 291.479778 134.669821 
L 291.559922 133.711555 
L 291.63928 134.856225 
L 291.727515 134.517568 
L 292.374127 140.786442 
L 292.473886 138.387307 
L 292.553308 141.044909 
L 293.033694 135.24873 
L 293.128763 136.098078 
L 293.225798 135.579123 
L 293.466417 139.902156 
L 293.566887 139.478871 
L 293.625468 140.799968 
L 293.783966 139.521611 
L 293.845456 139.949738 
L 293.948296 139.381084 
L 294.043229 139.938535 
L 294.261652 136.13849 
L 294.370811 135.777779 
L 294.49079 134.755354 
L 294.629334 136.39831 
L 294.708708 136.442868 
L 294.927046 134.661449 
L 295.08687 134.104696 
L 295.245012 135.80331 
L 295.344772 135.217491 
L 295.522435 132.358829 
L 295.582497 133.369465 
L 295.741564 132.794532 
L 295.919505 134.859152 
L 296.038412 133.975818 
L 296.078339 132.704075 
L 296.197768 133.418405 
L 296.357061 135.283758 
L 296.416844 134.124099 
L 296.576858 135.42126 
L 296.673793 134.791709 
L 296.736804 133.573887 
L 296.813895 134.044753 
L 296.99258 134.253502 
L 297.173643 134.001364 
L 297.309473 135.193249 
L 297.397486 135.035702 
L 297.478431 134.184519 
L 297.721397 136.588418 
L 297.80245 135.270253 
L 297.895128 139.846851 
L 297.975281 139.826048 
L 298.057126 140.052389 
L 298.254944 141.021511 
L 298.337134 141.273638 
L 298.725095 138.764114 
L 298.79024 136.073024 
L 298.834175 137.500217 
L 298.870068 137.837463 
L 298.949164 137.369267 
L 299.070521 137.908736 
L 299.128629 137.865798 
L 299.209259 135.972025 
L 299.288718 136.11219 
L 299.410704 135.804701 
L 299.547008 137.348465 
L 299.766074 136.429714 
L 299.905648 136.762088 
L 300.086853 139.10779 
L 300.136916 138.740398 
L 300.204723 139.627215 
L 300.350281 138.333264 
L 300.501784 137.201606 
L 300.521576 139.102381 
L 300.660377 139.381663 
L 300.711078 139.170979 
L 300.759976 138.032426 
L 300.84112 138.72737 
L 300.921654 138.658637 
L 301.120788 139.703825 
L 301.179244 139.378918 
L 301.248351 139.436756 
L 301.341203 136.774648 
L 301.536079 136.488813 
L 301.596445 137.478034 
L 301.699668 136.815951 
L 301.835007 138.109672 
L 301.995185 137.23579 
L 302.18497 138.140361 
L 302.264697 137.636992 
L 302.374494 138.540899 
L 302.416244 138.044931 
L 302.575631 135.888151 
L 302.751437 134.762878 
L 302.890407 136.071863 
L 302.975651 134.882279 
L 303.090254 135.252212 
L 303.14868 132.580898 
L 303.249077 132.805907 
L 303.368132 133.503796 
L 303.407363 134.893823 
L 303.468814 134.374007 
L 303.60912 134.356891 
L 303.647644 134.215867 
L 303.751275 133.318353 
L 303.963831 136.981708 
L 304.142702 135.783414 
L 304.282252 135.659186 
L 304.441508 135.741422 
L 304.481033 135.660298 
L 304.639564 138.088232 
L 304.699274 137.822582 
L 304.782954 137.350498 
L 304.938959 138.671034 
L 304.957727 137.439604 
L 305.037563 137.648594 
L 305.197938 140.180484 
L 305.37628 138.932465 
L 305.435341 136.8362 
L 305.55466 136.858433 
L 305.633748 137.032702 
L 305.878514 139.292434 
L 305.974907 138.886494 
L 306.388574 140.784992 
L 306.467999 139.600533 
L 306.528695 141.202802 
L 306.812632 139.016942 
L 306.826062 139.440988 
L 307.003874 137.986565 
L 307.084452 138.018416 
L 307.192269 138.76478 
L 307.249391 137.115818 
L 307.327638 137.270597 
L 307.422363 137.349384 
L 307.522013 135.605613 
L 307.580809 136.061892 
L 307.992385 137.922887 
L 308.077765 136.911713 
L 308.156854 137.006578 
L 308.282924 135.84666 
L 308.395921 137.634837 
L 308.636462 134.974775 
L 308.812359 134.41728 
L 308.892325 134.488815 
L 308.971526 133.677999 
L 309.054231 134.05775 
L 309.131975 134.943293 
L 309.210999 132.089806 
L 309.312634 132.86609 
L 309.467981 133.067169 
L 309.885202 135.443277 
L 309.984645 134.893742 
L 310.044586 137.161885 
L 310.126523 136.514337 
L 310.282006 136.486836 
L 310.381904 134.471959 
L 310.705564 137.409141 
L 310.966676 135.85098 
L 311.025798 136.917394 
L 311.124495 136.906768 
L 311.34165 138.884613 
L 311.443375 136.815127 
L 311.60126 137.161316 
L 311.720946 138.673709 
L 311.861722 137.639206 
L 311.985745 137.701958 
L 312.07847 138.61516 
L 312.098627 136.510115 
L 312.208799 136.642964 
L 312.27721 137.979944 
L 312.455707 136.106172 
L 312.823259 140.201813 
L 312.843475 139.68582 
L 313.017752 141.851396 
L 313.077616 141.244922 
L 313.316088 142.343295 
L 313.416942 138.7911 
L 313.578583 137.476636 
L 313.658472 138.446997 
L 313.856976 136.930674 
L 313.93356 137.049084 
L 313.933712 134.796482 
L 314.000649 136.901398 
L 314.332874 140.560693 
L 314.393893 140.083058 
L 314.490752 140.240011 
L 314.619081 141.272983 
L 314.650979 140.464483 
L 314.732547 141.817625 
L 314.868657 141.498895 
L 314.909204 139.613173 
L 315.047074 139.198024 
L 315.404324 136.157795 
L 315.506132 136.274405 
L 315.557271 135.206252 
L 315.781629 137.837585 
L 315.882314 136.55625 
L 316.039974 137.831328 
L 316.119818 136.47352 
L 316.376935 139.041598 
L 316.476587 137.226156 
L 316.537007 138.279159 
L 316.643184 137.693698 
L 316.72865 138.843926 
L 316.736005 138.61485 
L 316.795631 138.021715 
L 316.860415 138.479715 
L 316.95483 139.820233 
L 317.153396 138.063422 
L 317.194443 138.604051 
L 317.354755 138.748839 
L 317.431071 138.304978 
L 317.509797 138.744431 
L 317.64934 141.098693 
L 317.711287 140.519962 
L 317.790212 139.444828 
L 317.847443 139.704355 
L 317.927075 139.90901 
L 318.08627 138.099715 
L 318.168531 136.644783 
L 318.284914 137.897317 
L 318.370412 137.834853 
L 318.510074 135.078833 
L 318.750291 132.753744 
L 318.922872 132.9073 
L 319.002711 133.213319 
L 319.079854 132.602823 
L 319.199313 132.77846 
L 319.576868 137.627464 
L 319.646999 136.622475 
L 319.933571 139.678587 
L 320.09197 137.972135 
L 320.191709 139.029819 
L 320.390068 134.814608 
L 320.470268 135.375401 
L 320.966669 130.845943 
L 321.128319 133.549243 
L 321.245099 132.743014 
L 321.305329 133.151958 
L 321.446553 133.317967 
L 321.606501 134.420785 
L 321.721902 136.939461 
L 321.851673 136.848705 
L 322.040091 138.170685 
L 322.198816 137.56115 
L 322.278687 136.434561 
L 322.398494 136.443906 
L 322.437597 136.572402 
L 322.537073 136.418161 
L 322.597013 137.241002 
L 322.696823 136.669562 
L 322.896783 137.071891 
L 322.938818 136.793025 
L 323.19298 140.232909 
L 323.294459 139.620373 
L 323.371265 140.214068 
L 323.63156 137.716128 
L 323.670784 137.833415 
L 323.74982 138.632523 
L 323.868425 138.295866 
L 323.927701 137.489872 
L 324.029017 137.599067 
L 324.248308 140.733743 
L 324.326634 141.246697 
L 324.344563 140.901548 
L 324.545307 140.13905 
L 324.998537 134.212181 
L 325.100006 134.271619 
L 325.384231 136.364166 
L 325.48008 138.258715 
L 325.564555 138.884198 
L 325.655991 137.849159 
L 325.816164 138.854552 
L 326.052997 136.445712 
L 326.151796 137.346373 
L 326.410102 134.955728 
L 326.628905 137.462184 
L 326.967615 139.373022 
L 327.146127 138.749192 
L 327.304258 139.89948 
L 327.671308 136.366974 
L 327.790793 135.708629 
L 327.870048 135.725136 
L 327.954103 137.258 
L 328.149976 135.214137 
L 328.211129 135.273254 
L 328.358723 136.854295 
L 328.689753 138.37367 
L 328.808063 138.475042 
L 329.0071 135.487892 
L 329.105726 135.669061 
L 329.167663 136.366663 
L 329.264619 136.090477 
L 329.449659 135.250356 
L 329.502906 136.282 
L 329.582513 135.143063 
L 329.674926 135.872811 
L 329.839674 139.765314 
L 329.921693 139.450617 
L 329.999459 139.228694 
L 330.081748 140.514987 
L 330.161859 140.440972 
L 330.656585 135.743354 
L 330.738436 135.812445 
L 330.75496 133.474257 
L 330.81445 136.149417 
L 330.896739 134.088249 
L 330.975597 134.191492 
L 331.156881 135.240303 
L 331.342238 136.122803 
L 331.392254 138.122772 
L 331.500409 138.288268 
L 331.572436 138.702916 
L 331.644509 137.745982 
L 331.813991 139.268285 
L 331.89349 138.893446 
L 332.128064 140.293061 
L 332.209122 139.090668 
L 332.368388 140.770449 
L 332.453152 139.963766 
L 332.625286 140.746617 
L 332.704983 139.644965 
L 332.785365 139.909876 
L 332.865056 140.000703 
L 333.202541 137.043059 
L 333.380509 138.900795 
L 333.440394 137.749147 
L 333.582472 138.178379 
L 333.698632 137.311706 
L 333.759299 135.737679 
L 333.858191 136.708757 
L 333.996453 135.809167 
L 334.063873 136.280733 
L 334.214255 133.769783 
L 334.298437 135.731255 
L 334.414524 134.288399 
L 334.512943 134.312256 
L 334.611949 135.868716 
L 334.712241 135.288093 
L 334.77064 135.737577 
L 334.833666 135.617198 
L 334.933 135.387835 
L 335.029304 137.198003 
L 335.089982 135.002323 
L 335.189627 136.050983 
L 335.285512 135.788843 
L 335.32528 134.535247 
L 335.407972 135.15681 
L 335.485148 134.134418 
L 335.585176 134.214603 
L 335.664925 133.873476 
L 335.745182 134.543568 
L 335.882136 133.590938 
L 335.922619 134.052403 
L 336.141391 137.00442 
L 336.272821 137.248781 
L 336.427586 140.670999 
L 336.600022 140.264318 
L 336.757813 138.215813 
L 336.879721 136.864083 
L 336.975239 137.465141 
L 337.034411 137.24664 
L 337.100232 137.540888 
L 337.153689 134.850263 
L 337.233729 135.023971 
L 337.317607 134.143698 
L 337.57988 136.913407 
L 337.595117 134.916315 
L 337.672299 136.119028 
L 337.87095 135.152402 
L 337.976549 135.709798 
L 338.048978 135.5054 
L 338.131989 135.264778 
L 338.2479 133.834737 
L 338.311729 134.294845 
L 338.425096 133.943255 
L 338.471086 134.62087 
L 338.554938 134.080962 
L 338.743177 135.433486 
L 338.863151 134.520439 
L 339.122624 136.208224 
L 339.160608 134.933078 
L 339.240661 137.184852 
L 339.299538 136.353451 
L 339.366279 136.582165 
L 339.51846 134.64995 
L 339.537127 135.071045 
L 339.697406 136.337483 
L 339.75861 136.244448 
L 339.857941 135.761355 
L 339.937948 136.071581 
L 340.013859 135.035921 
L 340.097119 135.378698 
L 340.173353 136.428697 
L 340.43145 134.30325 
L 340.511283 134.356752 
L 340.61324 134.446734 
L 340.78943 136.331663 
L 340.869192 135.642707 
L 340.948456 135.701932 
L 341.259445 140.465636 
L 341.352207 139.047579 
L 341.515533 139.177429 
L 341.805073 138.136951 
L 341.923771 135.325568 
L 341.985612 136.87888 
L 342.08136 135.071607 
L 342.280159 136.040281 
L 342.342978 134.914703 
L 342.562842 137.800448 
L 342.782187 137.13991 
L 342.81644 136.402158 
L 342.89558 136.958124 
L 342.975528 137.708946 
L 343.114067 137.21844 
L 343.156216 138.445272 
L 343.219877 138.006576 
L 343.295641 138.315243 
L 343.393561 138.250246 
L 343.491646 138.533173 
L 343.551865 139.170527 
L 343.631639 138.202618 
L 343.731142 140.125453 
L 343.89026 139.003789 
L 344.028998 139.301619 
L 344.207608 136.35477 
L 344.287884 135.70322 
L 344.38653 136.788242 
L 344.447762 136.622516 
L 344.54674 133.513974 
L 344.606869 133.601785 
L 344.685534 132.728065 
L 344.7855 133.280515 
L 344.967623 135.793702 
L 345.042116 135.132217 
L 345.181236 136.273585 
L 345.24228 134.095795 
L 345.303518 134.145233 
L 345.445976 138.139603 
L 345.523422 138.888296 
L 345.605532 138.298916 
L 345.685217 136.145166 
L 345.767444 136.404408 
L 345.843083 137.227758 
L 345.942345 137.090354 
L 346.026472 137.593706 
L 346.240491 135.136361 
L 346.50067 137.282238 
L 346.616959 136.783472 
L 346.678893 137.11643 
L 346.757379 138.816203 
L 346.837714 138.243262 
L 346.920994 138.882471 
L 346.997854 138.630742 
L 347.015866 136.008593 
L 347.234435 137.532129 
L 347.320547 137.392099 
L 347.578899 134.784386 
L 347.909194 139.053122 
L 347.985098 138.925009 
L 348.078313 138.329366 
L 348.248699 139.565937 
L 348.30667 138.807555 
L 348.400427 139.257728 
L 348.574818 136.337544 
L 348.654462 136.980116 
L 348.755525 137.544279 
L 348.974454 135.083582 
L 349.133845 137.607128 
L 349.211975 137.371797 
L 349.310831 137.736086 
L 349.469957 135.402466 
L 349.549051 135.579667 
L 349.668278 134.870585 
L 349.708609 136.016388 
L 349.787355 135.931356 
L 349.907654 135.64523 
L 350.107192 134.333659 
L 350.204245 134.600803 
L 350.563699 138.307008 
L 350.701949 137.742795 
L 350.782139 137.788263 
L 350.901357 138.105473 
L 351.038875 140.283069 
L 351.360448 137.668128 
L 351.538701 138.648743 
L 351.67676 139.147171 
L 351.81609 138.734646 
L 352.123311 131.812284 
L 352.177202 132.65436 
L 352.396179 131.947433 
L 352.473699 132.271976 
L 353.049401 139.659075 
L 353.089685 138.959921 
L 353.153181 137.871416 
L 353.168868 134.970101 
L 353.251384 136.896417 
L 353.347601 136.150384 
L 353.507067 136.44097 
L 353.5885 137.010492 
L 353.605394 135.163255 
L 353.645598 135.296798 
L 353.790138 135.487507 
L 354.009767 136.752657 
L 354.086505 135.817883 
L 354.182891 136.129722 
L 354.391606 135.353336 
L 354.482022 135.438769 
L 354.639269 134.484061 
L 354.71952 136.871892 
L 354.71952 136.871892 
" clip-path="url(#pa3f13e3261)" style="fill: none; stroke: #ff0000; stroke-opacity: 0.5; stroke-width: 2.1; stroke-linecap: square"/>
   </g>
   <g id="patch_3">
    <path d="M 32.140313 148.358855 
L 32.140313 1.147977 
" style="fill: none; stroke: #000000; stroke-width: 0.8; stroke-linejoin: miter; stroke-linecap: square"/>
   </g>
   <g id="patch_4">
    <path d="M 354.71952 148.358855 
L 354.71952 1.147977 
" style="fill: none; stroke: #000000; stroke-width: 0.8; stroke-linejoin: miter; stroke-linecap: square"/>
   </g>
   <g id="patch_5">
    <path d="M 32.140313 148.358855 
L 354.71952 148.358855 
" style="fill: none; stroke: #000000; stroke-width: 0.8; stroke-linejoin: miter; stroke-linecap: square"/>
   </g>
   <g id="patch_6">
    <path d="M 32.140313 1.147977 
L 354.71952 1.147977 
" style="fill: none; stroke: #000000; stroke-width: 0.8; stroke-linejoin: miter; stroke-linecap: square"/>
   </g>
   <g id="legend_1">
    <g id="patch_7">
     <path d="M 273.95077 38.504227 
L 347.71952 38.504227 
Q 349.71952 38.504227 349.71952 36.504227 
L 349.71952 8.147977 
Q 349.71952 6.147977 347.71952 6.147977 
L 273.95077 6.147977 
Q 271.95077 6.147977 271.95077 8.147977 
L 271.95077 36.504227 
Q 271.95077 38.504227 273.95077 38.504227 
z
" style="fill: #ffffff; opacity: 0.8; stroke: #cccccc; stroke-linejoin: miter"/>
    </g>
    <g id="line2d_25">
     <path d="M 275.95077 14.246415 
L 285.95077 14.246415 
L 295.95077 14.246415 
" style="fill: none; stroke: #0000ff; stroke-opacity: 0.5; stroke-width: 2.1; stroke-linecap: square"/>
    </g>
    <g id="text_14">
     <!-- RNEA -->
     <g transform="translate(303.95077 17.746415) scale(0.1 -0.1)">
      <defs>
       <path id="DejaVuSans-52" d="M 2841 2188 
Q 3044 2119 3236 1894 
Q 3428 1669 3622 1275 
L 4263 0 
L 3584 0 
L 2988 1197 
Q 2756 1666 2539 1819 
Q 2322 1972 1947 1972 
L 1259 1972 
L 1259 0 
L 628 0 
L 628 4666 
L 2053 4666 
Q 2853 4666 3247 4331 
Q 3641 3997 3641 3322 
Q 3641 2881 3436 2590 
Q 3231 2300 2841 2188 
z
M 1259 4147 
L 1259 2491 
L 2053 2491 
Q 2509 2491 2742 2702 
Q 2975 2913 2975 3322 
Q 2975 3731 2742 3939 
Q 2509 4147 2053 4147 
L 1259 4147 
z
" transform="scale(0.015625)"/>
       <path id="DejaVuSans-45" d="M 628 4666 
L 3578 4666 
L 3578 4134 
L 1259 4134 
L 1259 2753 
L 3481 2753 
L 3481 2222 
L 1259 2222 
L 1259 531 
L 3634 531 
L 3634 0 
L 628 0 
L 628 4666 
z
" transform="scale(0.015625)"/>
       <path id="DejaVuSans-41" d="M 2188 4044 
L 1331 1722 
L 3047 1722 
L 2188 4044 
z
M 1831 4666 
L 2547 4666 
L 4325 0 
L 3669 0 
L 3244 1197 
L 1141 1197 
L 716 0 
L 50 0 
L 1831 4666 
z
" transform="scale(0.015625)"/>
      </defs>
      <use xlink:href="#DejaVuSans-52"/>
      <use xlink:href="#DejaVuSans-4e" x="69.482422"/>
      <use xlink:href="#DejaVuSans-45" x="144.287109"/>
      <use xlink:href="#DejaVuSans-41" x="207.470703"/>
     </g>
    </g>
    <g id="line2d_26">
     <path d="M 275.95077 28.92454 
L 285.95077 28.92454 
L 295.95077 28.92454 
" style="fill: none; stroke: #ff0000; stroke-opacity: 0.5; stroke-width: 2.1; stroke-linecap: square"/>
    </g>
    <g id="text_15">
     <!-- BURNEA -->
     <g transform="translate(303.95077 32.42454) scale(0.1 -0.1)">
      <defs>
       <path id="DejaVuSans-42" d="M 1259 2228 
L 1259 519 
L 2272 519 
Q 2781 519 3026 730 
Q 3272 941 3272 1375 
Q 3272 1813 3026 2020 
Q 2781 2228 2272 2228 
L 1259 2228 
z
M 1259 4147 
L 1259 2741 
L 2194 2741 
Q 2656 2741 2882 2914 
Q 3109 3088 3109 3444 
Q 3109 3797 2882 3972 
Q 2656 4147 2194 4147 
L 1259 4147 
z
M 628 4666 
L 2241 4666 
Q 2963 4666 3353 4366 
Q 3744 4066 3744 3513 
Q 3744 3084 3544 2831 
Q 3344 2578 2956 2516 
Q 3422 2416 3680 2098 
Q 3938 1781 3938 1306 
Q 3938 681 3513 340 
Q 3088 0 2303 0 
L 628 0 
L 628 4666 
z
" transform="scale(0.015625)"/>
       <path id="DejaVuSans-55" d="M 556 4666 
L 1191 4666 
L 1191 1831 
Q 1191 1081 1462 751 
Q 1734 422 2344 422 
Q 2950 422 3222 751 
Q 3494 1081 3494 1831 
L 3494 4666 
L 4128 4666 
L 4128 1753 
Q 4128 841 3676 375 
Q 3225 -91 2344 -91 
Q 1459 -91 1007 375 
Q 556 841 556 1753 
L 556 4666 
z
" transform="scale(0.015625)"/>
      </defs>
      <use xlink:href="#DejaVuSans-42"/>
      <use xlink:href="#DejaVuSans-55" x="68.603516"/>
      <use xlink:href="#DejaVuSans-52" x="141.796875"/>
      <use xlink:href="#DejaVuSans-4e" x="211.279297"/>
      <use xlink:href="#DejaVuSans-45" x="286.083984"/>
      <use xlink:href="#DejaVuSans-41" x="349.267578"/>
     </g>
    </g>
   </g>
  </g>
 </g>
 <defs>
  <clipPath id="pa3f13e3261">
   <rect x="32.140313" y="1.147977" width="322.579207" height="147.210878"/>
  </clipPath>
 </defs>
</svg>
