<?xml version="1.0" encoding="utf-8" standalone="no"?>
<!DOCTYPE svg PUBLIC "-//W3C//DTD SVG 1.1//EN"
  "http://www.w3.org/Graphics/SVG/1.1/DTD/svg11.dtd">
<svg xmlns:xlink="http://www.w3.org/1999/xlink" width="355.43952pt" height="175.43952pt" viewBox="0 0 355.43952 175.43952" xmlns="http://www.w3.org/2000/svg" version="1.1">
 <metadata>
  <rdf:RDF xmlns:dc="http://purl.org/dc/elements/1.1/" xmlns:cc="http://creativecommons.org/ns#" xmlns:rdf="http://www.w3.org/1999/02/22-rdf-syntax-ns#">
   <cc:Work>
    <dc:type rdf:resource="http://purl.org/dc/dcmitype/StillImage"/>
    <dc:date>2023-09-09T18:29:21.014222</dc:date>
    <dc:format>image/svg+xml</dc:format>
    <dc:creator>
     <cc:Agent>
      <dc:title>Matplotlib v3.7.2, https://matplotlib.org/</dc:title>
     </cc:Agent>
    </dc:creator>
   </cc:Work>
  </rdf:RDF>
 </metadata>
 <defs>
  <style type="text/css">*{stroke-linejoin: round; stroke-linecap: butt}</style>
 </defs>
 <g id="figure_1">
  <g id="patch_1">
   <path d="M 0 175.43952 
L 355.43952 175.43952 
L 355.43952 0 
L 0 0 
L 0 175.43952 
z
" style="fill: none"/>
  </g>
  <g id="axes_1">
   <g id="patch_2">
    <path d="M 36.485625 148.36327 
L 354.71952 148.36327 
L 354.71952 0.72 
L 36.485625 0.72 
L 36.485625 148.36327 
z
" style="fill: none"/>
   </g>
   <g id="matplotlib.axis_1">
    <g id="xtick_1">
     <g id="line2d_1">
      <path d="M 36.485625 148.36327 
L 36.485625 0.72 
" clip-path="url(#p3d9c07517b)" style="fill: none; stroke-dasharray: 0.8,1.32; stroke-dashoffset: 0; stroke: #000000; stroke-opacity: 0.5; stroke-width: 0.8"/>
     </g>
     <g id="line2d_2">
      <defs>
       <path id="m6728bc8b82" d="M 0 0 
L 0 3.5 
" style="stroke: #000000; stroke-width: 0.8"/>
      </defs>
      <g>
       <use xlink:href="#m6728bc8b82" x="36.485625" y="148.36327" style="stroke: #000000; stroke-width: 0.8"/>
      </g>
     </g>
     <g id="text_1">
      <!-- 0 -->
      <g transform="translate(33.304375 162.961708) scale(0.1 -0.1)">
       <defs>
        <path id="DejaVuSans-30" d="M 2034 4250 
Q 1547 4250 1301 3770 
Q 1056 3291 1056 2328 
Q 1056 1369 1301 889 
Q 1547 409 2034 409 
Q 2525 409 2770 889 
Q 3016 1369 3016 2328 
Q 3016 3291 2770 3770 
Q 2525 4250 2034 4250 
z
M 2034 4750 
Q 2819 4750 3233 4129 
Q 3647 3509 3647 2328 
Q 3647 1150 3233 529 
Q 2819 -91 2034 -91 
Q 1250 -91 836 529 
Q 422 1150 422 2328 
Q 422 3509 836 4129 
Q 1250 4750 2034 4750 
z
" transform="scale(0.015625)"/>
       </defs>
       <use xlink:href="#DejaVuSans-30"/>
      </g>
     </g>
    </g>
    <g id="xtick_2">
     <g id="line2d_3">
      <path d="M 85.093173 148.36327 
L 85.093173 0.72 
" clip-path="url(#p3d9c07517b)" style="fill: none; stroke-dasharray: 0.8,1.32; stroke-dashoffset: 0; stroke: #000000; stroke-opacity: 0.5; stroke-width: 0.8"/>
     </g>
     <g id="line2d_4">
      <g>
       <use xlink:href="#m6728bc8b82" x="85.093173" y="148.36327" style="stroke: #000000; stroke-width: 0.8"/>
      </g>
     </g>
     <g id="text_2">
      <!-- 5 -->
      <g transform="translate(81.911923 162.961708) scale(0.1 -0.1)">
       <defs>
        <path id="DejaVuSans-35" d="M 691 4666 
L 3169 4666 
L 3169 4134 
L 1269 4134 
L 1269 2991 
Q 1406 3038 1543 3061 
Q 1681 3084 1819 3084 
Q 2600 3084 3056 2656 
Q 3513 2228 3513 1497 
Q 3513 744 3044 326 
Q 2575 -91 1722 -91 
Q 1428 -91 1123 -41 
Q 819 9 494 109 
L 494 744 
Q 775 591 1075 516 
Q 1375 441 1709 441 
Q 2250 441 2565 725 
Q 2881 1009 2881 1497 
Q 2881 1984 2565 2268 
Q 2250 2553 1709 2553 
Q 1456 2553 1204 2497 
Q 953 2441 691 2322 
L 691 4666 
z
" transform="scale(0.015625)"/>
       </defs>
       <use xlink:href="#DejaVuSans-35"/>
      </g>
     </g>
    </g>
    <g id="xtick_3">
     <g id="line2d_5">
      <path d="M 133.70072 148.36327 
L 133.70072 0.72 
" clip-path="url(#p3d9c07517b)" style="fill: none; stroke-dasharray: 0.8,1.32; stroke-dashoffset: 0; stroke: #000000; stroke-opacity: 0.5; stroke-width: 0.8"/>
     </g>
     <g id="line2d_6">
      <g>
       <use xlink:href="#m6728bc8b82" x="133.70072" y="148.36327" style="stroke: #000000; stroke-width: 0.8"/>
      </g>
     </g>
     <g id="text_3">
      <!-- 10 -->
      <g transform="translate(127.33822 162.961708) scale(0.1 -0.1)">
       <defs>
        <path id="DejaVuSans-31" d="M 794 531 
L 1825 531 
L 1825 4091 
L 703 3866 
L 703 4441 
L 1819 4666 
L 2450 4666 
L 2450 531 
L 3481 531 
L 3481 0 
L 794 0 
L 794 531 
z
" transform="scale(0.015625)"/>
       </defs>
       <use xlink:href="#DejaVuSans-31"/>
       <use xlink:href="#DejaVuSans-30" x="63.623047"/>
      </g>
     </g>
    </g>
    <g id="xtick_4">
     <g id="line2d_7">
      <path d="M 182.308268 148.36327 
L 182.308268 0.72 
" clip-path="url(#p3d9c07517b)" style="fill: none; stroke-dasharray: 0.8,1.32; stroke-dashoffset: 0; stroke: #000000; stroke-opacity: 0.5; stroke-width: 0.8"/>
     </g>
     <g id="line2d_8">
      <g>
       <use xlink:href="#m6728bc8b82" x="182.308268" y="148.36327" style="stroke: #000000; stroke-width: 0.8"/>
      </g>
     </g>
     <g id="text_4">
      <!-- 15 -->
      <g transform="translate(175.945768 162.961708) scale(0.1 -0.1)">
       <use xlink:href="#DejaVuSans-31"/>
       <use xlink:href="#DejaVuSans-35" x="63.623047"/>
      </g>
     </g>
    </g>
    <g id="xtick_5">
     <g id="line2d_9">
      <path d="M 230.915815 148.36327 
L 230.915815 0.72 
" clip-path="url(#p3d9c07517b)" style="fill: none; stroke-dasharray: 0.8,1.32; stroke-dashoffset: 0; stroke: #000000; stroke-opacity: 0.5; stroke-width: 0.8"/>
     </g>
     <g id="line2d_10">
      <g>
       <use xlink:href="#m6728bc8b82" x="230.915815" y="148.36327" style="stroke: #000000; stroke-width: 0.8"/>
      </g>
     </g>
     <g id="text_5">
      <!-- 20 -->
      <g transform="translate(224.553315 162.961708) scale(0.1 -0.1)">
       <defs>
        <path id="DejaVuSans-32" d="M 1228 531 
L 3431 531 
L 3431 0 
L 469 0 
L 469 531 
Q 828 903 1448 1529 
Q 2069 2156 2228 2338 
Q 2531 2678 2651 2914 
Q 2772 3150 2772 3378 
Q 2772 3750 2511 3984 
Q 2250 4219 1831 4219 
Q 1534 4219 1204 4116 
Q 875 4013 500 3803 
L 500 4441 
Q 881 4594 1212 4672 
Q 1544 4750 1819 4750 
Q 2544 4750 2975 4387 
Q 3406 4025 3406 3419 
Q 3406 3131 3298 2873 
Q 3191 2616 2906 2266 
Q 2828 2175 2409 1742 
Q 1991 1309 1228 531 
z
" transform="scale(0.015625)"/>
       </defs>
       <use xlink:href="#DejaVuSans-32"/>
       <use xlink:href="#DejaVuSans-30" x="63.623047"/>
      </g>
     </g>
    </g>
    <g id="xtick_6">
     <g id="line2d_11">
      <path d="M 279.523363 148.36327 
L 279.523363 0.72 
" clip-path="url(#p3d9c07517b)" style="fill: none; stroke-dasharray: 0.8,1.32; stroke-dashoffset: 0; stroke: #000000; stroke-opacity: 0.5; stroke-width: 0.8"/>
     </g>
     <g id="line2d_12">
      <g>
       <use xlink:href="#m6728bc8b82" x="279.523363" y="148.36327" style="stroke: #000000; stroke-width: 0.8"/>
      </g>
     </g>
     <g id="text_6">
      <!-- 25 -->
      <g transform="translate(273.160863 162.961708) scale(0.1 -0.1)">
       <use xlink:href="#DejaVuSans-32"/>
       <use xlink:href="#DejaVuSans-35" x="63.623047"/>
      </g>
     </g>
    </g>
    <g id="xtick_7">
     <g id="line2d_13">
      <path d="M 328.130911 148.36327 
L 328.130911 0.72 
" clip-path="url(#p3d9c07517b)" style="fill: none; stroke-dasharray: 0.8,1.32; stroke-dashoffset: 0; stroke: #000000; stroke-opacity: 0.5; stroke-width: 0.8"/>
     </g>
     <g id="line2d_14">
      <g>
       <use xlink:href="#m6728bc8b82" x="328.130911" y="148.36327" style="stroke: #000000; stroke-width: 0.8"/>
      </g>
     </g>
     <g id="text_7">
      <!-- 30 -->
      <g transform="translate(321.768411 162.961708) scale(0.1 -0.1)">
       <defs>
        <path id="DejaVuSans-33" d="M 2597 2516 
Q 3050 2419 3304 2112 
Q 3559 1806 3559 1356 
Q 3559 666 3084 287 
Q 2609 -91 1734 -91 
Q 1441 -91 1130 -33 
Q 819 25 488 141 
L 488 750 
Q 750 597 1062 519 
Q 1375 441 1716 441 
Q 2309 441 2620 675 
Q 2931 909 2931 1356 
Q 2931 1769 2642 2001 
Q 2353 2234 1838 2234 
L 1294 2234 
L 1294 2753 
L 1863 2753 
Q 2328 2753 2575 2939 
Q 2822 3125 2822 3475 
Q 2822 3834 2567 4026 
Q 2313 4219 1838 4219 
Q 1578 4219 1281 4162 
Q 984 4106 628 3988 
L 628 4550 
Q 988 4650 1302 4700 
Q 1616 4750 1894 4750 
Q 2613 4750 3031 4423 
Q 3450 4097 3450 3541 
Q 3450 3153 3228 2886 
Q 3006 2619 2597 2516 
z
" transform="scale(0.015625)"/>
       </defs>
       <use xlink:href="#DejaVuSans-33"/>
       <use xlink:href="#DejaVuSans-30" x="63.623047"/>
      </g>
     </g>
    </g>
    <g id="text_8">
     <!-- Zeit [s] -->
     <g transform="translate(177.656479 172.639833) scale(0.1 -0.1)">
      <defs>
       <path id="DejaVuSans-5a" d="M 359 4666 
L 4025 4666 
L 4025 4184 
L 1075 531 
L 4097 531 
L 4097 0 
L 288 0 
L 288 481 
L 3238 4134 
L 359 4134 
L 359 4666 
z
" transform="scale(0.015625)"/>
       <path id="DejaVuSans-65" d="M 3597 1894 
L 3597 1613 
L 953 1613 
Q 991 1019 1311 708 
Q 1631 397 2203 397 
Q 2534 397 2845 478 
Q 3156 559 3463 722 
L 3463 178 
Q 3153 47 2828 -22 
Q 2503 -91 2169 -91 
Q 1331 -91 842 396 
Q 353 884 353 1716 
Q 353 2575 817 3079 
Q 1281 3584 2069 3584 
Q 2775 3584 3186 3129 
Q 3597 2675 3597 1894 
z
M 3022 2063 
Q 3016 2534 2758 2815 
Q 2500 3097 2075 3097 
Q 1594 3097 1305 2825 
Q 1016 2553 972 2059 
L 3022 2063 
z
" transform="scale(0.015625)"/>
       <path id="DejaVuSans-69" d="M 603 3500 
L 1178 3500 
L 1178 0 
L 603 0 
L 603 3500 
z
M 603 4863 
L 1178 4863 
L 1178 4134 
L 603 4134 
L 603 4863 
z
" transform="scale(0.015625)"/>
       <path id="DejaVuSans-74" d="M 1172 4494 
L 1172 3500 
L 2356 3500 
L 2356 3053 
L 1172 3053 
L 1172 1153 
Q 1172 725 1289 603 
Q 1406 481 1766 481 
L 2356 481 
L 2356 0 
L 1766 0 
Q 1100 0 847 248 
Q 594 497 594 1153 
L 594 3053 
L 172 3053 
L 172 3500 
L 594 3500 
L 594 4494 
L 1172 4494 
z
" transform="scale(0.015625)"/>
       <path id="DejaVuSans-20" transform="scale(0.015625)"/>
       <path id="DejaVuSans-5b" d="M 550 4863 
L 1875 4863 
L 1875 4416 
L 1125 4416 
L 1125 -397 
L 1875 -397 
L 1875 -844 
L 550 -844 
L 550 4863 
z
" transform="scale(0.015625)"/>
       <path id="DejaVuSans-73" d="M 2834 3397 
L 2834 2853 
Q 2591 2978 2328 3040 
Q 2066 3103 1784 3103 
Q 1356 3103 1142 2972 
Q 928 2841 928 2578 
Q 928 2378 1081 2264 
Q 1234 2150 1697 2047 
L 1894 2003 
Q 2506 1872 2764 1633 
Q 3022 1394 3022 966 
Q 3022 478 2636 193 
Q 2250 -91 1575 -91 
Q 1294 -91 989 -36 
Q 684 19 347 128 
L 347 722 
Q 666 556 975 473 
Q 1284 391 1588 391 
Q 1994 391 2212 530 
Q 2431 669 2431 922 
Q 2431 1156 2273 1281 
Q 2116 1406 1581 1522 
L 1381 1569 
Q 847 1681 609 1914 
Q 372 2147 372 2553 
Q 372 3047 722 3315 
Q 1072 3584 1716 3584 
Q 2034 3584 2315 3537 
Q 2597 3491 2834 3397 
z
" transform="scale(0.015625)"/>
       <path id="DejaVuSans-5d" d="M 1947 4863 
L 1947 -844 
L 622 -844 
L 622 -397 
L 1369 -397 
L 1369 4416 
L 622 4416 
L 622 4863 
L 1947 4863 
z
" transform="scale(0.015625)"/>
      </defs>
      <use xlink:href="#DejaVuSans-5a"/>
      <use xlink:href="#DejaVuSans-65" x="68.505859"/>
      <use xlink:href="#DejaVuSans-69" x="130.029297"/>
      <use xlink:href="#DejaVuSans-74" x="157.8125"/>
      <use xlink:href="#DejaVuSans-20" x="197.021484"/>
      <use xlink:href="#DejaVuSans-5b" x="228.808594"/>
      <use xlink:href="#DejaVuSans-73" x="267.822266"/>
      <use xlink:href="#DejaVuSans-5d" x="319.921875"/>
     </g>
    </g>
   </g>
   <g id="matplotlib.axis_2">
    <g id="ytick_1">
     <g id="line2d_15">
      <path d="M 36.485625 142.164871 
L 354.71952 142.164871 
" clip-path="url(#p3d9c07517b)" style="fill: none; stroke-dasharray: 0.8,1.32; stroke-dashoffset: 0; stroke: #000000; stroke-opacity: 0.5; stroke-width: 0.8"/>
     </g>
     <g id="line2d_16">
      <defs>
       <path id="m2a17f3e261" d="M 0 0 
L -3.5 0 
" style="stroke: #000000; stroke-width: 0.8"/>
      </defs>
      <g>
       <use xlink:href="#m2a17f3e261" x="36.485625" y="142.164871" style="stroke: #000000; stroke-width: 0.8"/>
      </g>
     </g>
     <g id="text_9">
      <!-- 140 -->
      <g transform="translate(10.398125 145.96409) scale(0.1 -0.1)">
       <defs>
        <path id="DejaVuSans-34" d="M 2419 4116 
L 825 1625 
L 2419 1625 
L 2419 4116 
z
M 2253 4666 
L 3047 4666 
L 3047 1625 
L 3713 1625 
L 3713 1100 
L 3047 1100 
L 3047 0 
L 2419 0 
L 2419 1100 
L 313 1100 
L 313 1709 
L 2253 4666 
z
" transform="scale(0.015625)"/>
       </defs>
       <use xlink:href="#DejaVuSans-31"/>
       <use xlink:href="#DejaVuSans-34" x="63.623047"/>
       <use xlink:href="#DejaVuSans-30" x="127.246094"/>
      </g>
     </g>
    </g>
    <g id="ytick_2">
     <g id="line2d_17">
      <path d="M 36.485625 120.986958 
L 354.71952 120.986958 
" clip-path="url(#p3d9c07517b)" style="fill: none; stroke-dasharray: 0.8,1.32; stroke-dashoffset: 0; stroke: #000000; stroke-opacity: 0.5; stroke-width: 0.8"/>
     </g>
     <g id="line2d_18">
      <g>
       <use xlink:href="#m2a17f3e261" x="36.485625" y="120.986958" style="stroke: #000000; stroke-width: 0.8"/>
      </g>
     </g>
     <g id="text_10">
      <!-- 145 -->
      <g transform="translate(10.398125 124.786176) scale(0.1 -0.1)">
       <use xlink:href="#DejaVuSans-31"/>
       <use xlink:href="#DejaVuSans-34" x="63.623047"/>
       <use xlink:href="#DejaVuSans-35" x="127.246094"/>
      </g>
     </g>
    </g>
    <g id="ytick_3">
     <g id="line2d_19">
      <path d="M 36.485625 99.809044 
L 354.71952 99.809044 
" clip-path="url(#p3d9c07517b)" style="fill: none; stroke-dasharray: 0.8,1.32; stroke-dashoffset: 0; stroke: #000000; stroke-opacity: 0.5; stroke-width: 0.8"/>
     </g>
     <g id="line2d_20">
      <g>
       <use xlink:href="#m2a17f3e261" x="36.485625" y="99.809044" style="stroke: #000000; stroke-width: 0.8"/>
      </g>
     </g>
     <g id="text_11">
      <!-- 150 -->
      <g transform="translate(10.398125 103.608263) scale(0.1 -0.1)">
       <use xlink:href="#DejaVuSans-31"/>
       <use xlink:href="#DejaVuSans-35" x="63.623047"/>
       <use xlink:href="#DejaVuSans-30" x="127.246094"/>
      </g>
     </g>
    </g>
    <g id="ytick_4">
     <g id="line2d_21">
      <path d="M 36.485625 78.631131 
L 354.71952 78.631131 
" clip-path="url(#p3d9c07517b)" style="fill: none; stroke-dasharray: 0.8,1.32; stroke-dashoffset: 0; stroke: #000000; stroke-opacity: 0.5; stroke-width: 0.8"/>
     </g>
     <g id="line2d_22">
      <g>
       <use xlink:href="#m2a17f3e261" x="36.485625" y="78.631131" style="stroke: #000000; stroke-width: 0.8"/>
      </g>
     </g>
     <g id="text_12">
      <!-- 155 -->
      <g transform="translate(10.398125 82.430349) scale(0.1 -0.1)">
       <use xlink:href="#DejaVuSans-31"/>
       <use xlink:href="#DejaVuSans-35" x="63.623047"/>
       <use xlink:href="#DejaVuSans-35" x="127.246094"/>
      </g>
     </g>
    </g>
    <g id="ytick_5">
     <g id="line2d_23">
      <path d="M 36.485625 57.453217 
L 354.71952 57.453217 
" clip-path="url(#p3d9c07517b)" style="fill: none; stroke-dasharray: 0.8,1.32; stroke-dashoffset: 0; stroke: #000000; stroke-opacity: 0.5; stroke-width: 0.8"/>
     </g>
     <g id="line2d_24">
      <g>
       <use xlink:href="#m2a17f3e261" x="36.485625" y="57.453217" style="stroke: #000000; stroke-width: 0.8"/>
      </g>
     </g>
     <g id="text_13">
      <!-- 160 -->
      <g transform="translate(10.398125 61.252436) scale(0.1 -0.1)">
       <defs>
        <path id="DejaVuSans-36" d="M 2113 2584 
Q 1688 2584 1439 2293 
Q 1191 2003 1191 1497 
Q 1191 994 1439 701 
Q 1688 409 2113 409 
Q 2538 409 2786 701 
Q 3034 994 3034 1497 
Q 3034 2003 2786 2293 
Q 2538 2584 2113 2584 
z
M 3366 4563 
L 3366 3988 
Q 3128 4100 2886 4159 
Q 2644 4219 2406 4219 
Q 1781 4219 1451 3797 
Q 1122 3375 1075 2522 
Q 1259 2794 1537 2939 
Q 1816 3084 2150 3084 
Q 2853 3084 3261 2657 
Q 3669 2231 3669 1497 
Q 3669 778 3244 343 
Q 2819 -91 2113 -91 
Q 1303 -91 875 529 
Q 447 1150 447 2328 
Q 447 3434 972 4092 
Q 1497 4750 2381 4750 
Q 2619 4750 2861 4703 
Q 3103 4656 3366 4563 
z
" transform="scale(0.015625)"/>
       </defs>
       <use xlink:href="#DejaVuSans-31"/>
       <use xlink:href="#DejaVuSans-36" x="63.623047"/>
       <use xlink:href="#DejaVuSans-30" x="127.246094"/>
      </g>
     </g>
    </g>
    <g id="ytick_6">
     <g id="line2d_25">
      <path d="M 36.485625 36.275303 
L 354.71952 36.275303 
" clip-path="url(#p3d9c07517b)" style="fill: none; stroke-dasharray: 0.8,1.32; stroke-dashoffset: 0; stroke: #000000; stroke-opacity: 0.5; stroke-width: 0.8"/>
     </g>
     <g id="line2d_26">
      <g>
       <use xlink:href="#m2a17f3e261" x="36.485625" y="36.275303" style="stroke: #000000; stroke-width: 0.8"/>
      </g>
     </g>
     <g id="text_14">
      <!-- 165 -->
      <g transform="translate(10.398125 40.074522) scale(0.1 -0.1)">
       <use xlink:href="#DejaVuSans-31"/>
       <use xlink:href="#DejaVuSans-36" x="63.623047"/>
       <use xlink:href="#DejaVuSans-35" x="127.246094"/>
      </g>
     </g>
    </g>
    <g id="ytick_7">
     <g id="line2d_27">
      <path d="M 36.485625 15.09739 
L 354.71952 15.09739 
" clip-path="url(#p3d9c07517b)" style="fill: none; stroke-dasharray: 0.8,1.32; stroke-dashoffset: 0; stroke: #000000; stroke-opacity: 0.5; stroke-width: 0.8"/>
     </g>
     <g id="line2d_28">
      <g>
       <use xlink:href="#m2a17f3e261" x="36.485625" y="15.09739" style="stroke: #000000; stroke-width: 0.8"/>
      </g>
     </g>
     <g id="text_15">
      <!-- 170 -->
      <g transform="translate(10.398125 18.896609) scale(0.1 -0.1)">
       <defs>
        <path id="DejaVuSans-37" d="M 525 4666 
L 3525 4666 
L 3525 4397 
L 1831 0 
L 1172 0 
L 2766 4134 
L 525 4134 
L 525 4666 
z
" transform="scale(0.015625)"/>
       </defs>
       <use xlink:href="#DejaVuSans-31"/>
       <use xlink:href="#DejaVuSans-37" x="63.623047"/>
       <use xlink:href="#DejaVuSans-30" x="127.246094"/>
      </g>
     </g>
    </g>
    <g id="text_16">
     <!-- Kraft [N] -->
     <g transform="translate(8.318438 95.804135) rotate(-90) scale(0.1 -0.1)">
      <defs>
       <path id="DejaVuSans-4b" d="M 628 4666 
L 1259 4666 
L 1259 2694 
L 3353 4666 
L 4166 4666 
L 1850 2491 
L 4331 0 
L 3500 0 
L 1259 2247 
L 1259 0 
L 628 0 
L 628 4666 
z
" transform="scale(0.015625)"/>
       <path id="DejaVuSans-72" d="M 2631 2963 
Q 2534 3019 2420 3045 
Q 2306 3072 2169 3072 
Q 1681 3072 1420 2755 
Q 1159 2438 1159 1844 
L 1159 0 
L 581 0 
L 581 3500 
L 1159 3500 
L 1159 2956 
Q 1341 3275 1631 3429 
Q 1922 3584 2338 3584 
Q 2397 3584 2469 3576 
Q 2541 3569 2628 3553 
L 2631 2963 
z
" transform="scale(0.015625)"/>
       <path id="DejaVuSans-61" d="M 2194 1759 
Q 1497 1759 1228 1600 
Q 959 1441 959 1056 
Q 959 750 1161 570 
Q 1363 391 1709 391 
Q 2188 391 2477 730 
Q 2766 1069 2766 1631 
L 2766 1759 
L 2194 1759 
z
M 3341 1997 
L 3341 0 
L 2766 0 
L 2766 531 
Q 2569 213 2275 61 
Q 1981 -91 1556 -91 
Q 1019 -91 701 211 
Q 384 513 384 1019 
Q 384 1609 779 1909 
Q 1175 2209 1959 2209 
L 2766 2209 
L 2766 2266 
Q 2766 2663 2505 2880 
Q 2244 3097 1772 3097 
Q 1472 3097 1187 3025 
Q 903 2953 641 2809 
L 641 3341 
Q 956 3463 1253 3523 
Q 1550 3584 1831 3584 
Q 2591 3584 2966 3190 
Q 3341 2797 3341 1997 
z
" transform="scale(0.015625)"/>
       <path id="DejaVuSans-66" d="M 2375 4863 
L 2375 4384 
L 1825 4384 
Q 1516 4384 1395 4259 
Q 1275 4134 1275 3809 
L 1275 3500 
L 2222 3500 
L 2222 3053 
L 1275 3053 
L 1275 0 
L 697 0 
L 697 3053 
L 147 3053 
L 147 3500 
L 697 3500 
L 697 3744 
Q 697 4328 969 4595 
Q 1241 4863 1831 4863 
L 2375 4863 
z
" transform="scale(0.015625)"/>
       <path id="DejaVuSans-4e" d="M 628 4666 
L 1478 4666 
L 3547 763 
L 3547 4666 
L 4159 4666 
L 4159 0 
L 3309 0 
L 1241 3903 
L 1241 0 
L 628 0 
L 628 4666 
z
" transform="scale(0.015625)"/>
      </defs>
      <use xlink:href="#DejaVuSans-4b"/>
      <use xlink:href="#DejaVuSans-72" x="65.576172"/>
      <use xlink:href="#DejaVuSans-61" x="106.689453"/>
      <use xlink:href="#DejaVuSans-66" x="167.96875"/>
      <use xlink:href="#DejaVuSans-74" x="201.423828"/>
      <use xlink:href="#DejaVuSans-20" x="240.632812"/>
      <use xlink:href="#DejaVuSans-5b" x="272.419922"/>
      <use xlink:href="#DejaVuSans-4e" x="311.433594"/>
      <use xlink:href="#DejaVuSans-5d" x="386.238281"/>
     </g>
    </g>
   </g>
   <g id="line2d_29">
    <path d="M 36.485625 4.101144 
L 354.71952 4.101144 
L 354.71952 4.101144 
" clip-path="url(#p3d9c07517b)" style="fill: none; stroke: #0000ff; stroke-opacity: 0.5; stroke-width: 2.1; stroke-linecap: square"/>
   </g>
   <g id="line2d_30">
    <path d="M 36.485625 137.076289 
L 36.722133 140.497252 
L 36.825906 140.031808 
L 36.843152 138.031249 
L 36.901148 139.004056 
L 36.981959 138.82732 
L 37.0387 135.650595 
L 37.114979 136.068266 
L 37.193847 136.815998 
L 37.292759 136.411167 
L 37.37751 137.245757 
L 37.467787 135.03353 
L 37.526314 135.209511 
L 37.683187 137.074307 
L 37.762074 136.052409 
L 37.879762 136.878689 
L 38.016607 135.281262 
L 38.09448 136.745757 
L 38.19267 136.351499 
L 38.329638 137.396813 
L 38.524813 134.302412 
L 38.996259 137.797112 
L 39.133255 137.229138 
L 39.155764 136.070532 
L 39.231336 136.82657 
L 39.310606 136.991978 
L 39.548955 138.821277 
L 39.798975 137.134727 
L 40.11396 140.950423 
L 40.192664 140.528975 
L 40.276426 138.836385 
L 40.358399 139.040311 
L 40.448987 140.389248 
L 40.606283 138.914934 
L 40.684483 138.49273 
L 40.763127 138.729135 
L 40.927457 137.090167 
L 41.0032 138.637743 
L 41.409993 135.983676 
L 41.487338 136.186846 
L 41.651211 138.970822 
L 41.823458 137.424759 
L 41.901857 137.827325 
L 42.137641 134.753318 
L 42.294408 136.961014 
L 42.455606 136.15135 
L 42.54976 136.265398 
L 42.707154 133.913444 
L 42.7851 134.451205 
L 42.953874 136.186092 
L 43.023988 135.695158 
L 43.117857 136.301652 
L 43.196444 136.273706 
L 43.368409 134.939118 
L 43.433033 135.640776 
L 43.512664 135.255581 
L 43.669689 136.640773 
L 43.746495 137.30769 
L 43.931016 134.8651 
L 44.001636 133.652868 
L 44.078397 134.133984 
L 44.41528 137.9595 
L 44.491052 137.016148 
L 44.651051 138.651338 
L 45.081382 135.540324 
L 45.375294 138.340916 
L 45.512263 136.489715 
L 45.690012 140.32882 
L 45.785794 143.223825 
L 46.102078 136.858292 
L 46.201909 137.730645 
L 46.262643 138.850732 
L 46.344214 138.681549 
L 46.751251 136.2586 
L 47.009051 137.851496 
L 47.089101 137.651345 
L 47.343248 139.118106 
L 47.404023 138.815236 
L 47.484257 138.609044 
L 47.662511 136.262374 
L 47.809125 136.896812 
L 47.914431 137.150588 
L 48.08234 138.820519 
L 48.250485 134.749538 
L 48.262362 134.468195 
L 48.333467 134.587571 
L 48.420531 136.293338 
L 48.636684 138.566742 
L 48.73415 138.235927 
L 48.890705 136.152854 
L 49.125988 139.320519 
L 49.28485 137.364333 
L 49.361677 136.88926 
L 49.55674 138.621128 
L 49.603147 138.736686 
L 49.713868 138.057686 
L 49.813426 138.181552 
L 49.911719 135.817514 
L 50.098396 139.352244 
L 50.165291 139.091671 
L 50.428358 136.616604 
L 50.830462 141.269906 
L 50.889523 141.038788 
L 51.126183 140.226858 
L 51.281319 138.562211 
L 51.359442 139.214777 
L 51.458122 138.076566 
L 51.693239 133.032024 
L 51.790701 133.515406 
L 52.104421 137.89983 
L 52.182654 137.510859 
L 52.280769 138.012368 
L 52.515838 140.546347 
L 52.593699 140.272178 
L 52.965856 135.750292 
L 53.004745 138.288045 
L 53.071256 138.227621 
L 53.160996 137.007083 
L 53.675324 141.962503 
L 53.730965 141.42625 
L 53.809336 138.978375 
L 53.900768 139.096199 
L 53.966263 140.796344 
L 54.161466 140.272177 
L 54.220843 140.572779 
L 54.376905 138.694386 
L 54.651996 141.205708 
L 54.711432 140.712508 
L 54.789508 138.656625 
L 54.867772 139.059946 
L 54.985154 138.994992 
L 55.161542 139.871876 
L 55.338035 139.295596 
L 55.396735 139.403601 
L 55.455934 139.331848 
L 55.568364 138.880944 
L 55.592983 139.045595 
L 56.009517 140.999515 
L 56.185984 138.655113 
L 56.337148 139.967043 
L 56.475391 139.723842 
L 56.539735 139.285779 
L 56.583858 140.066743 
L 56.583942 139.20572 
L 56.661914 139.647561 
L 56.891302 140.01916 
L 56.927858 139.633712 
L 56.948543 140.525307 
L 57.02546 140.336126 
L 57.116766 139.038799 
L 57.135669 139.445141 
L 57.214251 138.778225 
L 57.307814 139.599218 
L 57.397809 139.558431 
L 57.513393 138.87943 
L 57.626039 139.155865 
L 57.707948 138.902847 
L 57.863873 139.728373 
L 57.980683 138.262366 
L 58.020036 140.804653 
L 58.098944 140.247253 
L 58.353447 133.276739 
L 58.43134 134.751809 
L 58.588334 137.091678 
L 58.705719 136.542587 
L 58.768533 139.004058 
L 58.84413 138.272188 
L 59.024362 136.886994 
L 59.181932 138.291821 
L 59.26015 139.215534 
L 59.316876 139.195897 
L 59.513059 138.947408 
L 59.591536 137.386991 
L 59.651441 137.405117 
L 59.73075 138.394538 
L 59.872873 138.627922 
L 59.964493 140.06976 
L 60.140171 138.828829 
L 60.318207 136.59621 
L 60.39691 136.98216 
L 60.53755 134.640025 
L 60.631774 134.599994 
L 60.866974 133.166623 
L 60.885721 133.578849 
L 61.728095 137.293641 
L 62.185162 137.946909 
L 62.612388 137.534651 
L 62.6297 136.398327 
L 62.707573 137.229139 
L 62.806069 138.373396 
L 62.963632 135.994251 
L 63.257037 142.68682 
L 63.278196 141.012355 
L 63.512803 139.935321 
L 63.531214 138.744993 
L 63.668029 138.005569 
L 63.807902 140.303144 
L 64.080121 137.013884 
L 64.259914 140.217799 
L 64.343131 140.580336 
L 64.492335 139.557682 
L 64.688396 134.41042 
L 64.747668 134.699694 
L 64.844067 136.329596 
L 65.028836 133.68157 
L 65.13835 133.743503 
L 65.236215 136.64606 
L 65.316789 137.59092 
L 65.471731 137.155121 
L 65.687233 134.729902 
L 65.849162 136.190621 
L 65.903019 136.166453 
L 66.006625 135.316004 
L 66.059679 135.748027 
L 66.139072 137.891522 
L 66.212628 136.627177 
L 66.330358 136.260865 
L 66.604684 137.851494 
L 66.780941 137.314485 
L 66.859085 136.8092 
L 66.93776 136.907388 
L 67.113686 137.943636 
L 67.193047 138.425507 
L 67.251459 137.969316 
L 67.427055 138.831095 
L 67.505762 138.712515 
L 67.605812 138.485175 
L 67.75992 136.729894 
L 67.917616 138.310705 
L 68.074582 136.099234 
L 68.231333 133.409666 
L 68.390057 134.578845 
L 68.546743 136.45044 
L 68.721815 134.861321 
L 68.878207 138.9965 
L 69.01439 139.478373 
L 69.033804 140.476859 
L 69.133818 139.662664 
L 69.30083 139.368858 
L 69.301157 139.719309 
L 69.397154 137.877171 
L 69.768486 142.20268 
L 69.962833 144.982126 
L 70.100055 144.582581 
L 70.256776 143.682282 
L 70.511437 139.810698 
L 70.608968 137.769166 
L 70.746031 133.733684 
L 70.96068 134.914192 
L 71.138439 134.242747 
L 71.234333 135.164949 
L 71.317482 135.000297 
L 71.392573 135.423256 
L 71.548605 138.845447 
L 71.630262 139.190612 
L 71.784412 139.336382 
L 71.843204 140.636225 
L 71.886485 140.5826 
L 71.960837 140.257827 
L 72.117262 142.068244 
L 72.196482 142.023682 
L 72.37341 137.538049 
L 72.491766 136.972341 
L 72.510393 138.164935 
L 72.626911 138.342428 
L 72.686071 137.754817 
L 72.765343 138.167957 
L 72.842837 136.870378 
L 72.999253 136.19893 
L 73.118294 139.594687 
L 73.351686 138.129435 
L 73.431038 137.254061 
L 73.489073 137.803908 
L 73.666899 138.48895 
L 73.745892 139.11659 
L 73.861474 137.789556 
L 73.94062 138.072034 
L 73.998806 139.086382 
L 74.081124 138.676263 
L 74.153045 137.590919 
L 74.301387 141.421721 
L 74.481629 139.393029 
L 74.749331 135.865096 
L 74.866315 137.034275 
L 74.964624 136.764638 
L 75.125378 130.899856 
L 75.200596 132.285803 
L 75.279372 133.908908 
L 75.358945 133.874165 
L 75.441438 132.572056 
L 75.517263 133.433082 
L 75.77017 131.497288 
L 75.98584 131.50182 
L 76.005081 134.753695 
L 76.084352 132.278253 
L 76.221503 133.837161 
L 76.338925 136.797116 
L 76.416961 136.81751 
L 76.56613 137.096211 
L 76.653422 140.254809 
L 76.729706 138.629815 
L 76.749152 138.89983 
L 76.875735 139.938346 
L 76.911479 141.688338 
L 77.063598 138.937594 
L 77.143371 137.705726 
L 77.377227 138.093185 
L 77.594066 134.460269 
L 77.633225 134.351507 
L 77.791722 133.399851 
L 77.837812 133.744259 
L 77.869567 133.741994 
L 78.046642 134.931568 
L 78.147214 134.573563 
L 78.191235 133.819034 
L 78.360656 136.71555 
L 78.508278 136.106036 
L 78.673689 133.882479 
L 78.693039 134.620391 
L 78.820562 134.726886 
L 78.863198 134.655888 
L 79.262769 129.870405 
L 79.401845 132.365 
L 79.497574 132.319791 
L 79.654819 134.905129 
L 79.83466 137.215542 
L 79.913134 137.586385 
L 79.976233 138.701183 
L 80.069397 138.652845 
L 80.226358 140.643021 
L 80.304381 140.068249 
L 80.545271 137.919215 
L 80.560598 140.565228 
L 80.63928 138.196657 
L 80.69897 138.156628 
L 80.817379 137.217056 
L 80.874962 138.353004 
L 81.051727 135.323558 
L 81.114092 135.93005 
L 81.21053 138.468056 
L 81.227215 136.937706 
L 81.365 135.503313 
L 81.602022 138.341672 
L 81.798469 136.260864 
L 81.937694 137.703457 
L 81.993801 135.976879 
L 82.171572 137.175516 
L 82.269076 135.89531 
L 82.351555 136.274462 
L 82.406654 136.340171 
L 82.563871 138.267655 
L 82.705064 138.144544 
L 82.724337 137.903608 
L 82.825355 138.988951 
L 82.90106 138.789554 
L 82.981511 138.339405 
L 83.213647 140.205711 
L 83.704168 135.895307 
L 83.78727 136.246515 
L 83.861121 137.103006 
L 83.959201 136.857539 
L 84.11496 135.002561 
L 84.591565 140.394535 
L 84.745007 137.04485 
L 84.823218 137.220076 
L 84.940388 139.264632 
L 84.999474 138.96554 
L 85.175141 141.090907 
L 85.728068 134.615855 
L 85.951348 132.932329 
L 86.000003 133.311482 
L 86.371748 138.267657 
L 86.629222 139.431547 
L 86.725813 139.206471 
L 86.883347 136.808445 
L 87.019558 137.560708 
L 87.449985 135.77748 
L 87.529721 136.015396 
L 87.587767 136.804667 
L 87.764911 135.019929 
L 87.963851 136.542581 
L 88.165165 135.633977 
L 88.256289 135.107544 
L 88.318297 133.544861 
L 88.394296 133.813742 
L 88.590475 135.028994 
L 88.762111 133.417973 
L 88.894077 136.855524 
L 88.904656 136.581104 
L 88.99809 135.480654 
L 89.082584 135.39153 
L 89.259191 137.829587 
L 89.303644 136.52672 
L 89.474558 138.995747 
L 89.533003 138.97913 
L 89.690145 139.14076 
L 89.751129 138.361307 
L 89.791388 139.636982 
L 89.854044 139.633961 
L 90.027086 139.551636 
L 90.10649 140.410396 
L 90.183122 139.090159 
L 90.261322 139.51765 
L 90.340657 140.106016 
L 90.421253 138.880189 
L 90.518111 138.593181 
L 90.602001 136.939863 
L 90.673521 138.556927 
L 90.751106 138.081853 
L 90.915902 136.550892 
L 90.987474 136.675514 
L 91.077369 136.057691 
L 91.240723 136.374157 
L 91.320815 135.976879 
L 91.396889 137.716297 
L 91.480534 137.461768 
L 91.556454 136.678539 
L 91.808147 139.596956 
L 91.887546 139.382455 
L 91.96507 139.046355 
L 92.042939 140.132452 
L 92.123847 140.027466 
L 92.298259 136.30316 
L 92.455502 138.624147 
L 92.533839 138.59167 
L 92.690621 137.862065 
L 92.768624 138.137744 
L 92.946002 137.488955 
L 93.103295 139.296349 
L 93.18066 138.934568 
L 93.340234 136.687597 
L 93.514066 138.933813 
L 93.82744 140.035771 
L 93.915441 140.828064 
L 94.064078 139.687586 
L 94.143305 139.717797 
L 94.260486 136.948926 
L 94.31724 137.687594 
L 94.39916 139.412662 
L 94.571695 137.252548 
L 94.631965 138.088649 
L 94.718082 136.874152 
L 94.885902 139.087135 
L 94.964344 139.074295 
L 95.044962 139.377163 
L 95.200467 136.728383 
L 95.279506 137.015393 
L 95.378098 138.19968 
L 95.44157 137.947415 
L 95.535732 137.81977 
L 95.612303 136.545605 
L 95.692146 137.13548 
L 95.782774 136.768034 
L 95.789198 138.318254 
L 95.848861 138.058436 
L 96.025672 139.843927 
L 96.26148 137.718557 
L 96.320336 138.308433 
L 96.340535 137.811458 
L 96.420228 137.730643 
L 96.6039 136.471586 
L 96.694561 137.288803 
L 96.752928 137.075059 
L 96.831871 136.346208 
L 96.988185 138.216293 
L 97.06627 136.666452 
L 97.224333 138.154362 
L 97.345509 136.864338 
L 97.403746 137.428536 
L 97.484804 136.957994 
L 97.580998 134.36435 
L 97.639096 134.985194 
L 97.776506 135.022957 
L 97.874452 138.052399 
L 98.051273 137.964786 
L 98.129614 137.491223 
L 98.149342 138.266143 
L 98.386122 137.609798 
L 98.464238 138.327425 
L 98.484282 139.613566 
L 98.544046 138.88245 
L 98.914732 133.812984 
L 99.014004 134.590173 
L 99.112543 134.35528 
L 99.17169 135.738961 
L 99.189445 133.979148 
L 99.268712 133.765404 
L 99.445486 132.625682 
L 99.46456 134.1861 
L 99.5814 134.151358 
L 99.659328 137.402101 
L 99.738574 136.777482 
L 99.816813 138.127929 
L 99.935383 138.113578 
L 100.013833 137.393983 
L 100.032318 139.288801 
L 100.112838 138.133972 
L 100.209408 139.489706 
L 100.267818 138.267656 
L 100.366175 138.559196 
L 100.465553 137.318263 
L 100.582097 137.847716 
L 100.661374 136.561467 
L 100.719447 138.707984 
L 101.126482 135.464039 
L 101.188779 135.976122 
L 101.228333 136.16872 
L 101.365074 135.78579 
L 101.413957 136.012376 
L 101.482392 134.380209 
L 101.561072 133.150608 
L 101.640949 135.026732 
L 101.799966 133.417977 
L 101.85566 135.69969 
L 101.934084 134.893046 
L 102.014806 135.083378 
L 102.157694 135.133983 
L 102.179289 134.322053 
L 102.252534 135.686851 
L 102.426249 134.192901 
L 102.589428 135.777488 
L 102.662267 135.065255 
L 102.900425 137.136998 
L 103.052527 137.596966 
L 103.252214 139.840158 
L 103.329278 138.33714 
L 103.389034 138.68457 
L 103.484858 139.883205 
L 103.544505 138.991969 
L 103.702994 138.587136 
L 103.740597 137.601491 
L 103.954524 139.238943 
L 104.15518 138.516892 
L 104.217606 138.559187 
L 104.365965 136.544846 
L 104.446472 137.572034 
L 104.522863 137.312217 
L 104.567379 137.356023 
L 104.860699 135.302409 
L 105.055203 137.063731 
L 105.153253 137.725359 
L 105.17323 137.285028 
L 105.643515 132.451966 
L 105.685098 134.378695 
L 105.840896 132.497282 
L 106.015464 133.649089 
L 106.152902 134.57431 
L 106.237597 133.901351 
L 106.309168 135.140773 
L 106.466778 134.839415 
L 106.642204 136.37793 
L 106.800556 135.794851 
L 106.877605 135.936843 
L 107.171411 139.016137 
L 107.289139 137.645297 
L 107.623517 138.70043 
L 107.704274 139.336381 
L 107.898667 137.994998 
L 107.93727 138.321281 
L 108.015877 137.81524 
L 108.097178 137.850737 
L 108.183126 138.427774 
L 108.389249 137.359046 
L 108.819524 140.099971 
L 109.475099 133.846974 
L 109.702561 133.599242 
L 109.783878 136.47763 
L 109.879542 136.930803 
L 110.046183 135.242741 
L 110.271762 137.192884 
L 110.447405 137.857534 
L 110.605065 136.059202 
L 110.683199 137.240466 
L 110.761166 137.066752 
L 111.173511 134.163439 
L 111.250284 134.177034 
L 111.407964 134.854525 
L 111.486617 133.979151 
L 111.600632 134.260116 
L 111.89712 137.448927 
L 111.979443 136.778235 
L 112.060487 137.044849 
L 112.135147 135.856787 
L 112.387124 137.349986 
L 112.471544 137.754818 
L 112.545248 137.522946 
L 112.62275 135.884735 
L 112.703947 136.025972 
L 112.861013 138.080345 
L 112.964616 138.212519 
L 113.114457 137.774453 
L 113.270911 138.01841 
L 113.36997 136.396061 
L 113.507985 139.330339 
L 113.607596 135.718571 
L 113.784867 136.976875 
L 113.841116 136.186092 
L 113.997838 136.927025 
L 114.083252 135.616606 
L 114.1739 136.63775 
L 114.258444 135.617361 
L 114.453077 137.34243 
L 114.581387 133.76125 
L 114.668952 134.674766 
L 114.805793 132.926283 
L 114.884247 133.396825 
L 115.039894 132.954228 
L 115.078785 134.167971 
L 115.149584 134.064497 
L 115.216547 134.406641 
L 115.450975 137.819768 
L 115.490292 136.806178 
L 115.591452 136.61358 
L 115.70747 138.444389 
L 115.969575 137.241599 
L 116.118789 135.050899 
L 116.196753 135.020687 
L 116.274954 133.941387 
L 116.489766 136.051653 
L 116.533867 135.422501 
L 116.667385 137.238959 
L 116.765412 138.030497 
L 116.844509 139.978374 
L 117.001526 139.136989 
L 117.100636 140.83109 
L 117.237289 139.758585 
L 117.256634 138.245751 
L 117.473758 136.470834 
L 117.648221 133.875678 
L 117.736071 134.214045 
L 117.804792 133.921751 
L 117.885938 132.972358 
L 118.01728 133.633231 
L 118.064875 133.238219 
L 118.139691 134.369635 
L 118.216955 134.299393 
L 118.295683 133.99879 
L 118.491195 134.757094 
L 118.746924 137.509351 
L 118.805394 135.914947 
L 118.86491 136.134733 
L 119.120604 139.221577 
L 119.374153 136.697416 
L 119.495192 135.361319 
L 119.530565 132.717825 
L 119.550037 134.551277 
L 119.648429 135.772194 
L 119.674516 137.715539 
L 119.844248 134.709509 
L 119.926182 134.942892 
L 120.314579 141.595434 
L 120.411666 141.059181 
L 120.489649 139.766891 
L 120.587817 140.090909 
L 120.666216 139.755563 
L 120.844207 140.312208 
L 121.139106 136.150592 
L 121.21925 136.186846 
L 121.334702 136.18458 
L 121.37344 135.100749 
L 121.550476 136.140776 
L 121.726184 134.643802 
L 121.981575 136.420984 
L 122.02285 135.962525 
L 122.19701 138.494236 
L 122.275128 138.022182 
L 122.433669 137.399072 
L 122.522762 138.195142 
L 122.593922 137.722119 
L 122.638326 137.755568 
L 122.700024 137.456475 
L 122.862355 140.757069 
L 122.999242 138.521428 
L 123.11571 140.746495 
L 123.174835 139.902843 
L 123.332357 138.714781 
L 123.43401 139.442874 
L 123.508381 138.613573 
L 123.665336 135.047874 
L 123.744689 135.227632 
L 123.842268 135.95346 
L 124.023917 134.442894 
L 124.061686 135.726877 
L 124.137404 134.343197 
L 124.313535 135.879445 
L 124.498211 134.498033 
L 124.589128 134.448184 
L 124.628097 133.855286 
L 124.810704 135.833374 
L 125.0821 134.130963 
L 125.213074 134.566762 
L 125.441672 136.166452 
L 125.480347 135.798628 
L 125.593858 132.9716 
L 125.74853 132.229912 
L 125.926819 131.832632 
L 126.005124 132.465561 
L 126.082665 132.188373 
L 126.337596 133.096225 
L 126.396257 133.002569 
L 126.751231 135.11963 
L 127.046844 133.813743 
L 127.144414 133.986703 
L 127.499865 139.577316 
L 127.53845 138.526715 
L 127.616591 138.788798 
L 127.715286 140.127161 
L 127.792563 138.848466 
L 127.854171 140.12112 
L 127.989172 140.087133 
L 128.264054 134.580359 
L 128.341969 137.081861 
L 128.424859 136.241984 
L 128.520039 135.274465 
L 128.59751 136.333373 
L 128.762237 135.658149 
L 128.841444 136.272196 
L 128.989416 135.936094 
L 129.028269 136.080352 
L 129.087129 137.798622 
L 129.186707 136.048628 
L 129.247144 136.581105 
L 129.4043 138.269167 
L 129.502815 138.606023 
L 129.560862 138.488198 
L 129.682894 138.686082 
L 129.815637 140.312211 
L 129.952344 140.233662 
L 130.070717 142.407369 
L 130.206798 139.616592 
L 130.285282 139.158135 
L 130.363785 139.988192 
L 130.46179 138.53125 
L 130.559165 138.836385 
L 130.661827 139.593179 
L 130.852236 135.743496 
L 130.931757 136.803159 
L 131.012867 136.736694 
L 131.107828 136.956482 
L 131.200953 136.15286 
L 131.264416 136.98065 
L 131.440468 134.729901 
L 131.519422 134.941382 
L 131.618118 134.785039 
L 131.760385 137.527477 
L 131.871557 137.308445 
L 131.949589 137.303157 
L 132.087219 138.909647 
L 132.189765 138.853002 
L 132.355652 142.184559 
L 132.461237 142.528212 
L 132.479403 141.241961 
L 132.616569 139.710245 
L 132.656342 140.768398 
L 132.734762 140.108281 
L 132.832869 140.267647 
L 132.910891 140.75556 
L 132.98889 140.035773 
L 133.145795 136.700439 
L 133.208586 136.275214 
L 133.442208 137.18911 
L 133.539676 135.397199 
L 133.557317 135.803164 
L 133.695124 133.414199 
L 133.852675 134.837155 
L 134.110028 133.588669 
L 134.185472 133.70045 
L 134.265582 133.573562 
L 134.358731 133.918727 
L 134.436459 134.936095 
L 134.534906 134.855281 
L 134.577584 134.395312 
L 134.848047 138.210253 
L 134.98631 137.347716 
L 135.066241 138.560701 
L 135.082249 138.3462 
L 135.199298 138.202697 
L 135.321485 136.896224 
L 135.336403 137.982155 
L 135.396104 136.662674 
L 135.496632 134.826577 
L 135.594021 135.096968 
L 135.65145 134.889266 
L 135.729272 135.335639 
L 135.905623 134.850749 
L 135.971092 135.612829 
L 136.044524 134.7941 
L 136.223802 136.662673 
L 136.284631 136.853761 
L 136.557901 134.847728 
L 136.637458 136.118872 
L 136.771296 133.747281 
L 136.850653 134.782775 
L 136.948126 134.471597 
L 137.14522 136.266906 
L 137.22244 135.924006 
L 137.379229 136.282765 
L 137.458005 136.834877 
L 137.658546 141.831838 
L 137.910192 138.167201 
L 138.164507 140.856767 
L 138.49992 137.592428 
L 138.557557 138.521428 
L 138.717414 139.643781 
L 138.81797 138.613239 
L 138.831413 139.711758 
L 139.205483 136.160414 
L 139.283809 135.390025 
L 139.420883 135.970083 
L 139.482761 135.160417 
L 139.540313 135.384736 
L 139.736795 137.822037 
L 139.787807 137.314486 
L 139.853398 137.186088 
L 140.048708 137.823549 
L 140.263563 140.720064 
L 140.499432 138.349227 
L 140.577481 138.149075 
L 140.675507 137.320529 
L 140.776038 137.881704 
L 140.832168 137.853002 
L 141.06973 135.079599 
L 141.146275 135.752558 
L 141.227773 135.427031 
L 141.479211 136.96932 
L 141.635836 136.110562 
L 141.831726 136.963277 
L 141.989116 137.772185 
L 142.073101 139.439852 
L 142.539828 137.422491 
L 142.611726 137.061465 
L 142.773634 135.490473 
L 142.852224 134.792591 
L 142.985891 134.603771 
L 143.006398 135.704974 
L 143.096547 134.336399 
L 143.201862 134.451957 
L 143.33947 135.83488 
L 143.419233 134.07658 
L 143.515366 135.120384 
L 143.740176 132.171 
L 143.848741 132.097737 
L 144.017033 134.544103 
L 144.096297 133.492749 
L 144.134884 134.327339 
L 144.235066 136.153614 
L 144.330292 134.418727 
L 144.409775 134.855281 
L 144.564916 136.888506 
L 144.704276 135.816759 
L 144.880274 138.414349 
L 144.899202 137.680044 
L 144.960608 137.365091 
L 145.039864 137.828835 
L 145.198545 140.017647 
L 145.31195 138.553906 
L 145.434896 140.722329 
L 145.744682 135.913433 
L 145.883655 137.224606 
L 146.000141 137.132462 
L 146.09788 139.532 
L 146.176667 138.365085 
L 146.333103 136.711012 
L 146.411739 136.739713 
L 146.569157 137.575813 
L 146.745701 137.027477 
L 146.871578 136.654366 
L 146.980694 136.832614 
L 147.156811 141.740452 
L 147.236767 141.376406 
L 147.314149 141.563715 
L 147.415199 140.074294 
L 147.535751 140.507073 
L 147.589402 140.256319 
L 147.901572 133.974621 
L 147.983155 133.901358 
L 148.353343 136.201198 
L 148.432974 136.360563 
L 148.622774 135.192893 
L 148.882658 137.800889 
L 149.039823 135.862829 
L 149.136812 135.917965 
L 149.176395 136.578084 
L 149.333525 136.019929 
L 149.469701 137.149834 
L 149.49513 138.322035 
L 149.606131 137.876417 
L 149.647819 136.812978 
L 149.823738 139.374903 
L 149.902911 138.846205 
L 149.980673 137.79636 
L 150.13859 139.163424 
L 150.306005 137.004822 
L 150.484552 141.021424 
L 150.578985 140.07052 
L 150.736784 138.050888 
L 151.029452 140.79408 
L 151.109871 140.501785 
L 151.284285 135.729899 
L 151.500912 136.954971 
L 151.520672 136.908144 
L 151.599249 137.025214 
L 151.853443 135.220084 
L 152.089693 137.676266 
L 152.171955 137.554666 
L 152.284791 137.85829 
L 152.344066 138.96327 
L 152.422502 138.856018 
L 152.501437 138.27294 
L 152.600168 140.238945 
L 152.814483 137.692129 
L 152.893647 137.495755 
L 153.048609 136.002559 
L 153.16941 135.730658 
L 153.244981 134.576585 
L 153.303492 135.556942 
L 153.42081 133.822809 
L 153.519227 134.194408 
L 153.637951 135.950444 
L 153.740041 135.905127 
L 153.872515 136.78201 
L 153.953282 136.263129 
L 154.02922 136.9308 
L 154.127714 136.821284 
L 154.188209 135.633222 
L 154.266363 135.651349 
L 154.362824 135.729898 
L 154.441552 135.46706 
L 154.518845 135.857541 
L 154.838124 133.644558 
L 154.930622 132.979152 
L 155.008292 134.837151 
L 155.149557 135.072045 
L 155.263081 133.622655 
L 155.440889 135.408903 
L 155.496919 137.531252 
L 155.575365 136.516905 
L 155.654531 136.429293 
L 155.732153 137.090167 
L 155.814768 136.27018 
L 155.829575 138.70723 
L 155.908219 137.168716 
L 155.987363 137.17778 
L 156.065041 137.462522 
L 156.163037 137.396056 
L 156.592561 134.23444 
L 156.633678 134.359062 
L 156.790274 133.927039 
L 156.852141 135.159662 
L 156.908064 134.84773 
L 156.966771 133.72991 
L 157.199527 137.016904 
L 157.425602 139.232154 
L 157.600781 137.006333 
L 157.698831 137.230653 
L 157.914295 134.387763 
L 157.992318 134.808456 
L 158.090081 133.55393 
L 158.228063 133.479912 
L 158.269837 132.602272 
L 158.384513 132.874176 
L 158.406756 132.842453 
L 158.502714 132.402877 
L 158.579931 133.122662 
L 158.65846 132.165717 
L 158.739209 133.396075 
L 158.81828 133.229913 
L 159.055176 135.047123 
L 159.370187 139.647557 
L 159.741466 137.326568 
L 159.779488 137.660404 
L 159.897288 138.265388 
L 159.937769 139.368859 
L 160.017001 138.338651 
L 160.09777 138.370374 
L 160.192388 138.283517 
L 160.271085 138.461009 
L 160.427254 139.095446 
L 160.583606 138.739707 
L 160.760147 136.089414 
L 160.839092 136.470077 
L 160.917888 136.08186 
L 160.996325 134.360566 
L 161.1593 135.52748 
L 161.23175 135.614338 
L 161.312651 136.575815 
L 161.407411 135.395306 
L 161.485252 136.560709 
L 161.643522 134.317517 
L 161.806426 136.828081 
L 161.880399 136.490467 
L 161.898968 138.170975 
L 161.9622 136.466299 
L 162.056245 136.339412 
L 162.155889 135.669476 
L 162.214644 136.285788 
L 162.292339 135.745005 
L 162.449557 138.26992 
L 162.621302 137.914937 
L 162.704265 138.932306 
L 162.78354 138.684572 
L 162.942579 138.063726 
L 163.095903 140.072025 
L 163.175168 138.23593 
L 163.255645 138.910399 
L 163.509058 137.574301 
L 163.66305 139.104508 
L 163.903843 138.035028 
L 164.075482 139.270673 
L 164.250735 138.339407 
L 164.330183 138.013124 
L 164.447445 138.053909 
L 164.59121 139.255563 
L 164.712793 137.784269 
L 164.885534 136.13095 
L 165.070953 137.277475 
L 165.224492 136.350742 
L 165.28166 136.244248 
L 165.357082 136.420231 
L 165.452093 136.098481 
L 165.550344 134.704226 
L 165.614154 134.745013 
L 165.707527 134.355286 
L 166.119022 130.81149 
L 166.334378 131.133996 
L 166.512185 135.124918 
L 166.904265 139.140007 
L 167.00083 138.732908 
L 167.060181 139.805411 
L 167.158145 138.931546 
L 167.254951 138.947407 
L 167.314812 138.658132 
L 167.413685 138.74197 
L 167.568665 138.399828 
L 167.646973 137.668712 
L 167.890136 138.937591 
L 167.979708 138.525207 
L 168.057946 139.469312 
L 168.136702 138.683062 
L 168.353168 139.205717 
L 168.52877 137.504816 
L 168.688705 138.041068 
L 168.70551 136.621889 
L 168.783889 137.327323 
L 168.880846 137.505569 
L 168.94161 138.128678 
L 169.017939 137.886232 
L 169.097489 137.749525 
L 169.254017 138.640007 
L 169.387129 138.535023 
L 169.412632 136.854516 
L 169.527848 136.612069 
L 169.684618 133.97915 
L 169.763362 134.800144 
L 169.841285 134.813739 
L 170.077174 133.624167 
L 170.260088 136.062224 
L 170.312364 137.79107 
L 170.411044 137.572038 
L 170.476028 138.225358 
L 170.567893 137.894544 
L 170.828254 135.332619 
L 170.984617 135.62718 
L 171.103222 135.377181 
L 171.121887 134.584888 
L 171.284901 136.388506 
L 171.480791 135.424008 
L 171.69738 138.698165 
L 172.165522 134.857549 
L 172.303909 137.40059 
L 172.343921 137.257085 
L 172.42111 136.285034 
L 172.596913 137.114337 
L 172.758325 137.825057 
L 172.833363 137.286539 
L 172.911757 138.292578 
L 173.014292 136.499534 
L 173.243309 137.914938 
L 173.319775 135.957241 
L 173.395178 135.975367 
L 173.492732 135.972347 
L 173.571338 136.123404 
L 173.810118 137.611311 
L 173.866484 136.398325 
L 173.963651 136.417963 
L 174.080656 136.633974 
L 174.217943 138.425507 
L 174.570099 135.667967 
L 174.687292 134.670237 
L 174.768293 133.930813 
L 174.864721 134.648333 
L 174.943278 134.37039 
L 175.259183 136.080356 
L 175.374611 135.735189 
L 175.589741 138.099228 
L 175.670603 137.672492 
L 175.747042 138.371129 
L 175.903859 136.212528 
L 175.999187 137.408896 
L 176.123973 137.045604 
L 176.218713 138.871126 
L 176.241252 137.641523 
L 176.373481 138.595446 
L 176.431169 136.489714 
L 176.492335 136.551647 
L 176.57227 135.831862 
L 176.629851 137.241977 
L 176.707865 136.957991 
L 176.78568 136.30014 
L 176.883378 136.457994 
L 176.96254 134.843196 
L 177.043345 135.310717 
L 177.163039 135.104525 
L 177.296673 137.544848 
L 177.51371 136.512374 
L 177.53094 137.950433 
L 177.827076 138.911908 
L 177.907451 138.26463 
L 178.020272 134.538815 
L 178.102175 132.795619 
L 178.198081 133.582624 
L 178.258168 133.499544 
L 178.335514 133.748033 
L 178.474479 133.028248 
L 178.510999 134.140026 
L 178.57016 134.127943 
L 178.746534 136.254824 
L 178.981716 139.047865 
L 179.224167 138.560706 
L 179.393373 139.05315 
L 179.471911 138.518408 
L 179.55001 138.843936 
L 179.805409 136.27446 
L 179.867162 137.239713 
L 180.119763 135.469326 
L 180.278161 135.655882 
L 180.354705 135.057698 
L 180.512927 137.516146 
L 180.926845 140.210998 
L 181.006235 139.920213 
L 181.170312 140.304653 
L 181.256406 139.355262 
L 181.343787 139.851483 
L 181.650418 137.950436 
L 181.787804 137.967808 
L 181.924406 138.889252 
L 181.985434 138.022941 
L 182.081601 138.13548 
L 182.220171 139.117349 
L 182.395046 139.513873 
L 182.474303 138.02823 
L 182.709278 135.931564 
L 182.86668 137.539722 
L 182.891317 136.214794 
L 182.995953 137.510107 
L 183.073598 137.108295 
L 183.569846 140.482147 
L 183.609095 139.194388 
L 183.706411 139.348466 
L 183.786767 138.177775 
L 183.886783 138.523694 
L 184.001194 139.353752 
L 184.159095 140.603747 
L 184.432791 137.214786 
L 184.669003 136.004068 
L 184.999964 131.864357 
L 185.14561 132.914204 
L 185.298378 133.586406 
L 185.375527 132.121909 
L 185.489729 132.874927 
L 185.650293 134.744253 
L 185.70668 134.673255 
L 185.878929 134.711775 
L 185.885501 134.24803 
L 185.962361 134.378693 
L 186.040677 134.317517 
L 186.225533 136.113581 
L 186.29925 136.318264 
L 186.394013 134.521444 
L 186.531499 134.584133 
L 186.590183 133.947431 
L 186.631306 134.14456 
L 186.865246 135.896063 
L 187.08302 133.722358 
L 187.336518 134.741233 
L 187.492994 134.646068 
L 187.650994 131.97916 
L 187.825888 133.522204 
L 187.944357 133.879454 
L 188.082792 131.811488 
L 188.282402 133.091695 
L 188.316028 132.858312 
L 188.553125 131.099255 
L 188.864895 134.661172 
L 188.943332 135.111323 
L 189.12008 133.609062 
L 189.357475 136.411167 
L 189.373797 135.95422 
L 189.491701 135.853012 
L 189.982208 139.652845 
L 190.00327 140.394532 
L 190.13922 140.83033 
L 190.181776 139.90133 
L 190.256902 139.911905 
L 190.334402 139.805411 
L 190.432434 140.73441 
L 190.568944 138.692121 
L 190.647679 138.652092 
L 190.734399 138.885474 
L 190.894702 138.67022 
L 191.052406 139.051422 
L 191.06672 137.658545 
L 191.144213 138.859795 
L 191.22618 137.890766 
L 191.383143 140.416438 
L 191.511562 139.676258 
L 191.716945 139.431546 
L 191.912174 141.161902 
L 192.089959 140.636978 
L 192.111315 141.414165 
L 192.212034 140.907369 
L 192.271234 141.902079 
L 192.347862 141.267641 
L 192.424309 141.497247 
L 192.591754 140.567493 
L 192.707403 142.044073 
L 192.852171 140.106014 
L 193.101235 134.383982 
L 193.200053 136.13322 
L 193.244588 135.780501 
L 193.338917 136.209503 
L 193.491126 134.79108 
L 193.569429 134.988209 
L 193.652678 135.883222 
L 193.902426 140.235924 
L 193.981691 138.633967 
L 194.255638 141.941357 
L 194.317402 141.330332 
L 194.450787 141.728368 
L 194.51608 140.164175 
L 194.542619 140.379431 
L 194.629233 140.126411 
L 194.784045 140.867342 
L 195.02002 136.57884 
L 195.117462 136.833371 
L 195.195292 137.029743 
L 195.273673 139.878674 
L 195.355778 138.615084 
L 195.430207 139.291063 
L 195.514071 138.571279 
L 195.750668 140.541814 
L 196.081374 135.512379 
L 196.11794 136.100241 
L 196.159128 136.13171 
L 196.238748 135.342438 
L 196.317861 136.099988 
L 196.570863 134.63776 
L 196.65022 135.393044 
L 196.728792 134.745012 
L 197.050776 136.806939 
L 197.2196 134.439123 
L 197.296802 134.483685 
L 197.374476 133.89985 
L 197.550804 137.34772 
L 197.614112 136.8447 
L 197.708373 136.735939 
L 197.813451 135.386247 
L 197.86415 135.785791 
L 198.356279 138.777473 
L 198.432834 137.828836 
L 198.589175 139.549373 
L 198.746478 139.04862 
L 198.863459 137.541074 
L 198.922247 138.843184 
L 198.98599 138.536536 
L 199.060619 137.643035 
L 199.236807 138.915689 
L 199.33288 138.54711 
L 199.472108 137.09923 
L 199.64686 137.65134 
L 199.73849 137.586385 
L 199.810076 137.032763 
L 199.90151 137.631704 
L 200.117203 135.719326 
L 200.373108 137.995753 
L 200.491111 137.536541 
L 200.549714 138.109802 
L 200.785423 136.613582 
L 200.905252 136.664185 
L 200.925089 136.958746 
L 201.118729 136.132465 
L 201.73935 139.407377 
L 201.924298 137.883214 
L 202.011994 138.85753 
L 202.080052 138.425508 
L 202.394623 139.661154 
L 202.549744 139.317498 
L 202.647439 138.334873 
L 202.880134 140.312208 
L 203.115931 139.03502 
L 203.233174 140.319758 
L 203.291307 139.190609 
L 203.429164 140.677763 
L 203.508718 140.637734 
L 203.550539 140.48139 
L 203.625706 138.830339 
L 203.80115 138.815989 
L 204.055691 135.897572 
L 204.193439 134.227637 
L 204.325857 135.012377 
L 204.354945 134.89984 
L 204.518864 133.899088 
L 204.592084 134.819026 
L 204.724368 134.164949 
L 204.769743 134.544102 
L 204.824946 133.982387 
L 204.84173 135.711268 
L 204.900538 135.476877 
L 205.315574 137.750284 
L 205.396608 137.540314 
L 205.47901 140.048612 
L 205.633742 139.69665 
L 205.966618 136.881706 
L 206.043413 136.812219 
L 206.121907 138.386986 
L 206.35624 135.673251 
L 206.435075 135.763885 
L 206.532674 138.61055 
L 206.671891 138.495746 
L 206.851022 141.394528 
L 206.944069 138.688346 
L 207.02255 138.883964 
L 207.179775 138.659644 
L 207.415397 136.158144 
L 207.47348 137.525207 
L 207.540693 137.494995 
L 207.718205 135.493491 
L 207.811518 136.473095 
L 207.876259 135.638506 
L 207.909235 136.914936 
L 208.007686 136.229138 
L 208.194908 136.912888 
L 208.321614 135.908902 
L 208.418758 136.573553 
L 208.66217 139.620369 
L 208.757482 139.180793 
L 208.831239 140.333357 
L 208.889524 139.885473 
L 208.969375 140.118099 
L 209.2828 138.149826 
L 209.632181 141.989692 
L 209.850402 143.030474 
L 209.929043 143.383948 
L 210.092865 141.639242 
L 210.262308 139.956847 
L 210.423201 136.364337 
L 210.58611 137.658893 
L 210.665464 136.67929 
L 210.751441 136.871132 
L 210.815312 136.646812 
L 211.124673 137.174755 
L 211.320946 135.566755 
L 211.419788 135.834124 
L 211.575679 137.491974 
L 211.634674 137.130949 
L 211.73234 137.065994 
L 211.869951 140.410394 
L 211.968143 139.593177 
L 212.106757 140.001031 
L 212.184062 139.538797 
L 212.26239 140.683054 
L 212.458731 139.255566 
L 212.557962 139.550882 
L 212.694471 136.097721 
L 212.771032 137.350736 
L 212.849505 137.457231 
L 212.928839 137.131702 
L 213.026216 135.913429 
L 213.260482 136.995751 
L 213.40051 137.044846 
L 213.497141 136.100742 
L 213.555306 136.749532 
L 213.65253 136.073554 
L 213.849 137.565996 
L 213.910084 137.044096 
L 213.98811 137.424004 
L 214.145215 135.999538 
L 214.260356 137.342433 
L 214.338679 136.357542 
L 214.416654 137.052403 
L 214.518009 135.853012 
L 214.574232 136.768416 
L 214.710704 136.257844 
L 214.88637 137.093942 
L 214.984388 137.36962 
L 215.047189 138.890763 
L 215.192907 139.118859 
L 215.398091 140.918697 
L 215.614864 139.612811 
L 215.791207 140.155861 
L 216.009457 136.110562 
L 216.171868 134.608304 
L 216.282796 135.306186 
L 216.34143 133.950452 
L 216.429767 134.22311 
L 216.499511 134.166464 
L 216.577166 133.922508 
L 216.892962 136.552407 
L 216.987745 136.470836 
L 217.066456 136.101502 
L 217.144472 136.501804 
L 217.242526 135.327335 
L 217.301409 135.710263 
L 217.386111 136.192132 
L 217.479151 135.711016 
L 217.583278 136.117358 
L 217.652788 135.714036 
L 217.711917 136.058446 
L 217.887738 135.15588 
L 218.064972 139.12263 
L 218.183102 139.144534 
L 218.204638 138.954203 
L 218.27957 139.035774 
L 218.436875 139.416438 
L 218.57582 139.319007 
L 218.694707 140.780482 
L 218.873512 138.653604 
L 219.113503 137.452703 
L 219.184259 137.103509 
L 219.262069 138.479132 
L 219.360338 138.386989 
L 219.497472 136.414188 
L 219.589715 136.77899 
L 219.67324 136.484428 
L 219.851932 137.427779 
L 219.914105 137.143792 
L 220.126426 134.65513 
L 220.145794 134.811473 
L 220.22327 136.716299 
L 220.360522 136.747265 
L 220.635222 133.649847 
L 220.715365 133.112086 
L 220.79206 134.594709 
L 220.868934 134.494257 
L 220.971439 134.587912 
L 221.02584 134.819785 
L 221.205914 136.729143 
L 221.301003 137.012372 
L 221.359556 137.593186 
L 221.524372 141.081087 
L 221.634465 141.038035 
L 221.717314 141.143776 
L 221.927822 136.903611 
L 222.115241 137.400589 
L 222.339707 133.938368 
L 222.495537 134.578847 
L 222.730541 137.395301 
L 222.829223 136.331862 
L 222.906805 136.829595 
L 222.971921 136.23141 
L 223.064141 136.283523 
L 223.142811 136.427782 
L 223.220489 137.430044 
L 223.321948 136.664187 
L 223.476807 137.085636 
L 223.51478 136.951197 
L 223.555778 136.903614 
L 223.632966 137.399835 
L 223.82897 139.713268 
L 223.886964 139.652091 
L 223.98583 139.798617 
L 224.045029 139.346957 
L 224.107509 139.901335 
L 224.199747 139.771425 
L 224.356908 141.256313 
L 224.495805 140.911149 
L 224.533189 138.851491 
L 224.612102 139.708739 
L 224.682171 140.625653 
L 224.847163 138.371129 
L 224.945352 139.428527 
L 225.003728 138.960251 
L 225.159803 137.028233 
L 225.325775 139.39378 
L 225.415085 138.844689 
L 225.492889 137.446657 
L 225.629894 138.086382 
L 225.807831 136.412673 
L 225.888657 138.483662 
L 226.160842 136.430046 
L 226.456723 140.152842 
L 226.551928 140.65284 
L 226.708997 138.304662 
L 226.807469 138.637744 
L 226.963506 137.374154 
L 227.165277 138.699676 
L 227.276977 138.477623 
L 227.356332 136.852251 
L 227.434176 138.281249 
L 227.512214 137.882459 
L 227.753388 141.077309 
L 227.924247 138.260099 
L 228.003629 138.234419 
L 228.178963 139.819006 
L 228.259753 138.758586 
L 228.414861 139.54484 
L 228.550754 139.170975 
L 228.574945 138.445902 
L 228.669426 138.939102 
L 228.749621 139.693632 
L 228.885607 137.771434 
L 228.982632 138.85149 
L 229.061484 138.546355 
L 229.22076 137.520678 
L 229.297265 138.825809 
L 229.453156 138.391521 
L 229.708799 136.096211 
L 229.905973 134.642292 
L 229.972319 135.10075 
L 230.203383 133.374171 
L 230.379149 134.566765 
L 230.437526 134.473109 
L 230.611842 135.713285 
L 230.683848 136.614336 
L 230.770971 135.963281 
L 231.006522 137.729888 
L 231.095606 137.28578 
L 231.247533 137.895297 
L 231.424992 137.025964 
L 231.484149 138.459493 
L 231.589759 138.32883 
L 231.660148 138.911909 
L 231.738123 138.866593 
L 231.815438 139.08185 
L 231.952677 138.837139 
L 232.050451 139.909642 
L 232.148668 139.749522 
L 232.227099 139.241971 
L 232.287567 137.995753 
L 232.547722 140.186077 
L 232.626702 139.396803 
L 232.698162 139.522936 
L 232.797052 139.232907 
L 232.864901 138.141522 
L 233.171418 140.828067 
L 233.367812 137.204968 
L 233.426383 137.763123 
L 233.602832 136.657052 
L 233.622828 137.687596 
L 233.68277 136.916451 
L 233.916716 134.401353 
L 234.250136 136.840418 
L 234.410494 139.420971 
L 234.488181 139.380186 
L 234.74285 140.704956 
L 234.899143 139.337891 
L 234.977655 140.259337 
L 235.214385 136.504824 
L 235.415659 137.973095 
L 235.567125 136.359051 
L 235.645968 137.271434 
L 235.705154 136.945906 
L 235.909417 134.920737 
L 235.924321 135.725744 
L 235.947274 135.723856 
L 236.103112 136.133972 
L 236.260631 134.061474 
L 236.337844 134.407394 
L 236.592722 132.578096 
L 236.671295 132.850753 
L 236.749653 133.158909 
L 236.886628 132.57583 
L 236.925309 131.551665 
L 237.160185 133.458002 
L 237.33818 132.656644 
L 237.395786 134.235189 
L 237.495696 133.98066 
L 237.572865 133.241993 
L 237.769299 134.155887 
L 237.886466 133.411932 
L 237.964114 133.36435 
L 238.318505 137.972336 
L 238.444885 137.923242 
L 238.493559 137.726868 
L 238.773739 140.796343 
L 239.159865 138.64303 
L 239.222009 138.940612 
L 239.357408 140.161151 
L 239.417165 139.701183 
L 239.537841 140.118854 
L 239.78866 137.063729 
L 239.830259 139.870364 
L 239.967302 139.983659 
L 239.993516 140.513869 
L 240.245019 137.692882 
L 240.318814 138.761609 
L 240.398947 138.722334 
L 240.476221 138.615082 
L 240.556052 139.329581 
L 240.676297 138.589403 
L 240.821647 135.94062 
L 241.046426 137.232915 
L 241.200152 135.141533 
L 241.296167 136.676271 
L 241.374658 136.385486 
L 241.456105 136.148494 
L 241.472047 137.642278 
L 241.551918 137.588653 
L 241.689956 138.317502 
L 241.76598 137.942125 
L 241.865995 136.464788 
L 241.94646 136.306934 
L 242.021153 137.906626 
L 242.118674 137.062974 
L 242.276267 138.4459 
L 242.393663 137.991974 
L 242.668116 141.232899 
L 242.826223 141.422476 
L 243.105256 139.533513 
L 243.15903 139.223091 
L 243.236878 137.504819 
L 243.355328 137.722341 
L 243.475278 135.737454 
L 243.590188 136.856784 
L 243.690823 135.804674 
L 243.727079 136.60301 
L 243.844973 135.810718 
L 243.906331 134.54184 
L 243.966348 134.803923 
L 244.182394 133.464616 
L 244.267672 134.983681 
L 244.30256 134.040332 
L 244.456185 133.567523 
L 244.867563 136.021439 
L 244.946472 137.971583 
L 245.024534 137.646811 
L 245.104946 138.158893 
L 245.188772 136.257843 
L 245.26086 136.582614 
L 245.435854 136.095456 
L 245.670737 138.161913 
L 245.908579 138.763872 
L 246.025118 140.985164 
L 246.26807 139.667194 
L 246.32907 138.276716 
L 246.414071 139.451184 
L 246.424978 138.852621 
L 246.700194 135.578844 
L 246.739261 136.36132 
L 246.817365 134.801658 
L 246.957239 137.263128 
L 247.0406 136.469325 
L 247.130804 137.81524 
L 247.21901 137.164186 
L 247.681999 139.952689 
L 247.776825 139.370366 
L 247.858018 139.901331 
L 247.936581 139.8039 
L 248.034471 140.040303 
L 248.094258 139.862812 
L 248.171379 140.360544 
L 248.325837 140.196648 
L 248.504756 137.082613 
L 248.661512 137.465541 
L 248.759431 136.816752 
L 248.824275 137.759347 
L 248.841164 137.394922 
L 248.977437 135.22537 
L 248.994486 136.165278 
L 249.124079 136.214791 
L 249.153186 135.387 
L 249.349849 138.53276 
L 249.488163 136.593946 
L 249.998736 138.977625 
L 250.055272 138.593183 
L 250.328633 139.911908 
L 250.387518 139.356774 
L 250.583742 140.825046 
L 250.622285 140.270667 
L 250.683404 140.269156 
L 250.761952 140.681541 
L 250.85791 142.624133 
L 251.648707 135.451199 
L 251.661607 134.092443 
L 251.741228 135.004828 
L 251.837703 136.076009 
L 251.89704 135.117365 
L 252.249212 139.37188 
L 252.312335 139.098467 
L 252.386309 139.594688 
L 252.485358 139.572784 
L 252.686927 137.334121 
L 252.720109 138.887741 
L 252.817738 138.474602 
L 252.957524 136.102254 
L 253.287585 138.93457 
L 253.366934 138.587894 
L 253.46448 139.286533 
L 253.524531 139.103755 
L 253.600539 137.654365 
L 253.726506 138.881701 
L 253.845713 138.113577 
L 253.872227 136.906417 
L 253.937961 137.427024 
L 254.094873 135.839419 
L 254.175088 137.559956 
L 254.253271 137.27899 
L 254.332467 136.580351 
L 254.459157 138.060707 
L 254.495125 137.241224 
L 254.665612 137.677778 
L 254.743514 136.74349 
L 254.902346 137.90436 
L 254.981095 136.283521 
L 255.078443 137.248019 
L 255.156003 136.717055 
L 255.293698 136.661164 
L 255.495472 137.746507 
L 255.590654 137.730647 
L 255.7062 136.792583 
L 255.784276 136.747265 
L 255.865059 135.528237 
L 255.960915 136.674004 
L 256.038764 136.458748 
L 256.136191 136.425514 
L 256.22298 136.863578 
L 256.274963 135.041078 
L 256.356513 135.690623 
L 256.452172 135.939868 
L 256.529868 135.26087 
L 256.627866 135.801653 
L 256.763617 137.543334 
L 257.436908 143.292557 
L 257.59018 140.641512 
L 257.733061 138.785023 
L 257.847205 138.209496 
L 257.942462 139.408133 
L 257.982335 138.999524 
L 258.295239 133.167976 
L 258.451096 134.874162 
L 258.719829 132.772962 
L 258.883041 134.815251 
L 259.117822 138.96327 
L 259.197066 138.051644 
L 259.276614 140.421725 
L 259.372507 140.241212 
L 259.471348 140.073539 
L 259.531213 141.589394 
L 259.590837 139.534686 
L 259.608797 140.64831 
L 259.686484 141.159637 
L 259.94773 139.838646 
L 260.102553 140.4897 
L 260.119525 138.765386 
L 260.182586 139.488949 
L 260.242308 140.222329 
L 260.335391 137.679288 
L 260.414395 138.545598 
L 260.621221 137.256327 
L 260.756336 138.507832 
L 260.816736 137.868861 
L 260.894805 138.005567 
L 261.072177 136.695148 
L 261.148539 137.615838 
L 261.313883 137.115086 
L 261.390512 137.266144 
L 261.524506 135.967811 
L 261.618657 138.167954 
L 261.736596 138.161157 
L 261.933946 136.754066 
L 261.973223 136.704973 
L 262.032595 137.724605 
L 262.191142 136.488961 
L 262.325635 136.40739 
L 262.482417 133.49124 
L 262.599498 133.322057 
L 262.678798 134.295617 
L 262.757058 135.686849 
L 262.838957 134.593955 
L 262.948152 135.681564 
L 263.090436 134.561477 
L 263.170809 135.038059 
L 263.409181 137.017658 
L 263.581085 134.995763 
L 263.899148 139.448918 
L 264.070909 138.110555 
L 264.136876 139.013117 
L 264.253293 139.007829 
L 264.306557 141.355252 
L 264.384222 140.876402 
L 264.624305 139.517646 
L 264.719963 139.74121 
L 264.796405 139.817494 
L 265.031699 138.00859 
L 265.211309 136.694398 
L 265.286515 136.276895 
L 265.304479 136.464038 
L 265.364412 137.25482 
L 265.422726 137.17929 
L 265.598803 136.705729 
L 265.697513 136.661923 
L 265.756055 136.856785 
L 265.834475 136.328842 
L 266.010497 136.985939 
L 266.090931 136.028993 
L 266.166369 136.068267 
L 266.422169 134.260871 
L 266.480581 134.595462 
L 266.623437 134.526731 
L 266.736458 135.462527 
L 267.028064 136.922492 
L 267.049929 136.579594 
L 267.128279 136.945908 
L 267.225121 138.769921 
L 267.382965 137.926269 
L 267.543143 139.157382 
L 267.816718 137.977626 
L 267.97376 138.753301 
L 268.03208 137.54258 
L 268.288481 140.070516 
L 268.385548 138.774449 
L 268.52427 140.012359 
L 268.758744 138.661913 
L 268.994742 136.691377 
L 269.033845 137.151344 
L 269.229456 136.389262 
L 269.307419 136.210259 
L 269.562893 138.486683 
L 269.722255 139.377916 
L 269.81717 138.487436 
L 269.895597 138.746499 
L 270.053885 139.806163 
L 270.132543 139.614322 
L 270.23029 138.641517 
L 270.288954 139.198917 
L 270.366099 137.935327 
L 270.482001 138.36584 
L 270.624816 139.310702 
L 270.756033 139.451186 
L 270.932126 135.364344 
L 271.010101 135.115101 
L 271.049292 136.536547 
L 271.131897 136.525218 
L 271.265332 138.595452 
L 271.527298 137.039564 
L 271.755352 141.257069 
L 271.930679 140.553142 
L 272.009252 140.431541 
L 272.149667 138.268409 
L 272.402318 139.679278 
L 272.832599 136.306934 
L 272.932055 137.527472 
L 272.969664 136.929287 
L 273.082328 135.967055 
L 273.127997 136.203458 
L 273.211371 136.65965 
L 273.377045 134.233427 
L 273.460976 136.56071 
L 273.538303 136.008598 
L 273.623508 136.353008 
L 273.693021 136.252555 
L 273.791628 138.036536 
L 273.850713 137.429287 
L 274.04561 135.368872 
L 274.223072 139.772178 
L 274.264754 137.230648 
L 274.477952 138.973845 
L 274.515949 138.14379 
L 274.595375 138.575813 
L 274.751364 140.013875 
L 274.830308 139.88019 
L 274.914896 139.870371 
L 274.98924 138.820526 
L 275.064649 139.288046 
L 275.164967 139.521429 
L 275.477522 136.238207 
L 275.555328 135.857545 
L 275.651713 136.538056 
L 275.731598 135.272954 
L 275.809237 135.3938 
L 275.965642 133.690635 
L 276.129578 136.000293 
L 276.201261 135.760112 
L 276.30195 135.62265 
L 276.456643 136.322797 
L 276.690422 137.348472 
L 276.926554 136.171739 
L 277.179784 137.582609 
L 277.33866 137.130949 
L 277.591924 138.330338 
L 277.672003 137.680039 
L 277.751003 138.015385 
L 277.905818 139.627917 
L 278.064621 137.397562 
L 278.142216 138.441364 
L 278.39948 136.708745 
L 278.55433 139.232149 
L 278.6556 138.097124 
L 278.750386 138.281246 
L 278.869834 140.096195 
L 278.965241 139.423994 
L 279.064557 140.11961 
L 279.123755 141.859785 
L 279.240097 141.541055 
L 279.362972 139.38623 
L 279.456509 139.880941 
L 279.69136 138.355267 
L 279.769246 139.467799 
L 279.861417 139.080673 
L 279.868503 135.965546 
L 279.945803 138.420218 
L 280.259544 137.436838 
L 280.415526 137.210255 
L 280.513253 138.87188 
L 280.573128 138.519918 
L 280.74945 137.470072 
L 280.925611 138.515387 
L 281.064159 136.278991 
L 281.199331 136.671738 
L 281.473347 133.690253 
L 281.533674 134.837152 
L 281.571881 133.959513 
L 281.710154 133.395317 
L 281.904571 135.741229 
L 281.963775 135.277485 
L 282.123895 136.772948 
L 282.210066 136.043343 
L 282.278519 136.355275 
L 282.358754 136.541075 
L 282.453772 137.9527 
L 282.610888 137.717806 
L 282.676859 138.832604 
L 282.7139 137.50104 
L 282.768705 137.907383 
L 282.907179 136.759351 
L 282.945152 136.961767 
L 283.031004 137.32355 
L 283.181601 135.923253 
L 283.286896 135.177788 
L 283.356854 136.253311 
L 283.457036 136.162677 
L 283.494204 136.418717 
L 283.632455 135.970077 
L 283.653 136.145302 
L 283.905464 134.696666 
L 283.985171 134.679294 
L 284.239335 133.68685 
L 284.396427 136.15663 
L 284.494547 136.482914 
L 284.631422 139.543324 
L 284.885947 142.676244 
L 285.023959 142.500264 
L 285.199601 139.155112 
L 285.220564 139.368857 
L 285.297862 139.889248 
L 285.532479 137.124909 
L 285.610986 137.305422 
L 285.701856 136.88624 
L 285.787038 135.279751 
L 285.807762 135.532016 
L 285.946483 139.335626 
L 286.004923 138.831097 
L 286.101215 136.924005 
L 286.179522 137.719319 
L 286.434805 136.067513 
L 286.493915 136.809203 
L 286.846791 133.179308 
L 286.90525 135.220841 
L 286.983699 134.15438 
L 287.249902 138.621884 
L 287.343078 137.873395 
L 287.633048 140.062207 
L 287.731746 138.738194 
L 287.848219 139.902086 
L 287.965687 137.809951 
L 288.145497 135.782768 
L 288.283206 134.544102 
L 288.35957 135.065248 
L 288.614143 133.329607 
L 288.849067 137.670225 
L 288.9359 137.838654 
L 289.00784 138.249529 
L 289.282086 135.168726 
L 289.417863 136.738207 
L 289.652401 134.815256 
L 289.731849 136.019934 
L 289.809102 135.291839 
L 289.904695 135.476884 
L 289.982215 135.358304 
L 290.21807 138.817501 
L 290.393223 137.164183 
L 290.707092 140.007072 
L 290.783885 141.874133 
L 290.862466 141.267642 
L 291.0383 140.405863 
L 291.116642 140.570514 
L 291.27639 141.514619 
L 291.430685 138.747259 
L 291.509979 139.078828 
L 291.591297 137.499529 
L 291.686103 137.523697 
L 291.841604 136.569019 
L 291.92211 137.519167 
L 291.998577 137.167961 
L 292.158262 135.180809 
L 292.331651 135.471595 
L 292.410715 135.960264 
L 292.489004 135.195162 
L 292.57605 135.248033 
L 292.648139 134.873411 
L 292.732033 134.903622 
L 292.848412 134.775978 
L 293.056945 137.162674 
L 293.135357 136.109054 
L 293.488225 138.457988 
L 293.547508 138.028231 
L 293.625834 138.190617 
L 293.745019 138.707232 
L 293.864635 136.365095 
L 293.958423 137.128685 
L 294.233352 134.026733 
L 294.291528 134.819026 
L 294.390645 134.798633 
L 294.526966 136.763884 
L 294.665462 137.11509 
L 294.860571 136.795605 
L 295.030028 139.18759 
L 295.076051 139.070521 
L 295.18374 139.238194 
L 295.302103 138.130947 
L 295.340354 139.510095 
L 295.438781 139.385473 
L 295.653816 141.88471 
L 295.732482 142.044076 
L 295.810458 142.738181 
L 296.144582 137.869621 
L 296.222247 138.855267 
L 296.379104 138.341675 
L 296.633242 135.995008 
L 296.828878 137.600743 
L 296.986087 139.09696 
L 297.044868 137.814487 
L 297.202212 138.775964 
L 297.280644 138.173248 
L 297.36007 138.627173 
L 297.593914 138.212521 
L 297.770193 135.92099 
L 297.849597 137.092434 
L 298.082817 133.5932 
L 298.169644 134.495009 
L 298.249498 134.057699 
L 298.367648 135.121139 
L 298.408637 134.408907 
L 298.489191 134.917213 
L 298.569153 134.700446 
L 298.660582 133.328097 
L 298.896371 135.278241 
L 299.015552 134.794859 
L 299.096635 135.080356 
L 299.151846 134.143049 
L 299.210354 134.4648 
L 299.58698 138.329587 
L 299.62239 137.551645 
L 299.700421 139.343177 
L 299.877467 138.829584 
L 300.0354 141.928514 
L 300.155743 141.393773 
L 300.290211 140.263868 
L 300.356615 137.986687 
L 300.429021 139.301637 
L 300.506326 138.01539 
L 300.64402 138.777471 
L 300.822784 137.591675 
L 300.872172 136.959503 
L 300.939066 137.48518 
L 300.999134 137.623398 
L 301.232125 138.936836 
L 301.251651 138.56448 
L 301.566891 141.695133 
L 301.646339 141.120361 
L 301.742928 141.240452 
L 301.968636 140.753291 
L 302.060237 139.874897 
L 302.220775 139.549368 
L 302.252488 138.753299 
L 302.312041 139.294082 
L 302.471792 137.044847 
L 302.547389 137.378682 
L 302.633381 138.285024 
L 302.705409 137.92853 
L 302.892638 140.589396 
L 302.971292 139.995744 
L 303.120797 139.214023 
L 303.198187 139.294082 
L 303.278037 139.559187 
L 303.451475 137.712517 
L 303.588572 137.062218 
L 303.672668 135.941377 
L 303.843367 136.293341 
L 303.942411 137.040318 
L 304.098565 136.426273 
L 304.159188 137.473096 
L 304.297604 137.140016 
L 304.647537 139.320521 
L 304.730575 139.359797 
L 304.823999 139.109043 
L 305.0627 140.24197 
L 305.157772 140.106019 
L 305.275003 140.430791 
L 305.373073 138.013126 
L 305.455626 139.006323 
L 305.531542 138.1098 
L 305.628044 140.074293 
L 305.808652 137.589408 
L 305.86502 137.659649 
L 306.040959 134.994252 
L 306.099225 135.622648 
L 306.216936 136.007087 
L 306.29496 134.390024 
L 306.3578 135.04561 
L 306.453391 135.17703 
L 306.536428 136.874154 
L 306.745886 134.898331 
L 306.941283 137.594695 
L 307.277252 139.299372 
L 307.378741 137.374154 
L 307.471212 137.872642 
L 307.588189 137.565997 
L 307.646629 138.612821 
L 307.726122 137.377176 
L 307.832486 137.666449 
L 307.888839 138.266901 
L 307.966031 137.001044 
L 308.373474 140.007074 
L 308.470681 138.053909 
L 308.621824 138.55995 
L 308.630436 139.06448 
L 308.706054 137.77521 
L 308.784078 138.393788 
L 308.90845 138.374906 
L 309.019924 137.285028 
L 309.097756 137.274454 
L 309.196003 136.375666 
L 309.257226 136.851495 
L 309.355077 135.981408 
L 309.430752 134.002564 
L 309.509641 134.528242 
L 309.587776 135.434582 
L 309.669367 134.396822 
L 309.924289 137.757838 
L 310.141576 136.667963 
L 310.156258 136.777059 
L 310.333001 140.426255 
L 310.431106 140.455711 
L 310.489144 140.746495 
L 310.587247 139.748765 
L 310.727214 135.976122 
L 310.880603 136.452707 
L 310.979155 138.740465 
L 311.400327 133.220852 
L 311.49562 133.356802 
L 311.614376 132.189133 
L 311.770788 129.817538 
L 311.925973 130.446691 
L 312.026327 133.642296 
L 312.182086 134.394558 
L 312.24275 133.770693 
L 312.561391 139.650578 
L 312.84893 136.607537 
L 313.025022 138.42324 
L 313.149854 137.842426 
L 313.305654 135.028993 
L 313.520766 136.991976 
L 313.638554 139.001787 
L 313.805935 138.98215 
L 313.873815 139.002543 
L 313.97331 140.434562 
L 314.063792 141.871868 
L 314.132774 141.596189 
L 314.327649 140.852235 
L 314.482968 138.257415 
L 314.483118 134.08489 
L 314.549154 136.741224 
L 314.620369 136.883218 
L 314.718158 136.707238 
L 314.796959 136.96479 
L 315.032655 134.882472 
L 315.159255 134.399845 
L 315.190723 136.089416 
L 315.271193 136.04712 
L 315.581483 135.835639 
L 315.660764 134.738211 
L 315.701801 135.599991 
L 315.785408 135.389268 
L 315.933921 135.892289 
L 316.084807 137.115093 
L 316.209587 136.562224 
L 316.405472 137.884724 
L 316.639777 137.007084 
L 316.719244 136.846208 
L 316.89343 134.715554 
L 316.983199 135.519093 
L 317.051345 135.192895 
L 317.240407 134.13147 
L 317.306486 132.87795 
L 317.370398 132.43762 
L 317.463541 132.606804 
L 317.586262 133.826586 
L 317.659431 133.545619 
L 317.858078 132.78958 
L 318.011032 133.411178 
L 318.148695 133.24879 
L 318.34413 131.121909 
L 318.422688 132.942144 
L 318.559775 133.384741 
L 318.579739 132.86284 
L 318.660892 133.334137 
L 318.860054 133.584892 
L 319.149006 137.60527 
L 319.344958 136.048628 
L 319.559939 137.930797 
L 319.677789 138.344693 
L 319.976237 136.18307 
L 320.119444 138.762365 
L 320.225801 139.028224 
L 320.285098 138.269163 
L 320.402156 138.29182 
L 320.69682 139.591663 
L 320.774719 141.329571 
L 320.852503 140.453441 
L 321.029856 141.493468 
L 321.097936 141.724586 
L 321.264819 140.189852 
L 321.421338 141.068248 
L 321.894758 133.680818 
L 321.986446 133.835652 
L 322.166397 135.71253 
L 322.294421 135.008605 
L 322.4803 138.192125 
L 322.57813 138.651336 
L 322.715683 141.707217 
L 322.833875 141.445134 
L 323.02972 139.544083 
L 323.128186 140.180787 
L 323.245404 140.020668 
L 323.325452 140.488945 
L 323.366921 140.317495 
L 323.617659 138.337896 
L 323.717771 138.358288 
L 323.793543 138.012368 
L 323.931236 138.347715 
L 324.166999 135.698935 
L 324.284005 137.092433 
L 324.342483 135.83866 
L 324.442434 136.988203 
L 324.499097 136.67627 
L 324.59748 136.671738 
L 324.658772 137.55391 
L 324.75373 136.496764 
L 324.837463 137.278987 
L 324.951769 137.119622 
L 325.028128 137.966295 
L 325.106481 136.640015 
L 325.185193 137.118866 
L 325.243934 136.680046 
L 325.322214 137.183066 
L 325.398895 136.621134 
L 325.498996 137.127174 
L 325.635755 139.062212 
L 325.779393 138.820521 
L 325.87395 137.955722 
L 326.047492 139.182303 
L 326.292894 137.259352 
L 326.361403 136.89304 
L 326.43915 135.859811 
L 326.635705 137.222343 
L 326.693944 139.615082 
L 326.87414 137.704213 
L 326.930235 137.964787 
L 327.007301 137.894545 
L 327.301886 135.909657 
L 327.517555 133.582626 
L 327.575919 133.714046 
L 328.035662 136.996511 
L 328.153537 139.146806 
L 328.314647 138.793335 
L 328.568211 140.0607 
L 328.667729 139.598465 
L 328.713817 138.454964 
L 328.960567 140.703445 
L 329.040388 140.730635 
L 329.276048 139.871122 
L 329.35346 140.2397 
L 329.450757 141.633955 
L 329.51186 141.464016 
L 329.842587 138.782001 
L 329.921122 139.248012 
L 330.078286 137.948921 
L 330.255733 137.367354 
L 330.332451 137.467807 
L 330.413631 137.334878 
L 330.573024 135.035793 
L 330.667155 135.666456 
L 330.74515 135.27975 
L 330.822735 136.27899 
L 330.900898 134.97084 
L 330.980726 135.384734 
L 331.077775 134.178043 
L 331.29544 136.477629 
L 331.391712 136.955724 
L 331.474283 135.426275 
L 331.657143 135.816003 
L 331.666931 135.709507 
L 331.706485 136.224612 
L 331.884239 135.804675 
L 332.040621 137.048628 
L 332.12254 137.588657 
L 332.200969 137.252556 
L 332.275865 138.385482 
L 332.354527 137.430801 
L 332.432383 137.843187 
L 332.512349 137.695907 
L 332.596774 137.214036 
L 332.753091 137.980649 
L 332.922907 136.945156 
L 333.00153 137.512206 
L 333.021034 138.654362 
L 333.08083 137.09168 
L 333.253404 139.362064 
L 333.414065 141.325799 
L 333.590524 140.523687 
L 333.727035 139.917947 
L 334.041644 139.826557 
L 334.139204 139.589399 
L 334.275604 138.794841 
L 334.57352 142.87111 
L 334.688043 141.917186 
L 334.785136 142.510086 
L 334.882808 139.900579 
L 335.039362 141.035769 
L 335.101539 140.067497 
L 335.199535 140.441362 
L 335.354402 137.467053 
L 335.452705 137.905872 
L 335.586531 137.796356 
L 335.668109 137.470074 
L 335.744245 135.448179 
L 335.842926 135.62114 
L 335.921601 136.348479 
L 336.000776 134.806943 
L 336.135886 134.995764 
L 336.175823 136.038056 
L 336.272915 135.950443 
L 336.335761 136.292587 
L 336.391648 137.393791 
L 336.521308 137.069775 
L 336.567702 137.664939 
L 336.764903 135.990473 
L 336.921023 136.440624 
L 336.999767 136.472346 
L 337.120033 136.880954 
L 337.272639 135.962529 
L 337.469272 138.3598 
L 337.55202 139.291066 
L 337.626256 139.161911 
L 337.704513 139.259343 
L 337.825792 137.936841 
L 338.021666 139.615837 
L 338.202085 137.782007 
L 338.355432 138.695145 
L 338.469781 138.130949 
L 338.644591 139.762363 
L 338.689961 138.902094 
L 338.772683 139.925503 
L 338.841279 138.87868 
L 338.958386 139.508587 
L 338.997246 140.519913 
L 339.253753 138.001041 
L 339.332723 139.664176 
L 339.449169 137.133218 
L 339.507253 138.241221 
L 339.573095 136.587905 
L 339.645559 136.824309 
L 339.723226 135.719664 
L 339.822617 135.763134 
L 339.899762 136.326575 
L 339.960141 137.778985 
L 340.058134 136.559202 
L 340.137063 136.958747 
L 340.211952 137.501041 
L 340.29409 136.195155 
L 340.369298 136.214792 
L 340.466579 136.38322 
L 340.531104 137.61811 
L 340.623918 136.796361 
L 340.702675 136.892282 
L 340.803259 136.775969 
L 341.055764 138.402096 
L 341.212074 137.214037 
L 341.532272 135.04486 
L 341.693398 135.271067 
L 341.835054 132.886257 
L 341.979038 133.209517 
L 341.99764 135.882467 
L 342.096137 134.798634 
L 342.157144 135.700441 
L 342.447724 135.105278 
L 342.726599 137.54107 
L 342.839714 137.031254 
L 343.133725 138.834873 
L 343.270399 137.580348 
L 343.31198 137.590923 
L 343.374783 137.737447 
L 343.642892 134.6793 
L 343.7023 135.637001 
L 343.780998 135.18383 
L 344.036136 133.44592 
L 344.173005 133.593954 
L 344.349209 134.881713 
L 344.428404 136.457235 
L 344.586128 134.896817 
L 344.683773 136.72536 
L 344.743091 136.146812 
L 344.919316 136.73518 
L 345.309721 131.968585 
L 345.430356 134.232173 
L 345.489052 133.460273 
L 345.647298 134.34018 
L 345.728302 134.213291 
L 345.888033 135.797876 
L 345.962654 137.495754 
L 346.060578 137.223852 
L 346.233138 135.585639 
L 346.354708 135.181562 
L 346.45587 135.459507 
L 346.493845 135.162681 
L 346.611382 133.329608 
L 346.726105 133.954984 
L 346.787205 132.243509 
L 346.943886 134.288064 
L 347.119638 135.882468 
L 347.237874 134.235949 
L 347.290923 134.771444 
L 347.420215 136.242735 
L 347.510927 135.383222 
L 347.675087 136.08035 
L 347.903668 133.050151 
L 348.000933 132.581118 
L 348.167773 133.513895 
L 348.251496 133.775224 
L 348.265468 133.747531 
L 348.564463 136.554669 
L 348.65759 136.498023 
L 348.835863 137.928533 
L 348.89642 136.525971 
L 349.00521 136.76615 
L 349.286165 133.273719 
L 349.540672 135.108305 
L 349.6187 136.099992 
L 349.776109 135.057699 
L 349.853794 135.482169 
L 349.972472 135.07507 
L 350.030591 136.760863 
L 350.09381 136.522194 
L 350.265069 134.404376 
L 350.343217 134.857546 
L 350.468582 134.196673 
L 350.61968 136.709506 
L 350.835177 134.450451 
L 350.95279 134.731417 
L 351.02348 136.891529 
L 351.088456 136.865849 
L 351.168304 135.654374 
L 351.250944 137.281256 
L 351.502077 135.63398 
L 351.581548 135.090931 
L 351.717748 135.34093 
L 351.855201 135.874161 
L 351.89368 134.908907 
L 351.957873 136.093192 
L 352.011816 135.859809 
L 352.050644 134.483683 
L 352.158283 135.780507 
L 352.211448 135.191384 
L 352.366162 135.661925 
L 352.503951 136.863581 
L 352.60811 136.566754 
L 352.758923 136.742736 
L 352.798244 136.092436 
L 352.995091 137.163426 
L 353.071898 135.781256 
L 353.11164 136.511615 
L 353.156584 136.422492 
L 353.189756 134.877937 
L 353.27116 135.766907 
L 353.464811 134.812228 
L 353.523399 136.401345 
L 353.603736 134.615744 
L 353.660065 134.831864 
L 353.929594 138.036534 
L 354.019327 137.389255 
L 354.095032 138.257078 
L 354.485221 135.592439 
L 354.700738 132.217076 
L 354.71952 132.90363 
" clip-path="url(#p3d9c07517b)" style="fill: none; stroke: #ff0000; stroke-opacity: 0.5; stroke-width: 2.1; stroke-linecap: square"/>
   </g>
   <g id="patch_3">
    <path d="M 36.485625 148.36327 
L 36.485625 0.72 
" style="fill: none; stroke: #000000; stroke-width: 0.8; stroke-linejoin: miter; stroke-linecap: square"/>
   </g>
   <g id="patch_4">
    <path d="M 354.71952 148.36327 
L 354.71952 0.72 
" style="fill: none; stroke: #000000; stroke-width: 0.8; stroke-linejoin: miter; stroke-linecap: square"/>
   </g>
   <g id="patch_5">
    <path d="M 36.485625 148.36327 
L 354.71952 148.36327 
" style="fill: none; stroke: #000000; stroke-width: 0.8; stroke-linejoin: miter; stroke-linecap: square"/>
   </g>
   <g id="patch_6">
    <path d="M 36.485625 0.72 
L 354.71952 0.72 
" style="fill: none; stroke: #000000; stroke-width: 0.8; stroke-linejoin: miter; stroke-linecap: square"/>
   </g>
   <g id="legend_1">
    <g id="patch_7">
     <path d="M 273.95077 38.07625 
L 347.71952 38.07625 
Q 349.71952 38.07625 349.71952 36.07625 
L 349.71952 7.72 
Q 349.71952 5.72 347.71952 5.72 
L 273.95077 5.72 
Q 271.95077 5.72 271.95077 7.72 
L 271.95077 36.07625 
Q 271.95077 38.07625 273.95077 38.07625 
z
" style="fill: #ffffff; opacity: 0.8; stroke: #cccccc; stroke-linejoin: miter"/>
    </g>
    <g id="line2d_31">
     <path d="M 275.95077 13.818437 
L 285.95077 13.818437 
L 295.95077 13.818437 
" style="fill: none; stroke: #0000ff; stroke-opacity: 0.5; stroke-width: 2.1; stroke-linecap: square"/>
    </g>
    <g id="text_17">
     <!-- RNEA -->
     <g transform="translate(303.95077 17.318437) scale(0.1 -0.1)">
      <defs>
       <path id="DejaVuSans-52" d="M 2841 2188 
Q 3044 2119 3236 1894 
Q 3428 1669 3622 1275 
L 4263 0 
L 3584 0 
L 2988 1197 
Q 2756 1666 2539 1819 
Q 2322 1972 1947 1972 
L 1259 1972 
L 1259 0 
L 628 0 
L 628 4666 
L 2053 4666 
Q 2853 4666 3247 4331 
Q 3641 3997 3641 3322 
Q 3641 2881 3436 2590 
Q 3231 2300 2841 2188 
z
M 1259 4147 
L 1259 2491 
L 2053 2491 
Q 2509 2491 2742 2702 
Q 2975 2913 2975 3322 
Q 2975 3731 2742 3939 
Q 2509 4147 2053 4147 
L 1259 4147 
z
" transform="scale(0.015625)"/>
       <path id="DejaVuSans-45" d="M 628 4666 
L 3578 4666 
L 3578 4134 
L 1259 4134 
L 1259 2753 
L 3481 2753 
L 3481 2222 
L 1259 2222 
L 1259 531 
L 3634 531 
L 3634 0 
L 628 0 
L 628 4666 
z
" transform="scale(0.015625)"/>
       <path id="DejaVuSans-41" d="M 2188 4044 
L 1331 1722 
L 3047 1722 
L 2188 4044 
z
M 1831 4666 
L 2547 4666 
L 4325 0 
L 3669 0 
L 3244 1197 
L 1141 1197 
L 716 0 
L 50 0 
L 1831 4666 
z
" transform="scale(0.015625)"/>
      </defs>
      <use xlink:href="#DejaVuSans-52"/>
      <use xlink:href="#DejaVuSans-4e" x="69.482422"/>
      <use xlink:href="#DejaVuSans-45" x="144.287109"/>
      <use xlink:href="#DejaVuSans-41" x="207.470703"/>
     </g>
    </g>
    <g id="line2d_32">
     <path d="M 275.95077 28.496562 
L 285.95077 28.496562 
L 295.95077 28.496562 
" style="fill: none; stroke: #ff0000; stroke-opacity: 0.5; stroke-width: 2.1; stroke-linecap: square"/>
    </g>
    <g id="text_18">
     <!-- BURNEA -->
     <g transform="translate(303.95077 31.996562) scale(0.1 -0.1)">
      <defs>
       <path id="DejaVuSans-42" d="M 1259 2228 
L 1259 519 
L 2272 519 
Q 2781 519 3026 730 
Q 3272 941 3272 1375 
Q 3272 1813 3026 2020 
Q 2781 2228 2272 2228 
L 1259 2228 
z
M 1259 4147 
L 1259 2741 
L 2194 2741 
Q 2656 2741 2882 2914 
Q 3109 3088 3109 3444 
Q 3109 3797 2882 3972 
Q 2656 4147 2194 4147 
L 1259 4147 
z
M 628 4666 
L 2241 4666 
Q 2963 4666 3353 4366 
Q 3744 4066 3744 3513 
Q 3744 3084 3544 2831 
Q 3344 2578 2956 2516 
Q 3422 2416 3680 2098 
Q 3938 1781 3938 1306 
Q 3938 681 3513 340 
Q 3088 0 2303 0 
L 628 0 
L 628 4666 
z
" transform="scale(0.015625)"/>
       <path id="DejaVuSans-55" d="M 556 4666 
L 1191 4666 
L 1191 1831 
Q 1191 1081 1462 751 
Q 1734 422 2344 422 
Q 2950 422 3222 751 
Q 3494 1081 3494 1831 
L 3494 4666 
L 4128 4666 
L 4128 1753 
Q 4128 841 3676 375 
Q 3225 -91 2344 -91 
Q 1459 -91 1007 375 
Q 556 841 556 1753 
L 556 4666 
z
" transform="scale(0.015625)"/>
      </defs>
      <use xlink:href="#DejaVuSans-42"/>
      <use xlink:href="#DejaVuSans-55" x="68.603516"/>
      <use xlink:href="#DejaVuSans-52" x="141.796875"/>
      <use xlink:href="#DejaVuSans-4e" x="211.279297"/>
      <use xlink:href="#DejaVuSans-45" x="286.083984"/>
      <use xlink:href="#DejaVuSans-41" x="349.267578"/>
     </g>
    </g>
   </g>
  </g>
 </g>
 <defs>
  <clipPath id="p3d9c07517b">
   <rect x="36.485625" y="0.72" width="318.233895" height="147.64327"/>
  </clipPath>
 </defs>
</svg>
