<?xml version="1.0" encoding="utf-8" standalone="no"?>
<!DOCTYPE svg PUBLIC "-//W3C//DTD SVG 1.1//EN"
  "http://www.w3.org/Graphics/SVG/1.1/DTD/svg11.dtd">
<svg xmlns:xlink="http://www.w3.org/1999/xlink" width="355.43952pt" height="175.43952pt" viewBox="0 0 355.43952 175.43952" xmlns="http://www.w3.org/2000/svg" version="1.1">
 <metadata>
  <rdf:RDF xmlns:dc="http://purl.org/dc/elements/1.1/" xmlns:cc="http://creativecommons.org/ns#" xmlns:rdf="http://www.w3.org/1999/02/22-rdf-syntax-ns#">
   <cc:Work>
    <dc:type rdf:resource="http://purl.org/dc/dcmitype/StillImage"/>
    <dc:date>2023-09-09T18:29:17.822967</dc:date>
    <dc:format>image/svg+xml</dc:format>
    <dc:creator>
     <cc:Agent>
      <dc:title>Matplotlib v3.7.2, https://matplotlib.org/</dc:title>
     </cc:Agent>
    </dc:creator>
   </cc:Work>
  </rdf:RDF>
 </metadata>
 <defs>
  <style type="text/css">*{stroke-linejoin: round; stroke-linecap: butt}</style>
 </defs>
 <g id="figure_1">
  <g id="patch_1">
   <path d="M 0 175.43952 
L 355.43952 175.43952 
L 355.43952 0 
L 0 0 
L 0 175.43952 
z
" style="fill: none"/>
  </g>
  <g id="axes_1">
   <g id="patch_2">
    <path d="M 48.043438 148.36327 
L 354.71952 148.36327 
L 354.71952 0.72 
L 48.043438 0.72 
L 48.043438 148.36327 
z
" style="fill: none"/>
   </g>
   <g id="matplotlib.axis_1">
    <g id="xtick_1">
     <g id="line2d_1">
      <path d="M 48.043438 148.36327 
L 48.043438 0.72 
" clip-path="url(#p8ae37bc00e)" style="fill: none; stroke-dasharray: 0.8,1.32; stroke-dashoffset: 0; stroke: #000000; stroke-opacity: 0.5; stroke-width: 0.8"/>
     </g>
     <g id="line2d_2">
      <defs>
       <path id="mcfe0c66652" d="M 0 0 
L 0 3.5 
" style="stroke: #000000; stroke-width: 0.8"/>
      </defs>
      <g>
       <use xlink:href="#mcfe0c66652" x="48.043438" y="148.36327" style="stroke: #000000; stroke-width: 0.8"/>
      </g>
     </g>
     <g id="text_1">
      <!-- 0 -->
      <g transform="translate(44.862188 162.961708) scale(0.1 -0.1)">
       <defs>
        <path id="DejaVuSans-30" d="M 2034 4250 
Q 1547 4250 1301 3770 
Q 1056 3291 1056 2328 
Q 1056 1369 1301 889 
Q 1547 409 2034 409 
Q 2525 409 2770 889 
Q 3016 1369 3016 2328 
Q 3016 3291 2770 3770 
Q 2525 4250 2034 4250 
z
M 2034 4750 
Q 2819 4750 3233 4129 
Q 3647 3509 3647 2328 
Q 3647 1150 3233 529 
Q 2819 -91 2034 -91 
Q 1250 -91 836 529 
Q 422 1150 422 2328 
Q 422 3509 836 4129 
Q 1250 4750 2034 4750 
z
" transform="scale(0.015625)"/>
       </defs>
       <use xlink:href="#DejaVuSans-30"/>
      </g>
     </g>
    </g>
    <g id="xtick_2">
     <g id="line2d_3">
      <path d="M 94.885627 148.36327 
L 94.885627 0.72 
" clip-path="url(#p8ae37bc00e)" style="fill: none; stroke-dasharray: 0.8,1.32; stroke-dashoffset: 0; stroke: #000000; stroke-opacity: 0.5; stroke-width: 0.8"/>
     </g>
     <g id="line2d_4">
      <g>
       <use xlink:href="#mcfe0c66652" x="94.885627" y="148.36327" style="stroke: #000000; stroke-width: 0.8"/>
      </g>
     </g>
     <g id="text_2">
      <!-- 5 -->
      <g transform="translate(91.704377 162.961708) scale(0.1 -0.1)">
       <defs>
        <path id="DejaVuSans-35" d="M 691 4666 
L 3169 4666 
L 3169 4134 
L 1269 4134 
L 1269 2991 
Q 1406 3038 1543 3061 
Q 1681 3084 1819 3084 
Q 2600 3084 3056 2656 
Q 3513 2228 3513 1497 
Q 3513 744 3044 326 
Q 2575 -91 1722 -91 
Q 1428 -91 1123 -41 
Q 819 9 494 109 
L 494 744 
Q 775 591 1075 516 
Q 1375 441 1709 441 
Q 2250 441 2565 725 
Q 2881 1009 2881 1497 
Q 2881 1984 2565 2268 
Q 2250 2553 1709 2553 
Q 1456 2553 1204 2497 
Q 953 2441 691 2322 
L 691 4666 
z
" transform="scale(0.015625)"/>
       </defs>
       <use xlink:href="#DejaVuSans-35"/>
      </g>
     </g>
    </g>
    <g id="xtick_3">
     <g id="line2d_5">
      <path d="M 141.727816 148.36327 
L 141.727816 0.72 
" clip-path="url(#p8ae37bc00e)" style="fill: none; stroke-dasharray: 0.8,1.32; stroke-dashoffset: 0; stroke: #000000; stroke-opacity: 0.5; stroke-width: 0.8"/>
     </g>
     <g id="line2d_6">
      <g>
       <use xlink:href="#mcfe0c66652" x="141.727816" y="148.36327" style="stroke: #000000; stroke-width: 0.8"/>
      </g>
     </g>
     <g id="text_3">
      <!-- 10 -->
      <g transform="translate(135.365316 162.961708) scale(0.1 -0.1)">
       <defs>
        <path id="DejaVuSans-31" d="M 794 531 
L 1825 531 
L 1825 4091 
L 703 3866 
L 703 4441 
L 1819 4666 
L 2450 4666 
L 2450 531 
L 3481 531 
L 3481 0 
L 794 0 
L 794 531 
z
" transform="scale(0.015625)"/>
       </defs>
       <use xlink:href="#DejaVuSans-31"/>
       <use xlink:href="#DejaVuSans-30" x="63.623047"/>
      </g>
     </g>
    </g>
    <g id="xtick_4">
     <g id="line2d_7">
      <path d="M 188.570005 148.36327 
L 188.570005 0.72 
" clip-path="url(#p8ae37bc00e)" style="fill: none; stroke-dasharray: 0.8,1.32; stroke-dashoffset: 0; stroke: #000000; stroke-opacity: 0.5; stroke-width: 0.8"/>
     </g>
     <g id="line2d_8">
      <g>
       <use xlink:href="#mcfe0c66652" x="188.570005" y="148.36327" style="stroke: #000000; stroke-width: 0.8"/>
      </g>
     </g>
     <g id="text_4">
      <!-- 15 -->
      <g transform="translate(182.207505 162.961708) scale(0.1 -0.1)">
       <use xlink:href="#DejaVuSans-31"/>
       <use xlink:href="#DejaVuSans-35" x="63.623047"/>
      </g>
     </g>
    </g>
    <g id="xtick_5">
     <g id="line2d_9">
      <path d="M 235.412194 148.36327 
L 235.412194 0.72 
" clip-path="url(#p8ae37bc00e)" style="fill: none; stroke-dasharray: 0.8,1.32; stroke-dashoffset: 0; stroke: #000000; stroke-opacity: 0.5; stroke-width: 0.8"/>
     </g>
     <g id="line2d_10">
      <g>
       <use xlink:href="#mcfe0c66652" x="235.412194" y="148.36327" style="stroke: #000000; stroke-width: 0.8"/>
      </g>
     </g>
     <g id="text_5">
      <!-- 20 -->
      <g transform="translate(229.049694 162.961708) scale(0.1 -0.1)">
       <defs>
        <path id="DejaVuSans-32" d="M 1228 531 
L 3431 531 
L 3431 0 
L 469 0 
L 469 531 
Q 828 903 1448 1529 
Q 2069 2156 2228 2338 
Q 2531 2678 2651 2914 
Q 2772 3150 2772 3378 
Q 2772 3750 2511 3984 
Q 2250 4219 1831 4219 
Q 1534 4219 1204 4116 
Q 875 4013 500 3803 
L 500 4441 
Q 881 4594 1212 4672 
Q 1544 4750 1819 4750 
Q 2544 4750 2975 4387 
Q 3406 4025 3406 3419 
Q 3406 3131 3298 2873 
Q 3191 2616 2906 2266 
Q 2828 2175 2409 1742 
Q 1991 1309 1228 531 
z
" transform="scale(0.015625)"/>
       </defs>
       <use xlink:href="#DejaVuSans-32"/>
       <use xlink:href="#DejaVuSans-30" x="63.623047"/>
      </g>
     </g>
    </g>
    <g id="xtick_6">
     <g id="line2d_11">
      <path d="M 282.254383 148.36327 
L 282.254383 0.72 
" clip-path="url(#p8ae37bc00e)" style="fill: none; stroke-dasharray: 0.8,1.32; stroke-dashoffset: 0; stroke: #000000; stroke-opacity: 0.5; stroke-width: 0.8"/>
     </g>
     <g id="line2d_12">
      <g>
       <use xlink:href="#mcfe0c66652" x="282.254383" y="148.36327" style="stroke: #000000; stroke-width: 0.8"/>
      </g>
     </g>
     <g id="text_6">
      <!-- 25 -->
      <g transform="translate(275.891883 162.961708) scale(0.1 -0.1)">
       <use xlink:href="#DejaVuSans-32"/>
       <use xlink:href="#DejaVuSans-35" x="63.623047"/>
      </g>
     </g>
    </g>
    <g id="xtick_7">
     <g id="line2d_13">
      <path d="M 329.096572 148.36327 
L 329.096572 0.72 
" clip-path="url(#p8ae37bc00e)" style="fill: none; stroke-dasharray: 0.8,1.32; stroke-dashoffset: 0; stroke: #000000; stroke-opacity: 0.5; stroke-width: 0.8"/>
     </g>
     <g id="line2d_14">
      <g>
       <use xlink:href="#mcfe0c66652" x="329.096572" y="148.36327" style="stroke: #000000; stroke-width: 0.8"/>
      </g>
     </g>
     <g id="text_7">
      <!-- 30 -->
      <g transform="translate(322.734072 162.961708) scale(0.1 -0.1)">
       <defs>
        <path id="DejaVuSans-33" d="M 2597 2516 
Q 3050 2419 3304 2112 
Q 3559 1806 3559 1356 
Q 3559 666 3084 287 
Q 2609 -91 1734 -91 
Q 1441 -91 1130 -33 
Q 819 25 488 141 
L 488 750 
Q 750 597 1062 519 
Q 1375 441 1716 441 
Q 2309 441 2620 675 
Q 2931 909 2931 1356 
Q 2931 1769 2642 2001 
Q 2353 2234 1838 2234 
L 1294 2234 
L 1294 2753 
L 1863 2753 
Q 2328 2753 2575 2939 
Q 2822 3125 2822 3475 
Q 2822 3834 2567 4026 
Q 2313 4219 1838 4219 
Q 1578 4219 1281 4162 
Q 984 4106 628 3988 
L 628 4550 
Q 988 4650 1302 4700 
Q 1616 4750 1894 4750 
Q 2613 4750 3031 4423 
Q 3450 4097 3450 3541 
Q 3450 3153 3228 2886 
Q 3006 2619 2597 2516 
z
" transform="scale(0.015625)"/>
       </defs>
       <use xlink:href="#DejaVuSans-33"/>
       <use xlink:href="#DejaVuSans-30" x="63.623047"/>
      </g>
     </g>
    </g>
    <g id="text_8">
     <!-- Zeit [s] -->
     <g transform="translate(183.435385 172.639833) scale(0.1 -0.1)">
      <defs>
       <path id="DejaVuSans-5a" d="M 359 4666 
L 4025 4666 
L 4025 4184 
L 1075 531 
L 4097 531 
L 4097 0 
L 288 0 
L 288 481 
L 3238 4134 
L 359 4134 
L 359 4666 
z
" transform="scale(0.015625)"/>
       <path id="DejaVuSans-65" d="M 3597 1894 
L 3597 1613 
L 953 1613 
Q 991 1019 1311 708 
Q 1631 397 2203 397 
Q 2534 397 2845 478 
Q 3156 559 3463 722 
L 3463 178 
Q 3153 47 2828 -22 
Q 2503 -91 2169 -91 
Q 1331 -91 842 396 
Q 353 884 353 1716 
Q 353 2575 817 3079 
Q 1281 3584 2069 3584 
Q 2775 3584 3186 3129 
Q 3597 2675 3597 1894 
z
M 3022 2063 
Q 3016 2534 2758 2815 
Q 2500 3097 2075 3097 
Q 1594 3097 1305 2825 
Q 1016 2553 972 2059 
L 3022 2063 
z
" transform="scale(0.015625)"/>
       <path id="DejaVuSans-69" d="M 603 3500 
L 1178 3500 
L 1178 0 
L 603 0 
L 603 3500 
z
M 603 4863 
L 1178 4863 
L 1178 4134 
L 603 4134 
L 603 4863 
z
" transform="scale(0.015625)"/>
       <path id="DejaVuSans-74" d="M 1172 4494 
L 1172 3500 
L 2356 3500 
L 2356 3053 
L 1172 3053 
L 1172 1153 
Q 1172 725 1289 603 
Q 1406 481 1766 481 
L 2356 481 
L 2356 0 
L 1766 0 
Q 1100 0 847 248 
Q 594 497 594 1153 
L 594 3053 
L 172 3053 
L 172 3500 
L 594 3500 
L 594 4494 
L 1172 4494 
z
" transform="scale(0.015625)"/>
       <path id="DejaVuSans-20" transform="scale(0.015625)"/>
       <path id="DejaVuSans-5b" d="M 550 4863 
L 1875 4863 
L 1875 4416 
L 1125 4416 
L 1125 -397 
L 1875 -397 
L 1875 -844 
L 550 -844 
L 550 4863 
z
" transform="scale(0.015625)"/>
       <path id="DejaVuSans-73" d="M 2834 3397 
L 2834 2853 
Q 2591 2978 2328 3040 
Q 2066 3103 1784 3103 
Q 1356 3103 1142 2972 
Q 928 2841 928 2578 
Q 928 2378 1081 2264 
Q 1234 2150 1697 2047 
L 1894 2003 
Q 2506 1872 2764 1633 
Q 3022 1394 3022 966 
Q 3022 478 2636 193 
Q 2250 -91 1575 -91 
Q 1294 -91 989 -36 
Q 684 19 347 128 
L 347 722 
Q 666 556 975 473 
Q 1284 391 1588 391 
Q 1994 391 2212 530 
Q 2431 669 2431 922 
Q 2431 1156 2273 1281 
Q 2116 1406 1581 1522 
L 1381 1569 
Q 847 1681 609 1914 
Q 372 2147 372 2553 
Q 372 3047 722 3315 
Q 1072 3584 1716 3584 
Q 2034 3584 2315 3537 
Q 2597 3491 2834 3397 
z
" transform="scale(0.015625)"/>
       <path id="DejaVuSans-5d" d="M 1947 4863 
L 1947 -844 
L 622 -844 
L 622 -397 
L 1369 -397 
L 1369 4416 
L 622 4416 
L 622 4863 
L 1947 4863 
z
" transform="scale(0.015625)"/>
      </defs>
      <use xlink:href="#DejaVuSans-5a"/>
      <use xlink:href="#DejaVuSans-65" x="68.505859"/>
      <use xlink:href="#DejaVuSans-69" x="130.029297"/>
      <use xlink:href="#DejaVuSans-74" x="157.8125"/>
      <use xlink:href="#DejaVuSans-20" x="197.021484"/>
      <use xlink:href="#DejaVuSans-5b" x="228.808594"/>
      <use xlink:href="#DejaVuSans-73" x="267.822266"/>
      <use xlink:href="#DejaVuSans-5d" x="319.921875"/>
     </g>
    </g>
   </g>
   <g id="matplotlib.axis_2">
    <g id="ytick_1">
     <g id="line2d_15">
      <path d="M 48.043438 135.524792 
L 354.71952 135.524792 
" clip-path="url(#p8ae37bc00e)" style="fill: none; stroke-dasharray: 0.8,1.32; stroke-dashoffset: 0; stroke: #000000; stroke-opacity: 0.5; stroke-width: 0.8"/>
     </g>
     <g id="line2d_16">
      <defs>
       <path id="ma862b3b170" d="M 0 0 
L -3.5 0 
" style="stroke: #000000; stroke-width: 0.8"/>
      </defs>
      <g>
       <use xlink:href="#ma862b3b170" x="48.043438" y="135.524792" style="stroke: #000000; stroke-width: 0.8"/>
      </g>
     </g>
     <g id="text_9">
      <!-- −17.2 -->
      <g transform="translate(10.398125 139.324011) scale(0.1 -0.1)">
       <defs>
        <path id="DejaVuSans-2212" d="M 678 2272 
L 4684 2272 
L 4684 1741 
L 678 1741 
L 678 2272 
z
" transform="scale(0.015625)"/>
        <path id="DejaVuSans-37" d="M 525 4666 
L 3525 4666 
L 3525 4397 
L 1831 0 
L 1172 0 
L 2766 4134 
L 525 4134 
L 525 4666 
z
" transform="scale(0.015625)"/>
        <path id="DejaVuSans-2e" d="M 684 794 
L 1344 794 
L 1344 0 
L 684 0 
L 684 794 
z
" transform="scale(0.015625)"/>
       </defs>
       <use xlink:href="#DejaVuSans-2212"/>
       <use xlink:href="#DejaVuSans-31" x="83.789062"/>
       <use xlink:href="#DejaVuSans-37" x="147.412109"/>
       <use xlink:href="#DejaVuSans-2e" x="211.035156"/>
       <use xlink:href="#DejaVuSans-32" x="242.822266"/>
      </g>
     </g>
    </g>
    <g id="ytick_2">
     <g id="line2d_17">
      <path d="M 48.043438 99.785197 
L 354.71952 99.785197 
" clip-path="url(#p8ae37bc00e)" style="fill: none; stroke-dasharray: 0.8,1.32; stroke-dashoffset: 0; stroke: #000000; stroke-opacity: 0.5; stroke-width: 0.8"/>
     </g>
     <g id="line2d_18">
      <g>
       <use xlink:href="#ma862b3b170" x="48.043438" y="99.785197" style="stroke: #000000; stroke-width: 0.8"/>
      </g>
     </g>
     <g id="text_10">
      <!-- −17.0 -->
      <g transform="translate(10.398125 103.584416) scale(0.1 -0.1)">
       <use xlink:href="#DejaVuSans-2212"/>
       <use xlink:href="#DejaVuSans-31" x="83.789062"/>
       <use xlink:href="#DejaVuSans-37" x="147.412109"/>
       <use xlink:href="#DejaVuSans-2e" x="211.035156"/>
       <use xlink:href="#DejaVuSans-30" x="242.822266"/>
      </g>
     </g>
    </g>
    <g id="ytick_3">
     <g id="line2d_19">
      <path d="M 48.043438 64.045602 
L 354.71952 64.045602 
" clip-path="url(#p8ae37bc00e)" style="fill: none; stroke-dasharray: 0.8,1.32; stroke-dashoffset: 0; stroke: #000000; stroke-opacity: 0.5; stroke-width: 0.8"/>
     </g>
     <g id="line2d_20">
      <g>
       <use xlink:href="#ma862b3b170" x="48.043438" y="64.045602" style="stroke: #000000; stroke-width: 0.8"/>
      </g>
     </g>
     <g id="text_11">
      <!-- −16.8 -->
      <g transform="translate(10.398125 67.844821) scale(0.1 -0.1)">
       <defs>
        <path id="DejaVuSans-36" d="M 2113 2584 
Q 1688 2584 1439 2293 
Q 1191 2003 1191 1497 
Q 1191 994 1439 701 
Q 1688 409 2113 409 
Q 2538 409 2786 701 
Q 3034 994 3034 1497 
Q 3034 2003 2786 2293 
Q 2538 2584 2113 2584 
z
M 3366 4563 
L 3366 3988 
Q 3128 4100 2886 4159 
Q 2644 4219 2406 4219 
Q 1781 4219 1451 3797 
Q 1122 3375 1075 2522 
Q 1259 2794 1537 2939 
Q 1816 3084 2150 3084 
Q 2853 3084 3261 2657 
Q 3669 2231 3669 1497 
Q 3669 778 3244 343 
Q 2819 -91 2113 -91 
Q 1303 -91 875 529 
Q 447 1150 447 2328 
Q 447 3434 972 4092 
Q 1497 4750 2381 4750 
Q 2619 4750 2861 4703 
Q 3103 4656 3366 4563 
z
" transform="scale(0.015625)"/>
        <path id="DejaVuSans-38" d="M 2034 2216 
Q 1584 2216 1326 1975 
Q 1069 1734 1069 1313 
Q 1069 891 1326 650 
Q 1584 409 2034 409 
Q 2484 409 2743 651 
Q 3003 894 3003 1313 
Q 3003 1734 2745 1975 
Q 2488 2216 2034 2216 
z
M 1403 2484 
Q 997 2584 770 2862 
Q 544 3141 544 3541 
Q 544 4100 942 4425 
Q 1341 4750 2034 4750 
Q 2731 4750 3128 4425 
Q 3525 4100 3525 3541 
Q 3525 3141 3298 2862 
Q 3072 2584 2669 2484 
Q 3125 2378 3379 2068 
Q 3634 1759 3634 1313 
Q 3634 634 3220 271 
Q 2806 -91 2034 -91 
Q 1263 -91 848 271 
Q 434 634 434 1313 
Q 434 1759 690 2068 
Q 947 2378 1403 2484 
z
M 1172 3481 
Q 1172 3119 1398 2916 
Q 1625 2713 2034 2713 
Q 2441 2713 2670 2916 
Q 2900 3119 2900 3481 
Q 2900 3844 2670 4047 
Q 2441 4250 2034 4250 
Q 1625 4250 1398 4047 
Q 1172 3844 1172 3481 
z
" transform="scale(0.015625)"/>
       </defs>
       <use xlink:href="#DejaVuSans-2212"/>
       <use xlink:href="#DejaVuSans-31" x="83.789062"/>
       <use xlink:href="#DejaVuSans-36" x="147.412109"/>
       <use xlink:href="#DejaVuSans-2e" x="211.035156"/>
       <use xlink:href="#DejaVuSans-38" x="242.822266"/>
      </g>
     </g>
    </g>
    <g id="ytick_4">
     <g id="line2d_21">
      <path d="M 48.043438 28.306007 
L 354.71952 28.306007 
" clip-path="url(#p8ae37bc00e)" style="fill: none; stroke-dasharray: 0.8,1.32; stroke-dashoffset: 0; stroke: #000000; stroke-opacity: 0.5; stroke-width: 0.8"/>
     </g>
     <g id="line2d_22">
      <g>
       <use xlink:href="#ma862b3b170" x="48.043438" y="28.306007" style="stroke: #000000; stroke-width: 0.8"/>
      </g>
     </g>
     <g id="text_12">
      <!-- −16.6 -->
      <g transform="translate(10.398125 32.105226) scale(0.1 -0.1)">
       <use xlink:href="#DejaVuSans-2212"/>
       <use xlink:href="#DejaVuSans-31" x="83.789062"/>
       <use xlink:href="#DejaVuSans-36" x="147.412109"/>
       <use xlink:href="#DejaVuSans-2e" x="211.035156"/>
       <use xlink:href="#DejaVuSans-36" x="242.822266"/>
      </g>
     </g>
    </g>
    <g id="text_13">
     <!-- Drehmoment [Nm] -->
     <g transform="translate(8.318438 121.686948) rotate(-90) scale(0.1 -0.1)">
      <defs>
       <path id="DejaVuSans-44" d="M 1259 4147 
L 1259 519 
L 2022 519 
Q 2988 519 3436 956 
Q 3884 1394 3884 2338 
Q 3884 3275 3436 3711 
Q 2988 4147 2022 4147 
L 1259 4147 
z
M 628 4666 
L 1925 4666 
Q 3281 4666 3915 4102 
Q 4550 3538 4550 2338 
Q 4550 1131 3912 565 
Q 3275 0 1925 0 
L 628 0 
L 628 4666 
z
" transform="scale(0.015625)"/>
       <path id="DejaVuSans-72" d="M 2631 2963 
Q 2534 3019 2420 3045 
Q 2306 3072 2169 3072 
Q 1681 3072 1420 2755 
Q 1159 2438 1159 1844 
L 1159 0 
L 581 0 
L 581 3500 
L 1159 3500 
L 1159 2956 
Q 1341 3275 1631 3429 
Q 1922 3584 2338 3584 
Q 2397 3584 2469 3576 
Q 2541 3569 2628 3553 
L 2631 2963 
z
" transform="scale(0.015625)"/>
       <path id="DejaVuSans-68" d="M 3513 2113 
L 3513 0 
L 2938 0 
L 2938 2094 
Q 2938 2591 2744 2837 
Q 2550 3084 2163 3084 
Q 1697 3084 1428 2787 
Q 1159 2491 1159 1978 
L 1159 0 
L 581 0 
L 581 4863 
L 1159 4863 
L 1159 2956 
Q 1366 3272 1645 3428 
Q 1925 3584 2291 3584 
Q 2894 3584 3203 3211 
Q 3513 2838 3513 2113 
z
" transform="scale(0.015625)"/>
       <path id="DejaVuSans-6d" d="M 3328 2828 
Q 3544 3216 3844 3400 
Q 4144 3584 4550 3584 
Q 5097 3584 5394 3201 
Q 5691 2819 5691 2113 
L 5691 0 
L 5113 0 
L 5113 2094 
Q 5113 2597 4934 2840 
Q 4756 3084 4391 3084 
Q 3944 3084 3684 2787 
Q 3425 2491 3425 1978 
L 3425 0 
L 2847 0 
L 2847 2094 
Q 2847 2600 2669 2842 
Q 2491 3084 2119 3084 
Q 1678 3084 1418 2786 
Q 1159 2488 1159 1978 
L 1159 0 
L 581 0 
L 581 3500 
L 1159 3500 
L 1159 2956 
Q 1356 3278 1631 3431 
Q 1906 3584 2284 3584 
Q 2666 3584 2933 3390 
Q 3200 3197 3328 2828 
z
" transform="scale(0.015625)"/>
       <path id="DejaVuSans-6f" d="M 1959 3097 
Q 1497 3097 1228 2736 
Q 959 2375 959 1747 
Q 959 1119 1226 758 
Q 1494 397 1959 397 
Q 2419 397 2687 759 
Q 2956 1122 2956 1747 
Q 2956 2369 2687 2733 
Q 2419 3097 1959 3097 
z
M 1959 3584 
Q 2709 3584 3137 3096 
Q 3566 2609 3566 1747 
Q 3566 888 3137 398 
Q 2709 -91 1959 -91 
Q 1206 -91 779 398 
Q 353 888 353 1747 
Q 353 2609 779 3096 
Q 1206 3584 1959 3584 
z
" transform="scale(0.015625)"/>
       <path id="DejaVuSans-6e" d="M 3513 2113 
L 3513 0 
L 2938 0 
L 2938 2094 
Q 2938 2591 2744 2837 
Q 2550 3084 2163 3084 
Q 1697 3084 1428 2787 
Q 1159 2491 1159 1978 
L 1159 0 
L 581 0 
L 581 3500 
L 1159 3500 
L 1159 2956 
Q 1366 3272 1645 3428 
Q 1925 3584 2291 3584 
Q 2894 3584 3203 3211 
Q 3513 2838 3513 2113 
z
" transform="scale(0.015625)"/>
       <path id="DejaVuSans-4e" d="M 628 4666 
L 1478 4666 
L 3547 763 
L 3547 4666 
L 4159 4666 
L 4159 0 
L 3309 0 
L 1241 3903 
L 1241 0 
L 628 0 
L 628 4666 
z
" transform="scale(0.015625)"/>
      </defs>
      <use xlink:href="#DejaVuSans-44"/>
      <use xlink:href="#DejaVuSans-72" x="77.001953"/>
      <use xlink:href="#DejaVuSans-65" x="115.865234"/>
      <use xlink:href="#DejaVuSans-68" x="177.388672"/>
      <use xlink:href="#DejaVuSans-6d" x="240.767578"/>
      <use xlink:href="#DejaVuSans-6f" x="338.179688"/>
      <use xlink:href="#DejaVuSans-6d" x="399.361328"/>
      <use xlink:href="#DejaVuSans-65" x="496.773438"/>
      <use xlink:href="#DejaVuSans-6e" x="558.296875"/>
      <use xlink:href="#DejaVuSans-74" x="621.675781"/>
      <use xlink:href="#DejaVuSans-20" x="660.884766"/>
      <use xlink:href="#DejaVuSans-5b" x="692.671875"/>
      <use xlink:href="#DejaVuSans-4e" x="731.685547"/>
      <use xlink:href="#DejaVuSans-6d" x="806.490234"/>
      <use xlink:href="#DejaVuSans-5d" x="903.902344"/>
     </g>
    </g>
   </g>
   <g id="line2d_23">
    <path d="M 48.043438 4.101144 
L 354.71952 4.101144 
L 354.71952 4.101144 
" clip-path="url(#p8ae37bc00e)" style="fill: none; stroke: #0000ff; stroke-opacity: 0.5; stroke-width: 2.1; stroke-linecap: square"/>
   </g>
   <g id="line2d_24">
    <path d="M 48.043438 126.649983 
L 48.101405 124.793334 
L 48.205698 126.418051 
L 48.387979 122.054038 
L 48.443869 122.832765 
L 48.521745 119.144311 
L 48.649934 129.652081 
L 48.725938 126.256664 
L 48.902931 128.139642 
L 49.12252 118.795939 
L 49.197506 120.384964 
L 49.273527 125.890908 
L 49.464891 123.68833 
L 49.688485 116.428171 
L 49.763846 118.793168 
L 49.820479 118.086292 
L 49.896966 117.443175 
L 50.008565 122.705815 
L 50.065598 120.939722 
L 50.23619 114.936538 
L 50.313145 119.265705 
L 50.59491 109.038391 
L 50.616601 109.316851 
L 50.677529 111.645721 
L 50.689428 110.730698 
L 50.765819 109.783096 
L 50.916829 111.731024 
L 51.160988 121.046264 
L 51.236452 119.994406 
L 51.303402 118.224843 
L 51.387948 122.205687 
L 51.463935 123.067384 
L 51.615842 116.463938 
L 51.696562 120.010155 
L 51.862856 109.872573 
L 52.240896 124.604988 
L 52.396941 113.568786 
L 52.638433 124.496354 
L 52.713202 130.522926 
L 52.78896 130.385464 
L 52.863495 129.996714 
L 52.977944 125.152686 
L 53.021416 118.116938 
L 53.094015 123.148719 
L 53.187408 125.807021 
L 53.262959 123.933171 
L 53.34283 125.451674 
L 53.414195 130.020284 
L 53.641254 117.456357 
L 53.718218 116.624324 
L 53.796597 117.714253 
L 53.887331 115.297791 
L 54.03901 124.370106 
L 54.114124 122.781163 
L 54.276769 117.145977 
L 54.344337 120.217506 
L 54.434796 118.627577 
L 54.676248 129.493225 
L 54.815265 124.87367 
L 54.889506 125.01777 
L 55.040603 121.176431 
L 55.134395 122.319415 
L 55.436042 133.967158 
L 55.593845 131.555206 
L 55.685098 132.413412 
L 55.758119 126.788012 
L 55.834138 128.14249 
L 55.912307 128.813572 
L 56.062528 135.781958 
L 56.213584 139.682242 
L 56.553594 121.499784 
L 56.610246 127.095297 
L 56.74224 125.971309 
L 57.005838 107.21167 
L 57.157422 109.060152 
L 57.465368 129.689555 
L 57.543976 129.339807 
L 57.632658 128.173182 
L 57.783142 124.769804 
L 58.010307 128.007512 
L 58.104595 121.918826 
L 58.356799 107.013889 
L 58.415251 116.674078 
L 58.506727 114.275245 
L 58.565294 114.146171 
L 58.814394 122.468858 
L 58.955684 120.716125 
L 59.126166 123.951287 
L 59.218976 121.249871 
L 59.236643 121.392966 
L 59.39246 135.457345 
L 59.544884 127.676185 
L 59.601602 127.948478 
L 59.753187 120.395992 
L 59.847113 122.881558 
L 59.924729 130.109327 
L 59.997982 127.765502 
L 60.168036 121.484331 
L 60.224721 122.507312 
L 60.281501 128.172908 
L 60.377812 128.116632 
L 60.451849 128.063542 
L 60.508718 127.528993 
L 60.639828 122.53184 
L 60.684549 122.706172 
L 60.791249 124.062544 
L 60.887191 121.931043 
L 60.923863 122.826627 
L 60.981914 125.052178 
L 61.161812 121.000442 
L 61.339188 130.191188 
L 61.47979 123.624904 
L 61.547109 124.199458 
L 61.810877 116.260132 
L 61.924206 104.236991 
L 62.038423 104.97214 
L 62.377059 115.37312 
L 62.472154 124.081231 
L 62.547987 119.515992 
L 62.698732 140.87892 
L 62.792654 139.037157 
L 63.01896 122.34612 
L 63.09498 121.028712 
L 63.170372 116.507464 
L 63.264924 117.550024 
L 63.360565 120.190521 
L 63.566489 115.982184 
L 63.738299 124.906829 
L 63.92513 129.047665 
L 63.962606 126.884326 
L 64.026701 128.225538 
L 64.113182 129.842692 
L 64.264672 117.082337 
L 64.373186 121.72763 
L 64.416709 121.462689 
L 64.826087 113.083461 
L 65.077317 118.132081 
L 65.134537 117.732511 
L 65.284931 121.357639 
L 65.437029 116.67459 
L 65.607309 125.186936 
L 65.682549 123.437435 
L 65.871089 122.263926 
L 65.928806 118.675035 
L 66.211154 123.565968 
L 66.324771 122.743295 
L 66.433118 123.258829 
L 66.456843 122.809898 
L 66.627784 129.179625 
L 66.818956 121.939904 
L 66.858249 124.51984 
L 66.934172 128.787504 
L 67.028307 127.094614 
L 67.095094 128.162245 
L 67.173981 125.917621 
L 67.307203 127.149806 
L 67.411812 114.211001 
L 67.486952 115.415564 
L 67.573141 117.191949 
L 67.708009 116.644993 
L 67.837294 123.494882 
L 67.856755 121.807115 
L 67.925284 118.939339 
L 67.9435 119.071655 
L 68.109394 118.241409 
L 68.307506 125.454229 
L 68.416061 122.62287 
L 68.569539 114.983344 
L 68.645257 115.128257 
L 68.795748 117.146456 
L 68.871791 114.930216 
L 69.192115 129.579966 
L 69.268333 130.129852 
L 69.343407 127.769854 
L 69.456528 129.424905 
L 69.589912 122.069336 
L 69.650793 122.560786 
L 69.896763 117.706624 
L 70.045489 106.867988 
L 70.198464 109.002131 
L 70.310174 117.140187 
L 70.367903 114.503567 
L 70.581293 120.480441 
L 70.6154 115.902623 
L 70.669586 120.509342 
L 70.915318 131.938785 
L 71.010453 130.296701 
L 71.086298 126.069246 
L 71.22183 134.816705 
L 71.312632 132.239669 
L 71.443838 133.286341 
L 71.53929 130.284906 
L 71.557356 122.717968 
L 71.956744 124.552886 
L 72.369136 125.568521 
L 72.809603 120.839373 
L 73.221313 124.130384 
L 73.237996 132.949174 
L 73.331602 129.153207 
L 73.5598 135.546673 
L 73.842549 119.405764 
L 73.86294 122.396562 
L 74.031082 128.871393 
L 74.106769 128.011958 
L 74.373407 119.733764 
L 74.55985 128.435574 
L 74.63574 130.534795 
L 74.889197 122.236064 
L 75.128033 137.379632 
L 75.221923 134.669507 
L 75.279042 129.827943 
L 75.371941 130.065487 
L 75.466161 128.635773 
L 75.674708 132.917278 
L 75.827493 120.515561 
L 75.939491 123.995293 
L 76.05346 131.702433 
L 76.184484 131.195659 
L 76.240965 129.769277 
L 76.492276 134.414317 
L 76.619913 127.355675 
L 76.690797 127.460918 
L 76.879861 133.753414 
L 76.919848 132.103865 
L 77.016423 129.592684 
L 77.144516 123.581113 
L 77.389594 127.497914 
L 77.485918 126.826174 
L 77.635609 117.845201 
L 77.691899 118.923671 
L 77.786108 119.24571 
L 77.861117 117.597044 
L 77.936966 118.119847 
L 78.033383 121.866163 
L 78.181894 133.053519 
L 78.333863 124.399533 
L 78.485127 128.160574 
L 78.636185 137.321077 
L 78.731284 134.449578 
L 78.881662 118.947782 
L 79.033018 131.869373 
L 79.108854 132.001073 
L 79.259566 126.773789 
L 79.390803 126.679873 
L 79.505894 121.673381 
L 79.667155 124.659654 
L 79.675237 125.067049 
L 79.829488 121.478284 
L 79.921459 122.107148 
L 80.008143 121.59641 
L 80.193297 105.34992 
L 80.380455 105.901128 
L 80.569244 110.196571 
L 80.588067 107.032126 
L 80.662943 108.162388 
L 81.059553 128.24477 
L 81.13466 125.62669 
L 81.266406 124.55335 
L 81.385253 119.434635 
L 81.61025 122.767085 
L 81.682614 122.460124 
L 81.91167 112.627696 
L 82.060222 114.545082 
L 82.158587 118.254299 
L 82.457326 110.483682 
L 82.741886 124.42756 
L 82.759836 120.352329 
L 82.872122 115.491017 
L 83.080206 121.544925 
L 83.230941 123.315568 
L 83.345659 116.0755 
L 83.647044 123.4458 
L 83.702972 122.174983 
L 83.874339 120.743027 
L 83.950464 118.742183 
L 84.061848 121.280538 
L 84.194192 129.963967 
L 84.342829 130.928598 
L 84.485783 124.715368 
L 84.576583 127.747741 
L 84.746556 140.476228 
L 84.862104 140.33149 
L 85.030194 124.947514 
L 85.124933 121.27003 
L 85.279848 131.890259 
L 85.352334 127.494321 
L 85.428249 120.567703 
L 85.504932 120.685632 
L 85.825152 138.383919 
L 85.901223 138.117445 
L 86.127602 126.536006 
L 86.203994 130.089746 
L 86.336164 128.531725 
L 86.524523 118.363145 
L 86.668274 118.97183 
L 86.752396 121.425136 
L 86.825909 120.56735 
L 86.84465 119.188208 
L 86.966635 120.386701 
L 87.113491 115.877821 
L 87.22455 123.618625 
L 87.378947 123.320744 
L 87.476333 119.238045 
L 87.658877 131.96794 
L 87.696614 135.690194 
L 87.849354 137.788392 
L 87.893771 142.417071 
L 87.924372 139.936154 
L 88.095016 133.392352 
L 88.234357 142.143898 
L 88.340762 138.320805 
L 88.397626 131.933672 
L 88.539886 132.801361 
L 88.587576 135.522669 
L 88.699289 134.812677 
L 88.717936 132.090263 
L 88.840828 133.005955 
L 89.021961 139.252381 
L 89.096469 139.64377 
L 89.191894 144.956565 
L 89.418321 134.400529 
L 89.493252 138.230839 
L 89.724784 121.981725 
L 89.89372 117.674077 
L 90.044307 109.74619 
L 90.195568 108.987826 
L 90.270757 106.076296 
L 90.517669 120.678133 
L 90.593493 117.16571 
L 90.765124 125.503905 
L 90.916402 128.231364 
L 90.99096 132.559447 
L 91.051061 129.696909 
L 91.445509 122.488048 
L 91.521269 122.969112 
L 91.710582 129.631047 
L 91.844751 121.942172 
L 92.03323 125.358585 
L 92.243581 135.179961 
L 92.371931 128.337258 
L 92.448186 122.960589 
L 92.602824 123.652057 
L 93.018457 111.700504 
L 93.074362 113.978968 
L 93.547069 134.302689 
L 93.627152 134.155597 
L 93.698322 133.309502 
L 93.792839 129.326762 
L 93.942941 128.811804 
L 94.100502 124.039613 
L 94.176847 129.346449 
L 94.254375 120.391071 
L 94.402236 116.736035 
L 94.550106 127.536308 
L 94.795331 119.359405 
L 94.964618 109.226594 
L 95.115893 117.257102 
L 95.304737 112.481366 
L 95.418859 117.844177 
L 95.497464 117.10381 
L 95.712635 124.187591 
L 95.89171 110.71476 
L 95.971585 113.49289 
L 96.042521 113.09182 
L 96.117766 108.71737 
L 96.193779 111.654881 
L 96.365889 109.570638 
L 96.458971 112.340756 
L 96.610785 124.141676 
L 96.912524 133.329175 
L 96.987137 133.320247 
L 97.100553 135.654517 
L 97.156842 139.425462 
L 97.233683 137.719301 
L 97.460331 130.7749 
L 97.54596 130.05144 
L 97.7257 123.370622 
L 97.846049 123.474428 
L 97.993619 116.620875 
L 98.421314 125.562408 
L 98.481778 127.54067 
L 98.558682 121.448239 
L 98.648723 124.939296 
L 98.718971 124.347977 
L 98.730148 123.53672 
L 98.77191 123.605254 
L 98.900341 123.225743 
L 98.94318 126.552364 
L 99.107886 121.208155 
L 99.164209 121.349108 
L 99.315643 119.934012 
L 99.374413 120.870657 
L 99.413209 112.28018 
L 99.47359 117.169376 
L 99.564267 117.697706 
L 99.716867 108.68333 
L 99.866076 114.091269 
L 99.94253 111.905061 
L 99.960912 113.558691 
L 100.113539 118.751694 
L 100.194382 123.099514 
L 100.263305 115.216855 
L 100.338071 115.497226 
L 100.496882 128.571377 
L 100.565855 128.842254 
L 100.652485 123.47505 
L 100.735402 123.521462 
L 100.809906 121.360419 
L 100.88709 121.879619 
L 100.960401 121.667437 
L 101.114171 125.706409 
L 101.356722 111.527988 
L 101.433238 112.555212 
L 101.507946 113.843124 
L 101.660956 109.094864 
L 101.829034 113.201206 
L 101.980567 112.326466 
L 102.207147 122.938552 
L 102.282316 117.430043 
L 102.376858 119.159004 
L 102.528722 124.968854 
L 102.604833 126.454637 
L 102.679388 123.461025 
L 102.833166 127.970604 
L 103.000685 116.885487 
L 103.076183 121.651177 
L 103.2268 110.886874 
L 103.302678 111.843394 
L 103.387482 107.694778 
L 103.530721 114.295765 
L 103.60707 114.020273 
L 103.774689 121.914451 
L 103.853633 118.005913 
L 104.019902 129.86628 
L 104.077984 119.741315 
L 104.160972 120.704116 
L 104.322697 113.025085 
L 104.475981 113.887945 
L 104.569882 112.263331 
L 104.625838 116.359473 
L 104.702007 114.962823 
L 104.797018 109.663271 
L 104.948927 121.649476 
L 105.022717 119.795228 
L 105.09966 120.478431 
L 105.186996 119.061872 
L 105.193187 123.42416 
L 105.250683 122.252675 
L 105.406857 121.252784 
L 105.501245 124.317774 
L 105.648317 126.998967 
L 105.7245 124.974517 
L 105.875356 128.654648 
L 106.065668 121.797459 
L 106.197992 124.382938 
L 106.311464 123.055884 
L 106.348629 125.085702 
L 106.423878 123.636701 
L 106.499939 120.326928 
L 106.5762 120.841212 
L 106.749097 127.37631 
L 106.827211 127.353761 
L 106.905051 125.945425 
L 106.919911 121.155712 
L 106.975899 121.708365 
L 107.166498 119.583609 
L 107.373107 125.971677 
L 107.448602 128.028536 
L 107.467614 121.022574 
L 107.656242 119.584842 
L 107.847983 125.175544 
L 108.131206 114.418779 
L 108.205207 116.145756 
L 108.300873 124.319152 
L 108.395833 123.421175 
L 108.452831 120.754519 
L 108.469942 123.024445 
L 108.54633 127.336734 
L 108.716684 126.173508 
L 108.735065 125.153201 
L 108.847661 126.53745 
L 108.922759 124.280787 
L 108.999127 125.09272 
L 109.074525 116.645921 
L 109.188789 119.686788 
L 109.26439 119.417338 
L 109.359798 115.343432 
L 109.452861 114.171056 
L 109.603934 122.279795 
L 109.67581 122.849569 
L 109.699704 120.828413 
L 109.812014 121.725474 
L 110.094629 130.703301 
L 110.208186 129.377896 
L 110.336629 130.046288 
L 110.613663 122.369965 
L 110.622879 123.117363 
L 110.755435 125.294249 
L 110.832411 121.551805 
L 110.9637 123.858273 
L 110.985652 127.834441 
L 111.039324 122.790567 
L 111.114899 122.575003 
L 111.330388 125.368522 
L 111.351199 127.978848 
L 111.421784 124.984003 
L 111.746442 111.923891 
L 111.816636 116.120893 
L 111.892559 114.160562 
L 112.004171 113.379537 
L 112.192722 107.890275 
L 112.230699 106.061513 
L 112.287047 107.901766 
L 112.385157 109.280762 
L 112.517008 115.707272 
L 112.609351 109.453063 
L 112.666832 113.424114 
L 112.819566 112.299043 
L 112.855802 116.982774 
L 112.986374 111.070346 
L 113.06196 112.499639 
L 113.175455 111.726093 
L 113.255329 112.183551 
L 113.609658 117.850556 
L 113.652557 114.934692 
L 113.782919 123.891284 
L 113.935224 121.135686 
L 114.122664 110.346027 
L 114.313277 114.628423 
L 114.425468 119.274024 
L 114.57606 124.052984 
L 114.821713 134.526516 
L 114.879822 137.107458 
L 114.953985 131.779024 
L 115.048049 131.958278 
L 115.104866 131.834693 
L 115.560941 116.914951 
L 115.652027 115.543171 
L 115.741744 122.38026 
L 115.804628 121.998688 
L 115.878878 119.197338 
L 115.955493 122.399141 
L 116.162015 117.612379 
L 116.200357 122.391349 
L 116.275467 121.311259 
L 116.370424 119.16251 
L 116.445559 124.904469 
L 116.503524 120.98905 
L 116.5977 120.661118 
L 116.675525 122.05531 
L 116.767939 118.707726 
L 117.054159 128.609914 
L 117.136985 128.535807 
L 117.203469 125.705846 
L 117.414503 130.353155 
L 117.448582 130.091055 
L 117.70034 121.241164 
L 117.75027 122.681474 
L 118.071851 133.507557 
L 118.298667 127.379294 
L 118.601237 125.928283 
L 118.6796 114.273544 
L 118.77179 114.806446 
L 118.846745 112.985857 
L 118.932379 113.362141 
L 119.046294 112.400649 
L 119.149765 116.684736 
L 119.319028 111.555574 
L 119.394726 112.481213 
L 119.470962 117.763224 
L 119.546258 115.377232 
L 119.621394 111.609972 
L 120.169366 130.445173 
L 120.244702 123.48739 
L 120.430372 129.011491 
L 120.488881 123.958606 
L 120.56521 125.303895 
L 120.640601 124.194558 
L 120.716092 125.398896 
L 120.795425 124.81427 
L 120.945474 115.156326 
L 121.038205 120.475584 
L 121.1883 115.771159 
L 121.269653 122.061345 
L 121.340681 119.274178 
L 121.415368 118.579529 
L 121.574208 110.383644 
L 121.744817 115.221733 
L 121.855066 113.002594 
L 121.967655 120.454484 
L 122.039989 120.262996 
L 122.117364 121.646407 
L 122.268453 129.696178 
L 122.364446 131.190586 
L 122.440128 130.991632 
L 122.589485 127.593847 
L 122.740514 122.020857 
L 122.822827 121.346152 
L 122.910182 119.159255 
L 122.991656 121.799703 
L 123.179221 116.337158 
L 123.519126 129.199669 
L 123.782203 121.722948 
L 123.850431 122.212263 
L 123.914962 125.797684 
L 124.140876 124.778505 
L 124.178765 125.543259 
L 124.276251 124.185748 
L 124.310455 118.885242 
L 124.388056 119.383303 
L 124.557671 124.627161 
L 124.640641 124.127278 
L 124.784436 120.277299 
L 124.859569 120.22188 
L 125.030361 128.485077 
L 125.141939 130.581121 
L 125.483798 118.61038 
L 125.600557 119.371398 
L 125.635113 120.354268 
L 125.730624 110.923934 
L 125.862313 110.601229 
L 126.012921 118.702513 
L 126.090194 120.103696 
L 126.258321 131.919019 
L 126.409205 129.081632 
L 126.487404 132.369147 
L 126.613976 127.959162 
L 126.659842 129.512085 
L 126.731941 128.793947 
L 126.806399 125.486718 
L 126.882268 126.861223 
L 127.070679 120.35127 
L 127.146136 126.171946 
L 127.260399 120.663058 
L 127.317121 123.896404 
L 127.373467 134.39141 
L 127.430822 128.517845 
L 127.505417 126.682112 
L 127.581548 131.528324 
L 127.677229 126.892004 
L 127.826495 134.935575 
L 127.92157 128.159049 
L 128.072301 138.917322 
L 128.091066 136.620305 
L 128.211024 127.655715 
L 128.317992 131.181906 
L 128.526044 121.665205 
L 128.638322 122.577292 
L 128.676023 128.547144 
L 128.82784 116.543527 
L 128.996552 120.129457 
L 129.091155 116.479007 
L 129.166707 116.607089 
L 129.395383 126.650719 
L 129.470682 126.089945 
L 129.622422 130.647961 
L 129.699655 130.959058 
L 129.810914 130.593744 
L 129.848245 134.901879 
L 130.434293 119.155116 
L 130.474069 122.982092 
L 130.566143 121.511248 
L 130.641904 114.476969 
L 130.717185 119.092171 
L 130.869969 120.095273 
L 130.94132 117.172748 
L 130.955826 117.287412 
L 131.126649 123.724498 
L 131.283085 113.423726 
L 131.415 122.07256 
L 131.527238 119.469726 
L 131.584216 119.74629 
L 131.792176 125.356568 
L 131.905648 122.026353 
L 131.973217 126.176515 
L 132.056903 125.879792 
L 132.133373 121.942619 
L 132.402461 129.893152 
L 132.438858 127.168417 
L 132.511826 126.935447 
L 132.586904 128.254311 
L 132.68156 124.164262 
L 132.859529 130.581749 
L 133.082737 129.324101 
L 133.160672 125.295322 
L 133.24984 128.720229 
L 133.363525 127.855335 
L 133.422212 121.331403 
L 133.548429 122.453231 
L 133.610044 121.838853 
L 133.686421 118.144078 
L 133.768724 118.962009 
L 133.837872 116.924911 
L 133.915384 124.925463 
L 133.988081 121.524905 
L 134.200773 124.444091 
L 134.236252 123.566151 
L 134.311713 123.821604 
L 134.386438 126.416725 
L 134.557066 123.371189 
L 134.63211 124.228539 
L 134.688641 121.24036 
L 134.880234 123.232816 
L 135.030722 122.897813 
L 135.118511 123.188834 
L 135.166439 118.485879 
L 135.237687 121.678947 
L 135.315599 123.182965 
L 135.409625 122.59202 
L 135.550106 115.860275 
L 135.655484 113.295322 
L 135.94549 125.92657 
L 135.959764 121.280382 
L 136.034235 127.343584 
L 136.093605 126.54808 
L 136.263276 132.544013 
L 136.343468 136.036807 
L 136.413164 135.584968 
L 136.488601 134.288882 
L 136.563686 127.947664 
L 136.643566 129.729178 
L 136.73529 133.056499 
L 137.187619 122.861043 
L 137.225062 127.977381 
L 137.281784 121.786697 
L 137.435987 122.905483 
L 137.587435 113.423092 
L 137.738312 120.505326 
L 137.983834 110.375787 
L 138.115575 113.032234 
L 138.229649 110.06109 
L 138.360788 121.733824 
L 138.512073 114.807139 
L 138.700358 124.068236 
L 138.799291 124.394089 
L 138.93072 137.625355 
L 138.982784 133.494403 
L 139.137582 122.903096 
L 139.229093 128.513026 
L 139.318837 126.906003 
L 139.379995 127.505956 
L 139.454706 126.990623 
L 139.813939 119.516923 
L 139.965086 130.547077 
L 140.172914 123.455816 
L 140.271736 124.55549 
L 140.323729 123.373506 
L 140.431598 123.909462 
L 140.533349 119.638124 
L 140.550855 123.045955 
L 140.683039 121.584372 
L 140.721368 114.838558 
L 140.79694 116.621905 
L 140.891484 119.249298 
L 141.041838 116.841759 
L 141.100435 120.104133 
L 141.193044 118.857909 
L 141.34464 125.61464 
L 141.478692 124.404806 
L 141.572621 128.362526 
L 141.589621 122.525054 
L 141.667385 123.713486 
L 141.874251 132.84921 
L 141.949732 134.244931 
L 142.044053 130.496127 
L 142.122258 133.394697 
L 142.194962 131.395593 
L 142.361928 139.688159 
L 142.436833 136.3682 
L 142.663423 126.45858 
L 142.740189 129.146707 
L 142.833473 129.082415 
L 142.895377 124.309207 
L 142.966714 126.431097 
L 143.059169 121.51909 
L 143.228877 121.365747 
L 143.304093 122.953312 
L 143.361626 114.859974 
L 143.458502 115.815926 
L 143.607698 110.071333 
L 143.81593 118.211347 
L 143.91573 114.026427 
L 144.33913 127.624446 
L 144.466889 124.481258 
L 144.481227 122.603086 
L 144.686872 131.519968 
L 144.85728 129.711781 
L 145.047216 125.81819 
L 145.121632 125.707008 
L 145.237521 125.807998 
L 145.541898 106.613483 
L 145.633305 107.837453 
L 145.748008 107.850053 
L 145.784405 106.656626 
L 145.859199 112.164172 
L 145.935669 109.65765 
L 146.029484 105.816162 
L 146.105362 111.05441 
L 146.199742 107.271158 
L 146.352715 114.685877 
L 146.408259 114.672442 
L 146.502589 112.277924 
L 146.56231 114.87368 
L 146.659214 105.766957 
L 146.672169 105.794039 
L 146.805059 109.153452 
L 146.956726 114.422652 
L 147.032654 118.403747 
L 147.108134 117.737161 
L 147.24023 116.2769 
L 147.355322 112.65989 
L 147.450537 114.279493 
L 147.544668 111.653 
L 147.593828 113.221974 
L 147.657037 118.550244 
L 147.845253 109.884132 
L 147.902827 110.799808 
L 147.977942 109.246217 
L 148.130459 118.361897 
L 148.204155 117.964821 
L 148.279608 118.408089 
L 148.354822 122.274389 
L 148.449288 120.609273 
L 148.546168 120.664975 
L 148.60026 125.654489 
L 148.67657 123.968301 
L 148.752927 123.155359 
L 148.829193 123.456042 
L 148.902958 118.970891 
L 148.981497 120.235207 
L 149.055695 121.919881 
L 149.148369 117.608544 
L 149.301217 126.519129 
L 149.374739 121.557248 
L 149.545119 121.181639 
L 149.615334 126.702039 
L 149.796124 127.428314 
L 150.023957 119.312493 
L 150.074428 115.130799 
L 150.153501 116.597536 
L 150.2459 120.083024 
L 150.315187 118.797506 
L 150.384381 118.661125 
L 150.471213 119.412379 
L 150.54695 118.149437 
L 150.675762 119.845714 
L 150.782399 123.116189 
L 150.883889 124.436416 
L 151.016499 118.357521 
L 151.402653 126.207694 
L 151.567466 120.572789 
L 151.669455 121.887814 
L 151.745839 124.615526 
L 151.783026 122.077202 
L 151.879569 121.845049 
L 151.971336 124.790686 
L 152.047932 123.722158 
L 152.141379 121.981272 
L 152.197439 122.383476 
L 152.331738 122.638441 
L 152.444032 115.58514 
L 152.501343 118.332933 
L 152.519584 121.471029 
L 152.57876 121.012802 
L 152.974203 103.16603 
L 153.035822 102.03172 
L 153.126825 105.639334 
L 153.202107 114.987203 
L 153.334357 115.304533 
L 153.468283 111.457863 
L 153.750653 121.35854 
L 153.825643 122.523903 
L 153.901408 125.879679 
L 154.128889 115.831427 
L 154.420326 121.216834 
L 154.6952 103.037157 
L 154.772252 106.490257 
L 154.944204 110.03504 
L 155.060378 111.450061 
L 155.301168 122.6028 
L 155.412912 128.324739 
L 155.545959 126.144865 
L 155.641484 127.014248 
L 155.704657 131.274818 
L 155.772429 127.080163 
L 155.848275 127.128849 
L 156.107921 140.056998 
L 156.188369 138.889193 
L 156.245066 139.920492 
L 156.397092 132.951933 
L 156.60329 136.733206 
L 156.792859 126.725609 
L 157.055564 119.52498 
L 157.095738 127.373049 
L 157.206362 126.751206 
L 157.265267 122.010959 
L 157.341566 124.781538 
L 157.416503 123.337589 
L 157.528225 118.089472 
L 157.568685 118.840736 
L 157.673047 122.741574 
L 157.73002 121.181206 
L 157.825406 120.934025 
L 157.902082 114.058931 
L 158.108701 122.098037 
L 158.145154 121.551976 
L 158.427192 114.963742 
L 158.50469 115.51997 
L 158.67277 122.645115 
L 158.881529 118.249681 
L 159.051672 125.684158 
L 159.146123 124.694909 
L 159.221256 124.729704 
L 159.327029 127.342989 
L 159.448927 120.070502 
L 159.528201 122.323667 
L 159.636939 118.61768 
L 159.694061 112.753012 
L 159.769648 114.468345 
L 159.940862 108.124576 
L 160.248775 118.75841 
L 160.316761 116.3775 
L 160.48943 122.721745 
L 160.562256 123.273815 
L 160.7317 127.274415 
L 160.826542 125.210268 
L 160.86599 127.016281 
L 160.940954 126.652576 
L 161.039336 128.010579 
L 161.075353 130.435587 
L 161.166998 123.460598 
L 161.318013 131.730851 
L 161.412929 126.622334 
L 161.546543 133.979109 
L 161.789855 121.387996 
L 161.86734 122.522706 
L 161.942517 125.493363 
L 162.097538 120.452327 
L 162.186677 123.607524 
L 162.261526 117.334726 
L 162.449892 115.104702 
L 162.600979 120.301359 
L 162.678412 119.034004 
L 162.732406 119.568884 
L 162.808004 127.983273 
L 162.884294 126.978988 
L 162.959097 125.709812 
L 163.038712 130.920481 
L 163.052981 130.037674 
L 163.128769 125.968121 
L 163.205038 126.736635 
L 163.279895 124.618149 
L 163.450664 128.000912 
L 163.564157 127.098953 
L 163.601233 121.226759 
L 163.65834 125.873698 
L 163.788257 127.8098 
L 163.82788 126.061574 
L 163.978789 129.83683 
L 164.038409 126.302212 
L 164.092301 130.256569 
L 164.148876 128.354573 
L 164.230652 123.124118 
L 164.285692 124.055478 
L 164.373179 124.086094 
L 164.591043 114.135476 
L 164.720352 113.299785 
L 164.75986 117.597323 
L 164.854348 116.671888 
L 165.061987 124.76272 
L 165.137176 122.777646 
L 165.515128 134.263174 
L 165.536562 132.74948 
L 165.703448 128.187221 
L 165.779125 129.856788 
L 165.856941 127.80741 
L 165.93314 130.006547 
L 166.465003 116.414579 
L 166.633001 117.844474 
L 166.822798 114.315734 
L 166.859439 114.711496 
L 166.972961 114.964355 
L 167.088326 115.804621 
L 167.257343 111.701554 
L 167.333182 112.39889 
L 167.483679 108.070879 
L 167.558712 108.522058 
L 167.713543 103.120356 
L 167.880559 107.557946 
L 168.032082 116.103613 
L 168.258956 112.043833 
L 168.428238 114.800283 
L 168.503252 113.99321 
L 168.579535 116.669779 
L 168.655774 115.944804 
L 168.731468 116.008876 
L 168.901942 121.395273 
L 168.962878 118.88829 
L 169.281027 128.813817 
L 169.517462 124.063512 
L 169.598042 124.125968 
L 169.754387 121.614062 
L 169.907651 116.949886 
L 169.98601 119.469315 
L 170.453556 110.026989 
L 170.525623 111.420961 
L 170.683244 109.64567 
L 170.755637 111.591623 
L 170.834003 111.310211 
L 170.94166 110.361584 
L 171.077224 119.447504 
L 171.244858 118.404875 
L 171.357863 120.046352 
L 171.397584 119.825716 
L 171.536248 115.369507 
L 171.613573 115.521081 
L 171.720672 119.773976 
L 171.852874 115.034956 
L 172.106688 110.961119 
L 172.326023 121.749748 
L 172.572179 126.087593 
L 172.722996 125.62908 
L 172.874706 129.6482 
L 173.270647 116.591519 
L 173.459325 121.073903 
L 173.648618 117.702769 
L 173.875707 125.739031 
L 174.216373 114.342009 
L 174.441188 123.692434 
L 174.596389 129.315128 
L 174.675519 125.818601 
L 174.837235 131.099265 
L 174.913131 136.992249 
L 175.044923 137.461015 
L 175.215573 131.19595 
L 175.445085 129.804181 
L 175.536813 134.484362 
L 175.762362 129.280628 
L 175.920138 133.285586 
L 175.989866 132.702666 
L 176.118144 133.516132 
L 176.253752 131.391343 
L 176.393732 129.54567 
L 176.480712 123.616514 
L 176.555805 123.314914 
L 176.650404 123.672223 
L 176.763985 122.577529 
L 176.783127 123.076674 
L 177.009776 115.777256 
L 177.104871 117.208025 
L 177.167495 116.023816 
L 177.337297 124.297901 
L 177.412049 126.235345 
L 177.506929 121.104448 
L 177.602326 122.999301 
L 177.657613 121.644264 
L 177.946991 133.753479 
L 178.040898 132.041194 
L 178.135767 132.266804 
L 178.21245 128.960373 
L 178.267359 132.858826 
L 178.34449 129.260957 
L 178.442377 135.024772 
L 178.494306 133.553685 
L 178.590246 136.39332 
L 178.795629 129.955693 
L 179.041934 120.674121 
L 179.117362 121.419286 
L 179.439215 110.49362 
L 179.514762 111.122159 
L 179.753405 117.161125 
L 179.834273 117.558744 
L 179.980626 121.58427 
L 180.150388 127.951197 
L 180.282407 131.239445 
L 180.434815 123.618455 
L 180.641209 129.791755 
L 180.77351 126.816698 
L 180.848778 123.815485 
L 180.980429 123.286054 
L 181.036964 116.962289 
L 181.112876 118.940473 
L 181.303872 122.345355 
L 181.396797 120.36333 
L 181.472501 124.3548 
L 181.547478 122.821651 
L 181.622694 122.64925 
L 181.698542 120.948372 
L 181.776933 126.824762 
L 181.888169 126.441011 
L 182.001842 119.342855 
L 182.095486 119.777176 
L 182.247073 109.325627 
L 182.490061 115.232643 
L 182.610315 111.369003 
L 182.701614 112.141362 
L 182.723334 117.455588 
L 182.850761 118.976062 
L 182.906354 118.670438 
L 183.042331 134.128035 
L 183.09782 130.240326 
L 183.247989 127.355059 
L 183.342139 132.502563 
L 183.611644 123.658053 
L 183.645435 125.382217 
L 183.796616 119.215092 
L 183.949578 121.193451 
L 183.966183 119.273937 
L 184.251564 115.080144 
L 184.329019 115.646284 
L 184.437743 124.025118 
L 184.516671 126.596513 
L 184.741536 121.545792 
L 184.875454 119.868605 
L 184.910648 121.565988 
L 184.96766 119.925675 
L 185.288633 107.723803 
L 185.597914 120.887364 
L 185.684721 117.830718 
L 185.911923 123.649638 
L 185.987356 120.884783 
L 186.085046 123.486484 
L 186.158046 117.507635 
L 186.217556 118.421798 
L 186.386419 114.352333 
L 186.460983 116.466444 
L 186.687392 113.096405 
L 186.726696 109.086423 
L 186.89705 113.454954 
L 186.93385 115.312097 
L 187.008568 113.478709 
L 187.473378 121.51622 
L 187.529163 126.911941 
L 187.556345 123.999307 
L 187.640553 125.248862 
L 187.765324 123.64403 
L 187.859429 126.258901 
L 187.936047 125.754768 
L 188.200084 122.14534 
L 188.258896 118.452921 
L 188.35157 119.269982 
L 188.426934 115.929658 
L 188.485108 116.316854 
L 188.672555 109.201375 
L 188.73001 104.509105 
L 188.804479 105.917471 
L 188.880447 106.622575 
L 189.108136 113.84883 
L 189.131878 113.688594 
L 189.307539 113.284742 
L 189.507404 120.40281 
L 189.785764 122.689662 
L 189.823587 121.517599 
L 190.522943 139.988517 
L 190.617368 139.387801 
L 191.163943 124.807562 
L 191.451519 114.864171 
L 191.525866 119.288412 
L 191.63592 117.196453 
L 191.713972 119.129296 
L 191.790652 114.813626 
L 191.844992 117.078084 
L 192.010984 117.446245 
L 192.017318 116.971926 
L 192.242946 125.511791 
L 192.345 121.246614 
L 192.41604 121.737804 
L 192.507362 123.188205 
L 192.792709 139.17807 
L 192.868462 137.236475 
L 193.057323 130.70085 
L 193.135424 130.109659 
L 193.264489 126.720613 
L 193.415636 120.027251 
L 193.566429 114.320839 
L 193.83134 124.583517 
L 193.887232 122.554369 
L 194.076431 127.130704 
L 194.134806 125.964226 
L 194.327167 129.161485 
L 194.359571 131.201289 
L 194.435376 129.851598 
L 194.52924 129.016869 
L 194.662292 131.649437 
L 194.73758 130.396589 
L 194.813746 130.818265 
L 194.888504 129.924328 
L 194.964092 133.522552 
L 195.134421 129.228568 
L 195.363195 121.922575 
L 195.378923 129.335514 
L 195.492546 125.422097 
L 195.55072 128.649409 
L 195.606491 126.096838 
L 195.681431 129.240014 
L 195.762568 126.388542 
L 195.833266 127.119338 
L 195.985535 121.565845 
L 196.157558 124.474073 
L 196.456665 111.698084 
L 196.530665 112.090288 
L 196.844591 120.376753 
L 196.996568 119.628336 
L 197.085041 123.640872 
L 197.164031 124.743533 
L 197.315293 131.48777 
L 197.439048 127.568244 
L 197.485002 130.088364 
L 197.636972 124.981023 
L 197.7333 125.549519 
L 197.996438 114.739119 
L 198.017019 116.214127 
L 198.244975 109.375122 
L 198.318645 109.907185 
L 198.705537 103.764273 
L 198.730968 106.194066 
L 198.810663 104.013429 
L 199.066215 115.643701 
L 199.271781 110.038288 
L 199.346717 116.520303 
L 199.502402 113.157964 
L 199.592415 114.566293 
L 199.652249 107.709361 
L 199.743079 108.856301 
L 199.819466 105.774515 
L 200.44349 133.007627 
L 200.517431 132.665155 
L 200.592679 131.826675 
L 200.820083 124.354504 
L 201.215373 114.240628 
L 201.296192 115.130772 
L 201.451313 119.886228 
L 201.693568 113.976441 
L 201.766765 116.151205 
L 201.917821 110.519086 
L 202.070788 112.298188 
L 202.146247 106.388894 
L 202.314602 109.369173 
L 202.391077 109.241516 
L 202.466795 107.742082 
L 202.542162 107.754797 
L 202.698067 119.151947 
L 202.777086 118.693991 
L 202.86221 117.204677 
L 203.08903 122.371676 
L 203.240178 129.601991 
L 203.258953 132.491455 
L 203.319962 127.279734 
L 203.410799 124.712542 
L 203.512061 125.259986 
L 203.560918 125.156274 
L 203.636735 127.411915 
L 203.712268 126.968551 
L 203.792068 126.727411 
L 203.941982 123.822825 
L 204.035175 122.639488 
L 204.184506 125.512719 
L 204.580587 112.651682 
L 204.642015 113.013184 
L 204.827355 107.732826 
L 204.883722 109.738915 
L 205.033795 100.91919 
L 205.195086 109.390029 
L 205.278883 106.388527 
L 205.367185 106.8996 
L 205.436171 107.55533 
L 205.524285 111.971236 
L 205.618938 108.736164 
L 205.833089 116.766071 
L 205.978755 113.92518 
L 206.092472 115.808382 
L 206.148947 118.681495 
L 206.228152 116.072554 
L 206.491572 122.414203 
L 206.602957 118.970636 
L 206.905153 114.151037 
L 207.003886 120.823858 
L 207.152431 116.055769 
L 207.324257 120.634833 
L 207.384244 120.214552 
L 207.558119 119.046999 
L 207.623705 119.773505 
L 207.808997 118.50588 
L 207.865754 121.194349 
L 208.076339 111.526249 
L 208.170485 117.929245 
L 208.243557 116.326654 
L 208.319146 117.022728 
L 208.394729 116.985171 
L 208.491241 115.266382 
L 208.621962 108.886203 
L 208.734947 110.109775 
L 208.790969 109.78664 
L 208.92382 109.79288 
L 209.000484 105.799984 
L 209.113223 113.166669 
L 209.282296 116.838171 
L 209.349464 127.544302 
L 209.433922 125.521236 
L 209.567872 130.15355 
L 209.660337 135.736165 
L 209.973943 130.823073 
L 210.171983 129.58723 
L 210.215711 130.450463 
L 210.493856 115.479345 
L 210.531454 121.643078 
L 210.607557 119.530943 
L 210.683908 120.322565 
L 210.899218 113.921286 
L 211.04833 116.944735 
L 211.132919 116.738927 
L 211.215978 124.291607 
L 211.29534 123.819807 
L 211.369116 124.977132 
L 211.443122 123.386267 
L 211.518765 125.187552 
L 211.631397 121.300943 
L 211.744588 128.006164 
L 211.82056 125.427517 
L 211.877698 127.548438 
L 211.914614 124.318662 
L 212.048775 124.415769 
L 212.160905 117.909795 
L 212.311068 119.629202 
L 212.386699 120.329606 
L 212.538213 115.940628 
L 212.61448 117.281846 
L 212.765278 117.464737 
L 212.821252 116.737921 
L 212.886024 117.373473 
L 212.935225 122.13055 
L 213.209402 117.644756 
L 213.24118 119.807232 
L 213.336056 119.63032 
L 213.448495 120.062549 
L 213.543456 121.70484 
L 213.638583 122.439705 
L 213.732198 116.866866 
L 213.790861 123.779275 
L 213.864763 123.293632 
L 214.262818 117.437004 
L 214.337992 119.171403 
L 214.433065 117.19919 
L 214.508453 123.494915 
L 214.639384 110.641913 
L 214.753401 107.063851 
L 214.81216 109.578697 
L 214.901551 108.866932 
L 214.961184 110.43462 
L 215.111847 101.621045 
L 215.187632 108.675774 
L 215.263129 104.513119 
L 215.508793 115.587449 
L 215.606886 113.562879 
L 215.663843 113.97548 
L 215.820835 112.68133 
L 215.980162 116.818217 
L 216.132238 110.833655 
L 216.339838 103.343945 
L 216.528983 116.027007 
L 216.624235 115.994405 
L 216.679728 119.276847 
L 216.925435 113.354597 
L 216.985 116.290743 
L 217.152674 112.029338 
L 217.360752 108.760753 
L 217.625445 113.251124 
L 217.721072 115.932128 
L 218.002027 109.709824 
L 218.07848 110.408397 
L 218.17232 110.345353 
L 218.268409 111.000474 
L 218.323127 108.340192 
L 218.398078 109.8488 
L 218.626142 117.810372 
L 218.682194 116.062824 
L 218.775887 112.517591 
L 218.927785 115.234979 
L 219.024087 109.743758 
L 219.099279 114.237741 
L 219.172805 114.067816 
L 219.361638 109.194446 
L 219.664114 121.131996 
L 219.855218 125.715901 
L 219.889539 123.752774 
L 219.964916 124.012669 
L 220.059374 126.078209 
L 220.119894 131.516909 
L 220.26032 131.773118 
L 220.458051 118.164537 
L 220.515936 119.929732 
L 220.591516 116.569558 
L 220.666952 119.627944 
L 220.893554 107.186619 
L 220.971633 107.612379 
L 221.12124 113.517344 
L 221.203726 111.037386 
L 221.310626 110.088383 
L 221.669808 120.074539 
L 221.746073 115.090582 
L 221.989971 124.356651 
L 222.065824 123.321284 
L 222.141007 126.912634 
L 222.373869 117.254442 
L 222.46353 117.502012 
L 222.563876 119.13648 
L 222.630861 117.604247 
L 222.687842 123.823368 
L 222.839616 123.524412 
L 222.857278 126.810706 
L 222.933303 120.799185 
L 223.028075 123.261791 
L 223.141915 121.931472 
L 223.234879 125.140549 
L 223.352134 124.915799 
L 223.80725 112.002414 
L 224.093137 119.864958 
L 224.106711 117.114089 
L 224.181696 117.319926 
L 224.332985 119.695158 
L 224.672429 132.944726 
L 224.750136 128.155996 
L 224.81005 131.113886 
L 224.939345 133.943207 
L 225.01466 131.511574 
L 225.033324 131.883149 
L 225.107986 132.478833 
L 225.315938 124.08443 
L 225.33496 118.926339 
L 225.428587 120.484737 
L 225.504978 124.198935 
L 225.582209 122.648509 
L 225.65612 122.469193 
L 225.828983 125.06859 
L 225.881408 119.6255 
L 226.146578 128.360722 
L 226.296973 117.683295 
L 226.361835 117.430882 
L 226.602183 111.019098 
L 226.750632 120.725755 
L 226.863679 117.497113 
L 226.931244 117.576379 
L 227.071776 128.033899 
L 227.147558 127.436076 
L 227.374811 132.380043 
L 227.524198 122.513245 
L 227.694059 126.277318 
L 227.845681 120.689353 
L 227.921494 121.928233 
L 227.996351 120.874274 
L 228.094125 121.422399 
L 228.24336 121.603283 
L 228.279954 123.81985 
L 228.319462 123.30736 
L 228.393847 118.725292 
L 228.48916 119.943008 
L 228.733896 114.666586 
L 228.790945 116.772517 
L 228.940044 110.286158 
L 229.225349 115.604103 
L 229.261375 112.546329 
L 229.488348 123.26542 
L 229.563946 120.426028 
L 229.658569 125.712134 
L 229.7997 121.426505 
L 229.865232 122.413542 
L 230.025175 121.063019 
L 230.18622 116.822986 
L 230.318249 115.983297 
L 230.489724 121.570408 
L 230.567615 121.931097 
L 230.898859 133.520961 
L 230.999609 132.082165 
L 231.206797 123.68173 
L 231.358161 130.683184 
L 231.50914 122.169557 
L 231.603426 120.018598 
L 231.735509 119.607346 
L 231.797869 120.509514 
L 231.981986 126.143041 
L 232.364622 118.555984 
L 232.454021 118.920843 
L 232.529275 120.323536 
L 232.605774 115.718041 
L 232.725207 117.052498 
L 232.77474 116.480912 
L 232.852596 115.761267 
L 233.002071 118.091977 
L 233.133029 115.367361 
L 233.24739 122.331789 
L 233.45572 119.634393 
L 233.549221 119.470208 
L 233.62521 116.322781 
L 233.719527 117.570807 
L 233.7787 117.012071 
L 234.002657 114.960764 
L 234.040514 110.873545 
L 234.117791 113.528371 
L 234.158853 112.46477 
L 234.249014 112.531265 
L 234.325598 111.809316 
L 234.801853 132.40524 
L 234.895018 130.75837 
L 234.951275 133.546564 
L 235.100581 134.121722 
L 235.188651 126.954512 
L 235.499606 110.982367 
L 235.585455 112.002259 
L 235.655995 114.587324 
L 235.902878 108.316834 
L 235.959886 111.165749 
L 236.061661 107.105763 
L 236.129493 108.253994 
L 236.204636 106.328076 
L 236.279143 107.426113 
L 236.486968 100.107723 
L 236.505621 102.980921 
L 236.600271 105.433489 
L 236.675853 113.912083 
L 236.734126 111.819199 
L 236.827303 113.864298 
L 236.984832 120.197632 
L 237.060944 116.356248 
L 237.129808 117.923076 
L 237.290492 121.667598 
L 237.481354 117.393459 
L 237.585876 120.130875 
L 237.622928 124.314905 
L 237.775137 120.891056 
L 237.944808 122.991201 
L 238.001622 123.1791 
L 238.020892 124.67527 
L 238.078656 121.125838 
L 238.154167 126.238405 
L 238.231949 124.595307 
L 238.304106 123.770921 
L 238.701568 109.926894 
L 238.77995 110.941404 
L 238.854816 113.687563 
L 238.936365 108.107999 
L 239.005545 111.146272 
L 239.157126 108.301659 
L 239.241563 104.608879 
L 239.326513 113.592622 
L 239.479308 123.020143 
L 239.554646 124.545841 
L 239.629523 116.350402 
L 239.748609 119.089646 
L 239.800554 113.868103 
L 239.894574 115.352962 
L 240.121103 129.664914 
L 240.224435 129.179219 
L 240.332435 123.823776 
L 240.562893 133.449938 
L 240.731322 132.986349 
L 240.958642 123.825241 
L 241.203431 130.325631 
L 241.358278 127.991184 
L 241.505428 119.919523 
L 241.601307 122.130561 
L 241.656821 120.021352 
L 241.753102 121.38564 
L 241.827468 120.557352 
L 242.058371 126.221986 
L 242.12968 123.933964 
L 242.204508 129.416903 
L 242.546028 120.037412 
L 242.667818 118.869465 
L 242.984728 107.973313 
L 243.094052 108.032244 
L 243.547199 121.11246 
L 243.604786 120.214016 
L 243.787235 124.120959 
L 243.962789 129.84503 
L 244.002877 129.297957 
L 244.160205 123.828352 
L 244.402573 128.153985 
L 244.625379 119.811414 
L 244.702311 122.056071 
L 244.818189 122.162654 
L 244.876661 127.050085 
L 244.958259 125.222938 
L 245.059497 122.98709 
L 245.097247 118.414572 
L 245.174875 118.435224 
L 245.265882 120.579553 
L 245.323017 119.49847 
L 245.415546 119.637619 
L 245.662008 107.857391 
L 245.868295 106.205562 
L 245.889448 112.071296 
L 245.964678 111.133476 
L 246.114201 117.213599 
L 246.20818 117.11564 
L 246.36005 120.259002 
L 246.62451 127.409607 
L 246.662181 127.578027 
L 246.737668 126.985549 
L 246.831898 121.283554 
L 246.890031 121.459405 
L 247.115528 123.493839 
L 247.285773 126.168319 
L 247.439283 123.944656 
L 247.626251 125.663936 
L 247.723231 122.586284 
L 247.75817 122.929944 
L 247.871783 122.108058 
L 247.988749 119.112675 
L 248.065414 119.937432 
L 248.196949 124.511152 
L 248.215935 119.551421 
L 248.31275 122.706945 
L 248.460796 125.488104 
L 248.612618 122.047254 
L 248.801113 128.35634 
L 249.008503 122.444 
L 249.166777 124.542996 
L 249.236246 124.31953 
L 249.404885 127.750168 
L 249.464742 127.424889 
L 249.558279 119.884681 
L 249.631237 121.914065 
L 249.860441 116.448908 
L 249.972748 106.794023 
L 250.08594 110.350115 
L 250.206876 107.709429 
L 250.490793 123.865388 
L 250.736221 130.124127 
L 250.871015 120.11911 
L 250.951349 119.198367 
L 251.188873 109.243786 
L 251.292122 105.558158 
L 251.340372 106.62291 
L 251.441458 108.242286 
L 251.73908 118.706965 
L 252.041059 109.361336 
L 252.210944 111.020498 
L 252.28687 110.715833 
L 252.362329 115.212941 
L 252.438355 114.988165 
L 252.513391 109.786851 
L 252.817842 129.388348 
L 252.834272 132.305052 
L 252.959158 131.432398 
L 252.987208 133.449478 
L 253.275527 121.545015 
L 253.288705 123.919587 
L 253.31002 127.93512 
L 253.460652 128.089921 
L 253.535498 127.109663 
L 253.802049 115.212272 
L 253.856532 116.098188 
L 254.119965 129.306662 
L 254.365809 120.697172 
L 254.461851 118.983945 
L 254.630019 122.363753 
L 254.724459 121.604959 
L 254.857186 117.262119 
L 255.101798 125.981563 
L 255.392096 130.912783 
L 255.404527 130.86441 
L 255.481256 126.006741 
L 255.557586 129.262198 
L 255.574227 122.416062 
L 255.63141 127.31933 
L 255.801419 117.905577 
L 255.877463 118.015288 
L 255.970791 118.591881 
L 256.102909 127.734157 
L 256.198361 124.74612 
L 256.347996 125.920337 
L 256.392609 131.277337 
L 256.424585 126.372491 
L 256.518669 129.349062 
L 256.578349 136.007448 
L 256.82067 126.693936 
L 256.895485 123.411486 
L 256.971452 124.523299 
L 257.047919 129.693016 
L 257.141922 122.640981 
L 257.199793 123.282152 
L 257.273039 123.042881 
L 257.394432 119.784942 
L 257.53486 127.594732 
L 257.541869 123.293026 
L 257.598207 122.827526 
L 257.676802 123.263816 
L 257.74942 122.564351 
L 257.826722 116.989966 
L 257.902066 122.27 
L 257.978385 120.961023 
L 258.100474 118.336602 
L 258.135136 122.62537 
L 258.207659 119.839671 
L 258.299431 120.584965 
L 258.471304 122.992029 
L 258.527567 123.075138 
L 258.603456 126.249391 
L 258.697269 124.889199 
L 258.904705 127.776398 
L 259.018094 120.343702 
L 259.099152 120.47709 
L 259.247525 115.432533 
L 259.302226 116.838857 
L 259.377467 116.356007 
L 259.622712 120.191579 
L 260.021105 133.995251 
L 260.09598 136.83853 
L 260.321239 125.801932 
L 260.415667 128.841689 
L 260.623103 120.840778 
L 260.740577 118.704462 
L 260.909739 112.042438 
L 261.255474 120.814128 
L 261.365473 121.226947 
L 261.45727 118.913989 
L 261.589482 125.657102 
L 261.646029 124.845331 
L 261.797235 132.841938 
L 262.004508 127.088367 
L 262.042059 128.739486 
L 262.271294 121.863735 
L 262.363688 122.298308 
L 262.589943 120.657313 
L 262.835378 128.02175 
L 262.93063 126.25487 
L 262.98832 123.053449 
L 263.063086 128.375517 
L 263.137952 127.784791 
L 263.213827 131.25163 
L 263.616036 116.168125 
L 263.673589 116.464623 
L 263.839426 121.509161 
L 264.03874 118.315949 
L 264.227155 123.361612 
L 264.376767 121.077191 
L 264.473319 123.9588 
L 264.546906 120.708298 
L 264.706246 121.806188 
L 264.780092 117.651215 
L 264.909219 119.588729 
L 264.999951 111.660087 
L 265.341639 121.817559 
L 265.398855 116.047872 
L 265.551644 127.132939 
L 265.681252 119.722734 
L 265.832341 128.03797 
L 266.097007 116.619601 
L 266.175931 117.81961 
L 266.28116 109.664347 
L 266.326773 110.847525 
L 266.418277 114.287402 
L 266.49573 110.153368 
L 266.815727 121.78079 
L 266.984771 118.068292 
L 267.049703 122.262629 
L 267.197618 116.181593 
L 267.307123 117.054268 
L 267.426712 107.988208 
L 267.5389 107.273286 
L 267.59023 104.254907 
L 267.665074 106.750475 
L 267.740312 106.089145 
L 267.816244 105.652347 
L 268.137704 119.678245 
L 268.534597 126.058359 
L 268.551909 127.310745 
L 268.609665 124.327181 
L 268.760175 116.162096 
L 268.835543 116.433259 
L 268.930668 116.140244 
L 268.987084 116.846291 
L 269.232285 125.972588 
L 269.382496 122.731835 
L 269.534407 131.303187 
L 269.854765 122.745344 
L 270.107673 113.639762 
L 270.212896 114.431924 
L 270.309471 106.945735 
L 270.477507 111.963062 
L 270.554907 111.084791 
L 270.628695 106.054182 
L 270.709268 109.669754 
L 270.800747 108.5333 
L 270.878659 109.666566 
L 271.030674 118.195247 
L 271.313353 111.93335 
L 271.36959 112.405514 
L 271.521078 115.738032 
L 271.561522 111.268236 
L 271.654761 113.428206 
L 271.735777 113.052251 
L 271.880719 114.248686 
L 271.95621 119.042648 
L 272.108147 120.785713 
L 272.202074 125.459766 
L 272.334336 125.552235 
L 272.409467 131.326111 
L 272.447234 130.276833 
L 272.561041 131.200651 
L 272.582245 127.431663 
L 272.655663 129.248397 
L 272.737015 129.228205 
L 272.900705 125.553489 
L 272.976284 126.45347 
L 273.051758 126.318506 
L 273.128823 125.895086 
L 273.204624 128.930891 
L 273.298822 127.961134 
L 273.355355 128.858495 
L 273.541391 123.356422 
L 273.679019 129.451735 
L 274.050311 120.18035 
L 274.088079 120.415907 
L 274.167683 113.549045 
L 274.239034 115.413985 
L 274.296272 115.476704 
L 274.371296 114.149463 
L 274.469279 109.799996 
L 274.548724 110.354803 
L 274.616339 110.771072 
L 274.74946 110.319705 
L 274.768495 110.927139 
L 274.848042 108.160014 
L 275.240712 118.107646 
L 275.316139 114.961116 
L 275.806618 130.009836 
L 275.902462 124.873304 
L 275.938705 125.762777 
L 276.047277 125.962909 
L 276.171634 128.763632 
L 276.33129 125.693432 
L 276.348228 128.562516 
L 276.412173 126.747711 
L 276.486692 131.162732 
L 276.568802 129.440098 
L 276.635791 132.061931 
L 276.730817 128.005946 
L 276.787755 128.343427 
L 276.900269 125.994923 
L 276.975574 121.801835 
L 277.03399 125.743927 
L 277.428832 112.041161 
L 277.505372 113.114582 
L 277.579481 109.77948 
L 277.957603 124.480962 
L 278.054278 122.282526 
L 278.127835 122.225451 
L 278.278074 124.491896 
L 278.523346 121.27915 
L 278.600329 118.582813 
L 278.675149 119.813182 
L 278.825873 121.999349 
L 278.901096 121.397296 
L 278.983856 119.826624 
L 279.052935 121.683559 
L 279.149967 121.20708 
L 279.222035 124.441949 
L 279.449306 118.603283 
L 279.524331 117.549623 
L 279.605554 121.213979 
L 279.679346 120.357424 
L 279.751886 119.118638 
L 279.846841 120.924797 
L 279.921074 125.842776 
L 279.995919 122.431474 
L 280.07178 125.341118 
L 280.149025 125.078386 
L 280.234301 122.754504 
L 280.299373 123.367336 
L 280.393091 121.886824 
L 280.546392 126.626002 
L 280.695585 119.921997 
L 280.84862 125.033247 
L 281.018834 121.706715 
L 281.418135 119.293497 
L 281.584291 111.712617 
L 281.624589 109.662343 
L 281.716532 110.670436 
L 281.81224 107.441627 
L 281.869288 107.896321 
L 282.065936 104.493678 
L 282.265609 110.098801 
L 282.341856 114.053924 
L 282.416278 111.014003 
L 282.491336 111.037319 
L 282.580159 111.129347 
L 282.586988 109.097997 
L 282.643771 113.557272 
L 282.66148 122.795076 
L 282.855706 114.018371 
L 282.927121 111.660934 
L 282.963826 113.60643 
L 283.208321 116.941452 
L 283.266022 116.704186 
L 283.35512 117.282599 
L 283.43594 111.305195 
L 283.510647 116.888194 
L 283.605703 116.626405 
L 283.662345 117.629036 
L 283.739219 117.307229 
L 283.927507 115.046272 
L 284.361753 142.287448 
L 284.549108 143.990874 
L 284.606162 141.235428 
L 284.74103 140.423662 
L 284.843508 127.363236 
L 285.293348 103.182935 
L 285.329044 104.628123 
L 285.779759 115.103782 
L 285.881229 111.887659 
L 286.04519 117.900931 
L 286.081009 115.185277 
L 286.214239 117.103444 
L 286.234038 119.499195 
L 286.346505 119.178447 
L 286.402149 116.539541 
L 286.477332 116.915028 
L 286.723385 129.10814 
L 286.799077 126.955239 
L 286.950464 132.162229 
L 287.422206 105.130688 
L 287.555205 105.315057 
L 287.63187 110.322403 
L 287.74467 101.270779 
L 287.81916 103.894069 
L 288.29057 127.875596 
L 288.310542 126.878215 
L 288.404826 125.911663 
L 288.500542 135.261523 
L 288.593337 140.72502 
L 288.744692 136.768953 
L 288.876599 136.282735 
L 288.914811 138.855816 
L 288.971774 135.674394 
L 289.046619 130.219163 
L 289.140984 130.923882 
L 289.44377 124.796925 
L 289.539299 128.811955 
L 289.601432 127.180215 
L 289.700305 128.204151 
L 289.790097 127.138853 
L 289.899722 131.097382 
L 289.919532 128.156727 
L 290.164649 120.663405 
L 290.276891 121.412639 
L 290.563373 114.32036 
L 290.673577 114.485751 
L 290.844943 119.580598 
L 290.919657 119.962763 
L 291.014998 119.425411 
L 291.089754 118.051221 
L 291.165394 118.263771 
L 291.24139 118.745893 
L 291.543173 128.133874 
L 291.789529 131.525927 
L 291.940728 131.481247 
L 292.015548 130.644501 
L 292.092111 133.204559 
L 292.489656 125.175815 
L 292.560673 125.071883 
L 292.639191 123.015033 
L 292.729465 125.583011 
L 292.804467 124.541283 
L 292.880211 121.661917 
L 292.95516 124.292095 
L 293.031934 119.613223 
L 293.105938 124.927993 
L 293.351114 115.78809 
L 293.50223 117.893709 
L 293.580557 112.577729 
L 293.652846 114.109712 
L 293.805661 118.733683 
L 293.884026 116.260616 
L 293.975389 117.561002 
L 294.050411 121.341205 
L 294.125242 121.321848 
L 294.276515 118.368205 
L 294.354672 122.562091 
L 294.52225 115.905717 
L 294.74913 121.711555 
L 294.833015 121.644199 
L 294.902486 124.389072 
L 295.095484 122.496064 
L 295.145265 122.498996 
L 295.223625 122.197519 
L 295.447749 125.045071 
L 295.52466 124.336534 
L 295.54259 113.402316 
L 295.618097 120.42435 
L 295.71206 118.363811 
L 295.769191 120.59265 
L 295.844672 119.905002 
L 295.959528 121.780412 
L 295.995799 120.934105 
L 296.0748 121.230818 
L 296.374203 112.991321 
L 296.430125 114.340835 
L 296.486189 117.679121 
L 296.581706 116.924238 
L 296.637399 117.146811 
L 296.846542 108.858607 
L 296.944311 109.597378 
L 297.091465 113.042597 
L 297.197868 113.881354 
L 297.242219 112.774974 
L 297.724056 132.643896 
L 297.799 131.314628 
L 298.026754 123.320365 
L 298.271942 119.04567 
L 298.497947 123.893082 
L 298.592944 129.876114 
L 298.649172 140.991044 
L 298.742855 140.499751 
L 298.931385 138.430302 
L 299.139532 143.808381 
L 299.234325 144.982126 
L 299.443286 125.218835 
L 299.668637 131.613864 
L 299.782126 130.133508 
L 299.838513 132.75598 
L 300.01065 128.163882 
L 300.223457 135.781538 
L 300.300411 129.720773 
L 300.414269 131.615025 
L 300.531399 128.198193 
L 300.608457 114.981826 
L 300.696565 116.013595 
L 300.850576 120.947399 
L 300.92379 121.063755 
L 301.038642 120.001476 
L 301.116781 125.838889 
L 301.169986 123.410287 
L 301.226369 122.536308 
L 301.547548 130.138578 
L 301.869254 114.275924 
L 301.94591 117.626607 
L 302.021451 113.84121 
L 302.137424 114.110472 
L 302.267007 110.151401 
L 302.475274 114.944577 
L 302.607967 114.273646 
L 302.65594 111.600288 
L 302.780238 113.576608 
L 302.950184 119.891238 
L 303.03068 120.71621 
L 303.174713 116.168897 
L 303.19353 118.829119 
L 303.325488 115.668854 
L 303.373689 122.797337 
L 303.420177 122.146007 
L 303.666964 115.812548 
L 303.763201 119.739716 
L 303.818775 116.464878 
L 303.884474 121.073309 
L 303.972749 120.039616 
L 304.127456 124.718047 
L 304.158018 117.599204 
L 304.215407 118.94598 
L 304.313542 120.974136 
L 304.369357 120.169877 
L 304.442208 119.032297 
L 304.525078 113.784458 
L 304.594489 116.064217 
L 304.850715 108.709327 
L 304.994791 115.617699 
L 305.06937 109.87259 
L 305.408454 126.055866 
L 305.445577 124.183872 
L 305.635572 127.003899 
L 305.691118 121.710501 
L 305.786565 122.428472 
L 305.995469 125.268448 
L 306.128858 117.892968 
L 306.165483 119.177597 
L 306.336619 121.647553 
L 306.410262 120.39117 
L 306.546104 124.948519 
L 306.636135 127.940548 
L 306.866166 121.091773 
L 306.920209 125.890166 
L 306.957786 121.861541 
L 307.070759 124.708947 
L 307.165268 121.937402 
L 307.244822 121.437309 
L 307.317981 117.869336 
L 307.393136 118.297253 
L 307.410978 120.229055 
L 307.486879 119.199966 
L 307.732863 120.182916 
L 307.808897 116.788329 
L 307.865047 118.493451 
L 308.114231 126.293523 
L 308.20635 119.912152 
L 308.286371 120.161091 
L 308.378012 119.688152 
L 308.546116 120.611207 
L 308.676522 122.215482 
L 308.771285 126.232556 
L 308.846795 125.532762 
L 309.00029 123.143114 
L 309.01813 128.33875 
L 309.098093 126.292859 
L 309.174437 125.559107 
L 309.187205 118.964427 
L 309.299934 118.164731 
L 309.356251 119.974466 
L 309.432857 119.146835 
L 309.535358 118.605586 
L 309.589664 122.252913 
L 309.664053 121.138263 
L 309.754108 118.834376 
L 309.980793 125.156831 
L 310.150375 133.156895 
L 310.296028 132.749724 
L 310.304328 138.792346 
L 310.377199 135.228731 
L 310.452389 133.623191 
L 310.572244 134.229266 
L 310.606266 129.950777 
L 310.67967 131.184461 
L 310.754675 132.61068 
L 311.00265 124.827355 
L 311.075577 124.719628 
L 311.151601 123.217068 
L 311.226898 124.719095 
L 311.305526 121.892781 
L 311.379437 126.389562 
L 311.454565 124.773906 
L 311.551189 125.518695 
L 311.698878 124.313748 
L 311.760585 128.162046 
L 311.774733 123.673353 
L 311.945058 109.011657 
L 312.095529 111.888563 
L 312.19007 115.94018 
L 312.247056 115.377121 
L 312.324954 116.753781 
L 312.472772 116.24356 
L 312.492155 113.567758 
L 312.720813 124.961081 
L 312.800056 125.713497 
L 312.875448 127.789934 
L 312.97362 125.140909 
L 313.330626 133.890016 
L 313.480175 134.817589 
L 313.726986 127.929695 
L 313.785447 127.159578 
L 313.840772 127.689795 
L 313.917781 127.625648 
L 314.092516 121.18629 
L 314.18067 121.071615 
L 314.199833 116.318355 
L 314.446044 121.678323 
L 314.710955 108.346376 
L 314.809748 108.832333 
L 314.888741 108.7395 
L 314.90796 107.702678 
L 315.017048 110.480014 
L 315.073646 108.559025 
L 315.130558 109.205141 
L 315.291859 107.708126 
L 315.540351 116.647313 
L 315.682778 113.964568 
L 315.794626 113.237381 
L 315.944448 119.438845 
L 316.170952 113.57333 
L 316.246891 113.452873 
L 316.323932 108.917682 
L 316.474027 120.05968 
L 316.833301 125.446576 
L 316.871849 127.399417 
L 317.079323 128.884066 
L 317.11887 132.437974 
L 317.248994 123.24252 
L 317.439348 122.503885 
L 317.645073 117.897678 
L 317.796985 122.958389 
L 317.871797 122.312117 
L 317.946872 123.008494 
L 318.02278 126.25624 
L 318.099361 125.575902 
L 318.210844 120.905738 
L 318.267221 122.706398 
L 318.520344 115.823457 
L 318.601597 118.624163 
L 318.608589 115.006104 
L 318.665275 116.973179 
L 318.726866 119.611296 
L 318.816626 112.896537 
L 318.934891 112.686524 
L 319.196835 124.156436 
L 319.269388 121.089893 
L 319.344233 115.377741 
L 319.476896 116.368805 
L 319.53579 115.510193 
L 319.610823 125.108861 
L 319.665233 124.695692 
L 319.873047 118.547509 
L 319.892286 123.618127 
L 319.970492 116.928151 
L 320.081136 118.558324 
L 320.222895 123.144533 
L 320.295196 123.0503 
L 320.378218 114.624725 
L 320.440878 119.532346 
L 320.629713 125.410299 
L 320.687643 124.686928 
L 320.836886 131.099258 
L 321.063524 127.594582 
L 321.138999 132.881579 
L 321.309398 127.172987 
L 321.376071 127.47257 
L 321.478565 127.203984 
L 321.648515 119.801064 
L 321.70577 119.568944 
L 321.893927 120.722234 
L 322.082506 109.520797 
L 322.253417 105.471294 
L 322.404451 109.800077 
L 322.479847 109.123802 
L 322.895385 122.324895 
L 322.952645 125.82891 
L 323.086907 125.9066 
L 323.23897 122.47336 
L 323.348681 118.547686 
L 323.472055 118.657388 
L 323.501537 119.875787 
L 323.557882 119.120505 
L 323.651184 118.64092 
L 323.745461 112.516088 
L 323.802084 114.189955 
L 324.18065 119.498691 
L 324.3885 121.232844 
L 324.465641 118.377965 
L 324.505604 121.379052 
L 324.633945 121.527077 
L 324.690387 119.9628 
L 324.843711 122.944363 
L 325.049423 119.450662 
L 325.164194 120.077316 
L 325.201484 123.775076 
L 325.276624 122.311552 
L 325.389381 121.970806 
L 325.445735 124.293953 
L 325.542056 122.971598 
L 325.596661 123.932028 
L 325.691471 123.426131 
L 325.825001 116.636447 
L 325.842046 118.67827 
L 325.922738 117.887342 
L 326.032893 118.294664 
L 326.181985 123.969753 
L 326.389883 116.269942 
L 326.617288 129.357935 
L 326.843226 131.527425 
L 326.921581 129.520245 
L 327.001892 134.518545 
L 327.08882 132.895536 
L 327.164441 134.448353 
L 327.241097 129.271836 
L 327.32531 130.660751 
L 327.466254 132.334364 
L 327.560182 130.913009 
L 327.65567 127.12127 
L 327.711794 127.287929 
L 327.805754 126.083143 
L 327.885445 127.100403 
L 327.939504 126.083972 
L 328.01377 129.318264 
L 328.193766 120.064134 
L 328.335782 121.244261 
L 328.410572 124.26571 
L 328.505493 123.338555 
L 328.561737 123.550612 
L 328.655828 120.766244 
L 328.727186 122.294151 
L 328.802498 120.690074 
L 329.004782 124.772628 
L 329.346366 116.028482 
L 329.459852 119.265723 
L 329.51799 116.027104 
L 329.613894 119.232431 
L 329.658307 114.635322 
L 329.820267 116.476837 
L 329.896096 113.481856 
L 330.20012 125.599973 
L 330.27472 123.484178 
L 330.368484 121.82803 
L 330.427367 124.177038 
L 330.598418 120.290405 
L 330.69546 119.712703 
L 330.821765 114.612637 
L 330.909622 116.674307 
L 330.973221 116.312175 
L 331.066248 117.356893 
L 331.144224 115.672832 
L 331.296387 117.642326 
L 331.37255 115.228133 
L 331.540703 118.362427 
L 331.690633 114.300497 
L 331.765958 114.324401 
L 331.842886 119.391019 
L 331.920701 116.064085 
L 331.992968 116.235378 
L 332.14617 119.257123 
L 332.318517 117.25137 
L 332.494736 119.573214 
L 332.504169 116.714144 
L 332.542286 117.753475 
L 332.645109 119.573931 
L 332.713585 124.536853 
L 332.782105 122.933598 
L 332.864287 119.744127 
L 332.943231 121.889001 
L 333.400241 107.530227 
L 333.470297 103.583251 
L 333.550881 104.428445 
L 334.18785 132.183994 
L 334.263326 134.005701 
L 334.43252 133.3213 
L 334.73496 124.781572 
L 334.792636 125.784248 
L 334.886653 118.631728 
L 335.018098 118.190642 
L 335.082194 117.362539 
L 335.225162 106.304262 
L 335.415558 108.633505 
L 335.509125 111.448488 
L 335.546863 106.916577 
L 335.60325 107.803824 
L 335.698598 113.212799 
L 335.754118 110.950398 
L 336.057716 118.831202 
L 336.243607 113.042213 
L 336.360029 119.59052 
L 336.433401 120.857922 
L 336.528497 125.73427 
L 336.604315 123.505697 
L 336.680615 123.583596 
L 336.810818 125.59736 
L 336.94287 117.548763 
L 337.057291 122.503531 
L 337.226951 120.794102 
L 337.329377 117.969119 
L 337.41699 120.479113 
L 337.643324 134.639981 
L 337.759222 136.71899 
L 337.968861 130.916692 
L 338.17552 127.992277 
L 338.24706 122.034381 
L 338.322474 122.527768 
L 338.439349 114.508475 
L 338.550441 122.828818 
L 338.628109 122.244247 
L 338.701583 123.249044 
L 338.870834 127.107708 
L 339.059949 128.519435 
L 339.22841 133.803936 
L 339.272133 130.542328 
L 339.35185 134.555711 
L 339.417954 131.417906 
L 339.530809 133.462614 
L 339.568257 129.59105 
L 339.644869 131.797983 
L 339.815448 131.804513 
L 339.89155 135.385242 
L 339.927661 133.591346 
L 340.123192 128.896447 
L 340.193024 130.390579 
L 340.285617 126.467865 
L 340.363652 127.515827 
L 340.590616 120.607495 
L 340.666678 119.724445 
L 340.738847 121.080855 
L 341.046408 111.820017 
L 341.13585 110.921055 
L 341.211748 114.4856 
L 341.308679 114.22194 
L 341.423584 111.149321 
L 341.552012 103.621568 
L 341.825319 117.5795 
L 342.011215 119.558065 
L 342.166489 119.472271 
L 342.262451 125.255002 
L 342.303 122.864849 
L 342.441754 119.282708 
L 342.459681 125.385577 
L 342.477597 118.922169 
L 342.613392 118.295542 
L 342.817758 123.963363 
L 342.893419 123.53742 
L 343.162165 135.153345 
L 343.478499 126.499646 
L 343.858838 102.597888 
L 344.10243 107.470832 
L 344.272868 108.268967 
L 344.424141 105.854502 
L 344.55604 110.794283 
L 344.657105 120.714385 
L 344.802163 113.333102 
L 344.895946 114.08871 
L 344.954159 113.09894 
L 345.180209 119.985492 
L 345.275246 121.557275 
L 345.386896 119.384392 
L 345.448391 120.205857 
L 345.651472 124.444503 
L 345.767726 126.711782 
L 345.82429 123.902765 
L 345.976789 130.542192 
L 346.054851 128.555717 
L 346.835298 108.099721 
L 347.378532 124.392234 
L 347.395655 121.806195 
L 347.560719 127.955628 
L 347.603449 126.684879 
L 347.772733 120.369633 
L 347.848234 114.016942 
L 347.930931 116.292178 
L 347.999829 116.297531 
L 348.120875 114.539051 
L 348.244942 108.095555 
L 348.405724 104.52095 
L 348.486406 104.108913 
L 348.622823 109.012753 
L 348.788006 102.44115 
L 349.358623 119.566453 
L 349.409219 116.526208 
L 349.577479 128.622482 
L 349.672467 126.922637 
L 349.72876 129.034836 
L 349.803955 128.766767 
L 349.917304 129.20317 
L 350.200886 135.073293 
L 350.33458 131.440021 
L 350.622971 140.961559 
L 350.827524 131.682956 
L 350.976251 134.376378 
L 351.220331 129.37928 
L 351.376918 122.958289 
L 351.467056 122.500741 
L 351.52605 126.149644 
L 351.695515 120.767837 
L 351.826768 119.877412 
L 351.959229 123.820358 
L 351.996311 121.247355 
L 352.058173 122.482324 
L 352.302538 135.666802 
L 352.584418 140.720317 
L 352.684794 137.645555 
L 352.830129 139.367578 
L 352.868022 133.325019 
L 352.98717 133.613097 
L 353.05772 132.111014 
L 353.245315 107.697515 
L 353.415236 114.115042 
L 353.51038 109.710246 
L 353.566841 117.392961 
L 353.698543 111.422877 
L 354.117713 120.240616 
L 354.209347 118.533796 
L 354.302797 119.727894 
L 354.340668 115.719221 
L 354.407772 119.218209 
L 354.643226 128.633155 
L 354.71952 130.301046 
L 354.71952 130.301046 
" clip-path="url(#p8ae37bc00e)" style="fill: none; stroke: #ff0000; stroke-opacity: 0.5; stroke-width: 2.1; stroke-linecap: square"/>
   </g>
   <g id="patch_3">
    <path d="M 48.043438 148.36327 
L 48.043438 0.72 
" style="fill: none; stroke: #000000; stroke-width: 0.8; stroke-linejoin: miter; stroke-linecap: square"/>
   </g>
   <g id="patch_4">
    <path d="M 354.71952 148.36327 
L 354.71952 0.72 
" style="fill: none; stroke: #000000; stroke-width: 0.8; stroke-linejoin: miter; stroke-linecap: square"/>
   </g>
   <g id="patch_5">
    <path d="M 48.043438 148.36327 
L 354.71952 148.36327 
" style="fill: none; stroke: #000000; stroke-width: 0.8; stroke-linejoin: miter; stroke-linecap: square"/>
   </g>
   <g id="patch_6">
    <path d="M 48.043438 0.72 
L 354.71952 0.72 
" style="fill: none; stroke: #000000; stroke-width: 0.8; stroke-linejoin: miter; stroke-linecap: square"/>
   </g>
   <g id="legend_1">
    <g id="patch_7">
     <path d="M 273.95077 38.07625 
L 347.71952 38.07625 
Q 349.71952 38.07625 349.71952 36.07625 
L 349.71952 7.72 
Q 349.71952 5.72 347.71952 5.72 
L 273.95077 5.72 
Q 271.95077 5.72 271.95077 7.72 
L 271.95077 36.07625 
Q 271.95077 38.07625 273.95077 38.07625 
z
" style="fill: #ffffff; opacity: 0.8; stroke: #cccccc; stroke-linejoin: miter"/>
    </g>
    <g id="line2d_25">
     <path d="M 275.95077 13.818438 
L 285.95077 13.818438 
L 295.95077 13.818438 
" style="fill: none; stroke: #0000ff; stroke-opacity: 0.5; stroke-width: 2.1; stroke-linecap: square"/>
    </g>
    <g id="text_14">
     <!-- RNEA -->
     <g transform="translate(303.95077 17.318438) scale(0.1 -0.1)">
      <defs>
       <path id="DejaVuSans-52" d="M 2841 2188 
Q 3044 2119 3236 1894 
Q 3428 1669 3622 1275 
L 4263 0 
L 3584 0 
L 2988 1197 
Q 2756 1666 2539 1819 
Q 2322 1972 1947 1972 
L 1259 1972 
L 1259 0 
L 628 0 
L 628 4666 
L 2053 4666 
Q 2853 4666 3247 4331 
Q 3641 3997 3641 3322 
Q 3641 2881 3436 2590 
Q 3231 2300 2841 2188 
z
M 1259 4147 
L 1259 2491 
L 2053 2491 
Q 2509 2491 2742 2702 
Q 2975 2913 2975 3322 
Q 2975 3731 2742 3939 
Q 2509 4147 2053 4147 
L 1259 4147 
z
" transform="scale(0.015625)"/>
       <path id="DejaVuSans-45" d="M 628 4666 
L 3578 4666 
L 3578 4134 
L 1259 4134 
L 1259 2753 
L 3481 2753 
L 3481 2222 
L 1259 2222 
L 1259 531 
L 3634 531 
L 3634 0 
L 628 0 
L 628 4666 
z
" transform="scale(0.015625)"/>
       <path id="DejaVuSans-41" d="M 2188 4044 
L 1331 1722 
L 3047 1722 
L 2188 4044 
z
M 1831 4666 
L 2547 4666 
L 4325 0 
L 3669 0 
L 3244 1197 
L 1141 1197 
L 716 0 
L 50 0 
L 1831 4666 
z
" transform="scale(0.015625)"/>
      </defs>
      <use xlink:href="#DejaVuSans-52"/>
      <use xlink:href="#DejaVuSans-4e" x="69.482422"/>
      <use xlink:href="#DejaVuSans-45" x="144.287109"/>
      <use xlink:href="#DejaVuSans-41" x="207.470703"/>
     </g>
    </g>
    <g id="line2d_26">
     <path d="M 275.95077 28.496563 
L 285.95077 28.496563 
L 295.95077 28.496563 
" style="fill: none; stroke: #ff0000; stroke-opacity: 0.5; stroke-width: 2.1; stroke-linecap: square"/>
    </g>
    <g id="text_15">
     <!-- BURNEA -->
     <g transform="translate(303.95077 31.996563) scale(0.1 -0.1)">
      <defs>
       <path id="DejaVuSans-42" d="M 1259 2228 
L 1259 519 
L 2272 519 
Q 2781 519 3026 730 
Q 3272 941 3272 1375 
Q 3272 1813 3026 2020 
Q 2781 2228 2272 2228 
L 1259 2228 
z
M 1259 4147 
L 1259 2741 
L 2194 2741 
Q 2656 2741 2882 2914 
Q 3109 3088 3109 3444 
Q 3109 3797 2882 3972 
Q 2656 4147 2194 4147 
L 1259 4147 
z
M 628 4666 
L 2241 4666 
Q 2963 4666 3353 4366 
Q 3744 4066 3744 3513 
Q 3744 3084 3544 2831 
Q 3344 2578 2956 2516 
Q 3422 2416 3680 2098 
Q 3938 1781 3938 1306 
Q 3938 681 3513 340 
Q 3088 0 2303 0 
L 628 0 
L 628 4666 
z
" transform="scale(0.015625)"/>
       <path id="DejaVuSans-55" d="M 556 4666 
L 1191 4666 
L 1191 1831 
Q 1191 1081 1462 751 
Q 1734 422 2344 422 
Q 2950 422 3222 751 
Q 3494 1081 3494 1831 
L 3494 4666 
L 4128 4666 
L 4128 1753 
Q 4128 841 3676 375 
Q 3225 -91 2344 -91 
Q 1459 -91 1007 375 
Q 556 841 556 1753 
L 556 4666 
z
" transform="scale(0.015625)"/>
      </defs>
      <use xlink:href="#DejaVuSans-42"/>
      <use xlink:href="#DejaVuSans-55" x="68.603516"/>
      <use xlink:href="#DejaVuSans-52" x="141.796875"/>
      <use xlink:href="#DejaVuSans-4e" x="211.279297"/>
      <use xlink:href="#DejaVuSans-45" x="286.083984"/>
      <use xlink:href="#DejaVuSans-41" x="349.267578"/>
     </g>
    </g>
   </g>
  </g>
 </g>
 <defs>
  <clipPath id="p8ae37bc00e">
   <rect x="48.043438" y="0.72" width="306.676083" height="147.64327"/>
  </clipPath>
 </defs>
</svg>
