<?xml version="1.0" encoding="utf-8" standalone="no"?>
<!DOCTYPE svg PUBLIC "-//W3C//DTD SVG 1.1//EN"
  "http://www.w3.org/Graphics/SVG/1.1/DTD/svg11.dtd">
<svg xmlns:xlink="http://www.w3.org/1999/xlink" width="427.43952pt" height="211.43952pt" viewBox="0 0 427.43952 211.43952" xmlns="http://www.w3.org/2000/svg" version="1.1">
 <metadata>
  <rdf:RDF xmlns:dc="http://purl.org/dc/elements/1.1/" xmlns:cc="http://creativecommons.org/ns#" xmlns:rdf="http://www.w3.org/1999/02/22-rdf-syntax-ns#">
   <cc:Work>
    <dc:type rdf:resource="http://purl.org/dc/dcmitype/StillImage"/>
    <dc:date>2023-09-09T18:28:54.576712</dc:date>
    <dc:format>image/svg+xml</dc:format>
    <dc:creator>
     <cc:Agent>
      <dc:title>Matplotlib v3.7.2, https://matplotlib.org/</dc:title>
     </cc:Agent>
    </dc:creator>
   </cc:Work>
  </rdf:RDF>
 </metadata>
 <defs>
  <style type="text/css">*{stroke-linejoin: round; stroke-linecap: butt}</style>
 </defs>
 <g id="figure_1">
  <g id="patch_1">
   <path d="M 0 211.43952 
L 427.43952 211.43952 
L 427.43952 0 
L 0 0 
L 0 211.43952 
z
" style="fill: none"/>
  </g>
  <g id="axes_1">
   <g id="patch_2">
    <path d="M 38.502813 184.36327 
L 426.71952 184.36327 
L 426.71952 0.72 
L 38.502813 0.72 
L 38.502813 184.36327 
z
" style="fill: none"/>
   </g>
   <g id="matplotlib.axis_1">
    <g id="xtick_1">
     <g id="line2d_1">
      <path d="M 38.502813 184.36327 
L 38.502813 0.72 
" clip-path="url(#pb3c25e875c)" style="fill: none; stroke-dasharray: 0.8,1.32; stroke-dashoffset: 0; stroke: #000000; stroke-opacity: 0.5; stroke-width: 0.8"/>
     </g>
     <g id="line2d_2">
      <defs>
       <path id="me9b98d9d64" d="M 0 0 
L 0 3.5 
" style="stroke: #000000; stroke-width: 0.8"/>
      </defs>
      <g>
       <use xlink:href="#me9b98d9d64" x="38.502813" y="184.36327" style="stroke: #000000; stroke-width: 0.8"/>
      </g>
     </g>
     <g id="text_1">
      <!-- 0.0 -->
      <g transform="translate(30.55125 198.961707) scale(0.1 -0.1)">
       <defs>
        <path id="DejaVuSans-30" d="M 2034 4250 
Q 1547 4250 1301 3770 
Q 1056 3291 1056 2328 
Q 1056 1369 1301 889 
Q 1547 409 2034 409 
Q 2525 409 2770 889 
Q 3016 1369 3016 2328 
Q 3016 3291 2770 3770 
Q 2525 4250 2034 4250 
z
M 2034 4750 
Q 2819 4750 3233 4129 
Q 3647 3509 3647 2328 
Q 3647 1150 3233 529 
Q 2819 -91 2034 -91 
Q 1250 -91 836 529 
Q 422 1150 422 2328 
Q 422 3509 836 4129 
Q 1250 4750 2034 4750 
z
" transform="scale(0.015625)"/>
        <path id="DejaVuSans-2e" d="M 684 794 
L 1344 794 
L 1344 0 
L 684 0 
L 684 794 
z
" transform="scale(0.015625)"/>
       </defs>
       <use xlink:href="#DejaVuSans-30"/>
       <use xlink:href="#DejaVuSans-2e" x="63.623047"/>
       <use xlink:href="#DejaVuSans-30" x="95.410156"/>
      </g>
     </g>
    </g>
    <g id="xtick_2">
     <g id="line2d_3">
      <path d="M 90.09203 184.36327 
L 90.09203 0.72 
" clip-path="url(#pb3c25e875c)" style="fill: none; stroke-dasharray: 0.8,1.32; stroke-dashoffset: 0; stroke: #000000; stroke-opacity: 0.5; stroke-width: 0.8"/>
     </g>
     <g id="line2d_4">
      <g>
       <use xlink:href="#me9b98d9d64" x="90.09203" y="184.36327" style="stroke: #000000; stroke-width: 0.8"/>
      </g>
     </g>
     <g id="text_2">
      <!-- 2.5 -->
      <g transform="translate(82.140467 198.961707) scale(0.1 -0.1)">
       <defs>
        <path id="DejaVuSans-32" d="M 1228 531 
L 3431 531 
L 3431 0 
L 469 0 
L 469 531 
Q 828 903 1448 1529 
Q 2069 2156 2228 2338 
Q 2531 2678 2651 2914 
Q 2772 3150 2772 3378 
Q 2772 3750 2511 3984 
Q 2250 4219 1831 4219 
Q 1534 4219 1204 4116 
Q 875 4013 500 3803 
L 500 4441 
Q 881 4594 1212 4672 
Q 1544 4750 1819 4750 
Q 2544 4750 2975 4387 
Q 3406 4025 3406 3419 
Q 3406 3131 3298 2873 
Q 3191 2616 2906 2266 
Q 2828 2175 2409 1742 
Q 1991 1309 1228 531 
z
" transform="scale(0.015625)"/>
        <path id="DejaVuSans-35" d="M 691 4666 
L 3169 4666 
L 3169 4134 
L 1269 4134 
L 1269 2991 
Q 1406 3038 1543 3061 
Q 1681 3084 1819 3084 
Q 2600 3084 3056 2656 
Q 3513 2228 3513 1497 
Q 3513 744 3044 326 
Q 2575 -91 1722 -91 
Q 1428 -91 1123 -41 
Q 819 9 494 109 
L 494 744 
Q 775 591 1075 516 
Q 1375 441 1709 441 
Q 2250 441 2565 725 
Q 2881 1009 2881 1497 
Q 2881 1984 2565 2268 
Q 2250 2553 1709 2553 
Q 1456 2553 1204 2497 
Q 953 2441 691 2322 
L 691 4666 
z
" transform="scale(0.015625)"/>
       </defs>
       <use xlink:href="#DejaVuSans-32"/>
       <use xlink:href="#DejaVuSans-2e" x="63.623047"/>
       <use xlink:href="#DejaVuSans-35" x="95.410156"/>
      </g>
     </g>
    </g>
    <g id="xtick_3">
     <g id="line2d_5">
      <path d="M 141.681247 184.36327 
L 141.681247 0.72 
" clip-path="url(#pb3c25e875c)" style="fill: none; stroke-dasharray: 0.8,1.32; stroke-dashoffset: 0; stroke: #000000; stroke-opacity: 0.5; stroke-width: 0.8"/>
     </g>
     <g id="line2d_6">
      <g>
       <use xlink:href="#me9b98d9d64" x="141.681247" y="184.36327" style="stroke: #000000; stroke-width: 0.8"/>
      </g>
     </g>
     <g id="text_3">
      <!-- 5.0 -->
      <g transform="translate(133.729684 198.961707) scale(0.1 -0.1)">
       <use xlink:href="#DejaVuSans-35"/>
       <use xlink:href="#DejaVuSans-2e" x="63.623047"/>
       <use xlink:href="#DejaVuSans-30" x="95.410156"/>
      </g>
     </g>
    </g>
    <g id="xtick_4">
     <g id="line2d_7">
      <path d="M 193.270464 184.36327 
L 193.270464 0.72 
" clip-path="url(#pb3c25e875c)" style="fill: none; stroke-dasharray: 0.8,1.32; stroke-dashoffset: 0; stroke: #000000; stroke-opacity: 0.5; stroke-width: 0.8"/>
     </g>
     <g id="line2d_8">
      <g>
       <use xlink:href="#me9b98d9d64" x="193.270464" y="184.36327" style="stroke: #000000; stroke-width: 0.8"/>
      </g>
     </g>
     <g id="text_4">
      <!-- 7.5 -->
      <g transform="translate(185.318902 198.961707) scale(0.1 -0.1)">
       <defs>
        <path id="DejaVuSans-37" d="M 525 4666 
L 3525 4666 
L 3525 4397 
L 1831 0 
L 1172 0 
L 2766 4134 
L 525 4134 
L 525 4666 
z
" transform="scale(0.015625)"/>
       </defs>
       <use xlink:href="#DejaVuSans-37"/>
       <use xlink:href="#DejaVuSans-2e" x="63.623047"/>
       <use xlink:href="#DejaVuSans-35" x="95.410156"/>
      </g>
     </g>
    </g>
    <g id="xtick_5">
     <g id="line2d_9">
      <path d="M 244.859681 184.36327 
L 244.859681 0.72 
" clip-path="url(#pb3c25e875c)" style="fill: none; stroke-dasharray: 0.8,1.32; stroke-dashoffset: 0; stroke: #000000; stroke-opacity: 0.5; stroke-width: 0.8"/>
     </g>
     <g id="line2d_10">
      <g>
       <use xlink:href="#me9b98d9d64" x="244.859681" y="184.36327" style="stroke: #000000; stroke-width: 0.8"/>
      </g>
     </g>
     <g id="text_5">
      <!-- 10.0 -->
      <g transform="translate(233.726869 198.961707) scale(0.1 -0.1)">
       <defs>
        <path id="DejaVuSans-31" d="M 794 531 
L 1825 531 
L 1825 4091 
L 703 3866 
L 703 4441 
L 1819 4666 
L 2450 4666 
L 2450 531 
L 3481 531 
L 3481 0 
L 794 0 
L 794 531 
z
" transform="scale(0.015625)"/>
       </defs>
       <use xlink:href="#DejaVuSans-31"/>
       <use xlink:href="#DejaVuSans-30" x="63.623047"/>
       <use xlink:href="#DejaVuSans-2e" x="127.246094"/>
       <use xlink:href="#DejaVuSans-30" x="159.033203"/>
      </g>
     </g>
    </g>
    <g id="xtick_6">
     <g id="line2d_11">
      <path d="M 296.448899 184.36327 
L 296.448899 0.72 
" clip-path="url(#pb3c25e875c)" style="fill: none; stroke-dasharray: 0.8,1.32; stroke-dashoffset: 0; stroke: #000000; stroke-opacity: 0.5; stroke-width: 0.8"/>
     </g>
     <g id="line2d_12">
      <g>
       <use xlink:href="#me9b98d9d64" x="296.448899" y="184.36327" style="stroke: #000000; stroke-width: 0.8"/>
      </g>
     </g>
     <g id="text_6">
      <!-- 12.5 -->
      <g transform="translate(285.316086 198.961707) scale(0.1 -0.1)">
       <use xlink:href="#DejaVuSans-31"/>
       <use xlink:href="#DejaVuSans-32" x="63.623047"/>
       <use xlink:href="#DejaVuSans-2e" x="127.246094"/>
       <use xlink:href="#DejaVuSans-35" x="159.033203"/>
      </g>
     </g>
    </g>
    <g id="xtick_7">
     <g id="line2d_13">
      <path d="M 348.038116 184.36327 
L 348.038116 0.72 
" clip-path="url(#pb3c25e875c)" style="fill: none; stroke-dasharray: 0.8,1.32; stroke-dashoffset: 0; stroke: #000000; stroke-opacity: 0.5; stroke-width: 0.8"/>
     </g>
     <g id="line2d_14">
      <g>
       <use xlink:href="#me9b98d9d64" x="348.038116" y="184.36327" style="stroke: #000000; stroke-width: 0.8"/>
      </g>
     </g>
     <g id="text_7">
      <!-- 15.0 -->
      <g transform="translate(336.905303 198.961707) scale(0.1 -0.1)">
       <use xlink:href="#DejaVuSans-31"/>
       <use xlink:href="#DejaVuSans-35" x="63.623047"/>
       <use xlink:href="#DejaVuSans-2e" x="127.246094"/>
       <use xlink:href="#DejaVuSans-30" x="159.033203"/>
      </g>
     </g>
    </g>
    <g id="xtick_8">
     <g id="line2d_15">
      <path d="M 399.627333 184.36327 
L 399.627333 0.72 
" clip-path="url(#pb3c25e875c)" style="fill: none; stroke-dasharray: 0.8,1.32; stroke-dashoffset: 0; stroke: #000000; stroke-opacity: 0.5; stroke-width: 0.8"/>
     </g>
     <g id="line2d_16">
      <g>
       <use xlink:href="#me9b98d9d64" x="399.627333" y="184.36327" style="stroke: #000000; stroke-width: 0.8"/>
      </g>
     </g>
     <g id="text_8">
      <!-- 17.5 -->
      <g transform="translate(388.494521 198.961707) scale(0.1 -0.1)">
       <use xlink:href="#DejaVuSans-31"/>
       <use xlink:href="#DejaVuSans-37" x="63.623047"/>
       <use xlink:href="#DejaVuSans-2e" x="127.246094"/>
       <use xlink:href="#DejaVuSans-35" x="159.033203"/>
      </g>
     </g>
    </g>
    <g id="text_9">
     <!-- Zeit [s] -->
     <g transform="translate(214.665073 208.639832) scale(0.1 -0.1)">
      <defs>
       <path id="DejaVuSans-5a" d="M 359 4666 
L 4025 4666 
L 4025 4184 
L 1075 531 
L 4097 531 
L 4097 0 
L 288 0 
L 288 481 
L 3238 4134 
L 359 4134 
L 359 4666 
z
" transform="scale(0.015625)"/>
       <path id="DejaVuSans-65" d="M 3597 1894 
L 3597 1613 
L 953 1613 
Q 991 1019 1311 708 
Q 1631 397 2203 397 
Q 2534 397 2845 478 
Q 3156 559 3463 722 
L 3463 178 
Q 3153 47 2828 -22 
Q 2503 -91 2169 -91 
Q 1331 -91 842 396 
Q 353 884 353 1716 
Q 353 2575 817 3079 
Q 1281 3584 2069 3584 
Q 2775 3584 3186 3129 
Q 3597 2675 3597 1894 
z
M 3022 2063 
Q 3016 2534 2758 2815 
Q 2500 3097 2075 3097 
Q 1594 3097 1305 2825 
Q 1016 2553 972 2059 
L 3022 2063 
z
" transform="scale(0.015625)"/>
       <path id="DejaVuSans-69" d="M 603 3500 
L 1178 3500 
L 1178 0 
L 603 0 
L 603 3500 
z
M 603 4863 
L 1178 4863 
L 1178 4134 
L 603 4134 
L 603 4863 
z
" transform="scale(0.015625)"/>
       <path id="DejaVuSans-74" d="M 1172 4494 
L 1172 3500 
L 2356 3500 
L 2356 3053 
L 1172 3053 
L 1172 1153 
Q 1172 725 1289 603 
Q 1406 481 1766 481 
L 2356 481 
L 2356 0 
L 1766 0 
Q 1100 0 847 248 
Q 594 497 594 1153 
L 594 3053 
L 172 3053 
L 172 3500 
L 594 3500 
L 594 4494 
L 1172 4494 
z
" transform="scale(0.015625)"/>
       <path id="DejaVuSans-20" transform="scale(0.015625)"/>
       <path id="DejaVuSans-5b" d="M 550 4863 
L 1875 4863 
L 1875 4416 
L 1125 4416 
L 1125 -397 
L 1875 -397 
L 1875 -844 
L 550 -844 
L 550 4863 
z
" transform="scale(0.015625)"/>
       <path id="DejaVuSans-73" d="M 2834 3397 
L 2834 2853 
Q 2591 2978 2328 3040 
Q 2066 3103 1784 3103 
Q 1356 3103 1142 2972 
Q 928 2841 928 2578 
Q 928 2378 1081 2264 
Q 1234 2150 1697 2047 
L 1894 2003 
Q 2506 1872 2764 1633 
Q 3022 1394 3022 966 
Q 3022 478 2636 193 
Q 2250 -91 1575 -91 
Q 1294 -91 989 -36 
Q 684 19 347 128 
L 347 722 
Q 666 556 975 473 
Q 1284 391 1588 391 
Q 1994 391 2212 530 
Q 2431 669 2431 922 
Q 2431 1156 2273 1281 
Q 2116 1406 1581 1522 
L 1381 1569 
Q 847 1681 609 1914 
Q 372 2147 372 2553 
Q 372 3047 722 3315 
Q 1072 3584 1716 3584 
Q 2034 3584 2315 3537 
Q 2597 3491 2834 3397 
z
" transform="scale(0.015625)"/>
       <path id="DejaVuSans-5d" d="M 1947 4863 
L 1947 -844 
L 622 -844 
L 622 -397 
L 1369 -397 
L 1369 4416 
L 622 4416 
L 622 4863 
L 1947 4863 
z
" transform="scale(0.015625)"/>
      </defs>
      <use xlink:href="#DejaVuSans-5a"/>
      <use xlink:href="#DejaVuSans-65" x="68.505859"/>
      <use xlink:href="#DejaVuSans-69" x="130.029297"/>
      <use xlink:href="#DejaVuSans-74" x="157.8125"/>
      <use xlink:href="#DejaVuSans-20" x="197.021484"/>
      <use xlink:href="#DejaVuSans-5b" x="228.808594"/>
      <use xlink:href="#DejaVuSans-73" x="267.822266"/>
      <use xlink:href="#DejaVuSans-5d" x="319.921875"/>
     </g>
    </g>
   </g>
   <g id="matplotlib.axis_2">
    <g id="ytick_1">
     <g id="line2d_17">
      <path d="M 38.502813 163.129216 
L 426.71952 163.129216 
" clip-path="url(#pb3c25e875c)" style="fill: none; stroke-dasharray: 0.8,1.32; stroke-dashoffset: 0; stroke: #000000; stroke-opacity: 0.5; stroke-width: 0.8"/>
     </g>
     <g id="line2d_18">
      <defs>
       <path id="m42c733308b" d="M 0 0 
L -3.5 0 
" style="stroke: #000000; stroke-width: 0.8"/>
      </defs>
      <g>
       <use xlink:href="#m42c733308b" x="38.502813" y="163.129216" style="stroke: #000000; stroke-width: 0.8"/>
      </g>
     </g>
     <g id="text_10">
      <!-- −20 -->
      <g transform="translate(10.398125 166.928435) scale(0.1 -0.1)">
       <defs>
        <path id="DejaVuSans-2212" d="M 678 2272 
L 4684 2272 
L 4684 1741 
L 678 1741 
L 678 2272 
z
" transform="scale(0.015625)"/>
       </defs>
       <use xlink:href="#DejaVuSans-2212"/>
       <use xlink:href="#DejaVuSans-32" x="83.789062"/>
       <use xlink:href="#DejaVuSans-30" x="147.412109"/>
      </g>
     </g>
    </g>
    <g id="ytick_2">
     <g id="line2d_19">
      <path d="M 38.502813 129.957414 
L 426.71952 129.957414 
" clip-path="url(#pb3c25e875c)" style="fill: none; stroke-dasharray: 0.8,1.32; stroke-dashoffset: 0; stroke: #000000; stroke-opacity: 0.5; stroke-width: 0.8"/>
     </g>
     <g id="line2d_20">
      <g>
       <use xlink:href="#m42c733308b" x="38.502813" y="129.957414" style="stroke: #000000; stroke-width: 0.8"/>
      </g>
     </g>
     <g id="text_11">
      <!-- −10 -->
      <g transform="translate(10.398125 133.756633) scale(0.1 -0.1)">
       <use xlink:href="#DejaVuSans-2212"/>
       <use xlink:href="#DejaVuSans-31" x="83.789062"/>
       <use xlink:href="#DejaVuSans-30" x="147.412109"/>
      </g>
     </g>
    </g>
    <g id="ytick_3">
     <g id="line2d_21">
      <path d="M 38.502813 96.785613 
L 426.71952 96.785613 
" clip-path="url(#pb3c25e875c)" style="fill: none; stroke-dasharray: 0.8,1.32; stroke-dashoffset: 0; stroke: #000000; stroke-opacity: 0.5; stroke-width: 0.8"/>
     </g>
     <g id="line2d_22">
      <g>
       <use xlink:href="#m42c733308b" x="38.502813" y="96.785613" style="stroke: #000000; stroke-width: 0.8"/>
      </g>
     </g>
     <g id="text_12">
      <!-- 0 -->
      <g transform="translate(25.140313 100.584832) scale(0.1 -0.1)">
       <use xlink:href="#DejaVuSans-30"/>
      </g>
     </g>
    </g>
    <g id="ytick_4">
     <g id="line2d_23">
      <path d="M 38.502813 63.613811 
L 426.71952 63.613811 
" clip-path="url(#pb3c25e875c)" style="fill: none; stroke-dasharray: 0.8,1.32; stroke-dashoffset: 0; stroke: #000000; stroke-opacity: 0.5; stroke-width: 0.8"/>
     </g>
     <g id="line2d_24">
      <g>
       <use xlink:href="#m42c733308b" x="38.502813" y="63.613811" style="stroke: #000000; stroke-width: 0.8"/>
      </g>
     </g>
     <g id="text_13">
      <!-- 10 -->
      <g transform="translate(18.777813 67.41303) scale(0.1 -0.1)">
       <use xlink:href="#DejaVuSans-31"/>
       <use xlink:href="#DejaVuSans-30" x="63.623047"/>
      </g>
     </g>
    </g>
    <g id="ytick_5">
     <g id="line2d_25">
      <path d="M 38.502813 30.442009 
L 426.71952 30.442009 
" clip-path="url(#pb3c25e875c)" style="fill: none; stroke-dasharray: 0.8,1.32; stroke-dashoffset: 0; stroke: #000000; stroke-opacity: 0.5; stroke-width: 0.8"/>
     </g>
     <g id="line2d_26">
      <g>
       <use xlink:href="#m42c733308b" x="38.502813" y="30.442009" style="stroke: #000000; stroke-width: 0.8"/>
      </g>
     </g>
     <g id="text_14">
      <!-- 20 -->
      <g transform="translate(18.777813 34.241228) scale(0.1 -0.1)">
       <use xlink:href="#DejaVuSans-32"/>
       <use xlink:href="#DejaVuSans-30" x="63.623047"/>
      </g>
     </g>
    </g>
    <g id="text_15">
     <!-- Kraft [N] -->
     <g transform="translate(8.318438 113.804135) rotate(-90) scale(0.1 -0.1)">
      <defs>
       <path id="DejaVuSans-4b" d="M 628 4666 
L 1259 4666 
L 1259 2694 
L 3353 4666 
L 4166 4666 
L 1850 2491 
L 4331 0 
L 3500 0 
L 1259 2247 
L 1259 0 
L 628 0 
L 628 4666 
z
" transform="scale(0.015625)"/>
       <path id="DejaVuSans-72" d="M 2631 2963 
Q 2534 3019 2420 3045 
Q 2306 3072 2169 3072 
Q 1681 3072 1420 2755 
Q 1159 2438 1159 1844 
L 1159 0 
L 581 0 
L 581 3500 
L 1159 3500 
L 1159 2956 
Q 1341 3275 1631 3429 
Q 1922 3584 2338 3584 
Q 2397 3584 2469 3576 
Q 2541 3569 2628 3553 
L 2631 2963 
z
" transform="scale(0.015625)"/>
       <path id="DejaVuSans-61" d="M 2194 1759 
Q 1497 1759 1228 1600 
Q 959 1441 959 1056 
Q 959 750 1161 570 
Q 1363 391 1709 391 
Q 2188 391 2477 730 
Q 2766 1069 2766 1631 
L 2766 1759 
L 2194 1759 
z
M 3341 1997 
L 3341 0 
L 2766 0 
L 2766 531 
Q 2569 213 2275 61 
Q 1981 -91 1556 -91 
Q 1019 -91 701 211 
Q 384 513 384 1019 
Q 384 1609 779 1909 
Q 1175 2209 1959 2209 
L 2766 2209 
L 2766 2266 
Q 2766 2663 2505 2880 
Q 2244 3097 1772 3097 
Q 1472 3097 1187 3025 
Q 903 2953 641 2809 
L 641 3341 
Q 956 3463 1253 3523 
Q 1550 3584 1831 3584 
Q 2591 3584 2966 3190 
Q 3341 2797 3341 1997 
z
" transform="scale(0.015625)"/>
       <path id="DejaVuSans-66" d="M 2375 4863 
L 2375 4384 
L 1825 4384 
Q 1516 4384 1395 4259 
Q 1275 4134 1275 3809 
L 1275 3500 
L 2222 3500 
L 2222 3053 
L 1275 3053 
L 1275 0 
L 697 0 
L 697 3053 
L 147 3053 
L 147 3500 
L 697 3500 
L 697 3744 
Q 697 4328 969 4595 
Q 1241 4863 1831 4863 
L 2375 4863 
z
" transform="scale(0.015625)"/>
       <path id="DejaVuSans-4e" d="M 628 4666 
L 1478 4666 
L 3547 763 
L 3547 4666 
L 4159 4666 
L 4159 0 
L 3309 0 
L 1241 3903 
L 1241 0 
L 628 0 
L 628 4666 
z
" transform="scale(0.015625)"/>
      </defs>
      <use xlink:href="#DejaVuSans-4b"/>
      <use xlink:href="#DejaVuSans-72" x="65.576172"/>
      <use xlink:href="#DejaVuSans-61" x="106.689453"/>
      <use xlink:href="#DejaVuSans-66" x="167.96875"/>
      <use xlink:href="#DejaVuSans-74" x="201.423828"/>
      <use xlink:href="#DejaVuSans-20" x="240.632812"/>
      <use xlink:href="#DejaVuSans-5b" x="272.419922"/>
      <use xlink:href="#DejaVuSans-4e" x="311.433594"/>
      <use xlink:href="#DejaVuSans-5d" x="386.238281"/>
     </g>
    </g>
   </g>
   <g id="line2d_27">
    <path d="M 38.502813 31.478001 
L 167.592103 31.555636 
L 168.445166 32.273787 
L 168.942218 32.403264 
L 169.107821 32.167843 
L 169.315652 32.235019 
L 169.442143 32.423915 
L 169.648632 32.098801 
L 169.774075 32.133302 
L 169.93992 31.871948 
L 169.979168 32.281448 
L 170.144858 32.039717 
L 170.311488 32.003939 
L 170.476552 32.101046 
L 170.683728 32.440609 
L 171.184495 31.76684 
L 171.390371 32.184397 
L 171.731979 32.203451 
L 171.853342 32.511742 
L 172.017345 32.393887 
L 172.224076 32.592566 
L 172.597282 31.619969 
L 172.867074 31.938782 
L 172.890431 32.928332 
L 173.219585 31.964057 
L 173.344281 32.086114 
L 173.426692 32.441616 
L 173.761668 31.931123 
L 173.965146 32.046339 
L 174.089983 30.979521 
L 174.256107 32.422609 
L 174.421625 31.758958 
L 174.629721 32.202151 
L 174.835794 31.390811 
L 174.960194 32.556921 
L 175.292269 31.23573 
L 175.512596 32.080677 
L 175.717338 31.63114 
L 175.966082 31.930096 
L 176.174618 31.646889 
L 176.339554 31.696347 
L 176.712839 31.62273 
L 177.211731 32.629111 
L 177.500898 31.353039 
L 177.542799 32.759737 
L 177.708732 32.164079 
L 178.039763 32.013947 
L 178.206907 32.348274 
L 178.376506 31.979979 
L 178.706389 33.151328 
L 178.910895 32.183816 
L 179.117783 31.764479 
L 179.24249 32.634443 
L 179.49159 31.955618 
L 179.657205 30.948035 
L 179.782056 32.39689 
L 179.947148 31.704597 
L 180.112916 31.574177 
L 180.321054 32.385481 
L 180.735556 32.689327 
L 180.860072 31.736737 
L 181.066874 31.757005 
L 181.152699 32.081937 
L 181.35943 31.792989 
L 181.649551 30.835848 
L 181.843152 32.128697 
L 182.00196 31.88865 
L 182.168021 32.776245 
L 182.519423 32.117155 
L 182.684974 33.148683 
L 183.005638 31.90041 
L 183.099712 31.990972 
L 183.185199 31.879592 
L 183.389727 32.714572 
L 183.556317 31.647467 
L 183.721917 33.101544 
L 183.886987 33.051204 
L 184.052953 32.41492 
L 184.343248 30.73318 
L 184.634012 33.355694 
L 184.846511 32.200841 
L 184.966286 30.863727 
L 185.104134 32.128239 
L 185.321087 32.395264 
L 185.506274 32.373856 
L 185.589918 31.520589 
L 185.963761 32.822688 
L 186.129707 34.569829 
L 186.336448 31.75295 
L 186.462318 32.133841 
L 186.667948 30.627812 
L 186.834352 31.054209 
L 187.041777 33.447856 
L 187.208633 33.187644 
L 187.335181 31.929719 
L 187.498644 32.536172 
L 187.705807 34.376069 
L 187.83031 31.874535 
L 188.038914 31.576603 
L 188.244543 32.753028 
L 188.369759 32.576624 
L 188.535505 33.342553 
L 188.702007 30.454993 
L 188.868699 32.858476 
L 189.033047 31.758007 
L 189.323182 32.207905 
L 189.572243 30.255591 
L 189.614787 33.276527 
L 189.737865 31.231526 
L 189.904158 31.616468 
L 190.070259 32.76199 
L 190.237035 31.618871 
L 190.527056 31.79888 
L 190.611255 32.735431 
L 190.817251 30.01151 
L 190.942467 33.532158 
L 191.356029 31.556892 
L 191.523033 31.924298 
L 191.614938 30.015885 
L 191.811547 31.319278 
L 192.019145 29.581922 
L 192.248529 32.516905 
L 192.417055 32.529922 
L 192.518548 31.294925 
L 192.725323 30.59388 
L 192.809655 32.048026 
L 193.016079 31.339735 
L 193.265275 33.053158 
L 193.525223 32.811649 
L 193.719918 30.521162 
L 193.979383 32.036517 
L 194.056481 31.601708 
L 194.225003 31.721218 
L 194.383236 32.043982 
L 194.548805 35.128528 
L 194.797579 33.760693 
L 194.922159 29.686523 
L 195.212183 31.738571 
L 195.295114 30.680025 
L 195.461043 32.094771 
L 195.586589 29.804451 
L 195.83521 32.252456 
L 196.124398 32.636948 
L 196.291833 34.581316 
L 196.580732 31.01526 
L 196.748291 32.423755 
L 196.912717 28.709163 
L 196.954617 33.418959 
L 197.119948 34.102309 
L 197.327727 33.078476 
L 197.540592 34.047364 
L 197.700895 31.478493 
L 197.86703 32.314711 
L 198.003553 31.71678 
L 198.239856 33.922668 
L 198.405795 29.66952 
L 198.541309 30.909896 
L 198.697139 33.761073 
L 198.878303 32.175412 
L 199.028913 32.272257 
L 199.235536 34.759715 
L 199.483734 34.911928 
L 200.022637 32.098905 
L 200.0651 30.379041 
L 200.230265 31.024925 
L 200.479468 32.585654 
L 200.648575 29.344084 
L 200.769743 32.191321 
L 201.144172 33.905755 
L 201.269763 32.0501 
L 201.433198 31.793829 
L 201.599156 31.217527 
L 201.771257 28.038473 
L 202.096849 31.938927 
L 202.32375 33.582539 
L 202.497627 31.828922 
L 202.802977 31.106349 
L 203.066925 33.026772 
L 203.258895 33.218564 
L 203.345358 34.017706 
L 203.591491 34.531259 
L 203.676205 30.717108 
L 203.881319 32.955934 
L 204.010432 32.025482 
L 204.30162 32.719392 
L 204.466335 33.465403 
L 204.544957 35.242274 
L 204.842997 30.392434 
L 204.974216 30.382928 
L 205.085509 33.333173 
L 205.211776 32.113337 
L 205.458934 34.610464 
L 205.562396 30.499932 
L 205.79286 34.886802 
L 206.123628 33.477634 
L 206.249665 31.811467 
L 206.455061 32.341843 
L 206.579877 33.161444 
L 206.787181 31.527814 
L 206.953379 31.210866 
L 207.201515 29.024211 
L 207.326492 33.534039 
L 207.628418 30.451222 
L 207.823123 33.523288 
L 207.950223 31.664921 
L 207.989909 28.217439 
L 208.282167 31.96124 
L 208.654127 28.531578 
L 208.819692 30.339342 
L 209.06875 37.455517 
L 209.364106 27.732652 
L 209.694221 34.145563 
L 209.898115 31.880704 
L 210.022111 28.846202 
L 210.190221 31.598139 
L 210.478378 31.950745 
L 210.562104 29.586792 
L 210.72769 35.942688 
L 210.897039 30.634136 
L 211.060182 31.064879 
L 211.229053 29.202976 
L 211.394521 31.164063 
L 211.572053 31.488112 
L 211.726285 35.169916 
L 212.016167 32.480696 
L 212.102259 29.729561 
L 212.265662 32.074084 
L 212.431349 30.878097 
L 212.805319 35.148786 
L 212.948447 34.027518 
L 213.097541 27.237681 
L 213.635086 35.454352 
L 213.718524 31.344051 
L 213.800791 35.444226 
L 214.091247 27.966476 
L 214.136742 33.061672 
L 214.329273 32.546148 
L 214.517147 33.172107 
L 214.645376 34.354168 
L 215.003774 28.389431 
L 215.169079 31.789846 
L 215.376665 31.418307 
L 215.542481 32.718408 
L 215.708254 29.624249 
L 216.043251 30.881612 
L 216.206865 29.747036 
L 216.41344 36.31796 
L 216.58419 31.00928 
L 216.745894 30.709609 
L 217.076131 33.97216 
L 217.454308 30.348465 
L 217.614932 30.310317 
L 217.786303 30.940247 
L 217.947678 30.464348 
L 218.073785 32.389012 
L 218.320226 32.260832 
L 218.452737 30.291002 
L 218.652175 30.921827 
L 218.778428 29.261818 
L 218.993718 29.234168 
L 219.108845 35.247369 
L 219.27589 32.171952 
L 219.48269 31.895804 
L 219.647945 28.61525 
L 219.813668 36.985321 
L 220.16022 31.970499 
L 220.685603 36.285478 
L 220.851507 30.253876 
L 221.028229 30.229962 
L 221.185178 30.362737 
L 221.473407 31.374372 
L 221.556393 34.884804 
L 221.76367 29.800376 
L 221.888417 32.222641 
L 222.13683 30.795391 
L 222.261216 36.176071 
L 222.386698 29.15545 
L 222.75861 35.122916 
L 222.900334 33.240502 
L 223.095895 34.354835 
L 223.299739 34.296896 
L 223.506579 30.184842 
L 223.879809 34.398601 
L 224.294277 28.657677 
L 224.501503 33.4902 
L 224.628545 26.893932 
L 224.87638 27.725637 
L 224.999346 32.899336 
L 225.165961 29.612177 
L 225.30129 32.407708 
L 225.500074 32.173783 
L 225.760961 31.546196 
L 225.930244 30.679725 
L 226.047075 28.3376 
L 226.207896 37.302226 
L 226.583675 32.60396 
L 226.755858 34.96586 
L 226.913659 29.962958 
L 227.012404 33.787828 
L 227.342758 28.670725 
L 227.392505 31.728837 
L 227.592455 31.158812 
L 227.758081 27.759031 
L 227.883821 33.104027 
L 228.131341 37.804605 
L 228.255833 31.382444 
L 228.512468 29.467543 
L 228.630703 31.005489 
L 228.795006 35.267999 
L 229.13178 27.364938 
L 229.292654 31.480476 
L 229.541201 31.477946 
L 229.626368 4.251601 
L 229.873793 9.677171 
L 230.038834 7.135256 
L 230.338196 24.836157 
L 230.577786 21.8038 
L 230.662431 30.426597 
L 230.82737 33.146482 
L 231.035274 31.17553 
L 231.283205 31.684324 
L 231.344786 32.859375 
L 231.577432 34.054888 
L 231.798122 32.982427 
L 231.880109 33.571277 
L 232.258259 31.258984 
L 232.337894 32.097008 
L 232.547216 31.3942 
L 232.792382 31.244607 
L 232.999197 31.718288 
L 233.082376 31.286463 
L 233.206972 31.7479 
L 233.457252 31.272809 
L 233.788333 31.445463 
L 234.286248 31.476551 
L 234.576824 31.478084 
L 234.783175 31.307947 
L 234.950203 31.478076 
L 235.11523 31.37123 
L 235.450774 31.475138 
L 237.106334 31.480602 
L 237.189713 32.442501 
L 237.689531 31.400899 
L 237.895417 31.491851 
L 238.2678 31.235717 
L 238.392143 31.455978 
L 239.928434 31.478628 
L 240.092821 31.821554 
L 240.259079 31.515893 
L 241.128739 31.461258 
L 243.036737 31.476198 
L 243.201958 31.764998 
L 243.409889 31.460071 
L 246.688295 31.496049 
L 247.561323 31.477938 
L 248.88818 31.47809 
L 249.386714 31.477337 
L 270.752947 31.478331 
L 297.551585 31.478862 
L 311.659303 31.477903 
L 311.823265 21.468021 
L 311.99015 28.461848 
L 312.161281 26.04071 
L 312.336716 27.28596 
L 312.498394 30.966363 
L 312.661092 27.459733 
L 312.841523 28.731367 
L 313.075108 28.681654 
L 313.2884 32.671388 
L 313.379178 31.489735 
L 313.577042 30.935803 
L 313.746276 36.01011 
L 314.201629 29.304335 
L 314.578649 35.221213 
L 314.909075 31.352375 
L 315.166889 32.811095 
L 315.278734 36.172836 
L 315.48951 31.022726 
L 315.652905 31.626281 
L 315.818567 33.167994 
L 316.027603 30.331692 
L 316.194183 32.298159 
L 316.408253 28.260242 
L 316.507943 30.907891 
L 316.613191 30.561283 
L 316.986216 34.097134 
L 317.20556 32.65462 
L 317.320802 32.892132 
L 317.564282 30.178055 
L 317.706398 31.980334 
L 317.85523 27.116577 
L 318.0634 30.116341 
L 318.187507 36.476317 
L 318.353457 32.817174 
L 318.521708 37.039094 
L 318.85217 29.297535 
L 319.100521 33.245499 
L 319.225076 32.33298 
L 319.409494 32.086203 
L 319.558885 37.27119 
L 319.841148 28.526522 
L 320.136768 33.251734 
L 320.297066 32.669577 
L 320.504369 33.861145 
L 320.629841 29.810311 
L 321.085565 33.379705 
L 321.170351 31.579458 
L 321.335238 31.094042 
L 321.461537 32.566461 
L 321.708592 30.910325 
L 321.97571 34.297452 
L 322.165521 33.628445 
L 322.331441 31.100746 
L 322.499834 32.321747 
L 322.663992 37.450161 
L 322.833021 32.791875 
L 322.996495 35.624302 
L 323.335657 30.268777 
L 323.498092 29.287926 
L 323.706095 34.019261 
L 324.038273 29.247737 
L 324.203811 29.171839 
L 324.370413 33.618707 
L 324.659943 32.539012 
L 324.721012 31.401294 
L 324.909506 34.66783 
L 325.116151 30.968922 
L 325.323389 31.933249 
L 325.448723 29.252164 
L 325.614606 30.561205 
L 325.785326 33.254596 
L 326.072865 32.419354 
L 326.238562 35.343173 
L 326.412047 35.660084 
L 326.78644 30.44812 
L 326.948721 30.341917 
L 327.32073 31.783749 
L 327.360247 34.226289 
L 327.443537 32.06049 
L 327.669682 31.429717 
L 327.816366 28.596843 
L 328.108854 33.120899 
L 328.165571 29.349038 
L 328.32193 30.013168 
L 328.481153 37.589565 
L 328.64752 28.948479 
L 328.940757 30.210988 
L 329.072537 32.506567 
L 329.236918 27.047134 
L 329.36207 31.567938 
L 329.652278 35.836708 
L 329.694481 31.039374 
L 329.985262 37.952102 
L 330.151062 32.604882 
L 330.19387 33.659455 
L 330.481735 30.992947 
L 330.564866 28.425283 
L 330.896731 33.589401 
L 331.186949 31.762351 
L 331.270016 32.382461 
L 331.436321 30.502135 
L 331.60623 32.638109 
L 331.643987 31.102326 
L 331.769346 32.165639 
L 331.934519 28.738619 
L 332.102296 32.429205 
L 332.308094 29.065647 
L 332.43322 31.960856 
L 332.655635 31.295347 
L 332.767125 30.386419 
L 333.140408 33.25053 
L 333.309014 32.885164 
L 333.514844 31.741855 
L 333.806007 26.662826 
L 334.013531 34.966861 
L 334.14328 31.953933 
L 334.530533 34.34635 
L 334.679608 28.119786 
L 334.859288 31.028815 
L 335.175884 30.431743 
L 335.347981 35.61552 
L 335.555985 31.806606 
L 335.723733 31.344726 
L 335.931453 26.955657 
L 336.094646 33.281354 
L 336.261414 30.273848 
L 336.386343 31.773069 
L 336.593826 37.276795 
L 336.759288 33.451817 
L 337.036051 32.083543 
L 337.138595 33.184761 
L 337.261473 36.268589 
L 337.533264 33.695057 
L 337.632443 30.476906 
L 337.845969 33.729533 
L 337.964258 29.389567 
L 338.137004 33.624809 
L 338.633677 31.290192 
L 338.797148 32.033006 
L 339.010774 31.930323 
L 339.18314 32.314318 
L 339.338692 27.21738 
L 339.503594 33.954242 
L 339.878088 27.939983 
L 340.005552 36.857786 
L 340.211833 33.126508 
L 340.417118 31.953839 
L 340.541933 32.430967 
L 340.832671 32.51221 
L 341.073503 35.795339 
L 341.399078 27.699233 
L 341.609234 34.642522 
L 341.737669 31.41137 
L 342.273927 35.592988 
L 342.406038 29.811009 
L 342.605046 33.045696 
L 342.771238 37.710802 
L 342.937427 33.291035 
L 343.102823 32.240923 
L 343.269013 33.217245 
L 343.435661 30.352094 
L 343.725777 31.553755 
L 343.829534 33.457526 
L 344.099723 31.836503 
L 344.182432 35.437169 
L 344.348416 33.441816 
L 344.514318 37.089428 
L 344.813396 33.055966 
L 344.993925 34.252816 
L 345.181784 32.401785 
L 345.387017 33.585948 
L 345.525221 31.876417 
L 345.678126 34.547871 
L 345.845578 28.407885 
L 346.109824 32.377273 
L 346.219824 30.646544 
L 346.570196 35.934518 
L 346.929406 30.229651 
L 347.266428 32.905527 
L 347.610518 32.016288 
L 347.812893 32.500138 
L 347.897482 34.207171 
L 348.100811 33.225275 
L 348.308348 28.90281 
L 348.515742 33.414976 
L 348.598891 32.815619 
L 348.806141 33.062329 
L 348.977588 33.586 
L 349.149989 31.702664 
L 349.304427 31.751914 
L 349.47129 32.15276 
L 349.678685 30.967063 
L 349.844641 33.127726 
L 350.012049 31.889524 
L 350.175789 32.478809 
L 350.34163 35.181747 
L 350.67893 31.739002 
L 350.841623 33.214488 
L 351.006434 32.921777 
L 351.257039 34.526073 
L 351.380226 34.536863 
L 351.547773 33.934502 
L 351.75397 36.246354 
L 352.127203 28.642901 
L 352.302626 33.529976 
L 352.418432 31.808711 
L 352.625981 33.966109 
L 352.791429 30.380022 
L 352.957356 32.776674 
L 353.098215 32.104366 
L 353.248422 37.009124 
L 353.45844 37.559355 
L 353.662257 34.025498 
L 353.833948 33.718324 
L 353.953568 36.357772 
L 354.121182 29.713956 
L 354.285471 32.190383 
L 354.504945 33.327362 
L 354.629467 32.89664 
L 354.79515 35.328724 
L 355.169495 32.67344 
L 355.376697 30.524562 
L 355.503598 32.867829 
L 355.670175 33.672646 
L 355.832743 33.688614 
L 356.165537 29.287491 
L 356.373504 35.509648 
L 356.579788 32.898137 
L 356.70401 33.908813 
L 356.914665 37.523624 
L 357.080208 32.915531 
L 357.244975 32.880071 
L 357.444592 33.206589 
L 357.577453 32.781939 
L 357.720344 32.908495 
L 357.911932 33.634381 
L 358.151598 36.856399 
L 358.28907 31.078212 
L 358.620771 36.275572 
L 358.787003 28.622403 
L 358.953268 35.816699 
L 359.118747 33.236072 
L 359.284997 33.81017 
L 359.452832 37.707526 
L 359.658684 35.940247 
L 359.783703 29.857498 
L 360.003568 34.770747 
L 360.032147 33.752588 
L 360.156545 32.493825 
L 360.366132 31.760719 
L 360.571805 33.655433 
L 360.695951 31.31465 
L 361.070572 35.781764 
L 361.194597 29.832006 
L 361.364832 33.919535 
L 361.498968 34.222313 
L 361.702593 34.316954 
L 361.858873 38.891026 
L 362.273976 33.575811 
L 362.398408 33.526555 
L 362.522582 28.794843 
L 362.854919 36.074141 
L 363.106715 35.942407 
L 363.275235 34.134368 
L 363.439603 35.547078 
L 363.602606 34.296982 
L 363.768202 35.406156 
L 363.939195 37.70207 
L 364.273641 33.244834 
L 364.445173 34.733322 
L 364.610802 32.13618 
L 364.942428 36.128753 
L 365.149659 32.750403 
L 365.277996 37.38946 
L 365.483121 34.749342 
L 365.693161 29.937479 
L 366.188117 37.488791 
L 366.482734 30.418487 
L 366.519435 36.606111 
L 366.685325 31.433641 
L 367.018215 34.312564 
L 367.185628 38.814854 
L 367.52992 34.61818 
L 367.74185 34.830947 
L 368.069412 33.198289 
L 368.223268 36.371502 
L 368.389692 36.74561 
L 368.556487 32.47737 
L 368.77355 34.421693 
L 369.054915 33.906894 
L 369.097542 35.525789 
L 369.261187 33.92638 
L 369.59709 34.680975 
L 369.717568 35.270887 
L 369.809147 32.040655 
L 369.939491 38.51829 
L 370.18811 29.105624 
L 370.495833 36.268649 
L 370.654645 35.771434 
L 370.821023 34.319689 
L 370.98985 35.075141 
L 371.241892 32.223652 
L 371.518107 37.175288 
L 371.766469 35.357202 
L 371.895995 39.075233 
L 372.018108 35.804394 
L 372.223325 41.030643 
L 372.557244 32.77343 
L 373.303165 39.622394 
L 373.396931 35.323408 
L 373.59294 45.578238 
L 373.800147 44.428077 
L 373.926978 42.205209 
L 374.092259 44.431686 
L 374.270184 44.320125 
L 374.633701 40.282701 
L 374.797878 40.761922 
L 374.967332 37.093115 
L 375.138826 37.861861 
L 375.338508 35.044238 
L 375.461779 34.941363 
L 375.766989 35.119908 
L 375.927844 35.71555 
L 376.168486 35.586561 
L 376.368385 35.862866 
L 376.54214 35.893057 
L 376.8735 36.072426 
L 376.915065 35.972558 
L 377.253625 36.013204 
L 377.454899 36.029416 
L 377.539404 35.91993 
L 378.998275 35.935805 
L 379.871843 35.880898 
L 379.954105 35.216085 
L 380.126978 35.991117 
L 380.499005 36.099652 
L 380.623908 35.973206 
L 381.081683 35.84626 
L 381.329692 36.059984 
L 381.579455 35.904976 
L 381.761429 36.146545 
L 381.843829 35.935898 
L 382.496825 35.895573 
L 382.70284 35.467219 
L 382.865877 36.344153 
L 383.042724 35.933812 
L 383.197255 35.929174 
L 383.404982 36.158316 
L 383.735709 36.023834 
L 383.950109 35.882841 
L 384.281288 35.958468 
L 387.682747 35.938798 
L 387.851738 36.00101 
L 388.228413 35.937147 
L 400.236724 35.934922 
L 415.034266 35.936381 
L 426.71952 35.934767 
L 426.71952 35.934767 
" clip-path="url(#pb3c25e875c)" style="fill: none; stroke: #0000ff; stroke-opacity: 0.5; stroke-width: 1.75; stroke-linecap: square"/>
   </g>
   <g id="line2d_28">
    <path d="M 38.502813 113.149085 
L 38.586372 116.914775 
L 38.755356 111.177247 
L 38.804889 115.318457 
L 38.925958 114.389085 
L 39.138881 111.315185 
L 39.341015 113.797107 
L 39.465054 111.488749 
L 39.755109 113.460417 
L 39.921427 112.646803 
L 39.962962 109.758249 
L 40.419091 111.130906 
L 40.502338 110.601492 
L 40.629228 110.827485 
L 40.959149 110.011975 
L 41.165207 113.193058 
L 41.373431 111.640103 
L 41.581581 112.837281 
L 41.745801 116.25616 
L 41.963998 109.94659 
L 42.03648 113.795696 
L 42.202052 111.375387 
L 42.369418 116.007959 
L 42.744351 112.078539 
L 42.907635 111.268405 
L 43.073346 114.118464 
L 43.281243 114.254732 
L 43.489221 110.672288 
L 43.619341 111.24814 
L 43.840433 110.76242 
L 43.947639 115.62387 
L 44.113335 110.436689 
L 44.279421 113.61046 
L 44.570921 109.640517 
L 44.696674 111.87659 
L 44.777286 108.782461 
L 44.947605 108.576626 
L 45.11271 110.215799 
L 45.280153 108.661533 
L 45.483826 109.954264 
L 45.903891 107.749204 
L 46.80912 107.720672 
L 47.717034 112.134098 
L 48.624371 114.953441 
L 49.532758 112.976757 
L 50.440343 108.840034 
L 51.431258 107.439594 
L 52.421423 111.508119 
L 53.329477 112.743412 
L 53.427299 111.331946 
L 53.758412 114.745445 
L 53.924577 114.594303 
L 54.131233 113.373717 
L 54.339744 115.313227 
L 54.629176 108.486037 
L 54.757348 116.756536 
L 55.131559 112.692997 
L 55.295037 116.918153 
L 55.627036 106.260599 
L 56.000476 115.565317 
L 56.13528 114.587829 
L 56.333064 113.996061 
L 56.746749 108.709419 
L 56.829666 114.608751 
L 56.995956 109.377394 
L 57.162972 109.381059 
L 57.380299 113.810898 
L 57.708895 107.238753 
L 57.909483 112.210715 
L 58.243276 108.777966 
L 58.283578 112.415516 
L 58.40757 113.383148 
L 58.617422 106.967178 
L 58.738834 109.147163 
L 58.906011 115.590388 
L 59.112035 117.071737 
L 59.319447 115.868956 
L 59.444054 113.247318 
L 59.57008 113.541185 
L 59.734499 115.900186 
L 60.149775 108.903034 
L 60.482862 118.642346 
L 60.780423 106.544042 
L 60.985313 112.467488 
L 61.31567 109.763205 
L 61.399524 105.921027 
L 61.522231 110.673221 
L 61.856638 112.561099 
L 62.061554 111.285917 
L 62.228562 105.422703 
L 62.352275 108.506963 
L 62.811021 114.668512 
L 63.016444 114.873868 
L 63.057464 112.556687 
L 63.223481 111.122584 
L 63.38946 111.314714 
L 63.555706 109.346157 
L 63.762615 110.035679 
L 63.969792 116.512372 
L 64.138491 113.61361 
L 64.393611 108.129776 
L 64.426358 108.690032 
L 64.59281 108.676207 
L 64.799248 113.684506 
L 64.924123 113.559058 
L 65.133243 112.255909 
L 65.296761 116.984192 
L 65.629405 106.880232 
L 66.001911 118.044115 
L 66.12709 113.696392 
L 66.666937 109.149344 
L 66.831905 111.033376 
L 66.998738 108.08947 
L 67.329425 115.835943 
L 67.712556 102.099834 
L 68.035141 110.784437 
L 68.203445 107.327847 
L 68.532447 107.912989 
L 68.615701 113.509298 
L 68.704602 113.060514 
L 68.870271 105.497537 
L 69.071897 107.906679 
L 69.19689 114.02003 
L 69.362975 112.080308 
L 69.610891 106.956729 
L 69.900835 119.608566 
L 70.067893 117.996391 
L 70.232949 110.04954 
L 70.442476 111.091165 
L 70.647809 116.215247 
L 71.103606 107.151049 
L 71.269688 109.394748 
L 71.435806 109.259517 
L 71.692611 109.638849 
L 72.057258 115.920319 
L 72.306769 106.395303 
L 72.472629 108.844218 
L 72.846086 118.534133 
L 73.219987 111.207316 
L 73.347664 107.763221 
L 73.635317 108.375798 
L 73.71742 107.735514 
L 74.008375 107.903768 
L 74.339542 114.959346 
L 74.387394 112.478596 
L 74.795672 110.807977 
L 75.210143 112.057318 
L 75.500665 113.275417 
L 75.749183 111.052276 
L 75.956217 111.514979 
L 76.247047 115.548393 
L 76.412002 115.279809 
L 76.992949 106.586814 
L 77.326234 117.047122 
L 77.699691 104.620079 
L 77.823074 104.673296 
L 78.156673 110.016748 
L 78.550041 111.51106 
L 78.821169 113.168265 
L 78.942776 107.636531 
L 78.988623 103.463643 
L 79.400009 115.527417 
L 79.743602 105.932935 
L 79.94089 106.128501 
L 80.037769 112.868091 
L 80.229943 118.375989 
L 80.610261 110.135537 
L 80.818879 115.365809 
L 80.99713 115.646962 
L 81.146019 111.769391 
L 81.560211 110.133395 
L 81.654305 118.468065 
L 82.588081 117.89671 
L 83.490609 115.994517 
L 84.484611 114.481858 
L 84.539711 123.794801 
L 84.66477 125.833674 
L 85.082764 113.484289 
L 85.245405 106.142468 
L 85.508625 102.672263 
L 85.675042 106.703754 
L 85.759498 115.769268 
L 86.057746 122.85847 
L 86.760071 108.541477 
L 86.968483 114.003918 
L 87.095991 121.067565 
L 87.299607 124.271658 
L 87.48207 119.65642 
L 87.881858 102.346033 
L 87.964585 101.921152 
L 88.506917 126.942138 
L 88.631045 125.879525 
L 89.143635 111.18124 
L 89.342647 116.327492 
L 89.506136 117.419009 
L 89.671525 113.61736 
L 90.006064 104.051588 
L 90.709146 116.350014 
L 90.881089 112.671004 
L 91.093336 111.217747 
L 91.404457 122.310065 
L 91.642758 122.052619 
L 91.942447 107.275209 
L 92.376081 104.236124 
L 92.570173 117.175737 
L 92.63124 119.244971 
L 92.750864 115.369443 
L 92.964533 113.985532 
L 93.20664 113.575314 
L 93.289089 112.904651 
L 93.454909 113.317784 
L 93.620737 114.975885 
L 93.828095 115.005641 
L 93.954799 114.14701 
L 94.337513 106.398551 
L 94.456954 106.441123 
L 94.708442 106.382806 
L 94.871228 103.354692 
L 95.078358 102.151466 
L 95.164617 106.398063 
L 95.410511 112.058358 
L 95.624723 109.589705 
L 95.700833 99.864536 
L 95.844986 96.85456 
L 96.200006 108.406073 
L 96.533178 101.205971 
L 96.698446 102.37175 
L 97.028904 102.465323 
L 97.074634 100.8052 
L 97.245392 107.025785 
L 97.401903 117.098336 
L 97.699946 122.790432 
L 97.775202 116.264511 
L 97.982493 114.517296 
L 98.233138 121.36758 
L 98.438057 120.695734 
L 98.646014 122.217474 
L 98.77191 124.615698 
L 98.97864 121.725022 
L 99.278061 109.735548 
L 99.479906 112.277902 
L 99.649089 116.438395 
L 99.813818 115.78488 
L 99.975938 114.108248 
L 100.349394 118.240616 
L 100.598244 116.167014 
L 100.84697 109.813169 
L 101.096004 109.903812 
L 101.17921 110.485623 
L 101.344827 110.787023 
L 101.553004 110.728867 
L 101.759046 110.830271 
L 101.966145 110.126315 
L 102.051522 108.866614 
L 102.381921 114.797329 
L 102.547567 117.552857 
L 102.713209 117.808986 
L 103.12737 113.401766 
L 103.252732 113.303895 
L 103.419261 112.975032 
L 104.303186 102.127535 
L 104.664595 108.805412 
L 104.976665 100.727908 
L 105.466524 117.171002 
L 105.84727 104.451507 
L 106.169076 114.013766 
L 106.543079 110.164824 
L 106.958774 116.840857 
L 107.130818 113.368424 
L 107.3753 103.695067 
L 107.747893 109.579843 
L 108.04783 104.353269 
L 108.297433 106.244666 
L 108.449944 109.055002 
L 108.659045 109.415376 
L 108.782339 110.725358 
L 109.114869 112.949145 
L 109.280227 112.878473 
L 109.448473 111.532756 
L 109.623216 113.94791 
L 109.946682 123.475881 
L 110.288654 118.635724 
L 110.456049 103.394569 
L 110.662074 105.645724 
L 110.994486 119.619216 
L 111.159567 119.963017 
L 111.662038 103.22122 
L 111.989816 108.397294 
L 112.196663 114.895167 
L 112.362925 111.812414 
L 112.698424 102.485404 
L 112.859922 104.730611 
L 113.321516 121.859751 
L 113.398649 121.147624 
L 113.776225 108.79795 
L 114.066584 118.142834 
L 114.2706 118.175872 
L 114.601328 110.910163 
L 114.891575 108.578983 
L 115.099502 115.117236 
L 115.431779 115.395655 
L 115.638632 113.340052 
L 115.80555 114.72344 
L 116.095338 119.315512 
L 116.137027 122.132164 
L 116.385323 118.835697 
L 116.468387 110.646601 
L 116.716859 105.656521 
L 117.01656 110.953541 
L 117.25945 117.919492 
L 117.545031 107.427171 
L 117.710841 106.276679 
L 118.045006 112.313064 
L 118.084294 115.711503 
L 118.293001 119.495455 
L 118.541457 108.80071 
L 118.802157 105.607244 
L 119.079652 120.326599 
L 119.286983 120.801757 
L 119.785263 102.644875 
L 119.951768 103.106457 
L 120.201611 109.257866 
L 120.286958 114.587598 
L 120.449973 112.470814 
L 120.822762 94.626716 
L 120.988512 94.506928 
L 121.445842 118.078776 
L 121.693199 120.627253 
L 122.15039 108.424054 
L 122.688828 124.937307 
L 122.899286 121.679545 
L 123.186902 103.67214 
L 123.476608 100.042375 
L 123.891834 116.954586 
L 124.398906 98.814941 
L 124.559032 100.648504 
L 124.93016 113.450841 
L 125.098314 111.947728 
L 125.431834 97.064725 
L 125.593972 99.014309 
L 125.933591 116.428609 
L 126.091208 116.047394 
L 126.505673 112.036361 
L 126.672368 114.475806 
L 126.962461 123.762095 
L 127.129093 122.577875 
L 127.294422 118.566751 
L 127.542028 115.330167 
L 127.832088 123.310624 
L 128.039652 122.655848 
L 128.413767 108.968959 
L 128.538294 109.16182 
L 128.703848 108.990179 
L 128.870071 109.361805 
L 129.201434 106.615332 
L 129.408601 106.810268 
L 129.661747 108.361764 
L 129.906815 111.036819 
L 130.239123 107.668281 
L 130.572201 111.98993 
L 130.864623 111.482671 
L 130.985567 110.066972 
L 131.48284 109.023095 
L 131.649393 108.88864 
L 131.961904 114.796077 
L 132.312427 108.347954 
L 132.568539 112.352447 
L 132.645334 117.750478 
L 132.882257 114.716956 
L 132.990985 105.870411 
L 133.144877 105.346466 
L 133.519284 114.391095 
L 133.84946 104.877592 
L 134.223187 113.632937 
L 134.56689 106.424708 
L 134.893828 116.525663 
L 135.385075 106.754575 
L 135.922919 115.46179 
L 136.266318 114.877967 
L 136.627928 101.733693 
L 136.918521 99.255066 
L 137.179339 111.933515 
L 137.332428 110.055962 
L 137.64509 98.523936 
L 138.1409 109.647228 
L 138.304691 109.052783 
L 138.554916 112.755205 
L 138.802793 112.946895 
L 139.179931 107.123372 
L 139.359433 106.213788 
L 139.524878 106.113531 
L 140.063941 112.927784 
L 140.398704 106.438235 
L 140.574233 109.35516 
L 140.742535 115.97521 
L 140.977349 119.95967 
L 141.26748 107.469121 
L 141.434008 106.37244 
L 141.765256 119.334843 
L 141.944207 118.996767 
L 142.179553 115.380041 
L 142.470084 114.021001 
L 142.677252 112.132707 
L 142.843209 111.766069 
L 142.96762 112.401746 
L 143.132982 111.554716 
L 143.299242 111.753139 
L 143.63131 112.962186 
L 143.796412 115.547865 
L 143.879377 113.841189 
L 144.170493 100.182188 
L 144.376725 103.966481 
L 144.508671 110.437749 
L 144.709156 109.951115 
L 145.044651 94.755177 
L 145.25827 92.130576 
L 145.876184 120.685613 
L 146.21044 111.427251 
L 146.621175 122.387664 
L 146.993667 116.583644 
L 147.326386 114.439295 
L 147.493555 109.091187 
L 147.698753 106.118328 
L 147.78194 110.740158 
L 147.947862 112.293434 
L 148.113469 106.010499 
L 148.320456 107.076317 
L 148.448415 116.042138 
L 148.65207 116.859103 
L 148.984509 103.434443 
L 149.318724 110.038252 
L 149.484374 106.566974 
L 149.663221 106.862554 
L 149.897468 113.97881 
L 150.066368 109.948472 
L 150.190357 101.961412 
L 150.394179 105.500439 
L 150.601677 111.541287 
L 150.887092 102.65437 
L 151.061785 104.093134 
L 151.224985 112.014709 
L 151.392201 112.918818 
L 151.573428 104.305869 
L 151.732652 103.118259 
L 152.100754 109.179782 
L 152.432337 105.491756 
L 152.680639 106.856147 
L 152.763658 108.486624 
L 152.932301 108.631876 
L 153.137106 107.018032 
L 153.343857 107.039172 
L 153.4682 106.392616 
L 153.634433 106.679373 
L 153.885753 106.837822 
L 154.214287 108.863873 
L 154.381146 108.3279 
L 154.670298 96.587944 
L 154.842757 96.974807 
L 155.350152 108.797126 
L 155.583946 101.302336 
L 155.79104 104.536712 
L 156.039565 115.655818 
L 156.205848 116.116457 
L 156.373269 114.931272 
L 156.579114 116.400417 
L 156.829139 116.095436 
L 156.917986 113.818918 
L 157.077547 112.745554 
L 157.242865 114.304704 
L 157.540721 114.894312 
L 157.700653 112.792114 
L 157.783791 108.812971 
L 157.950262 110.076997 
L 158.279995 115.922782 
L 158.44686 117.118256 
L 158.777487 121.312358 
L 159.122653 111.756345 
L 159.441709 112.537815 
L 159.483749 118.157509 
L 159.648926 123.53315 
L 159.81518 124.628153 
L 160.022626 117.854078 
L 160.353977 103.193204 
L 160.6855 115.99782 
L 161.018938 126.965549 
L 161.184162 126.636674 
L 161.68295 113.318399 
L 161.889294 115.244196 
L 162.055113 121.341801 
L 162.263441 123.591229 
L 162.967115 96.346042 
L 163.13347 99.947104 
L 163.423383 116.564009 
L 163.589353 124.564547 
L 163.92475 129.022108 
L 164.265002 131.035405 
L 164.293978 132.485603 
L 164.46354 133.212589 
L 164.636016 127.001788 
L 165.209182 105.743784 
L 165.584616 98.656708 
L 165.830019 87.340966 
L 166.162386 87.057999 
L 166.867456 115.329371 
L 167.37214 109.786253 
L 167.592103 109.960955 
L 167.740271 107.849671 
L 168.238021 96.314558 
L 168.445166 94.588377 
L 168.611864 94.245344 
L 168.776803 94.346222 
L 168.942218 91.589007 
L 169.107821 91.018382 
L 169.315652 93.997528 
L 169.979168 129.774249 
L 170.144858 132.432744 
L 170.311488 131.232976 
L 170.476552 129.020928 
L 170.85002 128.34702 
L 171.390371 120.056941 
L 171.640165 119.964925 
L 172.017345 113.197275 
L 172.224076 111.227589 
L 172.597282 114.856669 
L 172.890431 120.380415 
L 173.219585 122.47446 
L 173.344281 122.370331 
L 173.965146 131.994491 
L 174.089983 131.387826 
L 174.256107 129.430436 
L 174.629721 132.403942 
L 174.835794 132.934426 
L 175.717338 108.814062 
L 176.712839 128.562846 
L 177.211731 133.802206 
L 177.500898 139.311519 
L 177.708732 130.501334 
L 178.206907 110.315811 
L 178.376506 109.603201 
L 178.579448 109.671489 
L 178.706389 110.168594 
L 178.910895 112.510792 
L 179.24249 108.942293 
L 179.49159 110.162338 
L 179.657205 112.739603 
L 179.782056 112.695482 
L 179.947148 113.948113 
L 180.112916 114.276891 
L 180.321054 114.325212 
L 180.528161 117.296263 
L 180.860072 127.012749 
L 181.066874 126.459621 
L 181.152699 126.94346 
L 181.649551 136.404509 
L 182.00196 131.013676 
L 182.168021 124.780276 
L 182.684974 113.989598 
L 183.005638 116.577872 
L 183.099712 116.359407 
L 183.185199 118.370492 
L 183.389727 120.049507 
L 183.556317 125.330108 
L 183.721917 124.367693 
L 183.886987 124.468335 
L 184.052953 125.712188 
L 184.343248 126.514915 
L 184.509088 125.774919 
L 184.846511 132.578426 
L 184.966286 129.77022 
L 185.321087 109.698147 
L 185.589918 101.070912 
L 185.770503 101.517061 
L 186.336448 120.936887 
L 186.462318 120.283295 
L 186.834352 124.743348 
L 187.208633 120.860277 
L 187.335181 120.928342 
L 187.705807 112.384607 
L 187.83031 113.22007 
L 188.038914 112.107713 
L 188.535505 97.194459 
L 188.702007 99.599072 
L 189.323182 96.32972 
L 189.572243 95.444366 
L 189.614787 87.655128 
L 189.737865 87.257264 
L 189.904158 89.270348 
L 190.527056 114.756423 
L 190.817251 136.486731 
L 191.107627 143.877547 
L 191.356029 142.618433 
L 191.811547 127.709573 
L 192.019145 127.921188 
L 192.417055 121.028839 
L 192.725323 122.618068 
L 192.809655 124.691428 
L 193.016079 132.628429 
L 193.265275 135.021504 
L 193.525223 135.981603 
L 193.641482 135.443644 
L 193.719918 132.239491 
L 193.979383 127.619533 
L 194.056481 127.753592 
L 194.383236 129.873608 
L 194.548805 126.022709 
L 194.797579 123.989748 
L 194.922159 124.456794 
L 195.212183 121.749892 
L 195.295114 128.416976 
L 195.461043 131.841426 
L 195.586589 137.061388 
L 195.83521 132.598398 
L 196.124398 119.065302 
L 196.291833 110.239835 
L 196.580732 114.926396 
L 196.748291 120.370048 
L 196.912717 133.816776 
L 196.954617 132.344911 
L 197.119948 132.70618 
L 197.327727 134.75162 
L 197.86703 124.8796 
L 198.003553 127.687704 
L 198.239856 128.418295 
L 198.405795 134.062545 
L 198.541309 130.287141 
L 198.878303 115.268303 
L 199.028913 106.783556 
L 199.235536 102.258592 
L 199.483734 106.359667 
L 199.732634 121.21917 
L 200.0651 127.731112 
L 200.230265 125.335076 
L 200.479468 123.926071 
L 200.648575 128.273687 
L 201.269763 113.265501 
L 201.433198 107.816135 
L 201.599156 106.301118 
L 201.771257 111.285147 
L 201.972225 106.991624 
L 202.096849 107.333797 
L 202.32375 105.373082 
L 202.497627 107.622362 
L 202.933285 110.549108 
L 203.258895 108.935252 
L 203.345358 107.163822 
L 203.591491 107.448591 
L 203.676205 116.111355 
L 203.881319 119.322084 
L 204.010432 123.780914 
L 204.30162 125.601486 
L 204.466335 125.81665 
L 204.544957 122.496444 
L 204.842997 126.576555 
L 204.974216 123.498738 
L 205.211776 110.935725 
L 205.458934 105.240844 
L 205.562396 108.690294 
L 205.79286 106.825272 
L 206.455061 125.34315 
L 206.787181 126.548142 
L 206.953379 123.751587 
L 207.201515 122.02397 
L 207.326492 113.497452 
L 207.533153 114.554073 
L 207.823123 119.217238 
L 208.282167 146.102094 
L 208.654127 162.960724 
L 208.819692 158.883009 
L 209.06875 144.830093 
L 209.275797 147.245001 
L 209.364106 149.985823 
L 209.694221 136.71996 
L 210.022111 131.997193 
L 210.190221 121.041714 
L 210.478378 118.148176 
L 210.562104 124.443833 
L 210.72769 122.993383 
L 210.897039 134.363144 
L 211.060182 136.333501 
L 211.229053 143.39826 
L 211.394521 142.597874 
L 211.572053 142.311711 
L 211.726285 135.52126 
L 211.975693 137.310348 
L 212.016167 137.082732 
L 212.102259 142.068272 
L 212.265662 143.26434 
L 212.431349 146.878243 
L 212.805319 128.513785 
L 212.948447 120.160405 
L 213.097541 123.091351 
L 213.345276 120.072343 
L 213.635086 121.778893 
L 213.800791 137.770688 
L 214.091247 149.183494 
L 214.136742 144.348239 
L 214.329273 147.611746 
L 214.517147 147.550734 
L 214.645376 145.870473 
L 214.961804 146.927277 
L 215.169079 130.438704 
L 215.376665 129.870859 
L 215.708254 124.280237 
L 216.043251 111.688404 
L 216.206865 115.238499 
L 216.41344 112.863089 
L 216.870653 147.052982 
L 217.076131 145.025942 
L 217.242437 146.50549 
L 217.454308 149.589843 
L 217.786303 148.281101 
L 217.947678 149.948545 
L 218.073785 148.041173 
L 218.320226 146.901372 
L 218.652175 141.407624 
L 218.993718 131.234452 
L 219.108845 120.984717 
L 219.647945 146.125306 
L 219.813668 136.793675 
L 220.16022 135.224719 
L 220.313743 123.738814 
L 220.561116 121.667165 
L 220.685603 124.727674 
L 220.851507 139.676483 
L 221.028229 142.378059 
L 221.473407 130.286512 
L 221.556393 120.420611 
L 221.76367 123.571258 
L 221.888417 119.600553 
L 222.13683 122.72629 
L 222.261216 119.879253 
L 222.386698 132.96179 
L 222.551674 131.414931 
L 222.75861 131.151262 
L 222.900334 139.695584 
L 223.299739 148.644423 
L 223.631297 157.728541 
L 223.879809 153.11819 
L 224.088084 152.017368 
L 224.128783 147.640558 
L 224.294277 148.049774 
L 224.501503 137.558673 
L 224.628545 140.3153 
L 224.87638 137.880043 
L 224.999346 130.857871 
L 225.165961 134.678774 
L 225.30129 130.71462 
L 225.500074 132.625926 
L 225.760961 131.239211 
L 226.047075 121.325445 
L 226.207896 109.150052 
L 226.755858 121.671601 
L 227.012404 134.859636 
L 227.342758 149.81946 
L 227.392505 158.219198 
L 227.758081 178.168491 
L 228.131341 155.388435 
L 228.512468 142.295234 
L 228.795006 118.375934 
L 229.043821 117.59251 
L 229.541201 90.479945 
L 229.626368 116.685423 
L 230.038834 93.441723 
L 230.338196 53.13535 
L 230.577786 51.060998 
L 230.662431 38.86621 
L 230.82737 31.239733 
L 231.283205 28.587851 
L 231.344786 29.987704 
L 231.577432 37.920934 
L 231.880109 68.05058 
L 232.258259 92.538154 
L 232.547216 103.448834 
L 232.999197 123.333351 
L 233.206972 137.145323 
L 233.788333 142.994321 
L 233.999199 147.206811 
L 234.080582 151.193836 
L 234.286248 151.929281 
L 234.451681 150.96734 
L 234.783175 145.519282 
L 235.11523 138.945851 
L 235.821818 112.923733 
L 236.151866 99.441745 
L 236.324735 96.073778 
L 236.484455 97.361233 
L 236.651736 102.756784 
L 236.817354 112.675137 
L 237.106334 123.015763 
L 237.189713 131.74442 
L 237.689531 143.35261 
L 237.895417 142.548195 
L 238.14327 139.879235 
L 238.558722 126.99981 
L 239.115918 117.941494 
L 239.387212 118.315916 
L 239.428711 119.850584 
L 239.594769 121.469712 
L 239.760597 124.744321 
L 239.928434 125.857096 
L 240.092821 121.455787 
L 240.466943 106.486787 
L 240.963756 95.834478 
L 241.128739 96.337879 
L 241.419183 98.903686 
L 242.87028 153.202117 
L 243.036737 153.670415 
L 243.409889 144.444915 
L 244.619322 87.385424 
L 244.945504 80.38093 
L 245.278198 77.63432 
L 245.460656 77.853428 
L 245.941777 73.838063 
L 246.106994 73.594527 
L 246.396875 73.455451 
L 246.480254 75.446107 
L 246.813778 77.846645 
L 246.983913 80.194001 
L 247.329504 82.182418 
L 247.528581 84.404113 
L 247.561323 86.143784 
L 247.769858 86.813743 
L 248.141921 91.859731 
L 248.348878 104.64394 
L 248.556392 109.52798 
L 248.88818 113.038834 
L 249.22004 117.833659 
L 249.596948 122.594009 
L 249.718457 121.339533 
L 249.926052 117.175687 
L 250.25687 104.398224 
L 250.506274 101.734965 
L 250.603771 101.759668 
L 250.755353 103.471613 
L 250.920532 107.451829 
L 251.210704 111.052502 
L 251.501144 120.291195 
L 252.007021 141.506859 
L 252.165822 144.175079 
L 252.293748 142.29449 
L 252.706411 132.430954 
L 253.165828 130.571952 
L 253.698526 109.690356 
L 253.864927 112.493259 
L 254.156567 122.376634 
L 254.198387 132.349845 
L 254.406504 138.246218 
L 254.542501 137.123866 
L 254.944477 124.783131 
L 255.110542 124.837723 
L 255.405016 137.102816 
L 255.607942 136.171806 
L 256.271124 111.539836 
L 256.519706 114.234434 
L 256.852167 131.200859 
L 257.059435 132.708149 
L 257.308719 122.352777 
L 257.55682 123.083242 
L 257.764039 129.232992 
L 257.848371 135.721099 
L 258.189664 139.755391 
L 258.344332 135.901993 
L 258.676182 118.913026 
L 258.883911 116.399547 
L 259.090992 120.976727 
L 259.180042 127.710085 
L 259.390162 130.341686 
L 259.555059 130.887061 
L 259.878695 130.224927 
L 260.25215 123.6615 
L 260.378588 125.11787 
L 260.833066 133.355141 
L 260.925458 125.810352 
L 261.291853 116.365888 
L 261.62349 123.175188 
L 261.9967 122.990017 
L 262.121079 125.474194 
L 262.333093 126.049678 
L 262.501148 123.836116 
L 262.702624 123.0253 
L 263.162493 111.975136 
L 263.333761 114.180818 
L 263.698297 129.982918 
L 263.86419 130.382581 
L 264.230218 120.552603 
L 264.697618 137.237406 
L 265.234129 124.432321 
L 265.607052 129.229981 
L 265.73121 129.842378 
L 265.896843 128.930866 
L 266.104126 121.34484 
L 266.311416 118.220319 
L 266.651561 125.126312 
L 266.812423 123.552735 
L 267.143552 108.72058 
L 267.265749 110.35221 
L 267.858294 130.807609 
L 267.971726 126.362426 
L 268.181608 122.937502 
L 268.387957 125.105796 
L 268.679162 132.860007 
L 268.807534 131.020686 
L 269.010967 124.495587 
L 269.633265 118.385217 
L 269.841292 122.575545 
L 270.047991 122.12944 
L 270.545791 126.957534 
L 270.752947 126.141766 
L 271.125855 116.710703 
L 271.377489 124.191886 
L 271.498396 131.295975 
L 271.872285 122.989003 
L 271.913154 114.715361 
L 272.165896 110.987849 
L 272.369808 116.419471 
L 272.413556 124.154406 
L 272.669632 129.940393 
L 272.784705 128.363588 
L 273.199024 112.118905 
L 273.324085 112.061698 
L 273.53568 119.859418 
L 273.82134 135.357187 
L 274.112316 128.976523 
L 274.321023 114.626276 
L 274.680553 123.537553 
L 274.859595 124.351786 
L 275.773336 119.171471 
L 276.394572 129.288387 
L 276.561025 133.035665 
L 276.768191 131.885437 
L 277.182333 118.137184 
L 277.306299 115.87273 
L 277.762832 135.957118 
L 278.260601 116.659047 
L 278.468023 117.728933 
L 278.799534 130.544422 
L 278.965744 133.426093 
L 279.587963 111.6489 
L 279.878463 125.851658 
L 280.084202 131.161979 
L 280.254342 130.476851 
L 280.374434 123.427513 
L 280.707091 114.600655 
L 281.246472 131.630904 
L 281.452269 127.742735 
L 281.742667 115.62338 
L 281.908955 117.342802 
L 282.115753 125.222275 
L 282.240239 136.126089 
L 282.408575 140.701674 
L 282.613615 137.119254 
L 283.195056 119.716672 
L 283.277358 119.448042 
L 283.652216 128.413155 
L 283.942481 125.634654 
L 284.147687 121.052288 
L 284.410977 122.386155 
L 284.483738 124.7211 
L 284.645807 125.643199 
L 284.980294 129.547575 
L 285.146679 127.692027 
L 285.434405 128.025987 
L 285.683437 133.223838 
L 286.185335 140.589478 
L 286.387779 143.153084 
L 286.637106 142.745127 
L 286.719907 140.515656 
L 287.096915 139.501816 
L 287.259239 136.24822 
L 287.924174 113.645395 
L 288.088619 109.65925 
L 288.254177 110.210239 
L 288.503461 112.537645 
L 288.627545 112.137392 
L 288.793406 108.021725 
L 288.959052 106.979481 
L 289.333503 116.872868 
L 289.748963 135.008465 
L 290.163188 157.071307 
L 290.500979 160.880655 
L 290.702783 158.84686 
L 291.034183 143.497236 
L 291.698397 109.227713 
L 291.864183 109.412043 
L 292.030386 112.408277 
L 292.237578 112.474123 
L 292.370664 112.201637 
L 292.534833 112.520658 
L 292.735873 113.714632 
L 292.92118 116.10308 
L 293.607703 131.871195 
L 293.939573 129.209308 
L 294.477985 127.075821 
L 294.851356 119.89685 
L 295.30829 99.75244 
L 295.475827 100.632633 
L 295.849825 108.427609 
L 296.43168 126.570783 
L 296.678688 131.887865 
L 296.845169 131.805439 
L 297.052033 130.499599 
L 297.385752 127.292736 
L 297.759453 134.843463 
L 297.882771 138.508697 
L 298.090962 140.151511 
L 298.256243 143.034508 
L 298.422527 148.750892 
L 298.71228 151.062566 
L 300.118274 80.622663 
L 300.324699 82.155566 
L 301.154643 115.2133 
L 301.530843 120.09382 
L 301.698668 119.798005 
L 301.835811 118.413053 
L 302.026745 115.123526 
L 302.327629 112.901598 
L 302.360864 113.435015 
L 303.065972 123.935605 
L 303.313816 123.997806 
L 303.564915 126.140793 
L 303.895373 123.982963 
L 304.117223 123.145489 
L 304.973517 109.939299 
L 305.099461 110.594506 
L 305.46998 114.680139 
L 305.475902 122.016381 
L 305.639145 127.922252 
L 306.012076 131.01802 
L 306.345573 131.713385 
L 306.676907 133.430499 
L 307.008402 124.681319 
L 307.507939 105.445493 
L 307.799879 103.26563 
L 307.837875 101.492476 
L 308.087747 99.537726 
L 308.215475 97.366408 
L 308.378633 97.320951 
L 308.836812 106.299678 
L 309.101398 120.075327 
L 309.422157 126.575029 
L 309.45809 130.036107 
L 309.624294 134.746924 
L 310.082723 160.618128 
L 310.288257 162.140698 
L 310.458473 159.854902 
L 310.951654 132.94969 
L 311.118262 124.709479 
L 311.417636 117.906268 
L 311.659303 103.873939 
L 311.823265 110.459012 
L 311.99015 102.368065 
L 312.498394 109.996771 
L 312.661092 120.694709 
L 312.841523 124.366014 
L 313.075108 125.7181 
L 313.379178 115.144146 
L 313.577042 114.715928 
L 313.746276 111.307984 
L 314.201629 131.452304 
L 314.578649 112.527101 
L 314.739947 114.699785 
L 314.909075 124.646115 
L 315.166889 130.216235 
L 315.278734 127.780285 
L 315.48951 129.095272 
L 315.818567 116.514397 
L 316.194183 129.486989 
L 316.408253 139.262046 
L 316.797756 117.768674 
L 316.986216 115.811203 
L 317.20556 121.629912 
L 317.320802 127.730464 
L 317.564282 131.194308 
L 317.85523 118.021491 
L 318.187507 107.243633 
L 318.353457 118.080555 
L 318.521708 118.544296 
L 318.85217 135.395671 
L 319.100521 133.454837 
L 319.409494 144.801804 
L 319.558885 141.266638 
L 319.841148 149.593055 
L 320.006421 143.241428 
L 320.136768 142.764713 
L 320.297066 144.168639 
L 320.629841 137.0508 
L 320.753858 126.213976 
L 321.085565 116.705549 
L 321.170351 116.872957 
L 322.499834 150.618084 
L 322.663992 143.597949 
L 322.833021 143.465281 
L 322.996495 135.519242 
L 323.335657 140.548091 
L 323.498092 140.713924 
L 323.706095 133.055972 
L 324.038273 134.867187 
L 324.203811 134.677777 
L 324.370413 130.049616 
L 324.659943 133.37338 
L 324.721012 133.314988 
L 324.909506 123.813744 
L 325.116151 119.063493 
L 325.785326 90.149404 
L 325.947257 88.21609 
L 326.238562 90.499865 
L 326.412047 97.730744 
L 326.78644 121.61532 
L 326.948721 126.033112 
L 327.207242 126.042246 
L 327.32073 124.791065 
L 327.360247 121.345913 
L 327.443537 123.626319 
L 327.816366 120.472871 
L 328.481153 94.840455 
L 328.64752 107.322682 
L 329.072537 111.77987 
L 329.236918 120.926721 
L 329.36207 117.590118 
L 329.652278 115.0174 
L 329.694481 123.943733 
L 329.985262 121.823736 
L 330.19387 132.059476 
L 330.481735 137.360429 
L 330.564866 144.826034 
L 330.731867 146.737473 
L 331.186949 162.572483 
L 331.436321 178.587529 
L 331.60623 177.62464 
L 331.643987 180.831669 
L 331.769346 177.082098 
L 331.934519 176.138335 
L 332.102296 167.554119 
L 332.308094 168.337558 
L 332.43322 162.335042 
L 332.655635 160.571145 
L 332.767125 158.57252 
L 333.514844 133.676628 
L 333.806007 132.126562 
L 334.14328 111.675284 
L 334.859288 92.60314 
L 335.175884 89.406013 
L 335.347981 81.762767 
L 335.723733 86.429455 
L 335.931453 95.391431 
L 336.094646 93.404013 
L 336.386343 111.721474 
L 336.593826 112.387822 
L 336.759288 123.921915 
L 337.533264 153.379722 
L 337.632443 161.114598 
L 337.845969 156.16876 
L 337.964258 156.311503 
L 338.137004 142.501594 
L 338.389539 136.245416 
L 338.633677 122.435536 
L 339.18314 97.856159 
L 339.338692 95.066521 
L 339.503594 80.7565 
L 339.674798 80.429218 
L 339.878088 85.575793 
L 340.005552 75.486855 
L 340.541933 87.973482 
L 340.832671 90.200087 
L 341.236815 105.68971 
L 341.399078 119.525431 
L 341.609234 119.967573 
L 341.737669 131.480688 
L 342.273927 149.053571 
L 342.406038 163.481848 
L 342.605046 166.677077 
L 342.771238 166.66088 
L 342.937427 174.447305 
L 343.435661 178.744696 
L 344.099723 172.925666 
L 344.182432 166.483618 
L 344.348416 162.627526 
L 344.514318 153.573955 
L 344.721412 153.114246 
L 344.993925 138.049328 
L 345.678126 116.786896 
L 345.845578 120.565187 
L 346.109824 115.457178 
L 346.219824 117.312392 
L 346.383739 112.723852 
L 346.570196 113.154919 
L 347.13467 127.279147 
L 348.308348 159.628501 
L 348.515742 158.344862 
L 348.598891 162.236141 
L 348.806141 162.53129 
L 348.977588 160.876316 
L 349.304427 165.780761 
L 349.678685 169.275358 
L 349.844641 167.059693 
L 350.012049 168.127479 
L 350.175789 167.82047 
L 350.34163 165.087681 
L 350.508276 167.285601 
L 350.67893 166.517811 
L 351.75397 122.762932 
L 351.879123 121.124639 
L 352.127203 122.938921 
L 352.418432 114.360407 
L 352.625981 109.857805 
L 352.791429 112.446851 
L 353.098215 109.497442 
L 353.248422 103.799028 
L 353.45844 103.173015 
L 353.662257 109.170378 
L 353.833948 109.657088 
L 353.953568 107.233027 
L 354.121182 117.823848 
L 354.285471 116.517322 
L 354.504945 118.729384 
L 354.79515 127.180242 
L 355.127769 135.178375 
L 355.169495 140.915773 
L 355.376697 148.815779 
L 355.503598 149.115201 
L 355.832743 156.104383 
L 356.165537 173.700698 
L 356.373504 172.128971 
L 356.579788 177.251424 
L 356.70401 177.118658 
L 356.914665 170.847302 
L 357.080208 173.229613 
L 357.911932 144.00865 
L 358.620771 111.581107 
L 358.787003 116.078673 
L 358.953268 106.096704 
L 359.284997 109.896247 
L 359.452832 110.4749 
L 359.658684 118.12012 
L 359.783703 133.846815 
L 360.003568 135.053589 
L 360.156545 144.672661 
L 360.366132 146.875733 
L 360.571805 147.322677 
L 360.695951 148.537824 
L 361.030356 140.198847 
L 361.070572 133.790378 
L 361.194597 133.898713 
L 361.498968 112.918516 
L 361.702593 105.83585 
L 361.858873 94.316829 
L 362.025558 92.088867 
L 362.398408 93.140485 
L 362.522582 98.269092 
L 362.854919 90.034394 
L 363.106715 93.006173 
L 363.939195 117.695702 
L 364.150577 125.982862 
L 364.445173 141.242434 
L 364.610802 151.825734 
L 364.942428 156.345313 
L 365.149659 162.129299 
L 365.277996 159.55332 
L 365.483121 161.215259 
L 365.693161 167.915513 
L 366.032869 152.377539 
L 366.188117 149.99485 
L 366.482734 154.82425 
L 366.519435 147.079109 
L 366.685325 151.954347 
L 366.976192 149.257981 
L 367.185628 138.809747 
L 367.418265 139.547392 
L 367.74185 133.122574 
L 368.069412 124.907287 
L 368.389692 108.019641 
L 368.556487 110.214781 
L 368.77355 101.556759 
L 369.054915 102.992826 
L 369.097542 98.62134 
L 369.261187 101.596982 
L 369.59709 101.400024 
L 369.717568 101.801027 
L 369.809147 107.576937 
L 369.939491 99.060339 
L 370.18811 109.634719 
L 370.495833 97.480239 
L 370.654645 96.993906 
L 370.98985 100.136965 
L 371.241892 108.71208 
L 371.352999 106.812791 
L 371.518107 107.029515 
L 371.766469 111.812646 
L 371.895995 111.820055 
L 372.018108 123.311351 
L 372.223325 123.248143 
L 372.557244 140.473829 
L 372.764978 139.954128 
L 373.396931 123.20681 
L 373.800147 93.905011 
L 373.926978 92.831461 
L 374.092259 86.162704 
L 374.270184 86.795794 
L 374.464896 93.037364 
L 375.461779 151.824468 
L 375.766989 151.327219 
L 376.368385 137.70322 
L 376.54214 130.743577 
L 376.8735 125.673619 
L 376.915065 119.276958 
L 377.253625 107.976469 
L 377.454899 108.214255 
L 377.539404 111.115454 
L 377.888539 116.314888 
L 378.084021 123.587561 
L 378.288234 124.386378 
L 378.582937 133.940615 
L 378.910558 142.350283 
L 378.998275 149.863668 
L 379.256506 154.813113 
L 379.412032 154.79812 
L 379.871843 135.645917 
L 380.126978 119.319236 
L 380.499005 102.226475 
L 380.623908 97.082773 
L 381.453239 84.254772 
L 381.761429 92.695352 
L 382.034838 103.731594 
L 383.042724 133.904036 
L 383.735709 127.371693 
L 383.950109 127.290744 
L 384.111251 127.09008 
L 384.281288 126.505956 
L 384.488208 124.924888 
L 385.136585 107.534541 
L 385.719534 102.373621 
L 385.815429 99.099933 
L 385.96406 99.631305 
L 386.147949 103.694205 
L 386.521018 118.914066 
L 386.647188 128.828592 
L 387.018996 139.938045 
L 387.351105 144.053897 
L 387.517139 145.590597 
L 387.682747 145.080577 
L 388.052322 142.476166 
L 388.441189 143.129873 
L 388.683946 145.351449 
L 388.735995 148.122423 
L 388.895941 150.466494 
L 389.062477 150.747632 
L 389.227035 149.380515 
L 389.598518 140.917897 
L 390.099323 125.319024 
L 391.010809 90.727801 
L 391.314183 88.55075 
L 391.592309 81.453258 
L 391.799805 75.919599 
L 391.974433 77.810871 
L 392.339462 88.528839 
L 393.5832 135.981296 
L 393.707745 139.913064 
L 394.054023 144.43566 
L 394.205611 144.663307 
L 394.496563 143.003591 
L 394.711536 140.585737 
L 394.99346 140.381111 
L 395.132427 140.421446 
L 395.246199 141.730221 
L 395.417503 142.1517 
L 395.574671 141.232165 
L 396.032765 135.637419 
L 396.321821 130.383019 
L 397.833794 102.130313 
L 398.300129 97.302447 
L 398.871829 89.455551 
L 399.124748 87.844868 
L 399.213256 86.225809 
L 399.555667 86.104493 
L 400.774507 148.60658 
L 401.107522 155.586823 
L 401.649446 147.133772 
L 402.662207 100.408974 
L 403.028644 106.176349 
L 403.527578 119.318262 
L 403.787656 124.016791 
L 403.872146 129.735513 
L 404.236486 135.471545 
L 404.871147 111.40957 
L 405.063895 108.223044 
L 405.230788 107.470296 
L 405.605067 111.630173 
L 406.059764 122.974124 
L 406.103855 130.837968 
L 406.612609 148.273822 
L 406.81254 150.832162 
L 406.93591 149.899646 
L 407.352931 136.758212 
L 407.805703 116.244992 
L 407.972272 112.826209 
L 408.162542 112.136443 
L 408.406109 109.871648 
L 408.487228 104.055937 
L 408.695533 99.259081 
L 408.865419 98.174234 
L 409.03928 100.237151 
L 409.571045 116.359922 
L 409.693258 115.323739 
L 410.032881 106.624288 
L 410.231789 108.467908 
L 410.400688 114.490296 
L 410.606602 117.325613 
L 410.858541 116.228861 
L 411.104545 107.782937 
L 411.273016 106.472143 
L 411.519697 109.305418 
L 411.739035 121.157393 
L 411.944933 119.380918 
L 412.113696 114.072447 
L 412.320625 113.863769 
L 412.650406 124.632423 
L 412.900331 125.151882 
L 413.273791 113.2647 
L 413.438985 108.901857 
L 413.522448 110.412844 
L 413.812511 125.914069 
L 414.061829 127.646084 
L 414.353743 116.514456 
L 414.578213 117.927767 
L 414.705744 123.13981 
L 414.87048 125.004846 
L 415.404236 116.110617 
L 415.538946 114.942435 
L 415.902317 117.980245 
L 416.068472 116.805141 
L 416.284316 113.055258 
L 416.40005 113.093034 
L 416.651214 115.186155 
L 416.745843 118.228922 
L 416.9404 117.967709 
L 417.316196 113.816437 
L 417.52143 113.840465 
L 417.686851 123.519346 
L 417.977769 128.862935 
L 418.104214 133.858942 
L 418.64112 124.275438 
L 418.766353 128.019789 
L 418.994337 131.47815 
L 419.158762 129.984457 
L 419.718741 105.15211 
L 419.843127 106.236805 
L 420.100589 111.946658 
L 420.218695 117.657628 
L 420.426032 121.129221 
L 420.717427 118.195319 
L 420.886897 116.028685 
L 421.048365 116.116047 
L 421.422194 121.906276 
L 421.925439 111.96061 
L 422.090896 111.950096 
L 422.959297 118.479902 
L 423.33962 116.535689 
L 423.711812 120.349207 
L 424.00377 108.400603 
L 424.4582 112.854757 
L 424.625419 113.706203 
L 424.831484 116.361098 
L 425.004725 116.206997 
L 425.163008 114.855224 
L 425.333239 112.208909 
L 425.578756 112.544494 
L 426.035878 118.185035 
L 426.366406 113.083975 
L 426.552446 113.480786 
L 426.71952 114.230633 
L 426.71952 114.230633 
" clip-path="url(#pb3c25e875c)" style="fill: none; stroke: #ff0000; stroke-opacity: 0.5; stroke-width: 1.75; stroke-linecap: square"/>
   </g>
   <g id="patch_3">
    <path d="M 38.502813 184.36327 
L 38.502813 0.72 
" style="fill: none; stroke: #000000; stroke-width: 0.8; stroke-linejoin: miter; stroke-linecap: square"/>
   </g>
   <g id="patch_4">
    <path d="M 426.71952 184.36327 
L 426.71952 0.72 
" style="fill: none; stroke: #000000; stroke-width: 0.8; stroke-linejoin: miter; stroke-linecap: square"/>
   </g>
   <g id="patch_5">
    <path d="M 38.502813 184.36327 
L 426.71952 184.36327 
" style="fill: none; stroke: #000000; stroke-width: 0.8; stroke-linejoin: miter; stroke-linecap: square"/>
   </g>
   <g id="patch_6">
    <path d="M 38.502813 0.72 
L 426.71952 0.72 
" style="fill: none; stroke: #000000; stroke-width: 0.8; stroke-linejoin: miter; stroke-linecap: square"/>
   </g>
   <g id="legend_1">
    <g id="patch_7">
     <path d="M 45.502813 179.36327 
L 119.271563 179.36327 
Q 121.271563 179.36327 121.271563 177.36327 
L 121.271563 149.00702 
Q 121.271563 147.00702 119.271563 147.00702 
L 45.502813 147.00702 
Q 43.502813 147.00702 43.502813 149.00702 
L 43.502813 177.36327 
Q 43.502813 179.36327 45.502813 179.36327 
z
" style="fill: #ffffff; opacity: 0.8; stroke: #cccccc; stroke-linejoin: miter"/>
    </g>
    <g id="line2d_29">
     <path d="M 47.502813 155.105457 
L 57.502813 155.105457 
L 67.502813 155.105457 
" style="fill: none; stroke: #0000ff; stroke-opacity: 0.5; stroke-width: 1.75; stroke-linecap: square"/>
    </g>
    <g id="text_16">
     <!-- RNEA -->
     <g transform="translate(75.502813 158.605457) scale(0.1 -0.1)">
      <defs>
       <path id="DejaVuSans-52" d="M 2841 2188 
Q 3044 2119 3236 1894 
Q 3428 1669 3622 1275 
L 4263 0 
L 3584 0 
L 2988 1197 
Q 2756 1666 2539 1819 
Q 2322 1972 1947 1972 
L 1259 1972 
L 1259 0 
L 628 0 
L 628 4666 
L 2053 4666 
Q 2853 4666 3247 4331 
Q 3641 3997 3641 3322 
Q 3641 2881 3436 2590 
Q 3231 2300 2841 2188 
z
M 1259 4147 
L 1259 2491 
L 2053 2491 
Q 2509 2491 2742 2702 
Q 2975 2913 2975 3322 
Q 2975 3731 2742 3939 
Q 2509 4147 2053 4147 
L 1259 4147 
z
" transform="scale(0.015625)"/>
       <path id="DejaVuSans-45" d="M 628 4666 
L 3578 4666 
L 3578 4134 
L 1259 4134 
L 1259 2753 
L 3481 2753 
L 3481 2222 
L 1259 2222 
L 1259 531 
L 3634 531 
L 3634 0 
L 628 0 
L 628 4666 
z
" transform="scale(0.015625)"/>
       <path id="DejaVuSans-41" d="M 2188 4044 
L 1331 1722 
L 3047 1722 
L 2188 4044 
z
M 1831 4666 
L 2547 4666 
L 4325 0 
L 3669 0 
L 3244 1197 
L 1141 1197 
L 716 0 
L 50 0 
L 1831 4666 
z
" transform="scale(0.015625)"/>
      </defs>
      <use xlink:href="#DejaVuSans-52"/>
      <use xlink:href="#DejaVuSans-4e" x="69.482422"/>
      <use xlink:href="#DejaVuSans-45" x="144.287109"/>
      <use xlink:href="#DejaVuSans-41" x="207.470703"/>
     </g>
    </g>
    <g id="line2d_30">
     <path d="M 47.502813 169.783582 
L 57.502813 169.783582 
L 67.502813 169.783582 
" style="fill: none; stroke: #ff0000; stroke-opacity: 0.5; stroke-width: 1.75; stroke-linecap: square"/>
    </g>
    <g id="text_17">
     <!-- BURNEA -->
     <g transform="translate(75.502813 173.283582) scale(0.1 -0.1)">
      <defs>
       <path id="DejaVuSans-42" d="M 1259 2228 
L 1259 519 
L 2272 519 
Q 2781 519 3026 730 
Q 3272 941 3272 1375 
Q 3272 1813 3026 2020 
Q 2781 2228 2272 2228 
L 1259 2228 
z
M 1259 4147 
L 1259 2741 
L 2194 2741 
Q 2656 2741 2882 2914 
Q 3109 3088 3109 3444 
Q 3109 3797 2882 3972 
Q 2656 4147 2194 4147 
L 1259 4147 
z
M 628 4666 
L 2241 4666 
Q 2963 4666 3353 4366 
Q 3744 4066 3744 3513 
Q 3744 3084 3544 2831 
Q 3344 2578 2956 2516 
Q 3422 2416 3680 2098 
Q 3938 1781 3938 1306 
Q 3938 681 3513 340 
Q 3088 0 2303 0 
L 628 0 
L 628 4666 
z
" transform="scale(0.015625)"/>
       <path id="DejaVuSans-55" d="M 556 4666 
L 1191 4666 
L 1191 1831 
Q 1191 1081 1462 751 
Q 1734 422 2344 422 
Q 2950 422 3222 751 
Q 3494 1081 3494 1831 
L 3494 4666 
L 4128 4666 
L 4128 1753 
Q 4128 841 3676 375 
Q 3225 -91 2344 -91 
Q 1459 -91 1007 375 
Q 556 841 556 1753 
L 556 4666 
z
" transform="scale(0.015625)"/>
      </defs>
      <use xlink:href="#DejaVuSans-42"/>
      <use xlink:href="#DejaVuSans-55" x="68.603516"/>
      <use xlink:href="#DejaVuSans-52" x="141.796875"/>
      <use xlink:href="#DejaVuSans-4e" x="211.279297"/>
      <use xlink:href="#DejaVuSans-45" x="286.083984"/>
      <use xlink:href="#DejaVuSans-41" x="349.267578"/>
     </g>
    </g>
   </g>
  </g>
 </g>
 <defs>
  <clipPath id="pb3c25e875c">
   <rect x="38.502813" y="0.72" width="388.216708" height="183.64327"/>
  </clipPath>
 </defs>
</svg>
