<?xml version="1.0" encoding="utf-8" standalone="no"?>
<!DOCTYPE svg PUBLIC "-//W3C//DTD SVG 1.1//EN"
  "http://www.w3.org/Graphics/SVG/1.1/DTD/svg11.dtd">
<svg xmlns:xlink="http://www.w3.org/1999/xlink" width="597.222813pt" height="305.802906pt" viewBox="0 0 597.222813 305.802906" xmlns="http://www.w3.org/2000/svg" version="1.1">
 <metadata>
  <rdf:RDF xmlns:dc="http://purl.org/dc/elements/1.1/" xmlns:cc="http://creativecommons.org/ns#" xmlns:rdf="http://www.w3.org/1999/02/22-rdf-syntax-ns#">
   <cc:Work>
    <dc:type rdf:resource="http://purl.org/dc/dcmitype/StillImage"/>
    <dc:date>2023-09-05T13:16:58.015274</dc:date>
    <dc:format>image/svg+xml</dc:format>
    <dc:creator>
     <cc:Agent>
      <dc:title>Matplotlib v3.7.2, https://matplotlib.org/</dc:title>
     </cc:Agent>
    </dc:creator>
   </cc:Work>
  </rdf:RDF>
 </metadata>
 <defs>
  <style type="text/css">*{stroke-linejoin: round; stroke-linecap: butt}</style>
 </defs>
 <g id="figure_1">
  <g id="patch_1">
   <path d="M 0 305.802906 
L 597.222813 305.802906 
L 597.222813 0 
L 0 0 
L 0 305.802906 
z
" style="fill: none"/>
  </g>
  <g id="axes_1">
   <g id="patch_2">
    <path d="M 38.502813 278.726656 
L 596.502813 278.726656 
L 596.502813 1.526656 
L 38.502813 1.526656 
L 38.502813 278.726656 
z
" style="fill: none"/>
   </g>
   <g id="matplotlib.axis_1">
    <g id="xtick_1">
     <g id="line2d_1">
      <path d="M 38.502813 278.726656 
L 38.502813 1.526656 
" clip-path="url(#p524bbbb8a9)" style="fill: none; stroke-dasharray: 0.8,1.32; stroke-dashoffset: 0; stroke: #000000; stroke-opacity: 0.5; stroke-width: 0.8"/>
     </g>
     <g id="line2d_2">
      <defs>
       <path id="m324a7623a3" d="M 0 0 
L 0 3.5 
" style="stroke: #000000; stroke-width: 0.8"/>
      </defs>
      <g>
       <use xlink:href="#m324a7623a3" x="38.502813" y="278.726656" style="stroke: #000000; stroke-width: 0.8"/>
      </g>
     </g>
     <g id="text_1">
      <!-- 0.0 -->
      <g transform="translate(30.55125 293.325094) scale(0.1 -0.1)">
       <defs>
        <path id="DejaVuSans-30" d="M 2034 4250 
Q 1547 4250 1301 3770 
Q 1056 3291 1056 2328 
Q 1056 1369 1301 889 
Q 1547 409 2034 409 
Q 2525 409 2770 889 
Q 3016 1369 3016 2328 
Q 3016 3291 2770 3770 
Q 2525 4250 2034 4250 
z
M 2034 4750 
Q 2819 4750 3233 4129 
Q 3647 3509 3647 2328 
Q 3647 1150 3233 529 
Q 2819 -91 2034 -91 
Q 1250 -91 836 529 
Q 422 1150 422 2328 
Q 422 3509 836 4129 
Q 1250 4750 2034 4750 
z
" transform="scale(0.015625)"/>
        <path id="DejaVuSans-2e" d="M 684 794 
L 1344 794 
L 1344 0 
L 684 0 
L 684 794 
z
" transform="scale(0.015625)"/>
       </defs>
       <use xlink:href="#DejaVuSans-30"/>
       <use xlink:href="#DejaVuSans-2e" x="63.623047"/>
       <use xlink:href="#DejaVuSans-30" x="95.410156"/>
      </g>
     </g>
    </g>
    <g id="xtick_2">
     <g id="line2d_3">
      <path d="M 112.654137 278.726656 
L 112.654137 1.526656 
" clip-path="url(#p524bbbb8a9)" style="fill: none; stroke-dasharray: 0.8,1.32; stroke-dashoffset: 0; stroke: #000000; stroke-opacity: 0.5; stroke-width: 0.8"/>
     </g>
     <g id="line2d_4">
      <g>
       <use xlink:href="#m324a7623a3" x="112.654137" y="278.726656" style="stroke: #000000; stroke-width: 0.8"/>
      </g>
     </g>
     <g id="text_2">
      <!-- 2.5 -->
      <g transform="translate(104.702575 293.325094) scale(0.1 -0.1)">
       <defs>
        <path id="DejaVuSans-32" d="M 1228 531 
L 3431 531 
L 3431 0 
L 469 0 
L 469 531 
Q 828 903 1448 1529 
Q 2069 2156 2228 2338 
Q 2531 2678 2651 2914 
Q 2772 3150 2772 3378 
Q 2772 3750 2511 3984 
Q 2250 4219 1831 4219 
Q 1534 4219 1204 4116 
Q 875 4013 500 3803 
L 500 4441 
Q 881 4594 1212 4672 
Q 1544 4750 1819 4750 
Q 2544 4750 2975 4387 
Q 3406 4025 3406 3419 
Q 3406 3131 3298 2873 
Q 3191 2616 2906 2266 
Q 2828 2175 2409 1742 
Q 1991 1309 1228 531 
z
" transform="scale(0.015625)"/>
        <path id="DejaVuSans-35" d="M 691 4666 
L 3169 4666 
L 3169 4134 
L 1269 4134 
L 1269 2991 
Q 1406 3038 1543 3061 
Q 1681 3084 1819 3084 
Q 2600 3084 3056 2656 
Q 3513 2228 3513 1497 
Q 3513 744 3044 326 
Q 2575 -91 1722 -91 
Q 1428 -91 1123 -41 
Q 819 9 494 109 
L 494 744 
Q 775 591 1075 516 
Q 1375 441 1709 441 
Q 2250 441 2565 725 
Q 2881 1009 2881 1497 
Q 2881 1984 2565 2268 
Q 2250 2553 1709 2553 
Q 1456 2553 1204 2497 
Q 953 2441 691 2322 
L 691 4666 
z
" transform="scale(0.015625)"/>
       </defs>
       <use xlink:href="#DejaVuSans-32"/>
       <use xlink:href="#DejaVuSans-2e" x="63.623047"/>
       <use xlink:href="#DejaVuSans-35" x="95.410156"/>
      </g>
     </g>
    </g>
    <g id="xtick_3">
     <g id="line2d_5">
      <path d="M 186.805462 278.726656 
L 186.805462 1.526656 
" clip-path="url(#p524bbbb8a9)" style="fill: none; stroke-dasharray: 0.8,1.32; stroke-dashoffset: 0; stroke: #000000; stroke-opacity: 0.5; stroke-width: 0.8"/>
     </g>
     <g id="line2d_6">
      <g>
       <use xlink:href="#m324a7623a3" x="186.805462" y="278.726656" style="stroke: #000000; stroke-width: 0.8"/>
      </g>
     </g>
     <g id="text_3">
      <!-- 5.0 -->
      <g transform="translate(178.8539 293.325094) scale(0.1 -0.1)">
       <use xlink:href="#DejaVuSans-35"/>
       <use xlink:href="#DejaVuSans-2e" x="63.623047"/>
       <use xlink:href="#DejaVuSans-30" x="95.410156"/>
      </g>
     </g>
    </g>
    <g id="xtick_4">
     <g id="line2d_7">
      <path d="M 260.956787 278.726656 
L 260.956787 1.526656 
" clip-path="url(#p524bbbb8a9)" style="fill: none; stroke-dasharray: 0.8,1.32; stroke-dashoffset: 0; stroke: #000000; stroke-opacity: 0.5; stroke-width: 0.8"/>
     </g>
     <g id="line2d_8">
      <g>
       <use xlink:href="#m324a7623a3" x="260.956787" y="278.726656" style="stroke: #000000; stroke-width: 0.8"/>
      </g>
     </g>
     <g id="text_4">
      <!-- 7.5 -->
      <g transform="translate(253.005225 293.325094) scale(0.1 -0.1)">
       <defs>
        <path id="DejaVuSans-37" d="M 525 4666 
L 3525 4666 
L 3525 4397 
L 1831 0 
L 1172 0 
L 2766 4134 
L 525 4134 
L 525 4666 
z
" transform="scale(0.015625)"/>
       </defs>
       <use xlink:href="#DejaVuSans-37"/>
       <use xlink:href="#DejaVuSans-2e" x="63.623047"/>
       <use xlink:href="#DejaVuSans-35" x="95.410156"/>
      </g>
     </g>
    </g>
    <g id="xtick_5">
     <g id="line2d_9">
      <path d="M 335.108112 278.726656 
L 335.108112 1.526656 
" clip-path="url(#p524bbbb8a9)" style="fill: none; stroke-dasharray: 0.8,1.32; stroke-dashoffset: 0; stroke: #000000; stroke-opacity: 0.5; stroke-width: 0.8"/>
     </g>
     <g id="line2d_10">
      <g>
       <use xlink:href="#m324a7623a3" x="335.108112" y="278.726656" style="stroke: #000000; stroke-width: 0.8"/>
      </g>
     </g>
     <g id="text_5">
      <!-- 10.0 -->
      <g transform="translate(323.9753 293.325094) scale(0.1 -0.1)">
       <defs>
        <path id="DejaVuSans-31" d="M 794 531 
L 1825 531 
L 1825 4091 
L 703 3866 
L 703 4441 
L 1819 4666 
L 2450 4666 
L 2450 531 
L 3481 531 
L 3481 0 
L 794 0 
L 794 531 
z
" transform="scale(0.015625)"/>
       </defs>
       <use xlink:href="#DejaVuSans-31"/>
       <use xlink:href="#DejaVuSans-30" x="63.623047"/>
       <use xlink:href="#DejaVuSans-2e" x="127.246094"/>
       <use xlink:href="#DejaVuSans-30" x="159.033203"/>
      </g>
     </g>
    </g>
    <g id="xtick_6">
     <g id="line2d_11">
      <path d="M 409.259437 278.726656 
L 409.259437 1.526656 
" clip-path="url(#p524bbbb8a9)" style="fill: none; stroke-dasharray: 0.8,1.32; stroke-dashoffset: 0; stroke: #000000; stroke-opacity: 0.5; stroke-width: 0.8"/>
     </g>
     <g id="line2d_12">
      <g>
       <use xlink:href="#m324a7623a3" x="409.259437" y="278.726656" style="stroke: #000000; stroke-width: 0.8"/>
      </g>
     </g>
     <g id="text_6">
      <!-- 12.5 -->
      <g transform="translate(398.126625 293.325094) scale(0.1 -0.1)">
       <use xlink:href="#DejaVuSans-31"/>
       <use xlink:href="#DejaVuSans-32" x="63.623047"/>
       <use xlink:href="#DejaVuSans-2e" x="127.246094"/>
       <use xlink:href="#DejaVuSans-35" x="159.033203"/>
      </g>
     </g>
    </g>
    <g id="xtick_7">
     <g id="line2d_13">
      <path d="M 483.410762 278.726656 
L 483.410762 1.526656 
" clip-path="url(#p524bbbb8a9)" style="fill: none; stroke-dasharray: 0.8,1.32; stroke-dashoffset: 0; stroke: #000000; stroke-opacity: 0.5; stroke-width: 0.8"/>
     </g>
     <g id="line2d_14">
      <g>
       <use xlink:href="#m324a7623a3" x="483.410762" y="278.726656" style="stroke: #000000; stroke-width: 0.8"/>
      </g>
     </g>
     <g id="text_7">
      <!-- 15.0 -->
      <g transform="translate(472.27795 293.325094) scale(0.1 -0.1)">
       <use xlink:href="#DejaVuSans-31"/>
       <use xlink:href="#DejaVuSans-35" x="63.623047"/>
       <use xlink:href="#DejaVuSans-2e" x="127.246094"/>
       <use xlink:href="#DejaVuSans-30" x="159.033203"/>
      </g>
     </g>
    </g>
    <g id="xtick_8">
     <g id="line2d_15">
      <path d="M 557.562087 278.726656 
L 557.562087 1.526656 
" clip-path="url(#p524bbbb8a9)" style="fill: none; stroke-dasharray: 0.8,1.32; stroke-dashoffset: 0; stroke: #000000; stroke-opacity: 0.5; stroke-width: 0.8"/>
     </g>
     <g id="line2d_16">
      <g>
       <use xlink:href="#m324a7623a3" x="557.562087" y="278.726656" style="stroke: #000000; stroke-width: 0.8"/>
      </g>
     </g>
     <g id="text_8">
      <!-- 17.5 -->
      <g transform="translate(546.429274 293.325094) scale(0.1 -0.1)">
       <use xlink:href="#DejaVuSans-31"/>
       <use xlink:href="#DejaVuSans-37" x="63.623047"/>
       <use xlink:href="#DejaVuSans-2e" x="127.246094"/>
       <use xlink:href="#DejaVuSans-35" x="159.033203"/>
      </g>
     </g>
    </g>
    <g id="text_9">
     <!-- Zeit [s] -->
     <g transform="translate(299.556719 303.003219) scale(0.1 -0.1)">
      <defs>
       <path id="DejaVuSans-5a" d="M 359 4666 
L 4025 4666 
L 4025 4184 
L 1075 531 
L 4097 531 
L 4097 0 
L 288 0 
L 288 481 
L 3238 4134 
L 359 4134 
L 359 4666 
z
" transform="scale(0.015625)"/>
       <path id="DejaVuSans-65" d="M 3597 1894 
L 3597 1613 
L 953 1613 
Q 991 1019 1311 708 
Q 1631 397 2203 397 
Q 2534 397 2845 478 
Q 3156 559 3463 722 
L 3463 178 
Q 3153 47 2828 -22 
Q 2503 -91 2169 -91 
Q 1331 -91 842 396 
Q 353 884 353 1716 
Q 353 2575 817 3079 
Q 1281 3584 2069 3584 
Q 2775 3584 3186 3129 
Q 3597 2675 3597 1894 
z
M 3022 2063 
Q 3016 2534 2758 2815 
Q 2500 3097 2075 3097 
Q 1594 3097 1305 2825 
Q 1016 2553 972 2059 
L 3022 2063 
z
" transform="scale(0.015625)"/>
       <path id="DejaVuSans-69" d="M 603 3500 
L 1178 3500 
L 1178 0 
L 603 0 
L 603 3500 
z
M 603 4863 
L 1178 4863 
L 1178 4134 
L 603 4134 
L 603 4863 
z
" transform="scale(0.015625)"/>
       <path id="DejaVuSans-74" d="M 1172 4494 
L 1172 3500 
L 2356 3500 
L 2356 3053 
L 1172 3053 
L 1172 1153 
Q 1172 725 1289 603 
Q 1406 481 1766 481 
L 2356 481 
L 2356 0 
L 1766 0 
Q 1100 0 847 248 
Q 594 497 594 1153 
L 594 3053 
L 172 3053 
L 172 3500 
L 594 3500 
L 594 4494 
L 1172 4494 
z
" transform="scale(0.015625)"/>
       <path id="DejaVuSans-20" transform="scale(0.015625)"/>
       <path id="DejaVuSans-5b" d="M 550 4863 
L 1875 4863 
L 1875 4416 
L 1125 4416 
L 1125 -397 
L 1875 -397 
L 1875 -844 
L 550 -844 
L 550 4863 
z
" transform="scale(0.015625)"/>
       <path id="DejaVuSans-73" d="M 2834 3397 
L 2834 2853 
Q 2591 2978 2328 3040 
Q 2066 3103 1784 3103 
Q 1356 3103 1142 2972 
Q 928 2841 928 2578 
Q 928 2378 1081 2264 
Q 1234 2150 1697 2047 
L 1894 2003 
Q 2506 1872 2764 1633 
Q 3022 1394 3022 966 
Q 3022 478 2636 193 
Q 2250 -91 1575 -91 
Q 1294 -91 989 -36 
Q 684 19 347 128 
L 347 722 
Q 666 556 975 473 
Q 1284 391 1588 391 
Q 1994 391 2212 530 
Q 2431 669 2431 922 
Q 2431 1156 2273 1281 
Q 2116 1406 1581 1522 
L 1381 1569 
Q 847 1681 609 1914 
Q 372 2147 372 2553 
Q 372 3047 722 3315 
Q 1072 3584 1716 3584 
Q 2034 3584 2315 3537 
Q 2597 3491 2834 3397 
z
" transform="scale(0.015625)"/>
       <path id="DejaVuSans-5d" d="M 1947 4863 
L 1947 -844 
L 622 -844 
L 622 -397 
L 1369 -397 
L 1369 4416 
L 622 4416 
L 622 4863 
L 1947 4863 
z
" transform="scale(0.015625)"/>
      </defs>
      <use xlink:href="#DejaVuSans-5a"/>
      <use xlink:href="#DejaVuSans-65" x="68.505859"/>
      <use xlink:href="#DejaVuSans-69" x="130.029297"/>
      <use xlink:href="#DejaVuSans-74" x="157.8125"/>
      <use xlink:href="#DejaVuSans-20" x="197.021484"/>
      <use xlink:href="#DejaVuSans-5b" x="228.808594"/>
      <use xlink:href="#DejaVuSans-73" x="267.822266"/>
      <use xlink:href="#DejaVuSans-5d" x="319.921875"/>
     </g>
    </g>
   </g>
   <g id="matplotlib.axis_2">
    <g id="ytick_1">
     <g id="line2d_17">
      <path d="M 38.502813 226.025427 
L 596.502813 226.025427 
" clip-path="url(#p524bbbb8a9)" style="fill: none; stroke-dasharray: 0.8,1.32; stroke-dashoffset: 0; stroke: #000000; stroke-opacity: 0.5; stroke-width: 0.8"/>
     </g>
     <g id="line2d_18">
      <defs>
       <path id="m4e9d642468" d="M 0 0 
L -3.5 0 
" style="stroke: #000000; stroke-width: 0.8"/>
      </defs>
      <g>
       <use xlink:href="#m4e9d642468" x="38.502813" y="226.025427" style="stroke: #000000; stroke-width: 0.8"/>
      </g>
     </g>
     <g id="text_10">
      <!-- −20 -->
      <g transform="translate(10.398125 229.824646) scale(0.1 -0.1)">
       <defs>
        <path id="DejaVuSans-2212" d="M 678 2272 
L 4684 2272 
L 4684 1741 
L 678 1741 
L 678 2272 
z
" transform="scale(0.015625)"/>
       </defs>
       <use xlink:href="#DejaVuSans-2212"/>
       <use xlink:href="#DejaVuSans-32" x="83.789062"/>
       <use xlink:href="#DejaVuSans-30" x="147.412109"/>
      </g>
     </g>
    </g>
    <g id="ytick_2">
     <g id="line2d_19">
      <path d="M 38.502813 170.648875 
L 596.502813 170.648875 
" clip-path="url(#p524bbbb8a9)" style="fill: none; stroke-dasharray: 0.8,1.32; stroke-dashoffset: 0; stroke: #000000; stroke-opacity: 0.5; stroke-width: 0.8"/>
     </g>
     <g id="line2d_20">
      <g>
       <use xlink:href="#m4e9d642468" x="38.502813" y="170.648875" style="stroke: #000000; stroke-width: 0.8"/>
      </g>
     </g>
     <g id="text_11">
      <!-- −10 -->
      <g transform="translate(10.398125 174.448094) scale(0.1 -0.1)">
       <use xlink:href="#DejaVuSans-2212"/>
       <use xlink:href="#DejaVuSans-31" x="83.789062"/>
       <use xlink:href="#DejaVuSans-30" x="147.412109"/>
      </g>
     </g>
    </g>
    <g id="ytick_3">
     <g id="line2d_21">
      <path d="M 38.502813 115.272323 
L 596.502813 115.272323 
" clip-path="url(#p524bbbb8a9)" style="fill: none; stroke-dasharray: 0.8,1.32; stroke-dashoffset: 0; stroke: #000000; stroke-opacity: 0.5; stroke-width: 0.8"/>
     </g>
     <g id="line2d_22">
      <g>
       <use xlink:href="#m4e9d642468" x="38.502813" y="115.272323" style="stroke: #000000; stroke-width: 0.8"/>
      </g>
     </g>
     <g id="text_12">
      <!-- 0 -->
      <g transform="translate(25.140313 119.071542) scale(0.1 -0.1)">
       <use xlink:href="#DejaVuSans-30"/>
      </g>
     </g>
    </g>
    <g id="ytick_4">
     <g id="line2d_23">
      <path d="M 38.502813 59.895771 
L 596.502813 59.895771 
" clip-path="url(#p524bbbb8a9)" style="fill: none; stroke-dasharray: 0.8,1.32; stroke-dashoffset: 0; stroke: #000000; stroke-opacity: 0.5; stroke-width: 0.8"/>
     </g>
     <g id="line2d_24">
      <g>
       <use xlink:href="#m4e9d642468" x="38.502813" y="59.895771" style="stroke: #000000; stroke-width: 0.8"/>
      </g>
     </g>
     <g id="text_13">
      <!-- 10 -->
      <g transform="translate(18.777813 63.69499) scale(0.1 -0.1)">
       <use xlink:href="#DejaVuSans-31"/>
       <use xlink:href="#DejaVuSans-30" x="63.623047"/>
      </g>
     </g>
    </g>
    <g id="ytick_5">
     <g id="line2d_25">
      <path d="M 38.502813 4.519219 
L 596.502813 4.519219 
" clip-path="url(#p524bbbb8a9)" style="fill: none; stroke-dasharray: 0.8,1.32; stroke-dashoffset: 0; stroke: #000000; stroke-opacity: 0.5; stroke-width: 0.8"/>
     </g>
     <g id="line2d_26">
      <g>
       <use xlink:href="#m4e9d642468" x="38.502813" y="4.519219" style="stroke: #000000; stroke-width: 0.8"/>
      </g>
     </g>
     <g id="text_14">
      <!-- 20 -->
      <g transform="translate(18.777813 8.318438) scale(0.1 -0.1)">
       <use xlink:href="#DejaVuSans-32"/>
       <use xlink:href="#DejaVuSans-30" x="63.623047"/>
      </g>
     </g>
    </g>
    <g id="text_15">
     <!-- Kraft [N] -->
     <g transform="translate(8.318438 161.389156) rotate(-90) scale(0.1 -0.1)">
      <defs>
       <path id="DejaVuSans-4b" d="M 628 4666 
L 1259 4666 
L 1259 2694 
L 3353 4666 
L 4166 4666 
L 1850 2491 
L 4331 0 
L 3500 0 
L 1259 2247 
L 1259 0 
L 628 0 
L 628 4666 
z
" transform="scale(0.015625)"/>
       <path id="DejaVuSans-72" d="M 2631 2963 
Q 2534 3019 2420 3045 
Q 2306 3072 2169 3072 
Q 1681 3072 1420 2755 
Q 1159 2438 1159 1844 
L 1159 0 
L 581 0 
L 581 3500 
L 1159 3500 
L 1159 2956 
Q 1341 3275 1631 3429 
Q 1922 3584 2338 3584 
Q 2397 3584 2469 3576 
Q 2541 3569 2628 3553 
L 2631 2963 
z
" transform="scale(0.015625)"/>
       <path id="DejaVuSans-61" d="M 2194 1759 
Q 1497 1759 1228 1600 
Q 959 1441 959 1056 
Q 959 750 1161 570 
Q 1363 391 1709 391 
Q 2188 391 2477 730 
Q 2766 1069 2766 1631 
L 2766 1759 
L 2194 1759 
z
M 3341 1997 
L 3341 0 
L 2766 0 
L 2766 531 
Q 2569 213 2275 61 
Q 1981 -91 1556 -91 
Q 1019 -91 701 211 
Q 384 513 384 1019 
Q 384 1609 779 1909 
Q 1175 2209 1959 2209 
L 2766 2209 
L 2766 2266 
Q 2766 2663 2505 2880 
Q 2244 3097 1772 3097 
Q 1472 3097 1187 3025 
Q 903 2953 641 2809 
L 641 3341 
Q 956 3463 1253 3523 
Q 1550 3584 1831 3584 
Q 2591 3584 2966 3190 
Q 3341 2797 3341 1997 
z
" transform="scale(0.015625)"/>
       <path id="DejaVuSans-66" d="M 2375 4863 
L 2375 4384 
L 1825 4384 
Q 1516 4384 1395 4259 
Q 1275 4134 1275 3809 
L 1275 3500 
L 2222 3500 
L 2222 3053 
L 1275 3053 
L 1275 0 
L 697 0 
L 697 3053 
L 147 3053 
L 147 3500 
L 697 3500 
L 697 3744 
Q 697 4328 969 4595 
Q 1241 4863 1831 4863 
L 2375 4863 
z
" transform="scale(0.015625)"/>
       <path id="DejaVuSans-4e" d="M 628 4666 
L 1478 4666 
L 3547 763 
L 3547 4666 
L 4159 4666 
L 4159 0 
L 3309 0 
L 1241 3903 
L 1241 0 
L 628 0 
L 628 4666 
z
" transform="scale(0.015625)"/>
      </defs>
      <use xlink:href="#DejaVuSans-4b"/>
      <use xlink:href="#DejaVuSans-72" x="65.576172"/>
      <use xlink:href="#DejaVuSans-61" x="106.689453"/>
      <use xlink:href="#DejaVuSans-66" x="167.96875"/>
      <use xlink:href="#DejaVuSans-74" x="201.423828"/>
      <use xlink:href="#DejaVuSans-20" x="240.632812"/>
      <use xlink:href="#DejaVuSans-5b" x="272.419922"/>
      <use xlink:href="#DejaVuSans-4e" x="311.433594"/>
      <use xlink:href="#DejaVuSans-5d" x="386.238281"/>
     </g>
    </g>
   </g>
   <g id="line2d_27">
    <path d="M 38.502813 115.280938 
L 57.085405 115.275921 
L 84.109856 115.287844 
L 87.627622 115.274681 
L 89.118231 115.295289 
L 92.754169 115.282304 
L 95.019457 115.293255 
L 97.286052 115.277253 
L 98.717529 115.276501 
L 100.526244 115.280335 
L 114.093357 115.277757 
L 115.937099 115.287455 
L 117.487743 115.290042 
L 130.318908 115.283831 
L 131.809921 115.286556 
L 140.727123 115.295166 
L 141.924188 115.281132 
L 144.128735 115.291725 
L 147.88237 115.287517 
L 153.54568 115.276577 
L 188.65442 115.283609 
L 190.38336 115.266798 
L 193.31546 115.287687 
L 196.050762 115.283907 
L 201.252764 115.279121 
L 221.338171 115.274082 
L 222.292144 115.288444 
L 223.248476 115.289179 
L 223.554257 98.337326 
L 223.732051 137.478648 
L 224.048213 138.500899 
L 224.26118 152.266947 
L 224.498476 156.468442 
L 225.75103 114.976396 
L 225.988789 124.23449 
L 226.226817 106.19842 
L 226.525541 112.476431 
L 226.707352 126.669945 
L 227.004147 110.530872 
L 227.184451 111.87308 
L 227.422827 101.658388 
L 227.479239 118.85095 
L 227.717393 110.503684 
L 227.956897 109.742168 
L 228.194151 112.539291 
L 228.491933 124.620709 
L 229.211707 103.341617 
L 229.507621 114.519026 
L 229.86666 114.465141 
L 229.998628 114.722042 
L 230.173069 120.40822 
L 230.408796 118.641935 
L 230.705939 123.557478 
L 231.242363 104.152709 
L 231.630147 111.151832 
L 231.663719 129.742069 
L 232.136825 111.182859 
L 232.316057 111.047688 
L 232.434509 119.954224 
L 232.915984 110.228584 
L 233.208451 110.193413 
L 233.387885 96.806099 
L 233.626662 117.064098 
L 233.864567 106.686558 
L 234.163673 116.469124 
L 234.459871 102.657086 
L 234.638675 118.522349 
L 235.11598 103.430195 
L 235.432665 112.687081 
L 235.72695 108.916509 
L 235.906757 110.113658 
L 236.084479 112.154598 
L 236.621287 107.549613 
L 236.919839 106.390268 
L 237.157824 107.274629 
L 237.874902 119.261656 
L 238.290534 105.41986 
L 238.35076 117.594831 
L 238.589264 114.398703 
L 239.065068 110.758957 
L 239.305311 114.095235 
L 239.549082 110.817011 
L 240.023237 122.715587 
L 240.317181 112.948479 
L 240.614551 109.311996 
L 240.793797 115.060772 
L 241.151839 111.921804 
L 241.389884 103.510459 
L 241.569338 114.009769 
L 241.806632 109.305246 
L 242.044896 109.328569 
L 242.344062 113.22608 
L 242.641746 115.093944 
L 242.939843 116.234511 
L 243.118815 110.474208 
L 243.41606 111.304484 
L 243.539421 112.32531 
L 243.836562 110.931335 
L 244.253567 103.37021 
L 244.531837 111.87556 
L 244.760099 112.177935 
L 244.998784 116.445994 
L 245.503869 111.185562 
L 245.741822 116.740895 
L 246.202726 110.547145 
L 246.337942 110.84786 
L 246.460816 113.334633 
L 246.754794 114.095943 
L 246.994239 110.380543 
L 247.232263 119.223738 
L 247.708076 113.527992 
L 248.125328 106.007333 
L 248.543255 120.178009 
L 249.020847 106.428934 
L 249.218981 111.661246 
L 249.530817 113.299394 
L 249.796994 112.232735 
L 249.91722 109.958088 
L 250.176782 111.26761 
L 250.454559 114.606316 
L 250.69308 123.165645 
L 250.990238 109.508872 
L 251.171156 110.627592 
L 251.466717 102.340466 
L 251.705896 105.434561 
L 252.004037 116.824298 
L 252.243865 115.562258 
L 252.425758 108.664334 
L 252.66071 112.097865 
L 252.958474 121.206802 
L 253.137428 110.642702 
L 253.437262 107.642083 
L 253.732822 113.846896 
L 253.912799 112.695821 
L 254.151034 116.254064 
L 254.390353 105.999701 
L 254.629948 114.02151 
L 254.866171 107.634726 
L 255.283195 114.296544 
L 255.64118 103.405427 
L 255.702331 115.488502 
L 255.879236 107.470025 
L 256.118256 110.037146 
L 256.357 114.495218 
L 256.596713 107.826159 
L 257.013573 108.709188 
L 257.134596 114.602084 
L 257.430682 102.814464 
L 257.61066 114.917557 
L 258.20509 109.426215 
L 258.445132 108.73951 
L 258.577231 101.305592 
L 258.859825 110.139127 
L 259.158214 103.027299 
L 259.487917 112.414603 
L 259.730147 112.071637 
L 259.876027 105.85609 
L 260.173233 106.053555 
L 260.294447 110.212068 
L 260.591149 107.024346 
L 261.322962 112.671424 
L 261.602805 106.667707 
L 261.975746 110.007542 
L 262.086563 106.915798 
L 262.328785 110.225432 
L 262.55622 110.693998 
L 262.794199 119.573709 
L 263.151773 116.998402 
L 263.330837 103.431455 
L 263.7477 107.392153 
L 263.866901 104.499809 
L 264.105397 109.986575 
L 264.285849 105.515804 
L 264.643203 109.550134 
L 264.881961 110.333836 
L 265.058864 110.35452 
L 265.299527 116.479161 
L 265.714773 104.895182 
L 265.955612 112.128096 
L 266.191948 100.432066 
L 266.252174 113.262267 
L 266.48981 115.455889 
L 266.788459 112.205714 
L 267.09442 114.918854 
L 267.324829 108.828172 
L 267.563622 108.696486 
L 267.759853 109.266837 
L 268.099501 114.432896 
L 268.338011 104.663552 
L 268.532791 106.721721 
L 268.756773 113.777243 
L 269.017167 109.820092 
L 269.233644 110.799462 
L 269.530633 117.953392 
L 269.887378 117.209343 
L 270.245132 114.118722 
L 270.661966 109.240678 
L 270.723 105.274948 
L 270.960397 106.914899 
L 271.318588 112.174105 
L 271.561653 102.892801 
L 271.735812 110.926263 
L 271.975033 111.21054 
L 272.273994 113.809546 
L 272.689423 106.848328 
L 272.927961 109.321256 
L 273.17533 102.35869 
L 273.464189 108.907688 
L 273.643316 108.748912 
L 273.969451 111.564221 
L 274.219372 107.997233 
L 274.658263 106.949281 
L 275.037647 110.787856 
L 275.313574 110.661681 
L 275.437851 114.003508 
L 275.791628 114.40891 
L 275.91339 106.067324 
L 276.20821 110.068638 
L 276.393789 109.914059 
L 276.812326 110.691717 
L 277.162083 115.555754 
L 277.590469 105.101106 
L 277.779075 106.682273 
L 277.939041 109.682506 
L 278.12053 107.156072 
L 278.475781 115.271667 
L 278.624491 106.590982 
L 278.955747 114.54982 
L 279.193852 113.084087 
L 279.431173 110.204359 
L 279.612332 109.749352 
L 279.907556 108.531843 
L 280.086959 110.210723 
L 280.384925 106.352799 
L 280.623809 107.500394 
L 280.980465 103.330293 
L 281.1601 110.880324 
L 281.457142 106.553471 
L 281.873928 109.088898 
L 282.056615 109.416951 
L 282.113657 102.415687 
L 282.533731 108.136015 
L 282.828435 104.339843 
L 283.068365 102.692511 
L 283.306338 105.470995 
L 283.66432 111.921384 
L 283.961917 107.816279 
L 284.088847 104.202176 
L 284.319934 108.9825 
L 284.563335 109.983841 
L 285.034625 104.632501 
L 285.276257 103.549589 
L 285.690436 108.141169 
L 285.810779 104.596104 
L 286.048783 111.732626 
L 286.292195 105.194653 
L 286.526687 108.533647 
L 286.769413 104.84091 
L 287.007247 109.395071 
L 287.262421 106.53803 
L 287.484106 114.163271 
L 287.900764 107.691945 
L 288.024509 102.742705 
L 288.259375 107.450759 
L 288.497522 99.604352 
L 288.736219 109.066724 
L 289.035046 112.416158 
L 289.24077 111.169601 
L 289.455069 100.767854 
L 289.811148 105.556969 
L 290.227704 108.914645 
L 290.347633 105.116389 
L 290.465879 110.001144 
L 290.883363 104.431948 
L 290.948755 107.260619 
L 291.225488 107.771808 
L 291.495528 111.006007 
L 291.679836 109.077467 
L 292.13465 106.94406 
L 292.194976 100.027977 
L 292.432576 106.344033 
L 292.730948 107.058158 
L 292.969282 108.914167 
L 293.207555 105.790938 
L 293.504983 105.802735 
L 293.689059 106.871422 
L 293.924229 107.168774 
L 294.221147 114.443599 
L 294.466574 107.606718 
L 294.698997 109.593968 
L 294.878318 107.222208 
L 295.173661 110.294717 
L 295.717231 104.036922 
L 296.19442 107.037288 
L 296.426372 105.859185 
L 296.607631 106.923949 
L 296.961851 107.485955 
L 297.152314 106.834633 
L 297.438974 105.129444 
L 297.620443 106.668546 
L 297.929888 105.141093 
L 298.095365 109.971553 
L 298.335465 107.018168 
L 298.632709 108.592276 
L 298.870236 103.86968 
L 299.108436 110.67376 
L 299.60655 106.767768 
L 299.827215 107.314421 
L 300.182774 111.134368 
L 300.600166 106.461317 
L 301.079765 104.735282 
L 301.494049 104.068153 
L 301.613328 108.26429 
L 301.911255 102.888213 
L 302.09056 107.870479 
L 302.447614 105.647032 
L 302.626399 108.690266 
L 302.80676 101.159683 
L 303.043886 107.007728 
L 303.341324 108.340278 
L 303.54503 108.353653 
L 303.826118 107.444032 
L 304.119111 107.835332 
L 304.595673 105.74327 
L 304.95287 105.795684 
L 305.252232 108.579029 
L 305.31073 107.509863 
L 305.548602 105.460869 
L 305.846457 108.324304 
L 306.02906 104.400233 
L 306.385283 104.726233 
L 306.562027 116.458297 
L 306.801509 106.798858 
L 306.996024 107.858982 
L 307.281744 107.910325 
L 307.656728 106.721445 
L 307.900046 106.665478 
L 308.067971 101.806393 
L 308.299126 110.508133 
L 308.537897 106.683599 
L 308.839248 107.528673 
L 309.086734 108.570966 
L 309.313549 107.026311 
L 309.455479 106.908043 
L 309.930311 105.819717 
L 310.001814 106.914703 
L 310.28921 105.121817 
L 310.527271 109.22912 
L 310.708003 106.294019 
L 311.063774 107.581345 
L 311.242711 105.920605 
L 311.611583 104.46074 
L 311.781527 108.415016 
L 312.017687 108.388799 
L 312.375319 104.450422 
L 312.732977 108.582445 
L 313.090224 111.505598 
L 313.212638 135.649183 
L 313.568273 136.204014 
L 313.805492 135.921979 
L 314.235778 121.575045 
L 314.58015 121.075634 
L 314.701814 117.425098 
L 314.938888 120.178614 
L 315.237717 114.645704 
L 315.682591 114.030764 
L 316.016983 114.733171 
L 316.33419 116.421278 
L 316.452034 111.212908 
L 316.695304 115.832545 
L 316.995565 111.825256 
L 317.110027 114.697077 
L 317.410895 113.971329 
L 317.763281 116.247123 
L 318.180102 115.29296 
L 318.359189 115.996579 
L 318.718927 113.404412 
L 318.959086 113.516001 
L 319.49789 116.412854 
L 319.614865 115.169287 
L 319.910478 117.121529 
L 320.14826 115.324551 
L 320.328134 114.993709 
L 320.624731 114.094178 
L 320.864807 115.009804 
L 321.102007 112.724546 
L 321.340325 114.398705 
L 321.584298 114.701177 
L 321.878065 112.456474 
L 322.357206 114.858947 
L 322.592008 115.190139 
L 322.840479 114.885089 
L 323.070052 115.054934 
L 323.310491 115.055432 
L 323.548541 116.602022 
L 323.963903 116.435592 
L 324.083748 117.289631 
L 324.50419 115.71805 
L 324.569671 113.709608 
L 324.802157 114.978494 
L 325.098086 115.115258 
L 325.454334 114.710268 
L 325.633327 114.047653 
L 325.812051 115.106322 
L 326.051482 113.337542 
L 326.294583 113.700694 
L 326.530758 114.755259 
L 326.852363 114.051398 
L 327.242305 115.322006 
L 327.301953 114.677028 
L 327.540635 115.115098 
L 327.778986 114.996294 
L 328.020226 115.333285 
L 328.256505 115.993559 
L 328.495475 113.410093 
L 328.794246 116.073985 
L 329.171816 114.94985 
L 329.275333 115.75114 
L 329.508337 116.551 
L 329.745474 113.864844 
L 330.162941 115.028255 
L 330.580948 114.971108 
L 330.761294 115.932428 
L 331.057073 115.179418 
L 331.312423 116.215402 
L 331.798258 114.460608 
L 332.018819 115.372243 
L 332.487919 115.174161 
L 332.725398 116.209795 
L 333.024265 114.95273 
L 333.267721 115.583722 
L 333.502737 115.791207 
L 333.741417 114.672601 
L 333.980504 115.109859 
L 334.226045 115.966156 
L 334.581092 114.098754 
L 335.022935 115.190756 
L 335.231468 115.125232 
L 335.709664 116.646616 
L 335.971918 116.149647 
L 336.184852 114.693746 
L 336.423478 114.537542 
L 336.663453 114.555262 
L 336.900926 115.491116 
L 337.317585 114.901738 
L 337.437428 114.461655 
L 337.736454 115.425753 
L 337.916816 115.012954 
L 338.161358 113.379831 
L 338.54477 115.934637 
L 338.658091 114.639072 
L 338.991294 115.267171 
L 339.29103 113.393088 
L 339.410048 115.288152 
L 339.825811 115.054981 
L 339.945144 115.200213 
L 340.12328 115.006398 
L 340.421547 114.409504 
L 340.719728 116.313918 
L 340.898441 115.318183 
L 341.13678 114.861382 
L 341.375437 115.228918 
L 341.615004 114.539485 
L 341.917182 115.776799 
L 342.091832 115.828855 
L 342.390217 114.509613 
L 342.592547 114.868238 
L 342.865715 114.97765 
L 343.224194 116.394896 
L 343.364331 114.999942 
L 343.582206 115.02053 
L 343.819625 114.832464 
L 344.2367 115.151612 
L 344.355474 114.511782 
L 344.835051 115.538117 
L 345.073439 115.176304 
L 345.381281 115.379032 
L 345.609531 115.822618 
L 345.793405 114.097993 
L 346.084919 115.29953 
L 346.386542 115.299088 
L 346.623265 113.855912 
L 346.800697 115.749221 
L 347.046882 114.901906 
L 347.336523 114.559829 
L 347.633595 114.854372 
L 347.812551 115.255344 
L 348.051726 115.027795 
L 348.470912 114.831831 
L 348.531021 115.113848 
L 349.025631 114.962213 
L 349.25029 115.81162 
L 349.603408 114.956481 
L 349.8421 114.994178 
L 350.139628 115.327501 
L 350.557034 112.91096 
L 350.855204 115.472774 
L 351.272515 114.959289 
L 351.332358 114.675722 
L 351.510253 113.290331 
L 351.86755 116.674845 
L 352.048182 114.79433 
L 352.34541 115.530962 
L 352.643325 114.8131 
L 352.763199 115.202354 
L 353.001631 116.509588 
L 353.358236 114.696402 
L 353.777296 114.894163 
L 354.192068 113.597494 
L 354.49016 115.854961 
L 354.729169 114.9924 
L 354.967142 115.175642 
L 355.26572 114.893829 
L 355.563366 115.002906 
L 355.691361 116.354222 
L 355.993376 115.010256 
L 356.230389 114.997331 
L 356.695564 116.466203 
L 357.11492 116.333221 
L 357.232346 114.59712 
L 357.414082 115.10788 
L 357.768024 114.89302 
L 358.067321 115.191944 
L 358.200121 115.593165 
L 358.619507 115.014385 
L 358.726755 115.745116 
L 358.964857 115.822183 
L 359.203431 114.804826 
L 359.448191 114.829289 
L 359.739861 115.043013 
L 359.918637 114.886677 
L 360.223373 115.419829 
L 360.464925 116.189843 
L 360.754514 113.598127 
L 360.876193 115.986466 
L 361.129106 115.163075 
L 361.415503 115.855236 
L 361.661674 114.970904 
L 361.887082 115.020652 
L 362.185637 115.294396 
L 362.424082 114.401156 
L 362.662654 114.926763 
L 362.950189 115.908138 
L 363.20353 113.337691 
L 363.423447 115.117396 
L 363.622003 114.791149 
L 363.916371 116.395708 
L 364.393153 115.063567 
L 364.630544 114.838059 
L 364.92917 115.259952 
L 365.107627 114.983218 
L 365.345698 115.243158 
L 365.643635 113.150815 
L 365.941582 114.890616 
L 366.120566 114.73368 
L 366.430486 116.364469 
L 366.661699 115.001687 
L 367.137644 115.050895 
L 367.313284 115.265203 
L 367.613202 115.012666 
L 367.848153 115.739332 
L 368.164973 115.824947 
L 368.328014 114.6874 
L 368.629685 116.208542 
L 368.92628 114.994455 
L 369.113805 115.216 
L 369.34484 115.099458 
L 369.529356 114.611038 
L 369.821758 114.683947 
L 370.240307 113.024487 
L 370.360723 115.507266 
L 370.778089 114.82636 
L 371.015218 115.125108 
L 371.312315 116.312501 
L 371.555098 115.238059 
L 371.789135 115.216033 
L 372.027824 114.917334 
L 372.325578 115.153175 
L 372.861574 116.072345 
L 373.397043 114.82622 
L 373.93445 116.450122 
L 373.993192 112.119285 
L 374.356468 114.774545 
L 374.64956 115.312489 
L 374.71244 115.170687 
L 375.080509 115.138176 
L 375.245909 114.871893 
L 375.486534 115.737664 
L 375.841426 114.896536 
L 376.021182 114.995152 
L 376.325316 115.679036 
L 376.501063 113.093877 
L 376.735908 114.788058 
L 377.275259 114.873504 
L 377.454122 116.643544 
L 377.691085 116.445536 
L 377.97089 114.733219 
L 378.467507 115.014848 
L 378.705786 114.965705 
L 379.003346 116.421348 
L 379.182787 114.980219 
L 379.541591 115.292469 
L 379.77876 114.151607 
L 379.957593 114.613287 
L 380.315476 114.808116 
L 380.43452 115.538642 
L 380.67377 115.436407 
L 380.971538 115.578716 
L 381.209422 114.932775 
L 381.566802 114.894853 
L 381.744983 115.126411 
L 382.170296 114.981101 
L 382.401177 114.409229 
L 382.640935 115.754396 
L 382.938268 114.6883 
L 383.116642 115.244188 
L 383.414778 114.911438 
L 383.653191 114.994667 
L 383.891272 116.108691 
L 384.130172 114.875289 
L 384.36784 114.657351 
L 385.141968 116.396533 
L 385.442062 115.072034 
L 385.737779 114.888022 
L 385.982328 113.925005 
L 386.154941 116.159169 
L 386.572481 114.983767 
L 386.633083 115.097885 
L 386.871953 115.188425 
L 387.288124 114.977081 
L 387.408358 116.67442 
L 387.704159 113.870451 
L 387.883735 115.128507 
L 388.12156 115.072529 
L 388.360572 116.322729 
L 388.83674 114.971784 
L 389.078696 114.768912 
L 389.373409 115.096682 
L 389.85151 115.00675 
L 390.209139 115.003447 
L 390.327434 115.706938 
L 390.566718 114.782262 
L 390.866233 113.014229 
L 391.578394 114.942747 
L 391.956832 114.970392 
L 392.061414 115.131203 
L 392.294363 114.27149 
L 392.534085 116.145456 
L 393.014287 114.859329 
L 393.427847 116.316849 
L 393.65145 113.990803 
L 393.785792 114.817532 
L 394.023607 114.804817 
L 394.261973 114.91947 
L 394.798172 114.762438 
L 395.156539 115.356041 
L 395.275553 116.147933 
L 395.574048 115.449606 
L 395.817442 115.255955 
L 396.050757 115.725928 
L 396.289007 115.218237 
L 396.468688 115.13578 
L 396.709418 114.853298 
L 397.006497 114.736503 
L 397.24286 114.886659 
L 397.480824 115.97143 
L 397.839129 114.976323 
L 398.01748 115.397957 
L 398.255879 115.130583 
L 398.493969 116.299863 
L 398.732782 114.980751 
L 399.032184 114.889328 
L 399.38968 115.330291 
L 399.629341 115.379197 
L 399.867123 113.501423 
L 399.986143 115.991046 
L 400.464749 114.68555 
L 400.710246 115.644614 
L 401.000306 115.973295 
L 401.240795 114.805699 
L 401.476641 114.657638 
L 401.775515 115.164097 
L 401.955105 114.842654 
L 402.253688 113.149983 
L 402.431344 115.810223 
L 402.669635 114.901325 
L 402.908526 115.014974 
L 403.206332 115.409467 
L 403.397622 113.66608 
L 403.633589 114.941055 
L 403.922551 115.234518 
L 404.402506 114.720221 
L 404.641312 115.483593 
L 404.947887 113.413971 
L 405.175669 115.113675 
L 405.385104 114.755895 
L 405.65268 114.564335 
L 405.894417 113.173812 
L 406.132636 114.85142 
L 406.426561 114.795201 
L 406.667313 115.363385 
L 406.963223 115.117094 
L 407.144113 112.823121 
L 407.380891 113.141688 
L 407.619993 115.256378 
L 407.860801 115.07554 
L 408.217822 115.622909 
L 408.398363 112.898771 
L 408.636507 114.98359 
L 408.917998 115.026068 
L 409.234688 114.719772 
L 409.470635 115.961851 
L 409.589722 113.426082 
L 409.829013 113.229128 
L 410.126347 115.242829 
L 410.42592 115.137764 
L 410.606015 114.58689 
L 410.844374 115.538662 
L 411.143152 115.034903 
L 411.320402 115.204448 
L 411.619643 115.154805 
L 411.857209 114.510522 
L 412.096215 116.470551 
L 412.512689 115.006802 
L 412.58546 115.243004 
L 412.87158 114.960699 
L 413.062343 114.376803 
L 413.456757 116.033348 
L 413.584819 114.501636 
L 413.81476 114.999321 
L 414.11483 115.216322 
L 414.472681 115.160021 
L 414.533583 116.332876 
L 414.830286 114.697966 
L 415.068038 114.740498 
L 415.559664 115.018029 
L 415.96323 114.710096 
L 416.023198 114.819027 
L 416.321581 114.656586 
L 416.563927 115.053613 
L 416.805148 114.243494 
L 417.002271 115.526049 
L 417.276707 114.249772 
L 417.756951 115.107167 
L 418.054464 115.274065 
L 418.471725 114.967948 
L 418.530943 115.130537 
L 418.770431 114.507284 
L 419.126668 114.892825 
L 419.305279 115.955068 
L 419.487583 115.916041 
L 419.724077 116.143338 
L 419.962564 115.104764 
L 420.281437 115.001121 
L 420.501517 115.147467 
L 420.738015 113.930034 
L 420.975057 115.084217 
L 421.214128 114.921838 
L 421.512226 115.084743 
L 421.693249 114.771599 
L 422.225812 114.464891 
L 422.234324 127.080213 
L 422.468961 114.813107 
L 422.825214 116.235949 
L 423.004989 115.748143 
L 423.252127 115.682097 
L 423.484338 114.840142 
L 423.840978 114.810794 
L 423.960579 115.826867 
L 424.145321 114.863588 
L 424.43705 114.60061 
L 424.675708 115.012915 
L 424.915208 114.919578 
L 425.155055 114.624396 
L 425.574673 113.010277 
L 425.629286 116.349467 
L 425.988437 115.07727 
L 426.172027 115.184711 
L 426.64547 114.952622 
L 427.065099 115.033268 
L 427.190077 115.680834 
L 427.445399 114.849251 
L 427.659166 116.230411 
L 427.90644 116.058663 
L 427.958088 114.558004 
L 428.19698 113.944181 
L 428.436409 115.024591 
L 428.619145 114.589058 
L 428.8559 115.074661 
L 429.151322 115.021922 
L 429.628082 112.83993 
L 430.10485 116.609704 
L 430.344322 116.747021 
L 430.903823 114.978675 
L 431.121983 114.914379 
L 431.357652 98.671702 
L 431.597523 108.8645 
L 431.843497 110.841491 
L 432.095657 110.690798 
L 432.328044 110.989672 
L 432.561897 110.165073 
L 432.821237 112.361534 
L 433.156978 112.815529 
L 433.594031 113.543962 
L 433.87843 112.926407 
L 434.121676 114.087557 
L 434.414608 113.225283 
L 434.534949 113.828 
L 434.776173 113.062128 
L 435.198864 114.139227 
L 435.318081 112.704072 
L 435.54992 112.50922 
L 435.793016 112.501636 
L 436.163582 111.362304 
L 436.324342 111.924312 
L 436.627299 111.212453 
L 436.862153 111.390278 
L 437.100266 111.97438 
L 437.400723 110.036501 
L 437.640155 112.290656 
L 438.091135 109.890044 
L 438.242412 108.93996 
L 438.507695 110.134345 
L 438.778576 109.649007 
L 439.093849 110.215947 
L 439.259491 111.817317 
L 439.609454 109.809271 
L 439.813723 110.417587 
L 440.027646 108.882736 
L 440.326857 109.384007 
L 440.743769 108.514718 
L 441.360449 109.464469 
L 441.460589 108.89327 
L 441.817555 108.413583 
L 441.996582 107.741294 
L 442.476381 109.209913 
L 442.882088 106.853693 
L 443.119643 107.174482 
L 443.306995 106.655094 
L 443.537398 109.448336 
L 443.835364 106.387779 
L 444.01571 106.223347 
L 444.193965 106.52305 
L 444.670741 107.734089 
L 445.029606 104.993961 
L 445.566243 106.565894 
L 445.69185 104.134527 
L 446.223006 106.000075 
L 446.46149 105.095035 
L 446.703529 105.892141 
L 446.93948 105.840636 
L 447.182432 104.662379 
L 447.4174 105.083501 
L 447.656135 105.760304 
L 447.904892 104.022866 
L 448.138367 104.74588 
L 448.437338 103.798901 
L 448.625267 104.030128 
L 449.152725 103.29989 
L 449.392189 104.624701 
L 449.808343 102.987249 
L 449.89612 103.22734 
L 450.16705 102.382192 
L 450.46407 102.016514 
L 450.761942 102.851359 
L 450.94209 101.990654 
L 451.180519 103.42021 
L 451.425902 102.240777 
L 451.658653 102.124887 
L 451.839194 101.511539 
L 452.077357 101.174442 
L 452.326715 102.55331 
L 452.613173 101.047607 
L 452.864845 100.987855 
L 453.098099 102.191272 
L 453.469682 100.935803 
L 453.632802 101.938283 
L 453.809319 99.989835 
L 454.134366 99.463049 
L 454.345201 101.343033 
L 455.071869 99.187231 
L 455.300727 100.497889 
L 455.539853 99.724022 
L 455.961335 98.905856 
L 456.150748 98.068626 
L 456.387019 99.054522 
L 456.566905 100.314553 
L 456.984034 99.069231 
L 457.044693 99.270459 
L 457.462645 98.707226 
L 457.700957 97.867502 
L 458.176246 99.186947 
L 458.295734 96.707974 
L 458.535771 98.066121 
L 458.772737 97.488546 
L 459.18988 97.718831 
L 459.309275 97.147113 
L 459.548312 97.234024 
L 459.792529 97.203643 
L 459.846799 96.57504 
L 460.264394 98.646277 
L 460.505547 96.140735 
L 460.801349 95.41393 
L 460.981197 96.16315 
L 461.300883 95.924639 
L 461.461133 95.024186 
L 461.759676 97.20849 
L 461.997667 95.264607 
L 462.240011 95.808252 
L 462.535859 94.478857 
L 462.954361 95.21517 
L 463.252644 94.623392 
L 463.439137 95.002541 
L 463.848593 95.007743 
L 464.210024 93.689607 
L 464.468285 94.028462 
L 464.68398 93.771316 
L 464.923343 92.895867 
L 465.469677 94.289744 
L 465.710789 93.001516 
L 466.009353 92.20159 
L 466.243917 92.836379 
L 466.483619 92.644681 
L 466.663185 91.924037 
L 466.961408 92.785126 
L 467.199234 92.093325 
L 467.597038 92.274969 
L 467.744427 91.565566 
L 467.921045 93.454262 
L 468.454257 90.809215 
L 468.761166 91.653741 
L 468.931187 90.328478 
L 469.179483 90.918281 
L 469.542461 90.264969 
L 469.64942 89.641806 
L 469.893371 89.377187 
L 470.128335 90.888318 
L 470.435389 90.863203 
L 470.683137 90.170654 
L 470.906718 89.9805 
L 471.143739 90.097776 
L 471.389817 90.39634 
L 471.682015 89.144311 
L 471.865224 89.151824 
L 472.16172 88.570073 
L 472.456786 88.824658 
L 472.636186 88.218883 
L 473.054076 89.123886 
L 473.400235 88.423018 
L 473.634969 88.26449 
L 473.868197 87.898614 
L 474.170263 86.807667 
L 474.354868 88.58379 
L 474.645427 88.324993 
L 474.949827 87.433616 
L 475.125654 88.650661 
L 475.315542 87.520037 
L 475.601585 86.65184 
L 476.079329 87.966697 
L 476.317061 87.658849 
L 476.555932 86.010768 
L 476.795462 87.675144 
L 477.212458 86.908142 
L 477.361592 84.710388 
L 477.749946 86.263365 
L 477.868828 85.32619 
L 478.107403 86.160648 
L 478.345862 85.056465 
L 478.643526 85.788842 
L 478.775738 84.959258 
L 479.035221 84.588317 
L 479.305237 85.828151 
L 479.600228 85.037654 
L 479.798874 85.130909 
L 480.01865 85.071328 
L 480.259337 82.694383 
L 480.639147 83.433061 
L 480.797255 82.866058 
L 481.032858 84.836105 
L 481.30086 83.625154 
L 481.594462 83.324308 
L 481.817167 82.753555 
L 482.112202 83.669777 
L 482.54011 81.756986 
L 482.796157 83.149049 
L 483.087039 82.118963 
L 483.208624 83.529625 
L 483.500877 81.944934 
L 483.799178 80.951539 
L 484.097273 81.779516 
L 484.216787 81.073285 
L 484.514676 81.621856 
L 484.761105 83.144777 
L 485.230884 80.412699 
L 485.470722 80.062909 
L 485.76882 80.318825 
L 486.007356 81.017298 
L 486.247979 80.731928 
L 486.483328 80.255862 
L 486.721699 80.714742 
L 486.961225 79.751987 
L 487.440359 79.653553 
L 487.677248 79.261598 
L 488.037454 79.817359 
L 488.214516 80.460409 
L 488.455338 78.873279 
L 488.751713 79.622625 
L 489.288177 77.898911 
L 489.706772 77.879762 
L 490.005091 77.662559 
L 490.242896 77.886561 
L 490.683853 77.177391 
L 490.899752 77.442853 
L 491.201618 77.487882 
L 491.494573 76.14921 
L 491.741352 77.20761 
L 491.913287 77.355979 
L 492.154206 76.034304 
L 492.390345 76.786582 
L 492.705805 75.825128 
L 492.884784 75.889522 
L 493.122928 75.266066 
L 493.601015 74.686513 
L 493.66099 75.732745 
L 493.95881 74.321215 
L 494.141209 75.114054 
L 494.380638 75.37884 
L 494.614303 75.244521 
L 494.912142 75.232487 
L 495.092642 75.957414 
L 495.391562 74.916787 
L 495.688062 74.719634 
L 495.866611 74.288738 
L 496.169394 74.695975 
L 496.407336 73.595968 
L 496.644163 75.243561 
L 497.122047 73.572361 
L 497.32743 74.050379 
L 497.602808 73.654587 
L 497.947291 72.88447 
L 498.144884 72.929009 
L 498.384535 73.509084 
L 498.621652 73.201431 
L 498.860584 73.514938 
L 499.099563 72.962093 
L 499.337413 71.929254 
L 499.817608 72.781749 
L 500.113488 73.203988 
L 500.293182 71.220374 
L 500.609204 71.601775 
L 500.650281 70.867703 
L 500.829084 70.224933 
L 501.130331 72.28815 
L 501.425955 70.74573 
L 501.604394 70.449308 
L 502.085048 71.137865 
L 502.142852 71.97252 
L 502.321119 70.382121 
L 502.565805 70.109029 
L 503.051282 70.097665 
L 503.27591 69.827212 
L 503.515493 70.74032 
L 503.872555 70.175627 
L 504.051407 68.805971 
L 504.229888 69.314012 
L 504.650095 68.415755 
L 504.707569 69.895439 
L 505.069486 69.394514 
L 505.311707 69.548872 
L 505.547959 68.775633 
L 506.020268 68.315027 
L 506.266043 67.533989 
L 506.569872 68.570331 
L 506.746757 67.611781 
L 506.993307 67.593148 
L 507.231373 66.73929 
L 507.475334 67.62029 
L 507.708032 67.460092 
L 508.005894 68.029167 
L 508.190358 66.67956 
L 508.485193 68.1492 
L 508.787092 64.736905 
L 509.01986 67.710642 
L 509.275368 68.116475 
L 509.498512 65.201563 
L 509.921977 65.980911 
L 509.97473 65.766281 
L 510.21317 66.08403 
L 510.631246 65.246019 
L 510.691646 65.353831 
L 510.932276 65.216266 
L 511.427141 65.349378 
L 511.731757 64.78163 
L 511.94593 65.370831 
L 512.202575 64.342951 
L 512.42372 64.654702 
L 512.662927 65.394754 
L 512.902669 62.52926 
L 513.214663 65.138188 
L 513.619081 62.472567 
L 513.68035 63.527374 
L 513.915563 62.62467 
L 514.39837 63.432129 
L 514.571539 63.414251 
L 514.703169 62.143945 
L 514.890518 63.320256 
L 515.247869 61.257734 
L 515.468485 62.258913 
L 515.690172 62.256183 
L 515.918439 62.824136 
L 516.15758 62.607351 
L 516.400242 63.094202 
L 516.762513 60.688665 
L 516.922212 61.73877 
L 517.51651 60.866772 
L 517.702683 61.873957 
L 517.878201 60.523369 
L 518.173168 60.393812 
L 518.653123 60.654778 
L 518.951708 59.643115 
L 519.130101 60.443444 
L 519.388449 60.5796 
L 519.725267 60.209473 
L 520.141772 62.031343 
L 520.439599 66.548557 
L 520.621899 62.02724 
L 520.859464 60.987553 
L 521.39507 63.92188 
L 521.87368 62.016958 
L 522.117242 62.168942 
L 522.363738 60.555093 
L 522.827932 59.203706 
L 523.266623 59.232883 
L 523.497826 59.655513 
L 523.843711 59.285603 
L 524.131034 59.684194 
L 524.380779 59.679938 
L 524.9168 59.887854 
L 525.275559 59.834832 
L 525.403427 59.983492 
L 526.316015 59.80408 
L 527.008656 59.790609 
L 529.166701 59.7495 
L 529.284939 58.482602 
L 529.533417 59.710817 
L 529.890641 59.934781 
L 530.905653 59.706685 
L 531.262127 59.94908 
L 531.439707 59.6943 
L 532.275662 59.792332 
L 532.939696 59.717514 
L 533.23581 58.970052 
L 533.470149 60.475091 
L 533.72434 59.778146 
L 533.946454 59.771653 
L 534.245028 60.155929 
L 534.451003 59.962221 
L 534.720395 59.929151 
L 535.028561 59.692538 
L 535.260177 59.830722 
L 537.57183 59.760735 
L 537.709664 59.834488 
L 538.432501 59.783076 
L 539.916955 59.784379 
L 540.393637 59.762788 
L 540.636535 59.896823 
L 541.177946 59.761388 
L 545.716345 59.781689 
L 550.496407 59.762628 
L 556.47617 59.768389 
L 569.317197 59.769953 
L 577.951032 59.775508 
L 579.707111 59.7627 
L 583.519781 59.765235 
L 596.502813 59.772392 
L 596.502813 59.772392 
" clip-path="url(#p524bbbb8a9)" style="fill: none; stroke: #0000ff; stroke-opacity: 0.7; stroke-width: 1.5; stroke-linecap: square"/>
   </g>
   <g id="line2d_28">
    <path d="M 38.502813 100.053929 
L 38.622916 100.698624 
L 38.865804 98.949277 
L 38.937 100.980266 
L 39.111017 101.17532 
L 39.417061 99.15917 
L 39.707596 99.432421 
L 39.885883 98.502542 
L 40.541846 100.239194 
L 40.601545 98.68737 
L 41.018884 99.042245 
L 41.376814 98.874821 
L 41.559198 99.127106 
L 42.033407 98.641747 
L 42.091503 99.384348 
L 42.329583 99.983426 
L 42.628872 98.944118 
L 42.928055 98.471764 
L 43.164095 100.43332 
L 43.477718 98.571368 
L 43.581899 100.089463 
L 43.819883 98.04224 
L 44.300935 100.139608 
L 44.599353 99.829543 
L 44.834047 98.368156 
L 45.07223 98.977164 
L 45.371049 100.535101 
L 45.669985 100.002329 
L 45.857012 99.400747 
L 46.174796 97.738157 
L 46.328887 100.120034 
L 46.567049 99.09637 
L 46.805772 99.499227 
L 47.224756 97.287178 
L 47.405507 98.324185 
L 47.521373 97.495815 
L 47.766181 97.367114 
L 48.003493 97.672867 
L 48.244165 96.703053 
L 48.536913 97.24191 
L 49.14069 96.738659 
L 50.441813 96.682058 
L 51.746796 97.609672 
L 53.050949 99.129417 
L 54.356612 99.080918 
L 55.661121 98.574558 
L 57.085405 97.794333 
L 58.50861 98.541937 
L 59.813793 97.01557 
L 59.954398 97.733239 
L 60.191841 96.597636 
L 60.669155 96.850034 
L 60.966191 97.777455 
L 61.265892 100.921957 
L 61.681905 97.77491 
L 61.866132 100.088684 
L 62.104406 99.019342 
L 62.404 98.893434 
L 62.638974 101.977012 
L 62.936269 100.292008 
L 63.11617 97.28676 
L 63.356366 97.755114 
L 63.652931 98.023263 
L 63.846691 97.996395 
L 64.130974 99.462262 
L 64.426649 98.844006 
L 64.72558 97.071735 
L 64.844761 98.617119 
L 65.083776 96.355349 
L 65.323835 97.112038 
L 65.636208 100.036116 
L 66.108513 97.250091 
L 66.396826 99.149128 
L 66.578194 97.932718 
L 66.876601 97.843589 
L 66.934528 99.106891 
L 67.112748 100.250183 
L 67.414376 97.92972 
L 67.588886 98.112508 
L 67.829178 99.167233 
L 68.125305 99.366427 
L 68.783671 101.7843 
L 69.019997 103.134893 
L 69.616891 98.007701 
L 70.095651 101.870747 
L 70.338534 99.576044 
L 70.523348 99.130892 
L 70.817845 100.647268 
L 71.292681 98.41342 
L 71.413207 95.330255 
L 72.070236 99.733197 
L 72.364771 100.356473 
L 72.604817 97.442925 
L 72.782636 97.23595 
L 73.259107 98.129644 
L 73.442011 98.824052 
L 73.737273 99.292923 
L 73.796233 100.538157 
L 74.034856 100.32121 
L 74.273425 99.89292 
L 74.512377 97.736585 
L 74.809776 97.48865 
L 75.10756 100.205572 
L 75.350039 100.399934 
L 75.534701 99.373708 
L 75.716732 99.04392 
L 75.763801 98.568253 
L 76.299771 98.3162 
L 76.479259 98.042239 
L 76.779836 98.41903 
L 77.014868 101.328784 
L 77.211656 100.835739 
L 77.492991 98.11177 
L 78.028409 100.948218 
L 78.208334 99.259815 
L 78.445703 99.516953 
L 78.74416 100.358389 
L 78.984279 100.692194 
L 79.221395 100.221334 
L 79.46119 97.978938 
L 79.9365 100.956832 
L 80.296129 99.403115 
L 80.48719 98.019538 
L 80.712316 99.981774 
L 80.950854 100.988132 
L 81.192765 98.40539 
L 81.665653 97.110321 
L 81.913099 100.909601 
L 82.151222 98.52449 
L 82.441028 99.895087 
L 82.620686 101.540287 
L 83.215747 96.253743 
L 83.394399 96.609476 
L 83.632494 100.430918 
L 83.872614 101.406926 
L 84.109856 98.582325 
L 84.411018 99.014198 
L 84.706152 101.146212 
L 85.361288 97.367675 
L 85.600003 98.232177 
L 85.838773 98.5271 
L 86.207889 98.744176 
L 86.732011 100.179306 
L 87.090643 96.272951 
L 87.329041 97.738486 
L 87.865826 103.146127 
L 88.103508 102.760194 
L 88.40325 100.347825 
L 88.586765 97.823319 
L 89.00022 97.819434 
L 89.118231 97.63464 
L 89.536432 98.630869 
L 89.908761 100.639924 
L 90.012432 100.313675 
L 90.081212 98.783679 
L 90.668047 96.535801 
L 90.905672 96.926436 
L 91.263784 97.754682 
L 91.681363 98.70423 
L 92.038568 97.837118 
L 92.336147 98.427688 
L 92.754169 101.207638 
L 92.991265 101.653221 
L 93.289814 100.949968 
L 93.489754 98.721097 
L 93.826284 97.290612 
L 94.305329 99.81859 
L 94.842115 95.112415 
L 95.019457 95.175845 
L 95.498953 97.341571 
L 95.89183 97.644201 
L 96.064357 98.634061 
L 96.573099 100.120638 
L 96.69475 97.120545 
L 97.286052 101.020372 
L 97.48986 99.519128 
L 97.779913 96.084573 
L 98.063483 94.814337 
L 98.47895 99.816806 
L 99.025598 97.255254 
L 99.325453 99.175588 
L 99.58166 99.300825 
L 99.795665 97.243709 
L 100.391 95.823305 
L 100.526244 99.31432 
L 101.868401 100.31798 
L 103.165642 99.37363 
L 104.594361 100.626075 
L 104.673559 104.780522 
L 104.853311 106.521213 
L 105.454112 102.236456 
L 105.687883 98.799817 
L 106.066219 95.99555 
L 106.305417 96.082433 
L 106.688645 99.0642 
L 106.855494 99.301638 
L 107.089968 98.754613 
L 107.387998 96.9118 
L 107.688168 96.033931 
L 107.864974 96.208802 
L 108.164534 99.340692 
L 108.347806 103.226937 
L 108.640473 105.652604 
L 108.902733 104.722064 
L 109.117895 100.619984 
L 109.596272 95.208517 
L 110.192261 101.523561 
L 110.375788 103.760099 
L 110.554204 102.962134 
L 111.052094 98.178619 
L 111.29097 98.484804 
L 111.577019 101.413411 
L 111.812008 102.456561 
L 112.049728 100.741278 
L 112.530576 94.706193 
L 112.792567 94.617545 
L 113.325136 96.373512 
L 113.421862 97.934493 
L 113.541144 98.038509 
L 113.788285 97.027879 
L 114.093357 96.88421 
L 114.540544 103.885737 
L 114.883064 105.644104 
L 115.313819 100.807167 
L 115.937099 98.181432 
L 116.216076 101.947045 
L 116.30385 102.479358 
L 116.475791 100.696529 
L 116.782905 99.623532 
L 117.130896 99.679105 
L 117.249404 98.959962 
L 117.487743 98.867136 
L 118.024139 99.762376 
L 118.206256 99.341357 
L 118.450471 97.659474 
L 118.756347 96.383054 
L 118.928024 97.021923 
L 119.289499 97.202289 
L 119.821194 94.478972 
L 120.298612 99.068976 
L 120.606507 99.765918 
L 120.715903 96.694692 
L 120.9231 96.433008 
L 121.194101 99.553426 
L 121.433386 100.437713 
L 121.912267 96.773856 
L 122.149815 97.019882 
L 122.624796 96.782025 
L 122.690525 95.496336 
L 122.935962 96.459272 
L 123.160922 99.97773 
L 123.589311 101.436021 
L 123.69748 98.859496 
L 123.995428 98.487676 
L 124.35569 101.258978 
L 124.650229 101.031323 
L 124.949134 102.220009 
L 125.13009 103.72654 
L 125.427231 103.644658 
L 125.665306 102.082071 
L 125.857602 99.860619 
L 126.147722 100.957519 
L 126.390896 102.420422 
L 126.86069 101.519422 
L 127.101098 102.325935 
L 127.397474 102.86869 
L 127.755155 102.508156 
L 127.874394 100.924049 
L 128.11266 99.472517 
L 128.470607 99.174809 
L 128.590202 99.556325 
L 129.127471 99.149436 
L 129.721296 98.817284 
L 129.844012 97.961865 
L 130.080965 98.179655 
L 130.318908 99.534232 
L 130.556998 100.12117 
L 130.795082 100.038412 
L 131.094146 98.784134 
L 131.390373 98.750473 
L 131.570561 99.016554 
L 131.809921 99.624337 
L 132.070999 99.050503 
L 132.288655 98.213206 
L 132.530023 97.866196 
L 132.778446 96.819638 
L 133.080422 96.160996 
L 133.599891 99.77476 
L 134.048442 95.130099 
L 134.27389 95.971327 
L 134.511673 100.095782 
L 134.752536 102.227913 
L 134.988169 99.916652 
L 135.299799 98.442152 
L 135.762344 101.573332 
L 136.299914 98.336203 
L 136.897409 101.008171 
L 137.144696 99.623765 
L 137.496099 96.3686 
L 137.729921 97.636281 
L 138.031643 98.353459 
L 138.462756 96.311207 
L 138.821519 96.414068 
L 139.04073 97.533212 
L 139.34128 97.652167 
L 139.518495 98.322127 
L 139.876343 98.558904 
L 139.996454 99.209206 
L 140.23413 99.264486 
L 140.475957 99.669368 
L 140.727123 100.792715 
L 141.192054 106.581193 
L 141.683584 105.587815 
L 141.74323 101.493367 
L 141.924188 97.987118 
L 142.220316 97.449576 
L 142.460347 98.310127 
L 142.698106 99.670697 
L 142.935384 99.150107 
L 143.657606 93.519689 
L 144.128735 96.004417 
L 144.426045 101.228739 
L 144.665021 100.287271 
L 145.147247 95.727506 
L 145.379375 95.583915 
L 146.042843 100.494625 
L 146.696415 95.262617 
L 147.407001 101.685846 
L 148.299554 97.593666 
L 148.41882 98.196591 
L 148.598417 99.742588 
L 149.076012 99.53584 
L 149.373331 98.907152 
L 149.613249 99.812667 
L 150.029772 101.985853 
L 150.089694 104.669178 
L 150.446581 104.532511 
L 150.565971 101.574782 
L 150.92311 98.138517 
L 151.353883 99.774653 
L 151.703 101.538998 
L 152.113476 97.519105 
L 152.351803 96.824234 
L 152.832111 98.744283 
L 152.888581 100.106145 
L 153.188565 101.827341 
L 153.309231 101.259806 
L 153.54568 98.16015 
L 153.920396 95.906206 
L 154.319251 100.531648 
L 154.617256 100.019955 
L 155.03402 95.732124 
L 155.333455 94.686381 
L 155.572779 95.780267 
L 155.93189 99.047765 
L 156.054561 102.385347 
L 156.288871 102.933502 
L 156.59785 99.873608 
L 156.824695 96.338754 
L 157.062934 95.225914 
L 157.244922 96.242371 
L 157.720275 100.600382 
L 158.075811 101.283604 
L 158.732951 96.365138 
L 159.028959 99.130985 
L 159.50687 104.836847 
L 159.80937 104.932285 
L 160.222772 98.294737 
L 160.639178 95.439221 
L 160.761288 96.338027 
L 161.002186 99.875386 
L 161.236001 100.411304 
L 161.716034 95.080009 
L 161.964836 94.690182 
L 162.194991 95.713704 
L 162.728429 101.599042 
L 162.970124 102.244086 
L 163.449507 95.863414 
L 163.682554 95.619355 
L 164.170702 101.442687 
L 164.397251 100.413327 
L 164.99298 99.393948 
L 165.232577 100.09859 
L 165.64954 104.563704 
L 165.889046 104.698257 
L 166.482576 100.741108 
L 166.661225 101.168107 
L 166.89949 103.237427 
L 167.197831 102.284919 
L 167.436563 99.103081 
L 167.735563 97.696217 
L 168.152508 97.677927 
L 168.391427 98.036675 
L 168.867709 97.155212 
L 169.165479 97.424508 
L 169.529336 98.086928 
L 169.881582 99.047762 
L 170.359222 97.396602 
L 171.25828 99.904639 
L 171.432118 99.127211 
L 171.900581 98.377064 
L 172.146868 98.505475 
L 172.386262 98.297951 
L 172.569875 99.844913 
L 172.835447 100.650798 
L 173.339268 97.372579 
L 173.707388 97.690766 
L 173.81777 100.53241 
L 174.158309 100.023584 
L 174.177757 98.472157 
L 174.314587 96.679359 
L 174.535783 97.363869 
L 174.91395 99.935848 
L 175.073934 100.001648 
L 175.54851 95.160283 
L 175.787124 96.145595 
L 176.085682 98.819871 
L 176.323655 98.063581 
L 176.579702 96.826243 
L 177.049623 100.644515 
L 177.336715 99.213075 
L 177.755713 95.314832 
L 178.11115 96.677785 
L 178.352257 98.59156 
L 178.528778 99.032539 
L 179.02236 99.196418 
L 179.243954 96.195422 
L 179.542117 94.057464 
L 179.959799 94.122554 
L 180.199819 97.281887 
L 180.334683 100.866994 
L 180.554724 101.199243 
L 181.004126 96.069081 
L 181.237254 97.112134 
L 181.475653 99.350772 
L 181.716775 99.76744 
L 181.952198 99.583652 
L 182.311857 100.491016 
L 182.668141 100.838132 
L 182.972183 98.60937 
L 183.210217 98.585157 
L 183.706024 98.080986 
L 184.008236 99.092601 
L 184.243069 100.58601 
L 184.480842 100.165414 
L 184.866663 99.077484 
L 184.96201 98.144876 
L 185.214305 99.50818 
L 185.456212 102.139326 
L 185.79372 104.268579 
L 186.450096 97.795637 
L 186.688066 99.358705 
L 186.926212 101.669976 
L 188.475599 98.04255 
L 188.892101 97.787813 
L 189.608368 98.636757 
L 189.845677 99.489448 
L 190.38336 94.713999 
L 190.679785 96.366212 
L 190.869436 99.426443 
L 191.157601 100.684491 
L 191.946866 91.676513 
L 192.117173 92.589531 
L 192.595026 98.938735 
L 192.83502 99.167296 
L 193.072666 97.265638 
L 193.31546 97.168824 
L 194.087116 103.117745 
L 194.621423 100.930178 
L 194.919455 100.341302 
L 195.159734 98.233721 
L 195.454674 97.820025 
L 195.574242 99.861418 
L 195.812728 99.84957 
L 196.050762 96.6356 
L 196.348274 95.719405 
L 196.532194 99.137038 
L 196.824916 100.357338 
L 197.302744 97.954871 
L 197.540668 99.427466 
L 197.783126 99.152785 
L 198.021222 96.131512 
L 198.278285 95.035958 
L 198.614978 98.144274 
L 198.857745 97.398596 
L 199.035959 94.388422 
L 199.627167 98.269451 
L 200.037406 93.649331 
L 200.288499 93.199561 
L 200.523074 96.628609 
L 200.76342 97.870678 
L 201.023906 95.014114 
L 201.252764 95.585701 
L 201.602062 98.535353 
L 201.781853 98.680664 
L 202.258451 95.842419 
L 202.615346 95.650396 
L 202.734673 96.153943 
L 202.977069 96.593338 
L 203.271444 96.732198 
L 203.568616 96.73344 
L 203.986273 96.441633 
L 204.347506 96.564365 
L 204.462725 97.088871 
L 205.059555 98.452353 
L 205.723048 91.811999 
L 206.192034 94.325117 
L 206.452348 94.395125 
L 206.78839 91.605423 
L 207.086054 93.11517 
L 207.443269 99.72564 
L 207.682274 100.800018 
L 207.922916 100.682068 
L 208.578156 101.755265 
L 208.70586 100.796649 
L 208.935203 100.802662 
L 209.172823 101.544897 
L 209.600943 101.493957 
L 209.830821 100.375262 
L 209.950317 97.73445 
L 210.189594 97.169948 
L 210.663532 100.292379 
L 210.903374 100.441918 
L 211.140394 101.435024 
L 211.378598 101.486766 
L 211.874719 98.679911 
L 212.333313 99.424137 
L 212.393738 102.576784 
L 212.631154 106.376654 
L 212.870117 107.589018 
L 213.168289 105.762245 
L 213.644553 98.017861 
L 213.824739 97.997653 
L 214.121064 99.243165 
L 214.60033 101.616762 
L 214.837813 101.034895 
L 215.37507 96.74338 
L 215.554742 96.080563 
L 215.851328 98.429606 
L 216.089667 102.670944 
L 216.389104 104.719599 
L 216.58001 103.746878 
L 217.102957 95.957032 
L 217.400525 93.713945 
L 217.639634 94.058648 
L 217.877773 95.721736 
L 218.294893 99.876621 
L 218.593264 100.499621 
L 218.776973 101.393022 
L 219.266031 102.451613 
L 219.30768 103.567419 
L 219.665863 104.527026 
L 220.04435 102.130904 
L 220.62314 99.423651 
L 220.8622 98.874483 
L 221.162767 97.38711 
L 221.515496 91.690766 
L 221.99322 90.338934 
L 222.055181 89.406077 
L 222.292144 89.683631 
L 222.530269 90.997723 
L 223.006647 95.179283 
L 223.248476 94.84202 
L 223.554257 189.171699 
L 223.732051 160.550974 
L 224.048213 167.062546 
L 224.26118 199.168236 
L 224.738977 146.435381 
L 224.976617 135.528376 
L 225.513956 84.908352 
L 225.75103 76.348732 
L 225.988789 57.171337 
L 226.226817 57.184084 
L 226.525541 46.665341 
L 226.707352 33.247805 
L 227.004147 48.028694 
L 227.422827 74.715833 
L 227.479239 76.519992 
L 227.717393 78.438823 
L 227.956897 81.951423 
L 228.194151 95.263543 
L 228.491933 89.338206 
L 228.730952 96.186761 
L 229.211707 116.748249 
L 229.86666 107.228187 
L 229.998628 102.29052 
L 230.173069 102.047666 
L 230.705939 77.508874 
L 230.945101 90.499344 
L 231.242363 86.330541 
L 231.630147 78.842589 
L 231.663719 65.585639 
L 232.316057 100.644578 
L 232.434509 86.471058 
L 233.208451 112.153434 
L 233.626662 96.390414 
L 233.864567 106.781125 
L 234.163673 84.406743 
L 234.459871 103.5662 
L 234.638675 90.442414 
L 234.877477 86.257863 
L 235.11598 85.486822 
L 235.432665 82.125014 
L 235.72695 80.925145 
L 235.906757 90.590879 
L 236.084479 85.360502 
L 236.384217 88.729735 
L 236.621287 105.759324 
L 236.919839 108.524289 
L 237.157824 104.356458 
L 237.395703 107.397383 
L 237.695023 108.47715 
L 237.874902 90.169571 
L 238.290534 101.781635 
L 238.35076 95.635519 
L 238.589264 85.034983 
L 238.828455 82.910628 
L 239.065068 91.797716 
L 239.305311 86.507877 
L 239.549082 87.210684 
L 239.840779 90.462408 
L 240.023237 77.687597 
L 240.317181 90.920923 
L 240.614551 94.675434 
L 240.793797 99.360532 
L 241.151839 89.365114 
L 241.389884 95.946937 
L 241.569338 92.317631 
L 241.806632 89.816124 
L 242.044896 81.979867 
L 242.344062 82.232801 
L 242.641746 78.457337 
L 242.939843 78.522471 
L 243.118815 75.354999 
L 243.41606 72.214252 
L 243.539421 79.763315 
L 243.836562 82.691423 
L 244.071675 87.499919 
L 244.253567 95.865638 
L 244.531837 95.957732 
L 244.760099 90.721223 
L 245.503869 99.18119 
L 245.741822 92.874188 
L 246.202726 88.69579 
L 246.460816 72.437186 
L 246.754794 89.063912 
L 247.232263 75.505224 
L 247.469526 89.508325 
L 247.708076 84.92925 
L 248.543255 76.805751 
L 248.848689 103.324367 
L 249.020847 93.938826 
L 249.218981 94.055395 
L 249.530817 87.428415 
L 249.796994 86.060621 
L 249.91722 77.351468 
L 250.176782 75.72623 
L 250.454559 78.207388 
L 250.69308 75.659979 
L 251.466717 94.620086 
L 251.705896 92.365114 
L 252.004037 85.465333 
L 252.243865 87.061916 
L 252.425758 97.595192 
L 252.66071 92.51807 
L 252.958474 79.158314 
L 253.437262 90.048238 
L 253.732822 82.034359 
L 253.912799 83.407935 
L 254.390353 70.985918 
L 254.629948 73.986806 
L 254.866171 89.422415 
L 255.283195 62.94948 
L 255.64118 84.57097 
L 255.702331 78.863692 
L 255.879236 81.695297 
L 256.118256 71.453751 
L 256.357 66.771895 
L 256.596713 78.012531 
L 257.013573 79.684463 
L 257.134596 69.46586 
L 257.430682 85.193061 
L 257.61066 84.743853 
L 257.848051 83.852011 
L 258.20509 80.28606 
L 258.577231 92.266469 
L 258.859825 73.511168 
L 259.158214 80.585873 
L 259.487917 79.506487 
L 259.730147 81.557818 
L 259.876027 92.63836 
L 260.173233 76.416733 
L 260.294447 77.385046 
L 260.591149 84.142558 
L 260.949329 100.607431 
L 261.322962 83.23096 
L 261.490067 86.887262 
L 261.602805 84.848628 
L 261.975746 85.083714 
L 262.086563 89.227582 
L 262.328785 79.679236 
L 262.55622 85.502543 
L 262.794199 84.556488 
L 263.151773 78.484535 
L 263.330837 91.464723 
L 263.7477 94.411718 
L 263.866901 89.867565 
L 264.105397 85.201234 
L 264.285849 79.347064 
L 264.643203 93.295766 
L 264.881961 92.854613 
L 265.058864 94.822317 
L 265.299527 85.533434 
L 265.714773 85.617414 
L 265.955612 74.684557 
L 266.191948 92.570366 
L 266.252174 89.208079 
L 266.48981 88.594944 
L 266.788459 94.122512 
L 267.09442 91.308557 
L 267.324829 87.814241 
L 267.563622 94.922968 
L 267.759853 84.271523 
L 268.099501 80.658619 
L 268.532791 88.275204 
L 268.756773 86.351679 
L 269.017167 85.1594 
L 269.530633 71.232682 
L 270.125731 77.375439 
L 270.245132 86.184218 
L 270.723 92.742661 
L 270.960397 92.087371 
L 271.318588 83.896793 
L 271.561653 98.492845 
L 271.735812 85.832066 
L 271.975033 95.342549 
L 272.454512 85.711143 
L 272.689423 98.710188 
L 272.927961 79.49061 
L 273.643316 89.845161 
L 273.969451 91.509134 
L 274.219372 94.064959 
L 274.658263 91.400158 
L 275.037647 95.325242 
L 275.313574 101.068772 
L 275.437851 94.191017 
L 275.791628 94.638342 
L 275.91339 101.810367 
L 276.20821 99.429585 
L 276.393789 88.881498 
L 276.812326 93.749526 
L 277.049078 81.813471 
L 277.162083 87.817331 
L 277.590469 97.341314 
L 277.779075 88.063065 
L 277.939041 94.770998 
L 278.12053 96.620395 
L 278.475781 72.984373 
L 278.624491 84.515602 
L 278.955747 75.93197 
L 279.193852 76.458202 
L 279.431173 87.85703 
L 279.612332 72.525384 
L 279.907556 85.63947 
L 280.086959 86.959262 
L 280.384925 101.540888 
L 280.623809 96.018009 
L 280.980465 103.00831 
L 281.457142 97.904914 
L 281.594071 90.50286 
L 281.873928 102.464864 
L 282.056615 89.10344 
L 282.113657 101.416934 
L 282.351481 95.413639 
L 282.533731 95.409215 
L 282.828435 94.667908 
L 283.068365 94.611172 
L 283.306338 89.590971 
L 283.66432 102.029862 
L 284.088847 80.24538 
L 284.319934 87.60816 
L 284.563335 91.482146 
L 284.856401 93.71566 
L 285.034625 82.511783 
L 285.276257 101.622839 
L 285.690436 93.049054 
L 285.810779 97.683234 
L 286.048783 101.662877 
L 286.292195 102.38677 
L 286.526687 89.037837 
L 286.769413 91.828518 
L 287.007247 82.44096 
L 287.262421 100.121175 
L 287.484106 85.410967 
L 288.024509 104.98953 
L 288.259375 90.167143 
L 288.497522 109.16488 
L 288.736219 89.026888 
L 289.035046 87.830095 
L 289.24077 92.458283 
L 289.455069 110.561271 
L 289.811148 105.856952 
L 290.227704 110.675548 
L 290.347633 98.775699 
L 290.465879 100.701435 
L 290.883363 90.65296 
L 290.948755 107.384821 
L 291.225488 101.722536 
L 291.495528 87.623535 
L 291.679836 99.556487 
L 292.13465 81.679309 
L 292.194976 108.327972 
L 292.432576 100.321803 
L 292.730948 95.335922 
L 292.969282 94.288931 
L 293.504983 106.989725 
L 293.689059 102.165011 
L 293.924229 90.165918 
L 294.221147 83.112583 
L 294.466574 95.543707 
L 294.698997 84.72642 
L 294.878318 100.74289 
L 295.173661 95.989025 
L 295.4127 105.945488 
L 295.717231 106.068813 
L 295.948103 92.046515 
L 296.19442 93.189325 
L 296.426372 97.612612 
L 296.607631 97.524152 
L 296.961851 94.366105 
L 297.152314 88.541322 
L 297.438974 97.102116 
L 297.620443 86.704603 
L 297.929888 101.270543 
L 298.095365 100.414124 
L 298.335465 107.580125 
L 298.632709 98.171215 
L 298.870236 106.115946 
L 299.108436 100.744735 
L 299.60655 105.753766 
L 299.827215 111.144306 
L 300.182774 96.841939 
L 300.361705 106.617633 
L 300.600166 94.090833 
L 300.854175 95.68313 
L 301.079765 91.033494 
L 301.494049 111.943963 
L 301.613328 104.14632 
L 301.911255 123.246626 
L 302.09056 107.936923 
L 302.447614 113.678767 
L 302.626399 112.850274 
L 302.80676 123.017549 
L 303.043886 107.048922 
L 303.341324 109.700786 
L 303.54503 107.846064 
L 303.826118 112.109284 
L 304.41641 98.834838 
L 304.595673 99.210621 
L 304.95287 100.405661 
L 305.252232 91.594424 
L 305.31073 98.820754 
L 305.548602 104.68224 
L 305.846457 100.667865 
L 306.02906 103.631814 
L 306.385283 99.60056 
L 306.562027 69.153243 
L 306.801509 100.562949 
L 306.996024 105.77195 
L 307.281744 106.253075 
L 307.656728 110.532769 
L 307.900046 111.285555 
L 308.067971 123.389463 
L 308.299126 103.800768 
L 308.537897 126.594041 
L 308.839248 120.128915 
L 309.086734 119.82557 
L 309.313549 119.037408 
L 309.455479 117.05415 
L 309.930311 107.490403 
L 310.001814 100.322517 
L 310.28921 109.034085 
L 310.527271 90.103712 
L 310.708003 110.649101 
L 311.063774 106.442149 
L 311.611583 116.55972 
L 311.781527 95.734243 
L 312.017687 105.279899 
L 312.375319 129.32225 
L 312.501747 124.353399 
L 312.732977 127.0349 
L 313.090224 126.439569 
L 313.212638 1.526656 
L 313.805492 50.078079 
L 314.235778 183.675688 
L 314.58015 205.55868 
L 314.701814 234.459603 
L 314.938888 245.926604 
L 315.237717 271.416969 
L 315.594079 278.726656 
L 316.016983 257.419414 
L 316.452034 232.685464 
L 316.695304 179.664123 
L 316.995565 164.581778 
L 317.110027 123.606418 
L 317.763281 77.029261 
L 318.180102 73.255445 
L 318.359189 71.753249 
L 318.959086 102.842496 
L 319.49789 113.999149 
L 319.614865 137.096011 
L 319.910478 138.862136 
L 320.14826 156.775295 
L 320.328134 158.080664 
L 320.624731 153.451787 
L 320.864807 136.560116 
L 321.102007 134.592118 
L 321.340325 114.530807 
L 321.584298 105.49779 
L 321.878065 114.922476 
L 322.117615 106.982822 
L 322.357206 102.901983 
L 322.592008 107.551448 
L 323.310491 142.573373 
L 323.548541 144.674425 
L 324.083748 156.988603 
L 324.50419 153.72489 
L 324.569671 158.04589 
L 324.802157 140.114031 
L 325.812051 97.612471 
L 326.051482 102.595099 
L 326.530758 96.029329 
L 326.852363 108.106777 
L 327.242305 111.421772 
L 327.301953 126.657413 
L 327.778986 143.464914 
L 328.256505 148.748612 
L 328.495475 161.939841 
L 328.794246 144.983557 
L 329.171816 146.140126 
L 329.275333 133.663532 
L 329.508337 121.404394 
L 329.745474 129.022168 
L 330.282264 115.352787 
L 330.580948 117.13539 
L 330.761294 115.379378 
L 331.057073 123.175402 
L 331.312423 121.718695 
L 331.798258 140.466126 
L 332.018819 137.469246 
L 332.248663 138.027353 
L 332.487919 136.042489 
L 332.725398 127.872709 
L 333.024265 126.45033 
L 333.502737 110.729095 
L 333.741417 113.678212 
L 334.226045 105.702066 
L 334.762633 123.533828 
L 335.022935 128.446929 
L 335.231468 137.385671 
L 335.469651 141.815983 
L 335.709664 144.096389 
L 335.971918 151.54392 
L 336.184852 161.741057 
L 336.423478 161.926301 
L 336.663453 158.152147 
L 336.900926 146.582723 
L 337.317585 142.378031 
L 337.916816 123.019234 
L 338.161358 129.457052 
L 338.54477 115.185988 
L 338.658091 125.411745 
L 338.944233 126.172306 
L 338.991294 127.663864 
L 339.29103 141.870987 
L 339.410048 136.863385 
L 339.945144 142.77483 
L 340.12328 143.057597 
L 340.421547 144.599163 
L 340.719728 130.717678 
L 340.898441 131.884536 
L 341.13678 128.11137 
L 341.375437 120.206966 
L 341.615004 118.692323 
L 341.917182 108.384509 
L 342.091832 108.124043 
L 342.592547 121.308733 
L 342.865715 127.773326 
L 343.224194 126.919221 
L 343.364331 140.640176 
L 343.819625 150.310074 
L 344.2367 149.789929 
L 344.355474 151.328211 
L 344.654162 144.326845 
L 344.835051 135.43063 
L 345.381281 119.162453 
L 345.609531 110.610616 
L 345.793405 116.292129 
L 346.084919 107.671768 
L 346.386542 107.909235 
L 346.623265 116.748563 
L 346.800697 108.353776 
L 347.336523 127.057284 
L 347.812551 138.599378 
L 348.051726 141.324931 
L 348.470912 139.504979 
L 348.531021 132.898067 
L 349.025631 125.119708 
L 349.25029 118.756697 
L 349.603408 121.401583 
L 350.26536 109.534711 
L 350.557034 120.170393 
L 350.855204 111.839052 
L 351.033535 121.358302 
L 351.272515 128.137731 
L 351.510253 147.01918 
L 351.86755 131.013035 
L 352.048182 141.460093 
L 352.34541 135.85995 
L 352.643325 137.78619 
L 353.001631 124.682435 
L 353.358236 129.478489 
L 353.656081 121.14042 
L 353.777296 113.86055 
L 354.192068 116.403428 
L 354.26785 110.987586 
L 354.49016 104.549788 
L 354.967142 120.738039 
L 355.26572 128.105129 
L 355.563366 131.462988 
L 355.691361 125.469907 
L 355.993376 134.052768 
L 356.230389 134.1098 
L 356.695564 124.077238 
L 357.11492 121.585326 
L 357.232346 128.29728 
L 357.414082 120.360255 
L 358.067321 110.854202 
L 358.200121 110.887719 
L 358.619507 119.166871 
L 358.726755 119.106184 
L 358.964857 120.338157 
L 359.203431 127.838841 
L 359.448191 130.761754 
L 359.739861 131.749697 
L 359.918637 132.984783 
L 360.223373 129.796803 
L 360.464925 124.525186 
L 360.754514 136.839008 
L 360.876193 121.395696 
L 361.129106 125.056208 
L 361.415503 121.241013 
L 361.661674 124.785106 
L 362.185637 116.057337 
L 362.424082 122.604575 
L 362.662654 124.342708 
L 362.950189 121.841735 
L 363.20353 135.77287 
L 363.423447 124.595773 
L 363.622003 126.383678 
L 363.916371 119.740527 
L 364.393153 129.607198 
L 364.630544 128.473982 
L 364.92917 123.270882 
L 365.107627 122.233816 
L 365.345698 120.077224 
L 365.643635 132.47123 
L 365.941582 121.839126 
L 366.120566 120.416474 
L 366.430486 109.665576 
L 366.661699 118.950946 
L 366.95586 124.132242 
L 367.137644 129.792382 
L 367.313284 131.498569 
L 367.613202 131.082016 
L 367.848153 124.217651 
L 368.164973 123.476484 
L 368.328014 130.736152 
L 368.629685 121.704932 
L 368.92628 125.228931 
L 369.113805 119.472301 
L 369.34484 116.521732 
L 369.529356 118.319615 
L 369.821758 119.650274 
L 370.240307 130.854978 
L 370.360723 118.194733 
L 370.778089 125.653886 
L 371.015218 125.072378 
L 371.312315 120.18285 
L 371.555098 126.831806 
L 371.789135 126.646218 
L 372.027824 126.717163 
L 372.325578 123.758591 
L 372.861574 120.629246 
L 373.223258 121.327009 
L 373.397043 120.300143 
L 373.93445 114.018899 
L 373.993192 141.09281 
L 374.356468 127.381356 
L 374.71244 123.40427 
L 375.080509 122.014477 
L 375.245909 125.427503 
L 375.486534 125.144817 
L 375.841426 134.327384 
L 376.021182 134.755407 
L 376.325316 128.22086 
L 376.501063 138.230135 
L 376.735908 125.926319 
L 377.154139 126.092174 
L 377.275259 127.486631 
L 377.454122 117.370171 
L 377.691085 115.122483 
L 377.97089 122.66957 
L 378.228234 122.003346 
L 378.467507 122.547451 
L 378.705786 124.629188 
L 379.003346 118.275707 
L 379.182787 128.67433 
L 379.541591 127.972873 
L 379.77876 134.114585 
L 379.957593 130.492609 
L 380.315476 128.33955 
L 380.43452 121.37621 
L 380.67377 117.925153 
L 380.971538 115.315742 
L 381.209422 120.145422 
L 381.566802 123.418367 
L 381.744983 123.628681 
L 382.170296 121.737661 
L 382.401177 124.080588 
L 382.640935 119.715297 
L 382.938268 129.879147 
L 383.116642 129.993328 
L 383.414778 131.112752 
L 383.653191 127.475827 
L 383.891272 117.482682 
L 384.130172 121.915626 
L 384.36784 124.247745 
L 384.608478 124.419033 
L 385.024513 122.506342 
L 385.141968 117.779885 
L 385.442062 121.386304 
L 385.737779 120.231442 
L 385.982328 126.951492 
L 386.154941 117.616073 
L 386.633083 127.835749 
L 386.871953 125.364821 
L 387.288124 123.607581 
L 387.408358 112.342717 
L 387.704159 129.529284 
L 387.883735 125.777531 
L 388.12156 128.453457 
L 388.360572 120.59522 
L 388.657811 122.206613 
L 388.83674 120.472168 
L 389.078696 119.78614 
L 389.373409 119.287681 
L 389.85151 124.169812 
L 390.209139 125.485072 
L 390.327434 120.951483 
L 390.566718 122.805535 
L 390.866233 131.20811 
L 391.578394 122.38574 
L 391.956832 121.600839 
L 392.061414 119.358256 
L 392.294363 124.237857 
L 392.534085 113.873671 
L 392.775135 117.183129 
L 393.014287 123.682653 
L 393.427847 116.051504 
L 393.65145 129.24005 
L 393.785792 124.23667 
L 394.023607 123.60075 
L 394.261973 122.513521 
L 394.798172 122.40867 
L 395.156539 118.457188 
L 395.275553 113.335962 
L 395.574048 115.716094 
L 395.817442 115.702409 
L 396.050757 113.257278 
L 396.709418 124.317282 
L 397.006497 126.931722 
L 397.24286 127.662996 
L 397.480824 122.289446 
L 397.839129 128.741962 
L 398.01748 128.959418 
L 398.255879 134.025174 
L 398.493969 129.950767 
L 398.732782 137.760804 
L 399.032184 136.946577 
L 399.629341 127.148551 
L 399.867123 133.616016 
L 399.986143 115.502571 
L 400.224723 115.628303 
L 400.464749 117.54122 
L 400.710246 110.236972 
L 401.000306 107.61509 
L 401.240795 114.695711 
L 401.476641 117.533468 
L 401.775515 117.472115 
L 401.955105 122.397146 
L 402.253688 134.318263 
L 402.431344 120.619409 
L 402.669635 125.477939 
L 403.206332 121.883145 
L 403.397622 131.542177 
L 403.633589 124.886637 
L 403.922551 124.005393 
L 404.188901 127.177355 
L 404.402506 128.213328 
L 404.641312 122.722971 
L 404.947887 133.945143 
L 405.175669 124.198488 
L 405.385104 126.78061 
L 405.65268 128.569527 
L 405.894417 136.661349 
L 406.132636 127.394249 
L 406.426561 127.585598 
L 406.667313 123.508058 
L 406.963223 124.892986 
L 407.144113 138.66711 
L 407.380891 138.342899 
L 407.619993 127.171809 
L 407.860801 126.455234 
L 408.217822 121.296665 
L 408.398363 134.428518 
L 408.636507 120.299454 
L 408.917998 117.419148 
L 409.234688 117.154937 
L 409.470635 109.426646 
L 409.589722 125.312352 
L 409.829013 128.938607 
L 410.126347 120.90847 
L 410.42592 124.529037 
L 410.606015 129.484253 
L 410.844374 124.300455 
L 411.143152 126.185179 
L 411.320402 123.791263 
L 411.619643 123.293185 
L 411.857209 125.473848 
L 412.096215 111.39185 
L 412.512689 117.575596 
L 412.58546 115.345577 
L 412.87158 118.234057 
L 413.062343 123.737198 
L 413.456757 116.616387 
L 413.584819 128.02787 
L 413.81476 128.290612 
L 414.11483 129.047524 
L 414.472681 131.188653 
L 414.533583 125.88531 
L 414.830286 133.964665 
L 415.068038 130.96462 
L 415.559664 122.43169 
L 415.96323 123.171398 
L 416.023198 121.357149 
L 416.321581 121.197431 
L 416.563927 119.452536 
L 416.805148 124.947245 
L 417.002271 119.803441 
L 417.276707 130.389867 
L 418.054464 127.754206 
L 418.471725 128.376532 
L 418.530943 126.516861 
L 418.770431 130.53507 
L 419.126668 128.076613 
L 419.305279 121.238522 
L 419.487583 120.06473 
L 419.724077 116.644572 
L 419.962564 120.828353 
L 420.501517 119.582933 
L 420.738015 128.209948 
L 420.975057 123.862034 
L 421.214128 126.245769 
L 421.512226 126.682752 
L 421.693249 129.278623 
L 422.225812 131.044634 
L 422.234324 59.250819 
L 422.468961 127.367849 
L 422.825214 119.759889 
L 423.004989 121.98725 
L 423.252127 121.205026 
L 423.484338 124.946187 
L 423.840978 123.456391 
L 423.960579 116.702771 
L 424.145321 122.11817 
L 424.43705 124.566272 
L 424.675708 123.701769 
L 425.155055 127.2168 
L 425.574673 137.522671 
L 425.629286 120.34106 
L 425.988437 129.491456 
L 426.40654 132.887627 
L 426.64547 133.126776 
L 427.065099 131.793613 
L 427.190077 126.661788 
L 427.445399 130.812054 
L 427.659166 123.142796 
L 427.90644 122.836506 
L 427.958088 130.042284 
L 428.19698 131.441681 
L 428.436409 121.213663 
L 428.619145 119.521829 
L 428.8559 113.098732 
L 429.151322 111.856417 
L 429.628082 126.374463 
L 430.10485 110.194372 
L 430.344322 111.020706 
L 430.903823 122.971904 
L 431.121983 124.136189 
L 431.357652 186.585538 
L 431.843497 143.327417 
L 432.561897 116.339329 
L 432.821237 95.952111 
L 433.156978 86.833868 
L 433.594031 81.934616 
L 433.87843 84.616576 
L 434.121676 79.934028 
L 434.414608 81.169334 
L 434.534949 79.688176 
L 434.776173 87.554395 
L 435.198864 93.628621 
L 435.318081 113.238569 
L 435.54992 120.395454 
L 435.793016 122.388047 
L 436.163582 129.521284 
L 436.324342 128.87399 
L 436.627299 131.883241 
L 436.862153 132.42296 
L 437.100266 129.390207 
L 437.400723 134.642595 
L 437.640155 114.684788 
L 437.947846 117.979575 
L 438.091135 116.794404 
L 438.242412 119.27459 
L 438.507695 111.092616 
L 438.778576 111.337439 
L 439.093849 105.413389 
L 439.259491 95.911217 
L 439.609454 107.637679 
L 439.813723 110.725776 
L 440.027646 122.984359 
L 440.326857 125.128492 
L 440.505242 129.88214 
L 440.743769 129.639555 
L 440.985603 127.02628 
L 441.460589 115.753871 
L 441.817555 114.196677 
L 441.996582 112.381095 
L 442.476381 97.260137 
L 442.882088 104.058041 
L 443.119643 102.478261 
L 443.306995 106.024639 
L 443.537398 91.367254 
L 443.835364 112.882776 
L 444.193965 120.868903 
L 444.670741 117.758071 
L 444.792607 125.708712 
L 445.029606 130.770935 
L 445.566243 112.605319 
L 445.69185 122.899297 
L 446.223006 101.543923 
L 446.46149 100.434504 
L 446.703529 93.032097 
L 446.93948 94.447581 
L 447.182432 99.781391 
L 447.4174 99.50131 
L 447.656135 95.118808 
L 447.904892 106.660318 
L 448.138367 104.473375 
L 448.437338 113.344912 
L 448.625267 111.872423 
L 448.91479 112.241764 
L 449.152725 110.755367 
L 449.392189 101.213859 
L 449.808343 105.639455 
L 449.89612 102.47297 
L 450.16705 107.707496 
L 450.46407 107.916462 
L 450.761942 104.420309 
L 450.94209 110.579293 
L 451.180519 105.182575 
L 451.425902 116.771066 
L 451.658653 120.044896 
L 452.077357 130.966424 
L 452.326715 122.178635 
L 452.613173 126.357828 
L 452.864845 121.552264 
L 453.098099 109.634787 
L 453.469682 112.173647 
L 453.632802 102.429389 
L 453.809319 109.065835 
L 454.134366 108.242042 
L 454.345201 93.641967 
L 454.765606 98.513943 
L 454.847127 96.213892 
L 455.071869 102.380091 
L 455.300727 99.014499 
L 455.539853 100.578839 
L 455.961335 105.52022 
L 456.150748 112.022915 
L 456.566905 98.926289 
L 456.984034 107.141339 
L 457.044693 103.905531 
L 457.462645 107.199744 
L 457.700957 106.987176 
L 457.762486 103.935227 
L 458.176246 92.593723 
L 458.295734 103.032629 
L 458.535771 93.849892 
L 458.772737 95.810119 
L 459.18988 90.499472 
L 459.309275 91.349533 
L 459.548312 88.095559 
L 459.792529 88.378592 
L 459.846799 91.844362 
L 460.026983 87.898357 
L 460.264394 79.177045 
L 460.505547 95.678712 
L 460.801349 97.184316 
L 460.981197 92.326636 
L 461.300883 90.39043 
L 461.461133 92.121057 
L 461.759676 78.015823 
L 461.997667 87.491772 
L 462.240011 83.127775 
L 462.535859 89.714408 
L 462.954361 83.15894 
L 463.252644 90.773632 
L 463.439137 89.461953 
L 463.848593 91.754138 
L 463.995751 98.953421 
L 464.210024 100.453557 
L 464.468285 101.198117 
L 464.68398 102.204457 
L 464.923343 105.058106 
L 465.170704 100.288931 
L 465.469677 91.206331 
L 465.710789 95.421063 
L 466.009353 94.543636 
L 466.483619 88.404379 
L 466.663185 91.296011 
L 466.961408 86.200795 
L 467.199234 87.292748 
L 467.597038 84.809821 
L 467.744427 88.96017 
L 467.921045 79.948094 
L 468.454257 92.240382 
L 468.761166 87.491497 
L 468.931187 91.629602 
L 469.179483 88.249526 
L 469.542461 88.837828 
L 469.64942 90.331104 
L 469.893371 89.861397 
L 470.128335 80.547646 
L 470.435389 79.853456 
L 470.683137 83.385029 
L 470.906718 81.919411 
L 471.143739 84.2217 
L 471.389817 81.268316 
L 471.865224 91.722465 
L 472.16172 93.747616 
L 472.456786 91.716758 
L 472.636186 94.966084 
L 473.172886 86.696313 
L 473.400235 87.59092 
L 473.868197 81.421433 
L 474.170263 88.272042 
L 474.354868 74.405702 
L 474.645427 74.746662 
L 474.949827 79.422967 
L 475.125654 72.341223 
L 475.601585 83.680352 
L 476.079329 78.297029 
L 476.317061 80.524453 
L 476.555932 90.969092 
L 476.795462 80.289138 
L 477.212458 82.693224 
L 477.361592 95.078241 
L 477.749946 82.943684 
L 477.868828 89.038007 
L 478.107403 82.921701 
L 478.345862 90.339616 
L 478.643526 84.225662 
L 478.775738 89.202305 
L 479.035221 91.393209 
L 479.305237 83.301385 
L 479.600228 89.357524 
L 479.798874 89.195777 
L 480.01865 91.871733 
L 480.259337 103.357402 
L 480.639147 99.455354 
L 480.797255 101.106249 
L 481.032858 89.488297 
L 481.30086 95.276074 
L 481.594462 93.903523 
L 481.817167 93.597807 
L 482.112202 87.648224 
L 482.54011 95.694041 
L 482.796157 85.813707 
L 483.087039 89.635933 
L 483.208624 81.365803 
L 483.500877 88.046639 
L 483.799178 91.379989 
L 484.097273 88.244655 
L 484.216787 92.080943 
L 484.514676 88.26563 
L 484.761105 78.270678 
L 485.008903 85.595235 
L 485.230884 88.68113 
L 485.470722 88.671406 
L 486.247979 76.201714 
L 486.483328 76.254654 
L 486.721699 72.038068 
L 486.961225 73.307024 
L 487.206514 70.263075 
L 487.440359 68.818115 
L 487.677248 69.8343 
L 488.037454 66.159586 
L 488.214516 62.772815 
L 488.455338 70.966095 
L 488.751713 66.310684 
L 489.288177 68.669824 
L 489.540319 67.948535 
L 489.706772 66.519836 
L 490.005091 67.24374 
L 490.242896 62.81242 
L 490.481391 64.71086 
L 490.683853 65.007607 
L 490.899752 64.337207 
L 491.201618 62.812309 
L 491.494573 67.93553 
L 491.741352 62.01079 
L 491.913287 62.834893 
L 492.154206 67.515595 
L 492.390345 63.735583 
L 492.705805 68.306852 
L 492.884784 66.484726 
L 493.122928 70.160771 
L 493.601015 69.973778 
L 493.66099 63.225359 
L 493.95881 69.972144 
L 494.141209 66.320238 
L 494.380638 65.090171 
L 494.614303 65.838414 
L 494.912142 64.018955 
L 495.092642 60.488449 
L 495.391562 69.387636 
L 495.688062 69.505117 
L 495.866611 73.687011 
L 496.169394 73.655765 
L 496.407336 78.420204 
L 496.644163 69.29421 
L 496.931081 76.00414 
L 497.122047 77.512246 
L 497.32743 74.387275 
L 497.602808 75.470046 
L 497.947291 79.687891 
L 498.384535 72.95998 
L 498.621652 74.359632 
L 498.860584 68.14532 
L 499.337413 76.716553 
L 499.576371 73.832062 
L 499.817608 72.854105 
L 500.113488 68.917882 
L 500.293182 78.382324 
L 500.609204 78.213898 
L 500.650281 81.658014 
L 500.829084 84.988213 
L 501.130331 71.417376 
L 501.425955 79.582829 
L 501.604394 77.977148 
L 502.085048 71.700112 
L 502.142852 65.517395 
L 502.321119 70.613168 
L 502.565805 71.447273 
L 503.051282 67.347357 
L 503.27591 66.77463 
L 503.515493 56.820718 
L 503.872555 55.21285 
L 504.051407 61.277346 
L 504.229888 55.643848 
L 504.650095 61.23094 
L 504.707569 53.058451 
L 505.069486 55.352753 
L 505.311707 52.275725 
L 505.547959 56.153278 
L 505.78225 57.691811 
L 506.020268 60.454234 
L 506.266043 67.34747 
L 506.569872 62.067833 
L 506.746757 68.357756 
L 506.993307 70.087962 
L 507.231373 74.014679 
L 507.475334 69.536787 
L 507.708032 70.90526 
L 508.005894 65.608139 
L 508.190358 76.25864 
L 508.485193 66.301692 
L 508.787092 82.664662 
L 509.01986 65.197015 
L 509.275368 62.977405 
L 509.498512 77.523051 
L 509.921977 67.95409 
L 509.97473 71.692096 
L 510.21317 66.412967 
L 510.631246 71.2665 
L 510.691646 71.035026 
L 510.932276 72.409376 
L 511.266656 69.815168 
L 511.427141 67.006099 
L 511.731757 67.839216 
L 511.94593 61.829221 
L 512.202575 64.925973 
L 512.42372 62.700779 
L 512.662927 57.165655 
L 512.902669 68.948505 
L 513.214663 51.359166 
L 513.619081 62.598798 
L 513.68035 54.68011 
L 513.915563 58.379573 
L 514.39837 53.160204 
L 514.571539 53.391973 
L 514.703169 59.025728 
L 514.890518 53.803036 
L 515.247869 58.261034 
L 515.468485 51.785318 
L 515.690172 50.391732 
L 515.918439 44.361949 
L 516.15758 42.554901 
L 516.400242 38.143638 
L 516.762513 48.142411 
L 516.922212 41.060673 
L 517.159528 40.61845 
L 517.51651 39.16003 
L 517.702683 34.190789 
L 517.878201 41.311322 
L 518.173168 45.639229 
L 518.480489 42.122007 
L 518.653123 43.776603 
L 518.951708 50.431077 
L 519.130101 45.262139 
L 519.388449 44.718735 
L 519.725267 46.684292 
L 519.86004 41.263674 
L 520.141772 36.415603 
L 520.439599 11.209855 
L 520.621899 24.777177 
L 520.859464 21.47856 
L 521.115203 24.515725 
L 521.39507 24.837772 
L 521.87368 52.767244 
L 522.117242 58.650311 
L 522.363738 77.488797 
L 522.827932 95.428616 
L 523.266623 97.488858 
L 523.497826 94.906059 
L 523.843711 92.311587 
L 524.380779 60.242143 
L 524.857058 47.544877 
L 524.9168 37.152706 
L 525.275559 27.836685 
L 525.403427 21.1575 
L 525.692727 20.03374 
L 525.814188 21.475107 
L 526.316015 26.053007 
L 526.596989 38.051771 
L 526.890514 44.528904 
L 527.008656 51.613697 
L 527.314102 59.238214 
L 527.785005 65.812921 
L 527.911085 70.164664 
L 528.28225 72.036559 
L 528.505796 70.344326 
L 529.533417 39.99641 
L 530.068147 33.792071 
L 530.247674 33.400901 
L 530.664454 33.729682 
L 530.905653 34.938121 
L 531.262127 35.534467 
L 531.621121 39.654282 
L 531.88268 40.712669 
L 532.001118 40.232771 
L 532.524468 35.660699 
L 532.939696 31.389176 
L 533.23581 32.596918 
L 533.470149 29.683719 
L 533.72434 34.333345 
L 534.245028 37.517775 
L 534.720395 47.000004 
L 535.260177 55.548574 
L 535.504579 58.092647 
L 535.801994 58.69201 
L 535.979304 56.284647 
L 537.241818 29.589111 
L 537.923297 22.556922 
L 538.187608 24.776038 
L 538.723835 34.918611 
L 538.905185 41.168522 
L 539.439601 49.195248 
L 539.680701 50.23311 
L 539.916955 49.301203 
L 540.155601 47.742522 
L 540.924843 36.813089 
L 541.177946 34.946256 
L 541.483777 34.070749 
L 541.832702 35.283822 
L 541.907515 37.239642 
L 542.613306 45.22509 
L 543.147255 48.783423 
L 543.385554 48.73244 
L 543.625901 47.242038 
L 544.160754 39.357865 
L 544.699628 28.907383 
L 545.177199 23.394221 
L 546.013013 21.006764 
L 546.191021 21.643323 
L 547.086927 37.518186 
L 547.562717 43.88238 
L 547.800201 46.11567 
L 548.044159 46.81206 
L 548.57849 47.333775 
L 548.874603 46.701938 
L 549.551337 46.361738 
L 549.769221 46.043173 
L 550.187418 46.254615 
L 551.264901 51.264975 
L 551.511124 50.956273 
L 551.737027 49.72531 
L 552.395465 43.504973 
L 552.516451 40.317187 
L 553.531832 31.174878 
L 553.764774 29.454951 
L 554.326986 27.852132 
L 554.565702 28.476561 
L 554.745389 30.250468 
L 554.984158 31.195636 
L 555.281591 31.448371 
L 555.654441 30.679161 
L 555.937535 28.945146 
L 556.23672 28.1671 
L 556.47617 26.522794 
L 556.966916 24.988775 
L 557.459078 26.338652 
L 557.743454 34.991109 
L 558.695445 56.661306 
L 559.210968 61.659089 
L 559.509203 61.50891 
L 559.92538 54.637042 
L 560.468553 49.529914 
L 560.652229 44.651131 
L 561.186721 34.768445 
L 561.675585 27.100952 
L 561.924237 28.799331 
L 562.450932 35.989723 
L 562.879261 41.961946 
L 563.168071 43.973359 
L 563.541892 45.582207 
L 563.663332 46.732666 
L 564.063923 46.765493 
L 564.187013 45.135126 
L 564.602546 35.922107 
L 565.099238 31.991513 
L 565.376283 32.978264 
L 565.913609 38.589802 
L 566.807687 50.046151 
L 566.871061 54.263345 
L 567.109206 56.647436 
L 567.348511 57.378058 
L 567.602314 56.391312 
L 567.889683 53.742167 
L 568.36386 44.742951 
L 568.905048 35.666352 
L 569.495961 31.563584 
L 569.556614 32.920464 
L 569.830097 33.83972 
L 570.180186 34.498788 
L 570.296782 34.137024 
L 570.596187 34.256724 
L 570.840372 35.845189 
L 571.551927 44.875304 
L 571.854597 44.996021 
L 572.030259 42.061596 
L 572.518413 37.942758 
L 572.804311 38.6026 
L 573.047077 40.692013 
L 573.343047 40.237752 
L 573.705169 38.147131 
L 573.889969 35.297572 
L 574.05876 34.702744 
L 574.655476 39.630423 
L 574.789855 42.32523 
L 574.970739 43.636914 
L 575.266685 42.393481 
L 575.509254 40.281059 
L 575.806683 40.6874 
L 575.982989 42.812465 
L 576.28069 43.908045 
L 576.639918 41.59065 
L 576.819632 37.572528 
L 577.176708 35.648823 
L 577.414148 36.582414 
L 577.951032 47.277477 
L 578.309387 47.100935 
L 578.728967 44.082342 
L 579.051607 45.842392 
L 579.234913 48.129077 
L 579.471695 47.105777 
L 579.707111 43.683069 
L 580.001437 41.501344 
L 580.432509 40.275687 
L 580.954797 41.60652 
L 581.193618 41.319308 
L 581.503861 40.065807 
L 581.67021 41.400946 
L 582.031218 42.863358 
L 582.167232 44.027523 
L 582.685641 43.220339 
L 582.987025 43.308676 
L 583.282015 44.920522 
L 583.519781 48.521281 
L 583.93793 49.858875 
L 584.119675 49.657462 
L 584.35554 46.221246 
L 584.712611 44.369455 
L 584.891392 44.682544 
L 585.071395 45.987247 
L 585.399086 45.845429 
L 585.63542 43.858507 
L 585.908154 37.084512 
L 586.150599 35.754424 
L 586.440302 36.994677 
L 586.619088 40.182771 
L 587.158906 45.635427 
L 587.45692 46.135205 
L 587.635596 44.100828 
L 588.119341 42.579438 
L 588.64969 43.549208 
L 588.888745 42.513995 
L 589.128115 39.359321 
L 589.546397 37.923871 
L 590.201208 41.21532 
L 590.339608 41.238433 
L 591.098088 42.960972 
L 591.644742 42.025021 
L 591.94111 42.577699 
L 592.179709 41.2861 
L 592.35766 37.444991 
L 592.599352 36.443662 
L 592.95496 38.230071 
L 593.252524 37.909913 
L 593.492874 39.143528 
L 593.612706 40.645705 
L 594.038067 41.826483 
L 594.510253 39.598684 
L 594.863145 39.939721 
L 595.041953 41.064184 
L 595.294118 41.330775 
L 595.520186 42.425361 
L 595.995268 38.517773 
L 596.502813 38.267526 
L 596.502813 38.267526 
" clip-path="url(#p524bbbb8a9)" style="fill: none; stroke: #ff0000; stroke-opacity: 0.7; stroke-width: 1.5; stroke-linecap: square"/>
   </g>
   <g id="patch_3">
    <path d="M 38.502813 278.726656 
L 38.502813 1.526656 
" style="fill: none; stroke: #000000; stroke-width: 0.8; stroke-linejoin: miter; stroke-linecap: square"/>
   </g>
   <g id="patch_4">
    <path d="M 596.502813 278.726656 
L 596.502813 1.526656 
" style="fill: none; stroke: #000000; stroke-width: 0.8; stroke-linejoin: miter; stroke-linecap: square"/>
   </g>
   <g id="patch_5">
    <path d="M 38.502813 278.726656 
L 596.502813 278.726656 
" style="fill: none; stroke: #000000; stroke-width: 0.8; stroke-linejoin: miter; stroke-linecap: square"/>
   </g>
   <g id="patch_6">
    <path d="M 38.502813 1.526656 
L 596.502813 1.526656 
" style="fill: none; stroke: #000000; stroke-width: 0.8; stroke-linejoin: miter; stroke-linecap: square"/>
   </g>
   <g id="legend_1">
    <g id="patch_7">
     <path d="M 45.502813 38.882906 
L 119.271563 38.882906 
Q 121.271563 38.882906 121.271563 36.882906 
L 121.271563 8.526656 
Q 121.271563 6.526656 119.271563 6.526656 
L 45.502813 6.526656 
Q 43.502813 6.526656 43.502813 8.526656 
L 43.502813 36.882906 
Q 43.502813 38.882906 45.502813 38.882906 
z
" style="fill: #ffffff; opacity: 0.8; stroke: #cccccc; stroke-linejoin: miter"/>
    </g>
    <g id="line2d_29">
     <path d="M 47.502813 14.625094 
L 57.502813 14.625094 
L 67.502813 14.625094 
" style="fill: none; stroke: #0000ff; stroke-opacity: 0.7; stroke-width: 1.5; stroke-linecap: square"/>
    </g>
    <g id="text_16">
     <!-- RNEA -->
     <g transform="translate(75.502813 18.125094) scale(0.1 -0.1)">
      <defs>
       <path id="DejaVuSans-52" d="M 2841 2188 
Q 3044 2119 3236 1894 
Q 3428 1669 3622 1275 
L 4263 0 
L 3584 0 
L 2988 1197 
Q 2756 1666 2539 1819 
Q 2322 1972 1947 1972 
L 1259 1972 
L 1259 0 
L 628 0 
L 628 4666 
L 2053 4666 
Q 2853 4666 3247 4331 
Q 3641 3997 3641 3322 
Q 3641 2881 3436 2590 
Q 3231 2300 2841 2188 
z
M 1259 4147 
L 1259 2491 
L 2053 2491 
Q 2509 2491 2742 2702 
Q 2975 2913 2975 3322 
Q 2975 3731 2742 3939 
Q 2509 4147 2053 4147 
L 1259 4147 
z
" transform="scale(0.015625)"/>
       <path id="DejaVuSans-45" d="M 628 4666 
L 3578 4666 
L 3578 4134 
L 1259 4134 
L 1259 2753 
L 3481 2753 
L 3481 2222 
L 1259 2222 
L 1259 531 
L 3634 531 
L 3634 0 
L 628 0 
L 628 4666 
z
" transform="scale(0.015625)"/>
       <path id="DejaVuSans-41" d="M 2188 4044 
L 1331 1722 
L 3047 1722 
L 2188 4044 
z
M 1831 4666 
L 2547 4666 
L 4325 0 
L 3669 0 
L 3244 1197 
L 1141 1197 
L 716 0 
L 50 0 
L 1831 4666 
z
" transform="scale(0.015625)"/>
      </defs>
      <use xlink:href="#DejaVuSans-52"/>
      <use xlink:href="#DejaVuSans-4e" x="69.482422"/>
      <use xlink:href="#DejaVuSans-45" x="144.287109"/>
      <use xlink:href="#DejaVuSans-41" x="207.470703"/>
     </g>
    </g>
    <g id="line2d_30">
     <path d="M 47.502813 29.303219 
L 57.502813 29.303219 
L 67.502813 29.303219 
" style="fill: none; stroke: #ff0000; stroke-opacity: 0.7; stroke-width: 1.5; stroke-linecap: square"/>
    </g>
    <g id="text_17">
     <!-- BURNEA -->
     <g transform="translate(75.502813 32.803219) scale(0.1 -0.1)">
      <defs>
       <path id="DejaVuSans-42" d="M 1259 2228 
L 1259 519 
L 2272 519 
Q 2781 519 3026 730 
Q 3272 941 3272 1375 
Q 3272 1813 3026 2020 
Q 2781 2228 2272 2228 
L 1259 2228 
z
M 1259 4147 
L 1259 2741 
L 2194 2741 
Q 2656 2741 2882 2914 
Q 3109 3088 3109 3444 
Q 3109 3797 2882 3972 
Q 2656 4147 2194 4147 
L 1259 4147 
z
M 628 4666 
L 2241 4666 
Q 2963 4666 3353 4366 
Q 3744 4066 3744 3513 
Q 3744 3084 3544 2831 
Q 3344 2578 2956 2516 
Q 3422 2416 3680 2098 
Q 3938 1781 3938 1306 
Q 3938 681 3513 340 
Q 3088 0 2303 0 
L 628 0 
L 628 4666 
z
" transform="scale(0.015625)"/>
       <path id="DejaVuSans-55" d="M 556 4666 
L 1191 4666 
L 1191 1831 
Q 1191 1081 1462 751 
Q 1734 422 2344 422 
Q 2950 422 3222 751 
Q 3494 1081 3494 1831 
L 3494 4666 
L 4128 4666 
L 4128 1753 
Q 4128 841 3676 375 
Q 3225 -91 2344 -91 
Q 1459 -91 1007 375 
Q 556 841 556 1753 
L 556 4666 
z
" transform="scale(0.015625)"/>
      </defs>
      <use xlink:href="#DejaVuSans-42"/>
      <use xlink:href="#DejaVuSans-55" x="68.603516"/>
      <use xlink:href="#DejaVuSans-52" x="141.796875"/>
      <use xlink:href="#DejaVuSans-4e" x="211.279297"/>
      <use xlink:href="#DejaVuSans-45" x="286.083984"/>
      <use xlink:href="#DejaVuSans-41" x="349.267578"/>
     </g>
    </g>
   </g>
  </g>
 </g>
 <defs>
  <clipPath id="p524bbbb8a9">
   <rect x="38.502813" y="1.526656" width="558" height="277.2"/>
  </clipPath>
 </defs>
</svg>
