<?xml version="1.0" encoding="utf-8" standalone="no"?>
<!DOCTYPE svg PUBLIC "-//W3C//DTD SVG 1.1//EN"
  "http://www.w3.org/Graphics/SVG/1.1/DTD/svg11.dtd">
<svg xmlns:xlink="http://www.w3.org/1999/xlink" width="597.222813pt" height="304.99625pt" viewBox="0 0 597.222813 304.99625" xmlns="http://www.w3.org/2000/svg" version="1.1">
 <metadata>
  <rdf:RDF xmlns:dc="http://purl.org/dc/elements/1.1/" xmlns:cc="http://creativecommons.org/ns#" xmlns:rdf="http://www.w3.org/1999/02/22-rdf-syntax-ns#">
   <cc:Work>
    <dc:type rdf:resource="http://purl.org/dc/dcmitype/StillImage"/>
    <dc:date>2023-09-05T22:08:45.341281</dc:date>
    <dc:format>image/svg+xml</dc:format>
    <dc:creator>
     <cc:Agent>
      <dc:title>Matplotlib v3.7.2, https://matplotlib.org/</dc:title>
     </cc:Agent>
    </dc:creator>
   </cc:Work>
  </rdf:RDF>
 </metadata>
 <defs>
  <style type="text/css">*{stroke-linejoin: round; stroke-linecap: butt}</style>
 </defs>
 <g id="figure_1">
  <g id="patch_1">
   <path d="M 0 304.99625 
L 597.222813 304.99625 
L 597.222813 0 
L 0 0 
L 0 304.99625 
z
" style="fill: none"/>
  </g>
  <g id="axes_1">
   <g id="patch_2">
    <path d="M 38.502813 277.92 
L 596.502813 277.92 
L 596.502813 0.72 
L 38.502813 0.72 
L 38.502813 277.92 
z
" style="fill: none"/>
   </g>
   <g id="matplotlib.axis_1">
    <g id="xtick_1">
     <g id="line2d_1">
      <path d="M 38.502813 277.92 
L 38.502813 0.72 
" clip-path="url(#p4dbd2adc9c)" style="fill: none; stroke-dasharray: 0.8,1.32; stroke-dashoffset: 0; stroke: #000000; stroke-opacity: 0.5; stroke-width: 0.8"/>
     </g>
     <g id="line2d_2">
      <defs>
       <path id="mcc08e82997" d="M 0 0 
L 0 3.5 
" style="stroke: #000000; stroke-width: 0.8"/>
      </defs>
      <g>
       <use xlink:href="#mcc08e82997" x="38.502813" y="277.92" style="stroke: #000000; stroke-width: 0.8"/>
      </g>
     </g>
     <g id="text_1">
      <!-- 0.0 -->
      <g transform="translate(30.55125 292.518438) scale(0.1 -0.1)">
       <defs>
        <path id="DejaVuSans-30" d="M 2034 4250 
Q 1547 4250 1301 3770 
Q 1056 3291 1056 2328 
Q 1056 1369 1301 889 
Q 1547 409 2034 409 
Q 2525 409 2770 889 
Q 3016 1369 3016 2328 
Q 3016 3291 2770 3770 
Q 2525 4250 2034 4250 
z
M 2034 4750 
Q 2819 4750 3233 4129 
Q 3647 3509 3647 2328 
Q 3647 1150 3233 529 
Q 2819 -91 2034 -91 
Q 1250 -91 836 529 
Q 422 1150 422 2328 
Q 422 3509 836 4129 
Q 1250 4750 2034 4750 
z
" transform="scale(0.015625)"/>
        <path id="DejaVuSans-2e" d="M 684 794 
L 1344 794 
L 1344 0 
L 684 0 
L 684 794 
z
" transform="scale(0.015625)"/>
       </defs>
       <use xlink:href="#DejaVuSans-30"/>
       <use xlink:href="#DejaVuSans-2e" x="63.623047"/>
       <use xlink:href="#DejaVuSans-30" x="95.410156"/>
      </g>
     </g>
    </g>
    <g id="xtick_2">
     <g id="line2d_3">
      <path d="M 112.654137 277.92 
L 112.654137 0.72 
" clip-path="url(#p4dbd2adc9c)" style="fill: none; stroke-dasharray: 0.8,1.32; stroke-dashoffset: 0; stroke: #000000; stroke-opacity: 0.5; stroke-width: 0.8"/>
     </g>
     <g id="line2d_4">
      <g>
       <use xlink:href="#mcc08e82997" x="112.654137" y="277.92" style="stroke: #000000; stroke-width: 0.8"/>
      </g>
     </g>
     <g id="text_2">
      <!-- 2.5 -->
      <g transform="translate(104.702575 292.518438) scale(0.1 -0.1)">
       <defs>
        <path id="DejaVuSans-32" d="M 1228 531 
L 3431 531 
L 3431 0 
L 469 0 
L 469 531 
Q 828 903 1448 1529 
Q 2069 2156 2228 2338 
Q 2531 2678 2651 2914 
Q 2772 3150 2772 3378 
Q 2772 3750 2511 3984 
Q 2250 4219 1831 4219 
Q 1534 4219 1204 4116 
Q 875 4013 500 3803 
L 500 4441 
Q 881 4594 1212 4672 
Q 1544 4750 1819 4750 
Q 2544 4750 2975 4387 
Q 3406 4025 3406 3419 
Q 3406 3131 3298 2873 
Q 3191 2616 2906 2266 
Q 2828 2175 2409 1742 
Q 1991 1309 1228 531 
z
" transform="scale(0.015625)"/>
        <path id="DejaVuSans-35" d="M 691 4666 
L 3169 4666 
L 3169 4134 
L 1269 4134 
L 1269 2991 
Q 1406 3038 1543 3061 
Q 1681 3084 1819 3084 
Q 2600 3084 3056 2656 
Q 3513 2228 3513 1497 
Q 3513 744 3044 326 
Q 2575 -91 1722 -91 
Q 1428 -91 1123 -41 
Q 819 9 494 109 
L 494 744 
Q 775 591 1075 516 
Q 1375 441 1709 441 
Q 2250 441 2565 725 
Q 2881 1009 2881 1497 
Q 2881 1984 2565 2268 
Q 2250 2553 1709 2553 
Q 1456 2553 1204 2497 
Q 953 2441 691 2322 
L 691 4666 
z
" transform="scale(0.015625)"/>
       </defs>
       <use xlink:href="#DejaVuSans-32"/>
       <use xlink:href="#DejaVuSans-2e" x="63.623047"/>
       <use xlink:href="#DejaVuSans-35" x="95.410156"/>
      </g>
     </g>
    </g>
    <g id="xtick_3">
     <g id="line2d_5">
      <path d="M 186.805462 277.92 
L 186.805462 0.72 
" clip-path="url(#p4dbd2adc9c)" style="fill: none; stroke-dasharray: 0.8,1.32; stroke-dashoffset: 0; stroke: #000000; stroke-opacity: 0.5; stroke-width: 0.8"/>
     </g>
     <g id="line2d_6">
      <g>
       <use xlink:href="#mcc08e82997" x="186.805462" y="277.92" style="stroke: #000000; stroke-width: 0.8"/>
      </g>
     </g>
     <g id="text_3">
      <!-- 5.0 -->
      <g transform="translate(178.8539 292.518438) scale(0.1 -0.1)">
       <use xlink:href="#DejaVuSans-35"/>
       <use xlink:href="#DejaVuSans-2e" x="63.623047"/>
       <use xlink:href="#DejaVuSans-30" x="95.410156"/>
      </g>
     </g>
    </g>
    <g id="xtick_4">
     <g id="line2d_7">
      <path d="M 260.956787 277.92 
L 260.956787 0.72 
" clip-path="url(#p4dbd2adc9c)" style="fill: none; stroke-dasharray: 0.8,1.32; stroke-dashoffset: 0; stroke: #000000; stroke-opacity: 0.5; stroke-width: 0.8"/>
     </g>
     <g id="line2d_8">
      <g>
       <use xlink:href="#mcc08e82997" x="260.956787" y="277.92" style="stroke: #000000; stroke-width: 0.8"/>
      </g>
     </g>
     <g id="text_4">
      <!-- 7.5 -->
      <g transform="translate(253.005225 292.518438) scale(0.1 -0.1)">
       <defs>
        <path id="DejaVuSans-37" d="M 525 4666 
L 3525 4666 
L 3525 4397 
L 1831 0 
L 1172 0 
L 2766 4134 
L 525 4134 
L 525 4666 
z
" transform="scale(0.015625)"/>
       </defs>
       <use xlink:href="#DejaVuSans-37"/>
       <use xlink:href="#DejaVuSans-2e" x="63.623047"/>
       <use xlink:href="#DejaVuSans-35" x="95.410156"/>
      </g>
     </g>
    </g>
    <g id="xtick_5">
     <g id="line2d_9">
      <path d="M 335.108112 277.92 
L 335.108112 0.72 
" clip-path="url(#p4dbd2adc9c)" style="fill: none; stroke-dasharray: 0.8,1.32; stroke-dashoffset: 0; stroke: #000000; stroke-opacity: 0.5; stroke-width: 0.8"/>
     </g>
     <g id="line2d_10">
      <g>
       <use xlink:href="#mcc08e82997" x="335.108112" y="277.92" style="stroke: #000000; stroke-width: 0.8"/>
      </g>
     </g>
     <g id="text_5">
      <!-- 10.0 -->
      <g transform="translate(323.9753 292.518438) scale(0.1 -0.1)">
       <defs>
        <path id="DejaVuSans-31" d="M 794 531 
L 1825 531 
L 1825 4091 
L 703 3866 
L 703 4441 
L 1819 4666 
L 2450 4666 
L 2450 531 
L 3481 531 
L 3481 0 
L 794 0 
L 794 531 
z
" transform="scale(0.015625)"/>
       </defs>
       <use xlink:href="#DejaVuSans-31"/>
       <use xlink:href="#DejaVuSans-30" x="63.623047"/>
       <use xlink:href="#DejaVuSans-2e" x="127.246094"/>
       <use xlink:href="#DejaVuSans-30" x="159.033203"/>
      </g>
     </g>
    </g>
    <g id="xtick_6">
     <g id="line2d_11">
      <path d="M 409.259437 277.92 
L 409.259437 0.72 
" clip-path="url(#p4dbd2adc9c)" style="fill: none; stroke-dasharray: 0.8,1.32; stroke-dashoffset: 0; stroke: #000000; stroke-opacity: 0.5; stroke-width: 0.8"/>
     </g>
     <g id="line2d_12">
      <g>
       <use xlink:href="#mcc08e82997" x="409.259437" y="277.92" style="stroke: #000000; stroke-width: 0.8"/>
      </g>
     </g>
     <g id="text_6">
      <!-- 12.5 -->
      <g transform="translate(398.126625 292.518438) scale(0.1 -0.1)">
       <use xlink:href="#DejaVuSans-31"/>
       <use xlink:href="#DejaVuSans-32" x="63.623047"/>
       <use xlink:href="#DejaVuSans-2e" x="127.246094"/>
       <use xlink:href="#DejaVuSans-35" x="159.033203"/>
      </g>
     </g>
    </g>
    <g id="xtick_7">
     <g id="line2d_13">
      <path d="M 483.410762 277.92 
L 483.410762 0.72 
" clip-path="url(#p4dbd2adc9c)" style="fill: none; stroke-dasharray: 0.8,1.32; stroke-dashoffset: 0; stroke: #000000; stroke-opacity: 0.5; stroke-width: 0.8"/>
     </g>
     <g id="line2d_14">
      <g>
       <use xlink:href="#mcc08e82997" x="483.410762" y="277.92" style="stroke: #000000; stroke-width: 0.8"/>
      </g>
     </g>
     <g id="text_7">
      <!-- 15.0 -->
      <g transform="translate(472.27795 292.518438) scale(0.1 -0.1)">
       <use xlink:href="#DejaVuSans-31"/>
       <use xlink:href="#DejaVuSans-35" x="63.623047"/>
       <use xlink:href="#DejaVuSans-2e" x="127.246094"/>
       <use xlink:href="#DejaVuSans-30" x="159.033203"/>
      </g>
     </g>
    </g>
    <g id="xtick_8">
     <g id="line2d_15">
      <path d="M 557.562087 277.92 
L 557.562087 0.72 
" clip-path="url(#p4dbd2adc9c)" style="fill: none; stroke-dasharray: 0.8,1.32; stroke-dashoffset: 0; stroke: #000000; stroke-opacity: 0.5; stroke-width: 0.8"/>
     </g>
     <g id="line2d_16">
      <g>
       <use xlink:href="#mcc08e82997" x="557.562087" y="277.92" style="stroke: #000000; stroke-width: 0.8"/>
      </g>
     </g>
     <g id="text_8">
      <!-- 17.5 -->
      <g transform="translate(546.429274 292.518438) scale(0.1 -0.1)">
       <use xlink:href="#DejaVuSans-31"/>
       <use xlink:href="#DejaVuSans-37" x="63.623047"/>
       <use xlink:href="#DejaVuSans-2e" x="127.246094"/>
       <use xlink:href="#DejaVuSans-35" x="159.033203"/>
      </g>
     </g>
    </g>
    <g id="text_9">
     <!-- Zeit [s] -->
     <g transform="translate(299.556719 302.196563) scale(0.1 -0.1)">
      <defs>
       <path id="DejaVuSans-5a" d="M 359 4666 
L 4025 4666 
L 4025 4184 
L 1075 531 
L 4097 531 
L 4097 0 
L 288 0 
L 288 481 
L 3238 4134 
L 359 4134 
L 359 4666 
z
" transform="scale(0.015625)"/>
       <path id="DejaVuSans-65" d="M 3597 1894 
L 3597 1613 
L 953 1613 
Q 991 1019 1311 708 
Q 1631 397 2203 397 
Q 2534 397 2845 478 
Q 3156 559 3463 722 
L 3463 178 
Q 3153 47 2828 -22 
Q 2503 -91 2169 -91 
Q 1331 -91 842 396 
Q 353 884 353 1716 
Q 353 2575 817 3079 
Q 1281 3584 2069 3584 
Q 2775 3584 3186 3129 
Q 3597 2675 3597 1894 
z
M 3022 2063 
Q 3016 2534 2758 2815 
Q 2500 3097 2075 3097 
Q 1594 3097 1305 2825 
Q 1016 2553 972 2059 
L 3022 2063 
z
" transform="scale(0.015625)"/>
       <path id="DejaVuSans-69" d="M 603 3500 
L 1178 3500 
L 1178 0 
L 603 0 
L 603 3500 
z
M 603 4863 
L 1178 4863 
L 1178 4134 
L 603 4134 
L 603 4863 
z
" transform="scale(0.015625)"/>
       <path id="DejaVuSans-74" d="M 1172 4494 
L 1172 3500 
L 2356 3500 
L 2356 3053 
L 1172 3053 
L 1172 1153 
Q 1172 725 1289 603 
Q 1406 481 1766 481 
L 2356 481 
L 2356 0 
L 1766 0 
Q 1100 0 847 248 
Q 594 497 594 1153 
L 594 3053 
L 172 3053 
L 172 3500 
L 594 3500 
L 594 4494 
L 1172 4494 
z
" transform="scale(0.015625)"/>
       <path id="DejaVuSans-20" transform="scale(0.015625)"/>
       <path id="DejaVuSans-5b" d="M 550 4863 
L 1875 4863 
L 1875 4416 
L 1125 4416 
L 1125 -397 
L 1875 -397 
L 1875 -844 
L 550 -844 
L 550 4863 
z
" transform="scale(0.015625)"/>
       <path id="DejaVuSans-73" d="M 2834 3397 
L 2834 2853 
Q 2591 2978 2328 3040 
Q 2066 3103 1784 3103 
Q 1356 3103 1142 2972 
Q 928 2841 928 2578 
Q 928 2378 1081 2264 
Q 1234 2150 1697 2047 
L 1894 2003 
Q 2506 1872 2764 1633 
Q 3022 1394 3022 966 
Q 3022 478 2636 193 
Q 2250 -91 1575 -91 
Q 1294 -91 989 -36 
Q 684 19 347 128 
L 347 722 
Q 666 556 975 473 
Q 1284 391 1588 391 
Q 1994 391 2212 530 
Q 2431 669 2431 922 
Q 2431 1156 2273 1281 
Q 2116 1406 1581 1522 
L 1381 1569 
Q 847 1681 609 1914 
Q 372 2147 372 2553 
Q 372 3047 722 3315 
Q 1072 3584 1716 3584 
Q 2034 3584 2315 3537 
Q 2597 3491 2834 3397 
z
" transform="scale(0.015625)"/>
       <path id="DejaVuSans-5d" d="M 1947 4863 
L 1947 -844 
L 622 -844 
L 622 -397 
L 1369 -397 
L 1369 4416 
L 622 4416 
L 622 4863 
L 1947 4863 
z
" transform="scale(0.015625)"/>
      </defs>
      <use xlink:href="#DejaVuSans-5a"/>
      <use xlink:href="#DejaVuSans-65" x="68.505859"/>
      <use xlink:href="#DejaVuSans-69" x="130.029297"/>
      <use xlink:href="#DejaVuSans-74" x="157.8125"/>
      <use xlink:href="#DejaVuSans-20" x="197.021484"/>
      <use xlink:href="#DejaVuSans-5b" x="228.808594"/>
      <use xlink:href="#DejaVuSans-73" x="267.822266"/>
      <use xlink:href="#DejaVuSans-5d" x="319.921875"/>
     </g>
    </g>
   </g>
   <g id="matplotlib.axis_2">
    <g id="ytick_1">
     <g id="line2d_17">
      <path d="M 38.502813 277.487862 
L 596.502813 277.487862 
" clip-path="url(#p4dbd2adc9c)" style="fill: none; stroke-dasharray: 0.8,1.32; stroke-dashoffset: 0; stroke: #000000; stroke-opacity: 0.5; stroke-width: 0.8"/>
     </g>
     <g id="line2d_18">
      <defs>
       <path id="mb446f63a50" d="M 0 0 
L -3.5 0 
" style="stroke: #000000; stroke-width: 0.8"/>
      </defs>
      <g>
       <use xlink:href="#mb446f63a50" x="38.502813" y="277.487862" style="stroke: #000000; stroke-width: 0.8"/>
      </g>
     </g>
     <g id="text_10">
      <!-- −25 -->
      <g transform="translate(10.398125 281.28708) scale(0.1 -0.1)">
       <defs>
        <path id="DejaVuSans-2212" d="M 678 2272 
L 4684 2272 
L 4684 1741 
L 678 1741 
L 678 2272 
z
" transform="scale(0.015625)"/>
       </defs>
       <use xlink:href="#DejaVuSans-2212"/>
       <use xlink:href="#DejaVuSans-32" x="83.789062"/>
       <use xlink:href="#DejaVuSans-35" x="147.412109"/>
      </g>
     </g>
    </g>
    <g id="ytick_2">
     <g id="line2d_19">
      <path d="M 38.502813 243.900612 
L 596.502813 243.900612 
" clip-path="url(#p4dbd2adc9c)" style="fill: none; stroke-dasharray: 0.8,1.32; stroke-dashoffset: 0; stroke: #000000; stroke-opacity: 0.5; stroke-width: 0.8"/>
     </g>
     <g id="line2d_20">
      <g>
       <use xlink:href="#mb446f63a50" x="38.502813" y="243.900612" style="stroke: #000000; stroke-width: 0.8"/>
      </g>
     </g>
     <g id="text_11">
      <!-- −20 -->
      <g transform="translate(10.398125 247.69983) scale(0.1 -0.1)">
       <use xlink:href="#DejaVuSans-2212"/>
       <use xlink:href="#DejaVuSans-32" x="83.789062"/>
       <use xlink:href="#DejaVuSans-30" x="147.412109"/>
      </g>
     </g>
    </g>
    <g id="ytick_3">
     <g id="line2d_21">
      <path d="M 38.502813 210.313362 
L 596.502813 210.313362 
" clip-path="url(#p4dbd2adc9c)" style="fill: none; stroke-dasharray: 0.8,1.32; stroke-dashoffset: 0; stroke: #000000; stroke-opacity: 0.5; stroke-width: 0.8"/>
     </g>
     <g id="line2d_22">
      <g>
       <use xlink:href="#mb446f63a50" x="38.502813" y="210.313362" style="stroke: #000000; stroke-width: 0.8"/>
      </g>
     </g>
     <g id="text_12">
      <!-- −15 -->
      <g transform="translate(10.398125 214.11258) scale(0.1 -0.1)">
       <use xlink:href="#DejaVuSans-2212"/>
       <use xlink:href="#DejaVuSans-31" x="83.789062"/>
       <use xlink:href="#DejaVuSans-35" x="147.412109"/>
      </g>
     </g>
    </g>
    <g id="ytick_4">
     <g id="line2d_23">
      <path d="M 38.502813 176.726112 
L 596.502813 176.726112 
" clip-path="url(#p4dbd2adc9c)" style="fill: none; stroke-dasharray: 0.8,1.32; stroke-dashoffset: 0; stroke: #000000; stroke-opacity: 0.5; stroke-width: 0.8"/>
     </g>
     <g id="line2d_24">
      <g>
       <use xlink:href="#mb446f63a50" x="38.502813" y="176.726112" style="stroke: #000000; stroke-width: 0.8"/>
      </g>
     </g>
     <g id="text_13">
      <!-- −10 -->
      <g transform="translate(10.398125 180.52533) scale(0.1 -0.1)">
       <use xlink:href="#DejaVuSans-2212"/>
       <use xlink:href="#DejaVuSans-31" x="83.789062"/>
       <use xlink:href="#DejaVuSans-30" x="147.412109"/>
      </g>
     </g>
    </g>
    <g id="ytick_5">
     <g id="line2d_25">
      <path d="M 38.502813 143.138862 
L 596.502813 143.138862 
" clip-path="url(#p4dbd2adc9c)" style="fill: none; stroke-dasharray: 0.8,1.32; stroke-dashoffset: 0; stroke: #000000; stroke-opacity: 0.5; stroke-width: 0.8"/>
     </g>
     <g id="line2d_26">
      <g>
       <use xlink:href="#mb446f63a50" x="38.502813" y="143.138862" style="stroke: #000000; stroke-width: 0.8"/>
      </g>
     </g>
     <g id="text_14">
      <!-- −5 -->
      <g transform="translate(16.760625 146.938081) scale(0.1 -0.1)">
       <use xlink:href="#DejaVuSans-2212"/>
       <use xlink:href="#DejaVuSans-35" x="83.789062"/>
      </g>
     </g>
    </g>
    <g id="ytick_6">
     <g id="line2d_27">
      <path d="M 38.502813 109.551612 
L 596.502813 109.551612 
" clip-path="url(#p4dbd2adc9c)" style="fill: none; stroke-dasharray: 0.8,1.32; stroke-dashoffset: 0; stroke: #000000; stroke-opacity: 0.5; stroke-width: 0.8"/>
     </g>
     <g id="line2d_28">
      <g>
       <use xlink:href="#mb446f63a50" x="38.502813" y="109.551612" style="stroke: #000000; stroke-width: 0.8"/>
      </g>
     </g>
     <g id="text_15">
      <!-- 0 -->
      <g transform="translate(25.140313 113.350831) scale(0.1 -0.1)">
       <use xlink:href="#DejaVuSans-30"/>
      </g>
     </g>
    </g>
    <g id="ytick_7">
     <g id="line2d_29">
      <path d="M 38.502813 75.964362 
L 596.502813 75.964362 
" clip-path="url(#p4dbd2adc9c)" style="fill: none; stroke-dasharray: 0.8,1.32; stroke-dashoffset: 0; stroke: #000000; stroke-opacity: 0.5; stroke-width: 0.8"/>
     </g>
     <g id="line2d_30">
      <g>
       <use xlink:href="#mb446f63a50" x="38.502813" y="75.964362" style="stroke: #000000; stroke-width: 0.8"/>
      </g>
     </g>
     <g id="text_16">
      <!-- 5 -->
      <g transform="translate(25.140313 79.763581) scale(0.1 -0.1)">
       <use xlink:href="#DejaVuSans-35"/>
      </g>
     </g>
    </g>
    <g id="ytick_8">
     <g id="line2d_31">
      <path d="M 38.502813 42.377112 
L 596.502813 42.377112 
" clip-path="url(#p4dbd2adc9c)" style="fill: none; stroke-dasharray: 0.8,1.32; stroke-dashoffset: 0; stroke: #000000; stroke-opacity: 0.5; stroke-width: 0.8"/>
     </g>
     <g id="line2d_32">
      <g>
       <use xlink:href="#mb446f63a50" x="38.502813" y="42.377112" style="stroke: #000000; stroke-width: 0.8"/>
      </g>
     </g>
     <g id="text_17">
      <!-- 10 -->
      <g transform="translate(18.777813 46.176331) scale(0.1 -0.1)">
       <use xlink:href="#DejaVuSans-31"/>
       <use xlink:href="#DejaVuSans-30" x="63.623047"/>
      </g>
     </g>
    </g>
    <g id="ytick_9">
     <g id="line2d_33">
      <path d="M 38.502813 8.789862 
L 596.502813 8.789862 
" clip-path="url(#p4dbd2adc9c)" style="fill: none; stroke-dasharray: 0.8,1.32; stroke-dashoffset: 0; stroke: #000000; stroke-opacity: 0.5; stroke-width: 0.8"/>
     </g>
     <g id="line2d_34">
      <g>
       <use xlink:href="#mb446f63a50" x="38.502813" y="8.789862" style="stroke: #000000; stroke-width: 0.8"/>
      </g>
     </g>
     <g id="text_18">
      <!-- 15 -->
      <g transform="translate(18.777813 12.589081) scale(0.1 -0.1)">
       <use xlink:href="#DejaVuSans-31"/>
       <use xlink:href="#DejaVuSans-35" x="63.623047"/>
      </g>
     </g>
    </g>
    <g id="text_19">
     <!-- Kraft [N] -->
     <g transform="translate(8.318438 160.5825) rotate(-90) scale(0.1 -0.1)">
      <defs>
       <path id="DejaVuSans-4b" d="M 628 4666 
L 1259 4666 
L 1259 2694 
L 3353 4666 
L 4166 4666 
L 1850 2491 
L 4331 0 
L 3500 0 
L 1259 2247 
L 1259 0 
L 628 0 
L 628 4666 
z
" transform="scale(0.015625)"/>
       <path id="DejaVuSans-72" d="M 2631 2963 
Q 2534 3019 2420 3045 
Q 2306 3072 2169 3072 
Q 1681 3072 1420 2755 
Q 1159 2438 1159 1844 
L 1159 0 
L 581 0 
L 581 3500 
L 1159 3500 
L 1159 2956 
Q 1341 3275 1631 3429 
Q 1922 3584 2338 3584 
Q 2397 3584 2469 3576 
Q 2541 3569 2628 3553 
L 2631 2963 
z
" transform="scale(0.015625)"/>
       <path id="DejaVuSans-61" d="M 2194 1759 
Q 1497 1759 1228 1600 
Q 959 1441 959 1056 
Q 959 750 1161 570 
Q 1363 391 1709 391 
Q 2188 391 2477 730 
Q 2766 1069 2766 1631 
L 2766 1759 
L 2194 1759 
z
M 3341 1997 
L 3341 0 
L 2766 0 
L 2766 531 
Q 2569 213 2275 61 
Q 1981 -91 1556 -91 
Q 1019 -91 701 211 
Q 384 513 384 1019 
Q 384 1609 779 1909 
Q 1175 2209 1959 2209 
L 2766 2209 
L 2766 2266 
Q 2766 2663 2505 2880 
Q 2244 3097 1772 3097 
Q 1472 3097 1187 3025 
Q 903 2953 641 2809 
L 641 3341 
Q 956 3463 1253 3523 
Q 1550 3584 1831 3584 
Q 2591 3584 2966 3190 
Q 3341 2797 3341 1997 
z
" transform="scale(0.015625)"/>
       <path id="DejaVuSans-66" d="M 2375 4863 
L 2375 4384 
L 1825 4384 
Q 1516 4384 1395 4259 
Q 1275 4134 1275 3809 
L 1275 3500 
L 2222 3500 
L 2222 3053 
L 1275 3053 
L 1275 0 
L 697 0 
L 697 3053 
L 147 3053 
L 147 3500 
L 697 3500 
L 697 3744 
Q 697 4328 969 4595 
Q 1241 4863 1831 4863 
L 2375 4863 
z
" transform="scale(0.015625)"/>
       <path id="DejaVuSans-4e" d="M 628 4666 
L 1478 4666 
L 3547 763 
L 3547 4666 
L 4159 4666 
L 4159 0 
L 3309 0 
L 1241 3903 
L 1241 0 
L 628 0 
L 628 4666 
z
" transform="scale(0.015625)"/>
      </defs>
      <use xlink:href="#DejaVuSans-4b"/>
      <use xlink:href="#DejaVuSans-72" x="65.576172"/>
      <use xlink:href="#DejaVuSans-61" x="106.689453"/>
      <use xlink:href="#DejaVuSans-66" x="167.96875"/>
      <use xlink:href="#DejaVuSans-74" x="201.423828"/>
      <use xlink:href="#DejaVuSans-20" x="240.632812"/>
      <use xlink:href="#DejaVuSans-5b" x="272.419922"/>
      <use xlink:href="#DejaVuSans-4e" x="311.433594"/>
      <use xlink:href="#DejaVuSans-5d" x="386.238281"/>
     </g>
    </g>
   </g>
   <g id="line2d_35">
    <path d="M 38.502813 109.551612 
L 223.732051 109.471504 
L 224.048213 108.895056 
L 225.274355 102.642291 
L 225.75103 101.989946 
L 226.226817 102.032279 
L 226.525541 102.264693 
L 226.707352 102.933563 
L 227.004147 103.277166 
L 227.184451 103.058016 
L 227.422827 103.31962 
L 227.479239 102.999863 
L 227.956897 103.941091 
L 228.194151 103.354522 
L 228.730952 104.108283 
L 228.972776 103.59483 
L 229.507621 103.043454 
L 229.998628 103.010615 
L 230.173069 101.902515 
L 230.408796 102.56596 
L 230.705939 103.81545 
L 230.945101 102.254051 
L 231.242363 103.696542 
L 231.630147 104.139207 
L 231.663719 105.134815 
L 232.136825 103.415034 
L 232.316057 101.5108 
L 232.434509 104.309749 
L 232.915984 103.012361 
L 233.208451 101.394733 
L 233.387885 103.608939 
L 233.626662 103.033082 
L 233.864567 101.811278 
L 234.163673 105.312335 
L 234.459871 102.379136 
L 235.11598 104.626044 
L 235.432665 103.612366 
L 235.72695 104.564671 
L 235.906757 102.523899 
L 236.084479 104.945053 
L 236.384217 105.480175 
L 236.621287 102.243619 
L 236.919839 101.916051 
L 237.157824 103.356105 
L 237.395703 101.108363 
L 237.695023 101.169193 
L 237.874902 105.14736 
L 238.290534 103.505216 
L 238.35076 104.185842 
L 238.589264 104.557304 
L 238.828455 106.031051 
L 239.065068 100.805575 
L 239.305311 101.173546 
L 239.549082 102.174804 
L 239.840779 100.539722 
L 240.023237 105.590899 
L 240.317181 103.022584 
L 240.614551 102.584256 
L 240.793797 100.301756 
L 241.151839 104.595538 
L 241.389884 103.586668 
L 241.569338 102.251115 
L 242.044896 104.764427 
L 242.344062 103.265726 
L 242.641746 103.17242 
L 242.939843 102.285137 
L 243.118815 105.285416 
L 243.41606 106.782775 
L 243.539421 104.059271 
L 243.836562 104.610891 
L 244.071675 104.605604 
L 244.253567 103.772892 
L 244.531837 103.044635 
L 244.760099 104.771251 
L 245.741822 101.046882 
L 246.202726 103.509019 
L 246.337942 109.771924 
L 246.754794 101.220452 
L 246.994239 105.837998 
L 247.232263 107.821574 
L 247.469526 100.124065 
L 247.708076 103.928792 
L 248.125328 107.426502 
L 248.363697 106.234464 
L 248.543255 108.158815 
L 248.848689 98.622787 
L 249.020847 106.608262 
L 249.218981 103.734168 
L 249.530817 104.737038 
L 249.796994 103.508379 
L 249.91722 104.647822 
L 250.176782 105.163027 
L 250.454559 102.754511 
L 250.69308 103.564018 
L 250.990238 103.220452 
L 251.171156 101.537932 
L 251.466717 102.18683 
L 251.705896 100.322622 
L 252.004037 101.638568 
L 252.243865 102.025635 
L 252.425758 98.998119 
L 252.66071 100.861514 
L 252.958474 104.295278 
L 253.137428 104.162389 
L 253.437262 100.524462 
L 253.732822 102.784899 
L 253.912799 101.606061 
L 254.151034 104.303699 
L 254.390353 110.161856 
L 254.866171 97.414779 
L 255.283195 112.995105 
L 255.702331 103.197307 
L 255.879236 102.589979 
L 256.118256 107.714693 
L 256.357 106.824499 
L 256.596713 101.304403 
L 257.013573 99.966547 
L 257.134596 106.360767 
L 257.61066 100.369568 
L 257.848051 104.363313 
L 258.20509 107.930336 
L 258.445132 100.743906 
L 258.859825 111.087282 
L 259.158214 108.149495 
L 259.730147 104.548327 
L 259.876027 97.721713 
L 260.173233 107.661147 
L 260.294447 104.581842 
L 260.591149 100.753893 
L 260.949329 89.830882 
L 261.322962 105.321693 
L 261.602805 108.687378 
L 261.975746 104.715012 
L 262.086563 104.991339 
L 262.328785 108.075524 
L 262.55622 105.373921 
L 262.794199 105.218094 
L 263.151773 112.975516 
L 263.330837 105.757748 
L 263.7477 98.376652 
L 263.866901 102.352423 
L 264.105397 100.879597 
L 264.285849 110.49555 
L 264.643203 100.4808 
L 264.881961 102.387506 
L 265.058864 101.25523 
L 265.299527 103.961853 
L 265.714773 112.156353 
L 265.955612 110.663097 
L 266.191948 102.742553 
L 266.252174 103.372716 
L 266.48981 105.763139 
L 266.788459 105.071291 
L 267.09442 105.408104 
L 267.324829 107.165307 
L 267.563622 98.840154 
L 267.759853 104.147127 
L 268.338011 108.38376 
L 268.532791 106.264045 
L 268.756773 105.206493 
L 269.017167 106.398993 
L 269.233644 111.950498 
L 269.530633 113.437652 
L 269.887378 110.758002 
L 270.125731 110.777658 
L 270.245132 105.381609 
L 270.661966 104.515234 
L 270.723 105.841995 
L 270.960397 108.392355 
L 271.318588 110.8143 
L 271.561653 102.528147 
L 271.735812 111.415637 
L 271.975033 103.191579 
L 272.454512 111.545137 
L 272.689423 99.87336 
L 272.927961 113.931566 
L 273.643316 105.850103 
L 273.969451 104.191753 
L 274.219372 103.513334 
L 274.658263 108.055435 
L 274.845561 106.019051 
L 275.037647 106.148103 
L 275.313574 102.943367 
L 275.437851 110.651353 
L 275.791628 110.170578 
L 275.91339 104.833878 
L 276.20821 102.890786 
L 276.393789 112.586194 
L 276.812326 106.348928 
L 277.049078 116.387382 
L 277.162083 108.847067 
L 277.590469 103.861085 
L 277.779075 111.56366 
L 277.939041 100.60849 
L 278.12053 98.754408 
L 278.475781 115.807672 
L 278.624491 107.627263 
L 278.955747 111.988416 
L 279.193852 110.960613 
L 279.431173 100.473906 
L 279.612332 116.040391 
L 279.907556 105.080331 
L 280.086959 106.568128 
L 280.384925 97.590937 
L 280.623809 107.978664 
L 281.1601 105.524982 
L 281.457142 109.821642 
L 281.594071 115.574054 
L 281.873928 103.164011 
L 282.056615 113.680466 
L 282.113657 103.725811 
L 282.351481 107.973142 
L 282.533731 105.582339 
L 282.828435 105.773621 
L 283.068365 104.275904 
L 283.306338 106.733115 
L 283.66432 95.348442 
L 283.961917 107.067078 
L 284.088847 117.899018 
L 284.563335 102.374928 
L 284.856401 101.119186 
L 285.034625 113.859345 
L 285.276257 107.60281 
L 285.690436 106.256258 
L 285.810779 104.353015 
L 286.048783 98.395979 
L 286.292195 102.226019 
L 286.526687 113.910133 
L 286.769413 111.714779 
L 287.007247 121.092108 
L 287.262421 105.069407 
L 287.484106 115.100944 
L 287.84259 107.245119 
L 288.024509 95.983327 
L 288.259375 105.490123 
L 288.497522 99.989646 
L 288.736219 100.86563 
L 289.035046 108.609047 
L 289.24077 109.696248 
L 289.455069 99.559467 
L 289.811148 102.218557 
L 290.227704 92.985333 
L 290.347633 110.065932 
L 290.465879 96.438257 
L 290.883363 118.261606 
L 290.948755 97.446229 
L 291.225488 104.889267 
L 291.495528 117.836155 
L 291.679836 104.694747 
L 292.13465 123.457566 
L 292.194976 102.953116 
L 292.432576 102.621861 
L 292.969282 112.158825 
L 293.207555 111.242519 
L 293.504983 106.332135 
L 293.689059 110.268923 
L 293.924229 120.906868 
L 294.221147 123.701955 
L 294.466574 113.818225 
L 294.698997 124.785491 
L 294.878318 109.844972 
L 295.173661 114.892682 
L 295.4127 102.442572 
L 295.717231 99.087242 
L 295.948103 119.896105 
L 296.426372 104.883767 
L 296.607631 105.357733 
L 296.961851 108.863023 
L 297.152314 114.902656 
L 297.438974 103.334614 
L 297.620443 116.764033 
L 297.929888 106.971665 
L 298.095365 109.00291 
L 298.335465 105.980957 
L 298.632709 115.911331 
L 298.870236 106.864335 
L 299.108436 107.12645 
L 299.60655 105.409603 
L 299.827215 103.898855 
L 300.182774 117.97909 
L 300.361705 104.826854 
L 300.600166 113.963663 
L 300.854175 104.735647 
L 301.079765 115.699364 
L 301.494049 91.666586 
L 301.613328 106.347906 
L 301.911255 92.004577 
L 302.09056 112.185321 
L 302.626399 104.660479 
L 302.80676 95.208168 
L 303.043886 108.915637 
L 303.341324 108.789058 
L 303.54503 111.818773 
L 303.826118 105.896353 
L 304.119111 109.634808 
L 304.41641 110.553949 
L 304.595673 104.275018 
L 304.95287 109.277757 
L 305.252232 115.959964 
L 305.31073 111.202088 
L 305.548602 109.104131 
L 305.846457 113.650189 
L 306.02906 108.480385 
L 306.385283 109.732805 
L 306.562027 120.025435 
L 306.801509 115.216214 
L 306.996024 106.704703 
L 307.281744 108.892746 
L 307.900046 111.147219 
L 308.067971 110.45391 
L 308.299126 117.27032 
L 308.537897 98.801952 
L 308.839248 112.186855 
L 309.086734 111.601064 
L 309.313549 113.550565 
L 309.455479 112.112914 
L 309.930311 115.590758 
L 310.001814 114.907712 
L 310.28921 105.182702 
L 310.527271 119.012402 
L 310.708003 101.082021 
L 311.063774 108.446043 
L 311.611583 95.149367 
L 311.781527 116.826066 
L 312.017687 115.056264 
L 312.375319 97.045273 
L 312.501747 109.736977 
L 312.732977 110.561507 
L 313.090224 110.147204 
L 313.212638 260.815148 
L 313.805492 242.214074 
L 314.235778 146.109817 
L 314.58015 141.917819 
L 314.701814 125.068253 
L 314.938888 112.473057 
L 315.682591 103.621788 
L 316.016983 104.43936 
L 316.33419 106.483612 
L 316.452034 84.843512 
L 316.695304 101.943163 
L 316.995565 92.307027 
L 317.110027 108.402063 
L 317.410895 103.111979 
L 317.763281 109.690543 
L 318.060545 109.758496 
L 318.180102 110.252675 
L 318.359189 113.802648 
L 318.718927 99.53655 
L 318.959086 100.14769 
L 319.49789 118.686774 
L 319.614865 110.658071 
L 319.910478 123.258236 
L 320.14826 111.497698 
L 320.624731 106.5527 
L 320.864807 109.556021 
L 321.102007 96.739231 
L 321.340325 105.801134 
L 321.584298 107.797934 
L 321.878065 93.359866 
L 322.357206 108.754436 
L 322.592008 110.827754 
L 322.840479 108.802417 
L 323.070052 109.965351 
L 323.310491 109.910268 
L 323.548541 119.807226 
L 323.963903 118.830853 
L 324.083748 108.092509 
L 324.50419 115.907854 
L 324.569671 101.924749 
L 324.802157 110.358699 
L 325.454334 109.359278 
L 325.633327 107.396147 
L 325.812051 110.554579 
L 326.051482 98.924851 
L 326.294583 101.345082 
L 326.530758 108.053557 
L 326.852363 103.493712 
L 327.242305 111.630648 
L 327.301953 107.379844 
L 327.540635 110.23409 
L 327.778986 109.387111 
L 328.020226 111.687341 
L 328.256505 110.027567 
L 328.495475 98.693542 
L 328.794246 116.297847 
L 329.171816 108.945644 
L 329.275333 114.773157 
L 329.508337 119.745605 
L 329.745474 102.528164 
L 330.162941 109.761012 
L 330.282264 109.562024 
L 330.580948 109.409241 
L 330.761294 115.550291 
L 331.057073 110.704376 
L 331.312423 117.364405 
L 331.798258 106.137375 
L 332.018819 112.350771 
L 332.487919 110.628166 
L 332.725398 112.353882 
L 333.024265 109.514631 
L 333.267721 113.398763 
L 333.502737 114.702561 
L 333.741417 107.461134 
L 333.980504 110.246061 
L 334.226045 115.806092 
L 334.581092 103.906336 
L 335.022935 110.72119 
L 335.231468 110.309471 
L 335.709664 119.99914 
L 335.971918 116.901945 
L 336.184852 107.197588 
L 336.423478 106.530473 
L 336.663453 106.657495 
L 336.900926 112.586882 
L 337.317585 108.845538 
L 337.437428 106.007951 
L 337.736454 111.936525 
L 337.916816 109.555157 
L 338.161358 99.156322 
L 338.54477 115.691865 
L 338.658091 107.163755 
L 338.944233 109.646514 
L 338.991294 111.126532 
L 339.29103 98.943005 
L 339.410048 111.419591 
L 339.825811 109.939461 
L 339.945144 110.84287 
L 340.12328 109.585346 
L 340.421547 105.657024 
L 340.719728 117.91936 
L 340.898441 111.527462 
L 341.13678 109.192769 
L 341.375437 110.942098 
L 341.615004 106.501799 
L 341.917182 114.567318 
L 342.091832 114.806713 
L 342.390217 106.294832 
L 342.592547 108.666251 
L 342.865715 109.334958 
L 343.224194 118.347276 
L 343.364331 109.555 
L 343.582206 109.555264 
L 343.819625 108.416429 
L 344.2367 110.359376 
L 344.355474 106.300834 
L 344.835051 112.952608 
L 345.073439 110.543982 
L 345.381281 111.969576 
L 345.609531 114.624484 
L 345.793405 103.65982 
L 346.084919 111.469425 
L 346.386542 111.398281 
L 346.623265 102.255958 
L 346.800697 114.343525 
L 347.046882 108.806907 
L 347.336523 106.632963 
L 347.633595 108.499508 
L 347.812551 111.162467 
L 348.051726 109.7645 
L 348.470912 108.380807 
L 348.531021 110.099581 
L 348.830156 109.854139 
L 349.025631 109.359896 
L 349.25029 114.662854 
L 349.603408 109.24469 
L 349.8421 109.483675 
L 350.139628 111.622511 
L 350.557034 96.147684 
L 350.855204 112.484286 
L 351.033535 111.433097 
L 351.272515 109.222616 
L 351.510253 98.593999 
L 351.86755 120.155308 
L 352.048182 108.046927 
L 352.34541 112.840891 
L 352.643325 108.302003 
L 352.763199 110.833347 
L 353.001631 119.056006 
L 353.358236 107.536771 
L 353.777296 108.788305 
L 354.192068 100.597587 
L 354.49016 115.023818 
L 354.729169 109.43051 
L 354.967142 110.569521 
L 355.26572 108.888753 
L 355.563366 109.555073 
L 355.691361 118.2162 
L 355.993376 109.598519 
L 356.230389 109.458103 
L 356.695564 118.935754 
L 357.11492 117.976755 
L 357.232346 106.937375 
L 357.414082 110.191558 
L 357.768024 108.812844 
L 358.067321 110.602473 
L 358.200121 113.318387 
L 358.619507 109.555156 
L 358.726755 114.25883 
L 358.964857 114.744291 
L 359.203431 108.257046 
L 359.448191 108.313173 
L 359.739861 109.712538 
L 359.918637 108.689065 
L 360.223373 112.132073 
L 360.464925 117.074159 
L 360.754514 100.508727 
L 360.876193 115.706854 
L 361.129106 110.55161 
L 361.415503 114.919215 
L 361.661674 109.179503 
L 361.887082 109.630757 
L 362.185637 111.440957 
L 362.424082 105.645762 
L 362.662654 108.94723 
L 362.950189 115.259843 
L 363.20353 98.917909 
L 363.423447 110.240016 
L 363.622003 108.222561 
L 363.916371 118.420761 
L 364.393153 109.891323 
L 364.630544 108.519552 
L 364.92917 111.074721 
L 365.107627 109.380985 
L 365.345698 111.021434 
L 365.643635 97.621086 
L 365.941582 108.857285 
L 366.120566 107.867256 
L 366.430486 118.158326 
L 366.661699 109.55506 
L 366.95586 109.555109 
L 367.137644 109.920731 
L 367.313284 111.100751 
L 367.613202 109.555188 
L 367.848153 114.235028 
L 368.164973 114.742494 
L 368.328014 107.465425 
L 368.629685 117.244409 
L 368.92628 109.510638 
L 369.113805 110.858284 
L 369.34484 110.137645 
L 369.529356 106.988363 
L 369.821758 107.40602 
L 370.240307 96.752161 
L 370.360723 112.815724 
L 370.778089 108.41647 
L 371.015218 110.322624 
L 371.312315 117.811991 
L 371.555098 111.03503 
L 371.789135 110.754265 
L 372.027824 108.922257 
L 372.325578 110.527474 
L 372.861574 116.332815 
L 373.397043 108.271048 
L 373.93445 118.724585 
L 373.993192 91.102258 
L 374.356468 108.064746 
L 374.64956 111.52031 
L 374.71244 110.62099 
L 375.080509 110.412031 
L 375.245909 108.638449 
L 375.486534 114.265214 
L 375.841426 108.790306 
L 376.021182 109.455827 
L 376.325316 113.838363 
L 376.501063 97.262422 
L 376.735908 108.133004 
L 377.275259 108.629874 
L 377.454122 120.006393 
L 377.691085 118.70938 
L 377.97089 107.804385 
L 378.467507 109.555121 
L 378.705786 109.413376 
L 379.003346 118.631932 
L 379.182787 109.322208 
L 379.541591 111.361746 
L 379.77876 104.017049 
L 379.957593 107.035153 
L 380.315476 108.199173 
L 380.43452 112.860533 
L 380.67377 112.318259 
L 380.971538 113.217843 
L 381.209422 109.083497 
L 381.566802 108.857589 
L 381.744983 110.304994 
L 382.170296 109.400731 
L 382.401177 105.683453 
L 382.640935 114.310348 
L 382.938268 107.549712 
L 383.116642 111.065037 
L 383.414778 108.902503 
L 383.653191 109.504492 
L 383.891272 116.597795 
L 384.130172 108.68303 
L 384.36784 107.26815 
L 385.141968 118.48125 
L 385.442062 109.927164 
L 385.737779 108.777898 
L 385.982328 102.657177 
L 386.154941 116.991385 
L 386.572481 109.313775 
L 386.633083 110.08783 
L 386.871953 110.72489 
L 387.288124 109.408195 
L 387.408358 120.22249 
L 387.704159 102.335268 
L 387.883735 110.309714 
L 388.12156 109.994837 
L 388.360572 117.916439 
L 388.83674 109.30119 
L 389.078696 108.050104 
L 389.373409 110.125007 
L 389.673069 109.463455 
L 389.731908 108.915672 
L 389.85151 109.554974 
L 390.209139 109.5554 
L 390.327434 113.935273 
L 390.566718 108.117236 
L 390.866233 96.765894 
L 391.578394 109.168399 
L 391.956832 109.25499 
L 392.061414 110.318209 
L 392.294363 104.708904 
L 392.534085 116.790767 
L 392.832412 111.80456 
L 393.014287 108.604446 
L 393.427847 117.970215 
L 393.65145 102.9885 
L 393.785792 108.235857 
L 394.023607 108.256949 
L 394.261973 108.995855 
L 394.507191 108.740445 
L 394.798172 108.000184 
L 395.156539 111.706036 
L 395.275553 116.820276 
L 395.574048 112.425971 
L 395.817442 111.229619 
L 396.050757 114.051634 
L 396.289007 110.895674 
L 396.468688 110.413324 
L 396.709418 108.543276 
L 397.006497 107.783226 
L 397.24286 108.677457 
L 397.480824 115.764102 
L 397.839129 109.363874 
L 398.01748 112.091723 
L 398.255879 110.343581 
L 398.493969 117.83592 
L 398.732782 109.414833 
L 399.032184 108.862927 
L 399.38968 111.620201 
L 399.629341 111.927095 
L 399.867123 99.914875 
L 399.986143 115.705723 
L 400.464749 107.381131 
L 400.710246 113.589614 
L 401.000306 115.65468 
L 401.240795 108.221772 
L 401.476641 107.262625 
L 401.775515 110.595268 
L 401.955105 108.511378 
L 402.253688 97.68246 
L 402.431344 114.668078 
L 402.669635 108.813729 
L 402.908526 109.672681 
L 403.206332 112.062043 
L 403.397622 100.954088 
L 403.633589 109.09813 
L 403.922551 111.007261 
L 404.402506 107.644849 
L 404.641312 112.64585 
L 404.947887 99.234178 
L 405.175669 110.19827 
L 405.385104 107.950498 
L 405.65268 106.688805 
L 405.894417 97.855783 
L 406.132636 108.493435 
L 406.426561 108.174194 
L 406.667313 111.801318 
L 406.963223 110.247871 
L 407.144113 95.590849 
L 407.380891 97.576453 
L 407.619993 111.039717 
L 407.860801 109.957381 
L 408.217822 113.51058 
L 408.398363 96.006446 
L 408.636507 109.38932 
L 408.917998 109.72597 
L 409.234688 107.725409 
L 409.470635 115.642366 
L 409.589722 99.426626 
L 409.829013 98.197444 
L 410.126347 110.972737 
L 410.42592 110.38586 
L 410.606015 106.807144 
L 410.844374 112.883655 
L 411.143152 109.740203 
L 411.320402 110.775829 
L 411.619643 110.467197 
L 411.857209 106.395371 
L 412.096215 118.907662 
L 412.512689 109.555161 
L 412.58546 111.037674 
L 412.87158 109.188882 
L 413.062343 105.435158 
L 413.456757 116.047575 
L 413.584819 106.327206 
L 413.81476 109.454141 
L 414.11483 110.883371 
L 414.472681 110.497779 
L 414.533583 118.009019 
L 414.830286 107.518074 
L 415.068038 107.782169 
L 415.309724 108.997524 
L 415.559664 109.555393 
L 415.96323 107.550145 
L 416.023198 108.276235 
L 416.321581 107.267936 
L 416.563927 109.816873 
L 416.805148 104.640422 
L 417.002271 112.952424 
L 417.276707 104.65171 
L 417.756951 110.202838 
L 418.054464 111.272652 
L 418.471725 109.319044 
L 418.530943 110.315869 
L 418.770431 106.333907 
L 419.126668 108.846591 
L 419.305279 115.578283 
L 419.487583 115.322766 
L 419.724077 116.835245 
L 419.962564 110.103089 
L 420.281437 109.501804 
L 420.501517 110.416371 
L 420.738015 102.750349 
L 420.975057 110.006454 
L 421.214128 109.001047 
L 421.512226 110.037988 
L 421.693249 108.100926 
L 422.225812 106.113706 
L 422.234324 186.770523 
L 422.468961 108.386457 
L 422.825214 117.384623 
L 423.004989 114.249774 
L 423.252127 113.943625 
L 423.484338 108.510454 
L 423.840978 108.316563 
L 423.960579 114.852254 
L 424.145321 108.601731 
L 424.43705 106.884993 
L 424.675708 109.554879 
L 424.915208 108.954123 
L 425.155055 107.050407 
L 425.574673 96.737328 
L 425.629286 118.125197 
L 425.988437 109.969949 
L 426.172027 110.672601 
L 426.40654 109.476849 
L 426.64547 109.264076 
L 427.065099 109.743991 
L 427.190077 113.819601 
L 427.445399 108.635183 
L 427.659166 117.339183 
L 427.90644 116.284031 
L 427.958088 106.681706 
L 428.19698 102.687791 
L 428.436409 109.582413 
L 428.619145 106.83932 
L 428.8559 110.021637 
L 429.151322 109.666104 
L 429.628082 95.635719 
L 430.10485 119.8112 
L 430.344322 120.673778 
L 430.903823 109.298163 
L 431.121983 108.852527 
L 431.357652 65.242054 
L 431.597523 61.662811 
L 431.843497 78.129281 
L 432.095657 85.1677 
L 432.328044 86.823997 
L 432.561897 87.079634 
L 432.821237 99.75377 
L 433.594031 109.652673 
L 433.87843 106.933284 
L 434.121676 110.6205 
L 434.414608 110.67963 
L 434.534949 115.071778 
L 434.776173 113.039502 
L 435.198864 118.497086 
L 435.318081 109.639299 
L 435.54992 110.227351 
L 435.793016 112.130543 
L 436.163582 105.618957 
L 436.324342 108.192706 
L 436.627299 107.406488 
L 436.862153 109.278063 
L 437.100266 113.184897 
L 437.400723 103.46411 
L 437.640155 117.844678 
L 438.242412 99.763276 
L 438.507695 107.243986 
L 438.778576 104.783157 
L 439.093849 110.272232 
L 439.259491 121.181927 
L 439.609454 111.030935 
L 439.813723 114.643981 
L 440.027646 108.143925 
L 440.326857 111.177896 
L 440.505242 106.975034 
L 440.743769 106.045404 
L 440.985603 107.402576 
L 441.360449 114.94146 
L 441.460589 112.955637 
L 441.817555 109.694689 
L 441.996582 106.494354 
L 442.476381 115.403953 
L 442.882088 106.051417 
L 443.119643 107.301393 
L 443.306995 104.178131 
L 443.537398 123.439356 
L 443.835364 104.348774 
L 444.193965 107.889048 
L 444.670741 116.458776 
L 445.029606 102.159153 
L 445.21114 105.387984 
L 445.566243 114.462834 
L 445.69185 98.337152 
L 446.223006 111.960911 
L 446.46149 108.408105 
L 446.703529 113.856973 
L 446.93948 111.951387 
L 447.182432 107.663095 
L 447.4174 109.840134 
L 447.656135 117.065479 
L 447.904892 107.75403 
L 448.138367 113.801902 
L 448.437338 106.607467 
L 448.625267 110.113283 
L 449.152725 108.661854 
L 449.392189 115.827199 
L 449.808343 107.527271 
L 449.89612 109.948983 
L 450.16705 104.799761 
L 450.46407 104.709688 
L 450.761942 110.881876 
L 450.94209 107.275912 
L 451.180519 116.857708 
L 451.425902 108.964016 
L 451.658653 109.479838 
L 452.077357 103.735074 
L 452.326715 113.560003 
L 452.613173 106.465869 
L 452.864845 108.437647 
L 453.098099 117.087322 
L 453.469682 109.682267 
L 453.632802 116.926155 
L 453.809319 105.086525 
L 454.134366 103.294796 
L 454.345201 117.539793 
L 454.765606 109.783775 
L 454.847127 112.134831 
L 455.071869 105.990783 
L 455.300727 111.637086 
L 455.539853 111.850485 
L 455.961335 107.696837 
L 456.150748 102.015459 
L 456.566905 118.51261 
L 456.984034 110.100221 
L 457.044693 113.968532 
L 457.700957 106.90295 
L 457.762486 107.946251 
L 458.176246 118.069226 
L 458.295734 103.935265 
L 458.535771 112.048301 
L 458.772737 108.347674 
L 459.18988 112.312298 
L 459.309275 108.905441 
L 459.548312 111.41387 
L 459.792529 111.157883 
L 459.846799 108.033116 
L 460.026983 112.832442 
L 460.264394 124.206859 
L 460.505547 107.255889 
L 460.801349 105.712798 
L 460.981197 109.694357 
L 461.300883 109.647792 
L 461.461133 105.278261 
L 461.759676 119.436297 
L 461.997667 107.530893 
L 462.240011 112.115719 
L 462.535859 105.427194 
L 462.954361 114.247993 
L 463.252644 107.683045 
L 463.439137 112.183612 
L 463.848593 113.042222 
L 463.995751 108.290982 
L 464.210024 108.819209 
L 464.468285 110.554426 
L 464.68398 109.880033 
L 464.923343 105.431771 
L 465.170704 108.59852 
L 465.469677 115.738978 
L 465.710789 108.763093 
L 466.009353 107.065632 
L 466.483619 110.114863 
L 466.663185 105.453618 
L 466.961408 109.397322 
L 467.199234 107.91688 
L 467.597038 110.683029 
L 467.744427 106.917216 
L 467.921045 118.323239 
L 468.454257 106.221738 
L 468.761166 111.593768 
L 468.931187 105.83499 
L 469.179483 108.509917 
L 469.542461 106.47848 
L 469.64942 103.353578 
L 469.893371 102.732742 
L 470.128335 112.926165 
L 470.435389 114.083969 
L 470.683137 110.416239 
L 470.906718 112.568143 
L 471.143739 110.95612 
L 471.389817 115.191222 
L 471.865224 106.333236 
L 472.16172 105.714913 
L 472.456786 109.051035 
L 472.636186 105.626785 
L 473.054076 113.075232 
L 473.400235 108.503016 
L 473.868197 110.843979 
L 474.170263 101.723566 
L 474.354868 115.422634 
L 474.645427 114.281062 
L 474.949827 108.750634 
L 475.125654 116.991288 
L 475.601585 107.36328 
L 476.079329 117.539629 
L 476.317061 117.093608 
L 476.555932 106.921985 
L 476.795462 120.01649 
L 477.212458 116.108354 
L 477.361592 101.519907 
L 477.749946 114.105374 
L 477.868828 106.692589 
L 478.107403 114.032669 
L 478.345862 106.081059 
L 478.643526 113.900072 
L 478.775738 109.139612 
L 479.035221 107.065746 
L 479.305237 117.196362 
L 479.600228 112.698654 
L 479.798874 114.961002 
L 480.01865 114.138641 
L 480.259337 102.73946 
L 480.639147 107.324494 
L 480.797255 105.26141 
L 481.032858 117.338645 
L 481.30086 109.347516 
L 481.594462 109.733007 
L 481.817167 108.811563 
L 482.112202 114.88009 
L 482.54011 104.062582 
L 482.796157 114.166467 
L 483.087039 108.487134 
L 483.208624 117.24612 
L 483.500877 108.790959 
L 483.799178 105.589287 
L 484.097273 110.040523 
L 484.216787 106.209479 
L 484.514676 110.747796 
L 484.761105 121.311717 
L 485.230884 106.618808 
L 485.470722 104.996008 
L 485.76882 108.417299 
L 486.007356 112.882566 
L 486.247979 112.642739 
L 486.483328 110.14324 
L 486.721699 112.694942 
L 486.961225 108.598772 
L 487.206514 109.645664 
L 487.440359 109.740575 
L 487.677248 108.564529 
L 488.037454 112.7587 
L 488.214516 117.549611 
L 488.455338 108.601858 
L 488.751713 113.487431 
L 489.288177 108.230803 
L 489.540319 107.092465 
L 489.706772 108.239685 
L 490.005091 107.016807 
L 490.242896 111.119483 
L 490.683853 107.384978 
L 490.899752 107.595989 
L 491.201618 108.936086 
L 491.494573 103.260095 
L 491.741352 111.095438 
L 491.913287 111.492124 
L 492.154206 107.178084 
L 492.390345 111.711761 
L 492.705805 106.147429 
L 492.884784 107.427772 
L 493.122928 103.184697 
L 493.601015 102.411169 
L 493.66099 109.715085 
L 493.95881 102.795577 
L 494.141209 107.522844 
L 494.380638 109.751511 
L 494.614303 109.74975 
L 494.912142 112.868661 
L 495.092642 118.587331 
L 495.391562 110.056412 
L 495.688062 111.192703 
L 495.866611 108.668876 
L 496.169394 110.606029 
L 496.407336 106.699527 
L 496.644163 118.390731 
L 497.122047 109.638528 
L 497.32743 113.344434 
L 497.602808 111.559429 
L 497.947291 106.243226 
L 498.384535 113.424311 
L 498.621652 111.449153 
L 498.860584 118.024777 
L 499.337413 107.486271 
L 499.576371 111.600317 
L 499.817608 112.652458 
L 500.113488 117.521971 
L 500.293182 108.310518 
L 500.609204 109.575265 
L 500.650281 105.540556 
L 500.829084 102.785486 
L 501.130331 117.735206 
L 501.425955 107.892345 
L 501.604394 107.75076 
L 502.085048 112.241264 
L 502.142852 117.637562 
L 502.321119 110.934714 
L 502.565805 108.106127 
L 503.051282 109.766955 
L 503.27591 106.64867 
L 503.515493 114.918556 
L 503.872555 114.112233 
L 504.051407 106.114256 
L 504.229888 112.416183 
L 504.650095 105.208322 
L 504.707569 114.456678 
L 505.069486 112.574177 
L 505.311707 115.39479 
L 505.547959 110.707198 
L 505.78225 110.480667 
L 506.020268 109.676568 
L 506.266043 104.518093 
L 506.569872 113.596356 
L 506.746757 109.021268 
L 506.993307 109.14228 
L 507.231373 105.799441 
L 507.475334 111.366006 
L 507.708032 110.346814 
L 508.005894 116.857291 
L 508.190358 106.488732 
L 508.485193 118.545342 
L 508.787092 99.910856 
L 509.01986 118.85348 
L 509.275368 120.269475 
L 509.498512 101.986333 
L 509.921977 112.351273 
L 509.97473 108.059117 
L 510.21317 113.555778 
L 510.631246 108.608394 
L 510.691646 109.307265 
L 510.932276 107.129672 
L 511.427141 112.090732 
L 511.731757 109.401284 
L 511.94593 114.894261 
L 512.202575 109.390234 
L 512.42372 110.710529 
L 512.662927 116.253637 
L 512.902669 101.069769 
L 513.214663 117.520853 
L 513.619081 102.876021 
L 513.68035 110.098422 
L 513.915563 104.711836 
L 514.39837 111.310336 
L 514.571539 111.335784 
L 514.703169 105.554611 
L 514.890518 110.520092 
L 515.247869 103.211597 
L 515.468485 108.33508 
L 515.690172 107.850327 
L 515.918439 112.747741 
L 516.15758 112.990459 
L 516.400242 116.686305 
L 516.762513 103.854445 
L 516.922212 109.787532 
L 517.159528 107.310959 
L 517.51651 106.744196 
L 517.702683 111.889952 
L 517.878201 105.503612 
L 518.173168 103.373522 
L 518.480489 110.328116 
L 518.653123 110.914927 
L 518.951708 104.564413 
L 519.130101 110.335414 
L 519.388449 111.48515 
L 519.725267 108.84823 
L 519.86004 114.600484 
L 520.141772 119.368109 
L 520.439599 142.197149 
L 520.621899 129.772014 
L 520.859464 140.798149 
L 521.115203 128.847619 
L 521.39507 133.367623 
L 521.637701 125.730918 
L 521.87368 121.985096 
L 522.117242 127.086162 
L 522.363738 114.48363 
L 522.827932 106.655055 
L 523.266623 106.532943 
L 523.497826 108.837258 
L 523.843711 106.48255 
L 524.131034 108.909044 
L 524.380779 108.850738 
L 524.857058 110.727062 
L 524.9168 110.167031 
L 525.275559 109.91696 
L 525.403427 110.746052 
L 525.814188 109.908336 
L 526.316015 109.579407 
L 526.428741 109.750807 
L 526.596989 109.574384 
L 527.911085 109.551612 
L 528.28225 109.382605 
L 528.686391 109.502911 
L 528.92995 109.214476 
L 529.284939 109.577999 
L 537.241818 109.552092 
L 596.502813 109.551612 
L 596.502813 109.551612 
" clip-path="url(#p4dbd2adc9c)" style="fill: none; stroke: #0000ff; stroke-opacity: 0.7; stroke-width: 1.5; stroke-linecap: square"/>
   </g>
   <g id="line2d_36">
    <path d="M 38.502813 140.145388 
L 38.622916 135.826674 
L 38.865804 136.713226 
L 38.937 139.680535 
L 39.111017 136.958713 
L 39.417061 137.715842 
L 39.885883 137.456332 
L 40.302791 139.349341 
L 40.541846 138.360203 
L 40.601545 139.32781 
L 41.018884 140.07772 
L 41.257159 140.06481 
L 41.559198 141.207924 
L 42.033407 142.032788 
L 42.091503 141.800325 
L 42.329583 141.370894 
L 42.628872 139.902007 
L 42.928055 140.748206 
L 43.164095 138.953283 
L 43.581899 141.313614 
L 43.819883 138.663798 
L 44.060446 139.961155 
L 44.300935 138.96855 
L 44.599353 140.969244 
L 44.834047 138.718998 
L 45.371049 139.850361 
L 45.669985 141.666498 
L 45.857012 139.485562 
L 46.328887 138.804904 
L 46.567049 139.756282 
L 46.805772 140.190654 
L 47.224756 137.792358 
L 47.405507 139.73228 
L 47.521373 139.350102 
L 47.766181 140.915378 
L 48.003493 138.973987 
L 48.536913 139.824241 
L 49.14069 139.678575 
L 50.441813 140.094517 
L 51.746796 139.510677 
L 53.050949 139.06167 
L 55.661121 138.948108 
L 57.085405 139.52188 
L 58.50861 138.745732 
L 59.813793 139.024241 
L 59.954398 140.420828 
L 60.669155 137.005964 
L 60.966191 140.268512 
L 61.265892 141.510196 
L 61.445302 139.500877 
L 61.681905 141.663926 
L 61.866132 140.301613 
L 62.104406 137.332006 
L 62.404 140.442105 
L 62.638974 140.961427 
L 62.936269 139.403154 
L 63.11617 140.497119 
L 63.356366 140.550511 
L 63.652931 137.72098 
L 64.130974 139.932588 
L 64.426649 139.414482 
L 64.72558 140.675062 
L 64.844761 139.117877 
L 65.083776 138.70004 
L 65.323835 142.761586 
L 65.636208 143.060453 
L 65.860257 140.466983 
L 66.108513 142.298656 
L 66.396826 141.099062 
L 66.578194 139.058615 
L 66.934528 143.281572 
L 67.112748 141.909625 
L 67.414376 140.73219 
L 67.588886 141.226837 
L 67.829178 138.887477 
L 68.125305 137.749555 
L 68.602529 141.43278 
L 68.783671 144.068372 
L 69.019997 142.220782 
L 69.32384 137.96634 
L 69.616891 139.377905 
L 69.855516 141.891037 
L 70.095651 139.803841 
L 70.338534 139.643222 
L 70.523348 143.511773 
L 70.817845 142.360696 
L 71.292681 137.98435 
L 71.413207 138.062836 
L 71.829525 140.534126 
L 72.070236 141.729568 
L 72.364771 140.185291 
L 72.604817 139.85213 
L 72.782636 141.252997 
L 73.259107 139.192998 
L 73.442011 137.520268 
L 73.737273 138.873327 
L 73.796233 139.736625 
L 74.034856 140.575137 
L 74.512377 137.085751 
L 74.809776 138.274994 
L 75.10756 138.640185 
L 75.350039 138.387135 
L 75.716732 142.28505 
L 75.763801 141.702482 
L 76.00305 141.696272 
L 76.299771 141.321564 
L 76.479259 140.131442 
L 76.779836 143.145582 
L 77.014868 143.928658 
L 77.211656 141.589187 
L 77.492991 142.558842 
L 77.731123 142.745533 
L 78.208334 138.327081 
L 78.445703 140.245236 
L 78.984279 141.336629 
L 79.221395 138.743064 
L 79.46119 138.818326 
L 79.699016 139.217086 
L 79.9365 137.807992 
L 80.296129 137.066091 
L 80.712316 143.114437 
L 81.192765 137.600513 
L 81.785318 139.492527 
L 81.913099 137.193821 
L 82.441028 143.726506 
L 82.620686 142.075481 
L 82.859406 137.230183 
L 83.215747 136.561422 
L 83.394399 139.719869 
L 83.632494 139.347724 
L 83.872614 136.430843 
L 84.109856 138.064673 
L 84.411018 141.457122 
L 84.706152 140.465213 
L 84.884266 136.928821 
L 85.123897 136.090183 
L 85.361288 138.528885 
L 85.600003 139.216783 
L 85.838773 139.402352 
L 86.207889 140.085947 
L 86.434523 140.192789 
L 86.732011 138.161655 
L 86.893125 135.736725 
L 87.090643 137.571315 
L 87.329041 141.474248 
L 87.627622 142.939702 
L 88.103508 137.94846 
L 88.40325 137.587196 
L 88.586765 139.309594 
L 89.00022 140.592444 
L 89.118231 141.602298 
L 89.536432 143.773476 
L 89.908761 143.800126 
L 90.081212 140.609311 
L 90.548537 140.728071 
L 90.668047 142.142506 
L 90.905672 142.834486 
L 91.144508 142.396965 
L 91.263784 141.80644 
L 91.681363 141.311482 
L 91.801828 140.448137 
L 92.038568 140.606105 
L 92.514883 141.421332 
L 92.754169 140.750164 
L 93.289814 136.016387 
L 93.489754 135.876025 
L 93.826284 137.577268 
L 94.004867 137.840443 
L 94.541287 132.729034 
L 94.842115 134.651163 
L 95.019457 138.772895 
L 95.257497 141.092121 
L 95.498953 141.504255 
L 95.89183 140.998946 
L 96.064357 141.315485 
L 96.454062 140.62133 
L 96.573099 139.680431 
L 96.628852 140.347301 
L 96.69475 143.275472 
L 96.989749 145.194369 
L 97.286052 142.435846 
L 97.48986 137.561073 
L 97.779913 136.367741 
L 98.202731 142.877806 
L 98.47895 141.680041 
L 98.717529 139.476365 
L 99.025598 141.028395 
L 99.325453 141.496057 
L 99.795665 136.576747 
L 100.391 139.273676 
L 100.526244 141.80651 
L 101.868401 138.589108 
L 103.165642 139.393125 
L 104.594361 139.125625 
L 104.673559 144.431637 
L 105.09155 138.510994 
L 105.454112 137.069937 
L 105.687883 136.664004 
L 106.305417 139.876638 
L 107.089968 129.214464 
L 107.387998 129.863115 
L 107.688168 133.005056 
L 108.164534 142.744724 
L 108.347806 144.556799 
L 108.640473 143.39874 
L 109.117895 139.535048 
L 109.477366 141.760887 
L 109.596272 145.393218 
L 109.892792 146.585236 
L 110.192261 144.35825 
L 110.795086 132.835075 
L 111.052094 133.436251 
L 111.29097 137.358843 
L 111.577019 139.180489 
L 112.049728 134.348692 
L 112.289519 135.109785 
L 112.792567 139.861687 
L 113.325136 141.223976 
L 113.541144 139.311027 
L 113.788285 138.878405 
L 114.093357 141.944541 
L 114.33146 145.684421 
L 114.540544 145.86649 
L 114.883064 142.789671 
L 115.036051 139.61423 
L 115.313819 140.430491 
L 115.937099 143.106326 
L 116.002065 144.083838 
L 116.216076 141.826231 
L 116.30385 138.790862 
L 116.475791 137.201935 
L 116.782905 137.526084 
L 117.130896 137.467731 
L 117.249404 136.987591 
L 117.487743 137.674821 
L 117.726095 137.978446 
L 118.024139 137.462953 
L 118.450471 138.405109 
L 118.928024 141.359711 
L 119.289499 140.339285 
L 119.523478 138.455403 
L 119.821194 140.481265 
L 119.945178 143.510225 
L 120.298612 142.159685 
L 120.606507 139.284061 
L 120.715903 140.235898 
L 120.9231 143.982327 
L 121.194101 145.551295 
L 121.671188 137.72113 
L 121.912267 138.343519 
L 122.149815 139.460735 
L 122.624796 139.198902 
L 122.690525 140.804491 
L 122.935962 141.964452 
L 123.160922 140.270262 
L 123.69748 134.754509 
L 124.174029 141.407455 
L 124.949134 140.515454 
L 125.13009 138.188918 
L 125.427231 136.224697 
L 125.665306 135.937361 
L 125.857602 138.478054 
L 126.147722 140.611054 
L 126.627668 138.822282 
L 126.86069 139.181912 
L 127.101098 139.765534 
L 127.397474 139.674567 
L 127.755155 138.992576 
L 128.11266 141.318004 
L 128.470607 142.076108 
L 128.590202 141.823651 
L 128.828251 141.872369 
L 129.127471 141.24644 
L 129.721296 141.73107 
L 130.080965 143.217466 
L 130.318908 142.505622 
L 131.094146 138.281511 
L 131.390373 138.732455 
L 131.570561 139.272821 
L 132.288655 136.910073 
L 132.530023 137.332736 
L 132.778446 138.09732 
L 133.080422 140.353174 
L 133.269134 143.455898 
L 133.599891 142.783232 
L 133.781243 139.144212 
L 134.048442 139.231207 
L 134.27389 142.635488 
L 134.511673 142.331276 
L 134.752536 138.889395 
L 134.988169 138.056978 
L 135.524563 142.213303 
L 136.061597 136.440975 
L 136.299914 136.402726 
L 136.537647 138.240252 
L 137.144696 135.658155 
L 137.371933 137.046643 
L 137.496099 139.091177 
L 137.729921 140.082385 
L 138.031643 138.391801 
L 138.237846 136.458012 
L 138.462756 136.855322 
L 138.821519 139.320028 
L 139.04073 139.627931 
L 139.34128 139.04383 
L 139.518495 138.447423 
L 139.996454 137.553979 
L 140.23413 138.203022 
L 140.475957 140.915536 
L 140.727123 145.215016 
L 141.011902 148.052049 
L 141.192054 146.109902 
L 141.74323 141.567728 
L 142.220316 147.046064 
L 142.460347 147.732537 
L 142.698106 144.39766 
L 143.173957 136.305043 
L 143.471179 136.819514 
L 143.657606 140.626882 
L 144.128735 144.876732 
L 144.365665 145.222538 
L 144.426045 142.254168 
L 144.665021 139.916139 
L 144.902659 139.463122 
L 145.379375 144.06476 
L 145.679051 144.35261 
L 146.042843 141.254227 
L 146.15371 137.674617 
L 146.451965 137.063994 
L 146.696415 140.304086 
L 146.884804 144.563598 
L 147.11376 144.584373 
L 147.644895 139.802506 
L 148.299554 141.782385 
L 148.41882 143.312597 
L 149.076012 140.977364 
L 149.373331 140.973524 
L 150.029772 142.878821 
L 150.089694 141.248957 
L 150.565971 135.961756 
L 150.92311 137.557779 
L 151.353883 138.918 
L 151.876006 134.297084 
L 152.351803 140.154041 
L 152.532825 144.111524 
L 152.888581 147.373028 
L 153.188565 146.079877 
L 153.309231 142.50019 
L 153.54568 142.100901 
L 154.082528 146.909274 
L 154.797409 137.714677 
L 155.03402 137.733075 
L 155.333455 139.877713 
L 155.572779 143.414487 
L 155.93189 146.695104 
L 156.054561 146.611066 
L 156.288871 142.881916 
L 156.59785 140.654952 
L 157.244922 146.136228 
L 157.482632 144.220162 
L 158.075811 136.599653 
L 158.493969 133.855295 
L 159.028959 142.657268 
L 159.268997 143.208506 
L 159.984424 133.381657 
L 160.222772 134.313599 
L 160.639178 138.015225 
L 160.761288 140.304958 
L 161.002186 137.982829 
L 161.236001 133.955389 
L 161.473201 131.870334 
L 161.716034 133.107158 
L 162.430118 146.548307 
L 162.728429 145.435511 
L 163.21208 139.42049 
L 163.682554 145.874095 
L 163.922713 145.803136 
L 164.397251 139.734299 
L 164.755999 139.205458 
L 164.99298 139.986486 
L 165.410163 143.854844 
L 165.64954 144.10908 
L 166.126682 139.259989 
L 166.482576 140.704876 
L 166.661225 142.414492 
L 166.89949 141.407826 
L 167.436563 137.456514 
L 167.735563 138.914788 
L 167.91455 141.004338 
L 168.391427 141.948097 
L 168.63296 141.464642 
L 168.867709 141.694207 
L 169.165479 141.296268 
L 169.529336 140.337108 
L 169.881582 138.042 
L 170.203109 137.595809 
L 170.598518 139.782448 
L 170.837969 139.646583 
L 171.25828 138.297399 
L 171.432118 137.259066 
L 172.146868 139.506622 
L 172.569875 140.459839 
L 172.835447 138.919161 
L 173.106348 136.647831 
L 173.339268 136.976538 
L 173.707388 139.6515 
L 174.158309 136.635307 
L 174.177757 136.633186 
L 174.535783 143.150516 
L 174.91395 143.78768 
L 175.073934 140.104275 
L 175.310543 137.247191 
L 175.54851 138.515518 
L 175.787124 141.431432 
L 176.085682 140.563813 
L 176.323655 139.173423 
L 176.579702 141.632729 
L 176.922167 142.531263 
L 177.049623 139.232364 
L 177.336715 135.397861 
L 177.648399 134.842739 
L 177.755713 137.611167 
L 178.11115 140.06578 
L 178.352257 139.505973 
L 178.528778 138.16669 
L 179.02236 137.04115 
L 179.243954 134.094622 
L 179.542117 136.429026 
L 180.199819 145.798938 
L 180.334683 145.007995 
L 180.554724 140.780044 
L 180.764952 139.420828 
L 181.237254 143.538969 
L 181.716775 142.822836 
L 181.952198 143.200052 
L 182.311857 142.928546 
L 182.856642 139.958159 
L 182.972183 140.115407 
L 184.008236 140.982135 
L 184.480842 138.150782 
L 184.866663 138.202815 
L 184.96201 140.226516 
L 185.456212 144.458586 
L 185.79372 142.526694 
L 185.914024 139.003897 
L 186.210739 139.29226 
L 186.450096 141.651195 
L 186.688066 142.194642 
L 187.183426 136.69756 
L 187.521698 136.278456 
L 187.93929 136.444691 
L 188.237062 136.536533 
L 188.475599 136.852788 
L 188.65442 137.304779 
L 188.892101 137.448578 
L 189.131074 137.72731 
L 189.608368 138.028559 
L 189.845677 136.790962 
L 189.964926 134.660109 
L 190.203386 134.851191 
L 190.679785 142.744547 
L 190.869436 143.951294 
L 191.396627 139.140786 
L 191.639823 141.196925 
L 192.117173 147.046301 
L 192.356479 146.252942 
L 193.072666 136.937357 
L 193.608741 143.179332 
L 193.905827 142.752986 
L 194.087116 139.708115 
L 194.441225 139.309301 
L 194.621423 139.475891 
L 194.919455 138.815876 
L 195.159734 139.593622 
L 195.574242 144.749125 
L 196.050762 138.989221 
L 196.348274 141.655681 
L 196.532194 142.287346 
L 196.824916 139.476612 
L 197.066503 139.354267 
L 197.302744 143.382603 
L 197.540668 144.545668 
L 198.021222 137.753822 
L 198.278285 140.058932 
L 198.614978 140.566981 
L 198.857745 138.183173 
L 199.328922 144.763686 
L 199.627167 143.300769 
L 199.755281 138.176102 
L 200.037406 137.515088 
L 200.288499 140.899894 
L 200.523074 141.197939 
L 200.76342 137.634099 
L 201.023906 139.050601 
L 201.252764 143.046113 
L 201.602062 143.687591 
L 202.020372 138.502776 
L 202.258451 139.182534 
L 202.734673 141.271153 
L 203.271444 141.186471 
L 203.986273 139.187403 
L 204.347506 139.334951 
L 204.462725 139.676126 
L 204.819721 138.651676 
L 205.180009 135.486644 
L 205.475165 136.990788 
L 205.723048 140.826009 
L 206.192034 141.342102 
L 206.452348 136.286161 
L 206.78839 138.31776 
L 207.266495 146.3051 
L 207.443269 146.291688 
L 207.922916 141.704027 
L 208.578156 139.899767 
L 209.172823 142.687007 
L 209.600943 142.234117 
L 209.950317 139.461019 
L 210.425683 143.902668 
L 210.663532 143.254319 
L 210.903374 143.003321 
L 211.140394 142.351634 
L 211.378598 140.640736 
L 211.677486 139.513344 
L 212.333313 144.758923 
L 212.393738 147.865261 
L 212.631154 147.978778 
L 213.168289 141.865335 
L 213.405839 141.301538 
L 213.824739 144.900252 
L 214.121064 144.337535 
L 215.076049 132.350381 
L 215.37507 134.171225 
L 215.554742 138.75638 
L 215.851328 143.05779 
L 216.089667 144.532147 
L 216.389104 142.148971 
L 216.58001 138.109462 
L 216.811423 136.177126 
L 217.102957 138.000646 
L 217.877773 146.550437 
L 218.056338 145.586939 
L 218.294893 142.524844 
L 218.776973 139.371105 
L 219.266031 140.462063 
L 219.30768 141.609618 
L 219.551399 141.348969 
L 220.04435 136.903385 
L 220.32987 136.852184 
L 220.62314 138.194405 
L 220.8622 140.357796 
L 221.162767 140.457234 
L 221.338171 139.357276 
L 221.515496 139.153061 
L 221.99322 140.165409 
L 222.055181 142.290553 
L 222.530269 145.529187 
L 222.771536 144.20231 
L 223.248476 137.095153 
L 223.554257 136.215538 
L 223.732051 137.903755 
L 224.048213 139.128172 
L 224.738977 136.528792 
L 224.976617 136.804524 
L 225.274355 137.636298 
L 225.513956 138.695938 
L 225.75103 138.013544 
L 226.226817 134.023535 
L 226.525541 133.825852 
L 226.707352 134.990799 
L 227.004147 134.300543 
L 227.184451 133.310385 
L 227.956897 125.690912 
L 228.194151 126.29853 
L 228.491933 129.351617 
L 228.972776 135.793068 
L 229.507621 139.610799 
L 229.86666 139.252699 
L 231.242363 126.300259 
L 231.630147 124.943987 
L 231.663719 123.735577 
L 232.136825 123.844319 
L 232.434509 125.189945 
L 232.915984 128.187817 
L 233.626662 136.16062 
L 233.864567 137.108692 
L 234.459871 132.433028 
L 235.11598 120.677199 
L 235.72695 116.598532 
L 235.906757 117.625651 
L 236.084479 116.817821 
L 236.384217 115.999769 
L 236.621287 116.729841 
L 236.919839 118.134505 
L 237.157824 117.825976 
L 237.395703 119.293855 
L 237.695023 118.447783 
L 237.874902 117.155166 
L 238.290534 117.093241 
L 238.35076 115.488358 
L 238.828455 111.641372 
L 239.065068 116.089104 
L 239.305311 117.971872 
L 239.840779 125.035574 
L 240.317181 128.509846 
L 240.793797 128.673696 
L 241.151839 123.492752 
L 241.389884 122.038744 
L 242.044896 111.787453 
L 242.344062 110.301649 
L 242.641746 107.877068 
L 242.939843 107.509439 
L 243.118815 107.066212 
L 243.41606 107.468691 
L 243.539421 114.140354 
L 244.253567 122.492793 
L 244.531837 123.704438 
L 245.503869 118.802702 
L 246.202726 108.451079 
L 246.460816 100.058555 
L 246.754794 102.495747 
L 246.994239 98.734601 
L 247.232263 97.673963 
L 247.469526 101.66761 
L 247.708076 101.592033 
L 248.125328 103.273909 
L 248.848689 120.30952 
L 249.218981 111.448664 
L 249.91722 98.890782 
L 250.454559 98.883763 
L 250.69308 98.590913 
L 250.990238 95.374458 
L 251.171156 96.07279 
L 251.466717 96.677528 
L 252.243865 105.105444 
L 252.425758 111.710484 
L 252.66071 111.72158 
L 253.437262 115.207995 
L 254.151034 99.751742 
L 254.390353 92.60086 
L 254.629948 92.151904 
L 254.866171 90.463445 
L 255.283195 78.573927 
L 255.64118 77.920454 
L 255.702331 75.508476 
L 255.879236 75.479347 
L 256.118256 76.514131 
L 257.013573 97.94301 
L 257.134596 98.751217 
L 257.61066 109.165351 
L 257.848051 108.955862 
L 258.20509 104.870682 
L 258.445132 105.562218 
L 258.859825 97.618306 
L 259.158214 100.354242 
L 259.487917 100.954715 
L 259.730147 103.584142 
L 259.876027 107.775565 
L 260.173233 105.277915 
L 260.294447 110.046694 
L 260.949329 123.198572 
L 261.490067 107.488533 
L 261.602805 100.138631 
L 261.975746 98.533045 
L 262.086563 95.109267 
L 262.328785 91.991024 
L 262.55622 92.176339 
L 262.794199 90.766481 
L 263.151773 84.952089 
L 263.330837 86.982562 
L 263.866901 97.375845 
L 264.105397 104.728342 
L 264.285849 102.610855 
L 264.643203 108.737512 
L 265.058864 101.2586 
L 265.714773 87.843791 
L 265.955612 89.962567 
L 266.191948 93.643198 
L 266.252174 93.534637 
L 266.48981 90.646306 
L 266.788459 90.929117 
L 267.09442 89.61794 
L 267.324829 87.989733 
L 267.563622 93.693056 
L 267.759853 94.472038 
L 268.099501 98.298004 
L 268.338011 98.917316 
L 268.532791 100.951022 
L 268.756773 99.456038 
L 269.017167 95.546263 
L 269.233644 87.749176 
L 269.530633 82.778579 
L 269.887378 81.963205 
L 270.125731 79.924531 
L 270.245132 82.663923 
L 270.661966 82.675408 
L 270.723 83.49097 
L 270.960397 81.513829 
L 271.318588 80.12092 
L 271.561653 85.764013 
L 271.735812 82.743997 
L 271.975033 88.73182 
L 272.273994 86.887919 
L 272.454512 88.376811 
L 272.689423 93.576717 
L 272.927961 85.31016 
L 273.17533 85.01038 
L 273.464189 85.482365 
L 273.643316 85.238087 
L 273.969451 84.386724 
L 274.219372 84.694782 
L 274.658263 81.122825 
L 274.845561 81.740055 
L 275.037647 78.461762 
L 275.313574 79.128543 
L 275.437851 73.676972 
L 275.791628 75.141197 
L 275.91339 81.370365 
L 276.20821 85.93807 
L 276.393789 83.91044 
L 276.812326 87.546561 
L 277.049078 83.249652 
L 277.162083 86.160974 
L 277.590469 89.526741 
L 277.779075 85.162324 
L 277.939041 90.462611 
L 278.12053 87.750432 
L 278.475781 75.117636 
L 278.624491 77.403311 
L 278.955747 73.79162 
L 279.193852 76.893355 
L 279.431173 85.619129 
L 279.612332 83.003683 
L 279.907556 91.370171 
L 280.086959 91.931079 
L 280.384925 95.343375 
L 280.623809 87.186876 
L 280.980465 85.01172 
L 281.457142 79.394701 
L 281.594071 74.347381 
L 281.873928 79.953689 
L 282.056615 73.753992 
L 282.113657 79.479665 
L 282.351481 76.354583 
L 282.828435 85.006132 
L 283.068365 92.03647 
L 283.306338 93.332043 
L 283.66432 99.512911 
L 283.961917 92.607972 
L 284.088847 86.585784 
L 284.856401 94.639025 
L 285.034625 88.578751 
L 285.276257 88.755352 
L 285.810779 82.757882 
L 286.048783 83.192601 
L 286.292195 82.582146 
L 286.526687 79.383468 
L 286.769413 83.845238 
L 287.007247 80.975788 
L 287.262421 88.413209 
L 287.484106 80.956124 
L 287.84259 81.80581 
L 287.900764 82.882078 
L 288.024509 87.78094 
L 288.259375 87.1438 
L 288.497522 96.206862 
L 288.736219 96.677686 
L 289.24077 84.049882 
L 289.455069 82.098789 
L 289.811148 77.484197 
L 290.227704 82.903528 
L 290.347633 78.592488 
L 290.465879 87.58543 
L 290.883363 77.809916 
L 290.948755 88.872051 
L 291.225488 85.052874 
L 291.495528 79.073256 
L 291.679836 88.713957 
L 292.13465 82.095594 
L 292.194976 92.600496 
L 292.432576 90.840627 
L 292.969282 84.053054 
L 293.207555 82.482494 
L 293.504983 83.758881 
L 293.689059 80.973627 
L 293.924229 73.909262 
L 294.221147 70.546746 
L 294.466574 75.671278 
L 294.698997 72.917532 
L 294.878318 83.22863 
L 295.173661 85.504802 
L 295.4127 96.306353 
L 295.717231 99.308335 
L 295.948103 87.131548 
L 296.426372 89.795115 
L 296.607631 88.624275 
L 296.961851 88.658561 
L 297.152314 87.890666 
L 297.438974 95.199097 
L 297.620443 86.590246 
L 297.929888 86.548326 
L 298.095365 80.957341 
L 298.632709 76.737702 
L 298.870236 88.378025 
L 299.108436 94.515212 
L 299.60655 94.530902 
L 300.182774 74.266127 
L 300.361705 79.517953 
L 300.600166 77.246014 
L 300.854175 86.614044 
L 301.079765 83.138681 
L 301.494049 93.880255 
L 301.613328 82.650672 
L 301.911255 86.666459 
L 302.09056 76.247257 
L 302.626399 87.091106 
L 302.80676 94.102885 
L 303.043886 88.891819 
L 303.341324 88.059786 
L 303.54503 84.993122 
L 303.826118 88.077821 
L 304.119111 89.87732 
L 304.41641 92.861076 
L 304.595673 97.654608 
L 304.95287 94.984583 
L 305.31073 86.986863 
L 305.548602 85.236912 
L 305.846457 84.36816 
L 306.02906 88.960231 
L 306.385283 88.945396 
L 306.562027 83.047855 
L 306.801509 84.206179 
L 306.996024 87.933283 
L 307.281744 87.952135 
L 307.656728 92.626942 
L 308.067971 99.497243 
L 308.299126 93.379851 
L 308.537897 98.992549 
L 308.839248 87.768798 
L 309.313549 82.56507 
L 309.455479 83.751107 
L 310.001814 81.560247 
L 310.28921 86.746014 
L 310.527271 80.016118 
L 310.708003 90.347324 
L 311.063774 88.603831 
L 311.242711 93.130943 
L 311.611583 98.671046 
L 311.781527 88.163707 
L 312.017687 87.796749 
L 312.375319 95.740798 
L 312.501747 88.421426 
L 312.732977 89.544846 
L 313.090224 93.712777 
L 313.212638 14.745193 
L 313.568273 24.033805 
L 313.805492 58.633073 
L 314.235778 160.612961 
L 314.58015 186.211516 
L 314.701814 214.333127 
L 315.237717 250.802907 
L 315.594079 267.751599 
L 315.682591 277.92 
L 316.016983 276.892608 
L 316.33419 240.824982 
L 316.695304 156.398972 
L 316.995565 120.548242 
L 317.110027 74.45863 
L 318.060545 2.434649 
L 318.180102 0.72 
L 318.359189 8.217775 
L 318.718927 34.276426 
L 319.194803 88.878714 
L 319.49789 112.544284 
L 319.614865 144.997924 
L 320.14826 176.594124 
L 320.328134 175.827254 
L 320.624731 164.650674 
L 321.340325 100.007922 
L 321.584298 82.91353 
L 321.878065 79.630736 
L 322.117615 70.249442 
L 322.357206 66.312669 
L 322.592008 72.444719 
L 323.070052 101.206173 
L 323.548541 133.516123 
L 323.963903 146.92728 
L 324.083748 157.95094 
L 324.569671 152.344985 
L 325.098086 116.938773 
L 325.454334 97.667081 
L 325.812051 64.33153 
L 326.294583 58.569875 
L 326.530758 60.741645 
L 326.852363 73.680115 
L 327.242305 83.527676 
L 327.301953 102.305697 
L 328.020226 150.321128 
L 328.256505 158.132871 
L 328.495475 162.002025 
L 328.794246 144.098593 
L 329.171816 134.235052 
L 329.275333 114.366639 
L 329.508337 95.614868 
L 329.745474 89.61847 
L 330.282264 65.72737 
L 330.580948 63.16132 
L 330.761294 64.482829 
L 331.533689 103.281144 
L 331.798258 120.479019 
L 332.248663 134.077933 
L 332.487919 136.729789 
L 333.024265 128.650471 
L 333.980504 85.711053 
L 334.226045 77.702101 
L 335.022935 89.086824 
L 335.469651 103.786657 
L 335.709664 108.03303 
L 336.184852 121.874728 
L 336.423478 120.562922 
L 336.663453 115.835043 
L 336.900926 105.68793 
L 337.317585 98.348194 
L 337.437428 91.153949 
L 337.916816 77.523737 
L 338.161358 81.254117 
L 338.54477 73.851985 
L 338.658091 81.293353 
L 338.944233 83.419798 
L 339.29103 95.088001 
L 339.410048 94.585483 
L 340.12328 103.460515 
L 340.421547 105.869942 
L 340.719728 98.629024 
L 340.898441 99.4018 
L 341.13678 97.950416 
L 341.375437 94.629154 
L 341.615004 95.407318 
L 341.917182 91.42738 
L 342.091832 93.738035 
L 342.592547 108.217881 
L 342.865715 112.650182 
L 343.224194 111.14261 
L 343.364331 118.329953 
L 343.819625 120.808143 
L 344.2367 118.104803 
L 344.355474 116.034643 
L 344.654162 108.458517 
L 344.835051 100.115866 
L 345.609531 84.284036 
L 345.793405 86.448146 
L 346.084919 80.008357 
L 346.386542 78.76088 
L 346.623265 84.926741 
L 346.800697 83.697267 
L 347.336523 102.614284 
L 347.633595 106.401848 
L 347.812551 105.847824 
L 348.051726 105.541257 
L 348.470912 106.861254 
L 348.531021 108.162234 
L 348.830156 109.990588 
L 349.025631 109.771323 
L 349.25029 103.410213 
L 349.603408 98.281125 
L 349.8421 89.297342 
L 350.139628 82.737932 
L 350.26536 84.806001 
L 350.557034 95.352988 
L 350.855204 92.495378 
L 351.033535 96.162458 
L 351.332358 99.528181 
L 351.510253 104.721089 
L 351.86755 93.665929 
L 352.048182 102.182018 
L 352.34541 102.742525 
L 352.643325 107.374197 
L 352.763199 104.892207 
L 353.001631 94.540352 
L 353.358236 91.441789 
L 353.777296 81.291274 
L 354.26785 87.60248 
L 354.49016 87.7086 
L 354.729169 96.081016 
L 355.563366 105.338713 
L 355.691361 105.213085 
L 355.993376 114.260335 
L 356.230389 116.921315 
L 357.232346 104.758927 
L 357.414082 95.55848 
L 357.768024 91.726229 
L 358.067321 92.090308 
L 358.200121 93.104105 
L 358.619507 93.848122 
L 358.726755 90.675369 
L 358.964857 92.429402 
L 359.203431 98.308036 
L 359.448191 100.971137 
L 359.739861 101.982564 
L 359.918637 104.239435 
L 360.223373 104.229722 
L 360.464925 101.706234 
L 360.754514 108.884302 
L 360.876193 100.505503 
L 361.129106 99.829117 
L 361.415503 91.686513 
L 361.887082 88.698032 
L 362.185637 90.555737 
L 362.424082 99.071234 
L 362.662654 99.27406 
L 362.950189 93.934254 
L 363.20353 101.221057 
L 363.423447 97.10083 
L 363.622003 103.279185 
L 363.916371 102.909951 
L 364.298259 106.364071 
L 364.393153 104.021275 
L 364.630544 102.193773 
L 364.92917 98.564283 
L 365.345698 96.814365 
L 365.643635 101.744186 
L 366.120566 89.891509 
L 366.430486 84.719013 
L 366.661699 93.908075 
L 366.95586 97.349436 
L 367.137644 97.207016 
L 367.313284 94.839087 
L 367.613202 96.615386 
L 367.848153 96.713718 
L 368.164973 99.68309 
L 368.328014 103.475954 
L 368.629685 95.222979 
L 368.92628 94.620128 
L 369.113805 90.513503 
L 369.34484 91.116671 
L 369.529356 94.614538 
L 369.821758 95.191053 
L 370.240307 99.425964 
L 370.360723 91.943385 
L 370.716213 94.219182 
L 370.778089 96.04743 
L 371.015218 97.79391 
L 371.312315 96.686568 
L 371.555098 101.250662 
L 371.789135 102.167423 
L 372.325578 104.738749 
L 372.572937 103.318162 
L 372.861574 97.314315 
L 373.223258 97.203074 
L 373.518933 101.755348 
L 373.93445 97.825546 
L 373.993192 109.918623 
L 374.356468 97.09865 
L 374.71244 90.730673 
L 375.080509 92.986281 
L 375.245909 99.232288 
L 375.486534 98.835629 
L 375.841426 99.655349 
L 376.325316 91.992994 
L 376.501063 101.891842 
L 376.735908 99.282038 
L 377.154139 100.086733 
L 377.275259 98.657915 
L 377.454122 88.386541 
L 377.691085 86.118559 
L 377.97089 93.162114 
L 378.228234 95.755545 
L 378.467507 96.957742 
L 378.705786 97.485041 
L 379.003346 94.18206 
L 379.182787 100.176046 
L 379.541591 100.034568 
L 379.77876 103.241061 
L 379.957593 101.581963 
L 380.315476 99.817349 
L 380.43452 94.641575 
L 380.67377 93.579538 
L 380.971538 95.686034 
L 381.209422 99.464377 
L 381.566802 97.08024 
L 381.744983 92.363512 
L 382.170296 92.40297 
L 382.401177 100.374406 
L 382.640935 99.045277 
L 382.938268 102.972496 
L 383.116642 98.894536 
L 383.891272 89.63654 
L 384.130172 96.609194 
L 384.36784 99.909136 
L 384.608478 97.503648 
L 385.024513 91.715843 
L 385.141968 86.90653 
L 385.982328 103.426719 
L 386.154941 98.367277 
L 386.572481 101.425058 
L 386.633083 97.111818 
L 386.871953 93.781646 
L 387.288124 94.67902 
L 387.408358 91.82799 
L 387.704159 104.675269 
L 388.12156 99.076247 
L 388.360572 91.236963 
L 388.657811 92.334408 
L 389.078696 99.807343 
L 389.373409 101.637826 
L 389.673069 101.995956 
L 390.209139 96.725925 
L 390.327434 90.126339 
L 390.566718 91.537719 
L 390.866233 99.070079 
L 391.283443 96.852958 
L 391.578394 94.235205 
L 391.956832 94.599741 
L 392.061414 95.728372 
L 392.294363 100.660446 
L 392.534085 95.29514 
L 393.014287 100.382399 
L 393.427847 95.024792 
L 393.65145 102.462757 
L 393.785792 100.744935 
L 394.023607 102.100736 
L 394.261973 102.319281 
L 394.507191 103.523088 
L 394.798172 104.273637 
L 395.156539 102.638989 
L 395.275553 99.256191 
L 395.574048 100.852362 
L 395.817442 100.678714 
L 396.050757 99.486172 
L 396.289007 101.447669 
L 396.709418 102.459372 
L 397.006497 101.574994 
L 397.24286 99.872481 
L 397.480824 94.998245 
L 397.839129 98.697282 
L 398.01748 98.165685 
L 398.255879 98.495484 
L 398.493969 92.421855 
L 398.732782 93.358756 
L 399.629341 86.343349 
L 399.867123 93.102558 
L 399.986143 87.657525 
L 400.464749 99.083966 
L 401.000306 102.690428 
L 401.240795 108.172189 
L 401.476641 108.395699 
L 401.955105 103.415815 
L 402.253688 104.940761 
L 402.431344 92.27188 
L 402.669635 92.362326 
L 403.206332 87.507891 
L 403.397622 94.635806 
L 403.633589 92.022111 
L 403.922551 91.929233 
L 404.188901 93.445636 
L 404.402506 93.973072 
L 404.641312 91.741833 
L 404.947887 100.280983 
L 405.175669 97.1914 
L 405.385104 100.641896 
L 405.65268 101.8624 
L 405.894417 105.997934 
L 406.132636 100.109215 
L 406.426561 99.778834 
L 406.667313 97.534491 
L 406.963223 98.700858 
L 407.144113 106.156856 
L 407.380891 103.154749 
L 407.619993 91.999776 
L 408.217822 84.153494 
L 408.398363 92.110174 
L 408.636507 85.313208 
L 408.917998 87.169537 
L 409.234688 91.349396 
L 409.470635 90.978411 
L 409.589722 103.95321 
L 409.829013 107.833573 
L 410.126347 102.883988 
L 410.42592 103.174827 
L 410.606015 104.353843 
L 410.844374 100.006105 
L 411.143152 100.797335 
L 411.320402 100.486956 
L 411.619643 101.410517 
L 411.857209 104.103904 
L 412.096215 97.700056 
L 412.512689 103.253537 
L 412.58546 103.057769 
L 412.87158 104.998461 
L 413.062343 107.392148 
L 413.456757 100.170629 
L 413.584819 102.366403 
L 414.11483 91.649196 
L 414.472681 87.028252 
L 414.533583 78.32284 
L 414.830286 79.698036 
L 415.068038 78.527023 
L 415.309724 77.961296 
L 415.559664 79.408535 
L 415.96323 85.086905 
L 416.023198 89.315289 
L 416.563927 96.859534 
L 416.805148 103.707101 
L 417.002271 103.118194 
L 417.276707 109.298373 
L 417.709181 107.084457 
L 417.756951 106.03031 
L 418.054464 105.865599 
L 418.471725 106.906369 
L 418.530943 106.450312 
L 418.770431 107.901969 
L 419.126668 105.513157 
L 419.305279 100.742995 
L 419.724077 96.878764 
L 419.962564 99.256916 
L 420.281437 99.220405 
L 420.501517 98.535773 
L 420.738015 102.318635 
L 420.975057 98.569014 
L 421.214128 99.297602 
L 421.693249 96.37253 
L 422.225812 95.669146 
L 422.234324 55.017849 
L 422.468961 98.037457 
L 422.825214 95.798884 
L 423.004989 98.359826 
L 423.252127 97.701083 
L 423.484338 99.501582 
L 423.840978 98.418843 
L 423.960579 94.870187 
L 424.145321 99.093241 
L 424.43705 101.065932 
L 424.675708 99.424303 
L 425.155055 95.296592 
L 425.574673 100.174707 
L 425.629286 89.777605 
L 425.988437 94.700882 
L 426.172027 94.889359 
L 426.40654 95.595169 
L 426.64547 94.390086 
L 427.065099 93.109058 
L 427.190077 90.701109 
L 427.445399 95.045678 
L 427.659166 91.507993 
L 427.90644 90.787027 
L 427.958088 94.436835 
L 428.19698 96.039287 
L 428.436409 91.443353 
L 428.619145 93.516833 
L 428.8559 94.275913 
L 429.151322 98.001263 
L 429.628082 110.052694 
L 430.10485 95.580564 
L 430.344322 92.43469 
L 430.774626 94.091974 
L 431.121983 86.031838 
L 431.357652 102.843452 
L 431.597523 99.717424 
L 432.095657 81.195252 
L 432.821237 59.353523 
L 433.156978 56.73091 
L 433.594031 55.010237 
L 433.87843 54.755519 
L 434.121676 51.581233 
L 434.414608 51.167115 
L 434.534949 53.076912 
L 434.776173 65.343832 
L 435.198864 74.268449 
L 435.318081 86.585039 
L 436.163582 106.89015 
L 436.324342 114.151332 
L 436.627299 120.72704 
L 436.862153 120.158209 
L 437.100266 113.032918 
L 437.400723 110.961831 
L 437.640155 98.57105 
L 437.947846 101.200938 
L 438.242412 97.008202 
L 438.507695 85.992258 
L 439.093849 76.712032 
L 439.259491 76.5898 
L 440.027646 109.45483 
L 440.326857 108.984291 
L 440.505242 110.733424 
L 440.743769 109.961236 
L 440.985603 108.266312 
L 441.817555 95.617575 
L 442.476381 78.203793 
L 442.882088 81.941419 
L 443.119643 82.031123 
L 443.306995 87.832194 
L 443.537398 85.91789 
L 444.01571 112.7484 
L 444.193965 116.265076 
L 444.792607 112.258967 
L 445.029606 110.914529 
L 445.21114 104.658472 
L 445.566243 97.265465 
L 445.69185 102.654272 
L 446.223006 88.519814 
L 446.46149 88.076599 
L 446.703529 86.309375 
L 446.93948 90.130101 
L 447.182432 96.325004 
L 447.4174 98.890081 
L 447.656135 99.568485 
L 447.904892 107.669465 
L 448.138367 106.95272 
L 448.437338 112.100459 
L 448.625267 109.529225 
L 448.91479 107.8589 
L 449.152725 105.26361 
L 449.392189 98.763474 
L 449.808343 102.135056 
L 449.89612 101.68933 
L 450.16705 106.327218 
L 450.46407 108.701131 
L 450.761942 106.747259 
L 450.94209 109.343449 
L 451.180519 105.698703 
L 451.425902 112.024929 
L 451.658653 113.277435 
L 451.839194 114.945279 
L 452.077357 115.361094 
L 452.326715 109.602048 
L 452.613173 112.591784 
L 452.864845 109.888142 
L 453.098099 103.414822 
L 453.469682 103.8898 
L 453.632802 96.407785 
L 453.689602 98.517897 
L 453.809319 98.67162 
L 454.134366 97.244115 
L 454.345201 89.304972 
L 454.765606 91.968874 
L 454.847127 89.720604 
L 455.071869 91.256089 
L 455.300727 88.975876 
L 455.961335 98.169136 
L 456.150748 106.079403 
L 456.566905 105.709055 
L 456.984034 109.130307 
L 457.044693 105.562033 
L 457.462645 105.717865 
L 457.700957 104.201378 
L 457.762486 101.982078 
L 458.176246 95.003505 
L 458.295734 101.149334 
L 458.535771 95.836652 
L 458.772737 96.086257 
L 459.18988 94.318955 
L 459.309275 100.16198 
L 459.792529 112.572017 
L 459.846799 116.938151 
L 460.026983 118.284652 
L 460.264394 115.524548 
L 460.505547 125.447153 
L 460.801349 125.199432 
L 460.981197 121.789514 
L 461.300883 120.193138 
L 461.461133 120.229605 
L 461.759676 111.123022 
L 461.997667 115.536934 
L 462.240011 111.0177 
L 462.535859 112.588597 
L 462.954361 106.783992 
L 463.252644 110.388535 
L 463.439137 109.321188 
L 463.848593 110.94839 
L 463.995751 115.166087 
L 464.210024 115.993899 
L 464.468285 114.348526 
L 464.68398 112.087848 
L 464.923343 111.006204 
L 465.469677 95.342771 
L 465.710789 94.097798 
L 466.009353 89.730024 
L 466.483619 80.926036 
L 466.663185 81.830795 
L 466.961408 79.815132 
L 467.199234 82.91235 
L 467.597038 85.626223 
L 467.744427 92.990802 
L 467.921045 92.185287 
L 468.454257 102.60887 
L 468.761166 98.073895 
L 468.931187 98.023939 
L 469.179483 93.117363 
L 469.542461 89.079791 
L 470.128335 73.172413 
L 470.435389 70.729084 
L 470.906718 74.426975 
L 472.16172 106.009831 
L 472.456786 107.974535 
L 472.636186 112.651352 
L 473.054076 110.410299 
L 473.400235 112.962451 
L 473.634969 112.237441 
L 473.868197 110.353752 
L 474.170263 114.063187 
L 474.354868 106.900486 
L 474.645427 107.434456 
L 474.949827 109.766599 
L 475.125654 104.734951 
L 475.601585 108.923326 
L 475.840459 106.472315 
L 476.079329 102.48816 
L 476.317061 101.408983 
L 476.555932 104.95973 
L 476.795462 95.775761 
L 477.212458 93.908803 
L 477.361592 97.616131 
L 477.749946 88.726057 
L 477.868828 90.051707 
L 478.107403 84.890581 
L 478.345862 88.392652 
L 478.643526 83.764714 
L 478.775738 86.300139 
L 479.035221 89.082145 
L 479.305237 86.189021 
L 479.600228 90.747661 
L 479.798874 91.84228 
L 480.01865 94.428375 
L 480.259337 102.011084 
L 480.639147 99.301224 
L 480.797255 99.063779 
L 481.032858 91.475865 
L 481.30086 92.211198 
L 482.112202 81.732446 
L 482.54011 86.322814 
L 482.796157 80.750049 
L 483.087039 84.386224 
L 483.208624 81.346158 
L 483.799178 91.054913 
L 484.097273 91.306918 
L 484.216787 94.089323 
L 484.514676 91.575388 
L 484.761105 85.789617 
L 485.008903 89.415039 
L 485.470722 92.797493 
L 485.76882 93.070967 
L 486.007356 92.444513 
L 486.247979 94.888287 
L 486.483328 98.497519 
L 486.721699 99.581073 
L 487.206514 108.286725 
L 487.677248 117.131993 
L 488.037454 117.23702 
L 488.214516 115.738319 
L 488.455338 121.179955 
L 488.751713 118.16551 
L 488.931602 118.310334 
L 489.288177 119.279434 
L 489.540319 119.235672 
L 489.706772 117.791163 
L 490.005091 117.220317 
L 490.242896 115.219214 
L 490.481391 116.559559 
L 490.683853 116.946038 
L 490.899752 116.796514 
L 491.201618 117.314991 
L 491.494573 121.327212 
L 491.741352 118.885199 
L 491.913287 120.292051 
L 492.154206 123.355748 
L 492.390345 121.562705 
L 492.705805 124.194005 
L 492.884784 122.716675 
L 493.122928 123.616357 
L 493.601015 122.586129 
L 493.66099 117.086706 
L 493.95881 118.631974 
L 494.141209 114.145316 
L 495.092642 100.90267 
L 495.391562 104.03726 
L 495.688062 102.370702 
L 495.866611 102.684326 
L 496.169394 100.50001 
L 496.407336 101.058366 
L 496.644163 93.040016 
L 496.931081 94.017217 
L 497.122047 92.114266 
L 497.32743 88.350854 
L 497.602808 88.591876 
L 497.947291 91.779093 
L 498.144884 90.799886 
L 498.384535 91.39836 
L 498.621652 94.07669 
L 498.860584 92.463483 
L 499.337413 100.86013 
L 499.576371 100.164769 
L 499.817608 100.857552 
L 500.113488 98.515196 
L 500.293182 102.027122 
L 500.609204 99.444821 
L 500.650281 100.64498 
L 500.829084 99.615344 
L 501.130331 89.322642 
L 501.425955 92.368565 
L 501.604394 92.724226 
L 502.085048 91.475896 
L 502.142852 90.39768 
L 502.321119 96.336225 
L 502.758604 101.934389 
L 503.051282 104.656156 
L 503.27591 111.301289 
L 503.515493 112.173839 
L 503.872555 117.655422 
L 504.051407 125.034872 
L 504.229888 125.276087 
L 504.650095 130.435623 
L 504.707569 125.427347 
L 505.069486 123.164324 
L 505.311707 117.737319 
L 505.547959 116.780687 
L 506.020268 107.242551 
L 506.266043 105.524254 
L 506.746757 94.556672 
L 506.993307 91.281682 
L 507.231373 90.513123 
L 507.475334 88.138058 
L 507.708032 90.41502 
L 508.005894 88.000738 
L 508.190358 94.551521 
L 508.485193 88.977786 
L 508.787092 98.268616 
L 509.01986 87.544008 
L 509.275368 85.464114 
L 509.498512 93.748566 
L 509.921977 87.760825 
L 509.97473 88.930956 
L 510.21317 86.491202 
L 510.631246 89.417254 
L 510.691646 88.899379 
L 510.932276 90.623104 
L 511.266656 89.747714 
L 511.427141 91.034494 
L 511.731757 96.097833 
L 511.94593 97.446796 
L 512.202575 104.280031 
L 512.42372 106.482085 
L 512.662927 103.73091 
L 512.902669 111.93555 
L 513.214663 103.411482 
L 513.619081 110.627432 
L 513.68035 107.111228 
L 513.915563 109.766226 
L 514.39837 106.665375 
L 514.571539 106.422067 
L 514.703169 109.743056 
L 514.890518 108.292742 
L 515.247869 115.194738 
L 515.468485 115.892503 
L 515.690172 120.508748 
L 515.918439 121.939458 
L 516.15758 125.197868 
L 516.400242 124.786327 
L 516.762513 130.443452 
L 516.922212 126.664013 
L 517.159528 126.282005 
L 517.51651 125.192984 
L 517.702683 119.758702 
L 517.878201 119.361864 
L 518.173168 116.415276 
L 518.653123 103.171434 
L 518.951708 101.922025 
L 519.130101 95.46705 
L 519.388449 91.598189 
L 519.725267 91.018669 
L 519.86004 86.54405 
L 520.141772 84.522275 
L 520.439599 75.0117 
L 520.621899 83.41163 
L 520.859464 80.156185 
L 521.115203 90.577769 
L 521.39507 95.631149 
L 521.87368 117.972946 
L 522.117242 121.572887 
L 522.363738 131.206363 
L 522.827932 136.762783 
L 523.843711 142.606039 
L 524.131034 130.813332 
L 524.380779 113.141789 
L 524.857058 98.235237 
L 524.9168 87.811686 
L 525.692727 74.194994 
L 525.814188 74.046112 
L 526.316015 75.245748 
L 526.890514 92.160865 
L 527.008656 101.357263 
L 527.314102 109.606773 
L 527.911085 116.270682 
L 528.28225 111.483945 
L 529.166701 80.735217 
L 529.284939 80.206995 
L 529.533417 82.541878 
L 529.890641 87.207825 
L 530.247674 100.256974 
L 530.664454 108.672101 
L 531.621121 145.807204 
L 531.88268 145.753844 
L 532.524468 122.880711 
L 532.939696 101.124207 
L 533.72434 76.828265 
L 533.946454 73.143315 
L 534.245028 72.746213 
L 534.451003 73.826779 
L 535.028561 80.299725 
L 535.504579 87.612308 
L 535.801994 88.490192 
L 536.733933 80.308988 
L 536.938388 79.910522 
L 537.241818 80.757008 
L 537.57183 83.255945 
L 537.923297 90.688207 
L 538.432501 101.96203 
L 539.203163 118.471389 
L 539.439601 120.77956 
L 539.680701 121.106721 
L 539.916955 119.077857 
L 540.924843 104.546839 
L 541.483777 97.720938 
L 541.907515 95.414267 
L 542.137411 96.96654 
L 543.147255 114.671007 
L 543.625901 121.583087 
L 543.867082 122.19407 
L 544.160754 121.452482 
L 544.419445 119.509351 
L 544.997465 111.974155 
L 545.177199 108.20974 
L 545.613251 103.928099 
L 545.716345 101.373467 
L 546.311255 98.271223 
L 546.562256 97.959537 
L 547.086927 96.288579 
L 547.328605 95.275541 
L 547.562717 93.555183 
L 548.044159 86.600471 
L 548.57849 77.673308 
L 549.053617 71.067164 
L 549.551337 70.051521 
L 550.187418 75.300812 
L 550.496407 87.951379 
L 550.901628 94.193531 
L 551.264901 102.509004 
L 551.511124 104.129164 
L 551.737027 104.696631 
L 552.035323 104.926277 
L 552.395465 105.362501 
L 552.516451 104.256944 
L 553.231918 102.034345 
L 553.531832 103.316733 
L 554.326986 119.018429 
L 554.745389 127.895042 
L 554.984158 131.030039 
L 555.281591 132.810916 
L 555.937535 134.61045 
L 556.23672 133.792342 
L 556.8397 129.273322 
L 556.966916 126.26625 
L 557.459078 119.541732 
L 557.570223 112.395217 
L 557.960614 105.208802 
L 558.43799 101.212849 
L 558.695445 100.34909 
L 558.974965 100.094753 
L 559.210968 100.31991 
L 559.509203 101.231611 
L 559.92538 104.502986 
L 560.468553 105.360507 
L 561.186721 108.199641 
L 561.37958 108.631341 
L 561.675585 107.717633 
L 561.924237 104.220059 
L 562.153707 102.590131 
L 562.693429 101.413636 
L 562.879261 101.113242 
L 563.168071 99.906488 
L 563.541892 97.427308 
L 563.663332 95.623646 
L 564.063923 95.26267 
L 564.36587 100.838884 
L 564.602546 104.141158 
L 565.099238 107.243217 
L 565.376283 107.228062 
L 565.616165 106.766554 
L 566.154132 108.287819 
L 566.807687 107.164055 
L 566.871061 105.844274 
L 567.109206 104.632052 
L 567.348511 104.519471 
L 567.602314 103.767195 
L 567.889683 104.169503 
L 568.067008 105.620832 
L 568.36386 106.859936 
L 568.666409 107.417657 
L 568.905048 107.29937 
L 569.258048 105.908363 
L 569.556614 100.481598 
L 569.830097 99.79886 
L 570.180186 102.495716 
L 570.296782 105.678671 
L 570.596187 108.113028 
L 570.840372 108.974051 
L 571.090269 108.80304 
L 571.551927 107.413363 
L 571.854597 108.561782 
L 572.030259 110.348152 
L 572.327643 110.642346 
L 573.047077 95.663238 
L 573.343047 95.717519 
L 573.705169 98.946102 
L 574.05876 105.373932 
L 574.30091 105.612022 
L 574.789855 104.637521 
L 575.266685 109.329857 
L 575.509254 109.391938 
L 575.806683 104.178422 
L 575.982989 97.493664 
L 576.28069 93.152137 
L 576.639918 94.266165 
L 576.819632 97.771101 
L 577.176708 100.302423 
L 577.414148 100.15578 
L 577.534113 98.048498 
L 577.715511 96.944598 
L 577.951032 98.892419 
L 578.728967 109.395528 
L 579.051607 105.48545 
L 579.234913 101.658764 
L 579.471695 101.508679 
L 580.001437 104.710963 
L 580.238885 104.052575 
L 580.67193 100.597495 
L 580.954797 100.245431 
L 581.193618 101.489662 
L 581.503861 102.442665 
L 581.67021 102.152381 
L 582.031218 100.630034 
L 582.167232 100.863411 
L 582.685641 104.853367 
L 582.987025 104.88653 
L 583.282015 103.394046 
L 583.519781 99.117496 
L 583.93793 99.247858 
L 584.35554 103.461217 
L 584.712611 103.056409 
L 585.071395 92.797766 
L 585.399086 92.688162 
L 585.63542 95.527281 
L 586.150599 108.790653 
L 586.440302 109.57204 
L 586.619088 108.193423 
L 586.989148 106.760966 
L 587.158906 107.393631 
L 587.635596 110.568785 
L 587.875755 109.811311 
L 588.351426 102.231374 
L 588.64969 96.563052 
L 588.888745 95.606541 
L 589.128115 98.871956 
L 589.612081 102.215389 
L 589.849898 102.002316 
L 590.201208 102.016257 
L 590.339608 103.347352 
L 590.564453 103.579108 
L 590.858037 102.68379 
L 591.098088 102.866686 
L 591.336211 104.006402 
L 591.644742 103.517499 
L 591.94111 101.466513 
L 592.179709 101.824368 
L 592.35766 102.762498 
L 592.95496 96.925914 
L 593.252524 99.066675 
L 593.612706 104.103766 
L 593.789061 103.94282 
L 594.265573 100.585366 
L 594.510253 100.903425 
L 594.863145 102.710481 
L 595.041953 104.591172 
L 595.294118 104.726262 
L 596.26267 97.983473 
L 596.502813 99.498482 
L 596.502813 99.498482 
" clip-path="url(#p4dbd2adc9c)" style="fill: none; stroke: #ff0000; stroke-opacity: 0.7; stroke-width: 1.5; stroke-linecap: square"/>
   </g>
   <g id="patch_3">
    <path d="M 38.502813 277.92 
L 38.502813 0.72 
" style="fill: none; stroke: #000000; stroke-width: 0.8; stroke-linejoin: miter; stroke-linecap: square"/>
   </g>
   <g id="patch_4">
    <path d="M 596.502813 277.92 
L 596.502813 0.72 
" style="fill: none; stroke: #000000; stroke-width: 0.8; stroke-linejoin: miter; stroke-linecap: square"/>
   </g>
   <g id="patch_5">
    <path d="M 38.502813 277.92 
L 596.502813 277.92 
" style="fill: none; stroke: #000000; stroke-width: 0.8; stroke-linejoin: miter; stroke-linecap: square"/>
   </g>
   <g id="patch_6">
    <path d="M 38.502813 0.72 
L 596.502813 0.72 
" style="fill: none; stroke: #000000; stroke-width: 0.8; stroke-linejoin: miter; stroke-linecap: square"/>
   </g>
   <g id="legend_1">
    <g id="patch_7">
     <path d="M 515.734062 38.07625 
L 589.502812 38.07625 
Q 591.502812 38.07625 591.502812 36.07625 
L 591.502812 7.72 
Q 591.502812 5.72 589.502812 5.72 
L 515.734062 5.72 
Q 513.734062 5.72 513.734062 7.72 
L 513.734062 36.07625 
Q 513.734062 38.07625 515.734062 38.07625 
z
" style="fill: #ffffff; opacity: 0.8; stroke: #cccccc; stroke-linejoin: miter"/>
    </g>
    <g id="line2d_37">
     <path d="M 517.734062 13.818438 
L 527.734062 13.818438 
L 537.734062 13.818438 
" style="fill: none; stroke: #0000ff; stroke-opacity: 0.7; stroke-width: 1.5; stroke-linecap: square"/>
    </g>
    <g id="text_20">
     <!-- RNEA -->
     <g transform="translate(545.734062 17.318438) scale(0.1 -0.1)">
      <defs>
       <path id="DejaVuSans-52" d="M 2841 2188 
Q 3044 2119 3236 1894 
Q 3428 1669 3622 1275 
L 4263 0 
L 3584 0 
L 2988 1197 
Q 2756 1666 2539 1819 
Q 2322 1972 1947 1972 
L 1259 1972 
L 1259 0 
L 628 0 
L 628 4666 
L 2053 4666 
Q 2853 4666 3247 4331 
Q 3641 3997 3641 3322 
Q 3641 2881 3436 2590 
Q 3231 2300 2841 2188 
z
M 1259 4147 
L 1259 2491 
L 2053 2491 
Q 2509 2491 2742 2702 
Q 2975 2913 2975 3322 
Q 2975 3731 2742 3939 
Q 2509 4147 2053 4147 
L 1259 4147 
z
" transform="scale(0.015625)"/>
       <path id="DejaVuSans-45" d="M 628 4666 
L 3578 4666 
L 3578 4134 
L 1259 4134 
L 1259 2753 
L 3481 2753 
L 3481 2222 
L 1259 2222 
L 1259 531 
L 3634 531 
L 3634 0 
L 628 0 
L 628 4666 
z
" transform="scale(0.015625)"/>
       <path id="DejaVuSans-41" d="M 2188 4044 
L 1331 1722 
L 3047 1722 
L 2188 4044 
z
M 1831 4666 
L 2547 4666 
L 4325 0 
L 3669 0 
L 3244 1197 
L 1141 1197 
L 716 0 
L 50 0 
L 1831 4666 
z
" transform="scale(0.015625)"/>
      </defs>
      <use xlink:href="#DejaVuSans-52"/>
      <use xlink:href="#DejaVuSans-4e" x="69.482422"/>
      <use xlink:href="#DejaVuSans-45" x="144.287109"/>
      <use xlink:href="#DejaVuSans-41" x="207.470703"/>
     </g>
    </g>
    <g id="line2d_38">
     <path d="M 517.734062 28.496563 
L 527.734062 28.496563 
L 537.734062 28.496563 
" style="fill: none; stroke: #ff0000; stroke-opacity: 0.7; stroke-width: 1.5; stroke-linecap: square"/>
    </g>
    <g id="text_21">
     <!-- BURNEA -->
     <g transform="translate(545.734062 31.996563) scale(0.1 -0.1)">
      <defs>
       <path id="DejaVuSans-42" d="M 1259 2228 
L 1259 519 
L 2272 519 
Q 2781 519 3026 730 
Q 3272 941 3272 1375 
Q 3272 1813 3026 2020 
Q 2781 2228 2272 2228 
L 1259 2228 
z
M 1259 4147 
L 1259 2741 
L 2194 2741 
Q 2656 2741 2882 2914 
Q 3109 3088 3109 3444 
Q 3109 3797 2882 3972 
Q 2656 4147 2194 4147 
L 1259 4147 
z
M 628 4666 
L 2241 4666 
Q 2963 4666 3353 4366 
Q 3744 4066 3744 3513 
Q 3744 3084 3544 2831 
Q 3344 2578 2956 2516 
Q 3422 2416 3680 2098 
Q 3938 1781 3938 1306 
Q 3938 681 3513 340 
Q 3088 0 2303 0 
L 628 0 
L 628 4666 
z
" transform="scale(0.015625)"/>
       <path id="DejaVuSans-55" d="M 556 4666 
L 1191 4666 
L 1191 1831 
Q 1191 1081 1462 751 
Q 1734 422 2344 422 
Q 2950 422 3222 751 
Q 3494 1081 3494 1831 
L 3494 4666 
L 4128 4666 
L 4128 1753 
Q 4128 841 3676 375 
Q 3225 -91 2344 -91 
Q 1459 -91 1007 375 
Q 556 841 556 1753 
L 556 4666 
z
" transform="scale(0.015625)"/>
      </defs>
      <use xlink:href="#DejaVuSans-42"/>
      <use xlink:href="#DejaVuSans-55" x="68.603516"/>
      <use xlink:href="#DejaVuSans-52" x="141.796875"/>
      <use xlink:href="#DejaVuSans-4e" x="211.279297"/>
      <use xlink:href="#DejaVuSans-45" x="286.083984"/>
      <use xlink:href="#DejaVuSans-41" x="349.267578"/>
     </g>
    </g>
   </g>
  </g>
 </g>
 <defs>
  <clipPath id="p4dbd2adc9c">
   <rect x="38.502813" y="0.72" width="558" height="277.2"/>
  </clipPath>
 </defs>
</svg>
