<?xml version="1.0" encoding="utf-8" standalone="no"?>
<!DOCTYPE svg PUBLIC "-//W3C//DTD SVG 1.1//EN"
  "http://www.w3.org/Graphics/SVG/1.1/DTD/svg11.dtd">
<svg xmlns:xlink="http://www.w3.org/1999/xlink" width="606.763438pt" height="304.99625pt" viewBox="0 0 606.763438 304.99625" xmlns="http://www.w3.org/2000/svg" version="1.1">
 <metadata>
  <rdf:RDF xmlns:dc="http://purl.org/dc/elements/1.1/" xmlns:cc="http://creativecommons.org/ns#" xmlns:rdf="http://www.w3.org/1999/02/22-rdf-syntax-ns#">
   <cc:Work>
    <dc:type rdf:resource="http://purl.org/dc/dcmitype/StillImage"/>
    <dc:date>2023-09-05T22:08:44.110168</dc:date>
    <dc:format>image/svg+xml</dc:format>
    <dc:creator>
     <cc:Agent>
      <dc:title>Matplotlib v3.7.2, https://matplotlib.org/</dc:title>
     </cc:Agent>
    </dc:creator>
   </cc:Work>
  </rdf:RDF>
 </metadata>
 <defs>
  <style type="text/css">*{stroke-linejoin: round; stroke-linecap: butt}</style>
 </defs>
 <g id="figure_1">
  <g id="patch_1">
   <path d="M 0 304.99625 
L 606.763438 304.99625 
L 606.763438 0 
L 0 0 
L 0 304.99625 
z
" style="fill: none"/>
  </g>
  <g id="axes_1">
   <g id="patch_2">
    <path d="M 48.043438 277.92 
L 606.043437 277.92 
L 606.043437 0.72 
L 48.043438 0.72 
L 48.043438 277.92 
z
" style="fill: none"/>
   </g>
   <g id="matplotlib.axis_1">
    <g id="xtick_1">
     <g id="line2d_1">
      <path d="M 48.043438 277.92 
L 48.043438 0.72 
" clip-path="url(#p587ea044ce)" style="fill: none; stroke-dasharray: 0.8,1.32; stroke-dashoffset: 0; stroke: #000000; stroke-opacity: 0.5; stroke-width: 0.8"/>
     </g>
     <g id="line2d_2">
      <defs>
       <path id="m4a5f6708e6" d="M 0 0 
L 0 3.5 
" style="stroke: #000000; stroke-width: 0.8"/>
      </defs>
      <g>
       <use xlink:href="#m4a5f6708e6" x="48.043438" y="277.92" style="stroke: #000000; stroke-width: 0.8"/>
      </g>
     </g>
     <g id="text_1">
      <!-- 0.0 -->
      <g transform="translate(40.091875 292.518438) scale(0.1 -0.1)">
       <defs>
        <path id="DejaVuSans-30" d="M 2034 4250 
Q 1547 4250 1301 3770 
Q 1056 3291 1056 2328 
Q 1056 1369 1301 889 
Q 1547 409 2034 409 
Q 2525 409 2770 889 
Q 3016 1369 3016 2328 
Q 3016 3291 2770 3770 
Q 2525 4250 2034 4250 
z
M 2034 4750 
Q 2819 4750 3233 4129 
Q 3647 3509 3647 2328 
Q 3647 1150 3233 529 
Q 2819 -91 2034 -91 
Q 1250 -91 836 529 
Q 422 1150 422 2328 
Q 422 3509 836 4129 
Q 1250 4750 2034 4750 
z
" transform="scale(0.015625)"/>
        <path id="DejaVuSans-2e" d="M 684 794 
L 1344 794 
L 1344 0 
L 684 0 
L 684 794 
z
" transform="scale(0.015625)"/>
       </defs>
       <use xlink:href="#DejaVuSans-30"/>
       <use xlink:href="#DejaVuSans-2e" x="63.623047"/>
       <use xlink:href="#DejaVuSans-30" x="95.410156"/>
      </g>
     </g>
    </g>
    <g id="xtick_2">
     <g id="line2d_3">
      <path d="M 122.194762 277.92 
L 122.194762 0.72 
" clip-path="url(#p587ea044ce)" style="fill: none; stroke-dasharray: 0.8,1.32; stroke-dashoffset: 0; stroke: #000000; stroke-opacity: 0.5; stroke-width: 0.8"/>
     </g>
     <g id="line2d_4">
      <g>
       <use xlink:href="#m4a5f6708e6" x="122.194762" y="277.92" style="stroke: #000000; stroke-width: 0.8"/>
      </g>
     </g>
     <g id="text_2">
      <!-- 2.5 -->
      <g transform="translate(114.2432 292.518438) scale(0.1 -0.1)">
       <defs>
        <path id="DejaVuSans-32" d="M 1228 531 
L 3431 531 
L 3431 0 
L 469 0 
L 469 531 
Q 828 903 1448 1529 
Q 2069 2156 2228 2338 
Q 2531 2678 2651 2914 
Q 2772 3150 2772 3378 
Q 2772 3750 2511 3984 
Q 2250 4219 1831 4219 
Q 1534 4219 1204 4116 
Q 875 4013 500 3803 
L 500 4441 
Q 881 4594 1212 4672 
Q 1544 4750 1819 4750 
Q 2544 4750 2975 4387 
Q 3406 4025 3406 3419 
Q 3406 3131 3298 2873 
Q 3191 2616 2906 2266 
Q 2828 2175 2409 1742 
Q 1991 1309 1228 531 
z
" transform="scale(0.015625)"/>
        <path id="DejaVuSans-35" d="M 691 4666 
L 3169 4666 
L 3169 4134 
L 1269 4134 
L 1269 2991 
Q 1406 3038 1543 3061 
Q 1681 3084 1819 3084 
Q 2600 3084 3056 2656 
Q 3513 2228 3513 1497 
Q 3513 744 3044 326 
Q 2575 -91 1722 -91 
Q 1428 -91 1123 -41 
Q 819 9 494 109 
L 494 744 
Q 775 591 1075 516 
Q 1375 441 1709 441 
Q 2250 441 2565 725 
Q 2881 1009 2881 1497 
Q 2881 1984 2565 2268 
Q 2250 2553 1709 2553 
Q 1456 2553 1204 2497 
Q 953 2441 691 2322 
L 691 4666 
z
" transform="scale(0.015625)"/>
       </defs>
       <use xlink:href="#DejaVuSans-32"/>
       <use xlink:href="#DejaVuSans-2e" x="63.623047"/>
       <use xlink:href="#DejaVuSans-35" x="95.410156"/>
      </g>
     </g>
    </g>
    <g id="xtick_3">
     <g id="line2d_5">
      <path d="M 196.346087 277.92 
L 196.346087 0.72 
" clip-path="url(#p587ea044ce)" style="fill: none; stroke-dasharray: 0.8,1.32; stroke-dashoffset: 0; stroke: #000000; stroke-opacity: 0.5; stroke-width: 0.8"/>
     </g>
     <g id="line2d_6">
      <g>
       <use xlink:href="#m4a5f6708e6" x="196.346087" y="277.92" style="stroke: #000000; stroke-width: 0.8"/>
      </g>
     </g>
     <g id="text_3">
      <!-- 5.0 -->
      <g transform="translate(188.394525 292.518438) scale(0.1 -0.1)">
       <use xlink:href="#DejaVuSans-35"/>
       <use xlink:href="#DejaVuSans-2e" x="63.623047"/>
       <use xlink:href="#DejaVuSans-30" x="95.410156"/>
      </g>
     </g>
    </g>
    <g id="xtick_4">
     <g id="line2d_7">
      <path d="M 270.497412 277.92 
L 270.497412 0.72 
" clip-path="url(#p587ea044ce)" style="fill: none; stroke-dasharray: 0.8,1.32; stroke-dashoffset: 0; stroke: #000000; stroke-opacity: 0.5; stroke-width: 0.8"/>
     </g>
     <g id="line2d_8">
      <g>
       <use xlink:href="#m4a5f6708e6" x="270.497412" y="277.92" style="stroke: #000000; stroke-width: 0.8"/>
      </g>
     </g>
     <g id="text_4">
      <!-- 7.5 -->
      <g transform="translate(262.54585 292.518438) scale(0.1 -0.1)">
       <defs>
        <path id="DejaVuSans-37" d="M 525 4666 
L 3525 4666 
L 3525 4397 
L 1831 0 
L 1172 0 
L 2766 4134 
L 525 4134 
L 525 4666 
z
" transform="scale(0.015625)"/>
       </defs>
       <use xlink:href="#DejaVuSans-37"/>
       <use xlink:href="#DejaVuSans-2e" x="63.623047"/>
       <use xlink:href="#DejaVuSans-35" x="95.410156"/>
      </g>
     </g>
    </g>
    <g id="xtick_5">
     <g id="line2d_9">
      <path d="M 344.648737 277.92 
L 344.648737 0.72 
" clip-path="url(#p587ea044ce)" style="fill: none; stroke-dasharray: 0.8,1.32; stroke-dashoffset: 0; stroke: #000000; stroke-opacity: 0.5; stroke-width: 0.8"/>
     </g>
     <g id="line2d_10">
      <g>
       <use xlink:href="#m4a5f6708e6" x="344.648737" y="277.92" style="stroke: #000000; stroke-width: 0.8"/>
      </g>
     </g>
     <g id="text_5">
      <!-- 10.0 -->
      <g transform="translate(333.515925 292.518438) scale(0.1 -0.1)">
       <defs>
        <path id="DejaVuSans-31" d="M 794 531 
L 1825 531 
L 1825 4091 
L 703 3866 
L 703 4441 
L 1819 4666 
L 2450 4666 
L 2450 531 
L 3481 531 
L 3481 0 
L 794 0 
L 794 531 
z
" transform="scale(0.015625)"/>
       </defs>
       <use xlink:href="#DejaVuSans-31"/>
       <use xlink:href="#DejaVuSans-30" x="63.623047"/>
       <use xlink:href="#DejaVuSans-2e" x="127.246094"/>
       <use xlink:href="#DejaVuSans-30" x="159.033203"/>
      </g>
     </g>
    </g>
    <g id="xtick_6">
     <g id="line2d_11">
      <path d="M 418.800062 277.92 
L 418.800062 0.72 
" clip-path="url(#p587ea044ce)" style="fill: none; stroke-dasharray: 0.8,1.32; stroke-dashoffset: 0; stroke: #000000; stroke-opacity: 0.5; stroke-width: 0.8"/>
     </g>
     <g id="line2d_12">
      <g>
       <use xlink:href="#m4a5f6708e6" x="418.800062" y="277.92" style="stroke: #000000; stroke-width: 0.8"/>
      </g>
     </g>
     <g id="text_6">
      <!-- 12.5 -->
      <g transform="translate(407.66725 292.518438) scale(0.1 -0.1)">
       <use xlink:href="#DejaVuSans-31"/>
       <use xlink:href="#DejaVuSans-32" x="63.623047"/>
       <use xlink:href="#DejaVuSans-2e" x="127.246094"/>
       <use xlink:href="#DejaVuSans-35" x="159.033203"/>
      </g>
     </g>
    </g>
    <g id="xtick_7">
     <g id="line2d_13">
      <path d="M 492.951387 277.92 
L 492.951387 0.72 
" clip-path="url(#p587ea044ce)" style="fill: none; stroke-dasharray: 0.8,1.32; stroke-dashoffset: 0; stroke: #000000; stroke-opacity: 0.5; stroke-width: 0.8"/>
     </g>
     <g id="line2d_14">
      <g>
       <use xlink:href="#m4a5f6708e6" x="492.951387" y="277.92" style="stroke: #000000; stroke-width: 0.8"/>
      </g>
     </g>
     <g id="text_7">
      <!-- 15.0 -->
      <g transform="translate(481.818575 292.518438) scale(0.1 -0.1)">
       <use xlink:href="#DejaVuSans-31"/>
       <use xlink:href="#DejaVuSans-35" x="63.623047"/>
       <use xlink:href="#DejaVuSans-2e" x="127.246094"/>
       <use xlink:href="#DejaVuSans-30" x="159.033203"/>
      </g>
     </g>
    </g>
    <g id="xtick_8">
     <g id="line2d_15">
      <path d="M 567.102712 277.92 
L 567.102712 0.72 
" clip-path="url(#p587ea044ce)" style="fill: none; stroke-dasharray: 0.8,1.32; stroke-dashoffset: 0; stroke: #000000; stroke-opacity: 0.5; stroke-width: 0.8"/>
     </g>
     <g id="line2d_16">
      <g>
       <use xlink:href="#m4a5f6708e6" x="567.102712" y="277.92" style="stroke: #000000; stroke-width: 0.8"/>
      </g>
     </g>
     <g id="text_8">
      <!-- 17.5 -->
      <g transform="translate(555.969899 292.518438) scale(0.1 -0.1)">
       <use xlink:href="#DejaVuSans-31"/>
       <use xlink:href="#DejaVuSans-37" x="63.623047"/>
       <use xlink:href="#DejaVuSans-2e" x="127.246094"/>
       <use xlink:href="#DejaVuSans-35" x="159.033203"/>
      </g>
     </g>
    </g>
    <g id="text_9">
     <!-- Zeit [s] -->
     <g transform="translate(309.097344 302.196563) scale(0.1 -0.1)">
      <defs>
       <path id="DejaVuSans-5a" d="M 359 4666 
L 4025 4666 
L 4025 4184 
L 1075 531 
L 4097 531 
L 4097 0 
L 288 0 
L 288 481 
L 3238 4134 
L 359 4134 
L 359 4666 
z
" transform="scale(0.015625)"/>
       <path id="DejaVuSans-65" d="M 3597 1894 
L 3597 1613 
L 953 1613 
Q 991 1019 1311 708 
Q 1631 397 2203 397 
Q 2534 397 2845 478 
Q 3156 559 3463 722 
L 3463 178 
Q 3153 47 2828 -22 
Q 2503 -91 2169 -91 
Q 1331 -91 842 396 
Q 353 884 353 1716 
Q 353 2575 817 3079 
Q 1281 3584 2069 3584 
Q 2775 3584 3186 3129 
Q 3597 2675 3597 1894 
z
M 3022 2063 
Q 3016 2534 2758 2815 
Q 2500 3097 2075 3097 
Q 1594 3097 1305 2825 
Q 1016 2553 972 2059 
L 3022 2063 
z
" transform="scale(0.015625)"/>
       <path id="DejaVuSans-69" d="M 603 3500 
L 1178 3500 
L 1178 0 
L 603 0 
L 603 3500 
z
M 603 4863 
L 1178 4863 
L 1178 4134 
L 603 4134 
L 603 4863 
z
" transform="scale(0.015625)"/>
       <path id="DejaVuSans-74" d="M 1172 4494 
L 1172 3500 
L 2356 3500 
L 2356 3053 
L 1172 3053 
L 1172 1153 
Q 1172 725 1289 603 
Q 1406 481 1766 481 
L 2356 481 
L 2356 0 
L 1766 0 
Q 1100 0 847 248 
Q 594 497 594 1153 
L 594 3053 
L 172 3053 
L 172 3500 
L 594 3500 
L 594 4494 
L 1172 4494 
z
" transform="scale(0.015625)"/>
       <path id="DejaVuSans-20" transform="scale(0.015625)"/>
       <path id="DejaVuSans-5b" d="M 550 4863 
L 1875 4863 
L 1875 4416 
L 1125 4416 
L 1125 -397 
L 1875 -397 
L 1875 -844 
L 550 -844 
L 550 4863 
z
" transform="scale(0.015625)"/>
       <path id="DejaVuSans-73" d="M 2834 3397 
L 2834 2853 
Q 2591 2978 2328 3040 
Q 2066 3103 1784 3103 
Q 1356 3103 1142 2972 
Q 928 2841 928 2578 
Q 928 2378 1081 2264 
Q 1234 2150 1697 2047 
L 1894 2003 
Q 2506 1872 2764 1633 
Q 3022 1394 3022 966 
Q 3022 478 2636 193 
Q 2250 -91 1575 -91 
Q 1294 -91 989 -36 
Q 684 19 347 128 
L 347 722 
Q 666 556 975 473 
Q 1284 391 1588 391 
Q 1994 391 2212 530 
Q 2431 669 2431 922 
Q 2431 1156 2273 1281 
Q 2116 1406 1581 1522 
L 1381 1569 
Q 847 1681 609 1914 
Q 372 2147 372 2553 
Q 372 3047 722 3315 
Q 1072 3584 1716 3584 
Q 2034 3584 2315 3537 
Q 2597 3491 2834 3397 
z
" transform="scale(0.015625)"/>
       <path id="DejaVuSans-5d" d="M 1947 4863 
L 1947 -844 
L 622 -844 
L 622 -397 
L 1369 -397 
L 1369 4416 
L 622 4416 
L 622 4863 
L 1947 4863 
z
" transform="scale(0.015625)"/>
      </defs>
      <use xlink:href="#DejaVuSans-5a"/>
      <use xlink:href="#DejaVuSans-65" x="68.505859"/>
      <use xlink:href="#DejaVuSans-69" x="130.029297"/>
      <use xlink:href="#DejaVuSans-74" x="157.8125"/>
      <use xlink:href="#DejaVuSans-20" x="197.021484"/>
      <use xlink:href="#DejaVuSans-5b" x="228.808594"/>
      <use xlink:href="#DejaVuSans-73" x="267.822266"/>
      <use xlink:href="#DejaVuSans-5d" x="319.921875"/>
     </g>
    </g>
   </g>
   <g id="matplotlib.axis_2">
    <g id="ytick_1">
     <g id="line2d_17">
      <path d="M 48.043438 271.641504 
L 606.043437 271.641504 
" clip-path="url(#p587ea044ce)" style="fill: none; stroke-dasharray: 0.8,1.32; stroke-dashoffset: 0; stroke: #000000; stroke-opacity: 0.5; stroke-width: 0.8"/>
     </g>
     <g id="line2d_18">
      <defs>
       <path id="m43072efe23" d="M 0 0 
L -3.5 0 
" style="stroke: #000000; stroke-width: 0.8"/>
      </defs>
      <g>
       <use xlink:href="#m43072efe23" x="48.043438" y="271.641504" style="stroke: #000000; stroke-width: 0.8"/>
      </g>
     </g>
     <g id="text_10">
      <!-- −10.0 -->
      <g transform="translate(10.398125 275.440723) scale(0.1 -0.1)">
       <defs>
        <path id="DejaVuSans-2212" d="M 678 2272 
L 4684 2272 
L 4684 1741 
L 678 1741 
L 678 2272 
z
" transform="scale(0.015625)"/>
       </defs>
       <use xlink:href="#DejaVuSans-2212"/>
       <use xlink:href="#DejaVuSans-31" x="83.789062"/>
       <use xlink:href="#DejaVuSans-30" x="147.412109"/>
       <use xlink:href="#DejaVuSans-2e" x="211.035156"/>
       <use xlink:href="#DejaVuSans-30" x="242.822266"/>
      </g>
     </g>
    </g>
    <g id="ytick_2">
     <g id="line2d_19">
      <path d="M 48.043438 238.753572 
L 606.043437 238.753572 
" clip-path="url(#p587ea044ce)" style="fill: none; stroke-dasharray: 0.8,1.32; stroke-dashoffset: 0; stroke: #000000; stroke-opacity: 0.5; stroke-width: 0.8"/>
     </g>
     <g id="line2d_20">
      <g>
       <use xlink:href="#m43072efe23" x="48.043438" y="238.753572" style="stroke: #000000; stroke-width: 0.8"/>
      </g>
     </g>
     <g id="text_11">
      <!-- −7.5 -->
      <g transform="translate(16.760625 242.552791) scale(0.1 -0.1)">
       <use xlink:href="#DejaVuSans-2212"/>
       <use xlink:href="#DejaVuSans-37" x="83.789062"/>
       <use xlink:href="#DejaVuSans-2e" x="147.412109"/>
       <use xlink:href="#DejaVuSans-35" x="179.199219"/>
      </g>
     </g>
    </g>
    <g id="ytick_3">
     <g id="line2d_21">
      <path d="M 48.043438 205.865641 
L 606.043437 205.865641 
" clip-path="url(#p587ea044ce)" style="fill: none; stroke-dasharray: 0.8,1.32; stroke-dashoffset: 0; stroke: #000000; stroke-opacity: 0.5; stroke-width: 0.8"/>
     </g>
     <g id="line2d_22">
      <g>
       <use xlink:href="#m43072efe23" x="48.043438" y="205.865641" style="stroke: #000000; stroke-width: 0.8"/>
      </g>
     </g>
     <g id="text_12">
      <!-- −5.0 -->
      <g transform="translate(16.760625 209.664859) scale(0.1 -0.1)">
       <use xlink:href="#DejaVuSans-2212"/>
       <use xlink:href="#DejaVuSans-35" x="83.789062"/>
       <use xlink:href="#DejaVuSans-2e" x="147.412109"/>
       <use xlink:href="#DejaVuSans-30" x="179.199219"/>
      </g>
     </g>
    </g>
    <g id="ytick_4">
     <g id="line2d_23">
      <path d="M 48.043438 172.977709 
L 606.043437 172.977709 
" clip-path="url(#p587ea044ce)" style="fill: none; stroke-dasharray: 0.8,1.32; stroke-dashoffset: 0; stroke: #000000; stroke-opacity: 0.5; stroke-width: 0.8"/>
     </g>
     <g id="line2d_24">
      <g>
       <use xlink:href="#m43072efe23" x="48.043438" y="172.977709" style="stroke: #000000; stroke-width: 0.8"/>
      </g>
     </g>
     <g id="text_13">
      <!-- −2.5 -->
      <g transform="translate(16.760625 176.776927) scale(0.1 -0.1)">
       <use xlink:href="#DejaVuSans-2212"/>
       <use xlink:href="#DejaVuSans-32" x="83.789062"/>
       <use xlink:href="#DejaVuSans-2e" x="147.412109"/>
       <use xlink:href="#DejaVuSans-35" x="179.199219"/>
      </g>
     </g>
    </g>
    <g id="ytick_5">
     <g id="line2d_25">
      <path d="M 48.043438 140.089777 
L 606.043437 140.089777 
" clip-path="url(#p587ea044ce)" style="fill: none; stroke-dasharray: 0.8,1.32; stroke-dashoffset: 0; stroke: #000000; stroke-opacity: 0.5; stroke-width: 0.8"/>
     </g>
     <g id="line2d_26">
      <g>
       <use xlink:href="#m43072efe23" x="48.043438" y="140.089777" style="stroke: #000000; stroke-width: 0.8"/>
      </g>
     </g>
     <g id="text_14">
      <!-- 0.0 -->
      <g transform="translate(25.140313 143.888996) scale(0.1 -0.1)">
       <use xlink:href="#DejaVuSans-30"/>
       <use xlink:href="#DejaVuSans-2e" x="63.623047"/>
       <use xlink:href="#DejaVuSans-30" x="95.410156"/>
      </g>
     </g>
    </g>
    <g id="ytick_6">
     <g id="line2d_27">
      <path d="M 48.043438 107.201845 
L 606.043437 107.201845 
" clip-path="url(#p587ea044ce)" style="fill: none; stroke-dasharray: 0.8,1.32; stroke-dashoffset: 0; stroke: #000000; stroke-opacity: 0.5; stroke-width: 0.8"/>
     </g>
     <g id="line2d_28">
      <g>
       <use xlink:href="#m43072efe23" x="48.043438" y="107.201845" style="stroke: #000000; stroke-width: 0.8"/>
      </g>
     </g>
     <g id="text_15">
      <!-- 2.5 -->
      <g transform="translate(25.140313 111.001064) scale(0.1 -0.1)">
       <use xlink:href="#DejaVuSans-32"/>
       <use xlink:href="#DejaVuSans-2e" x="63.623047"/>
       <use xlink:href="#DejaVuSans-35" x="95.410156"/>
      </g>
     </g>
    </g>
    <g id="ytick_7">
     <g id="line2d_29">
      <path d="M 48.043438 74.313913 
L 606.043437 74.313913 
" clip-path="url(#p587ea044ce)" style="fill: none; stroke-dasharray: 0.8,1.32; stroke-dashoffset: 0; stroke: #000000; stroke-opacity: 0.5; stroke-width: 0.8"/>
     </g>
     <g id="line2d_30">
      <g>
       <use xlink:href="#m43072efe23" x="48.043438" y="74.313913" style="stroke: #000000; stroke-width: 0.8"/>
      </g>
     </g>
     <g id="text_16">
      <!-- 5.0 -->
      <g transform="translate(25.140313 78.113132) scale(0.1 -0.1)">
       <use xlink:href="#DejaVuSans-35"/>
       <use xlink:href="#DejaVuSans-2e" x="63.623047"/>
       <use xlink:href="#DejaVuSans-30" x="95.410156"/>
      </g>
     </g>
    </g>
    <g id="ytick_8">
     <g id="line2d_31">
      <path d="M 48.043438 41.425982 
L 606.043437 41.425982 
" clip-path="url(#p587ea044ce)" style="fill: none; stroke-dasharray: 0.8,1.32; stroke-dashoffset: 0; stroke: #000000; stroke-opacity: 0.5; stroke-width: 0.8"/>
     </g>
     <g id="line2d_32">
      <g>
       <use xlink:href="#m43072efe23" x="48.043438" y="41.425982" style="stroke: #000000; stroke-width: 0.8"/>
      </g>
     </g>
     <g id="text_17">
      <!-- 7.5 -->
      <g transform="translate(25.140313 45.2252) scale(0.1 -0.1)">
       <use xlink:href="#DejaVuSans-37"/>
       <use xlink:href="#DejaVuSans-2e" x="63.623047"/>
       <use xlink:href="#DejaVuSans-35" x="95.410156"/>
      </g>
     </g>
    </g>
    <g id="ytick_9">
     <g id="line2d_33">
      <path d="M 48.043438 8.53805 
L 606.043437 8.53805 
" clip-path="url(#p587ea044ce)" style="fill: none; stroke-dasharray: 0.8,1.32; stroke-dashoffset: 0; stroke: #000000; stroke-opacity: 0.5; stroke-width: 0.8"/>
     </g>
     <g id="line2d_34">
      <g>
       <use xlink:href="#m43072efe23" x="48.043438" y="8.53805" style="stroke: #000000; stroke-width: 0.8"/>
      </g>
     </g>
     <g id="text_18">
      <!-- 10.0 -->
      <g transform="translate(18.777813 12.337269) scale(0.1 -0.1)">
       <use xlink:href="#DejaVuSans-31"/>
       <use xlink:href="#DejaVuSans-30" x="63.623047"/>
       <use xlink:href="#DejaVuSans-2e" x="127.246094"/>
       <use xlink:href="#DejaVuSans-30" x="159.033203"/>
      </g>
     </g>
    </g>
    <g id="text_19">
     <!-- Drehmoment [Nm] -->
     <g transform="translate(8.318438 186.465313) rotate(-90) scale(0.1 -0.1)">
      <defs>
       <path id="DejaVuSans-44" d="M 1259 4147 
L 1259 519 
L 2022 519 
Q 2988 519 3436 956 
Q 3884 1394 3884 2338 
Q 3884 3275 3436 3711 
Q 2988 4147 2022 4147 
L 1259 4147 
z
M 628 4666 
L 1925 4666 
Q 3281 4666 3915 4102 
Q 4550 3538 4550 2338 
Q 4550 1131 3912 565 
Q 3275 0 1925 0 
L 628 0 
L 628 4666 
z
" transform="scale(0.015625)"/>
       <path id="DejaVuSans-72" d="M 2631 2963 
Q 2534 3019 2420 3045 
Q 2306 3072 2169 3072 
Q 1681 3072 1420 2755 
Q 1159 2438 1159 1844 
L 1159 0 
L 581 0 
L 581 3500 
L 1159 3500 
L 1159 2956 
Q 1341 3275 1631 3429 
Q 1922 3584 2338 3584 
Q 2397 3584 2469 3576 
Q 2541 3569 2628 3553 
L 2631 2963 
z
" transform="scale(0.015625)"/>
       <path id="DejaVuSans-68" d="M 3513 2113 
L 3513 0 
L 2938 0 
L 2938 2094 
Q 2938 2591 2744 2837 
Q 2550 3084 2163 3084 
Q 1697 3084 1428 2787 
Q 1159 2491 1159 1978 
L 1159 0 
L 581 0 
L 581 4863 
L 1159 4863 
L 1159 2956 
Q 1366 3272 1645 3428 
Q 1925 3584 2291 3584 
Q 2894 3584 3203 3211 
Q 3513 2838 3513 2113 
z
" transform="scale(0.015625)"/>
       <path id="DejaVuSans-6d" d="M 3328 2828 
Q 3544 3216 3844 3400 
Q 4144 3584 4550 3584 
Q 5097 3584 5394 3201 
Q 5691 2819 5691 2113 
L 5691 0 
L 5113 0 
L 5113 2094 
Q 5113 2597 4934 2840 
Q 4756 3084 4391 3084 
Q 3944 3084 3684 2787 
Q 3425 2491 3425 1978 
L 3425 0 
L 2847 0 
L 2847 2094 
Q 2847 2600 2669 2842 
Q 2491 3084 2119 3084 
Q 1678 3084 1418 2786 
Q 1159 2488 1159 1978 
L 1159 0 
L 581 0 
L 581 3500 
L 1159 3500 
L 1159 2956 
Q 1356 3278 1631 3431 
Q 1906 3584 2284 3584 
Q 2666 3584 2933 3390 
Q 3200 3197 3328 2828 
z
" transform="scale(0.015625)"/>
       <path id="DejaVuSans-6f" d="M 1959 3097 
Q 1497 3097 1228 2736 
Q 959 2375 959 1747 
Q 959 1119 1226 758 
Q 1494 397 1959 397 
Q 2419 397 2687 759 
Q 2956 1122 2956 1747 
Q 2956 2369 2687 2733 
Q 2419 3097 1959 3097 
z
M 1959 3584 
Q 2709 3584 3137 3096 
Q 3566 2609 3566 1747 
Q 3566 888 3137 398 
Q 2709 -91 1959 -91 
Q 1206 -91 779 398 
Q 353 888 353 1747 
Q 353 2609 779 3096 
Q 1206 3584 1959 3584 
z
" transform="scale(0.015625)"/>
       <path id="DejaVuSans-6e" d="M 3513 2113 
L 3513 0 
L 2938 0 
L 2938 2094 
Q 2938 2591 2744 2837 
Q 2550 3084 2163 3084 
Q 1697 3084 1428 2787 
Q 1159 2491 1159 1978 
L 1159 0 
L 581 0 
L 581 3500 
L 1159 3500 
L 1159 2956 
Q 1366 3272 1645 3428 
Q 1925 3584 2291 3584 
Q 2894 3584 3203 3211 
Q 3513 2838 3513 2113 
z
" transform="scale(0.015625)"/>
       <path id="DejaVuSans-4e" d="M 628 4666 
L 1478 4666 
L 3547 763 
L 3547 4666 
L 4159 4666 
L 4159 0 
L 3309 0 
L 1241 3903 
L 1241 0 
L 628 0 
L 628 4666 
z
" transform="scale(0.015625)"/>
      </defs>
      <use xlink:href="#DejaVuSans-44"/>
      <use xlink:href="#DejaVuSans-72" x="77.001953"/>
      <use xlink:href="#DejaVuSans-65" x="115.865234"/>
      <use xlink:href="#DejaVuSans-68" x="177.388672"/>
      <use xlink:href="#DejaVuSans-6d" x="240.767578"/>
      <use xlink:href="#DejaVuSans-6f" x="338.179688"/>
      <use xlink:href="#DejaVuSans-6d" x="399.361328"/>
      <use xlink:href="#DejaVuSans-65" x="496.773438"/>
      <use xlink:href="#DejaVuSans-6e" x="558.296875"/>
      <use xlink:href="#DejaVuSans-74" x="621.675781"/>
      <use xlink:href="#DejaVuSans-20" x="660.884766"/>
      <use xlink:href="#DejaVuSans-5b" x="692.671875"/>
      <use xlink:href="#DejaVuSans-4e" x="731.685547"/>
      <use xlink:href="#DejaVuSans-6d" x="806.490234"/>
      <use xlink:href="#DejaVuSans-5d" x="903.902344"/>
     </g>
    </g>
   </g>
   <g id="line2d_35">
    <path d="M 48.043438 140.088586 
L 189.500424 140.085959 
L 195.334345 140.088805 
L 216.329015 140.087188 
L 228.317598 140.089442 
L 232.789101 140.087446 
L 233.094882 238.607633 
L 233.272676 223.671799 
L 233.588838 233.095279 
L 233.801805 277.92 
L 235.054581 168.479269 
L 235.291655 160.660654 
L 235.529414 147.98214 
L 235.767442 148.07077 
L 236.066166 143.006053 
L 236.247977 128.684881 
L 236.544772 129.449347 
L 236.725076 134.78807 
L 236.963452 134.542222 
L 237.019864 136.949529 
L 237.258018 130.494877 
L 237.497522 127.053127 
L 237.734776 136.258173 
L 238.032558 128.052275 
L 238.271577 127.677485 
L 238.752332 138.68444 
L 239.048246 140.107826 
L 239.407285 140.109562 
L 239.539253 140.229756 
L 239.713694 148.492865 
L 239.949421 143.027914 
L 240.246564 132.359797 
L 240.485726 145.997426 
L 240.782988 136.981511 
L 241.170772 133.209736 
L 241.204344 123.774729 
L 241.67745 138.420606 
L 241.856682 150.613233 
L 241.975134 131.573371 
L 242.456609 140.897227 
L 242.749076 149.947521 
L 242.92851 139.817267 
L 243.167287 139.862474 
L 243.405192 147.792332 
L 243.704298 128.579164 
L 244.000496 145.610049 
L 244.418102 135.145642 
L 244.656605 134.666536 
L 244.97329 138.171013 
L 245.267575 134.772162 
L 245.447382 143.61956 
L 245.625104 132.722613 
L 245.924842 131.378909 
L 246.161912 144.852954 
L 246.460464 146.134337 
L 246.698449 140.616749 
L 246.936328 148.613365 
L 247.235648 147.719794 
L 247.415527 132.377202 
L 247.831159 140.553969 
L 247.891385 136.380619 
L 248.129889 135.513766 
L 248.36908 130.882807 
L 248.605693 149.131129 
L 248.845936 147.168064 
L 249.089707 144.149469 
L 249.381404 148.299912 
L 249.563862 131.329274 
L 249.857806 141.067293 
L 250.155176 142.99816 
L 250.334422 149.023817 
L 250.692464 136.655957 
L 251.109963 143.257724 
L 251.585521 136.698052 
L 251.884687 140.57896 
L 252.182371 140.479901 
L 252.480468 142.875236 
L 252.65944 135.627057 
L 252.956685 131.713654 
L 253.080046 138.673139 
L 253.377187 137.49337 
L 253.6123 138.220345 
L 253.794192 141.01431 
L 254.072462 141.512557 
L 254.300724 137.270802 
L 254.539409 138.901716 
L 255.044494 145.527541 
L 255.282447 145.558082 
L 255.743351 140.764676 
L 255.878567 126.496719 
L 256.001441 130.903673 
L 256.295419 145.481476 
L 256.772888 129.975106 
L 257.010151 147.37073 
L 257.248701 139.525022 
L 257.665953 133.352428 
L 257.904322 134.799976 
L 258.08388 129.828911 
L 258.389314 151.101774 
L 258.561472 135.089446 
L 258.759606 140.352783 
L 259.071442 138.159555 
L 259.337619 140.854702 
L 259.457845 139.031008 
L 259.717407 137.830038 
L 259.995184 141.940212 
L 260.233705 139.181125 
L 260.530863 141.942289 
L 260.711781 144.961442 
L 261.007342 144.978721 
L 261.246521 147.999473 
L 261.544662 143.857615 
L 261.78449 143.310938 
L 261.966383 149.877164 
L 262.201335 145.880993 
L 262.499099 138.389647 
L 262.678053 140.248961 
L 262.977887 147.209202 
L 263.273447 142.277895 
L 263.453424 144.419403 
L 263.691659 139.317197 
L 263.930978 130.906258 
L 264.170573 139.135815 
L 264.406796 152.164306 
L 264.82382 125.459557 
L 265.181805 143.123588 
L 265.242956 141.449868 
L 265.419861 143.578712 
L 265.658881 134.961056 
L 265.897625 135.840442 
L 266.137338 145.684405 
L 266.554198 147.746746 
L 266.675221 136.780611 
L 267.151285 146.033166 
L 267.388676 140.184282 
L 267.745715 135.3495 
L 267.985757 146.354387 
L 268.40045 130.695078 
L 268.698839 136.329124 
L 269.028542 137.951811 
L 269.270772 140.277188 
L 269.416652 151.211797 
L 269.713858 136.772413 
L 270.489954 161.680142 
L 270.863587 139.410343 
L 271.030692 137.837911 
L 271.14343 135.561736 
L 271.627188 140.812618 
L 271.86941 136.156679 
L 272.096845 139.78754 
L 272.334824 138.710274 
L 272.692398 128.692342 
L 272.871462 140.478607 
L 273.288325 149.762325 
L 273.407526 144.861081 
L 273.646022 146.140911 
L 273.826474 134.083874 
L 274.183828 146.460696 
L 274.422586 144.086047 
L 274.599489 145.518179 
L 275.255398 132.476573 
L 275.496237 133.429313 
L 275.732573 145.198897 
L 275.792799 142.480126 
L 276.030435 139.143291 
L 276.329084 140.512799 
L 276.635045 139.730137 
L 276.865454 138.551861 
L 277.104247 148.952272 
L 277.300478 142.286608 
L 277.640126 138.651966 
L 277.878636 137.862686 
L 278.073416 140.156479 
L 278.297398 140.380421 
L 278.557792 139.636382 
L 278.774269 132.890275 
L 279.071258 130.123467 
L 279.428003 133.518705 
L 279.666356 133.708128 
L 279.785757 140.381455 
L 280.202591 142.113017 
L 280.501022 137.967756 
L 280.859213 134.507245 
L 281.102278 145.493034 
L 281.276437 134.098173 
L 281.515658 143.50525 
L 281.995137 134.230986 
L 282.230048 147.997671 
L 282.468586 131.787025 
L 282.715955 136.035373 
L 283.183941 141.072916 
L 283.759997 143.829517 
L 284.198888 139.15522 
L 284.386186 141.106679 
L 284.578272 140.663384 
L 284.854199 144.223766 
L 284.978476 135.263381 
L 285.332253 135.851207 
L 285.454015 142.870386 
L 285.748835 144.378484 
L 285.934414 134.072868 
L 286.352951 140.641108 
L 286.589703 129.574001 
L 286.702708 137.315831 
L 287.131094 144.27698 
L 287.3197 135.873012 
L 287.479666 147.064297 
L 287.661155 149.418721 
L 288.016406 130.399475 
L 288.165116 140.206453 
L 288.496372 134.512733 
L 288.734477 135.830994 
L 288.971798 147.138409 
L 289.152957 131.144532 
L 289.448181 142.760975 
L 289.627584 141.037648 
L 289.92555 150.801523 
L 290.164434 140.032037 
L 290.52109 142.199394 
L 290.700725 142.044822 
L 290.997767 138.418767 
L 291.134696 132.444405 
L 291.414553 144.869073 
L 291.59724 134.187071 
L 291.654282 145.279942 
L 291.892106 140.467891 
L 292.074356 142.56979 
L 292.36906 143.01691 
L 292.60899 144.751291 
L 292.846963 141.950971 
L 293.204945 152.303735 
L 293.502542 141.332897 
L 293.629472 131.189223 
L 294.10396 145.727869 
L 294.397026 147.424209 
L 294.57525 135.345673 
L 294.816882 141.580094 
L 295.231061 142.320227 
L 295.589408 149.454058 
L 295.83282 146.752063 
L 296.067312 134.870223 
L 296.310038 137.681866 
L 296.547872 127.897105 
L 296.803046 143.927449 
L 297.024731 133.09176 
L 297.383215 141.436772 
L 297.565134 153.306757 
L 297.8 143.458535 
L 298.038147 149.841451 
L 298.276844 147.75146 
L 298.575671 139.931617 
L 298.781395 139.032117 
L 298.995694 150.333042 
L 299.351773 146.996283 
L 299.768329 155.20287 
L 299.888258 139.681354 
L 300.006504 151.880492 
L 300.423988 132.228403 
L 300.48938 151.350734 
L 300.766113 144.297663 
L 301.036153 131.641831 
L 301.220461 144.315086 
L 301.675275 127.227306 
L 301.735601 147.400447 
L 301.973201 146.758064 
L 302.509907 137.554822 
L 302.74818 138.905329 
L 303.045608 143.487545 
L 303.229684 139.679796 
L 303.464854 129.915171 
L 303.761772 126.170394 
L 304.007199 136.429093 
L 304.239622 125.97873 
L 304.418943 140.229625 
L 304.714286 135.088617 
L 304.953325 147.084843 
L 305.257856 150.715878 
L 305.488728 131.317274 
L 305.966997 145.105975 
L 306.148256 144.589874 
L 306.502476 141.303605 
L 306.692939 136.015923 
L 306.979599 146.821971 
L 307.161068 134.32304 
L 307.470513 143.52231 
L 307.63599 140.922418 
L 307.87609 144.169474 
L 308.173334 134.885011 
L 308.410861 143.973817 
L 308.649061 142.526071 
L 309.36784 146.144418 
L 309.723399 132.900164 
L 309.90233 144.967282 
L 310.140791 137.324649 
L 310.3948 145.737743 
L 310.62039 136.097299 
L 311.034674 157.791208 
L 311.153953 143.969807 
L 311.45188 157.764326 
L 311.631185 138.813603 
L 312.167024 145.370189 
L 312.347385 155.255181 
L 312.584511 142.012555 
L 312.881949 141.995819 
L 313.085655 139.244106 
L 313.366743 144.755238 
L 313.659736 141.343982 
L 313.957035 140.733902 
L 314.136298 146.576712 
L 314.493495 142.034831 
L 314.792857 135.764229 
L 314.851355 140.167318 
L 315.089227 142.46339 
L 315.387082 137.855876 
L 315.569685 143.231756 
L 315.925908 142.230146 
L 316.102652 131.171192 
L 316.342134 136.884154 
L 316.536649 144.275155 
L 316.822369 142.463686 
L 317.440671 140.628043 
L 317.608596 142.013479 
L 317.839751 134.647192 
L 318.078522 151.605941 
L 318.379873 139.663957 
L 318.627359 140.07019 
L 318.854174 138.545703 
L 318.996104 139.888584 
L 319.470936 137.151822 
L 319.542439 137.531811 
L 319.829835 146.40793 
L 320.067896 133.653827 
L 320.248628 149.834255 
L 320.604399 143.125214 
L 321.152208 155.5682 
L 321.322152 135.918771 
L 321.558312 137.337445 
L 321.915944 153.975165 
L 322.042372 142.399849 
L 322.273602 141.023799 
L 322.630849 140.613451 
L 322.753263 0.72 
L 323.346117 19.933412 
L 323.776403 106.917525 
L 324.120775 109.692847 
L 324.242439 125.521003 
L 324.479513 136.681326 
L 325.223216 145.421812 
L 325.557608 144.603301 
L 325.874815 142.622569 
L 325.992659 162.492817 
L 326.235929 146.736843 
L 326.53619 155.822157 
L 326.650652 141.17218 
L 326.95152 145.964789 
L 327.303906 139.83223 
L 327.60117 139.851305 
L 327.720727 139.467929 
L 327.899814 136.224015 
L 328.259552 149.213632 
L 328.499711 148.656059 
L 329.038515 131.860384 
L 329.15549 139.126169 
L 329.451103 127.706932 
L 329.688885 138.362781 
L 330.165356 142.891319 
L 330.405432 140.126076 
L 330.642632 151.783606 
L 330.88095 143.532254 
L 331.124923 141.723592 
L 331.41869 154.809967 
L 331.897831 140.855439 
L 332.132633 138.974924 
L 332.381104 140.809253 
L 332.610677 139.756673 
L 332.851116 139.805514 
L 333.089166 130.834909 
L 333.504528 131.721521 
L 333.624373 141.092786 
L 334.044815 134.405924 
L 334.110296 147.057612 
L 334.342782 139.421488 
L 334.994959 140.342543 
L 335.173952 142.172662 
L 335.352676 139.228563 
L 335.592107 149.754209 
L 335.835208 147.572044 
L 336.071383 141.489829 
L 336.392988 145.621979 
L 336.78293 138.246438 
L 336.842578 142.096726 
L 337.08126 139.510708 
L 337.319611 140.276631 
L 337.560851 138.194971 
L 337.79713 139.567818 
L 338.0361 149.957505 
L 338.334871 134.013603 
L 338.712441 140.6738 
L 338.815958 135.407555 
L 339.048962 130.896982 
L 339.286099 146.502035 
L 339.703566 139.941449 
L 339.822889 140.123172 
L 340.121573 140.260482 
L 340.301919 134.694129 
L 340.597698 139.085743 
L 340.853048 133.049974 
L 341.338883 143.226365 
L 341.559444 137.603214 
L 342.028544 139.154268 
L 342.266023 137.480327 
L 342.56489 140.170309 
L 342.808346 136.646197 
L 343.043362 135.464005 
L 343.282042 142.025514 
L 343.521129 139.500886 
L 343.76667 134.462687 
L 344.121717 145.249954 
L 344.56356 139.069313 
L 344.772093 139.44274 
L 345.250289 130.6598 
L 345.512543 133.468375 
L 345.725477 142.255614 
L 345.964103 142.867882 
L 346.204078 142.752789 
L 346.441551 137.377193 
L 346.85821 140.768884 
L 346.978053 143.340355 
L 347.277079 137.961416 
L 347.457441 140.125641 
L 347.701983 149.552454 
L 348.085395 134.568579 
L 348.198716 142.293331 
L 348.484858 140.043062 
L 348.531919 138.70025 
L 348.831655 149.739454 
L 348.950673 138.437929 
L 349.366436 139.780045 
L 349.485769 138.960663 
L 349.663905 140.100074 
L 349.962172 143.658243 
L 350.260353 132.545539 
L 350.439066 138.338196 
L 350.677405 140.467709 
L 350.916062 138.868667 
L 351.155629 142.892604 
L 351.457807 135.585171 
L 351.632457 135.366074 
L 351.930842 143.07989 
L 352.133172 140.932034 
L 352.40634 140.325292 
L 352.764819 132.155863 
L 352.904956 140.12744 
L 353.122831 140.124593 
L 353.36025 141.158107 
L 353.777325 139.394909 
L 353.896099 143.074404 
L 354.375676 137.046886 
L 354.614064 139.228139 
L 354.921906 137.938572 
L 355.150156 135.528447 
L 355.33403 145.467814 
L 355.625544 138.392049 
L 355.927167 138.45512 
L 356.16389 146.743879 
L 356.341322 135.787022 
L 356.587507 140.802975 
L 356.877148 142.773675 
L 357.17422 141.081522 
L 357.353176 138.669938 
L 357.592351 139.938229 
L 358.011537 141.189682 
L 358.071646 139.629996 
L 358.370781 139.854315 
L 358.566256 140.305439 
L 358.790915 135.496272 
L 359.144033 140.407987 
L 359.382725 140.191392 
L 359.680253 138.25286 
L 360.097659 152.279107 
L 360.395829 137.47015 
L 360.57416 138.422641 
L 360.81314 140.427236 
L 361.050878 150.062197 
L 361.408175 130.517362 
L 361.588807 141.490247 
L 361.886035 137.1469 
L 362.18395 141.262057 
L 362.303824 138.968487 
L 362.542256 131.512681 
L 362.898861 141.954953 
L 363.317921 140.820409 
L 363.732693 148.246993 
L 364.030785 135.1706 
L 364.269794 140.238677 
L 364.507767 139.205617 
L 364.806345 140.731677 
L 365.103991 140.12703 
L 365.231986 132.276708 
L 365.534001 140.087688 
L 365.771014 140.213648 
L 366.236189 131.625036 
L 366.655545 132.49219 
L 366.772971 142.499337 
L 366.954707 139.549453 
L 367.308649 140.799042 
L 367.607946 139.17414 
L 367.740746 136.715862 
L 368.160132 140.125443 
L 368.26738 135.862891 
L 368.505482 135.42267 
L 368.744056 141.303012 
L 368.988816 141.249917 
L 369.280486 139.982261 
L 369.459262 140.909436 
L 369.763998 137.789466 
L 370.00555 133.310626 
L 370.295139 148.325542 
L 370.416818 134.548313 
L 370.669731 139.223199 
L 370.956128 135.263453 
L 371.202299 140.463798 
L 371.427707 140.057641 
L 371.726262 138.418141 
L 371.964707 143.669105 
L 372.203279 140.675304 
L 372.490814 134.954787 
L 372.744155 149.769322 
L 372.964072 139.505226 
L 373.162628 141.335324 
L 373.456996 132.09042 
L 373.933778 139.821209 
L 374.171169 141.066057 
L 374.469795 138.746991 
L 374.648252 140.283815 
L 374.886323 138.79652 
L 375.18426 150.941897 
L 375.482207 140.759968 
L 375.661191 141.657652 
L 375.971111 132.327119 
L 376.202324 140.127199 
L 376.496485 140.126824 
L 376.678269 139.796915 
L 376.853909 138.723271 
L 377.153827 140.125681 
L 377.388778 135.884411 
L 377.705598 135.423703 
L 377.868639 142.01953 
L 378.17031 133.156861 
L 378.466905 140.167764 
L 378.65443 138.944576 
L 378.885465 139.598275 
L 379.069981 142.452259 
L 379.362383 142.072683 
L 379.780932 151.728146 
L 379.901348 137.172232 
L 380.318714 141.158859 
L 380.555843 139.430979 
L 380.85294 132.640969 
L 381.095723 138.785054 
L 381.32976 139.036672 
L 381.568449 140.698793 
L 381.866203 139.245924 
L 382.402199 133.982705 
L 382.937668 141.287527 
L 383.475075 131.813843 
L 383.533817 156.853016 
L 383.897093 141.47728 
L 384.190185 138.345391 
L 384.253065 139.160741 
L 384.621134 139.350248 
L 384.786534 140.956252 
L 385.027159 135.857933 
L 385.382051 140.818517 
L 385.561807 140.216034 
L 385.865941 136.24368 
L 386.041688 151.26709 
L 386.276533 141.415143 
L 386.815884 140.9636 
L 386.994747 130.653159 
L 387.23171 131.82817 
L 387.511515 141.713421 
L 388.008132 140.125379 
L 388.246411 140.257499 
L 388.543971 131.899867 
L 388.723412 140.33625 
L 389.082216 138.488614 
L 389.319385 145.144623 
L 389.498218 142.41057 
L 389.856101 141.353754 
L 389.975145 137.128422 
L 390.214395 137.622337 
L 390.512163 136.806771 
L 390.750047 140.553892 
L 391.107427 140.759077 
L 391.285608 139.446338 
L 391.710921 140.266602 
L 391.941802 143.63477 
L 392.18156 135.816003 
L 392.478893 141.944874 
L 392.657267 138.757786 
L 392.955403 140.717112 
L 393.193816 140.172935 
L 393.431897 133.743202 
L 393.670797 140.916294 
L 393.908465 142.198227 
L 394.682593 132.03643 
L 394.982687 139.788178 
L 395.278404 140.830486 
L 395.522953 146.379526 
L 395.695566 133.387636 
L 396.113106 140.343164 
L 396.173708 139.642551 
L 396.412578 139.066332 
L 396.828749 140.260558 
L 396.948983 130.457498 
L 397.244784 146.672088 
L 397.42436 139.441969 
L 397.662185 139.72834 
L 397.901197 132.546875 
L 398.377365 140.355931 
L 398.619321 141.490908 
L 398.914034 139.609751 
L 399.213694 140.209498 
L 399.272533 140.705197 
L 399.392135 140.126499 
L 399.749764 140.126955 
L 399.868059 136.154208 
L 400.107343 141.429746 
L 400.406858 151.717038 
L 401.119019 140.477529 
L 401.497457 140.397082 
L 401.602039 139.43412 
L 401.834988 144.515633 
L 402.07471 133.566889 
L 402.373037 138.087797 
L 402.554912 140.98805 
L 402.968472 132.5 
L 403.192075 146.076691 
L 403.326417 141.319895 
L 403.564232 141.303045 
L 403.802598 140.633476 
L 404.047816 140.865271 
L 404.338797 141.53606 
L 404.697164 138.175466 
L 404.816178 133.540497 
L 405.114673 137.525078 
L 405.358067 138.610603 
L 405.591382 136.048901 
L 405.829632 138.91127 
L 406.009313 139.349383 
L 406.250043 141.043042 
L 406.547122 141.731612 
L 406.783485 140.919625 
L 407.021449 134.499362 
L 407.379754 140.30003 
L 407.558105 137.827951 
L 407.796504 139.411802 
L 408.034594 132.620948 
L 408.273407 140.254265 
L 408.572809 140.755235 
L 408.930305 138.254683 
L 409.169966 137.976413 
L 409.407748 148.864043 
L 409.526768 134.548763 
L 410.005374 142.094276 
L 410.250871 136.46867 
L 410.540931 134.596223 
L 410.78142 141.334024 
L 411.017266 142.202959 
L 411.31614 139.184368 
L 411.49573 141.072647 
L 411.794313 150.888073 
L 411.971969 135.491526 
L 412.21026 140.797023 
L 412.449151 140.021312 
L 412.746957 137.852642 
L 412.938247 147.92146 
L 413.174214 140.539851 
L 413.463176 138.810164 
L 413.943131 141.856262 
L 414.181937 137.325979 
L 414.488512 149.478084 
L 414.716294 139.542679 
L 414.925729 141.580895 
L 415.193305 142.723621 
L 415.435042 150.731598 
L 415.673261 141.08733 
L 415.967186 141.377565 
L 416.207938 138.089702 
L 416.503848 139.498271 
L 416.684738 152.783903 
L 416.921516 150.983446 
L 417.160618 138.778527 
L 417.401426 139.761065 
L 417.758447 136.541457 
L 417.938988 152.404965 
L 418.177132 140.276357 
L 418.458623 139.972635 
L 418.775313 141.785095 
L 419.01126 134.608623 
L 419.130347 149.30669 
L 419.369638 150.421628 
L 419.666972 138.839585 
L 419.966545 139.373354 
L 420.14664 142.616197 
L 420.384999 137.108205 
L 420.683777 139.958828 
L 420.861027 139.019084 
L 421.160268 139.299079 
L 421.397834 142.990698 
L 421.63684 131.64918 
L 422.053314 140.126491 
L 422.126085 138.782183 
L 422.412205 140.456939 
L 422.602968 143.858935 
L 422.997382 134.24032 
L 423.125444 143.052496 
L 423.355385 140.217029 
L 423.655455 138.922373 
L 424.013306 139.27118 
L 424.074208 132.463477 
L 424.370911 141.971701 
L 424.608663 141.732001 
L 424.850349 140.632559 
L 425.100289 140.124939 
L 425.503855 141.941469 
L 425.563823 141.283951 
L 425.862206 142.198644 
L 426.104552 139.888441 
L 426.345773 144.580394 
L 426.542896 137.048855 
L 426.817332 144.569626 
L 427.297576 139.539475 
L 427.595089 138.569716 
L 428.01235 140.340631 
L 428.071568 139.43621 
L 428.311056 143.045621 
L 428.667293 140.769117 
L 428.845904 134.666336 
L 429.028208 134.897897 
L 429.264702 133.527823 
L 429.503189 139.628153 
L 429.822062 140.174499 
L 430.042142 139.344914 
L 430.27864 146.296158 
L 430.515682 139.716462 
L 430.754753 140.628442 
L 431.052851 139.688407 
L 431.233874 141.445572 
L 431.766437 143.246194 
L 431.774949 70.13397 
L 432.009586 141.18722 
L 432.365839 133.029079 
L 432.545614 135.869875 
L 432.792752 136.149891 
L 433.024963 141.073842 
L 433.381603 141.249462 
L 433.501204 135.3263 
L 433.685946 140.98981 
L 433.977675 142.544885 
L 434.216333 140.125646 
L 434.455833 140.670277 
L 434.69568 142.395333 
L 435.115298 151.743515 
L 435.169911 132.358025 
L 435.529062 139.749616 
L 435.712652 139.113128 
L 435.947165 140.196394 
L 436.186095 140.391488 
L 436.605724 139.955912 
L 436.730702 136.260118 
L 436.986024 140.962301 
L 437.199791 133.070285 
L 437.447065 134.027577 
L 437.498713 142.731126 
L 437.737605 146.349399 
L 437.977034 140.099935 
L 438.15977 142.587223 
L 438.396525 139.704293 
L 438.691947 140.026185 
L 439.168707 152.741561 
L 439.645475 130.830177 
L 439.884947 130.048016 
L 440.444448 140.357784 
L 440.662608 140.760941 
L 440.898277 181.725595 
L 441.138148 183.3932 
L 441.384122 168.590886 
L 441.636282 162.373933 
L 441.868669 160.828608 
L 442.102522 160.785136 
L 442.361862 149.263562 
L 443.134656 140.327037 
L 443.419055 142.827085 
L 443.662301 139.333802 
L 443.955233 139.43796 
L 444.075574 135.468581 
L 444.316798 137.423155 
L 444.739489 132.365623 
L 444.858706 140.401281 
L 445.090545 139.928743 
L 445.333641 138.273807 
L 445.704207 144.17645 
L 445.864967 141.773369 
L 446.167924 142.638852 
L 446.402778 140.950082 
L 446.640891 137.389988 
L 446.941348 146.304185 
L 447.18078 133.231874 
L 447.783037 149.732542 
L 448.04832 142.910314 
L 448.319201 145.142288 
L 448.634474 140.221143 
L 448.800116 130.333424 
L 449.150079 139.638494 
L 449.354348 136.328708 
L 449.568271 142.365997 
L 449.867482 139.568467 
L 450.045867 143.24651 
L 450.284394 144.1996 
L 450.526228 142.885023 
L 450.901074 136.200703 
L 451.001214 138.073759 
L 451.35818 140.976489 
L 451.537207 143.917114 
L 452.017006 135.750822 
L 452.422713 144.48502 
L 452.660268 143.284 
L 452.84762 146.109756 
L 453.078023 128.661594 
L 453.375989 145.987168 
L 453.73459 142.870949 
L 454.211366 135.076181 
L 454.570231 148.159576 
L 454.751765 145.214534 
L 455.106868 137.039142 
L 455.232475 151.645227 
L 455.763631 139.299322 
L 456.002115 142.608383 
L 456.244154 137.652462 
L 456.480105 139.277875 
L 456.723057 143.306846 
L 456.958025 141.279885 
L 457.19676 134.831888 
L 457.445517 143.350298 
L 457.678992 137.90155 
L 457.977963 144.347468 
L 458.165892 141.243345 
L 458.69335 142.661708 
L 458.932814 136.063627 
L 459.348968 143.666436 
L 459.436745 141.501281 
L 459.707675 146.14105 
L 460.004695 146.321461 
L 460.302567 140.717537 
L 460.482715 144.073166 
L 460.721144 135.357891 
L 460.966527 142.487402 
L 461.199278 142.053697 
L 461.617982 147.24381 
L 461.86734 138.333931 
L 462.153798 144.876894 
L 462.40547 143.167059 
L 462.638724 135.328691 
L 463.010307 142.054399 
L 463.173427 135.488156 
L 463.349944 146.259465 
L 463.674991 147.930376 
L 463.885826 135.067254 
L 464.306231 142.045548 
L 464.387752 140.006973 
L 464.612494 145.596323 
L 464.841352 140.300774 
L 465.080478 140.336736 
L 465.50196 144.120347 
L 465.691373 149.248465 
L 466.10753 134.307423 
L 466.524659 141.888557 
L 466.585318 138.492121 
L 467.241582 144.938618 
L 467.303111 143.969332 
L 467.716871 134.864596 
L 467.836359 147.791966 
L 468.076396 140.359621 
L 468.313362 143.695745 
L 468.730505 140.168246 
L 468.8499 143.264713 
L 469.088937 141.051226 
L 469.333154 141.253318 
L 469.387424 144.136222 
L 469.567608 139.762677 
L 469.805019 129.520747 
L 470.046172 144.868744 
L 470.341974 146.386788 
L 470.521822 142.708587 
L 470.841508 142.791494 
L 471.001758 146.811593 
L 471.300301 133.905156 
L 471.538292 144.737977 
L 471.780636 140.594562 
L 472.076484 146.734838 
L 472.494986 138.866925 
L 472.793269 144.668699 
L 472.979762 140.659165 
L 473.389218 139.86688 
L 473.536376 144.188513 
L 473.750649 143.884882 
L 474.00891 142.25696 
L 474.224605 142.893633 
L 474.463968 146.97421 
L 474.711329 143.985342 
L 475.010302 137.601484 
L 475.251414 143.988362 
L 475.549978 145.667569 
L 475.784542 143.838541 
L 476.024244 142.851792 
L 476.20381 147.072918 
L 476.502033 143.374139 
L 476.739859 144.838599 
L 477.137663 142.37355 
L 477.285052 145.804523 
L 477.46167 135.362891 
L 477.994882 146.564682 
L 478.301791 141.628719 
L 478.471812 146.990534 
L 478.720108 144.474546 
L 479.083086 146.391254 
L 479.190045 149.266232 
L 479.433996 149.859359 
L 479.66896 140.574045 
L 479.976014 139.549141 
L 480.223762 142.901056 
L 480.447343 141.082843 
L 480.684364 142.409658 
L 480.930442 138.638037 
L 481.405849 146.612212 
L 481.702345 147.296575 
L 481.997411 144.308819 
L 482.176811 147.432089 
L 482.594701 140.681432 
L 482.94086 144.802843 
L 483.408822 142.904462 
L 483.710888 151.072855 
L 483.895493 138.684177 
L 484.186052 139.716835 
L 484.490452 144.733465 
L 484.666279 137.222505 
L 485.14221 146.178903 
L 485.619954 136.862353 
L 485.857686 137.31649 
L 486.096557 146.581687 
L 486.336087 134.73938 
L 486.753083 138.305214 
L 486.902217 151.568097 
L 487.290571 140.173577 
L 487.409453 146.852175 
L 487.648028 140.231321 
L 487.886487 147.413252 
L 488.184151 140.405383 
L 488.316363 144.759317 
L 488.575846 146.640952 
L 488.845862 137.476957 
L 489.140853 141.573866 
L 489.339499 139.573221 
L 489.559275 140.276745 
L 489.799962 150.83821 
L 490.179772 146.600173 
L 490.33788 148.539619 
L 490.573483 137.472775 
L 490.841485 144.723426 
L 491.135087 144.466873 
L 491.357792 145.402321 
L 491.652827 139.848076 
L 492.080735 149.738964 
L 492.336782 140.553329 
L 492.627664 145.748439 
L 492.749249 137.728456 
L 493.041502 145.492063 
L 493.339803 148.541172 
L 493.637898 144.400956 
L 493.757412 147.919144 
L 494.055301 143.796272 
L 494.30173 134.169255 
L 494.771509 147.662958 
L 495.011347 149.152135 
L 495.309445 146.084253 
L 495.547981 141.979941 
L 495.788604 142.24871 
L 496.023953 144.535117 
L 496.262324 142.160453 
L 496.50185 145.973815 
L 496.747139 145.074318 
L 496.980984 144.970121 
L 497.217873 146.076604 
L 497.578079 142.240962 
L 497.755141 137.882346 
L 497.995963 146.084698 
L 498.292338 141.594757 
L 498.828802 146.62387 
L 499.080944 147.567337 
L 499.247397 146.576069 
L 499.545716 147.667872 
L 499.783521 144.028459 
L 500.224478 147.431985 
L 500.440377 147.140411 
L 500.742243 145.931877 
L 501.035198 151.229522 
L 501.281977 144.10049 
L 501.453912 143.689989 
L 501.694831 147.811383 
L 501.93097 143.630817 
L 502.24643 148.709197 
L 502.425409 147.565186 
L 502.663553 151.401158 
L 503.14164 152.204547 
L 503.201615 145.553308 
L 503.499435 151.949926 
L 503.681834 147.592979 
L 503.921263 145.555948 
L 504.154928 145.574912 
L 504.452767 142.845132 
L 504.633267 137.656225 
L 504.932187 145.325222 
L 505.228687 144.374532 
L 505.407236 146.673787 
L 505.710019 144.836379 
L 505.947961 148.533095 
L 506.184788 137.882519 
L 506.662672 145.924783 
L 506.868055 142.548848 
L 507.143433 144.187293 
L 507.487916 148.993419 
L 507.92516 142.533299 
L 508.162277 144.312681 
L 508.401209 138.505629 
L 508.878038 148.069354 
L 509.116996 144.316016 
L 509.358233 143.27928 
L 509.654113 138.899624 
L 509.833807 147.480977 
L 510.149829 146.230952 
L 510.190906 149.94876 
L 510.369709 152.515311 
L 510.670956 138.892783 
L 510.96658 147.868885 
L 511.145019 148.070141 
L 511.625673 143.908558 
L 511.683477 138.96999 
L 511.861744 145.256723 
L 512.10643 147.765549 
L 512.591907 146.279169 
L 512.816535 149.039146 
L 513.056118 141.565953 
L 513.41318 142.399564 
L 513.592032 149.73432 
L 513.770513 144.100611 
L 514.19072 150.579361 
L 514.248194 142.096375 
L 514.610111 143.849119 
L 514.852332 141.327343 
L 515.088584 145.609973 
L 515.322875 145.86932 
L 515.560893 146.596173 
L 515.806668 151.28313 
L 516.110497 143.061158 
L 516.287382 147.310097 
L 516.533932 147.183825 
L 516.771998 150.326013 
L 517.015959 145.200689 
L 517.248657 146.107974 
L 517.546519 140.259947 
L 517.730983 149.648488 
L 518.025818 138.705774 
L 518.327717 155.900499 
L 518.560485 138.521142 
L 518.815993 137.140215 
L 519.039137 153.879354 
L 519.462602 144.60436 
L 519.515355 148.386186 
L 519.753795 143.500548 
L 520.171871 148.006404 
L 520.232271 147.360379 
L 520.472901 149.26725 
L 520.967766 144.869954 
L 521.272382 147.352352 
L 521.486555 142.374521 
L 521.7432 147.445945 
L 521.964345 146.177648 
L 522.203552 141.113228 
L 522.443294 155.151357 
L 522.755288 140.045058 
L 523.159706 153.521636 
L 523.220975 146.894403 
L 523.456188 151.859853 
L 523.938995 145.834915 
L 524.112164 145.805614 
L 524.243794 151.20055 
L 524.431143 146.504364 
L 524.788494 153.462432 
L 525.00911 148.68078 
L 525.230797 149.075863 
L 525.459064 144.623022 
L 525.698205 144.457718 
L 525.940867 141.071979 
L 526.303138 152.927287 
L 526.462837 147.425423 
L 526.700153 149.673595 
L 527.057135 150.272787 
L 527.243308 145.477326 
L 527.418826 151.424938 
L 527.713793 153.279891 
L 528.021114 147.126614 
L 528.193748 146.608179 
L 528.492333 152.409567 
L 528.670726 147.128783 
L 528.929074 146.061045 
L 529.265892 148.428764 
L 529.400665 143.270756 
L 529.682397 138.676145 
L 529.980224 117.516323 
L 530.162524 129.970197 
L 530.400089 119.727995 
L 530.655828 130.064978 
L 530.935695 125.838217 
L 531.178326 132.843883 
L 531.414305 136.277847 
L 531.657867 131.732747 
L 531.904363 143.25756 
L 532.368557 150.456054 
L 532.807248 150.55744 
L 533.038451 148.429281 
L 533.384336 150.584268 
L 533.671659 148.352726 
L 533.921404 148.40535 
L 534.397683 146.686157 
L 534.457425 147.196842 
L 534.816184 147.42903 
L 534.944052 146.66447 
L 535.354813 147.434655 
L 535.85664 147.734544 
L 535.969366 147.578594 
L 536.137614 147.739318 
L 537.45171 147.760907 
L 537.822875 147.916432 
L 538.227016 147.806005 
L 538.470575 148.071485 
L 538.707326 147.744117 
L 538.825564 147.925639 
L 539.074042 147.751694 
L 540.802752 147.733047 
L 541.161746 147.772941 
L 541.541743 147.708442 
L 542.248917 147.765299 
L 542.480321 147.722436 
L 542.776435 147.882691 
L 543.010774 147.665318 
L 543.487079 147.767295 
L 543.991628 147.738163 
L 549.934262 147.765271 
L 551.373327 147.762563 
L 606.043437 147.763961 
L 606.043437 147.763961 
" clip-path="url(#p587ea044ce)" style="fill: none; stroke: #0000ff; stroke-opacity: 0.7; stroke-width: 1.5; stroke-linecap: square"/>
   </g>
   <g id="line2d_36">
    <path d="M 48.043438 134.108935 
L 48.163541 133.829046 
L 48.406429 134.157047 
L 48.477625 134.551468 
L 48.651642 133.340994 
L 48.957686 134.007342 
L 49.248221 134.079788 
L 49.426508 133.911278 
L 49.843416 134.311864 
L 50.082471 133.505426 
L 50.14217 133.613634 
L 50.559509 133.969979 
L 50.917439 134.036347 
L 51.099823 133.975131 
L 51.574032 134.084417 
L 51.632128 134.313759 
L 51.870208 134.565545 
L 52.169497 134.125568 
L 52.46868 134.813596 
L 52.70472 134.065913 
L 53.360508 134.061669 
L 53.601071 134.808028 
L 53.84156 133.676381 
L 54.139978 133.931876 
L 54.374672 133.505471 
L 54.612855 134.261308 
L 54.911674 133.366734 
L 55.397637 133.279371 
L 55.715421 134.088027 
L 55.869512 133.551515 
L 56.107674 133.217173 
L 56.346397 133.317435 
L 56.765381 133.166984 
L 56.946132 134.019799 
L 57.061998 133.472369 
L 57.306806 134.303359 
L 57.544118 133.966984 
L 57.78479 134.473922 
L 58.077538 134.538705 
L 58.681315 134.381475 
L 61.287421 134.492704 
L 62.591574 134.848903 
L 63.897237 134.523793 
L 65.201746 133.680087 
L 66.62603 133.984719 
L 68.049235 133.594958 
L 69.354418 134.689741 
L 69.495023 134.48697 
L 69.970944 134.778575 
L 70.20978 134.613506 
L 70.506816 134.648756 
L 70.806517 134.017925 
L 70.985927 132.872127 
L 71.22253 134.457062 
L 71.406757 134.837108 
L 71.645031 134.134025 
L 71.944625 134.918951 
L 72.476894 133.171385 
L 72.896991 135.54038 
L 73.671599 134.477848 
L 73.967274 133.5138 
L 74.266205 134.604664 
L 74.385386 134.387827 
L 74.624401 134.199635 
L 74.86446 135.073792 
L 75.400882 132.875682 
L 75.649138 133.957447 
L 75.937451 134.27516 
L 76.118819 133.45073 
L 76.417226 134.340612 
L 76.475153 133.843422 
L 76.653373 133.332927 
L 76.955001 133.119768 
L 77.129511 134.679465 
L 77.369803 134.978558 
L 77.964051 135.009971 
L 78.143154 134.721227 
L 78.324296 134.94841 
L 78.864465 134.214216 
L 79.396141 136.521227 
L 79.636276 134.608057 
L 79.879159 133.799031 
L 80.063973 135.154586 
L 80.35847 134.80502 
L 80.833306 134.005278 
L 81.130204 135.787789 
L 81.610861 134.940071 
L 81.905396 133.772491 
L 82.145442 134.324154 
L 82.323261 135.410216 
L 82.799732 135.112764 
L 82.982636 134.854709 
L 83.277898 134.774736 
L 83.336858 134.360066 
L 83.575481 133.787885 
L 83.81405 133.679389 
L 84.053002 133.72664 
L 84.350401 134.779839 
L 84.648185 134.318471 
L 84.890664 133.211096 
L 85.075326 133.18519 
L 86.320461 135.158766 
L 86.555493 134.548437 
L 86.752281 133.381707 
L 87.271748 135.739348 
L 87.748959 134.724267 
L 87.986328 134.901212 
L 88.524904 134.394244 
L 88.76202 133.905379 
L 89.001815 134.878365 
L 89.239641 135.228296 
L 89.477125 134.105549 
L 89.836754 133.025843 
L 90.252941 134.596237 
L 90.491479 133.637996 
L 90.73339 133.374696 
L 91.325943 134.952168 
L 91.453724 133.30802 
L 91.981653 134.893852 
L 92.400031 133.353453 
L 92.756372 134.229047 
L 92.935024 135.762033 
L 93.173119 135.496359 
L 93.413239 133.81833 
L 93.650481 134.095943 
L 93.951643 135.511775 
L 94.246777 134.846718 
L 94.424891 133.988727 
L 94.664522 134.538695 
L 94.901913 135.551378 
L 95.140628 135.898406 
L 95.379398 135.963915 
L 95.975148 136.422408 
L 96.272636 135.354382 
L 96.43375 134.279163 
L 96.869666 135.762237 
L 97.168247 135.209617 
L 97.644133 132.411165 
L 97.943875 132.223371 
L 98.12739 132.859397 
L 99.077057 134.560157 
L 99.449386 134.381366 
L 99.621837 133.414328 
L 100.089162 134.092275 
L 100.208672 134.718325 
L 100.446297 135.009811 
L 100.685133 135.013466 
L 100.804409 134.844161 
L 101.342453 134.564953 
L 102.055508 135.640683 
L 102.294794 135.041843 
L 102.830439 133.084925 
L 103.030379 132.997849 
L 103.545492 134.914937 
L 104.081912 133.120476 
L 104.38274 134.038131 
L 104.560082 135.15092 
L 104.798122 135.354023 
L 105.039578 135.089279 
L 105.604982 135.252642 
L 105.994687 134.370566 
L 106.113724 133.550397 
L 106.169477 133.62901 
L 106.235375 134.618773 
L 106.530374 134.999084 
L 107.030485 132.332057 
L 107.320538 133.064332 
L 107.743356 135.563246 
L 108.019575 134.937296 
L 108.258154 133.759507 
L 108.566223 134.542322 
L 108.866078 134.928799 
L 109.122285 133.896244 
L 109.33629 134.163583 
L 109.931625 135.703277 
L 110.066869 136.588543 
L 111.409026 134.557109 
L 112.706267 134.652778 
L 114.134986 134.069715 
L 114.214184 134.644865 
L 114.632175 131.38574 
L 114.994737 130.768042 
L 115.228508 131.211896 
L 115.967435 134.162461 
L 116.22927 133.524076 
L 116.630593 131.873287 
L 116.928623 132.010045 
L 117.228793 133.004412 
L 117.405599 134.386961 
L 117.705159 135.155836 
L 117.888431 134.971586 
L 118.443358 131.798319 
L 118.65852 131.784234 
L 119.017991 133.247235 
L 119.136897 135.442487 
L 119.433417 136.692092 
L 119.732886 136.144901 
L 120.094829 133.138261 
L 120.335711 132.206109 
L 120.592719 132.938754 
L 120.831595 134.437658 
L 121.117644 134.059021 
L 121.590353 132.304288 
L 121.830144 132.822806 
L 122.333192 135.672094 
L 122.865761 136.447742 
L 122.962487 136.235975 
L 123.081769 135.61545 
L 123.32891 135.446764 
L 123.633982 136.552202 
L 123.872085 136.83372 
L 124.576676 132.766571 
L 124.854444 132.989624 
L 125.477724 134.167737 
L 125.54269 135.00521 
L 125.756701 134.713023 
L 125.844475 133.299191 
L 126.016416 132.870723 
L 126.32353 133.346006 
L 126.671521 133.359742 
L 127.564764 134.524459 
L 127.746881 134.511476 
L 127.991096 134.220832 
L 128.468649 135.262797 
L 128.830124 134.59404 
L 129.064103 134.565336 
L 129.485803 136.609594 
L 129.839237 135.699703 
L 130.256528 133.703203 
L 130.463725 135.153973 
L 130.734726 135.327513 
L 130.974011 134.07283 
L 131.211813 133.603435 
L 131.452892 134.148333 
L 131.69044 134.380659 
L 132.165421 134.572183 
L 132.23115 135.297746 
L 132.476587 136.107961 
L 132.701547 135.72139 
L 133.238105 134.086103 
L 133.536053 135.423988 
L 133.714654 135.713506 
L 133.896315 135.233503 
L 134.190854 135.287617 
L 134.489759 134.901822 
L 134.670715 133.888895 
L 135.205931 132.535975 
L 135.688347 134.234039 
L 135.931521 133.580249 
L 136.168293 133.328437 
L 136.401315 133.829603 
L 136.641723 133.918335 
L 136.938099 133.808732 
L 137.415019 133.18519 
L 138.011232 134.064264 
L 138.130827 133.748705 
L 138.368876 133.870107 
L 138.668096 133.815991 
L 139.384637 134.131547 
L 139.62159 134.658248 
L 139.859533 134.781372 
L 140.097623 134.331429 
L 140.335707 133.501265 
L 140.930998 133.831245 
L 141.111186 133.838654 
L 141.611624 132.853846 
L 142.319071 133.257634 
L 142.621047 134.175606 
L 142.809759 135.246844 
L 143.140516 134.412059 
L 143.321868 133.616106 
L 143.589067 134.694179 
L 143.814515 136.233521 
L 144.052298 135.940545 
L 144.293161 133.95895 
L 144.528794 133.209555 
L 145.065188 135.013493 
L 145.302969 134.001473 
L 145.602222 133.4173 
L 146.078272 134.68745 
L 146.438034 133.927108 
L 146.685321 132.768091 
L 146.912558 132.987517 
L 147.036724 133.869737 
L 147.270546 134.142847 
L 147.778471 132.871316 
L 148.003381 133.222094 
L 148.362144 134.087023 
L 148.581355 133.990741 
L 148.881905 133.666835 
L 149.416968 133.774064 
L 149.537079 133.570264 
L 149.774755 133.82997 
L 150.016582 134.533657 
L 150.267748 135.712388 
L 150.552527 135.831728 
L 150.732679 134.351264 
L 151.224209 132.908068 
L 151.283855 133.060546 
L 151.760941 136.383481 
L 152.000972 137.52637 
L 152.238731 137.032643 
L 152.714582 134.332671 
L 153.011804 134.787499 
L 153.198231 136.078233 
L 153.66936 136.587719 
L 153.90629 135.774531 
L 153.96667 134.468791 
L 154.205646 133.501219 
L 154.443284 133.053554 
L 154.687872 133.777979 
L 154.92 135.552083 
L 155.219676 136.726049 
L 155.583468 135.950281 
L 155.694335 134.56547 
L 155.99259 134.741965 
L 156.425429 136.675004 
L 156.654385 135.803409 
L 156.947626 134.23303 
L 157.18552 133.605174 
L 157.422995 133.82908 
L 157.840179 134.643255 
L 157.959445 135.681042 
L 158.139042 135.658589 
L 158.616637 134.674733 
L 158.913956 134.842512 
L 159.153874 135.10733 
L 159.570397 135.100102 
L 159.630319 133.802724 
L 160.106596 131.643709 
L 160.463735 132.332738 
L 160.894508 133.556544 
L 161.416631 132.129061 
L 162.372736 136.033553 
L 162.72919 134.636155 
L 162.849856 133.468 
L 163.086305 133.932545 
L 163.461021 135.361728 
L 163.623153 136.522934 
L 164.157881 133.883477 
L 164.338034 132.893632 
L 164.574645 133.19256 
L 164.87408 134.157628 
L 165.113404 135.319271 
L 165.472515 135.515286 
L 165.829496 132.173392 
L 166.138475 131.406026 
L 166.36532 132.565727 
L 166.785547 135.896555 
L 167.023257 135.910706 
L 167.616436 133.843461 
L 168.034594 132.991316 
L 168.273576 134.975833 
L 168.569584 135.804285 
L 168.809622 135.007623 
L 169.349995 131.303625 
L 169.525049 130.413281 
L 169.763397 131.232133 
L 170.179803 133.202529 
L 170.301913 134.984392 
L 170.542811 134.625499 
L 170.776626 132.883259 
L 171.013826 132.306037 
L 171.256659 133.160658 
L 171.735616 136.147597 
L 171.970743 136.497908 
L 172.269054 135.169332 
L 172.510749 133.148812 
L 172.752705 132.300179 
L 172.990132 133.578082 
L 173.223179 135.510652 
L 173.463338 136.068385 
L 173.937876 133.442852 
L 174.296624 133.506616 
L 174.773202 134.321655 
L 174.950788 134.544773 
L 175.190165 134.24559 
L 175.429671 132.933228 
L 175.667307 132.568352 
L 176.023201 133.277176 
L 176.20185 134.323986 
L 176.440115 134.075604 
L 176.738456 132.72232 
L 176.977188 132.558763 
L 177.455175 134.229177 
L 177.693133 133.900215 
L 178.173585 133.650504 
L 178.706104 133.982212 
L 179.069961 134.050039 
L 179.241813 133.908061 
L 179.422207 133.60338 
L 179.743734 133.562037 
L 180.139143 134.20131 
L 180.972743 132.936698 
L 181.441206 133.286164 
L 181.687493 133.278068 
L 182.1105 133.701198 
L 182.646973 132.823648 
L 183.248013 134.561997 
L 183.358395 133.815321 
L 183.718382 132.343031 
L 184.076408 134.561878 
L 184.454575 134.224888 
L 184.614559 132.849723 
L 184.851168 132.729879 
L 185.327749 135.157412 
L 185.626307 134.759108 
L 185.86428 133.682695 
L 186.120327 134.566631 
L 186.462792 134.703542 
L 186.590248 133.608706 
L 186.87734 133.084253 
L 187.189024 133.702197 
L 187.296338 134.993422 
L 187.651775 135.703086 
L 187.892882 135.270105 
L 188.069403 134.571729 
L 188.562985 134.102563 
L 188.784579 133.588694 
L 189.740444 136.605721 
L 190.095349 133.580985 
L 190.305577 133.345419 
L 190.777879 135.771512 
L 191.492823 134.636527 
L 191.852482 134.520443 
L 192.397267 133.379919 
L 192.512808 133.488482 
L 193.008848 133.141241 
L 193.548861 134.003123 
L 194.021467 133.393069 
L 194.407288 133.502834 
L 194.502635 134.276115 
L 194.75493 134.866267 
L 194.996837 134.580068 
L 195.334345 133.375272 
L 195.454649 132.343169 
L 195.751364 132.893569 
L 196.228691 135.00242 
L 196.724051 132.716596 
L 197.062323 132.676435 
L 197.30252 133.13379 
L 197.479915 133.119154 
L 198.016224 133.749904 
L 198.432726 133.687146 
L 198.671699 133.617796 
L 199.148993 133.713854 
L 199.386302 133.14995 
L 199.505551 132.195607 
L 199.744011 132.46046 
L 199.923985 133.797615 
L 200.22041 134.606022 
L 200.410061 134.037612 
L 200.698226 132.634804 
L 200.937252 132.034808 
L 201.487491 135.400268 
L 201.657798 137.30907 
L 201.897104 137.905788 
L 202.375645 135.216423 
L 202.613291 135.107192 
L 202.856085 136.366835 
L 203.149366 136.847013 
L 203.446452 136.017009 
L 203.627741 134.996654 
L 204.162048 134.771612 
L 204.46008 134.28072 
L 204.700359 134.365166 
L 205.114867 136.266521 
L 205.353353 134.769574 
L 205.591387 134.932599 
L 205.888899 136.502554 
L 206.072819 136.19017 
L 206.365541 134.298794 
L 206.607128 133.609695 
L 206.843369 134.449263 
L 207.081293 134.736182 
L 207.323751 133.873398 
L 207.561847 133.6127 
L 207.81891 135.132491 
L 208.155603 134.686399 
L 208.39837 133.070469 
L 208.869547 135.026491 
L 209.167792 134.18069 
L 209.295906 133.010654 
L 209.578031 133.603792 
L 209.829124 134.944494 
L 210.063699 134.936817 
L 210.304045 133.159097 
L 210.564531 133.300297 
L 210.793389 134.710203 
L 211.142687 134.62088 
L 211.322478 133.852187 
L 211.560997 133.811845 
L 212.275298 135.288177 
L 212.517694 135.108991 
L 212.812069 135.104091 
L 213.109241 134.936401 
L 213.287964 134.683479 
L 213.526898 134.589576 
L 214.00335 134.524688 
L 214.60018 133.524909 
L 214.720634 132.996185 
L 215.01579 133.594835 
L 215.263673 135.640589 
L 215.732659 136.297079 
L 215.992973 134.482903 
L 216.80712 137.016068 
L 217.222899 135.029571 
L 217.463541 134.645207 
L 217.75941 134.495162 
L 218.118781 134.035277 
L 218.475828 134.883102 
L 219.141568 134.198306 
L 219.371446 133.638325 
L 219.966308 136.193686 
L 220.681019 135.30531 
L 220.919223 134.670406 
L 221.218111 134.689868 
L 221.415344 135.63232 
L 221.934363 137.125096 
L 222.708914 132.242461 
L 222.946464 132.687043 
L 223.365364 135.865732 
L 223.661689 136.25763 
L 223.899897 135.652353 
L 224.378438 133.676657 
L 224.616674 133.309929 
L 224.915695 133.738134 
L 225.095367 134.980581 
L 225.391953 135.460475 
L 225.630292 134.711317 
L 226.120635 131.337259 
L 226.352048 131.09751 
L 226.643582 132.208788 
L 227.596963 138.625871 
L 227.835518 138.247575 
L 228.133889 138.040359 
L 228.317598 138.072889 
L 228.806656 137.642702 
L 228.848305 136.879746 
L 229.092024 136.304638 
L 229.584975 132.33134 
L 229.870495 131.514209 
L 230.402825 131.531014 
L 230.703392 131.009318 
L 230.878796 131.040414 
L 231.056121 131.984459 
L 231.533845 133.435163 
L 231.595806 135.070518 
L 232.070894 137.979022 
L 232.312161 138.301736 
L 232.789101 135.865195 
L 233.094882 104.347922 
L 233.272676 107.331712 
L 233.588838 104.621385 
L 233.801805 90.303613 
L 235.054581 135.865723 
L 236.247977 155.634588 
L 236.544772 154.240181 
L 236.725076 149.520781 
L 236.963452 147.640416 
L 237.019864 144.271502 
L 237.258018 145.556244 
L 237.497522 144.427351 
L 237.734776 140.441027 
L 238.032558 141.433719 
L 238.271577 141.381996 
L 238.513401 137.971553 
L 239.048246 134.526262 
L 239.407285 134.618365 
L 239.539253 134.794709 
L 239.713694 132.041203 
L 240.246564 137.905119 
L 240.485726 134.78444 
L 240.782988 137.841261 
L 241.170772 139.886555 
L 241.204344 142.499317 
L 241.67745 139.531259 
L 241.856682 136.493746 
L 241.975134 141.931003 
L 242.456609 140.150849 
L 242.749076 138.085295 
L 242.92851 142.38202 
L 243.167287 142.67015 
L 243.405192 139.542438 
L 243.704298 143.85172 
L 244.000496 136.768881 
L 244.1793 135.657735 
L 244.418102 136.287382 
L 244.97329 134.197853 
L 245.267575 135.515169 
L 245.447382 133.409492 
L 245.625104 136.349178 
L 245.924842 137.1334 
L 246.161912 132.81469 
L 246.460464 133.188732 
L 246.698449 136.023233 
L 246.936328 133.841043 
L 247.235648 132.716821 
L 247.415527 137.046928 
L 247.831159 134.174241 
L 247.891385 132.598948 
L 248.129889 134.230523 
L 248.36908 134.841463 
L 248.605693 131.374073 
L 249.089707 134.362909 
L 249.381404 133.764381 
L 249.563862 139.320959 
L 249.857806 137.732026 
L 250.155176 137.6632 
L 250.334422 136.061934 
L 250.692464 139.225216 
L 251.109963 135.998236 
L 251.347257 136.902339 
L 251.585521 138.759189 
L 251.884687 136.938331 
L 252.182371 138.167921 
L 252.480468 137.343095 
L 252.65944 139.735933 
L 252.956685 140.376042 
L 253.080046 139.386914 
L 253.377187 140.227288 
L 253.6123 139.46638 
L 254.072462 135.948471 
L 254.300724 137.091522 
L 254.539409 134.040965 
L 255.044494 131.204328 
L 255.282447 131.279315 
L 255.743351 132.459895 
L 256.001441 136.258559 
L 256.295419 130.575155 
L 256.534864 134.220288 
L 256.772888 134.923602 
L 257.010151 130.432253 
L 257.665953 136.791098 
L 257.904322 137.230984 
L 258.08388 139.267661 
L 258.389314 131.719033 
L 258.561472 134.435622 
L 258.759606 131.02686 
L 259.337619 129.428612 
L 259.457845 131.357569 
L 259.717407 133.175716 
L 259.995184 132.078287 
L 260.233705 132.177811 
L 260.711781 129.014161 
L 261.007342 128.841934 
L 261.246521 128.530895 
L 261.544662 129.93142 
L 261.78449 130.079448 
L 261.966383 129.716747 
L 262.201335 130.740818 
L 262.499099 134.110347 
L 262.678053 134.445937 
L 262.977887 131.682269 
L 263.273447 131.446109 
L 263.453424 129.393311 
L 263.691659 130.716564 
L 263.930978 133.407856 
L 264.170573 130.423938 
L 264.406796 124.540317 
L 264.82382 131.251082 
L 265.242956 123.090529 
L 265.419861 124.025126 
L 265.897625 132.69586 
L 266.137338 132.38573 
L 266.554198 134.531405 
L 266.675221 138.314339 
L 266.971307 137.488427 
L 267.151285 136.008323 
L 267.388676 136.863783 
L 267.745715 136.385668 
L 267.985757 130.780796 
L 268.117856 131.18658 
L 268.40045 134.067963 
L 269.270772 130.013629 
L 269.416652 126.705824 
L 269.835072 133.430581 
L 270.131774 133.266111 
L 270.489954 128.268085 
L 270.863587 132.072027 
L 271.14343 129.120544 
L 271.627188 126.504201 
L 271.86941 128.857718 
L 272.334824 125.221769 
L 272.692398 126.632378 
L 272.871462 123.460109 
L 273.288325 123.238441 
L 273.407526 127.195624 
L 273.826474 132.791522 
L 274.183828 127.037621 
L 274.422586 125.385255 
L 274.599489 122.657634 
L 275.255398 124.963961 
L 275.496237 128.627953 
L 275.732573 124.824439 
L 275.792799 124.936904 
L 276.030435 124.265592 
L 276.329084 123.083936 
L 276.635045 122.842032 
L 276.865454 123.501025 
L 277.104247 121.679993 
L 277.300478 125.768646 
L 277.640126 128.168329 
L 277.878636 128.187116 
L 278.297398 124.073439 
L 278.557792 123.40856 
L 278.774269 123.695894 
L 279.071258 123.785373 
L 279.666356 122.517903 
L 279.785757 120.646498 
L 280.202591 119.627742 
L 280.263625 120.651914 
L 280.501022 120.273136 
L 280.859213 121.482322 
L 281.102278 118.375478 
L 281.276437 121.487113 
L 281.515658 118.611442 
L 281.814619 120.154725 
L 281.995137 122.365066 
L 282.230048 117.528937 
L 282.468586 122.178237 
L 282.715955 121.014929 
L 283.510076 115.841288 
L 283.759997 116.058715 
L 284.198888 116.635126 
L 284.386186 116.385475 
L 284.578272 114.217393 
L 284.854199 113.30589 
L 284.978476 115.452476 
L 285.454015 117.766888 
L 285.748835 119.205641 
L 285.934414 123.876051 
L 286.352951 121.641329 
L 286.589703 124.892592 
L 286.702708 121.476602 
L 287.131094 119.375686 
L 287.3197 120.530046 
L 287.661155 114.055362 
L 288.016406 118.095088 
L 288.165116 115.317016 
L 288.496372 116.184277 
L 288.734477 117.537837 
L 288.971798 115.937564 
L 289.152957 123.144116 
L 289.448181 120.851677 
L 289.627584 121.841372 
L 289.92555 118.480197 
L 290.164434 119.669279 
L 290.700725 116.699319 
L 291.134696 119.690303 
L 291.414553 116.481467 
L 291.59724 120.923474 
L 291.654282 119.268044 
L 292.074356 120.588619 
L 292.60899 124.871034 
L 292.846963 125.100289 
L 293.204945 120.297144 
L 293.502542 123.674061 
L 293.629472 126.577082 
L 293.860559 121.740931 
L 294.10396 119.218519 
L 294.397026 118.382811 
L 294.57525 121.067354 
L 294.816882 115.1403 
L 295.231061 115.317095 
L 295.351404 115.520047 
L 295.589408 112.934573 
L 295.83282 115.30495 
L 296.067312 120.669065 
L 296.310038 122.256782 
L 296.547872 125.994731 
L 296.803046 121.273639 
L 297.024731 123.690326 
L 297.383215 119.45471 
L 297.565134 116.52671 
L 297.8 120.291167 
L 298.038147 117.628528 
L 298.276844 120.684236 
L 298.575671 120.192602 
L 298.781395 118.224698 
L 298.995694 111.621179 
L 299.351773 111.967182 
L 299.768329 110.905586 
L 299.888258 117.534213 
L 300.006504 116.667826 
L 300.423988 122.544827 
L 300.48938 118.446675 
L 300.766113 119.673056 
L 301.036153 121.905762 
L 301.220461 118.234893 
L 301.675275 124.010056 
L 301.735601 116.229442 
L 301.973201 116.484751 
L 302.509907 116.29338 
L 303.045608 111.534334 
L 303.761772 117.590712 
L 304.007199 116.19679 
L 304.239622 121.255111 
L 304.418943 117.732419 
L 304.714286 121.119254 
L 305.257856 119.808377 
L 305.488728 122.862472 
L 306.148256 116.549009 
L 306.502476 117.000023 
L 306.692939 118.304455 
L 306.979599 115.832139 
L 307.161068 118.267003 
L 307.470513 114.327913 
L 307.63599 114.415583 
L 307.87609 112.054538 
L 308.173334 116.231129 
L 308.410861 116.958635 
L 308.649061 119.812135 
L 309.147175 119.203428 
L 309.36784 116.569128 
L 309.723399 117.089277 
L 309.90233 112.151765 
L 310.140791 114.207719 
L 310.3948 113.150624 
L 310.62039 114.309261 
L 311.034674 109.676913 
L 311.153953 112.509337 
L 311.45188 108.355962 
L 311.631185 112.546093 
L 311.988239 112.735225 
L 312.167024 114.435357 
L 312.347385 112.636173 
L 312.584511 119.535347 
L 313.085655 121.296837 
L 313.366743 119.08941 
L 313.659736 120.708966 
L 313.957035 121.104426 
L 314.136298 119.377168 
L 314.493495 119.326787 
L 314.792857 120.698006 
L 314.851355 117.758333 
L 315.089227 114.063124 
L 315.387082 114.153276 
L 315.569685 112.853098 
L 315.925908 112.829176 
L 316.102652 119.623774 
L 316.342134 115.144455 
L 316.536649 114.85414 
L 316.822369 115.954929 
L 317.197353 118.186945 
L 317.440671 121.288002 
L 317.608596 120.234146 
L 317.839751 125.204158 
L 318.078522 121.295607 
L 318.379873 123.062153 
L 318.996104 120.443827 
L 319.470936 120.083627 
L 319.829835 117.587909 
L 320.067896 121.717162 
L 320.248628 115.827134 
L 320.604399 117.114376 
L 321.152208 113.168879 
L 321.322152 118.146007 
L 321.558312 117.393295 
L 321.915944 112.580165 
L 322.042372 114.687893 
L 322.273602 115.71641 
L 322.630849 118.484279 
L 322.753263 141.428008 
L 323.524919 89.900679 
L 323.776403 62.023756 
L 324.120775 62.639044 
L 324.479513 73.587303 
L 325.134704 89.934662 
L 325.223216 102.55669 
L 325.557608 124.737795 
L 325.874815 129.534854 
L 325.992659 123.353305 
L 326.235929 133.411231 
L 326.53619 119.727623 
L 326.650652 104.555261 
L 327.60117 58.151709 
L 327.720727 57.739609 
L 327.899814 64.391785 
L 328.259552 72.705995 
L 329.15549 144.660891 
L 329.451103 157.734936 
L 329.688885 158.456349 
L 329.868759 157.365507 
L 330.165356 151.727938 
L 330.405432 141.520062 
L 330.88095 114.457106 
L 331.41869 91.032547 
L 331.65824 89.776026 
L 331.897831 94.491112 
L 332.610677 126.786913 
L 333.089166 151.234268 
L 333.624373 159.965275 
L 334.044815 159.018511 
L 334.110296 150.959208 
L 334.638711 130.923702 
L 334.994959 116.847923 
L 335.352676 94.28925 
L 335.592107 85.476451 
L 335.835208 85.01604 
L 336.78293 109.139004 
L 336.842578 119.146343 
L 337.319611 141.317338 
L 337.79713 153.804926 
L 338.0361 150.561963 
L 338.334871 150.196573 
L 338.712441 140.943753 
L 338.815958 132.348134 
L 339.286099 111.353063 
L 339.703566 106.492432 
L 339.822889 103.041391 
L 340.121573 102.866177 
L 340.301919 107.915683 
L 340.597698 112.893934 
L 341.074314 127.75492 
L 341.789288 141.734669 
L 342.028544 141.149911 
L 342.266023 138.177705 
L 342.808346 125.551098 
L 343.521129 105.150721 
L 344.121717 100.492882 
L 344.772093 115.32491 
L 345.250289 128.227453 
L 345.512543 130.91812 
L 345.964103 128.911581 
L 346.441551 123.12933 
L 346.85821 116.523916 
L 346.978053 110.270951 
L 347.277079 107.19238 
L 347.701983 99.43959 
L 348.531919 109.774988 
L 348.831655 109.631153 
L 348.950673 116.90058 
L 349.366436 119.831731 
L 349.485769 122.001811 
L 349.663905 122.03358 
L 349.962172 120.835095 
L 350.260353 122.930413 
L 350.677405 117.009614 
L 350.916062 115.151031 
L 351.155629 112.343285 
L 351.930842 115.5857 
L 352.40634 124.931169 
L 352.904956 131.571438 
L 353.36025 135.186226 
L 353.777325 135.824148 
L 353.896099 133.212741 
L 354.194787 131.511518 
L 355.150156 116.179518 
L 355.33403 110.17308 
L 355.625544 109.823771 
L 355.927167 108.32688 
L 356.16389 106.310733 
L 356.341322 110.905327 
L 356.587507 113.077756 
L 357.592351 124.476599 
L 358.011537 125.063873 
L 358.071646 126.075354 
L 358.370781 126.175808 
L 358.790915 123.807906 
L 359.805985 106.802818 
L 360.097659 105.738047 
L 360.57416 115.762691 
L 361.050878 117.403721 
L 361.408175 123.800402 
L 361.588807 123.347871 
L 361.886035 126.552071 
L 362.18395 126.807589 
L 362.303824 126.748609 
L 362.542256 125.298189 
L 363.317921 109.247393 
L 363.732693 106.028713 
L 364.030785 112.074824 
L 364.269794 113.692804 
L 365.103991 123.065341 
L 365.231986 128.040186 
L 365.534001 128.754481 
L 365.771014 129.973714 
L 366.236189 131.327764 
L 366.655545 127.361364 
L 366.772971 120.667731 
L 366.954707 116.830869 
L 367.308649 112.287008 
L 367.607946 111.740085 
L 367.740746 113.433878 
L 368.160132 113.160557 
L 368.26738 115.334066 
L 368.505482 117.683499 
L 368.744056 118.005129 
L 369.280486 121.120007 
L 369.459262 121.49839 
L 370.00555 124.79921 
L 370.295139 120.007399 
L 370.416818 122.792156 
L 370.669731 119.541134 
L 370.956128 117.444961 
L 371.202299 114.455607 
L 371.427707 114.607821 
L 371.964707 117.307478 
L 372.203279 119.952546 
L 372.490814 120.723085 
L 372.744155 116.017738 
L 373.456996 124.284719 
L 373.838884 123.197422 
L 373.933778 121.369866 
L 374.469795 119.314541 
L 374.648252 117.004692 
L 374.886323 116.692727 
L 375.18426 113.303358 
L 375.482207 114.706712 
L 375.661191 112.614807 
L 375.971111 114.075074 
L 376.202324 114.110754 
L 376.678269 117.000252 
L 377.153827 118.98495 
L 377.388778 121.265874 
L 377.705598 122.176821 
L 377.868639 120.37051 
L 378.17031 121.168279 
L 378.65443 114.407019 
L 379.069981 112.989921 
L 379.362383 113.436925 
L 379.780932 110.656216 
L 379.901348 114.666317 
L 380.256838 114.127947 
L 380.318714 115.232588 
L 380.555843 117.100785 
L 380.85294 120.433499 
L 381.095723 119.878343 
L 381.32976 120.5556 
L 381.568449 120.019203 
L 382.113562 121.563348 
L 382.402199 120.646357 
L 382.763883 118.528488 
L 382.937668 118.36678 
L 383.059558 119.847928 
L 383.475075 121.761422 
L 383.533817 114.827428 
L 383.897093 116.712123 
L 384.190185 115.848061 
L 384.253065 114.059068 
L 384.621134 114.157232 
L 385.027159 119.305309 
L 385.561807 117.935873 
L 385.865941 119.009737 
L 386.041688 115.701474 
L 386.276533 118.992099 
L 386.694764 119.122936 
L 386.815884 118.628105 
L 386.994747 119.502728 
L 387.511515 114.48879 
L 388.008132 117.166816 
L 388.246411 117.435089 
L 388.543971 120.419959 
L 388.723412 118.939405 
L 389.082216 119.882761 
L 389.319385 118.4286 
L 389.498218 118.676779 
L 389.856101 117.803337 
L 390.214395 115.097108 
L 390.512163 116.050097 
L 390.750047 116.00464 
L 391.285608 115.162545 
L 391.710921 116.063854 
L 391.941802 118.513545 
L 392.18156 122.43916 
L 392.478893 121.485415 
L 392.657267 121.619624 
L 393.193816 116.6283 
L 393.431897 116.86078 
L 393.670797 115.337068 
L 393.908465 115.583606 
L 394.149103 116.313575 
L 394.682593 116.713636 
L 394.982687 115.773274 
L 395.278404 116.570234 
L 395.522953 116.823477 
L 395.695566 121.192096 
L 396.113106 119.817997 
L 396.173708 118.491189 
L 396.412578 116.528099 
L 396.828749 115.152972 
L 396.948983 117.42144 
L 397.244784 114.342757 
L 397.42436 116.798319 
L 397.662185 116.569127 
L 397.901197 117.7088 
L 398.198436 116.276631 
L 398.377365 116.66717 
L 398.914034 119.693456 
L 399.213694 119.502063 
L 399.392135 118.924375 
L 399.749764 117.524914 
L 400.406858 110.257809 
L 400.824068 111.124125 
L 401.119019 111.180623 
L 401.497457 111.671047 
L 401.602039 113.141021 
L 401.834988 113.809025 
L 402.07471 117.824435 
L 402.31576 117.933044 
L 402.373037 118.152881 
L 402.554912 118.17603 
L 402.968472 121.021085 
L 403.192075 118.447288 
L 403.326417 120.813636 
L 403.564232 121.889544 
L 404.047816 122.627039 
L 404.338797 121.408542 
L 404.816178 121.090795 
L 405.358067 117.145119 
L 405.591382 117.021184 
L 405.829632 116.016924 
L 406.547122 116.277574 
L 406.783485 117.035155 
L 407.021449 119.168205 
L 407.379754 118.784575 
L 407.558105 120.59422 
L 407.796504 120.969999 
L 408.034594 122.81217 
L 408.273407 120.156381 
L 408.572809 119.460121 
L 408.930305 119.32002 
L 409.169966 118.486783 
L 409.407748 115.66875 
L 409.526768 119.628184 
L 409.765348 119.302517 
L 410.005374 118.608869 
L 410.250871 121.324597 
L 410.540931 122.143299 
L 411.017266 119.095469 
L 411.31614 118.347048 
L 411.49573 116.676053 
L 411.794313 112.084032 
L 411.971969 113.818862 
L 412.21026 110.964768 
L 412.449151 110.72922 
L 412.746957 110.679359 
L 412.938247 109.37965 
L 413.174214 112.80599 
L 413.463176 114.522285 
L 413.943131 115.146106 
L 414.181937 116.840157 
L 414.488512 115.596158 
L 414.716294 119.853544 
L 414.925729 120.358527 
L 415.193305 120.020038 
L 415.435042 117.150266 
L 415.673261 118.521275 
L 415.967186 117.417733 
L 416.207938 117.315721 
L 416.503848 116.499549 
L 416.684738 112.864885 
L 416.921516 111.75952 
L 417.160618 112.648435 
L 417.401426 110.352336 
L 417.758447 110.01085 
L 417.938988 105.528648 
L 418.177132 108.764963 
L 418.775313 110.413489 
L 419.01126 113.610675 
L 419.130347 112.249558 
L 419.369638 114.248839 
L 419.666972 118.821549 
L 419.966545 120.094575 
L 420.14664 120.309525 
L 420.384999 122.377005 
L 420.683777 121.887912 
L 420.861027 122.381193 
L 421.160268 122.750641 
L 421.397834 122.111523 
L 421.63684 124.342858 
L 422.602968 117.73313 
L 422.997382 118.371015 
L 423.125444 114.419603 
L 424.074208 109.77614 
L 424.370911 105.841599 
L 424.608663 105.644986 
L 424.850349 105.943402 
L 425.100289 106.751164 
L 425.503855 108.789413 
L 425.563823 111.24096 
L 425.862206 112.875691 
L 426.104552 115.73 
L 426.345773 116.653593 
L 426.542896 120.553448 
L 426.817332 119.985121 
L 427.249806 122.074862 
L 427.297576 122.911766 
L 427.595089 123.931482 
L 428.01235 123.430882 
L 428.071568 123.583799 
L 428.311056 121.982132 
L 428.667293 121.221276 
L 428.845904 121.264756 
L 429.028208 119.861228 
L 429.264702 119.26033 
L 429.503189 116.634818 
L 430.042142 114.560034 
L 430.27864 112.482397 
L 430.515682 114.196056 
L 431.052851 115.973146 
L 431.233874 115.702518 
L 431.766437 115.281761 
L 431.774949 134.47975 
L 432.009586 118.405687 
L 432.365839 122.094504 
L 432.545614 122.156165 
L 432.792752 121.428666 
L 433.024963 119.401443 
L 433.381603 117.876355 
L 433.501204 118.25584 
L 433.685946 116.472094 
L 433.977675 115.858041 
L 434.216333 115.786198 
L 435.115298 109.178924 
L 435.169911 114.848437 
L 435.529062 114.230348 
L 435.712652 115.820746 
L 435.947165 116.521552 
L 436.186095 116.551316 
L 436.605724 116.900936 
L 436.730702 118.135663 
L 436.986024 118.430196 
L 437.199791 121.728095 
L 437.447065 121.313914 
L 437.498713 118.586898 
L 437.737605 117.603092 
L 437.977034 118.430379 
L 438.15977 117.647847 
L 438.396525 118.67411 
L 438.691947 119.367399 
L 439.168707 116.320243 
L 439.407897 118.99825 
L 439.645475 119.932211 
L 439.884947 118.672924 
L 440.662608 109.816206 
L 440.898277 92.580435 
L 441.138148 95.624994 
L 441.636282 105.42067 
L 442.102522 110.778761 
L 442.361862 118.374427 
L 442.697603 121.229113 
L 443.004177 122.257638 
L 443.134656 122.234875 
L 443.419055 120.267112 
L 443.662301 120.879963 
L 444.075574 118.916479 
L 444.739489 121.377286 
L 444.858706 117.906614 
L 445.090545 118.80091 
L 445.333641 121.374952 
L 445.704207 123.349299 
L 445.864967 129.311669 
L 446.167924 133.323323 
L 446.402778 133.559316 
L 446.640891 131.23113 
L 446.941348 124.654001 
L 447.18078 124.305991 
L 447.783037 113.553228 
L 448.04832 112.764698 
L 448.319201 109.265997 
L 448.634474 108.86817 
L 448.800116 113.323669 
L 449.150079 115.612788 
L 449.354348 122.367173 
L 449.867482 129.025807 
L 450.045867 130.108091 
L 450.284394 129.778715 
L 450.526228 129.655673 
L 450.901074 130.396326 
L 451.001214 127.881161 
L 451.35818 124.419911 
L 451.537207 119.814734 
L 452.422713 111.570236 
L 452.660268 111.855617 
L 452.84762 113.09983 
L 453.078023 121.434557 
L 453.375989 122.074937 
L 453.73459 130.887954 
L 454.211366 135.01905 
L 454.570231 129.293037 
L 454.751765 128.100048 
L 455.106868 128.200802 
L 455.232475 122.402228 
L 455.763631 119.552516 
L 456.002115 116.087636 
L 456.244154 116.646022 
L 456.480105 116.838361 
L 456.723057 118.211707 
L 457.19676 125.384327 
L 457.445517 124.828234 
L 457.678992 127.146896 
L 457.977963 126.524919 
L 458.165892 126.625401 
L 458.932814 123.08642 
L 459.436745 119.691984 
L 459.707675 118.823531 
L 460.004695 120.513102 
L 460.482715 125.704217 
L 460.721144 131.040255 
L 460.966527 132.856162 
L 461.379819 137.040715 
L 461.617982 137.096616 
L 461.86734 139.765405 
L 462.40547 136.555524 
L 462.638724 136.217114 
L 463.173427 128.828974 
L 463.349944 122.042611 
L 463.674991 118.276833 
L 463.885826 120.019634 
L 464.612494 114.528783 
L 465.080478 119.771021 
L 465.50196 121.484175 
L 465.691373 122.996014 
L 466.10753 132.89684 
L 466.524659 130.880264 
L 466.585318 131.947201 
L 467.241582 127.462865 
L 467.303111 126.640887 
L 467.716871 127.287383 
L 467.836359 123.320511 
L 468.076396 124.812167 
L 468.313362 122.983707 
L 468.730505 124.363682 
L 469.805019 141.58567 
L 470.046172 138.356524 
L 470.341974 136.826097 
L 470.521822 136.874759 
L 470.841508 135.050784 
L 471.001758 131.18553 
L 471.300301 131.913798 
L 471.538292 126.8978 
L 471.780636 125.844831 
L 472.076484 123.222107 
L 472.494986 125.484723 
L 472.793269 125.745345 
L 472.979762 128.608946 
L 473.750649 132.384931 
L 474.00891 132.469929 
L 474.463968 129.011065 
L 475.010302 124.771971 
L 475.549978 116.197025 
L 475.784542 113.355549 
L 476.024244 112.031161 
L 476.20381 110.068736 
L 476.739859 112.207299 
L 477.137663 114.781084 
L 477.285052 117.08292 
L 477.46167 122.017542 
L 477.852327 120.671939 
L 477.994882 120.685447 
L 478.301791 120.53089 
L 478.471812 118.10708 
L 478.720108 117.341488 
L 479.083086 113.791555 
L 479.190045 111.081776 
L 479.433996 108.821955 
L 479.66896 108.860924 
L 479.976014 109.234886 
L 480.223762 109.940709 
L 480.684364 116.207831 
L 480.930442 122.019103 
L 481.22264 123.828376 
L 481.702345 128.75336 
L 481.997411 130.981262 
L 482.176811 131.107227 
L 482.594701 133.150887 
L 482.94086 129.845083 
L 483.175594 129.716539 
L 483.408822 128.331148 
L 483.710888 125.385252 
L 483.895493 128.756047 
L 484.186052 128.908301 
L 484.490452 128.532946 
L 484.666279 131.760451 
L 484.856167 132.736525 
L 485.14221 132.521222 
L 485.619954 136.868687 
L 485.857686 136.543103 
L 486.096557 133.492126 
L 486.336087 135.627408 
L 486.753083 132.800216 
L 486.902217 126.991806 
L 487.290571 128.444386 
L 487.409453 124.654418 
L 487.648028 125.300946 
L 487.886487 123.518356 
L 488.184151 125.454593 
L 488.316363 125.433731 
L 488.575846 127.493527 
L 488.845862 132.637787 
L 489.140853 133.799792 
L 489.559275 137.996542 
L 489.799962 136.71322 
L 490.179772 137.459077 
L 490.33788 136.189675 
L 490.573483 138.184624 
L 490.841485 133.54462 
L 491.357792 128.525863 
L 491.652827 128.303655 
L 492.080735 124.862786 
L 492.336782 126.841852 
L 492.627664 126.1034 
L 492.749249 129.854651 
L 493.041502 128.41514 
L 493.339803 129.056789 
L 493.637898 131.681986 
L 493.757412 131.101918 
L 494.055301 131.506948 
L 494.30173 133.574012 
L 494.771509 127.070319 
L 495.011347 126.379196 
L 495.547981 127.37747 
L 495.788604 127.972364 
L 496.023953 128.073959 
L 496.262324 129.150893 
L 496.50185 129.488142 
L 497.755141 139.546427 
L 497.995963 138.169133 
L 498.292338 138.434829 
L 498.472227 136.844021 
L 499.080944 133.919162 
L 499.247397 133.449039 
L 499.545716 132.115522 
L 499.783521 133.228387 
L 500.022016 133.466838 
L 500.224478 133.09344 
L 500.440377 133.099763 
L 500.742243 135.091958 
L 501.035198 134.742526 
L 501.453912 139.392817 
L 501.694831 138.865168 
L 501.93097 140.126542 
L 502.425409 137.00248 
L 502.663553 134.34194 
L 503.14164 133.173517 
L 503.201615 133.929485 
L 503.499435 131.339993 
L 503.681834 132.247732 
L 503.921263 132.839154 
L 504.154928 132.534808 
L 504.452767 132.572106 
L 504.633267 134.354734 
L 504.932187 132.606193 
L 505.228687 133.382451 
L 505.407236 133.261577 
L 505.710019 133.574957 
L 505.947961 132.75696 
L 506.184788 134.447662 
L 506.662672 129.572577 
L 507.143433 129.80628 
L 507.487916 129.736588 
L 508.162277 137.027241 
L 508.401209 139.735341 
L 508.640188 140.214199 
L 508.878038 140.342242 
L 509.358233 144.158471 
L 509.654113 144.808086 
L 509.833807 141.202516 
L 510.149829 139.781824 
L 510.369709 135.520432 
L 510.670956 136.908554 
L 510.96658 133.13135 
L 511.145019 133.436643 
L 511.625673 135.024047 
L 511.683477 137.545988 
L 511.861744 138.372872 
L 512.10643 140.093251 
L 513.41318 155.600642 
L 513.592032 155.337345 
L 513.770513 159.023355 
L 514.19072 157.747354 
L 514.248194 159.670671 
L 514.852332 153.854556 
L 515.806668 140.279235 
L 516.110497 140.061776 
L 516.287382 135.723767 
L 516.533932 133.789854 
L 516.771998 130.926937 
L 517.248657 133.684691 
L 517.546519 135.181296 
L 517.730983 133.799097 
L 518.025818 137.214852 
L 518.327717 132.548268 
L 518.560485 136.265919 
L 518.815993 135.584173 
L 519.039137 130.786617 
L 519.462602 132.774772 
L 519.515355 131.083387 
L 519.753795 133.101698 
L 520.171871 133.020858 
L 520.232271 133.548328 
L 520.472901 134.180264 
L 520.807281 135.493538 
L 520.967766 137.905414 
L 521.272382 140.724184 
L 521.486555 145.241145 
L 521.7432 147.253148 
L 521.964345 150.201027 
L 522.203552 151.675379 
L 522.443294 148.693727 
L 522.755288 152.23554 
L 523.159706 148.275348 
L 523.220975 149.727034 
L 523.456188 148.210394 
L 523.938995 150.373624 
L 524.112164 150.271944 
L 524.243794 149.256362 
L 524.431143 150.908512 
L 524.788494 151.335561 
L 525.459064 160.244613 
L 525.698205 161.692706 
L 525.940867 162.041855 
L 526.700153 150.286971 
L 527.243308 144.951388 
L 527.418826 138.842262 
L 527.713793 134.544675 
L 528.021114 133.253163 
L 528.492333 125.136239 
L 528.670726 124.835148 
L 528.929074 123.825839 
L 529.265892 123.093306 
L 529.682397 127.48862 
L 529.980224 136.343954 
L 530.162524 133.520133 
L 530.400089 134.123427 
L 530.655828 134.350679 
L 531.657867 157.564444 
L 531.904363 158.270493 
L 532.191375 159.437708 
L 532.368557 160.818519 
L 532.807248 165.565925 
L 533.038451 170.978811 
L 533.384336 172.832412 
L 533.671659 163.149601 
L 533.921404 146.098216 
L 534.397683 132.11581 
L 534.457425 120.539438 
L 535.354813 100.7941 
L 535.85664 102.609547 
L 536.137614 117.201604 
L 536.431139 126.762166 
L 536.549281 137.723936 
L 536.854727 147.075306 
L 537.45171 155.558215 
L 537.822875 152.563007 
L 538.227016 137.105485 
L 538.707326 123.32399 
L 538.825564 120.837717 
L 539.074042 122.591468 
L 539.431266 126.272915 
L 539.788299 136.606593 
L 540.205079 143.479633 
L 541.161746 177.106643 
L 541.423305 175.411945 
L 542.480321 125.531427 
L 543.264965 102.287808 
L 543.487079 100.396864 
L 543.785653 102.557957 
L 545.045204 126.608191 
L 545.342619 128.193917 
L 545.519929 126.82577 
L 546.066941 119.859001 
L 546.479013 112.912926 
L 546.782443 111.381633 
L 547.112455 111.873447 
L 547.973126 124.958559 
L 548.980226 144.455714 
L 549.221326 144.66121 
L 549.45758 142.19691 
L 551.024402 118.663565 
L 551.373327 117.135402 
L 551.44814 117.251643 
L 551.678036 119.593804 
L 552.926179 144.204233 
L 553.166526 146.00285 
L 553.407707 145.778284 
L 553.701379 144.486552 
L 554.240253 138.543457 
L 555.25697 126.973371 
L 555.553638 126.950975 
L 555.731646 127.64134 
L 555.85188 129.753019 
L 556.327946 132.712416 
L 556.627552 133.026921 
L 556.86923 132.652163 
L 557.103342 130.870847 
L 557.584784 122.655116 
L 558.119115 112.099527 
L 558.594242 103.625367 
L 559.091962 100.913513 
L 559.309846 101.661867 
L 559.728043 104.630156 
L 560.037032 116.253584 
L 560.442253 121.722497 
L 560.805526 128.71362 
L 561.051749 129.740432 
L 561.277652 129.942011 
L 561.575948 129.344084 
L 561.93609 128.880926 
L 562.057076 127.152202 
L 562.772543 123.947987 
L 563.072457 124.892172 
L 563.662759 133.753902 
L 564.286014 149.680514 
L 564.822216 155.956009 
L 565.47816 159.46315 
L 565.777345 159.877074 
L 566.380325 157.409179 
L 566.507541 155.524978 
L 566.999703 151.586039 
L 567.284079 145.596784 
L 567.743316 142.973822 
L 568.751593 139.99244 
L 569.049828 138.991267 
L 569.466005 136.581041 
L 570.009178 134.817202 
L 570.192854 133.068462 
L 570.727346 130.425315 
L 570.920205 130.06818 
L 571.21621 130.191437 
L 571.464862 128.977515 
L 571.694332 128.904496 
L 571.991557 129.076721 
L 572.419886 129.652454 
L 572.708696 129.081205 
L 573.082517 127.260602 
L 573.203957 125.370757 
L 573.727638 123.537166 
L 574.639863 134.123 
L 575.15679 137.868359 
L 575.956815 145.138565 
L 576.348312 145.65529 
L 576.649831 143.443115 
L 577.904485 133.252467 
L 578.445673 130.944292 
L 578.798673 130.181069 
L 579.097239 126.92448 
L 579.370722 126.633525 
L 579.720811 129.753078 
L 579.837407 134.021743 
L 580.380997 140.976049 
L 580.852749 143.953232 
L 581.092552 143.554304 
L 581.868268 144.53332 
L 582.344936 136.31155 
L 582.587702 131.041899 
L 582.883672 129.225973 
L 583.245794 130.226415 
L 583.841535 137.240131 
L 584.196101 138.249167 
L 584.33048 138.253337 
L 584.511364 138.85317 
L 585.049879 141.307258 
L 585.347308 137.859431 
L 585.523614 132.248566 
L 585.821315 126.895671 
L 586.180543 125.51039 
L 586.954773 131.049297 
L 587.256136 132.016162 
L 587.491657 133.592285 
L 588.269592 143.449305 
L 588.592232 141.083693 
L 588.775538 137.057442 
L 589.01232 135.573078 
L 589.247736 135.839166 
L 589.542062 136.527239 
L 589.77951 136.081202 
L 589.973134 135.088357 
L 590.212555 132.997422 
L 590.495422 132.025955 
L 591.210835 134.703926 
L 591.707857 132.8841 
L 592.226266 136.162986 
L 592.82264 137.825243 
L 593.001124 137.310702 
L 593.060406 135.935831 
L 593.478555 135.650349 
L 593.6603 135.858052 
L 593.896165 136.772321 
L 594.253236 136.887199 
L 594.432017 133.677368 
L 594.61202 127.976259 
L 594.939711 126.053846 
L 595.176045 126.142397 
L 595.448779 131.976185 
L 595.691224 136.806773 
L 596.159713 141.05921 
L 596.529773 141.427587 
L 597.176221 144.484122 
L 597.41638 143.93259 
L 597.892051 137.31396 
L 598.42937 128.215002 
L 599.087022 131.722517 
L 599.152706 132.780134 
L 599.390523 133.779641 
L 599.741833 134.232187 
L 599.880233 135.691643 
L 600.105078 136.448393 
L 600.398662 135.693108 
L 600.638713 135.829464 
L 600.876836 136.91073 
L 601.185367 136.680575 
L 601.720334 133.564382 
L 601.898285 133.112191 
L 602.495585 128.753752 
L 602.793149 130.128459 
L 603.329686 136.284409 
L 604.050878 132.128146 
L 604.40377 134.206075 
L 604.582578 136.799204 
L 604.834743 137.486321 
L 605.317146 133.214257 
L 605.535893 130.733986 
L 605.803295 129.444204 
L 606.043437 130.677439 
L 606.043437 130.677439 
" clip-path="url(#p587ea044ce)" style="fill: none; stroke: #ff0000; stroke-opacity: 0.7; stroke-width: 1.5; stroke-linecap: square"/>
   </g>
   <g id="patch_3">
    <path d="M 48.043438 277.92 
L 48.043438 0.72 
" style="fill: none; stroke: #000000; stroke-width: 0.8; stroke-linejoin: miter; stroke-linecap: square"/>
   </g>
   <g id="patch_4">
    <path d="M 606.043437 277.92 
L 606.043437 0.72 
" style="fill: none; stroke: #000000; stroke-width: 0.8; stroke-linejoin: miter; stroke-linecap: square"/>
   </g>
   <g id="patch_5">
    <path d="M 48.043438 277.92 
L 606.043437 277.92 
" style="fill: none; stroke: #000000; stroke-width: 0.8; stroke-linejoin: miter; stroke-linecap: square"/>
   </g>
   <g id="patch_6">
    <path d="M 48.043438 0.72 
L 606.043437 0.72 
" style="fill: none; stroke: #000000; stroke-width: 0.8; stroke-linejoin: miter; stroke-linecap: square"/>
   </g>
   <g id="legend_1">
    <g id="patch_7">
     <path d="M 525.274688 38.07625 
L 599.043437 38.07625 
Q 601.043437 38.07625 601.043437 36.07625 
L 601.043437 7.72 
Q 601.043437 5.72 599.043437 5.72 
L 525.274688 5.72 
Q 523.274688 5.72 523.274688 7.72 
L 523.274688 36.07625 
Q 523.274688 38.07625 525.274688 38.07625 
z
" style="fill: #ffffff; opacity: 0.8; stroke: #cccccc; stroke-linejoin: miter"/>
    </g>
    <g id="line2d_37">
     <path d="M 527.274688 13.818438 
L 537.274688 13.818438 
L 547.274688 13.818438 
" style="fill: none; stroke: #0000ff; stroke-opacity: 0.7; stroke-width: 1.5; stroke-linecap: square"/>
    </g>
    <g id="text_20">
     <!-- RNEA -->
     <g transform="translate(555.274688 17.318438) scale(0.1 -0.1)">
      <defs>
       <path id="DejaVuSans-52" d="M 2841 2188 
Q 3044 2119 3236 1894 
Q 3428 1669 3622 1275 
L 4263 0 
L 3584 0 
L 2988 1197 
Q 2756 1666 2539 1819 
Q 2322 1972 1947 1972 
L 1259 1972 
L 1259 0 
L 628 0 
L 628 4666 
L 2053 4666 
Q 2853 4666 3247 4331 
Q 3641 3997 3641 3322 
Q 3641 2881 3436 2590 
Q 3231 2300 2841 2188 
z
M 1259 4147 
L 1259 2491 
L 2053 2491 
Q 2509 2491 2742 2702 
Q 2975 2913 2975 3322 
Q 2975 3731 2742 3939 
Q 2509 4147 2053 4147 
L 1259 4147 
z
" transform="scale(0.015625)"/>
       <path id="DejaVuSans-45" d="M 628 4666 
L 3578 4666 
L 3578 4134 
L 1259 4134 
L 1259 2753 
L 3481 2753 
L 3481 2222 
L 1259 2222 
L 1259 531 
L 3634 531 
L 3634 0 
L 628 0 
L 628 4666 
z
" transform="scale(0.015625)"/>
       <path id="DejaVuSans-41" d="M 2188 4044 
L 1331 1722 
L 3047 1722 
L 2188 4044 
z
M 1831 4666 
L 2547 4666 
L 4325 0 
L 3669 0 
L 3244 1197 
L 1141 1197 
L 716 0 
L 50 0 
L 1831 4666 
z
" transform="scale(0.015625)"/>
      </defs>
      <use xlink:href="#DejaVuSans-52"/>
      <use xlink:href="#DejaVuSans-4e" x="69.482422"/>
      <use xlink:href="#DejaVuSans-45" x="144.287109"/>
      <use xlink:href="#DejaVuSans-41" x="207.470703"/>
     </g>
    </g>
    <g id="line2d_38">
     <path d="M 527.274688 28.496563 
L 537.274688 28.496563 
L 547.274688 28.496563 
" style="fill: none; stroke: #ff0000; stroke-opacity: 0.7; stroke-width: 1.5; stroke-linecap: square"/>
    </g>
    <g id="text_21">
     <!-- BURNEA -->
     <g transform="translate(555.274688 31.996563) scale(0.1 -0.1)">
      <defs>
       <path id="DejaVuSans-42" d="M 1259 2228 
L 1259 519 
L 2272 519 
Q 2781 519 3026 730 
Q 3272 941 3272 1375 
Q 3272 1813 3026 2020 
Q 2781 2228 2272 2228 
L 1259 2228 
z
M 1259 4147 
L 1259 2741 
L 2194 2741 
Q 2656 2741 2882 2914 
Q 3109 3088 3109 3444 
Q 3109 3797 2882 3972 
Q 2656 4147 2194 4147 
L 1259 4147 
z
M 628 4666 
L 2241 4666 
Q 2963 4666 3353 4366 
Q 3744 4066 3744 3513 
Q 3744 3084 3544 2831 
Q 3344 2578 2956 2516 
Q 3422 2416 3680 2098 
Q 3938 1781 3938 1306 
Q 3938 681 3513 340 
Q 3088 0 2303 0 
L 628 0 
L 628 4666 
z
" transform="scale(0.015625)"/>
       <path id="DejaVuSans-55" d="M 556 4666 
L 1191 4666 
L 1191 1831 
Q 1191 1081 1462 751 
Q 1734 422 2344 422 
Q 2950 422 3222 751 
Q 3494 1081 3494 1831 
L 3494 4666 
L 4128 4666 
L 4128 1753 
Q 4128 841 3676 375 
Q 3225 -91 2344 -91 
Q 1459 -91 1007 375 
Q 556 841 556 1753 
L 556 4666 
z
" transform="scale(0.015625)"/>
      </defs>
      <use xlink:href="#DejaVuSans-42"/>
      <use xlink:href="#DejaVuSans-55" x="68.603516"/>
      <use xlink:href="#DejaVuSans-52" x="141.796875"/>
      <use xlink:href="#DejaVuSans-4e" x="211.279297"/>
      <use xlink:href="#DejaVuSans-45" x="286.083984"/>
      <use xlink:href="#DejaVuSans-41" x="349.267578"/>
     </g>
    </g>
   </g>
  </g>
 </g>
 <defs>
  <clipPath id="p587ea044ce">
   <rect x="48.043438" y="0.72" width="558" height="277.2"/>
  </clipPath>
 </defs>
</svg>
