<?xml version="1.0" encoding="utf-8" standalone="no"?>
<!DOCTYPE svg PUBLIC "-//W3C//DTD SVG 1.1//EN"
  "http://www.w3.org/Graphics/SVG/1.1/DTD/svg11.dtd">
<svg xmlns:xlink="http://www.w3.org/1999/xlink" width="427.43952pt" height="211.43952pt" viewBox="0 0 427.43952 211.43952" xmlns="http://www.w3.org/2000/svg" version="1.1">
 <metadata>
  <rdf:RDF xmlns:dc="http://purl.org/dc/elements/1.1/" xmlns:cc="http://creativecommons.org/ns#" xmlns:rdf="http://www.w3.org/1999/02/22-rdf-syntax-ns#">
   <cc:Work>
    <dc:type rdf:resource="http://purl.org/dc/dcmitype/StillImage"/>
    <dc:date>2023-09-09T18:28:59.875429</dc:date>
    <dc:format>image/svg+xml</dc:format>
    <dc:creator>
     <cc:Agent>
      <dc:title>Matplotlib v3.7.2, https://matplotlib.org/</dc:title>
     </cc:Agent>
    </dc:creator>
   </cc:Work>
  </rdf:RDF>
 </metadata>
 <defs>
  <style type="text/css">*{stroke-linejoin: round; stroke-linecap: butt}</style>
 </defs>
 <g id="figure_1">
  <g id="patch_1">
   <path d="M 0 211.43952 
L 427.43952 211.43952 
L 427.43952 0 
L 0 0 
L 0 211.43952 
z
" style="fill: none"/>
  </g>
  <g id="axes_1">
   <g id="patch_2">
    <path d="M 30.123125 184.36327 
L 426.71952 184.36327 
L 426.71952 0.72 
L 30.123125 0.72 
L 30.123125 184.36327 
z
" style="fill: none"/>
   </g>
   <g id="matplotlib.axis_1">
    <g id="xtick_1">
     <g id="line2d_1">
      <path d="M 30.123125 184.36327 
L 30.123125 0.72 
" clip-path="url(#p3347466c52)" style="fill: none; stroke-dasharray: 0.8,1.32; stroke-dashoffset: 0; stroke: #000000; stroke-opacity: 0.5; stroke-width: 0.8"/>
     </g>
     <g id="line2d_2">
      <defs>
       <path id="m46b11bc930" d="M 0 0 
L 0 3.5 
" style="stroke: #000000; stroke-width: 0.8"/>
      </defs>
      <g>
       <use xlink:href="#m46b11bc930" x="30.123125" y="184.36327" style="stroke: #000000; stroke-width: 0.8"/>
      </g>
     </g>
     <g id="text_1">
      <!-- 0.0 -->
      <g transform="translate(22.171563 198.961707) scale(0.1 -0.1)">
       <defs>
        <path id="DejaVuSans-30" d="M 2034 4250 
Q 1547 4250 1301 3770 
Q 1056 3291 1056 2328 
Q 1056 1369 1301 889 
Q 1547 409 2034 409 
Q 2525 409 2770 889 
Q 3016 1369 3016 2328 
Q 3016 3291 2770 3770 
Q 2525 4250 2034 4250 
z
M 2034 4750 
Q 2819 4750 3233 4129 
Q 3647 3509 3647 2328 
Q 3647 1150 3233 529 
Q 2819 -91 2034 -91 
Q 1250 -91 836 529 
Q 422 1150 422 2328 
Q 422 3509 836 4129 
Q 1250 4750 2034 4750 
z
" transform="scale(0.015625)"/>
        <path id="DejaVuSans-2e" d="M 684 794 
L 1344 794 
L 1344 0 
L 684 0 
L 684 794 
z
" transform="scale(0.015625)"/>
       </defs>
       <use xlink:href="#DejaVuSans-30"/>
       <use xlink:href="#DejaVuSans-2e" x="63.623047"/>
       <use xlink:href="#DejaVuSans-30" x="95.410156"/>
      </g>
     </g>
    </g>
    <g id="xtick_2">
     <g id="line2d_3">
      <path d="M 82.825899 184.36327 
L 82.825899 0.72 
" clip-path="url(#p3347466c52)" style="fill: none; stroke-dasharray: 0.8,1.32; stroke-dashoffset: 0; stroke: #000000; stroke-opacity: 0.5; stroke-width: 0.8"/>
     </g>
     <g id="line2d_4">
      <g>
       <use xlink:href="#m46b11bc930" x="82.825899" y="184.36327" style="stroke: #000000; stroke-width: 0.8"/>
      </g>
     </g>
     <g id="text_2">
      <!-- 2.5 -->
      <g transform="translate(74.874337 198.961707) scale(0.1 -0.1)">
       <defs>
        <path id="DejaVuSans-32" d="M 1228 531 
L 3431 531 
L 3431 0 
L 469 0 
L 469 531 
Q 828 903 1448 1529 
Q 2069 2156 2228 2338 
Q 2531 2678 2651 2914 
Q 2772 3150 2772 3378 
Q 2772 3750 2511 3984 
Q 2250 4219 1831 4219 
Q 1534 4219 1204 4116 
Q 875 4013 500 3803 
L 500 4441 
Q 881 4594 1212 4672 
Q 1544 4750 1819 4750 
Q 2544 4750 2975 4387 
Q 3406 4025 3406 3419 
Q 3406 3131 3298 2873 
Q 3191 2616 2906 2266 
Q 2828 2175 2409 1742 
Q 1991 1309 1228 531 
z
" transform="scale(0.015625)"/>
        <path id="DejaVuSans-35" d="M 691 4666 
L 3169 4666 
L 3169 4134 
L 1269 4134 
L 1269 2991 
Q 1406 3038 1543 3061 
Q 1681 3084 1819 3084 
Q 2600 3084 3056 2656 
Q 3513 2228 3513 1497 
Q 3513 744 3044 326 
Q 2575 -91 1722 -91 
Q 1428 -91 1123 -41 
Q 819 9 494 109 
L 494 744 
Q 775 591 1075 516 
Q 1375 441 1709 441 
Q 2250 441 2565 725 
Q 2881 1009 2881 1497 
Q 2881 1984 2565 2268 
Q 2250 2553 1709 2553 
Q 1456 2553 1204 2497 
Q 953 2441 691 2322 
L 691 4666 
z
" transform="scale(0.015625)"/>
       </defs>
       <use xlink:href="#DejaVuSans-32"/>
       <use xlink:href="#DejaVuSans-2e" x="63.623047"/>
       <use xlink:href="#DejaVuSans-35" x="95.410156"/>
      </g>
     </g>
    </g>
    <g id="xtick_3">
     <g id="line2d_5">
      <path d="M 135.528674 184.36327 
L 135.528674 0.72 
" clip-path="url(#p3347466c52)" style="fill: none; stroke-dasharray: 0.8,1.32; stroke-dashoffset: 0; stroke: #000000; stroke-opacity: 0.5; stroke-width: 0.8"/>
     </g>
     <g id="line2d_6">
      <g>
       <use xlink:href="#m46b11bc930" x="135.528674" y="184.36327" style="stroke: #000000; stroke-width: 0.8"/>
      </g>
     </g>
     <g id="text_3">
      <!-- 5.0 -->
      <g transform="translate(127.577111 198.961707) scale(0.1 -0.1)">
       <use xlink:href="#DejaVuSans-35"/>
       <use xlink:href="#DejaVuSans-2e" x="63.623047"/>
       <use xlink:href="#DejaVuSans-30" x="95.410156"/>
      </g>
     </g>
    </g>
    <g id="xtick_4">
     <g id="line2d_7">
      <path d="M 188.231448 184.36327 
L 188.231448 0.72 
" clip-path="url(#p3347466c52)" style="fill: none; stroke-dasharray: 0.8,1.32; stroke-dashoffset: 0; stroke: #000000; stroke-opacity: 0.5; stroke-width: 0.8"/>
     </g>
     <g id="line2d_8">
      <g>
       <use xlink:href="#m46b11bc930" x="188.231448" y="184.36327" style="stroke: #000000; stroke-width: 0.8"/>
      </g>
     </g>
     <g id="text_4">
      <!-- 7.5 -->
      <g transform="translate(180.279886 198.961707) scale(0.1 -0.1)">
       <defs>
        <path id="DejaVuSans-37" d="M 525 4666 
L 3525 4666 
L 3525 4397 
L 1831 0 
L 1172 0 
L 2766 4134 
L 525 4134 
L 525 4666 
z
" transform="scale(0.015625)"/>
       </defs>
       <use xlink:href="#DejaVuSans-37"/>
       <use xlink:href="#DejaVuSans-2e" x="63.623047"/>
       <use xlink:href="#DejaVuSans-35" x="95.410156"/>
      </g>
     </g>
    </g>
    <g id="xtick_5">
     <g id="line2d_9">
      <path d="M 240.934223 184.36327 
L 240.934223 0.72 
" clip-path="url(#p3347466c52)" style="fill: none; stroke-dasharray: 0.8,1.32; stroke-dashoffset: 0; stroke: #000000; stroke-opacity: 0.5; stroke-width: 0.8"/>
     </g>
     <g id="line2d_10">
      <g>
       <use xlink:href="#m46b11bc930" x="240.934223" y="184.36327" style="stroke: #000000; stroke-width: 0.8"/>
      </g>
     </g>
     <g id="text_5">
      <!-- 10.0 -->
      <g transform="translate(229.80141 198.961707) scale(0.1 -0.1)">
       <defs>
        <path id="DejaVuSans-31" d="M 794 531 
L 1825 531 
L 1825 4091 
L 703 3866 
L 703 4441 
L 1819 4666 
L 2450 4666 
L 2450 531 
L 3481 531 
L 3481 0 
L 794 0 
L 794 531 
z
" transform="scale(0.015625)"/>
       </defs>
       <use xlink:href="#DejaVuSans-31"/>
       <use xlink:href="#DejaVuSans-30" x="63.623047"/>
       <use xlink:href="#DejaVuSans-2e" x="127.246094"/>
       <use xlink:href="#DejaVuSans-30" x="159.033203"/>
      </g>
     </g>
    </g>
    <g id="xtick_6">
     <g id="line2d_11">
      <path d="M 293.636997 184.36327 
L 293.636997 0.72 
" clip-path="url(#p3347466c52)" style="fill: none; stroke-dasharray: 0.8,1.32; stroke-dashoffset: 0; stroke: #000000; stroke-opacity: 0.5; stroke-width: 0.8"/>
     </g>
     <g id="line2d_12">
      <g>
       <use xlink:href="#m46b11bc930" x="293.636997" y="184.36327" style="stroke: #000000; stroke-width: 0.8"/>
      </g>
     </g>
     <g id="text_6">
      <!-- 12.5 -->
      <g transform="translate(282.504185 198.961707) scale(0.1 -0.1)">
       <use xlink:href="#DejaVuSans-31"/>
       <use xlink:href="#DejaVuSans-32" x="63.623047"/>
       <use xlink:href="#DejaVuSans-2e" x="127.246094"/>
       <use xlink:href="#DejaVuSans-35" x="159.033203"/>
      </g>
     </g>
    </g>
    <g id="xtick_7">
     <g id="line2d_13">
      <path d="M 346.339772 184.36327 
L 346.339772 0.72 
" clip-path="url(#p3347466c52)" style="fill: none; stroke-dasharray: 0.8,1.32; stroke-dashoffset: 0; stroke: #000000; stroke-opacity: 0.5; stroke-width: 0.8"/>
     </g>
     <g id="line2d_14">
      <g>
       <use xlink:href="#m46b11bc930" x="346.339772" y="184.36327" style="stroke: #000000; stroke-width: 0.8"/>
      </g>
     </g>
     <g id="text_7">
      <!-- 15.0 -->
      <g transform="translate(335.206959 198.961707) scale(0.1 -0.1)">
       <use xlink:href="#DejaVuSans-31"/>
       <use xlink:href="#DejaVuSans-35" x="63.623047"/>
       <use xlink:href="#DejaVuSans-2e" x="127.246094"/>
       <use xlink:href="#DejaVuSans-30" x="159.033203"/>
      </g>
     </g>
    </g>
    <g id="xtick_8">
     <g id="line2d_15">
      <path d="M 399.042546 184.36327 
L 399.042546 0.72 
" clip-path="url(#p3347466c52)" style="fill: none; stroke-dasharray: 0.8,1.32; stroke-dashoffset: 0; stroke: #000000; stroke-opacity: 0.5; stroke-width: 0.8"/>
     </g>
     <g id="line2d_16">
      <g>
       <use xlink:href="#m46b11bc930" x="399.042546" y="184.36327" style="stroke: #000000; stroke-width: 0.8"/>
      </g>
     </g>
     <g id="text_8">
      <!-- 17.5 -->
      <g transform="translate(387.909734 198.961707) scale(0.1 -0.1)">
       <use xlink:href="#DejaVuSans-31"/>
       <use xlink:href="#DejaVuSans-37" x="63.623047"/>
       <use xlink:href="#DejaVuSans-2e" x="127.246094"/>
       <use xlink:href="#DejaVuSans-35" x="159.033203"/>
      </g>
     </g>
    </g>
    <g id="text_9">
     <!-- Zeit [s] -->
     <g transform="translate(210.475229 208.639832) scale(0.1 -0.1)">
      <defs>
       <path id="DejaVuSans-5a" d="M 359 4666 
L 4025 4666 
L 4025 4184 
L 1075 531 
L 4097 531 
L 4097 0 
L 288 0 
L 288 481 
L 3238 4134 
L 359 4134 
L 359 4666 
z
" transform="scale(0.015625)"/>
       <path id="DejaVuSans-65" d="M 3597 1894 
L 3597 1613 
L 953 1613 
Q 991 1019 1311 708 
Q 1631 397 2203 397 
Q 2534 397 2845 478 
Q 3156 559 3463 722 
L 3463 178 
Q 3153 47 2828 -22 
Q 2503 -91 2169 -91 
Q 1331 -91 842 396 
Q 353 884 353 1716 
Q 353 2575 817 3079 
Q 1281 3584 2069 3584 
Q 2775 3584 3186 3129 
Q 3597 2675 3597 1894 
z
M 3022 2063 
Q 3016 2534 2758 2815 
Q 2500 3097 2075 3097 
Q 1594 3097 1305 2825 
Q 1016 2553 972 2059 
L 3022 2063 
z
" transform="scale(0.015625)"/>
       <path id="DejaVuSans-69" d="M 603 3500 
L 1178 3500 
L 1178 0 
L 603 0 
L 603 3500 
z
M 603 4863 
L 1178 4863 
L 1178 4134 
L 603 4134 
L 603 4863 
z
" transform="scale(0.015625)"/>
       <path id="DejaVuSans-74" d="M 1172 4494 
L 1172 3500 
L 2356 3500 
L 2356 3053 
L 1172 3053 
L 1172 1153 
Q 1172 725 1289 603 
Q 1406 481 1766 481 
L 2356 481 
L 2356 0 
L 1766 0 
Q 1100 0 847 248 
Q 594 497 594 1153 
L 594 3053 
L 172 3053 
L 172 3500 
L 594 3500 
L 594 4494 
L 1172 4494 
z
" transform="scale(0.015625)"/>
       <path id="DejaVuSans-20" transform="scale(0.015625)"/>
       <path id="DejaVuSans-5b" d="M 550 4863 
L 1875 4863 
L 1875 4416 
L 1125 4416 
L 1125 -397 
L 1875 -397 
L 1875 -844 
L 550 -844 
L 550 4863 
z
" transform="scale(0.015625)"/>
       <path id="DejaVuSans-73" d="M 2834 3397 
L 2834 2853 
Q 2591 2978 2328 3040 
Q 2066 3103 1784 3103 
Q 1356 3103 1142 2972 
Q 928 2841 928 2578 
Q 928 2378 1081 2264 
Q 1234 2150 1697 2047 
L 1894 2003 
Q 2506 1872 2764 1633 
Q 3022 1394 3022 966 
Q 3022 478 2636 193 
Q 2250 -91 1575 -91 
Q 1294 -91 989 -36 
Q 684 19 347 128 
L 347 722 
Q 666 556 975 473 
Q 1284 391 1588 391 
Q 1994 391 2212 530 
Q 2431 669 2431 922 
Q 2431 1156 2273 1281 
Q 2116 1406 1581 1522 
L 1381 1569 
Q 847 1681 609 1914 
Q 372 2147 372 2553 
Q 372 3047 722 3315 
Q 1072 3584 1716 3584 
Q 2034 3584 2315 3537 
Q 2597 3491 2834 3397 
z
" transform="scale(0.015625)"/>
       <path id="DejaVuSans-5d" d="M 1947 4863 
L 1947 -844 
L 622 -844 
L 622 -397 
L 1369 -397 
L 1369 4416 
L 622 4416 
L 622 4863 
L 1947 4863 
z
" transform="scale(0.015625)"/>
      </defs>
      <use xlink:href="#DejaVuSans-5a"/>
      <use xlink:href="#DejaVuSans-65" x="68.505859"/>
      <use xlink:href="#DejaVuSans-69" x="130.029297"/>
      <use xlink:href="#DejaVuSans-74" x="157.8125"/>
      <use xlink:href="#DejaVuSans-20" x="197.021484"/>
      <use xlink:href="#DejaVuSans-5b" x="228.808594"/>
      <use xlink:href="#DejaVuSans-73" x="267.822266"/>
      <use xlink:href="#DejaVuSans-5d" x="319.921875"/>
     </g>
    </g>
   </g>
   <g id="matplotlib.axis_2">
    <g id="ytick_1">
     <g id="line2d_17">
      <path d="M 30.123125 175.78014 
L 426.71952 175.78014 
" clip-path="url(#p3347466c52)" style="fill: none; stroke-dasharray: 0.8,1.32; stroke-dashoffset: 0; stroke: #000000; stroke-opacity: 0.5; stroke-width: 0.8"/>
     </g>
     <g id="line2d_18">
      <defs>
       <path id="mc7eb92ff49" d="M 0 0 
L -3.5 0 
" style="stroke: #000000; stroke-width: 0.8"/>
      </defs>
      <g>
       <use xlink:href="#mc7eb92ff49" x="30.123125" y="175.78014" style="stroke: #000000; stroke-width: 0.8"/>
      </g>
     </g>
     <g id="text_10">
      <!-- 15 -->
      <g transform="translate(10.398125 179.579358) scale(0.1 -0.1)">
       <use xlink:href="#DejaVuSans-31"/>
       <use xlink:href="#DejaVuSans-35" x="63.623047"/>
      </g>
     </g>
    </g>
    <g id="ytick_2">
     <g id="line2d_19">
      <path d="M 30.123125 144.843284 
L 426.71952 144.843284 
" clip-path="url(#p3347466c52)" style="fill: none; stroke-dasharray: 0.8,1.32; stroke-dashoffset: 0; stroke: #000000; stroke-opacity: 0.5; stroke-width: 0.8"/>
     </g>
     <g id="line2d_20">
      <g>
       <use xlink:href="#mc7eb92ff49" x="30.123125" y="144.843284" style="stroke: #000000; stroke-width: 0.8"/>
      </g>
     </g>
     <g id="text_11">
      <!-- 20 -->
      <g transform="translate(10.398125 148.642503) scale(0.1 -0.1)">
       <use xlink:href="#DejaVuSans-32"/>
       <use xlink:href="#DejaVuSans-30" x="63.623047"/>
      </g>
     </g>
    </g>
    <g id="ytick_3">
     <g id="line2d_21">
      <path d="M 30.123125 113.906428 
L 426.71952 113.906428 
" clip-path="url(#p3347466c52)" style="fill: none; stroke-dasharray: 0.8,1.32; stroke-dashoffset: 0; stroke: #000000; stroke-opacity: 0.5; stroke-width: 0.8"/>
     </g>
     <g id="line2d_22">
      <g>
       <use xlink:href="#mc7eb92ff49" x="30.123125" y="113.906428" style="stroke: #000000; stroke-width: 0.8"/>
      </g>
     </g>
     <g id="text_12">
      <!-- 25 -->
      <g transform="translate(10.398125 117.705647) scale(0.1 -0.1)">
       <use xlink:href="#DejaVuSans-32"/>
       <use xlink:href="#DejaVuSans-35" x="63.623047"/>
      </g>
     </g>
    </g>
    <g id="ytick_4">
     <g id="line2d_23">
      <path d="M 30.123125 82.969573 
L 426.71952 82.969573 
" clip-path="url(#p3347466c52)" style="fill: none; stroke-dasharray: 0.8,1.32; stroke-dashoffset: 0; stroke: #000000; stroke-opacity: 0.5; stroke-width: 0.8"/>
     </g>
     <g id="line2d_24">
      <g>
       <use xlink:href="#mc7eb92ff49" x="30.123125" y="82.969573" style="stroke: #000000; stroke-width: 0.8"/>
      </g>
     </g>
     <g id="text_13">
      <!-- 30 -->
      <g transform="translate(10.398125 86.768792) scale(0.1 -0.1)">
       <defs>
        <path id="DejaVuSans-33" d="M 2597 2516 
Q 3050 2419 3304 2112 
Q 3559 1806 3559 1356 
Q 3559 666 3084 287 
Q 2609 -91 1734 -91 
Q 1441 -91 1130 -33 
Q 819 25 488 141 
L 488 750 
Q 750 597 1062 519 
Q 1375 441 1716 441 
Q 2309 441 2620 675 
Q 2931 909 2931 1356 
Q 2931 1769 2642 2001 
Q 2353 2234 1838 2234 
L 1294 2234 
L 1294 2753 
L 1863 2753 
Q 2328 2753 2575 2939 
Q 2822 3125 2822 3475 
Q 2822 3834 2567 4026 
Q 2313 4219 1838 4219 
Q 1578 4219 1281 4162 
Q 984 4106 628 3988 
L 628 4550 
Q 988 4650 1302 4700 
Q 1616 4750 1894 4750 
Q 2613 4750 3031 4423 
Q 3450 4097 3450 3541 
Q 3450 3153 3228 2886 
Q 3006 2619 2597 2516 
z
" transform="scale(0.015625)"/>
       </defs>
       <use xlink:href="#DejaVuSans-33"/>
       <use xlink:href="#DejaVuSans-30" x="63.623047"/>
      </g>
     </g>
    </g>
    <g id="ytick_5">
     <g id="line2d_25">
      <path d="M 30.123125 52.032717 
L 426.71952 52.032717 
" clip-path="url(#p3347466c52)" style="fill: none; stroke-dasharray: 0.8,1.32; stroke-dashoffset: 0; stroke: #000000; stroke-opacity: 0.5; stroke-width: 0.8"/>
     </g>
     <g id="line2d_26">
      <g>
       <use xlink:href="#mc7eb92ff49" x="30.123125" y="52.032717" style="stroke: #000000; stroke-width: 0.8"/>
      </g>
     </g>
     <g id="text_14">
      <!-- 35 -->
      <g transform="translate(10.398125 55.831936) scale(0.1 -0.1)">
       <use xlink:href="#DejaVuSans-33"/>
       <use xlink:href="#DejaVuSans-35" x="63.623047"/>
      </g>
     </g>
    </g>
    <g id="ytick_6">
     <g id="line2d_27">
      <path d="M 30.123125 21.095862 
L 426.71952 21.095862 
" clip-path="url(#p3347466c52)" style="fill: none; stroke-dasharray: 0.8,1.32; stroke-dashoffset: 0; stroke: #000000; stroke-opacity: 0.5; stroke-width: 0.8"/>
     </g>
     <g id="line2d_28">
      <g>
       <use xlink:href="#mc7eb92ff49" x="30.123125" y="21.095862" style="stroke: #000000; stroke-width: 0.8"/>
      </g>
     </g>
     <g id="text_15">
      <!-- 40 -->
      <g transform="translate(10.398125 24.895081) scale(0.1 -0.1)">
       <defs>
        <path id="DejaVuSans-34" d="M 2419 4116 
L 825 1625 
L 2419 1625 
L 2419 4116 
z
M 2253 4666 
L 3047 4666 
L 3047 1625 
L 3713 1625 
L 3713 1100 
L 3047 1100 
L 3047 0 
L 2419 0 
L 2419 1100 
L 313 1100 
L 313 1709 
L 2253 4666 
z
" transform="scale(0.015625)"/>
       </defs>
       <use xlink:href="#DejaVuSans-34"/>
       <use xlink:href="#DejaVuSans-30" x="63.623047"/>
      </g>
     </g>
    </g>
    <g id="text_16">
     <!-- 2-Norm M [Nm] -->
     <g transform="translate(8.318438 131.16976) rotate(-90) scale(0.1 -0.1)">
      <defs>
       <path id="DejaVuSans-2d" d="M 313 2009 
L 1997 2009 
L 1997 1497 
L 313 1497 
L 313 2009 
z
" transform="scale(0.015625)"/>
       <path id="DejaVuSans-4e" d="M 628 4666 
L 1478 4666 
L 3547 763 
L 3547 4666 
L 4159 4666 
L 4159 0 
L 3309 0 
L 1241 3903 
L 1241 0 
L 628 0 
L 628 4666 
z
" transform="scale(0.015625)"/>
       <path id="DejaVuSans-6f" d="M 1959 3097 
Q 1497 3097 1228 2736 
Q 959 2375 959 1747 
Q 959 1119 1226 758 
Q 1494 397 1959 397 
Q 2419 397 2687 759 
Q 2956 1122 2956 1747 
Q 2956 2369 2687 2733 
Q 2419 3097 1959 3097 
z
M 1959 3584 
Q 2709 3584 3137 3096 
Q 3566 2609 3566 1747 
Q 3566 888 3137 398 
Q 2709 -91 1959 -91 
Q 1206 -91 779 398 
Q 353 888 353 1747 
Q 353 2609 779 3096 
Q 1206 3584 1959 3584 
z
" transform="scale(0.015625)"/>
       <path id="DejaVuSans-72" d="M 2631 2963 
Q 2534 3019 2420 3045 
Q 2306 3072 2169 3072 
Q 1681 3072 1420 2755 
Q 1159 2438 1159 1844 
L 1159 0 
L 581 0 
L 581 3500 
L 1159 3500 
L 1159 2956 
Q 1341 3275 1631 3429 
Q 1922 3584 2338 3584 
Q 2397 3584 2469 3576 
Q 2541 3569 2628 3553 
L 2631 2963 
z
" transform="scale(0.015625)"/>
       <path id="DejaVuSans-6d" d="M 3328 2828 
Q 3544 3216 3844 3400 
Q 4144 3584 4550 3584 
Q 5097 3584 5394 3201 
Q 5691 2819 5691 2113 
L 5691 0 
L 5113 0 
L 5113 2094 
Q 5113 2597 4934 2840 
Q 4756 3084 4391 3084 
Q 3944 3084 3684 2787 
Q 3425 2491 3425 1978 
L 3425 0 
L 2847 0 
L 2847 2094 
Q 2847 2600 2669 2842 
Q 2491 3084 2119 3084 
Q 1678 3084 1418 2786 
Q 1159 2488 1159 1978 
L 1159 0 
L 581 0 
L 581 3500 
L 1159 3500 
L 1159 2956 
Q 1356 3278 1631 3431 
Q 1906 3584 2284 3584 
Q 2666 3584 2933 3390 
Q 3200 3197 3328 2828 
z
" transform="scale(0.015625)"/>
       <path id="DejaVuSans-4d" d="M 628 4666 
L 1569 4666 
L 2759 1491 
L 3956 4666 
L 4897 4666 
L 4897 0 
L 4281 0 
L 4281 4097 
L 3078 897 
L 2444 897 
L 1241 4097 
L 1241 0 
L 628 0 
L 628 4666 
z
" transform="scale(0.015625)"/>
      </defs>
      <use xlink:href="#DejaVuSans-32"/>
      <use xlink:href="#DejaVuSans-2d" x="63.623047"/>
      <use xlink:href="#DejaVuSans-4e" x="99.707031"/>
      <use xlink:href="#DejaVuSans-6f" x="174.511719"/>
      <use xlink:href="#DejaVuSans-72" x="235.693359"/>
      <use xlink:href="#DejaVuSans-6d" x="275.056641"/>
      <use xlink:href="#DejaVuSans-20" x="372.46875"/>
      <use xlink:href="#DejaVuSans-4d" x="404.255859"/>
      <use xlink:href="#DejaVuSans-20" x="490.535156"/>
      <use xlink:href="#DejaVuSans-5b" x="522.322266"/>
      <use xlink:href="#DejaVuSans-4e" x="561.335938"/>
      <use xlink:href="#DejaVuSans-6d" x="636.140625"/>
      <use xlink:href="#DejaVuSans-5d" x="733.552734"/>
     </g>
    </g>
   </g>
   <g id="line2d_29">
    <path d="M 30.123125 166.718433 
L 161.430409 166.718433 
L 161.647741 142.558972 
L 161.774107 163.178432 
L 161.998818 162.598243 
L 162.150184 158.422644 
L 162.489776 166.287042 
L 163.04059 172.258452 
L 163.20909 171.640225 
L 163.378075 172.46835 
L 163.547253 170.027451 
L 163.75957 171.721863 
L 163.888791 169.971482 
L 164.227888 171.145055 
L 164.397313 168.197438 
L 164.437407 171.608195 
L 164.776901 169.888912 
L 164.945528 170.806032 
L 165.157176 170.031035 
L 165.498933 170.739377 
L 165.668752 167.478027 
L 165.879072 171.080733 
L 166.228054 170.984214 
L 166.352036 172.894415 
L 166.730772 170.81641 
L 166.900755 170.903502 
L 167.112034 166.726801 
L 167.387649 168.958486 
L 167.41151 168.396984 
L 167.959347 170.144575 
L 168.301554 168.964765 
L 168.509423 169.410655 
L 168.636955 161.289214 
L 168.806665 170.618073 
L 168.975755 167.212032 
L 169.188343 168.396946 
L 169.398865 163.988458 
L 169.52595 170.737187 
L 169.865192 163.656345 
L 170.090275 168.084613 
L 170.299437 165.927647 
L 170.427234 167.246246 
L 170.553549 166.586259 
L 170.766587 164.344528 
L 170.935084 165.739427 
L 171.316425 164.362936 
L 171.485496 168.231782 
L 171.698237 169.858946 
L 172.121494 163.075659 
L 172.1643 168.25243 
L 172.50382 164.884785 
L 172.842744 168.85858 
L 173.016003 165.88165 
L 173.223325 171.018113 
L 173.353007 168.194842 
L 173.773281 164.323083 
L 173.900679 169.351091 
L 174.324346 158.988967 
L 174.451892 166.846452 
L 174.620548 162.952614 
L 174.789893 162.359886 
L 175.214102 166.460815 
L 175.425974 167.271636 
L 175.553177 161.212082 
L 175.764443 160.565976 
L 175.852121 163.158871 
L 176.063313 162.350617 
L 176.359697 156.285223 
L 176.557477 163.137039 
L 176.719713 162.100478 
L 176.889358 165.189782 
L 177.248345 163.238025 
L 177.417469 166.349523 
L 177.745055 160.606986 
L 177.84116 155.553372 
L 178.137435 164.036142 
L 178.30762 158.604175 
L 178.645429 166.7896 
L 179.111537 152.623783 
L 179.408577 161.758064 
L 179.625663 161.304564 
L 179.748024 154.126266 
L 179.888847 159.232534 
L 180.110483 159.543915 
L 180.299667 159.026636 
L 180.385117 156.53439 
L 180.5696 156.965943 
L 180.936557 166.764698 
L 181.147761 156.228797 
L 181.276348 158.133316 
L 181.486416 149.610104 
L 181.656413 153.231131 
L 181.868315 162.848097 
L 182.038772 161.397539 
L 182.168052 156.327671 
L 182.335043 158.805989 
L 182.546678 163.663248 
L 182.673868 155.385968 
L 182.886974 153.449696 
L 183.097042 158.590037 
L 183.224961 158.508494 
L 183.394285 159.12694 
L 183.56438 145.549614 
L 183.734671 156.297052 
L 183.902566 155.391727 
L 184.453401 146.1364 
L 184.496864 158.602456 
L 184.622598 151.28239 
L 184.79248 150.042155 
L 184.962167 154.434922 
L 185.132542 150.807384 
L 185.428824 151.808796 
L 185.51484 154.482367 
L 185.725282 144.063998 
L 185.853201 158.355118 
L 186.27569 147.110543 
L 186.446299 151.382014 
L 186.540187 139.885696 
L 186.741041 145.900797 
L 186.953119 139.123851 
L 187.187454 150.812505 
L 187.359619 151.240567 
L 187.67454 142.212858 
L 187.760693 148.640721 
L 187.971573 146.535122 
L 188.226147 155.150638 
L 188.491706 149.799475 
L 188.690603 141.600601 
L 188.95567 147.028562 
L 189.034432 143.167263 
L 189.206591 144.741893 
L 189.368239 147.348943 
L 189.537382 156.271772 
L 189.791526 147.540749 
L 189.918795 137.188101 
L 190.215079 146.06772 
L 190.299801 140.541895 
L 190.469311 147.087913 
L 190.597566 136.586654 
L 190.851555 147.00481 
L 191.021251 146.207275 
L 191.146984 146.686287 
L 191.318034 152.328965 
L 191.613169 133.233128 
L 191.784344 141.869098 
L 191.952319 132.334038 
L 191.995124 148.607679 
L 192.164023 149.354227 
L 192.376287 145.884533 
L 192.593747 148.6014 
L 192.75751 139.835608 
L 192.927232 143.75454 
L 193.066702 141.777257 
L 193.308105 146.002294 
L 193.477626 132.903382 
L 193.616064 136.757748 
L 193.775259 146.460569 
L 194.114193 137.647315 
L 194.325277 144.575752 
L 194.578832 145.424173 
L 194.748241 144.180983 
L 194.833105 145.46257 
L 195.129368 139.485241 
L 195.172747 132.75939 
L 195.341477 134.420177 
L 195.596059 138.847161 
L 195.768817 131.08221 
L 196.062625 142.077363 
L 196.275111 141.390097 
L 196.403413 134.906561 
L 196.570375 137.289485 
L 196.739915 132.358936 
L 196.915731 123.692575 
L 197.121037 135.061268 
L 197.248351 135.828419 
L 197.48015 140.323435 
L 197.657781 135.592143 
L 197.969721 131.212004 
L 198.239367 137.552308 
L 198.52381 139.505489 
L 198.775256 139.638873 
L 198.861797 130.944789 
L 199.07134 138.325883 
L 199.203239 131.594219 
L 199.500713 136.893921 
L 199.668983 133.841674 
L 199.749301 141.719732 
L 200.187826 126.707528 
L 200.301521 137.155918 
L 200.430514 133.856142 
L 200.683007 134.868593 
L 200.788702 128.32689 
L 201.024141 137.173117 
L 201.193374 135.752518 
L 201.362048 137.775796 
L 201.490806 127.285855 
L 201.828146 133.240189 
L 202.039924 131.877912 
L 202.463202 121.242994 
L 202.590877 134.802188 
L 202.89932 122.887902 
L 203.098227 132.506743 
L 203.268613 120.698593 
L 203.56718 129.514447 
L 203.776639 122.295332 
L 203.947169 120.420924 
L 204.116307 123.630355 
L 204.370741 141.924395 
L 204.672472 114.317308 
L 204.836717 128.726819 
L 205.009713 133.125752 
L 205.218008 128.212285 
L 205.344681 116.506459 
L 205.810796 127.176913 
L 205.896329 121.677709 
L 206.06549 138.004227 
L 206.238494 123.395689 
L 206.405158 123.19381 
L 206.577675 117.301529 
L 206.928078 124.360298 
L 207.08564 131.545596 
L 207.381778 127.756298 
L 207.469729 119.934919 
L 207.636659 125.221996 
L 207.805922 116.750401 
L 207.975575 129.312209 
L 208.187965 131.48981 
L 208.334182 129.045759 
L 208.486494 112.854058 
L 209.035642 134.370348 
L 209.120881 119.175069 
L 209.204924 133.940821 
L 209.50165 110.636479 
L 209.548127 127.848445 
L 209.936743 123.552867 
L 210.067739 128.099086 
L 210.433873 111.007489 
L 210.602746 122.909374 
L 210.814813 120.851038 
L 210.984208 122.655674 
L 211.15356 116.267554 
L 211.364956 119.085879 
L 211.495787 119.313907 
L 211.662933 112.567143 
L 211.873967 126.070256 
L 212.213597 115.218818 
L 212.550962 123.838609 
L 212.720859 123.333848 
L 213.101394 112.46304 
L 213.276463 117.969707 
L 213.441322 118.999281 
L 213.570151 121.350299 
L 213.821911 120.64693 
L 213.957283 114.911923 
L 214.161025 117.460869 
L 214.290003 113.058258 
L 214.50994 114.810951 
L 214.627553 126.522671 
L 214.798203 120.591093 
L 215.009468 118.619407 
L 215.178289 111.450446 
L 215.347589 130.695093 
L 215.701621 120.067061 
L 215.858458 122.912003 
L 216.111171 123.161116 
L 216.238345 128.697865 
L 216.407831 113.846091 
L 216.588366 116.736988 
L 216.748703 111.137467 
L 217.127931 124.422492 
L 217.339682 114.960364 
L 217.467122 118.893023 
L 217.720897 115.719061 
L 217.847967 128.367661 
L 217.976159 110.706201 
L 218.356098 123.379407 
L 218.500881 120.546263 
L 218.700664 122.364218 
L 218.908907 121.754314 
L 219.120212 115.325609 
L 219.247622 117.703859 
L 219.501498 120.206776 
L 219.924913 111.109545 
L 220.136612 120.033912 
L 220.266396 107.79572 
L 220.51958 108.662612 
L 220.6452 124.227403 
L 220.815411 112.541797 
L 220.953662 120.378234 
L 221.596192 115.011911 
L 221.715544 106.538726 
L 221.879837 125.257608 
L 222.049543 124.324875 
L 222.263727 118.186014 
L 222.439627 122.291917 
L 222.600834 113.770068 
L 222.70171 118.897604 
L 223.039195 109.248463 
L 223.090016 115.189881 
L 223.294282 116.015411 
L 223.463483 110.591516 
L 223.591938 121.32958 
L 223.8448 126.906932 
L 223.971979 117.303838 
L 224.35494 114.31724 
L 224.52279 121.739915 
L 224.866834 110.777087 
L 225.03118 117.786001 
L 225.285092 120.25668 
L 225.372097 4.251601 
L 225.793466 23.136484 
L 226.09929 104.205252 
L 226.344051 102.613525 
L 226.599023 129.077052 
L 226.811414 122.726488 
L 227.064697 124.496946 
L 227.127607 126.019048 
L 227.365275 128.433317 
L 227.590728 127.741217 
L 227.674485 127.77655 
L 227.847389 128.061299 
L 228.060798 124.008383 
L 228.142151 124.191882 
L 228.355992 124.040753 
L 228.817729 124.171857 
L 228.902703 123.061355 
L 229.029989 123.164883 
L 229.285671 124.215779 
L 229.456363 124.383959 
L 229.623898 123.323969 
L 229.839316 121.218727 
L 229.922456 123.052445 
L 230.132561 120.059867 
L 230.429409 123.247497 
L 230.640215 123.042581 
L 230.810847 123.240754 
L 230.979436 124.276983 
L 231.322223 123.54388 
L 231.531017 124.855372 
L 231.701276 124.526289 
L 232.038449 123.020507 
L 232.215049 123.380536 
L 232.378217 123.202689 
L 232.549108 123.198935 
L 232.718301 121.013104 
L 233.013519 121.269589 
L 233.098697 127.344347 
L 233.397525 121.971356 
L 233.444066 124.235924 
L 233.609304 122.831073 
L 233.819635 123.273176 
L 234.200055 122.62597 
L 234.327082 122.99519 
L 234.497257 124.52158 
L 234.67004 124.30525 
L 234.837901 123.507293 
L 235.06648 124.137898 
L 235.34363 122.868538 
L 235.386025 123.59732 
L 235.555667 123.129785 
L 235.725074 123.266272 
L 235.896534 122.855216 
L 236.064469 124.518821 
L 236.234316 124.761811 
L 236.446666 121.865099 
L 236.715023 123.380356 
L 236.954204 120.946614 
L 237.122748 124.170077 
L 237.419461 123.167873 
L 237.504269 123.216489 
L 237.716558 123.24913 
L 237.844738 122.029078 
L 238.054962 123.017244 
L 238.236451 121.608639 
L 238.581756 123.779117 
L 238.73852 122.589255 
L 239.240718 123.842403 
L 239.793208 122.199085 
L 239.962849 123.554383 
L 240.132779 123.104326 
L 240.307297 121.987689 
L 240.559645 124.075268 
L 240.873684 123.030066 
L 241.021898 123.098042 
L 241.361774 120.943054 
L 241.548169 121.733735 
L 241.699511 123.683754 
L 242.039676 123.696783 
L 242.208459 122.672008 
L 242.589775 123.796485 
L 242.802307 122.862613 
L 242.930499 123.239327 
L 243.104306 124.548318 
L 243.376815 121.951074 
L 243.457357 123.636949 
L 243.69418 122.950993 
L 243.907216 124.652747 
L 243.991807 122.905903 
L 244.287309 123.171297 
L 244.372125 123.010316 
L 244.710727 123.84342 
L 244.922658 121.481259 
L 245.049677 122.885848 
L 245.219076 123.169091 
L 245.3887 122.989333 
L 245.558972 123.730313 
L 245.773743 122.25643 
L 245.897876 122.213894 
L 246.109951 123.76134 
L 246.253756 123.391051 
L 246.44791 123.277803 
L 246.702697 121.374927 
L 246.802299 123.243994 
L 246.957153 123.23819 
L 247.125897 123.427705 
L 247.422332 123.092053 
L 247.506751 123.749716 
L 247.847608 122.608945 
L 248.017041 123.063525 
L 248.235839 122.805198 
L 248.398067 122.242116 
L 248.528754 124.099 
L 248.735947 122.905221 
L 248.950324 122.914212 
L 249.118574 124.267726 
L 249.244683 122.31959 
L 249.419659 123.360414 
L 249.62552 123.706548 
L 249.836662 123.417932 
L 249.963855 122.9548 
L 250.133847 123.213248 
L 250.431783 123.431222 
L 250.474505 123.138406 
L 250.826047 123.283237 
L 250.985722 122.234674 
L 251.2367 123.304393 
L 251.406349 123.2506 
L 251.617816 122.86671 
L 251.914486 124.747833 
L 252.126409 122.697729 
L 252.423011 123.304537 
L 252.591982 124.59511 
L 252.84593 120.905674 
L 252.974314 123.488136 
L 253.185567 122.621927 
L 253.397309 123.45271 
L 253.482509 123.02037 
L 253.651974 121.198283 
L 253.90543 123.567118 
L 254.203275 123.36589 
L 254.498072 124.428688 
L 254.70994 122.163281 
L 254.879815 123.259563 
L 255.048954 123.054729 
L 255.261167 123.354834 
L 255.472717 123.242141 
L 255.563689 121.421207 
L 255.778345 123.239764 
L 255.946801 123.262601 
L 256.277423 121.228413 
L 256.575478 121.461924 
L 256.658939 123.663985 
L 256.788106 123.120868 
L 257.03967 123.372352 
L 257.252394 123.047736 
L 257.346781 122.525979 
L 257.644858 123.235879 
L 257.721084 122.32579 
L 257.890314 122.221544 
L 258.05988 123.461923 
L 258.233842 123.444567 
L 258.441146 123.209018 
L 258.568209 123.389884 
L 258.784799 122.760873 
L 258.956482 121.684788 
L 259.162306 124.434873 
L 259.248789 122.003796 
L 259.428546 123.067275 
L 259.632102 122.178512 
L 259.807066 123.301011 
L 259.967275 123.221299 
L 260.179472 122.897739 
L 260.348945 123.850193 
L 260.518509 123.337252 
L 260.722874 122.105438 
L 260.902935 124.572891 
L 261.05924 123.122703 
L 261.200363 123.466884 
L 261.409584 121.36099 
L 261.748455 123.188625 
L 261.91718 123.416589 
L 262.129427 122.96509 
L 262.256265 123.268674 
L 262.425473 122.978806 
L 262.637231 124.653592 
L 262.848995 123.362909 
L 262.976207 123.527959 
L 263.196482 121.420572 
L 263.360816 123.240065 
L 263.699092 123.183091 
L 263.823927 122.957731 
L 264.037093 123.236109 
L 264.204083 122.334041 
L 264.429262 122.222385 
L 264.545142 123.576876 
L 264.759555 121.653712 
L 264.970358 123.254533 
L 265.103641 123.011376 
L 265.267848 123.143127 
L 265.398992 123.659401 
L 265.606816 123.597573 
L 265.904298 124.705813 
L 265.989883 122.63588 
L 266.286524 123.433979 
L 266.455063 123.108361 
L 266.666224 121.49801 
L 266.838781 122.970331 
L 267.005122 123.012448 
L 267.174769 123.342262 
L 267.386396 123.071958 
L 267.767353 121.863802 
L 268.147936 123.447581 
L 268.529896 121.289018 
L 268.571647 124.884941 
L 269.038157 122.885784 
L 269.08285 123.056419 
L 269.344453 123.097199 
L 269.46201 123.394069 
L 269.633034 122.335361 
L 269.885272 123.370999 
L 270.013033 123.255384 
L 270.229195 122.422862 
L 270.354107 124.674061 
L 270.521021 123.47765 
L 270.904363 123.38623 
L 271.03149 120.953772 
L 271.19991 121.288679 
L 271.398781 123.531993 
L 271.751749 123.224907 
L 271.921105 123.27609 
L 272.132595 121.308313 
L 272.260131 123.273587 
L 272.515151 122.913302 
L 272.683717 124.053441 
L 272.810822 123.653976 
L 273.065186 123.460524 
L 273.149796 122.619365 
L 273.319842 122.726871 
L 273.53148 122.542559 
L 273.700555 123.322369 
L 273.954562 123.362811 
L 274.081203 123.117311 
L 274.383492 123.269243 
L 274.54759 123.842751 
L 274.717998 122.315248 
L 274.929325 123.567991 
L 275.056104 122.972451 
L 275.268003 123.354632 
L 275.437455 123.253856 
L 275.606669 121.795302 
L 275.776467 123.391826 
L 275.945389 123.605307 
L 276.412117 122.079978 
L 276.495597 121.350636 
L 276.708887 123.175521 
L 276.919068 123.371608 
L 277.09288 124.226097 
L 277.215564 121.712132 
L 277.512329 123.278855 
L 277.555402 123.138449 
L 277.725177 123.036766 
L 278.020969 123.268956 
L 278.106425 120.898526 
L 278.316665 124.261263 
L 278.444297 123.115364 
L 278.613331 123.165388 
L 278.783207 121.480609 
L 279.121642 123.27957 
L 279.293612 123.496226 
L 279.503078 123.14961 
L 279.842886 123.25044 
L 280.09707 123.243148 
L 280.181148 122.398493 
L 280.564097 124.700628 
L 281.070263 123.300515 
L 281.339236 123.285181 
L 281.413568 123.107112 
L 281.579135 123.961259 
L 281.749517 121.760707 
L 282.090818 123.401495 
L 282.384754 121.470426 
L 282.543679 124.179632 
L 282.639162 123.453111 
L 283.358707 123.499791 
L 283.613416 122.841466 
L 283.698004 121.753432 
L 283.910159 122.717892 
L 284.08315 122.934292 
L 284.248978 122.364792 
L 284.546021 123.09519 
L 284.717118 123.412865 
L 284.928266 123.531366 
L 285.096261 123.385177 
L 285.265392 121.999646 
L 285.520056 123.272534 
L 285.646819 122.781141 
L 285.81626 123.098915 
L 285.985482 121.507034 
L 286.155217 123.270228 
L 286.368016 123.357863 
L 286.622105 122.862838 
L 286.792443 122.801935 
L 286.961446 124.486006 
L 287.046038 122.001349 
L 287.386206 123.586578 
L 287.560692 122.464774 
L 287.766851 122.016794 
L 287.937778 123.463866 
L 288.105404 123.604888 
L 288.317828 123.062714 
L 288.445471 123.419711 
L 288.657688 124.657704 
L 288.783956 122.247534 
L 288.953321 123.357037 
L 289.123111 123.226709 
L 289.334775 122.779526 
L 289.470734 124.387606 
L 289.638447 123.311353 
L 289.843826 122.977094 
L 290.184952 123.553234 
L 290.354683 122.666382 
L 290.572579 124.535608 
L 290.734475 123.126744 
L 291.245322 124.649347 
L 291.414636 123.412825 
L 291.623541 123.470012 
L 291.794655 122.839448 
L 292.004972 123.118483 
L 292.133539 124.771478 
L 292.301828 124.669302 
L 292.471768 122.963929 
L 292.642922 123.162116 
L 292.896673 122.487005 
L 293.024992 124.740619 
L 293.194252 123.270283 
L 293.394321 123.216169 
L 293.619407 123.544348 
L 293.787105 122.022074 
L 293.871746 124.529997 
L 294.041821 124.623229 
L 294.25315 122.987518 
L 294.466071 123.100152 
L 294.594073 123.685408 
L 294.763485 122.609171 
L 294.97584 123.213363 
L 295.10182 123.016468 
L 295.314505 123.076313 
L 295.483354 123.741986 
L 295.653227 121.235605 
L 295.949234 123.246717 
L 296.000956 122.972972 
L 296.204314 123.305941 
L 296.339898 123.86894 
L 296.620227 121.92617 
L 296.711246 123.751683 
L 296.874676 123.251893 
L 297.087949 123.004032 
L 297.342291 123.078261 
L 297.385577 121.461341 
L 297.596457 123.580154 
L 297.765439 123.531165 
L 298.11486 123.236307 
L 298.401693 123.561384 
L 298.444315 123.44738 
L 298.65639 123.616713 
L 298.828636 123.205238 
L 299.000083 123.970715 
L 299.140187 122.60425 
L 299.335242 123.981271 
L 299.88803 122.933481 
L 300.184596 123.282941 
L 300.226685 123.101258 
L 300.3969 123.75304 
L 300.650095 123.368361 
L 300.777042 122.037995 
L 300.906614 122.08697 
L 301.074701 121.751775 
L 301.244204 123.143583 
L 301.470842 123.249919 
L 301.627263 123.094762 
L 301.795353 124.213114 
L 301.96383 123.157437 
L 302.133749 123.330301 
L 302.345621 123.152964 
L 302.474282 123.483707 
L 302.852799 123.791498 
L 302.858849 87.095744 
L 303.025616 123.440805 
L 303.278822 121.616915 
L 303.406597 122.340025 
L 303.582249 122.407363 
L 303.747292 123.420701 
L 304.000772 123.449021 
L 304.085778 122.199188 
L 304.217083 123.399254 
L 304.424429 123.662931 
L 304.594053 123.240828 
L 304.764277 123.337758 
L 304.934748 123.637894 
L 305.23299 124.712477 
L 305.271806 121.435621 
L 305.527071 123.175275 
L 305.657557 123.042285 
L 305.824236 123.254965 
L 305.994055 123.286949 
L 306.292305 123.217086 
L 306.381132 122.420275 
L 306.562601 123.404124 
L 306.714535 121.624263 
L 306.890284 121.876427 
L 306.926993 123.700949 
L 307.096785 124.212942 
L 307.266957 123.229488 
L 307.396836 123.678793 
L 307.565109 123.166466 
L 307.77508 123.223356 
L 308.113935 124.764283 
L 308.623 120.779605 
L 309.020663 123.27822 
L 309.175719 123.355387 
L 309.34322 94.351762 
L 309.513708 118.136574 
L 309.688532 116.682113 
L 309.867755 117.999096 
L 310.032922 123.833154 
L 310.199132 117.72191 
L 310.383457 119.878423 
L 310.622084 119.328381 
L 310.83998 124.920496 
L 310.932718 122.901764 
L 311.134853 122.580675 
L 311.307739 129.996384 
L 311.772921 118.967794 
L 312.15808 128.682348 
L 312.495638 122.335842 
L 312.759017 125.728712 
L 312.873276 130.458394 
L 313.088602 122.704011 
L 313.255523 123.326158 
L 313.424762 124.90196 
L 313.63831 122.192301 
L 313.808485 122.480955 
L 314.027175 118.458812 
L 314.236538 122.984801 
L 314.617614 127.985168 
L 315.208158 120.844694 
L 315.353341 122.853261 
L 315.505385 116.54355 
L 315.718049 120.731604 
L 315.844835 131.398379 
L 316.014367 125.88093 
L 316.18625 132.211745 
L 316.523845 119.116946 
L 316.777556 125.927339 
L 317.093199 123.559524 
L 317.245815 130.734833 
L 317.53417 119.147012 
L 317.836171 126.972581 
L 317.999929 121.478347 
L 318.211707 127.9231 
L 318.339887 121.171902 
L 318.466581 122.898187 
L 318.805448 124.694039 
L 318.892064 123.430226 
L 319.06051 123.846478 
L 319.189535 125.699479 
L 319.441923 121.337207 
L 319.531197 126.953177 
L 319.714807 128.663481 
L 320.078216 122.954346 
L 320.250245 123.713739 
L 320.417946 132.122288 
L 320.590623 125.806561 
L 320.757625 129.820182 
L 320.927305 122.255497 
L 321.104109 121.786193 
L 321.27005 119.004999 
L 321.482542 128.010144 
L 321.616112 122.91987 
L 321.82189 119.91598 
L 321.991001 119.883175 
L 322.161199 125.2769 
L 322.456979 125.51161 
L 322.519366 123.221845 
L 322.711929 129.372324 
L 322.923035 123.488231 
L 323.134746 123.899466 
L 323.262785 120.276442 
L 323.432248 120.279738 
L 323.606653 126.4343 
L 323.77208 125.300904 
L 323.900399 125.624052 
L 324.069673 130.851715 
L 324.450501 126.152283 
L 324.795161 119.873573 
L 325.059262 123.923734 
L 325.175199 122.185851 
L 325.215569 127.988351 
L 325.300658 125.322773 
L 325.531684 124.59783 
L 325.681534 117.002003 
L 325.980335 126.135328 
L 326.038276 119.528287 
L 326.19801 121.843359 
L 326.36067 132.790047 
L 326.530628 118.938435 
L 326.830195 121.86198 
L 326.96482 126.656548 
L 327.132749 115.800981 
L 327.557074 130.481021 
L 327.600188 121.830691 
L 327.897245 134.222883 
L 328.066625 125.996675 
L 328.110356 127.503628 
L 328.489361 119.576119 
L 328.828389 127.336376 
L 329.124871 123.436449 
L 329.209731 125.259014 
L 329.379625 121.614423 
L 329.553202 125.169824 
L 329.591774 123.343713 
L 329.719839 123.978399 
L 329.888578 115.147225 
L 330.059976 125.717817 
L 330.270216 120.399373 
L 330.398043 124.418735 
L 330.739155 122.712851 
L 330.951344 122.530394 
L 331.120495 127.052123 
L 331.292741 125.36206 
L 331.503014 124.99565 
L 331.800462 114.617121 
L 332.012465 129.885208 
L 332.145014 123.840831 
L 332.540626 128.734538 
L 332.69292 118.239024 
L 332.876478 122.732937 
L 333.029782 122.522154 
L 333.199908 122.814055 
L 333.375719 130.786513 
L 333.588213 122.666226 
L 333.759582 123.676129 
L 333.971786 116.590023 
L 334.138502 126.887982 
L 334.308869 121.580966 
L 334.648455 133.34305 
L 334.817489 127.424012 
L 335.100227 124.470434 
L 335.330514 128.951038 
L 335.608172 127.734063 
L 335.709492 122.778393 
L 335.927626 126.984976 
L 336.048469 121.000351 
L 336.224944 127.609407 
L 336.55895 125.156394 
L 336.732337 124.859651 
L 336.899337 123.8197 
L 337.117574 123.339003 
L 337.293661 124.979161 
L 337.45257 115.830996 
L 337.621031 127.557119 
L 338.003609 117.640689 
L 338.133824 133.633472 
L 338.344558 127.475767 
L 338.554274 124.711953 
L 338.681783 126.3094 
L 338.978796 124.59037 
L 339.224828 131.330005 
L 339.55743 116.999466 
L 339.772122 130.964469 
L 339.903329 122.057412 
L 340.109843 124.759989 
L 340.326194 129.724031 
L 340.451162 128.405106 
L 340.586125 119.979537 
L 340.959208 133.669584 
L 341.128984 124.472718 
L 341.297951 122.888741 
L 341.467727 127.414981 
L 341.637972 118.794782 
L 341.934351 122.059748 
L 342.040347 129.020131 
L 342.316368 123.154051 
L 342.400863 131.297362 
L 342.57043 125.85739 
L 342.739913 134.282395 
L 342.951477 125.361143 
L 343.229872 129.197967 
L 343.421786 123.094449 
L 343.631449 126.504281 
L 343.772636 122.921697 
L 343.928841 127.656316 
L 344.099908 119.831146 
L 344.369857 125.906471 
L 344.482231 123.343558 
L 344.649685 124.968278 
L 344.840167 131.478657 
L 345.20713 121.787483 
L 345.416825 123.011542 
L 345.551427 126.192222 
L 345.720959 126.85223 
L 345.902944 123.375606 
L 346.196103 126.019962 
L 346.403821 127.007362 
L 346.615837 120.142942 
L 346.827707 126.982463 
L 346.912651 126.945963 
L 347.124374 126.172642 
L 347.299523 123.458555 
L 347.475644 123.467209 
L 347.803881 126.066552 
L 348.015753 123.148726 
L 348.185291 125.635017 
L 348.356313 123.586822 
L 348.523586 125.32951 
L 348.693007 129.185689 
L 349.037588 124.159728 
L 349.203793 126.711006 
L 349.372161 126.528276 
L 349.628176 128.035885 
L 349.754022 126.38706 
L 350.135832 130.70666 
L 350.517122 118.98281 
L 350.696331 127.977351 
L 350.814637 124.635966 
L 351.026666 128.771813 
L 351.195685 121.306766 
L 351.365194 126.195365 
L 351.509094 125.3812 
L 351.662543 133.928307 
L 351.877094 134.470368 
L 352.260707 127.148363 
L 352.382909 131.573585 
L 352.554141 121.108633 
L 352.946188 127.86306 
L 353.073397 126.758174 
L 353.242657 132.19713 
L 353.582456 128.492267 
L 353.625083 125.697503 
L 353.836757 123.546143 
L 353.966397 126.656734 
L 354.13657 127.449381 
L 354.302646 127.476057 
L 354.642624 116.876195 
L 354.85508 130.547678 
L 355.065817 125.614143 
L 355.407921 133.880301 
L 355.745361 123.075368 
L 355.949287 126.022436 
L 356.085016 125.857632 
L 356.230991 124.908624 
L 356.426715 126.754989 
L 356.671555 134.108165 
L 356.811993 122.595433 
L 357.150855 131.393925 
L 357.320675 115.727211 
L 357.490528 130.389849 
L 357.659579 127.25511 
L 357.829417 127.007738 
L 358.000876 133.404425 
L 358.211171 128.506269 
L 358.338888 120.85523 
L 358.563499 129.353568 
L 358.592695 128.703945 
L 358.719778 127.100555 
L 358.933889 121.236214 
L 359.144002 127.855848 
L 359.270827 123.624366 
L 359.61245 129.842289 
L 359.780237 119.995806 
L 359.954146 128.241083 
L 360.091177 128.55425 
L 360.299197 128.434851 
L 360.458851 137.547273 
L 360.629134 129.883936 
L 360.882914 125.618727 
L 361.010032 128.082153 
L 361.136887 117.57682 
L 361.435548 130.826206 
L 361.476397 129.82229 
L 361.733628 130.284039 
L 361.905786 126.077571 
L 362.073701 130.242039 
L 362.240222 128.092157 
L 362.409393 130.342512 
L 362.584077 136.104745 
L 362.925742 126.63452 
L 363.100977 129.289562 
L 363.270181 125.507659 
L 363.443576 127.721651 
L 363.608964 131.364206 
L 363.820669 122.990826 
L 363.951776 134.898113 
L 364.161329 125.783191 
L 364.375902 122.671309 
L 364.541341 121.892803 
L 364.881542 136.436225 
L 365.182518 120.287279 
L 365.220012 132.94299 
L 365.389482 121.721995 
L 365.729557 128.363115 
L 365.900584 137.226455 
L 366.252308 127.921613 
L 366.468812 129.230736 
L 366.621035 125.265274 
L 366.803444 126.235541 
L 366.960622 131.543963 
L 367.130638 129.999263 
L 367.301033 127.128622 
L 367.522782 125.449816 
L 367.853767 129.989262 
L 368.020944 128.938769 
L 368.364098 128.201457 
L 368.487176 129.259741 
L 368.580732 125.131856 
L 368.71389 135.328073 
L 368.967875 120.052368 
L 369.282241 132.244759 
L 369.614449 126.854955 
L 369.78692 126.744982 
L 370.044403 125.844732 
L 370.32658 134.042901 
L 370.580304 130.879387 
L 370.712625 135.673783 
L 370.837374 132.091084 
L 371.047021 142.380804 
L 371.388147 124.647986 
L 371.600365 129.846408 
L 371.727157 128.600763 
L 371.910777 130.82745 
L 372.150169 137.802331 
L 372.245959 127.862582 
L 372.446198 142.667078 
L 372.657878 126.900718 
L 372.787447 130.717246 
L 372.956296 125.359383 
L 373.138061 134.956718 
L 373.336976 129.299683 
L 373.677146 133.935535 
L 373.850257 125.046289 
L 374.025452 132.572557 
L 374.229445 129.443573 
L 374.355377 130.29805 
L 374.831501 131.04657 
L 375.077338 131.608878 
L 375.281552 131.276952 
L 375.459057 131.353586 
L 375.79757 130.984416 
L 375.840032 131.031885 
L 376.095019 131.047689 
L 376.1859 130.892853 
L 376.391519 131.175907 
L 376.477847 131.040997 
L 377.242841 131.3413 
L 377.326811 131.19366 
L 378.692363 131.288998 
L 378.860633 131.0709 
L 378.94467 128.776692 
L 379.121274 131.230174 
L 379.501332 131.574595 
L 379.628931 131.317767 
L 379.925155 131.267691 
L 380.096586 130.968004 
L 380.349949 131.555651 
L 380.476163 131.088015 
L 380.605103 131.082934 
L 380.791005 131.563533 
L 380.875184 131.182483 
L 381.377805 131.188615 
L 381.542275 131.049743 
L 381.752736 129.665551 
L 381.919293 132.548679 
L 382.099957 131.20209 
L 382.257824 131.187612 
L 382.470035 131.93871 
L 382.61643 131.554243 
L 382.8079 131.502796 
L 383.026928 131.035734 
L 383.191548 131.328108 
L 384.091451 131.124259 
L 384.38433 131.253725 
L 384.599992 131.141794 
L 385.272209 131.268775 
L 386.333418 131.218719 
L 386.840135 131.222467 
L 387.012774 131.426932 
L 387.217688 131.212768 
L 389.517599 131.21691 
L 393.885496 131.212089 
L 396.178058 131.219872 
L 397.210293 131.196659 
L 399.048329 131.214728 
L 400.722248 131.210805 
L 421.775274 131.201128 
L 421.990986 131.214945 
L 426.203311 131.209976 
L 426.71952 131.207054 
L 426.71952 131.207054 
" clip-path="url(#p3347466c52)" style="fill: none; stroke: #0000ff; stroke-opacity: 0.5; stroke-width: 1.75; stroke-linecap: square"/>
   </g>
   <g id="line2d_30">
    <path d="M 30.123125 171.213858 
L 30.208488 169.946046 
L 30.38112 170.567031 
L 30.431722 171.669441 
L 30.555404 170.443822 
L 30.772923 170.733355 
L 31.106137 170.628942 
L 31.402453 171.283754 
L 31.572361 170.669373 
L 31.614792 170.819335 
L 31.911413 171.120945 
L 32.080767 171.084968 
L 32.295439 171.227148 
L 32.673773 171.461692 
L 32.842987 171.260991 
L 33.055706 170.648638 
L 33.268349 171.104785 
L 33.436114 170.394268 
L 33.733067 170.943765 
L 33.902213 170.19109 
L 34.073192 171.10389 
L 34.244118 170.751483 
L 34.456218 171.304947 
L 34.623026 170.519606 
L 34.792314 171.121321 
L 35.004698 171.287371 
L 35.217166 171.719283 
L 35.350095 170.795597 
L 35.575958 171.01244 
L 35.685478 170.932248 
L 35.854751 171.095906 
L 36.024422 170.898488 
L 36.322214 170.102182 
L 36.450681 171.019933 
L 36.533033 170.674826 
L 36.707029 171.331023 
L 36.875698 170.548745 
L 37.254824 170.955036 
L 39.536236 171.013344 
L 40.463158 170.864422 
L 42.318328 170.993771 
L 43.330632 171.245942 
L 44.34217 170.752905 
L 45.369758 171.101223 
L 45.708017 170.329988 
L 45.877769 170.395834 
L 46.088886 171.61872 
L 46.301898 171.762601 
L 46.429413 170.604629 
L 46.597578 171.583612 
L 46.728516 171.316862 
L 46.897868 170.406852 
L 47.110804 171.93548 
L 47.277811 172.004436 
L 47.489112 171.005109 
L 47.787695 171.890419 
L 47.998477 171.007146 
L 48.338244 171.737584 
L 48.548394 171.033636 
L 48.760858 171.484336 
L 48.845565 170.920872 
L 49.015445 170.744194 
L 49.186066 172.477191 
L 49.408084 172.322341 
L 49.567325 170.983661 
L 49.743772 171.929168 
L 49.94869 171.825769 
L 50.077597 171.088601 
L 50.33086 172.915978 
L 50.457528 172.045979 
L 50.67191 171.403496 
L 50.795942 171.986005 
L 50.966728 171.339169 
L 51.1772 171.059898 
L 51.645131 172.691131 
L 52.029054 170.195086 
L 52.406941 172.332491 
L 52.577616 171.249469 
L 52.750244 171.018359 
L 52.8816 172.483653 
L 53.090912 171.777603 
L 53.4284 170.051305 
L 53.981045 171.910276 
L 54.190384 170.890539 
L 54.360996 170.669844 
L 54.48738 171.282269 
L 54.82603 170.882045 
L 54.956028 170.545081 
L 55.20779 171.464198 
L 55.377391 171.273126 
L 55.716787 170.009065 
L 55.928163 170.854863 
L 56.139811 170.953015 
L 56.312152 170.585779 
L 56.572778 171.485675 
L 56.606232 171.126819 
L 56.987171 171.213891 
L 57.114741 171.041651 
L 57.328375 172.422716 
L 57.495423 172.40749 
L 57.63529 171.120988 
L 58.004498 172.094573 
L 58.215793 170.823529 
L 58.343674 170.748257 
L 58.512383 171.658085 
L 58.895175 171.686029 
L 59.063704 170.636781 
L 59.403172 171.485738 
L 59.827567 170.370109 
L 60.123371 172.395302 
L 60.464848 169.982174 
L 60.886003 171.271348 
L 60.976822 170.234839 
L 61.352046 172.571863 
L 61.649407 169.631325 
L 61.902674 169.693207 
L 62.029651 171.356428 
L 62.198876 171.302291 
L 62.36954 170.048784 
L 62.538159 170.62127 
L 62.752209 171.861126 
L 62.961974 171.11469 
L 63.088568 169.679343 
L 63.258885 169.679395 
L 63.597276 171.249356 
L 63.76698 171.340764 
L 64.029328 171.750487 
L 64.190408 171.546673 
L 64.516357 169.733139 
L 64.826183 172.186194 
L 65.038398 172.446154 
L 65.376632 169.821186 
L 65.589673 169.524228 
L 65.720106 170.147072 
L 66.395078 172.166696 
L 66.659709 171.980209 
L 66.782278 170.739268 
L 67.114427 170.925278 
L 67.199369 171.700851 
L 67.36826 171.987536 
L 67.538011 171.929736 
L 67.622787 171.601732 
L 67.919579 171.429103 
L 68.005199 171.165373 
L 68.173461 171.311759 
L 68.512 171.768726 
L 68.682072 171.377682 
L 69.06278 169.192537 
L 69.204886 169.035973 
L 69.571001 170.241694 
L 69.95226 168.473781 
L 70.166071 169.397425 
L 70.461303 171.716215 
L 70.632917 171.755346 
L 70.912153 171.651456 
L 71.034776 171.747277 
L 71.396362 170.92662 
L 71.435988 171.130383 
L 71.482825 172.257535 
L 71.692495 172.780098 
L 71.903091 171.46587 
L 72.047947 169.652753 
L 72.2541 169.568779 
L 72.554617 172.686599 
L 72.750938 172.201509 
L 72.920507 171.315307 
L 73.139466 171.906167 
L 73.352587 171.967386 
L 73.686789 170.038188 
L 74.109921 171.324934 
L 74.206045 172.574077 
L 75.159978 170.927445 
L 76.081987 171.178961 
L 77.097444 171.112602 
L 77.153734 172.976743 
L 77.450819 169.771565 
L 77.708508 168.753335 
L 77.87466 168.636062 
L 78.143561 169.316495 
L 78.31357 170.063846 
L 78.585948 168.770837 
L 78.871187 167.043991 
L 79.083011 167.478333 
L 79.296356 169.046911 
L 79.63493 172.957609 
L 79.765191 173.49735 
L 79.973202 172.564228 
L 80.312528 170.495337 
L 80.568021 171.34483 
L 80.652533 172.959929 
L 80.863283 173.628258 
L 81.07613 172.673035 
L 81.504586 168.392419 
L 81.687253 168.944435 
L 81.857033 170.562536 
L 82.060342 170.855591 
L 82.396318 168.796254 
L 82.566748 169.105076 
L 82.924288 171.666414 
L 83.302809 172.327323 
L 83.456336 171.581226 
L 83.63199 171.645709 
L 84.01805 174.217551 
L 84.166656 173.920414 
L 84.410101 172.241818 
L 84.518835 170.665282 
L 84.716258 170.730058 
L 85.159252 171.72617 
L 85.205427 172.321683 
L 85.357534 171.467437 
L 85.542125 169.990184 
L 85.760406 170.271897 
L 86.091968 170.190613 
L 86.430774 170.850917 
L 86.772047 170.817584 
L 86.945622 170.951786 
L 87.285041 171.895951 
L 87.541958 171.452864 
L 87.708257 170.751742 
L 87.919858 171.870372 
L 88.007979 173.114128 
L 88.259181 172.555914 
L 88.478016 171.284146 
L 88.555769 171.526968 
L 88.703034 172.975703 
L 88.895647 173.272051 
L 89.234734 169.876652 
L 89.574916 170.645741 
L 89.912507 170.614669 
L 89.959224 171.329744 
L 90.133668 171.91735 
L 90.674914 169.504191 
L 91.013619 172.397747 
L 91.142734 172.178113 
L 91.564522 172.092375 
L 91.904328 170.130498 
L 92.073539 170.081978 
L 92.416413 171.853955 
L 92.757533 170.849131 
L 93.094022 171.375619 
L 93.558891 170.939775 
L 94.067396 171.92592 
L 94.321589 171.774193 
L 94.534259 171.629188 
L 94.956318 171.832362 
L 95.211952 172.566063 
L 95.381069 172.436746 
L 95.932066 170.675351 
L 96.270676 171.026337 
L 96.781059 169.797095 
L 97.129176 170.137476 
L 97.343804 171.087488 
L 97.477931 172.222086 
L 97.713015 171.779373 
L 97.84191 170.338574 
L 98.031821 170.642686 
L 98.192057 172.293681 
L 98.36106 172.333124 
L 98.532253 170.826821 
L 98.699728 170.462956 
L 99.080968 172.123387 
L 99.462663 169.817904 
L 99.632046 170.205307 
L 99.801014 171.266751 
L 100.056713 170.730026 
L 100.232471 169.957212 
L 100.648418 171.397952 
L 101.009424 169.751941 
L 101.169278 169.879671 
L 101.424267 170.917907 
L 101.580071 171.036531 
L 102.17398 170.454485 
L 102.428275 170.728057 
L 102.981073 174.421949 
L 103.109116 173.199355 
L 103.500863 170.907911 
L 103.83995 173.1229 
L 104.01055 173.433729 
L 104.179537 172.488514 
L 104.517746 169.703841 
L 104.728995 170.14016 
L 104.861498 171.762311 
L 105.196351 173.299688 
L 105.364748 173.063528 
L 105.407663 171.790713 
L 105.577514 170.751893 
L 105.746414 170.442475 
L 105.920254 171.200271 
L 106.085239 172.60964 
L 106.298232 172.938964 
L 106.556796 171.722713 
L 106.635594 170.418365 
L 106.847578 170.506706 
L 107.155216 173.562729 
L 107.317946 173.215414 
L 107.695449 170.856091 
L 107.864233 171.089397 
L 108.160745 171.853986 
L 108.245512 172.678941 
L 108.71261 171.574579 
L 108.923928 171.764418 
L 109.094448 172.125964 
L 109.390491 172.486931 
L 109.43308 171.582318 
L 109.771592 168.700294 
L 110.331598 170.192311 
L 110.702695 168.383952 
L 111.422378 173.694836 
L 111.635591 173.011284 
L 111.721354 171.353571 
L 111.889409 171.16449 
L 112.270972 173.608637 
L 112.779071 170.265391 
L 112.947241 170.514656 
L 113.160063 171.518238 
L 113.330162 172.966415 
L 113.585399 174.051413 
L 113.672587 173.519677 
L 114.058728 170.410177 
L 114.389284 172.213971 
L 114.518632 172.888674 
L 114.687583 172.42802 
L 115.109182 169.853923 
L 115.406387 169.269152 
L 115.786629 173.010648 
L 115.957235 172.904511 
L 116.465722 167.787484 
L 116.635127 168.108131 
L 116.931086 169.674477 
L 117.017875 170.907177 
L 117.189093 170.105211 
L 117.355276 168.555497 
L 117.523865 168.059224 
L 117.696458 168.978554 
L 118.20399 174.738225 
L 118.416013 173.982611 
L 118.759766 171.00307 
L 118.928517 172.012725 
L 119.094154 173.705264 
L 119.264846 173.718174 
L 119.602122 170.992349 
L 119.857101 170.897546 
L 120.025534 171.208023 
L 120.322046 172.695909 
L 120.492182 172.492863 
L 120.831309 170.287142 
L 121.084259 170.939953 
L 121.211233 171.904307 
L 121.380579 171.396965 
L 121.592624 170.285726 
L 121.762302 169.99981 
L 122.271157 171.939058 
L 122.440968 171.932711 
L 122.612636 171.673437 
L 122.779483 171.729456 
L 123.249732 171.452818 
L 123.50009 170.85914 
L 123.728614 170.71625 
L 124.179838 171.496965 
L 124.602127 170.371062 
L 125.110134 171.160231 
L 125.410784 171.411188 
L 125.79208 169.994686 
L 125.957627 170.230478 
L 126.219267 171.467649 
L 126.539757 170.163873 
L 126.55358 170.219548 
L 126.808046 172.623432 
L 127.076826 172.620573 
L 127.358703 169.75067 
L 127.527837 170.547492 
L 127.697431 171.885136 
L 127.909631 171.64409 
L 128.078769 170.809646 
L 128.260753 171.70164 
L 128.504159 171.88375 
L 128.594748 170.389667 
L 128.798798 168.939775 
L 129.020325 168.965196 
L 129.096598 170.332348 
L 129.349225 171.403505 
L 129.52059 171.363068 
L 129.646052 170.848685 
L 129.996863 170.476908 
L 130.15436 169.63081 
L 130.366279 170.766762 
L 130.833738 174.505799 
L 131.235404 170.979905 
L 131.571091 172.67158 
L 131.911909 172.104785 
L 132.079235 172.154321 
L 132.334861 171.995485 
L 132.722065 170.886978 
L 132.804185 171.005506 
L 133.156744 170.956478 
L 133.32576 171.276181 
L 133.540556 171.357242 
L 133.876458 170.330603 
L 134.150679 170.374114 
L 134.397765 172.239856 
L 134.569699 172.613857 
L 134.809582 171.677261 
L 134.895087 170.201287 
L 135.105976 170.271624 
L 135.276098 171.505877 
L 135.445235 171.820272 
L 135.79731 169.779501 
L 136.037736 169.83307 
L 136.334538 170.051807 
L 136.842814 170.33472 
L 137.520829 170.377088 
L 137.689495 169.849838 
L 137.774251 169.051343 
L 137.943735 169.304142 
L 138.282334 172.60759 
L 138.417128 172.746591 
L 138.791827 170.420349 
L 138.964678 171.24813 
L 139.303952 174.166503 
L 139.474038 174.023266 
L 139.983065 170.564511 
L 140.364078 173.244159 
L 140.575231 172.860238 
L 140.704082 171.498386 
L 140.955763 171.213573 
L 141.083839 171.253342 
L 141.295663 170.786214 
L 141.466441 171.07658 
L 141.761051 172.976923 
L 142.099736 170.761437 
L 142.441912 172.766131 
L 142.82167 171.182612 
L 142.989577 172.602414 
L 143.158681 172.807076 
L 143.500232 170.301682 
L 143.68294 171.668983 
L 143.922243 171.960615 
L 144.094788 170.861719 
L 144.429676 173.174792 
L 144.641652 172.293285 
L 144.732708 170.223884 
L 144.933228 170.230042 
L 145.111691 171.814493 
L 145.278414 172.028469 
L 145.44924 170.398711 
L 145.634379 170.698294 
L 145.797039 172.140278 
L 146.045301 172.109867 
L 146.342614 170.253927 
L 146.765489 171.253281 
L 146.8503 171.529653 
L 147.022582 171.452153 
L 147.231808 171.520091 
L 147.570049 170.974206 
L 147.996616 170.875941 
L 148.078507 171.00158 
L 148.33224 170.615836 
L 148.588314 169.045662 
L 148.798095 169.472131 
L 148.974277 171.206338 
L 149.307607 171.620359 
L 149.492624 169.6311 
L 149.731464 170.78747 
L 150.071276 173.825902 
L 150.196917 173.6466 
L 150.537825 171.734743 
L 151.003534 171.101916 
L 151.426191 171.950031 
L 151.730476 171.644706 
L 151.978792 170.649602 
L 152.316656 172.946919 
L 152.824635 172.067454 
L 152.993937 171.398281 
L 153.206371 171.115143 
L 153.672497 173.527104 
L 153.715444 174.664383 
L 153.884187 174.232033 
L 154.265953 170.819046 
L 154.434791 170.71129 
L 154.943135 172.760642 
L 155.11244 171.945605 
L 155.452561 169.381428 
L 155.621887 168.965392 
L 155.834415 169.90471 
L 156.172913 173.563163 
L 156.342312 173.857288 
L 156.555136 172.359946 
L 156.855297 169.154682 
L 157.062504 169.845099 
L 157.613202 174.113864 
L 157.740116 173.98294 
L 158.121734 172.222515 
L 158.252305 172.17504 
L 158.599901 172.757501 
L 158.629502 173.238016 
L 158.802725 173.153877 
L 159.153088 171.00584 
L 159.35602 170.708105 
L 159.564461 170.967888 
L 159.734372 171.449825 
L 159.947999 171.111486 
L 160.198699 170.417633 
L 160.53824 170.843483 
L 160.582279 171.714459 
L 160.919946 173.423286 
L 161.091425 173.217463 
L 161.430409 170.597854 
L 161.647741 170.546814 
L 161.774107 171.394162 
L 161.998818 172.093944 
L 162.150184 172.046058 
L 162.870294 171.117205 
L 163.378075 173.058966 
L 163.75957 176.532884 
L 163.888791 178.914163 
L 164.227888 180.831669 
L 164.437407 180.611519 
L 164.606674 180.133939 
L 164.776901 179.263919 
L 164.945528 179.461235 
L 165.327057 180.825745 
L 165.498933 180.491754 
L 165.879072 179.240126 
L 166.228054 178.35854 
L 166.519579 178.656597 
L 166.730772 178.392981 
L 167.112034 176.629707 
L 167.41151 175.759549 
L 167.747769 176.133656 
L 167.959347 177.633272 
L 168.301554 178.228907 
L 168.509423 177.978723 
L 168.975755 179.126975 
L 169.188343 178.845204 
L 169.398865 177.910366 
L 169.865192 172.767956 
L 170.090275 171.704422 
L 170.427234 171.679687 
L 170.553549 172.021773 
L 170.766587 171.541042 
L 171.147278 169.79628 
L 171.485496 169.194761 
L 171.698237 169.211867 
L 171.826086 169.847611 
L 172.121494 169.588867 
L 172.333815 168.267087 
L 172.50382 168.409288 
L 173.353007 173.481264 
L 173.900679 170.321059 
L 174.451892 168.775973 
L 174.789893 167.624683 
L 175.214102 167.388607 
L 175.852121 170.717051 
L 176.063313 170.314337 
L 176.557477 166.049754 
L 176.719713 165.360577 
L 176.889358 165.135491 
L 177.248345 163.589014 
L 177.417469 161.355865 
L 177.84116 160.3583 
L 177.928492 161.229215 
L 178.137435 161.841489 
L 178.30762 161.640487 
L 178.476795 161.204386 
L 178.645429 159.716116 
L 178.814977 159.717987 
L 179.111537 160.464033 
L 179.408577 162.917653 
L 179.625663 162.106293 
L 180.110483 155.989596 
L 180.299667 155.816857 
L 180.5696 159.134809 
L 180.767029 160.365644 
L 180.936557 159.520838 
L 181.486416 155.253973 
L 182.168052 157.405581 
L 182.673868 155.346551 
L 183.097042 155.254168 
L 183.224961 155.513158 
L 183.394285 155.462616 
L 183.56438 154.939019 
L 183.902566 150.958629 
L 184.496864 148.150098 
L 184.962167 150.771425 
L 185.132542 151.4541 
L 185.428824 152.155721 
L 185.51484 153.012706 
L 185.853201 154.473165 
L 186.021926 153.827364 
L 186.540187 148.875587 
L 187.187454 149.707602 
L 187.359619 149.647755 
L 187.67454 147.988902 
L 187.971573 148.87043 
L 188.226147 148.61333 
L 188.491706 147.014803 
L 188.690603 143.425942 
L 189.034432 141.749945 
L 189.206591 141.695209 
L 189.537382 141.176221 
L 189.918795 140.082206 
L 190.215079 140.250131 
L 190.299801 141.15655 
L 190.469311 141.657734 
L 190.597566 141.640293 
L 190.851555 141.144251 
L 191.021251 140.039664 
L 191.318034 136.342473 
L 191.613169 136.175727 
L 191.995124 138.161806 
L 192.164023 137.872001 
L 192.376287 136.640576 
L 192.75751 133.441048 
L 192.927232 134.272408 
L 193.066702 136.382284 
L 193.308105 137.686564 
L 193.477626 137.95868 
L 193.616064 136.770691 
L 194.114193 130.212683 
L 194.325277 130.861933 
L 194.833105 133.782913 
L 195.129368 132.076026 
L 195.172747 129.289665 
L 195.341477 127.927507 
L 195.596059 128.210157 
L 196.062625 130.829039 
L 196.275111 129.255928 
L 196.570375 125.372784 
L 196.739915 125.793827 
L 197.121037 128.583575 
L 197.248351 128.931513 
L 197.48015 128.011652 
L 197.657781 125.554598 
L 198.102842 123.195669 
L 198.239367 123.230458 
L 198.435481 123.457875 
L 198.52381 123.780293 
L 198.775256 123.494632 
L 198.861797 122.122261 
L 199.07134 121.146741 
L 199.203239 121.33793 
L 199.500713 122.609728 
L 199.749301 125.325059 
L 200.053775 125.108449 
L 200.430514 120.693245 
L 200.683007 121.998315 
L 200.788702 124.020432 
L 201.193374 126.968881 
L 201.362048 125.528532 
L 201.490806 123.404787 
L 201.700635 122.470461 
L 201.828146 122.441482 
L 202.039924 122.618232 
L 202.20971 122.504102 
L 202.463202 121.237677 
L 202.89932 115.014921 
L 203.098227 116.70528 
L 203.56718 124.252103 
L 203.776639 124.137152 
L 204.116307 119.677697 
L 204.370741 119.321862 
L 204.582258 120.62365 
L 204.672472 122.468222 
L 204.836717 123.340406 
L 205.009713 122.22961 
L 205.51642 114.745425 
L 205.810796 115.722431 
L 206.06549 119.834627 
L 206.238494 119.7164 
L 206.746714 114.27396 
L 206.928078 114.920984 
L 207.08564 116.323657 
L 207.340431 117.443087 
L 207.469729 118.81916 
L 207.636659 118.038571 
L 207.975575 113.871214 
L 208.187965 113.03999 
L 208.334182 113.285042 
L 208.486494 114.141805 
L 208.739576 114.525403 
L 209.035642 114.083848 
L 209.204924 112.373656 
L 209.50165 113.212095 
L 209.548127 114.526874 
L 209.744813 116.266573 
L 209.936743 116.459871 
L 210.390997 111.806843 
L 210.433873 109.314466 
L 210.602746 109.32682 
L 210.984208 113.029451 
L 211.15356 112.561686 
L 211.364956 110.471207 
L 211.662933 105.673641 
L 211.873967 106.679555 
L 212.341049 115.542843 
L 212.550962 113.969376 
L 212.937302 108.039202 
L 213.101394 107.556292 
L 213.570151 115.192074 
L 213.821911 114.46498 
L 214.161025 108.456874 
L 214.290003 107.297625 
L 214.50994 108.341237 
L 214.798203 112.681393 
L 215.009468 113.048461 
L 215.178289 111.139039 
L 215.347589 107.905328 
L 215.701621 105.813461 
L 216.111171 109.692206 
L 216.238345 110.393053 
L 216.407831 109.394738 
L 216.748703 105.808145 
L 217.043154 106.081932 
L 217.127931 107.971603 
L 217.339682 110.091332 
L 217.467122 110.141836 
L 217.720897 107.57167 
L 217.976159 102.731034 
L 218.144695 103.92922 
L 218.700664 112.103282 
L 218.908907 111.077003 
L 219.247622 105.81051 
L 219.501498 106.490452 
L 219.714269 109.302826 
L 219.755846 111.972824 
L 219.924913 112.807337 
L 220.136612 110.697108 
L 220.266396 106.763188 
L 220.51958 104.060701 
L 220.6452 104.459855 
L 221.156737 113.4158 
L 221.423255 112.022468 
L 221.879837 102.217663 
L 222.439627 108.521141 
L 222.600834 107.235886 
L 222.70171 104.673747 
L 223.039195 102.602496 
L 223.294282 107.212 
L 223.591938 113.763818 
L 223.8448 111.769562 
L 223.971979 107.342913 
L 224.35494 101.140931 
L 224.52279 101.933432 
L 224.866834 105.266829 
L 225.285092 99.161539 
L 225.624863 86.82958 
L 226.09929 35.229095 
L 226.430524 25.762641 
L 226.599023 24.834412 
L 227.064697 18.85761 
L 227.127607 20.186324 
L 227.365275 34.888588 
L 227.590728 62.440888 
L 227.674485 88.583405 
L 227.847389 103.153315 
L 228.060798 107.159402 
L 228.142151 106.410042 
L 228.355992 106.313448 
L 228.60645 110.294765 
L 229.029989 121.941767 
L 229.285671 120.077168 
L 229.456363 117.5908 
L 229.623898 116.842181 
L 229.839316 118.024131 
L 229.922456 119.306502 
L 230.132561 119.518501 
L 230.429409 118.994929 
L 230.640215 119.852864 
L 230.979436 121.871448 
L 231.701276 119.26966 
L 231.871564 119.023728 
L 232.038449 117.351232 
L 232.549108 109.611287 
L 232.718301 109.660676 
L 233.013519 111.29237 
L 233.098697 113.122944 
L 233.397525 114.020471 
L 233.609304 112.957421 
L 233.819635 113.152071 
L 234.072837 114.321076 
L 234.327082 116.590193 
L 234.497257 116.06197 
L 234.837901 114.245241 
L 235.06648 114.009999 
L 235.34363 114.777399 
L 235.386025 115.552293 
L 235.725074 116.312563 
L 236.064469 116.363507 
L 236.715023 115.491687 
L 236.954204 112.88191 
L 237.122748 111.710615 
L 237.844738 109.975018 
L 238.393715 111.272432 
L 239.240718 116.942434 
L 239.453136 117.075835 
L 239.626172 116.498022 
L 241.361774 104.018232 
L 242.039676 103.00916 
L 242.208459 103.430099 
L 242.504597 103.856519 
L 242.589775 104.609741 
L 243.104306 106.837148 
L 243.376815 106.822497 
L 243.457357 106.534795 
L 243.907216 106.430546 
L 243.991807 106.071898 
L 244.287309 105.984287 
L 244.372125 106.165745 
L 245.049677 111.035012 
L 245.558972 116.122195 
L 246.109951 118.842629 
L 246.253756 118.391932 
L 247.125897 110.990704 
L 247.719042 109.415033 
L 247.847608 109.458172 
L 248.235839 112.040467 
L 248.528754 113.834733 
L 248.735947 113.717447 
L 248.950324 113.270911 
L 249.118574 113.495117 
L 249.419659 114.826251 
L 249.62552 114.288981 
L 250.133847 109.91487 
L 250.431783 111.193651 
L 250.474505 113.291258 
L 250.826047 115.712326 
L 251.406349 112.619166 
L 251.617816 113.462567 
L 251.70718 115.027021 
L 251.914486 116.202864 
L 252.126409 115.539968 
L 252.591982 110.000527 
L 252.84593 109.344918 
L 253.185567 111.302232 
L 253.397309 112.063547 
L 253.482509 111.727077 
L 253.651974 110.347934 
L 253.90543 109.881187 
L 254.117122 110.998507 
L 254.203275 112.765539 
L 254.498072 114.837443 
L 254.551934 116.416375 
L 254.70994 117.119757 
L 254.879815 116.822487 
L 255.261167 114.198971 
L 255.472717 114.073224 
L 255.563689 114.708453 
L 255.946801 115.122904 
L 256.277423 114.495924 
L 256.575478 113.414462 
L 256.658939 112.40629 
L 256.788106 112.210526 
L 257.03967 113.383833 
L 257.252394 115.017376 
L 257.346781 114.717958 
L 257.644858 113.181863 
L 257.721084 112.08125 
L 258.05988 112.206356 
L 258.441146 111.589499 
L 258.784799 112.663293 
L 258.956482 112.750375 
L 259.248789 113.286966 
L 259.428546 112.816745 
L 259.632102 111.770509 
L 259.807066 111.534053 
L 260.179472 114.518088 
L 260.348945 114.833806 
L 260.722874 111.379336 
L 260.902935 111.567852 
L 261.200363 114.218236 
L 261.409584 114.368498 
L 261.681009 113.717814 
L 261.748455 113.08182 
L 261.91718 113.221974 
L 262.129427 113.741194 
L 262.256265 114.374461 
L 262.425473 114.343872 
L 262.848995 112.19273 
L 262.976207 112.260883 
L 263.360816 113.738632 
L 263.56989 112.773404 
L 263.823927 110.124128 
L 264.037093 111.032487 
L 264.204083 112.734353 
L 264.429262 113.629605 
L 264.759555 112.103472 
L 264.970358 111.895267 
L 265.398992 114.779665 
L 265.606816 114.500327 
L 266.286524 112.834357 
L 266.666224 113.666227 
L 266.838781 113.725431 
L 267.386396 115.170202 
L 267.767353 113.410404 
L 268.024419 114.408517 
L 268.147936 116.038998 
L 268.234569 115.84585 
L 268.529896 114.379934 
L 268.571647 112.508051 
L 268.829844 110.948978 
L 269.038157 110.698876 
L 269.08285 111.361731 
L 269.46201 113.467353 
L 270.013033 109.97745 
L 270.229195 110.896018 
L 270.521021 113.941828 
L 270.818277 113.402023 
L 271.03149 110.421865 
L 271.581687 113.079219 
L 271.751749 113.044854 
L 271.921105 112.511207 
L 272.260131 112.269333 
L 272.515151 112.232856 
L 272.683717 112.383172 
L 272.810822 112.783633 
L 273.065186 112.72416 
L 273.149796 112.919003 
L 273.53148 115.066891 
L 273.700555 114.907765 
L 274.081203 112.261186 
L 274.383492 113.338603 
L 274.54759 114.929363 
L 274.717998 114.193746 
L 275.268003 109.898153 
L 275.437455 110.624477 
L 275.776467 113.781769 
L 275.945389 114.029668 
L 276.412117 111.47844 
L 276.495597 111.512657 
L 276.919068 114.558925 
L 277.09288 114.711476 
L 277.555402 110.807567 
L 277.725177 110.99795 
L 278.020969 112.308372 
L 278.106425 113.8043 
L 278.316665 114.393869 
L 278.613331 112.415574 
L 278.783207 112.270633 
L 278.994469 113.185481 
L 279.293612 116.188314 
L 279.503078 115.897852 
L 279.75788 113.668515 
L 280.09707 111.269282 
L 280.181148 110.564185 
L 280.564097 112.616063 
L 280.860627 113.324042 
L 281.070263 113.426948 
L 281.339236 114.217127 
L 281.413568 115.399132 
L 281.579135 116.037737 
L 281.749517 116.232553 
L 281.920842 116.247732 
L 282.090818 115.451974 
L 282.639162 114.31848 
L 282.808188 114.499316 
L 283.151894 114.439476 
L 283.358707 114.591869 
L 283.613416 114.594121 
L 283.698004 114.42183 
L 284.08315 115.099214 
L 284.248978 115.495636 
L 284.418313 115.235064 
L 285.096261 112.431403 
L 285.265392 112.244214 
L 285.520056 112.338588 
L 285.646819 111.840311 
L 286.155217 108.056757 
L 286.368016 107.883332 
L 286.622105 108.529778 
L 286.961446 110.978709 
L 287.215609 114.346099 
L 287.766851 117.08583 
L 287.937778 116.811102 
L 288.317828 114.034964 
L 288.657688 110.759067 
L 288.783956 109.91754 
L 288.953321 109.731436 
L 289.470734 111.197836 
L 289.843826 111.831906 
L 290.033133 111.80071 
L 290.184952 112.031309 
L 290.354683 112.685368 
L 290.734475 113.255591 
L 290.88333 113.134026 
L 291.414636 111.65965 
L 292.004972 111.028112 
L 292.642922 108.167048 
L 292.896673 108.682101 
L 293.871746 117.430702 
L 294.041821 117.521218 
L 294.25315 116.935727 
L 294.763485 114.566312 
L 295.10182 114.31572 
L 295.314505 114.233153 
L 295.483354 114.328312 
L 295.653227 114.834056 
L 296.000956 115.303551 
L 296.204314 114.694914 
L 296.339898 113.619707 
L 296.620227 112.34397 
L 296.874676 108.824878 
L 297.596457 103.905291 
L 297.937216 106.794313 
L 298.11486 108.760453 
L 298.401693 110.35671 
L 298.444315 112.031342 
L 299.000083 115.413387 
L 299.140187 115.56909 
L 299.88803 113.429169 
L 300.184596 113.63271 
L 300.906614 111.713528 
L 301.244204 112.015453 
L 301.627263 112.4586 
L 301.795353 112.162873 
L 302.133749 112.165208 
L 302.474282 111.526156 
L 302.852799 111.518029 
L 302.858849 112.25416 
L 303.025616 113.136324 
L 303.278822 113.381646 
L 303.406597 113.245349 
L 304.000772 112.132391 
L 304.217083 111.935665 
L 304.424429 111.473252 
L 304.934748 109.014642 
L 305.527071 108.887441 
L 305.657557 108.705194 
L 305.994055 108.804751 
L 306.292305 109.316493 
L 306.381132 110.124885 
L 306.562601 110.667651 
L 306.714535 110.73466 
L 306.890284 110.600791 
L 306.926993 110.652388 
L 307.096785 111.072815 
L 307.266957 112.047491 
L 307.565109 114.870785 
L 307.948969 116.185432 
L 308.113935 115.562939 
L 308.623 111.766924 
L 308.928836 110.625039 
L 309.175719 108.189164 
L 309.513708 106.530918 
L 309.688532 105.815633 
L 309.867755 105.985522 
L 310.199132 108.355839 
L 310.383457 108.488842 
L 310.622084 108.489986 
L 310.83998 108.233555 
L 310.932718 107.758906 
L 311.134853 107.558744 
L 311.307739 107.881583 
L 311.51594 108.685106 
L 311.601472 110.281648 
L 311.772921 110.945074 
L 312.073347 110.201251 
L 312.15808 109.500617 
L 312.322859 109.312661 
L 312.495638 109.819718 
L 312.873276 111.40574 
L 313.424762 110.332322 
L 313.63831 110.888003 
L 313.808485 112.606466 
L 314.027175 113.582081 
L 314.129018 113.243527 
L 314.425086 111.034362 
L 314.617614 110.696076 
L 314.841693 110.955285 
L 314.959422 111.78108 
L 315.208158 112.211475 
L 315.718049 110.057632 
L 316.18625 111.086667 
L 316.45267 111.354872 
L 316.523845 111.801964 
L 316.9048 113.309297 
L 317.093199 113.993162 
L 317.703011 112.564426 
L 318.211707 115.07744 
L 318.339887 114.528882 
L 318.466581 112.794376 
L 318.892064 109.806407 
L 319.06051 110.108902 
L 319.189535 111.32694 
L 319.531197 113.124764 
L 319.714807 113.118769 
L 319.908715 113.595013 
L 320.417946 116.342901 
L 320.590623 115.902576 
L 320.927305 114.658346 
L 321.27005 113.920956 
L 321.82189 114.261223 
L 321.991001 114.790044 
L 322.519366 118.29893 
L 322.711929 118.358395 
L 322.923035 117.703168 
L 323.262785 114.788962 
L 324.069673 106.748764 
L 324.246903 106.880822 
L 324.629377 109.472854 
L 324.795161 110.606332 
L 325.681534 111.508446 
L 325.980335 111.338346 
L 326.19801 109.683365 
L 326.36067 109.274864 
L 326.530628 109.539787 
L 326.830195 110.631769 
L 327.132749 112.817535 
L 327.260602 113.40457 
L 327.557074 113.646845 
L 327.600188 113.9502 
L 328.066625 115.254821 
L 328.110356 115.434937 
L 328.489361 115.251031 
L 328.659966 115.606355 
L 329.124871 117.78824 
L 329.379625 120.621022 
L 329.719839 121.788529 
L 330.059976 121.282067 
L 330.270216 121.190632 
L 330.625258 121.382897 
L 330.739155 121.356207 
L 330.951344 121.120928 
L 331.292741 119.498705 
L 332.012465 115.24738 
L 332.145014 113.515878 
L 332.436034 111.797645 
L 332.69292 109.10645 
L 333.199908 107.859139 
L 333.588213 107.177516 
L 333.759582 106.639652 
L 333.971786 106.844064 
L 334.308869 108.849062 
L 334.817489 113.290904 
L 335.100227 114.960046 
L 335.330514 118.491205 
L 335.709492 120.939862 
L 335.927626 121.033597 
L 336.482929 116.893371 
L 336.732337 112.796322 
L 337.293661 107.921217 
L 337.621031 106.308182 
L 337.795931 106.075442 
L 338.133824 106.747281 
L 338.344558 107.458022 
L 339.06324 111.815024 
L 339.772122 117.305753 
L 340.109843 120.127415 
L 340.451162 121.380602 
L 340.586125 121.501125 
L 340.789429 121.479635 
L 340.959208 121.232351 
L 341.297951 120.238736 
L 341.637972 119.679654 
L 341.934351 119.164387 
L 342.040347 118.474964 
L 342.316368 117.753807 
L 342.57043 116.288633 
L 343.045446 113.438018 
L 343.772636 109.025783 
L 344.099908 108.096149 
L 344.482231 107.989347 
L 344.840167 108.389611 
L 345.20713 108.28013 
L 345.416825 108.484606 
L 346.196103 111.724988 
L 346.615837 112.878995 
L 346.827707 113.545601 
L 346.912651 114.26028 
L 347.299523 115.0349 
L 347.475644 115.311182 
L 347.803881 117.279403 
L 349.203793 125.420598 
L 349.628176 123.352919 
L 349.925185 121.611026 
L 350.263688 120.602255 
L 350.517122 120.547811 
L 350.696331 120.241236 
L 351.026666 119.03765 
L 351.365194 118.776876 
L 352.382909 119.668563 
L 352.721976 120.686968 
L 352.946188 121.571891 
L 353.242657 124.501276 
L 353.582456 125.252853 
L 353.625083 125.887253 
L 353.836757 125.913085 
L 354.13657 125.041636 
L 354.302646 125.311454 
L 354.642624 126.439124 
L 354.85508 126.304765 
L 355.065817 125.512949 
L 355.407921 123.186472 
L 357.150855 110.97209 
L 357.490528 111.526654 
L 357.659579 111.435375 
L 357.829417 111.494469 
L 358.000876 111.924918 
L 358.211171 112.785269 
L 358.592695 115.656737 
L 358.719778 115.684451 
L 358.933889 115.882355 
L 359.270827 115.262743 
L 359.61245 115.145924 
L 359.780237 114.340979 
L 360.299197 113.610941 
L 361.010032 117.637181 
L 361.136887 118.826305 
L 361.435548 119.545358 
L 361.476397 120.094229 
L 361.905786 119.934005 
L 362.073701 119.492217 
L 362.800022 115.67264 
L 362.925742 115.532774 
L 363.100977 115.732916 
L 363.820669 117.83757 
L 363.951776 118.360748 
L 364.375902 118.896532 
L 364.541341 118.769735 
L 364.722943 118.13662 
L 364.881542 117.113624 
L 365.182518 116.229296 
L 365.220012 115.630765 
L 365.686628 115.319351 
L 365.729557 115.05678 
L 366.252308 114.231551 
L 366.468812 114.10398 
L 366.960622 114.724661 
L 367.301033 113.795136 
L 367.81022 113.509755 
L 368.020944 113.861584 
L 368.364098 113.73435 
L 368.487176 113.984894 
L 369.282241 118.097979 
L 370.32658 129.272731 
L 370.837374 131.993111 
L 371.047021 131.626716 
L 371.265448 130.813086 
L 371.727157 126.82095 
L 372.657878 116.639392 
L 372.787447 116.475299 
L 373.138061 119.710488 
L 373.509424 123.544927 
L 373.677146 124.238774 
L 373.850257 124.238147 
L 374.025452 124.432125 
L 374.355377 125.08179 
L 374.667174 125.32495 
L 375.459057 124.157955 
L 375.79757 124.359153 
L 375.840032 124.54209 
L 376.095019 124.669498 
L 376.477847 123.996299 
L 376.914638 123.469078 
L 377.326811 122.546925 
L 377.543905 122.348733 
L 377.968209 122.283337 
L 378.232013 121.844929 
L 378.94467 118.808389 
L 379.121274 118.535362 
L 379.375171 118.979103 
L 380.096586 124.45045 
L 380.349949 124.865393 
L 380.605103 126.848647 
L 380.791005 128.700667 
L 380.875184 130.833889 
L 381.247153 133.34736 
L 381.377805 132.793002 
L 381.919293 129.072372 
L 382.257824 126.444167 
L 382.470035 124.792545 
L 383.026928 118.418199 
L 383.365255 116.923723 
L 383.702664 116.585986 
L 383.87117 116.770179 
L 384.091451 117.414619 
L 384.932511 121.955838 
L 385.446265 127.563896 
L 385.782223 129.9573 
L 386.162057 130.872735 
L 386.840135 133.796523 
L 387.39758 132.850095 
L 387.614948 132.912958 
L 387.862945 133.278719 
L 387.916118 133.693856 
L 388.079516 133.760088 
L 388.249647 133.190633 
L 388.797259 129.933154 
L 389.308873 129.669458 
L 389.517599 128.810472 
L 390.240034 123.749549 
L 390.549956 123.097637 
L 391.224458 116.236979 
L 391.384422 115.458941 
L 391.597366 115.361761 
L 391.935532 117.43256 
L 392.277715 119.264194 
L 392.86795 121.673186 
L 392.995183 122.754725 
L 393.503796 125.775183 
L 393.801028 126.025626 
L 394.020641 127.576041 
L 394.30865 128.659947 
L 394.741847 131.594908 
L 395.114419 132.031423 
L 395.964895 133.736696 
L 396.597613 134.231997 
L 396.912877 134.708272 
L 397.421692 133.695465 
L 397.887902 132.245292 
L 398.619531 128.396312 
L 398.969333 126.054333 
L 399.171452 122.50152 
L 399.497853 121.038661 
L 399.665091 120.883728 
L 399.848076 121.3177 
L 400.214482 123.315771 
L 400.426452 124.742308 
L 400.722248 127.863696 
L 401.108306 128.65912 
L 401.447051 130.001005 
L 401.618741 130.187042 
L 401.755815 129.414323 
L 402.306023 123.719954 
L 402.517274 123.695789 
L 403.026978 124.770952 
L 403.29267 125.091092 
L 403.378983 126.066969 
L 403.663701 127.768024 
L 403.878309 131.351514 
L 404.046526 131.810761 
L 404.257697 131.108394 
L 405.14931 124.672754 
L 405.335566 123.763099 
L 405.613822 123.257298 
L 405.658865 122.879891 
L 405.828125 123.414557 
L 406.382846 128.001378 
L 406.508879 129.777727 
L 406.719866 130.623833 
L 406.934901 130.752568 
L 407.397446 127.921888 
L 407.761988 125.918783 
L 408.010813 125.977736 
L 408.306484 124.410128 
L 408.815333 122.792296 
L 408.985773 123.276811 
L 409.325745 125.504592 
L 409.53711 124.683494 
L 409.8759 121.598623 
L 410.048444 121.866154 
L 410.647527 126.200144 
L 410.767494 125.842423 
L 410.939602 124.629032 
L 411.191608 123.775669 
L 411.41568 125.938354 
L 411.626022 126.388512 
L 412.135133 122.186088 
L 412.346723 122.752351 
L 412.729773 126.112204 
L 412.983564 125.901581 
L 413.366516 122.893124 
L 413.788612 125.980277 
L 413.963421 125.907523 
L 414.086826 124.186695 
L 414.446426 122.626776 
L 414.782039 124.730164 
L 414.99123 124.950999 
L 415.46778 124.163748 
L 415.838568 124.846853 
L 416.059072 124.225228 
L 416.177304 123.394275 
L 416.433889 123.157257 
L 416.729317 124.690772 
L 416.899018 124.714489 
L 417.113225 123.915118 
L 417.449745 122.356473 
L 417.789077 123.55908 
L 418.085892 126.38261 
L 418.339679 125.198539 
L 418.594683 122.703276 
L 418.827588 124.039717 
L 419.189407 127.532017 
L 419.361723 126.914047 
L 419.6947 123.780322 
L 419.957719 123.452431 
L 420.41718 125.453626 
L 420.587872 124.677545 
L 420.925953 122.112628 
L 421.137943 121.846025 
L 421.477982 124.700279 
L 421.775274 124.979467 
L 421.990986 123.788202 
L 422.240678 123.757379 
L 422.339046 124.278753 
L 422.878133 124.258939 
L 423.047377 124.40738 
L 423.477307 123.81438 
L 423.64689 124.886912 
L 423.773369 124.8489 
L 423.94515 123.398143 
L 424.197898 123.29953 
L 424.580218 125.295004 
L 424.790731 124.922085 
L 424.967711 124.105432 
L 425.12941 124.098132 
L 425.303316 124.306072 
L 425.68122 124.951188 
L 425.860445 124.818856 
L 426.358784 123.804872 
L 426.54884 124.005911 
L 426.71952 124.888747 
L 426.71952 124.888747 
" clip-path="url(#p3347466c52)" style="fill: none; stroke: #ff0000; stroke-opacity: 0.5; stroke-width: 1.75; stroke-linecap: square"/>
   </g>
   <g id="patch_3">
    <path d="M 30.123125 184.36327 
L 30.123125 0.72 
" style="fill: none; stroke: #000000; stroke-width: 0.8; stroke-linejoin: miter; stroke-linecap: square"/>
   </g>
   <g id="patch_4">
    <path d="M 426.71952 184.36327 
L 426.71952 0.72 
" style="fill: none; stroke: #000000; stroke-width: 0.8; stroke-linejoin: miter; stroke-linecap: square"/>
   </g>
   <g id="patch_5">
    <path d="M 30.123125 184.36327 
L 426.71952 184.36327 
" style="fill: none; stroke: #000000; stroke-width: 0.8; stroke-linejoin: miter; stroke-linecap: square"/>
   </g>
   <g id="patch_6">
    <path d="M 30.123125 0.72 
L 426.71952 0.72 
" style="fill: none; stroke: #000000; stroke-width: 0.8; stroke-linejoin: miter; stroke-linecap: square"/>
   </g>
   <g id="legend_1">
    <g id="patch_7">
     <path d="M 345.95077 38.07625 
L 419.71952 38.07625 
Q 421.71952 38.07625 421.71952 36.07625 
L 421.71952 7.72 
Q 421.71952 5.72 419.71952 5.72 
L 345.95077 5.72 
Q 343.95077 5.72 343.95077 7.72 
L 343.95077 36.07625 
Q 343.95077 38.07625 345.95077 38.07625 
z
" style="fill: #ffffff; opacity: 0.8; stroke: #cccccc; stroke-linejoin: miter"/>
    </g>
    <g id="line2d_31">
     <path d="M 347.95077 13.818437 
L 357.95077 13.818437 
L 367.95077 13.818437 
" style="fill: none; stroke: #0000ff; stroke-opacity: 0.5; stroke-width: 1.75; stroke-linecap: square"/>
    </g>
    <g id="text_17">
     <!-- RNEA -->
     <g transform="translate(375.95077 17.318437) scale(0.1 -0.1)">
      <defs>
       <path id="DejaVuSans-52" d="M 2841 2188 
Q 3044 2119 3236 1894 
Q 3428 1669 3622 1275 
L 4263 0 
L 3584 0 
L 2988 1197 
Q 2756 1666 2539 1819 
Q 2322 1972 1947 1972 
L 1259 1972 
L 1259 0 
L 628 0 
L 628 4666 
L 2053 4666 
Q 2853 4666 3247 4331 
Q 3641 3997 3641 3322 
Q 3641 2881 3436 2590 
Q 3231 2300 2841 2188 
z
M 1259 4147 
L 1259 2491 
L 2053 2491 
Q 2509 2491 2742 2702 
Q 2975 2913 2975 3322 
Q 2975 3731 2742 3939 
Q 2509 4147 2053 4147 
L 1259 4147 
z
" transform="scale(0.015625)"/>
       <path id="DejaVuSans-45" d="M 628 4666 
L 3578 4666 
L 3578 4134 
L 1259 4134 
L 1259 2753 
L 3481 2753 
L 3481 2222 
L 1259 2222 
L 1259 531 
L 3634 531 
L 3634 0 
L 628 0 
L 628 4666 
z
" transform="scale(0.015625)"/>
       <path id="DejaVuSans-41" d="M 2188 4044 
L 1331 1722 
L 3047 1722 
L 2188 4044 
z
M 1831 4666 
L 2547 4666 
L 4325 0 
L 3669 0 
L 3244 1197 
L 1141 1197 
L 716 0 
L 50 0 
L 1831 4666 
z
" transform="scale(0.015625)"/>
      </defs>
      <use xlink:href="#DejaVuSans-52"/>
      <use xlink:href="#DejaVuSans-4e" x="69.482422"/>
      <use xlink:href="#DejaVuSans-45" x="144.287109"/>
      <use xlink:href="#DejaVuSans-41" x="207.470703"/>
     </g>
    </g>
    <g id="line2d_32">
     <path d="M 347.95077 28.496562 
L 357.95077 28.496562 
L 367.95077 28.496562 
" style="fill: none; stroke: #ff0000; stroke-opacity: 0.5; stroke-width: 1.75; stroke-linecap: square"/>
    </g>
    <g id="text_18">
     <!-- BURNEA -->
     <g transform="translate(375.95077 31.996562) scale(0.1 -0.1)">
      <defs>
       <path id="DejaVuSans-42" d="M 1259 2228 
L 1259 519 
L 2272 519 
Q 2781 519 3026 730 
Q 3272 941 3272 1375 
Q 3272 1813 3026 2020 
Q 2781 2228 2272 2228 
L 1259 2228 
z
M 1259 4147 
L 1259 2741 
L 2194 2741 
Q 2656 2741 2882 2914 
Q 3109 3088 3109 3444 
Q 3109 3797 2882 3972 
Q 2656 4147 2194 4147 
L 1259 4147 
z
M 628 4666 
L 2241 4666 
Q 2963 4666 3353 4366 
Q 3744 4066 3744 3513 
Q 3744 3084 3544 2831 
Q 3344 2578 2956 2516 
Q 3422 2416 3680 2098 
Q 3938 1781 3938 1306 
Q 3938 681 3513 340 
Q 3088 0 2303 0 
L 628 0 
L 628 4666 
z
" transform="scale(0.015625)"/>
       <path id="DejaVuSans-55" d="M 556 4666 
L 1191 4666 
L 1191 1831 
Q 1191 1081 1462 751 
Q 1734 422 2344 422 
Q 2950 422 3222 751 
Q 3494 1081 3494 1831 
L 3494 4666 
L 4128 4666 
L 4128 1753 
Q 4128 841 3676 375 
Q 3225 -91 2344 -91 
Q 1459 -91 1007 375 
Q 556 841 556 1753 
L 556 4666 
z
" transform="scale(0.015625)"/>
      </defs>
      <use xlink:href="#DejaVuSans-42"/>
      <use xlink:href="#DejaVuSans-55" x="68.603516"/>
      <use xlink:href="#DejaVuSans-52" x="141.796875"/>
      <use xlink:href="#DejaVuSans-4e" x="211.279297"/>
      <use xlink:href="#DejaVuSans-45" x="286.083984"/>
      <use xlink:href="#DejaVuSans-41" x="349.267578"/>
     </g>
    </g>
   </g>
  </g>
 </g>
 <defs>
  <clipPath id="p3347466c52">
   <rect x="30.123125" y="0.72" width="396.596395" height="183.64327"/>
  </clipPath>
 </defs>
</svg>
