<?xml version="1.0" encoding="utf-8" standalone="no"?>
<!DOCTYPE svg PUBLIC "-//W3C//DTD SVG 1.1//EN"
  "http://www.w3.org/Graphics/SVG/1.1/DTD/svg11.dtd">
<svg xmlns:xlink="http://www.w3.org/1999/xlink" width="597.222813pt" height="304.99625pt" viewBox="0 0 597.222813 304.99625" xmlns="http://www.w3.org/2000/svg" version="1.1">
 <metadata>
  <rdf:RDF xmlns:dc="http://purl.org/dc/elements/1.1/" xmlns:cc="http://creativecommons.org/ns#" xmlns:rdf="http://www.w3.org/1999/02/22-rdf-syntax-ns#">
   <cc:Work>
    <dc:type rdf:resource="http://purl.org/dc/dcmitype/StillImage"/>
    <dc:date>2023-09-07T03:30:29.014753</dc:date>
    <dc:format>image/svg+xml</dc:format>
    <dc:creator>
     <cc:Agent>
      <dc:title>Matplotlib v3.7.2, https://matplotlib.org/</dc:title>
     </cc:Agent>
    </dc:creator>
   </cc:Work>
  </rdf:RDF>
 </metadata>
 <defs>
  <style type="text/css">*{stroke-linejoin: round; stroke-linecap: butt}</style>
 </defs>
 <g id="figure_1">
  <g id="patch_1">
   <path d="M 0 304.99625 
L 597.222813 304.99625 
L 597.222813 0 
L 0 0 
L 0 304.99625 
z
" style="fill: none"/>
  </g>
  <g id="axes_1">
   <g id="patch_2">
    <path d="M 38.502813 277.92 
L 596.502813 277.92 
L 596.502813 0.72 
L 38.502813 0.72 
L 38.502813 277.92 
z
" style="fill: none"/>
   </g>
   <g id="matplotlib.axis_1">
    <g id="xtick_1">
     <g id="line2d_1">
      <path d="M 38.502813 277.92 
L 38.502813 0.72 
" clip-path="url(#p0317c564f6)" style="fill: none; stroke-dasharray: 0.8,1.32; stroke-dashoffset: 0; stroke: #000000; stroke-opacity: 0.5; stroke-width: 0.8"/>
     </g>
     <g id="line2d_2">
      <defs>
       <path id="m6073f7dd03" d="M 0 0 
L 0 3.5 
" style="stroke: #000000; stroke-width: 0.8"/>
      </defs>
      <g>
       <use xlink:href="#m6073f7dd03" x="38.502813" y="277.92" style="stroke: #000000; stroke-width: 0.8"/>
      </g>
     </g>
     <g id="text_1">
      <!-- 0.0 -->
      <g transform="translate(30.55125 292.518438) scale(0.1 -0.1)">
       <defs>
        <path id="DejaVuSans-30" d="M 2034 4250 
Q 1547 4250 1301 3770 
Q 1056 3291 1056 2328 
Q 1056 1369 1301 889 
Q 1547 409 2034 409 
Q 2525 409 2770 889 
Q 3016 1369 3016 2328 
Q 3016 3291 2770 3770 
Q 2525 4250 2034 4250 
z
M 2034 4750 
Q 2819 4750 3233 4129 
Q 3647 3509 3647 2328 
Q 3647 1150 3233 529 
Q 2819 -91 2034 -91 
Q 1250 -91 836 529 
Q 422 1150 422 2328 
Q 422 3509 836 4129 
Q 1250 4750 2034 4750 
z
" transform="scale(0.015625)"/>
        <path id="DejaVuSans-2e" d="M 684 794 
L 1344 794 
L 1344 0 
L 684 0 
L 684 794 
z
" transform="scale(0.015625)"/>
       </defs>
       <use xlink:href="#DejaVuSans-30"/>
       <use xlink:href="#DejaVuSans-2e" x="63.623047"/>
       <use xlink:href="#DejaVuSans-30" x="95.410156"/>
      </g>
     </g>
    </g>
    <g id="xtick_2">
     <g id="line2d_3">
      <path d="M 112.654137 277.92 
L 112.654137 0.72 
" clip-path="url(#p0317c564f6)" style="fill: none; stroke-dasharray: 0.8,1.32; stroke-dashoffset: 0; stroke: #000000; stroke-opacity: 0.5; stroke-width: 0.8"/>
     </g>
     <g id="line2d_4">
      <g>
       <use xlink:href="#m6073f7dd03" x="112.654137" y="277.92" style="stroke: #000000; stroke-width: 0.8"/>
      </g>
     </g>
     <g id="text_2">
      <!-- 2.5 -->
      <g transform="translate(104.702575 292.518438) scale(0.1 -0.1)">
       <defs>
        <path id="DejaVuSans-32" d="M 1228 531 
L 3431 531 
L 3431 0 
L 469 0 
L 469 531 
Q 828 903 1448 1529 
Q 2069 2156 2228 2338 
Q 2531 2678 2651 2914 
Q 2772 3150 2772 3378 
Q 2772 3750 2511 3984 
Q 2250 4219 1831 4219 
Q 1534 4219 1204 4116 
Q 875 4013 500 3803 
L 500 4441 
Q 881 4594 1212 4672 
Q 1544 4750 1819 4750 
Q 2544 4750 2975 4387 
Q 3406 4025 3406 3419 
Q 3406 3131 3298 2873 
Q 3191 2616 2906 2266 
Q 2828 2175 2409 1742 
Q 1991 1309 1228 531 
z
" transform="scale(0.015625)"/>
        <path id="DejaVuSans-35" d="M 691 4666 
L 3169 4666 
L 3169 4134 
L 1269 4134 
L 1269 2991 
Q 1406 3038 1543 3061 
Q 1681 3084 1819 3084 
Q 2600 3084 3056 2656 
Q 3513 2228 3513 1497 
Q 3513 744 3044 326 
Q 2575 -91 1722 -91 
Q 1428 -91 1123 -41 
Q 819 9 494 109 
L 494 744 
Q 775 591 1075 516 
Q 1375 441 1709 441 
Q 2250 441 2565 725 
Q 2881 1009 2881 1497 
Q 2881 1984 2565 2268 
Q 2250 2553 1709 2553 
Q 1456 2553 1204 2497 
Q 953 2441 691 2322 
L 691 4666 
z
" transform="scale(0.015625)"/>
       </defs>
       <use xlink:href="#DejaVuSans-32"/>
       <use xlink:href="#DejaVuSans-2e" x="63.623047"/>
       <use xlink:href="#DejaVuSans-35" x="95.410156"/>
      </g>
     </g>
    </g>
    <g id="xtick_3">
     <g id="line2d_5">
      <path d="M 186.805462 277.92 
L 186.805462 0.72 
" clip-path="url(#p0317c564f6)" style="fill: none; stroke-dasharray: 0.8,1.32; stroke-dashoffset: 0; stroke: #000000; stroke-opacity: 0.5; stroke-width: 0.8"/>
     </g>
     <g id="line2d_6">
      <g>
       <use xlink:href="#m6073f7dd03" x="186.805462" y="277.92" style="stroke: #000000; stroke-width: 0.8"/>
      </g>
     </g>
     <g id="text_3">
      <!-- 5.0 -->
      <g transform="translate(178.8539 292.518438) scale(0.1 -0.1)">
       <use xlink:href="#DejaVuSans-35"/>
       <use xlink:href="#DejaVuSans-2e" x="63.623047"/>
       <use xlink:href="#DejaVuSans-30" x="95.410156"/>
      </g>
     </g>
    </g>
    <g id="xtick_4">
     <g id="line2d_7">
      <path d="M 260.956787 277.92 
L 260.956787 0.72 
" clip-path="url(#p0317c564f6)" style="fill: none; stroke-dasharray: 0.8,1.32; stroke-dashoffset: 0; stroke: #000000; stroke-opacity: 0.5; stroke-width: 0.8"/>
     </g>
     <g id="line2d_8">
      <g>
       <use xlink:href="#m6073f7dd03" x="260.956787" y="277.92" style="stroke: #000000; stroke-width: 0.8"/>
      </g>
     </g>
     <g id="text_4">
      <!-- 7.5 -->
      <g transform="translate(253.005225 292.518438) scale(0.1 -0.1)">
       <defs>
        <path id="DejaVuSans-37" d="M 525 4666 
L 3525 4666 
L 3525 4397 
L 1831 0 
L 1172 0 
L 2766 4134 
L 525 4134 
L 525 4666 
z
" transform="scale(0.015625)"/>
       </defs>
       <use xlink:href="#DejaVuSans-37"/>
       <use xlink:href="#DejaVuSans-2e" x="63.623047"/>
       <use xlink:href="#DejaVuSans-35" x="95.410156"/>
      </g>
     </g>
    </g>
    <g id="xtick_5">
     <g id="line2d_9">
      <path d="M 335.108112 277.92 
L 335.108112 0.72 
" clip-path="url(#p0317c564f6)" style="fill: none; stroke-dasharray: 0.8,1.32; stroke-dashoffset: 0; stroke: #000000; stroke-opacity: 0.5; stroke-width: 0.8"/>
     </g>
     <g id="line2d_10">
      <g>
       <use xlink:href="#m6073f7dd03" x="335.108112" y="277.92" style="stroke: #000000; stroke-width: 0.8"/>
      </g>
     </g>
     <g id="text_5">
      <!-- 10.0 -->
      <g transform="translate(323.9753 292.518438) scale(0.1 -0.1)">
       <defs>
        <path id="DejaVuSans-31" d="M 794 531 
L 1825 531 
L 1825 4091 
L 703 3866 
L 703 4441 
L 1819 4666 
L 2450 4666 
L 2450 531 
L 3481 531 
L 3481 0 
L 794 0 
L 794 531 
z
" transform="scale(0.015625)"/>
       </defs>
       <use xlink:href="#DejaVuSans-31"/>
       <use xlink:href="#DejaVuSans-30" x="63.623047"/>
       <use xlink:href="#DejaVuSans-2e" x="127.246094"/>
       <use xlink:href="#DejaVuSans-30" x="159.033203"/>
      </g>
     </g>
    </g>
    <g id="xtick_6">
     <g id="line2d_11">
      <path d="M 409.259437 277.92 
L 409.259437 0.72 
" clip-path="url(#p0317c564f6)" style="fill: none; stroke-dasharray: 0.8,1.32; stroke-dashoffset: 0; stroke: #000000; stroke-opacity: 0.5; stroke-width: 0.8"/>
     </g>
     <g id="line2d_12">
      <g>
       <use xlink:href="#m6073f7dd03" x="409.259437" y="277.92" style="stroke: #000000; stroke-width: 0.8"/>
      </g>
     </g>
     <g id="text_6">
      <!-- 12.5 -->
      <g transform="translate(398.126625 292.518438) scale(0.1 -0.1)">
       <use xlink:href="#DejaVuSans-31"/>
       <use xlink:href="#DejaVuSans-32" x="63.623047"/>
       <use xlink:href="#DejaVuSans-2e" x="127.246094"/>
       <use xlink:href="#DejaVuSans-35" x="159.033203"/>
      </g>
     </g>
    </g>
    <g id="xtick_7">
     <g id="line2d_13">
      <path d="M 483.410762 277.92 
L 483.410762 0.72 
" clip-path="url(#p0317c564f6)" style="fill: none; stroke-dasharray: 0.8,1.32; stroke-dashoffset: 0; stroke: #000000; stroke-opacity: 0.5; stroke-width: 0.8"/>
     </g>
     <g id="line2d_14">
      <g>
       <use xlink:href="#m6073f7dd03" x="483.410762" y="277.92" style="stroke: #000000; stroke-width: 0.8"/>
      </g>
     </g>
     <g id="text_7">
      <!-- 15.0 -->
      <g transform="translate(472.27795 292.518438) scale(0.1 -0.1)">
       <use xlink:href="#DejaVuSans-31"/>
       <use xlink:href="#DejaVuSans-35" x="63.623047"/>
       <use xlink:href="#DejaVuSans-2e" x="127.246094"/>
       <use xlink:href="#DejaVuSans-30" x="159.033203"/>
      </g>
     </g>
    </g>
    <g id="xtick_8">
     <g id="line2d_15">
      <path d="M 557.562087 277.92 
L 557.562087 0.72 
" clip-path="url(#p0317c564f6)" style="fill: none; stroke-dasharray: 0.8,1.32; stroke-dashoffset: 0; stroke: #000000; stroke-opacity: 0.5; stroke-width: 0.8"/>
     </g>
     <g id="line2d_16">
      <g>
       <use xlink:href="#m6073f7dd03" x="557.562087" y="277.92" style="stroke: #000000; stroke-width: 0.8"/>
      </g>
     </g>
     <g id="text_8">
      <!-- 17.5 -->
      <g transform="translate(546.429274 292.518438) scale(0.1 -0.1)">
       <use xlink:href="#DejaVuSans-31"/>
       <use xlink:href="#DejaVuSans-37" x="63.623047"/>
       <use xlink:href="#DejaVuSans-2e" x="127.246094"/>
       <use xlink:href="#DejaVuSans-35" x="159.033203"/>
      </g>
     </g>
    </g>
    <g id="text_9">
     <!-- Zeit [s] -->
     <g transform="translate(299.556719 302.196563) scale(0.1 -0.1)">
      <defs>
       <path id="DejaVuSans-5a" d="M 359 4666 
L 4025 4666 
L 4025 4184 
L 1075 531 
L 4097 531 
L 4097 0 
L 288 0 
L 288 481 
L 3238 4134 
L 359 4134 
L 359 4666 
z
" transform="scale(0.015625)"/>
       <path id="DejaVuSans-65" d="M 3597 1894 
L 3597 1613 
L 953 1613 
Q 991 1019 1311 708 
Q 1631 397 2203 397 
Q 2534 397 2845 478 
Q 3156 559 3463 722 
L 3463 178 
Q 3153 47 2828 -22 
Q 2503 -91 2169 -91 
Q 1331 -91 842 396 
Q 353 884 353 1716 
Q 353 2575 817 3079 
Q 1281 3584 2069 3584 
Q 2775 3584 3186 3129 
Q 3597 2675 3597 1894 
z
M 3022 2063 
Q 3016 2534 2758 2815 
Q 2500 3097 2075 3097 
Q 1594 3097 1305 2825 
Q 1016 2553 972 2059 
L 3022 2063 
z
" transform="scale(0.015625)"/>
       <path id="DejaVuSans-69" d="M 603 3500 
L 1178 3500 
L 1178 0 
L 603 0 
L 603 3500 
z
M 603 4863 
L 1178 4863 
L 1178 4134 
L 603 4134 
L 603 4863 
z
" transform="scale(0.015625)"/>
       <path id="DejaVuSans-74" d="M 1172 4494 
L 1172 3500 
L 2356 3500 
L 2356 3053 
L 1172 3053 
L 1172 1153 
Q 1172 725 1289 603 
Q 1406 481 1766 481 
L 2356 481 
L 2356 0 
L 1766 0 
Q 1100 0 847 248 
Q 594 497 594 1153 
L 594 3053 
L 172 3053 
L 172 3500 
L 594 3500 
L 594 4494 
L 1172 4494 
z
" transform="scale(0.015625)"/>
       <path id="DejaVuSans-20" transform="scale(0.015625)"/>
       <path id="DejaVuSans-5b" d="M 550 4863 
L 1875 4863 
L 1875 4416 
L 1125 4416 
L 1125 -397 
L 1875 -397 
L 1875 -844 
L 550 -844 
L 550 4863 
z
" transform="scale(0.015625)"/>
       <path id="DejaVuSans-73" d="M 2834 3397 
L 2834 2853 
Q 2591 2978 2328 3040 
Q 2066 3103 1784 3103 
Q 1356 3103 1142 2972 
Q 928 2841 928 2578 
Q 928 2378 1081 2264 
Q 1234 2150 1697 2047 
L 1894 2003 
Q 2506 1872 2764 1633 
Q 3022 1394 3022 966 
Q 3022 478 2636 193 
Q 2250 -91 1575 -91 
Q 1294 -91 989 -36 
Q 684 19 347 128 
L 347 722 
Q 666 556 975 473 
Q 1284 391 1588 391 
Q 1994 391 2212 530 
Q 2431 669 2431 922 
Q 2431 1156 2273 1281 
Q 2116 1406 1581 1522 
L 1381 1569 
Q 847 1681 609 1914 
Q 372 2147 372 2553 
Q 372 3047 722 3315 
Q 1072 3584 1716 3584 
Q 2034 3584 2315 3537 
Q 2597 3491 2834 3397 
z
" transform="scale(0.015625)"/>
       <path id="DejaVuSans-5d" d="M 1947 4863 
L 1947 -844 
L 622 -844 
L 622 -397 
L 1369 -397 
L 1369 4416 
L 622 4416 
L 622 4863 
L 1947 4863 
z
" transform="scale(0.015625)"/>
      </defs>
      <use xlink:href="#DejaVuSans-5a"/>
      <use xlink:href="#DejaVuSans-65" x="68.505859"/>
      <use xlink:href="#DejaVuSans-69" x="130.029297"/>
      <use xlink:href="#DejaVuSans-74" x="157.8125"/>
      <use xlink:href="#DejaVuSans-20" x="197.021484"/>
      <use xlink:href="#DejaVuSans-5b" x="228.808594"/>
      <use xlink:href="#DejaVuSans-73" x="267.822266"/>
      <use xlink:href="#DejaVuSans-5d" x="319.921875"/>
     </g>
    </g>
   </g>
   <g id="matplotlib.axis_2">
    <g id="ytick_1">
     <g id="line2d_17">
      <path d="M 38.502813 274.0862 
L 596.502813 274.0862 
" clip-path="url(#p0317c564f6)" style="fill: none; stroke-dasharray: 0.8,1.32; stroke-dashoffset: 0; stroke: #000000; stroke-opacity: 0.5; stroke-width: 0.8"/>
     </g>
     <g id="line2d_18">
      <defs>
       <path id="mf65e2d1f99" d="M 0 0 
L -3.5 0 
" style="stroke: #000000; stroke-width: 0.8"/>
      </defs>
      <g>
       <use xlink:href="#mf65e2d1f99" x="38.502813" y="274.0862" style="stroke: #000000; stroke-width: 0.8"/>
      </g>
     </g>
     <g id="text_10">
      <!-- −30 -->
      <g transform="translate(10.398125 277.885418) scale(0.1 -0.1)">
       <defs>
        <path id="DejaVuSans-2212" d="M 678 2272 
L 4684 2272 
L 4684 1741 
L 678 1741 
L 678 2272 
z
" transform="scale(0.015625)"/>
        <path id="DejaVuSans-33" d="M 2597 2516 
Q 3050 2419 3304 2112 
Q 3559 1806 3559 1356 
Q 3559 666 3084 287 
Q 2609 -91 1734 -91 
Q 1441 -91 1130 -33 
Q 819 25 488 141 
L 488 750 
Q 750 597 1062 519 
Q 1375 441 1716 441 
Q 2309 441 2620 675 
Q 2931 909 2931 1356 
Q 2931 1769 2642 2001 
Q 2353 2234 1838 2234 
L 1294 2234 
L 1294 2753 
L 1863 2753 
Q 2328 2753 2575 2939 
Q 2822 3125 2822 3475 
Q 2822 3834 2567 4026 
Q 2313 4219 1838 4219 
Q 1578 4219 1281 4162 
Q 984 4106 628 3988 
L 628 4550 
Q 988 4650 1302 4700 
Q 1616 4750 1894 4750 
Q 2613 4750 3031 4423 
Q 3450 4097 3450 3541 
Q 3450 3153 3228 2886 
Q 3006 2619 2597 2516 
z
" transform="scale(0.015625)"/>
       </defs>
       <use xlink:href="#DejaVuSans-2212"/>
       <use xlink:href="#DejaVuSans-33" x="83.789062"/>
       <use xlink:href="#DejaVuSans-30" x="147.412109"/>
      </g>
     </g>
    </g>
    <g id="ytick_2">
     <g id="line2d_19">
      <path d="M 38.502813 220.943009 
L 596.502813 220.943009 
" clip-path="url(#p0317c564f6)" style="fill: none; stroke-dasharray: 0.8,1.32; stroke-dashoffset: 0; stroke: #000000; stroke-opacity: 0.5; stroke-width: 0.8"/>
     </g>
     <g id="line2d_20">
      <g>
       <use xlink:href="#mf65e2d1f99" x="38.502813" y="220.943009" style="stroke: #000000; stroke-width: 0.8"/>
      </g>
     </g>
     <g id="text_11">
      <!-- −20 -->
      <g transform="translate(10.398125 224.742227) scale(0.1 -0.1)">
       <use xlink:href="#DejaVuSans-2212"/>
       <use xlink:href="#DejaVuSans-32" x="83.789062"/>
       <use xlink:href="#DejaVuSans-30" x="147.412109"/>
      </g>
     </g>
    </g>
    <g id="ytick_3">
     <g id="line2d_21">
      <path d="M 38.502813 167.799818 
L 596.502813 167.799818 
" clip-path="url(#p0317c564f6)" style="fill: none; stroke-dasharray: 0.8,1.32; stroke-dashoffset: 0; stroke: #000000; stroke-opacity: 0.5; stroke-width: 0.8"/>
     </g>
     <g id="line2d_22">
      <g>
       <use xlink:href="#mf65e2d1f99" x="38.502813" y="167.799818" style="stroke: #000000; stroke-width: 0.8"/>
      </g>
     </g>
     <g id="text_12">
      <!-- −10 -->
      <g transform="translate(10.398125 171.599037) scale(0.1 -0.1)">
       <use xlink:href="#DejaVuSans-2212"/>
       <use xlink:href="#DejaVuSans-31" x="83.789062"/>
       <use xlink:href="#DejaVuSans-30" x="147.412109"/>
      </g>
     </g>
    </g>
    <g id="ytick_4">
     <g id="line2d_23">
      <path d="M 38.502813 114.656627 
L 596.502813 114.656627 
" clip-path="url(#p0317c564f6)" style="fill: none; stroke-dasharray: 0.8,1.32; stroke-dashoffset: 0; stroke: #000000; stroke-opacity: 0.5; stroke-width: 0.8"/>
     </g>
     <g id="line2d_24">
      <g>
       <use xlink:href="#mf65e2d1f99" x="38.502813" y="114.656627" style="stroke: #000000; stroke-width: 0.8"/>
      </g>
     </g>
     <g id="text_13">
      <!-- 0 -->
      <g transform="translate(25.140313 118.455846) scale(0.1 -0.1)">
       <use xlink:href="#DejaVuSans-30"/>
      </g>
     </g>
    </g>
    <g id="ytick_5">
     <g id="line2d_25">
      <path d="M 38.502813 61.513436 
L 596.502813 61.513436 
" clip-path="url(#p0317c564f6)" style="fill: none; stroke-dasharray: 0.8,1.32; stroke-dashoffset: 0; stroke: #000000; stroke-opacity: 0.5; stroke-width: 0.8"/>
     </g>
     <g id="line2d_26">
      <g>
       <use xlink:href="#mf65e2d1f99" x="38.502813" y="61.513436" style="stroke: #000000; stroke-width: 0.8"/>
      </g>
     </g>
     <g id="text_14">
      <!-- 10 -->
      <g transform="translate(18.777813 65.312655) scale(0.1 -0.1)">
       <use xlink:href="#DejaVuSans-31"/>
       <use xlink:href="#DejaVuSans-30" x="63.623047"/>
      </g>
     </g>
    </g>
    <g id="ytick_6">
     <g id="line2d_27">
      <path d="M 38.502813 8.370245 
L 596.502813 8.370245 
" clip-path="url(#p0317c564f6)" style="fill: none; stroke-dasharray: 0.8,1.32; stroke-dashoffset: 0; stroke: #000000; stroke-opacity: 0.5; stroke-width: 0.8"/>
     </g>
     <g id="line2d_28">
      <g>
       <use xlink:href="#mf65e2d1f99" x="38.502813" y="8.370245" style="stroke: #000000; stroke-width: 0.8"/>
      </g>
     </g>
     <g id="text_15">
      <!-- 20 -->
      <g transform="translate(18.777813 12.169464) scale(0.1 -0.1)">
       <use xlink:href="#DejaVuSans-32"/>
       <use xlink:href="#DejaVuSans-30" x="63.623047"/>
      </g>
     </g>
    </g>
    <g id="text_16">
     <!-- Kraft [N] -->
     <g transform="translate(8.318438 160.5825) rotate(-90) scale(0.1 -0.1)">
      <defs>
       <path id="DejaVuSans-4b" d="M 628 4666 
L 1259 4666 
L 1259 2694 
L 3353 4666 
L 4166 4666 
L 1850 2491 
L 4331 0 
L 3500 0 
L 1259 2247 
L 1259 0 
L 628 0 
L 628 4666 
z
" transform="scale(0.015625)"/>
       <path id="DejaVuSans-72" d="M 2631 2963 
Q 2534 3019 2420 3045 
Q 2306 3072 2169 3072 
Q 1681 3072 1420 2755 
Q 1159 2438 1159 1844 
L 1159 0 
L 581 0 
L 581 3500 
L 1159 3500 
L 1159 2956 
Q 1341 3275 1631 3429 
Q 1922 3584 2338 3584 
Q 2397 3584 2469 3576 
Q 2541 3569 2628 3553 
L 2631 2963 
z
" transform="scale(0.015625)"/>
       <path id="DejaVuSans-61" d="M 2194 1759 
Q 1497 1759 1228 1600 
Q 959 1441 959 1056 
Q 959 750 1161 570 
Q 1363 391 1709 391 
Q 2188 391 2477 730 
Q 2766 1069 2766 1631 
L 2766 1759 
L 2194 1759 
z
M 3341 1997 
L 3341 0 
L 2766 0 
L 2766 531 
Q 2569 213 2275 61 
Q 1981 -91 1556 -91 
Q 1019 -91 701 211 
Q 384 513 384 1019 
Q 384 1609 779 1909 
Q 1175 2209 1959 2209 
L 2766 2209 
L 2766 2266 
Q 2766 2663 2505 2880 
Q 2244 3097 1772 3097 
Q 1472 3097 1187 3025 
Q 903 2953 641 2809 
L 641 3341 
Q 956 3463 1253 3523 
Q 1550 3584 1831 3584 
Q 2591 3584 2966 3190 
Q 3341 2797 3341 1997 
z
" transform="scale(0.015625)"/>
       <path id="DejaVuSans-66" d="M 2375 4863 
L 2375 4384 
L 1825 4384 
Q 1516 4384 1395 4259 
Q 1275 4134 1275 3809 
L 1275 3500 
L 2222 3500 
L 2222 3053 
L 1275 3053 
L 1275 0 
L 697 0 
L 697 3053 
L 147 3053 
L 147 3500 
L 697 3500 
L 697 3744 
Q 697 4328 969 4595 
Q 1241 4863 1831 4863 
L 2375 4863 
z
" transform="scale(0.015625)"/>
       <path id="DejaVuSans-4e" d="M 628 4666 
L 1478 4666 
L 3547 763 
L 3547 4666 
L 4159 4666 
L 4159 0 
L 3309 0 
L 1241 3903 
L 1241 0 
L 628 0 
L 628 4666 
z
" transform="scale(0.015625)"/>
      </defs>
      <use xlink:href="#DejaVuSans-4b"/>
      <use xlink:href="#DejaVuSans-72" x="65.576172"/>
      <use xlink:href="#DejaVuSans-61" x="106.689453"/>
      <use xlink:href="#DejaVuSans-66" x="167.96875"/>
      <use xlink:href="#DejaVuSans-74" x="201.423828"/>
      <use xlink:href="#DejaVuSans-20" x="240.632812"/>
      <use xlink:href="#DejaVuSans-5b" x="272.419922"/>
      <use xlink:href="#DejaVuSans-4e" x="311.433594"/>
      <use xlink:href="#DejaVuSans-5d" x="386.238281"/>
     </g>
    </g>
   </g>
   <g id="line2d_29">
    <path d="M 38.502813 114.647148 
L 54.356612 114.644387 
L 62.638974 114.66146 
L 63.356366 114.636798 
L 64.72558 114.655228 
L 65.860257 114.646712 
L 69.616891 114.642492 
L 71.589579 114.638131 
L 80.296129 114.638082 
L 81.913099 114.622132 
L 84.706152 114.664949 
L 85.838773 114.625669 
L 88.586765 114.66109 
L 91.801828 114.64714 
L 122.935962 114.649195 
L 124.35569 114.636639 
L 138.237846 114.640537 
L 139.518495 114.634731 
L 141.74323 114.653778 
L 144.426045 114.649474 
L 147.644895 114.648418 
L 150.565971 114.643344 
L 161.002186 114.637269 
L 165.64954 114.644378 
L 223.248476 114.638081 
L 223.554257 75.357161 
L 223.732051 120.104504 
L 224.048213 118.324277 
L 224.26118 122.678847 
L 224.498476 133.659405 
L 224.738977 130.96401 
L 225.274355 115.849924 
L 225.513956 119.162627 
L 225.75103 108.89249 
L 225.988789 123.399299 
L 226.226817 100.962654 
L 226.525541 109.656507 
L 226.707352 130.565074 
L 227.004147 110.912503 
L 227.184451 112.237107 
L 227.422827 99.288635 
L 227.479239 121.101017 
L 227.717393 111.43287 
L 227.956897 109.89361 
L 228.194151 112.391346 
L 228.491933 127.913718 
L 228.730952 119.517376 
L 228.972776 115.422992 
L 229.211707 100.065856 
L 229.507621 113.804667 
L 229.86666 113.736163 
L 229.998628 113.566961 
L 230.173069 120.045727 
L 230.408796 119.17586 
L 230.705939 124.680689 
L 230.945101 110.882131 
L 231.242363 102.167204 
L 231.630147 111.904457 
L 231.663719 133.926355 
L 232.316057 106.042948 
L 232.434509 122.591646 
L 232.915984 109.501546 
L 233.208451 106.693526 
L 233.387885 93.4321 
L 233.626662 116.308071 
L 233.864567 103.201712 
L 234.163673 119.799771 
L 234.459871 98.065704 
L 234.638675 118.335232 
L 235.11598 102.598075 
L 235.432665 111.533149 
L 235.906757 107.042834 
L 236.084479 112.144387 
L 236.621287 104.225796 
L 236.919839 102.889728 
L 237.157824 104.185697 
L 237.695023 113.434936 
L 237.874902 121.746281 
L 238.290534 104.100614 
L 238.35076 118.456744 
L 238.589264 113.842068 
L 238.828455 115.210171 
L 239.065068 107.406851 
L 239.305311 112.226194 
L 239.549082 108.034274 
L 239.840779 116.664426 
L 240.023237 126.009957 
L 240.317181 111.889154 
L 240.614551 107.410544 
L 240.793797 113.545958 
L 241.151839 111.776826 
L 241.389884 100.593998 
L 241.569338 112.977961 
L 241.806632 108.137449 
L 242.344062 111.791379 
L 242.641746 115.84876 
L 242.939843 115.353402 
L 243.118815 109.173265 
L 243.41606 111.435787 
L 243.539421 111.271613 
L 243.836562 111.784879 
L 244.253567 100.64601 
L 244.531837 110.892751 
L 244.760099 112.106978 
L 244.998784 116.71068 
L 245.503869 109.554887 
L 245.741822 113.863814 
L 246.202726 109.108673 
L 246.460816 113.792364 
L 246.994239 110.663526 
L 247.232263 122.691605 
L 247.469526 115.553387 
L 247.708076 113.262085 
L 248.125328 104.257797 
L 248.543255 123.033307 
L 248.848689 106.774853 
L 249.020847 107.77557 
L 249.218981 110.793755 
L 249.530817 113.093653 
L 249.796994 110.739493 
L 249.91722 108.507401 
L 250.176782 110.388808 
L 250.454559 113.920424 
L 250.69308 125.643651 
L 250.990238 107.735011 
L 251.171156 108.514948 
L 251.466717 99.407545 
L 251.705896 101.349144 
L 252.004037 116.31429 
L 252.243865 114.920922 
L 252.425758 104.544052 
L 252.66071 110.241362 
L 252.958474 122.950381 
L 253.137428 110.330291 
L 253.437262 103.51926 
L 253.732822 113.587315 
L 253.912799 112.474466 
L 254.151034 116.734354 
L 254.390353 105.474146 
L 254.629948 113.244574 
L 254.866171 105.64333 
L 255.283195 117.50263 
L 255.64118 100.42787 
L 255.702331 116.366764 
L 255.879236 106.433544 
L 256.357 115.601525 
L 256.596713 104.754572 
L 257.013573 104.684169 
L 257.134596 115.966888 
L 257.430682 100.268034 
L 257.61066 114.154064 
L 257.848051 113.366576 
L 258.20509 108.763617 
L 258.445132 107.485173 
L 258.577231 98.269865 
L 258.859825 112.429435 
L 259.158214 100.330996 
L 259.487917 112.681845 
L 259.730147 111.769749 
L 259.876027 102.147264 
L 260.173233 104.726811 
L 260.294447 109.293059 
L 260.591149 103.342435 
L 260.949329 104.910148 
L 261.322962 112.218307 
L 261.490067 105.538309 
L 261.602805 107.041918 
L 261.975746 109.102152 
L 262.086563 105.553849 
L 262.328785 110.141282 
L 262.55622 111.117758 
L 262.794199 121.69012 
L 263.151773 120.246105 
L 263.330837 100.514635 
L 263.7477 104.550816 
L 263.866901 102.478724 
L 264.105397 107.251233 
L 264.285849 105.461387 
L 264.643203 107.973012 
L 264.881961 108.470381 
L 265.058864 108.145396 
L 265.299527 117.161074 
L 265.714773 104.461115 
L 265.955612 111.971304 
L 266.191948 96.386974 
L 266.252174 113.496796 
L 266.48981 116.694015 
L 266.788459 112.454714 
L 267.09442 115.863935 
L 267.324829 108.151722 
L 267.563622 105.382126 
L 267.759853 107.88377 
L 268.099501 114.228809 
L 268.338011 102.965089 
L 268.532791 105.271746 
L 268.756773 114.770779 
L 269.017167 108.658878 
L 269.233644 111.461081 
L 269.530633 121.175395 
L 269.887378 119.059242 
L 270.125731 118.912712 
L 270.245132 114.455935 
L 270.661966 108.223263 
L 270.723 102.327923 
L 271.318588 113.43023 
L 271.561653 99.991204 
L 271.735812 112.22863 
L 271.975033 110.720475 
L 272.273994 115.380477 
L 272.689423 104.576615 
L 272.927961 111.002729 
L 273.17533 100.147004 
L 273.464189 108.660658 
L 273.643316 107.766806 
L 273.969451 110.650046 
L 274.219372 106.229092 
L 274.658263 105.829988 
L 275.037647 110.325258 
L 275.313574 109.506476 
L 275.437851 117.094332 
L 275.791628 116.091612 
L 275.91339 104.43914 
L 276.20821 110.350307 
L 276.812326 112.098108 
L 277.162083 118.240284 
L 277.590469 102.454868 
L 277.939041 107.869419 
L 278.12053 104.082634 
L 278.475781 116.600643 
L 278.624491 105.912704 
L 278.955747 116.697554 
L 279.193852 114.787684 
L 279.431173 109.948654 
L 279.612332 111.149509 
L 279.907556 107.079076 
L 280.086959 109.273703 
L 280.384925 103.766937 
L 280.623809 106.168195 
L 280.980465 99.681645 
L 281.1601 111.112296 
L 281.457142 105.132016 
L 281.594071 107.848218 
L 281.873928 106.954509 
L 282.056615 110.008272 
L 282.113657 99.408624 
L 282.533731 107.451954 
L 282.828435 101.419618 
L 283.068365 100.016128 
L 283.306338 103.317739 
L 283.66432 110.986538 
L 284.088847 103.754719 
L 284.319934 109.246867 
L 284.563335 108.333221 
L 285.034625 102.318404 
L 285.276257 103.175989 
L 285.690436 107.195478 
L 285.810779 102.243239 
L 286.048783 110.740497 
L 286.292195 101.860364 
L 286.526687 109.93159 
L 286.769413 102.609299 
L 287.007247 113.121281 
L 287.262421 104.708727 
L 287.484106 117.445809 
L 287.900764 106.397511 
L 288.024509 96.458074 
L 288.259375 105.817508 
L 288.497522 96.836928 
L 288.736219 106.530529 
L 289.035046 111.773917 
L 289.24077 111.537788 
L 289.455069 93.814673 
L 289.811148 103.043971 
L 290.227704 106.903981 
L 290.347633 104.566917 
L 290.465879 107.755463 
L 290.883363 103.305892 
L 290.948755 104.615182 
L 291.225488 106.433055 
L 291.495528 113.843449 
L 291.679836 107.924489 
L 292.13465 106.615351 
L 292.194976 95.038504 
L 292.432576 104.122912 
L 292.730948 105.451385 
L 292.969282 109.036442 
L 293.207555 104.494677 
L 293.504983 103.632197 
L 293.689059 106.475425 
L 293.924229 106.461349 
L 294.221147 120.048226 
L 294.466574 107.533867 
L 294.698997 113.758883 
L 294.878318 105.507063 
L 295.173661 112.346311 
L 295.717231 98.728492 
L 295.948103 107.347098 
L 296.426372 104.736877 
L 296.607631 104.775497 
L 296.961851 106.622447 
L 297.152314 105.942296 
L 297.438974 100.80266 
L 297.620443 106.837168 
L 297.929888 102.597753 
L 298.095365 110.473304 
L 298.335465 105.232805 
L 298.632709 110.5903 
L 298.870236 99.025217 
L 299.108436 113.37385 
L 299.60655 105.130463 
L 299.827215 105.856552 
L 300.182774 113.281168 
L 300.854175 103.805938 
L 301.079765 103.138234 
L 301.494049 99.335019 
L 301.613328 107.572998 
L 301.911255 95.823646 
L 302.09056 108.656417 
L 302.447614 102.434446 
L 302.626399 111.538271 
L 302.80676 93.534511 
L 303.043886 106.632534 
L 303.341324 107.425839 
L 303.54503 109.234552 
L 303.826118 105.60082 
L 304.119111 107.669771 
L 304.41641 106.65794 
L 304.595673 102.714616 
L 305.252232 109.574438 
L 305.548602 101.517311 
L 305.846457 109.956271 
L 306.02906 99.915314 
L 306.385283 100.491427 
L 306.562027 120.217932 
L 306.801509 107.033562 
L 306.996024 107.425782 
L 307.281744 105.184628 
L 307.900046 105.887358 
L 308.067971 99.005149 
L 308.299126 113.17054 
L 308.537897 104.940258 
L 308.839248 107.822714 
L 309.086734 108.585232 
L 309.930311 103.871873 
L 310.001814 106.847547 
L 310.28921 103.799267 
L 310.527271 109.307239 
L 310.708003 105.298491 
L 311.063774 109.030436 
L 311.242711 103.234781 
L 311.611583 99.980286 
L 311.781527 106.596693 
L 312.017687 109.932085 
L 312.375319 99.281781 
L 312.501747 105.211149 
L 313.090224 111.039125 
L 313.212638 164.829921 
L 313.568273 164.55989 
L 313.805492 162.120562 
L 314.235778 129.598817 
L 314.58015 129.037465 
L 314.701814 120.343494 
L 314.938888 120.503907 
L 315.237717 114.680017 
L 315.682591 112.833533 
L 316.33419 116.150938 
L 316.452034 106.156728 
L 316.695304 114.358217 
L 316.995565 108.043209 
L 317.110027 114.53238 
L 317.410895 112.554367 
L 317.763281 116.303771 
L 318.180102 115.347533 
L 318.359189 116.960701 
L 318.718927 111.231065 
L 318.959086 111.502004 
L 319.49789 118.208656 
L 319.614865 115.325011 
L 319.910478 119.898675 
L 320.14826 115.64981 
L 320.624731 113.302497 
L 320.864807 114.908714 
L 321.102007 109.959992 
L 321.340325 113.522989 
L 321.584298 114.300405 
L 321.878065 109.06447 
L 322.357206 114.639448 
L 322.592008 115.384559 
L 322.840479 114.652373 
L 323.070052 115.089927 
L 323.310491 115.056542 
L 323.548541 118.633355 
L 323.963903 118.290695 
L 324.083748 117.470936 
L 324.50419 116.932303 
L 324.569671 112.031912 
L 324.802157 114.989877 
L 325.098086 115.077474 
L 325.454334 114.522712 
L 325.633327 113.372317 
L 325.812051 115.219129 
L 326.051482 111.029705 
L 326.294583 111.94792 
L 326.530758 114.392076 
L 326.852363 112.732756 
L 327.242305 115.676294 
L 327.301953 114.117577 
L 327.540635 115.158861 
L 327.778986 114.836694 
L 328.256505 116.162004 
L 328.495475 111.120487 
L 328.794246 117.341618 
L 329.171816 114.709311 
L 329.275333 116.702447 
L 329.508337 118.526366 
L 329.745474 112.331448 
L 330.162941 114.948089 
L 330.580948 114.846616 
L 330.761294 117.070076 
L 331.057073 115.315401 
L 331.312423 117.736855 
L 331.798258 113.679167 
L 332.018819 115.809235 
L 332.487919 115.288479 
L 332.725398 116.820797 
L 333.024265 114.842782 
L 333.267721 116.256713 
L 333.502737 116.746046 
L 333.741417 114.127272 
L 333.980504 115.147666 
L 334.226045 117.179966 
L 334.581092 112.895928 
L 335.022935 115.328785 
L 335.231468 115.178349 
L 335.709664 118.674451 
L 335.971918 117.572204 
L 336.184852 114.103117 
L 336.423478 113.811466 
L 336.663453 113.86111 
L 336.900926 115.99562 
L 337.317585 114.648274 
L 337.437428 113.619244 
L 337.736454 115.830949 
L 337.916816 114.9085 
L 338.161358 111.148161 
L 338.54477 117.070243 
L 338.658091 114.041318 
L 338.944233 114.940661 
L 338.991294 115.463605 
L 339.29103 111.140447 
L 339.410048 115.596876 
L 339.825811 115.061467 
L 339.945144 115.383546 
L 340.12328 114.926331 
L 340.421547 113.48805 
L 340.719728 117.935039 
L 340.898441 115.62375 
L 341.13678 114.673039 
L 341.375437 115.410544 
L 341.615004 113.800953 
L 341.917182 116.724555 
L 342.091832 116.81665 
L 342.390217 113.724122 
L 342.592547 114.594788 
L 342.865715 114.830939 
L 343.224194 118.080432 
L 343.364331 114.923919 
L 343.582206 114.898743 
L 343.819625 114.498945 
L 344.2367 115.185015 
L 344.355474 113.720858 
L 344.835051 116.14353 
L 345.073439 115.256392 
L 345.381281 115.79525 
L 345.609531 116.725007 
L 345.793405 112.772024 
L 346.084919 115.616057 
L 346.386542 115.578349 
L 346.623265 112.287515 
L 346.800697 116.652653 
L 347.046882 114.631347 
L 347.336523 113.848499 
L 347.633595 114.51997 
L 347.812551 115.499623 
L 348.051726 115.004946 
L 348.470912 114.480819 
L 348.531021 115.087788 
L 349.025631 114.85962 
L 349.25029 116.754073 
L 349.603408 114.808776 
L 349.8421 114.891635 
L 350.139628 115.666508 
L 350.557034 110.068189 
L 350.855204 115.968259 
L 351.033535 115.581823 
L 351.272515 114.790404 
L 351.510253 110.954933 
L 351.86755 118.73721 
L 352.048182 114.344432 
L 352.34541 116.091589 
L 352.643325 114.459265 
L 352.763199 115.381764 
L 353.001631 118.329926 
L 353.358236 114.181996 
L 353.777296 114.631097 
L 354.192068 111.685079 
L 354.49016 116.900367 
L 354.729169 114.86522 
L 354.967142 115.271193 
L 355.26572 114.684222 
L 355.563366 114.919963 
L 355.691361 118.05314 
L 355.993376 114.933738 
L 356.230389 114.87381 
L 356.695564 118.315057 
L 357.11492 117.949908 
L 357.232346 113.968557 
L 357.414082 115.143402 
L 357.768024 114.643805 
L 358.067321 115.271694 
L 358.200121 116.277213 
L 358.619507 114.906539 
L 358.726755 116.610993 
L 358.964857 116.78555 
L 359.203431 114.444171 
L 359.448191 114.447211 
L 359.739861 114.958774 
L 359.918637 114.584649 
L 360.223373 115.835202 
L 360.464925 117.623491 
L 360.754514 111.636137 
L 360.876193 117.119613 
L 361.129106 115.274967 
L 361.415503 116.842612 
L 361.661674 114.754154 
L 361.887082 114.940528 
L 362.185637 115.605693 
L 362.424082 113.496543 
L 362.662654 114.679833 
L 362.950189 116.965001 
L 363.20353 111.074118 
L 363.423447 115.158821 
L 363.622003 114.441751 
L 363.916371 118.116234 
L 364.393153 115.03168 
L 364.630544 114.548541 
L 364.92917 115.447622 
L 365.107627 114.848328 
L 365.345698 115.436643 
L 365.643635 110.588839 
L 365.941582 114.671021 
L 366.120566 114.315714 
L 366.430486 118.011678 
L 366.661699 114.921424 
L 366.95586 114.917975 
L 367.137644 115.061621 
L 367.313284 115.455541 
L 367.613202 114.908124 
L 367.848153 116.608068 
L 368.164973 116.78363 
L 368.328014 114.151431 
L 368.629685 117.696 
L 368.92628 114.902716 
L 369.113805 115.379892 
L 369.34484 115.123953 
L 369.529356 113.98131 
L 369.821758 114.123639 
L 370.240307 110.264427 
L 370.360723 116.105098 
L 370.778089 114.506682 
L 371.015218 115.19544 
L 371.312315 117.885492 
L 371.555098 115.451738 
L 371.789135 115.324876 
L 372.027824 114.675886 
L 372.325578 115.27297 
L 372.861574 117.349332 
L 373.397043 114.428919 
L 373.93445 118.218565 
L 373.993192 108.244897 
L 374.356468 114.375748 
L 374.64956 115.6282 
L 374.71244 115.303724 
L 375.080509 115.226405 
L 375.245909 114.57383 
L 375.486534 116.623614 
L 375.841426 114.627482 
L 376.021182 114.874136 
L 376.325316 116.461792 
L 376.501063 110.459224 
L 376.735908 114.395431 
L 377.275259 114.567182 
L 377.454122 118.68943 
L 377.691085 118.215011 
L 377.97089 114.281291 
L 378.467507 114.90636 
L 378.705786 114.885885 
L 379.003346 118.20288 
L 379.182787 114.820012 
L 379.541591 115.56401 
L 379.77876 112.900169 
L 379.957593 114.003785 
L 380.315476 114.408973 
L 380.43452 116.093766 
L 380.67377 115.917243 
L 380.971538 116.240983 
L 381.209422 114.746361 
L 381.566802 114.66694 
L 381.744983 115.185033 
L 382.170296 114.861629 
L 382.401177 113.505967 
L 382.640935 116.628418 
L 382.938268 114.195399 
L 383.116642 115.458785 
L 383.414778 114.67188 
L 383.653191 114.901909 
L 383.891272 117.461275 
L 384.130172 114.594628 
L 384.36784 114.078982 
L 385.141968 118.149549 
L 385.442062 115.043327 
L 385.737779 114.632245 
L 385.982328 112.424369 
L 386.154941 117.615583 
L 386.572481 114.812303 
L 386.633083 115.099721 
L 386.871953 115.339993 
L 387.288124 114.869992 
L 387.408358 118.771877 
L 387.704159 112.310752 
L 387.883735 115.184162 
L 388.12156 115.077637 
L 388.360572 117.928799 
L 388.83674 114.819022 
L 389.078696 114.375239 
L 389.373409 115.121164 
L 389.673069 114.88228 
L 389.731908 114.677962 
L 389.85151 114.916675 
L 390.209139 114.91624 
L 390.327434 116.48216 
L 390.566718 114.395401 
L 390.866233 110.283771 
L 391.578394 114.778988 
L 391.956832 114.79493 
L 392.061414 115.185569 
L 392.294363 113.139262 
L 392.534085 117.52497 
L 392.832412 115.729654 
L 393.014287 114.569872 
L 393.427847 117.963794 
L 393.65145 112.531502 
L 393.785792 114.419189 
L 394.023607 114.443771 
L 394.261973 114.71211 
L 394.507191 114.622366 
L 394.798172 114.354392 
L 395.156539 115.675419 
L 395.275553 117.537284 
L 395.574048 115.959619 
L 395.817442 115.533649 
L 396.050757 116.522571 
L 396.289007 115.396458 
L 396.468688 115.230415 
L 396.709418 114.543542 
L 397.006497 114.266851 
L 397.24286 114.579095 
L 397.480824 117.16812 
L 397.839129 114.8454 
L 398.01748 115.838762 
L 398.255879 115.199441 
L 398.493969 117.91173 
L 398.732782 114.868526 
L 399.032184 114.674385 
L 399.38968 115.660797 
L 399.629341 115.77072 
L 399.867123 111.427957 
L 399.986143 117.113951 
L 400.464749 114.109079 
L 400.710246 116.367853 
L 401.000306 117.106731 
L 401.240795 114.424965 
L 401.476641 114.076816 
L 401.775515 115.297652 
L 401.955105 114.539324 
L 402.253688 110.623377 
L 402.431344 116.757788 
L 402.669635 114.635494 
L 403.162416 115.510739 
L 403.206332 115.811078 
L 403.397622 111.802697 
L 403.633589 114.74426 
L 403.922551 115.440054 
L 404.402506 114.211338 
L 404.641312 116.039118 
L 404.947887 111.161114 
L 405.175669 115.140734 
L 405.385104 114.335499 
L 405.65268 113.873901 
L 405.894417 110.689543 
L 406.132636 114.519307 
L 406.426561 114.411081 
L 406.667313 115.721313 
L 406.963223 115.164006 
L 407.144113 109.866203 
L 407.380891 110.574739 
L 407.619993 115.432715 
L 407.860801 115.05455 
L 408.217822 116.349896 
L 408.398363 110.005099 
L 408.636507 114.852757 
L 408.917998 114.985469 
L 409.234688 114.25463 
L 409.470635 117.112756 
L 409.589722 111.249786 
L 409.829013 110.809713 
L 410.126347 115.411825 
L 410.42592 115.214225 
L 410.606015 113.908323 
L 410.844374 116.104271 
L 411.143152 114.983251 
L 411.320402 115.349861 
L 411.619643 115.2388 
L 411.857209 113.776149 
L 412.096215 118.29671 
L 412.512689 114.914831 
L 412.58546 115.445623 
L 412.87158 114.770195 
L 413.062343 113.407557 
L 413.456757 117.250498 
L 413.584819 113.746839 
L 413.81476 114.867727 
L 414.11483 115.392706 
L 414.472681 115.250339 
L 414.533583 117.966076 
L 414.830286 114.166848 
L 415.068038 114.261798 
L 415.309724 114.718582 
L 415.559664 114.90026 
L 415.96323 114.171063 
L 416.023198 114.439287 
L 416.321581 114.079808 
L 416.563927 115.003055 
L 416.805148 113.130464 
L 417.002271 116.156066 
L 417.276707 113.131759 
L 417.756951 115.150796 
L 418.054464 115.539573 
L 418.471725 114.833238 
L 418.530943 115.186168 
L 418.770431 113.746355 
L 419.126668 114.663125 
L 419.305279 117.084458 
L 419.487583 116.99325 
L 419.724077 117.550304 
L 419.962564 115.099431 
L 420.281437 114.892453 
L 420.501517 115.221004 
L 420.738015 112.469856 
L 420.975057 115.070938 
L 421.214128 114.713224 
L 421.512226 115.088104 
L 421.693249 114.398998 
L 422.225812 113.678009 
L 422.234324 142.851602 
L 422.468961 114.505673 
L 422.825214 117.741277 
L 423.004989 116.606835 
L 423.252127 116.515618 
L 423.484338 114.541305 
L 423.840978 114.469832 
L 423.960579 116.840221 
L 424.145321 114.564187 
L 424.43705 113.938923 
L 424.675708 114.9108 
L 424.915208 114.690592 
L 425.155055 114.000056 
L 425.574673 110.272745 
L 425.629286 118.013067 
L 425.988437 115.060034 
L 426.172027 115.316225 
L 426.40654 114.879209 
L 426.64547 114.819514 
L 427.065099 114.984618 
L 427.190077 116.450505 
L 427.445399 114.597156 
L 427.659166 117.721892 
L 427.90644 117.347028 
L 427.958088 113.873246 
L 428.19698 112.42022 
L 428.436409 114.909633 
L 428.619145 113.925006 
L 428.8559 115.089894 
L 429.151322 114.958026 
L 429.628082 109.871542 
L 430.10485 118.623476 
L 430.344322 118.933166 
L 430.903823 114.808353 
L 431.121983 114.641484 
L 431.357652 85.289451 
L 431.597523 98.141383 
L 431.843497 102.550584 
L 432.328044 106.536955 
L 432.561897 104.858685 
L 432.821237 110.38047 
L 433.156978 112.200723 
L 433.463552 115.537017 
L 433.594031 115.55117 
L 433.87843 114.678786 
L 434.121676 118.659165 
L 434.414608 117.243205 
L 434.534949 118.77962 
L 434.776173 116.791455 
L 435.198864 121.336772 
L 435.318081 118.374917 
L 435.54992 118.101936 
L 435.793016 118.036241 
L 436.163582 116.528484 
L 436.324342 118.943304 
L 436.627299 116.77465 
L 436.862153 117.862419 
L 437.100266 120.048564 
L 437.400723 115.602845 
L 437.640155 121.765645 
L 437.947846 116.490679 
L 438.091135 116.780193 
L 438.242412 114.947914 
L 438.507695 118.774727 
L 438.778576 118.571248 
L 439.093849 120.174381 
L 439.259491 124.342371 
L 439.609454 119.816866 
L 439.813723 121.966675 
L 440.027646 117.791718 
L 440.505242 121.526566 
L 440.743769 119.869229 
L 440.985603 122.23757 
L 441.360449 123.107469 
L 441.460589 121.402685 
L 441.817555 122.121632 
L 441.996582 120.713833 
L 442.261655 122.931694 
L 442.476381 126.277653 
L 442.882088 119.571033 
L 443.119643 121.635838 
L 443.306995 121.105399 
L 443.537398 127.977885 
L 443.835364 121.781113 
L 444.01571 121.028481 
L 444.193965 122.260983 
L 444.670741 126.666875 
L 444.792607 123.450444 
L 445.029606 120.740919 
L 445.566243 125.46581 
L 445.69185 120.473094 
L 446.223006 126.126301 
L 446.46149 123.999833 
L 446.93948 128.182148 
L 447.182432 124.907816 
L 447.656135 128.245977 
L 447.904892 124.413694 
L 448.138367 126.341252 
L 448.437338 125.888968 
L 448.625267 126.149057 
L 448.91479 125.170145 
L 449.152725 125.140861 
L 449.392189 129.668133 
L 449.808343 126.526054 
L 449.89612 126.985868 
L 450.16705 126.580134 
L 450.46407 125.327036 
L 450.761942 128.167326 
L 450.94209 125.869453 
L 451.180519 130.022398 
L 451.425902 128.448769 
L 451.658653 128.54332 
L 451.839194 127.468458 
L 452.077357 127.914349 
L 452.326715 131.719934 
L 452.613173 128.177635 
L 452.864845 128.147393 
L 453.098099 131.357915 
L 453.469682 129.494998 
L 453.632802 132.23841 
L 453.809319 128.250669 
L 454.134366 127.57912 
L 454.345201 131.666541 
L 454.765606 131.013392 
L 455.071869 128.609473 
L 455.300727 133.872294 
L 455.539853 130.588334 
L 455.961335 129.899316 
L 456.150748 128.940196 
L 456.387019 130.49727 
L 456.566905 134.726011 
L 456.984034 133.745278 
L 457.044693 133.214658 
L 457.462645 134.400572 
L 457.700957 131.771594 
L 457.762486 132.610772 
L 458.176246 135.424299 
L 458.295734 129.415869 
L 458.535771 133.671799 
L 458.772737 133.426638 
L 459.18988 134.37138 
L 459.309275 133.498745 
L 459.548312 133.799888 
L 459.792529 134.747142 
L 459.846799 133.034019 
L 460.264394 138.109441 
L 460.505547 133.749871 
L 460.801349 132.072349 
L 460.981197 134.761168 
L 461.300883 134.674981 
L 461.461133 132.898563 
L 461.759676 138.975039 
L 461.997667 135.236866 
L 462.240011 136.871493 
L 462.535859 134.251699 
L 463.848593 138.796111 
L 464.210024 135.077596 
L 464.468285 137.040645 
L 464.68398 136.86864 
L 464.923343 135.290628 
L 465.170704 138.695681 
L 465.469677 139.925166 
L 466.009353 135.17968 
L 466.243917 138.58212 
L 466.483619 137.917553 
L 466.663185 137.015343 
L 466.961408 140.827699 
L 467.199234 138.923287 
L 467.597038 139.50555 
L 467.744427 138.839179 
L 467.921045 144.263552 
L 468.454257 137.969695 
L 468.761166 141.450038 
L 468.931187 137.755019 
L 469.179483 140.577026 
L 469.542461 139.493337 
L 469.64942 138.223146 
L 469.893371 138.060374 
L 470.128335 142.136574 
L 470.435389 142.717634 
L 470.906718 140.576962 
L 471.143739 142.897128 
L 471.389817 143.483734 
L 471.682015 140.477535 
L 471.865224 142.927942 
L 472.16172 141.385585 
L 472.456786 142.288228 
L 472.636186 141.387581 
L 473.054076 144.327016 
L 473.172886 144.209755 
L 473.400235 144.28896 
L 473.634969 143.470624 
L 473.868197 142.104047 
L 474.170263 141.944111 
L 474.354868 145.582574 
L 474.645427 145.954741 
L 474.949827 145.023509 
L 475.125654 148.362756 
L 475.315542 144.80349 
L 475.601585 144.2359 
L 475.840459 147.785874 
L 476.079329 148.238609 
L 476.317061 147.82321 
L 476.555932 144.792971 
L 476.795462 148.394063 
L 477.212458 147.788827 
L 477.361592 143.49416 
L 477.749946 147.570911 
L 477.868828 146.48754 
L 478.107403 148.42212 
L 478.345862 147.256828 
L 478.643526 148.580445 
L 478.775738 146.976522 
L 479.035221 146.88042 
L 479.305237 149.895405 
L 479.600228 148.991352 
L 479.798874 149.204234 
L 480.01865 150.149518 
L 480.259337 143.788991 
L 480.639147 147.314493 
L 480.797255 146.004596 
L 481.032858 151.589719 
L 481.30086 149.90079 
L 481.817167 147.745476 
L 482.112202 150.735443 
L 482.54011 147.458574 
L 482.796157 150.975846 
L 483.087039 149.36848 
L 483.208624 153.224289 
L 483.799178 147.357146 
L 484.097273 150.971807 
L 484.216787 149.457785 
L 484.514676 151.344776 
L 484.761105 155.418852 
L 485.008903 151.539079 
L 485.230884 149.844714 
L 485.470722 149.572392 
L 485.76882 150.514492 
L 486.007356 153.103579 
L 486.483328 152.185792 
L 486.721699 154.336657 
L 486.961225 152.219791 
L 487.206514 152.209009 
L 487.440359 152.960023 
L 487.677248 152.628631 
L 488.214516 156.757399 
L 488.455338 153.547632 
L 488.751713 156.395423 
L 489.288177 151.80622 
L 489.540319 153.554615 
L 489.706772 153.372448 
L 490.005091 154.021154 
L 490.242896 154.143104 
L 490.481391 154.482965 
L 490.683853 153.824671 
L 490.899752 156.042865 
L 491.201618 156.95297 
L 491.494573 153.715457 
L 491.913287 157.803343 
L 492.154206 153.745195 
L 492.390345 156.481319 
L 492.705805 155.210537 
L 492.884784 155.585108 
L 493.122928 155.26295 
L 493.601015 154.41077 
L 493.66099 156.794763 
L 493.95881 153.694858 
L 494.141209 156.413035 
L 494.380638 157.679666 
L 494.614303 157.836942 
L 494.912142 157.680201 
L 495.092642 159.439081 
L 495.391562 159.210254 
L 495.866611 158.369006 
L 496.169394 160.766191 
L 496.407336 157.614401 
L 496.644163 161.826093 
L 497.122047 159.070593 
L 497.32743 160.526289 
L 497.602808 160.381266 
L 497.947291 160.056144 
L 498.144884 159.264647 
L 498.384535 161.830096 
L 498.621652 162.090497 
L 498.860584 161.384669 
L 499.099563 162.415846 
L 499.337413 159.917096 
L 500.113488 164.99798 
L 500.293182 159.421698 
L 500.609204 162.068662 
L 500.650281 160.285326 
L 500.829084 158.944308 
L 501.130331 164.033608 
L 501.604394 160.634007 
L 502.085048 164.28153 
L 502.142852 166.26185 
L 502.321119 161.622343 
L 502.758604 162.965012 
L 503.051282 163.503654 
L 503.27591 164.427727 
L 503.515493 166.350588 
L 503.872555 165.259812 
L 504.051407 162.603208 
L 504.229888 162.963685 
L 504.650095 163.220131 
L 504.707569 166.95343 
L 505.069486 166.452509 
L 505.311707 166.839046 
L 505.547959 165.947723 
L 505.78225 165.509445 
L 506.020268 165.842763 
L 506.266043 165.153043 
L 506.569872 167.43888 
L 506.746757 165.187837 
L 506.993307 165.997185 
L 507.231373 163.910503 
L 507.475334 166.867265 
L 507.708032 167.421352 
L 508.005894 168.463071 
L 508.190358 166.88609 
L 508.485193 170.176316 
L 508.787092 161.943634 
L 509.01986 169.723836 
L 509.275368 172.088773 
L 509.498512 166.188988 
L 509.921977 167.174553 
L 509.97473 168.23712 
L 510.21317 168.1537 
L 510.631246 167.694294 
L 510.932276 169.491828 
L 511.427141 169.730607 
L 511.731757 169.035207 
L 511.94593 170.683297 
L 512.202575 168.712434 
L 512.662927 172.815049 
L 512.902669 165.953109 
L 513.214663 172.69328 
L 513.619081 167.61577 
L 513.68035 170.592617 
L 513.915563 168.46594 
L 514.39837 171.344369 
L 514.571539 171.670758 
L 514.703169 168.499448 
L 514.890518 172.932511 
L 515.247869 166.780958 
L 515.468485 170.432241 
L 515.918439 173.209946 
L 516.15758 172.840752 
L 516.400242 174.557934 
L 516.762513 169.215642 
L 516.922212 172.735011 
L 517.159528 172.719066 
L 517.51651 172.022352 
L 517.702683 175.375543 
L 517.878201 171.971841 
L 518.173168 173.56407 
L 518.480489 172.90449 
L 518.653123 173.072853 
L 518.951708 171.755683 
L 519.130101 173.99137 
L 519.388449 175.13937 
L 519.86004 176.097545 
L 520.141772 182.105313 
L 520.439599 192.030238 
L 520.621899 182.791135 
L 520.859464 185.10977 
L 521.115203 184.877776 
L 521.39507 186.401314 
L 521.637701 183.194282 
L 521.87368 181.953502 
L 522.117242 181.827487 
L 522.65075 175.343545 
L 522.827932 174.24676 
L 523.266623 174.317064 
L 523.497826 175.361274 
L 523.843711 174.507466 
L 524.131034 175.43934 
L 524.380779 175.422984 
L 524.857058 176.127915 
L 524.9168 175.92047 
L 525.275559 175.832792 
L 525.403427 176.136782 
L 525.814188 175.814534 
L 526.596989 175.705174 
L 527.314102 175.720781 
L 529.166701 175.669118 
L 529.284939 174.143397 
L 529.533417 175.663268 
L 529.890641 175.933848 
L 530.905653 175.602476 
L 531.262127 175.920686 
L 531.439707 175.63571 
L 531.621121 175.617391 
L 531.88268 175.8345 
L 532.001118 175.727197 
L 532.939696 175.64403 
L 533.23581 174.727422 
L 533.470149 176.609963 
L 533.72434 175.712382 
L 533.946454 175.701051 
L 534.245028 176.205791 
L 534.451003 175.945031 
L 534.720395 175.910662 
L 535.028561 175.600192 
L 535.260177 175.795982 
L 536.733933 175.725368 
L 537.923297 175.768788 
L 540.393637 175.736999 
L 540.636535 175.857038 
L 540.924843 175.713367 
L 542.613306 175.738592 
L 544.419445 175.716267 
L 547.800201 175.716401 
L 554.326986 175.719892 
L 573.047077 175.714038 
L 574.30091 175.731398 
L 575.982989 175.724913 
L 584.891392 175.722427 
L 586.619088 175.705387 
L 588.64969 175.717091 
L 596.502813 175.71874 
L 596.502813 175.71874 
" clip-path="url(#p0317c564f6)" style="fill: none; stroke: #0000ff; stroke-opacity: 0.5; stroke-width: 1.5; stroke-linecap: square"/>
   </g>
   <g id="line2d_30">
    <path d="M 38.502813 100.036036 
L 38.622916 100.654209 
L 38.865804 98.988509 
L 38.937 100.917904 
L 39.111017 101.088361 
L 39.417061 99.151116 
L 39.707596 99.451035 
L 39.885883 98.532461 
L 40.541846 100.200234 
L 40.601545 98.73577 
L 41.018884 99.049814 
L 41.376814 98.888312 
L 41.559198 99.146722 
L 42.033407 98.658321 
L 42.091503 99.393986 
L 42.329583 99.964889 
L 42.628872 98.957677 
L 42.928055 98.490315 
L 43.164095 100.407671 
L 43.477718 98.600168 
L 43.581899 100.088503 
L 43.819883 98.085726 
L 44.300935 100.110677 
L 44.599353 99.802092 
L 44.834047 98.412262 
L 45.07223 99.009662 
L 45.371049 100.515589 
L 45.669985 99.992662 
L 45.857012 99.388471 
L 46.174796 97.798606 
L 46.328887 100.088045 
L 46.567049 99.093523 
L 46.805772 99.507088 
L 47.224756 97.360729 
L 47.405507 98.367264 
L 47.521373 97.570186 
L 47.766181 97.462876 
L 48.003493 97.753971 
L 48.244165 96.801629 
L 48.536913 97.310904 
L 49.14069 96.857039 
L 50.441813 96.801222 
L 51.746796 97.690616 
L 53.050949 99.142438 
L 54.356612 99.097576 
L 55.661121 98.643434 
L 57.085405 97.876436 
L 58.50861 98.583007 
L 59.813793 97.097584 
L 59.954398 97.796898 
L 60.191841 96.720073 
L 60.669155 96.977734 
L 60.966191 97.85965 
L 61.265892 100.859101 
L 61.681905 97.856371 
L 61.866132 100.078562 
L 62.104406 99.059899 
L 62.404 98.926662 
L 62.638974 101.905314 
L 62.936269 100.228539 
L 63.11617 97.375592 
L 63.356366 97.811882 
L 63.652931 98.110387 
L 63.846691 98.029269 
L 64.130974 99.456094 
L 64.426649 98.863753 
L 64.72558 97.187603 
L 64.844761 98.650039 
L 65.083776 96.480867 
L 65.323835 97.218997 
L 65.636208 100.006328 
L 66.108513 97.33013 
L 66.396826 99.160163 
L 66.578194 98.001789 
L 66.876601 97.934017 
L 66.934528 99.115749 
L 67.112748 100.232439 
L 67.414376 97.983098 
L 67.588886 98.134764 
L 67.829178 99.185459 
L 68.125305 99.371152 
L 68.783671 101.700128 
L 69.019997 103.016179 
L 69.616891 98.063349 
L 70.095651 101.786029 
L 70.338534 99.587298 
L 70.523348 99.176896 
L 70.817845 100.612924 
L 71.292681 98.466385 
L 71.413207 95.48594 
L 72.070236 99.731608 
L 72.364771 100.305915 
L 72.604817 97.517043 
L 72.782636 97.333282 
L 73.259107 98.187177 
L 73.442011 98.847923 
L 73.737273 99.277254 
L 73.796233 100.51222 
L 74.034856 100.274528 
L 74.273425 99.8681 
L 74.512377 97.801586 
L 74.809776 97.569312 
L 75.10756 100.186751 
L 75.350039 100.383349 
L 75.534701 99.363047 
L 75.716732 99.015214 
L 75.763801 98.654884 
L 76.299771 98.369738 
L 76.479259 98.076098 
L 76.779836 98.453806 
L 77.014868 101.251426 
L 77.211656 100.751305 
L 77.492991 98.174618 
L 78.028409 100.871037 
L 78.208334 99.290112 
L 78.445703 99.515775 
L 78.74416 100.325028 
L 78.984279 100.647 
L 79.221395 100.194259 
L 79.46119 98.042261 
L 79.9365 100.898535 
L 80.296129 99.394449 
L 80.48719 98.042056 
L 80.712316 99.939496 
L 80.950854 100.926083 
L 81.192765 98.425824 
L 81.665653 97.198973 
L 81.913099 100.815013 
L 82.151222 98.543798 
L 82.441028 99.898366 
L 82.620686 101.455769 
L 83.215747 96.387787 
L 83.394399 96.723113 
L 83.632494 100.379848 
L 83.872614 101.341874 
L 84.109856 98.609978 
L 84.411018 99.042574 
L 84.706152 101.113756 
L 85.361288 97.48058 
L 85.600003 98.290927 
L 86.207889 98.77014 
L 86.732011 100.159769 
L 87.090643 96.392367 
L 87.329041 97.795915 
L 87.865826 102.986236 
L 88.103508 102.620585 
L 88.40325 100.295344 
L 88.586765 97.919323 
L 89.00022 97.888438 
L 89.118231 97.685123 
L 89.536432 98.66614 
L 89.908761 100.597325 
L 90.012432 100.28111 
L 90.081212 98.812259 
L 90.668047 96.64653 
L 90.905672 97.013006 
L 91.263784 97.829154 
L 91.681363 98.701314 
L 92.038568 97.909524 
L 92.336147 98.47191 
L 92.754169 101.141186 
L 92.991265 101.549382 
L 93.289814 100.869409 
L 93.489754 98.765909 
L 93.826284 97.387869 
L 94.305329 99.797759 
L 94.842115 95.282038 
L 95.019457 95.328147 
L 95.498953 97.412213 
L 95.89183 97.737275 
L 96.064357 98.66331 
L 96.573099 100.126382 
L 96.69475 97.257758 
L 97.286052 100.970576 
L 97.48986 99.50012 
L 97.779913 96.238036 
L 98.063483 95.010189 
L 98.47895 99.821305 
L 98.717529 98.924724 
L 99.025598 97.332497 
L 99.325453 99.170915 
L 99.58166 99.319632 
L 99.795665 97.335416 
L 100.391 95.940326 
L 100.526244 99.328266 
L 101.868401 100.274798 
L 103.165642 99.374139 
L 104.594361 100.592127 
L 104.673559 104.562681 
L 104.853311 106.232669 
L 105.454112 102.137673 
L 105.687883 98.802169 
L 106.066219 96.142688 
L 106.305417 96.187185 
L 106.688645 99.058817 
L 106.855494 99.312154 
L 107.089968 98.774518 
L 107.387998 97.043644 
L 107.688168 96.161225 
L 107.864974 96.327457 
L 108.164534 99.334753 
L 108.347806 103.06545 
L 108.640473 105.418544 
L 108.902733 104.510893 
L 109.117895 100.577511 
L 109.596272 95.384804 
L 110.192261 101.451799 
L 110.375788 103.570143 
L 110.554204 102.833939 
L 111.052094 98.243867 
L 111.29097 98.513085 
L 111.577019 101.355515 
L 111.812008 102.329809 
L 112.049728 100.685212 
L 112.530576 94.908693 
L 112.792567 94.818853 
L 113.325136 96.492821 
L 113.421862 98.002132 
L 113.541144 98.115793 
L 113.788285 97.155723 
L 114.093357 96.999826 
L 114.540544 103.728669 
L 114.883064 105.395905 
L 115.313819 100.764308 
L 115.937099 98.224156 
L 116.216076 101.847328 
L 116.30385 102.374248 
L 116.475791 100.642489 
L 116.782905 99.589493 
L 117.130896 99.651353 
L 117.249404 98.976471 
L 117.487743 98.880301 
L 118.024139 99.765567 
L 118.206256 99.337037 
L 118.450471 97.754541 
L 118.756347 96.521793 
L 118.928024 97.135141 
L 119.289499 97.301317 
L 119.821194 94.649728 
L 120.298612 99.093278 
L 120.606507 99.750574 
L 120.715903 96.841566 
L 120.9231 96.583292 
L 121.194101 99.565679 
L 121.433386 100.433827 
L 121.912267 96.90379 
L 122.149815 97.125581 
L 122.624796 96.894231 
L 122.690525 95.654184 
L 122.935962 96.588933 
L 123.160922 99.940158 
L 123.589311 101.35815 
L 123.69748 98.879802 
L 123.995428 98.519627 
L 124.35569 101.177917 
L 124.650229 100.956197 
L 124.949134 102.102019 
L 125.13009 103.537209 
L 125.427231 103.476799 
L 125.665306 101.958683 
L 125.857602 99.849554 
L 126.147722 100.900785 
L 126.390896 102.290732 
L 126.86069 101.453093 
L 127.101098 102.198 
L 127.397474 102.725055 
L 127.755155 102.370214 
L 127.874394 100.90392 
L 128.11266 99.491899 
L 128.470607 99.183966 
L 128.590202 99.538768 
L 129.423624 99.043422 
L 129.721296 98.838633 
L 129.844012 98.012191 
L 130.080965 98.22484 
L 130.318908 99.532336 
L 130.556998 100.12315 
L 130.795082 100.026206 
L 131.094146 98.823539 
L 131.390373 98.785918 
L 131.809921 99.613309 
L 132.070999 99.056459 
L 132.288655 98.27203 
L 132.530023 97.945315 
L 132.778446 96.911945 
L 133.080422 96.283238 
L 133.599891 99.738145 
L 134.048442 95.329537 
L 134.27389 96.101952 
L 134.511673 100.082743 
L 134.752536 102.116511 
L 134.988169 99.913301 
L 135.299799 98.489934 
L 135.762344 101.479198 
L 136.299914 98.392989 
L 136.897409 100.950121 
L 137.144696 99.594025 
L 137.496099 96.498517 
L 137.729921 97.696601 
L 138.031643 98.391473 
L 138.462756 96.464097 
L 138.821519 96.554056 
L 139.04073 97.610156 
L 139.34128 97.736884 
L 139.518495 98.352155 
L 139.876343 98.611605 
L 139.996454 99.228912 
L 140.23413 99.23785 
L 140.475957 99.660994 
L 140.727123 100.719048 
L 141.192054 106.289856 
L 141.683584 105.354975 
L 141.74323 101.428383 
L 141.924188 98.05042 
L 142.220316 97.505974 
L 142.460347 98.362643 
L 142.698106 99.685035 
L 142.935384 99.165898 
L 143.657606 93.739175 
L 144.128735 96.127925 
L 144.426045 101.16762 
L 144.665021 100.276196 
L 145.147247 95.852054 
L 145.379375 95.767158 
L 146.042843 100.462304 
L 146.696415 95.456632 
L 147.407001 101.58179 
L 148.299554 97.647178 
L 148.41882 98.247262 
L 148.598417 99.735173 
L 149.076012 99.533771 
L 149.373331 98.924684 
L 149.613249 99.797596 
L 150.029772 101.876327 
L 150.089694 104.451017 
L 150.446581 104.341285 
L 150.565971 101.488513 
L 150.92311 98.196017 
L 151.353883 99.765473 
L 151.703 101.468577 
L 152.113476 97.612384 
L 152.351803 96.945552 
L 152.832111 98.780225 
L 152.888581 100.095862 
L 153.188565 101.720632 
L 153.309231 101.200101 
L 153.54568 98.226326 
L 153.920396 96.060651 
L 154.319251 100.478543 
L 154.617256 100.017383 
L 155.03402 95.878888 
L 155.333455 94.891909 
L 155.572779 95.91983 
L 155.93189 99.08033 
L 156.054561 102.254549 
L 156.288871 102.791312 
L 156.59785 99.867626 
L 156.824695 96.463147 
L 157.062934 95.371372 
L 157.244922 96.363235 
L 157.720275 100.545413 
L 158.075811 101.230023 
L 158.732951 96.485189 
L 159.028959 99.170049 
L 159.50687 104.628765 
L 159.80937 104.731426 
L 160.222772 98.340686 
L 160.639178 95.592947 
L 160.761288 96.481868 
L 161.002186 99.848577 
L 161.236001 100.355379 
L 161.716034 95.269308 
L 161.964836 94.891604 
L 162.194991 95.860826 
L 162.728429 101.496704 
L 162.970124 102.137524 
L 163.449507 96.014265 
L 163.682554 95.765511 
L 164.170702 101.345875 
L 164.397251 100.369108 
L 164.99298 99.408172 
L 165.232577 100.065035 
L 165.64954 104.361741 
L 165.889046 104.490591 
L 166.482576 100.692585 
L 166.661225 101.12124 
L 166.89949 103.075393 
L 167.197831 102.162337 
L 167.436563 99.130672 
L 167.735563 97.774061 
L 168.152508 97.75859 
L 168.391427 98.098267 
L 168.867709 97.238013 
L 169.165479 97.48678 
L 169.529336 98.123007 
L 169.881582 99.090139 
L 170.359222 97.484753 
L 171.25828 99.880356 
L 171.432118 99.141358 
L 171.900581 98.39804 
L 172.146868 98.52347 
L 172.386262 98.364505 
L 172.569875 99.845737 
L 172.835447 100.604466 
L 173.339268 97.477683 
L 173.707388 97.752838 
L 173.81777 100.516251 
L 174.158309 100.003426 
L 174.177757 98.511783 
L 174.314587 96.803704 
L 174.535783 97.422332 
L 174.91395 99.936425 
L 175.073934 99.993929 
L 175.54851 95.368357 
L 175.787124 96.269837 
L 176.085682 98.872594 
L 176.323655 98.108463 
L 176.579702 96.910889 
L 177.049623 100.580693 
L 177.336715 99.23328 
L 177.755713 95.483842 
L 178.11115 96.80176 
L 178.352257 98.642964 
L 178.528778 99.029571 
L 179.02236 99.20305 
L 179.243954 96.324829 
L 179.542117 94.279834 
L 179.959799 94.300633 
L 180.199819 97.403208 
L 180.334683 100.8378 
L 180.554724 101.11871 
L 181.004126 96.19644 
L 181.237254 97.207237 
L 181.475653 99.361562 
L 181.716775 99.766075 
L 181.952198 99.58887 
L 182.311857 100.455385 
L 182.668141 100.786903 
L 182.972183 98.651121 
L 183.210217 98.609882 
L 183.706024 98.147911 
L 184.008236 99.101826 
L 184.243069 100.510676 
L 184.480842 100.147868 
L 184.866663 99.106614 
L 184.96201 98.192806 
L 185.214305 99.476215 
L 185.456212 102.043103 
L 185.79372 104.084653 
L 186.450096 97.862155 
L 186.926212 101.599118 
L 188.237062 98.542567 
L 188.475599 98.094771 
L 188.892101 97.888142 
L 189.608368 98.645537 
L 189.845677 99.509592 
L 190.38336 94.939166 
L 190.679785 96.498793 
L 190.869436 99.431308 
L 191.157601 100.630799 
L 191.946866 91.962458 
L 192.117173 92.851991 
L 192.595026 98.95532 
L 192.83502 99.188775 
L 193.072666 97.349979 
L 193.31546 97.25423 
L 194.087116 102.985312 
L 194.919455 100.292269 
L 195.159734 98.295547 
L 195.454674 97.895623 
L 195.574242 99.825141 
L 195.812728 99.815877 
L 196.050762 96.748336 
L 196.348274 95.857606 
L 196.532194 99.161295 
L 196.824916 100.329116 
L 197.302744 98.01217 
L 197.540668 99.431203 
L 197.783126 99.15786 
L 198.021222 96.253438 
L 198.278285 95.223255 
L 198.614978 98.212318 
L 198.857745 97.489854 
L 199.035959 94.61267 
L 199.627167 98.345785 
L 200.037406 93.867416 
L 200.288499 93.418565 
L 200.523074 96.74996 
L 200.76342 97.933585 
L 201.023906 95.175575 
L 201.252764 95.749951 
L 201.602062 98.584935 
L 201.781853 98.745933 
L 202.258451 95.987616 
L 202.615346 95.79471 
L 202.734673 96.286293 
L 202.977069 96.698644 
L 203.271444 96.836276 
L 203.568616 96.825598 
L 203.986273 96.550212 
L 204.347506 96.685888 
L 204.462725 97.173245 
L 205.059555 98.477136 
L 205.723048 92.115193 
L 206.192034 94.51935 
L 206.452348 94.594388 
L 206.78839 91.904884 
L 207.086054 93.394616 
L 207.443269 99.710017 
L 207.682274 100.743976 
L 207.922916 100.661458 
L 208.578156 101.669753 
L 208.70586 100.724045 
L 208.935203 100.760274 
L 209.172823 101.475108 
L 209.600943 101.430779 
L 209.830821 100.318206 
L 209.950317 97.805798 
L 210.189594 97.266143 
L 210.663532 100.283355 
L 210.903374 100.408201 
L 211.140394 101.36048 
L 211.378598 101.420964 
L 211.874719 98.730015 
L 212.333313 99.424023 
L 212.393738 102.455839 
L 212.631154 106.09917 
L 212.870117 107.253972 
L 213.168289 105.506191 
L 213.644553 98.069408 
L 213.824739 98.059282 
L 214.121064 99.261758 
L 214.359272 100.723734 
L 214.60033 101.509425 
L 214.837813 100.985547 
L 215.37507 96.823635 
L 215.554742 96.224836 
L 215.851328 98.466212 
L 216.089667 102.541138 
L 216.389104 104.507765 
L 216.58001 103.584138 
L 217.102957 96.081721 
L 217.400525 93.921999 
L 217.639634 94.316368 
L 217.877773 95.878277 
L 218.294893 99.875652 
L 218.593264 100.441399 
L 218.776973 101.333401 
L 219.266031 102.338226 
L 219.30768 103.395581 
L 219.665863 104.320638 
L 220.04435 102.023959 
L 220.62314 99.436979 
L 220.8622 98.892968 
L 221.162767 97.468795 
L 221.515496 91.976706 
L 221.99322 90.730934 
L 222.055181 89.803808 
L 222.292144 90.063386 
L 222.530269 91.343202 
L 223.006647 95.365035 
L 223.248476 95.019203 
L 223.554257 185.31997 
L 223.732051 161.901774 
L 224.048213 168.696756 
L 224.26118 201.51873 
L 224.738977 150.101404 
L 224.976617 138.079631 
L 225.513956 86.927588 
L 225.75103 77.572856 
L 225.988789 59.839546 
L 226.226817 57.989646 
L 226.525541 48.453755 
L 226.707352 36.918304 
L 227.004147 49.485958 
L 227.184451 64.572748 
L 227.479239 77.831448 
L 227.717393 78.676583 
L 227.956897 81.954902 
L 228.194151 95.091641 
L 228.491933 90.507762 
L 228.730952 96.41242 
L 229.211707 114.779797 
L 229.507621 112.06264 
L 229.86666 106.824264 
L 229.998628 102.134376 
L 230.173069 102.616503 
L 230.705939 79.228688 
L 230.945101 90.844567 
L 231.630147 79.171224 
L 231.663719 68.238476 
L 232.136825 88.068641 
L 232.316057 100.594198 
L 232.434509 87.409069 
L 233.208451 111.277973 
L 233.626662 96.704716 
L 233.864567 105.698428 
L 234.163673 84.93778 
L 234.459871 102.206585 
L 234.638675 91.203168 
L 234.877477 86.139913 
L 235.72695 81.098319 
L 235.906757 90.601177 
L 236.084479 85.526882 
L 236.384217 88.432442 
L 236.621287 104.782214 
L 236.919839 107.363602 
L 237.157824 103.263744 
L 237.395703 107.267543 
L 237.695023 107.827876 
L 237.874902 90.887769 
L 238.290534 100.523236 
L 238.35076 95.415465 
L 238.589264 85.797494 
L 238.828455 82.690025 
L 239.065068 92.09033 
L 239.305311 87.36503 
L 239.549082 87.495392 
L 239.840779 91.322719 
L 240.023237 79.297208 
L 240.317181 91.093819 
L 240.614551 94.352308 
L 240.793797 99.512936 
L 241.151839 89.444525 
L 241.389884 94.953574 
L 241.806632 89.696496 
L 242.044896 82.112643 
L 242.344062 82.574715 
L 242.641746 79.227101 
L 242.939843 79.731124 
L 243.118815 75.906707 
L 243.41606 72.847652 
L 243.539421 80.39467 
L 243.836562 82.916823 
L 244.071675 87.175024 
L 244.253567 94.639147 
L 244.531837 95.824507 
L 244.760099 91.097806 
L 245.503869 98.942553 
L 245.741822 93.534273 
L 246.202726 88.692543 
L 246.460816 73.638013 
L 246.754794 89.526832 
L 247.232263 76.835218 
L 247.469526 90.554405 
L 247.708076 85.448598 
L 248.125328 80.439516 
L 248.363697 80.03719 
L 248.543255 78.281904 
L 248.848689 102.991069 
L 249.020847 93.102267 
L 249.218981 94.000625 
L 249.530817 87.782682 
L 249.796994 86.389627 
L 249.91722 78.17712 
L 250.176782 76.331368 
L 250.454559 79.148322 
L 250.69308 77.516667 
L 251.466717 93.035878 
L 251.705896 91.997849 
L 252.004037 86.438894 
L 252.243865 87.802843 
L 252.425758 97.343363 
L 252.66071 92.718288 
L 252.958474 80.717388 
L 253.137428 83.347481 
L 253.437262 89.92155 
L 253.732822 82.803717 
L 253.912799 83.965959 
L 254.390353 71.173069 
L 254.629948 75.044451 
L 254.866171 89.19451 
L 255.283195 64.237403 
L 255.64118 84.14729 
L 255.702331 79.949047 
L 255.879236 81.893033 
L 256.118256 72.09608 
L 256.357 68.254292 
L 256.596713 78.376732 
L 257.013573 80.32552 
L 257.134596 70.925112 
L 257.430682 84.560425 
L 257.61066 85.550246 
L 257.848051 84.278781 
L 258.20509 80.463041 
L 258.445132 90.653765 
L 258.577231 90.567536 
L 258.859825 74.009222 
L 259.158214 80.280188 
L 259.487917 80.175604 
L 259.730147 82.198371 
L 259.876027 92.246944 
L 260.173233 76.455085 
L 260.294447 77.915324 
L 260.591149 84.243039 
L 260.949329 100.495759 
L 261.322962 83.771704 
L 261.490067 86.694245 
L 261.602805 84.586488 
L 261.975746 85.301587 
L 262.086563 88.309321 
L 262.328785 80.194151 
L 262.55622 85.853187 
L 262.794199 85.794834 
L 263.151773 79.463059 
L 263.330837 90.851798 
L 263.7477 94.120222 
L 263.866901 88.999235 
L 264.105397 85.889704 
L 264.285849 79.33536 
L 264.643203 93.220652 
L 264.881961 92.88463 
L 265.058864 94.7775 
L 265.299527 86.417653 
L 265.714773 83.88694 
L 265.955612 75.607202 
L 266.191948 91.675926 
L 266.252174 89.653949 
L 266.48981 89.22874 
L 266.788459 94.165035 
L 267.09442 91.743975 
L 267.324829 87.871245 
L 267.563622 94.787785 
L 267.759853 84.73788 
L 268.099501 81.558126 
L 268.338011 84.037006 
L 268.532791 87.958403 
L 269.017167 85.364082 
L 269.530633 72.863724 
L 270.125731 78.392578 
L 270.245132 86.861293 
L 270.723 92.229986 
L 270.960397 91.367949 
L 271.318588 84.506675 
L 271.561653 97.598273 
L 271.735812 86.066501 
L 271.975033 95.350815 
L 272.454512 85.854704 
L 272.689423 98.035748 
L 272.927961 79.807517 
L 273.464189 85.633711 
L 273.643316 89.829063 
L 274.219372 93.812528 
L 274.658263 90.855466 
L 275.313574 100.908167 
L 275.437851 94.436318 
L 275.791628 94.933721 
L 275.91339 100.986545 
L 276.20821 99.133125 
L 276.393789 88.823891 
L 276.812326 93.802065 
L 277.049078 82.444908 
L 277.162083 88.55437 
L 277.590469 96.635551 
L 277.779075 87.753422 
L 277.939041 94.688945 
L 278.12053 96.252625 
L 278.475781 74.474412 
L 278.624491 84.54947 
L 278.955747 76.995251 
L 279.193852 77.36502 
L 279.431173 88.18464 
L 279.612332 73.120079 
L 279.907556 85.748676 
L 280.086959 87.218176 
L 280.384925 101.016228 
L 280.623809 95.713344 
L 280.980465 101.97445 
L 281.1601 100.775849 
L 281.457142 97.32473 
L 281.594071 90.249613 
L 281.873928 101.805955 
L 282.056615 89.184287 
L 282.113657 100.412873 
L 282.351481 94.911352 
L 282.533731 95.016914 
L 282.828435 93.92232 
L 283.068365 93.651639 
L 283.306338 89.13186 
L 283.66432 101.257333 
L 284.088847 79.984919 
L 284.319934 87.635803 
L 284.563335 91.557511 
L 284.856401 93.391413 
L 285.034625 82.283038 
L 285.276257 99.070706 
L 285.690436 92.959731 
L 286.048783 101.658727 
L 286.292195 101.566459 
L 286.526687 89.016577 
L 286.769413 91.25581 
L 287.007247 82.381325 
L 287.262421 99.353154 
L 287.484106 86.20741 
L 288.024509 103.93256 
L 288.259375 89.977425 
L 288.497522 105.464921 
L 288.736219 89.721049 
L 289.035046 88.68488 
L 289.24077 92.859283 
L 289.455069 109.234777 
L 289.811148 105.022668 
L 290.227704 109.965724 
L 290.347633 97.185205 
L 290.465879 100.773252 
L 290.883363 89.816029 
L 290.948755 106.698845 
L 291.225488 101.146991 
L 291.495528 87.802946 
L 291.679836 99.131654 
L 292.13465 81.603936 
L 292.194976 105.821071 
L 292.432576 99.707183 
L 292.730948 95.031311 
L 292.969282 94.097032 
L 293.504983 106.077822 
L 293.689059 101.530037 
L 293.924229 89.918931 
L 294.221147 83.818245 
L 294.466574 95.195921 
L 294.698997 84.721049 
L 294.878318 100.107215 
L 295.173661 95.717246 
L 295.4127 105.118713 
L 295.717231 105.077843 
L 295.948103 90.515507 
L 296.19442 92.886808 
L 296.426372 97.01879 
L 296.607631 97.070286 
L 296.961851 93.992939 
L 297.152314 88.309886 
L 297.438974 96.553217 
L 297.620443 86.514932 
L 297.929888 100.539019 
L 298.095365 100.240317 
L 298.335465 106.812801 
L 298.632709 97.654831 
L 298.870236 104.971933 
L 299.108436 100.41991 
L 299.60655 105.003863 
L 299.827215 110.31168 
L 300.182774 96.953673 
L 300.361705 106.0005 
L 300.600166 93.576256 
L 300.854175 95.155863 
L 301.079765 89.745471 
L 301.494049 110.924904 
L 301.613328 103.651789 
L 301.911255 121.721505 
L 302.09056 107.078517 
L 302.447614 112.546813 
L 302.626399 111.774643 
L 302.80676 120.672768 
L 303.043886 106.272662 
L 303.341324 108.970597 
L 303.54503 107.088848 
L 303.826118 111.181534 
L 304.41641 98.167999 
L 304.595673 98.56559 
L 304.95287 98.7802 
L 305.252232 91.626822 
L 305.31073 98.474717 
L 305.548602 103.932875 
L 305.846457 100.126936 
L 306.02906 102.761141 
L 306.385283 98.860018 
L 306.562027 73.209725 
L 306.801509 99.783726 
L 306.996024 105.527308 
L 307.281744 106.190309 
L 307.656728 109.535529 
L 307.900046 110.310098 
L 308.067971 120.08968 
L 308.299126 103.842856 
L 308.537897 125.478564 
L 308.839248 118.89497 
L 309.086734 119.000103 
L 309.313549 117.6837 
L 309.455479 115.636951 
L 309.930311 106.195242 
L 310.001814 99.446321 
L 310.28921 107.53482 
L 310.527271 90.584497 
L 310.708003 109.700696 
L 311.063774 105.577422 
L 311.242711 109.707534 
L 311.611583 115.55051 
L 311.781527 96.087278 
L 312.017687 104.870741 
L 312.375319 127.881927 
L 312.501747 123.103563 
L 312.732977 125.799237 
L 313.090224 125.554385 
L 313.212638 6.050769 
L 313.805492 53.2867 
L 314.235778 181.586067 
L 314.58015 202.593076 
L 314.701814 230.059742 
L 315.237717 265.411051 
L 315.594079 272.589231 
L 316.016983 252.330377 
L 316.452034 228.105707 
L 316.695304 178.052615 
L 316.995565 162.357978 
L 317.110027 123.158515 
L 317.763281 79.051055 
L 318.180102 74.824862 
L 318.359189 73.425351 
L 318.959086 103.043239 
L 319.49789 113.756129 
L 319.614865 135.876813 
L 319.910478 137.609116 
L 320.14826 154.771239 
L 320.328134 156.024814 
L 320.624731 151.399461 
L 320.864807 135.386312 
L 321.102007 133.391947 
L 321.340325 114.276683 
L 321.584298 105.701068 
L 321.878065 114.735982 
L 322.117615 107.206963 
L 322.357206 103.319147 
L 322.592008 107.807831 
L 323.310491 141.394096 
L 323.548541 143.374525 
L 323.963903 151.184839 
L 324.083748 156.163667 
L 324.50419 151.734732 
L 324.569671 155.935865 
L 324.802157 138.7193 
L 325.812051 98.067566 
L 326.051482 102.828018 
L 326.530758 96.640342 
L 326.852363 108.219505 
L 327.242305 111.416838 
L 327.301953 125.987861 
L 327.778986 142.087544 
L 328.256505 147.565721 
L 328.495475 159.932074 
L 328.794246 143.656662 
L 329.171816 144.7849 
L 329.275333 132.811269 
L 329.508337 121.076954 
L 329.745474 128.381252 
L 330.282264 115.249992 
L 330.580948 116.937806 
L 330.761294 115.226234 
L 331.057073 122.643765 
L 331.312423 121.22618 
L 331.798258 139.118998 
L 332.018819 136.178385 
L 332.248663 136.749433 
L 332.487919 134.832093 
L 332.725398 127.333745 
L 333.024265 125.661357 
L 333.502737 110.689476 
L 333.741417 113.539487 
L 334.226045 106.035048 
L 334.762633 123.165541 
L 335.022935 127.911924 
L 335.231468 136.500761 
L 335.469651 140.779975 
L 335.709664 142.95667 
L 335.971918 150.134572 
L 336.184852 159.88974 
L 336.423478 160.072624 
L 336.663453 156.459901 
L 336.900926 145.346171 
L 337.317585 141.317255 
L 337.736454 125.330533 
L 337.916816 122.722528 
L 338.161358 128.876903 
L 338.54477 115.167695 
L 338.658091 124.988706 
L 338.944233 125.715636 
L 338.991294 127.115289 
L 339.29103 140.791312 
L 339.410048 135.994588 
L 339.945144 141.608259 
L 340.12328 141.83314 
L 340.421547 143.24681 
L 340.719728 129.961329 
L 340.898441 131.058328 
L 341.13678 127.382309 
L 341.375437 119.822896 
L 341.615004 118.342111 
L 341.917182 108.47502 
L 342.091832 108.227228 
L 342.592547 120.926143 
L 342.865715 127.15153 
L 343.224194 126.345818 
L 343.364331 139.538847 
L 343.819625 148.763508 
L 344.2367 148.220711 
L 344.355474 149.676154 
L 344.654162 142.940685 
L 344.835051 134.401116 
L 345.381281 118.715232 
L 345.609531 110.465542 
L 345.793405 115.918566 
L 346.084919 107.709743 
L 346.386542 107.949812 
L 346.623265 116.438305 
L 346.800697 108.400248 
L 347.336523 126.352399 
L 347.812551 137.531799 
L 348.051726 140.147471 
L 348.470912 138.308926 
L 348.531021 131.902079 
L 349.025631 124.46152 
L 349.25029 118.364041 
L 349.603408 120.943271 
L 350.26536 109.490094 
L 350.557034 119.672853 
L 350.855204 111.740917 
L 351.033535 120.90928 
L 351.272515 127.445146 
L 351.510253 145.577954 
L 351.86755 130.220655 
L 352.048182 140.155665 
L 352.34541 134.77224 
L 352.643325 136.616172 
L 353.001631 124.08939 
L 353.358236 128.689243 
L 353.656081 120.671082 
L 353.777296 113.634693 
L 354.192068 116.06464 
L 354.26785 110.834515 
L 354.49016 104.72937 
L 354.967142 120.318367 
L 355.26572 127.431611 
L 355.563366 130.622365 
L 355.691361 124.854892 
L 355.993376 133.056086 
L 356.230389 133.094825 
L 356.695564 123.507975 
L 357.11492 121.110462 
L 357.232346 127.558436 
L 357.414082 119.937227 
L 358.067321 110.745099 
L 358.200121 110.854244 
L 358.619507 118.814642 
L 358.726755 118.78346 
L 358.964857 119.946575 
L 359.203431 127.121293 
L 359.448191 129.90136 
L 359.739861 130.860723 
L 359.918637 132.025738 
L 360.223373 128.97827 
L 360.464925 123.94303 
L 360.754514 135.735643 
L 360.876193 120.937547 
L 361.129106 124.490955 
L 361.415503 120.843626 
L 361.661674 124.199818 
L 362.185637 115.798714 
L 362.424082 122.049715 
L 362.662654 123.740043 
L 362.950189 121.377327 
L 363.20353 134.70772 
L 363.423447 123.950199 
L 363.622003 125.6631 
L 363.916371 119.31746 
L 364.393153 128.809812 
L 364.630544 127.723694 
L 364.92917 122.689751 
L 365.107627 121.706142 
L 365.345698 119.638384 
L 365.643635 131.541078 
L 365.941582 121.405396 
L 366.120566 120.031213 
L 366.430486 109.671386 
L 366.661699 118.603224 
L 366.95586 123.611174 
L 367.137644 129.102446 
L 367.313284 130.676143 
L 367.613202 130.250113 
L 367.848153 123.637386 
L 368.164973 122.8993 
L 368.328014 129.873939 
L 368.629685 121.256114 
L 368.92628 124.617848 
L 369.113805 119.053603 
L 369.34484 116.213065 
L 369.529356 117.936402 
L 369.821758 119.23518 
L 370.240307 129.97228 
L 370.360723 117.910621 
L 370.778089 125.048373 
L 371.015218 124.479058 
L 371.312315 119.776354 
L 371.555098 126.161968 
L 371.789135 125.936179 
L 372.027824 126.013481 
L 372.325578 123.205369 
L 372.861574 120.239873 
L 373.223258 120.874131 
L 373.518933 118.517135 
L 373.93445 113.864724 
L 373.993192 139.858103 
L 374.356468 126.746705 
L 374.71244 122.871577 
L 375.080509 121.505358 
L 375.245909 124.769378 
L 375.486534 124.575298 
L 375.841426 133.391 
L 376.021182 133.813559 
L 376.325316 127.514269 
L 376.501063 137.02187 
L 376.735908 125.21774 
L 377.154139 125.406451 
L 377.275259 126.787033 
L 377.454122 117.137827 
L 377.691085 114.942896 
L 377.97089 122.158975 
L 378.228234 121.510847 
L 378.467507 122.033499 
L 378.705786 124.083825 
L 379.003346 117.984021 
L 379.182787 127.927345 
L 379.541591 127.272699 
L 379.77876 133.127542 
L 379.957593 129.661432 
L 380.315476 127.56712 
L 380.43452 120.875333 
L 380.67377 117.56923 
L 380.971538 115.070671 
L 381.209422 119.731332 
L 381.566802 122.914424 
L 381.744983 123.122068 
L 382.170296 121.248455 
L 382.401177 123.433429 
L 382.640935 119.293273 
L 382.938268 129.092265 
L 383.116642 129.227436 
L 383.414778 130.283335 
L 383.653191 126.775154 
L 383.891272 117.161481 
L 384.36784 123.645038 
L 384.608478 123.889075 
L 385.024513 122.082716 
L 385.141968 117.535435 
L 385.442062 120.910029 
L 385.737779 119.778553 
L 385.982328 126.22741 
L 386.154941 117.345379 
L 386.633083 127.155106 
L 386.871953 124.767223 
L 387.288124 123.04435 
L 387.408358 112.230703 
L 387.704159 128.720337 
L 387.883735 125.158809 
L 388.12156 127.761698 
L 388.360572 120.205672 
L 388.657811 121.705512 
L 388.83674 119.981914 
L 389.078696 119.307172 
L 389.373409 118.846919 
L 389.85151 123.597177 
L 390.209139 124.888709 
L 390.327434 120.517905 
L 390.566718 122.282714 
L 390.866233 130.296679 
L 391.578394 121.908839 
L 391.956832 121.125374 
L 392.061414 118.972459 
L 392.294363 123.612858 
L 392.534085 113.703863 
L 392.775135 116.894734 
L 393.014287 123.109716 
L 393.427847 115.813119 
L 393.65145 128.40606 
L 393.785792 123.589127 
L 394.023607 122.986538 
L 394.261973 121.935421 
L 394.798172 121.808402 
L 395.156539 118.006143 
L 395.275553 113.124789 
L 395.574048 115.417619 
L 395.817442 115.412303 
L 396.050757 113.049926 
L 396.709418 123.759764 
L 397.006497 126.289269 
L 397.24286 126.993448 
L 397.480824 121.892929 
L 397.839129 128.047948 
L 398.01748 128.274551 
L 398.255879 133.142473 
L 398.493969 129.257221 
L 398.732782 136.71891 
L 399.032184 135.913882 
L 399.629341 126.403482 
L 399.867123 132.536389 
L 399.986143 115.123233 
L 400.224723 115.226087 
L 400.464749 117.036143 
L 400.710246 110.038572 
L 401.000306 107.531016 
L 401.240795 114.348405 
L 401.476641 117.114136 
L 401.775515 117.139931 
L 401.955105 121.911862 
L 402.253688 133.376812 
L 402.431344 120.271145 
L 402.669635 124.910633 
L 403.206332 121.452348 
L 403.397622 130.714952 
L 403.633589 124.337575 
L 403.922551 123.498641 
L 404.188901 126.508826 
L 404.402506 127.47717 
L 404.641312 122.213518 
L 404.947887 132.896315 
L 405.175669 123.578656 
L 405.385104 126.068943 
L 405.65268 127.782252 
L 405.894417 135.547462 
L 406.132636 126.653627 
L 406.426561 126.852926 
L 406.667313 122.960312 
L 406.963223 124.314344 
L 407.144113 137.544594 
L 407.380891 137.265332 
L 407.619993 126.574122 
L 407.860801 125.90504 
L 408.217822 120.958935 
L 408.398363 133.481092 
L 408.636507 119.939414 
L 408.917998 117.161335 
L 409.234688 116.852921 
L 409.470635 109.418504 
L 409.589722 124.631803 
L 409.829013 128.116258 
L 410.126347 120.417758 
L 410.42592 123.922802 
L 410.606015 128.660981 
L 410.844374 123.681494 
L 411.143152 125.479337 
L 411.320402 123.154936 
L 411.619643 122.669117 
L 411.857209 124.749262 
L 412.096215 111.225271 
L 412.512689 117.12999 
L 412.58546 115.000913 
L 412.87158 117.793987 
L 413.062343 123.107287 
L 413.456757 116.352679 
L 413.584819 127.362951 
L 413.81476 127.656432 
L 414.11483 128.439725 
L 414.472681 130.523832 
L 414.533583 125.478151 
L 414.830286 133.190457 
L 415.068038 130.276451 
L 415.559664 122.00312 
L 415.96323 122.674619 
L 416.023198 120.922723 
L 416.321581 120.757568 
L 416.563927 119.084098 
L 416.805148 124.348654 
L 417.002271 119.466242 
L 417.276707 129.589505 
L 418.054464 127.086257 
L 418.471725 127.660656 
L 418.530943 125.852283 
L 418.770431 129.696785 
L 419.126668 127.354026 
L 419.305279 120.778456 
L 419.487583 119.649661 
L 419.724077 116.393232 
L 419.962564 120.374617 
L 420.501517 119.208559 
L 420.738015 127.528656 
L 420.975057 123.347875 
L 421.214128 125.656319 
L 421.512226 126.08296 
L 421.693249 128.586617 
L 422.225812 130.249871 
L 422.234324 61.470626 
L 422.468961 126.664353 
L 422.825214 119.343615 
L 423.004989 121.46885 
L 423.252127 120.741241 
L 423.484338 124.308038 
L 423.840978 122.868448 
L 423.960579 116.407428 
L 424.145321 121.588047 
L 424.43705 123.955232 
L 424.675708 123.180376 
L 425.155055 126.599147 
L 425.574673 136.484055 
L 425.629286 120.056907 
L 425.988437 128.825638 
L 426.40654 132.090906 
L 426.64547 132.336913 
L 427.065099 131.014058 
L 427.190077 126.040127 
L 427.445399 130.0167 
L 427.659166 122.623467 
L 427.90644 122.319641 
L 427.958088 129.196447 
L 428.19698 130.494086 
L 428.436409 120.646108 
L 428.619145 118.976605 
L 428.8559 112.789171 
L 429.151322 111.585678 
L 429.628082 125.529227 
L 430.10485 110.161754 
L 430.344322 110.996084 
L 430.903823 122.493918 
L 431.121983 123.636262 
L 431.357652 179.595713 
L 431.843497 142.73118 
L 432.561897 116.566561 
L 432.821237 97.327055 
L 433.156978 88.915797 
L 433.463552 85.031333 
L 433.594031 84.911328 
L 433.87843 87.959896 
L 434.121676 83.848932 
L 434.414608 84.950332 
L 434.534949 83.411892 
L 434.776173 91.205199 
L 435.198864 97.724576 
L 435.318081 116.967799 
L 435.54992 124.120996 
L 435.793016 125.861569 
L 436.163582 132.616049 
L 436.324342 132.051096 
L 436.627299 135.546709 
L 436.862153 136.741729 
L 437.100266 134.369987 
L 437.400723 139.503046 
L 437.640155 119.889427 
L 437.947846 122.885693 
L 438.091135 122.070126 
L 438.242412 125.332686 
L 438.507695 118.243786 
L 438.778576 118.847682 
L 439.093849 113.075117 
L 439.259491 103.508535 
L 440.027646 132.082625 
L 440.326857 134.958405 
L 440.505242 139.283992 
L 440.743769 138.531519 
L 440.985603 135.582743 
L 441.460589 124.196583 
L 441.817555 122.700531 
L 441.996582 120.434371 
L 442.476381 105.132386 
L 442.882088 112.193021 
L 443.119643 111.186655 
L 443.306995 114.589425 
L 443.537398 100.594814 
L 444.01571 127.380089 
L 444.193965 132.941846 
L 444.670741 131.673082 
L 444.792607 139.693133 
L 445.029606 144.224575 
L 445.566243 125.002585 
L 445.69185 134.458388 
L 446.223006 112.874126 
L 446.46149 111.090798 
L 446.703529 103.31911 
L 446.93948 105.046035 
L 447.182432 111.533299 
L 447.4174 112.417141 
L 447.656135 108.624551 
L 447.904892 120.042657 
L 448.138367 118.361813 
L 448.437338 127.657446 
L 448.625267 126.914089 
L 448.91479 127.896568 
L 449.152725 126.756871 
L 449.392189 117.585208 
L 449.808343 121.719284 
L 449.89612 119.072451 
L 450.16705 125.792695 
L 450.46407 128.618335 
L 450.761942 127.956237 
L 450.94209 135.910217 
L 451.180519 132.623552 
L 451.425902 145.35706 
L 451.658653 149.639751 
L 451.839194 155.707739 
L 452.077357 159.380175 
L 452.326715 149.147836 
L 452.613173 150.753829 
L 452.864845 144.18964 
L 453.098099 131.620533 
L 453.469682 133.909264 
L 453.632802 125.00877 
L 453.809319 131.882211 
L 454.134366 132.146546 
L 454.345201 119.672535 
L 454.765606 126.58861 
L 454.847127 126.528813 
L 455.071869 134.054008 
L 455.300727 130.838522 
L 455.539853 131.941395 
L 455.961335 135.89 
L 456.150748 141.04538 
L 456.566905 127.211641 
L 456.984034 134.855932 
L 457.044693 130.640799 
L 457.462645 132.183842 
L 457.700957 130.934124 
L 457.762486 127.431371 
L 458.176246 115.954982 
L 458.295734 124.626708 
L 458.535771 113.855142 
L 458.772737 113.030616 
L 459.548312 97.24879 
L 459.792529 97.010055 
L 459.846799 99.880281 
L 460.026983 97.041117 
L 460.264394 90.516705 
L 460.505547 108.462913 
L 460.801349 111.36697 
L 460.981197 107.703914 
L 461.300883 106.972778 
L 461.461133 110.0342 
L 461.759676 98.267076 
L 461.997667 109.88277 
L 462.240011 108.760171 
L 462.535859 118.175587 
L 462.954361 115.33785 
L 463.252644 126.339866 
L 463.439137 128.268465 
L 463.848593 133.851106 
L 463.995751 143.498689 
L 464.210024 148.070402 
L 464.68398 152.49206 
L 464.923343 156.618368 
L 465.170704 152.997378 
L 465.469677 145.013174 
L 465.710789 149.162042 
L 466.009353 147.006392 
L 466.483619 135.211225 
L 466.663185 134.156666 
L 466.961408 125.970313 
L 467.199234 123.918556 
L 467.597038 117.696111 
L 467.744427 118.223493 
L 467.921045 106.184203 
L 468.454257 113.126489 
L 468.761166 109.202069 
L 468.931187 115.965307 
L 469.179483 117.328281 
L 469.542461 122.392917 
L 469.64942 127.68473 
L 469.893371 131.56501 
L 470.128335 126.73469 
L 470.435389 130.536504 
L 470.683137 138.661504 
L 470.906718 142.316145 
L 471.143739 148.495264 
L 471.389817 147.896113 
L 472.16172 160.305966 
L 472.456786 157.438197 
L 472.636186 158.845397 
L 473.172886 147.618175 
L 473.400235 145.82252 
L 473.868197 131.826444 
L 474.170263 134.030187 
L 474.354868 115.62412 
L 474.645427 110.734881 
L 474.949827 110.988486 
L 475.125654 100.647484 
L 475.315542 100.537343 
L 475.601585 103.47926 
L 476.079329 93.289363 
L 476.317061 95.398676 
L 476.555932 104.933164 
L 476.795462 95.093699 
L 477.212458 98.314823 
L 477.361592 110.48792 
L 477.749946 100.724207 
L 477.868828 108.394465 
L 478.107403 106.339626 
L 478.345862 117.164028 
L 478.643526 114.519123 
L 478.775738 123.673979 
L 479.035221 131.277493 
L 479.305237 128.4284 
L 479.798874 141.969142 
L 480.01865 147.143308 
L 480.259337 161.585267 
L 480.639147 158.505822 
L 480.797255 160.573707 
L 481.032858 149.718343 
L 481.30086 153.718865 
L 481.817167 148.323187 
L 482.112202 140.133459 
L 482.301583 141.216306 
L 482.54011 141.522506 
L 482.796157 127.968592 
L 483.087039 129.410907 
L 483.208624 118.995803 
L 483.500877 123.326664 
L 483.799178 124.473736 
L 484.097273 118.475289 
L 484.216787 120.142263 
L 484.514676 115.92668 
L 484.761105 106.467698 
L 485.008903 113.373198 
L 485.230884 115.418716 
L 485.470722 113.89338 
L 486.247979 100.84535 
L 486.483328 100.645901 
L 486.721699 95.954454 
L 486.961225 97.548483 
L 487.206514 96.320581 
L 487.440359 98.996552 
L 487.677248 106.547299 
L 488.214516 112.16711 
L 488.455338 124.85837 
L 488.751713 124.705247 
L 488.931602 130.328464 
L 489.288177 135.053431 
L 489.706772 137.364658 
L 490.005091 140.209918 
L 490.242896 137.203957 
L 490.683853 140.907208 
L 490.899752 140.456625 
L 491.201618 139.296748 
L 491.494573 143.564434 
L 491.741352 137.495466 
L 491.913287 138.079006 
L 492.154206 140.969765 
L 492.390345 135.835297 
L 492.705805 137.956802 
L 492.884784 132.472875 
L 493.122928 130.729016 
L 493.601015 126.063311 
L 493.66099 114.209844 
L 493.95881 116.816464 
L 494.141209 110.270296 
L 494.912142 95.462481 
L 495.092642 85.827639 
L 495.391562 90.211736 
L 495.688062 88.536429 
L 495.866611 92.183683 
L 496.169394 94.245695 
L 496.407336 102.439679 
L 496.644163 97.966527 
L 497.122047 115.739486 
L 497.32743 119.20858 
L 498.621652 156.775024 
L 498.860584 154.773882 
L 499.337413 167.148084 
L 499.817608 156.286246 
L 500.113488 146.721578 
L 500.293182 148.57002 
L 500.650281 141.536505 
L 500.829084 142.164298 
L 501.130331 126.079459 
L 501.425955 132.546017 
L 501.604394 132.45823 
L 502.142852 129.16594 
L 502.565805 152.577803 
L 502.758604 158.917578 
L 503.051282 164.138196 
L 503.27591 170.416094 
L 503.515493 165.532502 
L 503.872555 166.934762 
L 504.051407 173.834328 
L 504.229888 168.326195 
L 504.650095 174.237551 
L 504.707569 165.964199 
L 505.069486 166.04691 
L 505.311707 160.106839 
L 505.547959 159.505934 
L 506.020268 150.80726 
L 506.266043 151.470133 
L 506.569872 139.96914 
L 506.746757 139.174728 
L 508.005894 106.764165 
L 508.190358 115.730214 
L 508.485193 106.306273 
L 508.787092 123.989096 
L 509.01986 110.095046 
L 509.275368 110.647036 
L 509.498512 129.424917 
L 509.921977 123.047444 
L 509.97473 127.976339 
L 510.21317 123.545753 
L 510.691646 131.337611 
L 510.932276 136.875177 
L 511.266656 137.025552 
L 511.427141 138.543912 
L 511.731757 145.255925 
L 511.94593 145.21918 
L 512.42372 160.359451 
L 512.662927 163.134084 
L 512.902669 180.891294 
L 513.214663 168.921596 
L 513.619081 181.749136 
L 513.68035 175.481653 
L 513.915563 179.006914 
L 514.571539 171.980916 
L 514.703169 176.455925 
L 514.890518 171.712178 
L 515.247869 178.186967 
L 515.468485 174.624547 
L 515.690172 174.510484 
L 515.918439 169.163485 
L 516.15758 166.640103 
L 516.400242 159.325533 
L 516.762513 164.714705 
L 516.922212 153.769632 
L 517.51651 145.636935 
L 517.702683 133.709165 
L 518.173168 129.292416 
L 518.653123 117.297034 
L 518.951708 123.650089 
L 519.130101 122.369285 
L 519.388449 126.474528 
L 519.86004 136.295152 
L 520.141772 140.978145 
L 520.439599 127.744434 
L 520.621899 148.661513 
L 520.859464 149.012472 
L 521.115203 154.43707 
L 521.39507 150.568258 
L 521.87368 159.548021 
L 522.117242 154.027353 
L 522.363738 160.888477 
L 522.65075 162.521191 
L 522.827932 166.465162 
L 523.266623 169.595073 
L 523.497826 170.284176 
L 523.843711 170.962938 
L 524.9168 136.889862 
L 525.275559 135.152385 
L 525.403427 132.641606 
L 525.692727 130.717647 
L 525.814188 128.549284 
L 526.316015 126.786842 
L 526.428741 127.416922 
L 527.008656 144.001523 
L 527.314102 144.153285 
L 527.785005 140.309906 
L 527.911085 134.92591 
L 528.505796 127.896536 
L 528.686391 127.999163 
L 529.166701 131.303996 
L 529.284939 136.943538 
L 529.533417 140.442852 
L 529.890641 148.12073 
L 530.247674 164.707078 
L 530.664454 172.29353 
L 530.905653 179.629909 
L 531.439707 189.190259 
L 531.621121 186.738145 
L 531.88268 180.380427 
L 532.001118 172.004303 
L 532.524468 149.413797 
L 532.939696 128.224121 
L 533.23581 121.030262 
L 533.470149 111.915293 
L 533.72434 111.753783 
L 534.245028 122.02919 
L 535.028561 144.925518 
L 535.504579 153.608776 
L 536.216386 160.367973 
L 536.526316 160.150361 
L 537.241818 148.280104 
L 537.57183 147.114909 
L 537.709664 148.214321 
L 537.923297 146.889549 
L 538.432501 139.849089 
L 538.723835 134.569778 
L 538.905185 128.156617 
L 541.177946 99.478383 
L 541.832702 96.103022 
L 541.907515 94.584888 
L 542.137411 94.75934 
L 542.376781 97.832559 
L 542.912553 112.256252 
L 543.625901 133.413353 
L 544.160754 142.916552 
L 544.699628 155.136463 
L 545.177199 161.075375 
L 545.613251 162.392192 
L 545.716345 165.917681 
L 546.013013 171.599169 
L 546.311255 183.672417 
L 546.562256 185.873083 
L 546.787321 186.052179 
L 547.086927 182.701742 
L 547.562717 168.987108 
L 548.57849 132.11498 
L 549.053617 118.917745 
L 549.551337 111.943268 
L 549.769221 111.19501 
L 550.187418 113.916513 
L 550.496407 119.829019 
L 551.101371 123.052204 
L 551.511124 121.26368 
L 551.737027 121.059772 
L 552.035323 120.961597 
L 552.395465 121.173063 
L 552.516451 120.481287 
L 552.810936 121.058003 
L 553.231918 123.176126 
L 553.531832 125.952663 
L 554.984158 154.413385 
L 555.281591 157.943745 
L 556.47617 167.029801 
L 556.8397 168.14377 
L 556.966916 169.76657 
L 557.459078 171.732392 
L 557.570223 171.070645 
L 558.202691 155.917496 
L 558.695445 142.570897 
L 559.689623 111.752075 
L 559.92538 109.951338 
L 560.468553 112.101501 
L 560.652229 114.65699 
L 560.945158 117.148253 
L 561.186721 122.800204 
L 561.924237 153.875688 
L 562.153707 155.554773 
L 562.450932 154.746398 
L 563.168071 145.794538 
L 563.541892 140.990172 
L 563.663332 134.077373 
L 564.187013 123.545048 
L 564.36587 124.493523 
L 565.099238 141.847717 
L 565.616165 151.87071 
L 566.154132 154.476718 
L 566.41619 152.857974 
L 566.807687 148.338388 
L 566.871061 142.267752 
L 567.889683 112.134549 
L 568.067008 108.288993 
L 568.36386 109.977728 
L 568.666409 114.609497 
L 568.905048 122.585948 
L 569.258048 130.619304 
L 569.317197 134.574735 
L 569.495961 137.830424 
L 569.556614 140.980445 
L 569.830097 143.136487 
L 570.180186 147.359792 
L 570.296782 155.448271 
L 570.840372 166.354907 
L 571.090269 167.04865 
L 571.312124 164.159358 
L 571.854597 151.527899 
L 572.030259 149.200115 
L 572.327643 152.772617 
L 572.518413 156.66577 
L 572.804311 154.794913 
L 573.343047 143.906667 
L 573.705169 142.747295 
L 573.889969 145.68654 
L 574.30091 155.069789 
L 574.655476 154.858644 
L 574.970739 142.681489 
L 575.266685 143.648376 
L 575.509254 148.709355 
L 575.806683 149.553173 
L 576.28069 137.910342 
L 576.639918 134.10466 
L 576.819632 136.603275 
L 577.176708 143.889059 
L 577.534113 153.003685 
L 577.951032 140.388448 
L 578.309387 137.65262 
L 578.728967 150.070855 
L 579.051607 150.290606 
L 579.471695 141.497086 
L 579.707111 141.62918 
L 580.432509 147.439596 
L 580.954797 144.68361 
L 581.193618 146.059336 
L 581.67021 151.661472 
L 582.031218 150.435374 
L 582.167232 147.465141 
L 582.446877 147.182058 
L 583.282015 155.122766 
L 583.460499 150.252927 
L 583.519781 145.558329 
L 583.93793 139.436281 
L 584.119675 131.809381 
L 584.35554 131.665825 
L 584.891392 139.433102 
L 585.399086 130.370221 
L 585.63542 129.959284 
L 585.787329 133.367215 
L 586.150599 149.784761 
L 586.619088 160.080336 
L 586.989148 156.114491 
L 587.158906 150.404339 
L 587.635596 144.933254 
L 588.119341 148.861946 
L 588.351426 149.218467 
L 588.888745 140.088249 
L 589.128115 141.038445 
L 589.546397 145.763519 
L 589.612081 149.227648 
L 589.849898 150.966725 
L 590.201208 150.158072 
L 590.339608 148.260185 
L 590.564453 148.084696 
L 591.098088 145.667206 
L 591.644742 147.373444 
L 591.94111 144.948621 
L 592.179709 140.829658 
L 592.599352 152.072986 
L 592.95496 150.08364 
L 593.252524 147.417242 
L 593.492874 147.820494 
L 593.612706 147.485531 
L 593.789061 146.618652 
L 594.038067 147.616938 
L 594.265573 147.981647 
L 594.510253 150.574357 
L 594.863145 150.528981 
L 595.041953 149.683729 
L 595.520186 145.441943 
L 595.776521 145.949557 
L 595.995268 147.874192 
L 596.26267 147.042242 
L 596.502813 145.851862 
L 596.502813 145.851862 
" clip-path="url(#p0317c564f6)" style="fill: none; stroke: #ff0000; stroke-opacity: 0.5; stroke-width: 1.5; stroke-linecap: square"/>
   </g>
   <g id="patch_3">
    <path d="M 38.502813 277.92 
L 38.502813 0.72 
" style="fill: none; stroke: #000000; stroke-width: 0.8; stroke-linejoin: miter; stroke-linecap: square"/>
   </g>
   <g id="patch_4">
    <path d="M 596.502813 277.92 
L 596.502813 0.72 
" style="fill: none; stroke: #000000; stroke-width: 0.8; stroke-linejoin: miter; stroke-linecap: square"/>
   </g>
   <g id="patch_5">
    <path d="M 38.502813 277.92 
L 596.502813 277.92 
" style="fill: none; stroke: #000000; stroke-width: 0.8; stroke-linejoin: miter; stroke-linecap: square"/>
   </g>
   <g id="patch_6">
    <path d="M 38.502813 0.72 
L 596.502813 0.72 
" style="fill: none; stroke: #000000; stroke-width: 0.8; stroke-linejoin: miter; stroke-linecap: square"/>
   </g>
   <g id="legend_1">
    <g id="patch_7">
     <path d="M 515.734062 38.07625 
L 589.502812 38.07625 
Q 591.502812 38.07625 591.502812 36.07625 
L 591.502812 7.72 
Q 591.502812 5.72 589.502812 5.72 
L 515.734062 5.72 
Q 513.734062 5.72 513.734062 7.72 
L 513.734062 36.07625 
Q 513.734062 38.07625 515.734062 38.07625 
z
" style="fill: #ffffff; opacity: 0.8; stroke: #cccccc; stroke-linejoin: miter"/>
    </g>
    <g id="line2d_31">
     <path d="M 517.734062 13.818438 
L 527.734062 13.818438 
L 537.734062 13.818438 
" style="fill: none; stroke: #0000ff; stroke-opacity: 0.5; stroke-width: 1.5; stroke-linecap: square"/>
    </g>
    <g id="text_17">
     <!-- RNEA -->
     <g transform="translate(545.734062 17.318438) scale(0.1 -0.1)">
      <defs>
       <path id="DejaVuSans-52" d="M 2841 2188 
Q 3044 2119 3236 1894 
Q 3428 1669 3622 1275 
L 4263 0 
L 3584 0 
L 2988 1197 
Q 2756 1666 2539 1819 
Q 2322 1972 1947 1972 
L 1259 1972 
L 1259 0 
L 628 0 
L 628 4666 
L 2053 4666 
Q 2853 4666 3247 4331 
Q 3641 3997 3641 3322 
Q 3641 2881 3436 2590 
Q 3231 2300 2841 2188 
z
M 1259 4147 
L 1259 2491 
L 2053 2491 
Q 2509 2491 2742 2702 
Q 2975 2913 2975 3322 
Q 2975 3731 2742 3939 
Q 2509 4147 2053 4147 
L 1259 4147 
z
" transform="scale(0.015625)"/>
       <path id="DejaVuSans-45" d="M 628 4666 
L 3578 4666 
L 3578 4134 
L 1259 4134 
L 1259 2753 
L 3481 2753 
L 3481 2222 
L 1259 2222 
L 1259 531 
L 3634 531 
L 3634 0 
L 628 0 
L 628 4666 
z
" transform="scale(0.015625)"/>
       <path id="DejaVuSans-41" d="M 2188 4044 
L 1331 1722 
L 3047 1722 
L 2188 4044 
z
M 1831 4666 
L 2547 4666 
L 4325 0 
L 3669 0 
L 3244 1197 
L 1141 1197 
L 716 0 
L 50 0 
L 1831 4666 
z
" transform="scale(0.015625)"/>
      </defs>
      <use xlink:href="#DejaVuSans-52"/>
      <use xlink:href="#DejaVuSans-4e" x="69.482422"/>
      <use xlink:href="#DejaVuSans-45" x="144.287109"/>
      <use xlink:href="#DejaVuSans-41" x="207.470703"/>
     </g>
    </g>
    <g id="line2d_32">
     <path d="M 517.734062 28.496563 
L 527.734062 28.496563 
L 537.734062 28.496563 
" style="fill: none; stroke: #ff0000; stroke-opacity: 0.5; stroke-width: 1.5; stroke-linecap: square"/>
    </g>
    <g id="text_18">
     <!-- BURNEA -->
     <g transform="translate(545.734062 31.996563) scale(0.1 -0.1)">
      <defs>
       <path id="DejaVuSans-42" d="M 1259 2228 
L 1259 519 
L 2272 519 
Q 2781 519 3026 730 
Q 3272 941 3272 1375 
Q 3272 1813 3026 2020 
Q 2781 2228 2272 2228 
L 1259 2228 
z
M 1259 4147 
L 1259 2741 
L 2194 2741 
Q 2656 2741 2882 2914 
Q 3109 3088 3109 3444 
Q 3109 3797 2882 3972 
Q 2656 4147 2194 4147 
L 1259 4147 
z
M 628 4666 
L 2241 4666 
Q 2963 4666 3353 4366 
Q 3744 4066 3744 3513 
Q 3744 3084 3544 2831 
Q 3344 2578 2956 2516 
Q 3422 2416 3680 2098 
Q 3938 1781 3938 1306 
Q 3938 681 3513 340 
Q 3088 0 2303 0 
L 628 0 
L 628 4666 
z
" transform="scale(0.015625)"/>
       <path id="DejaVuSans-55" d="M 556 4666 
L 1191 4666 
L 1191 1831 
Q 1191 1081 1462 751 
Q 1734 422 2344 422 
Q 2950 422 3222 751 
Q 3494 1081 3494 1831 
L 3494 4666 
L 4128 4666 
L 4128 1753 
Q 4128 841 3676 375 
Q 3225 -91 2344 -91 
Q 1459 -91 1007 375 
Q 556 841 556 1753 
L 556 4666 
z
" transform="scale(0.015625)"/>
      </defs>
      <use xlink:href="#DejaVuSans-42"/>
      <use xlink:href="#DejaVuSans-55" x="68.603516"/>
      <use xlink:href="#DejaVuSans-52" x="141.796875"/>
      <use xlink:href="#DejaVuSans-4e" x="211.279297"/>
      <use xlink:href="#DejaVuSans-45" x="286.083984"/>
      <use xlink:href="#DejaVuSans-41" x="349.267578"/>
     </g>
    </g>
   </g>
  </g>
 </g>
 <defs>
  <clipPath id="p0317c564f6">
   <rect x="38.502813" y="0.72" width="558" height="277.2"/>
  </clipPath>
 </defs>
</svg>
