<?xml version="1.0" encoding="utf-8" standalone="no"?>
<!DOCTYPE svg PUBLIC "-//W3C//DTD SVG 1.1//EN"
  "http://www.w3.org/Graphics/SVG/1.1/DTD/svg11.dtd">
<svg xmlns:xlink="http://www.w3.org/1999/xlink" width="590.860312pt" height="304.99625pt" viewBox="0 0 590.860312 304.99625" xmlns="http://www.w3.org/2000/svg" version="1.1">
 <metadata>
  <rdf:RDF xmlns:dc="http://purl.org/dc/elements/1.1/" xmlns:cc="http://creativecommons.org/ns#" xmlns:rdf="http://www.w3.org/1999/02/22-rdf-syntax-ns#">
   <cc:Work>
    <dc:type rdf:resource="http://purl.org/dc/dcmitype/StillImage"/>
    <dc:date>2023-09-07T03:30:27.075852</dc:date>
    <dc:format>image/svg+xml</dc:format>
    <dc:creator>
     <cc:Agent>
      <dc:title>Matplotlib v3.7.2, https://matplotlib.org/</dc:title>
     </cc:Agent>
    </dc:creator>
   </cc:Work>
  </rdf:RDF>
 </metadata>
 <defs>
  <style type="text/css">*{stroke-linejoin: round; stroke-linecap: butt}</style>
 </defs>
 <g id="figure_1">
  <g id="patch_1">
   <path d="M -0 304.99625 
L 590.860312 304.99625 
L 590.860312 0 
L -0 0 
L -0 304.99625 
z
" style="fill: none"/>
  </g>
  <g id="axes_1">
   <g id="patch_2">
    <path d="M 32.140313 277.92 
L 590.140313 277.92 
L 590.140313 0.72 
L 32.140313 0.72 
L 32.140313 277.92 
z
" style="fill: none"/>
   </g>
   <g id="matplotlib.axis_1">
    <g id="xtick_1">
     <g id="line2d_1">
      <path d="M 32.140313 277.92 
L 32.140313 0.72 
" clip-path="url(#p7a45a3a7c2)" style="fill: none; stroke-dasharray: 0.8,1.32; stroke-dashoffset: 0; stroke: #000000; stroke-opacity: 0.5; stroke-width: 0.8"/>
     </g>
     <g id="line2d_2">
      <defs>
       <path id="m7cc7492e83" d="M 0 0 
L 0 3.5 
" style="stroke: #000000; stroke-width: 0.8"/>
      </defs>
      <g>
       <use xlink:href="#m7cc7492e83" x="32.140313" y="277.92" style="stroke: #000000; stroke-width: 0.8"/>
      </g>
     </g>
     <g id="text_1">
      <!-- 0.0 -->
      <g transform="translate(24.18875 292.518438) scale(0.1 -0.1)">
       <defs>
        <path id="DejaVuSans-30" d="M 2034 4250 
Q 1547 4250 1301 3770 
Q 1056 3291 1056 2328 
Q 1056 1369 1301 889 
Q 1547 409 2034 409 
Q 2525 409 2770 889 
Q 3016 1369 3016 2328 
Q 3016 3291 2770 3770 
Q 2525 4250 2034 4250 
z
M 2034 4750 
Q 2819 4750 3233 4129 
Q 3647 3509 3647 2328 
Q 3647 1150 3233 529 
Q 2819 -91 2034 -91 
Q 1250 -91 836 529 
Q 422 1150 422 2328 
Q 422 3509 836 4129 
Q 1250 4750 2034 4750 
z
" transform="scale(0.015625)"/>
        <path id="DejaVuSans-2e" d="M 684 794 
L 1344 794 
L 1344 0 
L 684 0 
L 684 794 
z
" transform="scale(0.015625)"/>
       </defs>
       <use xlink:href="#DejaVuSans-30"/>
       <use xlink:href="#DejaVuSans-2e" x="63.623047"/>
       <use xlink:href="#DejaVuSans-30" x="95.410156"/>
      </g>
     </g>
    </g>
    <g id="xtick_2">
     <g id="line2d_3">
      <path d="M 106.291637 277.92 
L 106.291637 0.72 
" clip-path="url(#p7a45a3a7c2)" style="fill: none; stroke-dasharray: 0.8,1.32; stroke-dashoffset: 0; stroke: #000000; stroke-opacity: 0.5; stroke-width: 0.8"/>
     </g>
     <g id="line2d_4">
      <g>
       <use xlink:href="#m7cc7492e83" x="106.291637" y="277.92" style="stroke: #000000; stroke-width: 0.8"/>
      </g>
     </g>
     <g id="text_2">
      <!-- 2.5 -->
      <g transform="translate(98.340075 292.518438) scale(0.1 -0.1)">
       <defs>
        <path id="DejaVuSans-32" d="M 1228 531 
L 3431 531 
L 3431 0 
L 469 0 
L 469 531 
Q 828 903 1448 1529 
Q 2069 2156 2228 2338 
Q 2531 2678 2651 2914 
Q 2772 3150 2772 3378 
Q 2772 3750 2511 3984 
Q 2250 4219 1831 4219 
Q 1534 4219 1204 4116 
Q 875 4013 500 3803 
L 500 4441 
Q 881 4594 1212 4672 
Q 1544 4750 1819 4750 
Q 2544 4750 2975 4387 
Q 3406 4025 3406 3419 
Q 3406 3131 3298 2873 
Q 3191 2616 2906 2266 
Q 2828 2175 2409 1742 
Q 1991 1309 1228 531 
z
" transform="scale(0.015625)"/>
        <path id="DejaVuSans-35" d="M 691 4666 
L 3169 4666 
L 3169 4134 
L 1269 4134 
L 1269 2991 
Q 1406 3038 1543 3061 
Q 1681 3084 1819 3084 
Q 2600 3084 3056 2656 
Q 3513 2228 3513 1497 
Q 3513 744 3044 326 
Q 2575 -91 1722 -91 
Q 1428 -91 1123 -41 
Q 819 9 494 109 
L 494 744 
Q 775 591 1075 516 
Q 1375 441 1709 441 
Q 2250 441 2565 725 
Q 2881 1009 2881 1497 
Q 2881 1984 2565 2268 
Q 2250 2553 1709 2553 
Q 1456 2553 1204 2497 
Q 953 2441 691 2322 
L 691 4666 
z
" transform="scale(0.015625)"/>
       </defs>
       <use xlink:href="#DejaVuSans-32"/>
       <use xlink:href="#DejaVuSans-2e" x="63.623047"/>
       <use xlink:href="#DejaVuSans-35" x="95.410156"/>
      </g>
     </g>
    </g>
    <g id="xtick_3">
     <g id="line2d_5">
      <path d="M 180.442962 277.92 
L 180.442962 0.72 
" clip-path="url(#p7a45a3a7c2)" style="fill: none; stroke-dasharray: 0.8,1.32; stroke-dashoffset: 0; stroke: #000000; stroke-opacity: 0.5; stroke-width: 0.8"/>
     </g>
     <g id="line2d_6">
      <g>
       <use xlink:href="#m7cc7492e83" x="180.442962" y="277.92" style="stroke: #000000; stroke-width: 0.8"/>
      </g>
     </g>
     <g id="text_3">
      <!-- 5.0 -->
      <g transform="translate(172.4914 292.518438) scale(0.1 -0.1)">
       <use xlink:href="#DejaVuSans-35"/>
       <use xlink:href="#DejaVuSans-2e" x="63.623047"/>
       <use xlink:href="#DejaVuSans-30" x="95.410156"/>
      </g>
     </g>
    </g>
    <g id="xtick_4">
     <g id="line2d_7">
      <path d="M 254.594287 277.92 
L 254.594287 0.72 
" clip-path="url(#p7a45a3a7c2)" style="fill: none; stroke-dasharray: 0.8,1.32; stroke-dashoffset: 0; stroke: #000000; stroke-opacity: 0.5; stroke-width: 0.8"/>
     </g>
     <g id="line2d_8">
      <g>
       <use xlink:href="#m7cc7492e83" x="254.594287" y="277.92" style="stroke: #000000; stroke-width: 0.8"/>
      </g>
     </g>
     <g id="text_4">
      <!-- 7.5 -->
      <g transform="translate(246.642725 292.518438) scale(0.1 -0.1)">
       <defs>
        <path id="DejaVuSans-37" d="M 525 4666 
L 3525 4666 
L 3525 4397 
L 1831 0 
L 1172 0 
L 2766 4134 
L 525 4134 
L 525 4666 
z
" transform="scale(0.015625)"/>
       </defs>
       <use xlink:href="#DejaVuSans-37"/>
       <use xlink:href="#DejaVuSans-2e" x="63.623047"/>
       <use xlink:href="#DejaVuSans-35" x="95.410156"/>
      </g>
     </g>
    </g>
    <g id="xtick_5">
     <g id="line2d_9">
      <path d="M 328.745612 277.92 
L 328.745612 0.72 
" clip-path="url(#p7a45a3a7c2)" style="fill: none; stroke-dasharray: 0.8,1.32; stroke-dashoffset: 0; stroke: #000000; stroke-opacity: 0.5; stroke-width: 0.8"/>
     </g>
     <g id="line2d_10">
      <g>
       <use xlink:href="#m7cc7492e83" x="328.745612" y="277.92" style="stroke: #000000; stroke-width: 0.8"/>
      </g>
     </g>
     <g id="text_5">
      <!-- 10.0 -->
      <g transform="translate(317.6128 292.518438) scale(0.1 -0.1)">
       <defs>
        <path id="DejaVuSans-31" d="M 794 531 
L 1825 531 
L 1825 4091 
L 703 3866 
L 703 4441 
L 1819 4666 
L 2450 4666 
L 2450 531 
L 3481 531 
L 3481 0 
L 794 0 
L 794 531 
z
" transform="scale(0.015625)"/>
       </defs>
       <use xlink:href="#DejaVuSans-31"/>
       <use xlink:href="#DejaVuSans-30" x="63.623047"/>
       <use xlink:href="#DejaVuSans-2e" x="127.246094"/>
       <use xlink:href="#DejaVuSans-30" x="159.033203"/>
      </g>
     </g>
    </g>
    <g id="xtick_6">
     <g id="line2d_11">
      <path d="M 402.896937 277.92 
L 402.896937 0.72 
" clip-path="url(#p7a45a3a7c2)" style="fill: none; stroke-dasharray: 0.8,1.32; stroke-dashoffset: 0; stroke: #000000; stroke-opacity: 0.5; stroke-width: 0.8"/>
     </g>
     <g id="line2d_12">
      <g>
       <use xlink:href="#m7cc7492e83" x="402.896937" y="277.92" style="stroke: #000000; stroke-width: 0.8"/>
      </g>
     </g>
     <g id="text_6">
      <!-- 12.5 -->
      <g transform="translate(391.764125 292.518438) scale(0.1 -0.1)">
       <use xlink:href="#DejaVuSans-31"/>
       <use xlink:href="#DejaVuSans-32" x="63.623047"/>
       <use xlink:href="#DejaVuSans-2e" x="127.246094"/>
       <use xlink:href="#DejaVuSans-35" x="159.033203"/>
      </g>
     </g>
    </g>
    <g id="xtick_7">
     <g id="line2d_13">
      <path d="M 477.048262 277.92 
L 477.048262 0.72 
" clip-path="url(#p7a45a3a7c2)" style="fill: none; stroke-dasharray: 0.8,1.32; stroke-dashoffset: 0; stroke: #000000; stroke-opacity: 0.5; stroke-width: 0.8"/>
     </g>
     <g id="line2d_14">
      <g>
       <use xlink:href="#m7cc7492e83" x="477.048262" y="277.92" style="stroke: #000000; stroke-width: 0.8"/>
      </g>
     </g>
     <g id="text_7">
      <!-- 15.0 -->
      <g transform="translate(465.91545 292.518438) scale(0.1 -0.1)">
       <use xlink:href="#DejaVuSans-31"/>
       <use xlink:href="#DejaVuSans-35" x="63.623047"/>
       <use xlink:href="#DejaVuSans-2e" x="127.246094"/>
       <use xlink:href="#DejaVuSans-30" x="159.033203"/>
      </g>
     </g>
    </g>
    <g id="xtick_8">
     <g id="line2d_15">
      <path d="M 551.199587 277.92 
L 551.199587 0.72 
" clip-path="url(#p7a45a3a7c2)" style="fill: none; stroke-dasharray: 0.8,1.32; stroke-dashoffset: 0; stroke: #000000; stroke-opacity: 0.5; stroke-width: 0.8"/>
     </g>
     <g id="line2d_16">
      <g>
       <use xlink:href="#m7cc7492e83" x="551.199587" y="277.92" style="stroke: #000000; stroke-width: 0.8"/>
      </g>
     </g>
     <g id="text_8">
      <!-- 17.5 -->
      <g transform="translate(540.066774 292.518438) scale(0.1 -0.1)">
       <use xlink:href="#DejaVuSans-31"/>
       <use xlink:href="#DejaVuSans-37" x="63.623047"/>
       <use xlink:href="#DejaVuSans-2e" x="127.246094"/>
       <use xlink:href="#DejaVuSans-35" x="159.033203"/>
      </g>
     </g>
    </g>
    <g id="text_9">
     <!-- Zeit [s] -->
     <g transform="translate(293.194219 302.196563) scale(0.1 -0.1)">
      <defs>
       <path id="DejaVuSans-5a" d="M 359 4666 
L 4025 4666 
L 4025 4184 
L 1075 531 
L 4097 531 
L 4097 0 
L 288 0 
L 288 481 
L 3238 4134 
L 359 4134 
L 359 4666 
z
" transform="scale(0.015625)"/>
       <path id="DejaVuSans-65" d="M 3597 1894 
L 3597 1613 
L 953 1613 
Q 991 1019 1311 708 
Q 1631 397 2203 397 
Q 2534 397 2845 478 
Q 3156 559 3463 722 
L 3463 178 
Q 3153 47 2828 -22 
Q 2503 -91 2169 -91 
Q 1331 -91 842 396 
Q 353 884 353 1716 
Q 353 2575 817 3079 
Q 1281 3584 2069 3584 
Q 2775 3584 3186 3129 
Q 3597 2675 3597 1894 
z
M 3022 2063 
Q 3016 2534 2758 2815 
Q 2500 3097 2075 3097 
Q 1594 3097 1305 2825 
Q 1016 2553 972 2059 
L 3022 2063 
z
" transform="scale(0.015625)"/>
       <path id="DejaVuSans-69" d="M 603 3500 
L 1178 3500 
L 1178 0 
L 603 0 
L 603 3500 
z
M 603 4863 
L 1178 4863 
L 1178 4134 
L 603 4134 
L 603 4863 
z
" transform="scale(0.015625)"/>
       <path id="DejaVuSans-74" d="M 1172 4494 
L 1172 3500 
L 2356 3500 
L 2356 3053 
L 1172 3053 
L 1172 1153 
Q 1172 725 1289 603 
Q 1406 481 1766 481 
L 2356 481 
L 2356 0 
L 1766 0 
Q 1100 0 847 248 
Q 594 497 594 1153 
L 594 3053 
L 172 3053 
L 172 3500 
L 594 3500 
L 594 4494 
L 1172 4494 
z
" transform="scale(0.015625)"/>
       <path id="DejaVuSans-20" transform="scale(0.015625)"/>
       <path id="DejaVuSans-5b" d="M 550 4863 
L 1875 4863 
L 1875 4416 
L 1125 4416 
L 1125 -397 
L 1875 -397 
L 1875 -844 
L 550 -844 
L 550 4863 
z
" transform="scale(0.015625)"/>
       <path id="DejaVuSans-73" d="M 2834 3397 
L 2834 2853 
Q 2591 2978 2328 3040 
Q 2066 3103 1784 3103 
Q 1356 3103 1142 2972 
Q 928 2841 928 2578 
Q 928 2378 1081 2264 
Q 1234 2150 1697 2047 
L 1894 2003 
Q 2506 1872 2764 1633 
Q 3022 1394 3022 966 
Q 3022 478 2636 193 
Q 2250 -91 1575 -91 
Q 1294 -91 989 -36 
Q 684 19 347 128 
L 347 722 
Q 666 556 975 473 
Q 1284 391 1588 391 
Q 1994 391 2212 530 
Q 2431 669 2431 922 
Q 2431 1156 2273 1281 
Q 2116 1406 1581 1522 
L 1381 1569 
Q 847 1681 609 1914 
Q 372 2147 372 2553 
Q 372 3047 722 3315 
Q 1072 3584 1716 3584 
Q 2034 3584 2315 3537 
Q 2597 3491 2834 3397 
z
" transform="scale(0.015625)"/>
       <path id="DejaVuSans-5d" d="M 1947 4863 
L 1947 -844 
L 622 -844 
L 622 -397 
L 1369 -397 
L 1369 4416 
L 622 4416 
L 622 4863 
L 1947 4863 
z
" transform="scale(0.015625)"/>
      </defs>
      <use xlink:href="#DejaVuSans-5a"/>
      <use xlink:href="#DejaVuSans-65" x="68.505859"/>
      <use xlink:href="#DejaVuSans-69" x="130.029297"/>
      <use xlink:href="#DejaVuSans-74" x="157.8125"/>
      <use xlink:href="#DejaVuSans-20" x="197.021484"/>
      <use xlink:href="#DejaVuSans-5b" x="228.808594"/>
      <use xlink:href="#DejaVuSans-73" x="267.822266"/>
      <use xlink:href="#DejaVuSans-5d" x="319.921875"/>
     </g>
    </g>
   </g>
   <g id="matplotlib.axis_2">
    <g id="ytick_1">
     <g id="line2d_17">
      <path d="M 32.140313 252.572077 
L 590.140313 252.572077 
" clip-path="url(#p7a45a3a7c2)" style="fill: none; stroke-dasharray: 0.8,1.32; stroke-dashoffset: 0; stroke: #000000; stroke-opacity: 0.5; stroke-width: 0.8"/>
     </g>
     <g id="line2d_18">
      <defs>
       <path id="ma2b7042b70" d="M 0 0 
L -3.5 0 
" style="stroke: #000000; stroke-width: 0.8"/>
      </defs>
      <g>
       <use xlink:href="#ma2b7042b70" x="32.140313" y="252.572077" style="stroke: #000000; stroke-width: 0.8"/>
      </g>
     </g>
     <g id="text_10">
      <!-- −2 -->
      <g transform="translate(10.398125 256.371295) scale(0.1 -0.1)">
       <defs>
        <path id="DejaVuSans-2212" d="M 678 2272 
L 4684 2272 
L 4684 1741 
L 678 1741 
L 678 2272 
z
" transform="scale(0.015625)"/>
       </defs>
       <use xlink:href="#DejaVuSans-2212"/>
       <use xlink:href="#DejaVuSans-32" x="83.789062"/>
      </g>
     </g>
    </g>
    <g id="ytick_2">
     <g id="line2d_19">
      <path d="M 32.140313 209.146479 
L 590.140313 209.146479 
" clip-path="url(#p7a45a3a7c2)" style="fill: none; stroke-dasharray: 0.8,1.32; stroke-dashoffset: 0; stroke: #000000; stroke-opacity: 0.5; stroke-width: 0.8"/>
     </g>
     <g id="line2d_20">
      <g>
       <use xlink:href="#ma2b7042b70" x="32.140313" y="209.146479" style="stroke: #000000; stroke-width: 0.8"/>
      </g>
     </g>
     <g id="text_11">
      <!-- 0 -->
      <g transform="translate(18.777813 212.945698) scale(0.1 -0.1)">
       <use xlink:href="#DejaVuSans-30"/>
      </g>
     </g>
    </g>
    <g id="ytick_3">
     <g id="line2d_21">
      <path d="M 32.140313 165.720881 
L 590.140313 165.720881 
" clip-path="url(#p7a45a3a7c2)" style="fill: none; stroke-dasharray: 0.8,1.32; stroke-dashoffset: 0; stroke: #000000; stroke-opacity: 0.5; stroke-width: 0.8"/>
     </g>
     <g id="line2d_22">
      <g>
       <use xlink:href="#ma2b7042b70" x="32.140313" y="165.720881" style="stroke: #000000; stroke-width: 0.8"/>
      </g>
     </g>
     <g id="text_12">
      <!-- 2 -->
      <g transform="translate(18.777813 169.5201) scale(0.1 -0.1)">
       <use xlink:href="#DejaVuSans-32"/>
      </g>
     </g>
    </g>
    <g id="ytick_4">
     <g id="line2d_23">
      <path d="M 32.140313 122.295283 
L 590.140313 122.295283 
" clip-path="url(#p7a45a3a7c2)" style="fill: none; stroke-dasharray: 0.8,1.32; stroke-dashoffset: 0; stroke: #000000; stroke-opacity: 0.5; stroke-width: 0.8"/>
     </g>
     <g id="line2d_24">
      <g>
       <use xlink:href="#ma2b7042b70" x="32.140313" y="122.295283" style="stroke: #000000; stroke-width: 0.8"/>
      </g>
     </g>
     <g id="text_13">
      <!-- 4 -->
      <g transform="translate(18.777813 126.094502) scale(0.1 -0.1)">
       <defs>
        <path id="DejaVuSans-34" d="M 2419 4116 
L 825 1625 
L 2419 1625 
L 2419 4116 
z
M 2253 4666 
L 3047 4666 
L 3047 1625 
L 3713 1625 
L 3713 1100 
L 3047 1100 
L 3047 0 
L 2419 0 
L 2419 1100 
L 313 1100 
L 313 1709 
L 2253 4666 
z
" transform="scale(0.015625)"/>
       </defs>
       <use xlink:href="#DejaVuSans-34"/>
      </g>
     </g>
    </g>
    <g id="ytick_5">
     <g id="line2d_25">
      <path d="M 32.140313 78.869685 
L 590.140313 78.869685 
" clip-path="url(#p7a45a3a7c2)" style="fill: none; stroke-dasharray: 0.8,1.32; stroke-dashoffset: 0; stroke: #000000; stroke-opacity: 0.5; stroke-width: 0.8"/>
     </g>
     <g id="line2d_26">
      <g>
       <use xlink:href="#ma2b7042b70" x="32.140313" y="78.869685" style="stroke: #000000; stroke-width: 0.8"/>
      </g>
     </g>
     <g id="text_14">
      <!-- 6 -->
      <g transform="translate(18.777813 82.668904) scale(0.1 -0.1)">
       <defs>
        <path id="DejaVuSans-36" d="M 2113 2584 
Q 1688 2584 1439 2293 
Q 1191 2003 1191 1497 
Q 1191 994 1439 701 
Q 1688 409 2113 409 
Q 2538 409 2786 701 
Q 3034 994 3034 1497 
Q 3034 2003 2786 2293 
Q 2538 2584 2113 2584 
z
M 3366 4563 
L 3366 3988 
Q 3128 4100 2886 4159 
Q 2644 4219 2406 4219 
Q 1781 4219 1451 3797 
Q 1122 3375 1075 2522 
Q 1259 2794 1537 2939 
Q 1816 3084 2150 3084 
Q 2853 3084 3261 2657 
Q 3669 2231 3669 1497 
Q 3669 778 3244 343 
Q 2819 -91 2113 -91 
Q 1303 -91 875 529 
Q 447 1150 447 2328 
Q 447 3434 972 4092 
Q 1497 4750 2381 4750 
Q 2619 4750 2861 4703 
Q 3103 4656 3366 4563 
z
" transform="scale(0.015625)"/>
       </defs>
       <use xlink:href="#DejaVuSans-36"/>
      </g>
     </g>
    </g>
    <g id="ytick_6">
     <g id="line2d_27">
      <path d="M 32.140313 35.444088 
L 590.140313 35.444088 
" clip-path="url(#p7a45a3a7c2)" style="fill: none; stroke-dasharray: 0.8,1.32; stroke-dashoffset: 0; stroke: #000000; stroke-opacity: 0.5; stroke-width: 0.8"/>
     </g>
     <g id="line2d_28">
      <g>
       <use xlink:href="#ma2b7042b70" x="32.140313" y="35.444088" style="stroke: #000000; stroke-width: 0.8"/>
      </g>
     </g>
     <g id="text_15">
      <!-- 8 -->
      <g transform="translate(18.777813 39.243306) scale(0.1 -0.1)">
       <defs>
        <path id="DejaVuSans-38" d="M 2034 2216 
Q 1584 2216 1326 1975 
Q 1069 1734 1069 1313 
Q 1069 891 1326 650 
Q 1584 409 2034 409 
Q 2484 409 2743 651 
Q 3003 894 3003 1313 
Q 3003 1734 2745 1975 
Q 2488 2216 2034 2216 
z
M 1403 2484 
Q 997 2584 770 2862 
Q 544 3141 544 3541 
Q 544 4100 942 4425 
Q 1341 4750 2034 4750 
Q 2731 4750 3128 4425 
Q 3525 4100 3525 3541 
Q 3525 3141 3298 2862 
Q 3072 2584 2669 2484 
Q 3125 2378 3379 2068 
Q 3634 1759 3634 1313 
Q 3634 634 3220 271 
Q 2806 -91 2034 -91 
Q 1263 -91 848 271 
Q 434 634 434 1313 
Q 434 1759 690 2068 
Q 947 2378 1403 2484 
z
M 1172 3481 
Q 1172 3119 1398 2916 
Q 1625 2713 2034 2713 
Q 2441 2713 2670 2916 
Q 2900 3119 2900 3481 
Q 2900 3844 2670 4047 
Q 2441 4250 2034 4250 
Q 1625 4250 1398 4047 
Q 1172 3844 1172 3481 
z
" transform="scale(0.015625)"/>
       </defs>
       <use xlink:href="#DejaVuSans-38"/>
      </g>
     </g>
    </g>
    <g id="text_16">
     <!-- Drehmoment [Nm] -->
     <g transform="translate(8.318438 186.465313) rotate(-90) scale(0.1 -0.1)">
      <defs>
       <path id="DejaVuSans-44" d="M 1259 4147 
L 1259 519 
L 2022 519 
Q 2988 519 3436 956 
Q 3884 1394 3884 2338 
Q 3884 3275 3436 3711 
Q 2988 4147 2022 4147 
L 1259 4147 
z
M 628 4666 
L 1925 4666 
Q 3281 4666 3915 4102 
Q 4550 3538 4550 2338 
Q 4550 1131 3912 565 
Q 3275 0 1925 0 
L 628 0 
L 628 4666 
z
" transform="scale(0.015625)"/>
       <path id="DejaVuSans-72" d="M 2631 2963 
Q 2534 3019 2420 3045 
Q 2306 3072 2169 3072 
Q 1681 3072 1420 2755 
Q 1159 2438 1159 1844 
L 1159 0 
L 581 0 
L 581 3500 
L 1159 3500 
L 1159 2956 
Q 1341 3275 1631 3429 
Q 1922 3584 2338 3584 
Q 2397 3584 2469 3576 
Q 2541 3569 2628 3553 
L 2631 2963 
z
" transform="scale(0.015625)"/>
       <path id="DejaVuSans-68" d="M 3513 2113 
L 3513 0 
L 2938 0 
L 2938 2094 
Q 2938 2591 2744 2837 
Q 2550 3084 2163 3084 
Q 1697 3084 1428 2787 
Q 1159 2491 1159 1978 
L 1159 0 
L 581 0 
L 581 4863 
L 1159 4863 
L 1159 2956 
Q 1366 3272 1645 3428 
Q 1925 3584 2291 3584 
Q 2894 3584 3203 3211 
Q 3513 2838 3513 2113 
z
" transform="scale(0.015625)"/>
       <path id="DejaVuSans-6d" d="M 3328 2828 
Q 3544 3216 3844 3400 
Q 4144 3584 4550 3584 
Q 5097 3584 5394 3201 
Q 5691 2819 5691 2113 
L 5691 0 
L 5113 0 
L 5113 2094 
Q 5113 2597 4934 2840 
Q 4756 3084 4391 3084 
Q 3944 3084 3684 2787 
Q 3425 2491 3425 1978 
L 3425 0 
L 2847 0 
L 2847 2094 
Q 2847 2600 2669 2842 
Q 2491 3084 2119 3084 
Q 1678 3084 1418 2786 
Q 1159 2488 1159 1978 
L 1159 0 
L 581 0 
L 581 3500 
L 1159 3500 
L 1159 2956 
Q 1356 3278 1631 3431 
Q 1906 3584 2284 3584 
Q 2666 3584 2933 3390 
Q 3200 3197 3328 2828 
z
" transform="scale(0.015625)"/>
       <path id="DejaVuSans-6f" d="M 1959 3097 
Q 1497 3097 1228 2736 
Q 959 2375 959 1747 
Q 959 1119 1226 758 
Q 1494 397 1959 397 
Q 2419 397 2687 759 
Q 2956 1122 2956 1747 
Q 2956 2369 2687 2733 
Q 2419 3097 1959 3097 
z
M 1959 3584 
Q 2709 3584 3137 3096 
Q 3566 2609 3566 1747 
Q 3566 888 3137 398 
Q 2709 -91 1959 -91 
Q 1206 -91 779 398 
Q 353 888 353 1747 
Q 353 2609 779 3096 
Q 1206 3584 1959 3584 
z
" transform="scale(0.015625)"/>
       <path id="DejaVuSans-6e" d="M 3513 2113 
L 3513 0 
L 2938 0 
L 2938 2094 
Q 2938 2591 2744 2837 
Q 2550 3084 2163 3084 
Q 1697 3084 1428 2787 
Q 1159 2491 1159 1978 
L 1159 0 
L 581 0 
L 581 3500 
L 1159 3500 
L 1159 2956 
Q 1366 3272 1645 3428 
Q 1925 3584 2291 3584 
Q 2894 3584 3203 3211 
Q 3513 2838 3513 2113 
z
" transform="scale(0.015625)"/>
       <path id="DejaVuSans-4e" d="M 628 4666 
L 1478 4666 
L 3547 763 
L 3547 4666 
L 4159 4666 
L 4159 0 
L 3309 0 
L 1241 3903 
L 1241 0 
L 628 0 
L 628 4666 
z
" transform="scale(0.015625)"/>
      </defs>
      <use xlink:href="#DejaVuSans-44"/>
      <use xlink:href="#DejaVuSans-72" x="77.001953"/>
      <use xlink:href="#DejaVuSans-65" x="115.865234"/>
      <use xlink:href="#DejaVuSans-68" x="177.388672"/>
      <use xlink:href="#DejaVuSans-6d" x="240.767578"/>
      <use xlink:href="#DejaVuSans-6f" x="338.179688"/>
      <use xlink:href="#DejaVuSans-6d" x="399.361328"/>
      <use xlink:href="#DejaVuSans-65" x="496.773438"/>
      <use xlink:href="#DejaVuSans-6e" x="558.296875"/>
      <use xlink:href="#DejaVuSans-74" x="621.675781"/>
      <use xlink:href="#DejaVuSans-20" x="660.884766"/>
      <use xlink:href="#DejaVuSans-5b" x="692.671875"/>
      <use xlink:href="#DejaVuSans-4e" x="731.685547"/>
      <use xlink:href="#DejaVuSans-6d" x="806.490234"/>
      <use xlink:href="#DejaVuSans-5d" x="903.902344"/>
     </g>
    </g>
   </g>
   <g id="line2d_29">
    <path d="M 32.140313 193.347668 
L 217.369551 193.365692 
L 217.685713 193.485496 
L 218.911855 194.741497 
L 219.626289 194.842504 
L 221.060327 194.427932 
L 221.116739 194.605156 
L 221.594397 194.335331 
L 221.831651 194.496333 
L 222.849207 194.411904 
L 223.145121 194.586228 
L 223.636128 194.594265 
L 223.810569 194.920308 
L 224.343439 194.50287 
L 224.582601 194.766751 
L 224.879863 194.295515 
L 225.301219 194.286345 
L 225.774325 194.448892 
L 225.953557 194.908074 
L 226.072009 194.356232 
L 226.553484 194.52684 
L 226.845951 194.930614 
L 227.025385 194.159924 
L 227.264162 194.642744 
L 227.502067 194.760962 
L 227.801173 194.065373 
L 228.276175 194.663857 
L 228.514977 194.204438 
L 228.75348 193.991221 
L 229.070165 194.431479 
L 229.36445 194.10079 
L 229.544257 194.63104 
L 229.721979 194.082514 
L 230.021717 193.890818 
L 230.258787 194.647756 
L 230.557339 194.697455 
L 230.795324 194.374789 
L 231.033203 194.979664 
L 231.332523 195.104421 
L 231.512402 194.205279 
L 231.928034 194.272063 
L 231.98826 194.457895 
L 232.465955 193.872088 
L 232.702568 195.050555 
L 232.942811 195.052773 
L 233.186582 194.731607 
L 233.478279 195.337525 
L 233.660737 194.233459 
L 233.954681 194.592834 
L 234.252051 194.586262 
L 234.431297 195.322874 
L 234.789339 194.168479 
L 235.027384 194.154504 
L 235.206838 194.81709 
L 235.682396 194.046505 
L 235.981562 194.58029 
L 236.279246 194.639119 
L 236.577343 194.878483 
L 236.756315 193.958029 
L 237.05356 193.621331 
L 237.176921 194.322397 
L 237.709175 194.016564 
L 237.891067 194.086117 
L 238.169337 194.5675 
L 238.397599 194.111369 
L 238.636284 194.547141 
L 239.379322 195.277028 
L 239.840226 194.4067 
L 239.975442 192.991195 
L 240.098316 193.424428 
L 240.392294 195.127581 
L 240.631739 193.813205 
L 240.869763 193.709706 
L 241.107026 195.466345 
L 241.345576 194.434656 
L 241.762828 193.22301 
L 242.001197 193.887388 
L 242.180755 193.691243 
L 242.486189 195.601642 
L 242.658347 193.446113 
L 242.856481 194.415766 
L 243.168317 194.245689 
L 243.434494 194.522977 
L 243.55472 194.050464 
L 243.814282 194.050992 
L 244.092059 194.801496 
L 244.33058 195.038323 
L 244.627738 194.440496 
L 244.808656 194.915953 
L 245.104217 194.402672 
L 245.343396 194.931324 
L 245.641537 195.209592 
L 245.881365 195.061446 
L 246.063258 195.448321 
L 246.595974 194.830359 
L 246.774928 194.253229 
L 247.074762 195.013156 
L 247.370322 194.78097 
L 247.550299 195.009011 
L 247.788534 194.576254 
L 248.027853 192.53037 
L 248.503671 195.769315 
L 248.920695 192.299816 
L 249.339831 194.81136 
L 249.516736 194.458948 
L 249.755756 193.373805 
L 249.9945 193.860576 
L 250.234213 194.843903 
L 250.651073 195.1926 
L 250.772096 193.955075 
L 251.068182 193.997975 
L 251.24816 195.523747 
L 251.485551 194.397284 
L 251.84259 193.312749 
L 252.082632 195.049383 
L 252.214731 193.662693 
L 252.497325 192.528341 
L 252.795714 192.775967 
L 253.125417 193.967928 
L 253.367647 194.321296 
L 253.513527 195.592671 
L 253.810733 193.137222 
L 253.931947 194.194113 
L 254.228649 194.899327 
L 254.586829 197.818592 
L 255.127567 193.359832 
L 255.240305 192.890067 
L 255.613246 194.160251 
L 255.724063 193.992295 
L 255.966285 193.313156 
L 256.431699 194.796754 
L 256.789273 192.687252 
L 256.968337 193.3558 
L 257.3852 195.546964 
L 257.504401 194.381025 
L 257.742897 195.055824 
L 257.923349 192.296314 
L 258.280703 195.188552 
L 258.519461 194.804881 
L 258.696364 195.09956 
L 258.937027 194.956169 
L 259.352273 192.20636 
L 259.829448 193.808606 
L 259.889674 194.805683 
L 260.12731 194.422527 
L 260.425959 194.33686 
L 260.73192 194.500777 
L 260.962329 193.463144 
L 261.201122 195.579758 
L 261.397353 194.217179 
L 261.737001 194.191785 
L 261.975511 192.749839 
L 262.394273 194.469535 
L 262.654667 193.806052 
L 262.871144 192.556943 
L 263.168133 192.818678 
L 263.524878 193.470295 
L 263.763231 193.268436 
L 263.882632 194.518438 
L 264.299466 194.233011 
L 264.3605 193.508384 
L 264.597897 193.077307 
L 264.956088 192.896542 
L 265.199153 194.013673 
L 265.373312 192.661146 
L 265.612533 194.793045 
L 266.092012 192.601534 
L 266.326923 195.213586 
L 266.565461 191.846856 
L 266.81283 191.684813 
L 267.280816 193.880641 
L 267.606951 194.657773 
L 267.856872 194.394046 
L 268.295763 193.165586 
L 268.483061 193.833301 
L 268.675147 194.072303 
L 268.951074 194.856206 
L 269.075351 193.282659 
L 269.429128 193.515619 
L 269.84571 194.804259 
L 270.031289 192.351398 
L 270.449826 193.956508 
L 270.686578 191.830182 
L 270.799583 193.989947 
L 271.227969 193.960831 
L 271.416575 192.198168 
L 271.576541 195.418783 
L 271.75803 195.550821 
L 272.113281 192.237465 
L 272.261991 193.122662 
L 272.831352 193.253457 
L 273.068673 195.487305 
L 273.249832 191.51118 
L 273.545056 194.149579 
L 273.724459 194.007112 
L 274.022425 195.676185 
L 274.261309 193.212672 
L 274.617965 193.021854 
L 274.7976 194.340961 
L 275.231571 191.288206 
L 275.511428 194.878636 
L 275.694115 192.012974 
L 275.751157 193.463549 
L 275.988981 193.09224 
L 276.171231 193.943498 
L 276.465935 193.332881 
L 276.705865 193.414768 
L 276.943838 193.283637 
L 277.30182 197.624978 
L 277.599417 193.571355 
L 277.726347 190.092877 
L 277.957434 193.484687 
L 278.200835 195.214547 
L 278.493901 194.957842 
L 278.672125 191.291817 
L 278.913757 193.394007 
L 279.327936 193.786872 
L 279.448279 193.653883 
L 279.686283 196.558171 
L 280.164187 191.815379 
L 280.406913 191.869035 
L 280.644747 190.189591 
L 280.899921 193.944489 
L 281.121606 192.538216 
L 281.48009 193.821841 
L 281.662009 195.612138 
L 281.896875 193.995661 
L 282.135022 194.972166 
L 282.373719 195.232722 
L 282.87827 193.498702 
L 283.092569 194.179453 
L 283.448648 194.460141 
L 283.865204 197.689592 
L 283.985133 192.768941 
L 284.103379 196.884435 
L 284.520863 190.064124 
L 284.586255 196.076678 
L 284.862988 194.247592 
L 285.133028 191.42752 
L 285.317336 194.733731 
L 285.77215 189.163476 
L 285.832476 193.684097 
L 286.070076 194.583958 
L 286.368448 193.196372 
L 286.845055 192.079049 
L 287.142483 193.453101 
L 287.326559 192.605671 
L 287.561729 189.890656 
L 288.104074 191.821958 
L 288.336497 189.23956 
L 288.515818 192.888244 
L 288.811161 192.298837 
L 289.0502 194.785455 
L 289.354731 195.043801 
L 289.585603 190.257511 
L 290.063872 193.747981 
L 290.245131 194.098034 
L 290.599351 193.269097 
L 290.789814 191.397015 
L 291.076474 194.209055 
L 291.257943 190.722397 
L 291.732865 193.951666 
L 291.972965 193.903893 
L 292.270209 191.562097 
L 292.507736 192.84022 
L 292.745936 194.813625 
L 293.24405 193.986453 
L 293.464715 194.68272 
L 293.820274 191.874833 
L 293.999205 195.170099 
L 294.237666 191.609847 
L 294.491675 193.722404 
L 294.717265 191.229529 
L 295.131549 196.997107 
L 295.250828 194.475948 
L 295.548755 196.539034 
L 295.72806 192.492556 
L 296.085114 193.43739 
L 296.263899 195.183306 
L 296.44426 195.646316 
L 296.681386 193.061279 
L 296.978824 193.971092 
L 297.18253 192.825992 
L 297.463618 194.451653 
L 298.05391 192.375179 
L 298.233173 194.222026 
L 298.59037 193.686455 
L 298.889732 191.37028 
L 298.94823 192.414433 
L 299.186102 192.337691 
L 299.483957 192.46888 
L 299.66656 192.0511 
L 300.022783 191.958085 
L 300.199527 190.852349 
L 300.439009 191.164651 
L 300.633524 193.79356 
L 300.919244 193.235302 
L 301.537546 192.35558 
L 301.705471 191.951181 
L 301.936626 192.550831 
L 302.175397 196.163641 
L 302.476748 192.583315 
L 302.724234 193.290637 
L 302.951049 191.635111 
L 303.092979 192.894467 
L 303.567811 190.847481 
L 303.639314 191.745409 
L 303.92671 193.841856 
L 304.164771 189.842473 
L 304.345503 195.259287 
L 304.880211 194.347422 
L 305.249083 195.737031 
L 305.419027 191.1276 
L 306.012819 195.20436 
L 306.139247 191.884879 
L 306.370477 192.799463 
L 306.727724 193.038783 
L 306.850138 151.898618 
L 307.442992 156.975263 
L 307.873278 183.344277 
L 308.21765 183.571843 
L 308.339314 189.527048 
L 308.576388 193.077435 
L 308.875217 193.362762 
L 309.320091 195.040441 
L 309.654483 195.142444 
L 309.97169 194.413858 
L 310.089534 199.526507 
L 310.332804 195.395715 
L 310.633065 197.254073 
L 310.747527 193.760156 
L 311.048395 194.805505 
L 311.400781 193.258489 
L 311.698045 193.357486 
L 311.817602 193.1395 
L 311.996689 192.435633 
L 312.356427 195.597155 
L 312.596586 195.49015 
L 313.13539 191.232597 
L 313.252365 193.09072 
L 313.547978 190.198188 
L 313.78576 192.900909 
L 314.262231 193.994053 
L 314.502307 193.345502 
L 314.739507 196.263622 
L 314.977825 194.205542 
L 315.221798 193.748761 
L 315.515565 197.064038 
L 315.994706 193.529237 
L 316.229508 193.053273 
L 316.477979 193.519051 
L 316.707552 193.251985 
L 316.947991 193.264508 
L 317.186041 190.991853 
L 317.601403 191.215934 
L 317.721248 193.914935 
L 318.14169 191.935634 
L 318.207171 195.107827 
L 318.439657 193.14244 
L 319.091834 193.365243 
L 319.270827 193.783145 
L 319.449551 193.110985 
L 319.688982 195.784127 
L 319.932083 195.221889 
L 320.168258 193.690666 
L 320.489863 194.737711 
L 320.879805 192.869265 
L 320.939453 193.845371 
L 321.178135 193.189942 
L 321.416486 193.384407 
L 321.657726 192.856158 
L 321.894005 193.320319 
L 322.132975 195.849708 
L 322.431746 191.79754 
L 322.809316 193.488044 
L 322.912833 192.140499 
L 323.145837 191.00066 
L 323.382974 194.955784 
L 323.800441 193.2964 
L 324.218448 193.378112 
L 324.398794 191.968132 
L 324.694573 193.080981 
L 324.949923 191.551987 
L 325.435758 194.130126 
L 325.656319 192.696066 
L 326.125419 193.098846 
L 326.362898 192.77233 
L 326.661765 193.350742 
L 326.905221 192.460218 
L 327.140237 192.161725 
L 327.378917 193.825155 
L 327.618004 193.186244 
L 327.863545 191.909848 
L 328.218592 194.642357 
L 328.660435 193.077809 
L 328.868968 193.172249 
L 329.347164 190.947155 
L 329.609418 191.658623 
L 329.822352 193.891292 
L 330.060978 194.040183 
L 330.300953 194.011053 
L 330.538426 192.649453 
L 330.955085 193.508631 
L 331.074928 194.160275 
L 331.373954 192.803218 
L 331.554316 193.34583 
L 331.798858 195.733399 
L 332.18227 191.932654 
L 332.295591 193.894885 
L 332.628794 192.984837 
L 332.92853 195.787185 
L 333.047548 192.917569 
L 333.463311 193.257384 
L 333.582644 193.049933 
L 333.76078 193.338711 
L 334.059047 194.240847 
L 334.357228 191.42497 
L 334.535941 192.892856 
L 334.77428 193.420722 
L 335.012937 193.027332 
L 335.252504 194.047019 
L 335.554682 192.194183 
L 335.729332 192.140045 
L 336.027717 194.094583 
L 336.230047 193.55 
L 336.503215 193.396439 
L 336.861694 191.326875 
L 337.001831 193.345905 
L 337.219706 193.345762 
L 337.457125 193.607306 
L 337.8742 193.161144 
L 337.992974 194.093077 
L 338.472551 192.565674 
L 338.710939 193.118755 
L 339.018781 192.791457 
L 339.247031 192.181749 
L 339.430905 194.699698 
L 339.722419 192.906313 
L 340.024042 192.922625 
L 340.260765 195.021913 
L 340.438197 192.246276 
L 340.684382 193.517655 
L 340.974023 194.016896 
L 341.271095 193.588257 
L 341.450051 192.976755 
L 341.689226 193.297796 
L 342.108412 193.615494 
L 342.168521 193.220798 
L 342.663131 193.390655 
L 342.88779 192.172892 
L 343.240908 193.41714 
L 343.4796 193.362265 
L 343.777128 192.87114 
L 344.194534 196.424611 
L 344.492704 192.673278 
L 344.910015 193.422203 
L 345.147753 195.862817 
L 345.50505 190.911672 
L 345.685682 193.692194 
L 345.98291 192.591296 
L 346.280825 193.633582 
L 346.400699 193.052315 
L 346.639131 191.163968 
L 346.995736 193.809383 
L 347.414796 193.521959 
L 347.829568 195.402672 
L 348.12766 192.090101 
L 348.366669 193.374473 
L 348.604642 193.112908 
L 348.90322 193.498862 
L 349.200866 193.345866 
L 349.328861 191.357001 
L 349.630876 193.33585 
L 349.867889 193.368116 
L 350.333064 191.191833 
L 350.75242 191.411932 
L 350.869846 193.946934 
L 351.051582 193.199688 
L 351.405524 193.516274 
L 351.704821 193.105356 
L 351.837621 192.481662 
L 352.257007 193.34582 
L 352.364255 192.265662 
L 352.602357 192.154191 
L 352.840931 193.6439 
L 353.085691 193.631023 
L 353.377361 193.309671 
L 353.556137 193.544702 
L 353.860873 192.754055 
L 354.102425 191.619138 
L 354.392014 195.423147 
L 354.513693 191.933129 
L 354.766606 193.117015 
L 355.053003 192.114007 
L 355.299174 193.432092 
L 355.524582 193.328477 
L 355.823137 192.912828 
L 356.061582 194.243588 
L 356.300154 193.485461 
L 356.587689 192.035751 
L 356.84103 195.788378 
L 357.060947 193.18856 
L 357.259503 193.651837 
L 357.553871 191.309958 
L 358.030653 193.268622 
L 358.268044 193.583639 
L 358.56667 192.996877 
L 358.745127 193.385829 
L 358.983198 193.009094 
L 359.281135 196.086315 
L 359.579082 193.506091 
L 359.758066 193.733432 
L 360.067986 191.370195 
L 360.299199 193.345873 
L 360.775144 193.261885 
L 360.950784 192.990892 
L 361.250702 193.345804 
L 361.485653 192.271245 
L 361.802473 192.154656 
L 361.965514 193.825701 
L 362.267185 191.580154 
L 362.56378 193.355986 
L 362.751305 193.046573 
L 362.98234 193.212069 
L 363.166856 193.935261 
L 363.459258 193.839356 
L 363.877807 196.285951 
L 363.998223 192.597154 
L 364.415589 193.60732 
L 364.652718 193.169625 
L 364.949815 191.449764 
L 365.192598 193.00605 
L 365.426635 193.07046 
L 365.665324 193.491164 
L 365.963078 193.122563 
L 366.499074 191.789393 
L 367.034543 193.640718 
L 367.57195 191.240134 
L 367.630692 197.583105 
L 367.993968 193.688082 
L 368.28706 192.894598 
L 368.34994 193.101089 
L 368.718009 193.149025 
L 368.883409 193.556319 
L 369.124034 192.264257 
L 369.478926 193.52144 
L 369.658682 193.368613 
L 369.962816 192.362291 
L 370.138563 196.168653 
L 370.373408 193.672356 
L 370.912759 193.558281 
L 371.091622 190.945834 
L 371.328585 191.243634 
L 371.60839 193.747839 
L 372.105007 193.345839 
L 372.343286 193.378422 
L 372.640846 191.261587 
L 372.820287 193.399319 
L 373.179091 192.930955 
L 373.41626 194.617562 
L 373.595093 193.924508 
L 373.952976 193.657179 
L 374.07202 192.586777 
L 374.31127 192.711359 
L 374.609038 192.504791 
L 374.846922 193.454178 
L 375.204302 193.506035 
L 375.382483 193.173683 
L 375.807796 193.381308 
L 376.038677 194.234887 
L 376.278435 192.253833 
L 376.575768 193.80633 
L 376.754142 192.999089 
L 377.052278 193.495702 
L 377.290691 193.357477 
L 377.528772 191.728649 
L 377.767672 193.546102 
L 378.00534 193.870997 
L 378.779468 191.296184 
L 379.079562 193.260445 
L 379.375279 193.524345 
L 379.619828 194.92979 
L 379.792441 191.638326 
L 380.209981 193.401276 
L 380.270583 193.223524 
L 380.509453 193.07724 
L 380.925624 193.379593 
L 381.045858 190.896271 
L 381.341659 195.003632 
L 381.521235 193.172566 
L 381.75906 193.244873 
L 381.998072 191.425777 
L 382.47424 193.404173 
L 382.716196 193.691474 
L 383.010909 193.214998 
L 383.48901 193.345917 
L 383.846639 193.345693 
L 383.964934 192.339973 
L 384.204218 193.676033 
L 384.503733 196.282696 
L 385.215894 193.434631 
L 385.594332 193.414753 
L 385.698914 193.17061 
L 385.931863 194.458775 
L 386.171585 191.684332 
L 386.469912 192.8293 
L 386.651787 193.564135 
L 387.065347 191.413512 
L 387.28895 194.853843 
L 387.423292 193.648786 
L 387.661107 193.643909 
L 387.899473 193.474241 
L 388.435672 193.702899 
L 388.794039 192.851805 
L 388.913053 191.677539 
L 389.211548 192.686612 
L 389.454942 192.961316 
L 389.688257 192.31323 
L 389.926507 193.037964 
L 390.106188 193.14875 
L 390.346918 193.578173 
L 390.643997 193.752718 
L 390.88036 193.547387 
L 391.118324 191.920141 
L 391.476629 193.389717 
L 391.65498 192.763385 
L 391.893379 193.164777 
L 392.131469 191.444353 
L 392.370282 193.37804 
L 392.669684 193.504763 
L 393.02718 192.871624 
L 393.266841 192.801148 
L 393.504623 195.559548 
L 393.623643 191.933364 
L 394.102249 193.84509 
L 394.347746 192.419428 
L 394.637806 191.945149 
L 394.878295 193.652021 
L 395.114141 193.872299 
L 395.413015 193.10701 
L 395.592605 193.585527 
L 395.891188 196.072156 
L 396.068844 192.171679 
L 396.307135 193.516084 
L 396.799916 192.965985 
L 396.843832 192.77019 
L 397.035122 195.320961 
L 397.271089 193.450796 
L 397.560051 193.012402 
L 398.040006 193.784514 
L 398.278812 192.63611 
L 398.585387 195.716 
L 398.813169 193.198147 
L 399.022604 193.71432 
L 399.29018 194.00408 
L 399.531917 196.032324 
L 399.770136 193.58963 
L 400.064061 193.662942 
L 400.304813 192.83003 
L 400.600723 193.186778 
L 400.781613 196.552428 
L 401.018391 196.096557 
L 401.257493 193.004909 
L 401.498301 193.253476 
L 401.855322 192.437618 
L 402.035863 196.457112 
L 402.274007 193.383927 
L 402.555498 193.306618 
L 402.872188 193.765993 
L 403.108135 191.948018 
L 403.227222 195.671665 
L 403.466513 195.95386 
L 403.763847 193.020291 
L 404.06342 193.155071 
L 404.243515 193.976803 
L 404.481874 192.581424 
L 404.780652 193.303346 
L 404.957902 193.065544 
L 405.257143 193.136388 
L 405.494709 194.071431 
L 405.733715 191.198258 
L 406.150189 193.345818 
L 406.22296 193.005374 
L 406.50908 193.429931 
L 406.699843 194.291875 
L 407.094257 191.854938 
L 407.222319 194.087016 
L 407.45226 193.368973 
L 407.75233 193.040811 
L 408.110181 193.129393 
L 408.171083 191.404516 
L 408.467786 193.813585 
L 408.705538 193.752964 
L 409.197164 193.345694 
L 409.60073 193.806242 
L 409.660698 193.639515 
L 409.959081 193.87105 
L 410.201427 193.285722 
L 410.442648 194.474353 
L 410.639771 192.56573 
L 410.914207 194.471843 
L 411.394451 193.197116 
L 411.691964 192.951505 
L 412.109225 193.400087 
L 412.168443 193.171181 
L 412.407931 194.085548 
L 412.764168 193.508555 
L 412.942779 191.96267 
L 413.125083 192.021417 
L 413.361577 191.674143 
L 413.600064 193.219991 
L 413.918937 193.358066 
L 414.139017 193.148096 
L 414.375515 194.908379 
L 414.612557 193.242199 
L 414.851628 193.473077 
L 415.149726 193.234987 
L 415.330749 193.679786 
L 415.863312 194.136164 
L 415.871824 175.615636 
L 416.106461 193.614219 
L 416.462714 191.547942 
L 416.642489 192.267849 
L 416.889627 192.338194 
L 417.121838 193.585728 
L 417.478478 193.630243 
L 417.598079 192.129522 
L 417.782821 193.564773 
L 418.07455 193.959044 
L 418.313208 193.345966 
L 418.552708 193.483852 
L 418.792555 193.921028 
L 419.212173 196.289263 
L 419.266786 191.377944 
L 419.625937 193.25061 
L 419.809527 193.089244 
L 420.04404 193.363823 
L 420.28297 193.412671 
L 420.702599 193.302404 
L 420.827577 192.366607 
L 421.082899 193.557063 
L 421.296666 191.558329 
L 421.54394 191.800637 
L 421.595588 194.00559 
L 421.83448 194.922842 
L 422.073909 193.339553 
L 422.256645 193.969461 
L 422.4934 193.238729 
L 422.788822 193.320362 
L 423.265582 196.542228 
L 423.74235 190.990705 
L 423.981822 190.792636 
L 424.541323 193.404825 
L 424.759483 193.507167 
L 424.995152 201.10361 
L 425.235023 203.615325 
L 425.480997 199.243233 
L 425.733157 197.919932 
L 425.965544 198.420651 
L 426.199397 197.501398 
L 426.458737 194.8918 
L 426.794478 193.810498 
L 427.101052 193.851688 
L 427.231531 193.27523 
L 427.759176 194.147278 
L 428.052108 193.466793 
L 428.172449 192.378192 
L 428.413673 191.972961 
L 428.836364 192.0602 
L 428.955581 194.183486 
L 429.18742 193.651836 
L 429.430516 192.680108 
L 429.801082 194.519571 
L 429.961842 194.746046 
L 430.264799 193.678919 
L 430.499653 193.39767 
L 430.737766 192.879863 
L 431.038223 194.408068 
L 431.277655 191.609659 
L 431.728635 194.233879 
L 431.879912 195.303724 
L 432.145195 194.169195 
L 432.416076 195.016183 
L 432.731349 193.420082 
L 432.896991 190.999811 
L 433.246954 192.649135 
L 433.451223 192.265808 
L 433.665146 192.563465 
L 433.964357 192.60127 
L 434.142742 195.092595 
L 434.381269 194.417738 
L 434.623103 195.131855 
L 435.098089 192.000973 
L 435.634082 194.197346 
L 435.899155 192.784391 
L 436.113881 193.378678 
L 436.519588 193.375337 
L 436.757143 193.949459 
L 436.944495 194.940777 
L 437.174898 190.453101 
L 437.472864 195.048901 
L 437.65321 193.617613 
L 437.831465 193.558733 
L 438.308241 192.202661 
L 438.667106 194.870256 
L 438.84864 194.49981 
L 439.203743 192.057 
L 439.32935 196.123629 
L 439.587684 195.074374 
L 439.860506 193.277964 
L 440.09899 193.464861 
L 440.341029 192.535815 
L 440.57698 194.205515 
L 440.819932 194.040624 
L 441.0549 194.237647 
L 441.293635 191.715708 
L 441.542392 193.408953 
L 441.775867 191.816172 
L 442.074838 194.572947 
L 442.262767 193.11852 
L 442.55229 192.855258 
L 442.790225 192.939597 
L 443.029689 192.413002 
L 443.445843 194.007432 
L 443.53362 193.190749 
L 443.80455 195.131498 
L 444.399442 193.112242 
L 444.57959 193.267467 
L 444.818019 191.447152 
L 445.063402 193.859064 
L 445.296153 193.588534 
L 445.476694 194.238162 
L 445.714857 195.529535 
L 445.964215 193.418107 
L 446.250673 194.291766 
L 446.502345 193.297068 
L 446.735599 191.347753 
L 447.107182 193.333741 
L 447.270302 191.733049 
L 447.446819 194.430571 
L 447.771866 194.675657 
L 447.982701 190.828735 
L 448.403106 193.644421 
L 448.484627 192.210195 
L 448.709369 193.733486 
L 448.938227 194.315126 
L 449.177353 192.177099 
L 449.598835 193.402127 
L 449.788248 195.214858 
L 450.024519 191.663805 
L 450.204405 191.337851 
L 450.621534 194.231512 
L 450.682193 192.216079 
L 451.100145 195.05503 
L 451.338457 194.155224 
L 451.399986 194.180066 
L 451.813746 191.30135 
L 451.933234 193.797731 
L 452.173271 192.725751 
L 452.410237 194.074276 
L 452.82738 192.759058 
L 452.946775 193.659283 
L 453.185812 192.651996 
L 453.484299 193.54148 
L 453.664483 192.742857 
L 453.901894 189.412048 
L 454.143047 194.033344 
L 454.618697 193.383437 
L 454.938383 193.232978 
L 455.098633 193.971225 
L 455.397176 191.364719 
L 455.635167 194.169906 
L 455.877511 193.076796 
L 456.173359 194.266284 
L 456.591861 191.105388 
L 456.890144 194.551542 
L 457.076637 192.837836 
L 457.486093 193.16193 
L 457.633251 194.268108 
L 457.847524 192.644925 
L 458.32148 193.064107 
L 458.808204 194.507234 
L 459.107177 192.027693 
L 459.348289 193.436943 
L 459.646853 192.744707 
L 459.881417 193.870135 
L 460.121119 192.88315 
L 460.300685 194.260954 
L 460.598908 194.73425 
L 461.234538 193.198047 
L 461.381927 194.282878 
L 461.558545 192.551097 
L 461.949202 194.086025 
L 462.091757 193.778238 
L 462.398666 193.399464 
L 462.816983 194.042687 
L 463.179961 194.121229 
L 463.28692 194.651467 
L 463.530871 194.727468 
L 463.765835 192.701687 
L 464.072889 192.426874 
L 464.320637 193.313459 
L 464.544218 191.615327 
L 464.781239 193.593488 
L 465.027317 192.035023 
L 465.319515 192.342356 
L 465.502724 195.294323 
L 466.094286 193.520789 
L 466.273686 194.37422 
L 466.691576 192.788716 
L 467.037735 194.56709 
L 467.505697 192.104225 
L 467.807763 195.746176 
L 467.992368 192.019475 
L 468.282927 192.608967 
L 468.587327 194.287866 
L 468.763154 192.696084 
L 468.953042 192.09546 
L 469.239085 194.145637 
L 469.477959 194.376029 
L 469.716829 192.023466 
L 469.954561 191.865758 
L 470.193432 194.281316 
L 470.432962 190.784144 
L 470.849958 191.913358 
L 470.999092 195.493975 
L 471.387446 192.410976 
L 471.506328 194.866306 
L 471.744903 192.815272 
L 471.983362 195.395678 
L 472.281026 192.768063 
L 472.413238 193.766875 
L 472.672721 194.498618 
L 472.942737 191.890772 
L 473.237728 193.136596 
L 473.436374 192.240104 
L 473.896837 194.003252 
L 474.434755 194.007303 
L 474.670358 192.150292 
L 474.93836 194.418554 
L 475.749702 192.274979 
L 476.17761 194.702837 
L 476.433657 192.44892 
L 476.724539 193.769249 
L 476.846124 192.327456 
L 477.138377 193.880474 
L 477.436678 193.511664 
L 477.734773 193.661607 
L 477.854287 194.326755 
L 478.152176 193.427652 
L 478.398605 191.322862 
L 478.868384 193.981502 
L 479.108222 194.420439 
L 479.644856 192.993733 
L 479.885479 192.74559 
L 480.120828 193.414319 
L 480.359199 193.531534 
L 480.598725 193.887785 
L 480.844014 193.339925 
L 481.314748 193.852868 
L 481.674954 193.359856 
L 481.852016 192.356739 
L 482.092838 194.089619 
L 482.925677 192.886789 
L 483.177819 194.307181 
L 483.344272 193.650638 
L 483.642591 194.428175 
L 483.880396 192.702154 
L 484.118891 193.768782 
L 484.321353 193.900802 
L 484.537252 195.043192 
L 484.839118 194.896443 
L 485.132073 195.225079 
L 485.378852 193.515584 
L 485.550787 194.071684 
L 485.791706 193.36371 
L 486.027845 193.017821 
L 486.343305 194.452865 
L 486.522284 194.08167 
L 486.760428 195.553567 
L 487.238515 195.191429 
L 487.29849 193.550548 
L 487.59631 194.468945 
L 487.778709 194.052809 
L 488.018138 193.785223 
L 488.251803 193.789998 
L 488.730142 190.89114 
L 489.029062 194.166122 
L 489.325562 193.299072 
L 489.504111 194.065835 
L 489.806894 194.540169 
L 490.044836 194.233323 
L 490.281663 191.805932 
L 490.568581 193.29953 
L 490.759547 193.592479 
L 490.96493 192.858084 
L 491.240308 193.402551 
L 491.584791 195.279875 
L 491.782384 193.045657 
L 492.022035 193.188153 
L 492.259152 194.065463 
L 492.498084 190.859273 
L 492.737063 193.835284 
L 492.974913 194.14588 
L 493.213871 193.438021 
L 493.455108 194.164988 
L 493.750988 192.736388 
L 494.246704 194.08718 
L 494.287781 194.669165 
L 494.466584 194.929841 
L 494.767831 191.684885 
L 495.063455 194.162263 
L 495.241894 193.624388 
L 495.722548 193.73639 
L 495.780352 192.680518 
L 495.958619 192.613651 
L 496.203305 194.181229 
L 496.688782 193.937636 
L 496.91341 195.681548 
L 497.152993 193.339953 
L 497.510055 192.871219 
L 497.688907 194.491211 
L 497.867388 192.060587 
L 498.287595 195.007013 
L 498.345069 193.407325 
L 498.706986 193.759676 
L 498.949207 192.748183 
L 499.185459 194.043888 
L 499.41975 193.787251 
L 499.657768 194.219858 
L 499.903543 195.823064 
L 500.207372 193.357748 
L 500.384257 193.829847 
L 500.630807 194.165667 
L 500.868873 194.214817 
L 501.112834 193.60483 
L 501.345532 194.259039 
L 501.643394 192.122284 
L 501.827858 195.344843 
L 502.122693 192.2664 
L 502.424592 194.871021 
L 502.65736 191.683584 
L 502.912868 192.423054 
L 503.136012 196.276353 
L 503.559477 192.472886 
L 503.61223 194.836051 
L 503.85067 192.475634 
L 504.569776 195.557068 
L 505.064641 193.542755 
L 505.369257 194.134665 
L 505.58343 192.761727 
L 506.06122 194.245101 
L 506.300427 193.22326 
L 506.540169 195.235528 
L 506.852163 192.40896 
L 507.256581 195.218718 
L 507.31785 194.163416 
L 507.553063 194.855025 
L 508.03587 193.717441 
L 508.209039 193.855567 
L 508.528018 194.804583 
L 508.885369 193.984927 
L 509.105985 194.006063 
L 509.327672 194.791868 
L 509.555939 193.694655 
L 510.037742 192.742036 
L 510.400013 194.607428 
L 510.559712 194.225177 
L 510.797028 195.118612 
L 511.340183 194.667453 
L 511.515701 195.144701 
L 511.810668 196.830995 
L 512.117989 193.609855 
L 512.290623 193.336423 
L 512.589208 195.007266 
L 512.767601 193.945896 
L 513.025949 194.07307 
L 513.362767 195.402686 
L 513.49754 193.224236 
L 513.779272 194.763996 
L 514.077099 189.996383 
L 514.259399 191.922939 
L 514.496964 190.293358 
L 514.752703 192.634998 
L 515.03257 191.206811 
L 515.51118 193.138276 
L 515.754742 191.243572 
L 516.001238 193.917821 
L 516.28825 194.177518 
L 516.465432 194.757362 
L 516.904123 194.824773 
L 517.135326 194.513798 
L 517.481211 194.9477 
L 517.768534 194.535332 
L 518.018279 194.554156 
L 518.5543 194.313418 
L 518.913059 194.351619 
L 519.040927 194.208894 
L 519.451688 194.35178 
L 520.646156 194.425087 
L 522.804201 194.407569 
L 522.922439 194.24675 
L 523.170917 194.435078 
L 524.301954 194.432329 
L 525.258621 194.419264 
L 525.913162 194.427489 
L 526.577196 194.405425 
L 526.87331 194.313415 
L 527.107649 194.525408 
L 527.583954 194.425176 
L 528.088503 194.451778 
L 537.263401 194.426685 
L 590.140313 194.425821 
L 590.140313 194.425821 
" clip-path="url(#p7a45a3a7c2)" style="fill: none; stroke: #0000ff; stroke-opacity: 0.5; stroke-width: 1.5; stroke-linecap: square"/>
   </g>
   <g id="line2d_30">
    <path d="M 32.140313 220.581927 
L 32.260416 201.298467 
L 32.503304 211.260291 
L 32.5745 219.052223 
L 32.748517 208.393293 
L 33.054561 214.258272 
L 33.345096 210.850037 
L 33.940291 218.469185 
L 34.179346 214.342819 
L 34.239045 220.156049 
L 34.656384 222.374647 
L 34.894659 221.736639 
L 35.014314 224.425559 
L 35.196698 225.488245 
L 35.670907 229.124449 
L 35.967083 223.829586 
L 36.266372 219.257133 
L 36.565555 222.058057 
L 36.801595 211.637324 
L 37.115218 223.800058 
L 37.219399 221.962986 
L 37.457383 214.701553 
L 37.697946 217.112976 
L 37.938435 214.951453 
L 38.236853 223.934542 
L 38.471547 216.032634 
L 38.70973 216.913276 
L 39.008549 219.062022 
L 39.307485 228.57908 
L 39.494512 219.002309 
L 39.812296 218.746122 
L 39.966387 213.778979 
L 40.204549 221.667537 
L 40.862256 213.760627 
L 41.158873 220.699162 
L 41.403681 227.232618 
L 41.640993 217.842587 
L 41.881665 221.544423 
L 42.174413 221.848777 
L 42.77819 223.560634 
L 44.079313 225.28364 
L 45.384296 219.282955 
L 46.688449 214.899532 
L 47.994112 216.948294 
L 49.298621 220.719188 
L 50.722905 224.369651 
L 52.14611 216.894985 
L 53.451293 217.416614 
L 53.591898 222.636453 
L 54.067819 208.505151 
L 54.306655 208.478992 
L 54.603691 222.442898 
L 54.903392 224.183862 
L 55.082802 219.196662 
L 55.319405 230.28774 
L 55.741906 209.039721 
L 56.0415 224.494125 
L 56.573769 219.58893 
L 56.75367 228.987728 
L 56.993866 225.549486 
L 57.290431 211.393927 
L 57.768474 221.23975 
L 58.064149 220.329504 
L 58.36308 227.158849 
L 58.482261 215.654589 
L 58.721276 218.994969 
L 58.961335 235.740308 
L 59.273708 231.669769 
L 59.497757 223.942764 
L 59.746013 234.4275 
L 60.215694 219.909961 
L 60.572028 235.64032 
L 60.750248 228.0056 
L 61.051876 228.57078 
L 61.226386 229.796985 
L 61.466678 215.48825 
L 61.762805 210.291945 
L 62.421171 235.558538 
L 62.96134 211.409067 
L 63.493016 226.674332 
L 63.733151 214.686678 
L 63.976034 221.883953 
L 64.160848 239.869994 
L 64.930181 213.772851 
L 65.050707 218.993002 
L 65.707736 227.79086 
L 66.002271 221.212149 
L 66.420136 227.979166 
L 67.079511 210.067366 
L 67.374773 215.89902 
L 67.433733 220.941125 
L 67.672356 223.709571 
L 68.149877 211.758914 
L 68.447276 217.304808 
L 68.74506 212.693336 
L 68.987539 213.393134 
L 69.354232 231.693457 
L 69.401301 228.431618 
L 69.64055 228.673756 
L 70.116759 219.754494 
L 70.417336 233.796258 
L 70.652368 231.285179 
L 70.849156 223.904857 
L 71.130491 234.118652 
L 71.368623 230.071947 
L 71.665909 212.186477 
L 71.845834 213.787051 
L 72.083203 223.545003 
L 72.38166 227.258997 
L 72.621779 228.836899 
L 72.858895 216.614288 
L 73.09869 220.835635 
L 73.336516 219.642215 
L 73.574 210.934968 
L 73.933629 214.2248 
L 74.12469 234.679328 
L 74.349816 237.888444 
L 74.588354 221.334885 
L 74.830265 214.867602 
L 75.303153 221.905691 
L 75.422818 218.803737 
L 75.550599 209.568027 
L 75.788722 228.105682 
L 76.078528 239.480396 
L 76.496906 208.134231 
L 76.853247 211.51851 
L 77.031899 222.144499 
L 77.510114 202.212422 
L 78.048518 228.146187 
L 78.343652 218.061029 
L 78.521766 206.512537 
L 78.761397 209.607455 
L 78.998788 220.434328 
L 79.476273 222.485677 
L 79.845389 225.339578 
L 80.072023 221.958035 
L 80.530625 204.760401 
L 80.966541 231.527181 
L 81.265122 229.884285 
L 81.741008 207.309261 
L 82.04075 209.701275 
L 82.224265 219.705223 
L 82.63772 225.357751 
L 82.755731 230.267503 
L 83.173932 238.281849 
L 83.546261 232.424858 
L 83.718712 220.756317 
L 84.186037 223.31825 
L 84.305547 229.840505 
L 84.543172 232.17639 
L 84.782008 230.471142 
L 84.901284 227.412194 
L 85.318863 224.341631 
L 85.439328 221.776037 
L 85.973647 226.315305 
L 86.152383 225.129715 
L 86.391669 220.430966 
L 86.628765 209.959877 
L 86.927314 203.506482 
L 87.127254 205.991308 
L 87.463784 215.63772 
L 87.642367 211.96086 
L 87.942829 196.335198 
L 88.178787 192.793489 
L 88.479615 207.847068 
L 88.656957 224.196907 
L 88.894997 229.557788 
L 89.136453 229.104695 
L 89.52933 226.565545 
L 89.701857 227.035002 
L 90.210599 220.334207 
L 90.33225 241.40337 
L 90.627249 242.387795 
L 91.12736 208.986671 
L 91.417413 211.526889 
L 91.840231 233.363272 
L 92.355029 217.71209 
L 92.663098 228.278234 
L 92.962953 224.822117 
L 93.21916 211.707344 
L 93.433165 208.451798 
L 94.163744 224.945673 
L 95.505901 211.239017 
L 96.803142 216.00482 
L 98.231861 216.361556 
L 98.311059 228.252978 
L 98.72905 203.515757 
L 99.091612 203.430752 
L 99.942917 221.641333 
L 100.326145 190.89551 
L 100.492994 175.942446 
L 100.727468 171.816993 
L 101.025498 179.319201 
L 101.325668 197.839729 
L 101.502474 218.591964 
L 101.802034 233.159805 
L 101.985306 233.13267 
L 102.540233 216.295091 
L 102.755395 218.877423 
L 103.114866 235.48971 
L 103.233772 251.034154 
L 103.530292 248.803245 
L 103.829761 229.746768 
L 104.191704 190.659324 
L 104.432586 185.595868 
L 104.689594 196.721376 
L 104.92847 213.151629 
L 105.214519 214.03598 
L 105.449508 202.443839 
L 105.687228 196.639766 
L 105.927019 205.935977 
L 106.168076 221.091758 
L 106.430067 227.313016 
L 106.962636 228.568813 
L 107.178644 217.006806 
L 107.425785 219.505047 
L 107.96896 242.568565 
L 108.178044 236.585569 
L 108.673551 214.39903 
L 108.951319 224.755105 
L 109.639565 238.298184 
L 110.113291 206.491796 
L 110.420405 209.668226 
L 110.768396 209.966399 
L 110.886904 209.006316 
L 111.125243 211.928302 
L 111.363595 211.999268 
L 111.661639 210.323538 
L 111.843756 212.24232 
L 112.565524 232.431474 
L 112.926999 228.20057 
L 113.160978 223.672786 
L 113.458694 234.198127 
L 113.582678 242.567289 
L 114.244007 221.866965 
L 114.5606 251.871909 
L 114.831601 249.996167 
L 115.070886 228.229556 
L 115.308688 217.704129 
L 115.787315 226.632215 
L 116.262296 225.793838 
L 116.328025 234.189346 
L 116.573462 233.564386 
L 116.798422 217.368415 
L 117.226811 195.991788 
L 117.33498 197.745245 
L 117.811529 222.477906 
L 117.99319 219.345566 
L 118.287729 219.42193 
L 118.586634 216.371301 
L 118.76759 204.279877 
L 119.064731 198.600826 
L 119.302806 202.980457 
L 119.495102 218.854745 
L 119.785222 224.856973 
L 120.028396 216.615315 
L 120.265168 213.362004 
L 120.49819 216.860417 
L 120.738598 216.98495 
L 121.034974 214.57033 
L 121.392655 213.794772 
L 121.75016 228.326949 
L 122.108107 231.209886 
L 122.227702 229.614231 
L 122.465751 229.344745 
L 122.764971 227.269168 
L 123.061124 228.175712 
L 123.358796 229.877948 
L 123.481512 233.756044 
L 123.718465 235.432978 
L 123.956408 229.697554 
L 124.432582 212.848108 
L 124.731646 212.247325 
L 125.208061 217.695276 
L 125.708499 210.404068 
L 125.926155 211.76106 
L 126.167523 214.086502 
L 126.415946 219.241114 
L 126.906634 241.286104 
L 127.237391 233.325123 
L 127.418743 221.628025 
L 127.685942 227.685572 
L 127.91139 237.761787 
L 128.149173 229.360431 
L 128.390036 212.170392 
L 128.625669 215.779501 
L 128.937299 231.869612 
L 129.162063 233.497022 
L 129.399844 217.669265 
L 129.699097 206.646331 
L 129.937414 209.966196 
L 130.175147 215.332607 
L 130.534909 206.897745 
L 130.782196 204.242647 
L 131.133599 226.030996 
L 131.367421 227.245483 
L 131.875346 211.750257 
L 132.100256 215.415097 
L 132.459019 223.807837 
L 132.67823 222.359608 
L 132.97878 219.546108 
L 133.155995 216.329266 
L 133.633954 211.837368 
L 133.87163 214.032 
L 134.364623 240.897885 
L 134.649402 246.015132 
L 134.829554 233.498837 
L 135.321084 220.868982 
L 135.561688 242.643334 
L 135.857816 252.197275 
L 136.097847 248.476217 
L 136.572884 210.825557 
L 136.811457 204.044557 
L 137.108679 215.021983 
L 137.295106 233.495873 
L 137.766235 245.172888 
L 138.003165 239.708045 
L 138.063545 226.540622 
L 138.302521 219.640407 
L 138.540159 222.471412 
L 139.016875 243.767201 
L 139.316551 237.711343 
L 139.680343 217.396178 
L 139.79121 204.203998 
L 140.089465 210.292753 
L 140.522304 240.868689 
L 140.75126 234.923743 
L 141.044501 221.660781 
L 141.282395 217.363129 
L 142.05632 236.641673 
L 142.235917 228.910927 
L 142.713512 222.010644 
L 143.250749 226.646306 
L 143.667272 226.471878 
L 143.727194 216.256439 
L 144.084081 201.878547 
L 144.203471 202.732258 
L 144.56061 213.778373 
L 144.991383 215.418422 
L 145.3405 193.327471 
L 145.513506 195.480962 
L 146.170325 240.437426 
L 146.469611 247.166819 
L 146.526081 245.966182 
L 146.826065 236.642104 
L 146.946731 224.909652 
L 147.18318 229.606678 
L 147.557896 248.030092 
L 147.720028 247.249944 
L 147.956751 226.375782 
L 148.254756 211.959852 
L 148.434909 209.133376 
L 148.67152 216.498743 
L 149.210279 244.947019 
L 149.56939 251.459039 
L 149.926371 229.70527 
L 150.23535 228.891648 
L 150.700434 253.549776 
L 150.882422 253.174961 
L 151.713311 199.479516 
L 152.131469 196.653229 
L 152.370451 221.078834 
L 152.666459 231.973673 
L 152.906497 226.116443 
L 153.44687 194.649639 
L 153.621924 190.891976 
L 154.398788 227.50684 
L 154.873501 191.206507 
L 155.110701 189.7303 
L 155.353534 204.081012 
L 155.832491 245.823071 
L 156.067618 254.722753 
L 156.365929 243.71426 
L 156.607624 228.629234 
L 156.84958 226.220735 
L 157.320054 257.306627 
L 157.560213 247.872216 
L 158.034751 216.010707 
L 158.393499 217.303819 
L 158.63048 221.162502 
L 159.047663 230.440802 
L 159.28704 225.644558 
L 159.526546 213.623864 
L 159.764182 209.941871 
L 160.298725 224.648313 
L 160.835331 204.830464 
L 161.074063 207.532015 
L 161.55205 228.538037 
L 161.790008 230.898134 
L 162.028927 231.524251 
L 162.27046 230.351429 
L 162.505209 232.609336 
L 162.802979 230.929906 
L 163.166836 226.297656 
L 163.519082 215.719051 
L 163.840609 215.915905 
L 164.236018 223.718772 
L 164.475469 221.348865 
L 165.069618 212.855174 
L 165.784368 222.531259 
L 166.023762 224.921281 
L 166.207375 222.584372 
L 166.743848 208.7869 
L 167.344888 221.037195 
L 167.45527 212.327593 
L 167.795809 206.368866 
L 167.952087 224.490019 
L 168.173283 240.731309 
L 168.55145 235.013002 
L 168.711434 217.95138 
L 168.948043 212.566396 
L 169.424624 230.465244 
L 169.961155 219.052286 
L 170.217202 232.53117 
L 170.559667 229.812013 
L 170.687123 212.070058 
L 170.974215 200.634253 
L 171.285899 204.2222 
L 171.393213 216.881017 
L 171.74865 223.510302 
L 172.166278 212.033443 
L 172.65986 208.336746 
L 172.881454 203.830794 
L 173.837319 254.039826 
L 174.192224 226.99462 
L 174.402452 228.256398 
L 174.641626 241.867835 
L 174.874754 243.809851 
L 175.113153 236.803196 
L 175.354275 233.897777 
L 175.589698 235.629706 
L 175.949357 230.94379 
L 176.494142 221.510321 
L 176.609683 224.964085 
L 176.847717 225.685525 
L 177.343524 229.025718 
L 177.645736 227.038237 
L 178.118342 212.476455 
L 178.504163 216.55926 
L 178.59951 227.246941 
L 178.851805 235.23876 
L 179.093712 234.233567 
L 179.43122 222.055637 
L 179.551524 211.956804 
L 179.848239 220.10117 
L 180.087596 231.675402 
L 180.325566 228.949294 
L 180.563712 211.365005 
L 180.820926 201.058048 
L 182.29192 210.88632 
L 182.768574 212.740878 
L 183.245868 212.339575 
L 183.602426 198.160505 
L 183.840886 206.622635 
L 184.02086 226.359148 
L 184.317285 241.13815 
L 184.506936 238.600177 
L 184.795101 227.6563 
L 185.034127 224.860489 
L 185.584366 258.557844 
L 185.754673 263.562286 
L 185.993979 250.215065 
L 186.47252 209.290245 
L 186.710166 209.208623 
L 186.95296 224.012649 
L 187.246241 232.510305 
L 187.543327 224.757741 
L 187.724616 214.134362 
L 188.078725 215.201004 
L 188.258923 216.423972 
L 188.556955 214.415808 
L 188.797234 222.471344 
L 189.211742 240.955468 
L 189.450228 226.547519 
L 189.688262 222.489616 
L 189.985774 234.034463 
L 190.169694 229.186524 
L 190.462416 216.759452 
L 190.704003 222.228615 
L 190.940244 243.071725 
L 191.178168 243.149473 
L 191.420626 224.426611 
L 191.658722 217.247805 
L 191.915785 228.026744 
L 192.252478 223.737658 
L 192.495245 217.393829 
L 192.673459 236.286477 
L 192.966422 246.800733 
L 193.264667 234.109699 
L 193.392781 215.306592 
L 193.674906 220.183373 
L 193.925999 233.510429 
L 194.160574 227.605586 
L 194.40092 211.683004 
L 194.890264 241.02126 
L 195.239562 237.15003 
L 195.419353 224.752136 
L 195.657872 219.111935 
L 196.372173 229.122363 
L 196.614569 228.640944 
L 196.908944 230.082643 
L 197.384839 224.23485 
L 197.623773 223.11085 
L 197.985006 223.200304 
L 198.100225 223.912038 
L 198.457221 218.525846 
L 198.817509 209.501828 
L 199.112665 221.654035 
L 199.360548 237.53822 
L 199.829534 231.577663 
L 200.089848 209.188493 
L 200.903995 248.873162 
L 201.080769 243.057416 
L 201.560416 224.807673 
L 202.215656 216.722445 
L 202.572703 228.268471 
L 202.810323 228.572413 
L 203.238443 225.765754 
L 203.468321 219.804646 
L 203.587817 220.773885 
L 203.827094 230.678323 
L 204.063183 235.440841 
L 204.777894 223.193664 
L 205.016098 215.156167 
L 205.314986 215.677365 
L 205.512219 226.650889 
L 205.970813 241.640678 
L 206.031238 248.453954 
L 206.268654 242.097693 
L 206.507617 226.731142 
L 206.805789 219.136891 
L 207.043339 226.04525 
L 207.462239 243.245194 
L 207.758564 234.289325 
L 208.475313 185.846402 
L 208.713549 184.638563 
L 209.01257 198.700946 
L 209.192242 219.966345 
L 209.488828 235.051988 
L 209.727167 234.099267 
L 210.21751 207.331996 
L 210.448923 207.838527 
L 211.277134 252.477198 
L 211.515273 253.104843 
L 212.230764 210.992056 
L 212.414473 207.455505 
L 212.903531 210.63347 
L 212.94518 214.095417 
L 213.188899 212.456884 
L 213.436806 206.441256 
L 213.68185 205.630724 
L 213.96737 211.828144 
L 214.4997 231.930869 
L 214.975671 236.293969 
L 215.152996 239.667433 
L 215.63072 244.067779 
L 215.692681 251.180924 
L 215.929644 254.319412 
L 216.167769 254.600165 
L 216.409036 242.120366 
L 216.885976 210.443685 
L 217.191757 210.958662 
L 217.369551 219.132097 
L 217.685713 224.211399 
L 218.135976 221.351382 
L 218.614117 226.00652 
L 218.911855 230.524311 
L 219.151456 237.479663 
L 219.38853 237.936262 
L 219.626289 237.457721 
L 219.864317 236.717128 
L 220.163041 239.867242 
L 220.344852 243.318981 
L 220.641647 235.22165 
L 221.354893 198.438244 
L 221.594397 191.103631 
L 221.831651 194.708207 
L 222.849207 231.333961 
L 223.145121 236.460791 
L 223.50416 233.788172 
L 223.636128 231.671108 
L 223.810569 231.333872 
L 224.343439 220.87486 
L 224.582601 208.124783 
L 225.301219 186.544657 
L 225.774325 185.139197 
L 226.072009 192.994145 
L 226.553484 197.470593 
L 226.845951 202.365703 
L 227.264162 221.318288 
L 227.502067 222.999101 
L 227.801173 218.246955 
L 228.097371 207.10208 
L 228.514977 183.376443 
L 228.75348 174.924303 
L 229.070165 170.738298 
L 229.36445 170.408356 
L 229.721979 165.500889 
L 230.258787 153.374889 
L 230.557339 152.139669 
L 230.795324 150.187615 
L 231.033203 149.661614 
L 231.332523 145.708045 
L 231.512402 147.49203 
L 232.226764 137.268063 
L 232.465955 142.919644 
L 233.186582 188.136311 
L 233.478279 196.759319 
L 233.660737 207.838205 
L 233.954681 206.420999 
L 234.252051 207.292919 
L 235.027384 182.187536 
L 235.444132 162.137457 
L 235.682396 151.055182 
L 235.981562 146.319857 
L 236.279246 138.566921 
L 236.577343 137.119878 
L 236.756315 137.458816 
L 237.05356 144.607433 
L 237.176921 160.090909 
L 237.474062 168.253171 
L 237.709175 171.220912 
L 237.891067 170.725171 
L 238.169337 173.587535 
L 238.397599 171.824851 
L 238.636284 172.252006 
L 239.141369 165.467798 
L 239.379322 152.198582 
L 239.840226 136.024244 
L 240.098316 118.452546 
L 240.392294 117.569952 
L 240.631739 108.663909 
L 240.869763 108.241067 
L 241.107026 107.549772 
L 241.345576 111.749027 
L 241.762828 122.992163 
L 242.180755 156.06793 
L 242.486189 157.970007 
L 243.168317 131.230213 
L 243.55472 122.36861 
L 243.814282 126.721755 
L 244.092059 123.498258 
L 244.33058 117.785092 
L 244.808656 100.439068 
L 245.104217 100.378427 
L 245.343396 105.945676 
L 245.881365 127.372011 
L 246.063258 141.547379 
L 246.29821 145.527331 
L 246.774928 157.198382 
L 247.074762 158.696894 
L 247.370322 150.696257 
L 248.027853 122.272988 
L 248.267448 112.20558 
L 248.503671 97.198031 
L 249.27868 70.095854 
L 249.339831 64.563901 
L 249.516736 64.727497 
L 249.9945 86.276071 
L 250.234213 97.477701 
L 251.24816 131.023746 
L 251.485551 133.866417 
L 252.214731 119.244661 
L 252.497325 119.607218 
L 252.795714 125.298004 
L 253.125417 127.684446 
L 253.513527 138.760791 
L 253.810733 142.580011 
L 253.931947 149.977004 
L 254.586829 166.883927 
L 254.960462 154.850978 
L 255.127567 142.02684 
L 255.240305 123.480904 
L 255.613246 115.523055 
L 255.724063 105.611168 
L 256.19372 96.727065 
L 256.789273 89.11333 
L 256.968337 85.054069 
L 257.3852 97.709463 
L 257.742897 125.464107 
L 258.280703 138.281738 
L 258.519461 134.427054 
L 258.937027 115.993185 
L 259.352273 105.267076 
L 259.593112 107.89422 
L 260.962329 89.475758 
L 261.397353 106.623617 
L 261.737001 122.169602 
L 262.170291 129.30042 
L 262.394273 127.749764 
L 263.168133 102.007382 
L 263.524878 98.042252 
L 263.882632 87.329613 
L 264.299466 85.321391 
L 264.3605 81.622008 
L 264.597897 78.06303 
L 264.956088 78.757099 
L 265.373312 87.612651 
L 265.612533 95.985067 
L 266.326923 107.865583 
L 266.81283 101.153312 
L 267.101689 105.567992 
L 267.280816 103.982588 
L 267.606951 103.972391 
L 267.856872 101.637247 
L 268.295763 99.659888 
L 268.483061 96.919004 
L 268.675147 90.146681 
L 268.951074 90.421576 
L 269.075351 85.342907 
L 269.429128 87.867139 
L 269.55089 87.052094 
L 269.84571 92.01323 
L 270.031289 93.212155 
L 270.449826 97.903351 
L 270.686578 99.080264 
L 270.799583 98.773997 
L 271.227969 101.603595 
L 271.416575 99.218425 
L 271.576541 101.579891 
L 271.75803 95.343101 
L 272.261991 87.676657 
L 272.593247 89.135376 
L 273.068673 101.114381 
L 273.724459 121.078904 
L 274.022425 123.8332 
L 274.617965 114.947941 
L 274.7976 106.079456 
L 275.094642 97.497023 
L 275.231571 85.577467 
L 275.511428 84.189824 
L 275.694115 76.675881 
L 275.751157 76.989585 
L 275.988981 73.827766 
L 276.171231 72.890374 
L 276.465935 78.294557 
L 277.30182 105.884504 
L 277.599417 106.543753 
L 277.726347 105.676553 
L 278.493901 116.459918 
L 278.913757 116.494422 
L 279.327936 110.64847 
L 279.448279 102.493564 
L 279.929695 95.636295 
L 280.406913 94.299596 
L 280.899921 97.859047 
L 281.48009 92.041599 
L 281.662009 87.953604 
L 281.896875 92.51872 
L 282.373719 112.967014 
L 282.672546 116.737354 
L 282.87827 113.611926 
L 283.092569 100.091764 
L 283.448648 92.4148 
L 283.865204 91.100941 
L 283.985133 85.704923 
L 284.103379 87.617975 
L 284.520863 89.39142 
L 284.586255 94.18939 
L 284.862988 93.1408 
L 285.133028 93.679427 
L 285.317336 98.220944 
L 285.77215 103.729888 
L 285.832476 105.820072 
L 286.368448 110.530021 
L 286.606782 118.254835 
L 287.142483 120.197719 
L 287.326559 115.598266 
L 287.561729 105.497878 
L 288.104074 95.995715 
L 288.336497 99.600827 
L 288.811161 117.79273 
L 289.0502 121.591313 
L 289.354731 119.948401 
L 289.585603 112.997197 
L 289.83192 108.933043 
L 290.063872 109.521101 
L 290.245131 111.787388 
L 291.076474 124.459514 
L 291.257943 124.667476 
L 291.567388 123.763227 
L 291.732865 122.089108 
L 291.972965 112.695267 
L 292.270209 110.963789 
L 292.507736 117.311097 
L 292.745936 132.919231 
L 293.24405 136.89453 
L 294.237666 94.53279 
L 294.491675 101.396768 
L 294.717265 112.024374 
L 295.131549 123.428271 
L 295.250828 123.561947 
L 295.548755 122.749282 
L 296.085114 125.354722 
L 296.263899 126.718407 
L 296.44426 124.485751 
L 296.681386 129.989048 
L 296.978824 131.763428 
L 297.18253 125.821614 
L 297.463618 122.828676 
L 297.756611 122.225783 
L 298.233173 118.986455 
L 298.59037 125.475841 
L 298.889732 127.554593 
L 298.94823 125.190467 
L 299.186102 122.218704 
L 299.483957 128.205939 
L 299.66656 125.732473 
L 300.022783 129.351537 
L 300.199527 132.810743 
L 300.439009 135.207283 
L 300.919244 151.097354 
L 301.294228 161.649311 
L 301.537546 173.309829 
L 301.705471 176.029508 
L 301.936626 174.586604 
L 302.724234 146.819247 
L 303.092979 112.844447 
L 303.567811 101.064374 
L 303.639314 89.304888 
L 303.92671 87.291647 
L 304.164771 91.132291 
L 304.345503 102.998206 
L 304.701274 114.998118 
L 304.880211 116.529467 
L 305.249083 126.962674 
L 305.655187 145.748644 
L 306.370477 169.386047 
L 306.727724 171.323291 
L 306.850138 144.972999 
L 307.205773 109.774776 
L 307.621794 23.013332 
L 307.873278 6.050769 
L 308.21765 14.341079 
L 308.339314 37.957934 
L 308.576388 59.558153 
L 308.875217 73.339603 
L 309.231579 78.219456 
L 310.089534 195.289706 
L 310.332804 189.76372 
L 310.633065 149.425883 
L 310.747527 99.159919 
L 311.048395 54.560328 
L 311.400781 25.408681 
L 311.817602 8.600901 
L 311.996689 12.770864 
L 312.356427 31.235408 
L 313.13539 162.287123 
L 313.252365 197.38236 
L 313.547978 215.785986 
L 313.78576 219.780528 
L 313.965634 218.241319 
L 314.262231 216.787343 
L 314.502307 209.771516 
L 314.739507 195.220348 
L 315.221798 144.943684 
L 315.515565 128.046966 
L 315.755115 127.554383 
L 316.707552 192.277987 
L 317.721248 209.319037 
L 318.14169 205.412688 
L 318.207171 193.10583 
L 318.735586 145.379595 
L 319.270827 106.958885 
L 319.449551 92.600274 
L 319.688982 83.053222 
L 319.932083 81.764541 
L 320.489863 109.626392 
L 320.879805 130.417285 
L 320.939453 153.469091 
L 321.894005 243.733235 
L 322.132975 253.247493 
L 322.431746 251.763039 
L 322.809316 237.457291 
L 322.912833 212.000801 
L 323.382974 159.109517 
L 323.800441 134.109119 
L 323.919764 115.600386 
L 324.398794 96.414052 
L 324.694573 99.283586 
L 324.949923 106.152971 
L 325.435758 134.43873 
L 325.886163 161.022858 
L 326.125419 169.605315 
L 326.362898 174.053788 
L 326.661765 176.288486 
L 326.905221 173.479229 
L 327.618004 149.69791 
L 327.863545 147.09806 
L 328.218592 147.382024 
L 329.107151 181.952195 
L 329.609418 193.712041 
L 329.822352 195.872193 
L 330.060978 194.622583 
L 330.538426 179.647802 
L 330.955085 167.08451 
L 331.074928 155.62351 
L 331.554316 144.072193 
L 331.798858 143.231096 
L 332.18227 143.84374 
L 332.295591 145.078062 
L 332.581733 144.243766 
L 332.628794 144.821972 
L 332.92853 146.266217 
L 333.047548 149.311454 
L 333.463311 147.659633 
L 333.76078 135.183132 
L 334.059047 133.379618 
L 334.357228 133.917015 
L 334.77428 138.33764 
L 335.554682 154.466674 
L 336.230047 203.542042 
L 336.503215 212.412382 
L 336.861694 211.841722 
L 337.219706 198.495471 
L 337.457125 187.499931 
L 337.8742 174.409032 
L 337.992974 158.610547 
L 338.291662 139.768191 
L 338.710939 104.544834 
L 339.018781 95.465126 
L 339.247031 93.803333 
L 339.430905 93.518392 
L 340.024042 96.60385 
L 340.260765 99.32253 
L 340.684382 124.056521 
L 340.974023 143.562268 
L 341.271095 155.158965 
L 341.450051 154.761561 
L 341.689226 144.645634 
L 342.108412 137.155717 
L 342.168521 137.979534 
L 342.467656 143.241666 
L 342.663131 149.772078 
L 342.88779 150.90953 
L 343.240908 141.776571 
L 343.777128 106.78577 
L 343.90286 103.48918 
L 344.910015 144.373413 
L 344.969858 143.630778 
L 345.50505 132.05645 
L 345.685682 126.094093 
L 345.98291 126.02103 
L 346.400699 137.000568 
L 346.639131 130.030981 
L 347.414796 88.173741 
L 347.829568 92.172604 
L 347.90535 104.288202 
L 348.604642 151.672409 
L 348.90322 154.292937 
L 349.200866 152.807849 
L 349.328861 154.193864 
L 349.867889 166.247491 
L 350.333064 166.048609 
L 350.75242 159.662446 
L 351.051582 130.907132 
L 351.405524 119.922536 
L 351.704821 124.80957 
L 351.837621 138.677462 
L 352.257007 140.009505 
L 352.364255 135.81739 
L 352.602357 132.818534 
L 352.840931 132.117734 
L 353.085691 134.438706 
L 353.556137 136.779354 
L 354.102425 144.402519 
L 354.392014 145.058059 
L 354.513693 149.34197 
L 354.766606 148.521152 
L 355.053003 140.786739 
L 355.524582 120.394926 
L 355.823137 123.142316 
L 356.061582 135.78605 
L 356.300154 141.115047 
L 356.587689 133.438883 
L 356.84103 120.832606 
L 357.060947 117.17831 
L 357.553871 143.702988 
L 357.935759 149.438514 
L 358.268044 135.800915 
L 358.56667 131.135873 
L 358.745127 131.445209 
L 358.983198 134.67193 
L 359.281135 136.951849 
L 359.579082 130.2795 
L 359.758066 120.706558 
L 360.067986 116.763661 
L 360.59336 141.903413 
L 360.775144 145.124392 
L 360.950784 135.114043 
L 361.250702 127.551042 
L 361.485653 126.987202 
L 361.965514 138.232537 
L 362.267185 133.568859 
L 362.751305 112.206416 
L 362.98234 114.626014 
L 363.166856 124.343892 
L 363.459258 133.808097 
L 363.877807 133.10774 
L 363.998223 134.957028 
L 364.353713 134.612054 
L 364.415589 134.161977 
L 364.652718 136.817564 
L 364.949815 142.62387 
L 365.192598 142.419248 
L 365.426635 141.69218 
L 365.665324 142.409528 
L 366.210437 156.940294 
L 366.860758 136.918127 
L 367.034543 139.77494 
L 367.156433 148.661513 
L 367.630692 153.521525 
L 367.993968 143.459327 
L 368.28706 127.890383 
L 368.34994 115.880551 
L 368.718009 116.01089 
L 369.124034 143.964882 
L 369.478926 144.049616 
L 369.962816 123.559687 
L 370.138563 119.790947 
L 370.912759 140.494729 
L 371.328585 121.10905 
L 371.60839 122.750239 
L 372.105007 133.370239 
L 372.343286 133.903215 
L 372.640846 136.323255 
L 372.820287 140.072656 
L 373.179091 141.76426 
L 373.595093 135.536536 
L 373.952976 131.311544 
L 374.07202 122.100778 
L 374.31127 118.18335 
L 374.846922 142.257791 
L 375.204302 142.600917 
L 375.382483 132.890023 
L 375.807796 119.192076 
L 376.575768 143.663304 
L 376.754142 139.452553 
L 377.290691 111.419882 
L 377.528772 109.5892 
L 377.767672 117.601722 
L 378.00534 134.28982 
L 378.245978 143.09074 
L 378.662013 139.00272 
L 378.779468 125.883564 
L 379.079562 121.14625 
L 379.375279 126.611066 
L 379.792441 149.422969 
L 380.209981 150.719195 
L 380.270583 139.41738 
L 380.509453 124.186403 
L 380.925624 116.875776 
L 381.521235 147.807768 
L 381.75906 144.695031 
L 382.295311 121.584086 
L 382.47424 117.501595 
L 383.310569 140.640552 
L 383.846639 132.977062 
L 383.964934 120.583419 
L 384.204218 111.569302 
L 384.503733 114.453427 
L 385.215894 128.353588 
L 385.594332 129.609662 
L 385.698914 134.063233 
L 385.931863 139.241057 
L 386.171585 140.114995 
L 386.412635 140.468904 
L 386.469912 142.8122 
L 386.651787 142.371308 
L 387.065347 138.907501 
L 387.423292 132.632438 
L 387.661107 132.439812 
L 388.144691 129.833953 
L 388.435672 127.5486 
L 388.794039 127.277614 
L 389.211548 126.1893 
L 389.454942 126.933428 
L 389.926507 141.131128 
L 390.106188 147.461503 
L 390.346918 151.474797 
L 390.88036 153.276913 
L 391.118324 150.16435 
L 391.476629 148.826285 
L 391.65498 150.416081 
L 391.893379 149.667701 
L 392.131469 141.316526 
L 392.669684 111.871415 
L 393.504623 81.083687 
L 393.623643 82.723421 
L 394.102249 98.606933 
L 395.114141 141.777373 
L 395.592605 147.87817 
L 395.891188 143.660636 
L 396.307135 127.681592 
L 396.546026 121.324311 
L 396.843832 120.126495 
L 397.271089 126.80654 
L 397.560051 128.295349 
L 397.826401 127.570302 
L 398.278812 119.960562 
L 398.585387 120.149665 
L 399.022604 132.94148 
L 399.29018 133.881972 
L 399.531917 131.111729 
L 399.770136 129.661356 
L 400.064061 129.229548 
L 400.304813 130.369783 
L 400.600723 134.868752 
L 400.781613 140.407926 
L 401.018391 142.572811 
L 401.257493 135.153944 
L 401.498301 124.194944 
L 402.035863 111.654594 
L 402.274007 110.352456 
L 402.555498 112.381354 
L 402.872188 116.413747 
L 403.108135 123.976209 
L 403.227222 137.161798 
L 403.466513 145.650824 
L 403.763847 149.819797 
L 404.06342 149.762417 
L 404.243515 146.9422 
L 404.780652 130.210776 
L 404.957902 126.025373 
L 405.257143 125.742557 
L 405.494709 124.011627 
L 405.733715 119.13275 
L 406.150189 120.057357 
L 406.22296 125.118632 
L 406.699843 143.056647 
L 407.222319 149.451521 
L 407.45226 147.02736 
L 408.110181 132.269188 
L 408.171083 123.417506 
L 408.705538 103.007781 
L 408.947224 96.979007 
L 409.197164 96.433399 
L 409.60073 105.359875 
L 409.660698 116.064705 
L 409.959081 125.756151 
L 410.639771 162.472702 
L 410.914207 170.06189 
L 411.346681 169.807262 
L 411.394451 166.056191 
L 412.109225 159.792307 
L 412.168443 156.097132 
L 412.764168 147.156406 
L 413.125083 136.225147 
L 413.361577 134.090065 
L 413.600064 133.043311 
L 413.918937 134.344902 
L 414.851628 148.469491 
L 415.149726 146.714932 
L 415.330749 139.72943 
L 415.863312 130.556293 
L 415.871824 125.535289 
L 416.106461 126.770028 
L 416.642489 130.667633 
L 417.598079 118.071166 
L 418.313208 136.48697 
L 418.552708 136.441249 
L 418.792555 133.586082 
L 419.212173 135.47118 
L 419.266786 139.626273 
L 419.625937 142.798291 
L 419.809527 145.708422 
L 420.04404 146.132105 
L 420.28297 139.975858 
L 420.702599 132.767278 
L 420.827577 126.35077 
L 421.296666 122.92891 
L 421.54394 114.870948 
L 421.595588 108.102512 
L 421.83448 101.7291 
L 422.256645 85.507081 
L 422.4934 85.169663 
L 422.788822 93.673128 
L 423.504772 122.846423 
L 423.74235 127.444855 
L 423.981822 127.428666 
L 424.412126 123.781932 
L 424.759483 113.328382 
L 425.235023 89.366585 
L 425.480997 80.047539 
L 425.733157 81.785832 
L 427.231531 146.73865 
L 427.51593 149.316013 
L 427.759176 152.680198 
L 428.052108 148.516173 
L 428.172449 142.185772 
L 428.413673 138.062928 
L 428.836364 141.271218 
L 428.955581 139.457107 
L 429.430516 124.58745 
L 429.801082 129.448171 
L 429.961842 144.279762 
L 430.499653 168.18469 
L 430.737766 165.042421 
L 431.277655 136.297149 
L 431.585346 130.451175 
L 431.879912 139.150457 
L 432.145195 134.195684 
L 432.896991 106.999616 
L 433.246954 119.446708 
L 433.665146 158.9732 
L 433.964357 165.355998 
L 434.142742 162.502028 
L 434.381269 150.109639 
L 434.997949 133.998128 
L 435.098089 126.097941 
L 435.455055 122.598592 
L 435.899155 100.955918 
L 436.113881 93.991847 
L 436.519588 87.883138 
L 436.757143 90.758938 
L 436.944495 98.875334 
L 437.472864 138.159277 
L 437.831465 169.0762 
L 438.308241 172.306443 
L 438.667106 149.66941 
L 438.84864 138.553711 
L 439.32935 130.306961 
L 440.09899 105.361146 
L 440.341029 107.416219 
L 440.819932 128.903844 
L 441.0549 136.726898 
L 441.775867 142.993588 
L 442.074838 149.122017 
L 442.262767 149.042912 
L 442.790225 146.598538 
L 443.445843 154.325311 
L 443.53362 163.297883 
L 444.10157 192.276728 
L 444.57959 208.385589 
L 445.063402 217.804754 
L 445.296153 213.623789 
L 445.964215 172.579569 
L 446.502345 154.631471 
L 446.735599 151.157401 
L 447.107182 148.521487 
L 447.446819 139.945634 
L 447.771866 139.02536 
L 447.982701 140.988727 
L 448.484627 151.027133 
L 448.938227 148.070114 
L 449.177353 143.150021 
L 449.598835 146.876232 
L 449.788248 153.939834 
L 450.024519 158.0522 
L 450.204405 165.737252 
L 450.621534 168.175699 
L 450.682193 161.474343 
L 451.100145 159.489963 
L 452.173271 125.963756 
L 452.410237 117.726431 
L 452.82738 111.177644 
L 452.946775 111.853414 
L 453.185812 117.411597 
L 453.901894 149.184875 
L 454.143047 159.994885 
L 454.438849 163.47685 
L 454.618697 167.455535 
L 455.877511 178.975371 
L 456.173359 180.602494 
L 456.591861 179.859258 
L 456.890144 187.077329 
L 457.076637 187.729394 
L 457.486093 193.489449 
L 457.633251 197.506052 
L 458.105785 199.874013 
L 458.808204 187.94853 
L 459.348289 165.442917 
L 460.300685 112.751236 
L 460.836734 109.430455 
L 461.234538 110.250263 
L 461.558545 119.150584 
L 461.949202 120.157443 
L 462.091757 118.759857 
L 462.398666 119.114574 
L 462.568687 116.149726 
L 462.816983 118.271397 
L 463.179961 115.176784 
L 463.28692 109.667768 
L 463.765835 98.671502 
L 464.072889 98.093715 
L 464.320637 105.527974 
L 464.544218 116.441721 
L 465.027317 152.236852 
L 465.319515 161.783474 
L 465.502724 175.622484 
L 466.273686 198.257287 
L 466.691576 203.407373 
L 466.810386 206.773157 
L 467.037735 208.704967 
L 467.272469 203.912042 
L 467.505697 193.260548 
L 467.807763 188.05626 
L 467.992368 176.191429 
L 468.587327 163.322581 
L 469.239085 130.132127 
L 469.954561 99.027795 
L 470.193432 95.676762 
L 470.432962 88.84981 
L 470.849958 85.022641 
L 470.999092 81.12534 
L 471.506328 75.070979 
L 471.744903 73.780435 
L 471.983362 78.460298 
L 472.281026 78.406645 
L 472.672721 97.30438 
L 473.896837 131.129522 
L 474.276647 133.011462 
L 474.434755 131.295957 
L 474.670358 131.161828 
L 474.93836 126.820785 
L 475.939083 91.210129 
L 476.433657 78.820234 
L 476.724539 80.374311 
L 476.846124 79.327476 
L 477.138377 79.170258 
L 477.436678 77.795693 
L 477.734773 77.760678 
L 477.854287 75.159041 
L 478.152176 74.795101 
L 478.398605 75.206382 
L 478.646403 76.274719 
L 478.868384 77.870189 
L 479.885479 100.462623 
L 480.359199 117.552657 
L 480.844014 142.129959 
L 481.314748 174.690093 
L 482.092838 196.351388 
L 483.177819 218.190352 
L 483.642591 215.684021 
L 483.880396 212.176764 
L 484.118891 211.724594 
L 484.321353 212.917806 
L 484.537252 217.83491 
L 484.839118 220.838139 
L 485.132073 221.154697 
L 485.378852 220.57948 
L 485.550787 221.221352 
L 485.791706 217.086373 
L 486.027845 217.050737 
L 486.343305 217.937051 
L 486.760428 214.740652 
L 487.238515 208.102607 
L 487.29849 196.350382 
L 487.59631 185.643158 
L 488.018138 161.722569 
L 489.029062 123.791146 
L 489.504111 106.711608 
L 489.806894 102.950468 
L 490.281663 95.21673 
L 490.759547 96.434339 
L 490.96493 98.218275 
L 491.240308 102.7524 
L 492.022035 124.741092 
L 492.259152 135.749287 
L 492.498084 141.584806 
L 492.737063 153.941124 
L 492.974913 157.683375 
L 493.213871 156.04154 
L 493.455108 152.329388 
L 493.750988 143.573267 
L 493.930682 131.880087 
L 494.246704 124.144469 
L 494.287781 119.727285 
L 494.767831 104.354058 
L 495.063455 102.53527 
L 495.241894 103.21485 
L 495.722548 109.811818 
L 495.958619 125.936302 
L 497.152993 208.769929 
L 497.867388 235.931224 
L 498.287595 245.528631 
L 498.345069 244.810765 
L 498.706986 238.128985 
L 499.185459 215.981996 
L 500.384257 116.694794 
L 500.868873 90.853321 
L 501.112834 85.923239 
L 501.345532 84.947941 
L 501.643394 80.99775 
L 501.827858 85.339354 
L 502.122693 83.232313 
L 502.424592 87.615439 
L 502.65736 87.902298 
L 502.912868 90.686094 
L 503.136012 95.555251 
L 503.85067 85.996175 
L 504.268746 88.307868 
L 504.329146 89.315699 
L 504.569776 97.391057 
L 504.904156 100.535581 
L 505.840075 144.560685 
L 506.06122 157.178707 
L 506.852163 177.529339 
L 507.31785 183.999429 
L 507.553063 182.685515 
L 508.03587 177.676463 
L 508.209039 174.48338 
L 508.340669 174.418639 
L 508.528018 181.696842 
L 508.885369 190.507071 
L 509.555939 224.780574 
L 509.79508 231.668571 
L 510.037742 234.340777 
L 510.797028 239.713185 
L 511.15401 237.348193 
L 511.810668 198.412279 
L 512.290623 158.574018 
L 513.025949 136.024136 
L 513.362767 133.406457 
L 513.49754 125.947253 
L 513.779272 132.421688 
L 514.077099 135.992743 
L 514.496964 161.23291 
L 514.752703 172.720999 
L 515.03257 170.781675 
L 515.51118 160.769653 
L 515.754742 148.73807 
L 516.28825 138.149742 
L 516.465432 137.288078 
L 516.904123 141.876348 
L 517.481211 150.209121 
L 517.768534 153.513582 
L 518.018279 150.994679 
L 518.494558 144.534267 
L 518.5543 140.984028 
L 518.913059 138.857276 
L 519.451688 123.804399 
L 519.953515 118.444262 
L 520.066241 119.21489 
L 520.528014 135.092589 
L 520.646156 144.087787 
L 520.951602 145.84916 
L 521.422505 141.305467 
L 521.548585 130.294944 
L 522.56745 90.487649 
L 522.804201 93.291742 
L 523.528141 129.975238 
L 523.885174 178.959842 
L 524.301954 206.163806 
L 524.543153 231.21264 
L 525.258621 272.589231 
L 525.52018 268.701012 
L 526.161968 227.348419 
L 526.577196 174.98415 
L 527.36184 106.749613 
L 527.583954 98.882675 
L 527.882528 97.25272 
L 528.088503 94.656424 
L 528.357895 94.673668 
L 528.666061 94.492531 
L 528.897677 96.248603 
L 529.142079 99.097035 
L 529.616804 102.241652 
L 530.371433 119.381927 
L 531.20933 142.402413 
L 531.560797 166.960792 
L 532.070001 185.254802 
L 532.361335 189.640121 
L 533.077101 183.40245 
L 533.554455 180.357616 
L 534.274035 169.366161 
L 535.121277 150.390671 
L 535.470202 146.243024 
L 535.545015 142.514399 
L 535.774911 142.248247 
L 536.250806 151.270147 
L 536.550053 159.648889 
L 537.798254 211.543936 
L 538.056945 217.956766 
L 538.337128 219.553809 
L 538.634965 216.383853 
L 539.353845 202.042265 
L 539.650513 200.067235 
L 539.948755 192.240544 
L 540.424821 173.296446 
L 541.681659 116.016023 
L 542.21599 90.711751 
L 542.691117 75.354249 
L 543.188837 73.744143 
L 543.406721 79.817931 
L 543.824918 88.064703 
L 544.133907 114.408006 
L 544.539128 126.78559 
L 544.902401 143.473168 
L 546.869418 174.535681 
L 547.169332 182.14702 
L 548.203202 239.405928 
L 548.621658 252.163193 
L 549.575035 263.172991 
L 549.87422 262.27461 
L 550.11367 260.386585 
L 550.4772 256.569069 
L 551.096578 234.307551 
L 551.380954 192.146112 
L 552.07549 141.323537 
L 552.612465 119.529443 
L 552.848468 113.963253 
L 553.146703 113.546754 
L 553.56288 130.664855 
L 554.106053 143.037472 
L 554.582658 167.767228 
L 555.01708 192.486436 
L 555.313085 200.800992 
L 557.179392 143.251916 
L 557.300832 134.814555 
L 557.701423 132.53618 
L 557.824513 139.560947 
L 558.240046 172.621231 
L 558.736738 189.156302 
L 559.013783 189.964969 
L 559.791632 178.148056 
L 560.445187 157.86109 
L 560.508561 145.046685 
L 560.746706 136.039149 
L 561.239814 130.573287 
L 561.527183 133.286801 
L 562.00136 155.357726 
L 562.542548 177.172931 
L 562.954697 181.833813 
L 563.133461 178.251085 
L 563.194114 172.314639 
L 563.467597 169.98177 
L 563.817686 176.681429 
L 563.934282 186.438501 
L 564.233687 192.902844 
L 564.477872 192.462859 
L 564.727769 186.85036 
L 565.189427 170.88364 
L 565.492097 171.146217 
L 565.667759 178.712861 
L 565.965143 184.165414 
L 566.155913 177.337973 
L 566.684577 147.055712 
L 566.980547 147.618225 
L 567.342669 159.040956 
L 567.69626 181.20872 
L 567.93841 179.479204 
L 568.292976 171.576755 
L 568.427355 164.2582 
L 568.608239 166.304717 
L 568.904185 174.958266 
L 569.146754 178.700104 
L 569.444183 165.262386 
L 569.620489 145.276757 
L 569.91819 132.203593 
L 570.277418 138.695252 
L 570.457132 155.31819 
L 570.814208 167.776157 
L 571.051648 168.73617 
L 571.353011 146.813009 
L 571.588532 143.286085 
L 571.946887 155.040949 
L 572.19284 170.792118 
L 572.366467 172.741867 
L 572.689107 160.518303 
L 572.872413 147.456153 
L 573.109195 147.501973 
L 573.638937 165.655256 
L 573.876385 166.79098 
L 574.070009 164.52924 
L 574.30943 159.925725 
L 574.592297 159.139563 
L 575.141361 168.268968 
L 575.804732 157.048817 
L 576.323141 168.012585 
L 576.624525 168.685329 
L 576.919515 161.939733 
L 577.157281 140.768244 
L 577.57543 137.0817 
L 577.757175 139.958575 
L 577.99304 150.387537 
L 578.350111 154.131016 
L 578.708895 127.603531 
L 579.036586 126.594177 
L 579.27292 137.776653 
L 579.788099 188.796896 
L 580.077802 190.892821 
L 580.256588 182.381184 
L 580.796406 166.848968 
L 581.09442 170.553268 
L 581.273096 174.235721 
L 581.513255 174.642209 
L 581.756841 169.138478 
L 582.28719 143.894213 
L 582.526245 142.581134 
L 582.765615 156.105172 
L 583.249581 169.099919 
L 583.487398 165.962693 
L 583.838708 163.227751 
L 583.977108 164.099427 
L 584.201953 163.055762 
L 584.495537 159.388081 
L 584.735588 158.833437 
L 584.973711 162.566796 
L 585.282242 162.339602 
L 585.57861 155.746992 
L 585.817209 157.891724 
L 585.99516 168.763744 
L 586.236852 165.866499 
L 586.59246 156.24778 
L 586.890024 160.899466 
L 587.250206 168.084411 
L 587.903073 159.25902 
L 588.147753 162.957438 
L 588.679453 168.076854 
L 588.931618 166.249609 
L 589.157686 161.292688 
L 589.414021 159.974807 
L 589.632768 159.880093 
L 589.90017 156.711554 
L 590.140313 160.389419 
L 590.140313 160.389419 
" clip-path="url(#p7a45a3a7c2)" style="fill: none; stroke: #ff0000; stroke-opacity: 0.5; stroke-width: 1.5; stroke-linecap: square"/>
   </g>
   <g id="patch_3">
    <path d="M 32.140313 277.92 
L 32.140313 0.72 
" style="fill: none; stroke: #000000; stroke-width: 0.8; stroke-linejoin: miter; stroke-linecap: square"/>
   </g>
   <g id="patch_4">
    <path d="M 590.140313 277.92 
L 590.140313 0.72 
" style="fill: none; stroke: #000000; stroke-width: 0.8; stroke-linejoin: miter; stroke-linecap: square"/>
   </g>
   <g id="patch_5">
    <path d="M 32.140313 277.92 
L 590.140313 277.92 
" style="fill: none; stroke: #000000; stroke-width: 0.8; stroke-linejoin: miter; stroke-linecap: square"/>
   </g>
   <g id="patch_6">
    <path d="M 32.140313 0.72 
L 590.140313 0.72 
" style="fill: none; stroke: #000000; stroke-width: 0.8; stroke-linejoin: miter; stroke-linecap: square"/>
   </g>
   <g id="legend_1">
    <g id="patch_7">
     <path d="M 509.371562 38.07625 
L 583.140312 38.07625 
Q 585.140312 38.07625 585.140312 36.07625 
L 585.140312 7.72 
Q 585.140312 5.72 583.140312 5.72 
L 509.371562 5.72 
Q 507.371562 5.72 507.371562 7.72 
L 507.371562 36.07625 
Q 507.371562 38.07625 509.371562 38.07625 
z
" style="fill: #ffffff; opacity: 0.8; stroke: #cccccc; stroke-linejoin: miter"/>
    </g>
    <g id="line2d_31">
     <path d="M 511.371562 13.818438 
L 521.371562 13.818438 
L 531.371562 13.818438 
" style="fill: none; stroke: #0000ff; stroke-opacity: 0.5; stroke-width: 1.5; stroke-linecap: square"/>
    </g>
    <g id="text_17">
     <!-- RNEA -->
     <g transform="translate(539.371562 17.318438) scale(0.1 -0.1)">
      <defs>
       <path id="DejaVuSans-52" d="M 2841 2188 
Q 3044 2119 3236 1894 
Q 3428 1669 3622 1275 
L 4263 0 
L 3584 0 
L 2988 1197 
Q 2756 1666 2539 1819 
Q 2322 1972 1947 1972 
L 1259 1972 
L 1259 0 
L 628 0 
L 628 4666 
L 2053 4666 
Q 2853 4666 3247 4331 
Q 3641 3997 3641 3322 
Q 3641 2881 3436 2590 
Q 3231 2300 2841 2188 
z
M 1259 4147 
L 1259 2491 
L 2053 2491 
Q 2509 2491 2742 2702 
Q 2975 2913 2975 3322 
Q 2975 3731 2742 3939 
Q 2509 4147 2053 4147 
L 1259 4147 
z
" transform="scale(0.015625)"/>
       <path id="DejaVuSans-45" d="M 628 4666 
L 3578 4666 
L 3578 4134 
L 1259 4134 
L 1259 2753 
L 3481 2753 
L 3481 2222 
L 1259 2222 
L 1259 531 
L 3634 531 
L 3634 0 
L 628 0 
L 628 4666 
z
" transform="scale(0.015625)"/>
       <path id="DejaVuSans-41" d="M 2188 4044 
L 1331 1722 
L 3047 1722 
L 2188 4044 
z
M 1831 4666 
L 2547 4666 
L 4325 0 
L 3669 0 
L 3244 1197 
L 1141 1197 
L 716 0 
L 50 0 
L 1831 4666 
z
" transform="scale(0.015625)"/>
      </defs>
      <use xlink:href="#DejaVuSans-52"/>
      <use xlink:href="#DejaVuSans-4e" x="69.482422"/>
      <use xlink:href="#DejaVuSans-45" x="144.287109"/>
      <use xlink:href="#DejaVuSans-41" x="207.470703"/>
     </g>
    </g>
    <g id="line2d_32">
     <path d="M 511.371562 28.496563 
L 521.371562 28.496563 
L 531.371562 28.496563 
" style="fill: none; stroke: #ff0000; stroke-opacity: 0.5; stroke-width: 1.5; stroke-linecap: square"/>
    </g>
    <g id="text_18">
     <!-- BURNEA -->
     <g transform="translate(539.371562 31.996563) scale(0.1 -0.1)">
      <defs>
       <path id="DejaVuSans-42" d="M 1259 2228 
L 1259 519 
L 2272 519 
Q 2781 519 3026 730 
Q 3272 941 3272 1375 
Q 3272 1813 3026 2020 
Q 2781 2228 2272 2228 
L 1259 2228 
z
M 1259 4147 
L 1259 2741 
L 2194 2741 
Q 2656 2741 2882 2914 
Q 3109 3088 3109 3444 
Q 3109 3797 2882 3972 
Q 2656 4147 2194 4147 
L 1259 4147 
z
M 628 4666 
L 2241 4666 
Q 2963 4666 3353 4366 
Q 3744 4066 3744 3513 
Q 3744 3084 3544 2831 
Q 3344 2578 2956 2516 
Q 3422 2416 3680 2098 
Q 3938 1781 3938 1306 
Q 3938 681 3513 340 
Q 3088 0 2303 0 
L 628 0 
L 628 4666 
z
" transform="scale(0.015625)"/>
       <path id="DejaVuSans-55" d="M 556 4666 
L 1191 4666 
L 1191 1831 
Q 1191 1081 1462 751 
Q 1734 422 2344 422 
Q 2950 422 3222 751 
Q 3494 1081 3494 1831 
L 3494 4666 
L 4128 4666 
L 4128 1753 
Q 4128 841 3676 375 
Q 3225 -91 2344 -91 
Q 1459 -91 1007 375 
Q 556 841 556 1753 
L 556 4666 
z
" transform="scale(0.015625)"/>
      </defs>
      <use xlink:href="#DejaVuSans-42"/>
      <use xlink:href="#DejaVuSans-55" x="68.603516"/>
      <use xlink:href="#DejaVuSans-52" x="141.796875"/>
      <use xlink:href="#DejaVuSans-4e" x="211.279297"/>
      <use xlink:href="#DejaVuSans-45" x="286.083984"/>
      <use xlink:href="#DejaVuSans-41" x="349.267578"/>
     </g>
    </g>
   </g>
  </g>
 </g>
 <defs>
  <clipPath id="p7a45a3a7c2">
   <rect x="32.140313" y="0.72" width="558" height="277.2"/>
  </clipPath>
 </defs>
</svg>
