<?xml version="1.0" encoding="utf-8" standalone="no"?>
<!DOCTYPE svg PUBLIC "-//W3C//DTD SVG 1.1//EN"
  "http://www.w3.org/Graphics/SVG/1.1/DTD/svg11.dtd">
<svg xmlns:xlink="http://www.w3.org/1999/xlink" width="597.222813pt" height="304.99625pt" viewBox="0 0 597.222813 304.99625" xmlns="http://www.w3.org/2000/svg" version="1.1">
 <metadata>
  <rdf:RDF xmlns:dc="http://purl.org/dc/elements/1.1/" xmlns:cc="http://creativecommons.org/ns#" xmlns:rdf="http://www.w3.org/1999/02/22-rdf-syntax-ns#">
   <cc:Work>
    <dc:type rdf:resource="http://purl.org/dc/dcmitype/StillImage"/>
    <dc:date>2023-09-07T03:30:28.378194</dc:date>
    <dc:format>image/svg+xml</dc:format>
    <dc:creator>
     <cc:Agent>
      <dc:title>Matplotlib v3.7.2, https://matplotlib.org/</dc:title>
     </cc:Agent>
    </dc:creator>
   </cc:Work>
  </rdf:RDF>
 </metadata>
 <defs>
  <style type="text/css">*{stroke-linejoin: round; stroke-linecap: butt}</style>
 </defs>
 <g id="figure_1">
  <g id="patch_1">
   <path d="M -0 304.99625 
L 597.222813 304.99625 
L 597.222813 0 
L -0 0 
L -0 304.99625 
z
" style="fill: none"/>
  </g>
  <g id="axes_1">
   <g id="patch_2">
    <path d="M 38.502813 277.92 
L 596.502813 277.92 
L 596.502813 0.72 
L 38.502813 0.72 
L 38.502813 277.92 
z
" style="fill: none"/>
   </g>
   <g id="matplotlib.axis_1">
    <g id="xtick_1">
     <g id="line2d_1">
      <path d="M 38.502813 277.92 
L 38.502813 0.72 
" clip-path="url(#p3ad79ed178)" style="fill: none; stroke-dasharray: 0.8,1.32; stroke-dashoffset: 0; stroke: #000000; stroke-opacity: 0.5; stroke-width: 0.8"/>
     </g>
     <g id="line2d_2">
      <defs>
       <path id="m29b9ff9f68" d="M 0 0 
L 0 3.5 
" style="stroke: #000000; stroke-width: 0.8"/>
      </defs>
      <g>
       <use xlink:href="#m29b9ff9f68" x="38.502813" y="277.92" style="stroke: #000000; stroke-width: 0.8"/>
      </g>
     </g>
     <g id="text_1">
      <!-- 0.0 -->
      <g transform="translate(30.55125 292.518438) scale(0.1 -0.1)">
       <defs>
        <path id="DejaVuSans-30" d="M 2034 4250 
Q 1547 4250 1301 3770 
Q 1056 3291 1056 2328 
Q 1056 1369 1301 889 
Q 1547 409 2034 409 
Q 2525 409 2770 889 
Q 3016 1369 3016 2328 
Q 3016 3291 2770 3770 
Q 2525 4250 2034 4250 
z
M 2034 4750 
Q 2819 4750 3233 4129 
Q 3647 3509 3647 2328 
Q 3647 1150 3233 529 
Q 2819 -91 2034 -91 
Q 1250 -91 836 529 
Q 422 1150 422 2328 
Q 422 3509 836 4129 
Q 1250 4750 2034 4750 
z
" transform="scale(0.015625)"/>
        <path id="DejaVuSans-2e" d="M 684 794 
L 1344 794 
L 1344 0 
L 684 0 
L 684 794 
z
" transform="scale(0.015625)"/>
       </defs>
       <use xlink:href="#DejaVuSans-30"/>
       <use xlink:href="#DejaVuSans-2e" x="63.623047"/>
       <use xlink:href="#DejaVuSans-30" x="95.410156"/>
      </g>
     </g>
    </g>
    <g id="xtick_2">
     <g id="line2d_3">
      <path d="M 112.654137 277.92 
L 112.654137 0.72 
" clip-path="url(#p3ad79ed178)" style="fill: none; stroke-dasharray: 0.8,1.32; stroke-dashoffset: 0; stroke: #000000; stroke-opacity: 0.5; stroke-width: 0.8"/>
     </g>
     <g id="line2d_4">
      <g>
       <use xlink:href="#m29b9ff9f68" x="112.654137" y="277.92" style="stroke: #000000; stroke-width: 0.8"/>
      </g>
     </g>
     <g id="text_2">
      <!-- 2.5 -->
      <g transform="translate(104.702575 292.518438) scale(0.1 -0.1)">
       <defs>
        <path id="DejaVuSans-32" d="M 1228 531 
L 3431 531 
L 3431 0 
L 469 0 
L 469 531 
Q 828 903 1448 1529 
Q 2069 2156 2228 2338 
Q 2531 2678 2651 2914 
Q 2772 3150 2772 3378 
Q 2772 3750 2511 3984 
Q 2250 4219 1831 4219 
Q 1534 4219 1204 4116 
Q 875 4013 500 3803 
L 500 4441 
Q 881 4594 1212 4672 
Q 1544 4750 1819 4750 
Q 2544 4750 2975 4387 
Q 3406 4025 3406 3419 
Q 3406 3131 3298 2873 
Q 3191 2616 2906 2266 
Q 2828 2175 2409 1742 
Q 1991 1309 1228 531 
z
" transform="scale(0.015625)"/>
        <path id="DejaVuSans-35" d="M 691 4666 
L 3169 4666 
L 3169 4134 
L 1269 4134 
L 1269 2991 
Q 1406 3038 1543 3061 
Q 1681 3084 1819 3084 
Q 2600 3084 3056 2656 
Q 3513 2228 3513 1497 
Q 3513 744 3044 326 
Q 2575 -91 1722 -91 
Q 1428 -91 1123 -41 
Q 819 9 494 109 
L 494 744 
Q 775 591 1075 516 
Q 1375 441 1709 441 
Q 2250 441 2565 725 
Q 2881 1009 2881 1497 
Q 2881 1984 2565 2268 
Q 2250 2553 1709 2553 
Q 1456 2553 1204 2497 
Q 953 2441 691 2322 
L 691 4666 
z
" transform="scale(0.015625)"/>
       </defs>
       <use xlink:href="#DejaVuSans-32"/>
       <use xlink:href="#DejaVuSans-2e" x="63.623047"/>
       <use xlink:href="#DejaVuSans-35" x="95.410156"/>
      </g>
     </g>
    </g>
    <g id="xtick_3">
     <g id="line2d_5">
      <path d="M 186.805462 277.92 
L 186.805462 0.72 
" clip-path="url(#p3ad79ed178)" style="fill: none; stroke-dasharray: 0.8,1.32; stroke-dashoffset: 0; stroke: #000000; stroke-opacity: 0.5; stroke-width: 0.8"/>
     </g>
     <g id="line2d_6">
      <g>
       <use xlink:href="#m29b9ff9f68" x="186.805462" y="277.92" style="stroke: #000000; stroke-width: 0.8"/>
      </g>
     </g>
     <g id="text_3">
      <!-- 5.0 -->
      <g transform="translate(178.8539 292.518438) scale(0.1 -0.1)">
       <use xlink:href="#DejaVuSans-35"/>
       <use xlink:href="#DejaVuSans-2e" x="63.623047"/>
       <use xlink:href="#DejaVuSans-30" x="95.410156"/>
      </g>
     </g>
    </g>
    <g id="xtick_4">
     <g id="line2d_7">
      <path d="M 260.956787 277.92 
L 260.956787 0.72 
" clip-path="url(#p3ad79ed178)" style="fill: none; stroke-dasharray: 0.8,1.32; stroke-dashoffset: 0; stroke: #000000; stroke-opacity: 0.5; stroke-width: 0.8"/>
     </g>
     <g id="line2d_8">
      <g>
       <use xlink:href="#m29b9ff9f68" x="260.956787" y="277.92" style="stroke: #000000; stroke-width: 0.8"/>
      </g>
     </g>
     <g id="text_4">
      <!-- 7.5 -->
      <g transform="translate(253.005225 292.518438) scale(0.1 -0.1)">
       <defs>
        <path id="DejaVuSans-37" d="M 525 4666 
L 3525 4666 
L 3525 4397 
L 1831 0 
L 1172 0 
L 2766 4134 
L 525 4134 
L 525 4666 
z
" transform="scale(0.015625)"/>
       </defs>
       <use xlink:href="#DejaVuSans-37"/>
       <use xlink:href="#DejaVuSans-2e" x="63.623047"/>
       <use xlink:href="#DejaVuSans-35" x="95.410156"/>
      </g>
     </g>
    </g>
    <g id="xtick_5">
     <g id="line2d_9">
      <path d="M 335.108112 277.92 
L 335.108112 0.72 
" clip-path="url(#p3ad79ed178)" style="fill: none; stroke-dasharray: 0.8,1.32; stroke-dashoffset: 0; stroke: #000000; stroke-opacity: 0.5; stroke-width: 0.8"/>
     </g>
     <g id="line2d_10">
      <g>
       <use xlink:href="#m29b9ff9f68" x="335.108112" y="277.92" style="stroke: #000000; stroke-width: 0.8"/>
      </g>
     </g>
     <g id="text_5">
      <!-- 10.0 -->
      <g transform="translate(323.9753 292.518438) scale(0.1 -0.1)">
       <defs>
        <path id="DejaVuSans-31" d="M 794 531 
L 1825 531 
L 1825 4091 
L 703 3866 
L 703 4441 
L 1819 4666 
L 2450 4666 
L 2450 531 
L 3481 531 
L 3481 0 
L 794 0 
L 794 531 
z
" transform="scale(0.015625)"/>
       </defs>
       <use xlink:href="#DejaVuSans-31"/>
       <use xlink:href="#DejaVuSans-30" x="63.623047"/>
       <use xlink:href="#DejaVuSans-2e" x="127.246094"/>
       <use xlink:href="#DejaVuSans-30" x="159.033203"/>
      </g>
     </g>
    </g>
    <g id="xtick_6">
     <g id="line2d_11">
      <path d="M 409.259437 277.92 
L 409.259437 0.72 
" clip-path="url(#p3ad79ed178)" style="fill: none; stroke-dasharray: 0.8,1.32; stroke-dashoffset: 0; stroke: #000000; stroke-opacity: 0.5; stroke-width: 0.8"/>
     </g>
     <g id="line2d_12">
      <g>
       <use xlink:href="#m29b9ff9f68" x="409.259437" y="277.92" style="stroke: #000000; stroke-width: 0.8"/>
      </g>
     </g>
     <g id="text_6">
      <!-- 12.5 -->
      <g transform="translate(398.126625 292.518438) scale(0.1 -0.1)">
       <use xlink:href="#DejaVuSans-31"/>
       <use xlink:href="#DejaVuSans-32" x="63.623047"/>
       <use xlink:href="#DejaVuSans-2e" x="127.246094"/>
       <use xlink:href="#DejaVuSans-35" x="159.033203"/>
      </g>
     </g>
    </g>
    <g id="xtick_7">
     <g id="line2d_13">
      <path d="M 483.410762 277.92 
L 483.410762 0.72 
" clip-path="url(#p3ad79ed178)" style="fill: none; stroke-dasharray: 0.8,1.32; stroke-dashoffset: 0; stroke: #000000; stroke-opacity: 0.5; stroke-width: 0.8"/>
     </g>
     <g id="line2d_14">
      <g>
       <use xlink:href="#m29b9ff9f68" x="483.410762" y="277.92" style="stroke: #000000; stroke-width: 0.8"/>
      </g>
     </g>
     <g id="text_7">
      <!-- 15.0 -->
      <g transform="translate(472.27795 292.518438) scale(0.1 -0.1)">
       <use xlink:href="#DejaVuSans-31"/>
       <use xlink:href="#DejaVuSans-35" x="63.623047"/>
       <use xlink:href="#DejaVuSans-2e" x="127.246094"/>
       <use xlink:href="#DejaVuSans-30" x="159.033203"/>
      </g>
     </g>
    </g>
    <g id="xtick_8">
     <g id="line2d_15">
      <path d="M 557.562087 277.92 
L 557.562087 0.72 
" clip-path="url(#p3ad79ed178)" style="fill: none; stroke-dasharray: 0.8,1.32; stroke-dashoffset: 0; stroke: #000000; stroke-opacity: 0.5; stroke-width: 0.8"/>
     </g>
     <g id="line2d_16">
      <g>
       <use xlink:href="#m29b9ff9f68" x="557.562087" y="277.92" style="stroke: #000000; stroke-width: 0.8"/>
      </g>
     </g>
     <g id="text_8">
      <!-- 17.5 -->
      <g transform="translate(546.429274 292.518438) scale(0.1 -0.1)">
       <use xlink:href="#DejaVuSans-31"/>
       <use xlink:href="#DejaVuSans-37" x="63.623047"/>
       <use xlink:href="#DejaVuSans-2e" x="127.246094"/>
       <use xlink:href="#DejaVuSans-35" x="159.033203"/>
      </g>
     </g>
    </g>
    <g id="text_9">
     <!-- Zeit [s] -->
     <g transform="translate(299.556719 302.196563) scale(0.1 -0.1)">
      <defs>
       <path id="DejaVuSans-5a" d="M 359 4666 
L 4025 4666 
L 4025 4184 
L 1075 531 
L 4097 531 
L 4097 0 
L 288 0 
L 288 481 
L 3238 4134 
L 359 4134 
L 359 4666 
z
" transform="scale(0.015625)"/>
       <path id="DejaVuSans-65" d="M 3597 1894 
L 3597 1613 
L 953 1613 
Q 991 1019 1311 708 
Q 1631 397 2203 397 
Q 2534 397 2845 478 
Q 3156 559 3463 722 
L 3463 178 
Q 3153 47 2828 -22 
Q 2503 -91 2169 -91 
Q 1331 -91 842 396 
Q 353 884 353 1716 
Q 353 2575 817 3079 
Q 1281 3584 2069 3584 
Q 2775 3584 3186 3129 
Q 3597 2675 3597 1894 
z
M 3022 2063 
Q 3016 2534 2758 2815 
Q 2500 3097 2075 3097 
Q 1594 3097 1305 2825 
Q 1016 2553 972 2059 
L 3022 2063 
z
" transform="scale(0.015625)"/>
       <path id="DejaVuSans-69" d="M 603 3500 
L 1178 3500 
L 1178 0 
L 603 0 
L 603 3500 
z
M 603 4863 
L 1178 4863 
L 1178 4134 
L 603 4134 
L 603 4863 
z
" transform="scale(0.015625)"/>
       <path id="DejaVuSans-74" d="M 1172 4494 
L 1172 3500 
L 2356 3500 
L 2356 3053 
L 1172 3053 
L 1172 1153 
Q 1172 725 1289 603 
Q 1406 481 1766 481 
L 2356 481 
L 2356 0 
L 1766 0 
Q 1100 0 847 248 
Q 594 497 594 1153 
L 594 3053 
L 172 3053 
L 172 3500 
L 594 3500 
L 594 4494 
L 1172 4494 
z
" transform="scale(0.015625)"/>
       <path id="DejaVuSans-20" transform="scale(0.015625)"/>
       <path id="DejaVuSans-5b" d="M 550 4863 
L 1875 4863 
L 1875 4416 
L 1125 4416 
L 1125 -397 
L 1875 -397 
L 1875 -844 
L 550 -844 
L 550 4863 
z
" transform="scale(0.015625)"/>
       <path id="DejaVuSans-73" d="M 2834 3397 
L 2834 2853 
Q 2591 2978 2328 3040 
Q 2066 3103 1784 3103 
Q 1356 3103 1142 2972 
Q 928 2841 928 2578 
Q 928 2378 1081 2264 
Q 1234 2150 1697 2047 
L 1894 2003 
Q 2506 1872 2764 1633 
Q 3022 1394 3022 966 
Q 3022 478 2636 193 
Q 2250 -91 1575 -91 
Q 1294 -91 989 -36 
Q 684 19 347 128 
L 347 722 
Q 666 556 975 473 
Q 1284 391 1588 391 
Q 1994 391 2212 530 
Q 2431 669 2431 922 
Q 2431 1156 2273 1281 
Q 2116 1406 1581 1522 
L 1381 1569 
Q 847 1681 609 1914 
Q 372 2147 372 2553 
Q 372 3047 722 3315 
Q 1072 3584 1716 3584 
Q 2034 3584 2315 3537 
Q 2597 3491 2834 3397 
z
" transform="scale(0.015625)"/>
       <path id="DejaVuSans-5d" d="M 1947 4863 
L 1947 -844 
L 622 -844 
L 622 -397 
L 1369 -397 
L 1369 4416 
L 622 4416 
L 622 4863 
L 1947 4863 
z
" transform="scale(0.015625)"/>
      </defs>
      <use xlink:href="#DejaVuSans-5a"/>
      <use xlink:href="#DejaVuSans-65" x="68.505859"/>
      <use xlink:href="#DejaVuSans-69" x="130.029297"/>
      <use xlink:href="#DejaVuSans-74" x="157.8125"/>
      <use xlink:href="#DejaVuSans-20" x="197.021484"/>
      <use xlink:href="#DejaVuSans-5b" x="228.808594"/>
      <use xlink:href="#DejaVuSans-73" x="267.822266"/>
      <use xlink:href="#DejaVuSans-5d" x="319.921875"/>
     </g>
    </g>
   </g>
   <g id="matplotlib.axis_2">
    <g id="ytick_1">
     <g id="line2d_17">
      <path d="M 38.502813 243.903806 
L 596.502813 243.903806 
" clip-path="url(#p3ad79ed178)" style="fill: none; stroke-dasharray: 0.8,1.32; stroke-dashoffset: 0; stroke: #000000; stroke-opacity: 0.5; stroke-width: 0.8"/>
     </g>
     <g id="line2d_18">
      <defs>
       <path id="m0bee3e1c19" d="M 0 0 
L -3.5 0 
" style="stroke: #000000; stroke-width: 0.8"/>
      </defs>
      <g>
       <use xlink:href="#m0bee3e1c19" x="38.502813" y="243.903806" style="stroke: #000000; stroke-width: 0.8"/>
      </g>
     </g>
     <g id="text_10">
      <!-- −10 -->
      <g transform="translate(10.398125 247.703024) scale(0.1 -0.1)">
       <defs>
        <path id="DejaVuSans-2212" d="M 678 2272 
L 4684 2272 
L 4684 1741 
L 678 1741 
L 678 2272 
z
" transform="scale(0.015625)"/>
       </defs>
       <use xlink:href="#DejaVuSans-2212"/>
       <use xlink:href="#DejaVuSans-31" x="83.789062"/>
       <use xlink:href="#DejaVuSans-30" x="147.412109"/>
      </g>
     </g>
    </g>
    <g id="ytick_2">
     <g id="line2d_19">
      <path d="M 38.502813 204.339063 
L 596.502813 204.339063 
" clip-path="url(#p3ad79ed178)" style="fill: none; stroke-dasharray: 0.8,1.32; stroke-dashoffset: 0; stroke: #000000; stroke-opacity: 0.5; stroke-width: 0.8"/>
     </g>
     <g id="line2d_20">
      <g>
       <use xlink:href="#m0bee3e1c19" x="38.502813" y="204.339063" style="stroke: #000000; stroke-width: 0.8"/>
      </g>
     </g>
     <g id="text_11">
      <!-- −5 -->
      <g transform="translate(16.760625 208.138282) scale(0.1 -0.1)">
       <use xlink:href="#DejaVuSans-2212"/>
       <use xlink:href="#DejaVuSans-35" x="83.789062"/>
      </g>
     </g>
    </g>
    <g id="ytick_3">
     <g id="line2d_21">
      <path d="M 38.502813 164.77432 
L 596.502813 164.77432 
" clip-path="url(#p3ad79ed178)" style="fill: none; stroke-dasharray: 0.8,1.32; stroke-dashoffset: 0; stroke: #000000; stroke-opacity: 0.5; stroke-width: 0.8"/>
     </g>
     <g id="line2d_22">
      <g>
       <use xlink:href="#m0bee3e1c19" x="38.502813" y="164.77432" style="stroke: #000000; stroke-width: 0.8"/>
      </g>
     </g>
     <g id="text_12">
      <!-- 0 -->
      <g transform="translate(25.140313 168.573539) scale(0.1 -0.1)">
       <use xlink:href="#DejaVuSans-30"/>
      </g>
     </g>
    </g>
    <g id="ytick_4">
     <g id="line2d_23">
      <path d="M 38.502813 125.209577 
L 596.502813 125.209577 
" clip-path="url(#p3ad79ed178)" style="fill: none; stroke-dasharray: 0.8,1.32; stroke-dashoffset: 0; stroke: #000000; stroke-opacity: 0.5; stroke-width: 0.8"/>
     </g>
     <g id="line2d_24">
      <g>
       <use xlink:href="#m0bee3e1c19" x="38.502813" y="125.209577" style="stroke: #000000; stroke-width: 0.8"/>
      </g>
     </g>
     <g id="text_13">
      <!-- 5 -->
      <g transform="translate(25.140313 129.008796) scale(0.1 -0.1)">
       <use xlink:href="#DejaVuSans-35"/>
      </g>
     </g>
    </g>
    <g id="ytick_5">
     <g id="line2d_25">
      <path d="M 38.502813 85.644834 
L 596.502813 85.644834 
" clip-path="url(#p3ad79ed178)" style="fill: none; stroke-dasharray: 0.8,1.32; stroke-dashoffset: 0; stroke: #000000; stroke-opacity: 0.5; stroke-width: 0.8"/>
     </g>
     <g id="line2d_26">
      <g>
       <use xlink:href="#m0bee3e1c19" x="38.502813" y="85.644834" style="stroke: #000000; stroke-width: 0.8"/>
      </g>
     </g>
     <g id="text_14">
      <!-- 10 -->
      <g transform="translate(18.777813 89.444053) scale(0.1 -0.1)">
       <use xlink:href="#DejaVuSans-31"/>
       <use xlink:href="#DejaVuSans-30" x="63.623047"/>
      </g>
     </g>
    </g>
    <g id="ytick_6">
     <g id="line2d_27">
      <path d="M 38.502813 46.080091 
L 596.502813 46.080091 
" clip-path="url(#p3ad79ed178)" style="fill: none; stroke-dasharray: 0.8,1.32; stroke-dashoffset: 0; stroke: #000000; stroke-opacity: 0.5; stroke-width: 0.8"/>
     </g>
     <g id="line2d_28">
      <g>
       <use xlink:href="#m0bee3e1c19" x="38.502813" y="46.080091" style="stroke: #000000; stroke-width: 0.8"/>
      </g>
     </g>
     <g id="text_15">
      <!-- 15 -->
      <g transform="translate(18.777813 49.87931) scale(0.1 -0.1)">
       <use xlink:href="#DejaVuSans-31"/>
       <use xlink:href="#DejaVuSans-35" x="63.623047"/>
      </g>
     </g>
    </g>
    <g id="ytick_7">
     <g id="line2d_29">
      <path d="M 38.502813 6.515348 
L 596.502813 6.515348 
" clip-path="url(#p3ad79ed178)" style="fill: none; stroke-dasharray: 0.8,1.32; stroke-dashoffset: 0; stroke: #000000; stroke-opacity: 0.5; stroke-width: 0.8"/>
     </g>
     <g id="line2d_30">
      <g>
       <use xlink:href="#m0bee3e1c19" x="38.502813" y="6.515348" style="stroke: #000000; stroke-width: 0.8"/>
      </g>
     </g>
     <g id="text_16">
      <!-- 20 -->
      <g transform="translate(18.777813 10.314567) scale(0.1 -0.1)">
       <use xlink:href="#DejaVuSans-32"/>
       <use xlink:href="#DejaVuSans-30" x="63.623047"/>
      </g>
     </g>
    </g>
    <g id="text_17">
     <!-- Drehmoment [Nm] -->
     <g transform="translate(8.318438 186.465313) rotate(-90) scale(0.1 -0.1)">
      <defs>
       <path id="DejaVuSans-44" d="M 1259 4147 
L 1259 519 
L 2022 519 
Q 2988 519 3436 956 
Q 3884 1394 3884 2338 
Q 3884 3275 3436 3711 
Q 2988 4147 2022 4147 
L 1259 4147 
z
M 628 4666 
L 1925 4666 
Q 3281 4666 3915 4102 
Q 4550 3538 4550 2338 
Q 4550 1131 3912 565 
Q 3275 0 1925 0 
L 628 0 
L 628 4666 
z
" transform="scale(0.015625)"/>
       <path id="DejaVuSans-72" d="M 2631 2963 
Q 2534 3019 2420 3045 
Q 2306 3072 2169 3072 
Q 1681 3072 1420 2755 
Q 1159 2438 1159 1844 
L 1159 0 
L 581 0 
L 581 3500 
L 1159 3500 
L 1159 2956 
Q 1341 3275 1631 3429 
Q 1922 3584 2338 3584 
Q 2397 3584 2469 3576 
Q 2541 3569 2628 3553 
L 2631 2963 
z
" transform="scale(0.015625)"/>
       <path id="DejaVuSans-68" d="M 3513 2113 
L 3513 0 
L 2938 0 
L 2938 2094 
Q 2938 2591 2744 2837 
Q 2550 3084 2163 3084 
Q 1697 3084 1428 2787 
Q 1159 2491 1159 1978 
L 1159 0 
L 581 0 
L 581 4863 
L 1159 4863 
L 1159 2956 
Q 1366 3272 1645 3428 
Q 1925 3584 2291 3584 
Q 2894 3584 3203 3211 
Q 3513 2838 3513 2113 
z
" transform="scale(0.015625)"/>
       <path id="DejaVuSans-6d" d="M 3328 2828 
Q 3544 3216 3844 3400 
Q 4144 3584 4550 3584 
Q 5097 3584 5394 3201 
Q 5691 2819 5691 2113 
L 5691 0 
L 5113 0 
L 5113 2094 
Q 5113 2597 4934 2840 
Q 4756 3084 4391 3084 
Q 3944 3084 3684 2787 
Q 3425 2491 3425 1978 
L 3425 0 
L 2847 0 
L 2847 2094 
Q 2847 2600 2669 2842 
Q 2491 3084 2119 3084 
Q 1678 3084 1418 2786 
Q 1159 2488 1159 1978 
L 1159 0 
L 581 0 
L 581 3500 
L 1159 3500 
L 1159 2956 
Q 1356 3278 1631 3431 
Q 1906 3584 2284 3584 
Q 2666 3584 2933 3390 
Q 3200 3197 3328 2828 
z
" transform="scale(0.015625)"/>
       <path id="DejaVuSans-6f" d="M 1959 3097 
Q 1497 3097 1228 2736 
Q 959 2375 959 1747 
Q 959 1119 1226 758 
Q 1494 397 1959 397 
Q 2419 397 2687 759 
Q 2956 1122 2956 1747 
Q 2956 2369 2687 2733 
Q 2419 3097 1959 3097 
z
M 1959 3584 
Q 2709 3584 3137 3096 
Q 3566 2609 3566 1747 
Q 3566 888 3137 398 
Q 2709 -91 1959 -91 
Q 1206 -91 779 398 
Q 353 888 353 1747 
Q 353 2609 779 3096 
Q 1206 3584 1959 3584 
z
" transform="scale(0.015625)"/>
       <path id="DejaVuSans-6e" d="M 3513 2113 
L 3513 0 
L 2938 0 
L 2938 2094 
Q 2938 2591 2744 2837 
Q 2550 3084 2163 3084 
Q 1697 3084 1428 2787 
Q 1159 2491 1159 1978 
L 1159 0 
L 581 0 
L 581 3500 
L 1159 3500 
L 1159 2956 
Q 1366 3272 1645 3428 
Q 1925 3584 2291 3584 
Q 2894 3584 3203 3211 
Q 3513 2838 3513 2113 
z
" transform="scale(0.015625)"/>
       <path id="DejaVuSans-4e" d="M 628 4666 
L 1478 4666 
L 3547 763 
L 3547 4666 
L 4159 4666 
L 4159 0 
L 3309 0 
L 1241 3903 
L 1241 0 
L 628 0 
L 628 4666 
z
" transform="scale(0.015625)"/>
      </defs>
      <use xlink:href="#DejaVuSans-44"/>
      <use xlink:href="#DejaVuSans-72" x="77.001953"/>
      <use xlink:href="#DejaVuSans-65" x="115.865234"/>
      <use xlink:href="#DejaVuSans-68" x="177.388672"/>
      <use xlink:href="#DejaVuSans-6d" x="240.767578"/>
      <use xlink:href="#DejaVuSans-6f" x="338.179688"/>
      <use xlink:href="#DejaVuSans-6d" x="399.361328"/>
      <use xlink:href="#DejaVuSans-65" x="496.773438"/>
      <use xlink:href="#DejaVuSans-6e" x="558.296875"/>
      <use xlink:href="#DejaVuSans-74" x="621.675781"/>
      <use xlink:href="#DejaVuSans-20" x="660.884766"/>
      <use xlink:href="#DejaVuSans-5b" x="692.671875"/>
      <use xlink:href="#DejaVuSans-4e" x="731.685547"/>
      <use xlink:href="#DejaVuSans-6d" x="806.490234"/>
      <use xlink:href="#DejaVuSans-5d" x="903.902344"/>
     </g>
    </g>
   </g>
   <g id="line2d_31">
    <path d="M 38.502813 164.773005 
L 84.884266 164.77287 
L 117.130896 164.771884 
L 133.269134 164.773615 
L 152.532825 164.77227 
L 185.79372 164.773235 
L 223.248476 164.772383 
L 223.554257 160.96468 
L 223.732051 165.059253 
L 224.048213 164.78 
L 224.26118 164.957943 
L 224.498476 166.264906 
L 224.738977 166.190562 
L 225.274355 164.66859 
L 225.513956 165.249534 
L 225.75103 164.06598 
L 225.988789 165.681736 
L 226.226817 163.217733 
L 226.525541 164.132312 
L 226.707352 166.434089 
L 227.004147 164.339521 
L 227.184451 164.592895 
L 227.422827 163.112297 
L 227.479239 165.614461 
L 227.717393 164.479458 
L 227.956897 164.161608 
L 228.194151 164.559979 
L 228.491933 166.123589 
L 228.730952 165.156487 
L 228.972776 164.962394 
L 229.211707 163.165946 
L 229.507621 164.695223 
L 229.998628 164.622 
L 230.173069 165.468957 
L 230.408796 165.373581 
L 230.705939 165.649574 
L 230.945101 164.336763 
L 231.242363 163.477885 
L 231.630147 164.571201 
L 231.663719 166.62451 
L 232.316057 163.720037 
L 232.434509 165.68873 
L 232.915984 164.353992 
L 233.208451 163.964625 
L 233.387885 162.640945 
L 233.626662 164.891636 
L 233.864567 163.620752 
L 234.163673 165.473332 
L 234.459871 162.984382 
L 234.638675 165.13062 
L 235.11598 163.625205 
L 235.432665 164.397839 
L 235.72695 164.216067 
L 235.906757 163.89207 
L 236.084479 164.478751 
L 236.384217 163.838589 
L 236.621287 163.650133 
L 237.157824 163.590449 
L 237.695023 164.749827 
L 237.874902 165.607867 
L 238.290534 163.813823 
L 238.35076 165.187378 
L 238.589264 164.606613 
L 238.828455 165.008627 
L 239.065068 164.013233 
L 239.305311 164.561608 
L 239.549082 164.020456 
L 240.023237 166.035108 
L 240.317181 164.50459 
L 240.614551 164.073384 
L 240.793797 164.771581 
L 241.151839 164.518309 
L 241.389884 163.318731 
L 241.569338 164.65974 
L 241.806632 164.140962 
L 242.044896 164.419208 
L 242.344062 164.424506 
L 242.641746 165.083279 
L 242.939843 164.858426 
L 243.118815 164.125926 
L 243.836562 164.671457 
L 244.253567 163.340881 
L 244.531837 164.429583 
L 244.760099 164.561574 
L 244.998784 165.03629 
L 245.503869 164.331881 
L 245.741822 164.521818 
L 246.202726 164.221798 
L 246.460816 164.617884 
L 246.754794 164.408452 
L 246.994239 164.449765 
L 247.232263 165.734891 
L 247.469526 164.965645 
L 247.708076 164.683911 
L 248.125328 163.584115 
L 248.543255 165.684138 
L 248.848689 163.98985 
L 249.020847 164.329816 
L 249.530817 164.64852 
L 249.91722 164.117225 
L 250.176782 164.332622 
L 250.454559 164.745982 
L 250.69308 166.045371 
L 250.990238 164.079262 
L 251.171156 164.168704 
L 251.466717 163.306 
L 251.705896 163.378283 
L 252.004037 165.016362 
L 252.243865 164.870239 
L 252.425758 163.672986 
L 252.66071 164.34486 
L 252.958474 165.733821 
L 253.137428 164.451131 
L 253.437262 163.536653 
L 253.732822 164.785657 
L 253.912799 164.760008 
L 254.151034 165.066859 
L 254.390353 163.787116 
L 254.629948 164.601643 
L 254.866171 164.124142 
L 255.283195 165.163156 
L 255.64118 163.336094 
L 255.702331 165.132256 
L 255.879236 164.110146 
L 256.357 164.966123 
L 256.596713 163.728057 
L 257.013573 163.645459 
L 257.134596 165.054583 
L 257.430682 163.383026 
L 257.61066 164.848051 
L 257.848051 164.819317 
L 258.20509 164.158322 
L 258.445132 164.233317 
L 258.577231 163.092961 
L 258.859825 164.731112 
L 259.158214 163.183685 
L 259.487917 164.6521 
L 259.730147 164.555043 
L 259.876027 163.563524 
L 260.173233 163.7517 
L 260.294447 164.278976 
L 260.591149 163.560115 
L 260.949329 163.935382 
L 261.322962 164.55954 
L 261.490067 163.788508 
L 261.602805 164.140554 
L 261.975746 164.261555 
L 262.086563 163.898772 
L 262.55622 164.600476 
L 262.794199 165.681485 
L 263.151773 165.467981 
L 263.330837 163.266644 
L 263.7477 163.855025 
L 263.866901 163.663576 
L 264.105397 163.990575 
L 264.285849 163.925253 
L 264.643203 164.230604 
L 265.058864 164.126328 
L 265.299527 165.162597 
L 265.714773 163.735846 
L 265.955612 164.425351 
L 266.191948 162.880239 
L 266.252174 164.8336 
L 266.48981 165.147253 
L 266.788459 164.676682 
L 267.09442 165.061317 
L 267.324829 164.185814 
L 267.563622 163.816398 
L 268.099501 164.72622 
L 268.338011 163.568141 
L 268.532791 163.851188 
L 268.756773 164.994917 
L 269.017167 164.166811 
L 269.233644 164.467138 
L 269.530633 165.550453 
L 269.887378 165.279295 
L 270.125731 165.46267 
L 270.245132 164.854432 
L 270.661966 164.206324 
L 270.723 163.422301 
L 270.960397 164.169868 
L 271.318588 164.75914 
L 271.561653 163.364527 
L 271.735812 164.652578 
L 271.975033 164.512116 
L 272.273994 164.997635 
L 272.689423 163.866709 
L 272.927961 164.542002 
L 273.17533 163.215985 
L 273.464189 164.265193 
L 273.643316 164.138283 
L 273.969451 164.427417 
L 274.219372 163.973601 
L 274.658263 163.918995 
L 275.037647 164.407144 
L 275.313574 164.339368 
L 275.437851 165.325449 
L 275.791628 165.070111 
L 275.91339 163.828635 
L 276.20821 164.598492 
L 276.393789 164.479921 
L 276.812326 164.812923 
L 277.162083 165.408807 
L 277.590469 163.537716 
L 277.939041 164.166862 
L 278.12053 163.748692 
L 278.475781 164.928534 
L 278.624491 164.012457 
L 278.955747 165.146522 
L 279.193852 164.952344 
L 279.612332 164.48977 
L 279.907556 164.05553 
L 280.086959 164.245383 
L 280.384925 163.821745 
L 280.623809 163.931223 
L 280.980465 163.120821 
L 281.1601 164.591161 
L 281.457142 163.793843 
L 281.594071 164.095857 
L 281.873928 163.987424 
L 282.056615 164.350026 
L 282.113657 163.275074 
L 282.533731 164.196633 
L 282.828435 163.378974 
L 283.068365 163.345177 
L 283.306338 163.617213 
L 283.66432 164.667757 
L 284.088847 163.620956 
L 284.319934 164.383758 
L 284.856401 163.867923 
L 285.034625 163.339166 
L 285.276257 163.842614 
L 285.690436 164.123233 
L 285.810779 163.575564 
L 286.048783 164.584843 
L 286.292195 163.454674 
L 286.526687 164.458092 
L 286.769413 163.430707 
L 287.007247 164.882071 
L 287.262421 163.827535 
L 287.484106 165.326526 
L 287.900764 164.082093 
L 288.024509 162.758956 
L 288.259375 163.926903 
L 288.497522 163.177275 
L 288.736219 163.972839 
L 289.035046 164.487173 
L 289.24077 164.565404 
L 289.455069 162.365522 
L 289.811148 163.656527 
L 290.227704 164.276756 
L 290.347633 163.871597 
L 290.465879 164.21411 
L 290.883363 163.513665 
L 290.948755 163.875754 
L 291.225488 164.046909 
L 291.495528 164.912386 
L 291.679836 164.177944 
L 292.13465 163.763235 
L 292.194976 162.669593 
L 292.432576 163.777775 
L 292.730948 163.851086 
L 292.969282 164.296733 
L 293.207555 163.74648 
L 293.504983 163.672232 
L 293.689059 164.062557 
L 293.924229 163.775273 
L 294.221147 165.658246 
L 294.466574 164.114225 
L 294.698997 164.953354 
L 294.878318 163.81512 
L 295.173661 164.762404 
L 295.717231 163.001631 
L 295.948103 164.221892 
L 296.19442 163.900949 
L 296.426372 163.949397 
L 296.607631 163.795886 
L 296.961851 164.036639 
L 297.152314 163.853626 
L 297.438974 163.213292 
L 297.620443 164.050418 
L 297.929888 163.539953 
L 298.095365 164.537251 
L 298.335465 163.889727 
L 298.632709 164.605928 
L 298.870236 162.925168 
L 299.108436 165.119764 
L 299.60655 163.906092 
L 299.827215 164.005131 
L 300.182774 164.802007 
L 300.361705 164.706592 
L 300.600166 163.749142 
L 300.854175 163.796404 
L 301.079765 163.532617 
L 301.494049 163.304756 
L 301.613328 164.199588 
L 301.911255 162.709236 
L 302.09056 164.379917 
L 302.447614 163.442802 
L 302.626399 165.044701 
L 302.80676 162.356394 
L 303.043886 164.125732 
L 303.341324 164.111909 
L 303.54503 164.452975 
L 303.826118 163.89866 
L 304.119111 164.234175 
L 304.41641 164.141959 
L 304.595673 163.543062 
L 304.95287 164.258251 
L 305.252232 164.408125 
L 305.548602 163.216518 
L 305.846457 164.575533 
L 306.02906 163.02929 
L 306.385283 163.09354 
L 306.562027 165.558188 
L 306.801509 164.127318 
L 306.996024 164.237435 
L 307.281744 163.679536 
L 307.656728 163.949155 
L 307.900046 163.963521 
L 308.067971 163.16173 
L 308.299126 164.895527 
L 308.537897 164.012312 
L 308.839248 164.24002 
L 309.086734 164.281537 
L 309.455479 164.071586 
L 309.930311 163.556243 
L 310.001814 164.070204 
L 310.28921 163.871042 
L 310.527271 164.188212 
L 310.708003 164.120747 
L 311.063774 164.599031 
L 311.242711 163.643225 
L 311.611583 163.321818 
L 312.017687 164.53349 
L 312.375319 163.136252 
L 312.501747 163.877869 
L 313.090224 164.440552 
L 313.212638 169.489373 
L 313.568273 169.586984 
L 313.805492 169.302122 
L 314.235778 166.266297 
L 314.58015 166.277492 
L 314.701814 165.316747 
L 314.938888 165.221674 
L 315.237717 164.788044 
L 315.594079 164.725368 
L 315.682591 164.590759 
L 316.016983 164.89259 
L 316.33419 164.932693 
L 316.452034 163.921082 
L 316.695304 164.71817 
L 316.995565 164.098284 
L 317.110027 164.780231 
L 317.410895 164.556584 
L 317.763281 164.916163 
L 318.180102 164.834936 
L 318.359189 165.009185 
L 318.718927 164.419359 
L 318.959086 164.452095 
L 319.49789 165.126636 
L 319.614865 164.839061 
L 319.910478 165.299081 
L 320.14826 164.871879 
L 320.624731 164.633604 
L 320.864807 164.797609 
L 321.102007 164.298012 
L 321.340325 164.658116 
L 321.584298 164.735998 
L 321.878065 164.209504 
L 322.357206 164.770573 
L 322.592008 164.845038 
L 323.070052 164.815647 
L 323.310491 164.812245 
L 323.548541 165.172199 
L 324.50419 165.011578 
L 324.569671 164.510557 
L 324.802157 164.804528 
L 325.454334 164.756974 
L 325.633327 164.639516 
L 325.812051 164.828528 
L 326.051482 164.407415 
L 326.294583 164.498237 
L 326.530758 164.745421 
L 326.852363 164.578445 
L 327.242305 164.874758 
L 327.301953 164.717966 
L 327.540635 164.82288 
L 327.778986 164.790234 
L 328.256505 164.928506 
L 328.495475 164.416769 
L 328.794246 165.042263 
L 329.171816 164.777673 
L 329.275333 164.977655 
L 329.508337 165.16123 
L 329.745474 164.537902 
L 330.282264 164.796196 
L 330.580948 164.791321 
L 330.761294 165.015076 
L 331.057073 164.83854 
L 331.312423 165.081827 
L 331.798258 164.673697 
L 332.018819 164.887818 
L 332.487919 164.835844 
L 332.725398 164.994167 
L 333.024265 164.790686 
L 333.502737 164.982476 
L 333.741417 164.718946 
L 334.226045 165.025745 
L 334.581092 164.595531 
L 335.022935 164.839761 
L 335.231468 164.824719 
L 335.709664 165.176504 
L 335.971918 165.065723 
L 336.184852 164.716724 
L 336.663453 164.692137 
L 336.900926 164.906817 
L 337.437428 164.66817 
L 337.736454 164.890478 
L 337.916816 164.797584 
L 338.161358 164.419321 
L 338.54477 165.014901 
L 338.658091 164.710452 
L 338.991294 164.853521 
L 339.29103 164.418826 
L 339.410048 164.866752 
L 340.421547 164.65465 
L 340.719728 165.102123 
L 340.898441 164.869515 
L 341.13678 164.773463 
L 341.375437 164.84809 
L 341.615004 164.686111 
L 341.917182 164.979856 
L 342.091832 164.989642 
L 342.390217 164.678662 
L 343.224194 165.116816 
L 343.364331 164.798885 
L 344.654162 164.80555 
L 344.835051 164.921743 
L 345.073439 164.832578 
L 345.609531 164.98048 
L 345.793405 164.582791 
L 346.084919 164.868832 
L 346.386542 164.865002 
L 346.623265 164.533758 
L 346.800697 164.972933 
L 347.046882 164.769806 
L 347.336523 164.690868 
L 348.051726 164.807168 
L 349.025631 164.792563 
L 349.25029 164.983017 
L 349.603408 164.78765 
L 350.26536 164.716944 
L 350.557034 164.310652 
L 350.855204 164.903865 
L 351.332358 164.718749 
L 351.510253 164.399635 
L 351.86755 165.182755 
L 352.048182 164.741133 
L 352.34541 164.916585 
L 352.643325 164.752499 
L 353.001631 165.14167 
L 353.358236 164.724557 
L 353.777296 164.769752 
L 354.192068 164.472954 
L 354.49016 164.997702 
L 354.729169 164.793283 
L 355.26572 164.774934 
L 355.563366 164.798503 
L 355.691361 165.113836 
L 355.993376 164.800044 
L 356.230389 164.793925 
L 356.695564 165.140395 
L 357.11492 165.103419 
L 357.232346 164.702916 
L 357.414082 164.820892 
L 358.067321 164.834156 
L 358.200121 164.935277 
L 358.619507 164.797306 
L 358.726755 164.968692 
L 358.964857 164.986428 
L 359.203431 164.75066 
L 359.918637 164.765018 
L 360.464925 165.07094 
L 360.754514 164.46836 
L 360.876193 165.020272 
L 361.129106 164.834497 
L 361.415503 164.992459 
L 361.661674 164.782208 
L 362.185637 164.867627 
L 362.424082 164.655513 
L 362.950189 165.004806 
L 363.20353 164.411488 
L 363.423447 164.822917 
L 363.622003 164.750593 
L 363.916371 165.12035 
L 364.630544 164.761531 
L 365.107627 164.791531 
L 365.345698 164.850855 
L 365.643635 164.363043 
L 365.941582 164.773568 
L 366.120566 164.737754 
L 366.430486 165.109858 
L 366.661699 164.798518 
L 367.613202 164.797574 
L 367.848153 164.968594 
L 368.164973 164.986246 
L 368.328014 164.721331 
L 368.629685 165.078029 
L 368.92628 164.796726 
L 369.34484 164.819202 
L 369.529356 164.704409 
L 369.821758 164.718707 
L 370.240307 164.330515 
L 370.360723 164.917881 
L 370.778089 164.757245 
L 371.015218 164.826469 
L 371.312315 165.097099 
L 371.555098 164.852463 
L 372.325578 164.834128 
L 372.861574 165.042554 
L 373.397043 164.749287 
L 373.93445 165.130561 
L 373.993192 164.127058 
L 374.356468 164.744103 
L 374.71244 164.837196 
L 375.245909 164.763939 
L 375.486534 164.970043 
L 376.021182 164.794113 
L 376.325316 164.95378 
L 376.501063 164.349813 
L 376.735908 164.745978 
L 377.275259 164.763161 
L 377.454122 165.177925 
L 377.691085 165.130359 
L 377.97089 164.734525 
L 378.705786 164.795166 
L 379.003346 165.128836 
L 379.182787 164.788552 
L 379.541591 164.863796 
L 379.77876 164.595485 
L 379.957593 164.706506 
L 380.315476 164.747145 
L 380.43452 164.916892 
L 382.170296 164.792819 
L 382.401177 164.656545 
L 382.640935 164.970551 
L 382.938268 164.725482 
L 383.116642 164.853107 
L 383.653191 164.796754 
L 383.891272 165.054348 
L 384.130172 164.766017 
L 384.36784 164.714009 
L 385.141968 165.123419 
L 385.442062 164.811317 
L 385.737779 164.769819 
L 385.982328 164.547432 
L 386.154941 165.069913 
L 386.633083 164.81662 
L 387.288124 164.793451 
L 387.408358 165.186185 
L 387.704159 164.536165 
L 387.883735 164.8252 
L 388.12156 164.814379 
L 388.360572 165.101506 
L 388.83674 164.788587 
L 389.078696 164.743772 
L 389.673069 164.794889 
L 389.85151 164.798242 
L 390.209139 164.798658 
L 390.327434 164.955923 
L 390.566718 164.74586 
L 390.866233 164.332153 
L 391.578394 164.784468 
L 392.061414 164.825568 
L 392.294363 164.619773 
L 392.534085 165.060932 
L 393.014287 164.763306 
L 393.427847 165.104762 
L 393.65145 164.558507 
L 393.785792 164.748573 
L 394.798172 164.741767 
L 395.156539 164.874788 
L 395.275553 165.061887 
L 395.817442 164.860231 
L 396.050757 164.96015 
L 396.709418 164.760813 
L 397.24286 164.764308 
L 397.480824 165.024883 
L 397.839129 164.791114 
L 398.01748 164.891361 
L 398.255879 164.826884 
L 398.493969 165.099691 
L 398.732782 164.793402 
L 399.032184 164.773851 
L 399.629341 164.884216 
L 399.867123 164.447291 
L 399.986143 165.019627 
L 400.464749 164.717434 
L 400.710246 164.944241 
L 401.000306 165.018913 
L 401.240795 164.749015 
L 401.476641 164.713792 
L 401.775515 164.836533 
L 401.955105 164.760373 
L 402.253688 164.366414 
L 402.431344 164.983593 
L 402.669635 164.770018 
L 403.206332 164.888312 
L 403.397622 164.484987 
L 403.633589 164.780938 
L 403.922551 164.851087 
L 404.402506 164.727399 
L 404.641312 164.911131 
L 404.947887 164.420791 
L 405.175669 164.820855 
L 405.65268 164.693391 
L 405.894417 164.373135 
L 406.132636 164.758589 
L 406.426561 164.747547 
L 406.667313 164.879286 
L 406.963223 164.823394 
L 407.144113 164.290335 
L 407.380891 164.361414 
L 407.619993 164.850385 
L 407.860801 164.81204 
L 408.217822 164.942564 
L 408.398363 164.304191 
L 408.636507 164.791775 
L 409.234688 164.731663 
L 409.470635 165.019216 
L 409.589722 164.429283 
L 409.829013 164.385023 
L 410.126347 164.848352 
L 410.42592 164.828444 
L 410.606015 164.696912 
L 410.844374 164.917979 
L 411.320402 164.84173 
L 411.619643 164.830793 
L 411.857209 164.683667 
L 412.096215 165.138349 
L 412.58546 164.85195 
L 413.062343 164.646783 
L 413.456757 165.033352 
L 413.584819 164.680332 
L 414.11483 164.846413 
L 414.472681 164.831855 
L 414.533583 165.105388 
L 414.830286 164.723153 
L 416.563927 164.806838 
L 416.805148 164.618755 
L 417.002271 164.922752 
L 417.276707 164.618908 
L 418.054464 164.861087 
L 419.126668 164.772928 
L 419.305279 165.016576 
L 419.724077 165.063249 
L 419.962564 164.816905 
L 420.501517 164.829041 
L 420.738015 164.551937 
L 420.975057 164.813915 
L 422.225812 164.673694 
L 422.234324 167.608666 
L 422.468961 164.756848 
L 422.825214 165.08255 
L 423.004989 164.968622 
L 423.252127 164.95885 
L 423.484338 164.760671 
L 423.840978 164.753355 
L 423.960579 164.991852 
L 424.145321 164.762894 
L 424.43705 164.700069 
L 424.675708 164.797657 
L 425.155055 164.706164 
L 425.574673 164.331192 
L 425.629286 165.109776 
L 425.988437 164.812869 
L 426.40654 164.794574 
L 427.065099 164.80535 
L 427.190077 164.952681 
L 427.445399 164.765918 
L 427.659166 165.080606 
L 427.90644 165.042783 
L 427.958088 164.69335 
L 428.19698 164.547279 
L 428.436409 164.797863 
L 428.619145 164.698764 
L 428.8559 164.815754 
L 429.151322 164.802489 
L 429.628082 164.290801 
L 430.10485 165.171079 
L 430.344322 165.202498 
L 430.903823 164.787428 
L 431.121983 164.770972 
L 431.357652 161.522908 
L 431.597523 162.983514 
L 432.328044 163.936933 
L 432.561897 163.639566 
L 432.821237 164.238662 
L 433.156978 164.418216 
L 433.463552 164.900342 
L 433.87843 164.745899 
L 434.121676 165.330663 
L 434.414608 165.087898 
L 434.534949 165.228753 
L 434.776173 164.892385 
L 435.198864 165.552106 
L 435.318081 165.269465 
L 436.163582 164.9893 
L 436.324342 165.356433 
L 436.627299 164.944121 
L 436.862153 165.074505 
L 437.100266 165.350187 
L 437.400723 164.796581 
L 437.640155 165.486378 
L 437.947846 164.804863 
L 438.091135 164.932608 
L 438.242412 164.734935 
L 438.507695 165.204913 
L 439.093849 165.33222 
L 439.259491 165.757192 
L 439.609454 165.200115 
L 439.813723 165.481819 
L 440.027646 164.880604 
L 440.505242 165.602918 
L 440.743769 165.298362 
L 440.985603 165.692434 
L 441.360449 165.58517 
L 441.460589 165.315223 
L 441.817555 165.533381 
L 441.996582 165.357609 
L 442.261655 165.5684 
L 442.476381 166.096069 
L 442.882088 165.095586 
L 443.119643 165.433863 
L 443.306995 165.424183 
L 443.537398 166.086663 
L 444.01571 165.282456 
L 444.670741 165.974844 
L 444.792607 165.586523 
L 445.029606 165.296966 
L 445.21114 165.532756 
L 445.566243 165.75796 
L 445.69185 165.32807 
L 446.223006 165.922127 
L 446.46149 165.613706 
L 446.93948 166.267143 
L 447.182432 165.763731 
L 447.4174 166.077145 
L 447.656135 166.059685 
L 447.904892 165.615484 
L 448.437338 165.901043 
L 449.152725 165.639368 
L 449.392189 166.256378 
L 449.89612 165.902856 
L 450.16705 165.98545 
L 450.46407 165.71842 
L 450.761942 166.035413 
L 450.94209 165.705016 
L 451.180519 166.165368 
L 451.839194 165.978524 
L 452.077357 166.134643 
L 452.326715 166.520418 
L 452.613173 166.056862 
L 452.864845 165.964877 
L 453.098099 166.278238 
L 453.469682 166.144871 
L 453.632802 166.417339 
L 453.689602 166.340901 
L 453.809319 166.031048 
L 454.134366 165.939096 
L 454.345201 166.235458 
L 454.765606 166.340143 
L 454.847127 166.133055 
L 455.071869 165.982304 
L 455.300727 166.789816 
L 455.539853 166.135275 
L 456.387019 166.048988 
L 456.566905 166.638155 
L 456.984034 166.70171 
L 457.044693 166.466031 
L 457.462645 166.841692 
L 457.700957 166.379344 
L 457.762486 166.50205 
L 458.176246 166.676173 
L 458.295734 165.984365 
L 458.535771 166.515985 
L 459.18988 166.59576 
L 459.548312 166.489061 
L 459.792529 166.662416 
L 459.846799 166.434798 
L 460.026983 166.698967 
L 460.264394 166.842945 
L 460.801349 166.256321 
L 460.981197 166.631477 
L 461.300883 166.595968 
L 461.461133 166.384723 
L 461.759676 167.060985 
L 461.997667 166.721723 
L 462.240011 166.867353 
L 462.535859 166.564051 
L 462.954361 166.499663 
L 463.252644 166.938696 
L 463.439137 166.869609 
L 463.848593 167.092846 
L 463.995751 166.951943 
L 464.210024 166.498064 
L 464.468285 166.801017 
L 464.68398 166.774693 
L 464.923343 166.60403 
L 465.170704 167.135138 
L 465.469677 167.114781 
L 466.009353 166.452957 
L 466.243917 167.029318 
L 466.663185 166.816279 
L 466.961408 167.398312 
L 467.199234 167.063748 
L 467.744427 167.042077 
L 467.921045 167.691592 
L 468.454257 166.84933 
L 468.761166 167.313293 
L 468.931187 166.783636 
L 469.179483 167.221295 
L 469.893371 166.881374 
L 470.128335 167.307852 
L 470.435389 167.359267 
L 470.683137 167.277048 
L 470.906718 166.965872 
L 471.143739 167.450604 
L 471.389817 167.404362 
L 471.682015 166.979793 
L 471.865224 167.561451 
L 472.16172 167.26535 
L 472.636186 167.236332 
L 473.400235 167.645191 
L 473.868197 167.117721 
L 474.645427 167.687003 
L 474.949827 167.672686 
L 475.125654 168.025805 
L 475.315542 167.454312 
L 475.601585 167.521839 
L 475.840459 168.04718 
L 476.555932 167.577702 
L 476.795462 167.817139 
L 477.212458 167.802251 
L 477.361592 167.456834 
L 477.868828 167.821812 
L 478.345862 167.958148 
L 478.643526 167.930443 
L 478.775738 167.772474 
L 479.035221 167.808258 
L 479.305237 168.028121 
L 479.798874 167.93816 
L 480.01865 168.132217 
L 480.259337 167.274711 
L 480.639147 167.768669 
L 480.797255 167.573558 
L 481.032858 168.228813 
L 481.30086 168.154635 
L 481.817167 167.721251 
L 482.112202 168.076106 
L 482.54011 167.77718 
L 482.796157 168.09891 
L 483.087039 167.96031 
L 483.208624 168.400132 
L 483.799178 167.62183 
L 484.097273 168.145871 
L 484.216787 167.974905 
L 484.514676 168.165707 
L 484.761105 168.579838 
L 485.008903 168.129444 
L 485.230884 167.965636 
L 485.76882 167.999885 
L 486.007356 168.330818 
L 486.483328 168.214261 
L 486.721699 168.526006 
L 486.961225 168.238497 
L 487.206514 168.183634 
L 487.440359 168.312516 
L 487.677248 168.267369 
L 488.214516 168.72694 
L 488.455338 168.391706 
L 488.751713 168.755167 
L 489.288177 168.01315 
L 489.540319 168.371058 
L 489.706772 168.285444 
L 490.005091 168.430561 
L 490.242896 168.301164 
L 490.481391 168.425935 
L 490.683853 168.335419 
L 490.899752 168.739617 
L 491.201618 168.846818 
L 491.494573 168.395668 
L 491.913287 168.878422 
L 492.154206 168.226773 
L 492.390345 168.585718 
L 492.884784 168.524631 
L 493.122928 168.587251 
L 493.601015 168.418651 
L 493.66099 168.62814 
L 493.95881 168.244019 
L 494.141209 168.596529 
L 494.380638 168.748564 
L 494.614303 168.763107 
L 494.912142 168.605219 
L 495.391562 168.962367 
L 495.866611 168.816223 
L 496.169394 169.191228 
L 496.407336 168.701926 
L 496.644163 169.103702 
L 497.122047 168.832905 
L 497.32743 168.976073 
L 497.947291 169.083003 
L 498.144884 168.778837 
L 498.384535 169.1513 
L 498.621652 169.251154 
L 498.860584 168.881836 
L 499.099563 169.261902 
L 499.337413 168.920126 
L 499.576371 169.115092 
L 499.817608 169.468391 
L 500.113488 169.508579 
L 500.293182 168.735163 
L 500.609204 169.180095 
L 500.650281 168.969022 
L 500.829084 168.790093 
L 501.130331 169.246432 
L 501.604394 168.899991 
L 502.142852 169.612632 
L 502.321119 168.933722 
L 502.758604 169.232861 
L 503.051282 169.286656 
L 503.27591 169.554052 
L 503.515493 169.630171 
L 503.872555 169.420215 
L 504.229888 169.010764 
L 504.650095 169.273953 
L 504.707569 169.676474 
L 506.020268 169.536808 
L 506.569872 169.675088 
L 506.746757 169.385428 
L 506.993307 169.519999 
L 507.231373 169.217954 
L 507.475334 169.582587 
L 507.708032 169.707121 
L 508.190358 169.70405 
L 508.485193 169.910696 
L 508.787092 168.935962 
L 509.01986 169.779169 
L 509.275368 170.169955 
L 509.498512 169.635346 
L 509.921977 169.445923 
L 509.97473 169.791923 
L 510.21317 169.576925 
L 510.691646 169.691801 
L 510.932276 169.994934 
L 511.731757 169.788734 
L 511.94593 169.89972 
L 512.202575 169.690168 
L 512.662927 170.217463 
L 512.902669 169.397367 
L 513.214663 170.110544 
L 513.619081 169.608454 
L 513.68035 169.955554 
L 513.915563 169.687501 
L 514.571539 170.04107 
L 514.703169 169.61326 
L 514.890518 170.287796 
L 515.247869 169.32985 
L 515.468485 169.845542 
L 515.918439 170.199394 
L 516.15758 170.105161 
L 516.400242 170.295102 
L 516.762513 169.676693 
L 516.922212 170.13931 
L 517.159528 170.202485 
L 517.51651 170.062211 
L 517.702683 170.526162 
L 517.878201 170.073642 
L 518.173168 170.430716 
L 518.480489 170.064683 
L 518.951708 169.995059 
L 519.388449 170.383736 
L 519.725267 170.578849 
L 519.86004 170.433322 
L 520.439599 172.419535 
L 520.621899 171.273983 
L 520.859464 171.664916 
L 521.39507 171.661597 
L 521.637701 171.287806 
L 522.117242 171.036714 
L 522.827932 170.235808 
L 523.266623 170.249186 
L 523.497826 170.371402 
L 523.843711 170.285884 
L 524.380779 170.384406 
L 525.403427 170.456522 
L 527.314102 170.414156 
L 529.166701 170.407045 
L 529.284939 170.247278 
L 529.533417 170.411333 
L 530.664454 170.415897 
L 532.275662 170.413493 
L 540.393637 170.415545 
L 542.376781 170.414971 
L 580.001437 170.413732 
L 596.502813 170.413755 
L 596.502813 170.413755 
" clip-path="url(#p3ad79ed178)" style="fill: none; stroke: #0000ff; stroke-opacity: 0.5; stroke-width: 1.5; stroke-linecap: square"/>
   </g>
   <g id="line2d_32">
    <path d="M 38.502813 195.290398 
L 38.622916 194.064939 
L 38.865804 197.620805 
L 38.937 194.21644 
L 39.111017 193.991264 
L 39.417061 197.025511 
L 39.707596 196.138618 
L 39.885883 197.88733 
L 40.541846 194.864145 
L 40.601545 197.390099 
L 41.018884 196.705948 
L 41.257159 196.802247 
L 41.376814 196.996841 
L 41.559198 196.455164 
L 42.033407 197.362887 
L 42.091503 196.153739 
L 42.329583 195.030215 
L 42.628872 196.605373 
L 42.928055 197.287265 
L 43.164095 194.115799 
L 43.477718 197.497733 
L 43.581899 194.531939 
L 43.819883 198.024688 
L 44.060446 195.959505 
L 44.300935 194.997068 
L 44.599353 195.284219 
L 44.834047 197.274103 
L 45.07223 196.454634 
L 45.371049 194.45493 
L 45.857012 195.894911 
L 46.174796 198.523913 
L 46.328887 194.748836 
L 46.567049 196.877551 
L 46.805772 195.618555 
L 47.224756 199.314694 
L 47.405507 197.608726 
L 47.521373 199.291506 
L 47.766181 199.200524 
L 48.003493 198.564953 
L 48.244165 200.377454 
L 48.536913 199.511714 
L 49.14069 200.313786 
L 50.441813 200.478272 
L 51.746796 198.895311 
L 53.050949 196.453286 
L 54.356612 196.935518 
L 57.085405 199.060164 
L 58.50861 197.702352 
L 59.813793 199.733162 
L 59.954398 198.569724 
L 60.191841 200.117433 
L 60.430319 200.007323 
L 60.669155 200.252124 
L 60.966191 199.052882 
L 61.265892 194.089129 
L 61.681905 199.092803 
L 61.866132 194.774568 
L 62.104406 196.951757 
L 62.404 197.393617 
L 62.638974 192.085101 
L 62.936269 195.060546 
L 63.11617 199.74873 
L 63.356366 198.473228 
L 63.652931 197.972116 
L 63.846691 198.656855 
L 64.130974 196.460872 
L 64.426649 197.607835 
L 64.72558 200.01201 
L 64.844761 197.372089 
L 65.083776 201.627377 
L 65.323835 200.499665 
L 65.636208 195.497839 
L 66.108513 200.158532 
L 66.396826 196.820734 
L 66.578194 198.948012 
L 66.876601 199.167983 
L 66.934528 196.821941 
L 67.112748 195.044186 
L 67.414376 198.924887 
L 67.588886 198.191942 
L 67.829178 196.162023 
L 68.125305 196.266009 
L 68.423426 195.173444 
L 68.783671 192.462234 
L 69.019997 189.728252 
L 69.616891 198.367267 
L 70.095651 192.025532 
L 70.338534 196.398809 
L 70.523348 196.992212 
L 70.817845 193.743055 
L 71.292681 197.361927 
L 71.413207 202.606375 
L 72.070236 195.974258 
L 72.364771 195.059584 
L 72.604817 199.551435 
L 72.782636 199.381481 
L 73.442011 197.229231 
L 73.737273 196.789563 
L 73.796233 194.886583 
L 74.034856 195.004063 
L 74.273425 195.274032 
L 74.512377 198.632965 
L 74.809776 199.144755 
L 75.10756 194.931268 
L 75.350039 194.987447 
L 75.534701 196.770352 
L 75.716732 196.87684 
L 75.763801 197.417217 
L 76.299771 197.455248 
L 76.479259 198.347275 
L 76.779836 198.193369 
L 77.014868 193.31457 
L 77.211656 194.194204 
L 77.492991 198.425391 
L 77.731123 195.536442 
L 78.028409 193.430285 
L 78.208334 196.742955 
L 78.445703 196.695171 
L 78.984279 194.421388 
L 79.221395 194.800205 
L 79.46119 198.515454 
L 79.9365 194.119184 
L 80.48719 199.795459 
L 80.950854 193.690984 
L 81.192765 198.107637 
L 81.665653 200.34164 
L 81.913099 194.79185 
L 82.151222 198.758981 
L 82.441028 195.819661 
L 82.620686 192.514948 
L 82.859406 195.335777 
L 83.215747 201.03217 
L 83.394399 200.342782 
L 83.632494 193.955405 
L 83.872614 192.843291 
L 84.109856 197.828158 
L 84.411018 196.765749 
L 84.706152 192.799516 
L 85.123897 198.828673 
L 85.361288 199.405737 
L 85.600003 197.912447 
L 86.207889 196.95618 
L 86.732011 194.199687 
L 87.090643 201.479381 
L 87.329041 199.073811 
L 87.865826 189.972342 
L 88.103508 190.963716 
L 88.586765 199.02948 
L 89.00022 198.839608 
L 89.118231 199.302793 
L 89.536432 197.642949 
L 89.908761 194.04464 
L 90.012432 194.372068 
L 90.081212 196.822077 
L 90.668047 200.278268 
L 90.905672 199.608518 
L 91.263784 198.51105 
L 91.681363 197.126572 
L 92.038568 198.621379 
L 92.336147 197.717536 
L 92.754169 193.232941 
L 92.991265 192.662422 
L 93.289814 194.012528 
L 93.489754 197.603278 
L 93.826284 199.611371 
L 94.004867 197.322723 
L 94.305329 194.973797 
L 94.842115 203.556003 
L 95.019457 203.600953 
L 95.498953 199.613888 
L 95.89183 198.995975 
L 96.064357 197.305901 
L 96.454062 195.16255 
L 96.573099 195.188926 
L 96.69475 200.138426 
L 97.286052 192.817916 
L 97.48986 195.35968 
L 97.779913 201.250152 
L 98.063483 203.320584 
L 98.202731 199.388765 
L 98.47895 195.032886 
L 99.025598 199.654544 
L 99.325453 196.286782 
L 99.58166 195.76987 
L 99.795665 199.454716 
L 100.391 201.863361 
L 100.526244 195.799494 
L 101.868401 194.795715 
L 103.165642 196.236197 
L 104.594361 194.590467 
L 104.673559 187.630591 
L 104.853311 184.718324 
L 105.454112 191.829497 
L 105.687883 197.294045 
L 106.066219 201.390774 
L 106.305417 200.68197 
L 106.42681 197.994951 
L 106.688645 195.132666 
L 106.855494 195.084049 
L 107.089968 196.87946 
L 107.387998 200.596149 
L 107.688168 202.693436 
L 107.864974 202.546049 
L 108.164534 197.306743 
L 108.347806 190.819389 
L 108.640473 186.702883 
L 108.902733 188.534548 
L 109.117895 195.313417 
L 109.596272 203.156719 
L 110.375788 188.389923 
L 110.554204 190.029624 
L 111.052094 199.226739 
L 111.29097 198.914109 
L 111.577019 193.811664 
L 111.812008 192.155239 
L 112.049728 195.281643 
L 112.530576 204.925106 
L 112.792567 204.461783 
L 113.325136 201.275696 
L 113.421862 198.462302 
L 113.541144 198.249652 
L 113.788285 200.071901 
L 114.093357 200.590048 
L 114.540544 188.477964 
L 114.883064 185.692709 
L 115.313819 194.217188 
L 115.937099 198.287238 
L 116.216076 191.629943 
L 116.30385 190.897839 
L 116.475791 194.125715 
L 116.782905 195.937716 
L 117.130896 195.931316 
L 117.249404 197.081685 
L 117.487743 197.073047 
L 118.024139 195.551798 
L 118.206256 196.424303 
L 118.450471 199.219197 
L 118.756347 201.324671 
L 118.928024 200.259957 
L 119.289499 199.914021 
L 119.821194 204.666193 
L 120.298612 196.7658 
L 120.606507 196.302171 
L 120.715903 201.623344 
L 120.9231 201.912271 
L 121.194101 196.260696 
L 121.433386 194.259442 
L 121.912267 200.82613 
L 122.149815 200.428393 
L 122.624796 200.875895 
L 122.690525 203.019046 
L 122.935962 200.90114 
L 123.160922 194.820684 
L 123.589311 192.542024 
L 123.69748 197.257094 
L 123.995428 198.194597 
L 124.35569 193.141503 
L 124.650229 193.511615 
L 124.949134 191.501162 
L 125.13009 189.196927 
L 125.427231 189.68305 
L 125.857602 196.418533 
L 126.147722 194.354599 
L 126.390896 191.737563 
L 126.627668 192.296491 
L 126.86069 193.20934 
L 127.101098 191.846141 
L 127.397474 191.014597 
L 127.755155 191.806872 
L 127.874394 194.354551 
L 128.11266 196.670198 
L 128.470607 196.969884 
L 128.590202 196.351477 
L 129.127471 197.046528 
L 129.423624 197.228645 
L 129.721296 197.706236 
L 129.844012 199.028771 
L 130.080965 198.346396 
L 130.318908 196.017212 
L 130.556998 194.971484 
L 130.795082 195.261022 
L 131.094146 197.444763 
L 131.390373 197.594725 
L 131.570561 197.180041 
L 131.809921 196.324123 
L 132.070999 197.281267 
L 132.288655 198.686568 
L 132.530023 199.275867 
L 132.778446 201.106298 
L 133.080422 202.271834 
L 133.599891 195.686742 
L 134.048442 203.385002 
L 134.27389 201.802099 
L 134.511673 195.054455 
L 134.752536 191.926944 
L 134.988169 196.126651 
L 135.299799 198.579282 
L 135.762344 192.472665 
L 136.299914 198.078714 
L 136.897409 193.484513 
L 137.144696 196.101518 
L 137.496099 201.506616 
L 137.729921 199.272089 
L 138.031643 197.869761 
L 138.462756 201.399387 
L 138.821519 200.978563 
L 139.04073 198.936834 
L 139.34128 198.718179 
L 139.518495 197.586981 
L 139.876343 197.236898 
L 139.996454 196.408829 
L 140.23413 196.453682 
L 140.475957 195.969765 
L 140.727123 194.185858 
L 141.192054 184.354403 
L 141.683584 186.386255 
L 141.74323 193.234917 
L 141.924188 198.713407 
L 142.220316 199.000738 
L 142.698106 194.310091 
L 142.935384 195.517382 
L 143.657606 206.438649 
L 144.128735 202.209583 
L 144.426045 193.521967 
L 144.665021 195.351711 
L 145.147247 202.945283 
L 145.379375 202.49126 
L 146.042843 193.892958 
L 146.696415 203.790292 
L 147.407001 192.738174 
L 147.88237 197.770005 
L 148.299554 199.452575 
L 148.598417 195.319665 
L 149.076012 195.701721 
L 149.373331 196.769734 
L 149.613249 195.324982 
L 150.029772 191.557509 
L 150.089694 187.039698 
L 150.446581 187.468011 
L 150.565971 192.6123 
L 150.92311 198.012707 
L 151.703 191.69621 
L 152.113476 199.157554 
L 152.351803 200.43708 
L 152.832111 197.128713 
L 152.888581 194.648705 
L 153.188565 191.765511 
L 153.309231 193.010223 
L 153.54568 198.309974 
L 153.920396 201.648054 
L 154.319251 193.360232 
L 154.617256 194.445271 
L 155.03402 202.657286 
L 155.333455 204.674686 
L 155.572779 202.925415 
L 155.93189 197.195992 
L 156.054561 191.561515 
L 156.288871 190.771581 
L 156.59785 195.922538 
L 156.824695 201.723883 
L 157.062934 202.98858 
L 157.482632 196.207891 
L 157.720275 192.853095 
L 158.075811 192.20585 
L 158.732951 201.819067 
L 159.028959 197.06538 
L 159.50687 187.052374 
L 159.80937 187.12397 
L 160.222772 198.452009 
L 160.639178 202.454975 
L 161.236001 193.44043 
L 161.716034 203.298053 
L 161.964836 204.41151 
L 162.194991 202.706424 
L 162.728429 192.409996 
L 162.970124 191.589493 
L 163.449507 202.161643 
L 163.682554 202.19325 
L 164.170702 192.182926 
L 164.397251 194.134953 
L 164.99298 196.227722 
L 165.232577 195.147688 
L 165.64954 187.453101 
L 165.889046 187.39455 
L 166.482576 194.021588 
L 166.661225 192.987339 
L 166.89949 189.587556 
L 167.197831 191.191424 
L 167.436563 196.767754 
L 167.735563 199.410562 
L 167.91455 199.52582 
L 168.152508 199.344627 
L 168.391427 198.763975 
L 168.867709 200.070859 
L 169.165479 199.577444 
L 169.529336 198.286103 
L 169.881582 196.726559 
L 170.359222 199.590188 
L 171.25828 195.557561 
L 171.432118 196.842382 
L 171.900581 197.981829 
L 172.146868 197.805738 
L 172.386262 197.924503 
L 172.569875 195.282048 
L 172.835447 193.967822 
L 173.339268 199.504102 
L 173.707388 198.735965 
L 173.81777 194.110843 
L 174.158309 195.528091 
L 174.177757 198.351629 
L 174.314587 201.238704 
L 174.535783 199.978854 
L 174.91395 195.098551 
L 175.073934 194.750057 
L 175.54851 203.312182 
L 175.787124 201.622811 
L 176.085682 197.132054 
L 176.579702 200.628306 
L 177.049623 193.640545 
L 177.336715 196.163561 
L 177.755713 202.716552 
L 178.11115 200.28009 
L 178.352257 197.032902 
L 178.528778 196.545649 
L 179.02236 196.535317 
L 179.243954 202.038872 
L 179.542117 206.012041 
L 179.959799 206.213893 
L 180.199819 200.717444 
L 180.334683 194.49914 
L 180.554724 194.075735 
L 180.764952 199.458819 
L 181.004126 202.430864 
L 181.237254 200.256055 
L 181.475653 196.586315 
L 181.716775 195.892626 
L 181.952198 196.219366 
L 182.311857 194.526077 
L 182.668141 193.69209 
L 182.972183 197.901853 
L 183.210217 198.121004 
L 183.468223 198.839793 
L 183.706024 199.026844 
L 184.008236 197.13653 
L 184.243069 194.665938 
L 184.480842 195.358171 
L 184.866663 197.474123 
L 184.96201 199.333383 
L 185.214305 196.972066 
L 185.456212 192.127042 
L 185.79372 188.243018 
L 186.450096 198.574299 
L 186.926212 191.776153 
L 188.475599 198.499292 
L 188.892101 198.762313 
L 189.608368 197.431184 
L 189.845677 195.94468 
L 190.38336 204.937083 
L 190.679785 202.098352 
L 190.869436 196.674731 
L 191.157601 194.821036 
L 191.946866 209.40827 
L 192.117173 207.223749 
L 192.595026 196.194406 
L 192.83502 196.065613 
L 193.072666 199.703293 
L 193.31546 200.354989 
L 193.905827 190.492349 
L 194.087116 190.387553 
L 194.621423 194.033556 
L 194.919455 194.961483 
L 195.159734 198.44728 
L 195.454674 199.017908 
L 195.574242 195.43758 
L 195.812728 195.12708 
L 196.050762 200.547628 
L 196.348274 202.096459 
L 196.532194 196.597652 
L 196.824916 194.953754 
L 197.302744 199.644705 
L 197.540668 196.580982 
L 197.783126 196.554959 
L 198.021222 201.400077 
L 198.278285 203.208472 
L 198.614978 198.063172 
L 198.857745 199.749007 
L 199.035959 204.676294 
L 199.627167 197.294378 
L 200.037406 205.554715 
L 200.288499 206.36955 
L 200.523074 200.684538 
L 200.76342 199.114446 
L 201.023906 204.191629 
L 201.252764 203.024619 
L 201.602062 197.824513 
L 201.781853 197.386129 
L 202.258451 202.234884 
L 202.615346 202.34609 
L 202.734673 201.3078 
L 202.977069 200.557475 
L 203.271444 200.4173 
L 203.568616 200.427 
L 203.986273 201.214512 
L 204.347506 200.961871 
L 204.462725 200.201518 
L 205.059555 198.039227 
L 205.475165 206.647825 
L 205.723048 208.478559 
L 206.192034 203.856443 
L 206.452348 203.958512 
L 206.78839 209.210556 
L 207.086054 206.706031 
L 207.443269 195.393955 
L 207.682274 193.758951 
L 207.922916 193.973312 
L 208.578156 192.386059 
L 208.70586 194.023937 
L 208.935203 193.836197 
L 209.172823 192.466443 
L 209.600943 192.370839 
L 209.830821 194.258294 
L 209.950317 198.738812 
L 210.189594 199.596992 
L 210.663532 194.44072 
L 210.903374 194.372535 
L 211.140394 192.685085 
L 211.378598 192.729911 
L 211.874719 197.844884 
L 212.333313 196.940982 
L 212.393738 191.514808 
L 212.631154 185.162252 
L 212.870117 183.131472 
L 213.168289 186.293807 
L 213.644553 198.57767 
L 213.824739 197.897749 
L 214.60033 191.279878 
L 214.837813 192.675084 
L 215.37507 201.072344 
L 215.554742 202.347187 
L 215.851328 198.424223 
L 216.089667 191.431847 
L 216.389104 188.015725 
L 216.58001 189.738784 
L 217.102957 202.714194 
L 217.400525 205.960714 
L 217.639634 204.581881 
L 217.877773 201.147677 
L 218.294893 193.456085 
L 218.593264 192.727276 
L 218.776973 191.750714 
L 219.266031 190.522951 
L 219.30768 189.189335 
L 219.551399 188.003314 
L 219.799306 189.746314 
L 220.32987 196.478369 
L 220.62314 198.695051 
L 220.8622 199.544319 
L 221.162767 201.726555 
L 221.515496 210.680592 
L 221.99322 212.302481 
L 222.055181 213.306752 
L 222.292144 212.191076 
L 222.771536 205.121904 
L 223.006647 201.865323 
L 223.248476 203.154854 
L 223.554257 124.208576 
L 223.732051 136.363562 
L 224.048213 129.006519 
L 224.26118 96.097388 
L 225.513956 231.00625 
L 226.226817 266.042213 
L 226.707352 272.589231 
L 227.004147 257.197805 
L 227.184451 235.392611 
L 227.422827 222.642502 
L 227.479239 211.412505 
L 227.717393 208.648894 
L 227.956897 201.0317 
L 228.194151 185.808029 
L 228.491933 185.69248 
L 228.730952 181.300124 
L 228.972776 171.23309 
L 229.211707 169.274232 
L 229.507621 168.85796 
L 229.86666 172.914072 
L 229.998628 177.051042 
L 230.173069 175.827884 
L 230.705939 197.865837 
L 230.945101 189.975964 
L 231.242363 195.864553 
L 231.630147 198.185802 
L 231.663719 202.714698 
L 232.136825 188.206357 
L 232.316057 176.311035 
L 232.434509 186.475738 
L 233.208451 162.530571 
L 233.387885 172.110293 
L 233.626662 173.370258 
L 233.864567 166.585696 
L 234.163673 182.391465 
L 234.459871 168.812237 
L 234.877477 182.283427 
L 235.11598 184.926795 
L 235.432665 186.229002 
L 235.72695 188.140166 
L 235.906757 178.433535 
L 236.084479 181.020225 
L 236.384217 177.367667 
L 236.621287 160.338149 
L 236.919839 155.254619 
L 237.157824 156.670999 
L 237.395703 150.364632 
L 237.695023 149.765748 
L 237.874902 163.940427 
L 238.290534 156.925562 
L 238.828455 175.208984 
L 239.065068 170.056433 
L 239.305311 176.79629 
L 239.549082 178.606533 
L 239.840779 173.195387 
L 240.023237 181.180164 
L 240.317181 170.04502 
L 240.614551 167.100677 
L 240.793797 160.090718 
L 241.151839 168.996355 
L 241.389884 165.97312 
L 241.569338 166.231579 
L 241.806632 170.031955 
L 242.044896 176.990626 
L 242.344062 174.850229 
L 242.641746 176.069774 
L 242.939843 172.665435 
L 243.118815 176.367888 
L 243.41606 179.819303 
L 243.539421 172.222159 
L 243.836562 165.666161 
L 244.531837 143.028223 
L 244.760099 147.314099 
L 244.998784 146.169918 
L 245.503869 145.249481 
L 246.202726 152.167733 
L 246.460816 166.714543 
L 246.754794 152.223045 
L 246.994239 157.899567 
L 247.232263 158.662561 
L 247.469526 144.97975 
L 248.125328 156.316977 
L 248.363697 155.410455 
L 248.543255 153.232662 
L 248.848689 130.790069 
L 249.020847 139.948933 
L 249.218981 139.680948 
L 249.796994 155.66648 
L 249.91722 167.67269 
L 250.176782 171.258301 
L 251.466717 140.352106 
L 251.705896 139.616366 
L 252.004037 142.7801 
L 252.243865 142.988997 
L 252.425758 136.258705 
L 252.66071 139.813481 
L 252.958474 148.726183 
L 253.137428 149.595458 
L 253.437262 144.844184 
L 254.390353 170.055245 
L 254.866171 150.220167 
L 255.283195 167.946611 
L 255.64118 154.338817 
L 255.702331 159.78171 
L 256.118256 172.728429 
L 256.357 170.700483 
L 256.596713 159.128363 
L 257.013573 150.220134 
L 257.134596 151.025471 
L 257.61066 126.184365 
L 257.848051 123.490784 
L 258.20509 125.109229 
L 258.445132 117.92228 
L 258.859825 137.018082 
L 259.158214 134.038649 
L 259.487917 133.785068 
L 259.730147 132.711266 
L 259.876027 125.526166 
L 260.173233 137.180939 
L 260.591149 123.294373 
L 260.949329 104.407885 
L 261.322962 113.23495 
L 261.490067 110.991817 
L 261.602805 114.083821 
L 261.975746 114.159116 
L 262.086563 113.893025 
L 262.328785 117.923128 
L 262.55622 111.932919 
L 262.794199 109.810604 
L 263.151773 116.41245 
L 263.330837 113.153101 
L 263.7477 111.405636 
L 263.866901 114.166611 
L 264.105397 110.558424 
L 264.285849 113.536225 
L 264.643203 100.907388 
L 265.058864 104.843633 
L 265.299527 113.876442 
L 265.714773 119.01582 
L 265.955612 118.7569 
L 266.252174 97.900332 
L 266.48981 95.802754 
L 266.788459 89.623616 
L 267.09442 91.097316 
L 267.324829 98.77315 
L 267.563622 97.834806 
L 267.759853 106.723804 
L 268.099501 106.571023 
L 268.338011 104.900933 
L 268.532791 101.395433 
L 268.756773 102.675222 
L 269.017167 106.578535 
L 269.233644 117.190356 
L 269.530633 122.705143 
L 269.887378 119.092265 
L 270.125731 113.185111 
L 270.245132 101.929391 
L 270.723 90.778113 
L 270.960397 91.351621 
L 271.318588 95.162026 
L 271.561653 88.007643 
L 271.735812 96.478403 
L 271.975033 90.894308 
L 272.273994 95.77676 
L 272.454512 100.828985 
L 272.689423 96.471634 
L 272.927961 112.085111 
L 273.17533 111.879276 
L 273.464189 109.856885 
L 273.643316 106.205298 
L 273.969451 102.047165 
L 274.219372 97.180358 
L 274.658263 95.161257 
L 275.037647 87.764174 
L 275.313574 83.679646 
L 275.437851 89.027811 
L 275.791628 87.582334 
L 275.91339 80.792225 
L 276.20821 76.419945 
L 276.393789 81.637464 
L 276.812326 77.079579 
L 277.049078 86.123898 
L 277.590469 81.777226 
L 277.779075 88.406885 
L 277.939041 86.154844 
L 278.12053 89.722981 
L 278.475781 107.153656 
L 278.624491 106.346036 
L 278.955747 110.524418 
L 279.193852 107.970822 
L 279.431173 96.033912 
L 279.612332 99.305781 
L 280.086959 80.038322 
L 280.384925 70.22298 
L 280.623809 74.213442 
L 280.980465 71.554915 
L 281.457142 74.889602 
L 281.594071 77.804965 
L 281.873928 68.40211 
L 282.056615 73.793105 
L 282.113657 67.951554 
L 282.351481 68.143955 
L 283.068365 50.81028 
L 283.306338 52.261062 
L 283.66432 48.798044 
L 283.961917 60.368693 
L 284.088847 69.907162 
L 284.319934 69.207425 
L 284.563335 67.471049 
L 284.856401 66.674035 
L 285.034625 74.100349 
L 285.276257 69.736799 
L 285.690436 73.889464 
L 285.810779 71.812672 
L 286.292195 60.877009 
L 286.526687 63.539257 
L 286.769413 55.447463 
L 287.007247 58.172758 
L 287.262421 48.55606 
L 287.484106 60.149311 
L 287.84259 55.563035 
L 287.900764 56.777769 
L 288.024509 55.943391 
L 288.259375 60.739961 
L 288.497522 49.271253 
L 289.24077 65.174232 
L 289.455069 61.324042 
L 289.811148 64.354957 
L 290.347633 55.002907 
L 290.465879 46.004015 
L 290.883363 47.993061 
L 290.948755 39.442351 
L 291.225488 42.104174 
L 291.495528 48.995729 
L 291.679836 42.359799 
L 292.13465 51.290882 
L 292.194976 43.396266 
L 292.432576 51.631445 
L 292.969282 58.805416 
L 293.207555 58.603593 
L 293.504983 58.19833 
L 293.924229 65.117649 
L 294.221147 66.003568 
L 294.466574 54.376233 
L 294.698997 53.380735 
L 294.878318 39.587028 
L 295.173661 38.313194 
L 295.4127 30.469202 
L 295.717231 27.560508 
L 295.948103 36.680566 
L 296.426372 39.2995 
L 296.607631 41.320351 
L 296.961851 42.4663 
L 297.152314 45.363792 
L 297.438974 40.470638 
L 297.620443 48.461633 
L 297.929888 46.452612 
L 298.095365 52.406499 
L 298.335465 48.071436 
L 298.632709 45.630762 
L 298.870236 34.171812 
L 299.108436 32.457977 
L 299.60655 32.228475 
L 299.827215 41.706954 
L 300.182774 51.375084 
L 300.361705 47.478645 
L 300.600166 46.298179 
L 300.854175 41.677366 
L 301.079765 44.568005 
L 301.494049 38.793311 
L 301.613328 48.743143 
L 301.911255 43.478142 
L 302.09056 50.575335 
L 302.626399 37.990733 
L 302.80676 27.404493 
L 303.043886 32.881942 
L 303.54503 30.497623 
L 303.826118 26.391015 
L 304.119111 25.172456 
L 304.41641 22.017663 
L 304.595673 17.877737 
L 304.95287 20.594831 
L 305.252232 27.984132 
L 305.31073 33.012001 
L 305.548602 32.867633 
L 305.846457 37.417643 
L 306.02906 36.153349 
L 306.385283 36.014887 
L 306.562027 45.791559 
L 306.801509 38.948908 
L 306.996024 40.987333 
L 307.281744 39.260032 
L 307.900046 37.150196 
L 308.067971 35.414331 
L 308.299126 41.685597 
L 308.537897 33.479364 
L 308.839248 35.466779 
L 309.086734 33.205723 
L 309.313549 29.563122 
L 309.455479 24.805785 
L 309.930311 18.270522 
L 310.001814 13.878291 
L 310.28921 6.050769 
L 310.527271 9.894643 
L 310.708003 8.746687 
L 311.242711 18.389951 
L 311.611583 21.221494 
L 311.781527 32.435427 
L 312.017687 37.974897 
L 312.375319 35.953221 
L 312.501747 43.808807 
L 312.732977 48.95032 
L 313.090224 51.08794 
L 313.212638 82.418406 
L 313.568273 78.97403 
L 313.805492 80.175137 
L 314.235778 58.294903 
L 314.58015 53.950764 
L 314.701814 47.228625 
L 315.237717 37.103863 
L 315.594079 34.937678 
L 315.682591 35.978318 
L 316.016983 38.468946 
L 316.33419 38.83992 
L 316.452034 36.429034 
L 316.695304 48.998672 
L 316.995565 53.884666 
L 317.110027 68.281537 
L 317.763281 78.793372 
L 318.060545 77.935238 
L 318.359189 73.129477 
L 318.959086 49.751538 
L 319.49789 28.667007 
L 319.614865 15.501187 
L 319.910478 14.010766 
L 320.14826 10.025546 
L 320.624731 16.433695 
L 321.102007 30.440478 
L 321.584298 55.814783 
L 321.878065 61.43894 
L 322.117615 69.964126 
L 322.357206 74.212527 
L 322.592008 71.947891 
L 323.070052 55.636708 
L 323.548541 34.292656 
L 323.963903 23.241507 
L 324.083748 13.749913 
L 324.50419 11.54151 
L 324.569671 8.955218 
L 325.454334 35.019149 
L 325.812051 57.196154 
L 326.530758 65.044351 
L 327.242305 56.949971 
L 327.301953 48.314951 
L 328.020226 29.209727 
L 328.256505 29.784443 
L 328.495475 31.32308 
L 328.794246 42.664025 
L 329.171816 48.039058 
L 329.275333 56.085245 
L 329.508337 63.486017 
L 329.745474 62.619125 
L 330.162941 65.560109 
L 330.580948 60.42472 
L 331.798258 15.676661 
L 332.248663 11.551134 
L 332.487919 13.017749 
L 333.267721 37.11209 
L 333.741417 54.491277 
L 334.226045 70.025977 
L 334.581092 69.289397 
L 334.762633 70.164966 
L 335.022935 69.071498 
L 335.469651 62.221616 
L 335.709664 60.616263 
L 336.184852 54.461912 
L 336.663453 58.831188 
L 336.900926 64.866703 
L 337.437428 71.536511 
L 337.916816 77.982373 
L 338.161358 74.78047 
L 338.54477 77.781261 
L 338.658091 73.263276 
L 338.944233 70.965246 
L 338.991294 68.470661 
L 339.410048 62.138602 
L 339.825811 56.931451 
L 340.12328 47.575085 
L 340.421547 44.825787 
L 340.719728 48.885723 
L 341.13678 49.954731 
L 341.375437 52.726978 
L 341.615004 52.915172 
L 342.091832 55.180577 
L 342.390217 54.688805 
L 342.592547 56.893063 
L 343.224194 55.670477 
L 343.364331 49.323687 
L 343.819625 38.870199 
L 344.2367 35.940268 
L 344.355474 33.253998 
L 344.654162 32.8811 
L 344.835051 32.874047 
L 345.073439 31.641923 
L 345.381281 32.145204 
L 345.793405 36.026302 
L 346.084919 43.111568 
L 346.386542 47.427307 
L 346.623265 45.479534 
L 346.800697 48.051936 
L 347.046882 44.848276 
L 347.336523 44.573733 
L 347.812551 45.683699 
L 348.470912 36.528456 
L 348.531021 32.383197 
L 348.830156 30.496556 
L 349.025631 32.932233 
L 349.25029 38.539356 
L 349.8421 46.90947 
L 350.139628 47.015141 
L 350.26536 44.580623 
L 350.557034 42.436601 
L 350.855204 48.990212 
L 351.033535 49.299873 
L 351.272515 48.716059 
L 351.510253 41.952003 
L 351.86755 43.743737 
L 352.048182 33.725973 
L 352.34541 29.664766 
L 352.643325 28.322446 
L 353.001631 40.615602 
L 353.358236 40.83448 
L 353.777296 42.628954 
L 354.192068 42.456033 
L 354.49016 48.016714 
L 354.729169 49.47226 
L 354.967142 51.653766 
L 355.26572 49.112805 
L 355.993376 33.033255 
L 356.230389 32.099346 
L 356.695564 35.129838 
L 357.414082 43.944174 
L 357.768024 43.944457 
L 358.067321 44.976004 
L 358.200121 49.765947 
L 358.726755 51.280734 
L 358.964857 47.799583 
L 359.203431 42.478486 
L 359.448191 40.633245 
L 359.739861 39.646015 
L 359.918637 37.565058 
L 360.223373 38.228745 
L 360.464925 41.883447 
L 360.754514 39.611099 
L 360.876193 46.826195 
L 361.129106 48.850039 
L 361.415503 53.586524 
L 361.661674 51.493862 
L 362.424082 40.956029 
L 362.950189 45.303356 
L 363.20353 37.006453 
L 363.423447 35.675336 
L 363.622003 33.229373 
L 363.916371 37.885758 
L 364.298259 39.226068 
L 364.393153 40.222102 
L 364.630544 39.581517 
L 365.345698 42.488624 
L 365.643635 44.235974 
L 365.941582 50.114989 
L 366.430486 51.099794 
L 366.661699 48.987717 
L 367.137644 52.439752 
L 367.848153 40.843351 
L 368.164973 38.135908 
L 368.328014 38.735975 
L 368.629685 44.051381 
L 368.92628 42.623407 
L 369.113805 42.379385 
L 369.34484 42.873956 
L 369.529356 44.054464 
L 369.821758 48.088615 
L 370.240307 46.489246 
L 370.360723 50.772624 
L 370.716213 49.328224 
L 370.778089 47.224507 
L 371.015218 45.114843 
L 371.312315 46.585563 
L 371.555098 43.34292 
L 371.789135 42.124355 
L 372.027824 41.687864 
L 372.325578 43.823395 
L 372.572937 47.939056 
L 372.861574 50.873408 
L 373.223258 46.851146 
L 373.397043 42.536727 
L 373.518933 43.177263 
L 373.93445 47.970455 
L 373.993192 44.862756 
L 374.356468 51.547518 
L 374.64956 48.934413 
L 374.71244 44.035049 
L 375.245909 40.618356 
L 375.486534 44.881427 
L 375.841426 46.439375 
L 376.021182 46.141263 
L 376.325316 43.480122 
L 376.501063 34.070705 
L 376.735908 34.354834 
L 377.154139 38.543427 
L 377.454122 51.218087 
L 377.691085 49.940609 
L 377.97089 46.229989 
L 378.228234 45.756217 
L 378.467507 45.870626 
L 378.705786 45.369669 
L 379.003346 47.179987 
L 379.182787 44.408515 
L 379.541591 44.967837 
L 379.77876 41.573954 
L 379.957593 40.922694 
L 380.315476 40.598738 
L 380.43452 41.405485 
L 380.67377 41.471559 
L 381.209422 46.56184 
L 381.744983 51.062018 
L 382.170296 43.60969 
L 382.401177 36.551448 
L 382.640935 40.198756 
L 382.938268 41.325023 
L 383.116642 44.344679 
L 383.414778 44.152354 
L 383.653191 41.532595 
L 383.891272 42.361877 
L 384.130172 39.904461 
L 384.608478 49.515829 
L 385.024513 53.170851 
L 385.141968 51.853275 
L 385.442062 45.28573 
L 385.982328 39.31878 
L 386.154941 45.613081 
L 386.572481 46.85502 
L 386.633083 47.749008 
L 386.871953 44.71808 
L 387.288124 40.945221 
L 387.408358 43.692751 
L 387.704159 41.055074 
L 387.883735 46.490776 
L 388.360572 50.084432 
L 388.657811 45.378541 
L 388.83674 38.900181 
L 389.078696 35.731181 
L 389.373409 37.459127 
L 389.673069 40.334357 
L 389.85151 42.485004 
L 390.209139 45.539185 
L 390.327434 47.996833 
L 390.866233 40.994135 
L 391.283443 45.202525 
L 391.578394 49.791021 
L 391.956832 49.762088 
L 392.061414 49.398392 
L 392.294363 47.284381 
L 392.534085 48.236428 
L 393.014287 42.954191 
L 393.427847 44.344194 
L 393.785792 37.058713 
L 394.507191 31.434106 
L 394.798172 29.722929 
L 395.156539 31.82818 
L 395.275553 35.691435 
L 395.817442 37.555004 
L 396.468688 46.982332 
L 397.24286 53.73612 
L 397.480824 54.428605 
L 398.01748 48.860258 
L 398.255879 48.840632 
L 398.493969 49.547164 
L 398.732782 43.684131 
L 399.629341 32.097571 
L 399.867123 24.300471 
L 399.986143 25.646576 
L 400.224723 22.881023 
L 400.464749 21.61298 
L 400.710246 22.307317 
L 401.240795 26.795799 
L 401.775515 39.811627 
L 401.955105 45.770698 
L 402.253688 48.682852 
L 402.431344 55.823878 
L 402.908526 54.379757 
L 403.162416 55.735768 
L 403.206332 55.442067 
L 403.397622 53.195214 
L 403.633589 54.828676 
L 403.922551 53.715937 
L 404.641312 42.711813 
L 404.947887 36.062826 
L 405.175669 37.306735 
L 405.385104 36.655058 
L 405.65268 36.463514 
L 405.894417 34.139414 
L 406.132636 37.23576 
L 406.426561 38.213685 
L 406.667313 42.543607 
L 407.144113 46.630818 
L 407.619993 60.677587 
L 407.860801 61.689698 
L 408.217822 61.493712 
L 408.398363 56.122806 
L 408.636507 58.261452 
L 408.917998 55.782967 
L 409.234688 50.998225 
L 409.470635 49.642312 
L 409.589722 43.758369 
L 409.829013 41.081198 
L 410.126347 42.57734 
L 410.42592 41.554712 
L 410.606015 39.784802 
L 410.844374 38.75201 
L 411.320402 32.59981 
L 411.619643 31.29429 
L 411.857209 28.542893 
L 412.096215 29.162572 
L 412.512689 26.044682 
L 412.58546 28.882448 
L 412.87158 32.115002 
L 413.456757 46.311813 
L 413.81476 58.330321 
L 414.472681 68.691926 
L 414.533583 74.72839 
L 415.068038 69.898428 
L 415.559664 63.231274 
L 415.96323 59.135962 
L 416.023198 56.466911 
L 416.805148 50.685135 
L 417.002271 51.717421 
L 417.276707 49.111301 
L 417.709181 49.956509 
L 417.756951 49.056219 
L 418.530943 42.037136 
L 418.770431 39.28731 
L 419.126668 39.980124 
L 419.487583 41.69328 
L 419.724077 45.409166 
L 419.962564 45.555377 
L 420.281437 47.27673 
L 420.501517 49.552318 
L 420.738015 49.916911 
L 420.975057 52.690565 
L 421.214128 53.574052 
L 421.512226 53.904817 
L 422.225812 48.943735 
L 422.234324 64.847414 
L 422.468961 39.996601 
L 422.825214 39.876936 
L 423.004989 38.427665 
L 423.252127 38.267097 
L 423.484338 37.173396 
L 423.840978 36.948799 
L 423.960579 39.014312 
L 424.145321 39.846669 
L 424.43705 43.092155 
L 424.915208 54.844764 
L 425.155055 57.195861 
L 425.574673 55.561903 
L 425.629286 61.465246 
L 425.988437 59.526006 
L 426.172027 60.188664 
L 426.40654 59.280911 
L 427.065099 52.904782 
L 427.445399 42.511525 
L 427.659166 42.254179 
L 427.90644 40.095194 
L 427.958088 35.716719 
L 428.19698 32.691133 
L 428.436409 31.109668 
L 428.619145 25.865622 
L 428.8559 22.936082 
L 429.151322 22.61726 
L 429.39598 22.029057 
L 429.628082 24.313794 
L 430.344322 48.342696 
L 430.774626 50.646056 
L 431.121983 61.374245 
L 431.357652 48.408654 
L 431.843497 60.261273 
L 432.095657 60.213156 
L 432.328044 56.17487 
L 432.561897 50.055443 
L 433.156978 50.353044 
L 433.463552 53.120069 
L 433.594031 55.637522 
L 433.87843 54.221593 
L 434.121676 53.941681 
L 434.776173 43.79054 
L 435.198864 48.099989 
L 435.318081 47.58937 
L 435.54992 45.479085 
L 436.163582 32.001259 
L 436.324342 31.048793 
L 436.627299 30.679965 
L 437.100266 38.087953 
L 437.400723 35.237374 
L 437.640155 38.166688 
L 437.947846 33.753846 
L 438.242412 40.345305 
L 438.507695 47.031595 
L 438.778576 48.430568 
L 439.259491 48.053748 
L 439.609454 43.498576 
L 439.813723 46.302064 
L 440.027646 45.458783 
L 440.326857 46.09862 
L 440.985603 36.659321 
L 441.360449 35.413264 
L 441.460589 33.651705 
L 441.817555 33.738861 
L 441.996582 31.59571 
L 442.261655 32.066365 
L 442.476381 33.429308 
L 442.882088 30.723248 
L 443.119643 34.077922 
L 443.306995 32.780264 
L 443.537398 36.045392 
L 443.835364 30.968555 
L 444.01571 31.174286 
L 444.193965 34.704644 
L 444.670741 38.632819 
L 445.029606 32.863474 
L 445.21114 32.004036 
L 445.566243 32.125812 
L 445.69185 28.48279 
L 445.950184 30.950662 
L 446.223006 32.234476 
L 446.46149 30.550259 
L 446.703529 31.378576 
L 446.93948 32.892811 
L 447.182432 33.384836 
L 447.4174 37.039091 
L 447.656135 37.593029 
L 447.904892 32.541392 
L 448.138367 32.890578 
L 448.437338 32.545946 
L 448.625267 33.69437 
L 448.91479 34.273509 
L 449.152725 35.457827 
L 449.392189 40.249635 
L 449.808343 37.720814 
L 449.89612 39.571229 
L 450.16705 41.994991 
L 451.180519 56.379332 
L 451.839194 48.380784 
L 452.077357 43.9114 
L 452.326715 41.995972 
L 452.613173 34.016339 
L 452.864845 30.386203 
L 453.098099 32.405534 
L 453.469682 31.498654 
L 453.689602 36.682602 
L 453.809319 36.833965 
L 454.134366 39.770938 
L 454.345201 48.129327 
L 454.765606 51.916458 
L 454.847127 56.243123 
L 455.071869 56.557338 
L 455.300727 58.675043 
L 455.539853 54.568111 
L 455.961335 50.673873 
L 456.150748 46.522654 
L 456.387019 45.678027 
L 456.566905 46.439269 
L 456.984034 42.002912 
L 457.044693 39.08867 
L 457.462645 35.254024 
L 457.700957 31.806384 
L 457.762486 32.669052 
L 458.176246 34.183192 
L 458.295734 27.878979 
L 458.535771 28.64679 
L 458.772737 23.775647 
L 459.18988 20.211108 
L 459.309275 15.429761 
L 459.548312 13.012564 
L 459.792529 12.718757 
L 459.846799 9.924193 
L 460.264394 18.190728 
L 460.505547 15.987798 
L 460.801349 15.99803 
L 460.981197 20.118555 
L 461.461133 24.119393 
L 461.759676 32.703032 
L 461.997667 33.423905 
L 462.240011 39.388502 
L 462.535859 40.178319 
L 463.439137 50.576098 
L 463.848593 52.23782 
L 463.995751 52.209529 
L 464.68398 54.423487 
L 464.923343 54.834217 
L 465.469677 62.284499 
L 466.009353 58.867789 
L 466.243917 60.44788 
L 466.483619 56.8718 
L 466.663185 51.828724 
L 466.961408 51.360796 
L 467.199234 46.268662 
L 467.597038 42.202398 
L 467.744427 36.60399 
L 467.921045 37.151518 
L 468.454257 25.226374 
L 468.761166 28.100841 
L 468.931187 28.575877 
L 469.179483 35.718425 
L 469.542461 39.438416 
L 470.128335 55.247177 
L 471.143739 68.331593 
L 471.389817 69.247 
L 471.682015 64.860082 
L 471.865224 64.682512 
L 472.16172 61.937757 
L 472.456786 60.582267 
L 472.636186 57.16408 
L 473.054076 58.136363 
L 473.400235 53.294538 
L 473.634969 51.295745 
L 474.170263 43.037028 
L 474.354868 43.942321 
L 475.125654 33.295156 
L 475.315542 25.483154 
L 475.601585 19.518745 
L 476.317061 15.113755 
L 476.555932 10.095294 
L 476.795462 13.190309 
L 477.212458 12.768283 
L 477.361592 7.944859 
L 478.107403 19.307581 
L 478.345862 20.084001 
L 478.775738 23.261214 
L 479.035221 25.497899 
L 479.305237 30.438089 
L 479.600228 29.72159 
L 479.798874 31.41011 
L 480.01865 31.927279 
L 480.259337 27.679615 
L 480.639147 29.477109 
L 480.797255 28.411739 
L 481.032858 33.802705 
L 481.30086 30.562554 
L 481.594462 29.074409 
L 481.817167 26.75705 
L 482.112202 28.05641 
L 482.54011 21.827612 
L 482.796157 22.960371 
L 483.087039 19.823519 
L 483.208624 21.84204 
L 483.799178 13.973522 
L 484.097273 14.585139 
L 484.216787 12.421443 
L 484.514676 13.782401 
L 484.761105 17.934203 
L 485.008903 13.984967 
L 485.230884 12.348212 
L 485.470722 12.038495 
L 485.76882 14.668707 
L 486.007356 18.392074 
L 486.483328 21.016465 
L 486.721699 23.882083 
L 486.961225 23.885147 
L 487.206514 26.562105 
L 488.214516 43.280194 
L 488.455338 42.199767 
L 488.931602 47.714136 
L 489.288177 47.333254 
L 489.706772 50.929075 
L 490.005091 52.197346 
L 490.242896 54.48494 
L 490.481391 54.276987 
L 490.899752 56.117273 
L 491.201618 56.364647 
L 491.494573 52.4557 
L 491.741352 54.212358 
L 491.913287 54.375571 
L 492.154206 49.715057 
L 492.390345 51.273774 
L 493.601015 40.649787 
L 493.66099 41.353179 
L 493.95881 35.572934 
L 494.141209 36.064887 
L 494.380638 34.880787 
L 495.092642 26.90759 
L 495.391562 21.630918 
L 495.688062 19.191518 
L 495.866611 16.492532 
L 496.169394 17.621889 
L 496.407336 15.333186 
L 496.644163 20.518772 
L 496.931081 18.529409 
L 497.122047 18.803034 
L 497.32743 21.934141 
L 497.602808 23.670806 
L 497.947291 25.094238 
L 498.621652 34.873161 
L 498.860584 37.13013 
L 499.099563 37.346656 
L 499.337413 34.946628 
L 499.576371 34.839422 
L 500.113488 33.748929 
L 500.293182 25.361362 
L 500.609204 23.948031 
L 500.650281 21.567442 
L 500.829084 17.786849 
L 501.130331 22.058199 
L 501.425955 17.425913 
L 501.604394 18.27834 
L 502.085048 23.51399 
L 502.142852 29.484782 
L 502.321119 29.043348 
L 503.515493 52.927467 
L 503.872555 54.955601 
L 504.051407 53.676238 
L 504.229888 55.875127 
L 504.650095 54.879156 
L 504.707569 59.164734 
L 505.069486 55.954295 
L 505.311707 55.445851 
L 505.78225 47.368448 
L 506.266043 36.932443 
L 506.569872 35.275829 
L 506.746757 28.67529 
L 507.231373 19.152975 
L 507.475334 19.781548 
L 507.708032 18.126325 
L 508.005894 19.366577 
L 508.190358 15.22275 
L 508.485193 19.137651 
L 508.787092 10.408272 
L 509.01986 19.825249 
L 509.275368 21.830692 
L 509.498512 15.999753 
L 510.21317 20.670168 
L 510.631246 18.739169 
L 510.691646 19.185978 
L 510.932276 20.005097 
L 511.266656 20.163575 
L 511.427141 22.090261 
L 511.731757 23.626246 
L 511.94593 28.13477 
L 512.202575 29.283181 
L 512.662927 37.919753 
L 512.902669 32.155053 
L 513.214663 42.36558 
L 513.619081 36.706503 
L 513.68035 42.500646 
L 513.915563 40.550435 
L 514.571539 42.942756 
L 514.703169 39.017929 
L 514.890518 43.298012 
L 515.247869 39.379553 
L 515.690172 48.202408 
L 515.918439 53.224897 
L 516.400242 59.496085 
L 516.762513 54.539181 
L 516.922212 59.773821 
L 517.159528 61.58276 
L 517.51651 62.457006 
L 517.702683 65.571258 
L 517.878201 59.789002 
L 518.653123 51.64396 
L 518.951708 46.95214 
L 519.130101 48.488951 
L 519.388449 47.775734 
L 519.725267 46.495467 
L 519.86004 48.334892 
L 520.141772 54.013443 
L 520.439599 67.972642 
L 520.621899 63.874843 
L 520.859464 70.063301 
L 521.115203 68.769667 
L 521.39507 70.652562 
L 522.117242 55.61288 
L 522.65075 31.884283 
L 522.827932 25.180802 
L 523.266623 23.12408 
L 523.497826 25.100428 
L 523.843711 26.624922 
L 524.857058 48.404174 
L 524.9168 57.396348 
L 525.275559 67.32447 
L 525.403427 74.617607 
L 525.692727 76.694237 
L 526.316015 69.654343 
L 526.596989 55.537485 
L 526.890514 49.155243 
L 527.008656 42.282621 
L 527.314102 34.64966 
L 527.785005 28.103525 
L 527.911085 23.406176 
L 528.28225 20.425353 
L 528.505796 20.486289 
L 528.92995 29.755352 
L 529.890641 58.119868 
L 530.247674 64.270425 
L 530.664454 65.679661 
L 530.905653 66.01076 
L 531.439707 66.980815 
L 531.621121 66.676446 
L 531.88268 66.568999 
L 532.275662 68.718939 
L 532.524468 69.52132 
L 532.708292 69.589221 
L 532.939696 69.320071 
L 533.470149 67.037157 
L 533.946454 60.829134 
L 534.245028 57.974019 
L 534.720395 47.345984 
L 535.260177 39.396279 
L 535.504579 37.585203 
L 535.801994 37.51385 
L 535.979304 40.379087 
L 536.938388 62.719129 
L 537.923297 75.76005 
L 538.187608 73.720421 
L 538.723835 62.698223 
L 538.905185 55.690824 
L 539.439601 47.555614 
L 539.680701 46.667749 
L 540.155601 48.747822 
L 541.177946 59.494659 
L 541.483777 60.335741 
L 541.832702 58.878399 
L 541.907515 56.831297 
L 542.613306 48.37834 
L 542.912553 46.726758 
L 543.147255 46.572164 
L 543.385554 47.651694 
L 543.867082 53.687987 
L 544.997465 72.682201 
L 545.177199 75.34704 
L 545.613251 77.025605 
L 545.716345 77.976854 
L 546.013013 78.612068 
L 546.191021 78.116749 
L 547.086927 61.650812 
L 547.800201 51.854896 
L 548.278888 48.308461 
L 548.57849 47.099021 
L 548.874603 47.423653 
L 549.053617 47.369907 
L 549.551337 47.903884 
L 549.769221 48.66647 
L 550.187418 48.982273 
L 550.306262 49.413394 
L 550.496407 49.233507 
L 550.901628 49.110032 
L 551.101371 49.499376 
L 551.264901 49.132827 
L 551.511124 49.697341 
L 551.737027 50.723588 
L 552.035323 53.210561 
L 552.395465 57.387898 
L 552.516451 60.710164 
L 553.764774 73.998727 
L 554.122134 75.785394 
L 554.326986 77.560945 
L 554.565702 77.698057 
L 554.745389 76.389365 
L 555.281591 75.771869 
L 555.654441 76.287372 
L 555.937535 77.759184 
L 556.23672 77.520955 
L 556.47617 78.68538 
L 556.966916 79.050489 
L 557.459078 76.204491 
L 557.743454 63.304713 
L 558.43799 41.976398 
L 558.974965 32.325138 
L 559.210968 29.620404 
L 559.509203 29.189081 
L 560.652229 49.060194 
L 561.186721 61.339935 
L 561.675585 71.155948 
L 561.924237 69.808663 
L 562.153707 65.691401 
L 562.693429 59.301879 
L 563.168071 55.264481 
L 563.541892 53.477154 
L 563.663332 52.088973 
L 564.063923 52.31541 
L 564.187013 54.599537 
L 564.602546 66.421347 
L 565.099238 70.333421 
L 565.376283 68.468974 
L 565.913609 60.549963 
L 566.807687 45.329246 
L 566.871061 39.341985 
L 567.109206 35.832822 
L 567.348511 34.440856 
L 567.602314 35.260086 
L 567.889683 38.349357 
L 568.36386 49.207575 
L 568.905048 60.387586 
L 569.495961 66.005188 
L 569.556614 64.849596 
L 569.830097 64.819689 
L 570.180186 64.982838 
L 570.296782 66.389844 
L 570.596187 66.944042 
L 570.840372 65.538333 
L 571.312124 57.756655 
L 571.551927 53.570505 
L 571.854597 52.862391 
L 572.030259 56.056373 
L 572.518413 59.48561 
L 572.804311 57.911776 
L 573.047077 55.208391 
L 573.343047 56.139179 
L 573.705169 59.570903 
L 573.889969 64.008004 
L 574.05876 65.287911 
L 574.655476 59.398378 
L 574.789855 55.946739 
L 574.970739 54.207709 
L 575.266685 55.74419 
L 575.509254 57.868274 
L 575.806683 56.318628 
L 575.982989 52.81769 
L 576.28069 51.131587 
L 576.639918 54.367234 
L 576.819632 60.128165 
L 577.176708 63.000735 
L 577.414148 62.079206 
L 577.951032 48.887125 
L 578.309387 49.406744 
L 578.55534 52.538716 
L 578.728967 53.114617 
L 579.051607 50.504042 
L 579.234913 47.32547 
L 579.471695 48.744422 
L 579.707111 53.070723 
L 580.001437 55.725652 
L 580.432509 56.892321 
L 580.954797 55.237661 
L 581.193618 55.771308 
L 581.503861 57.418047 
L 581.67021 55.562321 
L 582.167232 53.120397 
L 582.685641 54.904562 
L 582.987025 54.870978 
L 583.282015 52.535914 
L 583.519781 47.387788 
L 583.93793 45.510267 
L 584.119675 45.42589 
L 584.35554 49.3908 
L 584.712611 51.018704 
L 584.891392 49.910418 
L 585.071395 48.06077 
L 585.399086 48.515333 
L 585.63542 51.996853 
L 585.908154 62.349111 
L 586.150599 64.675058 
L 586.440302 63.476714 
L 586.619088 59.32919 
L 587.158906 51.74607 
L 587.45692 50.629336 
L 587.635596 52.582879 
L 587.875755 52.691066 
L 588.119341 52.925917 
L 588.64969 51.055957 
L 588.888745 52.722391 
L 589.128115 57.481932 
L 589.612081 59.953099 
L 590.201208 56.550176 
L 590.339608 56.766872 
L 591.098088 54.549364 
L 591.644742 55.333082 
L 591.94111 54.151487 
L 592.179709 55.479199 
L 592.35766 60.555883 
L 592.599352 61.951751 
L 592.95496 59.965784 
L 593.252524 61.105578 
L 593.492874 59.71326 
L 593.612706 57.72906 
L 594.038067 55.760432 
L 594.510253 59.760384 
L 594.863145 59.632318 
L 595.041953 58.093944 
L 595.294118 57.039445 
L 595.520186 54.729931 
L 595.995268 59.428739 
L 596.502813 60.400637 
L 596.502813 60.400637 
" clip-path="url(#p3ad79ed178)" style="fill: none; stroke: #ff0000; stroke-opacity: 0.5; stroke-width: 1.5; stroke-linecap: square"/>
   </g>
   <g id="patch_3">
    <path d="M 38.502813 277.92 
L 38.502813 0.72 
" style="fill: none; stroke: #000000; stroke-width: 0.8; stroke-linejoin: miter; stroke-linecap: square"/>
   </g>
   <g id="patch_4">
    <path d="M 596.502813 277.92 
L 596.502813 0.72 
" style="fill: none; stroke: #000000; stroke-width: 0.8; stroke-linejoin: miter; stroke-linecap: square"/>
   </g>
   <g id="patch_5">
    <path d="M 38.502813 277.92 
L 596.502813 277.92 
" style="fill: none; stroke: #000000; stroke-width: 0.8; stroke-linejoin: miter; stroke-linecap: square"/>
   </g>
   <g id="patch_6">
    <path d="M 38.502813 0.72 
L 596.502813 0.72 
" style="fill: none; stroke: #000000; stroke-width: 0.8; stroke-linejoin: miter; stroke-linecap: square"/>
   </g>
   <g id="legend_1">
    <g id="patch_7">
     <path d="M 45.502813 38.07625 
L 119.271563 38.07625 
Q 121.271563 38.07625 121.271563 36.07625 
L 121.271563 7.72 
Q 121.271563 5.72 119.271563 5.72 
L 45.502813 5.72 
Q 43.502813 5.72 43.502813 7.72 
L 43.502813 36.07625 
Q 43.502813 38.07625 45.502813 38.07625 
z
" style="fill: #ffffff; opacity: 0.8; stroke: #cccccc; stroke-linejoin: miter"/>
    </g>
    <g id="line2d_33">
     <path d="M 47.502813 13.818438 
L 57.502813 13.818438 
L 67.502813 13.818438 
" style="fill: none; stroke: #0000ff; stroke-opacity: 0.5; stroke-width: 1.5; stroke-linecap: square"/>
    </g>
    <g id="text_18">
     <!-- RNEA -->
     <g transform="translate(75.502813 17.318438) scale(0.1 -0.1)">
      <defs>
       <path id="DejaVuSans-52" d="M 2841 2188 
Q 3044 2119 3236 1894 
Q 3428 1669 3622 1275 
L 4263 0 
L 3584 0 
L 2988 1197 
Q 2756 1666 2539 1819 
Q 2322 1972 1947 1972 
L 1259 1972 
L 1259 0 
L 628 0 
L 628 4666 
L 2053 4666 
Q 2853 4666 3247 4331 
Q 3641 3997 3641 3322 
Q 3641 2881 3436 2590 
Q 3231 2300 2841 2188 
z
M 1259 4147 
L 1259 2491 
L 2053 2491 
Q 2509 2491 2742 2702 
Q 2975 2913 2975 3322 
Q 2975 3731 2742 3939 
Q 2509 4147 2053 4147 
L 1259 4147 
z
" transform="scale(0.015625)"/>
       <path id="DejaVuSans-45" d="M 628 4666 
L 3578 4666 
L 3578 4134 
L 1259 4134 
L 1259 2753 
L 3481 2753 
L 3481 2222 
L 1259 2222 
L 1259 531 
L 3634 531 
L 3634 0 
L 628 0 
L 628 4666 
z
" transform="scale(0.015625)"/>
       <path id="DejaVuSans-41" d="M 2188 4044 
L 1331 1722 
L 3047 1722 
L 2188 4044 
z
M 1831 4666 
L 2547 4666 
L 4325 0 
L 3669 0 
L 3244 1197 
L 1141 1197 
L 716 0 
L 50 0 
L 1831 4666 
z
" transform="scale(0.015625)"/>
      </defs>
      <use xlink:href="#DejaVuSans-52"/>
      <use xlink:href="#DejaVuSans-4e" x="69.482422"/>
      <use xlink:href="#DejaVuSans-45" x="144.287109"/>
      <use xlink:href="#DejaVuSans-41" x="207.470703"/>
     </g>
    </g>
    <g id="line2d_34">
     <path d="M 47.502813 28.496563 
L 57.502813 28.496563 
L 67.502813 28.496563 
" style="fill: none; stroke: #ff0000; stroke-opacity: 0.5; stroke-width: 1.5; stroke-linecap: square"/>
    </g>
    <g id="text_19">
     <!-- BURNEA -->
     <g transform="translate(75.502813 31.996563) scale(0.1 -0.1)">
      <defs>
       <path id="DejaVuSans-42" d="M 1259 2228 
L 1259 519 
L 2272 519 
Q 2781 519 3026 730 
Q 3272 941 3272 1375 
Q 3272 1813 3026 2020 
Q 2781 2228 2272 2228 
L 1259 2228 
z
M 1259 4147 
L 1259 2741 
L 2194 2741 
Q 2656 2741 2882 2914 
Q 3109 3088 3109 3444 
Q 3109 3797 2882 3972 
Q 2656 4147 2194 4147 
L 1259 4147 
z
M 628 4666 
L 2241 4666 
Q 2963 4666 3353 4366 
Q 3744 4066 3744 3513 
Q 3744 3084 3544 2831 
Q 3344 2578 2956 2516 
Q 3422 2416 3680 2098 
Q 3938 1781 3938 1306 
Q 3938 681 3513 340 
Q 3088 0 2303 0 
L 628 0 
L 628 4666 
z
" transform="scale(0.015625)"/>
       <path id="DejaVuSans-55" d="M 556 4666 
L 1191 4666 
L 1191 1831 
Q 1191 1081 1462 751 
Q 1734 422 2344 422 
Q 2950 422 3222 751 
Q 3494 1081 3494 1831 
L 3494 4666 
L 4128 4666 
L 4128 1753 
Q 4128 841 3676 375 
Q 3225 -91 2344 -91 
Q 1459 -91 1007 375 
Q 556 841 556 1753 
L 556 4666 
z
" transform="scale(0.015625)"/>
      </defs>
      <use xlink:href="#DejaVuSans-42"/>
      <use xlink:href="#DejaVuSans-55" x="68.603516"/>
      <use xlink:href="#DejaVuSans-52" x="141.796875"/>
      <use xlink:href="#DejaVuSans-4e" x="211.279297"/>
      <use xlink:href="#DejaVuSans-45" x="286.083984"/>
      <use xlink:href="#DejaVuSans-41" x="349.267578"/>
     </g>
    </g>
   </g>
  </g>
 </g>
 <defs>
  <clipPath id="p3ad79ed178">
   <rect x="38.502813" y="0.72" width="558" height="277.2"/>
  </clipPath>
 </defs>
</svg>
