<?xml version="1.0" encoding="utf-8" standalone="no"?>
<!DOCTYPE svg PUBLIC "-//W3C//DTD SVG 1.1//EN"
  "http://www.w3.org/Graphics/SVG/1.1/DTD/svg11.dtd">
<svg xmlns:xlink="http://www.w3.org/1999/xlink" width="427.43952pt" height="211.43952pt" viewBox="0 0 427.43952 211.43952" xmlns="http://www.w3.org/2000/svg" version="1.1">
 <metadata>
  <rdf:RDF xmlns:dc="http://purl.org/dc/elements/1.1/" xmlns:cc="http://creativecommons.org/ns#" xmlns:rdf="http://www.w3.org/1999/02/22-rdf-syntax-ns#">
   <cc:Work>
    <dc:type rdf:resource="http://purl.org/dc/dcmitype/StillImage"/>
    <dc:date>2023-09-09T18:28:58.253237</dc:date>
    <dc:format>image/svg+xml</dc:format>
    <dc:creator>
     <cc:Agent>
      <dc:title>Matplotlib v3.7.2, https://matplotlib.org/</dc:title>
     </cc:Agent>
    </dc:creator>
   </cc:Work>
  </rdf:RDF>
 </metadata>
 <defs>
  <style type="text/css">*{stroke-linejoin: round; stroke-linecap: butt}</style>
 </defs>
 <g id="figure_1">
  <g id="patch_1">
   <path d="M 0 211.43952 
L 427.43952 211.43952 
L 427.43952 0 
L 0 0 
L 0 211.43952 
z
" style="fill: none"/>
  </g>
  <g id="axes_1">
   <g id="patch_2">
    <path d="M 38.502813 184.36327 
L 426.71952 184.36327 
L 426.71952 0.72 
L 38.502813 0.72 
L 38.502813 184.36327 
z
" style="fill: none"/>
   </g>
   <g id="matplotlib.axis_1">
    <g id="xtick_1">
     <g id="line2d_1">
      <path d="M 38.502813 184.36327 
L 38.502813 0.72 
" clip-path="url(#p584df51f52)" style="fill: none; stroke-dasharray: 0.8,1.32; stroke-dashoffset: 0; stroke: #000000; stroke-opacity: 0.5; stroke-width: 0.8"/>
     </g>
     <g id="line2d_2">
      <defs>
       <path id="mf9a42f4d68" d="M 0 0 
L 0 3.5 
" style="stroke: #000000; stroke-width: 0.8"/>
      </defs>
      <g>
       <use xlink:href="#mf9a42f4d68" x="38.502813" y="184.36327" style="stroke: #000000; stroke-width: 0.8"/>
      </g>
     </g>
     <g id="text_1">
      <!-- 0.0 -->
      <g transform="translate(30.55125 198.961707) scale(0.1 -0.1)">
       <defs>
        <path id="DejaVuSans-30" d="M 2034 4250 
Q 1547 4250 1301 3770 
Q 1056 3291 1056 2328 
Q 1056 1369 1301 889 
Q 1547 409 2034 409 
Q 2525 409 2770 889 
Q 3016 1369 3016 2328 
Q 3016 3291 2770 3770 
Q 2525 4250 2034 4250 
z
M 2034 4750 
Q 2819 4750 3233 4129 
Q 3647 3509 3647 2328 
Q 3647 1150 3233 529 
Q 2819 -91 2034 -91 
Q 1250 -91 836 529 
Q 422 1150 422 2328 
Q 422 3509 836 4129 
Q 1250 4750 2034 4750 
z
" transform="scale(0.015625)"/>
        <path id="DejaVuSans-2e" d="M 684 794 
L 1344 794 
L 1344 0 
L 684 0 
L 684 794 
z
" transform="scale(0.015625)"/>
       </defs>
       <use xlink:href="#DejaVuSans-30"/>
       <use xlink:href="#DejaVuSans-2e" x="63.623047"/>
       <use xlink:href="#DejaVuSans-30" x="95.410156"/>
      </g>
     </g>
    </g>
    <g id="xtick_2">
     <g id="line2d_3">
      <path d="M 90.09203 184.36327 
L 90.09203 0.72 
" clip-path="url(#p584df51f52)" style="fill: none; stroke-dasharray: 0.8,1.32; stroke-dashoffset: 0; stroke: #000000; stroke-opacity: 0.5; stroke-width: 0.8"/>
     </g>
     <g id="line2d_4">
      <g>
       <use xlink:href="#mf9a42f4d68" x="90.09203" y="184.36327" style="stroke: #000000; stroke-width: 0.8"/>
      </g>
     </g>
     <g id="text_2">
      <!-- 2.5 -->
      <g transform="translate(82.140467 198.961707) scale(0.1 -0.1)">
       <defs>
        <path id="DejaVuSans-32" d="M 1228 531 
L 3431 531 
L 3431 0 
L 469 0 
L 469 531 
Q 828 903 1448 1529 
Q 2069 2156 2228 2338 
Q 2531 2678 2651 2914 
Q 2772 3150 2772 3378 
Q 2772 3750 2511 3984 
Q 2250 4219 1831 4219 
Q 1534 4219 1204 4116 
Q 875 4013 500 3803 
L 500 4441 
Q 881 4594 1212 4672 
Q 1544 4750 1819 4750 
Q 2544 4750 2975 4387 
Q 3406 4025 3406 3419 
Q 3406 3131 3298 2873 
Q 3191 2616 2906 2266 
Q 2828 2175 2409 1742 
Q 1991 1309 1228 531 
z
" transform="scale(0.015625)"/>
        <path id="DejaVuSans-35" d="M 691 4666 
L 3169 4666 
L 3169 4134 
L 1269 4134 
L 1269 2991 
Q 1406 3038 1543 3061 
Q 1681 3084 1819 3084 
Q 2600 3084 3056 2656 
Q 3513 2228 3513 1497 
Q 3513 744 3044 326 
Q 2575 -91 1722 -91 
Q 1428 -91 1123 -41 
Q 819 9 494 109 
L 494 744 
Q 775 591 1075 516 
Q 1375 441 1709 441 
Q 2250 441 2565 725 
Q 2881 1009 2881 1497 
Q 2881 1984 2565 2268 
Q 2250 2553 1709 2553 
Q 1456 2553 1204 2497 
Q 953 2441 691 2322 
L 691 4666 
z
" transform="scale(0.015625)"/>
       </defs>
       <use xlink:href="#DejaVuSans-32"/>
       <use xlink:href="#DejaVuSans-2e" x="63.623047"/>
       <use xlink:href="#DejaVuSans-35" x="95.410156"/>
      </g>
     </g>
    </g>
    <g id="xtick_3">
     <g id="line2d_5">
      <path d="M 141.681247 184.36327 
L 141.681247 0.72 
" clip-path="url(#p584df51f52)" style="fill: none; stroke-dasharray: 0.8,1.32; stroke-dashoffset: 0; stroke: #000000; stroke-opacity: 0.5; stroke-width: 0.8"/>
     </g>
     <g id="line2d_6">
      <g>
       <use xlink:href="#mf9a42f4d68" x="141.681247" y="184.36327" style="stroke: #000000; stroke-width: 0.8"/>
      </g>
     </g>
     <g id="text_3">
      <!-- 5.0 -->
      <g transform="translate(133.729684 198.961707) scale(0.1 -0.1)">
       <use xlink:href="#DejaVuSans-35"/>
       <use xlink:href="#DejaVuSans-2e" x="63.623047"/>
       <use xlink:href="#DejaVuSans-30" x="95.410156"/>
      </g>
     </g>
    </g>
    <g id="xtick_4">
     <g id="line2d_7">
      <path d="M 193.270464 184.36327 
L 193.270464 0.72 
" clip-path="url(#p584df51f52)" style="fill: none; stroke-dasharray: 0.8,1.32; stroke-dashoffset: 0; stroke: #000000; stroke-opacity: 0.5; stroke-width: 0.8"/>
     </g>
     <g id="line2d_8">
      <g>
       <use xlink:href="#mf9a42f4d68" x="193.270464" y="184.36327" style="stroke: #000000; stroke-width: 0.8"/>
      </g>
     </g>
     <g id="text_4">
      <!-- 7.5 -->
      <g transform="translate(185.318902 198.961707) scale(0.1 -0.1)">
       <defs>
        <path id="DejaVuSans-37" d="M 525 4666 
L 3525 4666 
L 3525 4397 
L 1831 0 
L 1172 0 
L 2766 4134 
L 525 4134 
L 525 4666 
z
" transform="scale(0.015625)"/>
       </defs>
       <use xlink:href="#DejaVuSans-37"/>
       <use xlink:href="#DejaVuSans-2e" x="63.623047"/>
       <use xlink:href="#DejaVuSans-35" x="95.410156"/>
      </g>
     </g>
    </g>
    <g id="xtick_5">
     <g id="line2d_9">
      <path d="M 244.859681 184.36327 
L 244.859681 0.72 
" clip-path="url(#p584df51f52)" style="fill: none; stroke-dasharray: 0.8,1.32; stroke-dashoffset: 0; stroke: #000000; stroke-opacity: 0.5; stroke-width: 0.8"/>
     </g>
     <g id="line2d_10">
      <g>
       <use xlink:href="#mf9a42f4d68" x="244.859681" y="184.36327" style="stroke: #000000; stroke-width: 0.8"/>
      </g>
     </g>
     <g id="text_5">
      <!-- 10.0 -->
      <g transform="translate(233.726869 198.961707) scale(0.1 -0.1)">
       <defs>
        <path id="DejaVuSans-31" d="M 794 531 
L 1825 531 
L 1825 4091 
L 703 3866 
L 703 4441 
L 1819 4666 
L 2450 4666 
L 2450 531 
L 3481 531 
L 3481 0 
L 794 0 
L 794 531 
z
" transform="scale(0.015625)"/>
       </defs>
       <use xlink:href="#DejaVuSans-31"/>
       <use xlink:href="#DejaVuSans-30" x="63.623047"/>
       <use xlink:href="#DejaVuSans-2e" x="127.246094"/>
       <use xlink:href="#DejaVuSans-30" x="159.033203"/>
      </g>
     </g>
    </g>
    <g id="xtick_6">
     <g id="line2d_11">
      <path d="M 296.448899 184.36327 
L 296.448899 0.72 
" clip-path="url(#p584df51f52)" style="fill: none; stroke-dasharray: 0.8,1.32; stroke-dashoffset: 0; stroke: #000000; stroke-opacity: 0.5; stroke-width: 0.8"/>
     </g>
     <g id="line2d_12">
      <g>
       <use xlink:href="#mf9a42f4d68" x="296.448899" y="184.36327" style="stroke: #000000; stroke-width: 0.8"/>
      </g>
     </g>
     <g id="text_6">
      <!-- 12.5 -->
      <g transform="translate(285.316086 198.961707) scale(0.1 -0.1)">
       <use xlink:href="#DejaVuSans-31"/>
       <use xlink:href="#DejaVuSans-32" x="63.623047"/>
       <use xlink:href="#DejaVuSans-2e" x="127.246094"/>
       <use xlink:href="#DejaVuSans-35" x="159.033203"/>
      </g>
     </g>
    </g>
    <g id="xtick_7">
     <g id="line2d_13">
      <path d="M 348.038116 184.36327 
L 348.038116 0.72 
" clip-path="url(#p584df51f52)" style="fill: none; stroke-dasharray: 0.8,1.32; stroke-dashoffset: 0; stroke: #000000; stroke-opacity: 0.5; stroke-width: 0.8"/>
     </g>
     <g id="line2d_14">
      <g>
       <use xlink:href="#mf9a42f4d68" x="348.038116" y="184.36327" style="stroke: #000000; stroke-width: 0.8"/>
      </g>
     </g>
     <g id="text_7">
      <!-- 15.0 -->
      <g transform="translate(336.905303 198.961707) scale(0.1 -0.1)">
       <use xlink:href="#DejaVuSans-31"/>
       <use xlink:href="#DejaVuSans-35" x="63.623047"/>
       <use xlink:href="#DejaVuSans-2e" x="127.246094"/>
       <use xlink:href="#DejaVuSans-30" x="159.033203"/>
      </g>
     </g>
    </g>
    <g id="xtick_8">
     <g id="line2d_15">
      <path d="M 399.627333 184.36327 
L 399.627333 0.72 
" clip-path="url(#p584df51f52)" style="fill: none; stroke-dasharray: 0.8,1.32; stroke-dashoffset: 0; stroke: #000000; stroke-opacity: 0.5; stroke-width: 0.8"/>
     </g>
     <g id="line2d_16">
      <g>
       <use xlink:href="#mf9a42f4d68" x="399.627333" y="184.36327" style="stroke: #000000; stroke-width: 0.8"/>
      </g>
     </g>
     <g id="text_8">
      <!-- 17.5 -->
      <g transform="translate(388.494521 198.961707) scale(0.1 -0.1)">
       <use xlink:href="#DejaVuSans-31"/>
       <use xlink:href="#DejaVuSans-37" x="63.623047"/>
       <use xlink:href="#DejaVuSans-2e" x="127.246094"/>
       <use xlink:href="#DejaVuSans-35" x="159.033203"/>
      </g>
     </g>
    </g>
    <g id="text_9">
     <!-- Zeit [s] -->
     <g transform="translate(214.665073 208.639832) scale(0.1 -0.1)">
      <defs>
       <path id="DejaVuSans-5a" d="M 359 4666 
L 4025 4666 
L 4025 4184 
L 1075 531 
L 4097 531 
L 4097 0 
L 288 0 
L 288 481 
L 3238 4134 
L 359 4134 
L 359 4666 
z
" transform="scale(0.015625)"/>
       <path id="DejaVuSans-65" d="M 3597 1894 
L 3597 1613 
L 953 1613 
Q 991 1019 1311 708 
Q 1631 397 2203 397 
Q 2534 397 2845 478 
Q 3156 559 3463 722 
L 3463 178 
Q 3153 47 2828 -22 
Q 2503 -91 2169 -91 
Q 1331 -91 842 396 
Q 353 884 353 1716 
Q 353 2575 817 3079 
Q 1281 3584 2069 3584 
Q 2775 3584 3186 3129 
Q 3597 2675 3597 1894 
z
M 3022 2063 
Q 3016 2534 2758 2815 
Q 2500 3097 2075 3097 
Q 1594 3097 1305 2825 
Q 1016 2553 972 2059 
L 3022 2063 
z
" transform="scale(0.015625)"/>
       <path id="DejaVuSans-69" d="M 603 3500 
L 1178 3500 
L 1178 0 
L 603 0 
L 603 3500 
z
M 603 4863 
L 1178 4863 
L 1178 4134 
L 603 4134 
L 603 4863 
z
" transform="scale(0.015625)"/>
       <path id="DejaVuSans-74" d="M 1172 4494 
L 1172 3500 
L 2356 3500 
L 2356 3053 
L 1172 3053 
L 1172 1153 
Q 1172 725 1289 603 
Q 1406 481 1766 481 
L 2356 481 
L 2356 0 
L 1766 0 
Q 1100 0 847 248 
Q 594 497 594 1153 
L 594 3053 
L 172 3053 
L 172 3500 
L 594 3500 
L 594 4494 
L 1172 4494 
z
" transform="scale(0.015625)"/>
       <path id="DejaVuSans-20" transform="scale(0.015625)"/>
       <path id="DejaVuSans-5b" d="M 550 4863 
L 1875 4863 
L 1875 4416 
L 1125 4416 
L 1125 -397 
L 1875 -397 
L 1875 -844 
L 550 -844 
L 550 4863 
z
" transform="scale(0.015625)"/>
       <path id="DejaVuSans-73" d="M 2834 3397 
L 2834 2853 
Q 2591 2978 2328 3040 
Q 2066 3103 1784 3103 
Q 1356 3103 1142 2972 
Q 928 2841 928 2578 
Q 928 2378 1081 2264 
Q 1234 2150 1697 2047 
L 1894 2003 
Q 2506 1872 2764 1633 
Q 3022 1394 3022 966 
Q 3022 478 2636 193 
Q 2250 -91 1575 -91 
Q 1294 -91 989 -36 
Q 684 19 347 128 
L 347 722 
Q 666 556 975 473 
Q 1284 391 1588 391 
Q 1994 391 2212 530 
Q 2431 669 2431 922 
Q 2431 1156 2273 1281 
Q 2116 1406 1581 1522 
L 1381 1569 
Q 847 1681 609 1914 
Q 372 2147 372 2553 
Q 372 3047 722 3315 
Q 1072 3584 1716 3584 
Q 2034 3584 2315 3537 
Q 2597 3491 2834 3397 
z
" transform="scale(0.015625)"/>
       <path id="DejaVuSans-5d" d="M 1947 4863 
L 1947 -844 
L 622 -844 
L 622 -397 
L 1369 -397 
L 1369 4416 
L 622 4416 
L 622 4863 
L 1947 4863 
z
" transform="scale(0.015625)"/>
      </defs>
      <use xlink:href="#DejaVuSans-5a"/>
      <use xlink:href="#DejaVuSans-65" x="68.505859"/>
      <use xlink:href="#DejaVuSans-69" x="130.029297"/>
      <use xlink:href="#DejaVuSans-74" x="157.8125"/>
      <use xlink:href="#DejaVuSans-20" x="197.021484"/>
      <use xlink:href="#DejaVuSans-5b" x="228.808594"/>
      <use xlink:href="#DejaVuSans-73" x="267.822266"/>
      <use xlink:href="#DejaVuSans-5d" x="319.921875"/>
     </g>
    </g>
   </g>
   <g id="matplotlib.axis_2">
    <g id="ytick_1">
     <g id="line2d_17">
      <path d="M 38.502813 171.182808 
L 426.71952 171.182808 
" clip-path="url(#p584df51f52)" style="fill: none; stroke-dasharray: 0.8,1.32; stroke-dashoffset: 0; stroke: #000000; stroke-opacity: 0.5; stroke-width: 0.8"/>
     </g>
     <g id="line2d_18">
      <defs>
       <path id="mb23f92f7d0" d="M 0 0 
L -3.5 0 
" style="stroke: #000000; stroke-width: 0.8"/>
      </defs>
      <g>
       <use xlink:href="#mb23f92f7d0" x="38.502813" y="171.182808" style="stroke: #000000; stroke-width: 0.8"/>
      </g>
     </g>
     <g id="text_10">
      <!-- −20 -->
      <g transform="translate(10.398125 174.982027) scale(0.1 -0.1)">
       <defs>
        <path id="DejaVuSans-2212" d="M 678 2272 
L 4684 2272 
L 4684 1741 
L 678 1741 
L 678 2272 
z
" transform="scale(0.015625)"/>
       </defs>
       <use xlink:href="#DejaVuSans-2212"/>
       <use xlink:href="#DejaVuSans-32" x="83.789062"/>
       <use xlink:href="#DejaVuSans-30" x="147.412109"/>
      </g>
     </g>
    </g>
    <g id="ytick_2">
     <g id="line2d_19">
      <path d="M 38.502813 142.081674 
L 426.71952 142.081674 
" clip-path="url(#p584df51f52)" style="fill: none; stroke-dasharray: 0.8,1.32; stroke-dashoffset: 0; stroke: #000000; stroke-opacity: 0.5; stroke-width: 0.8"/>
     </g>
     <g id="line2d_20">
      <g>
       <use xlink:href="#mb23f92f7d0" x="38.502813" y="142.081674" style="stroke: #000000; stroke-width: 0.8"/>
      </g>
     </g>
     <g id="text_11">
      <!-- −10 -->
      <g transform="translate(10.398125 145.880893) scale(0.1 -0.1)">
       <use xlink:href="#DejaVuSans-2212"/>
       <use xlink:href="#DejaVuSans-31" x="83.789062"/>
       <use xlink:href="#DejaVuSans-30" x="147.412109"/>
      </g>
     </g>
    </g>
    <g id="ytick_3">
     <g id="line2d_21">
      <path d="M 38.502813 112.980541 
L 426.71952 112.980541 
" clip-path="url(#p584df51f52)" style="fill: none; stroke-dasharray: 0.8,1.32; stroke-dashoffset: 0; stroke: #000000; stroke-opacity: 0.5; stroke-width: 0.8"/>
     </g>
     <g id="line2d_22">
      <g>
       <use xlink:href="#mb23f92f7d0" x="38.502813" y="112.980541" style="stroke: #000000; stroke-width: 0.8"/>
      </g>
     </g>
     <g id="text_12">
      <!-- 0 -->
      <g transform="translate(25.140313 116.77976) scale(0.1 -0.1)">
       <use xlink:href="#DejaVuSans-30"/>
      </g>
     </g>
    </g>
    <g id="ytick_4">
     <g id="line2d_23">
      <path d="M 38.502813 83.879407 
L 426.71952 83.879407 
" clip-path="url(#p584df51f52)" style="fill: none; stroke-dasharray: 0.8,1.32; stroke-dashoffset: 0; stroke: #000000; stroke-opacity: 0.5; stroke-width: 0.8"/>
     </g>
     <g id="line2d_24">
      <g>
       <use xlink:href="#mb23f92f7d0" x="38.502813" y="83.879407" style="stroke: #000000; stroke-width: 0.8"/>
      </g>
     </g>
     <g id="text_13">
      <!-- 10 -->
      <g transform="translate(18.777813 87.678626) scale(0.1 -0.1)">
       <use xlink:href="#DejaVuSans-31"/>
       <use xlink:href="#DejaVuSans-30" x="63.623047"/>
      </g>
     </g>
    </g>
    <g id="ytick_5">
     <g id="line2d_25">
      <path d="M 38.502813 54.778274 
L 426.71952 54.778274 
" clip-path="url(#p584df51f52)" style="fill: none; stroke-dasharray: 0.8,1.32; stroke-dashoffset: 0; stroke: #000000; stroke-opacity: 0.5; stroke-width: 0.8"/>
     </g>
     <g id="line2d_26">
      <g>
       <use xlink:href="#mb23f92f7d0" x="38.502813" y="54.778274" style="stroke: #000000; stroke-width: 0.8"/>
      </g>
     </g>
     <g id="text_14">
      <!-- 20 -->
      <g transform="translate(18.777813 58.577493) scale(0.1 -0.1)">
       <use xlink:href="#DejaVuSans-32"/>
       <use xlink:href="#DejaVuSans-30" x="63.623047"/>
      </g>
     </g>
    </g>
    <g id="ytick_6">
     <g id="line2d_27">
      <path d="M 38.502813 25.677141 
L 426.71952 25.677141 
" clip-path="url(#p584df51f52)" style="fill: none; stroke-dasharray: 0.8,1.32; stroke-dashoffset: 0; stroke: #000000; stroke-opacity: 0.5; stroke-width: 0.8"/>
     </g>
     <g id="line2d_28">
      <g>
       <use xlink:href="#mb23f92f7d0" x="38.502813" y="25.677141" style="stroke: #000000; stroke-width: 0.8"/>
      </g>
     </g>
     <g id="text_15">
      <!-- 30 -->
      <g transform="translate(18.777813 29.476359) scale(0.1 -0.1)">
       <defs>
        <path id="DejaVuSans-33" d="M 2597 2516 
Q 3050 2419 3304 2112 
Q 3559 1806 3559 1356 
Q 3559 666 3084 287 
Q 2609 -91 1734 -91 
Q 1441 -91 1130 -33 
Q 819 25 488 141 
L 488 750 
Q 750 597 1062 519 
Q 1375 441 1716 441 
Q 2309 441 2620 675 
Q 2931 909 2931 1356 
Q 2931 1769 2642 2001 
Q 2353 2234 1838 2234 
L 1294 2234 
L 1294 2753 
L 1863 2753 
Q 2328 2753 2575 2939 
Q 2822 3125 2822 3475 
Q 2822 3834 2567 4026 
Q 2313 4219 1838 4219 
Q 1578 4219 1281 4162 
Q 984 4106 628 3988 
L 628 4550 
Q 988 4650 1302 4700 
Q 1616 4750 1894 4750 
Q 2613 4750 3031 4423 
Q 3450 4097 3450 3541 
Q 3450 3153 3228 2886 
Q 3006 2619 2597 2516 
z
" transform="scale(0.015625)"/>
       </defs>
       <use xlink:href="#DejaVuSans-33"/>
       <use xlink:href="#DejaVuSans-30" x="63.623047"/>
      </g>
     </g>
    </g>
    <g id="text_16">
     <!-- Kraft [N] -->
     <g transform="translate(8.318438 113.804135) rotate(-90) scale(0.1 -0.1)">
      <defs>
       <path id="DejaVuSans-4b" d="M 628 4666 
L 1259 4666 
L 1259 2694 
L 3353 4666 
L 4166 4666 
L 1850 2491 
L 4331 0 
L 3500 0 
L 1259 2247 
L 1259 0 
L 628 0 
L 628 4666 
z
" transform="scale(0.015625)"/>
       <path id="DejaVuSans-72" d="M 2631 2963 
Q 2534 3019 2420 3045 
Q 2306 3072 2169 3072 
Q 1681 3072 1420 2755 
Q 1159 2438 1159 1844 
L 1159 0 
L 581 0 
L 581 3500 
L 1159 3500 
L 1159 2956 
Q 1341 3275 1631 3429 
Q 1922 3584 2338 3584 
Q 2397 3584 2469 3576 
Q 2541 3569 2628 3553 
L 2631 2963 
z
" transform="scale(0.015625)"/>
       <path id="DejaVuSans-61" d="M 2194 1759 
Q 1497 1759 1228 1600 
Q 959 1441 959 1056 
Q 959 750 1161 570 
Q 1363 391 1709 391 
Q 2188 391 2477 730 
Q 2766 1069 2766 1631 
L 2766 1759 
L 2194 1759 
z
M 3341 1997 
L 3341 0 
L 2766 0 
L 2766 531 
Q 2569 213 2275 61 
Q 1981 -91 1556 -91 
Q 1019 -91 701 211 
Q 384 513 384 1019 
Q 384 1609 779 1909 
Q 1175 2209 1959 2209 
L 2766 2209 
L 2766 2266 
Q 2766 2663 2505 2880 
Q 2244 3097 1772 3097 
Q 1472 3097 1187 3025 
Q 903 2953 641 2809 
L 641 3341 
Q 956 3463 1253 3523 
Q 1550 3584 1831 3584 
Q 2591 3584 2966 3190 
Q 3341 2797 3341 1997 
z
" transform="scale(0.015625)"/>
       <path id="DejaVuSans-66" d="M 2375 4863 
L 2375 4384 
L 1825 4384 
Q 1516 4384 1395 4259 
Q 1275 4134 1275 3809 
L 1275 3500 
L 2222 3500 
L 2222 3053 
L 1275 3053 
L 1275 0 
L 697 0 
L 697 3053 
L 147 3053 
L 147 3500 
L 697 3500 
L 697 3744 
Q 697 4328 969 4595 
Q 1241 4863 1831 4863 
L 2375 4863 
z
" transform="scale(0.015625)"/>
       <path id="DejaVuSans-4e" d="M 628 4666 
L 1478 4666 
L 3547 763 
L 3547 4666 
L 4159 4666 
L 4159 0 
L 3309 0 
L 1241 3903 
L 1241 0 
L 628 0 
L 628 4666 
z
" transform="scale(0.015625)"/>
      </defs>
      <use xlink:href="#DejaVuSans-4b"/>
      <use xlink:href="#DejaVuSans-72" x="65.576172"/>
      <use xlink:href="#DejaVuSans-61" x="106.689453"/>
      <use xlink:href="#DejaVuSans-66" x="167.96875"/>
      <use xlink:href="#DejaVuSans-74" x="201.423828"/>
      <use xlink:href="#DejaVuSans-20" x="240.632812"/>
      <use xlink:href="#DejaVuSans-5b" x="272.419922"/>
      <use xlink:href="#DejaVuSans-4e" x="311.433594"/>
      <use xlink:href="#DejaVuSans-5d" x="386.238281"/>
     </g>
    </g>
   </g>
   <g id="line2d_29">
    <path d="M 38.502813 90.487405 
L 167.740271 90.578927 
L 168.776803 90.859284 
L 168.942218 90.78345 
L 169.107821 90.923861 
L 169.315652 90.883109 
L 169.442143 90.680727 
L 169.93992 90.986829 
L 169.979168 90.77889 
L 170.476552 90.942233 
L 170.683728 90.749512 
L 171.184495 91.281308 
L 171.390371 91.125597 
L 172.017345 91.177594 
L 172.224076 91.113631 
L 172.390467 91.513027 
L 172.597282 91.625679 
L 172.867074 91.434038 
L 172.890431 90.96877 
L 173.219585 91.549771 
L 173.344281 92.036356 
L 173.426692 91.345081 
L 174.089983 92.403156 
L 174.256107 91.948704 
L 174.421625 92.440315 
L 174.629721 91.696906 
L 174.835794 92.778789 
L 174.960194 92.143615 
L 175.292269 92.595282 
L 175.717338 92.604725 
L 175.842435 92.975779 
L 175.966082 92.635109 
L 176.547265 93.492309 
L 176.878337 93.539182 
L 177.086584 93.429601 
L 177.211731 92.816647 
L 177.500898 93.8157 
L 177.542799 93.299263 
L 177.708732 93.556888 
L 177.875145 93.37137 
L 178.039763 94.269978 
L 178.206907 94.086066 
L 178.376506 94.385747 
L 178.579448 94.151698 
L 178.706389 93.389396 
L 178.910895 94.424332 
L 179.117783 94.789609 
L 179.24249 94.693031 
L 179.49159 94.671865 
L 179.657205 95.459791 
L 179.782056 94.971098 
L 179.947148 95.24061 
L 180.112916 95.091983 
L 180.321054 95.437399 
L 180.528161 95.167954 
L 180.860072 95.814373 
L 181.066874 95.689224 
L 181.152699 95.950198 
L 181.35943 95.843437 
L 181.649551 96.959549 
L 182.00196 96.372242 
L 182.168021 96.324632 
L 182.684974 97.316074 
L 183.005638 97.51894 
L 183.185199 97.101555 
L 183.389727 97.923677 
L 183.556317 97.64588 
L 183.721917 96.793177 
L 183.886987 97.953635 
L 184.052953 98.068381 
L 184.343248 98.861901 
L 184.509088 98.416727 
L 184.634012 97.571227 
L 184.846511 99.59602 
L 184.966286 98.865776 
L 185.104134 99.172658 
L 185.321087 99.128667 
L 185.589918 99.792813 
L 185.963761 99.813044 
L 186.129707 98.874739 
L 186.462318 100.807607 
L 186.667948 101.70086 
L 186.834352 101.873453 
L 187.041777 100.659145 
L 187.208633 100.916643 
L 187.335181 102.21836 
L 187.498644 101.67716 
L 187.705807 100.517197 
L 188.038914 102.954941 
L 188.244543 101.91138 
L 188.369759 102.12246 
L 188.535505 101.884086 
L 188.702007 102.845452 
L 188.868699 102.621532 
L 189.033047 103.584015 
L 189.323182 102.062748 
L 189.572243 104.560335 
L 189.614787 102.919964 
L 189.737865 104.030228 
L 190.070259 103.345042 
L 190.237035 105.017254 
L 190.527056 105.46254 
L 190.611255 103.816377 
L 190.817251 105.860902 
L 190.942467 104.714385 
L 191.107627 104.706741 
L 191.523033 105.931963 
L 191.614938 107.023856 
L 191.811547 105.177383 
L 192.019145 107.147275 
L 192.248529 105.88066 
L 192.417055 106.279912 
L 192.518548 107.845842 
L 192.809655 107.071605 
L 193.016079 108.240484 
L 193.265275 108.709863 
L 193.525223 107.557851 
L 193.641482 108.437385 
L 193.719918 108.094702 
L 193.979383 108.364897 
L 194.056481 108.942431 
L 194.225003 108.436179 
L 194.383236 108.485355 
L 194.548805 107.422798 
L 194.797579 107.609795 
L 194.922159 110.572921 
L 195.212183 110.570886 
L 195.295114 110.743963 
L 195.586589 110.412109 
L 196.124398 111.11695 
L 196.291833 109.941172 
L 196.580732 111.774641 
L 196.748291 111.066297 
L 196.912717 113.523482 
L 196.954617 111.120682 
L 197.119948 110.808994 
L 197.327727 111.654154 
L 197.540592 111.395864 
L 197.86703 113.531788 
L 198.239856 112.492231 
L 198.405795 114.198898 
L 198.541309 114.050346 
L 198.697139 112.793022 
L 198.878303 113.970603 
L 199.028913 113.587687 
L 199.235536 112.306156 
L 199.483734 113.002483 
L 199.649563 113.043104 
L 199.732634 114.044358 
L 200.022637 115.319975 
L 200.0651 116.348937 
L 200.479468 114.902363 
L 200.648575 117.343246 
L 200.769743 115.380686 
L 200.936176 115.941948 
L 201.144172 115.316875 
L 201.433198 117.514711 
L 201.599156 116.453154 
L 201.771257 118.580318 
L 201.972225 117.413998 
L 202.096849 117.689398 
L 202.32375 117.51024 
L 202.497627 118.431204 
L 202.802977 118.8058 
L 203.066925 118.291962 
L 203.258895 118.725947 
L 203.345358 117.351033 
L 203.591491 117.847126 
L 203.676205 120.032903 
L 203.881319 119.157402 
L 204.30162 119.282458 
L 204.544957 118.417254 
L 204.842997 121.674234 
L 205.085509 120.903439 
L 205.211776 121.747361 
L 205.458934 119.745256 
L 205.562396 121.790354 
L 205.79286 119.966691 
L 205.958517 120.496597 
L 206.123628 121.544547 
L 206.249665 121.531 
L 206.455061 122.466081 
L 206.579877 122.177425 
L 206.787181 123.429357 
L 206.953379 123.210812 
L 207.201515 124.749506 
L 207.326492 122.548867 
L 207.533153 124.006177 
L 207.628418 123.619535 
L 207.823123 123.736912 
L 207.950223 123.506656 
L 207.989909 125.642088 
L 208.282167 124.214816 
L 208.654127 126.153604 
L 208.819692 125.606487 
L 209.06875 123.71 
L 209.364106 126.385003 
L 209.52488 125.086584 
L 209.694221 125.216618 
L 210.022111 127.160461 
L 210.190221 126.541996 
L 210.478378 126.378761 
L 210.562104 127.555008 
L 210.72769 125.480005 
L 210.897039 127.781703 
L 211.060182 126.575944 
L 211.229053 128.170329 
L 211.394521 126.315668 
L 211.572053 127.758938 
L 211.726285 125.402016 
L 212.016167 127.728527 
L 212.102259 129.799229 
L 212.265662 128.104504 
L 212.431349 129.467444 
L 212.805319 127.204738 
L 212.948447 127.494515 
L 213.097541 131.453509 
L 213.345276 129.586871 
L 213.635086 128.361528 
L 213.718524 129.457952 
L 213.800791 128.425971 
L 214.091247 130.706377 
L 214.136742 129.546417 
L 214.329273 129.517456 
L 214.517147 128.528324 
L 214.961804 130.734958 
L 215.003774 132.322676 
L 215.169079 130.606138 
L 215.376665 130.681227 
L 215.542481 130.033482 
L 215.708254 131.432549 
L 215.915184 131.451737 
L 216.043251 131.11275 
L 216.206865 131.530794 
L 216.41344 128.413663 
L 216.58419 131.337332 
L 216.745894 130.749255 
L 216.870653 131.625902 
L 217.076131 130.374579 
L 217.454308 133.111401 
L 217.614932 132.119041 
L 217.947678 132.66507 
L 218.073785 132.24797 
L 218.320226 132.214322 
L 218.652175 133.384533 
L 218.778428 133.260941 
L 218.993718 133.825649 
L 219.108845 131.436608 
L 219.27589 132.896479 
L 219.48269 132.535125 
L 219.647945 134.693368 
L 219.813668 130.985019 
L 220.16022 133.3797 
L 220.313743 132.964161 
L 220.685603 131.869304 
L 220.851507 134.212025 
L 221.185178 134.424363 
L 221.473407 134.583276 
L 221.556393 132.89839 
L 221.76367 135.449087 
L 221.888417 133.746673 
L 222.13683 134.763336 
L 222.261216 132.421442 
L 222.386698 135.960044 
L 222.75861 133.262994 
L 222.900334 133.76629 
L 223.299739 133.662557 
L 223.506579 135.10204 
L 223.631297 134.844908 
L 223.879809 133.80987 
L 224.294277 136.12799 
L 224.501503 134.129854 
L 224.628545 136.85237 
L 224.87638 136.596174 
L 224.999346 134.094629 
L 225.165961 135.712517 
L 225.30129 134.811241 
L 225.930244 135.559095 
L 226.047075 136.56731 
L 226.207896 133.13066 
L 226.374016 134.306926 
L 226.583675 134.940835 
L 226.755858 134.14819 
L 226.913659 135.892472 
L 227.012404 134.617809 
L 227.342758 136.456882 
L 227.392505 135.346636 
L 227.592455 135.614829 
L 227.758081 136.702343 
L 227.883821 134.938979 
L 228.131341 133.273666 
L 228.255833 135.572543 
L 228.512468 136.265191 
L 228.630703 135.666903 
L 228.795006 134.164375 
L 229.13178 136.917568 
L 229.292654 135.486522 
L 229.541201 135.477443 
L 229.626368 144.780978 
L 229.873793 142.964949 
L 230.038834 143.860048 
L 230.338196 137.766269 
L 230.577786 138.810844 
L 230.662431 135.83762 
L 230.82737 134.900319 
L 231.035274 135.577844 
L 231.283205 135.402614 
L 231.344786 134.997829 
L 231.577432 134.586338 
L 231.798122 134.955658 
L 231.880109 134.75337 
L 232.258259 135.549746 
L 232.337894 135.260515 
L 232.547216 135.502761 
L 232.792382 135.55404 
L 232.999197 135.39091 
L 233.082376 135.539615 
L 233.206972 135.380585 
L 233.457252 135.544688 
L 234.080582 135.476312 
L 237.106334 135.472473 
L 237.189713 135.141527 
L 237.689531 135.500208 
L 238.14327 135.510075 
L 238.2678 135.557186 
L 238.558722 135.47898 
L 239.928434 135.47341 
L 240.092821 135.355335 
L 240.466943 135.472795 
L 252.99455 135.473089 
L 282.408575 135.473825 
L 311.659303 135.473729 
L 311.823265 138.922209 
L 311.99015 136.514063 
L 312.161281 137.34748 
L 312.336716 136.918673 
L 312.498394 135.651202 
L 312.661092 136.859362 
L 312.841523 136.420551 
L 313.075108 136.437414 
L 313.2884 135.06283 
L 313.379178 135.469638 
L 313.577042 135.660894 
L 313.746276 133.912517 
L 314.201629 136.221495 
L 314.578649 134.184437 
L 314.909075 135.516149 
L 315.166889 135.015919 
L 315.278734 133.857252 
L 315.48951 135.631335 
L 315.652905 135.422745 
L 315.818567 134.890145 
L 316.027603 135.87118 
L 316.194183 135.187484 
L 316.408253 136.583093 
L 316.507943 135.672355 
L 316.613191 135.794331 
L 316.986216 134.574206 
L 317.20556 135.068111 
L 317.320802 134.980076 
L 317.564282 135.920584 
L 317.706398 135.297578 
L 317.85523 136.976778 
L 318.0634 135.941672 
L 318.187507 133.754002 
L 318.353457 135.014899 
L 318.521708 133.559935 
L 318.85217 136.222267 
L 319.100521 134.864951 
L 319.225076 135.18171 
L 319.409494 135.261937 
L 319.558885 133.473744 
L 319.841148 136.493243 
L 320.136768 134.867529 
L 320.297066 135.051002 
L 320.504369 134.657666 
L 320.629841 136.051135 
L 321.085565 134.812072 
L 321.170351 135.438725 
L 321.335238 135.613444 
L 321.461537 135.103115 
L 321.708592 135.664271 
L 321.97571 134.507882 
L 322.165521 134.730557 
L 322.331441 135.605022 
L 322.499834 135.178408 
L 322.663992 133.414175 
L 322.833021 135.023438 
L 322.996495 134.045411 
L 323.335657 135.892478 
L 323.498092 136.222849 
L 323.706095 134.602269 
L 324.038273 136.242516 
L 324.203811 136.269251 
L 324.370413 134.72839 
L 324.659943 135.111118 
L 324.721012 135.499814 
L 324.909506 134.381844 
L 325.116151 135.655948 
L 325.323389 135.31524 
L 325.448723 136.243757 
L 325.614606 135.779135 
L 325.785326 134.862789 
L 326.072865 135.154471 
L 326.238562 134.151535 
L 326.412047 134.027362 
L 326.78644 135.830419 
L 326.948721 135.85293 
L 327.32073 135.356626 
L 327.360247 134.527831 
L 327.443537 135.280657 
L 327.669682 135.500862 
L 327.816366 136.452645 
L 328.108854 134.907577 
L 328.165571 136.20275 
L 328.32193 135.984582 
L 328.481153 133.365268 
L 328.64752 136.341168 
L 328.940757 135.913566 
L 329.072537 135.133462 
L 329.236918 136.995305 
L 329.36207 135.426234 
L 329.652278 133.971723 
L 329.694481 135.616655 
L 329.985262 133.245798 
L 330.151062 135.090983 
L 330.19387 134.725786 
L 330.481735 135.624163 
L 330.564866 136.53646 
L 330.896731 134.749166 
L 331.186949 135.370262 
L 331.270016 135.163721 
L 331.436321 135.806252 
L 331.60623 135.070958 
L 331.643987 135.606492 
L 331.769346 135.230221 
L 331.934519 136.38632 
L 332.102296 135.151277 
L 332.308094 136.313251 
L 332.43322 135.307405 
L 332.655635 135.536633 
L 332.767125 135.859392 
L 333.140408 134.868129 
L 333.309014 134.983656 
L 333.514844 135.392627 
L 333.806007 137.12139 
L 334.013531 134.276744 
L 334.14328 135.303888 
L 334.530533 134.489157 
L 334.679608 136.632435 
L 334.859288 135.62642 
L 335.175884 135.844575 
L 335.347981 134.051517 
L 335.555985 135.345356 
L 335.723733 135.52191 
L 335.931453 137.037988 
L 336.094646 134.854495 
L 336.261414 135.887266 
L 336.386343 135.383202 
L 336.593826 133.477428 
L 336.759288 134.79881 
L 337.036051 135.262527 
L 337.138595 134.893274 
L 337.261473 133.800543 
L 337.533264 134.713521 
L 337.632443 135.828028 
L 337.845969 134.692953 
L 337.964258 136.203787 
L 338.137004 134.737561 
L 338.633677 135.558223 
L 338.797148 135.273159 
L 339.010774 135.305195 
L 339.18314 135.183712 
L 339.338692 136.932719 
L 339.503594 134.616935 
L 339.878088 136.691363 
L 340.005552 133.630855 
L 340.211833 134.91791 
L 340.417118 135.311756 
L 340.541933 135.157904 
L 340.832671 135.107158 
L 341.073503 133.990443 
L 341.399078 136.771661 
L 341.609234 134.409182 
L 341.737669 135.478496 
L 342.273927 134.032526 
L 342.406038 136.036341 
L 342.605046 134.941455 
L 342.771238 133.320806 
L 342.937427 134.823233 
L 343.102823 135.186119 
L 343.269013 134.884188 
L 343.435661 135.826581 
L 343.725777 135.425499 
L 343.829534 134.820307 
L 344.099723 135.335047 
L 344.182432 134.120295 
L 344.348416 134.78212 
L 344.514318 133.553675 
L 344.813396 134.93218 
L 344.993925 134.527561 
L 345.181784 135.129033 
L 345.387017 134.736921 
L 345.525221 135.317456 
L 345.678126 134.400097 
L 345.845578 136.556654 
L 346.109824 135.172603 
L 346.219824 135.776787 
L 346.570196 133.940318 
L 346.929406 135.907124 
L 347.266428 134.982108 
L 347.610518 135.271051 
L 347.812893 135.126353 
L 347.897482 134.50487 
L 348.100811 134.875572 
L 348.308348 136.376902 
L 348.515742 134.805279 
L 348.598891 135.026992 
L 348.806141 134.923895 
L 348.977588 134.701328 
L 349.149989 135.387323 
L 349.304427 135.391917 
L 349.47129 135.260658 
L 349.678685 135.655075 
L 349.844641 134.892502 
L 350.012049 135.320205 
L 350.175789 135.127374 
L 350.34163 134.185688 
L 350.67893 135.384443 
L 350.841623 134.875563 
L 351.006434 134.981433 
L 351.380226 134.386689 
L 351.547773 134.632416 
L 351.75397 133.815389 
L 352.127203 136.456749 
L 352.302626 134.778796 
L 352.418432 135.36651 
L 352.625981 134.628965 
L 352.791429 135.84572 
L 352.957356 135.030816 
L 353.098215 135.268505 
L 353.248422 133.578301 
L 353.45844 133.382821 
L 353.662257 134.625883 
L 353.833948 134.69585 
L 353.953568 133.784906 
L 354.121182 136.093321 
L 354.285471 135.219167 
L 354.504945 134.853347 
L 354.629467 134.995897 
L 354.79515 134.178176 
L 355.169495 135.062073 
L 355.376697 135.835086 
L 355.503598 135.005427 
L 355.670175 134.717692 
L 355.832743 134.712234 
L 356.165537 136.185756 
L 356.373504 134.08376 
L 356.579788 134.977551 
L 356.70401 134.641721 
L 356.914665 133.386892 
L 357.080208 134.993725 
L 357.444592 134.869536 
L 357.577453 135.025301 
L 357.720344 134.962966 
L 357.911932 134.72209 
L 358.151598 133.638968 
L 358.28907 135.608652 
L 358.620771 133.812444 
L 358.787003 136.41459 
L 358.953268 133.967861 
L 359.118747 134.879754 
L 359.284997 134.660801 
L 359.452832 133.313076 
L 359.658684 133.896276 
L 359.783703 136.039672 
L 360.003568 134.340709 
L 360.032147 134.712567 
L 360.156545 135.160737 
L 360.366132 135.333554 
L 360.571805 134.733759 
L 360.695951 135.540544 
L 361.070572 133.948882 
L 361.194597 136.034318 
L 361.364832 134.641813 
L 361.702593 134.495806 
L 361.858873 132.937383 
L 362.273976 134.727369 
L 362.398408 134.78837 
L 362.522582 136.38292 
L 362.854919 133.864397 
L 363.106715 133.920407 
L 363.275235 134.526545 
L 363.439603 134.067085 
L 363.602606 134.498779 
L 363.768202 134.120803 
L 363.939195 133.360194 
L 364.273641 134.869353 
L 364.445173 134.356333 
L 364.610802 135.270221 
L 364.942428 133.868613 
L 365.149659 134.993589 
L 365.277996 133.456887 
L 365.483121 134.295291 
L 365.693161 136.062904 
L 366.188117 133.450655 
L 366.482734 135.822515 
L 366.519435 133.717571 
L 366.685325 135.465915 
L 367.018215 134.500471 
L 367.185628 132.962859 
L 367.52992 134.377964 
L 367.74185 134.321087 
L 368.069412 134.883147 
L 368.223268 133.782364 
L 368.389692 133.618956 
L 368.556487 135.184425 
L 368.77355 134.410623 
L 369.054915 134.681339 
L 369.097542 134.077533 
L 369.261187 134.662532 
L 369.717568 134.157298 
L 369.809147 135.307224 
L 369.939491 133.044409 
L 370.18811 136.333454 
L 370.495833 133.836604 
L 370.654645 133.975797 
L 370.821023 134.473824 
L 370.98985 134.18969 
L 371.241892 135.256022 
L 371.352999 134.080806 
L 371.518107 133.527854 
L 371.766469 134.157918 
L 371.895995 132.842876 
L 372.018108 134.012137 
L 372.223325 132.226779 
L 372.557244 135.01982 
L 373.068831 133.80678 
L 373.303165 132.674946 
L 373.396931 134.116243 
L 373.59294 130.551082 
L 373.800147 130.787673 
L 373.926978 131.639403 
L 374.092259 130.794886 
L 374.270184 130.916392 
L 374.633701 132.328213 
L 374.797878 132.189775 
L 374.967332 133.416771 
L 375.138826 133.240488 
L 375.461779 134.301314 
L 375.766989 134.240294 
L 375.927844 134.019408 
L 376.168486 134.07995 
L 376.54214 133.958143 
L 376.915065 133.92117 
L 378.582937 133.936365 
L 379.871843 133.957321 
L 379.954105 134.186384 
L 380.126978 133.91939 
L 380.913873 133.93006 
L 381.081683 133.968816 
L 381.453239 133.947178 
L 382.496825 133.951606 
L 382.70284 134.099745 
L 382.865877 133.798103 
L 383.197255 133.940939 
L 383.548285 133.902447 
L 387.682747 133.937131 
L 388.441189 133.938522 
L 391.799805 133.937209 
L 403.872146 133.938194 
L 426.71952 133.938723 
L 426.71952 133.938723 
" clip-path="url(#p584df51f52)" style="fill: none; stroke: #0000ff; stroke-opacity: 0.5; stroke-width: 1.75; stroke-linecap: square"/>
   </g>
   <g id="line2d_30">
    <path d="M 38.502813 162.1367 
L 38.586372 165.440172 
L 38.755356 160.406486 
L 38.804889 164.039741 
L 38.925958 163.223929 
L 39.138881 160.527697 
L 39.341015 162.704851 
L 39.465054 160.680123 
L 39.755109 162.409229 
L 39.921427 161.695499 
L 39.962962 159.161601 
L 40.419091 160.36533 
L 40.502338 159.90131 
L 40.629228 160.099748 
L 40.959149 159.384111 
L 41.165207 162.174522 
L 41.373431 160.812405 
L 41.581581 161.863002 
L 41.745801 164.862227 
L 41.963998 159.327063 
L 42.03648 162.703384 
L 42.202052 160.580319 
L 42.369418 164.644663 
L 42.744351 161.196561 
L 42.907635 160.486305 
L 43.073346 162.985914 
L 43.281243 163.106021 
L 43.489221 159.963053 
L 43.619341 160.468256 
L 43.840433 160.042299 
L 43.947639 164.307105 
L 44.113335 159.756731 
L 44.279421 162.54096 
L 44.570921 159.058124 
L 44.696674 161.019684 
L 44.777286 158.305923 
L 44.947605 158.124816 
L 45.11271 159.563076 
L 45.280153 158.199736 
L 45.483826 159.333271 
L 45.903891 157.398973 
L 46.80912 157.373571 
L 47.717034 161.245872 
L 48.624371 163.719249 
L 49.532758 161.985235 
L 50.440343 158.355828 
L 51.431258 157.127275 
L 52.421423 160.696552 
L 53.329477 161.779952 
L 53.427299 160.541909 
L 53.758412 163.536788 
L 53.924577 163.403754 
L 54.131233 162.33311 
L 54.339744 164.034594 
L 54.629176 158.045072 
L 54.757348 165.301074 
L 55.131559 161.736516 
L 55.295037 165.442565 
L 55.627036 156.093198 
L 56.000476 164.256044 
L 56.13528 163.398493 
L 56.333064 162.879014 
L 56.746749 158.241182 
L 56.829666 163.416925 
L 56.995956 158.827359 
L 57.162972 158.830289 
L 57.380299 162.717041 
L 57.708895 156.950803 
L 57.909483 161.313578 
L 58.243276 158.301104 
L 58.283578 161.493122 
L 58.40757 162.341802 
L 58.617422 156.713241 
L 58.738834 158.625123 
L 58.906011 164.278211 
L 59.112035 165.577523 
L 59.319447 164.522448 
L 59.444054 162.222328 
L 59.57008 162.480371 
L 59.734499 164.549816 
L 60.149775 158.411321 
L 60.482862 166.955795 
L 60.780423 156.341706 
L 60.985313 161.538227 
L 61.31567 159.165671 
L 61.399524 155.795542 
L 61.522231 159.964124 
L 61.856638 161.620235 
L 62.061554 160.50165 
L 62.228562 155.357758 
L 62.352275 158.063702 
L 62.811021 163.469093 
L 63.016444 163.64909 
L 63.057464 161.616721 
L 63.223481 160.358396 
L 63.38946 160.527067 
L 63.555706 158.799916 
L 63.762615 159.405003 
L 63.969792 165.086895 
L 64.138491 162.544065 
L 64.393611 157.732987 
L 64.426358 158.22456 
L 64.59281 158.212327 
L 64.799248 162.605742 
L 64.924123 162.495684 
L 65.133243 161.353142 
L 65.296761 165.500961 
L 65.629405 156.636256 
L 66.001911 166.430542 
L 66.12709 162.616306 
L 66.666937 158.627359 
L 66.831905 160.280252 
L 66.998738 157.697512 
L 67.329425 164.493504 
L 67.712556 152.442634 
L 68.035141 160.061554 
L 68.203445 157.029139 
L 68.532447 157.542801 
L 68.615701 162.452297 
L 68.704602 162.05857 
L 68.870271 155.423023 
L 69.071897 157.536997 
L 69.19689 162.900101 
L 69.362975 161.198592 
L 69.610891 156.70391 
L 69.900835 167.803059 
L 70.067893 166.389046 
L 70.232949 159.416907 
L 70.442476 160.330932 
L 70.647809 164.82647 
L 71.103606 156.87429 
L 71.269688 158.841833 
L 71.435806 158.724071 
L 71.692611 159.056759 
L 72.057258 164.567473 
L 72.306769 156.211288 
L 72.472629 158.359572 
L 72.846086 166.860426 
L 73.219987 160.432987 
L 73.347664 157.411313 
L 73.635317 157.949114 
L 73.71742 157.387114 
L 74.008375 157.534794 
L 74.339542 163.724389 
L 74.387394 161.548209 
L 74.795672 160.082696 
L 75.210143 161.178994 
L 75.500665 162.247002 
L 75.749183 160.296738 
L 75.956217 160.702181 
L 76.247047 164.241271 
L 76.412002 164.005385 
L 76.992949 156.379226 
L 77.326234 165.5555 
L 77.699691 154.654132 
L 77.823074 154.70074 
L 78.156673 159.388088 
L 78.550041 160.699185 
L 78.821169 162.153231 
L 78.942776 157.300157 
L 78.988623 153.639653 
L 79.400009 164.222837 
L 79.743602 155.805943 
L 79.94089 155.976974 
L 80.037769 161.889456 
L 80.229943 166.721252 
L 80.610261 159.493128 
L 80.818879 164.08105 
L 80.99713 164.327765 
L 81.146019 160.925752 
L 81.560211 159.490996 
L 81.654305 166.802123 
L 82.588081 166.301646 
L 83.490609 164.632258 
L 84.484611 163.30527 
L 84.539711 171.475457 
L 84.66477 173.26415 
L 85.082764 162.430421 
L 85.245405 155.989973 
L 85.508625 152.945198 
L 85.675042 156.481902 
L 85.759498 164.434957 
L 86.057746 170.654176 
L 86.760071 158.094573 
L 86.968483 162.886517 
L 87.095991 169.083343 
L 87.299607 171.893829 
L 87.48207 167.844875 
L 87.881858 152.658397 
L 87.964585 152.286915 
L 88.506917 174.236382 
L 88.631045 173.304468 
L 89.143635 160.409945 
L 89.342647 164.924847 
L 89.506136 165.882547 
L 89.671525 162.546835 
L 90.006064 154.155056 
L 90.709146 164.944584 
L 90.881089 161.716794 
L 91.093336 160.442029 
L 91.404457 170.173209 
L 91.642758 169.946997 
L 91.942447 156.982994 
L 92.376081 154.317 
L 92.570173 165.668626 
L 92.63124 167.484072 
L 92.750864 164.083782 
L 92.964533 162.870246 
L 93.20664 162.510199 
L 93.289089 161.921773 
L 93.454909 162.283994 
L 93.620737 163.73901 
L 93.828095 163.764802 
L 93.954799 163.01164 
L 94.337513 156.214052 
L 94.456954 156.251516 
L 94.708442 156.200056 
L 94.871228 153.5433 
L 95.078358 152.48859 
L 95.164617 156.21392 
L 95.410511 161.17926 
L 95.624723 159.013516 
L 95.700833 150.481825 
L 95.844986 147.842021 
L 96.200006 157.975425 
L 96.533178 151.658563 
L 96.698446 152.681638 
L 97.028904 152.763416 
L 97.074634 151.307467 
L 97.245392 156.764282 
L 97.401903 165.600798 
L 97.699946 170.594483 
L 97.775202 164.869431 
L 97.982493 163.336524 
L 98.233138 169.346358 
L 98.438057 168.757015 
L 98.646014 170.091641 
L 98.77191 172.19583 
L 98.97864 169.659866 
L 99.278061 159.141834 
L 99.479906 161.372155 
L 99.649089 165.022044 
L 99.813818 164.448824 
L 99.975938 162.978022 
L 100.349394 166.60312 
L 100.598244 164.783945 
L 100.84697 159.209515 
L 101.096004 159.288711 
L 101.17921 159.79972 
L 101.344827 160.064385 
L 101.553004 160.012915 
L 101.759046 160.101619 
L 101.966145 159.484291 
L 102.051522 158.378617 
L 102.381921 163.582084 
L 102.547567 165.99996 
L 102.713209 166.224169 
L 103.12737 162.358108 
L 103.252732 162.271873 
L 103.419261 161.983752 
L 104.303186 152.467732 
L 104.664595 158.325574 
L 104.976665 151.239495 
L 105.466524 165.664415 
L 105.84727 154.506824 
L 106.169076 162.894517 
L 106.543079 159.518004 
L 106.958774 165.37482 
L 107.130818 162.328525 
L 107.3753 153.842338 
L 107.747893 159.004928 
L 108.04783 154.419635 
L 108.297433 156.079463 
L 108.449944 158.544365 
L 108.659045 158.860517 
L 108.782339 160.010018 
L 109.114869 161.960519 
L 109.280227 161.898934 
L 109.448473 160.718196 
L 109.623216 162.837604 
L 109.946682 171.195849 
L 110.288654 166.94942 
L 110.456049 153.578867 
L 110.662074 155.553664 
L 110.994486 167.812156 
L 111.159567 168.113691 
L 111.662038 153.427041 
L 111.989816 157.967652 
L 112.196663 163.668139 
L 112.362925 160.963538 
L 112.698424 152.780763 
L 112.859922 154.750493 
L 113.321516 169.777827 
L 113.398649 169.153335 
L 113.776225 158.319365 
L 114.066584 166.517598 
L 114.2706 166.545788 
L 114.601328 160.171844 
L 114.891575 158.127064 
L 115.099502 163.862905 
L 115.431779 164.107665 
L 115.638632 162.303848 
L 115.80555 163.51747 
L 116.095338 167.546412 
L 116.137027 170.01671 
L 116.385323 167.124861 
L 116.468387 159.940977 
L 116.716859 155.563229 
L 117.01656 160.210096 
L 117.25945 166.321107 
L 117.545031 157.11625 
L 117.710841 156.107149 
L 118.045006 161.402453 
L 118.084294 164.384341 
L 118.293001 167.704049 
L 118.541457 158.320996 
L 118.802157 155.519936 
L 119.079652 168.433001 
L 119.286983 168.849946 
L 119.785263 152.921096 
L 119.951768 153.325742 
L 120.201611 158.722543 
L 120.286958 163.398479 
L 120.449973 161.541261 
L 120.822762 145.886671 
L 120.988512 145.782186 
L 121.445842 166.460669 
L 121.693199 168.696792 
L 122.15039 157.991081 
L 122.688828 172.477743 
L 122.899286 169.620091 
L 123.186902 153.82204 
L 123.476608 150.637648 
L 123.891834 165.475074 
L 124.398906 149.560945 
L 124.559032 151.169369 
L 124.93016 162.400964 
L 125.098314 161.081933 
L 125.431834 148.025907 
L 125.593972 149.735882 
L 125.933591 165.013176 
L 126.091208 164.678731 
L 126.505673 161.160649 
L 126.672368 163.299897 
L 126.962461 171.446852 
L 127.129093 170.408278 
L 127.294422 166.889078 
L 127.542028 164.049522 
L 127.832088 171.050836 
L 128.039652 170.475991 
L 128.413767 158.46964 
L 128.538294 158.638763 
L 128.703848 158.487801 
L 128.870071 158.813604 
L 129.201434 156.404271 
L 129.408601 156.575259 
L 129.661747 157.936175 
L 129.906815 160.283357 
L 130.239123 157.327981 
L 130.572201 161.119125 
L 130.864623 160.674258 
L 130.985567 159.431999 
L 131.48284 158.516872 
L 131.649393 158.398546 
L 131.961904 163.581406 
L 132.312427 157.924935 
L 132.568539 161.437332 
L 132.645334 166.173331 
L 132.882257 163.511483 
L 132.990985 155.750365 
L 133.144877 155.290815 
L 133.519284 163.225908 
L 133.84946 154.879699 
L 134.223187 162.5606 
L 134.56689 156.237243 
L 134.893828 165.09846 
L 135.385075 156.526272 
L 135.922919 164.165037 
L 136.266318 163.65325 
L 136.627928 152.122247 
L 136.918521 149.947084 
L 137.179339 161.070142 
L 137.332428 159.422752 
L 137.64509 149.305143 
L 138.1409 159.064462 
L 138.304691 158.542442 
L 138.554916 161.791397 
L 138.802793 161.959075 
L 139.179931 156.849748 
L 139.359433 156.052509 
L 139.524878 155.964278 
L 140.063941 161.9422 
L 140.398704 156.24935 
L 140.574233 158.807786 
L 140.742535 164.615559 
L 140.977349 168.111048 
L 141.26748 157.153024 
L 141.434008 156.190853 
L 141.765256 167.56283 
L 141.944207 167.266447 
L 142.179553 164.093425 
L 142.470084 162.901579 
L 142.677252 161.244148 
L 142.843209 160.9231 
L 142.96762 161.48077 
L 143.132982 160.737685 
L 143.299242 160.911782 
L 143.63131 161.972144 
L 143.796412 164.240862 
L 143.879377 162.742986 
L 144.170493 150.761495 
L 144.376725 154.080239 
L 144.508671 159.757561 
L 144.709156 159.330898 
L 145.044651 145.998838 
L 145.25827 143.696914 
L 145.876184 168.747824 
L 146.21044 160.625772 
L 146.621175 170.24106 
L 146.993667 165.149475 
L 147.326386 163.267901 
L 147.493555 158.576316 
L 147.698753 155.968636 
L 147.78194 160.022826 
L 147.947862 161.385686 
L 148.113469 155.873387 
L 148.320456 156.807724 
L 148.448415 164.673891 
L 148.65207 165.390958 
L 148.984509 153.61354 
L 149.318724 159.407224 
L 149.484374 156.361643 
L 149.663221 156.620678 
L 149.897468 162.864593 
L 150.066368 159.327891 
L 150.190357 152.32173 
L 150.394179 155.426357 
L 150.601677 160.726099 
L 150.887092 152.929379 
L 151.061785 154.191684 
L 151.224985 161.141661 
L 151.392201 161.93424 
L 151.573428 154.378088 
L 151.732652 153.336935 
L 152.100754 158.654359 
L 152.432337 155.41883 
L 152.680639 156.616051 
L 152.763658 158.045604 
L 152.932301 158.173644 
L 153.137106 156.75727 
L 153.343857 156.776334 
L 153.4682 156.208687 
L 153.634433 156.460659 
L 153.885753 156.599259 
L 154.214287 158.377033 
L 154.381146 157.906617 
L 154.670298 147.607304 
L 154.842757 147.947343 
L 155.350152 158.319138 
L 155.583946 151.743879 
L 155.79104 154.580641 
L 156.039565 164.335192 
L 156.205848 164.739472 
L 156.373269 163.699884 
L 156.579114 164.989043 
L 156.829139 164.721009 
L 156.917986 162.723964 
L 157.077547 161.78173 
L 157.242865 163.15043 
L 157.540721 163.66728 
L 157.700653 161.822979 
L 157.783791 158.332246 
L 157.950262 159.441112 
L 158.279995 164.569338 
L 158.44686 165.618404 
L 158.777487 169.297429 
L 159.122653 160.91459 
L 159.441709 161.600116 
L 159.483749 166.529777 
L 159.648926 171.246036 
L 159.81518 172.206629 
L 160.022626 166.263719 
L 160.353977 153.401942 
L 160.6855 164.63529 
L 161.018938 174.257755 
L 161.184162 173.968859 
L 161.68295 162.285168 
L 161.889294 163.974222 
L 162.055113 169.323649 
L 162.263441 171.297145 
L 162.967115 147.395308 
L 163.13347 150.554382 
L 163.423383 165.131911 
L 163.589353 172.150832 
L 163.92475 176.061495 
L 164.265002 177.827625 
L 164.293978 179.100085 
L 164.46354 179.737476 
L 164.636016 174.28922 
L 165.209182 155.639439 
L 165.584616 149.422106 
L 165.830019 139.495355 
L 166.162386 139.247027 
L 166.867456 164.049268 
L 167.37214 159.174317 
L 167.592103 159.240437 
L 167.905364 153.457265 
L 168.238021 146.815734 
L 168.445166 145.543966 
L 168.776803 146.089917 
L 169.107821 144.0129 
L 169.315652 147.512171 
L 169.774075 171.811891 
L 170.144858 180.459514 
L 170.311488 179.213383 
L 170.476552 176.464036 
L 170.683728 177.19669 
L 170.85002 176.141898 
L 171.184495 168.562536 
L 171.390371 167.092795 
L 171.640165 167.451739 
L 171.853342 163.596801 
L 172.017345 163.549056 
L 172.224076 163.935309 
L 172.390467 162.659568 
L 172.597282 164.643126 
L 172.867074 170.09114 
L 172.890431 174.373987 
L 173.219585 171.515037 
L 173.344281 168.899084 
L 173.426692 173.400987 
L 173.761668 173.891483 
L 173.965146 174.771684 
L 174.089983 174.14823 
L 174.256107 175.936088 
L 174.421625 174.236863 
L 174.629721 180.831669 
L 174.835794 175.370445 
L 174.960194 176.775017 
L 175.126335 173.785899 
L 175.512596 162.908059 
L 175.842435 160.656537 
L 175.966082 166.331081 
L 176.174618 168.379886 
L 176.339554 165.291215 
L 176.547265 166.905862 
L 176.712839 170.103798 
L 176.878337 170.821874 
L 177.086584 172.639217 
L 177.211731 179.320404 
L 177.500898 178.059783 
L 177.542799 178.744636 
L 177.708732 176.456176 
L 177.875145 171.336073 
L 178.039763 161.7849 
L 178.376506 158.587621 
L 178.579448 158.811538 
L 178.706389 164.272361 
L 179.24249 154.788582 
L 179.49159 158.311032 
L 179.657205 156.255968 
L 179.782056 159.067358 
L 179.947148 159.850508 
L 180.112916 162.697858 
L 180.321054 162.709417 
L 180.860072 172.819599 
L 181.066874 173.731511 
L 181.152699 171.289913 
L 181.35943 173.035283 
L 181.523004 172.278444 
L 181.649551 169.628805 
L 181.843152 168.906503 
L 182.00196 169.246083 
L 182.519423 155.692922 
L 183.005638 158.537404 
L 183.185199 166.410364 
L 183.389727 160.318806 
L 183.721917 170.194472 
L 183.886987 162.762595 
L 184.052953 164.720624 
L 184.343248 164.589708 
L 184.509088 166.350335 
L 184.634012 171.26958 
L 184.846511 158.202932 
L 184.966286 160.793486 
L 185.104134 155.189439 
L 185.321087 152.613207 
L 185.506274 148.181237 
L 185.589918 150.496842 
L 185.770503 151.796101 
L 185.963761 155.191642 
L 186.129707 162.018558 
L 186.667948 151.164145 
L 186.834352 152.616772 
L 187.041777 157.447459 
L 187.208633 155.657869 
L 187.335181 148.092003 
L 187.498644 149.750344 
L 187.705807 156.368483 
L 188.038914 145.725402 
L 188.244543 149.277148 
L 188.369759 145.711396 
L 188.535505 148.409623 
L 188.702007 148.740555 
L 188.868699 148.625187 
L 189.033047 139.042645 
L 189.323182 153.768516 
L 189.572243 138.110764 
L 189.614787 142.021273 
L 189.737865 137.71243 
L 190.070259 150.370387 
L 190.237035 145.175347 
L 190.527056 147.029355 
L 190.611255 158.202106 
L 190.817251 150.227781 
L 190.942467 155.221415 
L 191.107627 156.192013 
L 191.356029 155.449354 
L 191.614938 143.063395 
L 191.811547 153.971523 
L 192.019145 146.279869 
L 192.248529 148.73935 
L 192.417055 146.290108 
L 192.518548 137.496094 
L 192.809655 147.521901 
L 193.016079 143.651404 
L 193.265275 135.339654 
L 193.525223 146.073536 
L 193.641482 141.649673 
L 193.719918 142.253341 
L 193.979383 141.086518 
L 194.056481 137.791574 
L 194.225003 143.63189 
L 194.383236 140.584189 
L 194.548805 143.275811 
L 194.797579 145.031857 
L 194.922159 131.573417 
L 195.212183 130.069862 
L 195.586589 139.324372 
L 195.83521 131.45334 
L 196.001321 130.630042 
L 196.124398 128.240819 
L 196.291833 134.742026 
L 196.580732 130.870083 
L 196.748291 138.517246 
L 196.912717 124.454232 
L 196.954617 131.824927 
L 197.119948 132.743308 
L 197.327727 127.866327 
L 197.540592 129.594716 
L 197.700895 128.092569 
L 197.86703 122.782722 
L 198.003553 128.839809 
L 198.239856 132.343987 
L 198.541309 124.314011 
L 198.697139 128.117451 
L 198.878303 126.170827 
L 199.235536 137.182348 
L 199.649563 131.842963 
L 199.732634 125.186275 
L 200.0651 116.038829 
L 200.230265 117.819586 
L 200.479468 123.524737 
L 200.648575 110.178378 
L 200.769743 121.112886 
L 200.936176 115.497616 
L 201.144172 120.601298 
L 201.269763 120.438623 
L 201.433198 111.920114 
L 201.599156 123.778074 
L 201.771257 116.807914 
L 201.972225 118.879488 
L 202.096849 116.112154 
L 202.32375 116.18775 
L 202.497627 112.415874 
L 202.802977 112.550857 
L 202.933285 111.692114 
L 203.066925 111.685568 
L 203.258895 108.050389 
L 203.345358 114.41121 
L 203.591491 113.344643 
L 203.676205 103.127226 
L 203.881319 105.37661 
L 204.010432 109.394128 
L 204.30162 106.057619 
L 204.466335 113.299313 
L 204.544957 111.591328 
L 204.842997 98.860076 
L 204.974216 105.26623 
L 205.085509 104.945828 
L 205.211776 103.387397 
L 205.458934 120.648177 
L 205.562396 109.465605 
L 205.79286 118.111212 
L 205.958517 115.113745 
L 206.123628 106.122723 
L 206.249665 111.422944 
L 206.455061 102.008698 
L 206.579877 101.724609 
L 206.787181 91.597565 
L 206.953379 95.480397 
L 207.201515 89.538149 
L 207.326492 97.986122 
L 207.533153 95.996324 
L 207.628418 99.204099 
L 207.823123 92.739113 
L 207.950223 95.193978 
L 207.989909 82.722552 
L 208.15537 86.027171 
L 208.282167 83.537662 
L 208.654127 72.248512 
L 208.819692 77.084741 
L 209.06875 81.095012 
L 209.364106 82.232907 
L 209.52488 85.401174 
L 209.694221 85.320336 
L 209.898115 83.08531 
L 210.022111 87.139152 
L 210.190221 85.176897 
L 210.478378 90.228582 
L 210.562104 82.749335 
L 210.72769 85.755031 
L 210.897039 75.085913 
L 211.060182 81.615182 
L 211.229053 73.666899 
L 211.394521 81.052953 
L 211.572053 71.034844 
L 211.726285 84.843571 
L 212.016167 72.858468 
L 212.102259 64.650037 
L 212.265662 72.835428 
L 212.431349 60.549987 
L 212.805319 83.008027 
L 212.948447 85.238783 
L 213.097541 69.070883 
L 213.345276 75.869694 
L 213.635086 75.10547 
L 213.800791 68.956349 
L 214.136742 59.896227 
L 214.329273 59.780672 
L 214.517147 66.366202 
L 214.645376 61.792693 
L 214.961804 64.179415 
L 215.003774 55.763932 
L 215.169079 68.080633 
L 215.376665 69.842454 
L 215.542481 73.289266 
L 215.708254 69.958629 
L 215.915184 72.648644 
L 216.043251 78.251635 
L 216.206865 79.104624 
L 216.41344 88.268377 
L 216.58419 67.69093 
L 216.745894 63.772405 
L 216.870653 52.80274 
L 217.076131 57.488106 
L 217.454308 45.8706 
L 217.614932 52.117613 
L 217.786303 51.506331 
L 217.947678 48.126634 
L 218.073785 50.120013 
L 218.320226 51.542517 
L 218.452737 53.136303 
L 218.652175 52.385163 
L 218.778428 58.478389 
L 218.993718 57.698187 
L 219.108845 69.576941 
L 219.27589 59.801189 
L 219.48269 56.184051 
L 219.647945 43.018405 
L 219.813668 57.503259 
L 220.16022 53.165676 
L 220.313743 61.357661 
L 220.561116 67.959002 
L 220.685603 63.237076 
L 220.851507 50.351005 
L 221.028229 47.311195 
L 221.185178 50.979463 
L 221.473407 52.623521 
L 221.556393 64.970509 
L 221.76367 54.170703 
L 221.888417 63.309016 
L 222.13683 57.858315 
L 222.261216 64.059804 
L 222.386698 45.668133 
L 222.551674 52.429347 
L 222.75861 53.847564 
L 222.900334 46.246685 
L 223.631297 30.260052 
L 223.879809 35.349182 
L 224.088084 35.77316 
L 224.128783 38.013753 
L 224.294277 34.909835 
L 224.501503 47.356296 
L 224.628545 40.201025 
L 224.87638 43.030254 
L 224.999346 56.622493 
L 225.165961 46.844779 
L 225.30129 50.929282 
L 225.500074 48.748826 
L 225.760961 49.104223 
L 226.047075 54.251336 
L 226.207896 71.943678 
L 226.583675 58.730276 
L 226.755858 58.069722 
L 227.012404 46.085829 
L 227.758081 6.363576 
L 228.131341 30.581757 
L 228.255833 29.922207 
L 228.512468 36.95187 
L 228.795006 61.451785 
L 229.043821 58.254369 
L 229.13178 62.826928 
L 229.292654 77.284983 
L 229.541201 83.637865 
L 229.626368 46.71237 
L 230.038834 68.105694 
L 230.338196 113.001949 
L 230.577786 113.234091 
L 230.662431 128.563118 
L 230.82737 136.694753 
L 231.035274 137.00291 
L 231.283205 138.1965 
L 231.344786 137.582885 
L 231.577432 131.221255 
L 232.337894 80.080475 
L 232.999197 55.018587 
L 233.206972 42.916753 
L 233.999199 33.911237 
L 234.080582 30.444356 
L 234.286248 29.801946 
L 234.451681 30.649565 
L 234.783175 35.336022 
L 235.11523 41.136778 
L 235.821818 64.03393 
L 236.151866 75.849318 
L 236.324735 78.80535 
L 236.484455 77.676082 
L 236.651736 72.942782 
L 236.817354 64.242216 
L 237.106334 55.169569 
L 237.189713 48.025324 
L 237.689531 37.286154 
L 237.895417 38.041027 
L 238.14327 40.318503 
L 238.558722 51.66665 
L 239.115918 59.620032 
L 239.387212 59.292392 
L 239.428711 57.945506 
L 239.594769 56.525253 
L 239.760597 53.652702 
L 239.928434 52.677592 
L 240.259079 63.102455 
L 240.466943 69.67033 
L 240.963756 79.004505 
L 241.128739 78.564212 
L 241.419183 76.317331 
L 242.87028 28.687252 
L 243.036737 28.275438 
L 243.409889 36.359646 
L 244.619322 86.425747 
L 244.945504 92.571108 
L 245.278198 94.982323 
L 245.460656 94.789435 
L 245.941777 98.311559 
L 246.106994 98.52588 
L 246.396875 98.6475 
L 246.480254 96.900796 
L 246.813778 94.795086 
L 246.983913 92.734062 
L 247.329504 90.991026 
L 247.528581 89.042054 
L 247.561323 87.516212 
L 247.769858 86.938737 
L 248.141921 82.50156 
L 248.348878 71.286227 
L 248.556392 67.001568 
L 248.88818 63.921688 
L 249.22004 59.715227 
L 249.596948 55.537871 
L 249.718457 56.640114 
L 249.926052 60.29214 
L 250.25687 71.50199 
L 250.506274 73.839662 
L 250.603771 73.81742 
L 250.755353 72.314967 
L 250.920532 68.8235 
L 251.210704 65.664933 
L 251.501144 57.559614 
L 252.007021 38.947268 
L 252.165822 36.606629 
L 252.293748 38.255397 
L 252.706411 46.909362 
L 253.165828 48.539975 
L 253.698526 66.858596 
L 253.864927 64.400152 
L 254.156567 55.729568 
L 254.198387 46.980567 
L 254.406504 41.807732 
L 254.542501 42.792201 
L 254.944477 53.618523 
L 255.110542 53.570579 
L 255.405016 42.810277 
L 255.607942 43.625871 
L 256.271124 65.235118 
L 256.519706 62.873837 
L 256.852167 47.988911 
L 257.059435 46.666062 
L 257.308719 55.751562 
L 257.55682 55.10965 
L 257.764039 49.714611 
L 257.848371 44.022719 
L 258.189664 40.483192 
L 258.344332 43.864831 
L 258.676182 58.768402 
L 258.883911 60.973145 
L 259.090992 56.957943 
L 259.180042 51.051586 
L 259.390162 48.742071 
L 259.555059 48.264301 
L 259.878695 48.845477 
L 260.25215 54.60219 
L 260.378588 53.324784 
L 260.833066 46.098555 
L 260.925458 52.717817 
L 261.291853 61.003238 
L 261.62349 55.029022 
L 261.9967 55.191801 
L 262.121079 53.012263 
L 262.333093 52.50815 
L 262.501148 54.449911 
L 262.702624 55.159344 
L 263.162493 64.855318 
L 263.333761 62.919691 
L 263.698297 49.057024 
L 263.86419 48.705534 
L 264.230218 57.330321 
L 264.697618 42.692186 
L 265.234129 53.925857 
L 265.607052 49.717507 
L 265.73121 49.180018 
L 265.896843 49.979802 
L 266.104126 56.63349 
L 266.311416 59.375737 
L 266.651561 53.318136 
L 266.812423 54.697961 
L 267.143552 67.70976 
L 267.265749 66.278683 
L 267.858294 48.333883 
L 267.971726 52.233108 
L 268.181608 55.238561 
L 268.387957 53.335713 
L 268.679162 46.532841 
L 268.807534 48.146179 
L 269.010967 53.870693 
L 269.633265 59.231402 
L 269.841292 55.555434 
L 270.047991 55.947367 
L 270.545791 51.711048 
L 270.752947 52.426645 
L 271.125855 60.701038 
L 271.377489 54.1373 
L 271.498396 47.904702 
L 271.872285 55.193383 
L 271.913154 62.447948 
L 272.165896 65.720404 
L 272.369808 60.955788 
L 272.413556 54.170028 
L 272.669632 49.094243 
L 272.784705 50.477325 
L 273.199024 64.728317 
L 273.324085 64.779235 
L 273.53568 57.938779 
L 273.82134 44.341725 
L 274.112316 49.939401 
L 274.321023 62.530033 
L 274.680553 54.711065 
L 274.859595 53.996763 
L 275.773336 58.54193 
L 276.394572 49.666379 
L 276.561025 46.378953 
L 276.768191 47.388125 
L 277.182333 59.448862 
L 277.306299 61.435653 
L 277.762832 43.815333 
L 278.260601 60.746176 
L 278.468023 59.807321 
L 278.799534 48.564925 
L 278.965744 46.036053 
L 279.587963 65.141574 
L 279.878463 52.681186 
L 280.084202 48.022432 
L 280.254342 48.622869 
L 280.374434 54.808565 
L 280.707091 62.55171 
L 281.246472 47.612058 
L 281.452269 51.021756 
L 281.742667 61.65415 
L 281.908955 60.146626 
L 282.115753 53.233433 
L 282.240239 43.667509 
L 282.408575 39.653259 
L 282.613615 42.796357 
L 283.195056 58.063319 
L 283.277358 58.299344 
L 283.652216 50.432557 
L 283.942481 52.870785 
L 284.147687 56.891588 
L 284.410977 55.721269 
L 284.483738 53.672988 
L 284.645807 52.86357 
L 284.980294 49.439144 
L 285.146679 51.066666 
L 285.434405 50.774497 
L 285.683437 46.213252 
L 286.185335 39.751527 
L 286.387779 37.502597 
L 286.637106 37.860872 
L 286.719907 39.817425 
L 287.096915 40.706208 
L 287.259239 43.560792 
L 287.924174 63.389156 
L 288.088619 66.886509 
L 288.254177 66.403753 
L 288.503461 64.361364 
L 288.627545 64.712864 
L 288.793406 68.322957 
L 288.959052 69.238642 
L 289.333503 60.557607 
L 289.748963 44.648282 
L 290.163188 25.292809 
L 290.500979 21.951214 
L 290.702783 23.735437 
L 291.034183 37.200645 
L 291.698397 67.265406 
L 291.864183 67.10354 
L 292.030386 64.474838 
L 292.237578 64.417414 
L 292.370664 64.65494 
L 292.534833 64.375992 
L 292.735873 63.328715 
L 292.92118 61.232972 
L 293.607703 47.400255 
L 293.939573 49.735188 
L 294.477985 51.607126 
L 294.851356 57.905169 
L 295.30829 75.577698 
L 295.475827 74.805418 
L 295.849825 67.965708 
L 296.43168 52.050013 
L 296.678688 47.384327 
L 296.845169 47.456878 
L 297.052033 48.603722 
L 297.385752 51.416455 
L 297.759453 44.793122 
L 297.882771 41.577437 
L 298.090962 40.136053 
L 298.256243 37.60634 
L 298.422527 32.592921 
L 298.71228 30.563992 
L 300.118274 92.360617 
L 300.324699 91.015264 
L 301.154643 62.013797 
L 301.530843 57.732341 
L 301.698668 57.991376 
L 301.835811 59.207296 
L 302.026745 62.09273 
L 302.327629 64.041861 
L 302.360864 63.574202 
L 303.065972 54.361658 
L 303.313816 54.307539 
L 303.564915 52.42803 
L 303.895373 54.320601 
L 304.117223 55.055112 
L 304.973517 66.640827 
L 305.099461 66.065729 
L 305.46998 62.4817 
L 305.475902 56.054576 
L 305.639145 50.864633 
L 306.012076 48.149273 
L 306.345573 47.538667 
L 306.676907 46.032874 
L 307.008402 53.707439 
L 307.507939 70.583034 
L 307.799879 72.494277 
L 307.837875 74.051945 
L 308.087747 75.766271 
L 308.215475 77.670964 
L 308.378633 77.710844 
L 308.836812 69.833271 
L 309.101398 57.748393 
L 309.422157 52.04712 
L 309.45809 49.00954 
L 309.624294 44.87727 
L 310.082723 22.181051 
L 310.288257 20.845219 
L 310.458473 22.849683 
L 310.951654 46.455203 
L 311.118262 53.684278 
L 311.417636 59.65139 
L 311.659303 71.961832 
L 311.823265 60.855333 
L 311.99015 71.676548 
L 312.161281 67.80213 
L 312.498394 66.31879 
L 312.661092 55.06546 
L 312.841523 52.521766 
L 313.075108 51.309448 
L 313.379178 62.080513 
L 313.577042 62.162188 
L 313.746276 67.855585 
L 314.201629 46.60887 
L 314.578649 66.365135 
L 314.739947 63.582449 
L 314.909075 53.670836 
L 315.166889 49.563901 
L 315.278734 53.491825 
L 315.48951 49.59407 
L 315.818567 61.771445 
L 316.408253 39.202804 
L 316.797756 60.534132 
L 316.986216 62.887653 
L 317.564282 47.3005 
L 317.706398 56.714121 
L 317.85523 57.227395 
L 318.187507 71.671399 
L 318.353457 60.214551 
L 318.521708 62.056801 
L 318.85217 43.143945 
L 319.100521 46.952791 
L 319.409494 36.378394 
L 319.558885 42.240065 
L 319.841148 30.283273 
L 320.136768 38.793373 
L 320.297066 37.235016 
L 320.504369 42.486058 
L 320.629841 41.970673 
L 320.753858 52.112623 
L 321.085565 61.711524 
L 321.170351 60.611927 
L 321.708592 45.519382 
L 321.79598 45.97244 
L 321.97571 45.963741 
L 322.165521 40.782931 
L 322.331441 32.908958 
L 322.499834 31.398512 
L 322.663992 40.292188 
L 322.833021 37.9315 
L 322.996495 46.409048 
L 323.335657 39.146058 
L 323.498092 38.470601 
L 323.706095 47.718828 
L 324.038273 43.584115 
L 324.203811 43.710427 
L 324.370413 50.130589 
L 324.721012 46.092199 
L 324.909506 56.175423 
L 325.116151 58.371871 
L 325.785326 84.949592 
L 325.947257 86.301554 
L 326.072865 85.21105 
L 326.238562 85.764075 
L 326.412047 79.573838 
L 326.78644 55.851101 
L 326.948721 51.904442 
L 327.207242 52.656798 
L 327.32073 53.762494 
L 327.360247 58.099065 
L 327.443537 54.951312 
L 327.669682 56.078142 
L 327.816366 55.851324 
L 328.481153 83.139925 
L 328.64752 67.584683 
L 329.072537 65.588292 
L 329.236918 54.636125 
L 329.36207 59.960356 
L 329.652278 64.507676 
L 329.694481 54.113024 
L 329.985262 59.666446 
L 330.151062 48.141598 
L 330.19387 48.400836 
L 330.481735 42.309577 
L 330.564866 34.419872 
L 330.731867 34.305643 
L 330.896731 30.800655 
L 331.270016 13.830944 
L 331.436321 5.892699 
L 331.60623 7.876988 
L 331.643987 4.251601 
L 331.769346 8.096949 
L 331.934519 7.073853 
L 332.102296 16.60834 
L 332.308094 14.131872 
L 332.43322 20.931876 
L 332.655635 22.125191 
L 332.767125 23.404117 
L 333.514844 45.966854 
L 333.806007 44.599868 
L 334.013531 64.004488 
L 334.14328 65.365462 
L 334.530533 79.35475 
L 334.679608 74.899532 
L 334.859288 81.608479 
L 335.175884 84.107022 
L 335.347981 93.56751 
L 335.723733 87.196755 
L 335.931453 77.000157 
L 336.094646 82.109739 
L 336.386343 65.245625 
L 336.593826 67.583263 
L 336.759288 55.430221 
L 337.533264 29.716678 
L 337.632443 21.221662 
L 337.845969 27.278868 
L 337.964258 24.857036 
L 338.137004 39.22186 
L 338.389539 43.919484 
L 338.633677 55.597929 
L 339.18314 77.684751 
L 339.338692 77.409672 
L 339.503594 93.557852 
L 339.674798 92.41441 
L 339.878088 86.128364 
L 340.005552 99.741905 
L 340.417118 88.994778 
L 340.541933 86.430961 
L 340.832671 84.498524 
L 340.91533 82.433571 
L 341.073503 81.355641 
L 341.399078 56.213777 
L 341.609234 59.554873 
L 341.737669 47.688532 
L 342.273927 34.495887 
L 342.406038 18.767937 
L 342.605046 17.708972 
L 342.771238 20.195319 
L 342.937427 10.988289 
L 343.102823 8.976786 
L 343.269013 8.918016 
L 343.435661 5.643592 
L 343.725777 8.436858 
L 343.829534 10.854556 
L 344.099723 11.5593 
L 344.182432 19.156639 
L 344.348416 21.44998 
L 344.514318 31.363977 
L 344.721412 29.62658 
L 344.993925 43.468194 
L 345.525221 55.339982 
L 345.678126 62.253079 
L 345.845578 55.708372 
L 346.109824 62.287495 
L 346.219824 59.746451 
L 346.383739 65.289278 
L 346.570196 66.196049 
L 346.929406 51.902442 
L 347.13467 51.650327 
L 347.432378 43.582683 
L 347.610518 38.503106 
L 348.100811 31.413718 
L 348.308348 21.693285 
L 348.515742 25.206337 
L 348.598891 21.488199 
L 348.806141 21.342907 
L 348.977588 23.03076 
L 349.304427 17.810602 
L 349.47129 16.623302 
L 349.678685 14.319136 
L 349.844641 17.396198 
L 350.012049 15.799113 
L 350.175789 16.393673 
L 350.34163 20.221245 
L 350.508276 17.197317 
L 350.67893 17.143319 
L 351.75397 57.914934 
L 351.879123 57.668088 
L 352.127203 53.732236 
L 352.302626 63.303896 
L 352.418432 62.944939 
L 352.625981 68.050078 
L 352.791429 63.849723 
L 352.957356 67.311702 
L 353.098215 67.372717 
L 353.248422 74.984534 
L 353.45844 75.820878 
L 353.662257 68.702283 
L 353.833948 68.076011 
L 353.953568 71.607263 
L 354.121182 58.795463 
L 354.285471 61.240568 
L 354.504945 59.931562 
L 354.79515 53.597975 
L 355.127769 45.437876 
L 355.169495 40.102866 
L 355.376697 32.059801 
L 355.503598 33.024142 
L 355.670175 31.086801 
L 355.832743 27.319034 
L 356.165537 9.49199 
L 356.373504 14.228852 
L 356.579788 8.338434 
L 356.70401 9.006256 
L 356.914665 16.426117 
L 357.080208 11.897892 
L 357.911932 37.891834 
L 358.151598 49.711748 
L 358.28907 48.071509 
L 358.620771 67.748093 
L 358.787003 59.690583 
L 358.953268 72.312236 
L 359.118747 68.88406 
L 359.284997 67.911602 
L 359.452832 69.4753 
L 359.658684 61.800874 
L 359.783703 44.811135 
L 360.003568 46.363815 
L 360.156545 36.747961 
L 360.366132 34.345778 
L 360.571805 35.015086 
L 360.695951 32.702881 
L 361.030356 42.267916 
L 361.070572 47.967225 
L 361.194597 44.738029 
L 361.498968 65.494384 
L 361.702593 71.753326 
L 361.858873 84.31302 
L 362.025558 84.787299 
L 362.398408 82.489848 
L 362.522582 75.434124 
L 362.854919 86.525855 
L 363.106715 83.859199 
L 363.768202 65.40838 
L 363.939195 63.182955 
L 364.445173 40.916928 
L 364.610802 30.268072 
L 364.942428 28.40393 
L 365.149659 21.49208 
L 365.277996 26.285033 
L 365.483121 23.347024 
L 365.693161 15.01714 
L 366.032869 32.194303 
L 366.188117 34.749664 
L 366.482734 26.68497 
L 366.519435 36.802149 
L 366.685325 29.735267 
L 366.976192 33.392789 
L 367.185628 45.239117 
L 367.418265 43.200212 
L 367.52992 43.897233 
L 368.069412 54.428706 
L 368.389692 71.091165 
L 368.556487 66.986516 
L 368.77355 75.514069 
L 369.054915 74.073547 
L 369.097542 78.724731 
L 369.261187 75.29587 
L 369.59709 75.828815 
L 369.717568 75.791385 
L 369.809147 69.040358 
L 369.939491 79.931733 
L 370.18811 65.686391 
L 370.495833 80.13663 
L 370.654645 80.26615 
L 370.821023 77.523081 
L 370.98985 77.111461 
L 371.241892 68.153918 
L 371.352999 71.538363 
L 371.518107 72.245873 
L 371.766469 67.08485 
L 371.895995 69.025099 
L 372.018108 57.244376 
L 372.223325 60.098965 
L 372.557244 40.536108 
L 372.764978 41.942922 
L 373.303165 58.601097 
L 373.396931 57.017078 
L 373.59294 79.162834 
L 373.800147 87.381874 
L 373.926978 87.225036 
L 374.092259 94.184871 
L 374.270184 93.652774 
L 374.464896 86.952665 
L 375.461779 31.761351 
L 375.766989 32.293372 
L 375.927844 35.536049 
L 376.168486 37.860631 
L 376.54214 50.746836 
L 376.8735 55.276811 
L 376.915065 60.839975 
L 377.253625 70.771014 
L 377.454899 70.575871 
L 377.539404 67.973247 
L 377.888539 63.425091 
L 378.084021 57.047242 
L 378.288234 56.384155 
L 378.582937 47.963069 
L 378.910558 40.582601 
L 378.998275 33.991548 
L 379.256506 29.628094 
L 379.412032 29.660297 
L 379.871843 46.434144 
L 380.126978 60.816226 
L 380.913873 84.617778 
L 381.329692 91.339113 
L 381.453239 91.535598 
L 381.761429 84.255756 
L 382.034838 74.461711 
L 383.042724 47.992607 
L 383.735709 53.769905 
L 383.950109 53.765769 
L 384.111251 53.988218 
L 384.281288 54.494439 
L 384.488208 55.878793 
L 385.136585 71.127467 
L 385.719534 75.656385 
L 385.815429 78.544753 
L 385.96406 78.069308 
L 386.147949 74.502964 
L 386.521018 61.145716 
L 386.647188 52.449433 
L 387.018996 42.699963 
L 387.351105 39.088358 
L 387.517139 37.742035 
L 387.682747 38.189404 
L 387.851738 39.717431 
L 388.052322 40.46959 
L 388.441189 39.898332 
L 388.683946 37.961256 
L 388.735995 35.524867 
L 388.895941 33.469822 
L 389.062477 33.223812 
L 389.227035 34.414818 
L 389.598518 41.838852 
L 390.099323 55.524983 
L 391.010809 85.870585 
L 391.314183 87.779192 
L 391.592309 94.006395 
L 391.799805 98.861737 
L 391.974433 97.200905 
L 392.339462 87.79832 
L 393.5832 46.169819 
L 393.707745 42.720395 
L 394.054023 38.752513 
L 394.205611 38.552281 
L 394.496563 40.010122 
L 394.711536 42.130533 
L 395.132427 42.275871 
L 395.246199 41.124837 
L 395.417503 40.755311 
L 395.574671 41.563881 
L 396.032765 46.472036 
L 396.321821 51.080655 
L 397.833794 75.865464 
L 398.300129 80.102613 
L 398.871829 86.98607 
L 399.124748 88.399328 
L 399.213256 89.818875 
L 399.555667 89.926008 
L 400.774507 35.094209 
L 401.107522 28.96879 
L 401.649446 36.386179 
L 402.662207 77.376873 
L 403.028644 72.317037 
L 403.527578 60.78745 
L 403.787656 56.666062 
L 403.872146 51.649431 
L 404.236486 46.617362 
L 404.871147 67.726062 
L 405.063895 70.521886 
L 405.230788 71.181535 
L 405.605067 67.533046 
L 406.059764 57.580814 
L 406.103855 50.68197 
L 406.612609 35.383711 
L 406.81254 33.141336 
L 406.93591 33.959988 
L 407.352931 45.487375 
L 407.805703 63.48422 
L 407.972272 66.483551 
L 408.162542 67.087687 
L 408.406109 69.075138 
L 408.487228 74.177054 
L 408.695533 78.386502 
L 408.865419 79.337704 
L 409.03928 77.527145 
L 409.571045 63.384451 
L 409.693258 64.292001 
L 410.032881 71.924992 
L 410.231789 70.3073 
L 410.400688 65.022447 
L 410.606602 62.536643 
L 410.858541 63.497481 
L 411.104545 70.908874 
L 411.273016 72.058239 
L 411.519697 69.571164 
L 411.739035 59.1757 
L 411.944933 60.731892 
L 412.113696 65.389601 
L 412.320625 65.572712 
L 412.650406 56.125797 
L 412.900331 55.670213 
L 413.273791 66.099518 
L 413.438985 69.925929 
L 413.522448 68.600978 
L 413.812511 55.000813 
L 414.061829 53.483267 
L 414.353743 63.247565 
L 414.578213 62.007579 
L 414.705744 57.435784 
L 414.87048 55.799096 
L 415.404236 63.60232 
L 415.538946 64.627145 
L 415.902317 61.961533 
L 416.068472 62.992915 
L 416.284316 66.282513 
L 416.40005 66.250568 
L 416.651214 64.412532 
L 416.745843 61.742802 
L 416.9404 61.972346 
L 417.316196 65.613807 
L 417.52143 65.594147 
L 417.686851 57.102484 
L 417.977769 52.414516 
L 418.104214 48.031983 
L 418.64112 56.439255 
L 418.766353 53.153143 
L 418.994337 50.121955 
L 419.158762 51.430728 
L 419.718741 73.215107 
L 419.843127 72.262661 
L 420.100589 67.255225 
L 420.218695 62.244149 
L 420.426032 59.199468 
L 420.717427 61.773148 
L 420.886897 63.675183 
L 421.048365 63.597332 
L 421.422194 58.516683 
L 421.925439 67.24332 
L 422.090896 67.252872 
L 422.959297 61.521647 
L 423.33962 63.229395 
L 423.711812 59.885206 
L 424.00377 70.366096 
L 424.4582 66.458235 
L 424.625419 65.712689 
L 424.831484 63.381226 
L 425.004725 63.518372 
L 425.163008 64.704375 
L 425.333239 67.024834 
L 425.578756 66.730782 
L 426.035878 61.781148 
L 426.366406 66.257089 
L 426.552446 65.909496 
L 426.71952 65.250837 
L 426.71952 65.250837 
" clip-path="url(#p584df51f52)" style="fill: none; stroke: #ff0000; stroke-opacity: 0.5; stroke-width: 1.75; stroke-linecap: square"/>
   </g>
   <g id="patch_3">
    <path d="M 38.502813 184.36327 
L 38.502813 0.72 
" style="fill: none; stroke: #000000; stroke-width: 0.8; stroke-linejoin: miter; stroke-linecap: square"/>
   </g>
   <g id="patch_4">
    <path d="M 426.71952 184.36327 
L 426.71952 0.72 
" style="fill: none; stroke: #000000; stroke-width: 0.8; stroke-linejoin: miter; stroke-linecap: square"/>
   </g>
   <g id="patch_5">
    <path d="M 38.502813 184.36327 
L 426.71952 184.36327 
" style="fill: none; stroke: #000000; stroke-width: 0.8; stroke-linejoin: miter; stroke-linecap: square"/>
   </g>
   <g id="patch_6">
    <path d="M 38.502813 0.72 
L 426.71952 0.72 
" style="fill: none; stroke: #000000; stroke-width: 0.8; stroke-linejoin: miter; stroke-linecap: square"/>
   </g>
   <g id="legend_1">
    <g id="patch_7">
     <path d="M 45.502813 38.07625 
L 119.271563 38.07625 
Q 121.271563 38.07625 121.271563 36.07625 
L 121.271563 7.72 
Q 121.271563 5.72 119.271563 5.72 
L 45.502813 5.72 
Q 43.502813 5.72 43.502813 7.72 
L 43.502813 36.07625 
Q 43.502813 38.07625 45.502813 38.07625 
z
" style="fill: #ffffff; opacity: 0.8; stroke: #cccccc; stroke-linejoin: miter"/>
    </g>
    <g id="line2d_31">
     <path d="M 47.502813 13.818437 
L 57.502813 13.818437 
L 67.502813 13.818437 
" style="fill: none; stroke: #0000ff; stroke-opacity: 0.5; stroke-width: 1.75; stroke-linecap: square"/>
    </g>
    <g id="text_17">
     <!-- RNEA -->
     <g transform="translate(75.502813 17.318437) scale(0.1 -0.1)">
      <defs>
       <path id="DejaVuSans-52" d="M 2841 2188 
Q 3044 2119 3236 1894 
Q 3428 1669 3622 1275 
L 4263 0 
L 3584 0 
L 2988 1197 
Q 2756 1666 2539 1819 
Q 2322 1972 1947 1972 
L 1259 1972 
L 1259 0 
L 628 0 
L 628 4666 
L 2053 4666 
Q 2853 4666 3247 4331 
Q 3641 3997 3641 3322 
Q 3641 2881 3436 2590 
Q 3231 2300 2841 2188 
z
M 1259 4147 
L 1259 2491 
L 2053 2491 
Q 2509 2491 2742 2702 
Q 2975 2913 2975 3322 
Q 2975 3731 2742 3939 
Q 2509 4147 2053 4147 
L 1259 4147 
z
" transform="scale(0.015625)"/>
       <path id="DejaVuSans-45" d="M 628 4666 
L 3578 4666 
L 3578 4134 
L 1259 4134 
L 1259 2753 
L 3481 2753 
L 3481 2222 
L 1259 2222 
L 1259 531 
L 3634 531 
L 3634 0 
L 628 0 
L 628 4666 
z
" transform="scale(0.015625)"/>
       <path id="DejaVuSans-41" d="M 2188 4044 
L 1331 1722 
L 3047 1722 
L 2188 4044 
z
M 1831 4666 
L 2547 4666 
L 4325 0 
L 3669 0 
L 3244 1197 
L 1141 1197 
L 716 0 
L 50 0 
L 1831 4666 
z
" transform="scale(0.015625)"/>
      </defs>
      <use xlink:href="#DejaVuSans-52"/>
      <use xlink:href="#DejaVuSans-4e" x="69.482422"/>
      <use xlink:href="#DejaVuSans-45" x="144.287109"/>
      <use xlink:href="#DejaVuSans-41" x="207.470703"/>
     </g>
    </g>
    <g id="line2d_32">
     <path d="M 47.502813 28.496562 
L 57.502813 28.496562 
L 67.502813 28.496562 
" style="fill: none; stroke: #ff0000; stroke-opacity: 0.5; stroke-width: 1.75; stroke-linecap: square"/>
    </g>
    <g id="text_18">
     <!-- BURNEA -->
     <g transform="translate(75.502813 31.996562) scale(0.1 -0.1)">
      <defs>
       <path id="DejaVuSans-42" d="M 1259 2228 
L 1259 519 
L 2272 519 
Q 2781 519 3026 730 
Q 3272 941 3272 1375 
Q 3272 1813 3026 2020 
Q 2781 2228 2272 2228 
L 1259 2228 
z
M 1259 4147 
L 1259 2741 
L 2194 2741 
Q 2656 2741 2882 2914 
Q 3109 3088 3109 3444 
Q 3109 3797 2882 3972 
Q 2656 4147 2194 4147 
L 1259 4147 
z
M 628 4666 
L 2241 4666 
Q 2963 4666 3353 4366 
Q 3744 4066 3744 3513 
Q 3744 3084 3544 2831 
Q 3344 2578 2956 2516 
Q 3422 2416 3680 2098 
Q 3938 1781 3938 1306 
Q 3938 681 3513 340 
Q 3088 0 2303 0 
L 628 0 
L 628 4666 
z
" transform="scale(0.015625)"/>
       <path id="DejaVuSans-55" d="M 556 4666 
L 1191 4666 
L 1191 1831 
Q 1191 1081 1462 751 
Q 1734 422 2344 422 
Q 2950 422 3222 751 
Q 3494 1081 3494 1831 
L 3494 4666 
L 4128 4666 
L 4128 1753 
Q 4128 841 3676 375 
Q 3225 -91 2344 -91 
Q 1459 -91 1007 375 
Q 556 841 556 1753 
L 556 4666 
z
" transform="scale(0.015625)"/>
      </defs>
      <use xlink:href="#DejaVuSans-42"/>
      <use xlink:href="#DejaVuSans-55" x="68.603516"/>
      <use xlink:href="#DejaVuSans-52" x="141.796875"/>
      <use xlink:href="#DejaVuSans-4e" x="211.279297"/>
      <use xlink:href="#DejaVuSans-45" x="286.083984"/>
      <use xlink:href="#DejaVuSans-41" x="349.267578"/>
     </g>
    </g>
   </g>
  </g>
 </g>
 <defs>
  <clipPath id="p584df51f52">
   <rect x="38.502813" y="0.72" width="388.216708" height="183.64327"/>
  </clipPath>
 </defs>
</svg>
