<?xml version="1.0" encoding="utf-8" standalone="no"?>
<!DOCTYPE svg PUBLIC "-//W3C//DTD SVG 1.1//EN"
  "http://www.w3.org/Graphics/SVG/1.1/DTD/svg11.dtd">
<svg xmlns:xlink="http://www.w3.org/1999/xlink" width="427.43952pt" height="211.438458pt" viewBox="0 0 427.43952 211.438458" xmlns="http://www.w3.org/2000/svg" version="1.1">
 <metadata>
  <rdf:RDF xmlns:dc="http://purl.org/dc/elements/1.1/" xmlns:cc="http://creativecommons.org/ns#" xmlns:rdf="http://www.w3.org/1999/02/22-rdf-syntax-ns#">
   <cc:Work>
    <dc:type rdf:resource="http://purl.org/dc/dcmitype/StillImage"/>
    <dc:date>2023-09-09T18:28:57.524544</dc:date>
    <dc:format>image/svg+xml</dc:format>
    <dc:creator>
     <cc:Agent>
      <dc:title>Matplotlib v3.7.2, https://matplotlib.org/</dc:title>
     </cc:Agent>
    </dc:creator>
   </cc:Work>
  </rdf:RDF>
 </metadata>
 <defs>
  <style type="text/css">*{stroke-linejoin: round; stroke-linecap: butt}</style>
 </defs>
 <g id="figure_1">
  <g id="patch_1">
   <path d="M 0 211.438458 
L 427.43952 211.438458 
L 427.43952 0 
L 0 0 
L 0 211.438458 
z
" style="fill: none"/>
  </g>
  <g id="axes_1">
   <g id="patch_2">
    <path d="M 38.502813 184.362208 
L 426.71952 184.362208 
L 426.71952 2.989479 
L 38.502813 2.989479 
L 38.502813 184.362208 
z
" style="fill: none"/>
   </g>
   <g id="matplotlib.axis_1">
    <g id="xtick_1">
     <g id="line2d_1">
      <path d="M 38.502813 184.362208 
L 38.502813 2.989479 
" clip-path="url(#p25188be367)" style="fill: none; stroke-dasharray: 0.8,1.32; stroke-dashoffset: 0; stroke: #000000; stroke-opacity: 0.5; stroke-width: 0.8"/>
     </g>
     <g id="line2d_2">
      <defs>
       <path id="m76270f2b0a" d="M 0 0 
L 0 3.5 
" style="stroke: #000000; stroke-width: 0.8"/>
      </defs>
      <g>
       <use xlink:href="#m76270f2b0a" x="38.502813" y="184.362208" style="stroke: #000000; stroke-width: 0.8"/>
      </g>
     </g>
     <g id="text_1">
      <!-- 0.0 -->
      <g transform="translate(30.55125 198.960646) scale(0.1 -0.1)">
       <defs>
        <path id="DejaVuSans-30" d="M 2034 4250 
Q 1547 4250 1301 3770 
Q 1056 3291 1056 2328 
Q 1056 1369 1301 889 
Q 1547 409 2034 409 
Q 2525 409 2770 889 
Q 3016 1369 3016 2328 
Q 3016 3291 2770 3770 
Q 2525 4250 2034 4250 
z
M 2034 4750 
Q 2819 4750 3233 4129 
Q 3647 3509 3647 2328 
Q 3647 1150 3233 529 
Q 2819 -91 2034 -91 
Q 1250 -91 836 529 
Q 422 1150 422 2328 
Q 422 3509 836 4129 
Q 1250 4750 2034 4750 
z
" transform="scale(0.015625)"/>
        <path id="DejaVuSans-2e" d="M 684 794 
L 1344 794 
L 1344 0 
L 684 0 
L 684 794 
z
" transform="scale(0.015625)"/>
       </defs>
       <use xlink:href="#DejaVuSans-30"/>
       <use xlink:href="#DejaVuSans-2e" x="63.623047"/>
       <use xlink:href="#DejaVuSans-30" x="95.410156"/>
      </g>
     </g>
    </g>
    <g id="xtick_2">
     <g id="line2d_3">
      <path d="M 90.09203 184.362208 
L 90.09203 2.989479 
" clip-path="url(#p25188be367)" style="fill: none; stroke-dasharray: 0.8,1.32; stroke-dashoffset: 0; stroke: #000000; stroke-opacity: 0.5; stroke-width: 0.8"/>
     </g>
     <g id="line2d_4">
      <g>
       <use xlink:href="#m76270f2b0a" x="90.09203" y="184.362208" style="stroke: #000000; stroke-width: 0.8"/>
      </g>
     </g>
     <g id="text_2">
      <!-- 2.5 -->
      <g transform="translate(82.140467 198.960646) scale(0.1 -0.1)">
       <defs>
        <path id="DejaVuSans-32" d="M 1228 531 
L 3431 531 
L 3431 0 
L 469 0 
L 469 531 
Q 828 903 1448 1529 
Q 2069 2156 2228 2338 
Q 2531 2678 2651 2914 
Q 2772 3150 2772 3378 
Q 2772 3750 2511 3984 
Q 2250 4219 1831 4219 
Q 1534 4219 1204 4116 
Q 875 4013 500 3803 
L 500 4441 
Q 881 4594 1212 4672 
Q 1544 4750 1819 4750 
Q 2544 4750 2975 4387 
Q 3406 4025 3406 3419 
Q 3406 3131 3298 2873 
Q 3191 2616 2906 2266 
Q 2828 2175 2409 1742 
Q 1991 1309 1228 531 
z
" transform="scale(0.015625)"/>
        <path id="DejaVuSans-35" d="M 691 4666 
L 3169 4666 
L 3169 4134 
L 1269 4134 
L 1269 2991 
Q 1406 3038 1543 3061 
Q 1681 3084 1819 3084 
Q 2600 3084 3056 2656 
Q 3513 2228 3513 1497 
Q 3513 744 3044 326 
Q 2575 -91 1722 -91 
Q 1428 -91 1123 -41 
Q 819 9 494 109 
L 494 744 
Q 775 591 1075 516 
Q 1375 441 1709 441 
Q 2250 441 2565 725 
Q 2881 1009 2881 1497 
Q 2881 1984 2565 2268 
Q 2250 2553 1709 2553 
Q 1456 2553 1204 2497 
Q 953 2441 691 2322 
L 691 4666 
z
" transform="scale(0.015625)"/>
       </defs>
       <use xlink:href="#DejaVuSans-32"/>
       <use xlink:href="#DejaVuSans-2e" x="63.623047"/>
       <use xlink:href="#DejaVuSans-35" x="95.410156"/>
      </g>
     </g>
    </g>
    <g id="xtick_3">
     <g id="line2d_5">
      <path d="M 141.681247 184.362208 
L 141.681247 2.989479 
" clip-path="url(#p25188be367)" style="fill: none; stroke-dasharray: 0.8,1.32; stroke-dashoffset: 0; stroke: #000000; stroke-opacity: 0.5; stroke-width: 0.8"/>
     </g>
     <g id="line2d_6">
      <g>
       <use xlink:href="#m76270f2b0a" x="141.681247" y="184.362208" style="stroke: #000000; stroke-width: 0.8"/>
      </g>
     </g>
     <g id="text_3">
      <!-- 5.0 -->
      <g transform="translate(133.729684 198.960646) scale(0.1 -0.1)">
       <use xlink:href="#DejaVuSans-35"/>
       <use xlink:href="#DejaVuSans-2e" x="63.623047"/>
       <use xlink:href="#DejaVuSans-30" x="95.410156"/>
      </g>
     </g>
    </g>
    <g id="xtick_4">
     <g id="line2d_7">
      <path d="M 193.270464 184.362208 
L 193.270464 2.989479 
" clip-path="url(#p25188be367)" style="fill: none; stroke-dasharray: 0.8,1.32; stroke-dashoffset: 0; stroke: #000000; stroke-opacity: 0.5; stroke-width: 0.8"/>
     </g>
     <g id="line2d_8">
      <g>
       <use xlink:href="#m76270f2b0a" x="193.270464" y="184.362208" style="stroke: #000000; stroke-width: 0.8"/>
      </g>
     </g>
     <g id="text_4">
      <!-- 7.5 -->
      <g transform="translate(185.318902 198.960646) scale(0.1 -0.1)">
       <defs>
        <path id="DejaVuSans-37" d="M 525 4666 
L 3525 4666 
L 3525 4397 
L 1831 0 
L 1172 0 
L 2766 4134 
L 525 4134 
L 525 4666 
z
" transform="scale(0.015625)"/>
       </defs>
       <use xlink:href="#DejaVuSans-37"/>
       <use xlink:href="#DejaVuSans-2e" x="63.623047"/>
       <use xlink:href="#DejaVuSans-35" x="95.410156"/>
      </g>
     </g>
    </g>
    <g id="xtick_5">
     <g id="line2d_9">
      <path d="M 244.859681 184.362208 
L 244.859681 2.989479 
" clip-path="url(#p25188be367)" style="fill: none; stroke-dasharray: 0.8,1.32; stroke-dashoffset: 0; stroke: #000000; stroke-opacity: 0.5; stroke-width: 0.8"/>
     </g>
     <g id="line2d_10">
      <g>
       <use xlink:href="#m76270f2b0a" x="244.859681" y="184.362208" style="stroke: #000000; stroke-width: 0.8"/>
      </g>
     </g>
     <g id="text_5">
      <!-- 10.0 -->
      <g transform="translate(233.726869 198.960646) scale(0.1 -0.1)">
       <defs>
        <path id="DejaVuSans-31" d="M 794 531 
L 1825 531 
L 1825 4091 
L 703 3866 
L 703 4441 
L 1819 4666 
L 2450 4666 
L 2450 531 
L 3481 531 
L 3481 0 
L 794 0 
L 794 531 
z
" transform="scale(0.015625)"/>
       </defs>
       <use xlink:href="#DejaVuSans-31"/>
       <use xlink:href="#DejaVuSans-30" x="63.623047"/>
       <use xlink:href="#DejaVuSans-2e" x="127.246094"/>
       <use xlink:href="#DejaVuSans-30" x="159.033203"/>
      </g>
     </g>
    </g>
    <g id="xtick_6">
     <g id="line2d_11">
      <path d="M 296.448899 184.362208 
L 296.448899 2.989479 
" clip-path="url(#p25188be367)" style="fill: none; stroke-dasharray: 0.8,1.32; stroke-dashoffset: 0; stroke: #000000; stroke-opacity: 0.5; stroke-width: 0.8"/>
     </g>
     <g id="line2d_12">
      <g>
       <use xlink:href="#m76270f2b0a" x="296.448899" y="184.362208" style="stroke: #000000; stroke-width: 0.8"/>
      </g>
     </g>
     <g id="text_6">
      <!-- 12.5 -->
      <g transform="translate(285.316086 198.960646) scale(0.1 -0.1)">
       <use xlink:href="#DejaVuSans-31"/>
       <use xlink:href="#DejaVuSans-32" x="63.623047"/>
       <use xlink:href="#DejaVuSans-2e" x="127.246094"/>
       <use xlink:href="#DejaVuSans-35" x="159.033203"/>
      </g>
     </g>
    </g>
    <g id="xtick_7">
     <g id="line2d_13">
      <path d="M 348.038116 184.362208 
L 348.038116 2.989479 
" clip-path="url(#p25188be367)" style="fill: none; stroke-dasharray: 0.8,1.32; stroke-dashoffset: 0; stroke: #000000; stroke-opacity: 0.5; stroke-width: 0.8"/>
     </g>
     <g id="line2d_14">
      <g>
       <use xlink:href="#m76270f2b0a" x="348.038116" y="184.362208" style="stroke: #000000; stroke-width: 0.8"/>
      </g>
     </g>
     <g id="text_7">
      <!-- 15.0 -->
      <g transform="translate(336.905303 198.960646) scale(0.1 -0.1)">
       <use xlink:href="#DejaVuSans-31"/>
       <use xlink:href="#DejaVuSans-35" x="63.623047"/>
       <use xlink:href="#DejaVuSans-2e" x="127.246094"/>
       <use xlink:href="#DejaVuSans-30" x="159.033203"/>
      </g>
     </g>
    </g>
    <g id="xtick_8">
     <g id="line2d_15">
      <path d="M 399.627333 184.362208 
L 399.627333 2.989479 
" clip-path="url(#p25188be367)" style="fill: none; stroke-dasharray: 0.8,1.32; stroke-dashoffset: 0; stroke: #000000; stroke-opacity: 0.5; stroke-width: 0.8"/>
     </g>
     <g id="line2d_16">
      <g>
       <use xlink:href="#m76270f2b0a" x="399.627333" y="184.362208" style="stroke: #000000; stroke-width: 0.8"/>
      </g>
     </g>
     <g id="text_8">
      <!-- 17.5 -->
      <g transform="translate(388.494521 198.960646) scale(0.1 -0.1)">
       <use xlink:href="#DejaVuSans-31"/>
       <use xlink:href="#DejaVuSans-37" x="63.623047"/>
       <use xlink:href="#DejaVuSans-2e" x="127.246094"/>
       <use xlink:href="#DejaVuSans-35" x="159.033203"/>
      </g>
     </g>
    </g>
    <g id="text_9">
     <!-- Zeit [s] -->
     <g transform="translate(214.665073 208.638771) scale(0.1 -0.1)">
      <defs>
       <path id="DejaVuSans-5a" d="M 359 4666 
L 4025 4666 
L 4025 4184 
L 1075 531 
L 4097 531 
L 4097 0 
L 288 0 
L 288 481 
L 3238 4134 
L 359 4134 
L 359 4666 
z
" transform="scale(0.015625)"/>
       <path id="DejaVuSans-65" d="M 3597 1894 
L 3597 1613 
L 953 1613 
Q 991 1019 1311 708 
Q 1631 397 2203 397 
Q 2534 397 2845 478 
Q 3156 559 3463 722 
L 3463 178 
Q 3153 47 2828 -22 
Q 2503 -91 2169 -91 
Q 1331 -91 842 396 
Q 353 884 353 1716 
Q 353 2575 817 3079 
Q 1281 3584 2069 3584 
Q 2775 3584 3186 3129 
Q 3597 2675 3597 1894 
z
M 3022 2063 
Q 3016 2534 2758 2815 
Q 2500 3097 2075 3097 
Q 1594 3097 1305 2825 
Q 1016 2553 972 2059 
L 3022 2063 
z
" transform="scale(0.015625)"/>
       <path id="DejaVuSans-69" d="M 603 3500 
L 1178 3500 
L 1178 0 
L 603 0 
L 603 3500 
z
M 603 4863 
L 1178 4863 
L 1178 4134 
L 603 4134 
L 603 4863 
z
" transform="scale(0.015625)"/>
       <path id="DejaVuSans-74" d="M 1172 4494 
L 1172 3500 
L 2356 3500 
L 2356 3053 
L 1172 3053 
L 1172 1153 
Q 1172 725 1289 603 
Q 1406 481 1766 481 
L 2356 481 
L 2356 0 
L 1766 0 
Q 1100 0 847 248 
Q 594 497 594 1153 
L 594 3053 
L 172 3053 
L 172 3500 
L 594 3500 
L 594 4494 
L 1172 4494 
z
" transform="scale(0.015625)"/>
       <path id="DejaVuSans-20" transform="scale(0.015625)"/>
       <path id="DejaVuSans-5b" d="M 550 4863 
L 1875 4863 
L 1875 4416 
L 1125 4416 
L 1125 -397 
L 1875 -397 
L 1875 -844 
L 550 -844 
L 550 4863 
z
" transform="scale(0.015625)"/>
       <path id="DejaVuSans-73" d="M 2834 3397 
L 2834 2853 
Q 2591 2978 2328 3040 
Q 2066 3103 1784 3103 
Q 1356 3103 1142 2972 
Q 928 2841 928 2578 
Q 928 2378 1081 2264 
Q 1234 2150 1697 2047 
L 1894 2003 
Q 2506 1872 2764 1633 
Q 3022 1394 3022 966 
Q 3022 478 2636 193 
Q 2250 -91 1575 -91 
Q 1294 -91 989 -36 
Q 684 19 347 128 
L 347 722 
Q 666 556 975 473 
Q 1284 391 1588 391 
Q 1994 391 2212 530 
Q 2431 669 2431 922 
Q 2431 1156 2273 1281 
Q 2116 1406 1581 1522 
L 1381 1569 
Q 847 1681 609 1914 
Q 372 2147 372 2553 
Q 372 3047 722 3315 
Q 1072 3584 1716 3584 
Q 2034 3584 2315 3537 
Q 2597 3491 2834 3397 
z
" transform="scale(0.015625)"/>
       <path id="DejaVuSans-5d" d="M 1947 4863 
L 1947 -844 
L 622 -844 
L 622 -397 
L 1369 -397 
L 1369 4416 
L 622 4416 
L 622 4863 
L 1947 4863 
z
" transform="scale(0.015625)"/>
      </defs>
      <use xlink:href="#DejaVuSans-5a"/>
      <use xlink:href="#DejaVuSans-65" x="68.505859"/>
      <use xlink:href="#DejaVuSans-69" x="130.029297"/>
      <use xlink:href="#DejaVuSans-74" x="157.8125"/>
      <use xlink:href="#DejaVuSans-20" x="197.021484"/>
      <use xlink:href="#DejaVuSans-5b" x="228.808594"/>
      <use xlink:href="#DejaVuSans-73" x="267.822266"/>
      <use xlink:href="#DejaVuSans-5d" x="319.921875"/>
     </g>
    </g>
   </g>
   <g id="matplotlib.axis_2">
    <g id="ytick_1">
     <g id="line2d_17">
      <path d="M 38.502813 181.281833 
L 426.71952 181.281833 
" clip-path="url(#p25188be367)" style="fill: none; stroke-dasharray: 0.8,1.32; stroke-dashoffset: 0; stroke: #000000; stroke-opacity: 0.5; stroke-width: 0.8"/>
     </g>
     <g id="line2d_18">
      <defs>
       <path id="m6e12b51fd4" d="M 0 0 
L -3.5 0 
" style="stroke: #000000; stroke-width: 0.8"/>
      </defs>
      <g>
       <use xlink:href="#m6e12b51fd4" x="38.502813" y="181.281833" style="stroke: #000000; stroke-width: 0.8"/>
      </g>
     </g>
     <g id="text_10">
      <!-- −30 -->
      <g transform="translate(10.398125 185.081052) scale(0.1 -0.1)">
       <defs>
        <path id="DejaVuSans-2212" d="M 678 2272 
L 4684 2272 
L 4684 1741 
L 678 1741 
L 678 2272 
z
" transform="scale(0.015625)"/>
        <path id="DejaVuSans-33" d="M 2597 2516 
Q 3050 2419 3304 2112 
Q 3559 1806 3559 1356 
Q 3559 666 3084 287 
Q 2609 -91 1734 -91 
Q 1441 -91 1130 -33 
Q 819 25 488 141 
L 488 750 
Q 750 597 1062 519 
Q 1375 441 1716 441 
Q 2309 441 2620 675 
Q 2931 909 2931 1356 
Q 2931 1769 2642 2001 
Q 2353 2234 1838 2234 
L 1294 2234 
L 1294 2753 
L 1863 2753 
Q 2328 2753 2575 2939 
Q 2822 3125 2822 3475 
Q 2822 3834 2567 4026 
Q 2313 4219 1838 4219 
Q 1578 4219 1281 4162 
Q 984 4106 628 3988 
L 628 4550 
Q 988 4650 1302 4700 
Q 1616 4750 1894 4750 
Q 2613 4750 3031 4423 
Q 3450 4097 3450 3541 
Q 3450 3153 3228 2886 
Q 3006 2619 2597 2516 
z
" transform="scale(0.015625)"/>
       </defs>
       <use xlink:href="#DejaVuSans-2212"/>
       <use xlink:href="#DejaVuSans-33" x="83.789062"/>
       <use xlink:href="#DejaVuSans-30" x="147.412109"/>
      </g>
     </g>
    </g>
    <g id="ytick_2">
     <g id="line2d_19">
      <path d="M 38.502813 151.821398 
L 426.71952 151.821398 
" clip-path="url(#p25188be367)" style="fill: none; stroke-dasharray: 0.8,1.32; stroke-dashoffset: 0; stroke: #000000; stroke-opacity: 0.5; stroke-width: 0.8"/>
     </g>
     <g id="line2d_20">
      <g>
       <use xlink:href="#m6e12b51fd4" x="38.502813" y="151.821398" style="stroke: #000000; stroke-width: 0.8"/>
      </g>
     </g>
     <g id="text_11">
      <!-- −20 -->
      <g transform="translate(10.398125 155.620616) scale(0.1 -0.1)">
       <use xlink:href="#DejaVuSans-2212"/>
       <use xlink:href="#DejaVuSans-32" x="83.789062"/>
       <use xlink:href="#DejaVuSans-30" x="147.412109"/>
      </g>
     </g>
    </g>
    <g id="ytick_3">
     <g id="line2d_21">
      <path d="M 38.502813 122.360962 
L 426.71952 122.360962 
" clip-path="url(#p25188be367)" style="fill: none; stroke-dasharray: 0.8,1.32; stroke-dashoffset: 0; stroke: #000000; stroke-opacity: 0.5; stroke-width: 0.8"/>
     </g>
     <g id="line2d_22">
      <g>
       <use xlink:href="#m6e12b51fd4" x="38.502813" y="122.360962" style="stroke: #000000; stroke-width: 0.8"/>
      </g>
     </g>
     <g id="text_12">
      <!-- −10 -->
      <g transform="translate(10.398125 126.160181) scale(0.1 -0.1)">
       <use xlink:href="#DejaVuSans-2212"/>
       <use xlink:href="#DejaVuSans-31" x="83.789062"/>
       <use xlink:href="#DejaVuSans-30" x="147.412109"/>
      </g>
     </g>
    </g>
    <g id="ytick_4">
     <g id="line2d_23">
      <path d="M 38.502813 92.900526 
L 426.71952 92.900526 
" clip-path="url(#p25188be367)" style="fill: none; stroke-dasharray: 0.8,1.32; stroke-dashoffset: 0; stroke: #000000; stroke-opacity: 0.5; stroke-width: 0.8"/>
     </g>
     <g id="line2d_24">
      <g>
       <use xlink:href="#m6e12b51fd4" x="38.502813" y="92.900526" style="stroke: #000000; stroke-width: 0.8"/>
      </g>
     </g>
     <g id="text_13">
      <!-- 0 -->
      <g transform="translate(25.140313 96.699745) scale(0.1 -0.1)">
       <use xlink:href="#DejaVuSans-30"/>
      </g>
     </g>
    </g>
    <g id="ytick_5">
     <g id="line2d_25">
      <path d="M 38.502813 63.44009 
L 426.71952 63.44009 
" clip-path="url(#p25188be367)" style="fill: none; stroke-dasharray: 0.8,1.32; stroke-dashoffset: 0; stroke: #000000; stroke-opacity: 0.5; stroke-width: 0.8"/>
     </g>
     <g id="line2d_26">
      <g>
       <use xlink:href="#m6e12b51fd4" x="38.502813" y="63.44009" style="stroke: #000000; stroke-width: 0.8"/>
      </g>
     </g>
     <g id="text_14">
      <!-- 10 -->
      <g transform="translate(18.777813 67.239309) scale(0.1 -0.1)">
       <use xlink:href="#DejaVuSans-31"/>
       <use xlink:href="#DejaVuSans-30" x="63.623047"/>
      </g>
     </g>
    </g>
    <g id="ytick_6">
     <g id="line2d_27">
      <path d="M 38.502813 33.979655 
L 426.71952 33.979655 
" clip-path="url(#p25188be367)" style="fill: none; stroke-dasharray: 0.8,1.32; stroke-dashoffset: 0; stroke: #000000; stroke-opacity: 0.5; stroke-width: 0.8"/>
     </g>
     <g id="line2d_28">
      <g>
       <use xlink:href="#m6e12b51fd4" x="38.502813" y="33.979655" style="stroke: #000000; stroke-width: 0.8"/>
      </g>
     </g>
     <g id="text_15">
      <!-- 20 -->
      <g transform="translate(18.777813 37.778873) scale(0.1 -0.1)">
       <use xlink:href="#DejaVuSans-32"/>
       <use xlink:href="#DejaVuSans-30" x="63.623047"/>
      </g>
     </g>
    </g>
    <g id="ytick_7">
     <g id="line2d_29">
      <path d="M 38.502813 4.519219 
L 426.71952 4.519219 
" clip-path="url(#p25188be367)" style="fill: none; stroke-dasharray: 0.8,1.32; stroke-dashoffset: 0; stroke: #000000; stroke-opacity: 0.5; stroke-width: 0.8"/>
     </g>
     <g id="line2d_30">
      <g>
       <use xlink:href="#m6e12b51fd4" x="38.502813" y="4.519219" style="stroke: #000000; stroke-width: 0.8"/>
      </g>
     </g>
     <g id="text_16">
      <!-- 30 -->
      <g transform="translate(18.777813 8.318437) scale(0.1 -0.1)">
       <use xlink:href="#DejaVuSans-33"/>
       <use xlink:href="#DejaVuSans-30" x="63.623047"/>
      </g>
     </g>
    </g>
    <g id="text_17">
     <!-- Kraft [N] -->
     <g transform="translate(8.318438 114.938343) rotate(-90) scale(0.1 -0.1)">
      <defs>
       <path id="DejaVuSans-4b" d="M 628 4666 
L 1259 4666 
L 1259 2694 
L 3353 4666 
L 4166 4666 
L 1850 2491 
L 4331 0 
L 3500 0 
L 1259 2247 
L 1259 0 
L 628 0 
L 628 4666 
z
" transform="scale(0.015625)"/>
       <path id="DejaVuSans-72" d="M 2631 2963 
Q 2534 3019 2420 3045 
Q 2306 3072 2169 3072 
Q 1681 3072 1420 2755 
Q 1159 2438 1159 1844 
L 1159 0 
L 581 0 
L 581 3500 
L 1159 3500 
L 1159 2956 
Q 1341 3275 1631 3429 
Q 1922 3584 2338 3584 
Q 2397 3584 2469 3576 
Q 2541 3569 2628 3553 
L 2631 2963 
z
" transform="scale(0.015625)"/>
       <path id="DejaVuSans-61" d="M 2194 1759 
Q 1497 1759 1228 1600 
Q 959 1441 959 1056 
Q 959 750 1161 570 
Q 1363 391 1709 391 
Q 2188 391 2477 730 
Q 2766 1069 2766 1631 
L 2766 1759 
L 2194 1759 
z
M 3341 1997 
L 3341 0 
L 2766 0 
L 2766 531 
Q 2569 213 2275 61 
Q 1981 -91 1556 -91 
Q 1019 -91 701 211 
Q 384 513 384 1019 
Q 384 1609 779 1909 
Q 1175 2209 1959 2209 
L 2766 2209 
L 2766 2266 
Q 2766 2663 2505 2880 
Q 2244 3097 1772 3097 
Q 1472 3097 1187 3025 
Q 903 2953 641 2809 
L 641 3341 
Q 956 3463 1253 3523 
Q 1550 3584 1831 3584 
Q 2591 3584 2966 3190 
Q 3341 2797 3341 1997 
z
" transform="scale(0.015625)"/>
       <path id="DejaVuSans-66" d="M 2375 4863 
L 2375 4384 
L 1825 4384 
Q 1516 4384 1395 4259 
Q 1275 4134 1275 3809 
L 1275 3500 
L 2222 3500 
L 2222 3053 
L 1275 3053 
L 1275 0 
L 697 0 
L 697 3053 
L 147 3053 
L 147 3500 
L 697 3500 
L 697 3744 
Q 697 4328 969 4595 
Q 1241 4863 1831 4863 
L 2375 4863 
z
" transform="scale(0.015625)"/>
       <path id="DejaVuSans-4e" d="M 628 4666 
L 1478 4666 
L 3547 763 
L 3547 4666 
L 4159 4666 
L 4159 0 
L 3309 0 
L 1241 3903 
L 1241 0 
L 628 0 
L 628 4666 
z
" transform="scale(0.015625)"/>
      </defs>
      <use xlink:href="#DejaVuSans-4b"/>
      <use xlink:href="#DejaVuSans-72" x="65.576172"/>
      <use xlink:href="#DejaVuSans-61" x="106.689453"/>
      <use xlink:href="#DejaVuSans-66" x="167.96875"/>
      <use xlink:href="#DejaVuSans-74" x="201.423828"/>
      <use xlink:href="#DejaVuSans-20" x="240.632812"/>
      <use xlink:href="#DejaVuSans-5b" x="272.419922"/>
      <use xlink:href="#DejaVuSans-4e" x="311.433594"/>
      <use xlink:href="#DejaVuSans-5d" x="386.238281"/>
     </g>
    </g>
   </g>
   <g id="line2d_31">
    <path d="M 38.502813 92.903105 
L 91.642758 92.901543 
L 103.752331 92.900991 
L 138.802793 92.902571 
L 144.045281 92.902513 
L 160.022626 92.901892 
L 167.035704 92.902851 
L 167.248444 100.645513 
L 167.37214 94.392711 
L 167.592103 95.005353 
L 167.740271 95.750237 
L 167.905364 93.64724 
L 168.072688 93.440209 
L 168.445166 94.907386 
L 168.611864 93.859147 
L 168.776803 95.408918 
L 168.942218 93.158967 
L 169.107821 96.654205 
L 169.315652 95.527362 
L 169.442143 92.266623 
L 169.648632 95.367517 
L 169.774075 95.358287 
L 169.93992 97.477004 
L 169.979168 94.29864 
L 170.144858 95.809617 
L 170.311488 96.282601 
L 170.476552 96.210812 
L 170.683728 94.095076 
L 171.184495 98.888319 
L 171.390371 97.126974 
L 171.731979 97.574255 
L 171.853342 96.883566 
L 172.017345 97.067115 
L 172.224076 96.517532 
L 172.390467 98.850148 
L 172.597282 100.098722 
L 172.867074 98.855572 
L 172.890431 95.75462 
L 173.344281 100.769693 
L 173.426692 97.952219 
L 174.089983 102.963559 
L 174.256107 99.994811 
L 174.421625 102.111596 
L 174.629721 99.54124 
L 174.835794 103.297099 
L 174.960194 100.437924 
L 175.292269 102.839476 
L 175.512596 101.952446 
L 175.717338 102.442652 
L 175.842435 103.05253 
L 175.966082 102.237819 
L 176.339554 103.93428 
L 176.547265 104.331068 
L 176.712839 104.327988 
L 176.878337 104.045773 
L 177.086584 103.37674 
L 177.211731 102.135815 
L 177.500898 104.985626 
L 177.542799 102.99017 
L 177.708732 103.901871 
L 177.875145 103.627289 
L 178.039763 105.262767 
L 178.206907 104.696522 
L 178.376506 105.446804 
L 178.579448 104.416781 
L 178.706389 103.023137 
L 178.910895 105.335892 
L 179.117783 106.166062 
L 179.24249 105.456212 
L 179.49159 105.843087 
L 179.657205 107.613151 
L 179.782056 106.004057 
L 179.947148 106.799789 
L 180.112916 106.658544 
L 180.321054 106.648634 
L 180.528161 106.197657 
L 180.735556 106.551743 
L 180.860072 107.494422 
L 181.066874 107.314431 
L 181.152699 107.459242 
L 181.35943 107.480671 
L 181.649551 109.323116 
L 181.843152 108.055498 
L 182.00196 108.0461 
L 182.168021 107.526254 
L 182.519423 108.825836 
L 182.684974 108.424658 
L 183.005638 109.254662 
L 183.185199 108.830016 
L 183.556317 109.483032 
L 183.721917 107.957294 
L 184.052953 109.509714 
L 184.343248 111.014724 
L 184.634012 108.645271 
L 184.846511 110.937894 
L 184.966286 110.915342 
L 185.104134 110.595632 
L 185.321087 110.434213 
L 185.589918 111.349169 
L 185.963761 110.780727 
L 186.129707 109.319545 
L 186.336448 111.858838 
L 186.462318 111.800964 
L 186.667948 113.062875 
L 186.834352 112.981047 
L 187.041777 111.125623 
L 187.208633 111.409094 
L 187.335181 112.790016 
L 187.498644 112.173148 
L 187.705807 110.676645 
L 187.83031 112.449918 
L 188.038914 113.327391 
L 188.244543 112.211272 
L 188.369759 112.405648 
L 188.535505 111.960232 
L 188.702007 113.657753 
L 188.868699 112.570044 
L 189.033047 113.524906 
L 189.323182 112.534761 
L 189.572243 114.573604 
L 189.614787 112.566403 
L 189.737865 113.913639 
L 190.070259 112.982024 
L 190.237035 114.200876 
L 190.527056 114.308625 
L 190.611255 113.218337 
L 190.817251 115.132646 
L 190.942467 113.306311 
L 191.523033 114.384204 
L 191.614938 115.508409 
L 191.811547 114.316232 
L 192.019145 115.666629 
L 192.248529 114.125751 
L 192.417055 114.255873 
L 192.518548 115.222969 
L 192.725323 115.317119 
L 192.809655 114.67767 
L 193.016079 115.281573 
L 193.265275 114.770356 
L 193.525223 114.522444 
L 193.719918 115.484966 
L 193.979383 115.000592 
L 194.056481 115.292219 
L 194.383236 115.013309 
L 194.548805 113.682119 
L 194.797579 114.223107 
L 194.922159 116.258617 
L 195.212183 115.503714 
L 195.295114 115.902226 
L 195.461043 115.350711 
L 195.586589 116.134845 
L 195.83521 115.306012 
L 196.124398 115.211547 
L 196.291833 114.374423 
L 196.580732 115.833944 
L 196.748291 115.259503 
L 196.912717 116.785094 
L 196.954617 114.914411 
L 197.119948 114.650072 
L 197.327727 115.073681 
L 197.540592 114.718773 
L 197.700895 115.68433 
L 197.86703 115.42389 
L 198.003553 115.608051 
L 198.239856 114.813412 
L 198.405795 116.323628 
L 198.541309 115.880101 
L 198.697139 114.875218 
L 198.878303 115.421209 
L 199.028913 115.387371 
L 199.235536 114.552702 
L 199.483734 114.489584 
L 200.022637 115.347316 
L 200.0651 115.875434 
L 200.230265 115.694887 
L 200.479468 115.200431 
L 200.648575 116.095195 
L 200.936176 114.880498 
L 201.144172 114.699283 
L 201.269763 115.226882 
L 201.433198 115.142115 
L 201.599156 115.490967 
L 201.771257 116.277101 
L 202.096849 115.022105 
L 202.32375 114.4628 
L 202.497627 114.900343 
L 202.802977 115.059874 
L 203.258895 114.300751 
L 203.345358 114.345702 
L 203.591491 114.044484 
L 203.676205 114.848637 
L 203.881319 114.26499 
L 204.010432 114.580912 
L 204.466335 114.252036 
L 204.544957 113.656518 
L 204.974216 114.583086 
L 205.085509 113.545396 
L 205.211776 113.695941 
L 205.458934 113.47414 
L 205.562396 114.251998 
L 205.79286 113.298634 
L 205.958517 113.35829 
L 206.123628 113.209276 
L 206.249665 113.837089 
L 206.579877 113.049784 
L 206.787181 113.113313 
L 206.953379 113.318208 
L 207.201515 113.427045 
L 207.326492 112.717251 
L 207.628418 113.382172 
L 207.823123 112.119201 
L 207.989909 113.203684 
L 208.282167 112.45575 
L 208.654127 112.723249 
L 208.819692 112.292243 
L 209.06875 110.515528 
L 209.364106 112.834192 
L 209.694221 110.914417 
L 209.898115 111.172615 
L 210.022111 111.824997 
L 210.190221 111.072023 
L 210.478378 111.013293 
L 210.562104 111.189969 
L 210.72769 109.938197 
L 211.060182 111.225437 
L 211.229053 110.837805 
L 211.394521 111.376021 
L 211.572053 110.121343 
L 211.726285 110.336786 
L 212.016167 109.668308 
L 212.102259 109.200972 
L 212.265662 109.522048 
L 212.431349 108.899136 
L 212.597417 109.047062 
L 212.805319 108.858709 
L 212.948447 109.118526 
L 213.097541 108.705681 
L 213.345276 108.655799 
L 213.635086 107.607959 
L 213.718524 108.522696 
L 213.800791 107.537182 
L 214.091247 108.899577 
L 214.136742 107.558439 
L 214.329273 107.826135 
L 214.517147 108.530219 
L 214.645376 107.251839 
L 214.961804 108.20011 
L 215.003774 106.84249 
L 215.542481 107.091722 
L 215.708254 107.089865 
L 215.915184 106.499754 
L 216.206865 106.856541 
L 216.41344 107.124025 
L 216.58419 106.367806 
L 216.745894 107.301442 
L 216.870653 105.609498 
L 217.076131 105.923083 
L 217.454308 104.216296 
L 217.614932 105.638697 
L 217.786303 104.905893 
L 217.947678 104.70978 
L 218.073785 104.118633 
L 218.320226 104.222305 
L 218.452737 104.407172 
L 218.652175 103.178168 
L 218.778428 104.459451 
L 219.108845 103.459235 
L 219.27589 103.044701 
L 219.48269 103.857917 
L 219.647945 102.280885 
L 219.813668 103.027874 
L 220.313743 101.865932 
L 220.561116 102.574746 
L 220.685603 101.816608 
L 220.851507 101.727064 
L 221.185178 101.122259 
L 221.473407 99.832663 
L 221.556393 100.656314 
L 221.76367 99.084474 
L 221.888417 100.974874 
L 222.13683 99.731252 
L 222.261216 100.598758 
L 222.386698 98.126099 
L 222.551674 99.98282 
L 222.75861 99.352528 
L 222.900334 99.858907 
L 223.095895 98.774247 
L 223.506579 99.119358 
L 223.631297 97.979602 
L 223.879809 98.32049 
L 224.088084 98.834839 
L 224.294277 97.309876 
L 224.501503 98.265363 
L 224.628545 96.812513 
L 224.87638 96.540894 
L 224.999346 99.27751 
L 225.30129 96.941031 
L 225.500074 96.154441 
L 225.760961 96.225341 
L 225.930244 96.089321 
L 226.047075 95.024071 
L 226.207896 96.649108 
L 226.374016 95.071296 
L 226.583675 95.580553 
L 227.012404 94.831566 
L 227.342758 94.162435 
L 227.392505 94.568457 
L 227.592455 93.808943 
L 227.758081 94.609451 
L 227.883821 93.62929 
L 228.131341 93.977193 
L 228.255833 92.794026 
L 228.512468 91.914765 
L 228.795006 93.466662 
L 229.043821 91.121852 
L 229.13178 92.247853 
L 229.541201 92.641859 
L 229.626368 103.241764 
L 229.873793 102.796991 
L 230.038834 102.16565 
L 230.338196 95.731362 
L 230.577786 95.676382 
L 230.662431 93.963481 
L 230.82737 93.653916 
L 231.035274 92.869743 
L 231.344786 92.505184 
L 231.798122 93.048381 
L 231.880109 91.200952 
L 232.04936 92.68298 
L 232.258259 91.608302 
L 232.337894 92.874755 
L 232.547216 92.468858 
L 232.792382 93.120819 
L 233.082376 93.005422 
L 233.206972 93.316141 
L 233.457252 92.20744 
L 233.624338 92.26236 
L 233.999199 93.582953 
L 234.080582 93.01586 
L 234.286248 93.916542 
L 234.576824 92.935234 
L 234.783175 92.645973 
L 234.950203 92.933783 
L 235.11523 91.976204 
L 235.281034 92.663455 
L 235.450774 92.813607 
L 235.655156 91.783231 
L 236.151866 93.0271 
L 236.324735 92.883457 
L 236.651736 92.962074 
L 236.817354 93.667497 
L 237.106334 93.599973 
L 237.189713 93.281326 
L 237.482227 93.35708 
L 237.527784 92.376614 
L 237.689531 92.961759 
L 238.14327 92.875534 
L 238.2678 92.670308 
L 238.392143 92.998215 
L 238.558722 92.173625 
L 238.727855 92.349748 
L 238.892169 92.832046 
L 239.115918 92.505802 
L 239.387212 93.0856 
L 239.428711 92.779128 
L 239.594769 92.983957 
L 239.760597 92.920892 
L 240.092821 93.126632 
L 240.259079 92.181836 
L 240.466943 93.414608 
L 240.729629 92.89454 
L 240.963756 93.651995 
L 241.128739 92.428892 
L 241.502199 92.932964 
L 241.710003 92.92291 
L 241.835474 93.360317 
L 242.041257 93.015398 
L 242.218911 93.492254 
L 242.55692 92.691335 
L 242.710371 93.119335 
L 243.036737 93.009164 
L 243.201958 93.265886 
L 243.409889 92.925241 
L 243.742776 93.297868 
L 243.908832 92.782976 
L 244.075172 92.982373 
L 244.246002 93.381538 
L 244.493018 92.53596 
L 244.800421 93.016923 
L 244.945504 92.988018 
L 245.278198 93.676753 
L 245.460656 93.45957 
L 245.6088 92.7743 
L 245.941777 92.727926 
L 246.106994 93.148831 
L 246.480254 92.680438 
L 246.688295 93.113774 
L 246.813778 92.935168 
L 246.983913 92.193796 
L 247.250664 93.364326 
L 247.329504 92.763953 
L 247.561323 93.04446 
L 247.769858 92.186745 
L 247.852662 93.068254 
L 248.348878 92.937483 
L 248.556392 92.654618 
L 248.763845 93.531218 
L 248.88818 93.075067 
L 249.054 92.891742 
L 249.22004 93.034264 
L 249.386714 92.71679 
L 249.718457 93.3097 
L 249.926052 92.701968 
L 250.066819 92.871978 
L 250.25687 92.919055 
L 250.506274 93.559164 
L 250.603771 92.935418 
L 251.210704 92.989148 
L 251.293338 92.701549 
L 251.626994 93.177893 
L 251.792847 93.003676 
L 252.165822 93.293025 
L 252.293748 92.514891 
L 252.496563 93.073194 
L 252.706411 93.066391 
L 252.871106 92.417223 
L 252.99455 93.277275 
L 253.165828 92.880417 
L 253.36734 92.725755 
L 253.864927 92.952524 
L 254.156567 92.850534 
L 254.198387 92.970579 
L 254.542501 92.92339 
L 254.698803 93.298948 
L 254.944477 92.914067 
L 255.110542 92.931292 
L 255.317541 93.08271 
L 255.607942 91.980952 
L 255.815387 93.143536 
L 256.105723 92.910178 
L 256.271124 92.155395 
L 256.519706 93.689154 
L 256.645377 92.825275 
L 256.852167 93.167502 
L 257.059435 92.845504 
L 257.308719 93.609542 
L 257.55682 92.791073 
L 257.848371 92.880645 
L 258.13694 92.29928 
L 258.344332 93.326829 
L 258.510617 92.925628 
L 258.676182 93.005992 
L 258.883911 92.889675 
L 259.090992 92.935816 
L 259.180042 93.553876 
L 259.390162 92.939006 
L 259.555059 92.926177 
L 259.878695 93.605126 
L 260.170453 93.534004 
L 260.25215 92.749086 
L 260.378588 92.981642 
L 260.624836 92.882233 
L 260.833066 93.007723 
L 260.925458 93.204577 
L 261.217238 92.934702 
L 261.291853 93.271033 
L 261.457507 93.304356 
L 261.62349 92.84271 
L 262.121079 92.871202 
L 262.501148 93.470659 
L 262.702624 92.290509 
L 262.787279 93.371303 
L 262.963238 93.006097 
L 263.162493 93.315886 
L 263.333761 92.905444 
L 263.698297 93.069859 
L 263.86419 92.657584 
L 264.230218 93.341229 
L 264.406474 92.177695 
L 264.559477 92.984226 
L 264.697618 92.842561 
L 264.902419 93.566038 
L 265.39929 92.862446 
L 265.607052 93.041398 
L 265.73121 92.922965 
L 265.896843 93.039738 
L 266.104126 92.084074 
L 266.311416 92.88785 
L 266.435941 92.816273 
L 266.651561 93.545743 
L 266.812423 92.93583 
L 267.474411 92.934861 
L 267.637873 93.269836 
L 267.858294 93.303897 
L 267.971726 92.78469 
L 268.181608 93.482454 
L 268.387957 92.931637 
L 268.518424 93.028044 
L 268.679162 92.976619 
L 268.807534 92.751225 
L 269.010967 92.77916 
L 269.302164 92.019232 
L 269.38594 93.169506 
L 269.676314 92.854931 
L 269.841292 92.989847 
L 270.047991 93.521583 
L 270.216902 93.040705 
L 270.752947 93.005922 
L 271.125855 93.415271 
L 271.498396 92.841447 
L 271.872285 93.587338 
L 271.913154 91.622273 
L 272.165896 92.830429 
L 272.369808 93.077118 
L 272.413556 93.012751 
L 272.669632 92.996506 
L 272.784705 92.868871 
L 272.952115 93.270085 
L 273.199024 92.880065 
L 273.324085 92.926842 
L 273.53568 93.23925 
L 273.657953 92.057849 
L 273.82134 92.834092 
L 274.196583 92.866822 
L 274.321023 93.679203 
L 274.485885 93.586478 
L 274.680553 92.810572 
L 275.191841 92.929049 
L 275.398863 93.582955 
L 275.523705 92.917542 
L 275.773336 93.062892 
L 275.93834 92.538964 
L 276.06276 92.756422 
L 276.311749 92.835902 
L 276.394572 93.169172 
L 276.768191 93.195896 
L 276.933694 92.902532 
L 277.602201 92.925007 
L 277.762832 92.65841 
L 277.929639 93.274192 
L 278.136501 92.793199 
L 278.260601 93.041666 
L 278.468023 92.887121 
L 278.633894 92.931104 
L 278.799534 93.438117 
L 278.965744 92.872777 
L 279.131096 92.772099 
L 279.669679 93.573784 
L 279.878463 92.960815 
L 280.084202 92.879243 
L 280.254342 92.444108 
L 280.374434 93.467606 
L 280.664929 92.917001 
L 280.707091 92.971643 
L 280.87328 93.018864 
L 281.162822 92.925775 
L 281.246472 93.694701 
L 281.452269 92.420745 
L 281.577205 92.988674 
L 281.742667 92.967703 
L 281.908955 93.530028 
L 282.240239 92.91649 
L 282.408575 92.828704 
L 282.613615 92.975104 
L 283.195056 92.935312 
L 283.277358 93.245144 
L 283.652216 92.02347 
L 284.147687 92.907813 
L 284.483738 92.989241 
L 284.645807 92.586784 
L 284.812589 93.45046 
L 285.146679 92.866619 
L 285.434405 93.536198 
L 285.589971 92.466878 
L 285.683437 92.839919 
L 286.387779 92.825232 
L 286.637106 93.087054 
L 286.719907 93.453711 
L 287.096915 93.055306 
L 287.259239 93.253566 
L 287.550005 92.996875 
L 287.924174 92.808723 
L 288.088619 92.869984 
L 288.254177 93.378988 
L 288.503461 92.921508 
L 288.627545 93.116574 
L 288.793406 92.991966 
L 288.959052 93.524571 
L 289.125201 92.925332 
L 289.333503 92.88824 
L 289.748963 93.103987 
L 289.914395 92.248841 
L 289.9972 93.369883 
L 290.33018 92.77746 
L 290.500979 93.22313 
L 290.702783 93.367965 
L 290.870098 92.84028 
L 291.034183 92.771105 
L 291.242118 93.010408 
L 291.367064 92.860717 
L 291.574797 92.090114 
L 291.698397 93.300547 
L 291.864183 92.879966 
L 292.237578 93.111674 
L 292.370664 92.322891 
L 292.534833 92.902844 
L 292.735873 93.039816 
L 293.069791 92.796519 
L 293.235936 93.157094 
L 293.449229 92.196423 
L 293.607703 92.980679 
L 293.939573 92.730636 
L 294.107757 92.103608 
L 294.273493 92.859972 
L 294.477985 92.836118 
L 294.645483 93.09599 
L 294.851356 92.984961 
L 294.977207 91.940617 
L 295.14194 92.081004 
L 295.30829 93.038697 
L 295.475827 92.963368 
L 295.724217 93.218342 
L 295.849825 91.968439 
L 296.015508 92.924128 
L 296.21135 92.948647 
L 296.43168 92.805568 
L 296.595835 93.369341 
L 296.678688 92.214248 
L 296.845169 92.126054 
L 297.052033 93.033907 
L 297.260455 92.994808 
L 297.385752 92.738299 
L 297.551585 93.16977 
L 297.759453 92.947371 
L 297.882771 93.021343 
L 298.090962 93.000155 
L 298.256243 92.711517 
L 298.422527 93.601992 
L 298.71228 92.934524 
L 298.762909 93.039823 
L 298.96197 92.908582 
L 299.09469 92.638633 
L 299.369096 93.396723 
L 299.458192 92.705249 
L 299.826935 93.028932 
L 300.075903 93.001927 
L 300.118274 93.537421 
L 300.324699 92.787837 
L 301.154643 92.842889 
L 301.362236 92.772201 
L 301.530843 92.953739 
L 301.698668 92.584319 
L 301.835811 93.178826 
L 302.026745 92.583452 
L 302.567853 93.059489 
L 303.065972 92.705539 
L 303.313816 92.885096 
L 303.438081 93.363607 
L 303.564915 93.345428 
L 303.729451 93.455483 
L 303.895373 92.972124 
L 304.270338 92.996084 
L 304.434877 92.454112 
L 304.599794 92.967906 
L 304.766122 92.895625 
L 304.973517 92.96971 
L 305.099461 92.833493 
L 305.46998 92.690387 
L 305.475902 98.440173 
L 305.639145 92.853484 
L 305.887001 93.493005 
L 306.012076 93.268686 
L 306.184017 93.249996 
L 306.345573 92.861259 
L 306.593697 92.847817 
L 306.676907 93.313415 
L 306.805438 92.86695 
L 307.008402 92.744297 
L 307.174443 92.935681 
L 307.507939 92.75524 
L 307.799879 92.021039 
L 307.837875 93.545963 
L 308.087747 92.963478 
L 308.215475 93.014579 
L 308.544864 92.916086 
L 308.836812 92.950461 
L 308.923762 93.23792 
L 309.101398 92.872226 
L 309.250121 93.488993 
L 309.422157 93.415363 
L 309.45809 92.731228 
L 309.624294 92.443303 
L 309.790871 92.935188 
L 309.918006 92.739604 
L 310.082723 92.969858 
L 310.288257 92.943162 
L 310.619953 91.941551 
L 310.951654 93.666529 
L 311.118262 93.727529 
L 311.507522 92.914768 
L 311.659303 92.882449 
L 311.823265 87.59959 
L 312.161281 90.362149 
L 312.498394 91.278036 
L 312.661092 90.93864 
L 312.841523 92.010043 
L 313.075108 92.358354 
L 313.379178 93.021225 
L 313.577042 92.825155 
L 313.746276 93.616313 
L 313.950077 93.332608 
L 314.033802 93.625415 
L 314.201629 93.192261 
L 314.495707 94.112038 
L 314.578649 93.529131 
L 314.909075 93.409076 
L 315.166889 93.108406 
L 315.278734 93.604036 
L 315.48951 93.120917 
L 315.652905 93.331096 
L 315.818567 93.765258 
L 316.027603 92.853381 
L 316.194183 94.07165 
L 316.408253 92.986024 
L 316.507943 93.061195 
L 316.613191 92.689603 
L 316.797756 93.451119 
L 316.986216 93.409697 
L 317.20556 93.698843 
L 317.320802 94.512715 
L 317.564282 93.58477 
L 317.706398 94.017239 
L 317.85523 93.143583 
L 318.187507 93.936116 
L 318.353457 93.56973 
L 318.521708 94.061184 
L 318.782499 94.175037 
L 318.85217 93.811817 
L 319.100521 93.968088 
L 319.225076 93.675856 
L 319.409494 94.102089 
L 319.558885 94.792755 
L 319.841148 93.384518 
L 320.006421 93.81049 
L 320.136768 93.709216 
L 320.297066 95.046285 
L 320.629841 93.631008 
L 321.085565 94.737122 
L 321.335238 93.542512 
L 321.708592 94.44658 
L 321.79598 93.476906 
L 322.165521 94.571768 
L 322.331441 94.120839 
L 322.663992 94.977703 
L 322.833021 94.284605 
L 323.16259 94.911963 
L 323.335657 94.134118 
L 323.498092 94.495859 
L 324.203811 94.215499 
L 324.370413 95.132944 
L 324.659943 94.490397 
L 324.721012 94.566109 
L 324.909506 94.50748 
L 325.116151 94.212614 
L 325.323389 94.764057 
L 325.448723 94.284429 
L 325.614606 95.09963 
L 325.785326 94.805301 
L 325.947257 94.806573 
L 326.072865 94.586201 
L 326.238562 94.688594 
L 326.412047 95.427904 
L 326.611344 94.696161 
L 326.78644 94.656388 
L 326.948721 95.279552 
L 327.207242 94.910042 
L 327.32073 95.440027 
L 327.360247 95.125831 
L 327.443537 94.650979 
L 327.669682 94.501847 
L 327.816366 95.270295 
L 328.108854 95.163612 
L 328.32193 94.650771 
L 328.481153 95.739832 
L 328.64752 95.008358 
L 329.072537 94.690052 
L 329.236918 94.93827 
L 329.36207 95.802987 
L 329.694481 95.480373 
L 329.985262 95.754966 
L 330.151062 95.182412 
L 330.19387 95.353771 
L 330.481735 95.866229 
L 330.564866 94.659043 
L 330.731867 95.511686 
L 330.896731 95.470253 
L 331.186949 95.623616 
L 331.270016 95.451614 
L 331.436321 95.482713 
L 331.60623 95.677807 
L 331.643987 95.326275 
L 331.934519 96.284529 
L 332.102296 95.449753 
L 332.308094 95.075323 
L 332.43322 95.622957 
L 332.655635 95.58839 
L 332.767125 95.222472 
L 332.97483 96.420871 
L 333.140408 95.682363 
L 333.309014 95.989897 
L 333.514844 95.452696 
L 333.806007 95.655037 
L 334.14328 96.020369 
L 334.42815 96.308863 
L 334.679608 95.51476 
L 334.859288 95.914198 
L 335.009353 95.869958 
L 335.175884 95.547419 
L 335.347981 96.24881 
L 335.555985 96.447291 
L 335.931453 95.449161 
L 336.094646 96.162701 
L 336.386343 95.824054 
L 336.593826 96.607839 
L 336.759288 96.18909 
L 337.036051 96.282961 
L 337.138595 96.148456 
L 337.261473 97.230909 
L 337.632443 95.92378 
L 337.845969 96.61924 
L 337.964258 95.848962 
L 338.137004 96.430907 
L 338.389539 96.189764 
L 338.463953 95.930043 
L 338.633677 95.886799 
L 338.797148 96.68272 
L 339.010774 96.781763 
L 339.338692 96.300609 
L 339.503594 96.806641 
L 339.674798 96.885861 
L 339.878088 96.255044 
L 340.005552 96.806887 
L 340.211833 96.459557 
L 340.417118 96.613404 
L 340.541933 96.433816 
L 340.91533 96.97451 
L 341.073503 96.999652 
L 341.609234 96.496776 
L 341.737669 97.174051 
L 341.93982 97.247297 
L 342.151599 97.070175 
L 342.273927 97.724306 
L 342.406038 96.967006 
L 342.605046 96.868873 
L 342.771238 97.598981 
L 342.937427 97.639413 
L 343.102823 97.53865 
L 343.269013 96.941701 
L 343.435661 97.614035 
L 343.725777 97.489089 
L 343.829534 96.655931 
L 344.099723 97.423776 
L 344.182432 97.240447 
L 344.348416 97.591439 
L 344.514318 97.38512 
L 344.721412 97.596258 
L 344.813396 97.276655 
L 344.993925 97.258 
L 345.181784 97.819618 
L 345.525221 97.661255 
L 345.678126 97.861433 
L 345.845578 96.549498 
L 346.109824 97.258197 
L 346.219824 96.976202 
L 346.383739 98.091 
L 346.929406 97.27298 
L 347.13467 97.863873 
L 347.432378 97.2065 
L 347.610518 97.883506 
L 347.812893 97.560201 
L 347.897482 98.323765 
L 348.308348 97.103848 
L 348.515742 97.838706 
L 348.598891 97.531468 
L 348.806141 97.891703 
L 348.977588 98.684546 
L 349.304427 97.555301 
L 349.47129 97.496169 
L 349.678685 97.658545 
L 349.844641 98.17429 
L 350.175789 97.968533 
L 350.34163 98.404512 
L 350.508276 97.96045 
L 350.67893 97.933836 
L 350.841623 98.087954 
L 351.006434 98.007396 
L 351.380226 98.810262 
L 351.547773 98.165516 
L 351.75397 98.730266 
L 352.127203 97.74237 
L 352.302626 98.117258 
L 352.418432 98.05929 
L 352.791429 98.176187 
L 352.957356 98.251876 
L 353.098215 98.110802 
L 353.248422 98.579457 
L 353.45844 98.748557 
L 353.662257 98.070775 
L 353.953568 98.876413 
L 354.121182 98.011098 
L 354.285471 98.56141 
L 354.504945 98.309135 
L 354.629467 98.37165 
L 355.127769 98.114144 
L 355.169495 98.574759 
L 355.376697 97.93585 
L 355.670175 98.727355 
L 356.039958 98.672228 
L 356.165537 99.001521 
L 356.373504 98.999505 
L 356.70401 98.801962 
L 356.914665 99.292838 
L 357.080208 98.623558 
L 357.244975 99.438173 
L 357.577453 98.876136 
L 357.720344 99.155327 
L 358.151598 99.073213 
L 358.28907 98.856758 
L 358.455802 99.379865 
L 358.620771 99.437248 
L 358.787003 99.222941 
L 358.953268 99.475524 
L 359.118747 98.956165 
L 359.658684 99.942327 
L 359.783703 98.78925 
L 360.003568 99.33849 
L 360.156545 98.696706 
L 360.366132 99.674829 
L 360.695951 98.987633 
L 361.030356 99.71747 
L 361.070572 100.105246 
L 361.194597 99.136859 
L 361.498968 99.421445 
L 361.702593 99.515917 
L 362.025558 100.070976 
L 362.273976 99.816133 
L 362.398408 99.288295 
L 362.814933 99.396005 
L 362.854919 100.135327 
L 363.106715 100.021853 
L 363.275235 100.073796 
L 363.602606 99.793718 
L 363.768202 99.860229 
L 363.939195 99.733916 
L 364.150577 100.144684 
L 364.273641 99.682466 
L 364.445173 99.842663 
L 364.610802 99.4032 
L 364.780534 99.991306 
L 365.149659 100.269104 
L 365.277996 99.994645 
L 365.483121 100.600496 
L 365.693161 98.936996 
L 365.855104 100.472932 
L 366.032869 100.961962 
L 366.188117 99.804832 
L 366.482734 99.918172 
L 366.519435 100.179137 
L 366.976192 100.019554 
L 367.185628 100.401503 
L 367.52992 100.393075 
L 367.74185 100.250199 
L 367.890856 100.549194 
L 368.069412 100.15102 
L 368.389692 100.964206 
L 368.556487 99.57739 
L 368.77355 100.895294 
L 369.054915 99.885416 
L 369.097542 100.493553 
L 369.261187 100.039491 
L 369.717568 100.652944 
L 369.809147 99.996322 
L 369.939491 100.913703 
L 370.18811 99.614259 
L 370.495833 100.5973 
L 370.654645 100.902095 
L 370.821023 100.808664 
L 370.98985 101.139675 
L 371.241892 100.057488 
L 371.352999 100.766201 
L 371.518107 100.767289 
L 371.766469 100.599181 
L 371.895995 101.283401 
L 372.018108 100.58125 
L 372.223325 100.926494 
L 372.764978 100.484509 
L 373.068831 101.144637 
L 373.396931 101.303561 
L 373.800147 104.441228 
L 373.926978 102.674434 
L 374.092259 103.374529 
L 374.270184 103.083908 
L 374.464896 103.306764 
L 374.797878 102.426922 
L 374.967332 102.396354 
L 375.338508 101.091663 
L 375.461779 100.875296 
L 375.766989 100.889209 
L 375.927844 101.096952 
L 376.168486 100.929732 
L 376.368385 101.114364 
L 376.54214 101.111988 
L 376.915065 101.210058 
L 378.910558 101.164716 
L 379.871843 101.159728 
L 379.954105 100.93738 
L 380.126978 101.162806 
L 380.623908 101.179601 
L 382.70284 101.022552 
L 382.865877 101.297585 
L 383.197255 101.164887 
L 383.548285 101.200796 
L 389.598518 101.166003 
L 394.205611 101.168352 
L 415.034266 101.1686 
L 426.71952 101.168107 
L 426.71952 101.168107 
" clip-path="url(#p25188be367)" style="fill: none; stroke: #0000ff; stroke-opacity: 0.5; stroke-width: 1.75; stroke-linecap: square"/>
   </g>
   <g id="line2d_32">
    <path d="M 38.502813 100.997764 
L 38.586372 100.656071 
L 38.755356 101.584456 
L 38.804889 100.508314 
L 38.925958 100.413116 
L 39.138881 101.483477 
L 39.341015 101.327621 
L 39.465054 101.829284 
L 39.921427 100.907897 
L 39.962962 101.724447 
L 40.253316 101.546458 
L 40.502338 101.633406 
L 40.629228 101.493139 
L 40.959149 101.759616 
L 40.999568 101.355964 
L 41.165207 101.041314 
L 41.581581 101.849182 
L 41.745801 100.795887 
L 41.963998 101.791829 
L 42.03648 100.977897 
L 42.202052 102.077008 
L 42.536733 100.959001 
L 42.744351 101.129051 
L 42.907635 101.90067 
L 43.073346 101.575586 
L 43.281243 100.741102 
L 43.619341 101.357271 
L 43.840433 102.238854 
L 43.947639 100.970863 
L 44.113335 101.518285 
L 44.279421 101.295569 
L 44.570921 102.480067 
L 44.696674 101.925503 
L 44.777286 102.363001 
L 44.947605 102.429467 
L 45.11271 102.26648 
L 45.280153 102.788554 
L 45.483826 102.506629 
L 45.903891 102.764787 
L 46.80912 102.79692 
L 47.717034 102.301515 
L 48.624371 101.494619 
L 49.532758 101.519691 
L 50.440343 101.78071 
L 51.431258 102.201346 
L 52.421423 101.806893 
L 53.329477 102.627295 
L 53.427299 102.240597 
L 53.592495 102.843387 
L 53.924577 102.702807 
L 54.131233 102.210841 
L 54.339744 100.543968 
L 54.629176 102.212952 
L 54.757348 100.978665 
L 54.923122 101.54453 
L 55.131559 101.615034 
L 55.295037 99.972723 
L 55.501873 100.8852 
L 55.627036 102.474538 
L 56.000476 102.073699 
L 56.13528 102.104986 
L 56.333064 101.321473 
L 56.538774 101.649866 
L 56.746749 102.584509 
L 56.829666 101.766826 
L 56.995956 102.970656 
L 57.162972 102.565779 
L 57.380299 101.013127 
L 57.708895 102.499176 
L 57.909483 101.482185 
L 58.035666 102.130036 
L 58.243276 102.173364 
L 58.40757 100.892684 
L 58.617422 102.134811 
L 58.738834 102.047642 
L 58.906011 101.471263 
L 59.112035 101.368346 
L 59.57008 100.078669 
L 59.734499 99.353636 
L 60.149775 102.092945 
L 60.482862 100.029248 
L 60.780423 101.484174 
L 60.985313 100.683646 
L 61.31567 101.873338 
L 61.399524 103.518509 
L 62.061554 100.846855 
L 62.228562 102.396187 
L 62.352275 102.500592 
L 63.016444 101.416212 
L 63.057464 100.738798 
L 63.38946 101.091007 
L 63.555706 102.237845 
L 63.762615 102.367737 
L 63.969792 100.918478 
L 64.138491 100.810562 
L 64.426358 101.776665 
L 64.924123 102.081646 
L 65.133243 101.872644 
L 65.296761 100.323417 
L 65.433672 100.594867 
L 65.629405 102.03568 
L 66.001911 100.53183 
L 66.12709 101.418514 
L 66.292234 101.288619 
L 66.666937 100.662284 
L 66.831905 100.912686 
L 66.998738 102.106099 
L 67.329425 100.52087 
L 67.712556 102.09936 
L 68.035141 100.507334 
L 68.203445 101.88809 
L 68.532447 102.570671 
L 68.704602 100.558796 
L 68.870271 101.82578 
L 69.19689 100.213953 
L 69.610891 103.022878 
L 69.735185 102.835663 
L 69.900835 100.80543 
L 70.067893 100.27636 
L 70.232949 101.789498 
L 70.442476 101.552203 
L 70.647809 100.409121 
L 71.103606 102.423391 
L 71.435806 101.825351 
L 71.692611 101.700783 
L 72.057258 100.933455 
L 72.306769 103.017599 
L 72.472629 102.239457 
L 72.846086 99.361301 
L 73.011448 99.563166 
L 73.347664 102.180745 
L 73.71742 102.297769 
L 74.008375 101.758325 
L 74.267415 100.688798 
L 74.339542 100.864438 
L 74.387394 101.67759 
L 74.795672 102.875449 
L 75.210143 102.221904 
L 75.500665 101.731962 
L 75.749183 102.180287 
L 75.956217 101.870152 
L 76.247047 100.386637 
L 76.412002 100.157789 
L 76.619711 100.532858 
L 76.758815 101.708016 
L 76.992949 102.47062 
L 77.326234 101.133071 
L 77.699691 103.633161 
L 77.823074 103.604683 
L 78.156673 102.45186 
L 78.430009 102.276508 
L 78.821169 101.004873 
L 78.903987 100.956094 
L 78.988623 102.548831 
L 79.400009 100.483985 
L 79.541804 101.29367 
L 79.743602 103.108412 
L 79.94089 103.788832 
L 80.229943 101.126966 
L 80.610261 102.493025 
L 80.818879 101.474415 
L 80.99713 101.399447 
L 81.146019 102.498057 
L 81.560211 103.261479 
L 81.654305 101.396078 
L 82.588081 100.862012 
L 83.490609 101.366825 
L 84.484611 100.696281 
L 84.66477 97.564027 
L 85.082764 99.837359 
L 85.245405 101.675796 
L 85.508625 103.159913 
L 85.675042 103.126624 
L 85.941665 101.537087 
L 86.057746 101.401203 
L 86.220877 101.697915 
L 86.637062 103.145723 
L 86.760071 103.050587 
L 86.968483 101.383127 
L 87.095991 99.31422 
L 87.299607 98.020549 
L 87.48207 98.519862 
L 87.881858 102.832981 
L 87.964585 103.577036 
L 88.379231 100.21796 
L 88.506917 99.038031 
L 88.631045 99.451751 
L 88.977442 101.995433 
L 89.143635 101.841085 
L 89.506136 99.723863 
L 89.671525 100.639976 
L 90.006064 103.845512 
L 90.188339 103.892359 
L 90.558863 102.96453 
L 90.709146 102.067438 
L 90.881089 102.604083 
L 91.093336 102.685664 
L 91.404457 98.956692 
L 91.642758 98.02967 
L 91.942447 100.600554 
L 92.376081 102.002819 
L 92.63124 99.707521 
L 92.750864 100.664839 
L 92.964533 101.238643 
L 93.20664 101.20804 
L 93.289089 101.586308 
L 93.454909 101.639052 
L 93.828095 101.154743 
L 93.954799 101.385339 
L 94.337513 102.951994 
L 94.456954 102.611272 
L 94.708442 102.519168 
L 95.078358 103.978355 
L 95.410511 101.525299 
L 95.624723 101.157795 
L 95.700833 102.779248 
L 95.844986 102.917645 
L 96.033529 101.263782 
L 96.200006 100.786521 
L 96.533178 102.741939 
L 96.698446 102.614826 
L 97.028904 102.743263 
L 97.074634 103.42751 
L 97.245392 102.913157 
L 97.401903 101.048068 
L 97.699946 100.266496 
L 97.775202 101.639136 
L 97.982493 101.838823 
L 98.233138 100.362449 
L 98.438057 100.484084 
L 98.646014 99.853447 
L 98.77191 99.052122 
L 98.97864 99.091202 
L 99.278061 101.103161 
L 99.649089 99.745631 
L 99.975938 100.216221 
L 100.349394 99.505684 
L 100.598244 99.700826 
L 100.84697 101.307944 
L 101.096004 101.4736 
L 101.17921 101.271602 
L 101.966145 101.663083 
L 102.051522 102.123183 
L 102.216377 102.001695 
L 102.547567 100.956239 
L 102.713209 101.009091 
L 102.921276 101.67622 
L 103.12737 101.693323 
L 103.419261 101.231821 
L 103.920257 102.161696 
L 104.303186 103.076293 
L 104.664595 101.159481 
L 104.976665 103.614589 
L 105.133516 103.17808 
L 105.466524 99.847504 
L 105.84727 101.854757 
L 106.169076 100.198977 
L 106.543079 101.914144 
L 106.958774 100.494542 
L 107.130818 101.239621 
L 107.3753 102.962953 
L 107.537976 102.292314 
L 107.747893 101.910351 
L 108.04783 102.987055 
L 108.297433 102.933038 
L 108.449944 102.345504 
L 108.659045 102.278305 
L 108.782339 101.929426 
L 109.031304 101.79462 
L 109.114869 101.451293 
L 109.280227 101.433105 
L 109.448473 101.208039 
L 109.623216 100.612398 
L 109.946682 97.530293 
L 110.288654 98.056331 
L 110.456049 102.10052 
L 110.662074 102.396745 
L 110.994486 101.202356 
L 111.159567 101.484523 
L 111.662038 104.485723 
L 111.989816 103.163048 
L 112.196663 100.374271 
L 112.362925 100.87288 
L 112.698424 103.315056 
L 112.859922 103.373895 
L 113.321516 100.766525 
L 113.776225 103.543267 
L 114.2706 100.141105 
L 114.891575 102.31857 
L 115.099502 101.166597 
L 115.431779 101.274738 
L 115.638632 101.614096 
L 116.095338 99.973502 
L 116.137027 98.551935 
L 116.385323 98.618103 
L 116.468387 100.19375 
L 116.716859 102.020673 
L 117.25945 100.209405 
L 117.545031 102.348704 
L 117.710841 102.717014 
L 118.045006 101.699472 
L 118.084294 100.969568 
L 118.293001 100.060331 
L 118.376952 100.35815 
L 118.541457 102.008642 
L 118.802157 103.206014 
L 119.079652 100.751036 
L 119.286983 101.013862 
L 119.576937 103.303115 
L 119.785263 103.854376 
L 119.951768 103.281578 
L 120.201611 101.533397 
L 120.286958 99.765076 
L 120.449973 99.471597 
L 120.988512 103.579856 
L 121.115126 103.032793 
L 121.445842 100.716578 
L 121.693199 100.342046 
L 122.15039 102.967258 
L 122.688828 98.457321 
L 122.899286 98.399399 
L 123.186902 101.940968 
L 123.476608 103.462253 
L 123.561563 102.974426 
L 123.729163 101.098463 
L 123.891834 100.815535 
L 124.225808 103.643665 
L 124.398906 103.854959 
L 124.559032 103.314689 
L 124.93016 100.185965 
L 125.098314 99.839562 
L 125.593972 103.366705 
L 125.933591 100.269919 
L 126.091208 100.81444 
L 126.505673 101.347274 
L 126.672368 100.982891 
L 126.962461 98.601987 
L 127.129093 98.527577 
L 127.542028 100.637095 
L 127.666319 100.399872 
L 127.832088 99.310831 
L 128.039652 99.821697 
L 128.205745 101.505981 
L 128.413767 102.252827 
L 128.703848 102.263849 
L 128.870071 102.075934 
L 129.201434 102.548781 
L 129.408601 102.408577 
L 129.906815 101.529507 
L 130.239123 102.415685 
L 130.864623 101.085172 
L 130.985567 101.497871 
L 131.311491 101.900423 
L 131.48284 101.832448 
L 131.649393 101.931681 
L 131.777138 101.108852 
L 131.961904 100.683323 
L 132.312427 102.420244 
L 132.568539 102.263237 
L 132.645334 100.738333 
L 132.882257 101.019653 
L 132.990985 102.7965 
L 133.144877 102.444331 
L 133.519284 101.025486 
L 133.84946 103.595879 
L 134.015471 103.085592 
L 134.223187 101.652171 
L 134.56689 102.726119 
L 134.893828 100.693716 
L 135.093566 101.44606 
L 135.385075 103.524499 
L 135.632363 102.793537 
L 135.922919 101.55369 
L 136.266318 101.45861 
L 136.627928 104.19033 
L 136.918521 104.17197 
L 137.332428 100.397029 
L 137.64509 103.129744 
L 137.807284 102.56618 
L 137.973145 101.374197 
L 138.1409 101.150252 
L 138.304691 101.251071 
L 138.554916 100.764354 
L 138.802793 100.582983 
L 139.179931 101.789392 
L 139.524878 102.049009 
L 139.735136 101.515719 
L 139.898516 100.731464 
L 140.063941 100.940229 
L 140.332368 101.519532 
L 140.398704 102.019093 
L 140.574233 101.303638 
L 140.977349 98.757248 
L 141.434008 102.206355 
L 141.765256 100.138021 
L 142.843209 102.073686 
L 143.132982 102.197539 
L 143.63131 101.765127 
L 143.796412 101.295644 
L 144.170493 103.829992 
L 144.376725 102.963786 
L 144.508671 101.336023 
L 144.709156 100.667167 
L 145.25827 105.47112 
L 145.376758 104.979677 
L 145.709214 101.599 
L 145.876184 101.472435 
L 146.041521 102.488589 
L 146.21044 102.539651 
L 146.747304 99.368479 
L 147.326386 100.855541 
L 147.493555 101.967334 
L 147.698753 102.187712 
L 147.78194 101.112087 
L 147.947862 101.116675 
L 148.113469 102.823934 
L 148.320456 103.317376 
L 148.448415 101.489611 
L 148.65207 100.839601 
L 148.984509 102.121995 
L 149.150039 101.337627 
L 149.318724 101.484333 
L 149.484374 103.094891 
L 149.663221 103.671921 
L 149.897468 102.011515 
L 150.066368 102.416227 
L 150.190357 104.010404 
L 150.601677 101.941764 
L 151.061785 104.660759 
L 151.392201 102.164778 
L 151.573428 103.690883 
L 151.732652 103.376193 
L 152.100754 101.721327 
L 152.432337 103.24273 
L 152.680639 103.346989 
L 152.932301 102.845789 
L 153.343857 102.774828 
L 153.634433 102.92818 
L 153.885753 102.859286 
L 154.214287 102.123947 
L 154.381146 101.860334 
L 154.842757 105.389218 
L 155.169045 104.055635 
L 155.350152 104.011878 
L 155.583946 105.50233 
L 155.79104 104.687631 
L 156.205848 100.606196 
L 156.373269 100.659044 
L 156.829139 100.095406 
L 156.917986 100.612994 
L 157.077547 100.60522 
L 157.242865 100.203137 
L 157.540721 100.231032 
L 157.700653 100.838927 
L 157.783791 102.237103 
L 157.950262 102.536464 
L 158.279995 100.87013 
L 158.44686 100.794243 
L 158.611761 100.266677 
L 158.777487 100.238601 
L 159.122653 101.727806 
L 159.441709 101.338803 
L 159.483749 99.661529 
L 159.648926 97.637779 
L 159.81518 96.99591 
L 160.022626 97.968305 
L 160.353977 102.089465 
L 160.479337 102.099004 
L 161.018938 100.171547 
L 161.184162 100.475682 
L 161.557948 102.772042 
L 161.68295 103.112648 
L 161.889294 101.86911 
L 162.055113 99.609603 
L 162.263441 98.518354 
L 162.396259 99.034622 
L 162.760088 103.189282 
L 162.967115 104.384685 
L 163.13347 104.17932 
L 163.423383 102.108897 
L 163.589353 101.09297 
L 163.796938 100.769654 
L 163.92475 100.284423 
L 164.265002 99.724276 
L 164.293978 99.131262 
L 164.543176 98.620905 
L 165.584616 102.424312 
L 165.830019 105.463228 
L 166.162386 106.163731 
L 166.205494 106.67136 
L 166.370355 106.52848 
L 166.703883 104.673524 
L 166.867456 103.590422 
L 167.035704 103.77889 
L 167.248444 39.685634 
L 167.37214 71.200133 
L 167.592103 66.922974 
L 167.740271 51.669029 
L 168.072688 81.871427 
L 168.238021 84.759082 
L 168.942218 125.278028 
L 169.107821 116.9219 
L 169.315652 125.079616 
L 169.442143 138.806333 
L 169.93992 101.859985 
L 169.979168 108.418701 
L 170.476552 93.892074 
L 170.683728 101.998097 
L 171.184495 76.928563 
L 171.390371 83.825063 
L 171.640165 85.975699 
L 172.224076 105.310636 
L 172.390467 92.958421 
L 172.597282 90.924441 
L 172.867074 96.534122 
L 172.890431 110.887856 
L 173.344281 81.179872 
L 173.426692 93.65437 
L 173.965146 71.222946 
L 174.089983 69.232721 
L 174.256107 82.344929 
L 174.421625 71.475706 
L 174.629721 87.274082 
L 174.835794 69.42519 
L 174.960194 83.729037 
L 175.126335 83.415546 
L 175.292269 82.666294 
L 175.512596 89.815022 
L 175.717338 89.61214 
L 175.842435 83.22216 
L 175.966082 85.411972 
L 176.174618 80.063181 
L 176.339554 69.738196 
L 176.547265 66.104299 
L 176.712839 66.890886 
L 176.878337 65.367841 
L 177.086584 65.660057 
L 177.211731 75.726182 
L 177.500898 61.128347 
L 177.542799 70.521939 
L 177.875145 79.720611 
L 178.039763 75.672877 
L 178.206907 81.49799 
L 178.376506 79.797923 
L 178.579448 80.763201 
L 178.706389 88.882442 
L 178.910895 76.75029 
L 179.117783 74.321424 
L 179.24249 74.599737 
L 179.49159 77.086761 
L 179.657205 68.903927 
L 179.782056 74.340914 
L 179.947148 72.719536 
L 180.112916 75.915323 
L 180.528161 76.905202 
L 180.735556 73.578531 
L 180.860072 69.773542 
L 181.066874 71.402501 
L 181.35943 63.685506 
L 181.649551 51.103755 
L 182.168021 62.498342 
L 182.519423 61.787629 
L 182.684974 67.282251 
L 183.005638 64.893664 
L 183.185199 70.452263 
L 183.389727 62.588892 
L 183.556317 60.773713 
L 183.721917 66.792548 
L 183.886987 59.308573 
L 184.052953 59.007928 
L 184.343248 56.398075 
L 184.634012 60.554109 
L 184.846511 44.368526 
L 185.589918 73.095791 
L 185.770503 73.746267 
L 185.963761 68.410186 
L 186.129707 67.801461 
L 186.336448 55.383441 
L 186.462318 55.152899 
L 186.667948 47.600759 
L 186.834352 47.319772 
L 187.041777 55.225872 
L 187.208633 54.684566 
L 187.335181 48.705963 
L 187.705807 64.296967 
L 187.83031 58.761742 
L 188.038914 55.905144 
L 188.535505 73.478813 
L 188.702007 69.229882 
L 188.868699 71.382801 
L 189.033047 65.706385 
L 189.323182 75.452649 
L 189.572243 66.827218 
L 189.614787 78.316456 
L 189.737865 75.207162 
L 189.904158 76.618468 
L 190.070259 73.270707 
L 190.237035 60.648979 
L 190.611255 49.426165 
L 190.817251 31.46335 
L 190.942467 31.738616 
L 191.107627 28.195756 
L 191.356029 28.237958 
L 191.614938 30.956412 
L 191.811547 41.227344 
L 192.019145 37.04187 
L 192.248529 44.002278 
L 192.417055 44.932761 
L 192.518548 40.785647 
L 192.725323 42.043039 
L 192.809655 41.224374 
L 193.016079 32.100261 
L 193.265275 28.281627 
L 193.525223 30.119446 
L 193.641482 28.284324 
L 193.719918 31.104435 
L 193.979383 35.735865 
L 194.056481 34.480143 
L 194.225003 34.551814 
L 194.383236 33.22655 
L 194.548805 38.881935 
L 194.797579 40.078797 
L 194.922159 34.644778 
L 195.212183 37.823127 
L 195.295114 31.669173 
L 195.461043 29.885283 
L 195.586589 24.336613 
L 195.83521 28.309 
L 196.124398 40.069888 
L 196.291833 49.759567 
L 196.748291 39.531443 
L 196.912717 24.058663 
L 196.954617 28.575634 
L 197.119948 28.58286 
L 197.327727 25.703097 
L 197.540592 30.074387 
L 197.700895 30.127373 
L 197.86703 33.539742 
L 198.003553 30.897172 
L 198.239856 31.343453 
L 198.405795 23.782734 
L 198.541309 27.711288 
L 198.697139 38.349381 
L 198.878303 41.528716 
L 199.235536 53.917041 
L 199.483734 50.150335 
L 199.732634 36.684578 
L 200.0651 29.234931 
L 200.230265 31.514607 
L 200.479468 32.97199 
L 200.648575 28.524012 
L 201.433198 47.765763 
L 201.599156 47.002206 
L 201.771257 41.73488 
L 201.972225 47.083977 
L 202.096849 47.347192 
L 202.32375 49.862673 
L 202.497627 47.510492 
L 202.933285 44.87833 
L 203.345358 48.24731 
L 203.591491 48.389642 
L 203.676205 40.940066 
L 203.881319 38.585229 
L 204.010432 32.787001 
L 204.30162 32.282462 
L 204.466335 30.20495 
L 204.544957 34.738398 
L 204.842997 32.082348 
L 204.974216 32.78704 
L 205.211776 46.065579 
L 205.458934 46.546 
L 205.562396 44.920901 
L 205.79286 45.75044 
L 205.958517 41.561421 
L 206.123628 40.865789 
L 206.249665 31.926239 
L 206.579877 32.54654 
L 207.201515 38.909616 
L 207.326492 45.949692 
L 207.533153 44.044247 
L 207.628418 40.07895 
L 207.823123 42.724875 
L 207.989909 28.99927 
L 208.15537 25.715943 
L 208.654127 6.477416 
L 208.819692 8.938925 
L 209.06875 25.300015 
L 209.364106 13.012562 
L 209.694221 28.731183 
L 209.898115 31.213797 
L 210.022111 28.91379 
L 210.190221 43.531451 
L 210.478378 43.312495 
L 210.562104 40.140874 
L 210.72769 43.718214 
L 211.060182 28.743442 
L 211.394521 22.01659 
L 211.572053 30.130156 
L 211.726285 29.360925 
L 212.016167 35.133663 
L 212.102259 34.22544 
L 212.265662 27.680219 
L 212.431349 32.94705 
L 212.597417 30.39311 
L 213.097541 50.984077 
L 213.345276 51.061537 
L 213.635086 53.074269 
L 213.718524 38.386591 
L 213.800791 39.3517 
L 214.091247 27.148926 
L 214.136742 38.290077 
L 214.517147 27.492657 
L 214.645376 35.284659 
L 214.961804 26.994054 
L 215.003774 43.577614 
L 215.169079 46.334642 
L 215.376665 44.712444 
L 215.542481 46.022299 
L 216.043251 58.865287 
L 216.206865 51.791919 
L 216.58419 47.206344 
L 216.745894 34.779159 
L 216.870653 41.191792 
L 217.076131 39.830885 
L 217.242437 45.324141 
L 217.454308 45.674002 
L 217.614932 37.638829 
L 218.073785 43.657521 
L 218.320226 43.021708 
L 218.452737 41.246478 
L 218.652175 49.233576 
L 218.778428 44.662051 
L 219.108845 59.772647 
L 219.27589 61.05347 
L 219.48269 51.77429 
L 219.647945 54.434009 
L 219.813668 54.292339 
L 220.16022 59.576336 
L 220.313743 67.44619 
L 220.561116 60.257425 
L 220.685603 65.099992 
L 220.851507 54.009301 
L 221.028229 54.734513 
L 221.185178 54.199018 
L 221.473407 70.272253 
L 221.556393 68.303787 
L 221.76367 79.815894 
L 221.888417 70.346961 
L 222.13683 74.510871 
L 222.261216 73.455433 
L 222.386698 78.876691 
L 222.551674 68.44796 
L 222.75861 70.880564 
L 222.900334 66.84231 
L 223.095895 69.852846 
L 223.506579 60.13033 
L 223.631297 62.060609 
L 223.879809 63.679895 
L 224.088084 59.270119 
L 224.128783 64.941054 
L 224.294277 70.008472 
L 224.501503 69.019259 
L 224.628545 72.818127 
L 224.87638 72.05769 
L 224.999346 53.486675 
L 225.30129 76.623644 
L 225.760961 80.741473 
L 225.930244 82.605523 
L 226.047075 91.492178 
L 226.207896 80.478479 
L 226.374016 94.714229 
L 226.583675 89.695571 
L 226.755858 89.740989 
L 227.012404 87.758915 
L 227.342758 82.777087 
L 227.392505 77.507985 
L 227.592455 82.993643 
L 227.758081 71.341712 
L 227.883821 85.082206 
L 228.131341 83.914091 
L 228.512468 94.595291 
L 228.630703 82.343109 
L 228.795006 87.363986 
L 229.043821 104.445347 
L 229.13178 100.080328 
L 229.292654 101.213341 
L 229.541201 100.156781 
L 229.626368 14.574025 
L 230.038834 41.884698 
L 230.338196 124.605803 
L 230.577786 136.511186 
L 230.662431 154.80423 
L 230.82737 161.671997 
L 231.035274 176.42716 
L 231.283205 180.874271 
L 231.577432 169.172473 
L 231.798122 155.984233 
L 231.880109 158.808968 
L 232.04936 127.993342 
L 232.258259 121.714548 
L 232.337894 97.655564 
L 232.999197 70.631356 
L 233.082376 70.533276 
L 233.206972 69.181275 
L 233.624338 87.569558 
L 233.999199 91.112281 
L 234.080582 104.40672 
L 234.286248 103.730787 
L 234.576824 115.726425 
L 234.783175 113.763119 
L 234.950203 104.289523 
L 235.11523 104.962666 
L 235.450774 88.044221 
L 235.655156 94.923834 
L 235.988508 86.60491 
L 236.151866 88.827444 
L 236.651736 107.564111 
L 236.817354 107.38303 
L 237.189713 114.730695 
L 237.482227 112.650081 
L 237.527784 116.714939 
L 237.895417 99.720493 
L 238.2678 90.82215 
L 238.392143 83.490811 
L 238.558722 87.623441 
L 238.892169 82.988473 
L 239.115918 90.000526 
L 239.387212 90.721985 
L 239.428711 99.359208 
L 239.928434 109.483041 
L 240.092821 110.535401 
L 240.259079 119.238876 
L 240.466943 108.002376 
L 240.729629 109.566917 
L 240.963756 95.063295 
L 241.128739 101.32524 
L 241.502199 93.128389 
L 241.710003 94.082302 
L 241.835474 92.340261 
L 242.041257 97.077549 
L 242.218911 95.423709 
L 242.55692 106.796791 
L 242.710371 104.404195 
L 242.87028 104.81021 
L 243.036737 103.84685 
L 243.201958 99.092175 
L 243.409889 98.918085 
L 243.742776 89.940532 
L 243.908832 92.453746 
L 244.246002 87.202608 
L 244.619322 97.79854 
L 244.800421 99.993534 
L 245.111215 106.627026 
L 245.278198 107.138846 
L 245.460656 111.509889 
L 245.6088 118.155456 
L 245.774819 118.363333 
L 245.941777 116.343445 
L 246.106994 109.420426 
L 246.396875 107.668047 
L 246.813778 97.265979 
L 246.983913 102.02174 
L 247.250664 92.308269 
L 247.329504 98.832856 
L 247.528581 98.913293 
L 247.561323 99.504418 
L 247.769858 108.627834 
L 247.852662 104.378468 
L 248.224944 107.56465 
L 248.348878 107.854232 
L 248.556392 109.153975 
L 248.763845 100.197077 
L 248.88818 101.632541 
L 249.054 99.943208 
L 249.22004 95.477807 
L 249.386714 95.233492 
L 249.596948 88.718498 
L 249.718457 88.54959 
L 250.066819 96.382947 
L 250.25687 99.74964 
L 250.506274 98.143783 
L 250.603771 106.58458 
L 250.920532 111.850337 
L 251.210704 111.305563 
L 251.293338 112.632702 
L 251.501144 108.44875 
L 251.792847 100.328187 
L 252.165822 89.825546 
L 252.293748 94.255293 
L 252.496563 88.690346 
L 252.706411 88.837685 
L 252.871106 94.717522 
L 252.99455 88.703462 
L 253.36734 99.65811 
L 253.864927 106.890016 
L 254.156567 106.059893 
L 254.198387 102.293566 
L 254.542501 98.247395 
L 254.698803 94.189114 
L 254.944477 96.316054 
L 255.317541 89.684321 
L 255.405016 90.218818 
L 255.607942 97.303074 
L 255.815387 90.799227 
L 256.271124 111.347592 
L 256.519706 100.055624 
L 256.645377 107.13176 
L 256.852167 103.525468 
L 257.059435 105.129849 
L 257.308719 96.802584 
L 257.55682 100.834143 
L 257.848371 92.325734 
L 258.13694 94.723439 
L 258.344332 86.577072 
L 258.676182 95.805002 
L 258.883911 99.955452 
L 259.090992 101.641823 
L 259.180042 97.323097 
L 259.390162 102.985328 
L 259.555059 103.033437 
L 259.878695 96.483351 
L 260.170453 95.286656 
L 260.25215 100.282446 
L 260.378588 95.635119 
L 260.925458 90.195681 
L 261.217238 95.099935 
L 261.291853 94.471708 
L 261.457507 95.057065 
L 261.62349 99.870644 
L 261.793777 101.411897 
L 261.9967 101.761717 
L 262.121079 102.540794 
L 262.333093 100.407741 
L 262.501148 96.971159 
L 262.702624 105.648028 
L 262.787279 95.48737 
L 262.963238 98.116359 
L 263.162493 95.534849 
L 263.333761 98.141461 
L 263.698297 93.181561 
L 263.86419 97.394162 
L 264.030171 97.912242 
L 264.230218 95.784163 
L 264.406474 105.28134 
L 264.559477 97.856226 
L 264.697618 99.059819 
L 264.902419 94.234179 
L 265.234129 100.593452 
L 265.39929 100.167716 
L 265.73121 96.723284 
L 265.896843 95.365666 
L 266.104126 103.697864 
L 266.435941 95.98626 
L 266.651561 88.925306 
L 266.812423 94.978538 
L 267.265749 101.480741 
L 267.474411 101.438903 
L 267.637873 97.163869 
L 267.858294 96.695216 
L 267.971726 101.503704 
L 268.181608 95.459756 
L 268.387957 98.321526 
L 268.679162 93.581025 
L 268.807534 94.946394 
L 269.010967 95.617489 
L 269.302164 102.948631 
L 269.38594 94.169923 
L 269.676314 98.69868 
L 269.841292 98.139048 
L 270.047991 94.570404 
L 270.216902 98.979904 
L 270.379728 98.903653 
L 270.545791 99.176054 
L 271.125855 95.018887 
L 271.377489 96.071011 
L 271.498396 95.826506 
L 271.872285 91.173283 
L 271.913154 109.143192 
L 272.165896 99.684949 
L 272.413556 97.204907 
L 272.669632 96.478424 
L 272.784705 98.520898 
L 272.952115 97.68431 
L 273.199024 103.280146 
L 273.324085 103.428982 
L 273.53568 99.370328 
L 273.657953 106.784201 
L 273.82134 98.830972 
L 274.112316 98.884802 
L 274.196583 99.644199 
L 274.321023 92.820138 
L 274.485885 91.772447 
L 274.680553 97.178123 
L 274.859595 96.703823 
L 275.026064 96.885898 
L 275.191841 98.025844 
L 275.398863 93.461818 
L 275.523705 100.183304 
L 275.773336 99.556546 
L 275.93834 103.753138 
L 276.06276 101.434686 
L 276.311749 100.13323 
L 276.394572 95.818443 
L 276.768191 92.550052 
L 276.933694 95.664638 
L 277.182333 97.458954 
L 277.306299 97.390109 
L 277.602201 96.465022 
L 277.762832 98.161841 
L 277.929639 94.748793 
L 278.136501 101.051895 
L 278.260601 100.678371 
L 278.468023 101.544433 
L 278.633894 99.518552 
L 278.799534 93.268634 
L 279.131096 98.072186 
L 279.298515 97.766121 
L 279.587963 96.14776 
L 279.669679 93.22873 
L 279.878463 96.214652 
L 280.084202 95.734774 
L 280.254342 100.097376 
L 280.374434 93.315562 
L 280.664929 99.674314 
L 280.707091 99.656903 
L 280.87328 98.245975 
L 281.162822 97.458547 
L 281.246472 90.07178 
L 281.452269 101.522015 
L 281.577205 98.518515 
L 281.742667 99.997912 
L 281.908955 94.792087 
L 282.115753 96.391471 
L 282.240239 95.780107 
L 282.408575 95.563449 
L 282.613615 95.044731 
L 282.946243 97.746548 
L 283.195056 98.465256 
L 283.277358 95.483003 
L 283.443835 97.205223 
L 283.652216 103.117222 
L 284.147687 96.862617 
L 284.410977 96.421602 
L 284.483738 95.088357 
L 284.645807 98.39392 
L 284.812589 91.331373 
L 285.020143 95.131601 
L 285.146679 97.604272 
L 285.434405 92.342753 
L 285.589971 101.265278 
L 285.683437 97.919664 
L 285.848892 97.581256 
L 286.01473 96.895503 
L 286.387779 96.956157 
L 286.637106 94.376307 
L 286.719907 91.002484 
L 286.927579 92.835913 
L 287.096915 92.99344 
L 287.259239 91.327893 
L 287.717488 97.973314 
L 287.924174 99.472015 
L 288.088619 99.75329 
L 288.254177 95.998377 
L 288.503461 100.241394 
L 288.627545 100.012514 
L 288.793406 102.937829 
L 288.959052 99.81793 
L 289.125201 105.040561 
L 289.333503 104.660027 
L 289.748963 98.99929 
L 289.914395 103.948694 
L 289.9972 92.268545 
L 290.163188 92.787141 
L 290.33018 94.402565 
L 290.500979 89.709484 
L 290.702783 88.061011 
L 291.034183 94.454031 
L 291.242118 94.032062 
L 291.367064 96.950068 
L 291.574797 104.702514 
L 291.698397 95.243485 
L 291.864183 98.579469 
L 292.237578 96.242106 
L 292.370664 102.805349 
L 292.534833 98.218824 
L 292.735873 97.504581 
L 293.069791 100.154351 
L 293.235936 96.578031 
L 293.449229 104.248452 
L 293.607703 97.657186 
L 293.939573 100.440859 
L 294.107757 105.879887 
L 294.273493 99.580384 
L 294.477985 99.734793 
L 294.645483 97.104498 
L 294.851356 98.056657 
L 294.977207 107.284319 
L 295.14194 106.876507 
L 295.30829 99.214999 
L 295.475827 98.978082 
L 295.724217 95.772477 
L 295.849825 104.983195 
L 296.015508 95.741309 
L 296.21135 94.155633 
L 296.43168 94.244883 
L 296.595835 89.101647 
L 296.678688 99.62945 
L 296.845169 101.721617 
L 297.052033 95.810857 
L 297.260455 97.821568 
L 297.385752 100.915184 
L 297.551585 97.374006 
L 297.759453 98.772174 
L 297.882771 97.349074 
L 298.090962 97.117218 
L 298.256243 98.791799 
L 298.422527 89.681362 
L 298.71228 94.16702 
L 298.762909 92.796109 
L 298.96197 94.581242 
L 299.09469 98.01944 
L 299.369096 92.89818 
L 299.458192 100.253699 
L 299.618168 100.016054 
L 299.826935 100.263975 
L 300.075903 101.468749 
L 300.118274 97.701678 
L 300.324699 103.33597 
L 300.658258 98.983723 
L 300.832148 96.872169 
L 301.112921 97.502131 
L 301.154643 96.436473 
L 301.362236 96.471243 
L 301.530843 95.214224 
L 301.698668 98.803257 
L 301.835811 95.015317 
L 302.026745 101.711179 
L 302.567853 99.456818 
L 302.858153 100.031073 
L 302.899353 98.904143 
L 303.065972 101.54752 
L 303.313816 99.922315 
L 303.564915 94.818299 
L 303.729451 92.810916 
L 303.895373 95.898581 
L 304.270338 95.206859 
L 304.434877 100.797489 
L 304.599794 97.552381 
L 304.766122 98.962736 
L 304.973517 99.064655 
L 305.099461 100.697738 
L 305.46998 101.880159 
L 305.475902 53.323417 
L 305.639145 99.595799 
L 305.887001 94.380209 
L 306.012076 95.966338 
L 306.184017 95.592596 
L 306.345573 98.277051 
L 306.593697 97.502882 
L 306.676907 93.07697 
L 306.805438 96.75991 
L 307.008402 98.295233 
L 307.174443 97.517432 
L 307.507939 99.741214 
L 307.799879 106.551972 
L 307.837875 94.679028 
L 308.215475 101.207494 
L 308.378633 102.471024 
L 308.544864 102.627072 
L 308.836812 101.832904 
L 308.923762 98.555784 
L 309.101398 101.419109 
L 309.250121 96.206517 
L 309.422157 96.1698 
L 309.45809 101.222527 
L 309.624294 102.468044 
L 309.790871 96.11627 
L 309.918006 95.546372 
L 310.082723 91.693121 
L 310.288257 91.076971 
L 310.619953 100.625159 
L 310.951654 88.974516 
L 311.118262 89.327273 
L 311.507522 97.176917 
L 311.659303 97.870076 
L 311.823265 139.885259 
L 312.161281 112.636191 
L 312.661092 97.425894 
L 312.841523 84.773216 
L 313.2884 76.119033 
L 313.379178 76.037069 
L 313.577042 78.010949 
L 313.746276 74.315747 
L 313.950077 75.430776 
L 314.033802 74.025596 
L 314.201629 79.006333 
L 314.495707 81.025995 
L 314.578649 92.747724 
L 314.739947 96.787034 
L 314.909075 97.745497 
L 315.166889 102.027459 
L 315.278734 100.875414 
L 315.48951 103.530333 
L 315.652905 103.795376 
L 315.818567 101.703289 
L 316.027603 106.098575 
L 316.194183 93.030854 
L 316.408253 96.530067 
L 316.507943 95.994038 
L 316.613191 98.444403 
L 316.797756 93.158491 
L 316.986216 93.561633 
L 317.20556 89.766262 
L 317.320802 82.966723 
L 317.85523 101.067514 
L 318.0634 101.764839 
L 318.187507 103.783468 
L 318.353457 103.915032 
L 319.100521 94.29389 
L 319.225076 93.527409 
L 319.558885 83.070778 
L 319.841148 89.296904 
L 320.006421 88.020273 
L 320.136768 90.097986 
L 320.297066 79.863058 
L 320.629841 97.153176 
L 320.753858 99.79208 
L 321.085565 97.512057 
L 321.170351 103.095376 
L 321.335238 106.562574 
L 321.708592 94.193679 
L 321.79598 101.228735 
L 322.165521 87.226748 
L 322.331441 86.96644 
L 322.499834 81.727766 
L 322.663992 82.152928 
L 322.833021 86.867374 
L 322.996495 86.627993 
L 323.16259 84.037343 
L 323.335657 91.711024 
L 323.498092 90.069231 
L 323.706095 95.414756 
L 323.836843 94.875938 
L 324.038273 95.743103 
L 324.203811 95.109477 
L 324.370413 88.439786 
L 324.659943 91.824277 
L 324.721012 90.1839 
L 324.909506 94.075173 
L 325.116151 96.036842 
L 325.323389 94.649854 
L 325.448723 99.851705 
L 325.614606 96.545023 
L 325.947257 106.502783 
L 326.238562 112.13399 
L 326.412047 105.090168 
L 326.611344 107.208965 
L 326.78644 103.552586 
L 326.948721 95.418144 
L 327.207242 97.357084 
L 327.32073 91.436247 
L 327.360247 95.007761 
L 327.443537 96.664394 
L 327.669682 97.026234 
L 327.816366 88.619449 
L 328.165571 92.872202 
L 328.32193 97.666922 
L 328.481153 94.057526 
L 328.940757 98.186504 
L 329.072537 101.402153 
L 329.36207 91.635094 
L 329.652278 96.245285 
L 329.694481 94.053723 
L 330.151062 94.718792 
L 330.19387 92.484362 
L 330.481735 85.072947 
L 330.564866 92.001107 
L 330.731867 84.520541 
L 330.896731 84.162637 
L 331.436321 75.222991 
L 331.60623 74.754292 
L 331.643987 76.943811 
L 331.934519 69.905258 
L 332.102296 81.430123 
L 332.308094 83.599563 
L 332.43322 80.624886 
L 332.655635 80.22902 
L 332.767125 82.542881 
L 332.97483 73.854526 
L 333.140408 81.628245 
L 333.309014 80.411182 
L 333.514844 86.539678 
L 333.806007 84.426332 
L 334.14328 91.003504 
L 334.42815 93.569002 
L 334.679608 102.716982 
L 334.859288 103.271332 
L 335.009353 104.530041 
L 335.175884 107.369264 
L 335.555985 99.269329 
L 335.723733 102.474788 
L 335.931453 102.00394 
L 336.261414 94.495607 
L 336.386343 94.240543 
L 336.593826 88.373929 
L 336.759288 87.876285 
L 337.036051 84.19347 
L 337.138595 84.71721 
L 337.261473 76.125862 
L 337.632443 82.150391 
L 337.845969 78.742107 
L 337.964258 83.769733 
L 338.137004 83.540185 
L 338.389539 86.707547 
L 338.463953 90.085394 
L 338.633677 92.282044 
L 338.797148 88.14256 
L 339.010774 90.029895 
L 339.338692 97.265392 
L 339.503594 99.907748 
L 339.674798 99.333546 
L 340.005552 105.346021 
L 340.211833 106.94654 
L 340.417118 105.011157 
L 340.541933 106.110102 
L 340.91533 98.865279 
L 341.073503 97.848956 
L 341.399078 90.785577 
L 341.609234 92.107941 
L 341.737669 80.569688 
L 341.93982 77.725199 
L 342.151599 78.203679 
L 342.273927 71.270419 
L 342.605046 74.273107 
L 342.937427 67.180634 
L 343.102823 68.475607 
L 343.269013 74.848067 
L 343.435661 68.067889 
L 343.725777 70.056982 
L 343.829534 78.366964 
L 344.099723 71.455063 
L 344.182432 76.115045 
L 344.348416 74.259345 
L 344.514318 80.700145 
L 344.721412 78.715529 
L 344.813396 84.356543 
L 344.993925 88.610623 
L 345.181784 85.924282 
L 345.525221 93.649566 
L 345.678126 96.19173 
L 345.845578 106.414707 
L 346.109824 103.458073 
L 346.219824 105.05596 
L 346.383739 97.048562 
L 346.570196 99.886287 
L 346.929406 97.593192 
L 347.13467 91.986411 
L 347.432378 93.91797 
L 347.610518 85.125904 
L 347.812893 86.494002 
L 347.897482 79.357021 
L 348.100811 82.860152 
L 348.308348 84.417216 
L 348.515742 79.822906 
L 348.598891 81.280479 
L 348.806141 78.255618 
L 348.977588 71.550808 
L 349.304427 78.469298 
L 349.47129 77.719717 
L 350.012049 69.335745 
L 350.175789 69.398938 
L 350.34163 66.039244 
L 350.508276 67.651446 
L 350.67893 66.958053 
L 350.841623 68.172001 
L 351.006434 72.46236 
L 351.380226 74.091263 
L 351.547773 82.259635 
L 351.75397 81.165827 
L 351.879123 84.920731 
L 352.127203 88.455181 
L 352.302626 88.612622 
L 352.625981 90.538195 
L 352.791429 88.785624 
L 353.098215 90.949701 
L 353.45844 88.961048 
L 353.662257 92.444487 
L 353.833948 88.080881 
L 353.953568 87.941021 
L 354.121182 90.932637 
L 354.285471 87.114931 
L 354.504945 88.743077 
L 354.629467 85.559441 
L 354.79515 84.719828 
L 355.127769 82.401081 
L 355.169495 74.966601 
L 355.376697 77.493032 
L 355.670175 69.974143 
L 355.832743 68.240133 
L 356.039958 64.176725 
L 356.165537 58.201393 
L 356.373504 60.751997 
L 356.579788 59.960685 
L 356.70401 62.110067 
L 356.914665 62.409698 
L 357.080208 68.038369 
L 357.244975 64.037036 
L 357.577453 74.8574 
L 357.720344 76.249542 
L 358.620771 96.488322 
L 358.787003 95.555858 
L 359.118747 102.96276 
L 359.658684 89.81181 
L 359.783703 92.777293 
L 360.003568 87.990795 
L 360.032147 88.585033 
L 360.156545 89.393813 
L 360.366132 78.629909 
L 360.571805 83.110864 
L 360.695951 83.364434 
L 361.070572 79.541744 
L 361.364832 93.851722 
L 361.702593 99.866911 
L 361.858873 103.046779 
L 362.025558 99.616684 
L 362.273976 100.747158 
L 362.398408 105.513271 
L 362.522582 102.28141 
L 362.814933 105.50576 
L 362.854919 99.587478 
L 363.106715 99.798601 
L 363.275235 96.338929 
L 363.439603 96.330519 
L 363.768202 91.520271 
L 363.939195 92.148689 
L 364.150577 84.920996 
L 364.273641 85.259984 
L 365.149659 66.062988 
L 365.277996 71.63344 
L 365.483121 65.198773 
L 365.693161 77.894546 
L 365.855104 67.415048 
L 366.032869 66.907123 
L 366.188117 79.429746 
L 366.482734 75.44758 
L 366.519435 77.856124 
L 366.685325 75.376227 
L 367.185628 82.318538 
L 367.418265 82.323947 
L 367.52992 83.105397 
L 367.74185 87.06624 
L 367.890856 86.433015 
L 368.223268 94.84923 
L 368.389692 95.599061 
L 368.556487 107.858247 
L 368.77355 98.803194 
L 369.054915 107.72258 
L 369.097542 103.203792 
L 369.261187 105.880495 
L 369.717568 100.824687 
L 369.809147 104.407104 
L 369.939491 100.239388 
L 370.18811 105.936599 
L 370.341599 102.682215 
L 370.495833 102.225164 
L 370.98985 92.698593 
L 371.241892 97.560636 
L 371.352999 90.251201 
L 371.766469 85.971448 
L 371.895995 78.184707 
L 372.018108 78.41409 
L 372.223325 76.383133 
L 372.557244 69.816431 
L 372.764978 73.814467 
L 372.889091 72.29943 
L 373.068831 74.163334 
L 373.396931 79.240232 
L 373.59294 79.758909 
L 373.800147 68.804429 
L 373.926978 83.755469 
L 374.092259 83.363891 
L 374.270184 86.210344 
L 374.464896 83.440852 
L 374.797878 90.009901 
L 374.967332 86.981565 
L 375.138826 92.134729 
L 375.338508 93.979465 
L 375.461779 96.565104 
L 375.766989 98.270516 
L 375.927844 98.285353 
L 376.168486 98.964097 
L 376.915065 79.571238 
L 377.164664 78.639159 
L 377.253625 77.140697 
L 377.454899 76.163166 
L 377.539404 74.985739 
L 377.888539 74.051787 
L 377.966966 74.368596 
L 378.370429 83.593017 
L 378.582937 83.667975 
L 378.910558 81.551008 
L 378.998275 78.560949 
L 379.412032 74.683026 
L 379.537678 74.731265 
L 379.871843 76.568042 
L 379.954105 80.318606 
L 380.126978 81.640173 
L 380.37551 85.782798 
L 380.623908 95.033341 
L 380.913873 99.264945 
L 381.081683 103.381802 
L 381.453239 108.671573 
L 381.579455 107.31844 
L 381.761429 103.712036 
L 382.034838 93.052181 
L 382.865877 65.437502 
L 383.042724 65.708022 
L 383.548285 75.175541 
L 383.950109 84.146004 
L 384.488208 90.629577 
L 384.776513 92.646614 
L 384.99214 92.563777 
L 385.489935 85.97078 
L 385.719534 85.29961 
L 385.815429 85.886601 
L 385.96406 85.164962 
L 386.318328 81.274953 
L 386.521018 78.347524 
L 386.647188 74.789153 
L 388.441189 57.995618 
L 388.683946 57.032153 
L 388.735995 56.194546 
L 388.895941 56.278544 
L 389.062477 57.984461 
L 389.43523 65.98488 
L 389.931527 77.709254 
L 390.303639 82.98187 
L 390.678549 89.755471 
L 391.010809 93.050379 
L 391.314183 93.785096 
L 391.799805 105.570979 
L 391.974433 106.79887 
L 392.131017 106.899551 
L 392.339462 105.040173 
L 392.670483 97.434681 
L 393.377185 76.996755 
L 394.054023 65.812125 
L 394.205611 65.398597 
L 394.496563 66.901903 
L 394.711536 70.181121 
L 395.132427 71.964432 
L 395.417503 70.985571 
L 395.782204 70.819949 
L 396.032765 70.926305 
L 396.116938 70.540676 
L 396.321821 70.867697 
L 396.61471 72.033133 
L 396.823368 73.574885 
L 397.833794 89.360339 
L 398.300129 92.955844 
L 398.705237 95.282751 
L 398.871829 96.349352 
L 399.124748 96.965442 
L 399.213256 97.868854 
L 399.555667 98.955092 
L 399.632994 98.588531 
L 401.107522 65.711415 
L 401.271544 64.707214 
L 401.649446 65.898054 
L 402.149096 71.825626 
L 402.821856 89.984458 
L 403.028644 89.540294 
L 403.787656 81.913642 
L 403.872146 78.080023 
L 404.236486 72.241528 
L 404.360921 72.770898 
L 405.437728 88.817016 
L 405.605067 89.388518 
L 405.787388 88.490252 
L 406.059764 85.986484 
L 406.26954 78.455185 
L 406.93591 63.783125 
L 407.142439 64.721702 
L 407.352931 67.292425 
L 407.972272 81.907137 
L 408.162542 83.108277 
L 408.406109 85.446084 
L 408.487228 89.930534 
L 408.865419 95.97529 
L 409.03928 96.360844 
L 409.193631 94.755996 
L 409.693258 86.467751 
L 410.032881 90.600601 
L 410.231789 89.563201 
L 410.606602 83.528115 
L 410.858541 82.891945 
L 411.104545 87.314449 
L 411.273016 89.716843 
L 411.519697 89.606097 
L 411.739035 82.845381 
L 411.944933 83.393725 
L 412.113696 86.195673 
L 412.320625 86.663811 
L 412.650406 80.206853 
L 412.900331 78.097331 
L 413.025363 79.489024 
L 413.522448 88.571405 
L 413.812511 81.584288 
L 414.061829 80.057751 
L 414.353743 86.948172 
L 414.578213 87.071791 
L 414.87048 82.195474 
L 415.034266 82.268477 
L 415.538946 85.487452 
L 415.902317 83.962778 
L 416.068472 84.723048 
L 416.40005 87.823063 
L 416.651214 87.152878 
L 416.745843 85.50809 
L 416.9404 85.349179 
L 417.52143 89.744338 
L 418.104214 76.82321 
L 418.268312 76.737335 
L 418.64112 81.050084 
L 418.994337 76.018938 
L 419.158762 75.798448 
L 419.264449 77.685646 
L 419.517186 86.789192 
L 419.843127 92.504972 
L 420.100589 90.296454 
L 420.218695 87.136678 
L 420.550342 84.097952 
L 421.048365 86.475131 
L 421.422194 81.418337 
L 421.58873 81.947632 
L 421.879741 84.563144 
L 421.925439 86.477486 
L 422.090896 87.438872 
L 422.335312 86.989228 
L 422.431601 85.940963 
L 422.588032 85.849794 
L 422.959297 84.515844 
L 423.33962 85.450846 
L 423.545812 84.101452 
L 423.711812 81.816573 
L 424.00377 88.056126 
L 424.251177 86.951483 
L 424.4582 85.4772 
L 424.625419 85.693765 
L 424.831484 85.039256 
L 425.163008 85.78409 
L 425.333239 87.227576 
L 425.578756 87.200074 
L 425.703158 86.735122 
L 426.035878 84.387275 
L 426.214218 84.667534 
L 426.366406 85.731144 
L 426.71952 84.61147 
L 426.71952 84.61147 
" clip-path="url(#p25188be367)" style="fill: none; stroke: #ff0000; stroke-opacity: 0.5; stroke-width: 1.75; stroke-linecap: square"/>
   </g>
   <g id="patch_3">
    <path d="M 38.502813 184.362208 
L 38.502813 2.989479 
" style="fill: none; stroke: #000000; stroke-width: 0.8; stroke-linejoin: miter; stroke-linecap: square"/>
   </g>
   <g id="patch_4">
    <path d="M 426.71952 184.362208 
L 426.71952 2.989479 
" style="fill: none; stroke: #000000; stroke-width: 0.8; stroke-linejoin: miter; stroke-linecap: square"/>
   </g>
   <g id="patch_5">
    <path d="M 38.502813 184.362208 
L 426.71952 184.362208 
" style="fill: none; stroke: #000000; stroke-width: 0.8; stroke-linejoin: miter; stroke-linecap: square"/>
   </g>
   <g id="patch_6">
    <path d="M 38.502813 2.989479 
L 426.71952 2.989479 
" style="fill: none; stroke: #000000; stroke-width: 0.8; stroke-linejoin: miter; stroke-linecap: square"/>
   </g>
   <g id="legend_1">
    <g id="patch_7">
     <path d="M 345.95077 40.345729 
L 419.71952 40.345729 
Q 421.71952 40.345729 421.71952 38.345729 
L 421.71952 9.989479 
Q 421.71952 7.989479 419.71952 7.989479 
L 345.95077 7.989479 
Q 343.95077 7.989479 343.95077 9.989479 
L 343.95077 38.345729 
Q 343.95077 40.345729 345.95077 40.345729 
z
" style="fill: #ffffff; opacity: 0.8; stroke: #cccccc; stroke-linejoin: miter"/>
    </g>
    <g id="line2d_33">
     <path d="M 347.95077 16.087916 
L 357.95077 16.087916 
L 367.95077 16.087916 
" style="fill: none; stroke: #0000ff; stroke-opacity: 0.5; stroke-width: 1.75; stroke-linecap: square"/>
    </g>
    <g id="text_18">
     <!-- RNEA -->
     <g transform="translate(375.95077 19.587916) scale(0.1 -0.1)">
      <defs>
       <path id="DejaVuSans-52" d="M 2841 2188 
Q 3044 2119 3236 1894 
Q 3428 1669 3622 1275 
L 4263 0 
L 3584 0 
L 2988 1197 
Q 2756 1666 2539 1819 
Q 2322 1972 1947 1972 
L 1259 1972 
L 1259 0 
L 628 0 
L 628 4666 
L 2053 4666 
Q 2853 4666 3247 4331 
Q 3641 3997 3641 3322 
Q 3641 2881 3436 2590 
Q 3231 2300 2841 2188 
z
M 1259 4147 
L 1259 2491 
L 2053 2491 
Q 2509 2491 2742 2702 
Q 2975 2913 2975 3322 
Q 2975 3731 2742 3939 
Q 2509 4147 2053 4147 
L 1259 4147 
z
" transform="scale(0.015625)"/>
       <path id="DejaVuSans-45" d="M 628 4666 
L 3578 4666 
L 3578 4134 
L 1259 4134 
L 1259 2753 
L 3481 2753 
L 3481 2222 
L 1259 2222 
L 1259 531 
L 3634 531 
L 3634 0 
L 628 0 
L 628 4666 
z
" transform="scale(0.015625)"/>
       <path id="DejaVuSans-41" d="M 2188 4044 
L 1331 1722 
L 3047 1722 
L 2188 4044 
z
M 1831 4666 
L 2547 4666 
L 4325 0 
L 3669 0 
L 3244 1197 
L 1141 1197 
L 716 0 
L 50 0 
L 1831 4666 
z
" transform="scale(0.015625)"/>
      </defs>
      <use xlink:href="#DejaVuSans-52"/>
      <use xlink:href="#DejaVuSans-4e" x="69.482422"/>
      <use xlink:href="#DejaVuSans-45" x="144.287109"/>
      <use xlink:href="#DejaVuSans-41" x="207.470703"/>
     </g>
    </g>
    <g id="line2d_34">
     <path d="M 347.95077 30.766041 
L 357.95077 30.766041 
L 367.95077 30.766041 
" style="fill: none; stroke: #ff0000; stroke-opacity: 0.5; stroke-width: 1.75; stroke-linecap: square"/>
    </g>
    <g id="text_19">
     <!-- BURNEA -->
     <g transform="translate(375.95077 34.266041) scale(0.1 -0.1)">
      <defs>
       <path id="DejaVuSans-42" d="M 1259 2228 
L 1259 519 
L 2272 519 
Q 2781 519 3026 730 
Q 3272 941 3272 1375 
Q 3272 1813 3026 2020 
Q 2781 2228 2272 2228 
L 1259 2228 
z
M 1259 4147 
L 1259 2741 
L 2194 2741 
Q 2656 2741 2882 2914 
Q 3109 3088 3109 3444 
Q 3109 3797 2882 3972 
Q 2656 4147 2194 4147 
L 1259 4147 
z
M 628 4666 
L 2241 4666 
Q 2963 4666 3353 4366 
Q 3744 4066 3744 3513 
Q 3744 3084 3544 2831 
Q 3344 2578 2956 2516 
Q 3422 2416 3680 2098 
Q 3938 1781 3938 1306 
Q 3938 681 3513 340 
Q 3088 0 2303 0 
L 628 0 
L 628 4666 
z
" transform="scale(0.015625)"/>
       <path id="DejaVuSans-55" d="M 556 4666 
L 1191 4666 
L 1191 1831 
Q 1191 1081 1462 751 
Q 1734 422 2344 422 
Q 2950 422 3222 751 
Q 3494 1081 3494 1831 
L 3494 4666 
L 4128 4666 
L 4128 1753 
Q 4128 841 3676 375 
Q 3225 -91 2344 -91 
Q 1459 -91 1007 375 
Q 556 841 556 1753 
L 556 4666 
z
" transform="scale(0.015625)"/>
      </defs>
      <use xlink:href="#DejaVuSans-42"/>
      <use xlink:href="#DejaVuSans-55" x="68.603516"/>
      <use xlink:href="#DejaVuSans-52" x="141.796875"/>
      <use xlink:href="#DejaVuSans-4e" x="211.279297"/>
      <use xlink:href="#DejaVuSans-45" x="286.083984"/>
      <use xlink:href="#DejaVuSans-41" x="349.267578"/>
     </g>
    </g>
   </g>
  </g>
 </g>
 <defs>
  <clipPath id="p25188be367">
   <rect x="38.502813" y="2.989479" width="388.216708" height="181.37273"/>
  </clipPath>
 </defs>
</svg>
