<?xml version="1.0" encoding="utf-8" standalone="no"?>
<!DOCTYPE svg PUBLIC "-//W3C//DTD SVG 1.1//EN"
  "http://www.w3.org/Graphics/SVG/1.1/DTD/svg11.dtd">
<svg xmlns:xlink="http://www.w3.org/1999/xlink" width="427.43952pt" height="211.43952pt" viewBox="0 0 427.43952 211.43952" xmlns="http://www.w3.org/2000/svg" version="1.1">
 <metadata>
  <rdf:RDF xmlns:dc="http://purl.org/dc/elements/1.1/" xmlns:cc="http://creativecommons.org/ns#" xmlns:rdf="http://www.w3.org/1999/02/22-rdf-syntax-ns#">
   <cc:Work>
    <dc:type rdf:resource="http://purl.org/dc/dcmitype/StillImage"/>
    <dc:date>2023-09-09T18:28:56.067064</dc:date>
    <dc:format>image/svg+xml</dc:format>
    <dc:creator>
     <cc:Agent>
      <dc:title>Matplotlib v3.7.2, https://matplotlib.org/</dc:title>
     </cc:Agent>
    </dc:creator>
   </cc:Work>
  </rdf:RDF>
 </metadata>
 <defs>
  <style type="text/css">*{stroke-linejoin: round; stroke-linecap: butt}</style>
 </defs>
 <g id="figure_1">
  <g id="patch_1">
   <path d="M 0 211.43952 
L 427.43952 211.43952 
L 427.43952 0 
L 0 0 
L 0 211.43952 
z
" style="fill: none"/>
  </g>
  <g id="axes_1">
   <g id="patch_2">
    <path d="M 32.140313 184.36327 
L 426.71952 184.36327 
L 426.71952 0.72 
L 32.140313 0.72 
L 32.140313 184.36327 
z
" style="fill: none"/>
   </g>
   <g id="matplotlib.axis_1">
    <g id="xtick_1">
     <g id="line2d_1">
      <path d="M 32.140313 184.36327 
L 32.140313 0.72 
" clip-path="url(#p2c857799aa)" style="fill: none; stroke-dasharray: 0.8,1.32; stroke-dashoffset: 0; stroke: #000000; stroke-opacity: 0.5; stroke-width: 0.8"/>
     </g>
     <g id="line2d_2">
      <defs>
       <path id="maa4790a494" d="M 0 0 
L 0 3.5 
" style="stroke: #000000; stroke-width: 0.8"/>
      </defs>
      <g>
       <use xlink:href="#maa4790a494" x="32.140313" y="184.36327" style="stroke: #000000; stroke-width: 0.8"/>
      </g>
     </g>
     <g id="text_1">
      <!-- 0.0 -->
      <g transform="translate(24.18875 198.961707) scale(0.1 -0.1)">
       <defs>
        <path id="DejaVuSans-30" d="M 2034 4250 
Q 1547 4250 1301 3770 
Q 1056 3291 1056 2328 
Q 1056 1369 1301 889 
Q 1547 409 2034 409 
Q 2525 409 2770 889 
Q 3016 1369 3016 2328 
Q 3016 3291 2770 3770 
Q 2525 4250 2034 4250 
z
M 2034 4750 
Q 2819 4750 3233 4129 
Q 3647 3509 3647 2328 
Q 3647 1150 3233 529 
Q 2819 -91 2034 -91 
Q 1250 -91 836 529 
Q 422 1150 422 2328 
Q 422 3509 836 4129 
Q 1250 4750 2034 4750 
z
" transform="scale(0.015625)"/>
        <path id="DejaVuSans-2e" d="M 684 794 
L 1344 794 
L 1344 0 
L 684 0 
L 684 794 
z
" transform="scale(0.015625)"/>
       </defs>
       <use xlink:href="#DejaVuSans-30"/>
       <use xlink:href="#DejaVuSans-2e" x="63.623047"/>
       <use xlink:href="#DejaVuSans-30" x="95.410156"/>
      </g>
     </g>
    </g>
    <g id="xtick_2">
     <g id="line2d_3">
      <path d="M 84.575028 184.36327 
L 84.575028 0.72 
" clip-path="url(#p2c857799aa)" style="fill: none; stroke-dasharray: 0.8,1.32; stroke-dashoffset: 0; stroke: #000000; stroke-opacity: 0.5; stroke-width: 0.8"/>
     </g>
     <g id="line2d_4">
      <g>
       <use xlink:href="#maa4790a494" x="84.575028" y="184.36327" style="stroke: #000000; stroke-width: 0.8"/>
      </g>
     </g>
     <g id="text_2">
      <!-- 2.5 -->
      <g transform="translate(76.623465 198.961707) scale(0.1 -0.1)">
       <defs>
        <path id="DejaVuSans-32" d="M 1228 531 
L 3431 531 
L 3431 0 
L 469 0 
L 469 531 
Q 828 903 1448 1529 
Q 2069 2156 2228 2338 
Q 2531 2678 2651 2914 
Q 2772 3150 2772 3378 
Q 2772 3750 2511 3984 
Q 2250 4219 1831 4219 
Q 1534 4219 1204 4116 
Q 875 4013 500 3803 
L 500 4441 
Q 881 4594 1212 4672 
Q 1544 4750 1819 4750 
Q 2544 4750 2975 4387 
Q 3406 4025 3406 3419 
Q 3406 3131 3298 2873 
Q 3191 2616 2906 2266 
Q 2828 2175 2409 1742 
Q 1991 1309 1228 531 
z
" transform="scale(0.015625)"/>
        <path id="DejaVuSans-35" d="M 691 4666 
L 3169 4666 
L 3169 4134 
L 1269 4134 
L 1269 2991 
Q 1406 3038 1543 3061 
Q 1681 3084 1819 3084 
Q 2600 3084 3056 2656 
Q 3513 2228 3513 1497 
Q 3513 744 3044 326 
Q 2575 -91 1722 -91 
Q 1428 -91 1123 -41 
Q 819 9 494 109 
L 494 744 
Q 775 591 1075 516 
Q 1375 441 1709 441 
Q 2250 441 2565 725 
Q 2881 1009 2881 1497 
Q 2881 1984 2565 2268 
Q 2250 2553 1709 2553 
Q 1456 2553 1204 2497 
Q 953 2441 691 2322 
L 691 4666 
z
" transform="scale(0.015625)"/>
       </defs>
       <use xlink:href="#DejaVuSans-32"/>
       <use xlink:href="#DejaVuSans-2e" x="63.623047"/>
       <use xlink:href="#DejaVuSans-35" x="95.410156"/>
      </g>
     </g>
    </g>
    <g id="xtick_3">
     <g id="line2d_5">
      <path d="M 137.009743 184.36327 
L 137.009743 0.72 
" clip-path="url(#p2c857799aa)" style="fill: none; stroke-dasharray: 0.8,1.32; stroke-dashoffset: 0; stroke: #000000; stroke-opacity: 0.5; stroke-width: 0.8"/>
     </g>
     <g id="line2d_6">
      <g>
       <use xlink:href="#maa4790a494" x="137.009743" y="184.36327" style="stroke: #000000; stroke-width: 0.8"/>
      </g>
     </g>
     <g id="text_3">
      <!-- 5.0 -->
      <g transform="translate(129.05818 198.961707) scale(0.1 -0.1)">
       <use xlink:href="#DejaVuSans-35"/>
       <use xlink:href="#DejaVuSans-2e" x="63.623047"/>
       <use xlink:href="#DejaVuSans-30" x="95.410156"/>
      </g>
     </g>
    </g>
    <g id="xtick_4">
     <g id="line2d_7">
      <path d="M 189.444458 184.36327 
L 189.444458 0.72 
" clip-path="url(#p2c857799aa)" style="fill: none; stroke-dasharray: 0.8,1.32; stroke-dashoffset: 0; stroke: #000000; stroke-opacity: 0.5; stroke-width: 0.8"/>
     </g>
     <g id="line2d_8">
      <g>
       <use xlink:href="#maa4790a494" x="189.444458" y="184.36327" style="stroke: #000000; stroke-width: 0.8"/>
      </g>
     </g>
     <g id="text_4">
      <!-- 7.5 -->
      <g transform="translate(181.492895 198.961707) scale(0.1 -0.1)">
       <defs>
        <path id="DejaVuSans-37" d="M 525 4666 
L 3525 4666 
L 3525 4397 
L 1831 0 
L 1172 0 
L 2766 4134 
L 525 4134 
L 525 4666 
z
" transform="scale(0.015625)"/>
       </defs>
       <use xlink:href="#DejaVuSans-37"/>
       <use xlink:href="#DejaVuSans-2e" x="63.623047"/>
       <use xlink:href="#DejaVuSans-35" x="95.410156"/>
      </g>
     </g>
    </g>
    <g id="xtick_5">
     <g id="line2d_9">
      <path d="M 241.879173 184.36327 
L 241.879173 0.72 
" clip-path="url(#p2c857799aa)" style="fill: none; stroke-dasharray: 0.8,1.32; stroke-dashoffset: 0; stroke: #000000; stroke-opacity: 0.5; stroke-width: 0.8"/>
     </g>
     <g id="line2d_10">
      <g>
       <use xlink:href="#maa4790a494" x="241.879173" y="184.36327" style="stroke: #000000; stroke-width: 0.8"/>
      </g>
     </g>
     <g id="text_5">
      <!-- 10.0 -->
      <g transform="translate(230.74636 198.961707) scale(0.1 -0.1)">
       <defs>
        <path id="DejaVuSans-31" d="M 794 531 
L 1825 531 
L 1825 4091 
L 703 3866 
L 703 4441 
L 1819 4666 
L 2450 4666 
L 2450 531 
L 3481 531 
L 3481 0 
L 794 0 
L 794 531 
z
" transform="scale(0.015625)"/>
       </defs>
       <use xlink:href="#DejaVuSans-31"/>
       <use xlink:href="#DejaVuSans-30" x="63.623047"/>
       <use xlink:href="#DejaVuSans-2e" x="127.246094"/>
       <use xlink:href="#DejaVuSans-30" x="159.033203"/>
      </g>
     </g>
    </g>
    <g id="xtick_6">
     <g id="line2d_11">
      <path d="M 294.313888 184.36327 
L 294.313888 0.72 
" clip-path="url(#p2c857799aa)" style="fill: none; stroke-dasharray: 0.8,1.32; stroke-dashoffset: 0; stroke: #000000; stroke-opacity: 0.5; stroke-width: 0.8"/>
     </g>
     <g id="line2d_12">
      <g>
       <use xlink:href="#maa4790a494" x="294.313888" y="184.36327" style="stroke: #000000; stroke-width: 0.8"/>
      </g>
     </g>
     <g id="text_6">
      <!-- 12.5 -->
      <g transform="translate(283.181075 198.961707) scale(0.1 -0.1)">
       <use xlink:href="#DejaVuSans-31"/>
       <use xlink:href="#DejaVuSans-32" x="63.623047"/>
       <use xlink:href="#DejaVuSans-2e" x="127.246094"/>
       <use xlink:href="#DejaVuSans-35" x="159.033203"/>
      </g>
     </g>
    </g>
    <g id="xtick_7">
     <g id="line2d_13">
      <path d="M 346.748603 184.36327 
L 346.748603 0.72 
" clip-path="url(#p2c857799aa)" style="fill: none; stroke-dasharray: 0.8,1.32; stroke-dashoffset: 0; stroke: #000000; stroke-opacity: 0.5; stroke-width: 0.8"/>
     </g>
     <g id="line2d_14">
      <g>
       <use xlink:href="#maa4790a494" x="346.748603" y="184.36327" style="stroke: #000000; stroke-width: 0.8"/>
      </g>
     </g>
     <g id="text_7">
      <!-- 15.0 -->
      <g transform="translate(335.615791 198.961707) scale(0.1 -0.1)">
       <use xlink:href="#DejaVuSans-31"/>
       <use xlink:href="#DejaVuSans-35" x="63.623047"/>
       <use xlink:href="#DejaVuSans-2e" x="127.246094"/>
       <use xlink:href="#DejaVuSans-30" x="159.033203"/>
      </g>
     </g>
    </g>
    <g id="xtick_8">
     <g id="line2d_15">
      <path d="M 399.183318 184.36327 
L 399.183318 0.72 
" clip-path="url(#p2c857799aa)" style="fill: none; stroke-dasharray: 0.8,1.32; stroke-dashoffset: 0; stroke: #000000; stroke-opacity: 0.5; stroke-width: 0.8"/>
     </g>
     <g id="line2d_16">
      <g>
       <use xlink:href="#maa4790a494" x="399.183318" y="184.36327" style="stroke: #000000; stroke-width: 0.8"/>
      </g>
     </g>
     <g id="text_8">
      <!-- 17.5 -->
      <g transform="translate(388.050506 198.961707) scale(0.1 -0.1)">
       <use xlink:href="#DejaVuSans-31"/>
       <use xlink:href="#DejaVuSans-37" x="63.623047"/>
       <use xlink:href="#DejaVuSans-2e" x="127.246094"/>
       <use xlink:href="#DejaVuSans-35" x="159.033203"/>
      </g>
     </g>
    </g>
    <g id="text_9">
     <!-- Zeit [s] -->
     <g transform="translate(211.483823 208.639832) scale(0.1 -0.1)">
      <defs>
       <path id="DejaVuSans-5a" d="M 359 4666 
L 4025 4666 
L 4025 4184 
L 1075 531 
L 4097 531 
L 4097 0 
L 288 0 
L 288 481 
L 3238 4134 
L 359 4134 
L 359 4666 
z
" transform="scale(0.015625)"/>
       <path id="DejaVuSans-65" d="M 3597 1894 
L 3597 1613 
L 953 1613 
Q 991 1019 1311 708 
Q 1631 397 2203 397 
Q 2534 397 2845 478 
Q 3156 559 3463 722 
L 3463 178 
Q 3153 47 2828 -22 
Q 2503 -91 2169 -91 
Q 1331 -91 842 396 
Q 353 884 353 1716 
Q 353 2575 817 3079 
Q 1281 3584 2069 3584 
Q 2775 3584 3186 3129 
Q 3597 2675 3597 1894 
z
M 3022 2063 
Q 3016 2534 2758 2815 
Q 2500 3097 2075 3097 
Q 1594 3097 1305 2825 
Q 1016 2553 972 2059 
L 3022 2063 
z
" transform="scale(0.015625)"/>
       <path id="DejaVuSans-69" d="M 603 3500 
L 1178 3500 
L 1178 0 
L 603 0 
L 603 3500 
z
M 603 4863 
L 1178 4863 
L 1178 4134 
L 603 4134 
L 603 4863 
z
" transform="scale(0.015625)"/>
       <path id="DejaVuSans-74" d="M 1172 4494 
L 1172 3500 
L 2356 3500 
L 2356 3053 
L 1172 3053 
L 1172 1153 
Q 1172 725 1289 603 
Q 1406 481 1766 481 
L 2356 481 
L 2356 0 
L 1766 0 
Q 1100 0 847 248 
Q 594 497 594 1153 
L 594 3053 
L 172 3053 
L 172 3500 
L 594 3500 
L 594 4494 
L 1172 4494 
z
" transform="scale(0.015625)"/>
       <path id="DejaVuSans-20" transform="scale(0.015625)"/>
       <path id="DejaVuSans-5b" d="M 550 4863 
L 1875 4863 
L 1875 4416 
L 1125 4416 
L 1125 -397 
L 1875 -397 
L 1875 -844 
L 550 -844 
L 550 4863 
z
" transform="scale(0.015625)"/>
       <path id="DejaVuSans-73" d="M 2834 3397 
L 2834 2853 
Q 2591 2978 2328 3040 
Q 2066 3103 1784 3103 
Q 1356 3103 1142 2972 
Q 928 2841 928 2578 
Q 928 2378 1081 2264 
Q 1234 2150 1697 2047 
L 1894 2003 
Q 2506 1872 2764 1633 
Q 3022 1394 3022 966 
Q 3022 478 2636 193 
Q 2250 -91 1575 -91 
Q 1294 -91 989 -36 
Q 684 19 347 128 
L 347 722 
Q 666 556 975 473 
Q 1284 391 1588 391 
Q 1994 391 2212 530 
Q 2431 669 2431 922 
Q 2431 1156 2273 1281 
Q 2116 1406 1581 1522 
L 1381 1569 
Q 847 1681 609 1914 
Q 372 2147 372 2553 
Q 372 3047 722 3315 
Q 1072 3584 1716 3584 
Q 2034 3584 2315 3537 
Q 2597 3491 2834 3397 
z
" transform="scale(0.015625)"/>
       <path id="DejaVuSans-5d" d="M 1947 4863 
L 1947 -844 
L 622 -844 
L 622 -397 
L 1369 -397 
L 1369 4416 
L 622 4416 
L 622 4863 
L 1947 4863 
z
" transform="scale(0.015625)"/>
      </defs>
      <use xlink:href="#DejaVuSans-5a"/>
      <use xlink:href="#DejaVuSans-65" x="68.505859"/>
      <use xlink:href="#DejaVuSans-69" x="130.029297"/>
      <use xlink:href="#DejaVuSans-74" x="157.8125"/>
      <use xlink:href="#DejaVuSans-20" x="197.021484"/>
      <use xlink:href="#DejaVuSans-5b" x="228.808594"/>
      <use xlink:href="#DejaVuSans-73" x="267.822266"/>
      <use xlink:href="#DejaVuSans-5d" x="319.921875"/>
     </g>
    </g>
   </g>
   <g id="matplotlib.axis_2">
    <g id="ytick_1">
     <g id="line2d_17">
      <path d="M 32.140313 163.792194 
L 426.71952 163.792194 
" clip-path="url(#p2c857799aa)" style="fill: none; stroke-dasharray: 0.8,1.32; stroke-dashoffset: 0; stroke: #000000; stroke-opacity: 0.5; stroke-width: 0.8"/>
     </g>
     <g id="line2d_18">
      <defs>
       <path id="m61540029df" d="M 0 0 
L -3.5 0 
" style="stroke: #000000; stroke-width: 0.8"/>
      </defs>
      <g>
       <use xlink:href="#m61540029df" x="32.140313" y="163.792194" style="stroke: #000000; stroke-width: 0.8"/>
      </g>
     </g>
     <g id="text_10">
      <!-- −8 -->
      <g transform="translate(10.398125 167.591413) scale(0.1 -0.1)">
       <defs>
        <path id="DejaVuSans-2212" d="M 678 2272 
L 4684 2272 
L 4684 1741 
L 678 1741 
L 678 2272 
z
" transform="scale(0.015625)"/>
        <path id="DejaVuSans-38" d="M 2034 2216 
Q 1584 2216 1326 1975 
Q 1069 1734 1069 1313 
Q 1069 891 1326 650 
Q 1584 409 2034 409 
Q 2484 409 2743 651 
Q 3003 894 3003 1313 
Q 3003 1734 2745 1975 
Q 2488 2216 2034 2216 
z
M 1403 2484 
Q 997 2584 770 2862 
Q 544 3141 544 3541 
Q 544 4100 942 4425 
Q 1341 4750 2034 4750 
Q 2731 4750 3128 4425 
Q 3525 4100 3525 3541 
Q 3525 3141 3298 2862 
Q 3072 2584 2669 2484 
Q 3125 2378 3379 2068 
Q 3634 1759 3634 1313 
Q 3634 634 3220 271 
Q 2806 -91 2034 -91 
Q 1263 -91 848 271 
Q 434 634 434 1313 
Q 434 1759 690 2068 
Q 947 2378 1403 2484 
z
M 1172 3481 
Q 1172 3119 1398 2916 
Q 1625 2713 2034 2713 
Q 2441 2713 2670 2916 
Q 2900 3119 2900 3481 
Q 2900 3844 2670 4047 
Q 2441 4250 2034 4250 
Q 1625 4250 1398 4047 
Q 1172 3844 1172 3481 
z
" transform="scale(0.015625)"/>
       </defs>
       <use xlink:href="#DejaVuSans-2212"/>
       <use xlink:href="#DejaVuSans-38" x="83.789062"/>
      </g>
     </g>
    </g>
    <g id="ytick_2">
     <g id="line2d_19">
      <path d="M 32.140313 137.815176 
L 426.71952 137.815176 
" clip-path="url(#p2c857799aa)" style="fill: none; stroke-dasharray: 0.8,1.32; stroke-dashoffset: 0; stroke: #000000; stroke-opacity: 0.5; stroke-width: 0.8"/>
     </g>
     <g id="line2d_20">
      <g>
       <use xlink:href="#m61540029df" x="32.140313" y="137.815176" style="stroke: #000000; stroke-width: 0.8"/>
      </g>
     </g>
     <g id="text_11">
      <!-- −6 -->
      <g transform="translate(10.398125 141.614395) scale(0.1 -0.1)">
       <defs>
        <path id="DejaVuSans-36" d="M 2113 2584 
Q 1688 2584 1439 2293 
Q 1191 2003 1191 1497 
Q 1191 994 1439 701 
Q 1688 409 2113 409 
Q 2538 409 2786 701 
Q 3034 994 3034 1497 
Q 3034 2003 2786 2293 
Q 2538 2584 2113 2584 
z
M 3366 4563 
L 3366 3988 
Q 3128 4100 2886 4159 
Q 2644 4219 2406 4219 
Q 1781 4219 1451 3797 
Q 1122 3375 1075 2522 
Q 1259 2794 1537 2939 
Q 1816 3084 2150 3084 
Q 2853 3084 3261 2657 
Q 3669 2231 3669 1497 
Q 3669 778 3244 343 
Q 2819 -91 2113 -91 
Q 1303 -91 875 529 
Q 447 1150 447 2328 
Q 447 3434 972 4092 
Q 1497 4750 2381 4750 
Q 2619 4750 2861 4703 
Q 3103 4656 3366 4563 
z
" transform="scale(0.015625)"/>
       </defs>
       <use xlink:href="#DejaVuSans-2212"/>
       <use xlink:href="#DejaVuSans-36" x="83.789062"/>
      </g>
     </g>
    </g>
    <g id="ytick_3">
     <g id="line2d_21">
      <path d="M 32.140313 111.838157 
L 426.71952 111.838157 
" clip-path="url(#p2c857799aa)" style="fill: none; stroke-dasharray: 0.8,1.32; stroke-dashoffset: 0; stroke: #000000; stroke-opacity: 0.5; stroke-width: 0.8"/>
     </g>
     <g id="line2d_22">
      <g>
       <use xlink:href="#m61540029df" x="32.140313" y="111.838157" style="stroke: #000000; stroke-width: 0.8"/>
      </g>
     </g>
     <g id="text_12">
      <!-- −4 -->
      <g transform="translate(10.398125 115.637376) scale(0.1 -0.1)">
       <defs>
        <path id="DejaVuSans-34" d="M 2419 4116 
L 825 1625 
L 2419 1625 
L 2419 4116 
z
M 2253 4666 
L 3047 4666 
L 3047 1625 
L 3713 1625 
L 3713 1100 
L 3047 1100 
L 3047 0 
L 2419 0 
L 2419 1100 
L 313 1100 
L 313 1709 
L 2253 4666 
z
" transform="scale(0.015625)"/>
       </defs>
       <use xlink:href="#DejaVuSans-2212"/>
       <use xlink:href="#DejaVuSans-34" x="83.789062"/>
      </g>
     </g>
    </g>
    <g id="ytick_4">
     <g id="line2d_23">
      <path d="M 32.140313 85.861139 
L 426.71952 85.861139 
" clip-path="url(#p2c857799aa)" style="fill: none; stroke-dasharray: 0.8,1.32; stroke-dashoffset: 0; stroke: #000000; stroke-opacity: 0.5; stroke-width: 0.8"/>
     </g>
     <g id="line2d_24">
      <g>
       <use xlink:href="#m61540029df" x="32.140313" y="85.861139" style="stroke: #000000; stroke-width: 0.8"/>
      </g>
     </g>
     <g id="text_13">
      <!-- −2 -->
      <g transform="translate(10.398125 89.660358) scale(0.1 -0.1)">
       <use xlink:href="#DejaVuSans-2212"/>
       <use xlink:href="#DejaVuSans-32" x="83.789062"/>
      </g>
     </g>
    </g>
    <g id="ytick_5">
     <g id="line2d_25">
      <path d="M 32.140313 59.884121 
L 426.71952 59.884121 
" clip-path="url(#p2c857799aa)" style="fill: none; stroke-dasharray: 0.8,1.32; stroke-dashoffset: 0; stroke: #000000; stroke-opacity: 0.5; stroke-width: 0.8"/>
     </g>
     <g id="line2d_26">
      <g>
       <use xlink:href="#m61540029df" x="32.140313" y="59.884121" style="stroke: #000000; stroke-width: 0.8"/>
      </g>
     </g>
     <g id="text_14">
      <!-- 0 -->
      <g transform="translate(18.777813 63.683339) scale(0.1 -0.1)">
       <use xlink:href="#DejaVuSans-30"/>
      </g>
     </g>
    </g>
    <g id="ytick_6">
     <g id="line2d_27">
      <path d="M 32.140313 33.907102 
L 426.71952 33.907102 
" clip-path="url(#p2c857799aa)" style="fill: none; stroke-dasharray: 0.8,1.32; stroke-dashoffset: 0; stroke: #000000; stroke-opacity: 0.5; stroke-width: 0.8"/>
     </g>
     <g id="line2d_28">
      <g>
       <use xlink:href="#m61540029df" x="32.140313" y="33.907102" style="stroke: #000000; stroke-width: 0.8"/>
      </g>
     </g>
     <g id="text_15">
      <!-- 2 -->
      <g transform="translate(18.777813 37.706321) scale(0.1 -0.1)">
       <use xlink:href="#DejaVuSans-32"/>
      </g>
     </g>
    </g>
    <g id="ytick_7">
     <g id="line2d_29">
      <path d="M 32.140313 7.930084 
L 426.71952 7.930084 
" clip-path="url(#p2c857799aa)" style="fill: none; stroke-dasharray: 0.8,1.32; stroke-dashoffset: 0; stroke: #000000; stroke-opacity: 0.5; stroke-width: 0.8"/>
     </g>
     <g id="line2d_30">
      <g>
       <use xlink:href="#m61540029df" x="32.140313" y="7.930084" style="stroke: #000000; stroke-width: 0.8"/>
      </g>
     </g>
     <g id="text_16">
      <!-- 4 -->
      <g transform="translate(18.777813 11.729303) scale(0.1 -0.1)">
       <use xlink:href="#DejaVuSans-34"/>
      </g>
     </g>
    </g>
    <g id="text_17">
     <!-- Drehmoment [Nm] -->
     <g transform="translate(8.318438 139.686948) rotate(-90) scale(0.1 -0.1)">
      <defs>
       <path id="DejaVuSans-44" d="M 1259 4147 
L 1259 519 
L 2022 519 
Q 2988 519 3436 956 
Q 3884 1394 3884 2338 
Q 3884 3275 3436 3711 
Q 2988 4147 2022 4147 
L 1259 4147 
z
M 628 4666 
L 1925 4666 
Q 3281 4666 3915 4102 
Q 4550 3538 4550 2338 
Q 4550 1131 3912 565 
Q 3275 0 1925 0 
L 628 0 
L 628 4666 
z
" transform="scale(0.015625)"/>
       <path id="DejaVuSans-72" d="M 2631 2963 
Q 2534 3019 2420 3045 
Q 2306 3072 2169 3072 
Q 1681 3072 1420 2755 
Q 1159 2438 1159 1844 
L 1159 0 
L 581 0 
L 581 3500 
L 1159 3500 
L 1159 2956 
Q 1341 3275 1631 3429 
Q 1922 3584 2338 3584 
Q 2397 3584 2469 3576 
Q 2541 3569 2628 3553 
L 2631 2963 
z
" transform="scale(0.015625)"/>
       <path id="DejaVuSans-68" d="M 3513 2113 
L 3513 0 
L 2938 0 
L 2938 2094 
Q 2938 2591 2744 2837 
Q 2550 3084 2163 3084 
Q 1697 3084 1428 2787 
Q 1159 2491 1159 1978 
L 1159 0 
L 581 0 
L 581 4863 
L 1159 4863 
L 1159 2956 
Q 1366 3272 1645 3428 
Q 1925 3584 2291 3584 
Q 2894 3584 3203 3211 
Q 3513 2838 3513 2113 
z
" transform="scale(0.015625)"/>
       <path id="DejaVuSans-6d" d="M 3328 2828 
Q 3544 3216 3844 3400 
Q 4144 3584 4550 3584 
Q 5097 3584 5394 3201 
Q 5691 2819 5691 2113 
L 5691 0 
L 5113 0 
L 5113 2094 
Q 5113 2597 4934 2840 
Q 4756 3084 4391 3084 
Q 3944 3084 3684 2787 
Q 3425 2491 3425 1978 
L 3425 0 
L 2847 0 
L 2847 2094 
Q 2847 2600 2669 2842 
Q 2491 3084 2119 3084 
Q 1678 3084 1418 2786 
Q 1159 2488 1159 1978 
L 1159 0 
L 581 0 
L 581 3500 
L 1159 3500 
L 1159 2956 
Q 1356 3278 1631 3431 
Q 1906 3584 2284 3584 
Q 2666 3584 2933 3390 
Q 3200 3197 3328 2828 
z
" transform="scale(0.015625)"/>
       <path id="DejaVuSans-6f" d="M 1959 3097 
Q 1497 3097 1228 2736 
Q 959 2375 959 1747 
Q 959 1119 1226 758 
Q 1494 397 1959 397 
Q 2419 397 2687 759 
Q 2956 1122 2956 1747 
Q 2956 2369 2687 2733 
Q 2419 3097 1959 3097 
z
M 1959 3584 
Q 2709 3584 3137 3096 
Q 3566 2609 3566 1747 
Q 3566 888 3137 398 
Q 2709 -91 1959 -91 
Q 1206 -91 779 398 
Q 353 888 353 1747 
Q 353 2609 779 3096 
Q 1206 3584 1959 3584 
z
" transform="scale(0.015625)"/>
       <path id="DejaVuSans-6e" d="M 3513 2113 
L 3513 0 
L 2938 0 
L 2938 2094 
Q 2938 2591 2744 2837 
Q 2550 3084 2163 3084 
Q 1697 3084 1428 2787 
Q 1159 2491 1159 1978 
L 1159 0 
L 581 0 
L 581 3500 
L 1159 3500 
L 1159 2956 
Q 1366 3272 1645 3428 
Q 1925 3584 2291 3584 
Q 2894 3584 3203 3211 
Q 3513 2838 3513 2113 
z
" transform="scale(0.015625)"/>
       <path id="DejaVuSans-4e" d="M 628 4666 
L 1478 4666 
L 3547 763 
L 3547 4666 
L 4159 4666 
L 4159 0 
L 3309 0 
L 1241 3903 
L 1241 0 
L 628 0 
L 628 4666 
z
" transform="scale(0.015625)"/>
      </defs>
      <use xlink:href="#DejaVuSans-44"/>
      <use xlink:href="#DejaVuSans-72" x="77.001953"/>
      <use xlink:href="#DejaVuSans-65" x="115.865234"/>
      <use xlink:href="#DejaVuSans-68" x="177.388672"/>
      <use xlink:href="#DejaVuSans-6d" x="240.767578"/>
      <use xlink:href="#DejaVuSans-6f" x="338.179688"/>
      <use xlink:href="#DejaVuSans-6d" x="399.361328"/>
      <use xlink:href="#DejaVuSans-65" x="496.773438"/>
      <use xlink:href="#DejaVuSans-6e" x="558.296875"/>
      <use xlink:href="#DejaVuSans-74" x="621.675781"/>
      <use xlink:href="#DejaVuSans-20" x="660.884766"/>
      <use xlink:href="#DejaVuSans-5b" x="692.671875"/>
      <use xlink:href="#DejaVuSans-4e" x="731.685547"/>
      <use xlink:href="#DejaVuSans-6d" x="806.490234"/>
      <use xlink:href="#DejaVuSans-5d" x="903.902344"/>
     </g>
    </g>
   </g>
   <g id="line2d_31">
    <path d="M 32.140313 59.884059 
L 162.995962 59.921392 
L 163.121685 60.04975 
L 164.001757 60.045666 
L 164.549369 59.870552 
L 164.717495 59.898243 
L 164.885812 59.808034 
L 165.562985 59.810004 
L 165.939845 59.787903 
L 166.996521 59.730174 
L 167.67633 59.806023 
L 169.615931 59.701239 
L 175.186579 59.590922 
L 176.282819 59.544404 
L 177.338213 59.5175 
L 177.991274 59.503501 
L 178.685481 59.509355 
L 180.370933 59.423552 
L 180.882444 59.453749 
L 181.364798 59.44652 
L 185.685626 59.349587 
L 185.728868 59.397956 
L 186.191805 59.381815 
L 187.078307 59.383476 
L 188.890382 59.325824 
L 189.439184 59.355568 
L 193.568215 59.334136 
L 196.012536 59.342598 
L 198.288832 59.332954 
L 229.908848 59.883048 
L 303.482816 59.882097 
L 303.488835 59.909692 
L 304.208555 59.884741 
L 315.527862 59.86907 
L 326.709288 59.834395 
L 328.061439 59.819336 
L 328.39988 59.813378 
L 330.381084 59.832686 
L 331.778105 59.814794 
L 388.276048 59.684974 
L 426.71952 59.685058 
L 426.71952 59.685058 
" clip-path="url(#p2c857799aa)" style="fill: none; stroke: #0000ff; stroke-opacity: 0.5; stroke-width: 1.75; stroke-linecap: square"/>
   </g>
   <g id="line2d_32">
    <path d="M 32.140313 46.24321 
L 32.225242 46.295376 
L 32.396995 45.728496 
L 32.44734 47.15083 
L 32.570393 46.054359 
L 32.786806 45.687383 
L 32.992253 45.897962 
L 33.118324 45.258763 
L 33.413133 46.241764 
L 33.582177 45.740442 
L 33.624392 45.058636 
L 33.919505 45.590138 
L 34.301578 45.639058 
L 34.636906 45.499529 
L 34.677987 46.104076 
L 34.846341 46.657328 
L 35.057978 45.694597 
L 35.436451 46.393406 
L 35.658223 45.467359 
L 35.731893 46.25145 
L 35.900179 45.173228 
L 36.070288 46.535451 
L 36.240346 45.858862 
L 36.451366 45.953054 
L 36.617326 44.789238 
L 36.785753 45.844804 
L 36.997057 45.753961 
L 37.565411 45.043834 
L 37.674374 45.725754 
L 37.842786 44.874362 
L 38.011594 45.178976 
L 38.307871 43.905327 
L 38.435685 45.274614 
L 38.517618 44.31343 
L 38.690729 45.068121 
L 38.85854 44.891729 
L 39.028727 44.89857 
L 39.235738 45.236268 
L 39.662688 44.825515 
L 40.582752 44.870214 
L 41.505547 45.378547 
L 42.427753 46.503385 
L 43.351029 46.157425 
L 44.273488 45.067055 
L 46.287036 44.966007 
L 47.209972 45.270368 
L 47.309397 45.435441 
L 47.477301 44.943168 
L 47.645936 45.198059 
L 47.814825 45.111042 
L 48.024868 45.61787 
L 48.236796 46.593779 
L 48.363662 44.82265 
L 48.530972 45.427318 
L 48.661245 46.979629 
L 48.829735 45.741873 
L 49.207745 47.310428 
L 49.545185 45.23373 
L 49.715036 46.486513 
L 50.061759 45.890114 
L 50.262785 46.305379 
L 50.471866 45.039074 
L 50.68325 45.215686 
L 50.767526 45.787821 
L 50.936541 44.451327 
L 51.106294 45.699258 
L 51.327183 46.015874 
L 51.485615 44.413967 
L 51.661164 44.666406 
L 51.86504 45.946372 
L 51.993291 44.513713 
L 52.37129 45.5762 
L 52.584581 44.184675 
L 52.8779 46.650798 
L 53.087301 46.791682 
L 53.719966 48.247938 
L 53.934822 46.619273 
L 54.142048 46.687839 
L 54.310787 48.478401 
L 54.480594 47.660158 
L 54.652344 45.693311 
L 54.783032 46.806129 
L 54.99128 47.231259 
L 55.412279 44.723994 
L 55.536997 46.061656 
L 55.706671 46.202819 
L 55.876885 46.900011 
L 56.254904 45.126181 
L 56.380645 46.094109 
L 57.055699 46.512847 
L 57.097391 46.736789 
L 57.603799 44.686465 
L 58.024672 46.526733 
L 58.326716 44.983638 
L 58.6579 45.267255 
L 58.994643 45.542043 
L 59.373389 47.324958 
L 59.512543 45.922208 
L 59.711484 45.629668 
L 59.879874 47.594114 
L 60.090095 47.607261 
L 60.217325 46.446433 
L 60.596225 46.943057 
L 60.76602 46.848034 
L 60.933692 46.126446 
L 61.103259 45.946664 
L 61.271433 46.964047 
L 61.439366 46.698831 
L 61.69367 44.841326 
L 61.828776 45.11017 
L 61.98797 46.684862 
L 62.156647 46.252117 
L 62.32771 44.678322 
L 62.662104 45.543 
L 62.746723 47.058543 
L 62.83708 45.88714 
L 63.005465 45.320764 
L 63.337437 47.25026 
L 63.506244 45.284163 
L 63.758223 44.428885 
L 64.052918 47.805396 
L 64.390476 45.480754 
L 64.603437 47.098917 
L 64.812135 47.526276 
L 64.938085 46.07948 
L 65.107536 45.503125 
L 65.444205 47.082111 
L 65.87406 47.765703 
L 66.03432 48.168937 
L 66.244683 47.53608 
L 66.358612 45.538367 
L 66.498283 45.207823 
L 66.877998 47.775659 
L 67.046439 47.341986 
L 67.556238 43.874754 
L 67.932054 44.779057 
L 68.491062 46.809536 
L 68.613008 44.911034 
L 68.943468 44.691604 
L 69.196009 45.541083 
L 69.364897 45.896113 
L 69.449241 45.799426 
L 69.744524 46.125989 
L 69.829709 45.811903 
L 69.997115 45.914514 
L 70.207543 46.55223 
L 70.333933 47.533341 
L 70.503139 47.750625 
L 70.881911 45.687529 
L 71.023294 44.467613 
L 71.261265 44.960267 
L 71.387547 46.232087 
L 71.600013 45.812853 
L 71.766866 43.938871 
L 71.979591 43.6597 
L 72.27332 45.604796 
L 72.721877 46.061111 
L 72.843876 46.64913 
L 73.119449 46.497946 
L 73.243048 44.94631 
L 73.289647 45.255629 
L 73.49825 46.738985 
L 73.707775 46.295094 
L 73.851894 44.216348 
L 74.056999 43.193262 
L 74.25752 44.15687 
L 74.355988 46.158519 
L 74.55131 46.939118 
L 74.720017 45.30438 
L 74.937862 45.246611 
L 75.149899 46.605642 
L 75.4824 44.867527 
L 75.903381 45.664838 
L 75.999016 48.314611 
L 76.948097 46.82108 
L 77.865416 46.43375 
L 78.875709 46.494188 
L 78.931712 49.175791 
L 79.05882 48.259973 
L 79.483665 44.053935 
L 79.648972 42.744791 
L 79.916505 42.797521 
L 80.356642 45.164515 
L 80.851176 42.570902 
L 81.063436 43.107835 
L 81.529887 48.708311 
L 81.73684 48.343654 
L 82.07444 44.234699 
L 82.328633 43.64456 
L 82.622394 47.695692 
L 82.834158 49.00032 
L 82.963936 48.622791 
L 83.260434 44.653585 
L 83.442173 44.134366 
L 83.813364 46.884563 
L 83.979531 46.343325 
L 84.317194 43.599396 
L 84.487653 43.697248 
L 84.672915 45.021238 
L 85.11791 47.265257 
L 85.377019 46.024951 
L 85.592745 47.042734 
L 85.908964 49.78784 
L 86.151171 48.853849 
L 86.455772 45.51962 
L 86.896512 45.346829 
L 86.942452 46.816298 
L 87.093786 47.801736 
L 87.277438 45.34638 
L 87.494608 45.271652 
L 87.740683 45.312672 
L 87.824484 45.107924 
L 88.372323 46.504112 
L 88.501104 46.277689 
L 88.673796 45.135388 
L 88.89009 45.243946 
L 89.011489 45.839928 
L 89.267099 45.270911 
L 89.432553 44.511662 
L 89.643077 45.1086 
L 89.73075 46.548875 
L 89.980674 47.311879 
L 90.198396 45.745602 
L 90.275754 44.135183 
L 90.613902 47.190649 
L 90.783108 46.402518 
L 90.951265 44.983179 
L 91.12174 44.6138 
L 91.289717 44.967307 
L 91.67207 45.097417 
L 92.004703 47.796918 
L 92.30763 47.192782 
L 92.38412 45.613757 
L 92.721102 48.007852 
L 92.849561 47.967099 
L 93.057838 47.904863 
L 93.269203 48.127559 
L 93.397163 47.896011 
L 93.607281 47.019059 
L 93.911609 45.326488 
L 94.116762 46.825012 
L 94.288718 46.924507 
L 94.456147 46.477623 
L 94.620924 46.712155 
L 94.790924 47.209361 
L 95.000501 47.378386 
L 95.253428 46.758322 
L 95.337746 45.773099 
L 95.506231 45.343965 
L 95.759347 45.751017 
L 95.843916 45.63301 
L 96.012248 45.644138 
L 96.223836 45.492496 
L 96.433255 45.534689 
L 96.643748 45.443365 
L 96.730524 45.199912 
L 97.066338 46.642113 
L 97.234699 46.496615 
L 97.403056 45.634474 
L 97.614533 45.229424 
L 97.951421 45.447942 
L 98.12068 45.233948 
L 98.459208 44.21838 
L 98.629886 44.28957 
L 98.805554 43.755904 
L 99.019091 44.326918 
L 99.152535 46.079858 
L 99.386424 46.39842 
L 99.514663 44.757554 
L 99.703608 44.317113 
L 100.031173 48.07193 
L 100.201495 47.199877 
L 100.368118 45.284634 
L 100.588481 45.680742 
L 100.747419 47.116892 
L 100.915562 46.908805 
L 101.127173 45.51469 
L 101.295694 45.28292 
L 101.463802 46.431713 
L 101.718201 46.54829 
L 102.053752 43.603583 
L 102.306896 45.045339 
L 102.520254 44.673103 
L 102.666066 43.678348 
L 102.825107 43.464019 
L 103.233811 44.843559 
L 103.446339 44.584525 
L 103.571653 44.975606 
L 103.909633 45.280663 
L 104.077701 45.565872 
L 104.248704 46.465879 
L 104.627687 49.861139 
L 104.755079 49.801545 
L 105.102655 47.870109 
L 105.144833 45.938807 
L 105.272794 45.639471 
L 105.820055 48.933762 
L 106.366719 43.922235 
L 106.999238 47.677358 
L 107.378963 44.215598 
L 107.551919 43.713494 
L 107.927974 47.70148 
L 108.185223 48.284933 
L 108.26362 46.529248 
L 108.474526 45.303037 
L 108.647384 45.658472 
L 108.942502 48.123005 
L 109.48601 45.288737 
L 109.781014 45.51765 
L 109.992349 47.614456 
L 110.330071 46.53854 
L 110.540315 46.383635 
L 111.046877 48.287665 
L 111.299243 46.670462 
L 111.383668 44.582203 
L 111.636212 43.514654 
L 111.940825 45.554975 
L 112.187696 45.331138 
L 112.310035 44.062112 
L 112.477957 44.083172 
L 113.026058 47.967734 
L 113.238186 47.665611 
L 113.490713 45.105339 
L 113.755686 45.370148 
L 113.870335 47.56792 
L 114.037729 47.902895 
L 114.543165 43.139944 
L 114.754904 43.561251 
L 115.178076 47.119145 
L 115.264821 47.259949 
L 115.809407 42.828087 
L 116.442699 47.358843 
L 116.69411 46.605913 
L 116.989802 44.263129 
L 117.158794 45.221999 
L 117.537849 48.41377 
L 117.706057 47.666708 
L 117.919964 45.954053 
L 118.212293 42.506687 
L 118.506747 42.999728 
L 118.593094 45.217331 
L 118.763441 46.663242 
L 119.268226 42.777846 
L 119.984121 48.073792 
L 120.494018 43.586114 
L 120.828637 47.595045 
L 121.003997 47.651436 
L 121.164197 45.767852 
L 121.417879 45.498864 
L 121.585456 45.782783 
L 121.754882 46.475097 
L 122.04973 48.671374 
L 122.387132 46.18356 
L 122.638796 45.770862 
L 122.933609 47.830546 
L 123.31339 44.228325 
L 123.524822 44.511304 
L 123.65139 45.166228 
L 123.819657 44.828059 
L 123.988604 44.899473 
L 124.159399 44.542481 
L 124.325397 44.484412 
L 124.914777 45.346227 
L 125.042339 45.232034 
L 125.380093 44.552398 
L 125.549307 45.335225 
L 125.71863 45.425619 
L 126.015845 45.259295 
L 126.138771 44.613143 
L 126.644194 44.633756 
L 126.813477 44.835555 
L 126.943315 45.733758 
L 127.131109 45.631561 
L 127.322672 44.457253 
L 127.487376 44.392752 
L 127.82574 46.196161 
L 128.066546 44.618075 
L 128.177055 43.546286 
L 128.33347 45.319314 
L 128.600883 46.296753 
L 128.881326 43.429427 
L 129.0496 43.605437 
L 129.218332 45.289527 
L 129.429452 46.256853 
L 129.597729 44.809913 
L 129.778788 45.051602 
L 130.020956 46.552314 
L 130.534497 44.006687 
L 130.861723 46.100133 
L 131.032217 46.645825 
L 131.157041 46.180311 
L 131.506068 45.80122 
L 131.662764 43.767066 
L 131.873605 43.725253 
L 132.16896 45.096607 
L 132.434053 47.902464 
L 132.73831 44.485171 
L 132.907437 44.780451 
L 133.240868 47.085178 
L 133.577848 46.523975 
L 133.832174 46.870952 
L 134.084114 46.3725 
L 134.299111 44.895039 
L 134.649877 44.364097 
L 134.818033 44.60563 
L 135.197794 46.028359 
L 135.638757 45.147158 
L 135.70618 45.435699 
L 136.055646 47.768034 
L 136.294308 47.661469 
L 136.379379 45.989262 
L 136.589195 44.705028 
L 136.758452 45.239611 
L 136.926728 46.771259 
L 137.095129 46.830919 
L 137.277012 45.368849 
L 137.516215 44.860454 
L 137.686066 44.980548 
L 137.811508 44.886645 
L 138.317199 44.825703 
L 138.48527 44.674284 
L 138.654255 44.757604 
L 138.991765 45.132018 
L 139.159573 45.009104 
L 139.243898 43.534292 
L 139.41252 42.689003 
L 139.539786 43.221281 
L 139.883505 45.852542 
L 140.087276 45.107388 
L 140.42827 42.29462 
L 140.64539 43.252158 
L 140.93504 48.067171 
L 141.103724 48.243887 
L 141.441478 45.810484 
L 142.030632 49.584555 
L 142.158827 48.67671 
L 142.7474 46.558214 
L 142.917309 45.569972 
L 143.12587 46.728842 
L 143.21042 48.273655 
L 143.547382 45.316629 
L 143.757762 46.400611 
L 143.887818 47.830982 
L 144.265645 45.273598 
L 144.432698 45.509788 
L 144.600941 46.542674 
L 144.772391 45.551368 
L 144.940756 43.757145 
L 145.36062 45.842241 
L 145.658308 43.178058 
L 145.865472 45.169102 
L 146.07637 45.406224 
L 146.166963 43.623131 
L 146.366463 42.485473 
L 146.544018 43.579191 
L 146.709894 45.318621 
L 147.064047 42.879915 
L 147.47288 45.975765 
L 147.76868 44.581607 
L 147.937033 44.368278 
L 148.189404 44.84426 
L 148.273784 45.423423 
L 148.653352 45.535119 
L 148.863492 45.369818 
L 149.15883 44.879454 
L 149.414269 44.946225 
L 149.495744 45.144455 
L 149.748187 45.094822 
L 149.917781 44.851066 
L 150.002958 43.643149 
L 150.211672 42.311031 
L 150.718593 45.4889 
L 150.902668 43.735615 
L 151.140294 43.361037 
L 151.60338 48.025793 
L 151.942553 47.091382 
L 152.151771 47.203634 
L 152.405894 47.03511 
L 152.496197 46.805095 
L 152.658373 47.38673 
L 152.826401 47.502503 
L 153.129138 47.062916 
L 153.376192 45.095109 
L 153.545391 45.981399 
L 153.712337 47.765583 
L 153.880528 48.124645 
L 154.050128 47.924108 
L 154.217732 48.12636 
L 154.597527 46.776499 
L 154.736996 47.047832 
L 155.061282 48.730211 
L 155.104011 50.503152 
L 155.271895 51.020799 
L 155.988501 45.384317 
L 156.115916 46.931134 
L 156.325457 47.951748 
L 156.493901 48.132812 
L 156.66436 47.629479 
L 157.212204 44.194829 
L 157.717517 48.168298 
L 157.929259 47.435977 
L 158.227894 43.218389 
L 158.434046 42.281211 
L 158.644466 43.368625 
L 159.108211 49.64408 
L 159.276901 50.238648 
L 159.487889 50.354064 
L 159.617796 50.837475 
L 159.963623 50.952179 
L 159.993075 50.768736 
L 160.165416 50.63612 
L 160.715897 43.956384 
L 161.092324 43.09595 
L 161.304865 41.824276 
L 161.55429 39.886565 
L 161.892104 40.6384 
L 162.103482 43.507638 
L 162.442475 46.876243 
L 162.60873 46.675637 
L 162.779735 45.326809 
L 162.995962 38.641004 
L 163.121685 23.637808 
L 163.345253 21.700919 
L 163.495849 9.165883 
L 163.663648 8.939909 
L 164.549369 34.003146 
L 164.717495 30.376316 
L 164.885812 37.275952 
L 165.225614 33.61646 
L 165.731549 53.543624 
L 165.771439 46.998199 
L 166.109206 56.875696 
L 166.276975 56.290027 
L 166.487546 53.23242 
L 166.656564 57.202169 
L 166.827566 58.187447 
L 166.996521 60.977196 
L 167.205771 53.71873 
L 167.459659 51.463658 
L 167.552978 49.306294 
L 167.67633 42.778374 
L 167.84302 42.826608 
L 168.053139 41.823189 
L 168.432462 52.637387 
L 168.706675 52.551389 
L 168.730415 48.386663 
L 169.064963 57.161916 
L 169.191704 57.321379 
L 169.275465 57.955649 
L 169.615931 64.138154 
L 169.822744 63.832822 
L 169.949627 68.353465 
L 170.118474 58.007651 
L 170.286704 59.98503 
L 170.498211 57.613987 
L 170.707661 61.647498 
L 170.8341 55.193855 
L 171.171617 61.053795 
L 171.395555 56.185388 
L 171.7308 60.073987 
L 172.068427 70.748523 
L 172.615469 79.833475 
L 172.78368 77.267229 
L 172.995339 78.163346 
L 173.122537 77.014386 
L 173.416443 83.944506 
L 173.459031 78.583771 
L 173.796824 75.230277 
L 174.134024 60.329854 
L 174.306401 58.392412 
L 174.641692 53.028119 
L 174.849549 58.019144 
L 175.059828 59.197955 
L 175.186579 58.979878 
L 176.07127 79.928954 
L 176.282819 79.575108 
L 176.493321 82.872623 
L 176.704115 84.089458 
L 176.830671 89.052082 
L 177.040863 86.814136 
L 177.128094 81.027481 
L 177.338213 81.135022 
L 177.504468 82.966498 
L 177.633089 85.833346 
L 177.829863 80.933842 
L 177.991274 81.402151 
L 178.160056 77.653052 
L 178.517217 79.193342 
L 178.685481 81.704013 
L 179.011401 92.088621 
L 179.193904 100.306691 
L 179.401785 100.296691 
L 179.571105 109.243566 
L 179.907195 107.023118 
L 180.075881 108.302396 
L 180.370933 108.236422 
L 180.666462 91.940345 
L 180.882444 93.135392 
L 181.004182 98.88957 
L 181.144289 97.938566 
L 181.364798 97.75258 
L 181.55302 98.29115 
L 181.638035 99.53249 
L 181.821579 98.65835 
L 182.18667 105.382123 
L 182.3968 118.65495 
L 182.524733 119.551802 
L 182.733733 124.729155 
L 182.902864 120.901206 
L 183.411901 102.816278 
L 183.578043 99.260566 
L 183.788601 91.356475 
L 183.915145 92.97343 
L 184.127167 91.991473 
L 184.336167 93.232448 
L 184.631897 99.355493 
L 184.801128 111.055521 
L 184.970552 113.299642 
L 185.432484 131.617856 
L 185.685626 139.684866 
L 185.728868 137.357926 
L 185.853963 139.565396 
L 186.022981 136.718595 
L 186.361313 129.713263 
L 186.656088 126.033014 
L 186.741667 126.358498 
L 186.951039 129.333673 
L 187.078307 124.222193 
L 187.246173 125.5868 
L 187.498647 130.493835 
L 187.668388 130.338419 
L 187.761799 133.261183 
L 188.405774 122.80778 
L 188.680218 115.719599 
L 188.890382 116.026408 
L 188.976096 111.160687 
L 189.185904 109.392107 
L 189.439184 103.221169 
L 189.821557 123.345215 
L 189.901277 134.105511 
L 190.164996 136.309294 
L 190.243357 143.594854 
L 190.575466 150.389633 
L 190.743749 149.760266 
L 191.123222 158.223994 
L 191.50229 144.799429 
L 191.670938 134.226756 
L 191.798541 136.161865 
L 192.051238 126.985427 
L 192.220071 127.887013 
L 192.515344 133.581652 
L 192.808978 145.853445 
L 192.979283 145.533946 
L 193.146403 153.218429 
L 193.188991 151.901114 
L 193.568215 158.552122 
L 193.784569 159.43105 
L 193.947499 161.899529 
L 194.495294 140.555629 
L 194.663952 142.12313 
L 194.960071 134.321338 
L 195.297282 144.3231 
L 195.759557 151.602016 
L 196.012536 163.782484 
L 196.307293 167.383518 
L 196.350452 170.583744 
L 196.518323 172.387539 
L 196.77161 171.99889 
L 197.066642 167.24159 
L 197.235803 159.394891 
L 197.574858 150.594687 
L 197.740971 146.186996 
L 198.08457 155.114176 
L 198.288832 150.387273 
L 198.415498 151.351043 
L 198.646119 150.819452 
L 199.265643 157.911179 
L 199.401473 162.341983 
L 199.59659 161.378986 
L 199.684469 165.097544 
L 199.934637 163.040688 
L 200.020738 165.017272 
L 200.229215 162.192097 
L 200.360443 163.899884 
L 200.656404 161.100182 
L 200.823818 161.987983 
L 200.903728 160.25901 
L 201.206653 159.243285 
L 201.340022 161.368403 
L 201.453139 155.648431 
L 201.937843 166.180124 
L 202.172084 166.020802 
L 202.340455 163.998204 
L 202.508272 158.754682 
L 202.636375 158.389382 
L 202.971999 147.970027 
L 203.1827 144.880983 
L 203.351623 147.920328 
L 203.603825 149.667437 
L 203.940898 157.902013 
L 204.037725 166.933542 
L 204.23562 165.980177 
L 204.364804 175.393699 
L 204.40514 174.761801 
L 204.702188 180.831669 
L 204.910582 180.0175 
L 205.248522 170.341545 
L 205.501662 156.910766 
L 205.801859 162.911602 
L 206.137384 154.757155 
L 206.34462 151.219217 
L 206.470648 152.517122 
L 206.641514 146.691214 
L 206.934393 151.63185 
L 207.019491 156.571188 
L 207.187791 157.522709 
L 207.525732 163.013844 
L 207.697371 162.661931 
L 207.865551 161.906708 
L 208.045992 157.562311 
L 208.202752 160.099546 
L 208.456247 160.645613 
L 208.584888 162.739537 
L 208.750969 162.709917 
L 208.919371 152.063554 
L 209.088161 150.758619 
L 209.29947 146.383995 
L 209.444944 145.731552 
L 209.596482 151.298993 
L 209.848276 155.323824 
L 210.142836 154.515997 
L 210.227641 159.849761 
L 210.311257 158.791715 
L 210.606473 159.940662 
L 210.652714 153.14406 
L 211.039354 158.05225 
L 211.169684 152.88899 
L 211.491297 152.046021 
L 211.533956 144.992995 
L 211.70197 144.154399 
L 211.912958 144.851144 
L 212.249982 139.422014 
L 212.460303 136.07354 
L 212.590468 137.102034 
L 212.756764 143.65722 
L 213.140273 147.960616 
L 213.304627 149.158996 
L 213.640277 137.012146 
L 213.809309 131.625355 
L 214.024652 132.382795 
L 214.362087 139.999333 
L 214.526108 140.283698 
L 214.654281 139.936328 
L 215.039444 137.253824 
L 215.24215 132.736961 
L 215.370472 133.960773 
L 215.706305 129.131183 
L 215.876087 132.085236 
L 216.086277 133.753154 
L 216.422679 121.451696 
L 216.77491 117.132203 
L 216.93095 117.778281 
L 217.477528 137.043619 
L 217.657145 135.669573 
L 218.404639 117.095655 
L 218.531431 118.609197 
L 219.037879 111.038533 
L 219.205558 110.113641 
L 219.415886 106.532431 
L 219.559933 108.944345 
L 219.758699 109.430821 
L 219.965884 110.726282 
L 220.302875 115.183647 
L 220.55546 111.809261 
L 220.767149 113.311072 
L 220.808515 112.827094 
L 220.976721 113.113602 
L 221.316468 111.931486 
L 221.568364 112.073488 
L 221.693345 119.730697 
L 222.000239 104.221003 
L 222.467443 94.142447 
L 222.758245 81.651973 
L 222.921702 86.028312 
L 223.090545 81.015717 
L 223.30364 81.837754 
L 223.639032 86.150604 
L 223.739395 89.230406 
L 224.075164 93.706657 
L 224.125726 99.37889 
L 224.328953 97.389749 
L 224.497293 100.541763 
L 224.625095 96.492806 
L 225.264044 91.400654 
L 225.384217 93.256452 
L 226.057017 77.749054 
L 226.309637 75.260663 
L 226.3962 97.286095 
L 226.647681 109.273365 
L 226.815426 106.799865 
L 227.36321 86.945006 
L 227.449243 69.428023 
L 227.616885 59.535924 
L 227.828196 39.199825 
L 228.080191 27.7279 
L 228.142781 17.474684 
L 228.37924 4.251601 
L 228.603547 11.275954 
L 229.071226 56.93972 
L 229.152165 90.789002 
L 229.614102 145.87854 
L 229.908848 162.345495 
L 230.289868 138.780495 
L 231.132451 28.846704 
L 231.300595 20.522334 
L 231.427789 21.167749 
L 231.637523 29.361353 
L 232.316062 101.897126 
L 232.693187 114.716962 
L 232.862609 111.077077 
L 233.204347 82.482268 
L 233.705039 32.608463 
L 234.083501 19.582794 
L 234.380809 20.872257 
L 234.591511 43.759755 
L 235.474947 121.496381 
L 235.646851 123.66968 
L 235.813858 118.595473 
L 236.317015 92.048669 
L 236.359194 74.974416 
L 236.867107 34.406542 
L 237.203171 27.10877 
L 237.681433 43.289403 
L 237.919397 71.353902 
L 238.087084 81.967754 
L 238.466665 96.266977 
L 238.677874 95.57605 
L 239.195122 73.896801 
L 239.694638 48.780165 
L 239.857167 46.542764 
L 240.026353 48.205663 
L 240.577775 72.93733 
L 240.91274 90.938146 
L 241.255436 100.178506 
L 241.5065 97.060457 
L 242.640569 46.64984 
L 242.809309 47.434418 
L 242.979003 51.853451 
L 243.865295 91.984397 
L 244.038218 93.913761 
L 244.309341 94.707085 
L 244.389473 90.07608 
L 244.591813 86.398678 
L 244.625092 83.172169 
L 244.837045 77.617415 
L 244.921206 71.434933 
L 245.299589 63.523064 
L 245.425554 63.530265 
L 245.636469 64.433388 
L 245.973695 71.238487 
L 246.694078 88.907209 
L 246.817579 88.00281 
L 247.028576 83.013806 
L 247.364816 68.356491 
L 247.618307 62.142752 
L 247.871469 50.606825 
L 248.039355 46.966209 
L 248.334282 46.38498 
L 248.757395 60.479278 
L 249.435077 89.651956 
L 249.641215 93.381347 
L 249.854503 94.733004 
L 250.147364 91.590387 
L 251.032006 61.975486 
L 251.328426 62.525949 
L 251.370931 64.688062 
L 251.582458 66.993801 
L 252.129249 78.455586 
L 252.597336 95.925581 
L 252.803587 92.961905 
L 253.014432 88.121958 
L 253.351843 73.208459 
L 253.477638 67.447693 
L 253.730294 66.592616 
L 253.858025 63.276303 
L 254.278869 61.710383 
L 254.363636 63.203139 
L 254.995021 84.711388 
L 255.080735 91.152832 
L 255.427621 94.248582 
L 255.584824 92.28303 
L 256.43423 65.477717 
L 256.815394 60.274613 
L 257.144334 62.851571 
L 257.440873 68.14346 
L 257.65242 80.142827 
L 257.902704 87.178643 
L 258.114346 89.962051 
L 258.208252 87.902211 
L 258.504814 84.418877 
L 258.749021 78.726444 
L 259.090802 72.402822 
L 259.423469 69.318298 
L 259.638957 68.849649 
L 260.014544 69.838419 
L 260.100587 73.027381 
L 260.656025 80.336414 
L 260.815418 82.372618 
L 261.026536 83.057179 
L 261.363849 75.181376 
L 261.746319 74.535403 
L 261.901829 76.650552 
L 262.250391 72.089742 
L 262.520436 69.820728 
L 263.092766 79.12997 
L 263.261113 80.323079 
L 263.471794 79.022656 
L 263.809047 84.549458 
L 264.0282 87.302669 
L 264.652455 73.435852 
L 264.864536 72.644082 
L 265.030677 73.31836 
L 265.25471 72.73238 
L 265.370002 71.719098 
L 265.793054 77.624283 
L 266.089032 85.554414 
L 266.219508 85.378715 
L 266.722244 82.561751 
L 266.807394 83.024361 
L 267.058772 81.180097 
L 267.102526 79.233012 
L 267.651974 73.73042 
L 267.817468 73.199023 
L 267.986253 73.923607 
L 268.196804 74.324522 
L 268.371719 73.969841 
L 268.954471 78.902381 
L 269.040662 77.840985 
L 269.334487 77.407672 
L 269.376026 73.925241 
L 269.840164 79.166837 
L 269.884629 81.289095 
L 270.144902 81.935547 
L 270.432014 74.734923 
L 270.68297 71.775488 
L 270.810081 71.796712 
L 271.315486 75.468768 
L 271.61123 75.182394 
L 271.696878 74.918584 
L 271.990922 81.407456 
L 272.18878 81.576559 
L 272.918862 76.593616 
L 273.04575 73.9318 
L 273.467181 72.341096 
L 273.84671 75.382123 
L 274.100071 82.855509 
L 274.310632 83.110414 
L 274.478848 81.193772 
L 274.731562 79.975705 
L 275.158311 80.309148 
L 275.701368 71.026477 
L 275.827502 70.387346 
L 276.038323 73.065777 
L 276.375267 80.813889 
L 276.544201 81.049884 
L 276.882426 78.500124 
L 277.176617 78.507664 
L 277.259673 80.516249 
L 277.471879 80.702176 
L 277.68099 80.652829 
L 277.975978 76.361492 
L 278.271234 73.542031 
L 278.483 77.828507 
L 278.777287 80.269155 
L 278.862308 82.402991 
L 279.198462 77.385248 
L 279.366635 76.280985 
L 279.745836 79.53956 
L 279.872362 80.39107 
L 280.043457 79.626038 
L 280.505363 76.494541 
L 280.589937 76.215702 
L 280.842828 76.918161 
L 281.095683 82.70654 
L 281.30748 82.818449 
L 281.811071 84.806291 
L 282.078676 84.716325 
L 282.15263 84.271033 
L 282.317355 81.832903 
L 282.48687 81.628946 
L 282.657324 80.253152 
L 282.826435 77.312897 
L 283.118877 77.220096 
L 283.371991 74.506964 
L 283.540157 73.766894 
L 283.708713 73.819638 
L 283.882114 73.566411 
L 284.341289 76.727657 
L 284.425447 78.732154 
L 284.973618 83.111631 
L 285.142092 82.230477 
L 285.649452 77.608973 
L 285.816592 76.368308 
L 285.984863 76.102819 
L 286.238232 74.010156 
L 286.532929 69.039602 
L 286.870162 68.085268 
L 287.081878 69.286688 
L 287.67229 75.929276 
L 287.756452 79.25884 
L 288.09489 80.2742 
L 288.473599 80.781104 
L 288.81043 79.749981 
L 289.021774 80.071813 
L 289.148767 79.451807 
L 289.359904 79.264794 
L 289.48553 82.393455 
L 290.002494 85.20225 
L 290.033548 85.182917 
L 290.335675 81.929313 
L 290.8794 78.123303 
L 291.048268 78.63717 
L 291.265056 75.845478 
L 291.426128 75.228467 
L 291.574227 73.684647 
L 291.934378 73.101004 
L 292.10283 75.132745 
L 292.310673 76.154963 
L 292.480916 77.873289 
L 292.690163 78.152882 
L 292.818077 76.550709 
L 292.985509 77.539647 
L 293.324869 83.424749 
L 293.577329 85.952287 
L 293.704996 85.899701 
L 293.873395 88.223941 
L 294.072446 88.756817 
L 294.463233 88.213235 
L 294.716653 79.827448 
L 295.138745 74.768676 
L 295.266096 72.48869 
L 295.645921 72.267611 
L 295.771261 72.886079 
L 296.150853 72.863061 
L 296.319862 76.268801 
L 296.614364 77.189156 
L 296.665823 79.036479 
L 296.868147 78.962267 
L 297.003041 78.144749 
L 297.281944 79.783741 
L 297.372501 79.067997 
L 298.000336 81.326449 
L 298.043401 83.231649 
L 298.253209 84.331174 
L 298.768975 89.101788 
L 299.054349 86.975956 
L 299.096754 85.384628 
L 299.307751 83.978819 
L 299.789087 76.358519 
L 299.98315 72.569105 
L 300.533126 69.201026 
L 300.828184 69.631321 
L 300.870059 70.312369 
L 301.039409 70.357731 
L 301.291315 72.047524 
L 301.713761 78.811088 
L 302.263513 82.741822 
L 302.430748 81.352851 
L 302.598368 80.957376 
L 302.978217 77.748484 
L 303.106224 76.942086 
L 303.482816 76.722938 
L 303.488835 84.20822 
L 303.654754 75.261733 
L 304.033797 73.570571 
L 304.62495 77.808957 
L 304.709524 80.047311 
L 305.046452 79.390422 
L 305.215214 79.545812 
L 305.554176 82.004671 
L 305.8509 80.608416 
L 305.889519 81.061206 
L 306.439139 74.100535 
L 306.608094 73.982405 
L 306.904827 74.279086 
L 306.993203 75.177161 
L 307.32491 73.007358 
L 307.705215 74.732389 
L 308.003741 80.279843 
L 308.171158 82.165359 
L 308.380061 82.149251 
L 308.553066 81.167683 
L 308.717192 79.491869 
L 309.223668 81.772407 
L 309.527949 82.22577 
L 309.773576 85.286717 
L 309.940225 74.48822 
L 310.109845 87.050614 
L 310.283781 88.277618 
L 310.462092 87.226754 
L 310.626419 89.848331 
L 310.791784 90.440735 
L 311.212585 92.682831 
L 311.429372 93.420405 
L 311.521638 93.245354 
L 311.722746 93.862501 
L 311.894752 95.344047 
L 312.101894 95.703755 
L 312.186991 96.705854 
L 312.357568 92.112223 
L 312.656466 87.27961 
L 312.904709 77.642187 
L 313.338648 69.755392 
L 313.666557 58.248815 
L 313.832629 57.191668 
L 314.213469 65.351041 
L 314.382779 74.459467 
L 315.410731 94.371693 
L 315.527862 94.115784 
L 315.775332 87.185337 
L 316.071048 68.822264 
L 316.408771 61.416051 
L 316.577441 62.308232 
L 317.013515 67.339047 
L 317.084327 71.029075 
L 317.336749 75.72451 
L 317.802625 93.648345 
L 318.257496 94.926208 
L 318.552904 89.087309 
L 319.017183 64.842111 
L 319.440501 60.195491 
L 319.60809 62.053126 
L 319.736459 66.749807 
L 320.076383 74.228492 
L 320.62062 91.668993 
L 320.791774 94.511201 
L 320.958622 93.806413 
L 321.465391 83.412776 
L 321.806392 77.476819 
L 322.150694 74.225597 
L 322.355425 75.07289 
L 322.523676 76.96506 
L 322.693009 81.316597 
L 323.049354 83.264522 
L 323.450969 77.301943 
L 323.661604 73.269692 
L 324.131111 56.543203 
L 324.423362 49.296155 
L 324.591775 48.971033 
L 325.148632 57.622992 
L 325.313573 63.201083 
L 325.576332 68.049827 
L 325.816499 78.331785 
L 326.195438 84.903871 
L 326.492719 85.626299 
L 326.709288 84.312793 
L 326.87112 83.764539 
L 327.040214 80.761476 
L 327.338257 77.94892 
L 327.766474 69.964298 
L 328.061439 68.979541 
L 328.104333 69.218319 
L 328.568398 73.910052 
L 328.611907 76.492083 
L 329.158721 85.845876 
L 329.326287 88.864543 
L 329.621262 91.24829 
L 329.70569 91.134601 
L 329.87472 89.67077 
L 330.551611 76.816924 
L 330.760782 76.299589 
L 331.114018 79.010665 
L 331.438445 84.939712 
L 331.606736 85.262897 
L 331.778105 86.370949 
L 332.283243 82.935035 
L 333.019643 66.597717 
L 333.171162 62.960747 
L 333.353787 61.805781 
L 333.675572 62.608656 
L 334.443524 80.979603 
L 334.905869 95.586705 
L 335.116752 98.456318 
L 335.284926 98.426671 
L 335.566225 98.806061 
L 335.670449 97.05809 
L 335.795341 97.384431 
L 336.071587 96.749656 
L 336.172392 96.212583 
L 336.389417 97.774508 
L 336.509644 97.083019 
L 336.685222 97.054011 
L 336.941895 98.095125 
L 337.356185 101.969448 
L 337.573312 100.076836 
L 337.906604 90.199979 
L 338.248218 77.006504 
L 339.002705 63.521322 
L 339.129565 62.306593 
L 339.425068 63.087374 
L 340.550362 87.088676 
L 340.765612 88.364496 
L 340.889944 90.343762 
L 341.024221 90.636073 
L 341.226491 91.633063 
L 341.564318 94.718588 
L 341.732426 94.92997 
L 341.901339 94.560529 
L 342.829728 102.199409 
L 342.998433 102.043573 
L 343.377542 97.900327 
L 343.654521 87.11748 
L 344.520132 63.220593 
L 344.900511 63.853432 
L 345.256626 69.064766 
L 346.313997 92.015058 
L 346.519689 92.392059 
L 346.605665 93.402286 
L 346.812326 93.985698 
L 347.023264 93.581851 
L 347.703472 98.08368 
L 347.878698 97.835058 
L 348.205265 100.649504 
L 348.41606 101.9292 
L 348.584736 103.718132 
L 348.92131 103.181841 
L 349.08987 103.334035 
L 349.432698 98.254829 
L 350.31578 76.270594 
L 350.525356 74.963588 
L 350.652561 72.535137 
L 350.904706 70.653818 
L 351.200708 70.700062 
L 351.579818 72.10258 
L 351.748465 71.874674 
L 352.044301 70.979095 
L 352.464918 67.879015 
L 352.639423 67.55382 
L 352.761003 66.834794 
L 352.931365 66.55751 
L 353.321418 68.719148 
L 353.616379 74.74422 
L 353.954449 78.141633 
L 353.996859 83.576676 
L 354.207457 86.715752 
L 354.505744 93.970657 
L 355.2206 105.265769 
L 355.556523 107.167759 
L 355.77063 107.318792 
L 355.938886 105.119837 
L 356.106354 104.516861 
L 356.589513 97.482702 
L 357.16756 82.789292 
L 357.842644 62.652942 
L 358.010835 59.823465 
L 358.17981 60.228554 
L 358.559622 68.590361 
L 359.065642 83.564768 
L 359.278663 88.544288 
L 359.487708 90.154178 
L 359.613888 89.816658 
L 359.953773 89.334559 
L 360.293731 71.199962 
L 360.795869 49.461022 
L 361.217775 39.606803 
L 361.470456 34.641901 
L 361.767598 33.201196 
L 361.80824 34.078365 
L 362.064162 37.004726 
L 362.56818 56.698209 
L 362.910285 72.73319 
L 363.92996 105.405608 
L 364.140588 107.816289 
L 364.271029 106.543063 
L 364.479515 106.430664 
L 364.692998 102.855824 
L 364.857595 103.202792 
L 365.038273 102.920424 
L 365.196065 100.157069 
L 365.495511 100.114409 
L 365.532813 101.145801 
L 365.701422 101.557205 
L 365.997056 99.737826 
L 366.209924 94.194325 
L 366.446375 91.36564 
L 367.60325 50.426007 
L 367.823871 49.568263 
L 368.109848 47.721996 
L 368.153173 48.632428 
L 368.660908 51.684038 
L 368.78336 53.415442 
L 369.008921 51.738732 
L 369.735796 38.096546 
L 369.9049 37.511422 
L 370.332666 43.545206 
L 370.613409 52.641031 
L 370.865842 57.288286 
L 371.330185 85.472399 
L 371.880715 103.343785 
L 372.006862 104.202111 
L 372.189548 104.240984 
L 372.427722 103.264115 
L 372.722246 97.953054 
L 372.932849 93.746242 
L 373.229749 78.943458 
L 373.410589 79.09684 
L 373.608492 79.81112 
L 374.119163 86.491839 
L 374.293467 87.253077 
L 374.496423 86.183211 
L 375.095417 70.114126 
L 375.340003 67.123626 
L 375.543178 71.933387 
L 375.71978 81.729527 
L 376.056572 92.17183 
L 376.098818 100.45627 
L 376.352507 107.862247 
L 376.442927 115.01731 
L 376.733389 125.92836 
L 377.088246 126.608079 
L 377.794025 80.734778 
L 378.127015 80.57817 
L 378.21617 84.87262 
L 378.636708 98.145894 
L 378.936641 107.28648 
L 379.104055 109.3926 
L 379.363371 104.697046 
L 379.615976 95.660032 
L 379.868445 68.87524 
L 380.163163 53.855657 
L 380.585796 25.435494 
L 380.711368 16.250109 
L 380.839652 15.583179 
L 381.024609 21.182972 
L 381.981449 113.32242 
L 382.326904 136.126585 
L 382.483967 136.392611 
L 382.695098 132.031421 
L 383.412942 107.878038 
L 383.796077 100.025093 
L 384.089107 98.846621 
L 384.308268 99.853678 
L 384.599657 106.322466 
L 384.814222 108.147288 
L 385.047584 106.748788 
L 385.296117 98.408451 
L 385.862203 88.196896 
L 385.990441 87.846637 
L 386.368343 87.453277 
L 386.538832 88.554301 
L 386.874649 95.643485 
L 387.813844 121.283406 
L 388.113482 124.06508 
L 388.276048 122.063351 
L 388.612569 110.375651 
L 389.499153 74.597364 
L 389.889746 69.020905 
L 390.087872 68.769195 
L 390.425577 72.206804 
L 390.733923 75.167368 
L 390.806824 74.76587 
L 391.142483 70.181715 
L 391.227504 67.006741 
L 391.404995 66.832683 
L 391.564145 68.523761 
L 391.946904 77.683147 
L 392.452895 102.466778 
L 392.830736 123.090325 
L 393.166713 137.649915 
L 393.518667 142.615645 
L 393.672739 141.060504 
L 393.968459 136.267047 
L 394.186956 120.810213 
L 394.904493 104.550889 
L 395.529838 101.851303 
L 395.615391 102.66856 
L 395.823631 102.310408 
L 396.121321 100.730983 
L 396.333399 97.109935 
L 397.360384 50.376579 
L 397.834362 42.493338 
L 398.034547 39.255808 
L 398.24611 38.032649 
L 398.415432 37.985077 
L 398.672496 38.743156 
L 399.110477 44.754171 
L 399.311568 59.442187 
L 399.984751 86.557225 
L 400.687765 106.572525 
L 400.854477 106.447103 
L 401.238571 104.527886 
L 401.74641 95.653216 
L 402.092101 82.462957 
L 402.267931 80.946372 
L 402.640373 83.984007 
L 403.147484 92.919674 
L 403.411825 98.493842 
L 403.497699 104.536248 
L 403.86801 109.280808 
L 404.513073 81.89601 
L 404.878608 74.031047 
L 405.259021 69.77828 
L 405.444331 71.215847 
L 405.721171 75.216752 
L 405.765984 80.918676 
L 406.283076 99.742471 
L 406.611675 105.822803 
L 406.821589 104.137843 
L 407.035531 100.866422 
L 407.20428 96.138494 
L 407.495723 90.808833 
L 407.622133 91.203044 
L 407.665022 91.731894 
L 407.858411 91.636404 
L 408.10597 86.060894 
L 408.188418 77.347658 
L 408.572808 65.773516 
L 408.749517 64.883753 
L 408.906398 66.379758 
L 409.075971 70.803737 
L 409.289998 73.250291 
L 409.414214 72.709614 
L 409.624504 69.685452 
L 409.759403 71.635511 
L 410.342527 92.480006 
L 410.598595 90.189804 
L 411.019862 75.959489 
L 411.270587 76.765443 
L 411.493519 82.852143 
L 411.87432 76.088484 
L 412.084641 80.847132 
L 412.419826 100.777094 
L 412.673848 102.331738 
L 413.053429 89.003935 
L 413.22133 83.808304 
L 413.306161 84.598563 
L 413.600977 91.432504 
L 413.854382 87.495608 
L 414.151079 74.747902 
L 414.379228 78.75716 
L 414.50885 86.568033 
L 414.676286 89.716709 
L 415.21879 83.079871 
L 415.355707 83.515413 
L 415.525009 86.274493 
L 415.725034 87.679898 
L 416.230924 81.45432 
L 416.582384 86.912171 
L 417.162085 79.089709 
L 417.370682 78.751824 
L 417.538814 88.250747 
L 417.963017 94.372316 
L 418.382301 88.521923 
L 418.508722 91.807503 
L 418.636008 101.17062 
L 418.867728 105.497616 
L 419.034848 103.819823 
L 419.604005 71.00781 
L 419.73043 70.082035 
L 420.112152 76.112231 
L 420.619059 74.707612 
L 420.791306 77.13977 
L 420.95542 81.827144 
L 421.335375 96.535308 
L 422.015037 83.12568 
L 422.263459 83.63231 
L 422.520321 83.08666 
L 422.727923 85.009357 
L 422.897671 85.466044 
L 423.066055 83.447594 
L 423.284227 83.195494 
L 423.662518 89.452804 
L 423.788353 85.437749 
L 423.959261 84.571268 
L 424.210723 89.21367 
L 424.421139 88.413055 
L 424.675836 81.866226 
L 424.976622 84.876818 
L 425.137498 87.104955 
L 425.56006 83.123902 
L 425.686501 81.0966 
L 425.864814 81.774975 
L 426.205936 87.111038 
L 426.549708 90.140727 
L 426.71952 88.774372 
L 426.71952 88.774372 
" clip-path="url(#p2c857799aa)" style="fill: none; stroke: #ff0000; stroke-opacity: 0.5; stroke-width: 1.75; stroke-linecap: square"/>
   </g>
   <g id="patch_3">
    <path d="M 32.140313 184.36327 
L 32.140313 0.72 
" style="fill: none; stroke: #000000; stroke-width: 0.8; stroke-linejoin: miter; stroke-linecap: square"/>
   </g>
   <g id="patch_4">
    <path d="M 426.71952 184.36327 
L 426.71952 0.72 
" style="fill: none; stroke: #000000; stroke-width: 0.8; stroke-linejoin: miter; stroke-linecap: square"/>
   </g>
   <g id="patch_5">
    <path d="M 32.140313 184.36327 
L 426.71952 184.36327 
" style="fill: none; stroke: #000000; stroke-width: 0.8; stroke-linejoin: miter; stroke-linecap: square"/>
   </g>
   <g id="patch_6">
    <path d="M 32.140313 0.72 
L 426.71952 0.72 
" style="fill: none; stroke: #000000; stroke-width: 0.8; stroke-linejoin: miter; stroke-linecap: square"/>
   </g>
   <g id="legend_1">
    <g id="patch_7">
     <path d="M 39.140313 38.07625 
L 112.909063 38.07625 
Q 114.909063 38.07625 114.909063 36.07625 
L 114.909063 7.72 
Q 114.909063 5.72 112.909063 5.72 
L 39.140313 5.72 
Q 37.140313 5.72 37.140313 7.72 
L 37.140313 36.07625 
Q 37.140313 38.07625 39.140313 38.07625 
z
" style="fill: #ffffff; opacity: 0.8; stroke: #cccccc; stroke-linejoin: miter"/>
    </g>
    <g id="line2d_33">
     <path d="M 41.140313 13.818437 
L 51.140313 13.818437 
L 61.140313 13.818437 
" style="fill: none; stroke: #0000ff; stroke-opacity: 0.5; stroke-width: 1.75; stroke-linecap: square"/>
    </g>
    <g id="text_18">
     <!-- RNEA -->
     <g transform="translate(69.140313 17.318437) scale(0.1 -0.1)">
      <defs>
       <path id="DejaVuSans-52" d="M 2841 2188 
Q 3044 2119 3236 1894 
Q 3428 1669 3622 1275 
L 4263 0 
L 3584 0 
L 2988 1197 
Q 2756 1666 2539 1819 
Q 2322 1972 1947 1972 
L 1259 1972 
L 1259 0 
L 628 0 
L 628 4666 
L 2053 4666 
Q 2853 4666 3247 4331 
Q 3641 3997 3641 3322 
Q 3641 2881 3436 2590 
Q 3231 2300 2841 2188 
z
M 1259 4147 
L 1259 2491 
L 2053 2491 
Q 2509 2491 2742 2702 
Q 2975 2913 2975 3322 
Q 2975 3731 2742 3939 
Q 2509 4147 2053 4147 
L 1259 4147 
z
" transform="scale(0.015625)"/>
       <path id="DejaVuSans-45" d="M 628 4666 
L 3578 4666 
L 3578 4134 
L 1259 4134 
L 1259 2753 
L 3481 2753 
L 3481 2222 
L 1259 2222 
L 1259 531 
L 3634 531 
L 3634 0 
L 628 0 
L 628 4666 
z
" transform="scale(0.015625)"/>
       <path id="DejaVuSans-41" d="M 2188 4044 
L 1331 1722 
L 3047 1722 
L 2188 4044 
z
M 1831 4666 
L 2547 4666 
L 4325 0 
L 3669 0 
L 3244 1197 
L 1141 1197 
L 716 0 
L 50 0 
L 1831 4666 
z
" transform="scale(0.015625)"/>
      </defs>
      <use xlink:href="#DejaVuSans-52"/>
      <use xlink:href="#DejaVuSans-4e" x="69.482422"/>
      <use xlink:href="#DejaVuSans-45" x="144.287109"/>
      <use xlink:href="#DejaVuSans-41" x="207.470703"/>
     </g>
    </g>
    <g id="line2d_34">
     <path d="M 41.140313 28.496562 
L 51.140313 28.496562 
L 61.140313 28.496562 
" style="fill: none; stroke: #ff0000; stroke-opacity: 0.5; stroke-width: 1.75; stroke-linecap: square"/>
    </g>
    <g id="text_19">
     <!-- BURNEA -->
     <g transform="translate(69.140313 31.996562) scale(0.1 -0.1)">
      <defs>
       <path id="DejaVuSans-42" d="M 1259 2228 
L 1259 519 
L 2272 519 
Q 2781 519 3026 730 
Q 3272 941 3272 1375 
Q 3272 1813 3026 2020 
Q 2781 2228 2272 2228 
L 1259 2228 
z
M 1259 4147 
L 1259 2741 
L 2194 2741 
Q 2656 2741 2882 2914 
Q 3109 3088 3109 3444 
Q 3109 3797 2882 3972 
Q 2656 4147 2194 4147 
L 1259 4147 
z
M 628 4666 
L 2241 4666 
Q 2963 4666 3353 4366 
Q 3744 4066 3744 3513 
Q 3744 3084 3544 2831 
Q 3344 2578 2956 2516 
Q 3422 2416 3680 2098 
Q 3938 1781 3938 1306 
Q 3938 681 3513 340 
Q 3088 0 2303 0 
L 628 0 
L 628 4666 
z
" transform="scale(0.015625)"/>
       <path id="DejaVuSans-55" d="M 556 4666 
L 1191 4666 
L 1191 1831 
Q 1191 1081 1462 751 
Q 1734 422 2344 422 
Q 2950 422 3222 751 
Q 3494 1081 3494 1831 
L 3494 4666 
L 4128 4666 
L 4128 1753 
Q 4128 841 3676 375 
Q 3225 -91 2344 -91 
Q 1459 -91 1007 375 
Q 556 841 556 1753 
L 556 4666 
z
" transform="scale(0.015625)"/>
      </defs>
      <use xlink:href="#DejaVuSans-42"/>
      <use xlink:href="#DejaVuSans-55" x="68.603516"/>
      <use xlink:href="#DejaVuSans-52" x="141.796875"/>
      <use xlink:href="#DejaVuSans-4e" x="211.279297"/>
      <use xlink:href="#DejaVuSans-45" x="286.083984"/>
      <use xlink:href="#DejaVuSans-41" x="349.267578"/>
     </g>
    </g>
   </g>
  </g>
 </g>
 <defs>
  <clipPath id="p2c857799aa">
   <rect x="32.140313" y="0.72" width="394.579208" height="183.64327"/>
  </clipPath>
 </defs>
</svg>
