<?xml version="1.0" encoding="utf-8" standalone="no"?>
<!DOCTYPE svg PUBLIC "-//W3C//DTD SVG 1.1//EN"
  "http://www.w3.org/Graphics/SVG/1.1/DTD/svg11.dtd">
<svg xmlns:xlink="http://www.w3.org/1999/xlink" width="355.43952pt" height="175.43952pt" viewBox="0 0 355.43952 175.43952" xmlns="http://www.w3.org/2000/svg" version="1.1">
 <metadata>
  <rdf:RDF xmlns:dc="http://purl.org/dc/elements/1.1/" xmlns:cc="http://creativecommons.org/ns#" xmlns:rdf="http://www.w3.org/1999/02/22-rdf-syntax-ns#">
   <cc:Work>
    <dc:type rdf:resource="http://purl.org/dc/dcmitype/StillImage"/>
    <dc:date>2023-09-09T18:29:46.164560</dc:date>
    <dc:format>image/svg+xml</dc:format>
    <dc:creator>
     <cc:Agent>
      <dc:title>Matplotlib v3.7.2, https://matplotlib.org/</dc:title>
     </cc:Agent>
    </dc:creator>
   </cc:Work>
  </rdf:RDF>
 </metadata>
 <defs>
  <style type="text/css">*{stroke-linejoin: round; stroke-linecap: butt}</style>
 </defs>
 <g id="figure_1">
  <g id="patch_1">
   <path d="M 0 175.43952 
L 355.43952 175.43952 
L 355.43952 0 
L 0 0 
L 0 175.43952 
z
" style="fill: none"/>
  </g>
  <g id="axes_1">
   <g id="patch_2">
    <path d="M 36.485625 148.36327 
L 354.71952 148.36327 
L 354.71952 0.72 
L 36.485625 0.72 
L 36.485625 148.36327 
z
" style="fill: none"/>
   </g>
   <g id="matplotlib.axis_1">
    <g id="xtick_1">
     <g id="line2d_1">
      <path d="M 36.485625 148.36327 
L 36.485625 0.72 
" clip-path="url(#p860818dbcd)" style="fill: none; stroke-dasharray: 0.8,1.32; stroke-dashoffset: 0; stroke: #000000; stroke-opacity: 0.5; stroke-width: 0.8"/>
     </g>
     <g id="line2d_2">
      <defs>
       <path id="m90c7dd972d" d="M 0 0 
L 0 3.5 
" style="stroke: #000000; stroke-width: 0.8"/>
      </defs>
      <g>
       <use xlink:href="#m90c7dd972d" x="36.485625" y="148.36327" style="stroke: #000000; stroke-width: 0.8"/>
      </g>
     </g>
     <g id="text_1">
      <!-- 0 -->
      <g transform="translate(33.304375 162.961707) scale(0.1 -0.1)">
       <defs>
        <path id="DejaVuSans-30" d="M 2034 4250 
Q 1547 4250 1301 3770 
Q 1056 3291 1056 2328 
Q 1056 1369 1301 889 
Q 1547 409 2034 409 
Q 2525 409 2770 889 
Q 3016 1369 3016 2328 
Q 3016 3291 2770 3770 
Q 2525 4250 2034 4250 
z
M 2034 4750 
Q 2819 4750 3233 4129 
Q 3647 3509 3647 2328 
Q 3647 1150 3233 529 
Q 2819 -91 2034 -91 
Q 1250 -91 836 529 
Q 422 1150 422 2328 
Q 422 3509 836 4129 
Q 1250 4750 2034 4750 
z
" transform="scale(0.015625)"/>
       </defs>
       <use xlink:href="#DejaVuSans-30"/>
      </g>
     </g>
    </g>
    <g id="xtick_2">
     <g id="line2d_3">
      <path d="M 85.093173 148.36327 
L 85.093173 0.72 
" clip-path="url(#p860818dbcd)" style="fill: none; stroke-dasharray: 0.8,1.32; stroke-dashoffset: 0; stroke: #000000; stroke-opacity: 0.5; stroke-width: 0.8"/>
     </g>
     <g id="line2d_4">
      <g>
       <use xlink:href="#m90c7dd972d" x="85.093173" y="148.36327" style="stroke: #000000; stroke-width: 0.8"/>
      </g>
     </g>
     <g id="text_2">
      <!-- 5 -->
      <g transform="translate(81.911923 162.961707) scale(0.1 -0.1)">
       <defs>
        <path id="DejaVuSans-35" d="M 691 4666 
L 3169 4666 
L 3169 4134 
L 1269 4134 
L 1269 2991 
Q 1406 3038 1543 3061 
Q 1681 3084 1819 3084 
Q 2600 3084 3056 2656 
Q 3513 2228 3513 1497 
Q 3513 744 3044 326 
Q 2575 -91 1722 -91 
Q 1428 -91 1123 -41 
Q 819 9 494 109 
L 494 744 
Q 775 591 1075 516 
Q 1375 441 1709 441 
Q 2250 441 2565 725 
Q 2881 1009 2881 1497 
Q 2881 1984 2565 2268 
Q 2250 2553 1709 2553 
Q 1456 2553 1204 2497 
Q 953 2441 691 2322 
L 691 4666 
z
" transform="scale(0.015625)"/>
       </defs>
       <use xlink:href="#DejaVuSans-35"/>
      </g>
     </g>
    </g>
    <g id="xtick_3">
     <g id="line2d_5">
      <path d="M 133.70072 148.36327 
L 133.70072 0.72 
" clip-path="url(#p860818dbcd)" style="fill: none; stroke-dasharray: 0.8,1.32; stroke-dashoffset: 0; stroke: #000000; stroke-opacity: 0.5; stroke-width: 0.8"/>
     </g>
     <g id="line2d_6">
      <g>
       <use xlink:href="#m90c7dd972d" x="133.70072" y="148.36327" style="stroke: #000000; stroke-width: 0.8"/>
      </g>
     </g>
     <g id="text_3">
      <!-- 10 -->
      <g transform="translate(127.33822 162.961707) scale(0.1 -0.1)">
       <defs>
        <path id="DejaVuSans-31" d="M 794 531 
L 1825 531 
L 1825 4091 
L 703 3866 
L 703 4441 
L 1819 4666 
L 2450 4666 
L 2450 531 
L 3481 531 
L 3481 0 
L 794 0 
L 794 531 
z
" transform="scale(0.015625)"/>
       </defs>
       <use xlink:href="#DejaVuSans-31"/>
       <use xlink:href="#DejaVuSans-30" x="63.623047"/>
      </g>
     </g>
    </g>
    <g id="xtick_4">
     <g id="line2d_7">
      <path d="M 182.308268 148.36327 
L 182.308268 0.72 
" clip-path="url(#p860818dbcd)" style="fill: none; stroke-dasharray: 0.8,1.32; stroke-dashoffset: 0; stroke: #000000; stroke-opacity: 0.5; stroke-width: 0.8"/>
     </g>
     <g id="line2d_8">
      <g>
       <use xlink:href="#m90c7dd972d" x="182.308268" y="148.36327" style="stroke: #000000; stroke-width: 0.8"/>
      </g>
     </g>
     <g id="text_4">
      <!-- 15 -->
      <g transform="translate(175.945768 162.961707) scale(0.1 -0.1)">
       <use xlink:href="#DejaVuSans-31"/>
       <use xlink:href="#DejaVuSans-35" x="63.623047"/>
      </g>
     </g>
    </g>
    <g id="xtick_5">
     <g id="line2d_9">
      <path d="M 230.915815 148.36327 
L 230.915815 0.72 
" clip-path="url(#p860818dbcd)" style="fill: none; stroke-dasharray: 0.8,1.32; stroke-dashoffset: 0; stroke: #000000; stroke-opacity: 0.5; stroke-width: 0.8"/>
     </g>
     <g id="line2d_10">
      <g>
       <use xlink:href="#m90c7dd972d" x="230.915815" y="148.36327" style="stroke: #000000; stroke-width: 0.8"/>
      </g>
     </g>
     <g id="text_5">
      <!-- 20 -->
      <g transform="translate(224.553315 162.961707) scale(0.1 -0.1)">
       <defs>
        <path id="DejaVuSans-32" d="M 1228 531 
L 3431 531 
L 3431 0 
L 469 0 
L 469 531 
Q 828 903 1448 1529 
Q 2069 2156 2228 2338 
Q 2531 2678 2651 2914 
Q 2772 3150 2772 3378 
Q 2772 3750 2511 3984 
Q 2250 4219 1831 4219 
Q 1534 4219 1204 4116 
Q 875 4013 500 3803 
L 500 4441 
Q 881 4594 1212 4672 
Q 1544 4750 1819 4750 
Q 2544 4750 2975 4387 
Q 3406 4025 3406 3419 
Q 3406 3131 3298 2873 
Q 3191 2616 2906 2266 
Q 2828 2175 2409 1742 
Q 1991 1309 1228 531 
z
" transform="scale(0.015625)"/>
       </defs>
       <use xlink:href="#DejaVuSans-32"/>
       <use xlink:href="#DejaVuSans-30" x="63.623047"/>
      </g>
     </g>
    </g>
    <g id="xtick_6">
     <g id="line2d_11">
      <path d="M 279.523363 148.36327 
L 279.523363 0.72 
" clip-path="url(#p860818dbcd)" style="fill: none; stroke-dasharray: 0.8,1.32; stroke-dashoffset: 0; stroke: #000000; stroke-opacity: 0.5; stroke-width: 0.8"/>
     </g>
     <g id="line2d_12">
      <g>
       <use xlink:href="#m90c7dd972d" x="279.523363" y="148.36327" style="stroke: #000000; stroke-width: 0.8"/>
      </g>
     </g>
     <g id="text_6">
      <!-- 25 -->
      <g transform="translate(273.160863 162.961707) scale(0.1 -0.1)">
       <use xlink:href="#DejaVuSans-32"/>
       <use xlink:href="#DejaVuSans-35" x="63.623047"/>
      </g>
     </g>
    </g>
    <g id="xtick_7">
     <g id="line2d_13">
      <path d="M 328.130911 148.36327 
L 328.130911 0.72 
" clip-path="url(#p860818dbcd)" style="fill: none; stroke-dasharray: 0.8,1.32; stroke-dashoffset: 0; stroke: #000000; stroke-opacity: 0.5; stroke-width: 0.8"/>
     </g>
     <g id="line2d_14">
      <g>
       <use xlink:href="#m90c7dd972d" x="328.130911" y="148.36327" style="stroke: #000000; stroke-width: 0.8"/>
      </g>
     </g>
     <g id="text_7">
      <!-- 30 -->
      <g transform="translate(321.768411 162.961707) scale(0.1 -0.1)">
       <defs>
        <path id="DejaVuSans-33" d="M 2597 2516 
Q 3050 2419 3304 2112 
Q 3559 1806 3559 1356 
Q 3559 666 3084 287 
Q 2609 -91 1734 -91 
Q 1441 -91 1130 -33 
Q 819 25 488 141 
L 488 750 
Q 750 597 1062 519 
Q 1375 441 1716 441 
Q 2309 441 2620 675 
Q 2931 909 2931 1356 
Q 2931 1769 2642 2001 
Q 2353 2234 1838 2234 
L 1294 2234 
L 1294 2753 
L 1863 2753 
Q 2328 2753 2575 2939 
Q 2822 3125 2822 3475 
Q 2822 3834 2567 4026 
Q 2313 4219 1838 4219 
Q 1578 4219 1281 4162 
Q 984 4106 628 3988 
L 628 4550 
Q 988 4650 1302 4700 
Q 1616 4750 1894 4750 
Q 2613 4750 3031 4423 
Q 3450 4097 3450 3541 
Q 3450 3153 3228 2886 
Q 3006 2619 2597 2516 
z
" transform="scale(0.015625)"/>
       </defs>
       <use xlink:href="#DejaVuSans-33"/>
       <use xlink:href="#DejaVuSans-30" x="63.623047"/>
      </g>
     </g>
    </g>
    <g id="text_8">
     <!-- Zeit [s] -->
     <g transform="translate(177.656479 172.639832) scale(0.1 -0.1)">
      <defs>
       <path id="DejaVuSans-5a" d="M 359 4666 
L 4025 4666 
L 4025 4184 
L 1075 531 
L 4097 531 
L 4097 0 
L 288 0 
L 288 481 
L 3238 4134 
L 359 4134 
L 359 4666 
z
" transform="scale(0.015625)"/>
       <path id="DejaVuSans-65" d="M 3597 1894 
L 3597 1613 
L 953 1613 
Q 991 1019 1311 708 
Q 1631 397 2203 397 
Q 2534 397 2845 478 
Q 3156 559 3463 722 
L 3463 178 
Q 3153 47 2828 -22 
Q 2503 -91 2169 -91 
Q 1331 -91 842 396 
Q 353 884 353 1716 
Q 353 2575 817 3079 
Q 1281 3584 2069 3584 
Q 2775 3584 3186 3129 
Q 3597 2675 3597 1894 
z
M 3022 2063 
Q 3016 2534 2758 2815 
Q 2500 3097 2075 3097 
Q 1594 3097 1305 2825 
Q 1016 2553 972 2059 
L 3022 2063 
z
" transform="scale(0.015625)"/>
       <path id="DejaVuSans-69" d="M 603 3500 
L 1178 3500 
L 1178 0 
L 603 0 
L 603 3500 
z
M 603 4863 
L 1178 4863 
L 1178 4134 
L 603 4134 
L 603 4863 
z
" transform="scale(0.015625)"/>
       <path id="DejaVuSans-74" d="M 1172 4494 
L 1172 3500 
L 2356 3500 
L 2356 3053 
L 1172 3053 
L 1172 1153 
Q 1172 725 1289 603 
Q 1406 481 1766 481 
L 2356 481 
L 2356 0 
L 1766 0 
Q 1100 0 847 248 
Q 594 497 594 1153 
L 594 3053 
L 172 3053 
L 172 3500 
L 594 3500 
L 594 4494 
L 1172 4494 
z
" transform="scale(0.015625)"/>
       <path id="DejaVuSans-20" transform="scale(0.015625)"/>
       <path id="DejaVuSans-5b" d="M 550 4863 
L 1875 4863 
L 1875 4416 
L 1125 4416 
L 1125 -397 
L 1875 -397 
L 1875 -844 
L 550 -844 
L 550 4863 
z
" transform="scale(0.015625)"/>
       <path id="DejaVuSans-73" d="M 2834 3397 
L 2834 2853 
Q 2591 2978 2328 3040 
Q 2066 3103 1784 3103 
Q 1356 3103 1142 2972 
Q 928 2841 928 2578 
Q 928 2378 1081 2264 
Q 1234 2150 1697 2047 
L 1894 2003 
Q 2506 1872 2764 1633 
Q 3022 1394 3022 966 
Q 3022 478 2636 193 
Q 2250 -91 1575 -91 
Q 1294 -91 989 -36 
Q 684 19 347 128 
L 347 722 
Q 666 556 975 473 
Q 1284 391 1588 391 
Q 1994 391 2212 530 
Q 2431 669 2431 922 
Q 2431 1156 2273 1281 
Q 2116 1406 1581 1522 
L 1381 1569 
Q 847 1681 609 1914 
Q 372 2147 372 2553 
Q 372 3047 722 3315 
Q 1072 3584 1716 3584 
Q 2034 3584 2315 3537 
Q 2597 3491 2834 3397 
z
" transform="scale(0.015625)"/>
       <path id="DejaVuSans-5d" d="M 1947 4863 
L 1947 -844 
L 622 -844 
L 622 -397 
L 1369 -397 
L 1369 4416 
L 622 4416 
L 622 4863 
L 1947 4863 
z
" transform="scale(0.015625)"/>
      </defs>
      <use xlink:href="#DejaVuSans-5a"/>
      <use xlink:href="#DejaVuSans-65" x="68.505859"/>
      <use xlink:href="#DejaVuSans-69" x="130.029297"/>
      <use xlink:href="#DejaVuSans-74" x="157.8125"/>
      <use xlink:href="#DejaVuSans-20" x="197.021484"/>
      <use xlink:href="#DejaVuSans-5b" x="228.808594"/>
      <use xlink:href="#DejaVuSans-73" x="267.822266"/>
      <use xlink:href="#DejaVuSans-5d" x="319.921875"/>
     </g>
    </g>
   </g>
   <g id="matplotlib.axis_2">
    <g id="ytick_1">
     <g id="line2d_15">
      <path d="M 36.485625 142.989173 
L 354.71952 142.989173 
" clip-path="url(#p860818dbcd)" style="fill: none; stroke-dasharray: 0.8,1.32; stroke-dashoffset: 0; stroke: #000000; stroke-opacity: 0.5; stroke-width: 0.8"/>
     </g>
     <g id="line2d_16">
      <defs>
       <path id="m15b7d48eba" d="M 0 0 
L -3.5 0 
" style="stroke: #000000; stroke-width: 0.8"/>
      </defs>
      <g>
       <use xlink:href="#m15b7d48eba" x="36.485625" y="142.989173" style="stroke: #000000; stroke-width: 0.8"/>
      </g>
     </g>
     <g id="text_9">
      <!-- 140 -->
      <g transform="translate(10.398125 146.788392) scale(0.1 -0.1)">
       <defs>
        <path id="DejaVuSans-34" d="M 2419 4116 
L 825 1625 
L 2419 1625 
L 2419 4116 
z
M 2253 4666 
L 3047 4666 
L 3047 1625 
L 3713 1625 
L 3713 1100 
L 3047 1100 
L 3047 0 
L 2419 0 
L 2419 1100 
L 313 1100 
L 313 1709 
L 2253 4666 
z
" transform="scale(0.015625)"/>
       </defs>
       <use xlink:href="#DejaVuSans-31"/>
       <use xlink:href="#DejaVuSans-34" x="63.623047"/>
       <use xlink:href="#DejaVuSans-30" x="127.246094"/>
      </g>
     </g>
    </g>
    <g id="ytick_2">
     <g id="line2d_17">
      <path d="M 36.485625 121.684818 
L 354.71952 121.684818 
" clip-path="url(#p860818dbcd)" style="fill: none; stroke-dasharray: 0.8,1.32; stroke-dashoffset: 0; stroke: #000000; stroke-opacity: 0.5; stroke-width: 0.8"/>
     </g>
     <g id="line2d_18">
      <g>
       <use xlink:href="#m15b7d48eba" x="36.485625" y="121.684818" style="stroke: #000000; stroke-width: 0.8"/>
      </g>
     </g>
     <g id="text_10">
      <!-- 145 -->
      <g transform="translate(10.398125 125.484037) scale(0.1 -0.1)">
       <use xlink:href="#DejaVuSans-31"/>
       <use xlink:href="#DejaVuSans-34" x="63.623047"/>
       <use xlink:href="#DejaVuSans-35" x="127.246094"/>
      </g>
     </g>
    </g>
    <g id="ytick_3">
     <g id="line2d_19">
      <path d="M 36.485625 100.380463 
L 354.71952 100.380463 
" clip-path="url(#p860818dbcd)" style="fill: none; stroke-dasharray: 0.8,1.32; stroke-dashoffset: 0; stroke: #000000; stroke-opacity: 0.5; stroke-width: 0.8"/>
     </g>
     <g id="line2d_20">
      <g>
       <use xlink:href="#m15b7d48eba" x="36.485625" y="100.380463" style="stroke: #000000; stroke-width: 0.8"/>
      </g>
     </g>
     <g id="text_11">
      <!-- 150 -->
      <g transform="translate(10.398125 104.179682) scale(0.1 -0.1)">
       <use xlink:href="#DejaVuSans-31"/>
       <use xlink:href="#DejaVuSans-35" x="63.623047"/>
       <use xlink:href="#DejaVuSans-30" x="127.246094"/>
      </g>
     </g>
    </g>
    <g id="ytick_4">
     <g id="line2d_21">
      <path d="M 36.485625 79.076108 
L 354.71952 79.076108 
" clip-path="url(#p860818dbcd)" style="fill: none; stroke-dasharray: 0.8,1.32; stroke-dashoffset: 0; stroke: #000000; stroke-opacity: 0.5; stroke-width: 0.8"/>
     </g>
     <g id="line2d_22">
      <g>
       <use xlink:href="#m15b7d48eba" x="36.485625" y="79.076108" style="stroke: #000000; stroke-width: 0.8"/>
      </g>
     </g>
     <g id="text_12">
      <!-- 155 -->
      <g transform="translate(10.398125 82.875327) scale(0.1 -0.1)">
       <use xlink:href="#DejaVuSans-31"/>
       <use xlink:href="#DejaVuSans-35" x="63.623047"/>
       <use xlink:href="#DejaVuSans-35" x="127.246094"/>
      </g>
     </g>
    </g>
    <g id="ytick_5">
     <g id="line2d_23">
      <path d="M 36.485625 57.771753 
L 354.71952 57.771753 
" clip-path="url(#p860818dbcd)" style="fill: none; stroke-dasharray: 0.8,1.32; stroke-dashoffset: 0; stroke: #000000; stroke-opacity: 0.5; stroke-width: 0.8"/>
     </g>
     <g id="line2d_24">
      <g>
       <use xlink:href="#m15b7d48eba" x="36.485625" y="57.771753" style="stroke: #000000; stroke-width: 0.8"/>
      </g>
     </g>
     <g id="text_13">
      <!-- 160 -->
      <g transform="translate(10.398125 61.570971) scale(0.1 -0.1)">
       <defs>
        <path id="DejaVuSans-36" d="M 2113 2584 
Q 1688 2584 1439 2293 
Q 1191 2003 1191 1497 
Q 1191 994 1439 701 
Q 1688 409 2113 409 
Q 2538 409 2786 701 
Q 3034 994 3034 1497 
Q 3034 2003 2786 2293 
Q 2538 2584 2113 2584 
z
M 3366 4563 
L 3366 3988 
Q 3128 4100 2886 4159 
Q 2644 4219 2406 4219 
Q 1781 4219 1451 3797 
Q 1122 3375 1075 2522 
Q 1259 2794 1537 2939 
Q 1816 3084 2150 3084 
Q 2853 3084 3261 2657 
Q 3669 2231 3669 1497 
Q 3669 778 3244 343 
Q 2819 -91 2113 -91 
Q 1303 -91 875 529 
Q 447 1150 447 2328 
Q 447 3434 972 4092 
Q 1497 4750 2381 4750 
Q 2619 4750 2861 4703 
Q 3103 4656 3366 4563 
z
" transform="scale(0.015625)"/>
       </defs>
       <use xlink:href="#DejaVuSans-31"/>
       <use xlink:href="#DejaVuSans-36" x="63.623047"/>
       <use xlink:href="#DejaVuSans-30" x="127.246094"/>
      </g>
     </g>
    </g>
    <g id="ytick_6">
     <g id="line2d_25">
      <path d="M 36.485625 36.467397 
L 354.71952 36.467397 
" clip-path="url(#p860818dbcd)" style="fill: none; stroke-dasharray: 0.8,1.32; stroke-dashoffset: 0; stroke: #000000; stroke-opacity: 0.5; stroke-width: 0.8"/>
     </g>
     <g id="line2d_26">
      <g>
       <use xlink:href="#m15b7d48eba" x="36.485625" y="36.467397" style="stroke: #000000; stroke-width: 0.8"/>
      </g>
     </g>
     <g id="text_14">
      <!-- 165 -->
      <g transform="translate(10.398125 40.266616) scale(0.1 -0.1)">
       <use xlink:href="#DejaVuSans-31"/>
       <use xlink:href="#DejaVuSans-36" x="63.623047"/>
       <use xlink:href="#DejaVuSans-35" x="127.246094"/>
      </g>
     </g>
    </g>
    <g id="ytick_7">
     <g id="line2d_27">
      <path d="M 36.485625 15.163042 
L 354.71952 15.163042 
" clip-path="url(#p860818dbcd)" style="fill: none; stroke-dasharray: 0.8,1.32; stroke-dashoffset: 0; stroke: #000000; stroke-opacity: 0.5; stroke-width: 0.8"/>
     </g>
     <g id="line2d_28">
      <g>
       <use xlink:href="#m15b7d48eba" x="36.485625" y="15.163042" style="stroke: #000000; stroke-width: 0.8"/>
      </g>
     </g>
     <g id="text_15">
      <!-- 170 -->
      <g transform="translate(10.398125 18.962261) scale(0.1 -0.1)">
       <defs>
        <path id="DejaVuSans-37" d="M 525 4666 
L 3525 4666 
L 3525 4397 
L 1831 0 
L 1172 0 
L 2766 4134 
L 525 4134 
L 525 4666 
z
" transform="scale(0.015625)"/>
       </defs>
       <use xlink:href="#DejaVuSans-31"/>
       <use xlink:href="#DejaVuSans-37" x="63.623047"/>
       <use xlink:href="#DejaVuSans-30" x="127.246094"/>
      </g>
     </g>
    </g>
    <g id="text_16">
     <!-- 2-Norm F [N] -->
     <g transform="translate(8.318438 106.861166) rotate(-90) scale(0.1 -0.1)">
      <defs>
       <path id="DejaVuSans-2d" d="M 313 2009 
L 1997 2009 
L 1997 1497 
L 313 1497 
L 313 2009 
z
" transform="scale(0.015625)"/>
       <path id="DejaVuSans-4e" d="M 628 4666 
L 1478 4666 
L 3547 763 
L 3547 4666 
L 4159 4666 
L 4159 0 
L 3309 0 
L 1241 3903 
L 1241 0 
L 628 0 
L 628 4666 
z
" transform="scale(0.015625)"/>
       <path id="DejaVuSans-6f" d="M 1959 3097 
Q 1497 3097 1228 2736 
Q 959 2375 959 1747 
Q 959 1119 1226 758 
Q 1494 397 1959 397 
Q 2419 397 2687 759 
Q 2956 1122 2956 1747 
Q 2956 2369 2687 2733 
Q 2419 3097 1959 3097 
z
M 1959 3584 
Q 2709 3584 3137 3096 
Q 3566 2609 3566 1747 
Q 3566 888 3137 398 
Q 2709 -91 1959 -91 
Q 1206 -91 779 398 
Q 353 888 353 1747 
Q 353 2609 779 3096 
Q 1206 3584 1959 3584 
z
" transform="scale(0.015625)"/>
       <path id="DejaVuSans-72" d="M 2631 2963 
Q 2534 3019 2420 3045 
Q 2306 3072 2169 3072 
Q 1681 3072 1420 2755 
Q 1159 2438 1159 1844 
L 1159 0 
L 581 0 
L 581 3500 
L 1159 3500 
L 1159 2956 
Q 1341 3275 1631 3429 
Q 1922 3584 2338 3584 
Q 2397 3584 2469 3576 
Q 2541 3569 2628 3553 
L 2631 2963 
z
" transform="scale(0.015625)"/>
       <path id="DejaVuSans-6d" d="M 3328 2828 
Q 3544 3216 3844 3400 
Q 4144 3584 4550 3584 
Q 5097 3584 5394 3201 
Q 5691 2819 5691 2113 
L 5691 0 
L 5113 0 
L 5113 2094 
Q 5113 2597 4934 2840 
Q 4756 3084 4391 3084 
Q 3944 3084 3684 2787 
Q 3425 2491 3425 1978 
L 3425 0 
L 2847 0 
L 2847 2094 
Q 2847 2600 2669 2842 
Q 2491 3084 2119 3084 
Q 1678 3084 1418 2786 
Q 1159 2488 1159 1978 
L 1159 0 
L 581 0 
L 581 3500 
L 1159 3500 
L 1159 2956 
Q 1356 3278 1631 3431 
Q 1906 3584 2284 3584 
Q 2666 3584 2933 3390 
Q 3200 3197 3328 2828 
z
" transform="scale(0.015625)"/>
       <path id="DejaVuSans-46" d="M 628 4666 
L 3309 4666 
L 3309 4134 
L 1259 4134 
L 1259 2759 
L 3109 2759 
L 3109 2228 
L 1259 2228 
L 1259 0 
L 628 0 
L 628 4666 
z
" transform="scale(0.015625)"/>
      </defs>
      <use xlink:href="#DejaVuSans-32"/>
      <use xlink:href="#DejaVuSans-2d" x="63.623047"/>
      <use xlink:href="#DejaVuSans-4e" x="99.707031"/>
      <use xlink:href="#DejaVuSans-6f" x="174.511719"/>
      <use xlink:href="#DejaVuSans-72" x="235.693359"/>
      <use xlink:href="#DejaVuSans-6d" x="275.056641"/>
      <use xlink:href="#DejaVuSans-20" x="372.46875"/>
      <use xlink:href="#DejaVuSans-46" x="404.255859"/>
      <use xlink:href="#DejaVuSans-20" x="461.775391"/>
      <use xlink:href="#DejaVuSans-5b" x="493.5625"/>
      <use xlink:href="#DejaVuSans-4e" x="532.576172"/>
      <use xlink:href="#DejaVuSans-5d" x="607.380859"/>
     </g>
    </g>
   </g>
   <g id="line2d_29">
    <path d="M 36.485625 4.101144 
L 354.71952 4.101144 
L 354.71952 4.101144 
" clip-path="url(#p860818dbcd)" style="fill: none; stroke: #0000ff; stroke-opacity: 0.5; stroke-width: 2.1; stroke-linecap: square"/>
   </g>
   <g id="line2d_30">
    <path d="M 36.485625 137.009636 
L 36.722133 140.452881 
L 36.825906 139.974111 
L 36.843152 137.963487 
L 36.901148 138.948415 
L 36.981959 138.776325 
L 37.0387 135.581838 
L 37.114979 135.999825 
L 37.193847 136.757462 
L 37.292759 136.337355 
L 37.37751 137.184117 
L 37.467787 134.974109 
L 37.526314 135.148273 
L 37.683187 137.050346 
L 37.762074 135.999711 
L 37.879762 136.829223 
L 38.016607 135.248398 
L 38.09448 136.716025 
L 38.19267 136.32296 
L 38.329638 137.383291 
L 38.524813 134.240849 
L 38.996259 137.72214 
L 39.133255 137.137571 
L 39.155764 135.995005 
L 39.231336 136.781764 
L 39.310606 136.921754 
L 39.548955 138.800756 
L 39.798975 137.120283 
L 40.11396 140.952515 
L 40.192664 140.51168 
L 40.276426 138.788921 
L 40.358399 139.013659 
L 40.448987 140.378839 
L 40.606283 138.87799 
L 40.684483 138.471723 
L 40.763127 138.703465 
L 40.927457 137.060395 
L 41.0032 138.619648 
L 41.409993 135.914263 
L 41.487338 136.117548 
L 41.651211 138.918501 
L 41.823458 137.382483 
L 41.901857 137.79275 
L 42.137641 134.713511 
L 42.294408 136.934644 
L 42.455606 136.100212 
L 42.54976 136.210326 
L 42.707154 133.856567 
L 42.7851 134.424404 
L 42.953874 136.148196 
L 43.023988 135.656494 
L 43.117857 136.276022 
L 43.196444 136.252402 
L 43.368409 134.883913 
L 43.433033 135.572341 
L 43.512664 135.18362 
L 43.669689 136.578389 
L 43.746495 137.243873 
L 43.931016 134.760003 
L 44.001636 133.553127 
L 44.078397 134.054168 
L 44.320587 137.293573 
L 44.41528 137.892585 
L 44.491052 136.959258 
L 44.651051 138.594681 
L 45.081382 135.428526 
L 45.375294 138.253082 
L 45.512263 136.438588 
L 45.690012 140.326749 
L 45.785794 143.240323 
L 46.102078 136.834962 
L 46.201909 137.717701 
L 46.262643 138.821232 
L 46.344214 138.646111 
L 46.751251 136.215514 
L 47.009051 137.834476 
L 47.089101 137.64708 
L 47.343248 139.096332 
L 47.404023 138.794469 
L 47.484257 138.567769 
L 47.662511 136.221216 
L 47.728983 136.848142 
L 47.809125 136.829541 
L 47.914431 137.088274 
L 48.08234 138.806857 
L 48.250485 134.702008 
L 48.262362 134.416231 
L 48.333467 134.544207 
L 48.420531 136.256397 
L 48.636684 138.571413 
L 48.73415 138.211615 
L 48.890705 136.105904 
L 49.125988 139.321817 
L 49.28485 137.350416 
L 49.361677 136.868319 
L 49.55674 138.599736 
L 49.603147 138.701973 
L 49.713868 138.034664 
L 49.813426 138.160796 
L 49.911719 135.763803 
L 50.098396 139.311365 
L 50.165291 139.046024 
L 50.428358 136.590443 
L 50.830462 141.252998 
L 50.889523 141.037837 
L 51.126183 140.197167 
L 51.281319 138.526771 
L 51.359442 139.17926 
L 51.458122 138.034642 
L 51.693239 132.934488 
L 51.790701 133.446162 
L 52.104421 137.863554 
L 52.182654 137.470343 
L 52.280769 137.954272 
L 52.515838 140.476611 
L 52.593699 140.210929 
L 52.965856 135.665413 
L 53.004745 138.226 
L 53.071256 138.174686 
L 53.160996 136.959088 
L 53.675324 141.976141 
L 53.730965 141.434106 
L 53.809336 138.96858 
L 53.900768 139.080137 
L 53.966263 140.784081 
L 54.161466 140.261763 
L 54.220843 140.546403 
L 54.376905 138.645523 
L 54.651996 141.180082 
L 54.711432 140.686518 
L 54.789508 138.61663 
L 54.867772 139.010892 
L 54.985154 138.9299 
L 55.161542 139.816727 
L 55.338035 139.261424 
L 55.396735 139.368791 
L 55.455934 139.292862 
L 55.568364 138.840039 
L 55.592983 138.997238 
L 56.009517 141.000346 
L 56.185984 138.64505 
L 56.337148 139.963891 
L 56.475391 139.749523 
L 56.539735 139.312068 
L 56.583858 140.092574 
L 56.583942 139.240772 
L 56.661914 139.667199 
L 56.891302 140.039436 
L 56.927858 139.649423 
L 56.948543 140.54139 
L 57.02546 140.343419 
L 57.116766 139.040822 
L 57.135669 139.441594 
L 57.214251 138.760153 
L 57.307814 139.576973 
L 57.397809 139.521938 
L 57.513393 138.829074 
L 57.626039 139.131517 
L 57.707948 138.906526 
L 57.863873 139.695794 
L 57.980683 138.232227 
L 58.020036 140.782827 
L 58.098944 140.220334 
L 58.353447 133.173158 
L 58.43134 134.649305 
L 58.588334 136.964354 
L 58.705719 136.425426 
L 58.768533 138.90656 
L 58.84413 138.174059 
L 59.024362 136.797169 
L 59.181932 138.228004 
L 59.26015 139.16344 
L 59.316876 139.134576 
L 59.513059 138.899191 
L 59.591536 137.336659 
L 59.651441 137.353462 
L 59.73075 138.341014 
L 59.872873 138.571035 
L 59.964493 139.993286 
L 60.140171 138.741634 
L 60.318207 136.500081 
L 60.39691 136.872379 
L 60.53755 134.504253 
L 60.631774 134.468291 
L 60.866974 133.075971 
L 60.885721 133.508402 
L 61.728095 137.208332 
L 62.185162 137.906061 
L 62.612388 137.480045 
L 62.6297 136.319563 
L 62.707573 137.176627 
L 62.806069 138.314264 
L 62.963632 135.930201 
L 63.257037 142.679636 
L 63.278196 140.984539 
L 63.512803 139.866436 
L 63.531214 138.689666 
L 63.668029 137.970753 
L 63.807902 140.246335 
L 64.080121 136.931163 
L 64.259914 140.176351 
L 64.343131 140.532663 
L 64.492335 139.465092 
L 64.688396 134.296942 
L 64.747668 134.590956 
L 64.844067 136.220832 
L 65.028836 133.56942 
L 65.13835 133.637134 
L 65.236215 136.596917 
L 65.316789 137.559016 
L 65.471731 137.104916 
L 65.687233 134.669259 
L 65.849162 136.114301 
L 65.903019 136.078013 
L 66.006625 135.228184 
L 66.059679 135.65917 
L 66.139072 137.839638 
L 66.212628 136.543073 
L 66.330358 136.173651 
L 66.604684 137.78723 
L 66.780941 137.240136 
L 66.859085 136.733682 
L 66.93776 136.825221 
L 67.113686 137.872386 
L 67.193047 138.354741 
L 67.251459 137.908098 
L 67.427055 138.760717 
L 67.505762 138.64524 
L 67.605812 138.394094 
L 67.75992 136.624332 
L 67.917616 138.232136 
L 68.074582 135.994723 
L 68.231333 133.328542 
L 68.390057 134.515268 
L 68.546743 136.400692 
L 68.721815 134.791231 
L 68.878207 138.933283 
L 69.01439 139.392088 
L 69.033804 140.418494 
L 69.133818 139.603938 
L 69.30083 139.303509 
L 69.301157 139.647513 
L 69.397154 137.800207 
L 69.768486 142.216086 
L 69.962833 144.982126 
L 70.100055 144.584193 
L 70.256776 143.680292 
L 70.511437 139.754903 
L 70.608968 137.692811 
L 70.746031 133.655784 
L 70.96068 134.858998 
L 71.138439 134.178844 
L 71.234333 135.092243 
L 71.317482 134.919015 
L 71.392573 135.341475 
L 71.548605 138.779275 
L 71.630262 139.120819 
L 71.784412 139.255603 
L 71.843204 140.559461 
L 71.886485 140.507268 
L 71.960837 140.199337 
L 72.117262 142.036597 
L 72.196482 141.98982 
L 72.37341 137.449513 
L 72.491766 136.888571 
L 72.510393 138.105207 
L 72.626911 138.294942 
L 72.686071 137.692028 
L 72.765343 138.085799 
L 72.842837 136.796819 
L 72.999253 136.128052 
L 73.118294 139.522503 
L 73.351686 138.06749 
L 73.431038 137.187624 
L 73.489073 137.737621 
L 73.666899 138.4428 
L 73.745892 139.07596 
L 73.861474 137.748237 
L 73.94062 138.027334 
L 73.998806 139.047665 
L 74.081124 138.630351 
L 74.153045 137.536424 
L 74.301387 141.412054 
L 74.481629 139.345878 
L 74.749331 135.842262 
L 74.866315 136.997673 
L 74.964624 136.717736 
L 75.125378 130.826662 
L 75.200596 132.232473 
L 75.279372 133.885915 
L 75.358945 133.85795 
L 75.441438 132.528982 
L 75.517263 133.364725 
L 75.77017 131.437221 
L 75.98584 131.442757 
L 76.005081 134.681368 
L 76.084352 132.186775 
L 76.221503 133.755992 
L 76.338925 136.758568 
L 76.416961 136.778758 
L 76.56613 137.060474 
L 76.653422 140.222284 
L 76.729706 138.602032 
L 76.749152 138.890434 
L 76.875735 139.927907 
L 76.911479 141.678689 
L 77.063598 138.879388 
L 77.143371 137.6446 
L 77.377227 138.051371 
L 77.594066 134.372092 
L 77.633225 134.263018 
L 77.791722 133.306752 
L 77.837812 133.651705 
L 77.869567 133.678795 
L 78.046642 134.859143 
L 78.147214 134.491607 
L 78.191235 133.741673 
L 78.360656 136.679536 
L 78.508278 136.048543 
L 78.673689 133.816892 
L 78.693039 134.559404 
L 78.820562 134.654513 
L 78.863198 134.590422 
L 79.262769 129.803484 
L 79.401845 132.304735 
L 79.497574 132.255359 
L 79.654819 134.864158 
L 79.83466 137.169956 
L 79.913134 137.543859 
L 79.976233 138.672221 
L 80.069397 138.619085 
L 80.226358 140.60625 
L 80.304381 140.000346 
L 80.545271 137.85017 
L 80.560598 140.485508 
L 80.63928 138.128221 
L 80.69897 138.086579 
L 80.817379 137.139456 
L 80.874962 138.26574 
L 81.051727 135.231352 
L 81.114092 135.875625 
L 81.21053 138.427073 
L 81.227215 136.886283 
L 81.365 135.434165 
L 81.602022 138.284262 
L 81.798469 136.230862 
L 81.937694 137.651098 
L 81.993801 135.927203 
L 82.171572 137.126481 
L 82.269076 135.839311 
L 82.351555 136.219498 
L 82.406654 136.292511 
L 82.563871 138.241663 
L 82.705064 138.126252 
L 82.724337 137.901723 
L 82.825355 138.985983 
L 82.90106 138.779333 
L 82.981511 138.332784 
L 83.213647 140.191088 
L 83.704168 135.809476 
L 83.78727 136.168142 
L 83.861121 137.042723 
L 83.959201 136.791214 
L 84.11496 134.927293 
L 84.591565 140.374332 
L 84.745007 136.97655 
L 84.823218 137.163719 
L 84.940388 139.219466 
L 84.999474 138.933646 
L 85.175141 141.051024 
L 85.646502 135.507539 
L 85.951348 132.842281 
L 86.117073 135.166411 
L 86.220058 136.96873 
L 86.629222 139.411477 
L 86.725813 139.171872 
L 86.883347 136.765544 
L 87.019558 137.510256 
L 87.449985 135.723764 
L 87.529721 135.961859 
L 87.587767 136.74424 
L 87.764911 134.94603 
L 87.963851 136.508004 
L 88.256289 135.068831 
L 88.318297 133.500094 
L 88.394296 133.765977 
L 88.590475 134.969826 
L 88.762111 133.344125 
L 88.894077 136.785529 
L 88.904656 136.509936 
L 88.99809 135.398478 
L 89.082584 135.317534 
L 89.259191 137.760204 
L 89.303644 136.465868 
L 89.474558 138.957301 
L 89.533003 138.914245 
L 89.690145 139.091663 
L 89.751129 138.318207 
L 89.791388 139.597702 
L 89.854044 139.58389 
L 90.027086 139.539885 
L 90.10649 140.394508 
L 90.183122 139.04387 
L 90.261322 139.501708 
L 90.340657 140.120058 
L 90.421253 138.856745 
L 90.518111 138.562113 
L 90.602001 136.918453 
L 90.673521 138.560331 
L 90.751106 138.076302 
L 90.915902 136.522416 
L 90.987474 136.66439 
L 91.077369 136.030139 
L 91.240723 136.343572 
L 91.320815 135.954352 
L 91.396889 137.695677 
L 91.480534 137.435032 
L 91.556454 136.640187 
L 91.808147 139.588956 
L 91.887546 139.366547 
L 91.96507 139.033441 
L 92.042939 140.127584 
L 92.123847 140.009217 
L 92.298259 136.248978 
L 92.455502 138.568618 
L 92.533839 138.512368 
L 92.690621 137.802145 
L 92.768624 138.083629 
L 92.946002 137.442736 
L 93.103295 139.279461 
L 93.18066 138.908351 
L 93.340234 136.675316 
L 93.514066 138.938231 
L 93.82744 140.04533 
L 93.915441 140.81668 
L 94.064078 139.68785 
L 94.143305 139.69555 
L 94.260486 136.911882 
L 94.31724 137.661184 
L 94.39916 139.403691 
L 94.571695 137.230139 
L 94.631965 138.052821 
L 94.718082 136.829382 
L 94.885902 139.041019 
L 94.964344 139.03959 
L 95.044962 139.339817 
L 95.200467 136.658805 
L 95.279506 136.94881 
L 95.378098 138.150361 
L 95.44157 137.888957 
L 95.535732 137.772164 
L 95.612303 136.511359 
L 95.692146 137.088438 
L 95.782774 136.703316 
L 95.789198 138.265126 
L 95.848861 138.013343 
L 96.025672 139.80609 
L 96.26148 137.665336 
L 96.320336 138.262202 
L 96.340535 137.754426 
L 96.420228 137.672732 
L 96.6039 136.429613 
L 96.694561 137.243438 
L 96.752928 137.005092 
L 96.831871 136.2933 
L 96.988185 138.152766 
L 97.06627 136.606696 
L 97.224333 138.085099 
L 97.345509 136.797385 
L 97.403746 137.361244 
L 97.484804 136.883691 
L 97.580998 134.299444 
L 97.639096 134.906053 
L 97.776506 134.943622 
L 97.874452 137.999166 
L 98.051273 137.918381 
L 98.129614 137.441379 
L 98.149342 138.214251 
L 98.386122 137.558248 
L 98.464238 138.301083 
L 98.484282 139.596373 
L 98.544046 138.855346 
L 98.914732 133.718485 
L 99.014004 134.493401 
L 99.112543 134.260533 
L 99.17169 135.676241 
L 99.189445 133.876302 
L 99.268712 133.640141 
L 99.445486 132.511746 
L 99.46456 134.087043 
L 99.5814 134.060038 
L 99.659328 137.33143 
L 99.738574 136.699607 
L 99.816813 138.080575 
L 99.935383 138.052438 
L 100.013833 137.325773 
L 100.032318 139.232196 
L 100.112838 138.086342 
L 100.209408 139.421867 
L 100.267818 138.183082 
L 100.366175 138.474374 
L 100.465553 137.249776 
L 100.582097 137.761362 
L 100.661374 136.466689 
L 100.719447 138.633947 
L 101.126482 135.387517 
L 101.188779 135.909039 
L 101.228333 136.095818 
L 101.365074 135.703882 
L 101.413957 135.936016 
L 101.482392 134.285083 
L 101.561072 133.051013 
L 101.640949 134.936172 
L 101.799966 133.335905 
L 101.85566 135.617078 
L 101.934084 134.798074 
L 102.014806 134.997502 
L 102.157694 135.050049 
L 102.179289 134.232957 
L 102.252534 135.599663 
L 102.426249 134.109505 
L 102.504819 135.701931 
L 102.589428 135.685912 
L 102.662267 134.980483 
L 102.900425 137.089764 
L 103.052527 137.566238 
L 103.252214 139.837169 
L 103.329278 138.321823 
L 103.389034 138.678358 
L 103.484858 139.884577 
L 103.544505 138.993415 
L 103.702994 138.577343 
L 103.740597 137.582231 
L 103.954524 139.252505 
L 104.15518 138.519384 
L 104.217606 138.550505 
L 104.365965 136.532171 
L 104.446472 137.560774 
L 104.522863 137.298264 
L 104.567379 137.348897 
L 104.860699 135.247282 
L 105.055203 137.012041 
L 105.153253 137.673063 
L 105.17323 137.223516 
L 105.643515 132.365366 
L 105.685098 134.304317 
L 105.840896 132.409611 
L 106.015464 133.563347 
L 106.152902 134.485565 
L 106.237597 133.795276 
L 106.309168 135.044742 
L 106.466778 134.743486 
L 106.642204 136.30625 
L 106.800556 135.718606 
L 106.877605 135.86796 
L 107.171411 138.995101 
L 107.289139 137.612252 
L 107.623517 138.65563 
L 107.704274 139.295792 
L 107.898667 137.929041 
L 107.93727 138.239134 
L 108.015877 137.731265 
L 108.097178 137.771446 
L 108.183126 138.35523 
L 108.389249 137.260362 
L 108.819524 140.057199 
L 109.068847 136.247564 
L 109.153224 137.645265 
L 109.475099 133.802161 
L 109.702561 133.550545 
L 109.783878 136.4503 
L 109.879542 136.898134 
L 110.046183 135.212306 
L 110.271762 137.163155 
L 110.447405 137.829389 
L 110.605065 136.032933 
L 110.683199 137.223616 
L 110.761166 137.033346 
L 111.173511 134.109485 
L 111.250284 134.132176 
L 111.407964 134.806965 
L 111.486617 133.931313 
L 111.600632 134.228703 
L 111.89712 137.432585 
L 111.979443 136.76788 
L 112.060487 137.032839 
L 112.135147 135.828668 
L 112.387124 137.317745 
L 112.471544 137.699124 
L 112.545248 137.465672 
L 112.62275 135.818588 
L 112.703947 135.985378 
L 112.861013 138.044203 
L 112.964616 138.175575 
L 113.114457 137.738894 
L 113.270911 137.992728 
L 113.36997 136.346474 
L 113.507985 139.275988 
L 113.607596 135.639007 
L 113.784867 136.931727 
L 113.841116 136.146156 
L 113.997838 136.865286 
L 114.083252 135.572115 
L 114.1739 136.606419 
L 114.258444 135.587283 
L 114.453077 137.305804 
L 114.581387 133.709572 
L 114.668952 134.615199 
L 114.805793 132.863145 
L 114.884247 133.327991 
L 115.039894 132.879872 
L 115.078785 134.096676 
L 115.149584 134.004708 
L 115.216547 134.350007 
L 115.450975 137.772244 
L 115.490292 136.749086 
L 115.591452 136.56652 
L 115.70747 138.425208 
L 115.969575 137.213618 
L 116.118789 135.005364 
L 116.196753 134.965424 
L 116.274954 133.88529 
L 116.489766 136.000215 
L 116.533867 135.362963 
L 116.667385 137.183333 
L 116.765412 137.993547 
L 116.844509 139.949535 
L 117.001526 139.099122 
L 117.100636 140.792031 
L 117.237289 139.716025 
L 117.256634 138.192207 
L 117.473758 136.392277 
L 117.648221 133.775857 
L 117.736071 134.137124 
L 117.804792 133.839501 
L 117.885938 132.883049 
L 118.01728 133.537599 
L 118.064875 133.140204 
L 118.139691 134.292087 
L 118.216955 134.237847 
L 118.295683 133.928728 
L 118.491195 134.69971 
L 118.746924 137.476414 
L 118.805394 135.870202 
L 118.86491 136.112598 
L 119.120604 139.219008 
L 119.374153 136.640302 
L 119.495192 135.262251 
L 119.530565 132.60437 
L 119.550037 134.463053 
L 119.648429 135.705812 
L 119.674516 137.637146 
L 119.844248 134.619005 
L 119.926182 134.845724 
L 120.314579 141.603356 
L 120.411666 141.044239 
L 120.489649 139.73827 
L 120.587817 140.07653 
L 120.666216 139.735897 
L 120.844207 140.303191 
L 121.139106 136.110825 
L 121.21925 136.157959 
L 121.334702 136.145346 
L 121.37344 135.050726 
L 121.550476 136.096253 
L 121.726184 134.592639 
L 121.981575 136.354919 
L 122.02285 135.899085 
L 122.19701 138.476214 
L 122.275128 137.988379 
L 122.433669 137.365345 
L 122.522762 138.171042 
L 122.593922 137.681767 
L 122.638326 137.707876 
L 122.700024 137.429359 
L 122.862355 140.753678 
L 122.999242 138.494937 
L 123.11571 140.727816 
L 123.174835 139.865142 
L 123.332357 138.661554 
L 123.43401 139.418115 
L 123.508381 138.578122 
L 123.665336 134.996161 
L 123.744689 135.193411 
L 123.842268 135.899408 
L 124.023917 134.406379 
L 124.061686 135.681281 
L 124.137404 134.288858 
L 124.313535 135.846544 
L 124.498211 134.440844 
L 124.589128 134.375527 
L 124.628097 133.789924 
L 124.810704 135.786954 
L 125.0821 134.068223 
L 125.213074 134.50068 
L 125.441672 136.145673 
L 125.480347 135.792535 
L 125.593858 132.929299 
L 125.74853 132.18943 
L 125.926819 131.805074 
L 126.005124 132.427937 
L 126.082665 132.141222 
L 126.515455 133.620122 
L 126.672369 134.628358 
L 126.751231 135.050809 
L 127.046844 133.729799 
L 127.144414 133.894635 
L 127.499865 139.513016 
L 127.53845 138.456724 
L 127.616591 138.731687 
L 127.715286 140.094229 
L 127.792563 138.790062 
L 127.854171 140.07168 
L 127.989172 140.034968 
L 128.264054 134.515467 
L 128.341969 137.042506 
L 128.424859 136.188637 
L 128.520039 135.225288 
L 128.59751 136.279881 
L 128.762237 135.597318 
L 128.841444 136.210608 
L 128.989416 135.880099 
L 129.028269 136.023785 
L 129.087129 137.729255 
L 129.186707 135.961072 
L 129.247144 136.504529 
L 129.4043 138.216175 
L 129.502815 138.557078 
L 129.560862 138.438883 
L 129.682894 138.658547 
L 129.815637 140.304386 
L 129.952344 140.246343 
L 130.070717 142.440828 
L 130.206798 139.645763 
L 130.285282 139.185565 
L 130.363785 139.998094 
L 130.46179 138.52359 
L 130.559165 138.822131 
L 130.661827 139.585223 
L 130.852236 135.670825 
L 130.931757 136.740627 
L 131.012867 136.661117 
L 131.107828 136.880869 
L 131.200953 136.090392 
L 131.264416 136.903253 
L 131.440468 134.654205 
L 131.519422 134.866419 
L 131.618118 134.711397 
L 131.760385 137.494542 
L 131.871557 137.254009 
L 131.949589 137.255625 
L 132.087219 138.893403 
L 132.189765 138.834497 
L 132.355652 142.169117 
L 132.461237 142.534023 
L 132.479403 141.23522 
L 132.616569 139.69719 
L 132.656342 140.755946 
L 132.734762 140.090253 
L 132.832869 140.255675 
L 132.910891 140.757341 
L 132.98889 140.044234 
L 133.145795 136.699493 
L 133.208586 136.247495 
L 133.442208 137.155819 
L 133.539676 135.367801 
L 133.557317 135.756513 
L 133.695124 133.345539 
L 133.852675 134.751811 
L 134.110028 133.503516 
L 134.185472 133.618009 
L 134.265582 133.489427 
L 134.358731 133.830308 
L 134.436459 134.849995 
L 134.534906 134.77133 
L 134.577584 134.304007 
L 134.848047 138.144717 
L 134.98631 137.278062 
L 135.066241 138.489309 
L 135.082249 138.266289 
L 135.199298 138.131939 
L 135.321485 136.826607 
L 135.336403 137.896061 
L 135.396104 136.604585 
L 135.496632 134.746265 
L 135.594021 135.020361 
L 135.65145 134.83051 
L 135.729272 135.268066 
L 135.905623 134.808097 
L 135.971092 135.558502 
L 136.044524 134.734446 
L 136.223802 136.593782 
L 136.284631 136.79442 
L 136.557901 134.783509 
L 136.637458 136.067958 
L 136.771296 133.668387 
L 136.850653 134.69697 
L 136.948126 134.363045 
L 137.14522 136.19204 
L 137.22244 135.850905 
L 137.379229 136.181496 
L 137.458005 136.752614 
L 137.658546 141.828814 
L 137.910192 138.139269 
L 138.164507 140.869227 
L 138.49992 137.529052 
L 138.557557 138.481242 
L 138.717414 139.6255 
L 138.81797 138.615654 
L 138.831413 139.709996 
L 139.205483 136.144006 
L 139.283809 135.362955 
L 139.420883 135.949623 
L 139.482761 135.123368 
L 139.540313 135.341589 
L 139.736795 137.791186 
L 139.787807 137.292114 
L 139.853398 137.140787 
L 140.048708 137.770842 
L 140.263563 140.708191 
L 140.499432 138.319534 
L 140.577481 138.117646 
L 140.675507 137.308897 
L 140.776038 137.880218 
L 140.832168 137.835014 
L 141.06973 135.056983 
L 141.146275 135.734398 
L 141.227773 135.407079 
L 141.479211 136.939914 
L 141.559543 136.083648 
L 141.635836 136.095281 
L 141.831726 136.908632 
L 141.989116 137.722877 
L 142.073101 139.380063 
L 142.539828 137.381871 
L 142.611726 137.032743 
L 142.773634 135.446343 
L 142.985891 134.555226 
L 143.006398 135.65773 
L 143.096547 134.280264 
L 143.201862 134.405668 
L 143.33947 135.782261 
L 143.419233 134.018212 
L 143.515366 135.070072 
L 143.740176 132.079903 
L 143.848741 132.018068 
L 144.017033 134.471544 
L 144.096297 133.432253 
L 144.134884 134.286699 
L 144.235066 136.108451 
L 144.330292 134.353013 
L 144.409775 134.8152 
L 144.564916 136.861469 
L 144.704276 135.793341 
L 144.880274 138.402986 
L 144.899202 137.661533 
L 144.960608 137.341045 
L 145.039864 137.81895 
L 145.198545 140.024517 
L 145.31195 138.552512 
L 145.434896 140.738922 
L 145.744682 135.889984 
L 145.883655 137.187994 
L 146.000141 137.102882 
L 146.09788 139.530817 
L 146.176667 138.333055 
L 146.333103 136.667969 
L 146.411739 136.716702 
L 146.569157 137.55222 
L 146.648226 137.407791 
L 146.871578 136.599854 
L 146.980694 136.772123 
L 147.156811 141.72941 
L 147.236767 141.352253 
L 147.314149 141.563705 
L 147.415199 140.071267 
L 147.535751 140.490446 
L 147.589402 140.236226 
L 147.901572 133.904493 
L 147.983155 133.829467 
L 148.353343 136.162598 
L 148.432974 136.304951 
L 148.622774 135.137322 
L 148.882658 137.75749 
L 149.039823 135.805311 
L 149.136812 135.84649 
L 149.176395 136.507198 
L 149.333525 135.930823 
L 149.469701 137.065628 
L 149.49513 138.235815 
L 149.606131 137.800364 
L 149.647819 136.752292 
L 149.823738 139.330386 
L 149.902911 138.779385 
L 149.980673 137.733947 
L 150.13859 139.127817 
L 150.306005 136.983151 
L 150.484552 141.024088 
L 150.578985 140.062095 
L 150.736784 138.021249 
L 151.029452 140.769788 
L 151.109871 140.466468 
L 151.284285 135.658658 
L 151.500912 136.878081 
L 151.520672 136.840957 
L 151.599249 136.976168 
L 151.853443 135.151021 
L 152.089693 137.635238 
L 152.171955 137.524699 
L 152.284791 137.862483 
L 152.344066 138.972449 
L 152.422502 138.842827 
L 152.501437 138.288525 
L 152.600168 140.273585 
L 152.814483 137.699605 
L 152.893647 137.49514 
L 153.048609 135.965312 
L 153.16941 135.685611 
L 153.244981 134.539174 
L 153.303492 135.509386 
L 153.42081 133.744718 
L 153.519227 134.115178 
L 153.637951 135.895238 
L 153.740041 135.852144 
L 153.777415 135.981215 
L 153.872515 136.732207 
L 153.953282 136.208306 
L 154.02922 136.869035 
L 154.127714 136.76821 
L 154.188209 135.57009 
L 154.266363 135.598427 
L 154.362824 135.670186 
L 154.441552 135.388985 
L 154.518845 135.794779 
L 154.838124 133.565675 
L 154.930622 132.889132 
L 155.008292 134.785158 
L 155.149557 135.01004 
L 155.263081 133.579551 
L 155.440889 135.379353 
L 155.496919 137.497808 
L 155.575365 136.449562 
L 155.654531 136.388114 
L 155.732153 137.049209 
L 155.814768 136.214331 
L 155.829575 138.645254 
L 155.908219 137.130223 
L 155.987363 137.108344 
L 156.065041 137.408402 
L 156.163037 137.330192 
L 156.592561 134.160768 
L 156.633678 134.259393 
L 156.790274 133.822213 
L 156.852141 135.098136 
L 156.908064 134.768697 
L 156.966771 133.674217 
L 157.199527 136.988061 
L 157.425602 139.22911 
L 157.600781 136.968246 
L 157.698831 137.194725 
L 157.914295 134.298425 
L 157.992318 134.716387 
L 158.090081 133.46113 
L 158.228063 133.412618 
L 158.269837 132.532948 
L 158.384513 132.824666 
L 158.406756 132.784969 
L 158.502714 132.33886 
L 158.579931 133.057715 
L 158.65846 132.09424 
L 158.739209 133.344955 
L 158.81828 133.185109 
L 159.055176 134.995075 
L 159.370187 139.657025 
L 159.741466 137.311894 
L 159.779488 137.641062 
L 159.897288 138.257802 
L 159.937769 139.356169 
L 160.017001 138.30186 
L 160.09777 138.319189 
L 160.192388 138.224598 
L 160.271085 138.405659 
L 160.427254 139.044086 
L 160.583606 138.688951 
L 160.760147 136.024992 
L 160.839092 136.417594 
L 160.917888 136.0228 
L 160.996325 134.314561 
L 161.1593 135.470608 
L 161.23175 135.559182 
L 161.312651 136.518724 
L 161.407411 135.34485 
L 161.485252 136.512101 
L 161.643522 134.235731 
L 161.806426 136.716145 
L 161.880399 136.375589 
L 161.898968 138.016959 
L 161.9622 136.3525 
L 162.056245 136.222198 
L 162.155889 135.557414 
L 162.214644 136.160508 
L 162.292339 135.634504 
L 162.449557 138.200177 
L 162.621302 137.838945 
L 162.704265 138.867719 
L 162.78354 138.616931 
L 162.942579 137.983469 
L 163.095903 140.001241 
L 163.175168 138.146662 
L 163.255645 138.832793 
L 163.509058 137.538106 
L 163.66305 139.086578 
L 163.903843 137.997942 
L 164.075482 139.217319 
L 164.250735 138.270422 
L 164.330183 137.926868 
L 164.447445 137.96031 
L 164.59121 139.180539 
L 164.712793 137.698148 
L 164.885534 136.032155 
L 165.070953 137.184072 
L 165.224492 136.26276 
L 165.28166 136.165622 
L 165.357082 136.325649 
L 165.452093 136.007789 
L 165.550344 134.601961 
L 165.614154 134.65974 
L 165.707527 134.275344 
L 166.119022 130.706153 
L 166.334378 131.044091 
L 166.512185 135.041537 
L 166.904265 139.10291 
L 167.00083 138.695801 
L 167.060181 139.774071 
L 167.158145 138.915375 
L 167.254951 138.935858 
L 167.314812 138.659862 
L 167.413685 138.741963 
L 167.568665 138.374926 
L 167.646973 137.636312 
L 167.890136 138.897524 
L 167.979708 138.463952 
L 168.057946 139.381387 
L 168.136702 138.584779 
L 168.353168 139.115048 
L 168.52877 137.407239 
L 168.688705 137.944504 
L 168.70551 136.518587 
L 168.783889 137.218078 
L 168.880846 137.4224 
L 168.94161 138.05914 
L 169.017939 137.831653 
L 169.097489 137.684843 
L 169.254017 138.593817 
L 169.387129 138.47877 
L 169.412632 136.803253 
L 169.527848 136.561444 
L 169.684618 133.926831 
L 169.763362 134.749224 
L 169.841285 134.760612 
L 170.077174 133.552486 
L 170.260088 135.999758 
L 170.312364 137.750722 
L 170.411044 137.525737 
L 170.476028 138.196019 
L 170.567893 137.857012 
L 170.828254 135.285148 
L 170.984617 135.586368 
L 171.103222 135.323284 
L 171.121887 134.525887 
L 171.284901 136.324594 
L 171.480791 135.344276 
L 171.69738 138.634523 
L 172.165522 134.78564 
L 172.303909 137.354436 
L 172.343921 137.199953 
L 172.42111 136.231582 
L 172.596913 137.089861 
L 172.758325 137.795742 
L 172.833363 137.269533 
L 172.911757 138.259567 
L 173.014292 136.464414 
L 173.243309 137.873529 
L 173.319775 135.902895 
L 173.395178 135.913538 
L 173.492732 135.905352 
L 173.571338 136.071179 
L 173.810118 137.558634 
L 173.866484 136.33617 
L 173.963651 136.357728 
L 174.080656 136.589563 
L 174.217943 138.383402 
L 174.570099 135.608285 
L 174.687292 134.591911 
L 174.768293 133.826886 
L 174.864721 134.538446 
L 174.943278 134.25527 
L 175.259183 135.969342 
L 175.374611 135.61396 
L 175.589741 137.999099 
L 175.670603 137.578759 
L 175.747042 138.277351 
L 175.903859 136.112181 
L 175.999187 137.317945 
L 176.123973 136.970305 
L 176.218713 138.801144 
L 176.241252 137.57745 
L 176.373481 138.531375 
L 176.431169 136.424772 
L 176.492335 136.496547 
L 176.57227 135.77748 
L 176.629851 137.214883 
L 176.707865 136.916404 
L 176.78568 136.266246 
L 176.883378 136.412745 
L 176.96254 134.799147 
L 177.043345 135.257222 
L 177.163039 135.058849 
L 177.296673 137.501616 
L 177.51371 136.448755 
L 177.53094 137.896688 
L 177.827076 138.864491 
L 177.907451 138.21712 
L 178.020272 134.457445 
L 178.102175 132.701686 
L 178.198081 133.483199 
L 178.258168 133.401973 
L 178.335514 133.651667 
L 178.474479 132.930311 
L 178.57016 134.050162 
L 178.746534 136.204682 
L 178.981716 139.015946 
L 179.224167 138.533962 
L 179.393373 139.031217 
L 179.471911 138.490564 
L 179.55001 138.805269 
L 179.805409 136.227504 
L 179.867162 137.193064 
L 180.119763 135.37044 
L 180.278161 135.561595 
L 180.354705 134.969395 
L 180.512927 137.446311 
L 180.926845 140.196644 
L 181.006235 139.897614 
L 181.170312 140.2815 
L 181.256406 139.34142 
L 181.343787 139.852095 
L 181.650418 137.940729 
L 181.787804 137.968932 
L 181.924406 138.917764 
L 181.985434 138.044992 
L 182.081601 138.146446 
L 182.220171 139.125748 
L 182.395046 139.528859 
L 182.474303 138.009246 
L 182.709278 135.865278 
L 182.86668 137.474167 
L 182.891317 136.181803 
L 182.995953 137.43971 
L 183.073598 137.04903 
L 183.569846 140.448337 
L 183.609095 139.150595 
L 183.706411 139.297875 
L 183.786767 138.13919 
L 183.886783 138.483798 
L 184.001194 139.306947 
L 184.159095 140.566343 
L 184.432791 137.18513 
L 184.669003 135.954219 
L 184.999964 131.814123 
L 185.14561 132.866561 
L 185.298378 133.542097 
L 185.375527 132.059345 
L 185.489729 132.825598 
L 185.650293 134.714435 
L 185.70668 134.623274 
L 185.878929 134.655306 
L 185.885501 134.175797 
L 185.962361 134.313838 
L 186.040677 134.251583 
L 186.225533 136.030584 
L 186.29925 136.238325 
L 186.394013 134.420613 
L 186.531499 134.48307 
L 186.590183 133.869787 
L 186.631306 134.049929 
L 186.865246 135.82193 
L 187.08302 133.672556 
L 187.336518 134.67844 
L 187.492994 134.578421 
L 187.650994 131.887672 
L 187.825888 133.423423 
L 187.944357 133.779135 
L 188.082792 131.717762 
L 188.282402 133.011677 
L 188.316028 132.77146 
L 188.553125 131.007847 
L 188.864895 134.588085 
L 188.943332 135.040865 
L 189.12008 133.533752 
L 189.357475 136.384436 
L 189.373797 135.939885 
L 189.491701 135.838698 
L 189.982208 139.643774 
L 190.00327 140.370716 
L 190.13922 140.793502 
L 190.181776 139.858113 
L 190.256902 139.862262 
L 190.334402 139.752842 
L 190.432434 140.683268 
L 190.568944 138.62917 
L 190.647679 138.599988 
L 190.734399 138.838376 
L 190.894702 138.620832 
L 191.052406 138.988929 
L 191.06672 137.602684 
L 191.144213 138.814371 
L 191.22618 137.835406 
L 191.383143 140.368271 
L 191.511562 139.631573 
L 191.559248 139.495356 
L 191.716945 139.379049 
L 191.912174 141.137563 
L 192.089959 140.634048 
L 192.111315 141.41846 
L 192.212034 140.915939 
L 192.271234 141.905044 
L 192.521268 140.778876 
L 192.591754 140.574131 
L 192.707403 142.051104 
L 192.852171 140.07902 
L 193.101235 134.321635 
L 193.200053 136.073301 
L 193.244588 135.725399 
L 193.338917 136.136375 
L 193.413366 135.736672 
L 193.491126 134.706686 
L 193.569429 134.905652 
L 193.652678 135.808987 
L 193.902426 140.175867 
L 193.981691 138.57229 
L 194.255638 141.905781 
L 194.317402 141.306147 
L 194.450787 141.692101 
L 194.629233 140.078735 
L 194.784045 140.835167 
L 195.02002 136.473509 
L 195.117462 136.717862 
L 195.195292 136.932757 
L 195.273673 139.789905 
L 195.355778 138.526047 
L 195.430207 139.209105 
L 195.514071 138.50194 
L 195.750668 140.493628 
L 196.081374 135.426348 
L 196.11794 136.02197 
L 196.159128 136.039238 
L 196.238748 135.243191 
L 196.317861 136.006024 
L 196.570863 134.541711 
L 196.65022 135.295216 
L 196.728792 134.663342 
L 197.050776 136.749891 
L 197.2196 134.352715 
L 197.296802 134.396772 
L 197.374476 133.825612 
L 197.550804 137.298919 
L 197.614112 136.797709 
L 197.708373 136.696351 
L 197.813451 135.327612 
L 197.86415 135.720074 
L 198.356279 138.739292 
L 198.432834 137.786682 
L 198.589175 139.528252 
L 198.746478 139.027501 
L 198.863459 137.494417 
L 198.922247 138.791323 
L 198.98599 138.484319 
L 199.060619 137.579959 
L 199.236807 138.86749 
L 199.33288 138.492764 
L 199.472108 137.010668 
L 199.64686 137.582094 
L 199.73849 137.510679 
L 199.810076 136.958042 
L 199.90151 137.549674 
L 199.999731 135.74353 
L 200.058407 135.983044 
L 200.117203 135.636559 
L 200.373108 137.919952 
L 200.491111 137.467871 
L 200.549714 138.053801 
L 200.785423 136.57912 
L 200.905252 136.624865 
L 200.925089 136.921718 
L 201.118729 136.093085 
L 201.73935 139.375662 
L 201.924298 137.848213 
L 202.011994 138.833782 
L 202.080052 138.391362 
L 202.394623 139.617826 
L 202.549744 139.283004 
L 202.647439 138.293146 
L 202.880134 140.286326 
L 203.115931 139.008724 
L 203.233174 140.304329 
L 203.291307 139.185233 
L 203.429164 140.664065 
L 203.508718 140.626342 
L 203.550539 140.455004 
L 203.625706 138.796301 
L 203.80115 138.774278 
L 204.055691 135.82693 
L 204.193439 134.123026 
L 204.325857 134.917564 
L 204.354945 134.80851 
L 204.518864 133.78897 
L 204.592084 134.717706 
L 204.724368 134.060064 
L 204.769743 134.419283 
L 204.824946 133.861185 
L 204.84173 135.616527 
L 204.900538 135.381449 
L 205.315574 137.701694 
L 205.396608 137.473148 
L 205.47901 139.998818 
L 205.633742 139.654833 
L 205.966618 136.819941 
L 206.043413 136.759223 
L 206.121907 138.329627 
L 206.35624 135.60071 
L 206.435075 135.68666 
L 206.532674 138.551275 
L 206.671891 138.427834 
L 206.851022 141.335063 
L 206.944069 138.606004 
L 207.02255 138.793999 
L 207.179775 138.608424 
L 207.415397 136.090957 
L 207.47348 137.459259 
L 207.540693 137.449159 
L 207.718205 135.444427 
L 207.811518 136.425656 
L 207.876259 135.598879 
L 207.909235 136.874167 
L 208.007686 136.185666 
L 208.194908 136.866319 
L 208.321614 135.863524 
L 208.418758 136.539871 
L 208.66217 139.594028 
L 208.757482 139.15633 
L 208.831239 140.308825 
L 208.889524 139.867884 
L 208.969375 140.104046 
L 209.2828 138.135375 
L 209.632181 141.986522 
L 209.850402 143.023976 
L 209.929043 143.391462 
L 210.092865 141.624741 
L 210.262308 139.936431 
L 210.423201 136.308192 
L 210.58611 137.614619 
L 210.665464 136.653303 
L 210.751441 136.838044 
L 210.815312 136.610147 
L 211.124673 137.135228 
L 211.320946 135.534912 
L 211.419788 135.790575 
L 211.575679 137.441875 
L 211.634674 137.079887 
L 211.73234 137.019661 
L 211.869951 140.367018 
L 211.968143 139.549994 
L 212.106757 139.952933 
L 212.184062 139.481865 
L 212.26239 140.630142 
L 212.458731 139.192321 
L 212.557962 139.493145 
L 212.694471 136.030483 
L 212.771032 137.280084 
L 212.849505 137.40304 
L 212.928839 137.076681 
L 213.026216 135.847348 
L 213.260482 136.965384 
L 213.40051 137.017315 
L 213.497141 136.046837 
L 213.555306 136.701984 
L 213.65253 136.035794 
L 213.849 137.534633 
L 213.910084 137.011064 
L 213.98811 137.374462 
L 214.145215 135.937413 
L 214.260356 137.299225 
L 214.338679 136.306336 
L 214.416654 137.002306 
L 214.518009 135.798752 
L 214.574232 136.702649 
L 214.710704 136.200265 
L 214.88637 137.02069 
L 214.984388 137.297449 
L 215.047189 138.819164 
L 215.192907 139.036877 
L 215.398091 140.819427 
L 215.614864 139.516595 
L 215.791207 140.089284 
L 216.009457 136.055462 
L 216.171868 134.559383 
L 216.282796 135.262246 
L 216.34143 133.896261 
L 216.429767 134.177928 
L 216.577166 133.87008 
L 216.892962 136.502381 
L 216.987745 136.412747 
L 217.066456 136.04699 
L 217.144472 136.45353 
L 217.242526 135.283819 
L 217.301409 135.671539 
L 217.386111 136.145986 
L 217.479151 135.666936 
L 217.583278 136.05952 
L 217.652788 135.66804 
L 217.711917 136.015941 
L 217.887738 135.104981 
L 218.064972 139.082311 
L 218.183102 139.110694 
L 218.204638 138.917615 
L 218.27957 138.991913 
L 218.436875 139.374657 
L 218.57582 139.288222 
L 218.694707 140.774333 
L 218.873512 138.652077 
L 219.113503 137.450878 
L 219.184259 137.121707 
L 219.262069 138.5052 
L 219.360338 138.418063 
L 219.497472 136.418494 
L 219.589715 136.768851 
L 219.67324 136.472237 
L 219.851932 137.388157 
L 219.914105 137.096689 
L 220.126426 134.590216 
L 220.145794 134.743396 
L 220.22327 136.666547 
L 220.360522 136.693767 
L 220.635222 133.57371 
L 220.715365 133.036534 
L 220.79206 134.531804 
L 220.868934 134.417998 
L 220.971439 134.507604 
L 221.02584 134.739386 
L 221.205914 136.66262 
L 221.301003 136.947071 
L 221.359556 137.526643 
L 221.524372 141.047666 
L 221.634465 141.009481 
L 221.717314 141.113885 
L 221.927822 136.847693 
L 222.115241 137.352053 
L 222.339707 133.856437 
L 222.495537 134.502352 
L 222.730541 137.383533 
L 222.829223 136.326078 
L 222.906805 136.81533 
L 222.971921 136.230904 
L 223.064141 136.274903 
L 223.142811 136.422047 
L 223.220489 137.430288 
L 223.321948 136.662394 
L 223.476807 137.06763 
L 223.51478 136.92198 
L 223.555778 136.846629 
L 223.632966 137.336034 
L 223.82897 139.671159 
L 223.886964 139.601679 
L 223.98583 139.731182 
L 224.045029 139.276672 
L 224.107509 139.828269 
L 224.199747 139.703509 
L 224.356908 141.213207 
L 224.495805 140.871408 
L 224.533189 138.79528 
L 224.612102 139.652127 
L 224.682171 140.570644 
L 224.847163 138.311006 
L 224.945352 139.365763 
L 225.003728 138.907161 
L 225.159803 136.953804 
L 225.325775 139.349814 
L 225.415085 138.795223 
L 225.492889 137.410895 
L 225.629894 138.05646 
L 225.807831 136.345928 
L 225.888657 138.424719 
L 226.160842 136.354497 
L 226.456723 140.128465 
L 226.551928 140.645393 
L 226.708997 138.292449 
L 226.807469 138.637467 
L 226.963506 137.354964 
L 227.165277 138.666076 
L 227.276977 138.427599 
L 227.356332 136.792476 
L 227.434176 138.229944 
L 227.512214 137.843412 
L 227.753388 141.070269 
L 227.924247 138.244929 
L 228.003629 138.236934 
L 228.178963 139.817701 
L 228.259753 138.74713 
L 228.414861 139.538828 
L 228.550754 139.153594 
L 228.574945 138.393458 
L 228.669426 138.877495 
L 228.749621 139.641627 
L 228.885607 137.716022 
L 228.982632 138.817257 
L 229.061484 138.513463 
L 229.22076 137.460569 
L 229.297265 138.789051 
L 229.453156 138.365853 
L 229.708799 136.019654 
L 229.905973 134.558347 
L 229.972319 135.023343 
L 230.203383 133.285939 
L 230.379149 134.512794 
L 230.437526 134.400853 
L 230.611842 135.629674 
L 230.683848 136.538228 
L 230.770971 135.880149 
L 231.006522 137.669254 
L 231.095606 137.226416 
L 231.247533 137.861546 
L 231.424992 137.005703 
L 231.484149 138.442782 
L 231.589759 138.325877 
L 231.660148 138.903807 
L 231.738123 138.866809 
L 231.815438 139.080762 
L 231.952677 138.836463 
L 232.050451 139.890677 
L 232.148668 139.743191 
L 232.227099 139.224518 
L 232.287567 137.978771 
L 232.547722 140.141414 
L 232.626702 139.349696 
L 232.698162 139.466424 
L 232.797052 139.190748 
L 232.864901 138.097109 
L 233.171418 140.796841 
L 233.367812 137.179489 
L 233.426383 137.734641 
L 233.602832 136.610544 
L 233.622828 137.658494 
L 233.68277 136.879199 
L 233.916716 134.316277 
L 234.250136 136.790541 
L 234.410494 139.397174 
L 234.488181 139.349535 
L 234.74285 140.711671 
L 234.899143 139.323107 
L 234.977655 140.246525 
L 235.214385 136.438464 
L 235.415659 137.920372 
L 235.567125 136.313654 
L 235.645968 137.233185 
L 235.705154 136.902229 
L 235.909417 134.852968 
L 235.924321 135.64705 
L 235.947274 135.657754 
L 236.103112 136.089732 
L 236.260631 133.986917 
L 236.337844 134.330718 
L 236.592722 132.486681 
L 236.671295 132.754478 
L 236.749653 133.058425 
L 236.886628 132.446422 
L 236.925309 131.406208 
L 237.160185 133.333153 
L 237.33818 132.549154 
L 237.395786 134.155118 
L 237.495696 133.905478 
L 237.572865 133.168222 
L 237.769299 134.102303 
L 237.886466 133.337961 
L 237.964114 133.290729 
L 238.318505 137.908845 
L 238.444885 137.866799 
L 238.493559 137.680462 
L 238.773739 140.749162 
L 239.159865 138.567676 
L 239.222009 138.855854 
L 239.357408 140.077475 
L 239.417165 139.608978 
L 239.537841 140.026614 
L 239.78866 136.942687 
L 239.830259 139.765973 
L 239.967302 139.921137 
L 239.993516 140.459346 
L 240.245019 137.624601 
L 240.318814 138.70433 
L 240.398947 138.644323 
L 240.476221 138.55603 
L 240.556052 139.267619 
L 240.676297 138.52511 
L 240.821647 135.842534 
L 241.046426 137.151422 
L 241.200152 135.058884 
L 241.296167 136.604519 
L 241.374658 136.330423 
L 241.456105 136.080715 
L 241.472047 137.597504 
L 241.551918 137.54474 
L 241.689956 138.269011 
L 241.76598 137.890899 
L 241.865995 136.38617 
L 241.94646 136.22316 
L 242.021153 137.835514 
L 242.118674 136.986752 
L 242.276267 138.396704 
L 242.393663 137.948137 
L 242.668116 141.210297 
L 242.826223 141.409625 
L 243.105256 139.502037 
L 243.15903 139.191045 
L 243.236878 137.471471 
L 243.355328 137.700687 
L 243.475278 135.696597 
L 243.590188 136.813611 
L 243.690823 135.766218 
L 243.727079 136.569215 
L 243.844973 135.766766 
L 243.906331 134.482559 
L 243.966348 134.741016 
L 244.182394 133.379765 
L 244.267672 134.892424 
L 244.30256 133.948113 
L 244.456185 133.471802 
L 244.867563 135.938645 
L 244.946472 137.905143 
L 245.024534 137.604065 
L 245.104946 138.100663 
L 245.188772 136.192856 
L 245.26086 136.514308 
L 245.435854 136.021676 
L 245.670737 138.117769 
L 245.908579 138.743675 
L 246.025118 140.976914 
L 246.26807 139.647599 
L 246.32907 138.249272 
L 246.414071 139.438489 
L 246.424978 138.820774 
L 246.700194 135.506513 
L 246.739261 136.284055 
L 246.817365 134.727237 
L 246.957239 137.204235 
L 247.0406 136.409091 
L 247.130804 137.7716 
L 247.21901 137.095315 
L 247.681999 139.92633 
L 247.776825 139.357105 
L 247.858018 139.89862 
L 247.936581 139.812949 
L 248.034471 140.067462 
L 248.094258 139.907889 
L 248.171379 140.406985 
L 248.325837 140.22749 
L 248.504756 137.062662 
L 248.661512 137.434338 
L 248.759431 136.785464 
L 248.824275 137.736318 
L 248.841164 137.364418 
L 248.977437 135.143296 
L 248.994486 136.091128 
L 249.124079 136.146615 
L 249.153186 135.330712 
L 249.349849 138.512906 
L 249.488163 136.576368 
L 249.998736 138.953508 
L 250.055272 138.565171 
L 250.328633 139.860973 
L 250.387518 139.30682 
L 250.583742 140.799157 
L 250.622285 140.241736 
L 250.683404 140.24027 
L 250.761952 140.64779 
L 250.85791 142.603678 
L 251.648707 135.402735 
L 251.661607 134.035658 
L 251.741228 134.958601 
L 251.837703 136.024809 
L 251.89704 135.053121 
L 252.249212 139.349633 
L 252.312335 139.075864 
L 252.386309 139.569855 
L 252.485358 139.548156 
L 252.686927 137.304068 
L 252.720109 138.881105 
L 252.817738 138.47454 
L 252.957524 136.089046 
L 253.287585 138.934724 
L 253.366934 138.576474 
L 253.46448 139.284829 
L 253.524531 139.092068 
L 253.600539 137.625597 
L 253.726506 138.854131 
L 253.845713 138.047889 
L 253.872227 136.841603 
L 253.937961 137.355722 
L 254.094873 135.753388 
L 254.175088 137.496194 
L 254.253271 137.194676 
L 254.332467 136.504358 
L 254.459157 137.984447 
L 254.495125 137.155296 
L 254.665612 137.625709 
L 254.743514 136.693614 
L 254.902346 137.863706 
L 254.981095 136.24635 
L 255.078443 137.222093 
L 255.156003 136.676983 
L 255.293698 136.633546 
L 255.495472 137.710203 
L 255.590654 137.679125 
L 255.7062 136.732173 
L 255.784276 136.667087 
L 255.865059 135.452012 
L 255.960915 136.612221 
L 256.038764 136.39182 
L 256.136191 136.376599 
L 256.22298 136.795055 
L 256.274963 134.967409 
L 256.356513 135.625487 
L 256.452172 135.861522 
L 256.529868 135.17211 
L 256.627866 135.722397 
L 256.763617 137.460128 
L 257.436908 143.3075 
L 257.59018 140.645359 
L 257.733061 138.762224 
L 257.847205 138.178969 
L 257.942462 139.387919 
L 257.982335 138.952068 
L 258.295239 133.053762 
L 258.451096 134.770235 
L 258.719829 132.651621 
L 258.883041 134.723408 
L 259.117822 138.931657 
L 259.197066 138.027144 
L 259.276614 140.414238 
L 259.372507 140.208913 
L 259.471348 140.06969 
L 259.531213 141.591665 
L 259.590837 139.533254 
L 259.608797 140.650704 
L 259.686484 141.172133 
L 259.94773 139.820503 
L 260.102553 140.45861 
L 260.119525 138.736737 
L 260.182586 139.488081 
L 260.242308 140.206423 
L 260.335391 137.643939 
L 260.414395 138.494679 
L 260.621221 137.211593 
L 260.756336 138.459814 
L 260.816736 137.822506 
L 260.894805 137.952047 
L 261.072177 136.63402 
L 261.148539 137.566769 
L 261.313883 137.073517 
L 261.390512 137.22862 
L 261.524506 135.923005 
L 261.618657 138.148616 
L 261.736596 138.122848 
L 261.933946 136.707866 
L 261.973223 136.660315 
L 262.032595 137.690611 
L 262.191142 136.435735 
L 262.325635 136.358159 
L 262.482417 133.421035 
L 262.599498 133.268551 
L 262.678798 134.250402 
L 262.757058 135.633436 
L 262.838957 134.541677 
L 262.948152 135.654055 
L 263.090436 134.515828 
L 263.170809 134.999151 
L 263.409181 136.976533 
L 263.581085 134.951339 
L 263.899148 139.402633 
L 264.01278 138.056958 
L 264.070909 138.065764 
L 264.136876 138.972679 
L 264.253293 138.991748 
L 264.306557 141.34959 
L 264.384222 140.881579 
L 264.624305 139.533659 
L 264.719963 139.756689 
L 264.796405 139.836759 
L 265.031699 137.988566 
L 265.211309 136.643285 
L 265.286515 136.210172 
L 265.304479 136.387047 
L 265.364412 137.181343 
L 265.422726 137.109101 
L 265.598803 136.648163 
L 265.697513 136.609267 
L 265.756055 136.806019 
L 265.834475 136.29195 
L 266.010497 136.947744 
L 266.090931 136.003351 
L 266.166369 136.053552 
L 266.422169 134.222984 
L 266.480581 134.552018 
L 266.623437 134.481053 
L 266.736458 135.432043 
L 267.028064 136.893788 
L 267.049929 136.555908 
L 267.128279 136.929864 
L 267.225121 138.753878 
L 267.382965 137.894425 
L 267.543143 139.121832 
L 267.816718 137.910958 
L 267.97376 138.674053 
L 268.03208 137.479356 
L 268.288481 140.023858 
L 268.385548 138.726285 
L 268.52427 139.960853 
L 268.699197 139.402901 
L 268.994742 136.607889 
L 269.033845 137.054004 
L 269.092209 136.697686 
L 269.307419 136.120298 
L 269.562893 138.457158 
L 269.722255 139.351891 
L 269.81717 138.455233 
L 269.895597 138.720467 
L 270.053885 139.792107 
L 270.132543 139.58121 
L 270.23029 138.589522 
L 270.288954 139.143035 
L 270.366099 137.869687 
L 270.482001 138.319297 
L 270.624816 139.25848 
L 270.756033 139.383946 
L 270.932126 135.255537 
L 271.010101 135.021777 
L 271.049292 136.451724 
L 271.131897 136.442365 
L 271.265332 138.508254 
L 271.527298 136.947847 
L 271.755352 141.200966 
L 271.930679 140.492391 
L 272.009252 140.384649 
L 272.149667 138.232096 
L 272.402318 139.654447 
L 272.832599 136.241298 
L 272.932055 137.491375 
L 272.969664 136.877931 
L 273.082328 135.915369 
L 273.127997 136.144635 
L 273.211371 136.599357 
L 273.336415 135.510383 
L 273.377045 134.156395 
L 273.394621 136.408447 
L 273.460976 136.512716 
L 273.538303 135.96013 
L 273.623508 136.306191 
L 273.693021 136.187267 
L 273.791628 138.000738 
L 273.850713 137.395452 
L 274.04561 135.330682 
L 274.223072 139.768216 
L 274.264754 137.228468 
L 274.477952 138.987285 
L 274.515949 138.15535 
L 274.595375 138.587759 
L 274.751364 140.022017 
L 274.914896 139.85981 
L 274.98924 138.786442 
L 275.064649 139.26653 
L 275.164967 139.498853 
L 275.477522 136.181751 
L 275.555328 135.804188 
L 275.651713 136.489795 
L 275.731598 135.218178 
L 275.809237 135.339643 
L 275.965642 133.594177 
L 276.129578 135.932096 
L 276.201261 135.674039 
L 276.30195 135.534955 
L 276.456643 136.258503 
L 276.690422 137.315544 
L 276.926554 136.132525 
L 277.179784 137.521944 
L 277.33866 137.064335 
L 277.591924 138.271497 
L 277.672003 137.628861 
L 277.751003 137.948258 
L 277.905818 139.589855 
L 278.064621 137.326102 
L 278.142216 138.379314 
L 278.39948 136.64293 
L 278.55433 139.184494 
L 278.6556 138.041404 
L 278.671912 138.14272 
L 278.750386 138.240364 
L 278.869834 140.091037 
L 278.965241 139.411061 
L 279.064557 140.109101 
L 279.123755 141.860865 
L 279.240097 141.549706 
L 279.362972 139.390423 
L 279.456509 139.88545 
L 279.69136 138.34248 
L 279.769246 139.460073 
L 279.861417 139.079646 
L 279.868503 135.953632 
L 279.945803 138.346536 
L 280.259544 137.404983 
L 280.415526 137.183841 
L 280.513253 138.863207 
L 280.573128 138.517389 
L 280.74945 137.481156 
L 280.925611 138.535877 
L 281.064159 136.270874 
L 281.199331 136.669247 
L 281.473347 133.648337 
L 281.533674 134.781408 
L 281.571881 133.884322 
L 281.710154 133.308337 
L 281.904571 135.67635 
L 281.963775 135.206847 
L 282.123895 136.705788 
L 282.210066 135.967627 
L 282.278519 136.272999 
L 282.358754 136.467699 
L 282.453772 137.880319 
L 282.610888 137.64704 
L 282.676859 138.763277 
L 282.7139 137.422791 
L 282.768705 137.826719 
L 282.907179 136.65647 
L 282.945152 136.879144 
L 283.031004 137.238861 
L 283.181601 135.83078 
L 283.286896 135.092662 
L 283.356854 136.167652 
L 283.457036 136.090942 
L 283.494204 136.338547 
L 283.632455 135.898634 
L 283.653 136.074716 
L 283.905464 134.619745 
L 283.985171 134.607031 
L 284.239335 133.582332 
L 284.396427 136.068191 
L 284.494547 136.410529 
L 284.631422 139.472721 
L 284.885947 142.637232 
L 285.023959 142.469998 
L 285.199601 139.098712 
L 285.220564 139.312545 
L 285.297862 139.835713 
L 285.532479 137.065108 
L 285.610986 137.239559 
L 285.701856 136.805619 
L 285.787038 135.187628 
L 285.807762 135.433282 
L 285.946483 139.265914 
L 286.004923 138.767875 
L 286.101215 136.84002 
L 286.179522 137.652115 
L 286.434805 136.003997 
L 286.493915 136.756298 
L 286.846791 133.09996 
L 286.90525 135.155593 
L 286.983699 134.085358 
L 287.249902 138.579196 
L 287.343078 137.839406 
L 287.633048 140.045269 
L 287.731746 138.717638 
L 287.848219 139.8948 
L 287.965687 137.804897 
L 288.145497 135.758089 
L 288.283206 134.515926 
L 288.35957 135.053723 
L 288.614143 133.288764 
L 288.849067 137.624902 
L 288.9359 137.79039 
L 289.00784 138.186699 
L 289.282086 135.083827 
L 289.417863 136.669175 
L 289.652401 134.745636 
L 289.731849 135.961567 
L 289.809102 135.239963 
L 289.904695 135.440461 
L 289.982215 135.328693 
L 290.21807 138.813064 
L 290.393223 137.140358 
L 290.707092 140.005411 
L 290.783885 141.871193 
L 290.862466 141.25778 
L 291.0383 140.37984 
L 291.116642 140.540937 
L 291.27639 141.488154 
L 291.430685 138.675291 
L 291.509979 139.015804 
L 291.591297 137.429818 
L 291.686103 137.459912 
L 291.841604 136.51054 
L 291.92211 137.470694 
L 291.998577 137.110167 
L 292.158262 135.117855 
L 292.331651 135.430932 
L 292.410715 135.93212 
L 292.489004 135.146424 
L 292.57605 135.205541 
L 292.648139 134.81659 
L 292.732033 134.835192 
L 292.848412 134.698531 
L 293.056945 137.068773 
L 293.135357 136.013741 
L 293.488225 138.377339 
L 293.547508 137.943991 
L 293.745019 138.658124 
L 293.864635 136.321342 
L 293.958423 137.079269 
L 294.233352 133.95356 
L 294.291528 134.72447 
L 294.390645 134.708378 
L 294.526966 136.680966 
L 294.665462 137.039928 
L 294.860571 136.719145 
L 295.030028 139.148527 
L 295.076051 139.048137 
L 295.18374 139.212286 
L 295.302103 138.108982 
L 295.340354 139.478056 
L 295.438781 139.340697 
L 295.653816 141.852496 
L 295.732482 142.02054 
L 295.810458 142.721342 
L 296.144582 137.827943 
L 296.222247 138.834642 
L 296.379104 138.319585 
L 296.633242 135.934079 
L 296.828878 137.55308 
L 296.986087 139.05777 
L 297.044868 137.75636 
L 297.202212 138.730265 
L 297.280644 138.121928 
L 297.36007 138.589322 
L 297.593914 138.17274 
L 297.770193 135.866934 
L 297.849597 137.052263 
L 298.082817 133.519267 
L 298.169644 134.421237 
L 298.249498 134.000387 
L 298.367648 135.048505 
L 298.408637 134.338314 
L 298.489191 134.840724 
L 298.569153 134.657905 
L 298.660582 133.222621 
L 298.896371 135.17092 
L 299.015552 134.682524 
L 299.096635 134.959661 
L 299.151846 134.0247 
L 299.210354 134.355483 
L 299.58698 138.266295 
L 299.62239 137.486017 
L 299.700421 139.28941 
L 299.877467 138.776236 
L 300.0354 141.908134 
L 300.155743 141.379472 
L 300.290211 140.230892 
L 300.356615 137.945319 
L 300.429021 139.265763 
L 300.506326 137.981641 
L 300.64402 138.747166 
L 300.822784 137.530872 
L 300.872172 136.8954 
L 300.939066 137.411399 
L 300.999134 137.557836 
L 301.232125 138.893239 
L 301.251651 138.495886 
L 301.566891 141.637037 
L 301.646339 141.065094 
L 301.742928 141.181598 
L 301.968636 140.688115 
L 302.060237 139.836483 
L 302.220775 139.508583 
L 302.252488 138.718587 
L 302.312041 139.246951 
L 302.471792 136.984725 
L 302.547389 137.322928 
L 302.633381 138.24324 
L 302.705409 137.884522 
L 302.892638 140.555316 
L 302.971292 139.963541 
L 303.120797 139.172017 
L 303.198187 139.263841 
L 303.278037 139.537118 
L 303.451475 137.679161 
L 303.588572 137.012333 
L 303.672668 135.894827 
L 303.843367 136.275702 
L 303.942411 137.017893 
L 304.098565 136.375835 
L 304.159188 137.436168 
L 304.297604 137.110726 
L 304.513195 139.102373 
L 304.589613 138.668873 
L 304.730575 139.327407 
L 304.823999 139.071634 
L 305.0627 140.213425 
L 305.157772 140.07633 
L 305.275003 140.38081 
L 305.373073 137.939414 
L 305.455626 138.938942 
L 305.531542 138.038151 
L 305.628044 140.013362 
L 305.808652 137.495861 
L 305.86502 137.559242 
L 306.040959 134.901549 
L 306.099225 135.555104 
L 306.216936 135.941798 
L 306.29496 134.318547 
L 306.3578 134.967155 
L 306.453391 135.114308 
L 306.536428 136.797382 
L 306.745886 134.809032 
L 306.941283 137.506367 
L 307.277252 139.208977 
L 307.378741 137.276813 
L 307.471212 137.791806 
L 307.588189 137.495099 
L 307.646629 138.548085 
L 307.726122 137.308696 
L 307.832486 137.591963 
L 307.888839 138.209297 
L 307.966031 136.941831 
L 308.373474 139.948241 
L 308.470681 137.980444 
L 308.621824 138.487491 
L 308.630436 138.990452 
L 308.706054 137.706042 
L 308.784078 138.326204 
L 308.90845 138.316884 
L 309.019924 137.207798 
L 309.097756 137.211025 
L 309.196003 136.321216 
L 309.257226 136.809464 
L 309.355077 135.937741 
L 309.430752 133.959205 
L 309.509641 134.486588 
L 309.587776 135.401297 
L 309.669367 134.358871 
L 309.924289 137.740911 
L 310.141576 136.629858 
L 310.156258 136.740525 
L 310.333001 140.423405 
L 310.431106 140.445121 
L 310.489144 140.732991 
L 310.587247 139.731707 
L 310.727214 135.921392 
L 310.880603 136.402045 
L 310.979155 138.712847 
L 311.400327 133.12987 
L 311.49562 133.265629 
L 311.614376 132.081338 
L 311.770788 129.689072 
L 311.925973 130.310047 
L 312.026327 133.553137 
L 312.182086 134.312259 
L 312.24275 133.677921 
L 312.561391 139.594927 
L 312.84893 136.5414 
L 313.025022 138.387351 
L 313.149854 137.794863 
L 313.305654 134.962376 
L 313.407568 136.916153 
L 313.520766 136.90265 
L 313.638554 138.930168 
L 313.805935 138.902038 
L 313.873815 138.914788 
L 313.97331 140.380398 
L 314.063792 141.829626 
L 314.132774 141.561173 
L 314.327649 140.818079 
L 314.482968 138.203291 
L 314.483118 134.03632 
L 314.549154 136.683808 
L 314.620369 136.818949 
L 314.718158 136.645167 
L 314.796959 136.884037 
L 315.032655 134.781189 
L 315.159255 134.279003 
L 315.190723 135.982027 
L 315.271193 135.924106 
L 315.581483 135.74146 
L 315.660764 134.64291 
L 315.701801 135.512682 
L 315.785408 135.32388 
L 315.933921 135.8342 
L 316.084807 137.071665 
L 316.209587 136.500754 
L 316.405472 137.824119 
L 316.639777 136.947192 
L 316.719244 136.783789 
L 316.89343 134.628585 
L 316.983199 135.454177 
L 317.051345 135.122697 
L 317.240407 134.050493 
L 317.306486 132.798811 
L 317.370398 132.348654 
L 317.463541 132.514884 
L 317.586262 133.749771 
L 317.659431 133.475545 
L 317.858078 132.696409 
L 318.011032 133.332932 
L 318.148695 133.145865 
L 318.34413 131.008889 
L 318.422688 132.834994 
L 318.559775 133.294558 
L 318.579739 132.772926 
L 318.660892 133.272992 
L 318.860054 133.506735 
L 319.149006 137.590233 
L 319.344958 136.027163 
L 319.559939 137.90954 
L 319.677789 138.324557 
L 319.976237 136.135253 
L 320.119444 138.721122 
L 320.225801 138.971906 
L 320.285098 138.214894 
L 320.402156 138.226543 
L 320.69682 139.559877 
L 320.774719 141.313124 
L 320.852503 140.459247 
L 321.029856 141.512271 
L 321.097936 141.738286 
L 321.264819 140.215041 
L 321.421338 141.101302 
L 321.894758 133.63936 
L 321.986446 133.790557 
L 322.166397 135.645802 
L 322.294421 134.940257 
L 322.4803 138.124993 
L 322.57813 138.596609 
L 322.715683 141.677547 
L 322.833875 141.414123 
L 323.02972 139.493239 
L 323.128186 140.138339 
L 323.245404 139.978452 
L 323.325452 140.451245 
L 323.366921 140.278346 
L 323.617659 138.257668 
L 323.717771 138.282877 
L 323.793543 137.93052 
L 323.931236 138.285173 
L 324.166999 135.619011 
L 324.284005 137.017371 
L 324.342483 135.761357 
L 324.442434 136.916482 
L 324.499097 136.588227 
L 324.59748 136.577175 
L 324.658772 137.462259 
L 324.75373 136.398678 
L 324.837463 137.187154 
L 324.951769 137.032554 
L 325.028128 137.891685 
L 325.106481 136.568643 
L 325.185193 137.053735 
L 325.243934 136.62081 
L 325.322214 137.14886 
L 325.398895 136.59319 
L 325.498996 137.097083 
L 325.635755 139.020808 
L 325.779393 138.77911 
L 325.87395 137.895812 
L 326.047492 139.131063 
L 326.292894 137.190958 
L 326.361403 136.83064 
L 326.43915 135.796908 
L 326.635705 137.170036 
L 326.693944 139.572656 
L 326.87414 137.639333 
L 326.930235 137.901157 
L 327.007301 137.81961 
L 327.301886 135.817835 
L 327.517555 133.485155 
L 327.575919 133.607005 
L 328.035662 136.945317 
L 328.153537 139.115033 
L 328.314647 138.747333 
L 328.568211 140.046898 
L 328.667729 139.560814 
L 328.713817 138.417493 
L 328.960567 140.662806 
L 329.040388 140.682453 
L 329.276048 139.830925 
L 329.35346 140.221335 
L 329.450757 141.621633 
L 329.51186 141.439414 
L 329.842587 138.755372 
L 329.921122 139.235865 
L 330.174819 137.361559 
L 330.255733 137.295987 
L 330.332451 137.397574 
L 330.413631 137.250941 
L 330.573024 134.951698 
L 330.667155 135.605565 
L 330.74515 135.226076 
L 330.822735 136.224536 
L 330.900898 134.92105 
L 330.980726 135.340692 
L 331.077775 134.153635 
L 331.29544 136.454881 
L 331.391712 136.929675 
L 331.474283 135.391451 
L 331.657143 135.767944 
L 331.666931 135.658227 
L 331.706485 136.153103 
L 331.884239 135.712965 
L 332.275865 138.295797 
L 332.354527 137.34089 
L 332.432383 137.751113 
L 332.512349 137.632885 
L 332.596774 137.141342 
L 332.753091 137.916916 
L 332.922907 136.865608 
L 333.00153 137.436766 
L 333.021034 138.577468 
L 333.08083 137.001729 
L 333.253404 139.289663 
L 333.414065 141.261845 
L 333.492386 140.512089 
L 333.590524 140.446919 
L 333.727035 139.846386 
L 334.041644 139.786071 
L 334.139204 139.552138 
L 334.275604 138.761943 
L 334.57352 142.879566 
L 334.688043 141.936942 
L 334.785136 142.527898 
L 334.882808 139.895263 
L 335.039362 141.033288 
L 335.101539 140.057086 
L 335.199535 140.429877 
L 335.354402 137.438033 
L 335.452705 137.865719 
L 335.586531 137.77067 
L 335.668109 137.436364 
L 335.744245 135.416856 
L 335.842926 135.580842 
L 335.921601 136.316507 
L 336.000776 134.761622 
L 336.135886 134.964195 
L 336.175823 136.015689 
L 336.272915 135.910189 
L 336.335761 136.259589 
L 336.391648 137.343426 
L 336.521308 137.017117 
L 336.567702 137.581787 
L 336.764903 135.895413 
L 336.921023 136.352482 
L 336.999767 136.373001 
L 337.120033 136.797433 
L 337.272639 135.87995 
L 337.469272 138.314872 
L 337.55202 139.263593 
L 337.626256 139.128018 
L 337.704513 139.216159 
L 337.825792 137.908052 
L 338.021666 139.579646 
L 338.202085 137.730027 
L 338.355432 138.653796 
L 338.469781 138.101486 
L 338.644591 139.729495 
L 338.689961 138.861224 
L 338.772683 139.89175 
L 338.841279 138.833675 
L 338.958386 139.463767 
L 338.997246 140.491292 
L 339.253753 137.944113 
L 339.332723 139.607716 
L 339.449169 137.063112 
L 339.507253 138.186685 
L 339.573095 136.52387 
L 339.645559 136.776655 
L 339.723226 135.672792 
L 339.822617 135.699075 
L 339.899762 136.272316 
L 339.960141 137.730941 
L 340.058134 136.513118 
L 340.137063 136.910437 
L 340.211952 137.467236 
L 340.29409 136.152253 
L 340.369298 136.163003 
L 340.466579 136.343442 
L 340.531104 137.57946 
L 340.623918 136.769149 
L 340.702675 136.859546 
L 340.803259 136.744586 
L 341.055764 138.378551 
L 341.212074 137.16334 
L 341.532272 134.960255 
L 341.693398 135.181967 
L 341.835054 132.781521 
L 341.979038 133.120661 
L 341.99764 135.815787 
L 342.096137 134.747587 
L 342.157144 135.638589 
L 342.251603 135.405625 
L 342.447724 135.050442 
L 342.726599 137.464313 
L 342.839714 136.954562 
L 343.133725 138.768752 
L 343.31198 137.516567 
L 343.374783 137.680715 
L 343.642892 134.611257 
L 343.7023 135.569388 
L 343.780998 135.123785 
L 344.036136 133.370436 
L 344.173005 133.509664 
L 344.349209 134.838409 
L 344.428404 136.427692 
L 344.586128 134.850276 
L 344.683773 136.70904 
L 344.743091 136.124625 
L 344.919316 136.718385 
L 345.309721 131.884618 
L 345.430356 134.179301 
L 345.489052 133.382606 
L 345.647298 134.233408 
L 345.728302 134.116356 
L 345.888033 135.727038 
L 345.962654 137.432229 
L 346.060578 137.165907 
L 346.233138 135.530894 
L 346.354708 135.143578 
L 346.45587 135.42079 
L 346.493845 135.111668 
L 346.611382 133.272832 
L 346.726105 133.902863 
L 346.787205 132.176541 
L 346.943886 134.218992 
L 347.119638 135.843388 
L 347.237874 134.170218 
L 347.290923 134.699972 
L 347.420215 136.178772 
L 347.510927 135.328469 
L 347.675087 136.041585 
L 347.903668 132.965188 
L 348.000933 132.493799 
L 348.167773 133.444691 
L 348.251496 133.697233 
L 348.265468 133.676725 
L 348.564463 136.508447 
L 348.65759 136.460498 
L 348.835863 137.881138 
L 348.89642 136.478878 
L 349.00521 136.727555 
L 349.286165 133.187059 
L 349.540672 135.050475 
L 349.6187 136.046996 
L 349.776109 134.993498 
L 349.853794 135.420488 
L 349.972472 135.010591 
L 350.030591 136.715095 
L 350.09381 136.484929 
L 350.265069 134.343248 
L 350.343217 134.788237 
L 350.468582 134.111459 
L 350.61968 136.622158 
L 350.835177 134.35789 
L 350.95279 134.637194 
L 351.02348 136.795076 
L 351.088456 136.766224 
L 351.168304 135.565721 
L 351.250944 137.214653 
L 351.502077 135.563505 
L 351.581548 135.018803 
L 351.717748 135.26376 
L 351.855201 135.798056 
L 351.89368 134.844342 
L 351.957873 136.038861 
L 352.011816 135.823003 
L 352.050644 134.447427 
L 352.158283 135.756646 
L 352.211448 135.158108 
L 352.366162 135.625812 
L 352.503951 136.830765 
L 352.60811 136.523633 
L 352.758923 136.688734 
L 352.798244 136.040848 
L 352.995091 137.074822 
L 353.071898 135.690684 
L 353.11164 136.434835 
L 353.156584 136.356764 
L 353.189756 134.840215 
L 353.27116 135.706855 
L 353.464811 134.757124 
L 353.523399 136.340644 
L 353.603736 134.552456 
L 353.660065 134.785783 
L 353.929594 137.979683 
L 354.019327 137.331007 
L 354.095032 138.215362 
L 354.485221 135.533118 
L 354.700738 132.143893 
L 354.71952 132.821248 
" clip-path="url(#p860818dbcd)" style="fill: none; stroke: #ff0000; stroke-opacity: 0.5; stroke-width: 2.1; stroke-linecap: square"/>
   </g>
   <g id="patch_3">
    <path d="M 36.485625 148.36327 
L 36.485625 0.72 
" style="fill: none; stroke: #000000; stroke-width: 0.8; stroke-linejoin: miter; stroke-linecap: square"/>
   </g>
   <g id="patch_4">
    <path d="M 354.71952 148.36327 
L 354.71952 0.72 
" style="fill: none; stroke: #000000; stroke-width: 0.8; stroke-linejoin: miter; stroke-linecap: square"/>
   </g>
   <g id="patch_5">
    <path d="M 36.485625 148.36327 
L 354.71952 148.36327 
" style="fill: none; stroke: #000000; stroke-width: 0.8; stroke-linejoin: miter; stroke-linecap: square"/>
   </g>
   <g id="patch_6">
    <path d="M 36.485625 0.72 
L 354.71952 0.72 
" style="fill: none; stroke: #000000; stroke-width: 0.8; stroke-linejoin: miter; stroke-linecap: square"/>
   </g>
   <g id="legend_1">
    <g id="patch_7">
     <path d="M 273.95077 38.07625 
L 347.71952 38.07625 
Q 349.71952 38.07625 349.71952 36.07625 
L 349.71952 7.72 
Q 349.71952 5.72 347.71952 5.72 
L 273.95077 5.72 
Q 271.95077 5.72 271.95077 7.72 
L 271.95077 36.07625 
Q 271.95077 38.07625 273.95077 38.07625 
z
" style="fill: #ffffff; opacity: 0.8; stroke: #cccccc; stroke-linejoin: miter"/>
    </g>
    <g id="line2d_31">
     <path d="M 275.95077 13.818437 
L 285.95077 13.818437 
L 295.95077 13.818437 
" style="fill: none; stroke: #0000ff; stroke-opacity: 0.5; stroke-width: 2.1; stroke-linecap: square"/>
    </g>
    <g id="text_17">
     <!-- RNEA -->
     <g transform="translate(303.95077 17.318437) scale(0.1 -0.1)">
      <defs>
       <path id="DejaVuSans-52" d="M 2841 2188 
Q 3044 2119 3236 1894 
Q 3428 1669 3622 1275 
L 4263 0 
L 3584 0 
L 2988 1197 
Q 2756 1666 2539 1819 
Q 2322 1972 1947 1972 
L 1259 1972 
L 1259 0 
L 628 0 
L 628 4666 
L 2053 4666 
Q 2853 4666 3247 4331 
Q 3641 3997 3641 3322 
Q 3641 2881 3436 2590 
Q 3231 2300 2841 2188 
z
M 1259 4147 
L 1259 2491 
L 2053 2491 
Q 2509 2491 2742 2702 
Q 2975 2913 2975 3322 
Q 2975 3731 2742 3939 
Q 2509 4147 2053 4147 
L 1259 4147 
z
" transform="scale(0.015625)"/>
       <path id="DejaVuSans-45" d="M 628 4666 
L 3578 4666 
L 3578 4134 
L 1259 4134 
L 1259 2753 
L 3481 2753 
L 3481 2222 
L 1259 2222 
L 1259 531 
L 3634 531 
L 3634 0 
L 628 0 
L 628 4666 
z
" transform="scale(0.015625)"/>
       <path id="DejaVuSans-41" d="M 2188 4044 
L 1331 1722 
L 3047 1722 
L 2188 4044 
z
M 1831 4666 
L 2547 4666 
L 4325 0 
L 3669 0 
L 3244 1197 
L 1141 1197 
L 716 0 
L 50 0 
L 1831 4666 
z
" transform="scale(0.015625)"/>
      </defs>
      <use xlink:href="#DejaVuSans-52"/>
      <use xlink:href="#DejaVuSans-4e" x="69.482422"/>
      <use xlink:href="#DejaVuSans-45" x="144.287109"/>
      <use xlink:href="#DejaVuSans-41" x="207.470703"/>
     </g>
    </g>
    <g id="line2d_32">
     <path d="M 275.95077 28.496562 
L 285.95077 28.496562 
L 295.95077 28.496562 
" style="fill: none; stroke: #ff0000; stroke-opacity: 0.5; stroke-width: 2.1; stroke-linecap: square"/>
    </g>
    <g id="text_18">
     <!-- BURNEA -->
     <g transform="translate(303.95077 31.996562) scale(0.1 -0.1)">
      <defs>
       <path id="DejaVuSans-42" d="M 1259 2228 
L 1259 519 
L 2272 519 
Q 2781 519 3026 730 
Q 3272 941 3272 1375 
Q 3272 1813 3026 2020 
Q 2781 2228 2272 2228 
L 1259 2228 
z
M 1259 4147 
L 1259 2741 
L 2194 2741 
Q 2656 2741 2882 2914 
Q 3109 3088 3109 3444 
Q 3109 3797 2882 3972 
Q 2656 4147 2194 4147 
L 1259 4147 
z
M 628 4666 
L 2241 4666 
Q 2963 4666 3353 4366 
Q 3744 4066 3744 3513 
Q 3744 3084 3544 2831 
Q 3344 2578 2956 2516 
Q 3422 2416 3680 2098 
Q 3938 1781 3938 1306 
Q 3938 681 3513 340 
Q 3088 0 2303 0 
L 628 0 
L 628 4666 
z
" transform="scale(0.015625)"/>
       <path id="DejaVuSans-55" d="M 556 4666 
L 1191 4666 
L 1191 1831 
Q 1191 1081 1462 751 
Q 1734 422 2344 422 
Q 2950 422 3222 751 
Q 3494 1081 3494 1831 
L 3494 4666 
L 4128 4666 
L 4128 1753 
Q 4128 841 3676 375 
Q 3225 -91 2344 -91 
Q 1459 -91 1007 375 
Q 556 841 556 1753 
L 556 4666 
z
" transform="scale(0.015625)"/>
      </defs>
      <use xlink:href="#DejaVuSans-42"/>
      <use xlink:href="#DejaVuSans-55" x="68.603516"/>
      <use xlink:href="#DejaVuSans-52" x="141.796875"/>
      <use xlink:href="#DejaVuSans-4e" x="211.279297"/>
      <use xlink:href="#DejaVuSans-45" x="286.083984"/>
      <use xlink:href="#DejaVuSans-41" x="349.267578"/>
     </g>
    </g>
   </g>
  </g>
 </g>
 <defs>
  <clipPath id="p860818dbcd">
   <rect x="36.485625" y="0.72" width="318.233895" height="147.64327"/>
  </clipPath>
 </defs>
</svg>
