<?xml version="1.0" encoding="utf-8" standalone="no"?>
<!DOCTYPE svg PUBLIC "-//W3C//DTD SVG 1.1//EN"
  "http://www.w3.org/Graphics/SVG/1.1/DTD/svg11.dtd">
<svg xmlns:xlink="http://www.w3.org/1999/xlink" width="327.763438pt" height="166.39625pt" viewBox="0 0 327.763438 166.39625" xmlns="http://www.w3.org/2000/svg" version="1.1">
 <metadata>
  <rdf:RDF xmlns:dc="http://purl.org/dc/elements/1.1/" xmlns:cc="http://creativecommons.org/ns#" xmlns:rdf="http://www.w3.org/1999/02/22-rdf-syntax-ns#">
   <cc:Work>
    <dc:type rdf:resource="http://purl.org/dc/dcmitype/StillImage"/>
    <dc:date>2023-09-07T03:30:56.435705</dc:date>
    <dc:format>image/svg+xml</dc:format>
    <dc:creator>
     <cc:Agent>
      <dc:title>Matplotlib v3.7.2, https://matplotlib.org/</dc:title>
     </cc:Agent>
    </dc:creator>
   </cc:Work>
  </rdf:RDF>
 </metadata>
 <defs>
  <style type="text/css">*{stroke-linejoin: round; stroke-linecap: butt}</style>
 </defs>
 <g id="figure_1">
  <g id="patch_1">
   <path d="M -0 166.39625 
L 327.763438 166.39625 
L 327.763438 0 
L -0 0 
L -0 166.39625 
z
" style="fill: none"/>
  </g>
  <g id="axes_1">
   <g id="patch_2">
    <path d="M 48.043438 139.32 
L 327.043437 139.32 
L 327.043437 0.72 
L 48.043438 0.72 
L 48.043438 139.32 
z
" style="fill: none"/>
   </g>
   <g id="matplotlib.axis_1">
    <g id="xtick_1">
     <g id="line2d_1">
      <path d="M 48.043438 139.32 
L 48.043438 0.72 
" clip-path="url(#pf66c3da472)" style="fill: none; stroke-dasharray: 0.8,1.32; stroke-dashoffset: 0; stroke: #000000; stroke-opacity: 0.5; stroke-width: 0.8"/>
     </g>
     <g id="line2d_2">
      <defs>
       <path id="m3f49200199" d="M 0 0 
L 0 3.5 
" style="stroke: #000000; stroke-width: 0.8"/>
      </defs>
      <g>
       <use xlink:href="#m3f49200199" x="48.043438" y="139.32" style="stroke: #000000; stroke-width: 0.8"/>
      </g>
     </g>
     <g id="text_1">
      <!-- 0 -->
      <g transform="translate(44.862188 153.918438) scale(0.1 -0.1)">
       <defs>
        <path id="DejaVuSans-30" d="M 2034 4250 
Q 1547 4250 1301 3770 
Q 1056 3291 1056 2328 
Q 1056 1369 1301 889 
Q 1547 409 2034 409 
Q 2525 409 2770 889 
Q 3016 1369 3016 2328 
Q 3016 3291 2770 3770 
Q 2525 4250 2034 4250 
z
M 2034 4750 
Q 2819 4750 3233 4129 
Q 3647 3509 3647 2328 
Q 3647 1150 3233 529 
Q 2819 -91 2034 -91 
Q 1250 -91 836 529 
Q 422 1150 422 2328 
Q 422 3509 836 4129 
Q 1250 4750 2034 4750 
z
" transform="scale(0.015625)"/>
       </defs>
       <use xlink:href="#DejaVuSans-30"/>
      </g>
     </g>
    </g>
    <g id="xtick_2">
     <g id="line2d_3">
      <path d="M 90.658338 139.32 
L 90.658338 0.72 
" clip-path="url(#pf66c3da472)" style="fill: none; stroke-dasharray: 0.8,1.32; stroke-dashoffset: 0; stroke: #000000; stroke-opacity: 0.5; stroke-width: 0.8"/>
     </g>
     <g id="line2d_4">
      <g>
       <use xlink:href="#m3f49200199" x="90.658338" y="139.32" style="stroke: #000000; stroke-width: 0.8"/>
      </g>
     </g>
     <g id="text_2">
      <!-- 5 -->
      <g transform="translate(87.477088 153.918438) scale(0.1 -0.1)">
       <defs>
        <path id="DejaVuSans-35" d="M 691 4666 
L 3169 4666 
L 3169 4134 
L 1269 4134 
L 1269 2991 
Q 1406 3038 1543 3061 
Q 1681 3084 1819 3084 
Q 2600 3084 3056 2656 
Q 3513 2228 3513 1497 
Q 3513 744 3044 326 
Q 2575 -91 1722 -91 
Q 1428 -91 1123 -41 
Q 819 9 494 109 
L 494 744 
Q 775 591 1075 516 
Q 1375 441 1709 441 
Q 2250 441 2565 725 
Q 2881 1009 2881 1497 
Q 2881 1984 2565 2268 
Q 2250 2553 1709 2553 
Q 1456 2553 1204 2497 
Q 953 2441 691 2322 
L 691 4666 
z
" transform="scale(0.015625)"/>
       </defs>
       <use xlink:href="#DejaVuSans-35"/>
      </g>
     </g>
    </g>
    <g id="xtick_3">
     <g id="line2d_5">
      <path d="M 133.273239 139.32 
L 133.273239 0.72 
" clip-path="url(#pf66c3da472)" style="fill: none; stroke-dasharray: 0.8,1.32; stroke-dashoffset: 0; stroke: #000000; stroke-opacity: 0.5; stroke-width: 0.8"/>
     </g>
     <g id="line2d_6">
      <g>
       <use xlink:href="#m3f49200199" x="133.273239" y="139.32" style="stroke: #000000; stroke-width: 0.8"/>
      </g>
     </g>
     <g id="text_3">
      <!-- 10 -->
      <g transform="translate(126.910739 153.918438) scale(0.1 -0.1)">
       <defs>
        <path id="DejaVuSans-31" d="M 794 531 
L 1825 531 
L 1825 4091 
L 703 3866 
L 703 4441 
L 1819 4666 
L 2450 4666 
L 2450 531 
L 3481 531 
L 3481 0 
L 794 0 
L 794 531 
z
" transform="scale(0.015625)"/>
       </defs>
       <use xlink:href="#DejaVuSans-31"/>
       <use xlink:href="#DejaVuSans-30" x="63.623047"/>
      </g>
     </g>
    </g>
    <g id="xtick_4">
     <g id="line2d_7">
      <path d="M 175.888139 139.32 
L 175.888139 0.72 
" clip-path="url(#pf66c3da472)" style="fill: none; stroke-dasharray: 0.8,1.32; stroke-dashoffset: 0; stroke: #000000; stroke-opacity: 0.5; stroke-width: 0.8"/>
     </g>
     <g id="line2d_8">
      <g>
       <use xlink:href="#m3f49200199" x="175.888139" y="139.32" style="stroke: #000000; stroke-width: 0.8"/>
      </g>
     </g>
     <g id="text_4">
      <!-- 15 -->
      <g transform="translate(169.525639 153.918438) scale(0.1 -0.1)">
       <use xlink:href="#DejaVuSans-31"/>
       <use xlink:href="#DejaVuSans-35" x="63.623047"/>
      </g>
     </g>
    </g>
    <g id="xtick_5">
     <g id="line2d_9">
      <path d="M 218.50304 139.32 
L 218.50304 0.72 
" clip-path="url(#pf66c3da472)" style="fill: none; stroke-dasharray: 0.8,1.32; stroke-dashoffset: 0; stroke: #000000; stroke-opacity: 0.5; stroke-width: 0.8"/>
     </g>
     <g id="line2d_10">
      <g>
       <use xlink:href="#m3f49200199" x="218.50304" y="139.32" style="stroke: #000000; stroke-width: 0.8"/>
      </g>
     </g>
     <g id="text_5">
      <!-- 20 -->
      <g transform="translate(212.14054 153.918438) scale(0.1 -0.1)">
       <defs>
        <path id="DejaVuSans-32" d="M 1228 531 
L 3431 531 
L 3431 0 
L 469 0 
L 469 531 
Q 828 903 1448 1529 
Q 2069 2156 2228 2338 
Q 2531 2678 2651 2914 
Q 2772 3150 2772 3378 
Q 2772 3750 2511 3984 
Q 2250 4219 1831 4219 
Q 1534 4219 1204 4116 
Q 875 4013 500 3803 
L 500 4441 
Q 881 4594 1212 4672 
Q 1544 4750 1819 4750 
Q 2544 4750 2975 4387 
Q 3406 4025 3406 3419 
Q 3406 3131 3298 2873 
Q 3191 2616 2906 2266 
Q 2828 2175 2409 1742 
Q 1991 1309 1228 531 
z
" transform="scale(0.015625)"/>
       </defs>
       <use xlink:href="#DejaVuSans-32"/>
       <use xlink:href="#DejaVuSans-30" x="63.623047"/>
      </g>
     </g>
    </g>
    <g id="xtick_6">
     <g id="line2d_11">
      <path d="M 261.11794 139.32 
L 261.11794 0.72 
" clip-path="url(#pf66c3da472)" style="fill: none; stroke-dasharray: 0.8,1.32; stroke-dashoffset: 0; stroke: #000000; stroke-opacity: 0.5; stroke-width: 0.8"/>
     </g>
     <g id="line2d_12">
      <g>
       <use xlink:href="#m3f49200199" x="261.11794" y="139.32" style="stroke: #000000; stroke-width: 0.8"/>
      </g>
     </g>
     <g id="text_6">
      <!-- 25 -->
      <g transform="translate(254.75544 153.918438) scale(0.1 -0.1)">
       <use xlink:href="#DejaVuSans-32"/>
       <use xlink:href="#DejaVuSans-35" x="63.623047"/>
      </g>
     </g>
    </g>
    <g id="xtick_7">
     <g id="line2d_13">
      <path d="M 303.732841 139.32 
L 303.732841 0.72 
" clip-path="url(#pf66c3da472)" style="fill: none; stroke-dasharray: 0.8,1.32; stroke-dashoffset: 0; stroke: #000000; stroke-opacity: 0.5; stroke-width: 0.8"/>
     </g>
     <g id="line2d_14">
      <g>
       <use xlink:href="#m3f49200199" x="303.732841" y="139.32" style="stroke: #000000; stroke-width: 0.8"/>
      </g>
     </g>
     <g id="text_7">
      <!-- 30 -->
      <g transform="translate(297.370341 153.918438) scale(0.1 -0.1)">
       <defs>
        <path id="DejaVuSans-33" d="M 2597 2516 
Q 3050 2419 3304 2112 
Q 3559 1806 3559 1356 
Q 3559 666 3084 287 
Q 2609 -91 1734 -91 
Q 1441 -91 1130 -33 
Q 819 25 488 141 
L 488 750 
Q 750 597 1062 519 
Q 1375 441 1716 441 
Q 2309 441 2620 675 
Q 2931 909 2931 1356 
Q 2931 1769 2642 2001 
Q 2353 2234 1838 2234 
L 1294 2234 
L 1294 2753 
L 1863 2753 
Q 2328 2753 2575 2939 
Q 2822 3125 2822 3475 
Q 2822 3834 2567 4026 
Q 2313 4219 1838 4219 
Q 1578 4219 1281 4162 
Q 984 4106 628 3988 
L 628 4550 
Q 988 4650 1302 4700 
Q 1616 4750 1894 4750 
Q 2613 4750 3031 4423 
Q 3450 4097 3450 3541 
Q 3450 3153 3228 2886 
Q 3006 2619 2597 2516 
z
" transform="scale(0.015625)"/>
       </defs>
       <use xlink:href="#DejaVuSans-33"/>
       <use xlink:href="#DejaVuSans-30" x="63.623047"/>
      </g>
     </g>
    </g>
    <g id="text_8">
     <!-- Zeit [s] -->
     <g transform="translate(169.597344 163.596563) scale(0.1 -0.1)">
      <defs>
       <path id="DejaVuSans-5a" d="M 359 4666 
L 4025 4666 
L 4025 4184 
L 1075 531 
L 4097 531 
L 4097 0 
L 288 0 
L 288 481 
L 3238 4134 
L 359 4134 
L 359 4666 
z
" transform="scale(0.015625)"/>
       <path id="DejaVuSans-65" d="M 3597 1894 
L 3597 1613 
L 953 1613 
Q 991 1019 1311 708 
Q 1631 397 2203 397 
Q 2534 397 2845 478 
Q 3156 559 3463 722 
L 3463 178 
Q 3153 47 2828 -22 
Q 2503 -91 2169 -91 
Q 1331 -91 842 396 
Q 353 884 353 1716 
Q 353 2575 817 3079 
Q 1281 3584 2069 3584 
Q 2775 3584 3186 3129 
Q 3597 2675 3597 1894 
z
M 3022 2063 
Q 3016 2534 2758 2815 
Q 2500 3097 2075 3097 
Q 1594 3097 1305 2825 
Q 1016 2553 972 2059 
L 3022 2063 
z
" transform="scale(0.015625)"/>
       <path id="DejaVuSans-69" d="M 603 3500 
L 1178 3500 
L 1178 0 
L 603 0 
L 603 3500 
z
M 603 4863 
L 1178 4863 
L 1178 4134 
L 603 4134 
L 603 4863 
z
" transform="scale(0.015625)"/>
       <path id="DejaVuSans-74" d="M 1172 4494 
L 1172 3500 
L 2356 3500 
L 2356 3053 
L 1172 3053 
L 1172 1153 
Q 1172 725 1289 603 
Q 1406 481 1766 481 
L 2356 481 
L 2356 0 
L 1766 0 
Q 1100 0 847 248 
Q 594 497 594 1153 
L 594 3053 
L 172 3053 
L 172 3500 
L 594 3500 
L 594 4494 
L 1172 4494 
z
" transform="scale(0.015625)"/>
       <path id="DejaVuSans-20" transform="scale(0.015625)"/>
       <path id="DejaVuSans-5b" d="M 550 4863 
L 1875 4863 
L 1875 4416 
L 1125 4416 
L 1125 -397 
L 1875 -397 
L 1875 -844 
L 550 -844 
L 550 4863 
z
" transform="scale(0.015625)"/>
       <path id="DejaVuSans-73" d="M 2834 3397 
L 2834 2853 
Q 2591 2978 2328 3040 
Q 2066 3103 1784 3103 
Q 1356 3103 1142 2972 
Q 928 2841 928 2578 
Q 928 2378 1081 2264 
Q 1234 2150 1697 2047 
L 1894 2003 
Q 2506 1872 2764 1633 
Q 3022 1394 3022 966 
Q 3022 478 2636 193 
Q 2250 -91 1575 -91 
Q 1294 -91 989 -36 
Q 684 19 347 128 
L 347 722 
Q 666 556 975 473 
Q 1284 391 1588 391 
Q 1994 391 2212 530 
Q 2431 669 2431 922 
Q 2431 1156 2273 1281 
Q 2116 1406 1581 1522 
L 1381 1569 
Q 847 1681 609 1914 
Q 372 2147 372 2553 
Q 372 3047 722 3315 
Q 1072 3584 1716 3584 
Q 2034 3584 2315 3537 
Q 2597 3491 2834 3397 
z
" transform="scale(0.015625)"/>
       <path id="DejaVuSans-5d" d="M 1947 4863 
L 1947 -844 
L 622 -844 
L 622 -397 
L 1369 -397 
L 1369 4416 
L 622 4416 
L 622 4863 
L 1947 4863 
z
" transform="scale(0.015625)"/>
      </defs>
      <use xlink:href="#DejaVuSans-5a"/>
      <use xlink:href="#DejaVuSans-65" x="68.505859"/>
      <use xlink:href="#DejaVuSans-69" x="130.029297"/>
      <use xlink:href="#DejaVuSans-74" x="157.8125"/>
      <use xlink:href="#DejaVuSans-20" x="197.021484"/>
      <use xlink:href="#DejaVuSans-5b" x="228.808594"/>
      <use xlink:href="#DejaVuSans-73" x="267.822266"/>
      <use xlink:href="#DejaVuSans-5d" x="319.921875"/>
     </g>
    </g>
   </g>
   <g id="matplotlib.axis_2">
    <g id="ytick_1">
     <g id="line2d_15">
      <path d="M 48.043438 125.571655 
L 327.043437 125.571655 
" clip-path="url(#pf66c3da472)" style="fill: none; stroke-dasharray: 0.8,1.32; stroke-dashoffset: 0; stroke: #000000; stroke-opacity: 0.5; stroke-width: 0.8"/>
     </g>
     <g id="line2d_16">
      <defs>
       <path id="m9b9acf3e9a" d="M 0 0 
L -3.5 0 
" style="stroke: #000000; stroke-width: 0.8"/>
      </defs>
      <g>
       <use xlink:href="#m9b9acf3e9a" x="48.043438" y="125.571655" style="stroke: #000000; stroke-width: 0.8"/>
      </g>
     </g>
     <g id="text_9">
      <!-- −17.2 -->
      <g transform="translate(10.398125 129.370874) scale(0.1 -0.1)">
       <defs>
        <path id="DejaVuSans-2212" d="M 678 2272 
L 4684 2272 
L 4684 1741 
L 678 1741 
L 678 2272 
z
" transform="scale(0.015625)"/>
        <path id="DejaVuSans-37" d="M 525 4666 
L 3525 4666 
L 3525 4397 
L 1831 0 
L 1172 0 
L 2766 4134 
L 525 4134 
L 525 4666 
z
" transform="scale(0.015625)"/>
        <path id="DejaVuSans-2e" d="M 684 794 
L 1344 794 
L 1344 0 
L 684 0 
L 684 794 
z
" transform="scale(0.015625)"/>
       </defs>
       <use xlink:href="#DejaVuSans-2212"/>
       <use xlink:href="#DejaVuSans-31" x="83.789062"/>
       <use xlink:href="#DejaVuSans-37" x="147.412109"/>
       <use xlink:href="#DejaVuSans-2e" x="211.035156"/>
       <use xlink:href="#DejaVuSans-32" x="242.822266"/>
      </g>
     </g>
    </g>
    <g id="ytick_2">
     <g id="line2d_17">
      <path d="M 48.043438 93.015229 
L 327.043437 93.015229 
" clip-path="url(#pf66c3da472)" style="fill: none; stroke-dasharray: 0.8,1.32; stroke-dashoffset: 0; stroke: #000000; stroke-opacity: 0.5; stroke-width: 0.8"/>
     </g>
     <g id="line2d_18">
      <g>
       <use xlink:href="#m9b9acf3e9a" x="48.043438" y="93.015229" style="stroke: #000000; stroke-width: 0.8"/>
      </g>
     </g>
     <g id="text_10">
      <!-- −17.0 -->
      <g transform="translate(10.398125 96.814448) scale(0.1 -0.1)">
       <use xlink:href="#DejaVuSans-2212"/>
       <use xlink:href="#DejaVuSans-31" x="83.789062"/>
       <use xlink:href="#DejaVuSans-37" x="147.412109"/>
       <use xlink:href="#DejaVuSans-2e" x="211.035156"/>
       <use xlink:href="#DejaVuSans-30" x="242.822266"/>
      </g>
     </g>
    </g>
    <g id="ytick_3">
     <g id="line2d_19">
      <path d="M 48.043438 60.458803 
L 327.043437 60.458803 
" clip-path="url(#pf66c3da472)" style="fill: none; stroke-dasharray: 0.8,1.32; stroke-dashoffset: 0; stroke: #000000; stroke-opacity: 0.5; stroke-width: 0.8"/>
     </g>
     <g id="line2d_20">
      <g>
       <use xlink:href="#m9b9acf3e9a" x="48.043438" y="60.458803" style="stroke: #000000; stroke-width: 0.8"/>
      </g>
     </g>
     <g id="text_11">
      <!-- −16.8 -->
      <g transform="translate(10.398125 64.258021) scale(0.1 -0.1)">
       <defs>
        <path id="DejaVuSans-36" d="M 2113 2584 
Q 1688 2584 1439 2293 
Q 1191 2003 1191 1497 
Q 1191 994 1439 701 
Q 1688 409 2113 409 
Q 2538 409 2786 701 
Q 3034 994 3034 1497 
Q 3034 2003 2786 2293 
Q 2538 2584 2113 2584 
z
M 3366 4563 
L 3366 3988 
Q 3128 4100 2886 4159 
Q 2644 4219 2406 4219 
Q 1781 4219 1451 3797 
Q 1122 3375 1075 2522 
Q 1259 2794 1537 2939 
Q 1816 3084 2150 3084 
Q 2853 3084 3261 2657 
Q 3669 2231 3669 1497 
Q 3669 778 3244 343 
Q 2819 -91 2113 -91 
Q 1303 -91 875 529 
Q 447 1150 447 2328 
Q 447 3434 972 4092 
Q 1497 4750 2381 4750 
Q 2619 4750 2861 4703 
Q 3103 4656 3366 4563 
z
" transform="scale(0.015625)"/>
        <path id="DejaVuSans-38" d="M 2034 2216 
Q 1584 2216 1326 1975 
Q 1069 1734 1069 1313 
Q 1069 891 1326 650 
Q 1584 409 2034 409 
Q 2484 409 2743 651 
Q 3003 894 3003 1313 
Q 3003 1734 2745 1975 
Q 2488 2216 2034 2216 
z
M 1403 2484 
Q 997 2584 770 2862 
Q 544 3141 544 3541 
Q 544 4100 942 4425 
Q 1341 4750 2034 4750 
Q 2731 4750 3128 4425 
Q 3525 4100 3525 3541 
Q 3525 3141 3298 2862 
Q 3072 2584 2669 2484 
Q 3125 2378 3379 2068 
Q 3634 1759 3634 1313 
Q 3634 634 3220 271 
Q 2806 -91 2034 -91 
Q 1263 -91 848 271 
Q 434 634 434 1313 
Q 434 1759 690 2068 
Q 947 2378 1403 2484 
z
M 1172 3481 
Q 1172 3119 1398 2916 
Q 1625 2713 2034 2713 
Q 2441 2713 2670 2916 
Q 2900 3119 2900 3481 
Q 2900 3844 2670 4047 
Q 2441 4250 2034 4250 
Q 1625 4250 1398 4047 
Q 1172 3844 1172 3481 
z
" transform="scale(0.015625)"/>
       </defs>
       <use xlink:href="#DejaVuSans-2212"/>
       <use xlink:href="#DejaVuSans-31" x="83.789062"/>
       <use xlink:href="#DejaVuSans-36" x="147.412109"/>
       <use xlink:href="#DejaVuSans-2e" x="211.035156"/>
       <use xlink:href="#DejaVuSans-38" x="242.822266"/>
      </g>
     </g>
    </g>
    <g id="ytick_4">
     <g id="line2d_21">
      <path d="M 48.043438 27.902376 
L 327.043437 27.902376 
" clip-path="url(#pf66c3da472)" style="fill: none; stroke-dasharray: 0.8,1.32; stroke-dashoffset: 0; stroke: #000000; stroke-opacity: 0.5; stroke-width: 0.8"/>
     </g>
     <g id="line2d_22">
      <g>
       <use xlink:href="#m9b9acf3e9a" x="48.043438" y="27.902376" style="stroke: #000000; stroke-width: 0.8"/>
      </g>
     </g>
     <g id="text_12">
      <!-- −16.6 -->
      <g transform="translate(10.398125 31.701595) scale(0.1 -0.1)">
       <use xlink:href="#DejaVuSans-2212"/>
       <use xlink:href="#DejaVuSans-31" x="83.789062"/>
       <use xlink:href="#DejaVuSans-36" x="147.412109"/>
       <use xlink:href="#DejaVuSans-2e" x="211.035156"/>
       <use xlink:href="#DejaVuSans-36" x="242.822266"/>
      </g>
     </g>
    </g>
    <g id="text_13">
     <!-- Drehmoment [Nm] -->
     <g transform="translate(8.318438 117.165313) rotate(-90) scale(0.1 -0.1)">
      <defs>
       <path id="DejaVuSans-44" d="M 1259 4147 
L 1259 519 
L 2022 519 
Q 2988 519 3436 956 
Q 3884 1394 3884 2338 
Q 3884 3275 3436 3711 
Q 2988 4147 2022 4147 
L 1259 4147 
z
M 628 4666 
L 1925 4666 
Q 3281 4666 3915 4102 
Q 4550 3538 4550 2338 
Q 4550 1131 3912 565 
Q 3275 0 1925 0 
L 628 0 
L 628 4666 
z
" transform="scale(0.015625)"/>
       <path id="DejaVuSans-72" d="M 2631 2963 
Q 2534 3019 2420 3045 
Q 2306 3072 2169 3072 
Q 1681 3072 1420 2755 
Q 1159 2438 1159 1844 
L 1159 0 
L 581 0 
L 581 3500 
L 1159 3500 
L 1159 2956 
Q 1341 3275 1631 3429 
Q 1922 3584 2338 3584 
Q 2397 3584 2469 3576 
Q 2541 3569 2628 3553 
L 2631 2963 
z
" transform="scale(0.015625)"/>
       <path id="DejaVuSans-68" d="M 3513 2113 
L 3513 0 
L 2938 0 
L 2938 2094 
Q 2938 2591 2744 2837 
Q 2550 3084 2163 3084 
Q 1697 3084 1428 2787 
Q 1159 2491 1159 1978 
L 1159 0 
L 581 0 
L 581 4863 
L 1159 4863 
L 1159 2956 
Q 1366 3272 1645 3428 
Q 1925 3584 2291 3584 
Q 2894 3584 3203 3211 
Q 3513 2838 3513 2113 
z
" transform="scale(0.015625)"/>
       <path id="DejaVuSans-6d" d="M 3328 2828 
Q 3544 3216 3844 3400 
Q 4144 3584 4550 3584 
Q 5097 3584 5394 3201 
Q 5691 2819 5691 2113 
L 5691 0 
L 5113 0 
L 5113 2094 
Q 5113 2597 4934 2840 
Q 4756 3084 4391 3084 
Q 3944 3084 3684 2787 
Q 3425 2491 3425 1978 
L 3425 0 
L 2847 0 
L 2847 2094 
Q 2847 2600 2669 2842 
Q 2491 3084 2119 3084 
Q 1678 3084 1418 2786 
Q 1159 2488 1159 1978 
L 1159 0 
L 581 0 
L 581 3500 
L 1159 3500 
L 1159 2956 
Q 1356 3278 1631 3431 
Q 1906 3584 2284 3584 
Q 2666 3584 2933 3390 
Q 3200 3197 3328 2828 
z
" transform="scale(0.015625)"/>
       <path id="DejaVuSans-6f" d="M 1959 3097 
Q 1497 3097 1228 2736 
Q 959 2375 959 1747 
Q 959 1119 1226 758 
Q 1494 397 1959 397 
Q 2419 397 2687 759 
Q 2956 1122 2956 1747 
Q 2956 2369 2687 2733 
Q 2419 3097 1959 3097 
z
M 1959 3584 
Q 2709 3584 3137 3096 
Q 3566 2609 3566 1747 
Q 3566 888 3137 398 
Q 2709 -91 1959 -91 
Q 1206 -91 779 398 
Q 353 888 353 1747 
Q 353 2609 779 3096 
Q 1206 3584 1959 3584 
z
" transform="scale(0.015625)"/>
       <path id="DejaVuSans-6e" d="M 3513 2113 
L 3513 0 
L 2938 0 
L 2938 2094 
Q 2938 2591 2744 2837 
Q 2550 3084 2163 3084 
Q 1697 3084 1428 2787 
Q 1159 2491 1159 1978 
L 1159 0 
L 581 0 
L 581 3500 
L 1159 3500 
L 1159 2956 
Q 1366 3272 1645 3428 
Q 1925 3584 2291 3584 
Q 2894 3584 3203 3211 
Q 3513 2838 3513 2113 
z
" transform="scale(0.015625)"/>
       <path id="DejaVuSans-4e" d="M 628 4666 
L 1478 4666 
L 3547 763 
L 3547 4666 
L 4159 4666 
L 4159 0 
L 3309 0 
L 1241 3903 
L 1241 0 
L 628 0 
L 628 4666 
z
" transform="scale(0.015625)"/>
      </defs>
      <use xlink:href="#DejaVuSans-44"/>
      <use xlink:href="#DejaVuSans-72" x="77.001953"/>
      <use xlink:href="#DejaVuSans-65" x="115.865234"/>
      <use xlink:href="#DejaVuSans-68" x="177.388672"/>
      <use xlink:href="#DejaVuSans-6d" x="240.767578"/>
      <use xlink:href="#DejaVuSans-6f" x="338.179688"/>
      <use xlink:href="#DejaVuSans-6d" x="399.361328"/>
      <use xlink:href="#DejaVuSans-65" x="496.773438"/>
      <use xlink:href="#DejaVuSans-6e" x="558.296875"/>
      <use xlink:href="#DejaVuSans-74" x="621.675781"/>
      <use xlink:href="#DejaVuSans-20" x="660.884766"/>
      <use xlink:href="#DejaVuSans-5b" x="692.671875"/>
      <use xlink:href="#DejaVuSans-4e" x="731.685547"/>
      <use xlink:href="#DejaVuSans-6d" x="806.490234"/>
      <use xlink:href="#DejaVuSans-5d" x="903.902344"/>
     </g>
    </g>
   </g>
   <g id="line2d_23">
    <path d="M 48.043438 5.853334 
L 327.043437 5.853334 
L 327.043437 5.853334 
" clip-path="url(#pf66c3da472)" style="fill: none; stroke: #0000ff; stroke-opacity: 0.5; stroke-width: 3; stroke-linecap: square"/>
   </g>
   <g id="line2d_24">
    <path d="M 48.043438 117.487287 
L 48.096174 115.796001 
L 48.191054 117.276011 
L 48.356886 113.300682 
L 48.407732 114.010052 
L 48.47858 110.650112 
L 48.5952 120.222001 
L 48.664346 117.128999 
L 48.751063 118.20004 
L 48.825365 118.844268 
L 49.025138 110.332768 
L 49.093357 111.780265 
L 49.162518 116.795819 
L 49.336611 114.789415 
L 49.540027 108.175887 
L 49.608587 110.330243 
L 49.660109 109.686326 
L 49.729694 109.100488 
L 49.831222 113.894408 
L 49.883107 112.285613 
L 50.038305 106.817107 
L 50.108315 110.760694 
L 50.364651 101.444281 
L 50.384385 101.69794 
L 50.439815 103.819389 
L 50.45064 102.985862 
L 50.520137 102.122659 
L 50.657519 103.897094 
L 50.879644 112.382666 
L 50.948297 111.424492 
L 51.009206 109.812536 
L 51.086121 113.438825 
L 51.155251 114.223774 
L 51.29345 108.208468 
L 51.366885 111.438839 
L 51.518171 102.204167 
L 51.862095 115.62443 
L 52.004057 105.571174 
L 52.223756 115.525472 
L 52.291778 121.015283 
L 52.360698 120.890065 
L 52.428507 120.535939 
L 52.532628 116.123347 
L 52.572177 109.714242 
L 52.638224 114.297865 
L 52.723189 116.719404 
L 52.791922 115.012449 
L 52.864585 116.395706 
L 52.929509 120.55741 
L 53.206095 108.354569 
L 53.277401 109.347423 
L 53.359947 107.146185 
L 53.497937 115.410468 
L 53.566273 113.963046 
L 53.71424 108.82976 
L 53.77571 111.627722 
L 53.858006 110.179401 
L 54.077668 120.077294 
L 54.204139 115.869182 
L 54.271681 116.000448 
L 54.409141 112.50124 
L 54.494469 113.542423 
L 54.768894 124.152753 
L 54.912456 121.955623 
L 54.995474 122.737392 
L 55.061905 117.613022 
L 55.131064 118.846863 
L 55.202178 119.458174 
L 55.476267 129.358819 
L 55.785592 112.795793 
L 55.837132 117.892938 
L 55.957214 116.869059 
L 56.197023 99.780258 
L 56.403326 107.060422 
L 56.615082 120.256137 
L 56.686597 119.93754 
L 56.90418 115.774567 
L 57.110844 118.723906 
L 57.196623 113.177513 
L 57.426067 99.600094 
L 57.479244 108.399891 
L 57.562464 106.214712 
L 57.615746 106.097134 
L 57.842366 113.678556 
L 57.970904 112.081931 
L 58.126001 115.028952 
L 58.210436 112.568139 
L 58.226508 112.698489 
L 58.368263 125.510216 
L 58.506933 118.422089 
L 58.558532 118.670131 
L 58.696436 111.790312 
L 58.781886 114.054499 
L 58.852498 120.638522 
L 58.91914 118.503451 
L 59.073848 112.781717 
L 59.125417 113.713585 
L 59.177073 118.874571 
L 59.264693 118.823308 
L 59.332048 118.774946 
L 59.383785 118.288007 
L 59.503062 113.735928 
L 59.543748 113.894733 
L 59.640819 115.1303 
L 59.728103 113.188642 
L 59.761465 114.004461 
L 59.814277 116.031791 
L 59.97794 112.340926 
L 60.139309 120.713092 
L 60.380693 113.644518 
L 60.671532 97.070521 
L 60.775441 97.740194 
L 61.152017 113.863782 
L 61.17003 115.147322 
L 61.239019 110.988688 
L 61.37616 130.448915 
L 61.461607 128.771189 
L 61.667489 113.56675 
L 61.736649 112.366678 
L 61.805237 108.248117 
L 61.891256 109.197821 
L 61.978266 111.60314 
L 62.028342 110.177611 
L 62.097344 110.080135 
L 62.165606 107.769622 
L 62.321911 115.899387 
L 62.491881 119.671418 
L 62.525975 117.700758 
L 62.584286 118.922514 
L 62.662963 120.395635 
L 62.800781 108.771789 
L 62.899503 113.003346 
L 62.939098 112.762002 
L 63.311531 105.129075 
L 63.540089 109.728036 
L 63.592145 109.364054 
L 63.728967 112.666308 
L 63.867338 108.400358 
L 64.022252 116.154547 
L 64.090702 114.560866 
L 64.262227 113.491876 
L 64.314735 110.222632 
L 64.571602 114.677952 
L 64.674966 113.928551 
L 64.773535 114.398168 
L 64.795119 113.989221 
L 64.950634 119.791625 
L 65.018905 118.079247 
L 65.124554 113.196714 
L 65.1603 115.546866 
L 65.229372 119.434428 
L 65.315011 117.892316 
L 65.375771 118.864858 
L 65.447539 116.820153 
L 65.568738 117.942593 
L 65.663906 106.15619 
L 65.810676 108.871638 
L 65.933373 108.373397 
L 66.050991 114.613196 
L 66.068695 113.075751 
L 66.216507 110.125094 
L 66.298535 109.827628 
L 66.478769 116.398034 
L 66.577527 113.818851 
L 66.717154 106.859744 
L 66.78604 106.99175 
L 66.922949 108.830197 
L 66.99213 106.811348 
L 67.283546 120.156308 
L 67.352885 120.657219 
L 67.421184 118.507415 
L 67.524097 120.015059 
L 67.645444 113.314618 
L 67.70083 113.762296 
L 67.924602 109.340473 
L 68.059907 99.467186 
L 68.199076 101.411251 
L 68.300705 108.824486 
L 68.353224 106.422699 
L 68.547357 111.867239 
L 68.578386 107.697146 
L 68.627682 111.893566 
L 68.851237 122.305039 
L 68.937787 120.809208 
L 69.006788 116.958273 
L 69.130089 124.926635 
L 69.212696 122.579124 
L 69.332061 123.532574 
L 69.418899 120.798463 
L 69.435335 113.905479 
L 69.79868 115.576969 
L 70.173855 116.502146 
L 70.574572 112.194202 
L 70.949127 115.192098 
L 70.964305 123.225436 
L 71.049464 119.767559 
L 71.257068 125.591588 
L 71.5143 110.888278 
L 71.532851 113.612699 
L 71.685818 119.510845 
L 71.754675 118.727956 
L 71.997251 111.187065 
L 72.235909 121.026095 
L 72.466493 113.466496 
L 72.683775 127.261293 
L 72.769192 124.792547 
L 72.821156 120.382199 
L 72.905671 120.598587 
L 72.991389 119.296211 
L 73.181115 123.196381 
L 73.320112 111.89923 
L 73.422002 115.069038 
L 73.525687 122.089737 
L 73.644886 121.628099 
L 73.69627 120.328759 
L 73.924901 124.560086 
L 74.04102 118.130126 
L 74.105506 118.225995 
L 74.277508 123.958047 
L 74.313887 122.455416 
L 74.401747 120.167894 
L 74.518279 114.691747 
L 74.74124 118.259696 
L 74.828872 117.647785 
L 74.965054 109.466708 
L 75.016264 110.449123 
L 75.101971 110.74248 
L 75.170211 109.240653 
L 75.239215 109.716892 
L 75.326931 113.129541 
L 75.462039 123.320488 
L 75.600293 115.437274 
L 75.737907 118.863336 
L 75.875333 127.207953 
L 75.961849 124.592206 
L 76.098656 110.471086 
L 76.236353 122.241808 
L 76.305345 122.361779 
L 76.442456 117.600066 
L 76.56185 117.514514 
L 76.666554 112.953929 
L 76.813262 115.674227 
L 76.820615 116.045337 
L 76.960945 112.776208 
L 77.044617 113.349062 
L 77.123478 112.883813 
L 77.291923 98.084326 
L 77.46219 98.586441 
L 77.633942 102.499308 
L 77.651066 99.616706 
L 77.719185 100.646301 
L 78.080003 118.940033 
L 78.148332 116.555134 
L 78.268189 115.577392 
L 78.37631 110.914578 
L 78.581002 113.950221 
L 78.646835 113.6706 
L 78.855221 104.713903 
L 78.990366 106.460516 
L 79.079854 109.839369 
L 79.351634 102.760847 
L 79.610513 115.462805 
L 79.626844 111.750537 
L 79.728996 107.322201 
L 79.918302 112.836913 
L 80.055433 114.449854 
L 80.159799 107.854626 
L 80.281917 110.157857 
L 80.330213 110.114628 
L 80.433985 114.568486 
L 80.484866 113.410856 
L 80.640768 112.106437 
L 80.710023 110.283799 
L 80.811355 112.596075 
L 80.931755 120.506108 
L 81.066979 121.384824 
L 81.197032 115.724979 
L 81.279637 118.487272 
L 81.434271 130.082088 
L 81.539392 129.950242 
L 81.692312 115.936449 
L 81.778501 112.586502 
L 81.919436 122.260835 
L 81.985381 118.256423 
L 82.054445 111.946729 
L 82.124208 112.054154 
L 82.415529 128.176132 
L 82.484734 127.933392 
L 82.690684 117.383461 
L 82.760182 120.620685 
L 82.880424 119.20143 
L 83.051785 109.938521 
L 83.182563 110.492993 
L 83.259093 112.727794 
L 83.325973 111.946407 
L 83.343022 110.6901 
L 83.453998 111.781848 
L 83.587602 107.674553 
L 83.688638 114.725919 
L 83.829101 114.454568 
L 83.917699 110.735497 
L 84.297465 131.850069 
L 84.325304 129.590117 
L 84.480548 123.629142 
L 84.607315 131.601226 
L 84.704117 128.11864 
L 84.755849 122.300381 
L 84.885271 123.090789 
L 84.928657 125.569722 
L 85.030289 124.922965 
L 85.047253 122.443025 
L 85.159055 123.27716 
L 85.323841 128.967245 
L 85.391625 129.323774 
L 85.478438 134.163381 
L 85.684431 124.547526 
L 85.7526 128.036687 
L 85.963237 113.23481 
L 86.116927 109.310825 
L 86.253925 102.08904 
L 86.391535 101.39822 
L 86.459939 98.746007 
L 86.684568 112.047323 
L 86.75355 108.847737 
L 86.960175 117.427581 
L 87.047318 118.927821 
L 87.115147 122.87042 
L 87.169824 120.262837 
L 87.528675 113.696037 
L 87.597598 114.134254 
L 87.769826 120.202841 
L 87.891887 113.19878 
L 88.063357 116.310908 
L 88.254725 125.257537 
L 88.371492 119.024283 
L 88.440865 114.126491 
L 88.581548 114.756373 
L 88.959672 103.869292 
L 89.010532 105.944824 
L 89.440579 124.4584 
L 89.513435 124.324409 
L 89.578182 123.553671 
L 89.664169 119.925656 
L 89.800726 119.456564 
L 89.944067 115.109411 
L 90.013523 119.94359 
L 90.218572 108.45633 
L 90.353097 118.294671 
L 90.576192 110.846048 
L 90.730201 101.615722 
L 90.867824 108.930989 
L 90.937113 106.31929 
L 91.039626 104.580606 
L 91.143449 109.465775 
L 91.21496 108.791349 
L 91.410712 115.244209 
L 91.573627 102.971344 
L 91.646293 105.502038 
L 91.710828 105.13669 
L 91.779282 101.151852 
L 91.848436 103.827732 
L 92.005013 101.929123 
L 92.089696 104.452519 
L 92.227809 115.202384 
L 92.502317 123.571593 
L 92.570197 123.563459 
L 92.673378 125.689827 
L 92.724587 129.12491 
L 92.794493 127.570709 
L 93.000688 121.244815 
L 93.078589 120.58579 
L 93.242108 114.500004 
L 93.351596 114.594564 
L 93.485849 108.351427 
L 93.929954 118.298644 
L 93.999918 112.748839 
L 94.081832 115.928963 
L 94.155909 114.651309 
L 94.193902 114.713739 
L 94.310743 114.368029 
L 94.349716 117.398362 
L 94.499559 112.530138 
L 94.550798 112.658537 
L 94.688566 111.369477 
L 94.742032 112.2227 
L 94.777328 104.397339 
L 94.832259 108.851076 
L 94.914753 109.332349 
L 95.053581 101.120845 
L 95.189325 106.047122 
L 95.25888 104.05563 
L 95.275602 105.561978 
L 95.414456 110.292464 
L 95.488003 114.253042 
L 95.550706 107.072457 
L 95.618725 107.327856 
L 95.763204 119.23755 
L 95.825953 119.484302 
L 95.904765 114.595131 
L 95.980199 114.637409 
L 96.047979 112.668841 
L 96.118197 113.141798 
L 96.184892 112.948514 
L 96.324785 116.627752 
L 96.545448 103.712141 
L 96.615058 104.647875 
L 96.683024 105.821079 
L 96.822226 101.495725 
L 96.975136 105.236333 
L 97.112993 104.439502 
L 97.319125 114.106417 
L 97.387511 109.088526 
L 97.473521 110.663496 
L 97.680922 117.309339 
L 97.748749 114.582355 
L 97.888649 118.690286 
L 98.041051 108.592471 
L 98.109735 112.933702 
L 98.246759 103.128129 
L 98.315789 103.999455 
L 98.392941 100.220339 
L 98.523253 106.233404 
L 98.592712 105.982449 
L 98.745204 113.173528 
L 98.817024 109.613106 
L 98.968288 120.417122 
L 99.021128 111.193943 
L 99.096627 112.070992 
L 99.243757 105.075899 
L 99.383208 105.861907 
L 99.468635 104.381991 
L 99.519541 108.113307 
L 99.588836 106.841051 
L 99.675272 102.013506 
L 99.813472 112.932152 
L 99.880603 111.243055 
L 99.950602 111.865408 
L 100.030057 110.575016 
L 100.035689 114.548774 
L 100.087997 113.481627 
L 100.230076 112.570793 
L 100.315947 115.362797 
L 100.449746 117.805188 
L 100.501345 116.866052 
L 100.519054 115.961047 
L 100.588922 117.51779 
L 100.656296 119.313405 
L 100.829433 113.066955 
L 100.949815 115.422157 
L 101.053047 114.213298 
L 101.086858 116.062329 
L 101.155316 114.742384 
L 101.224513 111.727399 
L 101.293892 112.195877 
L 101.451186 118.148922 
L 101.52225 118.128383 
L 101.593065 116.84548 
L 101.606585 112.482366 
L 101.65752 112.985797 
L 101.830918 111.050283 
L 102.018882 116.869394 
L 102.087564 118.743058 
L 102.10486 112.361086 
L 102.276465 111.051406 
L 102.450903 116.144169 
L 102.708566 106.345462 
L 102.775888 107.918625 
L 102.862921 115.364052 
L 102.949311 114.546055 
L 103.001166 112.116906 
L 103.016732 114.18466 
L 103.086227 118.112872 
L 103.241207 117.053249 
L 103.257929 116.123817 
L 103.360364 117.384777 
L 103.428685 115.329104 
L 103.498161 116.068722 
L 103.566755 108.374242 
L 103.670707 111.144273 
L 103.739485 110.898822 
L 103.826283 107.187761 
L 103.910948 106.119803 
L 104.113777 114.025359 
L 104.135514 112.184218 
L 104.237689 113.001382 
L 104.494799 121.179594 
L 104.598108 119.972237 
L 104.71496 120.581097 
L 104.966993 113.588471 
L 104.975377 114.269301 
L 105.09597 116.252302 
L 105.165999 112.843181 
L 105.285441 114.944222 
L 105.305412 118.566251 
L 105.35424 113.971612 
L 105.422995 113.775247 
L 105.619037 116.31996 
L 105.637969 118.697796 
L 105.702184 115.969688 
L 105.997544 104.072783 
L 106.061403 107.895976 
L 106.130475 106.110243 
L 106.232014 105.398781 
L 106.438099 98.732541 
L 106.69857 107.519194 
L 106.78258 101.822021 
L 106.834873 105.439388 
L 106.973823 104.414522 
L 107.006789 108.681093 
L 107.080164 104.453155 
L 107.125578 103.295259 
L 107.194342 104.597252 
L 107.297595 103.892602 
L 107.37026 104.309316 
L 107.692613 109.471586 
L 107.731641 106.815425 
L 107.850238 114.974293 
L 107.918356 113.1094 
L 107.988798 112.464123 
L 108.159323 102.635452 
L 108.332734 106.536434 
L 108.4348 110.768272 
L 108.675104 118.34458 
L 108.795286 124.662292 
L 108.848151 127.013361 
L 108.915621 122.159506 
L 109.001196 122.322795 
L 109.052886 122.210217 
L 109.467802 108.619311 
L 109.550668 107.369709 
L 109.632288 113.597849 
L 109.689497 113.250262 
L 109.757047 110.698416 
L 109.826747 113.615049 
L 110.014631 109.254622 
L 110.049513 113.607951 
L 110.117845 112.62406 
L 110.204233 110.66669 
L 110.272588 115.897238 
L 110.325321 112.330548 
L 110.410999 112.031824 
L 110.4818 113.301841 
L 110.565874 110.252411 
L 110.826264 119.272656 
L 110.901615 119.205149 
L 110.962099 116.62724 
L 111.154089 120.860634 
L 111.185092 120.621877 
L 111.41413 112.560207 
L 111.459554 113.872235 
L 111.752114 123.734087 
L 111.958461 118.151641 
L 112.233725 116.829865 
L 112.305017 106.213163 
L 112.388887 106.698601 
L 112.457078 105.040164 
L 112.534983 105.382935 
L 112.638618 104.507078 
L 112.732751 108.4096 
L 112.88674 103.737271 
L 112.955606 104.580466 
L 113.024962 109.392032 
L 113.093463 107.21855 
L 113.161818 103.786823 
L 113.660338 120.944456 
L 113.728875 114.606372 
L 113.797831 118.33518 
L 113.897789 119.638465 
L 113.951018 115.035618 
L 114.020459 116.261088 
L 114.089046 115.250555 
L 114.157725 116.347628 
L 114.229898 115.815073 
L 114.366406 107.017319 
L 114.450769 111.862815 
L 114.587318 107.577392 
L 114.66133 113.307339 
L 114.725948 110.768412 
L 114.793894 110.135632 
L 114.9384 102.669719 
L 115.093613 107.076901 
L 115.193912 105.05541 
L 115.29634 111.843593 
L 115.362146 111.669161 
L 115.432539 112.929357 
L 115.586312 120.507475 
L 115.657322 121.623478 
L 115.726175 121.442244 
L 115.862053 118.347085 
L 115.999452 113.270456 
L 116.074337 112.655844 
L 116.153809 110.663725 
L 116.22793 113.069 
L 116.398567 108.09298 
L 116.707798 119.809883 
L 116.947134 112.999081 
L 117.009204 113.444815 
L 117.067912 116.710898 
L 117.273438 115.782493 
L 117.307908 116.479134 
L 117.396596 115.24253 
L 117.427713 110.414117 
L 117.498311 110.867818 
L 117.652619 115.644629 
L 117.728101 115.189268 
L 117.927272 111.631706 
L 118.082651 119.158937 
L 118.18416 121.068295 
L 118.495168 110.163736 
L 118.632827 111.752303 
L 118.719719 103.161887 
L 118.839523 102.867925 
L 118.97654 110.247663 
L 119.046839 111.524049 
L 119.199794 122.287033 
L 119.337061 119.702359 
L 119.408203 122.69707 
L 119.523352 118.679863 
L 119.565079 120.094474 
L 119.630671 119.440297 
L 119.69841 116.427629 
L 119.767432 117.679713 
L 119.93884 111.749572 
L 120.007488 117.051826 
L 120.111438 112.03359 
L 120.163042 114.978957 
L 120.214303 124.539219 
L 120.266481 119.188787 
L 120.334345 117.516554 
L 120.403605 121.931135 
L 120.490652 117.707752 
L 120.626447 125.034918 
L 120.712942 118.861947 
L 120.85007 128.662028 
L 120.867141 126.569596 
L 120.976274 118.403442 
L 121.073589 121.615571 
L 121.262865 112.946481 
L 121.365011 113.777332 
L 121.399309 119.215476 
L 121.537426 108.280968 
L 121.690912 111.547515 
L 121.776977 108.222195 
L 121.845711 108.338869 
L 122.05375 117.487957 
L 122.122254 116.977129 
L 122.2603 121.129182 
L 122.330563 121.412571 
L 122.431781 121.079794 
L 122.465744 125.004223 
L 122.998904 110.659954 
L 123.03509 114.146079 
L 123.118854 112.806236 
L 123.187779 106.39847 
L 123.256266 110.602616 
L 123.395261 111.516376 
L 123.460174 108.854148 
L 123.47337 108.958599 
L 123.628778 114.822362 
L 123.771096 105.439034 
L 123.891106 113.317555 
L 123.993215 110.946544 
L 124.045051 111.198475 
L 124.234244 116.309071 
L 124.337475 113.275463 
L 124.398947 117.055988 
L 124.475081 116.785693 
L 124.54465 113.199187 
L 124.789454 120.441601 
L 124.822566 117.959546 
L 124.888949 117.747326 
L 124.957251 118.948724 
L 125.043365 115.222958 
L 125.205273 121.068867 
L 125.408338 119.923233 
L 125.47924 116.253279 
L 125.560361 119.373145 
L 125.663786 118.585283 
L 125.717177 112.642409 
L 125.832003 113.664321 
L 125.888057 113.104663 
L 126.066325 109.390001 
L 126.095325 108.628384 
L 126.165842 115.916362 
L 126.231978 112.818677 
L 126.425476 115.477864 
L 126.457753 114.678118 
L 126.526404 114.910819 
L 126.594386 117.274804 
L 126.749616 114.500521 
L 126.817887 115.28151 
L 126.869316 112.559475 
L 127.043619 114.374471 
L 127.111387 114.129022 
L 127.180526 114.069306 
L 127.260393 114.334407 
L 127.303995 110.050324 
L 127.368814 112.958999 
L 127.439695 114.329061 
L 127.525235 113.790749 
L 127.748907 105.322067 
L 128.01274 116.828305 
L 128.025727 112.595933 
L 128.093477 118.119112 
L 128.147489 117.39446 
L 128.301848 122.856361 
L 128.374803 126.038067 
L 128.43821 125.626472 
L 128.506839 124.445822 
L 128.575148 118.669389 
L 128.647819 120.292231 
L 128.731265 123.323203 
L 129.142774 114.035811 
L 129.176837 118.696459 
L 129.22844 113.057152 
L 129.368728 114.076292 
L 129.506508 105.438456 
L 129.643769 111.889908 
L 129.867133 102.662561 
L 129.986986 105.082411 
L 130.090765 102.375893 
L 130.210069 113.008988 
L 130.347702 106.699232 
L 130.518994 115.135484 
L 130.609 115.432315 
L 130.728568 127.48513 
L 130.775933 123.722104 
L 130.916761 114.074118 
L 131.000014 119.184397 
L 131.081659 117.720504 
L 131.137297 118.267022 
L 131.205266 117.797587 
L 131.53208 110.989537 
L 131.669587 121.037284 
L 131.85866 114.57761 
L 131.948563 115.579341 
L 131.995864 114.502631 
L 132.093999 114.990851 
L 132.186567 111.099943 
L 132.202493 114.204254 
L 132.322748 112.872847 
L 132.357618 106.727853 
L 132.42637 108.352366 
L 132.512382 110.745748 
L 132.649167 108.552638 
L 132.841778 115.688052 
L 132.924643 116.544157 
L 133.046597 115.442078 
L 133.132049 119.047301 
L 133.147515 113.729747 
L 133.218261 114.81233 
L 133.406459 123.134375 
L 133.475128 124.405786 
L 133.560937 120.990872 
L 133.632084 123.631279 
L 133.698227 121.810226 
L 133.850125 129.364209 
L 133.918271 126.339945 
L 134.124412 117.312931 
L 134.19425 119.761638 
L 134.279116 119.703072 
L 134.470409 112.879087 
L 134.587062 112.679887 
L 134.638836 112.673695 
L 134.707264 114.119862 
L 134.933122 103.101797 
L 134.98347 102.385224 
L 135.172911 109.800243 
L 135.263704 105.988055 
L 135.648894 118.374959 
L 135.765123 115.51172 
L 135.778168 113.800829 
L 135.847917 117.964496 
L 135.965254 121.923523 
L 136.034827 121.463588 
L 136.498238 113.995199 
L 136.743118 99.235349 
L 136.930627 100.361784 
L 136.96374 99.27465 
L 137.031784 104.291663 
L 137.101353 102.008386 
L 137.186702 98.509042 
L 137.255731 103.280742 
L 137.341595 99.834449 
L 137.480762 106.588771 
L 137.531294 106.576532 
L 137.617111 104.395284 
L 137.671442 106.759847 
L 137.759601 98.46422 
L 137.771387 98.488889 
L 138.030264 106.34899 
L 138.09934 109.975507 
L 138.168009 109.36829 
L 138.288183 108.038088 
L 138.392889 104.74323 
L 138.479511 106.218582 
L 138.565148 103.826019 
L 138.609871 105.255251 
L 138.667375 110.108956 
L 138.838606 102.214696 
L 138.890984 103.048817 
L 138.959321 101.633597 
L 139.098073 109.937384 
L 139.165118 109.575674 
L 139.233762 109.979462 
L 139.302189 113.501407 
L 139.38813 111.984596 
L 139.476267 112.035337 
L 139.525477 116.580457 
L 139.5949 115.04445 
L 139.664367 114.303913 
L 139.73375 114.577816 
L 139.800858 110.492137 
L 139.872309 111.643847 
L 139.939811 113.178474 
L 140.024122 109.251128 
L 140.163176 117.368087 
L 140.230062 112.848139 
L 140.385067 112.505984 
L 140.448945 117.534707 
L 140.61342 118.196295 
L 140.820692 110.803315 
L 140.866608 106.994066 
L 140.938546 108.330167 
L 141.022605 111.505218 
L 141.085639 110.334195 
L 141.148589 110.209961 
L 141.227586 110.894304 
L 141.296487 109.743847 
L 141.413674 111.289044 
L 141.510688 114.268232 
L 141.603019 115.470872 
L 141.723662 109.933397 
L 142.074967 117.08439 
L 142.224907 111.951362 
L 142.317691 113.149263 
L 142.387183 115.63403 
L 142.421013 113.321784 
L 142.508844 113.110307 
L 142.592329 115.793589 
L 142.662013 114.82023 
L 142.747026 113.234398 
L 142.798027 113.600778 
L 142.920206 113.833035 
L 143.022367 107.40794 
L 143.074506 109.910999 
L 143.0911 112.769599 
L 143.144936 112.352185 
L 143.504692 96.094946 
L 143.56075 95.061664 
L 143.64354 98.347963 
L 143.712029 106.86326 
L 143.832344 107.152326 
L 143.954184 103.648262 
L 144.211071 112.667129 
L 144.279294 113.728698 
L 144.348221 116.785591 
L 144.555173 107.632292 
L 144.82031 112.538044 
L 145.070377 95.977552 
L 145.140475 99.123099 
L 145.296909 102.352163 
L 145.402599 103.641155 
L 145.621659 113.800568 
L 145.723319 119.012879 
L 145.794844 117.038275 
L 145.844359 117.027157 
L 145.931264 117.819108 
L 145.988735 121.700208 
L 146.050391 117.879153 
L 146.119393 117.923503 
L 146.355607 129.700197 
L 146.428794 128.636404 
L 146.480375 129.57585 
L 146.618681 123.22795 
L 146.806271 126.672441 
L 146.978732 117.556177 
L 147.217729 110.996876 
L 147.254278 118.145953 
L 147.354918 117.579495 
L 147.408508 113.26144 
L 147.477921 115.785255 
L 147.546095 114.469913 
L 147.647735 109.689223 
L 147.684543 110.373575 
L 147.779488 113.926983 
L 147.831318 112.505589 
L 147.918097 112.280424 
L 147.987853 106.017664 
L 148.175825 113.340762 
L 148.208989 112.843337 
L 148.465574 106.841888 
L 148.536078 107.348575 
L 148.68899 113.839115 
L 148.878909 109.835162 
L 149.033698 116.607484 
L 149.119625 115.706342 
L 149.187978 115.738039 
L 149.284206 118.11857 
L 149.395102 111.493812 
L 149.467222 113.546296 
L 149.842643 100.611856 
L 149.892599 102.295972 
L 150.09994 106.137011 
L 150.235797 113.270194 
L 150.407959 114.411819 
L 150.562111 118.056104 
L 150.648394 116.175801 
L 150.684283 117.82096 
L 150.752481 117.489648 
L 150.841984 118.7267 
L 150.874751 120.935724 
L 150.958126 114.581966 
L 151.095512 122.115624 
L 151.181863 117.4621 
L 151.303418 124.16364 
L 151.524773 112.693962 
L 151.595265 113.727608 
L 151.663658 116.433681 
L 151.804689 111.841628 
L 151.885784 114.715806 
L 152.077727 107.437867 
L 152.125244 106.970293 
L 152.451038 118.701826 
L 152.520444 117.786989 
L 152.588496 116.630853 
L 152.660926 121.37743 
L 152.673908 120.573251 
L 152.742856 116.866155 
L 152.812242 117.566221 
L 152.880344 115.636419 
L 153.035701 118.717895 
L 153.138952 117.896269 
L 153.172683 112.547086 
L 153.224636 116.780142 
L 153.342828 118.543804 
L 153.378876 116.951285 
L 153.516166 120.390295 
L 153.570405 117.17049 
L 153.619433 120.77265 
L 154.073167 106.087391 
L 154.190806 105.326132 
L 154.226748 109.240908 
L 154.31271 108.397897 
L 154.50161 115.768114 
L 154.570014 113.959842 
L 154.913857 124.422404 
L 154.933357 123.043528 
L 155.085182 118.88761 
L 155.15403 120.408476 
L 155.224824 118.541627 
L 155.294146 120.544896 
L 155.778011 108.163505 
L 155.930848 109.466046 
L 156.103516 106.251595 
L 156.13685 106.612108 
L 156.240127 106.842446 
L 156.345081 107.607874 
L 156.498845 103.870249 
L 156.56784 104.505476 
L 156.704756 100.562941 
L 156.773017 100.973936 
L 156.913875 96.05334 
L 157.065819 100.095693 
L 157.203668 107.880235 
L 157.410068 104.182042 
L 157.564073 106.692987 
L 157.632317 105.957797 
L 157.701716 108.395975 
L 157.771075 107.735571 
L 157.839938 107.793936 
L 158.339901 119.458398 
L 158.554999 115.131181 
L 158.628307 115.188074 
L 158.770543 112.899893 
L 158.909975 108.651134 
L 158.981263 110.946169 
L 159.406615 102.34483 
L 159.472179 103.614647 
L 159.615575 101.997473 
L 159.681435 103.770109 
L 159.752728 103.513761 
L 159.85067 102.649624 
L 159.974 110.9263 
L 160.056854 110.111132 
L 160.126506 109.976534 
L 160.229312 111.471812 
L 160.265449 111.270827 
L 160.391599 107.211513 
L 160.461946 107.349587 
L 160.55938 111.223695 
L 160.679651 106.906759 
L 160.91056 103.195761 
L 161.110101 113.023494 
L 161.334043 116.974986 
L 161.471248 116.557311 
L 161.609267 120.218466 
L 161.969476 108.324686 
L 162.141128 112.407844 
L 162.313338 109.336962 
L 162.519933 116.657469 
L 162.829855 106.275529 
L 163.034382 114.793154 
L 163.175577 119.915059 
L 163.247566 116.729952 
L 163.394687 121.540291 
L 163.463734 126.908413 
L 163.583633 127.335428 
L 163.738883 121.628364 
L 163.947682 120.360554 
L 164.031132 124.623892 
L 164.236326 119.883632 
L 164.379864 123.531886 
L 164.443299 123.000884 
L 164.560001 123.741898 
L 164.683371 121.806355 
L 164.810718 120.125068 
L 164.889849 114.723995 
L 164.958165 114.449257 
L 165.044227 114.774743 
L 165.147557 113.777548 
L 165.164972 114.232237 
L 165.371167 107.582945 
L 165.45768 108.886283 
L 165.514653 107.807545 
L 165.737137 117.109579 
L 165.823455 112.435668 
L 165.910242 114.161755 
L 165.96054 112.927405 
L 166.223803 123.958106 
L 166.309235 122.398326 
L 166.395542 122.603842 
L 166.465306 119.5919 
L 166.515259 123.143136 
L 166.585429 119.865713 
L 166.674482 125.11617 
L 166.721725 123.776107 
L 166.809007 126.362828 
L 167.064741 116.50323 
L 167.117181 116.358424 
L 167.219933 112.043668 
L 167.288554 112.722465 
L 167.581361 102.7699 
L 167.65009 103.342457 
L 167.867196 108.84356 
L 167.940766 109.205764 
L 168.073911 112.872755 
L 168.228354 118.672607 
L 168.348459 121.667986 
L 168.487112 114.725764 
L 168.67488 120.349235 
L 168.795241 117.639153 
L 169.03492 108.662433 
L 169.277741 113.566053 
L 169.36228 111.760558 
L 169.431152 115.396525 
L 169.499363 113.999928 
L 169.567791 113.842881 
L 169.636794 112.293493 
L 169.70811 117.646499 
L 169.809308 117.296927 
L 170.135823 101.705935 
L 170.356882 107.086839 
L 170.466283 103.567316 
L 170.549344 104.270885 
L 170.685031 110.496848 
L 170.735607 110.218444 
L 170.859312 124.299301 
L 170.909793 120.757853 
L 171.046411 118.129565 
L 171.132064 122.818603 
L 171.545526 110.714588 
L 171.684684 112.516744 
L 171.699791 110.768193 
L 171.959417 106.947922 
L 172.029883 107.463639 
L 172.128795 115.096206 
L 172.2006 117.438579 
L 172.405171 112.837703 
L 172.527004 111.309896 
L 172.559022 112.856101 
L 172.610889 111.361883 
L 172.902896 100.246778 
L 173.184266 112.237919 
L 173.263239 109.453515 
L 173.332611 110.669756 
L 173.469936 114.754169 
L 173.538562 112.235567 
L 173.627436 114.605547 
L 173.83175 106.655596 
L 173.901612 106.284934 
L 173.969447 108.210751 
L 174.175424 105.140866 
L 174.211181 101.488035 
L 174.366161 105.467481 
L 174.39964 107.159216 
L 174.467614 105.48912 
L 174.890478 112.810765 
L 174.941228 117.725913 
L 174.965957 115.072694 
L 175.042566 116.210957 
L 175.156077 114.749061 
L 175.24169 117.131036 
L 175.311393 116.671804 
L 175.551602 113.383853 
L 175.605107 110.020301 
L 175.689417 110.76459 
L 175.75798 107.721774 
L 175.810904 108.074484 
L 175.981434 101.592749 
L 176.033705 97.318399 
L 176.101453 98.601329 
L 176.170565 99.243632 
L 176.377707 105.826276 
L 176.491042 105.474918 
L 176.559114 105.312429 
L 176.740943 111.796522 
L 176.994182 113.879694 
L 177.028592 112.812022 
L 177.664834 129.637816 
L 177.750738 129.090603 
L 178.247986 115.808962 
L 178.50961 106.751185 
L 178.577247 110.781379 
L 178.677369 108.875741 
L 178.748378 110.636434 
L 178.818138 106.705142 
L 178.867574 108.767915 
L 179.018586 109.103285 
L 179.024349 108.671212 
L 179.229614 116.450468 
L 179.322459 112.565172 
L 179.387088 113.012614 
L 179.470168 114.333834 
L 179.729764 128.899552 
L 179.798681 127.130886 
L 180.07423 118.374126 
L 180.158968 117.551626 
L 180.296474 111.454412 
L 180.433659 106.256246 
L 180.674664 115.604872 
L 180.725512 113.756451 
L 180.897636 117.925192 
L 180.950743 116.862607 
L 181.125744 119.7751 
L 181.155224 121.633228 
L 181.224188 120.403748 
L 181.309581 119.643365 
L 181.430626 122.041461 
L 181.49912 120.900199 
L 181.568412 121.284319 
L 181.636424 120.47 
L 181.70519 123.747747 
L 181.928203 117.639411 
L 182.068276 113.180928 
L 182.082585 119.93363 
L 182.185953 116.368763 
L 182.357792 119.846635 
L 182.431607 117.249131 
L 182.495925 117.914839 
L 182.634452 112.855971 
L 182.790952 115.505176 
L 183.063066 103.867087 
L 183.130387 104.224359 
L 183.415983 111.772786 
L 183.554244 111.091027 
L 183.634733 114.746184 
L 183.706594 115.750636 
L 183.844206 121.894193 
L 183.956792 118.323762 
L 183.998599 120.619426 
L 184.463881 106.637271 
L 184.482604 107.980907 
L 184.689989 101.751021 
L 184.75701 102.235696 
L 185.108987 96.639906 
L 185.132123 98.853288 
L 185.204626 96.866871 
L 185.437116 107.461285 
L 185.47616 105.566116 
L 185.62413 102.355122 
L 185.692303 108.259813 
L 185.760953 105.32347 
L 185.833939 105.196942 
L 185.915828 106.479837 
L 185.970263 100.233622 
L 186.052896 101.27841 
L 186.122389 98.471105 
L 186.690098 123.278683 
L 186.757366 122.966714 
L 186.825823 122.202914 
L 187.032705 115.396256 
L 187.392322 106.183178 
L 187.465847 106.994041 
L 187.606969 111.32595 
L 187.827362 105.942521 
L 187.893953 107.923589 
L 188.031377 102.793098 
L 188.17054 104.413743 
L 188.239189 99.030764 
L 188.323609 100.375931 
L 188.392351 101.745602 
L 188.461925 101.629315 
L 188.530809 100.263429 
L 188.599375 100.275012 
L 188.74121 110.657068 
L 188.813097 110.2399 
L 188.89054 108.883233 
L 189.251478 122.808485 
L 189.389621 115.722405 
L 189.481745 116.22109 
L 189.526193 116.126616 
L 189.595167 118.181357 
L 189.663884 117.777481 
L 189.736482 117.557819 
L 189.872867 114.911931 
L 189.95765 113.833988 
L 190.093504 116.451313 
L 190.453841 104.735753 
L 190.509726 105.065057 
L 190.67834 100.254998 
L 190.72962 102.082413 
L 190.866149 94.048222 
L 191.012885 101.764601 
L 191.089119 99.030429 
L 191.169453 99.495984 
L 191.232213 100.09331 
L 191.312375 104.115911 
L 191.398486 101.168973 
L 191.593311 108.483691 
L 191.725831 105.895826 
L 192.192369 113.628769 
L 192.293702 110.491905 
L 192.568626 106.101567 
L 192.658449 112.180069 
L 192.793588 107.836652 
L 192.949908 112.00788 
L 193.004481 111.625031 
L 193.162665 110.561467 
L 193.222332 111.223267 
L 193.390902 110.068543 
L 193.442537 112.517562 
L 193.634118 103.710557 
L 193.719768 109.543267 
L 193.786245 108.083412 
L 193.855013 108.717489 
L 193.923775 108.683277 
L 194.011577 107.117573 
L 194.130501 101.305649 
L 194.23329 102.420243 
L 194.284256 102.125888 
L 194.405118 102.131571 
L 194.474863 98.494305 
L 194.577428 105.204872 
L 194.731243 108.549369 
L 194.792349 118.301953 
L 194.869186 116.459072 
L 194.991047 120.678806 
L 195.075167 125.764202 
L 195.360472 121.288698 
L 195.54064 120.162926 
L 195.580421 120.949275 
L 195.833466 107.311569 
L 195.867671 112.926324 
L 195.936905 111.002308 
L 196.006366 111.723424 
L 196.202245 105.892279 
L 196.337901 108.646443 
L 196.414856 108.458965 
L 196.490419 115.338961 
L 196.56262 114.909182 
L 196.629737 115.963429 
L 196.697065 114.514255 
L 196.765881 116.155108 
L 196.868349 112.614662 
L 196.971325 118.722678 
L 197.04044 116.3737 
L 197.092422 118.30572 
L 197.126006 115.363607 
L 197.24806 115.452064 
L 197.350071 109.525548 
L 197.486683 111.091815 
L 197.555488 111.729838 
L 197.693329 107.731767 
L 197.762713 108.953528 
L 197.899902 109.12013 
L 197.950824 108.458048 
L 198.009751 109.036995 
L 198.054512 113.370379 
L 198.303946 109.284116 
L 198.332856 111.253989 
L 198.41917 111.092834 
L 198.521462 111.486566 
L 198.607853 112.982586 
L 198.694395 113.651999 
L 198.779562 108.575509 
L 198.832931 114.87226 
L 198.900163 114.429871 
L 199.262296 109.094867 
L 199.330686 110.674791 
L 199.417179 108.878234 
L 199.485764 114.613227 
L 199.604879 102.904985 
L 199.708606 99.645605 
L 199.762063 101.936465 
L 199.843387 101.288094 
L 199.897638 102.716155 
L 200.034704 94.687566 
L 200.10365 101.113962 
L 200.172334 97.322056 
L 200.395828 107.410044 
L 200.485068 105.565794 
L 200.536885 105.941646 
L 200.679709 104.76276 
L 200.824657 108.531193 
L 200.96301 103.07965 
L 201.151875 96.257015 
L 201.32395 107.810452 
L 201.410606 107.780754 
L 201.461091 110.770844 
L 201.684624 105.376062 
L 201.738814 108.050699 
L 202.012882 101.611757 
L 202.080656 101.191371 
L 202.321462 105.281805 
L 202.408459 107.724024 
L 202.664059 102.055913 
L 202.733612 102.692267 
L 202.818984 102.634838 
L 202.906401 103.231611 
L 202.956181 100.808268 
L 203.024368 102.182512 
L 203.23185 109.434981 
L 203.282844 107.843079 
L 203.368082 104.613604 
L 203.423139 106.696593 
L 203.506272 107.088966 
L 203.593882 102.086825 
L 203.66229 106.180548 
L 203.72918 106.025757 
L 203.900971 101.586438 
L 204.17615 112.460762 
L 204.350008 116.636399 
L 204.381232 114.84812 
L 204.449806 115.084866 
L 204.53574 116.966438 
L 204.590799 121.920737 
L 204.718551 122.154127 
L 204.898439 109.757602 
L 204.9511 111.365579 
L 205.019859 108.30468 
L 205.088487 111.09067 
L 205.294639 99.757439 
L 205.365672 100.145278 
L 205.501777 105.524314 
L 205.576819 103.265235 
L 205.674072 102.400755 
L 206.00084 111.497488 
L 206.070222 106.957431 
L 206.29211 115.398211 
L 206.361117 114.45506 
L 206.429515 117.726544 
L 206.641363 108.928565 
L 206.722932 109.154085 
L 206.814222 110.642978 
L 206.875162 109.247215 
L 206.927002 114.912426 
L 207.065078 114.640097 
L 207.081146 117.633695 
L 207.15031 112.157593 
L 207.23653 114.400866 
L 207.340096 113.189033 
L 207.424671 116.112291 
L 207.531344 115.907559 
L 207.945388 104.144312 
L 208.205475 111.306574 
L 208.217824 108.800713 
L 208.286041 108.988217 
L 208.423677 111.151897 
L 208.732489 123.221384 
L 208.803182 118.859165 
L 208.85769 121.55361 
L 208.975316 124.130935 
L 209.043835 121.915877 
L 209.060814 122.254357 
L 209.128739 122.796987 
L 209.335229 110.451554 
L 209.420407 111.871152 
L 209.489903 115.254542 
L 209.560165 113.842206 
L 209.627405 113.678862 
L 209.784669 116.046742 
L 209.832363 111.088443 
L 210.073602 119.045658 
L 210.269433 109.08929 
L 210.488091 103.248576 
L 210.623143 112.090704 
L 210.725988 109.149622 
L 210.787456 109.221829 
L 210.915306 118.747943 
L 210.984248 118.203366 
L 211.190993 122.706996 
L 211.326898 113.71899 
L 211.481431 117.147813 
L 211.61937 112.057544 
L 211.68834 113.186082 
L 211.756442 112.225994 
L 211.98116 112.890074 
L 212.014451 114.909221 
L 212.050394 114.442376 
L 212.118066 110.268413 
L 212.204777 111.377672 
L 212.427427 106.571198 
L 212.479328 108.489563 
L 212.614971 102.580916 
L 212.874529 107.425215 
L 212.907304 104.639783 
L 213.113794 114.404172 
L 213.182569 111.817672 
L 213.268653 116.632967 
L 213.397047 112.729041 
L 213.456665 113.628167 
L 213.602175 112.397929 
L 213.748686 108.535537 
L 213.8688 107.770635 
L 214.0248 112.860127 
L 214.095661 113.188691 
L 214.397012 123.746297 
L 214.48867 122.435648 
L 214.67716 114.783403 
L 214.814864 121.161268 
L 215.037996 111.446529 
L 215.158159 111.071906 
L 215.214891 111.893722 
L 215.382392 117.025495 
L 215.730497 110.114184 
L 215.811828 110.446547 
L 215.880291 111.724309 
L 215.949886 107.529004 
L 216.05854 108.744608 
L 216.103604 108.22393 
L 216.174434 107.568381 
L 216.310419 109.691504 
L 216.429558 107.209559 
L 216.5336 113.553695 
L 216.723128 111.096544 
L 216.808191 110.946983 
L 216.877322 108.079883 
L 216.963128 109.216753 
L 217.016961 108.707781 
L 217.220707 106.839175 
L 217.255148 103.115987 
L 217.32545 105.534359 
L 217.362807 104.565488 
L 217.444831 104.62606 
L 217.514504 103.968413 
L 217.947779 122.729948 
L 218.032537 121.229758 
L 218.083716 123.769619 
L 218.219549 124.29355 
L 218.376053 114.314843 
L 218.582563 103.215117 
L 218.660665 104.144171 
L 218.724839 106.498995 
L 218.949442 100.786991 
L 219.001305 103.382165 
L 219.093895 99.683784 
L 219.155606 100.729748 
L 219.480821 93.309029 
L 219.65266 105.883895 
L 219.705673 103.977416 
L 219.860073 109.690496 
L 219.933755 111.609618 
L 220.002997 108.11037 
L 220.065647 109.537647 
L 220.21183 112.94866 
L 220.385468 109.0552 
L 220.480557 111.548807 
L 220.514266 115.360183 
L 220.652739 112.241282 
L 220.876315 115.688453 
L 220.928866 112.455153 
L 220.997563 117.112366 
L 221.068326 115.615611 
L 221.13397 114.86465 
L 221.495563 102.253649 
L 221.566872 103.177802 
L 221.634982 105.679372 
L 221.709171 100.596756 
L 221.772108 103.364423 
L 221.910009 100.773167 
L 221.986827 97.409287 
L 222.06411 105.592888 
L 222.203116 114.18074 
L 222.271654 115.570551 
L 222.339774 108.105044 
L 222.448114 110.600316 
L 222.495371 105.843832 
L 222.580906 107.196441 
L 222.786992 120.233691 
L 222.880999 119.791255 
L 222.979252 114.912797 
L 223.188912 123.6816 
L 223.342142 123.259301 
L 223.548947 114.914132 
L 223.771645 120.835561 
L 223.912518 118.709032 
L 224.046388 111.356279 
L 224.133614 113.370389 
L 224.184118 111.449038 
L 224.27171 112.691816 
L 224.339366 111.9373 
L 224.54943 117.097409 
L 224.614304 115.013172 
L 224.682379 120.007769 
L 224.993079 111.463669 
L 225.103878 110.399745 
L 225.392188 100.474065 
L 225.491646 100.527748 
L 225.903899 112.442967 
L 225.956289 111.624543 
L 226.122273 115.183512 
L 226.281983 120.397765 
L 226.318454 119.899417 
L 226.461584 114.916966 
L 226.682079 118.857333 
L 226.884778 111.257799 
L 227.113382 117.851753 
L 227.279718 114.150631 
L 227.314062 109.985368 
L 227.384685 110.00418 
L 227.467478 111.957523 
L 227.519458 110.972727 
L 227.603636 111.099483 
L 227.827856 100.368468 
L 228.015527 98.86376 
L 228.034771 104.207059 
L 228.103212 103.352767 
L 228.239241 108.89136 
L 228.324739 108.802126 
L 228.462903 111.665522 
L 228.703497 118.179255 
L 228.737768 118.332674 
L 228.806442 117.792965 
L 228.892169 112.598822 
L 228.945056 112.75901 
L 229.150203 114.612246 
L 229.305084 117.048522 
L 229.44474 115.022911 
L 229.614835 116.589062 
L 229.703063 113.785523 
L 229.73485 114.098575 
L 229.838209 113.349891 
L 229.94462 110.621294 
L 230.014366 111.372593 
L 230.13403 115.538952 
L 230.151303 111.020962 
L 230.239381 113.895437 
L 230.374066 116.428891 
L 230.512187 113.294503 
L 230.683671 119.041666 
L 230.872346 113.655912 
L 231.016336 115.567959 
L 231.079536 115.364397 
L 231.232956 118.489483 
L 231.287411 118.193175 
L 231.372507 111.324541 
L 231.438881 113.173176 
L 231.6474 108.194777 
L 231.749572 99.39981 
L 231.852549 102.639176 
L 231.962571 100.233685 
L 232.220865 114.950703 
L 232.444145 120.652004 
L 232.566775 111.538089 
L 232.639858 110.699354 
L 232.855947 101.631383 
L 232.949878 98.274018 
L 232.993774 99.243937 
L 233.085738 100.719082 
L 233.3565 110.251718 
L 233.631228 101.738463 
L 233.785781 103.249851 
L 233.854855 102.972321 
L 233.923504 107.068891 
L 233.99267 106.864135 
L 234.060934 102.126079 
L 234.33791 119.981758 
L 234.352857 122.638684 
L 234.466473 121.843753 
L 234.491991 123.681181 
L 234.754291 112.836995 
L 234.766279 115.000075 
L 234.785671 118.657962 
L 234.922709 118.798975 
L 234.990801 117.906025 
L 235.233296 107.068282 
L 235.282862 107.875294 
L 235.522522 119.907347 
L 235.77997 111.520237 
L 235.833554 110.504029 
L 235.986546 113.582812 
L 236.072463 112.8916 
L 236.193212 108.935558 
L 236.415749 116.8784 
L 236.679849 121.370418 
L 236.691158 121.326354 
L 236.760963 116.901335 
L 236.830404 119.866844 
L 236.845544 113.630462 
L 236.897566 118.097018 
L 237.052232 109.521706 
L 237.121414 109.621646 
L 237.20632 110.146884 
L 237.326515 118.474898 
L 237.413352 115.752992 
L 237.549483 116.822627 
L 237.59007 121.702503 
L 237.619161 117.23451 
L 237.704754 119.945971 
L 237.759048 126.011324 
L 237.979501 117.527325 
L 238.047564 114.537228 
L 238.116676 115.550017 
L 238.186242 120.25929 
L 238.271762 113.835349 
L 238.32441 114.419413 
L 238.391046 114.201453 
L 238.501483 111.233685 
L 238.629239 118.347891 
L 238.635615 114.429319 
L 238.686869 114.005279 
L 238.758371 114.40271 
L 238.824436 113.765544 
L 238.894761 108.687645 
L 238.963306 113.49741 
L 239.032737 112.305017 
L 239.143809 109.914341 
L 239.175343 113.821128 
L 239.241321 111.283539 
L 239.32481 111.962453 
L 239.481173 114.15513 
L 239.532358 114.230838 
L 239.601399 117.122373 
L 239.686745 115.883328 
L 239.875462 118.513377 
L 239.978617 111.742678 
L 240.052361 111.864186 
L 240.187343 107.268925 
L 240.237108 108.549995 
L 240.305559 108.11015 
L 240.528671 111.604105 
L 240.959229 126.768385 
L 241.353075 112.471352 
L 241.438782 112.195482 
L 241.545655 110.249438 
L 241.69955 104.180772 
L 242.014085 112.171206 
L 242.114156 112.547257 
L 242.197669 110.440304 
L 242.31795 116.582838 
L 242.369394 115.843367 
L 242.506954 123.127751 
L 242.803224 116.208437 
L 242.879198 117.255804 
L 242.938232 113.127328 
L 243.022288 113.523196 
L 243.228124 112.028357 
L 243.45141 118.736876 
L 243.590549 114.21108 
L 243.658568 119.059135 
L 243.726678 118.521022 
L 243.795705 121.679085 
L 244.161617 107.939001 
L 244.213976 108.209092 
L 244.364847 112.804335 
L 244.546174 109.895528 
L 244.717585 114.491796 
L 244.853696 112.410839 
L 244.941534 115.035796 
L 245.008481 112.074802 
L 245.153441 113.074907 
L 245.220622 109.289999 
L 245.338096 111.054948 
L 245.42064 103.832475 
L 245.731492 113.085265 
L 245.783545 107.829459 
L 245.922546 117.927228 
L 246.040457 111.177017 
L 246.177911 118.751652 
L 246.418692 108.350266 
L 246.490494 109.443396 
L 246.586226 102.014487 
L 246.627722 103.092284 
L 246.710969 106.225786 
L 246.781432 102.459952 
L 247.072551 113.051771 
L 247.226339 109.669929 
L 247.285411 113.490695 
L 247.346327 110.372172 
L 247.419978 107.95127 
L 247.5196 108.746219 
L 247.628397 100.487634 
L 247.730461 99.836387 
L 247.777159 97.086841 
L 247.845248 99.360141 
L 247.982776 98.359817 
L 248.275225 111.136491 
L 248.636301 116.948356 
L 248.652051 118.089198 
L 248.704595 115.371367 
L 248.841521 107.933509 
L 248.910088 108.180521 
L 248.996629 107.913603 
L 249.047953 108.556766 
L 249.271026 116.870225 
L 249.407681 113.918111 
L 249.545883 121.72605 
L 249.907486 110.87312 
L 250.067414 105.635829 
L 250.163141 106.357436 
L 250.251 99.538009 
L 250.403872 104.108465 
L 250.474287 103.308418 
L 250.541416 98.725863 
L 250.614718 102.019412 
L 250.697941 100.984176 
L 250.768822 102.016508 
L 250.907119 109.785577 
L 250.992246 107.975281 
L 251.164288 104.0814 
L 251.215449 104.51151 
L 251.353266 107.547215 
L 251.39006 103.475524 
L 251.474885 105.443115 
L 251.548589 105.100645 
L 251.680451 106.190519 
L 251.749129 110.557503 
L 251.887355 112.145322 
L 251.972805 116.403077 
L 252.093131 116.48731 
L 252.161482 121.746933 
L 252.19584 120.791109 
L 252.299377 121.632647 
L 252.318667 118.199346 
L 252.38546 119.854271 
L 252.45947 119.835878 
L 252.608388 116.488452 
L 252.677147 117.308276 
L 252.745809 117.185333 
L 252.815919 116.799625 
L 252.88488 119.565044 
L 252.970576 118.681659 
L 253.022008 119.499096 
L 253.191255 114.487069 
L 253.316462 120.039499 
L 253.761027 105.553192 
L 253.825939 107.25203 
L 253.878011 107.309163 
L 253.946265 106.100133 
L 254.035405 102.138054 
L 254.107681 102.643446 
L 254.169194 103.022641 
L 254.290302 102.611475 
L 254.307619 103.164808 
L 254.379987 100.644137 
L 254.73722 109.705778 
L 254.80584 106.839496 
L 255.252056 120.547893 
L 255.33925 115.868848 
L 255.372222 116.6791 
L 255.470997 116.861407 
L 255.584131 119.412682 
L 255.729379 116.615932 
L 255.744788 119.229479 
L 255.802962 117.576311 
L 255.870756 121.598105 
L 255.945457 120.028898 
L 256.0064 122.417216 
L 256.09285 118.72248 
L 256.14465 119.029903 
L 256.24701 116.89057 
L 256.315519 113.070942 
L 256.368663 116.661929 
L 256.727872 104.179608 
L 256.797506 105.157424 
L 256.864926 102.119365 
L 257.208924 115.511451 
L 257.296875 113.50882 
L 257.363794 113.456828 
L 257.500475 115.521411 
L 257.723612 112.59481 
L 257.793648 110.138624 
L 257.861715 111.259409 
L 257.998838 113.250864 
L 258.067272 112.702434 
L 258.142563 111.271654 
L 258.359247 115.475913 
L 258.566009 110.157271 
L 258.634262 109.197456 
L 258.708156 112.535444 
L 258.775289 111.755178 
L 258.841282 110.626726 
L 258.927668 112.272018 
L 258.995202 116.751974 
L 259.063292 113.644501 
L 259.132307 116.294997 
L 259.202581 116.055665 
L 259.280161 113.93876 
L 259.339361 114.49701 
L 259.424621 113.148361 
L 259.564088 117.465442 
L 259.699817 111.358533 
L 259.768508 113.922024 
L 259.839041 116.014546 
L 259.993894 112.984294 
L 260.35716 110.78601 
L 260.508321 103.880326 
L 260.544982 102.012661 
L 260.628627 102.930968 
L 260.715698 99.989734 
L 260.767598 100.403931 
L 260.946499 97.304346 
L 261.128153 102.410245 
L 261.197519 106.013103 
L 261.265225 103.243935 
L 261.333509 103.265174 
L 261.414317 103.349006 
L 261.420529 101.498579 
L 261.488299 113.975719 
L 261.664997 105.980717 
L 261.729967 103.833246 
L 261.76336 105.605465 
L 261.98579 108.643452 
L 262.038283 108.427318 
L 262.119341 108.954214 
L 262.192867 103.509192 
L 262.260832 108.594937 
L 262.34731 108.356465 
L 262.39884 109.269795 
L 262.468777 108.976651 
L 262.640073 106.917067 
L 263.03513 131.731991 
L 263.205577 133.283701 
L 263.882653 96.110346 
L 263.963175 98.541607 
L 264.117869 101.440448 
L 264.325168 106.969455 
L 264.417481 104.039778 
L 264.566645 109.517474 
L 264.599231 107.043692 
L 264.720438 108.791016 
L 264.73845 110.973388 
L 264.840767 110.681207 
L 264.89139 108.277337 
L 264.959788 108.619381 
L 265.183636 119.726507 
L 265.252497 117.765355 
L 265.390222 122.508581 
L 265.819391 97.884621 
L 265.940387 98.052569 
L 266.010134 102.613932 
L 266.112754 94.368497 
L 266.180522 96.758142 
L 266.609389 118.60374 
L 266.627559 117.695191 
L 266.713334 116.814725 
L 266.800413 125.331835 
L 266.884833 130.308722 
L 266.953486 127.817786 
L 267.142532 126.262092 
L 267.177296 128.606 
L 267.229118 125.707933 
L 267.297209 120.738575 
L 267.383058 121.380529 
L 267.658519 115.799272 
L 267.745426 119.456701 
L 267.801953 117.970293 
L 267.891902 118.903032 
L 267.973591 117.932615 
L 268.073323 121.538575 
L 268.091346 118.859831 
L 268.588802 106.462569 
L 268.677083 106.255809 
L 268.777341 106.406469 
L 268.933243 111.04754 
L 269.001214 111.395668 
L 269.087951 110.906175 
L 269.15596 109.654379 
L 269.224774 109.847998 
L 269.293912 110.28718 
L 269.568461 118.839014 
L 269.792583 121.928952 
L 269.930138 121.888252 
L 269.998206 121.126031 
L 270.06786 123.458075 
L 270.429528 116.144416 
L 270.494136 116.049741 
L 270.565568 114.176086 
L 270.647695 116.515345 
L 270.715928 115.5664 
L 270.784837 112.943486 
L 270.853023 115.339406 
L 270.922868 111.07726 
L 270.990193 115.918667 
L 271.059086 113.268071 
L 271.213243 107.592814 
L 271.281926 108.696083 
L 271.350722 109.510896 
L 271.42198 104.668387 
L 271.487745 106.063923 
L 271.62677 110.276056 
L 271.698063 108.023254 
L 271.781181 109.207821 
L 271.849432 112.651338 
L 271.91751 112.633705 
L 272.055131 109.94313 
L 272.126235 113.763485 
L 272.278689 107.699965 
L 272.485095 112.988703 
L 272.561409 112.927345 
L 272.624611 115.427745 
L 272.800192 113.703339 
L 272.845481 113.70601 
L 272.916769 113.431384 
L 273.120667 116.025317 
L 273.190637 115.379886 
L 273.206949 105.419531 
L 273.275641 111.816143 
L 273.361125 109.939128 
L 273.4131 111.969454 
L 273.481769 111.343051 
L 273.58626 113.051427 
L 273.619258 112.280497 
L 273.691129 112.550783 
L 273.963512 105.045142 
L 274.014388 106.27446 
L 274.065392 109.31542 
L 274.152289 108.627771 
L 274.202957 108.830521 
L 274.393225 101.280511 
L 274.482171 101.953482 
L 274.616045 105.09185 
L 274.712845 105.855903 
L 274.753194 104.848064 
L 275.191548 122.947349 
L 275.259728 121.736472 
L 275.466929 114.454223 
L 275.689989 110.560256 
L 275.895598 114.97593 
L 276.033176 130.551052 
L 276.187078 129.191545 
L 276.289921 128.218385 
L 276.479283 133.117461 
L 276.565522 134.186667 
L 276.755625 116.183604 
L 276.960639 122.009056 
L 277.063886 120.66055 
L 277.115185 123.04945 
L 277.271787 118.866349 
L 277.465389 125.805534 
L 277.535399 120.284575 
L 277.638982 122.010115 
L 277.745541 118.897604 
L 277.815645 106.858361 
L 277.895802 107.798235 
L 278.102521 112.3986 
L 278.207008 111.430933 
L 278.278095 116.748433 
L 278.326499 114.536136 
L 278.377794 113.739999 
L 278.669987 120.665168 
L 278.962661 106.21533 
L 279.032399 109.267583 
L 279.254493 103.034978 
L 279.324519 102.45816 
L 279.51399 106.82443 
L 279.634708 106.213255 
L 279.678352 103.778002 
L 279.791433 105.5783 
L 279.946042 111.330513 
L 280.019274 112.082009 
L 280.150308 107.939704 
L 280.167427 110.362993 
L 280.287476 107.484199 
L 280.331328 113.977779 
L 280.37362 113.38446 
L 280.598136 107.615094 
L 280.685688 111.192487 
L 280.736247 108.209324 
L 280.796017 112.407302 
L 280.876325 111.465676 
L 281.017071 115.72742 
L 281.044874 109.24262 
L 281.097085 110.469445 
L 281.186363 112.316962 
L 281.237141 111.584335 
L 281.303418 110.548074 
L 281.378809 105.767638 
L 281.441956 107.844348 
L 281.675059 101.144526 
L 281.806132 107.437599 
L 281.873982 102.204182 
L 282.182465 116.946085 
L 282.216238 115.240821 
L 282.389086 117.809681 
L 282.43962 112.987742 
L 282.526453 113.641767 
L 282.716504 116.228798 
L 282.837855 109.51022 
L 282.871175 110.680433 
L 283.026867 112.930401 
L 283.093864 111.785918 
L 283.217447 115.937365 
L 283.299353 118.662906 
L 283.508625 112.424122 
L 283.557791 116.795143 
L 283.591977 113.12533 
L 283.694754 115.71913 
L 283.780734 113.194434 
L 283.853109 112.738883 
L 283.919665 109.488693 
L 283.988038 109.878497 
L 284.004271 111.638242 
L 284.073322 110.70081 
L 284.297106 111.596213 
L 284.366279 108.503967 
L 284.417361 110.057221 
L 284.644058 117.162575 
L 284.727863 111.349565 
L 284.800663 111.576332 
L 284.884034 111.145515 
L 285.036967 111.986358 
L 285.155605 113.447747 
L 285.241816 117.107038 
L 285.310511 116.469572 
L 285.450154 114.292759 
L 285.466384 119.025643 
L 285.539131 117.16197 
L 285.608585 116.49357 
L 285.722757 109.757779 
L 285.773991 111.406329 
L 285.843684 110.652411 
L 285.936935 110.159369 
L 285.98634 113.481844 
L 286.054016 112.466471 
L 286.135944 110.367782 
L 286.342172 116.127123 
L 286.496449 123.414657 
L 286.628958 123.04375 
L 286.636508 128.548183 
L 286.702804 125.301963 
L 286.771209 123.839422 
L 286.880247 124.391516 
L 286.911198 120.494094 
L 286.977978 121.617898 
L 287.046214 122.91709 
L 287.271811 115.826992 
L 287.338157 115.728859 
L 287.40732 114.360126 
L 287.475821 115.728374 
L 287.547353 113.153788 
L 287.614594 117.25006 
L 287.682942 115.778304 
L 287.770847 116.456757 
L 287.905207 115.359129 
L 287.961346 118.864677 
L 287.974217 114.775772 
L 288.129171 101.419929 
L 288.266063 104.040602 
L 288.474782 108.472496 
L 288.609261 108.007718 
L 288.626895 105.570238 
L 288.695663 110.694815 
L 288.781302 111.92951 
L 288.975598 118.525708 
L 289.06491 116.11262 
L 289.389698 124.082482 
L 289.52575 124.92744 
L 289.750288 118.65302 
L 289.803473 117.951494 
L 289.853805 118.434487 
L 289.923865 118.376054 
L 290.082831 112.51022 
L 290.163029 112.405759 
L 290.180463 108.075851 
L 290.275751 109.858502 
L 290.404454 112.95843 
L 290.645458 100.813901 
L 290.735336 101.256577 
L 290.8072 101.172012 
L 290.824685 100.227535 
L 290.923928 102.757506 
L 290.975418 101.007611 
L 291.027194 101.59618 
L 291.173939 100.232498 
L 291.400005 108.37551 
L 291.529579 105.931706 
L 291.631333 105.269286 
L 291.767635 110.918413 
L 291.973698 105.575314 
L 292.042783 105.465586 
L 292.112872 101.334324 
L 292.249421 111.483953 
L 292.576273 116.391062 
L 292.730586 118.744468 
L 292.800093 119.52239 
L 292.836071 122.759767 
L 293.039573 114.049725 
L 293.127627 113.710463 
L 293.314786 109.514511 
L 293.452988 114.124486 
L 293.52105 113.535775 
L 293.589349 114.170129 
L 293.658407 117.128613 
L 293.728077 116.508869 
L 293.829499 112.254657 
L 293.880788 113.894939 
L 294.111068 107.625032 
L 294.191349 106.880477 
L 294.298952 111.075504 
L 294.488204 104.767491 
L 294.726508 115.215829 
L 294.792514 112.422409 
L 294.860605 107.219014 
L 294.981296 108.121808 
L 295.034874 107.339668 
L 295.103137 116.083425 
L 295.152636 115.707056 
L 295.341695 110.106464 
L 295.359198 114.725465 
L 295.430346 108.631335 
L 295.531006 110.116316 
L 295.659972 114.294051 
L 295.725748 114.208211 
L 295.801278 106.533065 
L 295.858283 111.003586 
L 296.030076 116.358016 
L 296.082778 115.699072 
L 296.218553 121.540285 
L 296.424738 118.347755 
L 296.493402 123.163862 
L 296.648423 117.963709 
L 296.709079 118.236609 
L 296.802324 117.991945 
L 296.956936 111.24837 
L 297.009025 111.036925 
L 297.180201 112.087496 
L 297.351762 101.883721 
L 297.507249 98.19489 
L 297.644653 102.138128 
L 297.713245 101.522085 
L 298.091282 113.547416 
L 298.143375 116.739343 
L 298.26552 116.810114 
L 298.40386 113.682658 
L 298.50367 110.106625 
L 298.61591 110.206557 
L 298.642731 111.316439 
L 298.693991 110.628426 
L 298.778873 110.191556 
L 298.864642 104.612235 
L 298.916155 106.137019 
L 299.260558 110.972929 
L 299.44965 112.552629 
L 299.51983 109.952021 
L 299.556186 112.685815 
L 299.672945 112.820655 
L 299.724293 111.395702 
L 299.776011 112.831807 
L 299.863781 114.11171 
L 300.050928 110.929178 
L 300.155341 111.500018 
L 300.189266 114.868435 
L 300.257625 113.535261 
L 300.360206 113.224864 
L 300.411474 115.341098 
L 300.499103 114.136519 
L 300.54878 115.011408 
L 300.635034 114.550569 
L 300.756514 108.365612 
L 300.77202 110.225579 
L 300.84543 109.505095 
L 300.945644 109.876139 
L 301.081282 115.045773 
L 301.270418 108.031751 
L 301.545304 120.748269 
L 301.671233 121.137723 
L 301.754133 120.101907 
L 301.827196 124.655031 
L 301.906279 123.176576 
L 301.975076 124.59109 
L 302.044813 119.875623 
L 302.121426 121.140833 
L 302.249651 122.665385 
L 302.335103 121.370624 
L 302.421973 117.916599 
L 302.473032 118.068414 
L 302.558513 116.970933 
L 302.631012 117.89759 
L 302.680192 116.971688 
L 302.747756 119.917916 
L 302.911509 111.48801 
L 303.040708 112.563028 
L 303.108749 115.31537 
L 303.195104 114.470793 
L 303.246272 114.663963 
L 303.331872 112.127586 
L 303.39679 113.51941 
L 303.465306 112.058201 
L 303.649335 115.777139 
L 303.691781 114.864318 
L 303.752678 115.313853 
L 303.960092 107.811796 
L 304.063336 110.76071 
L 304.116228 107.810541 
L 304.203477 110.730383 
L 304.243882 106.542719 
L 304.340148 107.694986 
L 304.391226 108.220218 
L 304.460211 105.491987 
L 304.736799 116.530796 
L 304.804666 114.603446 
L 304.889968 113.094803 
L 304.943538 115.234596 
L 305.099152 111.694128 
L 305.187437 111.16788 
L 305.302344 106.522054 
L 305.382271 108.4001 
L 305.440131 108.070222 
L 305.524763 109.021891 
L 305.595702 107.487822 
L 305.734133 109.281902 
L 305.803422 107.08273 
L 305.9564 109.937867 
L 306.092799 106.237715 
L 306.161327 106.25949 
L 306.231312 110.874846 
L 306.302106 107.844228 
L 306.36785 108.000265 
L 306.507227 110.752876 
L 306.664021 108.925767 
L 306.824336 111.040815 
L 306.832918 108.436389 
L 306.867595 109.383151 
L 306.961139 111.041468 
L 307.023435 115.562364 
L 307.085771 114.101903 
L 307.160537 111.196505 
L 307.232357 113.150344 
L 307.648124 100.070443 
L 307.711858 96.475007 
L 307.78517 97.244923 
L 308.364654 122.528408 
L 308.433319 124.187863 
L 308.519359 123.7067 
L 308.587244 123.564419 
L 308.86239 115.785286 
L 308.914861 116.698659 
L 309.000394 110.183182 
L 309.119977 109.781382 
L 309.178289 109.027035 
L 309.308354 98.953669 
L 309.566691 103.639722 
L 309.601023 99.511448 
L 309.652321 100.319673 
L 309.739065 105.246894 
L 309.844085 105.170622 
L 310.065774 110.36489 
L 310.234889 105.091501 
L 310.340805 111.056579 
L 310.407555 112.211099 
L 310.49407 116.653132 
L 310.563045 114.623048 
L 310.632459 114.69401 
L 310.750912 116.528416 
L 310.871047 109.196672 
L 310.975142 113.710141 
L 311.129491 112.152963 
L 311.222673 109.579589 
L 311.30238 111.866029 
L 311.508288 124.765651 
L 311.613727 126.659491 
L 311.850683 120.465579 
L 311.992456 118.710028 
L 312.05754 113.282776 
L 312.126148 113.732219 
L 312.232476 106.427169 
L 312.333542 114.006456 
L 312.404201 113.47395 
L 312.471044 114.389255 
L 312.696818 118.590968 
L 312.79707 119.190235 
L 312.950328 124.004068 
L 312.990105 121.032958 
L 313.062628 124.688887 
L 313.122767 121.830551 
L 313.225436 123.693146 
L 313.259505 120.166405 
L 313.329203 122.176777 
L 313.484389 122.182725 
L 313.553622 125.444534 
L 313.586475 123.810413 
L 313.76436 119.533668 
L 313.82789 120.894724 
L 314.685631 103.159265 
L 314.754678 106.406331 
L 314.842862 106.166155 
L 314.947398 103.3672 
L 315.064236 96.509911 
L 315.312878 109.224672 
L 315.481997 111.027014 
L 315.623258 110.948862 
L 315.710561 116.216551 
L 315.74745 114.039278 
L 315.873683 110.776182 
L 315.889991 116.335496 
L 315.976345 110.028464 
L 316.029831 109.876939 
L 316.215754 115.039952 
L 316.284586 114.651946 
L 316.52908 125.233292 
L 316.816866 117.350339 
L 317.162881 95.577406 
L 317.38449 100.016338 
L 317.539547 100.743387 
L 317.677169 98.543967 
L 317.837085 108.519818 
L 317.889109 112.080346 
L 318.021075 105.356481 
L 318.106395 106.044791 
L 318.159354 105.143175 
L 318.451465 112.848164 
L 318.55304 110.86881 
L 318.608984 111.61711 
L 318.793739 115.478239 
L 318.899501 117.543582 
L 318.95096 114.984751 
L 319.089697 121.032834 
L 319.160714 119.223285 
L 319.87073 100.589215 
L 320.364939 115.430626 
L 320.380517 113.074914 
L 320.530685 118.676644 
L 320.569559 117.519075 
L 320.723566 111.7663 
L 320.792253 105.979415 
L 320.867487 108.052006 
L 320.930167 108.056882 
L 321.04029 106.455022 
L 321.15316 100.58542 
L 321.372832 96.95385 
L 321.496939 101.420927 
L 321.647215 95.434628 
L 322.166336 111.034655 
L 322.212366 108.265192 
L 322.365442 119.284104 
L 322.451857 117.735656 
L 322.503071 119.659731 
L 322.571479 119.415538 
L 322.674599 119.813073 
L 322.932589 125.16037 
L 323.054218 121.850697 
L 323.316583 130.524193 
L 323.502676 122.071995 
L 323.637981 124.525526 
L 323.860034 119.973497 
L 324.00249 114.124396 
L 324.084494 113.7076 
L 324.138163 117.031511 
L 324.292335 112.129038 
L 324.411743 111.317919 
L 324.53225 114.909684 
L 324.565985 112.565846 
L 324.622264 113.690823 
L 324.844577 125.701017 
L 325.101018 130.304438 
L 325.192336 127.503532 
L 325.324556 129.072181 
L 325.359028 123.567806 
L 325.467424 123.830227 
L 325.531607 122.461927 
L 325.702273 100.222832 
L 325.773641 105.707019 
L 325.856859 106.068778 
L 325.943417 102.056297 
L 325.994782 109.054747 
L 326.079826 109.01947 
L 326.114599 103.616392 
L 326.495941 111.648774 
L 326.579305 110.093972 
L 326.664321 111.181718 
L 326.698775 107.53008 
L 326.759823 110.717428 
L 326.974028 119.293826 
L 327.043437 120.813165 
L 327.043437 120.813165 
" clip-path="url(#pf66c3da472)" style="fill: none; stroke: #ff0000; stroke-opacity: 0.5; stroke-width: 3; stroke-linecap: square"/>
   </g>
   <g id="patch_3">
    <path d="M 48.043438 139.32 
L 48.043438 0.72 
" style="fill: none; stroke: #000000; stroke-width: 0.8; stroke-linejoin: miter; stroke-linecap: square"/>
   </g>
   <g id="patch_4">
    <path d="M 327.043437 139.32 
L 327.043437 0.72 
" style="fill: none; stroke: #000000; stroke-width: 0.8; stroke-linejoin: miter; stroke-linecap: square"/>
   </g>
   <g id="patch_5">
    <path d="M 48.043438 139.32 
L 327.043437 139.32 
" style="fill: none; stroke: #000000; stroke-width: 0.8; stroke-linejoin: miter; stroke-linecap: square"/>
   </g>
   <g id="patch_6">
    <path d="M 48.043438 0.72 
L 327.043437 0.72 
" style="fill: none; stroke: #000000; stroke-width: 0.8; stroke-linejoin: miter; stroke-linecap: square"/>
   </g>
   <g id="legend_1">
    <g id="patch_7">
     <path d="M 246.274687 86.198125 
L 320.043437 86.198125 
Q 322.043437 86.198125 322.043437 84.198125 
L 322.043437 55.841875 
Q 322.043437 53.841875 320.043437 53.841875 
L 246.274687 53.841875 
Q 244.274687 53.841875 244.274687 55.841875 
L 244.274687 84.198125 
Q 244.274687 86.198125 246.274687 86.198125 
z
" style="fill: #ffffff; opacity: 0.8; stroke: #cccccc; stroke-linejoin: miter"/>
    </g>
    <g id="line2d_25">
     <path d="M 248.274687 61.940313 
L 258.274688 61.940313 
L 268.274688 61.940313 
" style="fill: none; stroke: #0000ff; stroke-opacity: 0.5; stroke-width: 3; stroke-linecap: square"/>
    </g>
    <g id="text_14">
     <!-- RNEA -->
     <g transform="translate(276.274688 65.440313) scale(0.1 -0.1)">
      <defs>
       <path id="DejaVuSans-52" d="M 2841 2188 
Q 3044 2119 3236 1894 
Q 3428 1669 3622 1275 
L 4263 0 
L 3584 0 
L 2988 1197 
Q 2756 1666 2539 1819 
Q 2322 1972 1947 1972 
L 1259 1972 
L 1259 0 
L 628 0 
L 628 4666 
L 2053 4666 
Q 2853 4666 3247 4331 
Q 3641 3997 3641 3322 
Q 3641 2881 3436 2590 
Q 3231 2300 2841 2188 
z
M 1259 4147 
L 1259 2491 
L 2053 2491 
Q 2509 2491 2742 2702 
Q 2975 2913 2975 3322 
Q 2975 3731 2742 3939 
Q 2509 4147 2053 4147 
L 1259 4147 
z
" transform="scale(0.015625)"/>
       <path id="DejaVuSans-45" d="M 628 4666 
L 3578 4666 
L 3578 4134 
L 1259 4134 
L 1259 2753 
L 3481 2753 
L 3481 2222 
L 1259 2222 
L 1259 531 
L 3634 531 
L 3634 0 
L 628 0 
L 628 4666 
z
" transform="scale(0.015625)"/>
       <path id="DejaVuSans-41" d="M 2188 4044 
L 1331 1722 
L 3047 1722 
L 2188 4044 
z
M 1831 4666 
L 2547 4666 
L 4325 0 
L 3669 0 
L 3244 1197 
L 1141 1197 
L 716 0 
L 50 0 
L 1831 4666 
z
" transform="scale(0.015625)"/>
      </defs>
      <use xlink:href="#DejaVuSans-52"/>
      <use xlink:href="#DejaVuSans-4e" x="69.482422"/>
      <use xlink:href="#DejaVuSans-45" x="144.287109"/>
      <use xlink:href="#DejaVuSans-41" x="207.470703"/>
     </g>
    </g>
    <g id="line2d_26">
     <path d="M 248.274687 76.618438 
L 258.274688 76.618438 
L 268.274688 76.618438 
" style="fill: none; stroke: #ff0000; stroke-opacity: 0.5; stroke-width: 3; stroke-linecap: square"/>
    </g>
    <g id="text_15">
     <!-- BURNEA -->
     <g transform="translate(276.274688 80.118438) scale(0.1 -0.1)">
      <defs>
       <path id="DejaVuSans-42" d="M 1259 2228 
L 1259 519 
L 2272 519 
Q 2781 519 3026 730 
Q 3272 941 3272 1375 
Q 3272 1813 3026 2020 
Q 2781 2228 2272 2228 
L 1259 2228 
z
M 1259 4147 
L 1259 2741 
L 2194 2741 
Q 2656 2741 2882 2914 
Q 3109 3088 3109 3444 
Q 3109 3797 2882 3972 
Q 2656 4147 2194 4147 
L 1259 4147 
z
M 628 4666 
L 2241 4666 
Q 2963 4666 3353 4366 
Q 3744 4066 3744 3513 
Q 3744 3084 3544 2831 
Q 3344 2578 2956 2516 
Q 3422 2416 3680 2098 
Q 3938 1781 3938 1306 
Q 3938 681 3513 340 
Q 3088 0 2303 0 
L 628 0 
L 628 4666 
z
" transform="scale(0.015625)"/>
       <path id="DejaVuSans-55" d="M 556 4666 
L 1191 4666 
L 1191 1831 
Q 1191 1081 1462 751 
Q 1734 422 2344 422 
Q 2950 422 3222 751 
Q 3494 1081 3494 1831 
L 3494 4666 
L 4128 4666 
L 4128 1753 
Q 4128 841 3676 375 
Q 3225 -91 2344 -91 
Q 1459 -91 1007 375 
Q 556 841 556 1753 
L 556 4666 
z
" transform="scale(0.015625)"/>
      </defs>
      <use xlink:href="#DejaVuSans-42"/>
      <use xlink:href="#DejaVuSans-55" x="68.603516"/>
      <use xlink:href="#DejaVuSans-52" x="141.796875"/>
      <use xlink:href="#DejaVuSans-4e" x="211.279297"/>
      <use xlink:href="#DejaVuSans-45" x="286.083984"/>
      <use xlink:href="#DejaVuSans-41" x="349.267578"/>
     </g>
    </g>
   </g>
  </g>
 </g>
 <defs>
  <clipPath id="pf66c3da472">
   <rect x="48.043438" y="0.72" width="279" height="138.6"/>
  </clipPath>
 </defs>
</svg>
