<?xml version="1.0" encoding="utf-8" standalone="no"?>
<!DOCTYPE svg PUBLIC "-//W3C//DTD SVG 1.1//EN"
  "http://www.w3.org/Graphics/SVG/1.1/DTD/svg11.dtd">
<svg xmlns:xlink="http://www.w3.org/1999/xlink" width="309.843125pt" height="166.39625pt" viewBox="0 0 309.843125 166.39625" xmlns="http://www.w3.org/2000/svg" version="1.1">
 <metadata>
  <rdf:RDF xmlns:dc="http://purl.org/dc/elements/1.1/" xmlns:cc="http://creativecommons.org/ns#" xmlns:rdf="http://www.w3.org/1999/02/22-rdf-syntax-ns#">
   <cc:Work>
    <dc:type rdf:resource="http://purl.org/dc/dcmitype/StillImage"/>
    <dc:date>2023-09-07T03:30:56.962807</dc:date>
    <dc:format>image/svg+xml</dc:format>
    <dc:creator>
     <cc:Agent>
      <dc:title>Matplotlib v3.7.2, https://matplotlib.org/</dc:title>
     </cc:Agent>
    </dc:creator>
   </cc:Work>
  </rdf:RDF>
 </metadata>
 <defs>
  <style type="text/css">*{stroke-linejoin: round; stroke-linecap: butt}</style>
 </defs>
 <g id="figure_1">
  <g id="patch_1">
   <path d="M 0 166.39625 
L 309.843125 166.39625 
L 309.843125 0 
L 0 0 
L 0 166.39625 
z
" style="fill: none"/>
  </g>
  <g id="axes_1">
   <g id="patch_2">
    <path d="M 30.123125 139.32 
L 309.123125 139.32 
L 309.123125 0.72 
L 30.123125 0.72 
L 30.123125 139.32 
z
" style="fill: none"/>
   </g>
   <g id="matplotlib.axis_1">
    <g id="xtick_1">
     <g id="line2d_1">
      <path d="M 30.123125 139.32 
L 30.123125 0.72 
" clip-path="url(#p6927a074f8)" style="fill: none; stroke-dasharray: 0.8,1.32; stroke-dashoffset: 0; stroke: #000000; stroke-opacity: 0.5; stroke-width: 0.8"/>
     </g>
     <g id="line2d_2">
      <defs>
       <path id="m4529c3db15" d="M 0 0 
L 0 3.5 
" style="stroke: #000000; stroke-width: 0.8"/>
      </defs>
      <g>
       <use xlink:href="#m4529c3db15" x="30.123125" y="139.32" style="stroke: #000000; stroke-width: 0.8"/>
      </g>
     </g>
     <g id="text_1">
      <!-- 0 -->
      <g transform="translate(26.941875 153.918438) scale(0.1 -0.1)">
       <defs>
        <path id="DejaVuSans-30" d="M 2034 4250 
Q 1547 4250 1301 3770 
Q 1056 3291 1056 2328 
Q 1056 1369 1301 889 
Q 1547 409 2034 409 
Q 2525 409 2770 889 
Q 3016 1369 3016 2328 
Q 3016 3291 2770 3770 
Q 2525 4250 2034 4250 
z
M 2034 4750 
Q 2819 4750 3233 4129 
Q 3647 3509 3647 2328 
Q 3647 1150 3233 529 
Q 2819 -91 2034 -91 
Q 1250 -91 836 529 
Q 422 1150 422 2328 
Q 422 3509 836 4129 
Q 1250 4750 2034 4750 
z
" transform="scale(0.015625)"/>
       </defs>
       <use xlink:href="#DejaVuSans-30"/>
      </g>
     </g>
    </g>
    <g id="xtick_2">
     <g id="line2d_3">
      <path d="M 72.738026 139.32 
L 72.738026 0.72 
" clip-path="url(#p6927a074f8)" style="fill: none; stroke-dasharray: 0.8,1.32; stroke-dashoffset: 0; stroke: #000000; stroke-opacity: 0.5; stroke-width: 0.8"/>
     </g>
     <g id="line2d_4">
      <g>
       <use xlink:href="#m4529c3db15" x="72.738026" y="139.32" style="stroke: #000000; stroke-width: 0.8"/>
      </g>
     </g>
     <g id="text_2">
      <!-- 5 -->
      <g transform="translate(69.556776 153.918438) scale(0.1 -0.1)">
       <defs>
        <path id="DejaVuSans-35" d="M 691 4666 
L 3169 4666 
L 3169 4134 
L 1269 4134 
L 1269 2991 
Q 1406 3038 1543 3061 
Q 1681 3084 1819 3084 
Q 2600 3084 3056 2656 
Q 3513 2228 3513 1497 
Q 3513 744 3044 326 
Q 2575 -91 1722 -91 
Q 1428 -91 1123 -41 
Q 819 9 494 109 
L 494 744 
Q 775 591 1075 516 
Q 1375 441 1709 441 
Q 2250 441 2565 725 
Q 2881 1009 2881 1497 
Q 2881 1984 2565 2268 
Q 2250 2553 1709 2553 
Q 1456 2553 1204 2497 
Q 953 2441 691 2322 
L 691 4666 
z
" transform="scale(0.015625)"/>
       </defs>
       <use xlink:href="#DejaVuSans-35"/>
      </g>
     </g>
    </g>
    <g id="xtick_3">
     <g id="line2d_5">
      <path d="M 115.352926 139.32 
L 115.352926 0.72 
" clip-path="url(#p6927a074f8)" style="fill: none; stroke-dasharray: 0.8,1.32; stroke-dashoffset: 0; stroke: #000000; stroke-opacity: 0.5; stroke-width: 0.8"/>
     </g>
     <g id="line2d_6">
      <g>
       <use xlink:href="#m4529c3db15" x="115.352926" y="139.32" style="stroke: #000000; stroke-width: 0.8"/>
      </g>
     </g>
     <g id="text_3">
      <!-- 10 -->
      <g transform="translate(108.990426 153.918438) scale(0.1 -0.1)">
       <defs>
        <path id="DejaVuSans-31" d="M 794 531 
L 1825 531 
L 1825 4091 
L 703 3866 
L 703 4441 
L 1819 4666 
L 2450 4666 
L 2450 531 
L 3481 531 
L 3481 0 
L 794 0 
L 794 531 
z
" transform="scale(0.015625)"/>
       </defs>
       <use xlink:href="#DejaVuSans-31"/>
       <use xlink:href="#DejaVuSans-30" x="63.623047"/>
      </g>
     </g>
    </g>
    <g id="xtick_4">
     <g id="line2d_7">
      <path d="M 157.967827 139.32 
L 157.967827 0.72 
" clip-path="url(#p6927a074f8)" style="fill: none; stroke-dasharray: 0.8,1.32; stroke-dashoffset: 0; stroke: #000000; stroke-opacity: 0.5; stroke-width: 0.8"/>
     </g>
     <g id="line2d_8">
      <g>
       <use xlink:href="#m4529c3db15" x="157.967827" y="139.32" style="stroke: #000000; stroke-width: 0.8"/>
      </g>
     </g>
     <g id="text_4">
      <!-- 15 -->
      <g transform="translate(151.605327 153.918438) scale(0.1 -0.1)">
       <use xlink:href="#DejaVuSans-31"/>
       <use xlink:href="#DejaVuSans-35" x="63.623047"/>
      </g>
     </g>
    </g>
    <g id="xtick_5">
     <g id="line2d_9">
      <path d="M 200.582727 139.32 
L 200.582727 0.72 
" clip-path="url(#p6927a074f8)" style="fill: none; stroke-dasharray: 0.8,1.32; stroke-dashoffset: 0; stroke: #000000; stroke-opacity: 0.5; stroke-width: 0.8"/>
     </g>
     <g id="line2d_10">
      <g>
       <use xlink:href="#m4529c3db15" x="200.582727" y="139.32" style="stroke: #000000; stroke-width: 0.8"/>
      </g>
     </g>
     <g id="text_5">
      <!-- 20 -->
      <g transform="translate(194.220227 153.918438) scale(0.1 -0.1)">
       <defs>
        <path id="DejaVuSans-32" d="M 1228 531 
L 3431 531 
L 3431 0 
L 469 0 
L 469 531 
Q 828 903 1448 1529 
Q 2069 2156 2228 2338 
Q 2531 2678 2651 2914 
Q 2772 3150 2772 3378 
Q 2772 3750 2511 3984 
Q 2250 4219 1831 4219 
Q 1534 4219 1204 4116 
Q 875 4013 500 3803 
L 500 4441 
Q 881 4594 1212 4672 
Q 1544 4750 1819 4750 
Q 2544 4750 2975 4387 
Q 3406 4025 3406 3419 
Q 3406 3131 3298 2873 
Q 3191 2616 2906 2266 
Q 2828 2175 2409 1742 
Q 1991 1309 1228 531 
z
" transform="scale(0.015625)"/>
       </defs>
       <use xlink:href="#DejaVuSans-32"/>
       <use xlink:href="#DejaVuSans-30" x="63.623047"/>
      </g>
     </g>
    </g>
    <g id="xtick_6">
     <g id="line2d_11">
      <path d="M 243.197628 139.32 
L 243.197628 0.72 
" clip-path="url(#p6927a074f8)" style="fill: none; stroke-dasharray: 0.8,1.32; stroke-dashoffset: 0; stroke: #000000; stroke-opacity: 0.5; stroke-width: 0.8"/>
     </g>
     <g id="line2d_12">
      <g>
       <use xlink:href="#m4529c3db15" x="243.197628" y="139.32" style="stroke: #000000; stroke-width: 0.8"/>
      </g>
     </g>
     <g id="text_6">
      <!-- 25 -->
      <g transform="translate(236.835128 153.918438) scale(0.1 -0.1)">
       <use xlink:href="#DejaVuSans-32"/>
       <use xlink:href="#DejaVuSans-35" x="63.623047"/>
      </g>
     </g>
    </g>
    <g id="xtick_7">
     <g id="line2d_13">
      <path d="M 285.812528 139.32 
L 285.812528 0.72 
" clip-path="url(#p6927a074f8)" style="fill: none; stroke-dasharray: 0.8,1.32; stroke-dashoffset: 0; stroke: #000000; stroke-opacity: 0.5; stroke-width: 0.8"/>
     </g>
     <g id="line2d_14">
      <g>
       <use xlink:href="#m4529c3db15" x="285.812528" y="139.32" style="stroke: #000000; stroke-width: 0.8"/>
      </g>
     </g>
     <g id="text_7">
      <!-- 30 -->
      <g transform="translate(279.450028 153.918438) scale(0.1 -0.1)">
       <defs>
        <path id="DejaVuSans-33" d="M 2597 2516 
Q 3050 2419 3304 2112 
Q 3559 1806 3559 1356 
Q 3559 666 3084 287 
Q 2609 -91 1734 -91 
Q 1441 -91 1130 -33 
Q 819 25 488 141 
L 488 750 
Q 750 597 1062 519 
Q 1375 441 1716 441 
Q 2309 441 2620 675 
Q 2931 909 2931 1356 
Q 2931 1769 2642 2001 
Q 2353 2234 1838 2234 
L 1294 2234 
L 1294 2753 
L 1863 2753 
Q 2328 2753 2575 2939 
Q 2822 3125 2822 3475 
Q 2822 3834 2567 4026 
Q 2313 4219 1838 4219 
Q 1578 4219 1281 4162 
Q 984 4106 628 3988 
L 628 4550 
Q 988 4650 1302 4700 
Q 1616 4750 1894 4750 
Q 2613 4750 3031 4423 
Q 3450 4097 3450 3541 
Q 3450 3153 3228 2886 
Q 3006 2619 2597 2516 
z
" transform="scale(0.015625)"/>
       </defs>
       <use xlink:href="#DejaVuSans-33"/>
       <use xlink:href="#DejaVuSans-30" x="63.623047"/>
      </g>
     </g>
    </g>
    <g id="text_8">
     <!-- Zeit [s] -->
     <g transform="translate(151.677031 163.596563) scale(0.1 -0.1)">
      <defs>
       <path id="DejaVuSans-5a" d="M 359 4666 
L 4025 4666 
L 4025 4184 
L 1075 531 
L 4097 531 
L 4097 0 
L 288 0 
L 288 481 
L 3238 4134 
L 359 4134 
L 359 4666 
z
" transform="scale(0.015625)"/>
       <path id="DejaVuSans-65" d="M 3597 1894 
L 3597 1613 
L 953 1613 
Q 991 1019 1311 708 
Q 1631 397 2203 397 
Q 2534 397 2845 478 
Q 3156 559 3463 722 
L 3463 178 
Q 3153 47 2828 -22 
Q 2503 -91 2169 -91 
Q 1331 -91 842 396 
Q 353 884 353 1716 
Q 353 2575 817 3079 
Q 1281 3584 2069 3584 
Q 2775 3584 3186 3129 
Q 3597 2675 3597 1894 
z
M 3022 2063 
Q 3016 2534 2758 2815 
Q 2500 3097 2075 3097 
Q 1594 3097 1305 2825 
Q 1016 2553 972 2059 
L 3022 2063 
z
" transform="scale(0.015625)"/>
       <path id="DejaVuSans-69" d="M 603 3500 
L 1178 3500 
L 1178 0 
L 603 0 
L 603 3500 
z
M 603 4863 
L 1178 4863 
L 1178 4134 
L 603 4134 
L 603 4863 
z
" transform="scale(0.015625)"/>
       <path id="DejaVuSans-74" d="M 1172 4494 
L 1172 3500 
L 2356 3500 
L 2356 3053 
L 1172 3053 
L 1172 1153 
Q 1172 725 1289 603 
Q 1406 481 1766 481 
L 2356 481 
L 2356 0 
L 1766 0 
Q 1100 0 847 248 
Q 594 497 594 1153 
L 594 3053 
L 172 3053 
L 172 3500 
L 594 3500 
L 594 4494 
L 1172 4494 
z
" transform="scale(0.015625)"/>
       <path id="DejaVuSans-20" transform="scale(0.015625)"/>
       <path id="DejaVuSans-5b" d="M 550 4863 
L 1875 4863 
L 1875 4416 
L 1125 4416 
L 1125 -397 
L 1875 -397 
L 1875 -844 
L 550 -844 
L 550 4863 
z
" transform="scale(0.015625)"/>
       <path id="DejaVuSans-73" d="M 2834 3397 
L 2834 2853 
Q 2591 2978 2328 3040 
Q 2066 3103 1784 3103 
Q 1356 3103 1142 2972 
Q 928 2841 928 2578 
Q 928 2378 1081 2264 
Q 1234 2150 1697 2047 
L 1894 2003 
Q 2506 1872 2764 1633 
Q 3022 1394 3022 966 
Q 3022 478 2636 193 
Q 2250 -91 1575 -91 
Q 1294 -91 989 -36 
Q 684 19 347 128 
L 347 722 
Q 666 556 975 473 
Q 1284 391 1588 391 
Q 1994 391 2212 530 
Q 2431 669 2431 922 
Q 2431 1156 2273 1281 
Q 2116 1406 1581 1522 
L 1381 1569 
Q 847 1681 609 1914 
Q 372 2147 372 2553 
Q 372 3047 722 3315 
Q 1072 3584 1716 3584 
Q 2034 3584 2315 3537 
Q 2597 3491 2834 3397 
z
" transform="scale(0.015625)"/>
       <path id="DejaVuSans-5d" d="M 1947 4863 
L 1947 -844 
L 622 -844 
L 622 -397 
L 1369 -397 
L 1369 4416 
L 622 4416 
L 622 4863 
L 1947 4863 
z
" transform="scale(0.015625)"/>
      </defs>
      <use xlink:href="#DejaVuSans-5a"/>
      <use xlink:href="#DejaVuSans-65" x="68.505859"/>
      <use xlink:href="#DejaVuSans-69" x="130.029297"/>
      <use xlink:href="#DejaVuSans-74" x="157.8125"/>
      <use xlink:href="#DejaVuSans-20" x="197.021484"/>
      <use xlink:href="#DejaVuSans-5b" x="228.808594"/>
      <use xlink:href="#DejaVuSans-73" x="267.822266"/>
      <use xlink:href="#DejaVuSans-5d" x="319.921875"/>
     </g>
    </g>
   </g>
   <g id="matplotlib.axis_2">
    <g id="ytick_1">
     <g id="line2d_15">
      <path d="M 30.123125 115.523117 
L 309.123125 115.523117 
" clip-path="url(#p6927a074f8)" style="fill: none; stroke-dasharray: 0.8,1.32; stroke-dashoffset: 0; stroke: #000000; stroke-opacity: 0.5; stroke-width: 0.8"/>
     </g>
     <g id="line2d_16">
      <defs>
       <path id="m844aa8ef41" d="M 0 0 
L -3.5 0 
" style="stroke: #000000; stroke-width: 0.8"/>
      </defs>
      <g>
       <use xlink:href="#m844aa8ef41" x="30.123125" y="115.523117" style="stroke: #000000; stroke-width: 0.8"/>
      </g>
     </g>
     <g id="text_9">
      <!-- 60 -->
      <g transform="translate(10.398125 119.322335) scale(0.1 -0.1)">
       <defs>
        <path id="DejaVuSans-36" d="M 2113 2584 
Q 1688 2584 1439 2293 
Q 1191 2003 1191 1497 
Q 1191 994 1439 701 
Q 1688 409 2113 409 
Q 2538 409 2786 701 
Q 3034 994 3034 1497 
Q 3034 2003 2786 2293 
Q 2538 2584 2113 2584 
z
M 3366 4563 
L 3366 3988 
Q 3128 4100 2886 4159 
Q 2644 4219 2406 4219 
Q 1781 4219 1451 3797 
Q 1122 3375 1075 2522 
Q 1259 2794 1537 2939 
Q 1816 3084 2150 3084 
Q 2853 3084 3261 2657 
Q 3669 2231 3669 1497 
Q 3669 778 3244 343 
Q 2819 -91 2113 -91 
Q 1303 -91 875 529 
Q 447 1150 447 2328 
Q 447 3434 972 4092 
Q 1497 4750 2381 4750 
Q 2619 4750 2861 4703 
Q 3103 4656 3366 4563 
z
" transform="scale(0.015625)"/>
       </defs>
       <use xlink:href="#DejaVuSans-36"/>
       <use xlink:href="#DejaVuSans-30" x="63.623047"/>
      </g>
     </g>
    </g>
    <g id="ytick_2">
     <g id="line2d_17">
      <path d="M 30.123125 69.899354 
L 309.123125 69.899354 
" clip-path="url(#p6927a074f8)" style="fill: none; stroke-dasharray: 0.8,1.32; stroke-dashoffset: 0; stroke: #000000; stroke-opacity: 0.5; stroke-width: 0.8"/>
     </g>
     <g id="line2d_18">
      <g>
       <use xlink:href="#m844aa8ef41" x="30.123125" y="69.899354" style="stroke: #000000; stroke-width: 0.8"/>
      </g>
     </g>
     <g id="text_10">
      <!-- 62 -->
      <g transform="translate(10.398125 73.698573) scale(0.1 -0.1)">
       <use xlink:href="#DejaVuSans-36"/>
       <use xlink:href="#DejaVuSans-32" x="63.623047"/>
      </g>
     </g>
    </g>
    <g id="ytick_3">
     <g id="line2d_19">
      <path d="M 30.123125 24.275591 
L 309.123125 24.275591 
" clip-path="url(#p6927a074f8)" style="fill: none; stroke-dasharray: 0.8,1.32; stroke-dashoffset: 0; stroke: #000000; stroke-opacity: 0.5; stroke-width: 0.8"/>
     </g>
     <g id="line2d_20">
      <g>
       <use xlink:href="#m844aa8ef41" x="30.123125" y="24.275591" style="stroke: #000000; stroke-width: 0.8"/>
      </g>
     </g>
     <g id="text_11">
      <!-- 64 -->
      <g transform="translate(10.398125 28.07481) scale(0.1 -0.1)">
       <defs>
        <path id="DejaVuSans-34" d="M 2419 4116 
L 825 1625 
L 2419 1625 
L 2419 4116 
z
M 2253 4666 
L 3047 4666 
L 3047 1625 
L 3713 1625 
L 3713 1100 
L 3047 1100 
L 3047 0 
L 2419 0 
L 2419 1100 
L 313 1100 
L 313 1709 
L 2253 4666 
z
" transform="scale(0.015625)"/>
       </defs>
       <use xlink:href="#DejaVuSans-36"/>
       <use xlink:href="#DejaVuSans-34" x="63.623047"/>
      </g>
     </g>
    </g>
    <g id="text_12">
     <!-- Drehmoment [Nm] -->
     <g transform="translate(8.318438 117.165313) rotate(-90) scale(0.1 -0.1)">
      <defs>
       <path id="DejaVuSans-44" d="M 1259 4147 
L 1259 519 
L 2022 519 
Q 2988 519 3436 956 
Q 3884 1394 3884 2338 
Q 3884 3275 3436 3711 
Q 2988 4147 2022 4147 
L 1259 4147 
z
M 628 4666 
L 1925 4666 
Q 3281 4666 3915 4102 
Q 4550 3538 4550 2338 
Q 4550 1131 3912 565 
Q 3275 0 1925 0 
L 628 0 
L 628 4666 
z
" transform="scale(0.015625)"/>
       <path id="DejaVuSans-72" d="M 2631 2963 
Q 2534 3019 2420 3045 
Q 2306 3072 2169 3072 
Q 1681 3072 1420 2755 
Q 1159 2438 1159 1844 
L 1159 0 
L 581 0 
L 581 3500 
L 1159 3500 
L 1159 2956 
Q 1341 3275 1631 3429 
Q 1922 3584 2338 3584 
Q 2397 3584 2469 3576 
Q 2541 3569 2628 3553 
L 2631 2963 
z
" transform="scale(0.015625)"/>
       <path id="DejaVuSans-68" d="M 3513 2113 
L 3513 0 
L 2938 0 
L 2938 2094 
Q 2938 2591 2744 2837 
Q 2550 3084 2163 3084 
Q 1697 3084 1428 2787 
Q 1159 2491 1159 1978 
L 1159 0 
L 581 0 
L 581 4863 
L 1159 4863 
L 1159 2956 
Q 1366 3272 1645 3428 
Q 1925 3584 2291 3584 
Q 2894 3584 3203 3211 
Q 3513 2838 3513 2113 
z
" transform="scale(0.015625)"/>
       <path id="DejaVuSans-6d" d="M 3328 2828 
Q 3544 3216 3844 3400 
Q 4144 3584 4550 3584 
Q 5097 3584 5394 3201 
Q 5691 2819 5691 2113 
L 5691 0 
L 5113 0 
L 5113 2094 
Q 5113 2597 4934 2840 
Q 4756 3084 4391 3084 
Q 3944 3084 3684 2787 
Q 3425 2491 3425 1978 
L 3425 0 
L 2847 0 
L 2847 2094 
Q 2847 2600 2669 2842 
Q 2491 3084 2119 3084 
Q 1678 3084 1418 2786 
Q 1159 2488 1159 1978 
L 1159 0 
L 581 0 
L 581 3500 
L 1159 3500 
L 1159 2956 
Q 1356 3278 1631 3431 
Q 1906 3584 2284 3584 
Q 2666 3584 2933 3390 
Q 3200 3197 3328 2828 
z
" transform="scale(0.015625)"/>
       <path id="DejaVuSans-6f" d="M 1959 3097 
Q 1497 3097 1228 2736 
Q 959 2375 959 1747 
Q 959 1119 1226 758 
Q 1494 397 1959 397 
Q 2419 397 2687 759 
Q 2956 1122 2956 1747 
Q 2956 2369 2687 2733 
Q 2419 3097 1959 3097 
z
M 1959 3584 
Q 2709 3584 3137 3096 
Q 3566 2609 3566 1747 
Q 3566 888 3137 398 
Q 2709 -91 1959 -91 
Q 1206 -91 779 398 
Q 353 888 353 1747 
Q 353 2609 779 3096 
Q 1206 3584 1959 3584 
z
" transform="scale(0.015625)"/>
       <path id="DejaVuSans-6e" d="M 3513 2113 
L 3513 0 
L 2938 0 
L 2938 2094 
Q 2938 2591 2744 2837 
Q 2550 3084 2163 3084 
Q 1697 3084 1428 2787 
Q 1159 2491 1159 1978 
L 1159 0 
L 581 0 
L 581 3500 
L 1159 3500 
L 1159 2956 
Q 1366 3272 1645 3428 
Q 1925 3584 2291 3584 
Q 2894 3584 3203 3211 
Q 3513 2838 3513 2113 
z
" transform="scale(0.015625)"/>
       <path id="DejaVuSans-4e" d="M 628 4666 
L 1478 4666 
L 3547 763 
L 3547 4666 
L 4159 4666 
L 4159 0 
L 3309 0 
L 1241 3903 
L 1241 0 
L 628 0 
L 628 4666 
z
" transform="scale(0.015625)"/>
      </defs>
      <use xlink:href="#DejaVuSans-44"/>
      <use xlink:href="#DejaVuSans-72" x="77.001953"/>
      <use xlink:href="#DejaVuSans-65" x="115.865234"/>
      <use xlink:href="#DejaVuSans-68" x="177.388672"/>
      <use xlink:href="#DejaVuSans-6d" x="240.767578"/>
      <use xlink:href="#DejaVuSans-6f" x="338.179688"/>
      <use xlink:href="#DejaVuSans-6d" x="399.361328"/>
      <use xlink:href="#DejaVuSans-65" x="496.773438"/>
      <use xlink:href="#DejaVuSans-6e" x="558.296875"/>
      <use xlink:href="#DejaVuSans-74" x="621.675781"/>
      <use xlink:href="#DejaVuSans-20" x="660.884766"/>
      <use xlink:href="#DejaVuSans-5b" x="692.671875"/>
      <use xlink:href="#DejaVuSans-4e" x="731.685547"/>
      <use xlink:href="#DejaVuSans-6d" x="806.490234"/>
      <use xlink:href="#DejaVuSans-5d" x="903.902344"/>
     </g>
    </g>
   </g>
   <g id="line2d_21">
    <path d="M 30.123125 134.186649 
L 309.123125 134.186648 
L 309.123125 134.186648 
" clip-path="url(#p6927a074f8)" style="fill: none; stroke: #0000ff; stroke-opacity: 0.5; stroke-width: 3; stroke-linecap: square"/>
   </g>
   <g id="line2d_22">
    <path d="M 30.123125 10.662163 
L 30.175862 10.690832 
L 30.270742 10.57628 
L 30.330475 10.721322 
L 30.421454 10.568364 
L 30.608013 12.030524 
L 30.674888 12.156283 
L 30.83075 11.436251 
L 31.035511 13.076175 
L 31.104826 13.666186 
L 31.345384 11.957824 
L 31.416299 12.523662 
L 31.465358 12.382272 
L 31.619715 11.92801 
L 31.739797 13.463945 
L 32.117992 7.534656 
L 32.188002 8.263043 
L 32.324232 10.854861 
L 32.464072 9.748499 
L 32.599824 6.797381 
L 32.668391 7.161358 
L 32.959331 14.961657 
L 33.088893 11.082389 
L 33.165809 8.435144 
L 33.234938 8.762612 
L 33.518439 14.581021 
L 33.735762 5.994034 
L 33.873269 7.086302 
L 34.083745 13.787177 
L 34.164687 12.758555 
L 34.371465 6.255424 
L 34.440386 6.803791 
L 34.717912 14.294475 
L 34.944273 8.063508 
L 35.009197 8.787483 
L 35.285783 15.970452 
L 35.577625 10.063198 
L 35.937693 15.454993 
L 36.157356 9.818706 
L 36.214013 8.353288 
L 36.283826 8.673274 
L 36.488829 14.704077 
L 36.574157 13.577635 
L 36.779812 7.682555 
L 36.848581 7.828525 
L 37.141592 12.157435 
L 37.281865 9.189403 
L 37.41853 6.884869 
L 37.555954 7.431497 
L 37.813584 12.418425 
L 37.865279 12.321478 
L 38.036902 9.14113 
L 38.105248 9.20778 
L 38.158911 9.621895 
L 38.27671 12.789383 
L 38.414615 13.46443 
L 38.69477 9.045751 
L 38.91636 12.628649 
L 38.983867 12.43652 
L 39.12314 12.094925 
L 39.27631 9.943663 
L 39.505754 14.246805 
L 39.642151 13.729113 
L 39.695434 13.539613 
L 39.922053 11.151298 
L 40.050592 11.468603 
L 40.290124 14.055625 
L 40.306196 13.73354 
L 40.447951 11.780761 
L 40.58662 10.619072 
L 40.638219 10.757153 
L 40.776124 13.823937 
L 40.932185 12.342035 
L 41.153535 9.516871 
L 41.411735 13.090699 
L 41.463472 12.550694 
L 41.720506 9.863572 
L 41.80779 10.087684 
L 41.841152 10.234281 
L 42.006314 12.689668 
L 42.218996 10.880085 
L 42.257843 11.009039 
L 42.346909 11.163267 
L 42.408153 10.99223 
L 42.558368 12.018604 
L 42.648118 11.903886 
L 42.855129 10.673809 
L 42.958702 10.081104 
L 43.000033 10.331674 
L 43.249718 11.851509 
L 43.318707 11.61885 
L 43.455847 10.594351 
L 43.610519 11.817068 
L 43.747176 11.496951 
L 43.884924 11.899104 
L 44.177032 10.301224 
L 44.245293 10.469486 
L 44.525009 11.346822 
L 44.663974 10.653766 
L 44.742651 10.801979 
L 44.880469 11.486808 
L 44.97919 11.052881 
L 45.018785 11.375747 
L 45.10387 11.517655 
L 45.311059 10.408101 
L 45.448639 10.258375 
L 45.671832 10.787129 
L 45.741061 10.806365 
L 45.947026 9.777381 
L 46.101939 10.570249 
L 46.170389 10.487284 
L 46.239004 10.371583 
L 46.5337 8.070849 
L 46.853222 9.609947 
L 46.874807 9.426849 
L 46.94411 9.262065 
L 47.098593 10.85638 
L 47.204241 10.860527 
L 47.309059 11.412311 
L 47.394699 12.409091 
L 47.455458 12.261812 
L 47.527226 12.132153 
L 47.704837 13.190167 
L 47.743521 12.959603 
L 47.743594 12.581628 
L 47.811953 12.651415 
L 48.045109 13.310113 
L 48.063245 13.05997 
L 48.210728 12.436731 
L 48.296194 11.700229 
L 48.378223 11.56606 
L 48.457123 11.650595 
L 48.558456 11.289641 
L 48.729025 12.891164 
L 48.865727 10.878138 
L 48.968136 11.216756 
L 49.002637 11.183984 
L 49.140585 10.545802 
L 49.228807 10.916958 
L 49.500872 7.669306 
L 49.725131 9.850805 
L 49.780518 9.37609 
L 49.883144 9.906501 
L 49.899555 11.113504 
L 50.00429 10.663664 
L 50.021287 10.52576 
L 50.089862 10.576153 
L 50.380393 11.541219 
L 50.502443 10.85509 
L 50.707369 10.086818 
L 50.793161 9.523165 
L 50.930925 10.600134 
L 51.154067 8.474177 
L 51.209776 8.547622 
L 51.292384 8.626277 
L 51.498586 9.849093 
L 51.515022 9.823922 
L 51.878368 9.145224 
L 52.253543 9.419671 
L 52.65426 10.851728 
L 53.028815 10.382846 
L 53.043992 10.483061 
L 53.112264 11.846729 
L 53.198618 11.619906 
L 53.267068 11.510066 
L 53.421325 10.844961 
L 53.524491 11.775285 
L 53.593987 11.665188 
L 53.612538 10.86036 
L 53.765506 10.495401 
L 53.818221 9.955758 
L 53.834362 10.635945 
L 53.954309 11.38922 
L 54.246556 9.914676 
L 54.473223 10.947727 
L 54.67699 8.997036 
L 54.763462 9.282912 
L 54.900844 10.77457 
L 55.147348 9.739017 
L 55.243361 9.820886 
L 55.3998 11.533307 
L 55.50169 10.913143 
L 55.53564 11.073308 
L 55.724574 11.669318 
L 55.775958 11.791117 
L 56.107378 10.285924 
L 56.120707 11.546127 
L 56.185194 9.830262 
L 56.357196 9.370063 
L 56.393575 9.844293 
L 56.481434 9.683782 
L 56.528915 9.710638 
L 56.597967 9.445728 
L 56.683442 9.5971 
L 56.751952 9.508443 
L 56.820928 9.310227 
L 57.044741 10.157135 
L 57.181658 10.649699 
L 57.249899 10.556068 
L 57.318903 10.854107 
L 57.490511 10.044803 
L 57.541727 10.311327 
L 57.593431 10.943024 
L 57.817594 9.128269 
L 58.041537 11.180277 
L 58.094176 11.069637 
L 58.231545 11.758542 
L 58.316041 11.58451 
L 58.385033 11.585762 
L 58.4529 11.78347 
L 58.641537 10.114875 
L 58.658558 10.666624 
L 58.892663 11.65649 
L 58.977112 11.245107 
L 59.040633 11.477028 
L 59.124304 11.367368 
L 59.203165 11.602127 
L 59.302664 13.678661 
L 59.541878 11.517001 
L 59.713629 12.520716 
L 59.730754 12.501112 
L 59.869699 12.06116 
L 60.090883 10.941029 
L 60.159691 11.151616 
L 60.228019 11.785297 
L 60.347876 11.332028 
L 60.367123 10.442034 
L 60.455998 10.65559 
L 60.50372 10.686579 
L 60.794212 8.834088 
L 60.863319 9.045335 
L 61.159542 8.355725 
L 61.29367 8.877762 
L 61.361868 8.800984 
L 61.431321 8.798739 
L 61.586436 7.262806 
L 61.690201 7.444527 
L 61.808684 8.581753 
L 62.135121 10.015484 
L 62.212949 9.531629 
L 62.239486 9.815553 
L 62.444104 11.310877 
L 62.513673 11.16806 
L 62.564553 10.530076 
L 62.685824 10.787718 
L 62.720455 10.642189 
L 62.78971 10.295334 
L 62.96043 10.593995 
L 63.146666 9.636769 
L 63.276719 11.20598 
L 63.434741 10.388168 
L 63.669439 12.324542 
L 63.721678 12.01166 
L 63.858189 11.442351 
L 63.959336 10.423451 
L 63.999124 10.497834 
L 64.203895 12.51741 
L 64.276218 12.321849 
L 64.342695 11.64575 
L 64.426465 11.810194 
L 64.564422 13.017106 
L 64.753503 12.885573 
L 64.839869 10.629622 
L 64.960112 10.485471 
L 64.994307 10.793044 
L 65.063057 10.649266 
L 65.338781 10.153828 
L 65.565023 11.324819 
L 65.667289 10.910994 
L 65.698387 9.795554 
L 65.768326 10.49154 
L 65.908789 11.166499 
L 66.080437 10.361107 
L 66.163456 10.436812 
L 66.197787 10.500381 
L 66.336744 9.628479 
L 66.377152 9.951988 
L 66.474592 11.357228 
L 66.648409 10.317465 
L 66.783804 11.523393 
L 66.835537 11.479582 
L 67.008344 10.952624 
L 67.126941 11.680069 
L 67.238742 11.446176 
L 67.403529 12.716225 
L 67.471313 12.156101 
L 67.558125 12.364216 
L 67.711766 13.184552 
L 67.970146 11.105165 
L 68.196615 10.575279 
L 68.251934 11.183873 
L 68.333613 11.099285 
L 68.402127 11.036108 
L 68.625769 9.795364 
L 68.750818 10.342166 
L 68.764255 10.139381 
L 68.833237 10.118983 
L 68.885568 10.433242 
L 68.989379 10.076199 
L 69.127005 8.748164 
L 69.194835 9.016767 
L 69.348688 10.949887 
L 69.677286 9.635438 
L 69.762322 9.887018 
L 69.899565 11.49646 
L 70.020764 10.427065 
L 70.143045 10.766524 
L 70.176618 10.271319 
L 70.262102 10.376624 
L 70.334412 10.943764 
L 70.382718 10.803862 
L 70.451179 10.314544 
L 70.468028 10.921237 
L 70.520552 10.848365 
L 70.644338 10.931656 
L 70.661235 11.204811 
L 70.749799 11.144527 
L 70.816171 10.939505 
L 70.886703 10.968164 
L 70.95529 10.905896 
L 71.09022 10.056575 
L 71.195251 10.070573 
L 71.331546 9.863752 
L 71.382094 8.93419 
L 71.451048 8.976071 
L 71.593123 9.658633 
L 71.743857 10.478311 
L 71.880413 10.667554 
L 72.09321 11.948713 
L 72.163742 11.822564 
L 72.604077 9.598215 
L 72.759219 10.46661 
L 72.896078 9.15718 
L 73.153322 10.611386 
L 73.223137 10.582271 
L 73.369093 10.334035 
L 73.4904 10.387496 
L 73.653314 11.997955 
L 73.725981 11.942835 
L 73.85897 10.889548 
L 74.01398 12.119088 
L 74.221157 10.489189 
L 74.307496 11.147262 
L 74.39257 11.001292 
L 74.426914 10.699817 
L 74.582005 11.475407 
L 74.753065 10.551628 
L 74.874181 11.086806 
L 75.02838 9.676129 
L 75.158277 11.620062 
L 75.254789 11.152757 
L 75.321795 10.948446 
L 75.565536 12.667355 
L 75.632166 12.515555 
L 75.804159 11.786417 
L 75.93132 10.117209 
L 76.009641 10.473023 
L 76.39043 8.154392 
L 76.511392 9.000393 
L 76.579246 8.959614 
L 76.630486 8.491221 
L 76.857015 9.169877 
L 76.911947 8.852508 
L 77.063655 10.363686 
L 77.200454 9.117845 
L 77.35529 11.056794 
L 77.494143 10.047477 
L 77.630394 10.572556 
L 77.767771 10.408842 
L 77.90564 12.070543 
L 78.059886 11.040344 
L 78.127667 11.335224 
L 78.337912 12.201605 
L 78.404473 11.756584 
L 78.470667 12.477777 
L 78.557043 12.348874 
L 78.762712 10.135125 
L 78.830981 10.504479 
L 79.054823 8.992993 
L 79.124231 8.841541 
L 79.26136 7.517176 
L 79.467199 9.444686 
L 79.622708 10.065628 
L 79.76061 11.074575 
L 79.828436 10.585669 
L 79.898237 10.66443 
L 79.968337 11.345949 
L 80.034294 11.152612 
L 80.120738 11.005826 
L 80.472629 9.201676 
L 80.60294 11.009306 
L 80.6724 10.627095 
L 80.775134 10.722653 
L 80.896712 11.524597 
L 80.962176 11.005382 
L 81.047975 12.02531 
L 81.100815 11.598144 
L 81.25524 10.970903 
L 81.323445 9.965955 
L 81.392216 10.492289 
L 81.462895 10.857293 
L 81.75496 9.930041 
L 81.810607 10.10178 
L 81.960291 11.476505 
L 82.167684 9.655226 
L 82.309764 9.736605 
L 82.322697 9.311564 
L 82.395634 9.531499 
L 82.529433 10.071412 
L 82.581033 9.835465 
L 82.598742 8.8988 
L 82.668609 8.952327 
L 82.829637 9.559104 
L 82.909121 9.668489 
L 82.960292 8.929099 
L 83.029503 9.400644 
L 83.132734 9.312658 
L 83.166546 8.658843 
L 83.235004 8.884537 
L 83.304201 9.174169 
L 83.37358 8.425109 
L 83.737208 10.01167 
L 83.910606 9.60973 
L 83.943548 9.943194 
L 84.098569 10.124344 
L 84.167252 10.584386 
L 84.184548 10.462099 
L 84.392136 10.225274 
L 84.478194 10.104613 
L 84.618113 10.912347 
L 84.753846 10.124835 
L 84.855576 9.04281 
L 84.873199 9.164325 
L 85.028999 8.564502 
L 85.080854 9.123261 
L 85.165914 7.469833 
L 85.440052 8.457346 
L 85.458534 9.164797 
L 85.508372 8.891501 
L 85.577849 8.788575 
L 85.646442 9.380598 
L 85.750394 9.171087 
L 85.819173 9.252453 
L 85.905971 10.434031 
L 86.041844 8.886948 
L 86.128075 9.032175 
L 86.193464 8.917607 
L 86.215202 9.728526 
L 86.386881 8.549615 
L 86.540377 9.496363 
L 86.574487 9.091137 
L 86.849263 9.966986 
L 87.003824 9.253284 
L 87.055064 9.649681 
L 87.106678 9.45815 
L 87.365128 8.313832 
L 87.385099 9.416104 
L 87.433927 8.572146 
L 87.502682 7.719837 
L 87.573453 8.098035 
L 87.698724 7.167097 
L 87.781872 7.351034 
L 87.851744 7.465751 
L 88.003053 8.256934 
L 88.077231 7.463077 
L 88.210162 9.449086 
L 88.311701 9.389523 
L 88.483237 10.146645 
L 88.517786 10.086724 
L 88.658305 10.951234 
L 88.725868 10.279794 
L 88.778257 10.621337 
L 88.91456 10.103677 
L 89.159851 11.395652 
L 89.27403 12.071369 
L 89.377283 11.125133 
L 89.449948 11.574207 
L 89.504677 11.459018 
L 89.705327 11.911029 
L 89.998044 9.488022 
L 90.136142 9.895427 
L 90.23901 9.226798 
L 90.514488 9.980149 
L 90.65149 10.775049 
L 90.791247 11.587304 
L 90.874974 10.798476 
L 90.927838 11.870439 
L 90.995309 11.167651 
L 91.080884 10.843946 
L 91.132573 10.990521 
L 91.275631 9.024095 
L 91.338378 9.614081 
L 91.476558 9.669119 
L 91.54749 10.46884 
L 91.630356 9.698368 
L 91.769185 10.094043 
L 91.836734 10.045131 
L 92.025985 11.369592 
L 92.283921 9.607972 
L 92.645562 9.667867 
L 92.834674 8.401891 
L 92.981303 9.219802 
L 93.162014 8.337728 
L 93.233777 8.797809 
L 93.26478 8.538014 
L 93.333052 7.981551 
L 93.539242 10.457395 
L 93.68052 11.004946 
L 93.831801 12.487278 
L 93.900292 12.023223 
L 93.969014 12.19554 
L 94.038149 12.653717 
L 94.113993 12.513265 
L 94.313413 11.853321 
L 94.468574 10.130116 
L 94.614671 10.349857 
L 94.748052 9.339179 
L 94.881589 10.130993 
L 94.966427 9.523118 
L 95.173151 10.513251 
L 95.318204 9.262526 
L 95.533301 11.456862 
L 95.603014 10.862701 
L 95.740026 11.872381 
L 95.808563 11.369236 
L 96.030706 13.030833 
L 96.100147 12.980593 
L 96.237412 11.097064 
L 96.309586 11.429784 
L 96.600057 9.905988 
L 96.873582 10.079141 
L 97.018087 10.900523 
L 97.08247 10.814901 
L 97.1733 11.073469 
L 97.376027 11.904929 
L 97.441834 12.074215 
L 97.512226 10.691889 
L 97.52868 11.814958 
L 97.581391 11.834835 
L 97.64968 12.18815 
L 97.73701 10.796964 
L 97.805862 11.071125 
L 97.892426 10.950705 
L 98.010226 11.238047 
L 98.154024 10.102268 
L 98.233496 10.227598 
L 98.374283 11.294669 
L 98.478255 10.732075 
L 98.590746 11.101267 
L 98.667515 11.026763 
L 98.722264 10.805685 
L 98.787485 10.981146 
L 98.856267 11.159948 
L 98.992725 10.957101 
L 99.088892 10.593268 
L 99.285421 11.27622 
L 99.387595 10.080074 
L 99.5074 10.880464 
L 99.577998 10.784992 
L 99.732307 10.579675 
L 99.85182 9.915767 
L 99.938607 10.015798 
L 100.162339 9.388208 
L 100.263848 9.915476 
L 100.302512 9.429444 
L 100.354428 9.608137 
L 100.50551 10.486169 
L 100.574855 10.280367 
L 100.681077 9.473342 
L 100.799406 11.027808 
L 101.14529 9.514844 
L 101.279481 8.786578 
L 101.3565 9.539843 
L 101.416749 8.73993 
L 101.48789 8.757404 
L 101.644767 8.405802 
L 101.778097 9.348196 
L 101.84712 8.996939 
L 102.018528 9.986296 
L 102.087175 9.832566 
L 102.191126 9.927956 
L 102.242729 9.70847 
L 102.483293 11.160471 
L 102.570339 11.380745 
L 102.623003 11.253523 
L 102.706135 11.147426 
L 102.898746 9.952561 
L 102.929758 9.709293 
L 102.946829 10.066067 
L 103.03309 9.895801 
L 103.153276 9.051195 
L 103.276601 10.029904 
L 103.444698 9.242559 
L 103.617113 10.704037 
L 103.7706 9.896265 
L 103.856665 10.798296 
L 103.925398 10.449015 
L 104.011617 10.342616 
L 104.133438 11.362589 
L 104.201942 11.355148 
L 104.339988 11.600541 
L 104.410251 12.179049 
L 104.545432 10.841504 
L 104.648877 11.20368 
L 104.700641 11.087752 
L 104.768627 10.644873 
L 104.924467 11.116293 
L 105.078591 9.758031 
L 105.114778 9.988884 
L 105.198542 11.01474 
L 105.267466 10.75427 
L 105.335954 10.21087 
L 105.474949 10.387426 
L 105.539862 11.206863 
L 105.553058 10.348002 
L 105.615445 10.174231 
L 105.7604 11.082273 
L 105.90283 9.355237 
L 105.970794 10.080447 
L 106.062009 10.00412 
L 106.072903 10.455208 
L 106.124739 9.190674 
L 106.26284 8.830139 
L 106.478634 10.116806 
L 106.624337 11.336945 
L 106.816302 10.396079 
L 106.869141 11.896675 
L 106.968636 11.579852 
L 107.036939 11.818329 
L 107.179171 10.742129 
L 107.284961 10.907732 
L 107.364669 10.767367 
L 107.488026 11.58272 
L 107.558927 10.895218 
L 107.640048 11.065751 
L 107.743474 11.057843 
L 107.796864 10.48299 
L 107.911691 10.736945 
L 108.146012 13.172848 
L 108.381132 12.715309 
L 108.537441 13.373199 
L 108.674073 12.36574 
L 108.74283 12.641618 
L 108.949004 11.142566 
L 109.053506 11.248833 
L 109.123307 11.083184 
L 109.260214 9.736074 
L 109.34008 9.839866 
L 109.448501 8.687487 
L 109.732726 10.413686 
L 109.828594 10.630399 
L 109.916552 10.217548 
L 109.95038 10.518397 
L 110.018887 10.551233 
L 110.092428 10.074921 
L 110.105414 11.003817 
L 110.173164 10.674087 
L 110.345534 10.254049 
L 110.381536 10.298219 
L 110.517897 9.298389 
L 110.654835 10.689943 
L 110.727506 10.327474 
L 110.810952 10.967464 
L 111.02329 9.714212 
L 111.092732 9.74006 
L 111.222461 9.439371 
L 111.256525 9.595143 
L 111.395429 8.599362 
L 111.448415 9.120319 
L 111.517283 8.817989 
L 111.672566 8.814023 
L 111.877967 10.193152 
L 111.946821 10.386528 
L 112.358565 13.129625 
L 112.513312 11.993904 
L 112.688687 12.198973 
L 112.855621 11.03635 
L 112.925338 10.990971 
L 113.079702 10.078103 
L 113.161346 10.45672 
L 113.216985 9.940689 
L 113.284954 10.130328 
L 113.440552 10.432513 
L 113.52708 9.992385 
L 113.611768 10.595628 
L 113.651807 10.532842 
L 113.749274 10.538462 
L 113.938347 11.219591 
L 114.173686 9.886161 
L 114.402436 10.673344 
L 114.506058 9.867384 
L 114.782164 12.516272 
L 114.866415 12.19886 
L 115.00433 11.058954 
L 115.126285 11.11075 
L 115.211737 11.866576 
L 115.227203 11.405588 
L 115.297949 11.155859 
L 115.486147 9.469441 
L 115.640625 10.179772 
L 115.777914 10.031168 
L 115.848148 10.30365 
L 115.929813 10.210597 
L 115.997958 9.708152 
L 116.084268 9.849187 
L 116.121685 9.82548 
L 116.204099 10.301136 
L 116.273937 10.092122 
L 116.358803 10.341874 
L 116.415121 10.249775 
L 116.550096 9.426019 
L 116.564131 8.901293 
L 116.66675 9.043415 
L 116.718524 9.882563 
L 116.786951 9.402468 
L 116.839292 9.534373 
L 117.012809 9.259545 
L 117.063158 9.356068 
L 117.131385 8.830359 
L 117.252598 9.136614 
L 117.285994 10.320163 
L 117.343392 9.836494 
L 117.407771 9.643285 
L 117.494029 10.058982 
L 117.564947 9.3745 
L 117.618276 9.657147 
L 117.786789 9.522754 
L 117.844811 10.651964 
L 117.927605 10.610645 
L 117.994208 9.041154 
L 118.044942 9.657154 
L 118.114515 9.460221 
L 118.199971 8.461446 
L 118.25726 8.738644 
L 118.545897 8.220675 
L 118.646989 7.059883 
L 118.822806 8.868547 
L 119.010315 10.229305 
L 119.043427 10.068813 
L 119.111472 9.874774 
L 119.266389 10.717894 
L 119.335419 10.678711 
L 119.421282 11.027988 
L 119.696799 9.897066 
L 119.75113 9.998706 
L 119.839289 10.797094 
L 119.851075 10.472305 
L 119.971972 10.754449 
L 120.023225 9.878229 
L 120.041487 10.564382 
L 120.179027 10.452677 
L 120.247696 9.850065 
L 120.367871 10.146585 
L 120.42212 9.978361 
L 120.559199 9.347294 
L 120.644835 9.610799 
L 120.747063 10.49736 
L 120.918293 10.129506 
L 121.039008 11.289904 
L 121.10666 11.433292 
L 121.244806 12.335305 
L 121.381876 11.345646 
L 121.467817 11.190039 
L 121.605164 10.784717 
L 121.674587 10.836775 
L 121.813438 11.48637 
L 121.880546 11.239377 
L 121.951996 10.913204 
L 122.10381 11.645789 
L 122.172436 11.601449 
L 122.30975 12.792763 
L 122.464754 11.95758 
L 122.528632 10.35643 
L 122.792105 10.684715 
L 122.90038 10.124942 
L 123.018233 9.272069 
L 123.228276 11.06951 
L 123.493362 10.906339 
L 123.511341 10.738446 
L 123.590375 10.893308 
L 123.682706 11.598734 
L 123.734548 11.518302 
L 123.80335 11.025055 
L 123.873279 11.183182 
L 123.95756 11.504832 
L 124.079156 10.626937 
L 124.154654 10.849332 
L 124.249835 11.008575 
L 124.397379 10.066255 
L 124.5007 11.537999 
L 124.588531 11.231048 
L 124.672016 10.769514 
L 124.826714 11.848966 
L 124.877715 11.010407 
L 124.999894 11.18874 
L 125.102054 11.878507 
L 125.224624 10.393922 
L 125.294108 10.810797 
L 125.360574 10.713075 
L 125.433226 10.717165 
L 125.53265 10.494165 
L 125.963783 11.777212 
L 126.033871 10.884932 
L 126.135996 10.948076 
L 126.221685 12.137179 
L 126.290759 11.678835 
L 126.358981 11.640913 
L 126.49685 12.737636 
L 126.789639 11.51519 
L 126.99566 10.245757 
L 127.102372 11.071417 
L 127.220163 9.558425 
L 127.376597 11.29192 
L 127.482287 11.03311 
L 127.701347 12.310607 
L 127.874532 11.838398 
L 128.010951 10.013116 
L 128.068422 10.37961 
L 128.130079 11.491981 
L 128.19908 11.338127 
L 128.268894 10.936893 
L 128.356653 11.373948 
L 128.435295 11.310782 
L 128.698369 11.721119 
L 128.885958 10.903192 
L 129.05842 8.84503 
L 129.177807 8.548062 
L 129.200101 8.129765 
L 129.297416 8.188179 
L 129.333965 8.958787 
L 129.434606 8.578164 
L 129.488196 8.965569 
L 129.557608 8.477227 
L 129.727423 10.482801 
L 129.764231 9.915835 
L 129.859175 10.099435 
L 129.997784 11.224828 
L 130.012614 10.827643 
L 130.067541 11.029545 
L 130.255513 10.18615 
L 130.288676 10.953807 
L 130.409195 10.758186 
L 130.428394 9.960739 
L 130.476909 10.746384 
L 130.545261 10.851333 
L 130.68327 9.585534 
L 130.768677 9.966551 
L 130.847019 9.997744 
L 131.113385 9.041852 
L 131.199313 8.914661 
L 131.405837 10.79338 
L 131.47479 10.527499 
L 131.92233 13.11329 
L 132.110222 11.999971 
L 132.179627 12.086348 
L 132.315484 10.785879 
L 132.421393 10.609228 
L 132.538944 11.526542 
L 132.832168 9.363746 
L 133.108624 11.985886 
L 133.314587 10.13717 
L 133.467675 11.387924 
L 133.536697 11.080736 
L 133.604461 11.423579 
L 133.965471 9.065389 
L 134.033565 10.587825 
L 134.157414 10.421576 
L 134.256942 11.358541 
L 134.461951 9.812794 
L 134.530726 8.936565 
L 134.668184 10.810959 
L 134.753595 10.739756 
L 134.822544 11.230033 
L 134.89193 10.134871 
L 134.960031 10.582731 
L 135.115389 9.541701 
L 135.21864 10.154867 
L 135.25237 11.495659 
L 135.304323 10.887695 
L 135.422516 10.970712 
L 135.458563 9.678639 
L 135.595853 9.008546 
L 135.650093 9.503708 
L 135.699121 8.571716 
L 135.875059 11.026731 
L 136.030866 11.849587 
L 136.306436 9.975478 
L 136.392397 10.090762 
L 136.443387 9.998113 
L 136.51694 10.577972 
L 136.581298 10.420388 
L 136.735411 9.627863 
L 137.16487 11.936455 
L 137.233717 11.662331 
L 137.373833 10.925155 
L 137.513499 9.114583 
L 137.581523 9.299788 
L 137.740947 10.953842 
L 137.791064 12.182043 
L 138.07865 8.537374 
L 138.183204 8.863869 
L 138.319815 10.896192 
L 138.355305 10.891619 
L 138.647528 7.934492 
L 138.784443 9.713398 
L 138.921519 11.559391 
L 139.076295 10.859824 
L 139.214589 9.306112 
L 139.283355 9.995781 
L 139.489755 11.570242 
L 139.850762 7.885183 
L 139.919625 8.132151 
L 140.130151 9.459935 
L 140.212602 9.086074 
L 140.351473 7.675236 
L 140.419589 7.705557 
L 140.495816 8.399151 
L 140.634687 10.827461 
L 140.78073 11.261188 
L 140.989663 8.952492 
L 141.264132 9.760766 
L 141.413945 10.504837 
L 141.486302 9.958157 
L 141.551866 10.344027 
L 141.62131 10.243634 
L 141.695262 10.287964 
L 141.930358 11.504865 
L 142.309 8.50093 
L 142.345137 9.027755 
L 142.471287 10.121992 
L 142.639067 9.054096 
L 142.759339 7.657504 
L 142.855638 7.672869 
L 143.040367 9.605458 
L 143.10649 9.06481 
L 143.189788 9.153011 
L 143.275926 9.010089 
L 143.41373 9.710699 
L 143.550936 9.986249 
L 143.603035 9.627944 
L 143.619803 9.634955 
L 143.843711 10.457606 
L 144.119185 8.208342 
L 144.220815 8.247239 
L 144.290569 8.759898 
L 144.325099 8.607594 
L 144.547587 8.025427 
L 144.822859 11.178941 
L 144.909543 11.166834 
L 145.045416 10.664516 
L 145.114069 10.703868 
L 145.255264 11.084697 
L 145.543422 8.536738 
L 145.663321 8.251571 
L 145.766865 9.280878 
L 145.81857 9.149603 
L 146.02737 8.704138 
L 146.042103 9.024548 
L 146.110819 8.726301 
L 146.249095 10.017232 
L 146.316014 11.000701 
L 146.385757 10.771894 
L 146.459551 10.689597 
L 146.522987 11.604297 
L 146.639688 11.40505 
L 146.763059 11.805239 
L 146.890405 12.148265 
L 146.969536 11.647874 
L 147.123914 10.945886 
L 147.227245 10.969657 
L 147.24466 10.163073 
L 147.321212 10.272771 
L 147.405023 9.749716 
L 147.450854 10.05959 
L 147.537368 10.045833 
L 147.59434 10.446033 
L 147.674879 10.31464 
L 147.816825 10.45571 
L 147.989929 9.350676 
L 148.040227 9.407105 
L 148.160574 9.554914 
L 148.297555 9.390998 
L 148.303491 9.440632 
L 148.388923 9.511105 
L 148.47523 9.355858 
L 148.665116 9.94249 
L 148.75417 9.092792 
L 148.801413 9.183188 
L 148.955631 9.543286 
L 149.231948 8.709999 
L 149.29962 8.833291 
L 149.540697 11.256551 
L 149.595261 10.940174 
L 149.729777 10.947684 
L 149.946884 11.431131 
L 150.239126 9.837639 
L 150.462281 10.600607 
L 150.5668 9.474504 
L 150.788491 10.841125 
L 150.874929 10.542926 
L 150.943404 10.241882 
L 151.114607 10.118861 
L 151.183669 9.526383 
L 151.218413 9.882801 
L 151.286413 10.110901 
L 151.51084 8.727346 
L 151.57905 9.005877 
L 151.647478 8.872745 
L 151.716482 8.339575 
L 151.787798 8.504243 
L 151.888995 8.669756 
L 152.077603 7.306215 
L 152.148496 7.350813 
L 152.283774 6.868204 
L 152.545971 8.747512 
L 152.629031 8.784305 
L 152.648791 9.146957 
L 152.764718 9.182196 
L 152.989481 11.686455 
L 153.126098 11.741952 
L 153.281154 11.325387 
L 153.456935 11.788324 
L 153.625214 10.850773 
L 153.764372 10.533932 
L 153.779478 9.78021 
L 154.039105 9.562837 
L 154.208482 8.885122 
L 154.280288 8.933098 
L 154.417049 8.164563 
L 154.845206 9.623931 
L 154.913857 9.773302 
L 155.191726 11.698711 
L 155.263954 11.308954 
L 155.827676 8.692772 
L 155.911438 8.577413 
L 155.981299 8.730588 
L 156.049134 8.431706 
L 156.393826 9.360642 
L 156.445848 9.01151 
L 156.479327 9.443913 
L 156.547302 9.471911 
L 156.684306 8.905917 
L 156.756714 9.19455 
L 156.970165 8.321149 
L 157.122253 10.190693 
L 157.321377 11.23064 
L 157.391081 11.962871 
L 157.511529 11.987305 
L 157.547589 12.711113 
L 157.63129 12.376671 
L 157.890591 10.846992 
L 158.061122 9.851745 
L 158.250253 7.920362 
L 158.319398 8.491777 
L 158.457394 8.095414 
L 158.478993 8.496881 
L 158.570729 7.677535 
L 158.885598 10.043706 
L 159.193598 8.956383 
L 159.383205 9.766835 
L 159.540972 10.427322 
L 159.675951 9.928393 
L 159.744521 10.05229 
L 159.949876 11.777154 
L 160.224574 10.771596 
L 160.241677 10.861505 
L 160.381525 11.989909 
L 160.455363 11.748073 
L 160.656935 11.743841 
L 160.828066 12.354784 
L 161.104036 10.51734 
L 161.17142 10.934491 
L 161.240081 11.195841 
L 161.549855 9.404018 
L 161.757893 10.016587 
L 161.809451 10.297262 
L 162.050185 9.724301 
L 162.153917 10.446673 
L 162.308362 9.811231 
L 162.376162 9.923724 
L 162.462164 9.963976 
L 162.651868 8.959621 
L 162.754351 9.015732 
L 162.805199 9.253311 
L 162.909063 9.175814 
L 163.030431 10.461179 
L 163.131509 10.434989 
L 163.205432 10.277849 
L 163.303876 10.94371 
L 163.442778 10.805495 
L 163.578807 10.240662 
L 163.6481 10.16717 
L 163.784878 9.821177 
L 164.007891 10.179212 
L 164.162272 11.305215 
L 164.26564 11.175762 
L 164.318565 11.137524 
L 164.369303 10.557 
L 164.437479 11.13991 
L 164.511294 11.058853 
L 164.575612 10.830328 
L 164.71414 11.084041 
L 165.004448 9.485222 
L 165.142753 9.521658 
L 165.210075 9.535387 
L 165.355131 9.919634 
L 165.419537 9.82254 
L 165.49567 9.332926 
L 165.633932 9.272501 
L 165.646481 9.104614 
L 165.714421 9.347662 
L 165.786282 9.542549 
L 165.874618 8.832047 
L 165.923893 8.870552 
L 166.078287 8.194342 
L 166.198045 8.502263 
L 166.304178 9.959368 
L 166.562292 11.282667 
L 166.650594 11.121856 
L 166.769676 11.601495 
L 166.836698 11.525739 
L 166.921703 11.535168 
L 167.188675 10.818918 
L 167.284314 9.517427 
L 167.430168 10.143359 
L 167.516803 10.197738 
L 167.771991 8.978217 
L 168.04995 9.779952 
L 168.202076 9.316802 
L 168.287667 9.379096 
L 168.613339 8.579301 
L 168.670583 8.820724 
L 168.769785 7.939179 
L 168.837054 7.976345 
L 168.905511 8.180275 
L 169.112393 6.855021 
L 169.334775 7.455788 
L 169.686657 8.868643 
L 169.821606 10.021669 
L 170.042897 8.97011 
L 170.074955 9.268087 
L 170.111065 9.708733 
L 170.180869 9.66622 
L 170.250228 10.015952 
L 170.318877 9.409544 
L 170.403296 9.918944 
L 170.472038 9.798167 
L 170.541612 9.735213 
L 170.776072 10.780313 
L 170.970227 9.854783 
L 171.176577 10.547858 
L 171.245727 10.420281 
L 171.314085 10.498729 
L 171.331166 11.094271 
L 171.386669 10.734565 
L 171.561432 10.600601 
L 171.674854 11.419012 
L 171.952554 10.736782 
L 172.037337 10.151688 
L 172.104454 10.247787 
L 172.173192 10.018368 
L 172.24152 10.35866 
L 172.533529 8.523734 
L 172.589413 8.891235 
L 172.654842 8.731566 
L 172.758027 8.773563 
L 173.0156 7.322271 
L 173.168807 7.902424 
L 173.392062 7.850727 
L 173.529616 7.145384 
L 173.672999 7.909218 
L 173.805519 7.512965 
L 173.908973 7.806426 
L 174.084915 8.936822 
L 174.289448 10.381844 
L 174.373389 10.530069 
L 174.511475 10.996932 
L 174.738136 10.267327 
L 174.804017 10.393573 
L 174.873276 10.276153 
L 175.242353 11.083543 
L 175.522225 10.032468 
L 175.577808 10.384292 
L 176.091264 9.07867 
L 176.210189 9.738117 
L 176.312977 9.776187 
L 176.363944 10.140513 
L 176.554551 9.025428 
L 176.591216 9.436829 
L 176.845613 11.279267 
L 176.948873 10.884299 
L 177.070735 9.591051 
L 177.154855 9.789728 
L 177.296449 9.962642 
L 177.44016 8.356825 
L 177.504352 8.420174 
L 177.620328 8.457414 
L 177.660109 7.882965 
L 177.723221 8.16754 
L 177.913153 9.41048 
L 177.947358 9.383188 
L 178.138646 10.185562 
L 178.281933 9.513482 
L 178.417588 10.04301 
L 178.494544 9.946846 
L 178.642307 10.293289 
L 178.845569 9.731439 
L 179.051012 9.996865 
L 179.120128 9.442586 
L 179.205694 9.498228 
L 179.327748 9.315015 
L 179.429759 8.630254 
L 179.484794 8.973476 
L 179.56637 8.307267 
L 179.635175 8.368739 
L 179.704355 8.505855 
L 179.773016 9.183262 
L 179.8424 8.946524 
L 179.97959 8.959263 
L 180.030512 8.682232 
L 180.245066 10.760882 
L 180.326874 11.183768 
L 180.383633 11.078651 
L 180.636634 10.337871 
L 180.68754 11.192133 
L 180.774083 10.97863 
L 180.859249 10.900468 
L 180.912619 9.645328 
L 180.979851 9.655275 
L 181.156214 9.589301 
L 181.220878 9.509762 
L 181.341983 9.759852 
L 181.565451 8.195679 
L 181.616768 8.422169 
L 181.84175 8.138072 
L 181.977325 8.653838 
L 182.046695 8.484612 
L 182.114392 8.458054 
L 182.326962 9.971959 
L 182.564756 10.461532 
L 182.616572 9.461971 
L 182.759397 9.235322 
L 183.042698 10.486742 
L 183.145398 9.97326 
L 183.300139 10.796741 
L 183.403638 12.153938 
L 183.490293 12.138641 
L 183.678687 10.284233 
L 183.764312 10.421243 
L 183.818501 9.993501 
L 183.884958 10.081758 
L 184.092569 10.601904 
L 184.321989 9.175848 
L 184.401149 8.966047 
L 184.488146 9.225578 
L 184.572802 9.917854 
L 184.607826 9.612866 
L 184.674948 8.843876 
L 184.743746 9.230222 
L 185.035869 11.2238 
L 185.104055 11.070662 
L 185.22682 11.10948 
L 185.311538 10.930747 
L 185.447769 11.541234 
L 185.741977 9.870736 
L 185.808867 10.676277 
L 185.879713 10.521123 
L 186.255838 9.264965 
L 186.375485 9.245988 
L 186.615427 8.485308 
L 186.670486 8.500695 
L 186.826645 7.522946 
L 186.978126 6.673481 
L 187.322776 9.285995 
L 187.374327 9.13896 
L 187.581465 10.261806 
L 187.656507 10.763858 
L 187.943757 9.348824 
L 188.011837 9.277867 
L 188.14991 9.648749 
L 188.235653 9.646722 
L 188.371797 8.803033 
L 188.440805 9.08641 
L 188.595168 9.998298 
L 188.646791 10.122566 
L 188.893909 9.499398 
L 189.144766 10.578483 
L 189.316217 9.006679 
L 189.419783 8.970357 
L 189.438665 9.288393 
L 189.504358 9.038042 
L 189.642269 9.785143 
L 189.797263 9.635933 
L 189.951426 10.951944 
L 190.025075 10.718421 
L 190.297511 11.584499 
L 190.572109 10.191232 
L 190.65298 9.977582 
L 190.726208 10.42444 
L 190.88287 9.320273 
L 190.937378 9.355205 
L 191.055004 9.151041 
L 191.140502 9.581126 
L 191.208426 10.496113 
L 191.328757 10.538538 
L 191.500094 9.08945 
L 191.569591 9.401009 
L 191.639853 9.296577 
L 191.707093 9.458491 
L 191.984363 7.736418 
L 192.069924 7.865133 
L 192.15329 7.868695 
L 192.290112 7.626923 
L 192.44564 8.228654 
L 192.518276 8.105413 
L 192.702831 8.953968 
L 192.805676 8.984085 
L 193.063936 10.486701 
L 193.149222 10.38176 
L 193.406586 11.80038 
L 193.561118 12.3416 
L 193.699057 11.916612 
L 194.094138 10.057067 
L 194.197754 8.787722 
L 194.369593 8.471795 
L 194.613792 7.449242 
L 194.954216 8.415288 
L 194.986991 8.242764 
L 195.056176 8.316716 
L 195.117606 8.236588 
L 195.476735 9.210384 
L 195.536352 9.288378 
L 195.611654 9.123998 
L 195.681862 9.64749 
L 195.760162 9.572582 
L 196.018358 10.167117 
L 196.034825 10.127047 
L 196.258615 9.474782 
L 196.568358 10.91311 
L 196.67338 10.700844 
L 196.756848 10.759325 
L 196.980884 11.400371 
L 197.117683 10.309973 
L 197.237846 10.159923 
L 197.392507 9.070958 
L 197.46208 8.957645 
L 197.530327 9.286985 
L 197.598743 9.198311 
L 197.667864 8.946678 
L 197.736182 8.994468 
L 198.029574 11.546311 
L 198.36002 10.715561 
L 198.390107 11.015034 
L 198.509246 10.907106 
L 198.613287 9.452537 
L 198.733274 8.978487 
L 198.887879 9.795268 
L 199.096649 8.886582 
L 199.300394 9.548861 
L 199.524519 8.089862 
L 199.594192 8.415609 
L 199.697384 8.655254 
L 199.799934 9.527697 
L 199.887576 9.19795 
L 200.027466 9.767366 
L 200.112224 10.330265 
L 200.163404 9.751744 
L 200.299236 9.759479 
L 200.379358 9.043509 
L 200.45574 8.438495 
L 200.50905 8.539681 
L 200.740352 9.136964 
L 200.804526 9.208753 
L 201.02913 11.149849 
L 201.080993 11.053414 
L 201.173583 11.482418 
L 201.235293 11.349867 
L 201.303655 11.043109 
L 201.371438 11.068261 
L 201.491758 11.211184 
L 201.560508 11.114791 
L 201.663586 10.132611 
L 201.732347 10.177444 
L 201.785361 10.498553 
L 202.232033 8.242094 
L 202.291517 8.603376 
L 202.560244 7.986901 
L 202.732426 9.531987 
L 202.938472 10.344293 
L 202.956002 11.991643 
L 203.008554 10.752952 
L 203.07725 10.668451 
L 203.148013 10.252461 
L 203.213658 10.439228 
L 203.436364 9.472313 
L 203.505972 9.558552 
L 203.646559 9.657461 
L 203.714669 9.553449 
L 203.989697 11.109207 
L 204.066514 11.276991 
L 204.074965 11.649857 
L 204.143798 11.562675 
L 204.212664 11.556311 
L 204.419462 10.606786 
L 204.575058 9.649535 
L 204.660594 9.949422 
L 204.729716 9.965167 
L 204.781606 10.196335 
L 204.866679 9.587953 
L 204.960686 9.728716 
L 204.973752 8.972133 
L 205.05894 10.272512 
L 205.199121 11.398681 
L 205.421829 10.650449 
L 205.491007 10.120863 
L 205.559749 10.473222 
L 205.992205 7.694321 
L 206.057252 7.792333 
L 206.629118 11.059865 
L 206.693992 10.605648 
L 206.762066 10.878141 
L 207.183566 8.746267 
L 207.260684 8.814494 
L 207.330408 9.110224 
L 207.402088 9.05285 
L 207.571333 8.360615 
L 207.72424 8.836985 
L 207.93179 7.665734 
L 208.035976 7.704174 
L 208.141775 7.631526 
L 208.20196 7.827545 
L 208.398141 6.481941 
L 208.622743 8.539771 
L 208.722656 8.417417 
L 208.896718 7.900274 
L 208.964465 8.814313 
L 209.034455 8.78026 
L 209.19307 8.72917 
L 209.267305 8.703591 
L 209.359406 8.286853 
L 209.547166 9.471359 
L 209.599145 9.620932 
L 209.683323 9.340221 
L 209.823543 9.491331 
L 209.83752 10.915223 
L 209.907544 9.176701 
L 210.028563 8.934838 
L 210.404426 6.998563 
L 211.105845 10.76157 
L 211.22989 10.936326 
L 211.384771 10.459888 
L 211.488618 10.525538 
L 211.524428 10.082376 
L 211.694523 11.256845 
L 211.782751 11.115318 
L 211.814537 11.288568 
L 212.094054 9.330569 
L 212.213718 9.473292 
L 212.23099 10.19793 
L 212.288482 8.957475 
L 212.402109 7.909011 
L 212.453754 8.270591 
L 212.522445 8.140964 
L 212.591875 7.587352 
L 212.952033 9.897151 
L 213.022531 9.863027 
L 213.096023 9.993046 
L 213.159223 9.520858 
L 213.312643 9.475087 
L 213.367099 10.332801 
L 213.452194 10.261266 
L 213.673325 9.064944 
L 213.829259 10.213724 
L 214.01914 10.464713 
L 214.095738 10.01931 
L 214.170259 10.505828 
L 214.234018 9.450968 
L 214.300553 9.243665 
L 214.421107 9.411719 
L 214.455358 8.752192 
L 214.523833 8.885583 
L 214.575885 9.530364 
L 214.87596 7.433721 
L 215.073462 8.99963 
L 215.165425 9.115591 
L 215.28187 8.617756 
L 215.296839 8.836642 
L 215.590886 12.44855 
L 215.643302 13.13206 
L 215.865468 11.632832 
L 215.934543 11.438969 
L 216.140622 9.828031 
L 216.226468 9.695406 
L 216.283318 10.538653 
L 216.298125 9.286004 
L 216.365056 8.457079 
L 216.432545 8.947037 
L 216.54616 9.145994 
L 216.665145 10.115169 
L 216.744096 9.948036 
L 216.833978 8.737411 
L 216.845967 9.910777 
L 216.865358 10.673647 
L 217.002396 10.126477 
L 217.070488 10.349767 
L 217.36255 9.544714 
L 217.429891 9.975875 
L 217.502718 9.698668 
L 217.653835 10.010272 
L 217.825867 10.375155 
L 217.859658 10.056389 
L 217.913242 10.56275 
L 217.982106 10.555889 
L 218.066234 10.814692 
L 218.15215 10.444676 
L 218.204108 11.168525 
L 218.2729 10.770221 
L 218.357815 11.179381 
L 218.461267 11.080991 
L 218.495437 10.836083 
L 218.759536 11.102013 
L 218.770845 11.027884 
L 218.910092 11.725446 
L 218.977253 10.400473 
L 219.13192 9.469746 
L 219.286007 10.356523 
L 219.341348 10.298607 
L 219.406202 10.536407 
L 219.49304 10.474474 
L 219.629171 9.714499 
L 219.669758 9.912748 
L 219.838735 11.174756 
L 219.906994 10.867377 
L 219.99072 10.127256 
L 220.059188 10.201368 
L 220.127252 10.200012 
L 220.26593 10.600291 
L 220.351449 11.520187 
L 220.404097 11.451448 
L 220.470734 11.235122 
L 221.042993 7.40406 
L 221.112425 7.775229 
L 221.25503 7.29334 
L 221.560861 9.823377 
L 221.612046 9.796671 
L 221.766433 10.203827 
L 221.834431 10.061008 
L 221.955149 10.736194 
L 222.215495 8.695792 
L 222.267031 8.310304 
L 222.316796 9.029051 
L 222.385246 8.357375 
L 222.45607 8.450896 
L 222.540108 8.744049 
L 222.608359 8.448588 
L 222.693775 9.957972 
L 222.769864 9.721808 
L 222.815438 9.539097 
L 222.886934 9.887093 
L 223.038917 8.580573 
L 223.124833 9.038723 
L 223.432762 7.424983 
L 223.51847 7.533636 
L 223.834131 10.617066 
L 224.037044 11.036764 
L 224.586642 8.47683 
L 224.723283 8.729164 
L 224.77521 7.703115 
L 224.809371 8.460355 
L 224.882912 8.791153 
L 224.958885 8.563628 
L 225.243085 10.608513 
L 225.377286 10.305652 
L 225.447026 11.11675 
L 225.531097 10.269251 
L 225.738256 11.734329 
L 225.806365 11.720719 
L 225.94644 9.825542 
L 226.035403 10.598212 
L 226.171138 10.405626 
L 226.186018 10.566119 
L 226.241305 11.558925 
L 226.293664 10.508057 
L 226.444535 10.48276 
L 226.534824 9.899816 
L 226.625861 10.365823 
L 226.676008 10.35597 
L 226.797273 9.791992 
L 226.865717 9.852293 
L 226.933383 9.094222 
L 227.088168 9.711135 
L 227.30031 8.982374 
L 227.431662 9.55614 
L 227.500328 9.40021 
L 227.603726 8.875007 
L 227.654641 8.927045 
L 227.776746 8.648834 
L 227.863232 9.138014 
L 227.950957 8.934535 
L 228.002233 9.850978 
L 228.120145 9.655417 
L 228.155811 8.98782 
L 228.429767 10.16632 
L 228.570181 9.232718 
L 228.665914 9.893781 
L 228.70741 9.430433 
L 228.86112 9.70717 
L 228.929002 9.442267 
L 228.996325 9.939635 
L 229.152238 9.360008 
L 229.220815 10.294013 
L 229.599288 8.165315 
L 229.708085 8.442996 
L 229.810148 8.59748 
L 229.856846 8.195976 
L 229.924936 8.248195 
L 230.13542 9.650313 
L 230.354913 10.961841 
L 230.441805 10.535906 
L 230.492588 10.227267 
L 230.560893 10.565685 
L 230.921209 8.913734 
L 230.989775 9.243814 
L 231.076316 9.135078 
L 231.127641 9.230013 
L 231.26522 9.978164 
L 231.350713 10.069524 
L 231.487368 10.872137 
L 231.556579 10.561685 
L 231.625571 10.860336 
L 231.711632 10.654457 
L 231.762843 10.991424 
L 231.888086 11.059242 
L 232.147101 9.910825 
L 232.415591 10.315173 
L 232.483559 8.973475 
L 232.553975 9.270242 
L 232.694405 8.486534 
L 232.777629 9.068655 
L 232.84851 9.026766 
L 232.934252 8.465978 
L 232.986806 8.615696 
L 233.071933 8.304345 
L 233.243975 8.993496 
L 233.295136 8.868441 
L 233.347853 8.907171 
L 233.432954 9.107611 
L 233.554572 7.864912 
L 233.707934 8.4342 
L 233.828817 7.282784 
L 233.967042 7.449189 
L 234.001324 7.173318 
L 234.052493 7.499088 
L 234.172819 7.593817 
L 234.379064 9.104077 
L 234.465148 10.152363 
L 234.539158 10.0238 
L 234.604863 10.422538 
L 234.688076 10.39084 
L 234.756834 10.657948 
L 234.825497 10.450845 
L 234.895607 10.763405 
L 234.964567 10.739798 
L 235.169329 10.076885 
L 235.270942 10.592259 
L 235.322073 9.645841 
L 235.39615 10.033901 
L 235.51119 9.606019 
L 235.545051 9.791482 
L 235.665573 9.653145 
L 235.768294 10.355378 
L 236.115093 9.111443 
L 236.187368 8.831713 
L 236.248882 8.894267 
L 236.369989 9.012193 
L 236.541018 7.9264 
L 236.816908 9.365921 
L 236.95451 9.612299 
L 237.142624 8.457067 
L 237.17741 8.640136 
L 237.245344 8.791622 
L 237.331743 8.46727 
L 237.418938 8.718553 
L 237.45191 8.662335 
L 237.773446 8.797388 
L 237.809066 8.115314 
L 237.88265 8.762895 
L 237.950444 9.238532 
L 238.025144 9.18242 
L 238.086087 8.338251 
L 238.172538 8.478769 
L 238.326698 8.899613 
L 238.395207 8.792024 
L 238.448351 8.965605 
L 238.550624 9.869513 
L 238.587333 9.678504 
L 238.721398 9.249662 
L 238.877193 10.386636 
L 238.944614 10.361841 
L 239.013951 10.316139 
L 239.083163 10.081243 
L 239.157322 10.236728 
L 239.2225 9.98148 
L 239.288612 10.590106 
L 239.376562 10.47143 
L 239.580162 8.930378 
L 239.650583 8.943266 
L 239.803299 8.664286 
L 239.873335 8.682365 
L 239.941403 8.831401 
L 240.009622 8.32879 
L 240.078525 8.350514 
L 240.146959 8.222765 
L 240.22225 8.274279 
L 240.438935 8.068387 
L 240.645696 9.060423 
L 240.92097 9.64178 
L 241.007355 9.448012 
L 241.074889 9.273955 
L 241.211994 9.843832 
L 241.359849 9.354338 
L 241.419049 9.390446 
L 241.504309 9.47729 
L 241.574515 10.176976 
L 241.643775 9.794138 
L 241.848195 10.949871 
L 241.986757 9.913804 
L 242.212304 9.539306 
L 242.281023 9.28896 
L 242.348063 9.788638 
L 242.436848 9.715204 
L 242.451149 9.709297 
L 242.624669 8.765769 
L 242.708315 9.037044 
L 242.795386 8.827725 
L 242.847286 8.975057 
L 243.026187 9.671879 
L 243.057011 9.525386 
L 243.277207 9.013755 
L 243.344913 9.311554 
L 243.413196 9.286439 
L 243.551875 9.445549 
L 243.567986 8.313148 
L 243.657763 9.326862 
L 243.744685 9.226839 
L 243.809654 8.924907 
L 243.843047 9.105804 
L 243.91172 9.017497 
L 244.199028 10.289503 
L 244.34052 9.859552 
L 244.426997 9.680254 
L 244.478528 9.95411 
L 244.666972 9.069056 
L 244.71976 8.976803 
L 244.78743 9.323644 
L 245.044703 8.794948 
L 245.114817 9.177203 
L 245.199395 8.84865 
L 245.33717 10.197057 
L 245.459866 10.282723 
L 245.553097 9.474393 
L 245.683453 8.196619 
L 245.766757 8.315381 
L 245.904503 8.255975 
L 245.96234 8.353793 
L 246.042863 7.549544 
L 246.164265 6.90259 
L 246.321602 7.711728 
L 246.404855 7.789286 
L 246.558501 6.94264 
L 246.678918 7.18984 
L 246.818137 7.860484 
L 246.920455 7.480207 
L 246.971078 8.1021 
L 247.039476 7.916154 
L 247.263323 8.592448 
L 247.332184 8.338801 
L 247.384247 8.643845 
L 247.469909 8.500901 
L 247.555933 8.922709 
L 247.607427 8.815242 
L 247.675933 8.644322 
L 247.899079 9.755166 
L 248.192442 9.380012 
L 248.26021 8.951004 
L 248.397236 9.05221 
L 248.465902 8.963745 
L 248.707246 7.82787 
L 249.102217 8.324356 
L 249.22222 8.58943 
L 249.376896 10.219913 
L 249.54822 9.77768 
L 249.618177 9.96579 
L 249.738206 10.451555 
L 249.88164 10.217779 
L 249.97159 10.21445 
L 250.053279 10.546643 
L 250.153011 9.890216 
L 250.171033 10.14951 
L 250.274238 10.497899 
L 250.307499 10.254603 
L 250.394029 10.267174 
L 250.585848 11.039172 
L 250.599128 11.414084 
L 250.66849 11.179982 
L 250.756771 10.679921 
L 250.944451 11.31002 
L 251.235648 10.386615 
L 251.449727 8.508772 
L 251.512798 8.55329 
L 251.648148 8.220409 
L 251.753234 8.426635 
L 251.872271 7.829496 
L 252.009826 7.482547 
L 252.025929 7.595505 
L 252.147547 8.755282 
L 252.215276 8.12699 
L 252.509216 9.194103 
L 252.864525 9.756458 
L 252.93271 10.547844 
L 253.002556 10.115803 
L 253.069881 9.887767 
L 253.138774 9.134686 
L 253.211543 9.221877 
L 253.361614 8.643748 
L 253.501667 8.933613 
L 253.636939 7.823045 
L 253.706457 8.105342 
L 253.77775 8.039944 
L 254.067779 8.749064 
L 254.205922 8.072837 
L 254.358377 9.127789 
L 254.564782 8.595358 
L 254.704298 9.129177 
L 254.777849 8.467066 
L 254.925168 8.679575 
L 254.996456 8.066197 
L 255.062704 8.108914 
L 255.200355 8.232255 
L 255.286636 9.122243 
L 255.355329 8.167957 
L 255.440813 8.211375 
L 255.665948 8.221134 
L 255.698945 8.656061 
L 255.770817 8.582227 
L 255.853042 8.634462 
L 255.936968 9.039415 
L 256.094075 8.539285 
L 256.282644 7.540785 
L 256.472913 9.211314 
L 256.695732 9.164592 
L 256.832881 9.666276 
L 257.031064 10.882367 
L 257.064599 10.643056 
L 257.219542 9.204826 
L 257.271235 9.370833 
L 257.339416 9.387433 
L 257.408384 9.150317 
L 257.633647 9.776315 
L 257.769677 9.378044 
L 257.923338 10.038266 
L 258.06171 9.414225 
L 258.198092 9.432901 
L 258.404141 8.060312 
L 258.507437 8.150167 
L 258.558971 7.57421 
L 258.64521 7.683758 
L 258.765678 8.316498 
L 259.408496 10.773391 
L 259.468954 10.445342 
L 259.545077 10.507389 
L 259.615086 10.646341 
L 259.825228 9.545343 
L 259.895332 10.008931 
L 259.975489 7.960135 
L 260.044814 8.283934 
L 260.182208 7.605905 
L 260.286696 7.330803 
L 260.693331 9.32076 
L 260.749675 10.097079 
L 260.818719 9.917029 
L 260.887129 10.150436 
L 261.042349 9.682886 
L 261.112086 10.051512 
L 261.404206 8.390566 
L 261.593678 7.2939 
L 261.714396 7.547341 
L 261.871121 6.87775 
L 262.229996 8.725178 
L 262.247114 8.372435 
L 262.411015 8.225838 
L 262.453308 8.658074 
L 262.52349 8.390029 
L 262.593143 8.140749 
L 262.815934 7.032222 
L 262.956012 8.473028 
L 263.26605 9.007817 
L 263.316829 8.817437 
L 263.521644 10.100481 
L 263.68579 9.146084 
L 263.754747 9.47881 
L 263.88582 8.833253 
L 263.953669 8.967105 
L 264.023674 9.484448 
L 264.092038 9.415528 
L 264.17573 9.217244 
L 264.295925 8.241272 
L 264.60614 9.797328 
L 264.796192 9.378711 
L 264.917543 9.526162 
L 264.950863 10.034185 
L 265.040493 9.892992 
L 265.224334 8.176121 
L 265.297135 8.519754 
L 265.37904 8.697987 
L 265.588313 8.125271 
L 265.637479 8.475396 
L 265.671664 8.222395 
L 265.860422 8.132813 
L 265.932797 8.403239 
L 266.067726 7.923904 
L 266.083958 8.679763 
L 266.153009 8.455449 
L 266.242299 8.329311 
L 266.291718 8.011326 
L 266.497049 9.011655 
L 266.600248 9.31381 
L 267.321503 6.72005 
L 267.390199 6.736713 
L 267.442695 6.531509 
L 267.529841 6.671794 
L 267.618818 7.535954 
L 267.688273 7.278786 
L 267.699888 7.29082 
L 267.802444 7.359695 
L 267.923371 8.465501 
L 268.016623 8.477009 
L 268.066027 8.730464 
L 268.133703 8.499637 
L 268.215631 8.275625 
L 268.30182 8.47649 
L 268.352672 8.320853 
L 268.576137 7.125886 
L 268.708646 6.718544 
L 268.716196 6.972985 
L 268.959934 8.268494 
L 268.990886 8.173244 
L 269.057666 7.938224 
L 269.265711 8.971177 
L 269.351498 8.694464 
L 269.627041 9.230405 
L 269.694282 9.136949 
L 269.850534 10.423606 
L 269.984895 10.470923 
L 270.053905 10.216831 
L 270.157462 10.728155 
L 270.34575 9.66824 
L 270.431759 9.682102 
L 270.483602 9.189536 
L 270.55447 9.662043 
L 270.688948 9.604448 
L 270.77535 10.097909 
L 270.860989 9.834534 
L 270.914605 10.016998 
L 271.055285 10.061326 
L 271.144597 10.186963 
L 271.228142 10.041118 
L 271.41762 9.192126 
L 271.658657 8.116273 
L 271.69342 8.351363 
L 271.883161 7.63719 
L 271.933493 7.74766 
L 272.05525 8.236707 
L 272.162518 8.517165 
L 272.242717 8.113104 
L 272.260151 8.720928 
L 272.355439 8.390672 
L 272.414607 8.063376 
L 272.56899 9.032934 
L 272.725146 8.103454 
L 273.003615 7.039541 
L 273.106882 7.977992 
L 273.253626 7.160103 
L 273.313137 7.259185 
L 273.479693 8.705811 
L 273.609266 8.461238 
L 273.711021 8.782685 
L 273.780953 8.441736 
L 273.847191 8.643735 
L 273.847322 9.044294 
L 273.905216 8.912128 
L 274.192559 7.736445 
L 274.329109 8.875136 
L 274.538238 7.584377 
L 274.65596 7.639291 
L 274.691029 8.039521 
L 274.87978 8.00369 
L 274.989057 8.693357 
L 275.034139 8.34369 
L 275.119261 8.510907 
L 275.207315 8.563348 
L 275.251545 8.987257 
L 275.360941 8.759602 
L 275.394473 8.352682 
L 275.445593 8.477359 
L 275.532676 9.095187 
L 275.669037 8.177111 
L 275.738094 8.554316 
L 275.807764 8.419042 
L 275.960475 8.140676 
L 276.098922 8.947996 
L 276.190755 9.051347 
L 276.264675 8.813019 
L 276.271037 8.860674 
L 276.37864 9.412748 
L 276.460299 8.95987 
L 276.667541 9.611727 
L 277.060983 8.436986 
L 277.114562 8.539788 
L 277.182824 9.235854 
L 277.232324 9.08565 
L 277.510034 9.779235 
L 277.684641 9.370496 
L 277.805435 10.05725 
L 277.880965 9.844821 
L 277.93797 10.033701 
L 278.0132 9.958762 
L 278.109764 9.875305 
L 278.29824 10.417203 
L 278.401561 10.229331 
L 278.47513 10.493522 
L 278.504426 10.276868 
L 279.036623 7.615973 
L 279.088712 8.179283 
L 279.173624 7.977349 
L 279.259888 7.736869 
L 279.431449 9.226448 
L 279.500815 9.114995 
L 279.999123 9.955896 
L 280.069966 9.578718 
L 280.345208 10.19281 
L 280.483547 10.031786 
L 280.553833 9.362287 
L 280.583358 9.373148 
L 280.695598 9.263115 
L 280.722419 8.714223 
L 280.773679 8.718624 
L 280.94433 8.59415 
L 281.168545 9.241507 
L 281.202365 9.027994 
L 281.288402 9.110955 
L 281.340245 9.027175 
L 281.426571 9.340284 
L 281.599517 9.246367 
L 281.635874 9.504071 
L 281.855699 7.96484 
L 281.943468 8.263357 
L 282.064622 7.749436 
L 282.130616 7.88046 
L 282.268954 8.441844 
L 282.337312 8.137261 
L 282.439894 8.407469 
L 282.491162 8.261041 
L 282.578791 8.32216 
L 282.714721 7.897273 
L 282.768457 7.812171 
L 282.836201 8.066052 
L 282.925118 8.027289 
L 283.025332 7.991202 
L 283.160969 7.821343 
L 283.417333 8.737296 
L 283.505093 8.924597 
L 283.83382 6.983042 
L 283.906883 6.52668 
L 284.054763 7.08643 
L 284.124501 6.472215 
L 284.201114 6.761893 
L 284.41479 7.309331 
L 284.55272 8.10075 
L 284.638201 8.730161 
L 284.75988 8.216077 
L 284.827444 8.454895 
L 284.89619 8.337148 
L 285.120396 7.844758 
L 285.274791 8.245656 
L 285.325959 8.170376 
L 285.411559 7.837515 
L 285.544993 8.691041 
L 285.832365 9.087114 
L 285.973613 8.421661 
L 286.03978 8.103492 
L 286.143024 8.564547 
L 286.195915 8.347384 
L 286.32357 8.006507 
L 286.419836 8.063459 
L 286.539899 8.198418 
L 286.712206 7.88527 
L 286.884354 9.085794 
L 287.023225 8.584518 
L 287.178839 9.02843 
L 287.313178 8.852136 
L 287.382031 9.071147 
L 287.742649 8.115228 
L 287.813821 7.542235 
L 287.88311 7.608749 
L 288.036088 8.553556 
L 288.104468 8.32319 
L 288.311 8.820638 
L 288.381793 8.536716 
L 288.396085 9.296208 
L 288.447538 9.106546 
L 288.586915 9.765283 
L 288.743708 9.433892 
L 288.904024 9.628095 
L 288.947283 8.688494 
L 289.040826 8.705996 
L 289.103123 8.804516 
L 289.583688 7.664889 
L 289.653795 8.116817 
L 289.727811 7.990148 
L 289.791545 7.947983 
L 289.94557 8.304472 
L 290.013737 8.079167 
L 290.099766 9.373061 
L 290.221115 8.966345 
L 290.444342 9.313187 
L 290.513007 9.093513 
L 290.599046 9.248739 
L 290.666932 8.608213 
L 290.718727 8.879019 
L 290.942078 8.610304 
L 290.994549 9.00498 
L 291.080081 8.791115 
L 291.388042 10.128597 
L 291.460852 9.864484 
L 291.646378 9.922006 
L 291.869262 8.923547 
L 291.923773 9.007805 
L 292.009688 8.876846 
L 292.092981 8.020562 
L 292.145462 8.459918 
L 292.231645 8.051661 
L 292.348972 8.415119 
L 292.420492 8.12536 
L 292.642733 9.04963 
L 292.712147 9.026433 
L 292.830599 9.634129 
L 292.865613 9.561346 
L 292.950735 9.535877 
L 293.05483 9.755312 
L 293.168504 9.795055 
L 293.209179 8.796776 
L 293.302361 8.829254 
L 293.382067 8.52104 
L 293.451501 8.565905 
L 293.587975 9.361507 
L 293.693414 9.31404 
L 293.776028 9.025078 
L 293.884134 9.667315 
L 293.93037 10.563368 
L 293.999597 10.18637 
L 294.072143 10.586067 
L 294.137227 10.33009 
L 294.298984 9.183126 
L 294.312163 9.660441 
L 294.483888 9.508546 
L 294.876757 9.336987 
L 294.931963 9.152078 
L 295.030015 9.320579 
L 295.069792 8.990202 
L 295.142316 9.456966 
L 295.339193 8.487402 
L 295.408891 9.505826 
L 295.564076 9.165854 
L 295.63331 9.381831 
L 295.666162 9.859228 
L 295.7354 9.339543 
L 295.786323 9.541492 
L 295.844048 8.937096 
L 295.907577 9.238333 
L 295.975669 9.595598 
L 295.991814 9.254605 
L 296.062807 9.209925 
L 296.183376 8.002001 
L 296.269288 8.183899 
L 296.338486 8.000219 
L 296.404142 8.203216 
L 296.476154 8.039229 
L 296.627377 8.560568 
L 296.683947 8.592564 
L 296.922549 9.413147 
L 297.074936 8.53283 
L 297.212479 9.001115 
L 297.392565 8.569388 
L 297.561685 8.191983 
L 297.790249 8.642197 
L 297.827138 8.613579 
L 297.95337 8.662717 
L 297.985978 9.075239 
L 298.056032 8.823877 
L 298.192332 8.213846 
L 298.295442 8.103756 
L 298.536975 9.071562 
L 298.608768 8.607013 
L 298.79848 8.906713 
L 298.965701 7.948363 
L 299.085524 7.795887 
L 299.242568 6.573915 
L 299.32726 6.907662 
L 299.412094 6.524202 
L 299.464178 6.59311 
L 299.687386 8.868125 
L 299.756856 9.035045 
L 299.876851 8.662841 
L 300.186082 10.070479 
L 300.239042 9.909296 
L 300.324648 10.601836 
L 300.376654 10.310333 
L 300.444692 10.170021 
L 300.531152 10.275746 
L 300.632727 10.159277 
L 300.753101 11.154732 
L 300.926224 11.026003 
L 300.979188 10.56364 
L 301.169385 7.325217 
L 301.309322 7.674635 
L 301.604474 5.853333 
L 301.682998 6.166781 
L 301.950417 7.821347 
L 302.01461 7.796539 
L 302.115189 8.287834 
L 302.168756 8.0711 
L 302.236639 7.284024 
L 302.306121 7.536138 
L 302.444626 8.442 
L 302.460205 9.388449 
L 302.563864 9.04331 
L 302.610373 8.999041 
L 302.649246 9.110014 
L 302.723725 9.108857 
L 302.87194 9.493227 
L 303.009854 10.494124 
L 303.379119 9.108758 
L 303.526487 8.716353 
L 303.808548 9.612525 
L 303.964843 8.760161 
L 304.017933 8.888744 
L 304.154195 9.365693 
L 304.246024 9.268815 
L 304.359628 9.652246 
L 304.445129 9.507807 
L 304.582758 8.660955 
L 304.789169 9.471999 
L 304.961324 8.969505 
L 305.133905 7.881193 
L 305.28636 8.575599 
L 305.39627 8.538529 
L 305.52874 7.876504 
L 305.582363 8.169267 
L 305.648313 8.113996 
L 305.820781 8.203235 
L 305.882756 8.107528 
L 306.082177 9.062254 
L 306.302348 8.009286 
L 306.372022 8.246085 
L 306.49143 8.19651 
L 306.749244 9.137166 
L 306.783285 8.767463 
L 306.877653 9.535723 
L 306.924264 9.388281 
L 307.059904 9.264895 
L 307.113658 9.75658 
L 307.180706 9.622089 
L 307.611295 7.015669 
L 307.678632 7.096404 
L 307.752877 8.339303 
L 307.78196 8.255068 
L 307.936547 8.026395 
L 308.023104 7.721403 
L 308.194286 8.572011 
L 308.319299 8.553078 
L 308.430586 8.200761 
L 308.509257 8.340167 
L 308.658993 8.305401 
L 308.917712 9.772849 
L 309.053716 9.738064 
L 309.123125 7.626615 
L 309.123125 7.626615 
" clip-path="url(#p6927a074f8)" style="fill: none; stroke: #ff0000; stroke-opacity: 0.5; stroke-width: 3; stroke-linecap: square"/>
   </g>
   <g id="patch_3">
    <path d="M 30.123125 139.32 
L 30.123125 0.72 
" style="fill: none; stroke: #000000; stroke-width: 0.8; stroke-linejoin: miter; stroke-linecap: square"/>
   </g>
   <g id="patch_4">
    <path d="M 309.123125 139.32 
L 309.123125 0.72 
" style="fill: none; stroke: #000000; stroke-width: 0.8; stroke-linejoin: miter; stroke-linecap: square"/>
   </g>
   <g id="patch_5">
    <path d="M 30.123125 139.32 
L 309.123125 139.32 
" style="fill: none; stroke: #000000; stroke-width: 0.8; stroke-linejoin: miter; stroke-linecap: square"/>
   </g>
   <g id="patch_6">
    <path d="M 30.123125 0.72 
L 309.123125 0.72 
" style="fill: none; stroke: #000000; stroke-width: 0.8; stroke-linejoin: miter; stroke-linecap: square"/>
   </g>
   <g id="legend_1">
    <g id="patch_7">
     <path d="M 228.354375 86.198125 
L 302.123125 86.198125 
Q 304.123125 86.198125 304.123125 84.198125 
L 304.123125 55.841875 
Q 304.123125 53.841875 302.123125 53.841875 
L 228.354375 53.841875 
Q 226.354375 53.841875 226.354375 55.841875 
L 226.354375 84.198125 
Q 226.354375 86.198125 228.354375 86.198125 
z
" style="fill: #ffffff; opacity: 0.8; stroke: #cccccc; stroke-linejoin: miter"/>
    </g>
    <g id="line2d_23">
     <path d="M 230.354375 61.940313 
L 240.354375 61.940313 
L 250.354375 61.940313 
" style="fill: none; stroke: #0000ff; stroke-opacity: 0.5; stroke-width: 3; stroke-linecap: square"/>
    </g>
    <g id="text_13">
     <!-- RNEA -->
     <g transform="translate(258.354375 65.440313) scale(0.1 -0.1)">
      <defs>
       <path id="DejaVuSans-52" d="M 2841 2188 
Q 3044 2119 3236 1894 
Q 3428 1669 3622 1275 
L 4263 0 
L 3584 0 
L 2988 1197 
Q 2756 1666 2539 1819 
Q 2322 1972 1947 1972 
L 1259 1972 
L 1259 0 
L 628 0 
L 628 4666 
L 2053 4666 
Q 2853 4666 3247 4331 
Q 3641 3997 3641 3322 
Q 3641 2881 3436 2590 
Q 3231 2300 2841 2188 
z
M 1259 4147 
L 1259 2491 
L 2053 2491 
Q 2509 2491 2742 2702 
Q 2975 2913 2975 3322 
Q 2975 3731 2742 3939 
Q 2509 4147 2053 4147 
L 1259 4147 
z
" transform="scale(0.015625)"/>
       <path id="DejaVuSans-45" d="M 628 4666 
L 3578 4666 
L 3578 4134 
L 1259 4134 
L 1259 2753 
L 3481 2753 
L 3481 2222 
L 1259 2222 
L 1259 531 
L 3634 531 
L 3634 0 
L 628 0 
L 628 4666 
z
" transform="scale(0.015625)"/>
       <path id="DejaVuSans-41" d="M 2188 4044 
L 1331 1722 
L 3047 1722 
L 2188 4044 
z
M 1831 4666 
L 2547 4666 
L 4325 0 
L 3669 0 
L 3244 1197 
L 1141 1197 
L 716 0 
L 50 0 
L 1831 4666 
z
" transform="scale(0.015625)"/>
      </defs>
      <use xlink:href="#DejaVuSans-52"/>
      <use xlink:href="#DejaVuSans-4e" x="69.482422"/>
      <use xlink:href="#DejaVuSans-45" x="144.287109"/>
      <use xlink:href="#DejaVuSans-41" x="207.470703"/>
     </g>
    </g>
    <g id="line2d_24">
     <path d="M 230.354375 76.618438 
L 240.354375 76.618438 
L 250.354375 76.618438 
" style="fill: none; stroke: #ff0000; stroke-opacity: 0.5; stroke-width: 3; stroke-linecap: square"/>
    </g>
    <g id="text_14">
     <!-- BURNEA -->
     <g transform="translate(258.354375 80.118438) scale(0.1 -0.1)">
      <defs>
       <path id="DejaVuSans-42" d="M 1259 2228 
L 1259 519 
L 2272 519 
Q 2781 519 3026 730 
Q 3272 941 3272 1375 
Q 3272 1813 3026 2020 
Q 2781 2228 2272 2228 
L 1259 2228 
z
M 1259 4147 
L 1259 2741 
L 2194 2741 
Q 2656 2741 2882 2914 
Q 3109 3088 3109 3444 
Q 3109 3797 2882 3972 
Q 2656 4147 2194 4147 
L 1259 4147 
z
M 628 4666 
L 2241 4666 
Q 2963 4666 3353 4366 
Q 3744 4066 3744 3513 
Q 3744 3084 3544 2831 
Q 3344 2578 2956 2516 
Q 3422 2416 3680 2098 
Q 3938 1781 3938 1306 
Q 3938 681 3513 340 
Q 3088 0 2303 0 
L 628 0 
L 628 4666 
z
" transform="scale(0.015625)"/>
       <path id="DejaVuSans-55" d="M 556 4666 
L 1191 4666 
L 1191 1831 
Q 1191 1081 1462 751 
Q 1734 422 2344 422 
Q 2950 422 3222 751 
Q 3494 1081 3494 1831 
L 3494 4666 
L 4128 4666 
L 4128 1753 
Q 4128 841 3676 375 
Q 3225 -91 2344 -91 
Q 1459 -91 1007 375 
Q 556 841 556 1753 
L 556 4666 
z
" transform="scale(0.015625)"/>
      </defs>
      <use xlink:href="#DejaVuSans-42"/>
      <use xlink:href="#DejaVuSans-55" x="68.603516"/>
      <use xlink:href="#DejaVuSans-52" x="141.796875"/>
      <use xlink:href="#DejaVuSans-4e" x="211.279297"/>
      <use xlink:href="#DejaVuSans-45" x="286.083984"/>
      <use xlink:href="#DejaVuSans-41" x="349.267578"/>
     </g>
    </g>
   </g>
  </g>
 </g>
 <defs>
  <clipPath id="p6927a074f8">
   <rect x="30.123125" y="0.72" width="279" height="138.6"/>
  </clipPath>
 </defs>
</svg>
