<?xml version="1.0" encoding="utf-8" standalone="no"?>
<!DOCTYPE svg PUBLIC "-//W3C//DTD SVG 1.1//EN"
  "http://www.w3.org/Graphics/SVG/1.1/DTD/svg11.dtd">
<svg xmlns:xlink="http://www.w3.org/1999/xlink" width="355.43952pt" height="175.43952pt" viewBox="0 0 355.43952 175.43952" xmlns="http://www.w3.org/2000/svg" version="1.1">
 <metadata>
  <rdf:RDF xmlns:dc="http://purl.org/dc/elements/1.1/" xmlns:cc="http://creativecommons.org/ns#" xmlns:rdf="http://www.w3.org/1999/02/22-rdf-syntax-ns#">
   <cc:Work>
    <dc:type rdf:resource="http://purl.org/dc/dcmitype/StillImage"/>
    <dc:date>2023-09-09T18:29:36.702133</dc:date>
    <dc:format>image/svg+xml</dc:format>
    <dc:creator>
     <cc:Agent>
      <dc:title>Matplotlib v3.7.2, https://matplotlib.org/</dc:title>
     </cc:Agent>
    </dc:creator>
   </cc:Work>
  </rdf:RDF>
 </metadata>
 <defs>
  <style type="text/css">*{stroke-linejoin: round; stroke-linecap: butt}</style>
 </defs>
 <g id="figure_1">
  <g id="patch_1">
   <path d="M 0 175.43952 
L 355.43952 175.43952 
L 355.43952 0 
L 0 0 
L 0 175.43952 
z
" style="fill: none"/>
  </g>
  <g id="axes_1">
   <g id="patch_2">
    <path d="M 23.760625 148.36327 
L 354.71952 148.36327 
L 354.71952 0.72 
L 23.760625 0.72 
L 23.760625 148.36327 
z
" style="fill: none"/>
   </g>
   <g id="matplotlib.axis_1">
    <g id="xtick_1">
     <g id="line2d_1">
      <path d="M 23.760625 148.36327 
L 23.760625 0.72 
" clip-path="url(#p99f925a9aa)" style="fill: none; stroke-dasharray: 0.8,1.32; stroke-dashoffset: 0; stroke: #000000; stroke-opacity: 0.5; stroke-width: 0.8"/>
     </g>
     <g id="line2d_2">
      <defs>
       <path id="ma9bbd1f9c2" d="M 0 0 
L 0 3.5 
" style="stroke: #000000; stroke-width: 0.8"/>
      </defs>
      <g>
       <use xlink:href="#ma9bbd1f9c2" x="23.760625" y="148.36327" style="stroke: #000000; stroke-width: 0.8"/>
      </g>
     </g>
     <g id="text_1">
      <!-- 0 -->
      <g transform="translate(20.579375 162.961707) scale(0.1 -0.1)">
       <defs>
        <path id="DejaVuSans-30" d="M 2034 4250 
Q 1547 4250 1301 3770 
Q 1056 3291 1056 2328 
Q 1056 1369 1301 889 
Q 1547 409 2034 409 
Q 2525 409 2770 889 
Q 3016 1369 3016 2328 
Q 3016 3291 2770 3770 
Q 2525 4250 2034 4250 
z
M 2034 4750 
Q 2819 4750 3233 4129 
Q 3647 3509 3647 2328 
Q 3647 1150 3233 529 
Q 2819 -91 2034 -91 
Q 1250 -91 836 529 
Q 422 1150 422 2328 
Q 422 3509 836 4129 
Q 1250 4750 2034 4750 
z
" transform="scale(0.015625)"/>
       </defs>
       <use xlink:href="#DejaVuSans-30"/>
      </g>
     </g>
    </g>
    <g id="xtick_2">
     <g id="line2d_3">
      <path d="M 74.311809 148.36327 
L 74.311809 0.72 
" clip-path="url(#p99f925a9aa)" style="fill: none; stroke-dasharray: 0.8,1.32; stroke-dashoffset: 0; stroke: #000000; stroke-opacity: 0.5; stroke-width: 0.8"/>
     </g>
     <g id="line2d_4">
      <g>
       <use xlink:href="#ma9bbd1f9c2" x="74.311809" y="148.36327" style="stroke: #000000; stroke-width: 0.8"/>
      </g>
     </g>
     <g id="text_2">
      <!-- 5 -->
      <g transform="translate(71.130559 162.961707) scale(0.1 -0.1)">
       <defs>
        <path id="DejaVuSans-35" d="M 691 4666 
L 3169 4666 
L 3169 4134 
L 1269 4134 
L 1269 2991 
Q 1406 3038 1543 3061 
Q 1681 3084 1819 3084 
Q 2600 3084 3056 2656 
Q 3513 2228 3513 1497 
Q 3513 744 3044 326 
Q 2575 -91 1722 -91 
Q 1428 -91 1123 -41 
Q 819 9 494 109 
L 494 744 
Q 775 591 1075 516 
Q 1375 441 1709 441 
Q 2250 441 2565 725 
Q 2881 1009 2881 1497 
Q 2881 1984 2565 2268 
Q 2250 2553 1709 2553 
Q 1456 2553 1204 2497 
Q 953 2441 691 2322 
L 691 4666 
z
" transform="scale(0.015625)"/>
       </defs>
       <use xlink:href="#DejaVuSans-35"/>
      </g>
     </g>
    </g>
    <g id="xtick_3">
     <g id="line2d_5">
      <path d="M 124.862993 148.36327 
L 124.862993 0.72 
" clip-path="url(#p99f925a9aa)" style="fill: none; stroke-dasharray: 0.8,1.32; stroke-dashoffset: 0; stroke: #000000; stroke-opacity: 0.5; stroke-width: 0.8"/>
     </g>
     <g id="line2d_6">
      <g>
       <use xlink:href="#ma9bbd1f9c2" x="124.862993" y="148.36327" style="stroke: #000000; stroke-width: 0.8"/>
      </g>
     </g>
     <g id="text_3">
      <!-- 10 -->
      <g transform="translate(118.500493 162.961707) scale(0.1 -0.1)">
       <defs>
        <path id="DejaVuSans-31" d="M 794 531 
L 1825 531 
L 1825 4091 
L 703 3866 
L 703 4441 
L 1819 4666 
L 2450 4666 
L 2450 531 
L 3481 531 
L 3481 0 
L 794 0 
L 794 531 
z
" transform="scale(0.015625)"/>
       </defs>
       <use xlink:href="#DejaVuSans-31"/>
       <use xlink:href="#DejaVuSans-30" x="63.623047"/>
      </g>
     </g>
    </g>
    <g id="xtick_4">
     <g id="line2d_7">
      <path d="M 175.414178 148.36327 
L 175.414178 0.72 
" clip-path="url(#p99f925a9aa)" style="fill: none; stroke-dasharray: 0.8,1.32; stroke-dashoffset: 0; stroke: #000000; stroke-opacity: 0.5; stroke-width: 0.8"/>
     </g>
     <g id="line2d_8">
      <g>
       <use xlink:href="#ma9bbd1f9c2" x="175.414178" y="148.36327" style="stroke: #000000; stroke-width: 0.8"/>
      </g>
     </g>
     <g id="text_4">
      <!-- 15 -->
      <g transform="translate(169.051678 162.961707) scale(0.1 -0.1)">
       <use xlink:href="#DejaVuSans-31"/>
       <use xlink:href="#DejaVuSans-35" x="63.623047"/>
      </g>
     </g>
    </g>
    <g id="xtick_5">
     <g id="line2d_9">
      <path d="M 225.965362 148.36327 
L 225.965362 0.72 
" clip-path="url(#p99f925a9aa)" style="fill: none; stroke-dasharray: 0.8,1.32; stroke-dashoffset: 0; stroke: #000000; stroke-opacity: 0.5; stroke-width: 0.8"/>
     </g>
     <g id="line2d_10">
      <g>
       <use xlink:href="#ma9bbd1f9c2" x="225.965362" y="148.36327" style="stroke: #000000; stroke-width: 0.8"/>
      </g>
     </g>
     <g id="text_5">
      <!-- 20 -->
      <g transform="translate(219.602862 162.961707) scale(0.1 -0.1)">
       <defs>
        <path id="DejaVuSans-32" d="M 1228 531 
L 3431 531 
L 3431 0 
L 469 0 
L 469 531 
Q 828 903 1448 1529 
Q 2069 2156 2228 2338 
Q 2531 2678 2651 2914 
Q 2772 3150 2772 3378 
Q 2772 3750 2511 3984 
Q 2250 4219 1831 4219 
Q 1534 4219 1204 4116 
Q 875 4013 500 3803 
L 500 4441 
Q 881 4594 1212 4672 
Q 1544 4750 1819 4750 
Q 2544 4750 2975 4387 
Q 3406 4025 3406 3419 
Q 3406 3131 3298 2873 
Q 3191 2616 2906 2266 
Q 2828 2175 2409 1742 
Q 1991 1309 1228 531 
z
" transform="scale(0.015625)"/>
       </defs>
       <use xlink:href="#DejaVuSans-32"/>
       <use xlink:href="#DejaVuSans-30" x="63.623047"/>
      </g>
     </g>
    </g>
    <g id="xtick_6">
     <g id="line2d_11">
      <path d="M 276.516546 148.36327 
L 276.516546 0.72 
" clip-path="url(#p99f925a9aa)" style="fill: none; stroke-dasharray: 0.8,1.32; stroke-dashoffset: 0; stroke: #000000; stroke-opacity: 0.5; stroke-width: 0.8"/>
     </g>
     <g id="line2d_12">
      <g>
       <use xlink:href="#ma9bbd1f9c2" x="276.516546" y="148.36327" style="stroke: #000000; stroke-width: 0.8"/>
      </g>
     </g>
     <g id="text_6">
      <!-- 25 -->
      <g transform="translate(270.154046 162.961707) scale(0.1 -0.1)">
       <use xlink:href="#DejaVuSans-32"/>
       <use xlink:href="#DejaVuSans-35" x="63.623047"/>
      </g>
     </g>
    </g>
    <g id="xtick_7">
     <g id="line2d_13">
      <path d="M 327.06773 148.36327 
L 327.06773 0.72 
" clip-path="url(#p99f925a9aa)" style="fill: none; stroke-dasharray: 0.8,1.32; stroke-dashoffset: 0; stroke: #000000; stroke-opacity: 0.5; stroke-width: 0.8"/>
     </g>
     <g id="line2d_14">
      <g>
       <use xlink:href="#ma9bbd1f9c2" x="327.06773" y="148.36327" style="stroke: #000000; stroke-width: 0.8"/>
      </g>
     </g>
     <g id="text_7">
      <!-- 30 -->
      <g transform="translate(320.70523 162.961707) scale(0.1 -0.1)">
       <defs>
        <path id="DejaVuSans-33" d="M 2597 2516 
Q 3050 2419 3304 2112 
Q 3559 1806 3559 1356 
Q 3559 666 3084 287 
Q 2609 -91 1734 -91 
Q 1441 -91 1130 -33 
Q 819 25 488 141 
L 488 750 
Q 750 597 1062 519 
Q 1375 441 1716 441 
Q 2309 441 2620 675 
Q 2931 909 2931 1356 
Q 2931 1769 2642 2001 
Q 2353 2234 1838 2234 
L 1294 2234 
L 1294 2753 
L 1863 2753 
Q 2328 2753 2575 2939 
Q 2822 3125 2822 3475 
Q 2822 3834 2567 4026 
Q 2313 4219 1838 4219 
Q 1578 4219 1281 4162 
Q 984 4106 628 3988 
L 628 4550 
Q 988 4650 1302 4700 
Q 1616 4750 1894 4750 
Q 2613 4750 3031 4423 
Q 3450 4097 3450 3541 
Q 3450 3153 3228 2886 
Q 3006 2619 2597 2516 
z
" transform="scale(0.015625)"/>
       </defs>
       <use xlink:href="#DejaVuSans-33"/>
       <use xlink:href="#DejaVuSans-30" x="63.623047"/>
      </g>
     </g>
    </g>
    <g id="text_8">
     <!-- Zeit [s] -->
     <g transform="translate(171.293979 172.639832) scale(0.1 -0.1)">
      <defs>
       <path id="DejaVuSans-5a" d="M 359 4666 
L 4025 4666 
L 4025 4184 
L 1075 531 
L 4097 531 
L 4097 0 
L 288 0 
L 288 481 
L 3238 4134 
L 359 4134 
L 359 4666 
z
" transform="scale(0.015625)"/>
       <path id="DejaVuSans-65" d="M 3597 1894 
L 3597 1613 
L 953 1613 
Q 991 1019 1311 708 
Q 1631 397 2203 397 
Q 2534 397 2845 478 
Q 3156 559 3463 722 
L 3463 178 
Q 3153 47 2828 -22 
Q 2503 -91 2169 -91 
Q 1331 -91 842 396 
Q 353 884 353 1716 
Q 353 2575 817 3079 
Q 1281 3584 2069 3584 
Q 2775 3584 3186 3129 
Q 3597 2675 3597 1894 
z
M 3022 2063 
Q 3016 2534 2758 2815 
Q 2500 3097 2075 3097 
Q 1594 3097 1305 2825 
Q 1016 2553 972 2059 
L 3022 2063 
z
" transform="scale(0.015625)"/>
       <path id="DejaVuSans-69" d="M 603 3500 
L 1178 3500 
L 1178 0 
L 603 0 
L 603 3500 
z
M 603 4863 
L 1178 4863 
L 1178 4134 
L 603 4134 
L 603 4863 
z
" transform="scale(0.015625)"/>
       <path id="DejaVuSans-74" d="M 1172 4494 
L 1172 3500 
L 2356 3500 
L 2356 3053 
L 1172 3053 
L 1172 1153 
Q 1172 725 1289 603 
Q 1406 481 1766 481 
L 2356 481 
L 2356 0 
L 1766 0 
Q 1100 0 847 248 
Q 594 497 594 1153 
L 594 3053 
L 172 3053 
L 172 3500 
L 594 3500 
L 594 4494 
L 1172 4494 
z
" transform="scale(0.015625)"/>
       <path id="DejaVuSans-20" transform="scale(0.015625)"/>
       <path id="DejaVuSans-5b" d="M 550 4863 
L 1875 4863 
L 1875 4416 
L 1125 4416 
L 1125 -397 
L 1875 -397 
L 1875 -844 
L 550 -844 
L 550 4863 
z
" transform="scale(0.015625)"/>
       <path id="DejaVuSans-73" d="M 2834 3397 
L 2834 2853 
Q 2591 2978 2328 3040 
Q 2066 3103 1784 3103 
Q 1356 3103 1142 2972 
Q 928 2841 928 2578 
Q 928 2378 1081 2264 
Q 1234 2150 1697 2047 
L 1894 2003 
Q 2506 1872 2764 1633 
Q 3022 1394 3022 966 
Q 3022 478 2636 193 
Q 2250 -91 1575 -91 
Q 1294 -91 989 -36 
Q 684 19 347 128 
L 347 722 
Q 666 556 975 473 
Q 1284 391 1588 391 
Q 1994 391 2212 530 
Q 2431 669 2431 922 
Q 2431 1156 2273 1281 
Q 2116 1406 1581 1522 
L 1381 1569 
Q 847 1681 609 1914 
Q 372 2147 372 2553 
Q 372 3047 722 3315 
Q 1072 3584 1716 3584 
Q 2034 3584 2315 3537 
Q 2597 3491 2834 3397 
z
" transform="scale(0.015625)"/>
       <path id="DejaVuSans-5d" d="M 1947 4863 
L 1947 -844 
L 622 -844 
L 622 -397 
L 1369 -397 
L 1369 4416 
L 622 4416 
L 622 4863 
L 1947 4863 
z
" transform="scale(0.015625)"/>
      </defs>
      <use xlink:href="#DejaVuSans-5a"/>
      <use xlink:href="#DejaVuSans-65" x="68.505859"/>
      <use xlink:href="#DejaVuSans-69" x="130.029297"/>
      <use xlink:href="#DejaVuSans-74" x="157.8125"/>
      <use xlink:href="#DejaVuSans-20" x="197.021484"/>
      <use xlink:href="#DejaVuSans-5b" x="228.808594"/>
      <use xlink:href="#DejaVuSans-73" x="267.822266"/>
      <use xlink:href="#DejaVuSans-5d" x="319.921875"/>
     </g>
    </g>
   </g>
   <g id="matplotlib.axis_2">
    <g id="ytick_1">
     <g id="line2d_15">
      <path d="M 23.760625 144.874954 
L 354.71952 144.874954 
" clip-path="url(#p99f925a9aa)" style="fill: none; stroke-dasharray: 0.8,1.32; stroke-dashoffset: 0; stroke: #000000; stroke-opacity: 0.5; stroke-width: 0.8"/>
     </g>
     <g id="line2d_16">
      <defs>
       <path id="m8ce0e4022e" d="M 0 0 
L -3.5 0 
" style="stroke: #000000; stroke-width: 0.8"/>
      </defs>
      <g>
       <use xlink:href="#m8ce0e4022e" x="23.760625" y="144.874954" style="stroke: #000000; stroke-width: 0.8"/>
      </g>
     </g>
     <g id="text_9">
      <!-- 0 -->
      <g transform="translate(10.398125 148.674173) scale(0.1 -0.1)">
       <use xlink:href="#DejaVuSans-30"/>
      </g>
     </g>
    </g>
    <g id="ytick_2">
     <g id="line2d_17">
      <path d="M 23.760625 105.959173 
L 354.71952 105.959173 
" clip-path="url(#p99f925a9aa)" style="fill: none; stroke-dasharray: 0.8,1.32; stroke-dashoffset: 0; stroke: #000000; stroke-opacity: 0.5; stroke-width: 0.8"/>
     </g>
     <g id="line2d_18">
      <g>
       <use xlink:href="#m8ce0e4022e" x="23.760625" y="105.959173" style="stroke: #000000; stroke-width: 0.8"/>
      </g>
     </g>
     <g id="text_10">
      <!-- 2 -->
      <g transform="translate(10.398125 109.758392) scale(0.1 -0.1)">
       <use xlink:href="#DejaVuSans-32"/>
      </g>
     </g>
    </g>
    <g id="ytick_3">
     <g id="line2d_19">
      <path d="M 23.760625 67.043392 
L 354.71952 67.043392 
" clip-path="url(#p99f925a9aa)" style="fill: none; stroke-dasharray: 0.8,1.32; stroke-dashoffset: 0; stroke: #000000; stroke-opacity: 0.5; stroke-width: 0.8"/>
     </g>
     <g id="line2d_20">
      <g>
       <use xlink:href="#m8ce0e4022e" x="23.760625" y="67.043392" style="stroke: #000000; stroke-width: 0.8"/>
      </g>
     </g>
     <g id="text_11">
      <!-- 4 -->
      <g transform="translate(10.398125 70.842611) scale(0.1 -0.1)">
       <defs>
        <path id="DejaVuSans-34" d="M 2419 4116 
L 825 1625 
L 2419 1625 
L 2419 4116 
z
M 2253 4666 
L 3047 4666 
L 3047 1625 
L 3713 1625 
L 3713 1100 
L 3047 1100 
L 3047 0 
L 2419 0 
L 2419 1100 
L 313 1100 
L 313 1709 
L 2253 4666 
z
" transform="scale(0.015625)"/>
       </defs>
       <use xlink:href="#DejaVuSans-34"/>
      </g>
     </g>
    </g>
    <g id="ytick_4">
     <g id="line2d_21">
      <path d="M 23.760625 28.127611 
L 354.71952 28.127611 
" clip-path="url(#p99f925a9aa)" style="fill: none; stroke-dasharray: 0.8,1.32; stroke-dashoffset: 0; stroke: #000000; stroke-opacity: 0.5; stroke-width: 0.8"/>
     </g>
     <g id="line2d_22">
      <g>
       <use xlink:href="#m8ce0e4022e" x="23.760625" y="28.127611" style="stroke: #000000; stroke-width: 0.8"/>
      </g>
     </g>
     <g id="text_12">
      <!-- 6 -->
      <g transform="translate(10.398125 31.92683) scale(0.1 -0.1)">
       <defs>
        <path id="DejaVuSans-36" d="M 2113 2584 
Q 1688 2584 1439 2293 
Q 1191 2003 1191 1497 
Q 1191 994 1439 701 
Q 1688 409 2113 409 
Q 2538 409 2786 701 
Q 3034 994 3034 1497 
Q 3034 2003 2786 2293 
Q 2538 2584 2113 2584 
z
M 3366 4563 
L 3366 3988 
Q 3128 4100 2886 4159 
Q 2644 4219 2406 4219 
Q 1781 4219 1451 3797 
Q 1122 3375 1075 2522 
Q 1259 2794 1537 2939 
Q 1816 3084 2150 3084 
Q 2853 3084 3261 2657 
Q 3669 2231 3669 1497 
Q 3669 778 3244 343 
Q 2819 -91 2113 -91 
Q 1303 -91 875 529 
Q 447 1150 447 2328 
Q 447 3434 972 4092 
Q 1497 4750 2381 4750 
Q 2619 4750 2861 4703 
Q 3103 4656 3366 4563 
z
" transform="scale(0.015625)"/>
       </defs>
       <use xlink:href="#DejaVuSans-36"/>
      </g>
     </g>
    </g>
    <g id="text_13">
     <!-- Kraft [N] -->
     <g transform="translate(8.318438 95.804135) rotate(-90) scale(0.1 -0.1)">
      <defs>
       <path id="DejaVuSans-4b" d="M 628 4666 
L 1259 4666 
L 1259 2694 
L 3353 4666 
L 4166 4666 
L 1850 2491 
L 4331 0 
L 3500 0 
L 1259 2247 
L 1259 0 
L 628 0 
L 628 4666 
z
" transform="scale(0.015625)"/>
       <path id="DejaVuSans-72" d="M 2631 2963 
Q 2534 3019 2420 3045 
Q 2306 3072 2169 3072 
Q 1681 3072 1420 2755 
Q 1159 2438 1159 1844 
L 1159 0 
L 581 0 
L 581 3500 
L 1159 3500 
L 1159 2956 
Q 1341 3275 1631 3429 
Q 1922 3584 2338 3584 
Q 2397 3584 2469 3576 
Q 2541 3569 2628 3553 
L 2631 2963 
z
" transform="scale(0.015625)"/>
       <path id="DejaVuSans-61" d="M 2194 1759 
Q 1497 1759 1228 1600 
Q 959 1441 959 1056 
Q 959 750 1161 570 
Q 1363 391 1709 391 
Q 2188 391 2477 730 
Q 2766 1069 2766 1631 
L 2766 1759 
L 2194 1759 
z
M 3341 1997 
L 3341 0 
L 2766 0 
L 2766 531 
Q 2569 213 2275 61 
Q 1981 -91 1556 -91 
Q 1019 -91 701 211 
Q 384 513 384 1019 
Q 384 1609 779 1909 
Q 1175 2209 1959 2209 
L 2766 2209 
L 2766 2266 
Q 2766 2663 2505 2880 
Q 2244 3097 1772 3097 
Q 1472 3097 1187 3025 
Q 903 2953 641 2809 
L 641 3341 
Q 956 3463 1253 3523 
Q 1550 3584 1831 3584 
Q 2591 3584 2966 3190 
Q 3341 2797 3341 1997 
z
" transform="scale(0.015625)"/>
       <path id="DejaVuSans-66" d="M 2375 4863 
L 2375 4384 
L 1825 4384 
Q 1516 4384 1395 4259 
Q 1275 4134 1275 3809 
L 1275 3500 
L 2222 3500 
L 2222 3053 
L 1275 3053 
L 1275 0 
L 697 0 
L 697 3053 
L 147 3053 
L 147 3500 
L 697 3500 
L 697 3744 
Q 697 4328 969 4595 
Q 1241 4863 1831 4863 
L 2375 4863 
z
" transform="scale(0.015625)"/>
       <path id="DejaVuSans-4e" d="M 628 4666 
L 1478 4666 
L 3547 763 
L 3547 4666 
L 4159 4666 
L 4159 0 
L 3309 0 
L 1241 3903 
L 1241 0 
L 628 0 
L 628 4666 
z
" transform="scale(0.015625)"/>
      </defs>
      <use xlink:href="#DejaVuSans-4b"/>
      <use xlink:href="#DejaVuSans-72" x="65.576172"/>
      <use xlink:href="#DejaVuSans-61" x="106.689453"/>
      <use xlink:href="#DejaVuSans-66" x="167.96875"/>
      <use xlink:href="#DejaVuSans-74" x="201.423828"/>
      <use xlink:href="#DejaVuSans-20" x="240.632812"/>
      <use xlink:href="#DejaVuSans-5b" x="272.419922"/>
      <use xlink:href="#DejaVuSans-4e" x="311.433594"/>
      <use xlink:href="#DejaVuSans-5d" x="386.238281"/>
     </g>
    </g>
   </g>
   <g id="line2d_23">
    <path d="M 23.760625 144.91614 
L 23.935733 144.878856 
L 26.861533 144.911973 
L 27.085096 144.90317 
L 27.288254 144.938015 
L 27.451959 144.929613 
L 27.947673 144.902099 
L 28.290441 144.907395 
L 28.554858 144.918 
L 29.132763 144.917807 
L 29.969324 144.91474 
L 30.394135 144.883858 
L 31.577173 144.919171 
L 32.414672 144.907816 
L 32.781767 144.878753 
L 33.148205 144.909775 
L 33.333061 144.875194 
L 33.514604 144.902142 
L 33.677397 144.921082 
L 34.271526 144.922634 
L 35.384433 144.924135 
L 35.53691 144.86888 
L 36.172764 144.908506 
L 36.498923 144.916293 
L 36.845257 144.900789 
L 37.151542 144.889961 
L 37.98729 144.887151 
L 42.490319 144.932015 
L 42.531452 144.859263 
L 42.877806 144.913726 
L 44.405937 144.900473 
L 45.629216 144.897777 
L 45.99371 144.870715 
L 46.424408 144.943149 
L 46.583868 144.879998 
L 46.74714 144.909211 
L 48.280095 144.910127 
L 48.443515 144.891492 
L 52.561336 144.912778 
L 52.88722 144.890838 
L 53.579758 144.921781 
L 53.744641 144.860807 
L 53.9885 144.895885 
L 54.517237 144.887832 
L 55.027711 144.895974 
L 56.22471 144.930812 
L 58.719173 144.902088 
L 59.637041 144.902188 
L 59.98528 144.865327 
L 60.310567 144.902006 
L 61.002225 144.877268 
L 61.347068 144.914942 
L 61.491035 144.923581 
L 62.183349 144.865893 
L 62.428641 144.892477 
L 62.85943 144.896877 
L 63.27595 144.903185 
L 64.023665 144.901635 
L 64.352995 144.883092 
L 65.961161 144.90076 
L 66.210746 144.872467 
L 66.553565 144.894895 
L 67.133888 144.920554 
L 67.515075 144.914256 
L 68.349496 144.897107 
L 68.574412 144.924144 
L 68.843028 144.881713 
L 69.087151 144.879728 
L 69.51998 144.908963 
L 69.741898 144.921885 
L 70.944735 144.899141 
L 71.460565 144.929224 
L 71.599077 144.867879 
L 71.619064 144.916921 
L 71.68137 144.941662 
L 71.828209 144.83923 
L 71.848253 144.895873 
L 79.360907 144.933087 
L 79.52559 144.913012 
L 81.112055 144.892196 
L 81.131892 144.955894 
L 81.214517 144.851763 
L 81.539471 144.913535 
L 82.722685 144.913057 
L 82.96688 144.91486 
L 83.228167 144.892375 
L 83.641428 144.902471 
L 84.76287 144.889446 
L 85.074001 144.879656 
L 85.767979 144.890724 
L 88.09361 144.887133 
L 88.300534 144.890025 
L 88.686042 144.906489 
L 88.789283 144.89134 
L 90.093233 144.870719 
L 90.298875 144.916674 
L 90.56292 144.899272 
L 91.295147 144.899878 
L 91.52127 144.902213 
L 113.916217 144.905427 
L 114.140643 144.874634 
L 114.185755 144.937654 
L 114.2631 144.870665 
L 114.736571 144.895727 
L 115.167019 144.904256 
L 118.196129 144.93087 
L 118.454317 144.875399 
L 118.965768 144.908234 
L 119.37617 144.872493 
L 119.637607 144.894555 
L 121.392626 144.881386 
L 121.595819 144.911692 
L 122.26327 144.890778 
L 122.960689 144.912555 
L 125.730535 144.910098 
L 125.872683 144.907705 
L 126.548566 144.935274 
L 126.626169 144.884872 
L 213.640191 144.887869 
L 213.845625 144.878528 
L 214.273237 144.896034 
L 216.536473 144.900999 
L 216.73997 144.85934 
L 216.964545 144.895823 
L 218.067844 144.888366 
L 218.758272 144.90342 
L 219.063381 144.887417 
L 219.288639 144.908906 
L 222.676481 144.904392 
L 222.936728 144.898957 
L 224.036883 144.902446 
L 224.485072 144.8918 
L 224.710081 144.91946 
L 224.915139 144.848243 
L 225.14075 144.903254 
L 225.467947 144.911353 
L 227.043684 144.88906 
L 227.575119 144.905669 
L 227.992384 144.910079 
L 228.19836 144.915133 
L 228.515405 144.888479 
L 228.576318 144.957696 
L 229.253439 144.882433 
L 229.515191 144.878068 
L 231.705662 144.90378 
L 231.869267 144.891525 
L 232.215153 144.91346 
L 232.459421 144.872401 
L 232.644533 144.928462 
L 232.808347 144.900002 
L 233.482786 144.926028 
L 233.664058 144.913402 
L 233.96968 144.89726 
L 234.315084 144.898601 
L 237.902167 144.906988 
L 238.448227 144.87547 
L 239.027031 144.921078 
L 239.762422 144.865728 
L 239.887393 144.902222 
L 249.149714 144.920922 
L 249.314218 144.927773 
L 250.071265 144.869358 
L 250.318359 144.901234 
L 251.318026 144.889867 
L 251.68799 144.881966 
L 252.194207 144.89235 
L 252.522823 144.903461 
L 253.070818 144.908893 
L 253.481819 144.896455 
L 253.546935 144.846803 
L 253.85493 144.898655 
L 256.158155 144.880281 
L 256.643481 144.893525 
L 258.915958 144.906865 
L 259.079818 144.920692 
L 259.426527 144.886269 
L 259.670498 144.89067 
L 261.02173 144.90878 
L 261.200712 144.906116 
L 261.52644 144.900663 
L 265.811023 144.849921 
L 265.93286 144.897989 
L 266.750221 144.899254 
L 266.912887 144.902597 
L 267.174307 144.867948 
L 267.262179 144.928427 
L 267.703628 144.885908 
L 268.848004 144.92399 
L 269.110757 144.870074 
L 269.375168 144.874255 
L 271.391506 144.902625 
L 271.723803 144.864152 
L 272.063255 144.917736 
L 272.389843 144.91914 
L 275.793395 144.922988 
L 275.936107 144.888195 
L 279.564131 144.893997 
L 281.584465 144.886567 
L 283.030682 144.9135 
L 283.052235 144.864495 
L 283.357422 144.920799 
L 283.846596 144.868541 
L 284.132811 144.933127 
L 284.552041 144.902065 
L 285.626663 144.929294 
L 286.380272 144.890738 
L 286.988965 144.922538 
L 287.133232 144.933382 
L 289.067032 144.894616 
L 290.591286 144.905516 
L 290.856922 144.893904 
L 291.182923 144.922808 
L 291.628366 144.879706 
L 292.201034 144.903364 
L 293.537784 144.910268 
L 293.802386 144.905732 
L 299.358261 144.914891 
L 299.624589 144.935252 
L 299.859322 144.876419 
L 300.382598 144.895831 
L 300.820272 144.910339 
L 301.221082 144.905496 
L 302.427265 144.881355 
L 302.731702 144.902229 
L 303.077106 144.895731 
L 303.175981 144.879903 
L 306.438352 144.905051 
L 306.778547 144.924455 
L 306.787504 144.887849 
L 309.480846 144.887753 
L 309.830101 144.917119 
L 310.053426 144.897021 
L 317.219041 144.900423 
L 317.726673 144.881875 
L 318.154037 144.927205 
L 318.735915 144.910212 
L 319.09172 144.922793 
L 319.417391 144.873431 
L 320.746319 144.895866 
L 321.558886 144.887827 
L 321.701065 144.896591 
L 322.070119 144.918174 
L 322.37401 144.878558 
L 322.700126 144.880374 
L 327.522517 144.892812 
L 327.788138 144.910087 
L 328.013574 144.885075 
L 328.339165 144.904848 
L 328.79322 144.910461 
L 329.193366 144.848055 
L 329.607495 144.932063 
L 329.94848 144.927817 
L 330.544791 144.883286 
L 331.21897 144.941388 
L 331.460233 144.90579 
L 331.874735 144.941613 
L 332.153391 144.887597 
L 333.767955 144.89582 
L 334.317088 144.916462 
L 334.682296 144.901956 
L 335.841878 144.900867 
L 336.291219 144.914923 
L 337.270163 144.889757 
L 338.048999 144.914055 
L 338.635334 144.904464 
L 339.042807 144.922592 
L 339.553965 144.86378 
L 339.795485 144.900882 
L 343.343607 144.881475 
L 343.608946 144.928971 
L 344.933458 144.91073 
L 345.11996 144.881802 
L 348.415196 144.897208 
L 350.455743 144.894248 
L 350.802172 144.893369 
L 351.026304 144.901753 
L 354.71952 144.920178 
L 354.71952 144.920178 
" clip-path="url(#p99f925a9aa)" style="fill: none; stroke: #0000ff; stroke-opacity: 0.5; stroke-width: 2.1; stroke-linecap: square"/>
   </g>
   <g id="line2d_24">
    <path d="M 23.760625 11.230698 
L 23.823183 11.631125 
L 24.00659 11.630046 
L 24.114513 10.932268 
L 24.132448 11.220008 
L 24.415144 12.55519 
L 24.497167 12.817986 
L 24.600033 12.032025 
L 24.78206 13.621174 
L 24.842927 13.567558 
L 25.006073 15.121858 
L 25.210508 13.121054 
L 25.29463 14.772016 
L 25.352826 14.70003 
L 25.535928 13.341195 
L 25.678374 15.032003 
L 25.760918 12.843353 
L 25.881353 12.885422 
L 25.942901 13.40904 
L 26.08524 11.509469 
L 26.21005 8.438839 
L 26.289826 9.522027 
L 26.514124 7.506434 
L 26.616127 10.640959 
L 26.698566 8.15681 
L 27.125025 15.729688 
L 27.206464 15.718785 
L 27.278716 15.45447 
L 27.288254 11.767547 
L 27.369956 14.016268 
L 27.534043 15.856377 
L 27.703006 12.585553 
L 27.788257 12.707418 
L 27.882467 13.198753 
L 27.947673 10.853041 
L 28.046053 11.467598 
L 28.209168 12.871424 
L 28.290441 12.630144 
L 28.659016 15.113903 
L 28.881901 13.545827 
L 28.962338 13.648614 
L 29.085849 12.608791 
L 29.132763 12.844465 
L 29.311899 14.866903 
L 29.393432 14.830725 
L 29.479627 13.396439 
L 29.720662 15.937646 
L 30.067242 12.982394 
L 30.148754 13.217867 
L 30.311992 16.691799 
L 30.487515 14.090228 
L 30.739785 16.885325 
L 30.822197 16.34022 
L 31.14877 11.191505 
L 31.311831 12.640504 
L 31.50373 10.302277 
L 31.657004 11.739522 
L 31.821573 14.755275 
L 32.007357 12.241061 
L 32.08616 12.554945 
L 32.252556 11.421905 
L 32.333537 12.389758 
L 32.414672 12.073008 
L 32.577689 11.272546 
L 32.700095 9.460606 
L 32.781767 9.500123 
L 32.944621 10.396005 
L 33.005759 9.92111 
L 33.148205 13.39829 
L 33.22928 12.739991 
L 33.292936 12.400141 
L 33.432674 14.386416 
L 33.59626 15.653268 
L 33.677397 15.62462 
L 33.761605 15.075461 
L 33.865427 16.011993 
L 34.013422 14.669822 
L 34.109126 15.555769 
L 34.271526 13.909118 
L 34.605054 14.235803 
L 34.704844 15.173351 
L 34.788095 15.957819 
L 34.953686 13.252318 
L 35.115609 14.954095 
L 35.304696 12.944498 
L 35.384433 14.352987 
L 35.53691 11.555699 
L 35.646427 12.14229 
L 35.82105 15.812684 
L 35.881395 13.913779 
L 36.082802 15.883436 
L 36.233973 13.994186 
L 36.39756 17.388084 
L 36.661738 14.710394 
L 36.744189 15.258307 
L 36.845257 15.080109 
L 36.90643 17.360291 
L 36.967707 16.946991 
L 37.071644 17.87425 
L 37.354406 14.719587 
L 37.402668 13.11825 
L 37.517816 14.626531 
L 37.621356 14.598809 
L 37.660931 12.890891 
L 37.723579 12.999969 
L 37.856852 15.261692 
L 37.917721 12.53711 
L 37.98729 13.157228 
L 38.109142 12.457612 
L 38.260876 16.155409 
L 38.333526 14.749433 
L 38.395479 14.859532 
L 38.511716 15.197961 
L 38.679059 12.812789 
L 38.740482 13.731276 
L 38.986605 12.073253 
L 39.035633 12.618598 
L 39.147945 12.560319 
L 39.310449 12.151635 
L 39.331817 13.538821 
L 39.413654 13.50446 
L 39.495225 12.728508 
L 39.759811 15.640747 
L 39.921919 13.531289 
L 40.003959 14.261056 
L 40.431827 10.290094 
L 40.512802 10.988441 
L 40.940284 12.895383 
L 41.266267 16.300913 
L 41.383374 15.216647 
L 41.531273 16.692157 
L 41.777048 14.783435 
L 41.872135 13.722789 
L 41.940249 14.101565 
L 42.082347 15.328139 
L 42.143258 15.171361 
L 42.367311 12.710286 
L 42.490319 11.722243 
L 42.531452 11.800455 
L 42.715215 13.609644 
L 43.062169 9.845021 
L 43.183323 9.557491 
L 43.42792 12.320889 
L 43.489487 11.728313 
L 43.606412 11.978368 
L 43.632016 11.288558 
L 43.816493 15.303577 
L 43.897478 16.780278 
L 44.022802 16.474501 
L 44.14714 14.672493 
L 44.320804 16.186958 
L 44.405937 15.803027 
L 44.549708 18.875247 
L 44.616625 18.566206 
L 44.74369 16.718428 
L 45.020267 17.12643 
L 45.04178 17.04239 
L 45.121772 16.402831 
L 45.142773 17.132467 
L 45.162726 16.184104 
L 45.216729 16.208374 
L 45.318112 14.537668 
L 45.629216 12.446786 
L 45.83155 16.06751 
L 45.99371 12.032606 
L 46.115192 12.615054 
L 46.319756 11.623073 
L 46.424408 11.376868 
L 46.484993 10.777026 
L 46.583868 8.755806 
L 46.74714 4.979772 
L 47.200603 9.107549 
L 47.220071 8.766664 
L 47.445819 10.327542 
L 47.504814 9.691563 
L 47.708842 11.629163 
L 47.790456 12.711952 
L 47.935237 10.890103 
L 48.083043 11.077024 
L 48.280095 6.89321 
L 48.443515 10.328938 
L 48.708215 6.676606 
L 48.774298 7.151487 
L 48.87229 6.8387 
L 49.116894 10.903618 
L 49.136391 11.723586 
L 49.567403 9.224804 
L 50.012448 8.997968 
L 50.487792 12.270816 
L 50.932101 11.786162 
L 50.950105 11.34378 
L 51.051123 13.541261 
L 51.214725 12.42944 
L 51.520088 14.418172 
L 51.86852 10.043421 
L 51.887668 11.269382 
L 52.029953 13.236215 
L 52.254365 8.184356 
L 52.376625 8.525162 
L 52.645505 11.737462 
L 52.73205 11.296868 
L 52.989796 8.423838 
L 53.091121 10.384525 
L 53.152763 10.284805 
L 53.354698 9.259276 
L 53.579758 11.794517 
L 53.744641 13.844682 
L 53.865506 13.899458 
L 53.9885 13.34899 
L 54.190851 12.824381 
L 54.354312 10.10837 
L 54.462061 10.055802 
L 54.583993 9.251504 
L 54.599804 11.370367 
L 54.676301 9.110129 
L 54.880335 9.974504 
L 55.027711 10.892668 
L 55.084034 11.067666 
L 55.165946 10.146538 
L 55.348607 11.155187 
L 55.430429 10.624629 
L 55.613389 11.035063 
L 55.695924 10.449941 
L 55.756671 11.34978 
L 55.858339 11.252131 
L 56.125194 9.079326 
L 56.22471 8.887444 
L 56.346798 10.643303 
L 56.449466 9.545247 
L 56.59123 9.842979 
L 56.612707 8.948914 
L 56.878355 13.410454 
L 57.04064 12.930902 
L 57.103749 12.91151 
L 57.20398 11.747815 
L 57.366327 12.260836 
L 57.590095 8.685255 
L 57.714299 11.065481 
L 57.887989 10.800695 
L 57.988165 10.111521 
L 58.162769 11.972346 
L 58.256316 11.397879 
L 58.374345 14.824676 
L 58.456132 11.895651 
L 58.658109 11.862686 
L 58.861846 14.064146 
L 58.962964 12.08511 
L 59.046981 11.679497 
L 59.248434 10.007084 
L 59.390979 12.828572 
L 59.472032 13.994034 
L 59.61421 13.507733 
L 59.637041 12.155317 
L 59.799077 13.10039 
L 60.143668 9.804894 
L 60.225645 10.026781 
L 60.47088 8.733897 
L 60.532023 8.821802 
L 60.577034 8.749391 
L 60.81704 10.552008 
L 60.899428 10.270465 
L 61.08343 7.930947 
L 61.206519 8.759171 
L 61.225891 9.935174 
L 61.347068 10.439832 
L 61.408594 10.372388 
L 61.491035 9.384757 
L 61.571628 10.766857 
L 61.734298 11.112592 
L 61.8581 9.615234 
L 62.183349 11.62969 
L 62.243705 10.888994 
L 62.630997 12.932636 
L 62.85943 13.243076 
L 62.934226 12.769999 
L 63.088499 14.694293 
L 63.186489 14.344085 
L 63.36992 13.20919 
L 63.554356 16.849157 
L 63.616323 15.679913 
L 63.778258 12.993432 
L 63.898241 12.673348 
L 64.188345 17.610555 
L 64.352995 14.512218 
L 64.452366 14.593241 
L 64.533921 15.100421 
L 64.616014 16.400925 
L 64.840308 15.653659 
L 64.942759 11.836001 
L 65.085394 11.796758 
L 65.207511 14.186378 
L 65.288668 13.784651 
L 65.443801 13.875097 
L 65.534584 13.578173 
L 65.765786 15.260301 
L 65.961161 11.116543 
L 66.044124 11.32351 
L 66.210746 13.333263 
L 66.287331 12.633967 
L 66.414361 10.611517 
L 66.512841 10.773726 
L 66.553565 11.580849 
L 66.7184 11.830053 
L 66.766334 12.477618 
L 66.88192 14.960315 
L 67.088108 13.157913 
L 67.248718 17.138568 
L 67.310084 16.890937 
L 67.515075 14.347642 
L 67.635634 15.618698 
L 67.655757 15.247305 
L 67.78838 14.199142 
L 67.983855 17.29578 
L 68.064263 16.18854 
L 68.248269 17.643204 
L 68.392906 16.020918 
L 68.411599 13.855017 
L 68.492463 15.797659 
L 68.574412 16.018542 
L 68.92464 12.504396 
L 68.990262 12.616406 
L 69.087151 12.203325 
L 69.168425 12.707202 
L 69.331531 8.655282 
L 69.433716 9.199027 
L 69.582054 11.064803 
L 69.597994 9.095872 
L 69.679822 10.423231 
L 69.741898 10.595433 
L 69.865043 10.576158 
L 70.028299 7.669145 
L 70.273914 13.434148 
L 70.291267 13.246826 
L 70.434561 11.639724 
L 70.517072 11.778641 
L 70.599301 11.78872 
L 70.68106 11.233835 
L 70.885362 16.044208 
L 70.944735 14.809564 
L 71.030155 12.67514 
L 71.088505 13.133347 
L 71.233558 13.625512 
L 71.273384 12.961987 
L 71.460565 13.714455 
L 71.517867 13.800727 
L 71.599077 12.623131 
L 71.619064 13.834389 
L 71.68137 13.091665 
L 71.828209 13.92709 
L 71.848253 15.457484 
L 71.95331 15.236368 
L 72.357128 13.191694 
L 72.643398 11.869933 
L 72.703359 9.222715 
L 72.785154 9.566943 
L 73.030493 12.780375 
L 73.132494 12.037658 
L 73.294482 12.118296 
L 73.464518 13.034235 
L 73.546908 15.904675 
L 73.630575 14.960978 
L 73.829571 11.899529 
L 73.949722 12.176337 
L 74.03106 12.758537 
L 74.050187 12.02995 
L 74.152915 12.130472 
L 74.214364 13.854988 
L 74.336949 13.43057 
L 74.499296 10.76304 
L 74.560308 10.855582 
L 74.764105 12.595695 
L 74.887264 12.822612 
L 75.060402 10.675616 
L 75.2043 11.128516 
L 75.397555 14.416128 
L 75.483754 14.474478 
L 75.560308 12.99115 
L 75.64151 13.013615 
L 75.825388 15.346787 
L 76.009732 12.700777 
L 76.274484 14.767195 
L 76.315224 13.905369 
L 76.437115 14.139335 
L 76.499197 14.518782 
L 76.579719 13.054686 
L 76.702115 13.397777 
L 76.845786 15.717189 
L 77.028703 13.199884 
L 77.090381 13.486962 
L 77.18279 15.534081 
L 77.376761 14.906221 
L 77.506639 16.094105 
L 77.948956 13.017891 
L 78.099799 10.909697 
L 78.192706 13.14853 
L 78.37287 11.249554 
L 78.44868 11.61063 
L 78.460742 11.492906 
L 78.505811 10.114411 
L 78.644411 9.981184 
L 78.787899 12.530934 
L 78.86839 12.491145 
L 78.929172 10.037137 
L 79.15602 11.97461 
L 79.26305 10.32841 
L 79.443012 13.765874 
L 79.605287 10.768497 
L 79.769122 15.003911 
L 79.788959 14.524924 
L 79.953671 12.719777 
L 80.115296 15.824745 
L 80.195982 15.060217 
L 80.278257 15.309752 
L 80.441802 17.619001 
L 80.624774 14.388618 
L 80.788472 15.611822 
L 81.033533 14.758618 
L 81.131892 16.117977 
L 81.214517 15.628561 
L 81.377865 13.889061 
L 81.539471 14.227795 
L 81.805001 11.116436 
L 81.887334 11.204204 
L 82.050001 8.575413 
L 82.213052 11.269311 
L 82.294174 11.199759 
L 82.478644 13.033457 
L 82.56009 13.245805 
L 82.642227 15.451525 
L 82.805485 13.958695 
L 82.96688 16.605638 
L 83.313442 13.95678 
L 83.395328 15.799793 
L 83.486848 12.759553 
L 83.559756 13.922263 
L 83.641428 15.983165 
L 83.723823 13.526914 
L 83.84569 13.597742 
L 83.989909 15.006951 
L 84.169342 16.628231 
L 84.232023 13.869833 
L 84.321583 14.009175 
L 84.415206 13.083042 
L 84.496114 11.747796 
L 84.577692 13.223382 
L 84.905457 10.536683 
L 85.007991 11.084111 
L 85.171928 13.024166 
L 85.251561 14.659593 
L 85.428848 11.474347 
L 85.455247 11.866747 
L 85.497578 13.013156 
L 85.666117 13.737773 
L 85.767979 12.459251 
L 85.926696 12.800809 
L 85.987905 12.503918 
L 86.008912 11.624518 
L 86.091792 11.900195 
L 86.282808 14.032433 
L 86.437795 11.097282 
L 86.519895 12.784223 
L 86.642352 12.672191 
L 86.68246 11.183077 
L 86.763667 12.252358 
L 86.845751 12.683546 
L 86.92805 10.315097 
L 87.282939 12.481814 
L 87.298976 12.324765 
L 87.359397 10.658061 
L 87.565088 10.602899 
L 87.788056 12.896383 
L 87.86953 13.355291 
L 87.890047 12.168395 
L 88.09361 11.907612 
L 88.217534 14.125154 
L 88.23838 15.160025 
L 88.300534 14.712662 
L 88.404356 15.268408 
L 88.565367 12.442647 
L 88.606183 8.545344 
L 88.686042 9.470912 
L 88.706948 10.574951 
L 88.789283 10.198484 
L 88.891762 10.466256 
L 88.953274 11.561686 
L 89.054176 7.6349 
L 89.257855 9.192524 
L 89.379367 10.270008 
L 89.401291 11.782633 
L 89.460411 10.016957 
L 89.542826 9.977291 
L 89.624194 11.100691 
L 89.747505 10.38268 
L 89.829092 10.538463 
L 89.932055 11.74873 
L 90.093233 9.140313 
L 90.195522 9.169934 
L 90.273089 9.681599 
L 90.298875 11.407662 
L 90.502526 9.343126 
L 90.56292 10.330157 
L 90.684609 10.263202 
L 90.72507 9.829238 
L 91.051019 11.502781 
L 91.234364 9.581735 
L 91.285202 9.690746 
L 91.295147 9.790937 
L 91.356373 9.482781 
L 91.52127 8.98587 
L 91.662955 9.774742 
L 91.686645 11.715236 
L 91.744567 10.127588 
L 91.826126 9.169103 
L 92.081136 11.128236 
L 92.240194 10.1558 
L 92.337972 10.498833 
L 92.507675 8.238684 
L 92.665362 11.232471 
L 93.030276 12.862915 
L 93.196963 14.947493 
L 93.339255 15.665046 
L 93.43891 14.997006 
L 93.500942 15.651949 
L 93.665769 15.198804 
L 93.845786 18.222218 
L 93.927357 17.731715 
L 94.049839 16.597585 
L 94.136036 17.015847 
L 94.200958 16.613419 
L 94.35525 17.854491 
L 94.564718 17.150569 
L 94.786206 13.324275 
L 94.869766 13.412118 
L 95.29682 9.761536 
L 95.398828 10.700732 
L 95.46141 12.719926 
L 95.561344 12.302384 
L 95.683884 12.758047 
L 95.72713 13.925683 
L 95.826448 13.237553 
L 95.889158 14.424966 
L 95.969194 12.560922 
L 96.070705 12.770495 
L 96.132021 12.929508 
L 96.301722 9.796534 
L 96.376154 9.900996 
L 96.540067 9.353948 
L 96.624209 10.604175 
L 96.722507 10.437403 
L 96.887191 11.483353 
L 96.96732 11.661675 
L 97.272875 14.58383 
L 97.395311 13.921191 
L 97.578871 12.162621 
L 97.641426 12.634305 
L 97.743059 11.969397 
L 97.827046 12.17134 
L 97.926778 12.066392 
L 98.069358 8.870874 
L 98.151108 8.903298 
L 98.325045 10.228346 
L 98.53941 8.701855 
L 98.624537 9.559319 
L 98.661314 9.231435 
L 98.7423 8.113144 
L 98.98689 12.70733 
L 99.154479 13.132344 
L 99.333934 15.926015 
L 99.4967 15.758373 
L 99.57871 16.527989 
L 99.668678 16.466819 
L 99.905237 15.433597 
L 99.928706 15.490875 
L 100.089294 12.800463 
L 100.262599 13.707684 
L 100.42082 11.436228 
L 100.497198 12.981525 
L 100.579226 12.85335 
L 100.679864 11.793392 
L 100.925086 13.903412 
L 101.097153 10.41538 
L 101.270107 14.541627 
L 101.435004 12.588993 
L 101.514847 13.753614 
L 101.597532 13.477644 
L 101.678832 12.610599 
L 102.024719 17.098545 
L 102.187548 15.452479 
L 102.273162 16.347047 
L 102.435092 14.514369 
L 102.535166 14.861932 
L 102.617729 14.99327 
L 102.942193 12.365117 
L 103.11361 14.569878 
L 103.297728 13.549685 
L 103.416707 13.524697 
L 103.453561 12.980372 
L 103.53821 14.163238 
L 103.616272 13.914869 
L 103.699774 14.193632 
L 103.781819 13.123293 
L 103.966419 11.123587 
L 104.209277 14.839149 
L 104.290517 14.26831 
L 104.372265 12.133553 
L 104.555367 14.00639 
L 104.643292 15.015814 
L 104.722374 14.854639 
L 104.845708 13.258236 
L 104.979149 13.539495 
L 105.070215 12.850197 
L 105.212527 14.537483 
L 105.294119 13.622797 
L 105.45599 13.267198 
L 105.496435 12.555489 
L 105.639706 14.572793 
L 105.803195 14.881079 
L 105.924397 13.620646 
L 106.066514 14.387958 
L 106.15026 14.222686 
L 106.422845 14.517335 
L 106.659108 12.184768 
L 106.740435 12.765863 
L 106.843424 12.259322 
L 107.009701 13.305777 
L 107.071286 12.709006 
L 107.148558 12.782587 
L 107.250505 13.909799 
L 107.458768 11.757517 
L 107.49606 13.595272 
L 107.599134 11.799428 
L 107.761368 11.594658 
L 107.987174 10.71255 
L 108.107903 9.478642 
L 108.259977 12.191248 
L 108.331445 11.939099 
L 108.415836 11.979231 
L 108.601928 11.056509 
L 108.760089 13.556245 
L 108.841966 13.169782 
L 109.126727 14.538393 
L 109.250037 14.241378 
L 109.433954 17.437056 
L 109.514456 17.067918 
L 109.596615 16.77745 
L 109.699872 17.708302 
L 110.126226 11.926396 
L 110.146477 12.817154 
L 110.248803 13.2607 
L 110.275933 11.197107 
L 110.391371 11.206417 
L 110.452452 11.66513 
L 110.537663 10.426345 
L 110.615897 10.536914 
L 110.737065 10.79974 
L 110.860766 15.453036 
L 110.94159 15.424015 
L 111.12366 13.44954 
L 111.225753 13.93908 
L 111.307287 13.554548 
L 111.554071 15.388314 
L 111.718853 14.973349 
L 111.799087 15.076188 
L 111.882435 15.480936 
L 112.042791 14.112431 
L 112.165501 14.810591 
L 112.226906 14.52843 
L 112.307553 14.79101 
L 112.492416 14.616179 
L 112.675242 11.319341 
L 112.817532 15.036093 
L 112.899292 14.380931 
L 112.980534 13.727603 
L 113.145415 13.949404 
L 113.222417 14.983605 
L 113.312076 13.276173 
L 113.358255 13.13883 
L 113.484027 16.496295 
L 113.652982 13.732752 
L 113.733602 14.792795 
L 113.854727 13.351323 
L 113.916217 11.785317 
L 114.080037 11.39305 
L 114.185755 13.247639 
L 114.336019 12.607645 
L 114.508857 14.460435 
L 114.610338 12.980146 
L 114.736571 14.332804 
L 114.799251 16.678113 
L 114.83853 15.213553 
L 114.917275 15.198581 
L 114.998298 16.098264 
L 115.29251 14.591703 
L 115.387062 13.439306 
L 115.427589 13.890387 
L 115.713726 15.007582 
L 115.836413 14.413254 
L 115.899747 13.030763 
L 116.035958 12.729603 
L 116.313918 17.90341 
L 116.348318 16.664032 
L 116.431968 15.914075 
L 116.510421 16.366864 
L 116.592824 16.158259 
L 116.778243 17.805381 
L 116.94032 15.804676 
L 117.021882 16.347643 
L 117.124459 14.130748 
L 117.205445 15.036904 
L 117.266452 14.784497 
L 117.473216 15.500085 
L 117.63562 12.416422 
L 117.73036 12.235169 
L 117.858972 9.969596 
L 117.943053 11.491644 
L 118.124415 11.034572 
L 118.309851 12.429451 
L 118.414189 11.413306 
L 118.535583 12.766857 
L 118.622819 11.742127 
L 118.718591 13.488453 
L 118.965768 14.559954 
L 119.127524 10.293911 
L 119.289965 14.307413 
L 119.37617 14.073907 
L 119.475156 15.082524 
L 119.727039 11.788444 
L 119.809412 11.776135 
L 120.003708 13.397196 
L 120.168481 10.486238 
L 120.313029 11.220861 
L 120.49723 12.424747 
L 120.82256 13.99239 
L 121.229362 19.58996 
L 121.595819 15.688312 
L 121.702587 15.999922 
L 121.900608 12.408866 
L 122.067663 9.819535 
L 122.26327 12.383088 
L 122.32927 11.247068 
L 122.409897 12.243015 
L 122.512362 12.224865 
L 122.594473 11.623539 
L 122.697115 11.723454 
L 122.845071 15.062254 
L 123.041841 13.902426 
L 123.184974 14.683905 
L 123.29162 14.486623 
L 123.34773 13.147637 
L 123.464141 13.479502 
L 123.573948 14.908401 
L 123.592841 14.284714 
L 123.735491 14.530868 
L 123.858411 13.256439 
L 124.185937 17.258709 
L 124.285878 16.861056 
L 124.351181 14.853095 
L 124.449477 14.895139 
L 124.594144 14.060837 
L 124.69551 15.629658 
L 124.797778 12.999922 
L 125.021024 11.495222 
L 125.102481 12.310966 
L 125.204271 12.263391 
L 125.288668 12.338702 
L 125.367128 12.579054 
L 125.547315 13.554077 
L 125.77492 11.918435 
L 125.872683 13.24889 
L 125.955527 13.143798 
L 126.199989 11.570382 
L 126.299764 9.207427 
L 126.421494 10.001957 
L 126.48291 11.320295 
L 126.548566 10.640688 
L 126.564081 9.540356 
L 126.626169 11.269954 
L 126.832001 9.490189 
L 126.891726 11.269851 
L 126.972659 11.017684 
L 127.116446 10.846444 
L 127.156062 13.683726 
L 127.224149 12.211582 
L 127.300518 12.247035 
L 127.40284 13.398037 
L 127.486964 11.852605 
L 127.550226 12.504161 
L 127.750121 11.449805 
L 127.917161 13.742148 
L 127.996168 11.403578 
L 128.05635 12.967858 
L 128.24025 9.395099 
L 128.308208 10.335675 
L 128.445226 10.549413 
L 128.525534 11.126837 
L 128.770519 8.10237 
L 128.823423 10.708384 
L 128.954226 11.009342 
L 129.077722 13.320797 
L 129.201507 13.28636 
L 129.240786 12.746569 
L 129.321503 13.177325 
L 129.404028 15.04786 
L 129.505271 15.015505 
L 129.751139 12.854284 
L 129.854095 10.722359 
L 130.015837 13.229163 
L 130.080286 13.506484 
L 130.184863 15.202891 
L 130.198844 14.195532 
L 130.342257 14.258131 
L 130.403054 11.313887 
L 130.424717 14.019023 
L 130.587872 15.15412 
L 130.669329 14.711547 
L 130.811884 15.068945 
L 131.038844 11.964464 
L 131.140428 12.848664 
L 131.19348 14.30033 
L 131.261694 13.129083 
L 131.464814 11.672792 
L 131.526946 13.711761 
L 131.608009 13.308741 
L 131.852133 16.260672 
L 131.933561 14.569781 
L 132.014731 14.607907 
L 132.221227 16.614527 
L 132.279602 15.905378 
L 132.444358 16.949453 
L 132.606269 16.386684 
L 132.691026 16.459648 
L 132.871112 17.26459 
L 132.952518 16.148372 
L 133.115405 17.076057 
L 133.570155 11.034385 
L 133.687591 11.929646 
L 133.870496 10.128145 
L 133.95583 10.607049 
L 134.130318 14.37557 
L 134.204991 14.098942 
L 134.298699 13.572376 
L 134.380433 14.844954 
L 134.519444 13.524958 
L 134.540771 13.753761 
L 134.74405 15.08433 
L 134.887161 12.617124 
L 134.970114 12.792121 
L 135.07009 13.214764 
L 135.151929 12.992599 
L 135.214332 11.154397 
L 135.30389 11.666141 
L 135.416797 12.113257 
L 135.591818 10.992179 
L 135.714381 14.537222 
L 135.917602 13.428718 
L 136.101109 16.221513 
L 136.161608 15.284388 
L 136.306541 16.166723 
L 136.427727 17.625017 
L 136.573123 15.904102 
L 136.655548 15.854653 
L 136.820574 14.941443 
L 136.938513 14.425986 
L 136.999877 14.901503 
L 137.066375 14.801685 
L 137.164583 14.635142 
L 137.388549 15.290864 
L 137.533079 13.202316 
L 137.715532 15.532436 
L 137.755869 16.923309 
L 137.918735 14.468194 
L 138.082279 15.757113 
L 138.245991 14.544309 
L 138.328222 15.196017 
L 138.673984 11.349005 
L 138.800569 14.145593 
L 138.940297 11.901919 
L 139.125864 14.567019 
L 139.251236 13.621119 
L 139.347127 14.512124 
L 139.428448 14.269332 
L 139.511093 14.418885 
L 139.631685 13.967626 
L 139.775266 11.307944 
L 139.878355 9.978038 
L 140.10152 14.806843 
L 140.184336 14.279477 
L 140.288438 15.81914 
L 140.381725 15.61271 
L 140.52973 16.031658 
L 141.049251 11.286369 
L 141.120897 9.715197 
L 141.262518 9.400151 
L 141.288964 8.217352 
L 141.404402 8.935994 
L 141.447758 11.533985 
L 141.630711 11.619101 
L 141.71305 10.307502 
L 141.793921 11.118421 
L 141.91449 13.610134 
L 141.958153 12.631973 
L 142.070779 13.154539 
L 142.235201 15.912131 
L 142.252794 14.763739 
L 142.317949 15.061941 
L 142.416158 14.879576 
L 142.540928 13.570734 
L 142.580267 14.615102 
L 142.723231 13.497488 
L 142.746004 11.287562 
L 142.803555 13.998961 
L 142.884637 13.809683 
L 143.048348 11.815381 
L 143.14966 12.684508 
L 143.374949 10.419739 
L 143.477218 12.856358 
L 143.558564 12.717327 
L 143.660494 12.168511 
L 143.741576 12.780845 
L 143.855724 11.536704 
L 143.90548 13.280928 
L 143.987274 12.894546 
L 144.190173 17.477798 
L 144.251818 16.176278 
L 144.33339 14.433623 
L 144.518161 17.105496 
L 144.57742 16.790794 
L 144.741045 16.988202 
L 144.823375 16.493766 
L 144.984533 14.069468 
L 145.110165 13.925926 
L 145.188757 14.955 
L 145.473969 10.654527 
L 145.59744 12.207053 
L 145.703612 12.964884 
L 145.742481 12.605723 
L 146.169701 13.919001 
L 146.25098 15.589658 
L 146.351299 14.801268 
L 146.433175 13.175228 
L 146.513559 13.282335 
L 146.597178 13.285535 
L 146.678309 12.808825 
L 146.779369 13.015157 
L 146.941801 11.704871 
L 147.022576 13.641936 
L 147.16949 12.829338 
L 147.287554 15.021603 
L 147.388907 14.424217 
L 147.472472 14.950667 
L 147.612325 12.664125 
L 147.694656 14.862594 
L 147.775382 14.241942 
L 147.861301 13.810441 
L 147.876699 11.918194 
L 147.958488 14.382835 
L 148.040797 11.791166 
L 148.121581 12.600169 
L 148.305871 11.164143 
L 148.448838 13.865021 
L 148.468363 15.008877 
L 148.529991 12.781998 
L 148.670195 12.484712 
L 148.712956 9.88507 
L 148.875813 9.764758 
L 149.059367 14.630265 
L 149.147619 14.589554 
L 149.39184 15.161703 
L 149.474152 14.896248 
L 149.536546 15.553383 
L 150.125922 10.795992 
L 150.227595 11.661555 
L 150.533801 16.912258 
L 150.556932 15.806428 
L 150.818701 13.567185 
L 151.066954 16.225474 
L 151.23128 13.333542 
L 151.32834 13.119012 
L 151.420393 14.110065 
L 151.479844 17.238462 
L 151.558888 17.103557 
L 151.658514 17.371938 
L 151.740188 16.725745 
L 151.945013 14.446732 
L 151.984555 14.11735 
L 152.107065 15.15148 
L 152.413965 10.186459 
L 152.495809 10.343792 
L 152.576311 10.311018 
L 152.739197 10.434906 
L 152.820826 10.382564 
L 152.906287 10.596727 
L 153.004427 10.266766 
L 153.333451 14.233999 
L 153.494887 12.147796 
L 153.579023 11.705964 
L 153.677573 13.121293 
L 154.004813 9.238554 
L 154.188785 4.101144 
L 154.352351 7.502978 
L 154.455979 8.253099 
L 154.517084 6.615854 
L 154.76139 11.222485 
L 154.853042 9.871933 
L 155.108727 11.378401 
L 155.274126 10.104367 
L 155.35869 10.823961 
L 155.516016 9.001006 
L 155.599711 9.195084 
L 155.777423 12.203001 
L 155.94103 13.964976 
L 156.023407 13.811951 
L 156.111131 12.836313 
L 156.189256 13.623965 
L 156.273828 13.350481 
L 156.45233 11.752921 
L 156.536307 10.505201 
L 156.634591 11.145932 
L 156.839167 8.794666 
L 156.882033 8.493968 
L 156.98868 9.083283 
L 157.031677 7.853155 
L 157.115124 8.056003 
L 157.230704 8.421938 
L 157.294773 7.32117 
L 157.373373 7.589445 
L 157.487606 6.914796 
L 157.537443 8.02439 
L 157.647285 7.819757 
L 157.706738 8.947666 
L 157.785176 8.382195 
L 157.883986 9.561548 
L 157.986166 9.134921 
L 158.149634 11.919343 
L 158.312392 12.166876 
L 158.374193 11.93964 
L 158.394084 10.901255 
L 158.476115 11.355237 
L 158.659691 12.899004 
L 158.986468 10.817431 
L 159.189769 12.575248 
L 159.311306 13.955431 
L 159.394225 12.663609 
L 159.494652 12.863158 
L 159.821189 16.911191 
L 160.085192 14.664814 
L 160.166631 14.798773 
L 160.268453 16.062587 
L 160.334122 15.820693 
L 160.675944 9.469967 
L 160.818171 8.263503 
L 160.941 10.710091 
L 161.002334 9.319972 
L 161.250018 9.014209 
L 161.267495 9.772469 
L 161.349009 9.121294 
L 161.592417 14.248561 
L 161.675149 13.649943 
L 161.762686 12.895892 
L 161.837936 15.078525 
L 161.97637 14.061538 
L 162.002893 14.872822 
L 162.122716 14.808166 
L 162.273779 15.444747 
L 162.367647 13.88196 
L 162.550775 12.675086 
L 162.673349 13.044781 
L 162.694008 11.852678 
L 162.784817 12.220977 
L 162.884235 11.750137 
L 163.10881 14.348831 
L 163.204348 14.532568 
L 163.292057 14.292493 
L 163.372728 15.388898 
L 163.57807 13.654341 
L 163.637736 13.728776 
L 163.761084 13.383746 
L 163.780495 12.916275 
L 164.15375 11.217852 
L 164.295762 12.364323 
L 164.484637 11.132441 
L 164.540679 11.335901 
L 164.644215 12.833742 
L 164.723617 12.77207 
L 165.009781 13.268517 
L 165.051393 11.875853 
L 165.131668 12.213967 
L 165.314502 14.15141 
L 165.417641 14.469441 
L 165.482368 13.009918 
L 165.560406 14.340169 
L 165.641935 12.959029 
L 165.899473 14.440217 
L 165.986745 12.963847 
L 166.066268 12.99997 
L 166.246141 12.729787 
L 166.32789 13.716218 
L 166.470363 12.519698 
L 166.510854 13.915881 
L 166.576218 12.566724 
L 166.634838 11.813623 
L 166.73589 12.394617 
L 166.857574 14.515891 
L 166.897816 14.050126 
L 167.000351 13.514835 
L 167.081579 13.790544 
L 167.223655 12.588197 
L 167.284665 12.733872 
L 167.366588 12.328291 
L 167.407803 12.752911 
L 167.572707 10.555341 
L 167.672991 8.789753 
L 167.754689 8.841182 
L 167.835603 10.885122 
L 167.998628 8.858002 
L 168.203269 7.750068 
L 168.263357 6.22383 
L 168.325944 7.161905 
L 168.427002 7.1024 
L 168.511097 7.366293 
L 168.671569 5.245946 
L 168.85282 8.325638 
L 168.982595 9.680597 
L 169.081124 9.370706 
L 169.104564 10.820068 
L 169.242081 10.787467 
L 169.508701 16.035605 
L 169.589835 14.82383 
L 169.670761 15.330328 
L 169.772366 14.735634 
L 169.854694 15.340172 
L 169.93873 14.375242 
L 170.06321 14.56795 
L 170.099677 14.493967 
L 170.445822 11.65959 
L 170.6347 12.339674 
L 170.853598 11.14466 
L 170.874775 12.295304 
L 170.954721 11.809245 
L 171.039899 11.361601 
L 171.20213 9.777615 
L 171.282568 10.036972 
L 171.46507 9.390858 
L 171.628372 11.94885 
L 171.710023 12.149433 
L 171.791459 10.922197 
L 172.121077 15.412253 
L 172.206755 14.890926 
L 172.300435 15.758103 
L 172.545627 14.078862 
L 172.627033 15.019573 
L 172.875461 11.941751 
L 173.138162 8.192504 
L 173.302894 8.232589 
L 173.382499 8.978248 
L 173.424915 8.405389 
L 173.547047 8.965284 
L 173.891624 13.213735 
L 173.977517 14.420396 
L 174.060081 13.899072 
L 174.230719 14.084794 
L 174.411131 16.685777 
L 174.545782 17.183165 
L 174.647338 15.80128 
L 174.915678 20.231153 
L 175.014966 20.046926 
L 175.178447 17.986595 
L 175.524848 16.043616 
L 175.749201 8.748845 
L 175.831223 9.254586 
L 175.994919 9.20656 
L 176.02054 12.518476 
L 176.12936 8.822789 
L 176.21011 9.686725 
L 176.502868 13.570562 
L 176.584215 12.874292 
L 176.76702 12.447839 
L 176.868228 12.055645 
L 176.951797 14.147791 
L 177.055812 14.032008 
L 177.093145 14.021663 
L 177.174797 13.432272 
L 177.44041 15.503063 
L 177.521751 15.545605 
L 177.725291 16.830936 
L 178.091205 14.204677 
L 178.111493 14.374163 
L 178.277386 16.079164 
L 178.364974 14.640113 
L 178.523852 14.513453 
L 178.604085 13.842446 
L 178.807087 15.610302 
L 178.889838 15.524802 
L 178.94848 13.770664 
L 179.127616 12.72336 
L 179.134451 11.211241 
L 179.214384 12.030996 
L 179.295832 12.443018 
L 179.377944 11.865493 
L 179.48808 9.389459 
L 179.564745 9.545003 
L 179.663297 8.931426 
L 179.806281 9.49834 
L 179.971238 12.987823 
L 180.052989 13.616998 
L 180.153372 12.006769 
L 180.256804 12.485328 
L 180.34109 15.198266 
L 180.379855 14.731061 
L 180.480374 14.438086 
L 180.908305 9.920047 
L 180.97054 10.697463 
L 181.092109 10.017234 
L 181.152427 8.979442 
L 181.275633 9.154993 
L 181.356606 9.551998 
L 181.539506 11.130524 
L 181.662166 12.421061 
L 181.743973 11.705604 
L 182.070106 12.806489 
L 182.152303 12.723772 
L 182.314553 14.23418 
L 182.397738 14.09759 
L 182.498369 13.391631 
L 182.681161 16.692913 
L 182.745257 16.184538 
L 182.762231 17.531759 
L 182.88485 18.092863 
L 183.176252 16.411413 
L 183.252548 15.170459 
L 183.39497 16.270913 
L 183.416874 14.714607 
L 183.761247 10.95935 
L 183.863199 10.735294 
L 183.925309 10.792287 
L 184.005168 9.254585 
L 184.25364 11.932237 
L 184.343951 11.654172 
L 184.507961 10.302973 
L 184.60344 12.284658 
L 184.688684 11.772941 
L 184.793471 10.405952 
L 184.851923 12.207582 
L 184.985477 12.260725 
L 185.03507 10.145613 
L 185.177132 10.160484 
L 185.303029 12.764334 
L 185.466267 13.273155 
L 185.713959 15.615039 
L 185.775526 14.945813 
L 185.855219 16.264766 
L 185.934722 15.926394 
L 186.035558 15.650544 
L 186.352248 13.656639 
L 186.465698 11.046157 
L 186.55577 10.403556 
L 186.787801 11.413107 
L 186.885902 9.410592 
L 186.963327 10.271819 
L 187.125631 9.596108 
L 187.212209 10.254978 
L 187.309349 9.979944 
L 187.373921 10.173242 
L 187.471943 8.835897 
L 187.655909 9.33582 
L 187.903512 12.613503 
L 188.042232 12.19907 
L 188.137735 12.956195 
L 188.388815 12.934223 
L 188.47117 11.834495 
L 188.634225 7.778482 
L 188.735564 6.686155 
L 188.816506 7.885733 
L 188.898022 7.834993 
L 188.98341 7.804385 
L 189.060815 7.577646 
L 189.148033 9.357613 
L 189.22744 9.31529 
L 189.315436 9.960463 
L 189.475517 12.168201 
L 189.576873 11.159763 
L 189.655866 9.118094 
L 189.738019 9.237759 
L 189.776048 9.542932 
L 189.818883 8.269936 
L 189.901686 8.304643 
L 189.983962 8.273735 
L 190.065396 7.569706 
L 190.165537 7.988845 
L 190.329612 7.336953 
L 190.411325 8.920506 
L 190.49266 8.856178 
L 190.607735 8.751984 
L 190.746184 11.827368 
L 190.838049 10.679948 
L 190.921759 10.746366 
L 191.002048 11.015814 
L 191.245945 13.566513 
L 191.332046 14.551873 
L 191.430076 14.606228 
L 191.592082 12.604878 
L 191.755415 14.759327 
L 191.841533 15.31154 
L 191.918427 13.942627 
L 192.003318 14.23254 
L 192.10389 13.049723 
L 192.183506 13.603157 
L 192.265045 12.901843 
L 192.427914 14.909835 
L 192.836394 9.942793 
L 193.019626 10.598962 
L 193.264336 8.093051 
L 193.446076 9.553571 
L 193.54137 8.815494 
L 193.615818 9.611001 
L 193.710909 9.22394 
L 193.874079 7.78591 
L 194.044165 10.109199 
L 194.120384 10.072571 
L 194.201364 9.413334 
L 194.532794 12.803604 
L 194.630166 14.516084 
L 194.874991 13.568037 
L 194.9768 13.851399 
L 195.038793 13.791226 
L 195.119265 12.993006 
L 195.201115 13.011582 
L 195.307666 13.414151 
L 195.467972 12.772179 
L 195.622237 13.036189 
L 195.718141 12.548897 
L 195.905784 13.825841 
L 196.176526 11.678449 
L 196.303712 11.920379 
L 196.420888 11.584889 
L 196.566637 12.537471 
L 196.727069 12.093353 
L 196.808637 12.452931 
L 196.91279 10.86631 
L 196.97917 11.451408 
L 197.236251 14.892561 
L 197.505849 13.203571 
L 197.584021 13.951298 
L 197.766481 13.974312 
L 197.807623 16.374283 
L 197.838968 15.078842 
L 197.930114 14.878376 
L 198.0312 13.504316 
L 198.07467 11.10615 
L 198.174456 11.440732 
L 198.34242 11.801052 
L 198.512894 8.749892 
L 198.589041 9.404412 
L 198.726615 9.483892 
L 198.773805 7.272066 
L 198.831215 7.346746 
L 198.84867 9.0901 
L 198.909829 8.431894 
L 199.279074 10.300767 
L 199.341461 11.744553 
L 199.425735 10.180117 
L 199.511432 10.301015 
L 199.672352 11.60572 
L 199.763639 10.943484 
L 199.93892 13.841802 
L 200.180036 12.361723 
L 200.301586 13.100221 
L 200.505727 11.205702 
L 200.607228 11.239896 
L 200.752012 10.156476 
L 200.873021 8.277457 
L 200.938306 8.852299 
L 201.116693 7.375471 
L 201.36251 10.875067 
L 201.585654 10.016749 
L 201.708652 12.883411 
L 201.840165 13.880204 
L 201.937208 13.352733 
L 202.004538 14.658413 
L 202.038833 14.397396 
L 202.141221 14.805558 
L 202.262563 13.693295 
L 202.304656 14.209516 
L 202.335929 14.153777 
L 202.365043 14.895791 
L 202.632038 12.217363 
L 202.821875 14.49991 
L 202.997705 13.201114 
L 203.141364 14.695618 
L 203.325092 12.566536 
L 203.406449 13.223816 
L 203.467322 15.122986 
L 203.670792 13.238147 
L 203.830673 13.604682 
L 203.895027 13.211648 
L 203.977316 10.970399 
L 204.05762 11.536411 
L 204.139406 13.262695 
L 204.220881 12.885609 
L 204.309779 12.566005 
L 204.485997 13.498748 
L 204.653323 11.775749 
L 204.822746 12.210845 
L 204.905274 14.745003 
L 204.994689 14.447004 
L 205.280634 11.840707 
L 205.440719 11.923804 
L 205.586966 14.87979 
L 205.851885 12.054075 
L 206.014809 12.521357 
L 206.157924 10.943256 
L 206.260042 11.434875 
L 206.484595 9.535756 
L 206.566055 9.869729 
L 206.770247 9.001774 
L 206.873445 9.19841 
L 206.973867 11.025593 
L 207.015413 10.053364 
L 207.095035 8.875464 
L 207.259153 10.550235 
L 207.360423 10.020181 
L 207.523172 13.579908 
L 207.604057 13.077592 
L 207.749684 14.077793 
L 207.850179 12.476846 
L 207.910669 12.522621 
L 208.011782 13.348033 
L 208.077092 12.936577 
L 208.175707 14.086524 
L 208.216107 13.383699 
L 208.279634 13.391058 
L 208.36078 12.306591 
L 208.440128 13.059596 
L 208.524167 11.724964 
L 208.80646 12.499421 
L 208.911868 12.711208 
L 208.970338 11.630401 
L 209.112268 12.915809 
L 209.176575 10.873412 
L 209.213613 11.63573 
L 209.396895 12.013569 
L 209.462208 12.090116 
L 209.613752 11.194606 
L 209.706129 7.39967 
L 209.889609 7.09098 
L 209.971173 8.088309 
L 210.052582 7.999981 
L 210.381388 9.980972 
L 210.631858 13.712625 
L 210.8082 12.865186 
L 210.900069 13.651718 
L 210.972603 13.189706 
L 211.217149 14.916138 
L 211.31886 14.160004 
L 211.480359 12.247732 
L 211.745328 14.854585 
L 211.806565 14.771516 
L 211.894654 13.821162 
L 211.991414 14.13123 
L 212.099705 12.590469 
L 212.233488 14.914152 
L 212.397279 15.73184 
L 212.498384 13.799267 
L 212.60066 12.736527 
L 212.723514 13.318291 
L 212.745912 13.297871 
L 212.82384 13.033644 
L 212.950379 13.904822 
L 212.987434 13.192917 
L 213.171293 13.241691 
L 213.354166 16.417671 
L 213.517123 15.961527 
L 213.845625 19.152335 
L 213.947823 19.774058 
L 214.008894 18.310665 
L 214.09044 18.524312 
L 214.186373 17.412879 
L 214.273237 18.633921 
L 214.523734 14.934443 
L 214.764686 13.735084 
L 214.845261 14.56662 
L 215.069678 12.042403 
L 215.090206 10.284997 
L 215.191247 11.956411 
L 215.273686 11.854872 
L 215.357033 11.886224 
L 215.436795 12.131538 
L 215.679922 10.857482 
L 215.765702 10.978005 
L 215.966089 12.444348 
L 216.026983 11.119095 
L 216.198389 12.109596 
L 216.312884 12.212045 
L 216.399047 11.662393 
L 216.457768 11.887328 
L 216.536473 11.634638 
L 216.617972 12.189975 
L 216.73997 11.400608 
L 216.885218 12.502553 
L 216.964545 11.830671 
L 217.291573 13.774085 
L 217.555417 18.2926 
L 217.6361 17.476361 
L 217.703821 18.41153 
L 217.799728 17.740145 
L 217.881543 17.867035 
L 217.962327 17.493258 
L 218.067844 17.531619 
L 218.268386 15.302301 
L 218.391298 11.383153 
L 218.494157 11.461063 
L 218.59514 11.926651 
L 218.884816 8.544004 
L 219.144188 10.30017 
L 219.288639 11.139463 
L 219.327517 10.38066 
L 219.409587 10.425129 
L 219.482457 10.377079 
L 219.572462 11.24692 
L 219.756161 10.643399 
L 219.816872 10.944351 
L 219.979188 10.176062 
L 220.068512 10.158565 
L 220.151796 12.288805 
L 220.244678 11.634254 
L 220.325592 13.180974 
L 220.468076 13.424398 
L 220.550958 13.25082 
L 220.653128 12.040023 
L 220.737186 11.920089 
L 220.958849 12.744242 
L 221.020255 11.878273 
L 221.426979 15.681288 
L 221.590328 17.239012 
L 221.692738 17.529973 
L 221.855014 15.521615 
L 221.997555 14.55922 
L 222.181019 12.79354 
L 222.263548 12.421996 
L 222.344505 12.506134 
L 222.425663 13.459506 
L 222.507656 11.828266 
L 222.936728 17.02895 
L 223.119073 15.984938 
L 223.328714 14.480217 
L 223.364404 15.544217 
L 223.505731 14.341117 
L 223.629148 10.965834 
L 223.71255 11.225675 
L 223.77148 10.565218 
L 223.954877 12.634301 
L 224.036883 12.423386 
L 224.202527 10.298216 
L 224.444217 13.054927 
L 224.612781 9.914849 
L 224.710081 9.056249 
L 224.984138 10.842848 
L 225.036787 12.528488 
L 225.14075 11.352175 
L 225.224441 11.752827 
L 225.407236 15.287619 
L 225.467947 13.294683 
L 225.629075 13.1867 
L 225.724119 10.913935 
L 225.877963 9.373014 
L 225.979621 10.721852 
L 226.059695 10.638936 
L 226.228467 10.467329 
L 226.392013 13.468533 
L 226.666254 16.090881 
L 226.82055 15.420879 
L 226.900956 15.009053 
L 227.043684 15.152423 
L 227.145367 12.537034 
L 227.247512 13.569814 
L 227.329078 13.456783 
L 227.391965 13.877977 
L 227.49252 12.666526 
L 227.575119 13.147899 
L 227.818978 10.454913 
L 227.992384 13.022573 
L 228.08503 12.535427 
L 228.19836 12.691021 
L 228.311157 13.129197 
L 228.351144 14.668718 
L 228.454217 14.534201 
L 228.515405 15.247793 
L 228.576318 15.14448 
L 228.69851 15.857598 
L 228.759823 14.407734 
L 228.842956 14.711985 
L 229.413418 10.429926 
L 229.43301 11.860727 
L 229.515191 11.67932 
L 229.599779 13.109237 
L 229.680573 12.668979 
L 229.945426 14.488731 
L 230.097943 13.301695 
L 230.18962 13.648294 
L 230.271311 13.997507 
L 230.435816 11.732327 
L 230.516622 11.91469 
L 230.645137 11.560026 
L 230.701195 10.997172 
L 230.946209 14.0403 
L 231.047126 12.385168 
L 231.158639 12.954424 
L 231.174139 11.60699 
L 231.198009 12.510335 
L 231.360079 15.051547 
L 231.441479 14.895594 
L 231.705662 12.469855 
L 231.869267 12.128477 
L 232.215153 7.332134 
L 232.459421 7.529685 
L 233.092891 14.260823 
L 233.214743 12.802434 
L 233.295496 13.46359 
L 233.664058 11.244758 
L 233.795491 11.909243 
L 233.846112 12.794104 
L 233.886972 12.069201 
L 234.05471 13.041493 
L 234.137495 10.374052 
L 234.315084 11.559829 
L 234.436857 11.070062 
L 234.68306 7.830874 
L 234.744502 8.518653 
L 234.806649 7.626716 
L 234.932151 7.539264 
L 235.003544 9.373737 
L 235.192998 7.056475 
L 235.236261 7.211467 
L 235.502691 12.674636 
L 235.621211 11.321446 
L 235.744351 12.195741 
L 235.827689 10.457304 
L 235.908053 11.657133 
L 235.991076 11.331514 
L 236.116129 11.5851 
L 236.179231 9.412685 
L 236.267291 9.987431 
L 236.376544 8.613065 
L 236.501059 10.027161 
L 236.599271 10.256217 
L 236.842415 12.287385 
L 236.927119 11.079787 
L 236.943699 11.783587 
L 237.026763 11.640906 
L 237.437081 8.750016 
L 237.616181 9.670341 
L 237.749955 10.265079 
L 237.902167 13.491992 
L 238.005507 13.813472 
L 238.065477 13.091749 
L 238.106131 13.762605 
L 238.352022 15.366176 
L 238.595374 15.151183 
L 238.698137 13.969334 
L 238.902284 14.774668 
L 239.027031 14.129559 
L 239.146536 13.662391 
L 239.251195 13.775335 
L 239.288901 13.995914 
L 239.411509 13.27446 
L 239.620473 11.234093 
L 239.762422 11.794517 
L 239.782911 12.391827 
L 239.851109 10.158456 
L 239.887393 10.456608 
L 239.985898 10.080915 
L 240.047161 10.807095 
L 240.211004 8.987599 
L 240.33256 11.039899 
L 240.414424 10.573654 
L 240.638236 13.330107 
L 240.721863 12.189626 
L 240.809042 12.626572 
L 240.884011 11.853047 
L 241.066003 12.05167 
L 241.1306 13.356141 
L 241.147534 11.97214 
L 241.310278 12.432762 
L 241.493856 12.175631 
L 241.557631 14.043173 
L 241.800985 13.091029 
L 242.083335 15.008713 
L 242.158968 12.518457 
L 242.237894 12.419525 
L 242.3809 12.513473 
L 242.421529 11.453725 
L 242.564501 13.978822 
L 242.734917 11.489099 
L 242.828728 11.615943 
L 242.920461 9.795068 
L 242.991248 11.249971 
L 243.102673 10.84057 
L 243.263834 12.604064 
L 243.401964 12.283254 
L 243.500581 14.506008 
L 243.768529 17.802185 
L 243.830707 19.631354 
L 243.910912 19.152661 
L 244.176186 16.609936 
L 244.420643 13.308255 
L 244.589914 13.975677 
L 244.607479 13.970149 
L 244.749201 11.491864 
L 244.766932 12.394537 
L 244.901706 12.811167 
L 245.04285 15.348542 
L 245.136504 15.389057 
L 245.243126 15.845169 
L 245.257347 15.80849 
L 245.28035 16.967391 
L 245.870134 12.780115 
L 245.950017 12.947678 
L 246.154426 11.964288 
L 246.523383 13.413665 
L 246.605072 12.864523 
L 247.05075 15.824423 
L 247.173468 15.354878 
L 247.214002 14.611612 
L 247.540701 15.550915 
L 247.623506 15.360718 
L 247.785548 12.928768 
L 247.887959 11.163985 
L 247.969019 11.539005 
L 248.151802 13.815667 
L 248.217449 14.489521 
L 248.294381 14.307144 
L 248.397391 14.232195 
L 248.558874 13.688435 
L 248.807466 18.066873 
L 248.888438 17.571908 
L 248.987756 15.92991 
L 249.068975 16.233552 
L 249.149714 17.444803 
L 249.231696 16.698873 
L 249.314218 16.877142 
L 249.415664 17.249828 
L 249.688168 13.644301 
L 249.992896 8.850385 
L 250.071265 8.941428 
L 250.154687 9.298227 
L 250.235996 8.041248 
L 250.318359 8.936848 
L 250.450115 7.99855 
L 250.487521 8.303772 
L 250.664825 11.069102 
L 250.850308 13.57282 
L 250.911025 13.105578 
L 251.094164 15.035526 
L 251.174825 14.225395 
L 251.318026 15.31103 
L 251.527869 13.010043 
L 251.828221 8.244692 
L 252.092884 10.45913 
L 252.194207 12.961177 
L 252.284466 11.603322 
L 252.338528 11.665966 
L 252.423339 12.57208 
L 252.603626 11.259934 
L 252.705542 11.349333 
L 252.846722 9.353024 
L 252.948627 9.557699 
L 253.070818 9.238295 
L 253.481819 13.085888 
L 253.665574 15.738842 
L 253.787637 15.466255 
L 253.973638 13.401181 
L 254.072704 13.449732 
L 254.114171 11.64607 
L 254.215384 12.4483 
L 254.439588 8.682441 
L 254.601676 8.300891 
L 254.663273 7.327296 
L 254.703797 9.098506 
L 254.791033 8.540989 
L 254.881155 8.173607 
L 255.218282 12.855888 
L 255.295063 12.670156 
L 255.460204 14.663564 
L 255.559932 13.49398 
L 255.80567 16.89072 
L 255.886463 16.989996 
L 256.052625 13.78006 
L 256.158155 15.261231 
L 256.319169 13.57568 
L 256.33682 14.307839 
L 256.402403 15.562416 
L 256.561318 13.646886 
L 256.750585 11.155067 
L 256.918062 13.216293 
L 256.999095 11.701828 
L 257.06191 12.320961 
L 257.223369 10.558951 
L 257.40698 12.392575 
L 257.578936 13.424355 
L 257.658629 13.314254 
L 257.797981 13.152326 
L 257.814443 13.737311 
L 257.895897 13.561814 
L 258.018552 12.430227 
L 258.078948 12.476245 
L 258.223793 12.114431 
L 258.326386 12.661313 
L 258.430448 11.943703 
L 258.491274 13.112613 
L 258.631144 13.05882 
L 258.673452 12.367855 
L 258.998429 15.352436 
L 259.079818 13.037974 
L 259.164992 13.595021 
L 259.278553 14.166861 
L 259.327777 13.090426 
L 259.426527 13.431019 
L 259.510113 13.073117 
L 259.590637 12.118921 
L 259.670498 13.446128 
L 259.855447 12.007233 
L 259.936795 13.876255 
L 260.107949 11.665718 
L 260.18021 12.383493 
L 260.267577 11.369455 
L 260.446206 12.18931 
L 260.514811 12.111856 
L 260.635882 13.921902 
L 260.691276 13.084763 
L 260.935186 15.970371 
L 261.282099 18.381398 
L 261.852076 11.398131 
L 261.953858 11.306952 
L 262.625455 16.544741 
L 262.707554 16.052439 
L 262.789395 16.320004 
L 262.891484 16.012251 
L 263.135119 13.787151 
L 263.21834 14.761562 
L 263.408052 13.622787 
L 263.625828 14.456087 
L 263.726543 13.863636 
L 263.807169 12.252447 
L 263.890698 13.329302 
L 263.970329 13.215085 
L 264.057281 12.247709 
L 264.156004 12.517928 
L 264.240085 12.225854 
L 264.505117 9.542613 
L 264.565769 11.149717 
L 264.709199 11.590556 
L 264.769888 12.504765 
L 264.832423 11.420137 
L 264.933371 12.178645 
L 265.077639 11.158375 
L 265.16507 12.920624 
L 265.321489 11.582244 
L 265.402957 9.30789 
L 265.566925 10.563323 
L 265.607591 9.395367 
L 265.668289 10.373614 
L 265.811023 10.305433 
L 266.157793 15.164589 
L 266.245587 14.698359 
L 266.422238 14.229161 
L 266.503802 14.840321 
L 266.585252 14.086011 
L 266.668418 15.738974 
L 266.993116 11.624354 
L 267.113654 12.890677 
L 267.174307 11.363192 
L 267.262179 12.724789 
L 267.581777 8.769574 
L 267.703628 10.719043 
L 268.115012 8.510002 
L 268.200748 8.645065 
L 268.273717 9.69797 
L 268.417379 9.792045 
L 268.437921 9.702303 
L 268.523766 9.159171 
L 268.620259 9.533501 
L 268.848004 12.719388 
L 268.947528 11.882576 
L 269.193266 13.799839 
L 269.333904 12.458702 
L 269.375168 13.648504 
L 269.455753 13.559069 
L 269.558243 12.930353 
L 269.661676 14.776729 
L 269.700788 14.033095 
L 269.817957 14.195465 
L 269.952161 13.812811 
L 270.082205 14.349594 
L 270.124459 12.465861 
L 270.142738 13.294451 
L 270.292165 14.733598 
L 270.380777 14.195363 
L 270.45307 12.478104 
L 270.617067 14.601654 
L 270.73849 14.414261 
L 270.819758 14.47161 
L 270.882799 14.740502 
L 271.004118 17.682934 
L 271.047665 17.081984 
L 271.206696 16.827905 
L 271.308904 18.069083 
L 271.471482 17.475464 
L 271.635833 16.278452 
L 271.723803 16.022251 
L 271.80112 14.446558 
L 271.879544 15.716457 
L 272.225391 12.382485 
L 272.389843 13.670286 
L 272.573162 12.812428 
L 272.653906 13.124383 
L 272.816565 10.017827 
L 272.897744 10.148217 
L 272.987056 11.373879 
L 273.16632 10.283569 
L 273.244095 10.516443 
L 273.570327 14.303187 
L 273.657982 15.120345 
L 273.8159 14.192683 
L 273.918374 14.017172 
L 274.079255 11.935939 
L 274.161123 11.74386 
L 274.244484 11.994646 
L 274.336513 11.169323 
L 274.406738 11.459038 
L 274.507876 12.214667 
L 274.591157 13.85842 
L 274.673315 12.435415 
L 274.752046 12.695587 
L 274.915805 14.209561 
L 275.080172 11.732325 
L 275.183165 11.994272 
L 275.429239 11.2922 
L 275.508764 12.521913 
L 275.614084 12.244923 
L 275.71266 12.776892 
L 275.793395 12.842041 
L 275.836884 14.407158 
L 275.936107 14.316187 
L 276.039394 13.787809 
L 276.100959 14.026621 
L 276.221954 14.936783 
L 276.313177 14.100077 
L 276.349742 14.999508 
L 276.447019 14.696826 
L 276.528661 15.178048 
L 276.610945 14.020464 
L 276.691261 14.371266 
L 276.772261 14.562386 
L 276.875487 15.532154 
L 276.936766 15.153448 
L 276.955877 10.627687 
L 277.165483 14.50133 
L 277.242552 13.530497 
L 277.282164 14.257833 
L 277.363626 14.210948 
L 277.70444 17.087636 
L 277.872282 17.132391 
L 277.974864 17.25138 
L 278.035991 17.64926 
L 278.118952 15.604273 
L 278.322149 15.359819 
L 278.402421 14.422131 
L 278.526328 14.413055 
L 278.544503 14.557221 
L 278.707607 12.687349 
L 278.790779 13.340094 
L 278.891108 13.119229 
L 278.992969 14.969817 
L 279.054541 14.362167 
L 279.200087 14.291844 
L 279.31068 11.81852 
L 279.465313 9.972695 
L 279.72753 9.20289 
L 279.796138 7.950553 
L 279.891657 8.03824 
L 280.035668 7.446844 
L 280.164445 9.087779 
L 280.222306 10.136305 
L 280.321064 9.762925 
L 280.430569 9.975809 
L 280.503324 9.788661 
L 280.607512 11.765833 
L 280.646166 10.45444 
L 280.789946 11.303833 
L 280.811312 11.016436 
L 280.932685 10.36866 
L 281.156765 11.533589 
L 281.339406 12.11522 
L 281.421092 10.07576 
L 281.482851 12.307735 
L 281.584465 11.705625 
L 281.68651 12.436156 
L 281.747593 10.835317 
L 281.828857 10.930639 
L 282.019025 10.719012 
L 282.09356 10.554314 
L 282.23709 11.163471 
L 282.319826 11.063125 
L 282.441557 9.267675 
L 282.521946 9.574979 
L 282.847591 11.504497 
L 283.052235 9.903031 
L 283.25728 12.537965 
L 283.357422 11.73244 
L 283.438861 12.39962 
L 283.520762 12.01052 
L 283.663113 11.933643 
L 283.765825 14.379981 
L 283.846596 14.53193 
L 284.132811 13.120454 
L 284.275193 13.660387 
L 284.378286 12.907722 
L 284.445339 14.555528 
L 284.552041 14.064473 
L 284.648943 14.667206 
L 284.767248 14.047094 
L 284.788627 15.022665 
L 284.911052 14.743174 
L 284.950507 14.221352 
L 285.174282 15.365006 
L 285.280694 16.638966 
L 285.296447 16.399432 
L 285.378726 16.431912 
L 285.483448 15.625118 
L 285.706081 17.134527 
L 285.787312 17.293608 
L 286.133137 13.854034 
L 286.305456 11.464078 
L 286.540829 9.875602 
L 286.806691 11.480335 
L 286.969862 10.227592 
L 286.988965 10.377348 
L 287.133232 12.921677 
L 287.72363 16.149905 
L 287.821052 15.766467 
L 288.064618 17.014441 
L 288.573398 12.790248 
L 288.655005 13.692771 
L 288.899997 10.440434 
L 289.165629 12.215329 
L 289.411074 13.854901 
L 289.574944 12.511323 
L 289.656668 13.02645 
L 289.755791 14.698405 
L 289.83699 14.447824 
L 289.919216 15.423332 
L 290.000636 14.260523 
L 290.091162 14.61589 
L 290.754572 8.30561 
L 290.856922 10.730304 
L 290.938407 8.052779 
L 291.431273 13.858321 
L 291.528811 13.022087 
L 291.628366 13.55253 
L 291.875236 9.208123 
L 291.978316 9.633301 
L 292.038419 8.304416 
L 292.201034 9.588143 
L 292.264122 9.16168 
L 292.369632 9.728896 
L 292.467032 9.185026 
L 292.691129 12.97385 
L 292.803124 13.33378 
L 292.92622 14.362495 
L 293.068363 12.712413 
L 293.149798 12.678834 
L 293.373808 14.464097 
L 293.537784 15.009943 
L 293.700034 13.321426 
L 293.802386 13.899067 
L 293.984663 16.777861 
L 294.046286 15.751668 
L 294.209485 16.310242 
L 294.392049 14.260528 
L 294.514044 15.135011 
L 294.555008 16.406904 
L 294.67754 15.688099 
L 294.840971 13.844465 
L 294.902307 15.022864 
L 295.066477 13.699784 
L 295.16593 14.341267 
L 295.230578 15.550742 
L 295.309672 15.077993 
L 295.492999 14.852877 
L 295.678766 15.099179 
L 295.818124 13.919926 
L 295.908423 14.100369 
L 295.99147 14.92668 
L 296.240748 12.521414 
L 296.323907 13.849075 
L 296.418992 9.265822 
L 296.501228 9.294824 
L 296.585198 9.056743 
L 296.788155 8.063354 
L 296.872481 7.823967 
L 297.072517 9.231029 
L 297.27052 10.330201 
L 297.337357 13.051323 
L 297.382434 11.633145 
L 297.419259 11.26183 
L 297.50041 11.743535 
L 297.624919 11.198664 
L 297.684536 11.230906 
L 297.767261 13.136469 
L 297.848784 13.009815 
L 297.973939 13.326547 
L 298.113783 11.796225 
L 298.182843 11.961343 
L 298.258144 11.829045 
L 298.33854 12.688623 
L 298.48174 12.340186 
L 298.667652 10.042536 
L 298.719015 10.37622 
L 298.788584 9.464864 
L 298.937924 10.795389 
L 299.093362 11.908492 
L 299.113668 10.012335 
L 299.256075 9.724895 
L 299.308093 9.938161 
L 299.358261 11.071659 
L 299.441513 10.362522 
L 299.524139 10.454871 
L 299.728446 9.426884 
L 299.788421 9.728723 
L 299.859322 9.689099 
L 299.954586 12.344136 
L 300.154525 12.619059 
L 300.216459 11.640066 
L 300.322363 12.293023 
L 300.461218 11.017185 
L 300.625557 11.898102 
L 300.820272 10.966468 
L 300.902071 11.457212 
L 301.014719 10.567344 
L 301.057554 11.061776 
L 301.221082 13.226602 
L 301.401455 14.364325 
L 301.544034 13.044274 
L 301.631492 14.237058 
L 301.749073 13.862998 
L 301.809017 16.551046 
L 301.912021 16.325439 
L 302.03417 15.614057 
L 302.07442 14.22627 
L 302.137467 14.760618 
L 302.281417 14.770601 
L 302.320943 14.912426 
L 302.427265 15.816712 
L 302.645343 12.132009 
L 302.828861 13.349516 
L 302.972035 13.462724 
L 303.135429 13.357451 
L 303.175981 13.470854 
L 303.33863 11.045909 
L 303.399891 11.291936 
L 303.485744 11.786363 
L 303.645802 10.42815 
L 303.665057 11.683842 
L 303.746968 11.465849 
L 303.911509 8.934988 
L 304.094483 10.184362 
L 304.155079 12.287937 
L 304.277497 12.260261 
L 304.35864 12.084577 
L 304.609764 9.832715 
L 304.708662 10.231863 
L 305.133074 8.313893 
L 305.214562 9.510921 
L 305.276835 7.883225 
L 305.568147 10.097172 
L 305.581926 9.670848 
L 305.764357 11.141787 
L 305.847029 11.099664 
L 305.957647 10.355172 
L 306.016252 11.989449 
L 306.096532 11.864755 
L 306.193718 11.791002 
L 306.295957 13.512976 
L 306.35628 13.050742 
L 306.778547 11.17659 
L 306.866145 12.213767 
L 306.947289 12.077469 
L 307.076634 13.278068 
L 307.192566 11.465008 
L 307.375685 13.658959 
L 307.619821 14.70252 
L 307.701865 14.627988 
L 307.783124 15.431565 
L 307.867977 15.068965 
L 307.947741 14.179295 
L 308.028817 17.038323 
L 308.133092 16.249696 
L 308.292475 16.068417 
L 308.660176 13.676103 
L 308.720534 13.664911 
L 308.822561 14.254836 
L 308.884058 11.949782 
L 308.968124 12.596965 
L 309.127647 12.642916 
L 309.230139 14.655404 
L 309.562207 11.699104 
L 309.830101 13.259977 
L 309.992021 12.212006 
L 310.214817 10.230927 
L 310.319184 12.291174 
L 310.481171 11.956293 
L 310.603966 10.438063 
L 310.748399 11.492026 
L 310.875643 11.391625 
L 310.970777 10.494654 
L 310.991458 12.611376 
L 311.104492 12.461373 
L 311.17468 11.135558 
L 311.357813 13.021189 
L 311.734914 8.905751 
L 311.755655 9.44506 
L 311.934459 7.265624 
L 311.995878 7.868146 
L 312.240545 6.751276 
L 312.344019 10.313661 
L 312.509859 11.670382 
L 312.591823 10.670489 
L 312.795484 12.185318 
L 312.874057 12.070824 
L 312.874213 14.29433 
L 312.942889 12.208547 
L 313.283744 8.561806 
L 313.346348 9.024153 
L 313.445723 8.87086 
L 313.577386 7.818106 
L 313.610113 8.633758 
L 313.6938 7.270901 
L 313.833446 7.592318 
L 313.875046 9.492137 
L 314.016498 9.893243 
L 314.383028 12.957352 
L 314.48748 12.846613 
L 314.539948 13.904283 
L 314.770134 11.270641 
L 314.873434 12.560867 
L 315.03519 11.301129 
L 315.117108 12.642567 
L 315.380904 10.071305 
L 315.483145 11.888513 
L 315.545134 10.844969 
L 315.654069 11.417301 
L 315.741756 10.276765 
L 315.749302 10.502301 
L 315.810477 11.084669 
L 315.876944 10.658644 
L 315.973811 9.296009 
L 316.177535 11.051044 
L 316.219648 10.529565 
L 316.384125 10.375052 
L 316.462423 10.79367 
L 316.543195 10.373231 
L 316.686362 8.015854 
L 316.749919 8.599589 
L 316.830894 9.682057 
L 316.889612 9.417742 
L 316.971312 9.215706 
L 317.134642 11.00547 
L 317.219041 12.473539 
L 317.338447 11.235746 
L 317.426166 11.282715 
L 317.569456 14.047191 
L 317.815913 16.36751 
L 317.992977 16.217197 
L 318.07489 15.89302 
L 318.154037 16.505906 
L 318.2766 16.344777 
L 319.029931 9.447497 
L 319.192446 11.155225 
L 319.294775 10.085731 
L 319.498286 14.317198 
L 319.58057 13.753112 
L 320.089866 18.279658 
L 320.255716 15.581182 
L 320.375529 16.400443 
L 320.437323 15.9682 
L 320.582216 15.81698 
L 320.746319 14.704061 
L 320.864718 12.183748 
L 320.997861 12.275811 
L 321.191173 10.935461 
L 321.354021 11.5679 
L 321.435967 12.6866 
L 321.558886 12.680486 
L 321.599004 12.523549 
L 321.701065 12.700906 
L 321.762562 11.864537 
L 321.864965 12.460506 
L 322.070119 12.032118 
L 322.113246 12.322894 
L 322.37401 8.890106 
L 322.478125 9.480515 
L 322.556927 8.900463 
L 322.823984 11.411636 
L 322.864226 11.295477 
L 322.945316 10.47823 
L 323.067001 10.822837 
L 323.127817 11.644421 
L 323.231765 11.509136 
L 323.456753 8.372219 
L 323.537114 7.85089 
L 323.555508 8.221887 
L 323.761467 8.986153 
L 324.226471 14.925408 
L 324.330575 14.868917 
L 324.622184 12.757197 
L 324.720522 10.870232 
L 324.807192 10.234718 
L 324.901003 11.26864 
L 325.065337 10.282298 
L 325.308323 12.667762 
L 325.409688 11.769887 
L 325.674704 14.168177 
L 325.899191 11.679563 
L 326.2467 9.730986 
L 326.429849 10.371777 
L 326.592088 9.210907 
L 326.968673 12.734566 
L 327.091262 13.417766 
L 327.172575 13.40855 
L 327.258814 11.835066 
L 327.459775 13.925725 
L 327.522517 13.85053 
L 327.626014 12.23625 
L 327.673944 12.271538 
L 328.013574 10.748766 
L 328.134957 10.614701 
L 328.339165 13.627815 
L 328.440353 13.43042 
L 328.503899 12.750514 
L 328.603373 13.046457 
L 328.79322 13.86277 
L 328.84785 12.840239 
L 328.929526 13.975061 
L 329.024339 13.241039 
L 329.193366 9.376938 
L 329.277517 9.670237 
L 329.357302 9.876366 
L 329.441729 8.592404 
L 329.523921 8.657194 
L 330.031499 13.37247 
L 330.115476 13.325793 
L 330.132429 15.650093 
L 330.193465 12.98479 
L 330.277891 15.045817 
L 330.358798 14.923974 
L 330.544791 13.890015 
L 330.734963 12.983907 
L 330.786278 10.960906 
L 330.897243 10.831607 
L 330.971141 10.413028 
L 331.045086 11.375091 
L 331.21897 9.818929 
L 331.300535 10.225967 
L 331.541202 8.796233 
L 331.624366 10.015743 
L 331.78777 8.328718 
L 331.874735 9.121622 
L 332.051341 8.376089 
L 332.133108 9.468284 
L 332.215579 9.210326 
L 332.297339 9.115656 
L 332.643591 12.089328 
L 332.826182 10.223869 
L 332.887623 11.380064 
L 333.033392 10.945091 
L 333.152569 11.798665 
L 333.214812 13.411974 
L 333.316273 12.422289 
L 333.458127 13.308953 
L 333.527298 12.852977 
L 333.681586 15.356088 
L 333.767955 13.389022 
L 333.887058 14.822569 
L 333.988033 14.806851 
L 334.089611 13.255971 
L 334.192509 13.826371 
L 334.252425 13.392385 
L 334.317088 13.490991 
L 334.419003 13.740751 
L 334.517808 11.910254 
L 334.580062 14.126561 
L 334.682296 13.066193 
L 334.780672 13.333324 
L 334.821473 14.604751 
L 334.906313 13.969382 
L 334.985494 14.985381 
L 335.08812 14.899329 
L 335.169941 15.247435 
L 335.252283 14.569156 
L 335.392795 15.535177 
L 335.434329 15.05356 
L 335.658784 12.118593 
L 335.793628 11.861581 
L 335.952414 8.421564 
L 336.129329 8.851545 
L 336.291219 10.88992 
L 336.416294 12.252889 
L 336.514293 11.642468 
L 336.575002 11.879479 
L 336.642533 11.565127 
L 336.697379 14.272243 
L 336.779498 14.090415 
L 336.865555 14.968378 
L 337.134641 12.201928 
L 337.150274 14.214415 
L 337.229461 12.995597 
L 337.433272 13.955723 
L 337.541614 13.408028 
L 337.701092 13.848782 
L 337.820014 15.294332 
L 337.885502 14.828213 
L 338.001814 15.160514 
L 338.048999 14.491359 
L 338.135028 15.041851 
L 338.328157 13.673405 
L 338.451248 14.592342 
L 338.717461 12.891804 
L 338.756432 14.197724 
L 338.838564 11.927514 
L 338.89897 12.751656 
L 338.967445 12.53154 
L 339.12358 14.469948 
L 339.142731 14.057587 
L 339.307174 12.789228 
L 339.369968 12.875848 
L 339.47188 13.374166 
L 339.553965 13.068507 
L 339.631848 14.074726 
L 339.71727 13.737941 
L 339.795485 12.688905 
L 340.060287 14.834336 
L 340.142193 14.765367 
L 340.2468 14.693525 
L 340.427566 12.783759 
L 340.5094 13.463933 
L 340.590723 13.413685 
L 340.909791 8.640852 
L 341.004963 10.05539 
L 341.172531 9.930735 
L 341.469593 10.977748 
L 341.591374 13.799498 
L 341.654821 12.252617 
L 341.753057 14.05628 
L 341.95702 13.088492 
L 342.021471 14.197019 
L 342.247047 11.333117 
L 342.472089 11.968766 
L 342.507232 12.70254 
L 342.588427 12.159297 
L 342.670452 11.420925 
L 342.81259 11.877423 
L 342.855834 10.665837 
L 342.921149 11.130735 
L 342.998882 10.804512 
L 343.099345 10.880364 
L 343.199978 10.596533 
L 343.261762 9.949436 
L 343.343607 10.922889 
L 343.445695 8.961117 
L 343.526539 10.101969 
L 343.608946 10.094092 
L 343.751289 9.801621 
L 343.934538 12.777608 
L 344.0169 13.405727 
L 344.118109 12.342684 
L 344.180931 12.510253 
L 344.28248 15.637922 
L 344.344171 15.524282 
L 344.42488 16.395826 
L 344.527442 15.842552 
L 344.714297 13.323284 
L 344.790725 13.993135 
L 344.933458 12.840393 
L 344.996088 15.007491 
L 345.058917 14.958011 
L 345.205076 10.984191 
L 345.284534 10.221752 
L 345.368777 10.803821 
L 345.450532 12.979806 
L 345.534895 12.72924 
L 345.612499 11.900227 
L 345.714339 12.052245 
L 345.800651 11.544884 
L 346.02023 13.976141 
L 346.287168 11.833563 
L 346.406478 12.34561 
L 346.470021 12.016957 
L 346.550545 10.290269 
L 346.632967 10.868638 
L 346.71841 10.235846 
L 346.797267 10.48411 
L 346.815747 13.109994 
L 347.039994 11.587199 
L 347.128343 11.734169 
L 347.393406 14.342167 
L 347.732281 10.063718 
L 347.810157 10.173245 
L 347.905793 10.774262 
L 348.080606 9.544329 
L 348.140083 10.310471 
L 348.236275 9.861237 
L 348.415196 12.78231 
L 348.496909 12.140838 
L 348.600597 11.5544 
L 348.825213 14.04439 
L 348.988746 11.502462 
L 349.068905 11.745742 
L 349.170329 11.373709 
L 349.333589 13.725311 
L 349.414737 13.546327 
L 349.537061 14.246918 
L 349.57844 13.09025 
L 349.659231 13.173058 
L 349.782655 13.470006 
L 349.987377 14.778432 
L 350.086952 14.515169 
L 350.455743 10.810634 
L 350.597584 11.366868 
L 350.679857 11.327033 
L 350.802172 11.013524 
L 350.943263 8.840795 
L 351.273188 11.436937 
L 351.456072 10.467501 
L 351.597718 9.974823 
L 351.740667 10.390559 
L 352.055868 17.308657 
L 352.11116 16.486613 
L 352.335825 17.16904 
L 352.415359 16.868577 
L 353.006016 9.451549 
L 353.047347 10.152887 
L 353.112492 11.226209 
L 353.128586 14.151774 
L 353.213246 12.231374 
L 353.311962 12.985291 
L 353.475571 12.672894 
L 353.55912 12.110211 
L 353.576453 13.961842 
L 353.617701 13.834819 
L 353.765995 13.625015 
L 353.862289 12.553894 
L 353.898007 12.629214 
L 353.991329 12.372479 
L 354.070061 13.280144 
L 354.168951 12.99833 
L 354.383087 13.762459 
L 354.475853 13.670418 
L 354.637185 14.642804 
L 354.71952 12.235353 
L 354.71952 12.235353 
" clip-path="url(#p99f925a9aa)" style="fill: none; stroke: #ff0000; stroke-opacity: 0.5; stroke-width: 2.1; stroke-linecap: square"/>
   </g>
   <g id="patch_3">
    <path d="M 23.760625 148.36327 
L 23.760625 0.72 
" style="fill: none; stroke: #000000; stroke-width: 0.8; stroke-linejoin: miter; stroke-linecap: square"/>
   </g>
   <g id="patch_4">
    <path d="M 354.71952 148.36327 
L 354.71952 0.72 
" style="fill: none; stroke: #000000; stroke-width: 0.8; stroke-linejoin: miter; stroke-linecap: square"/>
   </g>
   <g id="patch_5">
    <path d="M 23.760625 148.36327 
L 354.71952 148.36327 
" style="fill: none; stroke: #000000; stroke-width: 0.8; stroke-linejoin: miter; stroke-linecap: square"/>
   </g>
   <g id="patch_6">
    <path d="M 23.760625 0.72 
L 354.71952 0.72 
" style="fill: none; stroke: #000000; stroke-width: 0.8; stroke-linejoin: miter; stroke-linecap: square"/>
   </g>
   <g id="legend_1">
    <g id="patch_7">
     <path d="M 30.760625 143.36327 
L 104.529375 143.36327 
Q 106.529375 143.36327 106.529375 141.36327 
L 106.529375 113.00702 
Q 106.529375 111.00702 104.529375 111.00702 
L 30.760625 111.00702 
Q 28.760625 111.00702 28.760625 113.00702 
L 28.760625 141.36327 
Q 28.760625 143.36327 30.760625 143.36327 
z
" style="fill: #ffffff; opacity: 0.8; stroke: #cccccc; stroke-linejoin: miter"/>
    </g>
    <g id="line2d_25">
     <path d="M 32.760625 119.105457 
L 42.760625 119.105457 
L 52.760625 119.105457 
" style="fill: none; stroke: #0000ff; stroke-opacity: 0.5; stroke-width: 2.1; stroke-linecap: square"/>
    </g>
    <g id="text_14">
     <!-- RNEA -->
     <g transform="translate(60.760625 122.605457) scale(0.1 -0.1)">
      <defs>
       <path id="DejaVuSans-52" d="M 2841 2188 
Q 3044 2119 3236 1894 
Q 3428 1669 3622 1275 
L 4263 0 
L 3584 0 
L 2988 1197 
Q 2756 1666 2539 1819 
Q 2322 1972 1947 1972 
L 1259 1972 
L 1259 0 
L 628 0 
L 628 4666 
L 2053 4666 
Q 2853 4666 3247 4331 
Q 3641 3997 3641 3322 
Q 3641 2881 3436 2590 
Q 3231 2300 2841 2188 
z
M 1259 4147 
L 1259 2491 
L 2053 2491 
Q 2509 2491 2742 2702 
Q 2975 2913 2975 3322 
Q 2975 3731 2742 3939 
Q 2509 4147 2053 4147 
L 1259 4147 
z
" transform="scale(0.015625)"/>
       <path id="DejaVuSans-45" d="M 628 4666 
L 3578 4666 
L 3578 4134 
L 1259 4134 
L 1259 2753 
L 3481 2753 
L 3481 2222 
L 1259 2222 
L 1259 531 
L 3634 531 
L 3634 0 
L 628 0 
L 628 4666 
z
" transform="scale(0.015625)"/>
       <path id="DejaVuSans-41" d="M 2188 4044 
L 1331 1722 
L 3047 1722 
L 2188 4044 
z
M 1831 4666 
L 2547 4666 
L 4325 0 
L 3669 0 
L 3244 1197 
L 1141 1197 
L 716 0 
L 50 0 
L 1831 4666 
z
" transform="scale(0.015625)"/>
      </defs>
      <use xlink:href="#DejaVuSans-52"/>
      <use xlink:href="#DejaVuSans-4e" x="69.482422"/>
      <use xlink:href="#DejaVuSans-45" x="144.287109"/>
      <use xlink:href="#DejaVuSans-41" x="207.470703"/>
     </g>
    </g>
    <g id="line2d_26">
     <path d="M 32.760625 133.783582 
L 42.760625 133.783582 
L 52.760625 133.783582 
" style="fill: none; stroke: #ff0000; stroke-opacity: 0.5; stroke-width: 2.1; stroke-linecap: square"/>
    </g>
    <g id="text_15">
     <!-- BURNEA -->
     <g transform="translate(60.760625 137.283582) scale(0.1 -0.1)">
      <defs>
       <path id="DejaVuSans-42" d="M 1259 2228 
L 1259 519 
L 2272 519 
Q 2781 519 3026 730 
Q 3272 941 3272 1375 
Q 3272 1813 3026 2020 
Q 2781 2228 2272 2228 
L 1259 2228 
z
M 1259 4147 
L 1259 2741 
L 2194 2741 
Q 2656 2741 2882 2914 
Q 3109 3088 3109 3444 
Q 3109 3797 2882 3972 
Q 2656 4147 2194 4147 
L 1259 4147 
z
M 628 4666 
L 2241 4666 
Q 2963 4666 3353 4366 
Q 3744 4066 3744 3513 
Q 3744 3084 3544 2831 
Q 3344 2578 2956 2516 
Q 3422 2416 3680 2098 
Q 3938 1781 3938 1306 
Q 3938 681 3513 340 
Q 3088 0 2303 0 
L 628 0 
L 628 4666 
z
" transform="scale(0.015625)"/>
       <path id="DejaVuSans-55" d="M 556 4666 
L 1191 4666 
L 1191 1831 
Q 1191 1081 1462 751 
Q 1734 422 2344 422 
Q 2950 422 3222 751 
Q 3494 1081 3494 1831 
L 3494 4666 
L 4128 4666 
L 4128 1753 
Q 4128 841 3676 375 
Q 3225 -91 2344 -91 
Q 1459 -91 1007 375 
Q 556 841 556 1753 
L 556 4666 
z
" transform="scale(0.015625)"/>
      </defs>
      <use xlink:href="#DejaVuSans-42"/>
      <use xlink:href="#DejaVuSans-55" x="68.603516"/>
      <use xlink:href="#DejaVuSans-52" x="141.796875"/>
      <use xlink:href="#DejaVuSans-4e" x="211.279297"/>
      <use xlink:href="#DejaVuSans-45" x="286.083984"/>
      <use xlink:href="#DejaVuSans-41" x="349.267578"/>
     </g>
    </g>
   </g>
  </g>
 </g>
 <defs>
  <clipPath id="p99f925a9aa">
   <rect x="23.760625" y="0.72" width="330.958895" height="147.64327"/>
  </clipPath>
 </defs>
</svg>
