<?xml version="1.0" encoding="utf-8" standalone="no"?>
<!DOCTYPE svg PUBLIC "-//W3C//DTD SVG 1.1//EN"
  "http://www.w3.org/Graphics/SVG/1.1/DTD/svg11.dtd">
<svg xmlns:xlink="http://www.w3.org/1999/xlink" width="355.43952pt" height="175.43952pt" viewBox="0 0 355.43952 175.43952" xmlns="http://www.w3.org/2000/svg" version="1.1">
 <metadata>
  <rdf:RDF xmlns:dc="http://purl.org/dc/elements/1.1/" xmlns:cc="http://creativecommons.org/ns#" xmlns:rdf="http://www.w3.org/1999/02/22-rdf-syntax-ns#">
   <cc:Work>
    <dc:type rdf:resource="http://purl.org/dc/dcmitype/StillImage"/>
    <dc:date>2023-09-09T18:29:36.017508</dc:date>
    <dc:format>image/svg+xml</dc:format>
    <dc:creator>
     <cc:Agent>
      <dc:title>Matplotlib v3.7.2, https://matplotlib.org/</dc:title>
     </cc:Agent>
    </dc:creator>
   </cc:Work>
  </rdf:RDF>
 </metadata>
 <defs>
  <style type="text/css">*{stroke-linejoin: round; stroke-linecap: butt}</style>
 </defs>
 <g id="figure_1">
  <g id="patch_1">
   <path d="M 0 175.43952 
L 355.43952 175.43952 
L 355.43952 0 
L 0 0 
L 0 175.43952 
z
" style="fill: none"/>
  </g>
  <g id="axes_1">
   <g id="patch_2">
    <path d="M 23.760625 148.36327 
L 354.71952 148.36327 
L 354.71952 0.72 
L 23.760625 0.72 
L 23.760625 148.36327 
z
" style="fill: none"/>
   </g>
   <g id="matplotlib.axis_1">
    <g id="xtick_1">
     <g id="line2d_1">
      <path d="M 23.760625 148.36327 
L 23.760625 0.72 
" clip-path="url(#pb08c799f7f)" style="fill: none; stroke-dasharray: 0.8,1.32; stroke-dashoffset: 0; stroke: #000000; stroke-opacity: 0.5; stroke-width: 0.8"/>
     </g>
     <g id="line2d_2">
      <defs>
       <path id="m9485c95dab" d="M 0 0 
L 0 3.5 
" style="stroke: #000000; stroke-width: 0.8"/>
      </defs>
      <g>
       <use xlink:href="#m9485c95dab" x="23.760625" y="148.36327" style="stroke: #000000; stroke-width: 0.8"/>
      </g>
     </g>
     <g id="text_1">
      <!-- 0 -->
      <g transform="translate(20.579375 162.961708) scale(0.1 -0.1)">
       <defs>
        <path id="DejaVuSans-30" d="M 2034 4250 
Q 1547 4250 1301 3770 
Q 1056 3291 1056 2328 
Q 1056 1369 1301 889 
Q 1547 409 2034 409 
Q 2525 409 2770 889 
Q 3016 1369 3016 2328 
Q 3016 3291 2770 3770 
Q 2525 4250 2034 4250 
z
M 2034 4750 
Q 2819 4750 3233 4129 
Q 3647 3509 3647 2328 
Q 3647 1150 3233 529 
Q 2819 -91 2034 -91 
Q 1250 -91 836 529 
Q 422 1150 422 2328 
Q 422 3509 836 4129 
Q 1250 4750 2034 4750 
z
" transform="scale(0.015625)"/>
       </defs>
       <use xlink:href="#DejaVuSans-30"/>
      </g>
     </g>
    </g>
    <g id="xtick_2">
     <g id="line2d_3">
      <path d="M 74.311809 148.36327 
L 74.311809 0.72 
" clip-path="url(#pb08c799f7f)" style="fill: none; stroke-dasharray: 0.8,1.32; stroke-dashoffset: 0; stroke: #000000; stroke-opacity: 0.5; stroke-width: 0.8"/>
     </g>
     <g id="line2d_4">
      <g>
       <use xlink:href="#m9485c95dab" x="74.311809" y="148.36327" style="stroke: #000000; stroke-width: 0.8"/>
      </g>
     </g>
     <g id="text_2">
      <!-- 5 -->
      <g transform="translate(71.130559 162.961708) scale(0.1 -0.1)">
       <defs>
        <path id="DejaVuSans-35" d="M 691 4666 
L 3169 4666 
L 3169 4134 
L 1269 4134 
L 1269 2991 
Q 1406 3038 1543 3061 
Q 1681 3084 1819 3084 
Q 2600 3084 3056 2656 
Q 3513 2228 3513 1497 
Q 3513 744 3044 326 
Q 2575 -91 1722 -91 
Q 1428 -91 1123 -41 
Q 819 9 494 109 
L 494 744 
Q 775 591 1075 516 
Q 1375 441 1709 441 
Q 2250 441 2565 725 
Q 2881 1009 2881 1497 
Q 2881 1984 2565 2268 
Q 2250 2553 1709 2553 
Q 1456 2553 1204 2497 
Q 953 2441 691 2322 
L 691 4666 
z
" transform="scale(0.015625)"/>
       </defs>
       <use xlink:href="#DejaVuSans-35"/>
      </g>
     </g>
    </g>
    <g id="xtick_3">
     <g id="line2d_5">
      <path d="M 124.862993 148.36327 
L 124.862993 0.72 
" clip-path="url(#pb08c799f7f)" style="fill: none; stroke-dasharray: 0.8,1.32; stroke-dashoffset: 0; stroke: #000000; stroke-opacity: 0.5; stroke-width: 0.8"/>
     </g>
     <g id="line2d_6">
      <g>
       <use xlink:href="#m9485c95dab" x="124.862993" y="148.36327" style="stroke: #000000; stroke-width: 0.8"/>
      </g>
     </g>
     <g id="text_3">
      <!-- 10 -->
      <g transform="translate(118.500493 162.961708) scale(0.1 -0.1)">
       <defs>
        <path id="DejaVuSans-31" d="M 794 531 
L 1825 531 
L 1825 4091 
L 703 3866 
L 703 4441 
L 1819 4666 
L 2450 4666 
L 2450 531 
L 3481 531 
L 3481 0 
L 794 0 
L 794 531 
z
" transform="scale(0.015625)"/>
       </defs>
       <use xlink:href="#DejaVuSans-31"/>
       <use xlink:href="#DejaVuSans-30" x="63.623047"/>
      </g>
     </g>
    </g>
    <g id="xtick_4">
     <g id="line2d_7">
      <path d="M 175.414178 148.36327 
L 175.414178 0.72 
" clip-path="url(#pb08c799f7f)" style="fill: none; stroke-dasharray: 0.8,1.32; stroke-dashoffset: 0; stroke: #000000; stroke-opacity: 0.5; stroke-width: 0.8"/>
     </g>
     <g id="line2d_8">
      <g>
       <use xlink:href="#m9485c95dab" x="175.414178" y="148.36327" style="stroke: #000000; stroke-width: 0.8"/>
      </g>
     </g>
     <g id="text_4">
      <!-- 15 -->
      <g transform="translate(169.051678 162.961708) scale(0.1 -0.1)">
       <use xlink:href="#DejaVuSans-31"/>
       <use xlink:href="#DejaVuSans-35" x="63.623047"/>
      </g>
     </g>
    </g>
    <g id="xtick_5">
     <g id="line2d_9">
      <path d="M 225.965362 148.36327 
L 225.965362 0.72 
" clip-path="url(#pb08c799f7f)" style="fill: none; stroke-dasharray: 0.8,1.32; stroke-dashoffset: 0; stroke: #000000; stroke-opacity: 0.5; stroke-width: 0.8"/>
     </g>
     <g id="line2d_10">
      <g>
       <use xlink:href="#m9485c95dab" x="225.965362" y="148.36327" style="stroke: #000000; stroke-width: 0.8"/>
      </g>
     </g>
     <g id="text_5">
      <!-- 20 -->
      <g transform="translate(219.602862 162.961708) scale(0.1 -0.1)">
       <defs>
        <path id="DejaVuSans-32" d="M 1228 531 
L 3431 531 
L 3431 0 
L 469 0 
L 469 531 
Q 828 903 1448 1529 
Q 2069 2156 2228 2338 
Q 2531 2678 2651 2914 
Q 2772 3150 2772 3378 
Q 2772 3750 2511 3984 
Q 2250 4219 1831 4219 
Q 1534 4219 1204 4116 
Q 875 4013 500 3803 
L 500 4441 
Q 881 4594 1212 4672 
Q 1544 4750 1819 4750 
Q 2544 4750 2975 4387 
Q 3406 4025 3406 3419 
Q 3406 3131 3298 2873 
Q 3191 2616 2906 2266 
Q 2828 2175 2409 1742 
Q 1991 1309 1228 531 
z
" transform="scale(0.015625)"/>
       </defs>
       <use xlink:href="#DejaVuSans-32"/>
       <use xlink:href="#DejaVuSans-30" x="63.623047"/>
      </g>
     </g>
    </g>
    <g id="xtick_6">
     <g id="line2d_11">
      <path d="M 276.516546 148.36327 
L 276.516546 0.72 
" clip-path="url(#pb08c799f7f)" style="fill: none; stroke-dasharray: 0.8,1.32; stroke-dashoffset: 0; stroke: #000000; stroke-opacity: 0.5; stroke-width: 0.8"/>
     </g>
     <g id="line2d_12">
      <g>
       <use xlink:href="#m9485c95dab" x="276.516546" y="148.36327" style="stroke: #000000; stroke-width: 0.8"/>
      </g>
     </g>
     <g id="text_6">
      <!-- 25 -->
      <g transform="translate(270.154046 162.961708) scale(0.1 -0.1)">
       <use xlink:href="#DejaVuSans-32"/>
       <use xlink:href="#DejaVuSans-35" x="63.623047"/>
      </g>
     </g>
    </g>
    <g id="xtick_7">
     <g id="line2d_13">
      <path d="M 327.06773 148.36327 
L 327.06773 0.72 
" clip-path="url(#pb08c799f7f)" style="fill: none; stroke-dasharray: 0.8,1.32; stroke-dashoffset: 0; stroke: #000000; stroke-opacity: 0.5; stroke-width: 0.8"/>
     </g>
     <g id="line2d_14">
      <g>
       <use xlink:href="#m9485c95dab" x="327.06773" y="148.36327" style="stroke: #000000; stroke-width: 0.8"/>
      </g>
     </g>
     <g id="text_7">
      <!-- 30 -->
      <g transform="translate(320.70523 162.961708) scale(0.1 -0.1)">
       <defs>
        <path id="DejaVuSans-33" d="M 2597 2516 
Q 3050 2419 3304 2112 
Q 3559 1806 3559 1356 
Q 3559 666 3084 287 
Q 2609 -91 1734 -91 
Q 1441 -91 1130 -33 
Q 819 25 488 141 
L 488 750 
Q 750 597 1062 519 
Q 1375 441 1716 441 
Q 2309 441 2620 675 
Q 2931 909 2931 1356 
Q 2931 1769 2642 2001 
Q 2353 2234 1838 2234 
L 1294 2234 
L 1294 2753 
L 1863 2753 
Q 2328 2753 2575 2939 
Q 2822 3125 2822 3475 
Q 2822 3834 2567 4026 
Q 2313 4219 1838 4219 
Q 1578 4219 1281 4162 
Q 984 4106 628 3988 
L 628 4550 
Q 988 4650 1302 4700 
Q 1616 4750 1894 4750 
Q 2613 4750 3031 4423 
Q 3450 4097 3450 3541 
Q 3450 3153 3228 2886 
Q 3006 2619 2597 2516 
z
" transform="scale(0.015625)"/>
       </defs>
       <use xlink:href="#DejaVuSans-33"/>
       <use xlink:href="#DejaVuSans-30" x="63.623047"/>
      </g>
     </g>
    </g>
    <g id="text_8">
     <!-- Zeit [s] -->
     <g transform="translate(171.293979 172.639833) scale(0.1 -0.1)">
      <defs>
       <path id="DejaVuSans-5a" d="M 359 4666 
L 4025 4666 
L 4025 4184 
L 1075 531 
L 4097 531 
L 4097 0 
L 288 0 
L 288 481 
L 3238 4134 
L 359 4134 
L 359 4666 
z
" transform="scale(0.015625)"/>
       <path id="DejaVuSans-65" d="M 3597 1894 
L 3597 1613 
L 953 1613 
Q 991 1019 1311 708 
Q 1631 397 2203 397 
Q 2534 397 2845 478 
Q 3156 559 3463 722 
L 3463 178 
Q 3153 47 2828 -22 
Q 2503 -91 2169 -91 
Q 1331 -91 842 396 
Q 353 884 353 1716 
Q 353 2575 817 3079 
Q 1281 3584 2069 3584 
Q 2775 3584 3186 3129 
Q 3597 2675 3597 1894 
z
M 3022 2063 
Q 3016 2534 2758 2815 
Q 2500 3097 2075 3097 
Q 1594 3097 1305 2825 
Q 1016 2553 972 2059 
L 3022 2063 
z
" transform="scale(0.015625)"/>
       <path id="DejaVuSans-69" d="M 603 3500 
L 1178 3500 
L 1178 0 
L 603 0 
L 603 3500 
z
M 603 4863 
L 1178 4863 
L 1178 4134 
L 603 4134 
L 603 4863 
z
" transform="scale(0.015625)"/>
       <path id="DejaVuSans-74" d="M 1172 4494 
L 1172 3500 
L 2356 3500 
L 2356 3053 
L 1172 3053 
L 1172 1153 
Q 1172 725 1289 603 
Q 1406 481 1766 481 
L 2356 481 
L 2356 0 
L 1766 0 
Q 1100 0 847 248 
Q 594 497 594 1153 
L 594 3053 
L 172 3053 
L 172 3500 
L 594 3500 
L 594 4494 
L 1172 4494 
z
" transform="scale(0.015625)"/>
       <path id="DejaVuSans-20" transform="scale(0.015625)"/>
       <path id="DejaVuSans-5b" d="M 550 4863 
L 1875 4863 
L 1875 4416 
L 1125 4416 
L 1125 -397 
L 1875 -397 
L 1875 -844 
L 550 -844 
L 550 4863 
z
" transform="scale(0.015625)"/>
       <path id="DejaVuSans-73" d="M 2834 3397 
L 2834 2853 
Q 2591 2978 2328 3040 
Q 2066 3103 1784 3103 
Q 1356 3103 1142 2972 
Q 928 2841 928 2578 
Q 928 2378 1081 2264 
Q 1234 2150 1697 2047 
L 1894 2003 
Q 2506 1872 2764 1633 
Q 3022 1394 3022 966 
Q 3022 478 2636 193 
Q 2250 -91 1575 -91 
Q 1294 -91 989 -36 
Q 684 19 347 128 
L 347 722 
Q 666 556 975 473 
Q 1284 391 1588 391 
Q 1994 391 2212 530 
Q 2431 669 2431 922 
Q 2431 1156 2273 1281 
Q 2116 1406 1581 1522 
L 1381 1569 
Q 847 1681 609 1914 
Q 372 2147 372 2553 
Q 372 3047 722 3315 
Q 1072 3584 1716 3584 
Q 2034 3584 2315 3537 
Q 2597 3491 2834 3397 
z
" transform="scale(0.015625)"/>
       <path id="DejaVuSans-5d" d="M 1947 4863 
L 1947 -844 
L 622 -844 
L 622 -397 
L 1369 -397 
L 1369 4416 
L 622 4416 
L 622 4863 
L 1947 4863 
z
" transform="scale(0.015625)"/>
      </defs>
      <use xlink:href="#DejaVuSans-5a"/>
      <use xlink:href="#DejaVuSans-65" x="68.505859"/>
      <use xlink:href="#DejaVuSans-69" x="130.029297"/>
      <use xlink:href="#DejaVuSans-74" x="157.8125"/>
      <use xlink:href="#DejaVuSans-20" x="197.021484"/>
      <use xlink:href="#DejaVuSans-5b" x="228.808594"/>
      <use xlink:href="#DejaVuSans-73" x="267.822266"/>
      <use xlink:href="#DejaVuSans-5d" x="319.921875"/>
     </g>
    </g>
   </g>
   <g id="matplotlib.axis_2">
    <g id="ytick_1">
     <g id="line2d_15">
      <path d="M 23.760625 144.927317 
L 354.71952 144.927317 
" clip-path="url(#pb08c799f7f)" style="fill: none; stroke-dasharray: 0.8,1.32; stroke-dashoffset: 0; stroke: #000000; stroke-opacity: 0.5; stroke-width: 0.8"/>
     </g>
     <g id="line2d_16">
      <defs>
       <path id="m81ab3336dd" d="M 0 0 
L -3.5 0 
" style="stroke: #000000; stroke-width: 0.8"/>
      </defs>
      <g>
       <use xlink:href="#m81ab3336dd" x="23.760625" y="144.927317" style="stroke: #000000; stroke-width: 0.8"/>
      </g>
     </g>
     <g id="text_9">
      <!-- 0 -->
      <g transform="translate(10.398125 148.726535) scale(0.1 -0.1)">
       <use xlink:href="#DejaVuSans-30"/>
      </g>
     </g>
    </g>
    <g id="ytick_2">
     <g id="line2d_17">
      <path d="M 23.760625 105.646924 
L 354.71952 105.646924 
" clip-path="url(#pb08c799f7f)" style="fill: none; stroke-dasharray: 0.8,1.32; stroke-dashoffset: 0; stroke: #000000; stroke-opacity: 0.5; stroke-width: 0.8"/>
     </g>
     <g id="line2d_18">
      <g>
       <use xlink:href="#m81ab3336dd" x="23.760625" y="105.646924" style="stroke: #000000; stroke-width: 0.8"/>
      </g>
     </g>
     <g id="text_10">
      <!-- 1 -->
      <g transform="translate(10.398125 109.446143) scale(0.1 -0.1)">
       <use xlink:href="#DejaVuSans-31"/>
      </g>
     </g>
    </g>
    <g id="ytick_3">
     <g id="line2d_19">
      <path d="M 23.760625 66.366532 
L 354.71952 66.366532 
" clip-path="url(#pb08c799f7f)" style="fill: none; stroke-dasharray: 0.8,1.32; stroke-dashoffset: 0; stroke: #000000; stroke-opacity: 0.5; stroke-width: 0.8"/>
     </g>
     <g id="line2d_20">
      <g>
       <use xlink:href="#m81ab3336dd" x="23.760625" y="66.366532" style="stroke: #000000; stroke-width: 0.8"/>
      </g>
     </g>
     <g id="text_11">
      <!-- 2 -->
      <g transform="translate(10.398125 70.16575) scale(0.1 -0.1)">
       <use xlink:href="#DejaVuSans-32"/>
      </g>
     </g>
    </g>
    <g id="ytick_4">
     <g id="line2d_21">
      <path d="M 23.760625 27.086139 
L 354.71952 27.086139 
" clip-path="url(#pb08c799f7f)" style="fill: none; stroke-dasharray: 0.8,1.32; stroke-dashoffset: 0; stroke: #000000; stroke-opacity: 0.5; stroke-width: 0.8"/>
     </g>
     <g id="line2d_22">
      <g>
       <use xlink:href="#m81ab3336dd" x="23.760625" y="27.086139" style="stroke: #000000; stroke-width: 0.8"/>
      </g>
     </g>
     <g id="text_12">
      <!-- 3 -->
      <g transform="translate(10.398125 30.885358) scale(0.1 -0.1)">
       <use xlink:href="#DejaVuSans-33"/>
      </g>
     </g>
    </g>
    <g id="text_13">
     <!-- Kraft [N] -->
     <g transform="translate(8.318438 95.804135) rotate(-90) scale(0.1 -0.1)">
      <defs>
       <path id="DejaVuSans-4b" d="M 628 4666 
L 1259 4666 
L 1259 2694 
L 3353 4666 
L 4166 4666 
L 1850 2491 
L 4331 0 
L 3500 0 
L 1259 2247 
L 1259 0 
L 628 0 
L 628 4666 
z
" transform="scale(0.015625)"/>
       <path id="DejaVuSans-72" d="M 2631 2963 
Q 2534 3019 2420 3045 
Q 2306 3072 2169 3072 
Q 1681 3072 1420 2755 
Q 1159 2438 1159 1844 
L 1159 0 
L 581 0 
L 581 3500 
L 1159 3500 
L 1159 2956 
Q 1341 3275 1631 3429 
Q 1922 3584 2338 3584 
Q 2397 3584 2469 3576 
Q 2541 3569 2628 3553 
L 2631 2963 
z
" transform="scale(0.015625)"/>
       <path id="DejaVuSans-61" d="M 2194 1759 
Q 1497 1759 1228 1600 
Q 959 1441 959 1056 
Q 959 750 1161 570 
Q 1363 391 1709 391 
Q 2188 391 2477 730 
Q 2766 1069 2766 1631 
L 2766 1759 
L 2194 1759 
z
M 3341 1997 
L 3341 0 
L 2766 0 
L 2766 531 
Q 2569 213 2275 61 
Q 1981 -91 1556 -91 
Q 1019 -91 701 211 
Q 384 513 384 1019 
Q 384 1609 779 1909 
Q 1175 2209 1959 2209 
L 2766 2209 
L 2766 2266 
Q 2766 2663 2505 2880 
Q 2244 3097 1772 3097 
Q 1472 3097 1187 3025 
Q 903 2953 641 2809 
L 641 3341 
Q 956 3463 1253 3523 
Q 1550 3584 1831 3584 
Q 2591 3584 2966 3190 
Q 3341 2797 3341 1997 
z
" transform="scale(0.015625)"/>
       <path id="DejaVuSans-66" d="M 2375 4863 
L 2375 4384 
L 1825 4384 
Q 1516 4384 1395 4259 
Q 1275 4134 1275 3809 
L 1275 3500 
L 2222 3500 
L 2222 3053 
L 1275 3053 
L 1275 0 
L 697 0 
L 697 3053 
L 147 3053 
L 147 3500 
L 697 3500 
L 697 3744 
Q 697 4328 969 4595 
Q 1241 4863 1831 4863 
L 2375 4863 
z
" transform="scale(0.015625)"/>
       <path id="DejaVuSans-4e" d="M 628 4666 
L 1478 4666 
L 3547 763 
L 3547 4666 
L 4159 4666 
L 4159 0 
L 3309 0 
L 1241 3903 
L 1241 0 
L 628 0 
L 628 4666 
z
" transform="scale(0.015625)"/>
      </defs>
      <use xlink:href="#DejaVuSans-4b"/>
      <use xlink:href="#DejaVuSans-72" x="65.576172"/>
      <use xlink:href="#DejaVuSans-61" x="106.689453"/>
      <use xlink:href="#DejaVuSans-66" x="167.96875"/>
      <use xlink:href="#DejaVuSans-74" x="201.423828"/>
      <use xlink:href="#DejaVuSans-20" x="240.632812"/>
      <use xlink:href="#DejaVuSans-5b" x="272.419922"/>
      <use xlink:href="#DejaVuSans-4e" x="311.433594"/>
      <use xlink:href="#DejaVuSans-5d" x="386.238281"/>
     </g>
    </g>
   </g>
   <g id="line2d_23">
    <path d="M 23.760625 144.934188 
L 25.210508 144.930869 
L 25.535928 144.905324 
L 27.882467 144.982126 
L 28.046053 144.941194 
L 28.38007 144.899697 
L 28.719455 144.944882 
L 31.311831 144.905357 
L 351.112248 144.954101 
L 351.456072 144.918075 
L 354.71952 144.950413 
L 354.71952 144.950413 
" clip-path="url(#pb08c799f7f)" style="fill: none; stroke: #0000ff; stroke-opacity: 0.5; stroke-width: 2.1; stroke-linecap: square"/>
   </g>
   <g id="line2d_24">
    <path d="M 23.760625 21.201656 
L 23.823183 21.175153 
L 23.935733 20.100764 
L 24.00659 22.360937 
L 24.132448 19.094136 
L 24.192763 20.252086 
L 24.276805 21.611343 
L 24.415144 16.700808 
L 24.497167 18.19238 
L 24.688173 14.02629 
L 24.92515 20.692757 
L 25.006073 21.971828 
L 25.088114 18.824778 
L 25.210508 20.411812 
L 25.535928 29.469611 
L 25.881353 21.469832 
L 26.08524 24.435074 
L 26.21005 24.064504 
L 26.37165 26.481911 
L 26.514124 27.457098 
L 26.616127 34.034771 
L 26.698566 34.326491 
L 26.861533 33.615544 
L 27.125025 22.920017 
L 27.206464 23.307901 
L 27.278716 24.958458 
L 27.288254 23.756753 
L 27.615895 22.06846 
L 27.703006 19.957315 
L 27.882467 29.930294 
L 28.046053 29.191266 
L 28.12738 30.699773 
L 28.290441 24.603412 
L 28.458842 28.920685 
L 28.962338 11.663156 
L 29.085849 13.564151 
L 29.132763 16.597449 
L 29.211111 14.607154 
L 29.311899 14.951632 
L 29.393432 17.469353 
L 29.556643 15.13869 
L 29.720662 22.704106 
L 29.969324 18.865917 
L 30.067242 19.850513 
L 30.23093 16.159981 
L 30.487515 22.439825 
L 30.739785 17.242114 
L 30.918626 16.64423 
L 31.14877 20.8464 
L 31.413049 14.459659 
L 31.50373 13.806594 
L 31.657004 19.062534 
L 31.73858 17.03847 
L 31.821573 18.549643 
L 31.908879 17.781191 
L 32.007357 15.222981 
L 32.168199 20.395805 
L 32.252556 21.598159 
L 32.414672 16.37603 
L 32.577689 11.863757 
L 32.883298 17.179375 
L 32.944621 20.411175 
L 33.005759 15.842477 
L 33.148205 19.304218 
L 33.333061 31.005281 
L 33.432674 30.47617 
L 33.677397 24.12458 
L 33.865427 21.490828 
L 34.013422 16.248535 
L 34.436736 20.268614 
L 34.516678 18.994581 
L 34.605054 19.613639 
L 34.704844 23.252206 
L 34.788095 25.646106 
L 34.8775 24.771684 
L 34.890605 28.503311 
L 34.953686 21.412405 
L 35.052404 21.530671 
L 35.199052 18.857517 
L 35.304696 20.107096 
L 35.384433 19.698577 
L 35.453563 20.393939 
L 35.646427 18.951075 
L 35.720891 19.413036 
L 35.82105 20.042101 
L 35.840116 19.547008 
L 35.96619 12.340758 
L 36.082219 16.78641 
L 36.082802 16.774432 
L 36.39756 21.357073 
L 36.582685 13.188883 
L 36.845257 20.355011 
L 36.90643 18.796268 
L 37.071644 14.26915 
L 37.212914 17.351363 
L 37.402668 23.057301 
L 37.517816 22.711542 
L 37.621356 23.522621 
L 37.723579 21.260358 
L 37.856852 22.891012 
L 37.917721 21.984807 
L 38.109142 14.991098 
L 38.260876 17.677497 
L 38.333526 15.54703 
L 38.395479 16.415317 
L 38.740482 30.389774 
L 38.863743 29.269723 
L 39.035633 25.195934 
L 39.147945 25.574622 
L 39.229192 26.274778 
L 39.576335 7.124521 
L 40.08532 20.714657 
L 40.290573 16.472727 
L 40.349975 17.712674 
L 40.431827 17.678665 
L 40.512802 18.684765 
L 40.698216 14.473628 
L 40.89984 11.527834 
L 41.009454 14.136402 
L 41.102783 14.893403 
L 41.266267 25.035348 
L 41.383374 22.332695 
L 41.430343 23.185966 
L 41.637676 24.231006 
L 41.695542 23.090755 
L 41.872135 27.60542 
L 42.082347 21.187997 
L 42.143258 21.33508 
L 42.287129 18.419202 
L 42.367311 19.161762 
L 42.531452 24.259875 
L 42.715215 20.810259 
L 42.877806 26.052527 
L 42.999882 24.476181 
L 43.062169 27.907839 
L 43.183323 28.229423 
L 43.227384 26.655101 
L 43.366873 26.175352 
L 43.42792 25.348808 
L 43.489487 26.4 
L 43.632016 24.831583 
L 43.816493 21.995829 
L 44.022802 23.543453 
L 44.14714 20.835155 
L 44.248729 22.37865 
L 44.320804 20.171867 
L 44.405937 22.247 
L 44.549708 21.632881 
L 44.6626 29.127251 
L 44.74369 28.5002 
L 45.162726 23.35372 
L 45.216729 24.474937 
L 45.236388 23.707351 
L 45.318112 23.811079 
L 45.509011 22.36606 
L 45.629216 19.292315 
L 45.746367 21.328096 
L 45.911996 26.094606 
L 46.238181 29.5794 
L 46.484993 21.687931 
L 46.502861 22.817276 
L 46.583868 21.794444 
L 46.74714 24.284419 
L 46.869218 22.960572 
L 46.934544 23.047527 
L 47.013164 22.752172 
L 47.078865 20.506106 
L 47.200603 21.474004 
L 47.220071 21.188884 
L 47.364474 28.231157 
L 47.445819 27.480573 
L 47.504814 26.363745 
L 47.669901 25.478009 
L 47.790456 20.972235 
L 47.935237 25.762501 
L 48.443515 18.16617 
L 48.628034 23.027624 
L 48.774298 15.449768 
L 48.87229 18.619462 
L 49.013884 19.053406 
L 49.116894 20.119439 
L 49.136391 24.153707 
L 49.567403 22.964366 
L 50.012448 23.051225 
L 50.487792 25.859873 
L 50.932101 22.974346 
L 51.051123 16.859095 
L 51.29739 16.219733 
L 51.602527 25.545337 
L 51.624532 23.752638 
L 51.805988 19.374101 
L 51.86852 20.26825 
L 51.887668 22.689047 
L 52.175419 26.168268 
L 52.458523 21.885043 
L 52.561336 24.342432 
L 52.73205 22.298538 
L 53.091121 10.991917 
L 53.253017 12.863309 
L 53.445174 14.056096 
L 53.559067 14.378709 
L 53.579758 13.841561 
L 53.744641 23.392259 
L 53.905778 18.196571 
L 53.9885 18.469442 
L 54.190851 20.527059 
L 54.298301 20.244128 
L 54.354312 18.882905 
L 54.599804 25.260478 
L 54.676301 24.321533 
L 54.923489 17.84451 
L 55.027711 19.137493 
L 55.084034 21.508593 
L 55.165946 21.381464 
L 55.534381 16.46611 
L 55.756671 21.29998 
L 55.858339 20.620112 
L 56.021143 21.079702 
L 56.125194 18.0966 
L 56.22471 11.131022 
L 56.285464 12.808081 
L 56.449466 21.484363 
L 56.775726 14.192628 
L 56.940797 19.710003 
L 57.04064 25.512264 
L 57.20398 19.165153 
L 57.285821 19.552857 
L 57.366327 23.737028 
L 57.448467 22.782066 
L 57.590095 20.01294 
L 57.610286 20.695409 
L 57.714299 20.378571 
L 57.887989 19.424629 
L 57.888329 17.319982 
L 57.988165 20.462544 
L 58.063516 21.160981 
L 58.162769 21.012316 
L 58.293752 21.385154 
L 58.456132 31.887342 
L 58.658109 30.551294 
L 58.861846 25.522938 
L 58.88216 27.353357 
L 58.962964 25.120416 
L 59.046981 23.483813 
L 59.147004 25.609353 
L 59.390979 15.953981 
L 59.61421 20.145712 
L 59.637041 20.16239 
L 59.98528 17.275945 
L 60.143668 20.079287 
L 60.310567 23.619386 
L 60.532023 21.174378 
L 60.577034 22.161497 
L 60.81704 29.770226 
L 61.002225 30.199495 
L 61.206519 25.380906 
L 61.347068 30.604349 
L 61.571628 20.789764 
L 61.734298 21.701329 
L 61.826621 21.682919 
L 62.00296 20.870955 
L 62.060251 22.291619 
L 62.183349 19.341199 
L 62.38756 23.161983 
L 62.428641 23.704714 
L 62.510793 23.461973 
L 62.630997 22.968153 
L 62.85943 18.07364 
L 63.002602 19.492273 
L 63.088499 21.494376 
L 63.36992 12.832492 
L 63.494618 13.078403 
L 63.616323 19.55705 
L 63.676017 19.151624 
L 63.778258 22.334334 
L 63.898241 20.93592 
L 63.945439 18.989698 
L 64.105591 21.971555 
L 64.188345 20.925386 
L 64.452366 10.480325 
L 65.443801 22.570709 
L 65.534584 19.139025 
L 65.634142 24.516732 
L 65.765786 21.74503 
L 65.80296 22.119703 
L 65.924271 22.934193 
L 65.961161 21.773406 
L 66.044124 21.892707 
L 66.315843 24.741209 
L 66.414361 23.20179 
L 66.766334 11.706517 
L 66.88192 14.520863 
L 66.983514 13.622691 
L 67.088108 11.585602 
L 67.133888 8.233821 
L 67.248718 8.926109 
L 67.310084 10.719994 
L 67.463609 10.69175 
L 67.515075 8.165346 
L 67.635634 9.327877 
L 67.655757 11.249972 
L 67.78838 10.839508 
L 68.167243 4.101144 
L 68.411599 12.920351 
L 68.492463 11.817248 
L 68.742327 22.327931 
L 68.843028 22.41391 
L 69.168425 28.548738 
L 69.597994 18.839673 
L 69.679822 21.953461 
L 69.741898 20.56657 
L 70.108761 17.436685 
L 70.17362 20.049381 
L 70.273914 19.660374 
L 70.393871 18.878948 
L 70.517072 22.543904 
L 70.599301 23.652254 
L 70.68106 22.720532 
L 70.885362 17.189849 
L 70.944735 20.777688 
L 71.030155 19.637724 
L 71.088505 22.078891 
L 71.233558 23.381677 
L 71.374788 17.346961 
L 71.460565 16.777712 
L 71.68137 27.756212 
L 71.828209 27.833955 
L 71.848253 28.365975 
L 72.032043 26.284522 
L 72.19707 31.149966 
L 72.296796 30.509297 
L 72.703359 18.266587 
L 72.785154 18.220775 
L 72.953688 17.057405 
L 73.030493 17.093949 
L 73.132494 18.235773 
L 73.294482 17.68113 
L 73.464518 22.393826 
L 73.546908 19.582792 
L 73.630575 23.277874 
L 73.790144 25.373476 
L 73.949722 16.569282 
L 74.03106 18.509497 
L 74.152915 22.112368 
L 74.214364 20.720351 
L 74.397055 25.364813 
L 74.560308 16.679146 
L 74.764105 22.518548 
L 74.887264 20.212725 
L 74.972092 22.564204 
L 75.060402 22.003759 
L 75.2043 19.773513 
L 75.397555 31.284346 
L 75.825388 23.845349 
L 75.909279 24.334408 
L 76.009732 24.124384 
L 76.173566 17.038822 
L 76.315224 15.532594 
L 76.499197 15.122393 
L 76.702115 13.991869 
L 76.906153 9.401757 
L 77.028703 10.236448 
L 77.297276 17.876571 
L 77.376761 18.687635 
L 77.506639 17.097469 
L 77.744933 20.451216 
L 77.948956 20.420904 
L 78.192706 16.249075 
L 78.2757 19.834644 
L 78.37287 17.729315 
L 78.644411 24.231706 
L 78.690642 23.024376 
L 78.787899 24.758833 
L 78.929172 23.715564 
L 79.092598 25.735956 
L 79.15602 25.360823 
L 79.197889 29.71175 
L 79.26305 27.346999 
L 79.360907 25.347684 
L 79.52559 30.316697 
L 79.605287 28.076777 
L 79.769122 32.95762 
L 79.852939 29.241172 
L 80.040915 24.457952 
L 80.195982 28.205902 
L 80.367368 15.922978 
L 80.705177 21.573154 
L 80.788472 22.665189 
L 80.867588 22.257251 
L 81.033533 18.343865 
L 81.295291 29.22274 
L 81.377865 26.33501 
L 81.623614 28.717307 
L 81.707348 27.294076 
L 81.887334 30.825505 
L 81.968531 29.944005 
L 82.131161 23.50586 
L 82.213052 22.326852 
L 82.294174 24.561348 
L 82.642227 19.313585 
L 82.722685 21.796344 
L 82.805485 20.944265 
L 83.069424 26.692131 
L 83.150899 21.754706 
L 83.313442 28.242263 
L 83.395328 27.513265 
L 83.486848 30.72999 
L 83.641428 23.432249 
L 83.723823 24.611558 
L 83.84569 23.422334 
L 83.904713 21.519405 
L 83.989909 24.294644 
L 84.169342 16.047976 
L 84.232023 20.658231 
L 84.321583 18.593298 
L 84.496114 23.750338 
L 84.577692 22.051979 
L 84.661534 22.749275 
L 84.823257 22.260104 
L 85.007991 27.066661 
L 85.171928 19.923054 
L 85.428848 21.546125 
L 85.455247 21.466189 
L 85.497578 20.570621 
L 85.666117 22.733535 
L 85.767979 17.735144 
L 85.926696 18.794779 
L 86.008912 22.017686 
L 86.171712 17.891971 
L 86.377094 22.304035 
L 86.437795 20.523378 
L 86.642352 23.964469 
L 86.763667 20.447926 
L 86.92805 22.175662 
L 87.054072 22.794805 
L 87.198936 18.283549 
L 87.565088 24.817636 
L 87.604165 24.399126 
L 87.86953 18.224208 
L 87.890047 21.038531 
L 88.09361 23.994934 
L 88.23838 19.729799 
L 88.300534 19.107461 
L 88.404356 19.382546 
L 88.606183 24.072398 
L 88.686042 23.65527 
L 88.789283 18.048389 
L 88.891762 18.181454 
L 88.953274 23.933169 
L 88.971739 21.072164 
L 89.054176 19.212028 
L 89.257855 22.352444 
L 89.379367 20.754767 
L 89.460411 24.38924 
L 89.542826 22.76301 
L 89.624194 27.964083 
L 89.848316 22.907966 
L 89.932055 24.901432 
L 90.032487 23.990222 
L 90.195522 20.030965 
L 90.273089 18.013367 
L 90.298875 19.224439 
L 90.420078 19.505288 
L 90.684609 17.420793 
L 90.72507 18.036227 
L 90.847619 19.924624 
L 90.986232 20.324975 
L 91.285202 26.123804 
L 91.356373 22.302401 
L 91.52127 25.211276 
L 91.686645 19.662356 
L 91.826126 22.789709 
L 91.910076 23.266925 
L 92.081136 17.666112 
L 92.15731 19.73778 
L 92.337972 22.882251 
L 92.419683 26.919766 
L 92.507675 26.896719 
L 92.665362 23.143394 
L 92.785811 23.811588 
L 92.989292 29.542817 
L 93.030276 29.940381 
L 93.277109 22.635444 
L 93.43891 27.876598 
L 93.500942 26.83102 
L 93.665769 24.780951 
L 93.704875 20.963615 
L 93.791914 21.98966 
L 93.927357 22.442406 
L 94.049839 22.116837 
L 94.136036 22.240099 
L 94.35525 16.220174 
L 94.438975 16.295541 
L 94.518421 16.046066 
L 94.564718 19.910024 
L 94.642392 17.416285 
L 94.705402 15.661793 
L 94.869766 19.777074 
L 95.072048 26.064888 
L 95.174018 26.090968 
L 95.683884 15.196623 
L 95.826448 8.284095 
L 95.889158 7.926552 
L 96.132021 14.895964 
L 96.722507 24.119202 
L 96.887191 18.541379 
L 96.96732 20.647887 
L 97.050001 19.885077 
L 97.395311 22.409193 
L 97.497787 23.798014 
L 97.578871 21.294569 
L 97.641426 24.470331 
L 97.743059 24.013859 
L 97.827046 23.552513 
L 97.926778 25.653505 
L 98.029211 24.704555 
L 98.23566 20.392918 
L 98.396793 21.336454 
L 98.661314 17.700958 
L 98.823414 21.942342 
L 98.933006 22.035328 
L 99.154479 14.229186 
L 99.246182 12.460004 
L 99.4967 16.416009 
L 99.57871 13.978358 
L 99.668678 14.120205 
L 99.905237 17.071341 
L 99.989805 27.124867 
L 100.089294 28.963836 
L 100.170185 28.402034 
L 100.385534 29.850566 
L 100.42082 28.685581 
L 100.497198 28.962731 
L 100.679864 33.88106 
L 100.761555 32.960797 
L 100.843828 28.890319 
L 100.925086 30.186866 
L 101.006171 33.592501 
L 101.270107 31.473081 
L 101.597532 23.784766 
L 101.678832 27.474391 
L 101.879204 21.956726 
L 101.942346 23.734221 
L 102.024719 23.649895 
L 102.106079 23.647216 
L 102.273162 22.981885 
L 102.435092 25.345921 
L 102.535166 20.892445 
L 102.617729 22.886332 
L 102.697145 21.856066 
L 102.78494 16.434566 
L 102.861592 16.850983 
L 103.11361 23.139701 
L 103.189983 21.269479 
L 103.297728 21.381567 
L 103.416707 25.486227 
L 103.453561 25.201745 
L 103.53821 24.780325 
L 103.616272 24.803135 
L 103.699774 19.817577 
L 103.719291 20.960322 
L 103.781819 21.937701 
L 103.966419 18.878396 
L 104.048094 20.549791 
L 104.150779 19.859011 
L 104.209277 18.379117 
L 104.555367 24.654366 
L 104.643292 22.848216 
L 104.722374 24.520433 
L 104.845708 24.322901 
L 104.979149 23.712577 
L 105.212527 16.346207 
L 105.294119 16.975948 
L 105.45599 17.035147 
L 105.496435 19.071187 
L 105.570066 18.746553 
L 105.639706 16.074047 
L 105.803195 16.430237 
L 105.924397 15.445693 
L 106.029602 17.695099 
L 106.15026 25.311229 
L 106.333305 24.719304 
L 106.422845 22.661914 
L 106.578026 25.061924 
L 106.659108 25.764265 
L 106.843424 24.096686 
L 107.009701 18.266302 
L 107.071286 20.013091 
L 107.148558 18.734434 
L 107.250505 20.036286 
L 107.332764 22.703037 
L 107.49606 19.022143 
L 107.74125 24.505637 
L 107.761368 22.924165 
L 107.987174 19.781451 
L 108.107903 20.082955 
L 108.168614 16.598875 
L 108.259977 18.143256 
L 108.331445 17.771522 
L 108.55243 15.691379 
L 108.760089 18.555151 
L 108.922945 16.643403 
L 109.045295 18.674664 
L 109.126727 17.431234 
L 109.250037 21.46533 
L 109.372058 13.145264 
L 109.433954 14.972929 
L 109.514456 17.106017 
L 109.596615 14.011178 
L 109.699872 15.955975 
L 109.860958 11.949671 
L 109.96356 13.606076 
L 110.126226 7.688417 
L 110.146477 10.539824 
L 110.275933 15.456998 
L 110.391371 10.882536 
L 110.615897 20.725061 
L 110.737065 20.968696 
L 110.777751 20.326143 
L 110.94159 25.304785 
L 111.12366 22.217459 
L 111.307287 25.612302 
L 111.718853 17.180258 
L 111.799087 17.479277 
L 112.002503 21.532877 
L 112.042791 19.24365 
L 112.165501 19.750998 
L 112.307553 14.347008 
L 112.573467 22.378126 
L 112.675242 22.349623 
L 112.718168 19.61894 
L 112.817532 20.116729 
L 112.899292 24.936035 
L 112.980534 22.185869 
L 113.145415 22.339724 
L 113.222417 26.816625 
L 113.23807 26.375779 
L 113.42242 19.33726 
L 113.591242 24.917153 
L 113.733602 19.662727 
L 113.916217 25.537458 
L 114.080037 23.218402 
L 114.140643 23.370344 
L 114.185755 25.238593 
L 114.2631 24.462702 
L 114.426332 21.233128 
L 114.508857 24.194941 
L 114.917275 14.454678 
L 114.998298 14.845062 
L 115.100449 18.467214 
L 115.167019 17.218195 
L 115.387062 14.304689 
L 115.427589 16.319624 
L 115.533392 16.209779 
L 115.617498 19.172767 
L 115.836413 16.256144 
L 115.899747 20.565938 
L 116.102451 18.822687 
L 116.184875 20.024886 
L 116.273696 19.279385 
L 116.348318 21.974899 
L 116.431968 18.924657 
L 116.510421 20.177099 
L 116.592824 20.111718 
L 116.778243 19.249708 
L 116.859679 20.1504 
L 116.94032 18.937954 
L 117.021882 20.972908 
L 117.266452 19.274206 
L 117.390416 19.10185 
L 117.473216 17.723979 
L 117.553605 17.904096 
L 117.63562 18.860517 
L 117.73036 18.63582 
L 117.782083 21.599868 
L 117.858972 19.792553 
L 117.943053 19.143632 
L 118.044524 17.295662 
L 118.309851 22.272518 
L 118.454317 13.119611 
L 118.535583 15.421845 
L 118.622819 12.133378 
L 118.638224 20.214434 
L 118.718591 11.868446 
L 118.782663 11.866405 
L 118.965768 8.572308 
L 119.05231 8.958195 
L 119.289965 19.188506 
L 119.37617 16.126964 
L 119.475156 15.301986 
L 119.637607 19.67794 
L 119.727039 23.9358 
L 119.809412 22.417004 
L 119.963301 21.795768 
L 120.003708 17.849478 
L 120.064922 20.224423 
L 120.168481 17.851841 
L 120.231335 18.367275 
L 120.394775 23.240053 
L 120.557598 18.985647 
L 120.82256 27.641372 
L 120.964733 25.440008 
L 121.006306 28.305687 
L 121.08784 26.887083 
L 121.229362 20.394712 
L 121.392626 24.409859 
L 121.595819 20.242894 
L 121.702587 20.143251 
L 121.844422 11.986823 
L 122.067663 24.417879 
L 122.166421 19.049992 
L 122.26327 19.697147 
L 122.409897 15.249048 
L 122.697115 20.478758 
L 122.797574 21.183164 
L 122.960689 13.282429 
L 123.184974 23.614591 
L 123.29162 23.674828 
L 123.34773 24.56042 
L 123.464141 22.891371 
L 123.573948 25.064485 
L 123.592841 24.840405 
L 123.735491 24.104958 
L 123.776854 27.822382 
L 123.858411 27.026364 
L 124.041582 23.281352 
L 124.122699 23.845031 
L 124.185937 22.692677 
L 124.285878 24.991717 
L 124.449477 21.494907 
L 124.594144 22.505262 
L 124.69551 20.855646 
L 124.713856 23.30118 
L 124.797778 22.872265 
L 125.102481 15.858528 
L 125.204271 17.624903 
L 125.547315 8.619066 
L 125.872683 16.277154 
L 126.056198 13.591998 
L 126.283116 22.528548 
L 126.299764 22.455426 
L 126.421494 22.895969 
L 126.48291 21.837024 
L 126.548566 22.874578 
L 126.564081 19.059357 
L 126.626169 25.516973 
L 126.730717 25.389605 
L 126.832001 28.834634 
L 126.891726 28.795242 
L 127.116446 22.795325 
L 127.224149 24.976876 
L 127.40284 23.393663 
L 127.486964 18.512428 
L 127.550226 19.118243 
L 127.681074 18.74118 
L 127.750121 19.346119 
L 127.834422 21.678969 
L 128.05635 15.061951 
L 128.445226 22.399765 
L 128.650599 20.434742 
L 128.688592 21.382225 
L 128.823423 31.341384 
L 128.954226 34.485424 
L 128.979078 33.155373 
L 129.077722 32.03561 
L 129.321503 26.872034 
L 129.505271 30.617031 
L 129.587156 24.837438 
L 129.68901 25.324306 
L 129.854095 23.920273 
L 130.198844 30.509938 
L 130.342257 28.946719 
L 130.383624 26.004612 
L 130.424717 30.639183 
L 130.505932 29.891153 
L 130.669329 25.882846 
L 130.811884 25.834124 
L 130.93609 27.259838 
L 131.140428 27.725374 
L 131.343502 20.611128 
L 131.608009 24.979189 
L 131.852133 18.896369 
L 131.933561 19.591667 
L 132.014731 19.160413 
L 132.221227 23.476035 
L 132.361954 17.353413 
L 132.606269 21.683365 
L 132.691026 21.190127 
L 132.871112 19.774684 
L 133.036061 14.157277 
L 133.115405 19.163437 
L 133.299276 22.321844 
L 133.319128 20.801435 
L 133.37505 19.762371 
L 133.570155 20.509152 
L 133.687591 20.780627 
L 133.816029 27.822418 
L 133.95583 26.036209 
L 134.130318 23.294904 
L 134.298699 23.391904 
L 134.380433 22.920709 
L 134.519444 23.443429 
L 134.634524 17.093222 
L 134.74405 18.048973 
L 134.887161 23.21656 
L 134.970114 23.661814 
L 135.07009 23.05818 
L 135.30389 18.415008 
L 135.416797 21.41513 
L 135.481754 26.333074 
L 135.674251 22.202052 
L 135.714381 22.916062 
L 135.917602 17.164991 
L 136.101109 21.199796 
L 136.161608 20.425694 
L 136.306541 20.191063 
L 136.427727 23.800735 
L 136.509261 14.460588 
L 136.573123 18.158681 
L 136.820574 30.281267 
L 137.066375 33.818608 
L 137.245827 22.617847 
L 137.388549 23.778706 
L 137.533079 24.864843 
L 137.755869 19.165817 
L 137.918735 13.221731 
L 138.000499 13.781577 
L 138.183316 22.899724 
L 138.245991 23.762013 
L 138.328222 21.186189 
L 138.429595 21.702458 
L 138.560505 20.759377 
L 138.775794 29.227238 
L 138.800569 33.449609 
L 138.857144 31.610897 
L 138.940297 27.962141 
L 139.020773 28.162279 
L 139.125864 27.534813 
L 139.511093 18.245746 
L 139.631685 14.011121 
L 139.775266 17.922059 
L 139.94653 14.06862 
L 140.019668 19.13298 
L 140.10152 19.003105 
L 140.288438 11.145243 
L 140.381725 10.872911 
L 140.468542 11.925441 
L 140.52973 10.523605 
L 140.693793 15.146436 
L 140.81545 14.768524 
L 140.916317 12.17404 
L 141.120897 20.659466 
L 141.262518 22.022184 
L 141.404402 26.106289 
L 141.567141 22.260096 
L 141.630711 24.388678 
L 141.71305 21.917734 
L 141.793921 22.106937 
L 141.91449 25.895404 
L 141.958153 24.115634 
L 142.070779 23.737137 
L 142.132262 23.046486 
L 142.235201 23.160463 
L 142.252794 28.42273 
L 142.317949 25.853951 
L 142.416158 23.831574 
L 142.540928 18.340619 
L 142.580267 20.016112 
L 142.723231 20.087411 
L 142.746004 19.836641 
L 142.803555 20.521723 
L 142.884637 20.476137 
L 142.968271 19.508837 
L 143.048348 15.003722 
L 143.14966 15.716737 
L 143.374949 20.835199 
L 143.3955 19.710436 
L 143.477218 21.48194 
L 143.660494 16.508102 
L 143.855724 17.362626 
L 143.987274 23.36841 
L 144.072825 20.753889 
L 144.190173 22.314358 
L 144.251818 27.864619 
L 144.33339 26.088612 
L 144.518161 32.208472 
L 144.57742 28.180259 
L 144.823375 25.037395 
L 144.850454 21.665411 
L 144.923823 24.554364 
L 145.110165 20.966461 
L 145.188757 21.939552 
L 145.371617 18.909793 
L 145.516541 24.811843 
L 145.703612 21.484801 
L 145.742481 18.540118 
L 145.841383 21.078761 
L 146.004355 14.11439 
L 146.106787 16.251741 
L 146.25098 11.216244 
L 146.351299 11.570557 
L 146.433175 11.448669 
L 146.513559 16.306523 
L 146.597178 15.968832 
L 146.678309 15.274758 
L 146.845604 20.367314 
L 146.941801 17.20035 
L 147.022576 21.097361 
L 147.16949 19.914817 
L 147.225857 20.272966 
L 147.287554 21.195575 
L 147.388907 20.596631 
L 147.472472 23.629175 
L 147.530741 21.969948 
L 147.612325 15.821923 
L 147.694656 17.335037 
L 147.775382 18.770803 
L 147.861301 16.078285 
L 147.876699 17.262885 
L 147.958488 19.065053 
L 148.040797 17.49425 
L 148.121581 19.612107 
L 148.305871 15.931865 
L 148.42835 17.417095 
L 148.468363 23.878729 
L 148.529991 19.062257 
L 148.670195 18.286575 
L 148.712956 18.713195 
L 148.875813 17.833654 
L 148.940154 21.875443 
L 148.998313 16.76023 
L 149.059367 17.476261 
L 149.147619 20.428248 
L 149.207017 19.724531 
L 149.474152 22.680516 
L 149.536546 24.77103 
L 149.676094 25.157094 
L 149.71873 22.646455 
L 149.8207 23.539975 
L 150.125922 16.9569 
L 150.414539 11.779346 
L 150.533801 12.182155 
L 150.737032 18.631775 
L 150.818701 18.423712 
L 150.902679 19.337036 
L 150.984911 16.758788 
L 151.23128 22.0298 
L 151.32834 23.185289 
L 151.420393 21.572194 
L 151.945013 28.518896 
L 152.149165 25.160864 
L 152.231566 24.141493 
L 152.576311 29.0919 
L 152.739197 26.853244 
L 152.820826 28.621739 
L 152.906287 28.096654 
L 153.004427 28.421897 
L 153.419541 22.672187 
L 153.494887 24.867017 
L 153.677573 22.878633 
L 153.758526 25.20458 
L 153.840849 22.741468 
L 153.923125 25.281615 
L 154.004813 24.050297 
L 154.188785 15.399554 
L 154.254545 20.419414 
L 154.352351 18.336884 
L 154.455979 18.357944 
L 154.517084 19.091291 
L 154.597886 17.465627 
L 154.688309 18.469884 
L 154.853042 17.444918 
L 154.940003 18.472886 
L 155.108727 17.274712 
L 155.274126 18.822235 
L 155.35869 18.139548 
L 155.599711 22.271338 
L 156.111131 27.650873 
L 156.273828 22.468118 
L 156.390009 23.083161 
L 156.536307 16.970815 
L 156.717215 19.088918 
L 156.839167 19.154418 
L 157.031677 26.788525 
L 157.115124 26.061017 
L 157.230704 23.81695 
L 157.373373 29.965002 
L 157.537443 28.775831 
L 157.647285 29.214719 
L 157.706738 28.232342 
L 157.883986 20.539562 
L 157.986166 20.299192 
L 158.052528 20.336045 
L 158.149634 17.858817 
L 158.312392 17.308424 
L 158.394084 15.79827 
L 158.577584 12.193534 
L 158.903406 21.149616 
L 159.107025 19.531327 
L 159.189769 18.911933 
L 159.311306 23.240707 
L 159.394225 23.320429 
L 159.494652 23.17963 
L 159.556376 18.830614 
L 159.658258 20.649446 
L 159.758934 19.858777 
L 159.924016 24.336943 
L 160.334122 16.139986 
L 160.512672 18.948018 
L 160.675944 13.267803 
L 160.818171 12.920938 
L 160.941 15.743797 
L 161.002334 15.574552 
L 161.083688 16.406178 
L 161.250018 16.938519 
L 161.349009 12.807091 
L 161.449842 14.911098 
L 161.762686 9.768976 
L 162.273779 15.808602 
L 162.367647 20.524513 
L 162.448686 21.152517 
L 162.550775 23.269388 
L 162.673349 23.4807 
L 162.694008 22.928888 
L 162.784817 23.35614 
L 162.884235 22.576643 
L 162.938602 23.43152 
L 163.372728 14.992931 
L 163.637736 23.866098 
L 163.761084 20.270053 
L 163.780495 21.765823 
L 164.15375 19.074285 
L 164.236505 20.224591 
L 164.378999 16.587517 
L 164.484637 12.350958 
L 164.540679 14.657537 
L 164.644215 11.815127 
L 165.213069 24.346356 
L 165.482368 27.658693 
L 165.560406 28.027765 
L 165.74857 23.96417 
L 165.986745 22.500755 
L 166.246141 16.743774 
L 166.32789 18.218851 
L 166.470363 15.262496 
L 166.634838 21.718273 
L 166.857574 17.035189 
L 166.897816 18.453477 
L 167.081579 18.865315 
L 167.223655 17.967738 
L 167.284665 23.006348 
L 167.366588 22.095718 
L 167.572707 14.825018 
L 167.672991 18.793277 
L 167.754689 16.873425 
L 167.835603 17.197672 
L 167.998628 20.223309 
L 168.203269 16.658596 
L 168.590592 28.434876 
L 168.85282 23.603951 
L 169.081124 24.895343 
L 169.104564 23.072659 
L 169.302076 19.848995 
L 169.448819 13.249575 
L 169.508701 16.615066 
L 169.589835 16.353153 
L 169.670761 18.493497 
L 169.772366 16.084657 
L 169.854694 17.137853 
L 169.93873 16.402288 
L 170.262829 21.499202 
L 170.427903 20.849254 
L 170.445822 23.122481 
L 170.6347 22.370505 
L 170.7538 22.944003 
L 170.837388 24.010765 
L 170.954721 17.451046 
L 171.039899 17.475296 
L 171.20213 21.590441 
L 171.282568 20.450127 
L 171.42709 23.577806 
L 171.46507 22.657067 
L 171.526597 22.150173 
L 171.628372 23.266607 
L 171.872985 27.269248 
L 172.038219 19.537495 
L 172.121077 20.71161 
L 172.206755 19.099771 
L 172.300435 20.830721 
L 172.382727 20.082711 
L 172.464405 20.365384 
L 172.545627 17.087665 
L 172.627033 19.176055 
L 172.732458 17.80882 
L 172.875461 26.208663 
L 172.974822 26.382757 
L 173.138162 24.511866 
L 173.382499 26.268973 
L 173.424915 30.07028 
L 173.547047 29.40747 
L 173.729105 23.645248 
L 173.810637 25.169047 
L 174.060081 22.420436 
L 174.230719 20.788454 
L 174.290921 17.644213 
L 174.320256 18.925247 
L 174.411131 20.319628 
L 174.545782 20.118416 
L 174.647338 14.820319 
L 174.730023 16.667485 
L 174.872902 16.85849 
L 175.078435 23.75684 
L 175.178447 22.409168 
L 175.259778 24.400501 
L 175.322558 23.998695 
L 175.504426 27.407993 
L 175.667217 34.467694 
L 175.994919 30.224928 
L 176.02054 31.601487 
L 176.12936 29.869195 
L 176.21011 31.536693 
L 176.425801 25.403657 
L 176.502868 25.203935 
L 176.76702 21.353328 
L 177.521751 11.626911 
L 177.765349 14.829446 
L 177.86931 12.983246 
L 177.969101 15.734718 
L 178.091205 15.801927 
L 178.111493 18.594367 
L 178.213505 18.417658 
L 178.364974 22.232463 
L 178.523852 22.927997 
L 178.604085 20.924527 
L 178.722854 21.322149 
L 178.807087 19.637771 
L 178.889838 22.330371 
L 178.94848 21.625548 
L 179.134451 24.492437 
L 179.214384 23.639395 
L 179.295832 21.410366 
L 179.377944 22.153177 
L 179.564745 24.621531 
L 179.867311 17.792158 
L 179.910078 12.655497 
L 179.971238 13.592917 
L 180.052989 14.044724 
L 180.256804 18.044552 
L 180.34109 17.149607 
L 180.480374 21.679862 
L 180.563062 22.274571 
L 180.745508 27.150337 
L 180.806222 26.63881 
L 180.97054 22.934749 
L 181.092109 21.801743 
L 181.152427 24.632362 
L 181.356606 22.225271 
L 181.419603 22.457138 
L 181.627196 19.327169 
L 181.662166 15.71415 
L 181.743973 16.969361 
L 181.845269 18.090353 
L 182.070106 14.087778 
L 182.152303 12.236525 
L 182.23298 13.18176 
L 182.314553 10.768656 
L 182.579098 16.093097 
L 182.681161 15.440126 
L 182.762231 18.012085 
L 182.94763 15.037822 
L 183.007817 17.288288 
L 183.088691 13.22545 
L 183.55826 19.172716 
L 183.602519 18.257823 
L 184.005168 28.757959 
L 184.343951 23.49243 
L 184.507961 23.367842 
L 184.522848 24.097747 
L 184.688684 21.9546 
L 184.793471 20.812037 
L 184.851923 18.460307 
L 185.177132 22.954242 
L 185.199073 20.645681 
L 185.587002 24.602928 
L 185.609212 23.594622 
L 185.713959 26.30597 
L 185.775526 24.745177 
L 185.855219 27.168696 
L 185.934722 26.152081 
L 186.035558 28.854304 
L 186.108863 28.527285 
L 186.229136 29.509054 
L 186.465698 32.573484 
L 186.741485 26.882984 
L 186.963327 29.459797 
L 187.044197 24.46946 
L 187.125631 25.920499 
L 187.212209 24.724546 
L 187.309349 25.109826 
L 187.373921 29.276999 
L 187.471943 28.887369 
L 187.554378 29.26881 
L 187.839279 23.858192 
L 187.903512 24.818204 
L 188.227813 16.025668 
L 188.307609 16.90944 
L 188.47117 23.179841 
L 188.55225 23.088745 
L 188.634225 21.567433 
L 188.735564 21.847102 
L 188.816506 23.730968 
L 188.898022 21.988312 
L 189.060815 27.17592 
L 189.148033 25.763003 
L 189.315436 19.903211 
L 189.776048 25.781703 
L 189.818883 25.595639 
L 189.901686 24.054451 
L 189.983962 24.890766 
L 190.165537 30.535901 
L 190.329612 29.120897 
L 190.411325 29.935062 
L 190.49266 29.336941 
L 191.002048 18.755955 
L 191.082828 18.370212 
L 191.245945 13.637644 
L 191.266206 16.713781 
L 191.332046 15.464325 
L 191.430076 18.441646 
L 191.592082 18.089029 
L 191.673901 17.42786 
L 191.755415 17.466174 
L 192.003318 22.397712 
L 192.10389 21.788908 
L 192.265045 17.6444 
L 192.509691 26.115759 
L 192.692488 24.939176 
L 192.75878 25.378687 
L 192.836394 27.664229 
L 192.958796 27.541277 
L 193.119541 31.183579 
L 193.181582 30.437638 
L 193.355644 25.823011 
L 193.54137 27.379515 
L 193.710909 22.791351 
L 193.813057 25.670128 
L 193.935226 23.591865 
L 194.024828 24.068056 
L 194.044165 22.812474 
L 194.120384 24.971439 
L 194.385032 21.295198 
L 194.470509 22.968763 
L 194.532794 22.265942 
L 194.754786 20.665193 
L 194.775417 21.689539 
L 194.874991 20.564854 
L 195.201115 26.009709 
L 195.307666 24.02097 
L 195.385816 25.661426 
L 195.467972 25.644647 
L 195.653404 22.713903 
L 195.718141 24.685958 
L 195.814581 24.054271 
L 195.905784 24.336531 
L 195.976563 22.925498 
L 196.077747 23.725117 
L 196.237777 20.846962 
L 196.465036 27.476977 
L 196.566637 23.553059 
L 196.727069 26.81361 
L 196.808637 26.766973 
L 196.91279 26.284732 
L 196.97917 29.611206 
L 197.053862 29.022861 
L 197.379621 25.780648 
L 197.462356 26.579334 
L 197.584021 19.64307 
L 197.807623 14.357582 
L 197.838968 12.528683 
L 197.930114 13.999448 
L 198.174456 10.403086 
L 198.34242 12.916627 
L 198.512894 20.274595 
L 198.589041 19.23104 
L 198.726615 18.583923 
L 198.831215 21.649363 
L 198.84867 21.617871 
L 198.909829 24.803423 
L 199.073974 27.197308 
L 199.114549 25.31552 
L 199.196677 28.810187 
L 199.425735 24.878311 
L 199.511432 26.90213 
L 199.813058 22.467705 
L 199.93892 17.634149 
L 200.018538 15.195485 
L 200.098404 18.964218 
L 200.180036 17.747935 
L 200.301586 20.34442 
L 200.42374 18.118789 
L 200.752012 22.803282 
L 200.873021 28.39484 
L 201.035074 25.506558 
L 201.116693 25.521888 
L 201.198756 25.895998 
L 201.280205 27.621398 
L 201.36251 24.835798 
L 201.525249 26.432378 
L 201.585654 26.146957 
L 201.708652 18.838656 
L 201.840165 20.013833 
L 201.937208 21.124803 
L 202.038833 18.491733 
L 202.141221 16.943953 
L 202.262563 18.595038 
L 202.304656 17.85282 
L 202.335929 17.129182 
L 202.365043 18.9515 
L 202.467702 19.67507 
L 202.56873 23.809284 
L 202.711791 17.943176 
L 202.821875 19.047916 
L 202.997705 24.030393 
L 203.141364 22.15564 
L 203.222491 20.520876 
L 203.325092 21.635922 
L 203.406449 18.167024 
L 203.547747 28.137735 
L 203.670792 30.38408 
L 203.895027 27.470805 
L 204.05762 34.193135 
L 204.309779 28.624968 
L 204.591857 24.516429 
L 204.822746 25.128597 
L 204.994689 21.516196 
L 205.158807 25.565076 
L 205.280634 26.838217 
L 205.382845 29.894192 
L 205.586966 22.724352 
L 205.749647 23.750045 
L 205.851885 23.776321 
L 205.913239 22.57025 
L 206.157924 25.949298 
L 206.260042 25.326189 
L 206.484595 28.302477 
L 206.566055 26.275471 
L 206.873445 29.692562 
L 206.973867 28.218499 
L 207.015413 28.241521 
L 207.095035 29.845018 
L 207.176646 29.505399 
L 207.259153 29.201665 
L 207.360423 29.302106 
L 207.464121 28.300143 
L 207.523172 28.587775 
L 207.604057 28.544677 
L 207.850179 22.944266 
L 208.011782 26.001153 
L 208.175707 23.204342 
L 208.279634 25.991381 
L 208.440128 22.673383 
L 208.524167 23.031645 
L 208.643912 26.255754 
L 208.970338 20.460264 
L 209.176575 18.057564 
L 209.294958 15.348979 
L 209.396895 15.173547 
L 209.462208 12.2988 
L 209.613752 11.639669 
L 209.647449 12.049064 
L 209.827141 18.855693 
L 209.889609 16.464058 
L 210.381388 27.324418 
L 210.462953 26.21616 
L 210.631858 22.487692 
L 210.747222 25.694248 
L 210.8082 25.229234 
L 210.900069 25.038098 
L 210.972603 20.570418 
L 211.053363 21.423025 
L 211.134845 21.016367 
L 211.217149 23.357322 
L 211.31886 21.639767 
L 211.381786 22.843796 
L 211.562218 20.010377 
L 211.643353 16.912923 
L 211.991414 20.539527 
L 212.099705 20.722584 
L 212.171994 20.654374 
L 212.233488 17.248077 
L 212.416339 17.627691 
L 212.498384 21.869122 
L 212.60066 21.657536 
L 212.723514 21.797289 
L 212.82384 19.123465 
L 212.950379 17.947327 
L 212.987434 18.594054 
L 213.131935 22.915091 
L 213.171293 21.506883 
L 213.255576 21.6401 
L 213.354166 20.129251 
L 213.441531 23.856573 
L 213.640191 20.391542 
L 213.764703 24.125727 
L 213.845625 23.140259 
L 213.947823 22.729506 
L 214.186373 18.701731 
L 214.375216 13.370873 
L 214.459075 15.627438 
L 214.663265 11.016532 
L 214.845261 14.547749 
L 215.069678 21.192889 
L 215.090206 24.394321 
L 215.191247 24.04948 
L 215.273686 21.046748 
L 215.436795 23.477824 
L 215.623347 18.286431 
L 215.679922 21.529599 
L 215.966089 16.696571 
L 216.128392 24.692416 
L 216.198389 23.546814 
L 216.457768 28.538521 
L 216.617972 21.900894 
L 216.73997 24.039949 
L 216.812885 23.150151 
L 216.964545 15.765986 
L 217.046327 16.279509 
L 217.208387 12.933587 
L 217.291573 13.377849 
L 217.452789 19.576666 
L 217.6361 16.597843 
L 217.703821 19.571651 
L 217.799728 18.860157 
L 217.881543 19.242859 
L 218.067844 21.815589 
L 218.228895 21.248608 
L 218.311023 19.282323 
L 218.59514 23.367496 
L 218.758272 24.647044 
L 218.819838 23.108738 
L 218.980743 25.644962 
L 219.144188 27.309913 
L 219.482457 23.080552 
L 219.572462 20.529852 
L 219.654046 23.01178 
L 219.756161 21.11157 
L 219.816872 24.52156 
L 220.068512 22.016861 
L 220.151796 21.536012 
L 220.325592 24.893521 
L 220.468076 25.062019 
L 220.653128 18.943359 
L 220.737186 18.673669 
L 220.835958 16.130905 
L 221.020255 15.995639 
L 221.203386 13.112989 
L 221.327966 19.920929 
L 221.426979 19.698967 
L 221.590328 15.722805 
L 221.997555 24.361859 
L 222.064853 23.691507 
L 222.181019 18.628772 
L 222.263548 19.280999 
L 222.344505 19.789149 
L 222.588697 22.455031 
L 222.676481 21.764607 
L 222.854171 19.573333 
L 223.065617 25.339652 
L 223.119073 22.533392 
L 223.203094 25.072076 
L 223.364404 22.898619 
L 223.505731 24.194357 
L 223.629148 21.062756 
L 223.77148 22.567037 
L 223.853973 22.358868 
L 224.036883 27.360013 
L 224.138668 26.930152 
L 224.282092 28.147203 
L 224.444217 27.893672 
L 224.568467 30.94145 
L 224.792729 28.42594 
L 225.14075 17.213264 
L 225.224441 16.962155 
L 225.407236 13.845996 
L 225.467947 14.958365 
L 225.629075 15.46235 
L 225.877963 25.790964 
L 226.059695 25.172163 
L 226.152342 26.888034 
L 226.228467 26.735888 
L 226.392013 23.739671 
L 226.494899 24.206525 
L 226.556421 22.969001 
L 226.666254 24.26688 
L 226.739457 23.856925 
L 226.900956 28.308958 
L 227.043684 28.427958 
L 227.247512 31.330063 
L 227.329078 27.932373 
L 227.391965 28.717438 
L 227.575119 25.188855 
L 227.662522 22.405208 
L 227.744661 24.423455 
L 227.818978 24.298109 
L 227.921822 23.763014 
L 227.992384 20.592487 
L 228.08503 20.761096 
L 228.19836 22.060619 
L 228.311157 20.624085 
L 228.351144 18.606624 
L 228.515405 20.672217 
L 228.69851 17.024651 
L 228.759823 16.673345 
L 228.780618 20.082323 
L 228.842956 18.597502 
L 229.008388 13.907244 
L 229.191708 17.210942 
L 229.515191 26.143828 
L 229.599779 26.474926 
L 229.680573 25.678484 
L 229.843237 30.704324 
L 229.945426 30.91223 
L 230.435816 20.280235 
L 230.516622 25.363489 
L 230.645137 23.906587 
L 230.80266 25.808721 
L 231.047126 17.116461 
L 231.158639 17.331816 
L 231.174139 17.195319 
L 231.275191 19.657357 
L 231.523897 11.88871 
L 231.604197 11.444677 
L 231.705662 12.576802 
L 231.950982 18.015851 
L 232.032473 17.570053 
L 232.174925 16.144211 
L 232.215153 16.324572 
L 232.382261 17.89851 
L 232.541063 21.780962 
L 232.644533 21.172636 
L 232.704443 24.164643 
L 232.96986 19.227045 
L 233.092891 19.036849 
L 233.295496 15.732269 
L 233.482786 18.371109 
L 233.560971 18.987196 
L 233.664058 20.774089 
L 233.795491 20.784536 
L 234.255474 27.304602 
L 234.436857 22.756649 
L 234.539061 22.33341 
L 234.60369 22.663027 
L 234.68306 22.480491 
L 234.744502 20.532648 
L 234.806649 21.767709 
L 234.932151 21.520489 
L 235.003544 20.523164 
L 235.09256 16.606865 
L 235.236261 18.504816 
L 235.378784 20.571218 
L 235.502691 17.425071 
L 235.621211 17.880582 
L 235.667605 15.669716 
L 235.744351 17.801752 
L 235.827689 16.976523 
L 235.908053 19.655389 
L 236.116129 17.92137 
L 236.179231 13.918565 
L 236.501059 20.233545 
L 236.599271 18.223851 
L 236.842415 22.703287 
L 236.927119 23.211137 
L 237.026763 28.091256 
L 237.17032 29.437139 
L 237.437081 26.803132 
L 237.780076 22.372327 
L 238.065477 15.820352 
L 238.106131 15.884274 
L 238.187594 16.57455 
L 238.289285 18.685482 
L 238.352022 17.431812 
L 238.448227 18.116321 
L 238.595374 17.968011 
L 238.642213 18.28287 
L 238.902284 23.290011 
L 239.146536 20.767914 
L 239.251195 24.234212 
L 239.288901 23.674977 
L 239.411509 24.147829 
L 239.537737 25.178517 
L 239.762422 18.138073 
L 239.782911 21.607939 
L 239.851109 19.812626 
L 239.887393 19.781827 
L 240.047161 17.699713 
L 240.128644 20.598599 
L 240.33256 15.422712 
L 240.414424 13.029173 
L 240.638236 20.934156 
L 240.809042 17.478019 
L 240.884011 18.841209 
L 241.066003 16.652216 
L 241.231543 23.743306 
L 241.310278 23.315066 
L 241.393419 23.762589 
L 241.493856 23.461377 
L 241.67883 28.505083 
L 241.800985 26.029312 
L 241.904073 26.36396 
L 242.3809 16.167627 
L 242.421529 17.231417 
L 242.502756 15.262191 
L 242.648223 22.910048 
L 242.734917 23.918215 
L 242.828728 27.815008 
L 242.920461 26.69226 
L 243.102673 32.132694 
L 243.263834 30.628028 
L 243.585021 24.487026 
L 243.768529 26.318687 
L 243.830707 26.351453 
L 243.910912 28.156624 
L 244.071546 28.359187 
L 244.094248 28.251283 
L 244.176186 29.652298 
L 244.339666 24.856351 
L 244.420643 26.164495 
L 244.522478 24.738704 
L 244.589914 26.189151 
L 244.766932 14.99998 
L 244.901706 15.414666 
L 244.931978 14.256083 
L 245.243126 22.196346 
L 245.28035 17.866501 
L 245.442908 17.541798 
L 245.612057 21.635051 
L 245.811338 27.75116 
L 245.870134 27.658176 
L 246.036407 20.342355 
L 246.154426 19.194785 
L 246.297843 20.203575 
L 246.419736 22.385442 
L 246.45982 21.477108 
L 246.605072 20.969111 
L 246.704867 19.578597 
L 246.806784 20.51196 
L 246.950021 23.101549 
L 247.214002 18.305195 
L 247.344275 17.685738 
L 247.540701 12.566485 
L 247.623506 15.860242 
L 247.705879 13.391115 
L 247.723838 19.110577 
L 247.785548 18.503678 
L 248.051084 25.742739 
L 248.294381 20.301218 
L 248.397391 20.846868 
L 248.558874 21.347832 
L 248.60702 20.256194 
L 248.641528 22.444802 
L 248.807466 14.024567 
L 248.987756 19.536116 
L 249.149714 21.376999 
L 249.231696 21.622208 
L 249.314218 16.910298 
L 249.415664 18.02371 
L 249.478117 17.185149 
L 249.688168 23.587171 
L 249.812141 18.967106 
L 249.847279 20.211047 
L 249.992896 24.815832 
L 250.071265 25.863903 
L 250.154687 30.399966 
L 250.235996 27.954562 
L 250.318359 28.740117 
L 250.450115 30.110228 
L 250.487521 26.124384 
L 250.565787 27.941675 
L 250.664825 26.940402 
L 250.911025 22.21308 
L 250.992923 20.017535 
L 251.094164 21.201059 
L 251.174825 19.873265 
L 251.318026 20.546296 
L 251.440392 25.321825 
L 251.527869 24.825231 
L 251.68799 26.451159 
L 251.912234 30.998184 
L 252.423339 18.595681 
L 252.522823 17.787889 
L 252.603626 15.53287 
L 253.070818 27.671798 
L 253.172487 27.078888 
L 253.299263 27.920546 
L 253.398018 29.852801 
L 253.481819 29.317322 
L 253.706336 24.820211 
L 253.787637 25.422016 
L 253.85493 24.023784 
L 253.973638 24.639136 
L 254.072704 26.424867 
L 254.215384 23.382449 
L 254.27641 26.550428 
L 254.439588 20.090804 
L 254.601676 23.103983 
L 254.703797 21.341808 
L 254.791033 21.97547 
L 254.881155 20.240372 
L 254.951183 23.364017 
L 255.050893 22.263135 
L 255.125788 22.347345 
L 255.295063 25.899733 
L 255.377475 23.694306 
L 255.460204 24.466774 
L 255.559932 19.655665 
L 255.724984 22.609715 
L 255.80567 18.653041 
L 255.886463 21.458034 
L 256.052625 17.770276 
L 256.33682 20.436857 
L 256.402403 25.231571 
L 256.464513 25.130387 
L 256.643481 21.414775 
L 256.750585 22.078038 
L 256.858576 25.03528 
L 256.918062 24.208992 
L 256.999095 24.263728 
L 257.143101 23.16404 
L 257.223369 23.231026 
L 257.327565 21.362094 
L 257.40698 22.503253 
L 257.578936 21.941057 
L 257.658629 23.855103 
L 257.797981 24.035539 
L 257.895897 28.867774 
L 258.078948 24.734312 
L 258.223793 26.661939 
L 258.26464 24.937871 
L 258.326386 27.379834 
L 258.491274 19.659653 
L 258.631144 21.671833 
L 258.794196 15.632615 
L 258.915958 19.357708 
L 258.998429 17.65795 
L 259.278553 27.491075 
L 259.426527 25.221391 
L 259.510113 28.745166 
L 259.590637 28.677886 
L 259.855447 22.482059 
L 259.936795 22.99486 
L 260.037876 24.266883 
L 260.107949 20.908381 
L 260.267577 24.653273 
L 260.385752 21.614695 
L 260.514811 24.635694 
L 260.635882 26.764262 
L 260.691276 30.709489 
L 260.772046 30.114432 
L 260.853241 28.668639 
L 260.935186 29.399954 
L 261.282099 22.4682 
L 261.385173 21.319179 
L 261.632206 15.410258 
L 261.710419 15.51425 
L 261.729101 12.667706 
L 261.791431 16.150283 
L 262.035194 22.882094 
L 262.137851 23.846891 
L 262.28029 22.060813 
L 262.361935 22.662895 
L 262.46335 20.680738 
L 262.547 20.976035 
L 262.625455 21.734715 
L 262.789395 17.748845 
L 262.952231 17.929929 
L 263.1008 19.559093 
L 263.21834 24.018541 
L 263.408052 24.990448 
L 263.521606 25.042477 
L 263.625828 28.68439 
L 263.726543 27.597183 
L 263.890698 24.977571 
L 263.970329 27.024605 
L 264.057281 25.875562 
L 264.156004 26.411617 
L 264.240085 25.914808 
L 264.505117 20.41432 
L 264.709199 23.794695 
L 264.769888 24.187389 
L 264.933371 21.479585 
L 264.977017 24.336034 
L 265.077639 22.344628 
L 265.16507 23.824556 
L 265.402957 19.66694 
L 265.607591 16.703637 
L 265.668289 14.622672 
L 265.811023 15.63831 
L 265.892104 12.748459 
L 265.93286 14.466209 
L 266.055678 14.278541 
L 266.078562 17.052946 
L 266.157793 16.983213 
L 266.245587 17.643813 
L 266.422238 19.870192 
L 266.750221 16.576832 
L 266.851877 17.161727 
L 266.912887 18.452601 
L 266.993116 18.429146 
L 267.113654 19.904224 
L 267.262179 16.496115 
L 267.398643 17.59941 
L 267.43881 18.83819 
L 267.581777 18.018632 
L 267.66287 19.099942 
L 267.703628 17.098536 
L 267.789536 20.413029 
L 267.866537 19.316112 
L 267.928307 18.089505 
L 268.009271 19.050929 
L 268.200748 22.545145 
L 268.273717 21.925659 
L 268.437921 24.68499 
L 268.523766 27.72084 
L 268.620259 24.803994 
L 268.701974 25.010002 
L 268.76307 24.342909 
L 268.848004 25.018021 
L 268.947528 23.067121 
L 269.110757 25.222907 
L 269.193266 24.328628 
L 269.558243 15.809748 
L 269.661676 17.682591 
L 269.700788 15.744101 
L 269.817957 16.67511 
L 269.952161 13.653775 
L 270.211746 18.798993 
L 270.292165 15.682147 
L 270.55562 20.963691 
L 270.617067 19.544429 
L 270.73849 20.534306 
L 270.819758 22.24282 
L 270.882799 18.782211 
L 271.206696 23.48172 
L 271.308904 22.219324 
L 271.471482 23.701733 
L 271.553732 23.637217 
L 271.723803 18.57231 
L 271.879544 16.415986 
L 271.983874 19.87386 
L 272.063255 19.475175 
L 272.146684 19.360394 
L 272.225391 17.76551 
L 272.308926 18.843557 
L 272.389843 18.387099 
L 272.573162 22.681097 
L 272.73483 21.17105 
L 272.816565 20.532886 
L 272.897744 20.916606 
L 272.987056 21.930022 
L 273.061605 18.873245 
L 273.16632 19.419307 
L 273.244095 18.859855 
L 273.489362 22.536643 
L 273.657982 19.643688 
L 273.737616 20.073044 
L 273.918374 21.95852 
L 273.998484 18.561756 
L 274.079255 19.706715 
L 274.244484 17.834475 
L 274.336513 19.790366 
L 274.406738 19.36114 
L 274.673315 14.17665 
L 274.834322 18.654758 
L 274.999474 15.590054 
L 275.080172 18.367156 
L 275.183165 17.459114 
L 275.263411 18.257173 
L 275.347723 21.387309 
L 275.429239 20.925795 
L 275.614084 19.35428 
L 275.631049 26.30517 
L 275.71266 22.925924 
L 275.836884 27.154616 
L 275.936107 25.714017 
L 276.100959 28.115202 
L 276.221954 27.981314 
L 276.447019 30.659476 
L 276.610945 24.943182 
L 276.691261 27.525089 
L 276.772261 26.640653 
L 276.868117 26.123553 
L 276.875487 27.518673 
L 276.936766 24.112744 
L 276.955877 18.497479 
L 277.165483 22.358837 
L 277.242552 22.965281 
L 277.363626 19.850677 
L 277.444383 20.638003 
L 277.546018 20.350009 
L 277.608287 20.557676 
L 277.70444 21.732514 
L 277.872282 28.009478 
L 277.974864 28.880892 
L 278.035991 27.132202 
L 278.322149 30.759098 
L 278.707607 12.92127 
L 278.992969 8.920628 
L 279.200087 12.107753 
L 279.381871 20.100438 
L 279.465313 25.034479 
L 279.564131 24.469033 
L 279.72753 27.541879 
L 279.796138 31.945697 
L 279.834661 30.075191 
L 280.222306 21.129212 
L 280.321064 19.158897 
L 280.430569 22.743486 
L 280.607512 18.532088 
L 280.646166 20.265156 
L 280.789946 21.085546 
L 280.811312 22.297165 
L 280.932685 22.36257 
L 280.992735 23.860309 
L 281.073871 23.837924 
L 281.156765 22.124316 
L 281.339406 15.741372 
L 281.421092 17.072858 
L 281.482851 16.634948 
L 281.584465 12.226722 
L 282.23709 26.584506 
L 282.319826 23.780114 
L 282.441557 30.236251 
L 282.521946 28.980925 
L 283.030682 16.632896 
L 283.052235 16.882679 
L 283.153985 19.116627 
L 283.25728 13.801962 
L 283.357422 12.418017 
L 283.520762 14.87898 
L 283.663113 15.342888 
L 283.765825 13.957714 
L 283.846596 16.850741 
L 283.948433 14.898233 
L 284.049826 15.436781 
L 284.132811 15.161408 
L 284.193607 15.568008 
L 284.275193 15.343437 
L 284.378286 12.981137 
L 284.552041 16.034388 
L 284.648943 18.305676 
L 284.767248 15.827398 
L 284.911052 20.625007 
L 284.950507 23.0416 
L 285.053152 22.707847 
L 285.174282 22.439622 
L 285.280694 23.942941 
L 285.296447 23.027729 
L 285.378726 22.837098 
L 285.483448 22.027712 
L 285.602377 22.297184 
L 285.626663 20.081462 
L 285.706081 22.484507 
L 285.787312 22.055178 
L 285.867942 22.554854 
L 286.215151 26.837068 
L 286.305456 26.556149 
L 286.540829 19.451517 
L 286.665485 19.222625 
L 286.806691 19.820922 
L 286.969862 19.841164 
L 286.988965 21.273226 
L 287.050607 19.654171 
L 287.133232 19.188347 
L 287.393609 26.5495 
L 287.476881 25.481406 
L 287.638895 23.797485 
L 287.72363 23.543522 
L 287.821052 19.164351 
L 287.983735 23.488073 
L 288.227335 18.821556 
L 288.491923 23.514987 
L 288.573398 23.142888 
L 288.655005 23.969203 
L 288.739534 23.372456 
L 288.982462 18.57235 
L 289.067032 18.762418 
L 289.246591 15.308273 
L 289.327348 16.205947 
L 289.411074 16.608682 
L 289.490598 17.862968 
L 289.574944 16.738886 
L 289.755791 21.473268 
L 289.83699 21.05182 
L 289.919216 21.225837 
L 290.000636 19.041291 
L 290.091162 20.067631 
L 290.166134 18.458811 
L 290.253382 19.059497 
L 290.374414 18.694625 
L 290.591286 19.967698 
L 290.672833 20.481975 
L 290.754572 17.961812 
L 290.837572 19.348937 
L 290.856922 22.26434 
L 290.938407 19.500487 
L 291.039811 21.816734 
L 291.101465 21.627996 
L 291.182923 22.493167 
L 291.528811 20.448263 
L 291.754382 25.976676 
L 291.814733 26.988489 
L 291.978316 22.818727 
L 292.038419 22.807303 
L 292.264122 26.950708 
L 292.369632 27.213436 
L 292.467032 26.983703 
L 292.528438 27.285171 
L 292.643266 26.796753 
L 292.691129 28.348282 
L 293.211118 15.327703 
L 293.291996 14.218564 
L 293.537784 17.550265 
L 293.802386 18.476593 
L 293.883157 18.334228 
L 294.046286 17.764361 
L 294.148805 15.600523 
L 294.310586 7.703354 
L 294.514044 11.534759 
L 294.555008 9.155558 
L 294.67754 9.948333 
L 294.840971 9.051958 
L 294.983875 14.185862 
L 295.066477 19.497606 
L 295.309672 13.763268 
L 295.432147 15.473507 
L 295.492999 13.117259 
L 295.678766 16.641926 
L 295.908423 11.127883 
L 295.99147 14.919204 
L 296.114344 14.943435 
L 296.156972 15.843507 
L 296.240748 15.674209 
L 296.323907 24.385792 
L 296.343303 20.969562 
L 296.418992 20.89512 
L 296.585198 18.9426 
L 296.664209 20.490423 
L 296.788155 20.567883 
L 296.872481 17.753541 
L 296.929899 18.198948 
L 296.990747 19.791913 
L 297.27052 16.536609 
L 297.337357 17.126947 
L 297.624919 23.456221 
L 297.684536 23.392322 
L 297.767261 23.037967 
L 297.848784 23.525159 
L 298.113783 26.958767 
L 298.182843 26.954932 
L 298.258144 27.261954 
L 298.33854 26.821944 
L 298.533512 29.379979 
L 298.667652 28.315035 
L 298.937924 22.224597 
L 299.093362 24.326879 
L 299.113668 23.077761 
L 299.256075 24.517759 
L 299.308093 18.706216 
L 299.358261 20.467306 
L 299.441513 19.934606 
L 299.624589 22.276421 
L 299.788421 24.937326 
L 299.859322 21.918019 
L 299.954586 22.790643 
L 300.121544 21.485371 
L 300.154525 25.226323 
L 300.216459 23.371904 
L 300.382598 24.257908 
L 300.550649 27.531915 
L 300.625557 26.269314 
L 300.820272 29.525818 
L 300.902071 29.160797 
L 301.014719 25.941914 
L 301.138039 29.933867 
L 301.503972 18.96069 
L 301.544034 20.291374 
L 301.749073 17.310585 
L 301.809017 20.123304 
L 302.03417 15.682268 
L 302.07442 16.248878 
L 302.320943 21.365121 
L 302.50563 20.341433 
L 302.585103 23.155137 
L 302.645343 21.411899 
L 302.731702 22.178354 
L 302.828861 20.334838 
L 303.077106 21.830212 
L 303.135429 18.397938 
L 303.175981 21.094894 
L 303.399891 16.399464 
L 303.485744 15.153874 
L 303.564696 17.064237 
L 303.645802 16.73255 
L 303.665057 16.148286 
L 303.746968 16.632627 
L 303.852886 15.690071 
L 303.911509 16.52493 
L 304.012429 15.51322 
L 304.155079 19.01963 
L 304.277497 19.32302 
L 304.35864 20.568245 
L 304.423993 19.151015 
L 304.523406 25.399761 
L 304.609764 23.715461 
L 304.708662 24.715649 
L 304.890076 22.681702 
L 305.030808 22.903491 
L 305.133074 19.099192 
L 305.214562 19.248028 
L 305.276835 19.018309 
L 305.380211 17.617936 
L 305.399464 12.153319 
L 305.485758 14.139543 
L 305.568147 15.111678 
L 305.581926 20.799596 
L 305.703581 21.867159 
L 305.764357 19.648701 
L 305.847029 20.511823 
L 305.957647 20.797758 
L 306.016252 19.391062 
L 306.193718 23.668974 
L 306.295957 23.964183 
L 306.35628 23.283352 
L 306.621361 16.269148 
L 306.778547 16.34165 
L 306.787504 12.672229 
L 306.866145 14.791064 
L 306.947289 14.726032 
L 307.076634 13.696142 
L 307.113349 15.832466 
L 307.192566 15.525116 
L 307.27351 14.346618 
L 307.619821 21.641479 
L 307.701865 21.657687 
L 307.783124 19.943394 
L 307.867977 21.600704 
L 307.947741 19.025667 
L 308.028817 19.245898 
L 308.133092 18.83603 
L 308.292475 19.957891 
L 308.359069 15.228709 
L 308.374337 19.321824 
L 308.558148 26.55688 
L 308.660176 27.526119 
L 308.884058 23.212879 
L 308.968124 22.26144 
L 309.127647 22.911772 
L 309.148565 24.173825 
L 309.395328 15.910262 
L 309.562207 11.559903 
L 309.668153 12.2385 
L 309.767256 10.089293 
L 309.830101 11.295262 
L 309.992021 9.060396 
L 310.214817 9.564535 
L 310.277947 10.474862 
L 310.319184 13.889353 
L 310.54426 18.05675 
L 310.603966 17.769944 
L 310.687073 17.950164 
L 310.748399 17.617037 
L 310.970777 21.206185 
L 310.991458 25.24483 
L 311.104492 24.334201 
L 311.257164 21.212228 
L 311.649666 29.920379 
L 311.734914 29.732139 
L 311.755655 31.72689 
L 311.87338 29.092251 
L 311.934459 31.874185 
L 311.995878 30.980869 
L 312.169951 31.592058 
L 312.438119 24.076227 
L 312.509859 24.082286 
L 312.591823 22.782329 
L 312.712527 23.500868 
L 312.874057 20.526074 
L 312.874213 20.961076 
L 313.016952 21.717693 
L 313.283744 27.96658 
L 313.445723 21.462059 
L 313.6938 17.482164 
L 313.833446 18.373503 
L 313.875046 17.730606 
L 314.016498 18.032693 
L 314.141626 14.507867 
L 314.282054 18.769045 
L 314.383028 19.474839 
L 314.48748 18.102649 
L 314.539948 19.122425 
L 314.669717 18.785531 
L 314.709494 19.678797 
L 314.873434 16.485027 
L 315.03519 18.88191 
L 315.117108 18.018519 
L 315.320063 23.955103 
L 315.380904 22.383697 
L 315.474263 22.639497 
L 315.545134 25.15477 
L 315.654069 25.985991 
L 315.876944 23.381239 
L 315.973811 27.978313 
L 316.219648 27.198105 
L 316.302551 27.19649 
L 316.384125 22.149277 
L 316.686362 27.909186 
L 316.749919 26.575653 
L 316.830894 20.397205 
L 316.889612 21.277123 
L 316.971312 21.196384 
L 317.11388 22.881394 
L 317.134642 20.484885 
L 317.219041 25.255672 
L 317.49143 21.157428 
L 317.569456 21.339549 
L 317.659052 26.641709 
L 317.815913 21.038455 
L 317.93046 20.093943 
L 317.992977 21.254127 
L 318.07489 15.582457 
L 318.154037 15.701003 
L 318.2766 16.130106 
L 318.363869 17.225538 
L 318.398621 19.901738 
L 318.480071 16.718154 
L 318.735915 23.063741 
L 318.846525 21.038013 
L 318.908192 26.743756 
L 319.09172 28.337508 
L 319.294775 27.462974 
L 319.417391 29.576885 
L 319.498286 31.848813 
L 319.58057 31.487354 
L 319.68273 33.566167 
L 319.845723 28.19666 
L 320.255716 22.368984 
L 320.437323 16.812754 
L 320.829694 20.26099 
L 320.864718 19.634929 
L 321.029677 20.150828 
L 321.090483 20.669242 
L 321.191173 20.251064 
L 321.292915 22.989809 
L 321.354021 22.794312 
L 321.435967 21.488334 
L 321.558886 21.475029 
L 321.701065 23.222311 
L 321.864965 20.093357 
L 322.070119 23.268249 
L 322.113246 21.726593 
L 322.251749 22.60407 
L 322.31266 25.912854 
L 322.37401 23.754252 
L 322.478125 22.954914 
L 322.621842 24.853226 
L 322.700126 24.789519 
L 322.823984 23.127403 
L 322.864226 20.6455 
L 322.945316 21.665033 
L 323.290694 17.443196 
L 323.456753 22.754024 
L 323.537114 25.192769 
L 323.555508 22.80838 
L 323.64259 22.5878 
L 323.761467 22.744392 
L 323.922364 19.673257 
L 324.004225 20.324254 
L 324.146724 23.989662 
L 324.392135 20.175492 
L 324.622184 21.753882 
L 324.720522 24.074077 
L 324.807192 23.230473 
L 324.901003 23.529245 
L 325.227467 18.650131 
L 325.308323 18.809953 
L 325.409688 18.184782 
L 325.512737 19.440827 
L 325.573304 17.549518 
L 325.674704 17.735422 
L 325.760706 16.115858 
L 325.819044 17.564899 
L 325.899191 14.618208 
L 326.09344 18.850853 
L 326.205556 19.14292 
L 326.2467 18.751974 
L 326.327412 16.898199 
L 326.592088 20.622215 
L 326.669096 19.624743 
L 326.750372 21.732668 
L 326.911119 20.297431 
L 327.337303 27.45903 
L 327.626014 24.000795 
L 327.673944 26.301799 
L 327.848728 24.730586 
L 327.930561 25.165345 
L 328.134957 22.739448 
L 328.216959 19.927654 
L 328.258658 21.124793 
L 328.440353 25.487812 
L 328.503899 23.757646 
L 328.79322 25.095343 
L 328.929526 27.882993 
L 329.193366 24.152769 
L 329.277517 25.791117 
L 329.357302 25.047691 
L 329.441729 25.399976 
L 329.523921 27.058763 
L 329.607495 25.592421 
L 329.705389 25.835664 
L 329.86719 27.909775 
L 329.94848 28.491665 
L 330.031499 24.485631 
L 330.115476 25.633889 
L 330.132429 25.237296 
L 330.193465 26.281572 
L 330.277891 27.037095 
L 330.358798 24.552569 
L 330.458919 26.302238 
L 330.544791 26.115456 
L 330.734963 23.633095 
L 330.745143 25.859813 
L 330.786278 21.898328 
L 330.971141 16.944238 
L 331.045086 18.247807 
L 331.21897 17.49605 
L 331.300535 17.947413 
L 331.378426 17.536614 
L 331.78777 32.688158 
L 331.970479 28.408115 
L 332.051341 29.158276 
L 332.297339 18.506583 
L 332.395053 18.895318 
L 332.481025 12.402658 
L 332.562139 13.905629 
L 332.745654 10.802837 
L 333.033392 15.513087 
L 333.214812 17.567166 
L 333.316273 23.535947 
L 333.458127 22.907617 
L 333.527298 24.134129 
L 333.681586 31.502658 
L 333.887058 32.61781 
L 333.988033 30.627388 
L 334.02876 35.171585 
L 334.089611 32.976937 
L 334.192509 29.156738 
L 334.252425 31.276776 
L 334.580062 23.524518 
L 334.682296 22.649516 
L 334.780672 25.232699 
L 334.821473 22.242195 
L 334.906313 22.243468 
L 334.985494 22.666293 
L 335.08812 18.977898 
L 335.169941 19.586672 
L 335.252283 19.84651 
L 335.392795 21.1156 
L 335.535303 26.979709 
L 335.600662 26.547097 
L 335.658784 23.547605 
L 335.793628 24.318495 
L 335.841878 23.53982 
L 335.952414 24.032037 
L 336.046964 23.216856 
L 336.209326 16.906933 
L 336.291219 10.758482 
L 336.416294 10.621055 
L 336.514293 11.813409 
L 336.697379 16.34439 
L 336.779498 15.484618 
L 337.134641 23.064662 
L 337.229461 21.864839 
L 337.35398 20.121004 
L 337.433272 19.59321 
L 337.541614 16.561626 
L 337.615925 17.911739 
L 337.820014 17.132193 
L 338.001814 13.303526 
L 338.048999 14.430086 
L 338.135028 13.199858 
L 338.328157 15.136269 
L 338.36857 16.560871 
L 338.451248 15.091459 
L 338.635334 15.217516 
L 338.717461 13.529503 
L 338.89897 17.403626 
L 339.12358 17.942546 
L 339.307174 20.992538 
L 339.369968 20.441858 
L 339.47188 21.45456 
L 339.553965 21.1284 
L 339.896656 23.748323 
L 340.142193 20.300836 
L 340.370803 23.037584 
L 340.427566 27.282228 
L 340.5094 26.884395 
L 340.671961 23.190548 
L 340.804348 22.445134 
L 341.004963 22.798744 
L 341.172531 21.050656 
L 341.276093 15.710639 
L 341.319852 17.391804 
L 341.508273 21.237813 
L 341.591374 20.857438 
L 341.753057 21.419961 
L 341.875369 20.086236 
L 342.021471 23.101898 
L 342.161883 19.560159 
L 342.364684 15.236941 
L 342.472089 16.073528 
L 342.507232 16.065643 
L 342.588427 15.575854 
L 343.261762 29.539353 
L 343.343607 29.203451 
L 343.445695 29.443746 
L 343.526539 31.438234 
L 343.860357 23.17957 
L 343.934538 28.586527 
L 344.0169 28.43769 
L 344.118109 27.718433 
L 344.180931 28.374161 
L 344.344171 22.85448 
L 344.42488 23.099767 
L 344.527442 22.61799 
L 344.647933 23.742713 
L 344.996088 15.192213 
L 345.058917 16.195441 
L 345.11996 19.803594 
L 345.284534 14.369293 
L 345.368777 16.004815 
L 345.450532 14.536627 
L 345.534895 15.566509 
L 345.800651 22.417671 
L 346.02023 24.763512 
L 346.21102 30.416766 
L 346.287168 30.135657 
L 346.470021 27.04225 
L 346.550545 24.989496 
L 346.632967 27.22919 
L 346.797267 22.512841 
L 346.815747 26.828146 
L 346.993881 20.480424 
L 347.039994 20.843521 
L 347.304161 24.41075 
L 347.467759 19.583207 
L 347.810157 28.651196 
L 348.007394 29.964472 
L 348.080606 30.75089 
L 348.140083 28.97796 
L 348.236275 33.120627 
L 348.318345 32.134103 
L 348.496909 26.024705 
L 348.600597 26.217994 
L 348.934143 18.661283 
L 348.988746 20.872155 
L 349.068905 17.904685 
L 349.170329 18.57028 
L 349.272838 21.205596 
L 349.333589 17.808743 
L 349.414737 18.69726 
L 349.537061 18.950822 
L 349.659231 17.819929 
L 349.782655 16.223928 
L 349.908845 20.007044 
L 350.168225 14.35296 
L 350.298603 12.473124 
L 350.519353 16.694384 
L 350.597584 17.198696 
L 350.679857 15.165178 
L 350.802172 15.339309 
L 350.875689 16.138198 
L 351.112248 22.104351 
L 351.209524 23.987018 
L 351.273188 22.907587 
L 351.456072 26.202979 
L 351.597718 25.839089 
L 351.740667 23.370725 
L 351.780685 25.640316 
L 352.055868 15.390917 
L 352.11116 16.141333 
L 352.335825 10.862483 
L 352.415359 11.784312 
L 352.523683 12.944547 
L 352.680526 12.382472 
L 352.721419 15.861712 
L 352.850001 13.575785 
L 353.128586 24.755313 
L 353.213246 22.117562 
L 353.414639 23.254733 
L 353.475571 18.663612 
L 353.576453 24.282801 
L 353.617701 22.740381 
L 353.898007 17.300063 
L 354.168951 21.669556 
L 354.2698 19.377438 
L 354.31067 23.376677 
L 354.475853 16.489825 
L 354.637185 17.433349 
L 354.699987 16.972563 
L 354.71952 18.169832 
L 354.71952 18.169832 
" clip-path="url(#pb08c799f7f)" style="fill: none; stroke: #ff0000; stroke-opacity: 0.5; stroke-width: 2.1; stroke-linecap: square"/>
   </g>
   <g id="patch_3">
    <path d="M 23.760625 148.36327 
L 23.760625 0.72 
" style="fill: none; stroke: #000000; stroke-width: 0.8; stroke-linejoin: miter; stroke-linecap: square"/>
   </g>
   <g id="patch_4">
    <path d="M 354.71952 148.36327 
L 354.71952 0.72 
" style="fill: none; stroke: #000000; stroke-width: 0.8; stroke-linejoin: miter; stroke-linecap: square"/>
   </g>
   <g id="patch_5">
    <path d="M 23.760625 148.36327 
L 354.71952 148.36327 
" style="fill: none; stroke: #000000; stroke-width: 0.8; stroke-linejoin: miter; stroke-linecap: square"/>
   </g>
   <g id="patch_6">
    <path d="M 23.760625 0.72 
L 354.71952 0.72 
" style="fill: none; stroke: #000000; stroke-width: 0.8; stroke-linejoin: miter; stroke-linecap: square"/>
   </g>
   <g id="legend_1">
    <g id="patch_7">
     <path d="M 30.760625 143.36327 
L 104.529375 143.36327 
Q 106.529375 143.36327 106.529375 141.36327 
L 106.529375 113.00702 
Q 106.529375 111.00702 104.529375 111.00702 
L 30.760625 111.00702 
Q 28.760625 111.00702 28.760625 113.00702 
L 28.760625 141.36327 
Q 28.760625 143.36327 30.760625 143.36327 
z
" style="fill: #ffffff; opacity: 0.8; stroke: #cccccc; stroke-linejoin: miter"/>
    </g>
    <g id="line2d_25">
     <path d="M 32.760625 119.105458 
L 42.760625 119.105458 
L 52.760625 119.105458 
" style="fill: none; stroke: #0000ff; stroke-opacity: 0.5; stroke-width: 2.1; stroke-linecap: square"/>
    </g>
    <g id="text_14">
     <!-- RNEA -->
     <g transform="translate(60.760625 122.605458) scale(0.1 -0.1)">
      <defs>
       <path id="DejaVuSans-52" d="M 2841 2188 
Q 3044 2119 3236 1894 
Q 3428 1669 3622 1275 
L 4263 0 
L 3584 0 
L 2988 1197 
Q 2756 1666 2539 1819 
Q 2322 1972 1947 1972 
L 1259 1972 
L 1259 0 
L 628 0 
L 628 4666 
L 2053 4666 
Q 2853 4666 3247 4331 
Q 3641 3997 3641 3322 
Q 3641 2881 3436 2590 
Q 3231 2300 2841 2188 
z
M 1259 4147 
L 1259 2491 
L 2053 2491 
Q 2509 2491 2742 2702 
Q 2975 2913 2975 3322 
Q 2975 3731 2742 3939 
Q 2509 4147 2053 4147 
L 1259 4147 
z
" transform="scale(0.015625)"/>
       <path id="DejaVuSans-45" d="M 628 4666 
L 3578 4666 
L 3578 4134 
L 1259 4134 
L 1259 2753 
L 3481 2753 
L 3481 2222 
L 1259 2222 
L 1259 531 
L 3634 531 
L 3634 0 
L 628 0 
L 628 4666 
z
" transform="scale(0.015625)"/>
       <path id="DejaVuSans-41" d="M 2188 4044 
L 1331 1722 
L 3047 1722 
L 2188 4044 
z
M 1831 4666 
L 2547 4666 
L 4325 0 
L 3669 0 
L 3244 1197 
L 1141 1197 
L 716 0 
L 50 0 
L 1831 4666 
z
" transform="scale(0.015625)"/>
      </defs>
      <use xlink:href="#DejaVuSans-52"/>
      <use xlink:href="#DejaVuSans-4e" x="69.482422"/>
      <use xlink:href="#DejaVuSans-45" x="144.287109"/>
      <use xlink:href="#DejaVuSans-41" x="207.470703"/>
     </g>
    </g>
    <g id="line2d_26">
     <path d="M 32.760625 133.783583 
L 42.760625 133.783583 
L 52.760625 133.783583 
" style="fill: none; stroke: #ff0000; stroke-opacity: 0.5; stroke-width: 2.1; stroke-linecap: square"/>
    </g>
    <g id="text_15">
     <!-- BURNEA -->
     <g transform="translate(60.760625 137.283583) scale(0.1 -0.1)">
      <defs>
       <path id="DejaVuSans-42" d="M 1259 2228 
L 1259 519 
L 2272 519 
Q 2781 519 3026 730 
Q 3272 941 3272 1375 
Q 3272 1813 3026 2020 
Q 2781 2228 2272 2228 
L 1259 2228 
z
M 1259 4147 
L 1259 2741 
L 2194 2741 
Q 2656 2741 2882 2914 
Q 3109 3088 3109 3444 
Q 3109 3797 2882 3972 
Q 2656 4147 2194 4147 
L 1259 4147 
z
M 628 4666 
L 2241 4666 
Q 2963 4666 3353 4366 
Q 3744 4066 3744 3513 
Q 3744 3084 3544 2831 
Q 3344 2578 2956 2516 
Q 3422 2416 3680 2098 
Q 3938 1781 3938 1306 
Q 3938 681 3513 340 
Q 3088 0 2303 0 
L 628 0 
L 628 4666 
z
" transform="scale(0.015625)"/>
       <path id="DejaVuSans-55" d="M 556 4666 
L 1191 4666 
L 1191 1831 
Q 1191 1081 1462 751 
Q 1734 422 2344 422 
Q 2950 422 3222 751 
Q 3494 1081 3494 1831 
L 3494 4666 
L 4128 4666 
L 4128 1753 
Q 4128 841 3676 375 
Q 3225 -91 2344 -91 
Q 1459 -91 1007 375 
Q 556 841 556 1753 
L 556 4666 
z
" transform="scale(0.015625)"/>
      </defs>
      <use xlink:href="#DejaVuSans-42"/>
      <use xlink:href="#DejaVuSans-55" x="68.603516"/>
      <use xlink:href="#DejaVuSans-52" x="141.796875"/>
      <use xlink:href="#DejaVuSans-4e" x="211.279297"/>
      <use xlink:href="#DejaVuSans-45" x="286.083984"/>
      <use xlink:href="#DejaVuSans-41" x="349.267578"/>
     </g>
    </g>
   </g>
  </g>
 </g>
 <defs>
  <clipPath id="pb08c799f7f">
   <rect x="23.760625" y="0.72" width="330.958895" height="147.64327"/>
  </clipPath>
 </defs>
</svg>
