<?xml version="1.0" encoding="utf-8" standalone="no"?>
<!DOCTYPE svg PUBLIC "-//W3C//DTD SVG 1.1//EN"
  "http://www.w3.org/Graphics/SVG/1.1/DTD/svg11.dtd">
<svg xmlns:xlink="http://www.w3.org/1999/xlink" width="597.222813pt" height="304.99625pt" viewBox="0 0 597.222813 304.99625" xmlns="http://www.w3.org/2000/svg" version="1.1">
 <metadata>
  <rdf:RDF xmlns:dc="http://purl.org/dc/elements/1.1/" xmlns:cc="http://creativecommons.org/ns#" xmlns:rdf="http://www.w3.org/1999/02/22-rdf-syntax-ns#">
   <cc:Work>
    <dc:type rdf:resource="http://purl.org/dc/dcmitype/StillImage"/>
    <dc:date>2023-09-07T03:30:24.925035</dc:date>
    <dc:format>image/svg+xml</dc:format>
    <dc:creator>
     <cc:Agent>
      <dc:title>Matplotlib v3.7.2, https://matplotlib.org/</dc:title>
     </cc:Agent>
    </dc:creator>
   </cc:Work>
  </rdf:RDF>
 </metadata>
 <defs>
  <style type="text/css">*{stroke-linejoin: round; stroke-linecap: butt}</style>
 </defs>
 <g id="figure_1">
  <g id="patch_1">
   <path d="M 0 304.99625 
L 597.222813 304.99625 
L 597.222813 0 
L 0 0 
L 0 304.99625 
z
" style="fill: none"/>
  </g>
  <g id="axes_1">
   <g id="patch_2">
    <path d="M 38.502813 277.92 
L 596.502813 277.92 
L 596.502813 0.72 
L 38.502813 0.72 
L 38.502813 277.92 
z
" style="fill: none"/>
   </g>
   <g id="matplotlib.axis_1">
    <g id="xtick_1">
     <g id="line2d_1">
      <path d="M 38.502813 277.92 
L 38.502813 0.72 
" clip-path="url(#p64e11e0d8d)" style="fill: none; stroke-dasharray: 0.8,1.32; stroke-dashoffset: 0; stroke: #000000; stroke-opacity: 0.5; stroke-width: 0.8"/>
     </g>
     <g id="line2d_2">
      <defs>
       <path id="m5fb7ce2921" d="M 0 0 
L 0 3.5 
" style="stroke: #000000; stroke-width: 0.8"/>
      </defs>
      <g>
       <use xlink:href="#m5fb7ce2921" x="38.502813" y="277.92" style="stroke: #000000; stroke-width: 0.8"/>
      </g>
     </g>
     <g id="text_1">
      <!-- 0.0 -->
      <g transform="translate(30.55125 292.518438) scale(0.1 -0.1)">
       <defs>
        <path id="DejaVuSans-30" d="M 2034 4250 
Q 1547 4250 1301 3770 
Q 1056 3291 1056 2328 
Q 1056 1369 1301 889 
Q 1547 409 2034 409 
Q 2525 409 2770 889 
Q 3016 1369 3016 2328 
Q 3016 3291 2770 3770 
Q 2525 4250 2034 4250 
z
M 2034 4750 
Q 2819 4750 3233 4129 
Q 3647 3509 3647 2328 
Q 3647 1150 3233 529 
Q 2819 -91 2034 -91 
Q 1250 -91 836 529 
Q 422 1150 422 2328 
Q 422 3509 836 4129 
Q 1250 4750 2034 4750 
z
" transform="scale(0.015625)"/>
        <path id="DejaVuSans-2e" d="M 684 794 
L 1344 794 
L 1344 0 
L 684 0 
L 684 794 
z
" transform="scale(0.015625)"/>
       </defs>
       <use xlink:href="#DejaVuSans-30"/>
       <use xlink:href="#DejaVuSans-2e" x="63.623047"/>
       <use xlink:href="#DejaVuSans-30" x="95.410156"/>
      </g>
     </g>
    </g>
    <g id="xtick_2">
     <g id="line2d_3">
      <path d="M 112.654137 277.92 
L 112.654137 0.72 
" clip-path="url(#p64e11e0d8d)" style="fill: none; stroke-dasharray: 0.8,1.32; stroke-dashoffset: 0; stroke: #000000; stroke-opacity: 0.5; stroke-width: 0.8"/>
     </g>
     <g id="line2d_4">
      <g>
       <use xlink:href="#m5fb7ce2921" x="112.654137" y="277.92" style="stroke: #000000; stroke-width: 0.8"/>
      </g>
     </g>
     <g id="text_2">
      <!-- 2.5 -->
      <g transform="translate(104.702575 292.518438) scale(0.1 -0.1)">
       <defs>
        <path id="DejaVuSans-32" d="M 1228 531 
L 3431 531 
L 3431 0 
L 469 0 
L 469 531 
Q 828 903 1448 1529 
Q 2069 2156 2228 2338 
Q 2531 2678 2651 2914 
Q 2772 3150 2772 3378 
Q 2772 3750 2511 3984 
Q 2250 4219 1831 4219 
Q 1534 4219 1204 4116 
Q 875 4013 500 3803 
L 500 4441 
Q 881 4594 1212 4672 
Q 1544 4750 1819 4750 
Q 2544 4750 2975 4387 
Q 3406 4025 3406 3419 
Q 3406 3131 3298 2873 
Q 3191 2616 2906 2266 
Q 2828 2175 2409 1742 
Q 1991 1309 1228 531 
z
" transform="scale(0.015625)"/>
        <path id="DejaVuSans-35" d="M 691 4666 
L 3169 4666 
L 3169 4134 
L 1269 4134 
L 1269 2991 
Q 1406 3038 1543 3061 
Q 1681 3084 1819 3084 
Q 2600 3084 3056 2656 
Q 3513 2228 3513 1497 
Q 3513 744 3044 326 
Q 2575 -91 1722 -91 
Q 1428 -91 1123 -41 
Q 819 9 494 109 
L 494 744 
Q 775 591 1075 516 
Q 1375 441 1709 441 
Q 2250 441 2565 725 
Q 2881 1009 2881 1497 
Q 2881 1984 2565 2268 
Q 2250 2553 1709 2553 
Q 1456 2553 1204 2497 
Q 953 2441 691 2322 
L 691 4666 
z
" transform="scale(0.015625)"/>
       </defs>
       <use xlink:href="#DejaVuSans-32"/>
       <use xlink:href="#DejaVuSans-2e" x="63.623047"/>
       <use xlink:href="#DejaVuSans-35" x="95.410156"/>
      </g>
     </g>
    </g>
    <g id="xtick_3">
     <g id="line2d_5">
      <path d="M 186.805462 277.92 
L 186.805462 0.72 
" clip-path="url(#p64e11e0d8d)" style="fill: none; stroke-dasharray: 0.8,1.32; stroke-dashoffset: 0; stroke: #000000; stroke-opacity: 0.5; stroke-width: 0.8"/>
     </g>
     <g id="line2d_6">
      <g>
       <use xlink:href="#m5fb7ce2921" x="186.805462" y="277.92" style="stroke: #000000; stroke-width: 0.8"/>
      </g>
     </g>
     <g id="text_3">
      <!-- 5.0 -->
      <g transform="translate(178.8539 292.518438) scale(0.1 -0.1)">
       <use xlink:href="#DejaVuSans-35"/>
       <use xlink:href="#DejaVuSans-2e" x="63.623047"/>
       <use xlink:href="#DejaVuSans-30" x="95.410156"/>
      </g>
     </g>
    </g>
    <g id="xtick_4">
     <g id="line2d_7">
      <path d="M 260.956787 277.92 
L 260.956787 0.72 
" clip-path="url(#p64e11e0d8d)" style="fill: none; stroke-dasharray: 0.8,1.32; stroke-dashoffset: 0; stroke: #000000; stroke-opacity: 0.5; stroke-width: 0.8"/>
     </g>
     <g id="line2d_8">
      <g>
       <use xlink:href="#m5fb7ce2921" x="260.956787" y="277.92" style="stroke: #000000; stroke-width: 0.8"/>
      </g>
     </g>
     <g id="text_4">
      <!-- 7.5 -->
      <g transform="translate(253.005225 292.518438) scale(0.1 -0.1)">
       <defs>
        <path id="DejaVuSans-37" d="M 525 4666 
L 3525 4666 
L 3525 4397 
L 1831 0 
L 1172 0 
L 2766 4134 
L 525 4134 
L 525 4666 
z
" transform="scale(0.015625)"/>
       </defs>
       <use xlink:href="#DejaVuSans-37"/>
       <use xlink:href="#DejaVuSans-2e" x="63.623047"/>
       <use xlink:href="#DejaVuSans-35" x="95.410156"/>
      </g>
     </g>
    </g>
    <g id="xtick_5">
     <g id="line2d_9">
      <path d="M 335.108112 277.92 
L 335.108112 0.72 
" clip-path="url(#p64e11e0d8d)" style="fill: none; stroke-dasharray: 0.8,1.32; stroke-dashoffset: 0; stroke: #000000; stroke-opacity: 0.5; stroke-width: 0.8"/>
     </g>
     <g id="line2d_10">
      <g>
       <use xlink:href="#m5fb7ce2921" x="335.108112" y="277.92" style="stroke: #000000; stroke-width: 0.8"/>
      </g>
     </g>
     <g id="text_5">
      <!-- 10.0 -->
      <g transform="translate(323.9753 292.518438) scale(0.1 -0.1)">
       <defs>
        <path id="DejaVuSans-31" d="M 794 531 
L 1825 531 
L 1825 4091 
L 703 3866 
L 703 4441 
L 1819 4666 
L 2450 4666 
L 2450 531 
L 3481 531 
L 3481 0 
L 794 0 
L 794 531 
z
" transform="scale(0.015625)"/>
       </defs>
       <use xlink:href="#DejaVuSans-31"/>
       <use xlink:href="#DejaVuSans-30" x="63.623047"/>
       <use xlink:href="#DejaVuSans-2e" x="127.246094"/>
       <use xlink:href="#DejaVuSans-30" x="159.033203"/>
      </g>
     </g>
    </g>
    <g id="xtick_6">
     <g id="line2d_11">
      <path d="M 409.259437 277.92 
L 409.259437 0.72 
" clip-path="url(#p64e11e0d8d)" style="fill: none; stroke-dasharray: 0.8,1.32; stroke-dashoffset: 0; stroke: #000000; stroke-opacity: 0.5; stroke-width: 0.8"/>
     </g>
     <g id="line2d_12">
      <g>
       <use xlink:href="#m5fb7ce2921" x="409.259437" y="277.92" style="stroke: #000000; stroke-width: 0.8"/>
      </g>
     </g>
     <g id="text_6">
      <!-- 12.5 -->
      <g transform="translate(398.126625 292.518438) scale(0.1 -0.1)">
       <use xlink:href="#DejaVuSans-31"/>
       <use xlink:href="#DejaVuSans-32" x="63.623047"/>
       <use xlink:href="#DejaVuSans-2e" x="127.246094"/>
       <use xlink:href="#DejaVuSans-35" x="159.033203"/>
      </g>
     </g>
    </g>
    <g id="xtick_7">
     <g id="line2d_13">
      <path d="M 483.410762 277.92 
L 483.410762 0.72 
" clip-path="url(#p64e11e0d8d)" style="fill: none; stroke-dasharray: 0.8,1.32; stroke-dashoffset: 0; stroke: #000000; stroke-opacity: 0.5; stroke-width: 0.8"/>
     </g>
     <g id="line2d_14">
      <g>
       <use xlink:href="#m5fb7ce2921" x="483.410762" y="277.92" style="stroke: #000000; stroke-width: 0.8"/>
      </g>
     </g>
     <g id="text_7">
      <!-- 15.0 -->
      <g transform="translate(472.27795 292.518438) scale(0.1 -0.1)">
       <use xlink:href="#DejaVuSans-31"/>
       <use xlink:href="#DejaVuSans-35" x="63.623047"/>
       <use xlink:href="#DejaVuSans-2e" x="127.246094"/>
       <use xlink:href="#DejaVuSans-30" x="159.033203"/>
      </g>
     </g>
    </g>
    <g id="xtick_8">
     <g id="line2d_15">
      <path d="M 557.562087 277.92 
L 557.562087 0.72 
" clip-path="url(#p64e11e0d8d)" style="fill: none; stroke-dasharray: 0.8,1.32; stroke-dashoffset: 0; stroke: #000000; stroke-opacity: 0.5; stroke-width: 0.8"/>
     </g>
     <g id="line2d_16">
      <g>
       <use xlink:href="#m5fb7ce2921" x="557.562087" y="277.92" style="stroke: #000000; stroke-width: 0.8"/>
      </g>
     </g>
     <g id="text_8">
      <!-- 17.5 -->
      <g transform="translate(546.429274 292.518438) scale(0.1 -0.1)">
       <use xlink:href="#DejaVuSans-31"/>
       <use xlink:href="#DejaVuSans-37" x="63.623047"/>
       <use xlink:href="#DejaVuSans-2e" x="127.246094"/>
       <use xlink:href="#DejaVuSans-35" x="159.033203"/>
      </g>
     </g>
    </g>
    <g id="text_9">
     <!-- Zeit [s] -->
     <g transform="translate(299.556719 302.196563) scale(0.1 -0.1)">
      <defs>
       <path id="DejaVuSans-5a" d="M 359 4666 
L 4025 4666 
L 4025 4184 
L 1075 531 
L 4097 531 
L 4097 0 
L 288 0 
L 288 481 
L 3238 4134 
L 359 4134 
L 359 4666 
z
" transform="scale(0.015625)"/>
       <path id="DejaVuSans-65" d="M 3597 1894 
L 3597 1613 
L 953 1613 
Q 991 1019 1311 708 
Q 1631 397 2203 397 
Q 2534 397 2845 478 
Q 3156 559 3463 722 
L 3463 178 
Q 3153 47 2828 -22 
Q 2503 -91 2169 -91 
Q 1331 -91 842 396 
Q 353 884 353 1716 
Q 353 2575 817 3079 
Q 1281 3584 2069 3584 
Q 2775 3584 3186 3129 
Q 3597 2675 3597 1894 
z
M 3022 2063 
Q 3016 2534 2758 2815 
Q 2500 3097 2075 3097 
Q 1594 3097 1305 2825 
Q 1016 2553 972 2059 
L 3022 2063 
z
" transform="scale(0.015625)"/>
       <path id="DejaVuSans-69" d="M 603 3500 
L 1178 3500 
L 1178 0 
L 603 0 
L 603 3500 
z
M 603 4863 
L 1178 4863 
L 1178 4134 
L 603 4134 
L 603 4863 
z
" transform="scale(0.015625)"/>
       <path id="DejaVuSans-74" d="M 1172 4494 
L 1172 3500 
L 2356 3500 
L 2356 3053 
L 1172 3053 
L 1172 1153 
Q 1172 725 1289 603 
Q 1406 481 1766 481 
L 2356 481 
L 2356 0 
L 1766 0 
Q 1100 0 847 248 
Q 594 497 594 1153 
L 594 3053 
L 172 3053 
L 172 3500 
L 594 3500 
L 594 4494 
L 1172 4494 
z
" transform="scale(0.015625)"/>
       <path id="DejaVuSans-20" transform="scale(0.015625)"/>
       <path id="DejaVuSans-5b" d="M 550 4863 
L 1875 4863 
L 1875 4416 
L 1125 4416 
L 1125 -397 
L 1875 -397 
L 1875 -844 
L 550 -844 
L 550 4863 
z
" transform="scale(0.015625)"/>
       <path id="DejaVuSans-73" d="M 2834 3397 
L 2834 2853 
Q 2591 2978 2328 3040 
Q 2066 3103 1784 3103 
Q 1356 3103 1142 2972 
Q 928 2841 928 2578 
Q 928 2378 1081 2264 
Q 1234 2150 1697 2047 
L 1894 2003 
Q 2506 1872 2764 1633 
Q 3022 1394 3022 966 
Q 3022 478 2636 193 
Q 2250 -91 1575 -91 
Q 1294 -91 989 -36 
Q 684 19 347 128 
L 347 722 
Q 666 556 975 473 
Q 1284 391 1588 391 
Q 1994 391 2212 530 
Q 2431 669 2431 922 
Q 2431 1156 2273 1281 
Q 2116 1406 1581 1522 
L 1381 1569 
Q 847 1681 609 1914 
Q 372 2147 372 2553 
Q 372 3047 722 3315 
Q 1072 3584 1716 3584 
Q 2034 3584 2315 3537 
Q 2597 3491 2834 3397 
z
" transform="scale(0.015625)"/>
       <path id="DejaVuSans-5d" d="M 1947 4863 
L 1947 -844 
L 622 -844 
L 622 -397 
L 1369 -397 
L 1369 4416 
L 622 4416 
L 622 4863 
L 1947 4863 
z
" transform="scale(0.015625)"/>
      </defs>
      <use xlink:href="#DejaVuSans-5a"/>
      <use xlink:href="#DejaVuSans-65" x="68.505859"/>
      <use xlink:href="#DejaVuSans-69" x="130.029297"/>
      <use xlink:href="#DejaVuSans-74" x="157.8125"/>
      <use xlink:href="#DejaVuSans-20" x="197.021484"/>
      <use xlink:href="#DejaVuSans-5b" x="228.808594"/>
      <use xlink:href="#DejaVuSans-73" x="267.822266"/>
      <use xlink:href="#DejaVuSans-5d" x="319.921875"/>
     </g>
    </g>
   </g>
   <g id="matplotlib.axis_2">
    <g id="ytick_1">
     <g id="line2d_17">
      <path d="M 38.502813 258.334755 
L 596.502813 258.334755 
" clip-path="url(#p64e11e0d8d)" style="fill: none; stroke-dasharray: 0.8,1.32; stroke-dashoffset: 0; stroke: #000000; stroke-opacity: 0.5; stroke-width: 0.8"/>
     </g>
     <g id="line2d_18">
      <defs>
       <path id="m0163117aea" d="M 0 0 
L -3.5 0 
" style="stroke: #000000; stroke-width: 0.8"/>
      </defs>
      <g>
       <use xlink:href="#m0163117aea" x="38.502813" y="258.334755" style="stroke: #000000; stroke-width: 0.8"/>
      </g>
     </g>
     <g id="text_10">
      <!-- −50 -->
      <g transform="translate(10.398125 262.133974) scale(0.1 -0.1)">
       <defs>
        <path id="DejaVuSans-2212" d="M 678 2272 
L 4684 2272 
L 4684 1741 
L 678 1741 
L 678 2272 
z
" transform="scale(0.015625)"/>
       </defs>
       <use xlink:href="#DejaVuSans-2212"/>
       <use xlink:href="#DejaVuSans-35" x="83.789062"/>
       <use xlink:href="#DejaVuSans-30" x="147.412109"/>
      </g>
     </g>
    </g>
    <g id="ytick_2">
     <g id="line2d_19">
      <path d="M 38.502813 222.373377 
L 596.502813 222.373377 
" clip-path="url(#p64e11e0d8d)" style="fill: none; stroke-dasharray: 0.8,1.32; stroke-dashoffset: 0; stroke: #000000; stroke-opacity: 0.5; stroke-width: 0.8"/>
     </g>
     <g id="line2d_20">
      <g>
       <use xlink:href="#m0163117aea" x="38.502813" y="222.373377" style="stroke: #000000; stroke-width: 0.8"/>
      </g>
     </g>
     <g id="text_11">
      <!-- −40 -->
      <g transform="translate(10.398125 226.172595) scale(0.1 -0.1)">
       <defs>
        <path id="DejaVuSans-34" d="M 2419 4116 
L 825 1625 
L 2419 1625 
L 2419 4116 
z
M 2253 4666 
L 3047 4666 
L 3047 1625 
L 3713 1625 
L 3713 1100 
L 3047 1100 
L 3047 0 
L 2419 0 
L 2419 1100 
L 313 1100 
L 313 1709 
L 2253 4666 
z
" transform="scale(0.015625)"/>
       </defs>
       <use xlink:href="#DejaVuSans-2212"/>
       <use xlink:href="#DejaVuSans-34" x="83.789062"/>
       <use xlink:href="#DejaVuSans-30" x="147.412109"/>
      </g>
     </g>
    </g>
    <g id="ytick_3">
     <g id="line2d_21">
      <path d="M 38.502813 186.411998 
L 596.502813 186.411998 
" clip-path="url(#p64e11e0d8d)" style="fill: none; stroke-dasharray: 0.8,1.32; stroke-dashoffset: 0; stroke: #000000; stroke-opacity: 0.5; stroke-width: 0.8"/>
     </g>
     <g id="line2d_22">
      <g>
       <use xlink:href="#m0163117aea" x="38.502813" y="186.411998" style="stroke: #000000; stroke-width: 0.8"/>
      </g>
     </g>
     <g id="text_12">
      <!-- −30 -->
      <g transform="translate(10.398125 190.211217) scale(0.1 -0.1)">
       <defs>
        <path id="DejaVuSans-33" d="M 2597 2516 
Q 3050 2419 3304 2112 
Q 3559 1806 3559 1356 
Q 3559 666 3084 287 
Q 2609 -91 1734 -91 
Q 1441 -91 1130 -33 
Q 819 25 488 141 
L 488 750 
Q 750 597 1062 519 
Q 1375 441 1716 441 
Q 2309 441 2620 675 
Q 2931 909 2931 1356 
Q 2931 1769 2642 2001 
Q 2353 2234 1838 2234 
L 1294 2234 
L 1294 2753 
L 1863 2753 
Q 2328 2753 2575 2939 
Q 2822 3125 2822 3475 
Q 2822 3834 2567 4026 
Q 2313 4219 1838 4219 
Q 1578 4219 1281 4162 
Q 984 4106 628 3988 
L 628 4550 
Q 988 4650 1302 4700 
Q 1616 4750 1894 4750 
Q 2613 4750 3031 4423 
Q 3450 4097 3450 3541 
Q 3450 3153 3228 2886 
Q 3006 2619 2597 2516 
z
" transform="scale(0.015625)"/>
       </defs>
       <use xlink:href="#DejaVuSans-2212"/>
       <use xlink:href="#DejaVuSans-33" x="83.789062"/>
       <use xlink:href="#DejaVuSans-30" x="147.412109"/>
      </g>
     </g>
    </g>
    <g id="ytick_4">
     <g id="line2d_23">
      <path d="M 38.502813 150.45062 
L 596.502813 150.45062 
" clip-path="url(#p64e11e0d8d)" style="fill: none; stroke-dasharray: 0.8,1.32; stroke-dashoffset: 0; stroke: #000000; stroke-opacity: 0.5; stroke-width: 0.8"/>
     </g>
     <g id="line2d_24">
      <g>
       <use xlink:href="#m0163117aea" x="38.502813" y="150.45062" style="stroke: #000000; stroke-width: 0.8"/>
      </g>
     </g>
     <g id="text_13">
      <!-- −20 -->
      <g transform="translate(10.398125 154.249838) scale(0.1 -0.1)">
       <use xlink:href="#DejaVuSans-2212"/>
       <use xlink:href="#DejaVuSans-32" x="83.789062"/>
       <use xlink:href="#DejaVuSans-30" x="147.412109"/>
      </g>
     </g>
    </g>
    <g id="ytick_5">
     <g id="line2d_25">
      <path d="M 38.502813 114.489241 
L 596.502813 114.489241 
" clip-path="url(#p64e11e0d8d)" style="fill: none; stroke-dasharray: 0.8,1.32; stroke-dashoffset: 0; stroke: #000000; stroke-opacity: 0.5; stroke-width: 0.8"/>
     </g>
     <g id="line2d_26">
      <g>
       <use xlink:href="#m0163117aea" x="38.502813" y="114.489241" style="stroke: #000000; stroke-width: 0.8"/>
      </g>
     </g>
     <g id="text_14">
      <!-- −10 -->
      <g transform="translate(10.398125 118.28846) scale(0.1 -0.1)">
       <use xlink:href="#DejaVuSans-2212"/>
       <use xlink:href="#DejaVuSans-31" x="83.789062"/>
       <use xlink:href="#DejaVuSans-30" x="147.412109"/>
      </g>
     </g>
    </g>
    <g id="ytick_6">
     <g id="line2d_27">
      <path d="M 38.502813 78.527863 
L 596.502813 78.527863 
" clip-path="url(#p64e11e0d8d)" style="fill: none; stroke-dasharray: 0.8,1.32; stroke-dashoffset: 0; stroke: #000000; stroke-opacity: 0.5; stroke-width: 0.8"/>
     </g>
     <g id="line2d_28">
      <g>
       <use xlink:href="#m0163117aea" x="38.502813" y="78.527863" style="stroke: #000000; stroke-width: 0.8"/>
      </g>
     </g>
     <g id="text_15">
      <!-- 0 -->
      <g transform="translate(25.140313 82.327081) scale(0.1 -0.1)">
       <use xlink:href="#DejaVuSans-30"/>
      </g>
     </g>
    </g>
    <g id="ytick_7">
     <g id="line2d_29">
      <path d="M 38.502813 42.566484 
L 596.502813 42.566484 
" clip-path="url(#p64e11e0d8d)" style="fill: none; stroke-dasharray: 0.8,1.32; stroke-dashoffset: 0; stroke: #000000; stroke-opacity: 0.5; stroke-width: 0.8"/>
     </g>
     <g id="line2d_30">
      <g>
       <use xlink:href="#m0163117aea" x="38.502813" y="42.566484" style="stroke: #000000; stroke-width: 0.8"/>
      </g>
     </g>
     <g id="text_16">
      <!-- 10 -->
      <g transform="translate(18.777813 46.365703) scale(0.1 -0.1)">
       <use xlink:href="#DejaVuSans-31"/>
       <use xlink:href="#DejaVuSans-30" x="63.623047"/>
      </g>
     </g>
    </g>
    <g id="ytick_8">
     <g id="line2d_31">
      <path d="M 38.502813 6.605106 
L 596.502813 6.605106 
" clip-path="url(#p64e11e0d8d)" style="fill: none; stroke-dasharray: 0.8,1.32; stroke-dashoffset: 0; stroke: #000000; stroke-opacity: 0.5; stroke-width: 0.8"/>
     </g>
     <g id="line2d_32">
      <g>
       <use xlink:href="#m0163117aea" x="38.502813" y="6.605106" style="stroke: #000000; stroke-width: 0.8"/>
      </g>
     </g>
     <g id="text_17">
      <!-- 20 -->
      <g transform="translate(18.777813 10.404324) scale(0.1 -0.1)">
       <use xlink:href="#DejaVuSans-32"/>
       <use xlink:href="#DejaVuSans-30" x="63.623047"/>
      </g>
     </g>
    </g>
    <g id="text_18">
     <!-- Kraft [N] -->
     <g transform="translate(8.318438 160.5825) rotate(-90) scale(0.1 -0.1)">
      <defs>
       <path id="DejaVuSans-4b" d="M 628 4666 
L 1259 4666 
L 1259 2694 
L 3353 4666 
L 4166 4666 
L 1850 2491 
L 4331 0 
L 3500 0 
L 1259 2247 
L 1259 0 
L 628 0 
L 628 4666 
z
" transform="scale(0.015625)"/>
       <path id="DejaVuSans-72" d="M 2631 2963 
Q 2534 3019 2420 3045 
Q 2306 3072 2169 3072 
Q 1681 3072 1420 2755 
Q 1159 2438 1159 1844 
L 1159 0 
L 581 0 
L 581 3500 
L 1159 3500 
L 1159 2956 
Q 1341 3275 1631 3429 
Q 1922 3584 2338 3584 
Q 2397 3584 2469 3576 
Q 2541 3569 2628 3553 
L 2631 2963 
z
" transform="scale(0.015625)"/>
       <path id="DejaVuSans-61" d="M 2194 1759 
Q 1497 1759 1228 1600 
Q 959 1441 959 1056 
Q 959 750 1161 570 
Q 1363 391 1709 391 
Q 2188 391 2477 730 
Q 2766 1069 2766 1631 
L 2766 1759 
L 2194 1759 
z
M 3341 1997 
L 3341 0 
L 2766 0 
L 2766 531 
Q 2569 213 2275 61 
Q 1981 -91 1556 -91 
Q 1019 -91 701 211 
Q 384 513 384 1019 
Q 384 1609 779 1909 
Q 1175 2209 1959 2209 
L 2766 2209 
L 2766 2266 
Q 2766 2663 2505 2880 
Q 2244 3097 1772 3097 
Q 1472 3097 1187 3025 
Q 903 2953 641 2809 
L 641 3341 
Q 956 3463 1253 3523 
Q 1550 3584 1831 3584 
Q 2591 3584 2966 3190 
Q 3341 2797 3341 1997 
z
" transform="scale(0.015625)"/>
       <path id="DejaVuSans-66" d="M 2375 4863 
L 2375 4384 
L 1825 4384 
Q 1516 4384 1395 4259 
Q 1275 4134 1275 3809 
L 1275 3500 
L 2222 3500 
L 2222 3053 
L 1275 3053 
L 1275 0 
L 697 0 
L 697 3053 
L 147 3053 
L 147 3500 
L 697 3500 
L 697 3744 
Q 697 4328 969 4595 
Q 1241 4863 1831 4863 
L 2375 4863 
z
" transform="scale(0.015625)"/>
       <path id="DejaVuSans-4e" d="M 628 4666 
L 1478 4666 
L 3547 763 
L 3547 4666 
L 4159 4666 
L 4159 0 
L 3309 0 
L 1241 3903 
L 1241 0 
L 628 0 
L 628 4666 
z
" transform="scale(0.015625)"/>
      </defs>
      <use xlink:href="#DejaVuSans-4b"/>
      <use xlink:href="#DejaVuSans-72" x="65.576172"/>
      <use xlink:href="#DejaVuSans-61" x="106.689453"/>
      <use xlink:href="#DejaVuSans-66" x="167.96875"/>
      <use xlink:href="#DejaVuSans-74" x="201.423828"/>
      <use xlink:href="#DejaVuSans-20" x="240.632812"/>
      <use xlink:href="#DejaVuSans-5b" x="272.419922"/>
      <use xlink:href="#DejaVuSans-4e" x="311.433594"/>
      <use xlink:href="#DejaVuSans-5d" x="386.238281"/>
     </g>
    </g>
   </g>
   <g id="line2d_33">
    <path d="M 38.502813 272.589231 
L 223.732051 272.56788 
L 224.048213 272.419664 
L 225.274355 270.788457 
L 226.226817 270.478174 
L 226.525541 270.503998 
L 226.707352 270.749913 
L 228.972776 270.395557 
L 229.211707 270.061724 
L 229.86666 269.921689 
L 230.173069 269.654799 
L 230.705939 269.718491 
L 230.945101 269.238062 
L 231.663719 269.664093 
L 232.136825 269.174749 
L 232.316057 268.327682 
L 232.434509 269.232512 
L 232.915984 268.550272 
L 233.208451 267.860367 
L 233.387885 268.165982 
L 233.626662 268.017637 
L 233.864567 267.524699 
L 234.163673 268.532075 
L 234.459871 267.120276 
L 234.638675 267.463811 
L 234.877477 267.544945 
L 235.11598 267.430816 
L 235.432665 266.909545 
L 235.72695 267.144377 
L 235.906757 266.259866 
L 236.084479 266.803596 
L 236.384217 266.3837 
L 236.621287 265.609566 
L 237.157824 265.167852 
L 237.395703 265.080531 
L 237.695023 264.433409 
L 237.874902 265.691973 
L 238.35076 264.324308 
L 238.589264 264.675714 
L 238.828455 264.559149 
L 239.065068 263.343433 
L 239.305311 263.411166 
L 239.840779 262.683954 
L 240.023237 263.890615 
L 240.317181 262.574009 
L 240.793797 261.629625 
L 241.151839 262.095032 
L 241.389884 261.263342 
L 241.806632 261.03728 
L 242.044896 261.347252 
L 242.344062 259.955697 
L 242.641746 260.323052 
L 242.939843 259.763576 
L 243.118815 259.744301 
L 243.41606 259.849031 
L 243.539421 259.135478 
L 243.836562 259.348655 
L 244.253567 257.699809 
L 244.531837 257.748882 
L 244.760099 258.337709 
L 245.741822 255.25002 
L 246.202726 255.520294 
L 246.337942 255.328715 
L 246.460816 256.640607 
L 246.754794 254.043356 
L 246.994239 255.242269 
L 247.232263 255.774452 
L 247.469526 253.747724 
L 247.708076 253.674589 
L 248.125328 253.42197 
L 248.363697 253.10562 
L 248.543255 253.831718 
L 248.848689 250.527583 
L 249.020847 252.629795 
L 249.218981 251.26974 
L 249.530817 251.073009 
L 249.796994 249.797262 
L 249.91722 250.624438 
L 250.454559 249.118345 
L 250.69308 249.562022 
L 251.466717 245.960998 
L 251.705896 245.950716 
L 252.004037 246.511143 
L 252.243865 246.059828 
L 252.425758 244.312723 
L 252.958474 245.707956 
L 253.137428 245.140672 
L 253.437262 242.737104 
L 253.732822 243.854321 
L 253.912799 243.386258 
L 254.151034 243.2574 
L 254.390353 243.374498 
L 254.866171 240.397235 
L 255.283195 243.378601 
L 255.64118 239.45807 
L 255.702331 240.557799 
L 255.879236 239.733076 
L 256.118256 240.208553 
L 256.357 239.968408 
L 256.596713 237.069467 
L 257.013573 236.156433 
L 257.134596 238.817128 
L 257.430682 236.09692 
L 257.61066 235.862462 
L 257.848051 236.332467 
L 258.20509 235.516806 
L 258.577231 232.380816 
L 258.859825 236.048777 
L 259.158214 233.236664 
L 259.487917 233.419908 
L 259.730147 232.452432 
L 259.876027 229.757649 
L 260.173233 231.203063 
L 260.294447 230.747955 
L 260.949329 225.986969 
L 261.322962 228.641294 
L 261.490067 228.118216 
L 261.602805 229.057118 
L 261.975746 227.127519 
L 262.086563 225.261314 
L 262.328785 227.2374 
L 262.55622 226.649821 
L 262.794199 226.381893 
L 263.151773 226.860337 
L 263.330837 223.557809 
L 263.866901 221.333673 
L 264.105397 221.692053 
L 264.285849 223.402777 
L 264.643203 220.220881 
L 264.881961 219.590906 
L 265.058864 218.788439 
L 265.299527 219.774382 
L 265.714773 216.540258 
L 265.955612 218.941897 
L 266.191948 215.946286 
L 266.252174 217.530074 
L 266.48981 217.578338 
L 266.788459 216.136488 
L 267.09442 215.857294 
L 267.324829 215.06393 
L 267.563622 211.988796 
L 267.759853 213.787736 
L 268.338011 212.41333 
L 268.532791 211.30745 
L 268.756773 211.768703 
L 269.017167 210.220505 
L 269.233644 210.736809 
L 269.530633 212.009107 
L 269.887378 209.85299 
L 270.125731 210.18132 
L 270.245132 207.611487 
L 270.661966 205.901978 
L 270.723 204.875966 
L 271.318588 206.49403 
L 271.561653 202.743045 
L 271.735812 205.111603 
L 271.975033 202.500889 
L 272.273994 203.222173 
L 272.454512 202.440494 
L 272.689423 198.840711 
L 272.927961 202.531653 
L 273.17533 200.131591 
L 273.464189 199.210648 
L 273.643316 198.033298 
L 274.219372 195.741519 
L 274.658263 194.830781 
L 274.845561 194.738297 
L 275.037647 194.49795 
L 275.313574 192.938602 
L 275.437851 195.79504 
L 275.791628 193.745174 
L 275.91339 191.197982 
L 276.20821 191.120973 
L 276.393789 191.935582 
L 276.812326 190.87234 
L 277.049078 192.087732 
L 277.590469 185.676563 
L 277.779075 187.418224 
L 278.12053 183.250644 
L 278.475781 187.142309 
L 278.624491 184.7205 
L 278.955747 185.282543 
L 279.193852 184.207862 
L 279.431173 181.504936 
L 279.612332 183.308738 
L 279.907556 179.587357 
L 280.086959 179.582276 
L 280.384925 177.207933 
L 280.623809 178.23973 
L 280.980465 175.425621 
L 281.1601 177.288857 
L 281.457142 175.649459 
L 281.594071 177.032858 
L 281.873928 172.427606 
L 282.056615 175.903015 
L 282.113657 172.649174 
L 282.351481 172.474808 
L 282.533731 172.538913 
L 282.828435 170.193243 
L 283.306338 169.157202 
L 283.66432 165.434349 
L 284.088847 169.279849 
L 284.319934 167.647275 
L 284.563335 164.859648 
L 284.856401 163.7119 
L 285.034625 164.376458 
L 285.276257 159.851282 
L 285.690436 162.790131 
L 285.810779 161.307397 
L 286.048783 160.486738 
L 286.292195 158.633574 
L 286.526687 162.640862 
L 286.769413 158.732204 
L 287.007247 162.756576 
L 287.262421 156.543145 
L 287.484106 161.33091 
L 287.900764 154.89757 
L 288.024509 150.468893 
L 288.259375 153.712024 
L 288.497522 145.590402 
L 288.736219 152.887311 
L 289.035046 153.358753 
L 289.24077 153.290389 
L 289.455069 146.112781 
L 289.811148 147.958047 
L 290.227704 145.712229 
L 290.465879 145.955998 
L 290.883363 146.464137 
L 290.948755 143.907015 
L 291.225488 144.612145 
L 291.495528 148.106314 
L 291.679836 142.717054 
L 292.13465 143.947428 
L 292.194976 135.389448 
L 292.432576 139.532971 
L 292.730948 139.802097 
L 292.969282 140.491528 
L 293.504983 136.480285 
L 293.689059 137.583549 
L 293.924229 137.55375 
L 294.221147 141.607009 
L 294.466574 135.727012 
L 294.698997 139.186142 
L 294.878318 132.679252 
L 295.173661 134.616419 
L 295.717231 125.921481 
L 295.948103 129.641571 
L 296.19442 128.821684 
L 296.607631 125.858407 
L 297.152314 125.925351 
L 297.438974 121.200239 
L 297.620443 125.43871 
L 297.929888 121.693129 
L 298.095365 123.550003 
L 298.335465 120.65793 
L 298.632709 123.255534 
L 298.870236 116.173158 
L 299.108436 121.255093 
L 299.60655 116.489437 
L 299.827215 115.524116 
L 300.182774 118.933757 
L 300.361705 115.54758 
L 301.494049 106.360811 
L 301.613328 110.239022 
L 301.911255 103.182291 
L 302.09056 110.311892 
L 302.447614 105.398722 
L 302.626399 108.838442 
L 302.80676 97.905848 
L 303.043886 106.068181 
L 303.341324 104.483027 
L 303.54503 105.701768 
L 303.826118 101.913295 
L 304.119111 102.172718 
L 304.41641 101.713205 
L 304.595673 97.952323 
L 304.95287 97.502538 
L 305.252232 101.018717 
L 305.548602 94.937997 
L 305.846457 98.311233 
L 306.02906 92.386543 
L 306.385283 91.26177 
L 306.562027 106.797791 
L 306.801509 93.780049 
L 306.996024 93.570446 
L 307.281744 91.164047 
L 307.900046 89.026379 
L 308.067971 82.086263 
L 308.299126 92.123371 
L 308.537897 85.906587 
L 308.839248 86.881551 
L 309.086734 86.707755 
L 309.930311 80.536388 
L 310.001814 82.196586 
L 310.28921 78.893354 
L 310.527271 83.615699 
L 310.708003 79.007982 
L 311.063774 79.828578 
L 311.242711 75.963518 
L 311.611583 72.562985 
L 311.781527 76.96861 
L 312.017687 77.766203 
L 312.375319 69.34633 
L 312.501747 73.028598 
L 313.090224 76.276427 
L 313.212638 113.905188 
L 313.568273 113.476498 
L 313.805492 111.991019 
L 314.235778 89.250377 
L 314.58015 88.796348 
L 314.701814 82.482026 
L 314.938888 85.061665 
L 315.237717 78.406152 
L 315.682591 77.355368 
L 316.33419 80.653442 
L 316.452034 72.775532 
L 316.695304 79.488673 
L 316.995565 73.828613 
L 317.110027 78.472462 
L 317.410895 77.188511 
L 317.763281 80.435586 
L 318.180102 79.244897 
L 318.359189 80.435543 
L 318.718927 76.259635 
L 318.959086 76.460012 
L 319.49789 81.131428 
L 319.614865 79.124281 
L 319.910478 82.320292 
L 320.14826 79.352062 
L 320.328134 78.832317 
L 320.624731 77.500325 
L 320.864807 78.828469 
L 321.102007 75.243353 
L 321.340325 77.849748 
L 321.584298 78.408793 
L 321.878065 74.7432 
L 322.357206 78.640014 
L 322.592008 79.153333 
L 322.840479 78.640919 
L 323.070052 78.960917 
L 323.310491 78.936462 
L 323.548541 81.420695 
L 323.963903 81.183429 
L 324.083748 81.834894 
L 324.50419 80.078729 
L 324.569671 76.759146 
L 324.802157 78.80544 
L 325.098086 78.971315 
L 325.454334 78.430384 
L 325.633327 77.452 
L 325.812051 79.023827 
L 326.051482 76.111733 
L 326.294583 76.752877 
L 326.530758 78.47197 
L 326.852363 77.305931 
L 327.242305 79.358388 
L 327.301953 78.272018 
L 327.540635 79.010329 
L 327.778986 78.776623 
L 328.256505 80.13563 
L 328.495475 76.22672 
L 328.794246 80.524291 
L 329.171816 78.690779 
L 329.275333 80.039131 
L 329.508337 81.316637 
L 329.745474 77.005807 
L 330.162941 78.840223 
L 330.580948 78.770385 
L 330.761294 80.324432 
L 331.057073 79.105792 
L 331.312423 80.793017 
L 331.798258 77.96745 
L 332.018819 79.412456 
L 332.487919 79.076068 
L 332.725398 80.530898 
L 333.024265 78.754666 
L 333.267721 79.751988 
L 333.502737 80.094534 
L 333.741417 78.267693 
L 333.980504 78.986107 
L 334.226045 80.402278 
L 334.581092 77.414202 
L 335.022935 79.117164 
L 335.231468 79.011613 
L 335.709664 81.458404 
L 335.971918 80.682647 
L 336.184852 78.275631 
L 336.423478 78.061621 
L 336.663453 78.09113 
L 336.900926 79.584057 
L 337.317585 78.63735 
L 337.437428 77.921502 
L 337.736454 79.48714 
L 337.916816 78.822791 
L 338.161358 76.200856 
L 338.54477 80.30919 
L 338.658091 78.222089 
L 338.991294 79.216786 
L 339.29103 76.223549 
L 339.410048 79.305485 
L 339.825811 78.927731 
L 339.945144 79.158927 
L 340.12328 78.842681 
L 340.421547 77.830557 
L 340.719728 80.938114 
L 340.898441 79.314757 
L 341.13678 78.617533 
L 341.375437 79.167719 
L 341.615004 78.052181 
L 341.917182 80.091642 
L 342.091832 80.155878 
L 342.390217 77.997663 
L 342.592547 78.603739 
L 342.865715 78.763758 
L 343.224194 81.03515 
L 343.364331 78.836403 
L 343.582206 78.819822 
L 343.819625 78.537115 
L 344.2367 79.011692 
L 344.355474 77.987431 
L 344.835051 79.687573 
L 345.073439 79.072357 
L 345.381281 79.445192 
L 345.609531 80.091716 
L 345.793405 77.328403 
L 346.084919 79.32258 
L 346.386542 79.29812 
L 346.623265 76.996753 
L 346.800697 80.037974 
L 347.046882 78.626318 
L 347.336523 78.090164 
L 347.633595 78.557318 
L 347.812551 79.239003 
L 348.051726 78.897667 
L 348.470912 78.525331 
L 348.531021 78.950215 
L 349.025631 78.781107 
L 349.25029 80.11519 
L 349.603408 78.762224 
L 349.8421 78.800664 
L 350.139628 79.357756 
L 350.557034 75.439115 
L 350.855204 79.573761 
L 351.272515 78.748541 
L 351.510253 76.065955 
L 351.86755 81.493829 
L 352.048182 78.434823 
L 352.34541 79.651723 
L 352.643325 78.513472 
L 352.763199 79.152473 
L 353.001631 81.215785 
L 353.358236 78.314337 
L 353.777296 78.627952 
L 354.192068 76.573818 
L 354.49016 80.210112 
L 354.729169 78.78929 
L 354.967142 79.085148 
L 355.26572 78.672065 
L 355.563366 78.834235 
L 355.691361 81.029194 
L 355.993376 78.850425 
L 356.230389 78.805156 
L 356.695564 81.192813 
L 357.11492 80.943031 
L 357.232346 78.168074 
L 357.414082 78.976026 
L 357.768024 78.644711 
L 358.067321 79.078726 
L 358.200121 79.768132 
L 358.619507 78.824646 
L 358.726755 80.006592 
L 358.964857 80.125395 
L 359.203431 78.503496 
L 359.448191 78.497744 
L 359.739861 78.858775 
L 359.918637 78.609359 
L 360.223373 79.466497 
L 360.464925 80.711457 
L 360.754514 76.546391 
L 360.876193 80.360879 
L 361.129106 79.085227 
L 361.415503 80.176006 
L 361.661674 78.717973 
L 361.887082 78.846381 
L 362.185637 79.312289 
L 362.424082 77.844291 
L 362.662654 78.664584 
L 362.950189 80.25636 
L 363.20353 76.151292 
L 363.423447 79.005023 
L 363.622003 78.494353 
L 363.916371 81.063516 
L 364.393153 78.911975 
L 364.630544 78.566935 
L 364.92917 79.206347 
L 365.107627 78.782848 
L 365.345698 79.193014 
L 365.643635 75.813867 
L 365.941582 78.661181 
L 366.120566 78.413494 
L 366.430486 80.989168 
L 366.661699 78.830191 
L 366.95586 78.824833 
L 367.137644 78.937473 
L 367.313284 79.200764 
L 367.613202 78.819247 
L 367.848153 80.008731 
L 368.164973 80.127209 
L 368.328014 78.282511 
L 368.629685 80.766729 
L 368.92628 78.820568 
L 369.113805 79.155202 
L 369.34484 78.980066 
L 369.529356 78.180708 
L 369.821758 78.278581 
L 370.240307 75.581889 
L 370.360723 79.660783 
L 370.778089 78.541885 
L 371.015218 79.022954 
L 371.312315 80.896627 
L 371.555098 79.199765 
L 371.789135 79.113531 
L 372.027824 78.667537 
L 372.325578 79.083017 
L 372.861574 80.527021 
L 373.397043 78.483416 
L 373.93445 81.133184 
L 373.993192 74.170228 
L 374.356468 78.452849 
L 374.64956 79.324309 
L 374.71244 79.099091 
L 375.080509 79.044525 
L 375.245909 78.586072 
L 375.486534 80.020568 
L 375.841426 78.631934 
L 376.021182 78.797874 
L 376.325316 79.909704 
L 376.501063 75.7187 
L 376.735908 78.464546 
L 377.275259 78.584544 
L 377.454122 81.460511 
L 377.691085 81.133109 
L 377.97089 78.386904 
L 378.467507 78.810427 
L 378.705786 78.80598 
L 379.003346 81.116376 
L 379.182787 78.762047 
L 379.541591 79.273653 
L 379.77876 77.418451 
L 379.957593 78.184358 
L 380.315476 78.47181 
L 380.43452 79.652039 
L 380.67377 79.527178 
L 380.971538 79.746554 
L 381.209422 78.713258 
L 381.566802 78.654008 
L 381.744983 79.019623 
L 382.170296 78.794075 
L 382.401177 77.843468 
L 382.640935 80.021055 
L 382.938268 78.323337 
L 383.116642 79.208944 
L 383.414778 78.66064 
L 383.653191 78.822613 
L 383.891272 80.59956 
L 384.130172 78.601748 
L 384.36784 78.241804 
L 385.141968 81.082345 
L 385.442062 78.920149 
L 385.737779 78.627069 
L 385.982328 77.086377 
L 386.154941 80.708662 
L 386.572481 78.758849 
L 386.633083 78.952375 
L 386.871953 79.121433 
L 387.288124 78.804953 
L 387.408358 81.52218 
L 387.704159 77.002229 
L 387.883735 79.020617 
L 388.12156 78.940509 
L 388.360572 80.934532 
L 388.83674 78.755504 
L 389.078696 78.451362 
L 389.373409 78.970948 
L 389.731908 78.663647 
L 389.85151 78.828015 
L 390.209139 78.830265 
L 390.327434 79.926298 
L 390.566718 78.468404 
L 390.866233 75.588791 
L 391.578394 78.732177 
L 391.956832 78.747729 
L 392.061414 79.020009 
L 392.294363 77.5851 
L 392.534085 80.650394 
L 392.832412 79.391343 
L 393.014287 78.582091 
L 393.427847 80.944287 
L 393.65145 77.164654 
L 393.785792 78.473047 
L 394.023607 78.489344 
L 394.261973 78.687906 
L 394.798172 78.44128 
L 395.156539 79.360057 
L 395.275553 80.654232 
L 395.574048 79.557446 
L 395.817442 79.255459 
L 396.050757 79.952343 
L 396.289007 79.166562 
L 396.468688 79.056185 
L 396.709418 78.565907 
L 397.006497 78.370473 
L 397.24286 78.593005 
L 397.480824 80.395983 
L 397.839129 78.780804 
L 398.01748 79.478843 
L 398.255879 79.019872 
L 398.493969 80.916603 
L 398.732782 78.794358 
L 399.032184 78.652331 
L 399.38968 79.342342 
L 399.629341 79.417159 
L 399.867123 76.394349 
L 399.986143 80.357043 
L 400.464749 78.261985 
L 400.710246 79.841436 
L 401.000306 80.361794 
L 401.240795 78.486192 
L 401.476641 78.235977 
L 401.775515 79.093357 
L 401.955105 78.566483 
L 402.253688 75.827324 
L 402.431344 80.111667 
L 402.669635 78.625044 
L 403.162416 79.235202 
L 403.206332 79.453431 
L 403.397622 76.646258 
L 403.633589 78.697742 
L 403.922551 79.197343 
L 404.402506 78.332993 
L 404.641312 79.608073 
L 404.947887 76.207417 
L 405.175669 78.986489 
L 405.385104 78.422898 
L 405.65268 78.099881 
L 405.894417 75.876889 
L 406.132636 78.545585 
L 406.426561 78.474711 
L 406.667313 79.399843 
L 406.963223 79.004213 
L 407.144113 75.299431 
L 407.380891 75.806797 
L 407.619993 79.185389 
L 407.860801 78.91914 
L 408.217822 79.831907 
L 408.398363 75.3998 
L 408.636507 78.784868 
L 408.917998 78.876168 
L 409.234688 78.364975 
L 409.470635 80.365677 
L 409.589722 76.264413 
L 409.829013 75.966617 
L 410.126347 79.181093 
L 410.42592 79.041069 
L 410.606015 78.12449 
L 410.844374 79.651477 
L 411.143152 78.877404 
L 411.320402 79.133178 
L 411.619643 79.046361 
L 411.857209 78.032015 
L 412.096215 81.175605 
L 412.512689 78.839078 
L 412.58546 79.197167 
L 412.87158 78.727466 
L 413.062343 77.775062 
L 413.456757 80.457296 
L 413.584819 78.008351 
L 413.81476 78.787128 
L 414.11483 79.160863 
L 414.472681 79.071163 
L 414.533583 80.962112 
L 414.830286 78.306277 
L 415.068038 78.374498 
L 415.309724 78.691534 
L 415.559664 78.812466 
L 415.96323 78.305802 
L 416.023198 78.49025 
L 416.321581 78.246104 
L 416.563927 78.899111 
L 416.805148 77.578957 
L 417.002271 79.694226 
L 417.276707 77.580954 
L 417.756951 78.986874 
L 418.054464 79.267567 
L 418.471725 78.771518 
L 418.530943 79.012685 
L 418.770431 78.004977 
L 419.126668 78.654613 
L 419.305279 80.341518 
L 419.487583 80.268474 
L 419.724077 80.67171 
L 419.962564 78.962612 
L 420.281437 78.811362 
L 420.501517 79.049285 
L 420.738015 77.118395 
L 420.975057 78.935797 
L 421.214128 78.678908 
L 421.512226 78.944805 
L 421.693249 78.468688 
L 422.225812 77.966729 
L 422.234324 98.336493 
L 422.468961 78.5424 
L 422.825214 80.80241 
L 423.004989 80.012387 
L 423.252127 79.948019 
L 423.484338 78.562319 
L 423.840978 78.514115 
L 423.960579 80.167132 
L 424.145321 78.589961 
L 424.43705 78.143748 
L 424.675708 78.82846 
L 424.915208 78.672523 
L 425.155055 78.1784 
L 425.574673 75.583482 
L 425.629286 80.986226 
L 425.988437 78.936259 
L 426.172027 79.11139 
L 426.40654 78.805142 
L 426.64547 78.754542 
L 427.065099 78.878905 
L 427.190077 79.898033 
L 427.445399 78.61439 
L 427.659166 80.787522 
L 427.90644 80.533056 
L 427.958088 78.090406 
L 428.19698 77.085193 
L 428.436409 78.829974 
L 428.619145 78.143045 
L 428.8559 78.953386 
L 429.151322 78.861596 
L 429.628082 75.309251 
L 430.10485 81.422884 
L 430.344322 81.633624 
L 430.903823 78.75295 
L 431.121983 78.638562 
L 431.357652 53.892955 
L 431.597523 67.967835 
L 431.843497 70.919692 
L 432.095657 71.717697 
L 432.328044 73.062968 
L 432.561897 71.788084 
L 432.821237 75.842142 
L 433.156978 77.219098 
L 433.463552 79.640325 
L 433.594031 79.676376 
L 433.87843 79.234902 
L 434.121676 82.226719 
L 434.414608 81.119034 
L 434.534949 82.237013 
L 434.776173 80.957698 
L 435.198864 84.254937 
L 435.318081 82.214136 
L 435.54992 82.106056 
L 435.793016 82.151569 
L 436.163582 81.202512 
L 436.324342 82.913027 
L 436.627299 81.545329 
L 436.862153 82.371438 
L 437.100266 83.957428 
L 437.400723 80.972229 
L 437.640155 85.331297 
L 437.947846 81.788057 
L 438.091135 82.002117 
L 438.242412 80.778889 
L 438.507695 83.508922 
L 438.778576 83.450091 
L 439.093849 84.681155 
L 439.259491 87.637913 
L 439.609454 84.628277 
L 439.813723 86.163475 
L 440.027646 83.360726 
L 440.505242 86.038133 
L 440.743769 84.987126 
L 440.985603 86.686858 
L 441.360449 87.452242 
L 441.460589 86.314115 
L 441.817555 86.914697 
L 441.996582 85.996774 
L 442.261655 87.608781 
L 442.476381 89.989914 
L 442.882088 85.493927 
L 443.119643 86.975401 
L 443.306995 86.659949 
L 443.537398 91.522977 
L 443.835364 87.286619 
L 444.01571 86.87192 
L 444.193965 87.81232 
L 444.670741 91.029036 
L 444.792607 88.787343 
L 445.029606 86.978936 
L 445.566243 90.456605 
L 445.69185 86.98691 
L 446.223006 91.115947 
L 446.46149 89.720596 
L 446.93948 92.743475 
L 447.182432 90.559866 
L 447.656135 93.049774 
L 447.904892 90.466526 
L 448.138367 91.907305 
L 448.437338 91.632907 
L 448.625267 91.899856 
L 448.91479 91.340853 
L 449.152725 91.380971 
L 449.392189 94.572196 
L 449.808343 92.523044 
L 449.89612 92.87644 
L 450.16705 92.607051 
L 450.46407 91.907995 
L 450.761942 93.97805 
L 450.94209 92.444878 
L 451.180519 95.426299 
L 451.425902 94.36966 
L 451.658653 94.519277 
L 451.839194 93.816806 
L 452.077357 94.192658 
L 452.326715 96.926046 
L 452.613173 94.559754 
L 452.864845 94.653681 
L 453.098099 96.978049 
L 453.469682 95.760933 
L 453.632802 97.750899 
L 453.809319 95.024735 
L 454.134366 94.645374 
L 454.345201 97.608814 
L 454.765606 97.238837 
L 455.071869 95.676845 
L 455.300727 99.364363 
L 455.539853 97.22476 
L 455.961335 96.861382 
L 456.150748 96.234265 
L 456.387019 97.450628 
L 456.566905 100.410123 
L 456.984034 99.809876 
L 457.044693 99.50746 
L 457.462645 100.399706 
L 457.700957 98.69325 
L 457.762486 99.29511 
L 458.176246 101.410033 
L 458.295734 97.268952 
L 458.535771 100.299109 
L 458.772737 100.183152 
L 459.18988 100.981614 
L 459.309275 100.417281 
L 459.548312 100.714032 
L 459.792529 101.432973 
L 459.846799 100.267861 
L 460.264394 103.972532 
L 460.505547 100.971294 
L 460.801349 99.931488 
L 460.981197 101.832647 
L 461.300883 101.875308 
L 461.461133 100.707218 
L 461.759676 105.030691 
L 461.997667 102.477205 
L 462.240011 103.701023 
L 462.535859 101.988295 
L 463.848593 105.541687 
L 464.210024 103.100341 
L 464.468285 104.528842 
L 464.68398 104.479168 
L 464.923343 103.452152 
L 465.170704 105.867021 
L 465.469677 106.845904 
L 466.009353 103.746332 
L 466.243917 106.13944 
L 466.483619 105.7791 
L 466.663185 105.183297 
L 466.961408 107.902887 
L 467.199234 106.679162 
L 467.597038 107.172545 
L 467.744427 106.795776 
L 467.921045 110.602995 
L 468.454257 106.430696 
L 468.761166 108.957985 
L 468.931187 106.46316 
L 469.179483 108.480728 
L 469.542461 107.833608 
L 469.64942 106.992255 
L 469.893371 106.955124 
L 470.128335 109.868857 
L 470.435389 110.383994 
L 470.906718 109.084331 
L 471.143739 110.709362 
L 471.389817 111.220063 
L 471.682015 109.236007 
L 471.865224 110.925381 
L 472.16172 109.981191 
L 472.456786 110.699259 
L 472.636186 110.127433 
L 473.054076 112.30631 
L 473.172886 112.2606 
L 473.400235 112.36649 
L 473.634969 111.875668 
L 473.868197 111.069904 
L 474.170263 110.975443 
L 474.354868 113.600274 
L 474.645427 113.952348 
L 474.949827 113.374903 
L 475.125654 115.752887 
L 475.315542 113.379435 
L 475.601585 113.052438 
L 475.840459 115.563411 
L 476.079329 115.995104 
L 476.317061 115.77869 
L 476.555932 113.728433 
L 476.795462 116.349953 
L 477.212458 116.040389 
L 477.361592 113.06477 
L 477.749946 116.06512 
L 477.868828 115.304437 
L 478.107403 116.761435 
L 478.345862 115.985029 
L 478.643526 117.034247 
L 478.775738 115.953284 
L 479.035221 115.932944 
L 479.305237 118.163957 
L 479.600228 117.615267 
L 479.798874 117.833165 
L 480.01865 118.553469 
L 480.259337 114.219536 
L 480.639147 116.778537 
L 480.797255 115.935563 
L 481.032858 119.889763 
L 481.30086 118.772429 
L 481.817167 117.474721 
L 482.112202 119.64522 
L 482.54011 117.475576 
L 482.796157 120.008822 
L 483.087039 118.981652 
L 483.208624 121.696418 
L 483.799178 117.824172 
L 484.097273 120.40025 
L 484.216787 119.388368 
L 484.514676 120.798436 
L 484.761105 123.713526 
L 485.008903 121.091039 
L 485.230884 119.979335 
L 485.470722 119.855205 
L 485.76882 120.619386 
L 486.007356 122.493899 
L 486.483328 122.001319 
L 486.721699 123.554972 
L 486.961225 122.167057 
L 487.206514 122.2592 
L 487.440359 122.831296 
L 487.677248 122.69057 
L 488.214516 125.721916 
L 488.455338 123.554816 
L 488.751713 125.618253 
L 489.288177 122.642929 
L 489.540319 123.895708 
L 489.706772 123.844846 
L 490.005091 124.369984 
L 490.481391 124.853233 
L 490.683853 124.45924 
L 490.899752 126.033302 
L 491.201618 126.762122 
L 491.494573 124.618041 
L 491.913287 127.590213 
L 492.154206 124.882669 
L 492.390345 126.833067 
L 492.705805 126.029004 
L 492.884784 126.356432 
L 493.601015 125.756285 
L 493.66099 127.441101 
L 493.95881 125.389515 
L 494.141209 127.312777 
L 494.380638 128.271706 
L 494.614303 128.452911 
L 494.912142 128.489005 
L 495.092642 129.765561 
L 495.688062 129.421494 
L 495.866611 129.223703 
L 496.169394 130.961089 
L 496.407336 128.858101 
L 496.644163 131.871378 
L 497.122047 130.104295 
L 497.32743 131.169745 
L 497.602808 131.157312 
L 497.947291 131.001984 
L 498.144884 130.574547 
L 498.384535 132.420025 
L 498.621652 132.647001 
L 498.860584 132.290971 
L 499.099563 133.01675 
L 499.337413 131.365512 
L 500.113488 135.131215 
L 500.293182 131.349524 
L 500.609204 133.240716 
L 500.650281 132.014199 
L 500.829084 131.147706 
L 501.130331 134.80218 
L 501.604394 132.575063 
L 502.085048 135.235305 
L 502.142852 136.628762 
L 502.321119 133.499624 
L 502.758604 134.519247 
L 503.051282 134.993015 
L 503.27591 135.659871 
L 503.515493 137.098771 
L 503.872555 136.493162 
L 504.051407 134.694139 
L 504.229888 135.039879 
L 504.650095 135.291708 
L 504.707569 137.911795 
L 505.069486 137.664571 
L 505.311707 138.032155 
L 505.547959 137.450106 
L 505.78225 137.251191 
L 506.020268 137.543997 
L 506.266043 137.113418 
L 506.569872 138.821461 
L 506.746757 137.320089 
L 506.993307 137.942648 
L 507.231373 136.568506 
L 507.475334 138.696158 
L 507.708032 139.135356 
L 508.005894 139.991745 
L 508.190358 138.889788 
L 508.485193 141.314682 
L 508.787092 135.675821 
L 509.01986 141.174736 
L 509.275368 142.858918 
L 509.498512 138.801869 
L 509.921977 139.680564 
L 509.97473 140.385845 
L 510.21317 140.448515 
L 510.631246 140.220837 
L 510.932276 141.559099 
L 511.427141 141.88635 
L 511.731757 141.466203 
L 511.94593 142.718537 
L 512.202575 141.421194 
L 512.662927 144.409258 
L 512.902669 139.687356 
L 513.214663 144.528172 
L 513.619081 141.064147 
L 513.68035 143.058558 
L 513.915563 141.758316 
L 514.39837 143.913382 
L 514.571539 144.17508 
L 514.703169 142.043218 
L 514.890518 145.126753 
L 515.247869 141.019392 
L 515.468485 143.593318 
L 515.918439 145.652587 
L 516.15758 145.481936 
L 516.400242 146.751426 
L 516.762513 143.141234 
L 516.922212 145.629332 
L 517.159528 145.690111 
L 517.51651 145.320931 
L 517.702683 147.68027 
L 517.878201 145.387898 
L 518.173168 146.534988 
L 518.480489 146.190125 
L 518.653123 146.418915 
L 518.951708 145.56064 
L 519.130101 147.186057 
L 519.388449 148.037875 
L 519.86004 148.866529 
L 520.141772 153.063213 
L 520.439599 160.525002 
L 520.621899 153.142393 
L 520.859464 153.270353 
L 521.39507 156.4399 
L 521.637701 154.269954 
L 521.87368 153.318997 
L 522.117242 153.086035 
L 522.65075 148.705081 
L 522.827932 147.930993 
L 523.266623 147.998667 
L 523.497826 148.728476 
L 523.843711 148.137857 
L 524.131034 148.773336 
L 524.380779 148.765861 
L 524.857058 149.251187 
L 524.9168 149.12027 
L 525.275559 149.056316 
L 525.403427 149.272923 
L 525.814188 149.049309 
L 526.596989 148.97144 
L 527.314102 148.982072 
L 529.166701 148.934036 
L 529.284939 147.257231 
L 529.533417 148.911542 
L 529.890641 149.210151 
L 530.905653 148.871084 
L 531.262127 149.198287 
L 531.439707 148.889434 
L 531.621121 148.877097 
L 531.88268 149.069808 
L 532.001118 148.992309 
L 532.939696 148.90543 
L 533.23581 147.906164 
L 533.470149 149.957928 
L 533.72434 148.978486 
L 533.946454 148.971013 
L 534.245028 149.507436 
L 534.451003 149.23444 
L 534.720395 149.198162 
L 535.028561 148.862934 
L 535.260177 149.080028 
L 536.526316 148.929197 
L 536.938388 149.016036 
L 537.241818 148.945602 
L 538.187608 149.031026 
L 539.680701 148.988534 
L 540.393637 148.997833 
L 540.636535 149.152546 
L 540.924843 148.989429 
L 542.912553 148.996332 
L 543.867082 148.98743 
L 585.399086 149.00017 
L 586.619088 148.982785 
L 588.888745 148.990377 
L 596.502813 148.986596 
L 596.502813 148.986596 
" clip-path="url(#p64e11e0d8d)" style="fill: none; stroke: #0000ff; stroke-opacity: 0.5; stroke-width: 1.5; stroke-linecap: square"/>
   </g>
   <g id="line2d_34">
    <path d="M 38.502813 184.050765 
L 38.622916 179.968144 
L 38.865804 186.188179 
L 38.937 181.698863 
L 39.111017 182.706715 
L 39.417061 186.039332 
L 39.707596 183.347743 
L 39.885883 185.850641 
L 40.302791 183.712986 
L 40.541846 184.595214 
L 40.601545 187.726212 
L 41.257159 186.238023 
L 41.376814 186.812488 
L 41.559198 186.567395 
L 42.033407 187.451945 
L 42.091503 186.096765 
L 42.329583 184.002852 
L 42.628872 185.686532 
L 42.928055 184.388659 
L 43.164095 180.681983 
L 43.477718 187.52262 
L 43.581899 183.34954 
L 43.819883 185.973452 
L 44.060446 180.951096 
L 44.599353 185.211145 
L 44.834047 186.089509 
L 45.07223 182.999571 
L 45.371049 182.851719 
L 45.669985 186.735496 
L 45.857012 186.111144 
L 46.174796 186.637841 
L 46.328887 181.367715 
L 46.567049 186.991236 
L 46.805772 183.550207 
L 47.224756 187.854241 
L 47.405507 185.430044 
L 47.521373 188.784101 
L 47.766181 189.007875 
L 48.003493 187.230278 
L 48.244165 188.915376 
L 48.536913 187.514648 
L 49.14069 189.904569 
L 50.441813 189.936107 
L 51.746796 185.151127 
L 53.050949 182.094553 
L 54.356612 184.237432 
L 55.661121 188.721775 
L 57.085405 190.240001 
L 58.50861 185.829853 
L 59.813793 184.490474 
L 59.954398 186.020498 
L 60.430319 182.320541 
L 60.669155 182.483187 
L 60.966191 183.807071 
L 61.265892 181.704487 
L 61.445302 186.837693 
L 61.681905 189.105421 
L 61.866132 180.139549 
L 62.404 184.544393 
L 62.638974 179.964221 
L 63.11617 191.518047 
L 63.652931 181.43084 
L 63.846691 182.491158 
L 64.130974 183.131993 
L 64.72558 188.863505 
L 64.844761 182.467584 
L 65.083776 188.13968 
L 65.323835 188.135282 
L 65.636208 183.33302 
L 65.860257 187.770701 
L 66.108513 190.458133 
L 66.396826 185.067841 
L 66.876601 188.788739 
L 66.934528 184.845724 
L 67.112748 183.796414 
L 67.414376 190.752567 
L 67.588886 188.389611 
L 67.829178 181.403353 
L 68.125305 179.797764 
L 68.423426 181.102002 
L 68.602529 183.943767 
L 68.783671 183.625257 
L 69.019997 181.067647 
L 69.616891 188.65366 
L 69.855516 181.262966 
L 70.095651 178.094894 
L 70.523348 191.210273 
L 70.817845 184.789217 
L 71.292681 187.721005 
L 71.413207 191.886808 
L 71.589579 186.735175 
L 72.070236 184.687929 
L 72.364771 186.070649 
L 72.604817 192.426791 
L 72.782636 189.082636 
L 73.442011 182.402969 
L 73.737273 182.180637 
L 73.796233 184.692291 
L 74.034856 186.247835 
L 74.273425 186.039034 
L 74.512377 188.173765 
L 74.809776 187.425362 
L 75.10756 180.404127 
L 75.350039 183.546845 
L 75.534701 188.717137 
L 75.716732 189.492408 
L 75.763801 188.884246 
L 76.00305 188.899392 
L 76.299771 183.469635 
L 76.479259 183.606703 
L 76.779836 185.019133 
L 77.014868 179.893085 
L 77.492991 190.845983 
L 77.731123 183.644732 
L 78.028409 178.744131 
L 78.208334 183.456746 
L 78.984279 188.38644 
L 79.221395 186.344153 
L 79.46119 189.535791 
L 79.9365 181.137651 
L 80.48719 196.029032 
L 80.950854 186.613883 
L 81.192765 190.361719 
L 81.665653 189.726668 
L 81.785318 183.660191 
L 81.913099 184.146986 
L 82.151222 192.346083 
L 82.441028 189.733342 
L 82.620686 183.106367 
L 82.859406 185.209034 
L 83.215747 190.763649 
L 83.394399 186.473739 
L 83.632494 177.048058 
L 83.872614 178.795438 
L 84.109856 187.410639 
L 84.411018 186.281282 
L 84.706152 180.726255 
L 85.123897 190.186564 
L 85.361288 190.553007 
L 85.600003 188.120863 
L 85.838773 188.267683 
L 86.207889 187.856089 
L 86.732011 181.046245 
L 87.090643 191.371993 
L 87.329041 188.717354 
L 87.865826 178.212556 
L 88.40325 186.155897 
L 88.586765 189.888738 
L 89.00022 189.224968 
L 89.118231 189.919477 
L 89.536432 189.736585 
L 90.012432 182.08767 
L 90.081212 184.777307 
L 90.668047 186.588413 
L 91.263784 185.234179 
L 91.681363 183.914154 
L 92.038568 186.323375 
L 92.336147 185.822151 
L 92.514883 183.112464 
L 92.754169 181.449188 
L 92.991265 181.741155 
L 93.289814 185.28503 
L 93.489754 189.149978 
L 93.826284 191.164544 
L 94.004867 185.151925 
L 94.305329 179.824403 
L 94.842115 193.296518 
L 95.019457 193.239767 
L 95.257497 189.318153 
L 95.498953 187.446369 
L 96.064357 185.826712 
L 96.454062 184.03011 
L 96.573099 186.488473 
L 96.69475 194.550348 
L 97.286052 181.47201 
L 97.779913 191.872928 
L 98.063483 191.661502 
L 98.202731 184.35506 
L 98.47895 178.383943 
L 99.025598 187.317744 
L 99.325453 181.6478 
L 99.58166 181.342139 
L 99.795665 185.545611 
L 100.391 187.320379 
L 100.526244 178.284572 
L 101.868401 178.903724 
L 103.165642 180.966012 
L 104.594361 182.605304 
L 104.673559 172.509207 
L 104.853311 170.298904 
L 105.454112 183.68675 
L 105.687883 191.646495 
L 106.066219 195.40859 
L 106.305417 191.038421 
L 106.42681 181.210293 
L 106.855494 173.524492 
L 107.864974 189.045799 
L 108.164534 183.124081 
L 108.347806 175.466365 
L 108.640473 171.992295 
L 108.902733 176.995943 
L 109.117895 186.694312 
L 109.596272 196.223 
L 110.192261 175.902748 
L 110.375788 169.097431 
L 110.554204 170.248898 
L 111.052094 185.668216 
L 111.29097 186.183964 
L 111.577019 180.604498 
L 111.812008 179.421524 
L 112.049728 183.543124 
L 112.289519 190.634321 
L 112.530576 193.913305 
L 112.792567 190.341939 
L 113.325136 185.027398 
L 113.541144 180.580628 
L 113.788285 184.568124 
L 114.093357 186.144484 
L 114.540544 174.11878 
L 114.883064 174.398251 
L 115.313819 190.418464 
L 115.937099 193.713086 
L 116.216076 179.685344 
L 116.30385 177.441797 
L 116.475791 181.643476 
L 116.782905 183.143887 
L 117.130896 183.588644 
L 117.249404 184.315692 
L 117.487743 183.867637 
L 117.726095 182.070056 
L 118.024139 182.037722 
L 118.206256 182.968614 
L 118.450471 188.136005 
L 118.756347 191.369026 
L 118.928024 191.322148 
L 119.289499 191.385967 
L 119.523478 194.669054 
L 119.821194 195.973052 
L 119.945178 191.369749 
L 120.298612 185.232652 
L 120.606507 187.909533 
L 120.715903 198.451959 
L 120.9231 201.714951 
L 121.433386 189.191918 
L 121.912267 196.997858 
L 122.149815 195.734486 
L 122.624796 195.632349 
L 122.690525 197.432566 
L 122.935962 190.689177 
L 123.160922 179.768994 
L 123.589311 173.598312 
L 123.69748 180.673249 
L 123.995428 182.567571 
L 124.174029 177.220892 
L 124.35569 175.140823 
L 124.650229 175.869396 
L 124.949134 174.219668 
L 125.13009 171.619629 
L 125.427231 174.753381 
L 125.857602 187.750642 
L 126.147722 184.995167 
L 126.390896 180.484673 
L 126.627668 181.19291 
L 126.86069 183.010432 
L 127.101098 180.383926 
L 127.397474 178.531067 
L 127.755155 180.778836 
L 127.874394 184.468017 
L 128.11266 187.666954 
L 128.470607 187.568743 
L 128.590202 186.937855 
L 128.828251 186.610961 
L 129.127471 186.674355 
L 129.423624 186.563985 
L 129.721296 187.327769 
L 129.844012 188.693472 
L 130.080965 186.211426 
L 130.556998 179.27626 
L 130.795082 178.998883 
L 131.390373 183.77607 
L 131.570561 183.882342 
L 131.809921 184.239282 
L 133.080422 195.999632 
L 133.269134 193.974215 
L 133.599891 188.759757 
L 134.048442 197.516486 
L 134.27389 191.93713 
L 134.511673 183.022207 
L 134.752536 179.690351 
L 134.988169 187.933544 
L 135.299799 193.479175 
L 135.762344 183.113156 
L 136.061597 185.012912 
L 136.299914 187.285582 
L 136.537647 183.56508 
L 136.897409 180.048033 
L 137.144696 183.813771 
L 137.496099 194.29945 
L 138.031643 187.919982 
L 138.462756 193.585142 
L 138.821519 191.535547 
L 139.04073 188.488695 
L 139.34128 188.098396 
L 139.518495 186.678589 
L 139.996454 184.267063 
L 140.23413 184.344318 
L 140.475957 185.802902 
L 140.727123 183.184728 
L 141.192054 172.855039 
L 141.683584 178.101977 
L 141.74323 188.071655 
L 141.924188 194.625134 
L 142.220316 192.18517 
L 142.698106 177.036234 
L 142.935384 176.663471 
L 143.657606 194.813302 
L 144.128735 189.202269 
L 144.426045 182.157729 
L 144.665021 185.4994 
L 145.147247 195.611689 
L 145.379375 193.176685 
L 146.042843 174.60713 
L 146.15371 175.379111 
L 146.696415 188.767227 
L 147.11376 178.636092 
L 147.407001 178.600963 
L 147.88237 186.477828 
L 148.299554 189.005035 
L 148.41882 187.050144 
L 148.598417 181.91721 
L 149.076012 181.615209 
L 149.373331 183.843723 
L 149.613249 182.343294 
L 150.029772 177.36536 
L 150.089694 174.311932 
L 150.446581 177.885413 
L 150.565971 186.763602 
L 150.92311 192.172976 
L 151.353883 186.430462 
L 151.703 178.878725 
L 152.113476 190.25366 
L 152.351803 191.500872 
L 152.832111 184.956852 
L 152.888581 181.27229 
L 153.188565 177.170513 
L 153.54568 188.764229 
L 153.920396 192.226419 
L 154.319251 176.269408 
L 154.617256 175.753988 
L 155.03402 189.045189 
L 155.333455 195.437991 
L 155.572779 194.938248 
L 155.93189 188.268406 
L 156.054561 182.490821 
L 156.288871 184.785486 
L 156.824695 204.130403 
L 157.062934 204.26061 
L 157.720275 178.706446 
L 158.075811 175.943368 
L 158.732951 189.172927 
L 159.50687 171.270914 
L 159.80937 174.802292 
L 160.222772 194.324489 
L 160.639178 198.259487 
L 161.002186 182.521303 
L 161.236001 179.924953 
L 161.964836 199.590098 
L 162.194991 197.602378 
L 162.430118 189.858723 
L 162.728429 183.7235 
L 162.970124 185.352706 
L 163.449507 201.487639 
L 163.682554 199.373698 
L 164.170702 180.495363 
L 164.397251 180.908476 
L 164.755999 184.444123 
L 164.99298 185.256256 
L 165.232577 182.612195 
L 165.64954 172.544873 
L 165.889046 173.82884 
L 166.126682 178.177042 
L 166.482576 181.686232 
L 166.661225 178.970797 
L 166.89949 173.034287 
L 167.197831 173.744567 
L 167.735563 188.581922 
L 167.91455 188.373132 
L 168.152508 188.55841 
L 168.391427 188.156457 
L 168.63296 189.366037 
L 168.867709 191.133732 
L 169.165479 190.922295 
L 169.529336 189.240553 
L 169.701188 186.714604 
L 169.881582 186.339728 
L 170.359222 189.992229 
L 170.837969 185.307236 
L 171.25828 185.856923 
L 171.432118 187.391648 
L 172.146868 188.52368 
L 172.386262 188.669261 
L 172.569875 184.702236 
L 172.835447 182.265523 
L 173.339268 189.254835 
L 173.707388 184.914189 
L 173.81777 179.061971 
L 174.158309 182.350767 
L 174.314587 191.941459 
L 174.535783 192.509869 
L 175.073934 182.703914 
L 175.310543 189.549583 
L 175.54851 193.017715 
L 176.085682 183.525621 
L 176.579702 191.340835 
L 177.049623 180.390494 
L 177.755713 190.982996 
L 178.11115 186.810711 
L 178.352257 182.139474 
L 178.528778 181.543503 
L 179.02236 182.176665 
L 179.542117 196.425915 
L 179.959799 199.113717 
L 180.334683 185.367802 
L 180.554724 187.403731 
L 180.764952 196.278435 
L 181.004126 199.905971 
L 181.475653 189.43778 
L 181.716775 187.846437 
L 181.952198 188.491159 
L 182.311857 184.477281 
L 182.668141 184.269657 
L 182.972183 190.141286 
L 183.210217 190.583162 
L 183.468223 191.569511 
L 183.706024 191.677386 
L 184.008236 188.440008 
L 184.243069 184.521449 
L 184.480842 184.289779 
L 184.866663 188.696653 
L 184.96201 191.32579 
L 185.214305 188.163943 
L 185.456212 180.986995 
L 185.79372 176.667164 
L 186.210739 190.208053 
L 186.450096 191.397276 
L 186.926212 177.344225 
L 187.183426 177.711361 
L 187.521698 181.631436 
L 187.93929 183.104834 
L 188.237062 185.152254 
L 188.475599 185.549686 
L 188.65442 184.860737 
L 188.892101 185.778817 
L 189.131074 185.564023 
L 189.608368 184.253636 
L 189.845677 181.449539 
L 189.964926 183.300099 
L 190.38336 198.107534 
L 190.679785 194.005352 
L 190.869436 186.989896 
L 191.157601 187.517535 
L 191.639823 203.991229 
L 191.946866 206.836722 
L 192.356479 188.262449 
L 192.595026 178.120436 
L 192.83502 175.87972 
L 193.072666 182.934204 
L 193.31546 185.917098 
L 193.905827 174.035439 
L 194.441225 180.327338 
L 194.621423 181.018455 
L 194.919455 182.651495 
L 195.159734 188.449508 
L 195.454674 191.67261 
L 195.574242 186.662463 
L 195.812728 184.978024 
L 196.050762 191.789187 
L 196.348274 190.634492 
L 196.532194 180.913731 
L 196.824916 180.028546 
L 197.302744 194.5826 
L 197.783126 187.423083 
L 198.021222 191.186391 
L 198.278285 190.865501 
L 198.614978 183.150731 
L 198.857745 187.519952 
L 199.035959 196.178812 
L 199.328922 192.342705 
L 199.627167 185.793635 
L 199.755281 187.99194 
L 200.037406 195.42875 
L 200.288499 193.868915 
L 200.523074 185.279818 
L 200.76342 184.300454 
L 201.023906 193.63778 
L 201.252764 194.924665 
L 201.602062 188.833793 
L 201.781853 188.353351 
L 202.020372 191.335773 
L 202.258451 192.351619 
L 202.615346 190.87315 
L 202.734673 189.105101 
L 202.977069 188.947987 
L 203.271444 190.697627 
L 203.568616 190.674519 
L 203.747339 191.375643 
L 203.986273 191.064587 
L 204.347506 190.891894 
L 204.462725 190.16592 
L 204.819721 188.696417 
L 205.059555 189.277246 
L 205.180009 194.415691 
L 205.475165 202.004714 
L 205.723048 201.585003 
L 206.192034 191.407821 
L 206.452348 188.768761 
L 206.78839 196.894576 
L 207.086054 193.38744 
L 207.443269 181.333053 
L 207.682274 180.833628 
L 207.922916 182.118282 
L 208.218785 180.526003 
L 208.578156 180.856429 
L 208.70586 183.324465 
L 208.935203 184.487858 
L 209.172823 182.797227 
L 209.600943 182.158265 
L 209.830821 184.437788 
L 209.950317 188.751739 
L 210.189594 187.380728 
L 210.425683 182.687414 
L 210.903374 179.747693 
L 211.140394 176.70877 
L 211.378598 175.200388 
L 211.874719 185.560087 
L 212.333313 184.713226 
L 212.393738 178.620742 
L 212.631154 172.793034 
L 212.870117 171.605839 
L 213.168289 178.949918 
L 213.644553 194.844011 
L 213.824739 190.594901 
L 214.359272 172.836922 
L 214.60033 169.072275 
L 214.837813 169.428452 
L 215.554742 183.867464 
L 215.851328 181.778824 
L 216.089667 175.168868 
L 216.389104 172.730446 
L 216.58001 178.677246 
L 217.102957 198.856834 
L 217.400525 202.26701 
L 217.639634 198.362412 
L 217.877773 190.576022 
L 218.294893 171.674887 
L 218.776973 166.842516 
L 219.266031 164.659773 
L 219.30768 163.087727 
L 219.551399 162.299417 
L 219.665863 165.080829 
L 220.62314 192.079066 
L 221.162767 199.761678 
L 221.515496 212.029516 
L 221.99322 212.335243 
L 223.006647 181.686357 
L 223.732051 187.688435 
L 224.048213 187.453624 
L 224.26118 189.712367 
L 224.976617 201.685767 
L 225.274355 203.186411 
L 225.513956 203.132903 
L 225.75103 202.774949 
L 225.988789 205.192654 
L 226.226817 205.742992 
L 226.525541 201.990067 
L 227.184451 171.859177 
L 227.479239 163.509232 
L 227.717393 160.709778 
L 227.956897 162.049395 
L 228.194151 164.874199 
L 228.491933 164.787972 
L 228.730952 165.398127 
L 229.211707 172.602085 
L 229.507621 175.073759 
L 229.86666 174.756431 
L 230.173069 179.941969 
L 230.705939 181.529559 
L 230.945101 181.084098 
L 231.242363 178.455577 
L 231.630147 172.720261 
L 231.663719 169.878483 
L 232.136825 169.747455 
L 232.316057 170.914225 
L 232.434509 168.132416 
L 233.208451 161.339096 
L 233.387885 161.858851 
L 233.626662 162.101497 
L 233.864567 161.586926 
L 234.163673 157.457915 
L 234.638675 160.916378 
L 234.877477 164.507693 
L 235.432665 178.761108 
L 235.72695 181.422491 
L 235.906757 179.448012 
L 236.084479 173.456087 
L 236.384217 169.31664 
L 236.621287 169.761402 
L 236.919839 166.518162 
L 237.157824 162.65175 
L 237.395703 161.278904 
L 237.695023 158.468422 
L 237.874902 154.193127 
L 238.290534 150.47428 
L 239.305311 177.435178 
L 239.549082 178.19071 
L 239.840779 177.942899 
L 240.023237 174.9261 
L 240.317181 175.030487 
L 240.793797 179.668563 
L 241.569338 173.987541 
L 242.044896 170.298765 
L 242.344062 169.406352 
L 242.939843 160.326023 
L 243.118815 154.766817 
L 243.41606 154.330994 
L 243.539421 155.215947 
L 244.071675 148.891843 
L 244.253567 148.887453 
L 244.760099 152.779934 
L 244.998784 158.838844 
L 245.503869 167.871256 
L 245.741822 168.734152 
L 246.202726 165.27516 
L 246.460816 159.599317 
L 246.754794 160.926659 
L 246.994239 154.163332 
L 247.232263 152.610092 
L 247.469526 156.09131 
L 247.708076 153.487417 
L 248.363697 151.454446 
L 248.543255 146.611769 
L 248.848689 150.686923 
L 249.020847 151.253891 
L 249.218981 160.64525 
L 249.796994 174.412174 
L 249.91722 173.848659 
L 250.176782 171.998536 
L 250.69308 157.072295 
L 250.990238 154.665085 
L 251.171156 155.637556 
L 251.466717 154.828221 
L 251.705896 153.128267 
L 252.004037 152.485973 
L 252.243865 153.671633 
L 252.425758 157.183403 
L 252.66071 158.605187 
L 252.958474 157.892058 
L 253.732822 163.951074 
L 253.912799 169.445764 
L 254.151034 169.934119 
L 254.390353 166.993566 
L 254.629948 167.41994 
L 254.866171 172.803182 
L 255.283195 165.261136 
L 255.879236 179.411112 
L 257.013573 151.814907 
L 257.134596 139.932728 
L 257.848051 125.318939 
L 258.20509 125.258213 
L 258.577231 137.053209 
L 258.859825 135.508537 
L 259.730147 142.892952 
L 259.876027 146.723869 
L 260.294447 137.30852 
L 260.591149 133.007676 
L 260.949329 136.033588 
L 261.322962 128.173642 
L 261.602805 132.588922 
L 262.086563 136.186732 
L 262.328785 131.972524 
L 262.794199 134.503887 
L 263.151773 133.7158 
L 263.330837 140.141262 
L 263.7477 142.029947 
L 263.866901 134.36676 
L 264.105397 129.869494 
L 264.285849 123.47915 
L 265.299527 144.554149 
L 265.714773 139.549032 
L 265.955612 131.750828 
L 266.191948 129.653393 
L 266.252174 127.517059 
L 266.48981 126.410701 
L 266.788459 127.088413 
L 267.324829 129.298453 
L 267.563622 134.576944 
L 267.759853 128.020891 
L 268.338011 122.780588 
L 269.233644 138.391959 
L 269.530633 137.535734 
L 269.887378 135.142331 
L 270.245132 129.051724 
L 270.661966 128.449713 
L 270.723 127.849325 
L 270.960397 128.260897 
L 271.318588 125.229196 
L 271.561653 129.504756 
L 271.735812 124.075865 
L 271.975033 130.07169 
L 272.273994 130.065579 
L 272.454512 131.852838 
L 272.689423 141.369135 
L 272.927961 133.347951 
L 273.17533 132.452094 
L 273.643316 136.099813 
L 273.969451 137.115413 
L 274.219372 136.985833 
L 274.658263 133.358819 
L 274.845561 133.686911 
L 275.037647 134.555264 
L 275.313574 137.435064 
L 275.437851 134.672717 
L 275.791628 133.909981 
L 275.91339 132.659013 
L 276.20821 128.153098 
L 276.393789 119.845034 
L 276.812326 120.568407 
L 277.049078 113.641439 
L 277.162083 118.222899 
L 277.590469 121.087617 
L 277.779075 117.98043 
L 278.12053 129.260118 
L 278.475781 119.723446 
L 278.624491 124.190372 
L 279.193852 115.707099 
L 279.431173 119.202938 
L 279.612332 107.451554 
L 279.907556 111.58473 
L 280.086959 111.668773 
L 280.384925 119.153114 
L 280.623809 117.641694 
L 281.1601 124.839846 
L 281.457142 122.701708 
L 281.594071 117.220028 
L 281.873928 120.563578 
L 282.056615 108.72445 
L 282.113657 112.759861 
L 282.828435 94.480144 
L 283.068365 91.743589 
L 283.306338 90.51879 
L 283.66432 101.602327 
L 283.961917 95.448755 
L 284.088847 90.061617 
L 284.319934 97.418343 
L 284.563335 101.021795 
L 284.856401 103.707676 
L 285.034625 99.069215 
L 285.276257 111.460071 
L 285.810779 110.315404 
L 286.048783 111.454022 
L 286.292195 106.938351 
L 286.526687 98.193021 
L 286.769413 96.096398 
L 287.007247 90.17342 
L 287.262421 100.067823 
L 287.484106 94.548618 
L 288.024509 102.561929 
L 288.259375 92.552398 
L 288.497522 97.657977 
L 288.736219 93.735439 
L 289.035046 97.165115 
L 289.24077 103.315761 
L 289.455069 113.235378 
L 289.811148 110.290741 
L 290.227704 110.588019 
L 290.347633 96.525819 
L 290.465879 98.154525 
L 290.883363 87.461057 
L 290.948755 98.882015 
L 291.225488 93.886542 
L 291.495528 85.240246 
L 291.679836 92.179795 
L 292.13465 81.637807 
L 292.194976 97.869606 
L 292.432576 98.274789 
L 292.730948 95.345379 
L 292.969282 95.285253 
L 293.504983 106.060248 
L 293.689059 104.732281 
L 293.924229 95.944735 
L 294.221147 91.063612 
L 294.466574 93.120864 
L 294.698997 82.04211 
L 294.878318 89.257409 
L 295.173661 86.203285 
L 295.4127 91.670448 
L 295.717231 90.67 
L 295.948103 80.143861 
L 296.426372 84.577627 
L 296.607631 84.598845 
L 296.961851 82.541443 
L 297.152314 79.564813 
L 297.438974 85.460886 
L 297.620443 80.35955 
L 297.929888 90.789682 
L 298.335465 94.663336 
L 298.632709 85.846999 
L 298.870236 88.084467 
L 299.108436 86.024162 
L 299.60655 89.662864 
L 299.827215 95.470717 
L 300.182774 86.731604 
L 300.361705 91.022186 
L 300.600166 79.740889 
L 300.854175 79.838563 
L 301.079765 75.706507 
L 301.494049 91.926892 
L 301.613328 88.719895 
L 301.911255 100.124499 
L 302.09056 90.696481 
L 302.447614 93.208949 
L 302.626399 92.057083 
L 302.80676 95.297265 
L 303.043886 86.385775 
L 303.341324 87.369731 
L 303.54503 84.515804 
L 303.826118 85.93127 
L 304.41641 74.720748 
L 304.95287 73.484221 
L 305.252232 70.493019 
L 305.31073 75.562691 
L 305.548602 78.941157 
L 305.846457 76.943909 
L 306.02906 78.5868 
L 306.385283 75.647832 
L 306.562027 62.630824 
L 306.801509 75.888491 
L 306.996024 80.456853 
L 307.281744 80.416286 
L 307.900046 82.269709 
L 308.067971 87.087177 
L 308.299126 79.052156 
L 308.537897 92.658986 
L 308.839248 87.028376 
L 309.086734 86.820668 
L 309.455479 82.322197 
L 309.930311 74.362764 
L 310.001814 69.256956 
L 310.28921 73.53427 
L 310.527271 63.064231 
L 310.708003 75.263854 
L 311.063774 72.511985 
L 311.242711 75.654547 
L 311.611583 79.468183 
L 311.781527 66.964168 
L 312.017687 72.332264 
L 312.375319 87.163765 
L 312.501747 83.860273 
L 312.732977 85.711801 
L 313.090224 85.77019 
L 313.212638 6.050769 
L 313.805492 38.364751 
L 314.235778 124.458476 
L 314.58015 138.603553 
L 314.701814 156.734946 
L 315.237717 180.402956 
L 315.594079 185.341288 
L 316.016983 171.976554 
L 316.452034 155.298266 
L 316.695304 122.590585 
L 316.995565 110.582685 
L 317.110027 84.314661 
L 317.763281 55.235748 
L 318.180102 51.826619 
L 318.359189 50.976678 
L 318.959086 70.733331 
L 319.49789 78.122949 
L 319.614865 93.030106 
L 319.910478 94.306101 
L 320.14826 105.828774 
L 320.328134 106.650475 
L 320.624731 103.278036 
L 320.864807 92.6821 
L 321.102007 91.100713 
L 321.340325 78.356723 
L 321.584298 72.590797 
L 321.878065 78.584319 
L 322.117615 73.577172 
L 322.357206 70.981492 
L 322.592008 74.029563 
L 323.310491 96.758053 
L 323.548541 98.167221 
L 323.963903 103.449058 
L 324.083748 108.017178 
L 324.50419 103.625076 
L 324.569671 106.465164 
L 324.802157 94.859165 
L 325.812051 67.415585 
L 326.051482 70.555912 
L 326.530758 66.460582 
L 326.852363 74.254385 
L 327.242305 76.479873 
L 327.301953 86.302735 
L 327.778986 97.212151 
L 328.256505 101.380684 
L 328.495475 109.260569 
L 328.794246 98.328907 
L 329.171816 99.042807 
L 329.275333 90.939423 
L 329.508337 83.044266 
L 329.745474 87.868102 
L 330.282264 79.047092 
L 330.580948 80.187766 
L 330.761294 79.078866 
L 331.057073 84.063418 
L 331.312423 83.157612 
L 331.798258 95.182665 
L 332.018819 93.192696 
L 332.248663 93.618556 
L 332.487919 92.306947 
L 332.725398 87.632605 
L 333.024265 86.076949 
L 333.502737 75.996907 
L 333.741417 77.869817 
L 334.226045 72.864867 
L 334.762633 84.390542 
L 335.022935 87.631507 
L 335.231468 93.439744 
L 335.469651 96.365885 
L 335.709664 97.886943 
L 335.971918 102.717973 
L 336.184852 109.259715 
L 336.423478 109.364604 
L 336.663453 106.917424 
L 336.900926 99.443651 
L 337.317585 96.684413 
L 337.736454 85.916346 
L 337.916816 84.110377 
L 338.161358 88.196948 
L 338.54477 79.021489 
L 338.658091 85.628397 
L 338.944233 86.138475 
L 338.991294 87.09749 
L 339.29103 96.287102 
L 339.410048 93.109667 
L 339.945144 96.904863 
L 340.12328 97.048516 
L 340.421547 97.966162 
L 340.719728 89.075349 
L 340.898441 89.762713 
L 341.13678 87.217621 
L 341.375437 82.156155 
L 341.615004 81.122948 
L 341.917182 74.509577 
L 342.091832 74.344681 
L 342.592547 82.8895 
L 342.865715 87.103195 
L 343.224194 86.627526 
L 343.364331 95.494513 
L 343.819625 101.723795 
L 344.2367 101.365363 
L 344.355474 102.318648 
L 344.654162 97.790985 
L 344.835051 92.042224 
L 345.381281 81.422537 
L 345.609531 75.850247 
L 345.793405 79.457852 
L 346.084919 73.972818 
L 346.386542 74.132199 
L 346.623265 79.808141 
L 346.800697 74.458019 
L 347.336523 86.546698 
L 347.812551 94.148177 
L 348.051726 95.911984 
L 348.470912 94.648164 
L 348.531021 90.322297 
L 349.025631 85.288778 
L 349.25029 81.201851 
L 349.603408 82.910765 
L 350.26536 75.142079 
L 350.557034 81.943369 
L 350.855204 76.706881 
L 351.033535 82.896152 
L 351.272515 87.308326 
L 351.510253 99.495657 
L 351.86755 89.264087 
L 352.048182 95.893493 
L 352.34541 92.289523 
L 352.643325 93.505267 
L 353.001631 85.107362 
L 353.358236 88.132399 
L 353.656081 82.716403 
L 353.777296 77.95412 
L 354.192068 79.541032 
L 354.26785 76.030164 
L 354.49016 71.979516 
L 354.967142 82.494934 
L 355.26572 87.29877 
L 355.563366 89.460588 
L 355.691361 85.628719 
L 355.993376 91.110379 
L 356.230389 91.131396 
L 356.695564 84.714551 
L 357.11492 83.08205 
L 357.232346 87.364942 
L 357.414082 82.226564 
L 358.067321 76.009962 
L 358.200121 76.105559 
L 358.726755 81.479148 
L 358.964857 82.268257 
L 359.203431 87.080574 
L 359.448191 88.954006 
L 359.739861 89.617326 
L 359.918637 90.402252 
L 360.223373 88.360568 
L 360.464925 84.990195 
L 360.754514 92.850027 
L 360.876193 82.943895 
L 361.129106 85.319614 
L 361.415503 82.880818 
L 361.661674 85.104371 
L 362.185637 79.444958 
L 362.424082 83.628434 
L 362.662654 84.792492 
L 362.950189 83.241639 
L 363.20353 92.144189 
L 363.423447 84.950268 
L 363.622003 86.093153 
L 363.916371 81.875815 
L 364.393153 88.234076 
L 364.630544 87.488232 
L 364.92917 84.100308 
L 365.107627 83.422858 
L 365.345698 82.034815 
L 365.643635 89.987803 
L 365.941582 83.219368 
L 366.120566 82.282682 
L 366.430486 75.343228 
L 366.661699 81.325304 
L 366.95586 84.711473 
L 367.137644 88.439368 
L 367.313284 89.499566 
L 367.613202 89.202409 
L 367.848153 84.767091 
L 368.164973 84.267697 
L 368.328014 88.927542 
L 368.629685 83.178174 
L 368.92628 85.396202 
L 369.113805 81.639212 
L 369.34484 79.714243 
L 369.529356 80.854311 
L 369.821758 81.733647 
L 370.240307 88.914191 
L 370.360723 80.884951 
L 370.778089 85.677603 
L 371.015218 85.307111 
L 371.312315 82.176027 
L 371.555098 86.450051 
L 371.789135 86.289737 
L 372.027824 86.334699 
L 372.325578 84.450648 
L 372.861574 82.48215 
L 373.223258 82.871523 
L 373.518933 81.271041 
L 373.93445 78.185611 
L 373.993192 95.565038 
L 374.356468 86.824392 
L 374.71244 84.222102 
L 375.080509 83.295473 
L 375.245909 85.486075 
L 375.486534 85.403648 
L 375.841426 91.325616 
L 376.021182 91.614621 
L 376.325316 87.388254 
L 376.501063 93.691382 
L 376.735908 85.788217 
L 377.154139 85.918414 
L 377.275259 86.851994 
L 377.454122 80.411509 
L 377.691085 78.916866 
L 377.97089 83.717942 
L 378.228234 83.280365 
L 378.467507 83.638213 
L 378.705786 85.037028 
L 379.003346 80.973816 
L 379.182787 87.630031 
L 379.541591 87.200473 
L 379.77876 91.105944 
L 379.957593 88.784687 
L 380.315476 87.374717 
L 380.43452 82.88397 
L 380.67377 80.647189 
L 380.971538 78.960007 
L 381.209422 82.086388 
L 381.566802 84.237239 
L 381.744983 84.389665 
L 382.170296 83.115821 
L 382.401177 84.560704 
L 382.640935 81.825628 
L 382.938268 88.407402 
L 383.116642 88.525902 
L 383.414778 89.223006 
L 383.653191 86.857406 
L 383.891272 80.400858 
L 384.36784 84.715355 
L 384.608478 84.908169 
L 385.024513 83.728603 
L 385.141968 80.670763 
L 385.442062 82.888191 
L 385.737779 82.11211 
L 385.982328 86.430578 
L 386.154941 80.531764 
L 386.633083 87.11146 
L 386.871953 85.503768 
L 387.288124 84.334961 
L 387.408358 77.095693 
L 387.704159 88.113562 
L 387.883735 85.768137 
L 388.12156 87.525855 
L 388.360572 82.472728 
L 388.657811 83.443061 
L 388.83674 82.252396 
L 389.078696 81.791035 
L 389.373409 81.493835 
L 389.85151 84.703968 
L 390.209139 85.579253 
L 390.327434 82.652298 
L 390.566718 83.805153 
L 390.866233 89.134279 
L 391.578394 83.559207 
L 391.956832 83.028029 
L 392.061414 81.580677 
L 392.294363 84.669654 
L 392.534085 78.063718 
L 392.775135 80.202636 
L 393.014287 84.364365 
L 393.427847 79.497839 
L 393.65145 87.905279 
L 393.785792 84.679583 
L 394.023607 84.276588 
L 394.261973 83.576006 
L 394.798172 83.484187 
L 395.156539 80.933023 
L 395.275553 77.67065 
L 395.574048 79.193516 
L 395.817442 79.180875 
L 396.050757 77.597453 
L 396.709418 84.80357 
L 397.006497 86.507638 
L 397.24286 86.991071 
L 397.480824 83.597666 
L 397.839129 87.71508 
L 398.01748 87.893479 
L 398.255879 91.165307 
L 398.493969 88.596535 
L 398.732782 93.582573 
L 399.032184 93.031643 
L 399.629341 86.617596 
L 399.867123 90.678917 
L 399.986143 79.007535 
L 400.224723 79.055507 
L 400.464749 80.240135 
L 400.710246 75.558274 
L 401.000306 73.876099 
L 401.240795 78.433155 
L 401.476641 80.294226 
L 401.775515 80.343746 
L 401.955105 83.556422 
L 402.253688 91.227877 
L 402.431344 82.489992 
L 402.669635 85.580149 
L 403.206332 83.269508 
L 403.397622 89.448535 
L 403.633589 85.194185 
L 403.922551 84.650063 
L 404.188901 86.665189 
L 404.402506 87.309809 
L 404.641312 83.791327 
L 404.947887 90.911138 
L 405.175669 84.695196 
L 405.385104 86.364388 
L 405.65268 87.512137 
L 405.894417 92.701261 
L 406.132636 86.758307 
L 406.426561 86.894759 
L 406.667313 84.293354 
L 406.963223 85.195573 
L 407.144113 94.03224 
L 407.380891 93.863903 
L 407.619993 86.723612 
L 407.860801 86.263679 
L 408.217822 82.951399 
L 408.398363 91.284959 
L 408.636507 82.227217 
L 408.917998 80.351951 
L 409.234688 80.125696 
L 409.470635 75.157258 
L 409.589722 85.323286 
L 409.829013 87.677111 
L 410.126347 82.562193 
L 410.42592 84.93259 
L 410.606015 88.105986 
L 410.844374 84.780188 
L 411.143152 85.980456 
L 411.320402 84.413155 
L 411.619643 84.078589 
L 411.857209 85.460296 
L 412.096215 76.399968 
L 412.512689 80.33189 
L 412.58546 78.896772 
L 412.87158 80.771076 
L 413.062343 84.335922 
L 413.456757 79.848367 
L 413.584819 87.22493 
L 413.81476 87.443119 
L 414.11483 87.990144 
L 414.472681 89.403598 
L 414.533583 86.044069 
L 414.830286 91.178319 
L 415.068038 89.209542 
L 415.559664 83.619238 
L 415.96323 84.058462 
L 416.023198 82.878299 
L 416.321581 82.763538 
L 416.563927 81.655453 
L 416.805148 85.171333 
L 417.002271 81.937997 
L 417.276707 88.717594 
L 418.054464 87.080946 
L 418.471725 87.453122 
L 418.530943 86.232704 
L 418.770431 88.802335 
L 419.126668 87.243167 
L 419.305279 82.840696 
L 419.487583 82.070641 
L 419.724077 79.888136 
L 419.962564 82.527061 
L 420.501517 81.743485 
L 420.738015 87.314139 
L 420.975057 84.536581 
L 421.214128 86.088237 
L 421.512226 86.387181 
L 421.693249 88.071722 
L 422.225812 89.182062 
L 422.234324 43.265557 
L 422.468961 86.774254 
L 422.825214 81.885587 
L 423.004989 83.29999 
L 423.252127 82.810364 
L 423.484338 85.176217 
L 423.840978 84.201007 
L 423.960579 79.880543 
L 424.145321 83.338729 
L 424.43705 84.921636 
L 424.675708 84.422682 
L 425.155055 86.707647 
L 425.574673 93.321534 
L 425.629286 82.371426 
L 425.988437 88.248463 
L 426.40654 90.450781 
L 426.64547 90.613481 
L 427.065099 89.726086 
L 427.190077 86.387489 
L 427.445399 89.048907 
L 427.659166 84.103429 
L 427.90644 83.894849 
L 427.958088 88.465798 
L 428.19698 89.314518 
L 428.436409 82.705174 
L 428.619145 81.556269 
L 428.8559 77.397571 
L 429.151322 76.579371 
L 429.628082 85.901828 
L 430.10485 75.694435 
L 430.344322 76.262661 
L 430.903823 83.952099 
L 431.121983 84.721878 
L 431.357652 117.708 
L 432.328044 85.119694 
L 432.561897 79.708973 
L 432.821237 67.009831 
L 433.156978 61.459756 
L 433.463552 58.996946 
L 433.594031 58.944507 
L 433.87843 61.151793 
L 434.121676 58.671909 
L 434.414608 59.267106 
L 434.534949 58.303497 
L 434.776173 63.65413 
L 435.198864 68.273558 
L 435.318081 81.260051 
L 435.54992 86.183931 
L 435.793016 87.450041 
L 436.163582 92.090358 
L 436.324342 91.783218 
L 436.627299 94.246684 
L 436.862153 95.148318 
L 437.100266 93.648121 
L 437.400723 97.147472 
L 437.640155 84.066836 
L 437.947846 86.115853 
L 438.091135 85.579241 
L 438.242412 87.809377 
L 438.507695 83.152913 
L 438.778576 83.63953 
L 439.093849 79.878056 
L 439.259491 73.549059 
L 440.326857 95.106101 
L 440.505242 98.056766 
L 440.743769 97.619784 
L 440.985603 95.716152 
L 441.460589 88.206432 
L 441.817555 87.307109 
L 441.996582 85.805557 
L 442.476381 75.682346 
L 442.882088 80.498346 
L 443.119643 79.904925 
L 443.306995 82.244557 
L 443.537398 73.002831 
L 444.01571 91.172742 
L 444.193965 95.041477 
L 444.670741 94.419891 
L 444.792607 99.777296 
L 445.029606 102.870791 
L 445.566243 90.142512 
L 445.69185 96.447779 
L 446.223006 82.140499 
L 446.46149 80.986161 
L 446.703529 75.844685 
L 446.93948 77.082644 
L 447.182432 81.513224 
L 447.4174 82.204926 
L 447.656135 79.776822 
L 447.904892 87.513475 
L 448.138367 86.504995 
L 448.437338 92.831681 
L 448.625267 92.418387 
L 448.91479 93.175683 
L 449.152725 92.475724 
L 449.392189 86.396612 
L 449.808343 89.26566 
L 449.89612 87.519039 
L 450.16705 92.075345 
L 450.46407 94.131118 
L 450.761942 93.836466 
L 450.94209 99.23785 
L 451.180519 97.183047 
L 451.425902 105.810182 
L 451.658653 108.793975 
L 451.839194 112.92773 
L 452.077357 115.482403 
L 452.326715 108.719812 
L 452.613173 109.838819 
L 452.864845 105.510454 
L 453.098099 97.153872 
L 453.469682 98.747435 
L 453.632802 92.853509 
L 453.809319 97.476209 
L 454.134366 97.739578 
L 454.345201 89.489183 
L 454.847127 94.2419 
L 455.071869 99.362976 
L 455.300727 97.311367 
L 455.539853 98.13918 
L 455.961335 100.914396 
L 456.150748 104.424138 
L 456.566905 95.325941 
L 456.984034 100.564495 
L 457.044693 97.766952 
L 457.462645 98.902503 
L 457.700957 98.126407 
L 457.762486 95.785734 
L 458.176246 88.236243 
L 458.295734 94.03061 
L 458.535771 86.884092 
L 458.772737 86.380688 
L 459.548312 75.985561 
L 459.792529 75.903009 
L 459.846799 77.834338 
L 460.026983 76.014572 
L 460.264394 71.764174 
L 460.505547 83.856156 
L 460.801349 85.925103 
L 460.981197 83.524386 
L 461.300883 83.127601 
L 461.461133 85.238042 
L 461.759676 77.483354 
L 461.997667 85.32811 
L 462.240011 84.680623 
L 462.535859 91.109163 
L 462.954361 89.386975 
L 463.252644 96.879018 
L 463.439137 98.275142 
L 463.848593 102.201534 
L 463.995751 108.725861 
L 464.210024 111.896135 
L 464.68398 115.053178 
L 464.923343 117.886179 
L 465.170704 115.54513 
L 465.469677 110.289577 
L 465.710789 113.12434 
L 466.009353 111.75196 
L 466.483619 103.947281 
L 466.663185 103.252369 
L 466.961408 97.843868 
L 467.199234 96.5255 
L 467.597038 92.413686 
L 467.744427 92.847115 
L 467.921045 84.846568 
L 468.454257 89.62508 
L 468.761166 87.137305 
L 468.931187 91.721635 
L 469.179483 92.743526 
L 469.542461 96.267017 
L 469.64942 99.865348 
L 469.893371 102.562878 
L 470.128335 99.450562 
L 470.435389 102.14114 
L 470.906718 110.258737 
L 471.143739 114.496844 
L 471.389817 114.206278 
L 472.16172 122.783288 
L 472.456786 120.954569 
L 472.636186 121.9421 
L 473.172886 114.563972 
L 473.400235 113.406081 
L 473.868197 104.107045 
L 474.170263 105.624333 
L 474.354868 93.334389 
L 474.645427 90.119319 
L 474.949827 90.343097 
L 475.125654 83.471503 
L 475.315542 83.426161 
L 475.601585 85.472036 
L 476.079329 78.808093 
L 476.317061 80.312475 
L 476.555932 86.761339 
L 476.795462 80.28418 
L 477.212458 82.568685 
L 477.361592 90.728396 
L 477.749946 84.368173 
L 477.868828 89.530046 
L 478.107403 88.28025 
L 478.345862 95.616604 
L 478.643526 93.984593 
L 478.775738 100.184553 
L 479.035221 105.381029 
L 479.305237 103.637813 
L 479.798874 112.938021 
L 480.01865 116.512467 
L 480.259337 126.261931 
L 480.639147 124.355212 
L 480.797255 125.798112 
L 481.032858 118.62262 
L 481.30086 121.350721 
L 481.817167 117.866918 
L 482.112202 112.46268 
L 482.301583 113.178674 
L 482.54011 113.457122 
L 482.796157 104.440443 
L 483.087039 105.470218 
L 483.208624 98.531598 
L 483.500877 101.498675 
L 483.799178 102.336606 
L 484.097273 98.415713 
L 484.216787 99.55132 
L 484.514676 96.830108 
L 484.761105 90.590287 
L 485.008903 95.264416 
L 485.230884 96.690892 
L 485.470722 95.713824 
L 486.247979 87.209848 
L 486.483328 87.124164 
L 486.721699 84.04644 
L 486.961225 85.17577 
L 487.206514 84.440594 
L 487.440359 86.312317 
L 487.677248 91.509431 
L 488.214516 95.547543 
L 488.455338 104.143949 
L 488.751713 104.176143 
L 488.931602 108.022503 
L 489.288177 111.309258 
L 489.706772 113.012127 
L 490.005091 115.024713 
L 490.242896 113.097969 
L 490.683853 115.716206 
L 490.899752 115.484931 
L 491.201618 114.81523 
L 491.494573 117.750781 
L 491.741352 113.779553 
L 491.913287 114.240303 
L 492.154206 116.236789 
L 492.390345 112.865592 
L 492.705805 114.357768 
L 492.884784 110.714845 
L 493.122928 109.578002 
L 493.601015 106.569531 
L 493.66099 98.624877 
L 493.95881 100.429847 
L 494.141209 96.092119 
L 494.912142 86.382513 
L 495.092642 79.954756 
L 495.391562 82.953877 
L 495.688062 81.923373 
L 495.866611 84.429506 
L 496.169394 85.938214 
L 496.407336 91.519187 
L 496.644163 88.663207 
L 497.122047 100.78369 
L 497.32743 103.216345 
L 498.621652 129.049687 
L 498.860584 127.814639 
L 499.337413 136.258621 
L 499.817608 129.101058 
L 500.113488 122.764055 
L 500.293182 123.998301 
L 500.650281 119.327974 
L 500.829084 119.794353 
L 501.130331 109.126152 
L 501.425955 113.513939 
L 501.604394 113.502244 
L 502.142852 111.529423 
L 502.565805 127.429842 
L 502.758604 131.782058 
L 503.051282 135.420963 
L 503.27591 139.712311 
L 503.515493 136.547908 
L 503.872555 137.62568 
L 504.051407 142.294895 
L 504.229888 138.670444 
L 504.650095 142.747255 
L 504.707569 137.243268 
L 505.069486 137.390581 
L 505.311707 133.473595 
L 505.547959 133.095875 
L 506.020268 127.366685 
L 506.266043 127.852743 
L 506.569872 120.234773 
L 506.746757 119.715282 
L 508.005894 98.235436 
L 508.190358 104.273603 
L 508.485193 98.093756 
L 508.787092 109.993985 
L 509.01986 100.823812 
L 509.275368 101.282972 
L 509.498512 113.917368 
L 509.921977 109.8267 
L 509.97473 113.141663 
L 510.21317 110.258855 
L 510.691646 115.649755 
L 510.932276 119.487149 
L 511.266656 119.684576 
L 511.427141 120.784681 
L 511.731757 125.378384 
L 511.94593 125.495303 
L 512.42372 135.871097 
L 512.662927 137.856837 
L 512.902669 149.800396 
L 513.214663 141.976138 
L 513.619081 150.626981 
L 513.68035 146.36429 
L 513.915563 148.892043 
L 514.571539 144.383304 
L 514.703169 147.426125 
L 514.890518 144.301761 
L 515.247869 148.734275 
L 515.468485 146.428512 
L 515.690172 146.418938 
L 515.918439 142.916178 
L 516.15758 141.285931 
L 516.400242 136.442848 
L 516.762513 140.095091 
L 516.922212 132.798798 
L 517.51651 127.471171 
L 517.702683 119.484378 
L 518.173168 116.582192 
L 518.653123 108.675906 
L 518.951708 113.008108 
L 519.130101 112.250172 
L 519.388449 115.111102 
L 519.86004 121.930957 
L 520.141772 125.233606 
L 520.439599 117.022559 
L 520.621899 130.048999 
L 520.859464 128.842359 
L 521.115203 134.341793 
L 521.39507 132.192669 
L 521.637701 136.204553 
L 521.87368 138.157602 
L 522.117242 134.271611 
L 522.363738 138.926733 
L 522.65075 140.026623 
L 522.827932 142.66578 
L 523.266623 144.802726 
L 523.497826 145.293231 
L 523.843711 145.736784 
L 524.9168 122.707198 
L 525.275559 121.532062 
L 525.403427 119.838583 
L 525.692727 118.52303 
L 525.814188 117.063729 
L 526.316015 115.86586 
L 526.428741 116.293909 
L 527.008656 127.516885 
L 527.314102 127.624506 
L 527.785005 125.016376 
L 527.911085 121.375213 
L 528.505796 116.616844 
L 528.686391 116.68566 
L 529.166701 118.913814 
L 529.284939 122.089072 
L 529.890641 130.390664 
L 530.247674 141.564832 
L 530.664454 146.678315 
L 530.905653 151.595188 
L 531.439707 158.062891 
L 531.621121 156.401602 
L 531.88268 152.146447 
L 532.001118 146.471633 
L 532.524468 131.184993 
L 532.939696 116.813374 
L 533.470149 106.181007 
L 533.72434 105.699717 
L 534.245028 112.853389 
L 535.028561 128.103204 
L 535.504579 134.04599 
L 536.216386 138.610551 
L 536.526316 138.433324 
L 537.241818 130.403946 
L 537.57183 129.639566 
L 537.709664 130.409498 
L 537.923297 129.50014 
L 538.432501 124.724152 
L 538.723835 121.147492 
L 538.905185 116.812984 
L 541.177946 97.403077 
L 541.832702 95.113831 
L 541.907515 94.084215 
L 542.137411 94.208274 
L 542.376781 96.28564 
L 542.912553 106.045927 
L 543.625901 120.364229 
L 544.160754 126.791179 
L 544.699628 135.063376 
L 545.177199 139.081998 
L 545.613251 139.966412 
L 545.716345 142.354704 
L 546.013013 146.203806 
L 546.311255 154.373374 
L 546.562256 155.864893 
L 546.787321 155.981608 
L 547.086927 153.713229 
L 547.562717 144.436688 
L 548.57849 119.483145 
L 549.053617 110.552713 
L 549.551337 105.836019 
L 549.769221 105.330265 
L 550.187418 107.169133 
L 550.496407 111.171586 
L 551.101371 113.35275 
L 551.511124 112.136082 
L 552.035323 111.934156 
L 552.395465 112.077078 
L 552.516451 111.61411 
L 552.810936 111.996669 
L 553.231918 113.436138 
L 553.531832 115.320976 
L 554.984158 134.56622 
L 555.281591 136.960789 
L 556.47617 143.112601 
L 556.8397 143.870078 
L 556.966916 144.960511 
L 557.459078 146.293528 
L 557.570223 145.846902 
L 558.202691 135.590643 
L 558.974965 120.934716 
L 559.689623 105.700975 
L 559.92538 104.487578 
L 560.468553 105.942588 
L 560.652229 107.672779 
L 560.945158 109.359122 
L 561.186721 113.179114 
L 561.924237 134.209701 
L 562.153707 135.344757 
L 562.450932 134.797582 
L 563.168071 128.742344 
L 563.541892 125.486144 
L 563.663332 120.81146 
L 564.187013 113.685212 
L 564.36587 114.32921 
L 565.099238 126.07172 
L 565.616165 132.85066 
L 566.154132 134.614903 
L 566.41619 133.525493 
L 566.807687 130.462027 
L 566.871061 126.355863 
L 567.889683 105.95907 
L 568.067008 103.361285 
L 568.36386 104.505174 
L 568.666409 107.637901 
L 568.905048 113.034601 
L 569.258048 118.474779 
L 569.317197 121.147312 
L 569.495961 123.348338 
L 569.556614 125.482871 
L 569.830097 126.935685 
L 570.180186 129.799873 
L 570.296782 135.272478 
L 570.840372 142.654304 
L 571.090269 143.119532 
L 571.312124 141.167599 
L 571.854597 132.625372 
L 572.030259 131.044027 
L 572.327643 133.457506 
L 572.518413 136.100384 
L 572.804311 134.832633 
L 573.343047 127.463175 
L 573.705169 126.676173 
L 573.889969 128.668719 
L 574.30091 135.018614 
L 574.655476 134.871057 
L 574.970739 126.635412 
L 575.266685 127.285187 
L 575.509254 130.709407 
L 575.806683 131.284456 
L 576.28069 123.402969 
L 576.639918 120.8295 
L 576.819632 122.52336 
L 577.176708 127.454738 
L 577.534113 133.620917 
L 577.951032 125.080663 
L 578.309387 123.234891 
L 578.728967 131.634204 
L 579.051607 131.779221 
L 579.471695 125.826536 
L 579.707111 125.92812 
L 580.432509 129.85693 
L 580.954797 127.99045 
L 581.193618 128.922584 
L 581.67021 132.717847 
L 582.031218 131.87854 
L 582.167232 129.874112 
L 582.446877 129.678211 
L 583.282015 135.056555 
L 583.460499 131.759964 
L 583.519781 128.583747 
L 583.93793 124.438473 
L 584.119675 119.276718 
L 584.35554 119.18681 
L 584.891392 124.435802 
L 585.399086 118.306091 
L 585.63542 118.020429 
L 585.787329 120.336308 
L 586.150599 131.443463 
L 586.619088 138.405191 
L 586.989148 135.727461 
L 587.158906 131.858657 
L 587.635596 128.162676 
L 588.119341 130.822146 
L 588.351426 131.059371 
L 588.888745 124.878356 
L 589.128115 125.520926 
L 589.546397 128.718008 
L 589.612081 131.064571 
L 589.849898 132.242847 
L 590.201208 131.69711 
L 590.339608 130.409579 
L 590.564453 130.29103 
L 591.098088 128.648369 
L 591.644742 129.810897 
L 591.94111 128.174602 
L 592.179709 125.382744 
L 592.599352 132.990341 
L 592.95496 131.644852 
L 593.252524 129.836013 
L 593.492874 130.117095 
L 593.612706 129.884321 
L 593.789061 129.29297 
L 594.038067 129.975115 
L 594.265573 130.222181 
L 594.510253 131.972971 
L 594.863145 131.942398 
L 595.041953 131.372793 
L 595.520186 128.500102 
L 595.776521 128.846837 
L 595.995268 130.148736 
L 596.26267 129.585783 
L 596.502813 128.776679 
L 596.502813 128.776679 
" clip-path="url(#p64e11e0d8d)" style="fill: none; stroke: #ff0000; stroke-opacity: 0.5; stroke-width: 1.5; stroke-linecap: square"/>
   </g>
   <g id="patch_3">
    <path d="M 38.502813 277.92 
L 38.502813 0.72 
" style="fill: none; stroke: #000000; stroke-width: 0.8; stroke-linejoin: miter; stroke-linecap: square"/>
   </g>
   <g id="patch_4">
    <path d="M 596.502813 277.92 
L 596.502813 0.72 
" style="fill: none; stroke: #000000; stroke-width: 0.8; stroke-linejoin: miter; stroke-linecap: square"/>
   </g>
   <g id="patch_5">
    <path d="M 38.502813 277.92 
L 596.502813 277.92 
" style="fill: none; stroke: #000000; stroke-width: 0.8; stroke-linejoin: miter; stroke-linecap: square"/>
   </g>
   <g id="patch_6">
    <path d="M 38.502813 0.72 
L 596.502813 0.72 
" style="fill: none; stroke: #000000; stroke-width: 0.8; stroke-linejoin: miter; stroke-linecap: square"/>
   </g>
   <g id="legend_1">
    <g id="patch_7">
     <path d="M 515.734062 38.07625 
L 589.502812 38.07625 
Q 591.502812 38.07625 591.502812 36.07625 
L 591.502812 7.72 
Q 591.502812 5.72 589.502812 5.72 
L 515.734062 5.72 
Q 513.734062 5.72 513.734062 7.72 
L 513.734062 36.07625 
Q 513.734062 38.07625 515.734062 38.07625 
z
" style="fill: #ffffff; opacity: 0.8; stroke: #cccccc; stroke-linejoin: miter"/>
    </g>
    <g id="line2d_35">
     <path d="M 517.734062 13.818438 
L 527.734062 13.818438 
L 537.734062 13.818438 
" style="fill: none; stroke: #0000ff; stroke-opacity: 0.5; stroke-width: 1.5; stroke-linecap: square"/>
    </g>
    <g id="text_19">
     <!-- RNEA -->
     <g transform="translate(545.734062 17.318438) scale(0.1 -0.1)">
      <defs>
       <path id="DejaVuSans-52" d="M 2841 2188 
Q 3044 2119 3236 1894 
Q 3428 1669 3622 1275 
L 4263 0 
L 3584 0 
L 2988 1197 
Q 2756 1666 2539 1819 
Q 2322 1972 1947 1972 
L 1259 1972 
L 1259 0 
L 628 0 
L 628 4666 
L 2053 4666 
Q 2853 4666 3247 4331 
Q 3641 3997 3641 3322 
Q 3641 2881 3436 2590 
Q 3231 2300 2841 2188 
z
M 1259 4147 
L 1259 2491 
L 2053 2491 
Q 2509 2491 2742 2702 
Q 2975 2913 2975 3322 
Q 2975 3731 2742 3939 
Q 2509 4147 2053 4147 
L 1259 4147 
z
" transform="scale(0.015625)"/>
       <path id="DejaVuSans-45" d="M 628 4666 
L 3578 4666 
L 3578 4134 
L 1259 4134 
L 1259 2753 
L 3481 2753 
L 3481 2222 
L 1259 2222 
L 1259 531 
L 3634 531 
L 3634 0 
L 628 0 
L 628 4666 
z
" transform="scale(0.015625)"/>
       <path id="DejaVuSans-41" d="M 2188 4044 
L 1331 1722 
L 3047 1722 
L 2188 4044 
z
M 1831 4666 
L 2547 4666 
L 4325 0 
L 3669 0 
L 3244 1197 
L 1141 1197 
L 716 0 
L 50 0 
L 1831 4666 
z
" transform="scale(0.015625)"/>
      </defs>
      <use xlink:href="#DejaVuSans-52"/>
      <use xlink:href="#DejaVuSans-4e" x="69.482422"/>
      <use xlink:href="#DejaVuSans-45" x="144.287109"/>
      <use xlink:href="#DejaVuSans-41" x="207.470703"/>
     </g>
    </g>
    <g id="line2d_36">
     <path d="M 517.734062 28.496563 
L 527.734062 28.496563 
L 537.734062 28.496563 
" style="fill: none; stroke: #ff0000; stroke-opacity: 0.5; stroke-width: 1.5; stroke-linecap: square"/>
    </g>
    <g id="text_20">
     <!-- BURNEA -->
     <g transform="translate(545.734062 31.996563) scale(0.1 -0.1)">
      <defs>
       <path id="DejaVuSans-42" d="M 1259 2228 
L 1259 519 
L 2272 519 
Q 2781 519 3026 730 
Q 3272 941 3272 1375 
Q 3272 1813 3026 2020 
Q 2781 2228 2272 2228 
L 1259 2228 
z
M 1259 4147 
L 1259 2741 
L 2194 2741 
Q 2656 2741 2882 2914 
Q 3109 3088 3109 3444 
Q 3109 3797 2882 3972 
Q 2656 4147 2194 4147 
L 1259 4147 
z
M 628 4666 
L 2241 4666 
Q 2963 4666 3353 4366 
Q 3744 4066 3744 3513 
Q 3744 3084 3544 2831 
Q 3344 2578 2956 2516 
Q 3422 2416 3680 2098 
Q 3938 1781 3938 1306 
Q 3938 681 3513 340 
Q 3088 0 2303 0 
L 628 0 
L 628 4666 
z
" transform="scale(0.015625)"/>
       <path id="DejaVuSans-55" d="M 556 4666 
L 1191 4666 
L 1191 1831 
Q 1191 1081 1462 751 
Q 1734 422 2344 422 
Q 2950 422 3222 751 
Q 3494 1081 3494 1831 
L 3494 4666 
L 4128 4666 
L 4128 1753 
Q 4128 841 3676 375 
Q 3225 -91 2344 -91 
Q 1459 -91 1007 375 
Q 556 841 556 1753 
L 556 4666 
z
" transform="scale(0.015625)"/>
      </defs>
      <use xlink:href="#DejaVuSans-42"/>
      <use xlink:href="#DejaVuSans-55" x="68.603516"/>
      <use xlink:href="#DejaVuSans-52" x="141.796875"/>
      <use xlink:href="#DejaVuSans-4e" x="211.279297"/>
      <use xlink:href="#DejaVuSans-45" x="286.083984"/>
      <use xlink:href="#DejaVuSans-41" x="349.267578"/>
     </g>
    </g>
   </g>
  </g>
 </g>
 <defs>
  <clipPath id="p64e11e0d8d">
   <rect x="38.502813" y="0.72" width="558" height="277.2"/>
  </clipPath>
 </defs>
</svg>
