<?xml version="1.0" encoding="utf-8" standalone="no"?>
<!DOCTYPE svg PUBLIC "-//W3C//DTD SVG 1.1//EN"
  "http://www.w3.org/Graphics/SVG/1.1/DTD/svg11.dtd">
<svg xmlns:xlink="http://www.w3.org/1999/xlink" width="597.222813pt" height="304.99625pt" viewBox="0 0 597.222813 304.99625" xmlns="http://www.w3.org/2000/svg" version="1.1">
 <metadata>
  <rdf:RDF xmlns:dc="http://purl.org/dc/elements/1.1/" xmlns:cc="http://creativecommons.org/ns#" xmlns:rdf="http://www.w3.org/1999/02/22-rdf-syntax-ns#">
   <cc:Work>
    <dc:type rdf:resource="http://purl.org/dc/dcmitype/StillImage"/>
    <dc:date>2023-09-07T03:30:26.313159</dc:date>
    <dc:format>image/svg+xml</dc:format>
    <dc:creator>
     <cc:Agent>
      <dc:title>Matplotlib v3.7.2, https://matplotlib.org/</dc:title>
     </cc:Agent>
    </dc:creator>
   </cc:Work>
  </rdf:RDF>
 </metadata>
 <defs>
  <style type="text/css">*{stroke-linejoin: round; stroke-linecap: butt}</style>
 </defs>
 <g id="figure_1">
  <g id="patch_1">
   <path d="M 0 304.99625 
L 597.222813 304.99625 
L 597.222813 0 
L 0 0 
L 0 304.99625 
z
" style="fill: none"/>
  </g>
  <g id="axes_1">
   <g id="patch_2">
    <path d="M 38.502813 277.92 
L 596.502813 277.92 
L 596.502813 0.72 
L 38.502813 0.72 
L 38.502813 277.92 
z
" style="fill: none"/>
   </g>
   <g id="matplotlib.axis_1">
    <g id="xtick_1">
     <g id="line2d_1">
      <path d="M 38.502813 277.92 
L 38.502813 0.72 
" clip-path="url(#p4975b30c60)" style="fill: none; stroke-dasharray: 0.8,1.32; stroke-dashoffset: 0; stroke: #000000; stroke-opacity: 0.5; stroke-width: 0.8"/>
     </g>
     <g id="line2d_2">
      <defs>
       <path id="m10f392e981" d="M 0 0 
L 0 3.5 
" style="stroke: #000000; stroke-width: 0.8"/>
      </defs>
      <g>
       <use xlink:href="#m10f392e981" x="38.502813" y="277.92" style="stroke: #000000; stroke-width: 0.8"/>
      </g>
     </g>
     <g id="text_1">
      <!-- 0.0 -->
      <g transform="translate(30.55125 292.518438) scale(0.1 -0.1)">
       <defs>
        <path id="DejaVuSans-30" d="M 2034 4250 
Q 1547 4250 1301 3770 
Q 1056 3291 1056 2328 
Q 1056 1369 1301 889 
Q 1547 409 2034 409 
Q 2525 409 2770 889 
Q 3016 1369 3016 2328 
Q 3016 3291 2770 3770 
Q 2525 4250 2034 4250 
z
M 2034 4750 
Q 2819 4750 3233 4129 
Q 3647 3509 3647 2328 
Q 3647 1150 3233 529 
Q 2819 -91 2034 -91 
Q 1250 -91 836 529 
Q 422 1150 422 2328 
Q 422 3509 836 4129 
Q 1250 4750 2034 4750 
z
" transform="scale(0.015625)"/>
        <path id="DejaVuSans-2e" d="M 684 794 
L 1344 794 
L 1344 0 
L 684 0 
L 684 794 
z
" transform="scale(0.015625)"/>
       </defs>
       <use xlink:href="#DejaVuSans-30"/>
       <use xlink:href="#DejaVuSans-2e" x="63.623047"/>
       <use xlink:href="#DejaVuSans-30" x="95.410156"/>
      </g>
     </g>
    </g>
    <g id="xtick_2">
     <g id="line2d_3">
      <path d="M 112.654137 277.92 
L 112.654137 0.72 
" clip-path="url(#p4975b30c60)" style="fill: none; stroke-dasharray: 0.8,1.32; stroke-dashoffset: 0; stroke: #000000; stroke-opacity: 0.5; stroke-width: 0.8"/>
     </g>
     <g id="line2d_4">
      <g>
       <use xlink:href="#m10f392e981" x="112.654137" y="277.92" style="stroke: #000000; stroke-width: 0.8"/>
      </g>
     </g>
     <g id="text_2">
      <!-- 2.5 -->
      <g transform="translate(104.702575 292.518438) scale(0.1 -0.1)">
       <defs>
        <path id="DejaVuSans-32" d="M 1228 531 
L 3431 531 
L 3431 0 
L 469 0 
L 469 531 
Q 828 903 1448 1529 
Q 2069 2156 2228 2338 
Q 2531 2678 2651 2914 
Q 2772 3150 2772 3378 
Q 2772 3750 2511 3984 
Q 2250 4219 1831 4219 
Q 1534 4219 1204 4116 
Q 875 4013 500 3803 
L 500 4441 
Q 881 4594 1212 4672 
Q 1544 4750 1819 4750 
Q 2544 4750 2975 4387 
Q 3406 4025 3406 3419 
Q 3406 3131 3298 2873 
Q 3191 2616 2906 2266 
Q 2828 2175 2409 1742 
Q 1991 1309 1228 531 
z
" transform="scale(0.015625)"/>
        <path id="DejaVuSans-35" d="M 691 4666 
L 3169 4666 
L 3169 4134 
L 1269 4134 
L 1269 2991 
Q 1406 3038 1543 3061 
Q 1681 3084 1819 3084 
Q 2600 3084 3056 2656 
Q 3513 2228 3513 1497 
Q 3513 744 3044 326 
Q 2575 -91 1722 -91 
Q 1428 -91 1123 -41 
Q 819 9 494 109 
L 494 744 
Q 775 591 1075 516 
Q 1375 441 1709 441 
Q 2250 441 2565 725 
Q 2881 1009 2881 1497 
Q 2881 1984 2565 2268 
Q 2250 2553 1709 2553 
Q 1456 2553 1204 2497 
Q 953 2441 691 2322 
L 691 4666 
z
" transform="scale(0.015625)"/>
       </defs>
       <use xlink:href="#DejaVuSans-32"/>
       <use xlink:href="#DejaVuSans-2e" x="63.623047"/>
       <use xlink:href="#DejaVuSans-35" x="95.410156"/>
      </g>
     </g>
    </g>
    <g id="xtick_3">
     <g id="line2d_5">
      <path d="M 186.805462 277.92 
L 186.805462 0.72 
" clip-path="url(#p4975b30c60)" style="fill: none; stroke-dasharray: 0.8,1.32; stroke-dashoffset: 0; stroke: #000000; stroke-opacity: 0.5; stroke-width: 0.8"/>
     </g>
     <g id="line2d_6">
      <g>
       <use xlink:href="#m10f392e981" x="186.805462" y="277.92" style="stroke: #000000; stroke-width: 0.8"/>
      </g>
     </g>
     <g id="text_3">
      <!-- 5.0 -->
      <g transform="translate(178.8539 292.518438) scale(0.1 -0.1)">
       <use xlink:href="#DejaVuSans-35"/>
       <use xlink:href="#DejaVuSans-2e" x="63.623047"/>
       <use xlink:href="#DejaVuSans-30" x="95.410156"/>
      </g>
     </g>
    </g>
    <g id="xtick_4">
     <g id="line2d_7">
      <path d="M 260.956787 277.92 
L 260.956787 0.72 
" clip-path="url(#p4975b30c60)" style="fill: none; stroke-dasharray: 0.8,1.32; stroke-dashoffset: 0; stroke: #000000; stroke-opacity: 0.5; stroke-width: 0.8"/>
     </g>
     <g id="line2d_8">
      <g>
       <use xlink:href="#m10f392e981" x="260.956787" y="277.92" style="stroke: #000000; stroke-width: 0.8"/>
      </g>
     </g>
     <g id="text_4">
      <!-- 7.5 -->
      <g transform="translate(253.005225 292.518438) scale(0.1 -0.1)">
       <defs>
        <path id="DejaVuSans-37" d="M 525 4666 
L 3525 4666 
L 3525 4397 
L 1831 0 
L 1172 0 
L 2766 4134 
L 525 4134 
L 525 4666 
z
" transform="scale(0.015625)"/>
       </defs>
       <use xlink:href="#DejaVuSans-37"/>
       <use xlink:href="#DejaVuSans-2e" x="63.623047"/>
       <use xlink:href="#DejaVuSans-35" x="95.410156"/>
      </g>
     </g>
    </g>
    <g id="xtick_5">
     <g id="line2d_9">
      <path d="M 335.108112 277.92 
L 335.108112 0.72 
" clip-path="url(#p4975b30c60)" style="fill: none; stroke-dasharray: 0.8,1.32; stroke-dashoffset: 0; stroke: #000000; stroke-opacity: 0.5; stroke-width: 0.8"/>
     </g>
     <g id="line2d_10">
      <g>
       <use xlink:href="#m10f392e981" x="335.108112" y="277.92" style="stroke: #000000; stroke-width: 0.8"/>
      </g>
     </g>
     <g id="text_5">
      <!-- 10.0 -->
      <g transform="translate(323.9753 292.518438) scale(0.1 -0.1)">
       <defs>
        <path id="DejaVuSans-31" d="M 794 531 
L 1825 531 
L 1825 4091 
L 703 3866 
L 703 4441 
L 1819 4666 
L 2450 4666 
L 2450 531 
L 3481 531 
L 3481 0 
L 794 0 
L 794 531 
z
" transform="scale(0.015625)"/>
       </defs>
       <use xlink:href="#DejaVuSans-31"/>
       <use xlink:href="#DejaVuSans-30" x="63.623047"/>
       <use xlink:href="#DejaVuSans-2e" x="127.246094"/>
       <use xlink:href="#DejaVuSans-30" x="159.033203"/>
      </g>
     </g>
    </g>
    <g id="xtick_6">
     <g id="line2d_11">
      <path d="M 409.259437 277.92 
L 409.259437 0.72 
" clip-path="url(#p4975b30c60)" style="fill: none; stroke-dasharray: 0.8,1.32; stroke-dashoffset: 0; stroke: #000000; stroke-opacity: 0.5; stroke-width: 0.8"/>
     </g>
     <g id="line2d_12">
      <g>
       <use xlink:href="#m10f392e981" x="409.259437" y="277.92" style="stroke: #000000; stroke-width: 0.8"/>
      </g>
     </g>
     <g id="text_6">
      <!-- 12.5 -->
      <g transform="translate(398.126625 292.518438) scale(0.1 -0.1)">
       <use xlink:href="#DejaVuSans-31"/>
       <use xlink:href="#DejaVuSans-32" x="63.623047"/>
       <use xlink:href="#DejaVuSans-2e" x="127.246094"/>
       <use xlink:href="#DejaVuSans-35" x="159.033203"/>
      </g>
     </g>
    </g>
    <g id="xtick_7">
     <g id="line2d_13">
      <path d="M 483.410762 277.92 
L 483.410762 0.72 
" clip-path="url(#p4975b30c60)" style="fill: none; stroke-dasharray: 0.8,1.32; stroke-dashoffset: 0; stroke: #000000; stroke-opacity: 0.5; stroke-width: 0.8"/>
     </g>
     <g id="line2d_14">
      <g>
       <use xlink:href="#m10f392e981" x="483.410762" y="277.92" style="stroke: #000000; stroke-width: 0.8"/>
      </g>
     </g>
     <g id="text_7">
      <!-- 15.0 -->
      <g transform="translate(472.27795 292.518438) scale(0.1 -0.1)">
       <use xlink:href="#DejaVuSans-31"/>
       <use xlink:href="#DejaVuSans-35" x="63.623047"/>
       <use xlink:href="#DejaVuSans-2e" x="127.246094"/>
       <use xlink:href="#DejaVuSans-30" x="159.033203"/>
      </g>
     </g>
    </g>
    <g id="xtick_8">
     <g id="line2d_15">
      <path d="M 557.562087 277.92 
L 557.562087 0.72 
" clip-path="url(#p4975b30c60)" style="fill: none; stroke-dasharray: 0.8,1.32; stroke-dashoffset: 0; stroke: #000000; stroke-opacity: 0.5; stroke-width: 0.8"/>
     </g>
     <g id="line2d_16">
      <g>
       <use xlink:href="#m10f392e981" x="557.562087" y="277.92" style="stroke: #000000; stroke-width: 0.8"/>
      </g>
     </g>
     <g id="text_8">
      <!-- 17.5 -->
      <g transform="translate(546.429274 292.518438) scale(0.1 -0.1)">
       <use xlink:href="#DejaVuSans-31"/>
       <use xlink:href="#DejaVuSans-37" x="63.623047"/>
       <use xlink:href="#DejaVuSans-2e" x="127.246094"/>
       <use xlink:href="#DejaVuSans-35" x="159.033203"/>
      </g>
     </g>
    </g>
    <g id="text_9">
     <!-- Zeit [s] -->
     <g transform="translate(299.556719 302.196563) scale(0.1 -0.1)">
      <defs>
       <path id="DejaVuSans-5a" d="M 359 4666 
L 4025 4666 
L 4025 4184 
L 1075 531 
L 4097 531 
L 4097 0 
L 288 0 
L 288 481 
L 3238 4134 
L 359 4134 
L 359 4666 
z
" transform="scale(0.015625)"/>
       <path id="DejaVuSans-65" d="M 3597 1894 
L 3597 1613 
L 953 1613 
Q 991 1019 1311 708 
Q 1631 397 2203 397 
Q 2534 397 2845 478 
Q 3156 559 3463 722 
L 3463 178 
Q 3153 47 2828 -22 
Q 2503 -91 2169 -91 
Q 1331 -91 842 396 
Q 353 884 353 1716 
Q 353 2575 817 3079 
Q 1281 3584 2069 3584 
Q 2775 3584 3186 3129 
Q 3597 2675 3597 1894 
z
M 3022 2063 
Q 3016 2534 2758 2815 
Q 2500 3097 2075 3097 
Q 1594 3097 1305 2825 
Q 1016 2553 972 2059 
L 3022 2063 
z
" transform="scale(0.015625)"/>
       <path id="DejaVuSans-69" d="M 603 3500 
L 1178 3500 
L 1178 0 
L 603 0 
L 603 3500 
z
M 603 4863 
L 1178 4863 
L 1178 4134 
L 603 4134 
L 603 4863 
z
" transform="scale(0.015625)"/>
       <path id="DejaVuSans-74" d="M 1172 4494 
L 1172 3500 
L 2356 3500 
L 2356 3053 
L 1172 3053 
L 1172 1153 
Q 1172 725 1289 603 
Q 1406 481 1766 481 
L 2356 481 
L 2356 0 
L 1766 0 
Q 1100 0 847 248 
Q 594 497 594 1153 
L 594 3053 
L 172 3053 
L 172 3500 
L 594 3500 
L 594 4494 
L 1172 4494 
z
" transform="scale(0.015625)"/>
       <path id="DejaVuSans-20" transform="scale(0.015625)"/>
       <path id="DejaVuSans-5b" d="M 550 4863 
L 1875 4863 
L 1875 4416 
L 1125 4416 
L 1125 -397 
L 1875 -397 
L 1875 -844 
L 550 -844 
L 550 4863 
z
" transform="scale(0.015625)"/>
       <path id="DejaVuSans-73" d="M 2834 3397 
L 2834 2853 
Q 2591 2978 2328 3040 
Q 2066 3103 1784 3103 
Q 1356 3103 1142 2972 
Q 928 2841 928 2578 
Q 928 2378 1081 2264 
Q 1234 2150 1697 2047 
L 1894 2003 
Q 2506 1872 2764 1633 
Q 3022 1394 3022 966 
Q 3022 478 2636 193 
Q 2250 -91 1575 -91 
Q 1294 -91 989 -36 
Q 684 19 347 128 
L 347 722 
Q 666 556 975 473 
Q 1284 391 1588 391 
Q 1994 391 2212 530 
Q 2431 669 2431 922 
Q 2431 1156 2273 1281 
Q 2116 1406 1581 1522 
L 1381 1569 
Q 847 1681 609 1914 
Q 372 2147 372 2553 
Q 372 3047 722 3315 
Q 1072 3584 1716 3584 
Q 2034 3584 2315 3537 
Q 2597 3491 2834 3397 
z
" transform="scale(0.015625)"/>
       <path id="DejaVuSans-5d" d="M 1947 4863 
L 1947 -844 
L 622 -844 
L 622 -397 
L 1369 -397 
L 1369 4416 
L 622 4416 
L 622 4863 
L 1947 4863 
z
" transform="scale(0.015625)"/>
      </defs>
      <use xlink:href="#DejaVuSans-5a"/>
      <use xlink:href="#DejaVuSans-65" x="68.505859"/>
      <use xlink:href="#DejaVuSans-69" x="130.029297"/>
      <use xlink:href="#DejaVuSans-74" x="157.8125"/>
      <use xlink:href="#DejaVuSans-20" x="197.021484"/>
      <use xlink:href="#DejaVuSans-5b" x="228.808594"/>
      <use xlink:href="#DejaVuSans-73" x="267.822266"/>
      <use xlink:href="#DejaVuSans-5d" x="319.921875"/>
     </g>
    </g>
   </g>
   <g id="matplotlib.axis_2">
    <g id="ytick_1">
     <g id="line2d_17">
      <path d="M 38.502813 246.72147 
L 596.502813 246.72147 
" clip-path="url(#p4975b30c60)" style="fill: none; stroke-dasharray: 0.8,1.32; stroke-dashoffset: 0; stroke: #000000; stroke-opacity: 0.5; stroke-width: 0.8"/>
     </g>
     <g id="line2d_18">
      <defs>
       <path id="m40e360ba05" d="M 0 0 
L -3.5 0 
" style="stroke: #000000; stroke-width: 0.8"/>
      </defs>
      <g>
       <use xlink:href="#m40e360ba05" x="38.502813" y="246.72147" style="stroke: #000000; stroke-width: 0.8"/>
      </g>
     </g>
     <g id="text_10">
      <!-- −30 -->
      <g transform="translate(10.398125 250.520689) scale(0.1 -0.1)">
       <defs>
        <path id="DejaVuSans-2212" d="M 678 2272 
L 4684 2272 
L 4684 1741 
L 678 1741 
L 678 2272 
z
" transform="scale(0.015625)"/>
        <path id="DejaVuSans-33" d="M 2597 2516 
Q 3050 2419 3304 2112 
Q 3559 1806 3559 1356 
Q 3559 666 3084 287 
Q 2609 -91 1734 -91 
Q 1441 -91 1130 -33 
Q 819 25 488 141 
L 488 750 
Q 750 597 1062 519 
Q 1375 441 1716 441 
Q 2309 441 2620 675 
Q 2931 909 2931 1356 
Q 2931 1769 2642 2001 
Q 2353 2234 1838 2234 
L 1294 2234 
L 1294 2753 
L 1863 2753 
Q 2328 2753 2575 2939 
Q 2822 3125 2822 3475 
Q 2822 3834 2567 4026 
Q 2313 4219 1838 4219 
Q 1578 4219 1281 4162 
Q 984 4106 628 3988 
L 628 4550 
Q 988 4650 1302 4700 
Q 1616 4750 1894 4750 
Q 2613 4750 3031 4423 
Q 3450 4097 3450 3541 
Q 3450 3153 3228 2886 
Q 3006 2619 2597 2516 
z
" transform="scale(0.015625)"/>
       </defs>
       <use xlink:href="#DejaVuSans-2212"/>
       <use xlink:href="#DejaVuSans-33" x="83.789062"/>
       <use xlink:href="#DejaVuSans-30" x="147.412109"/>
      </g>
     </g>
    </g>
    <g id="ytick_2">
     <g id="line2d_19">
      <path d="M 38.502813 194.569374 
L 596.502813 194.569374 
" clip-path="url(#p4975b30c60)" style="fill: none; stroke-dasharray: 0.8,1.32; stroke-dashoffset: 0; stroke: #000000; stroke-opacity: 0.5; stroke-width: 0.8"/>
     </g>
     <g id="line2d_20">
      <g>
       <use xlink:href="#m40e360ba05" x="38.502813" y="194.569374" style="stroke: #000000; stroke-width: 0.8"/>
      </g>
     </g>
     <g id="text_11">
      <!-- −20 -->
      <g transform="translate(10.398125 198.368593) scale(0.1 -0.1)">
       <use xlink:href="#DejaVuSans-2212"/>
       <use xlink:href="#DejaVuSans-32" x="83.789062"/>
       <use xlink:href="#DejaVuSans-30" x="147.412109"/>
      </g>
     </g>
    </g>
    <g id="ytick_3">
     <g id="line2d_21">
      <path d="M 38.502813 142.417278 
L 596.502813 142.417278 
" clip-path="url(#p4975b30c60)" style="fill: none; stroke-dasharray: 0.8,1.32; stroke-dashoffset: 0; stroke: #000000; stroke-opacity: 0.5; stroke-width: 0.8"/>
     </g>
     <g id="line2d_22">
      <g>
       <use xlink:href="#m40e360ba05" x="38.502813" y="142.417278" style="stroke: #000000; stroke-width: 0.8"/>
      </g>
     </g>
     <g id="text_12">
      <!-- −10 -->
      <g transform="translate(10.398125 146.216496) scale(0.1 -0.1)">
       <use xlink:href="#DejaVuSans-2212"/>
       <use xlink:href="#DejaVuSans-31" x="83.789062"/>
       <use xlink:href="#DejaVuSans-30" x="147.412109"/>
      </g>
     </g>
    </g>
    <g id="ytick_4">
     <g id="line2d_23">
      <path d="M 38.502813 90.265181 
L 596.502813 90.265181 
" clip-path="url(#p4975b30c60)" style="fill: none; stroke-dasharray: 0.8,1.32; stroke-dashoffset: 0; stroke: #000000; stroke-opacity: 0.5; stroke-width: 0.8"/>
     </g>
     <g id="line2d_24">
      <g>
       <use xlink:href="#m40e360ba05" x="38.502813" y="90.265181" style="stroke: #000000; stroke-width: 0.8"/>
      </g>
     </g>
     <g id="text_13">
      <!-- 0 -->
      <g transform="translate(25.140313 94.0644) scale(0.1 -0.1)">
       <use xlink:href="#DejaVuSans-30"/>
      </g>
     </g>
    </g>
    <g id="ytick_5">
     <g id="line2d_25">
      <path d="M 38.502813 38.113085 
L 596.502813 38.113085 
" clip-path="url(#p4975b30c60)" style="fill: none; stroke-dasharray: 0.8,1.32; stroke-dashoffset: 0; stroke: #000000; stroke-opacity: 0.5; stroke-width: 0.8"/>
     </g>
     <g id="line2d_26">
      <g>
       <use xlink:href="#m40e360ba05" x="38.502813" y="38.113085" style="stroke: #000000; stroke-width: 0.8"/>
      </g>
     </g>
     <g id="text_14">
      <!-- 10 -->
      <g transform="translate(18.777813 41.912304) scale(0.1 -0.1)">
       <use xlink:href="#DejaVuSans-31"/>
       <use xlink:href="#DejaVuSans-30" x="63.623047"/>
      </g>
     </g>
    </g>
    <g id="text_15">
     <!-- Kraft [N] -->
     <g transform="translate(8.318438 160.5825) rotate(-90) scale(0.1 -0.1)">
      <defs>
       <path id="DejaVuSans-4b" d="M 628 4666 
L 1259 4666 
L 1259 2694 
L 3353 4666 
L 4166 4666 
L 1850 2491 
L 4331 0 
L 3500 0 
L 1259 2247 
L 1259 0 
L 628 0 
L 628 4666 
z
" transform="scale(0.015625)"/>
       <path id="DejaVuSans-72" d="M 2631 2963 
Q 2534 3019 2420 3045 
Q 2306 3072 2169 3072 
Q 1681 3072 1420 2755 
Q 1159 2438 1159 1844 
L 1159 0 
L 581 0 
L 581 3500 
L 1159 3500 
L 1159 2956 
Q 1341 3275 1631 3429 
Q 1922 3584 2338 3584 
Q 2397 3584 2469 3576 
Q 2541 3569 2628 3553 
L 2631 2963 
z
" transform="scale(0.015625)"/>
       <path id="DejaVuSans-61" d="M 2194 1759 
Q 1497 1759 1228 1600 
Q 959 1441 959 1056 
Q 959 750 1161 570 
Q 1363 391 1709 391 
Q 2188 391 2477 730 
Q 2766 1069 2766 1631 
L 2766 1759 
L 2194 1759 
z
M 3341 1997 
L 3341 0 
L 2766 0 
L 2766 531 
Q 2569 213 2275 61 
Q 1981 -91 1556 -91 
Q 1019 -91 701 211 
Q 384 513 384 1019 
Q 384 1609 779 1909 
Q 1175 2209 1959 2209 
L 2766 2209 
L 2766 2266 
Q 2766 2663 2505 2880 
Q 2244 3097 1772 3097 
Q 1472 3097 1187 3025 
Q 903 2953 641 2809 
L 641 3341 
Q 956 3463 1253 3523 
Q 1550 3584 1831 3584 
Q 2591 3584 2966 3190 
Q 3341 2797 3341 1997 
z
" transform="scale(0.015625)"/>
       <path id="DejaVuSans-66" d="M 2375 4863 
L 2375 4384 
L 1825 4384 
Q 1516 4384 1395 4259 
Q 1275 4134 1275 3809 
L 1275 3500 
L 2222 3500 
L 2222 3053 
L 1275 3053 
L 1275 0 
L 697 0 
L 697 3053 
L 147 3053 
L 147 3500 
L 697 3500 
L 697 3744 
Q 697 4328 969 4595 
Q 1241 4863 1831 4863 
L 2375 4863 
z
" transform="scale(0.015625)"/>
       <path id="DejaVuSans-4e" d="M 628 4666 
L 1478 4666 
L 3547 763 
L 3547 4666 
L 4159 4666 
L 4159 0 
L 3309 0 
L 1241 3903 
L 1241 0 
L 628 0 
L 628 4666 
z
" transform="scale(0.015625)"/>
      </defs>
      <use xlink:href="#DejaVuSans-4b"/>
      <use xlink:href="#DejaVuSans-72" x="65.576172"/>
      <use xlink:href="#DejaVuSans-61" x="106.689453"/>
      <use xlink:href="#DejaVuSans-66" x="167.96875"/>
      <use xlink:href="#DejaVuSans-74" x="201.423828"/>
      <use xlink:href="#DejaVuSans-20" x="240.632812"/>
      <use xlink:href="#DejaVuSans-5b" x="272.419922"/>
      <use xlink:href="#DejaVuSans-4e" x="311.433594"/>
      <use xlink:href="#DejaVuSans-5d" x="386.238281"/>
     </g>
    </g>
   </g>
   <g id="line2d_27">
    <path d="M 38.502813 90.265181 
L 223.732051 90.176254 
L 224.048213 89.561219 
L 225.274355 82.956976 
L 225.75103 82.336876 
L 226.226817 82.444024 
L 226.525541 82.711025 
L 226.707352 83.507336 
L 227.004147 83.899779 
L 227.184451 83.628899 
L 227.422827 83.924227 
L 227.479239 83.530713 
L 227.956897 84.632138 
L 228.194151 83.916879 
L 228.491933 84.574903 
L 228.730952 84.820039 
L 228.972776 84.207001 
L 229.507621 83.545116 
L 229.998628 83.514263 
L 230.173069 82.189502 
L 230.408796 82.986928 
L 230.705939 84.487143 
L 230.945101 82.603087 
L 231.242363 84.341862 
L 231.630147 84.868762 
L 231.663719 86.061688 
L 232.136825 83.995924 
L 232.316057 81.716201 
L 232.434509 85.074333 
L 232.915984 83.519919 
L 233.208451 81.565592 
L 233.387885 84.236734 
L 233.626662 83.540686 
L 233.864567 82.075337 
L 234.163673 86.284861 
L 234.459871 82.762221 
L 235.11598 85.456594 
L 235.432665 84.230717 
L 235.72695 85.386541 
L 235.906757 82.94011 
L 236.084479 85.848059 
L 236.384217 86.490302 
L 236.621287 82.593368 
L 236.919839 82.203182 
L 237.157824 83.92831 
L 237.395703 81.240567 
L 237.695023 81.309153 
L 237.874902 86.09982 
L 238.290534 84.126982 
L 238.35076 84.944978 
L 238.589264 85.383086 
L 238.828455 87.1605 
L 239.065068 80.886417 
L 239.305311 81.30719 
L 239.549082 82.514258 
L 239.840779 80.536797 
L 240.023237 86.616619 
L 240.317181 83.518418 
L 240.614551 83.001116 
L 240.793797 80.251847 
L 241.151839 85.42573 
L 241.389884 84.215224 
L 241.569338 82.598237 
L 242.044896 85.612558 
L 242.344062 83.822119 
L 242.641746 83.710787 
L 242.939843 82.644817 
L 243.118815 86.256074 
L 243.41606 88.052409 
L 243.539421 84.780043 
L 243.836562 85.435131 
L 244.071675 85.44121 
L 244.253567 84.438991 
L 244.531837 83.567681 
L 244.760099 85.643485 
L 245.741822 81.146057 
L 246.202726 84.114189 
L 246.337942 91.658159 
L 246.754794 81.36551 
L 246.994239 86.912788 
L 247.232263 89.300204 
L 247.469526 80.041193 
L 247.708076 84.623143 
L 248.125328 88.840055 
L 248.363697 87.400718 
L 248.543255 89.7123 
L 248.848689 78.234948 
L 249.020847 87.842348 
L 249.218981 84.37981 
L 249.530817 85.591874 
L 249.796994 84.120138 
L 249.91722 85.497787 
L 250.176782 86.107542 
L 250.454559 83.21341 
L 250.69308 84.185209 
L 250.990238 83.761599 
L 251.171156 81.742132 
L 251.466717 82.528288 
L 251.705896 80.291132 
L 252.004037 81.868459 
L 252.243865 82.325635 
L 252.425758 78.688935 
L 252.66071 80.926953 
L 252.958474 85.051273 
L 253.137428 84.895727 
L 253.437262 80.529833 
L 253.732822 83.241898 
L 253.912799 81.821807 
L 254.151034 85.064206 
L 254.390353 92.116775 
L 254.866171 76.788633 
L 255.283195 95.540226 
L 255.702331 83.741672 
L 255.879236 83.004139 
L 256.118256 89.174265 
L 256.357 88.091312 
L 256.596713 81.464986 
L 257.013573 79.866416 
L 257.134596 87.549422 
L 257.61066 80.337467 
L 257.848051 85.141371 
L 258.20509 89.428186 
L 258.445132 80.787239 
L 258.859825 93.235436 
L 259.158214 89.708792 
L 259.730147 85.365185 
L 259.876027 77.1469 
L 260.173233 89.112236 
L 260.294447 85.412479 
L 260.591149 80.814578 
L 260.949329 67.677283 
L 261.322962 86.298308 
L 261.602805 90.334439 
L 261.975746 85.57056 
L 262.086563 85.906078 
L 262.328785 89.618746 
L 262.55622 86.362518 
L 262.794199 86.170066 
L 263.151773 95.498194 
L 263.330837 86.818303 
L 263.7477 77.938261 
L 263.866901 82.718719 
L 264.105397 80.961918 
L 264.285849 92.521909 
L 264.643203 80.470387 
L 264.881961 82.766977 
L 265.058864 81.409753 
L 265.299527 84.651197 
L 265.714773 94.528102 
L 265.955612 92.734294 
L 266.191948 83.198529 
L 266.252174 83.952925 
L 266.48981 86.827907 
L 266.788459 85.98929 
L 267.09442 86.380928 
L 267.324829 88.51749 
L 267.563622 78.503211 
L 267.759853 84.886097 
L 268.338011 89.975037 
L 268.532791 87.42956 
L 268.756773 86.153512 
L 269.017167 87.59937 
L 269.233644 94.277921 
L 269.530633 96.067476 
L 269.887378 92.84055 
L 270.125731 92.855977 
L 270.245132 86.361757 
L 270.661966 85.308812 
L 270.723 86.911781 
L 270.960397 89.986279 
L 271.318588 92.908448 
L 271.561653 82.937452 
L 271.735812 93.630895 
L 271.975033 83.727019 
L 272.454512 93.777345 
L 272.689423 79.747472 
L 272.927961 96.665046 
L 273.643316 86.928447 
L 273.969451 84.93572 
L 274.219372 84.112345 
L 274.658263 89.604445 
L 274.845561 87.147469 
L 275.037647 87.295303 
L 275.313574 83.434082 
L 275.437851 92.702866 
L 275.791628 92.126916 
L 275.91339 85.703087 
L 276.20821 83.371897 
L 276.393789 95.04434 
L 276.812326 87.528386 
L 277.049078 99.608089 
L 277.162083 90.539133 
L 277.590469 84.538803 
L 277.779075 93.792161 
L 277.939041 80.627189 
L 278.12053 78.395823 
L 278.475781 98.918046 
L 278.624491 89.071346 
L 278.955747 94.320682 
L 279.193852 93.074093 
L 279.431173 80.459254 
L 279.612332 99.187113 
L 279.907556 86.015497 
L 280.086959 87.805093 
L 280.384925 76.995504 
L 280.623809 89.495675 
L 281.1601 86.536992 
L 281.457142 91.710239 
L 281.594071 98.626194 
L 281.873928 83.705998 
L 282.056615 96.358908 
L 282.113657 84.383 
L 282.351481 89.492143 
L 282.533731 86.613628 
L 282.828435 86.843835 
L 283.068365 85.03903 
L 283.306338 88.004465 
L 283.66432 74.304479 
L 283.961917 88.400543 
L 284.088847 101.432513 
L 284.563335 82.742695 
L 284.856401 81.226212 
L 285.034625 96.566443 
L 285.276257 89.045111 
L 285.690436 87.425935 
L 285.810779 85.131973 
L 286.048783 77.965115 
L 286.292195 82.569009 
L 286.526687 96.631994 
L 286.769413 93.99166 
L 287.007247 105.277264 
L 287.262421 86.011773 
L 287.484106 98.064128 
L 287.84259 88.608526 
L 288.024509 75.055945 
L 288.259375 86.494604 
L 288.497522 79.882808 
L 288.736219 80.94762 
L 289.035046 90.267023 
L 289.24077 91.568801 
L 289.455069 79.37885 
L 289.811148 82.561548 
L 290.227704 71.442627 
L 290.347633 92.005817 
L 290.465879 75.619588 
L 290.883363 101.875538 
L 290.948755 76.830482 
L 291.225488 85.774984 
L 291.495528 101.346977 
L 291.679836 85.530811 
L 292.13465 108.109967 
L 292.194976 83.451355 
L 292.432576 83.050032 
L 292.969282 94.520944 
L 293.207555 93.422222 
L 293.504983 87.508871 
L 293.689059 92.25201 
L 293.924229 105.047264 
L 294.221147 108.415862 
L 294.466574 96.524284 
L 294.698997 109.70425 
L 294.878318 91.734513 
L 295.173661 97.802952 
L 295.4127 82.830774 
L 295.717231 78.799081 
L 295.948103 103.838275 
L 296.426372 85.765105 
L 296.607631 86.344825 
L 296.961851 90.549101 
L 297.152314 97.830976 
L 297.438974 83.907341 
L 297.620443 100.066199 
L 297.929888 88.286968 
L 298.095365 90.73282 
L 298.335465 87.092976 
L 298.632709 99.027986 
L 298.870236 88.154034 
L 299.108436 88.455545 
L 299.60655 86.406639 
L 299.827215 84.592042 
L 300.182774 101.518304 
L 300.361705 85.690725 
L 300.600166 96.690196 
L 300.854175 85.58787 
L 301.079765 98.796604 
L 301.494049 69.8727 
L 301.613328 87.534341 
L 301.911255 70.276098 
L 302.09056 94.555097 
L 302.626399 85.490533 
L 302.80676 74.136656 
L 303.043886 90.627558 
L 303.341324 90.477255 
L 303.54503 94.110445 
L 303.826118 86.987481 
L 304.119111 91.472568 
L 304.41641 92.589543 
L 304.595673 85.045823 
L 304.95287 91.065771 
L 305.252232 99.104375 
L 305.31073 93.37543 
L 305.548602 90.846805 
L 305.846457 96.30574 
L 306.02906 90.101906 
L 306.385283 91.657709 
L 306.562027 104.002356 
L 306.801509 98.210555 
L 306.996024 87.968381 
L 307.281744 90.596199 
L 307.900046 93.308083 
L 308.067971 92.476232 
L 308.299126 100.68393 
L 308.537897 78.454451 
L 308.839248 94.560473 
L 309.086734 93.850903 
L 309.313549 96.189734 
L 309.455479 94.454655 
L 309.930311 98.671086 
L 310.001814 97.847001 
L 310.28921 86.149113 
L 310.527271 102.779849 
L 310.708003 81.19198 
L 311.063774 90.049407 
L 311.611583 74.074715 
L 311.781527 100.158276 
L 312.017687 98.014105 
L 312.375319 76.34687 
L 312.501747 91.598973 
L 312.732977 92.289872 
L 313.090224 91.430975 
L 313.212638 272.589231 
L 313.805492 249.928892 
L 314.235778 134.254369 
L 314.58015 129.215581 
L 314.701814 108.9424 
L 314.938888 93.788847 
L 315.682591 83.138165 
L 316.016983 84.120189 
L 316.33419 86.579477 
L 316.452034 60.539684 
L 316.695304 81.114658 
L 316.995565 69.517581 
L 317.110027 88.884963 
L 317.410895 82.518462 
L 317.763281 90.434012 
L 318.060545 90.515893 
L 318.180102 91.110616 
L 318.359189 95.382708 
L 318.718927 78.216685 
L 318.959086 78.952086 
L 319.49789 101.259886 
L 319.614865 91.598881 
L 319.910478 106.760852 
L 320.14826 92.610215 
L 320.624731 86.659864 
L 320.864807 90.273505 
L 321.102007 74.850352 
L 321.340325 85.754584 
L 321.584298 88.157436 
L 321.878065 70.784166 
L 322.357206 89.30845 
L 322.592008 91.803195 
L 322.840479 89.366053 
L 323.070052 90.765484 
L 323.310491 90.699327 
L 323.548541 102.608781 
L 323.963903 101.433726 
L 324.083748 88.512495 
L 324.50419 97.917324 
L 324.569671 81.090578 
L 324.802157 91.239522 
L 325.454334 90.036411 
L 325.633327 87.673917 
L 325.812051 91.47451 
L 326.051482 77.479727 
L 326.294583 80.392613 
L 326.530758 88.46501 
L 326.852363 82.978087 
L 327.242305 92.769478 
L 327.301953 87.654312 
L 327.540635 91.088945 
L 327.778986 90.069807 
L 328.020226 92.83791 
L 328.256505 90.840766 
L 328.495475 77.202033 
L 328.794246 98.386013 
L 329.171816 89.538669 
L 329.275333 96.551302 
L 329.508337 102.534751 
L 329.745474 81.816133 
L 330.162941 90.519628 
L 330.282264 90.280159 
L 330.580948 90.096293 
L 330.761294 97.486163 
L 331.057073 91.654776 
L 331.312423 99.669182 
L 331.798258 86.159432 
L 332.018819 93.63633 
L 332.487919 91.563404 
L 332.725398 93.64006 
L 333.024265 90.223386 
L 333.267721 94.897278 
L 333.502737 96.466227 
L 333.741417 87.75213 
L 333.980504 91.103304 
L 334.226045 97.793774 
L 334.581092 83.474616 
L 335.022935 91.675093 
L 335.231468 91.179706 
L 335.709664 102.840199 
L 335.971918 99.112973 
L 336.184852 87.435183 
L 336.423478 86.632467 
L 336.663453 86.785199 
L 336.900926 93.920307 
L 337.317585 89.418104 
L 337.437428 86.00345 
L 337.736454 93.137629 
L 337.916816 90.272009 
L 338.161358 77.758712 
L 338.54477 97.656496 
L 338.658091 87.394364 
L 338.944233 90.381968 
L 338.991294 92.162986 
L 339.29103 77.502297 
L 339.410048 92.515546 
L 339.825811 90.734657 
L 339.945144 91.821793 
L 340.12328 90.308535 
L 340.421547 85.58131 
L 340.719728 100.337238 
L 340.898441 92.645254 
L 341.13678 89.835948 
L 341.375437 91.941009 
L 341.615004 86.597683 
L 341.917182 96.30326 
L 342.091832 96.591257 
L 342.390217 86.348659 
L 342.592547 89.202283 
L 342.865715 90.007004 
L 343.224194 100.852275 
L 343.364331 90.27172 
L 343.582206 90.27223 
L 343.819625 88.901734 
L 344.2367 91.239773 
L 344.355474 86.356043 
L 344.835051 94.360278 
L 345.073439 91.461909 
L 345.381281 93.177258 
L 345.609531 96.372136 
L 345.793405 83.177579 
L 346.084919 92.575379 
L 346.386542 92.489813 
L 346.623265 81.488563 
L 346.800697 96.034046 
L 347.046882 89.371581 
L 347.336523 86.755501 
L 347.633595 89.001653 
L 347.812551 92.206127 
L 348.051726 90.523826 
L 348.470912 88.858848 
L 348.531021 90.927155 
L 348.830156 90.631729 
L 349.025631 90.037069 
L 349.25029 96.418505 
L 349.603408 89.898364 
L 349.8421 90.185933 
L 350.139628 92.759665 
L 350.557034 74.138167 
L 350.855204 93.796579 
L 351.033535 92.531795 
L 351.272515 89.871813 
L 351.510253 77.081984 
L 351.86755 103.02781 
L 352.048182 88.457028 
L 352.34541 94.225931 
L 352.643325 88.76405 
L 352.763199 91.81011 
L 353.001631 101.705066 
L 353.358236 87.842992 
L 353.777296 89.349116 
L 354.192068 79.493064 
L 354.49016 96.852665 
L 354.729169 90.121955 
L 354.967142 91.492615 
L 355.26572 89.470065 
L 355.563366 90.271861 
L 355.691361 100.694158 
L 355.993376 90.324236 
L 356.230389 90.155212 
L 356.695564 101.560111 
L 357.11492 100.406287 
L 357.232346 87.121942 
L 357.414082 91.037834 
L 357.768024 89.37878 
L 358.067321 91.532215 
L 358.200121 94.800545 
L 358.619507 90.272021 
L 358.726755 95.932323 
L 358.964857 96.516475 
L 359.203431 88.709969 
L 359.448191 88.777482 
L 359.739861 90.461427 
L 359.918637 89.229827 
L 360.223373 93.373009 
L 360.464925 99.320236 
L 360.754514 79.386105 
L 360.876193 97.674774 
L 361.129106 91.471075 
L 361.415503 96.727016 
L 361.661674 89.819956 
L 361.887082 90.362957 
L 362.185637 92.541224 
L 362.424082 85.567563 
L 362.662654 89.54037 
L 362.950189 97.136972 
L 363.20353 77.471922 
L 363.423447 91.096132 
L 363.622003 88.668412 
L 363.916371 100.940526 
L 364.393153 90.676553 
L 364.630544 89.025794 
L 364.92917 92.100578 
L 365.107627 90.0624 
L 365.345698 92.03651 
L 365.643635 75.911035 
L 365.941582 89.432197 
L 366.120566 88.240849 
L 366.430486 100.624786 
L 366.661699 90.271836 
L 366.95586 90.271931 
L 367.137644 90.711916 
L 367.313284 92.131923 
L 367.613202 90.272083 
L 367.848153 95.903404 
L 368.164973 96.514172 
L 368.328014 87.757303 
L 368.629685 99.524794 
L 368.92628 90.218595 
L 369.113805 91.840148 
L 369.34484 90.972941 
L 369.529356 87.183243 
L 369.821758 87.685846 
L 370.240307 74.865322 
L 370.360723 94.195498 
L 370.778089 88.901729 
L 371.015218 91.195462 
L 371.312315 100.208048 
L 371.555098 92.052719 
L 371.789135 91.714984 
L 372.027824 89.510393 
L 372.325578 91.442028 
L 372.861574 98.428001 
L 373.397043 88.726733 
L 373.93445 101.306097 
L 373.993192 68.066983 
L 374.356468 88.478511 
L 374.64956 92.636705 
L 374.71244 91.55455 
L 375.080509 91.303211 
L 375.245909 89.168921 
L 375.486534 95.939819 
L 375.841426 89.35168 
L 376.021182 90.152534 
L 376.325316 95.426118 
L 376.501063 75.479457 
L 376.735908 88.560766 
L 377.275259 89.158607 
L 377.454122 102.848592 
L 377.691085 101.287879 
L 377.97089 88.165269 
L 378.467507 90.271954 
L 378.705786 90.101311 
L 379.003346 101.194451 
L 379.182787 89.991686 
L 379.541591 92.446021 
L 379.77876 83.607693 
L 379.957593 87.239561 
L 380.315476 88.640345 
L 380.43452 94.249558 
L 380.67377 93.596956 
L 380.971538 94.67948 
L 381.209422 89.704329 
L 381.566802 89.432531 
L 381.744983 91.174211 
L 382.170296 90.086132 
L 382.401177 85.613033 
L 382.640935 95.994304 
L 382.938268 87.858758 
L 383.116642 92.088969 
L 383.414778 89.486629 
L 383.653191 90.211004 
L 383.891272 98.746821 
L 384.130172 89.222523 
L 384.36784 87.519919 
L 385.141968 101.013072 
L 385.442062 90.719555 
L 385.737779 89.336605 
L 385.982328 81.971446 
L 386.154941 99.220284 
L 386.572481 89.981489 
L 386.633083 90.912967 
L 386.871953 91.679554 
L 387.288124 90.095117 
L 387.408358 103.108499 
L 387.704159 81.584248 
L 387.883735 91.17997 
L 388.12156 90.801076 
L 388.360572 100.333666 
L 388.83674 89.966328 
L 389.078696 88.46081 
L 389.373409 90.957664 
L 389.673069 90.161612 
L 389.731908 89.502428 
L 389.85151 90.271671 
L 390.209139 90.272492 
L 390.327434 95.542842 
L 390.566718 88.541659 
L 390.866233 74.881777 
L 391.578394 89.806615 
L 391.956832 89.9108 
L 392.061414 91.190212 
L 392.294363 84.440044 
L 392.534085 98.978842 
L 392.832412 92.97883 
L 393.014287 89.127983 
L 393.427847 100.398284 
L 393.65145 82.369788 
L 393.785792 88.684413 
L 394.023607 88.709853 
L 394.261973 89.599022 
L 394.507191 89.291665 
L 394.798172 88.400824 
L 395.156539 92.860529 
L 395.275553 99.014406 
L 395.574048 93.726548 
L 395.817442 92.287028 
L 396.050757 95.682988 
L 396.289007 91.885205 
L 396.468688 91.30472 
L 396.709418 89.054399 
L 397.006497 88.139756 
L 397.24286 89.215802 
L 397.480824 97.743388 
L 397.839129 90.04191 
L 398.01748 93.3243 
L 398.255879 91.220772 
L 398.493969 100.23658 
L 398.732782 90.103175 
L 399.032184 89.439059 
L 399.38968 92.757001 
L 399.629341 93.126316 
L 399.867123 78.67132 
L 399.986143 97.673462 
L 400.464749 87.655802 
L 400.710246 95.126806 
L 401.000306 97.611927 
L 401.240795 88.667469 
L 401.476641 87.513185 
L 401.775515 91.523565 
L 401.955105 89.015941 
L 402.253688 75.985051 
L 402.431344 96.424701 
L 402.669635 89.379796 
L 402.908526 90.413392 
L 403.206332 93.288586 
L 403.397622 79.921675 
L 403.633589 89.721987 
L 403.922551 92.019355 
L 404.402506 87.973203 
L 404.641312 93.991208 
L 404.947887 77.851985 
L 405.175669 91.045896 
L 405.385104 88.341009 
L 405.65268 86.822674 
L 405.894417 76.193708 
L 406.132636 88.994384 
L 406.426561 88.610218 
L 406.667313 92.974895 
L 406.963223 91.10554 
L 407.144113 73.468158 
L 407.380891 75.857604 
L 407.619993 92.058488 
L 407.860801 90.755998 
L 408.217822 95.031612 
L 408.398363 73.967893 
L 408.636507 90.072403 
L 408.917998 90.477522 
L 409.234688 88.070184 
L 409.470635 97.597056 
L 409.589722 78.083873 
L 409.829013 76.604858 
L 410.126347 91.97786 
L 410.42592 91.271627 
L 410.606015 86.965368 
L 410.844374 94.277533 
L 411.143152 90.494656 
L 411.320402 91.740859 
L 411.619643 91.369525 
L 411.857209 86.46961 
L 412.096215 101.526269 
L 412.512689 90.272032 
L 412.58546 92.056045 
L 412.87158 89.831264 
L 413.062343 85.314297 
L 413.456757 98.084714 
L 413.584819 86.387771 
L 413.81476 90.15057 
L 414.11483 91.870354 
L 414.472681 91.406247 
L 414.533583 100.44506 
L 414.830286 87.820775 
L 415.068038 88.138485 
L 415.309724 89.600984 
L 415.559664 90.272479 
L 415.96323 87.859277 
L 416.023198 88.732994 
L 416.321581 87.519699 
L 416.563927 90.586953 
L 416.805148 84.357913 
L 417.002271 94.360109 
L 417.276707 84.371421 
L 417.756951 91.051349 
L 418.054464 92.338595 
L 418.471725 89.987782 
L 418.530943 91.187325 
L 418.770431 86.395684 
L 419.126668 89.419314 
L 419.305279 97.520042 
L 419.487583 97.212499 
L 419.724077 99.032362 
L 419.962564 90.931384 
L 420.281437 90.207836 
L 420.501517 91.30826 
L 420.738015 82.083473 
L 420.975057 90.815065 
L 421.214128 89.605192 
L 421.512226 90.852944 
L 421.693249 88.521991 
L 422.225812 86.13058 
L 422.234324 183.186542 
L 422.468961 88.865591 
L 422.825214 99.693545 
L 423.004989 95.92105 
L 423.252127 95.552634 
L 423.484338 89.014854 
L 423.840978 88.781551 
L 423.960579 96.646188 
L 424.145321 89.124678 
L 424.43705 87.058694 
L 424.675708 90.271487 
L 424.915208 89.548728 
L 425.155055 87.257819 
L 425.574673 74.84763 
L 425.629286 100.584601 
L 425.988437 90.771061 
L 426.172027 91.616641 
L 426.40654 90.17774 
L 426.64547 89.921726 
L 427.065099 90.49939 
L 427.190077 95.403552 
L 427.445399 89.165005 
L 427.659166 99.639005 
L 427.90644 98.369286 
L 427.958088 86.814419 
L 428.19698 82.008079 
L 428.436409 90.304838 
L 428.619145 87.003947 
L 428.8559 90.833298 
L 429.151322 90.405488 
L 429.628082 73.521956 
L 430.10485 102.613532 
L 430.344322 103.651498 
L 430.903823 89.962789 
L 431.121983 89.426514 
L 431.357652 36.945328 
L 431.597523 32.643368 
L 431.843497 52.464476 
L 432.095657 60.950164 
L 432.328044 62.960452 
L 432.561897 63.292669 
L 432.821237 78.558168 
L 433.594031 90.493488 
L 433.87843 87.223809 
L 434.121676 91.656906 
L 434.414608 91.726588 
L 434.534949 97.005709 
L 434.776173 94.562635 
L 435.198864 101.11722 
L 435.318081 90.472512 
L 435.54992 91.177846 
L 435.793016 93.462951 
L 436.163582 85.638578 
L 436.324342 88.729633 
L 436.627299 87.786085 
L 436.862153 90.035288 
L 437.100266 94.728529 
L 437.400723 83.054633 
L 437.640155 100.322243 
L 438.242412 78.613792 
L 438.507695 87.594417 
L 438.778576 84.641885 
L 439.093849 91.229381 
L 439.259491 104.321811 
L 439.609454 92.138897 
L 439.813723 96.47288 
L 440.027646 88.675252 
L 440.326857 92.314706 
L 440.505242 87.273401 
L 440.743769 86.15873 
L 440.985603 87.785876 
L 441.360449 96.829145 
L 441.460589 94.446463 
L 441.817555 90.536547 
L 441.996582 86.69917 
L 442.476381 97.377859 
L 442.882088 86.169808 
L 443.119643 87.66696 
L 443.306995 83.925905 
L 443.537398 107.006111 
L 443.835364 84.13105 
L 444.193965 88.373877 
L 444.670741 98.638671 
L 445.029606 81.511216 
L 445.21114 85.37749 
L 445.566243 96.244747 
L 445.69185 76.936565 
L 446.223006 93.248397 
L 446.46149 88.995224 
L 446.703529 95.518577 
L 446.93948 93.235695 
L 447.182432 88.104471 
L 447.4174 90.709184 
L 447.656135 99.355579 
L 447.904892 88.2146 
L 448.138367 95.450179 
L 448.437338 86.843172 
L 448.625267 91.035552 
L 449.152725 89.301358 
L 449.392189 97.869185 
L 449.808343 87.94538 
L 449.89612 90.841118 
L 450.16705 84.685219 
L 450.46407 84.577495 
L 450.761942 91.954059 
L 450.94209 87.646063 
L 451.180519 99.09597 
L 451.425902 89.663558 
L 451.658653 90.278651 
L 452.077357 83.415673 
L 452.326715 95.152575 
L 452.613173 86.679806 
L 452.864845 89.034892 
L 453.098099 99.364706 
L 453.469682 90.522541 
L 453.632802 99.171815 
L 453.809319 85.035861 
L 454.134366 82.896799 
L 454.345201 99.899865 
L 454.765606 90.642368 
L 454.847127 93.448724 
L 455.071869 86.116041 
L 455.300727 92.853112 
L 455.539853 93.108358 
L 455.961335 88.153448 
L 456.150748 81.376491 
L 456.566905 101.053762 
L 456.984034 91.019759 
L 457.044693 95.632518 
L 457.700957 87.20862 
L 457.762486 88.452401 
L 458.176246 100.519107 
L 458.295734 83.672681 
L 458.535771 93.341191 
L 458.772737 88.930927 
L 459.18988 93.654651 
L 459.309275 89.59569 
L 459.548312 92.584493 
L 459.792529 92.278753 
L 459.846799 88.556461 
L 460.026983 94.273617 
L 460.264394 107.822837 
L 460.505547 87.630522 
L 460.801349 85.794208 
L 460.981197 90.536079 
L 461.300883 90.479904 
L 461.461133 85.279481 
L 461.759676 102.133172 
L 461.997667 87.960658 
L 462.240011 93.416954 
L 462.535859 85.455751 
L 462.954361 95.952945 
L 463.252644 88.141573 
L 463.439137 93.496163 
L 463.848593 94.516698 
L 463.995751 88.865062 
L 464.210024 89.495954 
L 464.468285 91.559611 
L 464.68398 90.75627 
L 464.923343 85.468351 
L 465.170704 89.231786 
L 465.469677 97.72221 
L 465.710789 89.429676 
L 466.009353 87.412384 
L 466.483619 91.0366 
L 466.663185 85.496723 
L 466.961408 90.18258 
L 467.199234 88.424279 
L 467.597038 91.710558 
L 467.744427 87.237172 
L 467.921045 100.785201 
L 468.454257 86.411667 
L 468.761166 92.79092 
L 468.931187 85.953045 
L 469.179483 89.129878 
L 469.542461 86.718133 
L 469.64942 83.010858 
L 469.893371 82.275352 
L 470.128335 94.370782 
L 470.435389 95.743892 
L 470.683137 91.391133 
L 470.906718 93.943897 
L 471.143739 92.031823 
L 471.389817 97.055132 
L 471.865224 86.547668 
L 472.16172 85.817213 
L 472.456786 89.772121 
L 472.636186 85.712136 
L 473.054076 94.543306 
L 473.400235 89.124454 
L 473.868197 91.899875 
L 474.170263 81.089805 
L 474.354868 97.322847 
L 474.645427 95.96992 
L 474.949827 89.417813 
L 475.125654 99.178797 
L 475.601585 87.775229 
L 476.079329 99.826343 
L 476.317061 99.297376 
L 476.555932 87.252874 
L 476.795462 102.756381 
L 477.212458 98.126707 
L 477.361592 80.860255 
L 477.749946 95.754864 
L 477.868828 86.982583 
L 478.107403 95.668438 
L 478.345862 86.260522 
L 478.643526 95.509905 
L 478.775738 89.879088 
L 479.035221 87.42621 
L 479.305237 99.408648 
L 479.600228 94.088139 
L 479.798874 96.765657 
L 480.01865 95.79222 
L 480.259337 82.314303 
L 480.639147 87.73515 
L 480.797255 85.296873 
L 481.032858 99.570955 
L 481.30086 90.125431 
L 481.594462 90.583701 
L 481.817167 89.494512 
L 482.112202 96.664083 
L 482.54011 83.883929 
L 482.796157 95.818103 
L 483.087039 89.110471 
L 483.208624 99.454379 
L 483.500877 89.468894 
L 483.799178 85.689287 
L 484.097273 90.944985 
L 484.216787 86.421972 
L 484.514676 91.778224 
L 484.761105 104.247533 
L 485.230884 86.907116 
L 485.470722 84.99264 
L 485.76882 89.029644 
L 486.007356 94.296744 
L 486.247979 94.0122 
L 486.483328 91.06469 
L 486.721699 94.073273 
L 486.961225 89.243491 
L 487.206514 90.478064 
L 487.440359 90.590932 
L 487.677248 89.204201 
L 488.037454 94.14879 
L 488.214516 99.795865 
L 488.455338 89.248765 
L 488.751713 95.005789 
L 489.288177 88.812143 
L 489.540319 87.47159 
L 489.706772 88.822693 
L 490.005091 87.382889 
L 490.242896 92.215103 
L 490.683853 87.816062 
L 490.899752 88.064531 
L 491.201618 89.642135 
L 491.494573 82.962752 
L 491.741352 92.185872 
L 491.913287 92.652181 
L 492.154206 87.575399 
L 492.390345 92.910689 
L 492.705805 86.361704 
L 492.884784 87.868733 
L 493.122928 82.875954 
L 493.601015 81.969598 
L 493.66099 90.561621 
L 493.95881 82.423418 
L 494.141209 87.983876 
L 494.380638 90.603224 
L 494.614303 90.60008 
L 494.912142 94.267787 
L 495.092642 100.99139 
L 495.391562 90.962225 
L 495.688062 92.297298 
L 495.866611 89.332384 
L 496.169394 91.6069 
L 496.407336 87.017764 
L 496.644163 100.754108 
L 497.122047 90.471639 
L 497.32743 94.82304 
L 497.602808 92.726526 
L 497.947291 86.482746 
L 498.384535 94.914324 
L 498.621652 92.595287 
L 498.860584 100.314021 
L 499.337413 87.944812 
L 499.576371 92.772953 
L 499.817608 94.006695 
L 500.113488 99.72025 
L 500.293182 88.913874 
L 500.609204 90.396201 
L 500.650281 85.663929 
L 500.829084 82.433073 
L 501.130331 99.965795 
L 501.425955 88.42307 
L 501.604394 88.258103 
L 502.085048 93.523485 
L 502.142852 99.847818 
L 502.321119 91.990428 
L 502.565805 88.67533 
L 503.051282 90.621665 
L 503.27591 86.967693 
L 503.515493 96.658562 
L 503.872555 95.712405 
L 504.051407 86.34404 
L 504.229888 93.725993 
L 504.650095 85.2837 
L 504.707569 96.113112 
L 505.069486 93.907681 
L 505.311707 97.209937 
L 505.547959 91.722563 
L 505.78225 91.457953 
L 506.020268 90.515203 
L 506.266043 84.479037 
L 506.569872 95.100344 
L 506.746757 89.748851 
L 506.993307 89.88981 
L 507.231373 85.980293 
L 507.475334 92.491638 
L 507.708032 91.298759 
L 508.005894 98.914304 
L 508.190358 86.787818 
L 508.485193 100.884853 
L 508.787092 79.099369 
L 509.01986 101.24304 
L 509.275368 102.895635 
L 509.498512 81.527746 
L 509.921977 93.641604 
L 509.97473 88.62573 
L 510.21317 95.049017 
L 510.631246 89.267893 
L 510.691646 90.084656 
L 510.932276 87.540667 
L 511.427141 93.335674 
L 511.731757 90.19616 
L 511.94593 96.609265 
L 512.202575 90.183133 
L 512.42372 91.723101 
L 512.662927 98.192744 
L 512.902669 80.474712 
L 513.214663 99.668241 
L 513.619081 82.581863 
L 513.68035 91.008755 
L 513.915563 84.724696 
L 514.39837 92.420658 
L 514.571539 92.449288 
L 514.703169 85.70993 
L 514.890518 91.497678 
L 515.247869 82.980261 
L 515.468485 88.953281 
L 515.690172 88.387919 
L 515.918439 94.096627 
L 516.15758 94.380291 
L 516.400242 98.685675 
L 516.762513 83.733977 
L 516.922212 90.645007 
L 517.159528 87.758281 
L 517.51651 87.099981 
L 517.702683 93.09285 
L 517.878201 85.655285 
L 518.173168 83.176341 
L 518.480489 91.274432 
L 518.653123 91.957868 
L 518.951708 84.565188 
L 519.130101 91.282913 
L 519.388449 92.620775 
L 519.725267 89.552694 
L 519.86004 96.246729 
L 520.141772 101.791118 
L 520.439599 128.300859 
L 520.621899 113.831349 
L 520.859464 126.642133 
L 521.115203 112.726728 
L 521.39507 117.973756 
L 521.637701 109.086903 
L 521.87368 104.728107 
L 522.117242 110.661513 
L 522.363738 96.00276 
L 522.827932 86.896126 
L 523.266623 86.7539 
L 523.497826 89.434364 
L 523.843711 86.695077 
L 524.131034 89.5177 
L 524.380779 89.449865 
L 524.857058 91.63252 
L 524.9168 90.981079 
L 525.275559 90.690175 
L 525.403427 91.654635 
L 525.814188 90.68014 
L 526.316015 90.297516 
L 526.428741 90.496895 
L 526.596989 90.291671 
L 527.911085 90.265181 
L 528.28225 90.06858 
L 528.686391 90.20853 
L 528.92995 89.873013 
L 529.284939 90.295877 
L 536.526316 90.259936 
L 541.907515 90.265181 
L 596.502813 90.265181 
L 596.502813 90.265181 
" clip-path="url(#p4975b30c60)" style="fill: none; stroke: #0000ff; stroke-opacity: 0.5; stroke-width: 1.5; stroke-linecap: square"/>
   </g>
   <g id="line2d_28">
    <path d="M 38.502813 114.017194 
L 38.622916 110.664285 
L 38.865804 111.352575 
L 38.937 113.656297 
L 39.111017 111.543163 
L 39.417061 112.130974 
L 39.885883 111.929498 
L 40.302791 113.399169 
L 40.541846 112.631234 
L 40.601545 113.382453 
L 41.018884 113.964658 
L 41.257159 113.954636 
L 41.559198 114.842112 
L 42.033407 115.48251 
L 42.091503 115.302033 
L 42.329583 114.968637 
L 42.628872 113.82824 
L 42.928055 114.485202 
L 43.164095 113.091682 
L 43.581899 114.924166 
L 43.819883 112.866935 
L 44.060446 113.874162 
L 44.300935 113.103535 
L 44.599353 114.656809 
L 44.834047 112.909791 
L 45.371049 113.788144 
L 45.669985 115.198134 
L 45.857012 113.504927 
L 46.328887 112.976485 
L 46.567049 113.715105 
L 46.805772 114.052337 
L 47.224756 112.190378 
L 47.405507 113.69647 
L 47.521373 113.399759 
L 47.766181 114.614989 
L 48.003493 113.107757 
L 48.536913 113.767866 
L 49.14069 113.654775 
L 50.441813 113.977699 
L 53.050949 113.175831 
L 55.661121 113.087665 
L 57.085405 113.533123 
L 58.50861 112.930547 
L 59.813793 113.146772 
L 59.954398 114.231036 
L 60.669155 111.579847 
L 60.966191 114.112783 
L 61.265892 115.076786 
L 61.445302 113.516817 
L 61.681905 115.196137 
L 61.866132 114.138482 
L 62.104406 111.832975 
L 62.404 114.247555 
L 62.638974 114.65074 
L 62.936269 113.440947 
L 63.11617 114.290266 
L 63.356366 114.331718 
L 63.652931 112.134962 
L 64.130974 113.851983 
L 64.426649 113.449742 
L 64.72558 114.428415 
L 64.844761 113.219468 
L 65.083776 112.895073 
L 65.323835 116.048325 
L 65.636208 116.280355 
L 65.860257 114.26687 
L 66.108513 115.688921 
L 66.396826 114.757595 
L 66.578194 113.173459 
L 66.934528 116.452025 
L 67.112748 115.38689 
L 67.414376 114.472768 
L 67.588886 114.856795 
L 67.829178 113.040592 
L 68.125305 112.157147 
L 68.602529 115.016683 
L 68.783671 117.062871 
L 69.019997 115.628462 
L 69.32384 112.325452 
L 69.616891 113.421345 
L 69.855516 115.372459 
L 70.095651 113.752028 
L 70.338534 113.627328 
L 70.523348 116.630745 
L 70.817845 115.737087 
L 71.292681 112.339435 
L 71.413207 112.400368 
L 71.829525 114.318997 
L 72.070236 115.2471 
L 72.364771 114.048173 
L 72.604817 113.789518 
L 72.782636 114.877105 
L 73.259107 113.277789 
L 73.442011 111.979136 
L 73.737273 113.029607 
L 73.796233 113.699844 
L 74.034856 114.350837 
L 74.512377 111.641791 
L 74.809776 112.565081 
L 75.10756 112.848603 
L 75.350039 112.652144 
L 75.716732 115.678357 
L 75.763801 115.226071 
L 76.00305 115.22125 
L 76.299771 114.930338 
L 76.479259 114.006367 
L 76.779836 116.346447 
L 77.014868 116.954401 
L 77.211656 115.138113 
L 77.492991 115.890921 
L 77.731123 116.035862 
L 78.208334 112.605519 
L 78.445703 114.094712 
L 78.984279 114.942035 
L 79.221395 112.928475 
L 79.46119 112.986906 
L 79.699016 113.29649 
L 79.9365 112.202515 
L 80.296129 111.626528 
L 80.712316 116.322267 
L 81.192765 112.041436 
L 81.785318 113.510333 
L 81.913099 111.725694 
L 82.441028 116.797457 
L 82.620686 115.515655 
L 82.859406 111.753923 
L 83.215747 111.234719 
L 83.394399 113.686835 
L 83.632494 113.397914 
L 83.872614 111.133342 
L 84.109856 112.401794 
L 84.411018 115.035582 
L 84.706152 114.265495 
L 84.884266 111.519956 
L 85.123897 110.868864 
L 85.361288 112.762193 
L 85.600003 113.296255 
L 85.838773 113.440325 
L 86.207889 113.971046 
L 86.434523 114.053995 
L 86.732011 112.477088 
L 86.893125 110.594451 
L 87.090643 112.018767 
L 87.329041 115.048877 
L 87.627622 116.186608 
L 88.103508 112.31157 
L 88.40325 112.031097 
L 88.586765 113.368311 
L 89.00022 114.364274 
L 89.118231 115.148292 
L 89.536432 116.833924 
L 89.908761 116.854613 
L 90.081212 114.377368 
L 90.548537 114.46957 
L 90.668047 115.567691 
L 90.905672 116.104922 
L 91.144508 115.765245 
L 91.263784 115.306781 
L 91.681363 114.922511 
L 91.801828 114.252238 
L 92.038568 114.37488 
L 92.514883 115.007795 
L 92.754169 114.486722 
L 93.289814 110.811572 
L 93.489754 110.702599 
L 93.826284 112.023389 
L 94.004867 112.22771 
L 94.541287 108.259378 
L 94.842115 109.751656 
L 95.019457 112.951635 
L 95.257497 114.752207 
L 95.498953 115.072174 
L 95.89183 114.679868 
L 96.064357 114.925619 
L 96.454062 114.3867 
L 96.573099 113.656217 
L 96.628852 114.173952 
L 96.69475 116.447289 
L 96.989749 117.937059 
L 97.286052 115.795431 
L 97.48986 112.010815 
L 97.779913 111.084352 
L 98.202731 116.138554 
L 98.47895 115.208649 
L 98.717529 113.497786 
L 99.025598 114.702732 
L 99.325453 115.065809 
L 99.795665 111.246617 
L 100.391 113.340425 
L 100.526244 115.306835 
L 101.868401 112.808949 
L 103.165642 113.433161 
L 104.594361 113.225483 
L 104.673559 117.344898 
L 105.09155 112.748303 
L 105.454112 111.629514 
L 105.687883 111.314361 
L 106.305417 113.808545 
L 107.089968 105.53078 
L 107.387998 106.034372 
L 107.688168 108.473673 
L 108.164534 116.035234 
L 108.347806 117.44207 
L 108.640473 116.542991 
L 109.117895 113.543346 
L 109.477366 115.271415 
L 109.596272 118.091438 
L 109.892792 119.016882 
L 110.192261 117.287923 
L 110.795086 108.341704 
L 111.052094 108.808438 
L 111.29097 111.853811 
L 111.577019 113.268078 
L 112.049728 109.516828 
L 112.289519 110.107715 
L 112.792567 113.796938 
L 113.325136 114.854575 
L 113.541144 113.369423 
L 113.788285 113.033549 
L 114.093357 115.413997 
L 114.33146 118.317519 
L 114.540544 118.458871 
L 114.883064 116.070129 
L 115.036051 113.60482 
L 115.313819 114.238539 
L 115.937099 116.315969 
L 116.002065 117.074878 
L 116.216076 115.322145 
L 116.30385 112.965584 
L 116.475791 111.731992 
L 116.782905 111.983651 
L 117.130896 111.938348 
L 117.249404 111.565583 
L 117.487743 112.099126 
L 117.726095 112.33485 
L 118.024139 111.934639 
L 118.450471 112.666098 
L 118.928024 114.959955 
L 119.289499 114.167729 
L 119.523478 112.705145 
L 119.821194 114.277958 
L 119.945178 116.629543 
L 120.298612 115.581029 
L 120.606507 113.348487 
L 120.715903 114.087463 
L 120.9231 116.996068 
L 121.194101 118.214164 
L 121.671188 112.135079 
L 121.912267 112.618281 
L 122.149815 113.485651 
L 122.624796 113.282373 
L 122.690525 114.5289 
L 122.935962 115.429456 
L 123.160922 114.114142 
L 123.69748 109.831891 
L 124.174029 114.997022 
L 124.949134 114.304501 
L 125.13009 112.498254 
L 125.427231 110.973297 
L 125.665306 110.750219 
L 125.857602 112.72273 
L 126.147722 114.378722 
L 126.627668 112.989977 
L 127.101098 113.722288 
L 127.397474 113.651663 
L 127.755155 113.122188 
L 128.11266 114.927575 
L 128.470607 115.516142 
L 128.590202 115.320143 
L 128.828251 115.357966 
L 129.127471 114.872015 
L 129.721296 115.248266 
L 130.080965 116.402255 
L 130.318908 115.849602 
L 131.094146 112.57014 
L 131.390373 112.920238 
L 131.570561 113.339761 
L 132.288655 111.5054 
L 132.530023 111.833543 
L 132.778446 112.427141 
L 133.080422 114.178512 
L 133.269134 116.587366 
L 133.599891 116.06513 
L 133.781243 113.239914 
L 134.048442 113.307453 
L 134.27389 115.950426 
L 134.511673 115.714246 
L 134.752536 113.042082 
L 134.988169 112.39582 
L 135.524563 115.622656 
L 136.061597 111.141208 
L 136.299914 111.111513 
L 136.537647 112.538108 
L 137.144696 110.533452 
L 137.371933 111.611429 
L 137.496099 113.198738 
L 137.729921 113.96828 
L 138.031643 112.655766 
L 138.237846 111.154435 
L 138.462756 111.462894 
L 138.821519 113.376411 
L 139.04073 113.615457 
L 139.996454 112.005308 
L 140.23413 112.509204 
L 140.475957 114.615111 
L 140.727123 117.953088 
L 141.011902 120.155668 
L 141.192054 118.647848 
L 141.74323 115.121453 
L 142.220316 119.374654 
L 142.460347 119.907609 
L 142.698106 117.318519 
L 143.173957 111.035675 
L 143.471179 111.435093 
L 143.657606 114.39101 
L 144.128735 117.690455 
L 144.365665 117.958928 
L 144.426045 115.654382 
L 144.665021 113.839212 
L 144.902659 113.487505 
L 145.379375 117.060067 
L 145.679051 117.283544 
L 146.042843 114.878061 
L 146.15371 112.098967 
L 146.451965 111.6249 
L 146.696415 114.140402 
L 146.884804 117.447349 
L 147.11376 117.463477 
L 147.644895 113.750991 
L 148.299554 115.288105 
L 148.41882 116.476112 
L 149.076012 114.663113 
L 149.373331 114.660132 
L 150.029772 116.139342 
L 150.089694 114.873969 
L 150.565971 110.769158 
L 150.92311 112.008258 
L 151.353883 113.06429 
L 151.876006 109.476761 
L 152.351803 114.023912 
L 152.532825 117.096373 
L 152.888581 119.628498 
L 153.188565 118.624538 
L 153.309231 115.845386 
L 153.54568 115.535391 
L 154.082528 119.268455 
L 154.797409 112.130069 
L 155.03402 112.144352 
L 155.333455 113.80938 
L 155.572779 116.555216 
L 155.93189 119.10218 
L 156.054561 119.036936 
L 156.288871 116.141745 
L 156.59785 114.412803 
L 157.244922 118.668287 
L 157.482632 117.180716 
L 158.075811 111.2644 
L 158.493969 109.133771 
L 159.028959 115.967336 
L 159.268997 116.395299 
L 159.984424 108.766053 
L 160.222772 109.489583 
L 160.639178 112.363405 
L 160.761288 114.141079 
L 161.002186 112.338253 
L 161.236001 109.21148 
L 161.473201 107.592711 
L 161.716034 108.552941 
L 162.430118 118.988212 
L 162.728429 118.124273 
L 163.21208 113.454407 
L 163.682554 118.464775 
L 163.922713 118.409685 
L 164.397251 113.698038 
L 164.755999 113.287463 
L 164.99298 113.893827 
L 165.410163 116.897095 
L 165.64954 117.094476 
L 166.126682 113.329799 
L 166.482576 114.451562 
L 166.661225 115.778853 
L 166.89949 114.997309 
L 167.436563 111.92964 
L 167.735563 113.061796 
L 167.91455 114.684055 
L 168.391427 115.416759 
L 168.63296 115.04142 
L 168.867709 115.219647 
L 169.165479 114.910699 
L 169.529336 114.166039 
L 169.881582 112.384192 
L 170.203109 112.037784 
L 170.598518 113.735419 
L 170.837969 113.629938 
L 171.25828 112.582475 
L 171.432118 111.776347 
L 172.146868 113.521277 
L 172.569875 114.261323 
L 172.835447 113.065191 
L 173.106348 111.301804 
L 173.339268 111.557002 
L 173.707388 113.633755 
L 174.158309 111.292081 
L 174.177757 111.290435 
L 174.535783 116.350277 
L 174.91395 116.844951 
L 175.073934 113.985275 
L 175.310543 111.767128 
L 175.54851 112.751816 
L 175.787124 115.015637 
L 176.085682 114.342045 
L 176.323655 113.262592 
L 176.579702 115.171917 
L 176.922167 115.86951 
L 177.049623 113.308352 
L 177.336715 110.331368 
L 177.648399 109.90039 
L 177.755713 112.049707 
L 178.11115 113.955389 
L 178.352257 113.520773 
L 178.528778 112.480997 
L 179.02236 111.607164 
L 179.243954 109.319576 
L 179.542117 111.131931 
L 180.199819 118.406426 
L 180.334683 117.792364 
L 180.554724 114.50992 
L 180.764952 113.454669 
L 181.237254 116.65186 
L 181.716775 116.095878 
L 181.952198 116.388736 
L 182.311857 116.177947 
L 182.856642 113.871835 
L 182.972183 113.993918 
L 184.008236 114.666817 
L 184.480842 112.468647 
L 184.866663 112.509043 
L 184.96201 114.080179 
L 185.456212 117.36582 
L 185.79372 115.865962 
L 185.914024 113.130978 
L 186.210739 113.354853 
L 186.450096 115.186254 
L 186.688066 115.608168 
L 187.183426 111.340412 
L 187.521698 111.015033 
L 187.93929 111.144093 
L 188.237062 111.215396 
L 188.475599 111.460926 
L 188.65442 111.811838 
L 189.608368 112.373756 
L 189.845677 111.412927 
L 189.964926 109.758602 
L 190.203386 109.906952 
L 190.679785 116.035096 
L 190.869436 116.971976 
L 191.396627 113.237254 
L 191.946866 117.585229 
L 192.117173 119.374838 
L 192.356479 118.7589 
L 193.072666 111.526583 
L 193.608741 116.372649 
L 193.905827 116.041648 
L 194.087116 113.677709 
L 194.441225 113.368083 
L 194.621423 113.497418 
L 194.919455 112.985004 
L 195.159734 113.588821 
L 195.574242 117.591385 
L 196.050762 113.119583 
L 196.348274 115.189736 
L 196.532194 115.68014 
L 196.824916 113.497978 
L 197.066503 113.402993 
L 197.302744 116.530462 
L 197.540668 117.433428 
L 198.021222 112.16046 
L 198.278285 113.950072 
L 198.614978 114.344505 
L 198.857745 112.493794 
L 199.328922 117.60269 
L 199.627167 116.466929 
L 199.755281 112.488304 
L 200.037406 111.975115 
L 200.288499 114.602968 
L 200.523074 114.83436 
L 200.76342 112.067511 
L 201.023906 113.167237 
L 201.252764 116.269222 
L 201.602062 116.767245 
L 202.020372 112.741923 
L 202.258451 113.269665 
L 202.734673 114.891201 
L 203.271444 114.825457 
L 203.986273 113.273446 
L 204.347506 113.387997 
L 204.462725 113.652874 
L 204.819721 112.857524 
L 205.180009 110.400297 
L 205.475165 111.568065 
L 205.723048 114.545606 
L 206.192034 114.946284 
L 206.452348 111.021015 
L 206.78839 112.598283 
L 207.266495 118.799394 
L 207.443269 118.788981 
L 207.922916 115.22727 
L 208.578156 113.826502 
L 209.172823 115.990424 
L 209.600943 115.638815 
L 209.950317 113.485872 
L 210.425683 116.934224 
L 210.663532 116.430867 
L 210.903374 116.236 
L 211.140394 115.730051 
L 211.378598 114.401766 
L 211.677486 113.526495 
L 212.333313 117.598992 
L 212.393738 120.010652 
L 212.631154 120.098783 
L 213.168289 115.352505 
L 213.405839 114.914791 
L 213.824739 117.708715 
L 214.121064 117.27184 
L 215.076049 107.965404 
L 215.37507 109.379048 
L 215.554742 112.938813 
L 215.851328 116.278288 
L 216.089667 117.422931 
L 216.389104 115.572711 
L 216.58001 112.436567 
L 216.811423 110.936364 
L 217.102957 112.352086 
L 217.877773 118.989866 
L 218.056338 118.241837 
L 218.294893 115.864526 
L 218.776973 113.416065 
L 219.266031 114.26305 
L 219.30768 115.153974 
L 219.551399 114.951615 
L 220.04435 111.500208 
L 220.32987 111.460457 
L 220.62314 112.502514 
L 220.8622 114.182101 
L 221.162767 114.259301 
L 221.338171 113.405329 
L 221.515496 113.246783 
L 221.99322 114.032737 
L 222.055181 115.68263 
L 222.530269 118.197 
L 222.771536 117.166856 
L 223.248476 111.64909 
L 223.554257 110.960716 
L 223.732051 112.239825 
L 224.048213 112.925709 
L 224.738977 109.132527 
L 224.976617 108.710674 
L 225.274355 108.849466 
L 225.513956 109.459501 
L 225.75103 108.798405 
L 226.226817 105.691459 
L 226.525541 105.641025 
L 226.707352 106.820348 
L 227.004147 106.433498 
L 227.422827 104.079621 
L 227.717393 101.630472 
L 227.956897 100.040141 
L 228.194151 100.28239 
L 229.211707 109.132339 
L 229.507621 110.490941 
L 229.86666 110.206106 
L 231.242363 100.415363 
L 231.630147 99.540552 
L 231.663719 99.003761 
L 232.136825 98.407928 
L 232.316057 98.562342 
L 232.434509 99.804865 
L 232.915984 101.608361 
L 233.208451 103.894917 
L 233.387885 106.201162 
L 233.626662 107.806195 
L 233.864567 108.051462 
L 234.163673 107.396817 
L 234.638675 101.975192 
L 235.11598 96.425096 
L 235.432665 94.081939 
L 235.72695 93.239769 
L 235.906757 93.21487 
L 236.084479 93.55586 
L 236.384217 93.136049 
L 236.621287 92.405986 
L 236.919839 93.364134 
L 237.395703 93.956881 
L 237.695023 93.327264 
L 237.874902 93.918615 
L 238.290534 93.213848 
L 238.35076 92.246639 
L 238.589264 90.533404 
L 238.828455 89.997378 
L 239.305311 92.953261 
L 239.549082 96.208957 
L 239.840779 98.17518 
L 240.023237 101.38249 
L 240.317181 101.86613 
L 240.614551 101.745377 
L 240.793797 100.903887 
L 241.389884 97.064256 
L 241.569338 94.204602 
L 241.806632 92.482079 
L 242.044896 89.581429 
L 242.641746 85.912044 
L 242.939843 85.270159 
L 243.41606 87.033152 
L 243.539421 91.119789 
L 244.253567 97.497962 
L 244.531837 98.153945 
L 244.760099 97.866771 
L 244.998784 96.805405 
L 245.503869 93.659075 
L 245.741822 90.487554 
L 246.202726 86.487002 
L 246.460816 81.678871 
L 246.754794 80.951595 
L 246.994239 79.87806 
L 247.469526 79.876327 
L 248.125328 84.046923 
L 248.363697 87.796367 
L 248.543255 92.921953 
L 248.848689 93.738828 
L 249.020847 92.762224 
L 249.218981 88.911996 
L 249.91722 79.527979 
L 250.176782 79.691989 
L 250.454559 78.75476 
L 250.69308 78.852594 
L 250.990238 76.219264 
L 251.171156 76.088263 
L 251.466717 76.826911 
L 252.004037 81.01209 
L 252.243865 83.29823 
L 252.425758 87.213945 
L 252.66071 87.967145 
L 253.137428 91.072948 
L 253.437262 90.548074 
L 253.732822 87.070751 
L 254.151034 80.048562 
L 254.866171 70.084901 
L 255.283195 67.093754 
L 255.879236 60.52279 
L 256.118256 63.374534 
L 256.596713 72.136414 
L 257.013573 76.922356 
L 257.134596 80.10575 
L 257.61066 85.786201 
L 257.848051 87.220536 
L 258.20509 85.476155 
L 258.577231 82.304768 
L 258.859825 81.118943 
L 259.158214 82.060895 
L 259.487917 81.699433 
L 260.173233 85.686449 
L 260.294447 88.155826 
L 260.591149 90.900658 
L 260.949329 92.46168 
L 261.322962 90.107278 
L 261.490067 87.151552 
L 261.602805 82.107062 
L 261.975746 79.26706 
L 262.086563 76.725741 
L 263.330837 70.718817 
L 263.7477 73.209704 
L 264.105397 82.555944 
L 264.285849 84.752443 
L 264.643203 85.498777 
L 264.881961 83.431493 
L 265.299527 76.7462 
L 265.714773 73.959971 
L 265.955612 74.999362 
L 266.191948 74.686791 
L 266.252174 74.853592 
L 266.48981 73.564246 
L 266.788459 73.507848 
L 267.324829 72.061895 
L 267.563622 73.175237 
L 268.099501 79.828452 
L 268.532791 81.764371 
L 269.017167 77.621051 
L 269.233644 73.796229 
L 269.530633 70.536055 
L 270.245132 67.218114 
L 270.661966 66.880207 
L 270.723 68.042976 
L 270.960397 67.529378 
L 271.318588 67.421175 
L 271.735812 69.690837 
L 272.454512 74.114639 
L 272.927961 72.699237 
L 273.643316 69.403351 
L 273.969451 68.07694 
L 274.219372 68.044854 
L 274.845561 66.762621 
L 275.037647 64.264794 
L 275.313574 63.496762 
L 275.437851 62.346869 
L 275.791628 63.290573 
L 275.91339 65.993221 
L 276.393789 71.072423 
L 276.812326 71.399454 
L 277.049078 72.075035 
L 277.162083 71.316787 
L 277.590469 71.936827 
L 277.939041 71.360629 
L 278.12053 68.519914 
L 278.624491 64.034092 
L 278.955747 62.968413 
L 279.431173 67.545261 
L 279.612332 71.739887 
L 280.086959 74.892855 
L 280.384925 73.94742 
L 281.1601 67.336515 
L 281.457142 66.450663 
L 281.594071 64.834527 
L 282.056615 63.622639 
L 282.113657 64.086666 
L 282.351481 63.354531 
L 282.533731 64.85293 
L 283.306338 76.034588 
L 283.66432 76.297303 
L 284.088847 75.263528 
L 284.319934 73.509622 
L 284.563335 73.707459 
L 285.034625 75.195318 
L 286.048783 64.832468 
L 286.292195 65.889066 
L 287.007247 72.190844 
L 287.262421 71.570887 
L 287.900764 66.161023 
L 288.259375 70.737673 
L 288.497522 75.593335 
L 288.736219 76.30091 
L 289.035046 73.7812 
L 289.455069 64.450406 
L 289.811148 61.927608 
L 290.227704 62.44691 
L 290.465879 67.469791 
L 290.948755 68.868884 
L 291.225488 68.875473 
L 291.495528 69.403964 
L 291.679836 71.636649 
L 292.13465 73.998804 
L 292.194976 73.966172 
L 292.730948 71.025045 
L 292.969282 71.004115 
L 293.207555 69.417104 
L 293.689059 67.854523 
L 294.221147 65.136323 
L 294.466574 65.163124 
L 294.878318 69.438074 
L 295.4127 76.630669 
L 295.717231 77.618953 
L 295.948103 76.491687 
L 296.426372 72.555317 
L 296.607631 71.830182 
L 296.961851 73.260077 
L 297.152314 75.076334 
L 297.438974 76.125946 
L 297.620443 74.812418 
L 297.929888 70.870477 
L 298.335465 64.406308 
L 298.632709 66.82268 
L 299.108436 77.112953 
L 299.60655 76.443599 
L 299.827215 70.439418 
L 300.361705 64.548767 
L 300.600166 66.437566 
L 301.079765 71.712557 
L 301.494049 70.444229 
L 301.613328 67.594318 
L 301.911255 64.970007 
L 302.09056 64.950978 
L 302.447614 67.471745 
L 302.80676 72.035422 
L 303.043886 73.468055 
L 303.341324 72.768537 
L 303.54503 71.598019 
L 303.826118 71.61966 
L 304.595673 78.421713 
L 304.95287 78.354853 
L 305.252232 75.806279 
L 305.31073 72.908645 
L 305.548602 70.701742 
L 305.846457 71.844508 
L 306.02906 73.339987 
L 306.385283 73.897896 
L 306.996024 71.842238 
L 307.281744 72.723292 
L 307.656728 76.901939 
L 308.067971 82.324898 
L 308.537897 77.268488 
L 309.086734 71.280152 
L 309.313549 70.402321 
L 309.455479 70.749348 
L 309.930311 70.565857 
L 310.001814 70.19024 
L 310.28921 70.336145 
L 310.527271 70.618884 
L 311.781527 76.081489 
L 312.501747 73.427665 
L 312.732977 74.704154 
L 313.090224 77.986477 
L 313.212638 76.945762 
L 313.568273 80.21928 
L 314.235778 144.510632 
L 314.58015 162.709956 
L 314.701814 177.810268 
L 315.682591 218.607977 
L 316.016983 218.137856 
L 316.33419 190.954333 
L 316.452034 154.068852 
L 317.410895 40.561206 
L 318.060545 7.184504 
L 318.180102 6.050769 
L 318.718927 27.821507 
L 319.910478 135.259209 
L 320.14826 143.090954 
L 320.328134 141.720734 
L 320.624731 131.843194 
L 321.584298 68.882574 
L 322.117615 56.210314 
L 322.357206 56.376288 
L 322.592008 61.965381 
L 323.070052 83.950198 
L 323.548541 112.966816 
L 324.083748 127.256939 
L 324.50419 126.165958 
L 324.569671 120.440299 
L 325.454334 80.960701 
L 325.812051 55.557445 
L 326.051482 48.584185 
L 326.294583 47.40469 
L 326.530758 51.771105 
L 327.242305 70.890578 
L 327.301953 83.77079 
L 328.020226 122.76941 
L 328.256505 128.171154 
L 328.495475 126.646594 
L 329.171816 109.185529 
L 329.275333 96.088757 
L 329.745474 71.982379 
L 330.162941 62.327225 
L 330.282264 56.244623 
L 330.580948 54.191373 
L 330.761294 57.671069 
L 331.312423 76.220969 
L 332.018819 105.077326 
L 332.248663 110.018146 
L 332.487919 111.79443 
L 332.725398 109.608116 
L 333.024265 105.07706 
L 334.226045 68.03606 
L 334.581092 67.08135 
L 335.022935 74.843212 
L 335.709664 93.259673 
L 335.971918 97.531566 
L 336.184852 98.890556 
L 336.423478 97.605715 
L 336.663453 93.985794 
L 337.916816 65.400064 
L 338.161358 64.141348 
L 338.54477 65.001466 
L 338.658091 67.371212 
L 338.944233 70.014046 
L 338.991294 72.04735 
L 339.29103 74.796277 
L 339.410048 79.391174 
L 340.12328 85.548491 
L 340.421547 85.849501 
L 340.719728 85.127559 
L 341.13678 81.113845 
L 341.615004 78.064319 
L 341.917182 78.197004 
L 342.390217 84.102553 
L 342.592547 88.874809 
L 342.865715 92.583084 
L 343.224194 95.013775 
L 343.364331 97.080635 
L 343.582206 98.153727 
L 343.819625 98.549614 
L 344.2367 97.227214 
L 344.355474 93.998201 
L 344.654162 89.512506 
L 345.073439 79.110932 
L 346.084919 68.093871 
L 346.386542 67.096963 
L 346.623265 68.231114 
L 347.336523 83.711928 
L 347.633595 87.398273 
L 347.812551 88.032156 
L 348.051726 87.235607 
L 348.470912 87.707466 
L 348.531021 89.404311 
L 348.830156 90.725728 
L 349.025631 90.357985 
L 349.25029 87.538413 
L 349.603408 81.391375 
L 349.8421 74.512142 
L 350.139628 70.274239 
L 350.26536 70.154648 
L 351.033535 80.620983 
L 351.510253 82.135596 
L 351.86755 82.168106 
L 352.34541 86.291978 
L 352.643325 88.074243 
L 352.763199 87.158705 
L 353.777296 68.018646 
L 354.192068 68.472792 
L 354.26785 71.549771 
L 354.967142 82.353567 
L 355.563366 86.994664 
L 355.691361 90.357477 
L 356.230389 95.948257 
L 356.695564 95.234293 
L 357.11492 90.887933 
L 357.414082 79.655924 
L 357.768024 76.129787 
L 358.067321 77.127592 
L 358.200121 78.999783 
L 358.619507 78.073749 
L 358.726755 77.489964 
L 359.203431 81.017612 
L 359.448191 83.10755 
L 360.223373 87.163366 
L 360.464925 87.178957 
L 360.876193 85.700451 
L 361.129106 83.115349 
L 361.661674 74.950134 
L 361.887082 74.105614 
L 362.185637 76.271201 
L 362.424082 80.566813 
L 362.662654 82.043391 
L 363.20353 79.547748 
L 363.423447 80.872693 
L 363.916371 88.651399 
L 364.298259 88.64491 
L 364.393153 86.106163 
L 364.92917 82.342416 
L 365.107627 81.183063 
L 365.345698 80.962491 
L 365.643635 79.435372 
L 366.120566 74.32761 
L 366.430486 74.423909 
L 366.661699 78.120287 
L 366.95586 80.792052 
L 367.137644 80.827556 
L 367.313284 79.460702 
L 367.613202 80.222165 
L 368.164973 84.676593 
L 368.328014 84.713464 
L 368.629685 82.213424 
L 369.113805 76.005523 
L 369.34484 76.18588 
L 369.529356 77.643226 
L 369.821758 78.257697 
L 370.240307 77.288418 
L 370.360723 77.897764 
L 370.716213 78.096732 
L 370.778089 79.326272 
L 371.312315 83.577055 
L 371.789135 85.01178 
L 372.027824 85.391019 
L 372.325578 86.917384 
L 372.572937 87.025145 
L 372.861574 83.472822 
L 373.223258 81.195317 
L 373.518933 84.63412 
L 373.93445 84.825251 
L 373.993192 83.177513 
L 374.71244 76.079331 
L 375.080509 77.746959 
L 375.245909 81.887541 
L 375.486534 83.827734 
L 375.841426 82.276666 
L 376.021182 79.683052 
L 376.325316 78.34489 
L 376.501063 79.406601 
L 376.735908 81.724182 
L 377.154139 82.509168 
L 377.275259 81.43815 
L 377.454122 78.009397 
L 377.691085 75.730385 
L 377.97089 76.841606 
L 378.467507 80.487954 
L 378.705786 80.840736 
L 379.541591 83.598544 
L 379.77876 83.153151 
L 379.957593 83.071216 
L 380.315476 82.1662 
L 380.43452 80.010497 
L 380.67377 78.969328 
L 381.209422 82.245623 
L 381.566802 80.304379 
L 381.744983 77.220788 
L 382.170296 76.890106 
L 382.401177 81.593535 
L 382.640935 84.008669 
L 382.938268 84.356299 
L 383.653191 77.306684 
L 383.891272 77.618281 
L 384.36784 81.865453 
L 384.608478 81.350375 
L 385.024513 78.76795 
L 385.141968 76.250976 
L 385.442062 77.058204 
L 385.982328 82.754243 
L 386.154941 84.553554 
L 386.572481 83.859814 
L 386.633083 80.82046 
L 386.871953 78.489535 
L 387.288124 78.660138 
L 387.408358 80.767544 
L 387.883735 84.366636 
L 388.657811 77.856515 
L 388.83674 79.000969 
L 389.078696 82.099005 
L 389.373409 84.349133 
L 389.673069 84.362846 
L 389.85151 82.826474 
L 390.209139 80.307998 
L 390.327434 76.934424 
L 390.566718 75.705528 
L 391.283443 78.412498 
L 391.578394 78.219722 
L 391.956832 78.537343 
L 392.294363 81.426072 
L 392.832412 82.965265 
L 393.65145 82.13809 
L 394.023607 83.962027 
L 394.261973 84.426999 
L 394.507191 85.25954 
L 395.156539 85.758056 
L 395.275553 85.175283 
L 395.817442 84.045873 
L 396.468688 84.575475 
L 396.709418 84.354928 
L 397.480824 81.447562 
L 397.839129 81.762017 
L 398.01748 82.439257 
L 398.255879 81.996849 
L 398.493969 80.27518 
L 398.732782 77.63775 
L 399.032184 75.608224 
L 399.629341 73.195066 
L 399.867123 73.642974 
L 400.224723 78.502565 
L 401.000306 87.375908 
L 401.240795 88.661726 
L 401.476641 88.451959 
L 401.775515 87.00475 
L 402.908526 75.349237 
L 403.162416 74.75315 
L 403.206332 74.153118 
L 403.633589 76.473498 
L 403.922551 77.164248 
L 404.188901 77.489174 
L 404.402506 77.407471 
L 404.641312 77.6734 
L 404.947887 78.943906 
L 405.385104 82.70708 
L 405.65268 83.150537 
L 406.667313 81.833144 
L 406.963223 82.118071 
L 407.144113 82.050278 
L 407.380891 80.513202 
L 407.860801 74.164988 
L 408.398363 71.310459 
L 408.636507 71.381284 
L 408.917998 72.956983 
L 409.234688 75.402736 
L 409.470635 78.278113 
L 409.589722 81.872104 
L 409.829013 84.393565 
L 410.126347 85.655319 
L 410.42592 85.646608 
L 411.143152 83.542845 
L 411.320402 83.71573 
L 411.857209 84.773489 
L 412.096215 84.801383 
L 412.512689 85.375807 
L 412.58546 85.816179 
L 413.062343 86.94252 
L 413.456757 85.576644 
L 413.81476 80.397268 
L 414.472681 73.155684 
L 414.533583 69.398337 
L 414.830286 66.274155 
L 415.068038 65.47051 
L 415.309724 65.516954 
L 415.559664 66.863339 
L 415.96323 70.470628 
L 416.023198 74.043566 
L 416.563927 80.516275 
L 417.002271 86.628142 
L 417.276707 88.10961 
L 417.709181 88.170694 
L 417.756951 87.790406 
L 418.054464 88.090048 
L 418.530943 88.161701 
L 419.126668 86.84703 
L 419.962564 82.491896 
L 420.738015 81.93113 
L 420.975057 81.91924 
L 421.214128 82.083151 
L 421.512226 81.218935 
L 421.693249 79.452596 
L 422.225812 78.112641 
L 422.234324 78.778425 
L 422.468961 80.859292 
L 423.004989 83.452248 
L 423.960579 80.983881 
L 424.43705 82.610502 
L 424.675708 82.402895 
L 425.155055 78.197442 
L 425.574673 77.864023 
L 425.629286 78.337913 
L 426.40654 79.398833 
L 426.64547 78.378212 
L 427.190077 77.334544 
L 427.659166 79.367248 
L 427.90644 78.385818 
L 427.958088 77.382615 
L 428.19698 77.030908 
L 428.436409 76.217649 
L 428.619145 76.731399 
L 429.151322 81.342461 
L 429.628082 85.092596 
L 429.867272 84.899375 
L 430.10485 83.516443 
L 430.774626 78.489793 
L 431.121983 71.724678 
L 431.597523 63.496007 
L 432.095657 58.499098 
L 432.561897 49.036258 
L 432.821237 47.352235 
L 433.156978 47.158431 
L 433.594031 47.928131 
L 434.121676 45.652137 
L 434.414608 45.354937 
L 435.793016 81.122686 
L 436.163582 86.596077 
L 436.324342 93.262801 
L 436.627299 98.053478 
L 436.862153 98.359841 
L 437.640155 85.026077 
L 437.947846 82.809635 
L 438.778576 66.287417 
L 439.093849 65.026946 
L 440.027646 89.596356 
L 440.326857 90.444815 
L 440.505242 90.121177 
L 441.360449 86.885644 
L 441.460589 83.910055 
L 441.817555 79.473541 
L 441.996582 74.297651 
L 442.476381 68.23947 
L 442.882088 67.397981 
L 443.119643 67.968086 
L 443.306995 71.221406 
L 444.193965 94.780768 
L 444.670741 95.421709 
L 445.029606 88.33249 
L 445.21114 84.768631 
L 445.566243 82.661767 
L 445.950184 77.393019 
L 446.46149 73.104037 
L 446.703529 73.91322 
L 447.182432 79.209394 
L 448.138367 89.918406 
L 448.437338 91.033976 
L 448.625267 90.442296 
L 448.91479 88.748042 
L 449.392189 84.37238 
L 449.808343 83.665192 
L 450.46407 87.634275 
L 451.180519 90.170131 
L 451.658653 93.098473 
L 451.839194 93.14263 
L 452.326715 91.879767 
L 452.613173 91.358043 
L 453.098099 88.489718 
L 453.469682 85.890576 
L 453.809319 79.997415 
L 454.134366 78.171422 
L 454.765606 76.67665 
L 455.071869 74.602977 
L 455.300727 75.09607 
L 455.961335 80.653444 
L 456.566905 90.843685 
L 456.984034 90.127036 
L 457.044693 88.907939 
L 457.462645 86.912332 
L 457.762486 83.713464 
L 458.176246 82.355124 
L 458.295734 81.458556 
L 458.535771 80.587835 
L 458.772737 79.297356 
L 459.18988 79.515732 
L 459.846799 95.359979 
L 460.264394 100.749676 
L 460.505547 101.654408 
L 460.801349 100.842732 
L 462.535859 90.937643 
L 462.954361 89.970451 
L 463.252644 90.134269 
L 464.210024 94.941668 
L 464.468285 94.360564 
L 464.923343 89.709536 
L 466.243917 70.307725 
L 466.663185 67.067333 
L 466.961408 67.085863 
L 467.597038 72.113614 
L 467.921045 80.273556 
L 468.454257 83.506862 
L 468.761166 82.143299 
L 469.179483 77.056569 
L 469.542461 73.106228 
L 469.64942 69.681955 
L 470.128335 63.346161 
L 470.435389 61.914248 
L 470.683137 62.366547 
L 470.906718 64.176892 
L 472.456786 88.809011 
L 472.636186 91.063982 
L 473.172886 92.558141 
L 473.634969 92.385363 
L 473.868197 91.376029 
L 474.170263 90.591116 
L 474.645427 90.491569 
L 474.949827 90.079118 
L 475.125654 89.485064 
L 475.315542 89.379273 
L 476.079329 87.961268 
L 476.555932 85.612044 
L 477.212458 80.726183 
L 477.361592 77.738669 
L 477.749946 75.896996 
L 477.868828 73.94564 
L 478.107403 72.89016 
L 478.643526 71.963101 
L 478.775738 72.016905 
L 479.305237 75.170627 
L 479.798874 78.660277 
L 480.259337 81.639486 
L 480.639147 81.380005 
L 481.30086 76.689581 
L 481.817167 71.961599 
L 482.301583 70.432954 
L 482.796157 69.730552 
L 483.087039 70.268007 
L 483.208624 71.432524 
L 483.500877 72.412053 
L 484.216787 76.884364 
L 484.514676 76.759771 
L 484.761105 76.519441 
L 485.230884 74.477652 
L 485.470722 75.392817 
L 486.247979 80.094825 
L 486.961225 86.172177 
L 487.677248 95.721775 
L 488.214516 98.25763 
L 488.455338 98.879329 
L 488.751713 98.506543 
L 488.931602 97.824601 
L 489.540319 96.761746 
L 490.005091 95.166594 
L 490.481391 95.370643 
L 490.683853 95.102259 
L 490.899752 95.071008 
L 491.494573 96.841377 
L 492.154206 99.994661 
L 492.390345 100.42923 
L 492.705805 100.230404 
L 493.601015 97.475815 
L 493.66099 96.149419 
L 493.95881 94.560627 
L 494.380638 91.506274 
L 495.092642 87.161246 
L 496.407336 82.490129 
L 496.931081 78.982337 
L 497.32743 75.303821 
L 497.602808 74.771221 
L 497.947291 75.102246 
L 498.144884 75.976682 
L 498.860584 80.385143 
L 499.337413 82.653102 
L 499.817608 84.734816 
L 500.113488 84.880166 
L 500.650281 81.700963 
L 500.829084 79.790509 
L 501.425955 76.224219 
L 501.604394 76.442963 
L 502.085048 77.2853 
L 502.321119 80.532031 
L 503.051282 86.520142 
L 503.515493 94.435003 
L 504.051407 100.867217 
L 504.229888 103.597658 
L 504.650095 104.694228 
L 504.707569 104.539069 
L 505.069486 102.022667 
L 505.78225 92.486519 
L 506.266043 85.07482 
L 506.569872 81.888624 
L 506.746757 78.378126 
L 507.231373 73.9378 
L 507.475334 74.341683 
L 507.708032 75.698085 
L 508.005894 76.45234 
L 508.190358 77.351215 
L 508.485193 77.893007 
L 508.787092 77.58027 
L 509.275368 75.862663 
L 509.498512 74.908918 
L 509.921977 74.447049 
L 509.97473 73.621817 
L 510.21317 73.947835 
L 510.631246 74.221189 
L 510.691646 74.101394 
L 511.266656 75.125789 
L 512.42372 88.318868 
L 512.662927 88.422997 
L 512.902669 88.655593 
L 513.214663 88.686849 
L 513.619081 88.370286 
L 513.68035 88.559543 
L 513.915563 88.443914 
L 514.39837 88.703928 
L 514.571539 88.525694 
L 514.703169 88.766423 
L 514.890518 89.648253 
L 515.247869 92.051045 
L 516.400242 104.945821 
L 516.922212 103.614604 
L 517.159528 102.316992 
L 517.51651 101.241912 
L 518.480489 89.896231 
L 518.653123 85.832057 
L 519.388449 77.077668 
L 519.725267 75.560621 
L 519.86004 74.413733 
L 520.141772 74.773066 
L 520.621899 78.12766 
L 520.859464 80.073152 
L 521.115203 83.335487 
L 521.637701 95.30051 
L 522.117242 106.693302 
L 522.363738 109.073094 
L 522.827932 110.218851 
L 523.266623 112.304828 
L 523.497826 114.433562 
L 523.843711 114.685599 
L 524.131034 106.512045 
L 524.380779 92.768841 
L 524.857058 81.955153 
L 524.9168 73.63605 
L 525.692727 63.01506 
L 525.814188 62.84421 
L 526.316015 63.642473 
L 527.314102 90.309411 
L 527.911085 95.481649 
L 528.28225 91.696987 
L 529.166701 67.903764 
L 529.284939 67.493653 
L 529.533417 69.304666 
L 529.890641 72.922962 
L 530.247674 83.053868 
L 530.664454 89.581642 
L 531.621121 118.411513 
L 531.88268 118.396182 
L 532.524468 100.589238 
L 532.939696 83.744782 
L 533.72434 64.859838 
L 533.946454 61.997514 
L 534.245028 61.689559 
L 534.451003 62.528904 
L 535.028561 67.554372 
L 535.504579 73.23175 
L 535.801994 73.913091 
L 536.733933 67.561874 
L 536.938388 67.252309 
L 537.241818 67.910182 
L 537.57183 69.850124 
L 537.923297 75.620247 
L 538.432501 84.372877 
L 539.203163 97.190206 
L 539.439601 98.982195 
L 539.680701 99.236193 
L 539.916955 97.661048 
L 540.924843 86.379638 
L 541.483777 81.080231 
L 541.907515 79.289406 
L 542.137411 80.494541 
L 543.147255 94.239713 
L 543.625901 99.606027 
L 543.867082 100.080375 
L 544.160754 99.50463 
L 544.419445 97.996046 
L 544.997465 92.145965 
L 545.177199 89.223396 
L 545.613251 85.899269 
L 545.716345 83.915936 
L 546.311255 81.507454 
L 546.562256 81.265472 
L 547.086927 79.968194 
L 547.328605 79.181704 
L 547.562717 77.846075 
L 548.044159 72.446663 
L 548.57849 65.515904 
L 549.053617 60.387108 
L 549.551337 59.598596 
L 550.187418 63.673974 
L 550.496407 73.495463 
L 550.901628 78.341667 
L 551.264901 84.79753 
L 551.511124 86.055369 
L 551.737027 86.495932 
L 552.395465 87.012892 
L 552.516451 86.154573 
L 553.231918 84.42902 
L 553.531832 85.424624 
L 554.326986 97.61491 
L 554.745389 104.506424 
L 554.984158 106.940334 
L 555.281591 108.322948 
L 555.937535 109.720048 
L 556.23672 109.084895 
L 556.8397 105.576476 
L 556.966916 103.241883 
L 557.459078 98.021186 
L 557.570223 92.472864 
L 557.960614 86.893565 
L 558.43799 83.791237 
L 558.695445 83.120643 
L 558.974965 82.923184 
L 559.210968 83.097988 
L 559.509203 83.805803 
L 559.92538 86.345592 
L 560.468553 87.011344 
L 561.186721 89.215555 
L 561.37958 89.550713 
L 561.675585 88.84134 
L 561.924237 86.125937 
L 562.153707 84.860514 
L 562.693429 83.947121 
L 562.879261 83.713906 
L 563.168071 82.777021 
L 563.541892 80.852267 
L 563.663332 79.451962 
L 564.063923 79.171712 
L 564.36587 83.500903 
L 564.602546 86.064681 
L 565.099238 88.473019 
L 565.376283 88.461253 
L 565.616165 88.102953 
L 566.154132 89.284013 
L 566.807687 88.41156 
L 566.871061 87.386925 
L 567.109206 86.445795 
L 567.348511 86.358391 
L 567.602314 85.774348 
L 567.889683 86.086687 
L 568.067008 87.213452 
L 568.36386 88.175451 
L 568.666409 88.608448 
L 568.905048 88.516614 
L 569.258048 87.436681 
L 569.556614 83.223518 
L 569.830097 82.693462 
L 570.180186 84.787213 
L 570.296782 87.258356 
L 570.596187 89.148312 
L 570.840372 89.816782 
L 571.090269 89.684014 
L 571.551927 88.605114 
L 571.854597 89.49671 
L 572.030259 90.883589 
L 572.327643 91.111992 
L 573.047077 79.4827 
L 573.343047 79.524842 
L 573.705169 82.031408 
L 574.05876 87.021767 
L 574.30091 87.206612 
L 574.789855 86.450041 
L 575.266685 90.093018 
L 575.509254 90.141216 
L 575.806683 86.093612 
L 575.982989 80.903783 
L 576.28069 77.533162 
L 576.639918 78.398058 
L 576.819632 81.119176 
L 577.176708 83.084412 
L 577.414148 82.970563 
L 577.534113 81.334538 
L 577.715511 80.477506 
L 577.951032 81.989731 
L 578.728967 90.144003 
L 579.051607 87.108346 
L 579.234913 84.137431 
L 579.471695 84.02091 
L 580.001437 86.507059 
L 580.238885 85.995908 
L 580.67193 83.313496 
L 580.954797 83.040165 
L 581.193618 84.006146 
L 581.503861 84.746026 
L 581.67021 84.52066 
L 582.031218 83.338758 
L 582.167232 83.519945 
L 582.685641 86.617617 
L 582.987025 86.643364 
L 583.282015 85.484647 
L 583.519781 82.164474 
L 583.93793 82.265682 
L 584.35554 85.536797 
L 584.712611 85.222518 
L 585.071395 77.25804 
L 585.399086 77.172948 
L 585.63542 79.377147 
L 586.150599 89.674398 
L 586.440302 90.281041 
L 586.619088 89.210728 
L 586.989148 88.098615 
L 587.158906 88.589795 
L 587.635596 91.054882 
L 587.875755 90.466804 
L 588.351426 84.581987 
L 588.64969 80.181286 
L 588.888745 79.438682 
L 589.128115 81.973844 
L 589.612081 84.569577 
L 589.849898 84.404153 
L 590.201208 84.414977 
L 590.339608 85.448396 
L 590.564453 85.628324 
L 590.858037 84.933228 
L 591.098088 85.075222 
L 591.336211 85.960061 
L 591.644742 85.580493 
L 591.94111 83.988173 
L 592.179709 84.266 
L 592.35766 84.994334 
L 592.95496 80.463 
L 593.252524 82.125017 
L 593.612706 86.035651 
L 593.789061 85.910698 
L 594.265573 83.30408 
L 594.510253 83.55101 
L 594.863145 84.95395 
L 595.041953 86.414057 
L 595.294118 86.518937 
L 596.26267 81.284054 
L 596.502813 82.460258 
L 596.502813 82.460258 
" clip-path="url(#p4975b30c60)" style="fill: none; stroke: #ff0000; stroke-opacity: 0.5; stroke-width: 1.5; stroke-linecap: square"/>
   </g>
   <g id="patch_3">
    <path d="M 38.502813 277.92 
L 38.502813 0.72 
" style="fill: none; stroke: #000000; stroke-width: 0.8; stroke-linejoin: miter; stroke-linecap: square"/>
   </g>
   <g id="patch_4">
    <path d="M 596.502813 277.92 
L 596.502813 0.72 
" style="fill: none; stroke: #000000; stroke-width: 0.8; stroke-linejoin: miter; stroke-linecap: square"/>
   </g>
   <g id="patch_5">
    <path d="M 38.502813 277.92 
L 596.502813 277.92 
" style="fill: none; stroke: #000000; stroke-width: 0.8; stroke-linejoin: miter; stroke-linecap: square"/>
   </g>
   <g id="patch_6">
    <path d="M 38.502813 0.72 
L 596.502813 0.72 
" style="fill: none; stroke: #000000; stroke-width: 0.8; stroke-linejoin: miter; stroke-linecap: square"/>
   </g>
   <g id="legend_1">
    <g id="patch_7">
     <path d="M 515.734062 38.07625 
L 589.502812 38.07625 
Q 591.502812 38.07625 591.502812 36.07625 
L 591.502812 7.72 
Q 591.502812 5.72 589.502812 5.72 
L 515.734062 5.72 
Q 513.734062 5.72 513.734062 7.72 
L 513.734062 36.07625 
Q 513.734062 38.07625 515.734062 38.07625 
z
" style="fill: #ffffff; opacity: 0.8; stroke: #cccccc; stroke-linejoin: miter"/>
    </g>
    <g id="line2d_29">
     <path d="M 517.734062 13.818438 
L 527.734062 13.818438 
L 537.734062 13.818438 
" style="fill: none; stroke: #0000ff; stroke-opacity: 0.5; stroke-width: 1.5; stroke-linecap: square"/>
    </g>
    <g id="text_16">
     <!-- RNEA -->
     <g transform="translate(545.734062 17.318438) scale(0.1 -0.1)">
      <defs>
       <path id="DejaVuSans-52" d="M 2841 2188 
Q 3044 2119 3236 1894 
Q 3428 1669 3622 1275 
L 4263 0 
L 3584 0 
L 2988 1197 
Q 2756 1666 2539 1819 
Q 2322 1972 1947 1972 
L 1259 1972 
L 1259 0 
L 628 0 
L 628 4666 
L 2053 4666 
Q 2853 4666 3247 4331 
Q 3641 3997 3641 3322 
Q 3641 2881 3436 2590 
Q 3231 2300 2841 2188 
z
M 1259 4147 
L 1259 2491 
L 2053 2491 
Q 2509 2491 2742 2702 
Q 2975 2913 2975 3322 
Q 2975 3731 2742 3939 
Q 2509 4147 2053 4147 
L 1259 4147 
z
" transform="scale(0.015625)"/>
       <path id="DejaVuSans-45" d="M 628 4666 
L 3578 4666 
L 3578 4134 
L 1259 4134 
L 1259 2753 
L 3481 2753 
L 3481 2222 
L 1259 2222 
L 1259 531 
L 3634 531 
L 3634 0 
L 628 0 
L 628 4666 
z
" transform="scale(0.015625)"/>
       <path id="DejaVuSans-41" d="M 2188 4044 
L 1331 1722 
L 3047 1722 
L 2188 4044 
z
M 1831 4666 
L 2547 4666 
L 4325 0 
L 3669 0 
L 3244 1197 
L 1141 1197 
L 716 0 
L 50 0 
L 1831 4666 
z
" transform="scale(0.015625)"/>
      </defs>
      <use xlink:href="#DejaVuSans-52"/>
      <use xlink:href="#DejaVuSans-4e" x="69.482422"/>
      <use xlink:href="#DejaVuSans-45" x="144.287109"/>
      <use xlink:href="#DejaVuSans-41" x="207.470703"/>
     </g>
    </g>
    <g id="line2d_30">
     <path d="M 517.734062 28.496563 
L 527.734062 28.496563 
L 537.734062 28.496563 
" style="fill: none; stroke: #ff0000; stroke-opacity: 0.5; stroke-width: 1.5; stroke-linecap: square"/>
    </g>
    <g id="text_17">
     <!-- BURNEA -->
     <g transform="translate(545.734062 31.996563) scale(0.1 -0.1)">
      <defs>
       <path id="DejaVuSans-42" d="M 1259 2228 
L 1259 519 
L 2272 519 
Q 2781 519 3026 730 
Q 3272 941 3272 1375 
Q 3272 1813 3026 2020 
Q 2781 2228 2272 2228 
L 1259 2228 
z
M 1259 4147 
L 1259 2741 
L 2194 2741 
Q 2656 2741 2882 2914 
Q 3109 3088 3109 3444 
Q 3109 3797 2882 3972 
Q 2656 4147 2194 4147 
L 1259 4147 
z
M 628 4666 
L 2241 4666 
Q 2963 4666 3353 4366 
Q 3744 4066 3744 3513 
Q 3744 3084 3544 2831 
Q 3344 2578 2956 2516 
Q 3422 2416 3680 2098 
Q 3938 1781 3938 1306 
Q 3938 681 3513 340 
Q 3088 0 2303 0 
L 628 0 
L 628 4666 
z
" transform="scale(0.015625)"/>
       <path id="DejaVuSans-55" d="M 556 4666 
L 1191 4666 
L 1191 1831 
Q 1191 1081 1462 751 
Q 1734 422 2344 422 
Q 2950 422 3222 751 
Q 3494 1081 3494 1831 
L 3494 4666 
L 4128 4666 
L 4128 1753 
Q 4128 841 3676 375 
Q 3225 -91 2344 -91 
Q 1459 -91 1007 375 
Q 556 841 556 1753 
L 556 4666 
z
" transform="scale(0.015625)"/>
      </defs>
      <use xlink:href="#DejaVuSans-42"/>
      <use xlink:href="#DejaVuSans-55" x="68.603516"/>
      <use xlink:href="#DejaVuSans-52" x="141.796875"/>
      <use xlink:href="#DejaVuSans-4e" x="211.279297"/>
      <use xlink:href="#DejaVuSans-45" x="286.083984"/>
      <use xlink:href="#DejaVuSans-41" x="349.267578"/>
     </g>
    </g>
   </g>
  </g>
 </g>
 <defs>
  <clipPath id="p4975b30c60">
   <rect x="38.502813" y="0.72" width="558" height="277.2"/>
  </clipPath>
 </defs>
</svg>
