<?xml version="1.0" encoding="utf-8" standalone="no"?>
<!DOCTYPE svg PUBLIC "-//W3C//DTD SVG 1.1//EN"
  "http://www.w3.org/Graphics/SVG/1.1/DTD/svg11.dtd">
<svg xmlns:xlink="http://www.w3.org/1999/xlink" width="427.43952pt" height="211.43952pt" viewBox="0 0 427.43952 211.43952" xmlns="http://www.w3.org/2000/svg" version="1.1">
 <metadata>
  <rdf:RDF xmlns:dc="http://purl.org/dc/elements/1.1/" xmlns:cc="http://creativecommons.org/ns#" xmlns:rdf="http://www.w3.org/1999/02/22-rdf-syntax-ns#">
   <cc:Work>
    <dc:type rdf:resource="http://purl.org/dc/dcmitype/StillImage"/>
    <dc:date>2023-09-09T18:29:07.773016</dc:date>
    <dc:format>image/svg+xml</dc:format>
    <dc:creator>
     <cc:Agent>
      <dc:title>Matplotlib v3.7.2, https://matplotlib.org/</dc:title>
     </cc:Agent>
    </dc:creator>
   </cc:Work>
  </rdf:RDF>
 </metadata>
 <defs>
  <style type="text/css">*{stroke-linejoin: round; stroke-linecap: butt}</style>
 </defs>
 <g id="figure_1">
  <g id="patch_1">
   <path d="M 0 211.43952 
L 427.43952 211.43952 
L 427.43952 0 
L 0 0 
L 0 211.43952 
z
" style="fill: none"/>
  </g>
  <g id="axes_1">
   <g id="patch_2">
    <path d="M 30.123125 184.36327 
L 426.71952 184.36327 
L 426.71952 0.72 
L 30.123125 0.72 
L 30.123125 184.36327 
z
" style="fill: none"/>
   </g>
   <g id="matplotlib.axis_1">
    <g id="xtick_1">
     <g id="line2d_1">
      <path d="M 30.123125 184.36327 
L 30.123125 0.72 
" clip-path="url(#p2c102aa2d2)" style="fill: none; stroke-dasharray: 0.8,1.32; stroke-dashoffset: 0; stroke: #000000; stroke-opacity: 0.5; stroke-width: 0.8"/>
     </g>
     <g id="line2d_2">
      <defs>
       <path id="m62f9af67aa" d="M 0 0 
L 0 3.5 
" style="stroke: #000000; stroke-width: 0.8"/>
      </defs>
      <g>
       <use xlink:href="#m62f9af67aa" x="30.123125" y="184.36327" style="stroke: #000000; stroke-width: 0.8"/>
      </g>
     </g>
     <g id="text_1">
      <!-- 0.0 -->
      <g transform="translate(22.171563 198.961707) scale(0.1 -0.1)">
       <defs>
        <path id="DejaVuSans-30" d="M 2034 4250 
Q 1547 4250 1301 3770 
Q 1056 3291 1056 2328 
Q 1056 1369 1301 889 
Q 1547 409 2034 409 
Q 2525 409 2770 889 
Q 3016 1369 3016 2328 
Q 3016 3291 2770 3770 
Q 2525 4250 2034 4250 
z
M 2034 4750 
Q 2819 4750 3233 4129 
Q 3647 3509 3647 2328 
Q 3647 1150 3233 529 
Q 2819 -91 2034 -91 
Q 1250 -91 836 529 
Q 422 1150 422 2328 
Q 422 3509 836 4129 
Q 1250 4750 2034 4750 
z
" transform="scale(0.015625)"/>
        <path id="DejaVuSans-2e" d="M 684 794 
L 1344 794 
L 1344 0 
L 684 0 
L 684 794 
z
" transform="scale(0.015625)"/>
       </defs>
       <use xlink:href="#DejaVuSans-30"/>
       <use xlink:href="#DejaVuSans-2e" x="63.623047"/>
       <use xlink:href="#DejaVuSans-30" x="95.410156"/>
      </g>
     </g>
    </g>
    <g id="xtick_2">
     <g id="line2d_3">
      <path d="M 82.825899 184.36327 
L 82.825899 0.72 
" clip-path="url(#p2c102aa2d2)" style="fill: none; stroke-dasharray: 0.8,1.32; stroke-dashoffset: 0; stroke: #000000; stroke-opacity: 0.5; stroke-width: 0.8"/>
     </g>
     <g id="line2d_4">
      <g>
       <use xlink:href="#m62f9af67aa" x="82.825899" y="184.36327" style="stroke: #000000; stroke-width: 0.8"/>
      </g>
     </g>
     <g id="text_2">
      <!-- 2.5 -->
      <g transform="translate(74.874337 198.961707) scale(0.1 -0.1)">
       <defs>
        <path id="DejaVuSans-32" d="M 1228 531 
L 3431 531 
L 3431 0 
L 469 0 
L 469 531 
Q 828 903 1448 1529 
Q 2069 2156 2228 2338 
Q 2531 2678 2651 2914 
Q 2772 3150 2772 3378 
Q 2772 3750 2511 3984 
Q 2250 4219 1831 4219 
Q 1534 4219 1204 4116 
Q 875 4013 500 3803 
L 500 4441 
Q 881 4594 1212 4672 
Q 1544 4750 1819 4750 
Q 2544 4750 2975 4387 
Q 3406 4025 3406 3419 
Q 3406 3131 3298 2873 
Q 3191 2616 2906 2266 
Q 2828 2175 2409 1742 
Q 1991 1309 1228 531 
z
" transform="scale(0.015625)"/>
        <path id="DejaVuSans-35" d="M 691 4666 
L 3169 4666 
L 3169 4134 
L 1269 4134 
L 1269 2991 
Q 1406 3038 1543 3061 
Q 1681 3084 1819 3084 
Q 2600 3084 3056 2656 
Q 3513 2228 3513 1497 
Q 3513 744 3044 326 
Q 2575 -91 1722 -91 
Q 1428 -91 1123 -41 
Q 819 9 494 109 
L 494 744 
Q 775 591 1075 516 
Q 1375 441 1709 441 
Q 2250 441 2565 725 
Q 2881 1009 2881 1497 
Q 2881 1984 2565 2268 
Q 2250 2553 1709 2553 
Q 1456 2553 1204 2497 
Q 953 2441 691 2322 
L 691 4666 
z
" transform="scale(0.015625)"/>
       </defs>
       <use xlink:href="#DejaVuSans-32"/>
       <use xlink:href="#DejaVuSans-2e" x="63.623047"/>
       <use xlink:href="#DejaVuSans-35" x="95.410156"/>
      </g>
     </g>
    </g>
    <g id="xtick_3">
     <g id="line2d_5">
      <path d="M 135.528674 184.36327 
L 135.528674 0.72 
" clip-path="url(#p2c102aa2d2)" style="fill: none; stroke-dasharray: 0.8,1.32; stroke-dashoffset: 0; stroke: #000000; stroke-opacity: 0.5; stroke-width: 0.8"/>
     </g>
     <g id="line2d_6">
      <g>
       <use xlink:href="#m62f9af67aa" x="135.528674" y="184.36327" style="stroke: #000000; stroke-width: 0.8"/>
      </g>
     </g>
     <g id="text_3">
      <!-- 5.0 -->
      <g transform="translate(127.577111 198.961707) scale(0.1 -0.1)">
       <use xlink:href="#DejaVuSans-35"/>
       <use xlink:href="#DejaVuSans-2e" x="63.623047"/>
       <use xlink:href="#DejaVuSans-30" x="95.410156"/>
      </g>
     </g>
    </g>
    <g id="xtick_4">
     <g id="line2d_7">
      <path d="M 188.231448 184.36327 
L 188.231448 0.72 
" clip-path="url(#p2c102aa2d2)" style="fill: none; stroke-dasharray: 0.8,1.32; stroke-dashoffset: 0; stroke: #000000; stroke-opacity: 0.5; stroke-width: 0.8"/>
     </g>
     <g id="line2d_8">
      <g>
       <use xlink:href="#m62f9af67aa" x="188.231448" y="184.36327" style="stroke: #000000; stroke-width: 0.8"/>
      </g>
     </g>
     <g id="text_4">
      <!-- 7.5 -->
      <g transform="translate(180.279886 198.961707) scale(0.1 -0.1)">
       <defs>
        <path id="DejaVuSans-37" d="M 525 4666 
L 3525 4666 
L 3525 4397 
L 1831 0 
L 1172 0 
L 2766 4134 
L 525 4134 
L 525 4666 
z
" transform="scale(0.015625)"/>
       </defs>
       <use xlink:href="#DejaVuSans-37"/>
       <use xlink:href="#DejaVuSans-2e" x="63.623047"/>
       <use xlink:href="#DejaVuSans-35" x="95.410156"/>
      </g>
     </g>
    </g>
    <g id="xtick_5">
     <g id="line2d_9">
      <path d="M 240.934223 184.36327 
L 240.934223 0.72 
" clip-path="url(#p2c102aa2d2)" style="fill: none; stroke-dasharray: 0.8,1.32; stroke-dashoffset: 0; stroke: #000000; stroke-opacity: 0.5; stroke-width: 0.8"/>
     </g>
     <g id="line2d_10">
      <g>
       <use xlink:href="#m62f9af67aa" x="240.934223" y="184.36327" style="stroke: #000000; stroke-width: 0.8"/>
      </g>
     </g>
     <g id="text_5">
      <!-- 10.0 -->
      <g transform="translate(229.80141 198.961707) scale(0.1 -0.1)">
       <defs>
        <path id="DejaVuSans-31" d="M 794 531 
L 1825 531 
L 1825 4091 
L 703 3866 
L 703 4441 
L 1819 4666 
L 2450 4666 
L 2450 531 
L 3481 531 
L 3481 0 
L 794 0 
L 794 531 
z
" transform="scale(0.015625)"/>
       </defs>
       <use xlink:href="#DejaVuSans-31"/>
       <use xlink:href="#DejaVuSans-30" x="63.623047"/>
       <use xlink:href="#DejaVuSans-2e" x="127.246094"/>
       <use xlink:href="#DejaVuSans-30" x="159.033203"/>
      </g>
     </g>
    </g>
    <g id="xtick_6">
     <g id="line2d_11">
      <path d="M 293.636997 184.36327 
L 293.636997 0.72 
" clip-path="url(#p2c102aa2d2)" style="fill: none; stroke-dasharray: 0.8,1.32; stroke-dashoffset: 0; stroke: #000000; stroke-opacity: 0.5; stroke-width: 0.8"/>
     </g>
     <g id="line2d_12">
      <g>
       <use xlink:href="#m62f9af67aa" x="293.636997" y="184.36327" style="stroke: #000000; stroke-width: 0.8"/>
      </g>
     </g>
     <g id="text_6">
      <!-- 12.5 -->
      <g transform="translate(282.504185 198.961707) scale(0.1 -0.1)">
       <use xlink:href="#DejaVuSans-31"/>
       <use xlink:href="#DejaVuSans-32" x="63.623047"/>
       <use xlink:href="#DejaVuSans-2e" x="127.246094"/>
       <use xlink:href="#DejaVuSans-35" x="159.033203"/>
      </g>
     </g>
    </g>
    <g id="xtick_7">
     <g id="line2d_13">
      <path d="M 346.339772 184.36327 
L 346.339772 0.72 
" clip-path="url(#p2c102aa2d2)" style="fill: none; stroke-dasharray: 0.8,1.32; stroke-dashoffset: 0; stroke: #000000; stroke-opacity: 0.5; stroke-width: 0.8"/>
     </g>
     <g id="line2d_14">
      <g>
       <use xlink:href="#m62f9af67aa" x="346.339772" y="184.36327" style="stroke: #000000; stroke-width: 0.8"/>
      </g>
     </g>
     <g id="text_7">
      <!-- 15.0 -->
      <g transform="translate(335.206959 198.961707) scale(0.1 -0.1)">
       <use xlink:href="#DejaVuSans-31"/>
       <use xlink:href="#DejaVuSans-35" x="63.623047"/>
       <use xlink:href="#DejaVuSans-2e" x="127.246094"/>
       <use xlink:href="#DejaVuSans-30" x="159.033203"/>
      </g>
     </g>
    </g>
    <g id="xtick_8">
     <g id="line2d_15">
      <path d="M 399.042546 184.36327 
L 399.042546 0.72 
" clip-path="url(#p2c102aa2d2)" style="fill: none; stroke-dasharray: 0.8,1.32; stroke-dashoffset: 0; stroke: #000000; stroke-opacity: 0.5; stroke-width: 0.8"/>
     </g>
     <g id="line2d_16">
      <g>
       <use xlink:href="#m62f9af67aa" x="399.042546" y="184.36327" style="stroke: #000000; stroke-width: 0.8"/>
      </g>
     </g>
     <g id="text_8">
      <!-- 17.5 -->
      <g transform="translate(387.909734 198.961707) scale(0.1 -0.1)">
       <use xlink:href="#DejaVuSans-31"/>
       <use xlink:href="#DejaVuSans-37" x="63.623047"/>
       <use xlink:href="#DejaVuSans-2e" x="127.246094"/>
       <use xlink:href="#DejaVuSans-35" x="159.033203"/>
      </g>
     </g>
    </g>
    <g id="text_9">
     <!-- Zeit [s] -->
     <g transform="translate(210.475229 208.639832) scale(0.1 -0.1)">
      <defs>
       <path id="DejaVuSans-5a" d="M 359 4666 
L 4025 4666 
L 4025 4184 
L 1075 531 
L 4097 531 
L 4097 0 
L 288 0 
L 288 481 
L 3238 4134 
L 359 4134 
L 359 4666 
z
" transform="scale(0.015625)"/>
       <path id="DejaVuSans-65" d="M 3597 1894 
L 3597 1613 
L 953 1613 
Q 991 1019 1311 708 
Q 1631 397 2203 397 
Q 2534 397 2845 478 
Q 3156 559 3463 722 
L 3463 178 
Q 3153 47 2828 -22 
Q 2503 -91 2169 -91 
Q 1331 -91 842 396 
Q 353 884 353 1716 
Q 353 2575 817 3079 
Q 1281 3584 2069 3584 
Q 2775 3584 3186 3129 
Q 3597 2675 3597 1894 
z
M 3022 2063 
Q 3016 2534 2758 2815 
Q 2500 3097 2075 3097 
Q 1594 3097 1305 2825 
Q 1016 2553 972 2059 
L 3022 2063 
z
" transform="scale(0.015625)"/>
       <path id="DejaVuSans-69" d="M 603 3500 
L 1178 3500 
L 1178 0 
L 603 0 
L 603 3500 
z
M 603 4863 
L 1178 4863 
L 1178 4134 
L 603 4134 
L 603 4863 
z
" transform="scale(0.015625)"/>
       <path id="DejaVuSans-74" d="M 1172 4494 
L 1172 3500 
L 2356 3500 
L 2356 3053 
L 1172 3053 
L 1172 1153 
Q 1172 725 1289 603 
Q 1406 481 1766 481 
L 2356 481 
L 2356 0 
L 1766 0 
Q 1100 0 847 248 
Q 594 497 594 1153 
L 594 3053 
L 172 3053 
L 172 3500 
L 594 3500 
L 594 4494 
L 1172 4494 
z
" transform="scale(0.015625)"/>
       <path id="DejaVuSans-20" transform="scale(0.015625)"/>
       <path id="DejaVuSans-5b" d="M 550 4863 
L 1875 4863 
L 1875 4416 
L 1125 4416 
L 1125 -397 
L 1875 -397 
L 1875 -844 
L 550 -844 
L 550 4863 
z
" transform="scale(0.015625)"/>
       <path id="DejaVuSans-73" d="M 2834 3397 
L 2834 2853 
Q 2591 2978 2328 3040 
Q 2066 3103 1784 3103 
Q 1356 3103 1142 2972 
Q 928 2841 928 2578 
Q 928 2378 1081 2264 
Q 1234 2150 1697 2047 
L 1894 2003 
Q 2506 1872 2764 1633 
Q 3022 1394 3022 966 
Q 3022 478 2636 193 
Q 2250 -91 1575 -91 
Q 1294 -91 989 -36 
Q 684 19 347 128 
L 347 722 
Q 666 556 975 473 
Q 1284 391 1588 391 
Q 1994 391 2212 530 
Q 2431 669 2431 922 
Q 2431 1156 2273 1281 
Q 2116 1406 1581 1522 
L 1381 1569 
Q 847 1681 609 1914 
Q 372 2147 372 2553 
Q 372 3047 722 3315 
Q 1072 3584 1716 3584 
Q 2034 3584 2315 3537 
Q 2597 3491 2834 3397 
z
" transform="scale(0.015625)"/>
       <path id="DejaVuSans-5d" d="M 1947 4863 
L 1947 -844 
L 622 -844 
L 622 -397 
L 1369 -397 
L 1369 4416 
L 622 4416 
L 622 4863 
L 1947 4863 
z
" transform="scale(0.015625)"/>
      </defs>
      <use xlink:href="#DejaVuSans-5a"/>
      <use xlink:href="#DejaVuSans-65" x="68.505859"/>
      <use xlink:href="#DejaVuSans-69" x="130.029297"/>
      <use xlink:href="#DejaVuSans-74" x="157.8125"/>
      <use xlink:href="#DejaVuSans-20" x="197.021484"/>
      <use xlink:href="#DejaVuSans-5b" x="228.808594"/>
      <use xlink:href="#DejaVuSans-73" x="267.822266"/>
      <use xlink:href="#DejaVuSans-5d" x="319.921875"/>
     </g>
    </g>
   </g>
   <g id="matplotlib.axis_2">
    <g id="ytick_1">
     <g id="line2d_17">
      <path d="M 30.123125 164.685982 
L 426.71952 164.685982 
" clip-path="url(#p2c102aa2d2)" style="fill: none; stroke-dasharray: 0.8,1.32; stroke-dashoffset: 0; stroke: #000000; stroke-opacity: 0.5; stroke-width: 0.8"/>
     </g>
     <g id="line2d_18">
      <defs>
       <path id="m5fc0aa469c" d="M 0 0 
L -3.5 0 
" style="stroke: #000000; stroke-width: 0.8"/>
      </defs>
      <g>
       <use xlink:href="#m5fc0aa469c" x="30.123125" y="164.685982" style="stroke: #000000; stroke-width: 0.8"/>
      </g>
     </g>
     <g id="text_10">
      <!-- 10 -->
      <g transform="translate(10.398125 168.485201) scale(0.1 -0.1)">
       <use xlink:href="#DejaVuSans-31"/>
       <use xlink:href="#DejaVuSans-30" x="63.623047"/>
      </g>
     </g>
    </g>
    <g id="ytick_2">
     <g id="line2d_19">
      <path d="M 30.123125 142.93258 
L 426.71952 142.93258 
" clip-path="url(#p2c102aa2d2)" style="fill: none; stroke-dasharray: 0.8,1.32; stroke-dashoffset: 0; stroke: #000000; stroke-opacity: 0.5; stroke-width: 0.8"/>
     </g>
     <g id="line2d_20">
      <g>
       <use xlink:href="#m5fc0aa469c" x="30.123125" y="142.93258" style="stroke: #000000; stroke-width: 0.8"/>
      </g>
     </g>
     <g id="text_11">
      <!-- 15 -->
      <g transform="translate(10.398125 146.731799) scale(0.1 -0.1)">
       <use xlink:href="#DejaVuSans-31"/>
       <use xlink:href="#DejaVuSans-35" x="63.623047"/>
      </g>
     </g>
    </g>
    <g id="ytick_3">
     <g id="line2d_21">
      <path d="M 30.123125 121.179178 
L 426.71952 121.179178 
" clip-path="url(#p2c102aa2d2)" style="fill: none; stroke-dasharray: 0.8,1.32; stroke-dashoffset: 0; stroke: #000000; stroke-opacity: 0.5; stroke-width: 0.8"/>
     </g>
     <g id="line2d_22">
      <g>
       <use xlink:href="#m5fc0aa469c" x="30.123125" y="121.179178" style="stroke: #000000; stroke-width: 0.8"/>
      </g>
     </g>
     <g id="text_12">
      <!-- 20 -->
      <g transform="translate(10.398125 124.978397) scale(0.1 -0.1)">
       <use xlink:href="#DejaVuSans-32"/>
       <use xlink:href="#DejaVuSans-30" x="63.623047"/>
      </g>
     </g>
    </g>
    <g id="ytick_4">
     <g id="line2d_23">
      <path d="M 30.123125 99.425776 
L 426.71952 99.425776 
" clip-path="url(#p2c102aa2d2)" style="fill: none; stroke-dasharray: 0.8,1.32; stroke-dashoffset: 0; stroke: #000000; stroke-opacity: 0.5; stroke-width: 0.8"/>
     </g>
     <g id="line2d_24">
      <g>
       <use xlink:href="#m5fc0aa469c" x="30.123125" y="99.425776" style="stroke: #000000; stroke-width: 0.8"/>
      </g>
     </g>
     <g id="text_13">
      <!-- 25 -->
      <g transform="translate(10.398125 103.224995) scale(0.1 -0.1)">
       <use xlink:href="#DejaVuSans-32"/>
       <use xlink:href="#DejaVuSans-35" x="63.623047"/>
      </g>
     </g>
    </g>
    <g id="ytick_5">
     <g id="line2d_25">
      <path d="M 30.123125 77.672374 
L 426.71952 77.672374 
" clip-path="url(#p2c102aa2d2)" style="fill: none; stroke-dasharray: 0.8,1.32; stroke-dashoffset: 0; stroke: #000000; stroke-opacity: 0.5; stroke-width: 0.8"/>
     </g>
     <g id="line2d_26">
      <g>
       <use xlink:href="#m5fc0aa469c" x="30.123125" y="77.672374" style="stroke: #000000; stroke-width: 0.8"/>
      </g>
     </g>
     <g id="text_14">
      <!-- 30 -->
      <g transform="translate(10.398125 81.471593) scale(0.1 -0.1)">
       <defs>
        <path id="DejaVuSans-33" d="M 2597 2516 
Q 3050 2419 3304 2112 
Q 3559 1806 3559 1356 
Q 3559 666 3084 287 
Q 2609 -91 1734 -91 
Q 1441 -91 1130 -33 
Q 819 25 488 141 
L 488 750 
Q 750 597 1062 519 
Q 1375 441 1716 441 
Q 2309 441 2620 675 
Q 2931 909 2931 1356 
Q 2931 1769 2642 2001 
Q 2353 2234 1838 2234 
L 1294 2234 
L 1294 2753 
L 1863 2753 
Q 2328 2753 2575 2939 
Q 2822 3125 2822 3475 
Q 2822 3834 2567 4026 
Q 2313 4219 1838 4219 
Q 1578 4219 1281 4162 
Q 984 4106 628 3988 
L 628 4550 
Q 988 4650 1302 4700 
Q 1616 4750 1894 4750 
Q 2613 4750 3031 4423 
Q 3450 4097 3450 3541 
Q 3450 3153 3228 2886 
Q 3006 2619 2597 2516 
z
" transform="scale(0.015625)"/>
       </defs>
       <use xlink:href="#DejaVuSans-33"/>
       <use xlink:href="#DejaVuSans-30" x="63.623047"/>
      </g>
     </g>
    </g>
    <g id="ytick_6">
     <g id="line2d_27">
      <path d="M 30.123125 55.918972 
L 426.71952 55.918972 
" clip-path="url(#p2c102aa2d2)" style="fill: none; stroke-dasharray: 0.8,1.32; stroke-dashoffset: 0; stroke: #000000; stroke-opacity: 0.5; stroke-width: 0.8"/>
     </g>
     <g id="line2d_28">
      <g>
       <use xlink:href="#m5fc0aa469c" x="30.123125" y="55.918972" style="stroke: #000000; stroke-width: 0.8"/>
      </g>
     </g>
     <g id="text_15">
      <!-- 35 -->
      <g transform="translate(10.398125 59.718191) scale(0.1 -0.1)">
       <use xlink:href="#DejaVuSans-33"/>
       <use xlink:href="#DejaVuSans-35" x="63.623047"/>
      </g>
     </g>
    </g>
    <g id="ytick_7">
     <g id="line2d_29">
      <path d="M 30.123125 34.16557 
L 426.71952 34.16557 
" clip-path="url(#p2c102aa2d2)" style="fill: none; stroke-dasharray: 0.8,1.32; stroke-dashoffset: 0; stroke: #000000; stroke-opacity: 0.5; stroke-width: 0.8"/>
     </g>
     <g id="line2d_30">
      <g>
       <use xlink:href="#m5fc0aa469c" x="30.123125" y="34.16557" style="stroke: #000000; stroke-width: 0.8"/>
      </g>
     </g>
     <g id="text_16">
      <!-- 40 -->
      <g transform="translate(10.398125 37.964789) scale(0.1 -0.1)">
       <defs>
        <path id="DejaVuSans-34" d="M 2419 4116 
L 825 1625 
L 2419 1625 
L 2419 4116 
z
M 2253 4666 
L 3047 4666 
L 3047 1625 
L 3713 1625 
L 3713 1100 
L 3047 1100 
L 3047 0 
L 2419 0 
L 2419 1100 
L 313 1100 
L 313 1709 
L 2253 4666 
z
" transform="scale(0.015625)"/>
       </defs>
       <use xlink:href="#DejaVuSans-34"/>
       <use xlink:href="#DejaVuSans-30" x="63.623047"/>
      </g>
     </g>
    </g>
    <g id="ytick_8">
     <g id="line2d_31">
      <path d="M 30.123125 12.412168 
L 426.71952 12.412168 
" clip-path="url(#p2c102aa2d2)" style="fill: none; stroke-dasharray: 0.8,1.32; stroke-dashoffset: 0; stroke: #000000; stroke-opacity: 0.5; stroke-width: 0.8"/>
     </g>
     <g id="line2d_32">
      <g>
       <use xlink:href="#m5fc0aa469c" x="30.123125" y="12.412168" style="stroke: #000000; stroke-width: 0.8"/>
      </g>
     </g>
     <g id="text_17">
      <!-- 45 -->
      <g transform="translate(10.398125 16.211387) scale(0.1 -0.1)">
       <use xlink:href="#DejaVuSans-34"/>
       <use xlink:href="#DejaVuSans-35" x="63.623047"/>
      </g>
     </g>
    </g>
    <g id="text_18">
     <!-- 2-Norm F [N] -->
     <g transform="translate(8.318438 124.861166) rotate(-90) scale(0.1 -0.1)">
      <defs>
       <path id="DejaVuSans-2d" d="M 313 2009 
L 1997 2009 
L 1997 1497 
L 313 1497 
L 313 2009 
z
" transform="scale(0.015625)"/>
       <path id="DejaVuSans-4e" d="M 628 4666 
L 1478 4666 
L 3547 763 
L 3547 4666 
L 4159 4666 
L 4159 0 
L 3309 0 
L 1241 3903 
L 1241 0 
L 628 0 
L 628 4666 
z
" transform="scale(0.015625)"/>
       <path id="DejaVuSans-6f" d="M 1959 3097 
Q 1497 3097 1228 2736 
Q 959 2375 959 1747 
Q 959 1119 1226 758 
Q 1494 397 1959 397 
Q 2419 397 2687 759 
Q 2956 1122 2956 1747 
Q 2956 2369 2687 2733 
Q 2419 3097 1959 3097 
z
M 1959 3584 
Q 2709 3584 3137 3096 
Q 3566 2609 3566 1747 
Q 3566 888 3137 398 
Q 2709 -91 1959 -91 
Q 1206 -91 779 398 
Q 353 888 353 1747 
Q 353 2609 779 3096 
Q 1206 3584 1959 3584 
z
" transform="scale(0.015625)"/>
       <path id="DejaVuSans-72" d="M 2631 2963 
Q 2534 3019 2420 3045 
Q 2306 3072 2169 3072 
Q 1681 3072 1420 2755 
Q 1159 2438 1159 1844 
L 1159 0 
L 581 0 
L 581 3500 
L 1159 3500 
L 1159 2956 
Q 1341 3275 1631 3429 
Q 1922 3584 2338 3584 
Q 2397 3584 2469 3576 
Q 2541 3569 2628 3553 
L 2631 2963 
z
" transform="scale(0.015625)"/>
       <path id="DejaVuSans-6d" d="M 3328 2828 
Q 3544 3216 3844 3400 
Q 4144 3584 4550 3584 
Q 5097 3584 5394 3201 
Q 5691 2819 5691 2113 
L 5691 0 
L 5113 0 
L 5113 2094 
Q 5113 2597 4934 2840 
Q 4756 3084 4391 3084 
Q 3944 3084 3684 2787 
Q 3425 2491 3425 1978 
L 3425 0 
L 2847 0 
L 2847 2094 
Q 2847 2600 2669 2842 
Q 2491 3084 2119 3084 
Q 1678 3084 1418 2786 
Q 1159 2488 1159 1978 
L 1159 0 
L 581 0 
L 581 3500 
L 1159 3500 
L 1159 2956 
Q 1356 3278 1631 3431 
Q 1906 3584 2284 3584 
Q 2666 3584 2933 3390 
Q 3200 3197 3328 2828 
z
" transform="scale(0.015625)"/>
       <path id="DejaVuSans-46" d="M 628 4666 
L 3309 4666 
L 3309 4134 
L 1259 4134 
L 1259 2759 
L 3109 2759 
L 3109 2228 
L 1259 2228 
L 1259 0 
L 628 0 
L 628 4666 
z
" transform="scale(0.015625)"/>
      </defs>
      <use xlink:href="#DejaVuSans-32"/>
      <use xlink:href="#DejaVuSans-2d" x="63.623047"/>
      <use xlink:href="#DejaVuSans-4e" x="99.707031"/>
      <use xlink:href="#DejaVuSans-6f" x="174.511719"/>
      <use xlink:href="#DejaVuSans-72" x="235.693359"/>
      <use xlink:href="#DejaVuSans-6d" x="275.056641"/>
      <use xlink:href="#DejaVuSans-20" x="372.46875"/>
      <use xlink:href="#DejaVuSans-46" x="404.255859"/>
      <use xlink:href="#DejaVuSans-20" x="461.775391"/>
      <use xlink:href="#DejaVuSans-5b" x="493.5625"/>
      <use xlink:href="#DejaVuSans-4e" x="532.576172"/>
      <use xlink:href="#DejaVuSans-5d" x="607.380859"/>
     </g>
    </g>
   </g>
   <g id="line2d_33">
    <path d="M 30.123125 174.565077 
L 161.430409 174.565077 
L 161.647741 172.674893 
L 161.774107 174.498951 
L 162.150184 174.437902 
L 162.489776 174.850877 
L 163.04059 174.991545 
L 163.20909 174.905401 
L 163.378075 174.997094 
L 163.547253 174.746925 
L 163.75957 174.922411 
L 163.888791 174.835922 
L 164.227888 174.89661 
L 164.397313 174.620067 
L 164.437407 174.931345 
L 164.776901 174.825728 
L 165.327057 174.929245 
L 165.498933 174.893387 
L 165.668752 174.563893 
L 165.879072 174.922831 
L 166.228054 174.931778 
L 166.352036 175.072552 
L 166.519579 175.014148 
L 166.730772 175.064574 
L 166.900755 174.909061 
L 167.112034 174.540113 
L 167.387649 174.798944 
L 167.41151 175.015115 
L 167.875157 174.782256 
L 167.959347 174.996 
L 168.301554 174.778807 
L 168.509423 174.78597 
L 168.636955 174.024109 
L 168.806665 175.044733 
L 168.975755 174.596647 
L 169.188343 174.895761 
L 169.398865 174.304532 
L 169.52595 175.10679 
L 169.865192 174.364593 
L 170.090275 174.865052 
L 170.299437 174.627423 
L 170.553549 174.795294 
L 170.935084 174.583855 
L 171.316425 174.553165 
L 171.826086 175.104918 
L 172.121494 174.433114 
L 172.1643 175.208823 
L 172.333815 174.916479 
L 172.671992 174.774587 
L 172.842744 174.992168 
L 173.016003 174.775889 
L 173.223325 175.287512 
L 173.353007 175.308944 
L 173.773281 174.668651 
L 173.900679 175.139655 
L 174.155156 174.806503 
L 174.324346 174.156739 
L 174.451892 175.027227 
L 174.620548 174.652109 
L 174.789893 174.605212 
L 175.002524 175.020417 
L 175.425974 175.18042 
L 175.553177 174.679201 
L 175.764443 174.70579 
L 175.852121 174.865948 
L 176.063313 174.724561 
L 176.359697 174.103231 
L 176.557477 174.885498 
L 176.719713 174.773134 
L 176.889358 175.226284 
L 177.248345 174.861888 
L 177.417469 175.406112 
L 177.745055 174.7579 
L 177.928492 174.770884 
L 178.137435 175.176353 
L 178.30762 174.647323 
L 178.476795 175.3271 
L 178.645429 175.355428 
L 178.814977 175.043833 
L 179.111537 174.116742 
L 179.408577 175.459654 
L 179.748024 174.235955 
L 179.888847 174.887443 
L 180.110483 175.035287 
L 180.299667 175.010128 
L 180.385117 174.561123 
L 180.767029 175.250569 
L 180.936557 176.053752 
L 181.147761 174.668332 
L 181.276348 174.860511 
L 181.486416 173.965168 
L 181.656413 174.187895 
L 181.868315 175.566826 
L 182.038772 175.435821 
L 182.168052 174.675481 
L 182.335043 175.077393 
L 182.546678 175.998436 
L 182.673868 174.757911 
L 182.886974 174.491558 
L 183.097042 175.214756 
L 183.224961 175.117363 
L 183.394285 175.518438 
L 183.56438 173.991519 
L 183.734671 175.272991 
L 183.902566 174.612253 
L 184.198964 174.89704 
L 184.453401 173.795178 
L 184.496864 175.481743 
L 184.622598 174.391884 
L 184.79248 174.63185 
L 184.962167 175.223069 
L 185.132542 174.546651 
L 185.428824 174.619143 
L 185.51484 175.207754 
L 185.725282 173.673904 
L 185.853201 175.604075 
L 186.27569 174.586685 
L 186.446299 174.74613 
L 186.540187 173.637254 
L 186.741041 174.4726 
L 186.953119 173.457938 
L 187.187454 175.099156 
L 187.359619 175.101046 
L 187.463302 174.308931 
L 187.67454 174.052624 
L 187.760693 174.839786 
L 187.971573 174.374379 
L 188.226147 175.135355 
L 188.491706 175.248173 
L 188.690603 174.047363 
L 188.95567 174.832836 
L 189.034432 174.57753 
L 189.368239 174.852073 
L 189.537382 176.397207 
L 189.791526 175.67441 
L 189.918795 173.510379 
L 190.215079 174.587583 
L 190.299801 174.052162 
L 190.469311 174.820187 
L 190.597566 173.6584 
L 190.851555 174.915254 
L 191.146984 175.113674 
L 191.318034 176.153496 
L 191.613169 174.260873 
L 191.784344 175.040362 
L 191.952319 172.904912 
L 191.995124 175.55974 
L 192.164023 175.909485 
L 192.376287 175.386897 
L 192.593747 175.884372 
L 192.75751 174.542274 
L 192.927232 174.892353 
L 193.066702 174.655565 
L 193.308105 175.823856 
L 193.477626 173.552032 
L 193.616064 174.219163 
L 193.775259 175.738927 
L 193.960333 174.9016 
L 194.114193 174.956711 
L 194.325277 176.175645 
L 194.578832 176.30041 
L 195.129368 174.857876 
L 195.172747 173.891903 
L 195.596059 175.125688 
L 195.768817 173.316801 
L 195.892599 174.919702 
L 196.275111 175.806941 
L 196.403413 174.840292 
L 196.739915 174.402165 
L 196.915731 172.658777 
L 197.121037 174.646658 
L 197.248351 174.77387 
L 197.48015 175.635351 
L 197.657781 174.693322 
L 197.969721 174.327723 
L 198.239367 175.352325 
L 198.435481 175.436823 
L 198.52381 175.846596 
L 198.775256 176.12388 
L 198.861797 174.107215 
L 199.07134 175.31231 
L 199.203239 174.824889 
L 199.668983 175.520543 
L 199.749301 176.478089 
L 200.053775 173.900247 
L 200.187826 173.956889 
L 200.301521 175.467965 
L 200.430514 174.773946 
L 200.683007 176.125351 
L 200.788702 174.02023 
L 201.024141 176.293589 
L 201.362048 175.564982 
L 201.490806 174.689909 
L 201.700635 174.970764 
L 201.828146 175.413511 
L 202.039924 174.464808 
L 202.20971 174.381785 
L 202.463202 173.143165 
L 202.590877 175.618281 
L 202.89932 173.9782 
L 203.098227 175.566593 
L 203.228071 174.628658 
L 203.268613 172.73078 
L 203.56718 174.784711 
L 203.947169 172.908766 
L 204.116307 173.893901 
L 204.370741 177.565985 
L 204.672472 172.519988 
L 204.836717 175.033737 
L 205.009713 175.899249 
L 205.218008 174.688052 
L 205.344681 173.088592 
L 205.51642 174.558701 
L 205.810796 174.775433 
L 205.896329 173.488029 
L 206.06549 176.818178 
L 206.238494 173.999639 
L 206.405158 174.320347 
L 206.577675 173.288101 
L 206.746714 174.295754 
L 206.928078 174.503618 
L 207.08564 176.406036 
L 207.381778 175.028677 
L 207.469729 173.332199 
L 207.636659 174.819204 
L 207.805922 174.030009 
L 208.187965 176.447211 
L 208.334182 175.869029 
L 208.486494 172.012262 
L 209.035642 176.468713 
L 209.120881 174.435752 
L 209.204924 176.512287 
L 209.50165 172.623593 
L 209.548127 175.260194 
L 209.744813 175.069547 
L 209.936743 175.369536 
L 210.067739 176.013365 
L 210.433873 172.689393 
L 210.602746 174.639654 
L 210.814813 174.477422 
L 210.984208 175.173423 
L 211.15356 173.539198 
L 211.495787 174.216181 
L 211.662933 173.539859 
L 211.873967 176.833126 
L 212.048403 174.273359 
L 212.213597 174.001309 
L 212.550962 175.812927 
L 212.937302 173.74329 
L 213.101394 173.8627 
L 213.276463 174.23206 
L 213.441322 173.983541 
L 213.570151 174.962821 
L 213.821911 174.927201 
L 213.957283 173.876856 
L 214.161025 174.116575 
L 214.290003 173.347215 
L 214.50994 173.311291 
L 214.627553 176.495786 
L 214.798203 174.861654 
L 215.009468 174.734179 
L 215.178289 172.899258 
L 215.347589 177.399502 
L 215.701621 174.757742 
L 216.238345 177.033501 
L 216.407831 173.851547 
L 216.748703 173.86979 
L 217.043154 174.208081 
L 217.127931 176.288372 
L 217.339682 173.285527 
L 217.467122 174.919132 
L 217.720897 174.100462 
L 217.847967 176.982309 
L 217.976159 172.923936 
L 218.356098 176.405254 
L 218.500881 175.447839 
L 218.700664 175.986184 
L 218.908907 175.985511 
L 219.120212 173.860868 
L 219.501498 176.035975 
L 219.924913 172.976087 
L 220.136612 175.570165 
L 220.266396 172.037294 
L 220.51958 172.474652 
L 220.6452 175.159009 
L 220.815411 173.542404 
L 220.953662 175.0144 
L 221.423255 174.54543 
L 221.596192 174.099476 
L 221.715544 172.783201 
L 221.879837 177.499823 
L 222.263727 175.107184 
L 222.439627 176.328459 
L 222.600834 173.736786 
L 222.70171 175.70267 
L 223.039195 173.00593 
L 223.090016 174.628709 
L 223.294282 174.326791 
L 223.463483 172.564726 
L 223.591938 175.332771 
L 223.8448 177.810222 
L 223.971979 174.412092 
L 224.234153 173.292014 
L 224.35494 174.223185 
L 224.52279 176.472493 
L 224.866834 172.388334 
L 225.03118 174.533178 
L 225.285092 174.555536 
L 225.372097 151.148547 
L 225.624863 154.520534 
L 225.793466 154.364096 
L 226.09929 170.318296 
L 226.344051 168.917984 
L 226.430524 173.869252 
L 226.599023 175.399037 
L 226.811414 174.409245 
L 227.064697 174.654716 
L 227.127607 175.2539 
L 227.365275 175.878462 
L 227.674485 175.239925 
L 227.847389 175.177803 
L 228.060798 174.253326 
L 228.142151 174.883094 
L 228.355992 174.495376 
L 228.60645 174.443354 
L 228.817729 174.68793 
L 228.902703 174.465899 
L 229.029989 174.689737 
L 229.285671 174.394674 
L 229.623898 174.548085 
L 230.132561 174.439918 
L 230.429409 174.565078 
L 230.640215 174.470921 
L 230.810847 174.565077 
L 230.979436 174.402006 
L 231.322223 174.56178 
L 231.531017 174.393014 
L 231.871564 174.563646 
L 233.013519 174.508922 
L 233.098697 175.055832 
L 233.609304 174.524967 
L 233.819635 174.572049 
L 234.497257 174.485 
L 236.064469 174.740219 
L 236.234316 174.509835 
L 237.504269 174.561216 
L 239.07193 174.563231 
L 239.240718 174.704754 
L 239.626172 174.549245 
L 242.208459 174.558753 
L 246.44791 174.565126 
L 246.957153 174.565076 
L 268.529896 174.510197 
L 268.571647 174.343372 
L 268.829844 174.563625 
L 290.572579 174.495564 
L 290.88333 174.563395 
L 296.711246 174.55827 
L 299.140187 174.557538 
L 301.795353 174.534843 
L 302.474282 174.563695 
L 302.852799 174.557342 
L 302.858849 170.872811 
L 303.025616 174.564184 
L 303.747292 174.564363 
L 307.948969 174.528393 
L 308.113935 174.438747 
L 308.283938 174.564834 
L 308.623 174.484416 
L 309.175719 174.564754 
L 309.34322 167.820274 
L 309.513708 171.607939 
L 309.688532 171.131873 
L 309.867755 172.007139 
L 310.032922 173.968707 
L 310.199132 172.148729 
L 310.383457 173.081782 
L 310.622084 173.103781 
L 310.83998 175.178331 
L 310.932718 174.570574 
L 311.134853 174.282347 
L 311.307739 176.880255 
L 311.772921 173.437771 
L 312.15808 176.478865 
L 312.495638 174.489331 
L 312.759017 175.241303 
L 312.873276 176.963736 
L 313.088602 174.326084 
L 313.255523 174.635196 
L 313.424762 175.405085 
L 313.63831 173.954582 
L 313.808485 174.912251 
L 314.027175 172.904213 
L 314.129018 174.257705 
L 314.236538 174.041064 
L 314.617614 175.890833 
L 314.841693 175.149901 
L 314.959422 175.14765 
L 315.208158 173.880643 
L 315.353341 174.773794 
L 315.505385 172.315513 
L 315.718049 173.845665 
L 315.844835 177.095592 
L 316.014367 175.230957 
L 316.18625 177.376567 
L 316.523845 173.413657 
L 316.777556 175.437094 
L 316.9048 174.978022 
L 317.093199 174.829515 
L 317.245815 177.408361 
L 317.53417 173.028725 
L 317.836171 175.436649 
L 317.999929 174.948343 
L 318.211707 175.744148 
L 318.339887 173.680862 
L 318.805448 175.416567 
L 318.892064 174.571222 
L 319.06051 174.318752 
L 319.189535 175.078167 
L 319.441923 174.190796 
L 319.714807 175.950555 
L 319.908715 175.579045 
L 320.078216 174.320367 
L 320.250245 174.897923 
L 320.417946 177.486784 
L 320.590623 175.173579 
L 320.757625 176.587153 
L 320.927305 174.63467 
L 321.27005 173.355969 
L 321.482542 175.785096 
L 321.82189 173.360053 
L 321.991001 173.321381 
L 322.161199 175.491824 
L 322.456979 175.022416 
L 322.519366 174.436064 
L 322.711929 176.099525 
L 322.923035 174.227438 
L 323.134746 174.687534 
L 323.262785 173.351947 
L 323.432248 173.927582 
L 323.606653 175.357603 
L 323.900399 174.944856 
L 324.069673 176.416363 
L 324.246903 176.497677 
L 324.629377 173.933131 
L 324.795161 173.79018 
L 325.059262 174.571897 
L 325.175199 174.503191 
L 325.215569 175.811942 
L 325.300658 174.745255 
L 325.531684 174.424716 
L 325.681534 172.897073 
L 325.980335 175.241367 
L 326.038276 173.333253 
L 326.19801 173.699305 
L 326.36067 177.427282 
L 326.530628 173.126776 
L 326.830195 173.783265 
L 326.96482 174.943456 
L 327.132749 172.160891 
L 327.260602 174.323967 
L 327.557074 176.552674 
L 327.600188 174.127477 
L 327.897245 177.603765 
L 328.066625 174.963209 
L 328.110356 175.48108 
L 328.404435 174.022681 
L 328.489361 172.867907 
L 328.828389 175.4273 
L 329.124871 174.474762 
L 329.209731 174.815099 
L 329.379625 173.853418 
L 329.553202 174.911814 
L 329.591774 174.176632 
L 329.719839 174.653757 
L 329.888578 172.747714 
L 330.059976 174.832031 
L 330.270216 173.156675 
L 330.398043 174.572325 
L 330.625258 174.238081 
L 330.739155 173.809722 
L 331.120495 175.212057 
L 331.292741 174.979067 
L 331.503014 174.468069 
L 331.800462 171.862719 
L 332.012465 176.034236 
L 332.145014 174.498544 
L 332.540626 175.71081 
L 332.69292 172.622483 
L 332.876478 174.044722 
L 333.199908 173.781151 
L 333.375719 176.305288 
L 333.588213 174.330194 
L 333.759582 174.197797 
L 333.971786 172.027903 
L 334.138502 175.13776 
L 334.308869 173.642549 
L 334.436495 174.416531 
L 334.648455 177.064256 
L 334.817489 175.213591 
L 335.100227 174.507431 
L 335.330514 176.376899 
L 335.608172 175.305777 
L 335.709492 173.740587 
L 335.927626 175.26852 
L 336.048469 173.196369 
L 336.224944 175.250123 
L 336.732337 174.132579 
L 336.899337 174.394071 
L 337.117574 174.317999 
L 337.293661 174.555661 
L 337.45257 172.028918 
L 337.621031 175.334302 
L 338.003609 172.399903 
L 338.133824 176.781543 
L 338.344558 174.971652 
L 338.554274 174.359858 
L 338.681783 174.623027 
L 338.978796 174.559027 
L 339.224828 176.20424 
L 339.55743 172.232555 
L 339.772122 175.692632 
L 339.903329 173.954244 
L 340.451162 175.895693 
L 340.586125 173.197789 
L 340.959208 176.999602 
L 341.128984 174.765217 
L 341.297951 174.268593 
L 341.467727 174.904464 
L 341.637972 173.285616 
L 341.934351 173.93926 
L 342.040347 175.046866 
L 342.316368 174.101054 
L 342.400863 175.941964 
L 342.57043 174.860755 
L 342.739913 176.725687 
L 342.951477 174.699565 
L 343.045446 174.744355 
L 343.229872 175.340836 
L 343.421786 174.265156 
L 343.631449 174.91627 
L 343.772636 174.052394 
L 343.928841 175.331977 
L 344.099908 172.518513 
L 344.369857 174.395137 
L 344.482231 173.577546 
L 344.840167 176.0436 
L 345.20713 173.314043 
L 345.551427 174.574258 
L 345.720959 174.432596 
L 345.902944 174.05479 
L 346.109687 174.3765 
L 346.196103 175.003321 
L 346.403821 174.70549 
L 346.615837 172.662515 
L 346.827707 174.759044 
L 346.912651 174.526691 
L 347.299523 174.551277 
L 347.475644 173.887921 
L 347.803881 174.191193 
L 348.015753 173.57299 
L 348.185291 174.515164 
L 348.356313 173.928325 
L 348.523586 174.247116 
L 348.693007 175.459971 
L 349.037588 173.883549 
L 349.203793 174.574693 
L 349.372161 174.447219 
L 349.628176 175.11067 
L 349.925185 174.901863 
L 350.135832 175.868312 
L 350.517122 172.373952 
L 350.696331 174.703619 
L 350.814637 173.868677 
L 351.026666 174.895445 
L 351.195685 173.130836 
L 351.365194 174.293029 
L 351.509094 173.993415 
L 351.662543 176.275819 
L 351.877094 176.491823 
L 352.08531 174.928092 
L 352.260707 174.653484 
L 352.382909 175.859823 
L 352.554141 172.822265 
L 352.721976 173.908114 
L 352.946188 174.52688 
L 353.073397 174.300694 
L 353.242657 175.490674 
L 353.625083 174.133435 
L 353.836757 173.207509 
L 353.966397 174.247581 
L 354.13657 174.575236 
L 354.302646 174.575124 
L 354.642624 172.314523 
L 354.85508 175.382285 
L 355.065817 174.144331 
L 355.192719 174.656496 
L 355.407921 176.256915 
L 355.577038 174.211878 
L 355.745361 173.9262 
L 355.949287 174.240535 
L 356.230991 174.048166 
L 356.426715 174.413326 
L 356.671555 175.98671 
L 356.811993 173.238011 
L 357.150855 175.584812 
L 357.320675 171.905215 
L 357.490528 175.3449 
L 357.659579 174.252247 
L 357.829417 174.425853 
L 358.000876 176.154741 
L 358.211171 175.209817 
L 358.338888 172.638571 
L 358.563499 174.873584 
L 358.592695 174.479936 
L 358.933889 173.279862 
L 359.144002 174.367928 
L 359.270827 173.286755 
L 359.61245 175.124515 
L 359.653534 175.05805 
L 359.780237 172.516531 
L 359.954146 174.446242 
L 360.091177 174.56247 
L 360.299197 174.57601 
L 360.458851 176.695717 
L 360.629134 175.273867 
L 360.882914 174.104692 
L 361.010032 174.24817 
L 361.136887 171.944069 
L 361.476397 175.181904 
L 361.733628 175.163301 
L 361.905786 174.268161 
L 362.073701 175.015703 
L 362.240222 174.449747 
L 362.409393 174.958368 
L 362.584077 176.087093 
L 362.925742 173.970176 
L 363.100977 174.631327 
L 363.270181 173.508264 
L 363.608964 175.20117 
L 363.820669 173.506988 
L 363.951776 175.83381 
L 364.375902 172.516788 
L 364.541341 173.337672 
L 364.881542 175.912612 
L 365.182518 172.501881 
L 365.220012 175.379325 
L 365.389482 172.924954 
L 365.729557 174.300913 
L 365.900584 176.329164 
L 366.252308 174.340315 
L 366.468812 174.492505 
L 366.621035 173.842615 
L 366.803444 173.741732 
L 366.960622 175.108673 
L 367.130638 175.099072 
L 367.301033 173.537075 
L 367.522782 174.020357 
L 367.81022 174.132606 
L 367.853767 174.718063 
L 368.020944 174.097931 
L 368.364098 174.27067 
L 368.487176 174.524889 
L 368.580732 173.202235 
L 368.71389 175.946304 
L 368.967875 171.885206 
L 369.282241 175.004528 
L 369.444481 174.648817 
L 369.614449 173.997766 
L 369.78692 174.207833 
L 370.044403 173.241952 
L 370.32658 175.349082 
L 370.580304 174.550099 
L 370.712625 176.017994 
L 370.837374 174.760903 
L 371.047021 177.058294 
L 371.388147 173.269171 
L 371.600365 174.151252 
L 371.727157 174.163913 
L 371.910777 174.759405 
L 372.150169 176.247723 
L 372.245959 174.233509 
L 372.446198 178.255857 
L 372.657878 176.119253 
L 372.956296 176.960801 
L 373.138061 177.282885 
L 373.336976 176.080907 
L 373.509424 175.768076 
L 373.677146 176.147709 
L 373.850257 174.450701 
L 374.025452 175.253749 
L 374.229445 174.179835 
L 374.667174 174.286425 
L 374.831501 174.49033 
L 377.03422 174.570757 
L 377.543905 174.567822 
L 378.860633 174.543655 
L 378.94467 174.340782 
L 379.121274 174.594849 
L 379.925155 174.575857 
L 380.096586 174.532368 
L 380.476163 174.559662 
L 381.542275 174.552097 
L 381.752736 174.417592 
L 381.919293 174.690569 
L 382.257824 174.563715 
L 382.61643 174.598019 
L 387.614948 174.565077 
L 390.112289 174.5657 
L 426.71952 174.565077 
L 426.71952 174.565077 
" clip-path="url(#p2c102aa2d2)" style="fill: none; stroke: #0000ff; stroke-opacity: 0.5; stroke-width: 1.75; stroke-linecap: square"/>
   </g>
   <g id="line2d_34">
    <path d="M 30.123125 131.145064 
L 30.208488 127.126333 
L 30.38112 134.023033 
L 30.431722 128.606484 
L 30.772923 133.718924 
L 30.979421 130.68033 
L 31.106137 133.454071 
L 31.402453 130.836938 
L 31.572361 132.086527 
L 31.614792 135.333423 
L 32.080767 133.534787 
L 32.165811 134.06859 
L 32.295439 133.736162 
L 32.632481 134.527778 
L 32.842987 130.873433 
L 33.055706 132.926977 
L 33.268349 131.22752 
L 33.436114 127.478584 
L 33.65902 134.849648 
L 33.733067 130.145301 
L 33.902213 133.337565 
L 34.073192 127.496613 
L 34.456218 132.312348 
L 34.623026 133.509049 
L 34.792314 129.948719 
L 35.004698 129.866763 
L 35.217166 133.960908 
L 35.350095 133.545935 
L 35.575958 134.022306 
L 35.685478 128.26047 
L 35.854751 134.469903 
L 36.024422 130.492087 
L 36.322214 135.52838 
L 36.450681 132.576788 
L 36.533033 136.362927 
L 36.707029 136.319305 
L 36.875698 134.677891 
L 37.046755 136.366315 
L 37.254824 134.790185 
L 37.683956 137.462552 
L 38.608725 137.413544 
L 39.536236 132.192935 
L 40.463158 128.94362 
L 41.391153 131.420213 
L 42.318328 136.524506 
L 43.330632 138.039446 
L 44.34217 133.23004 
L 45.269824 131.424992 
L 45.369758 133.05326 
L 45.708017 129.154495 
L 45.877769 129.399097 
L 46.088886 130.547456 
L 46.301898 128.307592 
L 46.429413 134.415592 
L 46.597578 136.354336 
L 46.728516 126.599822 
L 47.110804 131.517894 
L 47.277811 126.495259 
L 47.616976 139.229129 
L 47.998477 128.237496 
L 48.338244 130.046216 
L 48.760858 136.154509 
L 48.845565 129.301525 
L 49.015445 135.559522 
L 49.186066 134.946611 
L 49.408084 129.812072 
L 49.743772 137.679713 
L 49.94869 132.038739 
L 50.077597 134.280954 
L 50.289688 135.958807 
L 50.33086 131.387982 
L 50.457528 130.575765 
L 50.67191 138.417975 
L 50.795942 135.666869 
L 50.966728 128.175684 
L 51.1772 126.503319 
L 51.389088 127.79582 
L 51.516385 130.94051 
L 51.645131 130.163098 
L 51.813099 127.678705 
L 52.237339 136.286083 
L 52.577616 124.489168 
L 52.8816 138.573346 
L 53.090912 131.683546 
L 53.4284 135.513237 
L 53.514064 139.752475 
L 53.63942 133.841948 
L 53.981045 131.567921 
L 54.190384 133.501573 
L 54.360996 140.401785 
L 54.48738 136.322314 
L 54.956028 129.497955 
L 55.165885 129.091823 
L 55.20779 132.013658 
L 55.377391 133.633465 
L 55.546953 133.594341 
L 55.716787 136.077911 
L 55.928163 134.98985 
L 56.139811 127.176913 
L 56.312152 130.889189 
L 56.4434 136.36729 
L 56.572778 136.854159 
L 56.606232 136.215604 
L 56.776278 136.216992 
L 56.987171 130.056111 
L 57.114741 130.372577 
L 57.328375 131.518985 
L 57.495423 125.844976 
L 57.835247 138.201988 
L 58.215793 125.238821 
L 58.343674 130.654266 
L 58.895175 135.996615 
L 59.063704 134.044702 
L 59.234137 137.387219 
L 59.571962 128.239178 
L 59.963363 144.349371 
L 60.292911 134.210201 
L 60.464848 138.601744 
L 60.800951 137.417722 
L 60.886003 130.797631 
L 60.976822 131.825346 
L 61.146068 140.423572 
L 61.352046 136.966494 
L 61.479737 129.897604 
L 61.902674 138.893475 
L 62.198876 123.185252 
L 62.36954 125.74734 
L 62.538159 135.165644 
L 62.752209 133.34971 
L 62.961974 127.373537 
L 63.258885 138.551889 
L 63.427609 138.505881 
L 63.597276 135.738225 
L 63.76698 135.913019 
L 64.029328 135.356328 
L 64.401846 127.992284 
L 64.656742 139.419749 
L 64.826183 135.941102 
L 65.207701 124.61489 
L 65.720106 137.68349 
L 66.013967 136.693879 
L 66.097843 137.263533 
L 66.395078 136.78379 
L 66.733393 128.617981 
L 66.782278 131.741467 
L 67.114427 133.4343 
L 67.622787 131.915496 
L 67.919579 130.615779 
L 68.173461 133.384195 
L 68.384964 132.800272 
L 68.682072 128.170325 
L 68.850587 128.948785 
L 69.444074 139.35317 
L 69.784553 126.958031 
L 70.166071 141.881735 
L 70.292117 141.122495 
L 70.632917 134.430542 
L 71.034776 132.80133 
L 71.311757 131.040163 
L 71.435988 137.742705 
L 71.482825 142.048517 
L 71.903091 127.894113 
L 72.2541 140.162717 
L 72.455647 139.03822 
L 72.554617 130.622064 
L 72.750938 124.313914 
L 73.139466 134.356977 
L 73.352587 128.03802 
L 73.534686 128.196176 
L 73.686789 133.058486 
L 74.109921 134.438497 
L 74.206045 124.119242 
L 75.159978 125.448511 
L 76.081987 127.614311 
L 77.097444 129.70737 
L 77.153734 117.494482 
L 77.281491 115.435671 
L 77.708508 131.459227 
L 77.87466 140.289936 
L 78.143561 143.796976 
L 78.31357 138.598076 
L 78.39985 127.796468 
L 78.704535 119.922334 
L 79.296356 135.8176 
L 79.42202 136.732515 
L 79.63493 129.542587 
L 79.765191 120.792992 
L 79.973202 117.114636 
L 80.159603 123.284953 
L 80.312528 134.365009 
L 80.568021 143.624048 
L 80.652533 143.072387 
L 81.206572 114.019406 
L 81.33338 115.927865 
L 81.687253 133.78523 
L 81.857033 133.851444 
L 82.060342 127.461788 
L 82.227359 126.568969 
L 82.738078 141.947866 
L 82.924288 137.56197 
L 83.302809 131.577068 
L 83.456336 127.013234 
L 83.63199 131.544436 
L 83.848819 132.802363 
L 84.166656 119.062798 
L 84.410101 120.02207 
L 84.716258 138.501411 
L 85.159252 141.319012 
L 85.357534 126.025549 
L 85.419919 123.935335 
L 85.542125 128.888239 
L 85.760406 130.455928 
L 86.007739 130.988403 
L 86.091968 131.812917 
L 86.261366 131.176916 
L 86.430774 129.100425 
L 86.642608 129.200587 
L 86.772047 130.173501 
L 86.945622 135.809815 
L 87.163022 139.005242 
L 87.285041 138.802515 
L 87.541958 139.095932 
L 87.708257 142.899314 
L 87.919858 143.71294 
L 88.007979 138.222439 
L 88.259181 132.03093 
L 88.478016 135.69602 
L 88.555769 146.946534 
L 88.703034 149.605261 
L 89.065717 136.882325 
L 89.40608 145.721557 
L 89.574916 144.130712 
L 89.912507 144.02556 
L 89.959224 145.465818 
L 90.598033 119.687409 
L 90.674914 127.875452 
L 90.886679 129.456846 
L 91.142734 120.770106 
L 91.352076 121.626389 
L 91.564522 119.887909 
L 91.693136 117.287487 
L 91.904328 121.231006 
L 92.210212 135.664083 
L 92.416413 132.263174 
L 92.589249 127.355332 
L 92.757533 128.26648 
L 92.923153 130.268694 
L 93.30467 125.111379 
L 93.558891 127.803006 
L 93.812986 135.021153 
L 94.067396 134.727808 
L 94.152397 134.10424 
L 94.321589 133.695578 
L 94.534259 133.852835 
L 94.744749 133.665675 
L 94.956318 134.4673 
L 95.043538 135.784944 
L 95.719508 125.466573 
L 96.142608 130.892817 
L 96.270676 130.965652 
L 96.4408 131.591534 
L 97.129176 141.305086 
L 97.343804 144.092528 
L 97.713015 136.028071 
L 98.031821 145.811197 
L 98.532253 126.522705 
L 98.699728 135.952398 
L 98.921218 141.562199 
L 99.24997 130.3 
L 99.632046 135.252673 
L 99.801014 130.798179 
L 100.056713 127.105092 
L 100.232471 131.508275 
L 100.48223 142.475606 
L 100.862866 135.664042 
L 101.169278 142.066418 
L 101.424267 139.323714 
L 101.580071 135.983346 
L 101.793685 135.656842 
L 102.17398 132.561975 
L 102.259348 131.704473 
L 102.428275 131.696198 
L 102.600153 132.981935 
L 102.778668 129.331817 
L 103.109116 117.737572 
L 103.458469 124.430801 
L 103.629478 142.066144 
L 103.83995 138.641082 
L 104.179537 122.289084 
L 104.348181 122.581027 
L 104.861498 142.20639 
L 105.196351 135.552674 
L 105.407663 128.739008 
L 105.920254 143.346992 
L 106.085239 140.085948 
L 106.556796 120.063386 
L 106.635594 121.396782 
L 107.02132 135.817324 
L 107.317946 124.190593 
L 107.526366 124.779796 
L 107.864233 133.697827 
L 108.160745 136.187249 
L 108.37316 128.240437 
L 108.71261 128.13215 
L 108.923928 130.621756 
L 109.094448 128.870811 
L 109.390491 123.164238 
L 109.43308 120.089777 
L 109.686736 124.849078 
L 109.771592 135.133947 
L 110.025427 140.640727 
L 110.331598 134.058665 
L 110.579731 126.04864 
L 110.871475 138.486771 
L 111.040865 139.199562 
L 111.382243 130.792891 
L 111.422378 126.657891 
L 111.635591 122.373999 
L 111.889409 135.942102 
L 112.155737 138.724138 
L 112.439222 121.653529 
L 112.651028 121.56339 
L 113.160063 143.285056 
L 113.330162 142.206677 
L 113.585399 134.586945 
L 113.672587 128.440685 
L 113.839121 131.832911 
L 114.219957 152.563706 
L 114.389284 151.819647 
L 114.856487 124.915131 
L 115.109182 122.367031 
L 115.576242 136.801819 
L 116.126303 116.69301 
L 116.341303 121.415659 
L 116.635127 143.666452 
L 116.931086 146.933921 
L 117.189093 129.696035 
L 117.355276 127.287657 
L 117.873292 148.403127 
L 118.036874 145.308356 
L 118.416013 129.995358 
L 118.587797 132.633816 
L 118.928517 149.670517 
L 119.094154 146.452761 
L 119.441103 126.774542 
L 119.602122 127.616933 
L 119.857101 131.715423 
L 120.025534 132.479323 
L 120.195827 129.148958 
L 120.492182 117.572265 
L 120.66241 119.559608 
L 120.831309 124.765844 
L 121.084259 128.400099 
L 121.380579 118.457622 
L 121.592624 119.597388 
L 121.974815 136.238579 
L 122.10203 135.63104 
L 122.271157 135.737879 
L 122.440968 135.260987 
L 122.779483 138.544069 
L 122.991122 138.423992 
L 123.249732 136.79562 
L 123.371876 134.192145 
L 123.50009 134.003663 
L 123.839571 137.90288 
L 124.179838 132.550957 
L 124.478573 133.514443 
L 124.602127 135.350595 
L 125.110134 136.186064 
L 125.280282 136.199128 
L 125.410784 131.818501 
L 125.599538 129.346686 
L 125.957627 137.28423 
L 126.219267 131.908014 
L 126.29772 125.6441 
L 126.539757 129.716672 
L 126.650832 139.868108 
L 126.808046 139.830721 
L 127.190535 129.590821 
L 127.527837 140.923305 
L 127.909631 130.316379 
L 128.260753 138.734311 
L 128.594748 127.118056 
L 129.096598 138.804777 
L 129.646052 128.428354 
L 129.996863 129.352313 
L 130.366279 144.905016 
L 130.663144 146.838487 
L 130.929592 131.876362 
L 131.085985 135.032283 
L 131.235404 144.927499 
L 131.405396 148.032884 
L 131.740532 136.683815 
L 131.911909 134.984133 
L 132.079235 135.619895 
L 132.334861 131.203977 
L 132.588088 131.296662 
L 132.973367 138.403611 
L 133.156744 139.435377 
L 133.32576 139.485287 
L 133.876458 131.75909 
L 134.218447 139.196064 
L 134.397765 135.278253 
L 134.569699 127.095207 
L 134.809582 122.611165 
L 135.105976 138.278827 
L 135.276098 138.951804 
L 135.614497 123.648224 
L 135.79731 124.400208 
L 136.037736 128.941974 
L 136.334538 130.534215 
L 136.546178 132.789169 
L 136.715717 133.135992 
L 136.842814 132.259109 
L 137.011745 133.275196 
L 137.181594 133.024098 
L 137.520829 131.536592 
L 137.689495 128.581715 
L 137.774251 130.899577 
L 138.071651 146.603241 
L 138.282334 141.420617 
L 138.417128 133.747058 
L 138.62194 134.999736 
L 138.964678 152.136184 
L 139.182907 153.668684 
L 139.814159 121.776141 
L 139.983065 129.987846 
L 140.15563 132.961175 
L 140.575231 119.394608 
L 140.955763 127.152043 
L 141.083839 127.845359 
L 141.295663 129.774692 
L 141.466441 136.049926 
L 141.676069 139.050394 
L 141.761051 133.273126 
L 141.930554 131.908526 
L 142.099736 139.706446 
L 142.311191 137.749705 
L 142.441912 127.056872 
L 142.649963 126.629567 
L 142.989577 142.194251 
L 143.331007 134.81614 
L 143.500232 139.15245 
L 143.68294 138.192025 
L 143.922243 129.793693 
L 144.094788 135.100447 
L 144.221453 143.799004 
L 144.641652 132.355665 
L 144.933228 143.507036 
L 145.111691 141.037363 
L 145.278414 131.910468 
L 145.44924 131.54869 
L 145.634379 141.489138 
L 145.797039 142.237644 
L 146.045301 135.767808 
L 146.173087 135.807704 
L 146.342614 139.398045 
L 146.511827 140.170593 
L 146.765489 138.201257 
L 146.8503 136.170566 
L 147.022582 136.063007 
L 147.231808 138.080466 
L 147.443022 138.219959 
L 147.570049 139.144521 
L 147.73987 138.815359 
L 147.996616 138.616443 
L 148.078507 137.813692 
L 148.33224 136.450642 
L 148.502702 137.47138 
L 148.798095 150.801136 
L 148.974277 149.17393 
L 149.307607 138.428896 
L 149.492624 136.335147 
L 149.731464 144.538247 
L 149.943028 140.132147 
L 150.196917 126.888811 
L 150.366789 126.920388 
L 150.537825 128.728367 
L 150.748112 127.064014 
L 151.003534 127.677172 
L 151.094299 130.33142 
L 151.257304 131.399484 
L 151.426191 129.436041 
L 151.730476 128.772745 
L 151.893861 131.603753 
L 151.978792 136.342667 
L 152.148857 134.26218 
L 152.316656 128.791252 
L 152.656174 125.741813 
L 152.993937 120.947934 
L 153.346554 132.559686 
L 153.672497 131.000344 
L 153.715444 123.785298 
L 153.884187 117.329138 
L 154.054029 116.538472 
L 154.604456 142.573376 
L 155.283771 114.213298 
L 155.452561 114.97165 
L 155.962116 130.613088 
L 156.172913 127.828772 
L 156.342312 120.404072 
L 156.555136 118.105532 
L 157.062504 147.702015 
L 157.273999 150.127321 
L 157.443945 145.259344 
L 158.121734 113.119646 
L 158.252305 111.312526 
L 158.599901 108.687876 
L 158.629502 106.767286 
L 158.802725 105.931208 
L 158.978924 114.191333 
L 159.564461 140.615264 
L 159.947999 148.471354 
L 160.198699 160.410865 
L 160.53824 160.038287 
L 160.750699 151.947087 
L 161.25853 127.638252 
L 161.430409 130.362442 
L 161.647741 101.504289 
L 161.774107 129.868327 
L 161.998818 126.757602 
L 162.150184 116.326527 
L 162.489776 148.56632 
L 162.870294 155.03969 
L 163.04059 149.240073 
L 163.20909 148.663105 
L 163.378075 138.026518 
L 163.547253 146.880457 
L 163.75957 135.643552 
L 163.888791 113.348746 
L 164.099738 118.199616 
L 164.437407 106.437626 
L 164.606674 105.238287 
L 164.776901 107.805344 
L 164.945528 112.372537 
L 165.157176 110.128107 
L 165.327057 112.19009 
L 165.668752 119.418434 
L 165.879072 123.324359 
L 166.134258 123.314347 
L 166.352036 129.682402 
L 166.519579 130.230561 
L 166.730772 128.220307 
L 166.900755 132.399373 
L 167.112034 129.827581 
L 167.387649 121.828156 
L 167.41151 112.058906 
L 167.875157 121.809774 
L 167.959347 117.073832 
L 168.301554 113.446069 
L 168.509423 108.830389 
L 168.636955 108.684563 
L 168.806665 110.79062 
L 168.975755 109.0846 
L 169.188343 104.934275 
L 169.398865 107.150235 
L 169.695677 115.536525 
L 170.090275 133.014201 
L 170.299437 136.241115 
L 170.427234 135.071541 
L 170.553549 127.433236 
L 170.766587 123.057219 
L 170.935084 122.510354 
L 171.485496 112.149825 
L 171.698237 109.92854 
L 171.826086 105.627821 
L 172.121494 99.944334 
L 172.1643 104.311993 
L 172.333815 109.665685 
L 172.842744 135.443217 
L 173.016003 136.518932 
L 173.223325 136.064356 
L 173.353007 130.323517 
L 173.561926 132.540858 
L 173.900679 138.212474 
L 174.789893 129.688032 
L 175.002524 129.866946 
L 175.425974 119.128773 
L 175.553177 112.433856 
L 175.764443 111.976713 
L 175.852121 113.33438 
L 176.359697 102.87854 
L 176.719713 109.514848 
L 176.889358 118.066435 
L 177.417469 132.629481 
L 177.84116 126.11451 
L 177.928492 121.496996 
L 178.137435 124.442744 
L 178.30762 115.49613 
L 178.476795 114.059316 
L 178.645429 118.740562 
L 178.814977 116.00397 
L 179.111537 113.993245 
L 179.280957 114.648049 
L 179.408577 108.770309 
L 179.625663 108.992878 
L 179.748024 111.454871 
L 180.110483 136.814189 
L 180.299667 146.031097 
L 180.5696 143.395714 
L 181.147761 121.880484 
L 181.276348 123.453581 
L 181.656413 118.473685 
L 182.546678 130.674751 
L 182.673868 131.295675 
L 182.886974 134.472396 
L 183.097042 139.311405 
L 183.224961 146.695802 
L 183.394285 147.786104 
L 183.56438 143.188462 
L 183.734671 145.401665 
L 183.902566 151.77472 
L 184.198964 138.26557 
L 184.622598 158.919075 
L 185.132542 139.92246 
L 185.428824 129.505581 
L 185.51484 114.751554 
L 185.853201 97.928227 
L 186.021926 92.840732 
L 186.27569 93.479254 
L 186.540187 106.210552 
L 186.741041 109.884946 
L 186.953119 111.65334 
L 187.463302 122.861545 
L 187.760693 116.027203 
L 187.971573 107.101769 
L 188.226147 105.543689 
L 188.491706 103.061335 
L 188.610475 103.580786 
L 188.95567 113.729917 
L 189.034432 113.950036 
L 189.206591 109.929772 
L 189.368239 110.371268 
L 189.537382 115.821383 
L 189.791526 114.816726 
L 190.215079 122.766522 
L 190.299801 112.931898 
L 190.469311 108.793175 
L 190.597566 99.397183 
L 191.021251 116.538777 
L 191.318034 136.311633 
L 191.613169 128.109601 
L 191.784344 119.503775 
L 191.952319 104.799644 
L 191.995124 108.775686 
L 192.164023 108.094301 
L 192.376287 105.935574 
L 192.593747 111.439989 
L 192.75751 111.814867 
L 192.927232 119.123376 
L 193.066702 113.277689 
L 193.308105 112.559212 
L 193.477626 104.047289 
L 193.616064 110.327294 
L 193.775259 124.35309 
L 194.325277 137.310382 
L 194.578832 135.005798 
L 194.833105 121.670724 
L 195.129368 116.173381 
L 195.172747 112.737469 
L 195.341477 115.413765 
L 195.596059 115.999692 
L 195.768817 112.179132 
L 195.892599 114.245376 
L 196.275111 126.940027 
L 196.403413 130.566875 
L 196.570375 141.213125 
L 196.915731 130.41658 
L 197.248351 139.170149 
L 197.48015 142.834894 
L 197.969721 135.240854 
L 198.102842 135.22395 
L 198.435481 138.937817 
L 198.52381 137.794524 
L 198.775256 138.427086 
L 198.861797 128.287281 
L 199.07134 126.171035 
L 199.203239 117.276113 
L 199.500713 117.076532 
L 199.668983 113.217093 
L 199.749301 120.872098 
L 200.053775 115.280014 
L 200.187826 116.966905 
L 200.430514 136.904165 
L 200.683007 134.024503 
L 200.788702 134.199556 
L 201.024141 133.767146 
L 201.193374 129.00925 
L 201.362048 129.768388 
L 201.490806 115.667476 
L 201.700635 116.786426 
L 202.039924 116.955993 
L 202.20971 118.798917 
L 202.463202 119.781846 
L 202.590877 133.54951 
L 202.801998 129.018755 
L 202.89932 123.264513 
L 203.098227 126.403667 
L 203.268613 102.1038 
L 203.437646 98.965264 
L 203.947169 66.459077 
L 204.116307 72.720946 
L 204.370741 97.563483 
L 204.582258 88.678014 
L 204.672472 80.046408 
L 205.009713 104.468943 
L 205.218008 106.525344 
L 205.344681 104.78489 
L 205.51642 123.221939 
L 205.810796 125.94848 
L 205.896329 116.778641 
L 206.06549 124.015278 
L 206.238494 105.11147 
L 206.405158 100.118786 
L 206.577675 91.140702 
L 206.746714 90.472421 
L 207.08564 103.031648 
L 207.340431 102.229216 
L 207.381778 102.900384 
L 207.469729 95.068395 
L 207.636659 93.929476 
L 207.805922 89.847112 
L 208.334182 124.200401 
L 208.486494 116.932684 
L 208.739576 123.230151 
L 209.035642 125.948242 
L 209.120881 102.108811 
L 209.204924 104.948093 
L 209.50165 81.326966 
L 209.548127 94.743984 
L 209.936743 86.575578 
L 210.067739 93.137812 
L 210.390997 83.937392 
L 210.602746 111.624643 
L 210.814813 110.935059 
L 210.984208 115.140596 
L 211.15356 116.430028 
L 211.495787 133.305943 
L 211.662933 123.835572 
L 211.873967 126.66921 
L 212.341049 88.826163 
L 212.550962 92.500479 
L 212.720859 91.56445 
L 213.101394 84.280687 
L 213.276463 86.634363 
L 213.441322 84.832163 
L 213.570151 88.73034 
L 213.821911 89.627251 
L 213.957283 89.333526 
L 214.50994 108.059366 
L 214.627553 124.727434 
L 215.178289 88.439077 
L 215.347589 107.114163 
L 215.701621 105.769005 
L 215.858458 121.477666 
L 216.111171 120.873547 
L 216.238345 121.375536 
L 216.407831 95.786539 
L 216.588366 94.210527 
L 216.748703 97.308212 
L 217.043154 111.943936 
L 217.127931 126.04605 
L 217.339682 117.898583 
L 217.467122 123.440926 
L 217.720897 119.789864 
L 217.847967 128.562854 
L 217.976159 105.381092 
L 218.356098 112.912458 
L 218.500881 99.789249 
L 218.700664 95.998198 
L 218.908907 89.553784 
L 219.120212 76.001169 
L 219.247622 76.271926 
L 219.501498 83.96017 
L 219.714269 81.294597 
L 219.755846 87.658344 
L 219.924913 85.588165 
L 220.136612 102.203049 
L 220.266396 94.599448 
L 220.51958 98.258904 
L 220.6452 103.220198 
L 220.815411 102.817265 
L 220.953662 111.430089 
L 221.156737 108.649166 
L 221.423255 110.273928 
L 221.715544 120.027215 
L 221.879837 142.417346 
L 222.263727 125.353957 
L 222.439627 124.045517 
L 222.70171 106.160163 
L 223.294282 60.507602 
L 223.463483 43.807976 
L 223.8448 83.525413 
L 223.971979 83.585646 
L 224.234153 94.498153 
L 224.52279 128.758474 
L 224.776976 124.540362 
L 224.866834 131.080103 
L 225.03118 151.658064 
L 225.285092 161.744462 
L 225.372097 4.251601 
L 225.624863 33.851566 
L 225.793466 67.60933 
L 225.920548 145.523667 
L 226.09929 158.970852 
L 226.344051 135.453227 
L 226.430524 96.248467 
L 226.811414 50.366485 
L 227.127607 35.073429 
L 227.365275 47.802495 
L 227.674485 85.543085 
L 227.847389 138.218469 
L 228.060798 143.174935 
L 228.142151 153.786593 
L 228.817729 92.356945 
L 229.029989 78.640936 
L 229.456363 94.670168 
L 229.623898 94.614776 
L 229.839316 89.925894 
L 229.922456 81.634234 
L 230.132561 80.094212 
L 230.301565 74.04376 
L 230.640215 82.478484 
L 231.14882 107.961547 
L 232.215049 154.889225 
L 232.378217 153.864476 
L 233.013519 115.250087 
L 233.098697 100.967246 
L 233.397525 94.576625 
L 233.444066 87.44456 
L 233.819635 95.608879 
L 234.072837 99.270853 
L 234.497257 112.584636 
L 234.837901 118.427317 
L 235.06648 125.771326 
L 235.34363 125.898909 
L 235.555667 122.204857 
L 235.896534 111.391563 
L 236.064469 114.769018 
L 236.234316 115.368627 
L 236.446666 137.103741 
L 236.715023 143.344134 
L 236.788597 152.35513 
L 236.954204 155.402974 
L 237.122748 154.415427 
L 237.419461 148.536469 
L 237.504269 142.653447 
L 237.716558 137.372013 
L 238.054962 118.897224 
L 238.73852 83.707748 
L 238.90188 80.068889 
L 239.07193 79.392578 
L 239.626172 104.993597 
L 240.132779 138.310188 
L 240.873684 170.417853 
L 241.021898 172.064658 
L 241.361774 173.503696 
L 241.548169 169.528957 
L 241.699511 162.172627 
L 241.869114 163.616593 
L 242.039676 166.845828 
L 242.208459 175.358399 
L 242.504597 176.846897 
L 243.104306 172.513353 
L 243.376815 166.922765 
L 243.457357 170.099216 
L 243.660731 167.60027 
L 243.69418 165.572676 
L 243.907216 162.666054 
L 243.991807 163.081581 
L 244.287309 157.547185 
L 244.498734 141.944066 
L 244.710727 135.381433 
L 244.922658 134.993416 
L 245.3887 127.80049 
L 245.773743 120.930876 
L 245.897876 122.751456 
L 246.109951 129.331467 
L 246.44791 145.326554 
L 246.702697 149.075496 
L 247.125897 136.062768 
L 247.422332 132.238538 
L 247.506751 126.343698 
L 247.719042 122.21059 
L 248.398067 92.377845 
L 249.118574 109.4397 
L 249.244683 108.488314 
L 249.419659 111.347287 
L 249.963855 136.792894 
L 250.133847 132.634533 
L 250.431783 120.415081 
L 250.474505 108.544298 
L 250.687114 101.296594 
L 250.826047 102.962814 
L 251.2367 119.014913 
L 251.406349 118.40369 
L 251.70718 102.155799 
L 251.914486 104.268938 
L 252.126409 114.247096 
L 252.253157 125.623475 
L 252.465544 132.88999 
L 252.591982 131.757942 
L 252.84593 130.973439 
L 252.974314 118.658954 
L 253.185567 109.586141 
L 253.397309 107.41654 
L 253.651974 121.243964 
L 253.90543 120.226197 
L 254.117122 112.167916 
L 254.203275 103.548102 
L 254.498072 100.814303 
L 254.551934 99.098653 
L 254.70994 103.086709 
L 255.048954 126.690934 
L 255.261167 129.63885 
L 255.472717 123.404805 
L 255.563689 115.110169 
L 255.778345 110.959947 
L 255.946801 110.171861 
L 256.277423 112.097139 
L 256.658939 120.218752 
L 256.788106 118.423603 
L 257.252394 107.44343 
L 257.346781 117.148433 
L 257.721084 129.104717 
L 258.05988 120.6916 
L 258.441146 120.670002 
L 258.568209 117.365398 
L 258.784799 116.986297 
L 258.956482 120.045323 
L 259.162306 119.632838 
L 259.428546 129.498749 
L 259.632102 134.753849 
L 259.807066 131.925121 
L 260.179472 111.713599 
L 260.348945 111.747965 
L 260.722874 123.89133 
L 261.200363 102.662052 
L 261.748455 119.097911 
L 262.129427 113.088677 
L 262.256265 112.353762 
L 262.425473 113.509143 
L 262.848995 127.144795 
L 262.976207 124.426135 
L 263.196482 116.528097 
L 263.360816 120.417952 
L 263.699092 139.042288 
L 263.823927 136.490031 
L 264.429262 110.971086 
L 264.545142 116.443361 
L 264.759555 120.805352 
L 264.970358 118.145004 
L 265.267848 108.097255 
L 265.398992 110.85197 
L 265.606816 119.34715 
L 265.904298 122.594757 
L 265.989883 124.813959 
L 266.242546 126.957903 
L 266.455063 121.623321 
L 266.666224 121.998316 
L 266.838781 120.496108 
L 267.174769 116.057596 
L 267.386396 117.348442 
L 267.562205 125.294717 
L 267.767353 129.167048 
L 268.024419 119.674288 
L 268.147936 110.669086 
L 268.529896 120.921399 
L 268.571647 128.389524 
L 268.829844 136.454623 
L 269.038157 129.174425 
L 269.08285 119.128102 
L 269.344453 111.887565 
L 269.46201 114.174062 
L 269.885272 134.1973 
L 270.013033 133.955075 
L 270.229195 124.263185 
L 270.354107 109.864797 
L 270.521021 105.03101 
L 270.818277 113.364021 
L 271.03149 130.454378 
L 271.19991 123.565757 
L 271.398781 120.306138 
L 271.581687 119.422393 
L 272.515151 125.911829 
L 272.810822 119.12607 
L 273.065186 117.110563 
L 273.319842 107.922661 
L 273.53148 109.539112 
L 273.954562 127.507129 
L 274.081203 129.996778 
L 274.54759 104.41867 
L 275.056104 128.891814 
L 275.268003 127.206052 
L 275.606669 110.510934 
L 275.776467 107.642154 
L 276.116421 128.923888 
L 276.412117 135.073466 
L 276.708887 117.203417 
L 276.919068 110.644301 
L 277.09288 111.389659 
L 277.215564 120.54372 
L 277.555402 131.68934 
L 278.106425 108.960659 
L 278.316665 114.69144 
L 278.613331 130.430214 
L 278.783207 127.561055 
L 278.994469 117.875658 
L 279.121642 104.074608 
L 279.293612 98.354715 
L 279.503078 103.07899 
L 280.09707 125.262726 
L 280.181148 125.039686 
L 280.564097 113.471336 
L 280.860627 117.707751 
L 281.070263 123.572976 
L 281.339236 121.902174 
L 281.413568 118.978733 
L 281.579135 117.887578 
L 281.920842 112.699111 
L 282.090818 115.208506 
L 282.384754 114.2109 
L 282.639162 107.971563 
L 283.151894 98.497708 
L 283.358707 95.161513 
L 283.613416 95.729966 
L 283.698004 98.299666 
L 284.08315 99.941531 
L 284.248978 104.017014 
L 284.928266 133.296481 
L 285.096261 138.297424 
L 285.265392 137.304511 
L 285.520056 134.375139 
L 285.646819 134.763749 
L 285.81626 139.387595 
L 285.985482 140.293065 
L 286.622105 115.821481 
L 287.215609 76.560442 
L 287.560692 71.793108 
L 287.766851 74.371691 
L 288.105404 94.876425 
L 288.783956 138.402924 
L 288.953321 138.259962 
L 289.123111 134.279197 
L 289.334775 133.788467 
L 289.470734 134.277503 
L 289.638447 134.261652 
L 289.843826 132.671458 
L 290.033133 129.574698 
L 290.572579 110.328389 
L 290.734475 109.54577 
L 291.073508 112.918876 
L 291.245322 112.373563 
L 291.623541 115.711625 
L 292.004972 125.174837 
L 292.471768 150.226083 
L 292.642922 148.801319 
L 293.024992 138.412777 
L 293.394321 125.621764 
L 293.787105 109.077882 
L 293.871746 109.613975 
L 294.041821 109.271447 
L 294.594073 115.373172 
L 294.97584 105.720827 
L 295.10182 101.046054 
L 295.314505 98.960861 
L 295.483354 95.153978 
L 295.653227 87.294887 
L 295.949234 84.896514 
L 297.087949 157.903108 
L 297.385577 168.264578 
L 297.596457 167.544474 
L 297.937216 150.513861 
L 298.11486 141.22636 
L 298.401693 135.77732 
L 298.444315 130.804148 
L 298.828636 125.104095 
L 299.000083 125.510381 
L 299.642621 134.176417 
L 300.3969 119.629421 
L 300.650095 119.835389 
L 300.906614 117.113993 
L 301.244204 120.109501 
L 301.470842 121.248617 
L 302.345621 137.867879 
L 302.474282 136.685519 
L 302.852799 131.19232 
L 302.858849 81.690975 
L 303.025616 114.549564 
L 303.406597 110.694272 
L 303.582249 110.015491 
L 303.747292 109.850872 
L 304.085778 107.375075 
L 304.424429 119.122106 
L 304.934748 143.509681 
L 305.23299 144.39552 
L 305.271806 147.503844 
L 305.657557 153.074193 
L 305.824236 152.864854 
L 306.292305 141.480751 
L 306.381132 131.697545 
L 306.714535 120.184958 
L 306.890284 115.669274 
L 306.926993 111.404308 
L 307.096785 105.259793 
L 307.565109 72.056871 
L 307.77508 70.216132 
L 307.948969 73.38078 
L 308.283938 95.313516 
L 308.623 117.861455 
L 308.928836 127.656409 
L 309.175719 144.661203 
L 309.34322 102.420946 
L 309.513708 130.215369 
L 309.688532 134.616712 
L 310.032922 136.369716 
L 310.199132 119.901068 
L 310.383457 112.876905 
L 310.622084 108.678563 
L 310.932718 120.631451 
L 311.134853 121.992067 
L 311.307739 125.980881 
L 311.772921 102.403719 
L 312.073347 122.938014 
L 312.15808 136.909249 
L 312.322859 133.206974 
L 312.495638 118.698982 
L 312.759017 112.430192 
L 312.873276 118.408059 
L 313.088602 111.785937 
L 313.424762 130.537134 
L 314.027175 97.678845 
L 314.425086 128.508649 
L 314.617614 131.580515 
L 315.208158 109.217861 
L 315.353341 123.635557 
L 315.505385 123.97072 
L 315.844835 144.34772 
L 316.014367 127.624307 
L 316.18625 131.018092 
L 316.523845 103.40632 
L 316.777556 109.034728 
L 317.093199 91.807949 
L 317.245815 98.94795 
L 317.53417 83.382826 
L 317.836171 96.608402 
L 317.999929 91.214928 
L 318.211707 102.788656 
L 318.339887 101.786189 
L 318.466581 116.485065 
L 318.805448 131.229833 
L 319.189535 117.378585 
L 319.441923 106.783451 
L 319.531197 107.257926 
L 319.714807 107.743355 
L 320.250245 83.917848 
L 320.417946 97.504704 
L 320.590623 95.375806 
L 320.757625 107.984486 
L 320.927305 99.940335 
L 321.27005 96.655334 
L 321.482542 110.507935 
L 321.82189 104.354431 
L 321.991001 104.553155 
L 322.161199 113.460763 
L 322.519366 107.970062 
L 322.711929 123.250093 
L 322.923035 126.402023 
L 323.432248 153.657556 
L 323.606653 163.061325 
L 323.77208 163.470658 
L 323.900399 159.160042 
L 324.069673 158.144128 
L 324.246903 155.067315 
L 324.629377 121.34373 
L 324.795161 116.48433 
L 325.059262 117.68813 
L 325.175199 118.80493 
L 325.215569 125.780613 
L 325.300658 121.119212 
L 325.531684 122.757806 
L 325.681534 120.870591 
L 325.980335 139.60876 
L 326.038276 138.947702 
L 326.19801 145.758107 
L 326.36067 161.283526 
L 326.530628 139.031509 
L 326.96482 136.224281 
L 327.132749 120.764656 
L 327.260602 128.606157 
L 327.557074 135.554204 
L 327.600188 120.038344 
L 327.897245 128.422517 
L 328.066625 111.193947 
L 328.110356 111.551916 
L 328.404435 101.041051 
L 328.489361 90.702226 
L 328.659966 89.488033 
L 328.828389 84.384317 
L 329.209731 58.281413 
L 329.379625 45.938652 
L 329.553202 48.788079 
L 329.591774 43.851059 
L 329.719839 49.017217 
L 329.888578 46.226295 
L 330.059976 62.679444 
L 330.270216 59.296774 
L 330.398043 69.170542 
L 330.625258 70.911508 
L 330.739155 73.109092 
L 331.120495 92.575683 
L 331.503014 107.491241 
L 331.800462 105.116783 
L 332.012465 134.845781 
L 332.145014 136.936763 
L 332.540626 156.824376 
L 332.69292 149.275031 
L 332.876478 158.787294 
L 333.029782 159.998692 
L 333.199908 159.942404 
L 333.375719 174.600134 
L 333.759582 166.005468 
L 333.971786 151.524599 
L 334.138502 158.833652 
L 334.436495 135.019597 
L 334.648455 137.330206 
L 334.817489 120.266515 
L 335.608172 82.33187 
L 335.709492 70.064051 
L 335.927626 78.095509 
L 336.048469 75.633541 
L 336.224944 96.591245 
L 336.482929 103.866069 
L 336.732337 121.20518 
L 337.293661 150.14323 
L 337.45257 149.387008 
L 337.621031 171.668899 
L 337.795931 171.039533 
L 338.003609 163.819436 
L 338.133824 180.831669 
L 338.344558 171.74142 
L 338.554274 168.112058 
L 338.681783 163.800601 
L 338.978796 164.246646 
L 339.06324 161.681419 
L 339.224828 160.278276 
L 339.55743 123.267672 
L 339.772122 128.038671 
L 339.903329 108.789603 
L 340.451162 86.399225 
L 340.586125 64.085736 
L 340.789429 63.126526 
L 340.959208 65.377617 
L 341.128984 50.824833 
L 341.297951 48.325292 
L 341.467727 50.339436 
L 341.637972 42.990885 
L 341.934351 47.743629 
L 342.040347 53.960478 
L 342.316368 52.497137 
L 342.400863 65.301066 
L 342.57043 67.432296 
L 342.739913 84.258341 
L 342.951477 80.431152 
L 343.229872 103.372912 
L 343.421786 107.541029 
L 343.928841 131.248871 
L 344.099908 120.258206 
L 344.369857 130.613187 
L 344.482231 126.465806 
L 344.649685 134.973375 
L 344.840167 136.611091 
L 345.20713 115.443762 
L 345.416825 114.201798 
L 345.551427 111.088465 
L 345.902944 94.319058 
L 346.196103 89.708157 
L 346.403821 84.519406 
L 346.615837 70.766952 
L 346.827707 75.002833 
L 346.912651 70.076725 
L 347.299523 68.472997 
L 347.633417 63.917737 
L 347.803881 62.140609 
L 348.015753 57.770813 
L 348.185291 60.754124 
L 348.356313 58.388112 
L 348.523586 59.491453 
L 348.693007 63.73105 
L 348.86325 60.195566 
L 349.037588 59.877554 
L 350.135832 123.9855 
L 350.263688 124.533345 
L 350.517122 119.10759 
L 350.696331 133.291594 
L 350.814637 132.956375 
L 351.026666 140.653616 
L 351.195685 134.434743 
L 351.365194 139.596362 
L 351.509094 139.705108 
L 351.662543 150.949422 
L 351.877094 152.087703 
L 352.08531 141.157041 
L 352.260707 140.479742 
L 352.382909 145.621307 
L 352.554141 126.518041 
L 352.721976 130.083085 
L 352.946188 127.884356 
L 353.242657 117.787345 
L 353.582456 105.3563 
L 353.625083 95.966341 
L 353.836757 84.763255 
L 353.966397 85.000231 
L 354.302646 75.048842 
L 354.642624 44.906443 
L 354.85508 53.06258 
L 355.065817 44.270034 
L 355.192719 46.183096 
L 355.407921 56.845345 
L 355.577038 52.61871 
L 355.745361 57.157182 
L 356.230991 81.377307 
L 356.671555 112.807264 
L 356.811993 110.291649 
L 357.150855 139.478312 
L 357.320675 127.002408 
L 357.490528 146.011376 
L 357.659579 140.44922 
L 357.829417 139.721135 
L 358.000876 142.640647 
L 358.211171 130.759548 
L 358.338888 106.185047 
L 358.563499 108.116473 
L 358.719778 94.05811 
L 358.933889 87.549513 
L 359.144002 90.279233 
L 359.270827 86.930192 
L 359.61245 100.091821 
L 359.653534 107.685633 
L 359.780237 105.537073 
L 360.091177 136.766534 
L 360.299197 145.615481 
L 360.458851 162.725023 
L 360.629134 164.882694 
L 360.882914 161.404034 
L 361.010032 157.605563 
L 361.136887 149.714976 
L 361.435548 158.721217 
L 361.476397 166.669204 
L 361.733628 162.883655 
L 362.584077 133.735462 
L 363.443576 79.023719 
L 363.608964 77.010136 
L 363.820669 64.722483 
L 363.951776 74.569724 
L 364.375902 60.041211 
L 364.722943 79.781616 
L 364.881542 89.364762 
L 365.182518 75.720322 
L 365.220012 91.462647 
L 365.389482 79.960648 
L 365.729557 90.141921 
L 365.900584 105.110586 
L 366.138243 101.88383 
L 366.252308 103.06514 
L 366.803444 120.5899 
L 367.130638 145.053303 
L 367.301033 135.763822 
L 367.522782 150.973605 
L 367.81022 145.929893 
L 367.853767 154.733197 
L 368.020944 148.635618 
L 368.487176 151.300605 
L 368.580732 140.311565 
L 368.71389 157.591834 
L 368.967875 134.619992 
L 369.282241 156.598838 
L 369.444481 158.13146 
L 369.614449 154.10874 
L 369.78692 154.179556 
L 370.044403 138.91888 
L 370.157908 145.161626 
L 370.32658 145.812244 
L 370.580304 137.891836 
L 370.712625 138.763935 
L 370.837374 121.775195 
L 371.047021 125.137226 
L 371.388147 94.545479 
L 371.727157 102.205583 
L 372.150169 123.248761 
L 372.245959 120.401197 
L 372.446198 150.156899 
L 372.657878 143.767938 
L 372.787447 159.583512 
L 372.956296 162.135091 
L 373.138061 170.949208 
L 373.677146 142.417306 
L 374.025452 108.251579 
L 374.355377 85.175271 
L 374.667174 85.524376 
L 374.831501 90.300766 
L 375.077338 93.238155 
L 375.459057 114.720059 
L 375.79757 120.003999 
L 375.840032 126.520801 
L 376.1859 137.337584 
L 376.391519 136.32502 
L 376.477847 132.272431 
L 376.834518 125.98653 
L 377.03422 119.783374 
L 377.242841 120.964348 
L 377.543905 110.038704 
L 377.878598 98.600022 
L 377.968209 88.139968 
L 378.232013 81.079781 
L 378.390897 80.678077 
L 378.860633 104.133044 
L 379.121274 126.554397 
L 379.501332 151.64491 
L 379.628931 158.885891 
L 380.096586 167.150353 
L 380.349949 167.710914 
L 381.377805 133.686478 
L 381.919293 107.01144 
L 382.099957 100.94738 
L 382.61643 110.699004 
L 382.8079 115.208622 
L 383.365255 119.41031 
L 383.576642 121.676642 
L 384.239015 142.730122 
L 384.834546 148.781312 
L 384.932511 153.648087 
L 385.08435 153.385205 
L 385.272209 148.337274 
L 385.65333 127.772013 
L 385.782223 113.772794 
L 386.162057 98.241828 
L 386.670952 88.762439 
L 386.840135 88.416568 
L 387.012774 89.548287 
L 387.217688 89.659809 
L 387.862945 83.8486 
L 387.916118 80.007852 
L 388.079516 77.343691 
L 388.249647 78.158627 
L 388.417757 81.584642 
L 388.966629 104.046129 
L 389.701463 143.885206 
L 390.112289 162.488241 
L 390.240034 167.652913 
L 390.549956 170.318075 
L 390.623229 173.747961 
L 390.960604 179.763156 
L 391.04606 179.054513 
L 391.384422 172.086858 
L 391.769138 158.606808 
L 392.995183 94.919478 
L 393.348936 87.488024 
L 393.503796 87.260802 
L 393.801028 90.433132 
L 394.020641 96.206567 
L 394.450617 97.863416 
L 394.566845 96.148603 
L 394.741847 95.414066 
L 394.902407 96.528585 
L 395.370389 103.564427 
L 395.665684 110.017292 
L 396.34362 129.556467 
L 397.040588 148.639705 
L 398.100547 162.75203 
L 398.270735 166.440426 
L 398.529113 168.826401 
L 398.619531 171.178387 
L 398.969333 172.001873 
L 399.665091 124.195872 
L 400.214482 88.112954 
L 400.554685 76.261666 
L 400.722248 78.905516 
L 401.108306 86.907508 
L 402.142928 154.551531 
L 402.517274 146.990439 
L 403.026978 128.954839 
L 403.29267 122.093461 
L 403.378983 113.494849 
L 403.751188 104.072414 
L 404.596457 143.811906 
L 404.766952 145.250032 
L 405.14931 140.04525 
L 405.613822 124.727702 
L 405.658865 113.795788 
L 406.1786 87.264833 
L 406.382846 82.308046 
L 406.508879 82.447289 
L 406.934901 100.426147 
L 407.397446 131.083162 
L 407.567611 136.566887 
L 407.761988 137.790621 
L 408.010813 141.47984 
L 408.093683 149.961143 
L 408.306484 156.442408 
L 408.480037 157.690101 
L 408.65765 154.941239 
L 409.200894 133.653566 
L 409.325745 134.783294 
L 409.672698 146.686286 
L 409.8759 143.932188 
L 410.048444 135.247689 
L 410.258804 130.996749 
L 410.516181 132.440465 
L 410.767494 144.698407 
L 410.939602 146.779665 
L 411.191608 143.039664 
L 411.41568 126.373429 
L 411.626022 128.82817 
L 411.798428 136.357574 
L 412.009824 136.636475 
L 412.346723 120.50559 
L 412.602043 119.215311 
L 412.983564 136.497101 
L 413.152324 143.091646 
L 413.237588 141.122062 
L 413.533912 119.646098 
L 413.788612 117.184477 
L 414.086826 133.323054 
L 414.316142 131.457326 
L 414.446426 124.068705 
L 414.614718 121.099903 
L 415.159995 133.318439 
L 415.297612 134.939659 
L 415.668827 130.550378 
L 415.838568 132.310942 
L 416.059072 137.662423 
L 416.177304 137.766026 
L 416.433889 134.86015 
L 416.53056 130.612925 
L 416.729317 131.019883 
L 417.113225 137.028026 
L 417.322888 137.084035 
L 417.918252 108.083597 
L 418.466747 121.570956 
L 418.594683 115.762484 
L 418.827588 110.355656 
L 418.995562 112.34015 
L 419.567629 148.682729 
L 419.6947 147.309545 
L 419.957719 139.700547 
L 420.078374 131.85192 
L 420.290186 126.87397 
L 420.587872 130.764713 
L 420.760999 133.807326 
L 420.925953 133.605746 
L 421.30785 124.532332 
L 421.821959 138.996561 
L 421.990986 139.181387 
L 422.878133 130.150361 
L 423.266665 132.903054 
L 423.64689 126.989614 
L 423.94515 143.78702 
L 424.409389 137.455584 
L 424.580218 136.576468 
L 424.790731 133.049632 
L 424.967711 133.306119 
L 425.12941 135.026949 
L 425.303316 138.752882 
L 425.554133 138.397048 
L 426.021122 130.51246 
L 426.203311 133.194923 
L 426.358784 137.239562 
L 426.71952 135.501314 
L 426.71952 135.501314 
" clip-path="url(#p2c102aa2d2)" style="fill: none; stroke: #ff0000; stroke-opacity: 0.5; stroke-width: 1.75; stroke-linecap: square"/>
   </g>
   <g id="patch_3">
    <path d="M 30.123125 184.36327 
L 30.123125 0.72 
" style="fill: none; stroke: #000000; stroke-width: 0.8; stroke-linejoin: miter; stroke-linecap: square"/>
   </g>
   <g id="patch_4">
    <path d="M 426.71952 184.36327 
L 426.71952 0.72 
" style="fill: none; stroke: #000000; stroke-width: 0.8; stroke-linejoin: miter; stroke-linecap: square"/>
   </g>
   <g id="patch_5">
    <path d="M 30.123125 184.36327 
L 426.71952 184.36327 
" style="fill: none; stroke: #000000; stroke-width: 0.8; stroke-linejoin: miter; stroke-linecap: square"/>
   </g>
   <g id="patch_6">
    <path d="M 30.123125 0.72 
L 426.71952 0.72 
" style="fill: none; stroke: #000000; stroke-width: 0.8; stroke-linejoin: miter; stroke-linecap: square"/>
   </g>
   <g id="legend_1">
    <g id="patch_7">
     <path d="M 345.95077 38.07625 
L 419.71952 38.07625 
Q 421.71952 38.07625 421.71952 36.07625 
L 421.71952 7.72 
Q 421.71952 5.72 419.71952 5.72 
L 345.95077 5.72 
Q 343.95077 5.72 343.95077 7.72 
L 343.95077 36.07625 
Q 343.95077 38.07625 345.95077 38.07625 
z
" style="fill: #ffffff; opacity: 0.8; stroke: #cccccc; stroke-linejoin: miter"/>
    </g>
    <g id="line2d_35">
     <path d="M 347.95077 13.818437 
L 357.95077 13.818437 
L 367.95077 13.818437 
" style="fill: none; stroke: #0000ff; stroke-opacity: 0.5; stroke-width: 1.75; stroke-linecap: square"/>
    </g>
    <g id="text_19">
     <!-- RNEA -->
     <g transform="translate(375.95077 17.318437) scale(0.1 -0.1)">
      <defs>
       <path id="DejaVuSans-52" d="M 2841 2188 
Q 3044 2119 3236 1894 
Q 3428 1669 3622 1275 
L 4263 0 
L 3584 0 
L 2988 1197 
Q 2756 1666 2539 1819 
Q 2322 1972 1947 1972 
L 1259 1972 
L 1259 0 
L 628 0 
L 628 4666 
L 2053 4666 
Q 2853 4666 3247 4331 
Q 3641 3997 3641 3322 
Q 3641 2881 3436 2590 
Q 3231 2300 2841 2188 
z
M 1259 4147 
L 1259 2491 
L 2053 2491 
Q 2509 2491 2742 2702 
Q 2975 2913 2975 3322 
Q 2975 3731 2742 3939 
Q 2509 4147 2053 4147 
L 1259 4147 
z
" transform="scale(0.015625)"/>
       <path id="DejaVuSans-45" d="M 628 4666 
L 3578 4666 
L 3578 4134 
L 1259 4134 
L 1259 2753 
L 3481 2753 
L 3481 2222 
L 1259 2222 
L 1259 531 
L 3634 531 
L 3634 0 
L 628 0 
L 628 4666 
z
" transform="scale(0.015625)"/>
       <path id="DejaVuSans-41" d="M 2188 4044 
L 1331 1722 
L 3047 1722 
L 2188 4044 
z
M 1831 4666 
L 2547 4666 
L 4325 0 
L 3669 0 
L 3244 1197 
L 1141 1197 
L 716 0 
L 50 0 
L 1831 4666 
z
" transform="scale(0.015625)"/>
      </defs>
      <use xlink:href="#DejaVuSans-52"/>
      <use xlink:href="#DejaVuSans-4e" x="69.482422"/>
      <use xlink:href="#DejaVuSans-45" x="144.287109"/>
      <use xlink:href="#DejaVuSans-41" x="207.470703"/>
     </g>
    </g>
    <g id="line2d_36">
     <path d="M 347.95077 28.496562 
L 357.95077 28.496562 
L 367.95077 28.496562 
" style="fill: none; stroke: #ff0000; stroke-opacity: 0.5; stroke-width: 1.75; stroke-linecap: square"/>
    </g>
    <g id="text_20">
     <!-- BURNEA -->
     <g transform="translate(375.95077 31.996562) scale(0.1 -0.1)">
      <defs>
       <path id="DejaVuSans-42" d="M 1259 2228 
L 1259 519 
L 2272 519 
Q 2781 519 3026 730 
Q 3272 941 3272 1375 
Q 3272 1813 3026 2020 
Q 2781 2228 2272 2228 
L 1259 2228 
z
M 1259 4147 
L 1259 2741 
L 2194 2741 
Q 2656 2741 2882 2914 
Q 3109 3088 3109 3444 
Q 3109 3797 2882 3972 
Q 2656 4147 2194 4147 
L 1259 4147 
z
M 628 4666 
L 2241 4666 
Q 2963 4666 3353 4366 
Q 3744 4066 3744 3513 
Q 3744 3084 3544 2831 
Q 3344 2578 2956 2516 
Q 3422 2416 3680 2098 
Q 3938 1781 3938 1306 
Q 3938 681 3513 340 
Q 3088 0 2303 0 
L 628 0 
L 628 4666 
z
" transform="scale(0.015625)"/>
       <path id="DejaVuSans-55" d="M 556 4666 
L 1191 4666 
L 1191 1831 
Q 1191 1081 1462 751 
Q 1734 422 2344 422 
Q 2950 422 3222 751 
Q 3494 1081 3494 1831 
L 3494 4666 
L 4128 4666 
L 4128 1753 
Q 4128 841 3676 375 
Q 3225 -91 2344 -91 
Q 1459 -91 1007 375 
Q 556 841 556 1753 
L 556 4666 
z
" transform="scale(0.015625)"/>
      </defs>
      <use xlink:href="#DejaVuSans-42"/>
      <use xlink:href="#DejaVuSans-55" x="68.603516"/>
      <use xlink:href="#DejaVuSans-52" x="141.796875"/>
      <use xlink:href="#DejaVuSans-4e" x="211.279297"/>
      <use xlink:href="#DejaVuSans-45" x="286.083984"/>
      <use xlink:href="#DejaVuSans-41" x="349.267578"/>
     </g>
    </g>
   </g>
  </g>
 </g>
 <defs>
  <clipPath id="p2c102aa2d2">
   <rect x="30.123125" y="0.72" width="396.596395" height="183.64327"/>
  </clipPath>
 </defs>
</svg>
