<?xml version="1.0" encoding="utf-8" standalone="no"?>
<!DOCTYPE svg PUBLIC "-//W3C//DTD SVG 1.1//EN"
  "http://www.w3.org/Graphics/SVG/1.1/DTD/svg11.dtd">
<svg xmlns:xlink="http://www.w3.org/1999/xlink" width="588.843125pt" height="304.99625pt" viewBox="0 0 588.843125 304.99625" xmlns="http://www.w3.org/2000/svg" version="1.1">
 <metadata>
  <rdf:RDF xmlns:dc="http://purl.org/dc/elements/1.1/" xmlns:cc="http://creativecommons.org/ns#" xmlns:rdf="http://www.w3.org/1999/02/22-rdf-syntax-ns#">
   <cc:Work>
    <dc:type rdf:resource="http://purl.org/dc/dcmitype/StillImage"/>
    <dc:date>2023-09-05T22:09:14.024798</dc:date>
    <dc:format>image/svg+xml</dc:format>
    <dc:creator>
     <cc:Agent>
      <dc:title>Matplotlib v3.7.2, https://matplotlib.org/</dc:title>
     </cc:Agent>
    </dc:creator>
   </cc:Work>
  </rdf:RDF>
 </metadata>
 <defs>
  <style type="text/css">*{stroke-linejoin: round; stroke-linecap: butt}</style>
 </defs>
 <g id="figure_1">
  <g id="patch_1">
   <path d="M 0 304.99625 
L 588.843125 304.99625 
L 588.843125 0 
L 0 0 
L 0 304.99625 
z
" style="fill: none"/>
  </g>
  <g id="axes_1">
   <g id="patch_2">
    <path d="M 30.123125 277.92 
L 588.123125 277.92 
L 588.123125 0.72 
L 30.123125 0.72 
L 30.123125 277.92 
z
" style="fill: none"/>
   </g>
   <g id="matplotlib.axis_1">
    <g id="xtick_1">
     <g id="line2d_1">
      <path d="M 30.123125 277.92 
L 30.123125 0.72 
" clip-path="url(#p028b7f9f0b)" style="fill: none; stroke-dasharray: 0.8,1.32; stroke-dashoffset: 0; stroke: #000000; stroke-opacity: 0.5; stroke-width: 0.8"/>
     </g>
     <g id="line2d_2">
      <defs>
       <path id="ma36da79fd1" d="M 0 0 
L 0 3.5 
" style="stroke: #000000; stroke-width: 0.8"/>
      </defs>
      <g>
       <use xlink:href="#ma36da79fd1" x="30.123125" y="277.92" style="stroke: #000000; stroke-width: 0.8"/>
      </g>
     </g>
     <g id="text_1">
      <!-- 0 -->
      <g transform="translate(26.941875 292.518438) scale(0.1 -0.1)">
       <defs>
        <path id="DejaVuSans-30" d="M 2034 4250 
Q 1547 4250 1301 3770 
Q 1056 3291 1056 2328 
Q 1056 1369 1301 889 
Q 1547 409 2034 409 
Q 2525 409 2770 889 
Q 3016 1369 3016 2328 
Q 3016 3291 2770 3770 
Q 2525 4250 2034 4250 
z
M 2034 4750 
Q 2819 4750 3233 4129 
Q 3647 3509 3647 2328 
Q 3647 1150 3233 529 
Q 2819 -91 2034 -91 
Q 1250 -91 836 529 
Q 422 1150 422 2328 
Q 422 3509 836 4129 
Q 1250 4750 2034 4750 
z
" transform="scale(0.015625)"/>
       </defs>
       <use xlink:href="#DejaVuSans-30"/>
      </g>
     </g>
    </g>
    <g id="xtick_2">
     <g id="line2d_3">
      <path d="M 115.352926 277.92 
L 115.352926 0.72 
" clip-path="url(#p028b7f9f0b)" style="fill: none; stroke-dasharray: 0.8,1.32; stroke-dashoffset: 0; stroke: #000000; stroke-opacity: 0.5; stroke-width: 0.8"/>
     </g>
     <g id="line2d_4">
      <g>
       <use xlink:href="#ma36da79fd1" x="115.352926" y="277.92" style="stroke: #000000; stroke-width: 0.8"/>
      </g>
     </g>
     <g id="text_2">
      <!-- 5 -->
      <g transform="translate(112.171676 292.518438) scale(0.1 -0.1)">
       <defs>
        <path id="DejaVuSans-35" d="M 691 4666 
L 3169 4666 
L 3169 4134 
L 1269 4134 
L 1269 2991 
Q 1406 3038 1543 3061 
Q 1681 3084 1819 3084 
Q 2600 3084 3056 2656 
Q 3513 2228 3513 1497 
Q 3513 744 3044 326 
Q 2575 -91 1722 -91 
Q 1428 -91 1123 -41 
Q 819 9 494 109 
L 494 744 
Q 775 591 1075 516 
Q 1375 441 1709 441 
Q 2250 441 2565 725 
Q 2881 1009 2881 1497 
Q 2881 1984 2565 2268 
Q 2250 2553 1709 2553 
Q 1456 2553 1204 2497 
Q 953 2441 691 2322 
L 691 4666 
z
" transform="scale(0.015625)"/>
       </defs>
       <use xlink:href="#DejaVuSans-35"/>
      </g>
     </g>
    </g>
    <g id="xtick_3">
     <g id="line2d_5">
      <path d="M 200.582727 277.92 
L 200.582727 0.72 
" clip-path="url(#p028b7f9f0b)" style="fill: none; stroke-dasharray: 0.8,1.32; stroke-dashoffset: 0; stroke: #000000; stroke-opacity: 0.5; stroke-width: 0.8"/>
     </g>
     <g id="line2d_6">
      <g>
       <use xlink:href="#ma36da79fd1" x="200.582727" y="277.92" style="stroke: #000000; stroke-width: 0.8"/>
      </g>
     </g>
     <g id="text_3">
      <!-- 10 -->
      <g transform="translate(194.220227 292.518438) scale(0.1 -0.1)">
       <defs>
        <path id="DejaVuSans-31" d="M 794 531 
L 1825 531 
L 1825 4091 
L 703 3866 
L 703 4441 
L 1819 4666 
L 2450 4666 
L 2450 531 
L 3481 531 
L 3481 0 
L 794 0 
L 794 531 
z
" transform="scale(0.015625)"/>
       </defs>
       <use xlink:href="#DejaVuSans-31"/>
       <use xlink:href="#DejaVuSans-30" x="63.623047"/>
      </g>
     </g>
    </g>
    <g id="xtick_4">
     <g id="line2d_7">
      <path d="M 285.812528 277.92 
L 285.812528 0.72 
" clip-path="url(#p028b7f9f0b)" style="fill: none; stroke-dasharray: 0.8,1.32; stroke-dashoffset: 0; stroke: #000000; stroke-opacity: 0.5; stroke-width: 0.8"/>
     </g>
     <g id="line2d_8">
      <g>
       <use xlink:href="#ma36da79fd1" x="285.812528" y="277.92" style="stroke: #000000; stroke-width: 0.8"/>
      </g>
     </g>
     <g id="text_4">
      <!-- 15 -->
      <g transform="translate(279.450028 292.518438) scale(0.1 -0.1)">
       <use xlink:href="#DejaVuSans-31"/>
       <use xlink:href="#DejaVuSans-35" x="63.623047"/>
      </g>
     </g>
    </g>
    <g id="xtick_5">
     <g id="line2d_9">
      <path d="M 371.042329 277.92 
L 371.042329 0.72 
" clip-path="url(#p028b7f9f0b)" style="fill: none; stroke-dasharray: 0.8,1.32; stroke-dashoffset: 0; stroke: #000000; stroke-opacity: 0.5; stroke-width: 0.8"/>
     </g>
     <g id="line2d_10">
      <g>
       <use xlink:href="#ma36da79fd1" x="371.042329" y="277.92" style="stroke: #000000; stroke-width: 0.8"/>
      </g>
     </g>
     <g id="text_5">
      <!-- 20 -->
      <g transform="translate(364.679829 292.518438) scale(0.1 -0.1)">
       <defs>
        <path id="DejaVuSans-32" d="M 1228 531 
L 3431 531 
L 3431 0 
L 469 0 
L 469 531 
Q 828 903 1448 1529 
Q 2069 2156 2228 2338 
Q 2531 2678 2651 2914 
Q 2772 3150 2772 3378 
Q 2772 3750 2511 3984 
Q 2250 4219 1831 4219 
Q 1534 4219 1204 4116 
Q 875 4013 500 3803 
L 500 4441 
Q 881 4594 1212 4672 
Q 1544 4750 1819 4750 
Q 2544 4750 2975 4387 
Q 3406 4025 3406 3419 
Q 3406 3131 3298 2873 
Q 3191 2616 2906 2266 
Q 2828 2175 2409 1742 
Q 1991 1309 1228 531 
z
" transform="scale(0.015625)"/>
       </defs>
       <use xlink:href="#DejaVuSans-32"/>
       <use xlink:href="#DejaVuSans-30" x="63.623047"/>
      </g>
     </g>
    </g>
    <g id="xtick_6">
     <g id="line2d_11">
      <path d="M 456.27213 277.92 
L 456.27213 0.72 
" clip-path="url(#p028b7f9f0b)" style="fill: none; stroke-dasharray: 0.8,1.32; stroke-dashoffset: 0; stroke: #000000; stroke-opacity: 0.5; stroke-width: 0.8"/>
     </g>
     <g id="line2d_12">
      <g>
       <use xlink:href="#ma36da79fd1" x="456.27213" y="277.92" style="stroke: #000000; stroke-width: 0.8"/>
      </g>
     </g>
     <g id="text_6">
      <!-- 25 -->
      <g transform="translate(449.90963 292.518438) scale(0.1 -0.1)">
       <use xlink:href="#DejaVuSans-32"/>
       <use xlink:href="#DejaVuSans-35" x="63.623047"/>
      </g>
     </g>
    </g>
    <g id="xtick_7">
     <g id="line2d_13">
      <path d="M 541.501931 277.92 
L 541.501931 0.72 
" clip-path="url(#p028b7f9f0b)" style="fill: none; stroke-dasharray: 0.8,1.32; stroke-dashoffset: 0; stroke: #000000; stroke-opacity: 0.5; stroke-width: 0.8"/>
     </g>
     <g id="line2d_14">
      <g>
       <use xlink:href="#ma36da79fd1" x="541.501931" y="277.92" style="stroke: #000000; stroke-width: 0.8"/>
      </g>
     </g>
     <g id="text_7">
      <!-- 30 -->
      <g transform="translate(535.139431 292.518438) scale(0.1 -0.1)">
       <defs>
        <path id="DejaVuSans-33" d="M 2597 2516 
Q 3050 2419 3304 2112 
Q 3559 1806 3559 1356 
Q 3559 666 3084 287 
Q 2609 -91 1734 -91 
Q 1441 -91 1130 -33 
Q 819 25 488 141 
L 488 750 
Q 750 597 1062 519 
Q 1375 441 1716 441 
Q 2309 441 2620 675 
Q 2931 909 2931 1356 
Q 2931 1769 2642 2001 
Q 2353 2234 1838 2234 
L 1294 2234 
L 1294 2753 
L 1863 2753 
Q 2328 2753 2575 2939 
Q 2822 3125 2822 3475 
Q 2822 3834 2567 4026 
Q 2313 4219 1838 4219 
Q 1578 4219 1281 4162 
Q 984 4106 628 3988 
L 628 4550 
Q 988 4650 1302 4700 
Q 1616 4750 1894 4750 
Q 2613 4750 3031 4423 
Q 3450 4097 3450 3541 
Q 3450 3153 3228 2886 
Q 3006 2619 2597 2516 
z
" transform="scale(0.015625)"/>
       </defs>
       <use xlink:href="#DejaVuSans-33"/>
       <use xlink:href="#DejaVuSans-30" x="63.623047"/>
      </g>
     </g>
    </g>
    <g id="text_8">
     <!-- Zeit [s] -->
     <g transform="translate(291.177031 302.196563) scale(0.1 -0.1)">
      <defs>
       <path id="DejaVuSans-5a" d="M 359 4666 
L 4025 4666 
L 4025 4184 
L 1075 531 
L 4097 531 
L 4097 0 
L 288 0 
L 288 481 
L 3238 4134 
L 359 4134 
L 359 4666 
z
" transform="scale(0.015625)"/>
       <path id="DejaVuSans-65" d="M 3597 1894 
L 3597 1613 
L 953 1613 
Q 991 1019 1311 708 
Q 1631 397 2203 397 
Q 2534 397 2845 478 
Q 3156 559 3463 722 
L 3463 178 
Q 3153 47 2828 -22 
Q 2503 -91 2169 -91 
Q 1331 -91 842 396 
Q 353 884 353 1716 
Q 353 2575 817 3079 
Q 1281 3584 2069 3584 
Q 2775 3584 3186 3129 
Q 3597 2675 3597 1894 
z
M 3022 2063 
Q 3016 2534 2758 2815 
Q 2500 3097 2075 3097 
Q 1594 3097 1305 2825 
Q 1016 2553 972 2059 
L 3022 2063 
z
" transform="scale(0.015625)"/>
       <path id="DejaVuSans-69" d="M 603 3500 
L 1178 3500 
L 1178 0 
L 603 0 
L 603 3500 
z
M 603 4863 
L 1178 4863 
L 1178 4134 
L 603 4134 
L 603 4863 
z
" transform="scale(0.015625)"/>
       <path id="DejaVuSans-74" d="M 1172 4494 
L 1172 3500 
L 2356 3500 
L 2356 3053 
L 1172 3053 
L 1172 1153 
Q 1172 725 1289 603 
Q 1406 481 1766 481 
L 2356 481 
L 2356 0 
L 1766 0 
Q 1100 0 847 248 
Q 594 497 594 1153 
L 594 3053 
L 172 3053 
L 172 3500 
L 594 3500 
L 594 4494 
L 1172 4494 
z
" transform="scale(0.015625)"/>
       <path id="DejaVuSans-20" transform="scale(0.015625)"/>
       <path id="DejaVuSans-5b" d="M 550 4863 
L 1875 4863 
L 1875 4416 
L 1125 4416 
L 1125 -397 
L 1875 -397 
L 1875 -844 
L 550 -844 
L 550 4863 
z
" transform="scale(0.015625)"/>
       <path id="DejaVuSans-73" d="M 2834 3397 
L 2834 2853 
Q 2591 2978 2328 3040 
Q 2066 3103 1784 3103 
Q 1356 3103 1142 2972 
Q 928 2841 928 2578 
Q 928 2378 1081 2264 
Q 1234 2150 1697 2047 
L 1894 2003 
Q 2506 1872 2764 1633 
Q 3022 1394 3022 966 
Q 3022 478 2636 193 
Q 2250 -91 1575 -91 
Q 1294 -91 989 -36 
Q 684 19 347 128 
L 347 722 
Q 666 556 975 473 
Q 1284 391 1588 391 
Q 1994 391 2212 530 
Q 2431 669 2431 922 
Q 2431 1156 2273 1281 
Q 2116 1406 1581 1522 
L 1381 1569 
Q 847 1681 609 1914 
Q 372 2147 372 2553 
Q 372 3047 722 3315 
Q 1072 3584 1716 3584 
Q 2034 3584 2315 3537 
Q 2597 3491 2834 3397 
z
" transform="scale(0.015625)"/>
       <path id="DejaVuSans-5d" d="M 1947 4863 
L 1947 -844 
L 622 -844 
L 622 -397 
L 1369 -397 
L 1369 4416 
L 622 4416 
L 622 4863 
L 1947 4863 
z
" transform="scale(0.015625)"/>
      </defs>
      <use xlink:href="#DejaVuSans-5a"/>
      <use xlink:href="#DejaVuSans-65" x="68.505859"/>
      <use xlink:href="#DejaVuSans-69" x="130.029297"/>
      <use xlink:href="#DejaVuSans-74" x="157.8125"/>
      <use xlink:href="#DejaVuSans-20" x="197.021484"/>
      <use xlink:href="#DejaVuSans-5b" x="228.808594"/>
      <use xlink:href="#DejaVuSans-73" x="267.822266"/>
      <use xlink:href="#DejaVuSans-5d" x="319.921875"/>
     </g>
    </g>
   </g>
   <g id="matplotlib.axis_2">
    <g id="ytick_1">
     <g id="line2d_15">
      <path d="M 30.123125 227.694853 
L 588.123125 227.694853 
" clip-path="url(#p028b7f9f0b)" style="fill: none; stroke-dasharray: 0.8,1.32; stroke-dashoffset: 0; stroke: #000000; stroke-opacity: 0.5; stroke-width: 0.8"/>
     </g>
     <g id="line2d_16">
      <defs>
       <path id="mb35b829529" d="M 0 0 
L -3.5 0 
" style="stroke: #000000; stroke-width: 0.8"/>
      </defs>
      <g>
       <use xlink:href="#mb35b829529" x="30.123125" y="227.694853" style="stroke: #000000; stroke-width: 0.8"/>
      </g>
     </g>
     <g id="text_9">
      <!-- 5 -->
      <g transform="translate(16.760625 231.494071) scale(0.1 -0.1)">
       <use xlink:href="#DejaVuSans-35"/>
      </g>
     </g>
    </g>
    <g id="ytick_2">
     <g id="line2d_17">
      <path d="M 30.123125 173.701667 
L 588.123125 173.701667 
" clip-path="url(#p028b7f9f0b)" style="fill: none; stroke-dasharray: 0.8,1.32; stroke-dashoffset: 0; stroke: #000000; stroke-opacity: 0.5; stroke-width: 0.8"/>
     </g>
     <g id="line2d_18">
      <g>
       <use xlink:href="#mb35b829529" x="30.123125" y="173.701667" style="stroke: #000000; stroke-width: 0.8"/>
      </g>
     </g>
     <g id="text_10">
      <!-- 10 -->
      <g transform="translate(10.398125 177.500886) scale(0.1 -0.1)">
       <use xlink:href="#DejaVuSans-31"/>
       <use xlink:href="#DejaVuSans-30" x="63.623047"/>
      </g>
     </g>
    </g>
    <g id="ytick_3">
     <g id="line2d_19">
      <path d="M 30.123125 119.708481 
L 588.123125 119.708481 
" clip-path="url(#p028b7f9f0b)" style="fill: none; stroke-dasharray: 0.8,1.32; stroke-dashoffset: 0; stroke: #000000; stroke-opacity: 0.5; stroke-width: 0.8"/>
     </g>
     <g id="line2d_20">
      <g>
       <use xlink:href="#mb35b829529" x="30.123125" y="119.708481" style="stroke: #000000; stroke-width: 0.8"/>
      </g>
     </g>
     <g id="text_11">
      <!-- 15 -->
      <g transform="translate(10.398125 123.5077) scale(0.1 -0.1)">
       <use xlink:href="#DejaVuSans-31"/>
       <use xlink:href="#DejaVuSans-35" x="63.623047"/>
      </g>
     </g>
    </g>
    <g id="ytick_4">
     <g id="line2d_21">
      <path d="M 30.123125 65.715295 
L 588.123125 65.715295 
" clip-path="url(#p028b7f9f0b)" style="fill: none; stroke-dasharray: 0.8,1.32; stroke-dashoffset: 0; stroke: #000000; stroke-opacity: 0.5; stroke-width: 0.8"/>
     </g>
     <g id="line2d_22">
      <g>
       <use xlink:href="#mb35b829529" x="30.123125" y="65.715295" style="stroke: #000000; stroke-width: 0.8"/>
      </g>
     </g>
     <g id="text_12">
      <!-- 20 -->
      <g transform="translate(10.398125 69.514514) scale(0.1 -0.1)">
       <use xlink:href="#DejaVuSans-32"/>
       <use xlink:href="#DejaVuSans-30" x="63.623047"/>
      </g>
     </g>
    </g>
    <g id="ytick_5">
     <g id="line2d_23">
      <path d="M 30.123125 11.72211 
L 588.123125 11.72211 
" clip-path="url(#p028b7f9f0b)" style="fill: none; stroke-dasharray: 0.8,1.32; stroke-dashoffset: 0; stroke: #000000; stroke-opacity: 0.5; stroke-width: 0.8"/>
     </g>
     <g id="line2d_24">
      <g>
       <use xlink:href="#mb35b829529" x="30.123125" y="11.72211" style="stroke: #000000; stroke-width: 0.8"/>
      </g>
     </g>
     <g id="text_13">
      <!-- 25 -->
      <g transform="translate(10.398125 15.521328) scale(0.1 -0.1)">
       <use xlink:href="#DejaVuSans-32"/>
       <use xlink:href="#DejaVuSans-35" x="63.623047"/>
      </g>
     </g>
    </g>
    <g id="text_14">
     <!-- Drehmoment [Nm] -->
     <g transform="translate(8.318438 186.465313) rotate(-90) scale(0.1 -0.1)">
      <defs>
       <path id="DejaVuSans-44" d="M 1259 4147 
L 1259 519 
L 2022 519 
Q 2988 519 3436 956 
Q 3884 1394 3884 2338 
Q 3884 3275 3436 3711 
Q 2988 4147 2022 4147 
L 1259 4147 
z
M 628 4666 
L 1925 4666 
Q 3281 4666 3915 4102 
Q 4550 3538 4550 2338 
Q 4550 1131 3912 565 
Q 3275 0 1925 0 
L 628 0 
L 628 4666 
z
" transform="scale(0.015625)"/>
       <path id="DejaVuSans-72" d="M 2631 2963 
Q 2534 3019 2420 3045 
Q 2306 3072 2169 3072 
Q 1681 3072 1420 2755 
Q 1159 2438 1159 1844 
L 1159 0 
L 581 0 
L 581 3500 
L 1159 3500 
L 1159 2956 
Q 1341 3275 1631 3429 
Q 1922 3584 2338 3584 
Q 2397 3584 2469 3576 
Q 2541 3569 2628 3553 
L 2631 2963 
z
" transform="scale(0.015625)"/>
       <path id="DejaVuSans-68" d="M 3513 2113 
L 3513 0 
L 2938 0 
L 2938 2094 
Q 2938 2591 2744 2837 
Q 2550 3084 2163 3084 
Q 1697 3084 1428 2787 
Q 1159 2491 1159 1978 
L 1159 0 
L 581 0 
L 581 4863 
L 1159 4863 
L 1159 2956 
Q 1366 3272 1645 3428 
Q 1925 3584 2291 3584 
Q 2894 3584 3203 3211 
Q 3513 2838 3513 2113 
z
" transform="scale(0.015625)"/>
       <path id="DejaVuSans-6d" d="M 3328 2828 
Q 3544 3216 3844 3400 
Q 4144 3584 4550 3584 
Q 5097 3584 5394 3201 
Q 5691 2819 5691 2113 
L 5691 0 
L 5113 0 
L 5113 2094 
Q 5113 2597 4934 2840 
Q 4756 3084 4391 3084 
Q 3944 3084 3684 2787 
Q 3425 2491 3425 1978 
L 3425 0 
L 2847 0 
L 2847 2094 
Q 2847 2600 2669 2842 
Q 2491 3084 2119 3084 
Q 1678 3084 1418 2786 
Q 1159 2488 1159 1978 
L 1159 0 
L 581 0 
L 581 3500 
L 1159 3500 
L 1159 2956 
Q 1356 3278 1631 3431 
Q 1906 3584 2284 3584 
Q 2666 3584 2933 3390 
Q 3200 3197 3328 2828 
z
" transform="scale(0.015625)"/>
       <path id="DejaVuSans-6f" d="M 1959 3097 
Q 1497 3097 1228 2736 
Q 959 2375 959 1747 
Q 959 1119 1226 758 
Q 1494 397 1959 397 
Q 2419 397 2687 759 
Q 2956 1122 2956 1747 
Q 2956 2369 2687 2733 
Q 2419 3097 1959 3097 
z
M 1959 3584 
Q 2709 3584 3137 3096 
Q 3566 2609 3566 1747 
Q 3566 888 3137 398 
Q 2709 -91 1959 -91 
Q 1206 -91 779 398 
Q 353 888 353 1747 
Q 353 2609 779 3096 
Q 1206 3584 1959 3584 
z
" transform="scale(0.015625)"/>
       <path id="DejaVuSans-6e" d="M 3513 2113 
L 3513 0 
L 2938 0 
L 2938 2094 
Q 2938 2591 2744 2837 
Q 2550 3084 2163 3084 
Q 1697 3084 1428 2787 
Q 1159 2491 1159 1978 
L 1159 0 
L 581 0 
L 581 3500 
L 1159 3500 
L 1159 2956 
Q 1366 3272 1645 3428 
Q 1925 3584 2291 3584 
Q 2894 3584 3203 3211 
Q 3513 2838 3513 2113 
z
" transform="scale(0.015625)"/>
       <path id="DejaVuSans-4e" d="M 628 4666 
L 1478 4666 
L 3547 763 
L 3547 4666 
L 4159 4666 
L 4159 0 
L 3309 0 
L 1241 3903 
L 1241 0 
L 628 0 
L 628 4666 
z
" transform="scale(0.015625)"/>
      </defs>
      <use xlink:href="#DejaVuSans-44"/>
      <use xlink:href="#DejaVuSans-72" x="77.001953"/>
      <use xlink:href="#DejaVuSans-65" x="115.865234"/>
      <use xlink:href="#DejaVuSans-68" x="177.388672"/>
      <use xlink:href="#DejaVuSans-6d" x="240.767578"/>
      <use xlink:href="#DejaVuSans-6f" x="338.179688"/>
      <use xlink:href="#DejaVuSans-6d" x="399.361328"/>
      <use xlink:href="#DejaVuSans-65" x="496.773438"/>
      <use xlink:href="#DejaVuSans-6e" x="558.296875"/>
      <use xlink:href="#DejaVuSans-74" x="621.675781"/>
      <use xlink:href="#DejaVuSans-20" x="660.884766"/>
      <use xlink:href="#DejaVuSans-5b" x="692.671875"/>
      <use xlink:href="#DejaVuSans-4e" x="731.685547"/>
      <use xlink:href="#DejaVuSans-6d" x="806.490234"/>
      <use xlink:href="#DejaVuSans-5d" x="903.902344"/>
     </g>
    </g>
   </g>
   <g id="line2d_25">
    <path d="M 30.123125 277.92 
L 588.123125 277.92 
L 588.123125 277.92 
" clip-path="url(#p028b7f9f0b)" style="fill: none; stroke: #0000ff; stroke-opacity: 0.7; stroke-width: 1.5; stroke-linecap: square"/>
   </g>
   <g id="line2d_26">
    <path d="M 30.123125 16.641045 
L 30.537824 9.491595 
L 30.719783 10.482933 
L 30.750022 14.711303 
L 30.851714 13.003788 
L 30.99341 13.450532 
L 31.092902 20.106863 
L 31.226651 19.267782 
L 31.364942 17.495907 
L 31.538375 18.286262 
L 31.686981 16.851688 
L 31.845275 21.607573 
L 31.947897 21.350134 
L 32.222964 17.275965 
L 32.361285 19.209119 
L 32.567642 17.399021 
L 32.807591 20.710053 
L 32.944135 17.639543 
L 33.116304 18.459138 
L 33.356468 16.769586 
L 33.698694 22.636086 
L 34.252879 16.22871 
L 34.387384 17.659329 
L 34.525338 15.54369 
L 34.765553 16.617165 
L 34.80502 18.638201 
L 35.213657 14.023843 
L 35.351288 12.746802 
L 35.494451 13.537846 
L 35.795537 17.620324 
L 35.932844 17.266109 
L 36.070743 13.577905 
L 36.208493 13.713492 
L 36.485146 8.078941 
L 36.623149 10.050931 
L 36.770019 14.387664 
L 36.913753 14.195966 
L 37.072593 10.310568 
L 37.18253 11.241 
L 37.348399 10.56312 
L 37.485518 11.283398 
L 37.623414 11.276848 
L 37.911555 17.046934 
L 38.044365 14.559478 
L 38.20625 14.983913 
L 38.38186 14.730847 
L 38.483763 15.453539 
L 38.619806 14.004835 
L 38.893264 17.603806 
L 39.180604 14.087687 
L 39.312699 16.097855 
L 39.482628 16.365138 
L 39.620094 14.30893 
L 40.033524 21.223502 
L 40.308404 18.530856 
L 40.448441 20.063785 
L 40.591053 20.076358 
L 40.756145 18.862797 
L 40.893574 19.835487 
L 41.032125 22.459016 
L 41.168796 21.682215 
L 41.30729 19.065929 
L 41.464729 19.206545 
L 41.58767 20.95984 
L 41.890058 19.236989 
L 42.029007 20.091207 
L 42.191586 20.264443 
L 42.304901 18.381791 
L 42.444528 19.439041 
L 42.579611 19.46247 
L 42.854533 17.872765 
L 43.025188 19.230081 
L 43.301904 23.089986 
L 43.861162 15.867005 
L 44.027198 15.242794 
L 44.16006 17.2899 
L 44.440606 12.638531 
L 44.713934 12.918564 
L 44.988783 15.4115 
L 45.195161 19.451338 
L 45.33286 18.548797 
L 45.504043 19.096858 
L 45.710513 13.800189 
L 45.950678 16.841609 
L 46.262348 10.024884 
L 46.430296 4.396824 
L 46.984876 16.464722 
L 47.266415 11.694867 
L 47.409444 12.503379 
L 47.844609 18.479894 
L 48.123155 18.627725 
L 48.257937 16.502428 
L 48.40694 16.166199 
L 48.429496 15.043461 
L 48.575188 14.602732 
L 48.715549 15.680255 
L 48.866288 15.283767 
L 48.888383 15.73544 
L 48.994737 15.577812 
L 49.161177 13.374074 
L 49.267742 13.859051 
L 49.408427 13.822632 
L 49.720982 18.131587 
L 49.837535 17.079448 
L 49.978059 17.35812 
L 50.162706 17.253077 
L 50.288253 16.329407 
L 50.457122 13.972652 
L 50.558865 19.07144 
L 50.701829 19.969346 
L 50.772777 22.004637 
L 50.897455 21.527288 
L 50.898439 19.508205 
L 51.429123 14.169945 
L 51.600023 14.824983 
L 51.87453 18.225783 
L 52.183946 12.020798 
L 52.287083 10.928474 
L 52.390397 15.04636 
L 52.700345 17.363995 
L 52.803819 15.403739 
L 53.123746 12.548994 
L 53.317887 13.745102 
L 53.492455 13.594665 
L 53.664805 19.30901 
L 53.99213 12.431194 
L 54.109425 12.58224 
L 54.392561 15.907407 
L 54.570693 17.152248 
L 54.693181 15.640184 
L 54.797636 16.634227 
L 55.17311 8.623598 
L 55.275754 7.98418 
L 55.379313 8.324802 
L 55.587132 9.532008 
L 55.794279 9.681548 
L 55.876941 12.584049 
L 56.0663 13.541978 
L 56.203283 12.402721 
L 56.37631 14.795847 
L 56.651817 20.463535 
L 56.78857 24.728245 
L 56.959463 23.81518 
L 57.311748 18.18977 
L 57.371228 15.135896 
L 57.509548 15.095304 
L 57.646724 15.985251 
L 57.818762 14.961985 
L 58.230939 9.369161 
L 58.367462 9.930904 
L 59.020013 19.438723 
L 59.088201 14.053227 
L 59.204823 13.893576 
L 59.362176 16.391784 
L 59.501636 14.76591 
L 59.637813 11.747474 
L 59.835255 12.421193 
L 60.084615 8.02813 
L 60.264012 5.897762 
L 60.361575 7.089348 
L 60.498994 12.067614 
L 60.659312 11.945801 
L 60.774153 8.302149 
L 61.116428 9.497205 
L 61.22054 9.03026 
L 61.494184 13.012555 
L 61.976536 7.588279 
L 62.080753 8.687592 
L 62.217654 13.103749 
L 62.354883 12.408962 
L 62.560704 12.406843 
L 62.66572 10.594493 
L 62.869987 9.990235 
L 62.944276 10.158709 
L 63.179455 10.97026 
L 63.282381 10.87506 
L 63.58332 12.287306 
L 63.626488 11.941677 
L 63.765095 10.928736 
L 63.937518 10.9522 
L 64.07406 8.779598 
L 64.285357 7.848065 
L 64.35685 8.017004 
L 64.666273 13.558219 
L 64.787791 11.231318 
L 64.931328 10.676077 
L 65.173726 11.094713 
L 65.286549 12.209016 
L 65.363916 10.616644 
L 65.364063 12.130011 
L 65.657603 10.945838 
L 65.902996 10.951056 
L 65.967094 11.737601 
L 66.003365 9.78183 
L 66.138233 10.173006 
L 66.298331 12.70339 
L 66.331476 11.694805 
L 66.469263 13.130028 
L 66.63332 11.431611 
L 66.79112 11.724091 
L 66.993787 13.013278 
L 67.191305 12.723442 
L 67.334925 13.215201 
L 67.470558 11.447845 
L 67.608329 11.113036 
L 67.813147 14.238468 
L 67.882149 8.98521 
L 68.020509 10.104076 
L 68.466762 24.651634 
L 68.878619 16.065408 
L 69.084444 17.462653 
L 69.194584 12.571091 
L 69.643162 16.978955 
L 69.675984 17.361482 
L 69.885454 15.681422 
L 70.056598 12.275008 
L 70.500057 13.094007 
L 70.63766 16.20726 
L 70.742698 15.997458 
L 70.881761 14.034107 
L 71.130965 13.34104 
L 71.291614 10.46901 
L 71.599651 13.123131 
L 71.738725 16.67151 
L 71.911825 17.480647 
L 72.049825 16.557822 
L 72.296427 21.286072 
L 72.461643 21.457092 
L 72.874048 24.450997 
L 72.906919 23.465949 
L 73.633611 20.041062 
L 74.383961 15.912869 
L 75.185395 14.776194 
L 75.934504 15.480951 
L 75.964859 17.952646 
L 76.27411 14.220619 
L 76.550385 18.764142 
L 77.064849 5.111258 
L 77.101951 8.339231 
L 77.513317 10.518768 
L 77.5456 13.150245 
L 77.785494 14.772716 
L 78.030751 10.048557 
L 78.508068 16.790716 
L 78.681412 10.317078 
L 78.823321 10.1539 
L 78.969236 9.13731 
L 79.230855 11.044549 
L 79.574634 22.294186 
L 79.678562 21.781907 
L 79.847592 18.295853 
L 80.171571 23.442829 
L 80.363596 23.287578 
L 80.535194 17.492321 
L 80.676475 15.625309 
L 80.880255 15.722117 
L 80.948155 16.358368 
L 81.326023 21.759776 
L 81.609952 18.895358 
L 81.704387 18.767612 
L 81.886052 20.462697 
L 82.091631 17.933516 
L 82.118289 15.342833 
L 82.247263 17.48135 
L 82.453694 18.038184 
L 82.934705 14.602264 
L 83.072809 14.94718 
L 83.380778 16.659966 
L 83.518731 16.437212 
L 83.693994 15.756927 
L 83.966358 13.699326 
L 84.068778 14.675865 
L 84.376672 13.077068 
L 84.690111 13.896404 
L 84.960329 17.409683 
L 85.063737 14.7427 
L 85.236837 14.171109 
L 85.475853 16.10956 
L 85.649034 22.09496 
L 85.786916 24.074291 
L 85.959949 23.336132 
L 86.339965 18.234439 
L 86.508956 21.548576 
L 86.64694 21.553061 
L 86.921162 12.919007 
L 87.159949 11.734065 
L 87.193991 9.635026 
L 87.369358 11.595664 
L 87.662201 12.397046 
L 87.662774 11.5182 
L 87.677479 14.501864 
L 87.831099 15.407025 
L 88.125483 11.627932 
L 88.283205 12.189539 
L 88.346322 11.206378 
L 88.620095 2.597682 
L 88.822975 0.72 
L 88.960631 0.879517 
L 89.304134 2.872898 
L 89.955926 15.518817 
L 90.05864 23.028612 
L 90.196257 23.614722 
L 90.332914 21.94446 
L 90.61112 21.054368 
L 90.884315 22.297805 
L 91.052459 20.254272 
L 91.198254 20.397046 
L 91.329921 19.354499 
L 91.603512 12.357971 
L 91.746691 11.628775 
L 92.016982 11.333397 
L 92.195959 8.589952 
L 92.32633 9.300414 
L 92.600611 5.461497 
L 92.739517 5.585315 
L 93.049746 14.531856 
L 93.257276 15.683694 
L 93.289937 13.29384 
L 93.494243 13.127056 
L 93.597976 14.457296 
L 93.736972 13.671075 
L 93.872854 16.566478 
L 94.147117 18.18267 
L 94.355848 11.219633 
L 94.765083 14.722684 
L 94.904221 16.462268 
L 95.005981 15.11183 
L 95.248523 14.385084 
L 95.456295 12.071502 
L 95.65896 14.803878 
L 95.797736 14.276897 
L 95.89976 12.011851 
L 96.0441 12.76144 
L 96.170208 14.866881 
L 96.430314 7.360042 
L 96.595525 8.825998 
L 97.215752 19.162548 
L 97.420874 16.80425 
L 97.593253 17.416103 
L 97.795547 22.319049 
L 97.875122 29.071346 
L 98.284665 23.303077 
L 98.429311 26.086763 
L 98.562265 24.243828 
L 98.867308 27.740641 
L 99.005719 28.654953 
L 99.383881 28.692561 
L 99.417619 21.721817 
L 99.556614 26.533567 
L 99.797098 23.230661 
L 99.86549 17.985611 
L 100.002989 16.808628 
L 100.13982 16.736856 
L 100.401376 16.127012 
L 100.554436 9.452053 
L 100.688195 12.989095 
L 100.722293 12.3954 
L 100.944246 10.346607 
L 101.006921 6.900334 
L 101.211453 9.625764 
L 101.413526 15.232747 
L 101.823576 14.449618 
L 102.037749 20.226379 
L 102.27245 22.196302 
L 102.550363 23.727915 
L 102.997347 20.825574 
L 103.173693 21.426212 
L 103.250879 22.986338 
L 103.444483 20.582634 
L 103.547948 16.994798 
L 103.806792 18.291641 
L 103.893564 21.352478 
L 104.096827 23.130704 
L 104.130756 21.681509 
L 104.354359 21.495185 
L 104.429118 21.816981 
L 104.562055 24.175938 
L 104.683933 24.298589 
L 104.8195 25.888329 
L 105.129737 31.82228 
L 105.373596 26.744927 
L 105.405113 27.943221 
L 105.679617 24.239205 
L 105.962724 16.046624 
L 106.132506 16.074319 
L 106.270105 15.359781 
L 106.380744 13.313943 
L 106.5441 13.43233 
L 106.81932 9.175672 
L 107.378511 14.75452 
L 107.405386 9.422382 
L 107.648011 14.369418 
L 107.855633 16.160956 
L 107.956601 13.647163 
L 108.130885 15.849103 
L 108.266544 19.624789 
L 108.375898 18.685824 
L 108.544995 13.526655 
L 108.574251 16.787237 
L 108.815846 19.819659 
L 108.954962 17.091804 
L 109.0936 17.212791 
L 109.231447 13.522656 
L 109.575903 17.774642 
L 109.676005 15.649054 
L 109.820024 15.071805 
L 109.918403 18.558737 
L 110.230111 16.015039 
L 110.401078 18.628517 
L 110.642311 17.885099 
L 110.91798 13.98434 
L 111.165552 14.178109 
L 111.199345 14.586246 
L 111.376473 12.325854 
L 111.509217 12.719191 
L 111.65028 13.641418 
L 111.955594 9.968845 
L 112.057314 9.558174 
L 112.778971 18.143101 
L 112.917407 18.474377 
L 113.06312 17.867063 
L 113.192613 16.260102 
L 113.364589 16.896095 
L 113.637702 20.839473 
L 113.787631 18.980086 
L 114.063295 12.964326 
L 114.204358 11.389099 
L 114.473393 9.681606 
L 114.742443 16.542579 
L 114.879581 16.041479 
L 114.911828 12.36922 
L 115.085029 11.459205 
L 115.188633 12.137241 
L 115.496652 7.861139 
L 115.669031 10.613604 
L 115.910475 16.438218 
L 116.115502 16.368452 
L 116.183519 18.61719 
L 116.323148 19.526359 
L 116.61506 23.245284 
L 116.857675 25.158613 
L 116.942986 24.479624 
L 117.148261 20.721604 
L 117.183504 17.808562 
L 117.457907 15.642555 
L 117.733122 13.576593 
L 118.046277 11.688078 
L 118.215642 11.919257 
L 118.319189 15.288702 
L 118.491867 16.958758 
L 118.730703 15.279306 
L 119.176644 18.706019 
L 119.383006 18.128493 
L 119.485424 18.880873 
L 119.625236 18.430778 
L 119.727016 16.699914 
L 120.037626 20.460423 
L 120.386453 17.414708 
L 120.520466 17.932827 
L 120.899221 20.816812 
L 121.007947 24.412867 
L 121.141206 23.839475 
L 121.485192 21.191783 
L 121.786143 23.998933 
L 122.017536 16.747267 
L 122.036085 17.334128 
L 122.199914 19.277411 
L 122.327731 17.451855 
L 122.348068 19.424187 
L 122.424055 14.435164 
L 122.657736 14.058614 
L 122.735682 16.841104 
L 123.035367 11.658712 
L 123.137847 11.815937 
L 123.413383 11.542294 
L 123.520314 13.096557 
L 123.700768 10.578287 
L 124.004185 10.997526 
L 124.143413 8.969446 
L 124.277783 11.779583 
L 124.554009 9.923163 
L 124.695327 12.434183 
L 124.865162 12.982425 
L 125.012256 16.365224 
L 125.137662 12.875737 
L 125.412416 15.507837 
L 125.562658 17.369292 
L 125.688155 17.249302 
L 125.84578 18.566664 
L 125.996648 17.96999 
L 126.132209 17.909904 
L 126.272644 18.855979 
L 126.406034 15.325679 
L 126.552699 16.029033 
L 126.68582 17.492138 
L 126.990961 14.025523 
L 127.127146 11.207153 
L 127.266366 11.383756 
L 127.402298 11.889198 
L 127.538837 9.780538 
L 127.680702 9.828785 
L 127.986521 17.478809 
L 128.262236 12.331003 
L 128.399594 12.371092 
L 128.536432 14.080943 
L 128.6745 14.264376 
L 128.811272 13.8548 
L 129.122292 15.247614 
L 129.25961 14.159334 
L 129.398094 11.621991 
L 129.533747 12.326221 
L 129.813549 17.059171 
L 129.945462 13.391384 
L 130.25572 11.640961 
L 130.385994 11.921663 
L 130.822132 7.922448 
L 131.082756 10.703344 
L 131.221675 10.79883 
L 131.427144 16.604279 
L 131.670299 11.654412 
L 131.972825 16.165971 
L 132.078506 14.612792 
L 132.229504 16.951623 
L 132.523765 12.053623 
L 132.661308 12.124654 
L 132.802666 11.739608 
L 132.973519 13.829532 
L 133.075331 17.238135 
L 133.213921 16.719395 
L 133.386795 13.973754 
L 133.663195 15.120332 
L 133.797456 17.657955 
L 133.937455 16.387246 
L 134.096365 16.942222 
L 134.107628 13.847734 
L 134.212244 13.870299 
L 134.522269 9.966251 
L 134.935741 14.807559 
L 135.038941 13.505609 
L 135.074358 14.215127 
L 135.214094 14.375176 
L 135.348841 15.152166 
L 135.536149 16.987314 
L 135.695117 15.494425 
L 135.797459 15.847538 
L 135.935881 17.343738 
L 136.209966 13.326798 
L 136.346882 16.515261 
L 136.624035 13.462578 
L 136.836508 16.371095 
L 136.938622 15.268075 
L 137.08075 16.245678 
L 137.222381 18.809517 
L 137.249419 21.819857 
L 137.35129 20.774528 
L 137.592229 20.512314 
L 137.698087 18.679845 
L 137.76397 14.248694 
L 138.074013 14.309196 
L 138.211378 15.446406 
L 138.245971 13.940248 
L 138.661146 15.164902 
L 138.798117 13.580058 
L 138.833263 10.534346 
L 139.588026 22.922271 
L 139.623274 21.7908 
L 139.762092 21.150181 
L 139.934873 21.429212 
L 140.038582 18.651315 
L 140.069714 22.104581 
L 140.208704 22.535916 
L 140.518664 24.971327 
L 140.552109 21.737357 
L 140.756979 21.830493 
L 140.89362 15.295278 
L 141.032573 16.554971 
L 141.169759 13.860098 
L 141.377664 13.896868 
L 141.51522 15.417312 
L 141.547632 11.773773 
L 141.688817 14.25947 
L 141.858146 11.322542 
L 141.960563 13.616647 
L 142.133025 13.065581 
L 142.307278 15.669734 
L 142.511628 14.461611 
L 142.650636 16.980301 
L 142.752462 12.718383 
L 143.025848 15.113711 
L 143.232466 15.957106 
L 143.466169 19.597431 
L 143.644756 18.05324 
L 143.884523 18.899213 
L 143.970235 18.48053 
L 144.090231 21.939359 
L 144.228191 24.40055 
L 144.368249 20.324552 
L 144.607131 21.786054 
L 144.647073 23.610279 
L 144.744729 18.667442 
L 144.882239 20.091536 
L 145.274324 19.090628 
L 145.312189 20.825623 
L 145.440619 18.109834 
L 145.745216 21.414774 
L 145.882982 18.448443 
L 146.031338 18.259484 
L 146.159056 20.047416 
L 146.576648 16.040788 
L 146.843348 15.127828 
L 147.193485 10.507672 
L 147.328611 13.270798 
L 147.43339 12.650679 
L 147.601409 10.019294 
L 147.705996 11.774597 
L 147.983896 12.981659 
L 148.049828 15.160615 
L 148.196578 12.689578 
L 148.287406 13.942146 
L 148.424935 11.899744 
L 148.631441 12.445215 
L 148.776771 13.267162 
L 148.88623 13.177811 
L 149.146367 17.342114 
L 149.287529 15.323256 
L 149.499532 15.646521 
L 149.736727 17.759577 
L 149.872963 16.807679 
L 150.013846 19.536387 
L 150.14916 17.190484 
L 150.526819 14.718568 
L 150.733864 19.504503 
L 150.90585 19.651535 
L 151.179854 23.387491 
L 151.386457 26.282841 
L 151.45937 22.323792 
L 151.626822 23.65368 
L 151.732551 26.307794 
L 151.867493 23.982818 
L 152.038642 23.656478 
L 152.27963 21.445832 
L 152.428138 22.680478 
L 152.553631 20.359497 
L 152.82999 21.102014 
L 153.137586 17.758643 
L 153.415244 19.00409 
L 153.550344 18.671448 
L 153.928846 12.95422 
L 154.065513 12.145033 
L 154.27194 14.861339 
L 154.858247 12.657231 
L 154.999849 11.344999 
L 155.340703 14.068809 
L 155.408391 13.495396 
L 155.546222 14.355061 
L 155.688778 14.318168 
L 155.839481 13.289479 
L 155.960449 13.77626 
L 156.200903 15.306592 
L 156.344428 14.225195 
L 156.406434 12.394954 
L 156.955359 10.032766 
L 157.237915 13.884755 
L 157.392528 18.317145 
L 157.540478 15.596188 
L 157.67746 17.358278 
L 157.953173 21.739686 
L 158.104861 23.520066 
L 158.5037 23.858763 
L 158.646283 17.455976 
L 158.814023 16.475558 
L 158.950406 19.283501 
L 159.106216 19.966648 
L 159.372978 15.763694 
L 159.501753 15.760092 
L 159.809729 14.398732 
L 160.086175 18.321436 
L 160.223176 15.855442 
L 160.359886 16.063699 
L 161.082903 22.610738 
L 161.217519 22.826716 
L 161.356926 21.553975 
L 161.494 21.412681 
L 161.631913 23.318694 
L 161.831829 22.894835 
L 161.938287 21.068237 
L 162.077169 20.626922 
L 162.3517 15.478426 
L 162.496046 16.909696 
L 162.638152 16.194761 
L 162.769062 18.53541 
L 163.076989 15.708773 
L 163.358909 14.584993 
L 163.488145 15.136121 
L 163.624038 18.691471 
L 163.766411 18.447064 
L 164.041815 14.28288 
L 164.223475 14.150713 
L 164.486211 15.477307 
L 164.760542 14.974365 
L 164.934234 18.327255 
L 165.039657 16.62545 
L 165.176234 12.602874 
L 165.208875 18.368456 
L 165.350895 19.545775 
L 165.661727 16.653461 
L 165.760356 18.259055 
L 166.035155 16.626232 
L 166.184923 19.067023 
L 166.343867 16.963706 
L 166.492109 19.1632 
L 166.833385 15.836352 
L 167.058366 23.436346 
L 167.211905 21.593002 
L 167.451845 24.983301 
L 167.589409 24.215465 
L 167.862326 25.088343 
L 167.930517 22.507603 
L 168.054658 22.530662 
L 168.172073 21.927404 
L 168.583126 14.625571 
L 168.652065 16.597057 
L 168.829442 17.19524 
L 169.032871 13.428971 
L 169.341488 14.568318 
L 169.492452 15.573885 
L 169.580515 19.663851 
L 169.754089 20.274507 
L 169.890794 20.31055 
L 170.027912 22.414469 
L 170.40457 18.139486 
L 170.481899 19.216285 
L 170.58573 15.808787 
L 170.716012 15.730817 
L 170.887896 14.197538 
L 171.026586 10.136313 
L 171.301904 12.160117 
L 171.475687 8.909782 
L 171.715297 10.974393 
L 171.749217 14.040331 
L 172.129928 17.579727 
L 172.167454 18.899461 
L 172.333477 19.760595 
L 172.435837 22.5165 
L 172.589875 21.93598 
L 172.710372 22.213053 
L 172.852656 24.189744 
L 173.082955 22.841404 
L 173.166408 23.601381 
L 173.297593 21.364453 
L 173.43307 21.487533 
L 173.571115 21.994085 
L 173.91393 20.809453 
L 174.259127 15.371585 
L 174.362333 14.777529 
L 174.464855 18.196786 
L 174.569213 17.981518 
L 174.843461 11.657507 
L 175.017553 11.609164 
L 175.289145 13.802381 
L 175.674367 19.778695 
L 175.73639 25.174625 
L 175.770533 21.399778 
L 175.943056 18.71422 
L 175.988798 14.712726 
L 176.28641 20.985257 
L 176.430076 20.903575 
L 177.111101 6.657386 
L 177.281337 7.652657 
L 177.418074 10.364001 
L 177.590204 10.047756 
L 177.727672 10.639778 
L 177.900109 9.462646 
L 178.039767 9.606774 
L 178.55685 18.476605 
L 178.697377 18.626318 
L 178.899813 18.389817 
L 178.967738 20.436079 
L 179.278157 18.330842 
L 179.414129 20.687894 
L 179.586248 21.414262 
L 179.862464 19.122059 
L 180.034057 17.567728 
L 180.10643 18.479566 
L 180.411808 13.286534 
L 180.826773 15.454325 
L 180.956598 14.907715 
L 180.982991 13.830142 
L 181.185623 14.8776 
L 181.293806 15.289063 
L 181.578442 8.361596 
L 181.818463 12.860244 
L 182.000894 10.52198 
L 182.022681 8.600131 
L 182.402555 12.352222 
L 182.580797 10.979335 
L 182.711201 12.890379 
L 182.986411 20.57471 
L 183.125549 20.364042 
L 183.296647 18.661568 
L 183.509478 19.812164 
L 183.615157 21.957176 
L 183.681381 19.32495 
L 183.814147 22.213446 
L 184.12298 18.86567 
L 184.446797 21.657748 
L 184.606212 21.863264 
L 184.674542 23.122014 
L 184.994729 18.928841 
L 185.156972 20.485763 
L 185.363822 20.951756 
L 185.470604 22.441474 
L 185.700257 21.704347 
L 186.101086 18.646397 
L 186.1689 19.558155 
L 186.367934 25.683106 
L 186.63914 27.026401 
L 186.951756 27.931488 
L 187.089058 26.463715 
L 187.225022 26.998734 
L 187.535481 25.863345 
L 188.397303 20.114215 
L 188.915639 22.769793 
L 189.08672 22.478209 
L 189.534063 11.911299 
L 189.709978 11.198354 
L 189.777635 13.4168 
L 189.91465 12.809838 
L 190.087703 10.152298 
L 190.223204 12.643427 
L 190.331229 9.83732 
L 190.567942 9.743527 
L 191.049928 21.413787 
L 191.186546 16.217273 
L 191.49878 20.003549 
L 191.634619 17.769709 
L 191.772674 18.826306 
L 191.923456 19.070243 
L 192.062339 17.800764 
L 192.321798 18.246961 
L 192.389924 17.91032 
L 192.493131 14.34388 
L 192.667733 17.91095 
L 192.773705 16.950801 
L 193.049267 13.271383 
L 193.222006 12.423023 
L 193.323787 12.939057 
L 193.537761 12.513456 
L 193.770517 9.387539 
L 194.010221 9.566813 
L 194.080314 5.833678 
L 194.21778 5.164415 
L 194.456389 11.1887 
L 194.594005 12.435247 
L 194.731653 10.599346 
L 194.903499 13.532908 
L 195.074239 13.061441 
L 195.25425 11.462128 
L 195.588116 19.433376 
L 195.727551 17.374046 
L 195.869772 17.279764 
L 196.036278 16.656044 
L 196.199567 18.31124 
L 196.310845 16.498601 
L 196.619539 21.225174 
L 196.757979 20.928322 
L 196.931035 21.029814 
L 197.10041 18.549422 
L 197.18049 15.109422 
L 197.512245 15.882452 
L 197.753569 12.603341 
L 197.933377 12.415709 
L 198.027978 6.584082 
L 198.409384 4.624979 
L 198.441237 7.505823 
L 198.681747 10.69873 
L 198.751485 8.402904 
L 198.88899 9.673457 
L 199.061014 9.455263 
L 199.197819 8.638524 
L 199.334584 10.392872 
L 199.441203 16.952391 
L 199.609706 17.368845 
L 199.719806 18.127769 
L 199.885535 16.691317 
L 200.129444 16.225286 
L 200.300348 20.097829 
L 200.331281 19.370977 
L 200.572915 23.983472 
L 200.711883 21.002825 
L 200.849168 20.703888 
L 201.158124 23.290677 
L 201.300419 23.492482 
L 201.432704 23.189971 
L 201.573171 23.45425 
L 201.736501 22.680209 
L 201.872791 20.44082 
L 202.045411 20.707522 
L 202.120245 21.73906 
L 202.42475 16.167767 
L 202.594481 13.928768 
L 202.836915 15.68804 
L 202.977068 13.153632 
L 203.005137 13.450127 
L 203.210375 13.703958 
L 203.42462 16.607573 
L 203.450778 14.396582 
L 203.731728 20.869316 
L 203.902493 20.349752 
L 204.00319 20.581912 
L 204.139644 19.42834 
L 204.448864 20.778077 
L 204.563659 19.171548 
L 204.692417 20.772424 
L 204.864934 17.269778 
L 205.113428 16.451857 
L 205.334039 18.083621 
L 205.592585 20.833247 
L 205.732084 18.261555 
L 205.966759 22.864611 
L 206.105905 20.823769 
L 206.276816 21.284122 
L 206.622407 17.414773 
L 206.757807 18.093814 
L 206.968668 17.75407 
L 207.170854 15.876989 
L 207.26005 11.353814 
L 207.480587 9.259565 
L 207.522486 5.693159 
L 207.897505 12.856208 
L 207.963729 13.879927 
L 208.238956 9.279847 
L 208.409653 8.259581 
L 208.82419 11.484835 
L 208.997774 15.310284 
L 209.270473 10.84174 
L 209.379134 10.658607 
L 209.555452 12.95175 
L 209.579024 10.646438 
L 209.890565 16.170453 
L 209.923325 14.284862 
L 209.959849 16.071267 
L 210.372268 19.288319 
L 210.612617 18.161658 
L 210.721116 19.980805 
L 210.822028 19.31865 
L 211.166545 14.363745 
L 211.255991 15.528244 
L 211.371001 16.069493 
L 211.508929 15.771665 
L 211.713462 14.773895 
L 211.818218 11.758356 
L 211.954891 12.454671 
L 212.090195 8.928661 
L 212.366486 12.835896 
L 212.812509 15.666973 
L 212.988783 14.27279 
L 213.087203 14.420964 
L 213.50375 20.447756 
L 213.637967 18.960511 
L 213.780867 19.467319 
L 213.915872 18.786343 
L 214.221746 16.620854 
L 214.362601 18.740424 
L 214.496375 18.843766 
L 214.806384 17.794471 
L 214.93414 15.854486 
L 215.115827 14.874165 
L 215.263089 11.643463 
L 215.461086 12.951262 
L 215.6383 15.040637 
L 215.677634 14.748191 
L 215.769467 14.618201 
L 215.913341 14.704153 
L 216.207529 16.383693 
L 216.333428 19.670494 
L 216.491421 19.801322 
L 216.629224 21.083141 
L 216.863598 21.5885 
L 216.899557 19.182149 
L 217.057626 22.016352 
L 217.242288 22.019041 
L 217.34597 19.53471 
L 217.483574 19.199425 
L 217.623434 22.928751 
L 217.791995 20.838132 
L 218.186183 26.887121 
L 218.376545 27.057279 
L 218.486063 22.83837 
L 218.671632 21.671416 
L 218.810615 23.932396 
L 219.053937 18.439683 
L 219.220908 21.928522 
L 219.360276 21.1473 
L 219.632304 16.632105 
L 219.876663 18.8235 
L 220.185262 13.234154 
L 220.326122 15.262526 
L 220.465092 14.497731 
L 220.743327 10.023457 
L 220.942174 13.04302 
L 221.157751 8.633172 
L 221.460307 15.985715 
L 221.700938 19.028814 
L 221.944618 16.164743 
L 222.148868 16.218066 
L 222.320245 11.43216 
L 222.732693 17.596948 
L 222.870575 17.698091 
L 223.146595 15.570661 
L 223.285238 15.875189 
L 223.676869 17.446669 
L 223.868196 16.938027 
L 224.039848 12.587002 
L 224.177005 6.438054 
L 224.317201 7.06547 
L 224.452884 6.919498 
L 224.630069 10.227834 
L 224.841448 9.334276 
L 224.935522 9.991273 
L 225.279569 17.738367 
L 225.482888 23.346337 
L 225.625938 23.560192 
L 225.724967 22.348663 
L 225.898777 21.814891 
L 226.137032 19.04986 
L 226.414663 17.841797 
L 226.590181 18.682978 
L 226.747464 20.260022 
L 226.997001 16.27126 
L 227.203151 15.030737 
L 227.273612 18.295634 
L 227.478729 19.11761 
L 227.648791 18.866602 
L 227.718197 17.201196 
L 227.993714 18.198573 
L 228.232489 15.749852 
L 228.277077 13.268372 
L 228.471708 14.123661 
L 228.544805 16.344215 
L 228.853266 10.99438 
L 228.992091 12.048534 
L 229.12844 14.629992 
L 229.405336 11.749768 
L 229.595226 13.827903 
L 229.698887 16.350232 
L 230.011957 8.058466 
L 230.454227 14.27716 
L 230.830694 11.277492 
L 230.967398 8.621436 
L 231.108407 9.113519 
L 231.414229 18.921187 
L 231.570913 17.231596 
L 231.966495 15.893248 
L 232.412206 19.915366 
L 232.826455 15.092821 
L 232.970694 15.292565 
L 233.168544 14.681574 
L 233.272479 12.687558 
L 233.41001 12.906038 
L 233.548417 14.258891 
L 233.721535 10.390478 
L 233.821448 12.380134 
L 234.507843 18.54236 
L 234.71966 19.043752 
L 234.852168 21.622927 
L 234.954763 19.851106 
L 235.160472 23.170711 
L 235.333038 22.169913 
L 235.541211 18.234872 
L 235.785751 18.662863 
L 235.952502 17.545182 
L 236.094123 18.655982 
L 236.227274 16.973059 
L 236.399975 16.770736 
L 236.50605 19.021707 
L 236.812224 19.29725 
L 236.950268 19.923076 
L 237.085796 19.257859 
L 237.363566 22.407042 
L 237.533955 22.266001 
L 237.807817 24.352991 
L 237.944005 20.940129 
L 238.191703 20.476598 
L 238.39076 23.643853 
L 238.561642 22.147439 
L 238.702533 19.522424 
L 238.800777 14.900043 
L 239.077138 17.334 
L 239.213242 16.263328 
L 239.358103 18.000863 
L 239.384065 13.19097 
L 239.521962 16.283247 
L 239.660735 16.102066 
L 239.796937 15.602996 
L 239.968767 15.47585 
L 240.107652 16.946618 
L 240.314154 20.654472 
L 240.381615 20.281376 
L 240.485522 20.509239 
L 240.721906 22.53849 
L 240.794001 22.033003 
L 241.068581 22.627737 
L 241.177061 19.923903 
L 241.275117 20.178584 
L 241.378055 22.785335 
L 241.626993 17.492954 
L 241.786177 16.573166 
L 241.938607 13.501312 
L 242.077386 13.015804 
L 242.182583 11.866125 
L 242.489746 16.128887 
L 242.66167 15.726048 
L 243.03947 22.128722 
L 243.176278 21.149689 
L 243.347698 23.434618 
L 243.58964 23.499184 
L 243.662887 25.184859 
L 243.863964 24.789394 
L 244.071221 26.364512 
L 244.206614 25.133251 
L 244.344309 27.02489 
L 244.485897 24.175032 
L 244.624542 24.10256 
L 245.459003 14.725939 
L 245.592271 10.644612 
L 245.760243 11.349453 
L 246.243282 14.820537 
L 246.516504 13.721541 
L 246.587485 11.522737 
L 246.726413 13.482961 
L 246.868035 13.193736 
L 247.03394 13.146613 
L 247.307658 11.667914 
L 247.445761 12.100169 
L 247.719913 13.716819 
L 248.029465 18.923943 
L 248.167888 17.708299 
L 248.306053 18.026009 
L 248.443585 21.642972 
L 248.584203 20.262203 
L 248.856386 19.994927 
L 248.99824 17.768748 
L 249.164396 19.789956 
L 249.300884 17.091236 
L 249.439682 20.679127 
L 249.578399 21.238506 
L 249.864039 16.670906 
L 249.993746 17.756839 
L 250.026304 14.286996 
L 250.137177 17.896286 
L 250.302079 17.953796 
L 250.476797 18.964873 
L 250.57982 17.520754 
L 250.716052 18.391629 
L 250.868508 13.811322 
L 250.991723 13.881698 
L 251.292865 15.121968 
L 251.438335 13.039809 
L 251.577337 13.090346 
L 251.716553 14.042788 
L 251.8562 13.937874 
L 252.125043 10.02412 
L 252.264029 13.998221 
L 252.40514 12.67815 
L 252.704764 14.583486 
L 252.84948 15.045956 
L 253.119495 11.854666 
L 253.267399 13.295692 
L 253.399119 13.194491 
L 253.541707 14.628102 
L 253.842664 12.235149 
L 253.984249 13.760967 
L 254.149957 13.871445 
L 254.289263 14.233096 
L 254.494875 13.926916 
L 254.746956 12.0486 
L 254.819449 14.717551 
L 254.960142 15.185614 
L 255.263032 18.024856 
L 255.395552 15.507459 
L 255.58815 15.408499 
L 255.672176 17.123823 
L 255.957609 18.19772 
L 256.089856 17.645277 
L 256.256451 18.198315 
L 256.428727 21.101174 
L 256.540614 20.97705 
L 256.704335 21.764 
L 257.425863 29.359997 
L 257.803474 28.498378 
L 257.975203 21.41727 
L 258.458014 14.245293 
L 258.662926 11.008081 
L 258.802728 10.896371 
L 258.972048 11.712534 
L 259.076116 9.591178 
L 259.24789 11.588839 
L 259.417632 12.001357 
L 259.522593 12.793672 
L 259.695961 12.721849 
L 259.967706 13.402272 
L 260.105013 14.925947 
L 260.531382 12.255986 
L 260.688441 13.080452 
L 260.825625 10.998867 
L 260.963718 12.53734 
L 261.203516 11.628396 
L 261.343276 11.578362 
L 261.410606 13.099377 
L 261.514016 12.893694 
L 261.65118 15.19434 
L 261.931614 14.011556 
L 261.961081 17.021011 
L 262.098514 15.498074 
L 262.26852 15.146455 
L 262.375066 14.002925 
L 262.648389 14.958852 
L 262.795977 13.275427 
L 262.922849 13.290648 
L 263.156251 13.560083 
L 263.200968 17.132989 
L 263.402992 17.649001 
L 263.657686 20.912194 
L 263.677876 23.09469 
L 263.815948 21.481513 
L 263.95258 21.245625 
L 264.124704 22.499091 
L 264.331365 22.636286 
L 264.366195 23.509777 
L 264.5193 21.788633 
L 264.778583 14.632398 
L 264.951611 15.077049 
L 265.065556 13.713063 
L 265.226634 14.311945 
L 265.510524 17.217592 
L 265.683159 19.473664 
L 265.95733 18.720303 
L 266.165296 19.308717 
L 266.198023 21.074077 
L 266.483856 17.36488 
L 266.65472 19.470639 
L 266.827334 19.471731 
L 267.207108 12.831033 
L 268.02796 20.333065 
L 268.270612 14.906493 
L 268.340771 15.255786 
L 268.476115 17.290677 
L 268.613357 15.912513 
L 268.784374 15.967939 
L 269.067398 14.964579 
L 269.198971 15.883549 
L 269.33643 14.004547 
L 269.516217 17.789695 
L 269.917783 14.729014 
L 270.051859 18.667974 
L 270.184073 18.700436 
L 270.492957 17.971849 
L 270.733168 16.422037 
L 270.801436 17.09091 
L 270.911641 14.956679 
L 271.010475 17.408061 
L 271.180849 17.465704 
L 271.386009 17.088826 
L 271.453857 13.912084 
L 271.626733 13.452212 
L 272.003225 15.828225 
L 272.3137 20.9751 
L 272.449701 21.276782 
L 272.591731 22.845963 
L 272.76081 21.289042 
L 272.898554 21.697481 
L 273.452471 18.098314 
L 273.654865 18.977536 
L 273.861695 16.457534 
L 274.03208 13.493349 
L 274.173866 14.359734 
L 274.307896 12.909463 
L 274.582863 17.548866 
L 274.750014 15.242281 
L 274.968816 16.019723 
L 275.134937 12.278808 
L 275.174456 14.805573 
L 275.406311 12.833052 
L 275.507463 17.509866 
L 275.614713 17.469153 
L 275.754874 18.993747 
L 275.855837 16.112114 
L 276.129071 18.196172 
L 276.300378 17.799964 
L 276.439183 21.038024 
L 276.580869 20.325285 
L 276.790744 20.823649 
L 276.852227 17.667348 
L 277.02506 15.548517 
L 277.127303 16.595352 
L 277.405619 17.667802 
L 277.435832 14.346142 
L 277.955084 12.209888 
L 278.096015 13.238383 
L 278.159049 16.972131 
L 278.43745 24.726167 
L 278.605614 22.977695 
L 278.710973 23.118927 
L 278.846593 22.698297 
L 279.090258 24.309322 
L 279.258028 22.041998 
L 279.567287 17.73435 
L 279.842041 13.069345 
L 279.979661 12.32993 
L 280.260327 13.352635 
L 280.404782 13.347519 
L 280.701473 11.916842 
L 280.839183 13.174363 
L 280.976123 12.277133 
L 281.423947 17.234777 
L 281.532227 15.272365 
L 281.699751 17.277682 
L 281.839474 17.302891 
L 281.975143 19.362017 
L 282.252883 19.161802 
L 282.387097 20.481338 
L 282.458611 17.678072 
L 282.768571 14.022794 
L 282.835529 11.629312 
L 282.971479 12.204993 
L 283.245487 9.156301 
L 283.390303 8.972915 
L 283.529509 9.442208 
L 283.817205 8.415386 
L 283.968165 10.576599 
L 284.121382 9.8801 
L 284.659036 14.578605 
L 284.899932 14.408897 
L 284.972053 12.962728 
L 285.139454 12.448141 
L 285.246463 14.23613 
L 285.415084 13.953859 
L 285.658057 11.687134 
L 285.964688 10.646445 
L 286.103659 13.536924 
L 286.51567 18.27482 
L 286.791664 14.749218 
L 286.834862 17.231964 
L 287.018334 14.659812 
L 287.154479 15.661393 
L 287.518136 13.373402 
L 287.648072 13.038482 
L 287.785222 10.507744 
L 288.024614 8.74895 
L 288.093433 11.249832 
L 288.264071 10.981675 
L 288.40497 13.425068 
L 288.58034 12.767319 
L 288.643284 11.494337 
L 288.780951 11.308078 
L 289.057819 8.558317 
L 289.537726 15.740631 
L 289.951906 18.631671 
L 290.120154 22.050346 
L 290.326022 22.98131 
L 290.360229 25.42558 
L 290.532223 27.159959 
L 290.787601 25.351162 
L 291.05547 24.005464 
L 291.190745 27.110585 
L 291.390989 25.557225 
L 291.672526 21.533156 
L 291.771397 21.700542 
L 292.073422 21.551629 
L 292.084947 22.473992 
L 292.219715 22.282685 
L 292.357036 22.471498 
L 292.495478 19.550274 
L 292.810426 18.086084 
L 292.976586 21.691064 
L 293.217658 21.609799 
L 293.320555 22.675199 
L 293.392661 22.355047 
L 293.802858 18.545643 
L 293.977245 20.751119 
L 294.119351 20.476727 
L 294.184709 23.037923 
L 294.493598 21.097334 
L 294.629199 21.059848 
L 294.801204 21.23128 
L 294.903568 21.107111 
L 295.180611 26.532893 
L 295.487273 23.695886 
L 295.695 22.891154 
L 295.937736 27.598206 
L 296.287739 24.64097 
L 296.762431 28.959615 
L 296.897502 26.341405 
L 297.034489 26.761992 
L 297.309097 20.975576 
L 297.44663 19.92131 
L 297.756545 23.216881 
L 298.064734 17.345696 
L 298.172801 17.281722 
L 298.201419 18.405435 
L 298.408156 18.478392 
L 298.514005 17.66414 
L 298.615481 17.948639 
L 298.751834 15.22726 
L 298.899464 15.892891 
L 299.268224 10.768877 
L 299.305154 9.442204 
L 299.543533 8.535678 
L 299.618153 10.393732 
L 299.885771 10.436049 
L 300.057663 8.604717 
L 300.162381 12.313665 
L 300.297024 13.022261 
L 300.43508 13.077762 
L 300.587137 12.519213 
L 300.715949 12.689662 
L 300.868216 12.628525 
L 301.144738 12.001233 
L 301.169837 14.673437 
L 301.305717 12.160565 
L 301.449439 14.337796 
L 301.626111 12.142955 
L 301.724662 8.7022 
L 302.033449 10.446199 
L 302.272966 10.688275 
L 302.30996 11.060523 
L 302.48523 8.071758 
L 302.65228 7.761853 
L 302.964012 8.788592 
L 303.001458 7.290297 
L 303.178063 8.274382 
L 303.281865 6.362312 
L 303.416227 7.657704 
L 303.550271 7.187913 
L 303.843874 9.139416 
L 304.046657 6.180073 
L 304.300497 10.026598 
L 304.597365 20.451276 
L 304.737211 22.059095 
L 304.910481 18.414398 
L 304.98857 18.996211 
L 305.15397 18.204666 
L 305.28451 18.90096 
L 305.420857 20.802497 
L 305.558155 20.576509 
L 305.704127 18.700831 
L 305.976775 11.453612 
L 306.142041 9.75118 
L 306.281028 13.030626 
L 306.657273 8.87913 
L 306.761373 5.636687 
L 306.869671 6.819328 
L 307.103553 5.829256 
L 307.21804 9.109427 
L 307.264573 8.448267 
L 307.416445 8.759948 
L 307.550983 8.267611 
L 307.687897 7.332899 
L 307.963449 12.225128 
L 308.101661 16.361284 
L 308.408988 15.65663 
L 308.546424 9.756869 
L 308.690389 12.527655 
L 308.820894 11.30076 
L 308.967945 12.770935 
L 309.3828 8.870548 
L 309.520087 11.736721 
L 309.690974 11.964483 
L 309.962669 19.38001 
L 310.099005 18.572473 
L 310.238612 20.195415 
L 310.377331 18.777621 
L 310.514628 19.529528 
L 310.820951 21.799685 
L 310.960099 20.257886 
L 311.097869 21.547652 
L 311.235 20.769167 
L 311.429018 20.503062 
L 311.662445 16.988958 
L 311.958466 21.955413 
L 312.093834 21.823793 
L 312.23003 23.025939 
L 312.539206 15.914407 
L 312.650213 16.692222 
L 312.815492 16.86765 
L 312.999739 19.829047 
L 313.226584 18.040958 
L 313.364018 15.481337 
L 313.509214 16.805575 
L 313.638858 13.949934 
L 313.781984 13.579999 
L 313.95155 12.597958 
L 314.085783 14.553235 
L 314.359915 10.894699 
L 314.635735 11.505856 
L 314.840852 14.733704 
L 314.943933 11.974299 
L 315.055702 12.791841 
L 315.186558 14.7351 
L 315.49549 11.84206 
L 315.663947 12.534419 
L 315.908074 15.452144 
L 316.062019 15.087382 
L 316.214489 14.372065 
L 316.375155 14.580749 
L 316.500676 15.66325 
L 316.661 14.438342 
L 316.833222 18.054953 
L 316.936106 17.524729 
L 317.039201 18.227896 
L 317.19027 16.364334 
L 317.222872 14.173727 
L 317.351379 13.495141 
L 317.487912 13.487902 
L 317.694821 14.424066 
L 317.797578 13.42027 
L 318.420987 16.870562 
L 318.455771 16.369118 
L 318.795305 18.363316 
L 318.899825 17.677129 
L 319.035501 15.895217 
L 319.173502 16.222326 
L 319.623426 13.531147 
L 319.883518 11.490006 
L 319.936066 12.582876 
L 320.045213 12.066386 
L 320.207812 14.8218 
L 320.36158 12.76716 
L 320.480915 13.647548 
L 321.032491 11.034484 
L 321.230051 11.221567 
L 321.304485 11.553274 
L 321.475786 13.548093 
L 321.746275 10.215642 
L 321.8838 9.080123 
L 322.171321 12.029098 
L 322.297253 11.952195 
L 322.502829 9.199156 
L 322.604762 11.481795 
L 322.846485 8.250328 
L 322.985976 8.09677 
L 323.059307 8.695707 
L 323.191105 12.208675 
L 323.498735 12.609181 
L 323.620949 14.729759 
L 323.774621 16.068586 
L 324.186585 22.138005 
L 324.41877 20.547321 
L 324.469773 20.769213 
L 324.757194 22.522914 
L 324.88558 20.542549 
L 325.11753 21.906685 
L 325.197093 21.150418 
L 325.293887 22.339774 
L 325.323316 18.603896 
L 325.426431 19.41827 
L 325.703181 17.763646 
L 325.771591 17.93299 
L 325.91006 17.427346 
L 326.154166 14.940978 
L 326.296254 15.350617 
L 326.44074 10.038549 
L 326.712052 10.835554 
L 327.161489 16.113489 
L 327.43038 16.530403 
L 327.568013 13.314962 
L 327.772947 15.351505 
L 327.9789 19.13952 
L 328.11713 18.808667 
L 328.288263 12.898163 
L 328.53237 13.198454 
L 328.59733 10.041266 
L 328.736392 9.069645 
L 328.846463 7.178033 
L 329.009615 12.597309 
L 329.147226 12.330155 
L 329.422908 12.730982 
L 329.561675 15.882216 
L 329.836055 17.86771 
L 329.937899 14.938473 
L 330.055752 15.086027 
L 330.367006 19.618515 
L 330.530623 17.853563 
L 330.644142 19.357152 
L 330.701962 16.69724 
L 330.874589 17.943699 
L 331.079174 17.412236 
L 331.20287 16.652954 
L 331.251955 18.275457 
L 331.42504 18.818745 
L 331.595374 17.417071 
L 331.702113 14.289835 
L 331.836577 14.303883 
L 332.02218 10.409976 
L 332.189303 11.380269 
L 332.31863 9.040734 
L 332.420829 9.91396 
L 332.560841 9.390938 
L 332.697623 10.332424 
L 332.870608 12.408039 
L 333.007777 11.204175 
L 333.11041 12.806701 
L 333.246007 10.431793 
L 333.453462 8.810086 
L 333.560376 6.203278 
L 333.831525 4.753241 
L 334.24355 2.532069 
L 334.5308 6.627059 
L 334.827905 10.145463 
L 335.11002 17.485759 
L 335.395668 14.615273 
L 335.534811 16.470164 
L 335.685565 16.300758 
L 335.797558 16.908197 
L 335.96227 16.85343 
L 336.167672 16.318711 
L 336.34 16.233153 
L 336.684151 19.98833 
L 336.857462 19.615929 
L 337.130806 15.641686 
L 337.23425 16.1883 
L 337.405499 16.370452 
L 337.646791 9.458785 
L 337.818963 11.27995 
L 338.062014 10.650014 
L 338.197562 11.393768 
L 338.334904 8.709133 
L 338.679174 11.611549 
L 338.853168 11.096176 
L 339.092526 18.348128 
L 339.22677 15.539913 
L 339.364367 15.287979 
L 339.503475 16.229652 
L 339.674217 19.038936 
L 340.084986 16.742861 
L 340.330515 16.521108 
L 340.49995 18.629907 
L 340.601938 17.371751 
L 340.772414 18.853777 
L 340.882528 17.489618 
L 341.048793 16.867915 
L 341.116908 15.369535 
L 341.224015 16.236842 
L 341.360829 15.399608 
L 341.636301 18.753306 
L 341.838193 15.681766 
L 341.975527 17.489746 
L 342.112249 15.982562 
L 342.289968 18.471312 
L 342.38855 16.569989 
L 342.627845 17.437386 
L 342.736267 16.57714 
L 342.798713 17.18582 
L 343.217847 11.713579 
L 343.473352 11.120257 
L 343.6291 7.800663 
L 343.833127 7.315528 
L 343.938449 9.007708 
L 344.075967 8.985107 
L 344.213224 10.746373 
L 344.522427 9.838844 
L 344.625529 13.170434 
L 344.767594 13.597453 
L 345.039805 19.916088 
L 345.189888 21.489026 
L 345.384394 19.825475 
L 345.487203 22.484575 
L 345.764388 21.808433 
L 345.90055 22.183357 
L 346.176694 20.349238 
L 346.454276 16.682064 
L 346.62047 16.88289 
L 346.758484 17.670338 
L 346.89528 17.042724 
L 347.067211 19.462611 
L 347.318976 17.707493 
L 347.482114 18.611676 
L 347.664694 17.899112 
L 347.786574 18.770472 
L 347.890253 18.107637 
L 348.198542 19.970056 
L 348.509309 11.38331 
L 348.716441 11.239957 
L 348.754204 11.786489 
L 349.161414 11.078687 
L 349.405044 11.204341 
L 349.613504 8.219636 
L 349.779728 12.236362 
L 349.927025 12.690107 
L 350.347833 15.317189 
L 350.4472 14.262615 
L 350.471897 15.971008 
L 350.608333 12.829227 
L 350.78064 12.957845 
L 351.021093 16.782846 
L 351.182836 16.077625 
L 351.32929 16.732289 
L 351.501228 16.016703 
L 351.642615 14.753011 
L 351.75163 15.362797 
L 352.12392 20.721481 
L 352.157879 20.499878 
L 352.293728 16.84578 
L 352.53439 16.971365 
L 352.706709 20.160742 
L 352.877064 20.489342 
L 353.156581 24.166419 
L 353.291061 21.114308 
L 353.425853 21.182865 
L 353.605588 20.926605 
L 353.700975 20.102439 
L 353.845601 16.636421 
L 354.286123 14.181613 
L 354.575116 6.931304 
L 354.768155 7.099044 
L 354.913427 6.891033 
L 355.282537 16.065208 
L 355.611162 15.222404 
L 355.866862 22.659224 
L 356.004747 22.952864 
L 356.277983 21.63132 
L 356.554109 16.875274 
L 356.690046 15.751793 
L 356.863078 18.002499 
L 356.999111 17.078224 
L 357.113288 18.143613 
L 357.274989 17.976636 
L 357.412931 17.509305 
L 357.549133 15.23055 
L 357.727035 16.738201 
L 357.998569 15.865024 
L 358.137038 16.196619 
L 358.272382 15.059876 
L 358.616062 10.01184 
L 358.717749 10.126897 
L 358.891104 9.875043 
L 358.994905 10.864965 
L 359.104459 9.617952 
L 359.266192 9.970714 
L 359.405521 8.83685 
L 359.541762 6.76641 
L 359.785307 7.598691 
L 359.850857 11.91634 
L 360.112087 8.209956 
L 360.401388 13.001723 
L 360.573556 10.956981 
L 360.830345 14.155416 
L 360.94958 16.243243 
L 361.240599 11.182181 
L 361.397199 12.383741 
L 361.533621 15.188423 
L 361.77385 13.964071 
L 361.913591 15.580402 
L 361.946525 17.290271 
L 362.08585 17.484181 
L 362.227572 13.144453 
L 362.704829 17.542248 
L 362.830274 14.996401 
L 363.013591 14.318737 
L 363.39057 8.615247 
L 363.665978 13.565997 
L 363.838642 12.856802 
L 363.940687 14.916878 
L 364.112241 15.260249 
L 364.352567 13.913508 
L 364.466032 12.360106 
L 364.628358 13.016605 
L 364.66189 12.747003 
L 364.801034 16.132193 
L 364.937529 13.302952 
L 365.074362 13.958305 
L 365.497243 7.465559 
L 365.796831 13.701411 
L 365.936023 13.837831 
L 366.243457 10.544307 
L 366.385118 12.800766 
L 366.657088 11.06162 
L 366.895367 11.961149 
L 366.937783 13.382109 
L 367.103449 12.228858 
L 367.244065 10.402211 
L 367.482507 14.55717 
L 367.652632 12.335794 
L 367.962506 13.741069 
L 368.070173 15.006963 
L 368.20432 12.270785 
L 368.477663 13.117778 
L 368.687151 17.810858 
L 368.761865 16.566495 
L 369.271644 20.90889 
L 369.387977 20.065427 
L 369.79313 23.672267 
L 369.931808 21.218965 
L 370.101323 21.143852 
L 370.203683 21.348097 
L 370.509334 18.792524 
L 370.635592 16.88528 
L 370.788355 18.106682 
L 371.201376 14.642337 
L 371.357579 15.576511 
L 371.485928 14.376435 
L 371.623972 14.447083 
L 371.761667 16.032235 
L 371.935134 16.451815 
L 372.038861 13.418568 
L 372.224041 13.74319 
L 372.347462 12.559057 
L 372.484186 12.507967 
L 372.619751 12.126795 
L 372.860391 12.688151 
L 372.997891 11.648742 
L 373.03183 10.366763 
L 373.204047 10.494212 
L 373.341569 11.585296 
L 373.447597 14.279067 
L 373.756396 10.28423 
L 373.903759 9.539671 
L 374.042245 10.945271 
L 374.167544 10.528904 
L 374.340941 10.887374 
L 374.45991 13.196618 
L 374.997364 7.299608 
L 375.238564 12.593351 
L 375.341727 15.281172 
L 375.444428 14.224433 
L 375.753818 16.922801 
L 375.78888 15.498786 
L 376.172901 19.875824 
L 376.304191 21.991412 
L 376.481981 20.678049 
L 376.58606 18.465595 
L 376.888819 16.523109 
L 377.169993 11.021341 
L 377.306213 11.123436 
L 377.752757 8.707637 
L 378.026804 12.047637 
L 378.16447 10.102355 
L 378.579559 17.857087 
L 378.715799 15.532861 
L 378.932477 14.458985 
L 379.026991 15.20965 
L 379.198063 17.620046 
L 379.336307 15.585988 
L 379.440087 16.299959 
L 379.798247 20.449489 
L 379.824379 18.605764 
L 379.864625 18.656557 
L 379.994755 18.248248 
L 380.137877 18.286634 
L 380.414075 22.792979 
L 380.549461 22.096771 
L 380.858889 23.871237 
L 380.996373 25.804063 
L 381.271539 24.596011 
L 381.511715 25.557866 
L 381.57954 27.455383 
L 381.991378 23.346573 
L 382.129026 24.820343 
L 382.303479 25.140959 
L 382.404487 21.984064 
L 382.579671 22.588201 
L 382.714981 24.329279 
L 382.851983 22.961584 
L 383.059414 22.48718 
L 383.13511 23.9312 
L 383.401008 24.166224 
L 384.022407 14.069692 
L 384.244006 13.866572 
L 384.329352 14.267795 
L 384.398242 13.123749 
L 384.53769 8.891124 
L 384.681051 8.648827 
L 384.820627 7.923305 
L 385.019541 9.119853 
L 385.120044 8.700602 
L 385.325355 12.371324 
L 385.497671 12.573193 
L 385.606636 11.873509 
L 385.844048 9.186051 
L 385.948827 10.26872 
L 386.160425 9.383592 
L 386.430877 11.926773 
L 386.600216 15.490163 
L 386.673158 9.406356 
L 386.913452 9.169687 
L 386.959417 8.244906 
L 387.122361 11.613884 
L 387.400409 14.043 
L 387.529804 11.834443 
L 387.670311 12.013998 
L 387.805806 12.5025 
L 387.945784 11.037145 
L 388.156625 12.560748 
L 388.411484 18.261096 
L 388.664374 15.62731 
L 388.805619 15.756779 
L 389.075166 20.226482 
L 389.243522 16.842864 
L 389.523961 18.042593 
L 389.551915 15.504112 
L 389.934001 13.321705 
L 390.067304 13.888712 
L 390.105791 16.584944 
L 390.383762 16.94088 
L 390.514732 13.625767 
L 390.685727 15.153444 
L 390.962055 12.509759 
L 391.167901 13.600812 
L 391.342134 10.565828 
L 391.443244 11.28181 
L 391.511787 8.005828 
L 391.649135 7.328224 
L 391.820587 7.186701 
L 391.926362 6.920458 
L 392.088565 9.056935 
L 392.509916 11.718727 
L 392.646418 15.201273 
L 392.85411 14.738432 
L 392.92573 18.034702 
L 393.064434 19.250173 
L 393.26592 17.043555 
L 393.442376 19.147859 
L 393.505949 17.535468 
L 393.712667 18.865831 
L 393.820253 21.37303 
L 393.925489 20.682282 
L 394.30431 23.530939 
L 394.453838 20.352584 
L 394.515012 21.864574 
L 394.681093 22.217977 
L 394.784383 22.880703 
L 394.921765 22.046052 
L 395.265568 18.450791 
L 395.403593 19.1764 
L 395.505704 17.941279 
L 395.644066 13.987259 
L 395.780942 14.800874 
L 395.921938 13.871853 
L 396.068922 17.840884 
L 396.195321 17.047727 
L 396.502161 18.01362 
L 396.639623 15.617127 
L 396.781263 16.087917 
L 397.054187 13.260523 
L 397.223526 12.433627 
L 397.331051 12.468391 
L 397.535394 7.973938 
L 397.961392 10.761079 
L 398.068351 13.460892 
L 398.217393 11.105651 
L 398.236518 12.090124 
L 398.477981 17.791939 
L 398.71909 18.989681 
L 398.787591 17.195204 
L 398.924541 20.311021 
L 399.169799 15.362789 
L 399.315967 16.773597 
L 399.474133 13.879184 
L 399.628796 15.132534 
L 399.748144 14.3739 
L 399.936006 12.261028 
L 400.023798 12.436885 
L 400.207726 11.552006 
L 400.440614 9.533325 
L 400.470552 10.218856 
L 400.606883 10.834717 
L 400.749251 10.03859 
L 400.887004 10.613871 
L 401.058647 10.398419 
L 401.16348 10.832625 
L 401.298706 9.564819 
L 401.569537 9.736545 
L 401.74596 13.622119 
L 401.883258 16.034874 
L 402.158118 15.143321 
L 402.329812 16.350779 
L 402.443511 14.780068 
L 402.473125 14.945281 
L 402.606988 16.607408 
L 402.712069 19.634506 
L 402.741964 17.574075 
L 402.969195 17.495613 
L 403.020233 19.104693 
L 403.207164 16.832343 
L 403.365067 12.691485 
L 403.607591 16.854182 
L 404.502843 11.929243 
L 404.601974 12.731242 
L 404.882312 11.235068 
L 405.081293 10.223095 
L 405.184544 11.448906 
L 405.528609 8.420429 
L 405.703359 9.642154 
L 405.841086 8.854467 
L 406.009342 4.824732 
L 406.799408 12.159464 
L 406.867748 15.101743 
L 407.08739 16.042316 
L 407.418566 22.427725 
L 407.727337 18.392863 
L 407.831382 20.361858 
L 408.279077 12.886528 
L 408.44889 11.35296 
L 408.55957 11.798241 
L 408.689279 10.899674 
L 408.862955 10.93212 
L 409.21639 15.249105 
L 409.274572 11.953306 
L 409.445759 12.773183 
L 409.690864 17.887401 
L 410.131379 11.971941 
L 410.269601 11.834251 
L 410.408734 12.672027 
L 410.579774 11.600511 
L 410.685069 12.044749 
L 410.818342 15.164725 
L 411.039217 12.446691 
L 411.248237 14.091737 
L 411.294728 16.619269 
L 411.30748 15.279508 
L 411.409987 15.382721 
L 411.685122 18.2025 
L 411.825773 14.688263 
L 411.962862 15.124285 
L 412.101725 16.629871 
L 412.323867 13.530573 
L 412.386935 15.115885 
L 412.518892 14.313356 
L 412.685871 14.165982 
L 412.822466 16.355463 
L 413.100966 14.241791 
L 413.239048 17.521651 
L 413.409741 15.530878 
L 413.545736 16.687399 
L 413.787174 16.976758 
L 413.924882 15.254224 
L 413.993485 16.466895 
L 414.140971 14.484502 
L 414.307865 14.329965 
L 414.510467 16.597018 
L 414.647368 16.654492 
L 414.789015 19.152322 
L 414.957091 16.702615 
L 415.264424 17.426364 
L 415.416602 16.586117 
L 415.507751 20.286665 
L 415.818474 18.282382 
L 415.954709 19.438165 
L 416.126541 18.521245 
L 416.22938 14.835685 
L 416.364571 14.589253 
L 417.545136 3.167766 
L 417.745164 5.901226 
L 417.950963 11.584009 
L 418.264563 13.929604 
L 418.431589 11.250519 
L 418.501503 11.967914 
L 418.914268 22.76837 
L 419.050159 24.104625 
L 419.323441 20.735458 
L 419.495617 22.287824 
L 419.642699 22.395261 
L 419.794646 25.045103 
L 419.912713 23.826049 
L 420.492498 12.339437 
L 420.631446 14.020108 
L 420.770927 9.407549 
L 420.939069 9.547719 
L 421.11238 9.956431 
L 421.217349 6.774803 
L 421.321895 10.989385 
L 421.353387 8.917408 
L 421.489605 7.83734 
L 421.62766 8.128107 
L 421.94768 10.297194 
L 422.219152 9.079726 
L 422.248911 12.65203 
L 422.464202 9.65456 
L 422.627416 14.964315 
L 422.765945 13.384182 
L 423.128598 15.968073 
L 423.365512 13.197251 
L 423.47142 14.425678 
L 423.608309 14.27233 
L 423.743642 14.935127 
L 423.919318 16.852049 
L 424.053211 14.908738 
L 424.343131 15.615858 
L 424.477494 15.162413 
L 424.712443 18.021313 
L 424.740199 15.514542 
L 424.877531 13.448649 
L 425.084328 13.370056 
L 425.186157 15.214062 
L 425.499235 16.451011 
L 425.603339 14.368297 
L 425.881342 17.218075 
L 426.117164 17.30072 
L 426.392071 23.222151 
L 426.597363 23.462432 
L 426.73641 21.631088 
L 426.873633 18.701042 
L 427.017237 20.809609 
L 427.208702 18.776728 
L 427.291694 20.417172 
L 427.458188 21.102313 
L 427.599115 20.179342 
L 427.734878 17.773001 
L 427.869525 17.389913 
L 428.017084 16.118227 
L 428.318505 20.441135 
L 428.488928 17.150073 
L 428.607073 18.253502 
L 428.876206 10.615589 
L 429.177376 13.386319 
L 429.293045 11.432763 
L 429.497172 11.255405 
L 429.590568 6.306633 
L 429.863642 8.122102 
L 430.001802 7.998293 
L 430.147715 10.309198 
L 430.315445 9.956799 
L 430.449481 9.984053 
L 430.86205 13.848792 
L 430.998661 15.99683 
L 431.308852 17.541248 
L 431.340351 16.990214 
L 431.445439 15.417146 
L 431.719292 16.27269 
L 431.856426 16.652632 
L 432.029507 16.65674 
L 432.132157 16.252169 
L 432.26966 17.417272 
L 432.407315 16.14428 
L 432.578302 16.149098 
L 432.719337 18.299833 
L 432.851612 18.09655 
L 432.990033 19.030723 
L 433.128016 21.271422 
L 433.300139 21.838221 
L 433.402561 21.396022 
L 433.653048 21.652298 
L 433.71091 20.207082 
L 433.851222 19.660314 
L 434.171078 17.081068 
L 434.362532 16.33445 
L 434.40087 17.036013 
L 434.538251 16.308311 
L 434.708058 12.577832 
L 434.984824 13.923548 
L 435.119083 11.68989 
L 435.265686 11.139639 
L 435.573895 12.683963 
L 435.745379 13.829514 
L 435.850488 12.427892 
L 436.020742 12.268591 
L 436.123001 14.769068 
L 436.467147 9.39522 
L 436.572582 9.545145 
L 436.742782 12.231208 
L 436.816369 10.007776 
L 436.986019 9.213364 
L 437.292743 10.476924 
L 437.534508 13.394494 
L 437.810959 16.019601 
L 437.879523 15.09485 
L 437.981861 15.857194 
L 438.359214 17.159511 
L 438.427931 16.178672 
L 438.635003 15.310508 
L 438.80717 12.914958 
L 439.0866 11.270359 
L 439.253027 13.160611 
L 439.390543 12.653653 
L 439.668089 10.374273 
L 439.80601 10.946042 
L 439.977403 13.005827 
L 440.080266 11.850235 
L 440.215533 14.524834 
L 440.41876 13.694791 
L 440.521021 11.956634 
L 440.669175 11.478433 
L 440.899255 11.228642 
L 440.966976 15.052938 
L 441.344744 20.667002 
L 441.413463 17.697332 
L 441.558304 17.62445 
L 441.792273 13.053465 
L 442.107061 15.671382 
L 442.251612 16.223056 
L 442.651488 7.218954 
L 442.796224 8.294679 
L 442.958911 8.344675 
L 443.096683 8.694561 
L 443.342891 13.331927 
L 443.510691 11.732617 
L 443.64793 11.53204 
L 443.785896 10.456006 
L 443.925008 11.316684 
L 444.162124 11.877655 
L 444.231695 14.039986 
L 444.367563 14.511709 
L 444.540362 16.969317 
L 444.714751 14.285778 
L 444.978243 17.612481 
L 445.204511 16.254269 
L 445.423767 18.475642 
L 445.495008 21.187926 
L 445.525826 16.643838 
L 445.642175 16.46201 
L 445.777762 17.702639 
L 445.927163 17.036045 
L 446.049049 17.08494 
L 446.22195 13.246956 
L 446.667288 18.863931 
L 446.773576 15.726528 
L 446.978122 14.771311 
L 446.978455 9.675629 
L 447.051542 15.037781 
L 447.425368 11.278419 
L 447.491995 13.087639 
L 447.631261 12.480278 
L 447.904777 9.615334 
L 448.191518 9.957196 
L 448.321875 12.238244 
L 448.454099 11.373379 
L 448.63 10.977181 
L 449.0372 16.805175 
L 449.314469 17.927852 
L 449.483473 16.529041 
L 449.623546 19.244305 
L 449.759681 19.018768 
L 450.033925 22.767183 
L 450.170794 21.07098 
L 450.321376 17.729759 
L 450.447065 18.325942 
L 450.623616 18.585096 
L 450.754745 18.097705 
L 451.031193 16.108054 
L 451.168268 16.460853 
L 451.304775 14.941563 
L 451.452562 15.86667 
L 451.586827 15.99355 
L 451.718815 17.636496 
L 451.891586 16.315092 
L 452.026653 16.383295 
L 452.162834 15.003011 
L 452.441412 15.917169 
L 452.885492 13.328674 
L 453.025906 14.784003 
L 453.164425 14.103359 
L 453.435883 10.965497 
L 453.714332 15.659032 
L 453.85039 13.369561 
L 454.301482 16.848359 
L 454.573001 11.558768 
L 454.75057 13.923173 
L 454.779173 13.712408 
L 454.916771 13.335493 
L 455.126214 9.003142 
L 455.293505 10.552906 
L 455.467647 9.076906 
L 455.571447 5.482908 
L 455.775445 6.226737 
L 455.990897 10.766414 
L 456.154907 9.664781 
L 456.292556 10.462577 
L 456.566701 12.896925 
L 456.703268 10.54083 
L 456.864883 11.299892 
L 456.877309 17.695621 
L 456.980625 12.756364 
L 457.012847 12.814775 
L 457.496184 14.693202 
L 457.700315 14.815324 
L 457.836473 15.245129 
L 458.00783 11.763139 
L 458.421985 14.769161 
L 458.557914 13.080558 
L 458.73087 12.341314 
L 458.973803 17.068886 
L 459.210818 16.134838 
L 459.316396 17.383189 
L 459.451734 21.442601 
L 459.660643 21.414576 
L 459.691286 22.491949 
L 459.797065 20.156979 
L 459.966281 22.954546 
L 460.106509 23.31808 
L 460.447405 18.615401 
L 460.551215 19.735595 
L 460.831975 16.535635 
L 460.983069 18.15243 
L 461.243781 16.76223 
L 461.410389 13.932503 
L 461.685881 14.4537 
L 461.801556 12.347917 
L 461.866505 14.842743 
L 461.962601 13.87789 
L 462.205405 16.053941 
L 462.271988 15.696622 
L 462.422524 14.769776 
L 462.520079 16.801158 
L 462.871212 19.261502 
L 462.993877 16.800562 
L 463.169539 16.808415 
L 463.234712 16.47595 
L 463.477125 17.502222 
L 463.513149 17.285639 
L 463.81903 19.929599 
L 463.955826 20.374364 
L 464.095587 20.435685 
L 464.541243 22.767892 
L 464.645369 19.199792 
L 464.816693 17.470715 
L 464.988741 16.889414 
L 465.22874 10.589005 
L 465.401364 8.695719 
L 465.549365 8.693403 
L 465.675032 4.639678 
L 465.917025 4.840356 
L 466.225001 11.908536 
L 466.397294 10.202424 
L 466.808679 15.712716 
L 466.946335 15.159288 
L 467.105669 15.931384 
L 467.255029 19.295227 
L 467.291368 18.708769 
L 467.534604 10.549833 
L 467.637075 11.589124 
L 467.805916 15.690598 
L 467.943222 14.007795 
L 468.390842 17.683642 
L 468.494487 16.175825 
L 469.113229 24.165554 
L 469.215733 20.076573 
L 469.353287 22.295051 
L 469.820055 12.815827 
L 469.983433 14.444549 
L 470.425351 10.368373 
L 470.491874 9.803405 
L 470.664934 12.532002 
L 470.869159 10.157914 
L 471.048571 12.675402 
L 471.213854 18.666533 
L 471.390416 18.729663 
L 471.631878 21.399739 
L 471.765777 20.314117 
L 472.212152 23.909664 
L 472.624075 14.581885 
L 472.90247 13.302136 
L 473.173171 17.501245 
L 473.383342 19.620555 
L 473.621417 15.97213 
L 474.032662 20.036383 
L 474.171969 17.700882 
L 474.307426 18.853365 
L 474.475042 18.584691 
L 474.610967 18.724665 
L 474.895306 12.369425 
L 475.024522 11.73732 
L 475.33164 15.330391 
L 475.881986 9.593253 
L 476.016637 5.644785 
L 476.462736 8.504548 
L 476.600103 8.185978 
L 476.88021 6.379401 
L 477.150753 11.930844 
L 477.289789 11.244494 
L 477.432375 14.506495 
L 477.598611 14.460287 
L 477.87127 16.399333 
L 478.012433 14.448063 
L 478.146511 15.229053 
L 478.288719 19.121121 
L 478.426507 19.383026 
L 478.593629 19.131801 
L 478.730532 18.666879 
L 478.869165 17.538772 
L 479.00644 19.160333 
L 479.159069 19.152596 
L 479.285472 20.154165 
L 479.432572 19.951819 
L 479.636635 20.362224 
L 479.869788 15.852289 
L 480.002283 15.574922 
L 480.139772 17.806608 
L 480.417524 15.836064 
L 480.450147 16.064389 
L 480.587533 13.608108 
L 480.7585 12.885839 
L 480.86245 13.798746 
L 481.20877 11.965394 
L 481.418508 16.769448 
L 481.582959 15.324315 
L 481.963275 18.974208 
L 482.065026 22.074162 
L 482.167035 20.424017 
L 482.340828 20.347069 
L 482.442163 16.294595 
L 482.579857 16.444256 
L 482.8227 16.162934 
L 483.000592 16.702184 
L 483.16481 16.804401 
L 483.46194 11.584343 
L 483.542638 11.773072 
L 483.731464 11.729796 
L 483.939004 14.113213 
L 484.006074 11.24216 
L 484.178659 11.213413 
L 484.555706 5.621323 
L 484.693643 5.127129 
L 484.830367 3.780486 
L 485.243662 11.259921 
L 485.416229 14.008971 
L 485.55241 12.005289 
L 485.827447 12.883985 
L 486.27306 17.709565 
L 486.616092 13.979904 
L 486.685158 10.971356 
L 486.891748 10.61546 
L 486.994816 13.166548 
L 487.270707 11.45277 
L 487.408232 12.877316 
L 487.5475 12.081349 
L 487.957528 13.085584 
L 488.266619 18.271217 
L 488.405849 16.034762 
L 488.814783 23.420288 
L 488.967029 21.551344 
L 489.107047 22.40602 
L 489.314213 20.22437 
L 489.386085 21.538188 
L 489.527332 20.429858 
L 489.667539 20.917816 
L 489.827853 23.445935 
L 490.108078 19.958807 
L 490.241292 19.339413 
L 490.450266 20.258295 
L 490.592439 19.838523 
L 490.689247 21.757126 
L 490.791837 21.239806 
L 490.929703 19.26947 
L 491.376225 15.495476 
L 491.452225 13.51053 
L 491.514313 15.293603 
L 491.651134 11.60588 
L 491.961573 12.522332 
L 492.101047 10.492921 
L 492.238496 5.857872 
L 492.545236 7.575855 
L 492.685288 8.8534 
L 492.801723 13.333619 
L 492.928682 10.414009 
L 493.06423 12.888322 
L 493.305667 11.466653 
L 493.392955 13.1313 
L 493.619116 13.951622 
L 493.705715 15.344831 
L 494.074797 12.608115 
L 494.336867 11.752683 
L 494.371104 12.629243 
L 494.923854 6.058692 
L 495.063161 7.131572 
L 495.232522 6.549599 
L 495.628284 7.806634 
L 495.7889 9.620776 
L 496.070392 10.422055 
L 496.125998 12.167149 
L 496.23042 11.149126 
L 496.510533 15.842225 
L 496.643086 15.413811 
L 496.793868 13.590143 
L 496.920163 14.512767 
L 497.08789 12.492204 
L 497.248455 8.641449 
L 497.576295 10.799565 
L 497.648515 11.344374 
L 497.784213 11.136944 
L 497.924224 10.63072 
L 498.060952 13.75037 
L 498.40118 14.874309 
L 498.468725 15.273502 
L 498.616181 17.69334 
L 498.915489 17.107926 
L 499.089155 15.596815 
L 499.362961 16.99424 
L 499.469259 14.720841 
L 499.711961 15.480619 
L 499.957862 14.433671 
L 500.089985 11.289787 
L 500.223978 12.028323 
L 500.325543 10.66429 
L 500.471144 10.586287 
L 500.634956 11.1847 
L 501.0535 8.550406 
L 501.151832 8.994457 
L 501.220203 8.864653 
L 501.425759 8.296598 
L 501.597718 13.485638 
L 501.742468 11.480204 
L 501.875581 13.304137 
L 502.012327 11.616495 
L 502.044791 9.396596 
L 502.361473 14.67231 
L 502.460311 14.497082 
L 502.768807 20.290626 
L 502.870972 18.746132 
L 503.07737 18.091878 
L 503.214179 21.347953 
L 503.324365 19.961679 
L 503.491977 19.570041 
L 503.637575 16.042756 
L 504.004846 20.071836 
L 504.110185 15.933488 
L 504.936558 10.443877 
L 505.114511 14.729484 
L 505.276652 13.607168 
L 505.481763 14.16216 
L 505.584232 12.17886 
L 505.723618 14.995462 
L 505.91012 14.50526 
L 506.00893 13.141295 
L 506.144281 15.692572 
L 506.58222 11.819828 
L 506.720594 11.009932 
L 506.858703 8.895065 
L 507.029149 12.917541 
L 507.294166 11.689722 
L 507.309267 10.689157 
L 507.441857 13.444316 
L 507.578667 12.481357 
L 507.796744 12.520706 
L 507.858646 14.91523 
L 508.128679 14.840277 
L 508.300947 16.908164 
L 508.408297 15.9059 
L 508.579871 17.554302 
L 508.712563 21.732004 
L 508.987892 18.739687 
L 509.130957 21.012514 
L 509.402134 16.250934 
L 509.577943 14.408087 
L 509.958941 16.684948 
L 509.984684 16.570764 
L 510.294591 9.056755 
L 510.466611 8.837939 
L 510.568376 8.183962 
L 510.740393 10.19468 
L 510.985815 18.269686 
L 511.254771 17.247329 
L 511.29004 14.448742 
L 511.427575 12.432759 
L 511.706085 18.860077 
L 511.987445 24.012007 
L 512.16607 24.244299 
L 512.333158 23.825072 
L 512.541388 26.133995 
L 512.815645 30.891561 
L 513.087751 29.426485 
L 513.263715 22.550323 
L 513.536827 20.844095 
L 513.643196 22.142171 
L 514.201911 10.23522 
L 514.70609 16.402084 
L 515.014855 12.81875 
L 515.233737 14.065714 
L 515.506921 19.609498 
L 515.68562 15.539314 
L 515.884105 15.629507 
L 515.987086 14.664443 
L 516.090638 11.834261 
L 516.50315 11.642211 
L 516.677608 8.553744 
L 516.836261 5.776327 
L 517.298916 7.754416 
L 517.571256 13.11004 
L 517.571519 21.671925 
L 517.687308 16.372646 
L 517.812179 15.991844 
L 517.983645 16.371957 
L 518.121817 15.987391 
L 518.367544 18.789398 
L 518.535092 20.697412 
L 518.757076 21.565203 
L 518.812254 17.95711 
L 518.953352 17.877626 
L 519.188795 17.996057 
L 519.258934 18.161364 
L 519.497423 18.189029 
L 519.636435 20.327199 
L 519.708392 18.746805 
L 519.854989 19.022788 
L 520.379965 15.392916 
L 520.598757 16.634009 
L 520.665821 15.869118 
L 520.768061 16.637947 
L 520.942226 14.029015 
L 521.078349 14.77831 
L 521.214948 14.803707 
L 521.492404 15.964166 
L 521.797826 20.531418 
L 521.95523 18.954494 
L 521.970205 19.742047 
L 522.074719 19.810804 
L 522.406226 22.036281 
L 522.52209 24.798381 
L 522.634154 25.802272 
L 522.797474 25.421075 
L 523.012657 22.937669 
L 523.489267 25.045208 
L 523.621278 24.589734 
L 523.757459 23.648456 
L 523.998842 24.01271 
L 524.242523 27.66811 
L 524.341523 28.556319 
L 524.47927 24.874966 
L 524.719641 23.855506 
L 524.754646 24.876698 
L 524.896943 23.848051 
L 525.246157 23.299724 
L 525.752815 14.615537 
L 525.903275 17.513017 
L 526.096402 17.705309 
L 526.473356 14.005444 
L 526.679998 13.080301 
L 527.203304 17.530523 
L 527.454408 12.093865 
L 527.640897 11.46797 
L 527.744869 13.083226 
L 527.950122 12.920885 
L 528.224123 11.714705 
L 528.466794 10.178839 
L 528.603383 6.744065 
L 528.739773 8.496511 
L 528.878504 6.453816 
L 529.050748 6.290832 
L 529.170122 5.726926 
L 529.325555 8.620389 
L 529.462739 8.890623 
L 529.600712 7.086438 
L 529.737183 7.013032 
L 530.322999 19.230882 
L 530.56729 22.860193 
L 530.72806 22.560466 
L 530.843969 20.429522 
L 530.98454 20.007816 
L 531.04359 18.740763 
L 531.268071 20.147103 
L 531.424233 14.767819 
L 531.765535 12.377102 
L 531.86856 7.220086 
L 532.006723 6.040082 
L 532.213965 6.670161 
L 532.281605 8.053515 
L 532.45368 8.960857 
L 532.557365 10.635618 
L 532.730017 9.381485 
L 532.935551 9.696312 
L 533.07591 8.748072 
L 533.148622 9.189703 
L 533.382139 11.827955 
L 533.484836 11.316725 
L 533.588273 13.067595 
L 533.763811 13.079436 
L 533.896672 13.723491 
L 534.006119 12.862517 
L 534.138107 12.810847 
L 534.414782 16.878781 
L 534.5515 18.423799 
L 534.756663 15.59962 
L 534.859199 18.031454 
L 535.034457 15.677651 
L 535.13381 16.321638 
L 535.306317 16.46002 
L 535.413788 14.69821 
L 535.58029 16.940736 
L 535.727111 15.354519 
L 535.927538 15.606529 
L 536.061427 13.602349 
L 536.198813 16.190621 
L 536.33683 15.321645 
L 536.439827 16.089747 
L 536.577086 14.920113 
L 536.71154 16.167672 
L 536.887061 15.210378 
L 537.126858 10.909903 
L 537.378716 11.234403 
L 537.544516 13.122588 
L 537.848808 10.471477 
L 537.986401 12.762618 
L 538.125877 13.090488 
L 538.535553 17.34733 
L 538.880197 14.684 
L 538.982314 9.854291 
L 539.298275 14.115648 
L 539.396635 13.526593 
L 539.531763 13.836184 
L 539.859268 16.22944 
L 540.253748 19.257536 
L 540.426458 22.901771 
L 540.528793 22.726194 
L 540.699994 21.147264 
L 540.966862 18.241929 
L 541.33492 15.803676 
L 541.541606 11.28045 
L 541.678701 11.853754 
L 541.8241 11.915263 
L 542.162923 9.070691 
L 542.268706 8.963049 
L 542.443204 10.07146 
L 542.524014 12.373866 
L 542.956673 7.916205 
L 543.096633 7.830136 
L 543.509847 9.772842 
L 543.645583 8.970153 
L 543.816187 5.878803 
L 543.923326 6.308216 
L 544.091041 8.739221 
L 544.234554 8.878701 
L 544.503231 12.00984 
L 544.640937 10.980713 
L 544.916512 13.842047 
L 545.227653 15.238573 
L 545.362173 14.808967 
L 545.504516 14.995016 
L 545.643094 19.361017 
L 545.784 19.879121 
L 545.949051 18.564955 
L 546.085811 19.194996 
L 546.221849 17.280616 
L 546.358904 19.94218 
L 546.498875 18.995122 
L 546.669044 21.421132 
L 546.771951 19.595595 
L 546.914295 19.428009 
L 547.050704 16.950025 
L 547.219509 15.963878 
L 547.364291 19.130808 
L 547.684923 18.531502 
L 547.702086 18.768932 
L 547.77144 17.514674 
L 548.08312 18.531219 
L 548.500964 14.58278 
L 548.638482 15.163996 
L 548.769807 12.945217 
L 548.907736 14.889121 
L 549.04425 13.962148 
L 549.184465 14.314476 
L 549.332498 15.417734 
L 549.459965 14.11422 
L 549.606589 13.845084 
L 549.768015 15.797196 
L 549.904349 16.096555 
L 550.042209 15.023465 
L 550.076407 13.086673 
L 550.181255 15.981543 
L 550.319105 12.068442 
L 550.483851 11.287074 
L 550.765559 7.124201 
L 550.902889 8.492038 
L 551.074967 8.78145 
L 551.314329 9.859776 
L 551.560096 9.868193 
L 551.76103 9.733808 
L 551.865973 9.832813 
L 552.037038 10.357868 
L 552.276204 12.075578 
L 552.798578 3.889887 
L 552.999386 5.734882 
L 553.169631 4.47015 
L 553.340893 9.807987 
L 553.615399 7.271397 
L 553.724421 9.309832 
L 553.896251 8.436649 
L 554.167799 14.384523 
L 554.340165 13.42108 
L 554.506028 13.72912 
L 554.574819 13.613765 
L 554.71786 14.24332 
L 554.85136 18.512997 
L 555.024389 18.152973 
L 555.162341 16.835188 
L 555.301168 20.128814 
L 555.538074 19.892273 
L 555.608101 17.747023 
L 555.778344 18.216817 
L 555.888539 17.494377 
L 555.986534 15.430156 
L 556.213883 16.15608 
L 556.295232 14.853784 
L 556.641009 18.258909 
L 556.914754 17.320266 
L 557.052826 17.332523 
L 557.263704 16.268619 
L 557.531287 18.220451 
L 557.737616 13.823073 
L 557.87607 13.34386 
L 558.021161 11.465585 
L 558.15133 11.766647 
L 558.288546 11.474944 
L 558.501201 13.961675 
L 558.703335 10.632761 
L 558.844652 10.519452 
L 559.161004 14.274544 
L 559.286293 12.619098 
L 559.429886 12.325246 
L 559.630389 13.252428 
L 559.936905 9.859173 
L 560.016459 11.588043 
L 560.161506 9.602521 
L 560.281783 11.597557 
L 560.487123 10.210901 
L 560.55526 7.990797 
L 561.005027 13.737616 
L 561.143494 10.407607 
L 561.209199 15.131895 
L 561.347675 15.797778 
L 561.449521 13.469896 
L 561.56497 16.663531 
L 561.69203 16.101668 
L 561.828214 18.512146 
L 561.860504 18.134073 
L 562.002489 18.475509 
L 562.137756 16.944585 
L 562.243627 13.689955 
L 562.415451 16.25083 
L 562.68516 14.192834 
L 562.829182 16.883355 
L 562.961054 17.191444 
L 563.131628 16.772969 
L 563.24477 14.241136 
L 563.407511 15.937169 
L 563.545607 15.945717 
L 563.721974 16.196555 
L 564.164721 12.67431 
L 564.301832 13.561995 
L 564.839784 19.350154 
L 565.000245 19.866064 
L 565.282767 19.5424 
L 565.531151 24.529182 
L 565.783616 23.790204 
L 565.816233 18.25615 
L 565.848831 19.018003 
L 565.98894 20.160391 
L 566.095912 18.284521 
L 566.467758 18.777027 
L 566.605423 19.460815 
L 567.09441 14.691823 
L 567.292749 15.801809 
L 567.808276 11.669982 
L 568.120832 14.183695 
L 568.230954 13.773968 
L 568.701062 19.771981 
L 568.80523 17.896664 
L 569.115344 21.267656 
L 569.390587 23.591132 
L 569.630577 23.148575 
L 569.939538 20.423107 
L 570.078401 17.294948 
L 570.354959 20.651146 
L 570.526172 16.73833 
L 570.630183 17.812275 
L 570.93918 16.527435 
L 571.623727 27.164496 
L 571.835252 21.996983 
L 571.938171 23.197216 
L 572.081677 21.190192 
L 572.215644 20.906173 
L 572.357678 21.146144 
L 572.637755 17.39412 
L 572.768596 13.632511 
L 572.9403 14.058335 
L 573.242871 17.442227 
L 573.456035 18.598216 
L 573.633416 18.311387 
L 573.700002 19.166018 
L 573.777709 22.487255 
L 573.906095 23.008448 
L 574.107253 21.868582 
L 574.214387 25.379478 
L 574.489116 21.023399 
L 574.797284 18.264438 
L 575.004603 21.639585 
L 575.324325 17.577338 
L 575.483382 19.374352 
L 575.771224 18.196803 
L 575.896584 21.350733 
L 576.11683 22.200495 
L 576.172024 24.62268 
L 576.342571 25.468075 
L 576.635114 23.39114 
L 576.781915 22.847782 
L 576.806413 22.904342 
L 577.330679 17.003881 
L 577.493972 17.134443 
L 577.631741 14.4194 
L 577.80656 13.919235 
L 577.912742 16.761238 
L 578.103497 16.256934 
L 578.185265 17.829265 
L 578.368922 17.927918 
L 578.596132 24.017982 
L 578.767133 22.857951 
L 579.179208 17.621314 
L 579.455213 20.023922 
L 579.591428 19.047301 
L 579.799522 19.696783 
L 579.901428 15.859772 
L 580.012278 16.107361 
L 580.312568 20.643094 
L 580.449596 19.953374 
L 580.669415 21.422798 
L 580.76434 18.100291 
L 580.934354 16.145932 
L 581.1735 18.105022 
L 581.312213 20.939929 
L 581.518437 20.398217 
L 581.642387 16.036416 
L 581.756317 16.345314 
L 581.896325 18.876149 
L 582.041229 15.497928 
L 582.205237 17.51656 
L 582.312576 17.261521 
L 582.62092 19.742969 
L 582.859736 19.270239 
L 583.10075 18.354068 
L 583.16822 20.369142 
L 583.280779 17.649442 
L 583.375363 17.992968 
L 583.443445 20.566317 
L 583.632182 17.960263 
L 583.725404 19.23528 
L 583.996683 18.141104 
L 584.104191 16.027108 
L 584.238286 15.808176 
L 584.420921 16.355108 
L 584.685361 15.889378 
L 584.754307 17.076193 
L 585.099464 14.879119 
L 585.23414 17.900487 
L 585.303824 16.721996 
L 585.38263 16.939256 
L 585.413659 17.234211 
L 585.440795 19.67709 
L 585.583532 18.052421 
L 585.923083 19.741604 
L 586.025814 16.635497 
L 586.166678 20.290353 
L 586.265447 19.968603 
L 586.515472 14.834313 
L 586.677824 14.769757 
L 586.738046 13.271347 
L 586.895388 14.736086 
L 587.028131 12.771336 
L 587.4338 16.510555 
L 587.555896 16.318573 
L 588.090193 25.431327 
L 588.123125 23.75701 
L 588.123125 23.75701 
" clip-path="url(#p028b7f9f0b)" style="fill: none; stroke: #ff0000; stroke-opacity: 0.7; stroke-width: 1.5; stroke-linecap: square"/>
   </g>
   <g id="patch_3">
    <path d="M 30.123125 277.92 
L 30.123125 0.72 
" style="fill: none; stroke: #000000; stroke-width: 0.8; stroke-linejoin: miter; stroke-linecap: square"/>
   </g>
   <g id="patch_4">
    <path d="M 588.123125 277.92 
L 588.123125 0.72 
" style="fill: none; stroke: #000000; stroke-width: 0.8; stroke-linejoin: miter; stroke-linecap: square"/>
   </g>
   <g id="patch_5">
    <path d="M 30.123125 277.92 
L 588.123125 277.92 
" style="fill: none; stroke: #000000; stroke-width: 0.8; stroke-linejoin: miter; stroke-linecap: square"/>
   </g>
   <g id="patch_6">
    <path d="M 30.123125 0.72 
L 588.123125 0.72 
" style="fill: none; stroke: #000000; stroke-width: 0.8; stroke-linejoin: miter; stroke-linecap: square"/>
   </g>
   <g id="legend_1">
    <g id="patch_7">
     <path d="M 37.123125 272.92 
L 110.891875 272.92 
Q 112.891875 272.92 112.891875 270.92 
L 112.891875 242.56375 
Q 112.891875 240.56375 110.891875 240.56375 
L 37.123125 240.56375 
Q 35.123125 240.56375 35.123125 242.56375 
L 35.123125 270.92 
Q 35.123125 272.92 37.123125 272.92 
z
" style="fill: #ffffff; opacity: 0.8; stroke: #cccccc; stroke-linejoin: miter"/>
    </g>
    <g id="line2d_27">
     <path d="M 39.123125 248.662188 
L 49.123125 248.662188 
L 59.123125 248.662188 
" style="fill: none; stroke: #0000ff; stroke-opacity: 0.7; stroke-width: 1.5; stroke-linecap: square"/>
    </g>
    <g id="text_15">
     <!-- RNEA -->
     <g transform="translate(67.123125 252.162188) scale(0.1 -0.1)">
      <defs>
       <path id="DejaVuSans-52" d="M 2841 2188 
Q 3044 2119 3236 1894 
Q 3428 1669 3622 1275 
L 4263 0 
L 3584 0 
L 2988 1197 
Q 2756 1666 2539 1819 
Q 2322 1972 1947 1972 
L 1259 1972 
L 1259 0 
L 628 0 
L 628 4666 
L 2053 4666 
Q 2853 4666 3247 4331 
Q 3641 3997 3641 3322 
Q 3641 2881 3436 2590 
Q 3231 2300 2841 2188 
z
M 1259 4147 
L 1259 2491 
L 2053 2491 
Q 2509 2491 2742 2702 
Q 2975 2913 2975 3322 
Q 2975 3731 2742 3939 
Q 2509 4147 2053 4147 
L 1259 4147 
z
" transform="scale(0.015625)"/>
       <path id="DejaVuSans-45" d="M 628 4666 
L 3578 4666 
L 3578 4134 
L 1259 4134 
L 1259 2753 
L 3481 2753 
L 3481 2222 
L 1259 2222 
L 1259 531 
L 3634 531 
L 3634 0 
L 628 0 
L 628 4666 
z
" transform="scale(0.015625)"/>
       <path id="DejaVuSans-41" d="M 2188 4044 
L 1331 1722 
L 3047 1722 
L 2188 4044 
z
M 1831 4666 
L 2547 4666 
L 4325 0 
L 3669 0 
L 3244 1197 
L 1141 1197 
L 716 0 
L 50 0 
L 1831 4666 
z
" transform="scale(0.015625)"/>
      </defs>
      <use xlink:href="#DejaVuSans-52"/>
      <use xlink:href="#DejaVuSans-4e" x="69.482422"/>
      <use xlink:href="#DejaVuSans-45" x="144.287109"/>
      <use xlink:href="#DejaVuSans-41" x="207.470703"/>
     </g>
    </g>
    <g id="line2d_28">
     <path d="M 39.123125 263.340313 
L 49.123125 263.340313 
L 59.123125 263.340313 
" style="fill: none; stroke: #ff0000; stroke-opacity: 0.7; stroke-width: 1.5; stroke-linecap: square"/>
    </g>
    <g id="text_16">
     <!-- BURNEA -->
     <g transform="translate(67.123125 266.840313) scale(0.1 -0.1)">
      <defs>
       <path id="DejaVuSans-42" d="M 1259 2228 
L 1259 519 
L 2272 519 
Q 2781 519 3026 730 
Q 3272 941 3272 1375 
Q 3272 1813 3026 2020 
Q 2781 2228 2272 2228 
L 1259 2228 
z
M 1259 4147 
L 1259 2741 
L 2194 2741 
Q 2656 2741 2882 2914 
Q 3109 3088 3109 3444 
Q 3109 3797 2882 3972 
Q 2656 4147 2194 4147 
L 1259 4147 
z
M 628 4666 
L 2241 4666 
Q 2963 4666 3353 4366 
Q 3744 4066 3744 3513 
Q 3744 3084 3544 2831 
Q 3344 2578 2956 2516 
Q 3422 2416 3680 2098 
Q 3938 1781 3938 1306 
Q 3938 681 3513 340 
Q 3088 0 2303 0 
L 628 0 
L 628 4666 
z
" transform="scale(0.015625)"/>
       <path id="DejaVuSans-55" d="M 556 4666 
L 1191 4666 
L 1191 1831 
Q 1191 1081 1462 751 
Q 1734 422 2344 422 
Q 2950 422 3222 751 
Q 3494 1081 3494 1831 
L 3494 4666 
L 4128 4666 
L 4128 1753 
Q 4128 841 3676 375 
Q 3225 -91 2344 -91 
Q 1459 -91 1007 375 
Q 556 841 556 1753 
L 556 4666 
z
" transform="scale(0.015625)"/>
      </defs>
      <use xlink:href="#DejaVuSans-42"/>
      <use xlink:href="#DejaVuSans-55" x="68.603516"/>
      <use xlink:href="#DejaVuSans-52" x="141.796875"/>
      <use xlink:href="#DejaVuSans-4e" x="211.279297"/>
      <use xlink:href="#DejaVuSans-45" x="286.083984"/>
      <use xlink:href="#DejaVuSans-41" x="349.267578"/>
     </g>
    </g>
   </g>
  </g>
 </g>
 <defs>
  <clipPath id="p028b7f9f0b">
   <rect x="30.123125" y="0.72" width="558" height="277.2"/>
  </clipPath>
 </defs>
</svg>
