<?xml version="1.0" encoding="utf-8" standalone="no"?>
<!DOCTYPE svg PUBLIC "-//W3C//DTD SVG 1.1//EN"
  "http://www.w3.org/Graphics/SVG/1.1/DTD/svg11.dtd">
<svg xmlns:xlink="http://www.w3.org/1999/xlink" width="590.860312pt" height="304.99625pt" viewBox="0 0 590.860312 304.99625" xmlns="http://www.w3.org/2000/svg" version="1.1">
 <metadata>
  <rdf:RDF xmlns:dc="http://purl.org/dc/elements/1.1/" xmlns:cc="http://creativecommons.org/ns#" xmlns:rdf="http://www.w3.org/1999/02/22-rdf-syntax-ns#">
   <cc:Work>
    <dc:type rdf:resource="http://purl.org/dc/dcmitype/StillImage"/>
    <dc:date>2023-09-05T22:09:14.581232</dc:date>
    <dc:format>image/svg+xml</dc:format>
    <dc:creator>
     <cc:Agent>
      <dc:title>Matplotlib v3.7.2, https://matplotlib.org/</dc:title>
     </cc:Agent>
    </dc:creator>
   </cc:Work>
  </rdf:RDF>
 </metadata>
 <defs>
  <style type="text/css">*{stroke-linejoin: round; stroke-linecap: butt}</style>
 </defs>
 <g id="figure_1">
  <g id="patch_1">
   <path d="M -0 304.99625 
L 590.860312 304.99625 
L 590.860312 0 
L -0 0 
L -0 304.99625 
z
" style="fill: none"/>
  </g>
  <g id="axes_1">
   <g id="patch_2">
    <path d="M 32.140313 277.92 
L 590.140313 277.92 
L 590.140313 0.72 
L 32.140313 0.72 
L 32.140313 277.92 
z
" style="fill: none"/>
   </g>
   <g id="matplotlib.axis_1">
    <g id="xtick_1">
     <g id="line2d_1">
      <path d="M 32.140313 277.92 
L 32.140313 0.72 
" clip-path="url(#p9fb5bb14f0)" style="fill: none; stroke-dasharray: 0.8,1.32; stroke-dashoffset: 0; stroke: #000000; stroke-opacity: 0.5; stroke-width: 0.8"/>
     </g>
     <g id="line2d_2">
      <defs>
       <path id="m61a5645ce4" d="M 0 0 
L 0 3.5 
" style="stroke: #000000; stroke-width: 0.8"/>
      </defs>
      <g>
       <use xlink:href="#m61a5645ce4" x="32.140313" y="277.92" style="stroke: #000000; stroke-width: 0.8"/>
      </g>
     </g>
     <g id="text_1">
      <!-- 0 -->
      <g transform="translate(28.959063 292.518438) scale(0.1 -0.1)">
       <defs>
        <path id="DejaVuSans-30" d="M 2034 4250 
Q 1547 4250 1301 3770 
Q 1056 3291 1056 2328 
Q 1056 1369 1301 889 
Q 1547 409 2034 409 
Q 2525 409 2770 889 
Q 3016 1369 3016 2328 
Q 3016 3291 2770 3770 
Q 2525 4250 2034 4250 
z
M 2034 4750 
Q 2819 4750 3233 4129 
Q 3647 3509 3647 2328 
Q 3647 1150 3233 529 
Q 2819 -91 2034 -91 
Q 1250 -91 836 529 
Q 422 1150 422 2328 
Q 422 3509 836 4129 
Q 1250 4750 2034 4750 
z
" transform="scale(0.015625)"/>
       </defs>
       <use xlink:href="#DejaVuSans-30"/>
      </g>
     </g>
    </g>
    <g id="xtick_2">
     <g id="line2d_3">
      <path d="M 117.370114 277.92 
L 117.370114 0.72 
" clip-path="url(#p9fb5bb14f0)" style="fill: none; stroke-dasharray: 0.8,1.32; stroke-dashoffset: 0; stroke: #000000; stroke-opacity: 0.5; stroke-width: 0.8"/>
     </g>
     <g id="line2d_4">
      <g>
       <use xlink:href="#m61a5645ce4" x="117.370114" y="277.92" style="stroke: #000000; stroke-width: 0.8"/>
      </g>
     </g>
     <g id="text_2">
      <!-- 5 -->
      <g transform="translate(114.188864 292.518438) scale(0.1 -0.1)">
       <defs>
        <path id="DejaVuSans-35" d="M 691 4666 
L 3169 4666 
L 3169 4134 
L 1269 4134 
L 1269 2991 
Q 1406 3038 1543 3061 
Q 1681 3084 1819 3084 
Q 2600 3084 3056 2656 
Q 3513 2228 3513 1497 
Q 3513 744 3044 326 
Q 2575 -91 1722 -91 
Q 1428 -91 1123 -41 
Q 819 9 494 109 
L 494 744 
Q 775 591 1075 516 
Q 1375 441 1709 441 
Q 2250 441 2565 725 
Q 2881 1009 2881 1497 
Q 2881 1984 2565 2268 
Q 2250 2553 1709 2553 
Q 1456 2553 1204 2497 
Q 953 2441 691 2322 
L 691 4666 
z
" transform="scale(0.015625)"/>
       </defs>
       <use xlink:href="#DejaVuSans-35"/>
      </g>
     </g>
    </g>
    <g id="xtick_3">
     <g id="line2d_5">
      <path d="M 202.599915 277.92 
L 202.599915 0.72 
" clip-path="url(#p9fb5bb14f0)" style="fill: none; stroke-dasharray: 0.8,1.32; stroke-dashoffset: 0; stroke: #000000; stroke-opacity: 0.5; stroke-width: 0.8"/>
     </g>
     <g id="line2d_6">
      <g>
       <use xlink:href="#m61a5645ce4" x="202.599915" y="277.92" style="stroke: #000000; stroke-width: 0.8"/>
      </g>
     </g>
     <g id="text_3">
      <!-- 10 -->
      <g transform="translate(196.237415 292.518438) scale(0.1 -0.1)">
       <defs>
        <path id="DejaVuSans-31" d="M 794 531 
L 1825 531 
L 1825 4091 
L 703 3866 
L 703 4441 
L 1819 4666 
L 2450 4666 
L 2450 531 
L 3481 531 
L 3481 0 
L 794 0 
L 794 531 
z
" transform="scale(0.015625)"/>
       </defs>
       <use xlink:href="#DejaVuSans-31"/>
       <use xlink:href="#DejaVuSans-30" x="63.623047"/>
      </g>
     </g>
    </g>
    <g id="xtick_4">
     <g id="line2d_7">
      <path d="M 287.829716 277.92 
L 287.829716 0.72 
" clip-path="url(#p9fb5bb14f0)" style="fill: none; stroke-dasharray: 0.8,1.32; stroke-dashoffset: 0; stroke: #000000; stroke-opacity: 0.5; stroke-width: 0.8"/>
     </g>
     <g id="line2d_8">
      <g>
       <use xlink:href="#m61a5645ce4" x="287.829716" y="277.92" style="stroke: #000000; stroke-width: 0.8"/>
      </g>
     </g>
     <g id="text_4">
      <!-- 15 -->
      <g transform="translate(281.467216 292.518438) scale(0.1 -0.1)">
       <use xlink:href="#DejaVuSans-31"/>
       <use xlink:href="#DejaVuSans-35" x="63.623047"/>
      </g>
     </g>
    </g>
    <g id="xtick_5">
     <g id="line2d_9">
      <path d="M 373.059517 277.92 
L 373.059517 0.72 
" clip-path="url(#p9fb5bb14f0)" style="fill: none; stroke-dasharray: 0.8,1.32; stroke-dashoffset: 0; stroke: #000000; stroke-opacity: 0.5; stroke-width: 0.8"/>
     </g>
     <g id="line2d_10">
      <g>
       <use xlink:href="#m61a5645ce4" x="373.059517" y="277.92" style="stroke: #000000; stroke-width: 0.8"/>
      </g>
     </g>
     <g id="text_5">
      <!-- 20 -->
      <g transform="translate(366.697017 292.518438) scale(0.1 -0.1)">
       <defs>
        <path id="DejaVuSans-32" d="M 1228 531 
L 3431 531 
L 3431 0 
L 469 0 
L 469 531 
Q 828 903 1448 1529 
Q 2069 2156 2228 2338 
Q 2531 2678 2651 2914 
Q 2772 3150 2772 3378 
Q 2772 3750 2511 3984 
Q 2250 4219 1831 4219 
Q 1534 4219 1204 4116 
Q 875 4013 500 3803 
L 500 4441 
Q 881 4594 1212 4672 
Q 1544 4750 1819 4750 
Q 2544 4750 2975 4387 
Q 3406 4025 3406 3419 
Q 3406 3131 3298 2873 
Q 3191 2616 2906 2266 
Q 2828 2175 2409 1742 
Q 1991 1309 1228 531 
z
" transform="scale(0.015625)"/>
       </defs>
       <use xlink:href="#DejaVuSans-32"/>
       <use xlink:href="#DejaVuSans-30" x="63.623047"/>
      </g>
     </g>
    </g>
    <g id="xtick_6">
     <g id="line2d_11">
      <path d="M 458.289318 277.92 
L 458.289318 0.72 
" clip-path="url(#p9fb5bb14f0)" style="fill: none; stroke-dasharray: 0.8,1.32; stroke-dashoffset: 0; stroke: #000000; stroke-opacity: 0.5; stroke-width: 0.8"/>
     </g>
     <g id="line2d_12">
      <g>
       <use xlink:href="#m61a5645ce4" x="458.289318" y="277.92" style="stroke: #000000; stroke-width: 0.8"/>
      </g>
     </g>
     <g id="text_6">
      <!-- 25 -->
      <g transform="translate(451.926818 292.518438) scale(0.1 -0.1)">
       <use xlink:href="#DejaVuSans-32"/>
       <use xlink:href="#DejaVuSans-35" x="63.623047"/>
      </g>
     </g>
    </g>
    <g id="xtick_7">
     <g id="line2d_13">
      <path d="M 543.519119 277.92 
L 543.519119 0.72 
" clip-path="url(#p9fb5bb14f0)" style="fill: none; stroke-dasharray: 0.8,1.32; stroke-dashoffset: 0; stroke: #000000; stroke-opacity: 0.5; stroke-width: 0.8"/>
     </g>
     <g id="line2d_14">
      <g>
       <use xlink:href="#m61a5645ce4" x="543.519119" y="277.92" style="stroke: #000000; stroke-width: 0.8"/>
      </g>
     </g>
     <g id="text_7">
      <!-- 30 -->
      <g transform="translate(537.156619 292.518438) scale(0.1 -0.1)">
       <defs>
        <path id="DejaVuSans-33" d="M 2597 2516 
Q 3050 2419 3304 2112 
Q 3559 1806 3559 1356 
Q 3559 666 3084 287 
Q 2609 -91 1734 -91 
Q 1441 -91 1130 -33 
Q 819 25 488 141 
L 488 750 
Q 750 597 1062 519 
Q 1375 441 1716 441 
Q 2309 441 2620 675 
Q 2931 909 2931 1356 
Q 2931 1769 2642 2001 
Q 2353 2234 1838 2234 
L 1294 2234 
L 1294 2753 
L 1863 2753 
Q 2328 2753 2575 2939 
Q 2822 3125 2822 3475 
Q 2822 3834 2567 4026 
Q 2313 4219 1838 4219 
Q 1578 4219 1281 4162 
Q 984 4106 628 3988 
L 628 4550 
Q 988 4650 1302 4700 
Q 1616 4750 1894 4750 
Q 2613 4750 3031 4423 
Q 3450 4097 3450 3541 
Q 3450 3153 3228 2886 
Q 3006 2619 2597 2516 
z
" transform="scale(0.015625)"/>
       </defs>
       <use xlink:href="#DejaVuSans-33"/>
       <use xlink:href="#DejaVuSans-30" x="63.623047"/>
      </g>
     </g>
    </g>
    <g id="text_8">
     <!-- Zeit [s] -->
     <g transform="translate(293.194219 302.196563) scale(0.1 -0.1)">
      <defs>
       <path id="DejaVuSans-5a" d="M 359 4666 
L 4025 4666 
L 4025 4184 
L 1075 531 
L 4097 531 
L 4097 0 
L 288 0 
L 288 481 
L 3238 4134 
L 359 4134 
L 359 4666 
z
" transform="scale(0.015625)"/>
       <path id="DejaVuSans-65" d="M 3597 1894 
L 3597 1613 
L 953 1613 
Q 991 1019 1311 708 
Q 1631 397 2203 397 
Q 2534 397 2845 478 
Q 3156 559 3463 722 
L 3463 178 
Q 3153 47 2828 -22 
Q 2503 -91 2169 -91 
Q 1331 -91 842 396 
Q 353 884 353 1716 
Q 353 2575 817 3079 
Q 1281 3584 2069 3584 
Q 2775 3584 3186 3129 
Q 3597 2675 3597 1894 
z
M 3022 2063 
Q 3016 2534 2758 2815 
Q 2500 3097 2075 3097 
Q 1594 3097 1305 2825 
Q 1016 2553 972 2059 
L 3022 2063 
z
" transform="scale(0.015625)"/>
       <path id="DejaVuSans-69" d="M 603 3500 
L 1178 3500 
L 1178 0 
L 603 0 
L 603 3500 
z
M 603 4863 
L 1178 4863 
L 1178 4134 
L 603 4134 
L 603 4863 
z
" transform="scale(0.015625)"/>
       <path id="DejaVuSans-74" d="M 1172 4494 
L 1172 3500 
L 2356 3500 
L 2356 3053 
L 1172 3053 
L 1172 1153 
Q 1172 725 1289 603 
Q 1406 481 1766 481 
L 2356 481 
L 2356 0 
L 1766 0 
Q 1100 0 847 248 
Q 594 497 594 1153 
L 594 3053 
L 172 3053 
L 172 3500 
L 594 3500 
L 594 4494 
L 1172 4494 
z
" transform="scale(0.015625)"/>
       <path id="DejaVuSans-20" transform="scale(0.015625)"/>
       <path id="DejaVuSans-5b" d="M 550 4863 
L 1875 4863 
L 1875 4416 
L 1125 4416 
L 1125 -397 
L 1875 -397 
L 1875 -844 
L 550 -844 
L 550 4863 
z
" transform="scale(0.015625)"/>
       <path id="DejaVuSans-73" d="M 2834 3397 
L 2834 2853 
Q 2591 2978 2328 3040 
Q 2066 3103 1784 3103 
Q 1356 3103 1142 2972 
Q 928 2841 928 2578 
Q 928 2378 1081 2264 
Q 1234 2150 1697 2047 
L 1894 2003 
Q 2506 1872 2764 1633 
Q 3022 1394 3022 966 
Q 3022 478 2636 193 
Q 2250 -91 1575 -91 
Q 1294 -91 989 -36 
Q 684 19 347 128 
L 347 722 
Q 666 556 975 473 
Q 1284 391 1588 391 
Q 1994 391 2212 530 
Q 2431 669 2431 922 
Q 2431 1156 2273 1281 
Q 2116 1406 1581 1522 
L 1381 1569 
Q 847 1681 609 1914 
Q 372 2147 372 2553 
Q 372 3047 722 3315 
Q 1072 3584 1716 3584 
Q 2034 3584 2315 3537 
Q 2597 3491 2834 3397 
z
" transform="scale(0.015625)"/>
       <path id="DejaVuSans-5d" d="M 1947 4863 
L 1947 -844 
L 622 -844 
L 622 -397 
L 1369 -397 
L 1369 4416 
L 622 4416 
L 622 4863 
L 1947 4863 
z
" transform="scale(0.015625)"/>
      </defs>
      <use xlink:href="#DejaVuSans-5a"/>
      <use xlink:href="#DejaVuSans-65" x="68.505859"/>
      <use xlink:href="#DejaVuSans-69" x="130.029297"/>
      <use xlink:href="#DejaVuSans-74" x="157.8125"/>
      <use xlink:href="#DejaVuSans-20" x="197.021484"/>
      <use xlink:href="#DejaVuSans-5b" x="228.808594"/>
      <use xlink:href="#DejaVuSans-73" x="267.822266"/>
      <use xlink:href="#DejaVuSans-5d" x="319.921875"/>
     </g>
    </g>
   </g>
   <g id="matplotlib.axis_2">
    <g id="ytick_1">
     <g id="line2d_15">
      <path d="M 32.140313 275.529835 
L 590.140313 275.529835 
" clip-path="url(#p9fb5bb14f0)" style="fill: none; stroke-dasharray: 0.8,1.32; stroke-dashoffset: 0; stroke: #000000; stroke-opacity: 0.5; stroke-width: 0.8"/>
     </g>
     <g id="line2d_16">
      <defs>
       <path id="m9e6275e7de" d="M 0 0 
L -3.5 0 
" style="stroke: #000000; stroke-width: 0.8"/>
      </defs>
      <g>
       <use xlink:href="#m9e6275e7de" x="32.140313" y="275.529835" style="stroke: #000000; stroke-width: 0.8"/>
      </g>
     </g>
     <g id="text_9">
      <!-- −6 -->
      <g transform="translate(10.398125 279.329054) scale(0.1 -0.1)">
       <defs>
        <path id="DejaVuSans-2212" d="M 678 2272 
L 4684 2272 
L 4684 1741 
L 678 1741 
L 678 2272 
z
" transform="scale(0.015625)"/>
        <path id="DejaVuSans-36" d="M 2113 2584 
Q 1688 2584 1439 2293 
Q 1191 2003 1191 1497 
Q 1191 994 1439 701 
Q 1688 409 2113 409 
Q 2538 409 2786 701 
Q 3034 994 3034 1497 
Q 3034 2003 2786 2293 
Q 2538 2584 2113 2584 
z
M 3366 4563 
L 3366 3988 
Q 3128 4100 2886 4159 
Q 2644 4219 2406 4219 
Q 1781 4219 1451 3797 
Q 1122 3375 1075 2522 
Q 1259 2794 1537 2939 
Q 1816 3084 2150 3084 
Q 2853 3084 3261 2657 
Q 3669 2231 3669 1497 
Q 3669 778 3244 343 
Q 2819 -91 2113 -91 
Q 1303 -91 875 529 
Q 447 1150 447 2328 
Q 447 3434 972 4092 
Q 1497 4750 2381 4750 
Q 2619 4750 2861 4703 
Q 3103 4656 3366 4563 
z
" transform="scale(0.015625)"/>
       </defs>
       <use xlink:href="#DejaVuSans-2212"/>
       <use xlink:href="#DejaVuSans-36" x="83.789062"/>
      </g>
     </g>
    </g>
    <g id="ytick_2">
     <g id="line2d_17">
      <path d="M 32.140313 228.540112 
L 590.140313 228.540112 
" clip-path="url(#p9fb5bb14f0)" style="fill: none; stroke-dasharray: 0.8,1.32; stroke-dashoffset: 0; stroke: #000000; stroke-opacity: 0.5; stroke-width: 0.8"/>
     </g>
     <g id="line2d_18">
      <g>
       <use xlink:href="#m9e6275e7de" x="32.140313" y="228.540112" style="stroke: #000000; stroke-width: 0.8"/>
      </g>
     </g>
     <g id="text_10">
      <!-- −5 -->
      <g transform="translate(10.398125 232.339331) scale(0.1 -0.1)">
       <use xlink:href="#DejaVuSans-2212"/>
       <use xlink:href="#DejaVuSans-35" x="83.789062"/>
      </g>
     </g>
    </g>
    <g id="ytick_3">
     <g id="line2d_19">
      <path d="M 32.140313 181.550388 
L 590.140313 181.550388 
" clip-path="url(#p9fb5bb14f0)" style="fill: none; stroke-dasharray: 0.8,1.32; stroke-dashoffset: 0; stroke: #000000; stroke-opacity: 0.5; stroke-width: 0.8"/>
     </g>
     <g id="line2d_20">
      <g>
       <use xlink:href="#m9e6275e7de" x="32.140313" y="181.550388" style="stroke: #000000; stroke-width: 0.8"/>
      </g>
     </g>
     <g id="text_11">
      <!-- −4 -->
      <g transform="translate(10.398125 185.349607) scale(0.1 -0.1)">
       <defs>
        <path id="DejaVuSans-34" d="M 2419 4116 
L 825 1625 
L 2419 1625 
L 2419 4116 
z
M 2253 4666 
L 3047 4666 
L 3047 1625 
L 3713 1625 
L 3713 1100 
L 3047 1100 
L 3047 0 
L 2419 0 
L 2419 1100 
L 313 1100 
L 313 1709 
L 2253 4666 
z
" transform="scale(0.015625)"/>
       </defs>
       <use xlink:href="#DejaVuSans-2212"/>
       <use xlink:href="#DejaVuSans-34" x="83.789062"/>
      </g>
     </g>
    </g>
    <g id="ytick_4">
     <g id="line2d_21">
      <path d="M 32.140313 134.560665 
L 590.140313 134.560665 
" clip-path="url(#p9fb5bb14f0)" style="fill: none; stroke-dasharray: 0.8,1.32; stroke-dashoffset: 0; stroke: #000000; stroke-opacity: 0.5; stroke-width: 0.8"/>
     </g>
     <g id="line2d_22">
      <g>
       <use xlink:href="#m9e6275e7de" x="32.140313" y="134.560665" style="stroke: #000000; stroke-width: 0.8"/>
      </g>
     </g>
     <g id="text_12">
      <!-- −3 -->
      <g transform="translate(10.398125 138.359884) scale(0.1 -0.1)">
       <use xlink:href="#DejaVuSans-2212"/>
       <use xlink:href="#DejaVuSans-33" x="83.789062"/>
      </g>
     </g>
    </g>
    <g id="ytick_5">
     <g id="line2d_23">
      <path d="M 32.140313 87.570941 
L 590.140313 87.570941 
" clip-path="url(#p9fb5bb14f0)" style="fill: none; stroke-dasharray: 0.8,1.32; stroke-dashoffset: 0; stroke: #000000; stroke-opacity: 0.5; stroke-width: 0.8"/>
     </g>
     <g id="line2d_24">
      <g>
       <use xlink:href="#m9e6275e7de" x="32.140313" y="87.570941" style="stroke: #000000; stroke-width: 0.8"/>
      </g>
     </g>
     <g id="text_13">
      <!-- −2 -->
      <g transform="translate(10.398125 91.37016) scale(0.1 -0.1)">
       <use xlink:href="#DejaVuSans-2212"/>
       <use xlink:href="#DejaVuSans-32" x="83.789062"/>
      </g>
     </g>
    </g>
    <g id="ytick_6">
     <g id="line2d_25">
      <path d="M 32.140313 40.581218 
L 590.140313 40.581218 
" clip-path="url(#p9fb5bb14f0)" style="fill: none; stroke-dasharray: 0.8,1.32; stroke-dashoffset: 0; stroke: #000000; stroke-opacity: 0.5; stroke-width: 0.8"/>
     </g>
     <g id="line2d_26">
      <g>
       <use xlink:href="#m9e6275e7de" x="32.140313" y="40.581218" style="stroke: #000000; stroke-width: 0.8"/>
      </g>
     </g>
     <g id="text_14">
      <!-- −1 -->
      <g transform="translate(10.398125 44.380437) scale(0.1 -0.1)">
       <use xlink:href="#DejaVuSans-2212"/>
       <use xlink:href="#DejaVuSans-31" x="83.789062"/>
      </g>
     </g>
    </g>
    <g id="text_15">
     <!-- Drehmoment [Nm] -->
     <g transform="translate(8.318438 186.465313) rotate(-90) scale(0.1 -0.1)">
      <defs>
       <path id="DejaVuSans-44" d="M 1259 4147 
L 1259 519 
L 2022 519 
Q 2988 519 3436 956 
Q 3884 1394 3884 2338 
Q 3884 3275 3436 3711 
Q 2988 4147 2022 4147 
L 1259 4147 
z
M 628 4666 
L 1925 4666 
Q 3281 4666 3915 4102 
Q 4550 3538 4550 2338 
Q 4550 1131 3912 565 
Q 3275 0 1925 0 
L 628 0 
L 628 4666 
z
" transform="scale(0.015625)"/>
       <path id="DejaVuSans-72" d="M 2631 2963 
Q 2534 3019 2420 3045 
Q 2306 3072 2169 3072 
Q 1681 3072 1420 2755 
Q 1159 2438 1159 1844 
L 1159 0 
L 581 0 
L 581 3500 
L 1159 3500 
L 1159 2956 
Q 1341 3275 1631 3429 
Q 1922 3584 2338 3584 
Q 2397 3584 2469 3576 
Q 2541 3569 2628 3553 
L 2631 2963 
z
" transform="scale(0.015625)"/>
       <path id="DejaVuSans-68" d="M 3513 2113 
L 3513 0 
L 2938 0 
L 2938 2094 
Q 2938 2591 2744 2837 
Q 2550 3084 2163 3084 
Q 1697 3084 1428 2787 
Q 1159 2491 1159 1978 
L 1159 0 
L 581 0 
L 581 4863 
L 1159 4863 
L 1159 2956 
Q 1366 3272 1645 3428 
Q 1925 3584 2291 3584 
Q 2894 3584 3203 3211 
Q 3513 2838 3513 2113 
z
" transform="scale(0.015625)"/>
       <path id="DejaVuSans-6d" d="M 3328 2828 
Q 3544 3216 3844 3400 
Q 4144 3584 4550 3584 
Q 5097 3584 5394 3201 
Q 5691 2819 5691 2113 
L 5691 0 
L 5113 0 
L 5113 2094 
Q 5113 2597 4934 2840 
Q 4756 3084 4391 3084 
Q 3944 3084 3684 2787 
Q 3425 2491 3425 1978 
L 3425 0 
L 2847 0 
L 2847 2094 
Q 2847 2600 2669 2842 
Q 2491 3084 2119 3084 
Q 1678 3084 1418 2786 
Q 1159 2488 1159 1978 
L 1159 0 
L 581 0 
L 581 3500 
L 1159 3500 
L 1159 2956 
Q 1356 3278 1631 3431 
Q 1906 3584 2284 3584 
Q 2666 3584 2933 3390 
Q 3200 3197 3328 2828 
z
" transform="scale(0.015625)"/>
       <path id="DejaVuSans-6f" d="M 1959 3097 
Q 1497 3097 1228 2736 
Q 959 2375 959 1747 
Q 959 1119 1226 758 
Q 1494 397 1959 397 
Q 2419 397 2687 759 
Q 2956 1122 2956 1747 
Q 2956 2369 2687 2733 
Q 2419 3097 1959 3097 
z
M 1959 3584 
Q 2709 3584 3137 3096 
Q 3566 2609 3566 1747 
Q 3566 888 3137 398 
Q 2709 -91 1959 -91 
Q 1206 -91 779 398 
Q 353 888 353 1747 
Q 353 2609 779 3096 
Q 1206 3584 1959 3584 
z
" transform="scale(0.015625)"/>
       <path id="DejaVuSans-6e" d="M 3513 2113 
L 3513 0 
L 2938 0 
L 2938 2094 
Q 2938 2591 2744 2837 
Q 2550 3084 2163 3084 
Q 1697 3084 1428 2787 
Q 1159 2491 1159 1978 
L 1159 0 
L 581 0 
L 581 3500 
L 1159 3500 
L 1159 2956 
Q 1366 3272 1645 3428 
Q 1925 3584 2291 3584 
Q 2894 3584 3203 3211 
Q 3513 2838 3513 2113 
z
" transform="scale(0.015625)"/>
       <path id="DejaVuSans-4e" d="M 628 4666 
L 1478 4666 
L 3547 763 
L 3547 4666 
L 4159 4666 
L 4159 0 
L 3309 0 
L 1241 3903 
L 1241 0 
L 628 0 
L 628 4666 
z
" transform="scale(0.015625)"/>
      </defs>
      <use xlink:href="#DejaVuSans-44"/>
      <use xlink:href="#DejaVuSans-72" x="77.001953"/>
      <use xlink:href="#DejaVuSans-65" x="115.865234"/>
      <use xlink:href="#DejaVuSans-68" x="177.388672"/>
      <use xlink:href="#DejaVuSans-6d" x="240.767578"/>
      <use xlink:href="#DejaVuSans-6f" x="338.179688"/>
      <use xlink:href="#DejaVuSans-6d" x="399.361328"/>
      <use xlink:href="#DejaVuSans-65" x="496.773438"/>
      <use xlink:href="#DejaVuSans-6e" x="558.296875"/>
      <use xlink:href="#DejaVuSans-74" x="621.675781"/>
      <use xlink:href="#DejaVuSans-20" x="660.884766"/>
      <use xlink:href="#DejaVuSans-5b" x="692.671875"/>
      <use xlink:href="#DejaVuSans-4e" x="731.685547"/>
      <use xlink:href="#DejaVuSans-6d" x="806.490234"/>
      <use xlink:href="#DejaVuSans-5d" x="903.902344"/>
     </g>
    </g>
   </g>
   <g id="line2d_27">
    <path d="M 32.140313 0.72 
L 590.140313 0.72 
L 590.140313 0.72 
" clip-path="url(#p9fb5bb14f0)" style="fill: none; stroke: #0000ff; stroke-opacity: 0.7; stroke-width: 1.5; stroke-linecap: square"/>
   </g>
   <g id="line2d_28">
    <path d="M 32.140313 270.661152 
L 32.435546 272.572927 
L 32.555012 274.274374 
L 32.736971 273.365407 
L 32.767209 269.970805 
L 32.868901 271.706124 
L 33.010597 270.938585 
L 33.110089 268.140051 
L 33.382129 269.341586 
L 33.555563 268.541694 
L 33.704168 269.100776 
L 33.862462 265.908605 
L 33.965084 266.254968 
L 34.240151 269.23536 
L 34.378473 268.503789 
L 34.58483 269.764278 
L 34.72666 269.430696 
L 34.824779 267.830337 
L 34.961323 269.562311 
L 35.133492 269.579415 
L 35.270612 270.572275 
L 35.373656 270.299982 
L 35.512826 267.536604 
L 35.715881 266.346982 
L 35.819652 266.749955 
L 36.059637 266.985911 
L 36.270067 269.392982 
L 36.404571 268.592044 
L 36.542526 268.869467 
L 36.822207 267.628429 
L 36.954718 270.040225 
L 37.093711 270.076485 
L 37.368475 272.446238 
L 37.511639 271.836448 
L 37.745405 269.712959 
L 37.812725 269.950481 
L 37.950032 269.622895 
L 38.502334 273.763789 
L 38.787207 270.67078 
L 38.93094 271.184517 
L 39.08978 272.907409 
L 39.199717 271.938442 
L 39.365586 273.296179 
L 39.502705 273.498537 
L 39.640601 273.333453 
L 39.928742 270.324194 
L 40.061552 271.438776 
L 40.50095 269.365619 
L 40.636993 270.128357 
L 40.774834 267.665954 
L 40.910452 267.585162 
L 41.118694 269.364903 
L 41.197791 269.326424 
L 41.329886 268.85191 
L 41.499815 268.979782 
L 41.637282 269.731389 
L 41.912456 266.940268 
L 42.050712 266.7373 
L 42.325592 267.97854 
L 42.60824 266.485165 
L 42.773332 266.28407 
L 43.049312 264.718038 
L 43.481917 267.457196 
L 43.604857 267.058451 
L 43.907246 267.602833 
L 44.046194 267.175981 
L 44.208774 267.448851 
L 44.322088 268.164671 
L 44.461715 267.851499 
L 44.596799 268.431802 
L 44.737047 268.353986 
L 44.87172 267.899657 
L 45.319091 264.758752 
L 45.731151 270.000309 
L 45.878349 271.237306 
L 46.044386 271.449391 
L 46.177247 270.138163 
L 46.457793 273.253343 
L 46.594328 272.540117 
L 46.731122 272.660712 
L 47.005971 271.106498 
L 47.212348 268.25216 
L 47.350047 268.766909 
L 47.521231 268.744008 
L 47.727701 270.701445 
L 47.967866 269.200579 
L 48.447483 275.779963 
L 49.002064 269.390287 
L 49.283602 272.730279 
L 49.587989 270.98115 
L 49.726783 270.687985 
L 49.861797 268.936266 
L 50.140342 269.302028 
L 50.275125 270.270183 
L 50.424127 269.712544 
L 50.446683 269.831178 
L 50.592375 269.765179 
L 50.732737 269.016711 
L 50.883475 269.420222 
L 50.905571 268.824015 
L 51.178365 269.986379 
L 51.28493 269.339714 
L 51.425615 269.658323 
L 51.738169 268.12385 
L 51.854723 268.694518 
L 51.995246 268.519309 
L 52.47431 271.002887 
L 52.576052 268.136802 
L 52.719017 268.321715 
L 52.76914 267.061468 
L 52.789964 267.601538 
L 52.914643 267.16623 
L 52.915626 268.813661 
L 53.067303 269.143028 
L 53.30685 271.313293 
L 53.44631 270.858079 
L 53.891718 268.305476 
L 54.030732 270.711419 
L 54.304271 271.559418 
L 54.407584 269.625167 
L 54.717533 269.064264 
L 54.821007 270.540481 
L 55.140933 272.191021 
L 55.509643 271.462126 
L 55.681992 268.728704 
L 56.009317 272.170578 
L 56.126612 272.15733 
L 56.587881 268.248815 
L 56.710368 268.703638 
L 56.814823 268.103937 
L 57.190298 273.368013 
L 57.60432 271.407962 
L 57.811466 271.526723 
L 57.894129 270.616689 
L 58.083487 270.6571 
L 58.22047 271.821043 
L 58.357472 271.556823 
L 58.531476 268.151853 
L 58.669004 267.229093 
L 58.805757 265.256801 
L 59.1151 266.85996 
L 59.328935 267.340996 
L 59.388415 269.296995 
L 59.526736 269.585149 
L 59.663911 268.380424 
L 59.835949 268.712021 
L 60.248126 271.662493 
L 60.697259 269.676062 
L 61.0372 266.775171 
L 61.22201 270.342126 
L 61.379364 269.510208 
L 61.655 271.959936 
L 61.852443 271.94655 
L 61.931633 273.405098 
L 62.2812 275.132085 
L 62.378762 274.14687 
L 62.516181 271.251996 
L 62.6765 271.466333 
L 62.79134 272.967623 
L 63.030918 271.990198 
L 63.133615 272.336966 
L 63.376184 271.25301 
L 63.511371 270.611966 
L 63.993724 274.832127 
L 64.097941 274.564997 
L 64.234841 272.627377 
L 64.37207 273.539819 
L 64.577892 272.818211 
L 64.887175 274.857292 
L 65.196642 274.040309 
L 65.299568 273.783882 
L 65.40337 273.933472 
L 65.643676 273.138498 
L 66.091248 275.422135 
L 66.302545 274.870475 
L 66.374038 275.242945 
L 66.68346 273.052231 
L 66.948515 274.281571 
L 67.190913 274.132838 
L 67.303736 273.268369 
L 67.381104 273.57332 
L 67.38125 272.358596 
L 67.67479 273.45735 
L 67.984281 273.18234 
L 68.020552 273.996958 
L 68.15542 274.433794 
L 68.315519 271.98846 
L 68.348663 272.296677 
L 68.486451 271.380069 
L 68.808308 272.730752 
L 69.010975 271.955903 
L 69.208492 272.152145 
L 69.352113 271.531233 
L 69.625517 272.597779 
L 69.830335 271.581242 
L 69.899336 274.90347 
L 70.037697 273.939671 
L 70.483949 267.308726 
L 70.895806 271.90281 
L 71.101632 271.276351 
L 71.211771 273.185677 
L 71.455098 269.375453 
L 71.66035 268.787778 
L 71.936637 270.508974 
L 72.073786 270.239958 
L 72.173252 269.577554 
L 72.45159 269.619914 
L 72.517245 269.782207 
L 72.654848 268.47131 
L 72.759886 268.981604 
L 72.898949 271.037814 
L 73.210209 271.66051 
L 73.308801 272.993192 
L 73.480384 272.599988 
L 73.616839 272.611245 
L 73.755912 271.174939 
L 73.929012 270.668583 
L 74.067013 270.942647 
L 74.313615 268.1307 
L 74.47883 268.355704 
L 74.71756 267.717388 
L 74.924107 266.286117 
L 75.650798 268.413211 
L 76.401148 271.201655 
L 77.202582 271.588858 
L 77.951692 271.092596 
L 77.982047 270.244533 
L 78.118591 270.914919 
L 78.152365 270.460978 
L 78.291298 272.17601 
L 78.428199 271.849974 
L 78.567573 270.188475 
L 78.736713 272.283624 
L 79.082037 276.864569 
L 79.119139 275.07302 
L 79.530505 274.377174 
L 79.562787 273.493967 
L 79.802681 272.14329 
L 80.047939 274.237424 
L 80.181043 274.086682 
L 80.525255 271.815008 
L 80.661812 274.472062 
L 80.698599 274.461096 
L 80.840509 274.125762 
L 80.986424 274.070765 
L 81.248043 273.292883 
L 81.69575 266.068185 
L 81.86478 268.143227 
L 82.188759 265.509468 
L 82.380784 266.184149 
L 82.552381 269.180885 
L 82.693662 270.326258 
L 82.897442 270.271271 
L 82.965342 270.565301 
L 83.34321 268.754921 
L 83.721574 270.794585 
L 83.903239 270.498881 
L 84.108818 271.460517 
L 84.135477 273.058225 
L 84.26445 271.271761 
L 84.470881 271.066989 
L 84.608454 271.54755 
L 84.681212 271.439521 
L 84.856931 271.542083 
L 85.397966 269.517371 
L 85.535918 269.676715 
L 85.844391 269.492959 
L 86.39386 270.317166 
L 86.531868 270.360586 
L 86.707299 270.17238 
L 86.977516 269.395565 
L 87.080925 271.52412 
L 87.254024 271.65512 
L 87.529251 268.781132 
L 87.666221 267.015189 
L 87.804103 266.917901 
L 87.977136 267.343354 
L 88.082414 267.271042 
L 88.25075 268.45748 
L 88.357152 270.149797 
L 88.526144 268.784988 
L 88.664128 268.889441 
L 88.93835 273.496007 
L 89.177137 273.220225 
L 89.211178 273.891302 
L 89.386546 272.241792 
L 89.679388 272.082419 
L 89.679962 272.177185 
L 89.694667 271.018659 
L 89.848286 270.45647 
L 90.142671 272.45751 
L 90.300393 272.161334 
L 90.363509 272.399263 
L 90.637283 276.997523 
L 90.840162 277.92 
L 91.321321 275.920867 
L 91.633461 272.093572 
L 91.8021 271.260763 
L 91.973113 269.07812 
L 92.075828 265.285892 
L 92.213444 265.4536 
L 92.350101 266.717934 
L 92.589815 267.176628 
L 92.628308 265.793992 
L 92.806058 265.115731 
L 92.901502 265.205857 
L 93.069646 266.411229 
L 93.215442 265.946654 
L 93.347108 266.690141 
L 93.6207 270.085002 
L 94.03417 270.563366 
L 94.213146 272.994569 
L 94.343518 273.195499 
L 94.617798 275.352962 
L 94.756705 275.059362 
L 95.066934 270.951229 
L 95.274464 271.210607 
L 95.307125 272.380288 
L 95.51143 272.093273 
L 95.615164 270.785029 
L 95.75416 270.444326 
L 95.890041 268.951479 
L 96.164304 268.871154 
L 96.373035 270.985967 
L 96.617271 270.683817 
L 96.921408 269.476164 
L 97.023169 270.467631 
L 97.265711 271.075144 
L 97.334973 271.574396 
L 97.473483 271.732256 
L 97.676147 270.640459 
L 97.916948 273.665491 
L 98.187395 271.615641 
L 98.447501 275.500487 
L 99.132221 271.843438 
L 99.337418 269.249498 
L 99.438062 269.549318 
L 99.61044 269.211245 
L 99.812734 267.111388 
L 99.89231 263.892998 
L 100.162327 265.459997 
L 100.301853 265.135986 
L 100.446499 263.490876 
L 100.579453 264.887539 
L 100.746993 264.527594 
L 100.884496 264.578433 
L 101.401068 263.431647 
L 101.434806 266.412178 
L 101.573801 264.581908 
L 101.814286 266.524731 
L 101.882677 268.941112 
L 102.020177 269.118182 
L 102.157008 268.432453 
L 102.418564 269.079279 
L 102.571624 272.517323 
L 102.705383 271.015208 
L 102.739481 271.906263 
L 102.961434 272.648165 
L 103.024109 274.21765 
L 103.430714 270.839111 
L 103.71164 271.648498 
L 103.840763 271.027339 
L 104.054937 268.385625 
L 104.220975 268.31847 
L 104.56755 267.174619 
L 104.704046 267.950006 
L 104.843246 268.017312 
L 105.014534 267.554489 
L 105.19088 267.445169 
L 105.268067 266.878008 
L 105.461671 267.501148 
L 105.565136 268.44865 
L 105.82398 267.930965 
L 105.910751 266.157101 
L 106.114015 265.360289 
L 106.147944 266.1168 
L 106.371547 266.370686 
L 106.446306 266.909171 
L 107.146924 262.021779 
L 107.558637 265.120263 
L 107.696805 265.509831 
L 107.979912 269.908976 
L 108.149694 269.554963 
L 108.287292 269.972994 
L 108.397931 270.710763 
L 108.561288 270.126129 
L 108.836508 272.072045 
L 108.973315 270.520173 
L 109.291042 270.011858 
L 109.395699 269.204744 
L 109.422573 272.605436 
L 109.560537 269.75271 
L 109.665198 270.558669 
L 109.872821 269.969117 
L 109.973788 271.235083 
L 110.148073 270.432918 
L 110.283732 268.949574 
L 110.393086 269.72484 
L 110.562182 272.204848 
L 110.591439 270.464356 
L 110.833034 268.256614 
L 110.972149 270.160854 
L 111.110787 269.77791 
L 111.248634 271.684399 
L 111.59309 269.24589 
L 111.693192 269.847266 
L 111.837211 269.701271 
L 111.93559 268.613413 
L 112.247299 271.22557 
L 112.418266 269.480943 
L 112.935167 273.099688 
L 113.39366 273.177252 
L 113.667468 271.66105 
L 113.804642 272.721791 
L 114.074502 273.295795 
L 114.284565 271.851945 
L 114.557155 271.11347 
L 114.658251 270.104868 
L 114.934595 269.998247 
L 115.080308 270.380343 
L 115.209801 271.208069 
L 115.381776 270.207002 
L 115.654889 267.654312 
L 115.804818 268.869283 
L 116.080483 272.990242 
L 116.221546 272.707249 
L 116.490581 273.329972 
L 116.759631 269.461263 
L 116.896768 269.694539 
L 116.929016 272.081932 
L 117.102216 271.86771 
L 117.205821 270.886389 
L 117.51384 272.201909 
L 117.927663 267.181935 
L 118.132689 267.184597 
L 118.483357 265.58483 
L 118.632248 265.34368 
L 118.874862 264.567161 
L 118.960174 264.923902 
L 119.346024 269.533318 
L 119.612002 268.96758 
L 119.750309 269.911671 
L 119.922022 269.627304 
L 120.232829 270.355371 
L 120.509055 268.424763 
L 120.747891 269.602382 
L 120.9534 269.726361 
L 121.058072 270.492357 
L 121.193831 269.146726 
L 121.400193 269.789293 
L 121.950823 267.606145 
L 122.054813 266.670065 
L 122.210616 267.943084 
L 122.40364 268.414245 
L 122.537653 268.076055 
L 122.916409 265.303788 
L 123.025135 263.501813 
L 123.50238 266.479477 
L 123.803331 264.83068 
L 124.034723 268.624481 
L 124.053273 268.278326 
L 124.217102 267.233915 
L 124.344919 269.071714 
L 124.365256 267.479367 
L 124.441242 270.695029 
L 124.674923 271.583673 
L 124.75287 270.526754 
L 125.155034 272.32871 
L 125.43057 272.758772 
L 125.537502 271.950227 
L 125.717956 273.112623 
L 125.882943 272.610735 
L 126.021372 271.699962 
L 126.1606 272.721892 
L 126.29497 271.411196 
L 126.571197 273.993992 
L 126.712514 272.146892 
L 126.882349 272.087862 
L 127.029444 270.543691 
L 127.15485 271.414504 
L 127.429604 270.456468 
L 127.579845 268.941901 
L 127.705343 269.653714 
L 127.862967 268.336908 
L 128.013835 268.550644 
L 128.289832 268.513512 
L 128.423222 270.447126 
L 128.569887 270.18568 
L 128.703008 269.067205 
L 129.008148 271.493849 
L 129.144333 272.148574 
L 129.283554 271.291917 
L 129.419486 271.550266 
L 129.556024 272.606763 
L 129.697889 271.877314 
L 130.003709 268.399758 
L 130.279423 271.398801 
L 130.55362 270.591533 
L 130.691688 270.971806 
L 131.00048 269.887637 
L 131.276797 271.38437 
L 131.415282 272.731496 
L 131.550935 272.252202 
L 131.690536 270.958285 
L 131.830736 270.869203 
L 131.96265 271.944935 
L 132.272908 272.048709 
L 132.403182 271.663921 
L 132.685016 272.258945 
L 132.83932 273.087934 
L 133.099943 271.239324 
L 133.238862 271.569819 
L 133.444331 269.166726 
L 133.687486 272.155235 
L 133.990013 270.169658 
L 134.095693 269.909422 
L 134.246692 268.06828 
L 134.404542 270.343323 
L 134.540952 270.284325 
L 134.819853 270.564469 
L 135.092519 267.851807 
L 135.403982 269.325098 
L 135.515276 269.305387 
L 135.680382 269.857892 
L 135.814644 268.096237 
L 135.954642 269.075192 
L 136.113552 268.393582 
L 136.124816 271.415702 
L 136.229431 270.504005 
L 136.51359 272.506171 
L 136.539457 272.479001 
L 136.685331 271.127449 
L 136.952929 270.807818 
L 137.056128 272.141746 
L 137.091546 271.361416 
L 137.231281 271.294324 
L 137.553336 269.032138 
L 137.712304 269.979413 
L 137.953068 269.263261 
L 138.159531 271.656755 
L 138.227154 271.454465 
L 138.36407 269.149376 
L 138.502464 269.671113 
L 138.641222 270.740559 
L 138.853695 270.3434 
L 138.955809 270.853188 
L 139.239568 268.579445 
L 139.266607 266.253136 
L 139.368478 267.220733 
L 139.609417 266.847485 
L 139.715274 268.464748 
L 139.781158 271.473176 
L 140.091201 271.413468 
L 140.263158 270.572237 
L 140.606367 270.521913 
L 140.678334 270.147459 
L 140.815304 270.98082 
L 140.850451 271.920322 
L 140.955243 271.827301 
L 141.605214 264.679353 
L 141.640461 265.774375 
L 141.77928 266.085842 
L 141.95206 265.600804 
L 142.05577 268.318526 
L 142.086902 265.913533 
L 142.225891 266.230073 
L 142.535851 265.360146 
L 142.569296 267.113043 
L 142.774166 266.948664 
L 142.910807 271.396023 
L 143.04976 270.362074 
L 143.186947 271.340906 
L 143.394851 271.372778 
L 143.532408 269.729116 
L 143.56482 271.439045 
L 143.706004 270.084763 
L 143.875333 271.142806 
L 143.977751 269.927636 
L 144.150212 270.958243 
L 144.324466 268.82829 
L 144.528816 269.784124 
L 144.667824 268.882377 
L 144.769649 271.197941 
L 144.974817 271.038222 
L 145.043036 271.349411 
L 145.249654 271.12004 
L 145.483357 269.343789 
L 145.592589 270.003896 
L 145.661944 269.912992 
L 145.901711 269.411727 
L 145.987423 269.734979 
L 146.107418 267.307323 
L 146.245378 266.596305 
L 146.385436 268.040166 
L 146.664261 266.075902 
L 146.761917 268.224796 
L 146.899427 267.420394 
L 147.040968 268.049454 
L 147.291511 267.440566 
L 147.329376 266.61313 
L 147.457806 268.094246 
L 147.762404 266.015014 
L 147.900169 267.650081 
L 148.176244 266.080458 
L 148.517465 267.023875 
L 148.593835 268.108417 
L 149.03216 269.413921 
L 149.210672 270.985533 
L 149.345799 269.370566 
L 149.618597 271.546369 
L 149.723183 271.195967 
L 150.001083 269.788475 
L 150.067016 268.676449 
L 150.213765 269.218177 
L 150.304593 268.208944 
L 150.442122 269.935872 
L 150.903417 268.343342 
L 151.163555 265.991662 
L 151.51672 267.529889 
L 151.647679 267.698864 
L 151.753914 267.241063 
L 151.89015 267.604739 
L 152.031034 266.63329 
L 152.166347 267.567618 
L 152.372083 267.828967 
L 152.544006 269.072999 
L 152.579034 268.632811 
L 153.197042 265.277492 
L 153.403645 263.493899 
L 153.476557 265.096574 
L 153.64401 264.639317 
L 153.749739 263.858467 
L 154.159209 266.417386 
L 154.296817 266.715388 
L 154.445325 265.690889 
L 154.570819 266.412799 
L 154.847178 265.696455 
L 155.154774 267.772427 
L 155.318014 267.634481 
L 155.432432 267.08358 
L 155.567531 267.150983 
L 155.706932 269.293939 
L 155.946033 270.852356 
L 156.0827 270.834101 
L 156.289128 270.306118 
L 156.461904 270.471177 
L 156.70408 271.605409 
L 156.875435 271.90391 
L 157.017037 272.903391 
L 157.185186 271.711153 
L 157.35789 271.637201 
L 157.425578 272.91683 
L 157.705965 271.875034 
L 157.856668 272.667516 
L 158.218091 270.637647 
L 158.696924 273.534414 
L 158.972546 272.576083 
L 159.255103 271.100658 
L 159.409715 268.652982 
L 159.557665 271.129007 
L 160.122048 264.714915 
L 160.387569 264.669198 
L 160.520888 265.018992 
L 160.663471 268.460377 
L 160.831211 269.713398 
L 160.967594 267.438877 
L 161.123404 267.343604 
L 161.657241 271.395993 
L 161.826917 271.452424 
L 162.103362 269.407057 
L 162.240364 270.595115 
L 162.530471 270.144716 
L 162.960664 268.666511 
L 163.10009 267.508438 
L 163.374114 269.731113 
L 163.6491 267.997921 
L 163.849016 268.099282 
L 164.094356 268.893449 
L 164.368887 271.34463 
L 164.65534 269.219621 
L 164.78625 267.411675 
L 165.094176 268.768453 
L 165.228073 268.329182 
L 165.376097 268.841699 
L 165.783599 265.629193 
L 166.059002 268.663163 
L 166.441261 269.2881 
L 166.646117 271.106425 
L 166.77773 271.207257 
L 166.918515 268.102253 
L 166.951422 269.273113 
L 167.056844 270.228363 
L 167.193422 273.873296 
L 167.226062 269.974901 
L 167.368082 269.511685 
L 167.505787 271.041122 
L 167.678915 270.684632 
L 167.777543 268.990073 
L 167.914515 268.775876 
L 168.052342 268.797999 
L 168.202111 267.803643 
L 168.361055 269.203159 
L 168.509297 268.12051 
L 168.642629 268.775763 
L 168.850572 269.208286 
L 169.075554 265.973968 
L 169.229093 267.237506 
L 169.469033 264.845488 
L 169.606597 265.019545 
L 169.879513 263.669629 
L 169.947705 265.197025 
L 170.071846 265.104709 
L 170.189261 265.662485 
L 170.600313 269.400962 
L 170.669253 268.302676 
L 170.846629 268.397648 
L 171.050059 271.644879 
L 171.358676 272.097299 
L 171.50964 270.639051 
L 171.597702 268.311127 
L 171.771277 267.689773 
L 171.907981 267.851676 
L 172.0451 267.653062 
L 172.21874 269.562297 
L 172.421758 270.252491 
L 172.499086 268.405983 
L 172.602918 269.773068 
L 172.7332 269.375228 
L 173.043773 272.514 
L 173.319091 270.841248 
L 173.492875 271.642849 
L 173.732484 270.688257 
L 173.766404 269.31223 
L 174.006517 269.007604 
L 174.147115 267.777385 
L 174.184642 268.033072 
L 174.453025 266.783181 
L 174.607062 267.292341 
L 174.869843 265.757777 
L 175.100142 265.172364 
L 175.183596 265.317065 
L 175.31478 266.661493 
L 175.724834 265.327808 
L 175.931118 265.429641 
L 176.068413 268.249226 
L 176.379521 269.613574 
L 176.5864 268.139412 
L 176.860648 272.367186 
L 177.034741 271.739156 
L 177.140068 272.136084 
L 177.306332 271.437712 
L 177.479321 268.314639 
L 177.691554 267.595935 
L 177.753578 264.542092 
L 177.78772 267.016022 
L 177.960243 267.850846 
L 178.005985 269.968706 
L 178.303598 266.132456 
L 178.447264 266.674706 
L 178.99202 273.226822 
L 179.128289 274.716134 
L 179.298524 274.141908 
L 179.435262 272.506396 
L 179.607392 272.91406 
L 179.744859 272.593517 
L 179.917296 274.258993 
L 180.056954 274.327669 
L 180.160938 273.413854 
L 180.438762 270.252261 
L 180.574038 269.469001 
L 180.714564 270.432837 
L 180.917 270.718512 
L 180.984926 269.851897 
L 181.191816 269.966496 
L 181.603436 266.245882 
L 181.742997 267.906698 
L 181.879651 267.455398 
L 182.051245 268.241791 
L 182.123618 267.867475 
L 182.428995 270.305822 
L 182.84396 269.671867 
L 183.000178 271.104443 
L 183.124952 269.860885 
L 183.202811 270.076573 
L 183.310993 269.792126 
L 183.59563 272.760395 
L 183.699723 270.931336 
L 183.83565 270.739979 
L 184.039868 274.333803 
L 184.14354 273.571765 
L 184.419743 272.483547 
L 184.521925 273.627457 
L 184.597984 273.61053 
L 184.851331 270.020372 
L 185.003599 268.01296 
L 185.142737 268.089886 
L 185.313835 268.633001 
L 185.632345 266.589625 
L 185.698569 267.420211 
L 185.831335 265.402884 
L 186.140168 267.729325 
L 186.691729 266.169372 
L 187.011917 268.192454 
L 187.38101 266.838559 
L 187.487791 265.506238 
L 188.118273 266.956556 
L 188.186087 266.437087 
L 188.244088 264.701938 
L 188.385122 264.561897 
L 188.517394 263.329788 
L 188.656327 263.383604 
L 188.904389 263.303218 
L 188.968944 262.907757 
L 189.106246 264.014647 
L 189.242209 264.003629 
L 189.379723 264.424982 
L 189.552669 264.091036 
L 189.689212 264.841648 
L 189.79207 263.726077 
L 190.41449 266.601144 
L 190.574223 266.193935 
L 190.661428 265.491292 
L 190.791065 265.545766 
L 191.103908 264.677069 
L 191.238605 265.621305 
L 191.551251 270.120873 
L 191.727166 270.097996 
L 191.794822 269.199608 
L 191.931837 269.78669 
L 192.078918 271.16516 
L 192.104891 272.640612 
L 192.240391 270.174071 
L 192.348416 271.512063 
L 192.58513 271.311443 
L 192.803044 270.393579 
L 192.929857 267.873069 
L 193.067115 267.967013 
L 193.203733 270.399127 
L 193.349075 268.932461 
L 193.515967 268.383578 
L 193.651807 269.746487 
L 193.789862 268.777603 
L 194.079527 269.868366 
L 194.338985 268.466671 
L 194.407112 268.79473 
L 194.510318 269.962031 
L 194.68492 267.23882 
L 194.928629 268.892633 
L 195.340975 270.086278 
L 195.554948 270.862006 
L 195.649996 272.141009 
L 195.787704 272.23533 
L 196.027409 272.169942 
L 196.097501 274.755079 
L 196.234968 274.472639 
L 196.336165 272.260044 
L 196.473576 272.199712 
L 196.611192 271.495551 
L 196.748841 272.046268 
L 196.920686 270.744798 
L 197.271437 272.79765 
L 197.510574 269.498155 
L 197.605304 269.331171 
L 197.744739 270.53116 
L 197.88696 270.233132 
L 198.053466 270.361355 
L 198.216755 269.156897 
L 198.328032 269.494136 
L 198.636726 266.153345 
L 198.775167 266.631555 
L 198.948223 266.339907 
L 199.117598 267.411987 
L 199.197677 269.627943 
L 199.392611 269.583757 
L 199.529433 269.800068 
L 199.770757 272.7693 
L 199.950564 273.012135 
L 200.045166 276.311172 
L 200.241435 276.638961 
L 200.426572 276.583338 
L 200.458424 275.849956 
L 200.698934 273.390211 
L 200.768673 274.016549 
L 200.906178 273.440915 
L 201.078201 273.230503 
L 201.215006 273.290651 
L 201.351772 272.457632 
L 201.45839 269.226791 
L 201.626893 269.291772 
L 201.902723 270.266736 
L 202.146632 270.603816 
L 202.348468 268.665783 
L 202.590103 266.776164 
L 202.72907 268.186906 
L 202.866356 268.201061 
L 203.590358 265.370505 
L 203.889979 267.575552 
L 204.137432 266.392049 
L 204.611669 270.378575 
L 204.724304 269.605453 
L 204.854102 269.981978 
L 204.994255 271.528133 
L 205.022324 271.232414 
L 205.227562 271.144899 
L 205.441808 268.7764 
L 205.467965 270.140508 
L 205.748915 266.353489 
L 205.919681 266.405849 
L 206.020378 265.941744 
L 206.156832 266.603785 
L 206.466051 266.217934 
L 206.580846 266.709543 
L 206.709605 266.120808 
L 206.882121 268.700055 
L 207.130615 269.4568 
L 207.351226 268.961088 
L 207.609773 267.042327 
L 207.749272 268.861395 
L 207.983946 266.054969 
L 208.123092 267.702964 
L 208.294004 267.041629 
L 208.408582 268.607479 
L 208.639594 269.819029 
L 208.774995 269.021279 
L 208.985856 269.024724 
L 209.049913 268.750152 
L 209.188041 269.652582 
L 209.277238 272.918709 
L 209.497774 273.400685 
L 209.539674 274.758997 
L 209.980917 269.023379 
L 210.256144 272.401812 
L 210.426841 272.597974 
L 210.736627 270.052076 
L 210.841377 270.140724 
L 211.014962 268.957703 
L 211.28766 271.769058 
L 211.396322 272.293988 
L 211.57264 269.686572 
L 211.596212 271.172308 
L 211.907752 268.53677 
L 211.940512 269.531672 
L 211.977036 269.150137 
L 212.113966 269.406559 
L 212.252117 269.086373 
L 212.389455 267.686531 
L 212.629804 267.990285 
L 212.738303 266.513334 
L 212.839216 266.755653 
L 213.183733 269.586689 
L 213.526116 267.614814 
L 213.730649 267.917153 
L 213.835406 270.34696 
L 213.972079 269.656817 
L 214.107382 271.713956 
L 214.520962 269.552206 
L 214.657815 270.189187 
L 214.829697 269.424643 
L 215.104391 270.846782 
L 215.382171 267.138112 
L 215.798055 266.979293 
L 215.933059 267.675621 
L 216.101682 267.349045 
L 216.238934 267.521601 
L 216.379789 267.333818 
L 216.513562 267.537942 
L 216.823571 269.020844 
L 216.951327 270.518724 
L 217.133014 271.397268 
L 217.280277 273.524774 
L 217.655487 271.244823 
L 217.694822 271.746644 
L 217.786654 270.477684 
L 218.098648 270.044612 
L 218.224716 269.209889 
L 218.350615 267.313895 
L 218.508609 267.492337 
L 218.646412 266.178677 
L 218.880786 266.555537 
L 218.916745 267.733693 
L 219.074813 265.179225 
L 219.259475 265.952932 
L 219.363158 267.375666 
L 219.500762 267.587068 
L 219.640621 266.020457 
L 219.809182 267.448243 
L 220.052375 263.862265 
L 220.393732 263.727243 
L 220.503251 267.006647 
L 220.68882 267.394787 
L 220.827803 266.095525 
L 221.071125 267.814506 
L 221.238095 265.732103 
L 221.649492 269.082127 
L 221.89385 267.777102 
L 222.098171 269.892572 
L 222.202449 269.888137 
L 222.235638 268.012974 
L 222.482279 269.560247 
L 222.61521 270.956392 
L 222.760514 270.980132 
L 222.959362 269.750898 
L 223.174938 272.399193 
L 223.477495 268.239348 
L 223.718126 267.043725 
L 223.821628 268.030408 
L 223.961805 267.954691 
L 224.269423 269.118387 
L 224.337432 270.849338 
L 224.612025 266.889525 
L 224.887762 268.165668 
L 225.163783 269.199484 
L 225.47334 268.364418 
L 225.694057 268.588684 
L 225.885383 268.237829 
L 226.057036 270.143563 
L 226.098807 273.892764 
L 226.194192 273.237263 
L 226.334388 272.602592 
L 226.470072 273.570016 
L 226.647256 271.830856 
L 226.952709 271.938161 
L 227.500075 265.184134 
L 227.643126 265.477819 
L 227.742155 266.274244 
L 227.915965 265.906865 
L 228.15422 268.744883 
L 228.292223 269.063398 
L 228.431851 268.782187 
L 228.607368 269.213607 
L 228.764652 268.796972 
L 229.014188 271.029374 
L 229.220339 271.291928 
L 229.2908 269.517912 
L 229.495916 269.520581 
L 229.665979 269.187499 
L 229.735385 269.886747 
L 230.010902 269.233505 
L 230.249676 270.239419 
L 230.294264 271.825174 
L 230.561993 271.058721 
L 230.870454 273.17979 
L 231.009279 272.523886 
L 231.145628 270.941483 
L 231.422524 272.010632 
L 231.612413 271.721617 
L 231.716074 269.684852 
L 232.029144 273.530681 
L 232.194726 272.590701 
L 232.405088 270.096109 
L 232.471415 270.144819 
L 232.847881 270.766228 
L 232.984585 271.873437 
L 233.125594 271.371401 
L 233.431417 266.323354 
L 233.811256 268.194525 
L 233.845905 268.202612 
L 233.983683 268.658859 
L 234.120833 268.355363 
L 234.429394 266.633572 
L 234.843642 270.304204 
L 234.987882 269.966114 
L 235.185732 269.828253 
L 235.289667 271.298226 
L 235.565605 270.73676 
L 235.738723 272.938369 
L 235.838635 270.88241 
L 236.114507 269.002824 
L 236.253317 269.055342 
L 236.422674 268.026412 
L 236.525031 268.71392 
L 236.736848 267.923669 
L 236.869356 266.970402 
L 236.97195 268.137117 
L 237.177659 266.190467 
L 237.558399 270.089371 
L 237.802939 269.611604 
L 237.969689 269.428455 
L 238.11131 268.895079 
L 238.244462 269.681863 
L 238.967456 266.556459 
L 239.102984 266.321653 
L 239.380754 264.902124 
L 239.551142 264.990251 
L 239.662815 264.623408 
L 239.825005 263.697162 
L 239.961192 265.474408 
L 240.208891 264.95183 
L 240.407947 263.856881 
L 240.719721 267.3701 
L 240.817964 269.58297 
L 240.955514 268.715338 
L 241.094325 268.797665 
L 241.23043 269.696346 
L 241.37529 269.25959 
L 241.401253 272.350315 
L 241.53915 269.948549 
L 241.677922 269.689901 
L 241.814125 270.11947 
L 241.985954 269.964041 
L 242.331342 267.042159 
L 242.365884 268.332024 
L 242.398803 267.848787 
L 242.811189 266.467959 
L 243.085769 266.670038 
L 243.194248 268.45281 
L 243.395243 265.938882 
L 243.644181 268.858512 
L 243.955795 270.863353 
L 244.094574 270.445797 
L 244.199771 271.055572 
L 244.506934 268.621022 
L 244.678857 268.927806 
L 245.364885 264.374913 
L 245.606828 264.698623 
L 245.680075 264.223637 
L 245.881152 264.861936 
L 245.920152 264.846143 
L 246.088408 264.623388 
L 246.223802 265.509485 
L 246.361497 264.720786 
L 246.503085 265.951978 
L 246.641729 265.552655 
L 247.220753 269.832675 
L 247.375956 269.473662 
L 247.47619 269.839195 
L 247.609459 271.487616 
L 247.77743 271.4898 
L 248.26047 269.923416 
L 248.533692 270.591115 
L 248.604672 271.724265 
L 248.7436 270.215924 
L 248.885222 269.97279 
L 249.051128 269.921665 
L 249.324845 270.684271 
L 249.7371 269.276453 
L 249.881188 266.317321 
L 250.046652 265.845359 
L 250.323241 267.35438 
L 250.460773 265.512927 
L 250.60139 266.040774 
L 250.746539 265.825323 
L 250.873573 266.15338 
L 251.015428 267.786623 
L 251.181583 266.013825 
L 251.318071 267.916238 
L 251.456869 265.570868 
L 251.595587 265.728363 
L 251.881227 267.749604 
L 252.010933 267.437783 
L 252.043492 268.856707 
L 252.154365 267.640278 
L 252.319266 267.804386 
L 252.493984 267.512779 
L 252.597008 268.611929 
L 252.73324 268.497849 
L 252.885695 271.005806 
L 253.008911 270.969047 
L 253.163436 270.142441 
L 253.310052 270.180855 
L 253.455522 271.102687 
L 253.873388 268.588377 
L 254.14223 271.544908 
L 254.281217 269.066478 
L 254.422327 269.749872 
L 254.866667 268.328045 
L 255.136682 270.352615 
L 255.416307 269.467175 
L 255.558894 268.163091 
L 255.859851 269.940952 
L 256.001437 269.211736 
L 256.167145 269.198805 
L 256.30645 268.99545 
L 256.512062 269.489612 
L 256.584336 270.656073 
L 256.764143 271.072857 
L 256.977329 270.055827 
L 257.280219 268.426322 
L 257.41274 270.374898 
L 257.605338 269.791109 
L 257.874558 268.065597 
L 258.107043 268.821869 
L 259.100132 263.424372 
L 259.133668 262.626991 
L 259.271972 262.263013 
L 259.44305 260.334498 
L 259.581484 260.912393 
L 259.820662 260.782645 
L 259.99239 264.636381 
L 260.819916 272.020826 
L 260.989236 271.360226 
L 261.093304 273.017387 
L 261.265077 271.537169 
L 261.434819 271.273925 
L 261.539781 270.594953 
L 261.713148 270.381727 
L 261.847858 271.094902 
L 261.984894 270.014097 
L 262.122201 269.875952 
L 262.404591 271.840321 
L 262.705628 271.966206 
L 262.842812 273.128749 
L 262.980906 272.940227 
L 263.220704 273.501306 
L 263.360463 273.154995 
L 263.668368 270.832259 
L 263.948802 271.379752 
L 263.978268 269.727942 
L 264.115701 270.496711 
L 264.392253 270.747487 
L 264.52609 269.567602 
L 264.665576 269.694438 
L 264.940036 270.933111 
L 265.173439 271.128689 
L 265.218155 269.39323 
L 265.42018 269.011942 
L 265.674873 267.383032 
L 265.695063 265.995154 
L 265.833135 266.904946 
L 266.141891 267.058857 
L 266.348552 266.728004 
L 266.383382 266.057479 
L 266.536487 266.116875 
L 266.704108 267.517142 
L 266.795771 269.341269 
L 266.968798 268.788346 
L 267.243821 269.529801 
L 267.700347 266.39473 
L 267.974517 268.389339 
L 268.182483 268.07907 
L 268.21521 267.539186 
L 268.501044 271.194482 
L 268.671908 269.60191 
L 268.844522 269.4966 
L 269.083956 272.116752 
L 269.224295 271.914796 
L 269.671452 269.627491 
L 269.805324 267.824695 
L 270.045148 267.183651 
L 270.2878 270.459506 
L 270.493303 268.964488 
L 270.630545 270.17526 
L 270.801562 269.547944 
L 270.975456 269.780346 
L 271.084585 269.605839 
L 271.216159 268.729527 
L 271.353617 269.315444 
L 271.533404 267.773238 
L 271.93497 269.672399 
L 272.069047 267.111385 
L 272.20126 267.27895 
L 272.750355 269.928638 
L 272.818624 269.485641 
L 272.928828 270.827112 
L 273.027662 269.196706 
L 273.198036 269.58045 
L 273.403197 269.698776 
L 273.471045 271.332033 
L 273.64392 271.621036 
L 273.780871 270.261716 
L 274.020412 269.040686 
L 274.330888 265.684824 
L 274.466888 265.389464 
L 274.608919 263.807518 
L 274.777997 265.336925 
L 275.052163 265.724051 
L 275.189019 267.152462 
L 275.327026 266.982147 
L 275.469658 268.398831 
L 275.672053 267.614166 
L 276.049268 270.906655 
L 276.191054 269.409719 
L 276.325083 269.853626 
L 276.600051 267.075517 
L 276.767202 268.78137 
L 276.986004 267.64234 
L 277.152125 270.134105 
L 277.191644 269.487437 
L 277.423499 270.512302 
L 277.524651 267.448827 
L 277.873024 270.426344 
L 278.146259 269.092901 
L 278.317566 269.909422 
L 278.45637 267.503458 
L 278.598056 267.598681 
L 278.807932 266.890227 
L 278.869414 269.429746 
L 279.042248 269.976704 
L 279.14449 268.740744 
L 279.422806 268.434444 
L 279.453019 270.353517 
L 279.771468 269.863913 
L 279.972272 270.36628 
L 280.113203 270.051846 
L 280.311027 265.76382 
L 280.454638 264.338022 
L 280.622801 265.240573 
L 281.107446 264.689226 
L 281.171481 266.207083 
L 281.275215 265.613915 
L 281.44681 266.083769 
L 281.584474 266.930989 
L 281.859229 269.394673 
L 281.996848 269.700302 
L 282.137815 269.041781 
L 282.42197 270.311591 
L 282.579915 270.290512 
L 282.71866 270.75037 
L 282.85637 270.575434 
L 282.99331 270.779551 
L 283.441135 268.085068 
L 283.549414 270.203736 
L 283.716938 268.185375 
L 283.856661 267.894316 
L 283.992331 267.032812 
L 284.270071 267.209532 
L 284.404285 266.179304 
L 284.475799 267.915971 
L 284.852717 271.126958 
L 284.988666 270.128775 
L 285.262675 272.252899 
L 285.407491 272.117759 
L 285.546696 272.192623 
L 285.834393 273.097459 
L 285.985352 272.042507 
L 286.138569 273.382881 
L 286.536817 270.056188 
L 286.676224 270.111663 
L 286.91712 269.821146 
L 286.989241 271.026757 
L 287.156642 271.198574 
L 287.263651 270.422673 
L 287.432271 270.359405 
L 287.675245 271.252388 
L 287.981875 271.581968 
L 288.120847 269.800552 
L 288.256343 269.477784 
L 288.394568 267.955647 
L 288.532858 268.096676 
L 288.808851 270.575076 
L 288.852049 269.33626 
L 289.035521 270.330088 
L 289.171666 270.3002 
L 289.389649 271.748294 
L 289.535323 271.738182 
L 289.665259 272.153423 
L 289.80241 273.207271 
L 290.041801 274.039194 
L 290.110621 271.918634 
L 290.281259 272.422171 
L 290.422157 270.929398 
L 291.075006 275.268695 
L 291.554913 271.584246 
L 291.969093 268.890973 
L 292.137342 267.057618 
L 292.34321 266.313276 
L 292.377417 264.833574 
L 292.54941 263.022952 
L 292.657113 263.800243 
L 292.804788 263.479548 
L 293.072657 263.855853 
L 293.207932 262.637885 
L 293.408176 263.120804 
L 293.550194 264.860514 
L 293.788585 265.36011 
L 294.09061 266.048629 
L 294.102135 265.689728 
L 294.236902 266.531759 
L 294.374224 266.610997 
L 294.512666 268.940482 
L 294.698356 269.049965 
L 294.827613 269.482007 
L 294.993773 266.914211 
L 295.234845 267.955303 
L 295.409849 267.2838 
L 295.650799 269.359894 
L 295.820045 269.569145 
L 296.201897 266.317452 
L 296.371373 267.299725 
L 296.510786 267.414322 
L 296.920756 266.118607 
L 297.197798 264.075784 
L 297.504461 266.309259 
L 297.712188 266.89062 
L 297.84871 266.114009 
L 297.954924 264.486543 
L 298.304926 265.93151 
L 298.501814 263.998539 
L 298.779619 262.948321 
L 298.91469 264.094943 
L 299.051677 263.381085 
L 299.463818 266.944738 
L 299.773732 265.259321 
L 300.081922 267.408784 
L 300.189989 267.540104 
L 300.218607 269.042745 
L 300.425343 267.284748 
L 300.531192 268.326495 
L 300.632668 268.053038 
L 300.769021 269.436418 
L 300.916651 268.694245 
L 301.322342 272.259857 
L 301.56072 273.990224 
L 301.635341 272.616918 
L 301.767068 272.670243 
L 301.902958 272.053454 
L 302.07485 273.839575 
L 302.179569 271.021293 
L 302.452267 271.129489 
L 302.604324 271.256412 
L 302.733137 271.918013 
L 302.885403 271.637345 
L 303.161926 271.856122 
L 303.187024 270.802986 
L 303.322904 272.3111 
L 303.466626 271.369281 
L 303.741849 275.154996 
L 303.967022 273.953136 
L 304.050636 274.24565 
L 304.290153 273.864109 
L 304.327147 272.903833 
L 304.502418 275.238076 
L 304.777639 274.199829 
L 304.9812 272.859292 
L 305.018646 273.894787 
L 305.19525 273.026257 
L 305.299053 273.979194 
L 305.433415 272.9918 
L 305.567458 273.099978 
L 305.737469 272.620177 
L 305.861062 271.771645 
L 306.063844 273.727512 
L 306.317684 272.290733 
L 306.614552 266.297358 
L 306.754399 265.23855 
L 306.927669 268.332192 
L 307.005757 267.638796 
L 307.171158 267.60372 
L 307.301697 267.232155 
L 307.438044 266.213227 
L 307.575343 266.040779 
L 307.721315 266.726227 
L 307.993963 270.974606 
L 308.159229 272.125995 
L 308.298215 269.490029 
L 308.674461 272.958177 
L 308.77856 274.855038 
L 308.886859 274.386409 
L 309.120741 275.228856 
L 309.235228 273.966422 
L 309.281761 274.357113 
L 309.433633 274.456836 
L 309.56817 274.947954 
L 309.705084 276.546893 
L 310.289707 269.151616 
L 310.426176 269.362488 
L 310.563612 272.483824 
L 310.707576 270.844846 
L 310.838082 271.871263 
L 310.985132 270.815199 
L 311.119014 271.042476 
L 311.399987 272.314982 
L 311.537275 270.987402 
L 311.708161 270.696482 
L 311.841344 269.789753 
L 311.979856 266.080503 
L 312.043972 266.781372 
L 312.116192 266.604974 
L 312.2558 265.546062 
L 312.394518 266.817621 
L 312.700655 265.822694 
L 312.838139 265.649783 
L 312.977287 266.429305 
L 313.115056 265.497341 
L 313.252187 265.870861 
L 313.446206 266.773348 
L 313.535857 268.447486 
L 313.679632 268.809659 
L 313.975653 265.523528 
L 314.247217 264.832958 
L 314.522233 267.929473 
L 314.556394 271.170552 
L 314.6674 268.811242 
L 314.83268 268.908131 
L 315.016927 267.36437 
L 315.243771 268.868442 
L 315.381205 270.165654 
L 315.526401 269.723677 
L 315.799171 271.840651 
L 315.968737 271.847336 
L 316.102971 270.338341 
L 316.377102 272.599104 
L 316.652922 271.032458 
L 316.85804 268.831091 
L 316.96112 270.245615 
L 317.072889 270.096831 
L 317.203746 268.494604 
L 317.410117 269.212105 
L 317.512678 270.598519 
L 317.681135 269.218423 
L 317.785736 267.320761 
L 317.925262 266.891331 
L 318.079207 267.799455 
L 318.231676 267.679885 
L 318.392343 267.941791 
L 318.517864 266.807906 
L 318.678187 267.948981 
L 318.85041 265.794499 
L 318.953294 266.275558 
L 319.056389 266.17353 
L 319.368566 269.53476 
L 319.712009 268.772373 
L 319.814766 269.845584 
L 320.063893 268.937987 
L 320.228064 268.714438 
L 320.472958 269.049285 
L 320.640841 267.584079 
L 320.812492 267.655827 
L 320.917013 267.821796 
L 321.052689 269.358073 
L 321.190689 268.821984 
L 321.370335 270.530154 
L 321.640614 270.792724 
L 321.900705 272.129913 
L 321.953253 271.780634 
L 322.0624 272.613679 
L 322.224999 270.663993 
L 322.378768 271.765321 
L 322.498102 271.00801 
L 322.668699 271.492081 
L 322.835242 271.435828 
L 322.938512 271.55783 
L 323.049679 272.114688 
L 323.247238 272.00128 
L 323.492973 270.597185 
L 323.763463 273.126665 
L 323.900987 273.708646 
L 324.31444 270.706384 
L 324.520017 272.318734 
L 324.62195 270.497493 
L 324.863673 271.967961 
L 325.003164 271.105794 
L 325.076494 271.14019 
L 325.208293 268.770488 
L 325.515923 268.738302 
L 325.638136 269.136302 
L 326.203772 266.347903 
L 326.435957 267.000965 
L 326.486961 266.774588 
L 326.902767 268.324385 
L 327.134718 267.11776 
L 327.21428 268.068321 
L 327.311074 267.24538 
L 327.340504 268.323239 
L 327.443619 267.866353 
L 327.720369 268.703627 
L 327.927248 270.483835 
L 328.066169 270.903812 
L 328.313441 269.910454 
L 328.457928 272.629246 
L 328.729239 272.405794 
L 328.88315 271.022249 
L 328.966472 271.730561 
L 329.178677 268.831695 
L 329.312912 268.171573 
L 329.447567 268.802371 
L 329.5852 270.819113 
L 329.996087 268.3897 
L 330.134318 268.228663 
L 330.238282 272.151862 
L 330.30545 271.989718 
L 330.549558 272.273153 
L 330.614517 273.984254 
L 330.75358 274.607684 
L 330.863651 275.691831 
L 331.026803 272.069243 
L 331.164413 272.484534 
L 331.302772 271.444646 
L 331.440095 271.696659 
L 331.578863 269.292326 
L 331.853242 268.714401 
L 331.955086 270.085164 
L 332.162462 268.728474 
L 332.384194 266.513633 
L 332.54781 267.641399 
L 332.661329 266.266863 
L 332.71915 267.84841 
L 332.891777 266.508219 
L 333.220058 267.920596 
L 333.269143 267.574901 
L 333.442228 267.677611 
L 333.612561 268.261882 
L 333.7193 270.16422 
L 333.853764 269.623469 
L 334.039367 271.743416 
L 334.20649 271.691218 
L 334.335818 273.490443 
L 334.578029 272.212069 
L 334.71481 271.573425 
L 334.887796 270.068666 
L 335.024965 271.236705 
L 335.127598 269.654553 
L 335.263195 271.305831 
L 335.470649 271.996031 
L 335.577563 273.695931 
L 335.740211 273.978413 
L 335.987453 274.770492 
L 336.122846 275.201647 
L 336.260737 276.664337 
L 336.398105 274.353054 
L 336.547987 274.226 
L 336.845093 272.374639 
L 337.127207 267.503383 
L 337.412856 268.880327 
L 337.814746 266.959472 
L 337.979458 267.499401 
L 338.184859 267.034769 
L 338.357187 267.269025 
L 338.454764 266.618301 
L 338.49434 267.796507 
L 338.563599 267.5791 
L 338.701338 266.497291 
L 338.874649 267.037548 
L 339.147994 269.514392 
L 339.251437 268.476087 
L 339.422686 268.02683 
L 339.663979 272.671369 
L 339.83615 271.116536 
L 340.079201 271.582958 
L 340.214749 271.077012 
L 340.352092 272.104162 
L 340.538041 271.19193 
L 340.870355 273.396 
L 341.109714 267.500057 
L 341.243958 269.236042 
L 341.381555 269.171175 
L 341.520662 268.866688 
L 341.691405 267.408041 
L 341.86624 268.02865 
L 341.9658 267.446184 
L 342.102173 268.357673 
L 342.347702 268.365167 
L 342.517138 267.684008 
L 342.619125 268.373643 
L 342.789601 267.175029 
L 342.899716 267.96083 
L 343.065981 268.034251 
L 343.134096 268.425849 
L 343.241202 267.616499 
L 343.378017 268.375194 
L 343.653489 266.171734 
L 343.85538 267.914685 
L 343.992714 267.217924 
L 344.129437 268.402472 
L 344.307156 267.447229 
L 344.405738 268.61405 
L 344.645032 268.151954 
L 344.753454 269.077615 
L 344.815901 267.868219 
L 344.953049 268.225392 
L 345.124917 269.043561 
L 345.235035 271.458828 
L 345.547353 271.691716 
L 345.646287 272.052478 
L 345.850315 272.37171 
L 345.955637 271.272106 
L 346.093155 271.046793 
L 346.230412 271.151038 
L 346.403149 271.609742 
L 346.539615 271.283186 
L 346.642716 268.931852 
L 346.784781 269.014524 
L 347.056992 265.507382 
L 347.207076 263.950306 
L 347.401581 265.515542 
L 347.504391 264.326363 
L 347.659283 264.399781 
L 347.917737 265.024232 
L 348.055118 265.844263 
L 348.193882 265.54045 
L 348.471463 269.020569 
L 348.637657 269.412366 
L 348.775672 268.251722 
L 348.912468 268.742781 
L 349.084398 266.400539 
L 349.187645 266.891316 
L 349.336163 266.814998 
L 349.499302 266.399382 
L 349.681881 267.375017 
L 349.803762 266.471521 
L 349.907441 267.48952 
L 350.183594 266.56767 
L 350.526497 272.38518 
L 350.733629 272.110196 
L 350.771392 272.310015 
L 350.902779 272.009116 
L 351.178601 271.922526 
L 351.422232 271.008498 
L 351.488589 271.678136 
L 351.630691 271.809356 
L 351.796915 269.411119 
L 351.944213 269.519825 
L 352.071662 269.087623 
L 352.36502 268.918856 
L 352.62552 270.492712 
L 352.797827 270.526332 
L 352.900792 269.137367 
L 353.038281 268.888465 
L 353.200023 269.198539 
L 353.346478 268.819068 
L 353.518415 269.702718 
L 353.659802 269.8069 
L 353.768818 269.561142 
L 354.141108 266.993665 
L 354.175066 267.180763 
L 354.310915 269.751114 
L 354.551577 269.44852 
L 354.723896 267.238327 
L 354.894251 267.17465 
L 355.173768 265.117156 
L 355.308248 267.23784 
L 355.44304 266.461409 
L 355.718163 266.184814 
L 355.862788 268.786695 
L 356.033911 269.078544 
L 356.30331 270.002364 
L 356.592304 273.796333 
L 356.785343 273.283088 
L 356.930614 273.424351 
L 357.299724 269.105286 
L 357.628349 269.259766 
L 358.021934 265.583972 
L 358.295171 266.363811 
L 358.435423 268.706595 
L 358.571296 268.918028 
L 358.707234 269.463165 
L 358.880265 268.302897 
L 359.016299 268.881074 
L 359.130476 267.670655 
L 359.292177 267.432539 
L 359.430118 268.044949 
L 359.566321 269.613909 
L 359.744222 268.979572 
L 360.015757 269.361425 
L 360.28957 268.949106 
L 360.633249 272.102114 
L 360.734936 271.789678 
L 360.908292 271.838186 
L 361.012093 271.392122 
L 361.121647 271.588288 
L 361.283379 270.958717 
L 361.55895 273.933424 
L 361.802495 273.738081 
L 361.868045 270.564496 
L 362.129275 273.870851 
L 362.418576 271.133923 
L 362.590743 273.237921 
L 362.693101 272.623113 
L 362.966767 269.972381 
L 363.257787 272.103244 
L 363.550809 269.632982 
L 363.791037 270.238524 
L 364.103037 267.83605 
L 364.24476 270.351917 
L 364.411292 269.39814 
L 364.618486 269.935197 
L 364.722017 269.506672 
L 364.847462 270.796853 
L 365.030778 270.851866 
L 365.407758 273.759128 
L 365.683166 271.564759 
L 365.85583 270.829585 
L 365.957874 269.410853 
L 366.129429 269.447258 
L 366.48322 271.761903 
L 366.645545 271.664011 
L 366.818222 269.682232 
L 366.954716 271.05059 
L 367.091549 269.821501 
L 367.366426 272.910906 
L 367.514431 273.544153 
L 367.814019 269.94237 
L 367.95321 269.639576 
L 368.170518 272.01938 
L 368.402305 271.002429 
L 368.674276 271.908546 
L 368.954971 270.852432 
L 369.261253 272.623725 
L 369.499694 270.009941 
L 369.66982 272.120862 
L 370.08736 270.532543 
L 370.221507 272.147579 
L 370.494851 271.192561 
L 370.704338 269.051059 
L 370.779052 269.285484 
L 371.288831 266.003879 
L 371.405164 267.073269 
L 371.669214 266.002311 
L 371.810317 266.269517 
L 371.948995 267.181185 
L 372.118511 266.494487 
L 372.22087 267.435704 
L 372.652779 269.706806 
L 372.805543 268.871436 
L 372.912162 269.322361 
L 373.083558 268.548361 
L 373.218564 268.528949 
L 373.374767 268.774057 
L 373.503115 270.129775 
L 373.952322 266.687528 
L 374.056048 268.797139 
L 374.241228 267.960823 
L 374.636939 270.174997 
L 374.877579 269.022473 
L 375.015079 269.032582 
L 375.049017 270.576826 
L 375.358757 271.953249 
L 375.464784 270.137125 
L 375.773583 272.843343 
L 375.920947 273.087994 
L 376.059432 271.731434 
L 376.184731 272.264407 
L 376.358129 272.132264 
L 376.477097 270.455562 
L 376.633299 270.248513 
L 376.824373 271.392611 
L 377.014551 273.315677 
L 377.358915 269.13874 
L 377.461615 269.512974 
L 377.771006 267.876212 
L 377.806067 270.539951 
L 378.048563 267.257017 
L 378.321378 264.798435 
L 378.499168 265.464765 
L 378.603248 267.137799 
L 378.76679 266.633663 
L 378.872974 267.110047 
L 379.044563 269.025223 
L 379.323401 271.396294 
L 379.47178 272.001232 
L 379.597653 273.796188 
L 379.769945 273.510701 
L 380.027091 270.350577 
L 380.043992 271.065123 
L 380.181658 272.844573 
L 380.596746 269.134695 
L 380.949665 270.568682 
L 381.21525 268.210242 
L 381.457274 270.050075 
L 381.815435 267.550556 
L 381.841566 267.796439 
L 381.881813 268.768541 
L 382.011942 268.158694 
L 382.155064 268.31749 
L 382.431262 265.995294 
L 382.566649 266.202013 
L 382.737721 265.825243 
L 383.01356 263.631939 
L 383.151332 263.847898 
L 383.288727 264.458537 
L 383.528903 264.547314 
L 383.596727 263.46329 
L 384.008566 265.167515 
L 384.146214 263.86493 
L 384.320666 264.10972 
L 384.421674 266.371661 
L 384.596858 265.676082 
L 384.732169 264.335629 
L 384.869171 265.161572 
L 385.076602 265.584287 
L 385.282046 264.634132 
L 385.564617 266.362991 
L 385.733969 268.26403 
L 385.86579 267.800176 
L 386.039595 269.879233 
L 386.261194 269.520013 
L 386.34654 268.932038 
L 386.41543 268.959387 
L 386.554878 271.31941 
L 386.837814 271.759382 
L 387.137231 271.3053 
L 387.342542 268.983361 
L 387.514858 269.75307 
L 387.861235 272.738866 
L 387.966015 272.317251 
L 388.177612 273.202673 
L 388.448064 272.025087 
L 388.617404 270.355873 
L 388.690345 273.925739 
L 388.976605 273.380883 
L 389.139549 271.340332 
L 389.339374 271.004646 
L 389.417596 270.132373 
L 389.546991 271.100609 
L 389.687498 270.843869 
L 389.822993 270.25846 
L 389.962972 271.369812 
L 390.173812 270.324776 
L 390.428672 267.353682 
L 390.612874 268.370142 
L 390.681562 268.074905 
L 390.822807 268.405551 
L 391.092353 265.969805 
L 391.260709 267.913958 
L 391.541148 266.653594 
L 391.569102 270.203622 
L 391.70915 268.41504 
L 391.951188 269.282114 
L 392.259861 267.77791 
L 392.53192 270.603937 
L 392.702915 269.056992 
L 392.979243 270.994314 
L 393.185089 270.823698 
L 393.359322 272.23099 
L 393.460432 271.92486 
L 393.528974 273.943458 
L 393.666322 274.391831 
L 394.105753 272.647464 
L 394.527103 272.018408 
L 394.663605 270.738251 
L 394.871298 271.637219 
L 394.942918 269.158011 
L 395.081621 268.953479 
L 395.283108 270.009986 
L 395.459564 268.965714 
L 395.523137 269.861704 
L 395.729855 268.822966 
L 395.942677 267.121674 
L 396.321498 264.808611 
L 396.471026 266.635199 
L 396.5322 265.518123 
L 396.698281 265.403492 
L 396.80157 265.053453 
L 396.938953 265.919713 
L 397.077812 265.916348 
L 397.282756 267.316097 
L 397.42078 266.617382 
L 397.522891 267.675076 
L 397.661254 270.338975 
L 397.798129 270.171838 
L 397.939125 270.257613 
L 398.086109 267.988809 
L 398.212509 268.748224 
L 398.519349 268.3906 
L 398.62826 270.147691 
L 398.65681 269.784122 
L 398.798451 269.777149 
L 398.931199 271.364794 
L 399.348238 271.207403 
L 399.552581 272.377747 
L 399.758536 271.83426 
L 399.978579 270.164997 
L 400.085539 269.215655 
L 400.234581 271.2919 
L 400.253705 270.479106 
L 400.495168 267.708115 
L 400.736277 267.50626 
L 400.804779 268.719968 
L 400.941728 267.041115 
L 401.186987 269.6892 
L 401.333154 268.78751 
L 401.491321 270.153482 
L 401.645983 268.843678 
L 402.457802 272.607742 
L 402.48774 272.329279 
L 402.624071 272.031793 
L 402.766438 272.980185 
L 402.904192 272.490356 
L 403.075834 272.544814 
L 403.180667 272.204202 
L 403.315893 272.185823 
L 403.586724 272.307232 
L 403.763148 270.555084 
L 403.900446 268.95455 
L 404.038777 269.092723 
L 404.175306 268.196057 
L 404.346999 268.183549 
L 404.460698 270.572461 
L 404.490312 269.521731 
L 404.729257 267.957294 
L 404.759152 269.176024 
L 404.986383 269.135681 
L 405.03742 268.315793 
L 405.382254 271.52205 
L 405.585996 268.91313 
L 405.624779 269.407264 
L 406.52003 271.926606 
L 406.619162 271.673982 
L 406.899499 273.597568 
L 407.098481 274.191521 
L 407.201732 272.856927 
L 407.340282 273.075166 
L 407.545796 273.98396 
L 407.720546 272.550594 
L 407.858274 273.191367 
L 408.02653 275.769177 
L 408.816596 271.885433 
L 408.884936 270.283124 
L 409.104578 270.117838 
L 409.435753 265.55409 
L 410.021235 269.49658 
L 410.157902 269.393539 
L 410.296265 271.589054 
L 410.576758 272.656755 
L 410.706467 273.729066 
L 410.880142 273.073727 
L 411.152404 271.586301 
L 411.233578 271.904414 
L 411.29176 273.163044 
L 411.462946 272.332205 
L 411.708051 269.619508 
L 412.012439 271.686537 
L 412.148566 271.942962 
L 412.286789 272.478608 
L 412.702257 271.02637 
L 412.83553 269.727024 
L 413.056404 271.759464 
L 413.265425 271.286328 
L 413.324668 269.988506 
L 413.427175 270.823121 
L 413.702309 269.494375 
L 413.84296 271.480904 
L 413.980049 271.785559 
L 414.118912 270.83078 
L 414.341055 272.355001 
L 414.404123 271.280283 
L 414.53608 271.59645 
L 414.703058 271.51398 
L 414.839654 270.133426 
L 415.015784 271.375271 
L 415.118154 271.030389 
L 415.256235 269.241654 
L 415.426928 270.397485 
L 415.562924 269.723451 
L 415.94207 270.641255 
L 416.010672 269.865289 
L 416.158159 270.945005 
L 416.325053 270.437123 
L 416.428124 269.09202 
L 416.527654 270.02078 
L 416.664555 270.158081 
L 416.806202 269.381925 
L 416.974278 270.416263 
L 417.11078 269.595376 
L 417.281612 269.654127 
L 417.43379 269.981283 
L 417.524939 268.54101 
L 417.835661 270.190779 
L 417.971896 269.430329 
L 418.143728 269.843637 
L 418.553571 273.11526 
L 418.759587 273.279851 
L 419.144747 275.019883 
L 419.562324 276.719289 
L 419.762352 275.824459 
L 419.96815 272.46386 
L 420.28175 271.642864 
L 420.448776 273.023933 
L 420.51869 272.923224 
L 420.931455 267.709719 
L 421.067346 267.217951 
L 421.340629 268.926132 
L 421.512805 267.533658 
L 421.659886 266.884179 
L 421.811833 265.08933 
L 421.929901 265.585804 
L 422.224287 269.043428 
L 422.509685 272.784065 
L 422.648634 271.800203 
L 422.788115 274.849123 
L 423.129568 274.091021 
L 423.234536 275.609602 
L 423.339082 273.863487 
L 423.370574 274.670692 
L 423.506793 275.979012 
L 423.644848 275.474868 
L 423.964868 273.383689 
L 424.236339 273.347392 
L 424.266099 271.069634 
L 424.48139 272.980266 
L 424.644604 270.290939 
L 424.783132 271.148424 
L 424.963711 269.782599 
L 425.145785 269.840754 
L 425.246078 271.240232 
L 425.488608 271.416038 
L 425.625496 271.198045 
L 425.936505 269.53324 
L 426.070399 270.152126 
L 426.494682 269.320424 
L 426.72963 268.312255 
L 426.757386 269.533685 
L 426.894718 270.347294 
L 427.101515 270.413696 
L 427.203344 269.7504 
L 427.516422 270.062869 
L 427.620527 270.51974 
L 428.134352 268.171227 
L 428.409259 265.005142 
L 428.61455 264.439286 
L 428.727252 265.047529 
L 428.753597 264.341401 
L 428.890821 266.401471 
L 429.034425 265.456507 
L 429.22589 266.400659 
L 429.308882 265.372319 
L 429.475376 265.58043 
L 429.616302 266.121904 
L 429.886713 269.418033 
L 430.034271 269.839481 
L 430.335692 267.02799 
L 430.506116 268.751902 
L 430.62426 268.04342 
L 430.893393 271.827447 
L 431.194564 268.424826 
L 431.310232 269.134068 
L 431.514359 269.579203 
L 431.607755 272.816341 
L 431.743934 272.707598 
L 431.88083 271.645827 
L 432.018989 271.923622 
L 432.164903 271.068382 
L 432.466668 272.063512 
L 432.603888 271.959478 
L 432.777672 271.323025 
L 433.015849 268.504562 
L 433.194172 267.564456 
L 433.32604 267.828582 
L 433.357539 267.524422 
L 433.462627 268.749604 
L 433.564876 268.588976 
L 433.73648 267.827725 
L 434.286847 268.619201 
L 434.595489 270.222601 
L 434.868799 268.569492 
L 435.145204 267.792954 
L 435.317327 266.893279 
L 435.419748 267.052929 
L 435.670235 266.78717 
L 435.728098 267.628279 
L 436.188265 267.729538 
L 436.379719 268.424524 
L 436.418058 267.575764 
L 436.555438 267.575696 
L 436.725245 269.985985 
L 437.002012 268.736069 
L 437.282873 270.121546 
L 437.44932 269.389134 
L 437.591082 269.387403 
L 437.762567 269.008318 
L 437.867675 270.313454 
L 438.037929 269.706058 
L 438.140189 268.416422 
L 438.589769 271.632956 
L 438.75997 269.933245 
L 438.833557 270.880802 
L 439.003207 271.083897 
L 439.150616 271.027272 
L 439.828147 267.69089 
L 439.896711 268.458848 
L 439.999048 268.024551 
L 440.2397 267.868776 
L 440.376402 268.293039 
L 440.445118 269.185423 
L 440.690772 270.506705 
L 440.972378 272.658132 
L 441.103788 272.892725 
L 441.270214 271.674001 
L 441.823197 272.943135 
L 441.99459 271.687431 
L 442.097453 272.972573 
L 442.232721 271.006526 
L 442.435947 270.965781 
L 442.686362 272.682524 
L 442.916442 272.146012 
L 442.984164 269.960764 
L 443.361931 265.956854 
L 443.430651 267.130269 
L 443.575492 266.315373 
L 443.80946 268.628404 
L 444.124248 266.804418 
L 444.268799 266.733704 
L 444.668676 272.635806 
L 444.976099 271.65632 
L 445.113871 271.53445 
L 445.360079 270.115746 
L 445.527878 271.42824 
L 445.665118 271.212453 
L 445.803083 272.54884 
L 445.942195 271.613096 
L 446.179311 271.322593 
L 446.248883 269.911489 
L 446.38475 269.937385 
L 446.557549 268.988565 
L 446.731938 269.679648 
L 446.797882 268.60621 
L 446.995431 267.776544 
L 447.075508 267.915032 
L 447.221699 268.438348 
L 447.440954 267.017245 
L 447.512195 265.69212 
L 447.543014 269.073559 
L 447.659362 269.339909 
L 447.79495 268.887746 
L 448.066237 270.107212 
L 448.239138 272.106463 
L 448.684476 267.635656 
L 448.790764 269.464265 
L 448.99531 269.371241 
L 448.995643 271.574898 
L 449.068729 268.574042 
L 449.442556 269.639702 
L 449.509182 268.413101 
L 449.921964 271.184954 
L 450.060388 271.100071 
L 450.208706 271.289981 
L 450.339063 270.280051 
L 450.647187 272.075238 
L 450.781026 270.572781 
L 450.921687 270.481411 
L 451.054387 268.394886 
L 451.195229 268.101577 
L 451.331656 267.541248 
L 451.500661 268.500299 
L 451.640733 266.796417 
L 451.776868 266.866202 
L 452.051113 265.137726 
L 452.187981 266.031456 
L 452.338563 267.781112 
L 452.464253 267.060463 
L 452.640804 266.929993 
L 452.912047 268.226519 
L 453.048381 268.92986 
L 453.185455 268.469675 
L 453.321962 268.63619 
L 453.604015 268.448595 
L 453.736002 267.662098 
L 454.043841 269.326724 
L 454.318051 269.813662 
L 454.458599 269.30091 
L 454.73216 270.217445 
L 454.90268 269.904216 
L 455.043093 269.404016 
L 455.181613 269.677366 
L 455.314354 271.050288 
L 455.453071 271.221549 
L 455.73152 268.930467 
L 455.867577 270.297795 
L 456.17652 268.367142 
L 456.31867 268.631266 
L 456.456108 270.883232 
L 456.590188 270.861229 
L 456.767758 269.408498 
L 456.796361 271.093175 
L 456.933958 269.923404 
L 457.143401 271.633876 
L 457.310692 270.657191 
L 457.484834 271.265464 
L 457.588634 273.602611 
L 457.792632 272.79468 
L 458.008085 270.894062 
L 458.172095 271.631799 
L 458.583888 270.000418 
L 458.720455 271.083465 
L 458.882071 270.492531 
L 458.894496 266.599734 
L 459.030035 270.451597 
L 459.383432 268.186088 
L 459.513371 267.718464 
L 459.580157 267.847066 
L 459.853661 267.577961 
L 460.025018 270.024166 
L 460.292119 269.235247 
L 460.439172 269.026414 
L 460.575102 271.51383 
L 460.748057 272.079371 
L 460.990991 269.37935 
L 461.228006 270.114908 
L 461.468922 267.280542 
L 461.708474 268.336941 
L 461.814253 269.547713 
L 461.983468 267.289302 
L 462.123697 267.250245 
L 462.464592 269.91377 
L 462.568402 268.91518 
L 462.813795 270.557872 
L 462.849162 270.23305 
L 463.000256 268.310805 
L 463.120284 268.677511 
L 463.260969 268.632023 
L 463.427576 269.750994 
L 463.703069 269.048493 
L 463.818743 269.856654 
L 463.883692 268.057013 
L 463.979788 268.322594 
L 464.222592 266.158835 
L 464.439711 267.718269 
L 464.703773 265.611155 
L 464.888399 264.948001 
L 465.011065 266.434248 
L 465.186727 266.448873 
L 465.251899 266.569768 
L 465.494313 266.778271 
L 465.530337 267.98542 
L 465.836218 266.21031 
L 465.973014 266.019762 
L 466.112774 266.908316 
L 466.558431 265.397266 
L 466.662557 267.968582 
L 466.833881 268.295964 
L 467.005928 267.785628 
L 467.245928 270.650783 
L 467.418551 271.605936 
L 467.566552 270.641577 
L 467.69222 272.995739 
L 467.934212 273.238321 
L 468.242188 269.107217 
L 468.278946 269.485994 
L 468.414482 270.431949 
L 468.825866 268.436485 
L 468.963523 268.923564 
L 469.122857 268.561748 
L 469.272216 267.435339 
L 469.308555 267.554485 
L 469.551791 273.425732 
L 469.823104 271.531227 
L 469.960409 272.510667 
L 470.098496 271.383255 
L 470.338502 270.489718 
L 470.408029 270.579928 
L 470.511674 270.527681 
L 471.130416 264.352137 
L 471.23292 266.399797 
L 471.370475 264.861375 
L 471.837242 271.377142 
L 472.00062 270.887559 
L 472.236129 273.100496 
L 472.442539 273.370258 
L 472.509061 273.714141 
L 472.682121 271.552583 
L 472.886347 273.07952 
L 473.065758 271.303477 
L 473.231042 266.501371 
L 473.407604 266.106542 
L 473.649066 264.446223 
L 473.782965 266.473518 
L 473.919923 266.010049 
L 474.055865 266.053223 
L 474.229339 265.06965 
L 474.641262 270.995416 
L 474.919658 272.106676 
L 475.190359 269.456542 
L 475.40053 268.482065 
L 475.638604 271.124235 
L 476.049849 268.507722 
L 476.189157 270.501516 
L 476.324614 269.718833 
L 476.492229 270.729755 
L 476.628154 270.039263 
L 476.912494 272.820993 
L 477.04171 273.13685 
L 477.348828 269.869585 
L 477.485294 271.318243 
L 477.623112 271.134769 
L 477.759483 272.869238 
L 477.899174 272.393317 
L 478.033824 275.298131 
L 478.479923 272.535559 
L 478.61729 272.935272 
L 478.754882 274.133625 
L 478.897397 272.998877 
L 479.16794 269.520985 
L 479.306977 270.21695 
L 479.449563 267.705351 
L 479.615799 267.651003 
L 479.888457 267.137617 
L 480.02962 268.051946 
L 480.163699 267.587646 
L 480.305907 265.990552 
L 480.610816 265.769373 
L 480.886353 267.005502 
L 481.023627 266.433687 
L 481.176256 266.78978 
L 481.653822 266.029696 
L 482.01947 269.404875 
L 482.156959 268.456707 
L 482.294772 268.642525 
L 482.434711 269.598853 
L 482.467335 267.448828 
L 482.60472 269.847684 
L 482.879637 270.351673 
L 483.016975 270.626248 
L 483.225958 271.480413 
L 483.435696 268.183525 
L 483.600147 268.451658 
L 484.082213 265.479112 
L 484.184222 266.0768 
L 484.358016 265.831161 
L 484.459351 268.227621 
L 484.597045 267.735087 
L 484.733521 267.968946 
L 485.01778 267.659011 
L 485.181997 268.354696 
L 485.479128 271.546293 
L 485.559825 271.574768 
L 485.748651 272.059584 
L 485.956191 271.113536 
L 486.023261 273.218063 
L 486.195846 272.870024 
L 486.436533 274.674659 
L 486.572894 275.610778 
L 486.71083 275.021476 
L 486.847555 275.516133 
L 487.433416 268.799275 
L 487.569598 270.291536 
L 487.844634 270.434572 
L 488.017483 270.190118 
L 488.290247 268.937116 
L 488.63328 271.478603 
L 488.702345 272.759606 
L 488.908936 273.5488 
L 489.012004 272.434487 
L 489.184482 273.740609 
L 489.425419 271.339177 
L 489.564687 271.646184 
L 489.732366 271.695757 
L 489.974715 271.101537 
L 490.283807 268.435012 
L 490.423036 270.063537 
L 490.831971 265.881538 
L 490.984216 266.906053 
L 491.124235 265.916948 
L 491.331401 267.715778 
L 491.403272 266.665747 
L 491.544519 266.78935 
L 491.717428 265.367422 
L 491.845041 263.237288 
L 492.125266 265.918927 
L 492.258479 266.801379 
L 492.467454 265.954358 
L 492.609627 266.991823 
L 492.706435 265.352645 
L 492.946891 267.16394 
L 493.469412 271.567529 
L 493.5315 269.559429 
L 493.668321 270.873719 
L 493.97876 270.190441 
L 494.255683 273.863659 
L 494.466697 273.955528 
L 494.818911 269.518212 
L 494.945869 271.536547 
L 495.081418 270.416241 
L 495.322854 271.616128 
L 495.410142 270.217309 
L 495.636304 269.997813 
L 495.722903 269.547364 
L 496.091985 271.051035 
L 496.354054 271.098839 
L 496.388291 270.971119 
L 496.941042 274.094773 
L 497.249709 273.171811 
L 497.424813 274.368227 
L 497.525931 273.619472 
L 497.645471 273.854632 
L 497.806087 272.792216 
L 498.08758 273.229555 
L 498.143186 271.526441 
L 498.247607 271.977766 
L 498.426163 271.434212 
L 498.52772 269.84364 
L 498.660273 270.556287 
L 498.811055 270.647036 
L 498.93735 270.434373 
L 499.265643 273.110465 
L 499.403556 271.874499 
L 499.593483 272.166353 
L 499.665702 272.49822 
L 499.801401 271.572046 
L 499.941411 272.213969 
L 500.078139 270.744081 
L 500.245522 270.749454 
L 500.485913 269.716315 
L 500.633368 268.552118 
L 500.831609 268.512667 
L 500.932677 268.090315 
L 501.106343 268.457178 
L 501.312286 267.786941 
L 501.380148 267.845907 
L 501.486446 269.683531 
L 501.729148 268.444853 
L 501.795788 269.213565 
L 501.975049 269.804404 
L 502.107172 271.571723 
L 502.241165 271.56624 
L 502.342731 272.985054 
L 502.488332 273.269028 
L 502.652143 273.200477 
L 502.893537 273.552783 
L 503.070688 273.227064 
L 503.16902 273.284378 
L 503.237391 273.041158 
L 503.442946 272.937874 
L 503.614906 269.108857 
L 503.759656 269.803971 
L 503.892768 268.360236 
L 504.029514 269.346942 
L 504.061979 271.085004 
L 504.378661 267.801757 
L 504.477498 268.12917 
L 504.785995 264.889581 
L 505.094558 267.389976 
L 505.231367 266.075072 
L 505.341553 267.489596 
L 505.509164 267.852511 
L 505.654763 269.463125 
L 505.821506 268.594697 
L 506.022034 266.805698 
L 506.127372 269.191952 
L 506.537069 271.208441 
L 506.67446 271.777514 
L 506.779452 271.733189 
L 506.953745 271.350203 
L 507.131699 268.800287 
L 507.293839 269.480994 
L 507.498951 269.21662 
L 507.60142 270.289401 
L 507.740805 268.847346 
L 507.927308 269.135473 
L 508.026117 270.396504 
L 508.161469 269.293407 
L 508.737781 272.561226 
L 508.87589 274.096908 
L 509.046336 272.070376 
L 509.311354 272.595281 
L 509.326454 273.686315 
L 509.459045 271.834618 
L 509.595855 272.135656 
L 509.813931 271.963692 
L 509.875834 270.174795 
L 510.009394 270.392926 
L 510.145866 270.399097 
L 510.318135 268.736276 
L 510.425484 269.420156 
L 510.729751 266.569714 
L 510.868077 266.808231 
L 511.00508 267.78818 
L 511.148144 266.287575 
L 511.419322 269.225999 
L 511.595131 270.472643 
L 511.976129 268.769112 
L 512.001872 268.958 
L 512.208986 271.383037 
L 512.585563 272.5733 
L 512.757581 271.830283 
L 513.003002 267.043393 
L 513.271959 267.688823 
L 513.444763 270.172247 
L 514.004633 263.570309 
L 514.183257 262.89586 
L 514.350346 263.248196 
L 514.729302 260.145351 
L 514.832833 260.178726 
L 515.104938 261.269967 
L 515.280903 265.148241 
L 515.554014 266.399092 
L 515.660384 265.846507 
L 516.004563 271.376001 
L 516.219099 272.035043 
L 516.723277 268.802211 
L 517.032042 270.290973 
L 517.250925 269.190407 
L 517.524109 266.11447 
L 517.702808 268.724942 
L 517.901293 268.680699 
L 518.107826 271.350556 
L 518.401315 271.118978 
L 518.520337 271.286302 
L 518.553624 272.616423 
L 518.694796 272.737376 
L 518.853448 274.705545 
L 519.112595 272.997796 
L 519.316104 272.405401 
L 519.588444 269.489865 
L 519.588707 265.072271 
L 519.829367 268.078124 
L 520.000833 267.618955 
L 520.139004 268.421417 
L 520.279181 266.472722 
L 520.384732 267.047395 
L 520.774264 265.42567 
L 520.829441 267.403174 
L 520.970539 267.351352 
L 521.276121 268.347746 
L 521.51461 268.567448 
L 521.653623 266.859626 
L 521.725579 268.375116 
L 521.96234 267.201963 
L 522.397153 268.378399 
L 522.615944 267.168908 
L 522.683009 267.712885 
L 522.785249 267.21981 
L 522.959414 269.255157 
L 523.095537 268.785201 
L 523.370251 269.524508 
L 523.509591 269.861796 
L 523.815013 267.120918 
L 523.972418 267.621278 
L 523.987392 266.983921 
L 524.091907 267.063699 
L 524.423413 266.182994 
L 524.539277 264.075432 
L 524.814661 263.671233 
L 525.158141 265.276076 
L 525.229145 265.27788 
L 525.368919 265.601772 
L 525.506454 265.097015 
L 525.638466 265.216004 
L 525.774647 265.097541 
L 526.016029 265.34853 
L 526.123186 263.065328 
L 526.259711 263.339369 
L 526.35871 262.963855 
L 526.496457 264.067056 
L 526.91413 264.793242 
L 527.11545 265.034149 
L 527.373381 266.492905 
L 527.655993 269.119267 
L 527.770003 269.716706 
L 527.920463 268.80153 
L 528.11359 268.752404 
L 528.218994 269.705176 
L 528.357101 269.869454 
L 528.490543 271.208388 
L 528.697185 271.380227 
L 528.844322 270.984708 
L 528.902914 271.237198 
L 529.040241 271.330443 
L 529.220491 269.786829 
L 529.471595 273.477094 
L 529.658085 273.123309 
L 529.762056 272.26455 
L 529.967309 272.28282 
L 530.413839 274.030727 
L 530.483981 273.258728 
L 530.620571 275.212481 
L 530.756961 273.458051 
L 531.067935 274.162879 
L 531.18731 273.886656 
L 531.479927 271.628828 
L 531.6179 272.932548 
L 531.754371 272.795522 
L 532.340187 267.00968 
L 532.584478 265.503779 
L 532.745247 265.690842 
L 532.861157 266.61329 
L 533.001728 266.0689 
L 533.060778 266.413521 
L 533.285258 265.659715 
L 533.44142 269.008885 
L 533.611184 269.612659 
L 533.782722 269.392809 
L 533.885748 272.804148 
L 534.231152 274.022067 
L 534.298792 273.402476 
L 534.470867 273.065511 
L 534.574553 271.507671 
L 534.747204 272.41224 
L 535.16581 273.359513 
L 535.399327 272.021822 
L 535.502024 272.90831 
L 535.60546 271.615482 
L 535.780999 271.763967 
L 535.91386 271.27523 
L 536.023307 271.894801 
L 536.155294 271.389485 
L 536.568687 267.983864 
L 536.77385 268.959565 
L 536.876386 267.424336 
L 537.051644 268.653279 
L 537.150997 268.329281 
L 537.323505 268.802472 
L 537.430976 269.96994 
L 537.597478 268.339419 
L 537.744298 269.018246 
L 537.944726 268.983386 
L 538.078614 270.313666 
L 538.354018 268.649008 
L 538.457015 268.213731 
L 538.904248 270.255615 
L 539.144045 273.830622 
L 539.419135 274.033194 
L 539.561703 273.348116 
L 539.707829 275.041596 
L 539.865995 275.556218 
L 540.55274 269.961582 
L 540.723643 270.093546 
L 540.897384 270.432467 
L 540.999502 272.803959 
L 541.315462 270.010667 
L 541.413822 270.49578 
L 541.54895 270.372553 
L 542.134854 266.477326 
L 542.270935 266.592863 
L 542.443645 264.856745 
L 542.717181 265.709521 
L 542.984049 267.736363 
L 543.352107 270.054514 
L 543.558793 272.857212 
L 543.695888 271.9885 
L 543.841288 272.02428 
L 544.18011 273.703739 
L 544.285893 272.973487 
L 544.460391 272.605275 
L 544.541202 270.700037 
L 544.835889 272.621005 
L 544.97386 272.778017 
L 545.113821 273.233967 
L 545.318475 273.208742 
L 545.66277 274.745366 
L 545.833374 276.198677 
L 545.940513 276.08377 
L 546.108229 274.043734 
L 546.251741 274.000183 
L 546.520419 271.958321 
L 546.658125 272.138978 
L 546.9337 270.1698 
L 547.102963 269.545815 
L 547.244841 269.507018 
L 547.521704 269.87102 
L 547.660282 267.205655 
L 547.801188 267.068688 
L 547.966238 268.169857 
L 548.102998 267.455938 
L 548.239036 268.467414 
L 548.376091 267.061757 
L 548.516062 267.696439 
L 548.686232 265.77693 
L 548.931483 268.237989 
L 549.236696 269.883098 
L 549.381479 267.672027 
L 549.70211 268.007386 
L 549.788628 267.494396 
L 549.975715 266.982413 
L 550.374511 267.701841 
L 550.518151 268.910396 
L 550.65567 268.143945 
L 550.786995 269.237331 
L 550.924923 267.896642 
L 551.201653 268.978668 
L 551.349685 268.156848 
L 551.477153 269.014691 
L 551.785203 268.225924 
L 551.921537 268.360427 
L 552.059397 269.490187 
L 552.093594 271.915071 
L 552.198443 269.29578 
L 552.336292 271.59403 
L 552.645987 272.827822 
L 552.782746 275.066701 
L 553.092155 273.496723 
L 553.227926 273.394873 
L 553.331516 272.968371 
L 553.778218 272.343153 
L 553.88316 272.666032 
L 554.054225 272.299352 
L 554.293392 271.02196 
L 554.815766 275.970224 
L 555.016573 275.220704 
L 555.186819 276.084615 
L 555.35808 272.67577 
L 555.632587 274.363578 
L 555.741608 273.12857 
L 555.913438 273.944952 
L 556.080025 272.16324 
L 556.184986 269.778269 
L 556.523215 269.180523 
L 556.592007 269.671335 
L 556.735047 269.587852 
L 556.868547 267.613176 
L 557.179528 268.46249 
L 557.318356 266.697944 
L 557.555261 267.834643 
L 557.625288 269.100196 
L 557.795532 268.640952 
L 558.003722 270.660887 
L 558.23107 270.277923 
L 558.31242 270.536231 
L 558.658197 268.334267 
L 558.797065 269.480555 
L 558.931941 268.902478 
L 559.070013 268.879061 
L 559.280891 269.882876 
L 559.548475 268.423908 
L 559.754803 271.426421 
L 559.893257 271.140534 
L 560.038349 272.457094 
L 560.168517 271.404606 
L 560.305734 271.705312 
L 560.49203 270.665667 
L 560.518389 268.855602 
L 560.720522 272.479023 
L 560.861839 272.249885 
L 561.178192 270.190705 
L 561.30348 271.611446 
L 561.447073 271.765328 
L 561.647577 271.200617 
L 561.954093 273.408368 
L 562.033647 271.862283 
L 562.178694 273.785536 
L 562.298971 271.878979 
L 562.572448 274.210408 
L 563.022215 271.335616 
L 563.160682 273.778719 
L 563.226387 271.191123 
L 563.364862 270.406528 
L 563.466708 271.970584 
L 563.582158 269.568565 
L 563.709217 270.22058 
L 563.877691 268.393907 
L 564.019677 268.341653 
L 564.154944 268.823057 
L 564.260815 270.333936 
L 564.432639 268.524853 
L 564.571035 268.675943 
L 564.702347 269.835694 
L 564.84637 267.505576 
L 565.148816 266.944218 
L 565.261957 267.870303 
L 565.424699 266.584439 
L 565.562794 266.960627 
L 565.739161 267.109381 
L 566.043935 268.149426 
L 566.181909 267.926172 
L 566.31902 268.132821 
L 566.455988 267.690131 
L 566.679193 267.838372 
L 567.017432 266.817491 
L 567.299954 266.542844 
L 567.548338 263.442492 
L 567.800803 263.807105 
L 567.83342 268.428813 
L 567.866019 266.641821 
L 568.006127 265.64614 
L 568.278726 267.491486 
L 568.484946 267.507175 
L 568.62261 267.636468 
L 568.968012 271.671981 
L 569.111598 271.877717 
L 569.309936 270.450614 
L 569.550273 270.954797 
L 569.687169 270.283564 
L 569.825464 270.391551 
L 570.379199 265.618211 
L 570.548582 265.471516 
L 570.71825 264.678985 
L 570.822418 266.386644 
L 571.268835 264.519423 
L 571.407775 263.351835 
L 571.647765 263.995121 
L 571.956726 267.16213 
L 572.095588 268.598251 
L 572.372146 266.624477 
L 572.543359 268.482195 
L 572.64737 267.742726 
L 572.956367 269.326277 
L 573.640915 262.549156 
L 573.852439 265.72278 
L 573.955358 265.140987 
L 574.232832 266.309363 
L 574.512706 265.89668 
L 574.654943 266.818356 
L 574.785784 269.40724 
L 574.957487 269.089849 
L 575.260059 266.841349 
L 575.473223 266.011266 
L 575.717189 266.24029 
L 575.794897 264.279452 
L 575.923283 264.571274 
L 576.124441 266.202046 
L 576.231575 264.206473 
L 576.506304 267.498382 
L 576.650361 267.356948 
L 576.783315 268.44583 
L 576.814472 269.641175 
L 577.021791 267.23286 
L 577.341512 269.327525 
L 577.637943 266.774279 
L 577.788412 266.720887 
L 577.913771 264.512197 
L 578.134017 264.774656 
L 578.189211 263.124443 
L 578.359758 261.914094 
L 578.491058 262.911053 
L 578.652301 262.920271 
L 578.799102 263.096849 
L 579.047316 266.554067 
L 579.209497 266.513985 
L 579.347867 266.954948 
L 579.511159 266.352317 
L 579.648929 268.221691 
L 579.823748 268.62475 
L 579.929929 266.604322 
L 580.120685 267.744782 
L 580.202452 266.752909 
L 580.38611 266.794673 
L 580.613319 264.119158 
L 580.957152 267.802817 
L 581.059579 267.884469 
L 581.196396 269.28283 
L 581.402635 268.701911 
L 581.472401 268.144732 
L 581.608615 269.121304 
L 581.81671 268.907889 
L 581.918616 271.450521 
L 582.029466 271.002448 
L 582.329756 267.855227 
L 582.466783 268.977375 
L 582.686603 268.30707 
L 582.781527 269.882396 
L 582.951542 270.633786 
L 583.3294 267.692851 
L 583.535625 267.635714 
L 583.659575 270.363672 
L 583.773505 270.36774 
L 583.913513 268.514364 
L 584.058417 270.213637 
L 584.222425 269.390797 
L 584.329763 269.960127 
L 584.638107 268.216248 
L 584.876923 268.173498 
L 585.117937 269.114757 
L 585.185408 267.947874 
L 585.39255 269.181524 
L 585.460632 267.468398 
L 585.649369 269.43928 
L 585.742591 269.23159 
L 586.01387 269.550782 
L 586.255474 271.271959 
L 586.438109 270.446589 
L 586.702549 270.943204 
L 586.771494 269.612104 
L 586.988286 269.800127 
L 587.116652 270.845366 
L 587.399817 267.430431 
L 587.430847 267.25015 
L 587.457983 264.082591 
L 587.600719 265.94819 
L 587.767156 265.710625 
L 587.940271 264.085957 
L 588.043001 266.649614 
L 588.183866 264.497696 
L 588.21309 267.10351 
L 588.282635 264.403069 
L 588.53266 267.212712 
L 588.695012 267.323996 
L 588.755234 268.590997 
L 588.912576 268.173812 
L 589.045319 270.133523 
L 589.38208 268.486105 
L 589.450988 267.835802 
L 589.573084 267.817828 
L 589.729487 267.198446 
L 590.10738 264.373556 
L 590.140313 265.658235 
L 590.140313 265.658235 
" clip-path="url(#p9fb5bb14f0)" style="fill: none; stroke: #ff0000; stroke-opacity: 0.7; stroke-width: 1.5; stroke-linecap: square"/>
   </g>
   <g id="patch_3">
    <path d="M 32.140313 277.92 
L 32.140313 0.72 
" style="fill: none; stroke: #000000; stroke-width: 0.8; stroke-linejoin: miter; stroke-linecap: square"/>
   </g>
   <g id="patch_4">
    <path d="M 590.140313 277.92 
L 590.140313 0.72 
" style="fill: none; stroke: #000000; stroke-width: 0.8; stroke-linejoin: miter; stroke-linecap: square"/>
   </g>
   <g id="patch_5">
    <path d="M 32.140313 277.92 
L 590.140313 277.92 
" style="fill: none; stroke: #000000; stroke-width: 0.8; stroke-linejoin: miter; stroke-linecap: square"/>
   </g>
   <g id="patch_6">
    <path d="M 32.140313 0.72 
L 590.140313 0.72 
" style="fill: none; stroke: #000000; stroke-width: 0.8; stroke-linejoin: miter; stroke-linecap: square"/>
   </g>
   <g id="legend_1">
    <g id="patch_7">
     <path d="M 509.371562 38.07625 
L 583.140312 38.07625 
Q 585.140312 38.07625 585.140312 36.07625 
L 585.140312 7.72 
Q 585.140312 5.72 583.140312 5.72 
L 509.371562 5.72 
Q 507.371562 5.72 507.371562 7.72 
L 507.371562 36.07625 
Q 507.371562 38.07625 509.371562 38.07625 
z
" style="fill: #ffffff; opacity: 0.8; stroke: #cccccc; stroke-linejoin: miter"/>
    </g>
    <g id="line2d_29">
     <path d="M 511.371562 13.818438 
L 521.371562 13.818438 
L 531.371562 13.818438 
" style="fill: none; stroke: #0000ff; stroke-opacity: 0.7; stroke-width: 1.5; stroke-linecap: square"/>
    </g>
    <g id="text_16">
     <!-- RNEA -->
     <g transform="translate(539.371562 17.318438) scale(0.1 -0.1)">
      <defs>
       <path id="DejaVuSans-52" d="M 2841 2188 
Q 3044 2119 3236 1894 
Q 3428 1669 3622 1275 
L 4263 0 
L 3584 0 
L 2988 1197 
Q 2756 1666 2539 1819 
Q 2322 1972 1947 1972 
L 1259 1972 
L 1259 0 
L 628 0 
L 628 4666 
L 2053 4666 
Q 2853 4666 3247 4331 
Q 3641 3997 3641 3322 
Q 3641 2881 3436 2590 
Q 3231 2300 2841 2188 
z
M 1259 4147 
L 1259 2491 
L 2053 2491 
Q 2509 2491 2742 2702 
Q 2975 2913 2975 3322 
Q 2975 3731 2742 3939 
Q 2509 4147 2053 4147 
L 1259 4147 
z
" transform="scale(0.015625)"/>
       <path id="DejaVuSans-45" d="M 628 4666 
L 3578 4666 
L 3578 4134 
L 1259 4134 
L 1259 2753 
L 3481 2753 
L 3481 2222 
L 1259 2222 
L 1259 531 
L 3634 531 
L 3634 0 
L 628 0 
L 628 4666 
z
" transform="scale(0.015625)"/>
       <path id="DejaVuSans-41" d="M 2188 4044 
L 1331 1722 
L 3047 1722 
L 2188 4044 
z
M 1831 4666 
L 2547 4666 
L 4325 0 
L 3669 0 
L 3244 1197 
L 1141 1197 
L 716 0 
L 50 0 
L 1831 4666 
z
" transform="scale(0.015625)"/>
      </defs>
      <use xlink:href="#DejaVuSans-52"/>
      <use xlink:href="#DejaVuSans-4e" x="69.482422"/>
      <use xlink:href="#DejaVuSans-45" x="144.287109"/>
      <use xlink:href="#DejaVuSans-41" x="207.470703"/>
     </g>
    </g>
    <g id="line2d_30">
     <path d="M 511.371562 28.496563 
L 521.371562 28.496563 
L 531.371562 28.496563 
" style="fill: none; stroke: #ff0000; stroke-opacity: 0.7; stroke-width: 1.5; stroke-linecap: square"/>
    </g>
    <g id="text_17">
     <!-- BURNEA -->
     <g transform="translate(539.371562 31.996563) scale(0.1 -0.1)">
      <defs>
       <path id="DejaVuSans-42" d="M 1259 2228 
L 1259 519 
L 2272 519 
Q 2781 519 3026 730 
Q 3272 941 3272 1375 
Q 3272 1813 3026 2020 
Q 2781 2228 2272 2228 
L 1259 2228 
z
M 1259 4147 
L 1259 2741 
L 2194 2741 
Q 2656 2741 2882 2914 
Q 3109 3088 3109 3444 
Q 3109 3797 2882 3972 
Q 2656 4147 2194 4147 
L 1259 4147 
z
M 628 4666 
L 2241 4666 
Q 2963 4666 3353 4366 
Q 3744 4066 3744 3513 
Q 3744 3084 3544 2831 
Q 3344 2578 2956 2516 
Q 3422 2416 3680 2098 
Q 3938 1781 3938 1306 
Q 3938 681 3513 340 
Q 3088 0 2303 0 
L 628 0 
L 628 4666 
z
" transform="scale(0.015625)"/>
       <path id="DejaVuSans-55" d="M 556 4666 
L 1191 4666 
L 1191 1831 
Q 1191 1081 1462 751 
Q 1734 422 2344 422 
Q 2950 422 3222 751 
Q 3494 1081 3494 1831 
L 3494 4666 
L 4128 4666 
L 4128 1753 
Q 4128 841 3676 375 
Q 3225 -91 2344 -91 
Q 1459 -91 1007 375 
Q 556 841 556 1753 
L 556 4666 
z
" transform="scale(0.015625)"/>
      </defs>
      <use xlink:href="#DejaVuSans-42"/>
      <use xlink:href="#DejaVuSans-55" x="68.603516"/>
      <use xlink:href="#DejaVuSans-52" x="141.796875"/>
      <use xlink:href="#DejaVuSans-4e" x="211.279297"/>
      <use xlink:href="#DejaVuSans-45" x="286.083984"/>
      <use xlink:href="#DejaVuSans-41" x="349.267578"/>
     </g>
    </g>
   </g>
  </g>
 </g>
 <defs>
  <clipPath id="p9fb5bb14f0">
   <rect x="32.140313" y="0.72" width="558" height="277.2"/>
  </clipPath>
 </defs>
</svg>
