<?xml version="1.0" encoding="utf-8" standalone="no"?>
<!DOCTYPE svg PUBLIC "-//W3C//DTD SVG 1.1//EN"
  "http://www.w3.org/Graphics/SVG/1.1/DTD/svg11.dtd">
<svg xmlns:xlink="http://www.w3.org/1999/xlink" width="318.222812pt" height="166.39625pt" viewBox="0 0 318.222812 166.39625" xmlns="http://www.w3.org/2000/svg" version="1.1">
 <metadata>
  <rdf:RDF xmlns:dc="http://purl.org/dc/elements/1.1/" xmlns:cc="http://creativecommons.org/ns#" xmlns:rdf="http://www.w3.org/1999/02/22-rdf-syntax-ns#">
   <cc:Work>
    <dc:type rdf:resource="http://purl.org/dc/dcmitype/StillImage"/>
    <dc:date>2023-09-07T03:31:06.809984</dc:date>
    <dc:format>image/svg+xml</dc:format>
    <dc:creator>
     <cc:Agent>
      <dc:title>Matplotlib v3.7.2, https://matplotlib.org/</dc:title>
     </cc:Agent>
    </dc:creator>
   </cc:Work>
  </rdf:RDF>
 </metadata>
 <defs>
  <style type="text/css">*{stroke-linejoin: round; stroke-linecap: butt}</style>
 </defs>
 <g id="figure_1">
  <g id="patch_1">
   <path d="M 0 166.39625 
L 318.222812 166.39625 
L 318.222812 0 
L 0 0 
L 0 166.39625 
z
" style="fill: none"/>
  </g>
  <g id="axes_1">
   <g id="patch_2">
    <path d="M 38.502813 139.32 
L 317.502813 139.32 
L 317.502813 0.72 
L 38.502813 0.72 
L 38.502813 139.32 
z
" style="fill: none"/>
   </g>
   <g id="matplotlib.axis_1">
    <g id="xtick_1">
     <g id="line2d_1">
      <path d="M 38.502813 139.32 
L 38.502813 0.72 
" clip-path="url(#p5edb934a83)" style="fill: none; stroke-dasharray: 0.8,1.32; stroke-dashoffset: 0; stroke: #000000; stroke-opacity: 0.5; stroke-width: 0.8"/>
     </g>
     <g id="line2d_2">
      <defs>
       <path id="m9e4690a152" d="M 0 0 
L 0 3.5 
" style="stroke: #000000; stroke-width: 0.8"/>
      </defs>
      <g>
       <use xlink:href="#m9e4690a152" x="38.502813" y="139.32" style="stroke: #000000; stroke-width: 0.8"/>
      </g>
     </g>
     <g id="text_1">
      <!-- 0 -->
      <g transform="translate(35.321563 153.918437) scale(0.1 -0.1)">
       <defs>
        <path id="DejaVuSans-30" d="M 2034 4250 
Q 1547 4250 1301 3770 
Q 1056 3291 1056 2328 
Q 1056 1369 1301 889 
Q 1547 409 2034 409 
Q 2525 409 2770 889 
Q 3016 1369 3016 2328 
Q 3016 3291 2770 3770 
Q 2525 4250 2034 4250 
z
M 2034 4750 
Q 2819 4750 3233 4129 
Q 3647 3509 3647 2328 
Q 3647 1150 3233 529 
Q 2819 -91 2034 -91 
Q 1250 -91 836 529 
Q 422 1150 422 2328 
Q 422 3509 836 4129 
Q 1250 4750 2034 4750 
z
" transform="scale(0.015625)"/>
       </defs>
       <use xlink:href="#DejaVuSans-30"/>
      </g>
     </g>
    </g>
    <g id="xtick_2">
     <g id="line2d_3">
      <path d="M 81.117713 139.32 
L 81.117713 0.72 
" clip-path="url(#p5edb934a83)" style="fill: none; stroke-dasharray: 0.8,1.32; stroke-dashoffset: 0; stroke: #000000; stroke-opacity: 0.5; stroke-width: 0.8"/>
     </g>
     <g id="line2d_4">
      <g>
       <use xlink:href="#m9e4690a152" x="81.117713" y="139.32" style="stroke: #000000; stroke-width: 0.8"/>
      </g>
     </g>
     <g id="text_2">
      <!-- 5 -->
      <g transform="translate(77.936463 153.918437) scale(0.1 -0.1)">
       <defs>
        <path id="DejaVuSans-35" d="M 691 4666 
L 3169 4666 
L 3169 4134 
L 1269 4134 
L 1269 2991 
Q 1406 3038 1543 3061 
Q 1681 3084 1819 3084 
Q 2600 3084 3056 2656 
Q 3513 2228 3513 1497 
Q 3513 744 3044 326 
Q 2575 -91 1722 -91 
Q 1428 -91 1123 -41 
Q 819 9 494 109 
L 494 744 
Q 775 591 1075 516 
Q 1375 441 1709 441 
Q 2250 441 2565 725 
Q 2881 1009 2881 1497 
Q 2881 1984 2565 2268 
Q 2250 2553 1709 2553 
Q 1456 2553 1204 2497 
Q 953 2441 691 2322 
L 691 4666 
z
" transform="scale(0.015625)"/>
       </defs>
       <use xlink:href="#DejaVuSans-35"/>
      </g>
     </g>
    </g>
    <g id="xtick_3">
     <g id="line2d_5">
      <path d="M 123.732614 139.32 
L 123.732614 0.72 
" clip-path="url(#p5edb934a83)" style="fill: none; stroke-dasharray: 0.8,1.32; stroke-dashoffset: 0; stroke: #000000; stroke-opacity: 0.5; stroke-width: 0.8"/>
     </g>
     <g id="line2d_6">
      <g>
       <use xlink:href="#m9e4690a152" x="123.732614" y="139.32" style="stroke: #000000; stroke-width: 0.8"/>
      </g>
     </g>
     <g id="text_3">
      <!-- 10 -->
      <g transform="translate(117.370114 153.918437) scale(0.1 -0.1)">
       <defs>
        <path id="DejaVuSans-31" d="M 794 531 
L 1825 531 
L 1825 4091 
L 703 3866 
L 703 4441 
L 1819 4666 
L 2450 4666 
L 2450 531 
L 3481 531 
L 3481 0 
L 794 0 
L 794 531 
z
" transform="scale(0.015625)"/>
       </defs>
       <use xlink:href="#DejaVuSans-31"/>
       <use xlink:href="#DejaVuSans-30" x="63.623047"/>
      </g>
     </g>
    </g>
    <g id="xtick_4">
     <g id="line2d_7">
      <path d="M 166.347514 139.32 
L 166.347514 0.72 
" clip-path="url(#p5edb934a83)" style="fill: none; stroke-dasharray: 0.8,1.32; stroke-dashoffset: 0; stroke: #000000; stroke-opacity: 0.5; stroke-width: 0.8"/>
     </g>
     <g id="line2d_8">
      <g>
       <use xlink:href="#m9e4690a152" x="166.347514" y="139.32" style="stroke: #000000; stroke-width: 0.8"/>
      </g>
     </g>
     <g id="text_4">
      <!-- 15 -->
      <g transform="translate(159.985014 153.918437) scale(0.1 -0.1)">
       <use xlink:href="#DejaVuSans-31"/>
       <use xlink:href="#DejaVuSans-35" x="63.623047"/>
      </g>
     </g>
    </g>
    <g id="xtick_5">
     <g id="line2d_9">
      <path d="M 208.962415 139.32 
L 208.962415 0.72 
" clip-path="url(#p5edb934a83)" style="fill: none; stroke-dasharray: 0.8,1.32; stroke-dashoffset: 0; stroke: #000000; stroke-opacity: 0.5; stroke-width: 0.8"/>
     </g>
     <g id="line2d_10">
      <g>
       <use xlink:href="#m9e4690a152" x="208.962415" y="139.32" style="stroke: #000000; stroke-width: 0.8"/>
      </g>
     </g>
     <g id="text_5">
      <!-- 20 -->
      <g transform="translate(202.599915 153.918437) scale(0.1 -0.1)">
       <defs>
        <path id="DejaVuSans-32" d="M 1228 531 
L 3431 531 
L 3431 0 
L 469 0 
L 469 531 
Q 828 903 1448 1529 
Q 2069 2156 2228 2338 
Q 2531 2678 2651 2914 
Q 2772 3150 2772 3378 
Q 2772 3750 2511 3984 
Q 2250 4219 1831 4219 
Q 1534 4219 1204 4116 
Q 875 4013 500 3803 
L 500 4441 
Q 881 4594 1212 4672 
Q 1544 4750 1819 4750 
Q 2544 4750 2975 4387 
Q 3406 4025 3406 3419 
Q 3406 3131 3298 2873 
Q 3191 2616 2906 2266 
Q 2828 2175 2409 1742 
Q 1991 1309 1228 531 
z
" transform="scale(0.015625)"/>
       </defs>
       <use xlink:href="#DejaVuSans-32"/>
       <use xlink:href="#DejaVuSans-30" x="63.623047"/>
      </g>
     </g>
    </g>
    <g id="xtick_6">
     <g id="line2d_11">
      <path d="M 251.577315 139.32 
L 251.577315 0.72 
" clip-path="url(#p5edb934a83)" style="fill: none; stroke-dasharray: 0.8,1.32; stroke-dashoffset: 0; stroke: #000000; stroke-opacity: 0.5; stroke-width: 0.8"/>
     </g>
     <g id="line2d_12">
      <g>
       <use xlink:href="#m9e4690a152" x="251.577315" y="139.32" style="stroke: #000000; stroke-width: 0.8"/>
      </g>
     </g>
     <g id="text_6">
      <!-- 25 -->
      <g transform="translate(245.214815 153.918437) scale(0.1 -0.1)">
       <use xlink:href="#DejaVuSans-32"/>
       <use xlink:href="#DejaVuSans-35" x="63.623047"/>
      </g>
     </g>
    </g>
    <g id="xtick_7">
     <g id="line2d_13">
      <path d="M 294.192216 139.32 
L 294.192216 0.72 
" clip-path="url(#p5edb934a83)" style="fill: none; stroke-dasharray: 0.8,1.32; stroke-dashoffset: 0; stroke: #000000; stroke-opacity: 0.5; stroke-width: 0.8"/>
     </g>
     <g id="line2d_14">
      <g>
       <use xlink:href="#m9e4690a152" x="294.192216" y="139.32" style="stroke: #000000; stroke-width: 0.8"/>
      </g>
     </g>
     <g id="text_7">
      <!-- 30 -->
      <g transform="translate(287.829716 153.918437) scale(0.1 -0.1)">
       <defs>
        <path id="DejaVuSans-33" d="M 2597 2516 
Q 3050 2419 3304 2112 
Q 3559 1806 3559 1356 
Q 3559 666 3084 287 
Q 2609 -91 1734 -91 
Q 1441 -91 1130 -33 
Q 819 25 488 141 
L 488 750 
Q 750 597 1062 519 
Q 1375 441 1716 441 
Q 2309 441 2620 675 
Q 2931 909 2931 1356 
Q 2931 1769 2642 2001 
Q 2353 2234 1838 2234 
L 1294 2234 
L 1294 2753 
L 1863 2753 
Q 2328 2753 2575 2939 
Q 2822 3125 2822 3475 
Q 2822 3834 2567 4026 
Q 2313 4219 1838 4219 
Q 1578 4219 1281 4162 
Q 984 4106 628 3988 
L 628 4550 
Q 988 4650 1302 4700 
Q 1616 4750 1894 4750 
Q 2613 4750 3031 4423 
Q 3450 4097 3450 3541 
Q 3450 3153 3228 2886 
Q 3006 2619 2597 2516 
z
" transform="scale(0.015625)"/>
       </defs>
       <use xlink:href="#DejaVuSans-33"/>
       <use xlink:href="#DejaVuSans-30" x="63.623047"/>
      </g>
     </g>
    </g>
    <g id="text_8">
     <!-- Zeit [s] -->
     <g transform="translate(160.056719 163.596562) scale(0.1 -0.1)">
      <defs>
       <path id="DejaVuSans-5a" d="M 359 4666 
L 4025 4666 
L 4025 4184 
L 1075 531 
L 4097 531 
L 4097 0 
L 288 0 
L 288 481 
L 3238 4134 
L 359 4134 
L 359 4666 
z
" transform="scale(0.015625)"/>
       <path id="DejaVuSans-65" d="M 3597 1894 
L 3597 1613 
L 953 1613 
Q 991 1019 1311 708 
Q 1631 397 2203 397 
Q 2534 397 2845 478 
Q 3156 559 3463 722 
L 3463 178 
Q 3153 47 2828 -22 
Q 2503 -91 2169 -91 
Q 1331 -91 842 396 
Q 353 884 353 1716 
Q 353 2575 817 3079 
Q 1281 3584 2069 3584 
Q 2775 3584 3186 3129 
Q 3597 2675 3597 1894 
z
M 3022 2063 
Q 3016 2534 2758 2815 
Q 2500 3097 2075 3097 
Q 1594 3097 1305 2825 
Q 1016 2553 972 2059 
L 3022 2063 
z
" transform="scale(0.015625)"/>
       <path id="DejaVuSans-69" d="M 603 3500 
L 1178 3500 
L 1178 0 
L 603 0 
L 603 3500 
z
M 603 4863 
L 1178 4863 
L 1178 4134 
L 603 4134 
L 603 4863 
z
" transform="scale(0.015625)"/>
       <path id="DejaVuSans-74" d="M 1172 4494 
L 1172 3500 
L 2356 3500 
L 2356 3053 
L 1172 3053 
L 1172 1153 
Q 1172 725 1289 603 
Q 1406 481 1766 481 
L 2356 481 
L 2356 0 
L 1766 0 
Q 1100 0 847 248 
Q 594 497 594 1153 
L 594 3053 
L 172 3053 
L 172 3500 
L 594 3500 
L 594 4494 
L 1172 4494 
z
" transform="scale(0.015625)"/>
       <path id="DejaVuSans-20" transform="scale(0.015625)"/>
       <path id="DejaVuSans-5b" d="M 550 4863 
L 1875 4863 
L 1875 4416 
L 1125 4416 
L 1125 -397 
L 1875 -397 
L 1875 -844 
L 550 -844 
L 550 4863 
z
" transform="scale(0.015625)"/>
       <path id="DejaVuSans-73" d="M 2834 3397 
L 2834 2853 
Q 2591 2978 2328 3040 
Q 2066 3103 1784 3103 
Q 1356 3103 1142 2972 
Q 928 2841 928 2578 
Q 928 2378 1081 2264 
Q 1234 2150 1697 2047 
L 1894 2003 
Q 2506 1872 2764 1633 
Q 3022 1394 3022 966 
Q 3022 478 2636 193 
Q 2250 -91 1575 -91 
Q 1294 -91 989 -36 
Q 684 19 347 128 
L 347 722 
Q 666 556 975 473 
Q 1284 391 1588 391 
Q 1994 391 2212 530 
Q 2431 669 2431 922 
Q 2431 1156 2273 1281 
Q 2116 1406 1581 1522 
L 1381 1569 
Q 847 1681 609 1914 
Q 372 2147 372 2553 
Q 372 3047 722 3315 
Q 1072 3584 1716 3584 
Q 2034 3584 2315 3537 
Q 2597 3491 2834 3397 
z
" transform="scale(0.015625)"/>
       <path id="DejaVuSans-5d" d="M 1947 4863 
L 1947 -844 
L 622 -844 
L 622 -397 
L 1369 -397 
L 1369 4416 
L 622 4416 
L 622 4863 
L 1947 4863 
z
" transform="scale(0.015625)"/>
      </defs>
      <use xlink:href="#DejaVuSans-5a"/>
      <use xlink:href="#DejaVuSans-65" x="68.505859"/>
      <use xlink:href="#DejaVuSans-69" x="130.029297"/>
      <use xlink:href="#DejaVuSans-74" x="157.8125"/>
      <use xlink:href="#DejaVuSans-20" x="197.021484"/>
      <use xlink:href="#DejaVuSans-5b" x="228.808594"/>
      <use xlink:href="#DejaVuSans-73" x="267.822266"/>
      <use xlink:href="#DejaVuSans-5d" x="319.921875"/>
     </g>
    </g>
   </g>
   <g id="matplotlib.axis_2">
    <g id="ytick_1">
     <g id="line2d_15">
      <path d="M 38.502813 127.835556 
L 317.502813 127.835556 
" clip-path="url(#p5edb934a83)" style="fill: none; stroke-dasharray: 0.8,1.32; stroke-dashoffset: 0; stroke: #000000; stroke-opacity: 0.5; stroke-width: 0.8"/>
     </g>
     <g id="line2d_16">
      <defs>
       <path id="m52be3b1378" d="M 0 0 
L -3.5 0 
" style="stroke: #000000; stroke-width: 0.8"/>
      </defs>
      <g>
       <use xlink:href="#m52be3b1378" x="38.502813" y="127.835556" style="stroke: #000000; stroke-width: 0.8"/>
      </g>
     </g>
     <g id="text_9">
      <!-- −30 -->
      <g transform="translate(10.398125 131.634774) scale(0.1 -0.1)">
       <defs>
        <path id="DejaVuSans-2212" d="M 678 2272 
L 4684 2272 
L 4684 1741 
L 678 1741 
L 678 2272 
z
" transform="scale(0.015625)"/>
       </defs>
       <use xlink:href="#DejaVuSans-2212"/>
       <use xlink:href="#DejaVuSans-33" x="83.789062"/>
       <use xlink:href="#DejaVuSans-30" x="147.412109"/>
      </g>
     </g>
    </g>
    <g id="ytick_2">
     <g id="line2d_17">
      <path d="M 38.502813 89.252285 
L 317.502813 89.252285 
" clip-path="url(#p5edb934a83)" style="fill: none; stroke-dasharray: 0.8,1.32; stroke-dashoffset: 0; stroke: #000000; stroke-opacity: 0.5; stroke-width: 0.8"/>
     </g>
     <g id="line2d_18">
      <g>
       <use xlink:href="#m52be3b1378" x="38.502813" y="89.252285" style="stroke: #000000; stroke-width: 0.8"/>
      </g>
     </g>
     <g id="text_10">
      <!-- −20 -->
      <g transform="translate(10.398125 93.051504) scale(0.1 -0.1)">
       <use xlink:href="#DejaVuSans-2212"/>
       <use xlink:href="#DejaVuSans-32" x="83.789062"/>
       <use xlink:href="#DejaVuSans-30" x="147.412109"/>
      </g>
     </g>
    </g>
    <g id="ytick_3">
     <g id="line2d_19">
      <path d="M 38.502813 50.669014 
L 317.502813 50.669014 
" clip-path="url(#p5edb934a83)" style="fill: none; stroke-dasharray: 0.8,1.32; stroke-dashoffset: 0; stroke: #000000; stroke-opacity: 0.5; stroke-width: 0.8"/>
     </g>
     <g id="line2d_20">
      <g>
       <use xlink:href="#m52be3b1378" x="38.502813" y="50.669014" style="stroke: #000000; stroke-width: 0.8"/>
      </g>
     </g>
     <g id="text_11">
      <!-- −10 -->
      <g transform="translate(10.398125 54.468233) scale(0.1 -0.1)">
       <use xlink:href="#DejaVuSans-2212"/>
       <use xlink:href="#DejaVuSans-31" x="83.789062"/>
       <use xlink:href="#DejaVuSans-30" x="147.412109"/>
      </g>
     </g>
    </g>
    <g id="ytick_4">
     <g id="line2d_21">
      <path d="M 38.502813 12.085744 
L 317.502813 12.085744 
" clip-path="url(#p5edb934a83)" style="fill: none; stroke-dasharray: 0.8,1.32; stroke-dashoffset: 0; stroke: #000000; stroke-opacity: 0.5; stroke-width: 0.8"/>
     </g>
     <g id="line2d_22">
      <g>
       <use xlink:href="#m52be3b1378" x="38.502813" y="12.085744" style="stroke: #000000; stroke-width: 0.8"/>
      </g>
     </g>
     <g id="text_12">
      <!-- 0 -->
      <g transform="translate(25.140313 15.884962) scale(0.1 -0.1)">
       <use xlink:href="#DejaVuSans-30"/>
      </g>
     </g>
    </g>
    <g id="text_13">
     <!-- Kraft [N] -->
     <g transform="translate(8.318438 91.2825) rotate(-90) scale(0.1 -0.1)">
      <defs>
       <path id="DejaVuSans-4b" d="M 628 4666 
L 1259 4666 
L 1259 2694 
L 3353 4666 
L 4166 4666 
L 1850 2491 
L 4331 0 
L 3500 0 
L 1259 2247 
L 1259 0 
L 628 0 
L 628 4666 
z
" transform="scale(0.015625)"/>
       <path id="DejaVuSans-72" d="M 2631 2963 
Q 2534 3019 2420 3045 
Q 2306 3072 2169 3072 
Q 1681 3072 1420 2755 
Q 1159 2438 1159 1844 
L 1159 0 
L 581 0 
L 581 3500 
L 1159 3500 
L 1159 2956 
Q 1341 3275 1631 3429 
Q 1922 3584 2338 3584 
Q 2397 3584 2469 3576 
Q 2541 3569 2628 3553 
L 2631 2963 
z
" transform="scale(0.015625)"/>
       <path id="DejaVuSans-61" d="M 2194 1759 
Q 1497 1759 1228 1600 
Q 959 1441 959 1056 
Q 959 750 1161 570 
Q 1363 391 1709 391 
Q 2188 391 2477 730 
Q 2766 1069 2766 1631 
L 2766 1759 
L 2194 1759 
z
M 3341 1997 
L 3341 0 
L 2766 0 
L 2766 531 
Q 2569 213 2275 61 
Q 1981 -91 1556 -91 
Q 1019 -91 701 211 
Q 384 513 384 1019 
Q 384 1609 779 1909 
Q 1175 2209 1959 2209 
L 2766 2209 
L 2766 2266 
Q 2766 2663 2505 2880 
Q 2244 3097 1772 3097 
Q 1472 3097 1187 3025 
Q 903 2953 641 2809 
L 641 3341 
Q 956 3463 1253 3523 
Q 1550 3584 1831 3584 
Q 2591 3584 2966 3190 
Q 3341 2797 3341 1997 
z
" transform="scale(0.015625)"/>
       <path id="DejaVuSans-66" d="M 2375 4863 
L 2375 4384 
L 1825 4384 
Q 1516 4384 1395 4259 
Q 1275 4134 1275 3809 
L 1275 3500 
L 2222 3500 
L 2222 3053 
L 1275 3053 
L 1275 0 
L 697 0 
L 697 3053 
L 147 3053 
L 147 3500 
L 697 3500 
L 697 3744 
Q 697 4328 969 4595 
Q 1241 4863 1831 4863 
L 2375 4863 
z
" transform="scale(0.015625)"/>
       <path id="DejaVuSans-4e" d="M 628 4666 
L 1478 4666 
L 3547 763 
L 3547 4666 
L 4159 4666 
L 4159 0 
L 3309 0 
L 1241 3903 
L 1241 0 
L 628 0 
L 628 4666 
z
" transform="scale(0.015625)"/>
      </defs>
      <use xlink:href="#DejaVuSans-4b"/>
      <use xlink:href="#DejaVuSans-72" x="65.576172"/>
      <use xlink:href="#DejaVuSans-61" x="106.689453"/>
      <use xlink:href="#DejaVuSans-66" x="167.96875"/>
      <use xlink:href="#DejaVuSans-74" x="201.423828"/>
      <use xlink:href="#DejaVuSans-20" x="240.632812"/>
      <use xlink:href="#DejaVuSans-5b" x="272.419922"/>
      <use xlink:href="#DejaVuSans-4e" x="311.433594"/>
      <use xlink:href="#DejaVuSans-5d" x="386.238281"/>
     </g>
    </g>
   </g>
   <g id="line2d_23">
    <path d="M 38.502813 134.186666 
L 317.502813 134.186666 
L 317.502813 134.186666 
" clip-path="url(#p5edb934a83)" style="fill: none; stroke: #0000ff; stroke-opacity: 0.5; stroke-width: 3; stroke-linecap: square"/>
   </g>
   <g id="line2d_24">
    <path d="M 38.502813 13.058224 
L 38.710162 9.939563 
L 38.801142 10.364754 
L 38.816261 12.186596 
L 38.867107 11.302714 
L 38.937955 11.460036 
L 38.987701 14.352298 
L 39.054575 13.975297 
L 39.123721 13.293941 
L 39.210438 13.66191 
L 39.28474 12.901325 
L 39.363887 14.91841 
L 39.415198 14.7569 
L 39.552732 13.061204 
L 39.621893 13.992626 
L 39.725071 13.238709 
L 39.845046 14.693317 
L 39.913318 13.357022 
L 39.999402 13.717468 
L 40.119484 12.765925 
L 40.290597 15.580782 
L 40.703919 12.402316 
L 40.824026 12.917513 
L 40.84376 13.97342 
L 40.910015 13.284569 
L 40.979512 13.133396 
L 41.188476 11.464994 
L 41.407672 13.004099 
L 41.683823 9.528817 
L 41.752825 9.910993 
L 41.82626 11.453444 
L 41.898126 11.269006 
L 41.977546 10.038398 
L 42.115449 11.384361 
L 42.397027 13.043445 
L 42.463432 11.634021 
L 42.544375 12.080366 
L 42.820073 14.051747 
L 42.887882 13.867211 
L 43.031552 11.332514 
L 43.182564 12.742293 
L 43.251297 12.374615 
L 43.458012 15.174798 
L 43.595452 13.160316 
L 43.66547 13.664167 
L 43.888037 14.648821 
L 43.957312 15.937073 
L 44.025648 15.449129 
L 44.173615 13.866533 
L 44.235085 14.315319 
L 44.317381 13.765167 
L 44.386279 13.788719 
L 44.537043 15.001416 
L 44.5937 14.363712 
L 44.663514 14.71671 
L 44.80118 13.453852 
L 44.868516 12.847818 
L 45.030289 15.070503 
L 45.092202 16.176949 
L 45.1595 15.739188 
L 45.454849 12.251954 
L 45.52128 13.112549 
L 45.661553 11.622243 
L 46.03883 14.455042 
L 46.296507 11.91012 
L 46.416589 13.592074 
L 46.656398 7.458999 
L 46.725466 8.590376 
L 46.794302 9.032544 
L 46.933688 13.25621 
L 47.021211 12.462302 
L 47.074457 11.440694 
L 47.145972 11.595868 
L 47.502827 13.804189 
L 47.728844 12.350154 
L 47.799025 12.532518 
L 48.021839 11.19888 
L 48.075121 11.473862 
L 48.145464 11.661317 
L 48.301741 13.800119 
L 48.430279 13.218448 
L 48.522603 12.988986 
L 48.669811 11.468511 
L 48.685883 12.576986 
L 48.827638 15.432988 
L 48.889978 15.3232 
L 48.966308 13.770845 
L 49.155811 11.701743 
L 49.241261 12.001787 
L 49.378515 13.898848 
L 49.584792 11.011195 
L 49.724068 12.793195 
L 49.791423 13.226739 
L 50.003123 11.54525 
L 50.22084 13.585654 
L 50.273652 14.20384 
L 50.437315 10.981524 
L 50.495962 11.220332 
L 50.726597 13.475021 
L 51.079127 9.237126 
L 51.130907 9.445405 
L 51.4744 11.704324 
L 51.542891 11.106723 
L 51.629405 12.146789 
L 51.835535 16.742335 
L 51.920982 16.301182 
L 52.196024 12.303482 
L 52.264612 12.661083 
L 52.350631 12.204768 
L 52.556719 9.897465 
L 52.624981 10.144347 
L 52.951256 14.264882 
L 52.98535 11.954502 
L 53.043661 12.005957 
L 53.122338 13.121205 
L 53.573256 8.605543 
L 53.622037 9.09428 
L 53.690747 11.322882 
L 53.770906 11.218026 
L 53.828326 9.668389 
L 53.948115 10.158734 
L 53.999464 10.145998 
L 54.05152 9.875432 
L 54.188342 11.581768 
L 54.429518 9.29615 
L 54.481627 9.745177 
L 54.550077 11.616905 
L 54.618691 11.251087 
L 54.721602 11.309693 
L 54.876244 10.514146 
L 55.030977 11.035457 
L 55.08244 10.936776 
L 55.134341 11.001517 
L 55.23291 11.411172 
L 55.254494 11.264701 
L 55.619675 9.484147 
L 55.774386 11.617844 
L 55.906914 10.423801 
L 56.028113 10.646081 
L 56.084524 11.045196 
L 56.123208 10.334629 
L 56.123281 11.113916 
L 56.191641 10.716362 
L 56.392748 10.375581 
L 56.424797 10.72961 
L 56.442932 9.915221 
L 56.510366 10.085402 
L 56.590416 11.268759 
L 56.606988 10.900028 
L 56.675882 11.505613 
L 56.75791 10.759999 
L 56.83681 10.796062 
L 56.938144 11.414401 
L 57.036902 11.159778 
L 57.108713 11.39394 
L 57.245415 10.639217 
L 57.347824 11.977315 
L 57.382324 9.659741 
L 57.451505 10.166406 
L 57.674631 16.520301 
L 57.742921 15.173174 
L 57.880559 13.043837 
L 57.983472 13.544428 
L 58.038542 11.303566 
L 58.104819 11.969709 
L 58.262831 13.228624 
L 58.400975 11.949346 
L 58.469549 11.10656 
L 58.519282 11.127917 
L 58.691279 11.352244 
L 58.76008 12.772799 
L 58.812599 12.757517 
L 59.087057 10.330384 
L 59.241076 11.457066 
L 59.397162 13.493729 
L 59.466163 13.144503 
L 59.672071 15.311172 
L 59.878274 16.618253 
L 59.89471 16.24252 
L 60.63323 12.858866 
L 61.033947 12.262859 
L 61.408502 12.638295 
L 61.42368 13.675587 
L 61.508839 12.716891 
L 61.578305 11.874687 
L 61.716443 14.040638 
L 61.973675 7.947247 
L 61.992226 9.47219 
L 62.197909 10.452654 
L 62.333997 12.210496 
L 62.456626 10.116882 
L 62.695284 13.113371 
L 62.852911 10.197881 
L 62.925868 9.864108 
L 63.056678 10.796115 
L 63.228567 15.485368 
L 63.280531 15.221593 
L 63.365046 13.737345 
L 63.527036 16.149629 
L 63.623048 16.094498 
L 63.779487 12.585622 
L 63.915327 12.988529 
L 64.104261 15.192205 
L 64.246226 13.862852 
L 64.293443 13.887186 
L 64.384276 14.661012 
L 64.43079 14.266236 
L 64.500395 12.314717 
L 64.564881 13.46596 
L 64.668097 13.798925 
L 64.908602 12.350424 
L 65.06313 12.840048 
L 65.131639 13.30211 
L 65.200615 13.211116 
L 65.354852 12.268386 
L 65.424429 11.828629 
L 65.475639 12.244027 
L 65.629586 11.458843 
L 65.69859 11.566093 
L 65.786306 11.774406 
L 65.921414 13.374598 
L 66.059668 11.932448 
L 66.197282 13.947074 
L 66.334708 16.395702 
L 66.473863 15.334504 
L 66.611232 13.626807 
L 66.76472 15.074616 
L 66.901831 11.310777 
L 67.021225 10.868592 
L 67.038245 9.958586 
L 67.125929 10.701729 
L 67.27235 10.967988 
L 67.272637 10.648569 
L 67.356799 12.327376 
L 67.682351 8.38664 
L 67.852737 5.853333 
L 67.973043 6.219506 
L 68.17856 7.815371 
L 68.539378 16.103126 
L 68.607707 15.307834 
L 68.727564 15.026639 
L 68.74681 15.088001 
L 68.883407 15.638247 
L 68.967479 14.79676 
L 69.040377 14.9458 
L 69.10621 14.562575 
L 69.314596 11.131267 
L 69.449741 10.99685 
L 69.501285 9.814381 
L 69.539229 9.863158 
L 69.604415 10.158653 
L 69.741555 8.506884 
L 69.811009 8.5514 
L 70.069888 13.151985 
L 70.188371 11.904792 
L 70.377677 13.245269 
L 70.514808 13.855683 
L 70.619174 10.763788 
L 70.823792 12.096903 
L 70.89336 12.892813 
L 70.944241 12.394319 
L 71.100143 11.769743 
L 71.169398 11.196713 
L 71.27073 12.407156 
L 71.340118 12.149512 
L 71.39113 11.227721 
L 71.4633 11.599402 
L 71.526354 12.589404 
L 71.656407 9.099748 
L 71.998767 13.033428 
L 72.049126 14.163329 
L 72.101365 13.61664 
L 72.151687 13.09414 
L 72.237876 13.340404 
L 72.378811 18.68428 
L 72.444756 17.42098 
L 72.51382 15.943615 
L 72.583583 15.97264 
L 72.655906 17.15918 
L 72.722383 16.374638 
L 72.944109 18.140955 
L 73.13319 18.134955 
L 73.150059 15.172675 
L 73.219557 17.430601 
L 73.339799 16.00799 
L 73.442745 13.31067 
L 73.51116 13.294724 
L 73.641938 13.036634 
L 73.718468 10.161587 
L 73.785348 11.639678 
L 73.802397 11.395755 
L 73.913373 10.445608 
L 73.944711 8.85339 
L 74.148013 12.485057 
L 74.288476 12.267174 
L 74.353038 12.127721 
L 74.543144 15.439597 
L 74.577475 15.538842 
L 74.716431 16.407439 
L 74.75684 16.091308 
L 74.784679 16.093461 
L 74.939923 15.009816 
L 75.028096 15.336106 
L 75.06669 16.025584 
L 75.215224 13.384879 
L 75.344646 13.941347 
L 75.489664 15.966217 
L 75.61843 15.196514 
L 75.655809 15.261966 
L 76.006118 19.619764 
L 76.422612 12.95406 
L 76.507503 12.928988 
L 76.576302 12.593303 
L 76.631622 11.575774 
L 76.7133 11.619568 
L 76.85091 9.806764 
L 76.919314 10.332965 
L 77.130506 12.292468 
L 77.143943 9.879547 
L 77.212925 12.037319 
L 77.265255 12.074522 
L 77.369067 12.929591 
L 77.41955 11.892169 
L 77.574522 14.654969 
L 77.629199 14.099345 
L 77.713747 11.788756 
L 77.728376 13.182841 
L 77.849173 14.489374 
L 78.056973 11.903485 
L 78.229201 13.801125 
L 78.351262 12.487067 
L 78.400451 14.057862 
L 78.556306 12.96414 
L 78.641789 14.13376 
L 78.7141 13.789469 
L 78.762406 13.727346 
L 78.90024 11.974672 
L 79.024026 12.079847 
L 79.040923 12.303146 
L 79.129486 11.314552 
L 79.195858 11.495492 
L 79.26639 11.906512 
L 79.469907 10.207658 
L 79.899954 14.130759 
L 80.037557 13.033342 
L 80.123544 13.257719 
L 80.260101 14.947883 
L 80.677947 10.031617 
L 80.812472 13.085374 
L 80.88104 12.927623 
L 80.983764 11.062607 
L 81.035567 11.333749 
L 81.189576 9.400363 
L 81.674335 15.297162 
L 81.870087 16.833013 
L 81.912743 16.486316 
L 82.307811 11.711998 
L 82.464388 10.913638 
L 82.549071 11.115927 
L 82.687184 13.302378 
L 82.806602 12.615947 
L 83.183962 14.240972 
L 83.253868 14.021173 
L 83.304758 13.305684 
L 83.460063 14.928998 
L 83.634476 13.544352 
L 83.890861 14.851731 
L 83.945224 16.276515 
L 84.011853 16.030159 
L 84.183846 14.921711 
L 84.334322 16.388931 
L 84.450018 13.257757 
L 84.541207 14.511993 
L 84.615284 14.594319 
L 84.770118 12.372059 
L 84.809091 13.556577 
L 84.958934 11.309289 
L 85.010173 11.32407 
L 85.147941 11.176906 
L 85.201407 11.887278 
L 85.236703 10.725037 
L 85.291634 10.729815 
L 85.443342 10.799623 
L 85.512956 10.020838 
L 85.580141 11.223201 
L 85.6487 10.830858 
L 85.718255 10.29817 
L 85.788913 11.411298 
L 85.873831 11.674868 
L 85.947378 13.179511 
L 86.010081 11.70739 
L 86.0781 12.140735 
L 86.36414 13.9867 
L 86.507354 13.697844 
L 86.577572 14.05849 
L 86.644267 12.47297 
L 86.7176 12.706878 
L 86.78416 13.421759 
L 87.004823 10.760173 
L 87.074433 10.957663 
L 87.142399 11.263382 
L 87.210668 10.274028 
L 87.281601 10.369242 
L 87.434511 13.762387 
L 87.572368 11.646744 
L 87.641047 11.674759 
L 87.7785 12.34336 
L 87.846886 12.091735 
L 88.002396 12.681856 
L 88.140297 11.03529 
L 88.208124 11.365188 
L 88.348024 13.411625 
L 88.500426 11.363355 
L 88.775164 10.360672 
L 88.852316 9.63832 
L 89.154822 13.173271 
L 89.204579 12.498649 
L 89.276399 10.928866 
L 89.427663 12.896611 
L 89.480503 12.132827 
L 89.556002 13.241694 
L 89.703132 11.224232 
L 89.771904 11.235357 
L 89.842583 10.959921 
L 89.978916 13.371884 
L 90.048211 13.111871 
L 90.134647 12.034238 
L 90.190294 12.262164 
L 90.272847 12.379627 
L 90.339978 13.539549 
L 90.409977 13.003427 
L 90.489432 13.338236 
L 90.495064 11.925675 
L 90.547372 12.161758 
L 90.702385 10.535776 
L 90.909121 12.470891 
L 90.96072 11.935597 
L 90.978429 12.389722 
L 91.048297 12.462247 
L 91.209324 13.608686 
L 91.288808 12.864392 
L 91.33998 13.056861 
L 91.40919 13.723812 
L 91.546233 12.018493 
L 91.614691 13.428925 
L 91.683888 12.704348 
L 91.753267 12.075342 
L 91.859504 13.249891 
L 91.910561 12.735154 
L 92.05244 14.214078 
L 92.06596 15.528336 
L 92.116895 14.962434 
L 92.237365 14.927933 
L 92.323235 12.167964 
L 92.478257 12.246121 
L 92.546939 12.678185 
L 92.564235 11.97241 
L 92.771823 12.571792 
L 92.857882 10.74956 
L 92.910278 11.411102 
L 93.235263 16.030234 
L 93.322296 15.3212 
L 93.408686 15.534774 
L 93.460541 14.276235 
L 93.476107 15.87899 
L 93.545602 16.072263 
L 93.700582 17.111972 
L 93.838221 14.191485 
L 93.88806 12.760039 
L 93.957536 13.328191 
L 94.02613 12.100365 
L 94.130082 12.110616 
L 94.19886 12.765632 
L 94.215066 11.041597 
L 94.285658 12.093514 
L 94.370323 10.859819 
L 94.421532 11.969824 
L 94.507762 11.708113 
L 94.594889 12.837835 
L 94.697064 12.352116 
L 94.766568 13.526896 
L 94.817481 11.570706 
L 95.174335 14.524512 
L 95.228951 14.057107 
L 95.263628 13.881914 
L 95.383512 14.231264 
L 95.426368 14.026548 
L 95.555345 16.634069 
L 95.625374 14.924299 
L 95.764787 16.38895 
L 95.813615 14.313821 
L 95.88237 15.045032 
L 96.078412 14.826358 
L 96.097344 15.564869 
L 96.161559 14.322503 
L 96.313858 15.686282 
L 96.456919 14.237741 
L 96.520778 14.890739 
L 96.897474 12.133757 
L 96.948736 11.822177 
L 97.037992 10.537993 
L 97.105556 11.908854 
L 97.157945 11.5929 
L 97.241955 10.499981 
L 97.294248 11.310081 
L 97.433198 11.680093 
L 97.466164 12.577645 
L 97.653717 11.085068 
L 97.829635 11.743652 
L 97.884365 11.706942 
L 98.014434 13.542268 
L 98.085014 12.605843 
L 98.151988 12.842747 
L 98.191016 12.801345 
L 98.448173 14.675257 
L 98.618698 13.071052 
L 98.704659 12.464127 
L 98.722173 12.866921 
L 99.134479 17.268594 
L 99.170935 15.514963 
L 99.254661 16.212883 
L 99.307526 17.230381 
L 99.512261 15.847745 
L 99.581065 15.337696 
L 99.655319 15.950382 
L 99.718066 14.822706 
L 99.856245 15.0923 
L 100.010043 13.690672 
L 100.148872 14.226286 
L 100.216422 14.093124 
L 100.474006 11.290359 
L 100.57722 12.537725 
L 100.870374 11.577528 
L 100.941175 11.000779 
L 101.214361 12.38508 
L 101.285639 12.351201 
L 101.36099 11.8242 
L 101.421474 12.092354 
L 101.541702 12.798673 
L 101.918929 10.305873 
L 102.49368 15.996626 
L 102.6931 16.226768 
L 102.848262 13.189211 
L 102.994358 14.728337 
L 103.261277 12.460497 
L 103.346115 12.345521 
L 103.484337 13.984389 
L 103.552838 12.908909 
L 103.621193 13.066372 
L 103.982701 15.713468 
L 104.050009 15.699381 
L 104.18825 15.081017 
L 104.257206 15.87645 
L 104.357164 15.623686 
L 104.6171 12.718474 
L 104.825781 14.167249 
L 105.120705 12.438683 
L 105.185323 12.650866 
L 105.253269 14.142262 
L 105.324456 14.01388 
L 105.552988 12.019681 
L 105.684355 12.421134 
L 105.821521 12.198149 
L 105.908367 13.67956 
L 105.961078 12.920025 
L 106.029367 11.005737 
L 106.116697 14.295799 
L 106.272114 13.146727 
L 106.321428 13.867334 
L 106.389914 13.428143 
L 106.458827 13.191985 
L 106.533712 14.388139 
L 106.613184 13.456386 
L 106.687305 14.38322 
L 106.857942 12.815703 
L 106.970433 16.076728 
L 107.047203 15.244765 
L 107.167173 16.835754 
L 107.235955 16.407986 
L 107.372413 16.81177 
L 107.406509 15.705535 
L 107.468579 15.801521 
L 107.527287 15.48776 
L 107.732813 12.380969 
L 107.767283 13.303187 
L 107.855971 13.480227 
L 107.957686 11.811744 
L 108.187476 12.906317 
L 108.318295 14.902925 
L 108.386647 14.929716 
L 108.455206 15.913248 
L 108.954543 10.413634 
L 109.092202 11.179205 
L 109.179094 9.637621 
L 109.298898 10.61255 
L 109.435915 12.804402 
L 109.867578 16.794469 
L 110.090046 15.522372 
L 110.157785 15.584724 
L 110.226807 15.860782 
L 110.398215 15.169098 
L 110.622417 12.66022 
L 110.673678 14.115235 
L 110.725856 13.913809 
L 110.950027 11.102938 
L 111.172317 13.400515 
L 111.278433 14.620136 
L 111.309445 17.027361 
L 111.326516 15.35765 
L 111.412778 14.244866 
L 111.435649 12.475304 
L 111.584455 15.214673 
L 111.656288 14.999282 
L 111.996801 8.941812 
L 112.081918 9.428003 
L 112.150287 10.606408 
L 112.236352 10.31068 
L 112.305086 10.614644 
L 112.461133 10.109935 
L 112.719675 13.901238 
L 112.789938 13.864989 
L 112.891156 13.869111 
L 112.925119 14.859116 
L 113.080329 13.909602 
L 113.234374 15.275588 
L 113.458279 13.653985 
L 113.494465 14.074417 
L 113.647154 11.767489 
L 113.715641 12.195383 
L 113.854636 12.765339 
L 113.932745 12.037923 
L 113.995132 12.467838 
L 114.034062 12.439324 
L 114.088153 12.710667 
L 114.230471 9.703562 
L 114.350481 11.740756 
L 114.45259 9.714496 
L 114.504426 10.482677 
L 114.642528 11.559469 
L 114.731648 10.903849 
L 114.858322 13.511087 
L 114.934456 14.903584 
L 115.004025 14.740587 
L 115.089574 14.078377 
L 115.248829 15.454689 
L 115.281941 14.285356 
L 115.348324 15.547731 
L 115.50274 14.147026 
L 115.778521 15.992814 
L 115.938615 14.19106 
L 116.176552 15.740451 
L 116.291378 15.341295 
L 116.491793 13.887315 
L 116.5257 14.222482 
L 116.691353 17.327489 
L 116.917128 17.835591 
L 116.985779 17.256914 
L 117.053761 17.507852 
L 117.277262 16.681571 
L 117.328691 16.767664 
L 117.639901 14.839741 
L 117.719768 15.151555 
L 117.89907 16.027949 
L 117.98461 15.873829 
L 118.296239 10.778336 
L 118.330067 11.734167 
L 118.398575 11.496509 
L 118.485102 10.278371 
L 118.552852 11.442165 
L 118.606864 10.281343 
L 118.725221 10.31476 
L 118.966214 15.32883 
L 119.034523 13.05151 
L 119.107194 13.815204 
L 119.19064 14.69918 
L 119.25856 13.73172 
L 119.327587 14.221955 
L 119.402978 14.348325 
L 119.47242 13.791268 
L 119.602149 14.096423 
L 119.636212 13.965017 
L 119.687815 12.397524 
L 119.775116 13.993319 
L 119.828103 13.509432 
L 120.052253 11.659722 
L 120.103144 11.767871 
L 120.21013 11.589642 
L 120.326508 10.107997 
L 120.446361 10.181796 
L 120.55014 8.202837 
L 120.738252 11.15905 
L 120.807077 10.403258 
L 120.892999 11.734731 
L 120.978369 11.454504 
L 121.068375 10.763715 
L 121.235308 14.271766 
L 121.305026 13.305726 
L 121.376136 13.368065 
L 121.459389 13.165795 
L 121.541034 13.897642 
L 121.596672 13.144423 
L 121.751019 15.194949 
L 121.82024 15.002004 
L 121.906768 15.144688 
L 122.031495 12.6459 
L 122.197373 12.851441 
L 122.318035 11.387487 
L 122.407938 11.438172 
L 122.553374 8.405616 
L 122.645942 8.088051 
L 122.782123 10.657938 
L 122.816993 9.692797 
L 122.885745 10.292726 
L 122.971757 10.15086 
L 123.040159 9.705196 
L 123.108542 10.361837 
L 123.246103 13.399125 
L 123.301153 13.787077 
L 123.505972 12.954292 
L 123.591424 14.586031 
L 123.60689 14.216756 
L 123.727708 16.392284 
L 123.865834 15.097379 
L 124.091459 16.234371 
L 124.157602 16.131715 
L 124.227835 16.249598 
L 124.3095 15.934557 
L 124.377646 15.006443 
L 124.463956 15.080971 
L 124.501372 15.497891 
L 124.738491 12.025287 
L 124.859707 12.80991 
L 124.929784 11.704703 
L 124.943818 11.89803 
L 125.046437 12.030761 
L 125.307114 15.10541 
L 125.511072 14.644648 
L 125.665682 15.083649 
L 125.723079 14.387135 
L 125.787459 15.136671 
L 125.997964 13.260975 
L 126.237543 15.089349 
L 126.307292 13.930013 
L 126.424629 16.088563 
L 126.494202 15.146569 
L 126.579658 15.429491 
L 126.752453 13.794232 
L 126.820154 14.106559 
L 126.957613 13.779054 
L 127.026677 13.277893 
L 127.202493 8.725177 
L 127.423115 12.062432 
L 127.646077 9.61474 
L 127.940137 12.586582 
L 127.990669 11.741607 
L 128.130817 10.718492 
L 128.230762 10.656483 
L 128.386532 13.047129 
L 128.402912 12.19261 
L 128.421174 13.00021 
L 128.627384 14.591581 
L 128.747558 14.067014 
L 128.801808 14.801592 
L 128.852264 14.597689 
L 129.024523 12.378217 
L 129.069246 12.839689 
L 129.12675 12.958328 
L 129.297981 12.375727 
L 129.486347 9.739565 
L 129.693137 11.898109 
L 129.761564 12.079357 
L 129.847505 12.83552 
L 129.935642 12.323388 
L 129.984852 12.353127 
L 130.193125 14.875332 
L 130.260233 14.260682 
L 130.331684 14.558756 
L 130.552123 13.155404 
L 130.689437 13.938138 
L 130.861177 13.160732 
L 130.999163 12.422931 
L 131.072795 10.9042 
L 131.873049 15.309526 
L 131.891029 14.307377 
L 131.970063 15.555454 
L 132.062394 15.446113 
L 132.183037 14.191355 
L 132.252967 15.786302 
L 132.337247 14.839148 
L 132.534342 17.527536 
L 132.629522 17.592004 
L 132.777066 15.363297 
L 132.846558 16.319064 
L 132.880388 15.560477 
L 132.968219 13.900692 
L 133.051704 15.477094 
L 133.121388 15.080955 
L 133.257402 13.228058 
L 133.379581 14.20559 
L 133.533881 11.838098 
L 133.550475 12.507673 
L 133.604311 12.794079 
L 133.673796 12.371998 
L 133.812913 10.377096 
L 133.912337 11.708963 
L 134.020125 9.736191 
L 134.291719 14.116414 
L 134.413559 12.921055 
L 134.515684 13.005614 
L 134.601372 10.819683 
L 134.670446 11.882949 
L 134.807596 13.388905 
L 134.876537 13.361794 
L 135.014548 12.601206 
L 135.169326 13.102018 
L 135.279685 13.440202 
L 135.375348 13.278164 
L 135.529752 8.807752 
L 135.667692 8.968609 
L 135.756284 10.325791 
L 135.861974 9.931894 
L 135.909011 10.160418 
L 136.182694 15.880608 
L 136.254219 15.949241 
L 136.578768 13.854345 
L 136.648582 13.707923 
L 136.814982 14.772752 
L 137.042826 12.397237 
L 137.180614 14.162838 
L 137.265646 14.109275 
L 137.300349 13.510436 
L 137.37771 13.925268 
L 137.438107 14.01897 
L 137.579788 11.922747 
L 137.677104 12.329561 
L 137.713653 13.295797 
L 137.867883 10.964249 
L 137.937296 11.445906 
L 138.00547 12.401945 
L 138.143918 11.154272 
L 138.290693 13.122515 
L 138.447228 9.463847 
L 138.530019 10.3292 
L 138.668364 12.169224 
L 138.924949 9.671417 
L 138.995453 9.932992 
L 139.148365 14.281617 
L 139.338284 13.167491 
L 139.355609 13.207398 
L 139.424498 13.104799 
L 139.647353 14.749596 
L 139.854477 12.513091 
L 139.926597 12.621221 
L 140.025522 12.34224 
L 140.07749 11.337022 
L 140.146255 11.437087 
L 140.215459 11.965971 
L 140.302018 10.17683 
L 140.351974 11.172225 
L 140.695172 14.035536 
L 140.80108 14.283995 
L 141.021486 16.019418 
L 141.143658 15.138985 
L 141.211856 14.083676 
L 141.301359 14.125904 
L 141.554887 13.190301 
L 141.641238 13.290591 
L 141.694275 14.37314 
L 141.762793 14.35351 
L 141.847362 14.282827 
L 141.916384 14.522611 
L 141.984148 14.167232 
L 142.345159 16.7909 
L 142.413252 15.094898 
L 142.537102 14.884164 
L 142.63663 16.201421 
L 142.792517 14.576644 
L 142.841638 12.643935 
L 142.910413 13.567416 
L 142.979819 13.64627 
L 143.047871 13.044771 
L 143.120301 13.792383 
L 143.133283 11.568449 
L 143.202231 12.971856 
L 143.271617 12.965029 
L 143.339719 12.70778 
L 143.425633 12.765851 
L 143.802203 15.644427 
L 143.838251 15.529887 
L 143.975541 15.92622 
L 144.02978 14.804683 
L 144.078808 15.088833 
L 144.130278 16.103391 
L 144.334339 13.113098 
L 144.532542 11.093566 
L 144.823075 13.638091 
L 145.115099 16.264892 
L 145.23607 16.332959 
L 145.272694 17.130418 
L 145.373232 16.885205 
L 145.392732 16.912635 
L 145.47686 17.317103 
L 145.544557 16.659019 
L 145.613405 17.529267 
L 145.684199 16.409742 
L 145.753521 16.561586 
L 145.961211 14.903904 
L 146.237386 10.71466 
L 146.562891 12.829111 
L 146.596225 12.525818 
L 146.699502 11.977099 
L 146.734992 10.968716 
L 146.804456 11.907317 
L 147.027215 11.795225 
L 147.164131 11.218467 
L 147.301206 11.542841 
L 147.455982 13.957811 
L 147.525194 13.608144 
L 147.594277 13.964589 
L 147.663043 15.529751 
L 147.733351 14.732387 
L 147.869443 14.387161 
L 147.94037 13.514198 
L 148.023448 14.588831 
L 148.091692 13.529591 
L 148.23045 15.570133 
L 148.454402 12.061432 
L 148.592289 13.728775 
L 148.679648 14.338732 
L 148.73116 13.777903 
L 148.799276 14.267303 
L 148.937112 11.967415 
L 149.087682 12.291381 
L 149.160417 11.366896 
L 149.229918 11.591358 
L 149.36935 12.156382 
L 149.503771 10.33024 
L 149.573265 12.00282 
L 149.64382 11.387648 
L 149.86599 12.606046 
L 150.000997 11.211498 
L 150.07495 11.770121 
L 150.14081 11.683497 
L 150.212103 12.182875 
L 150.362582 11.056608 
L 150.585881 12.204903 
L 150.688687 12.16566 
L 150.814728 11.069709 
L 150.921321 12.413917 
L 151.072766 13.92106 
L 151.235325 12.873963 
L 151.369935 13.718992 
L 151.420054 13.813647 
L 151.486178 13.657257 
L 151.569476 13.947325 
L 151.655614 15.215901 
L 151.711557 15.182019 
L 151.793418 15.536603 
L 152.154181 18.762078 
L 152.342987 18.469213 
L 152.498873 14.835384 
L 152.842614 11.1774 
L 152.927274 11.549121 
L 152.979308 10.570715 
L 153.202547 11.617724 
L 153.28923 11.538955 
L 153.425103 11.853234 
L 153.493757 12.518469 
L 153.706941 11.363193 
L 153.78547 11.739003 
L 153.854062 10.877597 
L 153.923109 11.592456 
L 154.112888 11.114169 
L 154.26684 12.668952 
L 154.407057 12.179412 
L 154.42179 13.469993 
L 154.490507 12.828403 
L 154.57551 12.666785 
L 154.628783 12.099414 
L 154.695701 12.317161 
L 154.765444 12.442347 
L 154.902674 11.633058 
L 155.019376 11.728619 
L 155.142746 13.480608 
L 155.280188 15.878631 
L 155.349224 15.130486 
L 155.41754 15.116866 
L 155.624347 16.203236 
L 155.78471 13.981788 
L 155.830542 12.405615 
L 155.917055 12.60606 
L 155.974028 12.009855 
L 156.054567 12.3117 
L 156.28283 14.64449 
L 156.419915 14.376643 
L 156.523898 14.606641 
L 156.540261 15.326411 
L 156.683178 13.684629 
L 156.854917 14.560707 
L 157.044804 11.578662 
L 157.45523 15.076502 
L 157.576556 12.759388 
L 157.611635 12.891591 
L 157.679308 13.776817 
L 157.833437 13.02215 
L 157.974949 12.375252 
L 158.040736 12.865733 
L 158.109465 11.94844 
L 158.199358 13.579712 
L 158.400141 12.294271 
L 158.46718 14.075405 
L 158.533286 14.059447 
L 158.618813 14.06169 
L 158.687729 13.925333 
L 158.89707 12.56983 
L 158.946487 13.677349 
L 159.031674 13.657408 
L 159.134255 13.461096 
L 159.254616 11.830305 
L 159.563356 14.337083 
L 159.737116 15.922294 
L 159.821655 15.267603 
L 159.890527 15.522916 
L 160.167485 13.964377 
L 160.268683 14.28064 
L 160.45729 12.127613 
L 160.528183 12.5199 
L 160.595198 11.876897 
L 160.732682 13.843984 
L 160.816257 12.752209 
L 160.925658 13.084685 
L 161.008719 11.420039 
L 161.028478 12.542617 
L 161.144406 11.676259 
L 161.318687 14.189913 
L 161.369168 12.905977 
L 161.437565 13.164356 
L 161.660841 15.090814 
L 161.731684 14.66631 
L 161.836622 14.851959 
L 161.95378 12.627994 
L 162.144059 13.572183 
L 162.159166 12.260096 
L 162.418792 11.38426 
L 162.489258 11.972567 
L 162.659975 16.956603 
L 162.864546 16.089117 
L 162.986379 16.743806 
L 163.156061 14.861633 
L 163.43108 11.260355 
L 163.643641 11.703967 
L 163.791986 11.255147 
L 164.153224 13.785734 
L 164.207363 12.907829 
L 164.428822 14.52004 
L 164.567692 14.34989 
L 164.634799 14.89319 
L 164.773514 12.657437 
L 165.136402 10.200857 
L 165.206004 10.467766 
L 165.349853 10.114038 
L 165.425332 10.982598 
L 165.501941 10.527724 
L 165.770768 12.259117 
L 165.891216 12.244762 
L 166.010977 11.404754 
L 166.064482 12.19503 
L 166.148792 12.09107 
L 166.270279 11.197434 
L 166.423594 10.838119 
L 166.560828 12.855781 
L 166.699085 14.099703 
L 166.837082 12.632795 
L 166.858681 13.842674 
L 166.950417 12.662548 
L 167.018489 13.027041 
L 167.453557 9.952035 
L 167.487967 11.128466 
L 167.573286 10.988101 
L 167.643735 12.055145 
L 167.73142 11.739939 
L 167.831725 10.982191 
L 167.970159 9.842231 
L 168.210113 12.931209 
L 168.417203 14.035541 
L 168.707361 17.805751 
L 168.83505 16.8487 
L 168.968985 16.234884 
L 169.036622 17.571913 
L 169.136744 16.885098 
L 169.277513 15.182093 
L 169.326949 15.246568 
L 169.477961 15.210948 
L 169.483724 15.630678 
L 169.551107 15.513523 
L 169.619768 15.571037 
L 169.781834 13.935128 
L 169.846463 13.749478 
L 169.929543 15.385028 
L 170.050079 15.325815 
L 170.101528 15.906707 
L 170.137581 15.729465 
L 170.342679 14.131886 
L 170.533605 16.112638 
L 170.755849 15.185304 
L 170.893034 15.272554 
L 171.031555 17.700399 
L 171.184887 16.295149 
L 171.28875 15.969063 
L 171.410118 17.851502 
L 171.585119 16.685867 
L 171.614599 16.899854 
L 171.822466 18.502299 
L 172.164565 14.846476 
L 172.319522 16.215048 
L 172.527651 13.664387 
L 172.54196 14.079512 
L 172.645328 14.170324 
L 173.075362 10.711586 
L 173.213016 9.63614 
L 173.250327 10.481986 
L 173.31619 10.475376 
L 173.384135 10.571957 
L 173.470081 9.724931 
L 173.589762 11.585041 
L 173.65879 11.624266 
L 173.734818 11.411472 
L 173.799225 11.551805 
L 173.875358 11.606475 
L 174.013619 11.258222 
L 174.026168 12.527732 
L 174.094108 11.430552 
L 174.165969 12.316726 
L 174.303581 10.012467 
L 174.416167 10.689929 
L 174.59623 10.913702 
L 174.76739 9.335311 
L 174.923256 9.81763 
L 174.941979 9.10539 
L 175.030281 9.563867 
L 175.082183 8.661835 
L 175.149364 9.236703 
L 175.216385 9.028852 
L 175.363187 9.875377 
L 175.464578 8.529912 
L 175.591498 10.297568 
L 175.809856 15.508994 
L 175.896491 13.920253 
L 175.935535 14.238558 
L 176.018235 13.846856 
L 176.151678 15.138976 
L 176.220328 14.959163 
L 176.293314 14.143757 
L 176.512271 10.180168 
L 176.581764 11.639368 
L 176.821936 8.627124 
L 176.876086 9.181408 
L 176.993027 8.818422 
L 177.149473 10.280502 
L 177.285198 9.60236 
L 177.49208 13.510016 
L 177.57751 13.277328 
L 177.645744 13.099261 
L 177.714462 10.505505 
L 177.786444 11.656371 
L 177.851697 11.041578 
L 177.925222 11.694805 
L 178.13265 9.901045 
L 178.422584 14.482079 
L 178.454642 13.947596 
L 178.490752 13.916968 
L 178.560556 14.636598 
L 178.629915 13.948947 
L 178.698564 14.353704 
L 178.851726 15.279531 
L 178.9213 14.590305 
L 178.990184 15.181715 
L 179.272472 13.303506 
L 179.420483 15.457884 
L 179.488167 15.416875 
L 179.556265 15.949904 
L 179.710853 12.810379 
L 179.766356 13.270059 
L 179.848996 13.367666 
L 179.94112 14.598226 
L 179.985568 14.232491 
L 180.417025 11.509116 
L 180.484142 12.368818 
L 180.621207 10.804397 
L 180.759117 11.259681 
L 180.861676 12.632989 
L 180.913216 11.448986 
L 180.969101 11.726087 
L 181.034529 12.537546 
L 181.188995 11.382849 
L 181.273224 11.715004 
L 181.395287 13.036045 
L 181.548494 12.532689 
L 181.628828 12.594409 
L 181.691588 13.095937 
L 181.77175 12.550448 
L 181.960851 14.294042 
L 182.185206 12.22078 
L 182.288661 12.638081 
L 182.340039 12.115343 
L 182.546688 13.476577 
L 182.651744 13.433921 
L 182.669135 13.164427 
L 182.838902 13.915806 
L 183.383009 10.932888 
L 183.545156 12.322178 
L 183.62204 11.434735 
L 183.681707 11.826125 
L 183.957496 10.70043 
L 184.093493 11.015122 
L 184.179143 11.909104 
L 184.38315 10.109778 
L 184.589876 11.273253 
L 184.692665 10.101869 
L 184.743631 11.129255 
L 184.864493 9.775864 
L 184.934238 9.814275 
L 184.970903 9.954671 
L 185.036803 11.45769 
L 185.190618 11.473554 
L 185.450422 14.484343 
L 185.534542 15.651641 
L 185.650635 14.935526 
L 185.676137 15.03932 
L 185.819847 15.94915 
L 185.88404 15.112722 
L 186.088193 15.878124 
L 186.102908 14.3015 
L 186.154466 14.514578 
L 186.518333 12.443048 
L 186.589377 12.634225 
L 186.66162 10.348971 
L 186.797276 10.671584 
L 187.089112 13.234727 
L 187.15644 13.297857 
L 187.225256 11.862846 
L 187.4307 14.336947 
L 187.499815 14.251739 
L 187.585381 11.657238 
L 187.707435 11.764575 
L 187.864482 9.124004 
L 187.946058 11.588941 
L 188.014863 11.411019 
L 188.152704 11.615373 
L 188.359277 13.890815 
L 188.410199 12.648899 
L 188.469126 12.674987 
L 188.624753 14.498528 
L 188.706561 13.605379 
L 188.763321 14.367285 
L 188.792231 13.205014 
L 188.878545 13.830175 
L 189.042685 13.207688 
L 189.15377 14.122986 
L 189.238937 13.515282 
L 189.45234 10.736398 
L 189.535901 11.138445 
L 189.600565 10.08814 
L 189.651664 10.496959 
L 189.721671 10.286863 
L 189.996455 12.077039 
L 190.302762 8.581743 
L 190.563025 7.311731 
L 190.99626 13.70425 
L 191.139084 12.527117 
L 191.208655 13.420806 
L 191.284032 13.244692 
L 191.340029 13.448733 
L 191.61125 12.96782 
L 191.783325 14.4313 
L 191.869981 14.190921 
L 192.006653 12.677598 
L 192.058375 13.007252 
L 192.143999 13.06554 
L 192.264646 10.020353 
L 192.350731 10.765482 
L 192.472257 10.393136 
L 192.540031 10.815742 
L 192.608702 9.772999 
L 192.780837 11.07191 
L 192.867834 10.8008 
L 192.987513 13.948797 
L 193.054635 12.806679 
L 193.123434 12.707445 
L 193.192987 13.007028 
L 193.278359 14.116121 
L 193.483743 13.131215 
L 193.606507 13.086594 
L 193.691225 13.944915 
L 193.742219 13.354454 
L 193.827457 13.969707 
L 193.999704 12.610619 
L 194.259401 14.037198 
L 194.360346 12.815364 
L 194.429013 13.713472 
L 194.497375 13.076593 
L 194.586234 14.173719 
L 194.635525 13.336814 
L 194.755172 13.804607 
L 194.909181 13.042331 
L 194.995115 12.789152 
L 195.050174 11.405979 
L 195.177926 11.196247 
L 195.357814 9.558045 
L 195.547862 10.746431 
L 195.702464 10.24966 
L 195.961152 14.671889 
L 196.036194 15.304738 
L 196.133447 14.671812 
L 196.184852 15.905424 
L 196.262298 15.65647 
L 196.323444 15.708235 
L 196.391525 15.930842 
L 196.668388 13.534612 
L 196.751485 13.608254 
L 196.820492 13.944348 
L 196.88889 13.579649 
L 196.974855 14.651925 
L 197.026479 14.301791 
L 197.100738 13.8608 
L 197.182307 14.301301 
L 197.273597 13.93176 
L 197.334537 14.297183 
L 197.386377 13.984698 
L 197.540521 14.80757 
L 197.695905 11.193929 
L 197.799471 11.172861 
L 197.818352 11.34848 
L 197.884046 11.272171 
L 198.021957 10.924847 
L 198.143772 11.013762 
L 198.248002 9.682692 
L 198.468487 11.999718 
L 198.615166 12.711665 
L 198.677199 13.031561 
L 198.745416 11.777714 
L 198.83157 11.863669 
L 198.951797 13.658763 
L 199.032668 13.326634 
L 199.105895 13.595898 
L 199.262557 12.735996 
L 199.317065 12.996084 
L 199.50321 15.261579 
L 199.520189 15.120822 
L 199.588114 13.386532 
L 199.708445 13.354722 
L 199.949278 16.177746 
L 200.01954 16.666989 
L 200.08678 15.320059 
L 200.154176 15.406603 
L 200.244044 15.323668 
L 200.291738 15.110065 
L 200.449612 13.372724 
L 200.532977 13.115172 
L 200.584311 12.586407 
L 200.728808 9.410548 
L 200.825328 9.447767 
L 200.897963 9.353468 
L 201.082518 13.212103 
L 201.246831 12.762492 
L 201.443623 15.914679 
L 201.580242 15.332752 
L 201.786273 12.762811 
L 201.872789 13.732498 
L 201.940806 13.282388 
L 201.997894 13.824836 
L 202.078745 13.779249 
L 202.147715 13.6476 
L 202.215817 12.734389 
L 202.304767 13.431656 
L 202.440535 13.049599 
L 202.473826 13.170195 
L 202.509769 13.214301 
L 202.664152 11.44468 
L 202.749281 10.655607 
L 202.800124 10.71066 
L 202.886802 10.577519 
L 202.938703 10.987073 
L 203.212131 9.251883 
L 203.333904 9.56443 
L 203.366679 11.440724 
L 203.435863 10.657336 
L 203.497294 9.827106 
L 203.641944 11.87482 
L 203.728028 10.913014 
L 203.779207 11.343521 
L 203.91604 13.100278 
L 204.06155 10.947914 
L 204.13985 11.44765 
L 204.208061 12.719083 
L 204.328175 12.136145 
L 204.484175 13.661608 
L 204.555036 11.778691 
L 204.793665 13.646832 
L 205.053067 10.252701 
L 205.136535 9.79886 
L 205.411593 12.585363 
L 205.497371 12.784832 
L 205.674266 11.579672 
L 205.772195 11.782288 
L 205.841767 13.262069 
L 206.047551 11.33741 
L 206.189872 9.412698 
L 206.409261 12.001986 
L 206.562979 10.558451 
L 206.633809 11.525156 
L 206.769794 10.809929 
L 206.888933 11.148012 
L 206.910142 11.807996 
L 206.992975 11.359238 
L 207.063283 10.67283 
L 207.182503 12.424247 
L 207.267566 11.441084 
L 207.336697 11.71813 
L 207.476336 12.652134 
L 207.54341 11.464627 
L 207.680082 11.860004 
L 207.904206 13.951288 
L 208.077072 15.270719 
L 208.135238 14.856766 
L 208.179622 15.269473 
L 208.337815 16.431721 
L 208.491912 15.343931 
L 208.543091 15.429174 
L 208.695917 14.299178 
L 208.759046 13.477311 
L 208.835428 14.070704 
L 209.041938 12.462002 
L 209.12004 12.866755 
L 209.253236 12.308791 
L 209.408817 13.103128 
L 209.46068 11.798389 
L 209.55327 11.915677 
L 209.614981 11.383341 
L 209.683343 11.425277 
L 209.751126 11.231126 
L 209.871446 11.452308 
L 209.957165 10.476669 
L 210.043273 10.621769 
L 210.112035 11.085862 
L 210.165048 12.220152 
L 210.39313 10.225514 
L 210.462372 10.945198 
L 210.525022 10.82878 
L 210.611721 11.094246 
L 210.671205 12.087418 
L 210.939932 9.637344 
L 211.112114 12.939065 
L 211.163464 12.43527 
L 211.318159 13.438478 
L 211.33569 12.499803 
L 211.388241 13.203579 
L 211.593345 15.493215 
L 211.885659 13.272138 
L 212.026247 10.919978 
L 212.094357 10.955325 
L 212.317629 9.751266 
L 212.454652 10.996058 
L 212.523485 10.15758 
L 212.731029 13.576913 
L 212.907489 12.240184 
L 213.040281 13.710159 
L 213.109404 12.878058 
L 213.161293 13.177396 
L 213.340374 15.021727 
L 213.373563 14.287809 
L 213.510188 13.916428 
L 213.648287 15.804906 
L 213.715981 15.489357 
L 213.939436 17.154062 
L 214.008322 16.906676 
L 214.07702 16.625919 
L 214.197108 17.15699 
L 214.23102 18.090673 
L 214.436939 16.351207 
L 214.592989 17.085125 
L 214.643493 15.644632 
L 214.731085 15.87701 
L 214.798741 16.550905 
L 214.970957 15.717772 
L 215.073679 16.395316 
L 215.141754 16.4394 
L 215.452454 12.241797 
L 215.563253 12.28866 
L 215.605926 12.464283 
L 215.851563 9.668773 
L 216.190085 11.629566 
L 216.244568 11.359904 
L 216.363274 10.247511 
L 216.415664 10.669438 
L 216.521462 10.285698 
L 216.741358 13.06964 
L 216.777829 10.511307 
L 216.897976 10.407406 
L 216.920959 9.924418 
L 217.141454 12.495782 
L 217.206152 11.521368 
L 217.276405 11.557939 
L 217.344153 11.655303 
L 217.414142 11.006173 
L 217.519562 11.677633 
L 217.646992 14.089615 
L 217.84406 12.911637 
L 217.978833 14.817486 
L 218.063011 13.424899 
L 218.131825 13.68694 
L 218.20323 13.902208 
L 218.217207 12.542022 
L 218.287231 12.590084 
L 218.40825 11.928832 
L 218.474902 12.269688 
L 218.562587 13.612875 
L 218.633131 13.75654 
L 218.698616 12.301829 
L 218.784114 13.069487 
L 218.922278 11.80898 
L 219.025201 12.223427 
L 219.265817 9.272133 
L 219.404431 9.09752 
L 219.764459 12.666767 
L 219.868305 12.467845 
L 219.973467 14.278084 
L 220.07421 13.256671 
L 220.162438 14.21685 
L 220.194225 13.489189 
L 220.593405 16.344728 
L 220.610678 15.699667 
L 220.668169 14.960617 
L 220.698756 15.822823 
L 220.833441 16.253397 
L 221.194102 14.016831 
L 221.263283 12.24288 
L 221.331721 12.535985 
L 221.402219 12.071931 
L 221.475711 13.801488 
L 221.538911 13.504663 
L 221.692331 13.949648 
L 221.898256 12.066982 
L 222.106775 11.518319 
L 222.208947 9.497475 
L 222.421946 10.695825 
L 222.475426 11.963403 
L 222.549947 10.88896 
L 222.559509 11.4389 
L 222.800795 14.42193 
L 222.835046 13.709589 
L 222.90352 15.128271 
L 222.955572 13.957005 
L 223.02615 12.886487 
L 223.099233 13.610617 
L 223.178317 12.3847 
L 223.255648 12.975898 
L 223.661557 10.437396 
L 223.676526 10.739404 
L 223.744692 10.967813 
L 223.815875 10.483191 
L 223.884752 10.572544 
L 224.090603 10.06224 
L 224.226018 10.2137 
L 224.382879 13.05034 
L 224.520309 12.703519 
L 224.606156 13.291506 
L 224.663005 12.433546 
L 224.677812 12.767314 
L 224.797285 14.742889 
L 224.812232 13.884408 
L 224.925848 13.84298 
L 224.951366 14.599049 
L 225.123783 11.729201 
L 225.245046 13.495534 
L 225.981897 10.474942 
L 226.033522 10.978815 
L 226.205554 9.642042 
L 226.239345 10.146733 
L 226.292929 10.147884 
L 226.361793 9.772227 
L 226.445921 8.001375 
L 227.139224 14.537005 
L 227.150533 15.775927 
L 227.220338 14.943653 
L 227.304919 13.968218 
L 227.356941 14.84285 
L 227.665695 10.966202 
L 227.721035 11.216819 
L 227.78589 10.765223 
L 227.872727 10.783249 
L 228.049445 12.821198 
L 228.078536 11.404251 
L 228.164129 11.784632 
L 228.286682 13.942795 
L 228.576051 11.36807 
L 228.645617 11.681905 
L 228.731137 11.04415 
L 228.783785 11.21011 
L 228.850421 12.53042 
L 228.960858 11.410346 
L 229.065369 12.11184 
L 229.088614 13.212119 
L 229.146244 12.73889 
L 229.283811 14.181686 
L 229.354136 12.617449 
L 229.422681 12.872649 
L 229.492112 13.508991 
L 229.603184 12.161337 
L 229.634718 12.906248 
L 229.784185 12.510985 
L 229.852483 13.359013 
L 229.991733 12.303887 
L 230.060774 13.779675 
L 230.14612 12.90321 
L 230.214118 13.385096 
L 230.334837 13.434527 
L 230.511736 12.445629 
L 230.595183 12.461067 
L 230.835757 14.464717 
L 230.919795 13.423872 
L 230.988046 13.619802 
L 231.073462 13.649375 
L 231.149551 13.25237 
L 231.195126 14.911961 
L 231.266621 14.320102 
L 231.350487 14.092547 
L 231.418604 14.710227 
L 231.50452 14.215839 
L 231.623535 12.631585 
L 232.213818 7.390885 
L 232.573531 12.024293 
L 232.657044 10.933616 
L 232.692001 11.305219 
L 232.966329 16.619622 
L 233.102971 15.059855 
L 233.154897 15.602851 
L 233.338573 16.976937 
L 233.481663 15.113971 
L 233.687499 11.339953 
L 233.756973 12.167791 
L 233.826714 10.010242 
L 233.910785 10.173036 
L 233.99744 10.327663 
L 234.049924 8.944081 
L 234.102197 10.817668 
L 234.117943 9.803074 
L 234.186053 9.335488 
L 234.25508 9.616761 
L 234.41509 10.539414 
L 234.550826 9.949048 
L 234.565706 11.516859 
L 234.620992 10.857816 
L 234.673351 10.190009 
L 234.754958 12.505874 
L 234.824222 11.718212 
L 235.005549 12.894117 
L 235.124006 11.751894 
L 235.17696 12.335297 
L 235.245404 12.207808 
L 235.400909 13.405121 
L 235.467856 12.563307 
L 235.612816 13.022548 
L 235.679997 12.884526 
L 235.797471 14.066595 
L 235.880015 12.061501 
L 235.983414 12.068807 
L 236.156433 13.348155 
L 236.190867 13.396106 
L 236.24292 12.467633 
L 236.381921 13.592786 
L 236.499832 13.668102 
L 236.637286 16.322454 
L 236.739931 16.477378 
L 237.045601 14.327324 
L 237.170344 15.346968 
L 237.449792 13.110335 
L 237.600502 14.949313 
L 237.879353 10.895476 
L 238.029938 12.117585 
L 238.236534 9.156933 
L 238.304623 9.594937 
L 238.515108 10.833709 
L 238.598973 10.626406 
L 238.66599 10.560377 
L 238.872275 12.20802 
L 239.095676 13.785183 
L 239.16397 12.89375 
L 239.215094 12.962109 
L 239.456004 13.433526 
L 239.507328 13.256222 
L 239.57608 13.737768 
L 239.730401 13.13793 
L 240.005258 15.350449 
L 240.09132 15.622001 
L 240.14253 15.318239 
L 240.267774 15.380212 
L 240.366861 14.526043 
L 240.622516 13.196388 
L 240.641685 13.509974 
L 240.710375 13.174932 
L 240.795279 11.516033 
L 240.863247 12.123341 
L 240.933662 12.281472 
L 241.074093 11.15986 
L 241.31394 12.235893 
L 241.451621 11.529322 
L 241.502751 12.632981 
L 241.727541 10.330511 
L 241.812641 11.511926 
L 241.849435 10.55727 
L 241.93426 10.382089 
L 242.139826 11.614043 
L 242.34673 13.407115 
L 242.43218 13.317952 
L 242.620857 13.848333 
L 242.844835 11.772175 
L 242.98455 10.961637 
L 243.067763 11.769975 
L 243.136522 11.537113 
L 243.275294 10.570286 
L 243.344255 10.745041 
L 243.549017 12.27292 
L 243.65063 11.881555 
L 243.775837 11.023635 
L 243.890877 10.892467 
L 244.04526 14.615527 
L 244.113622 14.842319 
L 244.285314 12.146727 
L 244.337386 11.671296 
L 244.567056 13.087732 
L 244.766994 9.24743 
L 244.920706 9.888905 
L 244.989592 9.999589 
L 245.112696 11.97279 
L 245.334198 10.683898 
L 245.711431 13.757873 
L 245.798625 12.646473 
L 245.831597 13.191995 
L 245.930372 14.06829 
L 245.97041 13.850808 
L 246.043506 13.436479 
L 246.188754 15.6468 
L 246.262337 13.525277 
L 246.330131 14.03069 
L 246.404832 13.715628 
L 246.465775 13.80734 
L 246.552225 12.184011 
L 246.604025 12.734817 
L 246.774894 14.611068 
L 246.930478 10.599821 
L 246.967021 12.916478 
L 247.153934 11.332509 
L 247.187247 12.085243 
L 247.393638 10.381376 
L 247.537009 10.509437 
L 247.602188 11.468194 
L 247.668299 11.042341 
L 247.75625 10.829247 
L 248.030271 13.821467 
L 248.098484 14.168569 
L 248.182987 13.548498 
L 248.38931 15.243065 
L 248.458213 16.14349 
L 248.601938 14.039498 
L 248.664783 14.256994 
L 248.753058 14.382439 
L 248.88868 13.742913 
L 249.093637 12.809056 
L 249.300657 13.879942 
L 249.522667 12.595464 
L 249.661956 13.007866 
L 249.883996 11.916067 
L 249.954203 12.507766 
L 250.023463 12.202735 
L 250.159192 10.732102 
L 250.298416 12.765255 
L 250.366445 11.815376 
L 250.591991 13.390884 
L 250.72775 11.093506 
L 250.816535 12.128543 
L 250.899635 11.958391 
L 251.004357 10.309449 
L 251.088002 10.917672 
L 251.175073 10.284229 
L 251.226973 8.701372 
L 251.328972 8.989798 
L 251.436699 10.951403 
L 251.518704 10.50131 
L 251.7246 11.893894 
L 251.792884 10.880489 
L 251.873692 11.229923 
L 251.879904 14.070299 
L 251.947674 11.833948 
L 252.222735 12.728578 
L 252.359487 12.935907 
L 252.445165 11.42163 
L 252.497658 11.74246 
L 252.652242 12.698127 
L 252.806685 11.745608 
L 252.928152 13.782531 
L 253.046659 13.425183 
L 253.286893 16.140697 
L 253.339783 15.095015 
L 253.373279 15.895705 
L 253.494505 16.408618 
L 253.664952 14.271468 
L 253.716857 14.69498 
L 253.857237 13.336558 
L 253.932784 13.997793 
L 253.992798 13.714304 
L 254.063141 13.54642 
L 254.146444 12.258358 
L 254.284191 12.471708 
L 254.342028 11.457083 
L 254.374502 12.670625 
L 254.42255 12.302003 
L 254.543952 13.346577 
L 254.577244 13.159761 
L 254.652512 12.831194 
L 254.876856 14.785599 
L 255.058606 13.657174 
L 255.179813 14.062912 
L 255.197825 13.905559 
L 255.419163 15.225996 
L 255.489043 15.240509 
L 255.711872 16.144259 
L 255.849597 13.893922 
L 255.93562 13.597262 
L 256.05562 10.810716 
L 256.278766 7.956324 
L 256.399762 8.114754 
L 256.55375 11.162283 
L 256.572129 10.96944 
L 256.639897 10.494451 
L 256.845589 13.013801 
L 256.914418 12.847513 
L 256.994085 13.229746 
L 257.068764 14.694577 
L 257.086934 14.461372 
L 257.208552 10.999371 
L 257.259788 11.460535 
L 257.344208 13.197255 
L 257.412861 12.471284 
L 257.636671 13.973275 
L 257.688493 13.300401 
L 257.997864 16.609226 
L 258.049116 14.748164 
L 258.117894 15.718746 
L 258.351277 11.649279 
L 258.432966 12.331895 
L 258.687187 10.339701 
L 258.773717 11.540708 
L 258.87583 10.484918 
L 258.978816 12.388805 
L 259.136458 14.236203 
L 259.257189 15.365641 
L 259.324139 14.889922 
L 259.547326 16.471107 
L 259.753287 12.514162 
L 259.892485 11.987732 
L 260.132921 14.794475 
L 260.251958 13.364357 
L 260.457581 15.114762 
L 260.527235 14.021633 
L 260.594963 14.68445 
L 260.678771 14.513715 
L 260.746733 14.620059 
L 260.953511 11.472333 
L 261.10707 12.978193 
L 261.382243 10.386902 
L 261.449568 8.685008 
L 261.518461 9.238491 
L 261.672618 10.022813 
L 261.741301 9.875448 
L 261.881355 9.013068 
L 262.157438 12.671191 
L 262.240556 12.649575 
L 262.376885 13.517208 
L 262.447466 12.652662 
L 262.514506 12.971567 
L 262.654504 14.783641 
L 262.806516 14.519324 
L 262.875833 14.072373 
L 263.083986 15.062704 
L 263.157536 15.037857 
L 263.259567 15.150292 
L 263.442391 12.978835 
L 263.511136 13.936748 
L 263.580042 13.524064 
L 263.8205 11.799571 
L 263.872475 12.18835 
L 263.941144 12.043618 
L 264.045635 11.571032 
L 264.150504 13.706469 
L 264.23273 13.009165 
L 264.473763 15.833642 
L 264.524767 15.113517 
L 264.611664 15.131958 
L 264.731179 13.341185 
L 264.8526 13.021725 
L 265.023655 13.311325 
L 265.17222 11.132593 
L 265.212569 11.241082 
L 265.306982 11.088494 
L 265.410752 12.096681 
L 265.444287 10.840122 
L 265.530579 10.954294 
L 265.788071 8.531166 
L 265.856434 7.89769 
L 266.149364 12.334791 
L 266.217455 11.436826 
L 266.303025 11.665778 
L 266.441398 12.783004 
L 266.57778 14.041787 
L 266.749296 12.580627 
L 266.887124 11.218163 
L 266.938658 12.384041 
L 267.076603 11.506034 
L 267.145366 12.057412 
L 267.215 11.644143 
L 267.420014 12.021972 
L 267.57456 14.111329 
L 267.644174 13.040928 
L 267.848642 16.230932 
L 267.924764 15.406679 
L 267.994774 15.808236 
L 268.098357 14.838672 
L 268.134292 15.4868 
L 268.204916 15.024869 
L 268.27502 15.22149 
L 268.355177 16.471422 
L 268.561896 14.697622 
L 268.666383 15.138443 
L 268.73747 14.87671 
L 268.785874 15.728929 
L 268.837169 15.434194 
L 269.167362 11.913397 
L 269.198406 12.625891 
L 269.266817 10.992399 
L 269.422036 11.461973 
L 269.560498 8.636519 
L 269.666005 9.12273 
L 269.783894 10.15021 
L 269.842112 12.22694 
L 269.905591 11.030605 
L 269.973365 12.201546 
L 270.094083 11.50904 
L 270.294108 13.163116 
L 270.609683 11.3629 
L 270.626802 11.701187 
L 270.903177 8.852026 
L 270.97283 9.373105 
L 271.057511 9.266318 
L 271.255392 9.70598 
L 271.504249 11.530491 
L 271.55646 11.036513 
L 271.696516 13.085462 
L 271.762793 12.780213 
L 272.065478 9.857627 
L 272.265507 11.110597 
L 272.333357 11.037609 
L 272.403362 10.795706 
L 272.555417 12.476808 
L 272.675613 13.070181 
L 272.74934 14.091121 
L 272.898995 13.769545 
L 272.985828 13.089104 
L 273.12273 13.649305 
L 273.175879 12.694159 
L 273.29723 12.998384 
L 273.604022 11.013016 
L 273.676822 10.977113 
L 273.758728 11.203797 
L 273.968 10.173071 
L 274.051352 10.295835 
L 274.154129 9.999779 
L 274.240109 12.203747 
L 274.312484 11.296584 
L 274.37904 12.114164 
L 274.463646 10.325196 
L 274.621987 12.588094 
L 274.671405 12.525126 
L 274.825654 14.953311 
L 274.876736 14.380471 
L 274.979935 14.030904 
L 275.04834 15.504125 
L 275.103433 14.907936 
L 275.187238 14.787065 
L 275.260038 13.239735 
L 275.443673 15.039494 
L 275.61498 12.586289 
L 275.909529 11.033697 
L 275.998506 12.78634 
L 276.079576 12.331683 
L 276.182132 12.612729 
L 276.233366 11.655848 
L 276.303059 12.782621 
L 276.39631 12.518725 
L 276.445715 11.97376 
L 276.513391 13.123424 
L 276.870601 10.389136 
L 276.955824 12.167386 
L 277.088333 11.707287 
L 277.095883 11.245158 
L 277.162179 12.419425 
L 277.339622 11.873448 
L 277.437353 12.868757 
L 277.505589 12.875198 
L 277.797532 15.857376 
L 277.866695 15.378839 
L 277.935196 14.554196 
L 278.006728 15.49747 
L 278.230222 12.437185 
L 278.420721 13.428872 
L 278.433592 13.330963 
L 278.588546 10.004497 
L 278.674555 9.978795 
L 278.725438 9.714888 
L 278.811447 10.619553 
L 278.934157 14.060058 
L 279.068636 13.623753 
L 279.155038 11.540441 
L 279.524285 16.569436 
L 279.607829 16.446515 
L 279.711944 17.507301 
L 279.849073 19.669128 
L 279.985125 19.096158 
L 280.209663 15.499924 
L 280.262848 16.068268 
L 280.542206 10.714421 
L 280.794295 13.484043 
L 280.948677 11.829069 
L 281.058119 12.359238 
L 281.194711 14.91729 
L 281.383303 13.13459 
L 281.486569 11.302542 
L 281.633314 11.322249 
L 281.692825 11.303752 
L 281.85938 8.690143 
L 282.090708 9.618472 
L 282.226878 11.980762 
L 282.22701 15.785799 
L 282.284904 13.36314 
L 282.34734 13.233444 
L 282.433073 13.393894 
L 282.502158 13.160948 
L 282.708796 15.055568 
L 282.819788 15.497476 
L 282.847377 13.957558 
L 282.917926 13.996981 
L 283.189961 14.189861 
L 283.259468 15.186534 
L 283.295446 14.403023 
L 283.368745 14.592758 
L 283.413826 14.432724 
L 283.498948 14.136053 
L 283.631233 13.022835 
L 283.825281 13.511759 
L 283.912363 12.320689 
L 283.980425 12.788498 
L 284.048724 12.767244 
L 284.187452 13.266943 
L 284.340163 15.207652 
L 284.418865 14.476455 
L 284.47861 14.771621 
L 284.644363 15.738811 
L 284.758327 17.27964 
L 284.839987 17.128042 
L 284.947579 16.016422 
L 285.011727 16.273462 
L 285.185883 16.960822 
L 285.31998 16.39537 
L 285.440671 16.543121 
L 285.612011 18.479968 
L 285.80107 16.419142 
L 285.818573 16.896629 
L 285.889721 16.465967 
L 286.064329 16.237351 
L 286.317658 12.573973 
L 286.489451 13.992874 
L 286.781249 11.901773 
L 287.042902 13.869183 
L 287.168454 11.521891 
L 287.261699 11.281133 
L 287.313684 11.971585 
L 287.416311 11.948136 
L 287.674647 10.767077 
L 287.742942 9.180821 
L 287.811137 9.979461 
L 287.966624 9.031448 
L 288.026311 8.821529 
L 288.17262 10.221048 
L 288.309842 9.420831 
L 288.724895 16.148897 
L 288.80528 16.013574 
L 288.963045 14.298681 
L 289.075285 14.939787 
L 289.238248 12.041565 
L 289.324017 11.621516 
L 289.444611 8.838135 
L 289.548232 9.076537 
L 289.719933 10.810207 
L 289.806258 10.227629 
L 289.909025 10.374618 
L 289.979205 9.94965 
L 290.015561 10.104603 
L 290.235386 11.906392 
L 290.323156 11.890496 
L 290.389586 12.203917 
L 290.44431 11.929364 
L 290.510303 11.897571 
L 290.717 14.312173 
L 290.819581 13.041876 
L 290.870849 14.182337 
L 290.958478 13.138201 
L 291.008155 13.422646 
L 291.094409 13.428086 
L 291.148144 12.622444 
L 291.231395 13.583338 
L 291.304805 12.872887 
L 291.405019 13.015926 
L 291.471963 12.246206 
L 291.540657 13.45594 
L 291.609665 13.021189 
L 291.661164 13.418294 
L 291.729793 12.959648 
L 291.79702 13.46994 
L 291.936675 12.146759 
L 292.004679 11.249476 
L 292.130608 11.467779 
L 292.213508 12.254293 
L 292.365654 11.138294 
L 292.580801 12.892029 
L 292.709026 14.165775 
L 292.794478 13.644401 
L 292.881348 12.921958 
L 292.932407 10.743646 
L 293.017888 11.720298 
L 293.090387 12.485774 
L 293.139567 12.248768 
L 293.207131 12.308741 
L 293.465398 14.122114 
L 293.654479 16.238769 
L 293.705647 16.120028 
L 294.10871 13.131657 
L 294.212053 11.170131 
L 294.3533 11.495521 
L 294.575603 10.337992 
L 294.662852 10.762273 
L 294.703257 11.800179 
L 294.919586 9.754179 
L 294.989567 9.727219 
L 295.196174 10.511014 
L 295.264041 10.175754 
L 295.349343 8.907296 
L 295.402913 9.060114 
L 295.692866 11.502789 
L 295.761719 11.078959 
L 295.984138 12.722301 
L 296.055077 12.790927 
L 296.122337 12.701311 
L 296.193508 12.821856 
L 296.33325 14.918129 
L 296.415775 14.341169 
L 296.484155 14.693244 
L 296.552174 13.782362 
L 296.620702 14.976928 
L 296.690687 14.598433 
L 296.775772 15.697184 
L 296.966602 13.603201 
L 297.051004 13.167592 
L 297.123396 14.558991 
L 297.283711 14.206549 
L 297.292293 14.303279 
L 297.32697 13.836616 
L 297.48281 14.215207 
L 297.826154 11.862925 
L 297.895118 12.734609 
L 297.963375 12.360959 
L 298.033483 12.493388 
L 298.107499 12.930068 
L 298.244545 12.236248 
L 298.393425 13.175007 
L 298.462355 12.659819 
L 298.479453 11.618749 
L 298.531878 13.042023 
L 298.683175 10.975225 
L 298.824029 9.188576 
L 298.892694 9.86609 
L 298.978734 9.916226 
L 299.098414 10.466921 
L 299.374236 10.548385 
L 299.459769 10.76623 
L 299.579352 11.491648 
L 299.840539 7.778109 
L 299.940943 8.648332 
L 300.026066 8.107378 
L 300.111696 10.483634 
L 300.24895 9.449 
L 300.30346 10.333412 
L 300.389375 9.99069 
L 300.525149 12.700172 
L 300.611333 12.301524 
L 300.72866 12.399053 
L 300.80018 12.697691 
L 300.86693 14.540518 
L 300.953445 14.383622 
L 301.02242 13.720297 
L 301.091834 15.125419 
L 301.210287 14.952033 
L 301.2453 14.00477 
L 301.330422 14.08379 
L 301.38552 13.771781 
L 301.434517 12.76714 
L 301.548191 13.063714 
L 301.588866 12.520979 
L 301.761755 14.046044 
L 301.831189 13.701589 
L 301.967663 13.608298 
L 302.073102 13.235041 
L 302.206894 14.070529 
L 302.379285 11.888531 
L 302.451831 11.040593 
L 302.516915 11.157374 
L 302.585523 11.070015 
L 302.691851 12.272032 
L 302.863576 10.743968 
L 303.021752 12.414359 
L 303.156193 11.583082 
L 303.256445 12.095627 
L 303.409703 10.612176 
L 303.44948 11.394831 
L 303.522003 10.461495 
L 303.582142 11.414688 
L 303.684811 10.842748 
L 303.71888 9.918909 
L 303.788578 10.724628 
L 303.943764 12.215001 
L 304.012997 10.701607 
L 304.115087 13.0057 
L 304.16601 11.997325 
L 304.355357 14.29308 
L 304.563064 12.41672 
L 304.648976 13.526239 
L 304.718174 13.161686 
L 304.78383 12.671262 
L 304.855841 13.860143 
L 304.921777 13.841915 
L 305.007064 13.688329 
L 305.063635 12.565167 
L 305.145006 13.3103 
L 305.214053 13.224669 
L 305.302237 13.328538 
L 305.523611 11.850738 
L 305.66065 12.931523 
L 305.941372 14.908878 
L 306.082633 14.702143 
L 306.206825 16.875667 
L 306.333058 16.579595 
L 306.349366 14.143863 
L 306.43572 15.131345 
L 306.489206 14.308722 
L 306.572019 14.537988 
L 306.743961 14.8514 
L 306.988455 12.631585 
L 307.087624 13.099809 
L 307.345388 11.453464 
L 307.791781 15.238731 
L 307.843865 14.367359 
L 307.912861 14.779729 
L 308.136544 16.366162 
L 308.256539 16.230557 
L 308.411019 15.054548 
L 308.48045 13.622216 
L 308.618729 15.040678 
L 308.704336 13.373533 
L 308.756341 13.903476 
L 308.91084 13.367904 
L 309.253114 17.71059 
L 309.358876 15.650254 
L 309.410335 16.34979 
L 309.549072 15.549996 
L 309.620089 15.66663 
L 309.760128 14.219823 
L 309.825548 12.673637 
L 309.9114 12.91967 
L 310.062686 14.414166 
L 310.169268 14.784045 
L 310.257958 14.529579 
L 310.291251 14.802586 
L 310.394298 16.470258 
L 310.494877 15.899037 
L 310.548444 17.457453 
L 310.757837 15.056342 
L 310.839892 14.144628 
L 310.943552 15.645325 
L 310.99006 15.158184 
L 311.103412 13.815225 
L 311.182941 14.599621 
L 311.251628 14.213537 
L 311.326862 13.963705 
L 311.527262 16.72449 
L 311.612535 17.151552 
L 311.758807 16.303662 
L 311.832207 16.065194 
L 311.844457 16.090183 
L 312.10659 13.532726 
L 312.188236 13.583658 
L 312.34453 12.282674 
L 312.397621 13.562346 
L 312.492999 13.338778 
L 312.739316 16.520932 
L 312.962446 14.848908 
L 313.030854 13.9457 
L 313.168857 14.897394 
L 313.236964 14.510983 
L 313.341011 14.880622 
L 313.391964 13.346339 
L 313.447389 13.562838 
L 313.597534 15.491753 
L 313.666048 15.07794 
L 313.775958 15.679333 
L 313.908427 13.390829 
L 314.097356 15.449146 
L 314.200469 15.19267 
L 314.262444 13.222606 
L 314.319409 13.247221 
L 314.389413 14.352518 
L 314.461865 12.870625 
L 314.682036 14.369234 
L 314.75171 14.865377 
L 314.871118 14.636823 
L 314.991625 14.15079 
L 315.02536 15.03011 
L 315.081639 13.952909 
L 315.128931 14.167658 
L 315.162972 15.417008 
L 315.257341 14.238135 
L 315.303952 14.77231 
L 315.439591 14.345067 
L 315.560393 13.249187 
L 315.651711 13.520912 
L 315.783931 13.360317 
L 315.818403 13.953295 
L 315.990982 12.977554 
L 316.161648 15.059563 
L 316.233016 14.248612 
L 316.402792 15.119422 
L 316.454157 13.672405 
L 316.524589 15.298089 
L 316.573974 15.100297 
L 316.810273 12.186069 
L 316.888944 12.771084 
L 316.955316 11.983778 
L 317.2974 14.410067 
L 317.486346 17.480868 
L 317.502813 16.859488 
" clip-path="url(#p5edb934a83)" style="fill: none; stroke: #ff0000; stroke-opacity: 0.5; stroke-width: 3; stroke-linecap: square"/>
   </g>
   <g id="patch_3">
    <path d="M 38.502813 139.32 
L 38.502813 0.72 
" style="fill: none; stroke: #000000; stroke-width: 0.8; stroke-linejoin: miter; stroke-linecap: square"/>
   </g>
   <g id="patch_4">
    <path d="M 317.502813 139.32 
L 317.502813 0.72 
" style="fill: none; stroke: #000000; stroke-width: 0.8; stroke-linejoin: miter; stroke-linecap: square"/>
   </g>
   <g id="patch_5">
    <path d="M 38.502813 139.32 
L 317.502813 139.32 
" style="fill: none; stroke: #000000; stroke-width: 0.8; stroke-linejoin: miter; stroke-linecap: square"/>
   </g>
   <g id="patch_6">
    <path d="M 38.502813 0.72 
L 317.502813 0.72 
" style="fill: none; stroke: #000000; stroke-width: 0.8; stroke-linejoin: miter; stroke-linecap: square"/>
   </g>
   <g id="legend_1">
    <g id="patch_7">
     <path d="M 236.734062 86.198125 
L 310.502813 86.198125 
Q 312.502813 86.198125 312.502813 84.198125 
L 312.502813 55.841875 
Q 312.502813 53.841875 310.502813 53.841875 
L 236.734062 53.841875 
Q 234.734062 53.841875 234.734062 55.841875 
L 234.734062 84.198125 
Q 234.734062 86.198125 236.734062 86.198125 
z
" style="fill: #ffffff; opacity: 0.8; stroke: #cccccc; stroke-linejoin: miter"/>
    </g>
    <g id="line2d_25">
     <path d="M 238.734062 61.940312 
L 248.734062 61.940312 
L 258.734062 61.940312 
" style="fill: none; stroke: #0000ff; stroke-opacity: 0.5; stroke-width: 3; stroke-linecap: square"/>
    </g>
    <g id="text_14">
     <!-- RNEA -->
     <g transform="translate(266.734062 65.440312) scale(0.1 -0.1)">
      <defs>
       <path id="DejaVuSans-52" d="M 2841 2188 
Q 3044 2119 3236 1894 
Q 3428 1669 3622 1275 
L 4263 0 
L 3584 0 
L 2988 1197 
Q 2756 1666 2539 1819 
Q 2322 1972 1947 1972 
L 1259 1972 
L 1259 0 
L 628 0 
L 628 4666 
L 2053 4666 
Q 2853 4666 3247 4331 
Q 3641 3997 3641 3322 
Q 3641 2881 3436 2590 
Q 3231 2300 2841 2188 
z
M 1259 4147 
L 1259 2491 
L 2053 2491 
Q 2509 2491 2742 2702 
Q 2975 2913 2975 3322 
Q 2975 3731 2742 3939 
Q 2509 4147 2053 4147 
L 1259 4147 
z
" transform="scale(0.015625)"/>
       <path id="DejaVuSans-45" d="M 628 4666 
L 3578 4666 
L 3578 4134 
L 1259 4134 
L 1259 2753 
L 3481 2753 
L 3481 2222 
L 1259 2222 
L 1259 531 
L 3634 531 
L 3634 0 
L 628 0 
L 628 4666 
z
" transform="scale(0.015625)"/>
       <path id="DejaVuSans-41" d="M 2188 4044 
L 1331 1722 
L 3047 1722 
L 2188 4044 
z
M 1831 4666 
L 2547 4666 
L 4325 0 
L 3669 0 
L 3244 1197 
L 1141 1197 
L 716 0 
L 50 0 
L 1831 4666 
z
" transform="scale(0.015625)"/>
      </defs>
      <use xlink:href="#DejaVuSans-52"/>
      <use xlink:href="#DejaVuSans-4e" x="69.482422"/>
      <use xlink:href="#DejaVuSans-45" x="144.287109"/>
      <use xlink:href="#DejaVuSans-41" x="207.470703"/>
     </g>
    </g>
    <g id="line2d_26">
     <path d="M 238.734062 76.618437 
L 248.734062 76.618437 
L 258.734062 76.618437 
" style="fill: none; stroke: #ff0000; stroke-opacity: 0.5; stroke-width: 3; stroke-linecap: square"/>
    </g>
    <g id="text_15">
     <!-- BURNEA -->
     <g transform="translate(266.734062 80.118437) scale(0.1 -0.1)">
      <defs>
       <path id="DejaVuSans-42" d="M 1259 2228 
L 1259 519 
L 2272 519 
Q 2781 519 3026 730 
Q 3272 941 3272 1375 
Q 3272 1813 3026 2020 
Q 2781 2228 2272 2228 
L 1259 2228 
z
M 1259 4147 
L 1259 2741 
L 2194 2741 
Q 2656 2741 2882 2914 
Q 3109 3088 3109 3444 
Q 3109 3797 2882 3972 
Q 2656 4147 2194 4147 
L 1259 4147 
z
M 628 4666 
L 2241 4666 
Q 2963 4666 3353 4366 
Q 3744 4066 3744 3513 
Q 3744 3084 3544 2831 
Q 3344 2578 2956 2516 
Q 3422 2416 3680 2098 
Q 3938 1781 3938 1306 
Q 3938 681 3513 340 
Q 3088 0 2303 0 
L 628 0 
L 628 4666 
z
" transform="scale(0.015625)"/>
       <path id="DejaVuSans-55" d="M 556 4666 
L 1191 4666 
L 1191 1831 
Q 1191 1081 1462 751 
Q 1734 422 2344 422 
Q 2950 422 3222 751 
Q 3494 1081 3494 1831 
L 3494 4666 
L 4128 4666 
L 4128 1753 
Q 4128 841 3676 375 
Q 3225 -91 2344 -91 
Q 1459 -91 1007 375 
Q 556 841 556 1753 
L 556 4666 
z
" transform="scale(0.015625)"/>
      </defs>
      <use xlink:href="#DejaVuSans-42"/>
      <use xlink:href="#DejaVuSans-55" x="68.603516"/>
      <use xlink:href="#DejaVuSans-52" x="141.796875"/>
      <use xlink:href="#DejaVuSans-4e" x="211.279297"/>
      <use xlink:href="#DejaVuSans-45" x="286.083984"/>
      <use xlink:href="#DejaVuSans-41" x="349.267578"/>
     </g>
    </g>
   </g>
  </g>
 </g>
 <defs>
  <clipPath id="p5edb934a83">
   <rect x="38.502813" y="0.72" width="279" height="138.6"/>
  </clipPath>
 </defs>
</svg>
