<?xml version="1.0" encoding="utf-8" standalone="no"?>
<!DOCTYPE svg PUBLIC "-//W3C//DTD SVG 1.1//EN"
  "http://www.w3.org/Graphics/SVG/1.1/DTD/svg11.dtd">
<svg xmlns:xlink="http://www.w3.org/1999/xlink" width="311.860312pt" height="166.39625pt" viewBox="0 0 311.860312 166.39625" xmlns="http://www.w3.org/2000/svg" version="1.1">
 <metadata>
  <rdf:RDF xmlns:dc="http://purl.org/dc/elements/1.1/" xmlns:cc="http://creativecommons.org/ns#" xmlns:rdf="http://www.w3.org/1999/02/22-rdf-syntax-ns#">
   <cc:Work>
    <dc:type rdf:resource="http://purl.org/dc/dcmitype/StillImage"/>
    <dc:date>2023-09-07T03:31:07.251288</dc:date>
    <dc:format>image/svg+xml</dc:format>
    <dc:creator>
     <cc:Agent>
      <dc:title>Matplotlib v3.7.2, https://matplotlib.org/</dc:title>
     </cc:Agent>
    </dc:creator>
   </cc:Work>
  </rdf:RDF>
 </metadata>
 <defs>
  <style type="text/css">*{stroke-linejoin: round; stroke-linecap: butt}</style>
 </defs>
 <g id="figure_1">
  <g id="patch_1">
   <path d="M 0 166.39625 
L 311.860312 166.39625 
L 311.860312 0 
L 0 0 
L 0 166.39625 
z
" style="fill: none"/>
  </g>
  <g id="axes_1">
   <g id="patch_2">
    <path d="M 32.140313 139.32 
L 311.140312 139.32 
L 311.140312 0.72 
L 32.140313 0.72 
L 32.140313 139.32 
z
" style="fill: none"/>
   </g>
   <g id="matplotlib.axis_1">
    <g id="xtick_1">
     <g id="line2d_1">
      <path d="M 32.140313 139.32 
L 32.140313 0.72 
" clip-path="url(#p2c5ecc833a)" style="fill: none; stroke-dasharray: 0.8,1.32; stroke-dashoffset: 0; stroke: #000000; stroke-opacity: 0.5; stroke-width: 0.8"/>
     </g>
     <g id="line2d_2">
      <defs>
       <path id="mcf70f1473b" d="M 0 0 
L 0 3.5 
" style="stroke: #000000; stroke-width: 0.8"/>
      </defs>
      <g>
       <use xlink:href="#mcf70f1473b" x="32.140313" y="139.32" style="stroke: #000000; stroke-width: 0.8"/>
      </g>
     </g>
     <g id="text_1">
      <!-- 0 -->
      <g transform="translate(28.959063 153.918437) scale(0.1 -0.1)">
       <defs>
        <path id="DejaVuSans-30" d="M 2034 4250 
Q 1547 4250 1301 3770 
Q 1056 3291 1056 2328 
Q 1056 1369 1301 889 
Q 1547 409 2034 409 
Q 2525 409 2770 889 
Q 3016 1369 3016 2328 
Q 3016 3291 2770 3770 
Q 2525 4250 2034 4250 
z
M 2034 4750 
Q 2819 4750 3233 4129 
Q 3647 3509 3647 2328 
Q 3647 1150 3233 529 
Q 2819 -91 2034 -91 
Q 1250 -91 836 529 
Q 422 1150 422 2328 
Q 422 3509 836 4129 
Q 1250 4750 2034 4750 
z
" transform="scale(0.015625)"/>
       </defs>
       <use xlink:href="#DejaVuSans-30"/>
      </g>
     </g>
    </g>
    <g id="xtick_2">
     <g id="line2d_3">
      <path d="M 74.755213 139.32 
L 74.755213 0.72 
" clip-path="url(#p2c5ecc833a)" style="fill: none; stroke-dasharray: 0.8,1.32; stroke-dashoffset: 0; stroke: #000000; stroke-opacity: 0.5; stroke-width: 0.8"/>
     </g>
     <g id="line2d_4">
      <g>
       <use xlink:href="#mcf70f1473b" x="74.755213" y="139.32" style="stroke: #000000; stroke-width: 0.8"/>
      </g>
     </g>
     <g id="text_2">
      <!-- 5 -->
      <g transform="translate(71.573963 153.918437) scale(0.1 -0.1)">
       <defs>
        <path id="DejaVuSans-35" d="M 691 4666 
L 3169 4666 
L 3169 4134 
L 1269 4134 
L 1269 2991 
Q 1406 3038 1543 3061 
Q 1681 3084 1819 3084 
Q 2600 3084 3056 2656 
Q 3513 2228 3513 1497 
Q 3513 744 3044 326 
Q 2575 -91 1722 -91 
Q 1428 -91 1123 -41 
Q 819 9 494 109 
L 494 744 
Q 775 591 1075 516 
Q 1375 441 1709 441 
Q 2250 441 2565 725 
Q 2881 1009 2881 1497 
Q 2881 1984 2565 2268 
Q 2250 2553 1709 2553 
Q 1456 2553 1204 2497 
Q 953 2441 691 2322 
L 691 4666 
z
" transform="scale(0.015625)"/>
       </defs>
       <use xlink:href="#DejaVuSans-35"/>
      </g>
     </g>
    </g>
    <g id="xtick_3">
     <g id="line2d_5">
      <path d="M 117.370114 139.32 
L 117.370114 0.72 
" clip-path="url(#p2c5ecc833a)" style="fill: none; stroke-dasharray: 0.8,1.32; stroke-dashoffset: 0; stroke: #000000; stroke-opacity: 0.5; stroke-width: 0.8"/>
     </g>
     <g id="line2d_6">
      <g>
       <use xlink:href="#mcf70f1473b" x="117.370114" y="139.32" style="stroke: #000000; stroke-width: 0.8"/>
      </g>
     </g>
     <g id="text_3">
      <!-- 10 -->
      <g transform="translate(111.007614 153.918437) scale(0.1 -0.1)">
       <defs>
        <path id="DejaVuSans-31" d="M 794 531 
L 1825 531 
L 1825 4091 
L 703 3866 
L 703 4441 
L 1819 4666 
L 2450 4666 
L 2450 531 
L 3481 531 
L 3481 0 
L 794 0 
L 794 531 
z
" transform="scale(0.015625)"/>
       </defs>
       <use xlink:href="#DejaVuSans-31"/>
       <use xlink:href="#DejaVuSans-30" x="63.623047"/>
      </g>
     </g>
    </g>
    <g id="xtick_4">
     <g id="line2d_7">
      <path d="M 159.985014 139.32 
L 159.985014 0.72 
" clip-path="url(#p2c5ecc833a)" style="fill: none; stroke-dasharray: 0.8,1.32; stroke-dashoffset: 0; stroke: #000000; stroke-opacity: 0.5; stroke-width: 0.8"/>
     </g>
     <g id="line2d_8">
      <g>
       <use xlink:href="#mcf70f1473b" x="159.985014" y="139.32" style="stroke: #000000; stroke-width: 0.8"/>
      </g>
     </g>
     <g id="text_4">
      <!-- 15 -->
      <g transform="translate(153.622514 153.918437) scale(0.1 -0.1)">
       <use xlink:href="#DejaVuSans-31"/>
       <use xlink:href="#DejaVuSans-35" x="63.623047"/>
      </g>
     </g>
    </g>
    <g id="xtick_5">
     <g id="line2d_9">
      <path d="M 202.599915 139.32 
L 202.599915 0.72 
" clip-path="url(#p2c5ecc833a)" style="fill: none; stroke-dasharray: 0.8,1.32; stroke-dashoffset: 0; stroke: #000000; stroke-opacity: 0.5; stroke-width: 0.8"/>
     </g>
     <g id="line2d_10">
      <g>
       <use xlink:href="#mcf70f1473b" x="202.599915" y="139.32" style="stroke: #000000; stroke-width: 0.8"/>
      </g>
     </g>
     <g id="text_5">
      <!-- 20 -->
      <g transform="translate(196.237415 153.918437) scale(0.1 -0.1)">
       <defs>
        <path id="DejaVuSans-32" d="M 1228 531 
L 3431 531 
L 3431 0 
L 469 0 
L 469 531 
Q 828 903 1448 1529 
Q 2069 2156 2228 2338 
Q 2531 2678 2651 2914 
Q 2772 3150 2772 3378 
Q 2772 3750 2511 3984 
Q 2250 4219 1831 4219 
Q 1534 4219 1204 4116 
Q 875 4013 500 3803 
L 500 4441 
Q 881 4594 1212 4672 
Q 1544 4750 1819 4750 
Q 2544 4750 2975 4387 
Q 3406 4025 3406 3419 
Q 3406 3131 3298 2873 
Q 3191 2616 2906 2266 
Q 2828 2175 2409 1742 
Q 1991 1309 1228 531 
z
" transform="scale(0.015625)"/>
       </defs>
       <use xlink:href="#DejaVuSans-32"/>
       <use xlink:href="#DejaVuSans-30" x="63.623047"/>
      </g>
     </g>
    </g>
    <g id="xtick_6">
     <g id="line2d_11">
      <path d="M 245.214815 139.32 
L 245.214815 0.72 
" clip-path="url(#p2c5ecc833a)" style="fill: none; stroke-dasharray: 0.8,1.32; stroke-dashoffset: 0; stroke: #000000; stroke-opacity: 0.5; stroke-width: 0.8"/>
     </g>
     <g id="line2d_12">
      <g>
       <use xlink:href="#mcf70f1473b" x="245.214815" y="139.32" style="stroke: #000000; stroke-width: 0.8"/>
      </g>
     </g>
     <g id="text_6">
      <!-- 25 -->
      <g transform="translate(238.852315 153.918437) scale(0.1 -0.1)">
       <use xlink:href="#DejaVuSans-32"/>
       <use xlink:href="#DejaVuSans-35" x="63.623047"/>
      </g>
     </g>
    </g>
    <g id="xtick_7">
     <g id="line2d_13">
      <path d="M 287.829716 139.32 
L 287.829716 0.72 
" clip-path="url(#p2c5ecc833a)" style="fill: none; stroke-dasharray: 0.8,1.32; stroke-dashoffset: 0; stroke: #000000; stroke-opacity: 0.5; stroke-width: 0.8"/>
     </g>
     <g id="line2d_14">
      <g>
       <use xlink:href="#mcf70f1473b" x="287.829716" y="139.32" style="stroke: #000000; stroke-width: 0.8"/>
      </g>
     </g>
     <g id="text_7">
      <!-- 30 -->
      <g transform="translate(281.467216 153.918437) scale(0.1 -0.1)">
       <defs>
        <path id="DejaVuSans-33" d="M 2597 2516 
Q 3050 2419 3304 2112 
Q 3559 1806 3559 1356 
Q 3559 666 3084 287 
Q 2609 -91 1734 -91 
Q 1441 -91 1130 -33 
Q 819 25 488 141 
L 488 750 
Q 750 597 1062 519 
Q 1375 441 1716 441 
Q 2309 441 2620 675 
Q 2931 909 2931 1356 
Q 2931 1769 2642 2001 
Q 2353 2234 1838 2234 
L 1294 2234 
L 1294 2753 
L 1863 2753 
Q 2328 2753 2575 2939 
Q 2822 3125 2822 3475 
Q 2822 3834 2567 4026 
Q 2313 4219 1838 4219 
Q 1578 4219 1281 4162 
Q 984 4106 628 3988 
L 628 4550 
Q 988 4650 1302 4700 
Q 1616 4750 1894 4750 
Q 2613 4750 3031 4423 
Q 3450 4097 3450 3541 
Q 3450 3153 3228 2886 
Q 3006 2619 2597 2516 
z
" transform="scale(0.015625)"/>
       </defs>
       <use xlink:href="#DejaVuSans-33"/>
       <use xlink:href="#DejaVuSans-30" x="63.623047"/>
      </g>
     </g>
    </g>
    <g id="text_8">
     <!-- Zeit [s] -->
     <g transform="translate(153.694219 163.596562) scale(0.1 -0.1)">
      <defs>
       <path id="DejaVuSans-5a" d="M 359 4666 
L 4025 4666 
L 4025 4184 
L 1075 531 
L 4097 531 
L 4097 0 
L 288 0 
L 288 481 
L 3238 4134 
L 359 4134 
L 359 4666 
z
" transform="scale(0.015625)"/>
       <path id="DejaVuSans-65" d="M 3597 1894 
L 3597 1613 
L 953 1613 
Q 991 1019 1311 708 
Q 1631 397 2203 397 
Q 2534 397 2845 478 
Q 3156 559 3463 722 
L 3463 178 
Q 3153 47 2828 -22 
Q 2503 -91 2169 -91 
Q 1331 -91 842 396 
Q 353 884 353 1716 
Q 353 2575 817 3079 
Q 1281 3584 2069 3584 
Q 2775 3584 3186 3129 
Q 3597 2675 3597 1894 
z
M 3022 2063 
Q 3016 2534 2758 2815 
Q 2500 3097 2075 3097 
Q 1594 3097 1305 2825 
Q 1016 2553 972 2059 
L 3022 2063 
z
" transform="scale(0.015625)"/>
       <path id="DejaVuSans-69" d="M 603 3500 
L 1178 3500 
L 1178 0 
L 603 0 
L 603 3500 
z
M 603 4863 
L 1178 4863 
L 1178 4134 
L 603 4134 
L 603 4863 
z
" transform="scale(0.015625)"/>
       <path id="DejaVuSans-74" d="M 1172 4494 
L 1172 3500 
L 2356 3500 
L 2356 3053 
L 1172 3053 
L 1172 1153 
Q 1172 725 1289 603 
Q 1406 481 1766 481 
L 2356 481 
L 2356 0 
L 1766 0 
Q 1100 0 847 248 
Q 594 497 594 1153 
L 594 3053 
L 172 3053 
L 172 3500 
L 594 3500 
L 594 4494 
L 1172 4494 
z
" transform="scale(0.015625)"/>
       <path id="DejaVuSans-20" transform="scale(0.015625)"/>
       <path id="DejaVuSans-5b" d="M 550 4863 
L 1875 4863 
L 1875 4416 
L 1125 4416 
L 1125 -397 
L 1875 -397 
L 1875 -844 
L 550 -844 
L 550 4863 
z
" transform="scale(0.015625)"/>
       <path id="DejaVuSans-73" d="M 2834 3397 
L 2834 2853 
Q 2591 2978 2328 3040 
Q 2066 3103 1784 3103 
Q 1356 3103 1142 2972 
Q 928 2841 928 2578 
Q 928 2378 1081 2264 
Q 1234 2150 1697 2047 
L 1894 2003 
Q 2506 1872 2764 1633 
Q 3022 1394 3022 966 
Q 3022 478 2636 193 
Q 2250 -91 1575 -91 
Q 1294 -91 989 -36 
Q 684 19 347 128 
L 347 722 
Q 666 556 975 473 
Q 1284 391 1588 391 
Q 1994 391 2212 530 
Q 2431 669 2431 922 
Q 2431 1156 2273 1281 
Q 2116 1406 1581 1522 
L 1381 1569 
Q 847 1681 609 1914 
Q 372 2147 372 2553 
Q 372 3047 722 3315 
Q 1072 3584 1716 3584 
Q 2034 3584 2315 3537 
Q 2597 3491 2834 3397 
z
" transform="scale(0.015625)"/>
       <path id="DejaVuSans-5d" d="M 1947 4863 
L 1947 -844 
L 622 -844 
L 622 -397 
L 1369 -397 
L 1369 4416 
L 622 4416 
L 622 4863 
L 1947 4863 
z
" transform="scale(0.015625)"/>
      </defs>
      <use xlink:href="#DejaVuSans-5a"/>
      <use xlink:href="#DejaVuSans-65" x="68.505859"/>
      <use xlink:href="#DejaVuSans-69" x="130.029297"/>
      <use xlink:href="#DejaVuSans-74" x="157.8125"/>
      <use xlink:href="#DejaVuSans-20" x="197.021484"/>
      <use xlink:href="#DejaVuSans-5b" x="228.808594"/>
      <use xlink:href="#DejaVuSans-73" x="267.822266"/>
      <use xlink:href="#DejaVuSans-5d" x="319.921875"/>
     </g>
    </g>
   </g>
   <g id="matplotlib.axis_2">
    <g id="ytick_1">
     <g id="line2d_15">
      <path d="M 32.140313 112.33065 
L 311.140312 112.33065 
" clip-path="url(#p2c5ecc833a)" style="fill: none; stroke-dasharray: 0.8,1.32; stroke-dashoffset: 0; stroke: #000000; stroke-opacity: 0.5; stroke-width: 0.8"/>
     </g>
     <g id="line2d_16">
      <defs>
       <path id="m9cc9395dc0" d="M 0 0 
L -3.5 0 
" style="stroke: #000000; stroke-width: 0.8"/>
      </defs>
      <g>
       <use xlink:href="#m9cc9395dc0" x="32.140313" y="112.33065" style="stroke: #000000; stroke-width: 0.8"/>
      </g>
     </g>
     <g id="text_9">
      <!-- −6 -->
      <g transform="translate(10.398125 116.129868) scale(0.1 -0.1)">
       <defs>
        <path id="DejaVuSans-2212" d="M 678 2272 
L 4684 2272 
L 4684 1741 
L 678 1741 
L 678 2272 
z
" transform="scale(0.015625)"/>
        <path id="DejaVuSans-36" d="M 2113 2584 
Q 1688 2584 1439 2293 
Q 1191 2003 1191 1497 
Q 1191 994 1439 701 
Q 1688 409 2113 409 
Q 2538 409 2786 701 
Q 3034 994 3034 1497 
Q 3034 2003 2786 2293 
Q 2538 2584 2113 2584 
z
M 3366 4563 
L 3366 3988 
Q 3128 4100 2886 4159 
Q 2644 4219 2406 4219 
Q 1781 4219 1451 3797 
Q 1122 3375 1075 2522 
Q 1259 2794 1537 2939 
Q 1816 3084 2150 3084 
Q 2853 3084 3261 2657 
Q 3669 2231 3669 1497 
Q 3669 778 3244 343 
Q 2819 -91 2113 -91 
Q 1303 -91 875 529 
Q 447 1150 447 2328 
Q 447 3434 972 4092 
Q 1497 4750 2381 4750 
Q 2619 4750 2861 4703 
Q 3103 4656 3366 4563 
z
" transform="scale(0.015625)"/>
       </defs>
       <use xlink:href="#DejaVuSans-2212"/>
       <use xlink:href="#DejaVuSans-36" x="83.789062"/>
      </g>
     </g>
    </g>
    <g id="ytick_2">
     <g id="line2d_17">
      <path d="M 32.140313 76.890505 
L 311.140312 76.890505 
" clip-path="url(#p2c5ecc833a)" style="fill: none; stroke-dasharray: 0.8,1.32; stroke-dashoffset: 0; stroke: #000000; stroke-opacity: 0.5; stroke-width: 0.8"/>
     </g>
     <g id="line2d_18">
      <g>
       <use xlink:href="#m9cc9395dc0" x="32.140313" y="76.890505" style="stroke: #000000; stroke-width: 0.8"/>
      </g>
     </g>
     <g id="text_10">
      <!-- −4 -->
      <g transform="translate(10.398125 80.689724) scale(0.1 -0.1)">
       <defs>
        <path id="DejaVuSans-34" d="M 2419 4116 
L 825 1625 
L 2419 1625 
L 2419 4116 
z
M 2253 4666 
L 3047 4666 
L 3047 1625 
L 3713 1625 
L 3713 1100 
L 3047 1100 
L 3047 0 
L 2419 0 
L 2419 1100 
L 313 1100 
L 313 1709 
L 2253 4666 
z
" transform="scale(0.015625)"/>
       </defs>
       <use xlink:href="#DejaVuSans-2212"/>
       <use xlink:href="#DejaVuSans-34" x="83.789062"/>
      </g>
     </g>
    </g>
    <g id="ytick_3">
     <g id="line2d_19">
      <path d="M 32.140313 41.450361 
L 311.140312 41.450361 
" clip-path="url(#p2c5ecc833a)" style="fill: none; stroke-dasharray: 0.8,1.32; stroke-dashoffset: 0; stroke: #000000; stroke-opacity: 0.5; stroke-width: 0.8"/>
     </g>
     <g id="line2d_20">
      <g>
       <use xlink:href="#m9cc9395dc0" x="32.140313" y="41.450361" style="stroke: #000000; stroke-width: 0.8"/>
      </g>
     </g>
     <g id="text_11">
      <!-- −2 -->
      <g transform="translate(10.398125 45.24958) scale(0.1 -0.1)">
       <use xlink:href="#DejaVuSans-2212"/>
       <use xlink:href="#DejaVuSans-32" x="83.789062"/>
      </g>
     </g>
    </g>
    <g id="ytick_4">
     <g id="line2d_21">
      <path d="M 32.140313 6.010216 
L 311.140312 6.010216 
" clip-path="url(#p2c5ecc833a)" style="fill: none; stroke-dasharray: 0.8,1.32; stroke-dashoffset: 0; stroke: #000000; stroke-opacity: 0.5; stroke-width: 0.8"/>
     </g>
     <g id="line2d_22">
      <g>
       <use xlink:href="#m9cc9395dc0" x="32.140313" y="6.010216" style="stroke: #000000; stroke-width: 0.8"/>
      </g>
     </g>
     <g id="text_12">
      <!-- 0 -->
      <g transform="translate(18.777813 9.809435) scale(0.1 -0.1)">
       <use xlink:href="#DejaVuSans-30"/>
      </g>
     </g>
    </g>
    <g id="text_13">
     <!-- Kraft [N] -->
     <g transform="translate(8.318438 91.2825) rotate(-90) scale(0.1 -0.1)">
      <defs>
       <path id="DejaVuSans-4b" d="M 628 4666 
L 1259 4666 
L 1259 2694 
L 3353 4666 
L 4166 4666 
L 1850 2491 
L 4331 0 
L 3500 0 
L 1259 2247 
L 1259 0 
L 628 0 
L 628 4666 
z
" transform="scale(0.015625)"/>
       <path id="DejaVuSans-72" d="M 2631 2963 
Q 2534 3019 2420 3045 
Q 2306 3072 2169 3072 
Q 1681 3072 1420 2755 
Q 1159 2438 1159 1844 
L 1159 0 
L 581 0 
L 581 3500 
L 1159 3500 
L 1159 2956 
Q 1341 3275 1631 3429 
Q 1922 3584 2338 3584 
Q 2397 3584 2469 3576 
Q 2541 3569 2628 3553 
L 2631 2963 
z
" transform="scale(0.015625)"/>
       <path id="DejaVuSans-61" d="M 2194 1759 
Q 1497 1759 1228 1600 
Q 959 1441 959 1056 
Q 959 750 1161 570 
Q 1363 391 1709 391 
Q 2188 391 2477 730 
Q 2766 1069 2766 1631 
L 2766 1759 
L 2194 1759 
z
M 3341 1997 
L 3341 0 
L 2766 0 
L 2766 531 
Q 2569 213 2275 61 
Q 1981 -91 1556 -91 
Q 1019 -91 701 211 
Q 384 513 384 1019 
Q 384 1609 779 1909 
Q 1175 2209 1959 2209 
L 2766 2209 
L 2766 2266 
Q 2766 2663 2505 2880 
Q 2244 3097 1772 3097 
Q 1472 3097 1187 3025 
Q 903 2953 641 2809 
L 641 3341 
Q 956 3463 1253 3523 
Q 1550 3584 1831 3584 
Q 2591 3584 2966 3190 
Q 3341 2797 3341 1997 
z
" transform="scale(0.015625)"/>
       <path id="DejaVuSans-66" d="M 2375 4863 
L 2375 4384 
L 1825 4384 
Q 1516 4384 1395 4259 
Q 1275 4134 1275 3809 
L 1275 3500 
L 2222 3500 
L 2222 3053 
L 1275 3053 
L 1275 0 
L 697 0 
L 697 3053 
L 147 3053 
L 147 3500 
L 697 3500 
L 697 3744 
Q 697 4328 969 4595 
Q 1241 4863 1831 4863 
L 2375 4863 
z
" transform="scale(0.015625)"/>
       <path id="DejaVuSans-4e" d="M 628 4666 
L 1478 4666 
L 3547 763 
L 3547 4666 
L 4159 4666 
L 4159 0 
L 3309 0 
L 1241 3903 
L 1241 0 
L 628 0 
L 628 4666 
z
" transform="scale(0.015625)"/>
      </defs>
      <use xlink:href="#DejaVuSans-4b"/>
      <use xlink:href="#DejaVuSans-72" x="65.576172"/>
      <use xlink:href="#DejaVuSans-61" x="106.689453"/>
      <use xlink:href="#DejaVuSans-66" x="167.96875"/>
      <use xlink:href="#DejaVuSans-74" x="201.423828"/>
      <use xlink:href="#DejaVuSans-20" x="240.632812"/>
      <use xlink:href="#DejaVuSans-5b" x="272.419922"/>
      <use xlink:href="#DejaVuSans-4e" x="311.433594"/>
      <use xlink:href="#DejaVuSans-5d" x="386.238281"/>
     </g>
    </g>
   </g>
   <g id="line2d_23">
    <path d="M 32.140313 5.949927 
L 32.287929 6.004505 
L 33.826569 5.903715 
L 33.928097 6.04034 
L 33.979982 5.959026 
L 34.272442 5.972792 
L 34.48126 5.971369 
L 34.617012 5.985001 
L 35.114121 5.917906 
L 35.182996 6.026582 
L 35.252126 5.930205 
L 35.670015 5.970481 
L 35.890457 5.978852 
L 36.388653 5.940077 
L 36.525382 5.975446 
L 36.888797 5.936648 
L 37.095512 5.937031 
L 37.232952 6.011673 
L 37.456822 5.929289 
L 37.872585 5.970522 
L 38.093253 5.93829 
L 38.2312 5.995672 
L 38.506016 5.94107 
L 39.009331 5.977852 
L 39.74518 6.004655 
L 39.934007 5.869046 
L 40.209924 6.009866 
L 40.362966 5.970418 
L 40.431802 6.035302 
L 40.571188 5.961091 
L 40.864151 5.963245 
L 41.001055 5.940421 
L 41.522942 5.945293 
L 41.659339 5.935114 
L 42.067779 6.019109 
L 42.454726 5.929498 
L 42.465138 5.970487 
L 42.655407 5.988944 
L 42.949373 5.918833 
L 43.222292 6.006669 
L 43.361568 6.005583 
L 43.824978 5.971391 
L 44.074815 6.02329 
L 44.364097 5.990361 
L 44.872316 5.977282 
L 45.1119 5.956311 
L 45.248892 5.987224 
L 45.266905 5.95428 
L 45.902112 5.97636 
L 46.62285 5.946912 
L 46.681161 6.023877 
L 46.759838 5.949727 
L 65.636267 5.973064 
L 65.686626 5.907712 
L 65.738865 5.977835 
L 65.976523 5.98791 
L 66.15132 5.944677 
L 66.359883 5.998304 
L 66.787559 5.976498 
L 66.857057 5.913634 
L 67.279438 6.023041 
L 67.320973 5.949292 
L 67.355968 5.975187 
L 67.582211 6.025905 
L 67.785513 5.945498 
L 68.014574 6.047368 
L 68.214975 5.981026 
L 68.577423 5.994175 
L 70.556814 5.946647 
L 70.642956 6.033147 
L 70.715677 5.960433 
L 70.850425 5.957158 
L 71.006567 5.958727 
L 71.144193 5.979715 
L 71.365876 5.983889 
L 114.444577 6.000802 
L 114.615869 5.956439 
L 114.942526 5.977478 
L 115.096889 5.983114 
L 116.746042 5.958448 
L 117.315136 5.938724 
L 117.434691 5.982482 
L 117.865335 5.935374 
L 118.683937 5.979473 
L 118.944614 5.995542 
L 121.128659 5.980419 
L 121.198228 6.023326 
L 121.352606 5.972687 
L 121.856476 5.998023 
L 121.868262 5.970406 
L 122.040412 5.980431 
L 122.058674 5.947852 
L 122.127139 5.991414 
L 122.385058 5.923932 
L 122.489764 5.979717 
L 122.76425 5.946398 
L 122.935481 5.98783 
L 122.987859 5.950488 
L 123.056196 6.038937 
L 123.123847 5.935913 
L 123.194948 5.997908 
L 123.691775 5.933496 
L 123.897733 6.021716 
L 124.189623 5.953379 
L 124.326937 5.942681 
L 125.510549 5.970291 
L 125.607563 5.918622 
L 125.751735 6.007849 
L 125.820537 5.900264 
L 125.890467 6.044561 
L 125.974747 5.965619 
L 126.096344 5.994024 
L 126.267022 5.978112 
L 126.605719 5.905967 
L 126.843901 6.014849 
L 127.068642 5.941748 
L 127.241811 5.971126 
L 127.98097 5.94984 
L 128.238872 5.981637 
L 129.580311 5.975172 
L 129.891719 5.973335 
L 130.08561 5.973046 
L 130.286082 5.997879 
L 130.452482 5.972344 
L 130.715556 6.020984 
L 131.01521 5.941316 
L 131.194994 6.005226 
L 131.217288 5.965492 
L 131.74461 5.956371 
L 131.876363 6.056238 
L 132.029802 5.96606 
L 132.562449 5.952047 
L 132.632953 6.052954 
L 132.700458 5.981727 
L 132.993109 6.034542 
L 133.130573 6.000669 
L 133.381081 5.990708 
L 133.663022 6.02768 
L 133.939518 5.956676 
L 133.989474 5.990685 
L 134.219643 5.959775 
L 134.504834 5.964692 
L 135.125811 5.991231 
L 135.331775 5.940479 
L 135.484862 5.988886 
L 136.757801 5.952022 
L 136.770783 6.036816 
L 136.839731 5.995597 
L 137.132576 5.974176 
L 137.892247 5.969719 
L 138.117443 5.919461 
L 138.287681 6.036394 
L 138.323623 5.979536 
L 138.752599 5.991361 
L 139.530687 5.96274 
L 139.680533 6.00303 
L 139.874886 5.976249 
L 140.372492 5.973027 
L 142.36866 5.960409 
L 142.574612 6.023854 
L 142.651874 5.936036 
L 142.725182 6.01113 
L 142.937027 5.925002 
L 143.078138 5.976119 
L 143.28132 5.947235 
L 143.71245 5.961532 
L 144.000082 6.006678 
L 144.153729 5.978911 
L 144.362324 5.934111 
L 144.452228 6.020551 
L 144.488474 5.952234 
L 144.872825 5.972209 
L 145.007435 5.954657 
L 145.057554 6.003153 
L 145.123678 5.921987 
L 145.293114 6.015678 
L 145.430918 5.955344 
L 146.342286 6.016556 
L 146.564774 5.949963 
L 146.787566 5.962252 
L 147.062603 5.933913 
L 147.560609 5.994743 
L 147.680508 5.940566 
L 147.784053 6.017534 
L 147.90434 5.928137 
L 148.907593 6.00028 
L 148.986724 5.973568 
L 149.244432 5.998128 
L 149.3384 5.925925 
L 149.834012 5.991427 
L 152.445334 5.981538 
L 152.583987 5.91681 
L 152.805679 5.988919 
L 152.960592 5.935262 
L 153.200856 6.035339 
L 153.2356 5.941362 
L 153.3036 5.988298 
L 154.165683 5.853333 
L 154.232698 5.9891 
L 154.300961 5.95062 
L 154.665978 5.965265 
L 154.832482 5.970817 
L 155.075065 5.9837 
L 155.369184 5.953449 
L 155.642401 5.967379 
L 156.056292 5.988768 
L 156.297475 5.971479 
L 158.308056 5.975464 
L 158.701494 5.979072 
L 159.252952 5.967925 
L 159.408268 6.009574 
L 160.061094 5.9393 
L 160.13058 5.979595 
L 160.336585 5.977663 
L 160.713373 6.023378 
L 160.837818 5.921323 
L 160.902786 6.018911 
L 160.971361 5.931244 
L 161.091057 6.028098 
L 161.125467 5.956103 
L 179.637515 5.948688 
L 179.791966 5.963635 
L 180.965224 6.03235 
L 181.189297 5.970653 
L 181.222881 6.02145 
L 181.583558 5.968029 
L 182.618337 5.954279 
L 182.653822 6.021798 
L 182.704728 5.932846 
L 182.997038 5.940105 
L 183.173401 6.007419 
L 183.633955 6.019311 
L 183.805481 5.938249 
L 183.994513 5.992761 
L 184.131579 5.967033 
L 185.557966 5.974764 
L 185.988231 5.950446 
L 186.915859 5.979619 
L 187.244007 5.954514 
L 187.603147 6.028505 
L 187.637204 5.981538 
L 187.690757 6.03286 
L 188.446883 5.930356 
L 188.478107 6.01999 
L 188.546681 5.945604 
L 188.843833 5.986205 
L 189.116734 5.974797 
L 193.65704 5.999694 
L 193.72428 5.922152 
L 193.881544 5.977276 
L 194.00155 6.025196 
L 194.366308 5.940544 
L 194.822863 6.033074 
L 194.945308 5.986289 
L 195.355804 5.976956 
L 195.510289 6.032558 
L 195.716245 5.972001 
L 196.78151 5.991973 
L 196.849631 5.921443 
L 197.365528 6.002493 
L 197.416707 5.91925 
L 197.55354 5.986559 
L 197.965675 5.990954 
L 199.049093 5.961474 
L 199.392929 5.981087 
L 199.479267 5.954477 
L 199.615931 5.949391 
L 199.827372 5.967124 
L 199.977166 6.000437 
L 200.271309 5.961507 
L 201.113836 5.977283 
L 201.422325 5.942043 
L 201.714572 6.049318 
L 201.904763 5.968791 
L 202.129412 5.954571 
L 204.03063 5.947706 
L 204.308705 5.9588 
L 204.386806 6.034839 
L 204.482343 5.951401 
L 204.698032 5.983807 
L 205.37178 5.999269 
L 205.523159 5.969804 
L 205.731857 6.039263 
L 206.006884 5.936054 
L 206.229851 5.982142 
L 206.436649 5.979462 
L 207.439017 5.96802 
L 207.576936 5.98596 
L 207.86852 5.953851 
L 208.074439 6.013955 
L 208.230489 5.93189 
L 208.368585 5.97355 
L 208.852465 5.900382 
L 209.089954 5.953936 
L 209.243426 5.97724 
L 209.277871 6.035815 
L 209.347595 5.977564 
L 209.588521 5.979852 
L 210.558459 6.000823 
L 210.639931 6.069449 
L 210.739843 5.912084 
L 210.778954 5.965886 
L 211.284492 6.016046 
L 211.564353 5.952265 
L 211.616333 6.016972 
L 211.700511 5.901546 
L 211.769325 5.961369 
L 212.270631 6.003266 
L 212.421614 5.968756 
L 214.041495 5.965451 
L 214.230905 6.023723 
L 214.336256 5.9703 
L 218.563348 5.949417 
L 218.588866 5.904996 
L 218.851166 6.039492 
L 218.863154 5.92133 
L 218.882546 5.993045 
L 219.224862 5.992455 
L 219.379737 5.93129 
L 219.519906 5.969736 
L 219.999293 5.989011 
L 220.221295 5.960527 
L 220.512624 5.98758 
L 221.303195 5.968073 
L 221.510227 5.966694 
L 221.855923 5.975175 
L 221.924182 6.007102 
L 222.007907 5.919572 
L 222.076376 5.985182 
L 222.283117 5.932898 
L 222.702869 5.981339 
L 222.855246 5.968834 
L 222.991636 5.954716 
L 223.338196 5.982858 
L 223.578048 5.957947 
L 223.972337 5.988387 
L 224.149236 5.993561 
L 224.402434 5.964932 
L 224.557295 5.967311 
L 226.535884 6.025587 
L 226.603829 5.926312 
L 226.792397 6.009767 
L 226.826559 5.919404 
L 226.900099 5.981555 
L 228.81446 5.969657 
L 228.950571 6.023136 
L 229.105356 6.02252 
L 229.434971 5.978625 
L 229.517515 5.99822 
L 230.137332 5.937138 
L 230.274786 5.981247 
L 230.878307 5.943304 
L 231.087292 5.977119 
L 231.516853 5.980504 
L 275.864378 5.982289 
L 275.86451 5.89186 
L 275.922404 5.95601 
L 276.555426 5.925881 
L 279.955158 6.000086 
L 280.315428 5.933729 
L 280.680402 6.007074 
L 280.899199 5.928909 
L 281.277076 5.98199 
L 281.312147 5.945783 
L 281.380442 6.012447 
L 281.947342 5.968716 
L 282.188157 6.01863 
L 282.24025 5.961514 
L 282.362395 5.999725 
L 282.44278 5.875104 
L 282.500735 5.979605 
L 283.082111 5.984146 
L 283.653061 5.972988 
L 283.821168 5.965476 
L 284.027086 5.984318 
L 284.08181 5.912794 
L 284.147803 6.002283 
L 286.844631 6.03696 
L 286.913378 5.936314 
L 287.205624 5.995269 
L 289.040413 5.974713 
L 289.196027 5.981614 
L 289.537006 5.961185 
L 289.692577 5.995757 
L 289.97075 5.926618 
L 290.189674 5.995364 
L 290.328187 5.963611 
L 290.535898 6.001721 
L 290.688504 5.958572 
L 290.760896 5.99802 
L 291.12031 5.979136 
L 291.532618 5.965077 
L 291.670983 5.958997 
L 291.808733 5.949683 
L 291.882045 5.912639 
L 292.030925 6.006542 
L 292.461529 5.920921 
L 292.616234 5.984914 
L 293.097269 6.007521 
L 293.578443 5.951846 
L 294.162649 5.993864 
L 294.729334 5.948909 
L 295.226366 5.972284 
L 295.468689 5.987021 
L 295.793215 5.952643 
L 295.947558 5.978026 
L 296.316171 5.970749 
L 296.430417 5.988547 
L 296.659252 5.97053 
L 296.793693 5.958963 
L 297.219642 5.984944 
L 297.426078 5.954614 
L 298.644564 5.975454 
L 298.782506 6.011756 
L 298.939737 6.019081 
L 299.720133 5.961318 
L 300.209519 5.990989 
L 300.554162 5.964529 
L 300.625955 6.01883 
L 300.845293 5.942408 
L 300.982888 6.0094 
L 301.139166 5.967219 
L 301.259756 5.987235 
L 301.550361 6.000671 
L 301.704574 5.965446 
L 301.894039 5.94715 
L 302.048519 6.008876 
L 302.20327 6.007372 
L 302.890614 5.957847 
L 302.996376 5.921334 
L 303.119589 5.995686 
L 303.326509 5.988692 
L 303.621662 6.030683 
L 303.928751 5.924112 
L 304.031798 5.969579 
L 304.395337 5.985559 
L 304.964362 5.986457 
L 305.250035 5.981221 
L 305.469707 5.952116 
L 305.825736 5.977641 
L 306.771474 5.963556 
L 306.978511 5.961301 
L 307.151093 5.947239 
L 308.099365 5.968822 
L 308.235038 5.946962 
L 308.38921 5.979167 
L 308.719139 5.967532 
L 308.766431 5.920133 
L 308.800472 6.011415 
L 308.941452 6.012112 
L 309.564299 5.949311 
L 309.953734 6.01627 
L 310.336486 5.956072 
L 311.140312 5.944016 
L 311.140312 5.944016 
" clip-path="url(#p2c5ecc833a)" style="fill: none; stroke: #0000ff; stroke-opacity: 0.5; stroke-width: 3; stroke-linecap: square"/>
   </g>
   <g id="line2d_24">
    <path d="M 32.140313 127.695688 
L 32.287929 127.359102 
L 32.347662 127.35117 
L 32.438642 127.977043 
L 32.453761 127.71922 
L 32.692075 126.498688 
L 32.761221 126.261145 
L 32.847938 126.983452 
L 33.001387 125.523413 
L 33.052698 125.582041 
L 33.190232 124.141691 
L 33.362571 125.969906 
L 33.433486 124.474872 
L 33.482546 124.536048 
L 33.636902 125.781367 
L 33.756984 124.235888 
L 33.928097 126.222915 
L 33.979982 125.715335 
L 34.099975 127.461367 
L 34.20519 130.265144 
L 34.272442 129.260394 
L 34.341419 129.733369 
L 34.461526 131.099438 
L 34.547515 128.241875 
L 34.617012 130.508295 
L 34.976519 123.593279 
L 35.045172 123.615036 
L 35.106081 123.847364 
L 35.114121 127.194686 
L 35.182996 125.187868 
L 35.321323 123.485097 
L 35.46376 126.473348 
L 35.535626 126.351644 
L 35.615046 125.918866 
L 35.670015 128.047383 
L 35.752949 127.471757 
L 35.890457 126.212427 
L 35.95897 126.426066 
L 36.26968 124.149102 
L 36.457573 125.601357 
L 36.525382 125.503363 
L 36.629503 126.433474 
L 36.669052 126.225126 
L 36.820064 124.37126 
L 36.888797 124.412167 
L 36.96146 125.710777 
L 37.164653 123.431418 
L 37.456822 126.09264 
L 37.525537 125.884262 
L 37.663148 122.724426 
L 37.811115 125.112294 
L 38.023779 122.550119 
L 38.093253 123.038109 
L 38.368556 127.73905 
L 38.506016 126.408447 
L 38.667789 128.556946 
L 38.729702 128.170092 
L 38.935732 124.491754 
L 39.009331 125.732549 
L 39.092349 126.789296 
L 39.15878 126.493197 
L 39.299053 127.531291 
L 39.36732 126.639054 
L 39.435717 126.93321 
L 39.573142 127.687405 
L 39.67633 129.326467 
L 39.74518 129.292382 
L 39.882467 128.459963 
L 39.934007 128.857751 
L 40.054089 125.725207 
L 40.122436 126.342241 
L 40.176098 126.639325 
L 40.293898 124.815024 
L 40.500201 123.69146 
L 40.571188 124.198525 
L 40.658711 123.339315 
L 40.783472 124.563723 
L 40.864151 123.761929 
L 41.001055 125.252889 
L 41.28222 124.964782 
L 41.366344 124.120203 
L 41.436525 123.405424 
L 41.522942 123.399925 
L 41.576119 125.872535 
L 41.712621 124.306646 
L 41.872022 126.144911 
L 41.939241 124.847833 
L 42.067779 127.425855 
L 42.160103 126.877895 
L 42.307311 123.529059 
L 42.323383 124.623819 
L 42.358182 125.254951 
L 42.527969 123.469466 
L 42.655407 125.193755 
L 42.793311 122.076892 
L 43.016015 124.530774 
L 43.085522 124.026958 
L 43.170723 124.198566 
L 43.222292 122.13498 
L 43.273948 122.494154 
L 43.361568 121.666514 
L 43.599937 124.52211 
L 43.640623 125.980171 
L 43.737694 124.616732 
L 43.824978 124.636499 
L 43.85834 126.200349 
L 43.911152 126.092578 
L 44.023502 124.042834 
L 44.074815 126.533675 
L 44.133462 125.957255 
L 44.236184 126.592966 
L 44.364097 123.22609 
L 44.42534 124.51033 
L 44.477568 124.373267 
L 44.575556 124.092467 
L 44.716627 126.262717 
L 44.768407 125.444518 
L 44.975889 126.927967 
L 45.017221 126.452319 
L 45.1119 126.48723 
L 45.180391 126.893866 
L 45.248892 126.871094 
L 45.266905 125.595352 
L 45.335894 125.631664 
L 45.404658 126.343494 
L 45.627706 123.701108 
L 45.764364 125.612319 
L 45.833524 124.972699 
L 46.194219 128.550643 
L 46.262481 127.937432 
L 46.62285 126.178539 
L 46.897656 123.086089 
L 46.996378 124.075141 
L 47.035973 123.434684 
L 47.121057 122.743041 
L 47.328247 124.48158 
L 47.408406 125.427352 
L 47.465826 125.089872 
L 47.585615 123.963067 
L 47.636964 124.114445 
L 47.825842 126.368045 
L 47.929538 127.239262 
L 47.964213 127.208279 
L 48.119127 125.534495 
L 48.41161 128.967776 
L 48.513744 129.199896 
L 48.71994 126.714178 
L 48.771841 127.258857 
L 48.87041 127.039883 
L 48.891994 127.639941 
L 48.961298 126.564449 
L 49.11578 122.647968 
L 49.221429 122.954753 
L 49.326247 124.573353 
L 49.472646 123.17882 
L 49.544414 123.540388 
L 49.665613 120.735925 
L 49.722024 121.01683 
L 49.829141 122.693838 
L 50.062297 122.316893 
L 50.080432 122.411904 
L 50.16557 122.339689 
L 50.575644 126.598368 
L 50.746213 123.293449 
L 50.882915 126.990526 
L 50.985324 126.438561 
L 51.019824 126.798118 
L 51.297068 128.132103 
L 51.380421 129.969535 
L 51.518059 133.392165 
L 51.900331 129.645591 
L 51.916742 129.950164 
L 52.107049 128.541829 
L 52.156782 129.093577 
L 52.328779 127.34492 
L 52.39758 126.365863 
L 52.519631 128.011004 
L 52.644232 127.830179 
L 52.810348 131.649112 
L 52.948112 128.530544 
L 53.171255 131.860943 
L 53.226964 131.414638 
L 53.309571 131.717745 
L 53.53221 127.259853 
L 53.895555 129.527396 
L 54.27073 129.740128 
L 54.671447 126.766744 
L 55.046002 127.208951 
L 55.06118 127.594402 
L 55.146339 125.589631 
L 55.215805 126.55234 
L 55.284256 126.598668 
L 55.541679 124.797781 
L 55.835409 128.78654 
L 55.85155 127.681548 
L 55.971497 125.87883 
L 56.160678 130.488148 
L 56.263743 130.170001 
L 56.490411 127.223188 
L 56.563368 127.652772 
L 56.78065 130.256383 
L 56.866067 128.476613 
L 56.918031 128.569551 
L 57.088264 129.492837 
L 57.27799 127.179103 
L 57.416987 125.345771 
L 57.518877 125.269831 
L 57.622562 125.777788 
L 57.793145 126.267639 
L 58.06829 129.489135 
L 58.124565 129.505548 
L 58.137895 127.575554 
L 58.202381 129.638045 
L 58.374383 128.859888 
L 58.498622 128.014682 
L 58.546102 127.857297 
L 58.615154 128.706259 
L 58.769139 127.759783 
L 58.838115 128.255424 
L 58.992352 127.871843 
L 59.061929 128.411217 
L 59.113139 127.592909 
L 59.198846 127.707728 
L 59.423806 129.658579 
L 59.507699 129.821545 
L 59.610619 128.244405 
L 59.697168 129.241221 
L 59.816676 128.968107 
L 59.834782 129.783348 
L 59.903267 128.153987 
L 60.058724 125.719945 
L 60.195531 126.145714 
L 60.248732 126.177036 
L 60.333228 127.240455 
L 60.40222 126.777903 
L 60.470087 126.769535 
L 60.658725 130.025977 
L 60.763429 127.850043 
L 60.90985 128.102205 
L 60.994299 128.725404 
L 61.141492 127.028834 
L 61.220353 127.550199 
L 61.319851 124.436786 
L 61.388798 127.098711 
L 61.490237 127.077441 
L 61.559065 127.129149 
L 61.730817 125.115407 
L 61.81606 126.928079 
L 61.886887 127.296339 
L 62.056713 128.828831 
L 62.245207 125.200603 
L 62.365064 125.630639 
L 62.38431 126.861365 
L 62.473185 126.442501 
L 62.520907 126.001911 
L 62.811399 128.99794 
L 62.880506 128.795565 
L 63.087241 129.990197 
L 63.138785 129.897575 
L 63.176729 129.964097 
L 63.379055 128.345782 
L 63.448509 128.571009 
L 63.603623 130.70562 
L 63.707388 129.954185 
L 63.825871 128.416583 
L 63.877738 128.502885 
L 63.947236 129.372648 
L 64.015177 128.122374 
L 64.152308 127.817289 
L 64.256674 129.169891 
L 64.53086 127.360124 
L 64.581741 128.015664 
L 64.977618 126.022211 
L 65.1008 125.873694 
L 65.163854 126.29382 
L 65.293907 124.541521 
L 65.376512 124.885943 
L 65.531146 125.908674 
L 65.686626 122.563071 
L 65.738865 123.654385 
L 65.976523 126.396236 
L 66.221083 121.905494 
L 66.359883 124.725526 
L 66.443653 124.65421 
L 66.581609 122.980971 
L 66.77069 123.677149 
L 66.857057 127.13073 
L 66.977299 127.186989 
L 67.080245 125.018698 
L 67.14866 125.363107 
L 67.279438 125.315093 
L 67.355968 125.567414 
L 67.550873 124.070433 
L 67.715575 127.808155 
L 67.785513 127.609491 
L 67.925976 125.805064 
L 68.097625 128.265448 
L 68.180644 128.125021 
L 68.214975 127.388561 
L 68.353931 127.147906 
L 68.39434 126.577421 
L 68.491779 124.307732 
L 68.665596 125.95593 
L 68.800992 122.331916 
L 68.852724 122.556285 
L 69.025532 124.858165 
L 69.127164 123.709982 
L 69.144128 124.048206 
L 69.25593 125.007027 
L 69.420716 122.188031 
L 69.4885 123.186737 
L 69.643618 121.875993 
L 69.765548 123.335784 
L 69.781306 125.311464 
L 69.849475 123.550865 
L 69.918559 123.331027 
L 70.213802 126.537619 
L 70.269122 126.451944 
L 70.3508 126.83007 
L 70.419315 126.379532 
L 70.556814 130.039849 
L 70.642956 129.577353 
L 70.768006 127.83008 
L 70.781443 129.644083 
L 70.850425 128.433771 
L 71.006567 128.295094 
L 71.144193 130.950408 
L 71.351247 125.702184 
L 71.365876 125.872457 
L 71.486673 127.336953 
L 71.556231 127.210408 
L 71.62555 127.200575 
L 71.694473 127.709323 
L 71.866701 123.310364 
L 71.916752 124.44586 
L 71.988762 126.37879 
L 72.037951 125.977651 
L 72.160232 125.525133 
L 72.193806 126.148668 
L 72.399906 125.366423 
L 72.468367 126.454312 
L 72.485216 125.324104 
L 72.53774 125.986809 
L 72.661526 125.282659 
L 72.678423 123.857613 
L 72.766986 124.058341 
L 73.212439 126.469983 
L 73.348734 127.11013 
L 73.399282 129.553634 
L 73.468235 129.217522 
L 73.675057 126.288561 
L 73.761044 126.95882 
L 73.897601 126.882102 
L 74.110398 123.448648 
L 74.180929 124.300903 
L 74.348684 127.103886 
L 74.449972 126.846336 
L 74.51854 126.300981 
L 74.534664 126.998269 
L 74.621264 126.893725 
L 74.673067 125.333845 
L 74.776406 125.715729 
L 74.913265 128.116728 
L 74.964699 128.045723 
L 75.170509 126.376458 
L 75.240324 126.251222 
L 75.38628 128.195072 
L 75.507587 127.789369 
L 75.670502 124.791063 
L 75.743168 124.751897 
L 75.807703 126.098492 
L 75.876157 126.080685 
L 76.031167 123.958109 
L 76.186571 126.371591 
L 76.409758 124.477137 
L 76.444102 125.267635 
L 76.599192 124.713408 
L 76.667072 126.018957 
L 76.770253 125.721783 
L 76.891368 123.637672 
L 77.045568 125.899594 
L 77.097563 125.660309 
L 77.175464 123.802477 
L 77.271976 123.986738 
L 77.338983 124.361601 
L 77.448471 123.293615 
L 77.821346 126.079634 
L 77.948508 127.986232 
L 78.026829 125.966439 
L 78.178707 127.676479 
L 78.242616 127.365369 
L 78.252784 127.445678 
L 78.290777 128.701718 
L 78.407618 128.833519 
L 78.528579 126.514663 
L 78.596434 126.551151 
L 78.647673 128.789161 
L 78.838907 127.021166 
L 78.874203 128.04998 
L 78.929134 128.505979 
L 79.080842 125.41689 
L 79.217641 128.12087 
L 79.355755 124.260283 
L 79.372477 124.684813 
L 79.511331 126.352051 
L 79.647581 123.528314 
L 79.7156 124.219777 
L 79.784958 123.970418 
L 79.922828 121.875919 
L 80.077074 124.817094 
L 80.215072 123.715181 
L 80.281767 124.172277 
L 80.3551 124.19925 
L 80.42166 124.472283 
L 80.504577 123.22291 
L 80.57423 123.726216 
L 80.711933 125.272663 
L 80.848168 124.967707 
L 81.072011 127.800607 
L 81.141419 127.732752 
L 81.278547 130.138241 
L 81.416 127.653121 
L 81.484386 127.720477 
L 81.777797 123.856134 
L 81.915424 125.199812 
L 82.051481 122.801501 
L 82.343634 125.212893 
L 82.412664 123.547659 
L 82.489816 126.321666 
L 82.551278 125.238237 
L 82.620128 123.375233 
L 82.689587 125.608472 
L 82.792322 125.547559 
L 82.979364 123.832144 
L 83.065163 122.78804 
L 83.118003 125.317962 
L 83.193502 125.170297 
L 83.272427 126.004162 
L 83.340632 127.242742 
L 83.409404 125.903527 
L 83.480083 126.39684 
L 83.685711 128.342362 
L 83.827794 127.273448 
L 83.977478 124.589604 
L 84.126932 127.480073 
L 84.149187 127.140847 
L 84.184872 126.086684 
L 84.326951 125.401101 
L 84.412822 126.590917 
L 84.546621 126.28392 
L 84.59822 126.537801 
L 84.615929 127.327452 
L 84.685797 127.085104 
L 84.846824 125.146806 
L 84.97748 127.837054 
L 85.04669 126.27632 
L 85.149922 126.375365 
L 85.183733 127.749181 
L 85.252191 126.786321 
L 85.321388 126.405572 
L 85.390767 128.536274 
L 85.68994 126.571956 
L 85.70346 126.701406 
L 85.754395 128.222345 
L 85.927793 128.274198 
L 86.115757 126.200696 
L 86.184439 125.777246 
L 86.201735 126.857195 
L 86.37334 127.095275 
L 86.477808 125.092074 
L 86.495382 124.094995 
L 86.547778 124.539149 
L 86.635301 124.047419 
L 86.771033 126.613475 
L 86.805441 130.162476 
L 86.890387 128.290755 
L 86.959796 128.649431 
L 87.046186 128.408712 
L 87.098041 127.395846 
L 87.183102 130.986135 
L 87.354804 129.57686 
L 87.457239 128.5774 
L 87.475721 127.184499 
L 87.52556 128.81227 
L 87.595036 128.855003 
L 87.66363 127.813202 
L 87.767582 128.489635 
L 87.83636 128.351638 
L 87.923158 127.233742 
L 88.059032 129.624501 
L 88.145262 129.567108 
L 88.210652 129.117259 
L 88.232389 127.534233 
L 88.404068 129.417329 
L 88.454981 128.52513 
L 88.557565 128.578192 
L 88.591674 128.986064 
L 88.866451 127.474262 
L 89.021012 129.217537 
L 89.072252 129.015857 
L 89.262874 129.747729 
L 89.382316 129.029172 
L 89.402287 127.26836 
L 89.451115 128.687698 
L 89.51987 129.589085 
L 89.734844 127.80721 
L 89.868931 128.691627 
L 89.951358 128.350475 
L 90.094419 130.449159 
L 90.328889 127.235965 
L 90.500424 126.486085 
L 90.534974 126.244052 
L 90.675492 124.331054 
L 90.795445 123.658994 
L 90.879455 124.276072 
L 90.931748 123.694082 
L 91.070698 124.096557 
L 91.222453 121.349077 
L 91.291217 121.800399 
L 91.39447 122.824081 
L 91.467135 122.445263 
L 91.521865 122.796609 
L 91.651934 121.662828 
L 91.722514 121.981061 
L 91.789488 122.055549 
L 91.828516 122.320722 
L 92.015231 125.796708 
L 92.085673 125.699373 
L 92.445682 129.044924 
L 92.531675 128.202494 
L 92.584432 126.345662 
L 92.668677 126.732779 
L 92.771979 126.321259 
L 92.808435 125.245704 
L 92.892161 125.886992 
L 92.945026 124.778001 
L 93.012496 126.49101 
L 93.098071 126.305821 
L 93.149761 126.154821 
L 93.292819 129.001962 
L 93.355566 128.896096 
L 93.493745 129.433249 
L 93.564677 128.259819 
L 93.647543 128.44776 
L 94.043173 125.033383 
L 94.111506 124.647977 
L 94.146388 124.788502 
L 94.507874 127.032606 
L 94.578675 126.828064 
L 94.662749 126.938627 
L 94.782945 129.846444 
L 94.851861 129.815693 
L 94.99849 128.631817 
L 95.179202 130.014636 
L 95.250964 129.22807 
L 95.281967 129.527646 
L 95.350239 130.518241 
L 95.775014 123.934214 
L 95.848989 123.412224 
L 95.91748 123.587271 
L 95.986201 123.587154 
L 96.055336 122.892546 
L 96.13118 122.953618 
L 96.3306 123.857583 
L 96.350385 123.85195 
L 96.485762 126.278325 
L 96.631858 125.440508 
L 96.765239 127.508432 
L 96.829626 126.121781 
L 96.898777 126.231053 
L 96.983615 127.191528 
L 97.190338 125.259262 
L 97.335392 128.448771 
L 97.481193 124.701504 
L 97.620201 126.443636 
L 97.687509 125.396569 
L 97.757213 125.656195 
L 97.82575 126.447539 
L 98.117334 122.386492 
L 98.2546 123.852716 
L 98.326773 123.037027 
L 98.463281 124.719952 
L 98.547644 124.40406 
L 98.617244 124.291908 
L 98.890769 126.67358 
L 99.035275 124.666873 
L 99.190488 125.612022 
L 99.290787 125.625976 
L 99.321855 126.110977 
L 99.393215 125.027454 
L 99.459021 125.266016 
L 99.529414 124.99399 
L 99.683187 127.582818 
L 99.754197 127.786969 
L 99.958928 124.423672 
L 100.027414 124.939893 
L 100.096327 126.891095 
L 100.324805 124.280791 
L 100.391471 124.396783 
L 100.495442 125.849574 
L 100.607933 125.603039 
L 100.684703 126.229319 
L 100.804673 124.70697 
L 101.044009 126.504892 
L 101.164787 124.670618 
L 101.302609 124.372033 
L 101.404783 125.527655 
L 101.524588 124.821958 
L 101.595186 124.972321 
L 101.824976 124.712848 
L 102.024147 126.834896 
L 102.092706 126.30269 
L 102.179526 126.773696 
L 102.319699 125.811965 
L 102.371615 126.365996 
L 102.436756 126.288546 
L 102.522698 125.259191 
L 102.698265 127.236586 
L 102.729702 125.557054 
L 102.936398 127.352849 
L 103.073415 127.710103 
L 103.245488 129.311305 
L 103.373687 126.811278 
L 103.433936 127.083899 
L 103.505078 127.031227 
L 103.661954 127.88042 
L 103.795285 125.602363 
L 103.864307 125.936223 
L 104.104363 124.693734 
L 104.208313 124.972969 
L 104.363356 122.060212 
L 104.50048 122.671867 
L 104.587527 121.804486 
L 104.946945 127.071069 
L 104.964016 126.256217 
L 105.050278 125.857196 
L 105.073149 127.731135 
L 105.170464 127.720464 
L 105.221955 127.296181 
L 105.293788 128.446799 
L 105.35974 128.324147 
L 105.461886 128.08454 
L 105.566166 123.847616 
L 105.634301 123.874323 
L 105.787787 125.681638 
L 105.873852 125.240408 
L 105.942586 125.602949 
L 106.150625 123.910614 
L 106.289537 124.294215 
L 106.357175 124.194891 
L 106.427438 123.852853 
L 106.562619 125.060118 
L 106.666064 124.429696 
L 106.717829 124.698561 
L 106.785814 124.451074 
L 106.871874 124.546422 
L 106.941655 124.609752 
L 107.095779 127.624367 
L 107.215729 124.237477 
L 107.284654 124.818738 
L 107.353141 125.43111 
L 107.492136 125.209946 
L 107.557049 124.268685 
L 107.570245 125.517703 
L 107.671562 125.958642 
L 107.777588 122.919306 
L 107.920018 125.405592 
L 107.987981 124.459694 
L 108.280028 127.597453 
L 108.369148 125.846982 
L 108.43435 126.27879 
L 108.495822 126.454882 
L 108.641525 124.767266 
L 108.727074 126.123805 
L 108.833489 124.881928 
L 108.886329 122.75366 
L 108.919441 124.085086 
L 108.985824 124.082759 
L 109.054126 123.27059 
L 109.302148 124.639786 
L 109.381856 125.703422 
L 109.416021 125.269196 
L 109.657236 124.263763 
L 109.760661 124.800481 
L 109.928878 126.354155 
L 110.1632 121.614397 
L 110.1922 122.749391 
L 110.262717 123.439151 
L 110.328853 123.025422 
L 110.39832 123.222987 
L 110.554628 121.700683 
L 110.691261 123.553679 
L 110.760018 123.037266 
L 110.846491 125.063139 
L 110.914762 124.247032 
L 110.966191 124.470506 
L 111.140494 123.801543 
L 111.40087 127.647314 
L 111.465689 128.845556 
L 111.53657 127.475893 
L 111.62211 127.852825 
L 111.689459 127.88205 
L 111.845782 126.636035 
L 111.933739 127.542363 
L 111.967567 126.807925 
L 112.036075 126.310515 
L 112.109615 127.22532 
L 112.190352 125.653238 
L 112.398723 124.668147 
L 112.535085 128.559121 
L 112.672023 124.906636 
L 112.744694 125.130554 
L 112.82814 124.19035 
L 113.040478 127.201537 
L 113.10992 127.194296 
L 113.273712 125.725867 
L 113.412616 128.382013 
L 113.603383 127.408585 
L 114.238239 121.769028 
L 114.306944 120.100307 
L 114.375752 120.931291 
L 114.530499 123.111425 
L 114.615869 123.638651 
L 114.705875 123.366447 
L 114.872808 126.626921 
L 115.013636 128.977156 
L 115.178534 126.660249 
L 115.234172 127.688148 
L 115.388519 126.795578 
L 115.45774 127.345688 
L 115.544268 127.252545 
L 115.668995 124.21656 
L 115.834873 125.263107 
L 115.955535 124.55582 
L 116.045438 124.743005 
L 116.092739 125.958713 
L 116.190874 125.641828 
L 116.283442 124.377403 
L 116.299368 124.911456 
L 116.419623 124.697328 
L 116.523245 125.879427 
L 116.799351 122.205875 
L 116.883603 122.579483 
L 116.938653 124.403347 
L 117.021518 124.360353 
L 117.143472 125.127294 
L 117.159498 124.597898 
L 117.228924 123.703137 
L 117.315136 126.080242 
L 117.503334 127.459103 
L 117.572003 126.713481 
L 117.657812 126.761077 
L 117.795102 126.481001 
L 117.947 125.579339 
L 118.138872 127.089522 
L 118.221287 125.862409 
L 118.291125 125.950709 
L 118.497207 127.394807 
L 118.581318 129.56532 
L 118.683937 128.825852 
L 118.735711 127.617661 
L 118.79106 128.222418 
L 118.804139 129.250011 
L 118.85648 127.677233 
L 119.029997 129.296571 
L 119.080345 127.688037 
L 119.148572 127.883239 
L 119.269786 128.044597 
L 119.303182 125.476724 
L 119.360579 126.83609 
L 119.424959 126.773749 
L 119.511217 125.709444 
L 119.582134 127.162332 
L 119.635464 126.535392 
L 119.803977 127.497283 
L 119.944792 125.410978 
L 120.011396 127.550385 
L 120.062129 126.130886 
L 120.217158 129.37894 
L 120.274447 128.520117 
L 120.389953 128.326464 
L 120.457654 127.80081 
L 120.664177 130.547028 
L 120.839993 126.468013 
L 120.923151 125.813605 
L 121.027502 125.835844 
L 121.060615 126.331493 
L 121.128659 125.93444 
L 121.283577 124.245991 
L 121.490845 126.247627 
L 121.577637 128.170468 
L 121.768317 125.630264 
L 121.856476 124.096433 
L 121.868262 125.003386 
L 121.98916 124.973666 
L 122.040412 127.631455 
L 122.058674 125.155609 
L 122.196215 124.121253 
L 122.264884 124.547403 
L 122.385058 124.190418 
L 122.576386 127.025598 
L 122.706746 124.912397 
L 122.76425 125.965517 
L 122.935481 127.307401 
L 123.123847 124.539272 
L 123.261993 123.125518 
L 123.330637 124.658802 
L 123.399064 124.632904 
L 123.573142 122.801388 
L 123.622352 123.417494 
L 123.761242 122.501325 
L 123.897733 123.027319 
L 123.969184 122.948046 
L 124.120997 122.210457 
L 124.189623 123.218524 
L 124.260051 122.83209 
L 124.326937 122.369649 
L 124.710295 127.882324 
L 124.809293 127.075696 
L 124.963483 128.726795 
L 125.035421 128.288233 
L 125.182514 124.836624 
L 125.245464 125.085624 
L 125.324461 125.56908 
L 125.393362 124.424007 
L 125.510549 125.614027 
L 125.528529 125.3977 
L 125.699894 124.207782 
L 125.820537 126.414319 
L 125.890467 126.309479 
L 125.974747 125.894752 
L 126.043737 126.114499 
L 126.096344 127.781837 
L 126.171842 127.291612 
L 126.267022 126.902602 
L 126.414566 127.925526 
L 126.517888 124.699096 
L 126.605719 125.144958 
L 126.689204 125.709757 
L 126.843901 123.175144 
L 126.894902 124.013421 
L 127.017081 123.199472 
L 127.119242 121.884684 
L 127.241811 123.447684 
L 127.311296 123.489757 
L 127.549837 124.811869 
L 127.601567 124.380347 
L 127.657625 124.449083 
L 127.740415 124.591678 
L 127.929219 124.006441 
L 128.051059 125.916566 
L 128.204868 123.782426 
L 128.238872 122.523476 
L 128.307946 124.006498 
L 128.376169 124.750943 
L 128.514037 123.597801 
L 128.652048 124.693728 
L 128.721369 124.105297 
L 129.012848 127.604188 
L 129.11956 125.041999 
L 129.23735 127.092945 
L 129.393784 124.66869 
L 129.499474 125.527465 
L 129.546511 125.125776 
L 129.580311 124.716871 
L 129.648865 124.944121 
L 129.718534 124.794118 
L 129.820194 125.22741 
L 130.028139 128.834554 
L 130.08561 127.297965 
L 130.216268 124.446751 
L 130.286082 124.93732 
L 130.37384 123.514289 
L 130.452482 123.713511 
L 130.57725 123.34428 
L 131.01521 127.641735 
L 131.217288 130.445788 
L 131.314604 129.784273 
L 131.451793 127.385086 
L 131.505383 127.342672 
L 131.574796 128.536945 
L 131.64297 127.800704 
L 131.74461 125.531198 
L 131.781418 126.441268 
L 131.876363 125.983841 
L 132.014972 123.442742 
L 132.029802 124.484285 
L 132.084728 124.211123 
L 132.167519 124.384263 
L 132.2727 125.563772 
L 132.305864 124.622866 
L 132.426383 125.641972 
L 132.445581 127.654889 
L 132.494097 125.179649 
L 132.562449 125.347837 
L 132.975784 128.444257 
L 133.061998 126.214538 
L 133.130573 126.361006 
L 133.2165 126.843236 
L 133.284853 126.27971 
L 133.381081 127.432422 
L 133.564097 124.609472 
L 133.663022 122.035909 
L 133.71499 123.209959 
L 133.783755 124.77765 
L 133.939518 122.348128 
L 133.989474 122.647575 
L 134.12741 122.432223 
L 134.196815 122.895385 
L 134.332672 125.116356 
L 134.43858 125.240763 
L 134.504834 124.309589 
L 134.745269 128.233502 
L 134.938859 126.109346 
L 134.971626 126.473922 
L 135.331775 125.243911 
L 135.400293 123.747895 
L 135.760533 126.243626 
L 135.845727 126.071339 
L 135.982659 127.260062 
L 136.050752 125.524048 
L 136.174602 126.237852 
L 136.27413 124.265971 
L 136.359571 124.771531 
L 136.430017 124.311051 
L 136.547913 126.393017 
L 136.617319 124.398414 
L 136.685371 124.959503 
L 136.757801 125.347137 
L 136.770783 127.102427 
L 136.839731 124.842331 
L 136.909117 127.191157 
L 136.977219 126.437075 
L 137.132576 127.765462 
L 137.269558 124.246715 
L 137.321511 126.305558 
L 137.439703 126.573864 
L 137.475751 128.949438 
L 137.613041 129.036931 
L 137.767778 124.625047 
L 137.892247 124.555029 
L 138.048054 124.12617 
L 138.117443 124.346002 
L 138.170042 123.765025 
L 138.666889 128.101213 
L 138.752599 127.318967 
L 139.010732 122.527717 
L 139.030232 123.547075 
L 139.250905 125.585004 
L 139.460183 123.154564 
L 139.598711 125.802651 
L 139.680533 125.996088 
L 139.758134 125.070115 
L 139.808251 122.248048 
L 139.874886 122.35729 
L 139.958871 122.105609 
L 140.233725 125.068937 
L 140.337002 124.107385 
L 140.372492 124.746846 
L 140.59572 128.6572 
L 140.801631 128.455542 
L 141.01075 128.27457 
L 141.093482 128.568838 
L 141.370851 124.967404 
L 141.57787 127.262179 
L 141.660948 125.978923 
L 142.01077 131.202111 
L 142.075623 131.147227 
L 142.091902 134.186667 
L 142.147339 131.282408 
L 142.229789 131.096498 
L 142.317148 130.415693 
L 142.36866 131.902333 
L 142.574612 127.731102 
L 142.651874 128.92785 
L 142.867418 127.575801 
L 143.00685 128.740282 
L 143.078138 128.075995 
L 143.210765 129.719143 
L 143.28132 129.54848 
L 143.431132 126.810331 
L 143.569054 125.18207 
L 143.638497 125.337647 
L 143.71245 126.237858 
L 143.77831 125.531107 
L 143.849603 125.781141 
L 144.362324 130.182019 
L 144.452228 129.678 
L 144.488474 130.772448 
L 144.558821 130.582572 
L 144.656255 130.26401 
L 144.710266 131.243511 
L 144.776526 131.028861 
L 144.872825 131.634548 
L 145.057554 129.794931 
L 145.123678 130.279228 
L 145.206976 129.22881 
L 145.293114 129.629132 
L 145.430918 127.070594 
L 145.568123 126.852448 
L 145.620222 127.07103 
L 145.63699 127.993603 
L 145.706142 127.606517 
L 145.860898 126.192938 
L 146.136373 128.075354 
L 146.307757 126.484449 
L 146.410213 125.21692 
L 146.480114 126.397929 
L 146.564774 126.209039 
L 146.840047 122.517751 
L 147.062603 124.562227 
L 147.131257 124.446465 
L 147.217093 123.308686 
L 147.272452 123.529408 
L 147.560609 129.316099 
L 147.680508 130.39434 
L 147.784053 128.195345 
L 147.835758 129.441569 
L 147.90434 129.47898 
L 148.044557 129.714311 
L 148.05929 129.041007 
L 148.128007 129.626075 
L 148.333201 124.973503 
L 148.402944 125.513308 
L 148.476739 126.183512 
L 148.540174 124.196813 
L 148.656876 125.123702 
L 148.679234 124.395252 
L 148.780246 124.441117 
L 148.907593 123.87703 
L 148.986724 125.290148 
L 149.42221 127.223996 
L 149.611528 124.868972 
L 149.692067 124.697562 
L 149.766006 124.91561 
L 149.834012 123.924546 
L 150.007117 125.501447 
L 150.057415 125.433491 
L 150.161398 125.729315 
L 150.314743 127.04375 
L 150.320678 126.84291 
L 150.40611 127.287783 
L 150.492417 127.72844 
L 150.612134 126.665662 
L 150.682304 127.087469 
L 150.771357 127.799538 
L 150.8186 127.625119 
L 150.905882 126.235052 
L 150.972818 126.314387 
L 151.214056 125.867288 
L 151.249135 127.123639 
L 151.316808 126.817681 
L 151.470937 125.046895 
L 151.557884 124.747413 
L 151.612449 126.082332 
L 151.678236 124.871311 
L 151.746965 126.136235 
L 151.964071 124.784306 
L 152.037641 126.117041 
L 152.10468 126.101917 
L 152.256313 126.347616 
L 152.325229 125.439097 
L 152.445334 126.533755 
L 152.479468 125.248651 
L 152.53457 126.487041 
L 152.583987 127.15231 
L 152.669174 126.639607 
L 152.771755 124.703714 
L 152.805679 125.142802 
L 152.892116 125.605984 
L 152.960592 125.358924 
L 153.200856 126.728398 
L 153.2356 126.306189 
L 153.374616 128.320744 
L 153.459155 129.937287 
L 153.528027 129.873748 
L 153.596238 128.008291 
L 153.804985 130.316396 
L 153.906183 130.860075 
L 153.956837 132.26694 
L 154.009598 131.407537 
L 154.09479 131.446526 
L 154.165683 131.178455 
L 154.300961 133.146192 
L 154.453757 130.365516 
L 154.665978 128.075439 
L 154.781906 128.084395 
L 155.006668 123.329984 
L 155.075065 124.436227 
L 155.143286 123.961706 
L 155.228939 124.496651 
L 155.298341 123.965765 
L 155.369184 124.833319 
L 155.474122 124.675661 
L 155.504863 124.743949 
L 155.796666 127.319811 
L 155.95589 126.701385 
L 156.140423 127.804991 
L 156.158275 126.733966 
L 156.22567 127.17779 
L 156.297475 127.584619 
L 156.434237 129.032168 
L 156.502046 128.790308 
L 156.655897 129.388402 
L 156.793561 127.060564 
L 156.862393 126.870293 
L 156.931045 127.996712 
L 157.208914 123.89348 
L 157.281141 124.378613 
L 157.360114 123.560462 
L 157.566811 125.101389 
L 157.635437 124.252675 
L 157.928625 128.116464 
L 158.066322 130.478823 
L 158.205192 130.44396 
L 158.272299 129.777492 
L 158.308056 130.278313 
L 158.411014 129.760002 
L 158.773902 124.805557 
L 158.843504 125.263843 
L 158.987353 125.123514 
L 159.139441 122.747586 
L 159.252952 122.281646 
L 159.338565 123.525249 
L 159.564777 119.512015 
L 159.648477 119.682234 
L 159.854855 121.94412 
L 159.907779 122.539803 
L 160.061094 122.830121 
L 160.26744 129.964702 
L 160.336585 129.50579 
L 160.474582 129.565172 
L 160.496181 126.525235 
L 160.587917 129.89286 
L 160.655989 129.118061 
L 160.902786 125.590868 
L 161.125467 126.589585 
L 161.210786 126.946893 
L 161.281235 125.036168 
L 161.36892 125.142429 
L 161.400392 125.143402 
L 161.469225 125.701909 
L 161.693138 123.826502 
L 161.761709 123.793121 
L 161.933294 122.604083 
L 162.241761 125.00096 
L 162.258865 124.840679 
L 162.398713 123.30662 
L 162.47255 124.597563 
L 162.606485 124.725115 
L 162.674122 125.311962 
L 162.845253 123.692455 
L 162.915013 123.788123 
L 162.964449 125.387479 
L 163.115461 126.345689 
L 163.121224 127.744576 
L 163.188607 126.983034 
L 163.257268 126.593375 
L 163.326489 127.122779 
L 163.419334 129.373248 
L 163.483963 129.225232 
L 163.567043 129.793812 
L 163.687579 129.294091 
L 163.826639 126.10334 
L 163.895556 125.545016 
L 163.980179 127.000415 
L 164.067373 126.54669 
L 164.138426 124.08236 
L 164.171105 124.513814 
L 164.255843 124.781896 
L 164.616591 128.879288 
L 164.669055 128.189049 
L 164.822387 129.751011 
L 164.92625 129.596278 
L 164.994511 129.231301 
L 165.222619 126.893668 
L 165.252099 126.616759 
L 165.321063 127.269799 
L 165.595995 126.288387 
L 165.665287 126.324557 
L 165.802065 124.973831 
L 165.87219 125.078043 
L 165.957022 125.740254 
L 166.111117 122.733418 
L 166.165151 123.181062 
L 166.282828 121.463895 
L 166.528482 122.971366 
L 166.5928 124.107705 
L 166.712862 123.101168 
L 166.850516 126.167528 
L 166.887827 126.158069 
L 167.107581 128.154853 
L 167.159941 128.113125 
L 167.227262 129.505659 
L 167.436725 127.040923 
L 167.512858 127.308258 
L 167.651119 128.546997 
L 167.731608 126.760025 
L 167.803469 127.198289 
L 167.891806 128.465319 
L 168.053667 126.75668 
L 168.095474 128.700961 
L 168.215233 128.676122 
L 168.321365 126.330155 
L 168.458976 125.837937 
L 168.667781 123.739387 
L 168.719683 124.315206 
L 168.786864 123.139298 
L 168.853885 123.436615 
L 169.000687 124.220413 
L 169.205862 125.508923 
L 169.301501 127.871763 
L 169.377432 128.46187 
L 169.573035 127.529861 
L 169.655735 129.361056 
L 169.721005 128.57064 
L 169.857828 129.193732 
L 169.930814 128.594515 
L 170.012703 128.854959 
L 170.067138 128.67375 
L 170.149771 129.875785 
L 170.219264 129.475976 
L 170.304855 129.40825 
L 170.513586 126.449669 
L 170.630527 126.830354 
L 170.786973 126.147382 
L 170.854241 126.256465 
L 170.922698 126.164053 
L 170.992124 127.153394 
L 171.12958 130.850681 
L 171.21501 131.851947 
L 171.283244 130.7531 
L 171.351962 130.788188 
L 171.423944 130.817465 
L 171.489197 131.016375 
L 171.562722 129.414302 
L 171.629663 129.451998 
L 171.703844 128.861209 
L 171.838794 126.861369 
L 172.336064 131.044748 
L 172.420484 130.65053 
L 172.5588 131.251964 
L 172.627684 129.801069 
L 172.69625 129.874742 
L 172.793259 129.961845 
L 172.909972 127.152827 
L 172.987415 128.200567 
L 173.057983 128.15772 
L 173.125667 127.915647 
L 173.348353 125.302568 
L 173.486496 124.625914 
L 173.623068 126.454414 
L 173.833357 123.997428 
L 173.898179 125.224716 
L 173.969742 124.976083 
L 174.054525 126.03431 
L 174.121642 125.566355 
L 174.190379 126.173648 
L 174.327679 124.364406 
L 174.672029 128.903731 
L 174.826495 128.269578 
L 175.032787 130.563645 
L 175.185994 129.236763 
L 175.266328 129.888935 
L 175.329088 129.1863 
L 175.40925 129.537986 
L 175.546803 130.835109 
L 175.690186 128.715006 
L 175.754439 128.751011 
L 175.822706 129.350061 
L 176.184188 124.728906 
L 176.306635 125.187329 
L 176.390577 125.584959 
L 176.476402 125.326352 
L 176.528663 125.387269 
L 176.596501 126.094286 
L 176.665501 126.065008 
L 176.755324 125.719878 
L 176.890463 126.29809 
L 177.020509 126.066326 
L 177.046783 126.230767 
L 177.101356 126.485847 
L 177.25954 125.339221 
L 177.487777 127.285443 
L 177.594996 127.092877 
L 177.693775 127.382299 
L 177.816643 126.526687 
L 177.88312 126.739076 
L 177.951888 126.918146 
L 178.02065 126.588414 
L 178.108452 128.029882 
L 178.16441 127.517276 
L 178.381131 124.384638 
L 178.608403 125.912781 
L 178.674303 125.239754 
L 178.828118 125.196 
L 178.8628 123.020837 
L 178.889224 124.200594 
L 178.966061 124.379056 
L 179.051277 125.631968 
L 179.087922 127.830123 
L 179.172042 127.516486 
L 179.313637 127.188233 
L 179.457347 129.981157 
L 179.637515 129.286015 
L 179.677296 131.289202 
L 179.740408 129.646764 
L 179.791966 130.249705 
L 180.103241 128.53927 
L 180.155833 127.237372 
L 180.226877 128.662965 
L 180.29912 128.555754 
L 180.434776 127.351452 
L 180.511731 127.970631 
L 180.659495 125.322704 
L 180.862756 126.676959 
L 180.965224 126.02428 
L 181.446946 130.384015 
L 181.501982 129.866767 
L 181.652363 131.211411 
L 181.859588 128.022883 
L 182.047699 128.804524 
L 182.151387 126.21363 
L 182.262253 125.294736 
L 182.344061 125.781617 
L 182.516045 124.43739 
L 182.618337 125.454674 
L 182.680185 125.028123 
L 182.704728 124.351476 
L 182.929806 126.815999 
L 183.08984 124.753478 
L 183.238065 125.92622 
L 183.359171 124.543558 
L 183.514054 126.479715 
L 183.582639 125.891169 
L 183.633955 124.177245 
L 183.701754 125.584532 
L 183.805481 125.863114 
L 183.940262 125.539064 
L 183.994513 125.907846 
L 184.063883 127.918096 
L 184.131579 127.423742 
L 184.200525 125.850072 
L 184.269209 126.196287 
L 184.34415 126.498678 
L 184.492703 125.619363 
L 184.63376 127.219411 
L 184.776584 126.806098 
L 184.846155 124.486892 
L 184.921532 124.769487 
L 185.162586 127.146027 
L 185.297538 127.06581 
L 185.420825 124.388365 
L 185.644153 126.961524 
L 185.781499 126.536729 
L 185.902146 127.963328 
L 185.988231 127.509942 
L 186.177531 129.234049 
L 186.246202 128.933024 
L 186.418337 129.734895 
L 186.505334 129.572324 
L 186.58999 127.904754 
L 186.625013 128.774699 
L 186.692135 129.853095 
L 186.830487 128.321215 
L 186.915859 128.809311 
L 187.053056 125.565594 
L 187.121243 126.01645 
L 187.244007 125.104605 
L 187.328725 126.576496 
L 187.379719 126.530422 
L 187.603147 125.124613 
L 187.759165 126.742418 
L 187.826055 126.033138 
L 187.896901 127.260512 
L 188.134875 126.567432 
L 188.223734 126.337664 
L 188.273025 127.346545 
L 188.392672 126.154019 
L 188.446883 128.013668 
L 188.478107 127.353304 
L 188.632615 126.997627 
L 188.687674 126.907906 
L 188.815426 127.739242 
L 188.8933 131.190648 
L 189.047975 131.483828 
L 189.116734 130.566822 
L 189.185362 130.647735 
L 189.462547 128.833726 
L 189.673694 125.448463 
L 189.822352 126.208717 
L 190.029025 125.255888 
L 190.097715 125.447234 
L 190.167097 124.343676 
L 190.388985 126.781376 
L 190.457992 126.019163 
L 190.612355 124.390518 
L 190.663979 124.476981 
L 190.911097 126.457001 
L 191.161953 123.599096 
L 191.247185 125.377482 
L 191.333405 126.325851 
L 191.455852 125.805407 
L 191.521546 126.062336 
L 191.628219 125.287331 
L 191.659457 125.921858 
L 191.814451 125.871997 
L 191.968614 122.962418 
L 192.105987 123.381551 
L 192.382916 120.502351 
L 192.46907 119.918901 
L 192.520552 121.263582 
L 192.589297 121.074077 
L 192.670168 122.084749 
L 192.743395 120.964781 
L 192.954565 124.327424 
L 193.157689 125.418574 
L 193.225614 124.653993 
L 193.414799 126.968974 
L 193.432104 128.561298 
L 193.517282 127.057199 
L 193.65704 127.117513 
L 193.72428 126.864807 
L 193.929238 128.06499 
L 194.00155 127.954254 
L 194.170477 126.600525 
L 194.221811 127.805007 
L 194.366308 126.89174 
L 194.462828 126.814522 
L 194.651314 127.336199 
L 194.720018 126.849465 
L 194.822863 127.572372 
L 194.945308 126.551164 
L 195.012181 127.160537 
L 195.287868 125.392411 
L 195.510289 121.295721 
L 195.578306 122.011394 
L 195.635394 121.180382 
L 195.853317 122.004657 
L 195.942267 121.972876 
L 196.111326 124.00334 
L 196.214941 127.563093 
L 196.301652 127.518114 
L 196.386781 127.065868 
L 196.63098 130.173299 
L 196.971404 127.782775 
L 197.004179 128.473226 
L 197.134794 128.456439 
L 197.210669 127.687097 
L 197.279444 128.007793 
L 197.365528 128.250397 
L 197.416707 127.944868 
L 197.55354 128.669975 
L 197.628841 128.678862 
L 197.69905 126.725722 
L 197.77735 127.325557 
L 197.965675 125.713414 
L 198.035545 125.86869 
L 198.121675 126.967563 
L 198.192536 127.047749 
L 198.379399 126.334925 
L 198.431165 127.106446 
L 198.493887 126.571214 
L 198.832888 122.6255 
L 198.998071 121.960211 
L 199.134871 123.804243 
L 199.255034 124.665193 
L 199.409695 126.267428 
L 199.479267 126.612506 
L 199.547514 126.547389 
L 199.615931 125.665735 
L 199.685051 127.139057 
L 200.046761 122.424793 
L 200.377207 124.745803 
L 200.407294 123.763464 
L 200.526433 124.879692 
L 200.630475 127.953623 
L 200.700783 127.709646 
L 200.750461 128.314626 
L 200.905066 126.417633 
L 200.974197 126.617095 
L 201.113836 128.555225 
L 201.317582 126.03515 
L 201.459682 128.899284 
L 201.541706 129.674097 
L 201.772738 128.057256 
L 201.817122 126.533906 
L 201.904763 127.592188 
L 201.975315 127.211112 
L 202.129412 124.002852 
L 202.180591 125.818689 
L 202.316424 125.912047 
L 202.396546 127.997945 
L 202.526237 129.410702 
L 202.611935 128.167511 
L 202.679438 128.24137 
L 202.821714 128.39452 
L 203.046317 124.27084 
L 203.09818 124.2785 
L 203.19077 123.281732 
L 203.388626 124.255507 
L 203.508946 124.139198 
L 203.594665 126.51036 
L 203.680773 125.575839 
L 203.749535 125.664561 
L 203.802548 125.288493 
L 204.03063 127.267911 
L 204.099872 127.579969 
L 204.162522 128.40801 
L 204.308705 126.067201 
L 204.386806 126.539573 
L 204.577432 125.992919 
L 204.611141 124.570922 
L 204.698032 124.700029 
L 204.903973 123.476831 
L 204.955659 124.815301 
L 205.025741 124.526739 
L 205.506643 128.442623 
L 205.523159 127.129439 
L 205.592438 127.308193 
L 205.663747 126.004071 
L 205.731857 126.41962 
L 205.955129 124.74028 
L 206.083702 125.826062 
L 206.160985 125.502586 
L 206.229851 125.188161 
L 206.368529 127.253847 
L 206.436649 127.083945 
L 206.544989 127.404623 
L 206.592246 127.917648 
L 206.798793 125.133245 
L 206.883867 126.662116 
L 206.977874 126.12608 
L 206.990939 127.358122 
L 207.011063 126.549411 
L 207.147688 124.216915 
L 207.216309 124.390484 
L 207.508194 126.714405 
L 207.576936 126.891707 
L 207.86852 131.247547 
L 208.074439 131.090351 
L 208.608457 124.94171 
L 208.711179 126.271236 
L 208.779254 125.663035 
L 209.089954 127.684398 
L 209.419276 126.068364 
L 209.489063 128.481821 
L 209.638772 127.405653 
L 209.741427 127.849781 
L 209.948978 130.804175 
L 210.000774 130.17078 
L 210.158962 131.065494 
L 210.219148 129.395191 
L 210.378858 131.497996 
L 210.415329 131.369858 
L 210.639931 126.425875 
L 210.739843 127.598744 
L 210.778954 126.899483 
L 210.843652 126.829919 
L 210.913905 128.406903 
L 210.981653 127.31678 
L 211.051642 127.5995 
L 211.157062 127.390897 
L 211.210257 129.365177 
L 211.284492 128.852901 
L 211.376593 130.087325 
L 211.410937 129.261075 
L 211.769325 126.737699 
L 211.84073 127.842533 
L 211.854707 127.1971 
L 211.924731 127.33337 
L 212.270631 129.974971 
L 212.421614 129.123801 
L 212.534385 128.580343 
L 212.662701 125.641416 
L 212.749817 125.36018 
L 212.800372 126.011281 
L 212.834643 125.399277 
L 213.041931 123.942237 
L 213.247078 124.128386 
L 213.333708 125.213393 
L 213.505805 124.482979 
L 213.610967 125.052997 
L 213.71171 125.493031 
L 213.831725 125.178265 
L 213.988877 126.863246 
L 214.111241 127.719118 
L 214.230905 127.21011 
L 214.248178 126.64576 
L 214.305669 128.702741 
L 214.336256 128.408341 
L 214.419297 128.750857 
L 214.470941 128.090091 
L 214.609062 129.764806 
L 214.711534 127.888992 
L 214.780546 128.306136 
L 214.969221 125.803996 
L 215.039719 126.823169 
L 215.113211 126.442705 
L 215.176411 127.155052 
L 215.329831 126.964383 
L 215.384286 125.790619 
L 215.398561 127.034532 
L 215.535756 126.619443 
L 215.690513 126.843699 
L 215.744275 125.155416 
L 215.949424 126.009081 
L 216.187447 124.302959 
L 216.31774 126.623999 
L 216.438295 126.530202 
L 216.472546 127.49193 
L 216.593072 125.205338 
L 216.736733 127.464408 
L 216.815817 127.347913 
L 216.893148 129.021215 
L 216.952822 127.686906 
L 217.046753 128.062908 
L 217.182613 126.451043 
L 217.299057 126.741987 
L 217.453375 123.946239 
L 217.608073 121.733674 
L 217.66049 120.053998 
L 217.728103 120.515954 
L 218.157809 125.804324 
L 218.300505 125.215469 
L 218.315312 125.205789 
L 218.434785 127.468995 
L 218.449732 126.66532 
L 218.563348 126.25618 
L 218.682332 123.952436 
L 218.761283 123.926789 
L 218.863154 123.51594 
L 218.882546 122.487642 
L 219.519906 126.958322 
L 219.619397 127.029311 
L 219.930429 125.722402 
L 219.999293 126.222552 
L 220.375002 123.523538 
L 220.478454 123.930195 
L 220.512624 124.630958 
L 220.788033 123.763677 
L 220.857838 123.946441 
L 220.994441 126.147527 
L 221.080774 127.772033 
L 221.149107 127.416682 
L 221.358535 124.721928 
L 221.646358 125.453821 
L 221.855923 121.479604 
L 221.924182 121.942427 
L 222.007907 123.4047 
L 222.076376 123.152969 
L 222.144439 122.03393 
L 222.213551 122.693119 
L 222.368637 122.218865 
L 222.598358 125.523872 
L 222.855246 129.870556 
L 222.921311 129.806376 
L 222.991636 129.457376 
L 223.060181 130.608072 
L 223.129612 129.792915 
L 223.240684 130.640872 
L 223.272218 130.375243 
L 223.489983 126.747113 
L 223.78362 124.218312 
L 223.851618 124.970928 
L 223.972337 123.994311 
L 224.232683 127.592343 
L 224.402434 130.420678 
L 224.473257 129.842787 
L 224.710962 126.13292 
L 224.787051 127.353226 
L 224.832626 127.300835 
L 224.904121 126.47686 
L 225.056104 127.68282 
L 225.14202 127.615577 
L 225.261035 129.415388 
L 225.346942 129.227747 
L 225.44995 129.514154 
L 225.796425 126.017077 
L 225.951332 123.596007 
L 226.054231 123.835035 
L 226.211031 125.732153 
L 226.294544 125.678175 
L 226.329501 127.325923 
L 226.414825 126.600774 
L 226.603829 130.007432 
L 226.740471 130.398416 
L 226.792397 131.273082 
L 226.826559 129.625915 
L 226.900099 130.157125 
L 226.976073 130.490613 
L 227.394473 124.951438 
L 227.464214 124.573067 
L 227.548285 125.651725 
L 227.755443 122.550876 
L 227.823553 122.475512 
L 227.963628 125.387781 
L 228.05259 124.044964 
L 228.188326 125.558033 
L 228.203206 124.915044 
L 228.258492 123.771896 
L 228.461722 126.959974 
L 228.552012 127.774803 
L 228.693195 125.908726 
L 228.761506 127.284955 
L 228.81446 126.710253 
L 228.950571 128.335104 
L 229.105356 126.665011 
L 229.250316 125.700291 
L 229.317497 125.803981 
L 229.434971 125.956528 
L 229.448849 125.427973 
L 229.517515 125.591016 
L 229.620914 126.612577 
L 229.671828 126.563525 
L 229.793933 126.919653 
L 229.88042 126.392754 
L 229.968144 127.068191 
L 230.019421 125.98521 
L 230.137332 126.026006 
L 230.172998 126.670385 
L 230.446955 123.962105 
L 230.515567 126.047304 
L 230.587369 125.555037 
L 230.683101 125.032697 
L 230.724597 126.008094 
L 230.807844 125.708404 
L 230.878307 126.015316 
L 230.946189 126.904657 
L 231.013513 125.69221 
L 231.169426 127.006679 
L 231.238002 125.319636 
L 231.382286 127.304693 
L 231.443202 126.658698 
L 231.516853 127.580877 
L 231.667438 126.810394 
L 231.725272 126.902944 
L 232.010571 123.428225 
L 232.079651 123.388061 
L 232.3721 121.17558 
L 232.852594 127.561504 
L 232.938396 127.637471 
L 233.504556 122.857033 
L 233.642758 123.071253 
L 233.72882 123.347613 
L 233.934205 125.381339 
L 234.004361 124.497695 
L 234.164289 125.536965 
L 234.347875 124.774681 
L 234.432779 125.292616 
L 234.500747 126.750818 
L 234.571162 125.804293 
L 234.638291 125.88147 
L 234.711593 126.790539 
L 234.794816 126.541867 
L 234.865697 126.808776 
L 235.089121 129.243238 
L 235.261163 127.367125 
L 235.312324 126.533325 
L 235.365041 127.524547 
L 235.450141 126.827327 
L 235.57176 127.774159 
L 235.645464 126.169721 
L 235.725121 126.594969 
L 235.846004 129.44051 
L 235.98423 128.317401 
L 236.018512 129.392489 
L 236.06968 128.47704 
L 236.190006 128.574945 
L 236.482335 124.122975 
L 236.556345 124.556751 
L 236.705263 124.987329 
L 236.774022 124.405049 
L 236.842684 125.086288 
L 236.912794 123.599262 
L 237.186517 127.359416 
L 237.28813 126.199686 
L 237.339261 127.601685 
L 237.413337 126.32824 
L 237.68276 129.954402 
L 237.785482 128.178368 
L 237.857902 128.700771 
L 237.974886 129.375321 
L 238.13228 130.165347 
L 238.204556 130.081784 
L 238.266069 129.094601 
L 238.387177 129.029105 
L 238.404494 129.106724 
L 238.476862 129.603889 
L 238.558206 129.258519 
L 238.750196 126.335613 
L 238.834095 127.128787 
L 239.041254 125.360973 
L 239.159812 126.573362 
L 239.194598 125.516989 
L 239.262531 125.595379 
L 239.348931 126.157115 
L 239.436125 124.471937 
L 239.469097 125.144222 
L 239.567872 124.998226 
L 239.681006 125.354144 
L 239.790633 124.866993 
L 239.826254 126.579326 
L 239.899837 125.371919 
L 239.967631 124.506075 
L 240.042332 125.007194 
L 240.103275 126.569563 
L 240.241525 124.640391 
L 240.343885 124.810083 
L 240.412394 124.764124 
L 240.465538 124.489349 
L 240.567811 121.83893 
L 240.604521 122.375445 
L 240.738585 122.606415 
L 240.824747 121.471552 
L 240.894381 121.774055 
L 240.961801 122.033204 
L 241.239688 124.775897 
L 241.305799 123.619069 
L 241.59735 126.647798 
L 241.735984 125.472324 
L 241.890523 126.265399 
L 241.95859 125.982266 
L 242.095713 128.7912 
L 242.164147 128.681064 
L 242.239438 127.556349 
L 242.390558 128.558007 
L 242.456122 128.350744 
L 242.731137 124.907126 
L 242.805031 124.160835 
L 242.938157 125.016257 
L 243.024543 125.156728 
L 243.229182 127.247421 
L 243.299456 127.004402 
L 243.377036 127.755053 
L 243.436236 127.50349 
L 243.591703 125.306137 
L 243.660963 126.598657 
L 243.727333 126.366744 
L 243.865383 124.985388 
L 244.003945 127.233624 
L 244.090769 127.013457 
L 244.29821 127.639919 
L 244.468337 126.512568 
L 244.605196 126.224469 
L 244.641857 124.784722 
L 244.725502 124.901226 
L 244.812573 125.380675 
L 244.864473 125.144192 
L 244.966472 124.330885 
L 245.043374 125.098139 
L 245.074199 124.2844 
L 245.156204 124.555494 
L 245.225028 124.090097 
L 245.294394 125.162243 
L 245.3621 124.829075 
L 245.430384 124.654674 
L 245.517404 123.775471 
L 245.569063 124.118724 
L 245.585174 128.245337 
L 245.67495 124.863217 
L 245.761872 124.724025 
L 245.826842 125.605476 
L 245.860235 124.94829 
L 245.928908 124.985901 
L 246.216216 122.350408 
L 246.357707 122.334883 
L 246.444185 122.225853 
L 246.495715 121.862832 
L 246.565652 123.728306 
L 246.736948 123.953854 
L 246.909072 124.815116 
L 246.924393 124.681881 
L 247.06189 126.383869 
L 247.302452 124.313766 
L 247.354357 124.858359 
L 247.477054 124.891364 
L 247.630298 128.525098 
L 247.921691 129.559578 
L 247.979528 130.693242 
L 248.06005 130.596924 
L 248.181452 131.144997 
L 248.33879 128.707953 
L 248.422043 129.026542 
L 248.514356 128.854804 
L 248.575689 129.028968 
L 248.66352 127.213106 
L 248.696106 128.403171 
L 248.817313 127.653047 
L 248.835325 127.896683 
L 248.937642 128.485746 
L 249.126543 127.429527 
L 249.280511 126.909524 
L 249.349372 128.759665 
L 249.401435 126.731865 
L 249.487097 127.279535 
L 249.57312 126.609685 
L 249.624614 128.05903 
L 249.69312 127.970649 
L 249.853432 128.163472 
L 249.916266 128.317526 
L 250.037262 127.777695 
L 250.107009 127.863145 
L 250.209629 129.486964 
L 250.277397 129.214552 
L 250.551918 127.462219 
L 250.724434 128.933346 
L 250.897288 126.498318 
L 250.981708 127.23618 
L 251.050361 126.640512 
L 251.119404 126.993506 
L 251.239407 127.058634 
L 251.394084 124.715623 
L 251.635364 125.965313 
L 251.755394 125.49185 
L 251.842301 126.178525 
L 251.898828 124.678335 
L 251.988777 125.122787 
L 252.070466 124.5673 
L 252.170198 125.129098 
L 252.188221 124.247304 
L 252.291426 124.512351 
L 252.324687 124.959791 
L 252.411217 124.674307 
L 252.603035 122.776846 
L 252.685677 122.951245 
L 252.773958 123.695702 
L 253.030118 122.181288 
L 253.321649 125.311829 
L 253.529985 128.36867 
L 253.665336 128.931434 
L 253.889458 127.48302 
L 254.027013 128.612849 
L 254.043116 128.469284 
L 254.232463 125.704076 
L 254.384233 124.892831 
L 254.454433 124.802013 
L 254.591011 123.515876 
L 254.662443 123.229535 
L 254.74457 123.563929 
L 254.949898 122.421276 
L 255.378801 126.273337 
L 255.447597 125.447423 
L 255.654126 128.432715 
L 255.946307 126.238168 
L 256.084966 125.322785 
L 256.22311 126.563268 
L 256.292004 126.070028 
L 256.513333 123.897194 
L 256.795036 126.544099 
L 257.013644 127.847417 
L 257.079891 129.786013 
L 257.148636 129.612126 
L 257.217542 130.352174 
L 257.303824 128.16369 
L 257.372516 130.588979 
L 257.788004 125.29906 
L 257.87023 126.074767 
L 257.954155 125.601376 
L 258.162267 129.545211 
L 258.249164 129.159028 
L 258.299832 130.36494 
L 258.368679 129.70977 
L 258.436917 129.19861 
L 258.4901 129.589356 
L 258.579046 129.070316 
L 258.661155 129.579348 
L 258.850069 126.112233 
L 258.944482 125.783176 
L 259.048252 124.849783 
L 259.168079 126.349455 
L 259.23673 126.390089 
L 259.425571 124.764797 
L 259.563804 124.257221 
L 259.700581 125.806225 
L 259.786864 125.271392 
L 259.940525 122.663008 
L 259.992473 123.585236 
L 260.078898 123.316925 
L 260.130051 123.059358 
L 260.283953 124.94402 
L 260.386796 124.138202 
L 260.421329 122.978379 
L 260.576158 124.594281 
L 260.662397 125.332014 
L 260.714103 124.273662 
L 260.8525 125.45754 
L 260.990837 123.77178 
L 261.057514 124.201387 
L 261.21206 124.390568 
L 261.281674 124.238425 
L 261.368662 124.159883 
L 261.486142 125.247384 
L 261.562264 125.105642 
L 261.632274 124.326827 
L 261.842416 126.521046 
L 261.91252 125.318585 
L 261.992677 129.49447 
L 262.062002 129.476383 
L 262.132789 129.682292 
L 262.303883 130.565111 
L 262.37497 130.796179 
L 262.766862 126.052025 
L 262.804862 127.354446 
L 262.835906 127.66186 
L 262.904317 127.235346 
L 263.009279 127.727589 
L 263.059536 127.68845 
L 263.129274 125.960701 
L 263.197998 126.088611 
L 263.303505 125.80746 
L 263.421394 127.215478 
L 263.479612 127.046046 
L 263.543091 127.154527 
L 263.610865 126.377596 
L 263.731583 126.681254 
L 263.888308 128.821582 
L 263.931608 128.48586 
L 263.990255 129.294915 
L 264.116149 128.114606 
L 264.247183 127.082272 
L 264.264302 128.816515 
L 264.384351 129.071905 
L 264.428203 128.879587 
L 264.470495 127.841213 
L 264.540677 128.47651 
L 264.61033 128.412255 
L 264.782563 129.365016 
L 264.833122 129.069633 
L 264.892892 129.121576 
L 264.9732 126.692779 
L 265.141749 126.431825 
L 265.19396 127.334469 
L 265.283238 126.730106 
L 265.400293 127.910543 
L 265.538831 127.113178 
L 265.702978 127.939528 
L 265.771934 127.480424 
L 265.866898 128.304579 
L 265.903007 127.851934 
L 266.192917 124.856583 
L 266.313113 126.050749 
L 266.38684 124.964923 
L 266.485961 125.302442 
L 266.536495 122.86532 
L 266.623328 123.070756 
L 266.726299 123.70713 
L 266.76023 124.975637 
L 266.813379 124.501783 
L 266.93473 124.48602 
L 266.96805 124.3574 
L 267.057681 123.5385 
L 267.241522 126.881691 
L 267.396228 125.787903 
L 267.516925 125.674861 
L 267.654666 125.750765 
L 267.688852 125.675648 
L 267.825966 127.890983 
L 267.949984 127.217747 
L 268.084913 128.423218 
L 268.101146 127.299391 
L 268.170197 127.489934 
L 268.308905 129.800095 
L 268.463154 128.660711 
L 268.514236 126.748173 
L 268.617435 126.768303 
L 268.68584 126.926811 
L 268.897538 128.989796 
L 268.980909 128.619042 
L 269.338691 130.351789 
L 269.407386 129.271135 
L 269.459882 130.733772 
L 269.70546 128.738356 
L 269.717076 129.125323 
L 269.870866 127.798255 
L 269.940559 127.827148 
L 270.03381 128.508289 
L 270.083215 127.003752 
L 270.150891 127.145018 
L 270.232819 127.21688 
L 270.319007 125.625728 
L 270.36986 126.042214 
L 270.725833 127.740364 
L 270.799679 126.817408 
L 270.868084 126.904226 
L 270.977122 125.845635 
L 271.074853 127.476817 
L 271.282898 125.049866 
L 271.435032 124.539924 
L 271.504195 124.605187 
L 271.572696 123.865235 
L 271.644228 124.212448 
L 271.711469 125.020686 
L 271.779817 122.417161 
L 271.867722 123.12568 
L 272.002082 123.309242 
L 272.362938 125.478693 
L 272.448947 124.975706 
L 272.50079 127.045476 
L 272.571657 126.453981 
L 272.706136 126.429661 
L 272.792538 124.59129 
L 273.072473 127.269212 
L 273.298309 125.847106 
L 273.486573 127.5966 
L 273.622625 128.615693 
L 273.710608 126.727034 
L 273.847163 127.044214 
L 273.95068 128.424267 
L 274.072438 127.481268 
L 274.179706 127.539507 
L 274.259904 128.372005 
L 274.277338 126.451153 
L 274.372626 126.572004 
L 274.431795 127.7918 
L 274.586177 126.082429 
L 275.072293 131.324828 
L 275.124069 130.771626 
L 275.330325 131.774133 
L 275.417554 128.533296 
L 275.557358 127.331987 
L 275.626454 128.219 
L 275.798141 126.835026 
L 275.864378 126.942823 
L 275.86451 124.883732 
L 275.922404 126.807471 
L 276.209747 130.147027 
L 276.262522 129.710419 
L 276.346296 129.853601 
L 276.457288 130.794748 
L 276.484877 130.058308 
L 276.555426 131.292742 
L 276.673148 131.001943 
L 276.708217 129.281608 
L 276.827461 128.902127 
L 277.136448 126.128737 
L 277.224502 126.235592 
L 277.268733 125.260763 
L 277.462781 127.661671 
L 277.549863 126.49302 
L 277.617925 126.969493 
L 277.686224 127.656626 
L 277.755282 126.417255 
L 277.824952 127.077141 
L 277.977663 128.759985 
L 278.063852 127.103433 
L 278.11611 128.064956 
L 278.207943 127.52973 
L 278.281863 128.580011 
L 278.339795 127.827867 
L 278.477487 129.47036 
L 278.649227 127.867009 
L 278.684729 128.362199 
L 278.823383 128.493355 
L 278.889389 128.085657 
L 278.95748 128.488806 
L 279.078171 130.637169 
L 279.131749 130.109299 
L 279.200012 129.128914 
L 279.249511 129.365106 
L 279.318385 129.552343 
L 279.456073 127.898923 
L 279.527221 126.572541 
L 279.627881 127.7171 
L 279.701829 127.658692 
L 279.822623 125.144532 
L 280.030388 123.022633 
L 280.179653 123.163044 
L 280.248707 123.441947 
L 280.315428 122.885497 
L 280.418749 123.045946 
L 281.053811 129.342203 
L 281.190811 127.785106 
L 281.277076 128.750511 
L 281.448637 124.904021 
L 281.518002 125.415929 
L 281.947342 121.283383 
L 282.087153 123.749149 
L 282.188157 123.013623 
L 282.24025 123.385679 
L 282.362395 123.537832 
L 282.500735 124.543751 
L 282.600545 126.842378 
L 282.712785 126.75951 
L 282.875748 127.966274 
L 283.01303 127.410131 
L 283.082111 126.382745 
L 283.185732 126.391044 
L 283.219552 126.509451 
L 283.30559 126.3676 
L 283.357433 127.118551 
L 283.443758 126.596566 
L 283.616705 126.964719 
L 283.653061 126.709752 
L 283.872886 129.848026 
L 283.960656 129.289181 
L 284.027086 129.830801 
L 284.252216 127.551437 
L 284.286141 127.658463 
L 284.3545 128.386863 
L 284.457081 128.08028 
L 284.508349 127.345174 
L 284.595978 127.444184 
L 284.785644 130.30483 
L 284.853389 130.772446 
L 284.868895 130.458132 
L 285.042519 129.762368 
L 285.43452 124.354158 
L 285.52228 124.408447 
L 285.768108 126.317956 
L 285.851008 128.046579 
L 285.924071 128.617383 
L 286.003154 127.673085 
L 286.141688 128.590315 
L 286.346526 126.3914 
L 286.431978 127.213607 
L 286.655388 125.032711 
L 286.844631 127.319799 
L 287.137583 129.062186 
L 287.291979 128.49349 
L 287.428747 129.542644 
L 287.788656 125.878573 
L 287.9181 125.734712 
L 287.9908 127.133874 
L 288.056967 126.401053 
L 288.160211 125.268267 
L 288.213103 125.322741 
L 288.437023 127.265379 
L 288.627067 128.151761 
L 288.729394 128.245424 
L 288.901541 125.518908 
L 288.986843 125.68558 
L 289.040413 126.320975 
L 289.124271 126.067943 
L 289.284312 125.301832 
L 289.330366 126.242963 
L 289.399219 125.203903 
L 289.537006 127.178599 
L 289.621638 129.421546 
L 289.692577 129.134099 
L 289.759837 128.931406 
L 289.831008 130.105158 
L 289.900297 130.036404 
L 290.413272 123.679693 
L 290.464725 126.121911 
L 290.535898 124.240875 
L 290.604102 124.334595 
L 290.760896 125.292052 
L 290.921211 126.096406 
L 290.96447 127.920893 
L 291.058014 128.073167 
L 291.12031 128.451367 
L 291.182646 127.578379 
L 291.463654 129.386929 
L 291.600875 129.902712 
L 291.670983 128.80556 
L 291.808733 130.338394 
L 291.882045 129.602308 
L 292.030925 130.31674 
L 292.099855 129.311373 
L 292.169378 129.553143 
L 292.238302 129.636278 
L 292.530194 126.937266 
L 292.684119 128.632574 
L 292.735914 127.58163 
L 292.858798 127.973454 
L 292.959265 127.183066 
L 293.011736 125.745696 
L 293.097269 126.632283 
L 293.216852 125.811568 
L 293.275164 126.241667 
L 293.405229 123.951245 
L 293.478039 125.741368 
L 293.578443 124.425338 
L 293.663566 124.446753 
L 293.749196 125.866002 
L 293.83594 125.336843 
L 293.88645 125.746263 
L 293.94096 125.637087 
L 294.026875 125.427168 
L 294.110169 127.07907 
L 294.162649 125.075062 
L 294.248833 126.03197 
L 294.331764 125.792767 
L 294.36616 124.648962 
L 294.43768 125.216002 
L 294.50443 124.282292 
L 294.590945 124.355249 
L 294.65992 124.044514 
L 294.729334 124.655008 
L 294.847787 123.786526 
L 294.8828 124.207106 
L 295.072017 126.901927 
L 295.185691 127.124613 
L 295.319548 130.246989 
L 295.468689 129.876371 
L 295.710602 126.773641 
L 295.901322 127.391234 
L 295.947558 124.936406 
L 296.016785 125.094981 
L 296.089331 124.292164 
L 296.316171 126.819068 
L 296.329351 124.996644 
L 296.430417 125.753695 
L 296.501076 125.838464 
L 296.567919 125.212353 
L 296.659252 125.720604 
L 296.721896 125.534139 
L 296.793693 125.314844 
L 296.893945 124.009728 
L 296.949151 124.429773 
L 297.047203 124.109709 
L 297.08698 124.727396 
L 297.159503 124.234861 
L 297.322311 125.469243 
L 297.426078 124.636048 
L 297.650497 126.176401 
L 297.68335 125.011895 
L 297.752587 127.066338 
L 297.80351 126.308089 
L 297.861235 126.516199 
L 297.992857 124.752858 
L 298.009002 125.137559 
L 298.147628 126.293258 
L 298.200564 126.208491 
L 298.286476 125.767798 
L 298.355674 126.050979 
L 298.42133 125.105512 
L 298.493341 125.417922 
L 298.559277 126.376155 
L 298.782506 124.437261 
L 298.851553 124.485726 
L 298.939737 124.568264 
L 299.092124 126.288146 
L 299.161111 125.659618 
L 299.229666 125.713495 
L 299.498642 130.059426 
L 299.578872 128.764953 
L 299.720133 128.883853 
L 299.970558 127.93403 
L 300.07322 125.369468 
L 300.126706 126.787473 
L 300.209519 125.137979 
L 300.381461 126.021998 
L 300.435794 124.994114 
L 300.486617 126.037571 
L 300.554162 126.184461 
L 300.625955 127.628452 
L 300.815667 127.025549 
L 300.845293 126.352457 
L 300.913741 126.859814 
L 300.982888 127.544923 
L 301.102711 127.096974 
L 301.139166 128.216634 
L 301.194227 127.81656 
L 301.259756 128.097908 
L 301.344447 128.038914 
L 301.429281 128.297096 
L 301.481365 128.878253 
L 301.550361 127.995181 
L 301.636422 129.747111 
L 301.774044 128.723684 
L 301.894039 128.996082 
L 302.048519 126.30921 
L 302.11795 125.713917 
L 302.20327 126.704722 
L 302.256229 126.553584 
L 302.46188 122.999357 
L 302.54834 123.503593 
L 302.705859 125.796137 
L 302.770289 125.192767 
L 302.890614 126.23275 
L 302.943411 124.244875 
L 302.996376 124.290462 
L 303.186572 128.61975 
L 303.257589 128.081247 
L 303.326509 126.117444 
L 303.397628 126.354575 
L 303.463048 127.105801 
L 303.5489 126.980645 
L 303.621662 127.440078 
L 303.806768 125.196164 
L 304.031798 127.154092 
L 304.132377 126.700187 
L 304.185944 127.004492 
L 304.253826 128.55348 
L 304.323308 128.031185 
L 304.395337 128.615152 
L 304.461814 128.385351 
L 304.477392 125.992721 
L 304.581052 126.689068 
L 304.666434 127.383007 
L 304.740912 127.255636 
L 304.964362 124.875913 
L 305.250035 128.770267 
L 305.315685 128.651746 
L 305.396307 128.108726 
L 305.543675 129.238261 
L 305.825736 126.293125 
L 305.98203 127.394538 
L 306.171382 125.148997 
L 306.309241 127.450565 
L 306.376816 127.235981 
L 306.462317 127.567953 
L 306.771474 124.954002 
L 306.806357 125.998881 
L 306.874464 125.9214 
L 306.978511 125.660674 
L 307.151093 124.463792 
L 307.235034 124.70728 
L 307.545927 128.090344 
L 307.6655 127.574896 
L 307.734856 127.616239 
L 307.837969 127.906061 
L 307.956909 129.893759 
L 308.235038 127.506747 
L 308.38921 128.401771 
L 308.508618 128.857003 
L 308.629125 128.480736 
L 308.894841 122.163322 
L 308.941452 122.932686 
L 309.130846 122.286939 
L 309.197893 122.583711 
L 309.69582 129.323698 
L 309.730662 128.685973 
L 309.78558 127.691957 
L 309.799148 125.044879 
L 309.870516 126.803311 
L 309.953734 126.12287 
L 310.040292 126.231261 
L 310.162089 126.906842 
L 310.176701 125.221461 
L 310.211474 125.343636 
L 310.336486 125.517533 
L 310.526444 126.672216 
L 310.592816 125.819411 
L 310.67618 126.103844 
L 310.856698 125.394972 
L 310.9349 125.472166 
L 311.070903 124.601198 
L 311.140312 126.778526 
L 311.140312 126.778526 
" clip-path="url(#p2c5ecc833a)" style="fill: none; stroke: #ff0000; stroke-opacity: 0.5; stroke-width: 3; stroke-linecap: square"/>
   </g>
   <g id="patch_3">
    <path d="M 32.140313 139.32 
L 32.140313 0.72 
" style="fill: none; stroke: #000000; stroke-width: 0.8; stroke-linejoin: miter; stroke-linecap: square"/>
   </g>
   <g id="patch_4">
    <path d="M 311.140312 139.32 
L 311.140312 0.72 
" style="fill: none; stroke: #000000; stroke-width: 0.8; stroke-linejoin: miter; stroke-linecap: square"/>
   </g>
   <g id="patch_5">
    <path d="M 32.140313 139.32 
L 311.140312 139.32 
" style="fill: none; stroke: #000000; stroke-width: 0.8; stroke-linejoin: miter; stroke-linecap: square"/>
   </g>
   <g id="patch_6">
    <path d="M 32.140313 0.72 
L 311.140312 0.72 
" style="fill: none; stroke: #000000; stroke-width: 0.8; stroke-linejoin: miter; stroke-linecap: square"/>
   </g>
   <g id="legend_1">
    <g id="patch_7">
     <path d="M 230.371562 86.198125 
L 304.140312 86.198125 
Q 306.140312 86.198125 306.140312 84.198125 
L 306.140312 55.841875 
Q 306.140312 53.841875 304.140312 53.841875 
L 230.371562 53.841875 
Q 228.371562 53.841875 228.371562 55.841875 
L 228.371562 84.198125 
Q 228.371562 86.198125 230.371562 86.198125 
z
" style="fill: #ffffff; opacity: 0.8; stroke: #cccccc; stroke-linejoin: miter"/>
    </g>
    <g id="line2d_25">
     <path d="M 232.371562 61.940312 
L 242.371562 61.940312 
L 252.371562 61.940312 
" style="fill: none; stroke: #0000ff; stroke-opacity: 0.5; stroke-width: 3; stroke-linecap: square"/>
    </g>
    <g id="text_14">
     <!-- RNEA -->
     <g transform="translate(260.371562 65.440312) scale(0.1 -0.1)">
      <defs>
       <path id="DejaVuSans-52" d="M 2841 2188 
Q 3044 2119 3236 1894 
Q 3428 1669 3622 1275 
L 4263 0 
L 3584 0 
L 2988 1197 
Q 2756 1666 2539 1819 
Q 2322 1972 1947 1972 
L 1259 1972 
L 1259 0 
L 628 0 
L 628 4666 
L 2053 4666 
Q 2853 4666 3247 4331 
Q 3641 3997 3641 3322 
Q 3641 2881 3436 2590 
Q 3231 2300 2841 2188 
z
M 1259 4147 
L 1259 2491 
L 2053 2491 
Q 2509 2491 2742 2702 
Q 2975 2913 2975 3322 
Q 2975 3731 2742 3939 
Q 2509 4147 2053 4147 
L 1259 4147 
z
" transform="scale(0.015625)"/>
       <path id="DejaVuSans-45" d="M 628 4666 
L 3578 4666 
L 3578 4134 
L 1259 4134 
L 1259 2753 
L 3481 2753 
L 3481 2222 
L 1259 2222 
L 1259 531 
L 3634 531 
L 3634 0 
L 628 0 
L 628 4666 
z
" transform="scale(0.015625)"/>
       <path id="DejaVuSans-41" d="M 2188 4044 
L 1331 1722 
L 3047 1722 
L 2188 4044 
z
M 1831 4666 
L 2547 4666 
L 4325 0 
L 3669 0 
L 3244 1197 
L 1141 1197 
L 716 0 
L 50 0 
L 1831 4666 
z
" transform="scale(0.015625)"/>
      </defs>
      <use xlink:href="#DejaVuSans-52"/>
      <use xlink:href="#DejaVuSans-4e" x="69.482422"/>
      <use xlink:href="#DejaVuSans-45" x="144.287109"/>
      <use xlink:href="#DejaVuSans-41" x="207.470703"/>
     </g>
    </g>
    <g id="line2d_26">
     <path d="M 232.371562 76.618437 
L 242.371562 76.618437 
L 252.371562 76.618437 
" style="fill: none; stroke: #ff0000; stroke-opacity: 0.5; stroke-width: 3; stroke-linecap: square"/>
    </g>
    <g id="text_15">
     <!-- BURNEA -->
     <g transform="translate(260.371562 80.118437) scale(0.1 -0.1)">
      <defs>
       <path id="DejaVuSans-42" d="M 1259 2228 
L 1259 519 
L 2272 519 
Q 2781 519 3026 730 
Q 3272 941 3272 1375 
Q 3272 1813 3026 2020 
Q 2781 2228 2272 2228 
L 1259 2228 
z
M 1259 4147 
L 1259 2741 
L 2194 2741 
Q 2656 2741 2882 2914 
Q 3109 3088 3109 3444 
Q 3109 3797 2882 3972 
Q 2656 4147 2194 4147 
L 1259 4147 
z
M 628 4666 
L 2241 4666 
Q 2963 4666 3353 4366 
Q 3744 4066 3744 3513 
Q 3744 3084 3544 2831 
Q 3344 2578 2956 2516 
Q 3422 2416 3680 2098 
Q 3938 1781 3938 1306 
Q 3938 681 3513 340 
Q 3088 0 2303 0 
L 628 0 
L 628 4666 
z
" transform="scale(0.015625)"/>
       <path id="DejaVuSans-55" d="M 556 4666 
L 1191 4666 
L 1191 1831 
Q 1191 1081 1462 751 
Q 1734 422 2344 422 
Q 2950 422 3222 751 
Q 3494 1081 3494 1831 
L 3494 4666 
L 4128 4666 
L 4128 1753 
Q 4128 841 3676 375 
Q 3225 -91 2344 -91 
Q 1459 -91 1007 375 
Q 556 841 556 1753 
L 556 4666 
z
" transform="scale(0.015625)"/>
      </defs>
      <use xlink:href="#DejaVuSans-42"/>
      <use xlink:href="#DejaVuSans-55" x="68.603516"/>
      <use xlink:href="#DejaVuSans-52" x="141.796875"/>
      <use xlink:href="#DejaVuSans-4e" x="211.279297"/>
      <use xlink:href="#DejaVuSans-45" x="286.083984"/>
      <use xlink:href="#DejaVuSans-41" x="349.267578"/>
     </g>
    </g>
   </g>
  </g>
 </g>
 <defs>
  <clipPath id="p2c5ecc833a">
   <rect x="32.140313" y="0.72" width="279" height="138.6"/>
  </clipPath>
 </defs>
</svg>
