<?xml version="1.0" encoding="utf-8" standalone="no"?>
<!DOCTYPE svg PUBLIC "-//W3C//DTD SVG 1.1//EN"
  "http://www.w3.org/Graphics/SVG/1.1/DTD/svg11.dtd">
<svg xmlns:xlink="http://www.w3.org/1999/xlink" width="318.222812pt" height="166.39625pt" viewBox="0 0 318.222812 166.39625" xmlns="http://www.w3.org/2000/svg" version="1.1">
 <metadata>
  <rdf:RDF xmlns:dc="http://purl.org/dc/elements/1.1/" xmlns:cc="http://creativecommons.org/ns#" xmlns:rdf="http://www.w3.org/1999/02/22-rdf-syntax-ns#">
   <cc:Work>
    <dc:type rdf:resource="http://purl.org/dc/dcmitype/StillImage"/>
    <dc:date>2023-09-07T03:31:06.368941</dc:date>
    <dc:format>image/svg+xml</dc:format>
    <dc:creator>
     <cc:Agent>
      <dc:title>Matplotlib v3.7.2, https://matplotlib.org/</dc:title>
     </cc:Agent>
    </dc:creator>
   </cc:Work>
  </rdf:RDF>
 </metadata>
 <defs>
  <style type="text/css">*{stroke-linejoin: round; stroke-linecap: butt}</style>
 </defs>
 <g id="figure_1">
  <g id="patch_1">
   <path d="M 0 166.39625 
L 318.222812 166.39625 
L 318.222812 0 
L 0 0 
L 0 166.39625 
z
" style="fill: none"/>
  </g>
  <g id="axes_1">
   <g id="patch_2">
    <path d="M 38.502813 139.32 
L 317.502813 139.32 
L 317.502813 0.72 
L 38.502813 0.72 
L 38.502813 139.32 
z
" style="fill: none"/>
   </g>
   <g id="matplotlib.axis_1">
    <g id="xtick_1">
     <g id="line2d_1">
      <path d="M 38.502813 139.32 
L 38.502813 0.72 
" clip-path="url(#p42d099e0f0)" style="fill: none; stroke-dasharray: 0.8,1.32; stroke-dashoffset: 0; stroke: #000000; stroke-opacity: 0.5; stroke-width: 0.8"/>
     </g>
     <g id="line2d_2">
      <defs>
       <path id="m9f3abc6f2c" d="M 0 0 
L 0 3.5 
" style="stroke: #000000; stroke-width: 0.8"/>
      </defs>
      <g>
       <use xlink:href="#m9f3abc6f2c" x="38.502813" y="139.32" style="stroke: #000000; stroke-width: 0.8"/>
      </g>
     </g>
     <g id="text_1">
      <!-- 0 -->
      <g transform="translate(35.321563 153.918437) scale(0.1 -0.1)">
       <defs>
        <path id="DejaVuSans-30" d="M 2034 4250 
Q 1547 4250 1301 3770 
Q 1056 3291 1056 2328 
Q 1056 1369 1301 889 
Q 1547 409 2034 409 
Q 2525 409 2770 889 
Q 3016 1369 3016 2328 
Q 3016 3291 2770 3770 
Q 2525 4250 2034 4250 
z
M 2034 4750 
Q 2819 4750 3233 4129 
Q 3647 3509 3647 2328 
Q 3647 1150 3233 529 
Q 2819 -91 2034 -91 
Q 1250 -91 836 529 
Q 422 1150 422 2328 
Q 422 3509 836 4129 
Q 1250 4750 2034 4750 
z
" transform="scale(0.015625)"/>
       </defs>
       <use xlink:href="#DejaVuSans-30"/>
      </g>
     </g>
    </g>
    <g id="xtick_2">
     <g id="line2d_3">
      <path d="M 81.117713 139.32 
L 81.117713 0.72 
" clip-path="url(#p42d099e0f0)" style="fill: none; stroke-dasharray: 0.8,1.32; stroke-dashoffset: 0; stroke: #000000; stroke-opacity: 0.5; stroke-width: 0.8"/>
     </g>
     <g id="line2d_4">
      <g>
       <use xlink:href="#m9f3abc6f2c" x="81.117713" y="139.32" style="stroke: #000000; stroke-width: 0.8"/>
      </g>
     </g>
     <g id="text_2">
      <!-- 5 -->
      <g transform="translate(77.936463 153.918437) scale(0.1 -0.1)">
       <defs>
        <path id="DejaVuSans-35" d="M 691 4666 
L 3169 4666 
L 3169 4134 
L 1269 4134 
L 1269 2991 
Q 1406 3038 1543 3061 
Q 1681 3084 1819 3084 
Q 2600 3084 3056 2656 
Q 3513 2228 3513 1497 
Q 3513 744 3044 326 
Q 2575 -91 1722 -91 
Q 1428 -91 1123 -41 
Q 819 9 494 109 
L 494 744 
Q 775 591 1075 516 
Q 1375 441 1709 441 
Q 2250 441 2565 725 
Q 2881 1009 2881 1497 
Q 2881 1984 2565 2268 
Q 2250 2553 1709 2553 
Q 1456 2553 1204 2497 
Q 953 2441 691 2322 
L 691 4666 
z
" transform="scale(0.015625)"/>
       </defs>
       <use xlink:href="#DejaVuSans-35"/>
      </g>
     </g>
    </g>
    <g id="xtick_3">
     <g id="line2d_5">
      <path d="M 123.732614 139.32 
L 123.732614 0.72 
" clip-path="url(#p42d099e0f0)" style="fill: none; stroke-dasharray: 0.8,1.32; stroke-dashoffset: 0; stroke: #000000; stroke-opacity: 0.5; stroke-width: 0.8"/>
     </g>
     <g id="line2d_6">
      <g>
       <use xlink:href="#m9f3abc6f2c" x="123.732614" y="139.32" style="stroke: #000000; stroke-width: 0.8"/>
      </g>
     </g>
     <g id="text_3">
      <!-- 10 -->
      <g transform="translate(117.370114 153.918437) scale(0.1 -0.1)">
       <defs>
        <path id="DejaVuSans-31" d="M 794 531 
L 1825 531 
L 1825 4091 
L 703 3866 
L 703 4441 
L 1819 4666 
L 2450 4666 
L 2450 531 
L 3481 531 
L 3481 0 
L 794 0 
L 794 531 
z
" transform="scale(0.015625)"/>
       </defs>
       <use xlink:href="#DejaVuSans-31"/>
       <use xlink:href="#DejaVuSans-30" x="63.623047"/>
      </g>
     </g>
    </g>
    <g id="xtick_4">
     <g id="line2d_7">
      <path d="M 166.347514 139.32 
L 166.347514 0.72 
" clip-path="url(#p42d099e0f0)" style="fill: none; stroke-dasharray: 0.8,1.32; stroke-dashoffset: 0; stroke: #000000; stroke-opacity: 0.5; stroke-width: 0.8"/>
     </g>
     <g id="line2d_8">
      <g>
       <use xlink:href="#m9f3abc6f2c" x="166.347514" y="139.32" style="stroke: #000000; stroke-width: 0.8"/>
      </g>
     </g>
     <g id="text_4">
      <!-- 15 -->
      <g transform="translate(159.985014 153.918437) scale(0.1 -0.1)">
       <use xlink:href="#DejaVuSans-31"/>
       <use xlink:href="#DejaVuSans-35" x="63.623047"/>
      </g>
     </g>
    </g>
    <g id="xtick_5">
     <g id="line2d_9">
      <path d="M 208.962415 139.32 
L 208.962415 0.72 
" clip-path="url(#p42d099e0f0)" style="fill: none; stroke-dasharray: 0.8,1.32; stroke-dashoffset: 0; stroke: #000000; stroke-opacity: 0.5; stroke-width: 0.8"/>
     </g>
     <g id="line2d_10">
      <g>
       <use xlink:href="#m9f3abc6f2c" x="208.962415" y="139.32" style="stroke: #000000; stroke-width: 0.8"/>
      </g>
     </g>
     <g id="text_5">
      <!-- 20 -->
      <g transform="translate(202.599915 153.918437) scale(0.1 -0.1)">
       <defs>
        <path id="DejaVuSans-32" d="M 1228 531 
L 3431 531 
L 3431 0 
L 469 0 
L 469 531 
Q 828 903 1448 1529 
Q 2069 2156 2228 2338 
Q 2531 2678 2651 2914 
Q 2772 3150 2772 3378 
Q 2772 3750 2511 3984 
Q 2250 4219 1831 4219 
Q 1534 4219 1204 4116 
Q 875 4013 500 3803 
L 500 4441 
Q 881 4594 1212 4672 
Q 1544 4750 1819 4750 
Q 2544 4750 2975 4387 
Q 3406 4025 3406 3419 
Q 3406 3131 3298 2873 
Q 3191 2616 2906 2266 
Q 2828 2175 2409 1742 
Q 1991 1309 1228 531 
z
" transform="scale(0.015625)"/>
       </defs>
       <use xlink:href="#DejaVuSans-32"/>
       <use xlink:href="#DejaVuSans-30" x="63.623047"/>
      </g>
     </g>
    </g>
    <g id="xtick_6">
     <g id="line2d_11">
      <path d="M 251.577315 139.32 
L 251.577315 0.72 
" clip-path="url(#p42d099e0f0)" style="fill: none; stroke-dasharray: 0.8,1.32; stroke-dashoffset: 0; stroke: #000000; stroke-opacity: 0.5; stroke-width: 0.8"/>
     </g>
     <g id="line2d_12">
      <g>
       <use xlink:href="#m9f3abc6f2c" x="251.577315" y="139.32" style="stroke: #000000; stroke-width: 0.8"/>
      </g>
     </g>
     <g id="text_6">
      <!-- 25 -->
      <g transform="translate(245.214815 153.918437) scale(0.1 -0.1)">
       <use xlink:href="#DejaVuSans-32"/>
       <use xlink:href="#DejaVuSans-35" x="63.623047"/>
      </g>
     </g>
    </g>
    <g id="xtick_7">
     <g id="line2d_13">
      <path d="M 294.192216 139.32 
L 294.192216 0.72 
" clip-path="url(#p42d099e0f0)" style="fill: none; stroke-dasharray: 0.8,1.32; stroke-dashoffset: 0; stroke: #000000; stroke-opacity: 0.5; stroke-width: 0.8"/>
     </g>
     <g id="line2d_14">
      <g>
       <use xlink:href="#m9f3abc6f2c" x="294.192216" y="139.32" style="stroke: #000000; stroke-width: 0.8"/>
      </g>
     </g>
     <g id="text_7">
      <!-- 30 -->
      <g transform="translate(287.829716 153.918437) scale(0.1 -0.1)">
       <defs>
        <path id="DejaVuSans-33" d="M 2597 2516 
Q 3050 2419 3304 2112 
Q 3559 1806 3559 1356 
Q 3559 666 3084 287 
Q 2609 -91 1734 -91 
Q 1441 -91 1130 -33 
Q 819 25 488 141 
L 488 750 
Q 750 597 1062 519 
Q 1375 441 1716 441 
Q 2309 441 2620 675 
Q 2931 909 2931 1356 
Q 2931 1769 2642 2001 
Q 2353 2234 1838 2234 
L 1294 2234 
L 1294 2753 
L 1863 2753 
Q 2328 2753 2575 2939 
Q 2822 3125 2822 3475 
Q 2822 3834 2567 4026 
Q 2313 4219 1838 4219 
Q 1578 4219 1281 4162 
Q 984 4106 628 3988 
L 628 4550 
Q 988 4650 1302 4700 
Q 1616 4750 1894 4750 
Q 2613 4750 3031 4423 
Q 3450 4097 3450 3541 
Q 3450 3153 3228 2886 
Q 3006 2619 2597 2516 
z
" transform="scale(0.015625)"/>
       </defs>
       <use xlink:href="#DejaVuSans-33"/>
       <use xlink:href="#DejaVuSans-30" x="63.623047"/>
      </g>
     </g>
    </g>
    <g id="text_8">
     <!-- Zeit [s] -->
     <g transform="translate(160.056719 163.596562) scale(0.1 -0.1)">
      <defs>
       <path id="DejaVuSans-5a" d="M 359 4666 
L 4025 4666 
L 4025 4184 
L 1075 531 
L 4097 531 
L 4097 0 
L 288 0 
L 288 481 
L 3238 4134 
L 359 4134 
L 359 4666 
z
" transform="scale(0.015625)"/>
       <path id="DejaVuSans-65" d="M 3597 1894 
L 3597 1613 
L 953 1613 
Q 991 1019 1311 708 
Q 1631 397 2203 397 
Q 2534 397 2845 478 
Q 3156 559 3463 722 
L 3463 178 
Q 3153 47 2828 -22 
Q 2503 -91 2169 -91 
Q 1331 -91 842 396 
Q 353 884 353 1716 
Q 353 2575 817 3079 
Q 1281 3584 2069 3584 
Q 2775 3584 3186 3129 
Q 3597 2675 3597 1894 
z
M 3022 2063 
Q 3016 2534 2758 2815 
Q 2500 3097 2075 3097 
Q 1594 3097 1305 2825 
Q 1016 2553 972 2059 
L 3022 2063 
z
" transform="scale(0.015625)"/>
       <path id="DejaVuSans-69" d="M 603 3500 
L 1178 3500 
L 1178 0 
L 603 0 
L 603 3500 
z
M 603 4863 
L 1178 4863 
L 1178 4134 
L 603 4134 
L 603 4863 
z
" transform="scale(0.015625)"/>
       <path id="DejaVuSans-74" d="M 1172 4494 
L 1172 3500 
L 2356 3500 
L 2356 3053 
L 1172 3053 
L 1172 1153 
Q 1172 725 1289 603 
Q 1406 481 1766 481 
L 2356 481 
L 2356 0 
L 1766 0 
Q 1100 0 847 248 
Q 594 497 594 1153 
L 594 3053 
L 172 3053 
L 172 3500 
L 594 3500 
L 594 4494 
L 1172 4494 
z
" transform="scale(0.015625)"/>
       <path id="DejaVuSans-20" transform="scale(0.015625)"/>
       <path id="DejaVuSans-5b" d="M 550 4863 
L 1875 4863 
L 1875 4416 
L 1125 4416 
L 1125 -397 
L 1875 -397 
L 1875 -844 
L 550 -844 
L 550 4863 
z
" transform="scale(0.015625)"/>
       <path id="DejaVuSans-73" d="M 2834 3397 
L 2834 2853 
Q 2591 2978 2328 3040 
Q 2066 3103 1784 3103 
Q 1356 3103 1142 2972 
Q 928 2841 928 2578 
Q 928 2378 1081 2264 
Q 1234 2150 1697 2047 
L 1894 2003 
Q 2506 1872 2764 1633 
Q 3022 1394 3022 966 
Q 3022 478 2636 193 
Q 2250 -91 1575 -91 
Q 1294 -91 989 -36 
Q 684 19 347 128 
L 347 722 
Q 666 556 975 473 
Q 1284 391 1588 391 
Q 1994 391 2212 530 
Q 2431 669 2431 922 
Q 2431 1156 2273 1281 
Q 2116 1406 1581 1522 
L 1381 1569 
Q 847 1681 609 1914 
Q 372 2147 372 2553 
Q 372 3047 722 3315 
Q 1072 3584 1716 3584 
Q 2034 3584 2315 3537 
Q 2597 3491 2834 3397 
z
" transform="scale(0.015625)"/>
       <path id="DejaVuSans-5d" d="M 1947 4863 
L 1947 -844 
L 622 -844 
L 622 -397 
L 1369 -397 
L 1369 4416 
L 622 4416 
L 622 4863 
L 1947 4863 
z
" transform="scale(0.015625)"/>
      </defs>
      <use xlink:href="#DejaVuSans-5a"/>
      <use xlink:href="#DejaVuSans-65" x="68.505859"/>
      <use xlink:href="#DejaVuSans-69" x="130.029297"/>
      <use xlink:href="#DejaVuSans-74" x="157.8125"/>
      <use xlink:href="#DejaVuSans-20" x="197.021484"/>
      <use xlink:href="#DejaVuSans-5b" x="228.808594"/>
      <use xlink:href="#DejaVuSans-73" x="267.822266"/>
      <use xlink:href="#DejaVuSans-5d" x="319.921875"/>
     </g>
    </g>
   </g>
   <g id="matplotlib.axis_2">
    <g id="ytick_1">
     <g id="line2d_15">
      <path d="M 38.502813 116.436677 
L 317.502813 116.436677 
" clip-path="url(#p42d099e0f0)" style="fill: none; stroke-dasharray: 0.8,1.32; stroke-dashoffset: 0; stroke: #000000; stroke-opacity: 0.5; stroke-width: 0.8"/>
     </g>
     <g id="line2d_16">
      <defs>
       <path id="m6c35ff2f76" d="M 0 0 
L -3.5 0 
" style="stroke: #000000; stroke-width: 0.8"/>
      </defs>
      <g>
       <use xlink:href="#m6c35ff2f76" x="38.502813" y="116.436677" style="stroke: #000000; stroke-width: 0.8"/>
      </g>
     </g>
     <g id="text_9">
      <!-- −30 -->
      <g transform="translate(10.398125 120.235896) scale(0.1 -0.1)">
       <defs>
        <path id="DejaVuSans-2212" d="M 678 2272 
L 4684 2272 
L 4684 1741 
L 678 1741 
L 678 2272 
z
" transform="scale(0.015625)"/>
       </defs>
       <use xlink:href="#DejaVuSans-2212"/>
       <use xlink:href="#DejaVuSans-33" x="83.789062"/>
       <use xlink:href="#DejaVuSans-30" x="147.412109"/>
      </g>
     </g>
    </g>
    <g id="ytick_2">
     <g id="line2d_17">
      <path d="M 38.502813 76.994939 
L 317.502813 76.994939 
" clip-path="url(#p42d099e0f0)" style="fill: none; stroke-dasharray: 0.8,1.32; stroke-dashoffset: 0; stroke: #000000; stroke-opacity: 0.5; stroke-width: 0.8"/>
     </g>
     <g id="line2d_18">
      <g>
       <use xlink:href="#m6c35ff2f76" x="38.502813" y="76.994939" style="stroke: #000000; stroke-width: 0.8"/>
      </g>
     </g>
     <g id="text_10">
      <!-- −20 -->
      <g transform="translate(10.398125 80.794157) scale(0.1 -0.1)">
       <use xlink:href="#DejaVuSans-2212"/>
       <use xlink:href="#DejaVuSans-32" x="83.789062"/>
       <use xlink:href="#DejaVuSans-30" x="147.412109"/>
      </g>
     </g>
    </g>
    <g id="ytick_3">
     <g id="line2d_19">
      <path d="M 38.502813 37.553201 
L 317.502813 37.553201 
" clip-path="url(#p42d099e0f0)" style="fill: none; stroke-dasharray: 0.8,1.32; stroke-dashoffset: 0; stroke: #000000; stroke-opacity: 0.5; stroke-width: 0.8"/>
     </g>
     <g id="line2d_20">
      <g>
       <use xlink:href="#m6c35ff2f76" x="38.502813" y="37.553201" style="stroke: #000000; stroke-width: 0.8"/>
      </g>
     </g>
     <g id="text_11">
      <!-- −10 -->
      <g transform="translate(10.398125 41.352419) scale(0.1 -0.1)">
       <use xlink:href="#DejaVuSans-2212"/>
       <use xlink:href="#DejaVuSans-31" x="83.789062"/>
       <use xlink:href="#DejaVuSans-30" x="147.412109"/>
      </g>
     </g>
    </g>
    <g id="text_12">
     <!-- Drehmoment [Nm] -->
     <g transform="translate(8.318437 117.165312) rotate(-90) scale(0.1 -0.1)">
      <defs>
       <path id="DejaVuSans-44" d="M 1259 4147 
L 1259 519 
L 2022 519 
Q 2988 519 3436 956 
Q 3884 1394 3884 2338 
Q 3884 3275 3436 3711 
Q 2988 4147 2022 4147 
L 1259 4147 
z
M 628 4666 
L 1925 4666 
Q 3281 4666 3915 4102 
Q 4550 3538 4550 2338 
Q 4550 1131 3912 565 
Q 3275 0 1925 0 
L 628 0 
L 628 4666 
z
" transform="scale(0.015625)"/>
       <path id="DejaVuSans-72" d="M 2631 2963 
Q 2534 3019 2420 3045 
Q 2306 3072 2169 3072 
Q 1681 3072 1420 2755 
Q 1159 2438 1159 1844 
L 1159 0 
L 581 0 
L 581 3500 
L 1159 3500 
L 1159 2956 
Q 1341 3275 1631 3429 
Q 1922 3584 2338 3584 
Q 2397 3584 2469 3576 
Q 2541 3569 2628 3553 
L 2631 2963 
z
" transform="scale(0.015625)"/>
       <path id="DejaVuSans-68" d="M 3513 2113 
L 3513 0 
L 2938 0 
L 2938 2094 
Q 2938 2591 2744 2837 
Q 2550 3084 2163 3084 
Q 1697 3084 1428 2787 
Q 1159 2491 1159 1978 
L 1159 0 
L 581 0 
L 581 4863 
L 1159 4863 
L 1159 2956 
Q 1366 3272 1645 3428 
Q 1925 3584 2291 3584 
Q 2894 3584 3203 3211 
Q 3513 2838 3513 2113 
z
" transform="scale(0.015625)"/>
       <path id="DejaVuSans-6d" d="M 3328 2828 
Q 3544 3216 3844 3400 
Q 4144 3584 4550 3584 
Q 5097 3584 5394 3201 
Q 5691 2819 5691 2113 
L 5691 0 
L 5113 0 
L 5113 2094 
Q 5113 2597 4934 2840 
Q 4756 3084 4391 3084 
Q 3944 3084 3684 2787 
Q 3425 2491 3425 1978 
L 3425 0 
L 2847 0 
L 2847 2094 
Q 2847 2600 2669 2842 
Q 2491 3084 2119 3084 
Q 1678 3084 1418 2786 
Q 1159 2488 1159 1978 
L 1159 0 
L 581 0 
L 581 3500 
L 1159 3500 
L 1159 2956 
Q 1356 3278 1631 3431 
Q 1906 3584 2284 3584 
Q 2666 3584 2933 3390 
Q 3200 3197 3328 2828 
z
" transform="scale(0.015625)"/>
       <path id="DejaVuSans-6f" d="M 1959 3097 
Q 1497 3097 1228 2736 
Q 959 2375 959 1747 
Q 959 1119 1226 758 
Q 1494 397 1959 397 
Q 2419 397 2687 759 
Q 2956 1122 2956 1747 
Q 2956 2369 2687 2733 
Q 2419 3097 1959 3097 
z
M 1959 3584 
Q 2709 3584 3137 3096 
Q 3566 2609 3566 1747 
Q 3566 888 3137 398 
Q 2709 -91 1959 -91 
Q 1206 -91 779 398 
Q 353 888 353 1747 
Q 353 2609 779 3096 
Q 1206 3584 1959 3584 
z
" transform="scale(0.015625)"/>
       <path id="DejaVuSans-6e" d="M 3513 2113 
L 3513 0 
L 2938 0 
L 2938 2094 
Q 2938 2591 2744 2837 
Q 2550 3084 2163 3084 
Q 1697 3084 1428 2787 
Q 1159 2491 1159 1978 
L 1159 0 
L 581 0 
L 581 3500 
L 1159 3500 
L 1159 2956 
Q 1366 3272 1645 3428 
Q 1925 3584 2291 3584 
Q 2894 3584 3203 3211 
Q 3513 2838 3513 2113 
z
" transform="scale(0.015625)"/>
       <path id="DejaVuSans-4e" d="M 628 4666 
L 1478 4666 
L 3547 763 
L 3547 4666 
L 4159 4666 
L 4159 0 
L 3309 0 
L 1241 3903 
L 1241 0 
L 628 0 
L 628 4666 
z
" transform="scale(0.015625)"/>
      </defs>
      <use xlink:href="#DejaVuSans-44"/>
      <use xlink:href="#DejaVuSans-72" x="77.001953"/>
      <use xlink:href="#DejaVuSans-65" x="115.865234"/>
      <use xlink:href="#DejaVuSans-68" x="177.388672"/>
      <use xlink:href="#DejaVuSans-6d" x="240.767578"/>
      <use xlink:href="#DejaVuSans-6f" x="338.179688"/>
      <use xlink:href="#DejaVuSans-6d" x="399.361328"/>
      <use xlink:href="#DejaVuSans-65" x="496.773438"/>
      <use xlink:href="#DejaVuSans-6e" x="558.296875"/>
      <use xlink:href="#DejaVuSans-74" x="621.675781"/>
      <use xlink:href="#DejaVuSans-20" x="660.884766"/>
      <use xlink:href="#DejaVuSans-5b" x="692.671875"/>
      <use xlink:href="#DejaVuSans-4e" x="731.685547"/>
      <use xlink:href="#DejaVuSans-6d" x="806.490234"/>
      <use xlink:href="#DejaVuSans-5d" x="903.902344"/>
     </g>
    </g>
   </g>
   <g id="line2d_21">
    <path d="M 38.502813 5.853334 
L 317.502813 5.853334 
L 317.502813 5.853334 
" clip-path="url(#p42d099e0f0)" style="fill: none; stroke: #0000ff; stroke-opacity: 0.5; stroke-width: 3; stroke-linecap: square"/>
   </g>
   <g id="line2d_22">
    <path d="M 38.502813 128.403115 
L 38.710162 130.997146 
L 38.801142 130.668799 
L 38.816261 129.110956 
L 38.867107 129.708222 
L 38.937955 129.536914 
L 38.987701 127.0831 
L 39.054575 127.378467 
L 39.123721 128.009925 
L 39.210438 127.763993 
L 39.28474 128.220216 
L 39.363887 126.468645 
L 39.415198 126.565379 
L 39.552732 127.97178 
L 39.621893 127.345009 
L 39.725071 128.027814 
L 39.845046 126.739323 
L 39.913318 127.924742 
L 39.999402 127.633361 
L 40.119484 128.162875 
L 40.290597 126.134471 
L 40.703919 128.918333 
L 40.824026 128.603036 
L 40.84376 127.79647 
L 40.910015 128.529061 
L 41.116894 129.772754 
L 41.305359 128.46116 
L 41.339019 127.814496 
L 41.407672 127.945872 
L 41.683823 131.292628 
L 41.82626 129.158906 
L 41.898126 129.219684 
L 41.977546 130.613756 
L 42.032515 130.395831 
L 42.115449 130.608458 
L 42.32147 129.071803 
L 42.397027 128.153962 
L 42.463432 129.051452 
L 42.544375 128.856727 
L 42.63218 128.899273 
L 42.683131 128.667823 
L 42.751153 129.202287 
L 42.887882 127.930189 
L 43.031552 129.251909 
L 43.182564 128.314938 
L 43.251297 129.069092 
L 43.458012 126.524073 
L 43.595452 127.510894 
L 43.66547 126.979032 
L 43.736776 127.023929 
L 43.819322 127.501088 
L 43.888037 127.133005 
L 43.957312 126.099746 
L 44.025648 126.283004 
L 44.094895 127.360414 
L 44.173615 127.323945 
L 44.235085 126.649419 
L 44.386279 127.166633 
L 44.455753 126.88074 
L 44.537043 126.922858 
L 44.5937 127.709695 
L 44.663514 127.36119 
L 44.731056 127.377397 
L 44.868516 127.879396 
L 45.030289 126.579921 
L 45.092202 126.073738 
L 45.454849 128.862548 
L 45.52128 128.098756 
L 45.661553 129.856823 
L 45.72982 129.741242 
L 45.798217 129.720331 
L 45.935642 128.853748 
L 46.03883 127.468576 
L 46.10768 127.797102 
L 46.193272 127.553863 
L 46.296507 129.500206 
L 46.416589 128.219951 
L 46.656398 132.713253 
L 46.725466 131.680722 
L 46.794302 131.279318 
L 46.933688 128.269982 
L 47.021211 129.050457 
L 47.074457 130.032218 
L 47.145972 129.736709 
L 47.363555 127.595 
L 47.502827 127.532147 
L 47.728844 128.948638 
L 47.799025 128.513904 
L 48.021839 129.425553 
L 48.145464 129.316222 
L 48.301741 127.699195 
L 48.360018 128.147439 
L 48.430279 128.128016 
L 48.522603 128.134447 
L 48.585376 128.348298 
L 48.669811 129.142916 
L 48.685883 128.271965 
L 48.827638 126.225077 
L 48.889978 126.397042 
L 48.966308 127.814815 
L 49.086081 128.910861 
L 49.155811 128.99011 
L 49.241261 128.838471 
L 49.378515 127.64671 
L 49.584792 130.181264 
L 49.724068 128.27823 
L 49.791423 127.841315 
L 50.003123 129.802842 
L 50.100194 129.28765 
L 50.187478 129.342577 
L 50.273652 127.339952 
L 50.437315 129.877892 
L 50.495962 129.789579 
L 50.726597 127.967316 
L 51.079127 131.485852 
L 51.130907 131.316872 
L 51.338389 130.900454 
L 51.4744 129.468194 
L 51.542891 129.907558 
L 51.629405 128.957847 
L 51.835535 125.337983 
L 51.920982 125.580858 
L 52.556719 131.105317 
L 52.624981 130.869288 
L 52.951256 127.323529 
L 53.043661 129.280938 
L 53.122338 128.326457 
L 53.573256 132.083025 
L 53.622037 131.647967 
L 53.690747 129.895282 
L 53.770906 129.990685 
L 53.828326 131.304987 
L 53.999464 130.810702 
L 54.05152 131.041106 
L 54.188342 129.655988 
L 54.429518 131.617922 
L 54.481627 131.185293 
L 54.550077 129.636344 
L 54.618691 129.963053 
L 54.721602 130.01908 
L 54.876244 130.913794 
L 55.23291 129.9602 
L 55.254494 130.114488 
L 55.323798 130.424773 
L 55.410009 130.272694 
L 55.583929 131.352629 
L 55.619675 131.326588 
L 55.774386 129.302693 
L 55.906914 130.348414 
L 56.084524 129.647072 
L 56.123208 130.280595 
L 56.191641 130.014964 
L 56.270051 130.196815 
L 56.392748 130.184074 
L 56.424797 129.89017 
L 56.442932 130.613771 
L 56.510366 130.506607 
L 56.590416 129.591301 
L 56.606988 129.982659 
L 56.675882 129.519743 
L 56.75791 130.165614 
L 56.83681 130.120643 
L 57.108713 129.407483 
L 57.245415 130.385449 
L 57.347824 129.209279 
L 57.382324 131.151087 
L 57.451505 130.765418 
L 57.674631 125.588315 
L 57.742921 126.884093 
L 57.880559 128.932031 
L 57.983472 128.349138 
L 58.038542 130.092836 
L 58.104819 129.452552 
L 58.279242 128.267945 
L 58.400975 129.350996 
L 58.469549 130.046632 
L 58.519282 130.005449 
L 58.691279 129.678531 
L 58.76008 128.488149 
L 58.812599 128.614738 
L 59.087057 130.781035 
L 59.241076 129.802498 
L 59.397162 128.212944 
L 59.466163 128.655766 
L 59.672071 126.872037 
L 59.878274 125.568823 
L 59.89471 125.887238 
L 60.63323 128.783112 
L 61.033947 129.033449 
L 61.408502 128.80104 
L 61.42368 127.917955 
L 61.508839 128.491813 
L 61.578305 129.22615 
L 61.716443 127.53374 
L 61.973675 132.497836 
L 61.992226 131.364384 
L 62.197909 130.701387 
L 62.333997 128.985417 
L 62.456626 130.891657 
L 62.695284 128.431476 
L 62.852911 130.742964 
L 62.925868 131.142439 
L 63.056678 130.57984 
L 63.228567 126.381917 
L 63.280531 126.575504 
L 63.365046 127.885958 
L 63.527036 125.980257 
L 63.623048 126.011946 
L 63.779487 128.645618 
L 63.881377 128.603315 
L 63.985062 127.420174 
L 64.104261 126.444245 
L 64.293443 127.68392 
L 64.384276 127.067842 
L 64.43079 127.406742 
L 64.500395 128.870829 
L 64.564881 128.20532 
L 64.668097 127.983039 
L 64.908602 129.158414 
L 64.977654 129.081063 
L 65.131639 128.398718 
L 65.200615 128.507688 
L 65.354852 129.185236 
L 65.424429 129.516611 
L 65.475639 129.113792 
L 65.629586 129.756795 
L 65.69859 129.615556 
L 65.786306 129.514798 
L 65.921414 128.199781 
L 66.059668 129.390861 
L 66.197282 127.925619 
L 66.334708 125.595144 
L 66.421224 125.846562 
L 66.611232 127.738381 
L 66.76472 126.557936 
L 66.901831 129.803561 
L 67.021225 130.325418 
L 67.038245 130.990391 
L 67.125929 130.253714 
L 67.27235 129.975851 
L 67.272637 130.309604 
L 67.356799 128.911815 
L 67.682351 131.783322 
L 67.852737 134.186667 
L 67.921565 134.126531 
L 68.17856 132.495291 
L 68.539378 125.775119 
L 68.607707 126.328337 
L 68.74681 126.745037 
L 68.883407 126.242873 
L 69.314596 130.3222 
L 69.449741 130.471875 
L 69.539229 131.469684 
L 69.604415 131.16895 
L 69.741555 132.524557 
L 69.811009 132.490275 
L 70.069888 128.881585 
L 70.188371 129.725678 
L 70.377677 128.452975 
L 70.514808 127.847511 
L 70.619174 130.466028 
L 70.89336 128.45237 
L 70.944241 128.979917 
L 71.100143 129.481456 
L 71.169398 130.020776 
L 71.27073 128.989259 
L 71.340118 129.17253 
L 71.39113 129.989311 
L 71.4633 129.717813 
L 71.526354 128.971363 
L 71.656407 131.615626 
L 71.814428 130.214048 
L 72.049126 127.193051 
L 72.151687 128.17335 
L 72.237876 128.031169 
L 72.378811 123.731115 
L 72.444756 124.569378 
L 72.51382 125.68498 
L 72.583583 125.645494 
L 72.655906 124.690022 
L 72.722383 125.461118 
L 72.944109 123.74953 
L 73.13319 123.776669 
L 73.150059 126.469823 
L 73.219557 124.756374 
L 73.339799 125.969528 
L 73.442745 128.193719 
L 73.51116 128.237306 
L 73.641938 128.460075 
L 73.718468 130.910179 
L 73.785348 129.587111 
L 73.802397 129.754807 
L 73.913373 130.503418 
L 73.944711 131.799142 
L 74.078075 129.969704 
L 74.148013 128.910568 
L 74.288476 128.97504 
L 74.353038 129.136345 
L 74.577475 126.357926 
L 74.784679 125.760956 
L 74.939923 126.76415 
L 75.028096 126.558438 
L 75.06669 125.904502 
L 75.163492 126.665076 
L 75.215224 127.988217 
L 75.344646 127.605558 
L 75.489664 125.810052 
L 75.61843 126.479784 
L 75.655809 126.318287 
L 76.006118 122.533584 
L 76.422612 128.458861 
L 76.507503 128.52727 
L 76.576302 128.80622 
L 76.631622 129.550174 
L 76.7133 129.527897 
L 76.85091 131.130242 
L 76.919314 130.823624 
L 77.130506 129.100035 
L 77.143943 131.148359 
L 77.212925 129.348908 
L 77.265255 129.264601 
L 77.369067 128.611029 
L 77.41955 129.589157 
L 77.506693 128.875206 
L 77.574522 127.353977 
L 77.629199 127.560844 
L 77.713747 129.430463 
L 77.728376 128.248302 
L 77.849173 127.223241 
L 78.056973 129.544389 
L 78.229201 127.743216 
L 78.351262 128.903736 
L 78.400451 127.607638 
L 78.556306 128.547339 
L 78.641789 127.553772 
L 78.7141 127.744141 
L 78.762406 127.818433 
L 78.90024 129.27717 
L 79.024026 129.171162 
L 79.040923 128.939168 
L 79.129486 129.775011 
L 79.195858 129.659775 
L 79.26639 129.310985 
L 79.469907 130.888654 
L 79.899954 127.754246 
L 79.97281 127.945644 
L 80.037557 128.463605 
L 80.123544 128.268157 
L 80.260101 126.823867 
L 80.335065 127.455618 
L 80.543429 130.130829 
L 80.677947 130.844154 
L 80.812472 128.392964 
L 80.88104 128.542477 
L 80.983764 130.253992 
L 81.035567 129.917501 
L 81.189576 131.615469 
L 81.74878 126.017708 
L 81.870087 125.296599 
L 81.912743 125.450713 
L 82.307811 129.359673 
L 82.549071 130.054417 
L 82.687184 128.114773 
L 82.806602 128.765691 
L 83.029572 127.554339 
L 83.132753 127.748409 
L 83.183962 127.369706 
L 83.253868 127.522545 
L 83.304758 128.200396 
L 83.460063 126.895514 
L 83.537964 127.318803 
L 83.634476 127.911582 
L 83.701483 127.744619 
L 83.890861 126.663594 
L 83.945224 125.368769 
L 84.011853 125.599308 
L 84.183846 126.650938 
L 84.334322 125.626786 
L 84.450018 128.353765 
L 84.541207 127.438224 
L 84.615284 127.371717 
L 84.770118 129.409772 
L 84.809091 128.312524 
L 85.010173 130.226276 
L 85.147941 130.277753 
L 85.201407 129.657966 
L 85.291634 130.661853 
L 85.443342 130.34003 
L 85.512956 131.136711 
L 85.580141 130.202921 
L 85.6487 130.352023 
L 85.718255 130.664915 
L 85.788913 129.865043 
L 85.873831 129.663316 
L 85.947378 128.320528 
L 86.010081 129.545903 
L 86.0781 129.198865 
L 86.36414 127.474307 
L 86.507354 127.751939 
L 86.577572 127.371623 
L 86.644267 128.686364 
L 86.7176 128.429919 
L 86.78416 127.91054 
L 87.210668 130.75602 
L 87.281601 130.80763 
L 87.434511 128.103768 
L 87.641047 130.100656 
L 87.7785 129.267577 
L 87.846886 129.420577 
L 88.002396 128.820251 
L 88.140297 130.021453 
L 88.208124 129.829738 
L 88.348024 127.989337 
L 88.500426 129.756855 
L 88.775164 130.764911 
L 88.852316 131.510712 
L 89.154822 128.295303 
L 89.204579 128.800606 
L 89.276399 130.03184 
L 89.427663 128.301336 
L 89.480503 129.012707 
L 89.556002 128.147949 
L 89.703132 130.054277 
L 89.771904 129.953615 
L 89.842583 130.120144 
L 89.978916 128.206028 
L 90.048211 128.410601 
L 90.134647 129.384119 
L 90.190294 129.163764 
L 90.272847 128.867313 
L 90.339978 127.859156 
L 90.409977 128.402079 
L 90.489432 128.282177 
L 90.495064 129.387787 
L 90.547372 129.324004 
L 90.702385 130.742523 
L 90.909121 128.994294 
L 90.96072 129.483799 
L 90.978429 129.266481 
L 91.048297 129.196721 
L 91.209324 128.133575 
L 91.288808 128.736637 
L 91.33998 128.70273 
L 91.40919 128.06413 
L 91.546233 129.617462 
L 91.614691 128.399086 
L 91.683888 128.953871 
L 91.753267 129.609615 
L 91.859504 128.517546 
L 91.910561 128.899957 
L 91.981625 128.548764 
L 92.06596 126.456927 
L 92.116895 126.925579 
L 92.237365 127.018814 
L 92.323235 129.270076 
L 92.478257 129.173566 
L 92.546939 128.732531 
L 92.564235 129.343706 
L 92.771823 128.88484 
L 92.840308 129.376107 
L 92.857882 130.428719 
L 92.910278 129.818622 
L 93.235263 126.200146 
L 93.252887 126.555754 
L 93.322296 126.811498 
L 93.408686 126.69566 
L 93.460541 127.65089 
L 93.476107 126.513463 
L 93.545602 126.436499 
L 93.700582 125.498479 
L 93.838221 127.715705 
L 93.88806 128.957227 
L 93.957536 128.499754 
L 94.130082 129.45055 
L 94.19886 128.890506 
L 94.215066 130.201258 
L 94.285658 129.247879 
L 94.370323 130.434984 
L 94.421532 129.617513 
L 94.507762 129.813171 
L 94.594889 128.748535 
L 94.697064 129.293127 
L 94.766568 128.37748 
L 94.817481 129.882119 
L 95.174335 127.324979 
L 95.228951 127.6873 
L 95.263628 127.907223 
L 95.383512 127.665671 
L 95.426368 127.809458 
L 95.555345 125.681368 
L 95.625374 127.175341 
L 95.744816 126.599972 
L 95.764787 125.835315 
L 95.813615 127.715014 
L 95.88237 127.251867 
L 95.95314 127.330216 
L 96.078412 127.529926 
L 96.097344 126.881443 
L 96.161559 127.918679 
L 96.313858 126.695223 
L 96.456919 127.969482 
L 96.520778 127.223619 
L 96.58985 127.652164 
L 96.862924 128.888926 
L 97.037992 130.457962 
L 97.105556 129.428315 
L 97.157945 129.633598 
L 97.241955 130.630971 
L 97.294248 129.958495 
L 97.433198 129.539725 
L 97.466164 128.723623 
L 97.539539 129.584612 
L 97.584953 129.035004 
L 97.653717 129.805874 
L 97.75697 129.663336 
L 97.829635 129.342025 
L 97.884365 129.393856 
L 98.014434 127.807539 
L 98.085014 128.564678 
L 98.151988 128.495248 
L 98.191016 128.466237 
L 98.309613 127.835271 
L 98.377731 128.236266 
L 98.448173 127.232749 
L 98.618698 128.640281 
L 98.704659 129.107438 
L 98.722173 128.746886 
L 99.134479 124.808019 
L 99.170935 126.190071 
L 99.254661 125.743706 
L 99.307526 124.709841 
L 99.460571 125.764208 
L 99.718066 127.110661 
L 99.856245 126.873786 
L 100.010043 128.03948 
L 100.091663 127.58401 
L 100.148872 127.525326 
L 100.216422 127.644435 
L 100.474006 129.87313 
L 100.57722 128.918512 
L 100.941175 130.286896 
L 101.111601 129.399368 
L 101.145445 129.672793 
L 101.214361 129.355597 
L 101.285639 129.319451 
L 101.36099 129.682087 
L 101.421474 129.527716 
L 101.541702 129.020048 
L 101.918929 130.73859 
L 102.49368 125.626185 
L 102.6931 125.550283 
L 102.848262 128.384751 
L 102.994358 127.061332 
L 103.127739 128.711907 
L 103.192126 128.637978 
L 103.346115 129.195198 
L 103.484337 127.655991 
L 103.621193 128.589961 
L 104.050009 126.014976 
L 104.18825 126.58988 
L 104.257206 125.837722 
L 104.357164 125.892304 
L 104.6171 128.610428 
L 104.825781 127.544791 
L 105.046693 128.737206 
L 105.120705 129.057408 
L 105.185323 128.865542 
L 105.253269 127.597303 
L 105.324456 127.611923 
L 105.552988 129.19715 
L 105.684355 128.739836 
L 105.755715 128.813194 
L 105.821521 128.87598 
L 105.908367 127.685368 
L 105.961078 128.314104 
L 106.029367 129.853414 
L 106.045687 127.765682 
L 106.116697 127.345725 
L 106.272114 128.278642 
L 106.321428 127.627252 
L 106.389914 127.995012 
L 106.458827 128.364287 
L 106.533712 127.388925 
L 106.613184 128.144873 
L 106.687305 127.292643 
L 106.857942 128.593345 
L 106.970433 125.804792 
L 107.047203 126.512744 
L 107.167173 125.190989 
L 107.235955 125.518398 
L 107.372413 125.215832 
L 107.406509 126.195726 
L 107.468579 126.123134 
L 107.527287 126.30378 
L 107.732813 128.996004 
L 107.767283 128.298328 
L 107.855971 128.052925 
L 107.957686 129.422094 
L 108.187476 128.626127 
L 108.318295 126.973704 
L 108.386647 127.015291 
L 108.455206 126.216555 
L 108.643535 127.75322 
L 108.682199 127.358489 
L 108.799256 128.658816 
L 108.885198 129.160276 
L 108.954543 130.677532 
L 109.092202 129.920083 
L 109.179094 131.196512 
L 109.298898 130.454503 
L 109.435915 128.677271 
L 109.867578 125.609979 
L 110.090046 126.622066 
L 110.157785 126.518606 
L 110.226807 126.348649 
L 110.295073 126.468542 
L 110.398215 126.755585 
L 110.622417 128.899163 
L 110.725856 127.598524 
L 110.86298 129.944541 
L 110.950027 129.911808 
L 111.172317 128.095434 
L 111.278433 127.221211 
L 111.309445 125.250716 
L 111.326516 126.58499 
L 111.412778 127.543219 
L 111.435649 129.109779 
L 111.584455 126.794387 
L 111.656288 126.889322 
L 111.996801 131.834556 
L 112.081918 131.551635 
L 112.150287 130.583047 
L 112.236352 130.673506 
L 112.305086 130.479977 
L 112.391304 130.853645 
L 112.461133 130.785604 
L 112.789938 127.464906 
L 112.891156 127.615433 
L 112.925119 126.868113 
L 113.080329 127.61719 
L 113.234374 126.482488 
L 113.458279 128.060711 
L 113.494465 127.670732 
L 113.647154 129.465399 
L 113.715641 129.200742 
L 113.854636 128.69508 
L 113.919549 128.841982 
L 113.932745 129.309819 
L 113.995132 128.979232 
L 114.034062 128.948275 
L 114.088153 128.690349 
L 114.230471 131.245309 
L 114.350481 129.604056 
L 114.45259 131.231901 
L 114.504426 130.80827 
L 114.642528 129.96947 
L 114.693619 130.286436 
L 114.731648 130.366278 
L 114.858322 128.118219 
L 114.934456 126.850162 
L 115.004025 126.880046 
L 115.089574 127.577575 
L 115.195989 127.088228 
L 115.281941 127.222733 
L 115.348324 126.1638 
L 115.50274 127.367405 
L 115.558859 127.036221 
L 115.778521 125.89854 
L 115.938615 127.416131 
L 116.176552 126.192203 
L 116.347432 126.854399 
L 116.491793 127.40152 
L 116.76082 124.360516 
L 116.917128 123.944163 
L 116.985779 124.558111 
L 117.053761 124.389921 
L 117.122518 124.496933 
L 117.639901 127.073842 
L 117.719768 126.796251 
L 117.89907 126.153717 
L 117.98461 126.279067 
L 118.296239 130.384226 
L 118.330067 129.532227 
L 118.398575 129.726109 
L 118.485102 130.665777 
L 118.552852 129.750406 
L 118.606864 130.759932 
L 118.725221 130.764118 
L 118.966214 126.531475 
L 119.034523 128.403342 
L 119.107194 127.826918 
L 119.19064 126.979565 
L 119.25856 127.866344 
L 119.327587 127.552123 
L 119.402978 127.487408 
L 119.47242 127.949622 
L 119.602149 127.746698 
L 119.636212 127.830319 
L 119.687815 129.26009 
L 119.775116 127.977573 
L 119.828103 128.292114 
L 120.052253 129.888561 
L 120.103144 129.678905 
L 120.21013 129.800566 
L 120.326508 130.913725 
L 120.446361 130.720119 
L 120.55014 132.288793 
L 120.738252 129.560921 
L 120.807077 130.338403 
L 120.892999 129.27853 
L 120.978369 129.482678 
L 121.068375 130.053376 
L 121.235308 127.324714 
L 121.376136 128.240856 
L 121.459389 128.413002 
L 121.541034 127.736753 
L 121.596672 128.45572 
L 121.751019 126.677934 
L 121.82024 126.818389 
L 121.906768 126.775305 
L 122.318035 129.701888 
L 122.407938 129.779976 
L 122.553374 132.423646 
L 122.645942 132.607677 
L 122.782123 130.405554 
L 122.816993 131.308761 
L 122.885745 130.849178 
L 122.971757 130.857167 
L 123.040159 131.09885 
L 123.108542 130.415497 
L 123.246103 127.851838 
L 123.301153 127.676566 
L 123.505972 128.411881 
L 123.591424 126.917167 
L 123.60689 127.30597 
L 123.727708 125.648788 
L 123.865834 126.904664 
L 124.091459 125.845181 
L 124.157602 125.943223 
L 124.227835 125.799378 
L 124.3095 126.077726 
L 124.377646 126.939297 
L 124.463956 126.852802 
L 124.501372 126.507712 
L 124.738491 129.321147 
L 124.859707 128.734519 
L 124.929784 129.746293 
L 124.943818 129.67469 
L 125.046437 129.541207 
L 125.307114 126.92357 
L 125.511072 127.394685 
L 125.665682 126.769465 
L 125.723079 127.433782 
L 125.787459 126.842672 
L 125.997964 128.407448 
L 126.224498 126.807507 
L 126.237543 126.815875 
L 126.307292 127.683479 
L 126.424629 126.044394 
L 126.636947 127.235203 
L 126.752453 128.15668 
L 126.820154 127.878741 
L 126.957613 128.379873 
L 127.026677 128.84243 
L 127.202493 132.331523 
L 127.423115 129.336646 
L 127.646077 131.269735 
L 127.940137 128.917065 
L 127.990669 129.593622 
L 128.130817 130.470672 
L 128.386532 128.470461 
L 128.402912 129.261199 
L 128.421174 128.46798 
L 128.627384 127.260611 
L 128.747558 127.649391 
L 128.801808 127.06371 
L 128.852264 127.34385 
L 129.024523 129.152129 
L 129.069246 128.654748 
L 129.12675 128.515378 
L 129.297981 129.064169 
L 129.486347 131.042037 
L 129.693137 129.251846 
L 129.761564 129.102042 
L 129.847505 128.497741 
L 129.935642 128.993573 
L 129.984852 128.971421 
L 130.193125 126.741575 
L 130.260233 127.297405 
L 130.331684 127.104365 
L 130.552123 128.158896 
L 130.689437 127.299252 
L 130.861177 128.272473 
L 131.072795 130.238626 
L 131.2604 128.996629 
L 131.325983 129.203113 
L 131.397921 129.144761 
L 131.545014 128.336449 
L 131.686961 127.129657 
L 131.873049 126.479079 
L 131.891029 127.346197 
L 131.970063 126.277331 
L 132.062394 126.244624 
L 132.183037 127.394386 
L 132.252967 126.031778 
L 132.337247 126.768551 
L 132.534342 124.637195 
L 132.629522 124.554625 
L 132.777066 126.57941 
L 132.846558 125.644163 
L 132.880388 126.159886 
L 132.968219 127.601968 
L 133.051704 126.363525 
L 133.121388 126.563422 
L 133.257402 128.199933 
L 133.379581 127.352852 
L 133.533881 129.398589 
L 133.550475 128.808648 
L 133.604311 128.669782 
L 133.673796 128.949783 
L 133.812913 130.632388 
L 133.912337 129.557402 
L 134.020125 131.147112 
L 134.291719 127.325174 
L 134.413559 128.477589 
L 134.515684 128.396626 
L 134.601372 130.017702 
L 134.670446 129.208151 
L 134.807596 127.842058 
L 134.876537 127.788718 
L 135.014548 128.625272 
L 135.279685 128.0382 
L 135.375348 128.289789 
L 135.529752 132.080267 
L 135.667692 131.811092 
L 135.756284 130.575391 
L 135.861974 130.949231 
L 135.942811 129.903316 
L 136.011365 129.410915 
L 136.254219 125.783608 
L 136.509766 127.381933 
L 136.648582 127.811764 
L 136.814982 126.856916 
L 137.042826 128.797815 
L 137.180614 127.349955 
L 137.265646 127.481116 
L 137.300349 128.127264 
L 137.37771 127.884805 
L 137.438107 127.914463 
L 137.579788 129.788697 
L 137.677104 129.439832 
L 137.713653 128.497251 
L 137.867883 130.445478 
L 137.937296 130.127826 
L 138.00547 129.142105 
L 138.143918 130.1215 
L 138.290693 128.310418 
L 138.447228 131.340958 
L 138.530019 130.65964 
L 138.668364 129.094288 
L 138.924949 131.198491 
L 138.995453 131.05927 
L 139.148365 127.499943 
L 139.355609 128.530505 
L 139.424498 128.593794 
L 139.647353 127.127631 
L 139.854477 128.882771 
L 139.926597 128.723735 
L 140.025522 128.804567 
L 140.146255 129.603622 
L 140.215459 129.001553 
L 140.302018 130.385738 
L 140.351974 129.676311 
L 140.695172 127.564891 
L 140.80108 127.388282 
L 140.867334 126.39367 
L 140.918631 127.097772 
L 141.021486 125.977432 
L 141.143658 126.881257 
L 141.211856 127.770365 
L 141.301359 127.594865 
L 141.334126 127.597507 
L 141.417501 127.984339 
L 141.488311 127.555674 
L 141.641238 128.22412 
L 141.762793 127.257877 
L 141.847362 127.254218 
L 141.916384 127.106264 
L 141.984148 127.344591 
L 142.123033 126.21326 
L 142.208227 126.257203 
L 142.345159 125.560421 
L 142.413252 126.712894 
L 142.537102 126.918407 
L 142.63663 125.655692 
L 142.792517 127.162318 
L 142.841638 128.895278 
L 142.910413 128.2757 
L 142.979819 127.964957 
L 143.047871 128.387948 
L 143.120301 127.775213 
L 143.133283 129.631926 
L 143.202231 128.37663 
L 143.425633 128.795135 
L 143.802203 126.187987 
L 143.838251 126.50685 
L 143.975541 126.293277 
L 144.02978 127.144655 
L 144.078808 127.06783 
L 144.130278 125.989334 
L 144.334339 128.234246 
L 144.532542 129.926718 
L 144.960985 126.398584 
L 145.029389 126.779382 
L 145.272694 125.081447 
L 145.373232 125.137613 
L 145.392732 125.072311 
L 145.47686 124.682506 
L 145.544557 125.173026 
L 145.613405 124.49424 
L 145.893187 126.970126 
L 145.961211 127.095455 
L 146.237386 130.294661 
L 146.390223 129.621014 
L 146.562891 128.904398 
L 146.699502 129.266601 
L 146.734992 130.108711 
L 146.804456 129.476521 
L 147.095079 130.26942 
L 147.301206 129.513219 
L 147.455982 127.61771 
L 147.525194 128.002095 
L 147.594277 127.879387 
L 147.663043 126.452452 
L 147.733351 126.928518 
L 147.869443 127.134481 
L 147.94037 127.965514 
L 148.023448 127.156266 
L 148.091692 128.181882 
L 148.23045 126.784928 
L 148.37327 128.590113 
L 148.438123 128.187979 
L 148.454402 129.626605 
L 148.509839 128.147863 
L 148.592289 128.115538 
L 148.679648 127.709706 
L 148.875504 129.526476 
L 149.087682 128.991494 
L 149.160417 129.711588 
L 149.229918 129.695623 
L 149.299527 129.404328 
L 149.36935 129.451388 
L 149.503771 130.88824 
L 149.573265 129.479056 
L 149.64382 129.955227 
L 149.86599 128.903238 
L 150.000997 130.018602 
L 150.07495 129.543288 
L 150.14081 129.542381 
L 150.212103 129.033064 
L 150.362582 129.987657 
L 150.516229 129.420095 
L 150.585881 129.371035 
L 150.688687 129.521887 
L 150.814728 130.192633 
L 150.921321 129.093532 
L 151.072766 128.095193 
L 151.235325 129.072026 
L 151.369935 128.056151 
L 151.420054 127.953178 
L 151.486178 128.17896 
L 151.569476 127.919588 
L 151.793418 126.496756 
L 152.154181 123.699801 
L 152.342987 124.040735 
L 152.498873 127.342136 
L 152.842614 130.429212 
L 152.927274 130.119356 
L 152.979308 130.83829 
L 153.202547 129.516516 
L 153.356585 129.516573 
L 153.425103 129.409268 
L 153.493757 128.846012 
L 153.854062 130.551854 
L 153.923109 129.994095 
L 154.043008 130.38425 
L 154.112888 130.349356 
L 154.26684 129.029301 
L 154.407057 129.475188 
L 154.42179 128.341282 
L 154.490507 128.928911 
L 154.57551 128.962109 
L 154.628783 129.315826 
L 154.765444 128.897403 
L 154.839239 129.547155 
L 154.902674 129.429514 
L 155.019376 129.38499 
L 155.142746 127.851539 
L 155.280188 125.873241 
L 155.349224 126.500632 
L 155.41754 126.606073 
L 155.624347 125.861926 
L 155.78471 127.789295 
L 155.830542 129.051159 
L 155.917055 128.886597 
L 155.974028 129.315553 
L 156.054567 129.085849 
L 156.28283 127.21261 
L 156.419915 127.517497 
L 156.523898 127.31992 
L 156.540261 126.698585 
L 156.683178 128.090892 
L 156.76861 127.347199 
L 156.854917 127.371979 
L 157.044804 129.762707 
L 157.45523 126.966805 
L 157.576556 128.936183 
L 157.611635 128.879194 
L 157.679308 128.117768 
L 157.747929 128.555575 
L 157.833437 128.501542 
L 157.974949 128.924611 
L 158.040736 128.521574 
L 158.109465 129.280102 
L 158.199358 127.852257 
L 158.400141 129.013596 
L 158.46718 127.57302 
L 158.533286 127.57778 
L 158.687729 127.79133 
L 158.89707 128.950591 
L 159.031674 128.041259 
L 159.134255 128.071001 
L 159.254616 129.450035 
L 159.563356 127.528653 
L 159.6661 126.66793 
L 159.737116 126.170978 
L 159.821655 126.83318 
L 159.890527 126.678431 
L 160.167485 128.018771 
L 160.268683 127.727129 
L 160.45729 129.760478 
L 160.528183 129.427287 
L 160.595198 130.000786 
L 160.732682 128.263426 
L 160.816257 129.066468 
L 160.925658 128.711783 
L 161.008719 130.09463 
L 161.028478 129.095559 
L 161.144406 129.814519 
L 161.318687 127.360691 
L 161.369168 128.352531 
L 161.437565 128.140317 
L 161.660841 126.589688 
L 161.731684 126.895612 
L 161.836622 126.709249 
L 161.95378 128.701174 
L 162.144059 127.995208 
L 162.159166 129.221138 
L 162.418792 129.990858 
L 162.489258 129.614254 
L 162.659975 125.444926 
L 162.864546 126.251201 
L 162.986379 125.693508 
L 163.018397 126.470011 
L 163.070264 126.43016 
L 163.224893 127.957242 
L 163.43108 129.881082 
L 163.571414 129.391588 
L 163.643641 129.421666 
L 163.791986 129.944099 
L 163.860841 129.505256 
L 163.929311 129.850938 
L 164.153224 128.105539 
L 164.207363 128.868561 
L 164.428822 127.566407 
L 164.567692 127.637052 
L 164.634799 127.119549 
L 164.773514 128.962751 
L 165.063994 131.037783 
L 165.136402 131.042729 
L 165.206004 130.895522 
L 165.349853 131.265947 
L 165.425332 130.382874 
L 165.501941 130.597643 
L 165.770768 128.845042 
L 165.891216 128.852831 
L 166.010977 129.487052 
L 166.064482 128.896315 
L 166.148792 129.043247 
L 166.423594 130.317697 
L 166.560828 128.97295 
L 166.699085 127.906732 
L 166.837082 129.200287 
L 166.858681 128.121818 
L 166.950417 129.248632 
L 167.018489 128.842385 
L 167.453557 131.21428 
L 167.487967 130.311025 
L 167.573286 130.426026 
L 167.643735 129.429041 
L 167.73142 129.674873 
L 167.831725 130.240578 
L 167.970159 131.193702 
L 168.295794 128.050535 
L 168.417203 127.468336 
L 168.707361 124.33009 
L 168.83505 125.047732 
L 168.968985 125.549283 
L 169.036622 124.445669 
L 169.136744 124.97071 
L 169.326949 126.426185 
L 169.477961 126.534784 
L 169.483724 126.276416 
L 169.551107 126.303611 
L 169.619768 126.210963 
L 169.781834 127.824723 
L 169.846463 127.95904 
L 169.929543 126.676511 
L 170.050079 126.680693 
L 170.101528 126.144854 
L 170.137581 126.283152 
L 170.342679 127.668887 
L 170.533605 125.88734 
L 170.755849 126.753969 
L 170.893034 126.78299 
L 171.031555 124.819031 
L 171.184887 125.942361 
L 171.28875 126.227625 
L 171.410118 124.432069 
L 171.585119 125.438332 
L 171.614599 125.204848 
L 171.822466 123.830483 
L 172.095799 126.699709 
L 172.164565 127.053682 
L 172.319522 125.891543 
L 172.527651 127.914954 
L 172.54196 127.438272 
L 172.645328 127.383676 
L 173.075362 130.290481 
L 173.213016 131.279406 
L 173.250327 130.601204 
L 173.31619 130.651194 
L 173.384135 130.683859 
L 173.470081 131.364536 
L 173.589762 129.828846 
L 173.65879 129.735256 
L 173.734818 129.907137 
L 173.799225 129.806933 
L 173.875358 129.844945 
L 174.013619 130.147527 
L 174.026168 129.115151 
L 174.094108 129.988228 
L 174.165969 129.216429 
L 174.303581 131.255091 
L 174.416167 130.7446 
L 174.577733 130.631951 
L 174.59623 130.417681 
L 174.76739 131.556353 
L 174.923256 131.077098 
L 174.941979 131.59598 
L 175.030281 131.240712 
L 175.082183 131.967702 
L 175.149364 131.431645 
L 175.216385 131.618992 
L 175.363187 130.948088 
L 175.464578 132.072592 
L 175.591498 130.818047 
L 175.809856 126.44526 
L 176.018235 127.926529 
L 176.151678 126.954822 
L 176.220328 127.050201 
L 176.293314 127.702344 
L 176.512271 131.041019 
L 176.581764 129.820743 
L 176.821936 132.408403 
L 176.993027 132.303221 
L 177.05027 131.073117 
L 177.149473 131.194947 
L 177.285198 131.717392 
L 177.49208 128.683521 
L 177.57751 128.848578 
L 177.645744 128.934421 
L 177.714462 131.089615 
L 177.786444 130.081556 
L 177.851697 130.540367 
L 177.925222 129.912415 
L 178.13265 131.226841 
L 178.422584 127.50602 
L 178.454642 127.900941 
L 178.490752 127.84881 
L 178.560556 127.256825 
L 178.629915 127.770616 
L 178.698564 127.535984 
L 178.851726 126.696222 
L 178.9213 127.283633 
L 178.990184 126.729097 
L 179.05875 127.019652 
L 179.155759 127.120628 
L 179.272472 128.245749 
L 179.556265 126.006666 
L 179.710853 128.535381 
L 179.766356 128.213829 
L 179.848996 128.147755 
L 179.94112 127.127437 
L 179.985568 127.351817 
L 180.417025 129.785281 
L 180.484142 129.04861 
L 180.621207 130.336698 
L 180.759117 130.156706 
L 180.861676 129.062165 
L 180.913216 130.117095 
L 180.969101 129.821921 
L 181.034529 129.169391 
L 181.188995 130.187882 
L 181.273224 129.987267 
L 181.395287 128.998183 
L 181.628828 129.276319 
L 181.691588 128.845653 
L 181.77175 129.312838 
L 181.960851 127.898723 
L 182.185206 129.646907 
L 182.288661 129.246441 
L 182.340039 129.551096 
L 182.753077 127.879579 
L 182.838902 127.642706 
L 183.383009 130.195022 
L 183.545156 128.96559 
L 183.62204 129.685537 
L 183.681707 129.389564 
L 183.957496 130.419455 
L 184.093493 130.226428 
L 184.179143 129.46904 
L 184.38315 131.103208 
L 184.589876 130.054318 
L 184.692665 131.025074 
L 184.743631 130.102649 
L 184.934238 131.395727 
L 184.970903 131.207075 
L 185.036803 129.886156 
L 185.190618 129.734016 
L 185.328561 128.42641 
L 185.534542 126.386933 
L 185.650635 126.954041 
L 185.676137 126.868286 
L 185.743689 126.770919 
L 185.819847 126.384901 
L 185.88404 127.07394 
L 186.000015 126.568387 
L 186.102908 127.795912 
L 186.088193 126.517271 
L 186.154466 127.531691 
L 186.518333 128.998469 
L 186.589377 128.929359 
L 186.66162 130.864527 
L 186.797276 130.504279 
L 187.089112 128.389577 
L 187.15644 128.346144 
L 187.225256 129.561889 
L 187.4307 127.448886 
L 187.499815 127.616951 
L 187.585381 129.772628 
L 187.707435 129.71695 
L 187.864482 131.981355 
L 187.946058 130.03681 
L 188.014863 130.175924 
L 188.152704 129.863368 
L 188.359277 128.000816 
L 188.410199 129.08691 
L 188.469126 128.90636 
L 188.624753 127.18176 
L 188.706561 127.854679 
L 188.763321 127.237228 
L 188.792231 128.220852 
L 188.878545 127.743727 
L 189.042685 128.247776 
L 189.15377 127.459406 
L 189.238937 127.979764 
L 189.45234 130.516328 
L 189.535901 130.190874 
L 189.600565 131.081826 
L 189.651664 130.711343 
L 189.721671 130.873276 
L 189.996455 129.608148 
L 190.302762 132.529191 
L 190.426383 132.976334 
L 190.563025 133.453164 
L 190.99626 128.069757 
L 191.139084 129.093294 
L 191.208655 128.284942 
L 191.284032 128.36356 
L 191.340029 128.179389 
L 191.422385 128.232195 
L 191.61125 128.521884 
L 191.783325 126.997643 
L 191.869981 127.20172 
L 192.006653 128.727732 
L 192.058375 128.5097 
L 192.143999 128.436877 
L 192.264646 131.040121 
L 192.350731 130.348817 
L 192.472257 130.639155 
L 192.540031 130.404303 
L 192.608702 131.368901 
L 192.780837 130.355164 
L 192.867834 130.535811 
L 192.987513 127.839599 
L 193.054635 128.926641 
L 193.123434 128.94243 
L 193.278359 127.589527 
L 193.415556 127.913698 
L 193.483743 128.270364 
L 193.606507 128.301956 
L 193.691225 127.614625 
L 193.742219 128.071461 
L 193.827457 127.488137 
L 193.999704 128.75938 
L 194.053257 128.445693 
L 194.121665 128.805867 
L 194.259401 127.608792 
L 194.360346 128.703717 
L 194.429013 128.040934 
L 194.497375 128.584082 
L 194.586234 127.656361 
L 194.635525 128.411328 
L 194.755172 128.024542 
L 194.909181 128.710195 
L 194.995115 129.003509 
L 195.050174 130.156523 
L 195.177926 130.42245 
L 195.357814 132.016719 
L 195.547862 130.72059 
L 195.702464 130.985277 
L 195.961152 127.123769 
L 196.036194 126.508086 
L 196.133447 127.140369 
L 196.184852 126.185479 
L 196.262298 126.375067 
L 196.323444 126.415323 
L 196.391525 126.242509 
L 196.668388 128.317775 
L 196.751485 128.264043 
L 196.974855 127.186335 
L 197.026479 127.45605 
L 197.100738 127.884207 
L 197.182307 127.53654 
L 197.273597 127.874377 
L 197.334537 127.488812 
L 197.386377 127.680154 
L 197.540521 127.023745 
L 197.695905 130.246479 
L 197.799471 130.269286 
L 197.818352 130.069088 
L 197.884046 130.175424 
L 198.021957 130.335928 
L 198.143772 130.285775 
L 198.248002 131.27254 
L 198.468487 129.241141 
L 198.615166 128.586295 
L 198.745416 129.392934 
L 198.677199 128.264577 
L 198.83157 129.312058 
L 198.951797 127.980997 
L 199.032668 128.295755 
L 199.105895 127.994628 
L 199.262557 128.903188 
L 199.317065 128.679564 
L 199.50321 126.769835 
L 199.520189 126.866613 
L 199.588114 128.157685 
L 199.708445 128.175329 
L 200.01954 125.622837 
L 200.154176 126.721409 
L 200.244044 126.815682 
L 200.584311 129.307066 
L 200.728808 131.903393 
L 200.825328 131.838786 
L 200.897963 131.939003 
L 201.082518 128.56802 
L 201.246831 128.862376 
L 201.443623 126.046687 
L 201.528909 126.487057 
L 201.580242 126.474137 
L 201.786273 128.451202 
L 201.872789 127.548706 
L 201.940806 127.92513 
L 201.997894 127.490659 
L 202.078745 127.582012 
L 202.147715 127.74822 
L 202.215817 128.600459 
L 202.304767 128.0472 
L 202.577441 128.973612 
L 202.800124 130.794705 
L 202.886802 130.976549 
L 202.938703 130.601134 
L 202.99348 131.10974 
L 203.074346 130.95416 
L 203.212131 132.055349 
L 203.333904 131.709086 
L 203.366679 130.172357 
L 203.435863 130.812841 
L 203.497294 131.522036 
L 203.641944 129.752957 
L 203.728028 130.510174 
L 203.779207 130.136098 
L 203.91604 128.605024 
L 204.06155 130.341969 
L 204.13985 129.937039 
L 204.208061 128.836871 
L 204.328175 129.270565 
L 204.484175 128.055369 
L 204.555036 129.643332 
L 204.793665 128.041144 
L 205.053067 130.738512 
L 205.136535 131.108042 
L 205.411593 128.790915 
L 205.497371 128.691799 
L 205.674266 129.870938 
L 205.772195 129.743701 
L 205.841767 128.52628 
L 206.115869 131.073121 
L 206.189872 131.5608 
L 206.409261 129.131421 
L 206.562979 130.38928 
L 206.633809 129.617749 
L 206.769794 130.220665 
L 206.888933 129.954937 
L 206.910142 129.57544 
L 206.992975 130.030478 
L 207.063283 130.683116 
L 207.182503 129.137923 
L 207.267566 129.903752 
L 207.336697 129.722096 
L 207.476336 129.048531 
L 207.54341 129.972442 
L 207.680082 129.595837 
L 207.784825 128.037204 
L 207.904206 128.101622 
L 208.077072 126.899716 
L 208.135238 127.172509 
L 208.337815 125.806461 
L 208.407154 126.584713 
L 208.491912 126.549933 
L 208.543091 126.580063 
L 208.695917 127.618669 
L 208.759046 128.332187 
L 208.835428 127.940682 
L 209.041938 129.164066 
L 209.12004 128.826641 
L 209.184214 129.268423 
L 209.253236 129.112215 
L 209.408817 128.280694 
L 209.46068 129.38742 
L 209.55327 129.21455 
L 209.683343 129.69942 
L 209.751126 129.859058 
L 209.871446 129.648506 
L 209.957165 130.627264 
L 210.043273 130.528492 
L 210.112035 130.133673 
L 210.165048 129.131212 
L 210.39313 130.973333 
L 210.462372 130.475438 
L 210.525022 130.675396 
L 210.611721 130.461963 
L 210.671205 129.56933 
L 210.939932 131.721825 
L 211.112114 128.696947 
L 211.163464 129.082983 
L 211.593345 126.406798 
L 211.68224 126.942244 
L 211.885659 128.414438 
L 212.026247 130.361433 
L 212.094357 130.349343 
L 212.317629 131.135182 
L 212.454652 129.954667 
L 212.523485 130.670743 
L 212.731029 127.935893 
L 212.907489 129.186034 
L 213.340374 126.924024 
L 213.353439 127.668383 
L 213.438627 127.660231 
L 213.510188 127.606523 
L 213.648287 126.013928 
L 213.715981 126.279983 
L 213.939436 125.013846 
L 214.008322 125.298191 
L 214.07702 125.531435 
L 214.197108 125.289721 
L 214.23102 124.652647 
L 214.436939 126.147227 
L 214.592989 125.397871 
L 214.643493 126.489192 
L 214.731085 126.209698 
L 214.798741 125.54036 
L 214.970957 126.113389 
L 215.008805 125.613063 
L 215.073679 125.623987 
L 215.141754 125.540883 
L 215.452454 129.341501 
L 215.563253 129.376781 
L 215.605926 129.191166 
L 215.851563 131.631142 
L 216.190085 129.978743 
L 216.521462 131.242222 
L 216.741358 129.035146 
L 216.777829 131.25289 
L 216.897976 131.167109 
L 216.920959 131.458071 
L 217.141454 129.308722 
L 217.276405 130.133367 
L 217.344153 129.893636 
L 217.414142 130.442006 
L 217.519562 129.877916 
L 217.646992 127.87872 
L 217.773437 128.860965 
L 217.84406 128.791015 
L 217.978833 127.111506 
L 218.063011 128.325626 
L 218.131825 128.0775 
L 218.20323 127.899508 
L 218.287231 129.050147 
L 218.40825 129.644986 
L 218.474902 129.431723 
L 218.562587 128.459875 
L 218.633131 128.422786 
L 218.698616 129.594992 
L 218.784114 129.02637 
L 218.922278 129.872791 
L 219.025201 129.398924 
L 219.265817 131.623918 
L 219.404431 131.743959 
L 219.649064 130.28519 
L 219.696208 130.061556 
L 219.764459 128.764065 
L 219.868305 128.918685 
L 219.973467 127.300193 
L 220.07421 128.133988 
L 220.162438 127.356415 
L 220.194225 127.933966 
L 220.297584 127.486735 
L 220.351377 126.629087 
L 220.403995 126.905996 
L 220.593405 125.861141 
L 220.610678 126.275386 
L 220.668169 127.106987 
L 220.698756 126.535604 
L 220.781797 126.425966 
L 220.833441 126.146641 
L 221.194102 127.934668 
L 221.263283 129.36655 
L 221.331721 128.969972 
L 221.402219 129.364488 
L 221.475711 127.897059 
L 221.538911 128.225442 
L 221.692331 127.863066 
L 221.898256 129.360596 
L 222.053013 129.892177 
L 222.106775 129.786148 
L 222.208947 131.454661 
L 222.421946 130.431015 
L 222.475426 129.427891 
L 222.549947 130.239742 
L 222.559509 129.915472 
L 222.800795 127.479451 
L 222.835046 128.189178 
L 222.90352 126.979243 
L 222.955572 127.847885 
L 223.02615 128.857213 
L 223.099233 128.34094 
L 223.178317 129.391962 
L 223.255648 129.027943 
L 223.315322 129.231873 
L 223.409253 130.024149 
L 223.453149 129.930767 
L 223.545113 130.192182 
L 223.661557 130.945355 
L 223.676526 130.654905 
L 223.744692 130.358012 
L 223.815875 130.60486 
L 224.02299 130.096785 
L 224.090603 130.588262 
L 224.226018 130.600516 
L 224.382879 128.447335 
L 224.520309 128.842889 
L 224.606156 128.372698 
L 224.663005 128.944674 
L 224.677812 128.883954 
L 224.797285 127.296301 
L 224.812232 128.008199 
L 224.925848 128.008908 
L 224.951366 127.328596 
L 225.123783 129.635368 
L 225.213666 128.713371 
L 225.245046 128.034365 
L 225.692671 130.033801 
L 225.742237 129.749763 
L 225.981897 130.708276 
L 226.033522 130.251312 
L 226.205554 131.30599 
L 226.239345 130.939114 
L 226.292929 130.85107 
L 226.361793 131.165339 
L 226.445921 132.598678 
L 226.840954 129.82728 
L 226.984945 128.427619 
L 227.150533 126.06881 
L 227.220338 126.649653 
L 227.78589 130.340168 
L 227.872727 130.335105 
L 228.049445 128.729631 
L 228.078536 129.87856 
L 228.164129 129.489285 
L 228.286682 127.627148 
L 228.576051 129.874547 
L 228.645617 129.563706 
L 228.731137 129.93613 
L 228.783785 129.808786 
L 228.850421 128.74409 
L 228.960858 129.814918 
L 229.065369 129.328055 
L 229.088614 128.380925 
L 229.146244 128.918204 
L 229.283811 127.95367 
L 229.354136 129.214814 
L 229.422681 129.12102 
L 229.492112 128.524797 
L 229.603184 129.703066 
L 229.634718 129.111747 
L 229.784185 129.315991 
L 229.852483 128.456765 
L 229.991733 129.181965 
L 230.060774 127.905926 
L 230.14612 128.611846 
L 230.334837 128.075484 
L 230.511736 129.102846 
L 230.595183 129.240755 
L 230.835757 127.608625 
L 230.919795 128.428808 
L 230.988046 128.31587 
L 231.073462 128.03059 
L 231.149551 128.403546 
L 231.195126 127.047461 
L 231.266621 127.482834 
L 231.350487 127.794296 
L 231.418604 127.381973 
L 231.50452 127.71571 
L 231.623535 129.251593 
L 232.213818 133.143426 
L 232.573531 129.284293 
L 232.657044 130.259574 
L 232.692001 130.087699 
L 232.966329 125.806658 
L 233.102971 127.063852 
L 233.154897 126.787232 
L 233.338573 125.491917 
L 233.481663 126.949471 
L 233.687499 129.89916 
L 233.756973 129.207424 
L 233.910785 130.879735 
L 233.99744 130.601555 
L 234.049924 131.789862 
L 234.102197 130.202154 
L 234.117943 130.936034 
L 234.25508 131.356394 
L 234.41509 130.516967 
L 234.550826 131.044906 
L 234.565706 129.706003 
L 234.620992 130.084935 
L 234.673351 130.823525 
L 234.754958 128.89503 
L 234.824222 129.552979 
L 235.005549 128.5915 
L 235.124006 129.638197 
L 235.17696 129.156382 
L 235.245404 129.252561 
L 235.313071 129.063893 
L 235.400909 128.293043 
L 235.467856 128.978242 
L 235.612816 128.665498 
L 235.679997 128.838831 
L 235.797471 127.803577 
L 235.880015 129.45278 
L 235.983414 129.538132 
L 236.156433 128.506725 
L 236.190867 128.400135 
L 236.24292 129.159763 
L 236.381921 128.096389 
L 236.499832 128.067561 
L 236.739931 125.743806 
L 236.809455 126.374011 
L 236.878067 127.557924 
L 236.949869 126.761612 
L 237.045601 127.475305 
L 237.170344 126.661694 
L 237.240807 127.017465 
L 237.449792 128.539484 
L 237.600502 126.884948 
L 237.879353 130.596753 
L 238.029938 129.539875 
L 238.236534 132.086847 
L 238.304623 131.713316 
L 238.515108 130.436128 
L 238.598973 130.543635 
L 238.66599 130.508449 
L 239.095676 127.988375 
L 239.111426 128.211158 
L 239.16397 128.827 
L 239.215094 128.762631 
L 239.456004 128.352271 
L 239.507328 128.483022 
L 239.57608 127.970414 
L 239.730401 128.43696 
L 239.800919 127.572012 
L 239.867056 127.598651 
L 240.09132 126.26249 
L 240.14253 126.457793 
L 240.267774 126.394017 
L 240.366861 127.122697 
L 240.622516 128.372566 
L 240.641685 128.108009 
L 240.710375 128.361277 
L 240.795279 129.751244 
L 240.863247 129.47559 
L 240.933662 129.291559 
L 241.074093 130.364166 
L 241.31394 129.469389 
L 241.451621 130.086961 
L 241.502751 129.092593 
L 241.727541 130.985128 
L 241.812641 129.963199 
L 241.849435 130.829016 
L 241.93426 131.121832 
L 242.620857 128.203353 
L 242.918845 130.018109 
L 242.98455 130.195365 
L 243.067763 129.524963 
L 243.136522 129.674643 
L 243.275294 130.463454 
L 243.344255 130.320918 
L 243.549017 129.15875 
L 243.65063 129.397789 
L 243.775837 130.212132 
L 243.890877 130.394247 
L 244.04526 127.275052 
L 244.113622 126.992806 
L 244.285314 129.347432 
L 244.337386 129.809095 
L 244.567056 128.693902 
L 244.766994 131.924771 
L 245.041096 130.239893 
L 245.112696 129.533654 
L 245.334198 130.567162 
L 245.711431 128.197094 
L 245.798625 129.082073 
L 245.831597 128.636183 
L 245.930372 127.897487 
L 245.97041 128.084594 
L 246.043506 128.413302 
L 246.188754 126.680012 
L 246.262337 128.339946 
L 246.330131 127.836517 
L 246.404832 128.108763 
L 246.465775 128.178149 
L 246.552225 129.510897 
L 246.604025 128.992391 
L 246.774894 127.427169 
L 246.930478 130.709881 
L 246.967021 128.69055 
L 247.153934 130.028076 
L 247.187247 129.352977 
L 247.256881 129.592693 
L 247.393638 130.698612 
L 247.46285 130.636645 
L 247.537009 130.604109 
L 247.602188 129.848657 
L 247.668299 130.098538 
L 247.75625 130.297263 
L 248.030271 128.062415 
L 248.098484 127.806516 
L 248.182987 128.338289 
L 248.38931 126.980925 
L 248.458213 126.225519 
L 248.601938 127.996453 
L 248.664783 127.824721 
L 248.753058 127.74121 
L 249.093637 128.867506 
L 249.300657 127.892694 
L 249.522667 128.966223 
L 249.661956 128.62831 
L 249.883996 129.561951 
L 249.954203 128.945396 
L 250.023463 129.267056 
L 250.159192 130.363492 
L 250.298416 128.724761 
L 250.366445 129.570357 
L 250.591991 128.317595 
L 250.72775 130.195487 
L 250.816535 129.343562 
L 250.899635 129.53394 
L 251.004357 131.028337 
L 251.088002 130.470946 
L 251.175073 131.036338 
L 251.226973 132.334496 
L 251.328972 132.018341 
L 251.436699 130.357279 
L 251.518704 130.775383 
L 251.7246 129.609796 
L 251.792884 130.460902 
L 251.873692 130.137394 
L 251.879904 127.798412 
L 251.947674 129.832307 
L 252.124372 128.961839 
L 252.189342 128.997288 
L 252.359487 128.713146 
L 252.445165 129.931064 
L 252.497658 129.618125 
L 252.652242 128.78876 
L 252.806685 129.668921 
L 252.928152 128.025102 
L 253.046659 128.371095 
L 253.286893 126.096904 
L 253.339783 126.989934 
L 253.373279 126.352509 
L 253.494505 125.85921 
L 253.664952 127.493736 
L 253.716857 127.115243 
L 253.857237 128.35459 
L 253.992798 128.192402 
L 254.063141 128.421311 
L 254.146444 129.475923 
L 254.284191 129.308201 
L 254.342028 130.138509 
L 254.374502 129.221498 
L 254.42255 129.57273 
L 254.543952 128.812952 
L 254.577244 128.870996 
L 254.652512 129.197883 
L 254.784543 128.02214 
L 254.876856 127.511943 
L 254.938189 128.420402 
L 255.02602 128.314381 
L 255.058606 128.503136 
L 255.711872 126.226143 
L 255.849597 128.077001 
L 255.93562 128.253157 
L 256.05562 130.62963 
L 256.278766 132.821613 
L 256.399762 132.719948 
L 256.55375 130.189031 
L 256.572129 130.369044 
L 256.639897 130.83949 
L 256.845589 128.733797 
L 256.914418 128.931666 
L 256.994085 128.68418 
L 257.068764 127.462446 
L 257.086934 127.718758 
L 257.208552 130.608788 
L 257.259788 130.179715 
L 257.344208 128.723695 
L 257.412861 129.306349 
L 257.636671 127.903805 
L 257.688493 128.413458 
L 257.997864 125.557595 
L 258.049116 127.03146 
L 258.117894 126.217049 
L 258.351277 129.657015 
L 258.432966 129.029365 
L 258.687187 130.744514 
L 258.773717 129.737547 
L 258.87583 130.557929 
L 258.978816 128.830785 
L 259.048177 127.397138 
L 259.136458 127.415219 
L 259.257189 126.404515 
L 259.324139 126.760961 
L 259.547326 125.569743 
L 259.753287 129.132155 
L 259.892485 129.660624 
L 260.132921 127.338126 
L 260.251958 128.63581 
L 260.457581 127.112484 
L 260.527235 127.928772 
L 260.594963 127.483252 
L 260.746733 127.485835 
L 260.953511 129.958633 
L 261.10707 128.649738 
L 261.382243 130.728617 
L 261.449568 132.188607 
L 261.518461 131.857206 
L 261.672618 131.279592 
L 261.741301 131.410661 
L 261.881355 132.079124 
L 262.157438 129.179108 
L 262.240556 129.149502 
L 262.376885 128.383846 
L 262.447466 129.070784 
L 262.514506 128.839948 
L 262.654504 127.310661 
L 262.738064 127.317668 
L 262.875833 127.864163 
L 263.083986 126.992431 
L 263.157536 127.128894 
L 263.259567 127.016993 
L 263.442391 128.91092 
L 263.511136 128.08737 
L 263.580042 128.434467 
L 263.8205 129.8787 
L 263.941144 129.659775 
L 264.045635 130.065775 
L 264.150504 128.221042 
L 264.23273 128.794008 
L 264.473763 126.450112 
L 264.524767 127.125729 
L 264.611664 127.133128 
L 264.662332 128.677961 
L 264.731179 128.588723 
L 264.8526 128.683312 
L 265.023655 128.450602 
L 265.17222 130.228374 
L 265.212569 130.093305 
L 265.306982 130.087937 
L 265.410752 129.168147 
L 265.530579 130.310684 
L 265.788071 132.445511 
L 265.856434 132.921928 
L 266.149364 129.22896 
L 266.217455 129.876676 
L 266.303025 129.672894 
L 266.354973 129.544115 
L 266.57778 127.792369 
L 266.887124 130.374105 
L 266.938658 129.498998 
L 267.024897 130.121329 
L 267.076603 130.110349 
L 267.145366 129.643697 
L 267.215 129.943845 
L 267.420014 129.505924 
L 267.57456 127.620565 
L 267.644174 128.431289 
L 267.848642 125.789903 
L 267.924764 126.466627 
L 267.994774 126.108308 
L 268.098357 127.004705 
L 268.134292 126.510337 
L 268.204916 126.952685 
L 268.27502 126.707972 
L 268.355177 126.017287 
L 268.561896 127.562344 
L 268.666383 127.243115 
L 268.73747 127.408742 
L 268.785874 126.683518 
L 268.837169 126.85657 
L 269.167362 129.53024 
L 269.198406 128.89383 
L 269.266817 130.216718 
L 269.422036 129.906392 
L 269.491774 130.551974 
L 269.560498 132.250908 
L 269.783894 131.222444 
L 269.842112 129.575491 
L 269.905591 130.646949 
L 269.973365 129.70044 
L 270.094083 130.236168 
L 270.294108 128.922447 
L 270.609683 130.153497 
L 270.626802 129.931794 
L 270.903177 132.309738 
L 270.97283 131.916544 
L 271.057511 132.151928 
L 271.255392 131.712875 
L 271.504249 129.966212 
L 271.55646 130.38974 
L 271.696516 128.698422 
L 271.762793 128.865246 
L 272.065478 131.338799 
L 272.265507 130.345782 
L 272.403362 130.495435 
L 272.555417 129.136776 
L 272.675613 128.811302 
L 272.74934 127.865096 
L 272.848461 128.042009 
L 272.898995 127.961563 
L 272.985828 128.524994 
L 273.12273 128.123441 
L 273.175879 128.928185 
L 273.29723 128.648816 
L 273.33055 128.809252 
L 273.420181 128.977766 
L 273.604022 130.541272 
L 273.676822 130.511808 
L 273.758728 130.289981 
L 273.968 131.250489 
L 274.051352 131.130868 
L 274.154129 131.394888 
L 274.240109 129.553727 
L 274.312484 130.263363 
L 274.37904 129.621627 
L 274.463646 131.027911 
L 274.621987 129.19737 
L 274.671405 129.306387 
L 274.825654 127.124632 
L 274.876736 127.583448 
L 274.979935 127.823965 
L 275.04834 126.640865 
L 275.103433 127.178038 
L 275.187238 127.321802 
L 275.260038 128.69663 
L 275.443673 127.231239 
L 275.61498 129.455835 
L 275.909529 130.784601 
L 275.998506 129.17024 
L 276.079576 129.592762 
L 276.182132 129.34647 
L 276.233366 130.041781 
L 276.303059 129.012349 
L 276.39631 129.23136 
L 276.445715 129.643678 
L 276.513391 128.720647 
L 276.870601 131.200267 
L 276.955824 129.758371 
L 277.095883 130.554948 
L 277.162179 129.522174 
L 277.230584 129.875298 
L 277.339622 129.805968 
L 277.370573 128.998636 
L 277.437353 129.032323 
L 277.505589 128.968804 
L 277.797532 126.366232 
L 277.935196 127.419694 
L 278.006728 126.611811 
L 278.230222 128.963278 
L 278.420721 128.166559 
L 278.433592 128.251277 
L 278.588546 131.001338 
L 278.725438 131.368238 
L 278.811447 130.607292 
L 278.934157 127.73876 
L 279.068636 128.112274 
L 279.155038 129.767856 
L 279.524285 125.551706 
L 279.607829 125.679259 
L 279.711944 124.889149 
L 279.849073 123.19317 
L 279.985125 123.787258 
L 280.209663 126.83126 
L 280.262848 126.41067 
L 280.542206 130.731954 
L 280.794295 128.495736 
L 280.948677 129.710602 
L 281.058119 129.337972 
L 281.194711 127.375849 
L 281.383303 128.96528 
L 281.85938 132.390242 
L 281.919858 132.190709 
L 282.090708 131.601405 
L 282.226878 129.651406 
L 282.22701 126.404433 
L 282.284904 128.449894 
L 282.34734 128.629641 
L 282.433073 128.504011 
L 282.502158 128.757275 
L 282.708796 127.042933 
L 282.819788 126.776197 
L 282.917926 128.151012 
L 283.035648 128.091668 
L 283.259468 127.084415 
L 283.295446 127.621783 
L 283.368745 127.45995 
L 283.631233 128.721697 
L 283.740628 128.340706 
L 283.912363 129.288841 
L 284.187452 128.615988 
L 284.340163 127.043355 
L 284.418865 127.53056 
L 284.47861 127.266102 
L 284.644363 126.481507 
L 284.758327 125.090304 
L 284.839987 125.29647 
L 284.947579 126.153145 
L 285.011727 125.907125 
L 285.185883 125.380425 
L 285.440671 125.874798 
L 285.612011 124.14404 
L 285.80107 125.820939 
L 285.818573 125.406187 
L 285.889721 125.707915 
L 286.064329 125.970023 
L 286.317658 128.914461 
L 286.489451 127.757107 
L 286.781249 129.442865 
L 287.042902 127.953754 
L 287.168454 130.000346 
L 287.261699 130.281858 
L 287.313684 129.731733 
L 287.4684 129.915997 
L 287.639576 130.819453 
L 287.674647 130.745345 
L 287.742942 131.967059 
L 287.811137 131.22124 
L 287.966624 132.007176 
L 288.026311 132.199345 
L 288.17262 130.924501 
L 288.309842 131.561347 
L 288.724895 125.901706 
L 288.80528 126.04086 
L 288.963045 127.587962 
L 289.075285 127.072779 
L 289.238248 129.611889 
L 289.324017 129.960398 
L 289.444611 132.201894 
L 289.548232 131.974795 
L 289.719933 130.563359 
L 289.806258 130.995356 
L 289.909025 130.89071 
L 289.979205 131.244692 
L 290.015561 131.070488 
L 290.235386 129.830262 
L 290.323156 129.793645 
L 290.389586 129.590334 
L 290.510303 129.852459 
L 290.717 127.792024 
L 290.819581 128.805369 
L 290.870849 127.877179 
L 290.958478 128.74037 
L 291.008155 128.568994 
L 291.094409 128.573073 
L 291.148144 129.259467 
L 291.231395 128.450746 
L 291.304805 129.013165 
L 291.405019 128.89918 
L 291.471963 129.573471 
L 291.540657 128.561614 
L 291.609665 128.865963 
L 291.661164 128.569817 
L 291.729793 128.909897 
L 291.79702 128.390209 
L 291.88478 128.742775 
L 292.004679 130.408178 
L 292.130608 130.30147 
L 292.213508 129.709076 
L 292.365654 130.656383 
L 292.580801 129.216856 
L 292.709026 128.072041 
L 292.794478 128.491855 
L 292.881348 129.033387 
L 292.932407 130.778621 
L 293.090387 129.2689 
L 293.139567 129.501791 
L 293.207131 129.408235 
L 293.465398 127.982815 
L 293.654479 126.163295 
L 293.705647 126.275472 
L 294.419467 130.586993 
L 294.575603 131.074278 
L 294.662852 130.750119 
L 294.703257 129.913285 
L 294.989567 131.649512 
L 295.196174 130.845538 
L 295.264041 131.083237 
L 295.349343 132.221034 
L 295.402913 132.102517 
L 295.692866 130.014907 
L 295.761719 130.33081 
L 295.984138 129.108796 
L 296.055077 128.997701 
L 296.193508 129.139358 
L 296.33325 127.309563 
L 296.415775 127.694968 
L 296.484155 127.439821 
L 296.552174 128.171573 
L 296.620702 127.150449 
L 296.690687 127.43419 
L 296.775772 126.434979 
L 296.827225 127.237974 
L 296.898398 127.193081 
L 297.051004 128.509346 
L 297.123396 127.360522 
L 297.283711 127.62257 
L 297.292293 127.572576 
L 297.32697 128.095638 
L 297.420514 127.879174 
L 297.48281 127.758081 
L 297.826154 129.850162 
L 297.895118 129.159722 
L 297.963375 129.504699 
L 298.107499 128.971009 
L 298.244545 129.52948 
L 298.393425 128.751154 
L 298.462355 129.084926 
L 298.479453 129.826999 
L 298.531878 128.749481 
L 298.683175 130.406855 
L 298.824029 131.869697 
L 298.892694 131.34003 
L 298.978734 131.271072 
L 299.098414 130.874409 
L 299.321765 130.896475 
L 299.459769 130.639674 
L 299.579352 129.967826 
L 299.840539 132.950984 
L 299.940943 132.203525 
L 300.026066 132.665972 
L 300.111696 130.796631 
L 300.24895 131.717681 
L 300.30346 130.965303 
L 300.389375 131.272554 
L 300.525149 129.082022 
L 300.611333 129.48526 
L 300.80018 129.142672 
L 300.86693 127.527574 
L 300.953445 127.663617 
L 301.02242 128.128233 
L 301.091834 126.958931 
L 301.210287 126.998388 
L 301.2453 127.802613 
L 301.330422 127.74115 
L 301.38552 127.972315 
L 301.434517 128.802068 
L 301.548191 128.547599 
L 301.588866 129.173622 
L 301.761755 127.947142 
L 301.831189 128.226759 
L 301.967663 128.168572 
L 302.073102 128.487338 
L 302.206894 127.79741 
L 302.379285 129.462366 
L 302.451831 130.100521 
L 302.516915 130.047029 
L 302.585523 130.203068 
L 302.691851 129.231742 
L 302.863576 130.535291 
L 303.021752 129.157132 
L 303.156193 129.844178 
L 303.256445 129.435135 
L 303.409703 130.678872 
L 303.44948 130.080969 
L 303.522003 130.779557 
L 303.582142 130.091407 
L 303.684811 130.624837 
L 303.71888 131.40067 
L 303.788578 130.552216 
L 303.943764 129.36579 
L 304.012997 130.592816 
L 304.115087 128.674338 
L 304.16601 129.483291 
L 304.355357 127.555524 
L 304.563064 129.397866 
L 304.648976 128.438502 
L 304.718174 128.774756 
L 304.78383 129.150852 
L 304.921777 128.128649 
L 305.007064 128.239107 
L 305.063635 129.172883 
L 305.214053 128.479019 
L 305.302237 128.390764 
L 305.523611 129.7371 
L 305.772253 128.259737 
L 305.941372 127.283234 
L 306.082633 127.411002 
L 306.206825 125.568406 
L 306.333058 125.807085 
L 306.349366 127.769499 
L 306.43572 126.987796 
L 306.489206 127.753477 
L 306.572019 127.589026 
L 306.675129 127.516284 
L 306.743961 127.280377 
L 306.988455 129.112919 
L 307.087624 128.683184 
L 307.345388 130.210854 
L 307.465211 129.281637 
L 307.501666 129.330652 
L 307.556727 129.458974 
L 307.791781 127.295614 
L 307.843865 128.011931 
L 307.912861 127.504237 
L 308.136544 125.921293 
L 308.29646 126.288234 
L 308.48045 128.051396 
L 308.618729 126.874999 
L 308.704336 128.148204 
L 308.756341 127.756244 
L 308.91084 128.210506 
L 309.253114 124.478127 
L 309.358876 126.255193 
L 309.410335 125.966226 
L 309.549072 126.898605 
L 309.620089 126.777784 
L 309.760128 128.055123 
L 309.825548 129.47092 
L 309.9114 129.308598 
L 310.169268 127.548063 
L 310.257958 127.697876 
L 310.291251 127.438523 
L 310.394298 126.047355 
L 310.494877 126.438628 
L 310.548444 125.174004 
L 310.757837 127.222276 
L 310.839892 127.714988 
L 310.943552 126.521847 
L 310.99006 126.936229 
L 311.103412 128.038013 
L 311.182941 127.337794 
L 311.251628 127.639058 
L 311.326862 127.678296 
L 311.527262 125.543076 
L 311.612535 125.24079 
L 311.832207 126.204696 
L 311.844457 126.159175 
L 312.10659 128.28296 
L 312.188236 128.14476 
L 312.34453 129.380615 
L 312.397621 128.289496 
L 312.492999 128.403302 
L 312.739316 125.684809 
L 312.962446 127.252648 
L 313.030854 127.928085 
L 313.168857 127.0726 
L 313.236964 127.425311 
L 313.341011 127.172666 
L 313.391964 128.536204 
L 313.447389 128.42777 
L 313.597534 126.773722 
L 313.666048 127.075842 
L 313.775958 126.579967 
L 313.908427 128.60525 
L 314.097356 126.829243 
L 314.200469 127.044862 
L 314.262444 128.705824 
L 314.319409 128.636541 
L 314.389413 127.664336 
L 314.461865 128.836175 
L 314.682036 127.765172 
L 314.75171 127.310182 
L 314.991625 127.823189 
L 315.02536 127.037549 
L 315.081639 127.974894 
L 315.128931 127.739845 
L 315.162972 126.758539 
L 315.257341 127.612245 
L 315.303952 127.189173 
L 315.439591 127.568693 
L 315.560393 128.421137 
L 315.651711 128.281593 
L 315.783931 128.501879 
L 315.818403 128.084249 
L 315.990982 129.099597 
L 316.161648 127.146842 
L 316.233016 127.839722 
L 316.402792 127.188586 
L 316.454157 128.331666 
L 316.524589 127.026166 
L 316.573974 127.056898 
L 316.810273 129.557411 
L 316.888944 129.044105 
L 316.955316 129.709789 
L 317.2974 127.427127 
L 317.486346 125.07071 
L 317.502813 125.752482 
" clip-path="url(#p42d099e0f0)" style="fill: none; stroke: #ff0000; stroke-opacity: 0.5; stroke-width: 3; stroke-linecap: square"/>
   </g>
   <g id="patch_3">
    <path d="M 38.502813 139.32 
L 38.502813 0.72 
" style="fill: none; stroke: #000000; stroke-width: 0.8; stroke-linejoin: miter; stroke-linecap: square"/>
   </g>
   <g id="patch_4">
    <path d="M 317.502813 139.32 
L 317.502813 0.72 
" style="fill: none; stroke: #000000; stroke-width: 0.8; stroke-linejoin: miter; stroke-linecap: square"/>
   </g>
   <g id="patch_5">
    <path d="M 38.502813 139.32 
L 317.502813 139.32 
" style="fill: none; stroke: #000000; stroke-width: 0.8; stroke-linejoin: miter; stroke-linecap: square"/>
   </g>
   <g id="patch_6">
    <path d="M 38.502813 0.72 
L 317.502813 0.72 
" style="fill: none; stroke: #000000; stroke-width: 0.8; stroke-linejoin: miter; stroke-linecap: square"/>
   </g>
   <g id="legend_1">
    <g id="patch_7">
     <path d="M 236.734062 86.198125 
L 310.502813 86.198125 
Q 312.502813 86.198125 312.502813 84.198125 
L 312.502813 55.841875 
Q 312.502813 53.841875 310.502813 53.841875 
L 236.734062 53.841875 
Q 234.734062 53.841875 234.734062 55.841875 
L 234.734062 84.198125 
Q 234.734062 86.198125 236.734062 86.198125 
z
" style="fill: #ffffff; opacity: 0.8; stroke: #cccccc; stroke-linejoin: miter"/>
    </g>
    <g id="line2d_23">
     <path d="M 238.734062 61.940312 
L 248.734062 61.940312 
L 258.734062 61.940312 
" style="fill: none; stroke: #0000ff; stroke-opacity: 0.5; stroke-width: 3; stroke-linecap: square"/>
    </g>
    <g id="text_13">
     <!-- RNEA -->
     <g transform="translate(266.734062 65.440312) scale(0.1 -0.1)">
      <defs>
       <path id="DejaVuSans-52" d="M 2841 2188 
Q 3044 2119 3236 1894 
Q 3428 1669 3622 1275 
L 4263 0 
L 3584 0 
L 2988 1197 
Q 2756 1666 2539 1819 
Q 2322 1972 1947 1972 
L 1259 1972 
L 1259 0 
L 628 0 
L 628 4666 
L 2053 4666 
Q 2853 4666 3247 4331 
Q 3641 3997 3641 3322 
Q 3641 2881 3436 2590 
Q 3231 2300 2841 2188 
z
M 1259 4147 
L 1259 2491 
L 2053 2491 
Q 2509 2491 2742 2702 
Q 2975 2913 2975 3322 
Q 2975 3731 2742 3939 
Q 2509 4147 2053 4147 
L 1259 4147 
z
" transform="scale(0.015625)"/>
       <path id="DejaVuSans-45" d="M 628 4666 
L 3578 4666 
L 3578 4134 
L 1259 4134 
L 1259 2753 
L 3481 2753 
L 3481 2222 
L 1259 2222 
L 1259 531 
L 3634 531 
L 3634 0 
L 628 0 
L 628 4666 
z
" transform="scale(0.015625)"/>
       <path id="DejaVuSans-41" d="M 2188 4044 
L 1331 1722 
L 3047 1722 
L 2188 4044 
z
M 1831 4666 
L 2547 4666 
L 4325 0 
L 3669 0 
L 3244 1197 
L 1141 1197 
L 716 0 
L 50 0 
L 1831 4666 
z
" transform="scale(0.015625)"/>
      </defs>
      <use xlink:href="#DejaVuSans-52"/>
      <use xlink:href="#DejaVuSans-4e" x="69.482422"/>
      <use xlink:href="#DejaVuSans-45" x="144.287109"/>
      <use xlink:href="#DejaVuSans-41" x="207.470703"/>
     </g>
    </g>
    <g id="line2d_24">
     <path d="M 238.734062 76.618437 
L 248.734062 76.618437 
L 258.734062 76.618437 
" style="fill: none; stroke: #ff0000; stroke-opacity: 0.5; stroke-width: 3; stroke-linecap: square"/>
    </g>
    <g id="text_14">
     <!-- BURNEA -->
     <g transform="translate(266.734062 80.118437) scale(0.1 -0.1)">
      <defs>
       <path id="DejaVuSans-42" d="M 1259 2228 
L 1259 519 
L 2272 519 
Q 2781 519 3026 730 
Q 3272 941 3272 1375 
Q 3272 1813 3026 2020 
Q 2781 2228 2272 2228 
L 1259 2228 
z
M 1259 4147 
L 1259 2741 
L 2194 2741 
Q 2656 2741 2882 2914 
Q 3109 3088 3109 3444 
Q 3109 3797 2882 3972 
Q 2656 4147 2194 4147 
L 1259 4147 
z
M 628 4666 
L 2241 4666 
Q 2963 4666 3353 4366 
Q 3744 4066 3744 3513 
Q 3744 3084 3544 2831 
Q 3344 2578 2956 2516 
Q 3422 2416 3680 2098 
Q 3938 1781 3938 1306 
Q 3938 681 3513 340 
Q 3088 0 2303 0 
L 628 0 
L 628 4666 
z
" transform="scale(0.015625)"/>
       <path id="DejaVuSans-55" d="M 556 4666 
L 1191 4666 
L 1191 1831 
Q 1191 1081 1462 751 
Q 1734 422 2344 422 
Q 2950 422 3222 751 
Q 3494 1081 3494 1831 
L 3494 4666 
L 4128 4666 
L 4128 1753 
Q 4128 841 3676 375 
Q 3225 -91 2344 -91 
Q 1459 -91 1007 375 
Q 556 841 556 1753 
L 556 4666 
z
" transform="scale(0.015625)"/>
      </defs>
      <use xlink:href="#DejaVuSans-42"/>
      <use xlink:href="#DejaVuSans-55" x="68.603516"/>
      <use xlink:href="#DejaVuSans-52" x="141.796875"/>
      <use xlink:href="#DejaVuSans-4e" x="211.279297"/>
      <use xlink:href="#DejaVuSans-45" x="286.083984"/>
      <use xlink:href="#DejaVuSans-41" x="349.267578"/>
     </g>
    </g>
   </g>
  </g>
 </g>
 <defs>
  <clipPath id="p42d099e0f0">
   <rect x="38.502813" y="0.72" width="279" height="138.6"/>
  </clipPath>
 </defs>
</svg>
