<?xml version="1.0" encoding="utf-8" standalone="no"?>
<!DOCTYPE svg PUBLIC "-//W3C//DTD SVG 1.1//EN"
  "http://www.w3.org/Graphics/SVG/1.1/DTD/svg11.dtd">
<svg xmlns:xlink="http://www.w3.org/1999/xlink" width="427.43952pt" height="211.43952pt" viewBox="0 0 427.43952 211.43952" xmlns="http://www.w3.org/2000/svg" version="1.1">
 <metadata>
  <rdf:RDF xmlns:dc="http://purl.org/dc/elements/1.1/" xmlns:cc="http://creativecommons.org/ns#" xmlns:rdf="http://www.w3.org/1999/02/22-rdf-syntax-ns#">
   <cc:Work>
    <dc:type rdf:resource="http://purl.org/dc/dcmitype/StillImage"/>
    <dc:date>2023-09-09T18:29:06.382757</dc:date>
    <dc:format>image/svg+xml</dc:format>
    <dc:creator>
     <cc:Agent>
      <dc:title>Matplotlib v3.7.2, https://matplotlib.org/</dc:title>
     </cc:Agent>
    </dc:creator>
   </cc:Work>
  </rdf:RDF>
 </metadata>
 <defs>
  <style type="text/css">*{stroke-linejoin: round; stroke-linecap: butt}</style>
 </defs>
 <g id="figure_1">
  <g id="patch_1">
   <path d="M 0 211.43952 
L 427.43952 211.43952 
L 427.43952 0 
L 0 0 
L 0 211.43952 
z
" style="fill: none"/>
  </g>
  <g id="axes_1">
   <g id="patch_2">
    <path d="M 30.123125 184.36327 
L 426.71952 184.36327 
L 426.71952 0.72 
L 30.123125 0.72 
L 30.123125 184.36327 
z
" style="fill: none"/>
   </g>
   <g id="matplotlib.axis_1">
    <g id="xtick_1">
     <g id="line2d_1">
      <path d="M 30.123125 184.36327 
L 30.123125 0.72 
" clip-path="url(#p9be9003527)" style="fill: none; stroke-dasharray: 0.8,1.32; stroke-dashoffset: 0; stroke: #000000; stroke-opacity: 0.5; stroke-width: 0.8"/>
     </g>
     <g id="line2d_2">
      <defs>
       <path id="m36d2a13990" d="M 0 0 
L 0 3.5 
" style="stroke: #000000; stroke-width: 0.8"/>
      </defs>
      <g>
       <use xlink:href="#m36d2a13990" x="30.123125" y="184.36327" style="stroke: #000000; stroke-width: 0.8"/>
      </g>
     </g>
     <g id="text_1">
      <!-- 0.0 -->
      <g transform="translate(22.171563 198.961707) scale(0.1 -0.1)">
       <defs>
        <path id="DejaVuSans-30" d="M 2034 4250 
Q 1547 4250 1301 3770 
Q 1056 3291 1056 2328 
Q 1056 1369 1301 889 
Q 1547 409 2034 409 
Q 2525 409 2770 889 
Q 3016 1369 3016 2328 
Q 3016 3291 2770 3770 
Q 2525 4250 2034 4250 
z
M 2034 4750 
Q 2819 4750 3233 4129 
Q 3647 3509 3647 2328 
Q 3647 1150 3233 529 
Q 2819 -91 2034 -91 
Q 1250 -91 836 529 
Q 422 1150 422 2328 
Q 422 3509 836 4129 
Q 1250 4750 2034 4750 
z
" transform="scale(0.015625)"/>
        <path id="DejaVuSans-2e" d="M 684 794 
L 1344 794 
L 1344 0 
L 684 0 
L 684 794 
z
" transform="scale(0.015625)"/>
       </defs>
       <use xlink:href="#DejaVuSans-30"/>
       <use xlink:href="#DejaVuSans-2e" x="63.623047"/>
       <use xlink:href="#DejaVuSans-30" x="95.410156"/>
      </g>
     </g>
    </g>
    <g id="xtick_2">
     <g id="line2d_3">
      <path d="M 82.825899 184.36327 
L 82.825899 0.72 
" clip-path="url(#p9be9003527)" style="fill: none; stroke-dasharray: 0.8,1.32; stroke-dashoffset: 0; stroke: #000000; stroke-opacity: 0.5; stroke-width: 0.8"/>
     </g>
     <g id="line2d_4">
      <g>
       <use xlink:href="#m36d2a13990" x="82.825899" y="184.36327" style="stroke: #000000; stroke-width: 0.8"/>
      </g>
     </g>
     <g id="text_2">
      <!-- 2.5 -->
      <g transform="translate(74.874337 198.961707) scale(0.1 -0.1)">
       <defs>
        <path id="DejaVuSans-32" d="M 1228 531 
L 3431 531 
L 3431 0 
L 469 0 
L 469 531 
Q 828 903 1448 1529 
Q 2069 2156 2228 2338 
Q 2531 2678 2651 2914 
Q 2772 3150 2772 3378 
Q 2772 3750 2511 3984 
Q 2250 4219 1831 4219 
Q 1534 4219 1204 4116 
Q 875 4013 500 3803 
L 500 4441 
Q 881 4594 1212 4672 
Q 1544 4750 1819 4750 
Q 2544 4750 2975 4387 
Q 3406 4025 3406 3419 
Q 3406 3131 3298 2873 
Q 3191 2616 2906 2266 
Q 2828 2175 2409 1742 
Q 1991 1309 1228 531 
z
" transform="scale(0.015625)"/>
        <path id="DejaVuSans-35" d="M 691 4666 
L 3169 4666 
L 3169 4134 
L 1269 4134 
L 1269 2991 
Q 1406 3038 1543 3061 
Q 1681 3084 1819 3084 
Q 2600 3084 3056 2656 
Q 3513 2228 3513 1497 
Q 3513 744 3044 326 
Q 2575 -91 1722 -91 
Q 1428 -91 1123 -41 
Q 819 9 494 109 
L 494 744 
Q 775 591 1075 516 
Q 1375 441 1709 441 
Q 2250 441 2565 725 
Q 2881 1009 2881 1497 
Q 2881 1984 2565 2268 
Q 2250 2553 1709 2553 
Q 1456 2553 1204 2497 
Q 953 2441 691 2322 
L 691 4666 
z
" transform="scale(0.015625)"/>
       </defs>
       <use xlink:href="#DejaVuSans-32"/>
       <use xlink:href="#DejaVuSans-2e" x="63.623047"/>
       <use xlink:href="#DejaVuSans-35" x="95.410156"/>
      </g>
     </g>
    </g>
    <g id="xtick_3">
     <g id="line2d_5">
      <path d="M 135.528674 184.36327 
L 135.528674 0.72 
" clip-path="url(#p9be9003527)" style="fill: none; stroke-dasharray: 0.8,1.32; stroke-dashoffset: 0; stroke: #000000; stroke-opacity: 0.5; stroke-width: 0.8"/>
     </g>
     <g id="line2d_6">
      <g>
       <use xlink:href="#m36d2a13990" x="135.528674" y="184.36327" style="stroke: #000000; stroke-width: 0.8"/>
      </g>
     </g>
     <g id="text_3">
      <!-- 5.0 -->
      <g transform="translate(127.577111 198.961707) scale(0.1 -0.1)">
       <use xlink:href="#DejaVuSans-35"/>
       <use xlink:href="#DejaVuSans-2e" x="63.623047"/>
       <use xlink:href="#DejaVuSans-30" x="95.410156"/>
      </g>
     </g>
    </g>
    <g id="xtick_4">
     <g id="line2d_7">
      <path d="M 188.231448 184.36327 
L 188.231448 0.72 
" clip-path="url(#p9be9003527)" style="fill: none; stroke-dasharray: 0.8,1.32; stroke-dashoffset: 0; stroke: #000000; stroke-opacity: 0.5; stroke-width: 0.8"/>
     </g>
     <g id="line2d_8">
      <g>
       <use xlink:href="#m36d2a13990" x="188.231448" y="184.36327" style="stroke: #000000; stroke-width: 0.8"/>
      </g>
     </g>
     <g id="text_4">
      <!-- 7.5 -->
      <g transform="translate(180.279886 198.961707) scale(0.1 -0.1)">
       <defs>
        <path id="DejaVuSans-37" d="M 525 4666 
L 3525 4666 
L 3525 4397 
L 1831 0 
L 1172 0 
L 2766 4134 
L 525 4134 
L 525 4666 
z
" transform="scale(0.015625)"/>
       </defs>
       <use xlink:href="#DejaVuSans-37"/>
       <use xlink:href="#DejaVuSans-2e" x="63.623047"/>
       <use xlink:href="#DejaVuSans-35" x="95.410156"/>
      </g>
     </g>
    </g>
    <g id="xtick_5">
     <g id="line2d_9">
      <path d="M 240.934223 184.36327 
L 240.934223 0.72 
" clip-path="url(#p9be9003527)" style="fill: none; stroke-dasharray: 0.8,1.32; stroke-dashoffset: 0; stroke: #000000; stroke-opacity: 0.5; stroke-width: 0.8"/>
     </g>
     <g id="line2d_10">
      <g>
       <use xlink:href="#m36d2a13990" x="240.934223" y="184.36327" style="stroke: #000000; stroke-width: 0.8"/>
      </g>
     </g>
     <g id="text_5">
      <!-- 10.0 -->
      <g transform="translate(229.80141 198.961707) scale(0.1 -0.1)">
       <defs>
        <path id="DejaVuSans-31" d="M 794 531 
L 1825 531 
L 1825 4091 
L 703 3866 
L 703 4441 
L 1819 4666 
L 2450 4666 
L 2450 531 
L 3481 531 
L 3481 0 
L 794 0 
L 794 531 
z
" transform="scale(0.015625)"/>
       </defs>
       <use xlink:href="#DejaVuSans-31"/>
       <use xlink:href="#DejaVuSans-30" x="63.623047"/>
       <use xlink:href="#DejaVuSans-2e" x="127.246094"/>
       <use xlink:href="#DejaVuSans-30" x="159.033203"/>
      </g>
     </g>
    </g>
    <g id="xtick_6">
     <g id="line2d_11">
      <path d="M 293.636997 184.36327 
L 293.636997 0.72 
" clip-path="url(#p9be9003527)" style="fill: none; stroke-dasharray: 0.8,1.32; stroke-dashoffset: 0; stroke: #000000; stroke-opacity: 0.5; stroke-width: 0.8"/>
     </g>
     <g id="line2d_12">
      <g>
       <use xlink:href="#m36d2a13990" x="293.636997" y="184.36327" style="stroke: #000000; stroke-width: 0.8"/>
      </g>
     </g>
     <g id="text_6">
      <!-- 12.5 -->
      <g transform="translate(282.504185 198.961707) scale(0.1 -0.1)">
       <use xlink:href="#DejaVuSans-31"/>
       <use xlink:href="#DejaVuSans-32" x="63.623047"/>
       <use xlink:href="#DejaVuSans-2e" x="127.246094"/>
       <use xlink:href="#DejaVuSans-35" x="159.033203"/>
      </g>
     </g>
    </g>
    <g id="xtick_7">
     <g id="line2d_13">
      <path d="M 346.339772 184.36327 
L 346.339772 0.72 
" clip-path="url(#p9be9003527)" style="fill: none; stroke-dasharray: 0.8,1.32; stroke-dashoffset: 0; stroke: #000000; stroke-opacity: 0.5; stroke-width: 0.8"/>
     </g>
     <g id="line2d_14">
      <g>
       <use xlink:href="#m36d2a13990" x="346.339772" y="184.36327" style="stroke: #000000; stroke-width: 0.8"/>
      </g>
     </g>
     <g id="text_7">
      <!-- 15.0 -->
      <g transform="translate(335.206959 198.961707) scale(0.1 -0.1)">
       <use xlink:href="#DejaVuSans-31"/>
       <use xlink:href="#DejaVuSans-35" x="63.623047"/>
       <use xlink:href="#DejaVuSans-2e" x="127.246094"/>
       <use xlink:href="#DejaVuSans-30" x="159.033203"/>
      </g>
     </g>
    </g>
    <g id="xtick_8">
     <g id="line2d_15">
      <path d="M 399.042546 184.36327 
L 399.042546 0.72 
" clip-path="url(#p9be9003527)" style="fill: none; stroke-dasharray: 0.8,1.32; stroke-dashoffset: 0; stroke: #000000; stroke-opacity: 0.5; stroke-width: 0.8"/>
     </g>
     <g id="line2d_16">
      <g>
       <use xlink:href="#m36d2a13990" x="399.042546" y="184.36327" style="stroke: #000000; stroke-width: 0.8"/>
      </g>
     </g>
     <g id="text_8">
      <!-- 17.5 -->
      <g transform="translate(387.909734 198.961707) scale(0.1 -0.1)">
       <use xlink:href="#DejaVuSans-31"/>
       <use xlink:href="#DejaVuSans-37" x="63.623047"/>
       <use xlink:href="#DejaVuSans-2e" x="127.246094"/>
       <use xlink:href="#DejaVuSans-35" x="159.033203"/>
      </g>
     </g>
    </g>
    <g id="text_9">
     <!-- Zeit [s] -->
     <g transform="translate(210.475229 208.639832) scale(0.1 -0.1)">
      <defs>
       <path id="DejaVuSans-5a" d="M 359 4666 
L 4025 4666 
L 4025 4184 
L 1075 531 
L 4097 531 
L 4097 0 
L 288 0 
L 288 481 
L 3238 4134 
L 359 4134 
L 359 4666 
z
" transform="scale(0.015625)"/>
       <path id="DejaVuSans-65" d="M 3597 1894 
L 3597 1613 
L 953 1613 
Q 991 1019 1311 708 
Q 1631 397 2203 397 
Q 2534 397 2845 478 
Q 3156 559 3463 722 
L 3463 178 
Q 3153 47 2828 -22 
Q 2503 -91 2169 -91 
Q 1331 -91 842 396 
Q 353 884 353 1716 
Q 353 2575 817 3079 
Q 1281 3584 2069 3584 
Q 2775 3584 3186 3129 
Q 3597 2675 3597 1894 
z
M 3022 2063 
Q 3016 2534 2758 2815 
Q 2500 3097 2075 3097 
Q 1594 3097 1305 2825 
Q 1016 2553 972 2059 
L 3022 2063 
z
" transform="scale(0.015625)"/>
       <path id="DejaVuSans-69" d="M 603 3500 
L 1178 3500 
L 1178 0 
L 603 0 
L 603 3500 
z
M 603 4863 
L 1178 4863 
L 1178 4134 
L 603 4134 
L 603 4863 
z
" transform="scale(0.015625)"/>
       <path id="DejaVuSans-74" d="M 1172 4494 
L 1172 3500 
L 2356 3500 
L 2356 3053 
L 1172 3053 
L 1172 1153 
Q 1172 725 1289 603 
Q 1406 481 1766 481 
L 2356 481 
L 2356 0 
L 1766 0 
Q 1100 0 847 248 
Q 594 497 594 1153 
L 594 3053 
L 172 3053 
L 172 3500 
L 594 3500 
L 594 4494 
L 1172 4494 
z
" transform="scale(0.015625)"/>
       <path id="DejaVuSans-20" transform="scale(0.015625)"/>
       <path id="DejaVuSans-5b" d="M 550 4863 
L 1875 4863 
L 1875 4416 
L 1125 4416 
L 1125 -397 
L 1875 -397 
L 1875 -844 
L 550 -844 
L 550 4863 
z
" transform="scale(0.015625)"/>
       <path id="DejaVuSans-73" d="M 2834 3397 
L 2834 2853 
Q 2591 2978 2328 3040 
Q 2066 3103 1784 3103 
Q 1356 3103 1142 2972 
Q 928 2841 928 2578 
Q 928 2378 1081 2264 
Q 1234 2150 1697 2047 
L 1894 2003 
Q 2506 1872 2764 1633 
Q 3022 1394 3022 966 
Q 3022 478 2636 193 
Q 2250 -91 1575 -91 
Q 1294 -91 989 -36 
Q 684 19 347 128 
L 347 722 
Q 666 556 975 473 
Q 1284 391 1588 391 
Q 1994 391 2212 530 
Q 2431 669 2431 922 
Q 2431 1156 2273 1281 
Q 2116 1406 1581 1522 
L 1381 1569 
Q 847 1681 609 1914 
Q 372 2147 372 2553 
Q 372 3047 722 3315 
Q 1072 3584 1716 3584 
Q 2034 3584 2315 3537 
Q 2597 3491 2834 3397 
z
" transform="scale(0.015625)"/>
       <path id="DejaVuSans-5d" d="M 1947 4863 
L 1947 -844 
L 622 -844 
L 622 -397 
L 1369 -397 
L 1369 4416 
L 622 4416 
L 622 4863 
L 1947 4863 
z
" transform="scale(0.015625)"/>
      </defs>
      <use xlink:href="#DejaVuSans-5a"/>
      <use xlink:href="#DejaVuSans-65" x="68.505859"/>
      <use xlink:href="#DejaVuSans-69" x="130.029297"/>
      <use xlink:href="#DejaVuSans-74" x="157.8125"/>
      <use xlink:href="#DejaVuSans-20" x="197.021484"/>
      <use xlink:href="#DejaVuSans-5b" x="228.808594"/>
      <use xlink:href="#DejaVuSans-73" x="267.822266"/>
      <use xlink:href="#DejaVuSans-5d" x="319.921875"/>
     </g>
    </g>
   </g>
   <g id="matplotlib.axis_2">
    <g id="ytick_1">
     <g id="line2d_17">
      <path d="M 30.123125 183.34467 
L 426.71952 183.34467 
" clip-path="url(#p9be9003527)" style="fill: none; stroke-dasharray: 0.8,1.32; stroke-dashoffset: 0; stroke: #000000; stroke-opacity: 0.5; stroke-width: 0.8"/>
     </g>
     <g id="line2d_18">
      <defs>
       <path id="m7ba216a64c" d="M 0 0 
L -3.5 0 
" style="stroke: #000000; stroke-width: 0.8"/>
      </defs>
      <g>
       <use xlink:href="#m7ba216a64c" x="30.123125" y="183.34467" style="stroke: #000000; stroke-width: 0.8"/>
      </g>
     </g>
     <g id="text_10">
      <!-- 0 -->
      <g transform="translate(16.760625 187.143888) scale(0.1 -0.1)">
       <use xlink:href="#DejaVuSans-30"/>
      </g>
     </g>
    </g>
    <g id="ytick_2">
     <g id="line2d_19">
      <path d="M 30.123125 149.316452 
L 426.71952 149.316452 
" clip-path="url(#p9be9003527)" style="fill: none; stroke-dasharray: 0.8,1.32; stroke-dashoffset: 0; stroke: #000000; stroke-opacity: 0.5; stroke-width: 0.8"/>
     </g>
     <g id="line2d_20">
      <g>
       <use xlink:href="#m7ba216a64c" x="30.123125" y="149.316452" style="stroke: #000000; stroke-width: 0.8"/>
      </g>
     </g>
     <g id="text_11">
      <!-- 10 -->
      <g transform="translate(10.398125 153.11567) scale(0.1 -0.1)">
       <use xlink:href="#DejaVuSans-31"/>
       <use xlink:href="#DejaVuSans-30" x="63.623047"/>
      </g>
     </g>
    </g>
    <g id="ytick_3">
     <g id="line2d_21">
      <path d="M 30.123125 115.288234 
L 426.71952 115.288234 
" clip-path="url(#p9be9003527)" style="fill: none; stroke-dasharray: 0.8,1.32; stroke-dashoffset: 0; stroke: #000000; stroke-opacity: 0.5; stroke-width: 0.8"/>
     </g>
     <g id="line2d_22">
      <g>
       <use xlink:href="#m7ba216a64c" x="30.123125" y="115.288234" style="stroke: #000000; stroke-width: 0.8"/>
      </g>
     </g>
     <g id="text_12">
      <!-- 20 -->
      <g transform="translate(10.398125 119.087452) scale(0.1 -0.1)">
       <use xlink:href="#DejaVuSans-32"/>
       <use xlink:href="#DejaVuSans-30" x="63.623047"/>
      </g>
     </g>
    </g>
    <g id="ytick_4">
     <g id="line2d_23">
      <path d="M 30.123125 81.260016 
L 426.71952 81.260016 
" clip-path="url(#p9be9003527)" style="fill: none; stroke-dasharray: 0.8,1.32; stroke-dashoffset: 0; stroke: #000000; stroke-opacity: 0.5; stroke-width: 0.8"/>
     </g>
     <g id="line2d_24">
      <g>
       <use xlink:href="#m7ba216a64c" x="30.123125" y="81.260016" style="stroke: #000000; stroke-width: 0.8"/>
      </g>
     </g>
     <g id="text_13">
      <!-- 30 -->
      <g transform="translate(10.398125 85.059234) scale(0.1 -0.1)">
       <defs>
        <path id="DejaVuSans-33" d="M 2597 2516 
Q 3050 2419 3304 2112 
Q 3559 1806 3559 1356 
Q 3559 666 3084 287 
Q 2609 -91 1734 -91 
Q 1441 -91 1130 -33 
Q 819 25 488 141 
L 488 750 
Q 750 597 1062 519 
Q 1375 441 1716 441 
Q 2309 441 2620 675 
Q 2931 909 2931 1356 
Q 2931 1769 2642 2001 
Q 2353 2234 1838 2234 
L 1294 2234 
L 1294 2753 
L 1863 2753 
Q 2328 2753 2575 2939 
Q 2822 3125 2822 3475 
Q 2822 3834 2567 4026 
Q 2313 4219 1838 4219 
Q 1578 4219 1281 4162 
Q 984 4106 628 3988 
L 628 4550 
Q 988 4650 1302 4700 
Q 1616 4750 1894 4750 
Q 2613 4750 3031 4423 
Q 3450 4097 3450 3541 
Q 3450 3153 3228 2886 
Q 3006 2619 2597 2516 
z
" transform="scale(0.015625)"/>
       </defs>
       <use xlink:href="#DejaVuSans-33"/>
       <use xlink:href="#DejaVuSans-30" x="63.623047"/>
      </g>
     </g>
    </g>
    <g id="ytick_5">
     <g id="line2d_25">
      <path d="M 30.123125 47.231798 
L 426.71952 47.231798 
" clip-path="url(#p9be9003527)" style="fill: none; stroke-dasharray: 0.8,1.32; stroke-dashoffset: 0; stroke: #000000; stroke-opacity: 0.5; stroke-width: 0.8"/>
     </g>
     <g id="line2d_26">
      <g>
       <use xlink:href="#m7ba216a64c" x="30.123125" y="47.231798" style="stroke: #000000; stroke-width: 0.8"/>
      </g>
     </g>
     <g id="text_14">
      <!-- 40 -->
      <g transform="translate(10.398125 51.031016) scale(0.1 -0.1)">
       <defs>
        <path id="DejaVuSans-34" d="M 2419 4116 
L 825 1625 
L 2419 1625 
L 2419 4116 
z
M 2253 4666 
L 3047 4666 
L 3047 1625 
L 3713 1625 
L 3713 1100 
L 3047 1100 
L 3047 0 
L 2419 0 
L 2419 1100 
L 313 1100 
L 313 1709 
L 2253 4666 
z
" transform="scale(0.015625)"/>
       </defs>
       <use xlink:href="#DejaVuSans-34"/>
       <use xlink:href="#DejaVuSans-30" x="63.623047"/>
      </g>
     </g>
    </g>
    <g id="ytick_6">
     <g id="line2d_27">
      <path d="M 30.123125 13.20358 
L 426.71952 13.20358 
" clip-path="url(#p9be9003527)" style="fill: none; stroke-dasharray: 0.8,1.32; stroke-dashoffset: 0; stroke: #000000; stroke-opacity: 0.5; stroke-width: 0.8"/>
     </g>
     <g id="line2d_28">
      <g>
       <use xlink:href="#m7ba216a64c" x="30.123125" y="13.20358" style="stroke: #000000; stroke-width: 0.8"/>
      </g>
     </g>
     <g id="text_15">
      <!-- 50 -->
      <g transform="translate(10.398125 17.002798) scale(0.1 -0.1)">
       <use xlink:href="#DejaVuSans-35"/>
       <use xlink:href="#DejaVuSans-30" x="63.623047"/>
      </g>
     </g>
    </g>
    <g id="text_16">
     <!-- 2-Norm F [N] -->
     <g transform="translate(8.318438 124.861166) rotate(-90) scale(0.1 -0.1)">
      <defs>
       <path id="DejaVuSans-2d" d="M 313 2009 
L 1997 2009 
L 1997 1497 
L 313 1497 
L 313 2009 
z
" transform="scale(0.015625)"/>
       <path id="DejaVuSans-4e" d="M 628 4666 
L 1478 4666 
L 3547 763 
L 3547 4666 
L 4159 4666 
L 4159 0 
L 3309 0 
L 1241 3903 
L 1241 0 
L 628 0 
L 628 4666 
z
" transform="scale(0.015625)"/>
       <path id="DejaVuSans-6f" d="M 1959 3097 
Q 1497 3097 1228 2736 
Q 959 2375 959 1747 
Q 959 1119 1226 758 
Q 1494 397 1959 397 
Q 2419 397 2687 759 
Q 2956 1122 2956 1747 
Q 2956 2369 2687 2733 
Q 2419 3097 1959 3097 
z
M 1959 3584 
Q 2709 3584 3137 3096 
Q 3566 2609 3566 1747 
Q 3566 888 3137 398 
Q 2709 -91 1959 -91 
Q 1206 -91 779 398 
Q 353 888 353 1747 
Q 353 2609 779 3096 
Q 1206 3584 1959 3584 
z
" transform="scale(0.015625)"/>
       <path id="DejaVuSans-72" d="M 2631 2963 
Q 2534 3019 2420 3045 
Q 2306 3072 2169 3072 
Q 1681 3072 1420 2755 
Q 1159 2438 1159 1844 
L 1159 0 
L 581 0 
L 581 3500 
L 1159 3500 
L 1159 2956 
Q 1341 3275 1631 3429 
Q 1922 3584 2338 3584 
Q 2397 3584 2469 3576 
Q 2541 3569 2628 3553 
L 2631 2963 
z
" transform="scale(0.015625)"/>
       <path id="DejaVuSans-6d" d="M 3328 2828 
Q 3544 3216 3844 3400 
Q 4144 3584 4550 3584 
Q 5097 3584 5394 3201 
Q 5691 2819 5691 2113 
L 5691 0 
L 5113 0 
L 5113 2094 
Q 5113 2597 4934 2840 
Q 4756 3084 4391 3084 
Q 3944 3084 3684 2787 
Q 3425 2491 3425 1978 
L 3425 0 
L 2847 0 
L 2847 2094 
Q 2847 2600 2669 2842 
Q 2491 3084 2119 3084 
Q 1678 3084 1418 2786 
Q 1159 2488 1159 1978 
L 1159 0 
L 581 0 
L 581 3500 
L 1159 3500 
L 1159 2956 
Q 1356 3278 1631 3431 
Q 1906 3584 2284 3584 
Q 2666 3584 2933 3390 
Q 3200 3197 3328 2828 
z
" transform="scale(0.015625)"/>
       <path id="DejaVuSans-46" d="M 628 4666 
L 3309 4666 
L 3309 4134 
L 1259 4134 
L 1259 2759 
L 3109 2759 
L 3109 2228 
L 1259 2228 
L 1259 0 
L 628 0 
L 628 4666 
z
" transform="scale(0.015625)"/>
      </defs>
      <use xlink:href="#DejaVuSans-32"/>
      <use xlink:href="#DejaVuSans-2d" x="63.623047"/>
      <use xlink:href="#DejaVuSans-4e" x="99.707031"/>
      <use xlink:href="#DejaVuSans-6f" x="174.511719"/>
      <use xlink:href="#DejaVuSans-72" x="235.693359"/>
      <use xlink:href="#DejaVuSans-6d" x="275.056641"/>
      <use xlink:href="#DejaVuSans-20" x="372.46875"/>
      <use xlink:href="#DejaVuSans-46" x="404.255859"/>
      <use xlink:href="#DejaVuSans-20" x="461.775391"/>
      <use xlink:href="#DejaVuSans-5b" x="493.5625"/>
      <use xlink:href="#DejaVuSans-4e" x="532.576172"/>
      <use xlink:href="#DejaVuSans-5d" x="607.380859"/>
     </g>
    </g>
   </g>
   <g id="line2d_29">
    <path d="M 30.123125 75.658702 
L 161.430409 75.658702 
L 161.647741 72.761364 
L 161.774107 75.618566 
L 162.150184 75.896756 
L 162.318841 75.62355 
L 162.870294 76.922231 
L 163.04059 76.961749 
L 163.20909 76.864839 
L 163.378075 76.985124 
L 163.547253 76.38565 
L 163.75957 76.811978 
L 164.099738 76.623735 
L 164.227888 76.69294 
L 164.397313 75.825479 
L 164.437407 76.866909 
L 164.606674 76.536844 
L 164.776901 76.45822 
L 165.157176 76.882108 
L 165.498933 76.704313 
L 165.668752 75.696866 
L 165.879072 76.785368 
L 166.228054 76.815574 
L 166.352036 77.251155 
L 166.519579 77.085387 
L 166.730772 77.276298 
L 166.900755 76.762272 
L 167.112034 75.568683 
L 167.387649 76.382194 
L 167.41151 77.317817 
L 167.747769 76.416342 
L 167.875157 76.455694 
L 167.959347 77.106043 
L 168.301554 76.318131 
L 168.509423 76.408348 
L 168.636955 73.961316 
L 168.806665 77.174159 
L 168.975755 75.814375 
L 169.188343 76.791678 
L 169.398865 74.946494 
L 169.52595 77.375312 
L 169.865192 74.967555 
L 170.090275 76.6052 
L 170.299437 75.827037 
L 170.553549 76.378843 
L 170.766587 75.82912 
L 170.935084 75.761907 
L 171.147278 75.5402 
L 171.316425 75.656681 
L 171.826086 77.447786 
L 172.121494 75.211796 
L 172.1643 77.722692 
L 172.333815 76.771494 
L 172.50382 76.649939 
L 172.671992 76.363745 
L 172.842744 77.011632 
L 173.016003 76.351647 
L 173.353007 78.158078 
L 173.773281 75.987187 
L 173.900679 77.472375 
L 174.155156 76.413667 
L 174.324346 74.384034 
L 174.451892 77.118639 
L 174.620548 75.922507 
L 174.789893 75.755904 
L 175.002524 77.105822 
L 175.425974 77.605763 
L 175.553177 76.017551 
L 175.764443 76.097091 
L 175.852121 76.609885 
L 176.063313 76.145713 
L 176.359697 74.204802 
L 176.557477 76.66803 
L 176.719713 76.308483 
L 176.889358 77.765248 
L 177.248345 76.596015 
L 177.417469 78.337861 
L 177.745055 76.266563 
L 177.84116 76.482133 
L 177.928492 76.319414 
L 178.137435 77.610153 
L 178.30762 75.901278 
L 178.476795 78.209699 
L 178.645429 78.155419 
L 178.814977 77.175407 
L 179.111537 74.226875 
L 179.408577 78.617147 
L 179.748024 74.554106 
L 179.888847 76.675257 
L 180.110483 77.151023 
L 180.299667 77.076388 
L 180.385117 75.640954 
L 180.767029 77.833586 
L 180.936557 80.485853 
L 181.147761 75.986767 
L 181.276348 76.604706 
L 181.486416 73.77138 
L 181.656413 74.537944 
L 181.868315 78.839285 
L 182.038772 78.423007 
L 182.168052 76.084677 
L 182.335043 77.28818 
L 182.546678 80.279565 
L 182.673868 76.255222 
L 182.886974 75.501257 
L 183.097042 77.717885 
L 183.224961 77.398937 
L 183.394285 78.704356 
L 183.56438 73.805648 
L 183.734671 77.914616 
L 183.902566 75.794827 
L 184.198964 76.804585 
L 184.453401 73.233636 
L 184.496864 78.583759 
L 184.622598 75.080962 
L 184.79248 75.857683 
L 184.962167 77.772339 
L 185.132542 75.63719 
L 185.428824 75.900531 
L 185.51484 77.725152 
L 185.725282 72.824186 
L 185.853201 78.955027 
L 186.27569 75.722543 
L 186.446299 76.2166 
L 186.540187 72.734428 
L 186.741041 75.37116 
L 186.953119 72.153015 
L 187.187454 77.359135 
L 187.359619 77.359752 
L 187.463302 74.900648 
L 187.67454 74.015702 
L 187.760693 76.526596 
L 187.971573 75.109719 
L 188.226147 77.554365 
L 188.491706 77.835985 
L 188.690603 73.971115 
L 188.95567 76.504962 
L 189.034432 75.692005 
L 189.368239 76.558217 
L 189.537382 81.566835 
L 189.791526 79.318519 
L 189.918795 72.328109 
L 190.215079 75.752837 
L 190.299801 74.017688 
L 190.469311 76.493922 
L 190.597566 72.731635 
L 190.851555 76.763834 
L 191.146984 77.418676 
L 191.318034 80.738285 
L 191.613169 74.670519 
L 191.784344 77.191483 
L 191.952319 70.446424 
L 191.995124 78.824225 
L 192.164023 79.97059 
L 192.376287 78.275814 
L 192.593747 79.882494 
L 192.75751 75.578213 
L 192.927232 76.74433 
L 193.066702 75.943284 
L 193.308105 79.686661 
L 193.477626 72.423296 
L 193.616064 74.551934 
L 193.775259 79.41187 
L 193.960333 76.736152 
L 194.114193 76.921911 
L 194.325277 80.933294 
L 194.578832 81.267887 
L 195.129368 76.585206 
L 195.172747 73.556149 
L 195.596059 77.468135 
L 195.768817 71.701644 
L 195.892599 76.803313 
L 196.275111 79.656592 
L 196.403413 76.545593 
L 196.739915 75.146081 
L 196.915731 69.589583 
L 197.121037 75.909777 
L 197.248351 76.321413 
L 197.48015 79.075699 
L 197.657781 76.071842 
L 197.969721 74.898387 
L 198.239367 78.171259 
L 198.435481 78.438224 
L 198.52381 79.821894 
L 198.775256 80.68023 
L 198.861797 74.193685 
L 199.07134 78.020291 
L 199.203239 76.49761 
L 199.668983 78.808088 
L 199.749301 81.837977 
L 200.053775 73.56588 
L 200.187826 73.705664 
L 200.301521 78.54332 
L 200.430514 76.361325 
L 200.683007 80.712103 
L 200.788702 73.902547 
L 201.024141 81.242721 
L 201.362048 78.824676 
L 201.490806 76.079595 
L 201.700635 76.960331 
L 201.828146 78.375308 
L 202.039924 75.351031 
L 202.20971 75.08164 
L 202.463202 71.199287 
L 202.590877 79.015489 
L 202.89932 73.787019 
L 203.098227 78.879331 
L 203.228071 75.872219 
L 203.268613 69.836422 
L 203.56718 76.347968 
L 203.947169 70.391587 
L 204.116307 73.538995 
L 204.370741 85.21851 
L 204.672472 69.119854 
L 204.836717 77.146778 
L 205.009713 79.929031 
L 205.218008 76.061701 
L 205.344681 70.986638 
L 205.51642 75.6056 
L 205.810796 76.327548 
L 205.896329 72.237066 
L 206.06549 82.839551 
L 206.238494 73.911299 
L 206.405158 74.878017 
L 206.577675 71.618034 
L 206.746714 74.863552 
L 206.928078 75.475189 
L 207.08564 81.643484 
L 207.381778 77.131812 
L 207.469729 71.950274 
L 207.636659 76.482805 
L 207.805922 73.976904 
L 208.187965 81.69373 
L 208.334182 79.837728 
L 208.486494 67.793275 
L 209.035642 81.726271 
L 209.120881 75.236922 
L 209.204924 81.886299 
L 209.50165 69.475099 
L 209.548127 77.900927 
L 209.744813 77.275293 
L 209.936743 78.290804 
L 210.067739 80.294682 
L 210.433873 69.833067 
L 210.602746 75.91811 
L 210.814813 75.398953 
L 210.984208 77.613109 
L 211.15356 72.393484 
L 211.495787 74.539977 
L 211.662933 72.420597 
L 211.873967 83.155797 
L 212.048403 74.734536 
L 212.213597 73.948195 
L 212.550962 79.680243 
L 212.937302 73.20536 
L 213.101394 73.410511 
L 213.276463 74.611609 
L 213.441322 73.78947 
L 213.570151 76.962857 
L 213.821911 76.823617 
L 213.957283 73.482903 
L 214.161025 74.348624 
L 214.290003 71.771605 
L 214.50994 71.69041 
L 214.627553 81.836433 
L 214.798203 76.626801 
L 215.009468 76.213852 
L 215.178289 70.49217 
L 215.347589 84.735436 
L 215.701621 76.287593 
L 216.238345 83.53272 
L 216.407831 73.410392 
L 216.588366 73.366318 
L 216.748703 73.476703 
L 217.043154 74.6367 
L 217.127931 81.171829 
L 217.339682 71.856882 
L 217.467122 76.787444 
L 217.720897 74.24961 
L 217.847967 83.368225 
L 217.976159 70.773102 
L 218.356098 81.561993 
L 218.500881 78.482089 
L 218.700664 80.233025 
L 218.908907 80.204588 
L 219.120212 73.395838 
L 219.501498 80.339321 
L 219.924913 70.691346 
L 220.136612 78.879141 
L 220.266396 67.713557 
L 220.51958 69.105392 
L 220.6452 77.705005 
L 220.815411 72.392114 
L 220.953662 77.088807 
L 221.156737 76.631803 
L 221.423255 75.610101 
L 221.596192 74.181063 
L 221.715544 70.026359 
L 221.879837 85.105015 
L 222.263727 77.394889 
L 222.439627 81.312464 
L 222.600834 73.009689 
L 222.70171 79.309684 
L 223.039195 70.727667 
L 223.090016 75.877505 
L 223.294282 74.898439 
L 223.463483 69.29035 
L 223.591938 78.095764 
L 223.8448 86.023449 
L 223.971979 75.220414 
L 224.234153 71.703471 
L 224.35494 74.631482 
L 224.52279 81.776723 
L 224.866834 68.71187 
L 225.03118 75.566274 
L 225.285092 75.631065 
L 225.372097 4.251601 
L 225.624863 14.865309 
L 225.793466 13.894727 
L 226.09929 62.442858 
L 226.344051 57.946856 
L 226.430524 73.493451 
L 226.599023 78.329169 
L 226.811414 75.15973 
L 227.064697 75.94914 
L 227.127607 77.874283 
L 227.365275 79.865551 
L 227.674485 77.988773 
L 227.847389 77.626956 
L 228.060798 74.752996 
L 228.142151 76.677316 
L 228.355992 75.447629 
L 228.60645 75.268673 
L 228.817729 76.052496 
L 228.902703 75.341169 
L 229.029989 76.06499 
L 229.285671 75.142254 
L 229.623898 75.604415 
L 229.839316 75.395561 
L 229.922456 75.643099 
L 230.132561 75.309868 
L 230.301565 75.661351 
L 230.429409 75.658707 
L 230.640215 75.360928 
L 230.810847 75.658704 
L 230.979436 75.185246 
L 231.14882 75.616889 
L 231.322223 75.649013 
L 231.531017 75.180338 
L 231.701276 75.555495 
L 232.038449 75.653002 
L 232.549108 75.660016 
L 232.718301 75.469465 
L 233.013519 75.50275 
L 233.098697 77.230456 
L 233.444066 75.619867 
L 233.609304 75.5303 
L 233.819635 75.68107 
L 234.200055 75.248924 
L 234.327082 75.620166 
L 234.497257 75.433791 
L 234.67004 75.474185 
L 234.837901 75.654609 
L 235.06648 75.592077 
L 235.725074 75.65865 
L 235.896534 75.650457 
L 236.064469 76.220472 
L 236.234316 75.513455 
L 236.715023 75.673437 
L 236.954204 75.436999 
L 237.419461 75.643581 
L 238.054962 75.649361 
L 238.236451 75.543563 
L 238.581756 75.634335 
L 238.90188 75.653326 
L 239.07193 75.653105 
L 239.240718 76.110511 
L 239.453136 75.629071 
L 240.559645 75.597182 
L 240.873684 75.654279 
L 241.191185 75.610867 
L 241.361774 75.459452 
L 241.869114 75.641121 
L 242.930499 75.658702 
L 243.104306 75.46056 
L 243.69418 75.653407 
L 243.907216 75.486828 
L 243.991807 75.651413 
L 244.710727 75.630526 
L 244.922658 75.531063 
L 245.049677 75.650869 
L 245.3887 75.655212 
L 246.702697 75.519366 
L 246.802299 75.658702 
L 251.70718 75.649517 
L 251.914486 75.33312 
L 252.253157 75.652304 
L 252.465544 75.650176 
L 252.591982 75.44098 
L 252.84593 75.455063 
L 252.974314 75.654575 
L 254.70994 75.604465 
L 255.048954 75.656835 
L 255.472717 75.658702 
L 255.563689 75.522717 
L 255.946801 75.658684 
L 256.277423 75.499199 
L 258.568209 75.657341 
L 258.956482 75.556201 
L 259.248789 75.590075 
L 259.428546 75.6569 
L 259.807066 75.658446 
L 260.722874 75.599689 
L 260.902935 75.453639 
L 261.05924 75.657851 
L 261.200363 75.655481 
L 261.409584 75.516222 
L 261.91718 75.656756 
L 262.425473 75.654802 
L 262.637231 75.400658 
L 262.976207 75.653534 
L 263.196482 75.524523 
L 263.360816 75.658702 
L 265.606816 75.650324 
L 265.904298 75.361765 
L 265.989883 75.639417 
L 266.455063 75.657633 
L 266.666224 75.535099 
L 267.005122 75.656093 
L 268.234569 75.656648 
L 268.529896 75.506293 
L 268.571647 75.042783 
L 268.829844 75.654672 
L 270.229195 75.625426 
L 270.354107 75.384931 
L 270.521021 75.655032 
L 270.904363 75.657148 
L 271.03149 75.46075 
L 271.921105 75.658665 
L 272.132595 75.509353 
L 272.260131 75.658603 
L 277.215564 75.55844 
L 277.725177 75.656219 
L 278.020969 75.658662 
L 278.106425 75.452483 
L 278.613331 75.658351 
L 278.783207 75.531958 
L 279.121642 75.658585 
L 280.351218 75.654951 
L 280.564097 75.36241 
L 281.070263 75.65843 
L 282.090818 75.657062 
L 282.543679 75.580515 
L 282.808188 75.655644 
L 285.81626 75.657574 
L 285.985482 75.534385 
L 286.155217 75.658666 
L 286.792443 75.648496 
L 286.961446 75.490254 
L 287.215609 75.647281 
L 288.445471 75.656726 
L 288.657688 75.403308 
L 288.783956 75.611293 
L 289.334775 75.647301 
L 289.470734 75.524597 
L 289.638447 75.658323 
L 290.354683 75.641376 
L 290.572579 75.465645 
L 290.734475 75.657951 
L 291.073508 75.643801 
L 291.245322 75.410702 
L 291.414636 75.656657 
L 292.004972 75.657831 
L 292.133539 75.305553 
L 292.301828 75.398722 
L 292.471768 75.654703 
L 292.896673 75.630322 
L 293.024992 75.326228 
L 293.194252 75.658652 
L 293.787105 75.591506 
L 294.041821 75.424954 
L 294.25315 75.655056 
L 295.483354 75.640594 
L 295.653227 75.500145 
L 296.000956 75.654715 
L 297.342291 75.657089 
L 297.385577 75.529141 
L 297.765439 75.652999 
L 300.650095 75.657791 
L 301.074701 75.562601 
L 301.470842 75.658696 
L 302.852799 75.637224 
L 302.858849 65.337483 
L 303.025616 75.656225 
L 303.278822 75.547558 
L 303.582249 75.623769 
L 304.000772 75.655919 
L 304.217083 75.657053 
L 304.934748 75.647322 
L 305.23299 75.361083 
L 305.271806 75.525547 
L 305.657557 75.656436 
L 306.562601 75.657166 
L 306.714535 75.548847 
L 307.77508 75.658679 
L 307.948969 75.556827 
L 308.113935 75.30781 
L 308.283938 75.658028 
L 308.623 75.434682 
L 309.020663 75.658582 
L 309.175719 75.657806 
L 309.34322 55.131753 
L 309.513708 66.826433 
L 309.688532 65.022808 
L 309.867755 67.695802 
L 310.032922 73.895175 
L 310.199132 68.123903 
L 310.383457 70.951544 
L 310.622084 70.993194 
L 310.83998 77.616914 
L 310.932718 75.669728 
L 311.134853 74.749068 
L 311.307739 83.089679 
L 311.772921 72.038563 
L 312.15808 81.796591 
L 312.495638 75.411141 
L 312.759017 77.822529 
L 312.873276 83.354331 
L 313.088602 74.888009 
L 313.255523 75.877475 
L 313.424762 78.357812 
L 313.63831 73.709701 
L 313.808485 76.791383 
L 314.027175 70.334544 
L 314.129018 74.674397 
L 314.236538 74.003857 
L 314.617614 79.909303 
L 314.841693 77.532101 
L 314.959422 77.575056 
L 315.208158 73.454304 
L 315.353341 76.332161 
L 315.505385 68.441939 
L 315.718049 73.341312 
L 315.844835 83.789197 
L 316.014367 77.792768 
L 316.18625 84.697805 
L 316.523845 71.951549 
L 316.777556 78.45774 
L 316.9048 76.980924 
L 317.093199 76.50635 
L 317.245815 84.857086 
L 317.53417 70.72823 
L 317.836171 78.457772 
L 317.999929 76.951032 
L 318.211707 79.446193 
L 318.339887 72.816533 
L 318.805448 78.419175 
L 318.892064 75.672188 
L 319.06051 74.877429 
L 319.189535 77.306196 
L 319.441923 74.45137 
L 319.714807 80.113792 
L 319.908715 78.926577 
L 320.078216 74.865435 
L 320.250245 76.732561 
L 320.417946 85.103752 
L 320.590623 77.612838 
L 320.757625 82.179983 
L 320.927305 75.893538 
L 321.27005 71.755303 
L 321.482542 79.585009 
L 321.82189 71.772154 
L 321.991001 71.64829 
L 322.161199 78.665141 
L 322.456979 77.127295 
L 322.519366 75.236162 
L 322.711929 80.601488 
L 322.923035 74.572428 
L 323.134746 76.048183 
L 323.262785 71.747885 
L 323.432248 73.602537 
L 323.606653 78.210914 
L 323.900399 76.87917 
L 324.069673 81.628728 
L 324.246903 81.922811 
L 324.629377 73.614239 
L 324.795161 73.156413 
L 325.059262 75.674409 
L 325.175199 75.466621 
L 325.215569 79.683567 
L 325.300658 76.238494 
L 325.531684 75.210964 
L 325.681534 70.263544 
L 325.980335 77.839734 
L 326.038276 71.671382 
L 326.19801 72.865098 
L 326.36067 84.94516 
L 326.530628 71.003787 
L 326.830195 73.129826 
L 326.96482 76.88643 
L 327.132749 67.884084 
L 327.260602 74.890935 
L 327.557074 82.097262 
L 327.600188 74.239083 
L 327.897245 85.508594 
L 328.066625 76.940939 
L 328.110356 78.616927 
L 328.404435 73.908694 
L 328.489361 70.19262 
L 328.828389 78.444231 
L 329.124871 75.361336 
L 329.209731 76.461872 
L 329.379625 73.347598 
L 329.553202 76.777408 
L 329.591774 74.396481 
L 329.719839 75.943049 
L 329.888578 69.782926 
L 330.059976 76.517739 
L 330.270216 71.109129 
L 330.398043 75.675957 
L 330.625258 74.593007 
L 330.739155 73.217147 
L 331.120495 77.749725 
L 331.292741 76.999109 
L 331.503014 75.343405 
L 331.800462 66.892894 
L 332.012465 80.42065 
L 332.145014 75.438178 
L 332.540626 79.371763 
L 332.69292 69.363925 
L 332.876478 73.963712 
L 333.199908 73.120934 
L 333.375719 81.308921 
L 333.588213 74.901295 
L 333.759582 74.46041 
L 333.971786 67.447381 
L 334.138502 77.512763 
L 334.308869 72.657423 
L 334.436495 75.176155 
L 334.648455 83.794019 
L 334.817489 77.759032 
L 335.100227 75.46497 
L 335.204983 77.328498 
L 335.330514 81.612913 
L 335.608172 78.060397 
L 335.709492 72.983114 
L 335.927626 77.945359 
L 336.048469 71.222596 
L 336.224944 77.880455 
L 336.732337 74.264585 
L 336.899337 75.097805 
L 337.117574 74.851677 
L 337.293661 75.621827 
L 337.45257 67.408277 
L 337.621031 78.160987 
L 338.003609 68.61858 
L 338.133824 82.874805 
L 338.344558 76.977274 
L 338.554274 74.984318 
L 338.681783 75.844614 
L 338.978796 75.635562 
L 339.224828 80.999523 
L 339.55743 68.065852 
L 339.772122 79.328787 
L 339.903329 73.664016 
L 340.451162 80.038073 
L 340.586125 71.193699 
L 340.959208 83.631814 
L 341.128984 76.326681 
L 341.297951 74.695907 
L 341.467727 76.759807 
L 341.637972 71.483629 
L 341.934351 73.613802 
L 342.040347 77.234216 
L 342.316368 74.139024 
L 342.400863 80.147915 
L 342.57043 76.626291 
L 342.739913 82.71256 
L 342.951477 76.096441 
L 343.045446 76.237542 
L 343.229872 78.185488 
L 343.421786 74.683542 
L 343.631449 76.805156 
L 343.772636 73.979425 
L 343.928841 78.174738 
L 344.099908 69.023599 
L 344.369857 75.099098 
L 344.482231 72.442763 
L 344.840167 80.495212 
L 345.20713 71.570057 
L 345.551427 75.682057 
L 345.720959 75.228775 
L 345.902944 73.983805 
L 346.109687 75.036087 
L 346.196103 77.112298 
L 346.403821 76.111642 
L 346.615837 69.46189 
L 346.827707 76.287386 
L 346.912651 75.530104 
L 347.299523 75.646474 
L 347.475644 73.434081 
L 347.633417 73.764898 
L 347.803881 74.437929 
L 348.015753 72.411557 
L 348.185291 75.490986 
L 348.356313 73.565038 
L 348.523586 74.610198 
L 348.693007 78.599015 
L 349.037588 73.419827 
L 349.203793 75.683463 
L 349.372161 75.266154 
L 349.628176 77.449885 
L 349.925185 76.756599 
L 350.135832 79.954458 
L 350.517122 68.491618 
L 350.696331 76.107494 
L 350.814637 73.37144 
L 351.026666 76.736578 
L 351.195685 70.948372 
L 351.365194 74.759914 
L 351.509094 73.781195 
L 351.662543 81.277425 
L 351.877094 81.997131 
L 352.08531 76.850241 
L 352.260707 75.943342 
L 352.382909 79.92274 
L 352.554141 69.952168 
L 352.721976 73.492674 
L 352.946188 75.530289 
L 353.073397 74.786275 
L 353.242657 78.694958 
L 353.625083 74.23353 
L 353.836757 71.232378 
L 353.966397 74.6111 
L 354.13657 75.685248 
L 354.302646 75.684967 
L 354.642624 68.240842 
L 354.85508 78.346374 
L 355.065817 74.266588 
L 355.192719 75.95268 
L 355.407921 81.250086 
L 355.577038 74.495076 
L 355.745361 73.556041 
L 355.949287 74.582554 
L 356.085016 74.037004 
L 356.230991 73.948695 
L 356.426715 75.151924 
L 356.671555 80.337295 
L 356.811993 71.285747 
L 357.150855 79.025527 
L 357.320675 66.879943 
L 357.490528 78.233653 
L 357.659579 74.624206 
L 357.829417 75.193001 
L 358.000876 80.927664 
L 358.211171 77.81491 
L 358.338888 69.324075 
L 358.563499 76.670144 
L 358.592695 75.376686 
L 358.933889 71.408324 
L 359.144002 75.003187 
L 359.270827 71.447549 
L 359.61245 77.506865 
L 359.653534 77.312086 
L 359.780237 68.9037 
L 359.954146 75.260595 
L 360.091177 75.643439 
L 360.299197 75.687726 
L 360.458851 82.702596 
L 360.629134 78.016543 
L 360.882914 74.130967 
L 361.010032 74.611623 
L 361.136887 67.008457 
L 361.476397 77.710539 
L 361.733628 77.640032 
L 361.905786 74.674954 
L 362.073701 77.145244 
L 362.240222 75.270131 
L 362.409393 76.953806 
L 362.584077 80.685823 
L 362.925742 73.686439 
L 363.100977 75.871091 
L 363.270181 72.176409 
L 363.608964 77.762111 
L 363.820669 72.146071 
L 363.951776 79.854482 
L 364.375902 68.971524 
L 364.541341 71.583745 
L 364.881542 80.11367 
L 365.182518 68.823874 
L 365.220012 78.351566 
L 365.389482 70.214547 
L 365.729557 74.776289 
L 365.900584 81.513769 
L 366.252308 74.906018 
L 366.468812 75.410727 
L 366.621035 73.254063 
L 366.803444 72.924165 
L 366.960622 77.459943 
L 367.130638 77.451273 
L 367.301033 72.292744 
L 367.522782 73.849215 
L 367.81022 74.239768 
L 367.853767 76.16007 
L 368.020944 74.115878 
L 368.364098 74.673198 
L 368.487176 75.518571 
L 368.580732 71.159279 
L 368.71389 80.260619 
L 368.967875 66.851622 
L 369.282241 77.112353 
L 369.444481 75.93358 
L 369.614449 73.76376 
L 369.78692 74.468248 
L 370.044403 71.295653 
L 370.32658 78.260177 
L 370.580304 75.604487 
L 370.712625 80.51702 
L 370.837374 76.305951 
L 371.047021 83.955802 
L 371.388147 71.342707 
L 371.600365 74.289004 
L 371.727157 74.315442 
L 371.910777 76.301005 
L 372.150169 81.275728 
L 372.245959 74.548534 
L 372.446198 88.268117 
L 372.657878 81.950085 
L 372.787447 82.555078 
L 373.138061 85.126036 
L 373.509424 79.852694 
L 373.677146 81.088491 
L 373.850257 75.364861 
L 374.025452 77.974556 
L 374.229445 74.373783 
L 374.667174 74.734863 
L 374.831501 75.409173 
L 375.077338 75.411449 
L 375.459057 75.667829 
L 375.840032 75.664555 
L 376.1859 75.670522 
L 376.391519 75.760054 
L 376.477847 75.610733 
L 377.326811 75.658702 
L 378.692363 75.663499 
L 378.860633 75.587255 
L 378.94467 74.91192 
L 379.121274 75.758003 
L 379.501332 75.873748 
L 379.628931 75.700017 
L 379.925155 75.694659 
L 380.096586 75.549622 
L 380.349949 75.803913 
L 380.605103 75.636491 
L 380.791005 75.95651 
L 380.875184 75.658042 
L 381.542275 75.615408 
L 381.752736 75.167354 
L 381.919293 76.077682 
L 382.099957 75.658712 
L 382.257824 75.654246 
L 382.470035 75.888108 
L 382.8079 75.75081 
L 383.026928 75.606448 
L 383.365255 75.683167 
L 386.840135 75.660648 
L 387.012774 75.728255 
L 387.39758 75.659141 
L 426.71952 75.658702 
L 426.71952 75.658702 
" clip-path="url(#p9be9003527)" style="fill: none; stroke: #0000ff; stroke-opacity: 0.5; stroke-width: 1.75; stroke-linecap: square"/>
   </g>
   <g id="line2d_30">
    <path d="M 30.123125 153.355768 
L 30.208488 157.668166 
L 30.38112 152.324017 
L 30.431722 155.409241 
L 30.555404 155.406471 
L 30.772923 152.246134 
L 30.979421 154.448074 
L 31.106137 152.324403 
L 31.402453 153.73938 
L 31.572361 153.427017 
L 31.614792 150.460625 
L 32.080767 151.492906 
L 32.165811 150.872452 
L 32.295439 150.989878 
L 32.632481 150.006996 
L 32.842987 153.051736 
L 33.055706 151.954538 
L 33.268349 152.623361 
L 33.436114 156.245805 
L 33.65902 150.279293 
L 33.733067 153.576823 
L 33.902213 151.850519 
L 34.073192 155.522916 
L 34.244118 154.474415 
L 34.456218 152.216158 
L 34.623026 151.817343 
L 34.792314 154.171186 
L 35.004698 154.42881 
L 35.217166 150.906004 
L 35.350095 151.815957 
L 35.575958 151.223347 
L 35.685478 155.718783 
L 35.854751 151.007315 
L 36.024422 153.610908 
L 36.322214 150.422688 
L 36.450681 152.06918 
L 36.533033 149.384397 
L 36.707029 148.82791 
L 36.875698 150.730075 
L 37.046755 149.091942 
L 37.254824 150.21656 
L 37.683956 148.27547 
L 38.608725 148.147158 
L 39.536236 152.188411 
L 40.463158 154.908985 
L 41.391153 153.307202 
L 42.318328 149.739914 
L 43.330632 148.247881 
L 44.34217 152.048269 
L 45.269824 152.670699 
L 45.369758 151.326255 
L 45.708017 154.656447 
L 45.877769 154.63256 
L 46.088886 153.040523 
L 46.301898 154.876527 
L 46.597578 148.654058 
L 46.728516 156.177709 
L 46.897868 155.176098 
L 47.110804 152.67858 
L 47.277811 156.485274 
L 47.489112 151.994579 
L 47.616976 146.910079 
L 47.998477 155.505533 
L 48.136191 154.462554 
L 48.338244 153.979579 
L 48.760858 148.93983 
L 48.845565 154.508479 
L 49.015445 149.804526 
L 49.186066 149.008886 
L 49.408084 153.085089 
L 49.743772 147.338849 
L 49.94869 152.162823 
L 50.289688 148.85575 
L 50.457528 153.111041 
L 50.67191 147.590011 
L 50.795942 149.37371 
L 50.966728 155.469653 
L 51.1772 156.97917 
L 51.389088 155.634144 
L 51.645131 152.898092 
L 51.813099 155.524364 
L 52.029054 153.672789 
L 52.237339 149.58213 
L 52.577616 158.113687 
L 52.8816 146.799251 
L 53.090912 152.320228 
L 53.4284 150.717051 
L 53.514064 146.734836 
L 53.63942 150.739766 
L 53.981045 152.397258 
L 54.190384 151.85195 
L 54.360996 146.340225 
L 54.82603 153.703605 
L 54.956028 155.014228 
L 55.165885 154.925583 
L 55.20779 153.066496 
L 55.377391 151.611269 
L 55.546953 152.064015 
L 55.716787 150.416366 
L 55.928163 150.697522 
L 56.139811 156.485249 
L 56.312152 154.261171 
L 56.572778 148.423853 
L 56.606232 148.973581 
L 56.776278 148.938022 
L 56.987171 153.123604 
L 57.114741 153.27381 
L 57.328375 151.51083 
L 57.495423 155.491125 
L 57.63529 153.232486 
L 57.835247 147.133032 
L 58.215793 157.649832 
L 58.512383 152.340458 
L 58.895175 149.81497 
L 59.063704 151.969302 
L 59.234137 148.999648 
L 59.571962 156.329579 
L 59.827567 149.720693 
L 59.963363 143.264566 
L 60.292911 151.548486 
L 60.464848 148.666434 
L 60.800951 148.610393 
L 60.976822 154.181529 
L 61.146068 146.533286 
L 61.352046 148.038069 
L 61.479737 153.806875 
L 61.649407 153.104571 
L 61.902674 148.13642 
L 62.029651 150.913401 
L 62.198876 158.646728 
L 62.36954 158.513745 
L 62.538159 150.974323 
L 62.752209 151.125449 
L 62.961974 155.932182 
L 63.088568 154.198358 
L 63.258885 148.995537 
L 63.427609 148.131286 
L 63.597276 150.086328 
L 63.76698 149.976179 
L 64.029328 150.187943 
L 64.401846 156.143927 
L 64.656742 147.442056 
L 64.826183 148.990511 
L 65.207701 158.008738 
L 65.376632 156.617679 
L 65.720106 148.584203 
L 66.013967 148.817365 
L 66.097843 147.995494 
L 66.395078 147.804692 
L 66.733393 154.375386 
L 66.782278 152.436452 
L 67.199369 150.213815 
L 67.36826 150.510596 
L 67.622787 151.57393 
L 67.919579 152.872633 
L 68.005199 152.494107 
L 68.173461 151.073321 
L 68.384964 151.44079 
L 68.682072 155.334782 
L 68.850587 155.892021 
L 69.06278 153.572667 
L 69.204886 150.075096 
L 69.444074 147.812941 
L 69.784553 157.771866 
L 70.292117 145.461872 
L 70.632917 149.887536 
L 71.034776 151.431486 
L 71.311757 153.243927 
L 71.396362 151.617008 
L 71.482825 143.832341 
L 71.903091 154.794723 
L 72.047947 153.116221 
L 72.2541 147.235697 
L 72.455647 146.390188 
L 72.750938 156.905818 
L 72.920507 154.721248 
L 73.139466 150.085539 
L 73.352587 154.567331 
L 73.534686 155.676473 
L 73.686789 152.496477 
L 74.109921 150.188921 
L 74.206045 156.817222 
L 75.159978 157.585344 
L 76.081987 155.690685 
L 77.097444 154.821871 
L 77.281491 163.017278 
L 77.450819 161.1766 
L 77.708508 154.818099 
L 77.87466 147.869134 
L 78.143561 143.924547 
L 78.31357 147.189592 
L 78.39985 155.335725 
L 78.704535 163.018844 
L 79.083011 156.451083 
L 79.42202 149.26827 
L 79.63493 153.18954 
L 79.765191 158.472208 
L 79.973202 161.318954 
L 80.159603 159.023339 
L 80.568021 143.069267 
L 80.652533 141.669876 
L 81.33338 164.641977 
L 81.504586 160.679616 
L 81.687253 153.279833 
L 81.857033 152.081655 
L 82.227359 158.232815 
L 82.396318 155.298372 
L 82.738078 144.985837 
L 83.456336 155.690893 
L 83.848819 150.675944 
L 84.166656 158.893184 
L 84.410101 160.173709 
L 84.716258 148.420162 
L 85.159252 144.719639 
L 85.419919 158.995862 
L 85.542125 156.059002 
L 85.760406 154.619858 
L 86.007739 154.308655 
L 86.091968 153.721591 
L 86.261366 153.878266 
L 86.430774 155.242599 
L 86.642608 155.507567 
L 86.772047 154.622492 
L 87.163022 146.967628 
L 87.285041 146.829417 
L 87.541958 147.036489 
L 87.919858 142.751788 
L 88.259181 151.746914 
L 88.478016 150.521424 
L 88.555769 141.148495 
L 88.703034 137.64745 
L 89.065717 149.133015 
L 89.40608 142.732807 
L 89.574916 143.621964 
L 89.912507 143.714671 
L 89.959224 141.679668 
L 90.133668 147.085473 
L 90.293557 156.415777 
L 90.598033 162.13378 
L 90.674914 157.001369 
L 90.886679 154.502732 
L 91.142734 159.448817 
L 91.352076 159.012155 
L 91.564522 160.455374 
L 91.693136 163.130701 
L 91.904328 161.848367 
L 92.210212 150.85153 
L 92.416413 152.682507 
L 92.589249 156.582605 
L 92.757533 156.223825 
L 92.923153 154.670586 
L 93.30467 158.040918 
L 93.558891 156.560568 
L 93.812986 150.177354 
L 94.067396 150.00742 
L 94.152397 150.625091 
L 94.321589 150.829338 
L 94.744749 150.898362 
L 94.956318 150.213221 
L 95.043538 148.844321 
L 95.211952 150.557905 
L 95.55029 156.584097 
L 95.719508 157.339808 
L 96.142608 153.663633 
L 96.270676 153.507166 
L 96.4408 153.570666 
L 96.95261 148.757055 
L 97.343804 143.073384 
L 97.477931 144.321688 
L 97.713015 149.007466 
L 98.031821 141.84431 
L 98.192057 145.847528 
L 98.532253 157.332958 
L 98.921218 145.450309 
L 99.24997 154.446225 
L 99.462663 153.512284 
L 99.632046 151.396111 
L 100.056713 157.388243 
L 100.232471 154.557204 
L 100.48223 144.765483 
L 100.862866 150.452697 
L 101.169278 145.776993 
L 101.424267 146.984367 
L 101.580071 149.562788 
L 101.793685 150.029829 
L 101.91964 151.410006 
L 102.259348 153.677155 
L 102.428275 153.461811 
L 102.600153 151.751031 
L 102.778668 152.701192 
L 103.109116 159.916198 
L 103.458469 157.974062 
L 103.629478 143.701873 
L 103.83995 144.872309 
L 104.348181 158.569805 
L 104.517746 154.873793 
L 104.861498 143.477981 
L 105.196351 147.43779 
L 105.407663 154.3945 
L 105.577514 152.355436 
L 105.920254 143.083893 
L 106.085239 144.473802 
L 106.635594 160.088156 
L 107.02132 148.722922 
L 107.317946 155.947739 
L 107.526366 157.173769 
L 108.160745 148.662795 
L 108.245512 149.905417 
L 108.37316 154.19518 
L 108.71261 154.817082 
L 108.923928 153.062411 
L 109.094448 154.120507 
L 109.390491 157.633512 
L 109.43308 160.621164 
L 109.686736 159.521852 
L 109.771592 152.507703 
L 110.025427 147.144743 
L 110.331598 151.777588 
L 110.579731 158.868597 
L 110.871475 148.767406 
L 111.040865 146.91379 
L 111.169527 147.810487 
L 111.382243 150.600203 
L 111.422378 153.232609 
L 111.635591 156.63083 
L 111.721354 154.914839 
L 111.889409 148.888452 
L 112.155737 144.883242 
L 112.439222 157.833353 
L 112.651028 159.243444 
L 113.160063 143.357402 
L 113.330162 143.239914 
L 113.585399 148.247669 
L 113.672587 153.035863 
L 113.839121 152.554187 
L 114.219957 135.871741 
L 114.389284 135.128416 
L 114.856487 157.128008 
L 115.109182 160.426911 
L 115.406387 155.192152 
L 115.576242 149.070772 
L 116.126303 162.823684 
L 116.341303 162.132136 
L 116.635127 145.963854 
L 116.931086 141.487409 
L 117.355276 158.110171 
L 117.873292 140.3554 
L 118.036874 141.222876 
L 118.416013 152.389294 
L 118.587797 152.345762 
L 118.928517 138.083227 
L 119.094154 139.074026 
L 119.441103 155.496243 
L 119.602122 155.855375 
L 120.025534 152.35413 
L 120.195827 153.874545 
L 120.492182 160.554279 
L 120.66241 161.00171 
L 121.084259 155.086311 
L 121.211233 156.566964 
L 121.380579 161.047189 
L 121.592624 161.386223 
L 121.974815 149.684195 
L 122.271157 149.085305 
L 122.440968 149.37273 
L 122.612636 148.45958 
L 122.779483 146.924795 
L 122.991122 147.231598 
L 123.249732 148.910521 
L 123.50009 151.92101 
L 123.839571 148.625888 
L 124.179838 152.333668 
L 124.478573 152.397518 
L 124.602127 151.276421 
L 125.110134 149.747595 
L 125.280282 149.435453 
L 125.599538 155.1337 
L 125.957627 149.503136 
L 126.219267 152.346395 
L 126.29772 157.499293 
L 126.539757 155.533484 
L 126.650832 146.753661 
L 126.808046 145.532865 
L 127.190535 154.363624 
L 127.527837 145.701524 
L 127.909631 153.395261 
L 128.078769 151.163173 
L 128.260753 146.709723 
L 128.594748 156.415304 
L 128.798798 153.770265 
L 129.096598 147.554669 
L 129.349225 150.590422 
L 129.646052 155.52472 
L 129.996863 155.386011 
L 130.366279 143.044044 
L 130.663144 139.860838 
L 130.929592 151.195381 
L 131.085985 150.807315 
L 131.405396 139.481971 
L 131.911909 149.712252 
L 132.079235 149.085329 
L 132.334861 152.368109 
L 132.588088 153.032595 
L 132.973367 147.93919 
L 133.156744 147.040345 
L 133.32576 146.870028 
L 133.540556 149.579962 
L 133.707463 153.250071 
L 133.876458 153.703355 
L 134.150679 150.0156 
L 134.218447 147.280291 
L 134.397765 149.376506 
L 134.569699 154.722805 
L 134.809582 158.623594 
L 135.276098 146.844556 
L 135.79731 159.123712 
L 136.208455 155.403204 
L 136.334538 154.856967 
L 136.546178 153.08298 
L 136.715717 152.602472 
L 136.842814 153.014757 
L 137.011745 152.242037 
L 137.181594 152.402144 
L 137.520829 153.446273 
L 137.689495 156.061338 
L 137.774251 154.937949 
L 138.071651 141.472531 
L 138.282334 144.248311 
L 138.417128 150.014093 
L 138.62194 150.495393 
L 139.182907 132.391637 
L 139.474038 147.842375 
L 139.643584 156.552569 
L 139.814159 159.307092 
L 140.15563 151.442503 
L 140.575231 159.915624 
L 140.704082 159.328108 
L 141.083839 155.957373 
L 141.295663 154.808052 
L 141.676069 146.381395 
L 141.761051 150.120267 
L 141.930554 152.188255 
L 142.099736 146.887532 
L 142.311191 147.046671 
L 142.441912 154.851593 
L 142.649963 156.549361 
L 142.989577 143.916511 
L 143.331007 150.465837 
L 143.500232 147.527213 
L 143.68294 147.080381 
L 143.922243 153.524271 
L 144.094788 150.626824 
L 144.221453 142.449629 
L 144.429676 145.072771 
L 144.641652 150.872436 
L 144.732708 150.182809 
L 144.933228 143.59544 
L 145.111691 144.113501 
L 145.278414 151.454854 
L 145.44924 153.346497 
L 145.634379 145.050597 
L 145.797039 143.296973 
L 146.173087 149.644311 
L 146.511827 146.236977 
L 146.765489 147.074944 
L 146.8503 148.421742 
L 147.022582 148.633026 
L 147.231808 147.306025 
L 147.443022 147.520472 
L 147.570049 147.113523 
L 147.73987 147.390978 
L 147.996616 147.525563 
L 148.33224 149.698489 
L 148.502702 149.69069 
L 148.798095 138.087293 
L 148.974277 137.525289 
L 149.492624 149.384068 
L 149.731464 141.813715 
L 149.943028 144.108312 
L 150.196917 153.459072 
L 150.366789 154.830293 
L 150.537825 154.48252 
L 150.748112 155.931318 
L 151.003534 156.111855 
L 151.257304 152.640677 
L 151.426191 153.86213 
L 151.730476 154.449474 
L 151.893861 153.079775 
L 151.978792 149.433826 
L 152.148857 149.812322 
L 152.485707 154.713525 
L 152.656174 155.707735 
L 152.993937 159.65718 
L 153.206371 156.157786 
L 153.346554 151.726805 
L 153.672497 151.484049 
L 153.715444 155.238156 
L 154.054029 161.206913 
L 154.265953 157.531601 
L 154.604456 143.792791 
L 154.732523 146.745095 
L 155.283771 164.265943 
L 155.452561 165.127375 
L 155.834415 155.991965 
L 155.962116 152.990208 
L 156.172913 153.867055 
L 156.342312 158.555728 
L 156.555136 161.231434 
L 156.690821 158.569332 
L 157.062504 141.074406 
L 157.273999 137.125444 
L 157.443945 139.814705 
L 158.121734 163.14299 
L 158.252305 164.39547 
L 158.629502 165.116069 
L 158.845246 165.643152 
L 158.88408 165.57429 
L 158.978924 164.36305 
L 159.947999 140.106277 
L 160.198699 128.810581 
L 160.53824 128.183575 
L 160.919946 139.620648 
L 161.25853 153.791954 
L 161.430409 153.277467 
L 161.647741 129.155095 
L 161.774107 140.109333 
L 161.998818 136.906544 
L 162.150184 118.890465 
L 162.489776 136.927072 
L 162.870294 138.647076 
L 163.20909 132.549072 
L 163.378075 124.503499 
L 163.888791 121.167219 
L 164.606674 158.363715 
L 164.776901 160.446678 
L 164.945528 166.783905 
L 165.157176 163.653123 
L 165.498933 165.86881 
L 165.879072 161.216721 
L 166.134258 160.76548 
L 166.730772 147.847249 
L 166.900755 153.451356 
L 167.112034 153.407692 
L 167.387649 153.820759 
L 167.41151 149.090406 
L 167.875157 165.109999 
L 167.959347 160.482601 
L 168.301554 169.190465 
L 168.509423 171.53139 
L 168.806665 164.747853 
L 168.975755 167.809714 
L 169.188343 160.384499 
L 169.398865 169.18684 
L 169.695677 161.014053 
L 170.299437 147.699617 
L 170.553549 155.601818 
L 170.766587 159.917269 
L 170.935084 167.3348 
L 171.485496 174.520627 
L 171.698237 176.429147 
L 171.826086 167.592366 
L 172.121494 173.261274 
L 172.333815 163.958895 
L 172.50382 158.680622 
L 172.671992 157.429229 
L 172.842744 151.574163 
L 173.016003 150.544728 
L 173.223325 152.002255 
L 173.353007 147.936363 
L 173.561926 153.455036 
L 173.773281 152.017528 
L 173.900679 152.799996 
L 174.155156 151.453724 
L 174.324346 155.02351 
L 174.451892 155.346035 
L 174.620548 155.228841 
L 174.789893 152.527943 
L 175.214102 153.728823 
L 175.425974 156.891924 
L 175.553177 156.721116 
L 175.764443 154.710717 
L 175.852121 159.406714 
L 176.230419 164.840908 
L 176.359697 169.118336 
L 176.557477 169.220059 
L 176.889358 165.016117 
L 177.248345 160.976549 
L 177.417469 157.428525 
L 177.745055 157.222071 
L 177.928492 150.947979 
L 178.137435 160.242619 
L 178.30762 158.89428 
L 178.476795 155.877421 
L 178.645429 163.664149 
L 179.111537 158.74745 
L 179.280957 158.844381 
L 179.408577 159.148748 
L 179.625663 173.812088 
L 180.385117 139.822746 
L 180.5696 139.79602 
L 180.936557 151.630782 
L 181.276348 158.115592 
L 181.486416 162.459695 
L 181.656413 163.533822 
L 181.868315 160.221806 
L 182.038772 160.406597 
L 182.168052 164.165702 
L 182.546678 151.751616 
L 182.673868 152.332039 
L 182.886974 153.735029 
L 183.56438 135.099312 
L 183.734671 136.83425 
L 183.902566 139.83508 
L 184.198964 129.107714 
L 184.453401 133.478454 
L 184.496864 126.764711 
L 184.622598 125.753456 
L 184.79248 125.352045 
L 184.962167 131.123577 
L 185.132542 142.856888 
L 185.51484 152.088468 
L 185.725282 163.874204 
L 185.853201 163.931322 
L 186.27569 160.400667 
L 186.446299 167.736478 
L 186.540187 166.961799 
L 186.741041 155.130772 
L 186.953119 158.720275 
L 187.187454 157.294712 
L 187.359619 157.394069 
L 187.463302 162.15966 
L 187.67454 154.687714 
L 188.226147 172.608245 
L 188.491706 163.539464 
L 188.610475 165.342578 
L 188.690603 162.87859 
L 188.95567 161.794624 
L 189.034432 162.817491 
L 189.206591 158.386105 
L 189.368239 161.802026 
L 189.537382 160.77833 
L 189.791526 155.249676 
L 189.918795 159.894506 
L 190.215079 161.682433 
L 190.299801 163.583493 
L 190.469311 164.182119 
L 190.597566 160.449286 
L 190.851555 169.151454 
L 191.021251 166.362049 
L 191.318034 151.644942 
L 191.613169 151.596524 
L 191.784344 152.087602 
L 191.952319 165.775431 
L 191.995124 164.954414 
L 192.164023 164.17942 
L 192.376287 166.973887 
L 192.593747 164.781051 
L 192.75751 161.361598 
L 192.927232 164.199758 
L 193.066702 160.773544 
L 193.308105 160.330775 
L 193.616064 164.418785 
L 193.960333 154.029217 
L 194.114193 144.102391 
L 194.325277 138.765198 
L 194.578832 142.909722 
L 194.748241 148.957322 
L 194.833105 156.769959 
L 195.172747 161.416148 
L 195.596059 156.088054 
L 195.768817 164.095102 
L 195.892599 158.245065 
L 196.062625 162.291081 
L 196.739915 143.203702 
L 196.915731 146.53539 
L 197.121037 145.869746 
L 197.248351 147.473693 
L 197.48015 146.983818 
L 197.657781 148.571858 
L 197.969721 148.504714 
L 198.102842 150.415759 
L 198.239367 150.029522 
L 198.435481 150.698151 
L 198.52381 147.170518 
L 198.775256 148.124301 
L 198.861797 156.036763 
L 199.07134 160.318968 
L 199.203239 158.848798 
L 199.500713 162.958284 
L 199.668983 157.10796 
L 199.749301 159.557811 
L 200.053775 164.343332 
L 200.301521 156.815841 
L 200.430514 152.669148 
L 200.683007 140.209172 
L 200.788702 144.756612 
L 201.024141 142.033199 
L 201.193374 145.93442 
L 201.362048 154.176253 
L 201.490806 150.116499 
L 201.828146 161.173314 
L 202.039924 167.787817 
L 202.20971 162.05213 
L 202.463202 161.133048 
L 202.590877 155.640508 
L 202.89932 151.989781 
L 203.098227 159.369051 
L 203.228071 157.884657 
L 203.268613 164.885777 
L 203.947169 153.190565 
L 204.116307 154.434796 
L 204.370741 167.195604 
L 204.582258 161.46869 
L 204.672472 155.911618 
L 205.009713 165.882485 
L 205.218008 167.370302 
L 205.344681 159.309996 
L 205.51642 161.84974 
L 205.810796 156.752157 
L 205.896329 160.899358 
L 206.238494 166.683502 
L 206.405158 161.026236 
L 206.577675 162.717618 
L 206.746714 157.700226 
L 206.928078 167.411371 
L 207.08564 160.179924 
L 207.469729 168.860797 
L 207.636659 162.375788 
L 207.805922 169.365426 
L 207.975575 165.265589 
L 208.187965 162.917694 
L 208.334182 159.010968 
L 208.486494 161.189665 
L 208.739576 158.58935 
L 209.204924 167.978269 
L 209.50165 158.515338 
L 209.548127 168.027852 
L 209.936743 157.327197 
L 210.067739 164.66614 
L 210.390997 156.725707 
L 210.433873 172.381376 
L 210.814813 164.668224 
L 211.364956 158.173326 
L 211.495787 152.592567 
L 211.873967 148.687119 
L 212.048403 160.895051 
L 212.213597 156.86643 
L 212.341049 163.685734 
L 212.550962 163.416834 
L 212.720859 168.916755 
L 212.937302 168.015128 
L 213.101394 160.937086 
L 213.441322 163.117941 
L 213.570151 163.319397 
L 213.821911 162.971099 
L 213.957283 161.716618 
L 214.161025 168.646778 
L 214.290003 162.063112 
L 214.50994 166.966128 
L 214.627553 161.415339 
L 214.798203 164.743479 
L 215.009468 163.70585 
L 215.347589 170.747399 
L 215.701621 173.256137 
L 216.111171 158.853856 
L 216.238345 164.521385 
L 216.407831 162.110265 
L 216.588366 165.256263 
L 216.748703 162.6233 
L 217.043154 172.03679 
L 217.127931 162.189345 
L 217.339682 163.74946 
L 217.467122 159.078941 
L 217.847967 164.931509 
L 217.976159 172.578524 
L 218.144695 170.407278 
L 218.356098 171.328063 
L 218.500881 169.325799 
L 218.700664 168.618857 
L 219.247622 158.165208 
L 219.501498 160.610722 
L 219.714269 159.335609 
L 219.755846 164.317403 
L 220.136612 167.498935 
L 220.266396 170.271444 
L 220.51958 168.751159 
L 220.6452 153.436022 
L 220.953662 169.653741 
L 221.156737 170.546406 
L 221.423255 172.712734 
L 221.596192 170.170822 
L 221.879837 156.818278 
L 222.263727 163.15308 
L 222.439627 165.069463 
L 222.70171 170.325779 
L 223.039195 164.266097 
L 223.090016 155.150914 
L 223.463483 137.671095 
L 223.8448 156.976416 
L 224.234153 175.370782 
L 224.35494 166.792091 
L 224.866834 152.752362 
L 225.03118 141.615404 
L 225.285092 134.999797 
L 225.372097 95.091755 
L 225.793466 109.881406 
L 225.920548 109.223101 
L 226.09929 80.166394 
L 226.344051 66.774191 
L 226.430524 47.242113 
L 226.811414 20.64551 
L 227.064697 13.596907 
L 227.127607 14.05596 
L 227.365275 25.855743 
L 227.674485 72.896438 
L 227.847389 111.52115 
L 228.142151 137.258072 
L 228.355992 136.790228 
L 228.817729 122.063695 
L 228.902703 122.476825 
L 229.029989 125.826382 
L 229.839316 172.15479 
L 229.922456 156.18316 
L 230.132561 149.094052 
L 230.301565 138.152509 
L 230.429409 138.880666 
L 230.640215 145.82526 
L 230.979436 169.157952 
L 231.14882 177.430165 
L 231.322223 165.466121 
L 231.531017 159.729744 
L 231.871564 144.126374 
L 232.038449 140.783207 
L 232.215049 140.161835 
L 232.549108 144.372361 
L 232.718301 150.258302 
L 233.013519 149.945573 
L 233.098697 146.994389 
L 233.397525 150.792236 
L 233.444066 148.971281 
L 233.819635 172.461342 
L 234.072837 176.176442 
L 234.497257 155.458238 
L 234.837901 151.413107 
L 235.386025 164.44715 
L 235.555667 163.096427 
L 236.234316 138.13343 
L 236.446666 143.227513 
L 236.715023 140.464361 
L 236.788597 142.46427 
L 237.122748 139.967302 
L 237.419461 140.678801 
L 237.716558 144.232424 
L 238.236451 170.937499 
L 238.393715 172.689772 
L 238.73852 161.233606 
L 238.90188 157.80718 
L 239.07193 157.460842 
L 239.626172 179.35806 
L 240.688675 131.110132 
L 241.021898 123.846766 
L 241.699511 115.070183 
L 241.869114 112.915694 
L 242.039676 113.692201 
L 242.208459 115.911067 
L 242.504597 116.258928 
L 242.589775 118.481182 
L 242.930499 120.860033 
L 243.104306 123.042177 
L 243.376815 124.194288 
L 243.69418 129.714766 
L 243.907216 129.171554 
L 243.991807 131.207228 
L 244.287309 134.394996 
L 244.498734 146.235093 
L 245.558972 164.850913 
L 245.773743 166.109586 
L 245.897876 165.544556 
L 246.109951 163.197844 
L 246.44791 149.466549 
L 246.702697 146.929695 
L 246.802299 144.098715 
L 246.957153 144.188783 
L 247.422332 149.285711 
L 247.719042 158.785051 
L 248.017041 171.510763 
L 248.235839 171.649454 
L 248.398067 168.292249 
L 248.528754 169.877417 
L 248.950324 166.74544 
L 249.118574 169.553437 
L 249.244683 169.006412 
L 249.419659 173.285391 
L 249.62552 167.737273 
L 249.963855 152.176422 
L 250.133847 153.770733 
L 250.431783 162.369925 
L 250.474505 171.507805 
L 250.826047 177.028158 
L 250.985722 177.419528 
L 251.406349 167.570464 
L 251.617816 168.449048 
L 251.914486 174.770151 
L 252.126409 171.128324 
L 252.591982 150.869726 
L 252.974314 161.888111 
L 253.185567 169.006204 
L 253.482509 168.70664 
L 253.651974 166.149225 
L 253.90543 164.500314 
L 254.203275 168.951434 
L 254.551934 171.246373 
L 254.70994 170.836327 
L 254.879815 172.255851 
L 255.048954 164.220311 
L 255.261167 160.932134 
L 255.472717 164.341251 
L 255.563689 172.119621 
L 255.778345 169.786907 
L 255.946801 169.710477 
L 256.277423 174.702692 
L 256.575478 171.85672 
L 256.658939 167.625775 
L 257.03967 172.419771 
L 257.252394 173.671129 
L 257.346781 169.522015 
L 257.721084 160.584232 
L 258.05988 166.536326 
L 258.233842 165.899442 
L 258.441146 165.651757 
L 258.784799 169.044245 
L 258.956482 168.665359 
L 259.162306 164.039981 
L 259.248789 166.037926 
L 259.632102 156.4608 
L 259.807066 157.69906 
L 260.179472 171.718777 
L 260.348945 173.765293 
L 260.722874 164.846303 
L 260.902935 166.543813 
L 261.05924 174.482653 
L 261.409584 177.521766 
L 261.748455 167.790192 
L 262.256265 173.291405 
L 262.425473 172.842212 
L 262.637231 163.888732 
L 262.848995 162.25451 
L 263.360816 167.713854 
L 263.699092 152.787237 
L 263.823927 153.740848 
L 264.429262 174.203628 
L 264.545142 168.773632 
L 264.759555 167.323466 
L 264.970358 168.0659 
L 265.267848 173.285831 
L 265.398992 173.601533 
L 265.904298 164.132146 
L 265.989883 164.131387 
L 266.242546 162.486028 
L 266.455063 166.695539 
L 266.838781 167.574223 
L 267.174769 170.811339 
L 267.386396 171.198112 
L 267.767353 161.972328 
L 268.024419 168.774594 
L 268.147936 175.583656 
L 268.234569 174.79085 
L 268.529896 168.497338 
L 268.571647 155.80396 
L 268.829844 155.358558 
L 269.038157 160.324627 
L 269.08285 166.713067 
L 269.344453 171.79121 
L 269.46201 171.568819 
L 269.885272 155.191118 
L 270.013033 154.640162 
L 270.521021 174.690465 
L 270.818277 171.95372 
L 271.03149 158.716645 
L 271.398781 166.937222 
L 271.581687 168.414958 
L 271.751749 167.777243 
L 271.921105 166.229963 
L 272.132595 166.034253 
L 272.260131 163.783481 
L 272.515151 163.299193 
L 272.683717 163.738162 
L 272.810822 167.040265 
L 273.065186 168.869982 
L 273.149796 172.202178 
L 273.319842 174.47076 
L 273.53148 175.067327 
L 274.081203 159.888611 
L 274.54759 175.893349 
L 274.717998 174.893739 
L 275.056104 160.375203 
L 275.268003 160.545773 
L 275.606669 171.800813 
L 275.776467 174.871024 
L 275.945389 170.535593 
L 276.116421 161.644601 
L 276.412117 156.035191 
L 276.708887 168.857005 
L 276.919068 174.085718 
L 277.09288 173.113758 
L 277.555402 158.72943 
L 278.020969 171.415838 
L 278.106425 173.491147 
L 278.316665 170.335978 
L 278.613331 159.788247 
L 278.783207 161.561665 
L 279.293612 176.060408 
L 279.503078 178.499006 
L 279.71606 174.733966 
L 279.842886 169.274479 
L 280.181148 163.085437 
L 280.351218 167.689967 
L 280.564097 169.038124 
L 280.860627 168.924928 
L 281.070263 165.131762 
L 281.339236 166.521308 
L 281.413568 169.169941 
L 281.579135 169.977211 
L 281.920842 174.044923 
L 282.090818 171.848894 
L 282.384754 172.267919 
L 282.543679 171.830195 
L 282.639162 175.328425 
L 282.808188 176.756267 
L 282.977606 177.169186 
L 283.151894 176.334822 
L 283.358707 174.637227 
L 283.613416 175.749532 
L 283.698004 176.906951 
L 283.910159 177.823023 
L 284.08315 177.924475 
L 284.248978 178.385839 
L 284.418313 175.362212 
L 284.717118 163.765764 
L 285.096261 154.320119 
L 285.520056 156.778356 
L 285.646819 156.328563 
L 285.81626 151.381691 
L 285.985482 150.649825 
L 286.155217 152.509889 
L 286.622105 164.983101 
L 286.792443 169.420801 
L 287.560692 157.734656 
L 287.766851 159.715293 
L 288.317828 178.143415 
L 288.657688 156.162465 
L 288.783956 153.940706 
L 288.953321 153.525925 
L 289.123111 156.251026 
L 289.303563 156.240136 
L 289.470734 155.249812 
L 290.033133 159.667766 
L 290.734475 173.675846 
L 291.073508 171.414993 
L 291.245322 167.561872 
L 291.414636 171.010749 
L 291.623541 169.972468 
L 291.794655 168.366029 
L 292.004972 164.463683 
L 292.301828 147.246078 
L 292.471768 143.93366 
L 292.642922 144.431593 
L 293.024992 150.725665 
L 293.871746 174.722908 
L 294.041821 173.379786 
L 294.25315 175.484103 
L 294.594073 170.059449 
L 294.763485 173.51372 
L 295.10182 175.961223 
L 295.314505 175.775044 
L 295.483354 173.548987 
L 295.653227 169.416228 
L 295.949234 167.941173 
L 296.204314 176.727898 
L 296.339898 176.832966 
L 296.620227 168.465618 
L 296.874676 145.450307 
L 297.385577 123.649627 
L 297.596457 124.391138 
L 298.65639 163.17127 
L 298.828636 165.155999 
L 299.000083 164.880386 
L 299.140187 164.334946 
L 299.335242 159.461901 
L 299.642621 157.617453 
L 300.226685 167.773367 
L 300.3969 167.26095 
L 300.650095 168.056864 
L 300.777042 170.961646 
L 300.906614 171.225773 
L 301.244204 169.064184 
L 301.470842 168.381906 
L 301.627263 165.937785 
L 301.96383 158.637592 
L 302.133749 155.898828 
L 302.345621 154.546642 
L 302.474282 154.553952 
L 302.852799 157.833874 
L 302.858849 139.511465 
L 303.025616 170.287109 
L 303.406597 174.437593 
L 303.582249 174.756092 
L 303.747292 173.944846 
L 304.085778 175.480415 
L 304.217083 173.951211 
L 304.424429 169.164281 
L 304.934748 149.811311 
L 305.657557 141.3963 
L 305.824236 141.082017 
L 306.292305 149.644216 
L 306.381132 157.508194 
L 306.926993 169.519347 
L 307.266957 171.247328 
L 307.565109 157.356862 
L 307.77508 156.282518 
L 307.948969 159.089857 
L 308.283938 175.59495 
L 308.452796 175.378053 
L 308.623 168.669725 
L 308.928836 162.395952 
L 309.34322 129.995308 
L 309.688532 141.723277 
L 310.032922 149.200234 
L 310.199132 154.23937 
L 310.932718 143.296087 
L 311.134853 143.546739 
L 311.307739 141.199157 
L 311.601472 147.394173 
L 311.772921 155.765295 
L 312.322859 159.777878 
L 312.495638 167.78098 
L 312.873276 170.505526 
L 313.424762 160.108914 
L 313.63831 161.754873 
L 313.808485 174.321453 
L 314.027175 176.445914 
L 314.129018 175.221403 
L 314.425086 161.317785 
L 314.617614 158.768777 
L 314.841693 161.293886 
L 314.959422 164.010372 
L 315.208158 172.606817 
L 315.844835 152.19982 
L 316.18625 163.28273 
L 316.523845 175.180909 
L 316.777556 174.387671 
L 316.9048 172.370873 
L 317.245815 164.582854 
L 317.53417 164.927712 
L 317.836171 169.731309 
L 317.999929 166.581777 
L 318.211707 176.612182 
L 318.339887 175.061186 
L 318.466581 167.074844 
L 318.805448 161.27882 
L 318.892064 157.65296 
L 319.06051 158.638128 
L 319.441923 173.8722 
L 319.531197 169.930965 
L 319.714807 173.686704 
L 319.908715 171.320564 
L 320.250245 163.044228 
L 320.757625 177.537927 
L 320.927305 176.697695 
L 321.27005 179.374958 
L 321.482542 174.731885 
L 321.616112 175.084339 
L 321.82189 174.30066 
L 321.991001 174.647472 
L 322.161199 175.776877 
L 322.519366 177.476201 
L 323.900399 128.791638 
L 324.069673 130.170586 
L 324.795161 167.357654 
L 325.059262 166.887309 
L 325.175199 168.442854 
L 325.215569 165.385861 
L 325.300658 165.495711 
L 325.681534 162.411373 
L 326.038276 149.88838 
L 326.36067 141.798519 
L 326.530628 148.836003 
L 326.96482 153.37113 
L 327.260602 162.368665 
L 327.557074 160.126475 
L 327.600188 166.60844 
L 327.897245 167.519086 
L 328.110356 173.738463 
L 328.404435 176.374289 
L 328.489361 173.024834 
L 328.659966 170.83463 
L 329.124871 154.664771 
L 329.379625 139.26247 
L 329.553202 138.907221 
L 329.591774 136.93597 
L 329.888578 141.254964 
L 330.059976 149.663936 
L 330.270216 151.131049 
L 330.398043 155.436108 
L 330.625258 157.665652 
L 331.120495 172.271048 
L 331.292741 178.392449 
L 331.503014 179.609714 
L 331.800462 175.786853 
L 332.145014 156.741404 
L 332.436034 148.427271 
L 332.69292 136.948189 
L 333.029782 130.42943 
L 333.375719 124.394106 
L 333.588213 126.887408 
L 333.759582 126.842723 
L 334.308869 144.824048 
L 334.436495 151.819514 
L 334.648455 156.43467 
L 334.817489 164.501212 
L 335.204983 173.214654 
L 335.709492 158.370064 
L 335.927626 160.719495 
L 336.048469 163.314489 
L 336.224944 171.937362 
L 336.482929 171.689519 
L 336.899337 152.953101 
L 337.45257 131.761081 
L 337.621031 121.892144 
L 337.795931 120.756997 
L 338.003609 123.002206 
L 338.133824 117.712807 
L 338.554274 123.902487 
L 339.224828 139.483224 
L 339.903329 178.038112 
L 340.109843 179.011851 
L 340.326194 172.801366 
L 340.789429 150.568178 
L 341.297951 140.261727 
L 341.467727 140.340599 
L 341.637972 138.451929 
L 341.934351 140.459166 
L 342.040347 142.182867 
L 342.316368 143.341167 
L 342.57043 152.280409 
L 342.739913 159.562282 
L 342.951477 161.169442 
L 343.045446 165.534737 
L 343.229872 168.009594 
L 343.421786 168.532161 
L 343.928841 154.673966 
L 344.099908 147.967966 
L 344.369857 147.895856 
L 344.482231 147.274798 
L 344.649685 149.991234 
L 344.840167 149.44071 
L 345.551427 161.429805 
L 345.720959 162.296824 
L 345.902944 165.508508 
L 346.109687 164.584375 
L 346.196103 165.031933 
L 346.403821 162.752669 
L 346.615837 158.372721 
L 346.827707 157.839734 
L 346.912651 154.682184 
L 347.124374 154.169953 
L 347.299523 154.209141 
L 347.633417 151.567897 
L 348.015753 148.695461 
L 348.185291 148.89534 
L 348.356313 148.676204 
L 348.693007 149.146681 
L 348.86325 148.835073 
L 349.037588 150.193563 
L 349.754022 179.420809 
L 350.263688 164.935065 
L 350.517122 162.407014 
L 350.814637 156.279259 
L 351.026666 152.628265 
L 351.195685 154.043438 
L 351.662543 148.871427 
L 351.877094 148.914444 
L 352.08531 150.639991 
L 352.260707 153.036244 
L 352.382909 152.006625 
L 352.721976 158.376914 
L 352.946188 159.589269 
L 353.242657 169.13883 
L 353.582456 173.765552 
L 353.625083 176.792476 
L 353.966397 169.032837 
L 354.302646 160.5178 
L 354.642624 142.005162 
L 354.85508 141.138292 
L 355.065817 137.330606 
L 355.192719 137.648137 
L 355.949287 153.230052 
L 356.426715 167.147954 
L 356.671555 164.584107 
L 356.982325 154.605383 
L 357.150855 147.3533 
L 357.320675 148.077103 
L 357.490528 141.38413 
L 357.659579 139.611555 
L 358.000876 148.017611 
L 358.338888 160.97909 
L 358.563499 165.340631 
L 358.592695 164.779106 
L 358.719778 162.791813 
L 358.933889 167.030488 
L 359.144002 164.234453 
L 359.270827 164.485313 
L 359.653534 170.234726 
L 360.458851 130.763862 
L 360.882914 128.315621 
L 361.010032 125.419858 
L 361.136887 129.333815 
L 361.435548 124.692373 
L 361.476397 127.176426 
L 361.733628 129.668696 
L 362.925742 165.889174 
L 363.100977 167.008322 
L 363.270181 162.386257 
L 363.608964 158.13263 
L 363.820669 153.866902 
L 363.951776 154.860233 
L 364.161329 153.746737 
L 364.375902 150.797516 
L 364.722943 160.43974 
L 364.881542 161.589258 
L 365.182518 161.503596 
L 365.220012 163.787285 
L 365.389482 162.98454 
L 365.686628 163.138992 
L 365.900584 164.741776 
L 366.138243 164.832679 
L 366.252308 165.178631 
L 366.621035 162.035142 
L 367.301033 133.468234 
L 367.522782 134.637067 
L 367.81022 129.313308 
L 367.853767 130.091664 
L 368.020944 129.794689 
L 368.580732 134.137322 
L 368.71389 133.44381 
L 368.967875 133.354147 
L 369.282241 129.803304 
L 369.614449 133.327146 
L 369.78692 137.363724 
L 370.044403 139.59417 
L 370.157908 144.864996 
L 370.580304 152.109696 
L 371.047021 170.910337 
L 371.265448 179.765275 
L 371.600365 174.368979 
L 371.727157 174.512106 
L 372.150169 165.888088 
L 372.956296 132.627527 
L 373.138061 132.564013 
L 373.850257 156.140073 
L 374.355377 143.242879 
L 374.667174 141.264992 
L 374.831501 141.735784 
L 375.077338 141.998178 
L 375.459057 160.350061 
L 375.79757 163.818098 
L 375.840032 160.04331 
L 376.1859 149.940288 
L 376.391519 150.048027 
L 376.477847 152.66213 
L 376.834518 157.231733 
L 377.03422 163.724137 
L 377.326811 162.988395 
L 377.543905 164.456498 
L 377.878598 164.460408 
L 377.968209 162.051603 
L 378.232013 159.570446 
L 378.390897 159.882504 
L 378.692363 164.823278 
L 378.860633 165.1697 
L 379.501332 140.240974 
L 379.628931 133.726275 
L 380.096586 120.700535 
L 380.476163 111.928298 
L 380.791005 121.137147 
L 381.070315 138.861314 
L 381.542275 166.319967 
L 381.752736 170.532663 
L 381.919293 169.470769 
L 382.257824 164.817281 
L 382.61643 162.557229 
L 383.026928 158.056195 
L 383.576642 152.986672 
L 384.091451 143.350143 
L 384.239015 142.530162 
L 384.599992 143.945218 
L 384.834546 142.787732 
L 384.932511 140.260541 
L 385.08435 141.617515 
L 385.446265 154.128059 
L 385.99401 175.365678 
L 386.333418 172.034617 
L 386.501335 171.672072 
L 386.670952 170.66175 
L 386.840135 170.958858 
L 387.012774 171.712087 
L 387.217688 171.157936 
L 388.079516 161.040949 
L 388.249647 162.360963 
L 388.797259 174.763116 
L 388.966629 173.688747 
L 389.517599 157.80303 
L 389.900602 139.686517 
L 390.240034 130.13566 
L 390.549956 127.739688 
L 390.834086 118.293833 
L 391.04606 109.154492 
L 391.224458 109.816361 
L 391.384422 112.681554 
L 391.769138 126.947131 
L 392.444547 159.515048 
L 392.657488 163.580916 
L 392.86795 164.019743 
L 392.995183 162.668323 
L 393.348936 160.461636 
L 393.503796 161.130557 
L 393.801028 163.559755 
L 394.020641 169.930964 
L 394.450617 173.237496 
L 394.566845 173.155416 
L 394.741847 173.356865 
L 395.114419 176.154864 
L 395.456379 178.727416 
L 395.665684 177.151153 
L 396.178058 168.505302 
L 397.040588 143.876756 
L 397.421692 137.471867 
L 398.619531 122.572473 
L 398.969333 122.110144 
L 399.848076 164.845076 
L 400.046744 167.918731 
L 400.554685 160.614999 
L 401.108306 169.352245 
L 401.447051 180.831669 
L 401.618741 174.486876 
L 402.142928 140.830914 
L 402.306023 142.006024 
L 402.517274 144.947884 
L 403.026978 158.037208 
L 403.29267 162.810568 
L 403.378983 168.467167 
L 403.878309 175.044647 
L 404.596457 149.618444 
L 404.766952 147.339663 
L 404.978359 148.095824 
L 405.14931 149.209671 
L 405.613822 159.081484 
L 405.658865 165.316962 
L 405.828125 169.521861 
L 405.99821 169.968306 
L 406.382846 165.534288 
L 406.508879 166.163772 
L 406.934901 180.071434 
L 407.355406 165.592382 
L 407.524502 157.790652 
L 407.567611 155.673018 
L 407.761988 154.216742 
L 408.010813 150.924099 
L 408.093683 143.173608 
L 408.480037 134.075799 
L 408.65765 135.311618 
L 409.325745 154.249434 
L 409.672698 144.613459 
L 409.8759 146.542977 
L 410.258804 157.199219 
L 410.516181 157.357739 
L 410.939602 145.182587 
L 411.191608 147.329103 
L 411.41568 161.18962 
L 411.626022 159.642478 
L 411.798428 153.633446 
L 412.009824 152.968893 
L 412.346723 163.89959 
L 412.602043 166.234361 
L 413.152324 148.287873 
L 413.237588 148.563097 
L 413.533912 164.234708 
L 413.788612 167.141711 
L 414.086826 154.592432 
L 414.316142 155.270377 
L 414.614718 163.535714 
L 414.782039 161.994969 
L 415.297612 154.618454 
L 415.668827 157.781627 
L 415.838568 156.456208 
L 416.177304 151.340234 
L 416.433889 153.215237 
L 416.53056 156.622049 
L 416.729317 156.783439 
L 417.322888 150.207852 
L 417.49188 160.333688 
L 417.789077 165.906618 
L 417.918252 171.559605 
L 418.085892 171.665251 
L 418.466747 163.910271 
L 418.827588 169.942567 
L 418.995562 170.641519 
L 419.10353 167.522808 
L 419.361723 149.683213 
L 419.567629 143.162177 
L 419.6947 142.812254 
L 419.957719 148.606336 
L 420.078374 155.103985 
L 420.290186 159.486958 
L 420.41718 159.39212 
L 420.925953 154.524989 
L 421.30785 161.836489 
L 421.775274 154.648 
L 421.821959 151.670841 
L 421.990986 150.862948 
L 422.240678 152.620498 
L 422.339046 154.478453 
L 422.498853 155.004742 
L 422.878133 157.828556 
L 423.266665 155.778607 
L 423.64689 161.321923 
L 423.94515 147.662082 
L 424.790731 156.049688 
L 424.967711 155.35887 
L 425.12941 154.165027 
L 425.303316 151.153942 
L 425.554133 151.522901 
L 426.021122 157.772969 
L 426.203311 156.019143 
L 426.358784 152.883384 
L 426.54884 153.403062 
L 426.71952 154.609345 
L 426.71952 154.609345 
" clip-path="url(#p9be9003527)" style="fill: none; stroke: #ff0000; stroke-opacity: 0.5; stroke-width: 1.75; stroke-linecap: square"/>
   </g>
   <g id="patch_3">
    <path d="M 30.123125 184.36327 
L 30.123125 0.72 
" style="fill: none; stroke: #000000; stroke-width: 0.8; stroke-linejoin: miter; stroke-linecap: square"/>
   </g>
   <g id="patch_4">
    <path d="M 426.71952 184.36327 
L 426.71952 0.72 
" style="fill: none; stroke: #000000; stroke-width: 0.8; stroke-linejoin: miter; stroke-linecap: square"/>
   </g>
   <g id="patch_5">
    <path d="M 30.123125 184.36327 
L 426.71952 184.36327 
" style="fill: none; stroke: #000000; stroke-width: 0.8; stroke-linejoin: miter; stroke-linecap: square"/>
   </g>
   <g id="patch_6">
    <path d="M 30.123125 0.72 
L 426.71952 0.72 
" style="fill: none; stroke: #000000; stroke-width: 0.8; stroke-linejoin: miter; stroke-linecap: square"/>
   </g>
   <g id="legend_1">
    <g id="patch_7">
     <path d="M 345.95077 38.07625 
L 419.71952 38.07625 
Q 421.71952 38.07625 421.71952 36.07625 
L 421.71952 7.72 
Q 421.71952 5.72 419.71952 5.72 
L 345.95077 5.72 
Q 343.95077 5.72 343.95077 7.72 
L 343.95077 36.07625 
Q 343.95077 38.07625 345.95077 38.07625 
z
" style="fill: #ffffff; opacity: 0.8; stroke: #cccccc; stroke-linejoin: miter"/>
    </g>
    <g id="line2d_31">
     <path d="M 347.95077 13.818437 
L 357.95077 13.818437 
L 367.95077 13.818437 
" style="fill: none; stroke: #0000ff; stroke-opacity: 0.5; stroke-width: 1.75; stroke-linecap: square"/>
    </g>
    <g id="text_17">
     <!-- RNEA -->
     <g transform="translate(375.95077 17.318437) scale(0.1 -0.1)">
      <defs>
       <path id="DejaVuSans-52" d="M 2841 2188 
Q 3044 2119 3236 1894 
Q 3428 1669 3622 1275 
L 4263 0 
L 3584 0 
L 2988 1197 
Q 2756 1666 2539 1819 
Q 2322 1972 1947 1972 
L 1259 1972 
L 1259 0 
L 628 0 
L 628 4666 
L 2053 4666 
Q 2853 4666 3247 4331 
Q 3641 3997 3641 3322 
Q 3641 2881 3436 2590 
Q 3231 2300 2841 2188 
z
M 1259 4147 
L 1259 2491 
L 2053 2491 
Q 2509 2491 2742 2702 
Q 2975 2913 2975 3322 
Q 2975 3731 2742 3939 
Q 2509 4147 2053 4147 
L 1259 4147 
z
" transform="scale(0.015625)"/>
       <path id="DejaVuSans-45" d="M 628 4666 
L 3578 4666 
L 3578 4134 
L 1259 4134 
L 1259 2753 
L 3481 2753 
L 3481 2222 
L 1259 2222 
L 1259 531 
L 3634 531 
L 3634 0 
L 628 0 
L 628 4666 
z
" transform="scale(0.015625)"/>
       <path id="DejaVuSans-41" d="M 2188 4044 
L 1331 1722 
L 3047 1722 
L 2188 4044 
z
M 1831 4666 
L 2547 4666 
L 4325 0 
L 3669 0 
L 3244 1197 
L 1141 1197 
L 716 0 
L 50 0 
L 1831 4666 
z
" transform="scale(0.015625)"/>
      </defs>
      <use xlink:href="#DejaVuSans-52"/>
      <use xlink:href="#DejaVuSans-4e" x="69.482422"/>
      <use xlink:href="#DejaVuSans-45" x="144.287109"/>
      <use xlink:href="#DejaVuSans-41" x="207.470703"/>
     </g>
    </g>
    <g id="line2d_32">
     <path d="M 347.95077 28.496562 
L 357.95077 28.496562 
L 367.95077 28.496562 
" style="fill: none; stroke: #ff0000; stroke-opacity: 0.5; stroke-width: 1.75; stroke-linecap: square"/>
    </g>
    <g id="text_18">
     <!-- BURNEA -->
     <g transform="translate(375.95077 31.996562) scale(0.1 -0.1)">
      <defs>
       <path id="DejaVuSans-42" d="M 1259 2228 
L 1259 519 
L 2272 519 
Q 2781 519 3026 730 
Q 3272 941 3272 1375 
Q 3272 1813 3026 2020 
Q 2781 2228 2272 2228 
L 1259 2228 
z
M 1259 4147 
L 1259 2741 
L 2194 2741 
Q 2656 2741 2882 2914 
Q 3109 3088 3109 3444 
Q 3109 3797 2882 3972 
Q 2656 4147 2194 4147 
L 1259 4147 
z
M 628 4666 
L 2241 4666 
Q 2963 4666 3353 4366 
Q 3744 4066 3744 3513 
Q 3744 3084 3544 2831 
Q 3344 2578 2956 2516 
Q 3422 2416 3680 2098 
Q 3938 1781 3938 1306 
Q 3938 681 3513 340 
Q 3088 0 2303 0 
L 628 0 
L 628 4666 
z
" transform="scale(0.015625)"/>
       <path id="DejaVuSans-55" d="M 556 4666 
L 1191 4666 
L 1191 1831 
Q 1191 1081 1462 751 
Q 1734 422 2344 422 
Q 2950 422 3222 751 
Q 3494 1081 3494 1831 
L 3494 4666 
L 4128 4666 
L 4128 1753 
Q 4128 841 3676 375 
Q 3225 -91 2344 -91 
Q 1459 -91 1007 375 
Q 556 841 556 1753 
L 556 4666 
z
" transform="scale(0.015625)"/>
      </defs>
      <use xlink:href="#DejaVuSans-42"/>
      <use xlink:href="#DejaVuSans-55" x="68.603516"/>
      <use xlink:href="#DejaVuSans-52" x="141.796875"/>
      <use xlink:href="#DejaVuSans-4e" x="211.279297"/>
      <use xlink:href="#DejaVuSans-45" x="286.083984"/>
      <use xlink:href="#DejaVuSans-41" x="349.267578"/>
     </g>
    </g>
   </g>
  </g>
 </g>
 <defs>
  <clipPath id="p9be9003527">
   <rect x="30.123125" y="0.72" width="396.596395" height="183.64327"/>
  </clipPath>
 </defs>
</svg>
