<?xml version="1.0" encoding="utf-8" standalone="no"?>
<!DOCTYPE svg PUBLIC "-//W3C//DTD SVG 1.1//EN"
  "http://www.w3.org/Graphics/SVG/1.1/DTD/svg11.dtd">
<svg xmlns:xlink="http://www.w3.org/1999/xlink" width="427.43952pt" height="211.43952pt" viewBox="0 0 427.43952 211.43952" xmlns="http://www.w3.org/2000/svg" version="1.1">
 <metadata>
  <rdf:RDF xmlns:dc="http://purl.org/dc/elements/1.1/" xmlns:cc="http://creativecommons.org/ns#" xmlns:rdf="http://www.w3.org/1999/02/22-rdf-syntax-ns#">
   <cc:Work>
    <dc:type rdf:resource="http://purl.org/dc/dcmitype/StillImage"/>
    <dc:date>2023-09-09T18:28:48.117270</dc:date>
    <dc:format>image/svg+xml</dc:format>
    <dc:creator>
     <cc:Agent>
      <dc:title>Matplotlib v3.7.2, https://matplotlib.org/</dc:title>
     </cc:Agent>
    </dc:creator>
   </cc:Work>
  </rdf:RDF>
 </metadata>
 <defs>
  <style type="text/css">*{stroke-linejoin: round; stroke-linecap: butt}</style>
 </defs>
 <g id="figure_1">
  <g id="patch_1">
   <path d="M 0 211.43952 
L 427.43952 211.43952 
L 427.43952 0 
L 0 0 
L 0 211.43952 
z
" style="fill: none"/>
  </g>
  <g id="axes_1">
   <g id="patch_2">
    <path d="M 38.502813 184.36327 
L 426.71952 184.36327 
L 426.71952 0.72 
L 38.502813 0.72 
L 38.502813 184.36327 
z
" style="fill: none"/>
   </g>
   <g id="matplotlib.axis_1">
    <g id="xtick_1">
     <g id="line2d_1">
      <path d="M 38.502813 184.36327 
L 38.502813 0.72 
" clip-path="url(#p7d1416e43f)" style="fill: none; stroke-dasharray: 0.8,1.32; stroke-dashoffset: 0; stroke: #000000; stroke-opacity: 0.5; stroke-width: 0.8"/>
     </g>
     <g id="line2d_2">
      <defs>
       <path id="m29c5952968" d="M 0 0 
L 0 3.5 
" style="stroke: #000000; stroke-width: 0.8"/>
      </defs>
      <g>
       <use xlink:href="#m29c5952968" x="38.502813" y="184.36327" style="stroke: #000000; stroke-width: 0.8"/>
      </g>
     </g>
     <g id="text_1">
      <!-- 0.0 -->
      <g transform="translate(30.55125 198.961707) scale(0.1 -0.1)">
       <defs>
        <path id="DejaVuSans-30" d="M 2034 4250 
Q 1547 4250 1301 3770 
Q 1056 3291 1056 2328 
Q 1056 1369 1301 889 
Q 1547 409 2034 409 
Q 2525 409 2770 889 
Q 3016 1369 3016 2328 
Q 3016 3291 2770 3770 
Q 2525 4250 2034 4250 
z
M 2034 4750 
Q 2819 4750 3233 4129 
Q 3647 3509 3647 2328 
Q 3647 1150 3233 529 
Q 2819 -91 2034 -91 
Q 1250 -91 836 529 
Q 422 1150 422 2328 
Q 422 3509 836 4129 
Q 1250 4750 2034 4750 
z
" transform="scale(0.015625)"/>
        <path id="DejaVuSans-2e" d="M 684 794 
L 1344 794 
L 1344 0 
L 684 0 
L 684 794 
z
" transform="scale(0.015625)"/>
       </defs>
       <use xlink:href="#DejaVuSans-30"/>
       <use xlink:href="#DejaVuSans-2e" x="63.623047"/>
       <use xlink:href="#DejaVuSans-30" x="95.410156"/>
      </g>
     </g>
    </g>
    <g id="xtick_2">
     <g id="line2d_3">
      <path d="M 90.09203 184.36327 
L 90.09203 0.72 
" clip-path="url(#p7d1416e43f)" style="fill: none; stroke-dasharray: 0.8,1.32; stroke-dashoffset: 0; stroke: #000000; stroke-opacity: 0.5; stroke-width: 0.8"/>
     </g>
     <g id="line2d_4">
      <g>
       <use xlink:href="#m29c5952968" x="90.09203" y="184.36327" style="stroke: #000000; stroke-width: 0.8"/>
      </g>
     </g>
     <g id="text_2">
      <!-- 2.5 -->
      <g transform="translate(82.140467 198.961707) scale(0.1 -0.1)">
       <defs>
        <path id="DejaVuSans-32" d="M 1228 531 
L 3431 531 
L 3431 0 
L 469 0 
L 469 531 
Q 828 903 1448 1529 
Q 2069 2156 2228 2338 
Q 2531 2678 2651 2914 
Q 2772 3150 2772 3378 
Q 2772 3750 2511 3984 
Q 2250 4219 1831 4219 
Q 1534 4219 1204 4116 
Q 875 4013 500 3803 
L 500 4441 
Q 881 4594 1212 4672 
Q 1544 4750 1819 4750 
Q 2544 4750 2975 4387 
Q 3406 4025 3406 3419 
Q 3406 3131 3298 2873 
Q 3191 2616 2906 2266 
Q 2828 2175 2409 1742 
Q 1991 1309 1228 531 
z
" transform="scale(0.015625)"/>
        <path id="DejaVuSans-35" d="M 691 4666 
L 3169 4666 
L 3169 4134 
L 1269 4134 
L 1269 2991 
Q 1406 3038 1543 3061 
Q 1681 3084 1819 3084 
Q 2600 3084 3056 2656 
Q 3513 2228 3513 1497 
Q 3513 744 3044 326 
Q 2575 -91 1722 -91 
Q 1428 -91 1123 -41 
Q 819 9 494 109 
L 494 744 
Q 775 591 1075 516 
Q 1375 441 1709 441 
Q 2250 441 2565 725 
Q 2881 1009 2881 1497 
Q 2881 1984 2565 2268 
Q 2250 2553 1709 2553 
Q 1456 2553 1204 2497 
Q 953 2441 691 2322 
L 691 4666 
z
" transform="scale(0.015625)"/>
       </defs>
       <use xlink:href="#DejaVuSans-32"/>
       <use xlink:href="#DejaVuSans-2e" x="63.623047"/>
       <use xlink:href="#DejaVuSans-35" x="95.410156"/>
      </g>
     </g>
    </g>
    <g id="xtick_3">
     <g id="line2d_5">
      <path d="M 141.681247 184.36327 
L 141.681247 0.72 
" clip-path="url(#p7d1416e43f)" style="fill: none; stroke-dasharray: 0.8,1.32; stroke-dashoffset: 0; stroke: #000000; stroke-opacity: 0.5; stroke-width: 0.8"/>
     </g>
     <g id="line2d_6">
      <g>
       <use xlink:href="#m29c5952968" x="141.681247" y="184.36327" style="stroke: #000000; stroke-width: 0.8"/>
      </g>
     </g>
     <g id="text_3">
      <!-- 5.0 -->
      <g transform="translate(133.729684 198.961707) scale(0.1 -0.1)">
       <use xlink:href="#DejaVuSans-35"/>
       <use xlink:href="#DejaVuSans-2e" x="63.623047"/>
       <use xlink:href="#DejaVuSans-30" x="95.410156"/>
      </g>
     </g>
    </g>
    <g id="xtick_4">
     <g id="line2d_7">
      <path d="M 193.270464 184.36327 
L 193.270464 0.72 
" clip-path="url(#p7d1416e43f)" style="fill: none; stroke-dasharray: 0.8,1.32; stroke-dashoffset: 0; stroke: #000000; stroke-opacity: 0.5; stroke-width: 0.8"/>
     </g>
     <g id="line2d_8">
      <g>
       <use xlink:href="#m29c5952968" x="193.270464" y="184.36327" style="stroke: #000000; stroke-width: 0.8"/>
      </g>
     </g>
     <g id="text_4">
      <!-- 7.5 -->
      <g transform="translate(185.318902 198.961707) scale(0.1 -0.1)">
       <defs>
        <path id="DejaVuSans-37" d="M 525 4666 
L 3525 4666 
L 3525 4397 
L 1831 0 
L 1172 0 
L 2766 4134 
L 525 4134 
L 525 4666 
z
" transform="scale(0.015625)"/>
       </defs>
       <use xlink:href="#DejaVuSans-37"/>
       <use xlink:href="#DejaVuSans-2e" x="63.623047"/>
       <use xlink:href="#DejaVuSans-35" x="95.410156"/>
      </g>
     </g>
    </g>
    <g id="xtick_5">
     <g id="line2d_9">
      <path d="M 244.859681 184.36327 
L 244.859681 0.72 
" clip-path="url(#p7d1416e43f)" style="fill: none; stroke-dasharray: 0.8,1.32; stroke-dashoffset: 0; stroke: #000000; stroke-opacity: 0.5; stroke-width: 0.8"/>
     </g>
     <g id="line2d_10">
      <g>
       <use xlink:href="#m29c5952968" x="244.859681" y="184.36327" style="stroke: #000000; stroke-width: 0.8"/>
      </g>
     </g>
     <g id="text_5">
      <!-- 10.0 -->
      <g transform="translate(233.726869 198.961707) scale(0.1 -0.1)">
       <defs>
        <path id="DejaVuSans-31" d="M 794 531 
L 1825 531 
L 1825 4091 
L 703 3866 
L 703 4441 
L 1819 4666 
L 2450 4666 
L 2450 531 
L 3481 531 
L 3481 0 
L 794 0 
L 794 531 
z
" transform="scale(0.015625)"/>
       </defs>
       <use xlink:href="#DejaVuSans-31"/>
       <use xlink:href="#DejaVuSans-30" x="63.623047"/>
       <use xlink:href="#DejaVuSans-2e" x="127.246094"/>
       <use xlink:href="#DejaVuSans-30" x="159.033203"/>
      </g>
     </g>
    </g>
    <g id="xtick_6">
     <g id="line2d_11">
      <path d="M 296.448899 184.36327 
L 296.448899 0.72 
" clip-path="url(#p7d1416e43f)" style="fill: none; stroke-dasharray: 0.8,1.32; stroke-dashoffset: 0; stroke: #000000; stroke-opacity: 0.5; stroke-width: 0.8"/>
     </g>
     <g id="line2d_12">
      <g>
       <use xlink:href="#m29c5952968" x="296.448899" y="184.36327" style="stroke: #000000; stroke-width: 0.8"/>
      </g>
     </g>
     <g id="text_6">
      <!-- 12.5 -->
      <g transform="translate(285.316086 198.961707) scale(0.1 -0.1)">
       <use xlink:href="#DejaVuSans-31"/>
       <use xlink:href="#DejaVuSans-32" x="63.623047"/>
       <use xlink:href="#DejaVuSans-2e" x="127.246094"/>
       <use xlink:href="#DejaVuSans-35" x="159.033203"/>
      </g>
     </g>
    </g>
    <g id="xtick_7">
     <g id="line2d_13">
      <path d="M 348.038116 184.36327 
L 348.038116 0.72 
" clip-path="url(#p7d1416e43f)" style="fill: none; stroke-dasharray: 0.8,1.32; stroke-dashoffset: 0; stroke: #000000; stroke-opacity: 0.5; stroke-width: 0.8"/>
     </g>
     <g id="line2d_14">
      <g>
       <use xlink:href="#m29c5952968" x="348.038116" y="184.36327" style="stroke: #000000; stroke-width: 0.8"/>
      </g>
     </g>
     <g id="text_7">
      <!-- 15.0 -->
      <g transform="translate(336.905303 198.961707) scale(0.1 -0.1)">
       <use xlink:href="#DejaVuSans-31"/>
       <use xlink:href="#DejaVuSans-35" x="63.623047"/>
       <use xlink:href="#DejaVuSans-2e" x="127.246094"/>
       <use xlink:href="#DejaVuSans-30" x="159.033203"/>
      </g>
     </g>
    </g>
    <g id="xtick_8">
     <g id="line2d_15">
      <path d="M 399.627333 184.36327 
L 399.627333 0.72 
" clip-path="url(#p7d1416e43f)" style="fill: none; stroke-dasharray: 0.8,1.32; stroke-dashoffset: 0; stroke: #000000; stroke-opacity: 0.5; stroke-width: 0.8"/>
     </g>
     <g id="line2d_16">
      <g>
       <use xlink:href="#m29c5952968" x="399.627333" y="184.36327" style="stroke: #000000; stroke-width: 0.8"/>
      </g>
     </g>
     <g id="text_8">
      <!-- 17.5 -->
      <g transform="translate(388.494521 198.961707) scale(0.1 -0.1)">
       <use xlink:href="#DejaVuSans-31"/>
       <use xlink:href="#DejaVuSans-37" x="63.623047"/>
       <use xlink:href="#DejaVuSans-2e" x="127.246094"/>
       <use xlink:href="#DejaVuSans-35" x="159.033203"/>
      </g>
     </g>
    </g>
    <g id="text_9">
     <!-- Zeit [s] -->
     <g transform="translate(214.665073 208.639832) scale(0.1 -0.1)">
      <defs>
       <path id="DejaVuSans-5a" d="M 359 4666 
L 4025 4666 
L 4025 4184 
L 1075 531 
L 4097 531 
L 4097 0 
L 288 0 
L 288 481 
L 3238 4134 
L 359 4134 
L 359 4666 
z
" transform="scale(0.015625)"/>
       <path id="DejaVuSans-65" d="M 3597 1894 
L 3597 1613 
L 953 1613 
Q 991 1019 1311 708 
Q 1631 397 2203 397 
Q 2534 397 2845 478 
Q 3156 559 3463 722 
L 3463 178 
Q 3153 47 2828 -22 
Q 2503 -91 2169 -91 
Q 1331 -91 842 396 
Q 353 884 353 1716 
Q 353 2575 817 3079 
Q 1281 3584 2069 3584 
Q 2775 3584 3186 3129 
Q 3597 2675 3597 1894 
z
M 3022 2063 
Q 3016 2534 2758 2815 
Q 2500 3097 2075 3097 
Q 1594 3097 1305 2825 
Q 1016 2553 972 2059 
L 3022 2063 
z
" transform="scale(0.015625)"/>
       <path id="DejaVuSans-69" d="M 603 3500 
L 1178 3500 
L 1178 0 
L 603 0 
L 603 3500 
z
M 603 4863 
L 1178 4863 
L 1178 4134 
L 603 4134 
L 603 4863 
z
" transform="scale(0.015625)"/>
       <path id="DejaVuSans-74" d="M 1172 4494 
L 1172 3500 
L 2356 3500 
L 2356 3053 
L 1172 3053 
L 1172 1153 
Q 1172 725 1289 603 
Q 1406 481 1766 481 
L 2356 481 
L 2356 0 
L 1766 0 
Q 1100 0 847 248 
Q 594 497 594 1153 
L 594 3053 
L 172 3053 
L 172 3500 
L 594 3500 
L 594 4494 
L 1172 4494 
z
" transform="scale(0.015625)"/>
       <path id="DejaVuSans-20" transform="scale(0.015625)"/>
       <path id="DejaVuSans-5b" d="M 550 4863 
L 1875 4863 
L 1875 4416 
L 1125 4416 
L 1125 -397 
L 1875 -397 
L 1875 -844 
L 550 -844 
L 550 4863 
z
" transform="scale(0.015625)"/>
       <path id="DejaVuSans-73" d="M 2834 3397 
L 2834 2853 
Q 2591 2978 2328 3040 
Q 2066 3103 1784 3103 
Q 1356 3103 1142 2972 
Q 928 2841 928 2578 
Q 928 2378 1081 2264 
Q 1234 2150 1697 2047 
L 1894 2003 
Q 2506 1872 2764 1633 
Q 3022 1394 3022 966 
Q 3022 478 2636 193 
Q 2250 -91 1575 -91 
Q 1294 -91 989 -36 
Q 684 19 347 128 
L 347 722 
Q 666 556 975 473 
Q 1284 391 1588 391 
Q 1994 391 2212 530 
Q 2431 669 2431 922 
Q 2431 1156 2273 1281 
Q 2116 1406 1581 1522 
L 1381 1569 
Q 847 1681 609 1914 
Q 372 2147 372 2553 
Q 372 3047 722 3315 
Q 1072 3584 1716 3584 
Q 2034 3584 2315 3537 
Q 2597 3491 2834 3397 
z
" transform="scale(0.015625)"/>
       <path id="DejaVuSans-5d" d="M 1947 4863 
L 1947 -844 
L 622 -844 
L 622 -397 
L 1369 -397 
L 1369 4416 
L 622 4416 
L 622 4863 
L 1947 4863 
z
" transform="scale(0.015625)"/>
      </defs>
      <use xlink:href="#DejaVuSans-5a"/>
      <use xlink:href="#DejaVuSans-65" x="68.505859"/>
      <use xlink:href="#DejaVuSans-69" x="130.029297"/>
      <use xlink:href="#DejaVuSans-74" x="157.8125"/>
      <use xlink:href="#DejaVuSans-20" x="197.021484"/>
      <use xlink:href="#DejaVuSans-5b" x="228.808594"/>
      <use xlink:href="#DejaVuSans-73" x="267.822266"/>
      <use xlink:href="#DejaVuSans-5d" x="319.921875"/>
     </g>
    </g>
   </g>
   <g id="matplotlib.axis_2">
    <g id="ytick_1">
     <g id="line2d_17">
      <path d="M 38.502813 161.827754 
L 426.71952 161.827754 
" clip-path="url(#p7d1416e43f)" style="fill: none; stroke-dasharray: 0.8,1.32; stroke-dashoffset: 0; stroke: #000000; stroke-opacity: 0.5; stroke-width: 0.8"/>
     </g>
     <g id="line2d_18">
      <defs>
       <path id="m6d2bd2432f" d="M 0 0 
L -3.5 0 
" style="stroke: #000000; stroke-width: 0.8"/>
      </defs>
      <g>
       <use xlink:href="#m6d2bd2432f" x="38.502813" y="161.827754" style="stroke: #000000; stroke-width: 0.8"/>
      </g>
     </g>
     <g id="text_10">
      <!-- −10 -->
      <g transform="translate(10.398125 165.626972) scale(0.1 -0.1)">
       <defs>
        <path id="DejaVuSans-2212" d="M 678 2272 
L 4684 2272 
L 4684 1741 
L 678 1741 
L 678 2272 
z
" transform="scale(0.015625)"/>
       </defs>
       <use xlink:href="#DejaVuSans-2212"/>
       <use xlink:href="#DejaVuSans-31" x="83.789062"/>
       <use xlink:href="#DejaVuSans-30" x="147.412109"/>
      </g>
     </g>
    </g>
    <g id="ytick_2">
     <g id="line2d_19">
      <path d="M 38.502813 135.616358 
L 426.71952 135.616358 
" clip-path="url(#p7d1416e43f)" style="fill: none; stroke-dasharray: 0.8,1.32; stroke-dashoffset: 0; stroke: #000000; stroke-opacity: 0.5; stroke-width: 0.8"/>
     </g>
     <g id="line2d_20">
      <g>
       <use xlink:href="#m6d2bd2432f" x="38.502813" y="135.616358" style="stroke: #000000; stroke-width: 0.8"/>
      </g>
     </g>
     <g id="text_11">
      <!-- −5 -->
      <g transform="translate(16.760625 139.415577) scale(0.1 -0.1)">
       <use xlink:href="#DejaVuSans-2212"/>
       <use xlink:href="#DejaVuSans-35" x="83.789062"/>
      </g>
     </g>
    </g>
    <g id="ytick_3">
     <g id="line2d_21">
      <path d="M 38.502813 109.404963 
L 426.71952 109.404963 
" clip-path="url(#p7d1416e43f)" style="fill: none; stroke-dasharray: 0.8,1.32; stroke-dashoffset: 0; stroke: #000000; stroke-opacity: 0.5; stroke-width: 0.8"/>
     </g>
     <g id="line2d_22">
      <g>
       <use xlink:href="#m6d2bd2432f" x="38.502813" y="109.404963" style="stroke: #000000; stroke-width: 0.8"/>
      </g>
     </g>
     <g id="text_12">
      <!-- 0 -->
      <g transform="translate(25.140313 113.204182) scale(0.1 -0.1)">
       <use xlink:href="#DejaVuSans-30"/>
      </g>
     </g>
    </g>
    <g id="ytick_4">
     <g id="line2d_23">
      <path d="M 38.502813 83.193568 
L 426.71952 83.193568 
" clip-path="url(#p7d1416e43f)" style="fill: none; stroke-dasharray: 0.8,1.32; stroke-dashoffset: 0; stroke: #000000; stroke-opacity: 0.5; stroke-width: 0.8"/>
     </g>
     <g id="line2d_24">
      <g>
       <use xlink:href="#m6d2bd2432f" x="38.502813" y="83.193568" style="stroke: #000000; stroke-width: 0.8"/>
      </g>
     </g>
     <g id="text_13">
      <!-- 5 -->
      <g transform="translate(25.140313 86.992787) scale(0.1 -0.1)">
       <use xlink:href="#DejaVuSans-35"/>
      </g>
     </g>
    </g>
    <g id="ytick_5">
     <g id="line2d_25">
      <path d="M 38.502813 56.982173 
L 426.71952 56.982173 
" clip-path="url(#p7d1416e43f)" style="fill: none; stroke-dasharray: 0.8,1.32; stroke-dashoffset: 0; stroke: #000000; stroke-opacity: 0.5; stroke-width: 0.8"/>
     </g>
     <g id="line2d_26">
      <g>
       <use xlink:href="#m6d2bd2432f" x="38.502813" y="56.982173" style="stroke: #000000; stroke-width: 0.8"/>
      </g>
     </g>
     <g id="text_14">
      <!-- 10 -->
      <g transform="translate(18.777813 60.781391) scale(0.1 -0.1)">
       <use xlink:href="#DejaVuSans-31"/>
       <use xlink:href="#DejaVuSans-30" x="63.623047"/>
      </g>
     </g>
    </g>
    <g id="ytick_6">
     <g id="line2d_27">
      <path d="M 38.502813 30.770777 
L 426.71952 30.770777 
" clip-path="url(#p7d1416e43f)" style="fill: none; stroke-dasharray: 0.8,1.32; stroke-dashoffset: 0; stroke: #000000; stroke-opacity: 0.5; stroke-width: 0.8"/>
     </g>
     <g id="line2d_28">
      <g>
       <use xlink:href="#m6d2bd2432f" x="38.502813" y="30.770777" style="stroke: #000000; stroke-width: 0.8"/>
      </g>
     </g>
     <g id="text_15">
      <!-- 15 -->
      <g transform="translate(18.777813 34.569996) scale(0.1 -0.1)">
       <use xlink:href="#DejaVuSans-31"/>
       <use xlink:href="#DejaVuSans-35" x="63.623047"/>
      </g>
     </g>
    </g>
    <g id="ytick_7">
     <g id="line2d_29">
      <path d="M 38.502813 4.559382 
L 426.71952 4.559382 
" clip-path="url(#p7d1416e43f)" style="fill: none; stroke-dasharray: 0.8,1.32; stroke-dashoffset: 0; stroke: #000000; stroke-opacity: 0.5; stroke-width: 0.8"/>
     </g>
     <g id="line2d_30">
      <g>
       <use xlink:href="#m6d2bd2432f" x="38.502813" y="4.559382" style="stroke: #000000; stroke-width: 0.8"/>
      </g>
     </g>
     <g id="text_16">
      <!-- 20 -->
      <g transform="translate(18.777813 8.358601) scale(0.1 -0.1)">
       <use xlink:href="#DejaVuSans-32"/>
       <use xlink:href="#DejaVuSans-30" x="63.623047"/>
      </g>
     </g>
    </g>
    <g id="text_17">
     <!-- Drehmoment [Nm] -->
     <g transform="translate(8.318437 139.686948) rotate(-90) scale(0.1 -0.1)">
      <defs>
       <path id="DejaVuSans-44" d="M 1259 4147 
L 1259 519 
L 2022 519 
Q 2988 519 3436 956 
Q 3884 1394 3884 2338 
Q 3884 3275 3436 3711 
Q 2988 4147 2022 4147 
L 1259 4147 
z
M 628 4666 
L 1925 4666 
Q 3281 4666 3915 4102 
Q 4550 3538 4550 2338 
Q 4550 1131 3912 565 
Q 3275 0 1925 0 
L 628 0 
L 628 4666 
z
" transform="scale(0.015625)"/>
       <path id="DejaVuSans-72" d="M 2631 2963 
Q 2534 3019 2420 3045 
Q 2306 3072 2169 3072 
Q 1681 3072 1420 2755 
Q 1159 2438 1159 1844 
L 1159 0 
L 581 0 
L 581 3500 
L 1159 3500 
L 1159 2956 
Q 1341 3275 1631 3429 
Q 1922 3584 2338 3584 
Q 2397 3584 2469 3576 
Q 2541 3569 2628 3553 
L 2631 2963 
z
" transform="scale(0.015625)"/>
       <path id="DejaVuSans-68" d="M 3513 2113 
L 3513 0 
L 2938 0 
L 2938 2094 
Q 2938 2591 2744 2837 
Q 2550 3084 2163 3084 
Q 1697 3084 1428 2787 
Q 1159 2491 1159 1978 
L 1159 0 
L 581 0 
L 581 4863 
L 1159 4863 
L 1159 2956 
Q 1366 3272 1645 3428 
Q 1925 3584 2291 3584 
Q 2894 3584 3203 3211 
Q 3513 2838 3513 2113 
z
" transform="scale(0.015625)"/>
       <path id="DejaVuSans-6d" d="M 3328 2828 
Q 3544 3216 3844 3400 
Q 4144 3584 4550 3584 
Q 5097 3584 5394 3201 
Q 5691 2819 5691 2113 
L 5691 0 
L 5113 0 
L 5113 2094 
Q 5113 2597 4934 2840 
Q 4756 3084 4391 3084 
Q 3944 3084 3684 2787 
Q 3425 2491 3425 1978 
L 3425 0 
L 2847 0 
L 2847 2094 
Q 2847 2600 2669 2842 
Q 2491 3084 2119 3084 
Q 1678 3084 1418 2786 
Q 1159 2488 1159 1978 
L 1159 0 
L 581 0 
L 581 3500 
L 1159 3500 
L 1159 2956 
Q 1356 3278 1631 3431 
Q 1906 3584 2284 3584 
Q 2666 3584 2933 3390 
Q 3200 3197 3328 2828 
z
" transform="scale(0.015625)"/>
       <path id="DejaVuSans-6f" d="M 1959 3097 
Q 1497 3097 1228 2736 
Q 959 2375 959 1747 
Q 959 1119 1226 758 
Q 1494 397 1959 397 
Q 2419 397 2687 759 
Q 2956 1122 2956 1747 
Q 2956 2369 2687 2733 
Q 2419 3097 1959 3097 
z
M 1959 3584 
Q 2709 3584 3137 3096 
Q 3566 2609 3566 1747 
Q 3566 888 3137 398 
Q 2709 -91 1959 -91 
Q 1206 -91 779 398 
Q 353 888 353 1747 
Q 353 2609 779 3096 
Q 1206 3584 1959 3584 
z
" transform="scale(0.015625)"/>
       <path id="DejaVuSans-6e" d="M 3513 2113 
L 3513 0 
L 2938 0 
L 2938 2094 
Q 2938 2591 2744 2837 
Q 2550 3084 2163 3084 
Q 1697 3084 1428 2787 
Q 1159 2491 1159 1978 
L 1159 0 
L 581 0 
L 581 3500 
L 1159 3500 
L 1159 2956 
Q 1366 3272 1645 3428 
Q 1925 3584 2291 3584 
Q 2894 3584 3203 3211 
Q 3513 2838 3513 2113 
z
" transform="scale(0.015625)"/>
       <path id="DejaVuSans-4e" d="M 628 4666 
L 1478 4666 
L 3547 763 
L 3547 4666 
L 4159 4666 
L 4159 0 
L 3309 0 
L 1241 3903 
L 1241 0 
L 628 0 
L 628 4666 
z
" transform="scale(0.015625)"/>
      </defs>
      <use xlink:href="#DejaVuSans-44"/>
      <use xlink:href="#DejaVuSans-72" x="77.001953"/>
      <use xlink:href="#DejaVuSans-65" x="115.865234"/>
      <use xlink:href="#DejaVuSans-68" x="177.388672"/>
      <use xlink:href="#DejaVuSans-6d" x="240.767578"/>
      <use xlink:href="#DejaVuSans-6f" x="338.179688"/>
      <use xlink:href="#DejaVuSans-6d" x="399.361328"/>
      <use xlink:href="#DejaVuSans-65" x="496.773438"/>
      <use xlink:href="#DejaVuSans-6e" x="558.296875"/>
      <use xlink:href="#DejaVuSans-74" x="621.675781"/>
      <use xlink:href="#DejaVuSans-20" x="660.884766"/>
      <use xlink:href="#DejaVuSans-5b" x="692.671875"/>
      <use xlink:href="#DejaVuSans-4e" x="731.685547"/>
      <use xlink:href="#DejaVuSans-6d" x="806.490234"/>
      <use xlink:href="#DejaVuSans-5d" x="903.902344"/>
     </g>
    </g>
   </g>
   <g id="line2d_31">
    <path d="M 38.502813 109.404092 
L 87.631764 109.404246 
L 167.035704 109.40368 
L 167.248444 106.8811 
L 167.37214 109.59373 
L 167.592103 109.408726 
L 167.740271 109.526612 
L 167.905364 110.392467 
L 168.072688 110.343215 
L 168.445166 109.334917 
L 168.611864 109.71979 
L 168.776803 108.935692 
L 168.942218 110.006121 
L 169.107821 108.373734 
L 169.315652 108.979637 
L 169.442143 110.50455 
L 169.648632 109.116912 
L 169.774075 109.28477 
L 169.93992 108.303884 
L 169.979168 109.961552 
L 170.144858 109.209619 
L 170.311488 108.999045 
L 170.476552 109.262963 
L 170.683728 110.298845 
L 170.85002 109.658146 
L 171.018264 109.529561 
L 171.184495 108.339426 
L 171.390371 109.352562 
L 171.731979 109.304052 
L 171.853342 109.865156 
L 172.017345 109.80197 
L 172.224076 109.984814 
L 172.597282 108.546083 
L 172.867074 109.270398 
L 172.890431 110.630702 
L 173.344281 108.706507 
L 173.426692 110.010754 
L 174.089983 107.991615 
L 174.256107 109.482684 
L 174.421625 108.640731 
L 174.629721 109.868054 
L 174.835794 108.219141 
L 174.960194 109.64101 
L 175.292269 108.643682 
L 175.512596 109.155547 
L 175.717338 109.035124 
L 175.842435 108.820478 
L 175.966082 109.209151 
L 176.339554 108.660196 
L 176.712839 108.620656 
L 177.086584 109.388737 
L 177.211731 109.957183 
L 177.500898 108.76864 
L 177.542799 109.678611 
L 177.708732 109.293858 
L 177.875145 109.56019 
L 178.039763 108.900748 
L 178.206907 109.264042 
L 178.376506 108.905533 
L 178.706389 110.240227 
L 178.910895 109.226269 
L 179.117783 108.940597 
L 179.24249 109.403148 
L 179.49159 109.235357 
L 179.657205 108.440645 
L 179.782056 109.329054 
L 179.947148 108.985368 
L 180.112916 109.169703 
L 180.321054 109.173214 
L 180.528161 109.609646 
L 180.735556 109.460683 
L 180.860072 108.975406 
L 181.35943 109.336817 
L 181.649551 108.455319 
L 181.843152 109.176577 
L 182.00196 109.26402 
L 182.168021 109.578517 
L 182.519423 109.11185 
L 182.684974 109.237682 
L 183.005638 109.038921 
L 183.185199 109.301325 
L 183.389727 109.162578 
L 183.556317 109.189948 
L 183.721917 110.041335 
L 184.052953 109.345068 
L 184.343248 108.61646 
L 184.634012 110.007712 
L 184.846511 108.885257 
L 185.104134 109.168606 
L 185.321087 109.321621 
L 185.589918 108.969642 
L 185.963761 109.386189 
L 186.129707 110.247027 
L 186.336448 108.944491 
L 186.462318 109.003747 
L 186.667948 108.43221 
L 186.834352 108.480098 
L 187.041777 109.565315 
L 187.208633 109.468509 
L 187.335181 108.675336 
L 187.498644 109.120449 
L 187.705807 110.040626 
L 187.83031 109.190852 
L 188.038914 108.585017 
L 188.244543 109.412474 
L 188.369759 109.395482 
L 188.535505 109.598768 
L 188.702007 108.750946 
L 188.868699 109.290565 
L 189.033047 108.974225 
L 189.323182 109.662564 
L 189.572243 108.452147 
L 189.614787 109.642093 
L 189.737865 108.964952 
L 190.070259 109.532032 
L 190.237035 108.71182 
L 190.527056 108.6571 
L 190.611255 109.590636 
L 190.817251 108.483239 
L 190.942467 109.45381 
L 191.107627 109.434773 
L 191.356029 108.996868 
L 191.523033 109.046552 
L 191.614938 108.291073 
L 191.811547 109.376338 
L 192.019145 108.351177 
L 192.248529 109.323993 
L 192.417055 109.259694 
L 192.518548 108.602819 
L 192.725323 108.727484 
L 192.809655 109.076801 
L 193.016079 108.60056 
L 193.525223 109.262673 
L 193.641482 108.751869 
L 193.719918 108.985097 
L 193.979383 109.06526 
L 194.056481 108.824918 
L 194.383236 109.289793 
L 194.548805 110.005954 
L 194.797579 109.864509 
L 194.922159 108.406137 
L 195.212183 108.795936 
L 195.295114 108.669102 
L 195.461043 108.885737 
L 195.586589 108.842461 
L 195.83521 109.044755 
L 196.124398 108.975672 
L 196.291833 109.662194 
L 196.580732 108.716981 
L 196.748291 109.173773 
L 196.912717 108.150146 
L 196.954617 109.444236 
L 197.119948 109.652029 
L 197.327727 109.340278 
L 197.540592 109.595097 
L 197.86703 108.770346 
L 198.239856 109.373097 
L 198.405795 108.605877 
L 198.541309 108.793394 
L 198.697139 109.551107 
L 198.878303 109.002492 
L 199.028913 109.201457 
L 199.235536 109.919147 
L 199.483734 109.739506 
L 199.649563 109.860991 
L 199.732634 109.458037 
L 200.022637 109.028669 
L 200.0651 108.509259 
L 200.230265 109.004518 
L 200.479468 109.394906 
L 200.648575 108.470984 
L 200.769743 109.32431 
L 200.936176 109.231255 
L 201.144172 109.552908 
L 201.433198 108.803677 
L 201.599156 109.251054 
L 201.771257 108.372576 
L 201.972225 109.067669 
L 202.096849 108.983593 
L 202.32375 109.175142 
L 202.497627 108.874492 
L 202.802977 108.838316 
L 203.066925 109.161711 
L 203.258895 109.11681 
L 203.345358 109.770083 
L 203.591491 109.600923 
L 203.676205 108.778453 
L 203.881319 109.288478 
L 204.010432 109.209926 
L 204.466335 109.683262 
L 204.544957 109.825307 
L 204.842997 108.585721 
L 205.085509 109.002526 
L 205.211776 108.725491 
L 205.458934 109.507129 
L 205.562396 108.900234 
L 205.79286 109.651545 
L 206.249665 109.216451 
L 206.455061 108.928769 
L 206.579877 109.054546 
L 206.787181 108.773888 
L 206.953379 108.846417 
L 207.201515 108.30953 
L 207.326492 109.283622 
L 207.533153 108.755403 
L 207.628418 108.955486 
L 207.823123 108.883649 
L 207.950223 109.123871 
L 207.989909 108.411722 
L 208.282167 109.022249 
L 208.487201 108.480555 
L 208.654127 108.458165 
L 208.819692 108.638387 
L 209.06875 109.334366 
L 209.364106 108.640867 
L 209.52488 109.146218 
L 209.898115 108.804481 
L 210.022111 108.454182 
L 210.190221 108.787714 
L 210.478378 108.973622 
L 210.562104 108.610795 
L 210.72769 109.279436 
L 210.897039 108.530706 
L 211.060182 109.195464 
L 211.229053 108.514828 
L 211.394521 109.476348 
L 211.572053 108.777724 
L 211.726285 109.770796 
L 212.016167 108.946367 
L 212.102259 108.069797 
L 212.265662 108.843555 
L 212.431349 108.346931 
L 212.805319 109.21473 
L 212.948447 109.266557 
L 213.097541 107.80915 
L 213.345276 108.664432 
L 213.635086 109.07533 
L 213.718524 108.806915 
L 213.800791 109.033827 
L 214.091247 108.569787 
L 214.136742 108.809669 
L 214.329273 108.923058 
L 214.517147 109.496431 
L 214.645376 109.009868 
L 214.961804 108.735126 
L 215.003774 108.010595 
L 215.169079 108.744758 
L 215.376665 108.793326 
L 215.542481 109.088565 
L 215.708254 108.724026 
L 215.915184 108.674837 
L 216.043251 108.933425 
L 216.206865 108.743101 
L 216.41344 109.990559 
L 216.58419 108.967654 
L 216.745894 109.523572 
L 216.870653 108.769499 
L 217.076131 109.397069 
L 217.454308 108.230567 
L 217.614932 109.038983 
L 217.786303 108.82636 
L 217.947678 108.858457 
L 218.073785 108.756757 
L 218.320226 108.916254 
L 218.452737 108.795009 
L 218.652175 108.370792 
L 218.778428 108.925382 
L 218.993718 108.587202 
L 219.108845 109.247906 
L 219.27589 108.818926 
L 219.48269 109.293405 
L 219.647945 108.179912 
L 219.813668 109.633818 
L 220.16022 108.829767 
L 220.313743 108.89538 
L 220.561116 109.423306 
L 220.685603 109.360094 
L 220.851507 108.725789 
L 221.028229 108.7571 
L 221.185178 108.582342 
L 221.473407 108.431386 
L 221.556393 109.024207 
L 221.76367 108.036858 
L 221.888417 109.143673 
L 222.13683 108.522841 
L 222.261216 109.584089 
L 222.386698 107.803102 
L 222.551674 108.975278 
L 222.75861 108.96612 
L 222.900334 109.192074 
L 223.095895 108.824844 
L 223.299739 109.04712 
L 223.506579 108.986028 
L 223.631297 108.589263 
L 223.879809 109.063071 
L 224.088084 109.162361 
L 224.294277 108.372929 
L 224.501503 109.273268 
L 224.628545 108.248892 
L 224.87638 108.291457 
L 224.999346 109.924271 
L 225.165961 108.976328 
L 225.30129 109.04928 
L 225.500074 108.679675 
L 225.930244 108.867814 
L 226.047075 108.336632 
L 226.207896 109.485262 
L 226.374016 108.900138 
L 226.755858 109.078498 
L 227.012404 108.939407 
L 227.342758 108.597995 
L 227.392505 108.938491 
L 227.592455 108.806547 
L 227.758081 109.016671 
L 227.883821 108.971975 
L 228.131341 109.288835 
L 228.255833 108.65562 
L 228.512468 108.44269 
L 228.795006 109.245415 
L 229.043821 108.319754 
L 229.13178 108.81107 
L 229.541201 109.183844 
L 229.626368 112.528656 
L 229.873793 112.593323 
L 230.038834 112.404604 
L 230.338196 110.393389 
L 230.577786 110.400805 
L 230.662431 109.764318 
L 230.82737 109.701333 
L 231.035274 109.414055 
L 231.344786 109.283355 
L 231.577432 109.483316 
L 231.798122 109.509884 
L 231.880109 108.839698 
L 232.04936 109.367764 
L 232.258259 108.957094 
L 232.337894 109.408879 
L 232.547216 109.260714 
L 232.792382 109.498933 
L 233.206972 109.560559 
L 233.457252 109.169804 
L 233.624338 109.191491 
L 233.999199 109.638371 
L 234.080582 109.447854 
L 234.286248 109.752614 
L 234.576824 109.420988 
L 234.783175 109.311739 
L 234.950203 109.420392 
L 235.11523 109.089412 
L 235.450774 109.379575 
L 235.655156 109.030776 
L 236.151866 109.451813 
L 236.484455 109.432342 
L 236.651736 109.430088 
L 236.817354 109.668555 
L 237.482227 109.562145 
L 237.527784 109.230222 
L 237.689531 109.424976 
L 238.14327 109.393471 
L 238.2678 109.315657 
L 238.392143 109.440876 
L 238.558722 109.161891 
L 239.594769 109.437134 
L 239.928434 109.472349 
L 240.092821 109.507111 
L 240.259079 109.168088 
L 240.466943 109.582474 
L 240.729629 109.407184 
L 240.963756 109.661289 
L 241.128739 109.248337 
L 241.502199 109.419456 
L 241.710003 109.416226 
L 241.835474 109.564462 
L 242.041257 109.447508 
L 242.218911 109.608685 
L 242.55692 109.338301 
L 242.710371 109.480155 
L 243.036737 109.445722 
L 243.201958 109.550611 
L 243.409889 109.415805 
L 243.742776 109.542865 
L 243.908832 109.368278 
L 244.246002 109.57153 
L 244.493018 109.286516 
L 244.800421 109.448317 
L 244.945504 109.438352 
L 245.278198 109.671407 
L 245.460656 109.598016 
L 245.6088 109.366806 
L 245.941777 109.350517 
L 246.106994 109.492742 
L 246.480254 109.334639 
L 246.688295 109.481917 
L 246.813778 109.420375 
L 246.983913 109.169779 
L 247.250664 109.564347 
L 247.329504 109.362651 
L 247.561323 109.457433 
L 247.769858 109.169451 
L 247.852662 109.466199 
L 248.556392 109.325682 
L 248.763845 109.622131 
L 249.054 109.404396 
L 249.22004 109.453835 
L 249.386714 109.346525 
L 249.718457 109.547613 
L 249.926052 109.341591 
L 250.506274 109.631865 
L 250.603771 109.421237 
L 252.007021 109.479502 
L 252.165822 109.541543 
L 252.293748 109.278076 
L 252.496563 109.467577 
L 252.706411 109.46504 
L 252.871106 109.245593 
L 252.99455 109.536543 
L 253.36734 109.349677 
L 253.864927 109.426725 
L 254.542501 109.417049 
L 254.698803 109.543224 
L 255.110542 109.41903 
L 255.317541 109.470813 
L 255.607942 109.097786 
L 255.815387 109.490786 
L 256.147357 109.368148 
L 256.271124 109.156736 
L 256.519706 109.675549 
L 256.645377 109.382977 
L 256.852167 109.499213 
L 257.142835 109.451938 
L 257.308719 109.64833 
L 257.55682 109.371995 
L 257.848371 109.401937 
L 258.13694 109.20531 
L 258.344332 109.552952 
L 258.510617 109.417526 
L 259.180042 109.62989 
L 259.390162 109.422005 
L 259.555059 109.417951 
L 259.878695 109.647486 
L 260.170453 109.622989 
L 260.25215 109.357659 
L 260.378588 109.435817 
L 260.833066 109.444604 
L 260.925458 109.511596 
L 261.217238 109.420191 
L 261.291853 109.533734 
L 261.457507 109.545483 
L 261.62349 109.389289 
L 262.333093 109.482079 
L 262.501148 109.601472 
L 262.702624 109.202266 
L 262.787279 109.567905 
L 262.963238 109.44483 
L 263.162493 109.549479 
L 263.490584 109.422563 
L 263.698297 109.466779 
L 263.86419 109.326254 
L 264.230218 109.557659 
L 264.406474 109.164589 
L 264.559477 109.437158 
L 264.697618 109.389244 
L 264.902419 109.634206 
L 265.39929 109.396491 
L 265.896843 109.455667 
L 266.104126 109.132494 
L 266.311416 109.404465 
L 266.435941 109.380739 
L 266.651561 109.627255 
L 266.812423 109.420994 
L 267.474411 109.420369 
L 267.637873 109.533669 
L 267.858294 109.545363 
L 267.971726 109.369858 
L 268.181608 109.606168 
L 268.387957 109.419807 
L 268.679162 109.434697 
L 268.807534 109.358648 
L 269.010967 109.36812 
L 269.302164 109.110945 
L 269.38594 109.500072 
L 269.841292 109.439511 
L 270.047991 109.618802 
L 270.379728 109.448369 
L 270.752947 109.444586 
L 271.125855 109.582667 
L 271.583198 109.447706 
L 271.872285 109.640971 
L 271.913154 108.976156 
L 272.165896 109.384944 
L 272.413556 109.446618 
L 273.53568 109.523854 
L 273.657953 109.12373 
L 273.82134 109.386187 
L 274.196583 109.39757 
L 274.321023 109.672349 
L 274.485885 109.640837 
L 274.680553 109.378599 
L 275.191841 109.418773 
L 275.398863 109.639828 
L 275.523705 109.414392 
L 275.773336 109.46424 
L 275.93834 109.286486 
L 276.394572 109.499416 
L 277.762832 109.326938 
L 277.929639 109.534965 
L 278.136501 109.372608 
L 278.260601 109.457159 
L 278.633894 109.419826 
L 278.799534 109.59048 
L 279.131096 109.365008 
L 279.669679 109.636239 
L 279.878463 109.429473 
L 280.084202 109.401981 
L 280.254342 109.254651 
L 280.374434 109.600791 
L 280.707091 109.432987 
L 281.162822 109.417637 
L 281.246472 109.677821 
L 281.452269 109.247187 
L 281.577205 109.438671 
L 281.742667 109.431502 
L 281.908955 109.621722 
L 282.408575 109.384725 
L 282.946243 109.420811 
L 283.443835 109.386109 
L 283.652216 109.11203 
L 284.147687 109.411686 
L 284.483738 109.438915 
L 284.645807 109.302576 
L 284.812589 109.594842 
L 285.146679 109.397667 
L 285.434405 109.623879 
L 285.589971 109.261989 
L 285.683437 109.387906 
L 286.637106 109.471522 
L 286.719907 109.595475 
L 287.096915 109.461878 
L 287.259239 109.528074 
L 287.717488 109.396015 
L 288.088619 109.39833 
L 288.254177 109.570959 
L 288.503461 109.416089 
L 288.627545 109.482502 
L 288.793406 109.439786 
L 288.959052 109.620519 
L 289.125201 109.417605 
L 289.748963 109.477768 
L 289.914395 109.188308 
L 289.9972 109.567478 
L 290.33018 109.367277 
L 290.702783 109.567004 
L 291.034183 109.364864 
L 291.367064 109.395723 
L 291.574797 109.134728 
L 291.698397 109.543605 
L 291.864183 109.402113 
L 292.237578 109.480482 
L 292.370664 109.213282 
L 292.534833 109.409348 
L 292.92118 109.403788 
L 293.069791 109.373878 
L 293.235936 109.4956 
L 293.449229 109.170752 
L 293.607703 109.435792 
L 294.107757 109.139181 
L 294.273493 109.394541 
L 294.851356 109.437475 
L 294.977207 109.084326 
L 295.14194 109.131416 
L 295.30829 109.455355 
L 295.475827 109.429952 
L 295.724217 109.516424 
L 295.849825 109.093506 
L 296.015508 109.416527 
L 296.43168 109.376703 
L 296.595835 109.567205 
L 296.678688 109.176378 
L 296.845169 109.147056 
L 297.052033 109.454009 
L 298.256243 109.344906 
L 298.422527 109.64613 
L 298.762909 109.456392 
L 299.09469 109.320471 
L 299.369096 109.57657 
L 299.458192 109.342697 
L 299.826935 109.452724 
L 300.075903 109.44308 
L 300.118274 109.624294 
L 300.324699 109.371065 
L 301.530843 109.426506 
L 301.698668 109.301902 
L 301.835811 109.503299 
L 302.026745 109.302003 
L 302.567853 109.462446 
L 303.313816 109.404041 
L 303.564915 109.559397 
L 303.729451 109.596377 
L 303.895373 109.433175 
L 304.270338 109.441215 
L 304.434877 109.257636 
L 304.599794 109.431194 
L 305.46998 109.338299 
L 305.475902 111.2827 
L 305.639145 109.393388 
L 305.887001 109.609164 
L 306.345573 109.395921 
L 306.593697 109.391074 
L 306.676907 109.549077 
L 306.805438 109.397394 
L 307.174443 109.420424 
L 307.507939 109.35981 
L 307.799879 109.111393 
L 307.837875 109.627201 
L 308.215475 109.44752 
L 308.836812 109.42552 
L 308.923762 109.523126 
L 309.101398 109.399397 
L 309.250121 109.607876 
L 309.422157 109.582818 
L 309.45809 109.351321 
L 309.624294 109.25455 
L 309.790871 109.42056 
L 309.918006 109.354908 
L 310.288257 109.423625 
L 310.619953 109.084635 
L 310.951654 109.667814 
L 311.118262 109.688628 
L 311.507522 109.413647 
L 311.659303 109.402745 
L 311.823265 107.250923 
L 311.99015 108.218565 
L 312.498394 108.8502 
L 312.661092 108.653196 
L 312.841523 109.050093 
L 313.075108 109.169047 
L 313.379178 109.459687 
L 313.577042 109.386134 
L 313.746276 109.773537 
L 313.950077 109.612707 
L 314.033802 109.706022 
L 314.201629 109.483181 
L 314.495707 109.920241 
L 314.578649 109.732994 
L 315.166889 109.547386 
L 315.278734 109.790609 
L 315.48951 109.517455 
L 315.818567 109.786471 
L 316.027603 109.419711 
L 316.194183 109.876697 
L 316.408253 109.425197 
L 316.507943 109.509828 
L 316.613191 109.378871 
L 316.797756 109.690229 
L 317.20556 109.774568 
L 317.320802 110.05611 
L 317.564282 109.68705 
L 317.706398 109.873677 
L 317.85523 109.475376 
L 318.187507 109.953904 
L 318.353457 109.752138 
L 318.521708 110.013208 
L 318.782499 109.942146 
L 318.85217 109.763308 
L 319.100521 109.907836 
L 319.225076 109.791389 
L 319.409494 109.931036 
L 319.558885 110.280614 
L 319.841148 109.6178 
L 320.297066 110.274382 
L 320.629841 109.7416 
L 321.085565 110.200303 
L 321.335238 109.751213 
L 321.708592 110.056619 
L 321.79598 109.771819 
L 322.165521 110.165378 
L 322.331441 109.961051 
L 322.663992 110.393949 
L 322.833021 110.060442 
L 322.996495 110.268076 
L 323.16259 110.25651 
L 323.335657 109.962229 
L 323.706095 110.15141 
L 324.203811 109.978052 
L 324.370413 110.386817 
L 324.721012 110.152611 
L 324.909506 110.207329 
L 325.116151 110.030423 
L 325.323389 110.24043 
L 325.448723 110.021544 
L 325.614606 110.326524 
L 326.072865 110.202741 
L 326.238562 110.306169 
L 326.412047 110.561742 
L 326.611344 110.254639 
L 326.78644 110.1937 
L 326.948721 110.401299 
L 327.207242 110.312945 
L 327.32073 110.493453 
L 327.360247 110.442813 
L 327.443537 110.237538 
L 327.669682 110.17662 
L 327.816366 110.372958 
L 328.108854 110.442311 
L 328.32193 110.205245 
L 328.481153 110.740217 
L 328.64752 110.306587 
L 329.236918 110.249422 
L 329.36207 110.639742 
L 329.652278 110.681847 
L 329.694481 110.525711 
L 329.985262 110.774584 
L 330.151062 110.468281 
L 330.19387 110.549574 
L 330.481735 110.664929 
L 330.564866 110.206611 
L 330.731867 110.558805 
L 331.186949 110.611656 
L 331.436321 110.540968 
L 331.60623 110.655815 
L 331.643987 110.50502 
L 331.934519 110.775414 
L 332.308094 110.38678 
L 332.43322 110.635318 
L 332.655635 110.611794 
L 332.767125 110.471845 
L 332.97483 110.919864 
L 333.140408 110.695105 
L 333.309014 110.791584 
L 333.514844 110.590649 
L 333.806007 110.547992 
L 334.013531 110.838849 
L 334.14328 110.793079 
L 334.42815 110.940972 
L 334.530533 110.847625 
L 334.679608 110.546932 
L 334.859288 110.747637 
L 335.175884 110.617134 
L 335.347981 110.96899 
L 335.555985 110.955504 
L 335.931453 110.51705 
L 336.094646 110.898885 
L 336.386343 110.757748 
L 336.593826 111.143341 
L 336.759288 110.921695 
L 337.138595 110.907338 
L 337.261473 111.337637 
L 337.632443 110.779644 
L 337.845969 111.087017 
L 337.964258 110.736123 
L 338.137004 111.026069 
L 338.633677 110.800873 
L 338.797148 111.083413 
L 339.18314 111.063005 
L 339.338692 110.856853 
L 339.503594 111.177985 
L 339.674798 111.14735 
L 339.878088 110.866075 
L 340.005552 111.25142 
L 340.211833 111.055255 
L 340.91533 111.243963 
L 341.073503 111.306897 
L 341.399078 110.957452 
L 341.93982 111.334597 
L 342.151599 111.325113 
L 342.273927 111.559052 
L 342.406038 111.180441 
L 342.605046 111.225178 
L 342.771238 111.573212 
L 343.269013 111.262186 
L 343.435661 111.420812 
L 343.725777 111.410948 
L 343.829534 111.182112 
L 344.348416 111.496657 
L 344.721412 111.495875 
L 344.813396 111.391221 
L 344.993925 111.414928 
L 345.181784 111.560586 
L 345.525221 111.500987 
L 345.678126 111.629549 
L 345.845578 111.061457 
L 346.109824 111.388701 
L 346.219824 111.259441 
L 346.383739 111.693543 
L 346.774464 111.500399 
L 346.929406 111.357287 
L 347.13467 111.592376 
L 347.432378 111.394339 
L 347.610518 111.607483 
L 347.812893 111.515662 
L 347.897482 111.807041 
L 348.308348 111.291421 
L 348.515742 111.638595 
L 348.598891 111.525331 
L 348.806141 111.651736 
L 348.977588 111.926095 
L 349.304427 111.51919 
L 349.678685 111.54188 
L 349.844641 111.761121 
L 350.175789 111.683903 
L 350.34163 111.890432 
L 350.67893 111.663613 
L 351.380226 112.02355 
L 351.547773 111.801459 
L 351.75397 112.04225 
L 352.127203 111.550668 
L 352.302626 111.78778 
L 352.418432 111.731061 
L 352.625981 111.8272 
L 352.791429 111.741475 
L 352.957356 111.824136 
L 353.098215 111.764169 
L 353.248422 112.031948 
L 353.45844 112.102967 
L 353.662257 111.804084 
L 353.953568 112.123905 
L 354.121182 111.692192 
L 354.285471 111.929991 
L 354.629467 111.889521 
L 354.79515 111.931006 
L 355.127769 111.819309 
L 355.169495 111.958095 
L 355.376697 111.703617 
L 355.670175 112.037875 
L 355.832743 112.04751 
L 356.039958 111.94291 
L 356.373504 112.179518 
L 356.70401 112.082699 
L 356.914665 112.331137 
L 357.080208 112.006978 
L 357.244975 112.273151 
L 357.577453 112.09375 
L 357.911932 112.197189 
L 358.151598 112.259439 
L 358.28907 112.057931 
L 358.620771 112.370838 
L 358.787003 112.126167 
L 358.953268 112.377958 
L 359.118747 112.151534 
L 359.658684 112.54138 
L 359.783703 112.028997 
L 360.003568 112.323762 
L 360.032147 112.183927 
L 360.156545 112.065388 
L 360.366132 112.367709 
L 360.695951 112.138194 
L 361.070572 112.610315 
L 361.194597 112.160541 
L 361.498968 112.358719 
L 361.702593 112.394357 
L 362.025558 112.621934 
L 362.398408 112.313126 
L 362.522582 112.211581 
L 362.814933 112.385942 
L 362.854919 112.652609 
L 363.939195 112.575835 
L 364.150577 112.651691 
L 364.273641 112.459793 
L 364.445173 112.548946 
L 364.610802 112.348843 
L 364.942428 112.672913 
L 365.277996 112.670879 
L 365.483121 112.80778 
L 365.693161 112.162025 
L 366.032869 112.979537 
L 366.188117 112.625363 
L 366.482734 112.499871 
L 366.519435 112.729094 
L 366.685325 112.586659 
L 367.018215 112.662764 
L 367.185628 112.863588 
L 367.74185 112.726981 
L 367.890856 112.800509 
L 368.069412 112.661682 
L 368.389692 113.011011 
L 368.556487 112.467703 
L 368.77355 112.940178 
L 369.054915 112.607546 
L 369.097542 112.837499 
L 369.261187 112.659915 
L 369.717568 112.894152 
L 369.809147 112.61073 
L 369.939491 113.057606 
L 370.18811 112.422973 
L 370.495833 112.91076 
L 370.654645 112.999041 
L 370.821023 112.936612 
L 370.98985 113.062447 
L 371.241892 112.652754 
L 371.352999 112.959235 
L 371.518107 113.001088 
L 371.766469 112.908158 
L 371.895995 113.215523 
L 372.018108 112.915731 
L 372.223325 113.15229 
L 372.557244 112.901702 
L 372.764978 112.86367 
L 373.068831 113.121166 
L 373.303165 113.250427 
L 373.396931 113.154016 
L 373.800147 114.46987 
L 373.926978 113.710949 
L 374.092259 113.96994 
L 374.464896 113.967741 
L 374.797878 113.656577 
L 375.138826 113.337605 
L 375.461779 113.023165 
L 379.871843 113.136608 
L 379.954105 113.030764 
L 380.126978 113.139449 
L 381.761429 113.153778 
L 382.70284 113.07118 
L 382.865877 113.203441 
L 383.197255 113.139793 
L 383.735709 113.154559 
L 384.99214 113.136352 
L 388.228413 113.141887 
L 422.588032 113.141101 
L 426.71952 113.141054 
L 426.71952 113.141054 
" clip-path="url(#p7d1416e43f)" style="fill: none; stroke: #0000ff; stroke-opacity: 0.5; stroke-width: 1.75; stroke-linecap: square"/>
   </g>
   <g id="line2d_32">
    <path d="M 38.502813 129.621674 
L 38.586372 128.809815 
L 38.755356 131.165555 
L 38.804889 128.910184 
L 38.925958 128.761006 
L 39.138881 130.771176 
L 39.341015 130.183615 
L 39.465054 131.342126 
L 39.921427 129.339285 
L 39.962962 131.012713 
L 40.253316 130.559468 
L 40.502338 130.752182 
L 40.629228 130.393325 
L 40.959149 130.994686 
L 40.999568 130.193633 
L 41.165207 129.449305 
L 41.373431 130.492837 
L 41.581581 130.944587 
L 41.745801 128.84351 
L 41.963998 131.08402 
L 42.03648 129.1192 
L 42.202052 131.433124 
L 42.536733 129.427345 
L 42.744351 129.617581 
L 42.907635 130.935867 
L 43.073346 130.392974 
L 43.281243 129.068182 
L 43.619341 130.02216 
L 43.840433 131.763858 
L 43.947639 129.262893 
L 44.113335 130.673154 
L 44.279421 129.839076 
L 44.570921 132.287745 
L 44.696674 131.157552 
L 44.777286 132.272384 
L 44.947605 132.212109 
L 45.11271 131.791047 
L 45.280153 132.991817 
L 45.483826 132.41827 
L 45.903891 132.949638 
L 46.80912 133.058608 
L 47.717034 132.009907 
L 48.624371 130.39208 
L 49.532758 130.711556 
L 51.431258 132.119121 
L 52.421423 131.219579 
L 53.329477 132.564978 
L 53.427299 131.794208 
L 53.592495 132.819555 
L 53.758412 132.746608 
L 53.924577 132.908787 
L 54.131233 132.114296 
L 54.339744 128.825841 
L 54.629176 132.140744 
L 54.757348 129.27994 
L 54.923122 130.722314 
L 55.131559 131.015044 
L 55.295037 127.498185 
L 55.501873 129.469399 
L 55.627036 132.575291 
L 55.794147 131.73028 
L 56.000476 131.398296 
L 56.13528 131.851931 
L 56.333064 130.397106 
L 56.538774 131.156962 
L 56.746749 132.749713 
L 56.829666 131.000781 
L 56.995956 133.819883 
L 57.162972 133.072781 
L 57.380299 129.759103 
L 57.708895 132.846783 
L 57.909483 130.635512 
L 58.035666 132.044821 
L 58.243276 132.19055 
L 58.40757 129.458561 
L 58.617422 132.029501 
L 58.738834 131.543929 
L 58.906011 130.199121 
L 59.112035 130.268011 
L 59.319447 129.544193 
L 59.734499 125.936787 
L 60.149775 131.660081 
L 60.482862 127.458721 
L 60.780423 130.749116 
L 60.985313 128.596569 
L 61.31567 130.994049 
L 61.399524 134.468464 
L 62.061554 129.468762 
L 62.228562 132.444585 
L 62.352275 132.331991 
L 62.811021 130.906139 
L 63.016444 130.614862 
L 63.057464 129.35415 
L 63.38946 129.610832 
L 63.555706 131.836104 
L 63.762615 132.175162 
L 63.969792 129.383753 
L 64.138491 129.420971 
L 64.266967 130.602135 
L 64.393611 130.672682 
L 64.426358 131.030679 
L 64.799248 131.055874 
L 64.924123 131.646836 
L 65.133243 131.544874 
L 65.296761 128.312701 
L 65.433672 128.895453 
L 65.629405 131.698588 
L 66.001911 128.389361 
L 66.12709 130.583984 
L 66.292234 130.552328 
L 66.666937 129.045961 
L 66.831905 129.296925 
L 66.998738 131.758254 
L 67.329425 128.845752 
L 67.712556 132.606249 
L 68.035141 128.562072 
L 68.203445 131.488078 
L 68.532447 132.96809 
L 68.704602 129.291389 
L 68.870271 131.919589 
L 69.19689 127.782956 
L 69.610891 133.425563 
L 69.735185 132.968848 
L 69.900835 128.73725 
L 70.067893 128.000481 
L 70.232949 131.302925 
L 70.442476 130.599085 
L 70.647809 127.971481 
L 71.103606 132.34806 
L 71.269688 131.358766 
L 71.692611 130.725244 
L 72.057258 128.899085 
L 72.306769 133.721837 
L 72.472629 132.128162 
L 72.846086 126.098495 
L 73.011448 126.755275 
L 73.347664 132.098793 
L 73.635317 131.973004 
L 73.71742 132.279861 
L 74.008375 131.180225 
L 74.267415 128.796367 
L 74.339542 129.013286 
L 74.387394 130.636402 
L 74.795672 132.926107 
L 75.500665 130.838128 
L 75.749183 131.828429 
L 75.956217 131.229638 
L 76.412002 127.880657 
L 76.619711 128.775093 
L 76.758815 131.153943 
L 76.992949 132.484292 
L 77.326234 129.411928 
L 77.699691 135.097586 
L 77.823074 135.127365 
L 78.156673 132.48596 
L 78.430009 132.076596 
L 78.550041 130.956933 
L 78.821169 129.536976 
L 78.903987 129.55445 
L 78.988623 132.833463 
L 79.400009 127.98367 
L 79.541804 129.667573 
L 79.743602 133.569974 
L 79.94089 134.941622 
L 80.229943 129.451074 
L 80.610261 132.512894 
L 80.818879 130.281773 
L 80.99713 129.939322 
L 81.146019 132.380509 
L 81.560211 133.976221 
L 81.654305 129.958947 
L 82.588081 129.29395 
L 83.490609 130.24826 
L 84.484611 129.157974 
L 84.66477 122.617742 
L 85.082764 127.328849 
L 85.245405 130.949078 
L 85.508625 133.663135 
L 85.675042 133.193557 
L 85.941665 129.517178 
L 86.057746 129.48497 
L 86.220877 130.674418 
L 86.637062 134.526141 
L 86.760071 134.428498 
L 86.968483 130.95749 
L 87.095991 126.659659 
L 87.299607 123.932499 
L 87.48207 125.145966 
L 87.881858 133.827161 
L 87.964585 134.833063 
L 88.506917 125.050153 
L 88.631045 126.136444 
L 88.977442 132.229475 
L 89.143635 132.02236 
L 89.506136 127.544651 
L 89.671525 129.615874 
L 90.006064 136.004609 
L 90.188339 135.69766 
L 90.558863 133.586897 
L 90.709146 131.582162 
L 90.881089 132.78939 
L 91.093336 133.132659 
L 91.404457 125.10848 
L 91.642758 123.263265 
L 91.942447 128.91068 
L 92.376081 131.607062 
L 92.570173 127.196646 
L 92.63124 126.711631 
L 92.750864 128.850079 
L 92.964533 130.050518 
L 93.20664 130.046278 
L 93.289089 130.808391 
L 93.454909 130.802668 
L 93.828095 129.79485 
L 93.954799 130.372879 
L 94.337513 133.619342 
L 94.456954 132.913976 
L 94.708442 132.684796 
L 95.078358 135.83308 
L 95.410511 130.599119 
L 95.624723 130.291968 
L 95.700833 133.817211 
L 95.844986 134.008624 
L 96.200006 128.938673 
L 96.533178 133.289062 
L 96.698446 133.025564 
L 97.028904 133.322032 
L 97.074634 134.741855 
L 97.245392 133.338756 
L 97.401903 129.310492 
L 97.699946 127.800894 
L 97.775202 130.924598 
L 97.982493 131.545688 
L 98.233138 128.198045 
L 98.438057 128.443242 
L 98.77191 125.584788 
L 98.97864 125.906842 
L 99.278061 130.369057 
L 99.649089 127.267943 
L 99.975938 128.242987 
L 100.349394 126.788983 
L 100.598244 127.31386 
L 100.84697 130.535783 
L 101.096004 130.734323 
L 101.17921 130.324633 
L 101.966145 131.222152 
L 102.051522 132.098323 
L 102.216377 131.646254 
L 102.547567 129.410396 
L 102.713209 129.602213 
L 102.921276 131.048928 
L 103.12737 131.148277 
L 103.419261 130.306511 
L 103.920257 132.262022 
L 104.303186 134.246832 
L 104.664595 129.884249 
L 104.976665 134.984299 
L 105.133516 133.935636 
L 105.466524 127.393407 
L 105.63046 130.175687 
L 105.84727 131.800539 
L 106.169076 127.754944 
L 106.543079 131.468916 
L 106.958774 128.425287 
L 107.130818 130.159036 
L 107.3753 133.73988 
L 107.747893 131.330486 
L 108.04783 133.668842 
L 108.297433 133.390048 
L 108.449944 132.037416 
L 108.659045 131.892558 
L 108.782339 131.143146 
L 109.031304 130.911218 
L 109.114869 130.362628 
L 109.280227 130.392342 
L 109.448473 130.071751 
L 109.623216 128.889923 
L 109.946682 122.376646 
L 110.288654 123.722735 
L 110.456049 131.889397 
L 110.662074 132.079751 
L 110.994486 128.972227 
L 111.159567 129.77205 
L 111.662038 137.007321 
L 111.989816 134.205591 
L 112.196663 128.4501 
L 112.362925 129.662294 
L 112.698424 134.692988 
L 112.859922 134.3922 
L 113.321516 128.695879 
L 113.776225 135.252801 
L 114.2706 127.930842 
L 114.891575 132.379091 
L 115.099502 129.641064 
L 115.431779 129.894173 
L 115.638632 130.601725 
L 115.80555 129.644586 
L 116.095338 127.148659 
L 116.137027 124.155637 
L 116.385323 124.439392 
L 116.468387 127.847451 
L 116.716859 131.425187 
L 117.25945 127.240547 
L 117.545031 132.183641 
L 117.710841 133.031319 
L 118.045006 130.839547 
L 118.084294 129.196557 
L 118.293001 127.286459 
L 118.376952 128.111073 
L 118.541457 131.622124 
L 118.802157 133.833582 
L 119.079652 128.342951 
L 119.286983 129.061783 
L 119.576937 134.502192 
L 119.785263 135.838707 
L 119.951768 134.679825 
L 120.201611 130.884118 
L 120.286958 127.151313 
L 120.449973 126.627986 
L 120.988512 134.721672 
L 121.445842 128.006976 
L 121.693199 127.578181 
L 122.15039 133.946877 
L 122.688828 124.164035 
L 122.899286 124.211467 
L 123.186902 131.716222 
L 123.476608 134.368162 
L 123.891834 128.396082 
L 124.225808 134.926696 
L 124.398906 135.664354 
L 124.559032 134.534746 
L 124.93016 127.713426 
L 125.098314 127.169848 
L 125.593972 134.194771 
L 125.933591 127.562994 
L 126.091208 128.856199 
L 126.505673 130.242646 
L 126.672368 129.52713 
L 126.962461 124.429514 
L 127.129093 124.390724 
L 127.542028 128.781096 
L 127.666319 128.095912 
L 127.832088 125.843577 
L 128.039652 126.90613 
L 128.205745 130.600414 
L 128.413767 132.351257 
L 128.538294 132.427615 
L 128.703848 132.307576 
L 128.870071 131.922897 
L 129.201434 132.7887 
L 129.408601 132.461816 
L 129.906815 130.573122 
L 130.239123 132.470258 
L 130.864623 129.798668 
L 130.985567 130.649854 
L 131.311491 131.404731 
L 131.48284 131.288071 
L 131.649393 131.366752 
L 131.777138 129.616143 
L 131.961904 128.745476 
L 132.312427 132.413227 
L 132.568539 131.904341 
L 132.645334 128.840227 
L 132.882257 129.779145 
L 132.990985 133.56239 
L 133.144877 132.727747 
L 133.519284 129.263702 
L 133.84946 134.936056 
L 134.015471 133.816859 
L 134.223187 130.84176 
L 134.56689 133.158005 
L 134.893828 128.528657 
L 135.093566 130.200139 
L 135.385075 134.541455 
L 135.632363 132.927314 
L 135.922919 130.45327 
L 136.266318 130.446425 
L 136.627928 136.724696 
L 136.918521 136.858421 
L 137.332428 128.816967 
L 137.64509 134.352188 
L 138.1409 130.020646 
L 138.304691 130.23711 
L 138.554916 129.115316 
L 138.802793 128.562805 
L 139.179931 131.496933 
L 139.524878 132.097046 
L 139.898516 129.207973 
L 140.063941 129.666574 
L 140.332368 131.068379 
L 140.398704 132.300127 
L 140.574233 130.735769 
L 140.977349 124.952829 
L 141.434008 131.797238 
L 141.765256 127.293509 
L 142.843209 131.747546 
L 143.132982 131.921796 
L 143.63131 131.039931 
L 143.796412 130.055132 
L 144.170493 136.012543 
L 144.376725 134.131901 
L 144.508671 130.538787 
L 144.709156 129.310725 
L 145.25827 138.974676 
L 145.376758 137.527445 
L 145.709214 130.220574 
L 145.876184 130.135249 
L 146.041521 132.545189 
L 146.21044 132.976934 
L 146.747304 126.37357 
L 147.698753 132.091127 
L 147.78194 129.719181 
L 147.947862 129.513477 
L 148.113469 133.104556 
L 148.320456 134.130647 
L 148.448415 130.487722 
L 148.65207 129.39865 
L 148.984509 132.506375 
L 149.150039 130.476678 
L 149.318724 130.459438 
L 149.484374 133.669298 
L 149.663221 134.867349 
L 149.897468 131.45862 
L 150.066368 132.575475 
L 150.190357 135.839772 
L 150.601677 130.949298 
L 151.061785 136.961543 
L 151.224985 133.195259 
L 151.392201 132.155082 
L 151.573428 135.518684 
L 151.732652 134.745548 
L 152.100754 131.010083 
L 152.432337 134.222353 
L 152.680639 134.296026 
L 152.932301 133.11108 
L 153.343857 133.024641 
L 153.634433 133.546363 
L 153.885753 133.37899 
L 154.214287 131.869238 
L 154.381146 131.442757 
L 154.842757 138.358749 
L 155.169045 135.296626 
L 155.350152 135.364246 
L 155.583946 138.843692 
L 155.79104 137.18446 
L 156.039565 129.69028 
L 156.205848 128.607101 
L 156.373269 128.749113 
L 156.829139 127.697568 
L 156.917986 128.782652 
L 157.077547 128.658275 
L 157.242865 127.750822 
L 157.540721 127.687484 
L 157.700653 128.937912 
L 157.783791 131.906227 
L 157.950262 132.474766 
L 158.279995 129.058768 
L 158.44686 129.013596 
L 158.611761 127.895671 
L 158.777487 127.925367 
L 159.122653 131.314005 
L 159.441709 130.715176 
L 159.483749 127.120369 
L 159.648926 122.911841 
L 159.81518 121.566462 
L 160.022626 123.661489 
L 160.353977 131.799471 
L 160.479337 131.349028 
L 161.018938 126.96473 
L 161.184162 127.889045 
L 161.557948 133.452178 
L 161.68295 134.296753 
L 161.889294 131.697814 
L 162.055113 127.065408 
L 162.263441 124.802249 
L 162.396259 125.943765 
L 162.760088 134.539893 
L 162.967115 136.690692 
L 163.13347 135.777224 
L 163.796938 127.923622 
L 163.92475 127.276655 
L 164.265002 126.463271 
L 164.293978 125.579758 
L 164.46354 124.794027 
L 164.505163 125.044325 
L 164.543176 124.97026 
L 165.209182 131.877236 
L 165.375503 132.439871 
L 165.584616 133.885588 
L 165.830019 139.817582 
L 166.162386 140.892073 
L 166.205494 141.557397 
L 166.370355 140.818268 
L 166.867456 133.977521 
L 167.035704 134.831827 
L 167.248444 82.530411 
L 167.37214 90.583013 
L 167.592103 85.709018 
L 167.740271 63.906924 
L 168.776803 162.418464 
L 169.107821 176.494311 
L 169.442143 180.831669 
L 169.648632 170.634945 
L 169.979168 140.30247 
L 170.144858 138.471595 
L 170.311488 133.425251 
L 170.476552 123.339664 
L 170.683728 123.263113 
L 170.85002 120.353205 
L 171.018264 113.683858 
L 171.184495 112.386126 
L 171.390371 112.110349 
L 171.640165 114.797498 
L 171.731979 117.538215 
L 171.853342 116.72788 
L 172.224076 131.327887 
L 172.390467 126.100895 
L 172.597282 130.002048 
L 172.867074 131.539862 
L 172.890431 134.540227 
L 173.219585 124.928541 
L 173.344281 117.047964 
L 173.426692 123.782017 
L 173.965146 107.918494 
L 174.089983 114.264999 
L 174.256107 115.099718 
L 174.421625 110.604988 
L 174.629721 121.076211 
L 174.835794 112.080058 
L 175.126335 121.004637 
L 175.292269 122.755852 
L 175.512596 123.618556 
L 175.717338 124.88469 
L 175.842435 118.454108 
L 175.966082 120.167774 
L 176.174618 117.747977 
L 176.339554 106.466027 
L 176.547265 103.098221 
L 176.712839 104.036564 
L 176.878337 99.858635 
L 177.086584 99.461878 
L 177.211731 108.852514 
L 177.500898 104.20521 
L 177.875145 116.317863 
L 178.039763 112.90433 
L 178.206907 117.369443 
L 178.376506 118.568718 
L 178.579448 114.983868 
L 178.706389 120.273732 
L 178.910895 112.896769 
L 179.117783 110.94616 
L 179.24249 106.302106 
L 179.49159 112.202035 
L 179.657205 110.199161 
L 179.782056 110.370388 
L 179.947148 112.888114 
L 180.112916 117.49819 
L 180.321054 116.08019 
L 180.528161 116.888131 
L 180.735556 114.632777 
L 181.066874 119.37217 
L 181.152699 114.33911 
L 181.523004 104.385364 
L 181.649551 98.281772 
L 181.843152 94.99831 
L 182.00196 97.837676 
L 182.168021 97.079663 
L 182.519423 96.469879 
L 183.005638 101.053178 
L 183.185199 110.690348 
L 183.389727 101.089822 
L 183.556317 104.850482 
L 183.721917 105.355961 
L 183.886987 96.291184 
L 184.343248 103.802026 
L 184.509088 103.201461 
L 184.634012 101.758687 
L 184.846511 86.890609 
L 184.966286 92.958299 
L 185.104134 92.780761 
L 185.506274 103.371076 
L 185.589918 111.325115 
L 185.770503 113.70056 
L 186.667948 93.225399 
L 186.834352 92.737976 
L 187.041777 94.833929 
L 187.208633 94.972323 
L 187.335181 90.513546 
L 187.498644 92.868563 
L 187.83031 99.349062 
L 188.038914 96.201373 
L 188.702007 112.903543 
L 189.033047 99.762928 
L 189.323182 111.506586 
L 189.572243 102.491507 
L 189.737865 109.049192 
L 189.904158 114.674511 
L 190.070259 113.331009 
L 190.237035 105.664552 
L 190.527056 99.762906 
L 190.611255 100.296437 
L 190.942467 83.839359 
L 191.107627 82.054878 
L 191.356029 83.127088 
L 191.523033 78.365779 
L 191.811547 91.016629 
L 192.019145 89.042773 
L 192.248529 88.874777 
L 192.417055 88.16339 
L 192.518548 83.403306 
L 192.725323 91.12452 
L 193.016079 81.924757 
L 193.265275 69.412577 
L 193.525223 75.260452 
L 193.641482 73.77439 
L 193.719918 75.822824 
L 193.979383 75.872707 
L 194.056481 75.696423 
L 194.225003 78.366341 
L 194.548805 72.991844 
L 194.797579 77.365526 
L 194.922159 75.206228 
L 195.212183 74.048543 
L 195.295114 75.877672 
L 195.461043 73.487271 
L 195.586589 75.460045 
L 195.83521 67.093519 
L 196.124398 69.701257 
L 196.291833 75.685437 
L 196.580732 79.090242 
L 196.748291 78.91871 
L 196.954617 65.101364 
L 197.119948 63.711731 
L 197.327727 59.618091 
L 197.540592 60.594408 
L 197.700895 65.6796 
L 197.86703 65.057953 
L 198.003553 70.946858 
L 198.239856 70.845642 
L 198.405795 69.739218 
L 198.541309 67.416846 
L 198.697139 68.264698 
L 198.878303 70.850619 
L 199.028913 77.880884 
L 199.235536 81.534396 
L 199.483734 79.140887 
L 199.649563 75.227434 
L 199.732634 67.77059 
L 200.0651 60.382938 
L 200.230265 60.762883 
L 200.479468 63.287253 
L 200.648575 58.547519 
L 200.769743 64.159345 
L 200.936176 60.459916 
L 201.269763 67.041578 
L 201.433198 64.15486 
L 201.599156 74.498691 
L 201.771257 74.362326 
L 201.972225 73.022505 
L 202.497627 64.624385 
L 202.802977 63.286743 
L 203.066925 58.386222 
L 203.258895 55.680248 
L 203.345358 59.223373 
L 203.591491 58.265754 
L 203.676205 53.767349 
L 203.881319 50.870741 
L 204.010432 54.327315 
L 204.30162 51.307745 
L 204.466335 57.29955 
L 204.544957 56.724691 
L 204.842997 54.419906 
L 204.974216 58.812014 
L 205.085509 57.320051 
L 205.211776 59.68392 
L 205.458934 71.231633 
L 205.562396 70.69659 
L 205.79286 73.464742 
L 205.958517 71.773 
L 206.123628 63.864872 
L 206.249665 66.032465 
L 206.579877 53.267894 
L 206.787181 46.76529 
L 206.953379 49.408947 
L 207.201515 47.647689 
L 207.533153 49.856899 
L 207.628418 51.788308 
L 207.823123 45.558975 
L 207.950223 49.130476 
L 207.989909 45.260485 
L 208.15537 45.387949 
L 208.654127 33.904498 
L 208.819692 34.865632 
L 209.06875 32.571404 
L 209.364106 46.556063 
L 209.52488 46.092491 
L 209.694221 44.942153 
L 209.898115 44.414136 
L 210.022111 49.334023 
L 210.190221 46.443199 
L 210.478378 49.194313 
L 210.897039 40.573643 
L 211.060182 42.337366 
L 211.229053 36.976603 
L 211.394521 38.782094 
L 211.572053 32.411092 
L 211.726285 40.091548 
L 211.975693 37.053169 
L 212.016167 37.857922 
L 212.102259 37.305152 
L 212.265662 40.48285 
L 212.431349 32.884902 
L 212.948447 43.420526 
L 213.097541 40.8698 
L 213.345276 42.877762 
L 213.718524 36.682087 
L 213.800791 30.720377 
L 214.091247 32.038108 
L 214.136742 26.373316 
L 214.329273 28.136757 
L 214.517147 32.702369 
L 214.645376 28.306107 
L 214.961804 34.222894 
L 215.003774 28.99276 
L 215.169079 34.448514 
L 215.542481 39.201226 
L 215.915184 38.799035 
L 216.206865 43.383041 
L 216.41344 43.969956 
L 216.58419 36.26692 
L 216.745894 35.607408 
L 216.870653 26.469163 
L 217.076131 25.625257 
L 217.242437 20.428661 
L 217.454308 18.501669 
L 217.614932 24.543651 
L 217.947678 26.278678 
L 218.073785 27.617479 
L 218.320226 28.376663 
L 218.452737 30.296234 
L 218.652175 27.05455 
L 218.778428 32.348534 
L 218.993718 31.01757 
L 219.108845 34.961983 
L 219.27589 32.090031 
L 219.48269 30.473099 
L 219.647945 22.881616 
L 219.813668 21.746212 
L 220.16022 21.594168 
L 220.561116 34.278677 
L 220.685603 31.69731 
L 220.851507 30.915259 
L 221.028229 27.854 
L 221.185178 29.76903 
L 221.473407 25.943331 
L 221.556393 32.535032 
L 221.76367 29.047002 
L 221.888417 33.748848 
L 222.261216 25.411628 
L 222.386698 18.39831 
L 222.551674 22.027086 
L 222.900334 20.447489 
L 223.095895 17.726887 
L 223.299739 16.9196 
L 223.506579 14.829569 
L 223.631297 12.086894 
L 223.879809 13.886952 
L 224.128783 22.113249 
L 224.294277 22.017606 
L 224.501503 25.03196 
L 224.628545 24.194373 
L 224.87638 24.102642 
L 224.999346 30.579627 
L 225.165961 26.046413 
L 225.30129 27.396857 
L 225.760961 25.289285 
L 225.930244 24.854777 
L 226.047075 23.704778 
L 226.207896 27.859452 
L 226.374016 22.422875 
L 226.583675 23.739524 
L 226.755858 22.241588 
L 227.342758 12.347111 
L 227.392505 9.437286 
L 227.592455 4.251601 
L 227.758081 6.798144 
L 227.883821 6.03763 
L 228.255833 12.426232 
L 228.512468 14.302112 
L 228.795006 25.401137 
L 229.043821 24.061789 
L 229.292654 32.672286 
L 229.541201 34.088446 
L 229.626368 54.844684 
L 229.873793 52.562806 
L 230.038834 53.358532 
L 230.338196 38.863014 
L 230.577786 35.985049 
L 230.82737 28.391947 
L 231.035274 24.824082 
L 231.283205 23.388998 
L 231.577432 25.728441 
L 231.798122 25.974209 
L 231.880109 24.377012 
L 232.04936 32.704319 
L 232.258259 35.941259 
L 232.337894 45.479096 
L 232.792382 52.443122 
L 232.999197 51.874613 
L 233.206972 48.690827 
L 233.999199 19.234718 
L 234.080582 10.512444 
L 234.286248 9.525049 
L 234.451681 6.884866 
L 234.783175 11.130225 
L 235.281034 29.37893 
L 235.450774 37.21995 
L 235.655156 40.945919 
L 235.988508 49.408341 
L 236.151866 47.908033 
L 236.484455 37.101976 
L 236.817354 22.961675 
L 237.106334 15.640358 
L 237.189713 9.352236 
L 237.482227 7.889183 
L 237.527784 6.175781 
L 238.14327 23.442972 
L 238.392143 38.135099 
L 238.892169 43.334481 
L 239.387212 37.972005 
L 239.428711 32.251358 
L 239.928434 19.594266 
L 240.092821 19.975012 
L 240.259079 20.994349 
L 240.466943 28.507654 
L 240.729629 32.06858 
L 240.963756 42.302095 
L 241.128739 41.727784 
L 241.419183 43.676168 
L 241.710003 40.274004 
L 242.710371 8.913467 
L 242.87028 7.895559 
L 243.036737 8.867182 
L 243.579268 24.829533 
L 243.908832 36.343136 
L 244.246002 46.634777 
L 244.493018 46.146798 
L 244.619322 46.726856 
L 244.800421 46.002441 
L 245.111215 41.464437 
L 245.278198 40.4009 
L 245.6088 36.323681 
L 245.941777 39.2183 
L 246.106994 43.216791 
L 246.480254 47.635496 
L 246.813778 51.90584 
L 246.983913 49.784599 
L 247.250664 51.772604 
L 247.329504 48.779468 
L 247.528581 47.257037 
L 247.561323 45.60439 
L 247.852662 41.40944 
L 248.141921 37.959735 
L 248.348878 31.761201 
L 248.556392 29.939808 
L 248.88818 32.865177 
L 249.054 33.337702 
L 249.22004 35.174298 
L 249.386714 35.298976 
L 249.718457 36.799792 
L 249.926052 36.473997 
L 250.066819 37.934303 
L 250.506274 37.124348 
L 250.755353 29.883137 
L 250.920532 25.994268 
L 251.210704 24.053208 
L 251.293338 22.273571 
L 251.626994 22.021856 
L 251.792847 21.205581 
L 252.007021 21.539001 
L 252.293748 24.110205 
L 252.706411 31.663299 
L 252.871106 30.372912 
L 252.99455 32.077112 
L 253.165828 29.954708 
L 253.36734 29.772825 
L 253.698526 30.50817 
L 254.156567 24.442879 
L 254.198387 21.69667 
L 254.406504 20.446782 
L 254.542501 22.060403 
L 254.944477 29.171323 
L 255.110542 31.320235 
L 255.317541 31.390242 
L 255.405016 29.777389 
L 255.607942 28.356988 
L 255.815387 32.698714 
L 255.939458 32.903863 
L 256.105723 32.51709 
L 256.271124 28.035945 
L 256.519706 29.222957 
L 256.645377 22.586251 
L 256.852167 19.895727 
L 257.059435 19.006448 
L 257.308719 27.150587 
L 257.55682 27.295592 
L 257.848371 28.48442 
L 258.13694 28.369862 
L 258.510617 33.018068 
L 258.676182 34.463302 
L 258.883911 32.779932 
L 259.390162 22.127329 
L 259.555059 21.508621 
L 259.878695 23.516303 
L 260.378588 29.355746 
L 260.624836 29.355933 
L 260.833066 30.039327 
L 260.925458 33.212634 
L 261.291853 34.21617 
L 261.793777 27.162276 
L 261.9967 26.508242 
L 262.121079 25.129621 
L 262.333093 25.569309 
L 262.501148 27.990527 
L 262.702624 26.48511 
L 262.787279 31.265066 
L 262.963238 32.605851 
L 263.162493 35.743742 
L 263.333761 34.357367 
L 263.86419 27.376118 
L 264.230218 30.256195 
L 264.406474 24.759548 
L 264.559477 23.877692 
L 264.697618 22.257257 
L 264.902419 25.342083 
L 265.168109 26.230029 
L 265.234129 26.889896 
L 265.39929 26.465512 
L 266.104126 29.549061 
L 266.311416 33.443872 
L 266.651561 34.096299 
L 266.812423 32.697061 
L 267.143552 34.984013 
L 267.858294 25.507805 
L 267.971726 25.905346 
L 268.181608 29.426769 
L 268.518424 28.319082 
L 268.679162 28.646733 
L 268.807534 29.428812 
L 269.010967 32.101412 
L 269.302164 31.04184 
L 269.38594 33.879551 
L 269.633265 32.922645 
L 269.676314 31.528945 
L 269.841292 30.131307 
L 270.047991 31.105649 
L 270.379728 28.150127 
L 270.545791 27.860954 
L 270.752947 29.27573 
L 271.125855 33.946319 
L 271.377489 31.281597 
L 271.498396 28.42332 
L 271.583198 28.847672 
L 271.872285 32.023132 
L 271.913154 29.964301 
L 272.165896 34.392914 
L 272.369808 32.661748 
L 272.413556 29.41595 
L 272.784705 27.152412 
L 272.952115 29.97667 
L 273.199024 31.008801 
L 273.324085 30.811303 
L 273.53568 29.048314 
L 273.657953 22.814634 
L 273.82134 23.002868 
L 274.112316 25.777784 
L 274.321023 34.174668 
L 274.485885 33.328347 
L 274.680553 30.870084 
L 274.859595 30.556212 
L 275.026064 30.632008 
L 275.191841 30.300127 
L 275.398863 31.499452 
L 275.523705 29.663369 
L 275.773336 30.033916 
L 276.06276 27.354034 
L 276.311749 27.139415 
L 276.394572 27.67388 
L 276.561025 27.717653 
L 277.306299 34.071273 
L 277.602201 29.134152 
L 277.762832 24.458111 
L 277.929639 26.874429 
L 278.136501 27.620575 
L 278.260601 29.621078 
L 278.468023 29.493664 
L 278.633894 27.75809 
L 278.799534 28.307484 
L 278.965744 26.679461 
L 279.587963 35.468362 
L 279.669679 34.595475 
L 280.084202 28.214248 
L 280.254342 26.291451 
L 280.374434 30.461386 
L 280.664929 31.284163 
L 280.707091 31.876424 
L 281.162822 27.368958 
L 281.246472 29.189179 
L 281.452269 27.441735 
L 281.577205 31.042853 
L 281.908955 33.423628 
L 282.115753 30.306005 
L 282.408575 23.914689 
L 282.613615 25.059442 
L 283.277358 32.040607 
L 283.652216 27.401363 
L 284.147687 33.229245 
L 284.410977 33.210077 
L 284.483738 32.969131 
L 284.645807 31.568612 
L 284.812589 32.199337 
L 285.146679 28.699888 
L 285.434405 29.620756 
L 285.683437 24.794171 
L 286.185335 21.067903 
L 286.387779 19.93426 
L 286.637106 21.328975 
L 286.719907 23.888357 
L 287.096915 25.12296 
L 287.717488 32.765065 
L 288.254177 36.301615 
L 288.627545 32.61262 
L 288.793406 32.599618 
L 288.959052 33.067691 
L 289.333503 26.739568 
L 289.748963 21.507445 
L 289.914395 16.341915 
L 289.9972 17.233701 
L 290.33018 14.561469 
L 290.500979 15.021463 
L 290.870098 17.995054 
L 291.698397 37.225976 
L 291.864183 36.752755 
L 292.030386 36.269254 
L 292.207025 37.167603 
L 292.237578 36.973028 
L 292.370664 35.484501 
L 292.534833 36.56666 
L 292.735873 35.829477 
L 293.235936 28.539314 
L 293.449229 24.134401 
L 293.607703 24.958484 
L 293.753414 24.526752 
L 293.939573 24.399855 
L 294.107757 22.860153 
L 294.273493 24.911463 
L 294.477985 25.559332 
L 294.851356 30.434339 
L 294.977207 31.13563 
L 295.30829 40.441527 
L 295.475827 41.112044 
L 295.724217 40.982205 
L 295.849825 37.424013 
L 296.015508 38.840853 
L 296.21135 37.198872 
L 296.845169 27.459042 
L 297.052033 28.450227 
L 297.260455 27.772742 
L 298.256243 19.152493 
L 298.422527 19.563026 
L 298.71228 17.497444 
L 298.762909 19.377446 
L 298.96197 21.518993 
L 299.458192 34.078371 
L 299.826935 42.49651 
L 300.075903 45.750977 
L 300.118274 49.750096 
L 300.49011 46.550277 
L 301.362236 36.007881 
L 301.530843 35.263859 
L 301.698668 33.82159 
L 301.835811 34.505473 
L 302.026745 32.778935 
L 302.327629 33.33888 
L 302.360864 32.742443 
L 303.065972 26.270602 
L 303.313816 26.729587 
L 303.564915 27.864542 
L 303.729451 30.326294 
L 303.895373 30.423157 
L 304.117223 31.563543 
L 304.270338 33.071106 
L 304.434877 33.312646 
L 304.599794 35.150175 
L 304.766122 35.735479 
L 304.973517 35.954609 
L 305.46998 32.667923 
L 305.475902 43.204012 
L 305.639145 26.740503 
L 305.887001 26.661226 
L 306.012076 25.701092 
L 306.184017 25.594717 
L 306.345573 24.870147 
L 306.593697 24.721353 
L 306.805438 26.641174 
L 307.008402 28.791288 
L 307.507939 38.134905 
L 307.799879 37.052418 
L 307.837875 40.963346 
L 308.087747 39.678612 
L 308.215475 40.117619 
L 308.378633 39.516238 
L 308.923762 32.543476 
L 309.101398 28.406625 
L 309.250121 28.236135 
L 309.422157 26.80582 
L 309.45809 23.905108 
L 310.288257 15.226798 
L 310.458473 14.837117 
L 310.619953 16.350741 
L 311.118262 32.269739 
L 311.417636 33.795701 
L 311.659303 40.903058 
L 311.823265 32.313436 
L 312.161281 40.165722 
L 312.336716 40.133845 
L 312.661092 33.404423 
L 312.841523 33.501796 
L 313.075108 33.601582 
L 313.379178 37.102515 
L 313.577042 36.164472 
L 313.746276 35.979031 
L 314.201629 29.253964 
L 314.495707 32.108947 
L 314.578649 31.770665 
L 314.739947 30.372615 
L 315.166889 21.443639 
L 315.278734 20.812636 
L 315.48951 20.56829 
L 315.818567 25.476036 
L 316.027603 23.587545 
L 316.194183 25.528197 
L 316.408253 22.604717 
L 316.986216 32.327954 
L 317.320802 32.078313 
L 317.564282 29.060539 
L 317.706398 30.917833 
L 317.85523 30.359165 
L 318.0634 30.783053 
L 318.521708 24.529576 
L 318.782499 23.704071 
L 318.85217 22.537049 
L 319.100521 22.594789 
L 319.225076 21.174965 
L 319.409494 21.486771 
L 319.558885 22.389712 
L 319.841148 20.596965 
L 320.006421 22.819415 
L 320.136768 21.959725 
L 320.297066 24.122852 
L 320.504369 20.759479 
L 320.629841 20.895774 
L 320.753858 23.234615 
L 321.085565 25.837006 
L 321.461537 21.445479 
L 321.708592 21.526154 
L 321.79598 19.112675 
L 322.165521 21.598144 
L 322.331441 20.48236 
L 322.499834 21.031115 
L 322.663992 22.034286 
L 322.833021 22.36025 
L 322.996495 24.781171 
L 323.16259 25.148151 
L 323.335657 21.801474 
L 323.498092 22.032807 
L 323.706095 21.804491 
L 323.836843 22.565315 
L 324.038273 22.94899 
L 324.203811 23.733594 
L 324.370413 26.908137 
L 324.659943 25.232808 
L 324.909506 28.064424 
L 325.614606 37.59396 
L 326.072865 32.294972 
L 326.78644 20.373675 
L 326.948721 21.711469 
L 327.207242 21.110666 
L 327.360247 24.544999 
L 327.443537 24.645277 
L 327.669682 26.591003 
L 327.816366 32.128383 
L 328.108854 34.637334 
L 328.165571 37.503722 
L 328.32193 37.711888 
L 328.481153 39.114854 
L 328.64752 36.394037 
L 328.940757 33.814129 
L 329.072537 31.063972 
L 329.236918 30.504412 
L 329.36207 31.008731 
L 329.652278 28.069671 
L 329.694481 26.139005 
L 330.151062 21.314536 
L 330.19387 21.886048 
L 330.481735 22.889156 
L 330.564866 18.712654 
L 330.731867 19.221324 
L 330.896731 15.994222 
L 331.186949 13.632738 
L 331.270016 10.465125 
L 331.436321 8.863747 
L 331.60623 8.669102 
L 331.643987 6.81772 
L 331.934519 12.294248 
L 332.102296 10.834821 
L 332.308094 10.841599 
L 332.43322 13.571422 
L 332.767125 16.221952 
L 332.97483 21.908559 
L 333.140408 22.386133 
L 333.309014 26.337641 
L 333.514844 26.86089 
L 334.42815 34.850235 
L 334.530533 34.831492 
L 335.175884 36.570331 
L 335.555985 41.506096 
L 335.931453 39.242547 
L 336.094646 40.289348 
L 337.632443 16.95532 
L 337.964258 19.174344 
L 338.137004 23.906238 
L 338.389539 26.370709 
L 338.797148 36.843915 
L 339.503594 45.512259 
L 339.674798 46.11871 
L 339.878088 43.212404 
L 340.005552 43.094765 
L 340.541933 38.113851 
L 340.832671 38.757982 
L 341.073503 35.550303 
L 341.236815 34.226115 
L 341.609234 28.754767 
L 341.737669 29.354518 
L 342.273927 22.300837 
L 342.605046 13.174052 
L 343.102823 10.255773 
L 343.269013 6.931074 
L 343.435661 8.981502 
L 343.725777 8.701912 
L 343.829534 5.506424 
L 344.348416 13.034157 
L 344.514318 13.54853 
L 345.181784 20.408049 
L 345.387017 19.933372 
L 345.678126 21.394628 
L 345.845578 18.580577 
L 346.109824 19.771405 
L 346.219824 19.065604 
L 346.383739 22.637086 
L 346.570196 20.490506 
L 346.774464 19.504619 
L 346.929406 17.969383 
L 347.13467 18.830201 
L 347.432378 14.703661 
L 347.610518 15.454107 
L 347.812893 13.375962 
L 347.897482 14.71322 
L 348.308348 9.500375 
L 348.515742 9.905568 
L 348.598891 8.472133 
L 348.806141 9.373759 
L 348.977588 12.124302 
L 349.304427 8.423618 
L 349.47129 8.218432 
L 349.678685 9.960931 
L 350.012049 13.429192 
L 350.175789 14.166282 
L 350.34163 16.064736 
L 350.508276 16.066765 
L 350.841623 20.459997 
L 351.257039 26.221097 
L 351.380226 28.915863 
L 351.547773 28.200087 
L 351.879123 31.853322 
L 352.127203 31.60099 
L 352.418432 33.983199 
L 352.625981 34.82342 
L 352.791429 36.338937 
L 352.957356 36.20117 
L 353.45844 37.584231 
L 353.662257 34.994579 
L 353.953568 36.266481 
L 354.121182 33.178919 
L 354.285471 34.211559 
L 355.127769 27.173234 
L 355.169495 27.639227 
L 355.376697 23.809852 
L 355.503598 24.135767 
L 355.670175 23.351308 
L 356.165537 18.069115 
L 356.579788 12.957265 
L 356.70401 11.169204 
L 356.914665 11.917396 
L 357.080208 10.401144 
L 357.244975 13.836563 
L 357.444592 12.518622 
L 357.577453 12.699897 
L 357.720344 14.774236 
L 358.151598 16.86778 
L 358.787003 24.841484 
L 358.953268 24.984931 
L 359.118747 23.394927 
L 359.284997 23.323904 
L 359.658684 22.601459 
L 359.783703 17.044749 
L 360.003568 16.108425 
L 360.156545 12.026681 
L 360.366132 14.856424 
L 360.571805 11.787563 
L 360.695951 12.352291 
L 361.030356 15.820876 
L 361.070572 19.776489 
L 361.194597 19.484041 
L 362.025558 35.307121 
L 362.273976 36.650747 
L 362.398408 35.803177 
L 362.522582 37.259927 
L 362.814933 36.600103 
L 362.854919 39.439272 
L 363.106715 37.312376 
L 363.275235 36.975535 
L 363.768202 28.512489 
L 363.939195 24.710518 
L 364.150577 23.613021 
L 364.445173 16.532558 
L 364.610802 12.931731 
L 364.780534 13.348157 
L 364.942428 12.251582 
L 365.149659 13.073241 
L 365.277996 10.327981 
L 365.483121 12.921579 
L 365.693161 7.138419 
L 365.855104 13.377109 
L 366.032869 14.705702 
L 366.188117 10.842741 
L 366.685325 13.936862 
L 366.976192 12.657587 
L 367.018215 12.953595 
L 367.185628 13.496257 
L 367.418265 13.601247 
L 367.52992 14.877665 
L 367.74185 15.895245 
L 367.890856 18.882114 
L 368.069412 19.642929 
L 368.389692 25.364604 
L 368.556487 21.545526 
L 368.77355 28.309937 
L 369.054915 24.560834 
L 369.097542 28.399417 
L 369.261187 27.107415 
L 369.717568 28.692312 
L 369.809147 26.092139 
L 369.939491 28.927667 
L 370.18811 26.331713 
L 370.654645 35.504167 
L 370.98985 39.65879 
L 371.241892 36.374872 
L 371.352999 39.842788 
L 371.518107 41.041199 
L 371.766469 41.620381 
L 371.895995 43.683554 
L 372.018108 39.852845 
L 372.557244 34.456806 
L 372.764978 31.348504 
L 372.889091 32.366632 
L 373.303165 31.045961 
L 373.59294 36.026574 
L 373.800147 45.274455 
L 373.926978 42.55969 
L 374.092259 46.659504 
L 374.270184 45.80248 
L 374.464896 47.049886 
L 374.967332 37.086191 
L 375.461779 16.925129 
L 375.766989 15.562563 
L 375.927844 16.871882 
L 376.168486 17.881849 
L 376.8735 32.310468 
L 376.915065 38.267727 
L 377.454899 51.052458 
L 377.888539 46.388572 
L 378.084021 37.036242 
L 378.288234 32.808046 
L 378.370429 28.254977 
L 378.582937 23.198188 
L 378.910558 18.861414 
L 378.998275 15.74945 
L 379.256506 13.774673 
L 379.412032 13.815043 
L 379.707129 19.955739 
L 380.499005 41.470994 
L 380.623908 42.82176 
L 381.081683 43.974721 
L 381.453239 44.617376 
L 381.579455 44.415734 
L 381.761429 44.344551 
L 382.034838 45.768873 
L 382.335831 46.345429 
L 382.496825 46.167119 
L 382.865877 44.654702 
L 383.197255 40.541926 
L 383.404982 38.65043 
L 383.735709 31.609424 
L 384.111251 26.342794 
L 384.281288 25.142967 
L 384.488208 25.095696 
L 384.776513 30.757336 
L 385.136585 38.57659 
L 385.489935 44.558407 
L 385.96406 50.433565 
L 386.147949 49.082323 
L 386.521018 41.780186 
L 386.647188 37.137828 
L 387.018996 31.748302 
L 387.186736 31.160097 
L 387.517139 32.538132 
L 388.228413 39.657845 
L 388.441189 40.215056 
L 388.683946 39.249576 
L 388.895941 35.877286 
L 389.227035 32.293353 
L 389.43523 31.19919 
L 389.598518 31.096773 
L 389.76431 31.811954 
L 390.099323 35.810961 
L 391.010809 50.159948 
L 391.592309 52.323009 
L 391.716154 51.994863 
L 392.507604 38.802674 
L 393.005436 33.311282 
L 393.377185 31.445812 
L 393.5832 31.660879 
L 393.707745 31.625272 
L 394.054023 31.979029 
L 394.205611 32.484237 
L 394.496563 32.693455 
L 394.579246 32.97907 
L 394.711536 32.859896 
L 394.99346 32.778094 
L 395.132427 33.036032 
L 395.246199 32.793196 
L 395.417503 33.167182 
L 395.574671 33.847065 
L 396.032765 38.262129 
L 396.116938 40.463109 
L 396.985433 49.266699 
L 397.542662 51.717482 
L 397.667675 50.850482 
L 398.040726 50.441395 
L 398.300129 50.782912 
L 398.497086 51.757978 
L 398.705237 51.600153 
L 398.871829 52.371578 
L 399.213256 52.61346 
L 399.555667 50.728004 
L 399.753515 42.181981 
L 400.415843 24.217806 
L 400.774507 19.866337 
L 400.981998 19.580589 
L 401.981033 36.572519 
L 402.489212 47.383376 
L 402.662207 46.490808 
L 403.028644 41.820436 
L 403.326644 38.182919 
L 403.872146 34.751624 
L 404.150848 34.901637 
L 404.360921 40.487698 
L 404.525584 44.246732 
L 404.871147 46.838457 
L 405.063895 45.603272 
L 405.605067 37.536493 
L 406.436031 23.059856 
L 406.612609 23.602592 
L 406.81254 25.649214 
L 407.352931 36.907894 
L 407.518959 40.249403 
L 407.930074 43.97103 
L 407.972272 43.205457 
L 408.162542 43.185644 
L 408.406109 43.293729 
L 408.487228 44.225862 
L 408.695533 44.593014 
L 408.865419 43.661741 
L 409.571045 35.264009 
L 409.693258 37.380002 
L 410.032881 39.65185 
L 410.231789 38.609195 
L 410.400688 36.818219 
L 410.606602 37.43486 
L 410.858541 39.708356 
L 411.104545 43.495838 
L 411.519697 39.594059 
L 411.739035 36.155273 
L 411.944933 37.173183 
L 412.113696 38.580375 
L 412.320625 37.553744 
L 412.443287 35.234395 
L 412.650406 34.117362 
L 412.900331 36.260958 
L 413.025363 40.077538 
L 413.273791 41.980598 
L 413.438985 41.370091 
L 413.812511 32.63042 
L 414.061829 32.974664 
L 414.353743 35.431107 
L 414.578213 33.701617 
L 414.705744 31.595833 
L 414.87048 32.53588 
L 415.239037 37.160901 
L 415.538946 37.933812 
L 415.902317 36.83761 
L 416.068472 37.191148 
L 416.284316 38.282102 
L 416.40005 37.052695 
L 416.745843 35.434936 
L 417.106515 36.616934 
L 417.316196 36.594685 
L 417.52143 35.04772 
L 417.686851 31.637118 
L 418.104214 30.337373 
L 418.268312 32.964101 
L 418.516737 34.042577 
L 418.766353 32.082964 
L 418.994337 32.38411 
L 419.158762 34.690595 
L 419.517186 43.089827 
L 419.718741 42.295932 
L 419.843127 39.548223 
L 420.426032 33.784623 
L 420.550342 35.078834 
L 420.886897 35.306094 
L 421.255876 34.067258 
L 421.422194 35.171259 
L 421.58873 38.324426 
L 421.925439 39.961559 
L 422.335312 37.707143 
L 422.431601 37.850703 
L 422.959297 36.381618 
L 423.33962 36.900826 
L 423.545812 36.118026 
L 423.711812 36.997628 
L 423.835618 40.360899 
L 424.00377 41.285653 
L 424.251177 39.969962 
L 424.4582 40.725069 
L 424.625419 39.802666 
L 424.831484 37.805649 
L 425.004725 37.183943 
L 425.333239 39.833886 
L 425.578756 39.749043 
L 426.035878 36.501242 
L 426.552446 39.958827 
L 426.71952 40.25805 
L 426.71952 40.25805 
" clip-path="url(#p7d1416e43f)" style="fill: none; stroke: #ff0000; stroke-opacity: 0.5; stroke-width: 1.75; stroke-linecap: square"/>
   </g>
   <g id="patch_3">
    <path d="M 38.502813 184.36327 
L 38.502813 0.72 
" style="fill: none; stroke: #000000; stroke-width: 0.8; stroke-linejoin: miter; stroke-linecap: square"/>
   </g>
   <g id="patch_4">
    <path d="M 426.71952 184.36327 
L 426.71952 0.72 
" style="fill: none; stroke: #000000; stroke-width: 0.8; stroke-linejoin: miter; stroke-linecap: square"/>
   </g>
   <g id="patch_5">
    <path d="M 38.502813 184.36327 
L 426.71952 184.36327 
" style="fill: none; stroke: #000000; stroke-width: 0.8; stroke-linejoin: miter; stroke-linecap: square"/>
   </g>
   <g id="patch_6">
    <path d="M 38.502813 0.72 
L 426.71952 0.72 
" style="fill: none; stroke: #000000; stroke-width: 0.8; stroke-linejoin: miter; stroke-linecap: square"/>
   </g>
   <g id="legend_1">
    <g id="patch_7">
     <path d="M 45.502813 38.07625 
L 119.271563 38.07625 
Q 121.271563 38.07625 121.271563 36.07625 
L 121.271563 7.72 
Q 121.271563 5.72 119.271563 5.72 
L 45.502813 5.72 
Q 43.502813 5.72 43.502813 7.72 
L 43.502813 36.07625 
Q 43.502813 38.07625 45.502813 38.07625 
z
" style="fill: #ffffff; opacity: 0.8; stroke: #cccccc; stroke-linejoin: miter"/>
    </g>
    <g id="line2d_33">
     <path d="M 47.502813 13.818437 
L 57.502813 13.818437 
L 67.502813 13.818437 
" style="fill: none; stroke: #0000ff; stroke-opacity: 0.5; stroke-width: 1.75; stroke-linecap: square"/>
    </g>
    <g id="text_18">
     <!-- RNEA -->
     <g transform="translate(75.502813 17.318437) scale(0.1 -0.1)">
      <defs>
       <path id="DejaVuSans-52" d="M 2841 2188 
Q 3044 2119 3236 1894 
Q 3428 1669 3622 1275 
L 4263 0 
L 3584 0 
L 2988 1197 
Q 2756 1666 2539 1819 
Q 2322 1972 1947 1972 
L 1259 1972 
L 1259 0 
L 628 0 
L 628 4666 
L 2053 4666 
Q 2853 4666 3247 4331 
Q 3641 3997 3641 3322 
Q 3641 2881 3436 2590 
Q 3231 2300 2841 2188 
z
M 1259 4147 
L 1259 2491 
L 2053 2491 
Q 2509 2491 2742 2702 
Q 2975 2913 2975 3322 
Q 2975 3731 2742 3939 
Q 2509 4147 2053 4147 
L 1259 4147 
z
" transform="scale(0.015625)"/>
       <path id="DejaVuSans-45" d="M 628 4666 
L 3578 4666 
L 3578 4134 
L 1259 4134 
L 1259 2753 
L 3481 2753 
L 3481 2222 
L 1259 2222 
L 1259 531 
L 3634 531 
L 3634 0 
L 628 0 
L 628 4666 
z
" transform="scale(0.015625)"/>
       <path id="DejaVuSans-41" d="M 2188 4044 
L 1331 1722 
L 3047 1722 
L 2188 4044 
z
M 1831 4666 
L 2547 4666 
L 4325 0 
L 3669 0 
L 3244 1197 
L 1141 1197 
L 716 0 
L 50 0 
L 1831 4666 
z
" transform="scale(0.015625)"/>
      </defs>
      <use xlink:href="#DejaVuSans-52"/>
      <use xlink:href="#DejaVuSans-4e" x="69.482422"/>
      <use xlink:href="#DejaVuSans-45" x="144.287109"/>
      <use xlink:href="#DejaVuSans-41" x="207.470703"/>
     </g>
    </g>
    <g id="line2d_34">
     <path d="M 47.502813 28.496562 
L 57.502813 28.496562 
L 67.502813 28.496562 
" style="fill: none; stroke: #ff0000; stroke-opacity: 0.5; stroke-width: 1.75; stroke-linecap: square"/>
    </g>
    <g id="text_19">
     <!-- BURNEA -->
     <g transform="translate(75.502813 31.996562) scale(0.1 -0.1)">
      <defs>
       <path id="DejaVuSans-42" d="M 1259 2228 
L 1259 519 
L 2272 519 
Q 2781 519 3026 730 
Q 3272 941 3272 1375 
Q 3272 1813 3026 2020 
Q 2781 2228 2272 2228 
L 1259 2228 
z
M 1259 4147 
L 1259 2741 
L 2194 2741 
Q 2656 2741 2882 2914 
Q 3109 3088 3109 3444 
Q 3109 3797 2882 3972 
Q 2656 4147 2194 4147 
L 1259 4147 
z
M 628 4666 
L 2241 4666 
Q 2963 4666 3353 4366 
Q 3744 4066 3744 3513 
Q 3744 3084 3544 2831 
Q 3344 2578 2956 2516 
Q 3422 2416 3680 2098 
Q 3938 1781 3938 1306 
Q 3938 681 3513 340 
Q 3088 0 2303 0 
L 628 0 
L 628 4666 
z
" transform="scale(0.015625)"/>
       <path id="DejaVuSans-55" d="M 556 4666 
L 1191 4666 
L 1191 1831 
Q 1191 1081 1462 751 
Q 1734 422 2344 422 
Q 2950 422 3222 751 
Q 3494 1081 3494 1831 
L 3494 4666 
L 4128 4666 
L 4128 1753 
Q 4128 841 3676 375 
Q 3225 -91 2344 -91 
Q 1459 -91 1007 375 
Q 556 841 556 1753 
L 556 4666 
z
" transform="scale(0.015625)"/>
      </defs>
      <use xlink:href="#DejaVuSans-42"/>
      <use xlink:href="#DejaVuSans-55" x="68.603516"/>
      <use xlink:href="#DejaVuSans-52" x="141.796875"/>
      <use xlink:href="#DejaVuSans-4e" x="211.279297"/>
      <use xlink:href="#DejaVuSans-45" x="286.083984"/>
      <use xlink:href="#DejaVuSans-41" x="349.267578"/>
     </g>
    </g>
   </g>
  </g>
 </g>
 <defs>
  <clipPath id="p7d1416e43f">
   <rect x="38.502813" y="0.72" width="388.216708" height="183.64327"/>
  </clipPath>
 </defs>
</svg>
