<?xml version="1.0" encoding="utf-8" standalone="no"?>
<!DOCTYPE svg PUBLIC "-//W3C//DTD SVG 1.1//EN"
  "http://www.w3.org/Graphics/SVG/1.1/DTD/svg11.dtd">
<svg xmlns:xlink="http://www.w3.org/1999/xlink" width="303.480625pt" height="166.39625pt" viewBox="0 0 303.480625 166.39625" xmlns="http://www.w3.org/2000/svg" version="1.1">
 <metadata>
  <rdf:RDF xmlns:dc="http://purl.org/dc/elements/1.1/" xmlns:cc="http://creativecommons.org/ns#" xmlns:rdf="http://www.w3.org/1999/02/22-rdf-syntax-ns#">
   <cc:Work>
    <dc:type rdf:resource="http://purl.org/dc/dcmitype/StillImage"/>
    <dc:date>2023-09-07T03:31:10.517145</dc:date>
    <dc:format>image/svg+xml</dc:format>
    <dc:creator>
     <cc:Agent>
      <dc:title>Matplotlib v3.7.2, https://matplotlib.org/</dc:title>
     </cc:Agent>
    </dc:creator>
   </cc:Work>
  </rdf:RDF>
 </metadata>
 <defs>
  <style type="text/css">*{stroke-linejoin: round; stroke-linecap: butt}</style>
 </defs>
 <g id="figure_1">
  <g id="patch_1">
   <path d="M 0 166.39625 
L 303.480625 166.39625 
L 303.480625 0 
L 0 0 
L 0 166.39625 
z
" style="fill: none"/>
  </g>
  <g id="axes_1">
   <g id="patch_2">
    <path d="M 23.760625 139.32 
L 302.760625 139.32 
L 302.760625 0.72 
L 23.760625 0.72 
L 23.760625 139.32 
z
" style="fill: none"/>
   </g>
   <g id="matplotlib.axis_1">
    <g id="xtick_1">
     <g id="line2d_1">
      <path d="M 23.760625 139.32 
L 23.760625 0.72 
" clip-path="url(#p07760a91ae)" style="fill: none; stroke-dasharray: 0.8,1.32; stroke-dashoffset: 0; stroke: #000000; stroke-opacity: 0.5; stroke-width: 0.8"/>
     </g>
     <g id="line2d_2">
      <defs>
       <path id="m1db6adf895" d="M 0 0 
L 0 3.5 
" style="stroke: #000000; stroke-width: 0.8"/>
      </defs>
      <g>
       <use xlink:href="#m1db6adf895" x="23.760625" y="139.32" style="stroke: #000000; stroke-width: 0.8"/>
      </g>
     </g>
     <g id="text_1">
      <!-- 0 -->
      <g transform="translate(20.579375 153.918437) scale(0.1 -0.1)">
       <defs>
        <path id="DejaVuSans-30" d="M 2034 4250 
Q 1547 4250 1301 3770 
Q 1056 3291 1056 2328 
Q 1056 1369 1301 889 
Q 1547 409 2034 409 
Q 2525 409 2770 889 
Q 3016 1369 3016 2328 
Q 3016 3291 2770 3770 
Q 2525 4250 2034 4250 
z
M 2034 4750 
Q 2819 4750 3233 4129 
Q 3647 3509 3647 2328 
Q 3647 1150 3233 529 
Q 2819 -91 2034 -91 
Q 1250 -91 836 529 
Q 422 1150 422 2328 
Q 422 3509 836 4129 
Q 1250 4750 2034 4750 
z
" transform="scale(0.015625)"/>
       </defs>
       <use xlink:href="#DejaVuSans-30"/>
      </g>
     </g>
    </g>
    <g id="xtick_2">
     <g id="line2d_3">
      <path d="M 66.375526 139.32 
L 66.375526 0.72 
" clip-path="url(#p07760a91ae)" style="fill: none; stroke-dasharray: 0.8,1.32; stroke-dashoffset: 0; stroke: #000000; stroke-opacity: 0.5; stroke-width: 0.8"/>
     </g>
     <g id="line2d_4">
      <g>
       <use xlink:href="#m1db6adf895" x="66.375526" y="139.32" style="stroke: #000000; stroke-width: 0.8"/>
      </g>
     </g>
     <g id="text_2">
      <!-- 5 -->
      <g transform="translate(63.194276 153.918437) scale(0.1 -0.1)">
       <defs>
        <path id="DejaVuSans-35" d="M 691 4666 
L 3169 4666 
L 3169 4134 
L 1269 4134 
L 1269 2991 
Q 1406 3038 1543 3061 
Q 1681 3084 1819 3084 
Q 2600 3084 3056 2656 
Q 3513 2228 3513 1497 
Q 3513 744 3044 326 
Q 2575 -91 1722 -91 
Q 1428 -91 1123 -41 
Q 819 9 494 109 
L 494 744 
Q 775 591 1075 516 
Q 1375 441 1709 441 
Q 2250 441 2565 725 
Q 2881 1009 2881 1497 
Q 2881 1984 2565 2268 
Q 2250 2553 1709 2553 
Q 1456 2553 1204 2497 
Q 953 2441 691 2322 
L 691 4666 
z
" transform="scale(0.015625)"/>
       </defs>
       <use xlink:href="#DejaVuSans-35"/>
      </g>
     </g>
    </g>
    <g id="xtick_3">
     <g id="line2d_5">
      <path d="M 108.990426 139.32 
L 108.990426 0.72 
" clip-path="url(#p07760a91ae)" style="fill: none; stroke-dasharray: 0.8,1.32; stroke-dashoffset: 0; stroke: #000000; stroke-opacity: 0.5; stroke-width: 0.8"/>
     </g>
     <g id="line2d_6">
      <g>
       <use xlink:href="#m1db6adf895" x="108.990426" y="139.32" style="stroke: #000000; stroke-width: 0.8"/>
      </g>
     </g>
     <g id="text_3">
      <!-- 10 -->
      <g transform="translate(102.627926 153.918437) scale(0.1 -0.1)">
       <defs>
        <path id="DejaVuSans-31" d="M 794 531 
L 1825 531 
L 1825 4091 
L 703 3866 
L 703 4441 
L 1819 4666 
L 2450 4666 
L 2450 531 
L 3481 531 
L 3481 0 
L 794 0 
L 794 531 
z
" transform="scale(0.015625)"/>
       </defs>
       <use xlink:href="#DejaVuSans-31"/>
       <use xlink:href="#DejaVuSans-30" x="63.623047"/>
      </g>
     </g>
    </g>
    <g id="xtick_4">
     <g id="line2d_7">
      <path d="M 151.605327 139.32 
L 151.605327 0.72 
" clip-path="url(#p07760a91ae)" style="fill: none; stroke-dasharray: 0.8,1.32; stroke-dashoffset: 0; stroke: #000000; stroke-opacity: 0.5; stroke-width: 0.8"/>
     </g>
     <g id="line2d_8">
      <g>
       <use xlink:href="#m1db6adf895" x="151.605327" y="139.32" style="stroke: #000000; stroke-width: 0.8"/>
      </g>
     </g>
     <g id="text_4">
      <!-- 15 -->
      <g transform="translate(145.242827 153.918437) scale(0.1 -0.1)">
       <use xlink:href="#DejaVuSans-31"/>
       <use xlink:href="#DejaVuSans-35" x="63.623047"/>
      </g>
     </g>
    </g>
    <g id="xtick_5">
     <g id="line2d_9">
      <path d="M 194.220227 139.32 
L 194.220227 0.72 
" clip-path="url(#p07760a91ae)" style="fill: none; stroke-dasharray: 0.8,1.32; stroke-dashoffset: 0; stroke: #000000; stroke-opacity: 0.5; stroke-width: 0.8"/>
     </g>
     <g id="line2d_10">
      <g>
       <use xlink:href="#m1db6adf895" x="194.220227" y="139.32" style="stroke: #000000; stroke-width: 0.8"/>
      </g>
     </g>
     <g id="text_5">
      <!-- 20 -->
      <g transform="translate(187.857727 153.918437) scale(0.1 -0.1)">
       <defs>
        <path id="DejaVuSans-32" d="M 1228 531 
L 3431 531 
L 3431 0 
L 469 0 
L 469 531 
Q 828 903 1448 1529 
Q 2069 2156 2228 2338 
Q 2531 2678 2651 2914 
Q 2772 3150 2772 3378 
Q 2772 3750 2511 3984 
Q 2250 4219 1831 4219 
Q 1534 4219 1204 4116 
Q 875 4013 500 3803 
L 500 4441 
Q 881 4594 1212 4672 
Q 1544 4750 1819 4750 
Q 2544 4750 2975 4387 
Q 3406 4025 3406 3419 
Q 3406 3131 3298 2873 
Q 3191 2616 2906 2266 
Q 2828 2175 2409 1742 
Q 1991 1309 1228 531 
z
" transform="scale(0.015625)"/>
       </defs>
       <use xlink:href="#DejaVuSans-32"/>
       <use xlink:href="#DejaVuSans-30" x="63.623047"/>
      </g>
     </g>
    </g>
    <g id="xtick_6">
     <g id="line2d_11">
      <path d="M 236.835128 139.32 
L 236.835128 0.72 
" clip-path="url(#p07760a91ae)" style="fill: none; stroke-dasharray: 0.8,1.32; stroke-dashoffset: 0; stroke: #000000; stroke-opacity: 0.5; stroke-width: 0.8"/>
     </g>
     <g id="line2d_12">
      <g>
       <use xlink:href="#m1db6adf895" x="236.835128" y="139.32" style="stroke: #000000; stroke-width: 0.8"/>
      </g>
     </g>
     <g id="text_6">
      <!-- 25 -->
      <g transform="translate(230.472628 153.918437) scale(0.1 -0.1)">
       <use xlink:href="#DejaVuSans-32"/>
       <use xlink:href="#DejaVuSans-35" x="63.623047"/>
      </g>
     </g>
    </g>
    <g id="xtick_7">
     <g id="line2d_13">
      <path d="M 279.450028 139.32 
L 279.450028 0.72 
" clip-path="url(#p07760a91ae)" style="fill: none; stroke-dasharray: 0.8,1.32; stroke-dashoffset: 0; stroke: #000000; stroke-opacity: 0.5; stroke-width: 0.8"/>
     </g>
     <g id="line2d_14">
      <g>
       <use xlink:href="#m1db6adf895" x="279.450028" y="139.32" style="stroke: #000000; stroke-width: 0.8"/>
      </g>
     </g>
     <g id="text_7">
      <!-- 30 -->
      <g transform="translate(273.087528 153.918437) scale(0.1 -0.1)">
       <defs>
        <path id="DejaVuSans-33" d="M 2597 2516 
Q 3050 2419 3304 2112 
Q 3559 1806 3559 1356 
Q 3559 666 3084 287 
Q 2609 -91 1734 -91 
Q 1441 -91 1130 -33 
Q 819 25 488 141 
L 488 750 
Q 750 597 1062 519 
Q 1375 441 1716 441 
Q 2309 441 2620 675 
Q 2931 909 2931 1356 
Q 2931 1769 2642 2001 
Q 2353 2234 1838 2234 
L 1294 2234 
L 1294 2753 
L 1863 2753 
Q 2328 2753 2575 2939 
Q 2822 3125 2822 3475 
Q 2822 3834 2567 4026 
Q 2313 4219 1838 4219 
Q 1578 4219 1281 4162 
Q 984 4106 628 3988 
L 628 4550 
Q 988 4650 1302 4700 
Q 1616 4750 1894 4750 
Q 2613 4750 3031 4423 
Q 3450 4097 3450 3541 
Q 3450 3153 3228 2886 
Q 3006 2619 2597 2516 
z
" transform="scale(0.015625)"/>
       </defs>
       <use xlink:href="#DejaVuSans-33"/>
       <use xlink:href="#DejaVuSans-30" x="63.623047"/>
      </g>
     </g>
    </g>
    <g id="text_8">
     <!-- Zeit [s] -->
     <g transform="translate(145.314531 163.596562) scale(0.1 -0.1)">
      <defs>
       <path id="DejaVuSans-5a" d="M 359 4666 
L 4025 4666 
L 4025 4184 
L 1075 531 
L 4097 531 
L 4097 0 
L 288 0 
L 288 481 
L 3238 4134 
L 359 4134 
L 359 4666 
z
" transform="scale(0.015625)"/>
       <path id="DejaVuSans-65" d="M 3597 1894 
L 3597 1613 
L 953 1613 
Q 991 1019 1311 708 
Q 1631 397 2203 397 
Q 2534 397 2845 478 
Q 3156 559 3463 722 
L 3463 178 
Q 3153 47 2828 -22 
Q 2503 -91 2169 -91 
Q 1331 -91 842 396 
Q 353 884 353 1716 
Q 353 2575 817 3079 
Q 1281 3584 2069 3584 
Q 2775 3584 3186 3129 
Q 3597 2675 3597 1894 
z
M 3022 2063 
Q 3016 2534 2758 2815 
Q 2500 3097 2075 3097 
Q 1594 3097 1305 2825 
Q 1016 2553 972 2059 
L 3022 2063 
z
" transform="scale(0.015625)"/>
       <path id="DejaVuSans-69" d="M 603 3500 
L 1178 3500 
L 1178 0 
L 603 0 
L 603 3500 
z
M 603 4863 
L 1178 4863 
L 1178 4134 
L 603 4134 
L 603 4863 
z
" transform="scale(0.015625)"/>
       <path id="DejaVuSans-74" d="M 1172 4494 
L 1172 3500 
L 2356 3500 
L 2356 3053 
L 1172 3053 
L 1172 1153 
Q 1172 725 1289 603 
Q 1406 481 1766 481 
L 2356 481 
L 2356 0 
L 1766 0 
Q 1100 0 847 248 
Q 594 497 594 1153 
L 594 3053 
L 172 3053 
L 172 3500 
L 594 3500 
L 594 4494 
L 1172 4494 
z
" transform="scale(0.015625)"/>
       <path id="DejaVuSans-20" transform="scale(0.015625)"/>
       <path id="DejaVuSans-5b" d="M 550 4863 
L 1875 4863 
L 1875 4416 
L 1125 4416 
L 1125 -397 
L 1875 -397 
L 1875 -844 
L 550 -844 
L 550 4863 
z
" transform="scale(0.015625)"/>
       <path id="DejaVuSans-73" d="M 2834 3397 
L 2834 2853 
Q 2591 2978 2328 3040 
Q 2066 3103 1784 3103 
Q 1356 3103 1142 2972 
Q 928 2841 928 2578 
Q 928 2378 1081 2264 
Q 1234 2150 1697 2047 
L 1894 2003 
Q 2506 1872 2764 1633 
Q 3022 1394 3022 966 
Q 3022 478 2636 193 
Q 2250 -91 1575 -91 
Q 1294 -91 989 -36 
Q 684 19 347 128 
L 347 722 
Q 666 556 975 473 
Q 1284 391 1588 391 
Q 1994 391 2212 530 
Q 2431 669 2431 922 
Q 2431 1156 2273 1281 
Q 2116 1406 1581 1522 
L 1381 1569 
Q 847 1681 609 1914 
Q 372 2147 372 2553 
Q 372 3047 722 3315 
Q 1072 3584 1716 3584 
Q 2034 3584 2315 3537 
Q 2597 3491 2834 3397 
z
" transform="scale(0.015625)"/>
       <path id="DejaVuSans-5d" d="M 1947 4863 
L 1947 -844 
L 622 -844 
L 622 -397 
L 1369 -397 
L 1369 4416 
L 622 4416 
L 622 4863 
L 1947 4863 
z
" transform="scale(0.015625)"/>
      </defs>
      <use xlink:href="#DejaVuSans-5a"/>
      <use xlink:href="#DejaVuSans-65" x="68.505859"/>
      <use xlink:href="#DejaVuSans-69" x="130.029297"/>
      <use xlink:href="#DejaVuSans-74" x="157.8125"/>
      <use xlink:href="#DejaVuSans-20" x="197.021484"/>
      <use xlink:href="#DejaVuSans-5b" x="228.808594"/>
      <use xlink:href="#DejaVuSans-73" x="267.822266"/>
      <use xlink:href="#DejaVuSans-5d" x="319.921875"/>
     </g>
    </g>
   </g>
   <g id="matplotlib.axis_2">
    <g id="ytick_1">
     <g id="line2d_15">
      <path d="M 23.760625 134.08904 
L 302.760625 134.08904 
" clip-path="url(#p07760a91ae)" style="fill: none; stroke-dasharray: 0.8,1.32; stroke-dashoffset: 0; stroke: #000000; stroke-opacity: 0.5; stroke-width: 0.8"/>
     </g>
     <g id="line2d_16">
      <defs>
       <path id="m8536ed2710" d="M 0 0 
L -3.5 0 
" style="stroke: #000000; stroke-width: 0.8"/>
      </defs>
      <g>
       <use xlink:href="#m8536ed2710" x="23.760625" y="134.08904" style="stroke: #000000; stroke-width: 0.8"/>
      </g>
     </g>
     <g id="text_9">
      <!-- 0 -->
      <g transform="translate(10.398125 137.888259) scale(0.1 -0.1)">
       <use xlink:href="#DejaVuSans-30"/>
      </g>
     </g>
    </g>
    <g id="ytick_2">
     <g id="line2d_17">
      <path d="M 23.760625 98.639316 
L 302.760625 98.639316 
" clip-path="url(#p07760a91ae)" style="fill: none; stroke-dasharray: 0.8,1.32; stroke-dashoffset: 0; stroke: #000000; stroke-opacity: 0.5; stroke-width: 0.8"/>
     </g>
     <g id="line2d_18">
      <g>
       <use xlink:href="#m8536ed2710" x="23.760625" y="98.639316" style="stroke: #000000; stroke-width: 0.8"/>
      </g>
     </g>
     <g id="text_10">
      <!-- 2 -->
      <g transform="translate(10.398125 102.438535) scale(0.1 -0.1)">
       <use xlink:href="#DejaVuSans-32"/>
      </g>
     </g>
    </g>
    <g id="ytick_3">
     <g id="line2d_19">
      <path d="M 23.760625 63.189593 
L 302.760625 63.189593 
" clip-path="url(#p07760a91ae)" style="fill: none; stroke-dasharray: 0.8,1.32; stroke-dashoffset: 0; stroke: #000000; stroke-opacity: 0.5; stroke-width: 0.8"/>
     </g>
     <g id="line2d_20">
      <g>
       <use xlink:href="#m8536ed2710" x="23.760625" y="63.189593" style="stroke: #000000; stroke-width: 0.8"/>
      </g>
     </g>
     <g id="text_11">
      <!-- 4 -->
      <g transform="translate(10.398125 66.988811) scale(0.1 -0.1)">
       <defs>
        <path id="DejaVuSans-34" d="M 2419 4116 
L 825 1625 
L 2419 1625 
L 2419 4116 
z
M 2253 4666 
L 3047 4666 
L 3047 1625 
L 3713 1625 
L 3713 1100 
L 3047 1100 
L 3047 0 
L 2419 0 
L 2419 1100 
L 313 1100 
L 313 1709 
L 2253 4666 
z
" transform="scale(0.015625)"/>
       </defs>
       <use xlink:href="#DejaVuSans-34"/>
      </g>
     </g>
    </g>
    <g id="ytick_4">
     <g id="line2d_21">
      <path d="M 23.760625 27.739869 
L 302.760625 27.739869 
" clip-path="url(#p07760a91ae)" style="fill: none; stroke-dasharray: 0.8,1.32; stroke-dashoffset: 0; stroke: #000000; stroke-opacity: 0.5; stroke-width: 0.8"/>
     </g>
     <g id="line2d_22">
      <g>
       <use xlink:href="#m8536ed2710" x="23.760625" y="27.739869" style="stroke: #000000; stroke-width: 0.8"/>
      </g>
     </g>
     <g id="text_12">
      <!-- 6 -->
      <g transform="translate(10.398125 31.539088) scale(0.1 -0.1)">
       <defs>
        <path id="DejaVuSans-36" d="M 2113 2584 
Q 1688 2584 1439 2293 
Q 1191 2003 1191 1497 
Q 1191 994 1439 701 
Q 1688 409 2113 409 
Q 2538 409 2786 701 
Q 3034 994 3034 1497 
Q 3034 2003 2786 2293 
Q 2538 2584 2113 2584 
z
M 3366 4563 
L 3366 3988 
Q 3128 4100 2886 4159 
Q 2644 4219 2406 4219 
Q 1781 4219 1451 3797 
Q 1122 3375 1075 2522 
Q 1259 2794 1537 2939 
Q 1816 3084 2150 3084 
Q 2853 3084 3261 2657 
Q 3669 2231 3669 1497 
Q 3669 778 3244 343 
Q 2819 -91 2113 -91 
Q 1303 -91 875 529 
Q 447 1150 447 2328 
Q 447 3434 972 4092 
Q 1497 4750 2381 4750 
Q 2619 4750 2861 4703 
Q 3103 4656 3366 4563 
z
" transform="scale(0.015625)"/>
       </defs>
       <use xlink:href="#DejaVuSans-36"/>
      </g>
     </g>
    </g>
    <g id="text_13">
     <!-- Kraft [N] -->
     <g transform="translate(8.318438 91.2825) rotate(-90) scale(0.1 -0.1)">
      <defs>
       <path id="DejaVuSans-4b" d="M 628 4666 
L 1259 4666 
L 1259 2694 
L 3353 4666 
L 4166 4666 
L 1850 2491 
L 4331 0 
L 3500 0 
L 1259 2247 
L 1259 0 
L 628 0 
L 628 4666 
z
" transform="scale(0.015625)"/>
       <path id="DejaVuSans-72" d="M 2631 2963 
Q 2534 3019 2420 3045 
Q 2306 3072 2169 3072 
Q 1681 3072 1420 2755 
Q 1159 2438 1159 1844 
L 1159 0 
L 581 0 
L 581 3500 
L 1159 3500 
L 1159 2956 
Q 1341 3275 1631 3429 
Q 1922 3584 2338 3584 
Q 2397 3584 2469 3576 
Q 2541 3569 2628 3553 
L 2631 2963 
z
" transform="scale(0.015625)"/>
       <path id="DejaVuSans-61" d="M 2194 1759 
Q 1497 1759 1228 1600 
Q 959 1441 959 1056 
Q 959 750 1161 570 
Q 1363 391 1709 391 
Q 2188 391 2477 730 
Q 2766 1069 2766 1631 
L 2766 1759 
L 2194 1759 
z
M 3341 1997 
L 3341 0 
L 2766 0 
L 2766 531 
Q 2569 213 2275 61 
Q 1981 -91 1556 -91 
Q 1019 -91 701 211 
Q 384 513 384 1019 
Q 384 1609 779 1909 
Q 1175 2209 1959 2209 
L 2766 2209 
L 2766 2266 
Q 2766 2663 2505 2880 
Q 2244 3097 1772 3097 
Q 1472 3097 1187 3025 
Q 903 2953 641 2809 
L 641 3341 
Q 956 3463 1253 3523 
Q 1550 3584 1831 3584 
Q 2591 3584 2966 3190 
Q 3341 2797 3341 1997 
z
" transform="scale(0.015625)"/>
       <path id="DejaVuSans-66" d="M 2375 4863 
L 2375 4384 
L 1825 4384 
Q 1516 4384 1395 4259 
Q 1275 4134 1275 3809 
L 1275 3500 
L 2222 3500 
L 2222 3053 
L 1275 3053 
L 1275 0 
L 697 0 
L 697 3053 
L 147 3053 
L 147 3500 
L 697 3500 
L 697 3744 
Q 697 4328 969 4595 
Q 1241 4863 1831 4863 
L 2375 4863 
z
" transform="scale(0.015625)"/>
       <path id="DejaVuSans-4e" d="M 628 4666 
L 1478 4666 
L 3547 763 
L 3547 4666 
L 4159 4666 
L 4159 0 
L 3309 0 
L 1241 3903 
L 1241 0 
L 628 0 
L 628 4666 
z
" transform="scale(0.015625)"/>
      </defs>
      <use xlink:href="#DejaVuSans-4b"/>
      <use xlink:href="#DejaVuSans-72" x="65.576172"/>
      <use xlink:href="#DejaVuSans-61" x="106.689453"/>
      <use xlink:href="#DejaVuSans-66" x="167.96875"/>
      <use xlink:href="#DejaVuSans-74" x="201.423828"/>
      <use xlink:href="#DejaVuSans-20" x="240.632812"/>
      <use xlink:href="#DejaVuSans-5b" x="272.419922"/>
      <use xlink:href="#DejaVuSans-4e" x="311.433594"/>
      <use xlink:href="#DejaVuSans-5d" x="386.238281"/>
     </g>
    </g>
   </g>
   <g id="line2d_23">
    <path d="M 23.760625 134.126557 
L 23.908242 134.092594 
L 26.374706 134.122762 
L 26.563171 134.114742 
L 26.734434 134.146484 
L 26.872438 134.13883 
L 27.510769 134.108558 
L 28.440376 134.14793 
L 29.077135 134.1394 
L 29.988868 134.113927 
L 34.049977 134.10953 
L 34.148282 134.108488 
L 34.791035 134.112573 
L 35.100972 134.096075 
L 35.643814 134.096709 
L 35.984409 134.101396 
L 36.869205 134.103348 
L 36.956207 134.115581 
L 37.74553 134.097619 
L 38.039098 134.144092 
L 38.301474 134.080539 
L 38.517969 134.113734 
L 41.65056 134.102263 
L 41.785883 134.095808 
L 41.933694 134.096932 
L 42.195956 134.10983 
L 42.503227 134.085178 
L 42.866307 134.151161 
L 43.000733 134.093634 
L 43.241285 134.125721 
L 43.537055 134.10925 
L 46.29176 134.096455 
L 62.33599 134.12002 
L 62.523068 134.13179 
L 63.814118 134.077738 
L 64.020218 134.108062 
L 64.281838 134.056497 
L 64.298735 134.108096 
L 72.124889 134.162771 
L 72.262635 134.101856 
L 72.539413 134.118216 
L 72.761731 134.105253 
L 76.872504 134.091896 
L 77.168373 134.097627 
L 78.029636 134.121014 
L 78.255613 134.079087 
L 79.628135 134.126763 
L 79.765575 134.135274 
L 80.075293 134.111192 
L 80.883187 134.113871 
L 117.44085 134.157462 
L 117.59506 134.116792 
L 117.887335 134.109018 
L 118.3792 134.121484 
L 118.637394 134.128264 
L 119.996481 134.120621 
L 120.341681 134.092338 
L 120.739872 134.125121 
L 121.014097 134.107865 
L 123.364923 134.122547 
L 123.496675 134.060401 
L 123.650114 134.116518 
L 125.18441 134.110846 
L 125.473271 134.098126 
L 125.901806 134.13453 
L 126.279298 134.093599 
L 127.380846 134.151062 
L 127.894442 134.089314 
L 128.099451 134.129393 
L 129.233353 134.116299 
L 129.592151 134.138181 
L 129.943936 134.108132 
L 130.530506 134.082501 
L 130.942011 134.115316 
L 131.992805 134.112183 
L 135.567858 134.097696 
L 136.276567 134.109401 
L 136.396839 134.098352 
L 137.188436 134.111197 
L 137.481211 134.099292 
L 157.577335 134.105966 
L 157.73143 134.106622 
L 157.956065 134.135127 
L 158.074979 134.096675 
L 158.333174 134.133894 
L 158.508139 134.089448 
L 158.727894 134.113371 
L 158.992631 134.143572 
L 159.423782 134.132459 
L 159.715787 134.098398 
L 160.199792 134.109774 
L 160.474198 134.098161 
L 161.067668 134.103626 
L 161.193347 134.126079 
L 161.839576 134.127082 
L 162.133898 134.10468 
L 163.818369 134.112264 
L 164.109538 134.125258 
L 164.745979 134.086594 
L 165.24338 134.109798 
L 165.590054 134.103275 
L 165.87902 134.113767 
L 166.292342 134.06865 
L 166.6531 134.109203 
L 167.310499 134.129879 
L 168.93952 134.086306 
L 169.159725 134.115196 
L 169.351305 134.106716 
L 170.001444 134.087419 
L 170.792355 134.106674 
L 171.297609 134.145603 
L 251.184116 134.121209 
L 251.475268 134.115965 
L 251.904266 134.114103 
L 252.472812 134.109398 
L 252.901987 134.092556 
L 253.106454 134.125331 
L 253.356169 134.119581 
L 253.753102 134.115344 
L 253.995282 134.129815 
L 254.163914 134.11634 
L 254.81831 134.10491 
L 255.55192 134.106779 
L 255.736461 134.089524 
L 256.315323 134.143967 
L 256.513204 134.090374 
L 257.095996 134.116549 
L 257.32329 134.121273 
L 257.661174 134.116861 
L 258.744055 134.123707 
L 260.083466 134.10657 
L 261.027699 134.111297 
L 261.183572 134.112522 
L 262.346146 134.134132 
L 262.419991 134.098578 
L 262.488396 134.160016 
L 262.763402 134.093531 
L 263.488034 134.125348 
L 264.069259 134.070457 
L 264.19197 134.122379 
L 264.692785 134.126398 
L 265.570993 134.115464 
L 265.992939 134.131369 
L 266.315931 134.112251 
L 266.362646 134.136697 
L 266.541873 134.082006 
L 266.950637 134.128059 
L 267.17767 134.066096 
L 267.418453 134.11223 
L 268.328529 134.12222 
L 268.756761 134.117512 
L 269.736422 134.096932 
L 270.097799 134.105522 
L 271.799966 134.112556 
L 272.039061 134.114058 
L 272.426266 134.121158 
L 272.932459 134.129136 
L 273.138315 134.097945 
L 273.80847 134.083804 
L 274.063092 134.173119 
L 274.220858 134.102478 
L 279.538413 134.089721 
L 279.67728 134.088232 
L 281.019531 134.114248 
L 282.740623 134.108381 
L 283.940988 134.115629 
L 288.279565 134.113736 
L 288.514257 134.102276 
L 289.423823 134.130642 
L 289.975986 134.078861 
L 290.179589 134.112659 
L 294.168652 134.113604 
L 294.616688 134.144351 
L 294.739901 134.098082 
L 295.083361 134.093876 
L 295.320498 134.10114 
L 295.752689 134.09389 
L 296.201364 134.123473 
L 296.584675 134.103825 
L 297.016619 134.130892 
L 298.426669 134.132047 
L 299.458281 134.105814 
L 299.647225 134.113452 
L 302.760625 134.130236 
L 302.760625 134.130236 
" clip-path="url(#p07760a91ae)" style="fill: none; stroke: #0000ff; stroke-opacity: 0.5; stroke-width: 3; stroke-linecap: square"/>
   </g>
   <g id="line2d_24">
    <path d="M 23.760625 12.347889 
L 23.908242 12.705196 
L 23.967975 12.71167 
L 24.058954 12.076039 
L 24.074073 12.338152 
L 24.312388 13.554415 
L 24.381533 13.793805 
L 24.46825 13.077846 
L 24.6217 14.525457 
L 24.673011 14.476615 
L 24.810544 15.892481 
L 24.982884 14.06988 
L 25.053799 15.573798 
L 25.102858 15.508224 
L 25.257215 14.270414 
L 25.377297 15.81063 
L 25.446882 13.816913 
L 25.548409 13.855235 
L 25.600295 14.332217 
L 25.720287 12.601831 
L 25.825502 9.80469 
L 25.892754 10.791402 
L 25.961732 10.304429 
L 26.081839 8.95533 
L 26.167828 11.810676 
L 26.237324 9.547779 
L 26.596831 16.446175 
L 26.665485 16.436242 
L 26.726393 16.195468 
L 26.734434 12.836924 
L 26.803309 14.885361 
L 26.941636 16.56158 
L 27.084072 13.582074 
L 27.155939 13.693085 
L 27.235359 14.140659 
L 27.290327 12.003869 
L 27.373262 12.56369 
L 27.510769 13.842484 
L 27.579282 13.622693 
L 27.889993 15.885235 
L 28.077886 14.45682 
L 28.145695 14.550453 
L 28.249816 13.603242 
L 28.289364 13.817926 
L 28.440376 15.660234 
L 28.50911 15.627279 
L 28.581773 14.320737 
L 28.784966 16.635611 
L 29.077135 13.94357 
L 29.145849 14.15807 
L 29.28346 17.322594 
L 29.431427 14.952734 
L 29.644092 17.498884 
L 29.713566 17.002329 
L 29.988868 12.312187 
L 30.126329 13.63213 
L 30.288101 11.502159 
L 30.350014 11.87168 
L 30.556044 15.558548 
L 30.629643 14.322114 
L 30.712662 13.268264 
L 30.779092 13.554192 
L 30.919365 12.522067 
L 30.987633 13.403718 
L 31.05603 13.115179 
L 31.193454 12.386011 
L 31.296643 10.735452 
L 31.365492 10.77145 
L 31.502779 11.587539 
L 31.554319 11.154941 
L 31.674402 14.322424 
L 31.742748 13.722757 
L 31.796411 13.413176 
L 31.91421 15.222541 
L 32.052115 16.376561 
L 32.120513 16.350465 
L 32.191501 15.850217 
L 32.279024 16.703336 
L 32.403784 15.480706 
L 32.484463 16.287745 
L 32.621367 14.787755 
L 32.902532 15.085343 
L 32.986656 15.939388 
L 33.056837 16.653987 
L 33.196431 14.189453 
L 33.332934 15.73966 
L 33.492335 13.909049 
L 33.559553 15.19209 
L 33.688092 12.643945 
L 33.780415 13.17829 
L 33.927624 16.521778 
L 33.943696 15.443106 
L 33.978495 14.792 
L 34.148282 16.586229 
L 34.275719 14.865246 
L 34.413624 17.956864 
L 34.636328 15.517664 
L 34.705835 16.016777 
L 34.791035 15.85445 
L 34.842604 17.931547 
L 34.894261 17.555058 
L 34.98188 18.39973 
L 35.22025 15.526039 
L 35.260935 14.067326 
L 35.358006 15.44127 
L 35.44529 15.416018 
L 35.478652 13.860216 
L 35.531465 13.95958 
L 35.643814 16.01986 
L 35.695127 13.537946 
L 35.753775 14.102832 
L 35.856496 13.465528 
L 35.984409 16.833979 
L 36.045653 15.553227 
L 36.09788 15.653519 
L 36.195868 15.961806 
L 36.33694 13.789071 
L 36.388719 14.625752 
L 36.596202 13.115402 
L 36.637533 13.612175 
L 36.732212 13.559087 
L 36.869205 13.186803 
L 36.887218 14.450438 
L 36.956207 14.419138 
L 37.024971 13.712296 
L 37.248019 16.365155 
L 37.384676 14.443578 
L 37.453837 15.108347 
L 37.814532 11.491061 
L 37.882793 12.12721 
L 38.243163 13.864309 
L 38.517969 16.966523 
L 38.61669 15.978828 
L 38.656285 16.620486 
L 38.74137 17.32292 
L 38.948559 15.5842 
L 39.028719 14.618021 
L 39.086139 14.963062 
L 39.205928 16.080389 
L 39.257276 15.937576 
L 39.446154 13.695697 
L 39.54985 12.795655 
L 39.584526 12.866901 
L 39.739439 14.514953 
L 40.031923 11.085629 
L 40.134056 10.823708 
L 40.340253 13.340982 
L 40.392154 12.801185 
L 40.490722 13.028968 
L 40.512307 12.400596 
L 40.58161 13.473388 
L 40.736093 17.403193 
L 40.841741 17.12465 
L 40.946559 15.483139 
L 41.092958 16.862717 
L 41.164726 16.512981 
L 41.285925 19.311572 
L 41.342337 19.030056 
L 41.449453 17.346852 
L 41.682609 17.718515 
L 41.700745 17.64196 
L 41.785883 17.724014 
L 42.195956 13.455666 
L 42.366525 16.753908 
L 42.503227 13.078375 
L 42.605636 13.608947 
L 42.640137 13.263247 
L 42.917381 11.934625 
L 43.000733 10.093425 
L 43.138372 6.653706 
L 43.520644 10.41384 
L 43.537055 10.103316 
L 43.727362 11.525174 
L 43.777095 10.945839 
L 43.949091 12.710865 
L 44.017893 13.697215 
L 44.139943 12.03763 
L 44.264545 12.207903 
L 44.430661 8.396723 
L 44.568425 11.526445 
L 44.791567 8.19941 
L 44.847276 8.631996 
L 44.929884 8.347068 
L 45.152522 12.796879 
L 45.515868 10.520652 
L 45.891043 10.31402 
L 46.29176 13.295369 
L 46.666315 12.853881 
L 46.681492 12.4509 
L 46.766651 14.452661 
L 46.836118 13.507168 
L 46.904568 13.439865 
L 47.161991 15.251469 
L 47.455721 11.266358 
L 47.471862 12.383128 
L 47.591809 14.174784 
L 47.78099 9.572872 
L 47.884056 9.883324 
L 48.110723 12.809518 
L 48.183681 12.408166 
L 48.400962 9.791025 
L 48.48638 11.577082 
L 48.538344 11.486244 
L 48.708576 10.552054 
L 48.898303 12.861492 
L 49.0373 14.729057 
L 49.13919 14.778955 
L 49.242874 14.277514 
L 49.413458 13.799631 
L 49.688602 10.56962 
L 49.744878 10.544974 
L 49.758207 12.475119 
L 49.822694 10.416191 
L 49.994696 11.20358 
L 50.118934 12.039967 
L 50.166415 12.199378 
L 50.235467 11.360291 
L 50.389452 12.279104 
L 50.458428 11.795801 
L 50.612664 12.169679 
L 50.682241 11.636671 
L 50.733451 12.456366 
L 50.819158 12.367414 
L 51.044118 10.388131 
L 51.128011 10.213339 
L 51.230931 11.812812 
L 51.317481 10.812555 
L 51.436989 11.083768 
L 51.455094 10.269335 
L 51.523579 11.889482 
L 51.679037 14.333504 
L 51.815844 13.896664 
L 51.869045 13.878999 
L 51.953541 12.81895 
L 52.022533 13.276168 
L 52.0904 13.286278 
L 52.279037 10.029158 
L 52.383742 12.197388 
L 52.530163 11.956185 
L 52.614612 11.328393 
L 52.761804 13.023483 
L 52.840665 12.500181 
L 52.940164 15.621768 
L 53.00911 12.953618 
L 53.11055 12.992015 
L 53.179378 12.923589 
L 53.351129 14.928975 
L 53.436372 13.126203 
L 53.507199 12.756716 
L 53.677025 11.233257 
L 53.865519 14.865108 
L 53.985376 14.422119 
L 54.004623 13.190157 
L 54.093498 13.634705 
L 54.14122 14.051056 
L 54.431712 11.049076 
L 54.500819 11.2512 
L 54.707554 10.073468 
L 54.759097 10.153543 
L 54.797042 10.087582 
L 54.999368 11.729647 
L 55.068821 11.47318 
L 55.223936 9.342033 
L 55.327701 10.096491 
L 55.446184 11.627462 
L 55.498051 11.566026 
L 55.567549 10.666359 
L 55.635489 11.925361 
L 55.772621 12.240303 
L 55.876986 10.876308 
L 56.151173 12.711345 
L 56.202053 12.03662 
L 56.59793 14.03494 
L 56.721113 14.181034 
L 56.784166 13.750092 
L 56.914219 15.502998 
L 56.996825 15.183981 
L 57.151458 14.150166 
L 57.306939 17.465937 
L 57.359178 16.400833 
L 57.596836 13.662049 
L 57.841395 18.159521 
L 57.980195 15.337139 
L 58.063965 15.410946 
L 58.201922 17.057628 
L 58.391003 16.376917 
L 58.477369 12.899281 
L 58.597612 12.863533 
L 58.700557 15.040321 
L 58.768973 14.674373 
L 58.899751 14.756764 
L 58.976281 14.486286 
L 59.171186 16.018593 
L 59.335887 12.243902 
L 59.405826 12.432436 
L 59.546289 14.263189 
L 59.717937 11.783857 
L 59.800956 11.931618 
L 59.835287 12.666854 
L 59.974244 12.893863 
L 60.014652 13.483752 
L 60.112092 15.745326 
L 60.285909 14.103456 
L 60.421304 17.729571 
L 60.473037 17.503996 
L 60.645844 15.187221 
L 60.747476 16.34507 
L 60.764441 16.006755 
L 60.876242 15.051948 
L 61.041029 17.872781 
L 61.108813 16.864159 
L 61.263931 18.189262 
L 61.385861 16.711466 
L 61.401619 14.738472 
L 61.469787 16.508092 
L 61.538871 16.709301 
L 61.834115 13.508145 
L 61.889434 13.610179 
L 61.971113 13.233889 
L 62.039627 13.692888 
L 62.177126 10.001855 
L 62.263269 10.497171 
L 62.388318 12.19677 
L 62.401755 10.403203 
L 62.470737 11.61234 
L 62.626879 11.751647 
L 62.764505 9.103548 
L 62.97156 14.355088 
L 62.986188 14.18445 
L 63.106986 12.720486 
L 63.176543 12.84703 
L 63.245862 12.856211 
L 63.314786 12.350747 
L 63.487014 16.732681 
L 63.537065 15.608002 
L 63.609074 13.663682 
L 63.658264 14.081078 
L 63.780545 14.529408 
L 63.814118 13.92498 
L 64.020218 14.689018 
L 64.088679 13.616304 
L 64.105528 14.719681 
L 64.158052 14.043108 
L 64.281838 14.804126 
L 64.298735 16.198215 
L 64.387299 15.996792 
L 64.832751 13.605286 
L 64.969046 12.930191 
L 65.019594 10.518749 
L 65.088548 10.832318 
L 65.295369 13.759544 
L 65.381357 13.082978 
L 65.517913 13.156433 
L 65.73071 16.605576 
L 65.801242 15.74593 
L 65.968996 12.957151 
L 66.070284 13.209305 
L 66.138853 13.739651 
L 66.154977 13.075956 
L 66.241577 13.167525 
L 66.293379 14.738446 
L 66.396719 14.351828 
L 66.533578 11.921884 
L 66.585012 12.006184 
L 66.790822 13.660363 
L 66.860637 13.798019 
L 67.006593 11.842247 
L 67.1279 12.254809 
L 67.290814 15.249607 
L 67.363481 15.30276 
L 67.428016 13.951546 
L 67.49647 13.97201 
L 67.65148 16.097377 
L 67.806883 13.687035 
L 68.03007 15.569406 
L 68.064414 14.784339 
L 68.219505 15.343118 
L 68.287384 14.009423 
L 68.390565 14.321956 
L 68.511681 16.434788 
L 68.66588 14.141689 
L 68.717875 14.403198 
L 68.795777 16.267989 
L 68.892289 16.057487 
L 68.959295 15.69605 
L 69.068783 16.778134 
L 69.56882 12.055479 
L 69.647141 14.094909 
L 69.79902 12.365066 
L 69.862928 12.693983 
L 69.873097 12.586744 
L 69.91109 11.331025 
L 70.02793 11.209664 
L 70.148892 13.532319 
L 70.216746 13.496074 
L 70.267986 11.260634 
L 70.45922 13.025545 
L 70.494515 11.99812 
L 70.549447 11.525965 
L 70.701155 14.657268 
L 70.837954 11.926855 
L 70.976067 15.785039 
L 70.99279 15.348714 
L 71.131643 13.704343 
L 71.267894 16.532765 
L 71.335913 15.83633 
L 71.405271 16.06364 
L 71.54314 18.167215 
L 71.697386 15.224548 
L 71.835385 16.338807 
L 71.90208 15.890111 
L 71.975412 15.846258 
L 72.041973 15.561593 
L 72.124889 16.79988 
L 72.194543 16.354054 
L 72.332246 14.769484 
L 72.468481 15.078049 
L 72.692323 12.243805 
L 72.761731 12.323755 
L 72.89886 9.929099 
L 73.036313 12.383064 
L 73.104699 12.319706 
L 73.39811 16.192786 
L 73.535737 14.832916 
L 73.671794 17.244108 
L 73.963947 14.831172 
L 74.032977 16.510036 
L 74.110129 13.740577 
L 74.171591 14.799729 
L 74.24044 16.677075 
L 74.3099 14.439592 
L 74.412634 14.504112 
L 74.599676 16.216326 
L 74.685475 17.264688 
L 74.738315 14.751969 
L 74.813815 14.8789 
L 74.89274 14.035254 
L 74.960945 12.818932 
L 75.029716 14.163094 
L 75.100395 13.665956 
L 75.306023 11.715687 
L 75.448107 12.79043 
L 75.597791 15.471388 
L 75.747245 12.569838 
L 75.769499 12.927288 
L 75.805184 13.971592 
L 75.947264 14.63167 
L 76.033134 13.467021 
L 76.166933 13.778158 
L 76.218533 13.50771 
L 76.236242 12.706634 
L 76.306109 12.957757 
L 76.467137 14.900087 
L 76.597792 12.226357 
L 76.667003 13.763049 
L 76.770234 13.660995 
L 76.804046 12.30451 
L 76.872504 13.278555 
L 76.941701 13.671339 
L 77.01108 11.513837 
L 77.310253 13.487574 
L 77.323772 13.344513 
L 77.374708 11.826255 
L 77.548106 11.776006 
L 77.736069 13.865219 
L 77.804752 14.283254 
L 77.822048 13.20207 
L 77.993652 12.964514 
L 78.098121 14.984549 
L 78.115694 15.927249 
L 78.16809 15.519731 
L 78.255613 16.025978 
L 78.391346 13.451895 
L 78.425754 9.901708 
L 78.510699 11.750547 
L 78.580109 11.407611 
L 78.666499 11.651534 
L 78.718354 12.649398 
L 78.803414 9.072354 
L 78.975117 10.491247 
L 79.077552 11.472764 
L 79.096034 12.850666 
L 79.145872 11.242251 
L 79.215349 11.206118 
L 79.283942 12.229462 
L 79.387894 11.575401 
L 79.456673 11.717309 
L 79.543471 12.819783 
L 79.679344 10.443686 
L 79.765575 10.470669 
L 79.830964 10.936762 
L 79.852702 12.509093 
L 80.024381 10.628436 
L 80.075293 11.527556 
L 80.177877 11.466564 
L 80.211987 11.071252 
L 80.486763 12.595739 
L 80.641324 10.845793 
L 80.692564 11.036362 
L 80.883187 10.302999 
L 81.002628 11.02161 
L 81.022599 12.789272 
L 81.071427 11.343028 
L 81.140182 10.469912 
L 81.355157 12.254553 
L 81.489244 11.368728 
L 81.571671 11.681208 
L 81.714731 9.622361 
L 81.949201 12.823155 
L 82.120737 13.570729 
L 82.155286 13.834732 
L 82.295805 15.733646 
L 82.415757 16.38729 
L 82.499767 15.77875 
L 82.55206 16.375359 
L 82.69101 15.962574 
L 82.842765 18.716706 
L 82.91153 18.26989 
L 83.014783 17.236772 
L 83.087448 17.617781 
L 83.142177 17.251195 
L 83.272246 18.381731 
L 83.342827 18.069578 
L 83.4098 17.993167 
L 83.448829 17.740504 
L 83.635544 14.255001 
L 83.705986 14.33502 
L 84.065995 11.009579 
L 84.151988 11.865126 
L 84.204744 13.704478 
L 84.28899 13.324126 
L 84.392291 13.739204 
L 84.428747 14.802845 
L 84.512474 14.176003 
L 84.565338 15.257659 
L 84.632809 13.559637 
L 84.718384 13.750544 
L 84.770073 13.895394 
L 84.913131 11.04146 
L 84.975878 11.136619 
L 85.114058 10.638294 
L 85.18499 11.777169 
L 85.267856 11.62525 
L 85.731819 15.402373 
L 85.835033 14.798753 
L 85.989775 13.19681 
L 86.042509 13.626483 
L 86.128186 13.020796 
L 86.198987 13.204753 
L 86.283062 13.109152 
L 86.403258 10.198244 
L 86.472174 10.227781 
L 86.618803 11.434812 
L 86.799514 10.044279 
L 86.871277 10.825373 
L 86.90228 10.526692 
L 86.970552 9.508002 
L 87.395326 16.116556 
L 87.469301 16.625015 
L 87.537792 16.470569 
L 87.606514 16.472305 
L 87.675649 17.173374 
L 87.751493 17.117653 
L 87.950913 16.176455 
L 87.970697 16.228631 
L 88.106074 13.777843 
L 88.252171 14.604261 
L 88.385552 12.535114 
L 88.449939 13.942779 
L 88.519089 13.826019 
L 88.603927 12.860467 
L 88.810651 14.782557 
L 88.955704 11.605189 
L 89.101506 15.363928 
L 89.240514 13.585208 
L 89.307822 14.646101 
L 89.377526 14.39471 
L 89.446063 13.604889 
L 89.737647 17.693113 
L 89.874912 16.193655 
L 89.947086 17.008548 
L 90.083594 15.339098 
L 90.167956 15.655705 
L 90.237557 15.775346 
L 90.511082 13.381271 
L 90.655587 15.389664 
L 90.8108 14.460334 
L 90.911099 14.437572 
L 90.942168 13.941728 
L 91.013527 15.019241 
L 91.079334 14.792993 
L 91.149726 15.046928 
L 91.3035 12.462816 
L 91.37451 12.250318 
L 91.57924 15.634952 
L 91.647726 15.114955 
L 91.71664 13.170331 
L 91.945117 15.795882 
L 92.011783 15.649062 
L 92.115755 14.194844 
L 92.228246 14.451052 
L 92.305015 13.823147 
L 92.424985 15.360154 
L 92.664321 13.554687 
L 92.785099 15.392319 
L 92.922921 15.673147 
L 93.025095 14.524976 
L 93.1449 15.223946 
L 93.215498 15.073394 
L 93.445289 15.341801 
L 93.644459 13.216985 
L 93.713019 13.746325 
L 93.799839 13.284899 
L 93.940012 14.23815 
L 93.991928 13.694532 
L 94.057069 13.761558 
L 94.14301 14.788375 
L 94.318577 12.827787 
L 94.350014 14.501861 
L 94.436906 12.865965 
L 94.693727 12.347493 
L 94.865801 10.751881 
L 94.994 13.222888 
L 95.054249 12.993197 
L 95.12539 13.029754 
L 95.282267 12.189215 
L 95.415597 14.46631 
L 95.48462 14.114268 
L 95.724675 15.360983 
L 95.828626 15.090421 
L 95.983669 18.001475 
L 96.120793 17.400617 
L 96.207839 18.248562 
L 96.567258 12.981625 
L 96.584329 13.793047 
L 96.67059 14.197089 
L 96.693461 12.31729 
L 96.790776 12.325771 
L 96.842268 12.743629 
L 96.914101 11.615177 
L 96.980053 11.715898 
L 97.082198 11.955315 
L 97.186479 16.194163 
L 97.254613 16.167727 
L 97.4081 14.369109 
L 97.494165 14.815048 
L 97.562898 14.464765 
L 97.770938 16.135205 
L 97.90985 15.757199 
L 97.977488 15.850879 
L 98.047751 16.219578 
L 98.182932 14.97296 
L 98.286377 15.608937 
L 98.338141 15.351907 
L 98.406127 15.5911 
L 98.561967 15.431841 
L 98.716091 12.428637 
L 98.836042 15.814355 
L 98.904966 15.217546 
L 98.973454 14.622406 
L 99.112449 14.824453 
L 99.177362 15.766542 
L 99.190558 14.535021 
L 99.291874 14.086073 
L 99.3979 17.144503 
L 99.54033 14.627096 
L 99.608294 15.592726 
L 99.90034 12.495781 
L 99.989461 14.185191 
L 100.054663 13.790332 
L 100.116134 13.602198 
L 100.261837 15.289968 
L 100.347386 13.941522 
L 100.453802 15.173705 
L 100.506641 17.310128 
L 100.539753 15.976009 
L 100.606136 15.96237 
L 100.674439 16.781923 
L 100.922461 15.409545 
L 101.002169 14.359786 
L 101.036333 14.770692 
L 101.277548 15.788384 
L 101.380974 15.246989 
L 101.549191 13.713294 
L 101.783512 18.426293 
L 101.812513 17.2973 
L 101.88303 16.614139 
L 101.949166 17.0266 
L 102.018632 16.836575 
L 102.174941 18.336995 
L 102.311573 16.514484 
L 102.38033 17.009091 
L 102.466803 14.989645 
L 102.535075 15.815093 
L 102.586504 15.585167 
L 102.760807 16.237021 
L 103.021183 12.395234 
L 103.086001 11.199108 
L 103.156882 12.585594 
L 103.242423 12.181138 
L 103.309771 12.169232 
L 103.466094 13.439875 
L 103.554052 12.514234 
L 103.58788 13.258435 
L 103.656387 13.747229 
L 103.729928 12.813768 
L 103.810664 14.404557 
L 104.019036 15.380623 
L 104.155397 11.494538 
L 104.292335 15.150575 
L 104.365006 14.937867 
L 104.448452 15.85665 
L 104.730232 12.844747 
L 104.894025 14.321427 
L 105.032929 11.669735 
L 105.223696 12.662666 
L 105.515467 14.694499 
L 105.584321 14.86361 
L 105.927257 19.962629 
L 106.236182 16.408484 
L 106.326187 16.69234 
L 106.493121 13.421123 
L 106.633949 11.062413 
L 106.798846 13.397641 
L 106.854485 12.362801 
L 106.922454 13.270044 
L 107.008832 13.253511 
L 107.078052 12.705742 
L 107.16458 12.796758 
L 107.289307 15.838186 
L 107.455185 14.781658 
L 107.575847 15.493535 
L 107.665751 15.313824 
L 107.713052 14.094095 
L 107.811186 14.396403 
L 107.903755 15.698036 
L 107.919681 15.129898 
L 108.039936 15.354128 
L 108.143558 14.193207 
L 108.419664 17.839012 
L 108.503915 17.476777 
L 108.558966 15.647656 
L 108.64183 15.685955 
L 108.763785 14.925961 
L 108.77981 15.455501 
L 108.849237 16.355054 
L 108.935449 13.959537 
L 109.123647 12.588854 
L 109.192316 13.331943 
L 109.278125 13.288605 
L 109.349272 13.357208 
L 109.415414 13.576154 
L 109.567313 14.464336 
L 109.759185 12.974373 
L 109.841599 14.186331 
L 109.911437 14.090598 
L 110.11752 12.657319 
L 110.201631 10.504823 
L 110.30425 11.228587 
L 110.356024 12.429507 
L 110.411373 11.810429 
L 110.424451 10.808099 
L 110.476792 12.38365 
L 110.650309 10.7624 
L 110.700658 12.383555 
L 110.768885 12.153848 
L 110.890098 11.99786 
L 110.923494 14.582437 
L 110.980892 13.24141 
L 111.045271 13.273706 
L 111.131529 14.322194 
L 111.202447 12.914406 
L 111.255776 13.507931 
L 111.424289 12.547482 
L 111.565105 14.635656 
L 111.631708 12.505372 
L 111.682442 13.930329 
L 111.837471 10.67578 
L 111.89476 11.532582 
L 112.010266 11.727284 
L 112.077966 12.253279 
L 112.284489 9.498188 
L 112.460306 13.584283 
L 112.543463 14.251832 
L 112.647815 14.220463 
L 112.680927 13.728749 
L 112.748972 14.121139 
L 112.818541 15.825074 
L 112.903889 15.7956 
L 113.111157 13.82687 
L 113.19795 11.884826 
L 113.38863 14.420981 
L 113.476789 15.966297 
L 113.488575 15.048659 
L 113.609472 15.105683 
L 113.660725 12.42367 
L 113.678987 14.887871 
L 113.816527 15.92187 
L 113.885196 15.518715 
L 114.005371 15.844281 
L 114.196699 13.016303 
L 114.327058 15.144123 
L 114.384563 14.077194 
L 114.555793 12.750608 
L 114.74416 15.499861 
L 114.882306 16.929866 
L 114.95095 15.389575 
L 115.019376 15.424305 
L 115.193454 17.252205 
L 115.242664 16.606216 
L 115.381554 17.5573 
L 115.518046 17.044655 
L 115.589496 17.111121 
L 115.74131 17.844369 
L 115.809936 16.827568 
L 115.880363 17.234731 
L 115.94725 17.672628 
L 116.330607 12.169061 
L 116.429605 12.984586 
L 116.583796 11.343537 
L 116.655733 11.779786 
L 116.802827 15.212662 
L 116.865776 14.960672 
L 116.944773 14.481005 
L 117.013675 15.64024 
L 117.130862 14.43781 
L 117.148841 14.646235 
L 117.320206 15.858296 
L 117.44085 13.610832 
L 117.510779 13.770243 
L 117.59506 14.155243 
L 117.66405 13.952866 
L 117.716656 12.278384 
L 117.792154 12.74455 
L 117.887335 13.151843 
L 118.034879 12.130615 
L 118.1382 15.359916 
L 118.226031 14.882692 
L 118.309516 14.350141 
L 118.464214 16.894195 
L 118.515215 16.040536 
L 118.637394 16.844284 
L 118.739554 18.172695 
L 118.862124 16.605054 
L 118.931608 16.560009 
L 119.17015 15.258587 
L 119.22188 15.691752 
L 119.277938 15.600825 
L 119.360728 15.449115 
L 119.549532 16.046434 
L 119.671371 14.143905 
L 119.82518 16.266491 
L 119.859185 17.533485 
L 119.928259 16.047844 
L 119.996481 15.297036 
L 120.13435 16.471157 
L 120.27236 15.366372 
L 120.341681 15.960035 
L 120.63316 12.45566 
L 120.739872 15.003168 
L 120.857663 12.959328 
L 121.014097 15.38706 
L 121.119787 14.525406 
L 121.166823 14.926306 
L 121.200623 15.337054 
L 121.269177 15.115886 
L 121.338847 15.252119 
L 121.440506 14.841052 
L 121.648451 11.206799 
L 121.705922 12.754459 
L 121.83658 15.605523 
L 121.906394 15.125127 
L 121.994153 16.527659 
L 122.072795 16.339615 
L 122.197563 16.72125 
L 122.635522 12.398602 
L 122.837601 9.602929 
L 122.934916 10.257565 
L 123.072106 12.653063 
L 123.125696 12.7017 
L 123.195108 11.506919 
L 123.263283 12.245613 
L 123.364923 14.5154 
L 123.401731 13.624359 
L 123.496675 14.100382 
L 123.635284 16.612368 
L 123.650114 15.566258 
L 123.705041 15.8379 
L 123.787832 15.671778 
L 123.893013 14.479509 
L 123.926176 15.43086 
L 124.046695 14.412787 
L 124.065894 12.399689 
L 124.114409 14.869595 
L 124.182761 14.697176 
L 124.596097 11.609159 
L 124.68231 13.828759 
L 124.750885 13.702111 
L 124.836813 13.202176 
L 124.905166 13.759972 
L 125.001393 12.626641 
L 125.18441 15.444482 
L 125.283335 18.038588 
L 125.335302 16.852989 
L 125.404067 15.265545 
L 125.55983 17.699445 
L 125.609786 17.412772 
L 125.747722 17.592598 
L 125.817127 17.1422 
L 125.952984 14.933823 
L 126.058893 14.803065 
L 126.125147 15.740484 
L 126.365581 11.823036 
L 126.559172 13.927619 
L 126.591938 13.600447 
L 126.952087 14.796758 
L 127.020606 16.318616 
L 127.380846 13.78546 
L 127.46604 13.973415 
L 127.602971 12.77983 
L 127.671065 14.544369 
L 127.794914 13.804146 
L 127.894442 15.801155 
L 127.979884 15.256976 
L 128.050329 15.736537 
L 128.168226 13.653648 
L 128.237631 15.656309 
L 128.305684 15.090936 
L 128.378114 14.697867 
L 128.391095 12.974153 
L 128.460044 15.219279 
L 128.52943 12.858439 
L 128.597531 13.595388 
L 128.752889 12.287262 
L 128.88987 15.789563 
L 128.941823 13.761022 
L 129.060016 13.490214 
L 129.096063 11.122111 
L 129.233353 11.012514 
L 129.38809 15.444672 
L 129.512559 15.496878 
L 129.668366 15.928777 
L 129.737756 15.686965 
L 129.790354 16.285572 
L 130.287201 11.951901 
L 130.372911 12.740373 
L 130.631045 17.523418 
L 130.650545 16.516079 
L 130.871217 14.476276 
L 131.080496 16.897803 
L 131.219023 14.263442 
L 131.300845 14.06802 
L 131.378447 14.970804 
L 131.428564 17.820569 
L 131.495198 17.697679 
L 131.579184 17.942156 
L 131.854038 14.97744 
L 131.957315 15.919465 
L 131.992805 15.30626 
L 132.216033 11.396657 
L 132.421943 11.591494 
L 132.631063 11.770384 
L 132.713795 11.469811 
L 132.991164 15.0837 
L 133.198183 12.780826 
L 133.28126 14.070097 
L 133.631082 8.850118 
L 133.695935 8.897172 
L 133.712215 5.853333 
L 133.767651 8.773036 
L 133.850102 8.952181 
L 133.937461 9.635492 
L 133.988973 8.144069 
L 134.194924 12.340408 
L 134.272187 11.110144 
L 134.487731 12.482438 
L 134.627163 11.321876 
L 134.69845 11.977379 
L 134.831077 10.316787 
L 134.901632 10.493579 
L 135.051445 13.233593 
L 135.189366 14.838638 
L 135.25881 14.699242 
L 135.332762 13.8105 
L 135.398622 14.527999 
L 135.469916 14.278873 
L 135.982637 9.854908 
L 136.07254 10.391736 
L 136.108787 9.271169 
L 136.179133 9.455951 
L 136.276567 9.789293 
L 136.330578 8.786566 
L 136.396839 9.030947 
L 136.493138 8.416386 
L 136.677867 10.268197 
L 136.74399 9.75309 
L 136.827288 10.827403 
L 136.913426 10.438775 
L 137.05123 12.9752 
L 137.188436 13.200687 
L 137.240535 12.993689 
L 137.257303 12.047788 
L 137.326455 12.461337 
L 137.481211 13.867607 
L 137.756685 11.97143 
L 137.928069 13.572687 
L 138.030526 14.829943 
L 138.100427 13.653177 
L 138.185087 13.834954 
L 138.460359 17.522446 
L 138.682916 15.476144 
L 138.751569 15.598172 
L 138.837405 16.749423 
L 138.892764 16.529074 
L 139.180922 10.74398 
L 139.300821 9.644969 
L 139.404365 11.873651 
L 139.45607 10.607343 
L 139.66487 10.328813 
L 139.679603 11.019538 
L 139.748319 10.426361 
L 139.953514 15.096965 
L 140.023257 14.551663 
L 140.097051 13.864773 
L 140.160487 15.853008 
L 140.277188 14.926599 
L 140.299546 15.665626 
L 140.400559 15.606728 
L 140.527905 16.186611 
L 140.607036 14.763015 
L 140.761414 13.663632 
L 140.864745 14.0004 
L 140.88216 12.914473 
L 140.958712 13.249968 
L 141.042523 12.821065 
L 141.23184 15.188305 
L 141.312379 15.355677 
L 141.386318 15.136984 
L 141.454325 16.135737 
L 141.627429 14.555669 
L 141.677727 14.623475 
L 141.78171 14.309175 
L 141.935055 13.009633 
L 141.940991 13.201692 
L 142.026423 12.76346 
L 142.11273 12.336188 
L 142.232447 13.380548 
L 142.302616 12.973396 
L 142.39167 12.258384 
L 142.438913 12.443723 
L 142.526195 13.808158 
L 142.593131 13.751978 
L 142.834369 14.204209 
L 142.869448 12.935584 
L 142.93712 13.243583 
L 143.09125 15.008467 
L 143.178197 15.298172 
L 143.232761 13.968643 
L 143.298548 15.180414 
L 143.367277 13.922286 
L 143.584384 15.271551 
L 143.657954 13.926675 
L 143.724992 13.959581 
L 143.876626 13.713462 
L 143.945541 14.612036 
L 144.065646 13.522084 
L 144.099781 14.793915 
L 144.154883 13.564922 
L 144.2043 12.878896 
L 144.289487 13.408143 
L 144.392067 15.340485 
L 144.425991 14.916203 
L 144.512429 14.428588 
L 144.580904 14.679741 
L 144.821169 13.347725 
L 144.855913 13.734526 
L 144.994928 11.732684 
L 145.079467 10.124349 
L 145.14834 10.171197 
L 145.21655 12.033092 
L 145.425298 9.735373 
L 145.526495 9.177264 
L 145.577149 7.786961 
L 145.62991 8.641486 
L 145.715103 8.587281 
L 145.785996 8.82767 
L 145.921274 6.896173 
L 146.07407 9.701571 
L 146.286291 11.973833 
L 146.402218 11.944135 
L 146.626981 16.724845 
L 146.695377 15.620997 
L 146.763598 16.082384 
L 146.849252 15.540656 
L 146.918654 16.091351 
L 146.989497 15.212363 
L 147.094435 15.387907 
L 147.125176 15.320514 
L 147.416978 12.738582 
L 147.576203 13.358094 
L 147.760735 12.269514 
L 147.778587 13.317676 
L 147.845982 12.874908 
L 147.917788 12.467134 
L 148.054549 11.024227 
L 148.122359 11.260484 
L 148.276209 10.671916 
L 148.413874 13.002079 
L 148.482706 13.184797 
L 148.551357 12.066866 
L 148.829226 16.157012 
L 148.901454 15.682117 
L 148.980426 16.472058 
L 149.187124 14.94238 
L 149.25575 15.799306 
L 149.548938 11.955598 
L 149.686634 9.580294 
L 149.825504 9.616809 
L 149.892611 10.296055 
L 149.928368 9.774218 
L 150.031326 10.284246 
L 150.394214 15.253495 
L 150.463817 14.778604 
L 150.607665 14.947784 
L 150.759753 17.317108 
L 150.873264 17.770197 
L 150.958877 16.51139 
L 151.185089 20.546714 
L 151.26879 20.378895 
L 151.475167 18.1016 
L 151.528091 17.516885 
L 151.681406 17.210754 
L 151.887753 10.087085 
L 151.956898 10.547782 
L 152.094894 10.504033 
L 152.116493 13.520971 
L 152.208229 10.154442 
L 152.276302 10.941432 
L 152.523098 14.479352 
L 152.711369 13.670122 
L 152.831098 13.099362 
L 152.901547 15.00517 
L 152.989232 14.899699 
L 153.020705 14.890276 
L 153.089538 14.353379 
L 153.313451 16.239734 
L 153.382021 16.278487 
L 153.553606 17.449339 
L 153.862074 15.05699 
L 153.879177 15.21138 
L 154.019025 16.764524 
L 154.092863 15.453643 
L 154.226797 15.338264 
L 154.294435 14.727021 
L 154.465566 16.337421 
L 154.535325 16.259537 
L 154.584761 14.661632 
L 154.735774 13.707607 
L 154.741536 12.330166 
L 154.80892 13.076909 
L 154.877581 13.452234 
L 154.946802 12.926146 
L 155.039647 10.670642 
L 155.104275 10.812332 
L 155.187355 10.253404 
L 155.307891 10.769825 
L 155.446951 13.948515 
L 155.515868 14.521652 
L 155.600491 13.05484 
L 155.687685 13.490775 
L 155.758738 15.962084 
L 155.791417 15.536491 
L 155.876155 15.269609 
L 156.236903 11.153973 
L 156.289368 11.862148 
L 156.442699 10.297143 
L 156.546563 10.457059 
L 156.614824 10.818704 
L 156.842932 13.166492 
L 156.872412 13.432232 
L 156.941376 12.780498 
L 157.216307 13.783332 
L 157.2856 13.707983 
L 157.422378 15.083865 
L 157.492503 14.95944 
L 157.577335 14.316358 
L 157.73143 17.323609 
L 157.785463 16.860513 
L 157.90314 18.598872 
L 158.148794 17.067181 
L 158.213112 15.936753 
L 158.333174 16.939195 
L 158.470829 13.895691 
L 158.508139 13.908463 
L 158.727894 11.896609 
L 158.780253 11.948526 
L 158.847575 10.54778 
L 159.057037 12.986945 
L 159.13317 12.733647 
L 159.271432 11.502793 
L 159.351921 13.307978 
L 159.512118 11.5966 
L 159.67398 13.286177 
L 159.715787 11.359449 
L 159.835545 11.372995 
L 159.941678 13.744931 
L 160.079288 14.208434 
L 160.288094 16.341736 
L 160.339995 15.732115 
L 160.407176 16.933595 
L 160.474198 16.625361 
L 160.621 15.844832 
L 160.826175 14.557763 
L 160.921814 12.179785 
L 160.997745 11.594417 
L 161.193347 12.514052 
L 161.276048 10.689892 
L 161.341317 11.474414 
L 161.47814 10.858885 
L 161.551126 11.459072 
L 161.633016 11.208535 
L 161.68745 11.384617 
L 161.770083 10.166383 
L 161.839576 10.566802 
L 161.925167 10.62178 
L 162.133898 13.607534 
L 162.250839 13.230013 
L 162.331349 13.919704 
L 162.407285 13.890402 
L 162.474554 13.803231 
L 162.543011 13.899689 
L 162.612437 12.897909 
L 162.749893 9.203147 
L 162.835322 8.208109 
L 162.903557 9.300846 
L 162.972275 9.254625 
L 163.044257 9.226743 
L 163.10951 9.020199 
L 163.183035 10.641632 
L 163.249976 10.603079 
L 163.324157 11.190789 
L 163.459106 13.201894 
L 163.956377 9.012966 
L 164.040796 9.394775 
L 164.179112 8.800943 
L 164.247997 10.243456 
L 164.316562 10.184858 
L 164.413572 10.089944 
L 164.530285 12.891417 
L 164.607727 11.846193 
L 164.678295 11.906695 
L 164.745979 12.152145 
L 164.968666 14.746016 
L 165.106809 15.422776 
L 165.24338 13.599678 
L 165.453669 16.065269 
L 165.518491 14.818279 
L 165.590054 15.082371 
L 165.674837 14.004902 
L 165.741954 14.509045 
L 165.810692 13.870193 
L 165.947992 15.699342 
L 166.292342 11.174693 
L 166.446808 11.772419 
L 166.6531 9.489699 
L 166.806307 10.820137 
L 166.88664 10.147797 
L 166.949401 10.872452 
L 167.029562 10.519865 
L 167.167116 9.209913 
L 167.310499 11.326278 
L 167.374752 11.292912 
L 167.443019 10.69239 
L 167.804501 15.340661 
L 167.926948 14.86356 
L 168.010889 14.477052 
L 168.096715 14.735177 
L 168.148975 14.680363 
L 168.216813 13.953236 
L 168.285813 13.970158 
L 168.375636 14.336872 
L 168.510776 13.752078 
L 168.640821 13.992574 
L 168.667095 13.825061 
L 168.721669 13.548683 
L 168.879853 14.711894 
L 169.10809 12.755762 
L 169.215308 12.976144 
L 169.314088 12.670534 
L 169.436955 13.538274 
L 169.5722 13.133712 
L 169.640962 13.461264 
L 169.728764 12.015956 
L 169.784723 12.548942 
L 170.001444 15.683607 
L 170.228716 14.145048 
L 170.294615 14.826178 
L 170.44843 14.847142 
L 170.483113 17.033358 
L 170.509537 15.853296 
L 170.586373 15.670685 
L 170.671589 14.419007 
L 170.708235 12.234435 
L 170.792355 12.539217 
L 170.933949 12.867445 
L 171.07766 10.088039 
L 171.257828 10.756664 
L 171.297609 8.741836 
L 171.360721 10.397945 
L 171.412278 9.798363 
L 171.723553 11.500783 
L 171.776146 12.815978 
L 171.847189 11.390879 
L 171.919433 11.501009 
L 172.055088 12.68951 
L 172.132044 12.086256 
L 172.279807 14.726434 
L 172.483069 13.378179 
L 172.585536 14.050903 
L 173.067259 9.657681 
L 173.122294 10.181325 
L 173.272675 8.836031 
L 173.4799 12.023933 
L 173.668012 11.242062 
L 173.7717 13.853403 
L 173.882566 14.761416 
L 173.964374 14.280925 
L 174.136357 15.604352 
L 174.23865 14.591154 
L 174.300498 15.010623 
L 174.32504 15.686549 
L 174.550119 13.246677 
L 174.710152 15.325927 
L 174.858378 14.142809 
L 174.979483 15.504205 
L 175.134367 13.564751 
L 175.202951 14.163489 
L 175.254268 15.893509 
L 175.322066 14.455859 
L 175.425793 14.176544 
L 175.560574 14.510433 
L 175.614825 14.152405 
L 175.684195 12.110775 
L 175.751892 12.626374 
L 175.820837 14.198906 
L 175.889521 13.855405 
L 175.964462 13.564267 
L 176.113015 14.413935 
L 176.254072 12.844396 
L 176.396897 13.24074 
L 176.466468 15.549191 
L 176.541845 15.277733 
L 176.782898 12.903568 
L 176.917851 12.979264 
L 177.041138 15.671973 
L 177.264466 13.097932 
L 177.401812 13.523596 
L 177.522458 12.086049 
L 177.608544 12.533882 
L 177.797843 10.803909 
L 177.866515 11.108137 
L 178.038649 10.317486 
L 178.125646 10.496608 
L 178.210302 12.161053 
L 178.245326 11.275416 
L 178.312448 10.202426 
L 178.4508 11.728033 
L 178.536171 11.245188 
L 178.673369 14.487866 
L 178.741555 14.030289 
L 178.86432 14.941406 
L 178.949038 13.483049 
L 179.000031 13.524747 
L 179.223459 14.94936 
L 179.379477 13.327957 
L 179.446367 14.013896 
L 179.517213 12.798133 
L 179.755187 13.503613 
L 179.844047 13.696538 
L 179.893338 12.711993 
L 180.012985 13.882915 
L 180.067196 12.022426 
L 180.098419 12.716848 
L 180.252927 13.061034 
L 180.307986 13.130763 
L 180.435739 12.315012 
L 180.513612 8.858075 
L 180.668287 8.576878 
L 180.737046 9.485379 
L 180.805675 9.404918 
L 181.082859 11.209472 
L 181.294007 14.608763 
L 181.442664 13.836801 
L 181.649337 14.790019 
L 181.718028 14.598422 
L 181.78741 15.705083 
L 181.873153 15.016296 
L 182.009297 13.274341 
L 182.232668 15.649013 
L 182.284291 15.573343 
L 182.531409 13.586552 
L 182.782266 16.448135 
L 182.867498 14.687687 
L 182.953717 13.719601 
L 183.057283 14.24955 
L 183.076165 14.230948 
L 183.141858 13.990255 
L 183.248531 14.783841 
L 183.279769 14.135343 
L 183.434763 14.179772 
L 183.588926 17.072882 
L 183.7263 16.657365 
L 184.003229 19.563981 
L 184.089382 20.130331 
L 184.140865 18.797275 
L 184.209609 18.991893 
L 184.29048 17.979451 
L 184.363708 19.09174 
L 184.574878 15.721759 
L 184.778002 14.629221 
L 184.845926 15.386696 
L 185.035111 13.0873 
L 185.052417 11.486418 
L 185.137594 13.008967 
L 185.277353 12.945031 
L 185.344593 13.168496 
L 185.54955 12.007914 
L 185.621863 12.117703 
L 185.79079 13.453445 
L 185.842124 12.246227 
L 186.08314 13.241832 
L 186.271627 12.715853 
L 186.340331 13.221728 
L 186.443176 12.502667 
L 186.565621 13.506467 
L 186.632493 12.894426 
L 186.90818 14.664748 
L 187.130601 18.780819 
L 187.198618 18.037279 
L 187.255707 18.889157 
L 187.473629 18.052671 
L 187.56258 18.087616 
L 187.731638 16.056853 
L 187.835254 12.486766 
L 187.921964 12.557737 
L 188.007093 12.981857 
L 188.251292 9.900488 
L 188.591716 12.264781 
L 188.624491 11.573561 
L 188.755106 11.570299 
L 188.830981 12.362667 
L 188.899757 12.066821 
L 188.98584 11.812899 
L 189.037019 12.087047 
L 189.173852 11.387185 
L 189.249154 11.371247 
L 189.319362 13.311755 
L 189.397662 12.715503 
L 189.585987 14.346207 
L 189.655858 14.188089 
L 189.741987 13.085132 
L 189.812849 12.97588 
L 189.999712 13.726629 
L 190.051477 12.937788 
L 190.1142 13.468108 
L 190.4532 17.424454 
L 190.618384 18.086116 
L 190.755183 16.256634 
L 190.875346 15.379955 
L 191.030007 13.771536 
L 191.09958 13.433084 
L 191.167827 13.509728 
L 191.236243 14.378188 
L 191.305364 12.892235 
L 191.667074 17.629717 
L 191.99752 15.307988 
L 192.027607 16.277222 
L 192.146746 15.181277 
L 192.250787 12.106616 
L 192.321095 12.343314 
L 192.370774 11.741681 
L 192.525379 13.62648 
L 192.59451 13.43435 
L 192.734149 11.498459 
L 192.937894 14.009643 
L 193.079995 11.149238 
L 193.162019 10.367109 
L 193.393051 11.994584 
L 193.437434 13.530091 
L 193.525076 12.458547 
L 193.595627 12.823515 
L 193.749724 16.043479 
L 193.800904 14.228044 
L 193.936736 14.129679 
L 194.016858 12.059339 
L 194.14655 10.655662 
L 194.232248 11.884364 
L 194.299751 11.808833 
L 194.442026 11.652511 
L 194.66663 15.78073 
L 194.718493 15.763952 
L 194.811083 16.775197 
L 195.008938 15.789724 
L 195.129258 15.920324 
L 195.214977 13.537876 
L 195.301086 14.478671 
L 195.369847 14.375708 
L 195.422861 14.759387 
L 195.650942 12.774942 
L 195.720185 12.457183 
L 195.782834 11.641201 
L 195.929017 13.98017 
L 196.007118 13.536412 
L 196.102655 13.678149 
L 196.197744 14.077298 
L 196.231453 15.4797 
L 196.318345 15.357164 
L 196.524285 16.562692 
L 196.575972 15.241961 
L 196.646054 15.519114 
L 197.126956 11.618439 
L 197.143472 12.921805 
L 197.21275 12.756555 
L 197.284059 14.059115 
L 197.352169 13.65807 
L 197.575441 15.315744 
L 197.704014 14.234432 
L 197.781298 14.550161 
L 197.850164 14.868271 
L 197.988842 12.804841 
L 198.056962 12.970962 
L 198.165301 12.647886 
L 198.212558 12.135162 
L 198.419106 14.907253 
L 198.504179 13.399536 
L 198.598186 13.918091 
L 198.611252 12.690667 
L 198.631375 13.513555 
L 198.768001 15.828433 
L 198.836621 15.68637 
L 199.128507 13.361545 
L 199.197249 13.165707 
L 199.488832 8.796554 
L 199.694752 8.97651 
L 200.22877 15.108135 
L 200.331492 13.779638 
L 200.399566 14.381907 
L 200.710266 12.360697 
L 201.039588 13.997405 
L 201.109376 11.567541 
L 201.259084 12.647707 
L 201.36174 12.201561 
L 201.56929 9.250873 
L 201.621086 9.877395 
L 201.779275 8.985236 
L 201.83946 10.65632 
L 201.999171 8.545446 
L 202.035641 8.686634 
L 202.260243 13.663222 
L 202.360156 12.430555 
L 202.399267 13.150341 
L 202.463964 13.22698 
L 202.534218 11.643378 
L 202.601965 12.736344 
L 202.671955 12.439726 
L 202.777375 12.670726 
L 202.83057 10.691799 
L 202.904805 11.215355 
L 202.996906 9.963398 
L 203.03125 10.799556 
L 203.389637 13.310462 
L 203.461043 12.210419 
L 203.47502 12.851535 
L 203.545044 12.721563 
L 203.890944 10.088151 
L 204.041926 10.926507 
L 204.154698 11.468274 
L 204.283013 14.40778 
L 204.37013 14.700627 
L 204.420685 14.043185 
L 204.454956 14.654291 
L 204.662244 16.115039 
L 204.86739 15.919194 
L 204.95402 14.842607 
L 205.126118 15.576214 
L 205.231279 14.988562 
L 205.332023 14.563002 
L 205.420251 14.665887 
L 205.452037 14.86682 
L 205.609189 13.181056 
L 205.731554 12.350982 
L 205.86849 13.405602 
L 205.925982 11.371147 
L 205.956569 11.642744 
L 206.039609 11.300513 
L 206.091254 11.962015 
L 206.229375 10.304574 
L 206.331847 12.174085 
L 206.400859 11.749366 
L 206.589533 14.260314 
L 206.660031 13.22141 
L 206.733523 13.61944 
L 206.796723 12.914809 
L 206.950143 13.095742 
L 207.004599 14.284029 
L 207.018874 13.023294 
L 207.156068 13.442891 
L 207.310825 13.208662 
L 207.364588 14.90987 
L 207.569737 14.042529 
L 207.807759 15.789414 
L 207.938053 13.430833 
L 208.058607 13.516414 
L 208.092858 12.551053 
L 208.213385 14.851251 
L 208.357046 12.583276 
L 208.436129 12.698823 
L 208.51346 11.040125 
L 208.573134 12.365447 
L 208.667066 11.992509 
L 208.802925 13.598936 
L 208.91937 13.306699 
L 209.073688 16.110941 
L 209.228386 18.334083 
L 209.280802 20.000336 
L 209.348415 19.564279 
L 209.778122 14.240408 
L 209.863968 14.807776 
L 209.935625 14.84335 
L 210.055097 12.585795 
L 210.070045 13.408071 
L 210.18366 13.787594 
L 210.302645 16.098976 
L 210.381596 16.135881 
L 210.471478 16.55137 
L 210.483467 16.517958 
L 210.502858 17.573641 
L 211.140218 13.092942 
L 211.239709 13.016142 
L 211.550742 14.336429 
L 211.619606 13.836197 
L 211.995315 16.532471 
L 212.098767 16.104747 
L 212.132937 15.42768 
L 212.408345 16.283324 
L 212.478151 16.110067 
L 212.614753 13.894721 
L 212.701086 12.287119 
L 212.76942 12.628737 
L 212.978848 15.316464 
L 213.266671 14.586727 
L 213.476235 18.575196 
L 213.544494 18.124316 
L 213.62822 16.628564 
L 213.696688 16.905162 
L 213.764752 18.008531 
L 213.833863 17.329038 
L 213.988949 17.830922 
L 214.218671 14.546524 
L 214.475559 10.17958 
L 214.541623 10.262515 
L 214.611949 10.587536 
L 214.680493 9.44251 
L 214.749925 10.258342 
L 214.860996 9.403615 
L 214.89253 9.681652 
L 215.110296 13.315635 
L 215.403933 15.813839 
L 215.471931 15.075862 
L 215.592649 16.064804 
L 215.852995 12.4599 
L 216.022746 9.627834 
L 216.09357 10.229508 
L 216.331275 13.924242 
L 216.407364 12.687325 
L 216.452938 12.74439 
L 216.524434 13.569801 
L 216.676417 12.374522 
L 216.762333 12.455959 
L 216.881348 10.637452 
L 216.967254 10.823897 
L 217.070262 10.532941 
L 217.416738 14.037846 
L 217.571645 16.454513 
L 217.674544 16.206204 
L 217.831344 14.325058 
L 217.914857 14.369284 
L 217.949814 12.726266 
L 218.035137 13.457045 
L 218.224142 10.026594 
L 218.360783 9.679028 
L 218.41271 8.792146 
L 218.446871 10.405603 
L 218.520412 9.897741 
L 218.596385 9.56308 
L 219.014786 15.108325 
L 219.084526 15.475006 
L 219.168597 14.409591 
L 219.375756 17.503798 
L 219.443865 17.594232 
L 219.58394 14.670191 
L 219.672903 16.01944 
L 219.808638 14.484014 
L 219.823518 15.150963 
L 219.878805 16.293801 
L 220.082035 13.096315 
L 220.172324 12.278995 
L 220.313508 14.156636 
L 220.381819 12.777058 
L 220.434773 13.341048 
L 220.570883 11.735972 
L 220.870628 14.346167 
L 221.055284 14.098366 
L 221.069162 14.63125 
L 221.137828 14.471384 
L 221.241226 13.440582 
L 221.292141 13.482501 
L 221.414246 13.152913 
L 221.500732 13.651086 
L 221.588457 12.99739 
L 221.639733 14.062191 
L 221.757645 14.013189 
L 221.793311 13.383765 
L 222.067267 16.102522 
L 222.135879 13.9942 
L 222.207681 14.501633 
L 222.303414 15.022542 
L 222.34491 14.04198 
L 222.428157 14.352238 
L 222.49862 14.026213 
L 222.566502 13.157002 
L 222.633825 14.366002 
L 222.789738 13.055262 
L 222.858315 14.757818 
L 223.002599 12.744164 
L 223.063515 13.39801 
L 223.137165 12.474288 
L 223.287751 13.221122 
L 223.345585 13.150567 
L 223.630884 16.616435 
L 223.699963 16.665421 
L 223.992413 18.861708 
L 224.472907 12.50041 
L 224.558709 12.417352 
L 225.124868 17.188634 
L 225.263071 16.983913 
L 225.349132 16.703571 
L 225.554518 14.676651 
L 225.624673 15.564275 
L 225.784601 14.526926 
L 225.968188 15.286008 
L 226.053091 14.746323 
L 226.121059 13.278636 
L 226.191475 14.25958 
L 226.258604 14.155536 
L 226.331905 13.27432 
L 226.415129 13.520472 
L 226.48601 13.254412 
L 226.709433 10.810155 
L 226.881475 12.675697 
L 226.932636 13.508481 
L 226.985353 12.520456 
L 227.070454 13.211407 
L 227.192072 12.282008 
L 227.265777 13.887302 
L 227.345434 13.453829 
L 227.466317 10.596337 
L 227.604542 11.739955 
L 227.638824 10.676023 
L 227.689993 11.567142 
L 227.810319 11.505034 
L 228.102648 15.931406 
L 228.176658 15.506701 
L 228.325576 15.079293 
L 228.394334 15.63602 
L 228.462997 14.948893 
L 228.533107 16.454634 
L 228.806829 12.706484 
L 228.908442 13.860022 
L 228.959573 12.468583 
L 229.03365 13.708908 
L 229.303073 10.105967 
L 229.405794 11.881806 
L 229.478215 11.354577 
L 229.663452 10.473801 
L 229.752593 9.869514 
L 229.824868 9.992548 
L 229.886382 10.951675 
L 230.007489 11.037372 
L 230.024807 10.955622 
L 230.097175 10.460865 
L 230.178518 10.801855 
L 230.370508 13.703988 
L 230.454408 12.941708 
L 230.661566 14.688209 
L 230.780124 13.466521 
L 230.81491 14.550353 
L 230.882844 14.468883 
L 230.969243 13.896164 
L 231.056438 15.578091 
L 231.08941 14.900689 
L 231.188184 15.048598 
L 231.301318 14.700025 
L 231.410946 15.188999 
L 231.446566 13.473042 
L 231.52015 14.693093 
L 231.587944 15.538802 
L 231.662644 15.048505 
L 231.723587 13.484195 
L 231.861838 15.418609 
L 231.964198 15.247907 
L 232.032707 15.300148 
L 232.085851 15.545091 
L 232.188124 18.225454 
L 232.224833 17.678027 
L 232.358898 17.446578 
L 232.44506 18.57721 
L 232.514693 18.278601 
L 232.582114 18.036461 
L 232.86 15.277327 
L 232.926112 16.434122 
L 233.217662 13.397092 
L 233.356297 14.570194 
L 233.510835 13.788742 
L 233.578903 14.072913 
L 233.716025 11.243044 
L 233.784459 11.36182 
L 233.85975 12.478318 
L 234.010871 11.485117 
L 234.076435 11.69725 
L 234.35145 15.146726 
L 234.425344 15.891103 
L 234.55847 15.046064 
L 234.644855 14.886185 
L 234.849494 12.815346 
L 234.919768 13.043796 
L 234.997349 12.291981 
L 235.056549 12.555892 
L 235.141809 13.244221 
L 235.212015 14.741572 
L 235.281275 13.445307 
L 235.347646 13.682307 
L 235.485695 15.061438 
L 235.624257 12.804839 
L 235.711081 13.043455 
L 235.918523 12.403914 
L 236.088649 13.548973 
L 236.225508 13.815717 
L 236.262169 15.241437 
L 236.345815 15.158568 
L 236.432886 14.67725 
L 236.484786 14.894792 
L 236.586785 15.72389 
L 236.663687 14.961706 
L 236.694511 15.781029 
L 236.776516 15.505305 
L 236.84534 15.943666 
L 236.914707 14.889183 
L 236.982413 15.208741 
L 237.050696 15.382839 
L 237.137717 16.266234 
L 237.189375 15.921257 
L 237.205486 11.798586 
L 237.295263 15.198408 
L 237.382185 15.327221 
L 237.447154 14.442856 
L 237.480547 15.105411 
L 237.54922 15.062702 
L 237.836528 17.683176 
L 237.97802 17.723945 
L 238.064497 17.832336 
L 238.116028 18.194779 
L 238.185964 16.331929 
L 238.35726 16.109248 
L 238.529384 15.246808 
L 238.544706 15.378134 
L 238.682203 13.674803 
L 238.922765 15.753982 
L 238.97467 15.200453 
L 239.097366 15.136393 
L 239.250611 11.524088 
L 239.542003 10.500689 
L 239.59984 9.359893 
L 239.680363 9.43977 
L 239.801765 8.901047 
L 239.959102 11.350969 
L 240.042355 11.010845 
L 240.134668 11.204768 
L 240.196001 11.034289 
L 240.283832 12.835363 
L 240.316418 11.64077 
L 240.437625 12.414511 
L 240.455637 12.152711 
L 240.557955 11.56263 
L 240.746856 12.623803 
L 240.900823 13.153631 
L 240.969684 11.295817 
L 241.021747 13.329 
L 241.107409 12.780517 
L 241.193433 13.445983 
L 241.244927 11.987724 
L 241.313433 12.074556 
L 241.473745 11.881778 
L 241.536579 11.731749 
L 241.657575 12.28665 
L 241.727321 12.195242 
L 241.829942 10.559705 
L 241.89771 10.839639 
L 242.17223 12.597303 
L 242.344746 11.138472 
L 242.5176 13.538724 
L 242.602021 12.804944 
L 242.670673 13.412701 
L 242.739717 13.058256 
L 242.85972 12.988227 
L 243.014396 15.355096 
L 243.255677 14.069333 
L 243.375706 14.561177 
L 243.462614 13.875549 
L 243.51914 15.376592 
L 243.60909 14.929273 
L 243.690779 15.478323 
L 243.790511 14.913442 
L 243.808533 15.802122 
L 243.911738 15.547525 
L 243.944999 15.072179 
L 244.031529 15.399321 
L 244.223348 17.274467 
L 244.30599 17.085855 
L 244.394271 16.350918 
L 244.65043 17.870803 
L 244.941962 14.737576 
L 245.150298 11.688781 
L 245.285648 11.113487 
L 245.509771 12.575293 
L 245.647326 11.434126 
L 245.663429 11.570544 
L 245.852776 14.333858 
L 246.004546 15.176619 
L 246.074745 15.25442 
L 246.282755 16.828965 
L 246.364883 16.479678 
L 246.57021 17.6165 
L 246.999114 13.768538 
L 247.06791 14.590676 
L 247.274439 11.628011 
L 247.566619 13.808131 
L 247.705279 14.738367 
L 247.843422 13.514455 
L 247.912316 13.983702 
L 248.133645 16.167104 
L 248.415349 13.495681 
L 248.633956 12.192928 
L 248.700204 10.262878 
L 248.768948 10.45146 
L 248.837855 9.683326 
L 248.924136 11.892064 
L 248.992829 9.453014 
L 249.408317 14.741482 
L 249.490542 13.979727 
L 249.574468 14.462926 
L 249.78258 10.505456 
L 249.869477 10.892766 
L 249.920144 9.682239 
L 249.988991 10.346372 
L 250.057229 10.85163 
L 250.110413 10.46315 
L 250.199359 10.979847 
L 250.281467 10.484417 
L 250.470381 13.935787 
L 250.564794 14.26366 
L 250.668564 15.200751 
L 250.788392 13.697635 
L 250.857042 13.667046 
L 251.045884 15.293304 
L 251.184116 15.790534 
L 251.320894 14.252405 
L 251.407177 14.778599 
L 251.560838 17.400991 
L 251.612786 16.466197 
L 251.69921 16.724957 
L 251.750363 16.975021 
L 251.904266 15.107866 
L 252.007109 15.904463 
L 252.041641 17.063074 
L 252.196471 15.463782 
L 252.28271 14.72886 
L 252.334416 15.802304 
L 252.472812 14.597065 
L 252.61115 16.283166 
L 252.677826 15.852523 
L 252.832372 15.647457 
L 252.901987 15.826739 
L 252.988974 15.871822 
L 253.106454 14.7976 
L 253.182577 14.961971 
L 253.252586 15.714687 
L 253.462728 13.523647 
L 253.532832 14.733059 
L 253.612989 10.558016 
L 253.682314 10.584436 
L 253.753102 10.36756 
L 253.924196 9.462647 
L 253.995282 9.244581 
L 254.387175 14.00636 
L 254.425175 12.714493 
L 254.456219 12.376249 
L 254.524629 12.815051 
L 254.629591 12.318709 
L 254.679849 12.348079 
L 254.749586 14.083922 
L 254.81831 13.968549 
L 254.923817 14.257071 
L 255.041706 12.863048 
L 255.099924 13.013459 
L 255.163403 12.892945 
L 255.231178 13.675964 
L 255.351896 13.358561 
L 255.508621 11.265552 
L 255.55192 11.569517 
L 255.610567 10.739331 
L 255.736461 11.951352 
L 255.867496 12.965316 
L 255.884614 11.238041 
L 256.004664 10.976202 
L 256.048515 11.170474 
L 256.090808 12.203016 
L 256.16099 11.557039 
L 256.230643 11.641163 
L 256.402875 10.704734 
L 256.453434 10.979689 
L 256.513204 10.943594 
L 256.593512 13.362158 
L 256.762062 13.612596 
L 256.814272 12.720797 
L 256.90355 13.315598 
L 257.020605 12.153394 
L 257.159144 12.955851 
L 257.32329 12.107193 
L 257.392247 12.554229 
L 257.48721 11.743618 
L 257.52332 12.194013 
L 257.81323 15.202419 
L 257.933425 13.999939 
L 258.007153 15.086487 
L 258.106273 14.745743 
L 258.156807 17.194378 
L 258.24364 16.988864 
L 258.346612 16.340843 
L 258.380543 15.076659 
L 258.433692 15.563415 
L 258.555043 15.572509 
L 258.588363 15.701702 
L 258.677993 16.525447 
L 258.861834 13.168925 
L 259.01654 14.277994 
L 259.137237 14.381119 
L 259.274979 14.285222 
L 259.309164 14.388525 
L 259.446278 12.179559 
L 259.570297 12.854064 
L 259.705226 11.616821 
L 259.721458 12.760675 
L 259.790509 12.562097 
L 259.929218 10.256648 
L 260.083466 11.394746 
L 260.134549 13.310965 
L 260.237748 13.285754 
L 260.306152 13.125717 
L 260.51785 11.074419 
L 260.601222 11.438017 
L 260.959003 9.690871 
L 261.027699 10.781285 
L 261.080195 9.298562 
L 261.325773 11.315322 
L 261.337388 10.926969 
L 261.491179 12.266897 
L 261.560871 12.228526 
L 261.654123 11.550343 
L 261.703527 13.039062 
L 261.771203 12.925474 
L 261.853131 12.85829 
L 261.93932 14.426895 
L 261.990172 14.00583 
L 262.346146 12.298601 
L 262.419991 13.243401 
L 262.488396 13.119243 
L 262.597434 14.212909 
L 262.695166 12.561331 
L 262.903211 15.011663 
L 263.055344 15.510492 
L 263.124507 15.442598 
L 263.193009 16.174604 
L 263.264541 15.844299 
L 263.331782 15.033868 
L 263.40013 17.638255 
L 263.488034 16.919867 
L 263.622395 16.754735 
L 263.98325 14.565298 
L 264.069259 15.102681 
L 264.121102 13.002928 
L 264.19197 13.59247 
L 264.326448 13.634327 
L 264.41285 15.467573 
L 264.692785 12.774577 
L 264.918621 14.196429 
L 265.106885 12.457582 
L 265.242938 11.437164 
L 265.33092 13.313914 
L 265.467476 13.008859 
L 265.570993 11.625851 
L 265.69275 12.585942 
L 265.800018 12.494483 
L 265.880217 11.677402 
L 265.897651 13.605597 
L 265.992939 13.468954 
L 266.052107 12.261223 
L 266.20649 13.97891 
L 266.692605 8.735968 
L 266.744382 9.284826 
L 266.950637 8.26743 
L 267.037867 11.512529 
L 267.17767 12.748413 
L 267.246766 11.837576 
L 267.418453 13.217486 
L 267.484691 13.11319 
L 267.484822 15.138657 
L 267.542716 13.238646 
L 267.830059 9.916704 
L 267.882835 10.337872 
L 267.966609 10.198232 
L 268.077601 9.239242 
L 268.105189 9.982248 
L 268.175738 8.740774 
L 268.29346 9.033564 
L 268.328529 10.764175 
L 268.447774 11.129556 
L 268.756761 13.920758 
L 268.844815 13.819882 
L 268.889045 14.78335 
L 269.083093 12.384275 
L 269.170176 13.559587 
L 269.238237 13.072293 
L 269.306537 12.412048 
L 269.375594 13.634009 
L 269.445264 12.973479 
L 269.597975 11.291758 
L 269.684165 12.947116 
L 269.736422 11.996516 
L 269.828255 12.517873 
L 269.902175 11.47892 
L 269.960107 12.214867 
L 270.097799 10.585515 
L 270.269539 12.184237 
L 270.305041 11.709204 
L 270.443696 11.568452 
L 270.509702 11.949786 
L 270.577792 11.566793 
L 270.698483 9.419378 
L 270.752062 9.951122 
L 270.820324 10.93718 
L 270.869824 10.696406 
L 270.938697 10.512364 
L 271.076386 12.142722 
L 271.147534 13.480037 
L 271.248194 12.352488 
L 271.322141 12.395274 
L 271.442935 14.91353 
L 271.6507 17.027189 
L 271.799966 16.890263 
L 271.869019 16.594959 
L 271.93574 17.153258 
L 272.039061 17.00648 
L 272.674123 10.723511 
L 272.811124 12.279138 
L 272.897388 11.3049 
L 273.068949 15.159489 
L 273.138315 14.645644 
L 273.567654 18.76903 
L 273.707466 16.310895 
L 273.80847 17.057189 
L 273.860562 16.663443 
L 273.982708 16.525692 
L 274.121047 15.511896 
L 274.220858 13.216056 
L 274.333098 13.299919 
L 274.496061 12.078948 
L 274.633343 12.655059 
L 274.806045 13.668552 
L 274.839865 13.525593 
L 274.925902 13.687153 
L 274.977745 12.925276 
L 275.064071 13.468164 
L 275.237017 13.077931 
L 275.273374 13.342808 
L 275.493199 10.215764 
L 275.580968 10.753587 
L 275.647399 10.225199 
L 275.872529 12.512712 
L 275.906454 12.406899 
L 275.974812 11.66244 
L 276.077394 11.976355 
L 276.128662 12.724764 
L 276.216291 12.601529 
L 276.405957 9.744003 
L 276.473701 9.269107 
L 276.489208 9.607061 
L 276.662832 10.303256 
L 277.054833 15.713528 
L 277.142593 15.662068 
L 277.388421 13.73843 
L 277.47132 12.019529 
L 277.544383 11.440618 
L 277.623466 12.382452 
L 277.762001 11.483959 
L 277.966839 13.656961 
L 278.05229 12.839056 
L 278.275701 15.02374 
L 278.464944 12.756776 
L 278.757896 10.98175 
L 278.912291 11.565469 
L 279.049059 10.507993 
L 279.408969 14.175763 
L 279.538413 14.33177 
L 279.611113 12.89843 
L 279.67728 13.666154 
L 279.780524 14.802883 
L 279.833415 14.734385 
L 280.057336 12.781663 
L 280.247379 11.908881 
L 280.349706 11.786757 
L 280.521854 14.531506 
L 280.607156 14.351692 
L 280.660725 13.732342 
L 280.744583 14.001927 
L 280.904625 14.745535 
L 280.950678 13.814076 
L 281.019531 14.847824 
L 281.157319 12.869373 
L 281.24195 10.659236 
L 281.312889 10.926413 
L 281.380149 11.114182 
L 281.451321 9.944577 
L 281.52061 10.003596 
L 282.033585 16.373668 
L 282.085038 13.945753 
L 282.15621 15.823213 
L 282.224415 15.712222 
L 282.381208 14.770353 
L 282.541524 13.944948 
L 282.584783 12.102127 
L 282.678326 11.984344 
L 282.740623 11.603046 
L 282.802959 12.479422 
L 283.083966 10.677915 
L 283.221188 10.130252 
L 283.291295 11.241145 
L 283.429045 9.704376 
L 283.502357 10.426659 
L 283.651237 9.747529 
L 283.720167 10.742446 
L 283.78969 10.507463 
L 283.858615 10.421225 
L 284.150507 13.130045 
L 284.304432 11.430734 
L 284.356227 12.483952 
L 284.479111 12.08772 
L 284.579578 12.865271 
L 284.632049 14.334889 
L 284.717581 13.433351 
L 284.837165 14.241043 
L 284.895476 13.825679 
L 285.025542 16.105849 
L 285.098352 14.313981 
L 285.198755 15.619849 
L 285.283878 15.60553 
L 285.369509 14.19278 
L 285.456252 14.712378 
L 285.506762 14.317045 
L 285.561273 14.406869 
L 285.647188 14.634383 
L 285.730481 12.966921 
L 285.782962 14.985831 
L 285.869145 14.019905 
L 285.952076 14.263244 
L 285.986472 15.42143 
L 286.057992 14.842651 
L 286.124742 15.768159 
L 286.211257 15.689772 
L 286.280233 16.006874 
L 286.349647 15.389006 
L 286.468099 16.268987 
L 286.503113 15.830266 
L 286.69233 13.156704 
L 286.806004 12.922583 
L 286.939861 9.788953 
L 287.089001 10.180637 
L 287.330914 13.279038 
L 287.521634 12.652533 
L 287.56787 15.118538 
L 287.637097 14.952904 
L 287.709643 15.752671 
L 287.936484 13.232617 
L 287.949663 15.06586 
L 288.05073 14.305004 
L 288.121388 14.212585 
L 288.188231 14.830209 
L 288.279565 14.331295 
L 288.342209 14.539656 
L 288.414005 14.732792 
L 288.514257 16.049594 
L 288.569463 15.62499 
L 288.667515 15.927694 
L 288.707292 15.318138 
L 288.779816 15.8196 
L 288.942624 14.573036 
L 289.046391 15.410127 
L 289.27081 13.861048 
L 289.303662 15.050656 
L 289.3729 12.982644 
L 289.423823 13.733382 
L 289.481548 13.532872 
L 289.613169 15.298634 
L 289.629314 14.923 
L 289.767941 13.767608 
L 289.820876 13.846514 
L 289.906788 14.300449 
L 289.975986 14.022014 
L 290.041642 14.938613 
L 290.113654 14.631824 
L 290.179589 13.676221 
L 290.402818 15.630567 
L 290.471866 15.567741 
L 290.560049 15.502298 
L 290.712436 13.762626 
L 290.781423 14.382221 
L 290.849979 14.336448 
L 291.118954 9.98871 
L 291.199185 11.277261 
L 291.340446 11.163709 
L 291.59087 12.117469 
L 291.693532 14.687898 
L 291.747019 13.27879 
L 291.829832 14.92181 
L 292.001774 14.040218 
L 292.056106 15.050013 
L 292.10693 14.000089 
L 292.174475 13.865044 
L 292.246268 12.441187 
L 292.43598 13.020221 
L 292.465605 13.688641 
L 292.534053 13.193782 
L 292.603201 12.521174 
L 292.723024 12.937014 
L 292.759479 11.833338 
L 292.814539 12.25683 
L 292.880068 11.959662 
L 292.96476 12.028758 
L 293.049594 11.770207 
L 293.101678 11.180744 
L 293.170674 12.067496 
L 293.256734 10.280451 
L 293.324886 11.319692 
L 293.394356 11.312516 
L 293.514351 11.046094 
L 293.668832 13.757023 
L 293.738263 14.329198 
L 293.823582 13.360836 
L 293.876542 13.51348 
L 294.082192 17.052982 
L 294.168652 16.548986 
L 294.326172 14.254098 
L 294.390601 14.864289 
L 294.510926 13.814216 
L 294.563724 15.7883 
L 294.616688 15.743228 
L 294.806885 11.428806 
L 294.877902 11.959032 
L 294.946822 13.941213 
L 295.01794 13.712963 
L 295.083361 12.957787 
L 295.169212 13.096265 
L 295.241974 12.634093 
L 295.42708 14.848808 
L 295.65211 12.89706 
L 295.752689 13.363501 
L 295.806256 13.06412 
L 295.874139 11.49122 
L 295.943621 12.018077 
L 296.015649 11.441644 
L 296.082126 11.667797 
L 296.097705 14.059805 
L 296.201364 13.356654 
L 296.286746 12.672639 
L 296.361225 12.806519 
L 296.584675 15.182234 
L 296.870348 11.284848 
L 296.935998 11.38462 
L 297.016619 11.932106 
L 297.163987 10.811718 
L 297.446048 13.761306 
L 297.602343 12.642761 
L 297.791695 14.910978 
L 297.929554 12.595449 
L 297.997128 12.817061 
L 298.082629 12.478163 
L 298.391786 15.095468 
L 298.426669 14.04182 
L 298.494776 14.117252 
L 298.598824 14.387753 
L 298.771405 15.579642 
L 298.855347 15.339828 
L 299.16624 11.965239 
L 299.285813 12.471932 
L 299.355169 12.435645 
L 299.458281 12.150058 
L 299.577221 10.170845 
L 299.85535 12.53576 
L 300.009522 11.652667 
L 300.12893 11.20387 
L 300.249437 11.582578 
L 300.515153 17.884512 
L 300.561764 17.135683 
L 300.751158 17.75733 
L 300.818206 17.483628 
L 301.316132 10.727202 
L 301.350974 11.366074 
L 301.405892 12.343801 
L 301.41946 15.008798 
L 301.490828 13.25944 
L 301.574047 13.946209 
L 301.660604 13.822218 
L 301.782402 13.149068 
L 301.797014 14.835783 
L 301.831786 14.720073 
L 301.956799 14.528956 
L 302.146757 13.387977 
L 302.213128 14.214801 
L 302.296493 13.958087 
L 302.477011 14.654158 
L 302.555212 14.570315 
L 302.691216 15.456094 
L 302.760625 13.263065 
L 302.760625 13.263065 
" clip-path="url(#p07760a91ae)" style="fill: none; stroke: #ff0000; stroke-opacity: 0.5; stroke-width: 3; stroke-linecap: square"/>
   </g>
   <g id="patch_3">
    <path d="M 23.760625 139.32 
L 23.760625 0.72 
" style="fill: none; stroke: #000000; stroke-width: 0.8; stroke-linejoin: miter; stroke-linecap: square"/>
   </g>
   <g id="patch_4">
    <path d="M 302.760625 139.32 
L 302.760625 0.72 
" style="fill: none; stroke: #000000; stroke-width: 0.8; stroke-linejoin: miter; stroke-linecap: square"/>
   </g>
   <g id="patch_5">
    <path d="M 23.760625 139.32 
L 302.760625 139.32 
" style="fill: none; stroke: #000000; stroke-width: 0.8; stroke-linejoin: miter; stroke-linecap: square"/>
   </g>
   <g id="patch_6">
    <path d="M 23.760625 0.72 
L 302.760625 0.72 
" style="fill: none; stroke: #000000; stroke-width: 0.8; stroke-linejoin: miter; stroke-linecap: square"/>
   </g>
   <g id="legend_1">
    <g id="patch_7">
     <path d="M 221.991875 86.198125 
L 295.760625 86.198125 
Q 297.760625 86.198125 297.760625 84.198125 
L 297.760625 55.841875 
Q 297.760625 53.841875 295.760625 53.841875 
L 221.991875 53.841875 
Q 219.991875 53.841875 219.991875 55.841875 
L 219.991875 84.198125 
Q 219.991875 86.198125 221.991875 86.198125 
z
" style="fill: #ffffff; opacity: 0.8; stroke: #cccccc; stroke-linejoin: miter"/>
    </g>
    <g id="line2d_25">
     <path d="M 223.991875 61.940312 
L 233.991875 61.940312 
L 243.991875 61.940312 
" style="fill: none; stroke: #0000ff; stroke-opacity: 0.5; stroke-width: 3; stroke-linecap: square"/>
    </g>
    <g id="text_14">
     <!-- RNEA -->
     <g transform="translate(251.991875 65.440312) scale(0.1 -0.1)">
      <defs>
       <path id="DejaVuSans-52" d="M 2841 2188 
Q 3044 2119 3236 1894 
Q 3428 1669 3622 1275 
L 4263 0 
L 3584 0 
L 2988 1197 
Q 2756 1666 2539 1819 
Q 2322 1972 1947 1972 
L 1259 1972 
L 1259 0 
L 628 0 
L 628 4666 
L 2053 4666 
Q 2853 4666 3247 4331 
Q 3641 3997 3641 3322 
Q 3641 2881 3436 2590 
Q 3231 2300 2841 2188 
z
M 1259 4147 
L 1259 2491 
L 2053 2491 
Q 2509 2491 2742 2702 
Q 2975 2913 2975 3322 
Q 2975 3731 2742 3939 
Q 2509 4147 2053 4147 
L 1259 4147 
z
" transform="scale(0.015625)"/>
       <path id="DejaVuSans-45" d="M 628 4666 
L 3578 4666 
L 3578 4134 
L 1259 4134 
L 1259 2753 
L 3481 2753 
L 3481 2222 
L 1259 2222 
L 1259 531 
L 3634 531 
L 3634 0 
L 628 0 
L 628 4666 
z
" transform="scale(0.015625)"/>
       <path id="DejaVuSans-41" d="M 2188 4044 
L 1331 1722 
L 3047 1722 
L 2188 4044 
z
M 1831 4666 
L 2547 4666 
L 4325 0 
L 3669 0 
L 3244 1197 
L 1141 1197 
L 716 0 
L 50 0 
L 1831 4666 
z
" transform="scale(0.015625)"/>
      </defs>
      <use xlink:href="#DejaVuSans-52"/>
      <use xlink:href="#DejaVuSans-4e" x="69.482422"/>
      <use xlink:href="#DejaVuSans-45" x="144.287109"/>
      <use xlink:href="#DejaVuSans-41" x="207.470703"/>
     </g>
    </g>
    <g id="line2d_26">
     <path d="M 223.991875 76.618437 
L 233.991875 76.618437 
L 243.991875 76.618437 
" style="fill: none; stroke: #ff0000; stroke-opacity: 0.5; stroke-width: 3; stroke-linecap: square"/>
    </g>
    <g id="text_15">
     <!-- BURNEA -->
     <g transform="translate(251.991875 80.118437) scale(0.1 -0.1)">
      <defs>
       <path id="DejaVuSans-42" d="M 1259 2228 
L 1259 519 
L 2272 519 
Q 2781 519 3026 730 
Q 3272 941 3272 1375 
Q 3272 1813 3026 2020 
Q 2781 2228 2272 2228 
L 1259 2228 
z
M 1259 4147 
L 1259 2741 
L 2194 2741 
Q 2656 2741 2882 2914 
Q 3109 3088 3109 3444 
Q 3109 3797 2882 3972 
Q 2656 4147 2194 4147 
L 1259 4147 
z
M 628 4666 
L 2241 4666 
Q 2963 4666 3353 4366 
Q 3744 4066 3744 3513 
Q 3744 3084 3544 2831 
Q 3344 2578 2956 2516 
Q 3422 2416 3680 2098 
Q 3938 1781 3938 1306 
Q 3938 681 3513 340 
Q 3088 0 2303 0 
L 628 0 
L 628 4666 
z
" transform="scale(0.015625)"/>
       <path id="DejaVuSans-55" d="M 556 4666 
L 1191 4666 
L 1191 1831 
Q 1191 1081 1462 751 
Q 1734 422 2344 422 
Q 2950 422 3222 751 
Q 3494 1081 3494 1831 
L 3494 4666 
L 4128 4666 
L 4128 1753 
Q 4128 841 3676 375 
Q 3225 -91 2344 -91 
Q 1459 -91 1007 375 
Q 556 841 556 1753 
L 556 4666 
z
" transform="scale(0.015625)"/>
      </defs>
      <use xlink:href="#DejaVuSans-42"/>
      <use xlink:href="#DejaVuSans-55" x="68.603516"/>
      <use xlink:href="#DejaVuSans-52" x="141.796875"/>
      <use xlink:href="#DejaVuSans-4e" x="211.279297"/>
      <use xlink:href="#DejaVuSans-45" x="286.083984"/>
      <use xlink:href="#DejaVuSans-41" x="349.267578"/>
     </g>
    </g>
   </g>
  </g>
 </g>
 <defs>
  <clipPath id="p07760a91ae">
   <rect x="23.760625" y="0.72" width="279" height="138.6"/>
  </clipPath>
 </defs>
</svg>
