<?xml version="1.0" encoding="utf-8" standalone="no"?>
<!DOCTYPE svg PUBLIC "-//W3C//DTD SVG 1.1//EN"
  "http://www.w3.org/Graphics/SVG/1.1/DTD/svg11.dtd">
<svg xmlns:xlink="http://www.w3.org/1999/xlink" width="318.222812pt" height="166.39625pt" viewBox="0 0 318.222812 166.39625" xmlns="http://www.w3.org/2000/svg" version="1.1">
 <metadata>
  <rdf:RDF xmlns:dc="http://purl.org/dc/elements/1.1/" xmlns:cc="http://creativecommons.org/ns#" xmlns:rdf="http://www.w3.org/1999/02/22-rdf-syntax-ns#">
   <cc:Work>
    <dc:type rdf:resource="http://purl.org/dc/dcmitype/StillImage"/>
    <dc:date>2023-09-07T03:31:08.644689</dc:date>
    <dc:format>image/svg+xml</dc:format>
    <dc:creator>
     <cc:Agent>
      <dc:title>Matplotlib v3.7.2, https://matplotlib.org/</dc:title>
     </cc:Agent>
    </dc:creator>
   </cc:Work>
  </rdf:RDF>
 </metadata>
 <defs>
  <style type="text/css">*{stroke-linejoin: round; stroke-linecap: butt}</style>
 </defs>
 <g id="figure_1">
  <g id="patch_1">
   <path d="M 0 166.39625 
L 318.222812 166.39625 
L 318.222812 0 
L 0 0 
L 0 166.39625 
z
" style="fill: none"/>
  </g>
  <g id="axes_1">
   <g id="patch_2">
    <path d="M 38.502813 139.32 
L 317.502813 139.32 
L 317.502813 0.72 
L 38.502813 0.72 
L 38.502813 139.32 
z
" style="fill: none"/>
   </g>
   <g id="matplotlib.axis_1">
    <g id="xtick_1">
     <g id="line2d_1">
      <path d="M 38.502813 139.32 
L 38.502813 0.72 
" clip-path="url(#p22b789aa00)" style="fill: none; stroke-dasharray: 0.8,1.32; stroke-dashoffset: 0; stroke: #000000; stroke-opacity: 0.5; stroke-width: 0.8"/>
     </g>
     <g id="line2d_2">
      <defs>
       <path id="mbe1922b91c" d="M 0 0 
L 0 3.5 
" style="stroke: #000000; stroke-width: 0.8"/>
      </defs>
      <g>
       <use xlink:href="#mbe1922b91c" x="38.502813" y="139.32" style="stroke: #000000; stroke-width: 0.8"/>
      </g>
     </g>
     <g id="text_1">
      <!-- 0 -->
      <g transform="translate(35.321563 153.918437) scale(0.1 -0.1)">
       <defs>
        <path id="DejaVuSans-30" d="M 2034 4250 
Q 1547 4250 1301 3770 
Q 1056 3291 1056 2328 
Q 1056 1369 1301 889 
Q 1547 409 2034 409 
Q 2525 409 2770 889 
Q 3016 1369 3016 2328 
Q 3016 3291 2770 3770 
Q 2525 4250 2034 4250 
z
M 2034 4750 
Q 2819 4750 3233 4129 
Q 3647 3509 3647 2328 
Q 3647 1150 3233 529 
Q 2819 -91 2034 -91 
Q 1250 -91 836 529 
Q 422 1150 422 2328 
Q 422 3509 836 4129 
Q 1250 4750 2034 4750 
z
" transform="scale(0.015625)"/>
       </defs>
       <use xlink:href="#DejaVuSans-30"/>
      </g>
     </g>
    </g>
    <g id="xtick_2">
     <g id="line2d_3">
      <path d="M 81.117713 139.32 
L 81.117713 0.72 
" clip-path="url(#p22b789aa00)" style="fill: none; stroke-dasharray: 0.8,1.32; stroke-dashoffset: 0; stroke: #000000; stroke-opacity: 0.5; stroke-width: 0.8"/>
     </g>
     <g id="line2d_4">
      <g>
       <use xlink:href="#mbe1922b91c" x="81.117713" y="139.32" style="stroke: #000000; stroke-width: 0.8"/>
      </g>
     </g>
     <g id="text_2">
      <!-- 5 -->
      <g transform="translate(77.936463 153.918437) scale(0.1 -0.1)">
       <defs>
        <path id="DejaVuSans-35" d="M 691 4666 
L 3169 4666 
L 3169 4134 
L 1269 4134 
L 1269 2991 
Q 1406 3038 1543 3061 
Q 1681 3084 1819 3084 
Q 2600 3084 3056 2656 
Q 3513 2228 3513 1497 
Q 3513 744 3044 326 
Q 2575 -91 1722 -91 
Q 1428 -91 1123 -41 
Q 819 9 494 109 
L 494 744 
Q 775 591 1075 516 
Q 1375 441 1709 441 
Q 2250 441 2565 725 
Q 2881 1009 2881 1497 
Q 2881 1984 2565 2268 
Q 2250 2553 1709 2553 
Q 1456 2553 1204 2497 
Q 953 2441 691 2322 
L 691 4666 
z
" transform="scale(0.015625)"/>
       </defs>
       <use xlink:href="#DejaVuSans-35"/>
      </g>
     </g>
    </g>
    <g id="xtick_3">
     <g id="line2d_5">
      <path d="M 123.732614 139.32 
L 123.732614 0.72 
" clip-path="url(#p22b789aa00)" style="fill: none; stroke-dasharray: 0.8,1.32; stroke-dashoffset: 0; stroke: #000000; stroke-opacity: 0.5; stroke-width: 0.8"/>
     </g>
     <g id="line2d_6">
      <g>
       <use xlink:href="#mbe1922b91c" x="123.732614" y="139.32" style="stroke: #000000; stroke-width: 0.8"/>
      </g>
     </g>
     <g id="text_3">
      <!-- 10 -->
      <g transform="translate(117.370114 153.918437) scale(0.1 -0.1)">
       <defs>
        <path id="DejaVuSans-31" d="M 794 531 
L 1825 531 
L 1825 4091 
L 703 3866 
L 703 4441 
L 1819 4666 
L 2450 4666 
L 2450 531 
L 3481 531 
L 3481 0 
L 794 0 
L 794 531 
z
" transform="scale(0.015625)"/>
       </defs>
       <use xlink:href="#DejaVuSans-31"/>
       <use xlink:href="#DejaVuSans-30" x="63.623047"/>
      </g>
     </g>
    </g>
    <g id="xtick_4">
     <g id="line2d_7">
      <path d="M 166.347514 139.32 
L 166.347514 0.72 
" clip-path="url(#p22b789aa00)" style="fill: none; stroke-dasharray: 0.8,1.32; stroke-dashoffset: 0; stroke: #000000; stroke-opacity: 0.5; stroke-width: 0.8"/>
     </g>
     <g id="line2d_8">
      <g>
       <use xlink:href="#mbe1922b91c" x="166.347514" y="139.32" style="stroke: #000000; stroke-width: 0.8"/>
      </g>
     </g>
     <g id="text_4">
      <!-- 15 -->
      <g transform="translate(159.985014 153.918437) scale(0.1 -0.1)">
       <use xlink:href="#DejaVuSans-31"/>
       <use xlink:href="#DejaVuSans-35" x="63.623047"/>
      </g>
     </g>
    </g>
    <g id="xtick_5">
     <g id="line2d_9">
      <path d="M 208.962415 139.32 
L 208.962415 0.72 
" clip-path="url(#p22b789aa00)" style="fill: none; stroke-dasharray: 0.8,1.32; stroke-dashoffset: 0; stroke: #000000; stroke-opacity: 0.5; stroke-width: 0.8"/>
     </g>
     <g id="line2d_10">
      <g>
       <use xlink:href="#mbe1922b91c" x="208.962415" y="139.32" style="stroke: #000000; stroke-width: 0.8"/>
      </g>
     </g>
     <g id="text_5">
      <!-- 20 -->
      <g transform="translate(202.599915 153.918437) scale(0.1 -0.1)">
       <defs>
        <path id="DejaVuSans-32" d="M 1228 531 
L 3431 531 
L 3431 0 
L 469 0 
L 469 531 
Q 828 903 1448 1529 
Q 2069 2156 2228 2338 
Q 2531 2678 2651 2914 
Q 2772 3150 2772 3378 
Q 2772 3750 2511 3984 
Q 2250 4219 1831 4219 
Q 1534 4219 1204 4116 
Q 875 4013 500 3803 
L 500 4441 
Q 881 4594 1212 4672 
Q 1544 4750 1819 4750 
Q 2544 4750 2975 4387 
Q 3406 4025 3406 3419 
Q 3406 3131 3298 2873 
Q 3191 2616 2906 2266 
Q 2828 2175 2409 1742 
Q 1991 1309 1228 531 
z
" transform="scale(0.015625)"/>
       </defs>
       <use xlink:href="#DejaVuSans-32"/>
       <use xlink:href="#DejaVuSans-30" x="63.623047"/>
      </g>
     </g>
    </g>
    <g id="xtick_6">
     <g id="line2d_11">
      <path d="M 251.577315 139.32 
L 251.577315 0.72 
" clip-path="url(#p22b789aa00)" style="fill: none; stroke-dasharray: 0.8,1.32; stroke-dashoffset: 0; stroke: #000000; stroke-opacity: 0.5; stroke-width: 0.8"/>
     </g>
     <g id="line2d_12">
      <g>
       <use xlink:href="#mbe1922b91c" x="251.577315" y="139.32" style="stroke: #000000; stroke-width: 0.8"/>
      </g>
     </g>
     <g id="text_6">
      <!-- 25 -->
      <g transform="translate(245.214815 153.918437) scale(0.1 -0.1)">
       <use xlink:href="#DejaVuSans-32"/>
       <use xlink:href="#DejaVuSans-35" x="63.623047"/>
      </g>
     </g>
    </g>
    <g id="xtick_7">
     <g id="line2d_13">
      <path d="M 294.192216 139.32 
L 294.192216 0.72 
" clip-path="url(#p22b789aa00)" style="fill: none; stroke-dasharray: 0.8,1.32; stroke-dashoffset: 0; stroke: #000000; stroke-opacity: 0.5; stroke-width: 0.8"/>
     </g>
     <g id="line2d_14">
      <g>
       <use xlink:href="#mbe1922b91c" x="294.192216" y="139.32" style="stroke: #000000; stroke-width: 0.8"/>
      </g>
     </g>
     <g id="text_7">
      <!-- 30 -->
      <g transform="translate(287.829716 153.918437) scale(0.1 -0.1)">
       <defs>
        <path id="DejaVuSans-33" d="M 2597 2516 
Q 3050 2419 3304 2112 
Q 3559 1806 3559 1356 
Q 3559 666 3084 287 
Q 2609 -91 1734 -91 
Q 1441 -91 1130 -33 
Q 819 25 488 141 
L 488 750 
Q 750 597 1062 519 
Q 1375 441 1716 441 
Q 2309 441 2620 675 
Q 2931 909 2931 1356 
Q 2931 1769 2642 2001 
Q 2353 2234 1838 2234 
L 1294 2234 
L 1294 2753 
L 1863 2753 
Q 2328 2753 2575 2939 
Q 2822 3125 2822 3475 
Q 2822 3834 2567 4026 
Q 2313 4219 1838 4219 
Q 1578 4219 1281 4162 
Q 984 4106 628 3988 
L 628 4550 
Q 988 4650 1302 4700 
Q 1616 4750 1894 4750 
Q 2613 4750 3031 4423 
Q 3450 4097 3450 3541 
Q 3450 3153 3228 2886 
Q 3006 2619 2597 2516 
z
" transform="scale(0.015625)"/>
       </defs>
       <use xlink:href="#DejaVuSans-33"/>
       <use xlink:href="#DejaVuSans-30" x="63.623047"/>
      </g>
     </g>
    </g>
    <g id="text_8">
     <!-- Zeit [s] -->
     <g transform="translate(160.056719 163.596562) scale(0.1 -0.1)">
      <defs>
       <path id="DejaVuSans-5a" d="M 359 4666 
L 4025 4666 
L 4025 4184 
L 1075 531 
L 4097 531 
L 4097 0 
L 288 0 
L 288 481 
L 3238 4134 
L 359 4134 
L 359 4666 
z
" transform="scale(0.015625)"/>
       <path id="DejaVuSans-65" d="M 3597 1894 
L 3597 1613 
L 953 1613 
Q 991 1019 1311 708 
Q 1631 397 2203 397 
Q 2534 397 2845 478 
Q 3156 559 3463 722 
L 3463 178 
Q 3153 47 2828 -22 
Q 2503 -91 2169 -91 
Q 1331 -91 842 396 
Q 353 884 353 1716 
Q 353 2575 817 3079 
Q 1281 3584 2069 3584 
Q 2775 3584 3186 3129 
Q 3597 2675 3597 1894 
z
M 3022 2063 
Q 3016 2534 2758 2815 
Q 2500 3097 2075 3097 
Q 1594 3097 1305 2825 
Q 1016 2553 972 2059 
L 3022 2063 
z
" transform="scale(0.015625)"/>
       <path id="DejaVuSans-69" d="M 603 3500 
L 1178 3500 
L 1178 0 
L 603 0 
L 603 3500 
z
M 603 4863 
L 1178 4863 
L 1178 4134 
L 603 4134 
L 603 4863 
z
" transform="scale(0.015625)"/>
       <path id="DejaVuSans-74" d="M 1172 4494 
L 1172 3500 
L 2356 3500 
L 2356 3053 
L 1172 3053 
L 1172 1153 
Q 1172 725 1289 603 
Q 1406 481 1766 481 
L 2356 481 
L 2356 0 
L 1766 0 
Q 1100 0 847 248 
Q 594 497 594 1153 
L 594 3053 
L 172 3053 
L 172 3500 
L 594 3500 
L 594 4494 
L 1172 4494 
z
" transform="scale(0.015625)"/>
       <path id="DejaVuSans-20" transform="scale(0.015625)"/>
       <path id="DejaVuSans-5b" d="M 550 4863 
L 1875 4863 
L 1875 4416 
L 1125 4416 
L 1125 -397 
L 1875 -397 
L 1875 -844 
L 550 -844 
L 550 4863 
z
" transform="scale(0.015625)"/>
       <path id="DejaVuSans-73" d="M 2834 3397 
L 2834 2853 
Q 2591 2978 2328 3040 
Q 2066 3103 1784 3103 
Q 1356 3103 1142 2972 
Q 928 2841 928 2578 
Q 928 2378 1081 2264 
Q 1234 2150 1697 2047 
L 1894 2003 
Q 2506 1872 2764 1633 
Q 3022 1394 3022 966 
Q 3022 478 2636 193 
Q 2250 -91 1575 -91 
Q 1294 -91 989 -36 
Q 684 19 347 128 
L 347 722 
Q 666 556 975 473 
Q 1284 391 1588 391 
Q 1994 391 2212 530 
Q 2431 669 2431 922 
Q 2431 1156 2273 1281 
Q 2116 1406 1581 1522 
L 1381 1569 
Q 847 1681 609 1914 
Q 372 2147 372 2553 
Q 372 3047 722 3315 
Q 1072 3584 1716 3584 
Q 2034 3584 2315 3537 
Q 2597 3491 2834 3397 
z
" transform="scale(0.015625)"/>
       <path id="DejaVuSans-5d" d="M 1947 4863 
L 1947 -844 
L 622 -844 
L 622 -397 
L 1369 -397 
L 1369 4416 
L 622 4416 
L 622 4863 
L 1947 4863 
z
" transform="scale(0.015625)"/>
      </defs>
      <use xlink:href="#DejaVuSans-5a"/>
      <use xlink:href="#DejaVuSans-65" x="68.505859"/>
      <use xlink:href="#DejaVuSans-69" x="130.029297"/>
      <use xlink:href="#DejaVuSans-74" x="157.8125"/>
      <use xlink:href="#DejaVuSans-20" x="197.021484"/>
      <use xlink:href="#DejaVuSans-5b" x="228.808594"/>
      <use xlink:href="#DejaVuSans-73" x="267.822266"/>
      <use xlink:href="#DejaVuSans-5d" x="319.921875"/>
     </g>
    </g>
   </g>
   <g id="matplotlib.axis_2">
    <g id="ytick_1">
     <g id="line2d_15">
      <path d="M 38.502813 113.234359 
L 317.502813 113.234359 
" clip-path="url(#p22b789aa00)" style="fill: none; stroke-dasharray: 0.8,1.32; stroke-dashoffset: 0; stroke: #000000; stroke-opacity: 0.5; stroke-width: 0.8"/>
     </g>
     <g id="line2d_16">
      <defs>
       <path id="me204c0b216" d="M 0 0 
L -3.5 0 
" style="stroke: #000000; stroke-width: 0.8"/>
      </defs>
      <g>
       <use xlink:href="#me204c0b216" x="38.502813" y="113.234359" style="stroke: #000000; stroke-width: 0.8"/>
      </g>
     </g>
     <g id="text_9">
      <!-- −30 -->
      <g transform="translate(10.398125 117.033578) scale(0.1 -0.1)">
       <defs>
        <path id="DejaVuSans-2212" d="M 678 2272 
L 4684 2272 
L 4684 1741 
L 678 1741 
L 678 2272 
z
" transform="scale(0.015625)"/>
       </defs>
       <use xlink:href="#DejaVuSans-2212"/>
       <use xlink:href="#DejaVuSans-33" x="83.789062"/>
       <use xlink:href="#DejaVuSans-30" x="147.412109"/>
      </g>
     </g>
    </g>
    <g id="ytick_2">
     <g id="line2d_17">
      <path d="M 38.502813 77.440684 
L 317.502813 77.440684 
" clip-path="url(#p22b789aa00)" style="fill: none; stroke-dasharray: 0.8,1.32; stroke-dashoffset: 0; stroke: #000000; stroke-opacity: 0.5; stroke-width: 0.8"/>
     </g>
     <g id="line2d_18">
      <g>
       <use xlink:href="#me204c0b216" x="38.502813" y="77.440684" style="stroke: #000000; stroke-width: 0.8"/>
      </g>
     </g>
     <g id="text_10">
      <!-- −20 -->
      <g transform="translate(10.398125 81.239902) scale(0.1 -0.1)">
       <use xlink:href="#DejaVuSans-2212"/>
       <use xlink:href="#DejaVuSans-32" x="83.789062"/>
       <use xlink:href="#DejaVuSans-30" x="147.412109"/>
      </g>
     </g>
    </g>
    <g id="ytick_3">
     <g id="line2d_19">
      <path d="M 38.502813 41.647009 
L 317.502813 41.647009 
" clip-path="url(#p22b789aa00)" style="fill: none; stroke-dasharray: 0.8,1.32; stroke-dashoffset: 0; stroke: #000000; stroke-opacity: 0.5; stroke-width: 0.8"/>
     </g>
     <g id="line2d_20">
      <g>
       <use xlink:href="#me204c0b216" x="38.502813" y="41.647009" style="stroke: #000000; stroke-width: 0.8"/>
      </g>
     </g>
     <g id="text_11">
      <!-- −10 -->
      <g transform="translate(10.398125 45.446227) scale(0.1 -0.1)">
       <use xlink:href="#DejaVuSans-2212"/>
       <use xlink:href="#DejaVuSans-31" x="83.789062"/>
       <use xlink:href="#DejaVuSans-30" x="147.412109"/>
      </g>
     </g>
    </g>
    <g id="ytick_4">
     <g id="line2d_21">
      <path d="M 38.502813 5.853333 
L 317.502813 5.853333 
" clip-path="url(#p22b789aa00)" style="fill: none; stroke-dasharray: 0.8,1.32; stroke-dashoffset: 0; stroke: #000000; stroke-opacity: 0.5; stroke-width: 0.8"/>
     </g>
     <g id="line2d_22">
      <g>
       <use xlink:href="#me204c0b216" x="38.502813" y="5.853333" style="stroke: #000000; stroke-width: 0.8"/>
      </g>
     </g>
     <g id="text_12">
      <!-- 0 -->
      <g transform="translate(25.140313 9.652552) scale(0.1 -0.1)">
       <use xlink:href="#DejaVuSans-30"/>
      </g>
     </g>
    </g>
    <g id="text_13">
     <!-- Drehmoment [Nm] -->
     <g transform="translate(8.318437 117.165312) rotate(-90) scale(0.1 -0.1)">
      <defs>
       <path id="DejaVuSans-44" d="M 1259 4147 
L 1259 519 
L 2022 519 
Q 2988 519 3436 956 
Q 3884 1394 3884 2338 
Q 3884 3275 3436 3711 
Q 2988 4147 2022 4147 
L 1259 4147 
z
M 628 4666 
L 1925 4666 
Q 3281 4666 3915 4102 
Q 4550 3538 4550 2338 
Q 4550 1131 3912 565 
Q 3275 0 1925 0 
L 628 0 
L 628 4666 
z
" transform="scale(0.015625)"/>
       <path id="DejaVuSans-72" d="M 2631 2963 
Q 2534 3019 2420 3045 
Q 2306 3072 2169 3072 
Q 1681 3072 1420 2755 
Q 1159 2438 1159 1844 
L 1159 0 
L 581 0 
L 581 3500 
L 1159 3500 
L 1159 2956 
Q 1341 3275 1631 3429 
Q 1922 3584 2338 3584 
Q 2397 3584 2469 3576 
Q 2541 3569 2628 3553 
L 2631 2963 
z
" transform="scale(0.015625)"/>
       <path id="DejaVuSans-68" d="M 3513 2113 
L 3513 0 
L 2938 0 
L 2938 2094 
Q 2938 2591 2744 2837 
Q 2550 3084 2163 3084 
Q 1697 3084 1428 2787 
Q 1159 2491 1159 1978 
L 1159 0 
L 581 0 
L 581 4863 
L 1159 4863 
L 1159 2956 
Q 1366 3272 1645 3428 
Q 1925 3584 2291 3584 
Q 2894 3584 3203 3211 
Q 3513 2838 3513 2113 
z
" transform="scale(0.015625)"/>
       <path id="DejaVuSans-6d" d="M 3328 2828 
Q 3544 3216 3844 3400 
Q 4144 3584 4550 3584 
Q 5097 3584 5394 3201 
Q 5691 2819 5691 2113 
L 5691 0 
L 5113 0 
L 5113 2094 
Q 5113 2597 4934 2840 
Q 4756 3084 4391 3084 
Q 3944 3084 3684 2787 
Q 3425 2491 3425 1978 
L 3425 0 
L 2847 0 
L 2847 2094 
Q 2847 2600 2669 2842 
Q 2491 3084 2119 3084 
Q 1678 3084 1418 2786 
Q 1159 2488 1159 1978 
L 1159 0 
L 581 0 
L 581 3500 
L 1159 3500 
L 1159 2956 
Q 1356 3278 1631 3431 
Q 1906 3584 2284 3584 
Q 2666 3584 2933 3390 
Q 3200 3197 3328 2828 
z
" transform="scale(0.015625)"/>
       <path id="DejaVuSans-6f" d="M 1959 3097 
Q 1497 3097 1228 2736 
Q 959 2375 959 1747 
Q 959 1119 1226 758 
Q 1494 397 1959 397 
Q 2419 397 2687 759 
Q 2956 1122 2956 1747 
Q 2956 2369 2687 2733 
Q 2419 3097 1959 3097 
z
M 1959 3584 
Q 2709 3584 3137 3096 
Q 3566 2609 3566 1747 
Q 3566 888 3137 398 
Q 2709 -91 1959 -91 
Q 1206 -91 779 398 
Q 353 888 353 1747 
Q 353 2609 779 3096 
Q 1206 3584 1959 3584 
z
" transform="scale(0.015625)"/>
       <path id="DejaVuSans-6e" d="M 3513 2113 
L 3513 0 
L 2938 0 
L 2938 2094 
Q 2938 2591 2744 2837 
Q 2550 3084 2163 3084 
Q 1697 3084 1428 2787 
Q 1159 2491 1159 1978 
L 1159 0 
L 581 0 
L 581 3500 
L 1159 3500 
L 1159 2956 
Q 1366 3272 1645 3428 
Q 1925 3584 2291 3584 
Q 2894 3584 3203 3211 
Q 3513 2838 3513 2113 
z
" transform="scale(0.015625)"/>
       <path id="DejaVuSans-4e" d="M 628 4666 
L 1478 4666 
L 3547 763 
L 3547 4666 
L 4159 4666 
L 4159 0 
L 3309 0 
L 1241 3903 
L 1241 0 
L 628 0 
L 628 4666 
z
" transform="scale(0.015625)"/>
      </defs>
      <use xlink:href="#DejaVuSans-44"/>
      <use xlink:href="#DejaVuSans-72" x="77.001953"/>
      <use xlink:href="#DejaVuSans-65" x="115.865234"/>
      <use xlink:href="#DejaVuSans-68" x="177.388672"/>
      <use xlink:href="#DejaVuSans-6d" x="240.767578"/>
      <use xlink:href="#DejaVuSans-6f" x="338.179688"/>
      <use xlink:href="#DejaVuSans-6d" x="399.361328"/>
      <use xlink:href="#DejaVuSans-65" x="496.773438"/>
      <use xlink:href="#DejaVuSans-6e" x="558.296875"/>
      <use xlink:href="#DejaVuSans-74" x="621.675781"/>
      <use xlink:href="#DejaVuSans-20" x="660.884766"/>
      <use xlink:href="#DejaVuSans-5b" x="692.671875"/>
      <use xlink:href="#DejaVuSans-4e" x="731.685547"/>
      <use xlink:href="#DejaVuSans-6d" x="806.490234"/>
      <use xlink:href="#DejaVuSans-5d" x="903.902344"/>
     </g>
    </g>
   </g>
   <g id="line2d_23">
    <path d="M 38.502813 5.853333 
L 317.502813 5.853333 
L 317.502813 5.853333 
" clip-path="url(#p22b789aa00)" style="fill: none; stroke: #0000ff; stroke-opacity: 0.5; stroke-width: 3; stroke-linecap: square"/>
   </g>
   <g id="line2d_24">
    <path d="M 38.502813 128.271505 
L 38.710162 130.914293 
L 38.801142 130.576865 
L 38.816261 128.994607 
L 38.867107 129.618333 
L 38.937955 129.448169 
L 38.987701 126.953864 
L 39.054575 127.257036 
L 39.123721 127.892854 
L 39.210438 127.635613 
L 39.28474 128.120028 
L 39.363887 126.343928 
L 39.415198 126.446747 
L 39.552732 127.880027 
L 39.621893 127.224954 
L 39.725071 127.914245 
L 39.845046 126.610454 
L 39.913318 127.809944 
L 39.999402 127.51215 
L 40.119484 128.080501 
L 40.290597 125.979339 
L 40.703919 128.800046 
L 40.824026 128.46611 
L 40.84376 127.636252 
L 40.910015 128.364965 
L 41.116894 129.652321 
L 41.188476 129.356126 
L 41.339019 127.754619 
L 41.407672 127.861391 
L 41.683823 131.220269 
L 41.82626 129.105841 
L 41.898126 129.17784 
L 41.977546 130.556709 
L 42.032515 130.258484 
L 42.115449 130.427652 
L 42.32147 128.932156 
L 42.397027 128.046986 
L 42.463432 128.991605 
L 42.544375 128.773725 
L 42.63218 128.76422 
L 42.683131 128.482624 
L 42.751153 129.000783 
L 42.887882 127.767717 
L 43.031552 129.201469 
L 43.182564 128.220821 
L 43.251297 128.939293 
L 43.458012 126.370597 
L 43.595452 127.452538 
L 43.66547 126.923031 
L 43.736776 126.942233 
L 43.819322 127.384636 
L 43.957312 125.914951 
L 44.025648 126.126346 
L 44.094895 127.227032 
L 44.173615 127.217327 
L 44.235085 126.563689 
L 44.386279 127.082032 
L 44.537043 126.748715 
L 44.5937 127.521431 
L 44.663514 127.172704 
L 44.731056 127.22293 
L 44.868516 127.815896 
L 45.030289 126.430913 
L 45.092202 125.869392 
L 45.454849 128.763081 
L 45.52128 127.990386 
L 45.661553 129.723705 
L 45.72982 129.566698 
L 45.798217 129.5407 
L 45.935642 128.6687 
L 46.03883 127.29423 
L 46.10768 127.664643 
L 46.193272 127.440717 
L 46.296507 129.373307 
L 46.416589 128.055901 
L 46.656398 132.70107 
L 46.725466 131.659317 
L 46.794302 131.253965 
L 46.933688 128.132396 
L 47.021211 128.913974 
L 47.074457 129.899489 
L 47.145972 129.617124 
L 47.363555 127.482436 
L 47.502827 127.411982 
L 47.728844 128.832059 
L 47.799025 128.420886 
L 48.021839 129.37121 
L 48.145464 129.229604 
L 48.301741 127.56398 
L 48.360018 128.024592 
L 48.430279 128.007156 
L 48.522603 128.034242 
L 48.585376 128.274666 
L 48.669811 129.090185 
L 48.685883 128.197018 
L 48.827638 126.075293 
L 48.889978 126.241365 
L 48.966308 127.672067 
L 49.086081 128.822891 
L 49.155811 128.930023 
L 49.241261 128.764394 
L 49.378515 127.507279 
L 49.584792 130.07461 
L 49.724068 128.182901 
L 49.791423 127.7461 
L 50.003123 129.681704 
L 50.100194 129.157135 
L 50.187478 129.217402 
L 50.273652 127.20094 
L 50.437315 129.801893 
L 50.495962 129.699629 
L 50.726597 127.837435 
L 51.079127 131.422809 
L 51.130907 131.249788 
L 51.338389 130.803204 
L 51.4744 129.363337 
L 51.542891 129.817157 
L 51.629405 128.859365 
L 51.835535 125.149278 
L 51.920982 125.410404 
L 52.487717 130.704956 
L 52.556719 131.016321 
L 52.624981 130.779312 
L 52.951256 127.180131 
L 53.043661 129.165745 
L 53.122338 128.196325 
L 53.573256 132.022909 
L 53.622037 131.58306 
L 53.690747 129.786459 
L 53.770906 129.882545 
L 53.828326 131.218461 
L 53.999464 130.725713 
L 54.05152 130.959946 
L 54.188342 129.545169 
L 54.429518 131.537146 
L 54.481627 131.102869 
L 54.550077 129.524002 
L 54.618691 129.854426 
L 54.721602 129.89992 
L 54.876244 130.785253 
L 55.23291 129.836934 
L 55.254494 129.990298 
L 55.323798 130.303294 
L 55.410009 130.169564 
L 55.583929 131.278854 
L 55.619675 131.255087 
L 55.774386 129.220956 
L 55.906914 130.280773 
L 56.084524 129.586679 
L 56.123208 130.227347 
L 56.191641 129.950934 
L 56.270051 130.139147 
L 56.392748 130.135804 
L 56.424797 129.83648 
L 56.442932 130.568707 
L 56.510366 130.455485 
L 56.590416 129.515387 
L 56.606988 129.904569 
L 56.675882 129.428541 
L 56.75791 130.083576 
L 56.83681 130.039683 
L 56.938144 129.570521 
L 57.036902 129.606164 
L 57.108713 129.337129 
L 57.245415 130.294109 
L 57.347824 129.10326 
L 57.382324 131.07984 
L 57.451505 130.682917 
L 57.674631 125.39688 
L 57.742921 126.697512 
L 57.880559 128.752936 
L 57.983472 128.177552 
L 58.038542 129.96744 
L 58.104819 129.324601 
L 58.279242 128.142842 
L 58.400975 129.23439 
L 58.469549 129.943624 
L 58.519282 129.904432 
L 58.691279 129.586895 
L 58.76008 128.375024 
L 58.812599 128.491291 
L 59.087057 130.681787 
L 59.241076 129.689458 
L 59.397162 128.058683 
L 59.466163 128.492853 
L 59.672071 126.673608 
L 59.878274 125.370243 
L 59.89471 125.693615 
L 60.63323 128.634793 
L 61.033947 128.91723 
L 61.408502 128.671321 
L 61.42368 127.774072 
L 61.508839 128.383658 
L 61.578305 129.127877 
L 61.716443 127.391857 
L 61.973675 132.460263 
L 61.992226 131.29069 
L 62.197909 130.598451 
L 62.333997 128.878396 
L 62.456626 130.80217 
L 62.695284 128.292228 
L 62.852911 130.659432 
L 62.925868 131.053088 
L 63.056678 130.456094 
L 63.228567 126.212958 
L 63.280531 126.413132 
L 63.365046 127.739291 
L 63.527036 125.787095 
L 63.623048 125.820804 
L 63.779487 128.535484 
L 63.881377 128.480143 
L 63.985062 127.287569 
L 64.104261 126.296462 
L 64.293443 127.542423 
L 64.384276 126.911663 
L 64.43079 127.255536 
L 64.500395 128.764707 
L 64.564881 128.054338 
L 64.668097 127.821989 
L 64.908602 129.022323 
L 64.977654 128.938796 
L 65.131639 128.24511 
L 65.200615 128.352327 
L 65.354852 129.054517 
L 65.424429 129.395888 
L 65.475639 128.992017 
L 65.629586 129.647858 
L 65.69859 129.509939 
L 65.786306 129.399309 
L 65.921414 128.057805 
L 66.059668 129.272017 
L 66.197282 127.756116 
L 66.334708 125.414554 
L 66.421224 125.678402 
L 66.611232 127.615788 
L 66.76472 126.410603 
L 66.901831 129.70409 
L 67.021225 130.218704 
L 67.038245 130.906403 
L 67.125929 130.168804 
L 67.27235 129.891975 
L 67.272637 130.224463 
L 67.356799 128.801035 
L 67.682351 131.771327 
L 67.852737 134.186667 
L 67.921565 134.115911 
L 68.17856 132.470106 
L 68.539378 125.604815 
L 68.607707 126.180628 
L 68.74681 126.57889 
L 68.883407 126.072549 
L 69.314596 130.191652 
L 69.449741 130.339578 
L 69.539229 131.349917 
L 69.604415 131.049814 
L 69.741555 132.432886 
L 69.811009 132.397634 
L 70.069888 128.696857 
L 70.188371 129.578505 
L 70.377677 128.299388 
L 70.514808 127.69369 
L 70.619174 130.356002 
L 70.89336 128.331409 
L 70.944241 128.856228 
L 71.100143 129.369366 
L 71.169398 129.91168 
L 71.27073 128.863802 
L 71.340118 129.053751 
L 71.39113 129.880088 
L 71.4633 129.599596 
L 71.526354 128.830687 
L 71.656407 131.55312 
L 71.814428 130.110381 
L 72.049126 127.071333 
L 72.151687 128.059602 
L 72.237876 127.907947 
L 72.378811 123.511379 
L 72.444756 124.388753 
L 72.51382 125.537842 
L 72.583583 125.49947 
L 72.655906 124.52263 
L 72.722383 125.295069 
L 72.944109 123.578196 
L 73.13319 123.603479 
L 73.150059 126.321498 
L 73.219557 124.557692 
L 73.339799 125.7902 
L 73.442745 128.05826 
L 73.51116 128.099519 
L 73.641938 128.325195 
L 73.718468 130.814535 
L 73.785348 129.477302 
L 73.802397 129.651985 
L 73.913373 130.419019 
L 73.944711 131.742361 
L 74.078075 129.850373 
L 74.148013 128.785053 
L 74.353038 129.023147 
L 74.577475 126.186291 
L 74.784679 125.593031 
L 74.939923 126.603864 
L 75.028096 126.386707 
L 75.06669 125.729955 
L 75.163492 126.518349 
L 75.215224 127.865068 
L 75.344646 127.466389 
L 75.489664 125.649615 
L 75.61843 126.328286 
L 75.655809 126.175827 
L 76.006118 122.338145 
L 76.422612 128.33193 
L 76.507503 128.396349 
L 76.576302 128.680538 
L 76.631622 129.44969 
L 76.7133 129.425438 
L 76.85091 131.047167 
L 76.919314 130.720261 
L 77.130506 128.974902 
L 77.143943 131.056873 
L 77.212925 129.224329 
L 77.265255 129.144339 
L 77.369067 128.472126 
L 77.41955 129.45576 
L 77.506693 128.715964 
L 77.574522 127.172044 
L 77.629199 127.410955 
L 77.713747 129.321373 
L 77.728376 128.119417 
L 77.849173 127.068503 
L 78.056973 129.413984 
L 78.229201 127.604071 
L 78.351262 128.778916 
L 78.400451 127.457294 
L 78.556306 128.411088 
L 78.641789 127.40133 
L 78.7141 127.605936 
L 78.762406 127.679191 
L 78.90024 129.165152 
L 79.024026 129.059266 
L 79.040923 128.827797 
L 79.129486 129.677831 
L 79.195858 129.556715 
L 79.26639 129.202109 
L 79.469907 130.790849 
L 79.899954 127.583496 
L 79.97281 127.786779 
L 80.037557 128.328695 
L 80.123544 128.130599 
L 80.260101 126.663687 
L 80.335065 127.317522 
L 80.543429 130.053098 
L 80.677947 130.766742 
L 80.812472 128.259724 
L 80.88104 128.409937 
L 80.983764 130.135765 
L 81.035567 129.805473 
L 81.189576 131.52496 
L 81.74878 125.836506 
L 81.870087 125.103244 
L 81.912743 125.275192 
L 82.307811 129.264187 
L 82.464388 129.986088 
L 82.549071 129.949892 
L 82.687184 127.987295 
L 82.806602 128.641795 
L 83.183962 127.224377 
L 83.253868 127.38341 
L 83.304758 128.064771 
L 83.460063 126.730305 
L 83.537964 127.186105 
L 83.634476 127.780375 
L 83.701483 127.606635 
L 83.890861 126.526947 
L 83.945224 125.220096 
L 84.011853 125.452061 
L 84.183846 126.50912 
L 84.334322 125.443991 
L 84.450018 128.208061 
L 84.541207 127.26146 
L 84.615284 127.193425 
L 84.770118 129.248625 
L 84.809091 128.142968 
L 85.010173 130.08654 
L 85.147941 130.14688 
L 85.201407 129.518822 
L 85.291634 130.53679 
L 85.443342 130.238332 
L 85.512956 131.033102 
L 85.580141 130.07449 
L 85.6487 130.246302 
L 85.718255 130.579321 
L 85.788913 129.750701 
L 85.873831 129.543156 
L 85.947378 128.185362 
L 86.010081 129.433458 
L 86.0781 129.078574 
L 86.36414 127.342638 
L 86.507354 127.621683 
L 86.577572 127.243074 
L 86.644267 128.582732 
L 86.7176 128.328208 
L 86.78416 127.791006 
L 87.210668 130.6645 
L 87.281601 130.702552 
L 87.434511 127.934657 
L 87.641047 129.940018 
L 87.7785 129.12232 
L 87.846886 129.284297 
L 88.002396 128.684932 
L 88.140297 129.92717 
L 88.208124 129.722915 
L 88.348024 127.86351 
L 88.500426 129.657065 
L 88.775164 130.664273 
L 88.852316 131.408186 
L 89.154822 128.162976 
L 89.204579 128.684123 
L 89.276399 129.946402 
L 89.427663 128.194152 
L 89.480503 128.910264 
L 89.556002 128.02301 
L 89.703132 129.939529 
L 89.771904 129.847217 
L 89.842583 130.023772 
L 89.978916 128.063722 
L 90.048211 128.273398 
L 90.134647 129.256484 
L 90.190294 129.035492 
L 90.272847 128.75585 
L 90.339978 127.733427 
L 90.409977 128.275743 
L 90.489432 128.135916 
L 90.495064 129.269869 
L 90.547372 129.190421 
L 90.702385 130.627969 
L 90.909121 128.862391 
L 90.96072 129.356261 
L 90.978429 129.11676 
L 91.048297 129.04703 
L 91.209324 127.97584 
L 91.288808 128.591932 
L 91.33998 128.54362 
L 91.40919 127.902484 
L 91.546233 129.4697 
L 91.614691 128.233542 
L 91.683888 128.803938 
L 91.753267 129.457235 
L 91.859504 128.357709 
L 91.910561 128.752337 
L 91.981625 128.394035 
L 92.06596 126.277007 
L 92.116895 126.754547 
L 92.237365 126.842416 
L 92.323235 129.140622 
L 92.478257 129.045694 
L 92.546939 128.605758 
L 92.564235 129.225613 
L 92.771823 128.75386 
L 92.840308 129.260395 
L 92.857882 130.323557 
L 92.910278 129.708497 
L 93.235263 125.997678 
L 93.252887 126.361976 
L 93.322296 126.617857 
L 93.408686 126.4933 
L 93.460541 127.476175 
L 93.476107 126.295843 
L 93.545602 126.208138 
L 93.700582 125.26065 
L 93.838221 127.542985 
L 93.88806 128.801949 
L 93.957536 128.334342 
L 94.130082 129.309891 
L 94.19886 128.740817 
L 94.215066 130.089963 
L 94.285658 129.127318 
L 94.370323 130.318737 
L 94.421532 129.474312 
L 94.507762 129.675875 
L 94.594889 128.605358 
L 94.697064 129.144683 
L 94.766568 128.204956 
L 94.817481 129.751359 
L 95.174335 127.157509 
L 95.228951 127.529723 
L 95.263628 127.745274 
L 95.383512 127.493834 
L 95.426368 127.643162 
L 95.555345 125.471007 
L 95.625374 126.984777 
L 95.744816 126.390679 
L 95.764787 125.633295 
L 95.813615 127.531063 
L 95.88237 127.043013 
L 95.95314 127.130147 
L 96.078412 127.315718 
L 96.097344 126.658821 
L 96.161559 127.715205 
L 96.313858 126.478552 
L 96.456919 127.768925 
L 96.520778 127.031673 
L 96.58985 127.483668 
L 96.862924 128.756405 
L 97.037992 130.369499 
L 97.105556 129.308187 
L 97.157945 129.52383 
L 97.241955 130.529999 
L 97.294248 129.84484 
L 97.433198 129.43068 
L 97.466164 128.607057 
L 97.539539 129.48878 
L 97.584953 128.94091 
L 97.653717 129.727017 
L 97.829635 129.245293 
L 97.884365 129.295792 
L 98.014434 127.686174 
L 98.085014 128.459869 
L 98.151988 128.375109 
L 98.191016 128.352633 
L 98.448173 127.059872 
L 98.618698 128.485529 
L 98.704659 128.965534 
L 98.722173 128.601175 
L 99.134479 124.619593 
L 99.170935 126.036113 
L 99.254661 125.566414 
L 99.307526 124.53417 
L 99.460571 125.588115 
L 99.718066 126.935249 
L 99.856245 126.695773 
L 100.010043 127.883136 
L 100.091663 127.425427 
L 100.148872 127.367047 
L 100.216422 127.487339 
L 100.474006 129.769238 
L 100.57722 128.787542 
L 100.941175 130.171203 
L 101.111601 129.253205 
L 101.145445 129.528698 
L 101.214361 129.198271 
L 101.285639 129.16843 
L 101.36099 129.546515 
L 101.421474 129.381362 
L 101.541702 128.855314 
L 101.918929 130.645623 
L 102.49368 125.479661 
L 102.6931 125.389443 
L 102.848262 128.242602 
L 102.994358 126.899422 
L 103.127739 128.560771 
L 103.192126 128.49491 
L 103.346115 129.056364 
L 103.484337 127.508102 
L 103.621193 128.440323 
L 104.050009 125.860214 
L 104.18825 126.438812 
L 104.257206 125.682769 
L 104.357164 125.755638 
L 104.6171 128.491152 
L 104.825781 127.390078 
L 105.046693 128.598056 
L 105.120705 128.922881 
L 105.185323 128.729059 
L 105.253269 127.44 
L 105.324456 127.465249 
L 105.552988 129.08839 
L 105.684355 128.636017 
L 105.755715 128.712838 
L 105.821521 128.780314 
L 105.908367 127.56296 
L 105.961078 128.203701 
L 106.029367 129.77778 
L 106.045687 127.630054 
L 106.116697 127.197561 
L 106.272114 128.150623 
L 106.321428 127.492563 
L 106.389914 127.866931 
L 106.458827 128.223855 
L 106.533712 127.228307 
L 106.613184 128.000255 
L 106.687305 127.141105 
L 106.857942 128.466739 
L 106.970433 125.634466 
L 107.047203 126.353717 
L 107.167173 125.007028 
L 107.235955 125.343893 
L 107.372413 125.031965 
L 107.406509 126.023631 
L 107.468579 125.948802 
L 107.527287 126.141651 
L 107.732813 128.872148 
L 107.767283 128.154102 
L 107.855971 127.914668 
L 107.957686 129.311702 
L 108.187476 128.487962 
L 108.318295 126.803898 
L 108.386647 126.839155 
L 108.455206 126.023241 
L 108.643535 127.595579 
L 108.682199 127.184163 
L 108.799256 128.517488 
L 108.885198 129.039095 
L 108.954543 130.58022 
L 109.092202 129.822253 
L 109.179094 131.123058 
L 109.298898 130.3593 
L 109.435915 128.543913 
L 109.867578 125.391119 
L 110.090046 126.427391 
L 110.157785 126.327522 
L 110.226807 126.147888 
L 110.295073 126.278399 
L 110.398215 126.581416 
L 110.622417 128.758452 
L 110.673678 127.449124 
L 110.725856 127.462163 
L 110.86298 129.850673 
L 110.950027 129.821611 
L 111.172317 127.960518 
L 111.278433 127.05452 
L 111.309445 125.043689 
L 111.326516 126.408756 
L 111.412778 127.381663 
L 111.435649 128.966768 
L 111.584455 126.612283 
L 111.656288 126.718413 
L 111.996801 131.766182 
L 112.081918 131.464828 
L 112.150287 130.476794 
L 112.236352 130.586215 
L 112.305086 130.382286 
L 112.391304 130.760606 
L 112.461133 130.706409 
L 112.789938 127.345807 
L 112.891156 127.481787 
L 112.925119 126.711795 
L 113.080329 127.4795 
L 113.234374 126.32364 
L 113.458279 127.905814 
L 113.494465 127.513135 
L 113.647154 129.354861 
L 113.715641 129.075417 
L 113.854636 128.563663 
L 113.919549 128.728828 
L 113.932745 129.188897 
L 113.995132 128.849088 
L 114.034062 128.823458 
L 114.088153 128.564406 
L 114.230471 131.161141 
L 114.350481 129.483311 
L 114.45259 131.147915 
L 114.504426 130.692606 
L 114.642528 129.831583 
L 114.693619 130.165761 
L 114.731648 130.252272 
L 114.858322 127.971136 
L 114.934456 126.691618 
L 115.004025 126.733622 
L 115.089574 127.428225 
L 115.195989 126.927545 
L 115.281941 127.086793 
L 115.348324 126.008878 
L 115.50274 127.231128 
L 115.558859 126.881581 
L 115.778521 125.727153 
L 115.938615 127.271005 
L 116.176552 126.017128 
L 116.347432 126.713469 
L 116.491793 127.286044 
L 116.884851 123.901483 
L 116.917128 123.783169 
L 116.985779 124.393878 
L 117.053761 124.217802 
L 117.122518 124.332214 
L 117.639901 126.900531 
L 117.719768 126.61967 
L 117.89907 125.955684 
L 117.98461 126.083467 
L 118.296239 130.28015 
L 118.330067 129.418908 
L 118.398575 129.616667 
L 118.485102 130.582241 
L 118.552852 129.643816 
L 118.606864 130.667191 
L 118.725221 130.668003 
L 118.966214 126.362935 
L 119.034523 128.272443 
L 119.107194 127.678676 
L 119.19064 126.827911 
L 119.25856 127.722083 
L 119.327587 127.391536 
L 119.402978 127.321211 
L 119.47242 127.792324 
L 119.602149 127.579713 
L 119.636212 127.667694 
L 119.687815 129.110524 
L 119.775116 127.798973 
L 119.828103 128.129403 
L 120.052253 129.748855 
L 120.103144 129.548819 
L 120.21013 129.675701 
L 120.326508 130.823014 
L 120.446361 130.640544 
L 120.55014 132.246807 
L 120.738252 129.498177 
L 120.807077 130.273309 
L 120.892999 129.188474 
L 120.978369 129.39943 
L 121.068375 129.981325 
L 121.235308 127.18084 
L 121.376136 128.095657 
L 121.459389 128.270524 
L 121.541034 127.589126 
L 121.596672 128.31099 
L 121.751019 126.5084 
L 121.82024 126.65388 
L 121.906768 126.601184 
L 122.318035 129.604679 
L 122.407938 129.670881 
L 122.553374 132.350469 
L 122.645942 132.546984 
L 122.782123 130.310908 
L 122.816993 131.2198 
L 122.885745 130.747436 
L 122.971757 130.767591 
L 123.040159 131.028164 
L 123.108542 130.347321 
L 123.246103 127.739953 
L 123.301153 127.544865 
L 123.505972 128.288924 
L 123.591424 126.781798 
L 123.60689 127.168791 
L 123.727708 125.463495 
L 123.865834 126.723133 
L 124.091459 125.656704 
L 124.157602 125.754926 
L 124.227835 125.61335 
L 124.3095 125.895146 
L 124.377646 126.762959 
L 124.463956 126.677588 
L 124.501372 126.326055 
L 124.738491 129.200339 
L 124.859707 128.59547 
L 124.929784 129.615785 
L 124.943818 129.532739 
L 125.046437 129.399387 
L 125.307114 126.739424 
L 125.511072 127.209699 
L 125.665682 126.601597 
L 125.723079 127.268847 
L 125.787459 126.663006 
L 125.997964 128.257089 
L 126.237543 126.643234 
L 126.307292 127.537908 
L 126.424629 125.850969 
L 126.494202 126.683247 
L 126.579658 126.598581 
L 126.752453 127.980003 
L 126.820154 127.698841 
L 126.957613 128.183656 
L 127.026677 128.650005 
L 127.202493 132.23727 
L 127.423115 129.210762 
L 127.646077 131.191503 
L 127.940137 128.781587 
L 127.990669 129.473923 
L 128.130817 130.364501 
L 128.386532 128.333411 
L 128.402912 129.130192 
L 128.421174 128.33585 
L 128.627384 127.092972 
L 128.747558 127.494252 
L 128.801808 126.894925 
L 128.852264 127.167989 
L 129.024523 129.014197 
L 129.069246 128.520219 
L 129.12675 128.382624 
L 129.297981 128.934814 
L 129.486347 130.973528 
L 129.693137 129.14897 
L 129.761564 128.996518 
L 129.847505 128.378104 
L 129.935642 128.875425 
L 129.984852 128.852713 
L 130.193125 126.595576 
L 130.260233 127.156957 
L 130.331684 126.954092 
L 130.552123 128.040906 
L 130.689437 127.188468 
L 130.861177 128.143465 
L 131.072795 130.13636 
L 131.2604 128.869553 
L 131.397921 129.000409 
L 131.545014 128.20988 
L 131.686961 126.982595 
L 131.873049 126.317246 
L 131.891029 127.197025 
L 131.970063 126.111269 
L 132.062394 126.091887 
L 132.183037 127.251225 
L 132.252967 125.867089 
L 132.337247 126.623513 
L 132.534342 124.440694 
L 132.629522 124.359856 
L 132.777066 126.403507 
L 132.846558 125.465999 
L 132.880388 126.004343 
L 132.968219 127.466419 
L 133.051704 126.196977 
L 133.121388 126.414947 
L 133.257402 128.071365 
L 133.379581 127.212388 
L 133.533881 129.288021 
L 133.550475 128.690192 
L 133.604311 128.538053 
L 133.673796 128.831166 
L 133.812913 130.542532 
L 133.912337 129.443959 
L 134.020125 131.069029 
L 134.291719 127.195477 
L 134.413559 128.351718 
L 134.515684 128.270551 
L 134.601372 129.943981 
L 134.670446 129.110829 
L 134.807596 127.731747 
L 134.876537 127.685944 
L 135.014548 128.51534 
L 135.279685 127.904963 
L 135.375348 128.148379 
L 135.529752 132.00176 
L 135.667692 131.742643 
L 135.756284 130.495707 
L 135.861974 130.871284 
L 135.942811 129.823184 
L 136.011365 129.328397 
L 136.254219 125.626909 
L 136.509766 127.247873 
L 136.648582 127.674874 
L 136.814982 126.709983 
L 137.042826 128.691061 
L 137.180614 127.213531 
L 137.265646 127.337883 
L 137.300349 127.979475 
L 137.37771 127.720936 
L 137.438107 127.739313 
L 137.579788 129.634225 
L 137.677104 129.279871 
L 137.713653 128.335146 
L 137.867883 130.318851 
L 137.937296 129.985991 
L 138.00547 129.002759 
L 138.143918 130.007135 
L 138.290693 128.181756 
L 138.447228 131.270188 
L 138.530019 130.571693 
L 138.668364 128.981038 
L 138.924949 131.121733 
L 138.995453 130.971221 
L 139.148365 127.338858 
L 139.355609 128.373556 
L 139.424498 128.440375 
L 139.647353 126.957429 
L 139.854477 128.757348 
L 139.926597 128.602951 
L 140.025522 128.702175 
L 140.146255 129.510859 
L 140.215459 128.915606 
L 140.302018 130.337207 
L 140.351974 129.601542 
L 140.695172 127.420564 
L 140.80108 127.237313 
L 140.867334 126.237393 
L 140.918631 126.959192 
L 141.021486 125.796499 
L 141.143658 126.697871 
L 141.211856 127.602519 
L 141.301359 127.439548 
L 141.334126 127.453853 
L 141.417501 127.86703 
L 141.488311 127.434204 
L 141.641238 128.087689 
L 141.762793 127.112454 
L 141.847362 127.115828 
L 141.916384 126.959298 
L 141.984148 127.208522 
L 142.264064 125.864389 
L 142.345159 125.34656 
L 142.413252 126.549106 
L 142.537102 126.75521 
L 142.63663 125.487564 
L 142.792517 127.004956 
L 142.841638 128.756574 
L 142.910413 128.108772 
L 142.979819 127.819757 
L 143.047871 128.259137 
L 143.120301 127.633983 
L 143.133283 129.524219 
L 143.202231 128.255415 
L 143.425633 128.654371 
L 143.802203 126.022078 
L 143.838251 126.321993 
L 143.975541 126.091492 
L 144.02978 126.967862 
L 144.078808 126.871902 
L 144.130278 125.799179 
L 144.334339 128.113356 
L 144.532542 129.835986 
L 144.960985 126.22612 
L 145.029389 126.606989 
L 145.272694 124.880589 
L 145.373232 124.953936 
L 145.392732 124.892536 
L 145.47686 124.500989 
L 145.544557 125.007219 
L 145.613405 124.310659 
L 145.893187 126.782881 
L 145.961211 126.914279 
L 146.237386 130.204944 
L 146.390223 129.484518 
L 146.562891 128.747756 
L 146.699502 129.155205 
L 146.734992 130.012734 
L 146.804456 129.352188 
L 147.095079 130.129216 
L 147.164131 129.984616 
L 147.301206 129.419097 
L 147.455982 127.475448 
L 147.525194 127.856522 
L 147.594277 127.712368 
L 147.663043 126.272753 
L 147.733351 126.778491 
L 147.869443 126.997379 
L 147.94037 127.832184 
L 148.023448 126.998584 
L 148.091692 128.027346 
L 148.23045 126.570781 
L 148.37327 128.420762 
L 148.438123 128.027261 
L 148.454402 129.474023 
L 148.509839 127.988765 
L 148.592289 127.948546 
L 148.679648 127.52404 
L 148.875504 129.372262 
L 148.937112 129.292016 
L 149.087682 128.876773 
L 149.160417 129.615517 
L 149.229918 129.580227 
L 149.299527 129.266082 
L 149.36935 129.306233 
L 149.503771 130.779223 
L 149.573265 129.345742 
L 149.64382 129.834505 
L 149.86599 128.767376 
L 150.000997 129.908499 
L 150.07495 129.425621 
L 150.14081 129.432633 
L 150.212103 128.924386 
L 150.362582 129.894684 
L 150.516229 129.300943 
L 150.585881 129.228706 
L 150.688687 129.369394 
L 150.814728 130.079619 
L 150.921321 128.957898 
L 151.072766 127.912299 
L 151.235325 128.895776 
L 151.369935 127.895672 
L 151.420054 127.793298 
L 151.486178 128.012717 
L 151.569476 127.750552 
L 151.793418 126.312352 
L 152.154181 123.475895 
L 152.342987 123.812323 
L 152.498873 127.144545 
L 152.842614 130.284248 
L 152.927274 129.968694 
L 152.979308 130.71154 
L 153.202547 129.415465 
L 153.356585 129.406491 
L 153.425103 129.29611 
L 153.493757 128.723293 
L 153.706941 129.773856 
L 153.78547 129.553603 
L 153.854062 130.422948 
L 153.923109 129.850797 
L 154.043008 130.242558 
L 154.112888 130.217562 
L 154.26684 128.876055 
L 154.407057 129.325645 
L 154.42179 128.177272 
L 154.490507 128.770043 
L 154.57551 128.815142 
L 154.628783 129.188569 
L 154.765444 128.777331 
L 154.839239 129.437308 
L 154.902674 129.334878 
L 155.019376 129.285762 
L 155.142746 127.732091 
L 155.280188 125.714848 
L 155.349224 126.353343 
L 155.41754 126.450417 
L 155.624347 125.674701 
L 155.78471 127.629012 
L 155.830542 128.920033 
L 155.917055 128.752086 
L 155.974028 129.196627 
L 156.054567 128.960227 
L 156.28283 127.044604 
L 156.419915 127.346093 
L 156.523898 127.145185 
L 156.540261 126.514888 
L 156.683178 127.930178 
L 156.76861 127.174497 
L 156.854917 127.19695 
L 157.044804 129.642463 
L 157.45523 126.781509 
L 157.576556 128.782794 
L 157.611635 128.719217 
L 157.679308 127.946041 
L 157.747929 128.406322 
L 157.833437 128.364349 
L 157.974949 128.807996 
L 158.040736 128.396661 
L 158.109465 129.1699 
L 158.199358 127.723637 
L 158.400141 128.896312 
L 158.46718 127.424104 
L 158.533286 127.430056 
L 158.687729 127.636259 
L 158.89707 128.813688 
L 159.031674 127.887936 
L 159.134255 127.932867 
L 159.254616 129.335367 
L 159.563356 127.35975 
L 159.6661 126.494306 
L 159.737116 125.98082 
L 159.821655 126.642693 
L 159.890527 126.478532 
L 160.167485 127.839103 
L 160.268683 127.544882 
L 160.45729 129.589668 
L 160.528183 129.25072 
L 160.595198 129.830803 
L 160.732682 128.07204 
L 160.816257 128.901937 
L 160.925658 128.549221 
L 161.008719 129.958086 
L 161.028478 128.947738 
L 161.144406 129.680122 
L 161.318687 127.220767 
L 161.369168 128.23961 
L 161.437565 128.023219 
L 161.660841 126.438036 
L 161.731684 126.754553 
L 161.836622 126.568689 
L 161.95378 128.581763 
L 162.144059 127.854075 
L 162.159166 129.087966 
L 162.418792 129.867219 
L 162.489258 129.471121 
L 162.659975 125.226513 
L 162.864546 126.038334 
L 162.986379 125.471693 
L 163.018397 126.270199 
L 163.070264 126.232796 
L 163.224893 127.797981 
L 163.43108 129.779183 
L 163.571414 129.298068 
L 163.643641 129.32106 
L 163.791986 129.836677 
L 163.860841 129.393529 
L 163.929311 129.734128 
L 164.153224 127.934124 
L 164.207363 128.707813 
L 164.428822 127.377123 
L 164.567692 127.457055 
L 164.634799 126.937022 
L 164.773514 128.816603 
L 165.063994 130.920743 
L 165.136402 130.931343 
L 165.206004 130.773112 
L 165.349853 131.141816 
L 165.425332 130.260059 
L 165.501941 130.497242 
L 165.770768 128.746624 
L 165.891216 128.755046 
L 166.010977 129.408092 
L 166.064482 128.798857 
L 166.148792 128.942119 
L 166.423594 130.214368 
L 166.560828 128.807257 
L 166.699085 127.724674 
L 166.837082 129.034375 
L 166.858681 127.943906 
L 166.950417 129.075552 
L 167.018489 128.672961 
L 167.453557 131.109891 
L 167.487967 130.181497 
L 167.573286 130.298909 
L 167.643735 129.295611 
L 167.73142 129.547769 
L 167.831725 130.13133 
L 167.970159 131.101456 
L 168.295794 127.929437 
L 168.417203 127.332811 
L 168.707361 124.136346 
L 168.83505 124.875889 
L 168.968985 125.387776 
L 169.036622 124.26279 
L 169.136744 124.802663 
L 169.326949 126.275134 
L 169.477961 126.377005 
L 169.483724 126.103542 
L 169.551107 126.139202 
L 169.619768 126.049694 
L 169.781834 127.665588 
L 169.846463 127.804712 
L 169.929543 126.48952 
L 170.050079 126.498706 
L 170.101528 125.958793 
L 170.137581 126.100451 
L 170.342679 127.50569 
L 170.533605 125.706143 
L 170.755849 126.578374 
L 170.893034 126.596422 
L 171.031555 124.589817 
L 171.184887 125.739155 
L 171.28875 126.028236 
L 171.410118 124.224411 
L 171.585119 125.245412 
L 171.614599 125.013814 
L 171.822466 123.618432 
L 172.095799 126.522367 
L 172.164565 126.881624 
L 172.319522 125.700247 
L 172.527651 127.772654 
L 172.54196 127.301653 
L 172.645328 127.243681 
L 173.075362 130.201527 
L 173.213016 131.19845 
L 173.250327 130.50481 
L 173.31619 130.550671 
L 173.384135 130.570981 
L 173.470081 131.267296 
L 173.589762 129.701726 
L 173.65879 129.613043 
L 173.734818 129.788949 
L 173.799225 129.685057 
L 173.875358 129.714213 
L 174.013619 130.021021 
L 174.026168 128.966915 
L 174.094108 129.860442 
L 174.165969 129.078285 
L 174.303581 131.141489 
L 174.416167 130.615553 
L 174.577733 130.499804 
L 174.59623 130.298151 
L 174.76739 131.477579 
L 174.923256 130.998129 
L 174.941979 131.534769 
L 175.030281 131.169885 
L 175.082183 131.912938 
L 175.149364 131.373356 
L 175.216385 131.562705 
L 175.363187 130.875613 
L 175.464578 132.020691 
L 175.591498 130.718633 
L 175.809856 126.268065 
L 175.896491 127.612493 
L 175.935535 127.374069 
L 176.018235 127.76604 
L 176.151678 126.764943 
L 176.220328 126.868046 
L 176.293314 127.53529 
L 176.512271 130.931582 
L 176.581764 129.68925 
L 176.821936 132.316294 
L 176.993027 132.203184 
L 177.05027 130.955167 
L 177.149473 131.062361 
L 177.285198 131.598871 
L 177.49208 128.484275 
L 177.57751 128.655363 
L 177.645744 128.749997 
L 177.714462 130.94554 
L 177.786444 129.924386 
L 177.851697 130.397764 
L 177.925222 129.767539 
L 178.13265 131.126268 
L 178.422584 127.325987 
L 178.454642 127.733602 
L 178.490752 127.689043 
L 178.560556 127.085478 
L 178.629915 127.61522 
L 178.698564 127.364857 
L 178.851726 126.51717 
L 178.9213 127.113813 
L 178.990184 126.55592 
L 179.05875 126.858333 
L 179.155759 126.968115 
L 179.272472 128.106257 
L 179.420483 126.31335 
L 179.488167 126.348542 
L 179.556265 125.829366 
L 179.710853 128.41455 
L 179.766356 128.080437 
L 179.848996 128.01128 
L 179.94112 126.971312 
L 179.985568 127.208829 
L 180.417025 129.669049 
L 180.484142 128.92097 
L 180.621207 130.23494 
L 180.759117 130.029174 
L 180.861676 128.908849 
L 180.913216 129.975841 
L 180.969101 129.682361 
L 181.034529 129.015201 
L 181.188995 130.046288 
L 181.273224 129.833327 
L 181.395287 128.813489 
L 181.628828 129.107159 
L 181.691588 128.669508 
L 181.77175 129.144159 
L 181.960851 127.699463 
L 182.185206 129.478014 
L 182.288661 129.075776 
L 182.340039 129.400716 
L 182.651744 128.024486 
L 182.669135 128.22468 
L 182.838902 127.502233 
L 183.383009 130.09425 
L 183.545156 128.850118 
L 183.62204 129.585495 
L 183.681707 129.280805 
L 183.957496 130.319343 
L 184.093493 130.115437 
L 184.179143 129.345291 
L 184.38315 130.994769 
L 184.589876 129.93535 
L 184.692665 130.924515 
L 184.743631 129.992196 
L 184.934238 131.287604 
L 184.970903 131.103404 
L 185.036803 129.765452 
L 185.190618 129.62594 
L 185.328561 128.299564 
L 185.534542 126.201927 
L 185.650635 126.78287 
L 185.676137 126.695789 
L 185.743689 126.580534 
L 185.819847 126.172637 
L 185.88404 126.875217 
L 186.000015 126.361353 
L 186.102908 127.605361 
L 186.088193 126.299249 
L 186.154466 127.346026 
L 186.518333 128.868716 
L 186.589377 128.788436 
L 186.66162 130.755842 
L 186.797276 130.399112 
L 187.089112 128.243035 
L 187.15644 128.197904 
L 187.225256 129.433867 
L 187.4307 127.287576 
L 187.499815 127.447641 
L 187.585381 129.64395 
L 187.707435 129.583448 
L 187.864482 131.882872 
L 187.946058 129.889911 
L 188.014863 130.032801 
L 188.152704 129.730229 
L 188.359277 127.829168 
L 188.410199 128.930075 
L 188.469126 128.763818 
L 188.624753 127.0301 
L 188.706561 127.723297 
L 188.763321 127.092551 
L 188.792231 128.092636 
L 188.878545 127.601746 
L 189.042685 128.116584 
L 189.15377 127.316712 
L 189.238937 127.845145 
L 189.45234 130.404125 
L 189.535901 130.071387 
L 189.600565 130.977355 
L 189.651664 130.603112 
L 189.721671 130.769568 
L 189.996455 129.455942 
L 190.302762 132.429989 
L 190.426383 132.886462 
L 190.563025 133.386193 
L 190.99626 127.909252 
L 191.139084 128.946853 
L 191.208655 128.130833 
L 191.284032 128.218424 
L 191.340029 128.032415 
L 191.422385 128.09432 
L 191.61125 128.387696 
L 191.783325 126.86899 
L 191.869981 127.076404 
L 192.006653 128.601529 
L 192.058375 128.373055 
L 192.143999 128.301452 
L 192.264646 130.945565 
L 192.350731 130.249117 
L 192.472257 130.547352 
L 192.540031 130.295124 
L 192.608702 131.267134 
L 192.780837 130.226857 
L 192.867834 130.415795 
L 192.987513 127.67778 
L 193.054635 128.769806 
L 193.123434 128.79327 
L 193.192987 128.444967 
L 193.278359 127.435366 
L 193.483743 128.144448 
L 193.606507 128.177033 
L 193.691225 127.473894 
L 193.742219 127.943318 
L 193.827457 127.357037 
L 193.999704 128.636403 
L 194.053257 128.307876 
L 194.121665 128.666752 
L 194.259401 127.46027 
L 194.360346 128.56687 
L 194.429013 127.882324 
L 194.497375 128.434119 
L 194.586234 127.490707 
L 194.635525 128.253166 
L 194.755172 127.858707 
L 194.909181 128.551768 
L 194.995115 128.841531 
L 195.050174 130.015646 
L 195.177926 130.276274 
L 195.357814 131.874794 
L 195.547862 130.588332 
L 195.702464 130.874774 
L 195.961152 126.961421 
L 196.036194 126.34414 
L 196.133447 126.976439 
L 196.184852 125.995749 
L 196.262298 126.190575 
L 196.323444 126.222641 
L 196.391525 126.045198 
L 196.668388 128.149995 
L 196.751485 128.094438 
L 196.974855 127.019952 
L 197.026479 127.296989 
L 197.100738 127.726356 
L 197.182307 127.370209 
L 197.273597 127.711074 
L 197.334537 127.327197 
L 197.386377 127.52998 
L 197.540521 126.857859 
L 197.695905 130.116844 
L 197.799471 130.139386 
L 197.818352 129.941611 
L 197.884046 130.045171 
L 198.021957 130.222798 
L 198.143772 130.169238 
L 198.248002 131.187962 
L 198.468487 129.129962 
L 198.615166 128.46968 
L 198.745416 129.288272 
L 198.677199 128.148524 
L 198.83157 129.206887 
L 198.951797 127.832857 
L 199.032668 128.14938 
L 199.105895 127.851316 
L 199.262557 128.755055 
L 199.317065 128.528172 
L 199.50321 126.585436 
L 199.520189 126.686559 
L 199.588114 128.0185 
L 199.708445 128.037477 
L 200.01954 125.414599 
L 200.08678 126.537295 
L 200.154176 126.528275 
L 200.244044 126.621477 
L 200.584311 129.135572 
L 200.728808 131.785329 
L 200.825328 131.723178 
L 200.897963 131.823135 
L 201.082518 128.407011 
L 201.246831 128.715602 
L 201.443623 125.868824 
L 201.580242 126.310507 
L 201.786273 128.342722 
L 201.872789 127.434035 
L 201.940806 127.816846 
L 201.997894 127.372602 
L 202.078745 127.459797 
L 202.147715 127.622734 
L 202.215817 128.480506 
L 202.304767 127.913814 
L 202.577441 128.816613 
L 202.800124 130.658895 
L 202.886802 130.836548 
L 202.938703 130.457811 
L 202.99348 130.966352 
L 203.074346 130.814021 
L 203.212131 131.938057 
L 203.333904 131.595009 
L 203.366679 130.026756 
L 203.435863 130.680474 
L 203.497294 131.400863 
L 203.641944 129.606121 
L 203.728028 130.382239 
L 203.779207 130.002798 
L 203.91604 128.451001 
L 204.06155 130.226018 
L 204.13985 129.812686 
L 204.208061 128.696639 
L 204.328175 129.144235 
L 204.484175 127.900362 
L 204.555036 129.515614 
L 204.793665 127.888513 
L 205.053067 130.650405 
L 205.136535 131.027798 
L 205.411593 128.667458 
L 205.497371 128.558898 
L 205.674266 129.740381 
L 205.772195 129.606348 
L 205.841767 128.36451 
L 206.115869 130.958148 
L 206.189872 131.474418 
L 206.409261 129.030181 
L 206.562979 130.30548 
L 206.633809 129.515759 
L 206.769794 130.128916 
L 206.888933 129.856514 
L 206.910142 129.451205 
L 206.992975 129.905664 
L 207.063283 130.561556 
L 207.182503 128.997009 
L 207.267566 129.783061 
L 207.336697 129.592542 
L 207.476336 128.894753 
L 207.54341 129.843024 
L 207.680082 129.46496 
L 207.784825 127.863484 
L 207.904206 127.915358 
L 208.077072 126.702412 
L 208.135238 126.988457 
L 208.337815 125.602942 
L 208.407154 126.402817 
L 208.491912 126.378212 
L 208.543091 126.39794 
L 208.695917 127.445063 
L 208.759046 128.168229 
L 208.835428 127.758345 
L 209.041938 129.017243 
L 209.12004 128.673612 
L 209.184214 129.12517 
L 209.253236 128.984291 
L 209.408817 128.156171 
L 209.46068 129.281378 
L 209.55327 129.113696 
L 209.683343 129.599006 
L 209.751126 129.7618 
L 209.871446 129.550478 
L 209.957165 130.528906 
L 210.043273 130.425733 
L 210.112035 130.024888 
L 210.165048 129.009833 
L 210.39313 130.866108 
L 210.462372 130.347794 
L 210.525022 130.539778 
L 210.611721 130.321553 
L 210.671205 129.419823 
L 210.939932 131.599725 
L 211.112114 128.549408 
L 211.163464 128.946238 
L 211.593345 126.23449 
L 211.68224 126.773875 
L 211.885659 128.261954 
L 212.026247 130.246382 
L 212.094357 130.232116 
L 212.317629 131.056941 
L 212.454652 129.870586 
L 212.523485 130.597923 
L 212.731029 127.799673 
L 212.907489 129.057733 
L 213.340374 126.747632 
L 213.438627 127.507629 
L 213.510188 127.469498 
L 213.648287 125.849218 
L 213.715981 126.120008 
L 213.939436 124.81702 
L 214.008322 125.097651 
L 214.07702 125.335724 
L 214.197108 125.067038 
L 214.23102 124.402768 
L 214.436939 125.920003 
L 214.592989 125.171809 
L 214.643493 126.295364 
L 214.731085 126.020502 
L 214.798741 125.35053 
L 214.970957 125.947837 
L 215.073679 125.440752 
L 215.141754 125.36158 
L 215.452454 129.198606 
L 215.563253 129.226355 
L 215.605926 129.041598 
L 215.851563 131.514414 
L 216.190085 129.833537 
L 216.244568 130.137034 
L 216.363274 131.128041 
L 216.415664 130.768224 
L 216.521462 131.104657 
L 216.741358 128.84415 
L 216.777829 131.093379 
L 216.897976 131.025115 
L 216.920959 131.33384 
L 217.141454 129.145488 
L 217.276405 129.980759 
L 217.344153 129.754098 
L 217.414142 130.311633 
L 217.519562 129.737653 
L 217.646992 127.700332 
L 217.773437 128.699408 
L 217.84406 128.636996 
L 217.978833 126.936755 
L 218.063011 128.167355 
L 218.131825 127.917896 
L 218.20323 127.736478 
L 218.287231 128.902051 
L 218.40825 129.502997 
L 218.474902 129.277856 
L 218.562587 128.271853 
L 218.633131 128.224851 
L 218.698616 129.423387 
L 218.784114 128.836095 
L 218.922278 129.720703 
L 219.025201 129.252576 
L 219.265817 131.544791 
L 219.404431 131.669795 
L 219.649064 130.186933 
L 219.696208 129.957768 
L 219.764459 128.635236 
L 219.868305 128.794018 
L 219.973467 127.15773 
L 220.07421 128.008722 
L 220.162438 127.214581 
L 220.194225 127.805782 
L 220.297584 127.333387 
L 220.351377 126.448093 
L 220.403995 126.721555 
L 220.593405 125.660559 
L 220.610678 126.096373 
L 220.668169 126.919239 
L 220.698756 126.321197 
L 220.781797 126.205724 
L 220.833441 125.928233 
L 221.194102 127.757768 
L 221.263283 129.221394 
L 221.331721 128.834122 
L 221.402219 129.235336 
L 221.475711 127.743716 
L 221.538911 128.068792 
L 221.692331 127.698977 
L 221.898256 129.232216 
L 222.053013 129.757463 
L 222.106775 129.669049 
L 222.208947 131.370095 
L 222.421946 130.330322 
L 222.475426 129.302925 
L 222.549947 130.13917 
L 222.559509 129.793776 
L 222.800795 127.307187 
L 222.835046 128.017131 
L 222.90352 126.787675 
L 222.955572 127.684586 
L 223.02615 128.699381 
L 223.099233 128.164029 
L 223.178317 129.231072 
L 223.255648 128.846295 
L 223.315322 129.070239 
L 223.409253 129.884483 
L 223.453149 129.795405 
L 223.545113 130.063641 
L 223.661557 130.821015 
L 223.676526 130.529538 
L 223.744692 130.239211 
L 223.815875 130.507967 
L 224.02299 130.043326 
L 224.090603 130.531722 
L 224.226018 130.528799 
L 224.382879 128.312388 
L 224.520309 128.703435 
L 224.606156 128.222387 
L 224.663005 128.820754 
L 224.677812 128.734885 
L 224.797285 127.111309 
L 224.812232 127.836696 
L 224.925848 127.841215 
L 224.951366 127.153807 
L 225.123783 129.512724 
L 225.213666 128.550992 
L 225.245046 127.896661 
L 225.692671 129.911367 
L 225.742237 129.621231 
L 225.981897 130.602474 
L 226.033522 130.141195 
L 226.205554 131.222129 
L 226.239345 130.842535 
L 226.292929 130.762444 
L 226.361793 131.082431 
L 226.445921 132.546748 
L 226.840954 129.729726 
L 226.984945 128.303679 
L 227.150533 125.901927 
L 227.220338 126.505785 
L 227.78589 130.241437 
L 227.872727 130.235437 
L 228.049445 128.589807 
L 228.078536 129.763437 
L 228.164129 129.375097 
L 228.286682 127.485539 
L 228.576051 129.763338 
L 228.645617 129.452283 
L 228.731137 129.849075 
L 228.783785 129.718142 
L 228.850421 128.629846 
L 228.960858 129.705309 
L 229.065369 129.19849 
L 229.088614 128.237244 
L 229.146244 128.768675 
L 229.283811 127.759702 
L 229.354136 129.048834 
L 229.422681 128.940315 
L 229.492112 128.340489 
L 229.603184 129.534149 
L 229.634718 128.928853 
L 229.784185 129.150768 
L 229.852483 128.292527 
L 229.991733 129.048197 
L 230.060774 127.753595 
L 230.14612 128.475696 
L 230.334837 127.93955 
L 230.511736 128.962987 
L 230.595183 129.086859 
L 230.835757 127.420437 
L 230.919795 128.261083 
L 230.988046 128.140494 
L 231.073462 127.878697 
L 231.149551 128.25405 
L 231.195126 126.869829 
L 231.266621 127.319489 
L 231.350487 127.623394 
L 231.418604 127.192265 
L 231.50452 127.540673 
L 231.623535 129.081138 
L 232.213818 133.097514 
L 232.573531 129.166851 
L 232.657044 130.15272 
L 232.692001 129.962632 
L 232.966329 125.585911 
L 233.102971 126.871191 
L 233.154897 126.569807 
L 233.338573 125.267294 
L 233.481663 126.762213 
L 233.687499 129.788222 
L 233.756973 129.083695 
L 233.826714 130.792728 
L 233.910785 130.785885 
L 233.99744 130.519512 
L 234.049924 131.725441 
L 234.102197 130.111781 
L 234.117943 130.871376 
L 234.25508 131.270163 
L 234.41509 130.422832 
L 234.550826 130.956736 
L 234.565706 129.596386 
L 234.620992 130.001415 
L 234.673351 130.733413 
L 234.754958 128.768852 
L 234.824222 129.439101 
L 235.005549 128.457684 
L 235.124006 129.513091 
L 235.17696 129.021962 
L 235.245404 129.121212 
L 235.313071 128.914589 
L 235.400909 128.139821 
L 235.467856 128.839187 
L 235.612816 128.512853 
L 235.679997 128.683009 
L 235.797471 127.634194 
L 235.880015 129.316412 
L 235.983414 129.393184 
L 236.156433 128.338798 
L 236.190867 128.237796 
L 236.24292 129.012818 
L 236.381921 127.943588 
L 236.499832 127.910647 
L 236.637286 125.672857 
L 236.739931 125.541981 
L 236.809455 126.196168 
L 236.878067 127.387395 
L 236.949869 126.572978 
L 237.045601 127.31209 
L 237.170344 126.479546 
L 237.240807 126.842386 
L 237.449792 128.390501 
L 237.600502 126.718892 
L 237.879353 130.462225 
L 238.029938 129.390233 
L 238.236534 131.975437 
L 238.304623 131.596023 
L 238.515108 130.322312 
L 238.598973 130.438857 
L 238.66599 130.413274 
L 239.095676 127.827951 
L 239.111426 128.045783 
L 239.16397 128.671391 
L 239.215094 128.606769 
L 239.456004 128.190525 
L 239.507328 128.32565 
L 239.57608 127.816167 
L 239.730401 128.294821 
L 240.005258 126.289506 
L 240.09132 126.091738 
L 240.14253 126.297191 
L 240.267774 126.233419 
L 240.366861 126.973653 
L 240.622516 128.230901 
L 240.641685 127.961992 
L 240.710375 128.222878 
L 240.795279 129.637727 
L 240.863247 129.331336 
L 240.933662 129.149582 
L 241.074093 130.226818 
L 241.31394 129.315239 
L 241.451621 129.941241 
L 241.502751 128.936583 
L 241.727541 130.866968 
L 241.812641 129.830398 
L 241.849435 130.704408 
L 241.93426 130.986264 
L 242.620857 128.017399 
L 242.918845 129.903952 
L 242.98455 130.09214 
L 243.067763 129.409004 
L 243.136522 129.566089 
L 243.275294 130.371503 
L 243.344255 130.225944 
L 243.549017 129.030018 
L 243.65063 129.282922 
L 243.775837 130.101429 
L 243.890877 130.278899 
L 244.04526 127.104128 
L 244.113622 126.826738 
L 244.285314 129.212962 
L 244.337386 129.67572 
L 244.567056 128.532668 
L 244.766994 131.820062 
L 245.112696 129.39783 
L 245.196595 130.040604 
L 245.265215 130.057243 
L 245.334198 130.455127 
L 245.711431 128.019968 
L 245.798625 128.92593 
L 245.831597 128.470828 
L 245.930372 127.71908 
L 245.97041 127.909272 
L 246.043506 128.245926 
L 246.188754 126.468559 
L 246.262337 128.171002 
L 246.330131 127.667619 
L 246.404832 127.943661 
L 246.465775 127.998124 
L 246.552225 129.357809 
L 246.604025 128.836211 
L 246.774894 127.242288 
L 246.930478 130.592293 
L 246.967021 128.545552 
L 247.153934 129.906023 
L 247.187247 129.223679 
L 247.256881 129.47749 
L 247.393638 130.602222 
L 247.46285 130.534747 
L 247.537009 130.504956 
L 247.602188 129.730455 
L 247.668299 129.996751 
L 247.75625 130.196592 
L 248.030271 127.891769 
L 248.098484 127.627279 
L 248.182987 128.167614 
L 248.38931 126.779011 
L 248.458213 126.010021 
L 248.601938 127.81183 
L 248.664783 127.635771 
L 248.753058 127.548495 
L 248.88868 128.018078 
L 249.093637 128.716164 
L 249.300657 127.732531 
L 249.522667 128.825418 
L 249.661956 128.480592 
L 249.883996 129.428842 
L 249.954203 128.814533 
L 250.023463 129.134781 
L 250.159192 130.265639 
L 250.298416 128.590751 
L 250.366445 129.445942 
L 250.591991 128.163276 
L 250.72775 130.079971 
L 250.816535 129.210859 
L 250.899635 129.399549 
L 251.004357 130.908449 
L 251.088002 130.346294 
L 251.175073 130.917746 
L 251.226973 132.242318 
L 251.328972 131.928646 
L 251.436699 130.239868 
L 251.518704 130.660832 
L 251.7246 129.474308 
L 251.792884 130.340527 
L 251.873692 130.014421 
L 251.879904 127.62923 
L 251.947674 129.682011 
L 252.124372 128.812947 
L 252.189342 128.843377 
L 252.359487 128.56431 
L 252.445165 129.809701 
L 252.497658 129.495895 
L 252.652242 128.654811 
L 252.806685 129.541642 
L 252.928152 127.861523 
L 253.046659 128.208661 
L 253.286893 125.893438 
L 253.339783 126.800527 
L 253.373279 126.148141 
L 253.494505 125.653155 
L 253.664952 127.33378 
L 253.716857 126.951503 
L 253.857237 128.20195 
L 253.992798 128.019487 
L 254.063141 128.243004 
L 254.146444 129.319187 
L 254.284191 129.147186 
L 254.342028 129.994507 
L 254.374502 129.050159 
L 254.42255 129.402809 
L 254.543952 128.616956 
L 254.577244 128.686968 
L 254.652512 129.014101 
L 254.784543 127.828635 
L 254.876856 127.302956 
L 254.938189 128.218038 
L 255.02602 128.114259 
L 255.058606 128.306815 
L 255.711872 126.01031 
L 255.849597 127.898377 
L 255.93562 128.085459 
L 256.05562 130.500209 
L 256.278766 132.753292 
L 256.399762 132.646354 
L 256.55375 130.067781 
L 256.572129 130.248856 
L 256.639897 130.719609 
L 256.845589 128.575495 
L 256.914418 128.77072 
L 256.994085 128.51073 
L 257.068764 127.266435 
L 257.086934 127.520687 
L 257.208552 130.463687 
L 257.259788 130.03162 
L 257.344208 128.549692 
L 257.412861 129.145477 
L 257.636671 127.733613 
L 257.688493 128.258582 
L 257.997864 125.360946 
L 258.049116 126.870406 
L 258.117894 126.041835 
L 258.351277 129.540068 
L 258.432966 128.906894 
L 258.687187 130.647806 
L 258.773717 129.622892 
L 258.87583 130.465069 
L 258.978816 128.721508 
L 259.048177 127.257573 
L 259.136458 127.265938 
L 259.257189 126.244507 
L 259.324139 126.611795 
L 259.547326 125.384713 
L 259.753287 128.983577 
L 259.892485 129.51193 
L 260.132921 127.144381 
L 260.251958 128.45425 
L 260.457581 126.910008 
L 260.527235 127.751745 
L 260.594963 127.286445 
L 260.746733 127.294798 
L 260.953511 129.829916 
L 261.10707 128.502938 
L 261.382243 130.629035 
L 261.449568 132.111579 
L 261.518461 131.759474 
L 261.672618 131.16272 
L 261.741301 131.295464 
L 261.881355 131.981547 
L 262.157438 129.011609 
L 262.240556 128.986742 
L 262.376885 128.211706 
L 262.447466 128.91483 
L 262.514506 128.676155 
L 262.654504 127.120688 
L 262.738064 127.13696 
L 262.875833 127.68898 
L 263.083986 126.805922 
L 263.157536 126.932217 
L 263.259567 126.82029 
L 263.442391 128.739794 
L 263.511136 127.903793 
L 263.580042 128.257005 
L 263.8205 129.727218 
L 263.872475 129.3942 
L 263.941144 129.505816 
L 264.045635 129.918083 
L 264.150504 128.046314 
L 264.23273 128.63069 
L 264.473763 126.24236 
L 264.524767 126.922108 
L 264.611664 126.92718 
L 264.662332 128.491834 
L 264.731179 128.413857 
L 264.8526 128.529033 
L 265.023655 128.291294 
L 265.17222 130.106087 
L 265.212569 129.973574 
L 265.306982 129.982925 
L 265.410752 129.05488 
L 265.530579 130.197475 
L 265.788071 132.358908 
L 265.856434 132.849921 
L 266.149364 129.087992 
L 266.217455 129.758759 
L 266.303025 129.55276 
L 266.354973 129.413799 
L 266.57778 127.62613 
L 266.749296 129.015899 
L 266.887124 130.230448 
L 266.938658 129.328551 
L 267.076603 129.964386 
L 267.145366 129.490123 
L 267.215 129.800695 
L 267.420014 129.368299 
L 267.57456 127.46402 
L 267.644174 128.298736 
L 267.848642 125.606635 
L 267.924764 126.296799 
L 267.994774 125.934845 
L 268.098357 126.837849 
L 268.134292 126.329311 
L 268.204916 126.773445 
L 268.27502 126.533268 
L 268.355177 125.790765 
L 268.561896 127.356908 
L 268.666383 127.02639 
L 268.73747 127.200949 
L 268.785874 126.464003 
L 268.837169 126.648603 
L 269.167362 129.400419 
L 269.198406 128.757018 
L 269.266817 130.108746 
L 269.422036 129.783358 
L 269.491774 130.447672 
L 269.560498 132.172739 
L 269.783894 131.0992 
L 269.842112 129.412439 
L 269.905591 130.495233 
L 269.973365 129.52799 
L 270.094083 130.078489 
L 270.294108 128.733246 
L 270.609683 130.016916 
L 270.626802 129.784392 
L 270.903177 132.206034 
L 270.97283 131.800985 
L 271.057511 132.024537 
L 271.255392 131.585429 
L 271.504249 129.831246 
L 271.55646 130.261263 
L 271.696516 128.536897 
L 271.762793 128.716768 
L 272.065478 131.231804 
L 272.265507 130.214733 
L 272.403362 130.379753 
L 272.555417 128.991298 
L 272.675613 128.641032 
L 272.74934 127.687754 
L 272.848461 127.869617 
L 272.898995 127.805203 
L 272.985828 128.379369 
L 273.12273 127.963117 
L 273.175879 128.781956 
L 273.29723 128.500101 
L 273.33055 128.673258 
L 273.420181 128.842172 
L 273.604022 130.400949 
L 273.676822 130.377755 
L 273.758728 130.155544 
L 273.968 131.122369 
L 274.051352 131.002504 
L 274.154129 131.269622 
L 274.240109 129.394789 
L 274.312484 130.122843 
L 274.37904 129.464535 
L 274.463646 130.906211 
L 274.621987 129.03582 
L 274.671405 129.140869 
L 274.825654 126.936106 
L 274.876736 127.405285 
L 274.979935 127.655902 
L 275.04834 126.446046 
L 275.103433 126.988794 
L 275.187238 127.130363 
L 275.260038 128.52123 
L 275.443673 127.024852 
L 275.61498 129.270653 
L 275.909529 130.620011 
L 275.998506 128.992914 
L 276.079576 129.418357 
L 276.182132 129.169073 
L 276.233366 129.88861 
L 276.303059 128.849812 
L 276.39631 129.073064 
L 276.445715 129.497674 
L 276.513391 128.553836 
L 276.870601 131.056849 
L 276.955824 129.58385 
L 277.095883 130.392221 
L 277.162179 129.346188 
L 277.230584 129.718531 
L 277.339622 129.654277 
L 277.370573 128.830548 
L 277.437353 128.86025 
L 277.505589 128.802083 
L 277.797532 126.164031 
L 277.935196 127.240832 
L 278.006728 126.420296 
L 278.230222 128.83737 
L 278.420721 128.022513 
L 278.433592 128.108362 
L 278.588546 130.911713 
L 278.725438 131.271585 
L 278.811447 130.497454 
L 278.934157 127.576071 
L 279.068636 127.955147 
L 279.155038 129.650514 
L 279.524285 125.359065 
L 279.607829 125.486185 
L 279.711944 124.670913 
L 279.849073 122.931923 
L 279.985125 123.524286 
L 280.209663 126.619262 
L 280.262848 126.184987 
L 280.542206 130.601813 
L 280.794295 128.316113 
L 280.948677 129.57202 
L 281.058119 129.18459 
L 281.194711 127.167633 
L 281.383303 128.774767 
L 281.85938 132.293866 
L 281.919858 132.090041 
L 282.090708 131.491938 
L 282.226878 129.503858 
L 282.22701 126.205495 
L 282.284904 128.285887 
L 282.34734 128.460975 
L 282.433073 128.331893 
L 282.502158 128.58349 
L 282.708796 126.852218 
L 282.819788 126.569541 
L 282.917926 127.956022 
L 283.035648 127.896546 
L 283.259468 126.878079 
L 283.295446 127.438191 
L 283.368745 127.273912 
L 283.631233 128.564072 
L 283.740628 128.171612 
L 283.912363 129.143449 
L 284.187452 128.445424 
L 284.340163 126.838667 
L 284.418865 127.348652 
L 284.47861 127.081503 
L 284.644363 126.279784 
L 284.758327 124.874656 
L 284.839987 125.075962 
L 284.947579 125.956137 
L 285.011727 125.708777 
L 285.185883 125.167567 
L 285.440671 125.654739 
L 285.612011 123.90507 
L 285.80107 125.617476 
L 285.818573 125.196795 
L 285.889721 125.510572 
L 286.064329 125.769361 
L 286.317658 128.780519 
L 286.489451 127.599117 
L 286.781249 129.322418 
L 287.042902 127.788526 
L 287.168454 129.863209 
L 287.261699 130.140842 
L 287.313684 129.577823 
L 287.4684 129.764591 
L 287.639576 130.675919 
L 287.674647 130.609112 
L 287.742942 131.864439 
L 287.811137 131.113746 
L 287.966624 131.914775 
L 288.026311 132.108452 
L 288.17262 130.82212 
L 288.309842 131.474187 
L 288.724895 125.715843 
L 288.80528 125.854417 
L 288.963045 127.416988 
L 289.075285 126.890322 
L 289.238248 129.462798 
L 289.324017 129.817487 
L 289.444611 132.109422 
L 289.548232 131.881364 
L 289.719933 130.439905 
L 289.806258 130.885763 
L 289.909025 130.777572 
L 289.979205 131.137988 
L 290.015561 130.965265 
L 290.235386 129.67321 
L 290.323156 129.641511 
L 290.389586 129.428037 
L 290.510303 129.694147 
L 290.717 127.60124 
L 290.819581 128.638153 
L 290.870849 127.690331 
L 290.958478 128.570232 
L 291.008155 128.388398 
L 291.094409 128.391579 
L 291.148144 129.089322 
L 291.231395 128.266507 
L 291.304805 128.842357 
L 291.405019 128.725514 
L 291.471963 129.408802 
L 291.540657 128.37876 
L 291.609665 128.694877 
L 291.661164 128.389397 
L 291.729793 128.740653 
L 291.79702 128.221798 
L 291.88478 128.584595 
L 292.004679 130.258148 
L 292.130608 130.141586 
L 292.213508 129.531072 
L 292.365654 130.493896 
L 292.580801 129.025526 
L 292.709026 127.868725 
L 292.794478 128.297973 
L 292.881348 128.856107 
L 292.932407 130.641368 
L 293.090387 129.110247 
L 293.139567 129.3434 
L 293.207131 129.253138 
L 293.465398 127.791651 
L 293.654479 125.944791 
L 293.705647 126.057319 
L 294.419467 130.446368 
L 294.575603 130.947366 
L 294.662852 130.613784 
L 294.703257 129.758436 
L 294.989567 131.525973 
L 295.196174 130.723616 
L 295.264041 130.970261 
L 295.349343 132.120326 
L 295.402913 131.998744 
L 295.692866 129.878165 
L 295.761719 130.204009 
L 295.984138 128.943198 
L 296.055077 128.835925 
L 296.193508 128.961553 
L 296.33325 127.107072 
L 296.415775 127.510301 
L 296.484155 127.246028 
L 296.552174 127.994403 
L 296.620702 126.957498 
L 296.690687 127.249681 
L 296.775772 126.241516 
L 296.827225 127.055956 
L 296.898398 127.020613 
L 297.051004 128.35784 
L 297.123396 127.186576 
L 297.283711 127.456944 
L 297.292293 127.402831 
L 297.32697 127.920604 
L 297.420514 127.700828 
L 297.48281 127.579184 
L 297.826154 129.69542 
L 297.895118 128.988173 
L 297.963375 129.335714 
L 298.107499 128.798925 
L 298.244545 129.369742 
L 298.393425 128.576462 
L 298.462355 128.927231 
L 298.479453 129.697096 
L 298.531878 128.587419 
L 298.683175 130.28262 
L 298.824029 131.775237 
L 298.892694 131.232212 
L 298.978734 131.165024 
L 299.098414 130.753792 
L 299.321765 130.771082 
L 299.459769 130.513273 
L 299.579352 129.836556 
L 299.840539 132.887011 
L 299.940943 132.128364 
L 300.026066 132.598018 
L 300.111696 130.681741 
L 300.24895 131.613293 
L 300.30346 130.848921 
L 300.389375 131.159304 
L 300.525149 128.920735 
L 300.611333 129.323874 
L 300.80018 128.976175 
L 300.86693 127.339763 
L 300.953445 127.477857 
L 301.02242 127.961008 
L 301.091834 126.769739 
L 301.210287 126.821668 
L 301.2453 127.6393 
L 301.330422 127.576048 
L 301.38552 127.81452 
L 301.434517 128.660565 
L 301.548191 128.402427 
L 301.588866 129.020603 
L 301.761755 127.766304 
L 301.831189 128.052 
L 301.967663 128.008015 
L 302.073102 128.331874 
L 302.206894 127.628428 
L 302.379285 129.341176 
L 302.451831 129.998707 
L 302.516915 129.939092 
L 302.585523 130.088818 
L 302.691851 129.096316 
L 302.863576 130.420646 
L 303.021752 129.015327 
L 303.156193 129.715528 
L 303.256445 129.297336 
L 303.409703 130.563268 
L 303.44948 129.94792 
L 303.522003 130.668244 
L 303.582142 129.955868 
L 303.684811 130.492573 
L 303.71888 131.282023 
L 303.788578 130.437714 
L 303.943764 129.223085 
L 304.012997 130.476878 
L 304.115087 128.522545 
L 304.16601 129.349776 
L 304.355357 127.387962 
L 304.563064 129.23367 
L 304.648976 128.260418 
L 304.718174 128.599338 
L 304.78383 128.985808 
L 304.921777 127.950026 
L 305.007064 128.064362 
L 305.063635 129.01563 
L 305.214053 128.325221 
L 305.302237 128.235335 
L 305.523611 129.593711 
L 305.772253 128.085787 
L 305.941372 127.084252 
L 306.082633 127.219024 
L 306.206825 125.346017 
L 306.333058 125.589913 
L 306.349366 127.596076 
L 306.43572 126.795481 
L 306.489206 127.566513 
L 306.572019 127.395996 
L 306.675129 127.319558 
L 306.743961 127.086955 
L 306.988455 128.955231 
L 307.087624 128.521753 
L 307.345388 130.060531 
L 307.465211 129.111214 
L 307.501666 129.156882 
L 307.556727 129.286045 
L 307.791781 127.064864 
L 307.843865 127.795464 
L 307.912861 127.296386 
L 308.136544 125.713124 
L 308.29646 126.084584 
L 308.48045 127.900003 
L 308.618729 126.701352 
L 308.704336 128.011092 
L 308.756341 127.606347 
L 308.91084 128.068464 
L 309.253114 124.279384 
L 309.358876 126.082624 
L 309.410335 125.755703 
L 309.549072 126.675772 
L 309.620089 126.555337 
L 309.760128 127.848445 
L 309.825548 129.27618 
L 309.9114 129.10614 
L 310.169268 127.335806 
L 310.257958 127.495409 
L 310.291251 127.23493 
L 310.394298 125.818258 
L 310.494877 126.225992 
L 310.548444 124.934231 
L 310.757837 127.015116 
L 310.839892 127.546445 
L 310.943552 126.325053 
L 310.99006 126.746111 
L 311.103412 127.870372 
L 311.182941 127.161987 
L 311.251628 127.471181 
L 311.326862 127.53011 
L 311.527262 125.337306 
L 311.612535 125.02296 
L 311.832207 125.99835 
L 311.844457 125.954686 
L 312.10659 128.118621 
L 312.188236 127.988428 
L 312.34453 129.230408 
L 312.397621 128.121828 
L 312.492999 128.245948 
L 312.739316 125.484489 
L 312.962446 127.061704 
L 313.030854 127.758415 
L 313.168857 126.8943 
L 313.236964 127.249948 
L 313.341011 126.986278 
L 313.391964 128.365608 
L 313.447389 128.247418 
L 313.597534 126.56773 
L 313.666048 126.880251 
L 313.775958 126.374573 
L 313.908427 128.424148 
L 314.097356 126.622207 
L 314.200469 126.841621 
L 314.262444 128.53118 
L 314.319409 128.466082 
L 314.389413 127.481608 
L 314.461865 128.681726 
L 314.682036 127.571474 
L 314.75171 127.11262 
L 314.991625 127.64421 
L 315.02536 126.849968 
L 315.081639 127.80003 
L 315.128931 127.567105 
L 315.162972 126.560778 
L 315.257341 127.444575 
L 315.303952 127.011297 
L 315.439591 127.395101 
L 315.560393 128.270262 
L 315.651711 128.118547 
L 315.783931 128.333412 
L 315.818403 127.899774 
L 315.990982 128.910997 
L 316.161648 126.946449 
L 316.233016 127.650231 
L 316.402792 126.97869 
L 316.454157 128.149737 
L 316.524589 126.814876 
L 316.573974 126.861054 
L 316.810273 129.399818 
L 316.888944 128.879627 
L 316.955316 129.556697 
L 317.2974 127.260843 
L 317.486346 124.838328 
L 317.502813 125.514334 
" clip-path="url(#p22b789aa00)" style="fill: none; stroke: #ff0000; stroke-opacity: 0.5; stroke-width: 3; stroke-linecap: square"/>
   </g>
   <g id="patch_3">
    <path d="M 38.502813 139.32 
L 38.502813 0.72 
" style="fill: none; stroke: #000000; stroke-width: 0.8; stroke-linejoin: miter; stroke-linecap: square"/>
   </g>
   <g id="patch_4">
    <path d="M 317.502813 139.32 
L 317.502813 0.72 
" style="fill: none; stroke: #000000; stroke-width: 0.8; stroke-linejoin: miter; stroke-linecap: square"/>
   </g>
   <g id="patch_5">
    <path d="M 38.502813 139.32 
L 317.502813 139.32 
" style="fill: none; stroke: #000000; stroke-width: 0.8; stroke-linejoin: miter; stroke-linecap: square"/>
   </g>
   <g id="patch_6">
    <path d="M 38.502813 0.72 
L 317.502813 0.72 
" style="fill: none; stroke: #000000; stroke-width: 0.8; stroke-linejoin: miter; stroke-linecap: square"/>
   </g>
   <g id="legend_1">
    <g id="patch_7">
     <path d="M 236.734062 86.198125 
L 310.502813 86.198125 
Q 312.502813 86.198125 312.502813 84.198125 
L 312.502813 55.841875 
Q 312.502813 53.841875 310.502813 53.841875 
L 236.734062 53.841875 
Q 234.734062 53.841875 234.734062 55.841875 
L 234.734062 84.198125 
Q 234.734062 86.198125 236.734062 86.198125 
z
" style="fill: #ffffff; opacity: 0.8; stroke: #cccccc; stroke-linejoin: miter"/>
    </g>
    <g id="line2d_25">
     <path d="M 238.734062 61.940312 
L 248.734062 61.940312 
L 258.734062 61.940312 
" style="fill: none; stroke: #0000ff; stroke-opacity: 0.5; stroke-width: 3; stroke-linecap: square"/>
    </g>
    <g id="text_14">
     <!-- RNEA -->
     <g transform="translate(266.734062 65.440312) scale(0.1 -0.1)">
      <defs>
       <path id="DejaVuSans-52" d="M 2841 2188 
Q 3044 2119 3236 1894 
Q 3428 1669 3622 1275 
L 4263 0 
L 3584 0 
L 2988 1197 
Q 2756 1666 2539 1819 
Q 2322 1972 1947 1972 
L 1259 1972 
L 1259 0 
L 628 0 
L 628 4666 
L 2053 4666 
Q 2853 4666 3247 4331 
Q 3641 3997 3641 3322 
Q 3641 2881 3436 2590 
Q 3231 2300 2841 2188 
z
M 1259 4147 
L 1259 2491 
L 2053 2491 
Q 2509 2491 2742 2702 
Q 2975 2913 2975 3322 
Q 2975 3731 2742 3939 
Q 2509 4147 2053 4147 
L 1259 4147 
z
" transform="scale(0.015625)"/>
       <path id="DejaVuSans-45" d="M 628 4666 
L 3578 4666 
L 3578 4134 
L 1259 4134 
L 1259 2753 
L 3481 2753 
L 3481 2222 
L 1259 2222 
L 1259 531 
L 3634 531 
L 3634 0 
L 628 0 
L 628 4666 
z
" transform="scale(0.015625)"/>
       <path id="DejaVuSans-41" d="M 2188 4044 
L 1331 1722 
L 3047 1722 
L 2188 4044 
z
M 1831 4666 
L 2547 4666 
L 4325 0 
L 3669 0 
L 3244 1197 
L 1141 1197 
L 716 0 
L 50 0 
L 1831 4666 
z
" transform="scale(0.015625)"/>
      </defs>
      <use xlink:href="#DejaVuSans-52"/>
      <use xlink:href="#DejaVuSans-4e" x="69.482422"/>
      <use xlink:href="#DejaVuSans-45" x="144.287109"/>
      <use xlink:href="#DejaVuSans-41" x="207.470703"/>
     </g>
    </g>
    <g id="line2d_26">
     <path d="M 238.734062 76.618437 
L 248.734062 76.618437 
L 258.734062 76.618437 
" style="fill: none; stroke: #ff0000; stroke-opacity: 0.5; stroke-width: 3; stroke-linecap: square"/>
    </g>
    <g id="text_15">
     <!-- BURNEA -->
     <g transform="translate(266.734062 80.118437) scale(0.1 -0.1)">
      <defs>
       <path id="DejaVuSans-42" d="M 1259 2228 
L 1259 519 
L 2272 519 
Q 2781 519 3026 730 
Q 3272 941 3272 1375 
Q 3272 1813 3026 2020 
Q 2781 2228 2272 2228 
L 1259 2228 
z
M 1259 4147 
L 1259 2741 
L 2194 2741 
Q 2656 2741 2882 2914 
Q 3109 3088 3109 3444 
Q 3109 3797 2882 3972 
Q 2656 4147 2194 4147 
L 1259 4147 
z
M 628 4666 
L 2241 4666 
Q 2963 4666 3353 4366 
Q 3744 4066 3744 3513 
Q 3744 3084 3544 2831 
Q 3344 2578 2956 2516 
Q 3422 2416 3680 2098 
Q 3938 1781 3938 1306 
Q 3938 681 3513 340 
Q 3088 0 2303 0 
L 628 0 
L 628 4666 
z
" transform="scale(0.015625)"/>
       <path id="DejaVuSans-55" d="M 556 4666 
L 1191 4666 
L 1191 1831 
Q 1191 1081 1462 751 
Q 1734 422 2344 422 
Q 2950 422 3222 751 
Q 3494 1081 3494 1831 
L 3494 4666 
L 4128 4666 
L 4128 1753 
Q 4128 841 3676 375 
Q 3225 -91 2344 -91 
Q 1459 -91 1007 375 
Q 556 841 556 1753 
L 556 4666 
z
" transform="scale(0.015625)"/>
      </defs>
      <use xlink:href="#DejaVuSans-42"/>
      <use xlink:href="#DejaVuSans-55" x="68.603516"/>
      <use xlink:href="#DejaVuSans-52" x="141.796875"/>
      <use xlink:href="#DejaVuSans-4e" x="211.279297"/>
      <use xlink:href="#DejaVuSans-45" x="286.083984"/>
      <use xlink:href="#DejaVuSans-41" x="349.267578"/>
     </g>
    </g>
   </g>
  </g>
 </g>
 <defs>
  <clipPath id="p22b789aa00">
   <rect x="38.502813" y="0.72" width="279" height="138.6"/>
  </clipPath>
 </defs>
</svg>
