<?xml version="1.0" encoding="utf-8" standalone="no"?>
<!DOCTYPE svg PUBLIC "-//W3C//DTD SVG 1.1//EN"
  "http://www.w3.org/Graphics/SVG/1.1/DTD/svg11.dtd">
<svg xmlns:xlink="http://www.w3.org/1999/xlink" width="303.480625pt" height="166.39625pt" viewBox="0 0 303.480625 166.39625" xmlns="http://www.w3.org/2000/svg" version="1.1">
 <metadata>
  <rdf:RDF xmlns:dc="http://purl.org/dc/elements/1.1/" xmlns:cc="http://creativecommons.org/ns#" xmlns:rdf="http://www.w3.org/1999/02/22-rdf-syntax-ns#">
   <cc:Work>
    <dc:type rdf:resource="http://purl.org/dc/dcmitype/StillImage"/>
    <dc:date>2023-09-07T03:31:09.108162</dc:date>
    <dc:format>image/svg+xml</dc:format>
    <dc:creator>
     <cc:Agent>
      <dc:title>Matplotlib v3.7.2, https://matplotlib.org/</dc:title>
     </cc:Agent>
    </dc:creator>
   </cc:Work>
  </rdf:RDF>
 </metadata>
 <defs>
  <style type="text/css">*{stroke-linejoin: round; stroke-linecap: butt}</style>
 </defs>
 <g id="figure_1">
  <g id="patch_1">
   <path d="M 0 166.39625 
L 303.480625 166.39625 
L 303.480625 0 
L 0 0 
L 0 166.39625 
z
" style="fill: none"/>
  </g>
  <g id="axes_1">
   <g id="patch_2">
    <path d="M 23.760625 139.32 
L 302.760625 139.32 
L 302.760625 0.72 
L 23.760625 0.72 
L 23.760625 139.32 
z
" style="fill: none"/>
   </g>
   <g id="matplotlib.axis_1">
    <g id="xtick_1">
     <g id="line2d_1">
      <path d="M 23.760625 139.32 
L 23.760625 0.72 
" clip-path="url(#p7c22913b2c)" style="fill: none; stroke-dasharray: 0.8,1.32; stroke-dashoffset: 0; stroke: #000000; stroke-opacity: 0.5; stroke-width: 0.8"/>
     </g>
     <g id="line2d_2">
      <defs>
       <path id="m6aff9c007f" d="M 0 0 
L 0 3.5 
" style="stroke: #000000; stroke-width: 0.8"/>
      </defs>
      <g>
       <use xlink:href="#m6aff9c007f" x="23.760625" y="139.32" style="stroke: #000000; stroke-width: 0.8"/>
      </g>
     </g>
     <g id="text_1">
      <!-- 0 -->
      <g transform="translate(20.579375 153.918437) scale(0.1 -0.1)">
       <defs>
        <path id="DejaVuSans-30" d="M 2034 4250 
Q 1547 4250 1301 3770 
Q 1056 3291 1056 2328 
Q 1056 1369 1301 889 
Q 1547 409 2034 409 
Q 2525 409 2770 889 
Q 3016 1369 3016 2328 
Q 3016 3291 2770 3770 
Q 2525 4250 2034 4250 
z
M 2034 4750 
Q 2819 4750 3233 4129 
Q 3647 3509 3647 2328 
Q 3647 1150 3233 529 
Q 2819 -91 2034 -91 
Q 1250 -91 836 529 
Q 422 1150 422 2328 
Q 422 3509 836 4129 
Q 1250 4750 2034 4750 
z
" transform="scale(0.015625)"/>
       </defs>
       <use xlink:href="#DejaVuSans-30"/>
      </g>
     </g>
    </g>
    <g id="xtick_2">
     <g id="line2d_3">
      <path d="M 66.375526 139.32 
L 66.375526 0.72 
" clip-path="url(#p7c22913b2c)" style="fill: none; stroke-dasharray: 0.8,1.32; stroke-dashoffset: 0; stroke: #000000; stroke-opacity: 0.5; stroke-width: 0.8"/>
     </g>
     <g id="line2d_4">
      <g>
       <use xlink:href="#m6aff9c007f" x="66.375526" y="139.32" style="stroke: #000000; stroke-width: 0.8"/>
      </g>
     </g>
     <g id="text_2">
      <!-- 5 -->
      <g transform="translate(63.194276 153.918437) scale(0.1 -0.1)">
       <defs>
        <path id="DejaVuSans-35" d="M 691 4666 
L 3169 4666 
L 3169 4134 
L 1269 4134 
L 1269 2991 
Q 1406 3038 1543 3061 
Q 1681 3084 1819 3084 
Q 2600 3084 3056 2656 
Q 3513 2228 3513 1497 
Q 3513 744 3044 326 
Q 2575 -91 1722 -91 
Q 1428 -91 1123 -41 
Q 819 9 494 109 
L 494 744 
Q 775 591 1075 516 
Q 1375 441 1709 441 
Q 2250 441 2565 725 
Q 2881 1009 2881 1497 
Q 2881 1984 2565 2268 
Q 2250 2553 1709 2553 
Q 1456 2553 1204 2497 
Q 953 2441 691 2322 
L 691 4666 
z
" transform="scale(0.015625)"/>
       </defs>
       <use xlink:href="#DejaVuSans-35"/>
      </g>
     </g>
    </g>
    <g id="xtick_3">
     <g id="line2d_5">
      <path d="M 108.990426 139.32 
L 108.990426 0.72 
" clip-path="url(#p7c22913b2c)" style="fill: none; stroke-dasharray: 0.8,1.32; stroke-dashoffset: 0; stroke: #000000; stroke-opacity: 0.5; stroke-width: 0.8"/>
     </g>
     <g id="line2d_6">
      <g>
       <use xlink:href="#m6aff9c007f" x="108.990426" y="139.32" style="stroke: #000000; stroke-width: 0.8"/>
      </g>
     </g>
     <g id="text_3">
      <!-- 10 -->
      <g transform="translate(102.627926 153.918437) scale(0.1 -0.1)">
       <defs>
        <path id="DejaVuSans-31" d="M 794 531 
L 1825 531 
L 1825 4091 
L 703 3866 
L 703 4441 
L 1819 4666 
L 2450 4666 
L 2450 531 
L 3481 531 
L 3481 0 
L 794 0 
L 794 531 
z
" transform="scale(0.015625)"/>
       </defs>
       <use xlink:href="#DejaVuSans-31"/>
       <use xlink:href="#DejaVuSans-30" x="63.623047"/>
      </g>
     </g>
    </g>
    <g id="xtick_4">
     <g id="line2d_7">
      <path d="M 151.605327 139.32 
L 151.605327 0.72 
" clip-path="url(#p7c22913b2c)" style="fill: none; stroke-dasharray: 0.8,1.32; stroke-dashoffset: 0; stroke: #000000; stroke-opacity: 0.5; stroke-width: 0.8"/>
     </g>
     <g id="line2d_8">
      <g>
       <use xlink:href="#m6aff9c007f" x="151.605327" y="139.32" style="stroke: #000000; stroke-width: 0.8"/>
      </g>
     </g>
     <g id="text_4">
      <!-- 15 -->
      <g transform="translate(145.242827 153.918437) scale(0.1 -0.1)">
       <use xlink:href="#DejaVuSans-31"/>
       <use xlink:href="#DejaVuSans-35" x="63.623047"/>
      </g>
     </g>
    </g>
    <g id="xtick_5">
     <g id="line2d_9">
      <path d="M 194.220227 139.32 
L 194.220227 0.72 
" clip-path="url(#p7c22913b2c)" style="fill: none; stroke-dasharray: 0.8,1.32; stroke-dashoffset: 0; stroke: #000000; stroke-opacity: 0.5; stroke-width: 0.8"/>
     </g>
     <g id="line2d_10">
      <g>
       <use xlink:href="#m6aff9c007f" x="194.220227" y="139.32" style="stroke: #000000; stroke-width: 0.8"/>
      </g>
     </g>
     <g id="text_5">
      <!-- 20 -->
      <g transform="translate(187.857727 153.918437) scale(0.1 -0.1)">
       <defs>
        <path id="DejaVuSans-32" d="M 1228 531 
L 3431 531 
L 3431 0 
L 469 0 
L 469 531 
Q 828 903 1448 1529 
Q 2069 2156 2228 2338 
Q 2531 2678 2651 2914 
Q 2772 3150 2772 3378 
Q 2772 3750 2511 3984 
Q 2250 4219 1831 4219 
Q 1534 4219 1204 4116 
Q 875 4013 500 3803 
L 500 4441 
Q 881 4594 1212 4672 
Q 1544 4750 1819 4750 
Q 2544 4750 2975 4387 
Q 3406 4025 3406 3419 
Q 3406 3131 3298 2873 
Q 3191 2616 2906 2266 
Q 2828 2175 2409 1742 
Q 1991 1309 1228 531 
z
" transform="scale(0.015625)"/>
       </defs>
       <use xlink:href="#DejaVuSans-32"/>
       <use xlink:href="#DejaVuSans-30" x="63.623047"/>
      </g>
     </g>
    </g>
    <g id="xtick_6">
     <g id="line2d_11">
      <path d="M 236.835128 139.32 
L 236.835128 0.72 
" clip-path="url(#p7c22913b2c)" style="fill: none; stroke-dasharray: 0.8,1.32; stroke-dashoffset: 0; stroke: #000000; stroke-opacity: 0.5; stroke-width: 0.8"/>
     </g>
     <g id="line2d_12">
      <g>
       <use xlink:href="#m6aff9c007f" x="236.835128" y="139.32" style="stroke: #000000; stroke-width: 0.8"/>
      </g>
     </g>
     <g id="text_6">
      <!-- 25 -->
      <g transform="translate(230.472628 153.918437) scale(0.1 -0.1)">
       <use xlink:href="#DejaVuSans-32"/>
       <use xlink:href="#DejaVuSans-35" x="63.623047"/>
      </g>
     </g>
    </g>
    <g id="xtick_7">
     <g id="line2d_13">
      <path d="M 279.450028 139.32 
L 279.450028 0.72 
" clip-path="url(#p7c22913b2c)" style="fill: none; stroke-dasharray: 0.8,1.32; stroke-dashoffset: 0; stroke: #000000; stroke-opacity: 0.5; stroke-width: 0.8"/>
     </g>
     <g id="line2d_14">
      <g>
       <use xlink:href="#m6aff9c007f" x="279.450028" y="139.32" style="stroke: #000000; stroke-width: 0.8"/>
      </g>
     </g>
     <g id="text_7">
      <!-- 30 -->
      <g transform="translate(273.087528 153.918437) scale(0.1 -0.1)">
       <defs>
        <path id="DejaVuSans-33" d="M 2597 2516 
Q 3050 2419 3304 2112 
Q 3559 1806 3559 1356 
Q 3559 666 3084 287 
Q 2609 -91 1734 -91 
Q 1441 -91 1130 -33 
Q 819 25 488 141 
L 488 750 
Q 750 597 1062 519 
Q 1375 441 1716 441 
Q 2309 441 2620 675 
Q 2931 909 2931 1356 
Q 2931 1769 2642 2001 
Q 2353 2234 1838 2234 
L 1294 2234 
L 1294 2753 
L 1863 2753 
Q 2328 2753 2575 2939 
Q 2822 3125 2822 3475 
Q 2822 3834 2567 4026 
Q 2313 4219 1838 4219 
Q 1578 4219 1281 4162 
Q 984 4106 628 3988 
L 628 4550 
Q 988 4650 1302 4700 
Q 1616 4750 1894 4750 
Q 2613 4750 3031 4423 
Q 3450 4097 3450 3541 
Q 3450 3153 3228 2886 
Q 3006 2619 2597 2516 
z
" transform="scale(0.015625)"/>
       </defs>
       <use xlink:href="#DejaVuSans-33"/>
       <use xlink:href="#DejaVuSans-30" x="63.623047"/>
      </g>
     </g>
    </g>
    <g id="text_8">
     <!-- Zeit [s] -->
     <g transform="translate(145.314531 163.596562) scale(0.1 -0.1)">
      <defs>
       <path id="DejaVuSans-5a" d="M 359 4666 
L 4025 4666 
L 4025 4184 
L 1075 531 
L 4097 531 
L 4097 0 
L 288 0 
L 288 481 
L 3238 4134 
L 359 4134 
L 359 4666 
z
" transform="scale(0.015625)"/>
       <path id="DejaVuSans-65" d="M 3597 1894 
L 3597 1613 
L 953 1613 
Q 991 1019 1311 708 
Q 1631 397 2203 397 
Q 2534 397 2845 478 
Q 3156 559 3463 722 
L 3463 178 
Q 3153 47 2828 -22 
Q 2503 -91 2169 -91 
Q 1331 -91 842 396 
Q 353 884 353 1716 
Q 353 2575 817 3079 
Q 1281 3584 2069 3584 
Q 2775 3584 3186 3129 
Q 3597 2675 3597 1894 
z
M 3022 2063 
Q 3016 2534 2758 2815 
Q 2500 3097 2075 3097 
Q 1594 3097 1305 2825 
Q 1016 2553 972 2059 
L 3022 2063 
z
" transform="scale(0.015625)"/>
       <path id="DejaVuSans-69" d="M 603 3500 
L 1178 3500 
L 1178 0 
L 603 0 
L 603 3500 
z
M 603 4863 
L 1178 4863 
L 1178 4134 
L 603 4134 
L 603 4863 
z
" transform="scale(0.015625)"/>
       <path id="DejaVuSans-74" d="M 1172 4494 
L 1172 3500 
L 2356 3500 
L 2356 3053 
L 1172 3053 
L 1172 1153 
Q 1172 725 1289 603 
Q 1406 481 1766 481 
L 2356 481 
L 2356 0 
L 1766 0 
Q 1100 0 847 248 
Q 594 497 594 1153 
L 594 3053 
L 172 3053 
L 172 3500 
L 594 3500 
L 594 4494 
L 1172 4494 
z
" transform="scale(0.015625)"/>
       <path id="DejaVuSans-20" transform="scale(0.015625)"/>
       <path id="DejaVuSans-5b" d="M 550 4863 
L 1875 4863 
L 1875 4416 
L 1125 4416 
L 1125 -397 
L 1875 -397 
L 1875 -844 
L 550 -844 
L 550 4863 
z
" transform="scale(0.015625)"/>
       <path id="DejaVuSans-73" d="M 2834 3397 
L 2834 2853 
Q 2591 2978 2328 3040 
Q 2066 3103 1784 3103 
Q 1356 3103 1142 2972 
Q 928 2841 928 2578 
Q 928 2378 1081 2264 
Q 1234 2150 1697 2047 
L 1894 2003 
Q 2506 1872 2764 1633 
Q 3022 1394 3022 966 
Q 3022 478 2636 193 
Q 2250 -91 1575 -91 
Q 1294 -91 989 -36 
Q 684 19 347 128 
L 347 722 
Q 666 556 975 473 
Q 1284 391 1588 391 
Q 1994 391 2212 530 
Q 2431 669 2431 922 
Q 2431 1156 2273 1281 
Q 2116 1406 1581 1522 
L 1381 1569 
Q 847 1681 609 1914 
Q 372 2147 372 2553 
Q 372 3047 722 3315 
Q 1072 3584 1716 3584 
Q 2034 3584 2315 3537 
Q 2597 3491 2834 3397 
z
" transform="scale(0.015625)"/>
       <path id="DejaVuSans-5d" d="M 1947 4863 
L 1947 -844 
L 622 -844 
L 622 -397 
L 1369 -397 
L 1369 4416 
L 622 4416 
L 622 4863 
L 1947 4863 
z
" transform="scale(0.015625)"/>
      </defs>
      <use xlink:href="#DejaVuSans-5a"/>
      <use xlink:href="#DejaVuSans-65" x="68.505859"/>
      <use xlink:href="#DejaVuSans-69" x="130.029297"/>
      <use xlink:href="#DejaVuSans-74" x="157.8125"/>
      <use xlink:href="#DejaVuSans-20" x="197.021484"/>
      <use xlink:href="#DejaVuSans-5b" x="228.808594"/>
      <use xlink:href="#DejaVuSans-73" x="267.822266"/>
      <use xlink:href="#DejaVuSans-5d" x="319.921875"/>
     </g>
    </g>
   </g>
   <g id="matplotlib.axis_2">
    <g id="ytick_1">
     <g id="line2d_15">
      <path d="M 23.760625 127.262774 
L 302.760625 127.262774 
" clip-path="url(#p7c22913b2c)" style="fill: none; stroke-dasharray: 0.8,1.32; stroke-dashoffset: 0; stroke: #000000; stroke-opacity: 0.5; stroke-width: 0.8"/>
     </g>
     <g id="line2d_16">
      <defs>
       <path id="mb2fe32fb3f" d="M 0 0 
L -3.5 0 
" style="stroke: #000000; stroke-width: 0.8"/>
      </defs>
      <g>
       <use xlink:href="#mb2fe32fb3f" x="23.760625" y="127.262774" style="stroke: #000000; stroke-width: 0.8"/>
      </g>
     </g>
     <g id="text_9">
      <!-- 1 -->
      <g transform="translate(10.398125 131.061993) scale(0.1 -0.1)">
       <use xlink:href="#DejaVuSans-31"/>
      </g>
     </g>
    </g>
    <g id="ytick_2">
     <g id="line2d_17">
      <path d="M 23.760625 101.842183 
L 302.760625 101.842183 
" clip-path="url(#p7c22913b2c)" style="fill: none; stroke-dasharray: 0.8,1.32; stroke-dashoffset: 0; stroke: #000000; stroke-opacity: 0.5; stroke-width: 0.8"/>
     </g>
     <g id="line2d_18">
      <g>
       <use xlink:href="#mb2fe32fb3f" x="23.760625" y="101.842183" style="stroke: #000000; stroke-width: 0.8"/>
      </g>
     </g>
     <g id="text_10">
      <!-- 2 -->
      <g transform="translate(10.398125 105.641402) scale(0.1 -0.1)">
       <use xlink:href="#DejaVuSans-32"/>
      </g>
     </g>
    </g>
    <g id="ytick_3">
     <g id="line2d_19">
      <path d="M 23.760625 76.421593 
L 302.760625 76.421593 
" clip-path="url(#p7c22913b2c)" style="fill: none; stroke-dasharray: 0.8,1.32; stroke-dashoffset: 0; stroke: #000000; stroke-opacity: 0.5; stroke-width: 0.8"/>
     </g>
     <g id="line2d_20">
      <g>
       <use xlink:href="#mb2fe32fb3f" x="23.760625" y="76.421593" style="stroke: #000000; stroke-width: 0.8"/>
      </g>
     </g>
     <g id="text_11">
      <!-- 3 -->
      <g transform="translate(10.398125 80.220812) scale(0.1 -0.1)">
       <use xlink:href="#DejaVuSans-33"/>
      </g>
     </g>
    </g>
    <g id="ytick_4">
     <g id="line2d_21">
      <path d="M 23.760625 51.001002 
L 302.760625 51.001002 
" clip-path="url(#p7c22913b2c)" style="fill: none; stroke-dasharray: 0.8,1.32; stroke-dashoffset: 0; stroke: #000000; stroke-opacity: 0.5; stroke-width: 0.8"/>
     </g>
     <g id="line2d_22">
      <g>
       <use xlink:href="#mb2fe32fb3f" x="23.760625" y="51.001002" style="stroke: #000000; stroke-width: 0.8"/>
      </g>
     </g>
     <g id="text_12">
      <!-- 4 -->
      <g transform="translate(10.398125 54.800221) scale(0.1 -0.1)">
       <defs>
        <path id="DejaVuSans-34" d="M 2419 4116 
L 825 1625 
L 2419 1625 
L 2419 4116 
z
M 2253 4666 
L 3047 4666 
L 3047 1625 
L 3713 1625 
L 3713 1100 
L 3047 1100 
L 3047 0 
L 2419 0 
L 2419 1100 
L 313 1100 
L 313 1709 
L 2253 4666 
z
" transform="scale(0.015625)"/>
       </defs>
       <use xlink:href="#DejaVuSans-34"/>
      </g>
     </g>
    </g>
    <g id="ytick_5">
     <g id="line2d_23">
      <path d="M 23.760625 25.580412 
L 302.760625 25.580412 
" clip-path="url(#p7c22913b2c)" style="fill: none; stroke-dasharray: 0.8,1.32; stroke-dashoffset: 0; stroke: #000000; stroke-opacity: 0.5; stroke-width: 0.8"/>
     </g>
     <g id="line2d_24">
      <g>
       <use xlink:href="#mb2fe32fb3f" x="23.760625" y="25.580412" style="stroke: #000000; stroke-width: 0.8"/>
      </g>
     </g>
     <g id="text_13">
      <!-- 5 -->
      <g transform="translate(10.398125 29.37963) scale(0.1 -0.1)">
       <use xlink:href="#DejaVuSans-35"/>
      </g>
     </g>
    </g>
    <g id="text_14">
     <!-- Drehmoment [Nm] -->
     <g transform="translate(8.318438 117.165312) rotate(-90) scale(0.1 -0.1)">
      <defs>
       <path id="DejaVuSans-44" d="M 1259 4147 
L 1259 519 
L 2022 519 
Q 2988 519 3436 956 
Q 3884 1394 3884 2338 
Q 3884 3275 3436 3711 
Q 2988 4147 2022 4147 
L 1259 4147 
z
M 628 4666 
L 1925 4666 
Q 3281 4666 3915 4102 
Q 4550 3538 4550 2338 
Q 4550 1131 3912 565 
Q 3275 0 1925 0 
L 628 0 
L 628 4666 
z
" transform="scale(0.015625)"/>
       <path id="DejaVuSans-72" d="M 2631 2963 
Q 2534 3019 2420 3045 
Q 2306 3072 2169 3072 
Q 1681 3072 1420 2755 
Q 1159 2438 1159 1844 
L 1159 0 
L 581 0 
L 581 3500 
L 1159 3500 
L 1159 2956 
Q 1341 3275 1631 3429 
Q 1922 3584 2338 3584 
Q 2397 3584 2469 3576 
Q 2541 3569 2628 3553 
L 2631 2963 
z
" transform="scale(0.015625)"/>
       <path id="DejaVuSans-68" d="M 3513 2113 
L 3513 0 
L 2938 0 
L 2938 2094 
Q 2938 2591 2744 2837 
Q 2550 3084 2163 3084 
Q 1697 3084 1428 2787 
Q 1159 2491 1159 1978 
L 1159 0 
L 581 0 
L 581 4863 
L 1159 4863 
L 1159 2956 
Q 1366 3272 1645 3428 
Q 1925 3584 2291 3584 
Q 2894 3584 3203 3211 
Q 3513 2838 3513 2113 
z
" transform="scale(0.015625)"/>
       <path id="DejaVuSans-6d" d="M 3328 2828 
Q 3544 3216 3844 3400 
Q 4144 3584 4550 3584 
Q 5097 3584 5394 3201 
Q 5691 2819 5691 2113 
L 5691 0 
L 5113 0 
L 5113 2094 
Q 5113 2597 4934 2840 
Q 4756 3084 4391 3084 
Q 3944 3084 3684 2787 
Q 3425 2491 3425 1978 
L 3425 0 
L 2847 0 
L 2847 2094 
Q 2847 2600 2669 2842 
Q 2491 3084 2119 3084 
Q 1678 3084 1418 2786 
Q 1159 2488 1159 1978 
L 1159 0 
L 581 0 
L 581 3500 
L 1159 3500 
L 1159 2956 
Q 1356 3278 1631 3431 
Q 1906 3584 2284 3584 
Q 2666 3584 2933 3390 
Q 3200 3197 3328 2828 
z
" transform="scale(0.015625)"/>
       <path id="DejaVuSans-6f" d="M 1959 3097 
Q 1497 3097 1228 2736 
Q 959 2375 959 1747 
Q 959 1119 1226 758 
Q 1494 397 1959 397 
Q 2419 397 2687 759 
Q 2956 1122 2956 1747 
Q 2956 2369 2687 2733 
Q 2419 3097 1959 3097 
z
M 1959 3584 
Q 2709 3584 3137 3096 
Q 3566 2609 3566 1747 
Q 3566 888 3137 398 
Q 2709 -91 1959 -91 
Q 1206 -91 779 398 
Q 353 888 353 1747 
Q 353 2609 779 3096 
Q 1206 3584 1959 3584 
z
" transform="scale(0.015625)"/>
       <path id="DejaVuSans-6e" d="M 3513 2113 
L 3513 0 
L 2938 0 
L 2938 2094 
Q 2938 2591 2744 2837 
Q 2550 3084 2163 3084 
Q 1697 3084 1428 2787 
Q 1159 2491 1159 1978 
L 1159 0 
L 581 0 
L 581 3500 
L 1159 3500 
L 1159 2956 
Q 1366 3272 1645 3428 
Q 1925 3584 2291 3584 
Q 2894 3584 3203 3211 
Q 3513 2838 3513 2113 
z
" transform="scale(0.015625)"/>
       <path id="DejaVuSans-4e" d="M 628 4666 
L 1478 4666 
L 3547 763 
L 3547 4666 
L 4159 4666 
L 4159 0 
L 3309 0 
L 1241 3903 
L 1241 0 
L 628 0 
L 628 4666 
z
" transform="scale(0.015625)"/>
      </defs>
      <use xlink:href="#DejaVuSans-44"/>
      <use xlink:href="#DejaVuSans-72" x="77.001953"/>
      <use xlink:href="#DejaVuSans-65" x="115.865234"/>
      <use xlink:href="#DejaVuSans-68" x="177.388672"/>
      <use xlink:href="#DejaVuSans-6d" x="240.767578"/>
      <use xlink:href="#DejaVuSans-6f" x="338.179688"/>
      <use xlink:href="#DejaVuSans-6d" x="399.361328"/>
      <use xlink:href="#DejaVuSans-65" x="496.773438"/>
      <use xlink:href="#DejaVuSans-6e" x="558.296875"/>
      <use xlink:href="#DejaVuSans-74" x="621.675781"/>
      <use xlink:href="#DejaVuSans-20" x="660.884766"/>
      <use xlink:href="#DejaVuSans-5b" x="692.671875"/>
      <use xlink:href="#DejaVuSans-4e" x="731.685547"/>
      <use xlink:href="#DejaVuSans-6d" x="806.490234"/>
      <use xlink:href="#DejaVuSans-5d" x="903.902344"/>
     </g>
    </g>
   </g>
   <g id="line2d_25">
    <path d="M 23.760625 134.186666 
L 302.760625 134.186666 
L 302.760625 134.186666 
" clip-path="url(#p7c22913b2c)" style="fill: none; stroke: #0000ff; stroke-opacity: 0.5; stroke-width: 3; stroke-linecap: square"/>
   </g>
   <g id="line2d_26">
    <path d="M 23.760625 10.362896 
L 23.967975 8.097633 
L 24.058954 8.396461 
L 24.074073 10.251979 
L 24.124919 9.364773 
L 24.245513 11.436573 
L 24.312388 10.740849 
L 24.381533 10.629249 
L 24.46825 10.783202 
L 24.542553 10.016541 
L 24.6217 12.65743 
L 24.673011 12.321207 
L 24.810544 11.255005 
L 24.879705 11.290534 
L 24.982884 10.751653 
L 25.102858 12.541497 
L 25.257215 12.396602 
L 25.377297 11.324483 
L 25.548409 13.142587 
L 25.720287 13.08899 
L 25.825502 11.537673 
L 25.892754 12.255609 
L 25.961732 12.082406 
L 26.081839 12.747561 
L 26.101572 13.63308 
L 26.167828 12.830871 
L 26.237324 12.830218 
L 26.446288 10.660621 
L 26.665485 11.264116 
L 26.872438 9.359253 
L 26.941636 8.301019 
L 27.155939 10.864058 
L 27.235359 10.103817 
L 27.290327 10.679302 
L 27.373262 9.977345 
L 27.441821 10.171822 
L 27.510769 9.804119 
L 27.579282 10.143149 
L 27.65484 11.638511 
L 27.721245 10.975719 
L 27.802187 10.919571 
L 27.889993 10.59015 
L 27.940944 10.943692 
L 28.008965 9.77229 
L 28.077886 10.704316 
L 28.145695 10.596923 
L 28.249816 9.650629 
L 28.289364 10.062572 
L 28.440376 10.20578 
L 28.50911 10.150443 
L 28.715825 12.516106 
L 28.784966 12.440334 
L 28.853265 11.763633 
L 28.994589 12.375948 
L 29.215125 13.220013 
L 29.28346 13.01423 
L 29.431427 12.425987 
L 29.492897 12.383784 
L 29.575193 12.124416 
L 29.644092 11.487317 
L 29.713566 11.787994 
L 29.851513 11.452941 
L 29.921326 12.073048 
L 29.988868 11.71017 
L 30.126329 10.958371 
L 30.288101 12.173918 
L 30.350014 13.256249 
L 30.417312 12.508123 
L 30.629643 9.449338 
L 30.712662 8.838722 
L 30.779092 10.391789 
L 30.848252 9.48149 
L 31.05603 8.36571 
L 31.193454 8.624273 
L 31.296643 10.643066 
L 31.365492 10.441027 
L 31.451084 10.854126 
L 31.554319 9.291215 
L 31.742748 11.045418 
L 31.91421 8.210219 
L 31.983278 8.956958 
L 32.120513 10.026369 
L 32.191501 11.364783 
L 32.33227 8.513863 
L 32.403784 8.698878 
L 32.621367 11.156168 
L 32.76064 11.06898 
L 32.828031 10.220172 
L 32.902532 10.642283 
L 33.056837 11.894232 
L 33.132206 11.471109 
L 33.143254 12.412067 
L 33.196431 10.933452 
L 33.403276 10.297725 
L 33.559553 11.607816 
L 33.927624 9.738744 
L 33.978495 10.845143 
L 34.049977 10.422321 
L 34.14779 11.898371 
L 34.148282 10.860909 
L 34.22412 10.843361 
L 34.343894 9.780459 
L 34.413624 10.059918 
L 34.499074 9.969457 
L 34.569685 9.837775 
L 34.636328 10.943489 
L 34.842604 9.15444 
L 35.049235 10.311545 
L 35.100972 9.706501 
L 35.22025 9.712537 
L 35.260935 9.594173 
L 35.44529 10.153928 
L 35.531465 11.597058 
L 35.753775 8.707341 
L 35.984409 11.160714 
L 36.09788 10.967349 
L 36.285618 8.681917 
L 36.492629 10.789505 
L 36.596202 10.382959 
L 36.732212 10.859924 
L 36.869205 9.679777 
L 36.887218 9.930512 
L 36.956207 11.51409 
L 37.024971 11.150266 
L 37.248019 11.901077 
L 37.354936 11.554524 
L 37.384676 10.367924 
L 37.453837 10.504686 
L 37.522424 11.459549 
L 37.608443 10.909835 
L 37.814532 8.745482 
L 37.882793 9.323908 
L 37.95123 9.314126 
L 38.039098 9.616917 
L 38.209069 11.082934 
L 38.301474 9.220587 
L 38.449881 10.0486 
L 38.517969 9.967954 
L 38.61669 9.585695 
L 38.74137 8.191403 
L 38.831069 7.724397 
L 38.87985 8.154246 
L 39.028719 10.677719 
L 39.086139 9.063389 
L 39.205928 9.184178 
L 39.309332 8.834531 
L 39.446154 9.820913 
L 39.584526 9.061588 
L 39.739439 7.664863 
L 39.807889 9.556456 
L 39.876504 9.306356 
L 39.979415 9.455228 
L 40.031923 9.367844 
L 40.1712 8.758301 
L 40.490722 9.399791 
L 40.512307 9.336043 
L 40.736093 7.509588 
L 40.841741 7.897199 
L 40.877488 7.527921 
L 41.032199 9.038336 
L 41.092958 8.044869 
L 41.164726 8.156542 
L 41.285925 8.176949 
L 41.381094 10.429055 
L 41.449453 9.906374 
L 41.527864 9.431858 
L 41.65056 9.432387 
L 41.682609 9.252077 
L 41.768179 8.202142 
L 41.785883 9.012907 
L 41.933694 10.150626 
L 42.094623 9.074129 
L 42.195956 9.091171 
L 42.294715 9.270855 
L 42.366525 10.412286 
L 42.434342 9.931037 
L 42.503227 9.87957 
L 42.605636 10.840597 
L 42.640137 8.732006 
L 42.709317 9.49406 
L 42.932443 12.993245 
L 43.000733 11.807149 
L 43.138372 10.193027 
L 43.241285 10.396361 
L 43.296354 9.024448 
L 43.362631 10.059865 
L 43.520644 11.447282 
L 43.537055 11.221927 
L 43.64179 11.212743 
L 43.658787 11.420821 
L 43.727362 11.305132 
L 43.777095 11.484129 
L 43.916264 11.343292 
L 43.949091 10.969662 
L 44.070412 11.830313 
L 44.344869 8.841536 
L 44.430661 8.953895 
L 44.498888 8.73074 
L 44.791567 10.970174 
L 45.049249 12.081168 
L 45.152522 13.720304 
L 45.891043 10.34523 
L 46.29176 10.494001 
L 46.666315 10.354926 
L 46.836118 8.579041 
L 46.904568 8.866182 
L 46.974255 9.963737 
L 47.231487 6.909149 
L 47.250038 7.818832 
L 47.403006 7.624249 
L 47.455721 7.782405 
L 47.591809 9.868665 
L 47.78099 8.733226 
L 47.953096 9.8623 
L 48.021375 8.369711 
L 48.110723 8.405709 
L 48.31449 7.962554 
L 48.538344 11.812255 
L 48.622859 10.472487 
L 48.784848 12.470934 
L 48.880861 12.155897 
L 48.966659 10.882398 
L 49.0373 10.823621 
L 49.13919 10.48437 
L 49.17314 9.91212 
L 49.242874 10.51777 
L 49.362074 11.594707 
L 49.413458 11.205656 
L 49.551256 10.040689 
L 49.642088 10.667429 
L 49.688602 10.618497 
L 49.744878 10.361806 
L 49.758207 9.611095 
L 49.822694 10.608321 
L 49.925909 10.383483 
L 50.031075 9.354922 
L 50.118934 9.465115 
L 50.235467 10.308702 
L 50.320942 10.323024 
L 50.389452 10.561986 
L 50.54606 10.186724 
L 50.733451 10.750588 
L 50.887399 10.247922 
L 50.956403 10.267722 
L 51.128011 9.26106 
L 51.230931 9.313771 
L 51.436989 10.264443 
L 51.523579 11.820038 
L 51.679037 11.848555 
L 51.815844 12.437229 
L 51.869045 10.872099 
L 51.953541 11.36406 
L 52.022533 11.374859 
L 52.296058 8.039519 
L 52.383742 9.003054 
L 52.530163 8.978163 
L 52.53045 8.534312 
L 52.614612 10.236018 
L 53.00911 7.636153 
L 53.11055 6.930141 
L 53.179378 7.145027 
L 53.230855 7.09785 
L 53.351129 7.233511 
L 53.507199 9.394001 
L 53.728383 12.987168 
L 53.865519 12.486464 
L 53.985376 12.391906 
L 54.093498 13.388547 
L 54.14122 13.461467 
L 54.225292 12.521075 
L 54.29819 12.577074 
L 54.364023 12.282666 
L 54.431712 10.696005 
L 54.500819 10.785451 
L 54.707554 10.27721 
L 54.797042 8.754675 
L 54.862228 9.324664 
L 54.999368 8.49873 
L 55.068821 8.705115 
L 55.223936 10.940887 
L 55.327701 10.760088 
L 55.344031 10.390489 
L 55.446184 10.93998 
L 55.498051 10.902128 
L 55.567549 10.275449 
L 55.635489 11.256162 
L 55.772621 11.540403 
L 55.876986 9.852597 
L 55.999104 10.027668 
L 56.151173 10.675969 
L 56.357955 10.075271 
L 56.42721 9.854117 
L 56.528542 10.555703 
L 56.648943 8.284997 
L 56.721113 8.564247 
L 56.784166 9.344097 
L 56.914219 7.16219 
L 57.256579 8.39833 
L 57.359178 10.951611 
L 57.4095 10.639523 
L 57.596836 12.653517 
L 57.636624 14.559558 
L 57.702568 14.075253 
L 57.841395 13.776 
L 57.913718 14.222311 
L 58.063965 12.628014 
L 58.201922 13.195947 
L 58.391003 14.232218 
L 58.407872 12.23623 
L 58.477369 13.713197 
L 58.597612 12.685054 
L 58.700557 11.133988 
L 58.768973 11.748716 
L 58.899751 11.439129 
L 58.976281 8.563221 
L 59.04316 9.986846 
L 59.060209 9.966498 
L 59.202523 7.922348 
L 59.405826 10.293451 
L 59.546289 10.145393 
L 59.61085 10.410449 
L 59.717937 12.175035 
L 59.835287 11.257076 
L 59.974244 11.719203 
L 60.014652 10.784162 
L 60.112092 11.091289 
L 60.197736 11.121768 
L 60.421304 10.37243 
L 60.473037 9.898027 
L 60.602459 10.263414 
L 60.747476 11.757246 
L 60.764441 11.554323 
L 60.876242 11.339475 
L 60.913622 10.952716 
L 61.263931 13.94332 
L 61.469787 12.520388 
L 61.538871 12.844883 
L 61.680425 10.937126 
L 61.765316 11.136102 
L 61.971113 11.507483 
L 62.108723 10.023569 
L 62.177126 10.897242 
L 62.33599 10.405083 
L 62.388318 10.712208 
L 62.401755 8.422115 
L 62.470737 10.81829 
L 62.523068 10.15797 
L 62.626879 10.415256 
L 62.677363 9.348409 
L 62.832335 10.923501 
L 62.887012 10.846112 
L 62.97156 9.072387 
L 62.986188 10.138152 
L 63.106986 11.924467 
L 63.314786 9.874128 
L 63.399822 9.972421 
L 63.537065 10.674854 
L 63.609074 10.528886 
L 63.658264 11.772161 
L 63.971912 9.789672 
L 64.105528 10.436556 
L 64.158052 9.934387 
L 64.281838 9.947332 
L 64.298735 10.128453 
L 64.387299 9.625123 
L 64.524203 10.735041 
L 64.59279 10.539853 
L 64.72772 9.663899 
L 64.832751 9.901424 
L 64.969046 9.949744 
L 65.088548 10.339814 
L 65.230623 9.959684 
L 65.295369 9.394069 
L 65.517913 11.713997 
L 65.592878 11.377477 
L 65.73071 8.583247 
L 65.801242 9.22653 
L 65.935759 9.119392 
L 65.968996 9.228415 
L 66.138853 10.430589 
L 66.154977 9.445043 
L 66.241577 9.536897 
L 66.293379 9.889913 
L 66.447389 9.631926 
L 66.533578 10.157137 
L 66.756813 12.47458 
L 67.170556 14.39798 
L 67.722201 10.908887 
L 67.806883 10.695165 
L 67.858657 11.037019 
L 67.944996 10.935068 
L 68.064414 9.935972 
L 68.167169 9.918526 
L 68.219505 9.481579 
L 68.287384 10.264406 
L 68.562571 9.44174 
L 68.717875 11.421301 
L 68.795777 10.846587 
L 68.959295 11.471114 
L 69.068783 11.967343 
L 69.203036 14.613797 
L 69.269666 14.212234 
L 69.441659 12.795867 
L 69.592134 13.445182 
L 69.70783 11.181291 
L 69.717105 11.49948 
L 69.79902 11.883776 
L 69.873097 12.153488 
L 70.02793 10.248163 
L 70.066904 10.817115 
L 70.148892 10.503989 
L 70.267986 9.596373 
L 70.405754 9.667633 
L 70.494515 10.359245 
L 70.63194 9.622552 
L 70.701155 10.633009 
L 70.770769 10.251613 
L 70.837954 10.786927 
L 70.976067 10.036384 
L 71.046726 10.604241 
L 71.131643 10.276049 
L 71.205191 10.97752 
L 71.267894 10.805582 
L 71.335913 11.145374 
L 71.405271 10.285466 
L 71.480391 10.512029 
L 71.54314 10.371904 
L 71.621952 11.630991 
L 71.697386 11.422251 
L 71.835385 11.92189 
L 71.975412 10.425097 
L 72.124889 11.876884 
L 72.262635 10.498905 
L 72.332246 10.524323 
L 72.400212 10.608645 
L 72.468481 9.991338 
L 72.610002 11.254261 
L 72.692323 12.894071 
L 72.89886 10.663662 
L 72.967279 10.660442 
L 73.036313 10.263086 
L 73.190709 11.037936 
L 73.39811 8.614132 
L 73.465936 9.332189 
L 73.605837 10.485756 
L 73.671794 9.950341 
L 73.758238 10.270119 
L 73.826923 9.397562 
L 73.963947 10.371869 
L 74.110129 10.060575 
L 74.3099 10.048554 
L 74.412634 11.556966 
L 74.599676 9.643628 
L 74.685475 9.765525 
L 74.813815 11.371253 
L 74.876544 10.544376 
L 74.960945 10.693272 
L 75.029716 10.327289 
L 75.100395 10.340658 
L 75.236728 12.105387 
L 75.306023 12.076616 
L 75.39246 11.882985 
L 75.53066 10.481613 
L 75.597791 11.762655 
L 75.66779 11.192967 
L 75.747245 11.688269 
L 75.752877 9.831295 
L 75.805184 10.206384 
L 75.960197 8.708261 
L 76.033134 9.295592 
L 76.166933 9.800901 
L 76.218533 9.474085 
L 76.236242 10.014673 
L 76.306109 9.834306 
L 76.373483 9.875444 
L 76.467137 11.198123 
L 76.546621 10.883389 
L 76.597792 10.811064 
L 76.667003 11.27336 
L 76.804046 9.673388 
L 76.872504 11.120806 
L 76.941701 10.955948 
L 77.01108 10.329737 
L 77.117316 10.82542 
L 77.168373 9.978432 
L 77.239438 10.356952 
L 77.323772 13.313391 
L 77.495177 12.919116 
L 77.548106 12.309985 
L 77.581048 10.306779 
L 77.736069 9.747539 
L 77.804752 9.836222 
L 77.822048 10.211969 
L 77.993652 10.783137 
L 78.029636 10.606023 
L 78.098121 10.320463 
L 78.115694 9.072476 
L 78.16809 9.126769 
L 78.493076 14.467919 
L 78.510699 13.633151 
L 78.718354 12.27362 
L 78.73392 13.355189 
L 78.803414 12.913498 
L 78.958394 13.991843 
L 79.096034 11.688717 
L 79.145872 10.441048 
L 79.215349 10.825855 
L 79.283942 10.946528 
L 79.387894 10.526008 
L 79.456673 11.13577 
L 79.472879 9.897739 
L 79.543471 11.125394 
L 79.765575 9.797996 
L 79.852702 10.997559 
L 79.954877 10.4452 
L 80.024381 11.023432 
L 80.177877 9.428284 
L 80.211987 9.409271 
L 80.315296 9.889522 
L 80.432147 11.172917 
L 80.521441 10.996754 
L 80.813158 13.696653 
L 80.883187 12.725818 
L 81.022599 13.121021 
L 81.071427 12.017171 
L 81.140182 12.687514 
L 81.336224 12.09859 
L 81.355157 12.379254 
L 81.419372 11.711795 
L 81.571671 13.567939 
L 81.640553 13.113264 
L 81.714731 13.496592 
L 81.778591 13.472179 
L 81.987386 12.600786 
L 82.120737 12.615974 
L 82.206549 11.943925 
L 82.295805 10.620869 
L 82.363368 11.115972 
L 82.499767 10.564036 
L 82.723977 11.317185 
L 82.797351 11.02435 
L 82.842765 11.672959 
L 82.91153 10.646903 
L 83.087448 11.269626 
L 83.142177 11.071345 
L 83.272246 12.159154 
L 83.4098 11.42578 
L 83.448829 11.806253 
L 83.514308 11.373772 
L 83.635544 11.436018 
L 83.773642 12.589312 
L 83.87651 12.695456 
L 83.962472 11.929272 
L 83.979986 12.158471 
L 84.151988 12.66095 
L 84.204744 12.628045 
L 84.392291 13.925501 
L 84.512474 12.012147 
L 84.565338 12.535238 
L 84.632809 12.429701 
L 84.718384 12.349114 
L 84.838877 12.066563 
L 84.913131 12.864373 
L 84.975878 12.50546 
L 85.114058 13.457805 
L 85.349476 11.949494 
L 85.406685 12.051245 
L 85.474234 12.332889 
L 85.663485 9.931915 
L 85.766701 10.188483 
L 85.921421 10.768928 
L 85.989775 9.771408 
L 86.042509 10.209274 
L 86.128186 9.916983 
L 86.198987 9.209537 
L 86.283062 10.304106 
L 86.369414 10.267735 
L 86.403258 9.250284 
L 86.472174 9.612751 
L 86.543451 9.46579 
L 86.618803 9.013319 
L 86.799514 9.941973 
L 86.90228 8.521377 
L 86.970552 8.689016 
L 87.038931 8.554157 
L 87.131318 8.835206 
L 87.176742 8.508313 
L 87.31802 8.806796 
L 87.395326 10.145378 
L 87.469301 8.905899 
L 87.751493 12.897693 
L 87.950913 13.247973 
L 88.106074 12.16513 
L 88.252171 13.721986 
L 88.519089 11.508449 
L 88.74215 12.44482 
L 88.810651 11.835509 
L 88.955704 12.612372 
L 89.240514 13.286267 
L 89.377526 11.608644 
L 89.515019 12.709887 
L 89.737647 11.975936 
L 89.874912 10.246175 
L 90.083594 12.975502 
L 90.167956 11.527911 
L 90.237557 11.657602 
L 90.304505 11.693483 
L 90.378517 10.476998 
L 90.443135 11.055086 
L 90.582268 13.483465 
L 90.8108 11.081946 
L 90.911099 11.694577 
L 91.079334 10.519677 
L 91.149726 11.617742 
L 91.16618 11.169448 
L 91.218891 10.696379 
L 91.28718 8.128796 
L 91.3035 10.490433 
L 91.37451 10.804875 
L 91.443362 10.118549 
L 91.529926 10.140351 
L 91.647726 11.271936 
L 91.71664 11.141857 
L 91.791524 12.285529 
L 91.870996 11.779898 
L 91.945117 12.221304 
L 92.011783 12.001917 
L 92.115755 11.617857 
L 92.228246 13.787565 
L 92.305015 12.635088 
L 92.359764 12.736818 
L 92.424985 13.31977 
L 92.493767 13.254219 
L 92.630225 14.061965 
L 92.785099 12.620879 
L 92.990625 10.034406 
L 93.025095 10.736743 
L 93.1449 11.112132 
L 93.215498 10.305164 
L 93.369807 10.047893 
L 93.445289 10.590415 
L 93.576107 12.889953 
L 93.713019 13.046127 
L 93.901348 10.623695 
L 93.940012 11.341968 
L 93.991928 10.640488 
L 94.057069 10.626468 
L 94.212355 9.185972 
L 94.318577 9.703941 
L 94.350014 9.611783 
L 94.436906 9.598469 
L 94.865801 12.2176 
L 94.994 12.101684 
L 95.12539 12.833071 
L 95.282267 13.026457 
L 95.347859 12.222683 
L 95.415597 12.748743 
L 95.552886 12.916429 
L 95.656028 13.11457 
L 95.828626 11.020708 
L 95.93149 10.190132 
L 95.983669 10.851074 
L 96.120793 7.958257 
L 96.260503 8.000837 
L 96.343635 8.271338 
L 96.430129 10.450782 
L 96.536246 10.189255 
L 96.567258 12.106557 
L 96.584329 10.963616 
L 96.67059 11.080842 
L 96.693461 9.708116 
L 96.914101 12.031314 
L 96.980053 11.860333 
L 97.254613 8.18589 
L 97.339731 8.273628 
L 97.494165 9.400065 
L 97.562898 9.648099 
L 97.718946 8.208774 
L 97.770938 8.448369 
L 97.977488 10.535459 
L 98.148969 10.516791 
L 98.182932 10.769601 
L 98.286377 10.688399 
L 98.338141 10.880914 
L 98.492187 12.463194 
L 98.561967 12.103661 
L 98.630294 12.485844 
L 98.973454 10.683189 
L 99.177362 11.152016 
L 99.291874 10.298838 
L 99.345965 10.476551 
L 99.488284 9.30086 
L 99.54033 9.936284 
L 99.608294 9.856729 
L 99.710403 8.448465 
L 99.762239 9.085372 
L 99.90034 9.467155 
L 99.951431 8.794712 
L 99.989461 9.083136 
L 100.261837 12.512232 
L 100.347386 11.593711 
L 100.506641 12.008581 
L 100.539753 11.36722 
L 100.606136 12.51081 
L 100.760553 11.673961 
L 101.002169 12.004021 
L 101.036333 12.467804 
L 101.196427 11.551561 
L 101.380974 11.948204 
L 101.434364 13.478247 
L 101.749605 12.185513 
L 101.949166 14.841115 
L 102.018632 14.824227 
L 102.142663 14.765795 
L 102.174941 14.994785 
L 102.311573 14.306629 
L 102.38033 14.376699 
L 102.466803 14.304699 
L 102.535075 13.891043 
L 102.586504 14.39247 
L 102.897714 12.464055 
L 102.97758 12.694044 
L 103.021183 13.596381 
L 103.086001 13.304199 
L 103.156882 13.466979 
L 103.242423 13.411859 
L 103.309771 12.948483 
L 103.554052 9.591357 
L 103.656387 9.644549 
L 103.729928 8.201138 
L 103.742914 8.68628 
L 103.810664 8.845274 
L 103.983034 7.560097 
L 104.091991 8.39359 
L 104.224026 11.272984 
L 104.292335 10.173005 
L 104.365006 10.592856 
L 104.448452 10.891552 
L 104.516372 10.304922 
L 104.66079 11.565011 
L 104.730232 11.108855 
L 104.859961 11.815093 
L 104.945628 10.478807 
L 105.032929 11.818934 
L 105.085915 11.293574 
L 105.154783 11.026873 
L 105.223696 11.292356 
L 105.360956 10.108366 
L 105.467943 10.629596 
L 105.584321 10.090727 
L 105.704173 9.773464 
L 105.807953 8.460219 
L 105.996065 10.130653 
L 106.064889 9.720806 
L 106.150812 10.093095 
L 106.326187 8.669862 
L 106.562838 10.896449 
L 106.633949 11.168669 
L 106.717202 10.195132 
L 106.798846 11.064587 
L 106.854485 10.316405 
L 107.078052 12.672748 
L 107.16458 12.917814 
L 107.249268 12.2731 
L 107.386774 9.621916 
L 107.455185 10.12976 
L 107.665751 9.242598 
L 107.811186 6.667865 
L 107.903755 7.00044 
L 108.074805 9.089531 
L 108.143558 9.363898 
L 108.297972 8.747838 
L 108.366355 9.390893 
L 108.503915 11.772408 
L 108.64183 10.658389 
L 108.763785 10.591841 
L 108.98552 12.974868 
L 109.123647 11.274885 
L 109.192316 11.556967 
L 109.278125 12.510821 
L 109.349272 12.193727 
L 109.415414 12.390151 
L 109.485648 12.089665 
L 109.635458 10.693777 
L 109.759185 11.785208 
L 109.996303 9.109555 
L 110.052621 10.204134 
L 110.11752 10.177867 
L 110.187596 9.897045 
L 110.201631 10.078531 
L 110.30425 10.211181 
L 110.411373 11.681989 
L 110.424451 10.165368 
L 110.476792 12.373026 
L 110.700658 14.471322 
L 110.890098 13.291018 
L 110.923494 13.674124 
L 110.980892 13.329652 
L 111.045271 13.608047 
L 111.255776 10.701762 
L 111.366082 11.028835 
L 111.495355 12.722118 
L 111.565105 11.054368 
L 111.631708 12.112984 
L 111.682442 12.332915 
L 111.752015 11.577608 
L 111.837471 12.013492 
L 111.89476 11.810866 
L 112.010266 11.129459 
L 112.077966 11.420183 
L 112.183397 11.266343 
L 112.284489 12.280898 
L 112.329088 10.501655 
L 112.439356 10.598497 
L 112.460306 9.41207 
L 112.543463 10.887595 
L 112.680927 12.334683 
L 112.818541 10.203937 
L 112.903889 10.304017 
L 112.972919 10.060561 
L 113.19795 11.651865 
L 113.38863 9.988079 
L 113.476789 12.105506 
L 113.488575 11.223706 
L 113.678987 12.710665 
L 113.747452 12.538205 
L 113.816527 12.268423 
L 113.885196 12.982067 
L 114.005371 12.725493 
L 114.05962 13.821346 
L 114.110077 13.707287 
L 114.384563 11.426419 
L 114.555793 12.151305 
L 114.74416 9.378939 
L 114.882306 10.100623 
L 114.95095 10.516796 
L 115.019376 10.126347 
L 115.105317 11.026595 
L 115.242664 9.884492 
L 115.450938 12.415039 
L 115.589496 12.59759 
L 115.809936 11.18284 
L 115.880363 11.146647 
L 115.94725 11.860976 
L 116.102254 11.502314 
L 116.166132 10.171445 
L 116.256976 9.723308 
L 116.330607 8.362334 
L 116.583796 11.401951 
L 116.655733 11.268631 
L 116.739793 11.020972 
L 117.013675 13.400606 
L 117.130862 13.310868 
L 117.148841 12.086307 
L 117.227875 13.057721 
L 117.372048 12.351229 
L 117.44085 12.537105 
L 117.510779 13.712134 
L 117.59506 12.689972 
L 117.792154 14.350989 
L 117.887335 14.870805 
L 118.034879 13.067531 
L 118.10437 13.520995 
L 118.1382 13.21436 
L 118.226031 11.783939 
L 118.309516 12.751331 
L 118.3792 12.555306 
L 118.515215 11.121389 
L 118.637394 11.943083 
L 118.791693 10.477879 
L 118.808288 10.619763 
L 118.931608 11.193737 
L 118.998074 11.001479 
L 119.070726 11.245642 
L 119.17015 12.417112 
L 119.22188 11.799898 
L 119.277938 10.947945 
L 119.360728 12.010066 
L 119.429216 11.883793 
L 119.549532 12.907219 
L 119.601283 12.338665 
L 119.671371 12.407402 
L 119.82518 11.086267 
L 119.859185 9.56841 
L 119.928259 10.085092 
L 120.13435 11.639953 
L 120.341681 11.365509 
L 120.427139 11.697295 
L 120.537497 11.472436 
L 120.63316 12.135788 
L 120.718987 11.679492 
L 120.739872 9.967089 
L 120.787565 9.993447 
L 120.925505 9.272181 
L 121.014097 10.330551 
L 121.166823 9.362242 
L 121.440506 12.606996 
L 121.512032 12.974242 
L 121.994153 9.670624 
L 122.072795 9.965564 
L 122.197563 8.412769 
L 122.300638 8.588576 
L 122.335869 10.113397 
L 122.438427 10.109938 
L 122.558161 9.717628 
L 122.69592 11.195973 
L 122.815307 10.711211 
L 122.837601 10.055457 
L 122.934916 10.736425 
L 122.971465 10.473304 
L 123.125696 9.184738 
L 123.195108 9.212658 
L 123.364923 10.294496 
L 123.401731 9.803968 
L 123.496675 10.039097 
L 123.548506 11.198652 
L 123.705041 9.001009 
L 123.893013 10.021595 
L 123.926176 10.309627 
L 124.182761 9.054138 
L 124.253266 9.206756 
L 124.406177 12.009454 
L 124.750885 10.980944 
L 124.905166 12.12032 
L 125.11229 10.817939 
L 125.18441 10.595289 
L 125.283335 10.879671 
L 125.335302 10.83132 
L 125.404067 10.672161 
L 125.473271 11.591583 
L 125.55983 10.46981 
L 125.609786 11.083373 
L 125.747722 11.93721 
L 125.817127 11.803324 
L 125.839955 11.734609 
L 125.901806 12.447767 
L 125.952984 11.880575 
L 126.058893 11.997997 
L 126.125147 12.844092 
L 126.176444 11.844607 
L 126.365581 12.87304 
L 126.559172 11.104621 
L 126.591938 10.651756 
L 126.675313 11.053399 
L 126.746124 10.930863 
L 126.8127 9.755892 
L 126.952087 10.783295 
L 127.020606 10.461452 
L 127.312452 12.575569 
L 127.602971 14.075482 
L 127.671065 13.480109 
L 127.794914 13.538641 
L 127.894442 14.542003 
L 128.305684 10.486125 
L 128.378114 10.399791 
L 128.391095 8.57724 
L 128.460044 10.383947 
L 128.683446 10.161517 
L 128.752889 10.487333 
L 128.88987 12.587468 
L 128.941823 11.999924 
L 129.096063 12.620127 
L 129.233353 12.42739 
L 129.336621 11.634141 
L 129.38809 12.797103 
L 129.668366 10.178711 
L 129.737756 10.484171 
L 129.790354 10.419545 
L 129.907994 11.924026 
L 129.943936 11.703828 
L 130.029897 11.660984 
L 130.372911 13.31386 
L 130.631045 12.641548 
L 130.650545 12.885275 
L 130.871217 13.834739 
L 131.150999 12.052081 
L 131.219023 12.099338 
L 131.495198 9.762314 
L 131.648035 10.596144 
L 131.820704 11.919048 
L 131.992805 10.097138 
L 132.216033 11.525618 
L 132.285028 11.284631 
L 132.352891 11.359768 
L 132.490205 11.536637 
L 132.559019 12.084217 
L 132.713795 14.290169 
L 132.852089 12.920007 
L 132.920855 14.036306 
L 132.991164 13.623223 
L 133.063738 13.446614 
L 133.127255 13.61095 
L 133.198183 12.457758 
L 133.28126 13.395284 
L 133.349504 12.580468 
L 133.488262 14.091439 
L 133.712215 10.233848 
L 133.767651 11.953769 
L 133.850102 11.545634 
L 133.937461 11.79789 
L 134.194924 9.483733 
L 134.345495 10.050116 
L 134.41823 9.350879 
L 134.627163 10.951631 
L 134.761584 9.237936 
L 134.831077 10.79594 
L 134.901632 10.762218 
L 135.123802 12.329702 
L 135.25881 11.070484 
L 135.332762 11.652379 
L 135.398622 11.298998 
L 135.469916 11.777541 
L 135.691187 10.251281 
L 135.843694 10.786843 
L 135.9465 10.519032 
L 135.982637 10.097105 
L 136.07254 10.180314 
L 136.179133 11.383925 
L 136.276567 11.577856 
L 136.330578 12.687836 
L 136.396839 11.933165 
L 136.493138 12.14424 
L 136.627748 13.175488 
L 136.74399 11.832352 
L 136.827288 11.845215 
L 136.913426 12.638573 
L 136.96937 12.551175 
L 137.05123 12.62055 
L 137.411994 15.39069 
L 137.481211 15.41949 
L 137.6008 16.357836 
L 137.756685 12.937841 
L 137.962599 9.997185 
L 138.030526 10.051913 
L 138.100427 9.672655 
L 138.185087 10.067241 
L 138.237121 8.311811 
L 138.460359 10.299914 
L 138.547043 10.782216 
L 138.614398 10.183459 
L 138.682916 10.492383 
L 138.751569 10.31156 
L 138.892764 8.667594 
L 138.964754 8.992918 
L 139.043283 9.083036 
L 139.180922 7.605823 
L 139.300821 7.179897 
L 139.524653 9.427164 
L 139.66487 9.143963 
L 139.679603 9.701932 
L 139.748319 9.048252 
L 139.833322 9.25545 
L 139.886595 8.958738 
L 139.953514 9.341539 
L 140.023257 9.083859 
L 140.097051 8.211685 
L 140.160487 8.2528 
L 140.277188 8.218262 
L 140.400559 10.061741 
L 140.761414 13.06364 
L 140.864745 13.286317 
L 140.88216 13.634147 
L 140.958712 13.552795 
L 141.312379 10.24695 
L 141.540642 12.544294 
L 141.627429 12.097976 
L 141.677727 12.235731 
L 141.78171 11.849177 
L 141.798074 12.50747 
L 141.940991 9.90259 
L 142.026423 10.915983 
L 142.11273 10.88754 
L 142.39167 8.633679 
L 142.593131 10.935625 
L 142.713043 11.668785 
L 142.834369 10.280279 
L 142.93712 11.846898 
L 143.005741 11.14253 
L 143.09125 11.744937 
L 143.178197 11.691086 
L 143.298548 12.494227 
L 143.367277 11.598669 
L 143.457171 12.457275 
L 143.657954 10.984561 
L 143.724992 12.379579 
L 143.791099 11.962815 
L 144.065646 9.813758 
L 144.2043 11.334903 
L 144.392067 10.270901 
L 144.512429 9.259369 
L 144.855913 13.151237 
L 144.923913 12.920943 
L 144.994928 13.494101 
L 145.21655 12.706851 
L 145.425298 11.134602 
L 145.526495 11.46425 
L 145.577149 11.135811 
L 145.62991 11.643177 
L 145.715103 10.525134 
L 145.921274 12.584801 
L 145.990494 13.147658 
L 146.07407 11.720503 
L 146.183471 12.560386 
L 146.402218 10.238701 
L 146.452794 11.96866 
L 146.506419 11.01557 
L 146.626981 9.719167 
L 146.695377 10.187901 
L 146.763598 10.883677 
L 146.849252 10.024866 
L 146.918654 11.729394 
L 146.989497 11.499877 
L 147.094435 12.364409 
L 147.211593 10.663008 
L 147.262714 11.452281 
L 147.401872 11.592688 
L 147.416978 10.713995 
L 147.576203 10.762718 
L 147.676605 10.539958 
L 147.778587 11.227794 
L 147.917788 13.794949 
L 148.001869 13.685076 
L 148.244192 14.56546 
L 148.276209 13.437623 
L 148.328076 13.680979 
L 148.482706 13.236886 
L 148.688893 10.978604 
L 149.049799 9.84505 
L 149.118654 10.061743 
L 149.187124 9.375568 
L 149.411036 12.305947 
L 149.465176 11.402933 
L 149.686634 13.098272 
L 149.825504 13.211308 
L 149.892611 13.906983 
L 149.928368 13.38607 
L 150.321806 9.442381 
L 150.463817 9.31997 
L 150.658416 8.390819 
L 150.683145 8.918014 
L 150.759753 8.340934 
L 151.028581 9.788488 
L 151.149029 9.977551 
L 151.185089 9.433313 
L 151.26879 9.5526 
L 151.322294 10.771227 
L 151.406604 10.564462 
L 151.475167 10.511344 
L 151.528091 10.199732 
L 151.681406 10.527858 
L 151.81864 13.136331 
L 151.887753 13.872671 
L 151.956898 13.824051 
L 152.094894 11.815174 
L 152.116493 12.897158 
L 152.45813 10.288114 
L 152.523098 9.998483 
L 152.711369 8.203806 
L 152.745779 9.397471 
L 152.831098 8.888168 
L 152.901547 9.544395 
L 153.227972 6.033668 
L 153.587376 9.569246 
L 153.675015 10.140316 
L 153.965174 14.795307 
L 154.019025 14.526077 
L 154.092863 15.023056 
L 154.226797 14.830649 
L 154.294435 15.373534 
L 154.394557 15.067722 
L 154.465566 13.647559 
L 154.535325 13.911512 
L 154.584761 13.647466 
L 154.735774 13.564288 
L 154.741536 14.005287 
L 154.80892 13.386062 
L 154.877581 12.991379 
L 154.946802 11.652227 
L 155.039647 11.90129 
L 155.104275 11.670804 
L 155.187355 12.899931 
L 155.515868 10.134959 
L 155.600491 10.448076 
L 155.791417 12.910475 
L 155.876155 12.683099 
L 155.945862 12.656547 
L 156.289368 14.943637 
L 156.391851 13.600424 
L 156.442699 13.789216 
L 156.546563 13.079601 
L 156.667931 14.673644 
L 156.872412 13.089201 
L 157.026768 14.757151 
L 157.080278 14.537135 
L 157.422378 10.956917 
L 157.577335 12.771867 
L 157.799772 10.87811 
L 157.90314 11.517351 
L 158.074979 9.6688 
L 158.148794 10.315312 
L 158.470829 7.685795 
L 158.641948 9.526093 
L 158.727894 8.407354 
L 158.847575 11.139811 
L 159.271432 9.779508 
L 159.283981 10.673728 
L 159.351921 9.365608 
L 159.423782 9.982253 
L 159.561393 7.004543 
L 159.67398 8.152116 
L 159.715787 7.879736 
L 159.854042 8.715424 
L 159.941678 7.436272 
L 160.288094 9.359655 
L 160.339995 8.447713 
L 160.407176 9.466916 
L 160.474198 9.207449 
L 160.621 10.454223 
L 160.722391 9.336333 
L 160.849311 10.850612 
L 160.997745 14.477592 
L 161.067668 15.115093 
L 161.154303 12.683699 
L 161.193347 13.260593 
L 161.276048 13.325561 
L 161.47814 13.934159 
L 161.551126 13.236937 
L 161.633016 10.723658 
L 161.68745 11.165918 
L 161.770083 10.367712 
L 161.839576 12.088126 
L 162.250839 7.169121 
L 162.308083 8.055368 
L 162.331349 7.589998 
L 162.543011 6.595456 
L 162.835322 11.320401 
L 162.903557 11.485055 
L 162.972275 9.102888 
L 163.044257 10.559231 
L 163.10951 10.355066 
L 163.183035 10.80848 
L 163.324157 8.920548 
L 163.390462 8.950702 
L 163.680397 13.691755 
L 163.712455 13.350972 
L 163.748565 13.416512 
L 163.818369 13.84065 
L 163.887728 13.188266 
L 164.040796 14.82798 
L 164.109538 14.774636 
L 164.179112 14.184919 
L 164.247997 14.918717 
L 164.316562 14.55024 
L 164.530285 11.710644 
L 164.678295 13.36286 
L 164.745979 13.369936 
L 164.814077 13.511571 
L 164.968666 9.313595 
L 165.024169 10.458492 
L 165.198932 11.912464 
L 165.24338 11.608387 
L 165.381071 9.949242 
L 165.453669 10.529741 
L 165.590054 9.738378 
L 165.674837 9.57372 
L 165.741954 10.189659 
L 165.87902 8.995859 
L 166.119489 11.956549 
L 166.171029 10.941705 
L 166.226913 11.132986 
L 166.292342 12.507122 
L 166.446808 11.297826 
L 166.583337 13.594583 
L 166.6531 13.218869 
L 166.730072 12.629108 
L 166.806307 12.787761 
L 166.88664 12.767644 
L 166.949401 13.113574 
L 167.029562 12.006082 
L 167.115674 13.902399 
L 167.167116 13.371178 
L 167.218663 13.377007 
L 167.310499 11.261577 
L 167.443019 11.438678 
L 167.546473 11.539935 
L 167.597852 10.672289 
L 167.722415 11.44053 
L 167.804501 11.49258 
L 167.909556 11.297402 
L 167.926948 11.331672 
L 168.096715 12.412234 
L 168.148975 12.280082 
L 168.216813 11.707647 
L 168.285813 12.13998 
L 168.375636 10.824042 
L 168.441517 10.959013 
L 168.510776 10.830461 
L 168.721669 9.565971 
L 168.802968 10.709572 
L 168.879853 10.021064 
L 168.93952 10.264383 
L 169.215308 9.510814 
L 169.351305 10.72401 
L 169.436955 10.597153 
L 169.640962 9.149411 
L 169.847689 11.321654 
L 169.950477 10.121615 
L 170.001444 11.072519 
L 170.122305 9.881529 
L 170.294615 10.877846 
L 170.483113 9.982322 
L 170.509537 9.674442 
L 170.708235 11.117403 
L 170.792355 11.34798 
L 170.908447 11.115705 
L 171.07766 12.31197 
L 171.141852 11.632189 
L 171.257828 12.2753 
L 171.297609 11.84916 
L 171.346006 12.735523 
L 171.412278 12.695494 
L 171.550653 12.498848 
L 171.584858 11.683358 
L 171.654093 11.767894 
L 171.723553 11.02939 
L 171.776146 11.11851 
L 171.847189 11.300252 
L 171.919433 9.795279 
L 172.055088 9.646858 
L 172.132044 10.472609 
L 172.207607 10.210198 
L 172.414252 11.038022 
L 172.483069 9.522304 
L 172.688512 11.29614 
L 172.757628 11.583867 
L 172.80961 9.386884 
L 172.843194 9.468703 
L 172.965248 9.543821 
L 173.122294 7.934649 
L 173.20387 10.073859 
L 173.272675 9.815063 
L 173.61709 12.402896 
L 173.7717 11.03132 
L 173.882566 12.641968 
L 173.964374 12.070661 
L 174.021133 12.793945 
L 174.050044 11.465741 
L 174.136357 12.040121 
L 174.300498 11.209274 
L 174.32504 11.795434 
L 174.496749 12.156579 
L 174.550119 10.103165 
L 174.617351 10.291689 
L 174.710152 9.059981 
L 174.793714 9.818769 
L 174.858378 8.820153 
L 174.909477 9.324476 
L 174.979483 9.242128 
L 175.047874 9.388461 
L 175.134367 10.543651 
L 175.202951 9.276772 
L 175.254268 11.215296 
L 175.322066 10.821632 
L 175.425793 10.690699 
L 175.614825 8.579184 
L 175.751892 9.161917 
L 175.820837 7.87442 
L 175.889521 9.458041 
L 175.964462 8.978632 
L 176.113015 9.631411 
L 176.254072 12.735797 
L 176.396897 11.884384 
L 176.466468 12.117818 
L 176.541845 11.926004 
L 176.680198 12.826393 
L 176.869062 13.600153 
L 176.972268 12.472004 
L 177.041138 13.080342 
L 177.127793 12.873731 
L 177.264466 11.342298 
L 177.401812 12.26502 
L 177.522458 9.571227 
L 177.608544 10.43188 
L 177.730069 10.50377 
L 177.797843 10.939783 
L 177.866515 9.883293 
L 177.959489 10.74328 
L 178.038649 10.526255 
L 178.125646 9.908451 
L 178.245326 13.365488 
L 178.312448 12.506382 
L 178.381246 12.46724 
L 178.4508 12.629669 
L 178.536171 13.615078 
L 178.741555 12.820637 
L 178.86432 12.248832 
L 178.949038 12.40212 
L 179.000031 12.131632 
L 179.085269 13.177627 
L 179.223459 12.135442 
L 179.257517 12.220739 
L 179.31107 12.793139 
L 179.379477 11.850266 
L 179.517213 13.244032 
L 179.755187 11.826011 
L 179.844047 12.433536 
L 179.893338 11.393452 
L 180.012985 11.500592 
L 180.166993 10.724624 
L 180.252927 10.20881 
L 180.307986 8.220771 
L 180.464145 7.947721 
L 180.960276 10.019883 
L 181.151619 13.552893 
L 181.218965 13.649393 
L 181.294007 14.558202 
L 181.391259 14.137189 
L 181.442664 14.899235 
L 181.52011 14.793579 
L 181.718028 13.301433 
L 181.78741 13.815156 
L 182.009297 11.174487 
L 182.078305 11.616184 
L 182.146703 10.786571 
L 182.232668 12.463267 
L 182.284291 12.413397 
L 182.35855 12.407591 
L 182.44012 12.755803 
L 182.531409 12.198941 
L 182.59235 12.741346 
L 182.644189 11.579555 
L 182.782266 12.243437 
L 182.798334 11.878727 
L 183.076165 9.171386 
L 183.248531 8.829894 
L 183.279769 8.91877 
L 183.401585 10.128054 
L 183.434763 9.408764 
L 183.505814 9.274594 
L 183.662575 11.188002 
L 183.7263 11.175263 
L 183.830047 11.133693 
L 183.872979 11.364034 
L 183.935011 11.698865 
L 184.003229 10.569715 
L 184.089382 10.496996 
L 184.209609 11.341778 
L 184.449676 9.636602 
L 184.52037 9.867435 
L 184.574878 9.676621 
L 184.761023 11.61075 
L 184.778002 11.429979 
L 184.845926 9.820996 
L 184.966257 10.532167 
L 185.207091 13.452476 
L 185.277353 14.105401 
L 185.411989 12.808203 
L 185.501857 12.578916 
L 185.54955 13.169259 
L 185.707424 10.55744 
L 185.79079 10.174245 
L 185.842124 10.58365 
L 185.986621 8.471207 
L 186.205278 10.313547 
L 186.271627 10.015287 
L 186.443176 11.560273 
L 186.504643 11.396435 
L 186.565621 11.516347 
L 186.701436 12.759918 
L 186.90818 10.274323 
L 187.044086 10.694897 
L 187.130601 11.189645 
L 187.198618 10.612719 
L 187.336557 11.848717 
L 187.473629 10.90137 
L 187.56258 11.437717 
L 187.731638 10.863591 
L 187.767581 10.977046 
L 187.835254 11.231667 
L 188.007093 9.558537 
L 188.057937 9.91263 
L 188.144615 9.889393 
L 188.251292 10.14759 
L 188.332158 10.536003 
L 188.591716 8.86927 
L 188.624491 10.949778 
L 188.693676 9.512064 
L 188.755106 8.421025 
L 188.830981 8.890806 
L 188.899757 10.212362 
L 188.98584 8.617407 
L 189.037019 9.573965 
L 189.173852 11.003309 
L 189.319362 9.30311 
L 189.465873 11.46396 
L 189.585987 11.073601 
L 189.655858 11.135266 
L 189.672325 11.66731 
L 189.741987 11.616293 
L 189.812849 9.905921 
L 189.896115 10.165101 
L 189.999712 9.933223 
L 190.051477 10.232166 
L 190.205858 8.801039 
L 190.394348 7.924848 
L 190.4532 8.215198 
L 190.755183 11.066699 
L 190.875346 10.588544 
L 191.013241 9.587226 
L 191.030007 9.5935 
L 191.09958 10.617529 
L 191.167827 9.749923 
L 191.236243 10.725008 
L 191.447684 8.313254 
L 191.667074 10.993027 
L 191.820791 9.614775 
L 191.891621 10.56959 
L 192.027607 9.604533 
L 192.167954 10.333539 
L 192.321095 9.122665 
L 192.440316 10.806822 
L 192.525379 9.964689 
L 192.734149 11.37958 
L 192.801222 10.438094 
L 192.937894 10.975856 
L 193.042638 12.951286 
L 193.079995 12.690046 
L 193.231692 13.862141 
L 193.334884 13.54608 
L 193.393051 12.758724 
L 193.437434 12.78774 
L 193.525076 12.756943 
L 193.595627 12.586499 
L 193.664966 11.618055 
L 193.749724 11.78832 
L 194.016858 10.688734 
L 194.232248 12.256924 
L 194.299751 12.069468 
L 194.377852 12.279029 
L 194.442026 11.435378 
L 194.511049 11.781819 
L 194.66663 13.011631 
L 194.718493 11.46062 
L 194.811083 12.142461 
L 194.872793 11.5136 
L 194.941155 11.824575 
L 195.008938 11.493719 
L 195.198008 12.299067 
L 195.301086 11.24564 
L 195.369847 10.445992 
L 195.422861 11.737744 
L 195.650942 8.792074 
L 195.720185 9.972492 
L 195.782834 9.647824 
L 195.869533 9.675149 
L 196.007118 10.259079 
L 196.102655 9.760996 
L 196.197744 8.2889 
L 196.231453 8.628503 
L 196.369926 11.079573 
L 196.421276 10.464827 
L 196.575972 11.193489 
L 196.593502 10.155396 
L 196.646054 11.277797 
L 196.71475 11.421414 
L 196.851158 12.911773 
L 196.940053 12.818974 
L 196.992093 12.145521 
L 197.143472 12.697967 
L 197.489295 9.697166 
L 197.575441 9.878007 
L 197.704014 11.501998 
L 197.712465 10.840551 
L 197.850164 9.63854 
L 198.056962 11.448329 
L 198.165301 10.719081 
L 198.298094 12.54387 
L 198.419106 10.307834 
L 198.598186 11.727666 
L 198.69644 11.615862 
L 198.768001 10.891392 
L 198.836621 11.983184 
L 198.9061 11.80748 
L 198.973793 11.575005 
L 199.059329 12.039652 
L 199.266135 14.146146 
L 199.45492 13.499424 
L 199.488832 14.260071 
L 199.629705 13.639835 
L 199.694752 13.736015 
L 199.763576 14.752251 
L 199.850802 14.541009 
L 199.901306 13.579243 
L 199.988898 13.590348 
L 200.056553 14.299728 
L 200.22877 13.179758 
L 200.331492 13.682833 
L 200.710266 10.58694 
L 200.821066 10.795912 
L 200.898184 11.551714 
L 201.039588 9.916032 
L 201.109376 10.044562 
L 201.208833 10.541604 
L 201.259084 10.100667 
L 201.36174 11.286544 
L 201.502381 10.215052 
L 201.621086 8.684051 
L 201.673476 9.180202 
L 201.779275 8.599803 
L 201.83946 8.842659 
L 201.914501 8.617002 
L 201.999171 9.920528 
L 202.035641 7.750487 
L 202.399267 9.654126 
L 202.534218 9.334342 
L 202.601965 10.10572 
L 202.671955 9.216493 
L 202.83057 10.314853 
L 202.904805 11.47421 
L 202.996906 11.214872 
L 203.236645 12.929582 
L 203.320823 11.682708 
L 203.461043 12.995019 
L 203.47502 11.463674 
L 203.545044 12.627501 
L 203.666063 12.276225 
L 203.820399 13.058335 
L 204.18009 10.176272 
L 204.283013 9.797553 
L 204.52363 6.993804 
L 204.743345 8.299631 
L 204.906876 8.728228 
L 205.126118 10.083617 
L 205.231279 11.582187 
L 205.332023 10.678162 
L 205.420251 11.960207 
L 205.452037 11.273041 
L 205.555396 12.022821 
L 205.731554 13.535877 
L 205.851218 13.55774 
L 205.86849 13.696129 
L 205.925982 12.61867 
L 205.956569 13.353501 
L 206.159945 13.275089 
L 206.229375 12.933656 
L 206.331847 11.437908 
L 206.400859 11.458422 
L 206.451914 11.454484 
L 206.521096 10.068371 
L 206.589533 10.50622 
L 206.660031 9.984683 
L 206.733523 11.31642 
L 206.796723 11.090895 
L 206.950143 10.989708 
L 207.004599 10.254754 
L 207.018874 10.37762 
L 207.089694 11.246442 
L 207.156068 10.168282 
L 207.226156 10.24562 
L 207.310825 10.17137 
L 207.364588 10.464914 
L 207.569737 10.036394 
L 207.733238 11.340732 
L 207.817321 9.931305 
L 207.938053 11.522189 
L 208.058607 11.468351 
L 208.092858 10.869492 
L 208.213385 11.966894 
L 208.283962 11.143248 
L 208.357046 11.910602 
L 208.436129 11.61219 
L 208.573134 12.39857 
L 208.802925 11.383014 
L 209.073688 9.234151 
L 209.280802 9.965472 
L 209.348415 10.195313 
L 209.483831 10.188362 
L 209.640692 11.986919 
L 209.709857 11.764536 
L 209.778122 12.452671 
L 209.863968 12.323963 
L 210.002556 11.025762 
L 210.055097 11.456801 
L 210.070045 10.285615 
L 210.18366 10.373632 
L 210.209179 10.748645 
L 210.302645 10.349166 
L 210.381596 9.47158 
L 210.471478 11.115772 
L 210.502858 10.566943 
L 210.707988 9.842216 
L 210.782489 9.975332 
L 210.845175 10.615267 
L 210.950484 10.468985 
L 211.00005 10.652624 
L 211.239709 7.718845 
L 211.291335 8.600357 
L 211.36061 8.483329 
L 211.463367 8.210501 
L 211.550742 8.897821 
L 211.619606 8.432039 
L 211.703734 6.537132 
L 212.132937 10.016333 
L 212.242758 10.064696 
L 212.397036 11.055655 
L 212.408345 12.151458 
L 212.478151 12.112691 
L 212.547592 11.11055 
L 212.562731 11.764917 
L 212.614753 11.834351 
L 212.701086 11.126146 
L 212.76942 11.719459 
L 213.043702 8.195775 
L 213.266671 9.762152 
L 213.307258 9.498312 
L 213.421942 8.862359 
L 213.476235 9.17146 
L 213.544494 10.559723 
L 213.764752 9.449746 
L 213.90343 8.720354 
L 214.041597 9.223057 
L 214.108234 10.414141 
L 214.323181 9.506473 
L 214.475559 11.380634 
L 214.541623 11.933709 
L 214.680493 10.824671 
L 214.749925 11.570956 
L 214.860996 10.76054 
L 214.89253 10.804012 
L 214.958509 10.876723 
L 215.041998 10.743222 
L 215.110296 11.190954 
L 215.249546 10.211642 
L 215.318586 11.055569 
L 215.403933 10.477619 
L 215.471931 10.705078 
L 215.592649 10.533309 
L 215.661504 10.623091 
L 215.695805 11.507709 
L 215.769548 10.704114 
L 215.852995 11.145565 
L 215.904531 12.09076 
L 215.954296 11.985456 
L 216.022746 12.091707 
L 216.09357 12.877211 
L 216.177608 11.713519 
L 216.245859 11.777226 
L 216.407364 10.434562 
L 216.452938 11.652774 
L 216.524434 10.709309 
L 216.608299 10.228966 
L 216.676417 10.366142 
L 216.762333 10.469069 
L 216.967254 9.044501 
L 217.070262 9.747111 
L 217.471631 7.220834 
L 217.606007 8.500555 
L 217.731272 9.825752 
L 217.831344 10.228416 
L 217.949814 9.285646 
L 218.156196 12.876716 
L 218.224142 12.60813 
L 218.360783 11.9249 
L 218.596385 13.84138 
L 218.655419 13.992246 
L 219.168597 7.637214 
L 219.255253 8.021606 
L 219.307737 7.264891 
L 219.36001 8.241244 
L 219.375756 7.26047 
L 219.512893 6.690558 
L 219.672903 8.079673 
L 219.808638 8.096164 
L 219.878805 9.924122 
L 219.931164 9.298526 
L 220.012771 10.705677 
L 220.082035 9.918304 
L 220.263361 11.404408 
L 220.381819 10.263742 
L 220.503217 10.25113 
L 220.658721 11.050806 
L 220.725668 10.779986 
L 220.870628 11.02143 
L 221.055284 12.252947 
L 221.069162 11.771957 
L 221.137828 11.622627 
L 221.241226 11.080857 
L 221.292141 11.405846 
L 221.414246 11.661129 
L 221.500732 11.353539 
L 221.588457 11.17648 
L 221.639733 10.76444 
L 221.997744 13.968493 
L 222.135879 12.901791 
L 222.34491 14.385263 
L 222.428157 14.137094 
L 222.49862 14.339856 
L 222.707604 11.796023 
L 222.789738 12.015733 
L 222.858315 12.922716 
L 223.137165 9.956426 
L 223.287751 11.893153 
L 223.345585 11.470618 
L 223.447648 11.576808 
L 223.494346 10.126312 
L 223.562436 10.15277 
L 223.77292 10.763891 
L 223.992413 9.54072 
L 224.079305 9.770598 
L 224.287555 11.149864 
L 224.353489 11.089 
L 224.421782 10.552208 
L 224.627275 12.114297 
L 224.713816 12.190666 
L 224.988213 10.533909 
L 225.124868 11.729973 
L 225.194079 11.560174 
L 225.263071 11.717919 
L 225.349132 12.267347 
L 225.400343 12.142007 
L 225.624673 12.68703 
L 225.784601 12.645852 
L 225.880328 12.225457 
L 225.968188 13.272592 
L 226.053091 11.525559 
L 226.121059 11.633732 
L 226.191475 11.897142 
L 226.258604 11.821874 
L 226.331905 11.113062 
L 226.415129 11.676836 
L 226.48601 11.611585 
L 226.571752 11.388239 
L 226.624306 10.276886 
L 226.709433 10.508052 
L 226.760563 11.656864 
L 226.985353 9.702169 
L 227.070454 10.558728 
L 227.107247 10.355066 
L 227.192072 9.89431 
L 227.604542 11.504954 
L 227.689993 10.760409 
L 227.810319 11.072913 
L 228.176658 8.414913 
L 228.242363 8.521782 
L 228.325576 9.389569 
L 228.394334 9.054448 
L 228.602067 8.009346 
L 228.806829 9.60008 
L 228.908442 9.797997 
L 229.03365 8.17512 
L 229.14869 8.624745 
L 229.303073 12.197214 
L 229.371434 12.855784 
L 229.405794 11.680586 
L 229.478215 12.670522 
L 229.595199 10.737914 
L 229.824868 12.708348 
L 230.024807 9.255859 
L 230.097175 10.140822 
L 230.178518 9.906131 
L 230.247404 10.028736 
L 230.370508 11.112098 
L 230.454408 9.965022 
L 230.523028 10.371468 
L 230.59201 9.615163 
L 230.661566 10.074618 
L 230.780124 9.741435 
L 230.81491 10.146128 
L 230.882844 10.052291 
L 230.969243 10.501453 
L 231.056438 10.256339 
L 231.188184 11.347324 
L 231.301318 10.396469 
L 231.446566 12.774488 
L 231.461976 10.579225 
L 231.52015 10.761759 
L 231.723587 10.252941 
L 231.810038 9.402382 
L 231.861838 9.839965 
L 232.032707 12.421205 
L 232.085851 10.636605 
L 232.188124 10.993202 
L 232.18829 9.591977 
L 232.224833 11.674306 
L 232.411747 10.904045 
L 232.44506 11.586403 
L 232.514693 11.086992 
L 232.582114 10.923029 
L 232.794822 9.186064 
L 232.86 9.71055 
L 232.926112 8.903056 
L 233.014062 9.028115 
L 233.288083 11.485032 
L 233.356297 11.775459 
L 233.440799 11.559418 
L 233.510835 12.952601 
L 233.578903 12.681416 
L 233.716025 13.734426 
L 233.922595 12.122914 
L 234.010871 12.300518 
L 234.214659 11.364939 
L 234.283196 11.824029 
L 234.425344 11.282295 
L 234.492476 11.401293 
L 234.55847 12.155822 
L 234.849494 10.287306 
L 234.919768 10.543805 
L 234.997349 10.455103 
L 235.347646 9.020161 
L 235.485695 9.647971 
L 235.556229 10.336349 
L 235.624257 9.900667 
L 235.849804 11.547366 
L 235.985563 9.644955 
L 236.157448 10.868136 
L 236.262169 10.363386 
L 236.345815 10.759178 
L 236.432886 10.662331 
L 236.484786 9.204669 
L 236.586785 9.668837 
L 236.694511 11.369384 
L 236.776516 10.976766 
L 236.84534 10.801836 
L 236.914707 10.838596 
L 236.982413 11.563813 
L 237.050696 10.669897 
L 237.131504 10.967902 
L 237.137717 13.748466 
L 237.205486 9.834891 
L 237.447154 12.187034 
L 237.54922 11.733494 
L 237.617299 11.918631 
L 237.702978 10.309113 
L 237.755471 10.622319 
L 237.910055 12.231686 
L 238.064497 10.636893 
L 238.185964 12.33162 
L 238.304472 12.21355 
L 238.42493 13.401687 
L 238.544706 12.497055 
L 238.631091 10.712079 
L 238.682203 11.353213 
L 238.752317 11.084286 
L 238.922765 8.964523 
L 238.97467 9.726595 
L 239.097366 9.051465 
L 239.11505 9.535944 
L 239.320953 12.164481 
L 239.404257 11.262071 
L 239.801765 13.251827 
L 239.910324 12.191974 
L 239.959102 12.726448 
L 240.042355 12.927746 
L 240.134668 13.982764 
L 240.283832 12.340149 
L 240.316418 12.519821 
L 240.437625 12.606157 
L 240.455637 12.125648 
L 240.676976 13.652285 
L 240.835967 12.518341 
L 240.900823 12.613875 
L 240.969684 13.030808 
L 241.107409 10.316193 
L 241.193433 10.97197 
L 241.313433 9.225029 
L 241.399744 8.953114 
L 241.473745 10.145155 
L 241.536579 8.944437 
L 241.657575 9.058439 
L 241.829942 12.141263 
L 241.89771 11.351855 
L 242.103402 11.893937 
L 242.251897 10.941325 
L 242.326577 11.626635 
L 242.344746 11.567554 
L 242.466364 7.398059 
L 242.5176 7.734492 
L 242.739717 8.940275 
L 242.85972 9.612162 
L 242.894483 9.435018 
L 242.946306 9.292607 
L 243.255677 13.352824 
L 243.306929 12.024959 
L 243.375706 12.961624 
L 243.60909 8.904924 
L 243.690779 9.656421 
L 243.808533 8.254242 
L 243.944999 8.582028 
L 244.031529 9.884558 
L 244.133642 8.848578 
L 244.494528 13.938666 
L 244.515002 13.910436 
L 244.581951 13.12755 
L 244.65043 13.386683 
L 244.718401 13.465507 
L 244.805138 14.390833 
L 245.087227 10.401473 
L 245.150298 9.849986 
L 245.390734 11.499146 
L 245.509771 9.941131 
L 245.715393 11.602717 
L 245.785047 10.274488 
L 246.004546 11.822697 
L 246.211324 9.196051 
L 246.364883 10.445156 
L 246.433116 10.06594 
L 246.502025 10.347363 
L 246.707381 6.770514 
L 246.93043 9.245765 
L 247.06791 8.340887 
L 247.139167 8.817348 
L 247.274439 10.454411 
L 247.343957 9.889736 
L 247.41525 11.502117 
L 247.498368 11.299453 
L 247.566619 11.165027 
L 247.634697 11.525752 
L 247.705279 10.968662 
L 247.995877 13.311994 
L 248.133645 12.502685 
L 248.278597 12.538228 
L 248.341798 12.447233 
L 248.51738 12.796827 
L 248.700204 10.825724 
L 248.768948 11.576084 
L 248.907824 10.6238 
L 248.924136 12.279492 
L 248.992829 10.368033 
L 249.198956 10.431861 
L 249.303448 9.75397 
L 249.408317 11.703461 
L 249.490542 11.429323 
L 249.731575 14.555035 
L 249.920144 11.995239 
L 250.110413 12.865056 
L 250.199359 13.007744 
L 250.281467 12.593921 
L 250.430033 10.491317 
L 250.470381 10.741056 
L 250.564794 9.893355 
L 250.668564 10.440799 
L 250.788392 8.546624 
L 250.976916 5.853333 
L 251.320894 9.429752 
L 251.407177 10.810037 
L 251.560838 9.765153 
L 251.69921 9.663668 
L 251.750363 8.92515 
L 251.835592 9.259808 
L 252.007109 8.269182 
L 252.144937 6.676405 
L 252.196471 7.33181 
L 252.28271 6.491547 
L 252.472812 9.326072 
L 252.677826 8.748697 
L 252.832372 10.420434 
L 252.901987 9.804639 
L 253.106454 12.16682 
L 253.182577 11.128375 
L 253.252586 12.341468 
L 253.356169 11.222191 
L 253.612989 14.878118 
L 253.819708 12.59716 
L 253.924196 13.131423 
L 253.995282 12.075111 
L 254.043686 13.170683 
L 254.094981 13.037321 
L 254.425175 9.269837 
L 254.456219 10.784782 
L 254.524629 9.735182 
L 254.679849 10.72052 
L 254.81831 8.306147 
L 254.923817 8.695316 
L 255.099924 11.787836 
L 255.163403 10.557254 
L 255.231178 11.277387 
L 255.351896 10.762521 
L 255.39554 11.816992 
L 255.55192 11.831576 
L 255.736461 10.123048 
L 255.867496 10.367103 
L 255.884614 10.285679 
L 256.004664 9.61478 
L 256.16099 7.6296 
L 256.315323 8.57391 
L 256.402875 8.212899 
L 256.453434 8.826427 
L 256.513204 8.21313 
L 256.593512 9.064549 
L 256.734259 8.659201 
L 256.762062 10.309004 
L 256.814272 9.6845 
L 256.90355 10.243482 
L 256.954329 11.310814 
L 257.020605 11.205232 
L 257.159144 11.188153 
L 257.32329 9.884005 
L 257.48721 9.959764 
L 257.591169 10.979254 
L 257.661174 10.008849 
L 257.729538 10.598444 
L 257.81323 10.068393 
L 257.899653 10.274128 
L 258.007153 11.256711 
L 258.106273 11.017763 
L 258.156807 11.694797 
L 258.24364 10.994767 
L 258.380543 11.168833 
L 258.433692 10.240845 
L 258.555043 11.557064 
L 258.588363 11.113435 
L 258.677993 10.614521 
L 258.861834 8.815315 
L 258.934635 8.777422 
L 259.137237 8.478644 
L 259.225813 8.623288 
L 259.274979 8.045738 
L 259.309164 8.62184 
L 259.411942 7.956127 
L 259.497922 10.283517 
L 259.570297 9.561102 
L 259.636853 10.784574 
L 259.705226 10.077879 
L 259.721458 8.877903 
L 259.790509 10.331 
L 260.014294 12.04338 
L 260.083466 13.432621 
L 260.134549 12.684622 
L 260.237748 11.976705 
L 260.306152 13.132661 
L 260.361245 12.039219 
L 260.445051 12.841024 
L 260.51785 11.447342 
L 260.701486 13.018027 
L 260.872793 10.581603 
L 261.080195 9.112678 
L 261.167341 9.082847 
L 261.183572 8.791153 
L 261.337388 10.818155 
L 261.439944 11.178403 
L 261.491179 10.081829 
L 261.560871 11.189753 
L 261.654123 11.033281 
L 261.703527 10.033803 
L 261.771203 11.208267 
L 261.853131 10.894677 
L 262.128414 7.317942 
L 262.213637 8.655362 
L 262.346146 8.307159 
L 262.353696 7.043508 
L 262.419991 8.584335 
L 262.597434 8.244858 
L 262.628386 9.720919 
L 262.695166 9.551359 
L 262.763402 9.356623 
L 263.055344 13.098411 
L 263.124507 12.888562 
L 263.193009 11.953948 
L 263.264541 13.184345 
L 263.488034 9.977285 
L 263.622395 10.843952 
L 263.691405 11.028433 
L 263.794962 10.163007 
L 263.846358 10.191956 
L 263.932368 10.021226 
L 263.98325 9.52575 
L 264.069259 9.75004 
L 264.19197 12.651384 
L 264.326448 12.342559 
L 264.41285 10.091591 
L 264.782097 13.661113 
L 264.865642 13.104993 
L 265.106885 15.140546 
L 265.242938 14.502431 
L 265.467476 12.327898 
L 265.520661 12.935921 
L 265.800018 9.082081 
L 266.052107 11.694965 
L 266.20649 10.769237 
L 266.452523 14.535698 
L 266.524387 13.384063 
L 266.744382 11.302329 
L 266.891126 11.534922 
L 266.950637 11.04771 
L 267.037867 9.243022 
L 267.117193 7.950445 
L 267.17767 8.489428 
L 267.348521 9.250582 
L 267.484691 10.717819 
L 267.484822 13.784635 
L 267.542716 12.060019 
L 267.605152 11.87512 
L 267.830059 13.920297 
L 267.882835 12.581661 
L 267.966609 13.055995 
L 268.077601 13.215911 
L 268.175738 11.698193 
L 268.447774 11.160417 
L 268.51728 11.914351 
L 268.553258 10.719547 
L 268.626557 11.889781 
L 268.671639 12.058157 
L 268.756761 11.845642 
L 268.844815 11.242142 
L 268.889045 11.253666 
L 268.998441 11.938763 
L 269.031973 11.736488 
L 269.083093 11.672263 
L 269.170176 10.24328 
L 269.238237 10.741408 
L 269.375594 10.47809 
L 269.445264 10.700178 
L 269.546686 13.010001 
L 269.597975 12.811608 
L 269.676678 12.470897 
L 269.736422 13.228004 
L 269.902175 13.864001 
L 269.960107 15.101656 
L 270.01614 15.076719 
L 270.097799 15.896717 
L 270.305041 14.805772 
L 270.374928 14.628009 
L 270.443696 14.146946 
L 270.509702 14.428141 
L 270.577792 14.899019 
L 270.698483 14.891036 
L 270.752062 16.097709 
L 270.938697 14.531263 
L 271.058883 14.469627 
L 271.076386 14.165512 
L 271.147534 14.741528 
L 271.322141 13.807612 
L 271.57547 10.954291 
L 271.6507 11.47355 
L 271.747264 11.3628 
L 272.039061 8.962252 
L 272.141926 9.760136 
L 272.210589 9.224101 
L 272.300714 10.766002 
L 272.426266 8.897077 
L 272.519511 8.723734 
L 272.674123 10.365603 
L 272.811124 9.87063 
L 272.897388 9.198881 
L 272.932459 9.954726 
L 273.000754 8.647 
L 273.068949 10.100917 
L 273.138315 9.642482 
L 273.224436 9.843 
L 273.284124 9.308919 
L 273.430432 10.364891 
L 273.567654 9.187448 
L 273.982708 13.183322 
L 274.063092 13.250966 
L 274.220858 12.609135 
L 274.333098 13.152451 
L 274.496061 10.609561 
L 274.58183 11.112337 
L 274.702424 8.235731 
L 274.806045 7.947946 
L 274.977745 9.406925 
L 275.166838 8.778552 
L 275.237017 8.809946 
L 275.273374 8.518944 
L 275.493199 10.081604 
L 275.580968 9.864043 
L 275.974812 12.081402 
L 276.077394 11.016954 
L 276.128662 11.689555 
L 276.216291 10.957511 
L 276.265967 11.069746 
L 276.352221 11.14426 
L 276.405957 10.916512 
L 276.473701 12.028759 
L 276.489208 11.960937 
L 276.729776 10.449213 
L 276.918976 11.901059 
L 277.054833 11.428608 
L 277.262491 8.268307 
L 277.400036 8.513714 
L 277.47132 9.252518 
L 277.623466 7.789558 
L 277.966839 10.528255 
L 278.139161 10.179151 
L 278.19022 8.240822 
L 278.3482 9.79859 
L 278.39738 9.733512 
L 278.464944 9.330649 
L 278.757896 12.467175 
L 278.825936 12.12109 
L 278.912291 13.628169 
L 278.963459 13.49433 
L 279.049059 13.334777 
L 279.113978 12.191072 
L 279.182493 12.213887 
L 279.469865 9.045907 
L 279.538413 9.75934 
L 279.611113 9.805284 
L 279.67728 10.043756 
L 279.780524 9.028985 
L 279.833415 9.488847 
L 279.920664 9.399264 
L 279.96107 10.966356 
L 280.177399 9.334052 
L 280.418834 7.987796 
L 280.453986 8.276161 
L 280.521854 8.28271 
L 280.660725 7.202284 
L 280.950678 10.475384 
L 281.019531 10.339289 
L 281.24195 11.396214 
L 281.312889 11.691864 
L 281.451321 11.438624 
L 281.52061 13.452094 
L 281.591063 13.314692 
L 281.673588 12.671107 
L 281.741968 13.408957 
L 281.809987 12.756945 
L 281.878514 13.802806 
L 281.9485 12.749885 
L 282.033585 14.075547 
L 282.085038 13.353992 
L 282.308817 11.633411 
L 282.381208 13.020702 
L 282.541524 12.378548 
L 282.550105 12.873704 
L 282.584783 12.308978 
L 282.678326 12.277164 
L 282.949544 10.630682 
L 283.018304 11.172786 
L 283.083966 10.34361 
L 283.15293 11.812712 
L 283.221188 11.299228 
L 283.429045 13.01585 
L 283.502357 12.801928 
L 283.58307 12.848131 
L 283.651237 12.92447 
L 284.081842 6.174963 
L 284.579578 8.381184 
L 284.632049 8.284684 
L 284.837165 10.188659 
L 284.895476 9.571106 
L 284.941001 10.390592 
L 285.098352 8.474698 
L 285.198755 9.05334 
L 285.283878 8.180119 
L 285.369509 10.786331 
L 285.456252 9.292026 
L 285.506762 9.429132 
L 285.561273 9.894004 
L 285.647188 9.032887 
L 285.952076 11.714129 
L 285.986472 10.962745 
L 286.057992 11.05023 
L 286.124742 12.491145 
L 286.280233 11.392693 
L 286.349647 12.6147 
L 286.503113 11.972303 
L 286.588235 12.558658 
L 286.69233 10.699311 
L 286.806004 11.078466 
L 286.846679 10.726314 
L 287.019567 12.110786 
L 287.225475 9.708158 
L 287.330914 9.088025 
L 287.464706 10.578453 
L 287.637097 8.981988 
L 287.709643 8.403221 
L 287.949663 11.402392 
L 288.05073 8.912696 
L 288.121388 8.958229 
L 288.279565 9.759899 
L 288.414005 8.897963 
L 288.514257 9.253866 
L 288.667515 7.195128 
L 288.707292 8.350023 
L 288.779816 6.959979 
L 288.839954 8.24352 
L 288.976693 7.188699 
L 289.201576 8.889512 
L 289.27081 7.05143 
L 289.303662 9.101246 
L 289.3729 9.767083 
L 289.423823 8.867764 
L 289.613169 11.122702 
L 289.629314 11.368456 
L 289.700307 11.290975 
L 289.767941 11.436117 
L 289.820876 10.315713 
L 289.906788 11.638298 
L 289.975986 11.443599 
L 290.041642 10.817074 
L 290.179589 12.555774 
L 290.264877 12.891942 
L 290.321447 12.039504 
L 290.402818 12.823746 
L 290.471866 12.239248 
L 290.560049 12.373943 
L 290.664585 12.148669 
L 290.781423 12.57915 
L 290.849979 11.99892 
L 290.918463 12.271029 
L 291.030065 12.184614 
L 291.199185 13.000146 
L 291.340446 12.827311 
L 291.427749 12.991446 
L 291.464638 14.253644 
L 291.59087 14.503159 
L 291.607179 11.49971 
L 291.693532 13.351319 
L 291.829832 12.348915 
L 291.932942 12.143308 
L 292.001774 12.384046 
L 292.246268 8.782479 
L 292.345437 9.519122 
L 292.43598 9.360247 
L 292.465605 9.219111 
L 292.603201 9.649192 
L 293.049594 15.097156 
L 293.101678 14.243851 
L 293.170674 14.517294 
L 293.394356 16.22681 
L 293.514351 15.406662 
L 293.606296 13.27747 
L 293.668832 13.782374 
L 293.738263 12.755535 
L 293.876542 14.036974 
L 293.962148 12.01811 
L 294.014154 12.35035 
L 294.168652 11.360766 
L 294.510926 14.762688 
L 294.616688 12.629272 
L 294.668148 13.649006 
L 294.806885 11.996442 
L 294.877902 12.384082 
L 294.946822 12.188732 
L 295.083361 10.602717 
L 295.169212 11.175072 
L 295.42708 13.735736 
L 295.549063 14.149868 
L 295.587917 15.82725 
L 295.65211 15.656334 
L 295.752689 14.432859 
L 295.806256 15.510308 
L 295.943621 13.460812 
L 296.097705 12.008271 
L 296.201364 12.776707 
L 296.361225 11.297859 
L 296.50944 13.177423 
L 296.584675 12.633137 
L 296.870348 16.59862 
L 296.935998 16.314058 
L 297.016619 16.362106 
L 297.102269 16.130032 
L 297.163987 15.61382 
L 297.214127 14.071052 
L 297.295217 14.72713 
L 297.602343 12.155297 
L 297.655433 13.200435 
L 297.750811 12.005319 
L 297.791695 12.265393 
L 297.883524 12.187858 
L 297.997128 13.91213 
L 298.288667 10.844403 
L 298.426669 11.483494 
L 298.649777 9.419701 
L 298.855347 11.171687 
L 298.92386 10.479065 
L 299.03377 10.629327 
L 299.16624 9.485929 
L 299.355169 11.364528 
L 299.458281 11.379568 
L 299.520256 9.723274 
L 299.577221 10.142903 
L 299.647225 11.765732 
L 299.719677 10.723773 
L 300.009522 12.789451 
L 300.12893 12.71502 
L 300.249437 11.727586 
L 300.283173 12.864165 
L 300.339452 11.743239 
L 300.386744 11.410958 
L 300.420785 12.384523 
L 300.515153 10.262603 
L 300.561764 10.59056 
L 300.818206 8.533883 
L 300.909523 9.206001 
L 301.041743 8.821375 
L 301.076216 10.202873 
L 301.248795 9.518419 
L 301.41946 14.817878 
L 301.490828 13.249837 
L 301.574047 13.546318 
L 301.660604 14.585564 
L 301.711969 12.220257 
L 301.782402 14.426302 
L 301.831786 14.326248 
L 302.068086 10.711468 
L 302.146757 11.330307 
L 302.213128 10.330703 
L 302.415963 12.318099 
L 302.477011 11.634309 
L 302.555212 11.684741 
L 302.744159 13.774529 
L 302.760625 13.181739 
" clip-path="url(#p7c22913b2c)" style="fill: none; stroke: #ff0000; stroke-opacity: 0.5; stroke-width: 3; stroke-linecap: square"/>
   </g>
   <g id="patch_3">
    <path d="M 23.760625 139.32 
L 23.760625 0.72 
" style="fill: none; stroke: #000000; stroke-width: 0.8; stroke-linejoin: miter; stroke-linecap: square"/>
   </g>
   <g id="patch_4">
    <path d="M 302.760625 139.32 
L 302.760625 0.72 
" style="fill: none; stroke: #000000; stroke-width: 0.8; stroke-linejoin: miter; stroke-linecap: square"/>
   </g>
   <g id="patch_5">
    <path d="M 23.760625 139.32 
L 302.760625 139.32 
" style="fill: none; stroke: #000000; stroke-width: 0.8; stroke-linejoin: miter; stroke-linecap: square"/>
   </g>
   <g id="patch_6">
    <path d="M 23.760625 0.72 
L 302.760625 0.72 
" style="fill: none; stroke: #000000; stroke-width: 0.8; stroke-linejoin: miter; stroke-linecap: square"/>
   </g>
   <g id="legend_1">
    <g id="patch_7">
     <path d="M 221.991875 86.198125 
L 295.760625 86.198125 
Q 297.760625 86.198125 297.760625 84.198125 
L 297.760625 55.841875 
Q 297.760625 53.841875 295.760625 53.841875 
L 221.991875 53.841875 
Q 219.991875 53.841875 219.991875 55.841875 
L 219.991875 84.198125 
Q 219.991875 86.198125 221.991875 86.198125 
z
" style="fill: #ffffff; opacity: 0.8; stroke: #cccccc; stroke-linejoin: miter"/>
    </g>
    <g id="line2d_27">
     <path d="M 223.991875 61.940312 
L 233.991875 61.940312 
L 243.991875 61.940312 
" style="fill: none; stroke: #0000ff; stroke-opacity: 0.5; stroke-width: 3; stroke-linecap: square"/>
    </g>
    <g id="text_15">
     <!-- RNEA -->
     <g transform="translate(251.991875 65.440312) scale(0.1 -0.1)">
      <defs>
       <path id="DejaVuSans-52" d="M 2841 2188 
Q 3044 2119 3236 1894 
Q 3428 1669 3622 1275 
L 4263 0 
L 3584 0 
L 2988 1197 
Q 2756 1666 2539 1819 
Q 2322 1972 1947 1972 
L 1259 1972 
L 1259 0 
L 628 0 
L 628 4666 
L 2053 4666 
Q 2853 4666 3247 4331 
Q 3641 3997 3641 3322 
Q 3641 2881 3436 2590 
Q 3231 2300 2841 2188 
z
M 1259 4147 
L 1259 2491 
L 2053 2491 
Q 2509 2491 2742 2702 
Q 2975 2913 2975 3322 
Q 2975 3731 2742 3939 
Q 2509 4147 2053 4147 
L 1259 4147 
z
" transform="scale(0.015625)"/>
       <path id="DejaVuSans-45" d="M 628 4666 
L 3578 4666 
L 3578 4134 
L 1259 4134 
L 1259 2753 
L 3481 2753 
L 3481 2222 
L 1259 2222 
L 1259 531 
L 3634 531 
L 3634 0 
L 628 0 
L 628 4666 
z
" transform="scale(0.015625)"/>
       <path id="DejaVuSans-41" d="M 2188 4044 
L 1331 1722 
L 3047 1722 
L 2188 4044 
z
M 1831 4666 
L 2547 4666 
L 4325 0 
L 3669 0 
L 3244 1197 
L 1141 1197 
L 716 0 
L 50 0 
L 1831 4666 
z
" transform="scale(0.015625)"/>
      </defs>
      <use xlink:href="#DejaVuSans-52"/>
      <use xlink:href="#DejaVuSans-4e" x="69.482422"/>
      <use xlink:href="#DejaVuSans-45" x="144.287109"/>
      <use xlink:href="#DejaVuSans-41" x="207.470703"/>
     </g>
    </g>
    <g id="line2d_28">
     <path d="M 223.991875 76.618437 
L 233.991875 76.618437 
L 243.991875 76.618437 
" style="fill: none; stroke: #ff0000; stroke-opacity: 0.5; stroke-width: 3; stroke-linecap: square"/>
    </g>
    <g id="text_16">
     <!-- BURNEA -->
     <g transform="translate(251.991875 80.118437) scale(0.1 -0.1)">
      <defs>
       <path id="DejaVuSans-42" d="M 1259 2228 
L 1259 519 
L 2272 519 
Q 2781 519 3026 730 
Q 3272 941 3272 1375 
Q 3272 1813 3026 2020 
Q 2781 2228 2272 2228 
L 1259 2228 
z
M 1259 4147 
L 1259 2741 
L 2194 2741 
Q 2656 2741 2882 2914 
Q 3109 3088 3109 3444 
Q 3109 3797 2882 3972 
Q 2656 4147 2194 4147 
L 1259 4147 
z
M 628 4666 
L 2241 4666 
Q 2963 4666 3353 4366 
Q 3744 4066 3744 3513 
Q 3744 3084 3544 2831 
Q 3344 2578 2956 2516 
Q 3422 2416 3680 2098 
Q 3938 1781 3938 1306 
Q 3938 681 3513 340 
Q 3088 0 2303 0 
L 628 0 
L 628 4666 
z
" transform="scale(0.015625)"/>
       <path id="DejaVuSans-55" d="M 556 4666 
L 1191 4666 
L 1191 1831 
Q 1191 1081 1462 751 
Q 1734 422 2344 422 
Q 2950 422 3222 751 
Q 3494 1081 3494 1831 
L 3494 4666 
L 4128 4666 
L 4128 1753 
Q 4128 841 3676 375 
Q 3225 -91 2344 -91 
Q 1459 -91 1007 375 
Q 556 841 556 1753 
L 556 4666 
z
" transform="scale(0.015625)"/>
      </defs>
      <use xlink:href="#DejaVuSans-42"/>
      <use xlink:href="#DejaVuSans-55" x="68.603516"/>
      <use xlink:href="#DejaVuSans-52" x="141.796875"/>
      <use xlink:href="#DejaVuSans-4e" x="211.279297"/>
      <use xlink:href="#DejaVuSans-45" x="286.083984"/>
      <use xlink:href="#DejaVuSans-41" x="349.267578"/>
     </g>
    </g>
   </g>
  </g>
 </g>
 <defs>
  <clipPath id="p7c22913b2c">
   <rect x="23.760625" y="0.72" width="279" height="138.6"/>
  </clipPath>
 </defs>
</svg>
